0, 0, Header, 0, 1, 384
1, 0, Start_track
1, 0, Tempo, 512820
1, 0, Title_t, "Sechs Moments MuNr. 4 cis-moll"
1, 0, Program_c, 0, 0
1, 0, Control_c, 0, 7, 100
1, 3, Control_c, 0, 10, 64
1, 3, Control_c, 0, 91, 127
1, 3, Program_c, 0, 0
1, 6, Control_c, 0, 7, 100
1, 6, Control_c, 0, 10, 64
1, 6, Control_c, 0, 64, 0
1, 653, Control_c, 0, 91, 127
1, 653, Control_c, 0, 91, 127
1, 748, Note_on_c, 0, 68, 70
1, 970, Note_on_c, 0, 68, 0
1, 970, Note_on_c, 0, 64, 76
1, 970, Note_on_c, 0, 49, 64
1, 1081, Note_on_c, 0, 64, 0
1, 1081, Note_on_c, 0, 61, 70
1, 1081, Note_on_c, 0, 49, 0
1, 1189, Note_on_c, 0, 61, 0
1, 1189, Note_on_c, 0, 64, 70
1, 1189, Note_on_c, 0, 56, 60
1, 1299, Note_on_c, 0, 64, 0
1, 1299, Note_on_c, 0, 68, 70
1, 1299, Note_on_c, 0, 56, 0
1, 1409, Note_on_c, 0, 68, 0
1, 1409, Note_on_c, 0, 64, 74
1, 1409, Note_on_c, 0, 49, 64
1, 1519, Note_on_c, 0, 64, 0
1, 1519, Note_on_c, 0, 61, 70
1, 1519, Note_on_c, 0, 49, 0
1, 1628, Note_on_c, 0, 61, 0
1, 1628, Note_on_c, 0, 64, 70
1, 1628, Note_on_c, 0, 57, 60
1, 1736, Note_on_c, 0, 64, 0
1, 1736, Note_on_c, 0, 69, 70
1, 1736, Note_on_c, 0, 57, 0
1, 1846, Note_on_c, 0, 69, 0
1, 1846, Note_on_c, 0, 63, 73
1, 1846, Note_on_c, 0, 48, 64
1, 1956, Note_on_c, 0, 63, 0
1, 1956, Note_on_c, 0, 60, 70
1, 1956, Note_on_c, 0, 48, 0
1, 2064, Note_on_c, 0, 60, 0
1, 2064, Note_on_c, 0, 63, 70
1, 2064, Note_on_c, 0, 57, 61
1, 2174, Note_on_c, 0, 63, 0
1, 2174, Note_on_c, 0, 69, 70
1, 2174, Note_on_c, 0, 57, 0
1, 2284, Note_on_c, 0, 69, 0
1, 2284, Note_on_c, 0, 63, 73
1, 2284, Note_on_c, 0, 48, 64
1, 2394, Note_on_c, 0, 63, 0
1, 2394, Note_on_c, 0, 60, 70
1, 2394, Note_on_c, 0, 48, 0
1, 2503, Note_on_c, 0, 60, 0
1, 2503, Note_on_c, 0, 63, 70
1, 2503, Note_on_c, 0, 56, 60
1, 2612, Note_on_c, 0, 63, 0
1, 2612, Note_on_c, 0, 68, 70
1, 2612, Note_on_c, 0, 56, 0
1, 2721, Note_on_c, 0, 68, 0
1, 2721, Note_on_c, 0, 68, 76
1, 2721, Note_on_c, 0, 49, 65
1, 2831, Note_on_c, 0, 68, 0
1, 2831, Note_on_c, 0, 64, 73
1, 2831, Note_on_c, 0, 49, 0
1, 2939, Note_on_c, 0, 64, 0
1, 2939, Note_on_c, 0, 68, 73
1, 2939, Note_on_c, 0, 56, 61
1, 3048, Note_on_c, 0, 68, 0
1, 3048, Note_on_c, 0, 76, 73
1, 3048, Note_on_c, 0, 56, 0
1, 3158, Note_on_c, 0, 76, 0
1, 3158, Note_on_c, 0, 68, 76
1, 3158, Note_on_c, 0, 52, 65
1, 3268, Note_on_c, 0, 68, 0
1, 3268, Note_on_c, 0, 64, 73
1, 3268, Note_on_c, 0, 52, 0
1, 3377, Note_on_c, 0, 64, 0
1, 3377, Note_on_c, 0, 68, 73
1, 3377, Note_on_c, 0, 56, 62
1, 3486, Note_on_c, 0, 68, 0
1, 3486, Note_on_c, 0, 73, 73
1, 3486, Note_on_c, 0, 56, 0
1, 3595, Note_on_c, 0, 73, 0
1, 3595, Note_on_c, 0, 69, 77
1, 3595, Note_on_c, 0, 51, 66
1, 3705, Note_on_c, 0, 69, 0
1, 3705, Note_on_c, 0, 68, 70
1, 3705, Note_on_c, 0, 51, 0
1, 3813, Note_on_c, 0, 68, 0
1, 3813, Note_on_c, 0, 66, 71
1, 3813, Note_on_c, 0, 57, 62
1, 3922, Note_on_c, 0, 66, 0
1, 3922, Note_on_c, 0, 73, 72
1, 3922, Note_on_c, 0, 57, 0
1, 4031, Note_on_c, 0, 73, 0
1, 4031, Note_on_c, 0, 72, 78
1, 4031, Note_on_c, 0, 51, 65
1, 4141, Note_on_c, 0, 72, 0
1, 4141, Note_on_c, 0, 66, 75
1, 4141, Note_on_c, 0, 51, 0
1, 4251, Note_on_c, 0, 66, 0
1, 4251, Note_on_c, 0, 68, 76
1, 4251, Note_on_c, 0, 56, 62
1, 4360, Note_on_c, 0, 68, 0
1, 4360, Note_on_c, 0, 72, 77
1, 4360, Note_on_c, 0, 56, 0
1, 4470, Note_on_c, 0, 72, 0
1, 4470, Note_on_c, 0, 73, 82
1, 4470, Note_on_c, 0, 49, 66
1, 4580, Note_on_c, 0, 73, 0
1, 4580, Note_on_c, 0, 64, 73
1, 4580, Note_on_c, 0, 49, 0
1, 4689, Note_on_c, 0, 64, 0
1, 4689, Note_on_c, 0, 68, 75
1, 4689, Note_on_c, 0, 61, 60
1, 4798, Note_on_c, 0, 68, 0
1, 4798, Note_on_c, 0, 73, 77
1, 4798, Note_on_c, 0, 61, 0
1, 4907, Note_on_c, 0, 73, 0
1, 4907, Note_on_c, 0, 76, 79
1, 4907, Note_on_c, 0, 49, 65
1, 5018, Note_on_c, 0, 76, 0
1, 5018, Note_on_c, 0, 68, 74
1, 5018, Note_on_c, 0, 49, 0
1, 5126, Note_on_c, 0, 68, 0
1, 5126, Note_on_c, 0, 76, 76
1, 5126, Note_on_c, 0, 59, 61
1, 5234, Note_on_c, 0, 76, 0
1, 5234, Note_on_c, 0, 80, 78
1, 5234, Note_on_c, 0, 59, 0
1, 5344, Note_on_c, 0, 80, 0
1, 5344, Note_on_c, 0, 76, 83
1, 5344, Note_on_c, 0, 54, 67
1, 5455, Note_on_c, 0, 76, 0
1, 5455, Note_on_c, 0, 69, 74
1, 5455, Note_on_c, 0, 54, 0
1, 5564, Note_on_c, 0, 69, 0
1, 5564, Note_on_c, 0, 76, 76
1, 5564, Note_on_c, 0, 57, 66
1, 5674, Note_on_c, 0, 76, 0
1, 5674, Note_on_c, 0, 80, 78
1, 5674, Note_on_c, 0, 57, 0
1, 5783, Note_on_c, 0, 80, 0
1, 5783, Note_on_c, 0, 74, 80
1, 5783, Note_on_c, 0, 54, 67
1, 5893, Note_on_c, 0, 74, 0
1, 5893, Note_on_c, 0, 78, 77
1, 5893, Note_on_c, 0, 54, 0
1, 6002, Note_on_c, 0, 78, 0
1, 6002, Note_on_c, 0, 73, 80
1, 6002, Note_on_c, 0, 57, 64
1, 6111, Note_on_c, 0, 73, 0
1, 6111, Note_on_c, 0, 76, 77
1, 6111, Note_on_c, 0, 57, 0
1, 6221, Note_on_c, 0, 76, 0
1, 6221, Note_on_c, 0, 72, 78
1, 6221, Note_on_c, 0, 45, 68
1, 6329, Note_on_c, 0, 72, 0
1, 6329, Note_on_c, 0, 75, 75
1, 6329, Note_on_c, 0, 45, 0
1, 6438, Note_on_c, 0, 75, 0
1, 6438, Note_on_c, 0, 73, 77
1, 6438, Note_on_c, 0, 54, 64
1, 6548, Note_on_c, 0, 73, 0
1, 6548, Note_on_c, 0, 76, 75
1, 6548, Note_on_c, 0, 54, 0
1, 6658, Note_on_c, 0, 76, 0
1, 6658, Note_on_c, 0, 75, 78
1, 6658, Note_on_c, 0, 44, 66
1, 6769, Note_on_c, 0, 75, 0
1, 6769, Note_on_c, 0, 78, 74
1, 6769, Note_on_c, 0, 44, 0
1, 6881, Note_on_c, 0, 78, 0
1, 6881, Note_on_c, 0, 72, 79
1, 6881, Note_on_c, 0, 56, 64
1, 6993, Note_on_c, 0, 72, 0
1, 6993, Note_on_c, 0, 75, 74
1, 6993, Note_on_c, 0, 56, 0
1, 7108, Note_on_c, 0, 75, 0
1, 7108, Note_on_c, 0, 76, 78
1, 7108, Note_on_c, 0, 49, 64
1, 7217, Note_on_c, 0, 76, 0
1, 7217, Note_on_c, 0, 73, 77
1, 7217, Note_on_c, 0, 49, 0
1, 7328, Note_on_c, 0, 73, 0
1, 7328, Note_on_c, 0, 71, 76
1, 7328, Note_on_c, 0, 51, 64
1, 7439, Note_on_c, 0, 71, 0
1, 7439, Note_on_c, 0, 69, 74
1, 7439, Note_on_c, 0, 51, 0
1, 7551, Note_on_c, 0, 69, 0
1, 7551, Note_on_c, 0, 68, 73
1, 7551, Note_on_c, 0, 52, 65
1, 7664, Note_on_c, 0, 68, 0
1, 7664, Note_on_c, 0, 66, 72
1, 7664, Note_on_c, 0, 52, 0
1, 7778, Note_on_c, 0, 66, 0
1, 7778, Note_on_c, 0, 64, 70
1, 7778, Note_on_c, 0, 56, 66
1, 7892, Note_on_c, 0, 64, 0
1, 7892, Note_on_c, 0, 63, 69
1, 7892, Note_on_c, 0, 56, 0
1, 8008, Note_on_c, 0, 63, 0
1, 8008, Note_on_c, 0, 64, 72
1, 8008, Note_on_c, 0, 49, 61
1, 8125, Note_on_c, 0, 64, 0
1, 8125, Note_on_c, 0, 61, 67
1, 8125, Note_on_c, 0, 49, 0
1, 8236, Note_on_c, 0, 61, 0
1, 8236, Note_on_c, 0, 64, 67
1, 8236, Note_on_c, 0, 56, 57
1, 8348, Note_on_c, 0, 64, 0
1, 8348, Note_on_c, 0, 68, 67
1, 8348, Note_on_c, 0, 56, 0
1, 8460, Note_on_c, 0, 68, 0
1, 8460, Note_on_c, 0, 64, 70
1, 8460, Note_on_c, 0, 49, 61
1, 8572, Note_on_c, 0, 64, 0
1, 8572, Note_on_c, 0, 61, 67
1, 8572, Note_on_c, 0, 49, 0
1, 8682, Note_on_c, 0, 61, 0
1, 8682, Note_on_c, 0, 64, 67
1, 8682, Note_on_c, 0, 57, 57
1, 8794, Note_on_c, 0, 64, 0
1, 8794, Note_on_c, 0, 69, 67
1, 8794, Note_on_c, 0, 57, 0
1, 8905, Note_on_c, 0, 69, 0
1, 8905, Note_on_c, 0, 63, 69
1, 8905, Note_on_c, 0, 47, 61
1, 9017, Note_on_c, 0, 63, 0
1, 9017, Note_on_c, 0, 59, 67
1, 9017, Note_on_c, 0, 47, 0
1, 9128, Note_on_c, 0, 59, 0
1, 9128, Note_on_c, 0, 63, 67
1, 9128, Note_on_c, 0, 57, 58
1, 9239, Note_on_c, 0, 63, 0
1, 9239, Note_on_c, 0, 69, 67
1, 9239, Note_on_c, 0, 57, 0
1, 9351, Note_on_c, 0, 69, 0
1, 9351, Note_on_c, 0, 63, 69
1, 9351, Note_on_c, 0, 47, 61
1, 9463, Note_on_c, 0, 63, 0
1, 9463, Note_on_c, 0, 59, 67
1, 9463, Note_on_c, 0, 47, 0
1, 9575, Note_on_c, 0, 59, 0
1, 9575, Note_on_c, 0, 63, 67
1, 9575, Note_on_c, 0, 56, 57
1, 9686, Note_on_c, 0, 63, 0
1, 9686, Note_on_c, 0, 68, 67
1, 9686, Note_on_c, 0, 56, 0
1, 9798, Note_on_c, 0, 68, 0
1, 9798, Note_on_c, 0, 68, 72
1, 9798, Note_on_c, 0, 52, 62
1, 9910, Note_on_c, 0, 68, 0
1, 9910, Note_on_c, 0, 61, 69
1, 9910, Note_on_c, 0, 52, 0
1, 10021, Note_on_c, 0, 61, 0
1, 10021, Note_on_c, 0, 68, 69
1, 10021, Note_on_c, 0, 56, 58
1, 10132, Note_on_c, 0, 68, 0
1, 10132, Note_on_c, 0, 73, 69
1, 10132, Note_on_c, 0, 56, 0
1, 10244, Note_on_c, 0, 73, 0
1, 10244, Note_on_c, 0, 66, 72
1, 10244, Note_on_c, 0, 45, 62
1, 10356, Note_on_c, 0, 66, 0
1, 10356, Note_on_c, 0, 63, 69
1, 10356, Note_on_c, 0, 45, 0
1, 10467, Note_on_c, 0, 63, 0
1, 10467, Note_on_c, 0, 66, 69
1, 10467, Note_on_c, 0, 57, 59
1, 10579, Note_on_c, 0, 66, 0
1, 10579, Note_on_c, 0, 73, 69
1, 10579, Note_on_c, 0, 57, 0
1, 10691, Note_on_c, 0, 73, 0
1, 10691, Note_on_c, 0, 68, 73
1, 10691, Note_on_c, 0, 44, 61
1, 10803, Note_on_c, 0, 68, 0
1, 10803, Note_on_c, 0, 64, 69
1, 10803, Note_on_c, 0, 44, 0
1, 10913, Note_on_c, 0, 64, 0
1, 10913, Note_on_c, 0, 68, 69
1, 10913, Note_on_c, 0, 59, 59
1, 11024, Note_on_c, 0, 68, 0
1, 11024, Note_on_c, 0, 73, 69
1, 11024, Note_on_c, 0, 59, 0
1, 11135, Note_on_c, 0, 73, 0
1, 11135, Note_on_c, 0, 68, 72
1, 11135, Note_on_c, 0, 56, 62
1, 11246, Note_on_c, 0, 68, 0
1, 11246, Note_on_c, 0, 64, 70
1, 11246, Note_on_c, 0, 56, 0
1, 11357, Note_on_c, 0, 64, 0
1, 11357, Note_on_c, 0, 68, 70
1, 11357, Note_on_c, 0, 59, 59
1, 11468, Note_on_c, 0, 68, 0
1, 11468, Note_on_c, 0, 71, 70
1, 11468, Note_on_c, 0, 59, 0
1, 11580, Note_on_c, 0, 71, 0
1, 11580, Note_on_c, 0, 67, 78
1, 11580, Note_on_c, 0, 49, 62
1, 11693, Note_on_c, 0, 67, 0
1, 11693, Note_on_c, 0, 64, 69
1, 11693, Note_on_c, 0, 49, 0
1, 11804, Note_on_c, 0, 64, 0
1, 11804, Note_on_c, 0, 67, 71
1, 11804, Note_on_c, 0, 52, 57
1, 11915, Note_on_c, 0, 67, 0
1, 11915, Note_on_c, 0, 70, 73
1, 11915, Note_on_c, 0, 52, 0
1, 12028, Note_on_c, 0, 70, 0
1, 12028, Note_on_c, 0, 76, 75
1, 12028, Note_on_c, 0, 48, 62
1, 12140, Note_on_c, 0, 76, 0
1, 12140, Note_on_c, 0, 70, 70
1, 12140, Note_on_c, 0, 48, 0
1, 12251, Note_on_c, 0, 70, 0
1, 12251, Note_on_c, 0, 76, 72
1, 12251, Note_on_c, 0, 58, 54
1, 12362, Note_on_c, 0, 76, 0
1, 12362, Note_on_c, 0, 79, 74
1, 12362, Note_on_c, 0, 58, 0
1, 12474, Note_on_c, 0, 79, 0
1, 12474, Note_on_c, 0, 75, 74
1, 12474, Note_on_c, 0, 47, 58
1, 12585, Note_on_c, 0, 75, 0
1, 12585, Note_on_c, 0, 79, 72
1, 12585, Note_on_c, 0, 47, 0
1, 12696, Note_on_c, 0, 79, 0
1, 12696, Note_on_c, 0, 75, 73
1, 12696, Note_on_c, 0, 59, 55
1, 12807, Note_on_c, 0, 75, 0
1, 12807, Note_on_c, 0, 78, 71
1, 12807, Note_on_c, 0, 59, 0
1, 12919, Note_on_c, 0, 78, 0
1, 12919, Note_on_c, 0, 69, 72
1, 12919, Note_on_c, 0, 48, 58
1, 13032, Note_on_c, 0, 69, 0
1, 13032, Note_on_c, 0, 76, 71
1, 13032, Note_on_c, 0, 48, 0
1, 13145, Note_on_c, 0, 76, 0
1, 13145, Note_on_c, 0, 69, 72
1, 13145, Note_on_c, 0, 54, 53
1, 13258, Note_on_c, 0, 69, 0
1, 13258, Note_on_c, 0, 75, 70
1, 13258, Note_on_c, 0, 54, 0
1, 13372, Note_on_c, 0, 75, 0
1, 13372, Note_on_c, 0, 69, 69
1, 13372, Note_on_c, 0, 49, 55
1, 13486, Note_on_c, 0, 69, 0
1, 13486, Note_on_c, 0, 78, 66
1, 13486, Note_on_c, 0, 49, 0
1, 13601, Note_on_c, 0, 78, 0
1, 13601, Note_on_c, 0, 68, 69
1, 13601, Note_on_c, 0, 52, 49
1, 13717, Note_on_c, 0, 68, 0
1, 13717, Note_on_c, 0, 76, 66
1, 13717, Note_on_c, 0, 52, 0
1, 13833, Note_on_c, 0, 76, 0
1, 13833, Note_on_c, 0, 64, 68
1, 13833, Note_on_c, 0, 45, 56
1, 13949, Note_on_c, 0, 64, 0
1, 13949, Note_on_c, 0, 73, 65
1, 13949, Note_on_c, 0, 45, 0
1, 14066, Note_on_c, 0, 73, 0
1, 14066, Note_on_c, 0, 61, 67
1, 14066, Note_on_c, 0, 54, 50
1, 14184, Note_on_c, 0, 61, 0
1, 14184, Note_on_c, 0, 69, 65
1, 14184, Note_on_c, 0, 54, 0
1, 14301, Note_on_c, 0, 69, 0
1, 14301, Note_on_c, 0, 59, 67
1, 14301, Note_on_c, 0, 47, 56
1, 14419, Note_on_c, 0, 59, 0
1, 14419, Note_on_c, 0, 68, 65
1, 14419, Note_on_c, 0, 47, 0
1, 14536, Note_on_c, 0, 68, 0
1, 14536, Note_on_c, 0, 64, 67
1, 14536, Note_on_c, 0, 56, 53
1, 14652, Note_on_c, 0, 64, 0
1, 14652, Note_on_c, 0, 71, 66
1, 14652, Note_on_c, 0, 56, 0
1, 14768, Note_on_c, 0, 71, 0
1, 14768, Note_on_c, 0, 59, 67
1, 14768, Note_on_c, 0, 47, 55
1, 14883, Note_on_c, 0, 59, 0
1, 14883, Note_on_c, 0, 69, 66
1, 14883, Note_on_c, 0, 47, 0
1, 14997, Note_on_c, 0, 69, 0
1, 14997, Note_on_c, 0, 63, 67
1, 14997, Note_on_c, 0, 57, 51
1, 15110, Note_on_c, 0, 63, 0
1, 15110, Note_on_c, 0, 71, 66
1, 15110, Note_on_c, 0, 57, 0
1, 15223, Note_on_c, 0, 71, 0
1, 15223, Note_on_c, 0, 69, 67
1, 15223, Note_on_c, 0, 47, 56
1, 15336, Note_on_c, 0, 63, 64
1, 15336, Note_on_c, 0, 47, 0
1, 15447, Note_on_c, 0, 63, 0
1, 15447, Note_on_c, 0, 59, 64
1, 15447, Note_on_c, 0, 54, 49
1, 15559, Note_on_c, 0, 59, 0
1, 15559, Note_on_c, 0, 69, 0
1, 15559, Note_on_c, 0, 69, 67
1, 15562, Note_on_c, 0, 54, 0
1, 15671, Note_on_c, 0, 69, 0
1, 15671, Note_on_c, 0, 68, 67
1, 15671, Note_on_c, 0, 52, 57
1, 15782, Note_on_c, 0, 68, 0
1, 15782, Note_on_c, 0, 64, 63
1, 15782, Note_on_c, 0, 52, 0
1, 15894, Note_on_c, 0, 64, 0
1, 15894, Note_on_c, 0, 68, 65
1, 15894, Note_on_c, 0, 54, 51
1, 16003, Note_on_c, 0, 68, 0
1, 16003, Note_on_c, 0, 69, 67
1, 16003, Note_on_c, 0, 54, 0
1, 16115, Note_on_c, 0, 69, 0
1, 16115, Note_on_c, 0, 71, 69
1, 16115, Note_on_c, 0, 56, 55
1, 16229, Note_on_c, 0, 71, 0
1, 16229, Note_on_c, 0, 68, 60
1, 16229, Note_on_c, 0, 56, 0
1, 16343, Note_on_c, 0, 68, 0
1, 16343, Note_on_c, 0, 71, 63
1, 16343, Note_on_c, 0, 59, 46
1, 16458, Note_on_c, 0, 71, 0
1, 16458, Note_on_c, 0, 80, 56
1, 16458, Note_on_c, 0, 59, 0
1, 16574, Note_on_c, 0, 80, 0
1, 16574, Note_on_c, 0, 71, 59
1, 16574, Note_on_c, 0, 56, 44
1, 16686, Note_on_c, 0, 71, 0
1, 16686, Note_on_c, 0, 78, 54
1, 16686, Note_on_c, 0, 56, 0
1, 16799, Note_on_c, 0, 78, 0
1, 16799, Note_on_c, 0, 72, 59
1, 16799, Note_on_c, 0, 64, 41
1, 16912, Note_on_c, 0, 72, 0
1, 16912, Note_on_c, 0, 76, 56
1, 16912, Note_on_c, 0, 64, 0
1, 17025, Note_on_c, 0, 76, 0
1, 17025, Note_on_c, 0, 73, 63
1, 17025, Note_on_c, 0, 57, 55
1, 17146, Note_on_c, 0, 73, 0
1, 17146, Note_on_c, 0, 64, 66
1, 17146, Note_on_c, 0, 57, 0
1, 17264, Note_on_c, 0, 64, 0
1, 17264, Note_on_c, 0, 73, 64
1, 17264, Note_on_c, 0, 45, 50
1, 17383, Note_on_c, 0, 73, 0
1, 17383, Note_on_c, 0, 76, 65
1, 17383, Note_on_c, 0, 45, 0
1, 17501, Note_on_c, 0, 76, 0
1, 17501, Note_on_c, 0, 71, 69
1, 17501, Note_on_c, 0, 47, 51
1, 17621, Note_on_c, 0, 71, 0
1, 17621, Note_on_c, 0, 75, 64
1, 17621, Note_on_c, 0, 47, 0
1, 17738, Note_on_c, 0, 75, 0
1, 17738, Note_on_c, 0, 69, 67
1, 17738, Note_on_c, 0, 49, 52
1, 17856, Note_on_c, 0, 69, 0
1, 17856, Note_on_c, 0, 73, 64
1, 17856, Note_on_c, 0, 49, 0
1, 17975, Note_on_c, 0, 73, 0
1, 17975, Note_on_c, 0, 68, 67
1, 17975, Note_on_c, 0, 47, 55
1, 18095, Note_on_c, 0, 68, 0
1, 18095, Note_on_c, 0, 59, 64
1, 18095, Note_on_c, 0, 47, 0
1, 18213, Note_on_c, 0, 59, 0
1, 18213, Note_on_c, 0, 68, 64
1, 18213, Note_on_c, 0, 52, 49
1, 18331, Note_on_c, 0, 68, 0
1, 18331, Note_on_c, 0, 71, 64
1, 18331, Note_on_c, 0, 52, 0
1, 18450, Note_on_c, 0, 71, 0
1, 18450, Note_on_c, 0, 64, 67
1, 18450, Note_on_c, 0, 47, 53
1, 18569, Note_on_c, 0, 64, 0
1, 18569, Note_on_c, 0, 58, 61
1, 18569, Note_on_c, 0, 47, 0
1, 18687, Note_on_c, 0, 58, 0
1, 18687, Note_on_c, 0, 64, 62
1, 18687, Note_on_c, 0, 55, 51
1, 18806, Note_on_c, 0, 64, 0
1, 18806, Note_on_c, 0, 73, 62
1, 18806, Note_on_c, 0, 55, 0
1, 18925, Note_on_c, 0, 73, 0
1, 18925, Note_on_c, 0, 66, 64
1, 18925, Note_on_c, 0, 47, 51
1, 19048, Note_on_c, 0, 66, 0
1, 19048, Note_on_c, 0, 57, 59
1, 19048, Note_on_c, 0, 47, 0
1, 19169, Note_on_c, 0, 57, 0
1, 19169, Note_on_c, 0, 66, 59
1, 19169, Note_on_c, 0, 52, 49
1, 19290, Note_on_c, 0, 66, 0
1, 19290, Note_on_c, 0, 71, 59
1, 19290, Note_on_c, 0, 52, 0
1, 19411, Note_on_c, 0, 71, 0
1, 19411, Note_on_c, 0, 66, 63
1, 19411, Note_on_c, 0, 47, 51
1, 19532, Note_on_c, 0, 66, 0
1, 19532, Note_on_c, 0, 57, 58
1, 19532, Note_on_c, 0, 47, 0
1, 19654, Note_on_c, 0, 57, 0
1, 19654, Note_on_c, 0, 66, 58
1, 19654, Note_on_c, 0, 51, 47
1, 19775, Note_on_c, 0, 66, 0
1, 19775, Note_on_c, 0, 71, 58
1, 19775, Note_on_c, 0, 51, 0
1, 19896, Note_on_c, 0, 71, 0
1, 19896, Note_on_c, 0, 64, 58
1, 19896, Note_on_c, 0, 52, 58
1, 19950, Control_c, 0, 64, 127
1, 20012, Note_on_c, 0, 64, 0
1, 20012, Note_on_c, 0, 56, 54
1, 20128, Note_on_c, 0, 56, 0
1, 20128, Note_on_c, 0, 64, 54
1, 20128, Note_on_c, 0, 52, 0
1, 20244, Note_on_c, 0, 64, 0
1, 20244, Note_on_c, 0, 68, 54
1, 20359, Note_on_c, 0, 68, 0
1, 20359, Note_on_c, 0, 47, 58
1, 20366, Control_c, 0, 64, 0
1, 20455, Control_c, 0, 64, 127
1, 20475, Note_on_c, 0, 47, 0
1, 20475, Note_on_c, 0, 40, 54
1, 20591, Note_on_c, 0, 40, 0
1, 20591, Note_on_c, 0, 47, 54
1, 20707, Note_on_c, 0, 47, 0
1, 20707, Note_on_c, 0, 52, 55
1, 20823, Note_on_c, 0, 63, 58
1, 20823, Note_on_c, 0, 52, 0
1, 20823, Control_c, 0, 64, 0
1, 20919, Control_c, 0, 64, 127
1, 20939, Note_on_c, 0, 63, 0
1, 20939, Note_on_c, 0, 57, 53
1, 21055, Note_on_c, 0, 57, 0
1, 21055, Note_on_c, 0, 63, 53
1, 21171, Note_on_c, 0, 63, 0
1, 21171, Note_on_c, 0, 71, 53
1, 21287, Note_on_c, 0, 71, 0
1, 21287, Note_on_c, 0, 47, 58
1, 21294, Control_c, 0, 64, 0
1, 21361, Control_c, 0, 64, 127
1, 21402, Note_on_c, 0, 47, 0
1, 21402, Note_on_c, 0, 40, 54
1, 21518, Note_on_c, 0, 40, 0
1, 21518, Note_on_c, 0, 47, 54
1, 21634, Note_on_c, 0, 47, 0
1, 21634, Note_on_c, 0, 54, 54
1, 21750, Note_on_c, 0, 64, 58
1, 21750, Note_on_c, 0, 54, 0
1, 21750, Control_c, 0, 64, 0
1, 21832, Control_c, 0, 64, 127
1, 21867, Note_on_c, 0, 64, 0
1, 21867, Note_on_c, 0, 56, 55
1, 21985, Note_on_c, 0, 56, 0
1, 21985, Note_on_c, 0, 64, 55
1, 22102, Note_on_c, 0, 64, 0
1, 22102, Note_on_c, 0, 68, 55
1, 22219, Note_on_c, 0, 68, 0
1, 22219, Note_on_c, 0, 68, 54
1, 22219, Note_on_c, 0, 52, 56
1, 22337, Note_on_c, 0, 68, 0
1, 22337, Note_on_c, 0, 71, 59
1, 22337, Note_on_c, 0, 52, 0
1, 22340, Note_on_c, 0, 56, 57
1, 22455, Note_on_c, 0, 71, 0
1, 22455, Note_on_c, 0, 76, 63
1, 22455, Note_on_c, 0, 56, 0
1, 22458, Note_on_c, 0, 59, 62
1, 22574, Note_on_c, 0, 76, 0
1, 22574, Note_on_c, 0, 80, 68
1, 22574, Note_on_c, 0, 59, 0
1, 22577, Note_on_c, 0, 64, 66
1, 22705, Note_on_c, 0, 80, 0
1, 22705, Note_on_c, 0, 80, 72
1, 22705, Note_on_c, 0, 64, 0
1, 22708, Control_c, 0, 64, 0
1, 22708, Note_on_c, 0, 64, 68
1, 22774, Control_c, 0, 64, 127
1, 22823, Note_on_c, 0, 68, 56
1, 22941, Note_on_c, 0, 68, 0
1, 22941, Note_on_c, 0, 80, 0
1, 22941, Note_on_c, 0, 76, 66
1, 22944, Note_on_c, 0, 64, 0
1, 22944, Note_on_c, 0, 61, 65
1, 23058, Note_on_c, 0, 68, 57
1, 23176, Note_on_c, 0, 68, 0
1, 23176, Note_on_c, 0, 76, 0
1, 23176, Note_on_c, 0, 75, 63
1, 23179, Note_on_c, 0, 61, 0
1, 23179, Note_on_c, 0, 60, 62
1, 23183, Control_c, 0, 64, 0
1, 23294, Note_on_c, 0, 68, 54
1, 23412, Note_on_c, 0, 68, 0
1, 23412, Note_on_c, 0, 75, 0
1, 23412, Note_on_c, 0, 74, 60
1, 23415, Note_on_c, 0, 60, 0
1, 23415, Note_on_c, 0, 59, 59
1, 23530, Note_on_c, 0, 68, 54
1, 23648, Note_on_c, 0, 68, 0
1, 23648, Note_on_c, 0, 74, 0
1, 23648, Note_on_c, 0, 73, 58
1, 23651, Note_on_c, 0, 59, 0
1, 23651, Note_on_c, 0, 57, 56
1, 23708, Control_c, 0, 64, 127
1, 23762, Note_on_c, 0, 73, 0
1, 23762, Note_on_c, 0, 61, 53
1, 23876, Note_on_c, 0, 61, 0
1, 23876, Note_on_c, 0, 69, 53
1, 23876, Note_on_c, 0, 57, 0
1, 23991, Note_on_c, 0, 69, 0
1, 23991, Note_on_c, 0, 73, 53
1, 24105, Note_on_c, 0, 73, 0
1, 24105, Note_on_c, 0, 52, 58
1, 24220, Note_on_c, 0, 52, 0
1, 24220, Note_on_c, 0, 45, 54
1, 24334, Note_on_c, 0, 45, 0
1, 24334, Note_on_c, 0, 52, 54
1, 24448, Note_on_c, 0, 52, 0
1, 24448, Note_on_c, 0, 57, 54
1, 24563, Note_on_c, 0, 68, 58
1, 24563, Note_on_c, 0, 57, 0
1, 24563, Control_c, 0, 64, 0
1, 24661, Control_c, 0, 64, 127
1, 24677, Note_on_c, 0, 68, 0
1, 24677, Note_on_c, 0, 62, 52
1, 24791, Note_on_c, 0, 62, 0
1, 24791, Note_on_c, 0, 68, 52
1, 24906, Note_on_c, 0, 68, 0
1, 24906, Note_on_c, 0, 76, 52
1, 25020, Note_on_c, 0, 76, 0
1, 25020, Note_on_c, 0, 52, 58
1, 25134, Note_on_c, 0, 52, 0
1, 25134, Note_on_c, 0, 45, 51
1, 25249, Note_on_c, 0, 45, 0
1, 25249, Note_on_c, 0, 52, 51
1, 25363, Note_on_c, 0, 52, 0
1, 25363, Note_on_c, 0, 59, 51
1, 25477, Note_on_c, 0, 69, 58
1, 25477, Note_on_c, 0, 59, 0
1, 25482, Control_c, 0, 64, 0
1, 25592, Note_on_c, 0, 69, 0
1, 25592, Note_on_c, 0, 61, 52
1, 25598, Control_c, 0, 64, 127
1, 25706, Note_on_c, 0, 61, 0
1, 25706, Note_on_c, 0, 69, 52
1, 25821, Note_on_c, 0, 69, 0
1, 25821, Note_on_c, 0, 73, 53
1, 25935, Note_on_c, 0, 73, 0
1, 25935, Note_on_c, 0, 73, 53
1, 25935, Note_on_c, 0, 57, 54
1, 26049, Note_on_c, 0, 73, 0
1, 26049, Note_on_c, 0, 76, 58
1, 26049, Note_on_c, 0, 57, 0
1, 26052, Note_on_c, 0, 61, 59
1, 26164, Note_on_c, 0, 76, 0
1, 26164, Note_on_c, 0, 81, 63
1, 26164, Note_on_c, 0, 61, 0
1, 26167, Note_on_c, 0, 64, 64
1, 26280, Note_on_c, 0, 81, 0
1, 26280, Note_on_c, 0, 85, 69
1, 26280, Note_on_c, 0, 64, 0
1, 26283, Note_on_c, 0, 69, 69
1, 26413, Note_on_c, 0, 85, 0
1, 26413, Note_on_c, 0, 85, 74
1, 26413, Note_on_c, 0, 69, 0
1, 26416, Control_c, 0, 64, 0
1, 26416, Note_on_c, 0, 69, 72
1, 26474, Control_c, 0, 64, 127
1, 26529, Note_on_c, 0, 85, 0
1, 26529, Note_on_c, 0, 73, 66
1, 26646, Note_on_c, 0, 73, 0
1, 26646, Note_on_c, 0, 81, 71
1, 26646, Note_on_c, 0, 69, 0
1, 26649, Note_on_c, 0, 66, 61
1, 26762, Note_on_c, 0, 81, 0
1, 26762, Note_on_c, 0, 73, 66
1, 26878, Note_on_c, 0, 73, 0
1, 26878, Note_on_c, 0, 80, 71
1, 26878, Note_on_c, 0, 66, 0
1, 26881, Note_on_c, 0, 71, 61
1, 26905, Control_c, 0, 64, 0
1, 26994, Note_on_c, 0, 80, 0
1, 26994, Note_on_c, 0, 76, 66
1, 27111, Note_on_c, 0, 76, 0
1, 27111, Note_on_c, 0, 78, 71
1, 27111, Note_on_c, 0, 71, 0
1, 27114, Note_on_c, 0, 69, 61
1, 27114, Note_on_c, 0, 59, 61
1, 27227, Note_on_c, 0, 78, 0
1, 27227, Note_on_c, 0, 75, 65
1, 27343, Note_on_c, 0, 75, 0
1, 27343, Note_on_c, 0, 64, 76
1, 27343, Note_on_c, 0, 68, 76
1, 27346, Note_on_c, 0, 76, 76
1, 27346, Note_on_c, 0, 59, 0
1, 27346, Note_on_c, 0, 69, 0
1, 27464, Note_on_c, 0, 76, 0
1, 27464, Note_on_c, 0, 68, 0
1, 27464, Note_on_c, 0, 64, 0
1, 27467, Note_on_c, 0, 68, 71
1, 27588, Note_on_c, 0, 68, 0
1, 27588, Note_on_c, 0, 66, 71
1, 27588, Note_on_c, 0, 54, 72
1, 27591, Note_on_c, 0, 56, 72
1, 27712, Note_on_c, 0, 66, 0
1, 27712, Note_on_c, 0, 68, 71
1, 27838, Note_on_c, 0, 68, 0
1, 27838, Note_on_c, 0, 64, 68
1, 27838, Note_on_c, 0, 54, 0
1, 27841, Note_on_c, 0, 52, 81
1, 27965, Note_on_c, 0, 64, 0
1, 27965, Note_on_c, 0, 68, 72
1, 28093, Note_on_c, 0, 68, 0
1, 28093, Note_on_c, 0, 63, 76
1, 28093, Note_on_c, 0, 52, 0
1, 28096, Note_on_c, 0, 51, 88
1, 28223, Note_on_c, 0, 63, 0
1, 28223, Note_on_c, 0, 68, 79
1, 28353, Note_on_c, 0, 68, 0
1, 28353, Note_on_c, 0, 64, 90
1, 28353, Note_on_c, 0, 51, 0
1, 28356, Note_on_c, 0, 56, 0
1, 28356, Note_on_c, 0, 49, 95
1, 28472, Note_on_c, 0, 64, 0
1, 28472, Note_on_c, 0, 61, 84
1, 28472, Note_on_c, 0, 49, 0
1, 28591, Note_on_c, 0, 61, 0
1, 28591, Note_on_c, 0, 64, 84
1, 28591, Note_on_c, 0, 48, 87
1, 28709, Note_on_c, 0, 64, 0
1, 28709, Note_on_c, 0, 68, 84
1, 28709, Note_on_c, 0, 48, 0
1, 28828, Note_on_c, 0, 68, 0
1, 28828, Note_on_c, 0, 64, 88
1, 28828, Note_on_c, 0, 49, 86
1, 28947, Note_on_c, 0, 64, 0
1, 28947, Note_on_c, 0, 61, 84
1, 28947, Note_on_c, 0, 49, 0
1, 29066, Note_on_c, 0, 61, 0
1, 29066, Note_on_c, 0, 64, 84
1, 29066, Note_on_c, 0, 52, 86
1, 29180, Note_on_c, 0, 64, 0
1, 29180, Note_on_c, 0, 69, 84
1, 29180, Note_on_c, 0, 52, 0
1, 29295, Note_on_c, 0, 69, 0
1, 29295, Note_on_c, 0, 63, 86
1, 29295, Note_on_c, 0, 48, 92
1, 29410, Note_on_c, 0, 63, 0
1, 29410, Note_on_c, 0, 60, 84
1, 29410, Note_on_c, 0, 48, 0
1, 29526, Note_on_c, 0, 60, 0
1, 29526, Note_on_c, 0, 63, 84
1, 29526, Note_on_c, 0, 51, 86
1, 29642, Note_on_c, 0, 63, 0
1, 29642, Note_on_c, 0, 69, 84
1, 29642, Note_on_c, 0, 51, 0
1, 29759, Note_on_c, 0, 69, 0
1, 29759, Note_on_c, 0, 63, 86
1, 29759, Note_on_c, 0, 56, 86
1, 29876, Note_on_c, 0, 63, 0
1, 29876, Note_on_c, 0, 60, 84
1, 29876, Note_on_c, 0, 56, 0
1, 29994, Note_on_c, 0, 60, 0
1, 29994, Note_on_c, 0, 63, 84
1, 29994, Note_on_c, 0, 48, 86
1, 30108, Note_on_c, 0, 63, 0
1, 30108, Note_on_c, 0, 68, 84
1, 30108, Note_on_c, 0, 48, 0
1, 30222, Note_on_c, 0, 68, 0
1, 30222, Note_on_c, 0, 68, 90
1, 30222, Note_on_c, 0, 49, 90
1, 30337, Note_on_c, 0, 68, 0
1, 30337, Note_on_c, 0, 64, 86
1, 30337, Note_on_c, 0, 49, 0
1, 30453, Note_on_c, 0, 64, 0
1, 30453, Note_on_c, 0, 68, 86
1, 30453, Note_on_c, 0, 51, 86
1, 30569, Note_on_c, 0, 68, 0
1, 30569, Note_on_c, 0, 76, 86
1, 30569, Note_on_c, 0, 51, 0
1, 30685, Note_on_c, 0, 76, 0
1, 30685, Note_on_c, 0, 68, 90
1, 30685, Note_on_c, 0, 52, 86
1, 30803, Note_on_c, 0, 68, 0
1, 30803, Note_on_c, 0, 64, 86
1, 30803, Note_on_c, 0, 52, 0
1, 30920, Note_on_c, 0, 64, 0
1, 30920, Note_on_c, 0, 68, 86
1, 30920, Note_on_c, 0, 49, 86
1, 31034, Note_on_c, 0, 68, 0
1, 31034, Note_on_c, 0, 73, 86
1, 31034, Note_on_c, 0, 49, 0
1, 31149, Note_on_c, 0, 73, 0
1, 31149, Note_on_c, 0, 69, 92
1, 31149, Note_on_c, 0, 51, 86
1, 31264, Note_on_c, 0, 69, 0
1, 31264, Note_on_c, 0, 68, 84
1, 31264, Note_on_c, 0, 51, 0
1, 31379, Note_on_c, 0, 68, 0
1, 31379, Note_on_c, 0, 66, 85
1, 31379, Note_on_c, 0, 57, 93
1, 31496, Note_on_c, 0, 66, 0
1, 31496, Note_on_c, 0, 73, 86
1, 31496, Note_on_c, 0, 57, 0
1, 31613, Note_on_c, 0, 73, 0
1, 31613, Note_on_c, 0, 72, 93
1, 31613, Note_on_c, 0, 56, 91
1, 31730, Note_on_c, 0, 72, 0
1, 31730, Note_on_c, 0, 66, 89
1, 31730, Note_on_c, 0, 56, 0
1, 31849, Note_on_c, 0, 66, 0
1, 31849, Note_on_c, 0, 68, 90
1, 31849, Note_on_c, 0, 54, 86
1, 31963, Note_on_c, 0, 68, 0
1, 31963, Note_on_c, 0, 72, 92
1, 31963, Note_on_c, 0, 54, 0
1, 32077, Note_on_c, 0, 72, 0
1, 32077, Note_on_c, 0, 73, 98
1, 32077, Note_on_c, 0, 52, 84
1, 32192, Note_on_c, 0, 73, 0
1, 32192, Note_on_c, 0, 68, 86
1, 32192, Note_on_c, 0, 52, 0
1, 32308, Note_on_c, 0, 68, 0
1, 32308, Note_on_c, 0, 73, 89
1, 32308, Note_on_c, 0, 51, 86
1, 32424, Note_on_c, 0, 73, 0
1, 32424, Note_on_c, 0, 76, 92
1, 32424, Note_on_c, 0, 51, 0
1, 32541, Note_on_c, 0, 76, 0
1, 32541, Note_on_c, 0, 76, 94
1, 32541, Note_on_c, 0, 49, 89
1, 32659, Note_on_c, 0, 76, 0
1, 32659, Note_on_c, 0, 68, 92
1, 32659, Note_on_c, 0, 49, 0
1, 32777, Note_on_c, 0, 68, 0
1, 32777, Note_on_c, 0, 76, 96
1, 32777, Note_on_c, 0, 47, 90
1, 32892, Note_on_c, 0, 76, 0
1, 32892, Note_on_c, 0, 80, 100
1, 32892, Note_on_c, 0, 47, 0
1, 33007, Note_on_c, 0, 80, 0
1, 33007, Note_on_c, 0, 76, 103
1, 33007, Note_on_c, 0, 45, 94
1, 33123, Note_on_c, 0, 76, 0
1, 33123, Note_on_c, 0, 69, 100
1, 33123, Note_on_c, 0, 45, 0
1, 33239, Note_on_c, 0, 69, 0
1, 33239, Note_on_c, 0, 76, 98
1, 33239, Note_on_c, 0, 42, 88
1, 33297, Note_on_c, 0, 42, 0
1, 33356, Note_on_c, 0, 76, 0
1, 33356, Note_on_c, 0, 80, 95
1, 33356, Note_on_c, 0, 44, 88
1, 33415, Note_on_c, 0, 44, 0
1, 33474, Note_on_c, 0, 80, 0
1, 33474, Note_on_c, 0, 74, 96
1, 33474, Note_on_c, 0, 45, 93
1, 33592, Note_on_c, 0, 74, 0
1, 33592, Note_on_c, 0, 78, 92
1, 33592, Note_on_c, 0, 45, 0
1, 33711, Note_on_c, 0, 78, 0
1, 33711, Note_on_c, 0, 73, 96
1, 33711, Note_on_c, 0, 42, 89
1, 33825, Note_on_c, 0, 73, 0
1, 33825, Note_on_c, 0, 76, 92
1, 33825, Note_on_c, 0, 42, 0
1, 33939, Note_on_c, 0, 76, 0
1, 33939, Note_on_c, 0, 72, 93
1, 33939, Note_on_c, 0, 44, 95
1, 34053, Note_on_c, 0, 72, 0
1, 34053, Note_on_c, 0, 75, 89
1, 34053, Note_on_c, 0, 44, 0
1, 34168, Note_on_c, 0, 75, 0
1, 34168, Note_on_c, 0, 73, 92
1, 34168, Note_on_c, 0, 42, 90
1, 34226, Note_on_c, 0, 42, 0
1, 34283, Note_on_c, 0, 73, 0
1, 34283, Note_on_c, 0, 76, 86
1, 34283, Note_on_c, 0, 40, 90
1, 34341, Note_on_c, 0, 40, 0
1, 34398, Note_on_c, 0, 76, 0
1, 34398, Note_on_c, 0, 75, 91
1, 34398, Note_on_c, 0, 39, 95
1, 34514, Note_on_c, 0, 75, 0
1, 34514, Note_on_c, 0, 78, 85
1, 34514, Note_on_c, 0, 39, 0
1, 34630, Note_on_c, 0, 78, 0
1, 34630, Note_on_c, 0, 72, 89
1, 34630, Note_on_c, 0, 44, 90
1, 34746, Note_on_c, 0, 72, 0
1, 34746, Note_on_c, 0, 75, 82
1, 34746, Note_on_c, 0, 44, 0
1, 34862, Note_on_c, 0, 75, 0
1, 34862, Note_on_c, 0, 76, 89
1, 34862, Note_on_c, 0, 37, 98
1, 34977, Note_on_c, 0, 76, 0
1, 34977, Note_on_c, 0, 73, 84
1, 34977, Note_on_c, 0, 37, 0
1, 35092, Note_on_c, 0, 73, 0
1, 35092, Note_on_c, 0, 71, 79
1, 35092, Note_on_c, 0, 44, 80
1, 35208, Note_on_c, 0, 71, 0
1, 35208, Note_on_c, 0, 69, 75
1, 35324, Note_on_c, 0, 69, 0
1, 35324, Note_on_c, 0, 68, 71
1, 35324, Note_on_c, 0, 44, 0
1, 35327, Note_on_c, 0, 46, 68
1, 35442, Note_on_c, 0, 68, 0
1, 35442, Note_on_c, 0, 66, 67
1, 35560, Note_on_c, 0, 66, 0
1, 35560, Note_on_c, 0, 64, 63
1, 35560, Note_on_c, 0, 46, 0
1, 35563, Note_on_c, 0, 48, 58
1, 35678, Note_on_c, 0, 64, 0
1, 35678, Note_on_c, 0, 63, 58
1, 35797, Note_on_c, 0, 63, 0
1, 35797, Note_on_c, 0, 64, 52
1, 35797, Note_on_c, 0, 48, 0
1, 35800, Note_on_c, 0, 49, 50
1, 35921, Note_on_c, 0, 64, 0
1, 35921, Note_on_c, 0, 61, 55
1, 36037, Note_on_c, 0, 61, 0
1, 36037, Note_on_c, 0, 64, 55
1, 36037, Note_on_c, 0, 49, 0
1, 36040, Note_on_c, 0, 52, 47
1, 36154, Note_on_c, 0, 64, 0
1, 36154, Note_on_c, 0, 68, 55
1, 36272, Note_on_c, 0, 68, 0
1, 36272, Note_on_c, 0, 64, 58
1, 36272, Note_on_c, 0, 52, 0
1, 36275, Note_on_c, 0, 51, 48
1, 36392, Note_on_c, 0, 64, 0
1, 36392, Note_on_c, 0, 61, 55
1, 36508, Note_on_c, 0, 61, 0
1, 36508, Note_on_c, 0, 64, 55
1, 36508, Note_on_c, 0, 51, 0
1, 36511, Note_on_c, 0, 49, 47
1, 36625, Note_on_c, 0, 64, 0
1, 36625, Note_on_c, 0, 69, 55
1, 36743, Note_on_c, 0, 69, 0
1, 36743, Note_on_c, 0, 63, 57
1, 36743, Note_on_c, 0, 49, 0
1, 36746, Note_on_c, 0, 47, 50
1, 36862, Note_on_c, 0, 63, 0
1, 36862, Note_on_c, 0, 59, 55
1, 36977, Note_on_c, 0, 59, 0
1, 36977, Note_on_c, 0, 63, 55
1, 36977, Note_on_c, 0, 47, 0
1, 36980, Note_on_c, 0, 51, 48
1, 37094, Note_on_c, 0, 63, 0
1, 37094, Note_on_c, 0, 69, 55
1, 37211, Note_on_c, 0, 69, 0
1, 37211, Note_on_c, 0, 63, 57
1, 37211, Note_on_c, 0, 51, 0
1, 37214, Note_on_c, 0, 56, 50
1, 37329, Note_on_c, 0, 63, 0
1, 37329, Note_on_c, 0, 59, 55
1, 37445, Note_on_c, 0, 59, 0
1, 37445, Note_on_c, 0, 63, 55
1, 37445, Note_on_c, 0, 56, 0
1, 37448, Note_on_c, 0, 47, 47
1, 37563, Note_on_c, 0, 63, 0
1, 37563, Note_on_c, 0, 68, 55
1, 37681, Note_on_c, 0, 68, 0
1, 37681, Note_on_c, 0, 68, 59
1, 37681, Note_on_c, 0, 47, 0
1, 37684, Note_on_c, 0, 45, 51
1, 37799, Note_on_c, 0, 68, 0
1, 37799, Note_on_c, 0, 61, 57
1, 37915, Note_on_c, 0, 61, 0
1, 37915, Note_on_c, 0, 68, 57
1, 37915, Note_on_c, 0, 45, 0
1, 37918, Note_on_c, 0, 49, 48
1, 38032, Note_on_c, 0, 68, 0
1, 38032, Note_on_c, 0, 73, 57
1, 38149, Note_on_c, 0, 73, 0
1, 38149, Note_on_c, 0, 66, 59
1, 38149, Note_on_c, 0, 49, 0
1, 38152, Note_on_c, 0, 47, 48
1, 38267, Note_on_c, 0, 66, 0
1, 38267, Note_on_c, 0, 63, 57
1, 38384, Note_on_c, 0, 63, 0
1, 38384, Note_on_c, 0, 66, 57
1, 38384, Note_on_c, 0, 47, 0
1, 38387, Note_on_c, 0, 45, 49
1, 38501, Note_on_c, 0, 66, 0
1, 38501, Note_on_c, 0, 73, 57
1, 38619, Note_on_c, 0, 73, 0
1, 38619, Note_on_c, 0, 68, 60
1, 38619, Note_on_c, 0, 45, 0
1, 38622, Note_on_c, 0, 44, 50
1, 38736, Note_on_c, 0, 68, 0
1, 38736, Note_on_c, 0, 64, 57
1, 38852, Note_on_c, 0, 64, 0
1, 38852, Note_on_c, 0, 68, 57
1, 38852, Note_on_c, 0, 44, 0
1, 38855, Note_on_c, 0, 47, 49
1, 38968, Note_on_c, 0, 68, 0
1, 38968, Note_on_c, 0, 73, 57
1, 39086, Note_on_c, 0, 73, 0
1, 39086, Note_on_c, 0, 68, 59
1, 39086, Note_on_c, 0, 47, 0
1, 39089, Note_on_c, 0, 52, 51
1, 39204, Note_on_c, 0, 68, 0
1, 39204, Note_on_c, 0, 64, 58
1, 39320, Note_on_c, 0, 64, 0
1, 39320, Note_on_c, 0, 68, 58
1, 39320, Note_on_c, 0, 52, 0
1, 39323, Note_on_c, 0, 44, 49
1, 39437, Note_on_c, 0, 68, 0
1, 39437, Note_on_c, 0, 71, 58
1, 39554, Note_on_c, 0, 71, 0
1, 39554, Note_on_c, 0, 67, 64
1, 39554, Note_on_c, 0, 44, 0
1, 39557, Note_on_c, 0, 40, 51
1, 39672, Note_on_c, 0, 67, 0
1, 39672, Note_on_c, 0, 64, 57
1, 39788, Note_on_c, 0, 64, 0
1, 39788, Note_on_c, 0, 67, 58
1, 39788, Note_on_c, 0, 40, 0
1, 39791, Note_on_c, 0, 52, 47
1, 39905, Note_on_c, 0, 67, 0
1, 39905, Note_on_c, 0, 70, 60
1, 39905, Note_on_c, 0, 52, 0
1, 39908, Note_on_c, 0, 51, 47
1, 40024, Note_on_c, 0, 70, 0
1, 40024, Note_on_c, 0, 76, 62
1, 40024, Note_on_c, 0, 51, 0
1, 40027, Note_on_c, 0, 49, 46
1, 40144, Note_on_c, 0, 76, 0
1, 40144, Note_on_c, 0, 70, 58
1, 40260, Note_on_c, 0, 70, 0
1, 40260, Note_on_c, 0, 76, 59
1, 40260, Note_on_c, 0, 49, 0
1, 40263, Note_on_c, 0, 48, 48
1, 40376, Note_on_c, 0, 76, 0
1, 40376, Note_on_c, 0, 79, 61
1, 40494, Note_on_c, 0, 79, 0
1, 40494, Note_on_c, 0, 75, 61
1, 40494, Note_on_c, 0, 48, 0
1, 40497, Note_on_c, 0, 47, 53
1, 40613, Note_on_c, 0, 75, 0
1, 40613, Note_on_c, 0, 79, 59
1, 40728, Note_on_c, 0, 79, 0
1, 40728, Note_on_c, 0, 75, 60
1, 40728, Note_on_c, 0, 47, 0
1, 40731, Note_on_c, 0, 54, 49
1, 40844, Note_on_c, 0, 75, 0
1, 40844, Note_on_c, 0, 78, 58
1, 40960, Note_on_c, 0, 78, 0
1, 40960, Note_on_c, 0, 69, 59
1, 40960, Note_on_c, 0, 54, 0
1, 40963, Note_on_c, 0, 59, 57
1, 41077, Note_on_c, 0, 69, 0
1, 41077, Note_on_c, 0, 76, 58
1, 41194, Note_on_c, 0, 76, 0
1, 41194, Note_on_c, 0, 69, 59
1, 41194, Note_on_c, 0, 59, 0
1, 41197, Note_on_c, 0, 47, 44
1, 41312, Note_on_c, 0, 69, 0
1, 41312, Note_on_c, 0, 75, 58
1, 41431, Note_on_c, 0, 75, 0
1, 41431, Note_on_c, 0, 69, 57
1, 41431, Note_on_c, 0, 47, 0
1, 41434, Note_on_c, 0, 48, 46
1, 41550, Note_on_c, 0, 69, 0
1, 41550, Note_on_c, 0, 78, 54
1, 41670, Note_on_c, 0, 78, 0
1, 41670, Note_on_c, 0, 68, 57
1, 41670, Note_on_c, 0, 48, 0
1, 41673, Note_on_c, 0, 49, 41
1, 41791, Note_on_c, 0, 68, 0
1, 41791, Note_on_c, 0, 76, 54
1, 41912, Note_on_c, 0, 76, 0
1, 41912, Note_on_c, 0, 64, 56
1, 41912, Note_on_c, 0, 49, 0
1, 41915, Note_on_c, 0, 44, 46
1, 42033, Note_on_c, 0, 64, 0
1, 42033, Note_on_c, 0, 73, 54
1, 42156, Note_on_c, 0, 73, 0
1, 42156, Note_on_c, 0, 61, 55
1, 42156, Note_on_c, 0, 44, 0
1, 42159, Note_on_c, 0, 45, 42
1, 42279, Note_on_c, 0, 61, 0
1, 42279, Note_on_c, 0, 69, 54
1, 42402, Note_on_c, 0, 69, 0
1, 42402, Note_on_c, 0, 59, 55
1, 42402, Note_on_c, 0, 45, 0
1, 42405, Note_on_c, 0, 47, 46
1, 42521, Note_on_c, 0, 59, 0
1, 42521, Note_on_c, 0, 68, 54
1, 42639, Note_on_c, 0, 68, 0
1, 42639, Note_on_c, 0, 64, 55
1, 42639, Note_on_c, 0, 47, 0
1, 42642, Note_on_c, 0, 56, 44
1, 42757, Note_on_c, 0, 64, 0
1, 42757, Note_on_c, 0, 71, 54
1, 42875, Note_on_c, 0, 71, 0
1, 42875, Note_on_c, 0, 59, 55
1, 42875, Note_on_c, 0, 56, 0
1, 42878, Note_on_c, 0, 47, 46
1, 42994, Note_on_c, 0, 59, 0
1, 42994, Note_on_c, 0, 69, 54
1, 43111, Note_on_c, 0, 69, 0
1, 43111, Note_on_c, 0, 63, 55
1, 43111, Note_on_c, 0, 47, 0
1, 43114, Note_on_c, 0, 57, 42
1, 43228, Note_on_c, 0, 63, 0
1, 43228, Note_on_c, 0, 71, 54
1, 43343, Note_on_c, 0, 71, 0
1, 43343, Note_on_c, 0, 69, 55
1, 43343, Note_on_c, 0, 57, 0
1, 43346, Note_on_c, 0, 47, 46
1, 43457, Note_on_c, 0, 63, 53
1, 43571, Note_on_c, 0, 63, 0
1, 43571, Note_on_c, 0, 59, 53
1, 43571, Note_on_c, 0, 47, 0
1, 43574, Note_on_c, 0, 54, 41
1, 43686, Note_on_c, 0, 59, 0
1, 43686, Note_on_c, 0, 69, 0
1, 43686, Note_on_c, 0, 69, 55
1, 43802, Note_on_c, 0, 69, 0
1, 43802, Note_on_c, 0, 68, 55
1, 43802, Note_on_c, 0, 54, 0
1, 43805, Note_on_c, 0, 52, 47
1, 43918, Note_on_c, 0, 68, 0
1, 43918, Note_on_c, 0, 59, 52
1, 44035, Note_on_c, 0, 59, 0
1, 44035, Note_on_c, 0, 64, 54
1, 44035, Note_on_c, 0, 52, 0
1, 44038, Note_on_c, 0, 49, 42
1, 44150, Note_on_c, 0, 64, 0
1, 44150, Note_on_c, 0, 66, 55
1, 44150, Note_on_c, 0, 49, 0
1, 44153, Note_on_c, 0, 51, 42
1, 44265, Note_on_c, 0, 66, 0
1, 44265, Note_on_c, 0, 68, 57
1, 44265, Note_on_c, 0, 51, 0
1, 44268, Note_on_c, 0, 52, 46
1, 44381, Note_on_c, 0, 68, 0
1, 44381, Note_on_c, 0, 64, 53
1, 44495, Note_on_c, 0, 64, 0
1, 44495, Note_on_c, 0, 68, 55
1, 44495, Note_on_c, 0, 52, 0
1, 44498, Note_on_c, 0, 56, 43
1, 44611, Note_on_c, 0, 68, 0
1, 44611, Note_on_c, 0, 76, 54
1, 44726, Note_on_c, 0, 76, 0
1, 44726, Note_on_c, 0, 68, 57
1, 44726, Note_on_c, 0, 56, 0
1, 44729, Note_on_c, 0, 53, 46
1, 44844, Note_on_c, 0, 68, 0
1, 44844, Note_on_c, 0, 75, 54
1, 44962, Note_on_c, 0, 75, 0
1, 44962, Note_on_c, 0, 68, 58
1, 44962, Note_on_c, 0, 53, 0
1, 44965, Note_on_c, 0, 61, 43
1, 45080, Note_on_c, 0, 68, 0
1, 45080, Note_on_c, 0, 73, 54
1, 45198, Note_on_c, 0, 73, 0
1, 45198, Note_on_c, 0, 69, 58
1, 45198, Note_on_c, 0, 61, 0
1, 45201, Note_on_c, 0, 54, 46
1, 45316, Note_on_c, 0, 69, 0
1, 45316, Note_on_c, 0, 61, 54
1, 45431, Note_on_c, 0, 61, 0
1, 45431, Note_on_c, 0, 69, 56
1, 45431, Note_on_c, 0, 54, 0
1, 45434, Note_on_c, 0, 42, 42
1, 45547, Note_on_c, 0, 69, 0
1, 45547, Note_on_c, 0, 73, 56
1, 45663, Note_on_c, 0, 73, 0
1, 45663, Note_on_c, 0, 68, 57
1, 45663, Note_on_c, 0, 42, 0
1, 45666, Note_on_c, 0, 44, 42
1, 45779, Note_on_c, 0, 68, 0
1, 45779, Note_on_c, 0, 71, 53
1, 45894, Note_on_c, 0, 71, 0
1, 45894, Note_on_c, 0, 66, 55
1, 45894, Note_on_c, 0, 44, 0
1, 45897, Note_on_c, 0, 45, 43
1, 46009, Note_on_c, 0, 66, 0
1, 46009, Note_on_c, 0, 69, 53
1, 46125, Note_on_c, 0, 69, 0
1, 46125, Note_on_c, 0, 64, 55
1, 46125, Note_on_c, 0, 45, 0
1, 46128, Note_on_c, 0, 44, 46
1, 46259, Note_on_c, 0, 64, 0
1, 46259, Note_on_c, 0, 56, 53
1, 46390, Note_on_c, 0, 56, 0
1, 46390, Note_on_c, 0, 64, 53
1, 46390, Note_on_c, 0, 44, 0
1, 46393, Note_on_c, 0, 49, 41
1, 46523, Note_on_c, 0, 64, 0
1, 46523, Note_on_c, 0, 68, 53
1, 46655, Note_on_c, 0, 68, 0
1, 46655, Note_on_c, 0, 61, 55
1, 46655, Note_on_c, 0, 49, 0
1, 46658, Note_on_c, 0, 44, 44
1, 46788, Note_on_c, 0, 61, 0
1, 46788, Note_on_c, 0, 55, 50
1, 46920, Note_on_c, 0, 55, 0
1, 46920, Note_on_c, 0, 61, 51
1, 46920, Note_on_c, 0, 44, 0
1, 46923, Note_on_c, 0, 52, 42
1, 47052, Note_on_c, 0, 61, 0
1, 47052, Note_on_c, 0, 69, 51
1, 47185, Note_on_c, 0, 69, 0
1, 47185, Note_on_c, 0, 63, 53
1, 47185, Note_on_c, 0, 52, 0
1, 47188, Note_on_c, 0, 44, 42
1, 47327, Note_on_c, 0, 63, 0
1, 47327, Note_on_c, 0, 54, 49
1, 47468, Note_on_c, 0, 54, 0
1, 47468, Note_on_c, 0, 63, 49
1, 47468, Note_on_c, 0, 44, 0
1, 47471, Note_on_c, 0, 49, 41
1, 47608, Note_on_c, 0, 63, 0
1, 47608, Note_on_c, 0, 68, 49
1, 47749, Note_on_c, 0, 68, 0
1, 47749, Note_on_c, 0, 63, 52
1, 47749, Note_on_c, 0, 49, 0
1, 47752, Note_on_c, 0, 44, 42
1, 47889, Note_on_c, 0, 63, 0
1, 47889, Note_on_c, 0, 54, 48
1, 48030, Note_on_c, 0, 54, 0
1, 48030, Note_on_c, 0, 63, 48
1, 48030, Note_on_c, 0, 44, 0
1, 48033, Note_on_c, 0, 48, 39
1, 48170, Note_on_c, 0, 63, 0
1, 48170, Note_on_c, 0, 68, 48
1, 48311, Note_on_c, 0, 68, 0
1, 48311, Note_on_c, 0, 61, 48
1, 48311, Note_on_c, 0, 48, 0
1, 48314, Control_c, 0, 64, 127
1, 48314, Note_on_c, 0, 49, 48
1, 48442, Note_on_c, 0, 61, 0
1, 48442, Note_on_c, 0, 52, 45
1, 48574, Note_on_c, 0, 52, 0
1, 48574, Note_on_c, 0, 61, 45
1, 48574, Note_on_c, 0, 49, 0
1, 48706, Note_on_c, 0, 61, 0
1, 48706, Note_on_c, 0, 64, 45
1, 48837, Note_on_c, 0, 64, 0
1, 48837, Note_on_c, 0, 44, 48
1, 48845, Control_c, 0, 64, 0
1, 48929, Control_c, 0, 64, 127
1, 48969, Note_on_c, 0, 44, 0
1, 48969, Note_on_c, 0, 37, 45
1, 49101, Note_on_c, 0, 37, 0
1, 49101, Note_on_c, 0, 44, 45
1, 49232, Note_on_c, 0, 44, 0
1, 49232, Note_on_c, 0, 49, 46
1, 49364, Note_on_c, 0, 61, 48
1, 49364, Note_on_c, 0, 49, 0
1, 49364, Note_on_c, 0, 45, 48
1, 49373, Control_c, 0, 64, 0
1, 49472, Control_c, 0, 64, 127
1, 49495, Note_on_c, 0, 61, 0
1, 49495, Note_on_c, 0, 52, 44
1, 49627, Note_on_c, 0, 52, 0
1, 49627, Note_on_c, 0, 61, 44
1, 49627, Note_on_c, 0, 45, 0
1, 49759, Note_on_c, 0, 61, 0
1, 49759, Note_on_c, 0, 64, 44
1, 49890, Note_on_c, 0, 64, 0
1, 49890, Note_on_c, 0, 40, 48
1, 49902, Control_c, 0, 64, 0
1, 49967, Control_c, 0, 64, 127
1, 50022, Note_on_c, 0, 40, 0
1, 50022, Note_on_c, 0, 33, 45
1, 50154, Note_on_c, 0, 33, 0
1, 50154, Note_on_c, 0, 40, 45
1, 50285, Note_on_c, 0, 40, 0
1, 50285, Note_on_c, 0, 45, 45
1, 50417, Note_on_c, 0, 62, 48
1, 50417, Note_on_c, 0, 45, 0
1, 50417, Control_c, 0, 64, 0
1, 50420, Note_on_c, 0, 42, 48
1, 50493, Control_c, 0, 64, 127
1, 50530, Note_on_c, 0, 62, 0
1, 50530, Note_on_c, 0, 57, 46
1, 50644, Note_on_c, 0, 57, 0
1, 50644, Note_on_c, 0, 62, 46
1, 50644, Note_on_c, 0, 42, 0
1, 50757, Note_on_c, 0, 62, 0
1, 50757, Note_on_c, 0, 66, 46
1, 50870, Note_on_c, 0, 66, 0
1, 50870, Note_on_c, 0, 66, 45
1, 50870, Note_on_c, 0, 50, 46
1, 50881, Control_c, 0, 64, 0
1, 50951, Control_c, 0, 64, 127
1, 50984, Note_on_c, 0, 66, 0
1, 50984, Note_on_c, 0, 69, 49
1, 50984, Note_on_c, 0, 50, 0
1, 50987, Note_on_c, 0, 54, 47
1, 51098, Note_on_c, 0, 69, 0
1, 51098, Note_on_c, 0, 74, 52
1, 51098, Note_on_c, 0, 54, 0
1, 51101, Note_on_c, 0, 57, 51
1, 51213, Note_on_c, 0, 74, 0
1, 51213, Note_on_c, 0, 78, 56
1, 51213, Note_on_c, 0, 57, 0
1, 51216, Note_on_c, 0, 62, 54
1, 51339, Note_on_c, 0, 78, 0
1, 51339, Note_on_c, 0, 81, 59
1, 51339, Note_on_c, 0, 62, 0
1, 51342, Note_on_c, 0, 66, 56
1, 51342, Control_c, 0, 64, 0
1, 51417, Control_c, 0, 64, 127
1, 51465, Note_on_c, 0, 74, 46
1, 51592, Note_on_c, 0, 74, 0
1, 51592, Note_on_c, 0, 81, 0
1, 51592, Note_on_c, 0, 69, 47
1, 51595, Note_on_c, 0, 78, 54
1, 51595, Note_on_c, 0, 66, 0
1, 51595, Note_on_c, 0, 54, 54
1, 51598, Note_on_c, 0, 62, 54
1, 51718, Note_on_c, 0, 69, 0
1, 51718, Note_on_c, 0, 71, 47
1, 51844, Note_on_c, 0, 71, 0
1, 51844, Note_on_c, 0, 78, 0
1, 51844, Note_on_c, 0, 73, 45
1, 51847, Note_on_c, 0, 76, 52
1, 51847, Note_on_c, 0, 62, 0
1, 51847, Note_on_c, 0, 54, 0
1, 51850, Note_on_c, 0, 56, 51
1, 51850, Note_on_c, 0, 64, 51
1, 51856, Control_c, 0, 64, 0
1, 51964, Control_c, 0, 64, 127
1, 51970, Note_on_c, 0, 73, 0
1, 51970, Note_on_c, 0, 68, 45
1, 52096, Note_on_c, 0, 68, 0
1, 52096, Note_on_c, 0, 76, 0
1, 52096, Note_on_c, 0, 72, 45
1, 52099, Note_on_c, 0, 75, 50
1, 52099, Note_on_c, 0, 64, 0
1, 52099, Note_on_c, 0, 56, 0
1, 52102, Note_on_c, 0, 56, 49
1, 52102, Note_on_c, 0, 66, 49
1, 52105, Control_c, 0, 64, 0
1, 52181, Control_c, 0, 64, 127
1, 52223, Note_on_c, 0, 72, 0
1, 52223, Note_on_c, 0, 68, 45
1, 52349, Note_on_c, 0, 68, 0
1, 52349, Note_on_c, 0, 75, 0
1, 52349, Note_on_c, 0, 73, 48
1, 52352, Note_on_c, 0, 66, 0
1, 52352, Note_on_c, 0, 56, 0
1, 52352, Control_c, 0, 64, 0
1, 52355, Note_on_c, 0, 64, 46
1, 52355, Note_on_c, 0, 61, 46
1, 52451, Control_c, 0, 64, 127
1, 52465, Note_on_c, 0, 73, 0
1, 52465, Note_on_c, 0, 64, 44
1, 52581, Note_on_c, 0, 64, 0
1, 52581, Note_on_c, 0, 73, 44
1, 52581, Note_on_c, 0, 61, 0
1, 52584, Note_on_c, 0, 64, 0
1, 52697, Note_on_c, 0, 73, 0
1, 52697, Note_on_c, 0, 76, 44
1, 52813, Note_on_c, 0, 76, 0
1, 52813, Note_on_c, 0, 56, 48
1, 52825, Control_c, 0, 64, 0
1, 52922, Control_c, 0, 64, 127
1, 52929, Note_on_c, 0, 56, 0
1, 52929, Note_on_c, 0, 49, 45
1, 53045, Note_on_c, 0, 49, 0
1, 53045, Note_on_c, 0, 56, 45
1, 53161, Note_on_c, 0, 56, 0
1, 53161, Note_on_c, 0, 61, 45
1, 53277, Note_on_c, 0, 73, 48
1, 53277, Note_on_c, 0, 61, 0
1, 53277, Note_on_c, 0, 57, 46
1, 53282, Control_c, 0, 64, 0
1, 53352, Control_c, 0, 64, 127
1, 53393, Note_on_c, 0, 73, 0
1, 53393, Note_on_c, 0, 64, 43
1, 53509, Note_on_c, 0, 64, 0
1, 53509, Note_on_c, 0, 73, 43
1, 53509, Note_on_c, 0, 57, 0
1, 53625, Note_on_c, 0, 73, 0
1, 53625, Note_on_c, 0, 76, 43
1, 53741, Note_on_c, 0, 76, 0
1, 53741, Note_on_c, 0, 52, 48
1, 53748, Control_c, 0, 64, 0
1, 53837, Control_c, 0, 64, 127
1, 53857, Note_on_c, 0, 52, 0
1, 53857, Note_on_c, 0, 45, 42
1, 53973, Note_on_c, 0, 45, 0
1, 53973, Note_on_c, 0, 52, 42
1, 54089, Note_on_c, 0, 52, 0
1, 54089, Note_on_c, 0, 57, 42
1, 54205, Note_on_c, 0, 74, 48
1, 54205, Note_on_c, 0, 57, 0
1, 54205, Note_on_c, 0, 54, 48
1, 54211, Control_c, 0, 64, 0
1, 54289, Control_c, 0, 64, 127
1, 54316, Note_on_c, 0, 74, 0
1, 54316, Note_on_c, 0, 69, 49
1, 54427, Note_on_c, 0, 69, 0
1, 54427, Note_on_c, 0, 74, 54
1, 54427, Note_on_c, 0, 54, 0
1, 54430, Note_on_c, 0, 57, 51
1, 54538, Note_on_c, 0, 74, 0
1, 54538, Note_on_c, 0, 78, 59
1, 54538, Note_on_c, 0, 57, 0
1, 54541, Note_on_c, 0, 62, 57
1, 54649, Note_on_c, 0, 78, 0
1, 54649, Note_on_c, 0, 81, 65
1, 54649, Note_on_c, 0, 62, 0
1, 54652, Note_on_c, 0, 66, 63
1, 54760, Note_on_c, 0, 81, 0
1, 54760, Note_on_c, 0, 78, 63
1, 54760, Note_on_c, 0, 66, 0
1, 54763, Note_on_c, 0, 62, 60
1, 54871, Note_on_c, 0, 78, 0
1, 54871, Note_on_c, 0, 74, 60
1, 54871, Note_on_c, 0, 62, 0
1, 54874, Note_on_c, 0, 57, 58
1, 54984, Note_on_c, 0, 74, 0
1, 54984, Note_on_c, 0, 69, 57
1, 54984, Note_on_c, 0, 57, 0
1, 54987, Note_on_c, 0, 54, 56
1, 55113, Note_on_c, 0, 69, 0
1, 55113, Note_on_c, 0, 68, 54
1, 55113, Note_on_c, 0, 54, 0
1, 55116, Note_on_c, 0, 56, 54
1, 55116, Control_c, 0, 64, 0
1, 55189, Control_c, 0, 64, 127
1, 55236, Note_on_c, 0, 68, 0
1, 55236, Note_on_c, 0, 76, 54
1, 55359, Note_on_c, 0, 76, 0
1, 55359, Note_on_c, 0, 64, 58
1, 55359, Note_on_c, 0, 56, 0
1, 55362, Note_on_c, 0, 56, 50
1, 55482, Note_on_c, 0, 64, 0
1, 55482, Note_on_c, 0, 73, 54
1, 55604, Note_on_c, 0, 73, 0
1, 55604, Note_on_c, 0, 66, 58
1, 55604, Note_on_c, 0, 56, 0
1, 55607, Note_on_c, 0, 56, 50
1, 55618, Control_c, 0, 64, 0
1, 55691, Control_c, 0, 64, 127
1, 55727, Note_on_c, 0, 66, 0
1, 55727, Note_on_c, 0, 75, 54
1, 55850, Note_on_c, 0, 75, 0
1, 55850, Note_on_c, 0, 63, 58
1, 55850, Note_on_c, 0, 56, 0
1, 55853, Note_on_c, 0, 56, 50
1, 55853, Control_c, 0, 64, 0
1, 55914, Control_c, 0, 64, 127
1, 55973, Note_on_c, 0, 63, 0
1, 55973, Note_on_c, 0, 72, 54
1, 56095, Note_on_c, 0, 72, 0
1, 56095, Note_on_c, 0, 64, 61
1, 56095, Note_on_c, 0, 56, 0
1, 56098, Control_c, 0, 64, 0
1, 56098, Note_on_c, 0, 56, 49
1, 56182, Control_c, 0, 64, 127
1, 56236, Note_on_c, 0, 64, 0
1, 56236, Note_on_c, 0, 73, 52
1, 56376, Note_on_c, 0, 73, 0
1, 56376, Note_on_c, 0, 61, 53
1, 56376, Note_on_c, 0, 64, 53
1, 56379, Note_on_c, 0, 44, 47
1, 56384, Control_c, 0, 64, 0
1, 56429, Control_c, 0, 64, 127
1, 56517, Note_on_c, 0, 64, 0
1, 56517, Note_on_c, 0, 61, 0
1, 56517, Note_on_c, 0, 68, 45
1, 56657, Note_on_c, 0, 68, 0
1, 56657, Note_on_c, 0, 63, 48
1, 56657, Note_on_c, 0, 66, 48
1, 56660, Note_on_c, 0, 44, 0
1, 56660, Note_on_c, 0, 56, 0
1, 56660, Note_on_c, 0, 44, 42
1, 56677, Control_c, 0, 64, 0
1, 56749, Control_c, 0, 64, 127
1, 56808, Note_on_c, 0, 66, 0
1, 56808, Note_on_c, 0, 63, 0
1, 56808, Note_on_c, 0, 68, 41
1, 56965, Note_on_c, 0, 68, 0
1, 56965, Note_on_c, 0, 60, 44
1, 56965, Note_on_c, 0, 63, 44
1, 56968, Note_on_c, 0, 44, 0
1, 56968, Note_on_c, 0, 44, 39
1, 56977, Control_c, 0, 64, 0
1, 57056, Control_c, 0, 64, 127
1, 57127, Note_on_c, 0, 63, 0
1, 57127, Note_on_c, 0, 60, 0
1, 57127, Note_on_c, 0, 68, 40
1, 57295, Note_on_c, 0, 68, 0
1, 57295, Note_on_c, 0, 44, 0
1, 57295, Control_c, 0, 64, 0
1, 58756, Control_c, 0, 91, 127
1, 58756, Note_on_c, 0, 65, 46
1, 58756, Note_on_c, 0, 49, 32
1, 58759, Note_on_c, 0, 56, 32
1, 58759, Note_on_c, 0, 61, 32
1, 58759, Control_c, 0, 91, 127
1, 58795, Control_c, 0, 64, 127
1, 58902, Note_on_c, 0, 65, 0
1, 58902, Note_on_c, 0, 68, 46
1, 59062, Note_on_c, 0, 68, 0
1, 59062, Note_on_c, 0, 66, 42
1, 59062, Note_on_c, 0, 70, 42
1, 59065, Note_on_c, 0, 61, 0
1, 59065, Note_on_c, 0, 56, 0
1, 59065, Note_on_c, 0, 49, 0
1, 59068, Note_on_c, 0, 49, 30
1, 59068, Note_on_c, 0, 56, 30
1, 59068, Note_on_c, 0, 61, 30
1, 59076, Control_c, 0, 64, 0
1, 59121, Control_c, 0, 64, 127
1, 59678, Note_on_c, 0, 70, 0
1, 59678, Note_on_c, 0, 66, 0
1, 59678, Note_on_c, 0, 65, 38
1, 59681, Note_on_c, 0, 68, 38
1, 59681, Note_on_c, 0, 61, 0
1, 59681, Note_on_c, 0, 56, 0
1, 59684, Note_on_c, 0, 49, 0
1, 59684, Note_on_c, 0, 49, 28
1, 59684, Note_on_c, 0, 56, 28
1, 59687, Note_on_c, 0, 61, 28
1, 59687, Control_c, 0, 64, 0
1, 59896, Note_on_c, 0, 68, 0
1, 59896, Note_on_c, 0, 65, 0
1, 59896, Note_on_c, 0, 61, 0
1, 59899, Note_on_c, 0, 56, 0
1, 59899, Note_on_c, 0, 49, 0
1, 59969, Note_on_c, 0, 65, 46
1, 59969, Note_on_c, 0, 49, 29
1, 59969, Note_on_c, 0, 56, 29
1, 59972, Note_on_c, 0, 61, 29
1, 60008, Control_c, 0, 64, 127
1, 60115, Note_on_c, 0, 65, 0
1, 60115, Note_on_c, 0, 68, 46
1, 60272, Note_on_c, 0, 68, 0
1, 60272, Note_on_c, 0, 66, 43
1, 60272, Note_on_c, 0, 70, 43
1, 60275, Note_on_c, 0, 73, 43
1, 60275, Note_on_c, 0, 61, 0
1, 60275, Note_on_c, 0, 56, 0
1, 60278, Note_on_c, 0, 49, 0
1, 60278, Note_on_c, 0, 49, 30
1, 60278, Note_on_c, 0, 56, 30
1, 60281, Note_on_c, 0, 61, 30
1, 60281, Control_c, 0, 64, 0
1, 60358, Control_c, 0, 64, 127
1, 60888, Note_on_c, 0, 73, 0
1, 60888, Note_on_c, 0, 70, 0
1, 60888, Note_on_c, 0, 66, 0
1, 60891, Note_on_c, 0, 65, 40
1, 60891, Note_on_c, 0, 68, 40
1, 60891, Note_on_c, 0, 61, 0
1, 60894, Note_on_c, 0, 56, 0
1, 60894, Note_on_c, 0, 49, 0
1, 60894, Note_on_c, 0, 49, 28
1, 60897, Note_on_c, 0, 56, 28
1, 60897, Note_on_c, 0, 61, 28
1, 60897, Control_c, 0, 64, 0
1, 61107, Note_on_c, 0, 68, 0
1, 61107, Note_on_c, 0, 65, 0
1, 61107, Note_on_c, 0, 61, 0
1, 61110, Note_on_c, 0, 56, 0
1, 61110, Note_on_c, 0, 49, 0
1, 61179, Note_on_c, 0, 65, 47
1, 61179, Note_on_c, 0, 68, 47
1, 61179, Note_on_c, 0, 56, 29
1, 61182, Note_on_c, 0, 60, 29
1, 61256, Control_c, 0, 64, 127
1, 61325, Note_on_c, 0, 68, 0
1, 61325, Note_on_c, 0, 65, 0
1, 61325, Note_on_c, 0, 62, 47
1, 61471, Note_on_c, 0, 62, 0
1, 61471, Note_on_c, 0, 63, 49
1, 61471, Note_on_c, 0, 66, 49
1, 61474, Note_on_c, 0, 60, 0
1, 61474, Note_on_c, 0, 56, 0
1, 61474, Note_on_c, 0, 56, 29
1, 61477, Note_on_c, 0, 60, 29
1, 61485, Control_c, 0, 64, 0
1, 61627, Control_c, 0, 64, 127
1, 62070, Note_on_c, 0, 66, 0
1, 62070, Note_on_c, 0, 63, 0
1, 62070, Note_on_c, 0, 66, 46
1, 62073, Note_on_c, 0, 75, 46
1, 62073, Note_on_c, 0, 60, 0
1, 62073, Note_on_c, 0, 56, 0
1, 62076, Note_on_c, 0, 56, 35
1, 62076, Note_on_c, 0, 60, 35
1, 62076, Control_c, 0, 64, 0
1, 62358, Note_on_c, 0, 75, 0
1, 62358, Note_on_c, 0, 66, 0
1, 62358, Note_on_c, 0, 68, 49
1, 62361, Note_on_c, 0, 77, 49
1, 62361, Note_on_c, 0, 60, 0
1, 62361, Note_on_c, 0, 56, 0
1, 62364, Note_on_c, 0, 49, 35
1, 62364, Note_on_c, 0, 56, 35
1, 62364, Note_on_c, 0, 61, 35
1, 62405, Control_c, 0, 64, 127
1, 62502, Note_on_c, 0, 77, 0
1, 62502, Note_on_c, 0, 68, 0
1, 62502, Note_on_c, 0, 66, 47
1, 62505, Note_on_c, 0, 75, 47
1, 62646, Note_on_c, 0, 75, 0
1, 62646, Note_on_c, 0, 66, 0
1, 62646, Note_on_c, 0, 65, 48
1, 62649, Note_on_c, 0, 73, 48
1, 62649, Note_on_c, 0, 61, 0
1, 62649, Note_on_c, 0, 56, 0
1, 62652, Note_on_c, 0, 49, 0
1, 62652, Note_on_c, 0, 49, 36
1, 62652, Note_on_c, 0, 56, 36
1, 62655, Note_on_c, 0, 61, 36
1, 62655, Control_c, 0, 64, 0
1, 62756, Control_c, 0, 64, 127
1, 63245, Note_on_c, 0, 73, 0
1, 63245, Note_on_c, 0, 65, 0
1, 63245, Note_on_c, 0, 65, 41
1, 63248, Note_on_c, 0, 68, 41
1, 63248, Note_on_c, 0, 61, 0
1, 63248, Note_on_c, 0, 56, 0
1, 63251, Note_on_c, 0, 49, 0
1, 63251, Note_on_c, 0, 49, 32
1, 63251, Note_on_c, 0, 56, 32
1, 63254, Note_on_c, 0, 61, 32
1, 63254, Control_c, 0, 64, 0
1, 63476, Note_on_c, 0, 68, 0
1, 63476, Note_on_c, 0, 65, 0
1, 63476, Note_on_c, 0, 61, 0
1, 63479, Note_on_c, 0, 56, 0
1, 63479, Note_on_c, 0, 49, 0
1, 63553, Control_c, 0, 91, 127
1, 63553, Note_on_c, 0, 65, 46
1, 63553, Note_on_c, 0, 49, 32
1, 63556, Note_on_c, 0, 56, 32
1, 63556, Note_on_c, 0, 61, 32
1, 63556, Control_c, 0, 91, 127
1, 63599, Control_c, 0, 64, 127
1, 63693, Note_on_c, 0, 65, 0
1, 63693, Note_on_c, 0, 68, 46
1, 63834, Note_on_c, 0, 68, 0
1, 63834, Note_on_c, 0, 66, 42
1, 63834, Note_on_c, 0, 70, 42
1, 63837, Note_on_c, 0, 61, 0
1, 63837, Note_on_c, 0, 56, 0
1, 63837, Note_on_c, 0, 49, 0
1, 63840, Note_on_c, 0, 49, 31
1, 63840, Note_on_c, 0, 56, 31
1, 63840, Note_on_c, 0, 61, 31
1, 63843, Control_c, 0, 64, 0
1, 63937, Control_c, 0, 64, 127
1, 64421, Note_on_c, 0, 70, 0
1, 64421, Note_on_c, 0, 66, 0
1, 64421, Note_on_c, 0, 65, 40
1, 64424, Note_on_c, 0, 68, 40
1, 64424, Note_on_c, 0, 61, 0
1, 64424, Note_on_c, 0, 56, 0
1, 64427, Note_on_c, 0, 49, 0
1, 64427, Note_on_c, 0, 49, 31
1, 64427, Note_on_c, 0, 56, 31
1, 64430, Note_on_c, 0, 61, 31
1, 64430, Control_c, 0, 64, 0
1, 64633, Note_on_c, 0, 68, 0
1, 64633, Note_on_c, 0, 65, 0
1, 64633, Note_on_c, 0, 61, 0
1, 64636, Note_on_c, 0, 56, 0
1, 64636, Note_on_c, 0, 49, 0
1, 64704, Note_on_c, 0, 65, 46
1, 64704, Note_on_c, 0, 49, 33
1, 64704, Note_on_c, 0, 56, 33
1, 64707, Note_on_c, 0, 61, 33
1, 64741, Control_c, 0, 64, 127
1, 64845, Note_on_c, 0, 65, 0
1, 64845, Note_on_c, 0, 68, 46
1, 65007, Note_on_c, 0, 68, 0
1, 65007, Note_on_c, 0, 66, 42
1, 65007, Note_on_c, 0, 70, 42
1, 65010, Note_on_c, 0, 73, 42
1, 65010, Note_on_c, 0, 61, 0
1, 65010, Note_on_c, 0, 56, 0
1, 65013, Note_on_c, 0, 49, 0
1, 65013, Note_on_c, 0, 49, 31
1, 65013, Note_on_c, 0, 56, 31
1, 65016, Note_on_c, 0, 61, 31
1, 65016, Control_c, 0, 64, 0
1, 65067, Control_c, 0, 64, 127
1, 65598, Note_on_c, 0, 73, 0
1, 65598, Note_on_c, 0, 70, 0
1, 65598, Note_on_c, 0, 66, 0
1, 65601, Note_on_c, 0, 65, 38
1, 65601, Note_on_c, 0, 68, 38
1, 65601, Note_on_c, 0, 61, 0
1, 65604, Note_on_c, 0, 56, 0
1, 65604, Note_on_c, 0, 49, 0
1, 65604, Note_on_c, 0, 49, 29
1, 65607, Note_on_c, 0, 56, 29
1, 65607, Note_on_c, 0, 61, 29
1, 65607, Control_c, 0, 64, 0
1, 65810, Note_on_c, 0, 68, 0
1, 65810, Note_on_c, 0, 65, 0
1, 65810, Note_on_c, 0, 61, 0
1, 65813, Note_on_c, 0, 56, 0
1, 65813, Note_on_c, 0, 49, 0
1, 65880, Note_on_c, 0, 65, 47
1, 65880, Note_on_c, 0, 68, 47
1, 65880, Note_on_c, 0, 56, 35
1, 65883, Note_on_c, 0, 60, 35
1, 65947, Control_c, 0, 64, 127
1, 66022, Note_on_c, 0, 68, 0
1, 66022, Note_on_c, 0, 65, 0
1, 66022, Note_on_c, 0, 62, 47
1, 66163, Note_on_c, 0, 62, 0
1, 66163, Note_on_c, 0, 63, 49
1, 66163, Note_on_c, 0, 66, 49
1, 66166, Note_on_c, 0, 60, 0
1, 66166, Note_on_c, 0, 56, 0
1, 66166, Note_on_c, 0, 56, 38
1, 66169, Note_on_c, 0, 60, 38
1, 66173, Control_c, 0, 64, 0
1, 66257, Control_c, 0, 64, 127
1, 66587, Note_on_c, 0, 66, 0
1, 66587, Note_on_c, 0, 63, 0
1, 66587, Note_on_c, 0, 66, 46
1, 66590, Note_on_c, 0, 75, 46
1, 66725, Note_on_c, 0, 75, 0
1, 66725, Note_on_c, 0, 66, 0
1, 66725, Note_on_c, 0, 68, 47
1, 66728, Note_on_c, 0, 77, 47
1, 66728, Note_on_c, 0, 60, 0
1, 66728, Note_on_c, 0, 56, 0
1, 66731, Note_on_c, 0, 56, 34
1, 66731, Note_on_c, 0, 60, 34
1, 66736, Control_c, 0, 64, 0
1, 66797, Control_c, 0, 64, 127
1, 66862, Note_on_c, 0, 77, 0
1, 66862, Note_on_c, 0, 68, 0
1, 66862, Note_on_c, 0, 66, 46
1, 66865, Note_on_c, 0, 75, 46
1, 67000, Note_on_c, 0, 75, 0
1, 67000, Note_on_c, 0, 66, 0
1, 67000, Note_on_c, 0, 65, 47
1, 67003, Note_on_c, 0, 73, 47
1, 67003, Note_on_c, 0, 60, 0
1, 67003, Note_on_c, 0, 56, 0
1, 67006, Note_on_c, 0, 49, 35
1, 67006, Note_on_c, 0, 56, 35
1, 67006, Note_on_c, 0, 61, 35
1, 67009, Control_c, 0, 64, 0
1, 67106, Control_c, 0, 64, 127
1, 67138, Note_on_c, 0, 73, 0
1, 67138, Note_on_c, 0, 65, 0
1, 67138, Note_on_c, 0, 66, 47
1, 67141, Note_on_c, 0, 75, 47
1, 67276, Note_on_c, 0, 75, 0
1, 67276, Note_on_c, 0, 66, 0
1, 67276, Note_on_c, 0, 65, 50
1, 67279, Note_on_c, 0, 73, 50
1, 67279, Note_on_c, 0, 61, 0
1, 67279, Note_on_c, 0, 56, 0
1, 67282, Note_on_c, 0, 49, 0
1, 67282, Note_on_c, 0, 49, 35
1, 67282, Note_on_c, 0, 56, 35
1, 67285, Note_on_c, 0, 61, 35
1, 67290, Control_c, 0, 64, 0
1, 67414, Control_c, 0, 64, 127
1, 68209, Note_on_c, 0, 56, 0
1, 68212, Note_on_c, 0, 73, 0
1, 68212, Note_on_c, 0, 65, 0
1, 68212, Note_on_c, 0, 56, 53
1, 68215, Note_on_c, 0, 61, 0
1, 68215, Note_on_c, 0, 49, 0
1, 68215, Control_c, 0, 64, 0
1, 68218, Note_on_c, 0, 32, 50
1, 68218, Note_on_c, 0, 44, 50
1, 68327, Control_c, 0, 64, 127
1, 68362, Note_on_c, 0, 56, 0
1, 68362, Note_on_c, 0, 60, 53
1, 68511, Note_on_c, 0, 60, 0
1, 68511, Note_on_c, 0, 52, 57
1, 68511, Note_on_c, 0, 56, 57
1, 68514, Note_on_c, 0, 61, 57
1, 68514, Note_on_c, 0, 44, 0
1, 68514, Note_on_c, 0, 32, 0
1, 68517, Note_on_c, 0, 37, 52
1, 68517, Note_on_c, 0, 44, 52
1, 68538, Control_c, 0, 64, 0
1, 68637, Control_c, 0, 64, 127
1, 69123, Note_on_c, 0, 61, 0
1, 69123, Note_on_c, 0, 56, 0
1, 69123, Note_on_c, 0, 52, 0
1, 69126, Note_on_c, 0, 51, 48
1, 69126, Note_on_c, 0, 56, 48
1, 69126, Note_on_c, 0, 60, 48
1, 69129, Note_on_c, 0, 44, 0
1, 69129, Note_on_c, 0, 37, 0
1, 69129, Note_on_c, 0, 32, 46
1, 69132, Note_on_c, 0, 44, 46
1, 69132, Control_c, 0, 64, 0
1, 69414, Note_on_c, 0, 60, 0
1, 69414, Note_on_c, 0, 56, 0
1, 69414, Note_on_c, 0, 51, 0
1, 69417, Note_on_c, 0, 56, 58
1, 69417, Note_on_c, 0, 44, 0
1, 69417, Note_on_c, 0, 32, 0
1, 69420, Note_on_c, 0, 32, 47
1, 69420, Note_on_c, 0, 44, 47
1, 69457, Control_c, 0, 64, 127
1, 69562, Note_on_c, 0, 56, 0
1, 69562, Note_on_c, 0, 60, 58
1, 69710, Note_on_c, 0, 60, 0
1, 69710, Note_on_c, 0, 56, 63
1, 69710, Note_on_c, 0, 64, 63
1, 69713, Note_on_c, 0, 61, 63
1, 69713, Note_on_c, 0, 44, 0
1, 69713, Note_on_c, 0, 32, 0
1, 69716, Note_on_c, 0, 37, 55
1, 69716, Note_on_c, 0, 44, 55
1, 69719, Control_c, 0, 64, 0
1, 69826, Control_c, 0, 64, 127
1, 70317, Note_on_c, 0, 61, 0
1, 70317, Note_on_c, 0, 64, 0
1, 70317, Note_on_c, 0, 56, 0
1, 70320, Note_on_c, 0, 56, 55
1, 70320, Note_on_c, 0, 63, 55
1, 70320, Note_on_c, 0, 60, 55
1, 70323, Note_on_c, 0, 44, 0
1, 70323, Note_on_c, 0, 37, 0
1, 70323, Note_on_c, 0, 32, 50
1, 70326, Note_on_c, 0, 44, 50
1, 70330, Control_c, 0, 64, 0
1, 70603, Note_on_c, 0, 60, 0
1, 70603, Note_on_c, 0, 63, 0
1, 70603, Note_on_c, 0, 56, 0
1, 70606, Note_on_c, 0, 60, 63
1, 70606, Note_on_c, 0, 63, 63
1, 70606, Note_on_c, 0, 44, 0
1, 70609, Note_on_c, 0, 32, 0
1, 70609, Note_on_c, 0, 32, 56
1, 70609, Note_on_c, 0, 44, 56
1, 70663, Control_c, 0, 64, 127
1, 70754, Note_on_c, 0, 63, 0
1, 70754, Note_on_c, 0, 60, 0
1, 70754, Note_on_c, 0, 69, 63
1, 70905, Note_on_c, 0, 69, 0
1, 70905, Note_on_c, 0, 61, 66
1, 70905, Note_on_c, 0, 64, 66
1, 70908, Note_on_c, 0, 68, 66
1, 70908, Note_on_c, 0, 44, 0
1, 70908, Note_on_c, 0, 32, 0
1, 70911, Note_on_c, 0, 37, 59
1, 70911, Note_on_c, 0, 44, 59
1, 70921, Control_c, 0, 64, 0
1, 71062, Control_c, 0, 64, 127
1, 71693, Note_on_c, 0, 68, 0
1, 71693, Note_on_c, 0, 64, 0
1, 71693, Note_on_c, 0, 61, 0
1, 71696, Note_on_c, 0, 60, 48
1, 71696, Note_on_c, 0, 63, 48
1, 71696, Note_on_c, 0, 68, 48
1, 71699, Note_on_c, 0, 44, 0
1, 71699, Note_on_c, 0, 37, 0
1, 71699, Note_on_c, 0, 32, 46
1, 71702, Note_on_c, 0, 44, 46
1, 71710, Control_c, 0, 64, 0
1, 71842, Control_c, 0, 64, 127
1, 72156, Note_on_c, 0, 68, 0
1, 72156, Note_on_c, 0, 63, 0
1, 72156, Note_on_c, 0, 60, 0
1, 72159, Note_on_c, 0, 59, 35
1, 72159, Note_on_c, 0, 63, 35
1, 72159, Note_on_c, 0, 69, 37
1, 72162, Note_on_c, 0, 44, 0
1, 72162, Note_on_c, 0, 32, 0
1, 72162, Note_on_c, 0, 42, 31
1, 72165, Note_on_c, 0, 47, 31
1, 72165, Control_c, 0, 64, 0
1, 72317, Control_c, 0, 64, 127
1, 72424, Note_on_c, 0, 69, 0
1, 72424, Note_on_c, 0, 71, 37
1, 72691, Note_on_c, 0, 71, 0
1, 72691, Note_on_c, 0, 63, 0
1, 72691, Note_on_c, 0, 59, 0
1, 72694, Note_on_c, 0, 59, 34
1, 72694, Note_on_c, 0, 64, 34
1, 72694, Note_on_c, 0, 68, 36
1, 72697, Note_on_c, 0, 47, 0
1, 72697, Note_on_c, 0, 42, 0
1, 72697, Note_on_c, 0, 40, 31
1, 72700, Note_on_c, 0, 47, 31
1, 72700, Control_c, 0, 64, 0
1, 72860, Control_c, 0, 64, 127
1, 74110, Note_on_c, 0, 68, 0
1, 74110, Note_on_c, 0, 64, 0
1, 74110, Note_on_c, 0, 59, 0
1, 74113, Note_on_c, 0, 65, 42
1, 74113, Control_c, 0, 91, 127
1, 74113, Note_on_c, 0, 47, 0
1, 74116, Note_on_c, 0, 40, 0
1, 74116, Control_c, 0, 64, 0
1, 74116, Note_on_c, 0, 49, 28
1, 74119, Note_on_c, 0, 56, 28
1, 74119, Note_on_c, 0, 61, 28
1, 74119, Control_c, 0, 91, 127
1, 74171, Control_c, 0, 64, 127
1, 74259, Note_on_c, 0, 65, 0
1, 74259, Note_on_c, 0, 68, 42
1, 74422, Note_on_c, 0, 68, 0
1, 74422, Note_on_c, 0, 66, 33
1, 74422, Note_on_c, 0, 70, 37
1, 74425, Note_on_c, 0, 61, 0
1, 74425, Note_on_c, 0, 56, 0
1, 74425, Note_on_c, 0, 49, 0
1, 74428, Note_on_c, 0, 49, 28
1, 74428, Note_on_c, 0, 56, 28
1, 74428, Note_on_c, 0, 61, 28
1, 74431, Control_c, 0, 64, 0
1, 74486, Control_c, 0, 64, 127
1, 75051, Note_on_c, 0, 70, 0
1, 75051, Note_on_c, 0, 66, 0
1, 75051, Note_on_c, 0, 65, 31
1, 75054, Note_on_c, 0, 68, 35
1, 75054, Note_on_c, 0, 61, 0
1, 75054, Note_on_c, 0, 56, 0
1, 75057, Note_on_c, 0, 49, 0
1, 75057, Note_on_c, 0, 49, 25
1, 75057, Note_on_c, 0, 56, 25
1, 75060, Note_on_c, 0, 61, 25
1, 75060, Control_c, 0, 64, 0
1, 75269, Note_on_c, 0, 68, 0
1, 75269, Note_on_c, 0, 65, 0
1, 75269, Note_on_c, 0, 61, 0
1, 75272, Note_on_c, 0, 56, 0
1, 75272, Note_on_c, 0, 49, 0
1, 75342, Note_on_c, 0, 65, 42
1, 75342, Note_on_c, 0, 49, 28
1, 75342, Note_on_c, 0, 56, 28
1, 75345, Note_on_c, 0, 61, 28
1, 75381, Control_c, 0, 64, 127
1, 75488, Note_on_c, 0, 65, 0
1, 75488, Note_on_c, 0, 68, 42
1, 75644, Note_on_c, 0, 68, 0
1, 75644, Note_on_c, 0, 66, 35
1, 75644, Note_on_c, 0, 70, 35
1, 75647, Note_on_c, 0, 73, 40
1, 75647, Note_on_c, 0, 61, 0
1, 75647, Note_on_c, 0, 56, 0
1, 75650, Note_on_c, 0, 49, 0
1, 75650, Note_on_c, 0, 49, 28
1, 75650, Note_on_c, 0, 56, 28
1, 75653, Note_on_c, 0, 61, 28
1, 75653, Control_c, 0, 64, 0
1, 75724, Control_c, 0, 64, 127
1, 76251, Note_on_c, 0, 73, 0
1, 76251, Note_on_c, 0, 70, 0
1, 76251, Note_on_c, 0, 66, 0
1, 76254, Note_on_c, 0, 65, 30
1, 76254, Note_on_c, 0, 68, 34
1, 76254, Note_on_c, 0, 61, 0
1, 76257, Note_on_c, 0, 56, 0
1, 76257, Note_on_c, 0, 49, 0
1, 76257, Note_on_c, 0, 49, 25
1, 76260, Note_on_c, 0, 56, 25
1, 76260, Note_on_c, 0, 61, 25
1, 76260, Control_c, 0, 64, 0
1, 76459, Note_on_c, 0, 68, 0
1, 76459, Note_on_c, 0, 65, 0
1, 76459, Note_on_c, 0, 61, 0
1, 76462, Note_on_c, 0, 56, 0
1, 76462, Note_on_c, 0, 49, 0
1, 76529, Note_on_c, 0, 65, 38
1, 76529, Note_on_c, 0, 68, 43
1, 76529, Note_on_c, 0, 56, 28
1, 76532, Note_on_c, 0, 60, 28
1, 76595, Control_c, 0, 64, 127
1, 76667, Note_on_c, 0, 68, 0
1, 76667, Note_on_c, 0, 65, 0
1, 76667, Note_on_c, 0, 62, 43
1, 76806, Note_on_c, 0, 62, 0
1, 76806, Note_on_c, 0, 63, 42
1, 76806, Note_on_c, 0, 66, 48
1, 76809, Note_on_c, 0, 60, 0
1, 76809, Note_on_c, 0, 56, 0
1, 76809, Note_on_c, 0, 56, 28
1, 76812, Note_on_c, 0, 60, 28
1, 76812, Control_c, 0, 64, 0
1, 76908, Control_c, 0, 64, 127
1, 77382, Note_on_c, 0, 66, 0
1, 77382, Note_on_c, 0, 63, 0
1, 77382, Note_on_c, 0, 66, 36
1, 77385, Note_on_c, 0, 75, 41
1, 77385, Note_on_c, 0, 60, 0
1, 77385, Note_on_c, 0, 56, 0
1, 77388, Note_on_c, 0, 56, 28
1, 77388, Note_on_c, 0, 60, 28
1, 77388, Control_c, 0, 64, 0
1, 77670, Note_on_c, 0, 75, 0
1, 77670, Note_on_c, 0, 66, 0
1, 77670, Note_on_c, 0, 68, 41
1, 77673, Note_on_c, 0, 77, 47
1, 77673, Note_on_c, 0, 60, 0
1, 77673, Note_on_c, 0, 56, 0
1, 77676, Note_on_c, 0, 49, 30
1, 77676, Note_on_c, 0, 56, 30
1, 77676, Note_on_c, 0, 61, 30
1, 77712, Control_c, 0, 64, 127
1, 77813, Note_on_c, 0, 77, 0
1, 77813, Note_on_c, 0, 68, 0
1, 77813, Note_on_c, 0, 66, 38
1, 77816, Note_on_c, 0, 75, 43
1, 77956, Note_on_c, 0, 75, 0
1, 77956, Note_on_c, 0, 66, 0
1, 77956, Note_on_c, 0, 65, 44
1, 77959, Note_on_c, 0, 73, 50
1, 77959, Note_on_c, 0, 61, 0
1, 77959, Note_on_c, 0, 56, 0
1, 77962, Note_on_c, 0, 49, 0
1, 77962, Note_on_c, 0, 49, 31
1, 77962, Note_on_c, 0, 56, 31
1, 77965, Note_on_c, 0, 61, 31
1, 77965, Control_c, 0, 64, 0
1, 78042, Control_c, 0, 64, 127
1, 78547, Note_on_c, 0, 73, 0
1, 78547, Note_on_c, 0, 65, 0
1, 78547, Note_on_c, 0, 65, 35
1, 78550, Note_on_c, 0, 68, 40
1, 78550, Note_on_c, 0, 61, 0
1, 78550, Note_on_c, 0, 56, 0
1, 78553, Note_on_c, 0, 49, 0
1, 78553, Note_on_c, 0, 49, 28
1, 78553, Note_on_c, 0, 56, 28
1, 78556, Note_on_c, 0, 61, 28
1, 78556, Control_c, 0, 64, 0
1, 78762, Note_on_c, 0, 68, 0
1, 78762, Note_on_c, 0, 65, 0
1, 78762, Note_on_c, 0, 61, 0
1, 78765, Note_on_c, 0, 56, 0
1, 78765, Note_on_c, 0, 49, 0
1, 78833, Control_c, 0, 91, 127
1, 78833, Note_on_c, 0, 65, 42
1, 78833, Note_on_c, 0, 49, 28
1, 78836, Note_on_c, 0, 56, 28
1, 78836, Note_on_c, 0, 61, 28
1, 78836, Control_c, 0, 91, 127
1, 78875, Control_c, 0, 64, 127
1, 78977, Note_on_c, 0, 65, 0
1, 78977, Note_on_c, 0, 68, 42
1, 79126, Note_on_c, 0, 68, 0
1, 79126, Note_on_c, 0, 66, 36
1, 79126, Note_on_c, 0, 70, 41
1, 79129, Note_on_c, 0, 61, 0
1, 79129, Note_on_c, 0, 56, 0
1, 79129, Note_on_c, 0, 49, 0
1, 79132, Note_on_c, 0, 49, 28
1, 79132, Note_on_c, 0, 56, 28
1, 79132, Note_on_c, 0, 61, 28
1, 79138, Control_c, 0, 64, 0
1, 79203, Control_c, 0, 64, 127
1, 79710, Note_on_c, 0, 70, 0
1, 79710, Note_on_c, 0, 66, 0
1, 79710, Note_on_c, 0, 65, 35
1, 79713, Note_on_c, 0, 68, 40
1, 79713, Note_on_c, 0, 61, 0
1, 79713, Note_on_c, 0, 56, 0
1, 79716, Note_on_c, 0, 49, 0
1, 79716, Note_on_c, 0, 49, 28
1, 79716, Note_on_c, 0, 56, 28
1, 79719, Note_on_c, 0, 61, 28
1, 79719, Control_c, 0, 64, 0
1, 79922, Note_on_c, 0, 68, 0
1, 79922, Note_on_c, 0, 65, 0
1, 79922, Note_on_c, 0, 61, 0
1, 79925, Note_on_c, 0, 56, 0
1, 79925, Note_on_c, 0, 49, 0
1, 79992, Note_on_c, 0, 65, 42
1, 79992, Note_on_c, 0, 49, 28
1, 79992, Note_on_c, 0, 56, 28
1, 79995, Note_on_c, 0, 61, 28
1, 80050, Control_c, 0, 64, 127
1, 80134, Note_on_c, 0, 65, 0
1, 80134, Note_on_c, 0, 68, 42
1, 80283, Note_on_c, 0, 68, 0
1, 80283, Note_on_c, 0, 66, 36
1, 80283, Note_on_c, 0, 70, 36
1, 80286, Note_on_c, 0, 73, 41
1, 80286, Note_on_c, 0, 61, 0
1, 80286, Note_on_c, 0, 56, 0
1, 80289, Note_on_c, 0, 49, 0
1, 80289, Note_on_c, 0, 49, 28
1, 80289, Note_on_c, 0, 56, 28
1, 80292, Note_on_c, 0, 61, 28
1, 80292, Control_c, 0, 64, 0
1, 80395, Control_c, 0, 64, 127
1, 80863, Note_on_c, 0, 73, 0
1, 80863, Note_on_c, 0, 70, 0
1, 80863, Note_on_c, 0, 66, 0
1, 80866, Note_on_c, 0, 65, 32
1, 80866, Note_on_c, 0, 68, 36
1, 80866, Note_on_c, 0, 61, 0
1, 80869, Note_on_c, 0, 56, 0
1, 80869, Note_on_c, 0, 49, 0
1, 80869, Note_on_c, 0, 49, 27
1, 80872, Note_on_c, 0, 56, 27
1, 80872, Note_on_c, 0, 61, 27
1, 80875, Control_c, 0, 64, 0
1, 81071, Note_on_c, 0, 68, 0
1, 81071, Note_on_c, 0, 65, 0
1, 81071, Note_on_c, 0, 61, 0
1, 81074, Note_on_c, 0, 56, 0
1, 81074, Note_on_c, 0, 49, 0
1, 81140, Note_on_c, 0, 65, 38
1, 81140, Note_on_c, 0, 68, 43
1, 81140, Note_on_c, 0, 56, 30
1, 81143, Note_on_c, 0, 60, 30
1, 81219, Control_c, 0, 64, 127
1, 81279, Note_on_c, 0, 68, 0
1, 81279, Note_on_c, 0, 65, 0
1, 81279, Note_on_c, 0, 62, 43
1, 81427, Note_on_c, 0, 62, 0
1, 81427, Note_on_c, 0, 63, 44
1, 81427, Note_on_c, 0, 66, 50
1, 81430, Note_on_c, 0, 60, 0
1, 81430, Note_on_c, 0, 56, 0
1, 81430, Note_on_c, 0, 56, 32
1, 81433, Note_on_c, 0, 60, 32
1, 81440, Control_c, 0, 64, 0
1, 81536, Control_c, 0, 64, 127
1, 81859, Note_on_c, 0, 66, 0
1, 81859, Note_on_c, 0, 63, 0
1, 81859, Note_on_c, 0, 66, 37
1, 81862, Note_on_c, 0, 75, 42
1, 81994, Note_on_c, 0, 75, 0
1, 81994, Note_on_c, 0, 66, 0
1, 81994, Note_on_c, 0, 68, 38
1, 81997, Note_on_c, 0, 77, 43
1, 81997, Note_on_c, 0, 60, 0
1, 81997, Note_on_c, 0, 56, 0
1, 82000, Note_on_c, 0, 56, 29
1, 82000, Note_on_c, 0, 60, 29
1, 82000, Control_c, 0, 64, 0
1, 82097, Control_c, 0, 64, 127
1, 82130, Note_on_c, 0, 77, 0
1, 82130, Note_on_c, 0, 68, 0
1, 82130, Note_on_c, 0, 66, 37
1, 82133, Note_on_c, 0, 75, 42
1, 82265, Note_on_c, 0, 75, 0
1, 82265, Note_on_c, 0, 66, 0
1, 82265, Note_on_c, 0, 65, 38
1, 82268, Note_on_c, 0, 73, 43
1, 82268, Note_on_c, 0, 60, 0
1, 82268, Note_on_c, 0, 56, 0
1, 82271, Note_on_c, 0, 49, 30
1, 82271, Note_on_c, 0, 56, 30
1, 82271, Note_on_c, 0, 61, 30
1, 82274, Control_c, 0, 64, 0
1, 82392, Control_c, 0, 64, 127
1, 82400, Note_on_c, 0, 73, 0
1, 82400, Note_on_c, 0, 65, 0
1, 82400, Note_on_c, 0, 66, 38
1, 82403, Note_on_c, 0, 75, 43
1, 82536, Note_on_c, 0, 75, 0
1, 82536, Note_on_c, 0, 66, 0
1, 82536, Note_on_c, 0, 65, 40
1, 82539, Note_on_c, 0, 73, 46
1, 82539, Note_on_c, 0, 61, 0
1, 82539, Note_on_c, 0, 56, 0
1, 82542, Note_on_c, 0, 49, 0
1, 82542, Note_on_c, 0, 49, 31
1, 82542, Note_on_c, 0, 56, 31
1, 82545, Note_on_c, 0, 61, 31
1, 82545, Control_c, 0, 64, 0
1, 82704, Control_c, 0, 64, 127
1, 83489, Note_on_c, 0, 56, 0
1, 83492, Note_on_c, 0, 73, 0
1, 83492, Note_on_c, 0, 65, 0
1, 83492, Note_on_c, 0, 56, 46
1, 83495, Note_on_c, 0, 61, 0
1, 83495, Note_on_c, 0, 49, 0
1, 83495, Control_c, 0, 64, 0
1, 83498, Note_on_c, 0, 32, 40
1, 83498, Note_on_c, 0, 44, 40
1, 83638, Note_on_c, 0, 56, 0
1, 83638, Note_on_c, 0, 60, 46
1, 83655, Control_c, 0, 64, 127
1, 83784, Note_on_c, 0, 60, 0
1, 83784, Note_on_c, 0, 52, 46
1, 83784, Note_on_c, 0, 56, 46
1, 83787, Note_on_c, 0, 61, 49
1, 83787, Note_on_c, 0, 44, 0
1, 83787, Note_on_c, 0, 32, 0
1, 83790, Note_on_c, 0, 37, 42
1, 83790, Note_on_c, 0, 44, 42
1, 83802, Control_c, 0, 64, 0
1, 83909, Control_c, 0, 64, 127
1, 84389, Note_on_c, 0, 61, 0
1, 84389, Note_on_c, 0, 56, 0
1, 84389, Note_on_c, 0, 52, 0
1, 84392, Note_on_c, 0, 51, 39
1, 84392, Note_on_c, 0, 56, 39
1, 84392, Note_on_c, 0, 60, 41
1, 84395, Note_on_c, 0, 44, 0
1, 84395, Note_on_c, 0, 37, 0
1, 84395, Note_on_c, 0, 32, 37
1, 84398, Note_on_c, 0, 44, 37
1, 84403, Control_c, 0, 64, 0
1, 84681, Note_on_c, 0, 60, 0
1, 84681, Note_on_c, 0, 56, 0
1, 84681, Note_on_c, 0, 51, 0
1, 84684, Note_on_c, 0, 56, 49
1, 84684, Note_on_c, 0, 44, 0
1, 84684, Note_on_c, 0, 32, 0
1, 84687, Note_on_c, 0, 32, 40
1, 84687, Note_on_c, 0, 44, 40
1, 84749, Control_c, 0, 64, 127
1, 84827, Note_on_c, 0, 56, 0
1, 84827, Note_on_c, 0, 60, 49
1, 84973, Note_on_c, 0, 60, 0
1, 84973, Note_on_c, 0, 56, 50
1, 84973, Note_on_c, 0, 64, 54
1, 84976, Note_on_c, 0, 61, 50
1, 84976, Note_on_c, 0, 44, 0
1, 84976, Note_on_c, 0, 32, 0
1, 84979, Note_on_c, 0, 37, 44
1, 84979, Note_on_c, 0, 44, 44
1, 84987, Control_c, 0, 64, 0
1, 85105, Control_c, 0, 64, 127
1, 85568, Note_on_c, 0, 61, 0
1, 85568, Note_on_c, 0, 64, 0
1, 85568, Note_on_c, 0, 56, 0
1, 85571, Note_on_c, 0, 56, 44
1, 85571, Note_on_c, 0, 63, 47
1, 85571, Note_on_c, 0, 60, 44
1, 85574, Note_on_c, 0, 44, 0
1, 85574, Note_on_c, 0, 37, 0
1, 85574, Note_on_c, 0, 32, 40
1, 85577, Note_on_c, 0, 44, 40
1, 85577, Control_c, 0, 64, 0
1, 85861, Note_on_c, 0, 60, 0
1, 85861, Note_on_c, 0, 63, 0
1, 85861, Note_on_c, 0, 56, 0
1, 85864, Note_on_c, 0, 60, 50
1, 85864, Note_on_c, 0, 63, 54
1, 85864, Note_on_c, 0, 44, 0
1, 85867, Note_on_c, 0, 32, 0
1, 85867, Note_on_c, 0, 32, 44
1, 85867, Note_on_c, 0, 44, 44
1, 85907, Control_c, 0, 64, 127
1, 86007, Note_on_c, 0, 63, 0
1, 86007, Note_on_c, 0, 60, 0
1, 86007, Note_on_c, 0, 69, 54
1, 86153, Note_on_c, 0, 69, 0
1, 86153, Note_on_c, 0, 61, 54
1, 86153, Note_on_c, 0, 64, 54
1, 86156, Note_on_c, 0, 68, 58
1, 86156, Note_on_c, 0, 44, 0
1, 86156, Note_on_c, 0, 32, 0
1, 86159, Note_on_c, 0, 37, 46
1, 86159, Note_on_c, 0, 44, 46
1, 86159, Control_c, 0, 64, 0
1, 86243, Control_c, 0, 64, 127
1, 86908, Note_on_c, 0, 68, 0
1, 86908, Note_on_c, 0, 64, 0
1, 86908, Note_on_c, 0, 61, 0
1, 86911, Note_on_c, 0, 60, 45
1, 86911, Note_on_c, 0, 63, 45
1, 86911, Note_on_c, 0, 68, 48
1, 86914, Note_on_c, 0, 44, 0
1, 86914, Note_on_c, 0, 37, 0
1, 86914, Note_on_c, 0, 32, 41
1, 86917, Note_on_c, 0, 44, 41
1, 86929, Control_c, 0, 64, 0
1, 87086, Control_c, 0, 64, 127
1, 87353, Note_on_c, 0, 68, 0
1, 87353, Note_on_c, 0, 63, 0
1, 87353, Note_on_c, 0, 60, 0
1, 87356, Note_on_c, 0, 59, 34
1, 87356, Note_on_c, 0, 63, 34
1, 87356, Note_on_c, 0, 69, 36
1, 87359, Note_on_c, 0, 44, 0
1, 87359, Note_on_c, 0, 32, 0
1, 87359, Note_on_c, 0, 42, 29
1, 87362, Note_on_c, 0, 47, 29
1, 87366, Control_c, 0, 64, 0
1, 87486, Control_c, 0, 64, 127
1, 87653, Note_on_c, 0, 69, 0
1, 87653, Note_on_c, 0, 71, 36
1, 87952, Note_on_c, 0, 71, 0
1, 87952, Note_on_c, 0, 63, 0
1, 87952, Note_on_c, 0, 59, 0
1, 87955, Note_on_c, 0, 59, 34
1, 87955, Note_on_c, 0, 64, 34
1, 87955, Note_on_c, 0, 68, 36
1, 87958, Note_on_c, 0, 47, 0
1, 87958, Note_on_c, 0, 42, 0
1, 87958, Note_on_c, 0, 40, 29
1, 87961, Note_on_c, 0, 47, 29
1, 87967, Control_c, 0, 64, 0
1, 88051, Control_c, 0, 64, 127
1, 88943, Note_on_c, 0, 68, 0
1, 88943, Note_on_c, 0, 64, 0
1, 88943, Note_on_c, 0, 59, 0
1, 88946, Note_on_c, 0, 59, 57
1, 88946, Note_on_c, 0, 64, 57
1, 88946, Note_on_c, 0, 68, 57
1, 88949, Note_on_c, 0, 47, 0
1, 88949, Note_on_c, 0, 40, 0
1, 88949, Control_c, 0, 64, 0
1, 88952, Note_on_c, 0, 40, 55
1, 88952, Note_on_c, 0, 52, 55
1, 89043, Control_c, 0, 64, 127
1, 89082, Note_on_c, 0, 68, 0
1, 89082, Note_on_c, 0, 69, 57
1, 89221, Note_on_c, 0, 69, 0
1, 89221, Note_on_c, 0, 64, 0
1, 89221, Note_on_c, 0, 59, 0
1, 89224, Note_on_c, 0, 59, 61
1, 89224, Note_on_c, 0, 63, 61
1, 89224, Note_on_c, 0, 66, 61
1, 89227, Note_on_c, 0, 52, 0
1, 89227, Note_on_c, 0, 40, 0
1, 89227, Note_on_c, 0, 35, 58
1, 89230, Note_on_c, 0, 47, 58
1, 89230, Control_c, 0, 64, 0
1, 89314, Control_c, 0, 64, 127
1, 89775, Note_on_c, 0, 66, 0
1, 89775, Note_on_c, 0, 63, 0
1, 89775, Note_on_c, 0, 59, 0
1, 89778, Note_on_c, 0, 59, 54
1, 89778, Note_on_c, 0, 64, 54
1, 89778, Note_on_c, 0, 68, 54
1, 89781, Note_on_c, 0, 47, 0
1, 89781, Note_on_c, 0, 35, 0
1, 89781, Note_on_c, 0, 40, 56
1, 89784, Note_on_c, 0, 52, 56
1, 89784, Control_c, 0, 64, 0
1, 90038, Note_on_c, 0, 68, 0
1, 90038, Note_on_c, 0, 64, 0
1, 90038, Note_on_c, 0, 59, 0
1, 90041, Note_on_c, 0, 59, 59
1, 90041, Note_on_c, 0, 64, 59
1, 90041, Note_on_c, 0, 68, 59
1, 90044, Note_on_c, 0, 52, 0
1, 90044, Note_on_c, 0, 40, 0
1, 90044, Note_on_c, 0, 40, 60
1, 90047, Note_on_c, 0, 52, 60
1, 90070, Control_c, 0, 64, 127
1, 90169, Note_on_c, 0, 68, 0
1, 90169, Note_on_c, 0, 69, 59
1, 90301, Note_on_c, 0, 69, 0
1, 90301, Note_on_c, 0, 64, 0
1, 90301, Note_on_c, 0, 59, 0
1, 90304, Note_on_c, 0, 59, 63
1, 90304, Note_on_c, 0, 63, 63
1, 90304, Note_on_c, 0, 66, 63
1, 90307, Note_on_c, 0, 52, 0
1, 90307, Note_on_c, 0, 40, 0
1, 90307, Note_on_c, 0, 35, 63
1, 90310, Note_on_c, 0, 47, 63
1, 90310, Control_c, 0, 64, 0
1, 90376, Control_c, 0, 64, 127
1, 90839, Note_on_c, 0, 66, 0
1, 90839, Note_on_c, 0, 63, 0
1, 90839, Note_on_c, 0, 59, 0
1, 90842, Note_on_c, 0, 59, 58
1, 90842, Note_on_c, 0, 64, 58
1, 90842, Note_on_c, 0, 68, 58
1, 90845, Note_on_c, 0, 47, 0
1, 90845, Note_on_c, 0, 35, 0
1, 90845, Note_on_c, 0, 40, 60
1, 90848, Note_on_c, 0, 52, 60
1, 90848, Control_c, 0, 64, 0
1, 91096, Note_on_c, 0, 68, 0
1, 91096, Note_on_c, 0, 64, 0
1, 91096, Note_on_c, 0, 59, 0
1, 91099, Note_on_c, 0, 59, 63
1, 91099, Note_on_c, 0, 63, 63
1, 91099, Note_on_c, 0, 66, 63
1, 91102, Note_on_c, 0, 52, 0
1, 91102, Note_on_c, 0, 40, 0
1, 91102, Note_on_c, 0, 35, 64
1, 91105, Note_on_c, 0, 47, 64
1, 91111, Control_c, 0, 64, 127
1, 91224, Note_on_c, 0, 66, 0
1, 91224, Note_on_c, 0, 68, 63
1, 91352, Note_on_c, 0, 68, 0
1, 91352, Note_on_c, 0, 63, 0
1, 91352, Note_on_c, 0, 59, 0
1, 91355, Note_on_c, 0, 56, 66
1, 91355, Note_on_c, 0, 61, 66
1, 91355, Note_on_c, 0, 64, 66
1, 91358, Note_on_c, 0, 47, 0
1, 91358, Note_on_c, 0, 35, 0
1, 91358, Note_on_c, 0, 37, 68
1, 91361, Note_on_c, 0, 49, 68
1, 91361, Control_c, 0, 64, 0
1, 91455, Control_c, 0, 64, 127
1, 91887, Note_on_c, 0, 64, 0
1, 91887, Note_on_c, 0, 61, 0
1, 91887, Note_on_c, 0, 56, 0
1, 91890, Note_on_c, 0, 57, 70
1, 91890, Note_on_c, 0, 61, 70
1, 91890, Note_on_c, 0, 66, 70
1, 91893, Note_on_c, 0, 49, 0
1, 91893, Note_on_c, 0, 37, 0
1, 91893, Note_on_c, 0, 33, 70
1, 91896, Note_on_c, 0, 45, 70
1, 91896, Control_c, 0, 64, 0
1, 92000, Control_c, 0, 64, 127
1, 92142, Note_on_c, 0, 66, 0
1, 92142, Note_on_c, 0, 61, 0
1, 92142, Note_on_c, 0, 57, 0
1, 92145, Note_on_c, 0, 57, 66
1, 92145, Note_on_c, 0, 63, 66
1, 92145, Note_on_c, 0, 45, 0
1, 92148, Note_on_c, 0, 33, 0
1, 92148, Note_on_c, 0, 35, 67
1, 92148, Note_on_c, 0, 47, 67
1, 92151, Control_c, 0, 64, 0
1, 92211, Control_c, 0, 64, 127
1, 92272, Note_on_c, 0, 63, 0
1, 92272, Note_on_c, 0, 66, 66
1, 92402, Note_on_c, 0, 66, 0
1, 92402, Note_on_c, 0, 57, 0
1, 92402, Note_on_c, 0, 56, 62
1, 92405, Note_on_c, 0, 64, 62
1, 92405, Note_on_c, 0, 47, 0
1, 92405, Note_on_c, 0, 35, 0
1, 92408, Note_on_c, 0, 40, 64
1, 92408, Note_on_c, 0, 47, 64
1, 92408, Control_c, 0, 64, 0
1, 92506, Control_c, 0, 64, 127
1, 92898, Note_on_c, 0, 64, 0
1, 92898, Note_on_c, 0, 56, 0
1, 92898, Note_on_c, 0, 47, 0
1, 92901, Note_on_c, 0, 40, 0
1, 92943, Note_on_c, 0, 68, 55
1, 92943, Note_on_c, 0, 76, 55
1, 92943, Note_on_c, 0, 59, 55
1, 92947, Control_c, 0, 64, 0
1, 93200, Note_on_c, 0, 76, 0
1, 93200, Note_on_c, 0, 68, 0
1, 93200, Note_on_c, 0, 69, 58
1, 93203, Note_on_c, 0, 76, 58
1, 93203, Note_on_c, 0, 59, 0
1, 93203, Note_on_c, 0, 63, 49
1, 93206, Note_on_c, 0, 59, 49
1, 93273, Control_c, 0, 64, 127
1, 93329, Note_on_c, 0, 76, 0
1, 93329, Note_on_c, 0, 80, 58
1, 93457, Note_on_c, 0, 80, 0
1, 93457, Note_on_c, 0, 69, 0
1, 93457, Note_on_c, 0, 69, 61
1, 93460, Note_on_c, 0, 78, 61
1, 93460, Note_on_c, 0, 59, 0
1, 93460, Note_on_c, 0, 63, 0
1, 93463, Note_on_c, 0, 59, 58
1, 93463, Note_on_c, 0, 63, 58
1, 93463, Control_c, 0, 64, 0
1, 93614, Control_c, 0, 64, 127
1, 93985, Note_on_c, 0, 78, 0
1, 93985, Note_on_c, 0, 69, 0
1, 93985, Note_on_c, 0, 66, 57
1, 93988, Note_on_c, 0, 69, 57
1, 93988, Note_on_c, 0, 63, 0
1, 93988, Note_on_c, 0, 59, 0
1, 93991, Note_on_c, 0, 59, 58
1, 93991, Note_on_c, 0, 63, 58
1, 94000, Control_c, 0, 64, 0
1, 94241, Note_on_c, 0, 69, 0
1, 94241, Note_on_c, 0, 66, 0
1, 94241, Note_on_c, 0, 64, 63
1, 94244, Note_on_c, 0, 68, 63
1, 94244, Note_on_c, 0, 63, 0
1, 94244, Note_on_c, 0, 59, 0
1, 94247, Note_on_c, 0, 64, 63
1, 94247, Note_on_c, 0, 59, 63
1, 94297, Control_c, 0, 64, 127
1, 94368, Note_on_c, 0, 68, 0
1, 94368, Note_on_c, 0, 64, 0
1, 94368, Note_on_c, 0, 66, 63
1, 94371, Note_on_c, 0, 69, 63
1, 94496, Note_on_c, 0, 69, 0
1, 94496, Note_on_c, 0, 66, 0
1, 94496, Note_on_c, 0, 68, 64
1, 94499, Note_on_c, 0, 71, 64
1, 94499, Note_on_c, 0, 59, 0
1, 94499, Note_on_c, 0, 64, 0
1, 94502, Note_on_c, 0, 59, 64
1, 94502, Note_on_c, 0, 64, 64
1, 94508, Control_c, 0, 64, 0
1, 94580, Control_c, 0, 64, 127
1, 95018, Note_on_c, 0, 71, 0
1, 95018, Note_on_c, 0, 68, 0
1, 95018, Note_on_c, 0, 68, 58
1, 95021, Note_on_c, 0, 76, 58
1, 95021, Note_on_c, 0, 64, 0
1, 95021, Note_on_c, 0, 59, 0
1, 95024, Note_on_c, 0, 59, 57
1, 95024, Note_on_c, 0, 64, 57
1, 95024, Control_c, 0, 64, 0
1, 95271, Note_on_c, 0, 76, 0
1, 95271, Note_on_c, 0, 68, 0
1, 95271, Note_on_c, 0, 69, 64
1, 95274, Note_on_c, 0, 76, 64
1, 95274, Note_on_c, 0, 64, 0
1, 95274, Note_on_c, 0, 59, 0
1, 95277, Note_on_c, 0, 63, 61
1, 95277, Note_on_c, 0, 59, 61
1, 95295, Control_c, 0, 64, 127
1, 95397, Note_on_c, 0, 76, 0
1, 95397, Note_on_c, 0, 80, 64
1, 95523, Note_on_c, 0, 80, 0
1, 95523, Note_on_c, 0, 69, 0
1, 95523, Note_on_c, 0, 69, 65
1, 95526, Note_on_c, 0, 78, 65
1, 95526, Note_on_c, 0, 59, 0
1, 95526, Note_on_c, 0, 63, 0
1, 95529, Note_on_c, 0, 59, 64
1, 95529, Note_on_c, 0, 63, 64
1, 95532, Control_c, 0, 64, 0
1, 95621, Control_c, 0, 64, 127
1, 96037, Note_on_c, 0, 78, 0
1, 96037, Note_on_c, 0, 69, 0
1, 96037, Note_on_c, 0, 75, 61
1, 96040, Note_on_c, 0, 69, 61
1, 96040, Note_on_c, 0, 63, 0
1, 96040, Note_on_c, 0, 59, 0
1, 96043, Note_on_c, 0, 59, 61
1, 96043, Note_on_c, 0, 66, 61
1, 96047, Control_c, 0, 64, 0
1, 96286, Note_on_c, 0, 69, 0
1, 96286, Note_on_c, 0, 75, 0
1, 96286, Note_on_c, 0, 68, 61
1, 96289, Note_on_c, 0, 76, 61
1, 96289, Note_on_c, 0, 66, 0
1, 96289, Note_on_c, 0, 59, 0
1, 96292, Note_on_c, 0, 64, 63
1, 96292, Note_on_c, 0, 59, 63
1, 96292, Note_on_c, 0, 52, 63
1, 96336, Control_c, 0, 64, 127
1, 96411, Note_on_c, 0, 76, 0
1, 96411, Note_on_c, 0, 68, 0
1, 96411, Note_on_c, 0, 69, 61
1, 96414, Note_on_c, 0, 73, 61
1, 96536, Note_on_c, 0, 73, 0
1, 96536, Note_on_c, 0, 69, 0
1, 96536, Note_on_c, 0, 68, 60
1, 96539, Note_on_c, 0, 71, 60
1, 96539, Note_on_c, 0, 52, 0
1, 96539, Note_on_c, 0, 59, 0
1, 96542, Note_on_c, 0, 64, 0
1, 96542, Note_on_c, 0, 59, 63
1, 96542, Note_on_c, 0, 64, 63
1, 96545, Note_on_c, 0, 52, 63
1, 96545, Control_c, 0, 64, 0
1, 96613, Control_c, 0, 64, 127
1, 97050, Note_on_c, 0, 64, 0
1, 97050, Note_on_c, 0, 59, 0
1, 97050, Note_on_c, 0, 71, 0
1, 97050, Note_on_c, 0, 68, 0
1, 97050, Note_on_c, 0, 59, 57
1, 97050, Note_on_c, 0, 68, 57
1, 97050, Note_on_c, 0, 64, 57
1, 97050, Note_on_c, 0, 52, 0
1, 97050, Note_on_c, 0, 40, 57
1, 97050, Note_on_c, 0, 52, 57
1, 97058, Control_c, 0, 64, 0
1, 97311, Note_on_c, 0, 64, 0
1, 97311, Note_on_c, 0, 68, 0
1, 97311, Note_on_c, 0, 59, 0
1, 97314, Note_on_c, 0, 59, 70
1, 97314, Note_on_c, 0, 64, 70
1, 97314, Note_on_c, 0, 68, 70
1, 97317, Note_on_c, 0, 52, 0
1, 97317, Note_on_c, 0, 40, 0
1, 97317, Note_on_c, 0, 40, 66
1, 97320, Note_on_c, 0, 52, 66
1, 97342, Control_c, 0, 64, 127
1, 97440, Note_on_c, 0, 68, 0
1, 97440, Note_on_c, 0, 69, 70
1, 97569, Note_on_c, 0, 69, 0
1, 97569, Note_on_c, 0, 64, 0
1, 97569, Note_on_c, 0, 59, 0
1, 97572, Note_on_c, 0, 59, 75
1, 97572, Note_on_c, 0, 63, 75
1, 97572, Note_on_c, 0, 66, 75
1, 97575, Note_on_c, 0, 52, 0
1, 97575, Note_on_c, 0, 40, 0
1, 97575, Note_on_c, 0, 35, 71
1, 97578, Note_on_c, 0, 47, 71
1, 97581, Control_c, 0, 64, 0
1, 97663, Control_c, 0, 64, 127
1, 98094, Note_on_c, 0, 66, 0
1, 98094, Note_on_c, 0, 63, 0
1, 98094, Note_on_c, 0, 59, 0
1, 98097, Note_on_c, 0, 59, 65
1, 98097, Note_on_c, 0, 64, 65
1, 98097, Note_on_c, 0, 68, 65
1, 98100, Note_on_c, 0, 47, 0
1, 98100, Note_on_c, 0, 35, 0
1, 98100, Note_on_c, 0, 40, 69
1, 98103, Note_on_c, 0, 52, 69
1, 98103, Control_c, 0, 64, 0
1, 98349, Note_on_c, 0, 68, 0
1, 98349, Note_on_c, 0, 64, 0
1, 98349, Note_on_c, 0, 59, 0
1, 98352, Note_on_c, 0, 59, 72
1, 98352, Note_on_c, 0, 64, 72
1, 98352, Note_on_c, 0, 68, 72
1, 98355, Note_on_c, 0, 52, 0
1, 98355, Note_on_c, 0, 40, 0
1, 98355, Note_on_c, 0, 40, 74
1, 98358, Note_on_c, 0, 52, 74
1, 98401, Control_c, 0, 64, 127
1, 98477, Note_on_c, 0, 68, 0
1, 98477, Note_on_c, 0, 69, 72
1, 98605, Note_on_c, 0, 69, 0
1, 98605, Note_on_c, 0, 64, 0
1, 98605, Note_on_c, 0, 59, 0
1, 98608, Note_on_c, 0, 59, 77
1, 98608, Note_on_c, 0, 63, 77
1, 98608, Note_on_c, 0, 66, 77
1, 98611, Note_on_c, 0, 52, 0
1, 98611, Note_on_c, 0, 40, 0
1, 98611, Note_on_c, 0, 35, 77
1, 98614, Note_on_c, 0, 47, 77
1, 98614, Control_c, 0, 64, 0
1, 98709, Control_c, 0, 64, 127
1, 99127, Note_on_c, 0, 66, 0
1, 99127, Note_on_c, 0, 63, 0
1, 99127, Note_on_c, 0, 59, 0
1, 99130, Note_on_c, 0, 59, 71
1, 99130, Note_on_c, 0, 64, 71
1, 99130, Note_on_c, 0, 68, 71
1, 99133, Note_on_c, 0, 47, 0
1, 99133, Note_on_c, 0, 35, 0
1, 99133, Note_on_c, 0, 40, 74
1, 99136, Note_on_c, 0, 52, 74
1, 99136, Control_c, 0, 64, 0
1, 99388, Note_on_c, 0, 68, 0
1, 99388, Note_on_c, 0, 64, 0
1, 99388, Note_on_c, 0, 59, 0
1, 99391, Note_on_c, 0, 59, 77
1, 99391, Note_on_c, 0, 63, 77
1, 99391, Note_on_c, 0, 66, 77
1, 99394, Note_on_c, 0, 52, 0
1, 99394, Note_on_c, 0, 40, 0
1, 99394, Note_on_c, 0, 35, 79
1, 99397, Note_on_c, 0, 47, 79
1, 99473, Control_c, 0, 64, 127
1, 99534, Note_on_c, 0, 66, 0
1, 99534, Note_on_c, 0, 68, 77
1, 99680, Note_on_c, 0, 68, 0
1, 99680, Note_on_c, 0, 63, 0
1, 99680, Note_on_c, 0, 59, 0
1, 99683, Note_on_c, 0, 56, 82
1, 99683, Note_on_c, 0, 61, 82
1, 99683, Note_on_c, 0, 64, 82
1, 99686, Note_on_c, 0, 47, 0
1, 99686, Note_on_c, 0, 35, 0
1, 99686, Note_on_c, 0, 37, 83
1, 99689, Note_on_c, 0, 49, 83
1, 99695, Control_c, 0, 64, 0
1, 99830, Control_c, 0, 64, 127
1, 100279, Note_on_c, 0, 64, 0
1, 100279, Note_on_c, 0, 61, 0
1, 100279, Note_on_c, 0, 56, 0
1, 100282, Note_on_c, 0, 63, 82
1, 100282, Note_on_c, 0, 49, 0
1, 100282, Note_on_c, 0, 37, 0
1, 100285, Note_on_c, 0, 57, 82
1, 100285, Note_on_c, 0, 54, 71
1, 100285, Note_on_c, 0, 30, 71
1, 100288, Note_on_c, 0, 42, 71
1, 100288, Control_c, 0, 64, 0
1, 100403, Control_c, 0, 64, 127
1, 100429, Note_on_c, 0, 63, 0
1, 100429, Note_on_c, 0, 61, 80
1, 100583, Note_on_c, 0, 61, 0
1, 100583, Note_on_c, 0, 60, 82
1, 100583, Note_on_c, 0, 42, 0
1, 100586, Note_on_c, 0, 57, 0
1, 100586, Note_on_c, 0, 54, 0
1, 100586, Note_on_c, 0, 30, 0
1, 100589, Note_on_c, 0, 54, 82
1, 100589, Note_on_c, 0, 32, 71
1, 100589, Note_on_c, 0, 44, 71
1, 100596, Control_c, 0, 64, 0
1, 100642, Control_c, 0, 64, 127
1, 100739, Note_on_c, 0, 60, 0
1, 100739, Note_on_c, 0, 63, 80
1, 100900, Note_on_c, 0, 63, 0
1, 100900, Note_on_c, 0, 61, 76
1, 100900, Note_on_c, 0, 44, 0
1, 100903, Note_on_c, 0, 32, 0
1, 100903, Note_on_c, 0, 54, 0
1, 100903, Note_on_c, 0, 53, 79
1, 100906, Note_on_c, 0, 37, 68
1, 100906, Note_on_c, 0, 44, 68
1, 100911, Control_c, 0, 64, 0
1, 100989, Control_c, 0, 64, 127
1, 101425, Control_c, 0, 64, 0
1, 101554, Note_on_c, 0, 61, 0
1, 101554, Note_on_c, 0, 44, 0
1, 101554, Note_on_c, 0, 37, 0
1, 101557, Note_on_c, 0, 53, 0
1, 101613, Note_on_c, 0, 65, 50
1, 101613, Note_on_c, 0, 73, 50
1, 101613, Note_on_c, 0, 56, 38
1, 101616, Note_on_c, 0, 61, 38
1, 101946, Note_on_c, 0, 73, 0
1, 101946, Note_on_c, 0, 65, 0
1, 101946, Note_on_c, 0, 66, 52
1, 101949, Note_on_c, 0, 74, 52
1, 101949, Note_on_c, 0, 61, 0
1, 101949, Note_on_c, 0, 56, 0
1, 101952, Note_on_c, 0, 60, 39
1, 101952, Note_on_c, 0, 56, 39
1, 102009, Control_c, 0, 64, 127
1, 102113, Note_on_c, 0, 74, 0
1, 102113, Note_on_c, 0, 77, 52
1, 102279, Note_on_c, 0, 77, 0
1, 102279, Note_on_c, 0, 66, 0
1, 102279, Note_on_c, 0, 66, 50
1, 102282, Note_on_c, 0, 75, 50
1, 102282, Note_on_c, 0, 56, 0
1, 102282, Note_on_c, 0, 60, 0
1, 102285, Note_on_c, 0, 60, 38
1, 102285, Note_on_c, 0, 56, 38
1, 102285, Control_c, 0, 64, 0
1, 102402, Control_c, 0, 64, 127
1, 102886, Note_on_c, 0, 75, 0
1, 102886, Note_on_c, 0, 66, 0
1, 102886, Note_on_c, 0, 63, 44
1, 102889, Note_on_c, 0, 66, 44
1, 102889, Note_on_c, 0, 56, 0
1, 102889, Note_on_c, 0, 60, 0
1, 102892, Note_on_c, 0, 60, 34
1, 102892, Note_on_c, 0, 56, 34
1, 102892, Control_c, 0, 64, 0
1, 103178, Note_on_c, 0, 66, 0
1, 103178, Note_on_c, 0, 63, 0
1, 103178, Note_on_c, 0, 65, 47
1, 103181, Note_on_c, 0, 56, 0
1, 103181, Note_on_c, 0, 60, 0
1, 103181, Note_on_c, 0, 61, 36
1, 103184, Note_on_c, 0, 56, 36
1, 103263, Control_c, 0, 64, 127
1, 103324, Note_on_c, 0, 65, 0
1, 103324, Note_on_c, 0, 63, 47
1, 103324, Note_on_c, 0, 66, 47
1, 103470, Note_on_c, 0, 66, 0
1, 103470, Note_on_c, 0, 63, 0
1, 103470, Note_on_c, 0, 65, 50
1, 103473, Note_on_c, 0, 68, 50
1, 103473, Note_on_c, 0, 56, 0
1, 103473, Note_on_c, 0, 61, 0
1, 103476, Note_on_c, 0, 61, 38
1, 103476, Note_on_c, 0, 56, 38
1, 103482, Control_c, 0, 64, 0
1, 103628, Control_c, 0, 64, 127
1, 104069, Note_on_c, 0, 68, 0
1, 104069, Note_on_c, 0, 65, 0
1, 104069, Note_on_c, 0, 73, 48
1, 104072, Note_on_c, 0, 65, 48
1, 104072, Note_on_c, 0, 56, 0
1, 104072, Note_on_c, 0, 61, 0
1, 104075, Note_on_c, 0, 61, 36
1, 104075, Note_on_c, 0, 56, 36
1, 104082, Control_c, 0, 64, 0
1, 104360, Note_on_c, 0, 65, 0
1, 104360, Note_on_c, 0, 73, 0
1, 104360, Note_on_c, 0, 66, 50
1, 104363, Note_on_c, 0, 74, 50
1, 104363, Note_on_c, 0, 56, 0
1, 104363, Note_on_c, 0, 61, 0
1, 104366, Note_on_c, 0, 60, 38
1, 104366, Note_on_c, 0, 56, 38
1, 104422, Control_c, 0, 64, 127
1, 104506, Note_on_c, 0, 74, 0
1, 104506, Note_on_c, 0, 77, 50
1, 104652, Note_on_c, 0, 77, 0
1, 104652, Note_on_c, 0, 66, 0
1, 104652, Note_on_c, 0, 66, 48
1, 104655, Note_on_c, 0, 75, 48
1, 104655, Note_on_c, 0, 56, 0
1, 104655, Note_on_c, 0, 60, 0
1, 104658, Note_on_c, 0, 60, 35
1, 104658, Note_on_c, 0, 56, 35
1, 104658, Control_c, 0, 64, 0
1, 104775, Control_c, 0, 64, 127
1, 105259, Note_on_c, 0, 75, 0
1, 105259, Note_on_c, 0, 66, 0
1, 105259, Note_on_c, 0, 71, 42
1, 105262, Note_on_c, 0, 77, 42
1, 105262, Note_on_c, 0, 56, 0
1, 105262, Note_on_c, 0, 60, 0
1, 105265, Note_on_c, 0, 62, 35
1, 105265, Note_on_c, 0, 56, 35
1, 105269, Control_c, 0, 64, 0
1, 105608, Note_on_c, 0, 77, 0
1, 105608, Note_on_c, 0, 71, 0
1, 105608, Note_on_c, 0, 72, 45
1, 105611, Note_on_c, 0, 77, 45
1, 105611, Note_on_c, 0, 56, 0
1, 105611, Note_on_c, 0, 62, 0
1, 105614, Note_on_c, 0, 63, 36
1, 105614, Note_on_c, 0, 56, 36
1, 105682, Control_c, 0, 64, 127
1, 105819, Note_on_c, 0, 77, 0
1, 105819, Note_on_c, 0, 80, 45
1, 106031, Note_on_c, 0, 80, 0
1, 106031, Note_on_c, 0, 72, 0
1, 106031, Note_on_c, 0, 72, 42
1, 106034, Note_on_c, 0, 78, 42
1, 106034, Note_on_c, 0, 56, 0
1, 106034, Note_on_c, 0, 63, 0
1, 106037, Note_on_c, 0, 63, 33
1, 106037, Note_on_c, 0, 56, 33
1, 106061, Control_c, 0, 64, 0
1, 106315, Control_c, 0, 64, 127
1, 107957, Note_on_c, 0, 78, 0
1, 107957, Note_on_c, 0, 72, 0
1, 107957, Control_c, 0, 91, 127
1, 107960, Note_on_c, 0, 65, 41
1, 107960, Note_on_c, 0, 56, 0
1, 107960, Note_on_c, 0, 63, 0
1, 107963, Control_c, 0, 64, 0
1, 107963, Note_on_c, 0, 49, 26
1, 107963, Note_on_c, 0, 56, 26
1, 107966, Note_on_c, 0, 61, 26
1, 107966, Control_c, 0, 91, 127
1, 108019, Control_c, 0, 64, 127
1, 108109, Note_on_c, 0, 65, 0
1, 108109, Note_on_c, 0, 68, 41
1, 108273, Note_on_c, 0, 68, 0
1, 108273, Note_on_c, 0, 66, 37
1, 108273, Note_on_c, 0, 70, 39
1, 108276, Note_on_c, 0, 61, 0
1, 108276, Note_on_c, 0, 56, 0
1, 108276, Note_on_c, 0, 49, 0
1, 108279, Note_on_c, 0, 49, 28
1, 108279, Note_on_c, 0, 56, 28
1, 108279, Note_on_c, 0, 61, 28
1, 108282, Control_c, 0, 64, 0
1, 108406, Control_c, 0, 64, 127
1, 108901, Note_on_c, 0, 70, 0
1, 108901, Note_on_c, 0, 66, 0
1, 108901, Note_on_c, 0, 65, 35
1, 108904, Note_on_c, 0, 68, 37
1, 108904, Note_on_c, 0, 61, 0
1, 108904, Note_on_c, 0, 56, 0
1, 108907, Note_on_c, 0, 49, 0
1, 108907, Note_on_c, 0, 49, 25
1, 108907, Note_on_c, 0, 56, 25
1, 108910, Note_on_c, 0, 61, 25
1, 108910, Control_c, 0, 64, 0
1, 109126, Note_on_c, 0, 68, 0
1, 109126, Note_on_c, 0, 65, 0
1, 109126, Note_on_c, 0, 61, 0
1, 109129, Note_on_c, 0, 56, 0
1, 109129, Note_on_c, 0, 49, 0
1, 109201, Note_on_c, 0, 65, 41
1, 109201, Note_on_c, 0, 49, 28
1, 109201, Note_on_c, 0, 56, 28
1, 109204, Note_on_c, 0, 61, 28
1, 109260, Control_c, 0, 64, 127
1, 109346, Note_on_c, 0, 65, 0
1, 109346, Note_on_c, 0, 68, 41
1, 109492, Note_on_c, 0, 68, 0
1, 109492, Note_on_c, 0, 66, 36
1, 109492, Note_on_c, 0, 70, 36
1, 109495, Note_on_c, 0, 73, 38
1, 109495, Note_on_c, 0, 61, 0
1, 109495, Note_on_c, 0, 56, 0
1, 109498, Note_on_c, 0, 49, 0
1, 109498, Note_on_c, 0, 49, 28
1, 109498, Note_on_c, 0, 56, 28
1, 109501, Note_on_c, 0, 61, 28
1, 109504, Control_c, 0, 64, 0
1, 109575, Control_c, 0, 64, 127
1, 110121, Note_on_c, 0, 73, 0
1, 110121, Note_on_c, 0, 70, 0
1, 110121, Note_on_c, 0, 66, 0
1, 110124, Note_on_c, 0, 65, 34
1, 110124, Note_on_c, 0, 68, 36
1, 110124, Note_on_c, 0, 61, 0
1, 110127, Note_on_c, 0, 56, 0
1, 110127, Note_on_c, 0, 49, 0
1, 110127, Note_on_c, 0, 49, 26
1, 110130, Note_on_c, 0, 56, 26
1, 110130, Note_on_c, 0, 61, 26
1, 110133, Control_c, 0, 64, 0
1, 110339, Note_on_c, 0, 68, 0
1, 110339, Note_on_c, 0, 65, 0
1, 110339, Note_on_c, 0, 61, 0
1, 110342, Note_on_c, 0, 56, 0
1, 110342, Note_on_c, 0, 49, 0
1, 110412, Note_on_c, 0, 65, 40
1, 110412, Note_on_c, 0, 68, 43
1, 110412, Note_on_c, 0, 56, 30
1, 110415, Note_on_c, 0, 60, 30
1, 110479, Control_c, 0, 64, 127
1, 110554, Note_on_c, 0, 68, 0
1, 110554, Note_on_c, 0, 65, 0
1, 110554, Note_on_c, 0, 62, 43
1, 110695, Note_on_c, 0, 62, 0
1, 110695, Note_on_c, 0, 63, 41
1, 110695, Note_on_c, 0, 66, 44
1, 110698, Note_on_c, 0, 60, 0
1, 110698, Note_on_c, 0, 56, 0
1, 110698, Note_on_c, 0, 56, 32
1, 110701, Note_on_c, 0, 60, 32
1, 110708, Control_c, 0, 64, 0
1, 110820, Control_c, 0, 64, 127
1, 111278, Note_on_c, 0, 66, 0
1, 111278, Note_on_c, 0, 63, 0
1, 111278, Note_on_c, 0, 66, 39
1, 111281, Note_on_c, 0, 75, 41
1, 111281, Note_on_c, 0, 60, 0
1, 111281, Note_on_c, 0, 56, 0
1, 111284, Note_on_c, 0, 56, 30
1, 111284, Note_on_c, 0, 60, 30
1, 111291, Control_c, 0, 64, 0
1, 111563, Note_on_c, 0, 75, 0
1, 111563, Note_on_c, 0, 66, 0
1, 111563, Note_on_c, 0, 68, 43
1, 111566, Note_on_c, 0, 77, 46
1, 111566, Note_on_c, 0, 60, 0
1, 111566, Note_on_c, 0, 56, 0
1, 111569, Note_on_c, 0, 49, 30
1, 111569, Note_on_c, 0, 56, 30
1, 111569, Note_on_c, 0, 61, 30
1, 111601, Control_c, 0, 64, 127
1, 111705, Note_on_c, 0, 77, 0
1, 111705, Note_on_c, 0, 68, 0
1, 111705, Note_on_c, 0, 66, 40
1, 111708, Note_on_c, 0, 75, 43
1, 111847, Note_on_c, 0, 75, 0
1, 111847, Note_on_c, 0, 66, 0
1, 111847, Note_on_c, 0, 65, 42
1, 111850, Note_on_c, 0, 73, 45
1, 111850, Note_on_c, 0, 61, 0
1, 111850, Note_on_c, 0, 56, 0
1, 111853, Note_on_c, 0, 49, 0
1, 111853, Note_on_c, 0, 49, 31
1, 111853, Note_on_c, 0, 56, 31
1, 111856, Note_on_c, 0, 61, 31
1, 111861, Control_c, 0, 64, 0
1, 111930, Control_c, 0, 64, 127
1, 112442, Note_on_c, 0, 73, 0
1, 112442, Note_on_c, 0, 65, 0
1, 112442, Note_on_c, 0, 65, 37
1, 112445, Note_on_c, 0, 68, 39
1, 112445, Note_on_c, 0, 61, 0
1, 112445, Note_on_c, 0, 56, 0
1, 112448, Note_on_c, 0, 49, 0
1, 112448, Note_on_c, 0, 49, 28
1, 112448, Note_on_c, 0, 56, 28
1, 112451, Note_on_c, 0, 61, 28
1, 112451, Control_c, 0, 64, 0
1, 112661, Note_on_c, 0, 68, 0
1, 112661, Note_on_c, 0, 65, 0
1, 112661, Note_on_c, 0, 61, 0
1, 112664, Note_on_c, 0, 56, 0
1, 112664, Note_on_c, 0, 49, 0
1, 112734, Control_c, 0, 91, 127
1, 112734, Note_on_c, 0, 65, 41
1, 112734, Note_on_c, 0, 49, 28
1, 112737, Note_on_c, 0, 56, 28
1, 112737, Note_on_c, 0, 61, 28
1, 112737, Control_c, 0, 91, 127
1, 112776, Control_c, 0, 64, 127
1, 112880, Note_on_c, 0, 65, 0
1, 112880, Note_on_c, 0, 68, 41
1, 113026, Note_on_c, 0, 68, 0
1, 113026, Note_on_c, 0, 66, 36
1, 113026, Note_on_c, 0, 70, 38
1, 113029, Note_on_c, 0, 61, 0
1, 113029, Note_on_c, 0, 56, 0
1, 113029, Note_on_c, 0, 49, 0
1, 113032, Note_on_c, 0, 49, 29
1, 113032, Note_on_c, 0, 56, 29
1, 113032, Note_on_c, 0, 61, 29
1, 113036, Control_c, 0, 64, 0
1, 113101, Control_c, 0, 64, 127
1, 113629, Note_on_c, 0, 70, 0
1, 113629, Note_on_c, 0, 66, 0
1, 113629, Note_on_c, 0, 65, 36
1, 113632, Note_on_c, 0, 68, 38
1, 113632, Note_on_c, 0, 61, 0
1, 113632, Note_on_c, 0, 56, 0
1, 113635, Note_on_c, 0, 49, 0
1, 113635, Note_on_c, 0, 49, 27
1, 113635, Note_on_c, 0, 56, 27
1, 113638, Note_on_c, 0, 61, 27
1, 113641, Control_c, 0, 64, 0
1, 113848, Note_on_c, 0, 68, 0
1, 113848, Note_on_c, 0, 65, 0
1, 113848, Note_on_c, 0, 61, 0
1, 113851, Note_on_c, 0, 56, 0
1, 113851, Note_on_c, 0, 49, 0
1, 113920, Note_on_c, 0, 65, 41
1, 113920, Note_on_c, 0, 49, 28
1, 113920, Note_on_c, 0, 56, 28
1, 113923, Note_on_c, 0, 61, 28
1, 113968, Control_c, 0, 64, 127
1, 114066, Note_on_c, 0, 65, 0
1, 114066, Note_on_c, 0, 68, 41
1, 114212, Note_on_c, 0, 68, 0
1, 114212, Note_on_c, 0, 66, 37
1, 114212, Note_on_c, 0, 70, 37
1, 114215, Note_on_c, 0, 73, 39
1, 114215, Note_on_c, 0, 61, 0
1, 114215, Note_on_c, 0, 56, 0
1, 114218, Note_on_c, 0, 49, 0
1, 114218, Note_on_c, 0, 49, 28
1, 114218, Note_on_c, 0, 56, 28
1, 114221, Note_on_c, 0, 61, 28
1, 114221, Control_c, 0, 64, 0
1, 114296, Control_c, 0, 64, 127
1, 114811, Note_on_c, 0, 73, 0
1, 114811, Note_on_c, 0, 70, 0
1, 114811, Note_on_c, 0, 66, 0
1, 114814, Note_on_c, 0, 65, 34
1, 114814, Note_on_c, 0, 68, 36
1, 114814, Note_on_c, 0, 61, 0
1, 114817, Note_on_c, 0, 56, 0
1, 114817, Note_on_c, 0, 49, 0
1, 114817, Note_on_c, 0, 49, 27
1, 114820, Note_on_c, 0, 56, 27
1, 114820, Note_on_c, 0, 61, 27
1, 114820, Control_c, 0, 64, 0
1, 115026, Note_on_c, 0, 68, 0
1, 115026, Note_on_c, 0, 65, 0
1, 115026, Note_on_c, 0, 61, 0
1, 115029, Note_on_c, 0, 56, 0
1, 115029, Note_on_c, 0, 49, 0
1, 115097, Note_on_c, 0, 65, 40
1, 115097, Note_on_c, 0, 68, 43
1, 115097, Note_on_c, 0, 56, 30
1, 115100, Note_on_c, 0, 60, 30
1, 115158, Control_c, 0, 64, 127
1, 115240, Note_on_c, 0, 68, 0
1, 115240, Note_on_c, 0, 65, 0
1, 115240, Note_on_c, 0, 62, 43
1, 115384, Note_on_c, 0, 62, 0
1, 115384, Note_on_c, 0, 63, 46
1, 115384, Note_on_c, 0, 66, 49
1, 115387, Note_on_c, 0, 60, 0
1, 115387, Note_on_c, 0, 56, 0
1, 115387, Note_on_c, 0, 56, 32
1, 115390, Note_on_c, 0, 60, 32
1, 115390, Control_c, 0, 64, 0
1, 115512, Control_c, 0, 64, 127
1, 115833, Note_on_c, 0, 66, 0
1, 115833, Note_on_c, 0, 63, 0
1, 115833, Note_on_c, 0, 66, 39
1, 115836, Note_on_c, 0, 75, 41
1, 115971, Note_on_c, 0, 75, 0
1, 115971, Note_on_c, 0, 66, 0
1, 115971, Note_on_c, 0, 68, 40
1, 115974, Note_on_c, 0, 77, 43
1, 115974, Note_on_c, 0, 60, 0
1, 115974, Note_on_c, 0, 56, 0
1, 115977, Note_on_c, 0, 56, 29
1, 115977, Note_on_c, 0, 60, 29
1, 115980, Control_c, 0, 64, 0
1, 116063, Control_c, 0, 64, 127
1, 116108, Note_on_c, 0, 77, 0
1, 116108, Note_on_c, 0, 68, 0
1, 116108, Note_on_c, 0, 66, 39
1, 116111, Note_on_c, 0, 75, 41
1, 116246, Note_on_c, 0, 75, 0
1, 116246, Note_on_c, 0, 66, 0
1, 116246, Note_on_c, 0, 65, 40
1, 116249, Note_on_c, 0, 73, 43
1, 116249, Note_on_c, 0, 60, 0
1, 116249, Note_on_c, 0, 56, 0
1, 116252, Note_on_c, 0, 49, 30
1, 116252, Note_on_c, 0, 56, 30
1, 116252, Note_on_c, 0, 61, 30
1, 116255, Control_c, 0, 64, 0
1, 116376, Control_c, 0, 64, 127
1, 116384, Note_on_c, 0, 73, 0
1, 116384, Note_on_c, 0, 65, 0
1, 116384, Note_on_c, 0, 66, 40
1, 116387, Note_on_c, 0, 75, 43
1, 116522, Note_on_c, 0, 75, 0
1, 116522, Note_on_c, 0, 66, 0
1, 116522, Note_on_c, 0, 65, 42
1, 116525, Note_on_c, 0, 73, 45
1, 116525, Note_on_c, 0, 61, 0
1, 116525, Note_on_c, 0, 56, 0
1, 116528, Note_on_c, 0, 49, 0
1, 116528, Note_on_c, 0, 49, 31
1, 116528, Note_on_c, 0, 56, 31
1, 116531, Note_on_c, 0, 61, 31
1, 116538, Control_c, 0, 64, 0
1, 116717, Control_c, 0, 64, 127
1, 117694, Note_on_c, 0, 73, 0
1, 117694, Note_on_c, 0, 65, 0
1, 117694, Note_on_c, 0, 61, 0
1, 117697, Note_on_c, 0, 56, 0
1, 117697, Note_on_c, 0, 49, 0
1, 117697, Control_c, 0, 64, 0
1, 117700, Note_on_c, 0, 53, 45
1, 117700, Note_on_c, 0, 29, 42
1, 117700, Note_on_c, 0, 41, 42
1, 117793, Control_c, 0, 64, 127
1, 117833, Note_on_c, 0, 53, 0
1, 117833, Note_on_c, 0, 57, 45
1, 117973, Note_on_c, 0, 57, 0
1, 117973, Note_on_c, 0, 41, 0
1, 117973, Note_on_c, 0, 29, 0
1, 117976, Note_on_c, 0, 49, 48
1, 117976, Note_on_c, 0, 53, 48
1, 117976, Note_on_c, 0, 58, 48
1, 117979, Note_on_c, 0, 34, 44
1, 117979, Note_on_c, 0, 41, 44
1, 117979, Control_c, 0, 64, 0
1, 118076, Control_c, 0, 64, 127
1, 118557, Note_on_c, 0, 41, 0
1, 118557, Note_on_c, 0, 58, 0
1, 118557, Note_on_c, 0, 49, 0
1, 118560, Note_on_c, 0, 53, 0
1, 118560, Note_on_c, 0, 34, 0
1, 118560, Note_on_c, 0, 48, 41
1, 118563, Note_on_c, 0, 53, 41
1, 118563, Note_on_c, 0, 57, 41
1, 118563, Note_on_c, 0, 29, 39
1, 118566, Note_on_c, 0, 41, 39
1, 118566, Control_c, 0, 64, 0
1, 118836, Note_on_c, 0, 41, 0
1, 118836, Note_on_c, 0, 57, 0
1, 118836, Note_on_c, 0, 48, 0
1, 118839, Note_on_c, 0, 53, 0
1, 118839, Note_on_c, 0, 29, 0
1, 118839, Note_on_c, 0, 53, 49
1, 118842, Note_on_c, 0, 29, 42
1, 118842, Note_on_c, 0, 41, 42
1, 118902, Control_c, 0, 64, 127
1, 118975, Note_on_c, 0, 53, 0
1, 118975, Note_on_c, 0, 57, 49
1, 119115, Note_on_c, 0, 57, 0
1, 119115, Note_on_c, 0, 41, 0
1, 119115, Note_on_c, 0, 29, 0
1, 119118, Note_on_c, 0, 61, 53
1, 119118, Note_on_c, 0, 58, 53
1, 119118, Note_on_c, 0, 53, 53
1, 119121, Note_on_c, 0, 34, 46
1, 119121, Note_on_c, 0, 41, 46
1, 119121, Control_c, 0, 64, 0
1, 119219, Control_c, 0, 64, 127
1, 119706, Note_on_c, 0, 41, 0
1, 119706, Note_on_c, 0, 53, 0
1, 119706, Note_on_c, 0, 61, 0
1, 119709, Note_on_c, 0, 58, 0
1, 119709, Note_on_c, 0, 34, 0
1, 119709, Note_on_c, 0, 60, 46
1, 119712, Note_on_c, 0, 57, 46
1, 119712, Note_on_c, 0, 53, 46
1, 119712, Note_on_c, 0, 29, 42
1, 119715, Note_on_c, 0, 41, 42
1, 119719, Control_c, 0, 64, 0
1, 119990, Note_on_c, 0, 57, 0
1, 119990, Note_on_c, 0, 60, 0
1, 119990, Note_on_c, 0, 60, 52
1, 119990, Note_on_c, 0, 57, 52
1, 119990, Note_on_c, 0, 29, 0
1, 119990, Note_on_c, 0, 53, 0
1, 119990, Note_on_c, 0, 41, 0
1, 119990, Note_on_c, 0, 29, 46
1, 119990, Note_on_c, 0, 41, 46
1, 120110, Control_c, 0, 64, 127
1, 120169, Note_on_c, 0, 57, 0
1, 120169, Note_on_c, 0, 60, 0
1, 120169, Note_on_c, 0, 66, 52
1, 120346, Note_on_c, 0, 66, 0
1, 120346, Note_on_c, 0, 58, 56
1, 120346, Note_on_c, 0, 61, 56
1, 120349, Note_on_c, 0, 65, 56
1, 120349, Note_on_c, 0, 41, 0
1, 120349, Note_on_c, 0, 29, 0
1, 120352, Note_on_c, 0, 34, 48
1, 120352, Note_on_c, 0, 41, 48
1, 120362, Control_c, 0, 64, 0
1, 120477, Control_c, 0, 64, 127
1, 120997, Note_on_c, 0, 65, 0
1, 120997, Note_on_c, 0, 61, 0
1, 120997, Note_on_c, 0, 58, 0
1, 121000, Note_on_c, 0, 57, 46
1, 121000, Note_on_c, 0, 60, 46
1, 121000, Note_on_c, 0, 65, 46
1, 121003, Note_on_c, 0, 41, 0
1, 121003, Note_on_c, 0, 34, 0
1, 121003, Note_on_c, 0, 29, 43
1, 121006, Note_on_c, 0, 41, 43
1, 121016, Control_c, 0, 64, 0
1, 121148, Control_c, 0, 64, 127
1, 121371, Note_on_c, 0, 65, 0
1, 121371, Note_on_c, 0, 60, 0
1, 121371, Note_on_c, 0, 57, 0
1, 121374, Note_on_c, 0, 56, 35
1, 121374, Note_on_c, 0, 60, 35
1, 121374, Note_on_c, 0, 66, 37
1, 121377, Note_on_c, 0, 41, 0
1, 121377, Note_on_c, 0, 29, 0
1, 121377, Note_on_c, 0, 39, 31
1, 121380, Note_on_c, 0, 44, 31
1, 121383, Control_c, 0, 64, 0
1, 121540, Control_c, 0, 64, 127
1, 121613, Note_on_c, 0, 66, 0
1, 121613, Note_on_c, 0, 68, 37
1, 121854, Note_on_c, 0, 68, 0
1, 121854, Note_on_c, 0, 60, 0
1, 121854, Note_on_c, 0, 56, 0
1, 121857, Note_on_c, 0, 56, 35
1, 121857, Note_on_c, 0, 61, 35
1, 121857, Note_on_c, 0, 65, 37
1, 121860, Note_on_c, 0, 44, 0
1, 121860, Note_on_c, 0, 39, 0
1, 121860, Note_on_c, 0, 37, 31
1, 121863, Note_on_c, 0, 44, 31
1, 121868, Control_c, 0, 64, 0
1, 122023, Control_c, 0, 64, 127
1, 122821, Note_on_c, 0, 68, 57
1, 122821, Note_on_c, 0, 64, 57
1, 122821, Note_on_c, 0, 40, 55
1, 122824, Note_on_c, 0, 52, 55
1, 122836, Control_c, 0, 64, 0
1, 122836, Note_on_c, 0, 59, 57
1, 123090, Note_on_c, 0, 64, 0
1, 123090, Note_on_c, 0, 68, 0
1, 123090, Note_on_c, 0, 65, 0
1, 123093, Note_on_c, 0, 56, 0
1, 123093, Note_on_c, 0, 61, 0
1, 123093, Note_on_c, 0, 59, 57
1, 123096, Note_on_c, 0, 64, 57
1, 123096, Note_on_c, 0, 68, 57
1, 123096, Note_on_c, 0, 52, 0
1, 123099, Note_on_c, 0, 37, 0
1, 123099, Note_on_c, 0, 44, 0
1, 123099, Note_on_c, 0, 40, 0
1, 123102, Note_on_c, 0, 40, 55
1, 123102, Note_on_c, 0, 52, 55
1, 123107, Note_on_c, 0, 59, 0
1, 123153, Control_c, 0, 64, 127
1, 123224, Note_on_c, 0, 68, 0
1, 123224, Note_on_c, 0, 69, 57
1, 123359, Note_on_c, 0, 69, 0
1, 123359, Note_on_c, 0, 64, 0
1, 123359, Note_on_c, 0, 59, 0
1, 123362, Note_on_c, 0, 59, 61
1, 123362, Note_on_c, 0, 63, 61
1, 123362, Note_on_c, 0, 66, 61
1, 123365, Note_on_c, 0, 52, 0
1, 123365, Note_on_c, 0, 40, 0
1, 123365, Note_on_c, 0, 35, 58
1, 123368, Note_on_c, 0, 47, 58
1, 123368, Control_c, 0, 64, 0
1, 123486, Control_c, 0, 64, 127
1, 123913, Note_on_c, 0, 66, 0
1, 123913, Note_on_c, 0, 63, 0
1, 123913, Note_on_c, 0, 59, 0
1, 123916, Note_on_c, 0, 59, 54
1, 123916, Note_on_c, 0, 64, 54
1, 123916, Note_on_c, 0, 68, 54
1, 123919, Note_on_c, 0, 47, 0
1, 123919, Note_on_c, 0, 35, 0
1, 123919, Note_on_c, 0, 40, 56
1, 123922, Note_on_c, 0, 52, 56
1, 123925, Control_c, 0, 64, 0
1, 124176, Note_on_c, 0, 68, 0
1, 124176, Note_on_c, 0, 64, 0
1, 124176, Note_on_c, 0, 59, 0
1, 124179, Note_on_c, 0, 59, 59
1, 124179, Note_on_c, 0, 64, 59
1, 124179, Note_on_c, 0, 68, 59
1, 124182, Note_on_c, 0, 52, 0
1, 124182, Note_on_c, 0, 40, 0
1, 124182, Note_on_c, 0, 40, 60
1, 124185, Note_on_c, 0, 52, 60
1, 124218, Control_c, 0, 64, 127
1, 124307, Note_on_c, 0, 68, 0
1, 124307, Note_on_c, 0, 69, 59
1, 124439, Note_on_c, 0, 69, 0
1, 124439, Note_on_c, 0, 64, 0
1, 124439, Note_on_c, 0, 59, 0
1, 124442, Note_on_c, 0, 59, 63
1, 124442, Note_on_c, 0, 63, 63
1, 124442, Note_on_c, 0, 66, 63
1, 124445, Note_on_c, 0, 52, 0
1, 124445, Note_on_c, 0, 40, 0
1, 124445, Note_on_c, 0, 35, 63
1, 124448, Note_on_c, 0, 47, 63
1, 124448, Control_c, 0, 64, 0
1, 124525, Control_c, 0, 64, 127
1, 124977, Note_on_c, 0, 66, 0
1, 124977, Note_on_c, 0, 63, 0
1, 124977, Note_on_c, 0, 59, 0
1, 124980, Note_on_c, 0, 59, 58
1, 124980, Note_on_c, 0, 64, 58
1, 124980, Note_on_c, 0, 68, 58
1, 124983, Note_on_c, 0, 47, 0
1, 124983, Note_on_c, 0, 35, 0
1, 124983, Note_on_c, 0, 40, 60
1, 124986, Note_on_c, 0, 52, 60
1, 124986, Control_c, 0, 64, 0
1, 125234, Note_on_c, 0, 68, 0
1, 125234, Note_on_c, 0, 64, 0
1, 125234, Note_on_c, 0, 59, 0
1, 125237, Note_on_c, 0, 59, 63
1, 125237, Note_on_c, 0, 63, 63
1, 125237, Note_on_c, 0, 66, 63
1, 125240, Note_on_c, 0, 52, 0
1, 125240, Note_on_c, 0, 40, 0
1, 125240, Note_on_c, 0, 35, 64
1, 125243, Note_on_c, 0, 47, 64
1, 125308, Control_c, 0, 64, 127
1, 125362, Note_on_c, 0, 66, 0
1, 125362, Note_on_c, 0, 68, 63
1, 125490, Note_on_c, 0, 68, 0
1, 125490, Note_on_c, 0, 63, 0
1, 125490, Note_on_c, 0, 59, 0
1, 125493, Note_on_c, 0, 56, 66
1, 125493, Note_on_c, 0, 61, 66
1, 125493, Note_on_c, 0, 64, 66
1, 125496, Note_on_c, 0, 47, 0
1, 125496, Note_on_c, 0, 35, 0
1, 125496, Note_on_c, 0, 37, 68
1, 125499, Note_on_c, 0, 49, 68
1, 125499, Control_c, 0, 64, 0
1, 125616, Control_c, 0, 64, 127
1, 126025, Note_on_c, 0, 64, 0
1, 126025, Note_on_c, 0, 61, 0
1, 126025, Note_on_c, 0, 56, 0
1, 126028, Note_on_c, 0, 57, 70
1, 126028, Note_on_c, 0, 61, 70
1, 126028, Note_on_c, 0, 66, 70
1, 126031, Note_on_c, 0, 49, 0
1, 126031, Note_on_c, 0, 37, 0
1, 126031, Note_on_c, 0, 33, 70
1, 126034, Note_on_c, 0, 45, 70
1, 126034, Control_c, 0, 64, 0
1, 126280, Note_on_c, 0, 66, 0
1, 126280, Note_on_c, 0, 61, 0
1, 126280, Note_on_c, 0, 57, 0
1, 126283, Note_on_c, 0, 57, 66
1, 126283, Note_on_c, 0, 63, 66
1, 126283, Note_on_c, 0, 45, 0
1, 126286, Note_on_c, 0, 33, 0
1, 126286, Note_on_c, 0, 35, 67
1, 126286, Note_on_c, 0, 47, 67
1, 126330, Control_c, 0, 64, 127
1, 126410, Note_on_c, 0, 63, 0
1, 126410, Note_on_c, 0, 66, 66
1, 126540, Note_on_c, 0, 66, 0
1, 126540, Note_on_c, 0, 57, 0
1, 126540, Note_on_c, 0, 56, 62
1, 126543, Note_on_c, 0, 64, 62
1, 126543, Note_on_c, 0, 47, 0
1, 126543, Note_on_c, 0, 35, 0
1, 126546, Note_on_c, 0, 40, 64
1, 126546, Note_on_c, 0, 47, 64
1, 126551, Control_c, 0, 64, 0
1, 126616, Control_c, 0, 64, 127
1, 126965, Control_c, 0, 64, 0
1, 127036, Note_on_c, 0, 64, 0
1, 127036, Note_on_c, 0, 56, 0
1, 127036, Note_on_c, 0, 47, 0
1, 127039, Note_on_c, 0, 40, 0
1, 127081, Note_on_c, 0, 68, 55
1, 127081, Note_on_c, 0, 76, 55
1, 127081, Note_on_c, 0, 59, 55
1, 127335, Note_on_c, 0, 76, 0
1, 127335, Note_on_c, 0, 68, 0
1, 127335, Note_on_c, 0, 69, 58
1, 127338, Note_on_c, 0, 76, 58
1, 127338, Note_on_c, 0, 59, 0
1, 127338, Note_on_c, 0, 63, 49
1, 127341, Note_on_c, 0, 59, 49
1, 127402, Control_c, 0, 64, 127
1, 127462, Note_on_c, 0, 76, 0
1, 127462, Note_on_c, 0, 80, 58
1, 127589, Note_on_c, 0, 80, 0
1, 127589, Note_on_c, 0, 69, 0
1, 127589, Note_on_c, 0, 69, 61
1, 127592, Note_on_c, 0, 78, 61
1, 127592, Note_on_c, 0, 59, 0
1, 127592, Note_on_c, 0, 63, 0
1, 127595, Note_on_c, 0, 59, 58
1, 127595, Note_on_c, 0, 63, 58
1, 127601, Control_c, 0, 64, 0
1, 127664, Control_c, 0, 64, 127
1, 128118, Note_on_c, 0, 78, 0
1, 128118, Note_on_c, 0, 69, 0
1, 128118, Note_on_c, 0, 66, 57
1, 128121, Note_on_c, 0, 69, 57
1, 128121, Note_on_c, 0, 63, 0
1, 128121, Note_on_c, 0, 59, 0
1, 128124, Note_on_c, 0, 59, 58
1, 128124, Note_on_c, 0, 63, 58
1, 128129, Control_c, 0, 64, 0
1, 128369, Note_on_c, 0, 69, 0
1, 128369, Note_on_c, 0, 66, 0
1, 128369, Note_on_c, 0, 68, 63
1, 128372, Note_on_c, 0, 63, 0
1, 128372, Note_on_c, 0, 59, 0
1, 128372, Note_on_c, 0, 64, 63
1, 128375, Note_on_c, 0, 59, 63
1, 128414, Control_c, 0, 64, 127
1, 128494, Note_on_c, 0, 68, 0
1, 128494, Note_on_c, 0, 66, 63
1, 128494, Note_on_c, 0, 69, 63
1, 128620, Note_on_c, 0, 69, 0
1, 128620, Note_on_c, 0, 66, 0
1, 128620, Note_on_c, 0, 68, 64
1, 128623, Note_on_c, 0, 71, 64
1, 128623, Note_on_c, 0, 59, 0
1, 128623, Note_on_c, 0, 64, 0
1, 128626, Note_on_c, 0, 59, 64
1, 128626, Note_on_c, 0, 64, 64
1, 128629, Control_c, 0, 64, 0
1, 128706, Control_c, 0, 64, 127
1, 129133, Note_on_c, 0, 71, 0
1, 129133, Note_on_c, 0, 68, 0
1, 129133, Note_on_c, 0, 68, 58
1, 129136, Note_on_c, 0, 76, 58
1, 129136, Note_on_c, 0, 64, 0
1, 129136, Note_on_c, 0, 59, 0
1, 129139, Note_on_c, 0, 59, 57
1, 129139, Note_on_c, 0, 64, 57
1, 129139, Control_c, 0, 64, 0
1, 129379, Note_on_c, 0, 76, 0
1, 129379, Note_on_c, 0, 68, 0
1, 129379, Note_on_c, 0, 69, 64
1, 129382, Note_on_c, 0, 76, 64
1, 129382, Note_on_c, 0, 64, 0
1, 129382, Note_on_c, 0, 59, 0
1, 129385, Note_on_c, 0, 63, 61
1, 129385, Note_on_c, 0, 59, 61
1, 129425, Control_c, 0, 64, 127
1, 129501, Note_on_c, 0, 76, 0
1, 129501, Note_on_c, 0, 80, 64
1, 129624, Note_on_c, 0, 80, 0
1, 129624, Note_on_c, 0, 69, 0
1, 129624, Note_on_c, 0, 69, 65
1, 129627, Note_on_c, 0, 78, 65
1, 129627, Note_on_c, 0, 59, 0
1, 129627, Note_on_c, 0, 63, 0
1, 129630, Note_on_c, 0, 59, 64
1, 129630, Note_on_c, 0, 63, 64
1, 129630, Control_c, 0, 64, 0
1, 129694, Control_c, 0, 64, 127
1, 130121, Note_on_c, 0, 78, 0
1, 130121, Note_on_c, 0, 69, 0
1, 130121, Note_on_c, 0, 75, 61
1, 130124, Note_on_c, 0, 69, 61
1, 130124, Note_on_c, 0, 63, 0
1, 130124, Note_on_c, 0, 59, 0
1, 130127, Note_on_c, 0, 59, 61
1, 130127, Note_on_c, 0, 66, 61
1, 130127, Control_c, 0, 64, 0
1, 130365, Note_on_c, 0, 69, 0
1, 130365, Note_on_c, 0, 75, 0
1, 130365, Note_on_c, 0, 68, 61
1, 130368, Note_on_c, 0, 76, 61
1, 130368, Note_on_c, 0, 66, 0
1, 130368, Note_on_c, 0, 59, 0
1, 130371, Note_on_c, 0, 64, 63
1, 130371, Note_on_c, 0, 59, 63
1, 130371, Note_on_c, 0, 52, 63
1, 130419, Control_c, 0, 64, 127
1, 130487, Note_on_c, 0, 76, 0
1, 130487, Note_on_c, 0, 68, 0
1, 130487, Note_on_c, 0, 69, 61
1, 130490, Note_on_c, 0, 73, 61
1, 130609, Note_on_c, 0, 73, 0
1, 130609, Note_on_c, 0, 69, 0
1, 130609, Note_on_c, 0, 68, 60
1, 130612, Note_on_c, 0, 71, 60
1, 130612, Note_on_c, 0, 52, 0
1, 130612, Note_on_c, 0, 59, 0
1, 130615, Note_on_c, 0, 64, 0
1, 130615, Note_on_c, 0, 59, 63
1, 130615, Note_on_c, 0, 64, 63
1, 130618, Note_on_c, 0, 52, 63
1, 130622, Control_c, 0, 64, 0
1, 130686, Control_c, 0, 64, 127
1, 131123, Note_on_c, 0, 64, 0
1, 131123, Note_on_c, 0, 59, 0
1, 131123, Note_on_c, 0, 71, 0
1, 131123, Note_on_c, 0, 68, 0
1, 131123, Note_on_c, 0, 59, 57
1, 131123, Note_on_c, 0, 68, 57
1, 131123, Note_on_c, 0, 64, 57
1, 131123, Note_on_c, 0, 52, 0
1, 131123, Note_on_c, 0, 40, 57
1, 131123, Note_on_c, 0, 52, 57
1, 131131, Control_c, 0, 64, 0
1, 131383, Note_on_c, 0, 64, 0
1, 131383, Note_on_c, 0, 68, 0
1, 131383, Note_on_c, 0, 59, 0
1, 131386, Note_on_c, 0, 59, 77
1, 131386, Note_on_c, 0, 64, 77
1, 131386, Note_on_c, 0, 68, 77
1, 131389, Note_on_c, 0, 52, 0
1, 131389, Note_on_c, 0, 40, 0
1, 131389, Note_on_c, 0, 40, 73
1, 131392, Note_on_c, 0, 52, 73
1, 131450, Control_c, 0, 64, 127
1, 131513, Note_on_c, 0, 68, 0
1, 131513, Note_on_c, 0, 69, 77
1, 131642, Note_on_c, 0, 69, 0
1, 131642, Note_on_c, 0, 64, 0
1, 131642, Note_on_c, 0, 59, 0
1, 131645, Note_on_c, 0, 59, 83
1, 131645, Note_on_c, 0, 63, 83
1, 131645, Note_on_c, 0, 66, 83
1, 131648, Note_on_c, 0, 52, 0
1, 131648, Note_on_c, 0, 40, 0
1, 131648, Note_on_c, 0, 35, 78
1, 131651, Note_on_c, 0, 47, 78
1, 131651, Control_c, 0, 64, 0
1, 131747, Control_c, 0, 64, 127
1, 132167, Note_on_c, 0, 66, 0
1, 132167, Note_on_c, 0, 63, 0
1, 132167, Note_on_c, 0, 59, 0
1, 132170, Note_on_c, 0, 59, 72
1, 132170, Note_on_c, 0, 64, 72
1, 132170, Note_on_c, 0, 68, 72
1, 132173, Note_on_c, 0, 47, 0
1, 132173, Note_on_c, 0, 35, 0
1, 132173, Note_on_c, 0, 40, 76
1, 132176, Note_on_c, 0, 52, 76
1, 132176, Control_c, 0, 64, 0
1, 132422, Note_on_c, 0, 68, 0
1, 132422, Note_on_c, 0, 64, 0
1, 132422, Note_on_c, 0, 59, 0
1, 132425, Note_on_c, 0, 59, 79
1, 132425, Note_on_c, 0, 64, 79
1, 132425, Note_on_c, 0, 68, 79
1, 132428, Note_on_c, 0, 52, 0
1, 132428, Note_on_c, 0, 40, 0
1, 132428, Note_on_c, 0, 40, 82
1, 132431, Note_on_c, 0, 52, 82
1, 132473, Control_c, 0, 64, 127
1, 132550, Note_on_c, 0, 68, 0
1, 132550, Note_on_c, 0, 69, 79
1, 132678, Note_on_c, 0, 69, 0
1, 132678, Note_on_c, 0, 64, 0
1, 132678, Note_on_c, 0, 59, 0
1, 132681, Note_on_c, 0, 59, 85
1, 132681, Note_on_c, 0, 63, 85
1, 132681, Note_on_c, 0, 66, 85
1, 132684, Note_on_c, 0, 52, 0
1, 132684, Note_on_c, 0, 40, 0
1, 132684, Note_on_c, 0, 35, 85
1, 132687, Note_on_c, 0, 47, 85
1, 132687, Control_c, 0, 64, 0
1, 132782, Control_c, 0, 64, 127
1, 133200, Note_on_c, 0, 66, 0
1, 133200, Note_on_c, 0, 63, 0
1, 133200, Note_on_c, 0, 59, 0
1, 133203, Note_on_c, 0, 59, 78
1, 133203, Note_on_c, 0, 64, 78
1, 133203, Note_on_c, 0, 68, 78
1, 133206, Note_on_c, 0, 47, 0
1, 133206, Note_on_c, 0, 35, 0
1, 133206, Note_on_c, 0, 40, 82
1, 133209, Note_on_c, 0, 52, 82
1, 133212, Control_c, 0, 64, 0
1, 133461, Note_on_c, 0, 68, 0
1, 133461, Note_on_c, 0, 64, 0
1, 133461, Note_on_c, 0, 59, 0
1, 133464, Note_on_c, 0, 59, 85
1, 133464, Note_on_c, 0, 63, 85
1, 133464, Note_on_c, 0, 66, 85
1, 133467, Note_on_c, 0, 52, 0
1, 133467, Note_on_c, 0, 40, 0
1, 133467, Note_on_c, 0, 35, 87
1, 133470, Note_on_c, 0, 47, 87
1, 133546, Control_c, 0, 64, 127
1, 133607, Note_on_c, 0, 66, 0
1, 133607, Note_on_c, 0, 68, 85
1, 133753, Note_on_c, 0, 68, 0
1, 133753, Note_on_c, 0, 63, 0
1, 133753, Note_on_c, 0, 59, 0
1, 133756, Note_on_c, 0, 56, 90
1, 133756, Note_on_c, 0, 61, 90
1, 133756, Note_on_c, 0, 64, 90
1, 133759, Note_on_c, 0, 47, 0
1, 133759, Note_on_c, 0, 35, 0
1, 133759, Note_on_c, 0, 37, 92
1, 133762, Note_on_c, 0, 49, 92
1, 133767, Control_c, 0, 64, 0
1, 134353, Note_on_c, 0, 64, 0
1, 134353, Note_on_c, 0, 61, 0
1, 134353, Note_on_c, 0, 56, 0
1, 134356, Note_on_c, 0, 63, 91
1, 134356, Note_on_c, 0, 49, 0
1, 134356, Note_on_c, 0, 37, 0
1, 134359, Note_on_c, 0, 57, 95
1, 134359, Note_on_c, 0, 54, 78
1, 134359, Note_on_c, 0, 30, 78
1, 134362, Note_on_c, 0, 42, 78
1, 134462, Control_c, 0, 64, 127
1, 134509, Note_on_c, 0, 63, 0
1, 134509, Note_on_c, 0, 61, 88
1, 134668, Note_on_c, 0, 61, 0
1, 134668, Note_on_c, 0, 60, 90
1, 134668, Note_on_c, 0, 42, 0
1, 134671, Note_on_c, 0, 57, 0
1, 134671, Note_on_c, 0, 54, 0
1, 134671, Note_on_c, 0, 30, 0
1, 134674, Note_on_c, 0, 54, 95
1, 134674, Note_on_c, 0, 32, 78
1, 134674, Note_on_c, 0, 44, 78
1, 134678, Control_c, 0, 64, 0
1, 134762, Control_c, 0, 64, 127
1, 134831, Note_on_c, 0, 60, 0
1, 134831, Note_on_c, 0, 63, 88
1, 134996, Note_on_c, 0, 63, 0
1, 134996, Note_on_c, 0, 61, 84
1, 134996, Note_on_c, 0, 44, 0
1, 134999, Note_on_c, 0, 32, 0
1, 134999, Note_on_c, 0, 54, 0
1, 134999, Note_on_c, 0, 53, 95
1, 135002, Note_on_c, 0, 37, 75
1, 135002, Note_on_c, 0, 44, 75
1, 135002, Control_c, 0, 64, 0
1, 135075, Control_c, 0, 64, 127
1, 135685, Control_c, 0, 64, 0
1, 135706, Note_on_c, 0, 61, 0
1, 135706, Note_on_c, 0, 44, 0
1, 135706, Note_on_c, 0, 37, 0
1, 135709, Note_on_c, 0, 53, 0
1, 135771, Note_on_c, 0, 65, 50
1, 135771, Note_on_c, 0, 73, 50
1, 135771, Note_on_c, 0, 56, 38
1, 135774, Note_on_c, 0, 61, 38
1, 136111, Note_on_c, 0, 73, 0
1, 136111, Note_on_c, 0, 65, 0
1, 136111, Note_on_c, 0, 66, 52
1, 136114, Note_on_c, 0, 74, 52
1, 136114, Note_on_c, 0, 61, 0
1, 136114, Note_on_c, 0, 56, 0
1, 136117, Note_on_c, 0, 60, 39
1, 136117, Note_on_c, 0, 56, 39
1, 136208, Control_c, 0, 64, 127
1, 136281, Note_on_c, 0, 74, 0
1, 136281, Note_on_c, 0, 77, 52
1, 136452, Note_on_c, 0, 77, 0
1, 136452, Note_on_c, 0, 66, 0
1, 136452, Note_on_c, 0, 66, 50
1, 136455, Note_on_c, 0, 75, 50
1, 136455, Note_on_c, 0, 56, 0
1, 136455, Note_on_c, 0, 60, 0
1, 136458, Note_on_c, 0, 60, 38
1, 136458, Note_on_c, 0, 56, 38
1, 136458, Control_c, 0, 64, 0
1, 136567, Control_c, 0, 64, 127
1, 137059, Note_on_c, 0, 75, 0
1, 137059, Note_on_c, 0, 66, 0
1, 137059, Note_on_c, 0, 63, 44
1, 137062, Note_on_c, 0, 66, 44
1, 137062, Note_on_c, 0, 56, 0
1, 137062, Note_on_c, 0, 60, 0
1, 137065, Note_on_c, 0, 60, 34
1, 137065, Note_on_c, 0, 56, 34
1, 137065, Control_c, 0, 64, 0
1, 137351, Note_on_c, 0, 66, 0
1, 137351, Note_on_c, 0, 63, 0
1, 137351, Note_on_c, 0, 65, 47
1, 137354, Note_on_c, 0, 56, 0
1, 137354, Note_on_c, 0, 60, 0
1, 137354, Note_on_c, 0, 61, 36
1, 137357, Note_on_c, 0, 56, 36
1, 137427, Control_c, 0, 64, 127
1, 137496, Note_on_c, 0, 65, 0
1, 137496, Note_on_c, 0, 63, 47
1, 137496, Note_on_c, 0, 66, 47
1, 137642, Note_on_c, 0, 66, 0
1, 137642, Note_on_c, 0, 63, 0
1, 137642, Note_on_c, 0, 65, 50
1, 137645, Note_on_c, 0, 68, 50
1, 137645, Note_on_c, 0, 56, 0
1, 137645, Note_on_c, 0, 61, 0
1, 137648, Note_on_c, 0, 61, 38
1, 137648, Note_on_c, 0, 56, 38
1, 137651, Control_c, 0, 64, 0
1, 137775, Control_c, 0, 64, 127
1, 138241, Note_on_c, 0, 68, 0
1, 138241, Note_on_c, 0, 65, 0
1, 138241, Note_on_c, 0, 73, 48
1, 138244, Note_on_c, 0, 65, 48
1, 138244, Note_on_c, 0, 56, 0
1, 138244, Note_on_c, 0, 61, 0
1, 138247, Note_on_c, 0, 61, 36
1, 138247, Note_on_c, 0, 56, 36
1, 138250, Control_c, 0, 64, 0
1, 138533, Note_on_c, 0, 65, 0
1, 138533, Note_on_c, 0, 73, 0
1, 138533, Note_on_c, 0, 66, 50
1, 138536, Note_on_c, 0, 74, 50
1, 138536, Note_on_c, 0, 56, 0
1, 138536, Note_on_c, 0, 61, 0
1, 138539, Note_on_c, 0, 60, 38
1, 138539, Note_on_c, 0, 56, 38
1, 138574, Control_c, 0, 64, 127
1, 138679, Note_on_c, 0, 74, 0
1, 138679, Note_on_c, 0, 77, 50
1, 138825, Note_on_c, 0, 77, 0
1, 138825, Note_on_c, 0, 66, 0
1, 138825, Note_on_c, 0, 66, 48
1, 138828, Note_on_c, 0, 75, 48
1, 138828, Note_on_c, 0, 56, 0
1, 138828, Note_on_c, 0, 60, 0
1, 138831, Note_on_c, 0, 60, 35
1, 138831, Note_on_c, 0, 56, 35
1, 138831, Control_c, 0, 64, 0
1, 138932, Control_c, 0, 64, 127
1, 139432, Note_on_c, 0, 75, 0
1, 139432, Note_on_c, 0, 66, 0
1, 139432, Note_on_c, 0, 71, 42
1, 139435, Note_on_c, 0, 77, 42
1, 139435, Note_on_c, 0, 56, 0
1, 139435, Note_on_c, 0, 60, 0
1, 139438, Note_on_c, 0, 62, 35
1, 139438, Note_on_c, 0, 56, 35
1, 139438, Control_c, 0, 64, 0
1, 139800, Note_on_c, 0, 77, 0
1, 139800, Note_on_c, 0, 71, 0
1, 139800, Note_on_c, 0, 72, 45
1, 139803, Note_on_c, 0, 77, 45
1, 139803, Note_on_c, 0, 56, 0
1, 139803, Note_on_c, 0, 62, 0
1, 139806, Note_on_c, 0, 63, 36
1, 139806, Note_on_c, 0, 56, 36
1, 139887, Control_c, 0, 64, 127
1, 140012, Note_on_c, 0, 77, 0
1, 140012, Note_on_c, 0, 80, 45
1, 140224, Note_on_c, 0, 80, 0
1, 140224, Note_on_c, 0, 72, 0
1, 140224, Note_on_c, 0, 72, 42
1, 140227, Note_on_c, 0, 78, 42
1, 140227, Note_on_c, 0, 56, 0
1, 140227, Note_on_c, 0, 63, 0
1, 140230, Note_on_c, 0, 63, 33
1, 140230, Note_on_c, 0, 56, 33
1, 140251, Control_c, 0, 64, 0
1, 140601, Control_c, 0, 64, 127
1, 142150, Note_on_c, 0, 78, 0
1, 142150, Note_on_c, 0, 72, 0
1, 142150, Control_c, 0, 91, 127
1, 142153, Note_on_c, 0, 65, 41
1, 142153, Note_on_c, 0, 56, 0
1, 142153, Note_on_c, 0, 63, 0
1, 142156, Control_c, 0, 64, 0
1, 142156, Note_on_c, 0, 49, 26
1, 142156, Note_on_c, 0, 56, 26
1, 142159, Note_on_c, 0, 61, 26
1, 142159, Control_c, 0, 91, 127
1, 142212, Control_c, 0, 64, 127
1, 142301, Note_on_c, 0, 65, 0
1, 142301, Note_on_c, 0, 68, 41
1, 142456, Note_on_c, 0, 68, 0
1, 142456, Note_on_c, 0, 66, 36
1, 142456, Note_on_c, 0, 70, 38
1, 142459, Note_on_c, 0, 61, 0
1, 142459, Note_on_c, 0, 56, 0
1, 142459, Note_on_c, 0, 49, 0
1, 142462, Note_on_c, 0, 49, 28
1, 142462, Note_on_c, 0, 56, 28
1, 142462, Note_on_c, 0, 61, 28
1, 142462, Control_c, 0, 64, 0
1, 142516, Control_c, 0, 64, 127
1, 143085, Note_on_c, 0, 70, 0
1, 143085, Note_on_c, 0, 66, 0
1, 143085, Note_on_c, 0, 65, 35
1, 143088, Note_on_c, 0, 68, 37
1, 143088, Note_on_c, 0, 61, 0
1, 143088, Note_on_c, 0, 56, 0
1, 143091, Note_on_c, 0, 49, 0
1, 143091, Note_on_c, 0, 49, 25
1, 143091, Note_on_c, 0, 56, 25
1, 143094, Note_on_c, 0, 61, 25
1, 143094, Control_c, 0, 64, 0
1, 143309, Note_on_c, 0, 68, 0
1, 143309, Note_on_c, 0, 65, 0
1, 143309, Note_on_c, 0, 61, 0
1, 143312, Note_on_c, 0, 56, 0
1, 143312, Note_on_c, 0, 49, 0
1, 143384, Note_on_c, 0, 65, 41
1, 143384, Note_on_c, 0, 49, 28
1, 143384, Note_on_c, 0, 56, 28
1, 143387, Note_on_c, 0, 61, 28
1, 143427, Control_c, 0, 64, 127
1, 143530, Note_on_c, 0, 65, 0
1, 143530, Note_on_c, 0, 68, 41
1, 143676, Note_on_c, 0, 68, 0
1, 143676, Note_on_c, 0, 66, 38
1, 143676, Note_on_c, 0, 70, 38
1, 143679, Note_on_c, 0, 73, 40
1, 143679, Note_on_c, 0, 61, 0
1, 143679, Note_on_c, 0, 56, 0
1, 143682, Note_on_c, 0, 49, 0
1, 143682, Note_on_c, 0, 49, 28
1, 143682, Note_on_c, 0, 56, 28
1, 143685, Note_on_c, 0, 61, 28
1, 143685, Control_c, 0, 64, 0
1, 143740, Control_c, 0, 64, 127
1, 144304, Note_on_c, 0, 73, 0
1, 144304, Note_on_c, 0, 70, 0
1, 144304, Note_on_c, 0, 66, 0
1, 144307, Note_on_c, 0, 65, 34
1, 144307, Note_on_c, 0, 68, 36
1, 144307, Note_on_c, 0, 61, 0
1, 144310, Note_on_c, 0, 56, 0
1, 144310, Note_on_c, 0, 49, 0
1, 144310, Note_on_c, 0, 49, 26
1, 144313, Note_on_c, 0, 56, 26
1, 144313, Note_on_c, 0, 61, 26
1, 144313, Control_c, 0, 64, 0
1, 144517, Note_on_c, 0, 68, 0
1, 144517, Note_on_c, 0, 65, 0
1, 144517, Note_on_c, 0, 61, 0
1, 144520, Note_on_c, 0, 56, 0
1, 144520, Note_on_c, 0, 49, 0
1, 144589, Note_on_c, 0, 65, 40
1, 144589, Note_on_c, 0, 68, 43
1, 144589, Note_on_c, 0, 56, 30
1, 144592, Note_on_c, 0, 60, 30
1, 144643, Control_c, 0, 64, 127
1, 144734, Note_on_c, 0, 68, 0
1, 144734, Note_on_c, 0, 65, 0
1, 144734, Note_on_c, 0, 62, 43
1, 144880, Note_on_c, 0, 62, 0
1, 144880, Note_on_c, 0, 63, 41
1, 144880, Note_on_c, 0, 66, 44
1, 144883, Note_on_c, 0, 60, 0
1, 144883, Note_on_c, 0, 56, 0
1, 144883, Note_on_c, 0, 56, 32
1, 144886, Note_on_c, 0, 60, 32
1, 144886, Control_c, 0, 64, 0
1, 145012, Control_c, 0, 64, 127
1, 145464, Note_on_c, 0, 66, 0
1, 145464, Note_on_c, 0, 63, 0
1, 145464, Note_on_c, 0, 66, 39
1, 145467, Note_on_c, 0, 75, 41
1, 145467, Note_on_c, 0, 60, 0
1, 145467, Note_on_c, 0, 56, 0
1, 145470, Note_on_c, 0, 56, 30
1, 145470, Note_on_c, 0, 60, 30
1, 145470, Control_c, 0, 64, 0
1, 145748, Note_on_c, 0, 75, 0
1, 145748, Note_on_c, 0, 66, 0
1, 145748, Note_on_c, 0, 68, 43
1, 145751, Note_on_c, 0, 77, 46
1, 145751, Note_on_c, 0, 60, 0
1, 145751, Note_on_c, 0, 56, 0
1, 145754, Note_on_c, 0, 49, 30
1, 145754, Note_on_c, 0, 56, 30
1, 145754, Note_on_c, 0, 61, 30
1, 145793, Control_c, 0, 64, 127
1, 145887, Note_on_c, 0, 77, 0
1, 145887, Note_on_c, 0, 68, 0
1, 145887, Note_on_c, 0, 66, 40
1, 145890, Note_on_c, 0, 75, 43
1, 146025, Note_on_c, 0, 75, 0
1, 146025, Note_on_c, 0, 66, 0
1, 146025, Note_on_c, 0, 65, 42
1, 146028, Note_on_c, 0, 73, 45
1, 146028, Note_on_c, 0, 61, 0
1, 146028, Note_on_c, 0, 56, 0
1, 146031, Note_on_c, 0, 49, 0
1, 146031, Note_on_c, 0, 49, 31
1, 146031, Note_on_c, 0, 56, 31
1, 146034, Note_on_c, 0, 61, 31
1, 146038, Control_c, 0, 64, 0
1, 146117, Control_c, 0, 64, 127
1, 146621, Note_on_c, 0, 73, 0
1, 146621, Note_on_c, 0, 65, 0
1, 146621, Note_on_c, 0, 65, 37
1, 146624, Note_on_c, 0, 68, 39
1, 146624, Note_on_c, 0, 61, 0
1, 146624, Note_on_c, 0, 56, 0
1, 146627, Note_on_c, 0, 49, 0
1, 146627, Note_on_c, 0, 49, 28
1, 146627, Note_on_c, 0, 56, 28
1, 146630, Note_on_c, 0, 61, 28
1, 146633, Control_c, 0, 64, 0
1, 146839, Note_on_c, 0, 68, 0
1, 146839, Note_on_c, 0, 65, 0
1, 146839, Note_on_c, 0, 61, 0
1, 146842, Note_on_c, 0, 56, 0
1, 146842, Note_on_c, 0, 49, 0
1, 146912, Control_c, 0, 91, 127
1, 146912, Note_on_c, 0, 65, 41
1, 146912, Note_on_c, 0, 49, 28
1, 146915, Note_on_c, 0, 56, 28
1, 146915, Note_on_c, 0, 61, 28
1, 146915, Control_c, 0, 91, 127
1, 146951, Control_c, 0, 64, 127
1, 147058, Note_on_c, 0, 65, 0
1, 147058, Note_on_c, 0, 68, 41
1, 147204, Note_on_c, 0, 68, 0
1, 147204, Note_on_c, 0, 66, 35
1, 147204, Note_on_c, 0, 70, 37
1, 147207, Note_on_c, 0, 61, 0
1, 147207, Note_on_c, 0, 56, 0
1, 147207, Note_on_c, 0, 49, 0
1, 147210, Note_on_c, 0, 49, 29
1, 147210, Note_on_c, 0, 56, 29
1, 147210, Note_on_c, 0, 61, 29
1, 147213, Control_c, 0, 64, 0
1, 147262, Control_c, 0, 64, 127
1, 147807, Note_on_c, 0, 70, 0
1, 147807, Note_on_c, 0, 66, 0
1, 147807, Note_on_c, 0, 65, 36
1, 147810, Note_on_c, 0, 68, 38
1, 147810, Note_on_c, 0, 61, 0
1, 147810, Note_on_c, 0, 56, 0
1, 147813, Note_on_c, 0, 49, 0
1, 147813, Note_on_c, 0, 49, 27
1, 147813, Note_on_c, 0, 56, 27
1, 147816, Note_on_c, 0, 61, 27
1, 147816, Control_c, 0, 64, 0
1, 148026, Note_on_c, 0, 68, 0
1, 148026, Note_on_c, 0, 65, 0
1, 148026, Note_on_c, 0, 61, 0
1, 148029, Note_on_c, 0, 56, 0
1, 148029, Note_on_c, 0, 49, 0
1, 148099, Note_on_c, 0, 65, 41
1, 148099, Note_on_c, 0, 49, 28
1, 148099, Note_on_c, 0, 56, 28
1, 148102, Note_on_c, 0, 61, 28
1, 148158, Control_c, 0, 64, 127
1, 148245, Note_on_c, 0, 65, 0
1, 148245, Note_on_c, 0, 68, 41
1, 148391, Note_on_c, 0, 68, 0
1, 148391, Note_on_c, 0, 66, 36
1, 148391, Note_on_c, 0, 70, 36
1, 148394, Note_on_c, 0, 73, 38
1, 148394, Note_on_c, 0, 61, 0
1, 148394, Note_on_c, 0, 56, 0
1, 148397, Note_on_c, 0, 49, 0
1, 148397, Note_on_c, 0, 49, 28
1, 148397, Note_on_c, 0, 56, 28
1, 148400, Note_on_c, 0, 61, 28
1, 148400, Control_c, 0, 64, 0
1, 148500, Control_c, 0, 64, 127
1, 148990, Note_on_c, 0, 73, 0
1, 148990, Note_on_c, 0, 70, 0
1, 148990, Note_on_c, 0, 66, 0
1, 148993, Note_on_c, 0, 65, 34
1, 148993, Note_on_c, 0, 68, 36
1, 148993, Note_on_c, 0, 61, 0
1, 148996, Note_on_c, 0, 56, 0
1, 148996, Note_on_c, 0, 49, 0
1, 148996, Note_on_c, 0, 49, 27
1, 148999, Note_on_c, 0, 56, 27
1, 148999, Note_on_c, 0, 61, 27
1, 148999, Control_c, 0, 64, 0
1, 149204, Note_on_c, 0, 68, 0
1, 149204, Note_on_c, 0, 65, 0
1, 149204, Note_on_c, 0, 61, 0
1, 149207, Note_on_c, 0, 56, 0
1, 149207, Note_on_c, 0, 49, 0
1, 149276, Note_on_c, 0, 65, 40
1, 149276, Note_on_c, 0, 68, 43
1, 149276, Note_on_c, 0, 56, 30
1, 149279, Note_on_c, 0, 60, 30
1, 149344, Control_c, 0, 64, 127
1, 149419, Note_on_c, 0, 68, 0
1, 149419, Note_on_c, 0, 65, 0
1, 149419, Note_on_c, 0, 62, 43
1, 149562, Note_on_c, 0, 62, 0
1, 149562, Note_on_c, 0, 63, 46
1, 149562, Note_on_c, 0, 66, 49
1, 149565, Note_on_c, 0, 60, 0
1, 149565, Note_on_c, 0, 56, 0
1, 149565, Note_on_c, 0, 56, 32
1, 149568, Note_on_c, 0, 60, 32
1, 149574, Control_c, 0, 64, 0
1, 149697, Control_c, 0, 64, 127
1, 150011, Note_on_c, 0, 66, 0
1, 150011, Note_on_c, 0, 63, 0
1, 150011, Note_on_c, 0, 66, 39
1, 150014, Note_on_c, 0, 75, 41
1, 150151, Note_on_c, 0, 75, 0
1, 150151, Note_on_c, 0, 66, 0
1, 150151, Note_on_c, 0, 68, 40
1, 150154, Note_on_c, 0, 77, 43
1, 150154, Note_on_c, 0, 60, 0
1, 150154, Note_on_c, 0, 56, 0
1, 150157, Note_on_c, 0, 56, 29
1, 150157, Note_on_c, 0, 60, 29
1, 150157, Control_c, 0, 64, 0
1, 150257, Control_c, 0, 64, 127
1, 150290, Note_on_c, 0, 77, 0
1, 150290, Note_on_c, 0, 68, 0
1, 150290, Note_on_c, 0, 66, 39
1, 150293, Note_on_c, 0, 75, 41
1, 150430, Note_on_c, 0, 75, 0
1, 150430, Note_on_c, 0, 66, 0
1, 150430, Note_on_c, 0, 65, 40
1, 150433, Note_on_c, 0, 73, 43
1, 150433, Note_on_c, 0, 60, 0
1, 150433, Note_on_c, 0, 56, 0
1, 150436, Note_on_c, 0, 49, 30
1, 150436, Note_on_c, 0, 56, 30
1, 150436, Note_on_c, 0, 61, 30
1, 150440, Control_c, 0, 64, 0
1, 150537, Control_c, 0, 64, 127
1, 150569, Note_on_c, 0, 73, 0
1, 150569, Note_on_c, 0, 65, 0
1, 150569, Note_on_c, 0, 66, 40
1, 150572, Note_on_c, 0, 75, 43
1, 150709, Note_on_c, 0, 75, 0
1, 150709, Note_on_c, 0, 66, 0
1, 150709, Note_on_c, 0, 65, 42
1, 150712, Note_on_c, 0, 73, 45
1, 150712, Note_on_c, 0, 61, 0
1, 150712, Note_on_c, 0, 56, 0
1, 150715, Note_on_c, 0, 49, 0
1, 150715, Note_on_c, 0, 49, 31
1, 150715, Note_on_c, 0, 56, 31
1, 150718, Note_on_c, 0, 61, 31
1, 150728, Control_c, 0, 64, 0
1, 150951, Control_c, 0, 64, 127
1, 151945, Note_on_c, 0, 73, 0
1, 151945, Note_on_c, 0, 65, 0
1, 151945, Note_on_c, 0, 61, 0
1, 151948, Note_on_c, 0, 56, 0
1, 151948, Note_on_c, 0, 49, 0
1, 151948, Control_c, 0, 64, 0
1, 151951, Note_on_c, 0, 53, 45
1, 151951, Note_on_c, 0, 29, 42
1, 151951, Note_on_c, 0, 41, 42
1, 152078, Control_c, 0, 64, 127
1, 152085, Note_on_c, 0, 53, 0
1, 152085, Note_on_c, 0, 57, 45
1, 152224, Note_on_c, 0, 57, 0
1, 152224, Note_on_c, 0, 41, 0
1, 152224, Note_on_c, 0, 29, 0
1, 152227, Note_on_c, 0, 49, 48
1, 152227, Note_on_c, 0, 53, 48
1, 152227, Note_on_c, 0, 58, 48
1, 152230, Note_on_c, 0, 34, 44
1, 152230, Note_on_c, 0, 41, 44
1, 152235, Control_c, 0, 64, 0
1, 152328, Control_c, 0, 64, 127
1, 152808, Note_on_c, 0, 41, 0
1, 152808, Note_on_c, 0, 58, 0
1, 152808, Note_on_c, 0, 49, 0
1, 152811, Note_on_c, 0, 53, 0
1, 152811, Note_on_c, 0, 34, 0
1, 152811, Note_on_c, 0, 48, 41
1, 152814, Note_on_c, 0, 53, 41
1, 152814, Note_on_c, 0, 57, 41
1, 152814, Note_on_c, 0, 29, 39
1, 152817, Note_on_c, 0, 41, 39
1, 152817, Control_c, 0, 64, 0
1, 153087, Note_on_c, 0, 41, 0
1, 153087, Note_on_c, 0, 57, 0
1, 153087, Note_on_c, 0, 48, 0
1, 153090, Note_on_c, 0, 53, 0
1, 153090, Note_on_c, 0, 29, 0
1, 153090, Note_on_c, 0, 53, 49
1, 153093, Note_on_c, 0, 29, 42
1, 153093, Note_on_c, 0, 41, 42
1, 153127, Control_c, 0, 64, 127
1, 153227, Note_on_c, 0, 53, 0
1, 153227, Note_on_c, 0, 57, 49
1, 153366, Note_on_c, 0, 57, 0
1, 153366, Note_on_c, 0, 41, 0
1, 153366, Note_on_c, 0, 29, 0
1, 153369, Note_on_c, 0, 61, 53
1, 153369, Note_on_c, 0, 58, 53
1, 153369, Note_on_c, 0, 53, 53
1, 153372, Note_on_c, 0, 34, 46
1, 153372, Note_on_c, 0, 41, 46
1, 153378, Control_c, 0, 64, 0
1, 153486, Control_c, 0, 64, 127
1, 153957, Note_on_c, 0, 41, 0
1, 153957, Note_on_c, 0, 53, 0
1, 153957, Note_on_c, 0, 61, 0
1, 153960, Note_on_c, 0, 58, 0
1, 153960, Note_on_c, 0, 34, 0
1, 153960, Note_on_c, 0, 60, 41
1, 153963, Note_on_c, 0, 53, 41
1, 153963, Note_on_c, 0, 57, 41
1, 153963, Note_on_c, 0, 29, 41
1, 153966, Note_on_c, 0, 41, 41
1, 153966, Control_c, 0, 64, 0
1, 154241, Note_on_c, 0, 57, 0
1, 154241, Note_on_c, 0, 60, 0
1, 154241, Note_on_c, 0, 53, 0
1, 154241, Note_on_c, 0, 60, 39
1, 154241, Note_on_c, 0, 57, 39
1, 154241, Note_on_c, 0, 29, 0
1, 154241, Note_on_c, 0, 41, 0
1, 154241, Note_on_c, 0, 29, 34
1, 154241, Note_on_c, 0, 41, 34
1, 154379, Control_c, 0, 64, 127
1, 154435, Note_on_c, 0, 57, 0
1, 154435, Note_on_c, 0, 60, 0
1, 154435, Note_on_c, 0, 66, 39
1, 154627, Note_on_c, 0, 66, 0
1, 154627, Note_on_c, 0, 58, 43
1, 154627, Note_on_c, 0, 61, 43
1, 154630, Note_on_c, 0, 65, 43
1, 154630, Note_on_c, 0, 41, 0
1, 154630, Note_on_c, 0, 29, 0
1, 154633, Note_on_c, 0, 34, 34
1, 154633, Note_on_c, 0, 41, 34
1, 154640, Control_c, 0, 64, 0
1, 154802, Control_c, 0, 64, 127
1, 155324, Note_on_c, 0, 65, 0
1, 155324, Note_on_c, 0, 61, 0
1, 155324, Note_on_c, 0, 58, 0
1, 155327, Note_on_c, 0, 57, 34
1, 155327, Note_on_c, 0, 60, 34
1, 155327, Note_on_c, 0, 65, 38
1, 155330, Note_on_c, 0, 41, 0
1, 155330, Note_on_c, 0, 34, 0
1, 155330, Note_on_c, 0, 29, 30
1, 155333, Note_on_c, 0, 41, 30
1, 155345, Control_c, 0, 64, 0
1, 155526, Control_c, 0, 64, 127
1, 155773, Note_on_c, 0, 65, 0
1, 155773, Note_on_c, 0, 60, 0
1, 155773, Note_on_c, 0, 57, 0
1, 155776, Note_on_c, 0, 56, 28
1, 155776, Note_on_c, 0, 60, 28
1, 155776, Note_on_c, 0, 66, 32
1, 155779, Note_on_c, 0, 41, 0
1, 155779, Note_on_c, 0, 29, 0
1, 155779, Note_on_c, 0, 39, 27
1, 155782, Note_on_c, 0, 44, 27
1, 155782, Control_c, 0, 64, 0
1, 156034, Control_c, 0, 64, 127
1, 156090, Note_on_c, 0, 66, 0
1, 156090, Note_on_c, 0, 68, 32
1, 156406, Note_on_c, 0, 68, 0
1, 156406, Note_on_c, 0, 60, 0
1, 156406, Note_on_c, 0, 56, 0
1, 156409, Note_on_c, 0, 56, 28
1, 156409, Note_on_c, 0, 61, 28
1, 156409, Note_on_c, 0, 65, 32
1, 156412, Note_on_c, 0, 44, 0
1, 156412, Note_on_c, 0, 39, 0
1, 156412, Note_on_c, 0, 37, 27
1, 156415, Note_on_c, 0, 44, 27
1, 156452, Control_c, 0, 64, 0
1, 157082, Control_c, 0, 64, 127
1, 158598, Note_on_c, 0, 68, 70
1, 158603, Control_c, 0, 64, 0
1, 158822, Note_on_c, 0, 68, 0
1, 158822, Note_on_c, 0, 56, 0
1, 158822, Note_on_c, 0, 61, 0
1, 158825, Note_on_c, 0, 65, 0
1, 158825, Control_c, 0, 91, 127
1, 158825, Note_on_c, 0, 64, 76
1, 158828, Note_on_c, 0, 44, 0
1, 158828, Note_on_c, 0, 37, 0
1, 158828, Note_on_c, 0, 49, 64
1, 158831, Control_c, 0, 91, 127
1, 158935, Note_on_c, 0, 64, 0
1, 158935, Note_on_c, 0, 61, 70
1, 158935, Note_on_c, 0, 49, 0
1, 159043, Note_on_c, 0, 61, 0
1, 159043, Note_on_c, 0, 64, 70
1, 159043, Note_on_c, 0, 56, 60
1, 159153, Note_on_c, 0, 64, 0
1, 159153, Note_on_c, 0, 68, 70
1, 159153, Note_on_c, 0, 56, 0
1, 159263, Note_on_c, 0, 68, 0
1, 159263, Note_on_c, 0, 64, 74
1, 159263, Note_on_c, 0, 49, 64
1, 159373, Note_on_c, 0, 64, 0
1, 159373, Note_on_c, 0, 61, 70
1, 159373, Note_on_c, 0, 49, 0
1, 159482, Note_on_c, 0, 61, 0
1, 159482, Note_on_c, 0, 64, 70
1, 159482, Note_on_c, 0, 57, 60
1, 159590, Note_on_c, 0, 64, 0
1, 159590, Note_on_c, 0, 69, 70
1, 159590, Note_on_c, 0, 57, 0
1, 159700, Note_on_c, 0, 69, 0
1, 159700, Note_on_c, 0, 63, 73
1, 159700, Note_on_c, 0, 48, 64
1, 159810, Note_on_c, 0, 63, 0
1, 159810, Note_on_c, 0, 60, 70
1, 159810, Note_on_c, 0, 48, 0
1, 159919, Note_on_c, 0, 60, 0
1, 159919, Note_on_c, 0, 63, 70
1, 159919, Note_on_c, 0, 57, 61
1, 160028, Note_on_c, 0, 63, 0
1, 160028, Note_on_c, 0, 69, 70
1, 160028, Note_on_c, 0, 57, 0
1, 160138, Note_on_c, 0, 69, 0
1, 160138, Note_on_c, 0, 63, 73
1, 160138, Note_on_c, 0, 48, 64
1, 160248, Note_on_c, 0, 63, 0
1, 160248, Note_on_c, 0, 60, 70
1, 160248, Note_on_c, 0, 48, 0
1, 160357, Note_on_c, 0, 60, 0
1, 160357, Note_on_c, 0, 63, 70
1, 160357, Note_on_c, 0, 56, 60
1, 160466, Note_on_c, 0, 63, 0
1, 160466, Note_on_c, 0, 68, 70
1, 160466, Note_on_c, 0, 56, 0
1, 160575, Note_on_c, 0, 68, 0
1, 160575, Note_on_c, 0, 68, 76
1, 160575, Note_on_c, 0, 49, 65
1, 160685, Note_on_c, 0, 68, 0
1, 160685, Note_on_c, 0, 64, 73
1, 160685, Note_on_c, 0, 49, 0
1, 160793, Note_on_c, 0, 64, 0
1, 160793, Note_on_c, 0, 68, 73
1, 160793, Note_on_c, 0, 56, 61
1, 160902, Note_on_c, 0, 68, 0
1, 160902, Note_on_c, 0, 76, 73
1, 160902, Note_on_c, 0, 56, 0
1, 161012, Note_on_c, 0, 76, 0
1, 161012, Note_on_c, 0, 68, 76
1, 161012, Note_on_c, 0, 52, 65
1, 161122, Note_on_c, 0, 68, 0
1, 161122, Note_on_c, 0, 64, 73
1, 161122, Note_on_c, 0, 52, 0
1, 161231, Note_on_c, 0, 64, 0
1, 161231, Note_on_c, 0, 68, 73
1, 161231, Note_on_c, 0, 56, 62
1, 161340, Note_on_c, 0, 68, 0
1, 161340, Note_on_c, 0, 73, 73
1, 161340, Note_on_c, 0, 56, 0
1, 161449, Note_on_c, 0, 73, 0
1, 161449, Note_on_c, 0, 69, 77
1, 161449, Note_on_c, 0, 51, 66
1, 161559, Note_on_c, 0, 69, 0
1, 161559, Note_on_c, 0, 68, 70
1, 161559, Note_on_c, 0, 51, 0
1, 161667, Note_on_c, 0, 68, 0
1, 161667, Note_on_c, 0, 66, 71
1, 161667, Note_on_c, 0, 57, 62
1, 161776, Note_on_c, 0, 66, 0
1, 161776, Note_on_c, 0, 73, 72
1, 161776, Note_on_c, 0, 57, 0
1, 161885, Note_on_c, 0, 73, 0
1, 161885, Note_on_c, 0, 72, 78
1, 161885, Note_on_c, 0, 51, 65
1, 161995, Note_on_c, 0, 72, 0
1, 161995, Note_on_c, 0, 66, 75
1, 161995, Note_on_c, 0, 51, 0
1, 162105, Note_on_c, 0, 66, 0
1, 162105, Note_on_c, 0, 68, 76
1, 162105, Note_on_c, 0, 56, 62
1, 162214, Note_on_c, 0, 68, 0
1, 162214, Note_on_c, 0, 72, 77
1, 162214, Note_on_c, 0, 56, 0
1, 162324, Note_on_c, 0, 72, 0
1, 162324, Note_on_c, 0, 73, 82
1, 162324, Note_on_c, 0, 49, 66
1, 162434, Note_on_c, 0, 73, 0
1, 162434, Note_on_c, 0, 64, 73
1, 162434, Note_on_c, 0, 49, 0
1, 162543, Note_on_c, 0, 64, 0
1, 162543, Note_on_c, 0, 68, 75
1, 162543, Note_on_c, 0, 61, 60
1, 162652, Note_on_c, 0, 68, 0
1, 162652, Note_on_c, 0, 73, 77
1, 162652, Note_on_c, 0, 61, 0
1, 162762, Note_on_c, 0, 73, 0
1, 162762, Note_on_c, 0, 76, 79
1, 162762, Note_on_c, 0, 49, 65
1, 162872, Note_on_c, 0, 76, 0
1, 162872, Note_on_c, 0, 68, 74
1, 162872, Note_on_c, 0, 49, 0
1, 162980, Note_on_c, 0, 68, 0
1, 162980, Note_on_c, 0, 76, 76
1, 162980, Note_on_c, 0, 59, 61
1, 163089, Note_on_c, 0, 76, 0
1, 163089, Note_on_c, 0, 80, 78
1, 163089, Note_on_c, 0, 59, 0
1, 163198, Note_on_c, 0, 80, 0
1, 163198, Note_on_c, 0, 76, 83
1, 163198, Note_on_c, 0, 54, 67
1, 163309, Note_on_c, 0, 76, 0
1, 163309, Note_on_c, 0, 69, 74
1, 163309, Note_on_c, 0, 54, 0
1, 163419, Note_on_c, 0, 69, 0
1, 163419, Note_on_c, 0, 76, 76
1, 163419, Note_on_c, 0, 57, 66
1, 163528, Note_on_c, 0, 76, 0
1, 163528, Note_on_c, 0, 80, 78
1, 163528, Note_on_c, 0, 57, 0
1, 163637, Note_on_c, 0, 80, 0
1, 163637, Note_on_c, 0, 74, 80
1, 163637, Note_on_c, 0, 54, 67
1, 163747, Note_on_c, 0, 74, 0
1, 163747, Note_on_c, 0, 78, 77
1, 163747, Note_on_c, 0, 54, 0
1, 163856, Note_on_c, 0, 78, 0
1, 163856, Note_on_c, 0, 73, 80
1, 163856, Note_on_c, 0, 57, 64
1, 163965, Note_on_c, 0, 73, 0
1, 163965, Note_on_c, 0, 76, 77
1, 163965, Note_on_c, 0, 57, 0
1, 164075, Note_on_c, 0, 76, 0
1, 164075, Note_on_c, 0, 72, 78
1, 164075, Note_on_c, 0, 45, 68
1, 164183, Note_on_c, 0, 72, 0
1, 164183, Note_on_c, 0, 75, 75
1, 164183, Note_on_c, 0, 45, 0
1, 164292, Note_on_c, 0, 75, 0
1, 164292, Note_on_c, 0, 73, 77
1, 164292, Note_on_c, 0, 54, 64
1, 164402, Note_on_c, 0, 73, 0
1, 164402, Note_on_c, 0, 76, 75
1, 164402, Note_on_c, 0, 54, 0
1, 164512, Note_on_c, 0, 76, 0
1, 164512, Note_on_c, 0, 75, 78
1, 164512, Note_on_c, 0, 44, 66
1, 164623, Note_on_c, 0, 75, 0
1, 164623, Note_on_c, 0, 78, 74
1, 164623, Note_on_c, 0, 44, 0
1, 164735, Note_on_c, 0, 78, 0
1, 164735, Note_on_c, 0, 72, 79
1, 164735, Note_on_c, 0, 56, 64
1, 164847, Note_on_c, 0, 72, 0
1, 164847, Note_on_c, 0, 75, 74
1, 164847, Note_on_c, 0, 56, 0
1, 164962, Note_on_c, 0, 75, 0
1, 164962, Note_on_c, 0, 76, 78
1, 164962, Note_on_c, 0, 49, 64
1, 165072, Note_on_c, 0, 76, 0
1, 165072, Note_on_c, 0, 73, 77
1, 165072, Note_on_c, 0, 49, 0
1, 165182, Note_on_c, 0, 73, 0
1, 165182, Note_on_c, 0, 71, 76
1, 165182, Note_on_c, 0, 51, 64
1, 165293, Note_on_c, 0, 71, 0
1, 165293, Note_on_c, 0, 69, 74
1, 165293, Note_on_c, 0, 51, 0
1, 165405, Note_on_c, 0, 69, 0
1, 165405, Note_on_c, 0, 68, 73
1, 165405, Note_on_c, 0, 52, 65
1, 165518, Note_on_c, 0, 68, 0
1, 165518, Note_on_c, 0, 66, 72
1, 165518, Note_on_c, 0, 52, 0
1, 165632, Note_on_c, 0, 66, 0
1, 165632, Note_on_c, 0, 64, 70
1, 165632, Note_on_c, 0, 56, 66
1, 165746, Note_on_c, 0, 64, 0
1, 165746, Note_on_c, 0, 63, 69
1, 165746, Note_on_c, 0, 56, 0
1, 165862, Note_on_c, 0, 63, 0
1, 165862, Note_on_c, 0, 64, 72
1, 165862, Note_on_c, 0, 49, 61
1, 165979, Note_on_c, 0, 64, 0
1, 165979, Note_on_c, 0, 61, 67
1, 165979, Note_on_c, 0, 49, 0
1, 166091, Note_on_c, 0, 61, 0
1, 166091, Note_on_c, 0, 64, 67
1, 166091, Note_on_c, 0, 56, 57
1, 166202, Note_on_c, 0, 64, 0
1, 166202, Note_on_c, 0, 68, 67
1, 166202, Note_on_c, 0, 56, 0
1, 166314, Note_on_c, 0, 68, 0
1, 166314, Note_on_c, 0, 64, 70
1, 166314, Note_on_c, 0, 49, 61
1, 166426, Note_on_c, 0, 64, 0
1, 166426, Note_on_c, 0, 61, 67
1, 166426, Note_on_c, 0, 49, 0
1, 166536, Note_on_c, 0, 61, 0
1, 166536, Note_on_c, 0, 64, 67
1, 166536, Note_on_c, 0, 57, 57
1, 166648, Note_on_c, 0, 64, 0
1, 166648, Note_on_c, 0, 69, 67
1, 166648, Note_on_c, 0, 57, 0
1, 166759, Note_on_c, 0, 69, 0
1, 166759, Note_on_c, 0, 63, 69
1, 166759, Note_on_c, 0, 47, 61
1, 166871, Note_on_c, 0, 63, 0
1, 166871, Note_on_c, 0, 59, 67
1, 166871, Note_on_c, 0, 47, 0
1, 166982, Note_on_c, 0, 59, 0
1, 166982, Note_on_c, 0, 63, 67
1, 166982, Note_on_c, 0, 57, 58
1, 167093, Note_on_c, 0, 63, 0
1, 167093, Note_on_c, 0, 69, 67
1, 167093, Note_on_c, 0, 57, 0
1, 167205, Note_on_c, 0, 69, 0
1, 167205, Note_on_c, 0, 63, 69
1, 167205, Note_on_c, 0, 47, 61
1, 167318, Note_on_c, 0, 63, 0
1, 167318, Note_on_c, 0, 59, 67
1, 167318, Note_on_c, 0, 47, 0
1, 167429, Note_on_c, 0, 59, 0
1, 167429, Note_on_c, 0, 63, 67
1, 167429, Note_on_c, 0, 56, 57
1, 167540, Note_on_c, 0, 63, 0
1, 167540, Note_on_c, 0, 68, 67
1, 167540, Note_on_c, 0, 56, 0
1, 167652, Note_on_c, 0, 68, 0
1, 167652, Note_on_c, 0, 68, 72
1, 167652, Note_on_c, 0, 52, 62
1, 167764, Note_on_c, 0, 68, 0
1, 167764, Note_on_c, 0, 61, 69
1, 167764, Note_on_c, 0, 52, 0
1, 167875, Note_on_c, 0, 61, 0
1, 167875, Note_on_c, 0, 68, 69
1, 167875, Note_on_c, 0, 56, 58
1, 167986, Note_on_c, 0, 68, 0
1, 167986, Note_on_c, 0, 73, 69
1, 167986, Note_on_c, 0, 56, 0
1, 168098, Note_on_c, 0, 73, 0
1, 168098, Note_on_c, 0, 66, 72
1, 168098, Note_on_c, 0, 45, 62
1, 168210, Note_on_c, 0, 66, 0
1, 168210, Note_on_c, 0, 63, 69
1, 168210, Note_on_c, 0, 45, 0
1, 168321, Note_on_c, 0, 63, 0
1, 168321, Note_on_c, 0, 66, 69
1, 168321, Note_on_c, 0, 57, 59
1, 168433, Note_on_c, 0, 66, 0
1, 168433, Note_on_c, 0, 73, 69
1, 168433, Note_on_c, 0, 57, 0
1, 168545, Note_on_c, 0, 73, 0
1, 168545, Note_on_c, 0, 68, 73
1, 168545, Note_on_c, 0, 44, 61
1, 168657, Note_on_c, 0, 68, 0
1, 168657, Note_on_c, 0, 64, 69
1, 168657, Note_on_c, 0, 44, 0
1, 168767, Note_on_c, 0, 64, 0
1, 168767, Note_on_c, 0, 68, 69
1, 168767, Note_on_c, 0, 59, 59
1, 168878, Note_on_c, 0, 68, 0
1, 168878, Note_on_c, 0, 73, 69
1, 168878, Note_on_c, 0, 59, 0
1, 168989, Note_on_c, 0, 73, 0
1, 168989, Note_on_c, 0, 68, 72
1, 168989, Note_on_c, 0, 56, 62
1, 169100, Note_on_c, 0, 68, 0
1, 169100, Note_on_c, 0, 64, 70
1, 169100, Note_on_c, 0, 56, 0
1, 169211, Note_on_c, 0, 64, 0
1, 169211, Note_on_c, 0, 68, 70
1, 169211, Note_on_c, 0, 59, 59
1, 169323, Note_on_c, 0, 68, 0
1, 169323, Note_on_c, 0, 71, 70
1, 169323, Note_on_c, 0, 59, 0
1, 169434, Note_on_c, 0, 71, 0
1, 169434, Note_on_c, 0, 67, 78
1, 169434, Note_on_c, 0, 49, 62
1, 169547, Note_on_c, 0, 67, 0
1, 169547, Note_on_c, 0, 64, 69
1, 169547, Note_on_c, 0, 49, 0
1, 169658, Note_on_c, 0, 64, 0
1, 169658, Note_on_c, 0, 67, 71
1, 169658, Note_on_c, 0, 52, 57
1, 169770, Note_on_c, 0, 67, 0
1, 169770, Note_on_c, 0, 70, 73
1, 169770, Note_on_c, 0, 52, 0
1, 169882, Note_on_c, 0, 70, 0
1, 169882, Note_on_c, 0, 76, 75
1, 169882, Note_on_c, 0, 48, 62
1, 169994, Note_on_c, 0, 76, 0
1, 169994, Note_on_c, 0, 70, 70
1, 169994, Note_on_c, 0, 48, 0
1, 170105, Note_on_c, 0, 70, 0
1, 170105, Note_on_c, 0, 76, 72
1, 170105, Note_on_c, 0, 58, 54
1, 170216, Note_on_c, 0, 76, 0
1, 170216, Note_on_c, 0, 79, 74
1, 170216, Note_on_c, 0, 58, 0
1, 170328, Note_on_c, 0, 79, 0
1, 170328, Note_on_c, 0, 75, 74
1, 170328, Note_on_c, 0, 47, 58
1, 170439, Note_on_c, 0, 75, 0
1, 170439, Note_on_c, 0, 79, 72
1, 170439, Note_on_c, 0, 47, 0
1, 170550, Note_on_c, 0, 79, 0
1, 170550, Note_on_c, 0, 75, 73
1, 170550, Note_on_c, 0, 59, 55
1, 170661, Note_on_c, 0, 75, 0
1, 170661, Note_on_c, 0, 78, 71
1, 170661, Note_on_c, 0, 59, 0
1, 170773, Note_on_c, 0, 78, 0
1, 170773, Note_on_c, 0, 69, 72
1, 170773, Note_on_c, 0, 48, 58
1, 170886, Note_on_c, 0, 69, 0
1, 170886, Note_on_c, 0, 76, 71
1, 170886, Note_on_c, 0, 48, 0
1, 170999, Note_on_c, 0, 76, 0
1, 170999, Note_on_c, 0, 69, 72
1, 170999, Note_on_c, 0, 54, 53
1, 171112, Note_on_c, 0, 69, 0
1, 171112, Note_on_c, 0, 75, 70
1, 171112, Note_on_c, 0, 54, 0
1, 171226, Note_on_c, 0, 75, 0
1, 171226, Note_on_c, 0, 69, 69
1, 171226, Note_on_c, 0, 49, 55
1, 171340, Note_on_c, 0, 69, 0
1, 171340, Note_on_c, 0, 78, 66
1, 171340, Note_on_c, 0, 49, 0
1, 171455, Note_on_c, 0, 78, 0
1, 171455, Note_on_c, 0, 68, 69
1, 171455, Note_on_c, 0, 52, 49
1, 171571, Note_on_c, 0, 68, 0
1, 171571, Note_on_c, 0, 76, 66
1, 171571, Note_on_c, 0, 52, 0
1, 171687, Note_on_c, 0, 76, 0
1, 171687, Note_on_c, 0, 64, 68
1, 171687, Note_on_c, 0, 45, 56
1, 171803, Note_on_c, 0, 64, 0
1, 171803, Note_on_c, 0, 73, 65
1, 171803, Note_on_c, 0, 45, 0
1, 171920, Note_on_c, 0, 73, 0
1, 171920, Note_on_c, 0, 61, 67
1, 171920, Note_on_c, 0, 54, 50
1, 172038, Note_on_c, 0, 61, 0
1, 172038, Note_on_c, 0, 69, 65
1, 172038, Note_on_c, 0, 54, 0
1, 172155, Note_on_c, 0, 69, 0
1, 172155, Note_on_c, 0, 59, 67
1, 172155, Note_on_c, 0, 47, 56
1, 172274, Note_on_c, 0, 59, 0
1, 172274, Note_on_c, 0, 68, 65
1, 172274, Note_on_c, 0, 47, 0
1, 172391, Note_on_c, 0, 68, 0
1, 172391, Note_on_c, 0, 64, 67
1, 172391, Note_on_c, 0, 56, 53
1, 172508, Note_on_c, 0, 64, 0
1, 172508, Note_on_c, 0, 71, 66
1, 172508, Note_on_c, 0, 56, 0
1, 172624, Note_on_c, 0, 71, 0
1, 172624, Note_on_c, 0, 59, 67
1, 172624, Note_on_c, 0, 47, 55
1, 172739, Note_on_c, 0, 59, 0
1, 172739, Note_on_c, 0, 69, 66
1, 172739, Note_on_c, 0, 47, 0
1, 172854, Note_on_c, 0, 69, 0
1, 172854, Note_on_c, 0, 63, 67
1, 172854, Note_on_c, 0, 57, 51
1, 172968, Note_on_c, 0, 63, 0
1, 172968, Note_on_c, 0, 71, 66
1, 172968, Note_on_c, 0, 57, 0
1, 173081, Note_on_c, 0, 71, 0
1, 173081, Note_on_c, 0, 69, 67
1, 173081, Note_on_c, 0, 47, 56
1, 173194, Note_on_c, 0, 63, 64
1, 173194, Note_on_c, 0, 47, 0
1, 173306, Note_on_c, 0, 63, 0
1, 173306, Note_on_c, 0, 59, 64
1, 173306, Note_on_c, 0, 54, 49
1, 173418, Note_on_c, 0, 59, 0
1, 173418, Note_on_c, 0, 69, 0
1, 173418, Note_on_c, 0, 69, 67
1, 173421, Note_on_c, 0, 54, 0
1, 173530, Note_on_c, 0, 69, 0
1, 173530, Note_on_c, 0, 68, 67
1, 173530, Note_on_c, 0, 52, 57
1, 173642, Note_on_c, 0, 68, 0
1, 173642, Note_on_c, 0, 64, 63
1, 173642, Note_on_c, 0, 52, 0
1, 173754, Note_on_c, 0, 64, 0
1, 173754, Note_on_c, 0, 68, 65
1, 173754, Note_on_c, 0, 54, 51
1, 173864, Note_on_c, 0, 68, 0
1, 173864, Note_on_c, 0, 69, 67
1, 173864, Note_on_c, 0, 54, 0
1, 173976, Note_on_c, 0, 69, 0
1, 173976, Note_on_c, 0, 71, 69
1, 173976, Note_on_c, 0, 56, 55
1, 174090, Note_on_c, 0, 71, 0
1, 174090, Note_on_c, 0, 68, 60
1, 174090, Note_on_c, 0, 56, 0
1, 174204, Note_on_c, 0, 68, 0
1, 174204, Note_on_c, 0, 71, 63
1, 174204, Note_on_c, 0, 59, 46
1, 174320, Note_on_c, 0, 71, 0
1, 174320, Note_on_c, 0, 80, 56
1, 174320, Note_on_c, 0, 59, 0
1, 174435, Note_on_c, 0, 80, 0
1, 174435, Note_on_c, 0, 71, 59
1, 174435, Note_on_c, 0, 56, 44
1, 174548, Note_on_c, 0, 71, 0
1, 174548, Note_on_c, 0, 78, 54
1, 174548, Note_on_c, 0, 56, 0
1, 174661, Note_on_c, 0, 78, 0
1, 174661, Note_on_c, 0, 72, 59
1, 174661, Note_on_c, 0, 64, 41
1, 174773, Note_on_c, 0, 72, 0
1, 174773, Note_on_c, 0, 76, 56
1, 174773, Note_on_c, 0, 64, 0
1, 174886, Note_on_c, 0, 76, 0
1, 174886, Note_on_c, 0, 73, 63
1, 174886, Note_on_c, 0, 57, 55
1, 175007, Note_on_c, 0, 73, 0
1, 175007, Note_on_c, 0, 64, 66
1, 175007, Note_on_c, 0, 57, 0
1, 175125, Note_on_c, 0, 64, 0
1, 175125, Note_on_c, 0, 73, 64
1, 175125, Note_on_c, 0, 45, 50
1, 175244, Note_on_c, 0, 73, 0
1, 175244, Note_on_c, 0, 76, 65
1, 175244, Note_on_c, 0, 45, 0
1, 175363, Note_on_c, 0, 76, 0
1, 175363, Note_on_c, 0, 71, 69
1, 175363, Note_on_c, 0, 47, 51
1, 175482, Note_on_c, 0, 71, 0
1, 175482, Note_on_c, 0, 75, 64
1, 175482, Note_on_c, 0, 47, 0
1, 175599, Note_on_c, 0, 75, 0
1, 175599, Note_on_c, 0, 69, 67
1, 175599, Note_on_c, 0, 49, 52
1, 175718, Note_on_c, 0, 69, 0
1, 175718, Note_on_c, 0, 73, 64
1, 175718, Note_on_c, 0, 49, 0
1, 175836, Note_on_c, 0, 73, 0
1, 175836, Note_on_c, 0, 68, 67
1, 175836, Note_on_c, 0, 47, 55
1, 175956, Note_on_c, 0, 68, 0
1, 175956, Note_on_c, 0, 59, 64
1, 175956, Note_on_c, 0, 47, 0
1, 176074, Note_on_c, 0, 59, 0
1, 176074, Note_on_c, 0, 68, 64
1, 176074, Note_on_c, 0, 52, 49
1, 176193, Note_on_c, 0, 68, 0
1, 176193, Note_on_c, 0, 71, 64
1, 176193, Note_on_c, 0, 52, 0
1, 176311, Note_on_c, 0, 71, 0
1, 176311, Note_on_c, 0, 64, 67
1, 176311, Note_on_c, 0, 47, 53
1, 176430, Note_on_c, 0, 64, 0
1, 176430, Note_on_c, 0, 58, 61
1, 176430, Note_on_c, 0, 47, 0
1, 176549, Note_on_c, 0, 58, 0
1, 176549, Note_on_c, 0, 64, 62
1, 176549, Note_on_c, 0, 55, 51
1, 176667, Note_on_c, 0, 64, 0
1, 176667, Note_on_c, 0, 73, 62
1, 176667, Note_on_c, 0, 55, 0
1, 176786, Note_on_c, 0, 73, 0
1, 176786, Note_on_c, 0, 66, 64
1, 176786, Note_on_c, 0, 47, 51
1, 176909, Note_on_c, 0, 66, 0
1, 176909, Note_on_c, 0, 57, 59
1, 176909, Note_on_c, 0, 47, 0
1, 177030, Note_on_c, 0, 57, 0
1, 177030, Note_on_c, 0, 66, 59
1, 177030, Note_on_c, 0, 52, 49
1, 177151, Note_on_c, 0, 66, 0
1, 177151, Note_on_c, 0, 71, 59
1, 177151, Note_on_c, 0, 52, 0
1, 177273, Note_on_c, 0, 71, 0
1, 177273, Note_on_c, 0, 66, 63
1, 177273, Note_on_c, 0, 47, 51
1, 177394, Note_on_c, 0, 66, 0
1, 177394, Note_on_c, 0, 57, 58
1, 177394, Note_on_c, 0, 47, 0
1, 177515, Note_on_c, 0, 57, 0
1, 177515, Note_on_c, 0, 66, 58
1, 177515, Note_on_c, 0, 51, 47
1, 177636, Note_on_c, 0, 66, 0
1, 177636, Note_on_c, 0, 71, 58
1, 177636, Note_on_c, 0, 51, 0
1, 177757, Note_on_c, 0, 71, 0
1, 177757, Note_on_c, 0, 64, 58
1, 177757, Note_on_c, 0, 52, 58
1, 177784, Control_c, 0, 64, 127
1, 177873, Note_on_c, 0, 64, 0
1, 177873, Note_on_c, 0, 56, 54
1, 177989, Note_on_c, 0, 56, 0
1, 177989, Note_on_c, 0, 64, 54
1, 177989, Note_on_c, 0, 52, 0
1, 178105, Note_on_c, 0, 64, 0
1, 178105, Note_on_c, 0, 68, 54
1, 178221, Note_on_c, 0, 68, 0
1, 178221, Note_on_c, 0, 47, 58
1, 178232, Control_c, 0, 64, 0
1, 178336, Note_on_c, 0, 47, 0
1, 178336, Note_on_c, 0, 40, 54
1, 178343, Control_c, 0, 64, 127
1, 178452, Note_on_c, 0, 40, 0
1, 178452, Note_on_c, 0, 47, 54
1, 178568, Note_on_c, 0, 47, 0
1, 178568, Note_on_c, 0, 52, 55
1, 178684, Note_on_c, 0, 63, 58
1, 178684, Note_on_c, 0, 52, 0
1, 178684, Control_c, 0, 64, 0
1, 178787, Control_c, 0, 64, 127
1, 178800, Note_on_c, 0, 63, 0
1, 178800, Note_on_c, 0, 57, 53
1, 178916, Note_on_c, 0, 57, 0
1, 178916, Note_on_c, 0, 63, 53
1, 179032, Note_on_c, 0, 63, 0
1, 179032, Note_on_c, 0, 71, 53
1, 179148, Note_on_c, 0, 71, 0
1, 179148, Note_on_c, 0, 47, 58
1, 179155, Control_c, 0, 64, 0
1, 179257, Control_c, 0, 64, 127
1, 179264, Note_on_c, 0, 47, 0
1, 179264, Note_on_c, 0, 40, 54
1, 179380, Note_on_c, 0, 40, 0
1, 179380, Note_on_c, 0, 47, 54
1, 179495, Note_on_c, 0, 47, 0
1, 179495, Note_on_c, 0, 54, 54
1, 179611, Note_on_c, 0, 64, 58
1, 179611, Note_on_c, 0, 54, 0
1, 179611, Control_c, 0, 64, 0
1, 179708, Control_c, 0, 64, 127
1, 179729, Note_on_c, 0, 64, 0
1, 179729, Note_on_c, 0, 56, 55
1, 179846, Note_on_c, 0, 56, 0
1, 179846, Note_on_c, 0, 64, 55
1, 179963, Note_on_c, 0, 64, 0
1, 179963, Note_on_c, 0, 68, 55
1, 180081, Note_on_c, 0, 68, 0
1, 180081, Note_on_c, 0, 68, 54
1, 180081, Note_on_c, 0, 52, 56
1, 180198, Note_on_c, 0, 68, 0
1, 180198, Note_on_c, 0, 71, 59
1, 180198, Note_on_c, 0, 52, 0
1, 180201, Note_on_c, 0, 56, 57
1, 180316, Note_on_c, 0, 71, 0
1, 180316, Note_on_c, 0, 76, 63
1, 180316, Note_on_c, 0, 56, 0
1, 180319, Note_on_c, 0, 59, 62
1, 180436, Note_on_c, 0, 76, 0
1, 180436, Note_on_c, 0, 80, 68
1, 180436, Note_on_c, 0, 59, 0
1, 180439, Note_on_c, 0, 64, 66
1, 180566, Note_on_c, 0, 80, 0
1, 180566, Note_on_c, 0, 80, 72
1, 180566, Note_on_c, 0, 64, 0
1, 180569, Note_on_c, 0, 64, 68
1, 180569, Control_c, 0, 64, 0
1, 180635, Control_c, 0, 64, 127
1, 180684, Note_on_c, 0, 68, 56
1, 180802, Note_on_c, 0, 68, 0
1, 180802, Note_on_c, 0, 80, 0
1, 180802, Note_on_c, 0, 76, 66
1, 180805, Note_on_c, 0, 64, 0
1, 180805, Note_on_c, 0, 61, 65
1, 180920, Note_on_c, 0, 68, 57
1, 181038, Note_on_c, 0, 68, 0
1, 181038, Note_on_c, 0, 76, 0
1, 181038, Note_on_c, 0, 75, 63
1, 181041, Note_on_c, 0, 61, 0
1, 181041, Note_on_c, 0, 60, 62
1, 181045, Control_c, 0, 64, 0
1, 181106, Control_c, 0, 64, 127
1, 181155, Note_on_c, 0, 68, 54
1, 181273, Note_on_c, 0, 68, 0
1, 181273, Note_on_c, 0, 75, 0
1, 181273, Note_on_c, 0, 74, 60
1, 181276, Note_on_c, 0, 60, 0
1, 181276, Note_on_c, 0, 59, 59
1, 181282, Control_c, 0, 64, 0
1, 181370, Control_c, 0, 64, 127
1, 181391, Note_on_c, 0, 68, 54
1, 181509, Note_on_c, 0, 68, 0
1, 181509, Note_on_c, 0, 74, 0
1, 181509, Note_on_c, 0, 73, 58
1, 181512, Note_on_c, 0, 59, 0
1, 181512, Note_on_c, 0, 57, 56
1, 181519, Control_c, 0, 64, 0
1, 181610, Control_c, 0, 64, 127
1, 181623, Note_on_c, 0, 73, 0
1, 181623, Note_on_c, 0, 61, 53
1, 181738, Note_on_c, 0, 61, 0
1, 181738, Note_on_c, 0, 69, 53
1, 181738, Note_on_c, 0, 57, 0
1, 181852, Note_on_c, 0, 69, 0
1, 181852, Note_on_c, 0, 73, 53
1, 181966, Note_on_c, 0, 73, 0
1, 181966, Note_on_c, 0, 52, 58
1, 182081, Note_on_c, 0, 52, 0
1, 182081, Note_on_c, 0, 45, 54
1, 182195, Note_on_c, 0, 45, 0
1, 182195, Note_on_c, 0, 52, 54
1, 182309, Note_on_c, 0, 52, 0
1, 182309, Note_on_c, 0, 57, 54
1, 182424, Note_on_c, 0, 68, 58
1, 182424, Note_on_c, 0, 57, 0
1, 182435, Control_c, 0, 64, 0
1, 182494, Control_c, 0, 64, 127
1, 182538, Note_on_c, 0, 68, 0
1, 182538, Note_on_c, 0, 62, 52
1, 182653, Note_on_c, 0, 62, 0
1, 182653, Note_on_c, 0, 68, 52
1, 182767, Note_on_c, 0, 68, 0
1, 182767, Note_on_c, 0, 76, 52
1, 182881, Note_on_c, 0, 76, 0
1, 182881, Note_on_c, 0, 52, 58
1, 182894, Control_c, 0, 64, 0
1, 182946, Control_c, 0, 64, 127
1, 182996, Note_on_c, 0, 52, 0
1, 182996, Note_on_c, 0, 45, 51
1, 183110, Note_on_c, 0, 45, 0
1, 183110, Note_on_c, 0, 52, 51
1, 183224, Note_on_c, 0, 52, 0
1, 183224, Note_on_c, 0, 59, 51
1, 183339, Note_on_c, 0, 69, 58
1, 183339, Note_on_c, 0, 59, 0
1, 183343, Control_c, 0, 64, 0
1, 183446, Control_c, 0, 64, 127
1, 183453, Note_on_c, 0, 69, 0
1, 183453, Note_on_c, 0, 61, 52
1, 183567, Note_on_c, 0, 61, 0
1, 183567, Note_on_c, 0, 69, 52
1, 183682, Note_on_c, 0, 69, 0
1, 183682, Note_on_c, 0, 73, 53
1, 183796, Note_on_c, 0, 73, 0
1, 183796, Note_on_c, 0, 73, 53
1, 183796, Note_on_c, 0, 57, 54
1, 183910, Note_on_c, 0, 73, 0
1, 183910, Note_on_c, 0, 76, 58
1, 183910, Note_on_c, 0, 57, 0
1, 183913, Note_on_c, 0, 61, 59
1, 184025, Note_on_c, 0, 76, 0
1, 184025, Note_on_c, 0, 81, 63
1, 184025, Note_on_c, 0, 61, 0
1, 184028, Note_on_c, 0, 64, 64
1, 184141, Note_on_c, 0, 81, 0
1, 184141, Note_on_c, 0, 85, 69
1, 184141, Note_on_c, 0, 64, 0
1, 184144, Note_on_c, 0, 69, 69
1, 184274, Note_on_c, 0, 85, 0
1, 184274, Note_on_c, 0, 85, 74
1, 184274, Note_on_c, 0, 69, 0
1, 184277, Note_on_c, 0, 69, 72
1, 184286, Control_c, 0, 64, 0
1, 184349, Control_c, 0, 64, 127
1, 184391, Note_on_c, 0, 85, 0
1, 184391, Note_on_c, 0, 73, 66
1, 184507, Note_on_c, 0, 73, 0
1, 184507, Note_on_c, 0, 81, 71
1, 184507, Note_on_c, 0, 69, 0
1, 184510, Note_on_c, 0, 66, 61
1, 184623, Note_on_c, 0, 81, 0
1, 184623, Note_on_c, 0, 73, 66
1, 184739, Note_on_c, 0, 73, 0
1, 184739, Note_on_c, 0, 80, 71
1, 184739, Note_on_c, 0, 66, 0
1, 184742, Note_on_c, 0, 71, 61
1, 184750, Control_c, 0, 64, 0
1, 184828, Control_c, 0, 64, 127
1, 184856, Note_on_c, 0, 80, 0
1, 184856, Note_on_c, 0, 76, 66
1, 184972, Note_on_c, 0, 76, 0
1, 184972, Note_on_c, 0, 78, 71
1, 184972, Note_on_c, 0, 71, 0
1, 184975, Note_on_c, 0, 59, 61
1, 184975, Note_on_c, 0, 69, 61
1, 184982, Control_c, 0, 64, 0
1, 185026, Control_c, 0, 64, 127
1, 185088, Note_on_c, 0, 78, 0
1, 185088, Note_on_c, 0, 75, 65
1, 185204, Note_on_c, 0, 75, 0
1, 185204, Note_on_c, 0, 64, 76
1, 185204, Note_on_c, 0, 68, 76
1, 185207, Note_on_c, 0, 76, 76
1, 185207, Note_on_c, 0, 69, 0
1, 185207, Note_on_c, 0, 59, 0
1, 185210, Control_c, 0, 64, 0
1, 185326, Note_on_c, 0, 76, 0
1, 185326, Note_on_c, 0, 68, 0
1, 185326, Note_on_c, 0, 64, 0
1, 185329, Note_on_c, 0, 68, 71
1, 185449, Note_on_c, 0, 68, 0
1, 185449, Note_on_c, 0, 66, 71
1, 185449, Note_on_c, 0, 56, 72
1, 185452, Note_on_c, 0, 54, 72
1, 185574, Note_on_c, 0, 66, 0
1, 185574, Note_on_c, 0, 68, 71
1, 185699, Note_on_c, 0, 68, 0
1, 185699, Note_on_c, 0, 64, 68
1, 185699, Note_on_c, 0, 54, 0
1, 185702, Note_on_c, 0, 52, 81
1, 185826, Note_on_c, 0, 64, 0
1, 185826, Note_on_c, 0, 68, 72
1, 185955, Note_on_c, 0, 68, 0
1, 185955, Note_on_c, 0, 63, 76
1, 185955, Note_on_c, 0, 52, 0
1, 185958, Note_on_c, 0, 51, 88
1, 186084, Note_on_c, 0, 63, 0
1, 186084, Note_on_c, 0, 68, 79
1, 186214, Note_on_c, 0, 68, 0
1, 186214, Note_on_c, 0, 64, 90
1, 186214, Note_on_c, 0, 51, 0
1, 186217, Note_on_c, 0, 56, 0
1, 186217, Note_on_c, 0, 49, 95
1, 186333, Note_on_c, 0, 64, 0
1, 186333, Note_on_c, 0, 61, 84
1, 186333, Note_on_c, 0, 49, 0
1, 186452, Note_on_c, 0, 61, 0
1, 186452, Note_on_c, 0, 64, 84
1, 186452, Note_on_c, 0, 48, 87
1, 186571, Note_on_c, 0, 64, 0
1, 186571, Note_on_c, 0, 68, 84
1, 186571, Note_on_c, 0, 48, 0
1, 186689, Note_on_c, 0, 68, 0
1, 186689, Note_on_c, 0, 64, 88
1, 186689, Note_on_c, 0, 49, 86
1, 186808, Note_on_c, 0, 64, 0
1, 186808, Note_on_c, 0, 61, 84
1, 186808, Note_on_c, 0, 49, 0
1, 186927, Note_on_c, 0, 61, 0
1, 186927, Note_on_c, 0, 64, 84
1, 186927, Note_on_c, 0, 52, 86
1, 187041, Note_on_c, 0, 64, 0
1, 187041, Note_on_c, 0, 69, 84
1, 187041, Note_on_c, 0, 52, 0
1, 187156, Note_on_c, 0, 69, 0
1, 187156, Note_on_c, 0, 63, 86
1, 187156, Note_on_c, 0, 48, 92
1, 187271, Note_on_c, 0, 63, 0
1, 187271, Note_on_c, 0, 60, 84
1, 187271, Note_on_c, 0, 48, 0
1, 187387, Note_on_c, 0, 60, 0
1, 187387, Note_on_c, 0, 63, 84
1, 187387, Note_on_c, 0, 51, 86
1, 187504, Note_on_c, 0, 63, 0
1, 187504, Note_on_c, 0, 69, 84
1, 187504, Note_on_c, 0, 51, 0
1, 187620, Note_on_c, 0, 69, 0
1, 187620, Note_on_c, 0, 63, 86
1, 187620, Note_on_c, 0, 56, 86
1, 187737, Note_on_c, 0, 63, 0
1, 187737, Note_on_c, 0, 60, 84
1, 187737, Note_on_c, 0, 56, 0
1, 187855, Note_on_c, 0, 60, 0
1, 187855, Note_on_c, 0, 63, 84
1, 187855, Note_on_c, 0, 48, 86
1, 187969, Note_on_c, 0, 63, 0
1, 187969, Note_on_c, 0, 68, 84
1, 187969, Note_on_c, 0, 48, 0
1, 188084, Note_on_c, 0, 68, 0
1, 188084, Note_on_c, 0, 68, 90
1, 188084, Note_on_c, 0, 49, 90
1, 188198, Note_on_c, 0, 68, 0
1, 188198, Note_on_c, 0, 64, 86
1, 188198, Note_on_c, 0, 49, 0
1, 188314, Note_on_c, 0, 64, 0
1, 188314, Note_on_c, 0, 68, 86
1, 188314, Note_on_c, 0, 51, 86
1, 188430, Note_on_c, 0, 68, 0
1, 188430, Note_on_c, 0, 76, 86
1, 188430, Note_on_c, 0, 51, 0
1, 188547, Note_on_c, 0, 76, 0
1, 188547, Note_on_c, 0, 68, 90
1, 188547, Note_on_c, 0, 52, 86
1, 188664, Note_on_c, 0, 68, 0
1, 188664, Note_on_c, 0, 64, 86
1, 188664, Note_on_c, 0, 52, 0
1, 188781, Note_on_c, 0, 64, 0
1, 188781, Note_on_c, 0, 68, 86
1, 188781, Note_on_c, 0, 49, 86
1, 188895, Note_on_c, 0, 68, 0
1, 188895, Note_on_c, 0, 73, 86
1, 188895, Note_on_c, 0, 49, 0
1, 189010, Note_on_c, 0, 73, 0
1, 189010, Note_on_c, 0, 69, 92
1, 189010, Note_on_c, 0, 51, 86
1, 189125, Note_on_c, 0, 69, 0
1, 189125, Note_on_c, 0, 68, 84
1, 189125, Note_on_c, 0, 51, 0
1, 189241, Note_on_c, 0, 68, 0
1, 189241, Note_on_c, 0, 66, 85
1, 189241, Note_on_c, 0, 57, 93
1, 189357, Note_on_c, 0, 66, 0
1, 189357, Note_on_c, 0, 73, 86
1, 189357, Note_on_c, 0, 57, 0
1, 189474, Note_on_c, 0, 73, 0
1, 189474, Note_on_c, 0, 72, 93
1, 189474, Note_on_c, 0, 56, 91
1, 189592, Note_on_c, 0, 72, 0
1, 189592, Note_on_c, 0, 66, 89
1, 189592, Note_on_c, 0, 56, 0
1, 189710, Note_on_c, 0, 66, 0
1, 189710, Note_on_c, 0, 68, 90
1, 189710, Note_on_c, 0, 54, 86
1, 189824, Note_on_c, 0, 68, 0
1, 189824, Note_on_c, 0, 72, 92
1, 189824, Note_on_c, 0, 54, 0
1, 189938, Note_on_c, 0, 72, 0
1, 189938, Note_on_c, 0, 73, 98
1, 189938, Note_on_c, 0, 52, 84
1, 190053, Note_on_c, 0, 73, 0
1, 190053, Note_on_c, 0, 68, 86
1, 190053, Note_on_c, 0, 52, 0
1, 190169, Note_on_c, 0, 68, 0
1, 190169, Note_on_c, 0, 73, 89
1, 190169, Note_on_c, 0, 51, 86
1, 190285, Note_on_c, 0, 73, 0
1, 190285, Note_on_c, 0, 76, 92
1, 190285, Note_on_c, 0, 51, 0
1, 190402, Note_on_c, 0, 76, 0
1, 190402, Note_on_c, 0, 76, 94
1, 190402, Note_on_c, 0, 49, 89
1, 190520, Note_on_c, 0, 76, 0
1, 190520, Note_on_c, 0, 68, 92
1, 190520, Note_on_c, 0, 49, 0
1, 190639, Note_on_c, 0, 68, 0
1, 190639, Note_on_c, 0, 76, 96
1, 190639, Note_on_c, 0, 47, 90
1, 190753, Note_on_c, 0, 76, 0
1, 190753, Note_on_c, 0, 80, 100
1, 190753, Note_on_c, 0, 47, 0
1, 190868, Note_on_c, 0, 80, 0
1, 190868, Note_on_c, 0, 76, 103
1, 190868, Note_on_c, 0, 45, 94
1, 190984, Note_on_c, 0, 76, 0
1, 190984, Note_on_c, 0, 69, 100
1, 190984, Note_on_c, 0, 45, 0
1, 191100, Note_on_c, 0, 69, 0
1, 191100, Note_on_c, 0, 76, 98
1, 191100, Note_on_c, 0, 42, 88
1, 191159, Note_on_c, 0, 42, 0
1, 191217, Note_on_c, 0, 76, 0
1, 191217, Note_on_c, 0, 80, 95
1, 191217, Note_on_c, 0, 44, 88
1, 191276, Note_on_c, 0, 44, 0
1, 191335, Note_on_c, 0, 80, 0
1, 191335, Note_on_c, 0, 74, 96
1, 191335, Note_on_c, 0, 45, 93
1, 191453, Note_on_c, 0, 74, 0
1, 191453, Note_on_c, 0, 78, 92
1, 191453, Note_on_c, 0, 45, 0
1, 191572, Note_on_c, 0, 78, 0
1, 191572, Note_on_c, 0, 73, 96
1, 191572, Note_on_c, 0, 42, 89
1, 191686, Note_on_c, 0, 73, 0
1, 191686, Note_on_c, 0, 76, 92
1, 191686, Note_on_c, 0, 42, 0
1, 191800, Note_on_c, 0, 76, 0
1, 191800, Note_on_c, 0, 72, 93
1, 191800, Note_on_c, 0, 44, 95
1, 191915, Note_on_c, 0, 72, 0
1, 191915, Note_on_c, 0, 75, 89
1, 191915, Note_on_c, 0, 44, 0
1, 192029, Note_on_c, 0, 75, 0
1, 192029, Note_on_c, 0, 73, 92
1, 192029, Note_on_c, 0, 42, 90
1, 192087, Note_on_c, 0, 42, 0
1, 192144, Note_on_c, 0, 73, 0
1, 192144, Note_on_c, 0, 76, 86
1, 192144, Note_on_c, 0, 40, 90
1, 192202, Note_on_c, 0, 40, 0
1, 192260, Note_on_c, 0, 76, 0
1, 192260, Note_on_c, 0, 75, 91
1, 192260, Note_on_c, 0, 39, 95
1, 192375, Note_on_c, 0, 75, 0
1, 192375, Note_on_c, 0, 78, 85
1, 192375, Note_on_c, 0, 39, 0
1, 192491, Note_on_c, 0, 78, 0
1, 192491, Note_on_c, 0, 72, 89
1, 192491, Note_on_c, 0, 44, 90
1, 192607, Note_on_c, 0, 72, 0
1, 192607, Note_on_c, 0, 75, 82
1, 192607, Note_on_c, 0, 44, 0
1, 192724, Note_on_c, 0, 75, 0
1, 192724, Note_on_c, 0, 76, 89
1, 192724, Note_on_c, 0, 37, 98
1, 192838, Note_on_c, 0, 76, 0
1, 192838, Note_on_c, 0, 73, 84
1, 192838, Note_on_c, 0, 37, 0
1, 192953, Note_on_c, 0, 73, 0
1, 192953, Note_on_c, 0, 71, 79
1, 192953, Note_on_c, 0, 44, 80
1, 193069, Note_on_c, 0, 71, 0
1, 193069, Note_on_c, 0, 69, 75
1, 193186, Note_on_c, 0, 69, 0
1, 193186, Note_on_c, 0, 68, 71
1, 193186, Note_on_c, 0, 44, 0
1, 193189, Note_on_c, 0, 46, 68
1, 193303, Note_on_c, 0, 68, 0
1, 193303, Note_on_c, 0, 66, 67
1, 193421, Note_on_c, 0, 66, 0
1, 193421, Note_on_c, 0, 64, 63
1, 193421, Note_on_c, 0, 46, 0
1, 193424, Note_on_c, 0, 48, 58
1, 193539, Note_on_c, 0, 64, 0
1, 193539, Note_on_c, 0, 63, 58
1, 193659, Note_on_c, 0, 63, 0
1, 193659, Note_on_c, 0, 64, 52
1, 193659, Note_on_c, 0, 48, 0
1, 193662, Note_on_c, 0, 49, 50
1, 193782, Note_on_c, 0, 64, 0
1, 193782, Note_on_c, 0, 61, 55
1, 193898, Note_on_c, 0, 61, 0
1, 193898, Note_on_c, 0, 64, 55
1, 193898, Note_on_c, 0, 49, 0
1, 193901, Note_on_c, 0, 52, 47
1, 194015, Note_on_c, 0, 64, 0
1, 194015, Note_on_c, 0, 68, 55
1, 194134, Note_on_c, 0, 68, 0
1, 194134, Note_on_c, 0, 64, 58
1, 194134, Note_on_c, 0, 52, 0
1, 194137, Note_on_c, 0, 51, 48
1, 194253, Note_on_c, 0, 64, 0
1, 194253, Note_on_c, 0, 61, 55
1, 194369, Note_on_c, 0, 61, 0
1, 194369, Note_on_c, 0, 64, 55
1, 194369, Note_on_c, 0, 51, 0
1, 194372, Note_on_c, 0, 49, 47
1, 194486, Note_on_c, 0, 64, 0
1, 194486, Note_on_c, 0, 69, 55
1, 194604, Note_on_c, 0, 69, 0
1, 194604, Note_on_c, 0, 63, 57
1, 194604, Note_on_c, 0, 49, 0
1, 194607, Note_on_c, 0, 47, 50
1, 194723, Note_on_c, 0, 63, 0
1, 194723, Note_on_c, 0, 59, 55
1, 194839, Note_on_c, 0, 59, 0
1, 194839, Note_on_c, 0, 63, 55
1, 194839, Note_on_c, 0, 47, 0
1, 194842, Note_on_c, 0, 51, 48
1, 194955, Note_on_c, 0, 63, 0
1, 194955, Note_on_c, 0, 69, 55
1, 195072, Note_on_c, 0, 69, 0
1, 195072, Note_on_c, 0, 63, 57
1, 195072, Note_on_c, 0, 51, 0
1, 195075, Note_on_c, 0, 56, 50
1, 195190, Note_on_c, 0, 63, 0
1, 195190, Note_on_c, 0, 59, 55
1, 195307, Note_on_c, 0, 59, 0
1, 195307, Note_on_c, 0, 63, 55
1, 195307, Note_on_c, 0, 56, 0
1, 195310, Note_on_c, 0, 47, 47
1, 195424, Note_on_c, 0, 63, 0
1, 195424, Note_on_c, 0, 68, 55
1, 195542, Note_on_c, 0, 68, 0
1, 195542, Note_on_c, 0, 68, 59
1, 195542, Note_on_c, 0, 47, 0
1, 195545, Note_on_c, 0, 45, 51
1, 195661, Note_on_c, 0, 68, 0
1, 195661, Note_on_c, 0, 61, 57
1, 195777, Note_on_c, 0, 61, 0
1, 195777, Note_on_c, 0, 68, 57
1, 195777, Note_on_c, 0, 45, 0
1, 195780, Note_on_c, 0, 49, 48
1, 195893, Note_on_c, 0, 68, 0
1, 195893, Note_on_c, 0, 73, 57
1, 196010, Note_on_c, 0, 73, 0
1, 196010, Note_on_c, 0, 66, 59
1, 196010, Note_on_c, 0, 49, 0
1, 196013, Note_on_c, 0, 47, 48
1, 196129, Note_on_c, 0, 66, 0
1, 196129, Note_on_c, 0, 63, 57
1, 196245, Note_on_c, 0, 63, 0
1, 196245, Note_on_c, 0, 66, 57
1, 196245, Note_on_c, 0, 47, 0
1, 196248, Note_on_c, 0, 45, 49
1, 196362, Note_on_c, 0, 66, 0
1, 196362, Note_on_c, 0, 73, 57
1, 196480, Note_on_c, 0, 73, 0
1, 196480, Note_on_c, 0, 68, 60
1, 196480, Note_on_c, 0, 45, 0
1, 196483, Note_on_c, 0, 44, 50
1, 196597, Note_on_c, 0, 68, 0
1, 196597, Note_on_c, 0, 64, 57
1, 196713, Note_on_c, 0, 64, 0
1, 196713, Note_on_c, 0, 68, 57
1, 196713, Note_on_c, 0, 44, 0
1, 196716, Note_on_c, 0, 47, 49
1, 196830, Note_on_c, 0, 68, 0
1, 196830, Note_on_c, 0, 73, 57
1, 196947, Note_on_c, 0, 73, 0
1, 196947, Note_on_c, 0, 68, 59
1, 196947, Note_on_c, 0, 47, 0
1, 196950, Note_on_c, 0, 52, 51
1, 197065, Note_on_c, 0, 68, 0
1, 197065, Note_on_c, 0, 64, 58
1, 197181, Note_on_c, 0, 64, 0
1, 197181, Note_on_c, 0, 68, 58
1, 197181, Note_on_c, 0, 52, 0
1, 197184, Note_on_c, 0, 44, 49
1, 197298, Note_on_c, 0, 68, 0
1, 197298, Note_on_c, 0, 71, 58
1, 197415, Note_on_c, 0, 71, 0
1, 197415, Note_on_c, 0, 67, 64
1, 197415, Note_on_c, 0, 44, 0
1, 197418, Note_on_c, 0, 40, 51
1, 197533, Note_on_c, 0, 67, 0
1, 197533, Note_on_c, 0, 64, 57
1, 197649, Note_on_c, 0, 64, 0
1, 197649, Note_on_c, 0, 67, 58
1, 197649, Note_on_c, 0, 40, 0
1, 197652, Note_on_c, 0, 52, 47
1, 197767, Note_on_c, 0, 67, 0
1, 197767, Note_on_c, 0, 70, 60
1, 197767, Note_on_c, 0, 52, 0
1, 197770, Note_on_c, 0, 51, 47
1, 197885, Note_on_c, 0, 70, 0
1, 197885, Note_on_c, 0, 76, 62
1, 197885, Note_on_c, 0, 51, 0
1, 197888, Note_on_c, 0, 49, 46
1, 198005, Note_on_c, 0, 76, 0
1, 198005, Note_on_c, 0, 70, 58
1, 198121, Note_on_c, 0, 70, 0
1, 198121, Note_on_c, 0, 76, 59
1, 198121, Note_on_c, 0, 49, 0
1, 198124, Note_on_c, 0, 48, 48
1, 198238, Note_on_c, 0, 76, 0
1, 198238, Note_on_c, 0, 79, 61
1, 198355, Note_on_c, 0, 79, 0
1, 198355, Note_on_c, 0, 75, 61
1, 198355, Note_on_c, 0, 48, 0
1, 198358, Note_on_c, 0, 47, 53
1, 198474, Note_on_c, 0, 75, 0
1, 198474, Note_on_c, 0, 79, 59
1, 198589, Note_on_c, 0, 79, 0
1, 198589, Note_on_c, 0, 75, 60
1, 198589, Note_on_c, 0, 47, 0
1, 198592, Note_on_c, 0, 54, 49
1, 198705, Note_on_c, 0, 75, 0
1, 198705, Note_on_c, 0, 78, 58
1, 198821, Note_on_c, 0, 78, 0
1, 198821, Note_on_c, 0, 69, 59
1, 198821, Note_on_c, 0, 54, 0
1, 198824, Note_on_c, 0, 59, 57
1, 198938, Note_on_c, 0, 69, 0
1, 198938, Note_on_c, 0, 76, 58
1, 199056, Note_on_c, 0, 76, 0
1, 199056, Note_on_c, 0, 69, 59
1, 199056, Note_on_c, 0, 59, 0
1, 199059, Note_on_c, 0, 47, 44
1, 199174, Note_on_c, 0, 69, 0
1, 199174, Note_on_c, 0, 75, 58
1, 199292, Note_on_c, 0, 75, 0
1, 199292, Note_on_c, 0, 69, 57
1, 199292, Note_on_c, 0, 47, 0
1, 199295, Note_on_c, 0, 48, 46
1, 199412, Note_on_c, 0, 69, 0
1, 199412, Note_on_c, 0, 78, 54
1, 199531, Note_on_c, 0, 78, 0
1, 199531, Note_on_c, 0, 68, 57
1, 199531, Note_on_c, 0, 48, 0
1, 199534, Note_on_c, 0, 49, 41
1, 199652, Note_on_c, 0, 68, 0
1, 199652, Note_on_c, 0, 76, 54
1, 199773, Note_on_c, 0, 76, 0
1, 199773, Note_on_c, 0, 64, 56
1, 199773, Note_on_c, 0, 49, 0
1, 199776, Note_on_c, 0, 44, 46
1, 199895, Note_on_c, 0, 64, 0
1, 199895, Note_on_c, 0, 73, 54
1, 200017, Note_on_c, 0, 73, 0
1, 200017, Note_on_c, 0, 61, 55
1, 200017, Note_on_c, 0, 44, 0
1, 200020, Note_on_c, 0, 45, 42
1, 200140, Note_on_c, 0, 61, 0
1, 200140, Note_on_c, 0, 69, 54
1, 200264, Note_on_c, 0, 69, 0
1, 200264, Note_on_c, 0, 59, 55
1, 200264, Note_on_c, 0, 45, 0
1, 200267, Note_on_c, 0, 47, 46
1, 200382, Note_on_c, 0, 59, 0
1, 200382, Note_on_c, 0, 68, 54
1, 200500, Note_on_c, 0, 68, 0
1, 200500, Note_on_c, 0, 64, 55
1, 200500, Note_on_c, 0, 47, 0
1, 200503, Note_on_c, 0, 56, 44
1, 200618, Note_on_c, 0, 64, 0
1, 200618, Note_on_c, 0, 71, 54
1, 200736, Note_on_c, 0, 71, 0
1, 200736, Note_on_c, 0, 59, 55
1, 200736, Note_on_c, 0, 56, 0
1, 200739, Note_on_c, 0, 47, 46
1, 200855, Note_on_c, 0, 59, 0
1, 200855, Note_on_c, 0, 69, 54
1, 200973, Note_on_c, 0, 69, 0
1, 200973, Note_on_c, 0, 63, 55
1, 200973, Note_on_c, 0, 47, 0
1, 200976, Note_on_c, 0, 57, 42
1, 201091, Note_on_c, 0, 63, 0
1, 201091, Note_on_c, 0, 71, 54
1, 201208, Note_on_c, 0, 71, 0
1, 201208, Note_on_c, 0, 69, 55
1, 201208, Note_on_c, 0, 57, 0
1, 201211, Note_on_c, 0, 47, 46
1, 201324, Note_on_c, 0, 63, 53
1, 201439, Note_on_c, 0, 63, 0
1, 201439, Note_on_c, 0, 59, 53
1, 201439, Note_on_c, 0, 47, 0
1, 201442, Note_on_c, 0, 54, 41
1, 201554, Note_on_c, 0, 59, 0
1, 201554, Note_on_c, 0, 69, 0
1, 201554, Note_on_c, 0, 69, 55
1, 201670, Note_on_c, 0, 69, 0
1, 201670, Note_on_c, 0, 68, 55
1, 201670, Note_on_c, 0, 54, 0
1, 201673, Note_on_c, 0, 52, 47
1, 201786, Note_on_c, 0, 68, 0
1, 201786, Note_on_c, 0, 59, 52
1, 201902, Note_on_c, 0, 59, 0
1, 201902, Note_on_c, 0, 64, 54
1, 201902, Note_on_c, 0, 52, 0
1, 201905, Note_on_c, 0, 49, 42
1, 202017, Note_on_c, 0, 64, 0
1, 202017, Note_on_c, 0, 66, 55
1, 202017, Note_on_c, 0, 49, 0
1, 202020, Note_on_c, 0, 51, 42
1, 202132, Note_on_c, 0, 66, 0
1, 202132, Note_on_c, 0, 68, 57
1, 202132, Note_on_c, 0, 51, 0
1, 202135, Note_on_c, 0, 52, 46
1, 202248, Note_on_c, 0, 68, 0
1, 202248, Note_on_c, 0, 64, 53
1, 202363, Note_on_c, 0, 64, 0
1, 202363, Note_on_c, 0, 68, 55
1, 202363, Note_on_c, 0, 52, 0
1, 202366, Note_on_c, 0, 56, 43
1, 202478, Note_on_c, 0, 68, 0
1, 202478, Note_on_c, 0, 76, 54
1, 202593, Note_on_c, 0, 76, 0
1, 202593, Note_on_c, 0, 68, 57
1, 202593, Note_on_c, 0, 56, 0
1, 202596, Note_on_c, 0, 53, 46
1, 202711, Note_on_c, 0, 68, 0
1, 202711, Note_on_c, 0, 75, 54
1, 202829, Note_on_c, 0, 75, 0
1, 202829, Note_on_c, 0, 68, 58
1, 202829, Note_on_c, 0, 53, 0
1, 202832, Note_on_c, 0, 61, 43
1, 202947, Note_on_c, 0, 68, 0
1, 202947, Note_on_c, 0, 73, 54
1, 203065, Note_on_c, 0, 73, 0
1, 203065, Note_on_c, 0, 69, 58
1, 203065, Note_on_c, 0, 61, 0
1, 203068, Note_on_c, 0, 54, 46
1, 203183, Note_on_c, 0, 69, 0
1, 203183, Note_on_c, 0, 61, 54
1, 203299, Note_on_c, 0, 61, 0
1, 203299, Note_on_c, 0, 69, 56
1, 203299, Note_on_c, 0, 54, 0
1, 203302, Note_on_c, 0, 42, 42
1, 203414, Note_on_c, 0, 69, 0
1, 203414, Note_on_c, 0, 73, 56
1, 203530, Note_on_c, 0, 73, 0
1, 203530, Note_on_c, 0, 68, 57
1, 203530, Note_on_c, 0, 42, 0
1, 203533, Note_on_c, 0, 44, 42
1, 203646, Note_on_c, 0, 68, 0
1, 203646, Note_on_c, 0, 71, 53
1, 203761, Note_on_c, 0, 71, 0
1, 203761, Note_on_c, 0, 66, 55
1, 203761, Note_on_c, 0, 44, 0
1, 203764, Note_on_c, 0, 45, 43
1, 203877, Note_on_c, 0, 66, 0
1, 203877, Note_on_c, 0, 69, 53
1, 203993, Note_on_c, 0, 69, 0
1, 203993, Note_on_c, 0, 64, 55
1, 203993, Note_on_c, 0, 45, 0
1, 203996, Note_on_c, 0, 44, 46
1, 204126, Note_on_c, 0, 64, 0
1, 204126, Note_on_c, 0, 56, 53
1, 204258, Note_on_c, 0, 56, 0
1, 204258, Note_on_c, 0, 64, 53
1, 204258, Note_on_c, 0, 44, 0
1, 204261, Note_on_c, 0, 49, 41
1, 204390, Note_on_c, 0, 64, 0
1, 204390, Note_on_c, 0, 68, 53
1, 204522, Note_on_c, 0, 68, 0
1, 204522, Note_on_c, 0, 61, 55
1, 204522, Note_on_c, 0, 49, 0
1, 204525, Note_on_c, 0, 44, 44
1, 204655, Note_on_c, 0, 61, 0
1, 204655, Note_on_c, 0, 55, 50
1, 204787, Note_on_c, 0, 55, 0
1, 204787, Note_on_c, 0, 61, 51
1, 204787, Note_on_c, 0, 44, 0
1, 204790, Note_on_c, 0, 52, 42
1, 204919, Note_on_c, 0, 61, 0
1, 204919, Note_on_c, 0, 69, 51
1, 205052, Note_on_c, 0, 69, 0
1, 205052, Note_on_c, 0, 63, 53
1, 205052, Note_on_c, 0, 52, 0
1, 205055, Note_on_c, 0, 44, 42
1, 205195, Note_on_c, 0, 63, 0
1, 205195, Note_on_c, 0, 54, 49
1, 205335, Note_on_c, 0, 54, 0
1, 205335, Note_on_c, 0, 63, 49
1, 205335, Note_on_c, 0, 44, 0
1, 205338, Note_on_c, 0, 49, 41
1, 205476, Note_on_c, 0, 63, 0
1, 205476, Note_on_c, 0, 68, 49
1, 205616, Note_on_c, 0, 68, 0
1, 205616, Note_on_c, 0, 63, 52
1, 205616, Note_on_c, 0, 49, 0
1, 205619, Note_on_c, 0, 44, 42
1, 205756, Note_on_c, 0, 63, 0
1, 205756, Note_on_c, 0, 54, 48
1, 205897, Note_on_c, 0, 54, 0
1, 205897, Note_on_c, 0, 63, 48
1, 205897, Note_on_c, 0, 44, 0
1, 205900, Note_on_c, 0, 48, 39
1, 206037, Note_on_c, 0, 63, 0
1, 206037, Note_on_c, 0, 68, 48
1, 206178, Note_on_c, 0, 68, 0
1, 206178, Note_on_c, 0, 61, 48
1, 206178, Note_on_c, 0, 48, 0
1, 206181, Note_on_c, 0, 49, 48
1, 206232, Control_c, 0, 64, 127
1, 206310, Note_on_c, 0, 61, 0
1, 206310, Note_on_c, 0, 52, 45
1, 206441, Note_on_c, 0, 52, 0
1, 206441, Note_on_c, 0, 61, 45
1, 206441, Note_on_c, 0, 49, 0
1, 206573, Note_on_c, 0, 61, 0
1, 206573, Note_on_c, 0, 64, 45
1, 206704, Note_on_c, 0, 64, 0
1, 206704, Note_on_c, 0, 44, 48
1, 206713, Control_c, 0, 64, 0
1, 206805, Control_c, 0, 64, 127
1, 206836, Note_on_c, 0, 44, 0
1, 206836, Note_on_c, 0, 37, 45
1, 206968, Note_on_c, 0, 37, 0
1, 206968, Note_on_c, 0, 44, 45
1, 207099, Note_on_c, 0, 44, 0
1, 207099, Note_on_c, 0, 49, 46
1, 207231, Note_on_c, 0, 61, 48
1, 207231, Note_on_c, 0, 49, 0
1, 207231, Note_on_c, 0, 45, 48
1, 207234, Control_c, 0, 64, 0
1, 207308, Control_c, 0, 64, 127
1, 207363, Note_on_c, 0, 61, 0
1, 207363, Note_on_c, 0, 52, 44
1, 207494, Note_on_c, 0, 52, 0
1, 207494, Note_on_c, 0, 61, 44
1, 207494, Note_on_c, 0, 45, 0
1, 207626, Note_on_c, 0, 61, 0
1, 207626, Note_on_c, 0, 64, 44
1, 207758, Note_on_c, 0, 64, 0
1, 207758, Note_on_c, 0, 40, 48
1, 207773, Control_c, 0, 64, 0
1, 207850, Control_c, 0, 64, 127
1, 207889, Note_on_c, 0, 40, 0
1, 207889, Note_on_c, 0, 33, 45
1, 208021, Note_on_c, 0, 33, 0
1, 208021, Note_on_c, 0, 40, 45
1, 208153, Note_on_c, 0, 40, 0
1, 208153, Note_on_c, 0, 45, 45
1, 208284, Note_on_c, 0, 62, 48
1, 208284, Note_on_c, 0, 45, 0
1, 208284, Control_c, 0, 64, 0
1, 208287, Note_on_c, 0, 42, 48
1, 208361, Control_c, 0, 64, 127
1, 208400, Note_on_c, 0, 62, 0
1, 208400, Note_on_c, 0, 57, 46
1, 208516, Note_on_c, 0, 57, 0
1, 208516, Note_on_c, 0, 62, 46
1, 208516, Note_on_c, 0, 42, 0
1, 208632, Note_on_c, 0, 62, 0
1, 208632, Note_on_c, 0, 66, 46
1, 208747, Note_on_c, 0, 66, 0
1, 208747, Note_on_c, 0, 66, 45
1, 208747, Note_on_c, 0, 50, 46
1, 208863, Note_on_c, 0, 66, 0
1, 208863, Note_on_c, 0, 69, 49
1, 208863, Note_on_c, 0, 50, 0
1, 208866, Note_on_c, 0, 54, 47
1, 208980, Note_on_c, 0, 69, 0
1, 208980, Note_on_c, 0, 74, 52
1, 208980, Note_on_c, 0, 54, 0
1, 208983, Note_on_c, 0, 57, 51
1, 209097, Note_on_c, 0, 74, 0
1, 209097, Note_on_c, 0, 78, 56
1, 209097, Note_on_c, 0, 57, 0
1, 209100, Note_on_c, 0, 62, 54
1, 209223, Note_on_c, 0, 78, 0
1, 209223, Note_on_c, 0, 81, 59
1, 209223, Note_on_c, 0, 62, 0
1, 209226, Note_on_c, 0, 66, 56
1, 209231, Control_c, 0, 64, 0
1, 209325, Control_c, 0, 64, 127
1, 209349, Note_on_c, 0, 74, 46
1, 209476, Note_on_c, 0, 74, 0
1, 209476, Note_on_c, 0, 81, 0
1, 209476, Note_on_c, 0, 69, 47
1, 209479, Note_on_c, 0, 78, 54
1, 209479, Note_on_c, 0, 66, 0
1, 209479, Note_on_c, 0, 54, 54
1, 209482, Note_on_c, 0, 62, 54
1, 209602, Note_on_c, 0, 69, 0
1, 209602, Note_on_c, 0, 71, 47
1, 209728, Note_on_c, 0, 71, 0
1, 209728, Note_on_c, 0, 78, 0
1, 209728, Note_on_c, 0, 73, 45
1, 209731, Note_on_c, 0, 76, 52
1, 209731, Note_on_c, 0, 62, 0
1, 209731, Note_on_c, 0, 54, 0
1, 209734, Note_on_c, 0, 56, 51
1, 209734, Note_on_c, 0, 64, 51
1, 209744, Control_c, 0, 64, 0
1, 209812, Control_c, 0, 64, 127
1, 209854, Note_on_c, 0, 73, 0
1, 209854, Note_on_c, 0, 68, 45
1, 209980, Note_on_c, 0, 68, 0
1, 209980, Note_on_c, 0, 76, 0
1, 209980, Note_on_c, 0, 72, 45
1, 209983, Note_on_c, 0, 75, 50
1, 209983, Note_on_c, 0, 64, 0
1, 209983, Note_on_c, 0, 56, 0
1, 209986, Note_on_c, 0, 56, 49
1, 209986, Note_on_c, 0, 66, 49
1, 209986, Control_c, 0, 64, 0
1, 210065, Control_c, 0, 64, 127
1, 210107, Note_on_c, 0, 72, 0
1, 210107, Note_on_c, 0, 68, 45
1, 210233, Note_on_c, 0, 68, 0
1, 210233, Note_on_c, 0, 75, 0
1, 210233, Note_on_c, 0, 73, 48
1, 210236, Note_on_c, 0, 66, 0
1, 210236, Note_on_c, 0, 56, 0
1, 210236, Control_c, 0, 64, 0
1, 210239, Note_on_c, 0, 64, 46
1, 210239, Note_on_c, 0, 61, 46
1, 210302, Control_c, 0, 64, 127
1, 210351, Note_on_c, 0, 73, 0
1, 210351, Note_on_c, 0, 64, 44
1, 210469, Note_on_c, 0, 64, 0
1, 210469, Note_on_c, 0, 73, 44
1, 210469, Note_on_c, 0, 61, 0
1, 210472, Note_on_c, 0, 64, 0
1, 210588, Note_on_c, 0, 73, 0
1, 210588, Note_on_c, 0, 76, 44
1, 210706, Note_on_c, 0, 76, 0
1, 210706, Note_on_c, 0, 56, 48
1, 210711, Control_c, 0, 64, 0
1, 210810, Control_c, 0, 64, 127
1, 210824, Note_on_c, 0, 56, 0
1, 210824, Note_on_c, 0, 49, 45
1, 210942, Note_on_c, 0, 49, 0
1, 210942, Note_on_c, 0, 56, 45
1, 211061, Note_on_c, 0, 56, 0
1, 211061, Note_on_c, 0, 61, 45
1, 211179, Note_on_c, 0, 73, 48
1, 211179, Note_on_c, 0, 61, 0
1, 211179, Note_on_c, 0, 57, 46
1, 211186, Control_c, 0, 64, 0
1, 211283, Control_c, 0, 64, 127
1, 211297, Note_on_c, 0, 73, 0
1, 211297, Note_on_c, 0, 64, 43
1, 211415, Note_on_c, 0, 64, 0
1, 211415, Note_on_c, 0, 73, 43
1, 211415, Note_on_c, 0, 57, 0
1, 211533, Note_on_c, 0, 73, 0
1, 211533, Note_on_c, 0, 76, 43
1, 211652, Note_on_c, 0, 76, 0
1, 211652, Note_on_c, 0, 52, 48
1, 211770, Note_on_c, 0, 52, 0
1, 211770, Note_on_c, 0, 45, 42
1, 211888, Note_on_c, 0, 45, 0
1, 211888, Note_on_c, 0, 52, 42
1, 212006, Note_on_c, 0, 52, 0
1, 212006, Note_on_c, 0, 57, 42
1, 212125, Note_on_c, 0, 74, 48
1, 212125, Note_on_c, 0, 57, 0
1, 212125, Note_on_c, 0, 54, 48
1, 212131, Control_c, 0, 64, 0
1, 212222, Control_c, 0, 64, 127
1, 212238, Note_on_c, 0, 74, 0
1, 212238, Note_on_c, 0, 69, 49
1, 212352, Note_on_c, 0, 69, 0
1, 212352, Note_on_c, 0, 74, 54
1, 212352, Note_on_c, 0, 54, 0
1, 212355, Note_on_c, 0, 57, 51
1, 212465, Note_on_c, 0, 74, 0
1, 212465, Note_on_c, 0, 78, 59
1, 212465, Note_on_c, 0, 57, 0
1, 212468, Note_on_c, 0, 62, 57
1, 212578, Note_on_c, 0, 78, 0
1, 212578, Note_on_c, 0, 81, 65
1, 212578, Note_on_c, 0, 62, 0
1, 212581, Note_on_c, 0, 66, 63
1, 212692, Note_on_c, 0, 81, 0
1, 212692, Note_on_c, 0, 78, 63
1, 212692, Note_on_c, 0, 66, 0
1, 212695, Note_on_c, 0, 62, 60
1, 212807, Note_on_c, 0, 78, 0
1, 212807, Note_on_c, 0, 74, 60
1, 212807, Note_on_c, 0, 62, 0
1, 212810, Note_on_c, 0, 57, 58
1, 212923, Note_on_c, 0, 74, 0
1, 212923, Note_on_c, 0, 69, 57
1, 212923, Note_on_c, 0, 57, 0
1, 212926, Note_on_c, 0, 54, 56
1, 213052, Note_on_c, 0, 69, 0
1, 213052, Note_on_c, 0, 68, 54
1, 213052, Note_on_c, 0, 54, 0
1, 213055, Note_on_c, 0, 56, 54
1, 213058, Control_c, 0, 64, 0
1, 213154, Control_c, 0, 64, 127
1, 213178, Note_on_c, 0, 68, 0
1, 213178, Note_on_c, 0, 76, 53
1, 213303, Note_on_c, 0, 76, 0
1, 213303, Note_on_c, 0, 64, 57
1, 213303, Note_on_c, 0, 56, 0
1, 213306, Note_on_c, 0, 56, 49
1, 213429, Note_on_c, 0, 64, 0
1, 213429, Note_on_c, 0, 73, 52
1, 213554, Note_on_c, 0, 73, 0
1, 213554, Note_on_c, 0, 66, 56
1, 213554, Note_on_c, 0, 56, 0
1, 213557, Note_on_c, 0, 56, 48
1, 213564, Control_c, 0, 64, 0
1, 213634, Control_c, 0, 64, 127
1, 213683, Note_on_c, 0, 66, 0
1, 213683, Note_on_c, 0, 75, 51
1, 213813, Note_on_c, 0, 75, 0
1, 213813, Note_on_c, 0, 63, 54
1, 213813, Note_on_c, 0, 56, 0
1, 213816, Note_on_c, 0, 56, 47
1, 213816, Control_c, 0, 64, 0
1, 213880, Control_c, 0, 64, 127
1, 213942, Note_on_c, 0, 63, 0
1, 213942, Note_on_c, 0, 72, 50
1, 214071, Note_on_c, 0, 72, 0
1, 214071, Note_on_c, 0, 64, 56
1, 214071, Note_on_c, 0, 56, 0
1, 214074, Note_on_c, 0, 56, 45
1, 214080, Control_c, 0, 64, 0
1, 214159, Control_c, 0, 64, 127
1, 214214, Note_on_c, 0, 64, 0
1, 214214, Note_on_c, 0, 73, 47
1, 214357, Note_on_c, 0, 73, 0
1, 214357, Note_on_c, 0, 61, 47
1, 214357, Note_on_c, 0, 64, 47
1, 214360, Note_on_c, 0, 44, 42
1, 214366, Control_c, 0, 64, 0
1, 214452, Control_c, 0, 64, 127
1, 214500, Note_on_c, 0, 64, 0
1, 214500, Note_on_c, 0, 61, 0
1, 214500, Note_on_c, 0, 68, 40
1, 214643, Note_on_c, 0, 68, 0
1, 214643, Note_on_c, 0, 63, 42
1, 214643, Note_on_c, 0, 66, 42
1, 214646, Note_on_c, 0, 44, 0
1, 214646, Note_on_c, 0, 56, 0
1, 214646, Note_on_c, 0, 44, 37
1, 214670, Control_c, 0, 64, 0
1, 214764, Control_c, 0, 64, 127
1, 214824, Note_on_c, 0, 66, 0
1, 214824, Note_on_c, 0, 63, 0
1, 214824, Note_on_c, 0, 68, 36
1, 215005, Note_on_c, 0, 68, 0
1, 215005, Note_on_c, 0, 60, 38
1, 215005, Note_on_c, 0, 63, 38
1, 215008, Note_on_c, 0, 44, 0
1, 215008, Note_on_c, 0, 44, 34
1, 215016, Control_c, 0, 64, 0
1, 215121, Control_c, 0, 64, 127
1, 215204, Note_on_c, 0, 63, 0
1, 215204, Note_on_c, 0, 60, 0
1, 215204, Note_on_c, 0, 68, 34
1, 215430, Note_on_c, 0, 68, 0
1, 215430, Note_on_c, 0, 44, 0
1, 215430, Control_c, 0, 64, 0
1, 216891, Note_on_c, 0, 65, 35
1, 216891, Control_c, 0, 91, 127
1, 216891, Note_on_c, 0, 49, 24
1, 216894, Note_on_c, 0, 56, 24
1, 216894, Note_on_c, 0, 61, 24
1, 216894, Control_c, 0, 91, 127
1, 216923, Control_c, 0, 64, 127
1, 217070, Note_on_c, 0, 65, 0
1, 217070, Note_on_c, 0, 68, 35
1, 217248, Note_on_c, 0, 68, 0
1, 217248, Note_on_c, 0, 66, 28
1, 217248, Note_on_c, 0, 70, 31
1, 217251, Note_on_c, 0, 61, 0
1, 217251, Note_on_c, 0, 56, 0
1, 217251, Note_on_c, 0, 49, 0
1, 217254, Note_on_c, 0, 49, 24
1, 217254, Note_on_c, 0, 56, 24
1, 217254, Note_on_c, 0, 61, 24
1, 217254, Control_c, 0, 64, 0
1, 217413, Control_c, 0, 64, 127
1, 217997, Note_on_c, 0, 70, 0
1, 217997, Note_on_c, 0, 66, 0
1, 217997, Note_on_c, 0, 65, 26
1, 218000, Note_on_c, 0, 68, 29
1, 218000, Note_on_c, 0, 61, 0
1, 218000, Note_on_c, 0, 56, 0
1, 218003, Note_on_c, 0, 49, 0
1, 218003, Note_on_c, 0, 49, 22
1, 218003, Note_on_c, 0, 56, 22
1, 218006, Note_on_c, 0, 61, 22
1, 218006, Control_c, 0, 64, 0
1, 218401, Note_on_c, 0, 68, 0
1, 218401, Note_on_c, 0, 65, 0
1, 218401, Note_on_c, 0, 65, 35
1, 218404, Note_on_c, 0, 61, 0
1, 218404, Note_on_c, 0, 56, 0
1, 218404, Note_on_c, 0, 49, 0
1, 218407, Control_c, 0, 64, 127
1, 218407, Note_on_c, 0, 49, 24
1, 218407, Note_on_c, 0, 56, 24
1, 218410, Note_on_c, 0, 61, 24
1, 218604, Note_on_c, 0, 65, 0
1, 218604, Note_on_c, 0, 68, 35
1, 218871, Note_on_c, 0, 68, 0
1, 218871, Note_on_c, 0, 66, 30
1, 218871, Note_on_c, 0, 70, 30
1, 218874, Note_on_c, 0, 73, 34
1, 218874, Note_on_c, 0, 61, 0
1, 218874, Note_on_c, 0, 56, 0
1, 218877, Note_on_c, 0, 49, 0
1, 218877, Note_on_c, 0, 49, 24
1, 218877, Note_on_c, 0, 56, 24
1, 218880, Note_on_c, 0, 61, 24
1, 218885, Control_c, 0, 64, 0
1, 219073, Control_c, 0, 64, 127
1, 219869, Note_on_c, 0, 73, 0
1, 219869, Note_on_c, 0, 70, 0
1, 219869, Note_on_c, 0, 66, 0
1, 219872, Note_on_c, 0, 65, 26
1, 219872, Note_on_c, 0, 68, 32
1, 219872, Note_on_c, 0, 61, 0
1, 219875, Note_on_c, 0, 56, 0
1, 219875, Note_on_c, 0, 49, 0
1, 219875, Note_on_c, 0, 49, 24
1, 219878, Note_on_c, 0, 56, 24
1, 219878, Note_on_c, 0, 61, 24
1, 219915, Control_c, 0, 64, 0
1, 220299, Control_c, 0, 64, 127
1, 220992, Note_on_c, 0, 68, 0
1, 220992, Note_on_c, 0, 65, 0
1, 220992, Note_on_c, 0, 65, 27
1, 220995, Note_on_c, 0, 68, 31
1, 220995, Note_on_c, 0, 61, 0
1, 220995, Note_on_c, 0, 56, 0
1, 220998, Note_on_c, 0, 49, 0
1, 220998, Note_on_c, 0, 49, 22
1, 220998, Note_on_c, 0, 56, 22
1, 221001, Note_on_c, 0, 61, 22
1, 223238, Note_on_c, 0, 68, 0
1, 223238, Note_on_c, 0, 65, 0
1, 223238, Note_on_c, 0, 61, 0
1, 223241, Note_on_c, 0, 56, 0
1, 223241, Note_on_c, 0, 49, 0
1, 223241, Note_on_c, 0, 54, 34
1, 223244, Note_on_c, 0, 44, 34
1, 223244, Control_c, 0, 64, 0
1, 223378, Control_c, 0, 64, 127
1, 223435, Note_on_c, 0, 54, 0
1, 223435, Note_on_c, 0, 63, 30
1, 223625, Note_on_c, 0, 63, 0
1, 223625, Note_on_c, 0, 44, 0
1, 223625, Note_on_c, 0, 51, 34
1, 223628, Note_on_c, 0, 44, 34
1, 223635, Control_c, 0, 64, 0
1, 223729, Control_c, 0, 64, 127
1, 223808, Note_on_c, 0, 51, 0
1, 223808, Note_on_c, 0, 60, 29
1, 223986, Note_on_c, 0, 60, 0
1, 223986, Note_on_c, 0, 44, 0
1, 223986, Note_on_c, 0, 52, 37
1, 223989, Note_on_c, 0, 44, 37
1, 223997, Control_c, 0, 64, 0
1, 224094, Control_c, 0, 64, 127
1, 224177, Note_on_c, 0, 52, 0
1, 224177, Note_on_c, 0, 61, 32
1, 224372, Note_on_c, 0, 61, 0
1, 224372, Note_on_c, 0, 44, 0
1, 224372, Note_on_c, 0, 56, 38
1, 224375, Note_on_c, 0, 44, 38
1, 224380, Control_c, 0, 64, 0
1, 224493, Control_c, 0, 64, 127
1, 224570, Note_on_c, 0, 56, 0
1, 224570, Note_on_c, 0, 64, 35
1, 224771, Note_on_c, 0, 64, 0
1, 224771, Note_on_c, 0, 44, 0
1, 224771, Note_on_c, 0, 54, 33
1, 224774, Note_on_c, 0, 44, 33
1, 224792, Control_c, 0, 64, 0
1, 224899, Control_c, 0, 64, 127
1, 225016, Note_on_c, 0, 54, 0
1, 225016, Note_on_c, 0, 63, 29
1, 225268, Note_on_c, 0, 63, 0
1, 225268, Note_on_c, 0, 44, 0
1, 225268, Note_on_c, 0, 51, 32
1, 225271, Note_on_c, 0, 44, 32
1, 225278, Control_c, 0, 64, 0
1, 225389, Control_c, 0, 64, 127
1, 225526, Note_on_c, 0, 51, 0
1, 225526, Note_on_c, 0, 60, 27
1, 225975, Note_on_c, 0, 60, 0
1, 225975, Note_on_c, 0, 44, 0
1, 225975, Note_on_c, 0, 37, 24
1, 225978, Note_on_c, 0, 44, 24
1, 225978, Note_on_c, 0, 49, 24
1, 225978, Note_on_c, 0, 52, 24
1, 225981, Note_on_c, 0, 56, 24
1, 225981, Note_on_c, 0, 61, 27
1, 226001, Control_c, 0, 64, 0
1, 227072, Control_c, 0, 64, 127
1, 229569, Note_on_c, 0, 61, 0
1, 229569, Note_on_c, 0, 44, 0
1, 229569, Note_on_c, 0, 49, 0
1, 229572, Note_on_c, 0, 37, 0
1, 229572, Note_on_c, 0, 56, 0
1, 229572, Note_on_c, 0, 52, 0
1, 231666, Control_c, 0, 64, 0
1, 233164, End_track
0, 0, End_of_file
