0, 0, Header, 0, 1, 384
1, 0, Start_track
1, 0, Title_t, "Sonate D960, 2. Satz"
1, 0, Time_signature, 4, 2, 24, 8
1, 0, Key_signature, 0, "major"
1, 0, Tempo, 512821
1, 0, Program_c, 0, 1
1, 0, Control_c, 0, 7, 105
1, 0, Control_c, 0, 91, 127
1, 748, Note_on_c, 0, 64, 65
1, 748, Note_on_c, 0, 68, 73
1, 748, Control_c, 0, 91, 127
1, 751, Program_c, 0, 1
1, 751, Control_c, 0, 7, 100
1, 751, Note_on_c, 0, 37, 57
1, 775, Control_c, 0, 64, 127
1, 1210, Note_on_c, 0, 37, 0
1, 1556, Note_on_c, 0, 49, 53
1, 1671, Note_on_c, 0, 49, 0
1, 1671, Note_on_c, 0, 61, 58
1, 2133, Note_on_c, 0, 61, 0
1, 2133, Note_on_c, 0, 73, 57
1, 2616, Note_on_c, 0, 73, 0
1, 2616, Note_on_c, 0, 68, 0
1, 2616, Note_on_c, 0, 64, 0
1, 2619, Note_on_c, 0, 64, 61
1, 2619, Note_on_c, 0, 68, 67
1, 2672, Control_c, 0, 64, 0
1, 2729, Control_c, 0, 64, 127
1, 3340, Note_on_c, 0, 68, 0
1, 3340, Note_on_c, 0, 64, 0
1, 3340, Note_on_c, 0, 66, 66
1, 3343, Note_on_c, 0, 63, 60
1, 3582, Note_on_c, 0, 63, 0
1, 3582, Note_on_c, 0, 66, 0
1, 3582, Note_on_c, 0, 63, 67
1, 3585, Note_on_c, 0, 66, 75
1, 3585, Note_on_c, 0, 37, 57
1, 3636, Control_c, 0, 64, 0
1, 3724, Control_c, 0, 64, 127
1, 4044, Note_on_c, 0, 37, 0
1, 4390, Note_on_c, 0, 49, 53
1, 4505, Note_on_c, 0, 49, 0
1, 4505, Note_on_c, 0, 61, 58
1, 4967, Note_on_c, 0, 61, 0
1, 4967, Note_on_c, 0, 73, 57
1, 5445, Note_on_c, 0, 73, 0
1, 5445, Note_on_c, 0, 66, 0
1, 5445, Note_on_c, 0, 63, 0
1, 5448, Note_on_c, 0, 66, 70
1, 5448, Note_on_c, 0, 63, 63
1, 5473, Control_c, 0, 64, 0
1, 5587, Control_c, 0, 64, 127
1, 6403, Note_on_c, 0, 63, 0
1, 6403, Note_on_c, 0, 66, 0
1, 6403, Note_on_c, 0, 69, 75
1, 6406, Note_on_c, 0, 66, 67
1, 6406, Note_on_c, 0, 37, 57
1, 6456, Control_c, 0, 64, 0
1, 6545, Control_c, 0, 64, 127
1, 6864, Note_on_c, 0, 37, 0
1, 7210, Note_on_c, 0, 49, 53
1, 7326, Note_on_c, 0, 49, 0
1, 7326, Note_on_c, 0, 61, 58
1, 7787, Note_on_c, 0, 61, 0
1, 7787, Note_on_c, 0, 73, 59
1, 8266, Note_on_c, 0, 73, 0
1, 8266, Note_on_c, 0, 66, 0
1, 8266, Note_on_c, 0, 69, 0
1, 8269, Note_on_c, 0, 66, 59
1, 8269, Note_on_c, 0, 69, 65
1, 8294, Control_c, 0, 64, 0
1, 8378, Control_c, 0, 64, 127
1, 8745, Note_on_c, 0, 69, 0
1, 8745, Note_on_c, 0, 66, 0
1, 8745, Note_on_c, 0, 68, 62
1, 8748, Note_on_c, 0, 64, 56
1, 8984, Note_on_c, 0, 64, 0
1, 8984, Note_on_c, 0, 68, 0
1, 8984, Note_on_c, 0, 63, 54
1, 8987, Note_on_c, 0, 66, 60
1, 9223, Note_on_c, 0, 66, 0
1, 9223, Note_on_c, 0, 63, 0
1, 9223, Note_on_c, 0, 68, 73
1, 9226, Note_on_c, 0, 64, 65
1, 9226, Control_c, 0, 64, 0
1, 9226, Note_on_c, 0, 37, 57
1, 9325, Control_c, 0, 64, 127
1, 9685, Note_on_c, 0, 37, 0
1, 10031, Note_on_c, 0, 49, 53
1, 10146, Note_on_c, 0, 49, 0
1, 10146, Note_on_c, 0, 61, 58
1, 10608, Note_on_c, 0, 61, 0
1, 10608, Note_on_c, 0, 73, 59
1, 11087, Note_on_c, 0, 73, 0
1, 11087, Note_on_c, 0, 64, 0
1, 11087, Note_on_c, 0, 68, 0
1, 11090, Note_on_c, 0, 64, 61
1, 11090, Note_on_c, 0, 68, 67
1, 11143, Control_c, 0, 64, 0
1, 11198, Control_c, 0, 64, 127
1, 12044, Note_on_c, 0, 68, 0
1, 12044, Note_on_c, 0, 64, 0
1, 12044, Note_on_c, 0, 65, 67
1, 12047, Note_on_c, 0, 71, 75
1, 12047, Note_on_c, 0, 37, 57
1, 12098, Control_c, 0, 64, 0
1, 12186, Control_c, 0, 64, 127
1, 12506, Note_on_c, 0, 37, 0
1, 12852, Note_on_c, 0, 49, 53
1, 12967, Note_on_c, 0, 49, 0
1, 12967, Note_on_c, 0, 61, 58
1, 13429, Note_on_c, 0, 61, 0
1, 13429, Note_on_c, 0, 73, 67
1, 13907, Note_on_c, 0, 73, 0
1, 13907, Note_on_c, 0, 71, 0
1, 13907, Note_on_c, 0, 65, 0
1, 13910, Note_on_c, 0, 65, 59
1, 13910, Note_on_c, 0, 71, 65
1, 13934, Control_c, 0, 64, 0
1, 14014, Control_c, 0, 64, 127
1, 14136, Note_on_c, 0, 65, 0
1, 14136, Note_on_c, 0, 68, 59
1, 14366, Note_on_c, 0, 68, 0
1, 14366, Note_on_c, 0, 71, 0
1, 14366, Note_on_c, 0, 69, 62
1, 14369, Note_on_c, 0, 66, 56
1, 14595, Note_on_c, 0, 66, 0
1, 14595, Note_on_c, 0, 69, 0
1, 14595, Note_on_c, 0, 68, 60
1, 14598, Note_on_c, 0, 65, 54
1, 14841, Note_on_c, 0, 65, 0
1, 14841, Note_on_c, 0, 68, 0
1, 14841, Note_on_c, 0, 66, 67
1, 14844, Note_on_c, 0, 69, 75
1, 14844, Note_on_c, 0, 37, 57
1, 14894, Control_c, 0, 64, 0
1, 14983, Control_c, 0, 64, 127
1, 15302, Note_on_c, 0, 37, 0
1, 15648, Note_on_c, 0, 49, 53
1, 15764, Note_on_c, 0, 49, 0
1, 15764, Note_on_c, 0, 61, 58
1, 16225, Note_on_c, 0, 69, 0
1, 16225, Note_on_c, 0, 66, 0
1, 16225, Note_on_c, 0, 73, 67
1, 16228, Note_on_c, 0, 61, 0
1, 16228, Note_on_c, 0, 66, 54
1, 16228, Note_on_c, 0, 69, 60
1, 16704, Note_on_c, 0, 69, 0
1, 16704, Note_on_c, 0, 66, 0
1, 16704, Note_on_c, 0, 73, 0
1, 16707, Note_on_c, 0, 66, 66
1, 16707, Note_on_c, 0, 69, 74
1, 16732, Control_c, 0, 64, 0
1, 16816, Control_c, 0, 64, 127
1, 17183, Note_on_c, 0, 69, 0
1, 17183, Note_on_c, 0, 66, 0
1, 17183, Note_on_c, 0, 69, 75
1, 17186, Note_on_c, 0, 66, 66
1, 17689, Note_on_c, 0, 66, 0
1, 17689, Note_on_c, 0, 69, 0
1, 17689, Note_on_c, 0, 73, 84
1, 17692, Note_on_c, 0, 69, 75
1, 17692, Note_on_c, 0, 37, 63
1, 17743, Control_c, 0, 64, 0
1, 17832, Control_c, 0, 64, 127
1, 18151, Note_on_c, 0, 37, 0
1, 18497, Note_on_c, 0, 49, 56
1, 18612, Note_on_c, 0, 49, 0
1, 18612, Note_on_c, 0, 61, 62
1, 19074, Note_on_c, 0, 61, 0
1, 19074, Note_on_c, 0, 73, 71
1, 19546, Note_on_c, 0, 73, 0
1, 19546, Note_on_c, 0, 69, 0
1, 19546, Note_on_c, 0, 73, 0
1, 19549, Note_on_c, 0, 69, 65
1, 19549, Note_on_c, 0, 73, 73
1, 19574, Control_c, 0, 64, 0
1, 19657, Control_c, 0, 64, 127
1, 20258, Note_on_c, 0, 73, 0
1, 20258, Note_on_c, 0, 69, 0
1, 20258, Note_on_c, 0, 69, 60
1, 20261, Note_on_c, 0, 66, 54
1, 20519, Note_on_c, 0, 66, 0
1, 20519, Note_on_c, 0, 69, 0
1, 20519, Note_on_c, 0, 64, 62
1, 20522, Note_on_c, 0, 68, 70
1, 20522, Note_on_c, 0, 37, 57
1, 20573, Control_c, 0, 64, 0
1, 20661, Control_c, 0, 64, 127
1, 20980, Note_on_c, 0, 37, 0
1, 21326, Note_on_c, 0, 49, 53
1, 21442, Note_on_c, 0, 49, 0
1, 21442, Note_on_c, 0, 61, 58
1, 21903, Note_on_c, 0, 61, 0
1, 21903, Note_on_c, 0, 73, 59
1, 22382, Note_on_c, 0, 73, 0
1, 22410, Control_c, 0, 64, 0
1, 22494, Control_c, 0, 64, 127
1, 22861, Note_on_c, 0, 68, 0
1, 22861, Note_on_c, 0, 64, 0
1, 22861, Note_on_c, 0, 64, 66
1, 22864, Note_on_c, 0, 68, 75
1, 23339, Note_on_c, 0, 68, 0
1, 23339, Note_on_c, 0, 64, 0
1, 23339, Note_on_c, 0, 64, 76
1, 23342, Note_on_c, 0, 69, 76
1, 23342, Note_on_c, 0, 73, 85
1, 23342, Note_on_c, 0, 32, 60
1, 23345, Note_on_c, 0, 44, 66
1, 23393, Control_c, 0, 64, 0
1, 23482, Control_c, 0, 64, 127
1, 23801, Note_on_c, 0, 44, 0
1, 23801, Note_on_c, 0, 32, 0
1, 24032, Note_on_c, 0, 64, 0
1, 24032, Note_on_c, 0, 69, 0
1, 24032, Note_on_c, 0, 73, 0
1, 24035, Note_on_c, 0, 72, 78
1, 24035, Note_on_c, 0, 63, 70
1, 24035, Note_on_c, 0, 68, 70
1, 24147, Note_on_c, 0, 44, 68
1, 24263, Note_on_c, 0, 68, 0
1, 24263, Note_on_c, 0, 72, 0
1, 24263, Note_on_c, 0, 63, 0
1, 24266, Note_on_c, 0, 63, 75
1, 24266, Note_on_c, 0, 68, 75
1, 24266, Note_on_c, 0, 72, 84
1, 24269, Note_on_c, 0, 44, 0
1, 24269, Note_on_c, 0, 56, 74
1, 24712, Note_on_c, 0, 56, 0
1, 24712, Note_on_c, 0, 80, 76
1, 25186, Note_on_c, 0, 80, 0
1, 25214, Control_c, 0, 64, 0
1, 25297, Control_c, 0, 64, 127
1, 25661, Note_on_c, 0, 63, 0
1, 25661, Note_on_c, 0, 68, 0
1, 25661, Note_on_c, 0, 72, 0
1, 25664, Note_on_c, 0, 72, 88
1, 25664, Note_on_c, 0, 68, 77
1, 26135, Note_on_c, 0, 68, 0
1, 26135, Note_on_c, 0, 72, 0
1, 26135, Note_on_c, 0, 67, 83
1, 26138, Note_on_c, 0, 73, 83
1, 26138, Note_on_c, 0, 76, 93
1, 26138, Note_on_c, 0, 32, 65
1, 26141, Note_on_c, 0, 44, 72
1, 26189, Control_c, 0, 64, 0
1, 26277, Control_c, 0, 64, 127
1, 26597, Note_on_c, 0, 44, 0
1, 26597, Note_on_c, 0, 32, 0
1, 26827, Note_on_c, 0, 67, 0
1, 26827, Note_on_c, 0, 73, 0
1, 26827, Note_on_c, 0, 76, 0
1, 26830, Note_on_c, 0, 72, 76
1, 26830, Note_on_c, 0, 68, 76
1, 26830, Note_on_c, 0, 75, 85
1, 26943, Note_on_c, 0, 44, 74
1, 27058, Note_on_c, 0, 75, 0
1, 27058, Note_on_c, 0, 72, 0
1, 27058, Note_on_c, 0, 68, 0
1, 27061, Note_on_c, 0, 68, 82
1, 27061, Note_on_c, 0, 75, 92
1, 27061, Note_on_c, 0, 72, 82
1, 27064, Note_on_c, 0, 44, 0
1, 27064, Note_on_c, 0, 56, 81
1, 27503, Note_on_c, 0, 56, 0
1, 27503, Note_on_c, 0, 80, 84
1, 27982, Note_on_c, 0, 80, 0
1, 28010, Control_c, 0, 64, 0
1, 28094, Control_c, 0, 64, 127
1, 28461, Note_on_c, 0, 68, 0
1, 28461, Note_on_c, 0, 75, 0
1, 28461, Note_on_c, 0, 72, 0
1, 28464, Note_on_c, 0, 68, 82
1, 28464, Note_on_c, 0, 72, 82
1, 28464, Note_on_c, 0, 75, 94
1, 28953, Note_on_c, 0, 75, 0
1, 28953, Note_on_c, 0, 72, 0
1, 28953, Note_on_c, 0, 68, 0
1, 28956, Note_on_c, 0, 80, 99
1, 28956, Note_on_c, 0, 68, 88
1, 28956, Note_on_c, 0, 76, 88
1, 28959, Note_on_c, 0, 44, 76
1, 28959, Note_on_c, 0, 32, 68
1, 29007, Control_c, 0, 64, 0
1, 29095, Control_c, 0, 64, 127
1, 29415, Note_on_c, 0, 32, 0
1, 29415, Note_on_c, 0, 44, 0
1, 29645, Note_on_c, 0, 80, 0
1, 29645, Note_on_c, 0, 68, 0
1, 29645, Note_on_c, 0, 76, 0
1, 29648, Note_on_c, 0, 69, 81
1, 29648, Note_on_c, 0, 75, 81
1, 29648, Note_on_c, 0, 78, 90
1, 29761, Note_on_c, 0, 44, 78
1, 29876, Note_on_c, 0, 78, 0
1, 29876, Note_on_c, 0, 69, 0
1, 29876, Note_on_c, 0, 75, 0
1, 29879, Note_on_c, 0, 78, 98
1, 29879, Note_on_c, 0, 75, 87
1, 29879, Note_on_c, 0, 69, 87
1, 29882, Note_on_c, 0, 44, 0
1, 29882, Note_on_c, 0, 56, 86
1, 30338, Note_on_c, 0, 56, 0
1, 30338, Note_on_c, 0, 80, 89
1, 30816, Note_on_c, 0, 80, 0
1, 30844, Control_c, 0, 64, 0
1, 30928, Control_c, 0, 64, 127
1, 31295, Note_on_c, 0, 78, 0
1, 31295, Note_on_c, 0, 75, 0
1, 31295, Note_on_c, 0, 69, 0
1, 31298, Note_on_c, 0, 69, 87
1, 31298, Note_on_c, 0, 78, 100
1, 31298, Note_on_c, 0, 75, 87
1, 31817, Note_on_c, 0, 75, 0
1, 31817, Note_on_c, 0, 78, 0
1, 31817, Note_on_c, 0, 69, 0
1, 31820, Note_on_c, 0, 73, 94
1, 31820, Note_on_c, 0, 76, 94
1, 31820, Note_on_c, 0, 81, 106
1, 31823, Note_on_c, 0, 44, 81
1, 31823, Note_on_c, 0, 32, 72
1, 31871, Control_c, 0, 64, 0
1, 31960, Control_c, 0, 64, 127
1, 32279, Note_on_c, 0, 32, 0
1, 32279, Note_on_c, 0, 44, 0
1, 32510, Note_on_c, 0, 73, 0
1, 32510, Note_on_c, 0, 76, 0
1, 32510, Note_on_c, 0, 81, 0
1, 32513, Note_on_c, 0, 80, 96
1, 32513, Note_on_c, 0, 75, 86
1, 32513, Note_on_c, 0, 72, 86
1, 32625, Note_on_c, 0, 44, 78
1, 32740, Note_on_c, 0, 72, 0
1, 32740, Note_on_c, 0, 80, 0
1, 32740, Note_on_c, 0, 75, 0
1, 32743, Note_on_c, 0, 72, 93
1, 32743, Note_on_c, 0, 75, 93
1, 32743, Note_on_c, 0, 80, 105
1, 32746, Note_on_c, 0, 44, 0
1, 32746, Note_on_c, 0, 56, 86
1, 33202, Note_on_c, 0, 56, 0
1, 33202, Note_on_c, 0, 68, 85
1, 33676, Note_on_c, 0, 68, 0
1, 34625, Note_on_c, 0, 32, 62
1, 34625, Note_on_c, 0, 44, 70
1, 35092, Note_on_c, 0, 44, 0
1, 35092, Note_on_c, 0, 32, 0
1, 35441, Note_on_c, 0, 44, 65
1, 35558, Note_on_c, 0, 44, 0
1, 35558, Note_on_c, 0, 56, 70
1, 36024, Note_on_c, 0, 56, 0
1, 36024, Note_on_c, 0, 68, 67
1, 36507, Note_on_c, 0, 68, 0
1, 37487, Note_on_c, 0, 72, 0
1, 37487, Note_on_c, 0, 75, 0
1, 37487, Note_on_c, 0, 80, 0
1, 37490, Note_on_c, 0, 76, 67
1, 37490, Note_on_c, 0, 80, 75
1, 37490, Note_on_c, 0, 71, 67
1, 37493, Note_on_c, 0, 68, 67
1, 37493, Note_on_c, 0, 32, 52
1, 37493, Note_on_c, 0, 44, 57
1, 37496, Control_c, 0, 64, 0
1, 37629, Control_c, 0, 64, 127
1, 37948, Note_on_c, 0, 44, 0
1, 37948, Note_on_c, 0, 32, 0
1, 38294, Note_on_c, 0, 47, 53
1, 38410, Note_on_c, 0, 47, 0
1, 38410, Note_on_c, 0, 59, 58
1, 38871, Note_on_c, 0, 59, 0
1, 38871, Note_on_c, 0, 88, 68
1, 39350, Note_on_c, 0, 88, 0
1, 39378, Control_c, 0, 64, 0
1, 39462, Control_c, 0, 64, 127
1, 39829, Note_on_c, 0, 71, 0
1, 39829, Note_on_c, 0, 76, 0
1, 39829, Note_on_c, 0, 80, 0
1, 39832, Note_on_c, 0, 68, 0
1, 39832, Note_on_c, 0, 76, 70
1, 39832, Note_on_c, 0, 71, 62
1, 39835, Note_on_c, 0, 64, 62
1, 40307, Note_on_c, 0, 64, 0
1, 40307, Note_on_c, 0, 71, 0
1, 40307, Note_on_c, 0, 76, 0
1, 40310, Note_on_c, 0, 64, 67
1, 40310, Note_on_c, 0, 69, 67
1, 40310, Note_on_c, 0, 75, 75
1, 40313, Note_on_c, 0, 45, 57
1, 40313, Note_on_c, 0, 33, 52
1, 40450, Control_c, 0, 64, 127
1, 40769, Note_on_c, 0, 33, 0
1, 40769, Note_on_c, 0, 45, 0
1, 41000, Note_on_c, 0, 75, 0
1, 41000, Note_on_c, 0, 73, 75
1, 41115, Note_on_c, 0, 49, 53
1, 41230, Note_on_c, 0, 73, 0
1, 41230, Note_on_c, 0, 64, 0
1, 41230, Note_on_c, 0, 69, 0
1, 41233, Note_on_c, 0, 69, 66
1, 41233, Note_on_c, 0, 64, 66
1, 41233, Note_on_c, 0, 73, 75
1, 41236, Note_on_c, 0, 49, 0
1, 41236, Note_on_c, 0, 61, 58
1, 41692, Note_on_c, 0, 61, 0
1, 41692, Note_on_c, 0, 85, 67
1, 42171, Note_on_c, 0, 85, 0
1, 42199, Control_c, 0, 64, 0
1, 42282, Control_c, 0, 64, 127
1, 42649, Note_on_c, 0, 69, 0
1, 42649, Note_on_c, 0, 64, 0
1, 42649, Note_on_c, 0, 73, 0
1, 42652, Note_on_c, 0, 73, 70
1, 42652, Note_on_c, 0, 69, 62
1, 42652, Note_on_c, 0, 64, 62
1, 43128, Note_on_c, 0, 64, 0
1, 43128, Note_on_c, 0, 69, 0
1, 43128, Note_on_c, 0, 73, 0
1, 43131, Note_on_c, 0, 64, 67
1, 43131, Note_on_c, 0, 66, 67
1, 43131, Note_on_c, 0, 73, 75
1, 43134, Note_on_c, 0, 47, 57
1, 43134, Note_on_c, 0, 35, 52
1, 43270, Control_c, 0, 64, 127
1, 43589, Note_on_c, 0, 35, 0
1, 43589, Note_on_c, 0, 47, 0
1, 43820, Note_on_c, 0, 73, 0
1, 43820, Note_on_c, 0, 64, 0
1, 43820, Note_on_c, 0, 71, 75
1, 43823, Note_on_c, 0, 63, 71
1, 43936, Note_on_c, 0, 47, 53
1, 44051, Note_on_c, 0, 63, 0
1, 44051, Note_on_c, 0, 66, 0
1, 44051, Note_on_c, 0, 71, 0
1, 44054, Note_on_c, 0, 63, 66
1, 44054, Note_on_c, 0, 66, 66
1, 44054, Note_on_c, 0, 71, 75
1, 44057, Note_on_c, 0, 47, 0
1, 44057, Note_on_c, 0, 59, 58
1, 44513, Note_on_c, 0, 59, 0
1, 44513, Note_on_c, 0, 83, 62
1, 44991, Note_on_c, 0, 83, 0
1, 45019, Control_c, 0, 64, 0
1, 45103, Control_c, 0, 64, 127
1, 45470, Note_on_c, 0, 63, 0
1, 45470, Note_on_c, 0, 66, 0
1, 45470, Note_on_c, 0, 71, 0
1, 45473, Note_on_c, 0, 69, 67
1, 45473, Note_on_c, 0, 64, 60
1, 45473, Note_on_c, 0, 61, 60
1, 45949, Note_on_c, 0, 61, 0
1, 45949, Note_on_c, 0, 64, 0
1, 45949, Note_on_c, 0, 69, 0
1, 45952, Note_on_c, 0, 59, 60
1, 45952, Note_on_c, 0, 64, 60
1, 45952, Note_on_c, 0, 68, 66
1, 45955, Control_c, 0, 64, 0
1, 45955, Note_on_c, 0, 40, 57
1, 46016, Control_c, 0, 64, 127
1, 46410, Note_on_c, 0, 40, 0
1, 46769, Note_on_c, 0, 47, 53
1, 46889, Note_on_c, 0, 59, 0
1, 46889, Note_on_c, 0, 68, 0
1, 46889, Note_on_c, 0, 64, 0
1, 46892, Note_on_c, 0, 59, 56
1, 46892, Note_on_c, 0, 56, 56
1, 46892, Note_on_c, 0, 64, 62
1, 46895, Note_on_c, 0, 47, 0
1, 46895, Note_on_c, 0, 52, 58
1, 47368, Note_on_c, 0, 52, 0
1, 47368, Note_on_c, 0, 76, 58
1, 47846, Note_on_c, 0, 76, 0
1, 48804, Note_on_c, 0, 59, 0
1, 48804, Note_on_c, 0, 56, 0
1, 48804, Note_on_c, 0, 64, 0
1, 48807, Note_on_c, 0, 68, 73
1, 48807, Note_on_c, 0, 64, 65
1, 48807, Note_on_c, 0, 40, 57
1, 48811, Control_c, 0, 64, 0
1, 48940, Control_c, 0, 64, 127
1, 49265, Note_on_c, 0, 40, 0
1, 49611, Note_on_c, 0, 47, 53
1, 49727, Note_on_c, 0, 47, 0
1, 49727, Note_on_c, 0, 59, 58
1, 50188, Note_on_c, 0, 59, 0
1, 50188, Note_on_c, 0, 71, 58
1, 50671, Note_on_c, 0, 71, 0
1, 50671, Note_on_c, 0, 64, 0
1, 50671, Note_on_c, 0, 68, 0
1, 50674, Note_on_c, 0, 64, 61
1, 50674, Note_on_c, 0, 68, 67
1, 50728, Control_c, 0, 64, 0
1, 50784, Control_c, 0, 64, 127
1, 51396, Note_on_c, 0, 68, 0
1, 51396, Note_on_c, 0, 64, 0
1, 51396, Note_on_c, 0, 63, 60
1, 51399, Note_on_c, 0, 66, 66
1, 51637, Note_on_c, 0, 66, 0
1, 51637, Note_on_c, 0, 63, 0
1, 51637, Note_on_c, 0, 66, 75
1, 51640, Note_on_c, 0, 63, 67
1, 51640, Note_on_c, 0, 40, 57
1, 51691, Control_c, 0, 64, 0
1, 51779, Control_c, 0, 64, 127
1, 52099, Note_on_c, 0, 40, 0
1, 52445, Note_on_c, 0, 47, 53
1, 52560, Note_on_c, 0, 47, 0
1, 52560, Note_on_c, 0, 59, 58
1, 53022, Note_on_c, 0, 59, 0
1, 53022, Note_on_c, 0, 71, 58
1, 53501, Note_on_c, 0, 71, 0
1, 53501, Note_on_c, 0, 63, 0
1, 53501, Note_on_c, 0, 66, 0
1, 53504, Note_on_c, 0, 63, 63
1, 53504, Note_on_c, 0, 66, 70
1, 53528, Control_c, 0, 64, 0
1, 53642, Control_c, 0, 64, 127
1, 54458, Note_on_c, 0, 66, 0
1, 54458, Note_on_c, 0, 63, 0
1, 54458, Note_on_c, 0, 61, 67
1, 54461, Note_on_c, 0, 69, 75
1, 54461, Note_on_c, 0, 40, 57
1, 54512, Control_c, 0, 64, 0
1, 54600, Control_c, 0, 64, 127
1, 54919, Note_on_c, 0, 40, 0
1, 55266, Note_on_c, 0, 47, 53
1, 55381, Note_on_c, 0, 47, 0
1, 55381, Note_on_c, 0, 59, 58
1, 55843, Note_on_c, 0, 59, 0
1, 55843, Note_on_c, 0, 71, 58
1, 56321, Note_on_c, 0, 71, 0
1, 56321, Note_on_c, 0, 69, 0
1, 56321, Note_on_c, 0, 61, 0
1, 56324, Note_on_c, 0, 63, 59
1, 56324, Note_on_c, 0, 69, 65
1, 56348, Control_c, 0, 64, 0
1, 56429, Control_c, 0, 64, 127
1, 56553, Note_on_c, 0, 63, 0
1, 56553, Note_on_c, 0, 66, 55
1, 56784, Note_on_c, 0, 66, 0
1, 56784, Note_on_c, 0, 69, 0
1, 56784, Note_on_c, 0, 68, 62
1, 56787, Note_on_c, 0, 64, 56
1, 57022, Note_on_c, 0, 64, 0
1, 57022, Note_on_c, 0, 68, 0
1, 57022, Note_on_c, 0, 63, 54
1, 57025, Note_on_c, 0, 66, 60
1, 57282, Note_on_c, 0, 66, 0
1, 57282, Note_on_c, 0, 63, 0
1, 57282, Note_on_c, 0, 68, 73
1, 57285, Note_on_c, 0, 64, 65
1, 57285, Control_c, 0, 64, 0
1, 57285, Note_on_c, 0, 40, 57
1, 57384, Control_c, 0, 64, 127
1, 57743, Note_on_c, 0, 40, 0
1, 58089, Note_on_c, 0, 47, 53
1, 58205, Note_on_c, 0, 47, 0
1, 58205, Note_on_c, 0, 59, 58
1, 58666, Note_on_c, 0, 59, 0
1, 58666, Note_on_c, 0, 71, 57
1, 59145, Note_on_c, 0, 71, 0
1, 59145, Note_on_c, 0, 64, 0
1, 59145, Note_on_c, 0, 68, 0
1, 59148, Note_on_c, 0, 64, 64
1, 59148, Note_on_c, 0, 68, 71
1, 59201, Control_c, 0, 64, 0
1, 59257, Control_c, 0, 64, 127
1, 60102, Note_on_c, 0, 68, 0
1, 60102, Note_on_c, 0, 64, 0
1, 60102, Note_on_c, 0, 62, 73
1, 60105, Note_on_c, 0, 71, 82
1, 60105, Note_on_c, 0, 68, 73
1, 60105, Note_on_c, 0, 40, 61
1, 60156, Control_c, 0, 64, 0
1, 60245, Control_c, 0, 64, 127
1, 60564, Note_on_c, 0, 40, 0
1, 60910, Note_on_c, 0, 52, 60
1, 61026, Note_on_c, 0, 52, 0
1, 61026, Note_on_c, 0, 64, 67
1, 61487, Note_on_c, 0, 64, 0
1, 61487, Note_on_c, 0, 76, 73
1, 61966, Note_on_c, 0, 76, 0
1, 61966, Note_on_c, 0, 71, 0
1, 61966, Note_on_c, 0, 62, 0
1, 61969, Note_on_c, 0, 68, 0
1, 61969, Note_on_c, 0, 62, 63
1, 61969, Note_on_c, 0, 68, 63
1, 61972, Note_on_c, 0, 71, 70
1, 61994, Control_c, 0, 64, 0
1, 62080, Control_c, 0, 64, 127
1, 62697, Note_on_c, 0, 71, 0
1, 62697, Note_on_c, 0, 68, 0
1, 62697, Note_on_c, 0, 62, 0
1, 62700, Note_on_c, 0, 61, 58
1, 62700, Note_on_c, 0, 69, 65
1, 62941, Note_on_c, 0, 69, 0
1, 62941, Note_on_c, 0, 61, 0
1, 62941, Note_on_c, 0, 69, 82
1, 62944, Note_on_c, 0, 61, 73
1, 62944, Note_on_c, 0, 40, 61
1, 62995, Control_c, 0, 64, 0
1, 63083, Control_c, 0, 64, 127
1, 63403, Note_on_c, 0, 40, 0
1, 63749, Note_on_c, 0, 52, 60
1, 63864, Note_on_c, 0, 52, 0
1, 63864, Note_on_c, 0, 64, 67
1, 64326, Note_on_c, 0, 61, 0
1, 64326, Note_on_c, 0, 69, 0
1, 64326, Note_on_c, 0, 61, 58
1, 64329, Note_on_c, 0, 64, 0
1, 64329, Note_on_c, 0, 69, 65
1, 64329, Note_on_c, 0, 76, 73
1, 64804, Note_on_c, 0, 76, 0
1, 64804, Note_on_c, 0, 69, 0
1, 64804, Note_on_c, 0, 61, 0
1, 64807, Note_on_c, 0, 69, 81
1, 64807, Note_on_c, 0, 61, 72
1, 64832, Control_c, 0, 64, 0
1, 64916, Control_c, 0, 64, 127
1, 65283, Note_on_c, 0, 61, 0
1, 65283, Note_on_c, 0, 69, 0
1, 65283, Note_on_c, 0, 61, 72
1, 65286, Note_on_c, 0, 69, 82
1, 65790, Note_on_c, 0, 69, 0
1, 65790, Note_on_c, 0, 61, 0
1, 65790, Note_on_c, 0, 73, 92
1, 65793, Note_on_c, 0, 69, 82
1, 65793, Note_on_c, 0, 63, 82
1, 65793, Note_on_c, 0, 40, 68
1, 65844, Control_c, 0, 64, 0
1, 65932, Control_c, 0, 64, 127
1, 66251, Note_on_c, 0, 40, 0
1, 66597, Note_on_c, 0, 52, 63
1, 66713, Note_on_c, 0, 52, 0
1, 66713, Note_on_c, 0, 64, 71
1, 67174, Note_on_c, 0, 64, 0
1, 67174, Note_on_c, 0, 76, 74
1, 67647, Note_on_c, 0, 76, 0
1, 67647, Note_on_c, 0, 69, 0
1, 67647, Note_on_c, 0, 73, 0
1, 67650, Note_on_c, 0, 63, 0
1, 67650, Note_on_c, 0, 63, 66
1, 67650, Note_on_c, 0, 69, 66
1, 67653, Note_on_c, 0, 73, 75
1, 67674, Control_c, 0, 64, 0
1, 67757, Control_c, 0, 64, 127
1, 68358, Note_on_c, 0, 73, 0
1, 68358, Note_on_c, 0, 69, 0
1, 68358, Note_on_c, 0, 63, 0
1, 68361, Note_on_c, 0, 68, 58
1, 68361, Note_on_c, 0, 64, 58
1, 68361, Note_on_c, 0, 71, 64
1, 68619, Note_on_c, 0, 71, 0
1, 68619, Note_on_c, 0, 64, 0
1, 68619, Note_on_c, 0, 68, 0
1, 68622, Note_on_c, 0, 68, 67
1, 68622, Note_on_c, 0, 71, 75
1, 68622, Note_on_c, 0, 64, 67
1, 68625, Note_on_c, 0, 40, 57
1, 68673, Control_c, 0, 64, 0
1, 68761, Control_c, 0, 64, 127
1, 69081, Note_on_c, 0, 40, 0
1, 69427, Note_on_c, 0, 52, 56
1, 69542, Note_on_c, 0, 52, 0
1, 69542, Note_on_c, 0, 64, 62
1, 70004, Note_on_c, 0, 64, 0
1, 70004, Note_on_c, 0, 76, 60
1, 70483, Note_on_c, 0, 76, 0
1, 70510, Control_c, 0, 64, 0
1, 70594, Control_c, 0, 64, 127
1, 70961, Note_on_c, 0, 64, 0
1, 70961, Note_on_c, 0, 71, 0
1, 70961, Note_on_c, 0, 68, 0
1, 70964, Note_on_c, 0, 68, 68
1, 70964, Note_on_c, 0, 64, 68
1, 70964, Note_on_c, 0, 71, 77
1, 71440, Note_on_c, 0, 71, 0
1, 71440, Note_on_c, 0, 64, 0
1, 71440, Note_on_c, 0, 68, 0
1, 71443, Note_on_c, 0, 76, 87
1, 71443, Note_on_c, 0, 68, 78
1, 71443, Note_on_c, 0, 71, 78
1, 71446, Note_on_c, 0, 35, 61
1, 71446, Note_on_c, 0, 47, 68
1, 71494, Control_c, 0, 64, 0
1, 71582, Control_c, 0, 64, 127
1, 71901, Note_on_c, 0, 47, 0
1, 71901, Note_on_c, 0, 35, 0
1, 72132, Note_on_c, 0, 76, 0
1, 72132, Note_on_c, 0, 68, 0
1, 72132, Note_on_c, 0, 71, 0
1, 72135, Note_on_c, 0, 66, 72
1, 72135, Note_on_c, 0, 71, 72
1, 72135, Note_on_c, 0, 75, 80
1, 72248, Note_on_c, 0, 47, 70
1, 72363, Note_on_c, 0, 75, 0
1, 72363, Note_on_c, 0, 66, 0
1, 72363, Note_on_c, 0, 71, 0
1, 72366, Note_on_c, 0, 75, 87
1, 72366, Note_on_c, 0, 71, 77
1, 72366, Note_on_c, 0, 66, 77
1, 72369, Note_on_c, 0, 47, 0
1, 72369, Note_on_c, 0, 59, 76
1, 72825, Note_on_c, 0, 59, 0
1, 72825, Note_on_c, 0, 83, 79
1, 73299, Note_on_c, 0, 83, 0
1, 73327, Control_c, 0, 64, 0
1, 73410, Control_c, 0, 64, 127
1, 73773, Note_on_c, 0, 75, 0
1, 73773, Note_on_c, 0, 71, 0
1, 73773, Note_on_c, 0, 66, 0
1, 73776, Note_on_c, 0, 66, 80
1, 73776, Note_on_c, 0, 75, 92
1, 73776, Note_on_c, 0, 71, 80
1, 74248, Note_on_c, 0, 71, 0
1, 74248, Note_on_c, 0, 75, 0
1, 74248, Note_on_c, 0, 66, 0
1, 74251, Note_on_c, 0, 71, 86
1, 74251, Note_on_c, 0, 76, 86
1, 74251, Note_on_c, 0, 80, 97
1, 74254, Note_on_c, 0, 35, 67
1, 74254, Note_on_c, 0, 47, 75
1, 74301, Control_c, 0, 64, 0
1, 74390, Control_c, 0, 64, 127
1, 74709, Note_on_c, 0, 47, 0
1, 74709, Note_on_c, 0, 35, 0
1, 74940, Note_on_c, 0, 80, 0
1, 74940, Note_on_c, 0, 76, 0
1, 74940, Note_on_c, 0, 78, 89
1, 74943, Note_on_c, 0, 75, 80
1, 75055, Note_on_c, 0, 47, 77
1, 75171, Note_on_c, 0, 75, 0
1, 75171, Note_on_c, 0, 71, 0
1, 75171, Note_on_c, 0, 78, 0
1, 75174, Note_on_c, 0, 75, 86
1, 75174, Note_on_c, 0, 71, 86
1, 75174, Note_on_c, 0, 78, 97
1, 75177, Note_on_c, 0, 47, 0
1, 75177, Note_on_c, 0, 59, 85
1, 75632, Note_on_c, 0, 59, 0
1, 75632, Note_on_c, 0, 83, 88
1, 76111, Note_on_c, 0, 83, 0
1, 76139, Control_c, 0, 64, 0
1, 76223, Control_c, 0, 64, 127
1, 76590, Note_on_c, 0, 75, 0
1, 76590, Note_on_c, 0, 71, 0
1, 76590, Note_on_c, 0, 78, 0
1, 76593, Note_on_c, 0, 80, 100
1, 76593, Note_on_c, 0, 71, 87
1, 76593, Note_on_c, 0, 76, 87
1, 77082, Note_on_c, 0, 76, 0
1, 77082, Note_on_c, 0, 71, 0
1, 77082, Note_on_c, 0, 80, 0
1, 77085, Note_on_c, 0, 76, 94
1, 77085, Note_on_c, 0, 80, 94
1, 77085, Note_on_c, 0, 85, 106
1, 77088, Note_on_c, 0, 35, 72
1, 77088, Note_on_c, 0, 47, 81
1, 77136, Control_c, 0, 64, 0
1, 77224, Control_c, 0, 64, 127
1, 77543, Note_on_c, 0, 47, 0
1, 77543, Note_on_c, 0, 35, 0
1, 77774, Note_on_c, 0, 76, 0
1, 77774, Note_on_c, 0, 80, 0
1, 77774, Note_on_c, 0, 85, 0
1, 77777, Note_on_c, 0, 83, 96
1, 77777, Note_on_c, 0, 78, 86
1, 77777, Note_on_c, 0, 75, 86
1, 77890, Note_on_c, 0, 47, 78
1, 78005, Note_on_c, 0, 75, 0
1, 78005, Note_on_c, 0, 83, 0
1, 78005, Note_on_c, 0, 78, 0
1, 78008, Note_on_c, 0, 75, 93
1, 78008, Note_on_c, 0, 78, 93
1, 78008, Note_on_c, 0, 83, 105
1, 78011, Note_on_c, 0, 47, 0
1, 78011, Note_on_c, 0, 59, 86
1, 78466, Note_on_c, 0, 59, 0
1, 78466, Note_on_c, 0, 71, 85
1, 78941, Note_on_c, 0, 71, 0
1, 79889, Note_on_c, 0, 35, 62
1, 80357, Note_on_c, 0, 35, 0
1, 80706, Note_on_c, 0, 47, 65
1, 80822, Note_on_c, 0, 47, 0
1, 80822, Note_on_c, 0, 59, 70
1, 81288, Note_on_c, 0, 59, 0
1, 81288, Note_on_c, 0, 71, 63
1, 81771, Note_on_c, 0, 71, 0
1, 82254, Note_on_c, 0, 83, 0
1, 82254, Note_on_c, 0, 81, 75
1, 82737, Note_on_c, 0, 81, 0
1, 82737, Note_on_c, 0, 78, 0
1, 82737, Note_on_c, 0, 75, 0
1, 82740, Note_on_c, 0, 68, 67
1, 82740, Note_on_c, 0, 80, 75
1, 82740, Note_on_c, 0, 76, 67
1, 82743, Note_on_c, 0, 37, 57
1, 82743, Control_c, 0, 64, 0
1, 82879, Control_c, 0, 64, 127
1, 83199, Note_on_c, 0, 37, 0
1, 83545, Note_on_c, 0, 49, 56
1, 83660, Note_on_c, 0, 49, 0
1, 83660, Note_on_c, 0, 61, 62
1, 84122, Note_on_c, 0, 61, 0
1, 84122, Note_on_c, 0, 73, 64
1, 84601, Note_on_c, 0, 73, 0
1, 84628, Control_c, 0, 64, 0
1, 84712, Control_c, 0, 64, 127
1, 85079, Note_on_c, 0, 76, 0
1, 85079, Note_on_c, 0, 80, 0
1, 85079, Note_on_c, 0, 68, 0
1, 85082, Note_on_c, 0, 64, 62
1, 85082, Note_on_c, 0, 68, 62
1, 85082, Note_on_c, 0, 76, 70
1, 85558, Note_on_c, 0, 76, 0
1, 85558, Note_on_c, 0, 68, 0
1, 85558, Note_on_c, 0, 64, 0
1, 85561, Note_on_c, 0, 75, 75
1, 85561, Note_on_c, 0, 66, 67
1, 85561, Note_on_c, 0, 69, 67
1, 85564, Note_on_c, 0, 42, 53
1, 85564, Note_on_c, 0, 30, 49
1, 85695, Control_c, 0, 64, 127
1, 86003, Note_on_c, 0, 30, 0
1, 86003, Note_on_c, 0, 42, 0
1, 86226, Note_on_c, 0, 75, 0
1, 86226, Note_on_c, 0, 73, 75
1, 86340, Note_on_c, 0, 42, 56
1, 86455, Note_on_c, 0, 73, 0
1, 86455, Note_on_c, 0, 66, 0
1, 86455, Note_on_c, 0, 69, 0
1, 86458, Note_on_c, 0, 66, 66
1, 86458, Note_on_c, 0, 73, 75
1, 86458, Note_on_c, 0, 69, 66
1, 86461, Note_on_c, 0, 42, 0
1, 86461, Note_on_c, 0, 54, 62
1, 86913, Note_on_c, 0, 54, 0
1, 86913, Note_on_c, 0, 81, 62
1, 87392, Note_on_c, 0, 81, 0
1, 87420, Control_c, 0, 64, 0
1, 87504, Control_c, 0, 64, 127
1, 87871, Note_on_c, 0, 66, 0
1, 87871, Note_on_c, 0, 73, 0
1, 87871, Note_on_c, 0, 69, 0
1, 87874, Note_on_c, 0, 63, 62
1, 87874, Note_on_c, 0, 69, 62
1, 87874, Note_on_c, 0, 73, 70
1, 88349, Note_on_c, 0, 73, 0
1, 88349, Note_on_c, 0, 69, 0
1, 88349, Note_on_c, 0, 63, 0
1, 88352, Note_on_c, 0, 73, 75
1, 88352, Note_on_c, 0, 64, 67
1, 88352, Note_on_c, 0, 68, 67
1, 88355, Note_on_c, 0, 32, 52
1, 88355, Note_on_c, 0, 44, 57
1, 88491, Control_c, 0, 64, 127
1, 88811, Note_on_c, 0, 44, 0
1, 88811, Note_on_c, 0, 32, 0
1, 89157, Note_on_c, 0, 44, 53
1, 89272, Note_on_c, 0, 44, 0
1, 89272, Note_on_c, 0, 73, 0
1, 89272, Note_on_c, 0, 71, 75
1, 89275, Note_on_c, 0, 56, 58
1, 89734, Note_on_c, 0, 56, 0
1, 89734, Note_on_c, 0, 80, 64
1, 90163, Note_on_c, 0, 80, 0
1, 90163, Note_on_c, 0, 64, 0
1, 90163, Note_on_c, 0, 60, 58
1, 90190, Control_c, 0, 64, 0
1, 90271, Control_c, 0, 64, 127
1, 90626, Note_on_c, 0, 71, 0
1, 90626, Note_on_c, 0, 68, 0
1, 90626, Note_on_c, 0, 66, 60
1, 90629, Note_on_c, 0, 69, 67
1, 91103, Note_on_c, 0, 69, 0
1, 91103, Note_on_c, 0, 66, 0
1, 91103, Note_on_c, 0, 60, 0
1, 91106, Note_on_c, 0, 61, 60
1, 91106, Note_on_c, 0, 64, 60
1, 91106, Note_on_c, 0, 68, 66
1, 91109, Note_on_c, 0, 37, 57
1, 91109, Control_c, 0, 64, 0
1, 91170, Control_c, 0, 64, 127
1, 91564, Note_on_c, 0, 37, 0
1, 91923, Note_on_c, 0, 37, 53
1, 92043, Note_on_c, 0, 61, 0
1, 92043, Note_on_c, 0, 68, 0
1, 92043, Note_on_c, 0, 64, 0
1, 92046, Note_on_c, 0, 64, 62
1, 92046, Note_on_c, 0, 56, 56
1, 92046, Note_on_c, 0, 61, 56
1, 92049, Note_on_c, 0, 37, 0
1, 92049, Note_on_c, 0, 49, 58
1, 92521, Note_on_c, 0, 49, 0
1, 92521, Note_on_c, 0, 73, 58
1, 93000, Note_on_c, 0, 73, 0
1, 93450, Note_on_c, 0, 64, 0
1, 93450, Note_on_c, 0, 56, 0
1, 93450, Note_on_c, 0, 61, 0
1, 93453, Note_on_c, 0, 56, 56
1, 93453, Note_on_c, 0, 64, 62
1, 93453, Note_on_c, 0, 61, 56
1, 93927, Note_on_c, 0, 61, 0
1, 93927, Note_on_c, 0, 64, 0
1, 93927, Note_on_c, 0, 56, 0
1, 93930, Note_on_c, 0, 61, 60
1, 93930, Note_on_c, 0, 55, 60
1, 93930, Note_on_c, 0, 64, 66
1, 93933, Note_on_c, 0, 33, 57
1, 93933, Note_on_c, 0, 45, 57
1, 93933, Control_c, 0, 64, 0
1, 93994, Control_c, 0, 64, 127
1, 94388, Note_on_c, 0, 45, 0
1, 94388, Note_on_c, 0, 33, 0
1, 94627, Note_on_c, 0, 64, 0
1, 94627, Note_on_c, 0, 63, 66
1, 94867, Note_on_c, 0, 63, 0
1, 94867, Note_on_c, 0, 55, 0
1, 94867, Note_on_c, 0, 61, 0
1, 94870, Note_on_c, 0, 61, 56
1, 94870, Note_on_c, 0, 63, 62
1, 94870, Note_on_c, 0, 55, 56
1, 94873, Note_on_c, 0, 69, 61
1, 95345, Note_on_c, 0, 69, 0
1, 95345, Note_on_c, 0, 81, 58
1, 95824, Note_on_c, 0, 81, 0
1, 96274, Note_on_c, 0, 55, 0
1, 96274, Note_on_c, 0, 63, 0
1, 96274, Note_on_c, 0, 61, 0
1, 96277, Note_on_c, 0, 63, 65
1, 96277, Note_on_c, 0, 61, 59
1, 96277, Note_on_c, 0, 55, 59
1, 96746, Note_on_c, 0, 55, 0
1, 96746, Note_on_c, 0, 61, 0
1, 96746, Note_on_c, 0, 63, 0
1, 96749, Note_on_c, 0, 54, 63
1, 96749, Note_on_c, 0, 61, 63
1, 96749, Note_on_c, 0, 64, 70
1, 96752, Note_on_c, 0, 33, 57
1, 96752, Note_on_c, 0, 45, 57
1, 96752, Control_c, 0, 64, 0
1, 96813, Control_c, 0, 64, 127
1, 97207, Note_on_c, 0, 45, 0
1, 97207, Note_on_c, 0, 33, 0
1, 97447, Note_on_c, 0, 64, 0
1, 97447, Note_on_c, 0, 63, 66
1, 97686, Note_on_c, 0, 63, 0
1, 97686, Note_on_c, 0, 61, 0
1, 97686, Note_on_c, 0, 54, 0
1, 97689, Note_on_c, 0, 54, 56
1, 97689, Note_on_c, 0, 63, 62
1, 97689, Note_on_c, 0, 61, 56
1, 97692, Note_on_c, 0, 69, 61
1, 98165, Note_on_c, 0, 69, 0
1, 98165, Note_on_c, 0, 81, 58
1, 98643, Note_on_c, 0, 81, 0
1, 99122, Note_on_c, 0, 61, 0
1, 99122, Note_on_c, 0, 63, 0
1, 99122, Note_on_c, 0, 54, 0
1, 99125, Note_on_c, 0, 63, 62
1, 99125, Note_on_c, 0, 61, 56
1, 99125, Note_on_c, 0, 54, 56
1, 99601, Note_on_c, 0, 54, 0
1, 99601, Note_on_c, 0, 61, 0
1, 99601, Note_on_c, 0, 63, 0
1, 99604, Note_on_c, 0, 54, 60
1, 99604, Note_on_c, 0, 60, 60
1, 99604, Note_on_c, 0, 63, 66
1, 99607, Control_c, 0, 64, 0
1, 99607, Note_on_c, 0, 44, 57
1, 99607, Note_on_c, 0, 32, 57
1, 99668, Control_c, 0, 64, 127
1, 100062, Note_on_c, 0, 32, 0
1, 100062, Note_on_c, 0, 44, 0
1, 100541, Note_on_c, 0, 68, 61
1, 100990, Note_on_c, 0, 68, 0
1, 100990, Note_on_c, 0, 60, 0
1, 100990, Note_on_c, 0, 54, 0
1, 100993, Note_on_c, 0, 63, 0
1, 100993, Note_on_c, 0, 64, 61
1, 100993, Note_on_c, 0, 80, 61
1, 101222, Note_on_c, 0, 64, 0
1, 101222, Note_on_c, 0, 66, 61
1, 101453, Note_on_c, 0, 66, 0
1, 101453, Note_on_c, 0, 80, 0
1, 101453, Note_on_c, 0, 68, 61
1, 101930, Note_on_c, 0, 68, 0
1, 101930, Note_on_c, 0, 63, 62
1, 101930, Note_on_c, 0, 60, 56
1, 101933, Note_on_c, 0, 57, 56
1, 102407, Note_on_c, 0, 57, 0
1, 102407, Note_on_c, 0, 60, 0
1, 102407, Note_on_c, 0, 63, 0
1, 102410, Note_on_c, 0, 56, 60
1, 102410, Note_on_c, 0, 61, 60
1, 102410, Note_on_c, 0, 64, 66
1, 102413, Note_on_c, 0, 37, 57
1, 102413, Control_c, 0, 64, 0
1, 102474, Control_c, 0, 64, 127
1, 102868, Note_on_c, 0, 37, 0
1, 103347, Note_on_c, 0, 49, 58
1, 103826, Note_on_c, 0, 49, 0
1, 103826, Note_on_c, 0, 73, 60
1, 104304, Note_on_c, 0, 73, 0
1, 104783, Note_on_c, 0, 56, 0
1, 104783, Note_on_c, 0, 61, 0
1, 104783, Note_on_c, 0, 64, 0
1, 104786, Note_on_c, 0, 56, 56
1, 104786, Note_on_c, 0, 61, 56
1, 104786, Note_on_c, 0, 64, 62
1, 105262, Note_on_c, 0, 64, 0
1, 105262, Note_on_c, 0, 61, 0
1, 105262, Note_on_c, 0, 56, 0
1, 105265, Note_on_c, 0, 64, 60
1, 105265, Note_on_c, 0, 61, 54
1, 105265, Note_on_c, 0, 55, 54
1, 105268, Control_c, 0, 64, 0
1, 105268, Note_on_c, 0, 33, 52
1, 105329, Control_c, 0, 64, 127
1, 105723, Note_on_c, 0, 33, 0
1, 105963, Note_on_c, 0, 64, 0
1, 105963, Note_on_c, 0, 63, 60
1, 106202, Note_on_c, 0, 63, 0
1, 106202, Note_on_c, 0, 55, 0
1, 106202, Note_on_c, 0, 61, 0
1, 106205, Note_on_c, 0, 55, 51
1, 106205, Note_on_c, 0, 61, 51
1, 106205, Note_on_c, 0, 63, 56
1, 106208, Note_on_c, 0, 45, 55
1, 106681, Note_on_c, 0, 45, 0
1, 106681, Note_on_c, 0, 69, 55
1, 107159, Note_on_c, 0, 69, 0
1, 107638, Note_on_c, 0, 63, 0
1, 107638, Note_on_c, 0, 61, 0
1, 107638, Note_on_c, 0, 55, 0
1, 107641, Note_on_c, 0, 55, 54
1, 107641, Note_on_c, 0, 61, 54
1, 107641, Note_on_c, 0, 63, 59
1, 108117, Note_on_c, 0, 63, 0
1, 108117, Note_on_c, 0, 61, 0
1, 108117, Note_on_c, 0, 55, 0
1, 108120, Note_on_c, 0, 64, 63
1, 108120, Note_on_c, 0, 61, 57
1, 108120, Note_on_c, 0, 54, 57
1, 108123, Control_c, 0, 64, 0
1, 108123, Note_on_c, 0, 33, 52
1, 108184, Control_c, 0, 64, 127
1, 108578, Note_on_c, 0, 33, 0
1, 108818, Note_on_c, 0, 64, 0
1, 108818, Note_on_c, 0, 63, 60
1, 109057, Note_on_c, 0, 63, 0
1, 109057, Note_on_c, 0, 54, 0
1, 109057, Note_on_c, 0, 61, 0
1, 109060, Note_on_c, 0, 54, 51
1, 109060, Note_on_c, 0, 61, 51
1, 109060, Note_on_c, 0, 63, 56
1, 109063, Note_on_c, 0, 45, 55
1, 109536, Note_on_c, 0, 45, 0
1, 109536, Note_on_c, 0, 69, 55
1, 110014, Note_on_c, 0, 69, 0
1, 110493, Note_on_c, 0, 63, 0
1, 110493, Note_on_c, 0, 61, 0
1, 110493, Note_on_c, 0, 54, 0
1, 110496, Note_on_c, 0, 54, 51
1, 110496, Note_on_c, 0, 61, 51
1, 110496, Note_on_c, 0, 63, 56
1, 110972, Note_on_c, 0, 63, 0
1, 110972, Note_on_c, 0, 61, 0
1, 110972, Note_on_c, 0, 54, 0
1, 110975, Note_on_c, 0, 63, 54
1, 110975, Note_on_c, 0, 60, 49
1, 110975, Note_on_c, 0, 54, 49
1, 110978, Control_c, 0, 64, 0
1, 110978, Note_on_c, 0, 32, 48
1, 111039, Control_c, 0, 64, 127
1, 111433, Note_on_c, 0, 32, 0
1, 111912, Note_on_c, 0, 44, 50
1, 112375, Note_on_c, 0, 63, 0
1, 112375, Note_on_c, 0, 54, 0
1, 112375, Note_on_c, 0, 60, 0
1, 112378, Note_on_c, 0, 44, 0
1, 112378, Note_on_c, 0, 64, 50
1, 112378, Note_on_c, 0, 56, 50
1, 112606, Note_on_c, 0, 64, 0
1, 112606, Note_on_c, 0, 66, 50
1, 112837, Note_on_c, 0, 66, 0
1, 112837, Note_on_c, 0, 56, 0
1, 112837, Note_on_c, 0, 68, 50
1, 113314, Note_on_c, 0, 68, 0
1, 113314, Note_on_c, 0, 60, 51
1, 113314, Note_on_c, 0, 54, 47
1, 113317, Note_on_c, 0, 57, 47
1, 113791, Note_on_c, 0, 57, 0
1, 113791, Note_on_c, 0, 54, 0
1, 113791, Note_on_c, 0, 60, 0
1, 113794, Note_on_c, 0, 61, 57
1, 113794, Note_on_c, 0, 52, 51
1, 113794, Note_on_c, 0, 56, 51
1, 113797, Note_on_c, 0, 37, 52
1, 113797, Control_c, 0, 64, 0
1, 113858, Control_c, 0, 64, 127
1, 114253, Note_on_c, 0, 37, 0
1, 114731, Note_on_c, 0, 49, 53
1, 115210, Note_on_c, 0, 49, 0
1, 115210, Note_on_c, 0, 73, 55
1, 115689, Note_on_c, 0, 73, 0
1, 116646, Note_on_c, 0, 37, 52
1, 117125, Note_on_c, 0, 37, 0
1, 117603, Note_on_c, 0, 49, 53
1, 118082, Note_on_c, 0, 49, 0
1, 118082, Note_on_c, 0, 73, 55
1, 118561, Note_on_c, 0, 73, 0
1, 119134, Note_on_c, 0, 32, 68
1, 119134, Control_c, 0, 64, 0
1, 119622, Note_on_c, 0, 49, 64
1, 119622, Note_on_c, 0, 52, 64
1, 119622, Note_on_c, 0, 57, 71
1, 119625, Note_on_c, 0, 56, 0
1, 119625, Note_on_c, 0, 61, 0
1, 119625, Note_on_c, 0, 52, 0
1, 119628, Note_on_c, 0, 33, 60
1, 119642, Control_c, 0, 64, 127
1, 119648, Note_on_c, 0, 32, 0
1, 119841, Note_on_c, 0, 33, 0
1, 119841, Note_on_c, 0, 45, 54
1, 119913, Control_c, 0, 64, 0
1, 119951, Note_on_c, 0, 45, 0
1, 120061, Note_on_c, 0, 45, 54
1, 120170, Note_on_c, 0, 45, 0
1, 120280, Note_on_c, 0, 45, 54
1, 120390, Note_on_c, 0, 45, 0
1, 120499, Note_on_c, 0, 49, 0
1, 120499, Note_on_c, 0, 52, 0
1, 120499, Note_on_c, 0, 57, 0
1, 120502, Note_on_c, 0, 49, 64
1, 120502, Note_on_c, 0, 57, 72
1, 120502, Note_on_c, 0, 33, 59
1, 120579, Control_c, 0, 64, 127
1, 120707, Note_on_c, 0, 33, 0
1, 120707, Note_on_c, 0, 45, 54
1, 120731, Control_c, 0, 64, 0
1, 120810, Note_on_c, 0, 45, 0
1, 120914, Note_on_c, 0, 45, 54
1, 121018, Note_on_c, 0, 45, 0
1, 121121, Note_on_c, 0, 45, 54
1, 121225, Note_on_c, 0, 45, 0
1, 121329, Note_on_c, 0, 57, 0
1, 121329, Note_on_c, 0, 49, 0
1, 121329, Note_on_c, 0, 50, 64
1, 121332, Note_on_c, 0, 57, 64
1, 121332, Note_on_c, 0, 59, 71
1, 121332, Note_on_c, 0, 33, 58
1, 121398, Control_c, 0, 64, 127
1, 121542, Note_on_c, 0, 33, 0
1, 121542, Note_on_c, 0, 45, 54
1, 121579, Control_c, 0, 64, 0
1, 121648, Note_on_c, 0, 45, 0
1, 121755, Note_on_c, 0, 45, 54
1, 121862, Note_on_c, 0, 45, 0
1, 121968, Note_on_c, 0, 45, 54
1, 122075, Note_on_c, 0, 45, 0
1, 122181, Note_on_c, 0, 59, 0
1, 122181, Note_on_c, 0, 57, 0
1, 122181, Note_on_c, 0, 50, 0
1, 122184, Note_on_c, 0, 52, 64
1, 122184, Note_on_c, 0, 61, 72
1, 122184, Note_on_c, 0, 57, 64
1, 122187, Note_on_c, 0, 33, 60
1, 122282, Control_c, 0, 64, 127
1, 122394, Note_on_c, 0, 33, 0
1, 122394, Note_on_c, 0, 45, 55
1, 122476, Control_c, 0, 64, 0
1, 122501, Note_on_c, 0, 45, 0
1, 122607, Note_on_c, 0, 45, 55
1, 122714, Note_on_c, 0, 45, 0
1, 122821, Note_on_c, 0, 57, 0
1, 122821, Note_on_c, 0, 50, 62
1, 122821, Note_on_c, 0, 57, 62
1, 122824, Note_on_c, 0, 59, 68
1, 122824, Note_on_c, 0, 45, 55
1, 122838, Note_on_c, 0, 61, 0
1, 122838, Note_on_c, 0, 52, 0
1, 122927, Note_on_c, 0, 45, 0
1, 123034, Note_on_c, 0, 57, 0
1, 123034, Note_on_c, 0, 49, 62
1, 123034, Note_on_c, 0, 57, 68
1, 123037, Note_on_c, 0, 45, 55
1, 123051, Note_on_c, 0, 59, 0
1, 123051, Note_on_c, 0, 50, 0
1, 123137, Note_on_c, 0, 45, 0
1, 123241, Note_on_c, 0, 45, 55
1, 123345, Note_on_c, 0, 45, 0
1, 123448, Note_on_c, 0, 45, 55
1, 123552, Note_on_c, 0, 45, 0
1, 123656, Note_on_c, 0, 45, 55
1, 123759, Note_on_c, 0, 45, 0
1, 123863, Note_on_c, 0, 33, 60
1, 123911, Control_c, 0, 64, 127
1, 124070, Note_on_c, 0, 33, 0
1, 124070, Note_on_c, 0, 45, 52
1, 124107, Control_c, 0, 64, 0
1, 124174, Note_on_c, 0, 45, 0
1, 124278, Note_on_c, 0, 49, 0
1, 124278, Note_on_c, 0, 57, 0
1, 124278, Note_on_c, 0, 52, 64
1, 124281, Note_on_c, 0, 57, 64
1, 124281, Note_on_c, 0, 61, 72
1, 124281, Note_on_c, 0, 45, 55
1, 124395, Note_on_c, 0, 45, 0
1, 124512, Note_on_c, 0, 45, 57
1, 124629, Note_on_c, 0, 45, 0
1, 124746, Note_on_c, 0, 61, 0
1, 124746, Note_on_c, 0, 57, 0
1, 124746, Note_on_c, 0, 52, 0
1, 124749, Note_on_c, 0, 54, 66
1, 124749, Note_on_c, 0, 57, 66
1, 124749, Note_on_c, 0, 62, 74
1, 124752, Note_on_c, 0, 33, 60
1, 124880, Control_c, 0, 64, 127
1, 124953, Note_on_c, 0, 33, 0
1, 124953, Note_on_c, 0, 45, 57
1, 125057, Note_on_c, 0, 45, 0
1, 125088, Control_c, 0, 64, 0
1, 125160, Note_on_c, 0, 45, 57
1, 125264, Note_on_c, 0, 45, 0
1, 125368, Note_on_c, 0, 57, 0
1, 125368, Note_on_c, 0, 52, 64
1, 125368, Note_on_c, 0, 57, 64
1, 125371, Note_on_c, 0, 61, 71
1, 125371, Note_on_c, 0, 45, 57
1, 125385, Note_on_c, 0, 62, 0
1, 125385, Note_on_c, 0, 54, 0
1, 125471, Note_on_c, 0, 45, 0
1, 125575, Note_on_c, 0, 57, 0
1, 125575, Note_on_c, 0, 50, 65
1, 125575, Note_on_c, 0, 57, 65
1, 125578, Note_on_c, 0, 59, 73
1, 125578, Note_on_c, 0, 45, 57
1, 125592, Note_on_c, 0, 61, 0
1, 125592, Note_on_c, 0, 52, 0
1, 125676, Note_on_c, 0, 45, 0
1, 125777, Note_on_c, 0, 45, 56
1, 125877, Note_on_c, 0, 45, 0
1, 125978, Note_on_c, 0, 50, 0
1, 125978, Note_on_c, 0, 59, 0
1, 125978, Note_on_c, 0, 57, 0
1, 125981, Note_on_c, 0, 54, 64
1, 125981, Note_on_c, 0, 57, 64
1, 125981, Note_on_c, 0, 62, 71
1, 125984, Note_on_c, 0, 33, 57
1, 126133, Control_c, 0, 64, 127
1, 126180, Note_on_c, 0, 33, 0
1, 126180, Note_on_c, 0, 45, 57
1, 126382, Note_on_c, 0, 54, 0
1, 126382, Note_on_c, 0, 62, 0
1, 126382, Note_on_c, 0, 57, 0
1, 126385, Note_on_c, 0, 52, 64
1, 126385, Note_on_c, 0, 57, 64
1, 126385, Note_on_c, 0, 61, 71
1, 126388, Note_on_c, 0, 45, 0
1, 126388, Note_on_c, 0, 33, 57
1, 126443, Control_c, 0, 64, 0
1, 126544, Control_c, 0, 64, 127
1, 126593, Note_on_c, 0, 33, 0
1, 126593, Note_on_c, 0, 45, 57
1, 126804, Note_on_c, 0, 61, 0
1, 126804, Note_on_c, 0, 52, 0
1, 126804, Note_on_c, 0, 57, 0
1, 126807, Note_on_c, 0, 49, 64
1, 126807, Note_on_c, 0, 52, 64
1, 126807, Note_on_c, 0, 57, 71
1, 126810, Note_on_c, 0, 45, 0
1, 126810, Note_on_c, 0, 37, 57
1, 127015, Note_on_c, 0, 37, 0
1, 127015, Note_on_c, 0, 49, 57
1, 127227, Note_on_c, 0, 57, 0
1, 127227, Note_on_c, 0, 49, 0
1, 127227, Note_on_c, 0, 52, 0
1, 127230, Note_on_c, 0, 47, 65
1, 127230, Note_on_c, 0, 52, 65
1, 127230, Note_on_c, 0, 56, 73
1, 127233, Note_on_c, 0, 49, 0
1, 127233, Control_c, 0, 64, 0
1, 127233, Note_on_c, 0, 40, 60
1, 127325, Control_c, 0, 64, 127
1, 127438, Note_on_c, 0, 40, 0
1, 127438, Note_on_c, 0, 40, 59
1, 127649, Note_on_c, 0, 40, 0
1, 127649, Note_on_c, 0, 40, 62
1, 127860, Note_on_c, 0, 40, 0
1, 127860, Note_on_c, 0, 40, 65
1, 128059, Control_c, 0, 64, 0
1, 128071, Note_on_c, 0, 40, 0
1, 128071, Note_on_c, 0, 40, 63
1, 128174, Note_on_c, 0, 40, 0
1, 128277, Note_on_c, 0, 40, 61
1, 128379, Note_on_c, 0, 40, 0
1, 128482, Note_on_c, 0, 47, 0
1, 128482, Note_on_c, 0, 52, 0
1, 128482, Note_on_c, 0, 56, 0
1, 128485, Note_on_c, 0, 47, 64
1, 128485, Note_on_c, 0, 54, 64
1, 128485, Note_on_c, 0, 56, 72
1, 128488, Note_on_c, 0, 38, 59
1, 128585, Note_on_c, 0, 38, 0
1, 128687, Note_on_c, 0, 38, 57
1, 128790, Note_on_c, 0, 38, 0
1, 128893, Note_on_c, 0, 56, 0
1, 128893, Note_on_c, 0, 54, 0
1, 128893, Note_on_c, 0, 47, 0
1, 128896, Note_on_c, 0, 49, 67
1, 128896, Note_on_c, 0, 52, 67
1, 128896, Note_on_c, 0, 56, 75
1, 128899, Note_on_c, 0, 37, 56
1, 128997, Note_on_c, 0, 37, 0
1, 129100, Note_on_c, 0, 37, 56
1, 129205, Note_on_c, 0, 37, 0
1, 129309, Note_on_c, 0, 56, 0
1, 129309, Note_on_c, 0, 52, 0
1, 129309, Note_on_c, 0, 49, 0
1, 129312, Note_on_c, 0, 50, 67
1, 129312, Note_on_c, 0, 52, 67
1, 129312, Note_on_c, 0, 56, 75
1, 129315, Note_on_c, 0, 35, 55
1, 129415, Note_on_c, 0, 35, 0
1, 129521, Note_on_c, 0, 35, 55
1, 129627, Note_on_c, 0, 35, 0
1, 129734, Note_on_c, 0, 56, 0
1, 129734, Note_on_c, 0, 52, 0
1, 129734, Note_on_c, 0, 50, 0
1, 129737, Note_on_c, 0, 49, 64
1, 129737, Note_on_c, 0, 52, 64
1, 129737, Note_on_c, 0, 57, 71
1, 129740, Note_on_c, 0, 33, 60
1, 129876, Control_c, 0, 64, 127
1, 129953, Note_on_c, 0, 33, 0
1, 129953, Note_on_c, 0, 45, 54
1, 130063, Note_on_c, 0, 45, 0
1, 130172, Control_c, 0, 64, 0
1, 130172, Note_on_c, 0, 45, 54
1, 130282, Note_on_c, 0, 45, 0
1, 130392, Note_on_c, 0, 45, 54
1, 130502, Note_on_c, 0, 45, 0
1, 130611, Note_on_c, 0, 57, 0
1, 130611, Note_on_c, 0, 52, 0
1, 130611, Note_on_c, 0, 49, 0
1, 130614, Note_on_c, 0, 49, 64
1, 130614, Note_on_c, 0, 57, 72
1, 130614, Note_on_c, 0, 33, 59
1, 130703, Control_c, 0, 64, 127
1, 130819, Note_on_c, 0, 33, 0
1, 130819, Note_on_c, 0, 45, 54
1, 130910, Control_c, 0, 64, 0
1, 130922, Note_on_c, 0, 45, 0
1, 131026, Note_on_c, 0, 45, 54
1, 131129, Note_on_c, 0, 45, 0
1, 131233, Note_on_c, 0, 45, 54
1, 131337, Note_on_c, 0, 45, 0
1, 131440, Note_on_c, 0, 57, 0
1, 131440, Note_on_c, 0, 49, 0
1, 131440, Note_on_c, 0, 50, 64
1, 131443, Note_on_c, 0, 57, 64
1, 131443, Note_on_c, 0, 59, 71
1, 131443, Note_on_c, 0, 33, 58
1, 131497, Control_c, 0, 64, 127
1, 131654, Note_on_c, 0, 33, 0
1, 131654, Note_on_c, 0, 45, 54
1, 131691, Control_c, 0, 64, 0
1, 131760, Note_on_c, 0, 45, 0
1, 131867, Note_on_c, 0, 45, 54
1, 131973, Note_on_c, 0, 45, 0
1, 132080, Note_on_c, 0, 45, 54
1, 132186, Note_on_c, 0, 45, 0
1, 132293, Note_on_c, 0, 59, 0
1, 132293, Note_on_c, 0, 57, 0
1, 132293, Note_on_c, 0, 50, 0
1, 132296, Note_on_c, 0, 52, 64
1, 132296, Note_on_c, 0, 61, 72
1, 132296, Note_on_c, 0, 57, 64
1, 132299, Note_on_c, 0, 33, 60
1, 132394, Control_c, 0, 64, 127
1, 132506, Note_on_c, 0, 33, 0
1, 132506, Note_on_c, 0, 45, 55
1, 132600, Control_c, 0, 64, 0
1, 132613, Note_on_c, 0, 45, 0
1, 132719, Note_on_c, 0, 45, 55
1, 132826, Note_on_c, 0, 45, 0
1, 132932, Note_on_c, 0, 57, 0
1, 132932, Note_on_c, 0, 50, 62
1, 132932, Note_on_c, 0, 57, 62
1, 132935, Note_on_c, 0, 59, 68
1, 132935, Note_on_c, 0, 45, 55
1, 132950, Note_on_c, 0, 61, 0
1, 132950, Note_on_c, 0, 52, 0
1, 133039, Note_on_c, 0, 45, 0
1, 133145, Note_on_c, 0, 57, 0
1, 133145, Note_on_c, 0, 49, 58
1, 133145, Note_on_c, 0, 57, 63
1, 133148, Note_on_c, 0, 45, 55
1, 133163, Note_on_c, 0, 59, 0
1, 133163, Note_on_c, 0, 50, 0
1, 133249, Note_on_c, 0, 45, 0
1, 133353, Note_on_c, 0, 45, 55
1, 133456, Note_on_c, 0, 45, 0
1, 133560, Note_on_c, 0, 33, 55
1, 133664, Note_on_c, 0, 33, 0
1, 133767, Note_on_c, 0, 45, 56
1, 133871, Note_on_c, 0, 45, 0
1, 133975, Note_on_c, 0, 31, 68
1, 134014, Control_c, 0, 64, 127
1, 134182, Note_on_c, 0, 31, 0
1, 134182, Note_on_c, 0, 43, 62
1, 134389, Note_on_c, 0, 49, 0
1, 134389, Note_on_c, 0, 57, 0
1, 134389, Note_on_c, 0, 54, 67
1, 134392, Note_on_c, 0, 52, 67
1, 134392, Note_on_c, 0, 58, 67
1, 134392, Note_on_c, 0, 61, 76
1, 134395, Note_on_c, 0, 43, 0
1, 134395, Note_on_c, 0, 28, 65
1, 134445, Control_c, 0, 64, 0
1, 134478, Control_c, 0, 64, 127
1, 134563, Note_on_c, 0, 28, 0
1, 134621, Note_on_c, 0, 42, 69
1, 134795, Note_on_c, 0, 42, 0
1, 134853, Note_on_c, 0, 54, 0
1, 134853, Note_on_c, 0, 61, 0
1, 134853, Note_on_c, 0, 52, 0
1, 134856, Note_on_c, 0, 58, 0
1, 134856, Note_on_c, 0, 50, 71
1, 134856, Note_on_c, 0, 54, 71
1, 134859, Note_on_c, 0, 59, 71
1, 134859, Note_on_c, 0, 62, 79
1, 134859, Control_c, 0, 64, 0
1, 134862, Note_on_c, 0, 35, 73
1, 134987, Control_c, 0, 64, 127
1, 135060, Note_on_c, 0, 35, 0
1, 135060, Note_on_c, 0, 47, 62
1, 135160, Control_c, 0, 64, 0
1, 135267, Note_on_c, 0, 47, 0
1, 135267, Note_on_c, 0, 47, 60
1, 135474, Note_on_c, 0, 54, 0
1, 135474, Note_on_c, 0, 54, 64
1, 135474, Note_on_c, 0, 52, 64
1, 135477, Note_on_c, 0, 47, 0
1, 135477, Note_on_c, 0, 58, 64
1, 135477, Note_on_c, 0, 61, 70
1, 135480, Note_on_c, 0, 49, 58
1, 135492, Note_on_c, 0, 62, 0
1, 135492, Note_on_c, 0, 50, 0
1, 135492, Note_on_c, 0, 59, 0
1, 135682, Note_on_c, 0, 58, 0
1, 135682, Note_on_c, 0, 50, 65
1, 135682, Note_on_c, 0, 57, 65
1, 135685, Note_on_c, 0, 49, 0
1, 135685, Note_on_c, 0, 59, 73
1, 135685, Note_on_c, 0, 50, 57
1, 135699, Note_on_c, 0, 54, 0
1, 135699, Note_on_c, 0, 52, 0
1, 135699, Note_on_c, 0, 61, 0
1, 135789, Control_c, 0, 64, 127
1, 135884, Note_on_c, 0, 50, 0
1, 135884, Note_on_c, 0, 47, 56
1, 136085, Note_on_c, 0, 57, 0
1, 136085, Note_on_c, 0, 50, 0
1, 136085, Note_on_c, 0, 59, 0
1, 136088, Note_on_c, 0, 50, 67
1, 136088, Note_on_c, 0, 54, 67
1, 136088, Note_on_c, 0, 62, 75
1, 136091, Note_on_c, 0, 47, 0
1, 136091, Note_on_c, 0, 35, 60
1, 136163, Control_c, 0, 64, 0
1, 136240, Control_c, 0, 64, 127
1, 136287, Note_on_c, 0, 35, 0
1, 136287, Note_on_c, 0, 54, 0
1, 136287, Note_on_c, 0, 56, 66
1, 136290, Note_on_c, 0, 47, 59
1, 136489, Note_on_c, 0, 56, 0
1, 136489, Note_on_c, 0, 62, 0
1, 136489, Note_on_c, 0, 50, 0
1, 136492, Note_on_c, 0, 52, 65
1, 136492, Note_on_c, 0, 57, 65
1, 136492, Note_on_c, 0, 61, 72
1, 136495, Note_on_c, 0, 47, 0
1, 136495, Note_on_c, 0, 37, 58
1, 136553, Control_c, 0, 64, 0
1, 136657, Control_c, 0, 64, 127
1, 136708, Note_on_c, 0, 37, 0
1, 136708, Note_on_c, 0, 49, 57
1, 136928, Note_on_c, 0, 61, 0
1, 136928, Note_on_c, 0, 52, 0
1, 136928, Note_on_c, 0, 57, 0
1, 136931, Note_on_c, 0, 50, 64
1, 136931, Note_on_c, 0, 52, 64
1, 136931, Note_on_c, 0, 56, 64
1, 136934, Note_on_c, 0, 49, 0
1, 136934, Note_on_c, 0, 59, 71
1, 136934, Note_on_c, 0, 40, 57
1, 137156, Note_on_c, 0, 40, 0
1, 137156, Note_on_c, 0, 52, 57
1, 137389, Note_on_c, 0, 50, 0
1, 137389, Note_on_c, 0, 59, 0
1, 137389, Note_on_c, 0, 52, 0
1, 137392, Note_on_c, 0, 56, 0
1, 137392, Note_on_c, 0, 50, 65
1, 137392, Note_on_c, 0, 52, 65
1, 137395, Note_on_c, 0, 52, 0
1, 137395, Note_on_c, 0, 56, 65
1, 137395, Note_on_c, 0, 59, 73
1, 137398, Control_c, 0, 64, 0
1, 137488, Control_c, 0, 64, 127
1, 137600, Note_on_c, 0, 40, 55
1, 137811, Note_on_c, 0, 40, 0
1, 137811, Note_on_c, 0, 44, 57
1, 138022, Note_on_c, 0, 44, 0
1, 138022, Note_on_c, 0, 40, 59
1, 138234, Note_on_c, 0, 59, 0
1, 138234, Note_on_c, 0, 56, 0
1, 138234, Note_on_c, 0, 50, 0
1, 138237, Note_on_c, 0, 40, 0
1, 138237, Note_on_c, 0, 49, 65
1, 138237, Note_on_c, 0, 57, 73
1, 138240, Control_c, 0, 64, 0
1, 138240, Note_on_c, 0, 45, 61
1, 138388, Note_on_c, 0, 45, 0
1, 138439, Note_on_c, 0, 37, 58
1, 138542, Note_on_c, 0, 37, 0
1, 138644, Note_on_c, 0, 52, 0
1, 138644, Note_on_c, 0, 38, 58
1, 138747, Note_on_c, 0, 38, 0
1, 138850, Note_on_c, 0, 40, 58
1, 138953, Note_on_c, 0, 40, 0
1, 139055, Note_on_c, 0, 57, 0
1, 139055, Note_on_c, 0, 49, 0
1, 139055, Note_on_c, 0, 42, 58
1, 139159, Note_on_c, 0, 42, 0
1, 139263, Note_on_c, 0, 40, 58
1, 139367, Note_on_c, 0, 40, 0
1, 139472, Note_on_c, 0, 42, 57
1, 139577, Note_on_c, 0, 42, 0
1, 139683, Note_on_c, 0, 44, 57
1, 139790, Note_on_c, 0, 44, 0
1, 139896, Note_on_c, 0, 69, 88
1, 139896, Note_on_c, 0, 45, 62
1, 139903, Control_c, 0, 64, 127
1, 140034, Note_on_c, 0, 64, 57
1, 140103, Note_on_c, 0, 45, 0
1, 140172, Note_on_c, 0, 64, 0
1, 140172, Note_on_c, 0, 61, 57
1, 140309, Note_on_c, 0, 61, 0
1, 140309, Note_on_c, 0, 64, 57
1, 140309, Note_on_c, 0, 49, 49
1, 140312, Note_on_c, 0, 52, 53
1, 140445, Note_on_c, 0, 64, 0
1, 140445, Note_on_c, 0, 61, 57
1, 140512, Note_on_c, 0, 52, 0
1, 140512, Note_on_c, 0, 49, 0
1, 140580, Note_on_c, 0, 61, 0
1, 140580, Note_on_c, 0, 57, 57
1, 140714, Note_on_c, 0, 57, 0
1, 140714, Note_on_c, 0, 69, 0
1, 140714, Note_on_c, 0, 69, 89
1, 140717, Note_on_c, 0, 45, 62
1, 140847, Note_on_c, 0, 64, 57
1, 140914, Note_on_c, 0, 45, 0
1, 140981, Note_on_c, 0, 64, 0
1, 140981, Note_on_c, 0, 61, 57
1, 141116, Note_on_c, 0, 61, 0
1, 141116, Note_on_c, 0, 64, 57
1, 141116, Note_on_c, 0, 49, 50
1, 141119, Note_on_c, 0, 52, 54
1, 141253, Note_on_c, 0, 64, 0
1, 141253, Note_on_c, 0, 61, 57
1, 141321, Note_on_c, 0, 52, 0
1, 141321, Note_on_c, 0, 49, 0
1, 141390, Note_on_c, 0, 61, 0
1, 141390, Note_on_c, 0, 57, 57
1, 141528, Note_on_c, 0, 57, 0
1, 141528, Note_on_c, 0, 69, 0
1, 141528, Note_on_c, 0, 71, 88
1, 141531, Note_on_c, 0, 45, 62
1, 141601, Control_c, 0, 64, 0
1, 141667, Note_on_c, 0, 68, 57
1, 141701, Control_c, 0, 64, 127
1, 141737, Note_on_c, 0, 45, 0
1, 141807, Note_on_c, 0, 68, 0
1, 141807, Note_on_c, 0, 64, 58
1, 141946, Note_on_c, 0, 64, 0
1, 141946, Note_on_c, 0, 68, 58
1, 141946, Note_on_c, 0, 50, 51
1, 141949, Note_on_c, 0, 52, 55
1, 142086, Note_on_c, 0, 68, 0
1, 142086, Note_on_c, 0, 64, 58
1, 142156, Note_on_c, 0, 52, 0
1, 142156, Note_on_c, 0, 50, 0
1, 142225, Note_on_c, 0, 64, 0
1, 142225, Note_on_c, 0, 59, 58
1, 142365, Note_on_c, 0, 59, 0
1, 142365, Note_on_c, 0, 71, 0
1, 142365, Note_on_c, 0, 73, 89
1, 142368, Note_on_c, 0, 45, 62
1, 142368, Control_c, 0, 64, 0
1, 142464, Control_c, 0, 64, 127
1, 142504, Note_on_c, 0, 69, 58
1, 142574, Note_on_c, 0, 45, 0
1, 142644, Note_on_c, 0, 69, 0
1, 142644, Note_on_c, 0, 64, 58
1, 142782, Note_on_c, 0, 64, 0
1, 142782, Note_on_c, 0, 69, 58
1, 142782, Note_on_c, 0, 52, 56
1, 142920, Note_on_c, 0, 69, 0
1, 142920, Note_on_c, 0, 64, 58
1, 142989, Note_on_c, 0, 52, 0
1, 143058, Note_on_c, 0, 64, 0
1, 143058, Note_on_c, 0, 62, 58
1, 143092, Note_on_c, 0, 73, 0
1, 143092, Note_on_c, 0, 71, 85
1, 143195, Note_on_c, 0, 71, 0
1, 143195, Note_on_c, 0, 62, 0
1, 143195, Note_on_c, 0, 69, 85
1, 143198, Note_on_c, 0, 45, 62
1, 143270, Control_c, 0, 64, 0
1, 143332, Note_on_c, 0, 64, 57
1, 143389, Control_c, 0, 64, 127
1, 143399, Note_on_c, 0, 45, 0
1, 143467, Note_on_c, 0, 64, 0
1, 143467, Note_on_c, 0, 61, 57
1, 143603, Note_on_c, 0, 61, 0
1, 143603, Note_on_c, 0, 64, 57
1, 143603, Note_on_c, 0, 52, 55
1, 143606, Note_on_c, 0, 49, 51
1, 143738, Note_on_c, 0, 64, 0
1, 143738, Note_on_c, 0, 61, 57
1, 143805, Note_on_c, 0, 49, 0
1, 143805, Note_on_c, 0, 52, 0
1, 143873, Note_on_c, 0, 61, 0
1, 143873, Note_on_c, 0, 57, 57
1, 144007, Note_on_c, 0, 57, 0
1, 144007, Note_on_c, 0, 45, 62
1, 144140, Note_on_c, 0, 61, 58
1, 144207, Note_on_c, 0, 45, 0
1, 144274, Note_on_c, 0, 61, 0
1, 144274, Note_on_c, 0, 64, 58
1, 144408, Note_on_c, 0, 64, 0
1, 144408, Note_on_c, 0, 69, 0
1, 144408, Note_on_c, 0, 61, 58
1, 144411, Note_on_c, 0, 73, 89
1, 144411, Note_on_c, 0, 52, 55
1, 144411, Note_on_c, 0, 57, 55
1, 144543, Note_on_c, 0, 61, 0
1, 144543, Note_on_c, 0, 64, 58
1, 144611, Note_on_c, 0, 57, 0
1, 144611, Note_on_c, 0, 52, 0
1, 144678, Note_on_c, 0, 64, 0
1, 144678, Note_on_c, 0, 69, 58
1, 144814, Note_on_c, 0, 69, 0
1, 144814, Note_on_c, 0, 73, 0
1, 144814, Note_on_c, 0, 74, 93
1, 144817, Note_on_c, 0, 45, 62
1, 144817, Control_c, 0, 64, 0
1, 144948, Control_c, 0, 64, 127
1, 144951, Note_on_c, 0, 69, 60
1, 145020, Note_on_c, 0, 45, 0
1, 145089, Note_on_c, 0, 69, 0
1, 145089, Note_on_c, 0, 66, 60
1, 145227, Note_on_c, 0, 66, 0
1, 145227, Note_on_c, 0, 69, 60
1, 145227, Note_on_c, 0, 57, 54
1, 145230, Note_on_c, 0, 54, 50
1, 145364, Note_on_c, 0, 69, 0
1, 145364, Note_on_c, 0, 66, 60
1, 145432, Note_on_c, 0, 54, 0
1, 145432, Note_on_c, 0, 57, 0
1, 145499, Note_on_c, 0, 66, 0
1, 145499, Note_on_c, 0, 64, 58
1, 145533, Note_on_c, 0, 74, 0
1, 145533, Note_on_c, 0, 73, 88
1, 145635, Note_on_c, 0, 73, 0
1, 145635, Note_on_c, 0, 64, 0
1, 145635, Note_on_c, 0, 71, 92
1, 145638, Note_on_c, 0, 45, 62
1, 145646, Control_c, 0, 64, 0
1, 145742, Control_c, 0, 64, 127
1, 145768, Note_on_c, 0, 62, 58
1, 145835, Note_on_c, 0, 45, 0
1, 145902, Note_on_c, 0, 62, 0
1, 145902, Note_on_c, 0, 69, 58
1, 146036, Note_on_c, 0, 69, 0
1, 146036, Note_on_c, 0, 71, 0
1, 146036, Note_on_c, 0, 74, 88
1, 146039, Note_on_c, 0, 54, 53
1, 146039, Note_on_c, 0, 57, 58
1, 146095, Control_c, 0, 64, 0
1, 146171, Note_on_c, 0, 66, 56
1, 146192, Control_c, 0, 64, 127
1, 146307, Note_on_c, 0, 66, 0
1, 146307, Note_on_c, 0, 69, 56
1, 146444, Note_on_c, 0, 69, 0
1, 146444, Note_on_c, 0, 74, 0
1, 146444, Note_on_c, 0, 73, 88
1, 146447, Note_on_c, 0, 57, 0
1, 146447, Note_on_c, 0, 54, 0
1, 146447, Note_on_c, 0, 52, 53
1, 146450, Note_on_c, 0, 57, 58
1, 146504, Control_c, 0, 64, 0
1, 146582, Note_on_c, 0, 69, 58
1, 146603, Control_c, 0, 64, 127
1, 146720, Note_on_c, 0, 69, 0
1, 146720, Note_on_c, 0, 64, 58
1, 146859, Note_on_c, 0, 64, 0
1, 146859, Note_on_c, 0, 73, 0
1, 146859, Note_on_c, 0, 69, 88
1, 146862, Note_on_c, 0, 57, 0
1, 146862, Note_on_c, 0, 52, 0
1, 146862, Note_on_c, 0, 49, 54
1, 146865, Note_on_c, 0, 57, 59
1, 146997, Note_on_c, 0, 64, 58
1, 147135, Note_on_c, 0, 64, 0
1, 147135, Note_on_c, 0, 61, 58
1, 147273, Note_on_c, 0, 61, 0
1, 147273, Note_on_c, 0, 69, 0
1, 147273, Note_on_c, 0, 68, 92
1, 147276, Note_on_c, 0, 57, 0
1, 147276, Note_on_c, 0, 49, 0
1, 147276, Note_on_c, 0, 40, 62
1, 147279, Control_c, 0, 64, 0
1, 147370, Control_c, 0, 64, 127
1, 147411, Note_on_c, 0, 64, 57
1, 147481, Note_on_c, 0, 40, 0
1, 147550, Note_on_c, 0, 64, 0
1, 147550, Note_on_c, 0, 59, 57
1, 147688, Note_on_c, 0, 59, 0
1, 147688, Note_on_c, 0, 64, 57
1, 147688, Note_on_c, 0, 52, 59
1, 147826, Note_on_c, 0, 64, 0
1, 147826, Note_on_c, 0, 59, 57
1, 147895, Note_on_c, 0, 52, 0
1, 147964, Note_on_c, 0, 59, 0
1, 147964, Note_on_c, 0, 56, 57
1, 148102, Note_on_c, 0, 56, 0
1, 148102, Note_on_c, 0, 64, 57
1, 148102, Note_on_c, 0, 40, 59
1, 148239, Note_on_c, 0, 64, 0
1, 148239, Note_on_c, 0, 59, 57
1, 148308, Note_on_c, 0, 40, 0
1, 148376, Note_on_c, 0, 59, 0
1, 148376, Note_on_c, 0, 56, 57
1, 148489, Control_c, 0, 64, 0
1, 148513, Note_on_c, 0, 56, 0
1, 148513, Note_on_c, 0, 68, 0
1, 148513, Note_on_c, 0, 68, 89
1, 148516, Note_on_c, 0, 50, 53
1, 148516, Note_on_c, 0, 52, 58
1, 148537, Control_c, 0, 64, 127
1, 148650, Note_on_c, 0, 66, 58
1, 148787, Note_on_c, 0, 66, 0
1, 148787, Note_on_c, 0, 59, 58
1, 148821, Note_on_c, 0, 52, 0
1, 148821, Note_on_c, 0, 50, 0
1, 148924, Note_on_c, 0, 68, 0
1, 148924, Note_on_c, 0, 59, 0
1, 148924, Note_on_c, 0, 68, 94
1, 148927, Note_on_c, 0, 49, 56
1, 148927, Note_on_c, 0, 52, 62
1, 148936, Control_c, 0, 64, 0
1, 148985, Control_c, 0, 64, 127
1, 149062, Note_on_c, 0, 64, 60
1, 149201, Note_on_c, 0, 64, 0
1, 149201, Note_on_c, 0, 61, 60
1, 149236, Note_on_c, 0, 52, 0
1, 149236, Note_on_c, 0, 49, 0
1, 149341, Note_on_c, 0, 68, 0
1, 149341, Note_on_c, 0, 61, 0
1, 149341, Note_on_c, 0, 68, 94
1, 149344, Note_on_c, 0, 47, 54
1, 149344, Note_on_c, 0, 52, 59
1, 149397, Control_c, 0, 64, 0
1, 149434, Control_c, 0, 64, 127
1, 149481, Note_on_c, 0, 64, 58
1, 149623, Note_on_c, 0, 64, 0
1, 149623, Note_on_c, 0, 62, 58
1, 149658, Note_on_c, 0, 52, 0
1, 149658, Note_on_c, 0, 47, 0
1, 149765, Note_on_c, 0, 68, 0
1, 149765, Note_on_c, 0, 62, 0
1, 149765, Note_on_c, 0, 69, 88
1, 149768, Note_on_c, 0, 45, 62
1, 149777, Control_c, 0, 64, 0
1, 149869, Control_c, 0, 64, 127
1, 149903, Note_on_c, 0, 64, 57
1, 149972, Note_on_c, 0, 45, 0
1, 150041, Note_on_c, 0, 64, 0
1, 150041, Note_on_c, 0, 61, 57
1, 150178, Note_on_c, 0, 61, 0
1, 150178, Note_on_c, 0, 64, 57
1, 150178, Note_on_c, 0, 49, 49
1, 150181, Note_on_c, 0, 52, 53
1, 150313, Note_on_c, 0, 64, 0
1, 150313, Note_on_c, 0, 61, 57
1, 150381, Note_on_c, 0, 52, 0
1, 150381, Note_on_c, 0, 49, 0
1, 150448, Note_on_c, 0, 61, 0
1, 150448, Note_on_c, 0, 57, 57
1, 150582, Note_on_c, 0, 57, 0
1, 150582, Note_on_c, 0, 69, 0
1, 150582, Note_on_c, 0, 69, 89
1, 150585, Note_on_c, 0, 45, 62
1, 150716, Note_on_c, 0, 64, 57
1, 150783, Note_on_c, 0, 45, 0
1, 150850, Note_on_c, 0, 64, 0
1, 150850, Note_on_c, 0, 61, 57
1, 150985, Note_on_c, 0, 61, 0
1, 150985, Note_on_c, 0, 64, 57
1, 150985, Note_on_c, 0, 49, 50
1, 150988, Note_on_c, 0, 52, 54
1, 151122, Note_on_c, 0, 64, 0
1, 151122, Note_on_c, 0, 61, 57
1, 151190, Note_on_c, 0, 52, 0
1, 151190, Note_on_c, 0, 49, 0
1, 151259, Note_on_c, 0, 61, 0
1, 151259, Note_on_c, 0, 57, 57
1, 151397, Note_on_c, 0, 57, 0
1, 151397, Note_on_c, 0, 69, 0
1, 151397, Note_on_c, 0, 71, 88
1, 151400, Note_on_c, 0, 45, 62
1, 151470, Control_c, 0, 64, 0
1, 151536, Note_on_c, 0, 68, 57
1, 151569, Control_c, 0, 64, 127
1, 151606, Note_on_c, 0, 45, 0
1, 151676, Note_on_c, 0, 68, 0
1, 151676, Note_on_c, 0, 64, 58
1, 151815, Note_on_c, 0, 64, 0
1, 151815, Note_on_c, 0, 68, 58
1, 151815, Note_on_c, 0, 50, 51
1, 151818, Note_on_c, 0, 52, 55
1, 151955, Note_on_c, 0, 68, 0
1, 151955, Note_on_c, 0, 64, 58
1, 152024, Note_on_c, 0, 52, 0
1, 152024, Note_on_c, 0, 50, 0
1, 152094, Note_on_c, 0, 64, 0
1, 152094, Note_on_c, 0, 59, 58
1, 152234, Note_on_c, 0, 59, 0
1, 152234, Note_on_c, 0, 71, 0
1, 152234, Note_on_c, 0, 73, 89
1, 152237, Note_on_c, 0, 45, 62
1, 152237, Control_c, 0, 64, 0
1, 152333, Control_c, 0, 64, 127
1, 152373, Note_on_c, 0, 69, 58
1, 152443, Note_on_c, 0, 45, 0
1, 152513, Note_on_c, 0, 69, 0
1, 152513, Note_on_c, 0, 64, 58
1, 152651, Note_on_c, 0, 64, 0
1, 152651, Note_on_c, 0, 69, 58
1, 152651, Note_on_c, 0, 52, 56
1, 152789, Note_on_c, 0, 69, 0
1, 152789, Note_on_c, 0, 64, 58
1, 152858, Note_on_c, 0, 52, 0
1, 152927, Note_on_c, 0, 64, 0
1, 152927, Note_on_c, 0, 62, 58
1, 152961, Note_on_c, 0, 73, 0
1, 152961, Note_on_c, 0, 71, 85
1, 153063, Note_on_c, 0, 71, 0
1, 153063, Note_on_c, 0, 62, 0
1, 153063, Note_on_c, 0, 69, 85
1, 153066, Note_on_c, 0, 45, 62
1, 153139, Control_c, 0, 64, 0
1, 153200, Note_on_c, 0, 64, 57
1, 153258, Control_c, 0, 64, 127
1, 153268, Note_on_c, 0, 45, 0
1, 153336, Note_on_c, 0, 64, 0
1, 153336, Note_on_c, 0, 61, 57
1, 153472, Note_on_c, 0, 61, 0
1, 153472, Note_on_c, 0, 64, 57
1, 153472, Note_on_c, 0, 45, 52
1, 153475, Note_on_c, 0, 52, 56
1, 153475, Note_on_c, 0, 49, 52
1, 153607, Note_on_c, 0, 64, 0
1, 153607, Note_on_c, 0, 61, 57
1, 153674, Note_on_c, 0, 52, 0
1, 153674, Note_on_c, 0, 49, 0
1, 153674, Note_on_c, 0, 45, 0
1, 153741, Note_on_c, 0, 61, 0
1, 153741, Note_on_c, 0, 57, 57
1, 153876, Note_on_c, 0, 57, 0
1, 153876, Note_on_c, 0, 43, 53
1, 153876, Note_on_c, 0, 49, 53
1, 153879, Note_on_c, 0, 52, 57
1, 154009, Note_on_c, 0, 61, 58
1, 154076, Note_on_c, 0, 52, 0
1, 154076, Note_on_c, 0, 49, 0
1, 154076, Note_on_c, 0, 43, 0
1, 154143, Note_on_c, 0, 61, 0
1, 154143, Note_on_c, 0, 64, 58
1, 154277, Note_on_c, 0, 64, 0
1, 154277, Note_on_c, 0, 69, 0
1, 154277, Note_on_c, 0, 70, 58
1, 154280, Note_on_c, 0, 73, 89
1, 154280, Note_on_c, 0, 42, 58
1, 154280, Note_on_c, 0, 49, 58
1, 154283, Note_on_c, 0, 54, 58
1, 154412, Note_on_c, 0, 70, 0
1, 154412, Note_on_c, 0, 66, 58
1, 154479, Note_on_c, 0, 49, 0
1, 154479, Note_on_c, 0, 54, 0
1, 154479, Note_on_c, 0, 42, 0
1, 154547, Note_on_c, 0, 66, 0
1, 154547, Note_on_c, 0, 64, 58
1, 154683, Note_on_c, 0, 64, 0
1, 154683, Note_on_c, 0, 73, 0
1, 154683, Note_on_c, 0, 74, 93
1, 154686, Note_on_c, 0, 47, 66
1, 154686, Control_c, 0, 64, 0
1, 154816, Control_c, 0, 64, 127
1, 154820, Note_on_c, 0, 71, 60
1, 154889, Note_on_c, 0, 47, 0
1, 154958, Note_on_c, 0, 71, 0
1, 154958, Note_on_c, 0, 66, 60
1, 155096, Note_on_c, 0, 66, 0
1, 155096, Note_on_c, 0, 71, 60
1, 155096, Note_on_c, 0, 54, 54
1, 155233, Note_on_c, 0, 71, 0
1, 155233, Note_on_c, 0, 66, 60
1, 155368, Note_on_c, 0, 66, 0
1, 155368, Note_on_c, 0, 64, 58
1, 155402, Note_on_c, 0, 54, 0
1, 155402, Note_on_c, 0, 74, 0
1, 155402, Note_on_c, 0, 73, 88
1, 155405, Note_on_c, 0, 58, 54
1, 155503, Note_on_c, 0, 73, 0
1, 155503, Note_on_c, 0, 64, 0
1, 155503, Note_on_c, 0, 71, 92
1, 155506, Note_on_c, 0, 58, 0
1, 155506, Note_on_c, 0, 59, 62
1, 155515, Control_c, 0, 64, 0
1, 155611, Control_c, 0, 64, 127
1, 155637, Note_on_c, 0, 62, 58
1, 155771, Note_on_c, 0, 62, 0
1, 155771, Note_on_c, 0, 66, 58
1, 155904, Note_on_c, 0, 66, 0
1, 155904, Note_on_c, 0, 71, 0
1, 155904, Note_on_c, 0, 74, 88
1, 155907, Note_on_c, 0, 59, 0
1, 155907, Note_on_c, 0, 47, 53
1, 155907, Note_on_c, 0, 54, 58
1, 155962, Control_c, 0, 64, 0
1, 156037, Note_on_c, 0, 66, 56
1, 156057, Control_c, 0, 64, 127
1, 156171, Note_on_c, 0, 66, 0
1, 156171, Note_on_c, 0, 68, 56
1, 156204, Note_on_c, 0, 54, 0
1, 156204, Note_on_c, 0, 56, 58
1, 156304, Note_on_c, 0, 68, 0
1, 156304, Note_on_c, 0, 74, 0
1, 156304, Note_on_c, 0, 73, 88
1, 156307, Note_on_c, 0, 47, 0
1, 156307, Note_on_c, 0, 56, 0
1, 156307, Note_on_c, 0, 49, 53
1, 156310, Note_on_c, 0, 57, 58
1, 156363, Control_c, 0, 64, 0
1, 156438, Note_on_c, 0, 69, 58
1, 156459, Control_c, 0, 64, 127
1, 156573, Note_on_c, 0, 69, 0
1, 156573, Note_on_c, 0, 64, 58
1, 156707, Note_on_c, 0, 64, 0
1, 156707, Note_on_c, 0, 73, 0
1, 156707, Note_on_c, 0, 71, 88
1, 156710, Note_on_c, 0, 57, 0
1, 156710, Note_on_c, 0, 49, 0
1, 156710, Note_on_c, 0, 52, 54
1, 156713, Note_on_c, 0, 56, 59
1, 156846, Note_on_c, 0, 64, 58
1, 156984, Note_on_c, 0, 64, 0
1, 157018, Note_on_c, 0, 62, 58
1, 157122, Note_on_c, 0, 56, 0
1, 157122, Note_on_c, 0, 71, 0
1, 157122, Note_on_c, 0, 71, 92
1, 157125, Note_on_c, 0, 52, 0
1, 157125, Note_on_c, 0, 45, 62
1, 157125, Control_c, 0, 64, 0
1, 157157, Note_on_c, 0, 62, 0
1, 157219, Control_c, 0, 64, 127
1, 157260, Note_on_c, 0, 68, 57
1, 157329, Note_on_c, 0, 45, 0
1, 157398, Note_on_c, 0, 68, 0
1, 157398, Note_on_c, 0, 64, 57
1, 157537, Note_on_c, 0, 64, 0
1, 157537, Note_on_c, 0, 68, 57
1, 157537, Note_on_c, 0, 52, 59
1, 157540, Note_on_c, 0, 56, 59
1, 157675, Note_on_c, 0, 68, 0
1, 157675, Note_on_c, 0, 64, 57
1, 157744, Note_on_c, 0, 56, 0
1, 157744, Note_on_c, 0, 52, 0
1, 157813, Note_on_c, 0, 64, 0
1, 157813, Note_on_c, 0, 62, 57
1, 157951, Note_on_c, 0, 62, 0
1, 157951, Note_on_c, 0, 71, 0
1, 157951, Note_on_c, 0, 69, 92
1, 157954, Note_on_c, 0, 61, 57
1, 157954, Note_on_c, 0, 52, 54
1, 157954, Note_on_c, 0, 57, 59
1, 157957, Note_on_c, 0, 45, 57
1, 158105, Note_on_c, 0, 45, 0
1, 158138, Control_c, 0, 64, 0
1, 158157, Note_on_c, 0, 52, 0
1, 158157, Note_on_c, 0, 57, 0
1, 158157, Note_on_c, 0, 45, 64
1, 158259, Note_on_c, 0, 45, 0
1, 158362, Note_on_c, 0, 61, 0
1, 158362, Note_on_c, 0, 69, 0
1, 158362, Note_on_c, 0, 47, 63
1, 158465, Note_on_c, 0, 47, 0
1, 158567, Note_on_c, 0, 49, 61
1, 158670, Note_on_c, 0, 49, 0
1, 158773, Note_on_c, 0, 47, 60
1, 158877, Note_on_c, 0, 47, 0
1, 158980, Note_on_c, 0, 45, 58
1, 159085, Note_on_c, 0, 45, 0
1, 159189, Note_on_c, 0, 44, 57
1, 159295, Note_on_c, 0, 44, 0
1, 159401, Note_on_c, 0, 42, 57
1, 159507, Note_on_c, 0, 42, 0
1, 159614, Note_on_c, 0, 56, 64
1, 159614, Note_on_c, 0, 59, 71
1, 159614, Note_on_c, 0, 40, 60
1, 159751, Control_c, 0, 64, 127
1, 159825, Note_on_c, 0, 40, 0
1, 159825, Note_on_c, 0, 52, 54
1, 159918, Control_c, 0, 64, 0
1, 159930, Note_on_c, 0, 52, 0
1, 160036, Note_on_c, 0, 52, 54
1, 160142, Note_on_c, 0, 52, 0
1, 160247, Note_on_c, 0, 52, 54
1, 160353, Note_on_c, 0, 52, 0
1, 160458, Note_on_c, 0, 59, 0
1, 160458, Note_on_c, 0, 56, 0
1, 160458, Note_on_c, 0, 56, 64
1, 160461, Note_on_c, 0, 59, 72
1, 160461, Note_on_c, 0, 40, 59
1, 160501, Control_c, 0, 64, 127
1, 160664, Note_on_c, 0, 40, 0
1, 160664, Note_on_c, 0, 52, 54
1, 160736, Control_c, 0, 64, 0
1, 160767, Note_on_c, 0, 52, 0
1, 160869, Note_on_c, 0, 52, 54
1, 160972, Note_on_c, 0, 52, 0
1, 161075, Note_on_c, 0, 52, 54
1, 161177, Note_on_c, 0, 52, 0
1, 161280, Note_on_c, 0, 59, 0
1, 161280, Note_on_c, 0, 56, 0
1, 161280, Note_on_c, 0, 52, 64
1, 161283, Note_on_c, 0, 58, 64
1, 161283, Note_on_c, 0, 61, 71
1, 161283, Note_on_c, 0, 37, 58
1, 161355, Control_c, 0, 64, 127
1, 161493, Note_on_c, 0, 37, 0
1, 161493, Note_on_c, 0, 49, 54
1, 161555, Control_c, 0, 64, 0
1, 161600, Note_on_c, 0, 49, 0
1, 161706, Note_on_c, 0, 49, 54
1, 161813, Note_on_c, 0, 49, 0
1, 161919, Note_on_c, 0, 49, 54
1, 162026, Note_on_c, 0, 49, 0
1, 162133, Note_on_c, 0, 61, 0
1, 162133, Note_on_c, 0, 58, 0
1, 162133, Note_on_c, 0, 52, 0
1, 162136, Note_on_c, 0, 54, 64
1, 162136, Note_on_c, 0, 62, 72
1, 162136, Note_on_c, 0, 59, 64
1, 162139, Note_on_c, 0, 35, 60
1, 162165, Control_c, 0, 64, 127
1, 162346, Note_on_c, 0, 35, 0
1, 162346, Note_on_c, 0, 47, 55
1, 162452, Note_on_c, 0, 47, 0
1, 162465, Control_c, 0, 64, 0
1, 162559, Note_on_c, 0, 47, 55
1, 162665, Note_on_c, 0, 47, 0
1, 162772, Note_on_c, 0, 61, 62
1, 162772, Note_on_c, 0, 64, 68
1, 162772, Note_on_c, 0, 47, 55
1, 162790, Note_on_c, 0, 59, 0
1, 162790, Note_on_c, 0, 62, 0
1, 162879, Note_on_c, 0, 47, 0
1, 162985, Note_on_c, 0, 62, 62
1, 162985, Note_on_c, 0, 66, 68
1, 162985, Note_on_c, 0, 35, 55
1, 163002, Note_on_c, 0, 64, 0
1, 163002, Note_on_c, 0, 61, 0
1, 163077, Control_c, 0, 64, 127
1, 163141, Note_on_c, 0, 35, 0
1, 163192, Note_on_c, 0, 47, 55
1, 163296, Note_on_c, 0, 47, 0
1, 163308, Control_c, 0, 64, 0
1, 163400, Note_on_c, 0, 47, 55
1, 163503, Note_on_c, 0, 47, 0
1, 163607, Note_on_c, 0, 47, 55
1, 163711, Note_on_c, 0, 47, 0
1, 163814, Note_on_c, 0, 54, 0
1, 163814, Note_on_c, 0, 54, 64
1, 163814, Note_on_c, 0, 35, 60
1, 163852, Control_c, 0, 64, 127
1, 164013, Note_on_c, 0, 35, 0
1, 164013, Note_on_c, 0, 47, 58
1, 164211, Note_on_c, 0, 62, 0
1, 164211, Note_on_c, 0, 54, 0
1, 164211, Note_on_c, 0, 66, 0
1, 164214, Note_on_c, 0, 56, 71
1, 164214, Note_on_c, 0, 62, 71
1, 164214, Note_on_c, 0, 66, 80
1, 164217, Note_on_c, 0, 47, 0
1, 164217, Note_on_c, 0, 35, 61
1, 164263, Control_c, 0, 64, 0
1, 164294, Control_c, 0, 64, 127
1, 164373, Note_on_c, 0, 35, 0
1, 164427, Note_on_c, 0, 47, 65
1, 164589, Note_on_c, 0, 47, 0
1, 164643, Note_on_c, 0, 56, 0
1, 164643, Note_on_c, 0, 62, 0
1, 164643, Note_on_c, 0, 66, 0
1, 164646, Note_on_c, 0, 57, 75
1, 164646, Note_on_c, 0, 62, 75
1, 164646, Note_on_c, 0, 66, 84
1, 164649, Control_c, 0, 64, 0
1, 164649, Note_on_c, 0, 33, 68
1, 164777, Control_c, 0, 64, 127
1, 164850, Note_on_c, 0, 33, 0
1, 164850, Note_on_c, 0, 45, 64
1, 165057, Note_on_c, 0, 45, 0
1, 165057, Note_on_c, 0, 45, 66
1, 165265, Note_on_c, 0, 66, 0
1, 165265, Note_on_c, 0, 57, 0
1, 165265, Note_on_c, 0, 62, 0
1, 165268, Note_on_c, 0, 59, 74
1, 165268, Note_on_c, 0, 62, 74
1, 165268, Note_on_c, 0, 67, 84
1, 165271, Note_on_c, 0, 45, 0
1, 165271, Note_on_c, 0, 43, 67
1, 165472, Note_on_c, 0, 59, 0
1, 165472, Note_on_c, 0, 67, 0
1, 165472, Note_on_c, 0, 62, 0
1, 165475, Note_on_c, 0, 57, 76
1, 165475, Note_on_c, 0, 62, 76
1, 165475, Note_on_c, 0, 69, 86
1, 165478, Note_on_c, 0, 43, 0
1, 165478, Note_on_c, 0, 30, 69
1, 165511, Control_c, 0, 64, 0
1, 165580, Control_c, 0, 64, 127
1, 165674, Note_on_c, 0, 30, 0
1, 165674, Note_on_c, 0, 42, 63
1, 165875, Note_on_c, 0, 69, 0
1, 165875, Note_on_c, 0, 57, 0
1, 165875, Note_on_c, 0, 62, 0
1, 165878, Note_on_c, 0, 59, 74
1, 165878, Note_on_c, 0, 62, 74
1, 165878, Note_on_c, 0, 67, 83
1, 165881, Note_on_c, 0, 42, 0
1, 165881, Note_on_c, 0, 31, 65
1, 165953, Control_c, 0, 64, 0
1, 166030, Control_c, 0, 64, 127
1, 166077, Note_on_c, 0, 31, 0
1, 166077, Note_on_c, 0, 43, 63
1, 166279, Note_on_c, 0, 67, 0
1, 166279, Note_on_c, 0, 59, 0
1, 166279, Note_on_c, 0, 62, 0
1, 166282, Note_on_c, 0, 57, 72
1, 166282, Note_on_c, 0, 62, 72
1, 166282, Note_on_c, 0, 66, 81
1, 166285, Note_on_c, 0, 43, 0
1, 166285, Note_on_c, 0, 33, 63
1, 166343, Control_c, 0, 64, 0
1, 166447, Control_c, 0, 64, 127
1, 166498, Note_on_c, 0, 33, 0
1, 166498, Note_on_c, 0, 45, 62
1, 166718, Note_on_c, 0, 66, 0
1, 166718, Note_on_c, 0, 57, 0
1, 166718, Note_on_c, 0, 62, 0
1, 166721, Note_on_c, 0, 55, 70
1, 166721, Note_on_c, 0, 57, 70
1, 166721, Note_on_c, 0, 61, 70
1, 166724, Note_on_c, 0, 45, 0
1, 166724, Note_on_c, 0, 64, 77
1, 166724, Note_on_c, 0, 33, 61
1, 166946, Note_on_c, 0, 33, 0
1, 166946, Note_on_c, 0, 45, 60
1, 167179, Note_on_c, 0, 55, 0
1, 167179, Note_on_c, 0, 64, 0
1, 167179, Note_on_c, 0, 57, 0
1, 167182, Note_on_c, 0, 61, 0
1, 167182, Note_on_c, 0, 55, 65
1, 167182, Note_on_c, 0, 57, 65
1, 167185, Note_on_c, 0, 45, 0
1, 167185, Note_on_c, 0, 61, 65
1, 167185, Note_on_c, 0, 64, 73
1, 167188, Note_on_c, 0, 33, 57
1, 167188, Control_c, 0, 64, 0
1, 167278, Control_c, 0, 64, 127
1, 167390, Note_on_c, 0, 33, 0
1, 167390, Note_on_c, 0, 45, 55
1, 167602, Note_on_c, 0, 45, 0
1, 167602, Note_on_c, 0, 49, 57
1, 167813, Note_on_c, 0, 49, 0
1, 167813, Note_on_c, 0, 45, 59
1, 168024, Note_on_c, 0, 57, 0
1, 168024, Note_on_c, 0, 64, 0
1, 168024, Note_on_c, 0, 55, 0
1, 168027, Note_on_c, 0, 61, 0
1, 168027, Note_on_c, 0, 54, 65
1, 168027, Note_on_c, 0, 57, 65
1, 168030, Note_on_c, 0, 45, 0
1, 168030, Note_on_c, 0, 62, 73
1, 168030, Control_c, 0, 64, 0
1, 168033, Note_on_c, 0, 38, 61
1, 168177, Note_on_c, 0, 38, 0
1, 168227, Note_on_c, 0, 50, 55
1, 168330, Note_on_c, 0, 50, 0
1, 168433, Note_on_c, 0, 50, 54
1, 168536, Note_on_c, 0, 50, 0
1, 168640, Note_on_c, 0, 50, 54
1, 168745, Note_on_c, 0, 50, 0
1, 168850, Note_on_c, 0, 50, 53
1, 168953, Note_on_c, 0, 50, 0
1, 169059, Note_on_c, 0, 50, 52
1, 169169, Note_on_c, 0, 50, 0
1, 169281, Note_on_c, 0, 50, 51
1, 169397, Note_on_c, 0, 50, 0
1, 169516, Note_on_c, 0, 50, 50
1, 169702, Note_on_c, 0, 50, 0
1, 169765, Note_on_c, 0, 62, 0
1, 169765, Note_on_c, 0, 57, 0
1, 169765, Note_on_c, 0, 54, 0
1, 169768, Note_on_c, 0, 53, 60
1, 169768, Note_on_c, 0, 58, 66
1, 169768, Note_on_c, 0, 38, 56
1, 169784, Control_c, 0, 64, 127
1, 169976, Note_on_c, 0, 38, 0
1, 169976, Note_on_c, 0, 50, 51
1, 170020, Control_c, 0, 64, 0
1, 170081, Note_on_c, 0, 50, 0
1, 170187, Note_on_c, 0, 50, 51
1, 170292, Note_on_c, 0, 50, 0
1, 170398, Note_on_c, 0, 50, 51
1, 170504, Note_on_c, 0, 50, 0
1, 170609, Note_on_c, 0, 58, 0
1, 170609, Note_on_c, 0, 53, 0
1, 170609, Note_on_c, 0, 53, 60
1, 170612, Note_on_c, 0, 58, 67
1, 170612, Note_on_c, 0, 38, 55
1, 170657, Control_c, 0, 64, 127
1, 170815, Note_on_c, 0, 38, 0
1, 170815, Note_on_c, 0, 50, 51
1, 170886, Control_c, 0, 64, 0
1, 170917, Note_on_c, 0, 50, 0
1, 171020, Note_on_c, 0, 50, 51
1, 171123, Note_on_c, 0, 50, 0
1, 171225, Note_on_c, 0, 50, 51
1, 171328, Note_on_c, 0, 50, 0
1, 171431, Note_on_c, 0, 58, 0
1, 171431, Note_on_c, 0, 53, 0
1, 171431, Note_on_c, 0, 53, 60
1, 171434, Note_on_c, 0, 58, 66
1, 171434, Note_on_c, 0, 38, 54
1, 171488, Control_c, 0, 64, 127
1, 171644, Note_on_c, 0, 38, 0
1, 171644, Note_on_c, 0, 50, 51
1, 171731, Control_c, 0, 64, 0
1, 171751, Note_on_c, 0, 50, 0
1, 171857, Note_on_c, 0, 50, 51
1, 171964, Note_on_c, 0, 50, 0
1, 172070, Note_on_c, 0, 50, 51
1, 172177, Note_on_c, 0, 50, 0
1, 172283, Note_on_c, 0, 58, 0
1, 172283, Note_on_c, 0, 53, 0
1, 172283, Note_on_c, 0, 58, 67
1, 172286, Note_on_c, 0, 55, 60
1, 172286, Note_on_c, 0, 39, 56
1, 172294, Control_c, 0, 64, 127
1, 172496, Note_on_c, 0, 39, 0
1, 172496, Note_on_c, 0, 51, 52
1, 172527, Control_c, 0, 64, 0
1, 172603, Note_on_c, 0, 51, 0
1, 172710, Note_on_c, 0, 51, 52
1, 172816, Note_on_c, 0, 51, 0
1, 172923, Note_on_c, 0, 55, 0
1, 172923, Note_on_c, 0, 58, 0
1, 172923, Note_on_c, 0, 57, 58
1, 172926, Note_on_c, 0, 51, 52
1, 172977, Note_on_c, 0, 58, 58
1, 172995, Note_on_c, 0, 57, 0
1, 173032, Note_on_c, 0, 51, 0
1, 173032, Note_on_c, 0, 60, 58
1, 173050, Note_on_c, 0, 58, 0
1, 173086, Note_on_c, 0, 58, 58
1, 173105, Note_on_c, 0, 60, 0
1, 173141, Note_on_c, 0, 55, 63
1, 173141, Note_on_c, 0, 39, 52
1, 173159, Note_on_c, 0, 58, 0
1, 173302, Note_on_c, 0, 39, 0
1, 173356, Note_on_c, 0, 51, 52
1, 173517, Note_on_c, 0, 51, 0
1, 173571, Note_on_c, 0, 55, 0
1, 173571, Note_on_c, 0, 55, 60
1, 173571, Note_on_c, 0, 63, 60
1, 173574, Note_on_c, 0, 67, 66
1, 173574, Note_on_c, 0, 36, 52
1, 173589, Control_c, 0, 64, 127
1, 173727, Note_on_c, 0, 36, 0
1, 173779, Note_on_c, 0, 48, 52
1, 173934, Note_on_c, 0, 48, 0
1, 173986, Note_on_c, 0, 67, 0
1, 173986, Note_on_c, 0, 63, 0
1, 173986, Note_on_c, 0, 55, 0
1, 173989, Note_on_c, 0, 55, 60
1, 173989, Note_on_c, 0, 59, 60
1, 173989, Note_on_c, 0, 65, 66
1, 173992, Note_on_c, 0, 38, 56
1, 174032, Control_c, 0, 64, 127
1, 174059, Control_c, 0, 64, 0
1, 174189, Note_on_c, 0, 38, 0
1, 174189, Note_on_c, 0, 50, 49
1, 174393, Note_on_c, 0, 55, 0
1, 174393, Note_on_c, 0, 65, 0
1, 174393, Note_on_c, 0, 59, 0
1, 174396, Note_on_c, 0, 55, 54
1, 174396, Note_on_c, 0, 60, 54
1, 174396, Note_on_c, 0, 63, 67
1, 174399, Note_on_c, 0, 50, 0
1, 174399, Note_on_c, 0, 39, 52
1, 174443, Control_c, 0, 64, 0
1, 174472, Control_c, 0, 64, 127
1, 174548, Note_on_c, 0, 39, 0
1, 174600, Note_on_c, 0, 51, 53
1, 174756, Note_on_c, 0, 51, 0
1, 174808, Note_on_c, 0, 55, 0
1, 174808, Note_on_c, 0, 60, 0
1, 174808, Note_on_c, 0, 63, 0
1, 174811, Note_on_c, 0, 53, 62
1, 174811, Note_on_c, 0, 58, 62
1, 174811, Note_on_c, 0, 62, 70
1, 174814, Control_c, 0, 64, 0
1, 174814, Note_on_c, 0, 29, 57
1, 174877, Control_c, 0, 64, 127
1, 175015, Note_on_c, 0, 29, 0
1, 175015, Note_on_c, 0, 41, 52
1, 175044, Control_c, 0, 64, 0
1, 175119, Note_on_c, 0, 41, 0
1, 175222, Note_on_c, 0, 41, 52
1, 175326, Note_on_c, 0, 41, 0
1, 175430, Note_on_c, 0, 41, 53
1, 175533, Note_on_c, 0, 41, 0
1, 175637, Note_on_c, 0, 29, 53
1, 175689, Control_c, 0, 64, 127
1, 175839, Note_on_c, 0, 29, 0
1, 175839, Note_on_c, 0, 41, 53
1, 175877, Control_c, 0, 64, 0
1, 175940, Note_on_c, 0, 41, 0
1, 176040, Note_on_c, 0, 41, 53
1, 176143, Note_on_c, 0, 41, 0
1, 176246, Note_on_c, 0, 41, 53
1, 176349, Note_on_c, 0, 41, 0
1, 176451, Note_on_c, 0, 62, 0
1, 176451, Note_on_c, 0, 58, 0
1, 176451, Note_on_c, 0, 53, 0
1, 176454, Note_on_c, 0, 51, 62
1, 176454, Note_on_c, 0, 57, 62
1, 176454, Note_on_c, 0, 63, 69
1, 176457, Note_on_c, 0, 29, 52
1, 176522, Control_c, 0, 64, 127
1, 176662, Note_on_c, 0, 29, 0
1, 176662, Note_on_c, 0, 41, 52
1, 176733, Control_c, 0, 64, 0
1, 176768, Note_on_c, 0, 41, 0
1, 176874, Note_on_c, 0, 41, 52
1, 176983, Note_on_c, 0, 41, 0
1, 177093, Note_on_c, 0, 60, 67
1, 177093, Note_on_c, 0, 41, 53
1, 177111, Note_on_c, 0, 63, 0
1, 177203, Note_on_c, 0, 41, 0
1, 177312, Note_on_c, 0, 51, 0
1, 177312, Note_on_c, 0, 57, 0
1, 177312, Note_on_c, 0, 50, 61
1, 177315, Note_on_c, 0, 56, 61
1, 177315, Note_on_c, 0, 59, 68
1, 177315, Note_on_c, 0, 29, 57
1, 177330, Note_on_c, 0, 60, 0
1, 177523, Note_on_c, 0, 29, 0
1, 177523, Note_on_c, 0, 41, 54
1, 177629, Note_on_c, 0, 41, 0
1, 177735, Note_on_c, 0, 41, 54
1, 177840, Note_on_c, 0, 41, 0
1, 177946, Note_on_c, 0, 41, 55
1, 178051, Note_on_c, 0, 41, 0
1, 178157, Note_on_c, 0, 29, 55
1, 178362, Note_on_c, 0, 29, 0
1, 178362, Note_on_c, 0, 41, 54
1, 178465, Note_on_c, 0, 41, 0
1, 178568, Note_on_c, 0, 41, 54
1, 178670, Note_on_c, 0, 41, 0
1, 178773, Note_on_c, 0, 41, 54
1, 178876, Note_on_c, 0, 41, 0
1, 178979, Note_on_c, 0, 29, 55
1, 179186, Note_on_c, 0, 29, 0
1, 179186, Note_on_c, 0, 41, 54
1, 179291, Note_on_c, 0, 41, 0
1, 179395, Note_on_c, 0, 41, 54
1, 179501, Note_on_c, 0, 41, 0
1, 179606, Note_on_c, 0, 41, 53
1, 179713, Note_on_c, 0, 41, 0
1, 179819, Note_on_c, 0, 59, 0
1, 179819, Note_on_c, 0, 56, 0
1, 179819, Note_on_c, 0, 50, 0
1, 179822, Note_on_c, 0, 50, 62
1, 179822, Note_on_c, 0, 56, 62
1, 179822, Note_on_c, 0, 59, 70
1, 179825, Control_c, 0, 64, 0
1, 179825, Note_on_c, 0, 40, 57
1, 179904, Control_c, 0, 64, 127
1, 180027, Note_on_c, 0, 40, 0
1, 180027, Note_on_c, 0, 52, 54
1, 180130, Note_on_c, 0, 52, 0
1, 180155, Control_c, 0, 64, 0
1, 180234, Note_on_c, 0, 52, 54
1, 180338, Note_on_c, 0, 52, 0
1, 180441, Note_on_c, 0, 52, 55
1, 180545, Note_on_c, 0, 52, 0
1, 180649, Note_on_c, 0, 40, 55
1, 180684, Control_c, 0, 64, 127
1, 180850, Note_on_c, 0, 40, 0
1, 180850, Note_on_c, 0, 52, 55
1, 180874, Control_c, 0, 64, 0
1, 180951, Note_on_c, 0, 52, 0
1, 181052, Note_on_c, 0, 59, 0
1, 181052, Note_on_c, 0, 61, 72
1, 181052, Note_on_c, 0, 52, 57
1, 181157, Note_on_c, 0, 52, 0
1, 181261, Note_on_c, 0, 62, 72
1, 181261, Note_on_c, 0, 52, 56
1, 181279, Note_on_c, 0, 61, 0
1, 181366, Note_on_c, 0, 52, 0
1, 181471, Note_on_c, 0, 50, 0
1, 181471, Note_on_c, 0, 56, 0
1, 181471, Note_on_c, 0, 64, 71
1, 181474, Note_on_c, 0, 40, 56
1, 181489, Note_on_c, 0, 62, 0
1, 181644, Control_c, 0, 64, 127
1, 181697, Note_on_c, 0, 40, 0
1, 181697, Note_on_c, 0, 52, 55
1, 181922, Note_on_c, 0, 64, 0
1, 181922, Note_on_c, 0, 50, 70
1, 181922, Note_on_c, 0, 52, 70
1, 181925, Note_on_c, 0, 52, 0
1, 181925, Note_on_c, 0, 56, 70
1, 181925, Note_on_c, 0, 40, 56
1, 182163, Note_on_c, 0, 40, 0
1, 182163, Note_on_c, 0, 40, 55
1, 182403, Note_on_c, 0, 50, 0
1, 182403, Note_on_c, 0, 56, 0
1, 182403, Note_on_c, 0, 52, 0
1, 182406, Note_on_c, 0, 49, 64
1, 182406, Note_on_c, 0, 52, 64
1, 182406, Note_on_c, 0, 57, 71
1, 182409, Note_on_c, 0, 40, 0
1, 182409, Control_c, 0, 64, 0
1, 182409, Note_on_c, 0, 33, 60
1, 182546, Control_c, 0, 64, 127
1, 182623, Note_on_c, 0, 33, 0
1, 182623, Note_on_c, 0, 45, 54
1, 182732, Note_on_c, 0, 45, 0
1, 182842, Note_on_c, 0, 45, 54
1, 182855, Control_c, 0, 64, 0
1, 182952, Note_on_c, 0, 45, 0
1, 183061, Note_on_c, 0, 45, 54
1, 183171, Note_on_c, 0, 45, 0
1, 183281, Note_on_c, 0, 49, 0
1, 183281, Note_on_c, 0, 52, 0
1, 183281, Note_on_c, 0, 57, 0
1, 183284, Note_on_c, 0, 49, 64
1, 183284, Note_on_c, 0, 57, 72
1, 183284, Note_on_c, 0, 33, 59
1, 183372, Control_c, 0, 64, 127
1, 183488, Note_on_c, 0, 33, 0
1, 183488, Note_on_c, 0, 45, 54
1, 183561, Control_c, 0, 64, 0
1, 183592, Note_on_c, 0, 45, 0
1, 183695, Note_on_c, 0, 45, 54
1, 183799, Note_on_c, 0, 45, 0
1, 183903, Note_on_c, 0, 45, 54
1, 184006, Note_on_c, 0, 45, 0
1, 184110, Note_on_c, 0, 57, 0
1, 184110, Note_on_c, 0, 49, 0
1, 184110, Note_on_c, 0, 50, 64
1, 184113, Note_on_c, 0, 57, 64
1, 184113, Note_on_c, 0, 59, 71
1, 184113, Note_on_c, 0, 33, 58
1, 184179, Control_c, 0, 64, 127
1, 184323, Note_on_c, 0, 33, 0
1, 184323, Note_on_c, 0, 45, 54
1, 184405, Control_c, 0, 64, 0
1, 184430, Note_on_c, 0, 45, 0
1, 184536, Note_on_c, 0, 45, 54
1, 184643, Note_on_c, 0, 45, 0
1, 184749, Note_on_c, 0, 45, 54
1, 184856, Note_on_c, 0, 45, 0
1, 184962, Note_on_c, 0, 59, 0
1, 184962, Note_on_c, 0, 57, 0
1, 184962, Note_on_c, 0, 50, 0
1, 184965, Note_on_c, 0, 52, 64
1, 184965, Note_on_c, 0, 61, 72
1, 184965, Note_on_c, 0, 57, 64
1, 184968, Note_on_c, 0, 33, 60
1, 185064, Control_c, 0, 64, 127
1, 185176, Note_on_c, 0, 33, 0
1, 185176, Note_on_c, 0, 45, 55
1, 185282, Note_on_c, 0, 45, 0
1, 185282, Control_c, 0, 64, 0
1, 185389, Note_on_c, 0, 45, 55
1, 185495, Note_on_c, 0, 45, 0
1, 185602, Note_on_c, 0, 57, 0
1, 185602, Note_on_c, 0, 50, 62
1, 185602, Note_on_c, 0, 57, 62
1, 185605, Note_on_c, 0, 59, 68
1, 185605, Note_on_c, 0, 45, 55
1, 185620, Note_on_c, 0, 61, 0
1, 185620, Note_on_c, 0, 52, 0
1, 185708, Note_on_c, 0, 45, 0
1, 185815, Note_on_c, 0, 57, 0
1, 185815, Note_on_c, 0, 49, 62
1, 185815, Note_on_c, 0, 57, 68
1, 185818, Note_on_c, 0, 45, 55
1, 185832, Note_on_c, 0, 59, 0
1, 185832, Note_on_c, 0, 50, 0
1, 185919, Note_on_c, 0, 45, 0
1, 186022, Note_on_c, 0, 45, 55
1, 186126, Note_on_c, 0, 45, 0
1, 186230, Note_on_c, 0, 45, 55
1, 186333, Note_on_c, 0, 45, 0
1, 186437, Note_on_c, 0, 45, 55
1, 186541, Note_on_c, 0, 45, 0
1, 186644, Note_on_c, 0, 45, 63
1, 186748, Note_on_c, 0, 45, 0
1, 186852, Note_on_c, 0, 45, 54
1, 186955, Note_on_c, 0, 45, 0
1, 187059, Note_on_c, 0, 49, 0
1, 187059, Note_on_c, 0, 57, 0
1, 187059, Note_on_c, 0, 52, 67
1, 187062, Note_on_c, 0, 57, 67
1, 187062, Note_on_c, 0, 61, 76
1, 187062, Note_on_c, 0, 45, 57
1, 187166, Note_on_c, 0, 45, 0
1, 187274, Note_on_c, 0, 45, 60
1, 187382, Note_on_c, 0, 45, 0
1, 187489, Note_on_c, 0, 61, 0
1, 187489, Note_on_c, 0, 57, 0
1, 187489, Note_on_c, 0, 52, 0
1, 187492, Note_on_c, 0, 53, 70
1, 187492, Note_on_c, 0, 57, 70
1, 187492, Note_on_c, 0, 62, 78
1, 187495, Note_on_c, 0, 33, 63
1, 187532, Control_c, 0, 64, 127
1, 187697, Note_on_c, 0, 33, 0
1, 187697, Note_on_c, 0, 45, 60
1, 187781, Control_c, 0, 64, 0
1, 187800, Note_on_c, 0, 45, 0
1, 187904, Note_on_c, 0, 45, 60
1, 188008, Note_on_c, 0, 45, 0
1, 188111, Note_on_c, 0, 57, 0
1, 188111, Note_on_c, 0, 52, 67
1, 188111, Note_on_c, 0, 57, 67
1, 188114, Note_on_c, 0, 61, 75
1, 188114, Note_on_c, 0, 45, 60
1, 188128, Note_on_c, 0, 62, 0
1, 188128, Note_on_c, 0, 53, 0
1, 188215, Note_on_c, 0, 45, 0
1, 188319, Note_on_c, 0, 57, 0
1, 188319, Note_on_c, 0, 50, 68
1, 188319, Note_on_c, 0, 57, 68
1, 188322, Note_on_c, 0, 59, 77
1, 188322, Note_on_c, 0, 33, 60
1, 188335, Note_on_c, 0, 61, 0
1, 188335, Note_on_c, 0, 52, 0
1, 188419, Note_on_c, 0, 33, 0
1, 188520, Note_on_c, 0, 45, 59
1, 188621, Note_on_c, 0, 45, 0
1, 188722, Note_on_c, 0, 50, 0
1, 188722, Note_on_c, 0, 59, 0
1, 188722, Note_on_c, 0, 57, 0
1, 188725, Note_on_c, 0, 53, 67
1, 188725, Note_on_c, 0, 57, 67
1, 188725, Note_on_c, 0, 62, 75
1, 188728, Note_on_c, 0, 45, 60
1, 188823, Note_on_c, 0, 45, 0
1, 188924, Note_on_c, 0, 45, 60
1, 189025, Note_on_c, 0, 45, 0
1, 189126, Note_on_c, 0, 62, 0
1, 189126, Note_on_c, 0, 57, 0
1, 189126, Note_on_c, 0, 53, 0
1, 189129, Note_on_c, 0, 52, 67
1, 189129, Note_on_c, 0, 57, 67
1, 189129, Note_on_c, 0, 61, 75
1, 189132, Note_on_c, 0, 33, 60
1, 189287, Control_c, 0, 64, 127
1, 189337, Note_on_c, 0, 33, 0
1, 189337, Note_on_c, 0, 45, 60
1, 189548, Note_on_c, 0, 52, 0
1, 189548, Note_on_c, 0, 61, 0
1, 189548, Note_on_c, 0, 57, 0
1, 189551, Note_on_c, 0, 49, 67
1, 189551, Note_on_c, 0, 52, 67
1, 189551, Note_on_c, 0, 57, 75
1, 189554, Note_on_c, 0, 45, 0
1, 189554, Note_on_c, 0, 37, 60
1, 189759, Note_on_c, 0, 37, 0
1, 189759, Note_on_c, 0, 49, 60
1, 189970, Note_on_c, 0, 57, 0
1, 189970, Note_on_c, 0, 49, 0
1, 189970, Note_on_c, 0, 52, 0
1, 189973, Note_on_c, 0, 47, 68
1, 189973, Note_on_c, 0, 52, 68
1, 189973, Note_on_c, 0, 56, 77
1, 189976, Note_on_c, 0, 49, 0
1, 189976, Control_c, 0, 64, 0
1, 189976, Note_on_c, 0, 28, 63
1, 190065, Control_c, 0, 64, 127
1, 190174, Note_on_c, 0, 28, 0
1, 190174, Note_on_c, 0, 40, 57
1, 190377, Note_on_c, 0, 40, 0
1, 190377, Note_on_c, 0, 40, 60
1, 190581, Note_on_c, 0, 40, 0
1, 190581, Note_on_c, 0, 40, 62
1, 190732, Control_c, 0, 64, 0
1, 190784, Note_on_c, 0, 40, 0
1, 190784, Note_on_c, 0, 40, 66
1, 190887, Note_on_c, 0, 40, 0
1, 190990, Note_on_c, 0, 40, 67
1, 191093, Note_on_c, 0, 40, 0
1, 191195, Note_on_c, 0, 47, 0
1, 191195, Note_on_c, 0, 52, 0
1, 191195, Note_on_c, 0, 56, 0
1, 191198, Note_on_c, 0, 47, 75
1, 191198, Note_on_c, 0, 53, 75
1, 191198, Note_on_c, 0, 56, 86
1, 191201, Note_on_c, 0, 38, 72
1, 191298, Note_on_c, 0, 38, 0
1, 191401, Note_on_c, 0, 38, 73
1, 191503, Note_on_c, 0, 38, 0
1, 191606, Note_on_c, 0, 56, 0
1, 191606, Note_on_c, 0, 53, 0
1, 191606, Note_on_c, 0, 47, 0
1, 191609, Note_on_c, 0, 48, 82
1, 191609, Note_on_c, 0, 52, 82
1, 191609, Note_on_c, 0, 56, 92
1, 191612, Note_on_c, 0, 36, 74
1, 191710, Note_on_c, 0, 36, 0
1, 191813, Note_on_c, 0, 36, 75
1, 191918, Note_on_c, 0, 36, 0
1, 192023, Note_on_c, 0, 56, 0
1, 192023, Note_on_c, 0, 52, 0
1, 192023, Note_on_c, 0, 48, 0
1, 192026, Note_on_c, 0, 50, 85
1, 192026, Note_on_c, 0, 52, 85
1, 192026, Note_on_c, 0, 56, 95
1, 192029, Note_on_c, 0, 35, 77
1, 192128, Note_on_c, 0, 35, 0
1, 192234, Note_on_c, 0, 35, 79
1, 192340, Note_on_c, 0, 35, 0
1, 192447, Note_on_c, 0, 56, 0
1, 192447, Note_on_c, 0, 52, 0
1, 192447, Note_on_c, 0, 50, 0
1, 192450, Note_on_c, 0, 48, 89
1, 192450, Note_on_c, 0, 52, 89
1, 192450, Note_on_c, 0, 57, 102
1, 192453, Note_on_c, 0, 33, 83
1, 192472, Control_c, 0, 64, 127
1, 192641, Control_c, 0, 64, 0
1, 192666, Note_on_c, 0, 33, 0
1, 192666, Note_on_c, 0, 45, 72
1, 192776, Note_on_c, 0, 45, 0
1, 192886, Note_on_c, 0, 45, 72
1, 192995, Note_on_c, 0, 45, 0
1, 193105, Note_on_c, 0, 45, 72
1, 193215, Note_on_c, 0, 45, 0
1, 193324, Note_on_c, 0, 57, 0
1, 193324, Note_on_c, 0, 52, 0
1, 193324, Note_on_c, 0, 48, 0
1, 193327, Note_on_c, 0, 52, 89
1, 193327, Note_on_c, 0, 48, 89
1, 193327, Note_on_c, 0, 57, 103
1, 193330, Note_on_c, 0, 33, 83
1, 193369, Control_c, 0, 64, 127
1, 193532, Note_on_c, 0, 33, 0
1, 193532, Note_on_c, 0, 45, 72
1, 193577, Control_c, 0, 64, 0
1, 193635, Note_on_c, 0, 45, 0
1, 193739, Note_on_c, 0, 45, 73
1, 193843, Note_on_c, 0, 45, 0
1, 193946, Note_on_c, 0, 45, 73
1, 194050, Note_on_c, 0, 45, 0
1, 194154, Note_on_c, 0, 57, 0
1, 194154, Note_on_c, 0, 48, 0
1, 194154, Note_on_c, 0, 52, 0
1, 194157, Note_on_c, 0, 50, 92
1, 194157, Note_on_c, 0, 53, 92
1, 194157, Note_on_c, 0, 59, 105
1, 194160, Note_on_c, 0, 31, 81
1, 194194, Control_c, 0, 64, 127
1, 194367, Note_on_c, 0, 31, 0
1, 194367, Note_on_c, 0, 43, 73
1, 194408, Control_c, 0, 64, 0
1, 194473, Note_on_c, 0, 43, 0
1, 194580, Note_on_c, 0, 43, 74
1, 194686, Note_on_c, 0, 43, 0
1, 194793, Note_on_c, 0, 43, 74
1, 194900, Note_on_c, 0, 43, 0
1, 195006, Note_on_c, 0, 59, 0
1, 195006, Note_on_c, 0, 53, 0
1, 195006, Note_on_c, 0, 50, 0
1, 195009, Note_on_c, 0, 52, 95
1, 195009, Note_on_c, 0, 60, 110
1, 195009, Note_on_c, 0, 55, 95
1, 195012, Note_on_c, 0, 36, 86
1, 195017, Control_c, 0, 64, 127
1, 195219, Note_on_c, 0, 36, 0
1, 195219, Note_on_c, 0, 48, 75
1, 195235, Control_c, 0, 64, 0
1, 195326, Note_on_c, 0, 48, 0
1, 195432, Note_on_c, 0, 48, 76
1, 195539, Note_on_c, 0, 48, 0
1, 195646, Note_on_c, 0, 53, 92
1, 195646, Note_on_c, 0, 57, 92
1, 195646, Note_on_c, 0, 48, 76
1, 195663, Note_on_c, 0, 55, 0
1, 195663, Note_on_c, 0, 52, 0
1, 195752, Note_on_c, 0, 48, 0
1, 195859, Note_on_c, 0, 60, 0
1, 195859, Note_on_c, 0, 55, 92
1, 195859, Note_on_c, 0, 52, 92
1, 195862, Note_on_c, 0, 60, 103
1, 195862, Note_on_c, 0, 36, 76
1, 195876, Note_on_c, 0, 57, 0
1, 195876, Note_on_c, 0, 53, 0
1, 195928, Control_c, 0, 64, 127
1, 196014, Note_on_c, 0, 36, 0
1, 196066, Note_on_c, 0, 48, 76
1, 196170, Note_on_c, 0, 48, 0
1, 196170, Control_c, 0, 64, 0
1, 196273, Note_on_c, 0, 48, 77
1, 196377, Note_on_c, 0, 48, 0
1, 196481, Note_on_c, 0, 48, 77
1, 196584, Note_on_c, 0, 48, 0
1, 196688, Note_on_c, 0, 36, 83
1, 196728, Control_c, 0, 64, 127
1, 196895, Note_on_c, 0, 36, 0
1, 196895, Note_on_c, 0, 48, 77
1, 197103, Note_on_c, 0, 52, 0
1, 197103, Note_on_c, 0, 55, 0
1, 197103, Note_on_c, 0, 60, 0
1, 197106, Note_on_c, 0, 48, 0
1, 197106, Note_on_c, 0, 57, 92
1, 197106, Note_on_c, 0, 62, 106
1, 197109, Note_on_c, 0, 41, 80
1, 197153, Control_c, 0, 64, 0
1, 197184, Control_c, 0, 64, 127
1, 197271, Note_on_c, 0, 41, 0
1, 197331, Note_on_c, 0, 53, 83
1, 197510, Note_on_c, 0, 53, 0
1, 197570, Note_on_c, 0, 62, 0
1, 197570, Note_on_c, 0, 57, 0
1, 197570, Note_on_c, 0, 56, 97
1, 197573, Note_on_c, 0, 59, 97
1, 197573, Note_on_c, 0, 64, 111
1, 197573, Control_c, 0, 64, 0
1, 197576, Note_on_c, 0, 40, 86
1, 197625, Control_c, 0, 64, 127
1, 197777, Note_on_c, 0, 40, 0
1, 197777, Note_on_c, 0, 52, 76
1, 197874, Control_c, 0, 64, 0
1, 197881, Note_on_c, 0, 52, 0
1, 197985, Note_on_c, 0, 52, 76
1, 198088, Note_on_c, 0, 52, 0
1, 198192, Note_on_c, 0, 62, 85
1, 198192, Note_on_c, 0, 52, 74
1, 198209, Note_on_c, 0, 64, 0
1, 198296, Note_on_c, 0, 52, 0
1, 198399, Note_on_c, 0, 56, 0
1, 198399, Note_on_c, 0, 59, 0
1, 198399, Note_on_c, 0, 57, 78
1, 198402, Note_on_c, 0, 61, 89
1, 198402, Note_on_c, 0, 42, 67
1, 198415, Note_on_c, 0, 62, 0
1, 198502, Control_c, 0, 64, 127
1, 198592, Note_on_c, 0, 42, 0
1, 198592, Note_on_c, 0, 54, 65
1, 198785, Note_on_c, 0, 61, 0
1, 198785, Note_on_c, 0, 57, 0
1, 198785, Note_on_c, 0, 54, 61
1, 198788, Note_on_c, 0, 54, 0
1, 198788, Note_on_c, 0, 57, 61
1, 198788, Note_on_c, 0, 64, 67
1, 198791, Note_on_c, 0, 38, 60
1, 198863, Control_c, 0, 64, 0
1, 198940, Control_c, 0, 64, 127
1, 198987, Note_on_c, 0, 64, 0
1, 198987, Note_on_c, 0, 54, 0
1, 198987, Note_on_c, 0, 57, 0
1, 198990, Note_on_c, 0, 38, 0
1, 198990, Note_on_c, 0, 62, 67
1, 198990, Note_on_c, 0, 50, 60
1, 199198, Note_on_c, 0, 62, 0
1, 199198, Note_on_c, 0, 52, 67
1, 199198, Note_on_c, 0, 57, 67
1, 199201, Note_on_c, 0, 50, 0
1, 199201, Note_on_c, 0, 61, 75
1, 199201, Note_on_c, 0, 40, 60
1, 199262, Control_c, 0, 64, 0
1, 199367, Control_c, 0, 64, 127
1, 199418, Note_on_c, 0, 40, 0
1, 199418, Note_on_c, 0, 52, 60
1, 199637, Note_on_c, 0, 52, 0
1, 199637, Note_on_c, 0, 61, 0
1, 199637, Note_on_c, 0, 57, 0
1, 199640, Note_on_c, 0, 50, 64
1, 199640, Note_on_c, 0, 52, 64
1, 199640, Note_on_c, 0, 56, 64
1, 199643, Note_on_c, 0, 52, 0
1, 199643, Note_on_c, 0, 59, 71
1, 199643, Note_on_c, 0, 40, 57
1, 199866, Note_on_c, 0, 40, 0
1, 199866, Note_on_c, 0, 52, 57
1, 200099, Note_on_c, 0, 50, 0
1, 200099, Note_on_c, 0, 59, 0
1, 200099, Note_on_c, 0, 52, 0
1, 200102, Note_on_c, 0, 56, 0
1, 200102, Note_on_c, 0, 50, 65
1, 200102, Note_on_c, 0, 52, 65
1, 200105, Note_on_c, 0, 52, 0
1, 200105, Note_on_c, 0, 56, 65
1, 200105, Note_on_c, 0, 59, 73
1, 200108, Control_c, 0, 64, 0
1, 200197, Control_c, 0, 64, 127
1, 200310, Note_on_c, 0, 40, 55
1, 200521, Note_on_c, 0, 40, 0
1, 200521, Note_on_c, 0, 44, 57
1, 200732, Note_on_c, 0, 44, 0
1, 200732, Note_on_c, 0, 40, 59
1, 200943, Note_on_c, 0, 59, 0
1, 200943, Note_on_c, 0, 56, 0
1, 200943, Note_on_c, 0, 50, 0
1, 200946, Note_on_c, 0, 40, 0
1, 200946, Note_on_c, 0, 49, 65
1, 200946, Note_on_c, 0, 57, 73
1, 200949, Control_c, 0, 64, 0
1, 200949, Note_on_c, 0, 45, 61
1, 201097, Note_on_c, 0, 45, 0
1, 201149, Note_on_c, 0, 45, 58
1, 201251, Note_on_c, 0, 45, 0
1, 201354, Note_on_c, 0, 52, 0
1, 201354, Note_on_c, 0, 47, 58
1, 201457, Note_on_c, 0, 47, 0
1, 201559, Note_on_c, 0, 49, 58
1, 201662, Note_on_c, 0, 49, 0
1, 201765, Note_on_c, 0, 49, 0
1, 201765, Note_on_c, 0, 57, 0
1, 201765, Note_on_c, 0, 47, 58
1, 201868, Note_on_c, 0, 47, 0
1, 201972, Note_on_c, 0, 45, 58
1, 202077, Note_on_c, 0, 45, 0
1, 202181, Note_on_c, 0, 44, 57
1, 202287, Note_on_c, 0, 44, 0
1, 202393, Note_on_c, 0, 42, 57
1, 202499, Note_on_c, 0, 42, 0
1, 202606, Note_on_c, 0, 71, 88
1, 202606, Note_on_c, 0, 40, 62
1, 202613, Control_c, 0, 64, 127
1, 202744, Note_on_c, 0, 68, 57
1, 202813, Note_on_c, 0, 40, 0
1, 202881, Note_on_c, 0, 68, 0
1, 202881, Note_on_c, 0, 64, 57
1, 203018, Note_on_c, 0, 64, 0
1, 203018, Note_on_c, 0, 68, 57
1, 203018, Note_on_c, 0, 52, 49
1, 203021, Note_on_c, 0, 56, 53
1, 203154, Note_on_c, 0, 68, 0
1, 203154, Note_on_c, 0, 64, 57
1, 203222, Note_on_c, 0, 56, 0
1, 203222, Note_on_c, 0, 52, 0
1, 203289, Note_on_c, 0, 64, 0
1, 203289, Note_on_c, 0, 59, 57
1, 203423, Note_on_c, 0, 59, 0
1, 203423, Note_on_c, 0, 71, 0
1, 203423, Note_on_c, 0, 71, 89
1, 203426, Note_on_c, 0, 40, 62
1, 203556, Note_on_c, 0, 68, 57
1, 203624, Note_on_c, 0, 40, 0
1, 203691, Note_on_c, 0, 68, 0
1, 203691, Note_on_c, 0, 64, 57
1, 203826, Note_on_c, 0, 64, 0
1, 203826, Note_on_c, 0, 68, 57
1, 203826, Note_on_c, 0, 52, 50
1, 203829, Note_on_c, 0, 56, 54
1, 203962, Note_on_c, 0, 68, 0
1, 203962, Note_on_c, 0, 64, 57
1, 204031, Note_on_c, 0, 56, 0
1, 204031, Note_on_c, 0, 52, 0
1, 204099, Note_on_c, 0, 64, 0
1, 204099, Note_on_c, 0, 59, 57
1, 204237, Note_on_c, 0, 59, 0
1, 204237, Note_on_c, 0, 71, 0
1, 204237, Note_on_c, 0, 73, 88
1, 204240, Note_on_c, 0, 49, 62
1, 204311, Control_c, 0, 64, 0
1, 204377, Note_on_c, 0, 70, 57
1, 204410, Control_c, 0, 64, 127
1, 204447, Note_on_c, 0, 49, 0
1, 204516, Note_on_c, 0, 70, 0
1, 204516, Note_on_c, 0, 66, 58
1, 204656, Note_on_c, 0, 66, 0
1, 204656, Note_on_c, 0, 70, 58
1, 204656, Note_on_c, 0, 54, 51
1, 204659, Note_on_c, 0, 58, 55
1, 204795, Note_on_c, 0, 70, 0
1, 204795, Note_on_c, 0, 66, 58
1, 204865, Note_on_c, 0, 58, 0
1, 204865, Note_on_c, 0, 54, 0
1, 204935, Note_on_c, 0, 66, 0
1, 204935, Note_on_c, 0, 64, 58
1, 205074, Note_on_c, 0, 64, 0
1, 205074, Note_on_c, 0, 73, 0
1, 205074, Note_on_c, 0, 74, 89
1, 205077, Note_on_c, 0, 47, 62
1, 205077, Control_c, 0, 64, 0
1, 205174, Control_c, 0, 64, 127
1, 205214, Note_on_c, 0, 71, 58
1, 205283, Note_on_c, 0, 47, 0
1, 205353, Note_on_c, 0, 71, 0
1, 205353, Note_on_c, 0, 66, 58
1, 205491, Note_on_c, 0, 66, 0
1, 205491, Note_on_c, 0, 71, 58
1, 205491, Note_on_c, 0, 54, 51
1, 205494, Note_on_c, 0, 59, 56
1, 205630, Note_on_c, 0, 71, 0
1, 205630, Note_on_c, 0, 66, 58
1, 205699, Note_on_c, 0, 59, 0
1, 205699, Note_on_c, 0, 54, 0
1, 205767, Note_on_c, 0, 66, 0
1, 205767, Note_on_c, 0, 73, 51
1, 205801, Note_on_c, 0, 74, 0
1, 205801, Note_on_c, 0, 76, 82
1, 205904, Note_on_c, 0, 76, 0
1, 205904, Note_on_c, 0, 73, 0
1, 205904, Note_on_c, 0, 78, 85
1, 205907, Note_on_c, 0, 47, 62
1, 205979, Control_c, 0, 64, 0
1, 206041, Note_on_c, 0, 74, 57
1, 206099, Control_c, 0, 64, 127
1, 206109, Note_on_c, 0, 47, 0
1, 206177, Note_on_c, 0, 74, 0
1, 206177, Note_on_c, 0, 71, 57
1, 206312, Note_on_c, 0, 71, 0
1, 206312, Note_on_c, 0, 74, 57
1, 206312, Note_on_c, 0, 59, 55
1, 206315, Note_on_c, 0, 54, 51
1, 206448, Note_on_c, 0, 74, 0
1, 206448, Note_on_c, 0, 71, 57
1, 206515, Note_on_c, 0, 54, 0
1, 206515, Note_on_c, 0, 59, 0
1, 206582, Note_on_c, 0, 71, 0
1, 206582, Note_on_c, 0, 66, 57
1, 206717, Note_on_c, 0, 66, 0
1, 206717, Note_on_c, 0, 47, 62
1, 206850, Note_on_c, 0, 74, 58
1, 206917, Note_on_c, 0, 47, 0
1, 206983, Note_on_c, 0, 74, 0
1, 206983, Note_on_c, 0, 71, 58
1, 207118, Note_on_c, 0, 71, 0
1, 207118, Note_on_c, 0, 78, 0
1, 207118, Note_on_c, 0, 74, 58
1, 207121, Note_on_c, 0, 78, 89
1, 207121, Note_on_c, 0, 62, 55
1, 207121, Note_on_c, 0, 56, 51
1, 207124, Note_on_c, 0, 59, 51
1, 207252, Note_on_c, 0, 74, 0
1, 207252, Note_on_c, 0, 71, 58
1, 207320, Note_on_c, 0, 56, 0
1, 207320, Note_on_c, 0, 59, 0
1, 207320, Note_on_c, 0, 62, 0
1, 207388, Note_on_c, 0, 71, 0
1, 207388, Note_on_c, 0, 68, 58
1, 207524, Note_on_c, 0, 68, 0
1, 207524, Note_on_c, 0, 78, 0
1, 207524, Note_on_c, 0, 78, 93
1, 207527, Note_on_c, 0, 45, 62
1, 207527, Control_c, 0, 64, 0
1, 207657, Control_c, 0, 64, 127
1, 207661, Note_on_c, 0, 74, 60
1, 207730, Note_on_c, 0, 45, 0
1, 207799, Note_on_c, 0, 74, 0
1, 207799, Note_on_c, 0, 69, 60
1, 207936, Note_on_c, 0, 69, 0
1, 207936, Note_on_c, 0, 74, 60
1, 207936, Note_on_c, 0, 62, 54
1, 207939, Note_on_c, 0, 57, 50
1, 208073, Note_on_c, 0, 74, 0
1, 208073, Note_on_c, 0, 69, 60
1, 208209, Note_on_c, 0, 69, 0
1, 208209, Note_on_c, 0, 71, 58
1, 208243, Note_on_c, 0, 57, 0
1, 208243, Note_on_c, 0, 78, 0
1, 208243, Note_on_c, 0, 79, 88
1, 208246, Note_on_c, 0, 55, 50
1, 208344, Note_on_c, 0, 79, 0
1, 208344, Note_on_c, 0, 71, 0
1, 208344, Note_on_c, 0, 81, 92
1, 208347, Note_on_c, 0, 62, 0
1, 208347, Note_on_c, 0, 55, 0
1, 208347, Note_on_c, 0, 54, 53
1, 208350, Note_on_c, 0, 62, 62
1, 208356, Control_c, 0, 64, 0
1, 208451, Control_c, 0, 64, 127
1, 208478, Note_on_c, 0, 69, 58
1, 208611, Note_on_c, 0, 69, 0
1, 208611, Note_on_c, 0, 74, 58
1, 208746, Note_on_c, 0, 74, 0
1, 208746, Note_on_c, 0, 81, 0
1, 208746, Note_on_c, 0, 79, 88
1, 208749, Note_on_c, 0, 62, 0
1, 208749, Note_on_c, 0, 54, 0
1, 208749, Note_on_c, 0, 55, 53
1, 208752, Note_on_c, 0, 62, 58
1, 208805, Control_c, 0, 64, 0
1, 208881, Note_on_c, 0, 71, 56
1, 208901, Control_c, 0, 64, 127
1, 209017, Note_on_c, 0, 71, 0
1, 209017, Note_on_c, 0, 74, 56
1, 209154, Note_on_c, 0, 74, 0
1, 209154, Note_on_c, 0, 79, 0
1, 209154, Note_on_c, 0, 78, 88
1, 209157, Note_on_c, 0, 62, 0
1, 209157, Note_on_c, 0, 55, 0
1, 209157, Note_on_c, 0, 57, 53
1, 209160, Note_on_c, 0, 62, 58
1, 209214, Control_c, 0, 64, 0
1, 209292, Note_on_c, 0, 69, 58
1, 209313, Control_c, 0, 64, 127
1, 209430, Note_on_c, 0, 69, 0
1, 209430, Note_on_c, 0, 74, 58
1, 209568, Note_on_c, 0, 74, 0
1, 209568, Note_on_c, 0, 78, 0
1, 209568, Note_on_c, 0, 76, 88
1, 209571, Note_on_c, 0, 62, 0
1, 209571, Note_on_c, 0, 57, 0
1, 209571, Note_on_c, 0, 57, 54
1, 209574, Note_on_c, 0, 61, 59
1, 209706, Note_on_c, 0, 67, 58
1, 209845, Note_on_c, 0, 67, 0
1, 209845, Note_on_c, 0, 69, 58
1, 209983, Note_on_c, 0, 69, 0
1, 209983, Note_on_c, 0, 76, 0
1, 209983, Note_on_c, 0, 76, 92
1, 209986, Note_on_c, 0, 61, 0
1, 209986, Note_on_c, 0, 57, 0
1, 209986, Note_on_c, 0, 50, 62
1, 209989, Control_c, 0, 64, 0
1, 210080, Control_c, 0, 64, 127
1, 210121, Note_on_c, 0, 73, 57
1, 210190, Note_on_c, 0, 50, 0
1, 210259, Note_on_c, 0, 73, 0
1, 210259, Note_on_c, 0, 69, 57
1, 210397, Note_on_c, 0, 69, 0
1, 210397, Note_on_c, 0, 73, 57
1, 210397, Note_on_c, 0, 57, 53
1, 210400, Note_on_c, 0, 61, 59
1, 210536, Note_on_c, 0, 73, 0
1, 210536, Note_on_c, 0, 69, 57
1, 210605, Note_on_c, 0, 61, 0
1, 210605, Note_on_c, 0, 57, 0
1, 210674, Note_on_c, 0, 69, 0
1, 210674, Note_on_c, 0, 67, 57
1, 210812, Note_on_c, 0, 67, 0
1, 210812, Note_on_c, 0, 76, 0
1, 210812, Note_on_c, 0, 74, 92
1, 210815, Note_on_c, 0, 50, 59
1, 210954, Note_on_c, 0, 69, 57
1, 211025, Note_on_c, 0, 50, 0
1, 211096, Note_on_c, 0, 69, 0
1, 211096, Note_on_c, 0, 66, 57
1, 211213, Control_c, 0, 64, 0
1, 211238, Note_on_c, 0, 66, 0
1, 211238, Note_on_c, 0, 69, 60
1, 211238, Note_on_c, 0, 57, 53
1, 211241, Note_on_c, 0, 62, 58
1, 211263, Control_c, 0, 64, 127
1, 211380, Note_on_c, 0, 69, 0
1, 211380, Note_on_c, 0, 66, 58
1, 211517, Note_on_c, 0, 66, 0
1, 211517, Note_on_c, 0, 62, 58
1, 211552, Note_on_c, 0, 62, 0
1, 211552, Note_on_c, 0, 57, 0
1, 211654, Note_on_c, 0, 62, 0
1, 211654, Note_on_c, 0, 50, 62
1, 211793, Note_on_c, 0, 66, 59
1, 211936, Note_on_c, 0, 66, 0
1, 211936, Note_on_c, 0, 62, 58
1, 211972, Note_on_c, 0, 50, 0
1, 212082, Note_on_c, 0, 62, 0
1, 212082, Note_on_c, 0, 69, 58
1, 212082, Note_on_c, 0, 54, 52
1, 212085, Note_on_c, 0, 57, 56
1, 212232, Note_on_c, 0, 69, 0
1, 212232, Note_on_c, 0, 66, 54
1, 212387, Note_on_c, 0, 66, 0
1, 212387, Note_on_c, 0, 62, 53
1, 212426, Note_on_c, 0, 57, 0
1, 212426, Note_on_c, 0, 54, 0
1, 212545, Note_on_c, 0, 74, 0
1, 212545, Note_on_c, 0, 62, 0
1, 212545, Note_on_c, 0, 70, 78
1, 212548, Note_on_c, 0, 38, 56
1, 212564, Control_c, 0, 64, 0
1, 212633, Control_c, 0, 64, 127
1, 212683, Note_on_c, 0, 65, 55
1, 212752, Note_on_c, 0, 38, 0
1, 212821, Note_on_c, 0, 65, 0
1, 212821, Note_on_c, 0, 62, 55
1, 212958, Note_on_c, 0, 62, 0
1, 212958, Note_on_c, 0, 65, 55
1, 212958, Note_on_c, 0, 50, 45
1, 212961, Note_on_c, 0, 53, 48
1, 213094, Note_on_c, 0, 65, 0
1, 213094, Note_on_c, 0, 62, 55
1, 213161, Note_on_c, 0, 53, 0
1, 213161, Note_on_c, 0, 50, 0
1, 213229, Note_on_c, 0, 62, 0
1, 213229, Note_on_c, 0, 58, 55
1, 213363, Note_on_c, 0, 58, 0
1, 213363, Note_on_c, 0, 70, 0
1, 213363, Note_on_c, 0, 70, 79
1, 213366, Note_on_c, 0, 38, 56
1, 213496, Note_on_c, 0, 65, 55
1, 213563, Note_on_c, 0, 38, 0
1, 213630, Note_on_c, 0, 65, 0
1, 213630, Note_on_c, 0, 62, 55
1, 213766, Note_on_c, 0, 62, 0
1, 213766, Note_on_c, 0, 65, 55
1, 213766, Note_on_c, 0, 50, 46
1, 213769, Note_on_c, 0, 53, 49
1, 213902, Note_on_c, 0, 65, 0
1, 213902, Note_on_c, 0, 62, 55
1, 213970, Note_on_c, 0, 53, 0
1, 213970, Note_on_c, 0, 50, 0
1, 214039, Note_on_c, 0, 62, 0
1, 214039, Note_on_c, 0, 58, 55
1, 214177, Note_on_c, 0, 58, 0
1, 214177, Note_on_c, 0, 70, 0
1, 214177, Note_on_c, 0, 70, 78
1, 214180, Note_on_c, 0, 38, 56
1, 214316, Note_on_c, 0, 65, 55
1, 214386, Note_on_c, 0, 38, 0
1, 214456, Note_on_c, 0, 65, 0
1, 214456, Note_on_c, 0, 62, 56
1, 214595, Note_on_c, 0, 62, 0
1, 214595, Note_on_c, 0, 65, 56
1, 214595, Note_on_c, 0, 50, 47
1, 214598, Note_on_c, 0, 53, 50
1, 214735, Note_on_c, 0, 65, 0
1, 214735, Note_on_c, 0, 62, 56
1, 214805, Note_on_c, 0, 53, 0
1, 214805, Note_on_c, 0, 50, 0
1, 214874, Note_on_c, 0, 62, 0
1, 214874, Note_on_c, 0, 58, 56
1, 215014, Note_on_c, 0, 58, 0
1, 215014, Note_on_c, 0, 70, 0
1, 215014, Note_on_c, 0, 70, 79
1, 215017, Note_on_c, 0, 39, 56
1, 215017, Control_c, 0, 64, 0
1, 215113, Control_c, 0, 64, 127
1, 215153, Note_on_c, 0, 67, 56
1, 215223, Note_on_c, 0, 39, 0
1, 215293, Note_on_c, 0, 67, 0
1, 215293, Note_on_c, 0, 63, 56
1, 215431, Note_on_c, 0, 63, 0
1, 215431, Note_on_c, 0, 67, 56
1, 215431, Note_on_c, 0, 51, 47
1, 215434, Note_on_c, 0, 55, 51
1, 215569, Note_on_c, 0, 67, 0
1, 215569, Note_on_c, 0, 63, 56
1, 215638, Note_on_c, 0, 55, 0
1, 215638, Note_on_c, 0, 51, 0
1, 215707, Note_on_c, 0, 63, 0
1, 215707, Note_on_c, 0, 58, 56
1, 215844, Note_on_c, 0, 58, 0
1, 215844, Note_on_c, 0, 70, 0
1, 215844, Note_on_c, 0, 67, 72
1, 215847, Note_on_c, 0, 39, 56
1, 215919, Control_c, 0, 64, 0
1, 215981, Note_on_c, 0, 63, 55
1, 216038, Control_c, 0, 64, 127
1, 216116, Note_on_c, 0, 63, 0
1, 216116, Note_on_c, 0, 58, 55
1, 216252, Note_on_c, 0, 58, 0
1, 216252, Note_on_c, 0, 67, 0
1, 216252, Note_on_c, 0, 79, 76
1, 216255, Note_on_c, 0, 39, 0
1, 216255, Note_on_c, 0, 51, 46
1, 216255, Note_on_c, 0, 55, 46
1, 216258, Note_on_c, 0, 58, 50
1, 216387, Note_on_c, 0, 75, 55
1, 216522, Note_on_c, 0, 75, 0
1, 216522, Note_on_c, 0, 67, 55
1, 216656, Note_on_c, 0, 67, 0
1, 216656, Note_on_c, 0, 79, 0
1, 216656, Note_on_c, 0, 77, 76
1, 216659, Note_on_c, 0, 51, 0
1, 216659, Note_on_c, 0, 58, 0
1, 216659, Note_on_c, 0, 55, 0
1, 216662, Note_on_c, 0, 50, 46
1, 216662, Note_on_c, 0, 55, 46
1, 216662, Note_on_c, 0, 59, 50
1, 216789, Note_on_c, 0, 71, 56
1, 216923, Note_on_c, 0, 71, 0
1, 216923, Note_on_c, 0, 67, 56
1, 217057, Note_on_c, 0, 67, 0
1, 217057, Note_on_c, 0, 77, 0
1, 217057, Note_on_c, 0, 75, 79
1, 217060, Note_on_c, 0, 50, 0
1, 217060, Note_on_c, 0, 59, 0
1, 217060, Note_on_c, 0, 55, 0
1, 217063, Note_on_c, 0, 48, 46
1, 217063, Note_on_c, 0, 55, 46
1, 217063, Note_on_c, 0, 60, 50
1, 217192, Note_on_c, 0, 72, 56
1, 217327, Note_on_c, 0, 72, 0
1, 217327, Note_on_c, 0, 67, 56
1, 217463, Note_on_c, 0, 67, 0
1, 217463, Note_on_c, 0, 75, 0
1, 217463, Note_on_c, 0, 74, 80
1, 217466, Note_on_c, 0, 48, 0
1, 217466, Note_on_c, 0, 60, 0
1, 217466, Note_on_c, 0, 55, 0
1, 217469, Note_on_c, 0, 41, 56
1, 217469, Control_c, 0, 64, 0
1, 217597, Control_c, 0, 64, 127
1, 217600, Note_on_c, 0, 70, 58
1, 217669, Note_on_c, 0, 41, 0
1, 217738, Note_on_c, 0, 70, 0
1, 217738, Note_on_c, 0, 65, 58
1, 217876, Note_on_c, 0, 65, 0
1, 217876, Note_on_c, 0, 70, 58
1, 217876, Note_on_c, 0, 58, 49
1, 217879, Note_on_c, 0, 53, 46
1, 218013, Note_on_c, 0, 70, 0
1, 218013, Note_on_c, 0, 65, 58
1, 218081, Note_on_c, 0, 53, 0
1, 218081, Note_on_c, 0, 58, 0
1, 218149, Note_on_c, 0, 65, 0
1, 218149, Note_on_c, 0, 62, 56
1, 218284, Note_on_c, 0, 62, 0
1, 218284, Note_on_c, 0, 41, 56
1, 218418, Note_on_c, 0, 70, 58
1, 218484, Note_on_c, 0, 41, 0
1, 218551, Note_on_c, 0, 70, 0
1, 218551, Note_on_c, 0, 65, 58
1, 218685, Note_on_c, 0, 65, 0
1, 218685, Note_on_c, 0, 70, 58
1, 218685, Note_on_c, 0, 53, 46
1, 218688, Note_on_c, 0, 58, 49
1, 218820, Note_on_c, 0, 70, 0
1, 218820, Note_on_c, 0, 65, 56
1, 218888, Note_on_c, 0, 58, 0
1, 218888, Note_on_c, 0, 53, 0
1, 218956, Note_on_c, 0, 65, 0
1, 218956, Note_on_c, 0, 62, 56
1, 219093, Note_on_c, 0, 62, 0
1, 219093, Note_on_c, 0, 74, 0
1, 219093, Note_on_c, 0, 75, 78
1, 219096, Note_on_c, 0, 41, 56
1, 219154, Control_c, 0, 64, 0
1, 219231, Note_on_c, 0, 72, 56
1, 219252, Control_c, 0, 64, 127
1, 219300, Note_on_c, 0, 41, 0
1, 219369, Note_on_c, 0, 72, 0
1, 219369, Note_on_c, 0, 69, 56
1, 219508, Note_on_c, 0, 69, 0
1, 219508, Note_on_c, 0, 72, 58
1, 219508, Note_on_c, 0, 53, 46
1, 219511, Note_on_c, 0, 57, 49
1, 219646, Note_on_c, 0, 69, 56
1, 219715, Note_on_c, 0, 57, 0
1, 219715, Note_on_c, 0, 53, 0
1, 219784, Note_on_c, 0, 69, 0
1, 219784, Note_on_c, 0, 63, 56
1, 219819, Note_on_c, 0, 75, 0
1, 219819, Note_on_c, 0, 72, 72
1, 219922, Note_on_c, 0, 72, 0
1, 219922, Note_on_c, 0, 63, 0
1, 219922, Note_on_c, 0, 72, 0
1, 219925, Note_on_c, 0, 71, 77
1, 219925, Note_on_c, 0, 41, 56
1, 219925, Control_c, 0, 64, 0
1, 220019, Control_c, 0, 64, 127
1, 220061, Note_on_c, 0, 68, 55
1, 220130, Note_on_c, 0, 41, 0
1, 220199, Note_on_c, 0, 68, 0
1, 220199, Note_on_c, 0, 62, 55
1, 220337, Note_on_c, 0, 62, 0
1, 220337, Note_on_c, 0, 68, 55
1, 220337, Note_on_c, 0, 53, 54
1, 220475, Note_on_c, 0, 68, 0
1, 220475, Note_on_c, 0, 62, 55
1, 220544, Note_on_c, 0, 53, 0
1, 220613, Note_on_c, 0, 62, 0
1, 220613, Note_on_c, 0, 59, 55
1, 220752, Note_on_c, 0, 59, 0
1, 220752, Note_on_c, 0, 41, 54
1, 220888, Note_on_c, 0, 68, 55
1, 220957, Note_on_c, 0, 41, 0
1, 221025, Note_on_c, 0, 68, 0
1, 221025, Note_on_c, 0, 62, 55
1, 221162, Note_on_c, 0, 62, 0
1, 221162, Note_on_c, 0, 68, 58
1, 221162, Note_on_c, 0, 53, 53
1, 221299, Note_on_c, 0, 68, 0
1, 221299, Note_on_c, 0, 62, 56
1, 221436, Note_on_c, 0, 62, 0
1, 221436, Note_on_c, 0, 59, 56
1, 221471, Note_on_c, 0, 53, 0
1, 221573, Note_on_c, 0, 59, 0
1, 221573, Note_on_c, 0, 41, 56
1, 221711, Note_on_c, 0, 68, 58
1, 221850, Note_on_c, 0, 68, 0
1, 221850, Note_on_c, 0, 62, 58
1, 221885, Note_on_c, 0, 41, 0
1, 221990, Note_on_c, 0, 62, 0
1, 221990, Note_on_c, 0, 68, 59
1, 221990, Note_on_c, 0, 53, 54
1, 222130, Note_on_c, 0, 68, 0
1, 222130, Note_on_c, 0, 62, 56
1, 222272, Note_on_c, 0, 62, 0
1, 222272, Note_on_c, 0, 59, 56
1, 222307, Note_on_c, 0, 53, 0
1, 222414, Note_on_c, 0, 59, 0
1, 222414, Note_on_c, 0, 71, 0
1, 222414, Note_on_c, 0, 71, 76
1, 222417, Note_on_c, 0, 41, 56
1, 222417, Control_c, 0, 64, 0
1, 222511, Control_c, 0, 64, 127
1, 222552, Note_on_c, 0, 68, 55
1, 222621, Note_on_c, 0, 41, 0
1, 222690, Note_on_c, 0, 68, 0
1, 222690, Note_on_c, 0, 61, 55
1, 222829, Note_on_c, 0, 61, 0
1, 222829, Note_on_c, 0, 68, 55
1, 222829, Note_on_c, 0, 53, 54
1, 222967, Note_on_c, 0, 68, 0
1, 222967, Note_on_c, 0, 61, 55
1, 223036, Note_on_c, 0, 53, 0
1, 223105, Note_on_c, 0, 61, 0
1, 223105, Note_on_c, 0, 59, 55
1, 223243, Note_on_c, 0, 59, 0
1, 223243, Note_on_c, 0, 41, 54
1, 223380, Note_on_c, 0, 68, 55
1, 223449, Note_on_c, 0, 41, 0
1, 223517, Note_on_c, 0, 68, 0
1, 223517, Note_on_c, 0, 61, 55
1, 223654, Note_on_c, 0, 61, 0
1, 223654, Note_on_c, 0, 68, 58
1, 223654, Note_on_c, 0, 53, 53
1, 223791, Note_on_c, 0, 68, 0
1, 223791, Note_on_c, 0, 61, 56
1, 223928, Note_on_c, 0, 61, 0
1, 223928, Note_on_c, 0, 59, 56
1, 223962, Note_on_c, 0, 53, 0
1, 224065, Note_on_c, 0, 59, 0
1, 224065, Note_on_c, 0, 71, 0
1, 224065, Note_on_c, 0, 71, 77
1, 224068, Note_on_c, 0, 41, 56
1, 224203, Note_on_c, 0, 68, 58
1, 224342, Note_on_c, 0, 68, 0
1, 224342, Note_on_c, 0, 62, 58
1, 224377, Note_on_c, 0, 41, 0
1, 224481, Note_on_c, 0, 62, 0
1, 224481, Note_on_c, 0, 68, 60
1, 224481, Note_on_c, 0, 53, 55
1, 224622, Note_on_c, 0, 68, 0
1, 224622, Note_on_c, 0, 62, 57
1, 224764, Note_on_c, 0, 62, 0
1, 224764, Note_on_c, 0, 59, 58
1, 224799, Note_on_c, 0, 53, 0
1, 224906, Note_on_c, 0, 59, 0
1, 224906, Note_on_c, 0, 71, 0
1, 224906, Note_on_c, 0, 71, 78
1, 224909, Note_on_c, 0, 42, 59
1, 224909, Control_c, 0, 64, 0
1, 225002, Control_c, 0, 64, 127
1, 225044, Note_on_c, 0, 66, 57
1, 225113, Note_on_c, 0, 42, 0
1, 225182, Note_on_c, 0, 66, 0
1, 225182, Note_on_c, 0, 62, 57
1, 225320, Note_on_c, 0, 62, 0
1, 225320, Note_on_c, 0, 66, 56
1, 225320, Note_on_c, 0, 54, 55
1, 225459, Note_on_c, 0, 66, 0
1, 225459, Note_on_c, 0, 62, 56
1, 225528, Note_on_c, 0, 54, 0
1, 225597, Note_on_c, 0, 62, 0
1, 225597, Note_on_c, 0, 61, 55
1, 225631, Note_on_c, 0, 71, 0
1, 225631, Note_on_c, 0, 69, 75
1, 225735, Note_on_c, 0, 69, 0
1, 225735, Note_on_c, 0, 61, 0
1, 225735, Note_on_c, 0, 69, 76
1, 225738, Note_on_c, 0, 42, 54
1, 225872, Note_on_c, 0, 66, 55
1, 225940, Note_on_c, 0, 42, 0
1, 226009, Note_on_c, 0, 66, 0
1, 226009, Note_on_c, 0, 61, 55
1, 226146, Note_on_c, 0, 61, 0
1, 226146, Note_on_c, 0, 66, 58
1, 226146, Note_on_c, 0, 54, 53
1, 226283, Note_on_c, 0, 66, 0
1, 226283, Note_on_c, 0, 61, 56
1, 226420, Note_on_c, 0, 61, 0
1, 226420, Note_on_c, 0, 57, 56
1, 226454, Note_on_c, 0, 54, 0
1, 226557, Note_on_c, 0, 57, 0
1, 226557, Note_on_c, 0, 42, 56
1, 226695, Note_on_c, 0, 66, 58
1, 226834, Note_on_c, 0, 66, 0
1, 226834, Note_on_c, 0, 61, 58
1, 226869, Note_on_c, 0, 42, 0
1, 226973, Note_on_c, 0, 61, 0
1, 226973, Note_on_c, 0, 66, 59
1, 226973, Note_on_c, 0, 54, 54
1, 227114, Note_on_c, 0, 66, 0
1, 227114, Note_on_c, 0, 61, 56
1, 227255, Note_on_c, 0, 61, 0
1, 227255, Note_on_c, 0, 57, 56
1, 227291, Note_on_c, 0, 54, 0
1, 227397, Note_on_c, 0, 57, 0
1, 227397, Note_on_c, 0, 69, 0
1, 227397, Note_on_c, 0, 69, 77
1, 227400, Note_on_c, 0, 30, 56
1, 227400, Control_c, 0, 64, 0
1, 227494, Control_c, 0, 64, 127
1, 227536, Note_on_c, 0, 66, 55
1, 227605, Note_on_c, 0, 30, 0
1, 227674, Note_on_c, 0, 66, 0
1, 227674, Note_on_c, 0, 61, 55
1, 227812, Note_on_c, 0, 61, 0
1, 227812, Note_on_c, 0, 66, 55
1, 227812, Note_on_c, 0, 42, 54
1, 227950, Note_on_c, 0, 66, 0
1, 227950, Note_on_c, 0, 61, 55
1, 228019, Note_on_c, 0, 42, 0
1, 228088, Note_on_c, 0, 61, 0
1, 228088, Note_on_c, 0, 57, 55
1, 228227, Note_on_c, 0, 57, 0
1, 228227, Note_on_c, 0, 30, 54
1, 228364, Note_on_c, 0, 66, 55
1, 228432, Note_on_c, 0, 30, 0
1, 228501, Note_on_c, 0, 66, 0
1, 228501, Note_on_c, 0, 61, 55
1, 228637, Note_on_c, 0, 61, 0
1, 228637, Note_on_c, 0, 66, 58
1, 228637, Note_on_c, 0, 42, 53
1, 228774, Note_on_c, 0, 66, 0
1, 228774, Note_on_c, 0, 61, 56
1, 228911, Note_on_c, 0, 61, 0
1, 228911, Note_on_c, 0, 57, 56
1, 228946, Note_on_c, 0, 42, 0
1, 229048, Note_on_c, 0, 57, 0
1, 229048, Note_on_c, 0, 69, 0
1, 229048, Note_on_c, 0, 69, 75
1, 229051, Note_on_c, 0, 30, 56
1, 229187, Note_on_c, 0, 66, 58
1, 229325, Note_on_c, 0, 66, 0
1, 229325, Note_on_c, 0, 62, 58
1, 229360, Note_on_c, 0, 30, 0
1, 229465, Note_on_c, 0, 62, 0
1, 229465, Note_on_c, 0, 66, 60
1, 229465, Note_on_c, 0, 42, 55
1, 229606, Note_on_c, 0, 66, 0
1, 229606, Note_on_c, 0, 62, 57
1, 229747, Note_on_c, 0, 62, 0
1, 229747, Note_on_c, 0, 57, 58
1, 229783, Note_on_c, 0, 42, 0
1, 229889, Note_on_c, 0, 57, 0
1, 229889, Note_on_c, 0, 69, 0
1, 229889, Note_on_c, 0, 69, 79
1, 229892, Note_on_c, 0, 32, 59
1, 229892, Control_c, 0, 64, 0
1, 229986, Control_c, 0, 64, 127
1, 230027, Note_on_c, 0, 66, 57
1, 230096, Note_on_c, 0, 32, 0
1, 230166, Note_on_c, 0, 66, 0
1, 230166, Note_on_c, 0, 61, 57
1, 230304, Note_on_c, 0, 61, 0
1, 230304, Note_on_c, 0, 66, 56
1, 230304, Note_on_c, 0, 44, 55
1, 230442, Note_on_c, 0, 66, 0
1, 230442, Note_on_c, 0, 61, 56
1, 230511, Note_on_c, 0, 44, 0
1, 230580, Note_on_c, 0, 61, 0
1, 230580, Note_on_c, 0, 64, 55
1, 230615, Note_on_c, 0, 69, 0
1, 230615, Note_on_c, 0, 68, 77
1, 230718, Note_on_c, 0, 68, 0
1, 230718, Note_on_c, 0, 64, 0
1, 230718, Note_on_c, 0, 68, 75
1, 230721, Note_on_c, 0, 32, 54
1, 230855, Note_on_c, 0, 64, 55
1, 230924, Note_on_c, 0, 32, 0
1, 230992, Note_on_c, 0, 64, 0
1, 230992, Note_on_c, 0, 61, 55
1, 231129, Note_on_c, 0, 61, 0
1, 231129, Note_on_c, 0, 64, 58
1, 231129, Note_on_c, 0, 44, 53
1, 231266, Note_on_c, 0, 64, 0
1, 231266, Note_on_c, 0, 61, 56
1, 231403, Note_on_c, 0, 61, 0
1, 231403, Note_on_c, 0, 56, 56
1, 231437, Note_on_c, 0, 44, 0
1, 231540, Note_on_c, 0, 56, 0
1, 231540, Note_on_c, 0, 32, 56
1, 231678, Note_on_c, 0, 64, 58
1, 231817, Note_on_c, 0, 64, 0
1, 231817, Note_on_c, 0, 61, 58
1, 231852, Note_on_c, 0, 32, 0
1, 231957, Note_on_c, 0, 61, 0
1, 231957, Note_on_c, 0, 64, 59
1, 231957, Note_on_c, 0, 44, 54
1, 232097, Note_on_c, 0, 64, 0
1, 232097, Note_on_c, 0, 61, 56
1, 232239, Note_on_c, 0, 61, 0
1, 232239, Note_on_c, 0, 56, 56
1, 232274, Note_on_c, 0, 44, 0
1, 232381, Note_on_c, 0, 56, 0
1, 232381, Note_on_c, 0, 68, 0
1, 232381, Note_on_c, 0, 68, 74
1, 232384, Note_on_c, 0, 32, 56
1, 232384, Control_c, 0, 64, 0
1, 232483, Control_c, 0, 64, 127
1, 232527, Note_on_c, 0, 63, 54
1, 232600, Note_on_c, 0, 32, 0
1, 232673, Note_on_c, 0, 63, 0
1, 232673, Note_on_c, 0, 61, 54
1, 232820, Note_on_c, 0, 61, 0
1, 232820, Note_on_c, 0, 63, 54
1, 232820, Note_on_c, 0, 44, 53
1, 232966, Note_on_c, 0, 63, 0
1, 232966, Note_on_c, 0, 61, 53
1, 233039, Note_on_c, 0, 44, 0
1, 233112, Note_on_c, 0, 61, 0
1, 233112, Note_on_c, 0, 56, 53
1, 233258, Note_on_c, 0, 56, 0
1, 233258, Note_on_c, 0, 32, 52
1, 233402, Note_on_c, 0, 63, 52
1, 233474, Note_on_c, 0, 32, 0
1, 233547, Note_on_c, 0, 63, 0
1, 233547, Note_on_c, 0, 61, 52
1, 233695, Note_on_c, 0, 61, 0
1, 233695, Note_on_c, 0, 63, 54
1, 233695, Note_on_c, 0, 44, 50
1, 233845, Note_on_c, 0, 63, 0
1, 233845, Note_on_c, 0, 61, 52
1, 233997, Note_on_c, 0, 61, 0
1, 233997, Note_on_c, 0, 56, 52
1, 234036, Note_on_c, 0, 44, 0
1, 234152, Note_on_c, 0, 56, 0
1, 234152, Note_on_c, 0, 68, 0
1, 234152, Note_on_c, 0, 68, 70
1, 234155, Note_on_c, 0, 32, 52
1, 234308, Note_on_c, 0, 63, 53
1, 234469, Note_on_c, 0, 63, 0
1, 234469, Note_on_c, 0, 60, 53
1, 234510, Note_on_c, 0, 32, 0
1, 234636, Note_on_c, 0, 60, 0
1, 234636, Note_on_c, 0, 63, 54
1, 234636, Note_on_c, 0, 44, 50
1, 234809, Note_on_c, 0, 63, 0
1, 234809, Note_on_c, 0, 60, 51
1, 234990, Note_on_c, 0, 60, 0
1, 234990, Note_on_c, 0, 56, 52
1, 235036, Note_on_c, 0, 44, 0
1, 235178, Note_on_c, 0, 56, 0
1, 235178, Note_on_c, 0, 68, 0
1, 235178, Control_c, 0, 64, 0
1, 238094, Note_on_c, 0, 64, 65
1, 238094, Note_on_c, 0, 68, 73
1, 238094, Note_on_c, 0, 37, 57
1, 238122, Control_c, 0, 64, 127
1, 238334, Note_on_c, 0, 37, 0
1, 238575, Note_on_c, 0, 49, 53
1, 239029, Note_on_c, 0, 49, 0
1, 239029, Note_on_c, 0, 61, 58
1, 239483, Note_on_c, 0, 61, 0
1, 239483, Note_on_c, 0, 73, 57
1, 239966, Note_on_c, 0, 73, 0
1, 239966, Note_on_c, 0, 68, 0
1, 239966, Note_on_c, 0, 64, 0
1, 239969, Note_on_c, 0, 64, 61
1, 239969, Note_on_c, 0, 68, 67
1, 240022, Control_c, 0, 64, 0
1, 240205, Note_on_c, 0, 37, 56
1, 240327, Note_on_c, 0, 37, 0
1, 240451, Note_on_c, 0, 37, 56
1, 240577, Note_on_c, 0, 37, 0
1, 240705, Note_on_c, 0, 36, 56
1, 240835, Note_on_c, 0, 68, 0
1, 240835, Note_on_c, 0, 64, 0
1, 240835, Note_on_c, 0, 63, 56
1, 240838, Note_on_c, 0, 36, 0
1, 240838, Note_on_c, 0, 66, 62
1, 240966, Note_on_c, 0, 66, 0
1, 240966, Note_on_c, 0, 63, 0
1, 240966, Note_on_c, 0, 63, 62
1, 240969, Note_on_c, 0, 66, 70
1, 240969, Note_on_c, 0, 37, 57
1, 241059, Control_c, 0, 64, 127
1, 241207, Note_on_c, 0, 37, 0
1, 241448, Note_on_c, 0, 49, 53
1, 241906, Note_on_c, 0, 49, 0
1, 241906, Note_on_c, 0, 61, 58
1, 242364, Note_on_c, 0, 61, 0
1, 242364, Note_on_c, 0, 73, 59
1, 242843, Note_on_c, 0, 73, 0
1, 242843, Note_on_c, 0, 66, 0
1, 242843, Note_on_c, 0, 63, 0
1, 242846, Note_on_c, 0, 63, 63
1, 242846, Note_on_c, 0, 66, 70
1, 242871, Control_c, 0, 64, 0
1, 243082, Note_on_c, 0, 37, 57
1, 243203, Note_on_c, 0, 37, 0
1, 243326, Note_on_c, 0, 37, 57
1, 243449, Note_on_c, 0, 37, 0
1, 243574, Note_on_c, 0, 36, 58
1, 243700, Note_on_c, 0, 36, 0
1, 243828, Note_on_c, 0, 66, 0
1, 243828, Note_on_c, 0, 63, 0
1, 243828, Note_on_c, 0, 66, 67
1, 243831, Note_on_c, 0, 69, 75
1, 243831, Note_on_c, 0, 37, 57
1, 243891, Control_c, 0, 64, 127
1, 244074, Note_on_c, 0, 37, 0
1, 244319, Note_on_c, 0, 49, 53
1, 244778, Note_on_c, 0, 49, 0
1, 244778, Note_on_c, 0, 61, 58
1, 245236, Note_on_c, 0, 61, 0
1, 245236, Note_on_c, 0, 73, 60
1, 245715, Note_on_c, 0, 73, 0
1, 245715, Note_on_c, 0, 69, 0
1, 245715, Note_on_c, 0, 66, 0
1, 245718, Note_on_c, 0, 66, 59
1, 245718, Note_on_c, 0, 69, 65
1, 245742, Control_c, 0, 64, 0
1, 245951, Note_on_c, 0, 37, 58
1, 246072, Note_on_c, 0, 37, 0
1, 246195, Note_on_c, 0, 69, 0
1, 246195, Note_on_c, 0, 66, 0
1, 246195, Note_on_c, 0, 64, 56
1, 246198, Note_on_c, 0, 68, 62
1, 246198, Note_on_c, 0, 37, 57
1, 246318, Note_on_c, 0, 37, 0
1, 246443, Note_on_c, 0, 68, 0
1, 246443, Note_on_c, 0, 64, 0
1, 246443, Note_on_c, 0, 63, 54
1, 246446, Note_on_c, 0, 66, 60
1, 246446, Note_on_c, 0, 36, 57
1, 246571, Note_on_c, 0, 36, 0
1, 246695, Note_on_c, 0, 66, 0
1, 246695, Note_on_c, 0, 63, 0
1, 246695, Note_on_c, 0, 64, 65
1, 246698, Note_on_c, 0, 68, 73
1, 246698, Note_on_c, 0, 37, 57
1, 246758, Control_c, 0, 64, 127
1, 246939, Note_on_c, 0, 37, 0
1, 247182, Note_on_c, 0, 49, 53
1, 247640, Note_on_c, 0, 49, 0
1, 247640, Note_on_c, 0, 61, 58
1, 248098, Note_on_c, 0, 61, 0
1, 248098, Note_on_c, 0, 73, 58
1, 248577, Note_on_c, 0, 73, 0
1, 248577, Note_on_c, 0, 68, 0
1, 248577, Note_on_c, 0, 64, 0
1, 248580, Note_on_c, 0, 64, 61
1, 248580, Note_on_c, 0, 68, 67
1, 248633, Control_c, 0, 64, 0
1, 248819, Note_on_c, 0, 37, 59
1, 248941, Note_on_c, 0, 37, 0
1, 249065, Note_on_c, 0, 37, 58
1, 249189, Note_on_c, 0, 37, 0
1, 249316, Note_on_c, 0, 36, 57
1, 249443, Note_on_c, 0, 36, 0
1, 249572, Note_on_c, 0, 68, 0
1, 249572, Note_on_c, 0, 64, 0
1, 249572, Note_on_c, 0, 65, 67
1, 249575, Note_on_c, 0, 71, 75
1, 249575, Note_on_c, 0, 37, 57
1, 249654, Control_c, 0, 64, 127
1, 249818, Note_on_c, 0, 37, 0
1, 250064, Note_on_c, 0, 49, 53
1, 250528, Note_on_c, 0, 49, 0
1, 250528, Note_on_c, 0, 61, 58
1, 250986, Note_on_c, 0, 61, 0
1, 250986, Note_on_c, 0, 73, 63
1, 251465, Note_on_c, 0, 73, 0
1, 251465, Note_on_c, 0, 71, 0
1, 251465, Note_on_c, 0, 65, 0
1, 251468, Note_on_c, 0, 65, 59
1, 251468, Note_on_c, 0, 71, 65
1, 251493, Control_c, 0, 64, 0
1, 251709, Note_on_c, 0, 65, 0
1, 251709, Note_on_c, 0, 68, 59
1, 251709, Note_on_c, 0, 37, 56
1, 251832, Note_on_c, 0, 37, 0
1, 251957, Note_on_c, 0, 68, 0
1, 251957, Note_on_c, 0, 71, 0
1, 251957, Note_on_c, 0, 66, 56
1, 251960, Note_on_c, 0, 69, 62
1, 251960, Note_on_c, 0, 37, 56
1, 252083, Note_on_c, 0, 37, 0
1, 252211, Note_on_c, 0, 69, 0
1, 252211, Note_on_c, 0, 66, 0
1, 252211, Note_on_c, 0, 65, 54
1, 252214, Note_on_c, 0, 68, 60
1, 252214, Note_on_c, 0, 36, 57
1, 252340, Note_on_c, 0, 36, 0
1, 252471, Note_on_c, 0, 68, 0
1, 252471, Note_on_c, 0, 65, 0
1, 252471, Note_on_c, 0, 66, 67
1, 252474, Note_on_c, 0, 69, 75
1, 252474, Note_on_c, 0, 37, 57
1, 252540, Control_c, 0, 64, 127
1, 252716, Note_on_c, 0, 37, 0
1, 252962, Note_on_c, 0, 49, 53
1, 253426, Note_on_c, 0, 49, 0
1, 253426, Note_on_c, 0, 61, 58
1, 253884, Note_on_c, 0, 69, 0
1, 253884, Note_on_c, 0, 66, 0
1, 253884, Note_on_c, 0, 66, 54
1, 253887, Note_on_c, 0, 61, 0
1, 253887, Note_on_c, 0, 69, 60
1, 253887, Note_on_c, 0, 73, 67
1, 254363, Note_on_c, 0, 73, 0
1, 254363, Note_on_c, 0, 69, 0
1, 254363, Note_on_c, 0, 66, 0
1, 254366, Note_on_c, 0, 66, 66
1, 254366, Note_on_c, 0, 69, 74
1, 254392, Control_c, 0, 64, 0
1, 254609, Note_on_c, 0, 37, 57
1, 254732, Note_on_c, 0, 37, 0
1, 254855, Note_on_c, 0, 69, 0
1, 254855, Note_on_c, 0, 66, 0
1, 254855, Note_on_c, 0, 66, 66
1, 254858, Note_on_c, 0, 69, 75
1, 254858, Note_on_c, 0, 37, 57
1, 254987, Note_on_c, 0, 37, 0
1, 255120, Note_on_c, 0, 36, 58
1, 255252, Note_on_c, 0, 36, 0
1, 255385, Note_on_c, 0, 69, 0
1, 255385, Note_on_c, 0, 66, 0
1, 255385, Note_on_c, 0, 69, 75
1, 255388, Note_on_c, 0, 73, 84
1, 255388, Note_on_c, 0, 37, 63
1, 255439, Control_c, 0, 64, 127
1, 255633, Note_on_c, 0, 37, 0
1, 255882, Note_on_c, 0, 49, 56
1, 256340, Note_on_c, 0, 49, 0
1, 256340, Note_on_c, 0, 61, 62
1, 256794, Note_on_c, 0, 61, 0
1, 256794, Note_on_c, 0, 73, 71
1, 257305, Note_on_c, 0, 73, 0
1, 257305, Note_on_c, 0, 73, 0
1, 257305, Note_on_c, 0, 69, 0
1, 257308, Note_on_c, 0, 69, 65
1, 257308, Note_on_c, 0, 73, 73
1, 257333, Control_c, 0, 64, 0
1, 257544, Note_on_c, 0, 37, 57
1, 257666, Note_on_c, 0, 37, 0
1, 257790, Note_on_c, 0, 37, 57
1, 257916, Note_on_c, 0, 37, 0
1, 258043, Note_on_c, 0, 73, 0
1, 258043, Note_on_c, 0, 69, 0
1, 258043, Note_on_c, 0, 66, 54
1, 258046, Note_on_c, 0, 69, 60
1, 258046, Note_on_c, 0, 36, 57
1, 258173, Note_on_c, 0, 36, 0
1, 258307, Note_on_c, 0, 69, 0
1, 258307, Note_on_c, 0, 66, 0
1, 258307, Note_on_c, 0, 64, 62
1, 258310, Note_on_c, 0, 68, 70
1, 258310, Note_on_c, 0, 37, 57
1, 258394, Control_c, 0, 64, 127
1, 258555, Note_on_c, 0, 37, 0
1, 258803, Note_on_c, 0, 49, 53
1, 259262, Note_on_c, 0, 49, 0
1, 259262, Note_on_c, 0, 61, 58
1, 259720, Note_on_c, 0, 61, 0
1, 259720, Note_on_c, 0, 73, 59
1, 260199, Note_on_c, 0, 73, 0
1, 260227, Control_c, 0, 64, 0
1, 260440, Note_on_c, 0, 37, 58
1, 260563, Note_on_c, 0, 37, 0
1, 260687, Note_on_c, 0, 68, 0
1, 260687, Note_on_c, 0, 64, 0
1, 260687, Note_on_c, 0, 64, 66
1, 260690, Note_on_c, 0, 68, 75
1, 260690, Note_on_c, 0, 37, 58
1, 260813, Note_on_c, 0, 37, 0
1, 260940, Note_on_c, 0, 40, 58
1, 261069, Note_on_c, 0, 40, 0
1, 261199, Note_on_c, 0, 68, 0
1, 261199, Note_on_c, 0, 64, 0
1, 261199, Note_on_c, 0, 64, 76
1, 261202, Note_on_c, 0, 69, 76
1, 261202, Note_on_c, 0, 73, 85
1, 261202, Note_on_c, 0, 32, 60
1, 261242, Control_c, 0, 64, 127
1, 261424, Note_on_c, 0, 32, 0
1, 261649, Note_on_c, 0, 44, 68
1, 261878, Note_on_c, 0, 64, 0
1, 261878, Note_on_c, 0, 73, 0
1, 261878, Note_on_c, 0, 69, 0
1, 261881, Note_on_c, 0, 63, 70
1, 261881, Note_on_c, 0, 68, 70
1, 261881, Note_on_c, 0, 72, 78
1, 262107, Note_on_c, 0, 72, 0
1, 262107, Note_on_c, 0, 68, 0
1, 262107, Note_on_c, 0, 63, 0
1, 262110, Note_on_c, 0, 63, 75
1, 262110, Note_on_c, 0, 68, 75
1, 262110, Note_on_c, 0, 72, 84
1, 262113, Note_on_c, 0, 44, 0
1, 262113, Note_on_c, 0, 56, 74
1, 262565, Note_on_c, 0, 56, 0
1, 262565, Note_on_c, 0, 80, 76
1, 263040, Note_on_c, 0, 80, 0
1, 263067, Control_c, 0, 64, 0
1, 263151, Control_c, 0, 64, 127
1, 263278, Note_on_c, 0, 32, 62
1, 263398, Note_on_c, 0, 32, 0
1, 263519, Note_on_c, 0, 72, 0
1, 263519, Note_on_c, 0, 68, 0
1, 263519, Note_on_c, 0, 63, 0
1, 263522, Note_on_c, 0, 68, 77
1, 263522, Note_on_c, 0, 72, 88
1, 263522, Note_on_c, 0, 32, 62
1, 263641, Note_on_c, 0, 32, 0
1, 263762, Note_on_c, 0, 31, 62
1, 263885, Note_on_c, 0, 31, 0
1, 264009, Note_on_c, 0, 72, 0
1, 264009, Note_on_c, 0, 68, 0
1, 264009, Note_on_c, 0, 67, 83
1, 264012, Note_on_c, 0, 73, 83
1, 264012, Note_on_c, 0, 76, 93
1, 264012, Note_on_c, 0, 32, 65
1, 264061, Control_c, 0, 64, 0
1, 264072, Control_c, 0, 64, 127
1, 264232, Note_on_c, 0, 32, 0
1, 264454, Note_on_c, 0, 44, 74
1, 264683, Note_on_c, 0, 67, 0
1, 264683, Note_on_c, 0, 76, 0
1, 264683, Note_on_c, 0, 73, 0
1, 264686, Note_on_c, 0, 68, 76
1, 264686, Note_on_c, 0, 72, 76
1, 264686, Note_on_c, 0, 75, 85
1, 264912, Note_on_c, 0, 75, 0
1, 264912, Note_on_c, 0, 72, 0
1, 264912, Note_on_c, 0, 68, 0
1, 264915, Note_on_c, 0, 68, 82
1, 264915, Note_on_c, 0, 72, 82
1, 264915, Note_on_c, 0, 75, 92
1, 264918, Note_on_c, 0, 44, 0
1, 264918, Note_on_c, 0, 56, 81
1, 265371, Note_on_c, 0, 56, 0
1, 265371, Note_on_c, 0, 80, 84
1, 265849, Note_on_c, 0, 80, 0
1, 265877, Control_c, 0, 64, 0
1, 265961, Control_c, 0, 64, 127
1, 266089, Note_on_c, 0, 32, 64
1, 266208, Note_on_c, 0, 32, 0
1, 266328, Note_on_c, 0, 75, 0
1, 266328, Note_on_c, 0, 72, 0
1, 266328, Note_on_c, 0, 68, 0
1, 266331, Note_on_c, 0, 68, 82
1, 266331, Note_on_c, 0, 72, 82
1, 266331, Note_on_c, 0, 75, 94
1, 266334, Note_on_c, 0, 32, 64
1, 266451, Note_on_c, 0, 32, 0
1, 266574, Note_on_c, 0, 31, 64
1, 266697, Note_on_c, 0, 31, 0
1, 266820, Note_on_c, 0, 75, 0
1, 266820, Note_on_c, 0, 72, 0
1, 266820, Note_on_c, 0, 68, 0
1, 266823, Note_on_c, 0, 68, 88
1, 266823, Note_on_c, 0, 76, 88
1, 266823, Note_on_c, 0, 80, 99
1, 266826, Note_on_c, 0, 32, 68
1, 266874, Control_c, 0, 64, 0
1, 266886, Control_c, 0, 64, 127
1, 267051, Note_on_c, 0, 32, 0
1, 267282, Note_on_c, 0, 44, 78
1, 267513, Note_on_c, 0, 68, 0
1, 267513, Note_on_c, 0, 80, 0
1, 267513, Note_on_c, 0, 76, 0
1, 267516, Note_on_c, 0, 69, 81
1, 267516, Note_on_c, 0, 75, 81
1, 267516, Note_on_c, 0, 78, 90
1, 267743, Note_on_c, 0, 78, 0
1, 267743, Note_on_c, 0, 75, 0
1, 267743, Note_on_c, 0, 69, 0
1, 267746, Note_on_c, 0, 69, 87
1, 267746, Note_on_c, 0, 75, 87
1, 267746, Note_on_c, 0, 78, 98
1, 267749, Note_on_c, 0, 44, 0
1, 267749, Note_on_c, 0, 56, 86
1, 268205, Note_on_c, 0, 56, 0
1, 268205, Note_on_c, 0, 80, 89
1, 268684, Note_on_c, 0, 80, 0
1, 268712, Control_c, 0, 64, 0
1, 268795, Control_c, 0, 64, 127
1, 268923, Note_on_c, 0, 32, 69
1, 269043, Note_on_c, 0, 32, 0
1, 269162, Note_on_c, 0, 78, 0
1, 269162, Note_on_c, 0, 75, 0
1, 269162, Note_on_c, 0, 69, 0
1, 269165, Note_on_c, 0, 69, 87
1, 269165, Note_on_c, 0, 75, 87
1, 269165, Note_on_c, 0, 78, 100
1, 269168, Note_on_c, 0, 32, 69
1, 269292, Note_on_c, 0, 32, 0
1, 269430, Note_on_c, 0, 31, 69
1, 269580, Note_on_c, 0, 31, 0
1, 269730, Note_on_c, 0, 78, 0
1, 269730, Note_on_c, 0, 75, 0
1, 269730, Note_on_c, 0, 69, 0
1, 269733, Note_on_c, 0, 73, 94
1, 269733, Note_on_c, 0, 76, 94
1, 269733, Note_on_c, 0, 81, 106
1, 269736, Control_c, 0, 64, 0
1, 269736, Note_on_c, 0, 32, 72
1, 269789, Control_c, 0, 64, 127
1, 269961, Note_on_c, 0, 32, 0
1, 270191, Note_on_c, 0, 44, 78
1, 270422, Note_on_c, 0, 73, 0
1, 270422, Note_on_c, 0, 81, 0
1, 270422, Note_on_c, 0, 76, 0
1, 270425, Note_on_c, 0, 72, 86
1, 270425, Note_on_c, 0, 75, 86
1, 270425, Note_on_c, 0, 80, 96
1, 270653, Note_on_c, 0, 80, 0
1, 270653, Note_on_c, 0, 75, 0
1, 270653, Note_on_c, 0, 72, 0
1, 270656, Note_on_c, 0, 72, 93
1, 270656, Note_on_c, 0, 75, 93
1, 270656, Note_on_c, 0, 80, 105
1, 270659, Note_on_c, 0, 44, 0
1, 270659, Note_on_c, 0, 56, 86
1, 271114, Note_on_c, 0, 56, 0
1, 271114, Note_on_c, 0, 68, 85
1, 271352, Note_on_c, 0, 68, 0
1, 271832, Note_on_c, 0, 32, 62
1, 271854, Control_c, 0, 64, 0
1, 271891, Control_c, 0, 64, 127
1, 271954, Note_on_c, 0, 32, 0
1, 272075, Note_on_c, 0, 32, 62
1, 272197, Note_on_c, 0, 32, 0
1, 272319, Note_on_c, 0, 31, 62
1, 272440, Note_on_c, 0, 31, 0
1, 272562, Control_c, 0, 64, 0
1, 272562, Note_on_c, 0, 32, 62
1, 272758, Control_c, 0, 64, 127
1, 272798, Note_on_c, 0, 32, 0
1, 273031, Note_on_c, 0, 44, 65
1, 273497, Note_on_c, 0, 44, 0
1, 273497, Note_on_c, 0, 56, 70
1, 273963, Note_on_c, 0, 56, 0
1, 273963, Note_on_c, 0, 68, 67
1, 274204, Note_on_c, 0, 68, 0
1, 275450, Note_on_c, 0, 80, 0
1, 275450, Note_on_c, 0, 75, 0
1, 275450, Note_on_c, 0, 72, 0
1, 275453, Note_on_c, 0, 72, 67
1, 275453, Note_on_c, 0, 76, 67
1, 275453, Note_on_c, 0, 79, 75
1, 275456, Control_c, 0, 64, 0
1, 275456, Note_on_c, 0, 36, 57
1, 275592, Control_c, 0, 64, 127
1, 275912, Note_on_c, 0, 36, 0
1, 275912, Note_on_c, 0, 48, 53
1, 276373, Note_on_c, 0, 48, 0
1, 276373, Note_on_c, 0, 60, 55
1, 276835, Note_on_c, 0, 60, 0
1, 276835, Note_on_c, 0, 64, 56
1, 277074, Note_on_c, 0, 64, 0
1, 277342, Control_c, 0, 64, 0
1, 277562, Note_on_c, 0, 36, 56
1, 277687, Note_on_c, 0, 36, 0
1, 277814, Note_on_c, 0, 72, 0
1, 277814, Note_on_c, 0, 76, 0
1, 277814, Note_on_c, 0, 79, 0
1, 277817, Note_on_c, 0, 72, 62
1, 277817, Note_on_c, 0, 79, 62
1, 277817, Note_on_c, 0, 84, 70
1, 277820, Note_on_c, 0, 38, 56
1, 277941, Note_on_c, 0, 38, 0
1, 278069, Note_on_c, 0, 40, 56
1, 278199, Note_on_c, 0, 40, 0
1, 278330, Note_on_c, 0, 84, 0
1, 278330, Note_on_c, 0, 79, 0
1, 278330, Note_on_c, 0, 72, 0
1, 278333, Note_on_c, 0, 72, 67
1, 278333, Note_on_c, 0, 77, 67
1, 278333, Note_on_c, 0, 83, 75
1, 278336, Note_on_c, 0, 29, 57
1, 278472, Control_c, 0, 64, 127
1, 278791, Note_on_c, 0, 29, 0
1, 278791, Note_on_c, 0, 41, 53
1, 279022, Note_on_c, 0, 83, 0
1, 279022, Note_on_c, 0, 81, 75
1, 279253, Note_on_c, 0, 81, 0
1, 279253, Note_on_c, 0, 72, 0
1, 279253, Note_on_c, 0, 77, 0
1, 279256, Note_on_c, 0, 72, 66
1, 279256, Note_on_c, 0, 77, 66
1, 279256, Note_on_c, 0, 81, 75
1, 279259, Note_on_c, 0, 41, 0
1, 279259, Note_on_c, 0, 53, 57
1, 279714, Note_on_c, 0, 53, 0
1, 279714, Note_on_c, 0, 65, 56
1, 279954, Note_on_c, 0, 65, 0
1, 280221, Control_c, 0, 64, 0
1, 280430, Note_on_c, 0, 38, 56
1, 280550, Note_on_c, 0, 38, 0
1, 280672, Note_on_c, 0, 81, 0
1, 280672, Note_on_c, 0, 77, 0
1, 280672, Note_on_c, 0, 72, 0
1, 280675, Note_on_c, 0, 81, 69
1, 280675, Note_on_c, 0, 72, 62
1, 280675, Note_on_c, 0, 76, 62
1, 280678, Note_on_c, 0, 40, 56
1, 280794, Note_on_c, 0, 40, 0
1, 280918, Note_on_c, 0, 41, 56
1, 281044, Note_on_c, 0, 41, 0
1, 281174, Note_on_c, 0, 76, 0
1, 281174, Note_on_c, 0, 72, 0
1, 281174, Note_on_c, 0, 81, 0
1, 281177, Note_on_c, 0, 72, 67
1, 281177, Note_on_c, 0, 74, 67
1, 281177, Note_on_c, 0, 81, 75
1, 281180, Note_on_c, 0, 31, 57
1, 281316, Control_c, 0, 64, 127
1, 281635, Note_on_c, 0, 31, 0
1, 281635, Note_on_c, 0, 43, 53
1, 281866, Note_on_c, 0, 81, 0
1, 281866, Note_on_c, 0, 72, 0
1, 281866, Note_on_c, 0, 71, 71
1, 281869, Note_on_c, 0, 79, 75
1, 282097, Note_on_c, 0, 79, 0
1, 282097, Note_on_c, 0, 71, 0
1, 282097, Note_on_c, 0, 74, 0
1, 282100, Note_on_c, 0, 71, 66
1, 282100, Note_on_c, 0, 74, 66
1, 282100, Note_on_c, 0, 79, 75
1, 282103, Note_on_c, 0, 43, 0
1, 282103, Note_on_c, 0, 55, 58
1, 282559, Note_on_c, 0, 55, 0
1, 282559, Note_on_c, 0, 67, 59
1, 282798, Note_on_c, 0, 67, 0
1, 283065, Control_c, 0, 64, 0
1, 283276, Note_on_c, 0, 31, 56
1, 283397, Note_on_c, 0, 31, 0
1, 283520, Note_on_c, 0, 79, 0
1, 283520, Note_on_c, 0, 74, 0
1, 283520, Note_on_c, 0, 71, 0
1, 283523, Note_on_c, 0, 69, 60
1, 283523, Note_on_c, 0, 72, 60
1, 283523, Note_on_c, 0, 77, 67
1, 283526, Note_on_c, 0, 33, 56
1, 283643, Note_on_c, 0, 33, 0
1, 283768, Note_on_c, 0, 35, 56
1, 283894, Note_on_c, 0, 35, 0
1, 284022, Note_on_c, 0, 77, 0
1, 284022, Note_on_c, 0, 72, 0
1, 284022, Note_on_c, 0, 69, 0
1, 284025, Note_on_c, 0, 67, 60
1, 284025, Note_on_c, 0, 72, 60
1, 284025, Note_on_c, 0, 76, 66
1, 284028, Note_on_c, 0, 36, 57
1, 284089, Control_c, 0, 64, 127
1, 284484, Note_on_c, 0, 36, 0
1, 284484, Note_on_c, 0, 48, 53
1, 284962, Note_on_c, 0, 67, 0
1, 284962, Note_on_c, 0, 76, 0
1, 284962, Note_on_c, 0, 72, 0
1, 284965, Note_on_c, 0, 64, 56
1, 284965, Note_on_c, 0, 67, 56
1, 284965, Note_on_c, 0, 72, 62
1, 284968, Note_on_c, 0, 48, 0
1, 284968, Note_on_c, 0, 60, 58
1, 285441, Note_on_c, 0, 60, 0
1, 285441, Note_on_c, 0, 84, 61
1, 285680, Note_on_c, 0, 84, 0
1, 285994, Control_c, 0, 64, 0
1, 286160, Note_on_c, 0, 36, 56
1, 286281, Note_on_c, 0, 36, 0
1, 286403, Note_on_c, 0, 36, 56
1, 286525, Note_on_c, 0, 36, 0
1, 286647, Note_on_c, 0, 38, 56
1, 286770, Note_on_c, 0, 38, 0
1, 286894, Note_on_c, 0, 72, 0
1, 286894, Note_on_c, 0, 67, 0
1, 286894, Note_on_c, 0, 64, 0
1, 286897, Note_on_c, 0, 60, 65
1, 286897, Note_on_c, 0, 64, 73
1, 286897, Note_on_c, 0, 36, 57
1, 287030, Control_c, 0, 64, 127
1, 287355, Note_on_c, 0, 36, 0
1, 287355, Note_on_c, 0, 55, 53
1, 287817, Note_on_c, 0, 55, 0
1, 287817, Note_on_c, 0, 67, 58
1, 288278, Note_on_c, 0, 67, 0
1, 288278, Note_on_c, 0, 79, 60
1, 288524, Note_on_c, 0, 79, 0
1, 288770, Note_on_c, 0, 64, 0
1, 288770, Note_on_c, 0, 60, 0
1, 288770, Note_on_c, 0, 60, 61
1, 288773, Note_on_c, 0, 64, 67
1, 288827, Control_c, 0, 64, 0
1, 289013, Note_on_c, 0, 36, 56
1, 289136, Note_on_c, 0, 36, 0
1, 289259, Note_on_c, 0, 36, 56
1, 289384, Note_on_c, 0, 36, 0
1, 289508, Note_on_c, 0, 64, 0
1, 289508, Note_on_c, 0, 60, 0
1, 289508, Note_on_c, 0, 59, 60
1, 289511, Note_on_c, 0, 62, 66
1, 289511, Note_on_c, 0, 38, 56
1, 289633, Note_on_c, 0, 38, 0
1, 289760, Note_on_c, 0, 62, 0
1, 289760, Note_on_c, 0, 59, 0
1, 289760, Note_on_c, 0, 59, 67
1, 289763, Note_on_c, 0, 62, 75
1, 289763, Note_on_c, 0, 36, 57
1, 289902, Control_c, 0, 64, 127
1, 290221, Note_on_c, 0, 36, 0
1, 290221, Note_on_c, 0, 55, 53
1, 290683, Note_on_c, 0, 55, 0
1, 290683, Note_on_c, 0, 67, 58
1, 291144, Note_on_c, 0, 67, 0
1, 291144, Note_on_c, 0, 79, 59
1, 291388, Note_on_c, 0, 79, 0
1, 291631, Note_on_c, 0, 62, 0
1, 291631, Note_on_c, 0, 59, 0
1, 291631, Note_on_c, 0, 59, 63
1, 291634, Note_on_c, 0, 62, 70
1, 291659, Control_c, 0, 64, 0
1, 291873, Note_on_c, 0, 36, 56
1, 291995, Note_on_c, 0, 36, 0
1, 292118, Note_on_c, 0, 36, 56
1, 292242, Note_on_c, 0, 36, 0
1, 292367, Note_on_c, 0, 38, 56
1, 292493, Note_on_c, 0, 38, 0
1, 292621, Note_on_c, 0, 62, 0
1, 292621, Note_on_c, 0, 59, 0
1, 292621, Note_on_c, 0, 57, 67
1, 292624, Note_on_c, 0, 65, 75
1, 292624, Note_on_c, 0, 36, 57
1, 292763, Control_c, 0, 64, 127
1, 293082, Note_on_c, 0, 36, 0
1, 293082, Note_on_c, 0, 55, 53
1, 293544, Note_on_c, 0, 55, 0
1, 293544, Note_on_c, 0, 67, 58
1, 294005, Note_on_c, 0, 67, 0
1, 294005, Note_on_c, 0, 79, 60
1, 294245, Note_on_c, 0, 79, 0
1, 294484, Note_on_c, 0, 65, 0
1, 294484, Note_on_c, 0, 57, 0
1, 294484, Note_on_c, 0, 59, 59
1, 294487, Note_on_c, 0, 65, 65
1, 294512, Control_c, 0, 64, 0
1, 294725, Note_on_c, 0, 59, 0
1, 294725, Note_on_c, 0, 62, 55
1, 294725, Note_on_c, 0, 36, 56
1, 294847, Note_on_c, 0, 36, 0
1, 294969, Note_on_c, 0, 62, 0
1, 294969, Note_on_c, 0, 65, 0
1, 294969, Note_on_c, 0, 60, 56
1, 294972, Note_on_c, 0, 64, 62
1, 294972, Note_on_c, 0, 36, 56
1, 295092, Note_on_c, 0, 36, 0
1, 295217, Note_on_c, 0, 64, 0
1, 295217, Note_on_c, 0, 60, 0
1, 295217, Note_on_c, 0, 59, 54
1, 295220, Note_on_c, 0, 62, 60
1, 295220, Note_on_c, 0, 38, 56
1, 295342, Note_on_c, 0, 38, 0
1, 295469, Note_on_c, 0, 62, 0
1, 295469, Note_on_c, 0, 59, 0
1, 295469, Note_on_c, 0, 60, 65
1, 295472, Note_on_c, 0, 64, 73
1, 295472, Note_on_c, 0, 36, 57
1, 295571, Control_c, 0, 64, 127
1, 295930, Note_on_c, 0, 36, 0
1, 295930, Note_on_c, 0, 55, 53
1, 296392, Note_on_c, 0, 55, 0
1, 296392, Note_on_c, 0, 67, 58
1, 296853, Note_on_c, 0, 64, 0
1, 296853, Note_on_c, 0, 60, 0
1, 296853, Note_on_c, 0, 60, 61
1, 296856, Note_on_c, 0, 67, 0
1, 296856, Note_on_c, 0, 64, 68
1, 296856, Note_on_c, 0, 79, 61
1, 297093, Note_on_c, 0, 79, 0
1, 297093, Note_on_c, 0, 64, 0
1, 297093, Note_on_c, 0, 60, 0
1, 297332, Note_on_c, 0, 59, 61
1, 297332, Note_on_c, 0, 64, 68
1, 297388, Control_c, 0, 64, 0
1, 297573, Note_on_c, 0, 64, 0
1, 297573, Note_on_c, 0, 59, 0
1, 297573, Note_on_c, 0, 36, 56
1, 297694, Note_on_c, 0, 36, 0
1, 297816, Note_on_c, 0, 58, 61
1, 297816, Note_on_c, 0, 66, 68
1, 297816, Note_on_c, 0, 36, 56
1, 297939, Note_on_c, 0, 36, 0
1, 298062, Note_on_c, 0, 66, 0
1, 298062, Note_on_c, 0, 58, 0
1, 298062, Note_on_c, 0, 38, 56
1, 298186, Note_on_c, 0, 38, 0
1, 298311, Note_on_c, 0, 59, 65
1, 298311, Note_on_c, 0, 68, 73
1, 298311, Note_on_c, 0, 35, 57
1, 298455, Control_c, 0, 64, 127
1, 298798, Note_on_c, 0, 35, 0
1, 298798, Note_on_c, 0, 59, 0
1, 298798, Note_on_c, 0, 64, 65
1, 298801, Note_on_c, 0, 47, 53
1, 299257, Note_on_c, 0, 47, 0
1, 299257, Note_on_c, 0, 59, 58
1, 299711, Note_on_c, 0, 59, 0
1, 299711, Note_on_c, 0, 71, 58
1, 299953, Note_on_c, 0, 71, 0
1, 300194, Note_on_c, 0, 64, 0
1, 300194, Note_on_c, 0, 68, 0
1, 300194, Note_on_c, 0, 64, 61
1, 300197, Note_on_c, 0, 68, 67
1, 300251, Control_c, 0, 64, 0
1, 300438, Note_on_c, 0, 35, 56
1, 300560, Note_on_c, 0, 35, 0
1, 300683, Note_on_c, 0, 35, 56
1, 300808, Note_on_c, 0, 35, 0
1, 300932, Note_on_c, 0, 68, 0
1, 300932, Note_on_c, 0, 64, 0
1, 300932, Note_on_c, 0, 63, 60
1, 300935, Note_on_c, 0, 66, 66
1, 300935, Note_on_c, 0, 37, 56
1, 301057, Note_on_c, 0, 37, 0
1, 301184, Note_on_c, 0, 66, 0
1, 301184, Note_on_c, 0, 63, 0
1, 301184, Note_on_c, 0, 63, 67
1, 301187, Note_on_c, 0, 66, 75
1, 301187, Note_on_c, 0, 35, 57
1, 301251, Control_c, 0, 64, 127
1, 301415, Note_on_c, 0, 35, 0
1, 301645, Note_on_c, 0, 47, 53
1, 302107, Note_on_c, 0, 47, 0
1, 302107, Note_on_c, 0, 59, 58
1, 302568, Note_on_c, 0, 59, 0
1, 302568, Note_on_c, 0, 71, 58
1, 302808, Note_on_c, 0, 71, 0
1, 303047, Note_on_c, 0, 66, 0
1, 303047, Note_on_c, 0, 63, 0
1, 303047, Note_on_c, 0, 63, 63
1, 303050, Note_on_c, 0, 66, 70
1, 303075, Control_c, 0, 64, 0
1, 303289, Note_on_c, 0, 35, 56
1, 303411, Note_on_c, 0, 35, 0
1, 303534, Note_on_c, 0, 35, 56
1, 303658, Note_on_c, 0, 35, 0
1, 303783, Note_on_c, 0, 37, 56
1, 303909, Note_on_c, 0, 37, 0
1, 304037, Note_on_c, 0, 66, 0
1, 304037, Note_on_c, 0, 63, 0
1, 304037, Note_on_c, 0, 61, 67
1, 304040, Note_on_c, 0, 69, 75
1, 304040, Note_on_c, 0, 35, 57
1, 304179, Control_c, 0, 64, 127
1, 304268, Note_on_c, 0, 35, 0
1, 304498, Note_on_c, 0, 47, 53
1, 304960, Note_on_c, 0, 47, 0
1, 304960, Note_on_c, 0, 59, 58
1, 305422, Note_on_c, 0, 59, 0
1, 305422, Note_on_c, 0, 71, 60
1, 305661, Note_on_c, 0, 71, 0
1, 305900, Note_on_c, 0, 69, 0
1, 305900, Note_on_c, 0, 61, 0
1, 305900, Note_on_c, 0, 63, 59
1, 305903, Note_on_c, 0, 69, 65
1, 305928, Control_c, 0, 64, 0
1, 306139, Note_on_c, 0, 63, 0
1, 306139, Note_on_c, 0, 66, 55
1, 306139, Note_on_c, 0, 35, 56
1, 306259, Note_on_c, 0, 35, 0
1, 306379, Note_on_c, 0, 66, 0
1, 306379, Note_on_c, 0, 69, 0
1, 306379, Note_on_c, 0, 64, 56
1, 306382, Note_on_c, 0, 68, 62
1, 306382, Note_on_c, 0, 35, 56
1, 306501, Note_on_c, 0, 35, 0
1, 306622, Note_on_c, 0, 68, 0
1, 306622, Note_on_c, 0, 64, 0
1, 306622, Note_on_c, 0, 63, 54
1, 306625, Note_on_c, 0, 66, 60
1, 306625, Note_on_c, 0, 37, 56
1, 306745, Note_on_c, 0, 37, 0
1, 306869, Note_on_c, 0, 66, 0
1, 306869, Note_on_c, 0, 63, 0
1, 306869, Note_on_c, 0, 64, 65
1, 306872, Note_on_c, 0, 68, 73
1, 306872, Note_on_c, 0, 35, 57
1, 306971, Control_c, 0, 64, 127
1, 307100, Note_on_c, 0, 35, 0
1, 307331, Note_on_c, 0, 47, 53
1, 307792, Note_on_c, 0, 47, 0
1, 307792, Note_on_c, 0, 59, 58
1, 308254, Note_on_c, 0, 59, 0
1, 308254, Note_on_c, 0, 71, 59
1, 308493, Note_on_c, 0, 71, 0
1, 308788, Control_c, 0, 64, 0
1, 308972, Note_on_c, 0, 35, 57
1, 309091, Note_on_c, 0, 35, 0
1, 309211, Note_on_c, 0, 68, 0
1, 309211, Note_on_c, 0, 64, 0
1, 309211, Note_on_c, 0, 68, 62
1, 309214, Note_on_c, 0, 71, 70
1, 309214, Note_on_c, 0, 35, 57
1, 309331, Note_on_c, 0, 35, 0
1, 309450, Note_on_c, 0, 37, 57
1, 309570, Note_on_c, 0, 37, 0
1, 309690, Note_on_c, 0, 71, 0
1, 309690, Note_on_c, 0, 68, 0
1, 309690, Note_on_c, 0, 68, 78
1, 309693, Note_on_c, 0, 71, 78
1, 309693, Note_on_c, 0, 76, 87
1, 309693, Note_on_c, 0, 35, 61
1, 309743, Control_c, 0, 64, 0
1, 309832, Control_c, 0, 64, 127
1, 309920, Note_on_c, 0, 35, 0
1, 310151, Note_on_c, 0, 47, 70
1, 310382, Note_on_c, 0, 68, 0
1, 310382, Note_on_c, 0, 76, 0
1, 310382, Note_on_c, 0, 71, 0
1, 310385, Note_on_c, 0, 66, 72
1, 310385, Note_on_c, 0, 71, 72
1, 310385, Note_on_c, 0, 75, 81
1, 310613, Note_on_c, 0, 75, 0
1, 310613, Note_on_c, 0, 71, 0
1, 310613, Note_on_c, 0, 66, 0
1, 310616, Note_on_c, 0, 66, 77
1, 310616, Note_on_c, 0, 71, 77
1, 310616, Note_on_c, 0, 75, 87
1, 310619, Note_on_c, 0, 47, 0
1, 310619, Note_on_c, 0, 59, 76
1, 311074, Note_on_c, 0, 59, 0
1, 311074, Note_on_c, 0, 83, 79
1, 311549, Note_on_c, 0, 83, 0
1, 311576, Control_c, 0, 64, 0
1, 311785, Note_on_c, 0, 35, 62
1, 311905, Note_on_c, 0, 35, 0
1, 312025, Note_on_c, 0, 75, 0
1, 312025, Note_on_c, 0, 71, 0
1, 312025, Note_on_c, 0, 66, 0
1, 312028, Note_on_c, 0, 66, 80
1, 312028, Note_on_c, 0, 71, 80
1, 312028, Note_on_c, 0, 75, 92
1, 312031, Note_on_c, 0, 35, 63
1, 312147, Note_on_c, 0, 35, 0
1, 312270, Note_on_c, 0, 37, 63
1, 312393, Note_on_c, 0, 37, 0
1, 312518, Note_on_c, 0, 75, 0
1, 312518, Note_on_c, 0, 71, 0
1, 312518, Note_on_c, 0, 66, 0
1, 312521, Note_on_c, 0, 71, 86
1, 312521, Note_on_c, 0, 76, 86
1, 312521, Note_on_c, 0, 80, 97
1, 312524, Note_on_c, 0, 35, 67
1, 312660, Control_c, 0, 64, 127
1, 312749, Note_on_c, 0, 35, 0
1, 312980, Note_on_c, 0, 47, 77
1, 313210, Note_on_c, 0, 80, 0
1, 313210, Note_on_c, 0, 76, 0
1, 313210, Note_on_c, 0, 75, 80
1, 313213, Note_on_c, 0, 78, 89
1, 313441, Note_on_c, 0, 78, 0
1, 313441, Note_on_c, 0, 75, 0
1, 313441, Note_on_c, 0, 71, 0
1, 313444, Note_on_c, 0, 71, 86
1, 313444, Note_on_c, 0, 75, 86
1, 313444, Note_on_c, 0, 78, 97
1, 313447, Note_on_c, 0, 47, 0
1, 313447, Note_on_c, 0, 59, 85
1, 313903, Note_on_c, 0, 59, 0
1, 313903, Note_on_c, 0, 83, 89
1, 314381, Note_on_c, 0, 83, 0
1, 314409, Control_c, 0, 64, 0
1, 314621, Note_on_c, 0, 35, 67
1, 314740, Note_on_c, 0, 35, 0
1, 314860, Note_on_c, 0, 78, 0
1, 314860, Note_on_c, 0, 75, 0
1, 314860, Note_on_c, 0, 71, 0
1, 314863, Note_on_c, 0, 71, 87
1, 314863, Note_on_c, 0, 76, 87
1, 314863, Note_on_c, 0, 80, 100
1, 314866, Note_on_c, 0, 35, 68
1, 314986, Note_on_c, 0, 35, 0
1, 315113, Note_on_c, 0, 37, 70
1, 315239, Note_on_c, 0, 37, 0
1, 315365, Note_on_c, 0, 80, 0
1, 315365, Note_on_c, 0, 76, 0
1, 315365, Note_on_c, 0, 71, 0
1, 315368, Note_on_c, 0, 76, 94
1, 315368, Note_on_c, 0, 80, 94
1, 315368, Note_on_c, 0, 85, 106
1, 315371, Note_on_c, 0, 35, 72
1, 315432, Control_c, 0, 64, 127
1, 315596, Note_on_c, 0, 35, 0
1, 315826, Note_on_c, 0, 47, 78
1, 316057, Note_on_c, 0, 76, 0
1, 316057, Note_on_c, 0, 85, 0
1, 316057, Note_on_c, 0, 80, 0
1, 316060, Note_on_c, 0, 75, 86
1, 316060, Note_on_c, 0, 78, 86
1, 316060, Note_on_c, 0, 83, 96
1, 316288, Note_on_c, 0, 83, 0
1, 316288, Note_on_c, 0, 78, 0
1, 316288, Note_on_c, 0, 75, 0
1, 316291, Note_on_c, 0, 75, 93
1, 316291, Note_on_c, 0, 78, 93
1, 316291, Note_on_c, 0, 83, 105
1, 316294, Note_on_c, 0, 47, 0
1, 316294, Note_on_c, 0, 59, 86
1, 316750, Note_on_c, 0, 59, 0
1, 316750, Note_on_c, 0, 71, 85
1, 317224, Note_on_c, 0, 71, 0
1, 317443, Control_c, 0, 64, 0
1, 317465, Note_on_c, 0, 35, 59
1, 317586, Note_on_c, 0, 35, 0
1, 317707, Note_on_c, 0, 35, 59
1, 317829, Note_on_c, 0, 35, 0
1, 317951, Note_on_c, 0, 37, 60
1, 318074, Note_on_c, 0, 37, 0
1, 318198, Note_on_c, 0, 35, 62
1, 318327, Control_c, 0, 64, 127
1, 318436, Note_on_c, 0, 35, 0
1, 318669, Note_on_c, 0, 47, 58
1, 319135, Note_on_c, 0, 47, 0
1, 319135, Note_on_c, 0, 59, 60
1, 319601, Note_on_c, 0, 59, 0
1, 319601, Note_on_c, 0, 71, 63
1, 320084, Note_on_c, 0, 71, 0
1, 320567, Note_on_c, 0, 83, 0
1, 320567, Note_on_c, 0, 81, 75
1, 320709, Control_c, 0, 64, 0
1, 321050, Note_on_c, 0, 81, 0
1, 321050, Note_on_c, 0, 78, 0
1, 321050, Note_on_c, 0, 75, 0
1, 321053, Note_on_c, 0, 68, 67
1, 321053, Note_on_c, 0, 76, 67
1, 321053, Note_on_c, 0, 80, 75
1, 321056, Note_on_c, 0, 37, 57
1, 321125, Control_c, 0, 64, 127
1, 321280, Note_on_c, 0, 37, 0
1, 321511, Note_on_c, 0, 49, 52
1, 321973, Note_on_c, 0, 49, 0
1, 321973, Note_on_c, 0, 61, 57
1, 322434, Note_on_c, 0, 61, 0
1, 322434, Note_on_c, 0, 73, 63
1, 322913, Note_on_c, 0, 73, 0
1, 322941, Control_c, 0, 64, 0
1, 323156, Note_on_c, 0, 37, 56
1, 323278, Note_on_c, 0, 37, 0
1, 323401, Note_on_c, 0, 68, 0
1, 323401, Note_on_c, 0, 76, 0
1, 323401, Note_on_c, 0, 80, 0
1, 323404, Note_on_c, 0, 68, 62
1, 323404, Note_on_c, 0, 73, 62
1, 323404, Note_on_c, 0, 76, 70
1, 323407, Note_on_c, 0, 39, 56
1, 323524, Note_on_c, 0, 39, 0
1, 323648, Note_on_c, 0, 40, 56
1, 323772, Note_on_c, 0, 40, 0
1, 323897, Note_on_c, 0, 76, 0
1, 323897, Note_on_c, 0, 73, 0
1, 323897, Note_on_c, 0, 68, 0
1, 323900, Note_on_c, 0, 66, 67
1, 323900, Note_on_c, 0, 69, 67
1, 323900, Note_on_c, 0, 75, 75
1, 323903, Note_on_c, 0, 30, 55
1, 323974, Control_c, 0, 64, 127
1, 324128, Note_on_c, 0, 30, 0
1, 324359, Note_on_c, 0, 42, 55
1, 324590, Note_on_c, 0, 75, 0
1, 324590, Note_on_c, 0, 73, 75
1, 324820, Note_on_c, 0, 73, 0
1, 324820, Note_on_c, 0, 66, 0
1, 324820, Note_on_c, 0, 69, 0
1, 324823, Note_on_c, 0, 66, 66
1, 324823, Note_on_c, 0, 69, 66
1, 324823, Note_on_c, 0, 73, 75
1, 324826, Note_on_c, 0, 42, 0
1, 324826, Note_on_c, 0, 54, 58
1, 325276, Note_on_c, 0, 66, 62
1, 325282, Note_on_c, 0, 54, 0
1, 325282, Note_on_c, 0, 66, 0
1, 325755, Note_on_c, 0, 66, 0
1, 325789, Control_c, 0, 64, 0
1, 326004, Note_on_c, 0, 30, 56
1, 326126, Note_on_c, 0, 30, 0
1, 326249, Note_on_c, 0, 69, 0
1, 326249, Note_on_c, 0, 73, 0
1, 326249, Note_on_c, 0, 63, 62
1, 326252, Note_on_c, 0, 69, 62
1, 326252, Note_on_c, 0, 73, 70
1, 326252, Note_on_c, 0, 29, 56
1, 326372, Note_on_c, 0, 29, 0
1, 326496, Note_on_c, 0, 30, 56
1, 326620, Note_on_c, 0, 30, 0
1, 326745, Note_on_c, 0, 73, 0
1, 326745, Note_on_c, 0, 69, 0
1, 326745, Note_on_c, 0, 63, 0
1, 326748, Note_on_c, 0, 64, 67
1, 326748, Note_on_c, 0, 68, 67
1, 326748, Note_on_c, 0, 73, 75
1, 326751, Note_on_c, 0, 32, 55
1, 326801, Control_c, 0, 64, 127
1, 326976, Note_on_c, 0, 32, 0
1, 327206, Note_on_c, 0, 44, 53
1, 327668, Note_on_c, 0, 44, 0
1, 327668, Note_on_c, 0, 73, 0
1, 327668, Note_on_c, 0, 71, 75
1, 327671, Note_on_c, 0, 56, 58
1, 328130, Note_on_c, 0, 56, 0
1, 328130, Note_on_c, 0, 80, 61
1, 328559, Note_on_c, 0, 80, 0
1, 328559, Note_on_c, 0, 64, 0
1, 328559, Note_on_c, 0, 60, 56
1, 328587, Control_c, 0, 64, 0
1, 328802, Note_on_c, 0, 32, 56
1, 328924, Note_on_c, 0, 32, 0
1, 329045, Note_on_c, 0, 68, 0
1, 329045, Note_on_c, 0, 71, 0
1, 329045, Note_on_c, 0, 66, 60
1, 329048, Note_on_c, 0, 69, 67
1, 329048, Note_on_c, 0, 31, 56
1, 329172, Note_on_c, 0, 31, 0
1, 329299, Note_on_c, 0, 32, 56
1, 329426, Note_on_c, 0, 32, 0
1, 329553, Note_on_c, 0, 69, 0
1, 329553, Note_on_c, 0, 66, 0
1, 329553, Note_on_c, 0, 60, 0
1, 329556, Note_on_c, 0, 61, 60
1, 329556, Note_on_c, 0, 64, 60
1, 329556, Note_on_c, 0, 68, 66
1, 329559, Note_on_c, 0, 37, 57
1, 329620, Control_c, 0, 64, 127
1, 329784, Note_on_c, 0, 37, 0
1, 330014, Note_on_c, 0, 44, 53
1, 330493, Note_on_c, 0, 61, 0
1, 330493, Note_on_c, 0, 68, 0
1, 330493, Note_on_c, 0, 64, 0
1, 330496, Note_on_c, 0, 56, 56
1, 330496, Note_on_c, 0, 61, 56
1, 330496, Note_on_c, 0, 64, 62
1, 330499, Note_on_c, 0, 44, 0
1, 330499, Note_on_c, 0, 49, 58
1, 330972, Note_on_c, 0, 49, 0
1, 330972, Note_on_c, 0, 73, 61
1, 331450, Note_on_c, 0, 73, 0
1, 331695, Control_c, 0, 64, 0
1, 331695, Note_on_c, 0, 37, 56
1, 331819, Note_on_c, 0, 37, 0
1, 331946, Note_on_c, 0, 64, 0
1, 331946, Note_on_c, 0, 61, 0
1, 331946, Note_on_c, 0, 56, 0
1, 331949, Note_on_c, 0, 37, 56
1, 332073, Note_on_c, 0, 37, 0
1, 332202, Note_on_c, 0, 36, 56
1, 332334, Note_on_c, 0, 36, 0
1, 332467, Note_on_c, 0, 61, 58
1, 332467, Note_on_c, 0, 65, 58
1, 332467, Note_on_c, 0, 68, 65
1, 332470, Note_on_c, 0, 37, 50
1, 332614, Control_c, 0, 64, 127
1, 332944, Note_on_c, 0, 37, 0
1, 332944, Note_on_c, 0, 49, 50
1, 333403, Note_on_c, 0, 49, 0
1, 333403, Note_on_c, 0, 61, 54
1, 333861, Note_on_c, 0, 61, 0
1, 333861, Note_on_c, 0, 73, 59
1, 334340, Note_on_c, 0, 73, 0
1, 334368, Control_c, 0, 64, 0
1, 334588, Note_on_c, 0, 37, 50
1, 334713, Note_on_c, 0, 37, 0
1, 334840, Note_on_c, 0, 65, 0
1, 334840, Note_on_c, 0, 68, 0
1, 334840, Note_on_c, 0, 61, 0
1, 334843, Note_on_c, 0, 61, 54
1, 334843, Note_on_c, 0, 68, 54
1, 334843, Note_on_c, 0, 73, 61
1, 334846, Note_on_c, 0, 39, 50
1, 334967, Note_on_c, 0, 39, 0
1, 335096, Note_on_c, 0, 41, 50
1, 335225, Note_on_c, 0, 41, 0
1, 335356, Note_on_c, 0, 73, 0
1, 335356, Note_on_c, 0, 68, 0
1, 335356, Note_on_c, 0, 61, 0
1, 335359, Note_on_c, 0, 61, 58
1, 335359, Note_on_c, 0, 66, 58
1, 335359, Note_on_c, 0, 72, 65
1, 335362, Note_on_c, 0, 30, 49
1, 335498, Control_c, 0, 64, 127
1, 335817, Note_on_c, 0, 30, 0
1, 335817, Note_on_c, 0, 42, 50
1, 336279, Note_on_c, 0, 42, 0
1, 336279, Note_on_c, 0, 72, 0
1, 336279, Note_on_c, 0, 70, 65
1, 336282, Note_on_c, 0, 54, 54
1, 336741, Note_on_c, 0, 54, 0
1, 336741, Note_on_c, 0, 82, 58
1, 337219, Note_on_c, 0, 82, 0
1, 337219, Note_on_c, 0, 66, 0
1, 337219, Note_on_c, 0, 61, 0
1, 337248, Control_c, 0, 64, 0
1, 337468, Note_on_c, 0, 39, 50
1, 337593, Note_on_c, 0, 39, 0
1, 337720, Note_on_c, 0, 70, 0
1, 337720, Note_on_c, 0, 61, 54
1, 337720, Note_on_c, 0, 65, 54
1, 337723, Note_on_c, 0, 70, 61
1, 337723, Note_on_c, 0, 41, 50
1, 337847, Note_on_c, 0, 41, 0
1, 337975, Note_on_c, 0, 42, 50
1, 338105, Note_on_c, 0, 42, 0
1, 338236, Note_on_c, 0, 70, 0
1, 338236, Note_on_c, 0, 65, 0
1, 338236, Note_on_c, 0, 61, 0
1, 338239, Note_on_c, 0, 61, 58
1, 338239, Note_on_c, 0, 63, 58
1, 338239, Note_on_c, 0, 70, 65
1, 338242, Note_on_c, 0, 32, 49
1, 338378, Control_c, 0, 64, 127
1, 338697, Note_on_c, 0, 32, 0
1, 338697, Note_on_c, 0, 44, 47
1, 339159, Note_on_c, 0, 61, 0
1, 339159, Note_on_c, 0, 70, 0
1, 339159, Note_on_c, 0, 63, 0
1, 339162, Note_on_c, 0, 60, 53
1, 339162, Note_on_c, 0, 63, 55
1, 339162, Note_on_c, 0, 68, 62
1, 339165, Note_on_c, 0, 44, 0
1, 339165, Note_on_c, 0, 56, 51
1, 339620, Note_on_c, 0, 56, 0
1, 339620, Note_on_c, 0, 80, 55
1, 340049, Note_on_c, 0, 80, 0
1, 340079, Control_c, 0, 64, 0
1, 340300, Note_on_c, 0, 32, 50
1, 340426, Note_on_c, 0, 32, 0
1, 340551, Note_on_c, 0, 68, 0
1, 340551, Note_on_c, 0, 63, 0
1, 340551, Note_on_c, 0, 60, 0
1, 340554, Note_on_c, 0, 58, 55
1, 340554, Note_on_c, 0, 61, 55
1, 340554, Note_on_c, 0, 66, 61
1, 340557, Note_on_c, 0, 34, 52
1, 340681, Note_on_c, 0, 34, 0
1, 340811, Note_on_c, 0, 36, 52
1, 340940, Note_on_c, 0, 36, 0
1, 341070, Note_on_c, 0, 66, 0
1, 341070, Note_on_c, 0, 61, 0
1, 341070, Note_on_c, 0, 58, 0
1, 341073, Note_on_c, 0, 56, 55
1, 341073, Note_on_c, 0, 61, 55
1, 341073, Note_on_c, 0, 65, 61
1, 341076, Note_on_c, 0, 37, 52
1, 341137, Control_c, 0, 64, 127
1, 341532, Note_on_c, 0, 37, 0
1, 341532, Note_on_c, 0, 44, 49
1, 342010, Note_on_c, 0, 56, 0
1, 342010, Note_on_c, 0, 65, 0
1, 342010, Note_on_c, 0, 61, 0
1, 342013, Note_on_c, 0, 53, 52
1, 342013, Note_on_c, 0, 56, 52
1, 342013, Note_on_c, 0, 61, 56
1, 342016, Note_on_c, 0, 44, 0
1, 342016, Note_on_c, 0, 49, 53
1, 342489, Note_on_c, 0, 49, 0
1, 342489, Note_on_c, 0, 73, 56
1, 342968, Note_on_c, 0, 73, 0
1, 343214, Control_c, 0, 64, 0
1, 343214, Note_on_c, 0, 49, 56
1, 343339, Note_on_c, 0, 49, 0
1, 343465, Note_on_c, 0, 61, 0
1, 343465, Note_on_c, 0, 56, 0
1, 343465, Note_on_c, 0, 53, 0
1, 343468, Note_on_c, 0, 56, 55
1, 343468, Note_on_c, 0, 61, 55
1, 343468, Note_on_c, 0, 65, 61
1, 343471, Note_on_c, 0, 48, 56
1, 343591, Note_on_c, 0, 48, 0
1, 343719, Note_on_c, 0, 49, 56
1, 343848, Note_on_c, 0, 49, 0
1, 343979, Note_on_c, 0, 65, 0
1, 343979, Note_on_c, 0, 61, 0
1, 343979, Note_on_c, 0, 56, 0
1, 343982, Note_on_c, 0, 55, 60
1, 343982, Note_on_c, 0, 61, 60
1, 343982, Note_on_c, 0, 65, 66
1, 343985, Control_c, 0, 64, 0
1, 343985, Note_on_c, 0, 46, 57
1, 344046, Control_c, 0, 64, 127
1, 344440, Note_on_c, 0, 46, 0
1, 344440, Note_on_c, 0, 70, 61
1, 344680, Note_on_c, 0, 70, 0
1, 344680, Note_on_c, 0, 65, 0
1, 344680, Note_on_c, 0, 63, 66
1, 344919, Note_on_c, 0, 63, 0
1, 344919, Note_on_c, 0, 61, 0
1, 344919, Note_on_c, 0, 55, 0
1, 344922, Note_on_c, 0, 82, 61
1, 344922, Note_on_c, 0, 55, 56
1, 344922, Note_on_c, 0, 61, 56
1, 344925, Note_on_c, 0, 63, 62
1, 345398, Note_on_c, 0, 82, 0
1, 346083, Control_c, 0, 64, 0
1, 346119, Note_on_c, 0, 46, 56
1, 346242, Note_on_c, 0, 46, 0
1, 346366, Note_on_c, 0, 63, 0
1, 346366, Note_on_c, 0, 61, 0
1, 346366, Note_on_c, 0, 55, 0
1, 346369, Note_on_c, 0, 55, 59
1, 346369, Note_on_c, 0, 61, 59
1, 346369, Note_on_c, 0, 63, 65
1, 346372, Note_on_c, 0, 46, 56
1, 346491, Note_on_c, 0, 46, 0
1, 346616, Note_on_c, 0, 49, 56
1, 346743, Note_on_c, 0, 49, 0
1, 346871, Note_on_c, 0, 63, 0
1, 346871, Note_on_c, 0, 61, 0
1, 346871, Note_on_c, 0, 55, 0
1, 346874, Note_on_c, 0, 54, 63
1, 346874, Note_on_c, 0, 61, 63
1, 346874, Note_on_c, 0, 64, 70
1, 346877, Note_on_c, 0, 45, 57
1, 346938, Control_c, 0, 64, 127
1, 347332, Note_on_c, 0, 45, 0
1, 347332, Note_on_c, 0, 69, 61
1, 347572, Note_on_c, 0, 69, 0
1, 347572, Note_on_c, 0, 64, 0
1, 347572, Note_on_c, 0, 63, 66
1, 347811, Note_on_c, 0, 63, 0
1, 347811, Note_on_c, 0, 61, 0
1, 347811, Note_on_c, 0, 54, 0
1, 347814, Note_on_c, 0, 81, 61
1, 347814, Note_on_c, 0, 54, 56
1, 347814, Note_on_c, 0, 61, 56
1, 347817, Note_on_c, 0, 63, 62
1, 348290, Note_on_c, 0, 81, 0
1, 349000, Control_c, 0, 64, 0
1, 349008, Note_on_c, 0, 45, 56
1, 349128, Note_on_c, 0, 45, 0
1, 349251, Note_on_c, 0, 63, 0
1, 349251, Note_on_c, 0, 61, 0
1, 349251, Note_on_c, 0, 54, 0
1, 349254, Note_on_c, 0, 54, 56
1, 349254, Note_on_c, 0, 61, 56
1, 349254, Note_on_c, 0, 63, 62
1, 349257, Note_on_c, 0, 45, 56
1, 349374, Note_on_c, 0, 45, 0
1, 349499, Note_on_c, 0, 49, 56
1, 349625, Note_on_c, 0, 49, 0
1, 349753, Note_on_c, 0, 63, 0
1, 349753, Note_on_c, 0, 61, 0
1, 349753, Note_on_c, 0, 54, 0
1, 349756, Note_on_c, 0, 54, 60
1, 349756, Note_on_c, 0, 60, 60
1, 349756, Note_on_c, 0, 63, 66
1, 349759, Note_on_c, 0, 44, 57
1, 349820, Control_c, 0, 64, 127
1, 350215, Note_on_c, 0, 44, 0
1, 350215, Note_on_c, 0, 68, 58
1, 350454, Note_on_c, 0, 68, 0
1, 350693, Note_on_c, 0, 80, 59
1, 351172, Note_on_c, 0, 80, 0
1, 351172, Note_on_c, 0, 63, 0
1, 351172, Note_on_c, 0, 60, 0
1, 351175, Note_on_c, 0, 54, 0
1, 351175, Note_on_c, 0, 65, 61
1, 351411, Note_on_c, 0, 65, 0
1, 351411, Note_on_c, 0, 66, 61
1, 351651, Note_on_c, 0, 66, 0
1, 351651, Note_on_c, 0, 68, 61
1, 351847, Control_c, 0, 64, 0
1, 351894, Note_on_c, 0, 44, 56
1, 352017, Note_on_c, 0, 44, 0
1, 352140, Note_on_c, 0, 68, 0
1, 352140, Note_on_c, 0, 56, 56
1, 352140, Note_on_c, 0, 60, 56
1, 352143, Note_on_c, 0, 64, 62
1, 352143, Note_on_c, 0, 43, 56
1, 352264, Note_on_c, 0, 43, 0
1, 352388, Note_on_c, 0, 44, 56
1, 352514, Note_on_c, 0, 44, 0
1, 352640, Note_on_c, 0, 64, 0
1, 352640, Note_on_c, 0, 60, 0
1, 352640, Note_on_c, 0, 56, 0
1, 352643, Note_on_c, 0, 56, 60
1, 352643, Note_on_c, 0, 61, 60
1, 352643, Note_on_c, 0, 65, 66
1, 352646, Note_on_c, 0, 37, 57
1, 352708, Control_c, 0, 64, 127
1, 353102, Note_on_c, 0, 37, 0
1, 353102, Note_on_c, 0, 49, 58
1, 353341, Note_on_c, 0, 49, 0
1, 353580, Note_on_c, 0, 73, 61
1, 354538, Note_on_c, 0, 73, 0
1, 354714, Control_c, 0, 64, 0
1, 354779, Note_on_c, 0, 37, 52
1, 354900, Note_on_c, 0, 37, 0
1, 355023, Note_on_c, 0, 65, 0
1, 355023, Note_on_c, 0, 61, 0
1, 355023, Note_on_c, 0, 56, 0
1, 355026, Note_on_c, 0, 56, 56
1, 355026, Note_on_c, 0, 61, 56
1, 355026, Note_on_c, 0, 65, 62
1, 355029, Note_on_c, 0, 36, 52
1, 355146, Note_on_c, 0, 36, 0
1, 355270, Note_on_c, 0, 37, 52
1, 355396, Note_on_c, 0, 37, 0
1, 355522, Note_on_c, 0, 65, 0
1, 355522, Note_on_c, 0, 61, 0
1, 355522, Note_on_c, 0, 56, 0
1, 355525, Note_on_c, 0, 55, 54
1, 355525, Note_on_c, 0, 61, 54
1, 355525, Note_on_c, 0, 65, 60
1, 355528, Control_c, 0, 64, 0
1, 355528, Note_on_c, 0, 34, 52
1, 355590, Control_c, 0, 64, 127
1, 355753, Note_on_c, 0, 34, 0
1, 355984, Note_on_c, 0, 46, 55
1, 356223, Note_on_c, 0, 46, 0
1, 356223, Note_on_c, 0, 65, 0
1, 356223, Note_on_c, 0, 63, 60
1, 356463, Note_on_c, 0, 63, 0
1, 356463, Note_on_c, 0, 61, 0
1, 356463, Note_on_c, 0, 55, 0
1, 356466, Note_on_c, 0, 70, 55
1, 356466, Note_on_c, 0, 55, 51
1, 356466, Note_on_c, 0, 61, 51
1, 356469, Note_on_c, 0, 63, 56
1, 357420, Note_on_c, 0, 70, 0
1, 357629, Control_c, 0, 64, 0
1, 357666, Note_on_c, 0, 34, 51
1, 357790, Note_on_c, 0, 34, 0
1, 357915, Note_on_c, 0, 63, 0
1, 357915, Note_on_c, 0, 61, 0
1, 357915, Note_on_c, 0, 55, 0
1, 357918, Note_on_c, 0, 55, 54
1, 357918, Note_on_c, 0, 61, 54
1, 357918, Note_on_c, 0, 63, 59
1, 357921, Note_on_c, 0, 34, 51
1, 358041, Note_on_c, 0, 34, 0
1, 358168, Note_on_c, 0, 37, 51
1, 358296, Note_on_c, 0, 37, 0
1, 358425, Note_on_c, 0, 63, 0
1, 358425, Note_on_c, 0, 61, 0
1, 358425, Note_on_c, 0, 55, 0
1, 358428, Note_on_c, 0, 54, 57
1, 358428, Note_on_c, 0, 61, 57
1, 358428, Note_on_c, 0, 64, 63
1, 358431, Note_on_c, 0, 33, 52
1, 358493, Control_c, 0, 64, 127
1, 358656, Note_on_c, 0, 33, 0
1, 358887, Note_on_c, 0, 45, 55
1, 359126, Note_on_c, 0, 45, 0
1, 359126, Note_on_c, 0, 64, 0
1, 359126, Note_on_c, 0, 63, 60
1, 359366, Note_on_c, 0, 63, 0
1, 359366, Note_on_c, 0, 61, 0
1, 359366, Note_on_c, 0, 54, 0
1, 359369, Note_on_c, 0, 69, 55
1, 359369, Note_on_c, 0, 54, 51
1, 359369, Note_on_c, 0, 61, 51
1, 359372, Note_on_c, 0, 63, 56
1, 359844, Note_on_c, 0, 69, 0
1, 360558, Control_c, 0, 64, 0
1, 360566, Note_on_c, 0, 33, 51
1, 360689, Note_on_c, 0, 33, 0
1, 360812, Note_on_c, 0, 63, 0
1, 360812, Note_on_c, 0, 61, 0
1, 360812, Note_on_c, 0, 54, 0
1, 360815, Note_on_c, 0, 54, 51
1, 360815, Note_on_c, 0, 61, 51
1, 360815, Note_on_c, 0, 63, 56
1, 360818, Note_on_c, 0, 33, 51
1, 360936, Note_on_c, 0, 33, 0
1, 361061, Note_on_c, 0, 35, 51
1, 361186, Note_on_c, 0, 35, 0
1, 361312, Note_on_c, 0, 63, 0
1, 361312, Note_on_c, 0, 61, 0
1, 361312, Note_on_c, 0, 54, 0
1, 361315, Note_on_c, 0, 54, 54
1, 361315, Note_on_c, 0, 60, 54
1, 361315, Note_on_c, 0, 63, 60
1, 361318, Note_on_c, 0, 32, 52
1, 361380, Control_c, 0, 64, 127
1, 361543, Note_on_c, 0, 32, 0
1, 361774, Note_on_c, 0, 44, 55
1, 362013, Note_on_c, 0, 44, 0
1, 362253, Note_on_c, 0, 56, 55
1, 362731, Note_on_c, 0, 63, 0
1, 362731, Note_on_c, 0, 54, 0
1, 362731, Note_on_c, 0, 60, 0
1, 362734, Note_on_c, 0, 65, 55
1, 362971, Note_on_c, 0, 65, 0
1, 362971, Note_on_c, 0, 66, 55
1, 363210, Note_on_c, 0, 66, 0
1, 363210, Note_on_c, 0, 56, 0
1, 363210, Note_on_c, 0, 68, 55
1, 363409, Control_c, 0, 64, 0
1, 363456, Note_on_c, 0, 32, 51
1, 363580, Note_on_c, 0, 32, 0
1, 363704, Note_on_c, 0, 68, 0
1, 363704, Note_on_c, 0, 54, 51
1, 363704, Note_on_c, 0, 57, 51
1, 363707, Note_on_c, 0, 60, 56
1, 363707, Note_on_c, 0, 31, 51
1, 363830, Note_on_c, 0, 31, 0
1, 363955, Note_on_c, 0, 32, 51
1, 364082, Note_on_c, 0, 32, 0
1, 364210, Note_on_c, 0, 60, 0
1, 364210, Note_on_c, 0, 57, 0
1, 364210, Note_on_c, 0, 54, 0
1, 364213, Note_on_c, 0, 61, 56
1, 364213, Note_on_c, 0, 56, 51
1, 364213, Note_on_c, 0, 53, 51
1, 364216, Note_on_c, 0, 37, 52
1, 364277, Control_c, 0, 64, 127
1, 364441, Note_on_c, 0, 37, 0
1, 364672, Note_on_c, 0, 49, 53
1, 364911, Note_on_c, 0, 49, 0
1, 365150, Note_on_c, 0, 73, 55
1, 366144, Note_on_c, 0, 73, 0
1, 366328, Control_c, 0, 64, 0
1, 366396, Note_on_c, 0, 37, 51
1, 366523, Note_on_c, 0, 37, 0
1, 366653, Note_on_c, 0, 53, 0
1, 366653, Note_on_c, 0, 56, 0
1, 366653, Note_on_c, 0, 61, 0
1, 366656, Note_on_c, 0, 37, 51
1, 366783, Note_on_c, 0, 37, 0
1, 366914, Note_on_c, 0, 36, 51
1, 367047, Note_on_c, 0, 36, 0
1, 367175, Note_on_c, 0, 61, 56
1, 367175, Note_on_c, 0, 58, 51
1, 367175, Note_on_c, 0, 54, 51
1, 367178, Note_on_c, 0, 37, 52
1, 367243, Control_c, 0, 64, 127
1, 367406, Note_on_c, 0, 37, 0
1, 367637, Note_on_c, 0, 49, 53
1, 367885, Note_on_c, 0, 49, 0
1, 368134, Note_on_c, 0, 73, 55
1, 369128, Note_on_c, 0, 73, 0
1, 369310, Control_c, 0, 64, 0
1, 369377, Note_on_c, 0, 37, 51
1, 369504, Note_on_c, 0, 37, 0
1, 369632, Note_on_c, 0, 54, 0
1, 369632, Note_on_c, 0, 58, 0
1, 369632, Note_on_c, 0, 61, 0
1, 369635, Note_on_c, 0, 37, 51
1, 369762, Note_on_c, 0, 37, 0
1, 369893, Note_on_c, 0, 36, 51
1, 370026, Note_on_c, 0, 36, 0
1, 370161, Note_on_c, 0, 61, 56
1, 370161, Note_on_c, 0, 54, 51
1, 370161, Note_on_c, 0, 51, 51
1, 370164, Note_on_c, 0, 37, 52
1, 370231, Control_c, 0, 64, 127
1, 370402, Note_on_c, 0, 37, 0
1, 370643, Note_on_c, 0, 49, 53
1, 370899, Note_on_c, 0, 49, 0
1, 371156, Note_on_c, 0, 73, 55
1, 372182, Note_on_c, 0, 73, 0
1, 372374, Control_c, 0, 64, 0
1, 372444, Note_on_c, 0, 37, 51
1, 372580, Note_on_c, 0, 37, 0
1, 372720, Note_on_c, 0, 51, 0
1, 372720, Note_on_c, 0, 54, 0
1, 372720, Note_on_c, 0, 61, 0
1, 372723, Note_on_c, 0, 37, 51
1, 372863, Note_on_c, 0, 37, 0
1, 373010, Note_on_c, 0, 36, 51
1, 373162, Note_on_c, 0, 36, 0
1, 373318, Note_on_c, 0, 37, 52
1, 373318, Note_on_c, 0, 53, 51
1, 373318, Note_on_c, 0, 56, 51
1, 373321, Note_on_c, 0, 61, 56
1, 373421, Control_c, 0, 64, 127
1, 373908, Note_on_c, 0, 37, 0
1, 373908, Note_on_c, 0, 68, 52
1, 374056, Note_on_c, 0, 68, 0
1, 374498, Note_on_c, 0, 53, 0
1, 374498, Note_on_c, 0, 56, 0
1, 374498, Note_on_c, 0, 73, 54
1, 374501, Note_on_c, 0, 61, 0
1, 374501, Note_on_c, 0, 53, 48
1, 374501, Note_on_c, 0, 56, 48
1, 374504, Note_on_c, 0, 61, 53
1, 374646, Note_on_c, 0, 73, 0
1, 375088, Note_on_c, 0, 80, 54
1, 375236, Note_on_c, 0, 80, 0
1, 375678, Note_on_c, 0, 61, 0
1, 375678, Note_on_c, 0, 56, 0
1, 375678, Note_on_c, 0, 85, 54
1, 375681, Note_on_c, 0, 53, 0
1, 375681, Note_on_c, 0, 53, 48
1, 375681, Note_on_c, 0, 56, 48
1, 375684, Note_on_c, 0, 61, 53
1, 375834, Note_on_c, 0, 85, 0
1, 376299, Note_on_c, 0, 32, 48
1, 376470, Note_on_c, 0, 32, 0
1, 376983, Note_on_c, 0, 61, 0
1, 376983, Note_on_c, 0, 56, 0
1, 376983, Note_on_c, 0, 53, 0
1, 376986, Note_on_c, 0, 37, 49
1, 376986, Note_on_c, 0, 53, 48
1, 376986, Note_on_c, 0, 56, 48
1, 376989, Note_on_c, 0, 61, 53
1, 381088, Note_on_c, 0, 61, 0
1, 381088, Note_on_c, 0, 37, 0
1, 381088, Note_on_c, 0, 53, 0
1, 381091, Note_on_c, 0, 56, 0
1, 384431, Control_c, 0, 64, 0
1, 384431, End_track
0, 0, End_of_file
