0, 0, Header, 0, 1, 384
1, 0, Start_track
1, 0, Title_t, "Sonate D960, 4. Satz"
1, 0, Time_signature, 4, 2, 24, 8
1, 0, Key_signature, 0, "major"
1, 0, Tempo, 512821
1, 0, Program_c, 0, 1
1, 0, Control_c, 0, 7, 100
1, 0, Control_c, 0, 91, 127
1, 3, Program_c, 0, 1
1, 3, Control_c, 0, 7, 100
1, 748, Note_on_c, 0, 67, 118
1, 748, Note_on_c, 0, 55, 102
1, 748, Control_c, 0, 64, 0
1, 1903, Note_on_c, 0, 74, 76
1, 1988, Note_on_c, 0, 74, 0
1, 2072, Note_on_c, 0, 55, 0
1, 2072, Note_on_c, 0, 67, 0
1, 2072, Note_on_c, 0, 72, 87
1, 2075, Note_on_c, 0, 55, 66
1, 2234, Note_on_c, 0, 55, 0
1, 2234, Note_on_c, 0, 72, 0
1, 2234, Note_on_c, 0, 71, 61
1, 2237, Note_on_c, 0, 67, 55
1, 2315, Note_on_c, 0, 67, 0
1, 2315, Note_on_c, 0, 71, 0
1, 2396, Note_on_c, 0, 71, 67
1, 2396, Note_on_c, 0, 62, 50
1, 2396, Note_on_c, 0, 65, 55
1, 2478, Note_on_c, 0, 65, 0
1, 2478, Note_on_c, 0, 62, 0
1, 2478, Note_on_c, 0, 71, 0
1, 2560, Note_on_c, 0, 71, 61
1, 2560, Note_on_c, 0, 67, 56
1, 2643, Note_on_c, 0, 67, 0
1, 2643, Note_on_c, 0, 71, 0
1, 2727, Note_on_c, 0, 71, 79
1, 2727, Note_on_c, 0, 55, 68
1, 2891, Note_on_c, 0, 55, 0
1, 2891, Note_on_c, 0, 71, 0
1, 2891, Note_on_c, 0, 72, 64
1, 2894, Note_on_c, 0, 67, 52
1, 2973, Note_on_c, 0, 67, 0
1, 2973, Note_on_c, 0, 72, 0
1, 3055, Note_on_c, 0, 60, 53
1, 3055, Note_on_c, 0, 63, 59
1, 3138, Note_on_c, 0, 63, 0
1, 3138, Note_on_c, 0, 60, 0
1, 3220, Note_on_c, 0, 75, 75
1, 3220, Note_on_c, 0, 67, 56
1, 3304, Note_on_c, 0, 67, 0
1, 3304, Note_on_c, 0, 75, 0
1, 3388, Note_on_c, 0, 72, 87
1, 3388, Note_on_c, 0, 55, 66
1, 3550, Note_on_c, 0, 55, 0
1, 3550, Note_on_c, 0, 72, 0
1, 3550, Note_on_c, 0, 71, 61
1, 3553, Note_on_c, 0, 67, 55
1, 3630, Note_on_c, 0, 67, 0
1, 3630, Note_on_c, 0, 71, 0
1, 3711, Note_on_c, 0, 71, 68
1, 3711, Note_on_c, 0, 62, 50
1, 3711, Note_on_c, 0, 65, 55
1, 3793, Note_on_c, 0, 65, 0
1, 3793, Note_on_c, 0, 62, 0
1, 3793, Note_on_c, 0, 71, 0
1, 3875, Note_on_c, 0, 71, 61
1, 3875, Note_on_c, 0, 67, 53
1, 3959, Note_on_c, 0, 67, 0
1, 3959, Note_on_c, 0, 71, 0
1, 4043, Note_on_c, 0, 71, 81
1, 4043, Note_on_c, 0, 55, 68
1, 4207, Note_on_c, 0, 55, 0
1, 4207, Note_on_c, 0, 71, 0
1, 4207, Note_on_c, 0, 72, 71
1, 4210, Note_on_c, 0, 67, 56
1, 4289, Note_on_c, 0, 67, 0
1, 4289, Note_on_c, 0, 72, 0
1, 4372, Note_on_c, 0, 60, 53
1, 4372, Note_on_c, 0, 63, 59
1, 4372, Note_on_c, 0, 54, 53
1, 4495, Note_on_c, 0, 54, 0
1, 4495, Note_on_c, 0, 63, 0
1, 4495, Note_on_c, 0, 60, 0
1, 4536, Note_on_c, 0, 75, 78
1, 4536, Note_on_c, 0, 66, 59
1, 4661, Note_on_c, 0, 66, 0
1, 4703, Note_on_c, 0, 75, 0
1, 4703, Note_on_c, 0, 72, 87
1, 4703, Note_on_c, 0, 53, 66
1, 4864, Note_on_c, 0, 53, 0
1, 4864, Note_on_c, 0, 72, 0
1, 4864, Note_on_c, 0, 70, 76
1, 4867, Note_on_c, 0, 65, 59
1, 4945, Note_on_c, 0, 65, 0
1, 4945, Note_on_c, 0, 70, 0
1, 5026, Note_on_c, 0, 70, 78
1, 5026, Note_on_c, 0, 62, 59
1, 5108, Note_on_c, 0, 62, 0
1, 5108, Note_on_c, 0, 70, 0
1, 5190, Note_on_c, 0, 70, 78
1, 5190, Note_on_c, 0, 65, 60
1, 5272, Note_on_c, 0, 65, 0
1, 5272, Note_on_c, 0, 70, 0
1, 5354, Note_on_c, 0, 72, 87
1, 5354, Note_on_c, 0, 55, 66
1, 5516, Note_on_c, 0, 55, 0
1, 5516, Note_on_c, 0, 72, 0
1, 5516, Note_on_c, 0, 70, 77
1, 5519, Note_on_c, 0, 64, 60
1, 5597, Note_on_c, 0, 64, 0
1, 5597, Note_on_c, 0, 70, 0
1, 5678, Note_on_c, 0, 70, 79
1, 5678, Note_on_c, 0, 60, 60
1, 5760, Note_on_c, 0, 60, 0
1, 5760, Note_on_c, 0, 70, 0
1, 5842, Note_on_c, 0, 70, 79
1, 5842, Note_on_c, 0, 64, 60
1, 5924, Note_on_c, 0, 64, 0
1, 5924, Note_on_c, 0, 70, 0
1, 6006, Note_on_c, 0, 72, 87
1, 6006, Note_on_c, 0, 62, 66
1, 6006, Note_on_c, 0, 53, 59
1, 6034, Control_c, 0, 64, 127
1, 6087, Note_on_c, 0, 72, 0
1, 6087, Note_on_c, 0, 70, 76
1, 6167, Note_on_c, 0, 70, 0
1, 6167, Note_on_c, 0, 53, 0
1, 6167, Note_on_c, 0, 69, 77
1, 6170, Note_on_c, 0, 62, 0
1, 6170, Note_on_c, 0, 65, 57
1, 6248, Note_on_c, 0, 69, 0
1, 6248, Note_on_c, 0, 70, 77
1, 6329, Note_on_c, 0, 70, 0
1, 6329, Note_on_c, 0, 65, 0
1, 6329, Note_on_c, 0, 72, 82
1, 6332, Note_on_c, 0, 63, 59
1, 6332, Note_on_c, 0, 53, 53
1, 6353, Control_c, 0, 64, 0
1, 6412, Note_on_c, 0, 53, 0
1, 6412, Note_on_c, 0, 63, 0
1, 6412, Note_on_c, 0, 72, 0
1, 6495, Note_on_c, 0, 74, 78
1, 6495, Note_on_c, 0, 65, 58
1, 6580, Note_on_c, 0, 65, 0
1, 6580, Note_on_c, 0, 74, 0
1, 6666, Note_on_c, 0, 70, 82
1, 6666, Note_on_c, 0, 62, 66
1, 6666, Note_on_c, 0, 58, 66
1, 6834, Note_on_c, 0, 58, 0
1, 6834, Note_on_c, 0, 62, 0
1, 6834, Note_on_c, 0, 70, 0
1, 6999, Note_on_c, 0, 55, 102
1, 6999, Note_on_c, 0, 67, 118
1, 7820, Note_on_c, 0, 86, 76
1, 7905, Note_on_c, 0, 86, 0
1, 7989, Note_on_c, 0, 67, 0
1, 7989, Note_on_c, 0, 55, 0
1, 7989, Note_on_c, 0, 84, 88
1, 7992, Note_on_c, 0, 55, 66
1, 8151, Note_on_c, 0, 55, 0
1, 8151, Note_on_c, 0, 84, 0
1, 8151, Note_on_c, 0, 83, 61
1, 8154, Note_on_c, 0, 67, 55
1, 8232, Note_on_c, 0, 67, 0
1, 8232, Note_on_c, 0, 83, 0
1, 8313, Note_on_c, 0, 83, 67
1, 8313, Note_on_c, 0, 65, 55
1, 8313, Note_on_c, 0, 62, 50
1, 8395, Note_on_c, 0, 62, 0
1, 8395, Note_on_c, 0, 65, 0
1, 8395, Note_on_c, 0, 83, 0
1, 8477, Note_on_c, 0, 83, 61
1, 8477, Note_on_c, 0, 67, 56
1, 8561, Note_on_c, 0, 67, 0
1, 8561, Note_on_c, 0, 83, 0
1, 8644, Note_on_c, 0, 83, 79
1, 8644, Note_on_c, 0, 55, 68
1, 8808, Note_on_c, 0, 55, 0
1, 8808, Note_on_c, 0, 83, 0
1, 8808, Note_on_c, 0, 84, 66
1, 8811, Note_on_c, 0, 67, 55
1, 8890, Note_on_c, 0, 67, 0
1, 8890, Note_on_c, 0, 84, 0
1, 8973, Note_on_c, 0, 60, 53
1, 8973, Note_on_c, 0, 63, 59
1, 9055, Note_on_c, 0, 63, 0
1, 9055, Note_on_c, 0, 60, 0
1, 9137, Note_on_c, 0, 87, 75
1, 9137, Note_on_c, 0, 67, 56
1, 9221, Note_on_c, 0, 67, 0
1, 9221, Note_on_c, 0, 87, 0
1, 9305, Note_on_c, 0, 84, 88
1, 9305, Note_on_c, 0, 55, 66
1, 9467, Note_on_c, 0, 55, 0
1, 9467, Note_on_c, 0, 84, 0
1, 9467, Note_on_c, 0, 83, 61
1, 9470, Note_on_c, 0, 67, 55
1, 9548, Note_on_c, 0, 67, 0
1, 9548, Note_on_c, 0, 83, 0
1, 9629, Note_on_c, 0, 83, 68
1, 9629, Note_on_c, 0, 62, 50
1, 9629, Note_on_c, 0, 65, 55
1, 9710, Note_on_c, 0, 65, 0
1, 9710, Note_on_c, 0, 62, 0
1, 9710, Note_on_c, 0, 83, 0
1, 9792, Note_on_c, 0, 83, 61
1, 9792, Note_on_c, 0, 67, 53
1, 9876, Note_on_c, 0, 67, 0
1, 9876, Note_on_c, 0, 83, 0
1, 9960, Note_on_c, 0, 83, 81
1, 9960, Note_on_c, 0, 55, 68
1, 10125, Note_on_c, 0, 55, 0
1, 10125, Note_on_c, 0, 83, 0
1, 10125, Note_on_c, 0, 84, 71
1, 10128, Note_on_c, 0, 67, 56
1, 10207, Note_on_c, 0, 67, 0
1, 10207, Note_on_c, 0, 84, 0
1, 10289, Note_on_c, 0, 54, 53
1, 10289, Note_on_c, 0, 60, 53
1, 10289, Note_on_c, 0, 63, 59
1, 10371, Note_on_c, 0, 63, 0
1, 10371, Note_on_c, 0, 60, 0
1, 10371, Note_on_c, 0, 54, 0
1, 10453, Note_on_c, 0, 87, 78
1, 10453, Note_on_c, 0, 66, 59
1, 10537, Note_on_c, 0, 66, 0
1, 10621, Note_on_c, 0, 87, 0
1, 10621, Note_on_c, 0, 84, 88
1, 10621, Note_on_c, 0, 53, 66
1, 10782, Note_on_c, 0, 53, 0
1, 10782, Note_on_c, 0, 84, 0
1, 10782, Note_on_c, 0, 82, 76
1, 10785, Note_on_c, 0, 65, 59
1, 10862, Note_on_c, 0, 65, 0
1, 10862, Note_on_c, 0, 82, 0
1, 10943, Note_on_c, 0, 82, 78
1, 10943, Note_on_c, 0, 62, 59
1, 11025, Note_on_c, 0, 62, 0
1, 11025, Note_on_c, 0, 82, 0
1, 11107, Note_on_c, 0, 82, 78
1, 11107, Note_on_c, 0, 65, 60
1, 11189, Note_on_c, 0, 65, 0
1, 11189, Note_on_c, 0, 82, 0
1, 11271, Note_on_c, 0, 84, 88
1, 11271, Note_on_c, 0, 55, 66
1, 11433, Note_on_c, 0, 55, 0
1, 11433, Note_on_c, 0, 84, 0
1, 11433, Note_on_c, 0, 82, 77
1, 11436, Note_on_c, 0, 64, 60
1, 11514, Note_on_c, 0, 64, 0
1, 11514, Note_on_c, 0, 82, 0
1, 11595, Note_on_c, 0, 82, 79
1, 11595, Note_on_c, 0, 60, 60
1, 11677, Note_on_c, 0, 60, 0
1, 11677, Note_on_c, 0, 82, 0
1, 11759, Note_on_c, 0, 82, 79
1, 11759, Note_on_c, 0, 64, 60
1, 11841, Note_on_c, 0, 64, 0
1, 11841, Note_on_c, 0, 82, 0
1, 11923, Note_on_c, 0, 84, 88
1, 11923, Note_on_c, 0, 53, 59
1, 11923, Note_on_c, 0, 62, 66
1, 11952, Control_c, 0, 64, 127
1, 12004, Note_on_c, 0, 84, 0
1, 12004, Note_on_c, 0, 82, 76
1, 12085, Note_on_c, 0, 82, 0
1, 12085, Note_on_c, 0, 62, 0
1, 12085, Note_on_c, 0, 81, 77
1, 12088, Note_on_c, 0, 53, 0
1, 12088, Note_on_c, 0, 65, 57
1, 12165, Note_on_c, 0, 81, 0
1, 12165, Note_on_c, 0, 82, 77
1, 12246, Note_on_c, 0, 82, 0
1, 12246, Note_on_c, 0, 65, 0
1, 12246, Note_on_c, 0, 84, 82
1, 12249, Note_on_c, 0, 63, 59
1, 12249, Note_on_c, 0, 53, 53
1, 12270, Control_c, 0, 64, 0
1, 12329, Note_on_c, 0, 53, 0
1, 12329, Note_on_c, 0, 63, 0
1, 12329, Note_on_c, 0, 84, 0
1, 12412, Note_on_c, 0, 86, 78
1, 12412, Note_on_c, 0, 65, 58
1, 12497, Note_on_c, 0, 65, 0
1, 12497, Note_on_c, 0, 86, 0
1, 12583, Note_on_c, 0, 82, 82
1, 12583, Note_on_c, 0, 58, 66
1, 12583, Note_on_c, 0, 62, 66
1, 12665, Note_on_c, 0, 62, 0
1, 12665, Note_on_c, 0, 58, 0
1, 12747, Note_on_c, 0, 57, 62
1, 12831, Note_on_c, 0, 57, 0
1, 12914, Note_on_c, 0, 82, 0
1, 12914, Note_on_c, 0, 55, 61
1, 12998, Note_on_c, 0, 55, 0
1, 13082, Note_on_c, 0, 74, 81
1, 13082, Note_on_c, 0, 53, 60
1, 13166, Note_on_c, 0, 53, 0
1, 13166, Note_on_c, 0, 74, 0
1, 13251, Note_on_c, 0, 79, 84
1, 13251, Note_on_c, 0, 51, 66
1, 13334, Note_on_c, 0, 51, 0
1, 13418, Note_on_c, 0, 55, 60
1, 13418, Note_on_c, 0, 58, 60
1, 13501, Note_on_c, 0, 58, 0
1, 13501, Note_on_c, 0, 55, 0
1, 13584, Note_on_c, 0, 79, 0
1, 13584, Note_on_c, 0, 75, 84
1, 13584, Note_on_c, 0, 48, 60
1, 13668, Note_on_c, 0, 48, 0
1, 13751, Note_on_c, 0, 60, 60
1, 13751, Note_on_c, 0, 55, 60
1, 13835, Note_on_c, 0, 55, 0
1, 13835, Note_on_c, 0, 60, 0
1, 13918, Note_on_c, 0, 75, 0
1, 13918, Note_on_c, 0, 72, 84
1, 13918, Note_on_c, 0, 53, 66
1, 14000, Note_on_c, 0, 53, 0
1, 14082, Note_on_c, 0, 57, 59
1, 14082, Note_on_c, 0, 60, 59
1, 14164, Note_on_c, 0, 60, 0
1, 14164, Note_on_c, 0, 57, 0
1, 14247, Note_on_c, 0, 72, 0
1, 14247, Note_on_c, 0, 74, 84
1, 14247, Note_on_c, 0, 51, 60
1, 14329, Note_on_c, 0, 51, 0
1, 14329, Note_on_c, 0, 74, 0
1, 14411, Note_on_c, 0, 75, 82
1, 14411, Note_on_c, 0, 57, 60
1, 14411, Note_on_c, 0, 60, 60
1, 14493, Note_on_c, 0, 60, 0
1, 14493, Note_on_c, 0, 57, 0
1, 14493, Note_on_c, 0, 75, 0
1, 14575, Note_on_c, 0, 77, 81
1, 14575, Note_on_c, 0, 50, 63
1, 14585, Control_c, 0, 64, 127
1, 14656, Note_on_c, 0, 77, 0
1, 14656, Note_on_c, 0, 79, 77
1, 14737, Note_on_c, 0, 79, 0
1, 14737, Note_on_c, 0, 50, 0
1, 14737, Note_on_c, 0, 77, 77
1, 14740, Note_on_c, 0, 58, 58
1, 14740, Note_on_c, 0, 53, 53
1, 14818, Note_on_c, 0, 77, 0
1, 14818, Note_on_c, 0, 75, 77
1, 14899, Note_on_c, 0, 75, 0
1, 14899, Note_on_c, 0, 53, 0
1, 14899, Note_on_c, 0, 74, 83
1, 14902, Note_on_c, 0, 58, 0
1, 14902, Note_on_c, 0, 46, 58
1, 14908, Control_c, 0, 64, 0
1, 14943, Control_c, 0, 64, 127
1, 14981, Note_on_c, 0, 74, 0
1, 14981, Note_on_c, 0, 75, 76
1, 15063, Note_on_c, 0, 75, 0
1, 15063, Note_on_c, 0, 46, 0
1, 15063, Note_on_c, 0, 74, 76
1, 15066, Note_on_c, 0, 58, 58
1, 15066, Note_on_c, 0, 53, 53
1, 15149, Note_on_c, 0, 74, 0
1, 15149, Note_on_c, 0, 72, 77
1, 15234, Note_on_c, 0, 72, 0
1, 15234, Note_on_c, 0, 53, 0
1, 15234, Note_on_c, 0, 70, 84
1, 15237, Note_on_c, 0, 58, 0
1, 15237, Control_c, 0, 64, 0
1, 15237, Note_on_c, 0, 51, 64
1, 15338, Control_c, 0, 64, 127
1, 15402, Note_on_c, 0, 51, 0
1, 15402, Note_on_c, 0, 55, 53
1, 15402, Note_on_c, 0, 58, 58
1, 15560, Control_c, 0, 64, 0
1, 15569, Note_on_c, 0, 58, 0
1, 15569, Note_on_c, 0, 55, 0
1, 15569, Note_on_c, 0, 50, 58
1, 15737, Note_on_c, 0, 50, 0
1, 15737, Note_on_c, 0, 70, 0
1, 15737, Note_on_c, 0, 70, 81
1, 15740, Note_on_c, 0, 55, 53
1, 15740, Note_on_c, 0, 58, 58
1, 15821, Note_on_c, 0, 70, 0
1, 15906, Note_on_c, 0, 58, 0
1, 15906, Note_on_c, 0, 55, 0
1, 15906, Note_on_c, 0, 75, 84
1, 15909, Note_on_c, 0, 48, 66
1, 15915, Control_c, 0, 64, 127
1, 16072, Note_on_c, 0, 48, 0
1, 16072, Note_on_c, 0, 51, 54
1, 16072, Note_on_c, 0, 57, 60
1, 16239, Note_on_c, 0, 57, 0
1, 16239, Note_on_c, 0, 75, 0
1, 16239, Note_on_c, 0, 72, 84
1, 16242, Note_on_c, 0, 51, 0
1, 16242, Note_on_c, 0, 45, 60
1, 16406, Note_on_c, 0, 45, 0
1, 16406, Note_on_c, 0, 51, 54
1, 16406, Note_on_c, 0, 57, 60
1, 16573, Note_on_c, 0, 57, 0
1, 16573, Note_on_c, 0, 72, 0
1, 16573, Note_on_c, 0, 69, 84
1, 16576, Note_on_c, 0, 51, 0
1, 16576, Note_on_c, 0, 50, 66
1, 16583, Control_c, 0, 64, 0
1, 16607, Control_c, 0, 64, 127
1, 16742, Note_on_c, 0, 50, 0
1, 16742, Note_on_c, 0, 57, 59
1, 16742, Note_on_c, 0, 54, 53
1, 16776, Control_c, 0, 64, 0
1, 16910, Note_on_c, 0, 69, 0
1, 16910, Note_on_c, 0, 74, 89
1, 16910, Note_on_c, 0, 62, 78
1, 16913, Note_on_c, 0, 54, 0
1, 16913, Note_on_c, 0, 57, 0
1, 16913, Note_on_c, 0, 42, 66
1, 16993, Note_on_c, 0, 42, 0
1, 16993, Note_on_c, 0, 74, 0
1, 16993, Note_on_c, 0, 62, 0
1, 17075, Note_on_c, 0, 60, 73
1, 17075, Note_on_c, 0, 72, 82
1, 17075, Note_on_c, 0, 50, 54
1, 17078, Note_on_c, 0, 54, 60
1, 17157, Note_on_c, 0, 54, 0
1, 17157, Note_on_c, 0, 60, 0
1, 17157, Note_on_c, 0, 72, 0
1, 17160, Note_on_c, 0, 50, 0
1, 17239, Note_on_c, 0, 60, 79
1, 17239, Note_on_c, 0, 72, 90
1, 17239, Note_on_c, 0, 43, 71
1, 17319, Note_on_c, 0, 43, 0
1, 17399, Note_on_c, 0, 72, 0
1, 17399, Note_on_c, 0, 60, 0
1, 17399, Note_on_c, 0, 58, 75
1, 17402, Note_on_c, 0, 70, 84
1, 17402, Note_on_c, 0, 55, 63
1, 17479, Note_on_c, 0, 55, 0
1, 17479, Note_on_c, 0, 70, 0
1, 17479, Note_on_c, 0, 58, 0
1, 17559, Note_on_c, 0, 69, 91
1, 17559, Note_on_c, 0, 57, 80
1, 17559, Note_on_c, 0, 39, 73
1, 17641, Note_on_c, 0, 39, 0
1, 17641, Note_on_c, 0, 57, 0
1, 17641, Note_on_c, 0, 69, 0
1, 17723, Note_on_c, 0, 55, 76
1, 17723, Note_on_c, 0, 67, 85
1, 17723, Note_on_c, 0, 51, 68
1, 17805, Note_on_c, 0, 51, 0
1, 17805, Note_on_c, 0, 67, 0
1, 17805, Note_on_c, 0, 55, 0
1, 17887, Note_on_c, 0, 70, 97
1, 17887, Note_on_c, 0, 58, 85
1, 17887, Note_on_c, 0, 36, 75
1, 17969, Note_on_c, 0, 36, 0
1, 18052, Note_on_c, 0, 58, 0
1, 18052, Note_on_c, 0, 70, 0
1, 18052, Note_on_c, 0, 69, 90
1, 18055, Note_on_c, 0, 57, 79
1, 18055, Note_on_c, 0, 48, 70
1, 18134, Note_on_c, 0, 48, 0
1, 18134, Note_on_c, 0, 57, 0
1, 18134, Note_on_c, 0, 69, 0
1, 18216, Note_on_c, 0, 55, 83
1, 18216, Note_on_c, 0, 67, 95
1, 18216, Note_on_c, 0, 38, 78
1, 18296, Note_on_c, 0, 38, 0
1, 18296, Note_on_c, 0, 67, 0
1, 18296, Note_on_c, 0, 55, 0
1, 18377, Note_on_c, 0, 66, 90
1, 18377, Note_on_c, 0, 54, 79
1, 18377, Note_on_c, 0, 50, 69
1, 18458, Note_on_c, 0, 50, 0
1, 18458, Note_on_c, 0, 54, 0
1, 18458, Note_on_c, 0, 66, 0
1, 18538, Note_on_c, 0, 55, 84
1, 18538, Note_on_c, 0, 67, 96
1, 18538, Note_on_c, 0, 36, 68
1, 18541, Note_on_c, 0, 51, 76
1, 18710, Note_on_c, 0, 51, 0
1, 18710, Note_on_c, 0, 55, 0
1, 18710, Note_on_c, 0, 67, 0
1, 18713, Note_on_c, 0, 36, 0
1, 18883, Note_on_c, 0, 74, 105
1, 18883, Note_on_c, 0, 62, 93
1, 18883, Note_on_c, 0, 69, 93
1, 18886, Note_on_c, 0, 50, 75
1, 18886, Note_on_c, 0, 54, 84
1, 18886, Note_on_c, 0, 42, 75
1, 18913, Control_c, 0, 64, 127
1, 19391, Note_on_c, 0, 69, 0
1, 19391, Note_on_c, 0, 74, 0
1, 19391, Note_on_c, 0, 62, 0
1, 19394, Note_on_c, 0, 63, 77
1, 19394, Note_on_c, 0, 75, 88
1, 19416, Control_c, 0, 64, 0
1, 19476, Note_on_c, 0, 75, 0
1, 19476, Note_on_c, 0, 63, 0
1, 19560, Note_on_c, 0, 74, 92
1, 19560, Note_on_c, 0, 62, 81
1, 19643, Note_on_c, 0, 62, 0
1, 19643, Note_on_c, 0, 74, 0
1, 19725, Note_on_c, 0, 72, 88
1, 19725, Note_on_c, 0, 60, 77
1, 19807, Note_on_c, 0, 60, 0
1, 19807, Note_on_c, 0, 72, 0
1, 19889, Note_on_c, 0, 42, 0
1, 19889, Note_on_c, 0, 60, 82
1, 19889, Note_on_c, 0, 72, 93
1, 19892, Note_on_c, 0, 54, 0
1, 19892, Note_on_c, 0, 50, 0
1, 19892, Note_on_c, 0, 43, 74
1, 19922, Control_c, 0, 64, 127
1, 20050, Note_on_c, 0, 60, 0
1, 20050, Note_on_c, 0, 72, 0
1, 20050, Note_on_c, 0, 70, 88
1, 20053, Note_on_c, 0, 43, 0
1, 20053, Note_on_c, 0, 58, 77
1, 20053, Note_on_c, 0, 55, 69
1, 20069, Control_c, 0, 64, 0
1, 20131, Note_on_c, 0, 55, 0
1, 20131, Note_on_c, 0, 58, 0
1, 20131, Note_on_c, 0, 70, 0
1, 20212, Note_on_c, 0, 57, 82
1, 20212, Note_on_c, 0, 69, 93
1, 20212, Note_on_c, 0, 39, 69
1, 20294, Note_on_c, 0, 69, 0
1, 20294, Note_on_c, 0, 57, 0
1, 20376, Note_on_c, 0, 39, 0
1, 20376, Note_on_c, 0, 55, 77
1, 20376, Note_on_c, 0, 67, 88
1, 20379, Note_on_c, 0, 51, 69
1, 20463, Note_on_c, 0, 67, 0
1, 20463, Note_on_c, 0, 55, 0
1, 20549, Note_on_c, 0, 51, 0
1, 20549, Note_on_c, 0, 68, 96
1, 20549, Note_on_c, 0, 56, 84
1, 20552, Note_on_c, 0, 36, 74
1, 20588, Control_c, 0, 64, 127
1, 20717, Note_on_c, 0, 36, 0
1, 20717, Note_on_c, 0, 48, 69
1, 20884, Note_on_c, 0, 56, 0
1, 20884, Note_on_c, 0, 68, 0
1, 20884, Note_on_c, 0, 54, 79
1, 20887, Note_on_c, 0, 48, 0
1, 20887, Note_on_c, 0, 66, 90
1, 20887, Note_on_c, 0, 38, 69
1, 20945, Control_c, 0, 64, 0
1, 21015, Control_c, 0, 64, 127
1, 21054, Note_on_c, 0, 38, 0
1, 21054, Note_on_c, 0, 50, 69
1, 21232, Note_on_c, 0, 66, 0
1, 21232, Note_on_c, 0, 54, 0
1, 21232, Control_c, 0, 91, 127
1, 21235, Note_on_c, 0, 50, 0
1, 21235, Note_on_c, 0, 55, 83
1, 21235, Note_on_c, 0, 67, 95
1, 21238, Control_c, 0, 64, 0
1, 21238, Note_on_c, 0, 43, 74
1, 21238, Note_on_c, 0, 31, 66
1, 21410, Note_on_c, 0, 31, 0
1, 21410, Note_on_c, 0, 55, 0
1, 21410, Note_on_c, 0, 67, 0
1, 21413, Note_on_c, 0, 43, 0
1, 21588, Note_on_c, 0, 55, 102
1, 21588, Note_on_c, 0, 67, 118
1, 22410, Note_on_c, 0, 74, 76
1, 22494, Note_on_c, 0, 74, 0
1, 22579, Note_on_c, 0, 67, 0
1, 22579, Note_on_c, 0, 55, 0
1, 22579, Note_on_c, 0, 72, 87
1, 22582, Note_on_c, 0, 55, 66
1, 22741, Note_on_c, 0, 55, 0
1, 22741, Note_on_c, 0, 72, 0
1, 22741, Note_on_c, 0, 71, 61
1, 22744, Note_on_c, 0, 67, 55
1, 22822, Note_on_c, 0, 67, 0
1, 22822, Note_on_c, 0, 71, 0
1, 22903, Note_on_c, 0, 71, 67
1, 22903, Note_on_c, 0, 65, 55
1, 22903, Note_on_c, 0, 62, 50
1, 22985, Note_on_c, 0, 62, 0
1, 22985, Note_on_c, 0, 65, 0
1, 22985, Note_on_c, 0, 71, 0
1, 23067, Note_on_c, 0, 71, 61
1, 23067, Note_on_c, 0, 67, 56
1, 23150, Note_on_c, 0, 67, 0
1, 23150, Note_on_c, 0, 71, 0
1, 23234, Note_on_c, 0, 71, 79
1, 23234, Note_on_c, 0, 55, 68
1, 23313, Note_on_c, 0, 71, 0
1, 23313, Note_on_c, 0, 72, 73
1, 23399, Note_on_c, 0, 72, 0
1, 23399, Note_on_c, 0, 55, 0
1, 23399, Note_on_c, 0, 79, 83
1, 23402, Note_on_c, 0, 67, 55
1, 23560, Note_on_c, 0, 67, 0
1, 23560, Note_on_c, 0, 79, 0
1, 23560, Note_on_c, 0, 77, 74
1, 23563, Note_on_c, 0, 63, 59
1, 23563, Note_on_c, 0, 60, 53
1, 23641, Note_on_c, 0, 77, 0
1, 23641, Note_on_c, 0, 75, 69
1, 23722, Note_on_c, 0, 75, 0
1, 23722, Note_on_c, 0, 60, 0
1, 23722, Note_on_c, 0, 74, 69
1, 23725, Note_on_c, 0, 63, 0
1, 23725, Note_on_c, 0, 67, 56
1, 23806, Note_on_c, 0, 74, 0
1, 23806, Note_on_c, 0, 72, 69
1, 23891, Note_on_c, 0, 72, 0
1, 23891, Note_on_c, 0, 67, 0
1, 23891, Note_on_c, 0, 72, 87
1, 23894, Note_on_c, 0, 55, 66
1, 24052, Note_on_c, 0, 55, 0
1, 24052, Note_on_c, 0, 72, 0
1, 24052, Note_on_c, 0, 71, 61
1, 24055, Note_on_c, 0, 67, 55
1, 24133, Note_on_c, 0, 67, 0
1, 24133, Note_on_c, 0, 71, 0
1, 24214, Note_on_c, 0, 71, 68
1, 24214, Note_on_c, 0, 65, 55
1, 24214, Note_on_c, 0, 62, 50
1, 24296, Note_on_c, 0, 62, 0
1, 24296, Note_on_c, 0, 65, 0
1, 24296, Note_on_c, 0, 71, 0
1, 24378, Note_on_c, 0, 71, 61
1, 24378, Note_on_c, 0, 67, 53
1, 24462, Note_on_c, 0, 67, 0
1, 24462, Note_on_c, 0, 71, 0
1, 24546, Note_on_c, 0, 71, 81
1, 24546, Note_on_c, 0, 55, 68
1, 24710, Note_on_c, 0, 55, 0
1, 24710, Note_on_c, 0, 71, 0
1, 24710, Note_on_c, 0, 72, 71
1, 24713, Note_on_c, 0, 67, 56
1, 24792, Note_on_c, 0, 67, 0
1, 24792, Note_on_c, 0, 72, 0
1, 24874, Note_on_c, 0, 54, 53
1, 24874, Note_on_c, 0, 63, 59
1, 24874, Note_on_c, 0, 60, 53
1, 24956, Note_on_c, 0, 60, 0
1, 24956, Note_on_c, 0, 63, 0
1, 24956, Note_on_c, 0, 54, 0
1, 25039, Note_on_c, 0, 75, 78
1, 25039, Note_on_c, 0, 66, 59
1, 25206, Note_on_c, 0, 66, 0
1, 25206, Note_on_c, 0, 75, 0
1, 25206, Note_on_c, 0, 72, 87
1, 25209, Note_on_c, 0, 53, 66
1, 25367, Note_on_c, 0, 53, 0
1, 25367, Note_on_c, 0, 72, 0
1, 25367, Note_on_c, 0, 70, 76
1, 25370, Note_on_c, 0, 65, 59
1, 25448, Note_on_c, 0, 65, 0
1, 25448, Note_on_c, 0, 70, 0
1, 25528, Note_on_c, 0, 70, 78
1, 25528, Note_on_c, 0, 62, 59
1, 25611, Note_on_c, 0, 62, 0
1, 25611, Note_on_c, 0, 70, 0
1, 25693, Note_on_c, 0, 70, 78
1, 25693, Note_on_c, 0, 65, 60
1, 25775, Note_on_c, 0, 65, 0
1, 25775, Note_on_c, 0, 70, 0
1, 25857, Note_on_c, 0, 72, 87
1, 25857, Note_on_c, 0, 55, 66
1, 26019, Note_on_c, 0, 55, 0
1, 26019, Note_on_c, 0, 72, 0
1, 26019, Note_on_c, 0, 70, 77
1, 26022, Note_on_c, 0, 64, 60
1, 26100, Note_on_c, 0, 64, 0
1, 26100, Note_on_c, 0, 70, 0
1, 26180, Note_on_c, 0, 70, 79
1, 26180, Note_on_c, 0, 60, 60
1, 26263, Note_on_c, 0, 60, 0
1, 26263, Note_on_c, 0, 70, 0
1, 26345, Note_on_c, 0, 70, 79
1, 26345, Note_on_c, 0, 64, 60
1, 26427, Note_on_c, 0, 64, 0
1, 26427, Note_on_c, 0, 70, 0
1, 26509, Note_on_c, 0, 72, 87
1, 26509, Note_on_c, 0, 62, 66
1, 26509, Note_on_c, 0, 53, 59
1, 26537, Control_c, 0, 64, 127
1, 26590, Note_on_c, 0, 72, 0
1, 26590, Note_on_c, 0, 70, 76
1, 26670, Note_on_c, 0, 70, 0
1, 26670, Note_on_c, 0, 53, 0
1, 26670, Note_on_c, 0, 69, 77
1, 26673, Note_on_c, 0, 62, 0
1, 26673, Note_on_c, 0, 65, 57
1, 26751, Note_on_c, 0, 69, 0
1, 26751, Note_on_c, 0, 70, 77
1, 26831, Note_on_c, 0, 70, 0
1, 26831, Note_on_c, 0, 65, 0
1, 26831, Note_on_c, 0, 72, 82
1, 26834, Note_on_c, 0, 63, 59
1, 26834, Note_on_c, 0, 53, 53
1, 26856, Control_c, 0, 64, 0
1, 26914, Note_on_c, 0, 53, 0
1, 26914, Note_on_c, 0, 63, 0
1, 26914, Note_on_c, 0, 72, 0
1, 26997, Note_on_c, 0, 74, 78
1, 26997, Note_on_c, 0, 65, 58
1, 27083, Note_on_c, 0, 65, 0
1, 27083, Note_on_c, 0, 74, 0
1, 27168, Note_on_c, 0, 70, 82
1, 27168, Note_on_c, 0, 58, 66
1, 27168, Note_on_c, 0, 62, 66
1, 27251, Note_on_c, 0, 62, 0
1, 27251, Note_on_c, 0, 58, 0
1, 27333, Note_on_c, 0, 57, 62
1, 27416, Note_on_c, 0, 57, 0
1, 27500, Note_on_c, 0, 70, 0
1, 27500, Note_on_c, 0, 55, 61
1, 27584, Note_on_c, 0, 55, 0
1, 27668, Note_on_c, 0, 74, 81
1, 27668, Note_on_c, 0, 53, 60
1, 27752, Note_on_c, 0, 53, 0
1, 27752, Note_on_c, 0, 74, 0
1, 27836, Note_on_c, 0, 79, 84
1, 27836, Note_on_c, 0, 51, 66
1, 27920, Note_on_c, 0, 51, 0
1, 28003, Note_on_c, 0, 58, 60
1, 28003, Note_on_c, 0, 55, 60
1, 28087, Note_on_c, 0, 55, 0
1, 28087, Note_on_c, 0, 58, 0
1, 28170, Note_on_c, 0, 79, 0
1, 28170, Note_on_c, 0, 75, 84
1, 28170, Note_on_c, 0, 48, 60
1, 28254, Note_on_c, 0, 48, 0
1, 28337, Note_on_c, 0, 55, 60
1, 28337, Note_on_c, 0, 60, 60
1, 28420, Note_on_c, 0, 60, 0
1, 28420, Note_on_c, 0, 55, 0
1, 28504, Note_on_c, 0, 75, 0
1, 28504, Note_on_c, 0, 72, 84
1, 28504, Note_on_c, 0, 53, 66
1, 28586, Note_on_c, 0, 53, 0
1, 28668, Note_on_c, 0, 60, 59
1, 28668, Note_on_c, 0, 57, 59
1, 28750, Note_on_c, 0, 57, 0
1, 28750, Note_on_c, 0, 60, 0
1, 28832, Note_on_c, 0, 72, 0
1, 28832, Note_on_c, 0, 74, 84
1, 28832, Note_on_c, 0, 51, 60
1, 28914, Note_on_c, 0, 51, 0
1, 28914, Note_on_c, 0, 74, 0
1, 28997, Note_on_c, 0, 75, 82
1, 28997, Note_on_c, 0, 57, 60
1, 28997, Note_on_c, 0, 60, 60
1, 29079, Note_on_c, 0, 60, 0
1, 29079, Note_on_c, 0, 57, 0
1, 29079, Note_on_c, 0, 75, 0
1, 29161, Note_on_c, 0, 77, 81
1, 29161, Note_on_c, 0, 50, 63
1, 29170, Control_c, 0, 64, 127
1, 29242, Note_on_c, 0, 77, 0
1, 29242, Note_on_c, 0, 79, 77
1, 29323, Note_on_c, 0, 79, 0
1, 29323, Note_on_c, 0, 50, 0
1, 29323, Note_on_c, 0, 77, 77
1, 29326, Note_on_c, 0, 58, 58
1, 29326, Note_on_c, 0, 53, 53
1, 29403, Note_on_c, 0, 77, 0
1, 29403, Note_on_c, 0, 75, 77
1, 29484, Note_on_c, 0, 75, 0
1, 29484, Note_on_c, 0, 53, 0
1, 29484, Note_on_c, 0, 74, 83
1, 29487, Note_on_c, 0, 58, 0
1, 29487, Note_on_c, 0, 46, 58
1, 29494, Control_c, 0, 64, 0
1, 29528, Control_c, 0, 64, 127
1, 29567, Note_on_c, 0, 74, 0
1, 29567, Note_on_c, 0, 75, 76
1, 29649, Note_on_c, 0, 75, 0
1, 29649, Note_on_c, 0, 46, 0
1, 29649, Note_on_c, 0, 74, 76
1, 29652, Note_on_c, 0, 53, 53
1, 29652, Note_on_c, 0, 58, 58
1, 29735, Note_on_c, 0, 74, 0
1, 29735, Note_on_c, 0, 72, 77
1, 29820, Note_on_c, 0, 72, 0
1, 29820, Note_on_c, 0, 58, 0
1, 29820, Note_on_c, 0, 70, 84
1, 29823, Note_on_c, 0, 53, 0
1, 29823, Control_c, 0, 64, 0
1, 29823, Note_on_c, 0, 51, 64
1, 29923, Control_c, 0, 64, 127
1, 29987, Note_on_c, 0, 51, 0
1, 29987, Note_on_c, 0, 58, 58
1, 29987, Note_on_c, 0, 55, 53
1, 30145, Control_c, 0, 64, 0
1, 30155, Note_on_c, 0, 55, 0
1, 30155, Note_on_c, 0, 58, 0
1, 30155, Note_on_c, 0, 50, 58
1, 30328, Note_on_c, 0, 50, 0
1, 30328, Note_on_c, 0, 70, 0
1, 30328, Note_on_c, 0, 70, 70
1, 30331, Note_on_c, 0, 58, 53
1, 30331, Note_on_c, 0, 55, 53
1, 30413, Note_on_c, 0, 70, 0
1, 30499, Note_on_c, 0, 55, 0
1, 30499, Note_on_c, 0, 58, 0
1, 30499, Note_on_c, 0, 75, 72
1, 30502, Note_on_c, 0, 48, 57
1, 30502, Control_c, 0, 64, 127
1, 30666, Note_on_c, 0, 48, 0
1, 30666, Note_on_c, 0, 60, 53
1, 30666, Note_on_c, 0, 56, 53
1, 30832, Note_on_c, 0, 56, 0
1, 30832, Note_on_c, 0, 75, 0
1, 30832, Note_on_c, 0, 72, 72
1, 30835, Note_on_c, 0, 60, 0
1, 30835, Note_on_c, 0, 51, 53
1, 30999, Note_on_c, 0, 51, 0
1, 30999, Note_on_c, 0, 60, 53
1, 30999, Note_on_c, 0, 56, 53
1, 31166, Note_on_c, 0, 56, 0
1, 31166, Note_on_c, 0, 72, 0
1, 31166, Note_on_c, 0, 68, 72
1, 31169, Note_on_c, 0, 60, 0
1, 31169, Note_on_c, 0, 48, 57
1, 31169, Control_c, 0, 64, 0
1, 31244, Control_c, 0, 64, 127
1, 31330, Note_on_c, 0, 48, 0
1, 31330, Note_on_c, 0, 60, 52
1, 31330, Note_on_c, 0, 56, 52
1, 31494, Note_on_c, 0, 56, 0
1, 31494, Note_on_c, 0, 68, 0
1, 31494, Note_on_c, 0, 70, 72
1, 31497, Note_on_c, 0, 60, 0
1, 31497, Note_on_c, 0, 51, 53
1, 31659, Note_on_c, 0, 51, 0
1, 31659, Note_on_c, 0, 70, 0
1, 31659, Note_on_c, 0, 72, 70
1, 31662, Note_on_c, 0, 56, 53
1, 31662, Note_on_c, 0, 60, 53
1, 31823, Note_on_c, 0, 60, 0
1, 31823, Note_on_c, 0, 72, 0
1, 31823, Note_on_c, 0, 75, 72
1, 31826, Note_on_c, 0, 56, 0
1, 31826, Control_c, 0, 64, 0
1, 31826, Note_on_c, 0, 49, 57
1, 31902, Control_c, 0, 64, 127
1, 31990, Note_on_c, 0, 49, 0
1, 31990, Note_on_c, 0, 55, 53
1, 31990, Note_on_c, 0, 58, 53
1, 32157, Note_on_c, 0, 58, 0
1, 32157, Note_on_c, 0, 75, 0
1, 32157, Note_on_c, 0, 73, 72
1, 32160, Note_on_c, 0, 55, 0
1, 32160, Note_on_c, 0, 51, 53
1, 32180, Control_c, 0, 64, 0
1, 32236, Control_c, 0, 64, 127
1, 32323, Note_on_c, 0, 51, 0
1, 32323, Note_on_c, 0, 73, 0
1, 32323, Note_on_c, 0, 72, 72
1, 32326, Note_on_c, 0, 58, 53
1, 32326, Note_on_c, 0, 55, 53
1, 32490, Note_on_c, 0, 55, 0
1, 32490, Note_on_c, 0, 72, 0
1, 32490, Note_on_c, 0, 70, 72
1, 32493, Note_on_c, 0, 58, 0
1, 32493, Control_c, 0, 64, 0
1, 32493, Note_on_c, 0, 49, 57
1, 32525, Control_c, 0, 64, 127
1, 32655, Note_on_c, 0, 49, 0
1, 32655, Note_on_c, 0, 58, 52
1, 32655, Note_on_c, 0, 55, 52
1, 32819, Note_on_c, 0, 55, 0
1, 32819, Note_on_c, 0, 70, 0
1, 32819, Note_on_c, 0, 72, 72
1, 32822, Note_on_c, 0, 58, 0
1, 32822, Note_on_c, 0, 51, 53
1, 32822, Control_c, 0, 64, 0
1, 32901, Note_on_c, 0, 51, 0
1, 32901, Note_on_c, 0, 72, 0
1, 32983, Note_on_c, 0, 73, 70
1, 32983, Note_on_c, 0, 55, 53
1, 32983, Note_on_c, 0, 58, 53
1, 33065, Note_on_c, 0, 58, 0
1, 33065, Note_on_c, 0, 55, 0
1, 33065, Note_on_c, 0, 73, 0
1, 33147, Note_on_c, 0, 75, 70
1, 33147, Note_on_c, 0, 48, 55
1, 33229, Note_on_c, 0, 48, 0
1, 33229, Note_on_c, 0, 75, 0
1, 33229, Note_on_c, 0, 77, 66
1, 33312, Note_on_c, 0, 77, 0
1, 33312, Note_on_c, 0, 75, 66
1, 33312, Note_on_c, 0, 60, 51
1, 33315, Note_on_c, 0, 56, 47
1, 33394, Note_on_c, 0, 56, 0
1, 33394, Note_on_c, 0, 75, 0
1, 33394, Note_on_c, 0, 73, 66
1, 33397, Note_on_c, 0, 60, 0
1, 33476, Note_on_c, 0, 73, 0
1, 33476, Note_on_c, 0, 72, 71
1, 33476, Note_on_c, 0, 51, 51
1, 33558, Note_on_c, 0, 51, 0
1, 33558, Note_on_c, 0, 72, 0
1, 33558, Note_on_c, 0, 73, 66
1, 33641, Note_on_c, 0, 73, 0
1, 33641, Note_on_c, 0, 72, 66
1, 33641, Note_on_c, 0, 60, 51
1, 33644, Note_on_c, 0, 56, 47
1, 33725, Note_on_c, 0, 56, 0
1, 33725, Note_on_c, 0, 72, 0
1, 33725, Note_on_c, 0, 70, 66
1, 33728, Note_on_c, 0, 60, 0
1, 33809, Note_on_c, 0, 70, 0
1, 33809, Note_on_c, 0, 68, 72
1, 33809, Note_on_c, 0, 48, 56
1, 33893, Note_on_c, 0, 48, 0
1, 33912, Control_c, 0, 64, 127
1, 33976, Note_on_c, 0, 56, 47
1, 33976, Note_on_c, 0, 60, 51
1, 34061, Note_on_c, 0, 60, 0
1, 34061, Note_on_c, 0, 56, 0
1, 34137, Control_c, 0, 64, 0
1, 34146, Note_on_c, 0, 68, 0
1, 34146, Note_on_c, 0, 70, 72
1, 34146, Note_on_c, 0, 51, 56
1, 34230, Note_on_c, 0, 51, 0
1, 34230, Note_on_c, 0, 70, 0
1, 34314, Note_on_c, 0, 72, 68
1, 34314, Note_on_c, 0, 56, 47
1, 34314, Note_on_c, 0, 60, 51
1, 34398, Note_on_c, 0, 60, 0
1, 34398, Note_on_c, 0, 56, 0
1, 34398, Note_on_c, 0, 72, 0
1, 34481, Note_on_c, 0, 75, 72
1, 34481, Control_c, 0, 64, 127
1, 34481, Note_on_c, 0, 49, 56
1, 34649, Note_on_c, 0, 49, 0
1, 34649, Note_on_c, 0, 75, 0
1, 34649, Note_on_c, 0, 73, 72
1, 34652, Note_on_c, 0, 55, 53
1, 34652, Note_on_c, 0, 58, 53
1, 34733, Note_on_c, 0, 58, 0
1, 34733, Note_on_c, 0, 55, 0
1, 34733, Note_on_c, 0, 73, 0
1, 34809, Control_c, 0, 64, 0
1, 34816, Note_on_c, 0, 73, 72
1, 34816, Note_on_c, 0, 51, 56
1, 34844, Control_c, 0, 64, 127
1, 34898, Note_on_c, 0, 73, 0
1, 34898, Note_on_c, 0, 75, 68
1, 34980, Note_on_c, 0, 75, 0
1, 34980, Note_on_c, 0, 51, 0
1, 34980, Note_on_c, 0, 73, 68
1, 34983, Note_on_c, 0, 58, 53
1, 34983, Note_on_c, 0, 55, 53
1, 35062, Note_on_c, 0, 73, 0
1, 35062, Note_on_c, 0, 72, 68
1, 35144, Note_on_c, 0, 72, 0
1, 35144, Note_on_c, 0, 55, 0
1, 35144, Note_on_c, 0, 70, 72
1, 35147, Note_on_c, 0, 58, 0
1, 35147, Note_on_c, 0, 49, 58
1, 35147, Control_c, 0, 64, 0
1, 35170, Control_c, 0, 64, 127
1, 35307, Note_on_c, 0, 49, 0
1, 35307, Note_on_c, 0, 70, 0
1, 35307, Note_on_c, 0, 75, 73
1, 35310, Note_on_c, 0, 58, 53
1, 35310, Note_on_c, 0, 55, 53
1, 35357, Control_c, 0, 64, 0
1, 35391, Note_on_c, 0, 55, 0
1, 35391, Note_on_c, 0, 58, 0
1, 35391, Note_on_c, 0, 75, 0
1, 35475, Note_on_c, 0, 77, 77
1, 35475, Note_on_c, 0, 51, 55
1, 35558, Note_on_c, 0, 51, 0
1, 35558, Note_on_c, 0, 77, 0
1, 35642, Note_on_c, 0, 79, 80
1, 35642, Note_on_c, 0, 58, 58
1, 35642, Note_on_c, 0, 55, 58
1, 35726, Note_on_c, 0, 55, 0
1, 35726, Note_on_c, 0, 58, 0
1, 35726, Note_on_c, 0, 79, 0
1, 35810, Note_on_c, 0, 80, 83
1, 35810, Note_on_c, 0, 68, 74
1, 35810, Note_on_c, 0, 48, 61
1, 35813, Control_c, 0, 64, 127
1, 35973, Note_on_c, 0, 48, 0
1, 35973, Note_on_c, 0, 56, 51
1, 35973, Note_on_c, 0, 60, 56
1, 36137, Note_on_c, 0, 60, 0
1, 36137, Note_on_c, 0, 56, 0
1, 36137, Note_on_c, 0, 51, 56
1, 36304, Note_on_c, 0, 51, 0
1, 36304, Note_on_c, 0, 56, 51
1, 36304, Note_on_c, 0, 60, 56
1, 36472, Note_on_c, 0, 68, 0
1, 36472, Note_on_c, 0, 80, 0
1, 36472, Note_on_c, 0, 84, 84
1, 36475, Note_on_c, 0, 56, 0
1, 36475, Note_on_c, 0, 60, 0
1, 36475, Note_on_c, 0, 72, 75
1, 36478, Note_on_c, 0, 48, 61
1, 36478, Control_c, 0, 64, 0
1, 36565, Control_c, 0, 64, 127
1, 36636, Note_on_c, 0, 48, 0
1, 36636, Note_on_c, 0, 60, 56
1, 36636, Note_on_c, 0, 56, 51
1, 36801, Note_on_c, 0, 56, 0
1, 36801, Note_on_c, 0, 60, 0
1, 36801, Note_on_c, 0, 51, 56
1, 36969, Note_on_c, 0, 72, 0
1, 36969, Note_on_c, 0, 84, 0
1, 36969, Note_on_c, 0, 80, 79
1, 36972, Note_on_c, 0, 51, 0
1, 36972, Note_on_c, 0, 68, 71
1, 36972, Note_on_c, 0, 60, 56
1, 36975, Note_on_c, 0, 56, 51
1, 37136, Note_on_c, 0, 68, 0
1, 37136, Note_on_c, 0, 80, 0
1, 37136, Note_on_c, 0, 80, 83
1, 37139, Note_on_c, 0, 60, 0
1, 37139, Note_on_c, 0, 56, 0
1, 37139, Note_on_c, 0, 68, 74
1, 37142, Note_on_c, 0, 49, 61
1, 37142, Control_c, 0, 64, 0
1, 37192, Control_c, 0, 64, 127
1, 37303, Note_on_c, 0, 49, 0
1, 37303, Note_on_c, 0, 58, 56
1, 37303, Note_on_c, 0, 55, 51
1, 37467, Note_on_c, 0, 68, 0
1, 37467, Note_on_c, 0, 80, 0
1, 37467, Note_on_c, 0, 67, 71
1, 37470, Note_on_c, 0, 58, 0
1, 37470, Note_on_c, 0, 55, 0
1, 37470, Note_on_c, 0, 79, 79
1, 37473, Note_on_c, 0, 52, 56
1, 37473, Control_c, 0, 64, 0
1, 37538, Control_c, 0, 64, 127
1, 37631, Note_on_c, 0, 52, 0
1, 37631, Note_on_c, 0, 55, 51
1, 37631, Note_on_c, 0, 58, 56
1, 37797, Note_on_c, 0, 58, 0
1, 37797, Note_on_c, 0, 55, 0
1, 37797, Note_on_c, 0, 49, 61
1, 37964, Note_on_c, 0, 49, 0
1, 37964, Note_on_c, 0, 58, 56
1, 37964, Note_on_c, 0, 55, 51
1, 38133, Note_on_c, 0, 79, 0
1, 38133, Note_on_c, 0, 67, 0
1, 38133, Note_on_c, 0, 67, 72
1, 38136, Note_on_c, 0, 58, 0
1, 38136, Note_on_c, 0, 55, 0
1, 38136, Note_on_c, 0, 79, 81
1, 38139, Note_on_c, 0, 52, 60
1, 38299, Note_on_c, 0, 52, 0
1, 38299, Note_on_c, 0, 58, 63
1, 38299, Note_on_c, 0, 55, 56
1, 38466, Note_on_c, 0, 79, 0
1, 38466, Note_on_c, 0, 67, 0
1, 38466, Note_on_c, 0, 67, 76
1, 38469, Note_on_c, 0, 58, 0
1, 38469, Note_on_c, 0, 55, 0
1, 38469, Note_on_c, 0, 79, 87
1, 38472, Note_on_c, 0, 50, 68
1, 38472, Control_c, 0, 64, 0
1, 38533, Control_c, 0, 64, 127
1, 38629, Note_on_c, 0, 50, 0
1, 38629, Note_on_c, 0, 58, 55
1, 38629, Note_on_c, 0, 62, 62
1, 38793, Note_on_c, 0, 79, 0
1, 38793, Note_on_c, 0, 67, 0
1, 38793, Note_on_c, 0, 77, 82
1, 38796, Note_on_c, 0, 58, 0
1, 38796, Note_on_c, 0, 62, 0
1, 38796, Note_on_c, 0, 65, 73
1, 38799, Note_on_c, 0, 53, 62
1, 38812, Control_c, 0, 64, 0
1, 38891, Control_c, 0, 64, 127
1, 38959, Note_on_c, 0, 53, 0
1, 38959, Note_on_c, 0, 58, 55
1, 38959, Note_on_c, 0, 62, 62
1, 39125, Note_on_c, 0, 65, 0
1, 39125, Note_on_c, 0, 77, 0
1, 39125, Note_on_c, 0, 70, 81
1, 39128, Note_on_c, 0, 58, 0
1, 39128, Note_on_c, 0, 62, 0
1, 39128, Note_on_c, 0, 82, 91
1, 39131, Control_c, 0, 64, 0
1, 39131, Note_on_c, 0, 50, 72
1, 39203, Control_c, 0, 64, 127
1, 39291, Note_on_c, 0, 50, 0
1, 39291, Note_on_c, 0, 62, 61
1, 39291, Note_on_c, 0, 58, 55
1, 39458, Note_on_c, 0, 58, 0
1, 39458, Note_on_c, 0, 62, 0
1, 39458, Note_on_c, 0, 53, 61
1, 39625, Note_on_c, 0, 82, 0
1, 39625, Note_on_c, 0, 70, 0
1, 39625, Note_on_c, 0, 81, 85
1, 39628, Note_on_c, 0, 53, 0
1, 39628, Note_on_c, 0, 69, 75
1, 39628, Note_on_c, 0, 62, 61
1, 39631, Note_on_c, 0, 58, 55
1, 39793, Note_on_c, 0, 69, 0
1, 39793, Note_on_c, 0, 81, 0
1, 39793, Note_on_c, 0, 69, 75
1, 39796, Note_on_c, 0, 62, 0
1, 39796, Note_on_c, 0, 58, 0
1, 39796, Note_on_c, 0, 81, 85
1, 39799, Note_on_c, 0, 51, 74
1, 39799, Control_c, 0, 64, 0
1, 39879, Control_c, 0, 64, 127
1, 39956, Note_on_c, 0, 81, 0
1, 39956, Note_on_c, 0, 69, 0
1, 39956, Note_on_c, 0, 79, 78
1, 39959, Note_on_c, 0, 51, 0
1, 39959, Note_on_c, 0, 67, 70
1, 39959, Note_on_c, 0, 60, 58
1, 39962, Note_on_c, 0, 63, 64
1, 40120, Note_on_c, 0, 67, 0
1, 40120, Note_on_c, 0, 79, 0
1, 40120, Note_on_c, 0, 75, 83
1, 40123, Note_on_c, 0, 60, 0
1, 40123, Note_on_c, 0, 63, 0
1, 40123, Note_on_c, 0, 87, 95
1, 40126, Note_on_c, 0, 55, 61
1, 40139, Control_c, 0, 64, 0
1, 40208, Control_c, 0, 64, 127
1, 40287, Note_on_c, 0, 55, 0
1, 40287, Note_on_c, 0, 60, 55
1, 40287, Note_on_c, 0, 63, 61
1, 40455, Note_on_c, 0, 87, 0
1, 40455, Note_on_c, 0, 75, 0
1, 40455, Note_on_c, 0, 86, 87
1, 40458, Note_on_c, 0, 60, 0
1, 40458, Note_on_c, 0, 63, 0
1, 40458, Note_on_c, 0, 74, 76
1, 40461, Control_c, 0, 64, 0
1, 40461, Note_on_c, 0, 53, 68
1, 40534, Control_c, 0, 64, 127
1, 40622, Note_on_c, 0, 53, 0
1, 40622, Note_on_c, 0, 62, 58
1, 40622, Note_on_c, 0, 58, 52
1, 40790, Note_on_c, 0, 74, 0
1, 40790, Note_on_c, 0, 86, 0
1, 40790, Note_on_c, 0, 72, 69
1, 40793, Note_on_c, 0, 62, 0
1, 40793, Note_on_c, 0, 58, 0
1, 40793, Note_on_c, 0, 84, 77
1, 40796, Note_on_c, 0, 53, 58
1, 40819, Control_c, 0, 64, 0
1, 40878, Control_c, 0, 64, 127
1, 40957, Note_on_c, 0, 53, 0
1, 40957, Note_on_c, 0, 57, 52
1, 40957, Note_on_c, 0, 60, 58
1, 41125, Note_on_c, 0, 84, 0
1, 41125, Note_on_c, 0, 72, 0
1, 41125, Note_on_c, 0, 82, 77
1, 41128, Note_on_c, 0, 57, 0
1, 41128, Note_on_c, 0, 60, 0
1, 41128, Note_on_c, 0, 70, 68
1, 41131, Note_on_c, 0, 46, 62
1, 41131, Control_c, 0, 64, 0
1, 41159, Control_c, 0, 64, 127
1, 41292, Note_on_c, 0, 46, 0
1, 41292, Note_on_c, 0, 70, 0
1, 41292, Note_on_c, 0, 82, 0
1, 41295, Note_on_c, 0, 62, 54
1, 41295, Note_on_c, 0, 58, 49
1, 41445, Control_c, 0, 64, 0
1, 41460, Note_on_c, 0, 58, 0
1, 41460, Note_on_c, 0, 62, 0
1, 41460, Note_on_c, 0, 74, 70
1, 41463, Note_on_c, 0, 50, 54
1, 41474, Control_c, 0, 64, 127
1, 41541, Note_on_c, 0, 74, 0
1, 41569, Note_on_c, 0, 74, 72
1, 41623, Note_on_c, 0, 50, 0
1, 41623, Note_on_c, 0, 58, 49
1, 41623, Note_on_c, 0, 62, 54
1, 41650, Note_on_c, 0, 74, 0
1, 41678, Note_on_c, 0, 74, 74
1, 41760, Note_on_c, 0, 74, 0
1, 41787, Note_on_c, 0, 62, 0
1, 41787, Note_on_c, 0, 58, 0
1, 41787, Note_on_c, 0, 74, 75
1, 41790, Note_on_c, 0, 53, 60
1, 41869, Note_on_c, 0, 74, 0
1, 41896, Note_on_c, 0, 74, 73
1, 41950, Note_on_c, 0, 53, 0
1, 41950, Note_on_c, 0, 62, 54
1, 41950, Note_on_c, 0, 58, 49
1, 41978, Note_on_c, 0, 74, 0
1, 42005, Note_on_c, 0, 74, 71
1, 42087, Note_on_c, 0, 74, 0
1, 42114, Note_on_c, 0, 58, 0
1, 42114, Note_on_c, 0, 62, 0
1, 42114, Note_on_c, 0, 74, 75
1, 42117, Note_on_c, 0, 54, 54
1, 42129, Control_c, 0, 64, 0
1, 42153, Control_c, 0, 64, 127
1, 42198, Note_on_c, 0, 74, 0
1, 42198, Note_on_c, 0, 72, 70
1, 42282, Note_on_c, 0, 72, 0
1, 42282, Note_on_c, 0, 54, 0
1, 42282, Note_on_c, 0, 74, 71
1, 42285, Note_on_c, 0, 60, 50
1, 42285, Note_on_c, 0, 62, 55
1, 42366, Note_on_c, 0, 74, 0
1, 42366, Note_on_c, 0, 75, 71
1, 42450, Note_on_c, 0, 75, 0
1, 42450, Note_on_c, 0, 62, 0
1, 42450, Note_on_c, 0, 74, 77
1, 42453, Note_on_c, 0, 60, 0
1, 42453, Control_c, 0, 64, 0
1, 42453, Note_on_c, 0, 62, 58
1, 42456, Note_on_c, 0, 55, 53
1, 42456, Note_on_c, 0, 59, 53
1, 42629, Note_on_c, 0, 59, 0
1, 42629, Note_on_c, 0, 55, 0
1, 42629, Note_on_c, 0, 74, 0
1, 42632, Note_on_c, 0, 62, 0
1, 42808, Note_on_c, 0, 55, 102
1, 42808, Note_on_c, 0, 67, 118
1, 43629, Note_on_c, 0, 86, 76
1, 43714, Note_on_c, 0, 86, 0
1, 43798, Note_on_c, 0, 67, 0
1, 43798, Note_on_c, 0, 55, 0
1, 43798, Note_on_c, 0, 84, 87
1, 43801, Note_on_c, 0, 55, 66
1, 43960, Note_on_c, 0, 55, 0
1, 43960, Note_on_c, 0, 84, 0
1, 43960, Note_on_c, 0, 83, 61
1, 43963, Note_on_c, 0, 67, 55
1, 44041, Note_on_c, 0, 67, 0
1, 44041, Note_on_c, 0, 83, 0
1, 44122, Note_on_c, 0, 83, 67
1, 44122, Note_on_c, 0, 65, 55
1, 44122, Note_on_c, 0, 62, 50
1, 44204, Note_on_c, 0, 62, 0
1, 44204, Note_on_c, 0, 65, 0
1, 44204, Note_on_c, 0, 83, 0
1, 44286, Note_on_c, 0, 83, 61
1, 44286, Note_on_c, 0, 67, 56
1, 44370, Note_on_c, 0, 67, 0
1, 44370, Note_on_c, 0, 83, 0
1, 44453, Note_on_c, 0, 83, 79
1, 44453, Note_on_c, 0, 55, 68
1, 44532, Note_on_c, 0, 83, 0
1, 44532, Note_on_c, 0, 84, 73
1, 44618, Note_on_c, 0, 84, 0
1, 44618, Note_on_c, 0, 55, 0
1, 44618, Note_on_c, 0, 91, 83
1, 44621, Note_on_c, 0, 67, 55
1, 44779, Note_on_c, 0, 67, 0
1, 44779, Note_on_c, 0, 91, 0
1, 44779, Note_on_c, 0, 89, 74
1, 44782, Note_on_c, 0, 63, 59
1, 44782, Note_on_c, 0, 60, 53
1, 44861, Note_on_c, 0, 89, 0
1, 44861, Note_on_c, 0, 87, 69
1, 44942, Note_on_c, 0, 87, 0
1, 44942, Note_on_c, 0, 60, 0
1, 44942, Note_on_c, 0, 86, 69
1, 44945, Note_on_c, 0, 63, 0
1, 44945, Note_on_c, 0, 67, 56
1, 45026, Note_on_c, 0, 86, 0
1, 45026, Note_on_c, 0, 84, 69
1, 45110, Note_on_c, 0, 84, 0
1, 45110, Note_on_c, 0, 67, 0
1, 45110, Note_on_c, 0, 84, 87
1, 45113, Note_on_c, 0, 55, 66
1, 45272, Note_on_c, 0, 55, 0
1, 45272, Note_on_c, 0, 84, 0
1, 45272, Note_on_c, 0, 83, 61
1, 45275, Note_on_c, 0, 67, 55
1, 45353, Note_on_c, 0, 67, 0
1, 45353, Note_on_c, 0, 83, 0
1, 45433, Note_on_c, 0, 83, 68
1, 45433, Note_on_c, 0, 65, 55
1, 45433, Note_on_c, 0, 62, 50
1, 45515, Note_on_c, 0, 62, 0
1, 45515, Note_on_c, 0, 65, 0
1, 45515, Note_on_c, 0, 83, 0
1, 45597, Note_on_c, 0, 83, 61
1, 45597, Note_on_c, 0, 67, 53
1, 45681, Note_on_c, 0, 67, 0
1, 45681, Note_on_c, 0, 83, 0
1, 45765, Note_on_c, 0, 83, 81
1, 45765, Note_on_c, 0, 55, 68
1, 45929, Note_on_c, 0, 55, 0
1, 45929, Note_on_c, 0, 83, 0
1, 45929, Note_on_c, 0, 84, 71
1, 45932, Note_on_c, 0, 67, 56
1, 46012, Note_on_c, 0, 67, 0
1, 46012, Note_on_c, 0, 84, 0
1, 46094, Note_on_c, 0, 54, 53
1, 46094, Note_on_c, 0, 63, 59
1, 46094, Note_on_c, 0, 60, 53
1, 46176, Note_on_c, 0, 60, 0
1, 46176, Note_on_c, 0, 63, 0
1, 46176, Note_on_c, 0, 54, 0
1, 46258, Note_on_c, 0, 87, 78
1, 46258, Note_on_c, 0, 66, 59
1, 46425, Note_on_c, 0, 66, 0
1, 46425, Note_on_c, 0, 87, 0
1, 46425, Note_on_c, 0, 84, 87
1, 46428, Note_on_c, 0, 53, 66
1, 46587, Note_on_c, 0, 53, 0
1, 46587, Note_on_c, 0, 84, 0
1, 46587, Note_on_c, 0, 82, 76
1, 46590, Note_on_c, 0, 65, 59
1, 46667, Note_on_c, 0, 65, 0
1, 46667, Note_on_c, 0, 82, 0
1, 46748, Note_on_c, 0, 82, 78
1, 46748, Note_on_c, 0, 62, 59
1, 46830, Note_on_c, 0, 62, 0
1, 46830, Note_on_c, 0, 82, 0
1, 46912, Note_on_c, 0, 82, 78
1, 46912, Note_on_c, 0, 65, 60
1, 46994, Note_on_c, 0, 65, 0
1, 46994, Note_on_c, 0, 82, 0
1, 47076, Note_on_c, 0, 84, 87
1, 47076, Note_on_c, 0, 55, 66
1, 47238, Note_on_c, 0, 55, 0
1, 47238, Note_on_c, 0, 84, 0
1, 47238, Note_on_c, 0, 82, 77
1, 47241, Note_on_c, 0, 64, 60
1, 47319, Note_on_c, 0, 64, 0
1, 47319, Note_on_c, 0, 82, 0
1, 47400, Note_on_c, 0, 82, 79
1, 47400, Note_on_c, 0, 60, 60
1, 47482, Note_on_c, 0, 60, 0
1, 47482, Note_on_c, 0, 82, 0
1, 47564, Note_on_c, 0, 82, 79
1, 47564, Note_on_c, 0, 64, 60
1, 47646, Note_on_c, 0, 64, 0
1, 47646, Note_on_c, 0, 82, 0
1, 47728, Note_on_c, 0, 79, 87
1, 47728, Note_on_c, 0, 53, 59
1, 47728, Note_on_c, 0, 62, 66
1, 47757, Control_c, 0, 64, 127
1, 47809, Note_on_c, 0, 79, 0
1, 47809, Note_on_c, 0, 77, 76
1, 47890, Note_on_c, 0, 77, 0
1, 47890, Note_on_c, 0, 62, 0
1, 47890, Note_on_c, 0, 76, 77
1, 47893, Note_on_c, 0, 53, 0
1, 47893, Note_on_c, 0, 65, 57
1, 47970, Note_on_c, 0, 76, 0
1, 47970, Note_on_c, 0, 77, 77
1, 48051, Note_on_c, 0, 77, 0
1, 48051, Note_on_c, 0, 65, 0
1, 48051, Note_on_c, 0, 75, 82
1, 48054, Note_on_c, 0, 53, 53
1, 48054, Note_on_c, 0, 57, 59
1, 48075, Control_c, 0, 64, 0
1, 48134, Note_on_c, 0, 57, 0
1, 48134, Note_on_c, 0, 53, 0
1, 48134, Note_on_c, 0, 75, 0
1, 48217, Note_on_c, 0, 72, 78
1, 48217, Note_on_c, 0, 63, 58
1, 48302, Note_on_c, 0, 63, 0
1, 48302, Note_on_c, 0, 72, 0
1, 48388, Note_on_c, 0, 70, 82
1, 48388, Note_on_c, 0, 58, 66
1, 48388, Note_on_c, 0, 62, 66
1, 48470, Note_on_c, 0, 70, 0
1, 48553, Note_on_c, 0, 62, 0
1, 48553, Note_on_c, 0, 58, 0
1, 48553, Note_on_c, 0, 74, 79
1, 48556, Note_on_c, 0, 65, 62
1, 48634, Note_on_c, 0, 74, 0
1, 48714, Note_on_c, 0, 65, 0
1, 48714, Note_on_c, 0, 77, 79
1, 48714, Note_on_c, 0, 62, 62
1, 48796, Note_on_c, 0, 77, 0
1, 48879, Note_on_c, 0, 62, 0
1, 48879, Note_on_c, 0, 82, 79
1, 48879, Note_on_c, 0, 58, 62
1, 48963, Note_on_c, 0, 82, 0
1, 49047, Note_on_c, 0, 58, 0
1, 49047, Note_on_c, 0, 86, 84
1, 49047, Note_on_c, 0, 55, 67
1, 49215, Note_on_c, 0, 55, 0
1, 49215, Note_on_c, 0, 86, 0
1, 49215, Note_on_c, 0, 84, 82
1, 49218, Note_on_c, 0, 64, 61
1, 49298, Note_on_c, 0, 64, 0
1, 49298, Note_on_c, 0, 84, 0
1, 49381, Note_on_c, 0, 84, 85
1, 49381, Note_on_c, 0, 58, 63
1, 49464, Note_on_c, 0, 58, 0
1, 49464, Note_on_c, 0, 84, 0
1, 49547, Note_on_c, 0, 84, 82
1, 49547, Note_on_c, 0, 64, 66
1, 49630, Note_on_c, 0, 64, 0
1, 49630, Note_on_c, 0, 84, 0
1, 49713, Note_on_c, 0, 79, 87
1, 49713, Note_on_c, 0, 53, 59
1, 49742, Control_c, 0, 64, 127
1, 49794, Note_on_c, 0, 79, 0
1, 49794, Note_on_c, 0, 77, 76
1, 49875, Note_on_c, 0, 77, 0
1, 49875, Note_on_c, 0, 53, 0
1, 49875, Note_on_c, 0, 76, 77
1, 49878, Note_on_c, 0, 65, 57
1, 49955, Note_on_c, 0, 76, 0
1, 49955, Note_on_c, 0, 77, 77
1, 50036, Note_on_c, 0, 77, 0
1, 50036, Note_on_c, 0, 65, 0
1, 50036, Note_on_c, 0, 72, 82
1, 50039, Note_on_c, 0, 57, 59
1, 50060, Control_c, 0, 64, 0
1, 50119, Note_on_c, 0, 57, 0
1, 50119, Note_on_c, 0, 72, 0
1, 50202, Note_on_c, 0, 69, 78
1, 50202, Note_on_c, 0, 65, 58
1, 50287, Note_on_c, 0, 65, 0
1, 50287, Note_on_c, 0, 69, 0
1, 50371, Note_on_c, 0, 86, 89
1, 50371, Note_on_c, 0, 55, 67
1, 50535, Note_on_c, 0, 55, 0
1, 50535, Note_on_c, 0, 86, 0
1, 50535, Note_on_c, 0, 84, 82
1, 50538, Note_on_c, 0, 64, 59
1, 50619, Note_on_c, 0, 64, 0
1, 50619, Note_on_c, 0, 84, 0
1, 50702, Note_on_c, 0, 84, 85
1, 50702, Note_on_c, 0, 58, 59
1, 50786, Note_on_c, 0, 58, 0
1, 50786, Note_on_c, 0, 84, 0
1, 50870, Note_on_c, 0, 84, 82
1, 50870, Note_on_c, 0, 64, 60
1, 50954, Note_on_c, 0, 64, 0
1, 50954, Note_on_c, 0, 84, 0
1, 51037, Note_on_c, 0, 79, 87
1, 51037, Note_on_c, 0, 53, 59
1, 51066, Control_c, 0, 64, 127
1, 51118, Note_on_c, 0, 79, 0
1, 51118, Note_on_c, 0, 77, 76
1, 51199, Note_on_c, 0, 77, 0
1, 51199, Note_on_c, 0, 53, 0
1, 51199, Note_on_c, 0, 76, 77
1, 51202, Note_on_c, 0, 65, 57
1, 51279, Note_on_c, 0, 76, 0
1, 51279, Note_on_c, 0, 77, 77
1, 51360, Note_on_c, 0, 77, 0
1, 51360, Note_on_c, 0, 65, 0
1, 51360, Note_on_c, 0, 72, 82
1, 51363, Note_on_c, 0, 57, 59
1, 51384, Control_c, 0, 64, 0
1, 51443, Note_on_c, 0, 57, 0
1, 51443, Note_on_c, 0, 72, 0
1, 51526, Note_on_c, 0, 69, 78
1, 51526, Note_on_c, 0, 65, 58
1, 51611, Note_on_c, 0, 65, 0
1, 51611, Note_on_c, 0, 69, 0
1, 51697, Note_on_c, 0, 81, 78
1, 51697, Note_on_c, 0, 50, 59
1, 51860, Note_on_c, 0, 50, 0
1, 51860, Note_on_c, 0, 81, 0
1, 51860, Note_on_c, 0, 79, 73
1, 51863, Note_on_c, 0, 59, 53
1, 51944, Note_on_c, 0, 59, 0
1, 51944, Note_on_c, 0, 79, 0
1, 52028, Note_on_c, 0, 79, 76
1, 52028, Note_on_c, 0, 53, 53
1, 52112, Note_on_c, 0, 53, 0
1, 52112, Note_on_c, 0, 79, 0
1, 52195, Note_on_c, 0, 79, 73
1, 52195, Note_on_c, 0, 59, 54
1, 52279, Note_on_c, 0, 59, 0
1, 52279, Note_on_c, 0, 79, 0
1, 52363, Note_on_c, 0, 86, 77
1, 52363, Note_on_c, 0, 48, 53
1, 52391, Control_c, 0, 64, 127
1, 52443, Note_on_c, 0, 86, 0
1, 52443, Note_on_c, 0, 84, 68
1, 52524, Note_on_c, 0, 84, 0
1, 52524, Note_on_c, 0, 48, 0
1, 52524, Note_on_c, 0, 83, 69
1, 52527, Note_on_c, 0, 60, 52
1, 52604, Note_on_c, 0, 83, 0
1, 52604, Note_on_c, 0, 84, 69
1, 52685, Note_on_c, 0, 84, 0
1, 52685, Note_on_c, 0, 60, 0
1, 52685, Note_on_c, 0, 79, 73
1, 52688, Note_on_c, 0, 52, 53
1, 52709, Control_c, 0, 64, 0
1, 52768, Note_on_c, 0, 52, 0
1, 52768, Note_on_c, 0, 79, 0
1, 52851, Note_on_c, 0, 76, 70
1, 52851, Note_on_c, 0, 60, 53
1, 52937, Note_on_c, 0, 60, 0
1, 52937, Note_on_c, 0, 76, 0
1, 53022, Note_on_c, 0, 81, 78
1, 53022, Note_on_c, 0, 50, 59
1, 53186, Note_on_c, 0, 50, 0
1, 53186, Note_on_c, 0, 81, 0
1, 53186, Note_on_c, 0, 79, 73
1, 53189, Note_on_c, 0, 59, 53
1, 53269, Note_on_c, 0, 59, 0
1, 53269, Note_on_c, 0, 79, 0
1, 53353, Note_on_c, 0, 79, 76
1, 53353, Note_on_c, 0, 53, 53
1, 53437, Note_on_c, 0, 53, 0
1, 53437, Note_on_c, 0, 79, 0
1, 53521, Note_on_c, 0, 79, 73
1, 53521, Note_on_c, 0, 59, 54
1, 53604, Note_on_c, 0, 59, 0
1, 53604, Note_on_c, 0, 79, 0
1, 53688, Note_on_c, 0, 86, 77
1, 53688, Note_on_c, 0, 52, 53
1, 53688, Note_on_c, 0, 48, 53
1, 53691, Note_on_c, 0, 60, 53
1, 53716, Control_c, 0, 64, 127
1, 53769, Note_on_c, 0, 86, 0
1, 53769, Note_on_c, 0, 84, 68
1, 53849, Note_on_c, 0, 84, 0
1, 53849, Note_on_c, 0, 83, 69
1, 53930, Note_on_c, 0, 83, 0
1, 53930, Note_on_c, 0, 84, 69
1, 54010, Note_on_c, 0, 84, 0
1, 54010, Note_on_c, 0, 60, 0
1, 54010, Note_on_c, 0, 79, 73
1, 54013, Note_on_c, 0, 48, 0
1, 54013, Note_on_c, 0, 52, 0
1, 54035, Control_c, 0, 64, 0
1, 54094, Note_on_c, 0, 79, 0
1, 54177, Note_on_c, 0, 76, 70
1, 54262, Note_on_c, 0, 76, 0
1, 54347, Note_on_c, 0, 74, 77
1, 54376, Control_c, 0, 64, 127
1, 54428, Note_on_c, 0, 74, 0
1, 54428, Note_on_c, 0, 72, 68
1, 54509, Note_on_c, 0, 72, 0
1, 54509, Note_on_c, 0, 71, 69
1, 54589, Note_on_c, 0, 71, 0
1, 54589, Note_on_c, 0, 72, 69
1, 54670, Note_on_c, 0, 72, 0
1, 54670, Note_on_c, 0, 67, 73
1, 54694, Control_c, 0, 64, 0
1, 54753, Note_on_c, 0, 67, 0
1, 54836, Note_on_c, 0, 64, 70
1, 54921, Note_on_c, 0, 64, 0
1, 55007, Note_on_c, 0, 62, 77
1, 55087, Note_on_c, 0, 62, 0
1, 55087, Note_on_c, 0, 60, 68
1, 55168, Note_on_c, 0, 60, 0
1, 55168, Note_on_c, 0, 59, 69
1, 55248, Note_on_c, 0, 59, 0
1, 55248, Note_on_c, 0, 60, 69
1, 55329, Note_on_c, 0, 60, 0
1, 55329, Note_on_c, 0, 55, 73
1, 55412, Note_on_c, 0, 55, 0
1, 55495, Note_on_c, 0, 52, 70
1, 55583, Note_on_c, 0, 52, 0
1, 55671, Note_on_c, 0, 48, 70
1, 55758, Note_on_c, 0, 48, 0
1, 55846, Note_on_c, 0, 43, 63
1, 55934, Note_on_c, 0, 43, 0
1, 56022, Note_on_c, 0, 40, 67
1, 56110, Note_on_c, 0, 40, 0
1, 56198, Note_on_c, 0, 38, 71
1, 56287, Note_on_c, 0, 38, 0
1, 56377, Note_on_c, 0, 36, 74
1, 56465, Note_on_c, 0, 36, 0
1, 56553, Note_on_c, 0, 67, 76
1, 56553, Note_on_c, 0, 64, 76
1, 56553, Note_on_c, 0, 72, 76
1, 56556, Note_on_c, 0, 34, 70
1, 56646, Note_on_c, 0, 72, 0
1, 56646, Note_on_c, 0, 67, 0
1, 56646, Note_on_c, 0, 64, 0
1, 56649, Note_on_c, 0, 34, 0
1, 56741, Note_on_c, 0, 64, 76
1, 56741, Note_on_c, 0, 72, 76
1, 56741, Note_on_c, 0, 69, 76
1, 56744, Note_on_c, 0, 33, 67
1, 56836, Note_on_c, 0, 69, 0
1, 56836, Note_on_c, 0, 64, 0
1, 56836, Note_on_c, 0, 72, 0
1, 56839, Note_on_c, 0, 33, 0
1, 56932, Note_on_c, 0, 64, 76
1, 56932, Note_on_c, 0, 70, 76
1, 56932, Note_on_c, 0, 72, 76
1, 56935, Note_on_c, 0, 31, 63
1, 57030, Note_on_c, 0, 72, 0
1, 57030, Note_on_c, 0, 64, 0
1, 57030, Note_on_c, 0, 70, 0
1, 57033, Note_on_c, 0, 31, 0
1, 57128, Note_on_c, 0, 72, 76
1, 57128, Control_c, 0, 64, 127
1, 57227, Note_on_c, 0, 69, 58
1, 57323, Note_on_c, 0, 69, 0
1, 57323, Note_on_c, 0, 65, 57
1, 57323, Note_on_c, 0, 29, 57
1, 57417, Note_on_c, 0, 29, 0
1, 57417, Note_on_c, 0, 65, 0
1, 57417, Note_on_c, 0, 69, 57
1, 57492, Control_c, 0, 64, 0
1, 57508, Note_on_c, 0, 69, 0
1, 57508, Note_on_c, 0, 72, 0
1, 57508, Note_on_c, 0, 77, 77
1, 57528, Control_c, 0, 64, 127
1, 57596, Note_on_c, 0, 69, 63
1, 57682, Note_on_c, 0, 69, 0
1, 57682, Note_on_c, 0, 65, 63
1, 57682, Note_on_c, 0, 41, 57
1, 57769, Note_on_c, 0, 41, 0
1, 57769, Note_on_c, 0, 65, 0
1, 57769, Note_on_c, 0, 69, 63
1, 57856, Note_on_c, 0, 69, 0
1, 57856, Note_on_c, 0, 77, 0
1, 57856, Note_on_c, 0, 72, 76
1, 57859, Note_on_c, 0, 76, 76
1, 57859, Control_c, 0, 64, 0
1, 57890, Control_c, 0, 64, 127
1, 57944, Note_on_c, 0, 72, 0
1, 57944, Note_on_c, 0, 69, 62
1, 58030, Note_on_c, 0, 69, 0
1, 58030, Note_on_c, 0, 64, 62
1, 58030, Note_on_c, 0, 45, 57
1, 58117, Note_on_c, 0, 45, 0
1, 58117, Note_on_c, 0, 64, 0
1, 58117, Note_on_c, 0, 69, 62
1, 58202, Note_on_c, 0, 69, 0
1, 58202, Note_on_c, 0, 76, 0
1, 58202, Note_on_c, 0, 70, 75
1, 58205, Note_on_c, 0, 74, 75
1, 58223, Control_c, 0, 64, 0
1, 58259, Control_c, 0, 64, 127
1, 58287, Note_on_c, 0, 70, 0
1, 58287, Note_on_c, 0, 65, 58
1, 58373, Note_on_c, 0, 65, 0
1, 58373, Note_on_c, 0, 62, 58
1, 58373, Note_on_c, 0, 46, 57
1, 58460, Note_on_c, 0, 46, 0
1, 58460, Note_on_c, 0, 62, 0
1, 58460, Note_on_c, 0, 65, 58
1, 58546, Note_on_c, 0, 65, 0
1, 58546, Note_on_c, 0, 74, 0
1, 58546, Note_on_c, 0, 69, 75
1, 58549, Note_on_c, 0, 74, 75
1, 58549, Control_c, 0, 64, 0
1, 58592, Control_c, 0, 64, 127
1, 58633, Note_on_c, 0, 69, 0
1, 58633, Note_on_c, 0, 65, 59
1, 58719, Note_on_c, 0, 65, 0
1, 58719, Note_on_c, 0, 62, 59
1, 58719, Note_on_c, 0, 50, 57
1, 58805, Note_on_c, 0, 62, 0
1, 58805, Note_on_c, 0, 65, 59
1, 58890, Note_on_c, 0, 65, 0
1, 58890, Note_on_c, 0, 74, 0
1, 58890, Note_on_c, 0, 69, 73
1, 58893, Note_on_c, 0, 50, 0
1, 58893, Note_on_c, 0, 72, 73
1, 58893, Control_c, 0, 64, 0
1, 58925, Control_c, 0, 64, 127
1, 58975, Note_on_c, 0, 69, 0
1, 58975, Note_on_c, 0, 65, 59
1, 59060, Note_on_c, 0, 65, 0
1, 59060, Note_on_c, 0, 60, 59
1, 59060, Note_on_c, 0, 53, 57
1, 59146, Note_on_c, 0, 60, 0
1, 59146, Note_on_c, 0, 65, 59
1, 59232, Note_on_c, 0, 65, 0
1, 59232, Note_on_c, 0, 72, 0
1, 59232, Note_on_c, 0, 69, 74
1, 59235, Note_on_c, 0, 53, 0
1, 59235, Note_on_c, 0, 72, 74
1, 59235, Control_c, 0, 64, 0
1, 59281, Control_c, 0, 64, 127
1, 59317, Note_on_c, 0, 69, 0
1, 59317, Note_on_c, 0, 64, 60
1, 59402, Note_on_c, 0, 64, 0
1, 59402, Note_on_c, 0, 60, 60
1, 59402, Note_on_c, 0, 57, 57
1, 59486, Note_on_c, 0, 60, 0
1, 59486, Note_on_c, 0, 64, 60
1, 59571, Note_on_c, 0, 64, 0
1, 59571, Note_on_c, 0, 72, 0
1, 59571, Note_on_c, 0, 67, 73
1, 59574, Note_on_c, 0, 57, 0
1, 59574, Note_on_c, 0, 70, 73
1, 59591, Control_c, 0, 64, 0
1, 59628, Control_c, 0, 64, 127
1, 59657, Note_on_c, 0, 67, 0
1, 59657, Note_on_c, 0, 64, 58
1, 59744, Note_on_c, 0, 64, 0
1, 59744, Note_on_c, 0, 58, 58
1, 59744, Note_on_c, 0, 36, 57
1, 59830, Note_on_c, 0, 58, 0
1, 59830, Note_on_c, 0, 64, 58
1, 59915, Note_on_c, 0, 64, 0
1, 59915, Note_on_c, 0, 70, 0
1, 59915, Note_on_c, 0, 67, 74
1, 59918, Note_on_c, 0, 36, 0
1, 59918, Note_on_c, 0, 70, 74
1, 59918, Control_c, 0, 64, 0
1, 59955, Control_c, 0, 64, 127
1, 60000, Note_on_c, 0, 67, 0
1, 60000, Note_on_c, 0, 62, 59
1, 60085, Note_on_c, 0, 62, 0
1, 60085, Note_on_c, 0, 58, 59
1, 60085, Note_on_c, 0, 38, 57
1, 60170, Note_on_c, 0, 58, 0
1, 60170, Note_on_c, 0, 62, 59
1, 60255, Note_on_c, 0, 62, 0
1, 60255, Note_on_c, 0, 70, 0
1, 60255, Note_on_c, 0, 65, 73
1, 60258, Note_on_c, 0, 38, 0
1, 60258, Note_on_c, 0, 69, 73
1, 60275, Control_c, 0, 64, 0
1, 60331, Control_c, 0, 64, 127
1, 60341, Note_on_c, 0, 65, 0
1, 60341, Note_on_c, 0, 62, 59
1, 60426, Note_on_c, 0, 62, 0
1, 60426, Note_on_c, 0, 57, 59
1, 60426, Note_on_c, 0, 41, 57
1, 60512, Note_on_c, 0, 57, 0
1, 60512, Note_on_c, 0, 62, 59
1, 60599, Note_on_c, 0, 62, 0
1, 60599, Note_on_c, 0, 69, 0
1, 60599, Note_on_c, 0, 64, 72
1, 60602, Note_on_c, 0, 41, 0
1, 60602, Note_on_c, 0, 69, 72
1, 60602, Control_c, 0, 64, 0
1, 60628, Control_c, 0, 64, 127
1, 60686, Note_on_c, 0, 64, 0
1, 60686, Note_on_c, 0, 61, 60
1, 60773, Note_on_c, 0, 61, 0
1, 60773, Note_on_c, 0, 57, 60
1, 60773, Note_on_c, 0, 45, 57
1, 60859, Note_on_c, 0, 57, 0
1, 60859, Note_on_c, 0, 61, 60
1, 60946, Note_on_c, 0, 61, 0
1, 60946, Note_on_c, 0, 69, 0
1, 60946, Note_on_c, 0, 67, 71
1, 60949, Note_on_c, 0, 45, 0
1, 60986, Control_c, 0, 64, 0
1, 61024, Control_c, 0, 64, 127
1, 61031, Note_on_c, 0, 64, 59
1, 61117, Note_on_c, 0, 64, 0
1, 61117, Note_on_c, 0, 57, 59
1, 61117, Note_on_c, 0, 49, 57
1, 61204, Note_on_c, 0, 57, 0
1, 61204, Note_on_c, 0, 64, 59
1, 61290, Note_on_c, 0, 64, 0
1, 61290, Note_on_c, 0, 67, 0
1, 61290, Note_on_c, 0, 67, 72
1, 61293, Note_on_c, 0, 49, 0
1, 61293, Control_c, 0, 64, 0
1, 61335, Control_c, 0, 64, 127
1, 61376, Note_on_c, 0, 64, 62
1, 61462, Note_on_c, 0, 64, 0
1, 61462, Note_on_c, 0, 57, 66
1, 61462, Note_on_c, 0, 50, 57
1, 61547, Note_on_c, 0, 50, 0
1, 61547, Note_on_c, 0, 57, 0
1, 61547, Note_on_c, 0, 64, 69
1, 61633, Note_on_c, 0, 64, 0
1, 61633, Note_on_c, 0, 67, 0
1, 61633, Note_on_c, 0, 65, 76
1, 61636, Note_on_c, 0, 52, 57
1, 61690, Control_c, 0, 64, 0
1, 61718, Note_on_c, 0, 52, 0
1, 61718, Note_on_c, 0, 62, 63
1, 61722, Control_c, 0, 64, 127
1, 61803, Note_on_c, 0, 62, 0
1, 61803, Note_on_c, 0, 57, 63
1, 61803, Note_on_c, 0, 53, 57
1, 61888, Note_on_c, 0, 53, 0
1, 61888, Note_on_c, 0, 57, 0
1, 61888, Note_on_c, 0, 62, 63
1, 61973, Note_on_c, 0, 62, 0
1, 61973, Note_on_c, 0, 65, 0
1, 61973, Note_on_c, 0, 64, 73
1, 61976, Control_c, 0, 64, 0
1, 61976, Note_on_c, 0, 55, 57
1, 62022, Control_c, 0, 64, 127
1, 62058, Note_on_c, 0, 60, 59
1, 62143, Note_on_c, 0, 60, 0
1, 62143, Note_on_c, 0, 55, 0
1, 62143, Note_on_c, 0, 55, 59
1, 62227, Note_on_c, 0, 55, 0
1, 62227, Note_on_c, 0, 60, 59
1, 62312, Note_on_c, 0, 60, 0
1, 62312, Note_on_c, 0, 64, 0
1, 62312, Note_on_c, 0, 62, 71
1, 62315, Note_on_c, 0, 43, 57
1, 62340, Control_c, 0, 64, 0
1, 62377, Control_c, 0, 64, 127
1, 62397, Note_on_c, 0, 59, 57
1, 62482, Note_on_c, 0, 59, 0
1, 62482, Note_on_c, 0, 43, 0
1, 62482, Note_on_c, 0, 53, 57
1, 62567, Note_on_c, 0, 53, 0
1, 62567, Note_on_c, 0, 59, 57
1, 62652, Note_on_c, 0, 59, 0
1, 62652, Note_on_c, 0, 62, 0
1, 62652, Control_c, 0, 64, 0
1, 62655, Note_on_c, 0, 52, 57
1, 62655, Note_on_c, 0, 36, 57
1, 62655, Note_on_c, 0, 48, 57
1, 62658, Note_on_c, 0, 60, 70
1, 62737, Note_on_c, 0, 60, 0
1, 62737, Note_on_c, 0, 52, 0
1, 62737, Note_on_c, 0, 36, 0
1, 62740, Note_on_c, 0, 48, 0
1, 62823, Note_on_c, 0, 55, 63
1, 62910, Note_on_c, 0, 55, 0
1, 62996, Note_on_c, 0, 52, 67
1, 63083, Note_on_c, 0, 52, 0
1, 63170, Note_on_c, 0, 50, 71
1, 63257, Note_on_c, 0, 50, 0
1, 63345, Note_on_c, 0, 48, 74
1, 63430, Note_on_c, 0, 48, 0
1, 63516, Note_on_c, 0, 64, 76
1, 63516, Note_on_c, 0, 67, 76
1, 63516, Note_on_c, 0, 72, 76
1, 63519, Note_on_c, 0, 46, 70
1, 63606, Note_on_c, 0, 72, 0
1, 63606, Note_on_c, 0, 64, 0
1, 63606, Note_on_c, 0, 67, 0
1, 63609, Note_on_c, 0, 46, 0
1, 63698, Note_on_c, 0, 64, 76
1, 63698, Note_on_c, 0, 69, 76
1, 63698, Note_on_c, 0, 72, 76
1, 63701, Note_on_c, 0, 45, 67
1, 63791, Note_on_c, 0, 72, 0
1, 63791, Note_on_c, 0, 64, 0
1, 63791, Note_on_c, 0, 69, 0
1, 63794, Note_on_c, 0, 45, 0
1, 63885, Note_on_c, 0, 64, 76
1, 63885, Note_on_c, 0, 70, 76
1, 63885, Note_on_c, 0, 72, 76
1, 63888, Note_on_c, 0, 43, 63
1, 63980, Note_on_c, 0, 72, 0
1, 63980, Note_on_c, 0, 64, 0
1, 63980, Note_on_c, 0, 70, 0
1, 63983, Note_on_c, 0, 43, 0
1, 64077, Note_on_c, 0, 72, 76
1, 64077, Control_c, 0, 64, 127
1, 64173, Note_on_c, 0, 69, 61
1, 64267, Note_on_c, 0, 69, 0
1, 64267, Note_on_c, 0, 65, 61
1, 64267, Note_on_c, 0, 29, 57
1, 64359, Note_on_c, 0, 29, 0
1, 64359, Note_on_c, 0, 65, 0
1, 64359, Note_on_c, 0, 69, 61
1, 64448, Note_on_c, 0, 69, 0
1, 64448, Note_on_c, 0, 72, 0
1, 64448, Note_on_c, 0, 77, 77
1, 64451, Control_c, 0, 64, 0
1, 64474, Control_c, 0, 64, 127
1, 64535, Note_on_c, 0, 69, 64
1, 64622, Note_on_c, 0, 69, 0
1, 64622, Note_on_c, 0, 65, 64
1, 64622, Note_on_c, 0, 41, 57
1, 64709, Note_on_c, 0, 41, 0
1, 64709, Note_on_c, 0, 65, 0
1, 64709, Note_on_c, 0, 69, 66
1, 64796, Note_on_c, 0, 69, 0
1, 64796, Note_on_c, 0, 77, 0
1, 64796, Note_on_c, 0, 72, 76
1, 64799, Note_on_c, 0, 76, 76
1, 64799, Control_c, 0, 64, 0
1, 64829, Control_c, 0, 64, 127
1, 64883, Note_on_c, 0, 72, 0
1, 64883, Note_on_c, 0, 69, 62
1, 64970, Note_on_c, 0, 69, 0
1, 64970, Note_on_c, 0, 64, 62
1, 64970, Note_on_c, 0, 45, 57
1, 65056, Note_on_c, 0, 45, 0
1, 65056, Note_on_c, 0, 64, 0
1, 65056, Note_on_c, 0, 69, 62
1, 65142, Note_on_c, 0, 69, 0
1, 65142, Note_on_c, 0, 76, 0
1, 65142, Note_on_c, 0, 70, 75
1, 65145, Note_on_c, 0, 74, 75
1, 65162, Control_c, 0, 64, 0
1, 65199, Control_c, 0, 64, 127
1, 65227, Note_on_c, 0, 70, 0
1, 65227, Note_on_c, 0, 65, 58
1, 65313, Note_on_c, 0, 65, 0
1, 65313, Note_on_c, 0, 62, 58
1, 65313, Note_on_c, 0, 46, 57
1, 65399, Note_on_c, 0, 46, 0
1, 65399, Note_on_c, 0, 62, 0
1, 65399, Note_on_c, 0, 65, 58
1, 65486, Note_on_c, 0, 65, 0
1, 65486, Note_on_c, 0, 74, 0
1, 65486, Note_on_c, 0, 69, 72
1, 65489, Note_on_c, 0, 74, 72
1, 65489, Control_c, 0, 64, 0
1, 65532, Control_c, 0, 64, 127
1, 65572, Note_on_c, 0, 69, 0
1, 65572, Note_on_c, 0, 65, 61
1, 65659, Note_on_c, 0, 65, 0
1, 65659, Note_on_c, 0, 62, 61
1, 65659, Note_on_c, 0, 50, 57
1, 65744, Note_on_c, 0, 62, 0
1, 65744, Note_on_c, 0, 65, 61
1, 65830, Note_on_c, 0, 65, 0
1, 65830, Note_on_c, 0, 74, 0
1, 65830, Note_on_c, 0, 69, 73
1, 65833, Note_on_c, 0, 50, 0
1, 65833, Note_on_c, 0, 72, 73
1, 65833, Control_c, 0, 64, 0
1, 65864, Control_c, 0, 64, 127
1, 65915, Note_on_c, 0, 69, 0
1, 65915, Note_on_c, 0, 65, 59
1, 66000, Note_on_c, 0, 65, 0
1, 66000, Note_on_c, 0, 60, 59
1, 66000, Note_on_c, 0, 53, 57
1, 66085, Note_on_c, 0, 60, 0
1, 66085, Note_on_c, 0, 65, 59
1, 66171, Note_on_c, 0, 65, 0
1, 66171, Note_on_c, 0, 72, 0
1, 66171, Note_on_c, 0, 69, 73
1, 66174, Note_on_c, 0, 53, 0
1, 66174, Note_on_c, 0, 72, 73
1, 66174, Control_c, 0, 64, 0
1, 66220, Control_c, 0, 64, 127
1, 66256, Note_on_c, 0, 69, 0
1, 66256, Note_on_c, 0, 64, 60
1, 66341, Note_on_c, 0, 64, 0
1, 66341, Note_on_c, 0, 60, 60
1, 66341, Note_on_c, 0, 57, 57
1, 66426, Note_on_c, 0, 60, 0
1, 66426, Note_on_c, 0, 64, 61
1, 66510, Note_on_c, 0, 64, 0
1, 66510, Note_on_c, 0, 72, 0
1, 66510, Note_on_c, 0, 67, 73
1, 66513, Note_on_c, 0, 57, 0
1, 66513, Note_on_c, 0, 70, 73
1, 66531, Control_c, 0, 64, 0
1, 66569, Control_c, 0, 64, 127
1, 66598, Note_on_c, 0, 67, 0
1, 66598, Note_on_c, 0, 64, 59
1, 66685, Note_on_c, 0, 64, 0
1, 66685, Note_on_c, 0, 58, 59
1, 66685, Note_on_c, 0, 36, 57
1, 66773, Note_on_c, 0, 58, 0
1, 66773, Note_on_c, 0, 64, 59
1, 66858, Note_on_c, 0, 64, 0
1, 66858, Note_on_c, 0, 70, 0
1, 66858, Note_on_c, 0, 67, 74
1, 66861, Note_on_c, 0, 36, 0
1, 66861, Note_on_c, 0, 70, 74
1, 66861, Control_c, 0, 64, 0
1, 66898, Control_c, 0, 64, 127
1, 66943, Note_on_c, 0, 67, 0
1, 66943, Note_on_c, 0, 62, 60
1, 67028, Note_on_c, 0, 62, 0
1, 67028, Note_on_c, 0, 58, 60
1, 67028, Note_on_c, 0, 38, 57
1, 67113, Note_on_c, 0, 58, 0
1, 67113, Note_on_c, 0, 62, 60
1, 67198, Note_on_c, 0, 62, 0
1, 67198, Note_on_c, 0, 70, 0
1, 67198, Note_on_c, 0, 65, 73
1, 67201, Note_on_c, 0, 38, 0
1, 67201, Note_on_c, 0, 69, 73
1, 67218, Control_c, 0, 64, 0
1, 67274, Control_c, 0, 64, 127
1, 67284, Note_on_c, 0, 65, 0
1, 67284, Note_on_c, 0, 62, 60
1, 67370, Note_on_c, 0, 62, 0
1, 67370, Note_on_c, 0, 57, 60
1, 67370, Note_on_c, 0, 41, 57
1, 67456, Note_on_c, 0, 57, 0
1, 67456, Note_on_c, 0, 62, 60
1, 67542, Note_on_c, 0, 62, 0
1, 67542, Note_on_c, 0, 69, 0
1, 67542, Note_on_c, 0, 64, 72
1, 67545, Note_on_c, 0, 41, 0
1, 67545, Note_on_c, 0, 69, 72
1, 67545, Control_c, 0, 64, 0
1, 67571, Control_c, 0, 64, 127
1, 67629, Note_on_c, 0, 64, 0
1, 67629, Note_on_c, 0, 61, 60
1, 67716, Note_on_c, 0, 61, 0
1, 67716, Note_on_c, 0, 57, 60
1, 67716, Note_on_c, 0, 45, 57
1, 67802, Note_on_c, 0, 57, 0
1, 67802, Note_on_c, 0, 61, 60
1, 67889, Note_on_c, 0, 61, 0
1, 67889, Note_on_c, 0, 69, 0
1, 67889, Note_on_c, 0, 67, 71
1, 67892, Note_on_c, 0, 45, 0
1, 67929, Control_c, 0, 64, 0
1, 67967, Control_c, 0, 64, 127
1, 67974, Note_on_c, 0, 64, 61
1, 68061, Note_on_c, 0, 64, 0
1, 68061, Note_on_c, 0, 57, 61
1, 68061, Note_on_c, 0, 49, 57
1, 68149, Note_on_c, 0, 57, 0
1, 68149, Note_on_c, 0, 64, 61
1, 68238, Note_on_c, 0, 64, 0
1, 68238, Note_on_c, 0, 67, 0
1, 68238, Note_on_c, 0, 67, 72
1, 68241, Note_on_c, 0, 49, 0
1, 68241, Control_c, 0, 64, 0
1, 68283, Control_c, 0, 64, 127
1, 68324, Note_on_c, 0, 64, 62
1, 68410, Note_on_c, 0, 64, 0
1, 68410, Note_on_c, 0, 57, 66
1, 68410, Note_on_c, 0, 50, 57
1, 68495, Note_on_c, 0, 50, 0
1, 68495, Note_on_c, 0, 57, 0
1, 68495, Note_on_c, 0, 64, 69
1, 68581, Note_on_c, 0, 64, 0
1, 68581, Note_on_c, 0, 67, 0
1, 68581, Note_on_c, 0, 66, 76
1, 68584, Note_on_c, 0, 52, 57
1, 68637, Control_c, 0, 64, 0
1, 68666, Note_on_c, 0, 52, 0
1, 68666, Note_on_c, 0, 62, 67
1, 68670, Control_c, 0, 64, 127
1, 68751, Note_on_c, 0, 62, 0
1, 68751, Note_on_c, 0, 57, 68
1, 68751, Note_on_c, 0, 54, 57
1, 68836, Note_on_c, 0, 54, 0
1, 68836, Note_on_c, 0, 57, 0
1, 68836, Note_on_c, 0, 62, 68
1, 68920, Note_on_c, 0, 62, 0
1, 68920, Note_on_c, 0, 66, 0
1, 68920, Note_on_c, 0, 64, 73
1, 68923, Control_c, 0, 64, 0
1, 68923, Note_on_c, 0, 43, 57
1, 68969, Control_c, 0, 64, 127
1, 69005, Note_on_c, 0, 62, 64
1, 69090, Note_on_c, 0, 62, 0
1, 69090, Note_on_c, 0, 43, 0
1, 69090, Note_on_c, 0, 59, 62
1, 69175, Note_on_c, 0, 59, 0
1, 69175, Note_on_c, 0, 62, 60
1, 69260, Note_on_c, 0, 62, 0
1, 69260, Note_on_c, 0, 64, 0
1, 69260, Note_on_c, 0, 66, 69
1, 69263, Note_on_c, 0, 45, 57
1, 69289, Control_c, 0, 64, 0
1, 69325, Control_c, 0, 64, 127
1, 69346, Note_on_c, 0, 61, 57
1, 69433, Note_on_c, 0, 61, 0
1, 69433, Note_on_c, 0, 45, 0
1, 69433, Note_on_c, 0, 57, 57
1, 69521, Note_on_c, 0, 57, 0
1, 69521, Note_on_c, 0, 61, 57
1, 69611, Note_on_c, 0, 61, 0
1, 69611, Note_on_c, 0, 66, 0
1, 69611, Note_on_c, 0, 62, 67
1, 69614, Control_c, 0, 64, 0
1, 69652, Control_c, 0, 64, 127
1, 69706, Note_on_c, 0, 57, 59
1, 69794, Note_on_c, 0, 57, 0
1, 69794, Note_on_c, 0, 54, 59
1, 69794, Note_on_c, 0, 50, 57
1, 69881, Note_on_c, 0, 54, 0
1, 69881, Note_on_c, 0, 57, 59
1, 69969, Note_on_c, 0, 57, 0
1, 69969, Note_on_c, 0, 62, 0
1, 69969, Note_on_c, 0, 64, 73
1, 69972, Note_on_c, 0, 50, 0
1, 69989, Control_c, 0, 64, 0
1, 70031, Control_c, 0, 64, 127
1, 70055, Note_on_c, 0, 59, 59
1, 70142, Note_on_c, 0, 59, 0
1, 70142, Note_on_c, 0, 55, 59
1, 70142, Note_on_c, 0, 43, 57
1, 70228, Note_on_c, 0, 55, 0
1, 70228, Note_on_c, 0, 59, 59
1, 70313, Note_on_c, 0, 59, 0
1, 70313, Note_on_c, 0, 64, 0
1, 70313, Note_on_c, 0, 66, 73
1, 70316, Note_on_c, 0, 43, 0
1, 70316, Control_c, 0, 64, 0
1, 70353, Control_c, 0, 64, 127
1, 70397, Note_on_c, 0, 60, 59
1, 70482, Note_on_c, 0, 60, 0
1, 70482, Note_on_c, 0, 57, 60
1, 70482, Note_on_c, 0, 38, 57
1, 70566, Note_on_c, 0, 57, 0
1, 70566, Note_on_c, 0, 60, 60
1, 70651, Note_on_c, 0, 60, 0
1, 70651, Note_on_c, 0, 66, 0
1, 70651, Note_on_c, 0, 66, 76
1, 70654, Note_on_c, 0, 38, 0
1, 70696, Control_c, 0, 64, 0
1, 70726, Control_c, 0, 64, 127
1, 70736, Note_on_c, 0, 60, 62
1, 70822, Note_on_c, 0, 60, 0
1, 70822, Note_on_c, 0, 57, 62
1, 70822, Note_on_c, 0, 38, 60
1, 70908, Note_on_c, 0, 57, 0
1, 70908, Note_on_c, 0, 60, 63
1, 70994, Note_on_c, 0, 60, 0
1, 70994, Note_on_c, 0, 66, 0
1, 70994, Note_on_c, 0, 66, 80
1, 70997, Note_on_c, 0, 38, 0
1, 70997, Control_c, 0, 64, 0
1, 71022, Control_c, 0, 64, 127
1, 71077, Note_on_c, 0, 60, 63
1, 71161, Note_on_c, 0, 60, 0
1, 71161, Note_on_c, 0, 57, 63
1, 71161, Note_on_c, 0, 31, 60
1, 71245, Note_on_c, 0, 57, 0
1, 71245, Note_on_c, 0, 60, 62
1, 71329, Note_on_c, 0, 60, 0
1, 71329, Note_on_c, 0, 66, 0
1, 71329, Note_on_c, 0, 67, 76
1, 71332, Note_on_c, 0, 31, 0
1, 71369, Control_c, 0, 64, 0
1, 71397, Control_c, 0, 64, 127
1, 71413, Note_on_c, 0, 62, 61
1, 71498, Note_on_c, 0, 62, 0
1, 71498, Note_on_c, 0, 59, 60
1, 71498, Note_on_c, 0, 31, 58
1, 71582, Note_on_c, 0, 59, 0
1, 71582, Note_on_c, 0, 62, 59
1, 71667, Note_on_c, 0, 62, 0
1, 71667, Note_on_c, 0, 67, 0
1, 71667, Note_on_c, 0, 66, 73
1, 71670, Note_on_c, 0, 31, 0
1, 71670, Control_c, 0, 64, 0
1, 71715, Control_c, 0, 64, 127
1, 71751, Note_on_c, 0, 62, 59
1, 71836, Note_on_c, 0, 62, 0
1, 71836, Note_on_c, 0, 57, 59
1, 71836, Note_on_c, 0, 33, 57
1, 71920, Note_on_c, 0, 57, 0
1, 71920, Note_on_c, 0, 62, 59
1, 72005, Note_on_c, 0, 62, 0
1, 72005, Note_on_c, 0, 66, 0
1, 72005, Note_on_c, 0, 64, 73
1, 72008, Note_on_c, 0, 33, 0
1, 72049, Control_c, 0, 64, 0
1, 72081, Control_c, 0, 64, 127
1, 72089, Note_on_c, 0, 61, 59
1, 72174, Note_on_c, 0, 61, 0
1, 72174, Note_on_c, 0, 57, 59
1, 72174, Note_on_c, 0, 33, 57
1, 72260, Note_on_c, 0, 57, 0
1, 72260, Note_on_c, 0, 61, 59
1, 72346, Note_on_c, 0, 61, 0
1, 72346, Note_on_c, 0, 64, 0
1, 72346, Note_on_c, 0, 66, 71
1, 72349, Note_on_c, 0, 33, 0
1, 72349, Control_c, 0, 64, 0
1, 72367, Control_c, 0, 64, 0
1, 72386, Control_c, 0, 64, 127
1, 72439, Note_on_c, 0, 62, 59
1, 72526, Note_on_c, 0, 62, 0
1, 72526, Note_on_c, 0, 60, 59
1, 72526, Note_on_c, 0, 38, 57
1, 72612, Note_on_c, 0, 60, 0
1, 72612, Note_on_c, 0, 62, 59
1, 72698, Note_on_c, 0, 62, 0
1, 72698, Note_on_c, 0, 66, 0
1, 72698, Note_on_c, 0, 67, 73
1, 72701, Note_on_c, 0, 38, 0
1, 72719, Control_c, 0, 64, 0
1, 72759, Control_c, 0, 64, 127
1, 72784, Note_on_c, 0, 64, 59
1, 72869, Note_on_c, 0, 64, 0
1, 72869, Note_on_c, 0, 60, 59
1, 72869, Note_on_c, 0, 50, 57
1, 72954, Note_on_c, 0, 60, 0
1, 72954, Note_on_c, 0, 64, 59
1, 73039, Note_on_c, 0, 64, 0
1, 73039, Note_on_c, 0, 67, 0
1, 73039, Note_on_c, 0, 69, 73
1, 73042, Note_on_c, 0, 50, 0
1, 73042, Control_c, 0, 64, 0
1, 73078, Control_c, 0, 64, 127
1, 73123, Note_on_c, 0, 66, 59
1, 73207, Note_on_c, 0, 66, 0
1, 73207, Note_on_c, 0, 60, 60
1, 73207, Note_on_c, 0, 50, 57
1, 73291, Note_on_c, 0, 60, 0
1, 73291, Note_on_c, 0, 66, 60
1, 73375, Note_on_c, 0, 66, 0
1, 73375, Note_on_c, 0, 69, 0
1, 73375, Note_on_c, 0, 69, 76
1, 73378, Note_on_c, 0, 50, 0
1, 73421, Control_c, 0, 64, 0
1, 73451, Control_c, 0, 64, 127
1, 73461, Note_on_c, 0, 66, 62
1, 73548, Note_on_c, 0, 66, 0
1, 73548, Note_on_c, 0, 60, 62
1, 73548, Note_on_c, 0, 50, 60
1, 73634, Note_on_c, 0, 60, 0
1, 73634, Note_on_c, 0, 66, 63
1, 73720, Note_on_c, 0, 66, 0
1, 73720, Note_on_c, 0, 69, 0
1, 73720, Note_on_c, 0, 69, 80
1, 73723, Note_on_c, 0, 50, 0
1, 73723, Control_c, 0, 64, 0
1, 73748, Control_c, 0, 64, 127
1, 73805, Note_on_c, 0, 66, 63
1, 73891, Note_on_c, 0, 66, 0
1, 73891, Note_on_c, 0, 60, 63
1, 73891, Note_on_c, 0, 43, 60
1, 73976, Note_on_c, 0, 60, 0
1, 73976, Note_on_c, 0, 66, 62
1, 74062, Note_on_c, 0, 66, 0
1, 74062, Note_on_c, 0, 69, 0
1, 74062, Note_on_c, 0, 71, 76
1, 74065, Note_on_c, 0, 43, 0
1, 74102, Control_c, 0, 64, 0
1, 74131, Control_c, 0, 64, 127
1, 74147, Note_on_c, 0, 67, 61
1, 74232, Note_on_c, 0, 67, 0
1, 74232, Note_on_c, 0, 59, 60
1, 74232, Note_on_c, 0, 43, 58
1, 74317, Note_on_c, 0, 59, 0
1, 74317, Note_on_c, 0, 67, 59
1, 74401, Note_on_c, 0, 67, 0
1, 74401, Note_on_c, 0, 71, 0
1, 74401, Note_on_c, 0, 69, 73
1, 74404, Note_on_c, 0, 43, 0
1, 74404, Control_c, 0, 64, 0
1, 74450, Control_c, 0, 64, 127
1, 74486, Note_on_c, 0, 66, 59
1, 74571, Note_on_c, 0, 66, 0
1, 74571, Note_on_c, 0, 62, 59
1, 74571, Note_on_c, 0, 45, 57
1, 74656, Note_on_c, 0, 62, 0
1, 74656, Note_on_c, 0, 66, 59
1, 74741, Note_on_c, 0, 66, 0
1, 74741, Note_on_c, 0, 69, 0
1, 74741, Note_on_c, 0, 69, 73
1, 74744, Note_on_c, 0, 45, 0
1, 74785, Control_c, 0, 64, 0
1, 74818, Control_c, 0, 64, 127
1, 74825, Note_on_c, 0, 64, 59
1, 74910, Note_on_c, 0, 64, 0
1, 74910, Note_on_c, 0, 61, 59
1, 74910, Note_on_c, 0, 45, 57
1, 74999, Note_on_c, 0, 61, 0
1, 74999, Note_on_c, 0, 64, 59
1, 75088, Note_on_c, 0, 64, 0
1, 75088, Note_on_c, 0, 69, 0
1, 75088, Note_on_c, 0, 69, 66
1, 75091, Note_on_c, 0, 45, 0
1, 75091, Note_on_c, 0, 50, 53
1, 75091, Control_c, 0, 64, 0
1, 75109, Control_c, 0, 64, 0
1, 75128, Control_c, 0, 64, 127
1, 75182, Note_on_c, 0, 66, 55
1, 75271, Note_on_c, 0, 66, 0
1, 75271, Note_on_c, 0, 62, 55
1, 75359, Note_on_c, 0, 62, 0
1, 75359, Note_on_c, 0, 66, 55
1, 75447, Note_on_c, 0, 66, 0
1, 75447, Note_on_c, 0, 69, 0
1, 75447, Note_on_c, 0, 74, 63
1, 75450, Note_on_c, 0, 54, 53
1, 75468, Control_c, 0, 64, 0
1, 75509, Control_c, 0, 64, 127
1, 75533, Note_on_c, 0, 69, 55
1, 75620, Note_on_c, 0, 69, 0
1, 75620, Note_on_c, 0, 62, 55
1, 75706, Note_on_c, 0, 62, 0
1, 75706, Note_on_c, 0, 69, 55
1, 75792, Note_on_c, 0, 69, 0
1, 75792, Note_on_c, 0, 74, 0
1, 75792, Note_on_c, 0, 73, 68
1, 75795, Note_on_c, 0, 54, 0
1, 75795, Note_on_c, 0, 57, 53
1, 75795, Control_c, 0, 64, 0
1, 75832, Control_c, 0, 64, 127
1, 75877, Note_on_c, 0, 69, 55
1, 75963, Note_on_c, 0, 69, 0
1, 75963, Note_on_c, 0, 64, 56
1, 76049, Note_on_c, 0, 64, 0
1, 76049, Note_on_c, 0, 69, 56
1, 76134, Note_on_c, 0, 69, 0
1, 76134, Note_on_c, 0, 73, 0
1, 76134, Note_on_c, 0, 76, 64
1, 76137, Note_on_c, 0, 57, 0
1, 76137, Note_on_c, 0, 55, 56
1, 76180, Control_c, 0, 64, 0
1, 76211, Control_c, 0, 64, 127
1, 76221, Note_on_c, 0, 69, 58
1, 76308, Note_on_c, 0, 69, 0
1, 76308, Note_on_c, 0, 64, 57
1, 76395, Note_on_c, 0, 64, 0
1, 76395, Note_on_c, 0, 69, 57
1, 76480, Note_on_c, 0, 69, 0
1, 76480, Note_on_c, 0, 76, 0
1, 76480, Note_on_c, 0, 69, 63
1, 76483, Note_on_c, 0, 55, 0
1, 76483, Note_on_c, 0, 54, 56
1, 76483, Control_c, 0, 64, 0
1, 76509, Control_c, 0, 64, 127
1, 76566, Note_on_c, 0, 66, 56
1, 76651, Note_on_c, 0, 66, 0
1, 76651, Note_on_c, 0, 62, 56
1, 76737, Note_on_c, 0, 62, 0
1, 76737, Note_on_c, 0, 66, 56
1, 76822, Note_on_c, 0, 66, 0
1, 76822, Note_on_c, 0, 69, 0
1, 76822, Note_on_c, 0, 71, 63
1, 76825, Note_on_c, 0, 54, 0
1, 76825, Note_on_c, 0, 50, 0
1, 76825, Note_on_c, 0, 43, 54
1, 76828, Note_on_c, 0, 50, 54
1, 76864, Control_c, 0, 64, 0
1, 76892, Control_c, 0, 64, 127
1, 76909, Note_on_c, 0, 67, 55
1, 76996, Note_on_c, 0, 67, 0
1, 76996, Note_on_c, 0, 62, 55
1, 77083, Note_on_c, 0, 62, 0
1, 77083, Note_on_c, 0, 67, 55
1, 77169, Note_on_c, 0, 67, 0
1, 77169, Note_on_c, 0, 71, 0
1, 77169, Note_on_c, 0, 69, 64
1, 77172, Note_on_c, 0, 50, 0
1, 77172, Note_on_c, 0, 43, 0
1, 77172, Note_on_c, 0, 49, 53
1, 77175, Note_on_c, 0, 45, 53
1, 77175, Control_c, 0, 64, 0
1, 77218, Control_c, 0, 64, 127
1, 77255, Note_on_c, 0, 67, 55
1, 77340, Note_on_c, 0, 67, 0
1, 77340, Note_on_c, 0, 64, 55
1, 77426, Note_on_c, 0, 64, 0
1, 77426, Note_on_c, 0, 67, 55
1, 77512, Note_on_c, 0, 67, 0
1, 77512, Note_on_c, 0, 69, 0
1, 77512, Note_on_c, 0, 69, 62
1, 77515, Note_on_c, 0, 49, 0
1, 77515, Note_on_c, 0, 52, 53
1, 77557, Control_c, 0, 64, 0
1, 77590, Control_c, 0, 64, 127
1, 77598, Note_on_c, 0, 67, 55
1, 77683, Note_on_c, 0, 67, 0
1, 77683, Note_on_c, 0, 61, 55
1, 77769, Note_on_c, 0, 61, 0
1, 77769, Note_on_c, 0, 67, 55
1, 77856, Note_on_c, 0, 67, 0
1, 77856, Note_on_c, 0, 69, 0
1, 77856, Note_on_c, 0, 69, 66
1, 77859, Note_on_c, 0, 52, 0
1, 77859, Note_on_c, 0, 45, 0
1, 77859, Note_on_c, 0, 50, 53
1, 77862, Control_c, 0, 64, 0
1, 77877, Control_c, 0, 64, 0
1, 77896, Control_c, 0, 64, 127
1, 77951, Note_on_c, 0, 66, 55
1, 78039, Note_on_c, 0, 66, 0
1, 78039, Note_on_c, 0, 62, 55
1, 78127, Note_on_c, 0, 62, 0
1, 78127, Note_on_c, 0, 66, 55
1, 78215, Note_on_c, 0, 66, 0
1, 78215, Note_on_c, 0, 69, 0
1, 78215, Note_on_c, 0, 74, 63
1, 78218, Note_on_c, 0, 54, 53
1, 78235, Control_c, 0, 64, 0
1, 78276, Control_c, 0, 64, 127
1, 78300, Note_on_c, 0, 69, 55
1, 78385, Note_on_c, 0, 69, 0
1, 78385, Note_on_c, 0, 62, 55
1, 78470, Note_on_c, 0, 62, 0
1, 78470, Note_on_c, 0, 69, 55
1, 78555, Note_on_c, 0, 69, 0
1, 78555, Note_on_c, 0, 74, 0
1, 78555, Note_on_c, 0, 73, 68
1, 78558, Note_on_c, 0, 54, 0
1, 78558, Note_on_c, 0, 57, 53
1, 78558, Control_c, 0, 64, 0
1, 78595, Control_c, 0, 64, 127
1, 78640, Note_on_c, 0, 69, 55
1, 78725, Note_on_c, 0, 69, 0
1, 78725, Note_on_c, 0, 57, 0
1, 78725, Note_on_c, 0, 64, 56
1, 78728, Note_on_c, 0, 58, 50
1, 78810, Note_on_c, 0, 64, 0
1, 78810, Note_on_c, 0, 69, 56
1, 78895, Note_on_c, 0, 69, 0
1, 78895, Note_on_c, 0, 73, 0
1, 78895, Note_on_c, 0, 76, 64
1, 78898, Note_on_c, 0, 58, 0
1, 78898, Note_on_c, 0, 57, 53
1, 78941, Control_c, 0, 64, 0
1, 78971, Control_c, 0, 64, 127
1, 78981, Note_on_c, 0, 69, 58
1, 79067, Note_on_c, 0, 69, 0
1, 79067, Note_on_c, 0, 57, 0
1, 79067, Note_on_c, 0, 64, 57
1, 79070, Note_on_c, 0, 55, 51
1, 79152, Note_on_c, 0, 64, 0
1, 79152, Note_on_c, 0, 69, 57
1, 79237, Note_on_c, 0, 69, 0
1, 79237, Note_on_c, 0, 76, 0
1, 79237, Note_on_c, 0, 69, 64
1, 79240, Note_on_c, 0, 55, 0
1, 79240, Note_on_c, 0, 54, 56
1, 79240, Control_c, 0, 64, 0
1, 79266, Control_c, 0, 64, 127
1, 79324, Note_on_c, 0, 66, 56
1, 79411, Note_on_c, 0, 66, 0
1, 79411, Note_on_c, 0, 62, 56
1, 79498, Note_on_c, 0, 62, 0
1, 79498, Note_on_c, 0, 66, 56
1, 79584, Note_on_c, 0, 66, 0
1, 79584, Note_on_c, 0, 69, 0
1, 79584, Note_on_c, 0, 70, 63
1, 79587, Note_on_c, 0, 54, 0
1, 79587, Note_on_c, 0, 50, 0
1, 79587, Note_on_c, 0, 43, 54
1, 79590, Note_on_c, 0, 50, 54
1, 79625, Control_c, 0, 64, 0
1, 79654, Control_c, 0, 64, 127
1, 79671, Note_on_c, 0, 67, 55
1, 79757, Note_on_c, 0, 67, 0
1, 79757, Note_on_c, 0, 62, 55
1, 79844, Note_on_c, 0, 62, 0
1, 79844, Note_on_c, 0, 67, 55
1, 79930, Note_on_c, 0, 67, 0
1, 79930, Note_on_c, 0, 70, 0
1, 79930, Note_on_c, 0, 69, 63
1, 79933, Note_on_c, 0, 50, 0
1, 79933, Note_on_c, 0, 43, 0
1, 79933, Note_on_c, 0, 49, 53
1, 79936, Note_on_c, 0, 45, 53
1, 79936, Control_c, 0, 64, 0
1, 79980, Control_c, 0, 64, 127
1, 80016, Note_on_c, 0, 67, 55
1, 80102, Note_on_c, 0, 67, 0
1, 80102, Note_on_c, 0, 64, 55
1, 80188, Note_on_c, 0, 64, 0
1, 80188, Note_on_c, 0, 67, 55
1, 80274, Note_on_c, 0, 67, 0
1, 80274, Note_on_c, 0, 69, 0
1, 80274, Note_on_c, 0, 69, 62
1, 80277, Note_on_c, 0, 49, 0
1, 80277, Note_on_c, 0, 52, 53
1, 80319, Control_c, 0, 64, 0
1, 80351, Control_c, 0, 64, 127
1, 80359, Note_on_c, 0, 67, 55
1, 80445, Note_on_c, 0, 67, 0
1, 80445, Note_on_c, 0, 61, 55
1, 80531, Note_on_c, 0, 61, 0
1, 80531, Note_on_c, 0, 67, 55
1, 80617, Note_on_c, 0, 67, 0
1, 80617, Note_on_c, 0, 69, 0
1, 80617, Note_on_c, 0, 69, 68
1, 80620, Note_on_c, 0, 52, 0
1, 80620, Note_on_c, 0, 45, 0
1, 80620, Note_on_c, 0, 50, 56
1, 80623, Control_c, 0, 64, 0
1, 80646, Control_c, 0, 64, 127
1, 80704, Note_on_c, 0, 66, 55
1, 80791, Note_on_c, 0, 66, 0
1, 80791, Note_on_c, 0, 62, 55
1, 80878, Note_on_c, 0, 62, 0
1, 80878, Note_on_c, 0, 66, 55
1, 80965, Note_on_c, 0, 66, 0
1, 80965, Note_on_c, 0, 69, 0
1, 80965, Note_on_c, 0, 70, 61
1, 80968, Note_on_c, 0, 43, 52
1, 81006, Control_c, 0, 64, 0
1, 81035, Control_c, 0, 64, 127
1, 81052, Note_on_c, 0, 67, 53
1, 81138, Note_on_c, 0, 67, 0
1, 81138, Note_on_c, 0, 62, 52
1, 81225, Note_on_c, 0, 62, 0
1, 81225, Note_on_c, 0, 67, 52
1, 81312, Note_on_c, 0, 67, 0
1, 81312, Note_on_c, 0, 70, 0
1, 81312, Note_on_c, 0, 69, 60
1, 81315, Note_on_c, 0, 43, 0
1, 81315, Note_on_c, 0, 50, 0
1, 81315, Note_on_c, 0, 49, 50
1, 81318, Note_on_c, 0, 45, 50
1, 81318, Control_c, 0, 64, 0
1, 81361, Control_c, 0, 64, 127
1, 81398, Note_on_c, 0, 67, 52
1, 81484, Note_on_c, 0, 67, 0
1, 81484, Note_on_c, 0, 64, 52
1, 81570, Note_on_c, 0, 64, 0
1, 81570, Note_on_c, 0, 67, 52
1, 81655, Note_on_c, 0, 67, 0
1, 81655, Note_on_c, 0, 69, 0
1, 81655, Note_on_c, 0, 69, 58
1, 81658, Note_on_c, 0, 49, 0
1, 81658, Note_on_c, 0, 52, 50
1, 81700, Control_c, 0, 64, 0
1, 81733, Control_c, 0, 64, 127
1, 81741, Note_on_c, 0, 67, 52
1, 81827, Note_on_c, 0, 67, 0
1, 81827, Note_on_c, 0, 61, 52
1, 81913, Note_on_c, 0, 61, 0
1, 81913, Note_on_c, 0, 67, 52
1, 82001, Note_on_c, 0, 67, 0
1, 82001, Note_on_c, 0, 69, 0
1, 82001, Note_on_c, 0, 69, 60
1, 82004, Note_on_c, 0, 52, 0
1, 82004, Note_on_c, 0, 45, 0
1, 82004, Note_on_c, 0, 38, 50
1, 82007, Control_c, 0, 64, 0
1, 82051, Control_c, 0, 64, 127
1, 82088, Note_on_c, 0, 65, 52
1, 82175, Note_on_c, 0, 65, 0
1, 82175, Note_on_c, 0, 62, 52
1, 82261, Note_on_c, 0, 62, 0
1, 82261, Note_on_c, 0, 65, 52
1, 82346, Note_on_c, 0, 65, 0
1, 82346, Note_on_c, 0, 69, 0
1, 82346, Note_on_c, 0, 69, 58
1, 82349, Note_on_c, 0, 38, 0
1, 82349, Note_on_c, 0, 41, 50
1, 82391, Control_c, 0, 64, 0
1, 82424, Control_c, 0, 64, 127
1, 82432, Note_on_c, 0, 65, 52
1, 82517, Note_on_c, 0, 65, 0
1, 82517, Note_on_c, 0, 60, 52
1, 82603, Note_on_c, 0, 60, 0
1, 82603, Note_on_c, 0, 65, 52
1, 82689, Note_on_c, 0, 65, 0
1, 82689, Note_on_c, 0, 69, 0
1, 82689, Note_on_c, 0, 69, 60
1, 82692, Note_on_c, 0, 41, 0
1, 82692, Note_on_c, 0, 45, 50
1, 82692, Control_c, 0, 64, 0
1, 82737, Control_c, 0, 64, 127
1, 82773, Note_on_c, 0, 64, 52
1, 82857, Note_on_c, 0, 64, 0
1, 82857, Note_on_c, 0, 60, 52
1, 82941, Note_on_c, 0, 60, 0
1, 82941, Note_on_c, 0, 64, 52
1, 83025, Note_on_c, 0, 64, 0
1, 83025, Note_on_c, 0, 69, 0
1, 83025, Note_on_c, 0, 67, 58
1, 83028, Note_on_c, 0, 45, 0
1, 83028, Note_on_c, 0, 48, 50
1, 83070, Control_c, 0, 64, 0
1, 83103, Control_c, 0, 64, 127
1, 83110, Note_on_c, 0, 64, 52
1, 83196, Note_on_c, 0, 64, 0
1, 83196, Note_on_c, 0, 60, 52
1, 83282, Note_on_c, 0, 60, 0
1, 83282, Note_on_c, 0, 64, 52
1, 83369, Note_on_c, 0, 64, 0
1, 83369, Note_on_c, 0, 67, 0
1, 83369, Note_on_c, 0, 67, 60
1, 83372, Note_on_c, 0, 48, 0
1, 83372, Note_on_c, 0, 36, 50
1, 83372, Control_c, 0, 64, 0
1, 83418, Control_c, 0, 64, 127
1, 83455, Note_on_c, 0, 63, 52
1, 83541, Note_on_c, 0, 63, 0
1, 83541, Note_on_c, 0, 60, 52
1, 83626, Note_on_c, 0, 60, 0
1, 83626, Note_on_c, 0, 63, 52
1, 83710, Note_on_c, 0, 63, 0
1, 83710, Note_on_c, 0, 67, 0
1, 83710, Note_on_c, 0, 67, 58
1, 83713, Note_on_c, 0, 36, 0
1, 83713, Note_on_c, 0, 39, 50
1, 83755, Control_c, 0, 64, 0
1, 83787, Control_c, 0, 64, 127
1, 83795, Note_on_c, 0, 63, 52
1, 83881, Note_on_c, 0, 63, 0
1, 83881, Note_on_c, 0, 58, 52
1, 83967, Note_on_c, 0, 58, 0
1, 83967, Note_on_c, 0, 63, 52
1, 84054, Note_on_c, 0, 63, 0
1, 84054, Note_on_c, 0, 67, 0
1, 84054, Note_on_c, 0, 67, 60
1, 84057, Note_on_c, 0, 39, 0
1, 84057, Note_on_c, 0, 43, 50
1, 84057, Control_c, 0, 64, 0
1, 84103, Control_c, 0, 64, 127
1, 84139, Note_on_c, 0, 62, 52
1, 84225, Note_on_c, 0, 62, 0
1, 84225, Note_on_c, 0, 58, 52
1, 84311, Note_on_c, 0, 58, 0
1, 84311, Note_on_c, 0, 62, 52
1, 84397, Note_on_c, 0, 62, 0
1, 84397, Note_on_c, 0, 67, 0
1, 84397, Note_on_c, 0, 65, 58
1, 84400, Note_on_c, 0, 43, 0
1, 84400, Note_on_c, 0, 46, 50
1, 84442, Control_c, 0, 64, 0
1, 84475, Control_c, 0, 64, 127
1, 84482, Note_on_c, 0, 62, 52
1, 84568, Note_on_c, 0, 62, 0
1, 84568, Note_on_c, 0, 58, 52
1, 84654, Note_on_c, 0, 58, 0
1, 84654, Note_on_c, 0, 62, 52
1, 84740, Note_on_c, 0, 62, 0
1, 84740, Note_on_c, 0, 65, 0
1, 84740, Note_on_c, 0, 65, 66
1, 84743, Note_on_c, 0, 46, 0
1, 84743, Note_on_c, 0, 34, 53
1, 84743, Control_c, 0, 64, 0
1, 84790, Control_c, 0, 64, 127
1, 84827, Note_on_c, 0, 62, 56
1, 84914, Note_on_c, 0, 62, 0
1, 84914, Note_on_c, 0, 58, 56
1, 85000, Note_on_c, 0, 58, 0
1, 85000, Note_on_c, 0, 62, 56
1, 85085, Note_on_c, 0, 62, 0
1, 85085, Note_on_c, 0, 65, 0
1, 85085, Note_on_c, 0, 65, 63
1, 85088, Note_on_c, 0, 34, 0
1, 85088, Note_on_c, 0, 38, 54
1, 85130, Control_c, 0, 64, 0
1, 85163, Control_c, 0, 64, 127
1, 85171, Note_on_c, 0, 62, 57
1, 85256, Note_on_c, 0, 62, 0
1, 85256, Note_on_c, 0, 57, 57
1, 85342, Note_on_c, 0, 57, 0
1, 85342, Note_on_c, 0, 62, 57
1, 85429, Note_on_c, 0, 62, 0
1, 85429, Note_on_c, 0, 65, 0
1, 85429, Note_on_c, 0, 65, 68
1, 85432, Note_on_c, 0, 38, 0
1, 85432, Note_on_c, 0, 41, 55
1, 85432, Control_c, 0, 64, 0
1, 85478, Control_c, 0, 64, 127
1, 85515, Note_on_c, 0, 60, 58
1, 85601, Note_on_c, 0, 60, 0
1, 85601, Note_on_c, 0, 57, 58
1, 85686, Note_on_c, 0, 57, 0
1, 85686, Note_on_c, 0, 60, 58
1, 85772, Note_on_c, 0, 60, 0
1, 85772, Note_on_c, 0, 65, 0
1, 85772, Note_on_c, 0, 64, 67
1, 85775, Note_on_c, 0, 41, 0
1, 85775, Note_on_c, 0, 45, 56
1, 85817, Control_c, 0, 64, 0
1, 85850, Control_c, 0, 64, 127
1, 85858, Note_on_c, 0, 60, 59
1, 85944, Note_on_c, 0, 60, 0
1, 85944, Note_on_c, 0, 57, 59
1, 86030, Note_on_c, 0, 57, 0
1, 86030, Note_on_c, 0, 60, 59
1, 86116, Note_on_c, 0, 60, 0
1, 86116, Note_on_c, 0, 64, 0
1, 86116, Note_on_c, 0, 64, 70
1, 86119, Note_on_c, 0, 45, 0
1, 86119, Note_on_c, 0, 33, 53
1, 86119, Control_c, 0, 64, 0
1, 86167, Control_c, 0, 64, 127
1, 86204, Note_on_c, 0, 60, 58
1, 86290, Note_on_c, 0, 60, 0
1, 86290, Note_on_c, 0, 57, 60
1, 86376, Note_on_c, 0, 57, 0
1, 86376, Note_on_c, 0, 60, 62
1, 86462, Note_on_c, 0, 60, 0
1, 86462, Note_on_c, 0, 64, 0
1, 86462, Note_on_c, 0, 72, 74
1, 86465, Note_on_c, 0, 33, 0
1, 86465, Note_on_c, 0, 34, 56
1, 86506, Control_c, 0, 64, 0
1, 86539, Control_c, 0, 64, 127
1, 86547, Note_on_c, 0, 67, 62
1, 86633, Note_on_c, 0, 67, 0
1, 86633, Note_on_c, 0, 64, 62
1, 86719, Note_on_c, 0, 64, 0
1, 86719, Note_on_c, 0, 67, 62
1, 86805, Note_on_c, 0, 67, 0
1, 86805, Note_on_c, 0, 72, 0
1, 86805, Note_on_c, 0, 72, 75
1, 86808, Note_on_c, 0, 34, 0
1, 86808, Note_on_c, 0, 33, 60
1, 86808, Control_c, 0, 64, 0
1, 86855, Control_c, 0, 64, 127
1, 86892, Note_on_c, 0, 69, 62
1, 86979, Note_on_c, 0, 69, 0
1, 86979, Note_on_c, 0, 65, 61
1, 87066, Note_on_c, 0, 65, 0
1, 87066, Note_on_c, 0, 69, 58
1, 87153, Note_on_c, 0, 69, 0
1, 87153, Note_on_c, 0, 72, 0
1, 87153, Note_on_c, 0, 72, 67
1, 87156, Note_on_c, 0, 33, 0
1, 87156, Note_on_c, 0, 31, 56
1, 87199, Control_c, 0, 64, 0
1, 87233, Control_c, 0, 64, 127
1, 87242, Note_on_c, 0, 70, 59
1, 87332, Note_on_c, 0, 70, 0
1, 87332, Note_on_c, 0, 64, 59
1, 87426, Note_on_c, 0, 64, 0
1, 87426, Note_on_c, 0, 70, 59
1, 87523, Note_on_c, 0, 70, 0
1, 87523, Note_on_c, 0, 72, 0
1, 87523, Note_on_c, 0, 72, 76
1, 87526, Note_on_c, 0, 31, 0
1, 87526, Control_c, 0, 64, 0
1, 87556, Control_c, 0, 64, 127
1, 87618, Note_on_c, 0, 69, 62
1, 87711, Note_on_c, 0, 69, 0
1, 87711, Note_on_c, 0, 65, 62
1, 87711, Note_on_c, 0, 29, 57
1, 87802, Note_on_c, 0, 29, 0
1, 87802, Note_on_c, 0, 65, 0
1, 87802, Note_on_c, 0, 69, 62
1, 87890, Note_on_c, 0, 69, 0
1, 87890, Note_on_c, 0, 72, 0
1, 87890, Note_on_c, 0, 77, 77
1, 87921, Control_c, 0, 64, 0
1, 87962, Control_c, 0, 64, 127
1, 87977, Note_on_c, 0, 69, 67
1, 88064, Note_on_c, 0, 69, 0
1, 88064, Note_on_c, 0, 65, 68
1, 88064, Note_on_c, 0, 41, 57
1, 88151, Note_on_c, 0, 41, 0
1, 88151, Note_on_c, 0, 65, 0
1, 88151, Note_on_c, 0, 69, 68
1, 88238, Note_on_c, 0, 69, 0
1, 88238, Note_on_c, 0, 77, 0
1, 88238, Note_on_c, 0, 72, 76
1, 88241, Note_on_c, 0, 76, 76
1, 88241, Control_c, 0, 64, 0
1, 88271, Control_c, 0, 64, 127
1, 88325, Note_on_c, 0, 72, 0
1, 88325, Note_on_c, 0, 69, 62
1, 88412, Note_on_c, 0, 69, 0
1, 88412, Note_on_c, 0, 64, 62
1, 88412, Note_on_c, 0, 45, 57
1, 88498, Note_on_c, 0, 45, 0
1, 88498, Note_on_c, 0, 64, 0
1, 88498, Note_on_c, 0, 69, 62
1, 88584, Note_on_c, 0, 69, 0
1, 88584, Note_on_c, 0, 76, 0
1, 88584, Note_on_c, 0, 70, 75
1, 88587, Note_on_c, 0, 74, 75
1, 88592, Control_c, 0, 64, 0
1, 88624, Control_c, 0, 64, 127
1, 88669, Note_on_c, 0, 70, 0
1, 88669, Note_on_c, 0, 65, 58
1, 88755, Note_on_c, 0, 65, 0
1, 88755, Note_on_c, 0, 62, 58
1, 88755, Note_on_c, 0, 46, 57
1, 88841, Note_on_c, 0, 46, 0
1, 88841, Note_on_c, 0, 62, 0
1, 88841, Note_on_c, 0, 65, 58
1, 88928, Note_on_c, 0, 65, 0
1, 88928, Note_on_c, 0, 74, 0
1, 88928, Note_on_c, 0, 69, 74
1, 88931, Note_on_c, 0, 74, 74
1, 88931, Control_c, 0, 64, 0
1, 88974, Control_c, 0, 64, 127
1, 89014, Note_on_c, 0, 69, 0
1, 89014, Note_on_c, 0, 65, 60
1, 89101, Note_on_c, 0, 65, 0
1, 89101, Note_on_c, 0, 62, 60
1, 89101, Note_on_c, 0, 50, 57
1, 89186, Note_on_c, 0, 62, 0
1, 89186, Note_on_c, 0, 65, 60
1, 89272, Note_on_c, 0, 65, 0
1, 89272, Note_on_c, 0, 74, 0
1, 89272, Note_on_c, 0, 69, 73
1, 89275, Note_on_c, 0, 50, 0
1, 89275, Note_on_c, 0, 72, 73
1, 89275, Control_c, 0, 64, 0
1, 89306, Control_c, 0, 64, 127
1, 89357, Note_on_c, 0, 69, 0
1, 89357, Note_on_c, 0, 65, 59
1, 89442, Note_on_c, 0, 65, 0
1, 89442, Note_on_c, 0, 60, 59
1, 89442, Note_on_c, 0, 53, 57
1, 89527, Note_on_c, 0, 60, 0
1, 89527, Note_on_c, 0, 65, 59
1, 89613, Note_on_c, 0, 65, 0
1, 89613, Note_on_c, 0, 72, 0
1, 89613, Note_on_c, 0, 69, 74
1, 89616, Note_on_c, 0, 53, 0
1, 89616, Note_on_c, 0, 72, 74
1, 89616, Control_c, 0, 64, 0
1, 89662, Control_c, 0, 64, 127
1, 89698, Note_on_c, 0, 69, 0
1, 89698, Note_on_c, 0, 64, 60
1, 89783, Note_on_c, 0, 64, 0
1, 89783, Note_on_c, 0, 60, 60
1, 89783, Note_on_c, 0, 57, 57
1, 89868, Note_on_c, 0, 60, 0
1, 89868, Note_on_c, 0, 64, 60
1, 89952, Note_on_c, 0, 64, 0
1, 89952, Note_on_c, 0, 72, 0
1, 89952, Note_on_c, 0, 67, 73
1, 89955, Note_on_c, 0, 57, 0
1, 89955, Note_on_c, 0, 70, 73
1, 89973, Control_c, 0, 64, 0
1, 90008, Control_c, 0, 64, 127
1, 90036, Note_on_c, 0, 67, 0
1, 90036, Note_on_c, 0, 64, 59
1, 90120, Note_on_c, 0, 64, 0
1, 90120, Note_on_c, 0, 58, 59
1, 90120, Note_on_c, 0, 36, 57
1, 90205, Note_on_c, 0, 58, 0
1, 90205, Note_on_c, 0, 64, 59
1, 90289, Note_on_c, 0, 64, 0
1, 90289, Note_on_c, 0, 70, 0
1, 90289, Note_on_c, 0, 67, 74
1, 90292, Note_on_c, 0, 36, 0
1, 90292, Note_on_c, 0, 70, 74
1, 90292, Control_c, 0, 64, 0
1, 90329, Control_c, 0, 64, 127
1, 90374, Note_on_c, 0, 67, 0
1, 90374, Note_on_c, 0, 62, 60
1, 90459, Note_on_c, 0, 62, 0
1, 90459, Note_on_c, 0, 58, 60
1, 90459, Note_on_c, 0, 38, 57
1, 90544, Note_on_c, 0, 58, 0
1, 90544, Note_on_c, 0, 62, 60
1, 90629, Note_on_c, 0, 62, 0
1, 90629, Note_on_c, 0, 70, 0
1, 90629, Note_on_c, 0, 65, 73
1, 90632, Note_on_c, 0, 38, 0
1, 90632, Note_on_c, 0, 69, 73
1, 90649, Control_c, 0, 64, 0
1, 90704, Control_c, 0, 64, 127
1, 90714, Note_on_c, 0, 65, 0
1, 90714, Note_on_c, 0, 62, 60
1, 90800, Note_on_c, 0, 62, 0
1, 90800, Note_on_c, 0, 57, 60
1, 90800, Note_on_c, 0, 41, 57
1, 90886, Note_on_c, 0, 57, 0
1, 90886, Note_on_c, 0, 62, 60
1, 90973, Note_on_c, 0, 62, 0
1, 90973, Note_on_c, 0, 69, 0
1, 90973, Note_on_c, 0, 64, 72
1, 90976, Note_on_c, 0, 41, 0
1, 90976, Note_on_c, 0, 69, 72
1, 90976, Control_c, 0, 64, 0
1, 91002, Control_c, 0, 64, 127
1, 91059, Note_on_c, 0, 64, 0
1, 91059, Note_on_c, 0, 61, 60
1, 91146, Note_on_c, 0, 61, 0
1, 91146, Note_on_c, 0, 57, 60
1, 91146, Note_on_c, 0, 45, 57
1, 91233, Note_on_c, 0, 57, 0
1, 91233, Note_on_c, 0, 61, 60
1, 91319, Note_on_c, 0, 61, 0
1, 91319, Note_on_c, 0, 69, 0
1, 91319, Note_on_c, 0, 67, 71
1, 91322, Note_on_c, 0, 45, 0
1, 91360, Control_c, 0, 64, 0
1, 91397, Control_c, 0, 64, 127
1, 91405, Note_on_c, 0, 64, 61
1, 91491, Note_on_c, 0, 64, 0
1, 91491, Note_on_c, 0, 57, 61
1, 91491, Note_on_c, 0, 49, 57
1, 91578, Note_on_c, 0, 57, 0
1, 91578, Note_on_c, 0, 64, 61
1, 91664, Note_on_c, 0, 64, 0
1, 91664, Note_on_c, 0, 67, 0
1, 91664, Note_on_c, 0, 67, 72
1, 91667, Note_on_c, 0, 49, 0
1, 91667, Control_c, 0, 64, 0
1, 91709, Control_c, 0, 64, 127
1, 91750, Note_on_c, 0, 64, 62
1, 91836, Note_on_c, 0, 64, 0
1, 91836, Note_on_c, 0, 57, 66
1, 91836, Note_on_c, 0, 50, 57
1, 91921, Note_on_c, 0, 50, 0
1, 91921, Note_on_c, 0, 57, 0
1, 91921, Note_on_c, 0, 64, 69
1, 92007, Note_on_c, 0, 64, 0
1, 92007, Note_on_c, 0, 67, 0
1, 92007, Note_on_c, 0, 65, 76
1, 92010, Note_on_c, 0, 52, 57
1, 92064, Control_c, 0, 64, 0
1, 92092, Note_on_c, 0, 52, 0
1, 92092, Note_on_c, 0, 62, 67
1, 92096, Control_c, 0, 64, 127
1, 92177, Note_on_c, 0, 62, 0
1, 92177, Note_on_c, 0, 57, 68
1, 92177, Note_on_c, 0, 53, 57
1, 92262, Note_on_c, 0, 53, 0
1, 92262, Note_on_c, 0, 57, 0
1, 92262, Note_on_c, 0, 62, 68
1, 92347, Note_on_c, 0, 62, 0
1, 92347, Note_on_c, 0, 65, 0
1, 92347, Note_on_c, 0, 67, 73
1, 92350, Control_c, 0, 64, 0
1, 92350, Note_on_c, 0, 46, 57
1, 92395, Control_c, 0, 64, 127
1, 92431, Note_on_c, 0, 65, 59
1, 92516, Note_on_c, 0, 65, 0
1, 92516, Note_on_c, 0, 46, 0
1, 92516, Note_on_c, 0, 62, 59
1, 92601, Note_on_c, 0, 62, 0
1, 92601, Note_on_c, 0, 65, 59
1, 92686, Note_on_c, 0, 65, 0
1, 92686, Note_on_c, 0, 67, 0
1, 92686, Note_on_c, 0, 69, 69
1, 92689, Note_on_c, 0, 48, 57
1, 92715, Control_c, 0, 64, 0
1, 92752, Control_c, 0, 64, 127
1, 92772, Note_on_c, 0, 64, 57
1, 92858, Note_on_c, 0, 64, 0
1, 92858, Note_on_c, 0, 48, 0
1, 92858, Note_on_c, 0, 60, 57
1, 92945, Note_on_c, 0, 60, 0
1, 92945, Note_on_c, 0, 64, 57
1, 93032, Note_on_c, 0, 64, 0
1, 93032, Note_on_c, 0, 69, 0
1, 93032, Note_on_c, 0, 65, 71
1, 93035, Control_c, 0, 64, 0
1, 93072, Control_c, 0, 64, 127
1, 93127, Note_on_c, 0, 60, 59
1, 93215, Note_on_c, 0, 60, 0
1, 93215, Note_on_c, 0, 57, 59
1, 93215, Note_on_c, 0, 53, 57
1, 93303, Note_on_c, 0, 57, 0
1, 93303, Note_on_c, 0, 60, 59
1, 93391, Note_on_c, 0, 60, 0
1, 93391, Note_on_c, 0, 65, 0
1, 93391, Note_on_c, 0, 67, 73
1, 93394, Note_on_c, 0, 53, 0
1, 93412, Control_c, 0, 64, 0
1, 93453, Control_c, 0, 64, 127
1, 93477, Note_on_c, 0, 62, 59
1, 93563, Note_on_c, 0, 62, 0
1, 93563, Note_on_c, 0, 58, 59
1, 93563, Note_on_c, 0, 46, 57
1, 93649, Note_on_c, 0, 58, 0
1, 93649, Note_on_c, 0, 62, 59
1, 93735, Note_on_c, 0, 62, 0
1, 93735, Note_on_c, 0, 67, 0
1, 93735, Note_on_c, 0, 69, 73
1, 93738, Note_on_c, 0, 46, 0
1, 93738, Control_c, 0, 64, 0
1, 93775, Control_c, 0, 64, 127
1, 93821, Note_on_c, 0, 63, 59
1, 93906, Note_on_c, 0, 63, 0
1, 93906, Note_on_c, 0, 60, 60
1, 93906, Note_on_c, 0, 41, 57
1, 93992, Note_on_c, 0, 60, 0
1, 93992, Note_on_c, 0, 63, 60
1, 94077, Note_on_c, 0, 63, 0
1, 94077, Note_on_c, 0, 69, 0
1, 94077, Note_on_c, 0, 69, 76
1, 94080, Note_on_c, 0, 41, 0
1, 94122, Control_c, 0, 64, 0
1, 94152, Control_c, 0, 64, 127
1, 94162, Note_on_c, 0, 63, 62
1, 94246, Note_on_c, 0, 63, 0
1, 94246, Note_on_c, 0, 60, 62
1, 94246, Note_on_c, 0, 41, 60
1, 94331, Note_on_c, 0, 60, 0
1, 94331, Note_on_c, 0, 63, 63
1, 94415, Note_on_c, 0, 63, 0
1, 94415, Note_on_c, 0, 69, 0
1, 94415, Note_on_c, 0, 69, 77
1, 94418, Note_on_c, 0, 41, 0
1, 94418, Control_c, 0, 64, 0
1, 94443, Control_c, 0, 64, 127
1, 94500, Note_on_c, 0, 63, 61
1, 94586, Note_on_c, 0, 63, 0
1, 94586, Note_on_c, 0, 60, 60
1, 94586, Note_on_c, 0, 34, 60
1, 94671, Note_on_c, 0, 60, 0
1, 94671, Note_on_c, 0, 63, 60
1, 94757, Note_on_c, 0, 63, 0
1, 94757, Note_on_c, 0, 69, 0
1, 94757, Note_on_c, 0, 70, 73
1, 94760, Note_on_c, 0, 34, 0
1, 94796, Control_c, 0, 64, 0
1, 94824, Control_c, 0, 64, 127
1, 94840, Note_on_c, 0, 65, 61
1, 94924, Note_on_c, 0, 65, 0
1, 94924, Note_on_c, 0, 62, 60
1, 94924, Note_on_c, 0, 34, 58
1, 95008, Note_on_c, 0, 62, 0
1, 95008, Note_on_c, 0, 65, 59
1, 95092, Note_on_c, 0, 65, 0
1, 95092, Note_on_c, 0, 70, 0
1, 95092, Note_on_c, 0, 69, 73
1, 95095, Note_on_c, 0, 34, 0
1, 95095, Control_c, 0, 64, 0
1, 95141, Control_c, 0, 64, 127
1, 95177, Note_on_c, 0, 65, 59
1, 95261, Note_on_c, 0, 65, 0
1, 95261, Note_on_c, 0, 60, 59
1, 95261, Note_on_c, 0, 36, 57
1, 95346, Note_on_c, 0, 60, 0
1, 95346, Note_on_c, 0, 65, 59
1, 95431, Note_on_c, 0, 65, 0
1, 95431, Note_on_c, 0, 69, 0
1, 95431, Note_on_c, 0, 67, 73
1, 95434, Note_on_c, 0, 36, 0
1, 95475, Control_c, 0, 64, 0
1, 95508, Control_c, 0, 64, 127
1, 95516, Note_on_c, 0, 64, 59
1, 95600, Note_on_c, 0, 64, 0
1, 95600, Note_on_c, 0, 60, 59
1, 95600, Note_on_c, 0, 36, 57
1, 95686, Note_on_c, 0, 60, 0
1, 95686, Note_on_c, 0, 64, 59
1, 95772, Note_on_c, 0, 64, 0
1, 95772, Note_on_c, 0, 67, 0
1, 95772, Note_on_c, 0, 69, 71
1, 95775, Note_on_c, 0, 36, 0
1, 95775, Control_c, 0, 64, 0
1, 95794, Control_c, 0, 64, 0
1, 95813, Control_c, 0, 64, 127
1, 95867, Note_on_c, 0, 65, 59
1, 95954, Note_on_c, 0, 65, 0
1, 95954, Note_on_c, 0, 63, 59
1, 95954, Note_on_c, 0, 41, 57
1, 96040, Note_on_c, 0, 63, 0
1, 96040, Note_on_c, 0, 65, 59
1, 96127, Note_on_c, 0, 65, 0
1, 96127, Note_on_c, 0, 69, 0
1, 96127, Note_on_c, 0, 70, 73
1, 96130, Note_on_c, 0, 41, 0
1, 96148, Control_c, 0, 64, 0
1, 96188, Control_c, 0, 64, 127
1, 96213, Note_on_c, 0, 67, 59
1, 96299, Note_on_c, 0, 67, 0
1, 96299, Note_on_c, 0, 63, 59
1, 96299, Note_on_c, 0, 53, 57
1, 96385, Note_on_c, 0, 63, 0
1, 96385, Note_on_c, 0, 67, 59
1, 96471, Note_on_c, 0, 67, 0
1, 96471, Note_on_c, 0, 70, 0
1, 96471, Note_on_c, 0, 72, 73
1, 96474, Note_on_c, 0, 53, 0
1, 96474, Control_c, 0, 64, 0
1, 96511, Control_c, 0, 64, 127
1, 96557, Note_on_c, 0, 69, 59
1, 96643, Note_on_c, 0, 69, 0
1, 96643, Note_on_c, 0, 63, 60
1, 96643, Note_on_c, 0, 53, 57
1, 96728, Note_on_c, 0, 63, 0
1, 96728, Note_on_c, 0, 69, 60
1, 96814, Note_on_c, 0, 69, 0
1, 96814, Note_on_c, 0, 72, 0
1, 96814, Note_on_c, 0, 72, 76
1, 96817, Note_on_c, 0, 53, 0
1, 96860, Control_c, 0, 64, 0
1, 96890, Control_c, 0, 64, 127
1, 96900, Note_on_c, 0, 69, 62
1, 96987, Note_on_c, 0, 69, 0
1, 96987, Note_on_c, 0, 63, 62
1, 96987, Note_on_c, 0, 53, 60
1, 97073, Note_on_c, 0, 63, 0
1, 97073, Note_on_c, 0, 69, 63
1, 97159, Note_on_c, 0, 69, 0
1, 97159, Note_on_c, 0, 72, 0
1, 97159, Note_on_c, 0, 72, 80
1, 97162, Note_on_c, 0, 53, 0
1, 97162, Control_c, 0, 64, 0
1, 97188, Control_c, 0, 64, 127
1, 97245, Note_on_c, 0, 69, 63
1, 97330, Note_on_c, 0, 69, 0
1, 97330, Note_on_c, 0, 63, 63
1, 97330, Note_on_c, 0, 46, 60
1, 97416, Note_on_c, 0, 63, 0
1, 97416, Note_on_c, 0, 69, 62
1, 97501, Note_on_c, 0, 69, 0
1, 97501, Note_on_c, 0, 72, 0
1, 97501, Note_on_c, 0, 74, 76
1, 97504, Note_on_c, 0, 46, 0
1, 97542, Control_c, 0, 64, 0
1, 97570, Control_c, 0, 64, 127
1, 97586, Note_on_c, 0, 70, 61
1, 97671, Note_on_c, 0, 70, 0
1, 97671, Note_on_c, 0, 62, 60
1, 97671, Note_on_c, 0, 46, 56
1, 97756, Note_on_c, 0, 62, 0
1, 97756, Note_on_c, 0, 70, 59
1, 97841, Note_on_c, 0, 70, 0
1, 97841, Note_on_c, 0, 74, 0
1, 97841, Note_on_c, 0, 72, 73
1, 97844, Note_on_c, 0, 46, 0
1, 97844, Control_c, 0, 64, 0
1, 97890, Control_c, 0, 64, 127
1, 97926, Note_on_c, 0, 69, 58
1, 98011, Note_on_c, 0, 69, 0
1, 98011, Note_on_c, 0, 65, 58
1, 98011, Note_on_c, 0, 48, 57
1, 98095, Note_on_c, 0, 65, 0
1, 98095, Note_on_c, 0, 69, 58
1, 98180, Note_on_c, 0, 69, 0
1, 98180, Note_on_c, 0, 72, 0
1, 98180, Note_on_c, 0, 72, 71
1, 98183, Note_on_c, 0, 48, 0
1, 98225, Control_c, 0, 64, 0
1, 98257, Control_c, 0, 64, 127
1, 98265, Note_on_c, 0, 67, 58
1, 98350, Note_on_c, 0, 67, 0
1, 98350, Note_on_c, 0, 64, 57
1, 98350, Note_on_c, 0, 48, 57
1, 98438, Note_on_c, 0, 64, 0
1, 98438, Note_on_c, 0, 67, 56
1, 98527, Note_on_c, 0, 67, 0
1, 98527, Note_on_c, 0, 72, 0
1, 98527, Note_on_c, 0, 72, 66
1, 98530, Note_on_c, 0, 48, 0
1, 98530, Note_on_c, 0, 53, 53
1, 98530, Control_c, 0, 64, 0
1, 98548, Control_c, 0, 64, 0
1, 98567, Control_c, 0, 64, 127
1, 98622, Note_on_c, 0, 69, 55
1, 98710, Note_on_c, 0, 69, 0
1, 98710, Note_on_c, 0, 65, 55
1, 98798, Note_on_c, 0, 65, 0
1, 98798, Note_on_c, 0, 69, 55
1, 98887, Note_on_c, 0, 69, 0
1, 98887, Note_on_c, 0, 72, 0
1, 98887, Note_on_c, 0, 77, 63
1, 98890, Note_on_c, 0, 57, 53
1, 98907, Control_c, 0, 64, 0
1, 98948, Control_c, 0, 64, 127
1, 98973, Note_on_c, 0, 72, 55
1, 99059, Note_on_c, 0, 72, 0
1, 99059, Note_on_c, 0, 65, 55
1, 99145, Note_on_c, 0, 65, 0
1, 99145, Note_on_c, 0, 72, 55
1, 99231, Note_on_c, 0, 72, 0
1, 99231, Note_on_c, 0, 77, 0
1, 99231, Note_on_c, 0, 76, 68
1, 99234, Note_on_c, 0, 57, 0
1, 99234, Note_on_c, 0, 60, 53
1, 99234, Control_c, 0, 64, 0
1, 99271, Control_c, 0, 64, 127
1, 99317, Note_on_c, 0, 72, 55
1, 99403, Note_on_c, 0, 72, 0
1, 99403, Note_on_c, 0, 67, 56
1, 99489, Note_on_c, 0, 67, 0
1, 99489, Note_on_c, 0, 72, 56
1, 99575, Note_on_c, 0, 72, 0
1, 99575, Note_on_c, 0, 76, 0
1, 99575, Note_on_c, 0, 79, 64
1, 99578, Note_on_c, 0, 60, 0
1, 99578, Note_on_c, 0, 58, 56
1, 99620, Control_c, 0, 64, 0
1, 99650, Control_c, 0, 64, 127
1, 99660, Note_on_c, 0, 72, 58
1, 99746, Note_on_c, 0, 72, 0
1, 99746, Note_on_c, 0, 67, 57
1, 99831, Note_on_c, 0, 67, 0
1, 99831, Note_on_c, 0, 72, 57
1, 99916, Note_on_c, 0, 72, 0
1, 99916, Note_on_c, 0, 79, 0
1, 99916, Note_on_c, 0, 72, 68
1, 99919, Note_on_c, 0, 58, 0
1, 99919, Note_on_c, 0, 57, 56
1, 99919, Control_c, 0, 64, 0
1, 99945, Control_c, 0, 64, 127
1, 100003, Note_on_c, 0, 69, 56
1, 100090, Note_on_c, 0, 69, 0
1, 100090, Note_on_c, 0, 65, 56
1, 100177, Note_on_c, 0, 65, 0
1, 100177, Note_on_c, 0, 69, 56
1, 100264, Note_on_c, 0, 69, 0
1, 100264, Note_on_c, 0, 72, 0
1, 100264, Note_on_c, 0, 74, 63
1, 100267, Note_on_c, 0, 57, 0
1, 100267, Note_on_c, 0, 53, 0
1, 100267, Note_on_c, 0, 46, 54
1, 100270, Note_on_c, 0, 53, 54
1, 100289, Control_c, 0, 64, 0
1, 100320, Control_c, 0, 64, 127
1, 100349, Note_on_c, 0, 70, 55
1, 100434, Note_on_c, 0, 70, 0
1, 100434, Note_on_c, 0, 65, 55
1, 100519, Note_on_c, 0, 65, 0
1, 100519, Note_on_c, 0, 70, 55
1, 100605, Note_on_c, 0, 70, 0
1, 100605, Note_on_c, 0, 74, 0
1, 100605, Note_on_c, 0, 72, 64
1, 100608, Note_on_c, 0, 53, 0
1, 100608, Note_on_c, 0, 46, 0
1, 100608, Note_on_c, 0, 52, 53
1, 100611, Note_on_c, 0, 48, 53
1, 100611, Control_c, 0, 64, 0
1, 100654, Control_c, 0, 64, 127
1, 100690, Note_on_c, 0, 70, 55
1, 100776, Note_on_c, 0, 70, 0
1, 100776, Note_on_c, 0, 67, 55
1, 100862, Note_on_c, 0, 67, 0
1, 100862, Note_on_c, 0, 70, 55
1, 100948, Note_on_c, 0, 70, 0
1, 100948, Note_on_c, 0, 72, 0
1, 100948, Note_on_c, 0, 72, 62
1, 100951, Note_on_c, 0, 52, 0
1, 100951, Note_on_c, 0, 55, 53
1, 100993, Control_c, 0, 64, 0
1, 101026, Control_c, 0, 64, 127
1, 101033, Note_on_c, 0, 70, 55
1, 101119, Note_on_c, 0, 70, 0
1, 101119, Note_on_c, 0, 64, 55
1, 101206, Note_on_c, 0, 64, 0
1, 101206, Note_on_c, 0, 70, 55
1, 101296, Note_on_c, 0, 70, 0
1, 101296, Note_on_c, 0, 72, 0
1, 101296, Note_on_c, 0, 72, 66
1, 101299, Note_on_c, 0, 55, 0
1, 101299, Note_on_c, 0, 48, 0
1, 101299, Note_on_c, 0, 53, 53
1, 101302, Control_c, 0, 64, 0
1, 101318, Control_c, 0, 64, 0
1, 101337, Control_c, 0, 64, 127
1, 101394, Note_on_c, 0, 69, 55
1, 101482, Note_on_c, 0, 69, 0
1, 101482, Note_on_c, 0, 65, 55
1, 101571, Note_on_c, 0, 65, 0
1, 101571, Note_on_c, 0, 69, 55
1, 101659, Note_on_c, 0, 69, 0
1, 101659, Note_on_c, 0, 72, 0
1, 101659, Note_on_c, 0, 77, 63
1, 101662, Note_on_c, 0, 57, 53
1, 101680, Control_c, 0, 64, 0
1, 101721, Control_c, 0, 64, 127
1, 101746, Note_on_c, 0, 72, 55
1, 101833, Note_on_c, 0, 72, 0
1, 101833, Note_on_c, 0, 65, 55
1, 101919, Note_on_c, 0, 65, 0
1, 101919, Note_on_c, 0, 72, 55
1, 102006, Note_on_c, 0, 72, 0
1, 102006, Note_on_c, 0, 77, 0
1, 102006, Note_on_c, 0, 76, 68
1, 102009, Note_on_c, 0, 57, 0
1, 102009, Note_on_c, 0, 60, 53
1, 102009, Control_c, 0, 64, 0
1, 102046, Control_c, 0, 64, 127
1, 102092, Note_on_c, 0, 72, 55
1, 102179, Note_on_c, 0, 72, 0
1, 102179, Note_on_c, 0, 60, 0
1, 102179, Note_on_c, 0, 67, 56
1, 102182, Note_on_c, 0, 61, 50
1, 102265, Note_on_c, 0, 67, 0
1, 102265, Note_on_c, 0, 72, 56
1, 102350, Note_on_c, 0, 72, 0
1, 102350, Note_on_c, 0, 76, 0
1, 102350, Note_on_c, 0, 79, 64
1, 102353, Note_on_c, 0, 61, 0
1, 102353, Note_on_c, 0, 60, 53
1, 102385, Control_c, 0, 64, 0
1, 102411, Control_c, 0, 64, 127
1, 102436, Note_on_c, 0, 72, 58
1, 102521, Note_on_c, 0, 72, 0
1, 102521, Note_on_c, 0, 60, 0
1, 102521, Note_on_c, 0, 67, 57
1, 102524, Note_on_c, 0, 58, 51
1, 102607, Note_on_c, 0, 67, 0
1, 102607, Note_on_c, 0, 72, 57
1, 102692, Note_on_c, 0, 72, 0
1, 102692, Note_on_c, 0, 79, 0
1, 102692, Note_on_c, 0, 72, 68
1, 102695, Note_on_c, 0, 58, 0
1, 102695, Note_on_c, 0, 57, 56
1, 102695, Control_c, 0, 64, 0
1, 102721, Control_c, 0, 64, 127
1, 102779, Note_on_c, 0, 69, 56
1, 102866, Note_on_c, 0, 69, 0
1, 102866, Note_on_c, 0, 65, 56
1, 102953, Note_on_c, 0, 65, 0
1, 102953, Note_on_c, 0, 69, 56
1, 103040, Note_on_c, 0, 69, 0
1, 103040, Note_on_c, 0, 72, 0
1, 103040, Note_on_c, 0, 73, 63
1, 103043, Note_on_c, 0, 57, 0
1, 103043, Note_on_c, 0, 53, 0
1, 103043, Note_on_c, 0, 46, 54
1, 103046, Note_on_c, 0, 53, 54
1, 103050, Control_c, 0, 64, 0
1, 103076, Control_c, 0, 64, 127
1, 103128, Note_on_c, 0, 70, 55
1, 103216, Note_on_c, 0, 70, 0
1, 103216, Note_on_c, 0, 65, 55
1, 103303, Note_on_c, 0, 65, 0
1, 103303, Note_on_c, 0, 70, 55
1, 103391, Note_on_c, 0, 70, 0
1, 103391, Note_on_c, 0, 73, 0
1, 103391, Note_on_c, 0, 72, 63
1, 103394, Note_on_c, 0, 53, 0
1, 103394, Note_on_c, 0, 46, 0
1, 103394, Note_on_c, 0, 52, 53
1, 103397, Note_on_c, 0, 48, 53
1, 103397, Control_c, 0, 64, 0
1, 103442, Control_c, 0, 64, 127
1, 103480, Note_on_c, 0, 70, 55
1, 103568, Note_on_c, 0, 70, 0
1, 103568, Note_on_c, 0, 67, 55
1, 103657, Note_on_c, 0, 67, 0
1, 103657, Note_on_c, 0, 70, 55
1, 103746, Note_on_c, 0, 70, 0
1, 103746, Note_on_c, 0, 72, 0
1, 103746, Note_on_c, 0, 72, 62
1, 103749, Note_on_c, 0, 52, 0
1, 103749, Note_on_c, 0, 55, 53
1, 103793, Control_c, 0, 64, 0
1, 103826, Control_c, 0, 64, 127
1, 103835, Note_on_c, 0, 70, 55
1, 103923, Note_on_c, 0, 70, 0
1, 103923, Note_on_c, 0, 64, 55
1, 104012, Note_on_c, 0, 64, 0
1, 104012, Note_on_c, 0, 70, 55
1, 104102, Note_on_c, 0, 70, 0
1, 104102, Note_on_c, 0, 55, 0
1, 104102, Note_on_c, 0, 72, 0
1, 104105, Note_on_c, 0, 48, 0
1, 104105, Control_c, 0, 64, 0
1, 105534, Note_on_c, 0, 68, 113
1, 105534, Note_on_c, 0, 72, 113
1, 105534, Note_on_c, 0, 77, 126
1, 105537, Note_on_c, 0, 41, 100
1, 105537, Note_on_c, 0, 48, 100
1, 105537, Note_on_c, 0, 53, 116
1, 105581, Control_c, 0, 64, 127
1, 106160, Note_on_c, 0, 77, 0
1, 106160, Note_on_c, 0, 68, 0
1, 106160, Note_on_c, 0, 72, 0
1, 106163, Note_on_c, 0, 68, 101
1, 106163, Note_on_c, 0, 72, 101
1, 106163, Note_on_c, 0, 77, 116
1, 106166, Note_on_c, 0, 41, 0
1, 106166, Note_on_c, 0, 53, 0
1, 106166, Note_on_c, 0, 48, 0
1, 106169, Note_on_c, 0, 41, 90
1, 106169, Note_on_c, 0, 48, 90
1, 106169, Note_on_c, 0, 53, 101
1, 106250, Note_on_c, 0, 68, 0
1, 106250, Note_on_c, 0, 77, 0
1, 106250, Note_on_c, 0, 72, 0
1, 106253, Note_on_c, 0, 68, 105
1, 106253, Note_on_c, 0, 72, 105
1, 106253, Note_on_c, 0, 80, 120
1, 106256, Note_on_c, 0, 41, 0
1, 106256, Note_on_c, 0, 53, 0
1, 106256, Note_on_c, 0, 48, 0
1, 106259, Note_on_c, 0, 41, 94
1, 106259, Note_on_c, 0, 53, 108
1, 106259, Control_c, 0, 64, 0
1, 106300, Control_c, 0, 64, 127
1, 106506, Note_on_c, 0, 68, 0
1, 106506, Note_on_c, 0, 80, 0
1, 106506, Note_on_c, 0, 72, 0
1, 106509, Note_on_c, 0, 68, 100
1, 106509, Note_on_c, 0, 72, 100
1, 106509, Note_on_c, 0, 80, 115
1, 106512, Note_on_c, 0, 41, 0
1, 106512, Note_on_c, 0, 53, 0
1, 106512, Note_on_c, 0, 41, 91
1, 106515, Note_on_c, 0, 53, 104
1, 106592, Note_on_c, 0, 72, 0
1, 106592, Note_on_c, 0, 80, 0
1, 106592, Note_on_c, 0, 68, 0
1, 106595, Note_on_c, 0, 68, 105
1, 106595, Note_on_c, 0, 72, 105
1, 106595, Note_on_c, 0, 77, 120
1, 106598, Note_on_c, 0, 41, 0
1, 106598, Note_on_c, 0, 53, 0
1, 106598, Note_on_c, 0, 44, 94
1, 106601, Note_on_c, 0, 56, 108
1, 106845, Note_on_c, 0, 72, 0
1, 106845, Note_on_c, 0, 77, 0
1, 106845, Note_on_c, 0, 68, 0
1, 106848, Note_on_c, 0, 68, 101
1, 106848, Note_on_c, 0, 72, 101
1, 106848, Note_on_c, 0, 77, 116
1, 106851, Note_on_c, 0, 44, 0
1, 106851, Note_on_c, 0, 56, 0
1, 106851, Note_on_c, 0, 44, 90
1, 106854, Note_on_c, 0, 56, 101
1, 106929, Note_on_c, 0, 72, 0
1, 106929, Note_on_c, 0, 77, 0
1, 106929, Note_on_c, 0, 68, 0
1, 106932, Note_on_c, 0, 65, 105
1, 106932, Note_on_c, 0, 68, 105
1, 106932, Note_on_c, 0, 72, 120
1, 106935, Note_on_c, 0, 44, 0
1, 106935, Note_on_c, 0, 56, 0
1, 106935, Control_c, 0, 64, 0
1, 106938, Note_on_c, 0, 29, 94
1, 106938, Note_on_c, 0, 41, 108
1, 106979, Control_c, 0, 64, 127
1, 107181, Note_on_c, 0, 68, 0
1, 107181, Note_on_c, 0, 72, 0
1, 107181, Note_on_c, 0, 65, 0
1, 107184, Note_on_c, 0, 65, 101
1, 107184, Note_on_c, 0, 68, 101
1, 107184, Note_on_c, 0, 72, 116
1, 107187, Note_on_c, 0, 29, 0
1, 107187, Note_on_c, 0, 41, 0
1, 107187, Note_on_c, 0, 29, 90
1, 107190, Note_on_c, 0, 41, 101
1, 107265, Note_on_c, 0, 68, 0
1, 107265, Note_on_c, 0, 72, 0
1, 107265, Note_on_c, 0, 65, 0
1, 107268, Note_on_c, 0, 60, 101
1, 107268, Note_on_c, 0, 65, 101
1, 107268, Note_on_c, 0, 68, 115
1, 107271, Note_on_c, 0, 29, 0
1, 107271, Note_on_c, 0, 41, 0
1, 107271, Note_on_c, 0, 32, 90
1, 107274, Note_on_c, 0, 44, 103
1, 107516, Note_on_c, 0, 65, 0
1, 107516, Note_on_c, 0, 68, 0
1, 107516, Note_on_c, 0, 60, 0
1, 107519, Note_on_c, 0, 60, 96
1, 107519, Note_on_c, 0, 65, 96
1, 107519, Note_on_c, 0, 68, 110
1, 107522, Note_on_c, 0, 32, 0
1, 107522, Note_on_c, 0, 44, 0
1, 107522, Note_on_c, 0, 32, 85
1, 107525, Note_on_c, 0, 44, 97
1, 107600, Note_on_c, 0, 65, 0
1, 107600, Note_on_c, 0, 68, 0
1, 107600, Note_on_c, 0, 60, 0
1, 107603, Note_on_c, 0, 56, 101
1, 107603, Note_on_c, 0, 60, 101
1, 107603, Note_on_c, 0, 65, 115
1, 107606, Note_on_c, 0, 32, 0
1, 107606, Note_on_c, 0, 44, 0
1, 107606, Note_on_c, 0, 36, 90
1, 107609, Note_on_c, 0, 48, 103
1, 107609, Control_c, 0, 64, 0
1, 107634, Control_c, 0, 64, 127
1, 107853, Note_on_c, 0, 60, 0
1, 107853, Note_on_c, 0, 65, 0
1, 107853, Note_on_c, 0, 56, 0
1, 107856, Note_on_c, 0, 56, 96
1, 107856, Note_on_c, 0, 60, 96
1, 107856, Note_on_c, 0, 65, 110
1, 107859, Note_on_c, 0, 36, 0
1, 107859, Note_on_c, 0, 48, 0
1, 107859, Note_on_c, 0, 36, 85
1, 107862, Note_on_c, 0, 48, 97
1, 107938, Note_on_c, 0, 60, 0
1, 107938, Note_on_c, 0, 65, 0
1, 107938, Note_on_c, 0, 56, 0
1, 107941, Note_on_c, 0, 48, 0
1, 107941, Note_on_c, 0, 56, 101
1, 107941, Note_on_c, 0, 60, 115
1, 107944, Note_on_c, 0, 36, 0
1, 107944, Note_on_c, 0, 41, 90
1, 107944, Note_on_c, 0, 53, 103
1, 108191, Note_on_c, 0, 60, 0
1, 108191, Note_on_c, 0, 56, 0
1, 108191, Note_on_c, 0, 56, 95
1, 108194, Note_on_c, 0, 53, 0
1, 108194, Note_on_c, 0, 60, 95
1, 108194, Note_on_c, 0, 65, 109
1, 108197, Note_on_c, 0, 41, 0
1, 108197, Note_on_c, 0, 41, 83
1, 108197, Note_on_c, 0, 53, 95
1, 108275, Note_on_c, 0, 56, 0
1, 108275, Note_on_c, 0, 65, 0
1, 108275, Note_on_c, 0, 60, 0
1, 108278, Note_on_c, 0, 58, 105
1, 108278, Note_on_c, 0, 61, 105
1, 108278, Note_on_c, 0, 66, 120
1, 108281, Note_on_c, 0, 41, 0
1, 108281, Note_on_c, 0, 53, 0
1, 108281, Control_c, 0, 64, 0
1, 108284, Note_on_c, 0, 46, 94
1, 108284, Note_on_c, 0, 49, 94
1, 108284, Note_on_c, 0, 54, 108
1, 108359, Note_on_c, 0, 61, 0
1, 108359, Note_on_c, 0, 66, 0
1, 108359, Note_on_c, 0, 58, 0
1, 108362, Note_on_c, 0, 46, 0
1, 108362, Note_on_c, 0, 49, 0
1, 108362, Note_on_c, 0, 54, 0
1, 108442, Note_on_c, 0, 78, 85
1, 108526, Note_on_c, 0, 82, 89
1, 108540, Note_on_c, 0, 78, 0
1, 108610, Note_on_c, 0, 85, 92
1, 108623, Note_on_c, 0, 82, 0
1, 108693, Note_on_c, 0, 83, 92
1, 108707, Note_on_c, 0, 85, 0
1, 108777, Note_on_c, 0, 82, 91
1, 108790, Note_on_c, 0, 83, 0
1, 108860, Note_on_c, 0, 80, 91
1, 108874, Note_on_c, 0, 82, 0
1, 108944, Note_on_c, 0, 78, 92
1, 108957, Note_on_c, 0, 80, 0
1, 109027, Note_on_c, 0, 77, 92
1, 109041, Note_on_c, 0, 78, 0
1, 109111, Note_on_c, 0, 75, 91
1, 109124, Note_on_c, 0, 77, 0
1, 109194, Note_on_c, 0, 73, 91
1, 109208, Note_on_c, 0, 75, 0
1, 109278, Note_on_c, 0, 71, 91
1, 109291, Note_on_c, 0, 73, 0
1, 109361, Note_on_c, 0, 70, 91
1, 109375, Note_on_c, 0, 71, 0
1, 109445, Note_on_c, 0, 68, 91
1, 109459, Note_on_c, 0, 70, 0
1, 109528, Note_on_c, 0, 66, 91
1, 109542, Note_on_c, 0, 68, 0
1, 109612, Note_on_c, 0, 68, 91
1, 109626, Note_on_c, 0, 66, 0
1, 109696, Note_on_c, 0, 65, 92
1, 109711, Note_on_c, 0, 68, 0
1, 109781, Note_on_c, 0, 66, 96
1, 109781, Note_on_c, 0, 54, 87
1, 109795, Note_on_c, 0, 65, 0
1, 109866, Note_on_c, 0, 70, 99
1, 109866, Note_on_c, 0, 58, 89
1, 109880, Note_on_c, 0, 54, 0
1, 109880, Note_on_c, 0, 66, 0
1, 109951, Note_on_c, 0, 73, 98
1, 109951, Note_on_c, 0, 61, 92
1, 109965, Note_on_c, 0, 70, 0
1, 109965, Note_on_c, 0, 58, 0
1, 110034, Note_on_c, 0, 71, 97
1, 110034, Note_on_c, 0, 59, 90
1, 110048, Note_on_c, 0, 73, 0
1, 110048, Note_on_c, 0, 61, 0
1, 110117, Note_on_c, 0, 70, 97
1, 110117, Note_on_c, 0, 58, 88
1, 110131, Note_on_c, 0, 71, 0
1, 110131, Note_on_c, 0, 59, 0
1, 110200, Note_on_c, 0, 68, 96
1, 110200, Note_on_c, 0, 56, 87
1, 110214, Note_on_c, 0, 70, 0
1, 110214, Note_on_c, 0, 58, 0
1, 110283, Note_on_c, 0, 66, 95
1, 110283, Note_on_c, 0, 54, 85
1, 110297, Note_on_c, 0, 68, 0
1, 110297, Note_on_c, 0, 56, 0
1, 110366, Note_on_c, 0, 65, 95
1, 110366, Note_on_c, 0, 53, 85
1, 110379, Note_on_c, 0, 66, 0
1, 110379, Note_on_c, 0, 54, 0
1, 110448, Note_on_c, 0, 63, 96
1, 110448, Note_on_c, 0, 51, 87
1, 110462, Note_on_c, 0, 65, 0
1, 110462, Note_on_c, 0, 53, 0
1, 110530, Note_on_c, 0, 61, 97
1, 110530, Note_on_c, 0, 49, 88
1, 110544, Note_on_c, 0, 63, 0
1, 110544, Note_on_c, 0, 51, 0
1, 110612, Note_on_c, 0, 59, 98
1, 110612, Note_on_c, 0, 47, 88
1, 110626, Note_on_c, 0, 61, 0
1, 110626, Note_on_c, 0, 49, 0
1, 110694, Note_on_c, 0, 58, 99
1, 110694, Note_on_c, 0, 46, 89
1, 110708, Note_on_c, 0, 59, 0
1, 110708, Note_on_c, 0, 47, 0
1, 110776, Note_on_c, 0, 56, 100
1, 110776, Note_on_c, 0, 44, 90
1, 110790, Note_on_c, 0, 58, 0
1, 110790, Note_on_c, 0, 46, 0
1, 110857, Note_on_c, 0, 54, 103
1, 110857, Note_on_c, 0, 42, 90
1, 110871, Note_on_c, 0, 56, 0
1, 110871, Note_on_c, 0, 44, 0
1, 110939, Note_on_c, 0, 54, 0
1, 110939, Note_on_c, 0, 49, 110
1, 110939, Note_on_c, 0, 54, 110
1, 110942, Note_on_c, 0, 42, 0
1, 110942, Note_on_c, 0, 34, 85
1, 110942, Note_on_c, 0, 46, 97
1, 111010, Control_c, 0, 64, 127
1, 111104, Note_on_c, 0, 54, 0
1, 111104, Note_on_c, 0, 49, 0
1, 111104, Note_on_c, 0, 58, 98
1, 111107, Note_on_c, 0, 46, 0
1, 111107, Note_on_c, 0, 61, 98
1, 111107, Note_on_c, 0, 66, 112
1, 111110, Note_on_c, 0, 34, 0
1, 111269, Note_on_c, 0, 34, 89
1, 111269, Note_on_c, 0, 46, 101
1, 111433, Note_on_c, 0, 58, 0
1, 111433, Note_on_c, 0, 66, 0
1, 111433, Note_on_c, 0, 61, 0
1, 111436, Note_on_c, 0, 61, 97
1, 111436, Note_on_c, 0, 66, 97
1, 111436, Note_on_c, 0, 70, 111
1, 111439, Note_on_c, 0, 34, 0
1, 111439, Note_on_c, 0, 46, 0
1, 111596, Note_on_c, 0, 34, 88
1, 111596, Note_on_c, 0, 46, 100
1, 111760, Note_on_c, 0, 66, 0
1, 111760, Note_on_c, 0, 70, 0
1, 111760, Note_on_c, 0, 61, 0
1, 111763, Note_on_c, 0, 66, 93
1, 111763, Note_on_c, 0, 70, 93
1, 111763, Note_on_c, 0, 73, 105
1, 111766, Note_on_c, 0, 34, 0
1, 111766, Note_on_c, 0, 46, 0
1, 111766, Note_on_c, 0, 34, 76
1, 111769, Note_on_c, 0, 46, 87
1, 111798, Control_c, 0, 64, 0
1, 111841, Note_on_c, 0, 70, 0
1, 111841, Note_on_c, 0, 73, 0
1, 111841, Note_on_c, 0, 66, 0
1, 111844, Note_on_c, 0, 34, 0
1, 111844, Note_on_c, 0, 46, 0
1, 111921, Note_on_c, 0, 70, 95
1, 111921, Note_on_c, 0, 73, 95
1, 111921, Note_on_c, 0, 78, 109
1, 111924, Note_on_c, 0, 34, 81
1, 111924, Note_on_c, 0, 46, 91
1, 112002, Note_on_c, 0, 78, 0
1, 112002, Note_on_c, 0, 70, 0
1, 112002, Note_on_c, 0, 73, 0
1, 112005, Note_on_c, 0, 34, 0
1, 112005, Note_on_c, 0, 46, 0
1, 112083, Note_on_c, 0, 73, 98
1, 112083, Note_on_c, 0, 78, 98
1, 112083, Note_on_c, 0, 82, 112
1, 112086, Note_on_c, 0, 34, 84
1, 112086, Note_on_c, 0, 46, 96
1, 112169, Note_on_c, 0, 82, 0
1, 112169, Note_on_c, 0, 73, 0
1, 112169, Note_on_c, 0, 78, 0
1, 112172, Note_on_c, 0, 34, 0
1, 112172, Note_on_c, 0, 46, 0
1, 112214, Control_c, 0, 64, 0
1, 112254, Note_on_c, 0, 58, 99
1, 112254, Note_on_c, 0, 64, 99
1, 112254, Note_on_c, 0, 67, 110
1, 112257, Control_c, 0, 64, 127
1, 112257, Note_on_c, 0, 36, 85
1, 112257, Note_on_c, 0, 48, 97
1, 112420, Note_on_c, 0, 67, 0
1, 112420, Note_on_c, 0, 58, 0
1, 112420, Note_on_c, 0, 64, 0
1, 112423, Note_on_c, 0, 64, 98
1, 112423, Note_on_c, 0, 67, 98
1, 112423, Note_on_c, 0, 70, 112
1, 112426, Note_on_c, 0, 36, 0
1, 112426, Note_on_c, 0, 48, 0
1, 112585, Note_on_c, 0, 36, 89
1, 112585, Note_on_c, 0, 48, 101
1, 112748, Note_on_c, 0, 67, 0
1, 112748, Note_on_c, 0, 70, 0
1, 112748, Note_on_c, 0, 64, 0
1, 112751, Note_on_c, 0, 67, 97
1, 112751, Note_on_c, 0, 70, 97
1, 112751, Note_on_c, 0, 76, 111
1, 112754, Note_on_c, 0, 36, 0
1, 112754, Note_on_c, 0, 48, 0
1, 112912, Note_on_c, 0, 36, 88
1, 112912, Note_on_c, 0, 48, 100
1, 113075, Note_on_c, 0, 70, 0
1, 113075, Note_on_c, 0, 76, 0
1, 113075, Note_on_c, 0, 67, 0
1, 113078, Note_on_c, 0, 70, 93
1, 113078, Note_on_c, 0, 76, 93
1, 113078, Note_on_c, 0, 79, 105
1, 113081, Note_on_c, 0, 36, 0
1, 113081, Note_on_c, 0, 48, 0
1, 113081, Note_on_c, 0, 36, 76
1, 113084, Note_on_c, 0, 48, 87
1, 113114, Control_c, 0, 64, 0
1, 113156, Note_on_c, 0, 76, 0
1, 113156, Note_on_c, 0, 79, 0
1, 113156, Note_on_c, 0, 70, 0
1, 113159, Note_on_c, 0, 36, 0
1, 113159, Note_on_c, 0, 48, 0
1, 113237, Note_on_c, 0, 76, 95
1, 113237, Note_on_c, 0, 79, 95
1, 113237, Note_on_c, 0, 82, 109
1, 113240, Note_on_c, 0, 36, 81
1, 113240, Note_on_c, 0, 48, 91
1, 113318, Note_on_c, 0, 82, 0
1, 113318, Note_on_c, 0, 76, 0
1, 113318, Note_on_c, 0, 79, 0
1, 113321, Note_on_c, 0, 36, 0
1, 113321, Note_on_c, 0, 48, 0
1, 113398, Note_on_c, 0, 79, 98
1, 113398, Note_on_c, 0, 82, 98
1, 113398, Note_on_c, 0, 88, 112
1, 113401, Note_on_c, 0, 36, 84
1, 113401, Note_on_c, 0, 48, 96
1, 113483, Note_on_c, 0, 88, 0
1, 113483, Note_on_c, 0, 79, 0
1, 113483, Note_on_c, 0, 82, 0
1, 113486, Note_on_c, 0, 36, 0
1, 113486, Note_on_c, 0, 48, 0
1, 113568, Note_on_c, 0, 77, 113
1, 113568, Note_on_c, 0, 80, 113
1, 113568, Note_on_c, 0, 84, 113
1, 113571, Note_on_c, 0, 89, 126
1, 113571, Note_on_c, 0, 41, 91
1, 113594, Control_c, 0, 64, 127
1, 113656, Note_on_c, 0, 41, 0
1, 113656, Note_on_c, 0, 44, 81
1, 113743, Note_on_c, 0, 44, 0
1, 113743, Note_on_c, 0, 48, 81
1, 113830, Note_on_c, 0, 48, 0
1, 113830, Note_on_c, 0, 53, 81
1, 113916, Note_on_c, 0, 53, 0
1, 113916, Note_on_c, 0, 41, 91
1, 114002, Note_on_c, 0, 41, 0
1, 114002, Note_on_c, 0, 44, 81
1, 114087, Note_on_c, 0, 44, 0
1, 114087, Note_on_c, 0, 48, 81
1, 114172, Note_on_c, 0, 89, 0
1, 114172, Note_on_c, 0, 80, 0
1, 114172, Note_on_c, 0, 77, 0
1, 114175, Note_on_c, 0, 84, 0
1, 114175, Note_on_c, 0, 77, 101
1, 114175, Note_on_c, 0, 89, 116
1, 114178, Note_on_c, 0, 48, 0
1, 114178, Note_on_c, 0, 53, 81
1, 114257, Note_on_c, 0, 89, 0
1, 114257, Note_on_c, 0, 77, 0
1, 114257, Note_on_c, 0, 80, 105
1, 114260, Note_on_c, 0, 53, 0
1, 114260, Note_on_c, 0, 92, 120
1, 114260, Note_on_c, 0, 41, 91
1, 114281, Control_c, 0, 64, 0
1, 114318, Control_c, 0, 64, 127
1, 114341, Note_on_c, 0, 41, 0
1, 114341, Note_on_c, 0, 44, 80
1, 114426, Note_on_c, 0, 44, 0
1, 114426, Note_on_c, 0, 48, 81
1, 114510, Note_on_c, 0, 92, 0
1, 114510, Note_on_c, 0, 80, 0
1, 114510, Note_on_c, 0, 80, 100
1, 114513, Note_on_c, 0, 48, 0
1, 114513, Note_on_c, 0, 92, 115
1, 114513, Note_on_c, 0, 53, 81
1, 114593, Note_on_c, 0, 92, 0
1, 114593, Note_on_c, 0, 80, 0
1, 114593, Note_on_c, 0, 77, 105
1, 114596, Note_on_c, 0, 53, 0
1, 114596, Note_on_c, 0, 89, 120
1, 114596, Note_on_c, 0, 41, 91
1, 114677, Note_on_c, 0, 41, 0
1, 114677, Note_on_c, 0, 44, 83
1, 114761, Note_on_c, 0, 44, 0
1, 114761, Note_on_c, 0, 48, 83
1, 114844, Note_on_c, 0, 89, 0
1, 114844, Note_on_c, 0, 77, 0
1, 114844, Note_on_c, 0, 77, 101
1, 114847, Note_on_c, 0, 48, 0
1, 114847, Note_on_c, 0, 89, 116
1, 114847, Note_on_c, 0, 53, 84
1, 114928, Note_on_c, 0, 89, 0
1, 114928, Note_on_c, 0, 77, 0
1, 114928, Note_on_c, 0, 73, 105
1, 114931, Note_on_c, 0, 53, 0
1, 114931, Note_on_c, 0, 85, 120
1, 114931, Control_c, 0, 64, 0
1, 114934, Note_on_c, 0, 41, 91
1, 114956, Control_c, 0, 64, 127
1, 115011, Note_on_c, 0, 41, 0
1, 115011, Note_on_c, 0, 44, 82
1, 115094, Note_on_c, 0, 44, 0
1, 115094, Note_on_c, 0, 49, 82
1, 115177, Note_on_c, 0, 85, 0
1, 115177, Note_on_c, 0, 73, 0
1, 115177, Note_on_c, 0, 73, 101
1, 115180, Note_on_c, 0, 49, 0
1, 115180, Note_on_c, 0, 85, 116
1, 115180, Note_on_c, 0, 53, 82
1, 115261, Note_on_c, 0, 85, 0
1, 115261, Note_on_c, 0, 73, 0
1, 115261, Note_on_c, 0, 68, 101
1, 115264, Note_on_c, 0, 53, 0
1, 115264, Note_on_c, 0, 80, 115
1, 115264, Note_on_c, 0, 41, 91
1, 115264, Control_c, 0, 64, 0
1, 115284, Control_c, 0, 64, 127
1, 115345, Note_on_c, 0, 41, 0
1, 115345, Note_on_c, 0, 44, 84
1, 115428, Note_on_c, 0, 44, 0
1, 115428, Note_on_c, 0, 49, 84
1, 115512, Note_on_c, 0, 80, 0
1, 115512, Note_on_c, 0, 68, 0
1, 115512, Note_on_c, 0, 68, 96
1, 115515, Note_on_c, 0, 49, 0
1, 115515, Note_on_c, 0, 80, 110
1, 115515, Note_on_c, 0, 53, 84
1, 115597, Note_on_c, 0, 80, 0
1, 115597, Note_on_c, 0, 68, 0
1, 115597, Note_on_c, 0, 69, 101
1, 115600, Note_on_c, 0, 53, 0
1, 115600, Note_on_c, 0, 81, 115
1, 115600, Note_on_c, 0, 41, 91
1, 115626, Control_c, 0, 64, 0
1, 115663, Control_c, 0, 64, 127
1, 115683, Note_on_c, 0, 41, 0
1, 115683, Note_on_c, 0, 48, 82
1, 115768, Note_on_c, 0, 48, 0
1, 115768, Note_on_c, 0, 51, 82
1, 115854, Note_on_c, 0, 81, 0
1, 115854, Note_on_c, 0, 69, 0
1, 115854, Note_on_c, 0, 69, 96
1, 115857, Note_on_c, 0, 51, 0
1, 115857, Note_on_c, 0, 81, 110
1, 115857, Note_on_c, 0, 53, 82
1, 115940, Note_on_c, 0, 81, 0
1, 115940, Note_on_c, 0, 69, 0
1, 115940, Note_on_c, 0, 65, 101
1, 115943, Note_on_c, 0, 53, 0
1, 115943, Note_on_c, 0, 77, 115
1, 115943, Note_on_c, 0, 41, 91
1, 115970, Control_c, 0, 64, 0
1, 115986, Control_c, 0, 64, 127
1, 116027, Note_on_c, 0, 41, 0
1, 116027, Note_on_c, 0, 48, 81
1, 116113, Note_on_c, 0, 48, 0
1, 116113, Note_on_c, 0, 51, 81
1, 116199, Note_on_c, 0, 77, 0
1, 116199, Note_on_c, 0, 65, 0
1, 116199, Note_on_c, 0, 65, 95
1, 116202, Note_on_c, 0, 51, 0
1, 116202, Note_on_c, 0, 77, 109
1, 116202, Note_on_c, 0, 53, 81
1, 116286, Note_on_c, 0, 77, 0
1, 116286, Note_on_c, 0, 65, 0
1, 116286, Note_on_c, 0, 70, 103
1, 116289, Note_on_c, 0, 73, 103
1, 116289, Note_on_c, 0, 77, 103
1, 116289, Note_on_c, 0, 82, 118
1, 116292, Note_on_c, 0, 53, 0
1, 116292, Note_on_c, 0, 41, 91
1, 116292, Control_c, 0, 64, 0
1, 116316, Control_c, 0, 64, 127
1, 116374, Note_on_c, 0, 41, 0
1, 116374, Note_on_c, 0, 46, 81
1, 116461, Note_on_c, 0, 46, 0
1, 116461, Note_on_c, 0, 49, 81
1, 116547, Note_on_c, 0, 49, 0
1, 116547, Note_on_c, 0, 53, 81
1, 116633, Note_on_c, 0, 53, 0
1, 116633, Note_on_c, 0, 41, 91
1, 116719, Note_on_c, 0, 41, 0
1, 116719, Note_on_c, 0, 46, 79
1, 116805, Note_on_c, 0, 46, 0
1, 116805, Note_on_c, 0, 49, 79
1, 116890, Note_on_c, 0, 70, 0
1, 116890, Note_on_c, 0, 82, 0
1, 116890, Note_on_c, 0, 73, 0
1, 116893, Note_on_c, 0, 77, 0
1, 116893, Note_on_c, 0, 82, 97
1, 116893, Note_on_c, 0, 94, 111
1, 116896, Note_on_c, 0, 49, 0
1, 116896, Note_on_c, 0, 53, 78
1, 116975, Note_on_c, 0, 94, 0
1, 116975, Note_on_c, 0, 82, 0
1, 116975, Note_on_c, 0, 85, 101
1, 116978, Note_on_c, 0, 53, 0
1, 116978, Note_on_c, 0, 97, 115
1, 116978, Note_on_c, 0, 41, 87
1, 116999, Control_c, 0, 64, 0
1, 117035, Control_c, 0, 64, 127
1, 117059, Note_on_c, 0, 41, 0
1, 117059, Note_on_c, 0, 46, 77
1, 117143, Note_on_c, 0, 46, 0
1, 117143, Note_on_c, 0, 49, 78
1, 117227, Note_on_c, 0, 97, 0
1, 117227, Note_on_c, 0, 85, 0
1, 117227, Note_on_c, 0, 85, 96
1, 117230, Note_on_c, 0, 49, 0
1, 117230, Note_on_c, 0, 97, 110
1, 117230, Note_on_c, 0, 53, 78
1, 117311, Note_on_c, 0, 97, 0
1, 117311, Note_on_c, 0, 85, 0
1, 117311, Note_on_c, 0, 82, 101
1, 117314, Note_on_c, 0, 53, 0
1, 117314, Note_on_c, 0, 94, 115
1, 117314, Note_on_c, 0, 41, 87
1, 117395, Note_on_c, 0, 41, 0
1, 117395, Note_on_c, 0, 46, 80
1, 117478, Note_on_c, 0, 46, 0
1, 117478, Note_on_c, 0, 49, 80
1, 117562, Note_on_c, 0, 94, 0
1, 117562, Note_on_c, 0, 82, 0
1, 117562, Note_on_c, 0, 82, 97
1, 117565, Note_on_c, 0, 49, 0
1, 117565, Note_on_c, 0, 94, 111
1, 117565, Note_on_c, 0, 53, 81
1, 117645, Note_on_c, 0, 94, 0
1, 117645, Note_on_c, 0, 82, 0
1, 117645, Note_on_c, 0, 78, 101
1, 117648, Note_on_c, 0, 53, 0
1, 117648, Note_on_c, 0, 90, 115
1, 117648, Control_c, 0, 64, 0
1, 117651, Note_on_c, 0, 42, 87
1, 117673, Control_c, 0, 64, 127
1, 117728, Note_on_c, 0, 42, 0
1, 117728, Note_on_c, 0, 46, 79
1, 117811, Note_on_c, 0, 46, 0
1, 117811, Note_on_c, 0, 49, 79
1, 117895, Note_on_c, 0, 90, 0
1, 117895, Note_on_c, 0, 78, 0
1, 117895, Note_on_c, 0, 78, 97
1, 117898, Note_on_c, 0, 49, 0
1, 117898, Note_on_c, 0, 90, 111
1, 117898, Note_on_c, 0, 54, 79
1, 117978, Note_on_c, 0, 90, 0
1, 117978, Note_on_c, 0, 78, 0
1, 117978, Note_on_c, 0, 77, 97
1, 117981, Note_on_c, 0, 54, 0
1, 117981, Note_on_c, 0, 89, 110
1, 117981, Note_on_c, 0, 42, 87
1, 117981, Control_c, 0, 64, 0
1, 118002, Control_c, 0, 64, 127
1, 118062, Note_on_c, 0, 42, 0
1, 118062, Note_on_c, 0, 46, 81
1, 118146, Note_on_c, 0, 46, 0
1, 118146, Note_on_c, 0, 49, 81
1, 118230, Note_on_c, 0, 89, 0
1, 118230, Note_on_c, 0, 77, 0
1, 118230, Note_on_c, 0, 77, 92
1, 118233, Note_on_c, 0, 49, 0
1, 118233, Note_on_c, 0, 89, 104
1, 118233, Note_on_c, 0, 54, 81
1, 118315, Note_on_c, 0, 89, 0
1, 118315, Note_on_c, 0, 77, 0
1, 118315, Note_on_c, 0, 76, 97
1, 118318, Note_on_c, 0, 54, 0
1, 118318, Note_on_c, 0, 88, 110
1, 118318, Note_on_c, 0, 43, 87
1, 118343, Control_c, 0, 64, 0
1, 118380, Control_c, 0, 64, 127
1, 118400, Note_on_c, 0, 43, 0
1, 118400, Note_on_c, 0, 46, 79
1, 118485, Note_on_c, 0, 46, 0
1, 118485, Note_on_c, 0, 48, 79
1, 118571, Note_on_c, 0, 88, 0
1, 118571, Note_on_c, 0, 76, 0
1, 118571, Note_on_c, 0, 76, 92
1, 118574, Note_on_c, 0, 48, 0
1, 118574, Note_on_c, 0, 88, 104
1, 118574, Note_on_c, 0, 55, 79
1, 118657, Note_on_c, 0, 88, 0
1, 118657, Note_on_c, 0, 76, 0
1, 118657, Note_on_c, 0, 84, 97
1, 118660, Note_on_c, 0, 55, 0
1, 118660, Note_on_c, 0, 96, 110
1, 118660, Note_on_c, 0, 43, 87
1, 118688, Control_c, 0, 64, 0
1, 118704, Control_c, 0, 64, 127
1, 118744, Note_on_c, 0, 43, 0
1, 118744, Note_on_c, 0, 46, 78
1, 118830, Note_on_c, 0, 46, 0
1, 118830, Note_on_c, 0, 48, 78
1, 118917, Note_on_c, 0, 96, 0
1, 118917, Note_on_c, 0, 84, 0
1, 118917, Note_on_c, 0, 84, 91
1, 118920, Note_on_c, 0, 48, 0
1, 118920, Note_on_c, 0, 96, 103
1, 118920, Note_on_c, 0, 55, 78
1, 119003, Note_on_c, 0, 96, 0
1, 119003, Note_on_c, 0, 84, 0
1, 119003, Note_on_c, 0, 77, 103
1, 119006, Note_on_c, 0, 80, 103
1, 119006, Note_on_c, 0, 84, 103
1, 119006, Note_on_c, 0, 89, 118
1, 119009, Note_on_c, 0, 55, 0
1, 119009, Note_on_c, 0, 44, 87
1, 119009, Control_c, 0, 64, 0
1, 119029, Control_c, 0, 64, 127
1, 119091, Note_on_c, 0, 44, 0
1, 119091, Note_on_c, 0, 48, 78
1, 119178, Note_on_c, 0, 48, 0
1, 119178, Note_on_c, 0, 53, 78
1, 119264, Note_on_c, 0, 53, 0
1, 119264, Note_on_c, 0, 56, 78
1, 119351, Note_on_c, 0, 56, 0
1, 119351, Note_on_c, 0, 44, 87
1, 119436, Note_on_c, 0, 44, 0
1, 119436, Note_on_c, 0, 48, 78
1, 119522, Note_on_c, 0, 48, 0
1, 119522, Note_on_c, 0, 53, 78
1, 119607, Note_on_c, 0, 77, 0
1, 119607, Note_on_c, 0, 89, 0
1, 119607, Note_on_c, 0, 80, 0
1, 119610, Note_on_c, 0, 84, 0
1, 119610, Note_on_c, 0, 77, 97
1, 119610, Note_on_c, 0, 89, 111
1, 119613, Note_on_c, 0, 53, 0
1, 119613, Note_on_c, 0, 56, 78
1, 119692, Note_on_c, 0, 89, 0
1, 119692, Note_on_c, 0, 77, 0
1, 119692, Note_on_c, 0, 80, 101
1, 119695, Note_on_c, 0, 56, 0
1, 119695, Note_on_c, 0, 92, 115
1, 119695, Control_c, 0, 64, 0
1, 119698, Note_on_c, 0, 44, 87
1, 119724, Control_c, 0, 64, 127
1, 119776, Note_on_c, 0, 44, 0
1, 119776, Note_on_c, 0, 48, 77
1, 119860, Note_on_c, 0, 48, 0
1, 119860, Note_on_c, 0, 53, 78
1, 119944, Note_on_c, 0, 92, 0
1, 119944, Note_on_c, 0, 80, 0
1, 119944, Note_on_c, 0, 80, 96
1, 119947, Note_on_c, 0, 53, 0
1, 119947, Note_on_c, 0, 92, 110
1, 119947, Note_on_c, 0, 56, 78
1, 120028, Note_on_c, 0, 92, 0
1, 120028, Note_on_c, 0, 80, 0
1, 120028, Note_on_c, 0, 77, 101
1, 120031, Note_on_c, 0, 56, 0
1, 120031, Note_on_c, 0, 89, 115
1, 120031, Note_on_c, 0, 44, 87
1, 120112, Note_on_c, 0, 44, 0
1, 120112, Note_on_c, 0, 48, 80
1, 120196, Note_on_c, 0, 48, 0
1, 120196, Note_on_c, 0, 53, 80
1, 120279, Note_on_c, 0, 89, 0
1, 120279, Note_on_c, 0, 77, 0
1, 120279, Note_on_c, 0, 77, 97
1, 120282, Note_on_c, 0, 53, 0
1, 120282, Note_on_c, 0, 89, 111
1, 120282, Note_on_c, 0, 56, 81
1, 120363, Note_on_c, 0, 89, 0
1, 120363, Note_on_c, 0, 77, 0
1, 120363, Note_on_c, 0, 73, 101
1, 120366, Note_on_c, 0, 56, 0
1, 120366, Note_on_c, 0, 85, 115
1, 120366, Control_c, 0, 64, 0
1, 120369, Note_on_c, 0, 44, 87
1, 120390, Control_c, 0, 64, 127
1, 120446, Note_on_c, 0, 44, 0
1, 120446, Note_on_c, 0, 49, 79
1, 120529, Note_on_c, 0, 49, 0
1, 120529, Note_on_c, 0, 53, 79
1, 120612, Note_on_c, 0, 85, 0
1, 120612, Note_on_c, 0, 73, 0
1, 120612, Note_on_c, 0, 73, 97
1, 120615, Note_on_c, 0, 53, 0
1, 120615, Note_on_c, 0, 85, 111
1, 120615, Note_on_c, 0, 56, 79
1, 120695, Note_on_c, 0, 85, 0
1, 120695, Note_on_c, 0, 73, 0
1, 120695, Note_on_c, 0, 68, 97
1, 120698, Note_on_c, 0, 56, 0
1, 120698, Note_on_c, 0, 80, 110
1, 120698, Note_on_c, 0, 44, 87
1, 120698, Control_c, 0, 64, 0
1, 120719, Control_c, 0, 64, 127
1, 120779, Note_on_c, 0, 44, 0
1, 120779, Note_on_c, 0, 49, 81
1, 120863, Note_on_c, 0, 49, 0
1, 120863, Note_on_c, 0, 53, 81
1, 120947, Note_on_c, 0, 80, 0
1, 120947, Note_on_c, 0, 68, 0
1, 120947, Note_on_c, 0, 68, 92
1, 120950, Note_on_c, 0, 53, 0
1, 120950, Note_on_c, 0, 80, 104
1, 120950, Note_on_c, 0, 56, 81
1, 121032, Note_on_c, 0, 80, 0
1, 121032, Note_on_c, 0, 68, 0
1, 121032, Note_on_c, 0, 72, 97
1, 121035, Note_on_c, 0, 56, 0
1, 121035, Note_on_c, 0, 84, 110
1, 121035, Note_on_c, 0, 44, 87
1, 121044, Control_c, 0, 64, 0
1, 121065, Control_c, 0, 64, 127
1, 121117, Note_on_c, 0, 44, 0
1, 121117, Note_on_c, 0, 51, 79
1, 121203, Note_on_c, 0, 51, 0
1, 121203, Note_on_c, 0, 54, 79
1, 121289, Note_on_c, 0, 84, 0
1, 121289, Note_on_c, 0, 72, 0
1, 121289, Note_on_c, 0, 72, 92
1, 121292, Note_on_c, 0, 54, 0
1, 121292, Note_on_c, 0, 84, 104
1, 121292, Note_on_c, 0, 56, 79
1, 121375, Note_on_c, 0, 84, 0
1, 121375, Note_on_c, 0, 72, 0
1, 121375, Note_on_c, 0, 68, 97
1, 121378, Note_on_c, 0, 56, 0
1, 121378, Note_on_c, 0, 80, 110
1, 121378, Note_on_c, 0, 44, 87
1, 121405, Control_c, 0, 64, 0
1, 121421, Control_c, 0, 64, 127
1, 121461, Note_on_c, 0, 44, 0
1, 121461, Note_on_c, 0, 51, 78
1, 121548, Note_on_c, 0, 51, 0
1, 121548, Note_on_c, 0, 54, 78
1, 121634, Note_on_c, 0, 80, 0
1, 121634, Note_on_c, 0, 68, 0
1, 121634, Note_on_c, 0, 68, 91
1, 121637, Note_on_c, 0, 54, 0
1, 121637, Note_on_c, 0, 80, 103
1, 121637, Note_on_c, 0, 56, 78
1, 121720, Note_on_c, 0, 80, 0
1, 121720, Note_on_c, 0, 68, 0
1, 121720, Note_on_c, 0, 73, 103
1, 121723, Note_on_c, 0, 77, 103
1, 121723, Note_on_c, 0, 80, 103
1, 121723, Note_on_c, 0, 85, 118
1, 121726, Note_on_c, 0, 56, 0
1, 121726, Control_c, 0, 64, 0
1, 121726, Note_on_c, 0, 44, 91
1, 121763, Control_c, 0, 64, 127
1, 121808, Note_on_c, 0, 44, 0
1, 121808, Note_on_c, 0, 49, 81
1, 121895, Note_on_c, 0, 49, 0
1, 121895, Note_on_c, 0, 53, 81
1, 121982, Note_on_c, 0, 53, 0
1, 121982, Note_on_c, 0, 56, 81
1, 122068, Note_on_c, 0, 56, 0
1, 122068, Note_on_c, 0, 44, 91
1, 122154, Note_on_c, 0, 44, 0
1, 122154, Note_on_c, 0, 49, 79
1, 122239, Note_on_c, 0, 49, 0
1, 122239, Note_on_c, 0, 53, 79
1, 122325, Note_on_c, 0, 73, 0
1, 122325, Note_on_c, 0, 85, 0
1, 122325, Note_on_c, 0, 77, 0
1, 122328, Note_on_c, 0, 80, 0
1, 122328, Note_on_c, 0, 73, 93
1, 122328, Note_on_c, 0, 85, 105
1, 122331, Note_on_c, 0, 53, 0
1, 122331, Note_on_c, 0, 56, 75
1, 122409, Note_on_c, 0, 85, 0
1, 122409, Note_on_c, 0, 73, 0
1, 122409, Note_on_c, 0, 77, 97
1, 122412, Note_on_c, 0, 56, 0
1, 122412, Note_on_c, 0, 89, 110
1, 122412, Control_c, 0, 64, 0
1, 122415, Note_on_c, 0, 45, 83
1, 122433, Control_c, 0, 64, 127
1, 122494, Note_on_c, 0, 45, 0
1, 122494, Note_on_c, 0, 49, 74
1, 122578, Note_on_c, 0, 49, 0
1, 122578, Note_on_c, 0, 53, 75
1, 122662, Note_on_c, 0, 89, 0
1, 122662, Note_on_c, 0, 77, 0
1, 122662, Note_on_c, 0, 77, 92
1, 122665, Note_on_c, 0, 53, 0
1, 122665, Note_on_c, 0, 89, 104
1, 122665, Note_on_c, 0, 57, 75
1, 122746, Note_on_c, 0, 89, 0
1, 122746, Note_on_c, 0, 77, 0
1, 122746, Note_on_c, 0, 73, 97
1, 122749, Note_on_c, 0, 57, 0
1, 122749, Note_on_c, 0, 85, 110
1, 122749, Note_on_c, 0, 46, 83
1, 122829, Note_on_c, 0, 46, 0
1, 122829, Note_on_c, 0, 49, 77
1, 122913, Note_on_c, 0, 49, 0
1, 122913, Note_on_c, 0, 53, 77
1, 122996, Note_on_c, 0, 85, 0
1, 122996, Note_on_c, 0, 73, 0
1, 122996, Note_on_c, 0, 73, 93
1, 122999, Note_on_c, 0, 53, 0
1, 122999, Note_on_c, 0, 85, 105
1, 122999, Note_on_c, 0, 58, 78
1, 123080, Note_on_c, 0, 85, 0
1, 123080, Note_on_c, 0, 73, 0
1, 123080, Note_on_c, 0, 72, 97
1, 123083, Note_on_c, 0, 58, 0
1, 123083, Note_on_c, 0, 84, 110
1, 123083, Control_c, 0, 64, 0
1, 123086, Note_on_c, 0, 48, 83
1, 123108, Control_c, 0, 64, 127
1, 123163, Note_on_c, 0, 48, 0
1, 123163, Note_on_c, 0, 53, 76
1, 123246, Note_on_c, 0, 53, 0
1, 123246, Note_on_c, 0, 56, 76
1, 123329, Note_on_c, 0, 84, 0
1, 123329, Note_on_c, 0, 72, 0
1, 123329, Note_on_c, 0, 72, 93
1, 123332, Note_on_c, 0, 56, 0
1, 123332, Note_on_c, 0, 84, 105
1, 123332, Note_on_c, 0, 60, 76
1, 123413, Note_on_c, 0, 84, 0
1, 123413, Note_on_c, 0, 72, 0
1, 123413, Note_on_c, 0, 70, 93
1, 123416, Note_on_c, 0, 60, 0
1, 123416, Note_on_c, 0, 82, 104
1, 123416, Note_on_c, 0, 49, 83
1, 123416, Control_c, 0, 64, 0
1, 123437, Control_c, 0, 64, 127
1, 123497, Note_on_c, 0, 49, 0
1, 123497, Note_on_c, 0, 53, 78
1, 123580, Note_on_c, 0, 53, 0
1, 123580, Note_on_c, 0, 56, 78
1, 123665, Note_on_c, 0, 82, 0
1, 123665, Note_on_c, 0, 70, 0
1, 123665, Note_on_c, 0, 70, 88
1, 123668, Note_on_c, 0, 56, 0
1, 123668, Note_on_c, 0, 82, 100
1, 123668, Note_on_c, 0, 61, 78
1, 123749, Note_on_c, 0, 82, 0
1, 123749, Note_on_c, 0, 70, 0
1, 123749, Note_on_c, 0, 72, 93
1, 123752, Note_on_c, 0, 61, 0
1, 123752, Note_on_c, 0, 84, 104
1, 123752, Control_c, 0, 64, 0
1, 123755, Note_on_c, 0, 48, 83
1, 123778, Control_c, 0, 64, 127
1, 123835, Note_on_c, 0, 48, 0
1, 123835, Note_on_c, 0, 53, 76
1, 123920, Note_on_c, 0, 53, 0
1, 123920, Note_on_c, 0, 56, 76
1, 124006, Note_on_c, 0, 84, 0
1, 124006, Note_on_c, 0, 72, 0
1, 124006, Note_on_c, 0, 72, 88
1, 124009, Note_on_c, 0, 56, 0
1, 124009, Note_on_c, 0, 84, 100
1, 124009, Note_on_c, 0, 60, 76
1, 124092, Note_on_c, 0, 84, 0
1, 124092, Note_on_c, 0, 72, 0
1, 124092, Note_on_c, 0, 72, 93
1, 124095, Note_on_c, 0, 60, 0
1, 124095, Note_on_c, 0, 84, 104
1, 124095, Note_on_c, 0, 48, 83
1, 124122, Control_c, 0, 64, 0
1, 124138, Control_c, 0, 64, 127
1, 124179, Note_on_c, 0, 48, 0
1, 124179, Note_on_c, 0, 53, 75
1, 124265, Note_on_c, 0, 53, 0
1, 124265, Note_on_c, 0, 56, 75
1, 124351, Note_on_c, 0, 84, 0
1, 124351, Note_on_c, 0, 72, 0
1, 124351, Note_on_c, 0, 72, 87
1, 124354, Note_on_c, 0, 56, 0
1, 124354, Note_on_c, 0, 84, 99
1, 124354, Note_on_c, 0, 60, 75
1, 124438, Note_on_c, 0, 84, 0
1, 124438, Note_on_c, 0, 72, 0
1, 124438, Note_on_c, 0, 72, 90
1, 124441, Note_on_c, 0, 60, 0
1, 124441, Note_on_c, 0, 84, 100
1, 124441, Control_c, 0, 64, 0
1, 124444, Note_on_c, 0, 48, 80
1, 124480, Control_c, 0, 64, 127
1, 124525, Note_on_c, 0, 48, 0
1, 124525, Note_on_c, 0, 53, 73
1, 124611, Note_on_c, 0, 53, 0
1, 124611, Note_on_c, 0, 55, 72
1, 124696, Note_on_c, 0, 84, 0
1, 124696, Note_on_c, 0, 72, 0
1, 124696, Note_on_c, 0, 72, 81
1, 124699, Note_on_c, 0, 55, 0
1, 124699, Note_on_c, 0, 84, 92
1, 124699, Note_on_c, 0, 60, 71
1, 124783, Note_on_c, 0, 84, 0
1, 124783, Note_on_c, 0, 72, 0
1, 124783, Note_on_c, 0, 72, 84
1, 124786, Note_on_c, 0, 60, 0
1, 124786, Note_on_c, 0, 84, 95
1, 124786, Note_on_c, 0, 48, 75
1, 124813, Control_c, 0, 64, 0
1, 124829, Control_c, 0, 64, 127
1, 124869, Note_on_c, 0, 48, 0
1, 124869, Note_on_c, 0, 52, 68
1, 124955, Note_on_c, 0, 52, 0
1, 124955, Note_on_c, 0, 55, 67
1, 125042, Note_on_c, 0, 84, 0
1, 125042, Note_on_c, 0, 72, 0
1, 125042, Note_on_c, 0, 72, 75
1, 125045, Note_on_c, 0, 55, 0
1, 125045, Note_on_c, 0, 84, 85
1, 125045, Note_on_c, 0, 60, 66
1, 125123, Control_c, 0, 64, 0
1, 125128, Note_on_c, 0, 84, 0
1, 125128, Note_on_c, 0, 72, 0
1, 125128, Note_on_c, 0, 77, 82
1, 125131, Note_on_c, 0, 60, 0
1, 125131, Note_on_c, 0, 41, 66
1, 125194, Control_c, 0, 64, 127
1, 125243, Note_on_c, 0, 41, 0
1, 125243, Note_on_c, 0, 57, 66
1, 125359, Note_on_c, 0, 57, 0
1, 125359, Note_on_c, 0, 60, 58
1, 125469, Control_c, 0, 64, 0
1, 125474, Note_on_c, 0, 60, 0
1, 125474, Note_on_c, 0, 77, 0
1, 125474, Note_on_c, 0, 53, 58
1, 125514, Control_c, 0, 64, 127
1, 125589, Note_on_c, 0, 53, 0
1, 125589, Note_on_c, 0, 57, 54
1, 125704, Note_on_c, 0, 57, 0
1, 125704, Note_on_c, 0, 60, 54
1, 125733, Note_on_c, 0, 77, 67
1, 125819, Note_on_c, 0, 77, 0
1, 125819, Note_on_c, 0, 60, 0
1, 125819, Note_on_c, 0, 81, 72
1, 125822, Note_on_c, 0, 53, 58
1, 125849, Control_c, 0, 64, 0
1, 125894, Control_c, 0, 64, 127
1, 125932, Note_on_c, 0, 53, 0
1, 125932, Note_on_c, 0, 57, 53
1, 126044, Note_on_c, 0, 57, 0
1, 126044, Note_on_c, 0, 60, 53
1, 126072, Note_on_c, 0, 81, 0
1, 126072, Note_on_c, 0, 81, 67
1, 126155, Note_on_c, 0, 81, 0
1, 126155, Note_on_c, 0, 60, 0
1, 126155, Note_on_c, 0, 77, 72
1, 126158, Note_on_c, 0, 53, 58
1, 126267, Note_on_c, 0, 53, 0
1, 126267, Note_on_c, 0, 57, 54
1, 126379, Note_on_c, 0, 57, 0
1, 126379, Note_on_c, 0, 60, 54
1, 126406, Note_on_c, 0, 77, 0
1, 126406, Note_on_c, 0, 77, 66
1, 126490, Note_on_c, 0, 77, 0
1, 126490, Note_on_c, 0, 60, 0
1, 126490, Note_on_c, 0, 72, 72
1, 126493, Note_on_c, 0, 53, 58
1, 126539, Control_c, 0, 64, 0
1, 126587, Control_c, 0, 64, 127
1, 126600, Note_on_c, 0, 53, 0
1, 126600, Note_on_c, 0, 57, 54
1, 126711, Note_on_c, 0, 57, 0
1, 126711, Note_on_c, 0, 60, 54
1, 126739, Note_on_c, 0, 72, 0
1, 126739, Note_on_c, 0, 72, 67
1, 126823, Note_on_c, 0, 72, 0
1, 126823, Note_on_c, 0, 60, 0
1, 126823, Note_on_c, 0, 69, 72
1, 126826, Note_on_c, 0, 51, 58
1, 126867, Control_c, 0, 64, 0
1, 126902, Control_c, 0, 64, 127
1, 126934, Note_on_c, 0, 51, 0
1, 126934, Note_on_c, 0, 57, 54
1, 127046, Note_on_c, 0, 57, 0
1, 127046, Note_on_c, 0, 60, 54
1, 127075, Note_on_c, 0, 69, 0
1, 127075, Note_on_c, 0, 69, 67
1, 127159, Note_on_c, 0, 69, 0
1, 127159, Note_on_c, 0, 60, 0
1, 127159, Note_on_c, 0, 70, 72
1, 127162, Control_c, 0, 64, 0
1, 127162, Note_on_c, 0, 50, 58
1, 127183, Control_c, 0, 64, 127
1, 127273, Note_on_c, 0, 50, 0
1, 127273, Note_on_c, 0, 58, 53
1, 127387, Note_on_c, 0, 58, 0
1, 127387, Note_on_c, 0, 60, 53
1, 127416, Note_on_c, 0, 70, 0
1, 127416, Note_on_c, 0, 70, 66
1, 127502, Note_on_c, 0, 70, 0
1, 127502, Note_on_c, 0, 60, 0
1, 127502, Note_on_c, 0, 67, 72
1, 127505, Note_on_c, 0, 52, 58
1, 127510, Control_c, 0, 64, 0
1, 127535, Control_c, 0, 64, 127
1, 127617, Note_on_c, 0, 52, 0
1, 127617, Note_on_c, 0, 58, 54
1, 127733, Note_on_c, 0, 58, 0
1, 127733, Note_on_c, 0, 60, 54
1, 127761, Note_on_c, 0, 67, 0
1, 127761, Note_on_c, 0, 67, 66
1, 127848, Note_on_c, 0, 67, 0
1, 127848, Note_on_c, 0, 60, 0
1, 127848, Note_on_c, 0, 72, 72
1, 127851, Note_on_c, 0, 53, 58
1, 127863, Control_c, 0, 64, 0
1, 127899, Control_c, 0, 64, 127
1, 127963, Note_on_c, 0, 53, 0
1, 127963, Note_on_c, 0, 57, 55
1, 128078, Note_on_c, 0, 57, 0
1, 128078, Note_on_c, 0, 60, 55
1, 128107, Note_on_c, 0, 72, 0
1, 128107, Note_on_c, 0, 77, 60
1, 128193, Note_on_c, 0, 77, 0
1, 128193, Note_on_c, 0, 60, 0
1, 128193, Note_on_c, 0, 72, 69
1, 128196, Note_on_c, 0, 53, 58
1, 128219, Control_c, 0, 64, 0
1, 128249, Control_c, 0, 64, 127
1, 128309, Note_on_c, 0, 53, 0
1, 128309, Note_on_c, 0, 57, 54
1, 128366, Note_on_c, 0, 72, 0
1, 128424, Note_on_c, 0, 57, 0
1, 128424, Note_on_c, 0, 60, 54
1, 128453, Note_on_c, 0, 77, 67
1, 128539, Note_on_c, 0, 77, 0
1, 128539, Note_on_c, 0, 60, 0
1, 128539, Note_on_c, 0, 81, 72
1, 128542, Note_on_c, 0, 53, 58
1, 128568, Control_c, 0, 64, 0
1, 128613, Control_c, 0, 64, 127
1, 128651, Note_on_c, 0, 53, 0
1, 128651, Note_on_c, 0, 57, 53
1, 128763, Note_on_c, 0, 57, 0
1, 128763, Note_on_c, 0, 60, 53
1, 128791, Note_on_c, 0, 81, 0
1, 128791, Note_on_c, 0, 81, 69
1, 128875, Note_on_c, 0, 81, 0
1, 128875, Note_on_c, 0, 60, 0
1, 128875, Note_on_c, 0, 84, 76
1, 128878, Note_on_c, 0, 52, 58
1, 128987, Note_on_c, 0, 52, 0
1, 128987, Note_on_c, 0, 55, 54
1, 129098, Note_on_c, 0, 55, 0
1, 129098, Note_on_c, 0, 60, 54
1, 129126, Note_on_c, 0, 84, 0
1, 129126, Note_on_c, 0, 84, 72
1, 129210, Note_on_c, 0, 84, 0
1, 129210, Note_on_c, 0, 60, 0
1, 129210, Note_on_c, 0, 89, 76
1, 129213, Note_on_c, 0, 50, 58
1, 129259, Control_c, 0, 64, 0
1, 129307, Control_c, 0, 64, 127
1, 129320, Note_on_c, 0, 50, 0
1, 129320, Note_on_c, 0, 53, 54
1, 129431, Note_on_c, 0, 53, 0
1, 129431, Note_on_c, 0, 57, 54
1, 129459, Note_on_c, 0, 89, 0
1, 129459, Note_on_c, 0, 89, 74
1, 129542, Note_on_c, 0, 89, 0
1, 129542, Note_on_c, 0, 57, 0
1, 129542, Note_on_c, 0, 91, 80
1, 129545, Note_on_c, 0, 50, 58
1, 129587, Control_c, 0, 64, 0
1, 129621, Control_c, 0, 64, 127
1, 129654, Note_on_c, 0, 50, 0
1, 129654, Note_on_c, 0, 53, 54
1, 129766, Note_on_c, 0, 53, 0
1, 129766, Note_on_c, 0, 59, 54
1, 129794, Note_on_c, 0, 91, 0
1, 129794, Note_on_c, 0, 91, 73
1, 129879, Note_on_c, 0, 91, 0
1, 129879, Note_on_c, 0, 59, 0
1, 129879, Note_on_c, 0, 93, 79
1, 129882, Control_c, 0, 64, 0
1, 129882, Note_on_c, 0, 48, 58
1, 129903, Control_c, 0, 64, 127
1, 129993, Note_on_c, 0, 48, 0
1, 129993, Note_on_c, 0, 53, 53
1, 130107, Note_on_c, 0, 53, 0
1, 130107, Note_on_c, 0, 60, 53
1, 130136, Note_on_c, 0, 93, 0
1, 130136, Note_on_c, 0, 93, 72
1, 130222, Note_on_c, 0, 93, 0
1, 130222, Note_on_c, 0, 60, 0
1, 130222, Note_on_c, 0, 96, 78
1, 130225, Note_on_c, 0, 48, 58
1, 130230, Control_c, 0, 64, 0
1, 130255, Control_c, 0, 64, 127
1, 130337, Note_on_c, 0, 48, 0
1, 130337, Note_on_c, 0, 52, 54
1, 130452, Note_on_c, 0, 52, 0
1, 130452, Note_on_c, 0, 60, 54
1, 130481, Note_on_c, 0, 96, 0
1, 130481, Note_on_c, 0, 96, 71
1, 130567, Note_on_c, 0, 96, 0
1, 130567, Note_on_c, 0, 60, 0
1, 130567, Note_on_c, 0, 93, 77
1, 130570, Note_on_c, 0, 41, 58
1, 130582, Control_c, 0, 64, 0
1, 130618, Control_c, 0, 64, 127
1, 130683, Note_on_c, 0, 41, 0
1, 130683, Note_on_c, 0, 57, 55
1, 130740, Note_on_c, 0, 93, 0
1, 130798, Note_on_c, 0, 57, 0
1, 130798, Note_on_c, 0, 60, 55
1, 130913, Note_on_c, 0, 60, 0
1, 130913, Note_on_c, 0, 53, 58
1, 130923, Control_c, 0, 64, 0
1, 130952, Control_c, 0, 64, 127
1, 131026, Note_on_c, 0, 53, 0
1, 131026, Note_on_c, 0, 57, 54
1, 131139, Note_on_c, 0, 57, 0
1, 131139, Note_on_c, 0, 60, 54
1, 131167, Note_on_c, 0, 77, 67
1, 131252, Note_on_c, 0, 77, 0
1, 131252, Note_on_c, 0, 60, 0
1, 131252, Note_on_c, 0, 81, 72
1, 131255, Note_on_c, 0, 53, 58
1, 131281, Control_c, 0, 64, 0
1, 131326, Control_c, 0, 64, 127
1, 131364, Note_on_c, 0, 53, 0
1, 131364, Note_on_c, 0, 57, 53
1, 131476, Note_on_c, 0, 57, 0
1, 131476, Note_on_c, 0, 60, 53
1, 131504, Note_on_c, 0, 81, 0
1, 131504, Note_on_c, 0, 81, 67
1, 131588, Note_on_c, 0, 81, 0
1, 131588, Note_on_c, 0, 60, 0
1, 131588, Note_on_c, 0, 77, 72
1, 131591, Note_on_c, 0, 53, 58
1, 131700, Note_on_c, 0, 53, 0
1, 131700, Note_on_c, 0, 57, 54
1, 131811, Note_on_c, 0, 57, 0
1, 131811, Note_on_c, 0, 60, 54
1, 131839, Note_on_c, 0, 77, 0
1, 131839, Note_on_c, 0, 77, 66
1, 131923, Note_on_c, 0, 77, 0
1, 131923, Note_on_c, 0, 60, 0
1, 131923, Note_on_c, 0, 72, 72
1, 131926, Note_on_c, 0, 53, 58
1, 131972, Control_c, 0, 64, 0
1, 132020, Control_c, 0, 64, 127
1, 132033, Note_on_c, 0, 53, 0
1, 132033, Note_on_c, 0, 57, 54
1, 132144, Note_on_c, 0, 57, 0
1, 132144, Note_on_c, 0, 60, 54
1, 132172, Note_on_c, 0, 72, 0
1, 132172, Note_on_c, 0, 72, 67
1, 132255, Note_on_c, 0, 72, 0
1, 132255, Note_on_c, 0, 60, 0
1, 132255, Note_on_c, 0, 69, 72
1, 132258, Note_on_c, 0, 51, 58
1, 132300, Control_c, 0, 64, 0
1, 132334, Control_c, 0, 64, 127
1, 132367, Note_on_c, 0, 51, 0
1, 132367, Note_on_c, 0, 57, 54
1, 132479, Note_on_c, 0, 57, 0
1, 132479, Note_on_c, 0, 60, 54
1, 132507, Note_on_c, 0, 69, 0
1, 132507, Note_on_c, 0, 69, 67
1, 132592, Note_on_c, 0, 69, 0
1, 132592, Note_on_c, 0, 60, 0
1, 132592, Note_on_c, 0, 72, 72
1, 132595, Control_c, 0, 64, 0
1, 132595, Note_on_c, 0, 50, 58
1, 132616, Control_c, 0, 64, 127
1, 132706, Note_on_c, 0, 50, 0
1, 132706, Note_on_c, 0, 58, 53
1, 132820, Note_on_c, 0, 58, 0
1, 132820, Note_on_c, 0, 60, 53
1, 132849, Note_on_c, 0, 72, 0
1, 132849, Note_on_c, 0, 72, 66
1, 132935, Note_on_c, 0, 72, 0
1, 132935, Note_on_c, 0, 60, 0
1, 132935, Note_on_c, 0, 70, 72
1, 132938, Note_on_c, 0, 52, 58
1, 132943, Control_c, 0, 64, 0
1, 132968, Control_c, 0, 64, 127
1, 133050, Note_on_c, 0, 52, 0
1, 133050, Note_on_c, 0, 58, 54
1, 133165, Note_on_c, 0, 58, 0
1, 133165, Note_on_c, 0, 60, 54
1, 133194, Note_on_c, 0, 70, 0
1, 133194, Note_on_c, 0, 70, 66
1, 133280, Note_on_c, 0, 70, 0
1, 133280, Note_on_c, 0, 60, 0
1, 133280, Note_on_c, 0, 69, 72
1, 133283, Note_on_c, 0, 53, 58
1, 133296, Control_c, 0, 64, 0
1, 133332, Control_c, 0, 64, 127
1, 133396, Note_on_c, 0, 53, 0
1, 133396, Note_on_c, 0, 57, 55
1, 133511, Note_on_c, 0, 57, 0
1, 133511, Note_on_c, 0, 60, 55
1, 133540, Note_on_c, 0, 69, 0
1, 133540, Note_on_c, 0, 77, 60
1, 133626, Note_on_c, 0, 77, 0
1, 133626, Note_on_c, 0, 60, 0
1, 133626, Note_on_c, 0, 72, 69
1, 133629, Note_on_c, 0, 53, 58
1, 133651, Control_c, 0, 64, 0
1, 133682, Control_c, 0, 64, 127
1, 133741, Note_on_c, 0, 53, 0
1, 133741, Note_on_c, 0, 57, 54
1, 133799, Note_on_c, 0, 72, 0
1, 133856, Note_on_c, 0, 57, 0
1, 133856, Note_on_c, 0, 60, 54
1, 133885, Note_on_c, 0, 77, 67
1, 133972, Note_on_c, 0, 77, 0
1, 133972, Note_on_c, 0, 60, 0
1, 133972, Note_on_c, 0, 81, 72
1, 133975, Note_on_c, 0, 53, 58
1, 134001, Control_c, 0, 64, 0
1, 134046, Control_c, 0, 64, 127
1, 134084, Note_on_c, 0, 53, 0
1, 134084, Note_on_c, 0, 57, 53
1, 134196, Note_on_c, 0, 57, 0
1, 134196, Note_on_c, 0, 60, 53
1, 134224, Note_on_c, 0, 81, 0
1, 134224, Note_on_c, 0, 81, 69
1, 134308, Note_on_c, 0, 81, 0
1, 134308, Note_on_c, 0, 60, 0
1, 134308, Note_on_c, 0, 84, 76
1, 134311, Note_on_c, 0, 52, 58
1, 134320, Control_c, 0, 64, 0
1, 134336, Control_c, 0, 64, 127
1, 134419, Note_on_c, 0, 52, 0
1, 134419, Note_on_c, 0, 55, 54
1, 134531, Note_on_c, 0, 55, 0
1, 134531, Note_on_c, 0, 60, 54
1, 134559, Note_on_c, 0, 84, 0
1, 134559, Note_on_c, 0, 84, 72
1, 134642, Note_on_c, 0, 84, 0
1, 134642, Note_on_c, 0, 60, 0
1, 134642, Note_on_c, 0, 89, 76
1, 134645, Note_on_c, 0, 50, 58
1, 134691, Control_c, 0, 64, 0
1, 134740, Control_c, 0, 64, 127
1, 134753, Note_on_c, 0, 50, 0
1, 134753, Note_on_c, 0, 53, 54
1, 134864, Note_on_c, 0, 53, 0
1, 134864, Note_on_c, 0, 57, 54
1, 134891, Note_on_c, 0, 89, 0
1, 134891, Note_on_c, 0, 89, 74
1, 134975, Note_on_c, 0, 89, 0
1, 134975, Note_on_c, 0, 57, 0
1, 134975, Note_on_c, 0, 91, 80
1, 134978, Note_on_c, 0, 50, 58
1, 135020, Control_c, 0, 64, 0
1, 135054, Control_c, 0, 64, 127
1, 135087, Note_on_c, 0, 50, 0
1, 135087, Note_on_c, 0, 53, 54
1, 135198, Note_on_c, 0, 53, 0
1, 135198, Note_on_c, 0, 59, 54
1, 135227, Note_on_c, 0, 91, 0
1, 135227, Note_on_c, 0, 91, 73
1, 135312, Note_on_c, 0, 91, 0
1, 135312, Note_on_c, 0, 59, 0
1, 135312, Note_on_c, 0, 93, 79
1, 135315, Control_c, 0, 64, 0
1, 135315, Note_on_c, 0, 48, 58
1, 135336, Control_c, 0, 64, 127
1, 135425, Note_on_c, 0, 48, 0
1, 135425, Note_on_c, 0, 53, 53
1, 135539, Note_on_c, 0, 53, 0
1, 135539, Note_on_c, 0, 60, 53
1, 135568, Note_on_c, 0, 93, 0
1, 135568, Note_on_c, 0, 93, 72
1, 135654, Note_on_c, 0, 93, 0
1, 135654, Note_on_c, 0, 60, 0
1, 135654, Note_on_c, 0, 96, 78
1, 135657, Note_on_c, 0, 48, 58
1, 135662, Control_c, 0, 64, 0
1, 135687, Control_c, 0, 64, 127
1, 135770, Note_on_c, 0, 48, 0
1, 135770, Note_on_c, 0, 52, 54
1, 135885, Note_on_c, 0, 52, 0
1, 135885, Note_on_c, 0, 60, 54
1, 135914, Note_on_c, 0, 96, 0
1, 135914, Note_on_c, 0, 96, 71
1, 136000, Note_on_c, 0, 96, 0
1, 136000, Note_on_c, 0, 60, 0
1, 136000, Note_on_c, 0, 101, 77
1, 136003, Note_on_c, 0, 41, 58
1, 136015, Control_c, 0, 64, 0
1, 136051, Control_c, 0, 64, 127
1, 136115, Note_on_c, 0, 41, 0
1, 136115, Note_on_c, 0, 57, 55
1, 136173, Note_on_c, 0, 101, 0
1, 136230, Note_on_c, 0, 57, 0
1, 136230, Note_on_c, 0, 60, 55
1, 136346, Note_on_c, 0, 60, 0
1, 136346, Note_on_c, 0, 53, 58
1, 136370, Control_c, 0, 64, 0
1, 136401, Control_c, 0, 64, 127
1, 136459, Note_on_c, 0, 53, 0
1, 136459, Note_on_c, 0, 57, 54
1, 136573, Note_on_c, 0, 57, 0
1, 136573, Note_on_c, 0, 60, 54
1, 136602, Note_on_c, 0, 88, 67
1, 136687, Note_on_c, 0, 88, 0
1, 136687, Note_on_c, 0, 60, 0
1, 136687, Note_on_c, 0, 89, 72
1, 136690, Note_on_c, 0, 53, 58
1, 136717, Control_c, 0, 64, 0
1, 136762, Control_c, 0, 64, 127
1, 136799, Note_on_c, 0, 53, 0
1, 136799, Note_on_c, 0, 57, 53
1, 136912, Note_on_c, 0, 57, 0
1, 136912, Note_on_c, 0, 60, 53
1, 136940, Note_on_c, 0, 89, 0
1, 136940, Note_on_c, 0, 89, 69
1, 137023, Note_on_c, 0, 89, 0
1, 137023, Note_on_c, 0, 60, 0
1, 137023, Note_on_c, 0, 87, 76
1, 137026, Note_on_c, 0, 54, 58
1, 137026, Control_c, 0, 64, 0
1, 137051, Control_c, 0, 64, 127
1, 137135, Note_on_c, 0, 54, 0
1, 137135, Note_on_c, 0, 57, 54
1, 137246, Note_on_c, 0, 57, 0
1, 137246, Note_on_c, 0, 60, 54
1, 137274, Note_on_c, 0, 87, 0
1, 137274, Note_on_c, 0, 87, 72
1, 137358, Note_on_c, 0, 87, 0
1, 137358, Note_on_c, 0, 60, 0
1, 137358, Note_on_c, 0, 84, 76
1, 137361, Note_on_c, 0, 53, 58
1, 137407, Control_c, 0, 64, 0
1, 137455, Control_c, 0, 64, 127
1, 137468, Note_on_c, 0, 53, 0
1, 137468, Note_on_c, 0, 57, 54
1, 137579, Note_on_c, 0, 57, 0
1, 137579, Note_on_c, 0, 60, 54
1, 137607, Note_on_c, 0, 84, 0
1, 137607, Note_on_c, 0, 84, 74
1, 137691, Note_on_c, 0, 84, 0
1, 137691, Note_on_c, 0, 60, 0
1, 137691, Note_on_c, 0, 81, 80
1, 137694, Note_on_c, 0, 54, 58
1, 137719, Control_c, 0, 64, 0
1, 137769, Control_c, 0, 64, 127
1, 137802, Note_on_c, 0, 54, 0
1, 137802, Note_on_c, 0, 57, 54
1, 137913, Note_on_c, 0, 57, 0
1, 137913, Note_on_c, 0, 60, 54
1, 137941, Note_on_c, 0, 81, 0
1, 137941, Note_on_c, 0, 81, 73
1, 138025, Note_on_c, 0, 81, 0
1, 138025, Note_on_c, 0, 60, 0
1, 138025, Note_on_c, 0, 84, 79
1, 138028, Control_c, 0, 64, 0
1, 138028, Note_on_c, 0, 53, 58
1, 138048, Control_c, 0, 64, 127
1, 138136, Note_on_c, 0, 53, 0
1, 138136, Note_on_c, 0, 57, 53
1, 138248, Note_on_c, 0, 57, 0
1, 138248, Note_on_c, 0, 60, 53
1, 138276, Note_on_c, 0, 84, 0
1, 138276, Note_on_c, 0, 84, 72
1, 138360, Note_on_c, 0, 84, 0
1, 138360, Note_on_c, 0, 60, 0
1, 138360, Note_on_c, 0, 85, 78
1, 138363, Note_on_c, 0, 51, 58
1, 138368, Control_c, 0, 64, 0
1, 138392, Control_c, 0, 64, 127
1, 138472, Note_on_c, 0, 51, 0
1, 138472, Note_on_c, 0, 55, 54
1, 138584, Note_on_c, 0, 55, 0
1, 138584, Note_on_c, 0, 61, 54
1, 138612, Note_on_c, 0, 85, 0
1, 138612, Note_on_c, 0, 85, 71
1, 138696, Note_on_c, 0, 85, 0
1, 138696, Note_on_c, 0, 61, 0
1, 138696, Note_on_c, 0, 86, 79
1, 138699, Control_c, 0, 64, 0
1, 138699, Note_on_c, 0, 50, 58
1, 138720, Control_c, 0, 64, 127
1, 138808, Note_on_c, 0, 50, 0
1, 138808, Note_on_c, 0, 54, 52
1, 138920, Note_on_c, 0, 54, 0
1, 138920, Note_on_c, 0, 62, 52
1, 138948, Note_on_c, 0, 86, 0
1, 138948, Note_on_c, 0, 86, 71
1, 139032, Note_on_c, 0, 86, 0
1, 139032, Note_on_c, 0, 62, 0
1, 139032, Note_on_c, 0, 86, 76
1, 139035, Note_on_c, 0, 50, 57
1, 139039, Control_c, 0, 64, 0
1, 139064, Control_c, 0, 64, 127
1, 139144, Note_on_c, 0, 50, 0
1, 139144, Note_on_c, 0, 55, 52
1, 139256, Note_on_c, 0, 55, 0
1, 139256, Note_on_c, 0, 58, 52
1, 139284, Note_on_c, 0, 86, 0
1, 139284, Note_on_c, 0, 86, 68
1, 139368, Note_on_c, 0, 86, 0
1, 139368, Note_on_c, 0, 58, 0
1, 139368, Note_on_c, 0, 86, 75
1, 139371, Control_c, 0, 64, 0
1, 139371, Note_on_c, 0, 50, 55
1, 139392, Control_c, 0, 64, 127
1, 139481, Note_on_c, 0, 50, 0
1, 139481, Note_on_c, 0, 54, 50
1, 139594, Note_on_c, 0, 54, 0
1, 139594, Note_on_c, 0, 57, 50
1, 139623, Note_on_c, 0, 86, 0
1, 139623, Note_on_c, 0, 86, 67
1, 139708, Note_on_c, 0, 86, 0
1, 139708, Note_on_c, 0, 57, 0
1, 139708, Note_on_c, 0, 86, 72
1, 139711, Note_on_c, 0, 50, 54
1, 139716, Control_c, 0, 64, 0
1, 139741, Control_c, 0, 64, 127
1, 139822, Note_on_c, 0, 50, 0
1, 139822, Note_on_c, 0, 55, 50
1, 139937, Note_on_c, 0, 55, 0
1, 139937, Note_on_c, 0, 58, 50
1, 139966, Note_on_c, 0, 86, 0
1, 139966, Note_on_c, 0, 86, 64
1, 140052, Note_on_c, 0, 86, 0
1, 140052, Note_on_c, 0, 58, 0
1, 140052, Note_on_c, 0, 86, 71
1, 140055, Control_c, 0, 64, 0
1, 140055, Note_on_c, 0, 50, 53
1, 140076, Control_c, 0, 64, 127
1, 140167, Note_on_c, 0, 50, 0
1, 140167, Note_on_c, 0, 54, 51
1, 140224, Note_on_c, 0, 86, 0
1, 140281, Note_on_c, 0, 54, 0
1, 140281, Note_on_c, 0, 57, 52
1, 140396, Note_on_c, 0, 57, 0
1, 140396, Note_on_c, 0, 50, 58
1, 140404, Control_c, 0, 64, 0
1, 140429, Control_c, 0, 64, 127
1, 140511, Note_on_c, 0, 50, 0
1, 140511, Note_on_c, 0, 55, 54
1, 140627, Note_on_c, 0, 55, 0
1, 140627, Note_on_c, 0, 58, 54
1, 140656, Note_on_c, 0, 74, 72
1, 140707, Control_c, 0, 64, 0
1, 140722, Note_on_c, 0, 74, 0
1, 140744, Note_on_c, 0, 58, 0
1, 140744, Note_on_c, 0, 75, 77
1, 140744, Control_c, 0, 64, 127
1, 140747, Note_on_c, 0, 50, 58
1, 140861, Note_on_c, 0, 50, 0
1, 140861, Note_on_c, 0, 54, 55
1, 140919, Note_on_c, 0, 75, 0
1, 140919, Note_on_c, 0, 74, 73
1, 140978, Note_on_c, 0, 54, 0
1, 140978, Note_on_c, 0, 57, 55
1, 141097, Note_on_c, 0, 57, 0
1, 141097, Note_on_c, 0, 74, 0
1, 141097, Note_on_c, 0, 74, 75
1, 141100, Note_on_c, 0, 48, 58
1, 141135, Control_c, 0, 64, 0
1, 141186, Note_on_c, 0, 74, 0
1, 141186, Control_c, 0, 64, 127
1, 141216, Note_on_c, 0, 48, 0
1, 141216, Note_on_c, 0, 54, 55
1, 141275, Note_on_c, 0, 74, 73
1, 141336, Note_on_c, 0, 54, 0
1, 141336, Note_on_c, 0, 57, 55
1, 141366, Note_on_c, 0, 74, 0
1, 141456, Note_on_c, 0, 57, 0
1, 141456, Note_on_c, 0, 74, 71
1, 141456, Control_c, 0, 64, 0
1, 141459, Note_on_c, 0, 46, 58
1, 141459, Note_on_c, 0, 53, 58
1, 141459, Note_on_c, 0, 58, 58
1, 141497, Control_c, 0, 64, 127
1, 141514, Note_on_c, 0, 58, 0
1, 141514, Note_on_c, 0, 53, 0
1, 141514, Note_on_c, 0, 46, 0
1, 141573, Note_on_c, 0, 62, 54
1, 141631, Note_on_c, 0, 74, 0
1, 141690, Note_on_c, 0, 62, 0
1, 141690, Note_on_c, 0, 65, 54
1, 141807, Note_on_c, 0, 65, 0
1, 141807, Note_on_c, 0, 58, 58
1, 141833, Control_c, 0, 64, 0
1, 141874, Control_c, 0, 64, 127
1, 141924, Note_on_c, 0, 58, 0
1, 141924, Note_on_c, 0, 62, 54
1, 142041, Note_on_c, 0, 62, 0
1, 142041, Note_on_c, 0, 65, 54
1, 142070, Note_on_c, 0, 93, 67
1, 142158, Note_on_c, 0, 93, 0
1, 142158, Note_on_c, 0, 65, 0
1, 142158, Note_on_c, 0, 94, 72
1, 142161, Note_on_c, 0, 58, 58
1, 142187, Control_c, 0, 64, 0
1, 142195, Control_c, 0, 64, 0
1, 142232, Control_c, 0, 64, 127
1, 142270, Note_on_c, 0, 58, 0
1, 142270, Note_on_c, 0, 62, 53
1, 142382, Note_on_c, 0, 62, 0
1, 142382, Note_on_c, 0, 65, 53
1, 142410, Note_on_c, 0, 94, 0
1, 142410, Note_on_c, 0, 94, 69
1, 142494, Note_on_c, 0, 94, 0
1, 142494, Note_on_c, 0, 65, 0
1, 142494, Note_on_c, 0, 92, 76
1, 142497, Note_on_c, 0, 59, 58
1, 142497, Control_c, 0, 64, 0
1, 142522, Control_c, 0, 64, 127
1, 142606, Note_on_c, 0, 59, 0
1, 142606, Note_on_c, 0, 62, 54
1, 142717, Note_on_c, 0, 62, 0
1, 142717, Note_on_c, 0, 65, 54
1, 142745, Note_on_c, 0, 92, 0
1, 142745, Note_on_c, 0, 92, 72
1, 142829, Note_on_c, 0, 92, 0
1, 142829, Note_on_c, 0, 65, 0
1, 142829, Note_on_c, 0, 89, 76
1, 142832, Note_on_c, 0, 58, 58
1, 142878, Control_c, 0, 64, 0
1, 142926, Control_c, 0, 64, 127
1, 142939, Note_on_c, 0, 58, 0
1, 142939, Note_on_c, 0, 62, 54
1, 143050, Note_on_c, 0, 62, 0
1, 143050, Note_on_c, 0, 65, 54
1, 143078, Note_on_c, 0, 89, 0
1, 143078, Note_on_c, 0, 89, 72
1, 143161, Note_on_c, 0, 89, 0
1, 143161, Note_on_c, 0, 65, 0
1, 143161, Note_on_c, 0, 86, 78
1, 143164, Note_on_c, 0, 59, 58
1, 143164, Control_c, 0, 64, 0
1, 143205, Control_c, 0, 64, 127
1, 143273, Note_on_c, 0, 59, 0
1, 143273, Note_on_c, 0, 62, 54
1, 143384, Note_on_c, 0, 62, 0
1, 143384, Note_on_c, 0, 65, 54
1, 143412, Note_on_c, 0, 86, 0
1, 143412, Note_on_c, 0, 86, 73
1, 143495, Note_on_c, 0, 86, 0
1, 143495, Note_on_c, 0, 65, 0
1, 143495, Note_on_c, 0, 89, 78
1, 143498, Control_c, 0, 64, 0
1, 143498, Note_on_c, 0, 58, 58
1, 143519, Control_c, 0, 64, 127
1, 143607, Note_on_c, 0, 58, 0
1, 143607, Note_on_c, 0, 62, 53
1, 143719, Note_on_c, 0, 62, 0
1, 143719, Note_on_c, 0, 65, 53
1, 143747, Note_on_c, 0, 89, 0
1, 143747, Note_on_c, 0, 89, 72
1, 143831, Note_on_c, 0, 89, 0
1, 143831, Note_on_c, 0, 65, 0
1, 143831, Note_on_c, 0, 90, 78
1, 143834, Note_on_c, 0, 56, 58
1, 143838, Control_c, 0, 64, 0
1, 143863, Control_c, 0, 64, 127
1, 143943, Note_on_c, 0, 56, 0
1, 143943, Note_on_c, 0, 60, 54
1, 144055, Note_on_c, 0, 60, 0
1, 144055, Note_on_c, 0, 66, 54
1, 144083, Note_on_c, 0, 90, 0
1, 144083, Note_on_c, 0, 90, 71
1, 144167, Note_on_c, 0, 90, 0
1, 144167, Note_on_c, 0, 66, 0
1, 144167, Note_on_c, 0, 91, 79
1, 144170, Control_c, 0, 64, 0
1, 144170, Note_on_c, 0, 55, 58
1, 144191, Control_c, 0, 64, 127
1, 144279, Note_on_c, 0, 55, 0
1, 144279, Note_on_c, 0, 59, 52
1, 144391, Note_on_c, 0, 59, 0
1, 144391, Note_on_c, 0, 67, 52
1, 144419, Note_on_c, 0, 91, 0
1, 144419, Note_on_c, 0, 91, 71
1, 144502, Note_on_c, 0, 91, 0
1, 144502, Note_on_c, 0, 67, 0
1, 144502, Note_on_c, 0, 91, 76
1, 144505, Note_on_c, 0, 55, 57
1, 144510, Control_c, 0, 64, 0
1, 144534, Control_c, 0, 64, 127
1, 144614, Note_on_c, 0, 55, 0
1, 144614, Note_on_c, 0, 60, 52
1, 144727, Note_on_c, 0, 60, 0
1, 144727, Note_on_c, 0, 63, 52
1, 144755, Note_on_c, 0, 91, 0
1, 144755, Note_on_c, 0, 91, 68
1, 144839, Note_on_c, 0, 91, 0
1, 144839, Note_on_c, 0, 63, 0
1, 144839, Note_on_c, 0, 91, 75
1, 144842, Control_c, 0, 64, 0
1, 144842, Note_on_c, 0, 55, 55
1, 144863, Control_c, 0, 64, 127
1, 144952, Note_on_c, 0, 55, 0
1, 144952, Note_on_c, 0, 59, 50
1, 145065, Note_on_c, 0, 59, 0
1, 145065, Note_on_c, 0, 62, 50
1, 145093, Note_on_c, 0, 91, 0
1, 145093, Note_on_c, 0, 91, 67
1, 145179, Note_on_c, 0, 91, 0
1, 145179, Note_on_c, 0, 62, 0
1, 145179, Note_on_c, 0, 91, 72
1, 145182, Note_on_c, 0, 55, 54
1, 145187, Control_c, 0, 64, 0
1, 145211, Control_c, 0, 64, 127
1, 145293, Note_on_c, 0, 55, 0
1, 145293, Note_on_c, 0, 60, 50
1, 145408, Note_on_c, 0, 60, 0
1, 145408, Note_on_c, 0, 63, 50
1, 145436, Note_on_c, 0, 91, 0
1, 145436, Note_on_c, 0, 91, 64
1, 145523, Note_on_c, 0, 91, 0
1, 145523, Note_on_c, 0, 63, 0
1, 145523, Note_on_c, 0, 91, 71
1, 145526, Control_c, 0, 64, 0
1, 145526, Note_on_c, 0, 55, 53
1, 145547, Control_c, 0, 64, 127
1, 145637, Note_on_c, 0, 55, 0
1, 145637, Note_on_c, 0, 59, 51
1, 145694, Note_on_c, 0, 91, 0
1, 145751, Note_on_c, 0, 59, 0
1, 145751, Note_on_c, 0, 62, 52
1, 145866, Note_on_c, 0, 62, 0
1, 145866, Note_on_c, 0, 55, 58
1, 145874, Control_c, 0, 64, 0
1, 145899, Control_c, 0, 64, 127
1, 145981, Note_on_c, 0, 55, 0
1, 145981, Note_on_c, 0, 60, 54
1, 146098, Note_on_c, 0, 60, 0
1, 146098, Note_on_c, 0, 63, 54
1, 146127, Note_on_c, 0, 79, 72
1, 146177, Control_c, 0, 64, 0
1, 146193, Note_on_c, 0, 79, 0
1, 146215, Note_on_c, 0, 63, 0
1, 146215, Note_on_c, 0, 80, 77
1, 146215, Control_c, 0, 64, 127
1, 146218, Note_on_c, 0, 55, 58
1, 146332, Note_on_c, 0, 55, 0
1, 146332, Note_on_c, 0, 59, 55
1, 146390, Note_on_c, 0, 80, 0
1, 146390, Note_on_c, 0, 79, 73
1, 146449, Note_on_c, 0, 59, 0
1, 146449, Note_on_c, 0, 62, 55
1, 146479, Note_on_c, 0, 79, 0
1, 146568, Note_on_c, 0, 62, 0
1, 146568, Note_on_c, 0, 79, 75
1, 146568, Note_on_c, 0, 55, 58
1, 146606, Control_c, 0, 64, 0
1, 146657, Note_on_c, 0, 79, 0
1, 146657, Control_c, 0, 64, 127
1, 146687, Note_on_c, 0, 55, 0
1, 146687, Note_on_c, 0, 60, 55
1, 146746, Note_on_c, 0, 79, 73
1, 146806, Note_on_c, 0, 60, 0
1, 146806, Note_on_c, 0, 63, 55
1, 146836, Note_on_c, 0, 79, 0
1, 146927, Note_on_c, 0, 63, 0
1, 146927, Note_on_c, 0, 79, 71
1, 146927, Control_c, 0, 64, 0
1, 146930, Note_on_c, 0, 55, 58
1, 146968, Control_c, 0, 64, 127
1, 147044, Note_on_c, 0, 55, 0
1, 147044, Note_on_c, 0, 59, 54
1, 147102, Note_on_c, 0, 79, 0
1, 147161, Note_on_c, 0, 59, 0
1, 147161, Note_on_c, 0, 62, 54
1, 147278, Note_on_c, 0, 62, 0
1, 147278, Note_on_c, 0, 55, 58
1, 147286, Control_c, 0, 64, 0
1, 147311, Control_c, 0, 64, 127
1, 147395, Note_on_c, 0, 55, 0
1, 147395, Note_on_c, 0, 60, 54
1, 147512, Note_on_c, 0, 60, 0
1, 147512, Note_on_c, 0, 63, 54
1, 147541, Note_on_c, 0, 94, 72
1, 147591, Control_c, 0, 64, 0
1, 147607, Note_on_c, 0, 94, 0
1, 147629, Note_on_c, 0, 63, 0
1, 147629, Note_on_c, 0, 92, 77
1, 147629, Control_c, 0, 64, 127
1, 147632, Note_on_c, 0, 55, 58
1, 147746, Note_on_c, 0, 55, 0
1, 147746, Note_on_c, 0, 59, 55
1, 147804, Note_on_c, 0, 92, 0
1, 147804, Note_on_c, 0, 91, 73
1, 147863, Note_on_c, 0, 59, 0
1, 147863, Note_on_c, 0, 62, 55
1, 147893, Note_on_c, 0, 91, 0
1, 147982, Note_on_c, 0, 62, 0
1, 147982, Note_on_c, 0, 91, 75
1, 147982, Note_on_c, 0, 55, 58
1, 148020, Control_c, 0, 64, 0
1, 148071, Note_on_c, 0, 91, 0
1, 148071, Control_c, 0, 64, 127
1, 148101, Note_on_c, 0, 55, 0
1, 148101, Note_on_c, 0, 60, 55
1, 148160, Note_on_c, 0, 91, 73
1, 148220, Note_on_c, 0, 60, 0
1, 148220, Note_on_c, 0, 63, 55
1, 148250, Note_on_c, 0, 91, 0
1, 148341, Note_on_c, 0, 63, 0
1, 148341, Note_on_c, 0, 91, 71
1, 148341, Control_c, 0, 64, 0
1, 148344, Note_on_c, 0, 55, 58
1, 148382, Control_c, 0, 64, 127
1, 148458, Note_on_c, 0, 55, 0
1, 148458, Note_on_c, 0, 59, 54
1, 148516, Note_on_c, 0, 91, 0
1, 148575, Note_on_c, 0, 59, 0
1, 148575, Note_on_c, 0, 62, 54
1, 148692, Note_on_c, 0, 62, 0
1, 148692, Note_on_c, 0, 55, 58
1, 148700, Control_c, 0, 64, 0
1, 148725, Control_c, 0, 64, 127
1, 148809, Note_on_c, 0, 55, 0
1, 148809, Note_on_c, 0, 60, 54
1, 148926, Note_on_c, 0, 60, 0
1, 148926, Note_on_c, 0, 63, 54
1, 148955, Note_on_c, 0, 67, 72
1, 149005, Control_c, 0, 64, 0
1, 149021, Note_on_c, 0, 67, 0
1, 149043, Note_on_c, 0, 63, 0
1, 149043, Note_on_c, 0, 68, 77
1, 149043, Control_c, 0, 64, 127
1, 149046, Note_on_c, 0, 55, 58
1, 149160, Note_on_c, 0, 55, 0
1, 149160, Note_on_c, 0, 59, 55
1, 149218, Note_on_c, 0, 68, 0
1, 149218, Note_on_c, 0, 67, 73
1, 149277, Note_on_c, 0, 59, 0
1, 149277, Note_on_c, 0, 62, 55
1, 149307, Note_on_c, 0, 67, 0
1, 149396, Note_on_c, 0, 62, 0
1, 149396, Note_on_c, 0, 67, 75
1, 149396, Note_on_c, 0, 55, 58
1, 149434, Control_c, 0, 64, 0
1, 149485, Note_on_c, 0, 67, 0
1, 149485, Control_c, 0, 64, 127
1, 149515, Note_on_c, 0, 55, 0
1, 149515, Note_on_c, 0, 60, 55
1, 149574, Note_on_c, 0, 67, 73
1, 149634, Note_on_c, 0, 60, 0
1, 149634, Note_on_c, 0, 63, 55
1, 149664, Note_on_c, 0, 67, 0
1, 149755, Note_on_c, 0, 63, 0
1, 149755, Note_on_c, 0, 67, 71
1, 149755, Control_c, 0, 64, 0
1, 149758, Note_on_c, 0, 55, 58
1, 149796, Control_c, 0, 64, 127
1, 149872, Note_on_c, 0, 55, 0
1, 149872, Note_on_c, 0, 59, 54
1, 149930, Note_on_c, 0, 67, 0
1, 149989, Note_on_c, 0, 59, 0
1, 149989, Note_on_c, 0, 62, 54
1, 150106, Note_on_c, 0, 62, 0
1, 150106, Note_on_c, 0, 55, 58
1, 150114, Control_c, 0, 64, 0
1, 150139, Control_c, 0, 64, 127
1, 150223, Note_on_c, 0, 55, 0
1, 150223, Note_on_c, 0, 60, 54
1, 150340, Note_on_c, 0, 60, 0
1, 150340, Note_on_c, 0, 63, 54
1, 150369, Note_on_c, 0, 82, 72
1, 150419, Control_c, 0, 64, 0
1, 150435, Note_on_c, 0, 82, 0
1, 150457, Note_on_c, 0, 63, 0
1, 150457, Note_on_c, 0, 80, 77
1, 150457, Control_c, 0, 64, 127
1, 150460, Note_on_c, 0, 55, 58
1, 150574, Note_on_c, 0, 55, 0
1, 150574, Note_on_c, 0, 59, 55
1, 150632, Note_on_c, 0, 80, 0
1, 150632, Note_on_c, 0, 79, 73
1, 150691, Note_on_c, 0, 59, 0
1, 150691, Note_on_c, 0, 62, 55
1, 150721, Note_on_c, 0, 79, 0
1, 150810, Note_on_c, 0, 62, 0
1, 150810, Note_on_c, 0, 79, 75
1, 150810, Note_on_c, 0, 55, 58
1, 150848, Control_c, 0, 64, 0
1, 150899, Note_on_c, 0, 79, 0
1, 150899, Control_c, 0, 64, 127
1, 150929, Note_on_c, 0, 55, 0
1, 150929, Note_on_c, 0, 60, 55
1, 150988, Note_on_c, 0, 79, 73
1, 151048, Note_on_c, 0, 60, 0
1, 151048, Note_on_c, 0, 63, 55
1, 151079, Note_on_c, 0, 79, 0
1, 151169, Note_on_c, 0, 63, 0
1, 151169, Note_on_c, 0, 80, 77
1, 151169, Control_c, 0, 64, 127
1, 151172, Note_on_c, 0, 55, 58
1, 151289, Note_on_c, 0, 55, 0
1, 151289, Note_on_c, 0, 59, 55
1, 151349, Note_on_c, 0, 80, 0
1, 151349, Note_on_c, 0, 79, 73
1, 151409, Note_on_c, 0, 59, 0
1, 151409, Note_on_c, 0, 62, 55
1, 151439, Note_on_c, 0, 79, 0
1, 151528, Note_on_c, 0, 62, 0
1, 151528, Note_on_c, 0, 79, 75
1, 151528, Note_on_c, 0, 55, 58
1, 151566, Control_c, 0, 64, 0
1, 151617, Note_on_c, 0, 79, 0
1, 151617, Control_c, 0, 64, 127
1, 151647, Note_on_c, 0, 55, 0
1, 151647, Note_on_c, 0, 60, 55
1, 151706, Note_on_c, 0, 79, 73
1, 151770, Note_on_c, 0, 60, 0
1, 151770, Note_on_c, 0, 63, 55
1, 151803, Note_on_c, 0, 79, 0
1, 151899, Note_on_c, 0, 63, 0
1, 151899, Note_on_c, 0, 79, 77
1, 151899, Control_c, 0, 91, 127
1, 151902, Control_c, 0, 64, 0
1, 151902, Note_on_c, 0, 62, 58
1, 151902, Note_on_c, 0, 59, 58
1, 151905, Note_on_c, 0, 55, 58
1, 152085, Note_on_c, 0, 55, 0
1, 152085, Note_on_c, 0, 59, 0
1, 152085, Note_on_c, 0, 79, 0
1, 152088, Note_on_c, 0, 62, 0
1, 152272, Note_on_c, 0, 67, 118
1, 152272, Note_on_c, 0, 55, 102
1, 153176, Note_on_c, 0, 74, 76
1, 153240, Note_on_c, 0, 74, 0
1, 153261, Note_on_c, 0, 55, 0
1, 153261, Note_on_c, 0, 67, 0
1, 153261, Note_on_c, 0, 72, 87
1, 153264, Note_on_c, 0, 55, 66
1, 153423, Note_on_c, 0, 55, 0
1, 153423, Note_on_c, 0, 72, 0
1, 153423, Note_on_c, 0, 71, 61
1, 153426, Note_on_c, 0, 67, 55
1, 153504, Note_on_c, 0, 67, 0
1, 153504, Note_on_c, 0, 71, 0
1, 153585, Note_on_c, 0, 71, 67
1, 153585, Note_on_c, 0, 65, 55
1, 153585, Note_on_c, 0, 62, 50
1, 153667, Note_on_c, 0, 62, 0
1, 153667, Note_on_c, 0, 65, 0
1, 153667, Note_on_c, 0, 71, 0
1, 153749, Note_on_c, 0, 71, 61
1, 153749, Note_on_c, 0, 67, 56
1, 153832, Note_on_c, 0, 67, 0
1, 153832, Note_on_c, 0, 71, 0
1, 153916, Note_on_c, 0, 71, 79
1, 153916, Note_on_c, 0, 55, 68
1, 154080, Note_on_c, 0, 55, 0
1, 154080, Note_on_c, 0, 71, 0
1, 154080, Note_on_c, 0, 72, 64
1, 154083, Note_on_c, 0, 67, 52
1, 154162, Note_on_c, 0, 67, 0
1, 154162, Note_on_c, 0, 72, 0
1, 154244, Note_on_c, 0, 60, 53
1, 154244, Note_on_c, 0, 63, 59
1, 154326, Note_on_c, 0, 63, 0
1, 154326, Note_on_c, 0, 60, 0
1, 154408, Note_on_c, 0, 67, 56
1, 154493, Note_on_c, 0, 67, 0
1, 154493, Note_on_c, 0, 75, 75
1, 154556, Note_on_c, 0, 75, 0
1, 154577, Note_on_c, 0, 72, 87
1, 154577, Note_on_c, 0, 55, 66
1, 154738, Note_on_c, 0, 55, 0
1, 154738, Note_on_c, 0, 72, 0
1, 154738, Note_on_c, 0, 71, 61
1, 154741, Note_on_c, 0, 67, 55
1, 154819, Note_on_c, 0, 67, 0
1, 154819, Note_on_c, 0, 71, 0
1, 154900, Note_on_c, 0, 71, 68
1, 154900, Note_on_c, 0, 65, 55
1, 154900, Note_on_c, 0, 62, 50
1, 154982, Note_on_c, 0, 62, 0
1, 154982, Note_on_c, 0, 65, 0
1, 154982, Note_on_c, 0, 71, 0
1, 155064, Note_on_c, 0, 71, 61
1, 155064, Note_on_c, 0, 67, 53
1, 155148, Note_on_c, 0, 67, 0
1, 155148, Note_on_c, 0, 71, 0
1, 155232, Note_on_c, 0, 71, 81
1, 155232, Note_on_c, 0, 55, 68
1, 155396, Note_on_c, 0, 55, 0
1, 155396, Note_on_c, 0, 71, 0
1, 155396, Note_on_c, 0, 72, 71
1, 155399, Note_on_c, 0, 67, 56
1, 155478, Note_on_c, 0, 67, 0
1, 155478, Note_on_c, 0, 72, 0
1, 155560, Note_on_c, 0, 54, 53
1, 155560, Note_on_c, 0, 60, 53
1, 155560, Note_on_c, 0, 63, 59
1, 155643, Note_on_c, 0, 63, 0
1, 155643, Note_on_c, 0, 60, 0
1, 155643, Note_on_c, 0, 54, 0
1, 155725, Note_on_c, 0, 66, 59
1, 155808, Note_on_c, 0, 66, 0
1, 155808, Note_on_c, 0, 75, 78
1, 155871, Note_on_c, 0, 75, 0
1, 155892, Note_on_c, 0, 72, 87
1, 155892, Note_on_c, 0, 53, 66
1, 156053, Note_on_c, 0, 53, 0
1, 156053, Note_on_c, 0, 72, 0
1, 156053, Note_on_c, 0, 70, 76
1, 156056, Note_on_c, 0, 65, 59
1, 156134, Note_on_c, 0, 65, 0
1, 156134, Note_on_c, 0, 70, 0
1, 156214, Note_on_c, 0, 70, 78
1, 156214, Note_on_c, 0, 62, 59
1, 156297, Note_on_c, 0, 62, 0
1, 156297, Note_on_c, 0, 70, 0
1, 156379, Note_on_c, 0, 70, 78
1, 156379, Note_on_c, 0, 65, 60
1, 156461, Note_on_c, 0, 65, 0
1, 156461, Note_on_c, 0, 70, 0
1, 156543, Note_on_c, 0, 72, 87
1, 156543, Note_on_c, 0, 55, 66
1, 156705, Note_on_c, 0, 55, 0
1, 156705, Note_on_c, 0, 72, 0
1, 156705, Note_on_c, 0, 70, 77
1, 156708, Note_on_c, 0, 64, 60
1, 156786, Note_on_c, 0, 64, 0
1, 156786, Note_on_c, 0, 70, 0
1, 156867, Note_on_c, 0, 70, 79
1, 156867, Note_on_c, 0, 60, 60
1, 156949, Note_on_c, 0, 60, 0
1, 156949, Note_on_c, 0, 70, 0
1, 157031, Note_on_c, 0, 70, 79
1, 157031, Note_on_c, 0, 64, 60
1, 157113, Note_on_c, 0, 64, 0
1, 157113, Note_on_c, 0, 70, 0
1, 157195, Note_on_c, 0, 72, 87
1, 157195, Note_on_c, 0, 62, 66
1, 157195, Note_on_c, 0, 53, 59
1, 157223, Control_c, 0, 64, 127
1, 157276, Note_on_c, 0, 72, 0
1, 157276, Note_on_c, 0, 70, 76
1, 157356, Note_on_c, 0, 70, 0
1, 157356, Note_on_c, 0, 53, 0
1, 157356, Note_on_c, 0, 69, 77
1, 157359, Note_on_c, 0, 62, 0
1, 157359, Note_on_c, 0, 65, 57
1, 157437, Note_on_c, 0, 69, 0
1, 157437, Note_on_c, 0, 70, 77
1, 157517, Note_on_c, 0, 70, 0
1, 157517, Note_on_c, 0, 65, 0
1, 157517, Note_on_c, 0, 72, 82
1, 157520, Note_on_c, 0, 63, 59
1, 157520, Note_on_c, 0, 53, 53
1, 157542, Control_c, 0, 64, 0
1, 157600, Note_on_c, 0, 53, 0
1, 157600, Note_on_c, 0, 63, 0
1, 157600, Note_on_c, 0, 72, 0
1, 157684, Note_on_c, 0, 74, 78
1, 157684, Note_on_c, 0, 65, 58
1, 157769, Note_on_c, 0, 65, 0
1, 157769, Note_on_c, 0, 74, 0
1, 157854, Note_on_c, 0, 70, 82
1, 157854, Note_on_c, 0, 62, 66
1, 157854, Note_on_c, 0, 58, 66
1, 158023, Note_on_c, 0, 58, 0
1, 158023, Note_on_c, 0, 62, 0
1, 158023, Note_on_c, 0, 70, 0
1, 158188, Note_on_c, 0, 67, 118
1, 158188, Note_on_c, 0, 55, 102
1, 159094, Note_on_c, 0, 86, 76
1, 159157, Note_on_c, 0, 86, 0
1, 159178, Note_on_c, 0, 55, 0
1, 159178, Note_on_c, 0, 67, 0
1, 159178, Note_on_c, 0, 84, 88
1, 159181, Note_on_c, 0, 55, 66
1, 159340, Note_on_c, 0, 55, 0
1, 159340, Note_on_c, 0, 84, 0
1, 159340, Note_on_c, 0, 83, 61
1, 159343, Note_on_c, 0, 67, 55
1, 159421, Note_on_c, 0, 67, 0
1, 159421, Note_on_c, 0, 83, 0
1, 159502, Note_on_c, 0, 83, 67
1, 159502, Note_on_c, 0, 65, 55
1, 159502, Note_on_c, 0, 62, 50
1, 159584, Note_on_c, 0, 62, 0
1, 159584, Note_on_c, 0, 65, 0
1, 159584, Note_on_c, 0, 83, 0
1, 159666, Note_on_c, 0, 83, 61
1, 159666, Note_on_c, 0, 67, 56
1, 159750, Note_on_c, 0, 67, 0
1, 159750, Note_on_c, 0, 83, 0
1, 159833, Note_on_c, 0, 83, 79
1, 159833, Note_on_c, 0, 55, 68
1, 159997, Note_on_c, 0, 55, 0
1, 159997, Note_on_c, 0, 83, 0
1, 159997, Note_on_c, 0, 84, 66
1, 160000, Note_on_c, 0, 67, 55
1, 160079, Note_on_c, 0, 67, 0
1, 160079, Note_on_c, 0, 84, 0
1, 160161, Note_on_c, 0, 60, 53
1, 160161, Note_on_c, 0, 63, 59
1, 160244, Note_on_c, 0, 63, 0
1, 160244, Note_on_c, 0, 60, 0
1, 160326, Note_on_c, 0, 67, 56
1, 160410, Note_on_c, 0, 67, 0
1, 160410, Note_on_c, 0, 87, 75
1, 160473, Note_on_c, 0, 87, 0
1, 160494, Note_on_c, 0, 84, 88
1, 160494, Note_on_c, 0, 55, 66
1, 160656, Note_on_c, 0, 55, 0
1, 160656, Note_on_c, 0, 84, 0
1, 160656, Note_on_c, 0, 83, 61
1, 160659, Note_on_c, 0, 67, 55
1, 160736, Note_on_c, 0, 67, 0
1, 160736, Note_on_c, 0, 83, 0
1, 160817, Note_on_c, 0, 83, 68
1, 160817, Note_on_c, 0, 65, 55
1, 160817, Note_on_c, 0, 62, 50
1, 160899, Note_on_c, 0, 62, 0
1, 160899, Note_on_c, 0, 65, 0
1, 160899, Note_on_c, 0, 83, 0
1, 160981, Note_on_c, 0, 83, 61
1, 160981, Note_on_c, 0, 67, 53
1, 161065, Note_on_c, 0, 67, 0
1, 161065, Note_on_c, 0, 83, 0
1, 161149, Note_on_c, 0, 83, 81
1, 161149, Note_on_c, 0, 55, 68
1, 161313, Note_on_c, 0, 55, 0
1, 161313, Note_on_c, 0, 83, 0
1, 161313, Note_on_c, 0, 84, 71
1, 161316, Note_on_c, 0, 67, 56
1, 161396, Note_on_c, 0, 67, 0
1, 161396, Note_on_c, 0, 84, 0
1, 161478, Note_on_c, 0, 54, 53
1, 161478, Note_on_c, 0, 60, 53
1, 161478, Note_on_c, 0, 63, 59
1, 161560, Note_on_c, 0, 63, 0
1, 161560, Note_on_c, 0, 60, 0
1, 161560, Note_on_c, 0, 54, 0
1, 161642, Note_on_c, 0, 66, 59
1, 161726, Note_on_c, 0, 66, 0
1, 161726, Note_on_c, 0, 87, 78
1, 161788, Note_on_c, 0, 87, 0
1, 161809, Note_on_c, 0, 84, 88
1, 161809, Note_on_c, 0, 53, 66
1, 161971, Note_on_c, 0, 53, 0
1, 161971, Note_on_c, 0, 84, 0
1, 161971, Note_on_c, 0, 82, 76
1, 161974, Note_on_c, 0, 65, 59
1, 162051, Note_on_c, 0, 65, 0
1, 162051, Note_on_c, 0, 82, 0
1, 162132, Note_on_c, 0, 82, 78
1, 162132, Note_on_c, 0, 62, 59
1, 162214, Note_on_c, 0, 62, 0
1, 162214, Note_on_c, 0, 82, 0
1, 162296, Note_on_c, 0, 82, 78
1, 162296, Note_on_c, 0, 65, 60
1, 162378, Note_on_c, 0, 65, 0
1, 162378, Note_on_c, 0, 82, 0
1, 162460, Note_on_c, 0, 84, 88
1, 162460, Note_on_c, 0, 55, 66
1, 162622, Note_on_c, 0, 55, 0
1, 162622, Note_on_c, 0, 84, 0
1, 162622, Note_on_c, 0, 82, 77
1, 162625, Note_on_c, 0, 64, 60
1, 162703, Note_on_c, 0, 64, 0
1, 162703, Note_on_c, 0, 82, 0
1, 162784, Note_on_c, 0, 82, 79
1, 162784, Note_on_c, 0, 60, 60
1, 162866, Note_on_c, 0, 60, 0
1, 162866, Note_on_c, 0, 82, 0
1, 162948, Note_on_c, 0, 82, 79
1, 162948, Note_on_c, 0, 64, 60
1, 163030, Note_on_c, 0, 64, 0
1, 163030, Note_on_c, 0, 82, 0
1, 163112, Note_on_c, 0, 84, 88
1, 163112, Note_on_c, 0, 62, 66
1, 163112, Note_on_c, 0, 53, 59
1, 163140, Control_c, 0, 64, 127
1, 163193, Note_on_c, 0, 84, 0
1, 163193, Note_on_c, 0, 82, 76
1, 163273, Note_on_c, 0, 82, 0
1, 163273, Note_on_c, 0, 53, 0
1, 163273, Note_on_c, 0, 81, 77
1, 163276, Note_on_c, 0, 62, 0
1, 163276, Note_on_c, 0, 65, 57
1, 163354, Note_on_c, 0, 81, 0
1, 163354, Note_on_c, 0, 82, 77
1, 163435, Note_on_c, 0, 82, 0
1, 163435, Note_on_c, 0, 65, 0
1, 163435, Note_on_c, 0, 84, 82
1, 163438, Note_on_c, 0, 63, 59
1, 163438, Note_on_c, 0, 53, 53
1, 163459, Control_c, 0, 64, 0
1, 163518, Note_on_c, 0, 53, 0
1, 163518, Note_on_c, 0, 63, 0
1, 163518, Note_on_c, 0, 84, 0
1, 163601, Note_on_c, 0, 86, 78
1, 163601, Note_on_c, 0, 65, 58
1, 163686, Note_on_c, 0, 65, 0
1, 163686, Note_on_c, 0, 86, 0
1, 163772, Note_on_c, 0, 82, 82
1, 163772, Note_on_c, 0, 62, 66
1, 163772, Note_on_c, 0, 58, 66
1, 163854, Note_on_c, 0, 58, 0
1, 163854, Note_on_c, 0, 62, 0
1, 163936, Note_on_c, 0, 82, 0
1, 163936, Note_on_c, 0, 57, 62
1, 164020, Note_on_c, 0, 57, 0
1, 164103, Note_on_c, 0, 55, 61
1, 164187, Note_on_c, 0, 55, 0
1, 164271, Note_on_c, 0, 74, 81
1, 164271, Note_on_c, 0, 53, 60
1, 164355, Note_on_c, 0, 53, 0
1, 164355, Note_on_c, 0, 74, 0
1, 164440, Note_on_c, 0, 79, 84
1, 164440, Note_on_c, 0, 51, 66
1, 164523, Note_on_c, 0, 51, 0
1, 164606, Note_on_c, 0, 58, 60
1, 164606, Note_on_c, 0, 55, 60
1, 164690, Note_on_c, 0, 55, 0
1, 164690, Note_on_c, 0, 58, 0
1, 164773, Note_on_c, 0, 79, 0
1, 164773, Note_on_c, 0, 75, 84
1, 164773, Note_on_c, 0, 48, 60
1, 164857, Note_on_c, 0, 48, 0
1, 164940, Note_on_c, 0, 60, 60
1, 164940, Note_on_c, 0, 55, 60
1, 165023, Note_on_c, 0, 55, 0
1, 165023, Note_on_c, 0, 60, 0
1, 165107, Note_on_c, 0, 75, 0
1, 165107, Note_on_c, 0, 72, 84
1, 165107, Note_on_c, 0, 53, 66
1, 165189, Note_on_c, 0, 53, 0
1, 165271, Note_on_c, 0, 57, 59
1, 165271, Note_on_c, 0, 60, 59
1, 165353, Note_on_c, 0, 60, 0
1, 165353, Note_on_c, 0, 57, 0
1, 165435, Note_on_c, 0, 72, 0
1, 165435, Note_on_c, 0, 74, 84
1, 165435, Note_on_c, 0, 51, 60
1, 165518, Note_on_c, 0, 51, 0
1, 165518, Note_on_c, 0, 74, 0
1, 165600, Note_on_c, 0, 75, 82
1, 165600, Note_on_c, 0, 60, 60
1, 165600, Note_on_c, 0, 57, 60
1, 165682, Note_on_c, 0, 57, 0
1, 165682, Note_on_c, 0, 60, 0
1, 165682, Note_on_c, 0, 75, 0
1, 165764, Note_on_c, 0, 77, 81
1, 165764, Note_on_c, 0, 50, 63
1, 165773, Control_c, 0, 64, 127
1, 165845, Note_on_c, 0, 77, 0
1, 165845, Note_on_c, 0, 79, 77
1, 165926, Note_on_c, 0, 79, 0
1, 165926, Note_on_c, 0, 50, 0
1, 165926, Note_on_c, 0, 77, 77
1, 165929, Note_on_c, 0, 58, 58
1, 165929, Note_on_c, 0, 53, 53
1, 166007, Note_on_c, 0, 77, 0
1, 166007, Note_on_c, 0, 75, 77
1, 166087, Note_on_c, 0, 75, 0
1, 166087, Note_on_c, 0, 53, 0
1, 166087, Note_on_c, 0, 74, 83
1, 166090, Note_on_c, 0, 58, 0
1, 166090, Note_on_c, 0, 46, 58
1, 166097, Control_c, 0, 64, 0
1, 166131, Control_c, 0, 64, 127
1, 166170, Note_on_c, 0, 74, 0
1, 166170, Note_on_c, 0, 75, 76
1, 166252, Note_on_c, 0, 75, 0
1, 166252, Note_on_c, 0, 46, 0
1, 166252, Note_on_c, 0, 74, 76
1, 166255, Note_on_c, 0, 58, 58
1, 166255, Note_on_c, 0, 53, 53
1, 166338, Note_on_c, 0, 74, 0
1, 166338, Note_on_c, 0, 72, 77
1, 166423, Note_on_c, 0, 72, 0
1, 166423, Note_on_c, 0, 53, 0
1, 166423, Note_on_c, 0, 70, 84
1, 166426, Note_on_c, 0, 58, 0
1, 166426, Control_c, 0, 64, 0
1, 166426, Note_on_c, 0, 51, 64
1, 166526, Control_c, 0, 64, 127
1, 166591, Note_on_c, 0, 51, 0
1, 166591, Note_on_c, 0, 58, 58
1, 166591, Note_on_c, 0, 55, 53
1, 166748, Control_c, 0, 64, 0
1, 166758, Note_on_c, 0, 55, 0
1, 166758, Note_on_c, 0, 58, 0
1, 166758, Note_on_c, 0, 50, 58
1, 166926, Note_on_c, 0, 50, 0
1, 166926, Note_on_c, 0, 70, 0
1, 166926, Note_on_c, 0, 70, 81
1, 166929, Note_on_c, 0, 58, 58
1, 166929, Note_on_c, 0, 55, 53
1, 167010, Note_on_c, 0, 70, 0
1, 167094, Note_on_c, 0, 55, 0
1, 167094, Note_on_c, 0, 58, 0
1, 167094, Note_on_c, 0, 75, 84
1, 167097, Note_on_c, 0, 48, 66
1, 167104, Control_c, 0, 64, 127
1, 167261, Note_on_c, 0, 48, 0
1, 167261, Note_on_c, 0, 60, 60
1, 167261, Note_on_c, 0, 55, 54
1, 167428, Note_on_c, 0, 55, 0
1, 167428, Note_on_c, 0, 75, 0
1, 167428, Note_on_c, 0, 72, 84
1, 167431, Note_on_c, 0, 60, 0
1, 167431, Note_on_c, 0, 45, 60
1, 167595, Note_on_c, 0, 45, 0
1, 167595, Note_on_c, 0, 57, 60
1, 167595, Note_on_c, 0, 51, 54
1, 167762, Note_on_c, 0, 51, 0
1, 167762, Note_on_c, 0, 72, 0
1, 167762, Note_on_c, 0, 69, 84
1, 167765, Note_on_c, 0, 57, 0
1, 167765, Note_on_c, 0, 50, 66
1, 167772, Control_c, 0, 64, 0
1, 167796, Control_c, 0, 64, 127
1, 167930, Note_on_c, 0, 50, 0
1, 167930, Note_on_c, 0, 54, 53
1, 167930, Note_on_c, 0, 57, 59
1, 167965, Control_c, 0, 64, 0
1, 168099, Note_on_c, 0, 69, 0
1, 168099, Note_on_c, 0, 62, 78
1, 168099, Note_on_c, 0, 74, 89
1, 168102, Note_on_c, 0, 57, 0
1, 168102, Note_on_c, 0, 54, 0
1, 168102, Note_on_c, 0, 42, 66
1, 168181, Note_on_c, 0, 62, 0
1, 168181, Note_on_c, 0, 74, 0
1, 168222, Note_on_c, 0, 42, 0
1, 168264, Note_on_c, 0, 60, 73
1, 168264, Note_on_c, 0, 72, 82
1, 168264, Note_on_c, 0, 50, 54
1, 168267, Note_on_c, 0, 54, 60
1, 168346, Note_on_c, 0, 72, 0
1, 168346, Note_on_c, 0, 60, 0
1, 168387, Note_on_c, 0, 50, 0
1, 168387, Note_on_c, 0, 54, 0
1, 168428, Note_on_c, 0, 60, 79
1, 168428, Note_on_c, 0, 72, 90
1, 168428, Note_on_c, 0, 43, 71
1, 168508, Note_on_c, 0, 43, 0
1, 168588, Note_on_c, 0, 72, 0
1, 168588, Note_on_c, 0, 60, 0
1, 168588, Note_on_c, 0, 58, 75
1, 168591, Note_on_c, 0, 70, 84
1, 168591, Note_on_c, 0, 55, 63
1, 168668, Note_on_c, 0, 55, 0
1, 168668, Note_on_c, 0, 70, 0
1, 168668, Note_on_c, 0, 58, 0
1, 168748, Note_on_c, 0, 57, 80
1, 168748, Note_on_c, 0, 69, 91
1, 168748, Note_on_c, 0, 39, 73
1, 168830, Note_on_c, 0, 39, 0
1, 168830, Note_on_c, 0, 69, 0
1, 168830, Note_on_c, 0, 57, 0
1, 168912, Note_on_c, 0, 55, 76
1, 168912, Note_on_c, 0, 67, 85
1, 168912, Note_on_c, 0, 51, 68
1, 168994, Note_on_c, 0, 51, 0
1, 168994, Note_on_c, 0, 67, 0
1, 168994, Note_on_c, 0, 55, 0
1, 169076, Note_on_c, 0, 58, 85
1, 169076, Note_on_c, 0, 70, 97
1, 169076, Note_on_c, 0, 36, 75
1, 169158, Note_on_c, 0, 36, 0
1, 169240, Note_on_c, 0, 70, 0
1, 169240, Note_on_c, 0, 58, 0
1, 169240, Note_on_c, 0, 69, 90
1, 169243, Note_on_c, 0, 57, 79
1, 169243, Note_on_c, 0, 48, 70
1, 169323, Note_on_c, 0, 48, 0
1, 169323, Note_on_c, 0, 57, 0
1, 169323, Note_on_c, 0, 69, 0
1, 169405, Note_on_c, 0, 55, 83
1, 169405, Note_on_c, 0, 67, 95
1, 169405, Note_on_c, 0, 38, 78
1, 169485, Note_on_c, 0, 38, 0
1, 169485, Note_on_c, 0, 67, 0
1, 169485, Note_on_c, 0, 55, 0
1, 169566, Note_on_c, 0, 54, 79
1, 169566, Note_on_c, 0, 66, 90
1, 169566, Note_on_c, 0, 50, 69
1, 169646, Note_on_c, 0, 50, 0
1, 169646, Note_on_c, 0, 66, 0
1, 169646, Note_on_c, 0, 54, 0
1, 169727, Note_on_c, 0, 55, 84
1, 169727, Note_on_c, 0, 67, 96
1, 169727, Note_on_c, 0, 39, 68
1, 169730, Note_on_c, 0, 51, 76
1, 169899, Note_on_c, 0, 51, 0
1, 169899, Note_on_c, 0, 55, 0
1, 169899, Note_on_c, 0, 67, 0
1, 169902, Note_on_c, 0, 39, 0
1, 170071, Note_on_c, 0, 62, 93
1, 170071, Note_on_c, 0, 74, 105
1, 170071, Note_on_c, 0, 42, 75
1, 170074, Note_on_c, 0, 50, 75
1, 170074, Note_on_c, 0, 54, 84
1, 170102, Control_c, 0, 64, 127
1, 170580, Note_on_c, 0, 74, 0
1, 170580, Note_on_c, 0, 62, 0
1, 170580, Note_on_c, 0, 63, 77
1, 170583, Note_on_c, 0, 75, 88
1, 170664, Note_on_c, 0, 75, 0
1, 170664, Note_on_c, 0, 63, 0
1, 170749, Note_on_c, 0, 62, 81
1, 170749, Note_on_c, 0, 74, 92
1, 170778, Control_c, 0, 64, 0
1, 170831, Note_on_c, 0, 74, 0
1, 170831, Note_on_c, 0, 62, 0
1, 170914, Note_on_c, 0, 60, 77
1, 170914, Note_on_c, 0, 72, 88
1, 170996, Note_on_c, 0, 72, 0
1, 170996, Note_on_c, 0, 60, 0
1, 171078, Note_on_c, 0, 54, 0
1, 171078, Note_on_c, 0, 60, 82
1, 171078, Note_on_c, 0, 72, 93
1, 171081, Note_on_c, 0, 42, 0
1, 171081, Note_on_c, 0, 50, 0
1, 171081, Note_on_c, 0, 43, 74
1, 171111, Control_c, 0, 64, 127
1, 171239, Note_on_c, 0, 60, 0
1, 171239, Note_on_c, 0, 72, 0
1, 171239, Note_on_c, 0, 58, 77
1, 171242, Note_on_c, 0, 43, 0
1, 171242, Note_on_c, 0, 70, 88
1, 171242, Note_on_c, 0, 55, 69
1, 171263, Control_c, 0, 64, 0
1, 171320, Note_on_c, 0, 70, 0
1, 171320, Note_on_c, 0, 58, 0
1, 171400, Note_on_c, 0, 55, 0
1, 171400, Note_on_c, 0, 57, 82
1, 171400, Note_on_c, 0, 69, 93
1, 171403, Note_on_c, 0, 39, 69
1, 171482, Note_on_c, 0, 69, 0
1, 171482, Note_on_c, 0, 57, 0
1, 171565, Note_on_c, 0, 39, 0
1, 171565, Note_on_c, 0, 55, 77
1, 171565, Note_on_c, 0, 67, 88
1, 171568, Note_on_c, 0, 51, 69
1, 171651, Note_on_c, 0, 67, 0
1, 171651, Note_on_c, 0, 55, 0
1, 171738, Note_on_c, 0, 51, 0
1, 171738, Note_on_c, 0, 56, 84
1, 171738, Note_on_c, 0, 68, 96
1, 171741, Note_on_c, 0, 36, 80
1, 171777, Control_c, 0, 64, 127
1, 171906, Note_on_c, 0, 36, 0
1, 171906, Note_on_c, 0, 48, 73
1, 172073, Note_on_c, 0, 68, 0
1, 172073, Note_on_c, 0, 56, 0
1, 172073, Note_on_c, 0, 54, 79
1, 172076, Note_on_c, 0, 48, 0
1, 172076, Note_on_c, 0, 66, 90
1, 172076, Note_on_c, 0, 38, 73
1, 172133, Control_c, 0, 64, 0
1, 172204, Control_c, 0, 64, 127
1, 172243, Note_on_c, 0, 38, 0
1, 172243, Note_on_c, 0, 50, 73
1, 172421, Note_on_c, 0, 66, 0
1, 172421, Note_on_c, 0, 54, 0
1, 172421, Note_on_c, 0, 55, 83
1, 172424, Note_on_c, 0, 50, 0
1, 172424, Note_on_c, 0, 67, 95
1, 172424, Control_c, 0, 91, 127
1, 172427, Control_c, 0, 64, 0
1, 172427, Note_on_c, 0, 31, 76
1, 172471, Control_c, 0, 64, 127
1, 172588, Note_on_c, 0, 31, 0
1, 172588, Note_on_c, 0, 67, 0
1, 172588, Note_on_c, 0, 55, 0
1, 172591, Note_on_c, 0, 43, 79
1, 172741, Control_c, 0, 64, 0
1, 172755, Note_on_c, 0, 43, 0
1, 172755, Note_on_c, 0, 50, 79
1, 172755, Note_on_c, 0, 62, 90
1, 172922, Note_on_c, 0, 70, 88
1, 172922, Note_on_c, 0, 82, 100
1, 173007, Note_on_c, 0, 82, 0
1, 173007, Note_on_c, 0, 70, 0
1, 173092, Note_on_c, 0, 62, 0
1, 173092, Note_on_c, 0, 69, 95
1, 173092, Note_on_c, 0, 81, 108
1, 173095, Note_on_c, 0, 50, 0
1, 173095, Note_on_c, 0, 51, 78
1, 173095, Note_on_c, 0, 63, 89
1, 173095, Control_c, 0, 64, 127
1, 173254, Note_on_c, 0, 81, 0
1, 173254, Note_on_c, 0, 69, 0
1, 173254, Note_on_c, 0, 67, 78
1, 173257, Note_on_c, 0, 79, 89
1, 173282, Control_c, 0, 64, 0
1, 173334, Note_on_c, 0, 79, 0
1, 173334, Note_on_c, 0, 67, 0
1, 173415, Note_on_c, 0, 63, 0
1, 173415, Note_on_c, 0, 67, 83
1, 173415, Note_on_c, 0, 79, 95
1, 173418, Note_on_c, 0, 51, 0
1, 173418, Note_on_c, 0, 49, 72
1, 173418, Note_on_c, 0, 61, 81
1, 173497, Note_on_c, 0, 79, 0
1, 173497, Note_on_c, 0, 67, 0
1, 173580, Note_on_c, 0, 67, 77
1, 173580, Note_on_c, 0, 79, 88
1, 173663, Note_on_c, 0, 79, 0
1, 173663, Note_on_c, 0, 67, 0
1, 173746, Note_on_c, 0, 61, 0
1, 173746, Note_on_c, 0, 67, 94
1, 173746, Note_on_c, 0, 79, 106
1, 173749, Note_on_c, 0, 49, 0
1, 173749, Note_on_c, 0, 50, 72
1, 173749, Note_on_c, 0, 62, 81
1, 173790, Control_c, 0, 64, 127
1, 173911, Note_on_c, 0, 79, 0
1, 173911, Note_on_c, 0, 67, 0
1, 173911, Note_on_c, 0, 66, 88
1, 173914, Note_on_c, 0, 78, 100
1, 173973, Control_c, 0, 64, 0
1, 173993, Note_on_c, 0, 78, 0
1, 173993, Note_on_c, 0, 66, 0
1, 174075, Note_on_c, 0, 50, 0
1, 174075, Note_on_c, 0, 62, 0
1, 174075, Note_on_c, 0, 47, 85
1, 174079, Control_c, 0, 64, 127
1, 174184, Note_on_c, 0, 47, 0
1, 174184, Note_on_c, 0, 59, 76
1, 174239, Note_on_c, 0, 67, 88
1, 174239, Note_on_c, 0, 79, 100
1, 174296, Note_on_c, 0, 59, 0
1, 174296, Note_on_c, 0, 47, 76
1, 174324, Note_on_c, 0, 79, 0
1, 174324, Note_on_c, 0, 67, 0
1, 174409, Note_on_c, 0, 47, 0
1, 174409, Note_on_c, 0, 65, 95
1, 174409, Note_on_c, 0, 77, 108
1, 174412, Control_c, 0, 64, 0
1, 174412, Note_on_c, 0, 48, 87
1, 174455, Control_c, 0, 64, 127
1, 174516, Note_on_c, 0, 48, 0
1, 174516, Note_on_c, 0, 60, 79
1, 174570, Note_on_c, 0, 77, 0
1, 174570, Note_on_c, 0, 65, 0
1, 174570, Note_on_c, 0, 64, 78
1, 174573, Note_on_c, 0, 76, 89
1, 174586, Control_c, 0, 64, 0
1, 174624, Note_on_c, 0, 60, 0
1, 174624, Note_on_c, 0, 48, 78
1, 174651, Note_on_c, 0, 76, 0
1, 174651, Note_on_c, 0, 64, 0
1, 174732, Note_on_c, 0, 48, 0
1, 174732, Note_on_c, 0, 63, 83
1, 174732, Note_on_c, 0, 75, 95
1, 174735, Note_on_c, 0, 45, 83
1, 174814, Note_on_c, 0, 75, 0
1, 174814, Note_on_c, 0, 63, 0
1, 174842, Note_on_c, 0, 45, 0
1, 174842, Note_on_c, 0, 57, 76
1, 174896, Note_on_c, 0, 63, 77
1, 174896, Note_on_c, 0, 75, 88
1, 174952, Note_on_c, 0, 57, 0
1, 174952, Note_on_c, 0, 45, 76
1, 174980, Note_on_c, 0, 75, 0
1, 174980, Note_on_c, 0, 63, 0
1, 175063, Note_on_c, 0, 45, 0
1, 175063, Note_on_c, 0, 63, 94
1, 175063, Note_on_c, 0, 75, 106
1, 175066, Note_on_c, 0, 46, 81
1, 175112, Control_c, 0, 64, 127
1, 175173, Note_on_c, 0, 46, 0
1, 175173, Note_on_c, 0, 58, 76
1, 175227, Note_on_c, 0, 75, 0
1, 175227, Note_on_c, 0, 63, 0
1, 175227, Note_on_c, 0, 62, 88
1, 175230, Note_on_c, 0, 74, 100
1, 175247, Control_c, 0, 64, 0
1, 175282, Note_on_c, 0, 58, 0
1, 175282, Note_on_c, 0, 46, 76
1, 175310, Note_on_c, 0, 74, 0
1, 175310, Note_on_c, 0, 62, 0
1, 175392, Note_on_c, 0, 46, 0
1, 175392, Note_on_c, 0, 74, 90
1, 175392, Note_on_c, 0, 86, 102
1, 175458, Control_c, 0, 64, 127
1, 175552, Note_on_c, 0, 46, 83
1, 175552, Note_on_c, 0, 58, 96
1, 175636, Note_on_c, 0, 58, 0
1, 175636, Note_on_c, 0, 46, 0
1, 175720, Note_on_c, 0, 86, 0
1, 175720, Note_on_c, 0, 74, 0
1, 175720, Note_on_c, 0, 75, 89
1, 175723, Note_on_c, 0, 87, 101
1, 175723, Control_c, 0, 64, 0
1, 175723, Note_on_c, 0, 45, 91
1, 175726, Note_on_c, 0, 57, 103
1, 175768, Control_c, 0, 64, 127
1, 175882, Note_on_c, 0, 57, 0
1, 175882, Note_on_c, 0, 45, 0
1, 175882, Note_on_c, 0, 43, 78
1, 175885, Note_on_c, 0, 55, 89
1, 175934, Control_c, 0, 64, 0
1, 175962, Note_on_c, 0, 55, 0
1, 175962, Note_on_c, 0, 43, 0
1, 176043, Note_on_c, 0, 87, 0
1, 176043, Note_on_c, 0, 75, 0
1, 176043, Note_on_c, 0, 73, 81
1, 176046, Note_on_c, 0, 85, 93
1, 176046, Note_on_c, 0, 43, 83
1, 176046, Note_on_c, 0, 55, 95
1, 176126, Note_on_c, 0, 55, 0
1, 176126, Note_on_c, 0, 43, 0
1, 176208, Note_on_c, 0, 43, 77
1, 176208, Note_on_c, 0, 55, 88
1, 176291, Note_on_c, 0, 55, 0
1, 176291, Note_on_c, 0, 43, 0
1, 176374, Note_on_c, 0, 85, 0
1, 176374, Note_on_c, 0, 73, 0
1, 176374, Note_on_c, 0, 74, 81
1, 176377, Note_on_c, 0, 86, 93
1, 176377, Note_on_c, 0, 43, 90
1, 176377, Note_on_c, 0, 55, 102
1, 176413, Control_c, 0, 64, 127
1, 176539, Note_on_c, 0, 55, 0
1, 176539, Note_on_c, 0, 43, 0
1, 176539, Note_on_c, 0, 42, 83
1, 176542, Note_on_c, 0, 54, 96
1, 176562, Control_c, 0, 64, 0
1, 176621, Note_on_c, 0, 54, 0
1, 176621, Note_on_c, 0, 42, 0
1, 176703, Note_on_c, 0, 86, 0
1, 176703, Note_on_c, 0, 74, 0
1, 176703, Note_on_c, 0, 83, 105
1, 176812, Note_on_c, 0, 83, 0
1, 176812, Note_on_c, 0, 71, 93
1, 176867, Note_on_c, 0, 41, 83
1, 176867, Note_on_c, 0, 53, 96
1, 176924, Note_on_c, 0, 71, 0
1, 176924, Note_on_c, 0, 83, 93
1, 176952, Note_on_c, 0, 53, 0
1, 176952, Note_on_c, 0, 41, 0
1, 177037, Note_on_c, 0, 83, 0
1, 177037, Note_on_c, 0, 84, 102
1, 177037, Note_on_c, 0, 41, 91
1, 177040, Note_on_c, 0, 53, 103
1, 177079, Control_c, 0, 64, 127
1, 177145, Note_on_c, 0, 84, 0
1, 177145, Note_on_c, 0, 72, 93
1, 177198, Note_on_c, 0, 53, 0
1, 177198, Note_on_c, 0, 41, 0
1, 177198, Note_on_c, 0, 40, 75
1, 177201, Note_on_c, 0, 52, 84
1, 177237, Control_c, 0, 64, 0
1, 177252, Note_on_c, 0, 72, 0
1, 177252, Note_on_c, 0, 84, 93
1, 177279, Note_on_c, 0, 52, 0
1, 177279, Note_on_c, 0, 40, 0
1, 177360, Note_on_c, 0, 84, 0
1, 177360, Note_on_c, 0, 81, 100
1, 177360, Note_on_c, 0, 39, 80
1, 177363, Note_on_c, 0, 51, 91
1, 177442, Note_on_c, 0, 51, 0
1, 177442, Note_on_c, 0, 39, 0
1, 177470, Note_on_c, 0, 81, 0
1, 177470, Note_on_c, 0, 69, 93
1, 177524, Note_on_c, 0, 39, 74
1, 177524, Note_on_c, 0, 51, 83
1, 177580, Note_on_c, 0, 69, 0
1, 177580, Note_on_c, 0, 81, 93
1, 177608, Note_on_c, 0, 51, 0
1, 177608, Note_on_c, 0, 39, 0
1, 177691, Note_on_c, 0, 81, 0
1, 177691, Note_on_c, 0, 82, 101
1, 177691, Note_on_c, 0, 39, 90
1, 177694, Note_on_c, 0, 51, 102
1, 177740, Control_c, 0, 64, 127
1, 177801, Note_on_c, 0, 82, 0
1, 177801, Note_on_c, 0, 70, 94
1, 177856, Note_on_c, 0, 51, 0
1, 177856, Note_on_c, 0, 39, 0
1, 177856, Note_on_c, 0, 38, 83
1, 177859, Note_on_c, 0, 50, 96
1, 177910, Note_on_c, 0, 70, 0
1, 177910, Note_on_c, 0, 82, 94
1, 177938, Note_on_c, 0, 50, 0
1, 177938, Note_on_c, 0, 38, 0
1, 178016, Control_c, 0, 64, 0
1, 178020, Note_on_c, 0, 82, 0
1, 178020, Note_on_c, 0, 79, 85
1, 178020, Note_on_c, 0, 81, 101
1, 178023, Note_on_c, 0, 39, 102
1, 178049, Control_c, 0, 64, 127
1, 178128, Note_on_c, 0, 81, 0
1, 178128, Note_on_c, 0, 79, 0
1, 178128, Note_on_c, 0, 69, 94
1, 178181, Note_on_c, 0, 39, 0
1, 178181, Note_on_c, 0, 51, 94
1, 178235, Note_on_c, 0, 69, 0
1, 178235, Note_on_c, 0, 79, 79
1, 178235, Note_on_c, 0, 81, 94
1, 178343, Note_on_c, 0, 81, 0
1, 178343, Note_on_c, 0, 79, 0
1, 178343, Note_on_c, 0, 79, 85
1, 178346, Note_on_c, 0, 51, 0
1, 178346, Note_on_c, 0, 81, 101
1, 178346, Note_on_c, 0, 38, 102
1, 178352, Control_c, 0, 64, 0
1, 178382, Control_c, 0, 64, 127
1, 178452, Note_on_c, 0, 81, 0
1, 178452, Note_on_c, 0, 79, 0
1, 178452, Note_on_c, 0, 69, 94
1, 178506, Note_on_c, 0, 38, 0
1, 178506, Note_on_c, 0, 50, 95
1, 178561, Note_on_c, 0, 69, 0
1, 178561, Note_on_c, 0, 79, 79
1, 178561, Note_on_c, 0, 81, 94
1, 178670, Note_on_c, 0, 81, 0
1, 178670, Note_on_c, 0, 79, 0
1, 178670, Note_on_c, 0, 79, 85
1, 178673, Note_on_c, 0, 50, 0
1, 178673, Note_on_c, 0, 81, 101
1, 178673, Note_on_c, 0, 37, 102
1, 178705, Control_c, 0, 64, 0
1, 178739, Control_c, 0, 64, 127
1, 178779, Note_on_c, 0, 81, 0
1, 178779, Note_on_c, 0, 79, 0
1, 178779, Note_on_c, 0, 69, 94
1, 178833, Note_on_c, 0, 37, 0
1, 178833, Note_on_c, 0, 49, 92
1, 178889, Note_on_c, 0, 69, 0
1, 178889, Note_on_c, 0, 79, 81
1, 178889, Note_on_c, 0, 81, 96
1, 179001, Note_on_c, 0, 81, 0
1, 179001, Note_on_c, 0, 79, 0
1, 179001, Note_on_c, 0, 78, 97
1, 179004, Note_on_c, 0, 49, 0
1, 179004, Note_on_c, 0, 81, 101
1, 179004, Note_on_c, 0, 38, 102
1, 179007, Control_c, 0, 64, 0
1, 179040, Control_c, 0, 64, 127
1, 179111, Note_on_c, 0, 38, 0
1, 179111, Note_on_c, 0, 42, 93
1, 179220, Note_on_c, 0, 42, 0
1, 179220, Note_on_c, 0, 45, 93
1, 179329, Note_on_c, 0, 45, 0
1, 179329, Note_on_c, 0, 81, 0
1, 179329, Note_on_c, 0, 78, 0
1, 179332, Note_on_c, 0, 50, 100
1, 179436, Note_on_c, 0, 50, 0
1, 179436, Note_on_c, 0, 54, 91
1, 179490, Note_on_c, 0, 74, 93
1, 179490, Note_on_c, 0, 86, 105
1, 179546, Note_on_c, 0, 54, 0
1, 179546, Note_on_c, 0, 57, 91
1, 179657, Note_on_c, 0, 86, 0
1, 179657, Note_on_c, 0, 74, 0
1, 179657, Note_on_c, 0, 75, 92
1, 179660, Note_on_c, 0, 57, 0
1, 179660, Note_on_c, 0, 87, 104
1, 179660, Control_c, 0, 64, 0
1, 179663, Note_on_c, 0, 50, 97
1, 179698, Control_c, 0, 64, 127
1, 179765, Note_on_c, 0, 50, 0
1, 179765, Note_on_c, 0, 55, 85
1, 179873, Note_on_c, 0, 55, 0
1, 179873, Note_on_c, 0, 58, 85
1, 179981, Note_on_c, 0, 87, 0
1, 179981, Note_on_c, 0, 75, 0
1, 179981, Note_on_c, 0, 73, 85
1, 179984, Note_on_c, 0, 58, 0
1, 179984, Note_on_c, 0, 85, 99
1, 179984, Note_on_c, 0, 57, 91
1, 180000, Control_c, 0, 64, 0
1, 180034, Control_c, 0, 64, 127
1, 180091, Note_on_c, 0, 57, 0
1, 180091, Note_on_c, 0, 58, 79
1, 180201, Note_on_c, 0, 58, 0
1, 180201, Note_on_c, 0, 55, 79
1, 180312, Note_on_c, 0, 85, 0
1, 180312, Note_on_c, 0, 73, 0
1, 180312, Note_on_c, 0, 74, 85
1, 180315, Note_on_c, 0, 55, 0
1, 180315, Note_on_c, 0, 86, 99
1, 180315, Control_c, 0, 64, 0
1, 180318, Note_on_c, 0, 50, 88
1, 180339, Control_c, 0, 64, 127
1, 180422, Note_on_c, 0, 50, 0
1, 180422, Note_on_c, 0, 54, 80
1, 180531, Note_on_c, 0, 54, 0
1, 180531, Note_on_c, 0, 57, 80
1, 180641, Note_on_c, 0, 57, 0
1, 180641, Note_on_c, 0, 86, 0
1, 180641, Note_on_c, 0, 74, 0
1, 180644, Note_on_c, 0, 56, 71
1, 180644, Control_c, 0, 64, 0
1, 180688, Control_c, 0, 64, 127
1, 180750, Note_on_c, 0, 56, 0
1, 180750, Note_on_c, 0, 57, 60
1, 180805, Note_on_c, 0, 74, 68
1, 180805, Note_on_c, 0, 86, 76
1, 180861, Note_on_c, 0, 57, 0
1, 180861, Note_on_c, 0, 54, 60
1, 180974, Note_on_c, 0, 86, 0
1, 180974, Note_on_c, 0, 74, 0
1, 180974, Note_on_c, 0, 72, 77
1, 180977, Note_on_c, 0, 54, 0
1, 180977, Note_on_c, 0, 84, 88
1, 180977, Control_c, 0, 64, 0
1, 180980, Note_on_c, 0, 50, 66
1, 181005, Control_c, 0, 64, 127
1, 181082, Note_on_c, 0, 50, 0
1, 181082, Note_on_c, 0, 53, 57
1, 181136, Note_on_c, 0, 84, 0
1, 181136, Note_on_c, 0, 72, 0
1, 181136, Note_on_c, 0, 71, 59
1, 181139, Note_on_c, 0, 83, 66
1, 181190, Note_on_c, 0, 53, 0
1, 181190, Note_on_c, 0, 56, 57
1, 181217, Note_on_c, 0, 83, 0
1, 181217, Note_on_c, 0, 71, 0
1, 181263, Control_c, 0, 64, 0
1, 181298, Note_on_c, 0, 56, 0
1, 181298, Note_on_c, 0, 71, 64
1, 181298, Note_on_c, 0, 83, 72
1, 181301, Note_on_c, 0, 55, 67
1, 181380, Note_on_c, 0, 83, 0
1, 181380, Note_on_c, 0, 71, 0
1, 181407, Note_on_c, 0, 55, 0
1, 181407, Note_on_c, 0, 56, 59
1, 181462, Note_on_c, 0, 71, 59
1, 181462, Note_on_c, 0, 83, 67
1, 181518, Note_on_c, 0, 56, 0
1, 181518, Note_on_c, 0, 53, 59
1, 181546, Note_on_c, 0, 83, 0
1, 181546, Note_on_c, 0, 71, 0
1, 181629, Note_on_c, 0, 53, 0
1, 181629, Note_on_c, 0, 71, 71
1, 181629, Note_on_c, 0, 83, 79
1, 181632, Note_on_c, 0, 48, 67
1, 181652, Control_c, 0, 64, 127
1, 181738, Note_on_c, 0, 48, 0
1, 181738, Note_on_c, 0, 53, 60
1, 181793, Note_on_c, 0, 83, 0
1, 181793, Note_on_c, 0, 71, 0
1, 181793, Note_on_c, 0, 72, 59
1, 181796, Note_on_c, 0, 84, 66
1, 181848, Note_on_c, 0, 53, 0
1, 181848, Control_c, 0, 64, 0
1, 181848, Note_on_c, 0, 56, 60
1, 181875, Note_on_c, 0, 84, 0
1, 181875, Note_on_c, 0, 72, 0
1, 181957, Note_on_c, 0, 56, 0
1, 181957, Note_on_c, 0, 48, 100
1, 182011, Control_c, 0, 64, 127
1, 182064, Note_on_c, 0, 48, 0
1, 182064, Note_on_c, 0, 52, 91
1, 182118, Note_on_c, 0, 72, 93
1, 182118, Note_on_c, 0, 84, 105
1, 182174, Note_on_c, 0, 52, 0
1, 182174, Note_on_c, 0, 55, 91
1, 182286, Note_on_c, 0, 84, 0
1, 182286, Note_on_c, 0, 72, 0
1, 182286, Note_on_c, 0, 73, 92
1, 182289, Note_on_c, 0, 55, 0
1, 182289, Note_on_c, 0, 85, 104
1, 182289, Control_c, 0, 64, 0
1, 182292, Note_on_c, 0, 48, 97
1, 182324, Control_c, 0, 64, 127
1, 182393, Note_on_c, 0, 48, 0
1, 182393, Note_on_c, 0, 53, 85
1, 182501, Note_on_c, 0, 53, 0
1, 182501, Note_on_c, 0, 56, 85
1, 182609, Note_on_c, 0, 85, 0
1, 182609, Note_on_c, 0, 73, 0
1, 182609, Note_on_c, 0, 71, 83
1, 182612, Note_on_c, 0, 56, 0
1, 182612, Note_on_c, 0, 83, 96
1, 182612, Note_on_c, 0, 55, 91
1, 182628, Control_c, 0, 64, 0
1, 182668, Control_c, 0, 64, 127
1, 182719, Note_on_c, 0, 55, 0
1, 182719, Note_on_c, 0, 56, 79
1, 182829, Note_on_c, 0, 56, 0
1, 182829, Note_on_c, 0, 53, 79
1, 182940, Note_on_c, 0, 83, 0
1, 182940, Note_on_c, 0, 71, 0
1, 182940, Note_on_c, 0, 72, 83
1, 182943, Note_on_c, 0, 53, 0
1, 182943, Note_on_c, 0, 84, 96
1, 182943, Control_c, 0, 64, 0
1, 182946, Note_on_c, 0, 48, 88
1, 182968, Control_c, 0, 64, 127
1, 183050, Note_on_c, 0, 48, 0
1, 183050, Note_on_c, 0, 52, 80
1, 183159, Note_on_c, 0, 52, 0
1, 183159, Note_on_c, 0, 55, 80
1, 183269, Note_on_c, 0, 55, 0
1, 183269, Note_on_c, 0, 84, 0
1, 183269, Note_on_c, 0, 72, 0
1, 183272, Note_on_c, 0, 54, 71
1, 183272, Control_c, 0, 64, 0
1, 183316, Control_c, 0, 64, 127
1, 183378, Note_on_c, 0, 54, 0
1, 183378, Note_on_c, 0, 55, 60
1, 183433, Note_on_c, 0, 72, 68
1, 183433, Note_on_c, 0, 84, 76
1, 183489, Note_on_c, 0, 55, 0
1, 183489, Note_on_c, 0, 52, 60
1, 183602, Note_on_c, 0, 84, 0
1, 183602, Note_on_c, 0, 72, 0
1, 183602, Note_on_c, 0, 70, 77
1, 183605, Note_on_c, 0, 52, 0
1, 183605, Note_on_c, 0, 82, 88
1, 183605, Control_c, 0, 64, 0
1, 183608, Note_on_c, 0, 48, 66
1, 183633, Control_c, 0, 64, 127
1, 183710, Note_on_c, 0, 48, 0
1, 183710, Note_on_c, 0, 51, 57
1, 183764, Note_on_c, 0, 82, 0
1, 183764, Note_on_c, 0, 70, 0
1, 183764, Note_on_c, 0, 69, 59
1, 183767, Note_on_c, 0, 81, 66
1, 183807, Control_c, 0, 64, 0
1, 183818, Note_on_c, 0, 51, 0
1, 183818, Note_on_c, 0, 54, 57
1, 183845, Note_on_c, 0, 81, 0
1, 183845, Note_on_c, 0, 69, 0
1, 183926, Note_on_c, 0, 54, 0
1, 183926, Note_on_c, 0, 69, 64
1, 183926, Note_on_c, 0, 81, 72
1, 183929, Note_on_c, 0, 53, 67
1, 184008, Note_on_c, 0, 81, 0
1, 184008, Note_on_c, 0, 69, 0
1, 184035, Note_on_c, 0, 53, 0
1, 184035, Note_on_c, 0, 54, 59
1, 184090, Note_on_c, 0, 69, 59
1, 184090, Note_on_c, 0, 81, 67
1, 184146, Note_on_c, 0, 54, 0
1, 184146, Note_on_c, 0, 51, 59
1, 184174, Note_on_c, 0, 81, 0
1, 184174, Note_on_c, 0, 69, 0
1, 184257, Note_on_c, 0, 51, 0
1, 184257, Note_on_c, 0, 69, 71
1, 184257, Note_on_c, 0, 81, 79
1, 184260, Note_on_c, 0, 46, 67
1, 184280, Control_c, 0, 64, 127
1, 184366, Note_on_c, 0, 46, 0
1, 184366, Note_on_c, 0, 51, 60
1, 184421, Note_on_c, 0, 81, 0
1, 184421, Note_on_c, 0, 69, 0
1, 184421, Note_on_c, 0, 70, 59
1, 184424, Note_on_c, 0, 82, 66
1, 184449, Control_c, 0, 64, 0
1, 184476, Note_on_c, 0, 51, 0
1, 184476, Note_on_c, 0, 54, 60
1, 184503, Note_on_c, 0, 82, 0
1, 184503, Note_on_c, 0, 70, 0
1, 184586, Note_on_c, 0, 54, 0
1, 184590, Note_on_c, 0, 46, 75
1, 184613, Control_c, 0, 64, 127
1, 184694, Note_on_c, 0, 50, 68
1, 184699, Note_on_c, 0, 46, 0
1, 184750, Note_on_c, 0, 74, 68
1, 184804, Note_on_c, 0, 50, 0
1, 184804, Note_on_c, 0, 53, 68
1, 184914, Note_on_c, 0, 74, 0
1, 184914, Note_on_c, 0, 77, 71
1, 184914, Control_c, 0, 64, 0
1, 184917, Note_on_c, 0, 53, 0
1, 184917, Note_on_c, 0, 60, 84
1, 184952, Control_c, 0, 64, 127
1, 185022, Note_on_c, 0, 77, 0
1, 185022, Note_on_c, 0, 75, 64
1, 185130, Note_on_c, 0, 75, 0
1, 185130, Note_on_c, 0, 65, 64
1, 185238, Note_on_c, 0, 65, 0
1, 185238, Note_on_c, 0, 60, 0
1, 185238, Note_on_c, 0, 77, 71
1, 185241, Note_on_c, 0, 57, 74
1, 185347, Note_on_c, 0, 77, 0
1, 185347, Note_on_c, 0, 72, 63
1, 185457, Note_on_c, 0, 72, 0
1, 185457, Note_on_c, 0, 65, 64
1, 185569, Note_on_c, 0, 65, 0
1, 185569, Note_on_c, 0, 57, 0
1, 185569, Note_on_c, 0, 77, 71
1, 185572, Control_c, 0, 64, 0
1, 185572, Note_on_c, 0, 58, 83
1, 185612, Control_c, 0, 64, 127
1, 185678, Note_on_c, 0, 77, 0
1, 185678, Note_on_c, 0, 74, 66
1, 185788, Note_on_c, 0, 74, 0
1, 185788, Note_on_c, 0, 65, 64
1, 185897, Note_on_c, 0, 65, 0
1, 185897, Note_on_c, 0, 82, 71
1, 186007, Note_on_c, 0, 82, 0
1, 186007, Note_on_c, 0, 77, 62
1, 186061, Note_on_c, 0, 58, 0
1, 186061, Note_on_c, 0, 62, 69
1, 186118, Note_on_c, 0, 77, 0
1, 186118, Note_on_c, 0, 70, 62
1, 186146, Note_on_c, 0, 62, 0
1, 186231, Note_on_c, 0, 70, 0
1, 186231, Note_on_c, 0, 84, 71
1, 186231, Control_c, 0, 64, 0
1, 186234, Note_on_c, 0, 58, 75
1, 186234, Note_on_c, 0, 65, 77
1, 186293, Control_c, 0, 64, 127
1, 186339, Note_on_c, 0, 84, 0
1, 186339, Note_on_c, 0, 77, 63
1, 186393, Note_on_c, 0, 65, 0
1, 186393, Note_on_c, 0, 63, 70
1, 186447, Note_on_c, 0, 77, 0
1, 186447, Note_on_c, 0, 72, 63
1, 186474, Note_on_c, 0, 63, 0
1, 186492, Control_c, 0, 64, 0
1, 186554, Note_on_c, 0, 72, 0
1, 186554, Note_on_c, 0, 81, 71
1, 186554, Note_on_c, 0, 63, 70
1, 186637, Note_on_c, 0, 63, 0
1, 186664, Note_on_c, 0, 81, 0
1, 186664, Note_on_c, 0, 77, 62
1, 186719, Note_on_c, 0, 63, 70
1, 186774, Note_on_c, 0, 77, 0
1, 186774, Note_on_c, 0, 69, 62
1, 186802, Note_on_c, 0, 63, 0
1, 186885, Note_on_c, 0, 69, 0
1, 186885, Note_on_c, 0, 58, 0
1, 186885, Note_on_c, 0, 82, 71
1, 186888, Note_on_c, 0, 58, 75
1, 186888, Note_on_c, 0, 63, 77
1, 186924, Control_c, 0, 64, 127
1, 186995, Note_on_c, 0, 82, 0
1, 186995, Note_on_c, 0, 77, 63
1, 187050, Note_on_c, 0, 63, 0
1, 187050, Note_on_c, 0, 62, 70
1, 187098, Control_c, 0, 64, 0
1, 187104, Note_on_c, 0, 77, 0
1, 187104, Note_on_c, 0, 70, 64
1, 187132, Note_on_c, 0, 62, 0
1, 187214, Note_on_c, 0, 70, 0
1, 187214, Note_on_c, 0, 58, 0
1, 187214, Note_on_c, 0, 77, 68
1, 187241, Control_c, 0, 64, 127
1, 187323, Note_on_c, 0, 77, 0
1, 187323, Note_on_c, 0, 74, 61
1, 187378, Note_on_c, 0, 58, 77
1, 187434, Note_on_c, 0, 74, 0
1, 187434, Note_on_c, 0, 65, 61
1, 187521, Control_c, 0, 64, 0
1, 187544, Note_on_c, 0, 65, 0
1, 187544, Note_on_c, 0, 58, 0
1, 187544, Note_on_c, 0, 77, 71
1, 187547, Control_c, 0, 64, 127
1, 187547, Note_on_c, 0, 60, 83
1, 187652, Note_on_c, 0, 77, 0
1, 187652, Note_on_c, 0, 75, 64
1, 187706, Note_on_c, 0, 60, 0
1, 187706, Note_on_c, 0, 62, 74
1, 187761, Note_on_c, 0, 75, 0
1, 187761, Note_on_c, 0, 65, 64
1, 187872, Note_on_c, 0, 65, 0
1, 187872, Note_on_c, 0, 62, 0
1, 187872, Note_on_c, 0, 77, 71
1, 187875, Note_on_c, 0, 55, 79
1, 187982, Note_on_c, 0, 77, 0
1, 187982, Note_on_c, 0, 72, 63
1, 188036, Note_on_c, 0, 55, 0
1, 188036, Note_on_c, 0, 57, 74
1, 188092, Note_on_c, 0, 72, 0
1, 188092, Note_on_c, 0, 65, 64
1, 188203, Note_on_c, 0, 65, 0
1, 188203, Note_on_c, 0, 57, 0
1, 188203, Note_on_c, 0, 77, 71
1, 188206, Control_c, 0, 64, 0
1, 188206, Note_on_c, 0, 58, 83
1, 188247, Control_c, 0, 64, 127
1, 188313, Note_on_c, 0, 77, 0
1, 188313, Note_on_c, 0, 74, 66
1, 188422, Note_on_c, 0, 74, 0
1, 188422, Note_on_c, 0, 65, 64
1, 188532, Note_on_c, 0, 65, 0
1, 188532, Note_on_c, 0, 82, 71
1, 188641, Note_on_c, 0, 82, 0
1, 188641, Note_on_c, 0, 77, 62
1, 188696, Note_on_c, 0, 58, 0
1, 188696, Note_on_c, 0, 62, 69
1, 188752, Note_on_c, 0, 77, 0
1, 188752, Note_on_c, 0, 70, 62
1, 188781, Note_on_c, 0, 62, 0
1, 188865, Note_on_c, 0, 70, 0
1, 188865, Note_on_c, 0, 84, 71
1, 188865, Control_c, 0, 64, 0
1, 188868, Note_on_c, 0, 58, 77
1, 188868, Note_on_c, 0, 65, 77
1, 188927, Control_c, 0, 64, 127
1, 188973, Note_on_c, 0, 84, 0
1, 188973, Note_on_c, 0, 77, 63
1, 189027, Note_on_c, 0, 65, 0
1, 189027, Note_on_c, 0, 63, 70
1, 189081, Note_on_c, 0, 77, 0
1, 189081, Note_on_c, 0, 72, 63
1, 189108, Note_on_c, 0, 63, 0
1, 189132, Control_c, 0, 64, 0
1, 189189, Note_on_c, 0, 72, 0
1, 189189, Note_on_c, 0, 81, 71
1, 189189, Note_on_c, 0, 63, 70
1, 189271, Note_on_c, 0, 63, 0
1, 189298, Note_on_c, 0, 81, 0
1, 189298, Note_on_c, 0, 77, 62
1, 189353, Note_on_c, 0, 63, 70
1, 189409, Note_on_c, 0, 77, 0
1, 189409, Note_on_c, 0, 69, 62
1, 189437, Note_on_c, 0, 63, 0
1, 189520, Note_on_c, 0, 69, 0
1, 189520, Note_on_c, 0, 58, 0
1, 189520, Note_on_c, 0, 82, 71
1, 189523, Note_on_c, 0, 58, 77
1, 189523, Note_on_c, 0, 63, 77
1, 189558, Control_c, 0, 64, 127
1, 189629, Note_on_c, 0, 82, 0
1, 189629, Note_on_c, 0, 77, 63
1, 189684, Note_on_c, 0, 63, 0
1, 189684, Note_on_c, 0, 62, 70
1, 189708, Control_c, 0, 64, 0
1, 189739, Note_on_c, 0, 77, 0
1, 189739, Note_on_c, 0, 70, 64
1, 189766, Note_on_c, 0, 62, 0
1, 189848, Note_on_c, 0, 70, 0
1, 189848, Note_on_c, 0, 58, 0
1, 189848, Note_on_c, 0, 77, 99
1, 189876, Control_c, 0, 64, 127
1, 189958, Note_on_c, 0, 77, 0
1, 189958, Note_on_c, 0, 74, 90
1, 190013, Note_on_c, 0, 46, 81
1, 190013, Note_on_c, 0, 58, 92
1, 190068, Note_on_c, 0, 74, 0
1, 190068, Note_on_c, 0, 65, 89
1, 190179, Note_on_c, 0, 65, 0
1, 190179, Note_on_c, 0, 65, 97
1, 190179, Note_on_c, 0, 68, 97
1, 190182, Note_on_c, 0, 58, 0
1, 190182, Note_on_c, 0, 46, 0
1, 190182, Note_on_c, 0, 75, 111
1, 190185, Control_c, 0, 64, 0
1, 190185, Note_on_c, 0, 47, 89
1, 190185, Note_on_c, 0, 59, 101
1, 190218, Control_c, 0, 64, 127
1, 190340, Note_on_c, 0, 75, 0
1, 190340, Note_on_c, 0, 73, 100
1, 190423, Note_on_c, 0, 73, 0
1, 190504, Control_c, 0, 64, 0
1, 190507, Note_on_c, 0, 68, 0
1, 190507, Note_on_c, 0, 65, 0
1, 190507, Note_on_c, 0, 65, 91
1, 190510, Note_on_c, 0, 59, 0
1, 190510, Note_on_c, 0, 71, 104
1, 190510, Note_on_c, 0, 73, 104
1, 190513, Note_on_c, 0, 47, 0
1, 190513, Note_on_c, 0, 44, 83
1, 190513, Note_on_c, 0, 56, 95
1, 190520, Control_c, 0, 64, 127
1, 190589, Note_on_c, 0, 65, 0
1, 190589, Note_on_c, 0, 73, 0
1, 190589, Note_on_c, 0, 71, 0
1, 190671, Note_on_c, 0, 65, 83
1, 190671, Note_on_c, 0, 71, 95
1, 190671, Note_on_c, 0, 73, 95
1, 190754, Note_on_c, 0, 73, 0
1, 190754, Note_on_c, 0, 65, 0
1, 190754, Note_on_c, 0, 71, 0
1, 190838, Note_on_c, 0, 66, 89
1, 190838, Note_on_c, 0, 70, 89
1, 190838, Note_on_c, 0, 73, 101
1, 190841, Note_on_c, 0, 44, 0
1, 190841, Note_on_c, 0, 56, 0
1, 190841, Note_on_c, 0, 46, 89
1, 190844, Control_c, 0, 64, 0
1, 190844, Note_on_c, 0, 58, 101
1, 190881, Control_c, 0, 64, 127
1, 191002, Note_on_c, 0, 73, 0
1, 191002, Note_on_c, 0, 78, 95
1, 191166, Note_on_c, 0, 78, 0
1, 191166, Note_on_c, 0, 70, 0
1, 191166, Note_on_c, 0, 66, 0
1, 191169, Note_on_c, 0, 46, 0
1, 191169, Note_on_c, 0, 58, 0
1, 191169, Note_on_c, 0, 82, 104
1, 191276, Note_on_c, 0, 82, 0
1, 191276, Note_on_c, 0, 85, 84
1, 191330, Note_on_c, 0, 51, 79
1, 191330, Note_on_c, 0, 63, 90
1, 191387, Note_on_c, 0, 85, 0
1, 191387, Note_on_c, 0, 90, 84
1, 191415, Note_on_c, 0, 63, 0
1, 191415, Note_on_c, 0, 51, 0
1, 191500, Note_on_c, 0, 90, 0
1, 191500, Note_on_c, 0, 85, 89
1, 191500, Note_on_c, 0, 92, 101
1, 191503, Note_on_c, 0, 49, 90
1, 191503, Control_c, 0, 64, 0
1, 191503, Note_on_c, 0, 61, 102
1, 191562, Control_c, 0, 64, 127
1, 191608, Note_on_c, 0, 92, 0
1, 191608, Note_on_c, 0, 85, 0
1, 191608, Note_on_c, 0, 80, 85
1, 191662, Note_on_c, 0, 49, 0
1, 191662, Note_on_c, 0, 61, 0
1, 191662, Note_on_c, 0, 47, 78
1, 191665, Note_on_c, 0, 59, 89
1, 191716, Note_on_c, 0, 80, 0
1, 191716, Note_on_c, 0, 85, 75
1, 191716, Note_on_c, 0, 92, 85
1, 191742, Note_on_c, 0, 59, 0
1, 191742, Note_on_c, 0, 47, 0
1, 191800, Control_c, 0, 64, 0
1, 191823, Note_on_c, 0, 85, 0
1, 191823, Note_on_c, 0, 92, 0
1, 191823, Note_on_c, 0, 85, 90
1, 191826, Note_on_c, 0, 89, 102
1, 191826, Note_on_c, 0, 47, 78
1, 191826, Note_on_c, 0, 59, 89
1, 191826, Control_c, 0, 64, 127
1, 191906, Note_on_c, 0, 59, 0
1, 191906, Note_on_c, 0, 47, 0
1, 191933, Note_on_c, 0, 89, 0
1, 191933, Note_on_c, 0, 85, 0
1, 191933, Note_on_c, 0, 77, 82
1, 191988, Note_on_c, 0, 47, 77
1, 191988, Note_on_c, 0, 59, 88
1, 192043, Note_on_c, 0, 77, 0
1, 192043, Note_on_c, 0, 85, 72
1, 192043, Note_on_c, 0, 89, 81
1, 192071, Note_on_c, 0, 59, 0
1, 192071, Note_on_c, 0, 47, 0
1, 192154, Note_on_c, 0, 85, 0
1, 192154, Note_on_c, 0, 89, 0
1, 192154, Note_on_c, 0, 85, 87
1, 192157, Note_on_c, 0, 90, 98
1, 192157, Note_on_c, 0, 47, 88
1, 192157, Control_c, 0, 64, 0
1, 192160, Note_on_c, 0, 59, 100
1, 192193, Control_c, 0, 64, 127
1, 192264, Note_on_c, 0, 90, 0
1, 192264, Note_on_c, 0, 85, 0
1, 192264, Note_on_c, 0, 78, 83
1, 192319, Note_on_c, 0, 47, 0
1, 192319, Note_on_c, 0, 59, 0
1, 192319, Note_on_c, 0, 46, 78
1, 192322, Note_on_c, 0, 58, 89
1, 192373, Note_on_c, 0, 78, 0
1, 192373, Note_on_c, 0, 85, 74
1, 192373, Note_on_c, 0, 90, 83
1, 192401, Note_on_c, 0, 58, 0
1, 192401, Note_on_c, 0, 46, 0
1, 192471, Control_c, 0, 64, 0
1, 192483, Note_on_c, 0, 85, 0
1, 192483, Note_on_c, 0, 90, 0
1, 192483, Note_on_c, 0, 49, 92
1, 192510, Control_c, 0, 64, 127
1, 192590, Note_on_c, 0, 49, 0
1, 192590, Note_on_c, 0, 54, 85
1, 192643, Note_on_c, 0, 78, 99
1, 192699, Note_on_c, 0, 54, 0
1, 192699, Note_on_c, 0, 58, 85
1, 192726, Note_on_c, 0, 78, 0
1, 192786, Control_c, 0, 64, 0
1, 192809, Note_on_c, 0, 65, 97
1, 192809, Note_on_c, 0, 68, 97
1, 192809, Note_on_c, 0, 75, 111
1, 192812, Note_on_c, 0, 58, 0
1, 192812, Note_on_c, 0, 47, 89
1, 192812, Note_on_c, 0, 59, 101
1, 192848, Control_c, 0, 64, 127
1, 192971, Note_on_c, 0, 75, 0
1, 192971, Note_on_c, 0, 73, 100
1, 193054, Note_on_c, 0, 73, 0
1, 193135, Note_on_c, 0, 59, 0
1, 193135, Note_on_c, 0, 65, 0
1, 193135, Note_on_c, 0, 68, 0
1, 193135, Note_on_c, 0, 47, 0
1, 193135, Control_c, 0, 64, 0
1, 193135, Note_on_c, 0, 65, 91
1, 193135, Note_on_c, 0, 71, 104
1, 193135, Note_on_c, 0, 73, 104
1, 193135, Note_on_c, 0, 44, 83
1, 193135, Note_on_c, 0, 56, 95
1, 193150, Control_c, 0, 64, 127
1, 193219, Note_on_c, 0, 73, 0
1, 193219, Note_on_c, 0, 65, 0
1, 193219, Note_on_c, 0, 71, 0
1, 193301, Note_on_c, 0, 65, 83
1, 193301, Note_on_c, 0, 71, 95
1, 193301, Note_on_c, 0, 73, 95
1, 193385, Note_on_c, 0, 73, 0
1, 193385, Note_on_c, 0, 65, 0
1, 193385, Note_on_c, 0, 71, 0
1, 193468, Note_on_c, 0, 66, 89
1, 193468, Note_on_c, 0, 70, 89
1, 193468, Note_on_c, 0, 73, 101
1, 193471, Note_on_c, 0, 44, 0
1, 193471, Note_on_c, 0, 56, 0
1, 193471, Note_on_c, 0, 46, 89
1, 193474, Control_c, 0, 64, 0
1, 193474, Note_on_c, 0, 58, 101
1, 193512, Control_c, 0, 64, 127
1, 193633, Note_on_c, 0, 73, 0
1, 193633, Note_on_c, 0, 78, 95
1, 193797, Note_on_c, 0, 78, 0
1, 193797, Note_on_c, 0, 70, 0
1, 193797, Note_on_c, 0, 66, 0
1, 193800, Note_on_c, 0, 46, 0
1, 193800, Note_on_c, 0, 58, 0
1, 193800, Note_on_c, 0, 82, 104
1, 193906, Note_on_c, 0, 82, 0
1, 193906, Note_on_c, 0, 85, 84
1, 193961, Note_on_c, 0, 51, 79
1, 193961, Note_on_c, 0, 63, 90
1, 194018, Note_on_c, 0, 85, 0
1, 194018, Note_on_c, 0, 90, 84
1, 194046, Note_on_c, 0, 63, 0
1, 194046, Note_on_c, 0, 51, 0
1, 194131, Note_on_c, 0, 90, 0
1, 194131, Note_on_c, 0, 85, 89
1, 194131, Note_on_c, 0, 92, 101
1, 194134, Note_on_c, 0, 49, 90
1, 194134, Control_c, 0, 64, 0
1, 194134, Note_on_c, 0, 61, 102
1, 194193, Control_c, 0, 64, 127
1, 194238, Note_on_c, 0, 92, 0
1, 194238, Note_on_c, 0, 85, 0
1, 194238, Note_on_c, 0, 80, 85
1, 194292, Note_on_c, 0, 49, 0
1, 194292, Note_on_c, 0, 61, 0
1, 194292, Note_on_c, 0, 47, 78
1, 194295, Note_on_c, 0, 59, 89
1, 194346, Note_on_c, 0, 80, 0
1, 194346, Note_on_c, 0, 85, 75
1, 194346, Note_on_c, 0, 92, 85
1, 194373, Note_on_c, 0, 59, 0
1, 194373, Note_on_c, 0, 47, 0
1, 194420, Control_c, 0, 64, 0
1, 194454, Note_on_c, 0, 85, 0
1, 194454, Note_on_c, 0, 92, 0
1, 194454, Note_on_c, 0, 85, 90
1, 194457, Note_on_c, 0, 89, 102
1, 194457, Note_on_c, 0, 47, 78
1, 194457, Note_on_c, 0, 59, 89
1, 194477, Control_c, 0, 64, 127
1, 194536, Note_on_c, 0, 59, 0
1, 194536, Note_on_c, 0, 47, 0
1, 194564, Note_on_c, 0, 89, 0
1, 194564, Note_on_c, 0, 85, 0
1, 194564, Note_on_c, 0, 77, 82
1, 194618, Note_on_c, 0, 47, 77
1, 194618, Note_on_c, 0, 59, 88
1, 194674, Note_on_c, 0, 77, 0
1, 194674, Note_on_c, 0, 85, 72
1, 194674, Note_on_c, 0, 89, 81
1, 194702, Note_on_c, 0, 59, 0
1, 194702, Note_on_c, 0, 47, 0
1, 194785, Note_on_c, 0, 85, 0
1, 194785, Note_on_c, 0, 89, 0
1, 194785, Note_on_c, 0, 85, 89
1, 194788, Note_on_c, 0, 90, 101
1, 194788, Note_on_c, 0, 47, 90
1, 194788, Note_on_c, 0, 59, 102
1, 194828, Control_c, 0, 64, 0
1, 194847, Control_c, 0, 64, 127
1, 194893, Note_on_c, 0, 90, 0
1, 194893, Note_on_c, 0, 85, 0
1, 194893, Note_on_c, 0, 78, 85
1, 194947, Note_on_c, 0, 47, 0
1, 194947, Note_on_c, 0, 59, 0
1, 194947, Note_on_c, 0, 46, 78
1, 194950, Note_on_c, 0, 58, 89
1, 195001, Note_on_c, 0, 78, 0
1, 195001, Note_on_c, 0, 85, 75
1, 195001, Note_on_c, 0, 90, 85
1, 195028, Note_on_c, 0, 58, 0
1, 195028, Note_on_c, 0, 46, 0
1, 195109, Note_on_c, 0, 85, 0
1, 195109, Note_on_c, 0, 90, 0
1, 195109, Note_on_c, 0, 78, 90
1, 195112, Note_on_c, 0, 85, 102
1, 195112, Control_c, 0, 64, 0
1, 195112, Note_on_c, 0, 46, 78
1, 195115, Note_on_c, 0, 58, 89
1, 195156, Control_c, 0, 64, 127
1, 195191, Note_on_c, 0, 58, 0
1, 195191, Note_on_c, 0, 46, 0
1, 195218, Note_on_c, 0, 85, 0
1, 195218, Note_on_c, 0, 78, 0
1, 195218, Note_on_c, 0, 73, 82
1, 195273, Note_on_c, 0, 46, 77
1, 195273, Note_on_c, 0, 58, 88
1, 195329, Note_on_c, 0, 73, 0
1, 195329, Note_on_c, 0, 85, 81
1, 195356, Note_on_c, 0, 58, 0
1, 195356, Note_on_c, 0, 46, 0
1, 195440, Note_on_c, 0, 85, 0
1, 195440, Note_on_c, 0, 82, 89
1, 195440, Note_on_c, 0, 89, 101
1, 195443, Note_on_c, 0, 46, 90
1, 195443, Note_on_c, 0, 58, 102
1, 195467, Control_c, 0, 64, 0
1, 195502, Control_c, 0, 64, 127
1, 195548, Note_on_c, 0, 89, 0
1, 195548, Note_on_c, 0, 82, 0
1, 195548, Note_on_c, 0, 77, 85
1, 195602, Note_on_c, 0, 46, 0
1, 195602, Note_on_c, 0, 58, 0
1, 195602, Note_on_c, 0, 44, 78
1, 195605, Note_on_c, 0, 56, 89
1, 195655, Note_on_c, 0, 77, 0
1, 195655, Note_on_c, 0, 82, 75
1, 195655, Note_on_c, 0, 89, 85
1, 195682, Note_on_c, 0, 56, 0
1, 195682, Note_on_c, 0, 44, 0
1, 195759, Control_c, 0, 64, 0
1, 195763, Note_on_c, 0, 82, 0
1, 195763, Note_on_c, 0, 89, 0
1, 195763, Note_on_c, 0, 82, 90
1, 195766, Note_on_c, 0, 86, 102
1, 195766, Note_on_c, 0, 44, 78
1, 195766, Note_on_c, 0, 56, 89
1, 195802, Control_c, 0, 64, 127
1, 195845, Note_on_c, 0, 56, 0
1, 195845, Note_on_c, 0, 44, 0
1, 195873, Note_on_c, 0, 86, 0
1, 195873, Note_on_c, 0, 82, 0
1, 195873, Note_on_c, 0, 74, 82
1, 195928, Note_on_c, 0, 44, 77
1, 195928, Note_on_c, 0, 56, 88
1, 195983, Note_on_c, 0, 74, 0
1, 195983, Note_on_c, 0, 82, 72
1, 195983, Note_on_c, 0, 86, 81
1, 196011, Note_on_c, 0, 56, 0
1, 196011, Note_on_c, 0, 44, 0
1, 196094, Note_on_c, 0, 82, 0
1, 196094, Note_on_c, 0, 86, 0
1, 196094, Note_on_c, 0, 82, 89
1, 196097, Note_on_c, 0, 87, 101
1, 196097, Note_on_c, 0, 44, 90
1, 196097, Note_on_c, 0, 56, 102
1, 196141, Control_c, 0, 64, 0
1, 196156, Control_c, 0, 64, 127
1, 196202, Note_on_c, 0, 87, 0
1, 196202, Note_on_c, 0, 82, 0
1, 196202, Note_on_c, 0, 75, 85
1, 196256, Note_on_c, 0, 44, 0
1, 196256, Note_on_c, 0, 56, 0
1, 196256, Note_on_c, 0, 42, 78
1, 196259, Note_on_c, 0, 54, 89
1, 196310, Note_on_c, 0, 75, 0
1, 196310, Note_on_c, 0, 82, 75
1, 196310, Note_on_c, 0, 87, 85
1, 196337, Note_on_c, 0, 54, 0
1, 196337, Note_on_c, 0, 42, 0
1, 196406, Control_c, 0, 64, 0
1, 196418, Note_on_c, 0, 82, 0
1, 196418, Note_on_c, 0, 87, 0
1, 196418, Note_on_c, 0, 75, 90
1, 196421, Note_on_c, 0, 82, 102
1, 196421, Note_on_c, 0, 42, 78
1, 196421, Note_on_c, 0, 54, 89
1, 196461, Control_c, 0, 64, 127
1, 196500, Note_on_c, 0, 54, 0
1, 196500, Note_on_c, 0, 42, 0
1, 196527, Note_on_c, 0, 82, 0
1, 196527, Note_on_c, 0, 75, 0
1, 196527, Note_on_c, 0, 70, 82
1, 196582, Note_on_c, 0, 42, 77
1, 196582, Note_on_c, 0, 54, 88
1, 196638, Note_on_c, 0, 70, 0
1, 196638, Note_on_c, 0, 75, 77
1, 196638, Note_on_c, 0, 82, 81
1, 196666, Note_on_c, 0, 54, 0
1, 196666, Note_on_c, 0, 42, 0
1, 196749, Note_on_c, 0, 75, 0
1, 196749, Note_on_c, 0, 82, 0
1, 196749, Control_c, 0, 64, 0
1, 196752, Note_on_c, 0, 35, 112
1, 196752, Note_on_c, 0, 47, 126
1, 196797, Control_c, 0, 64, 127
1, 196832, Note_on_c, 0, 63, 96
1, 196916, Note_on_c, 0, 63, 0
1, 196916, Note_on_c, 0, 66, 97
1, 196997, Note_on_c, 0, 66, 0
1, 196997, Note_on_c, 0, 71, 99
1, 197079, Note_on_c, 0, 71, 0
1, 197079, Note_on_c, 0, 75, 100
1, 197160, Note_on_c, 0, 75, 0
1, 197160, Note_on_c, 0, 78, 101
1, 197241, Note_on_c, 0, 78, 0
1, 197241, Note_on_c, 0, 83, 103
1, 197323, Note_on_c, 0, 83, 0
1, 197323, Note_on_c, 0, 87, 104
1, 197406, Note_on_c, 0, 87, 0
1, 197406, Note_on_c, 0, 88, 113
1, 197406, Note_on_c, 0, 76, 99
1, 197409, Note_on_c, 0, 47, 0
1, 197409, Note_on_c, 0, 35, 0
1, 197409, Note_on_c, 0, 78, 99
1, 197412, Control_c, 0, 64, 0
1, 197412, Note_on_c, 0, 35, 99
1, 197412, Note_on_c, 0, 47, 113
1, 197444, Control_c, 0, 64, 127
1, 197572, Note_on_c, 0, 47, 0
1, 197572, Note_on_c, 0, 35, 0
1, 197572, Note_on_c, 0, 34, 88
1, 197575, Note_on_c, 0, 46, 99
1, 197655, Note_on_c, 0, 46, 0
1, 197655, Note_on_c, 0, 34, 0
1, 197724, Control_c, 0, 64, 0
1, 197738, Note_on_c, 0, 78, 0
1, 197738, Note_on_c, 0, 88, 0
1, 197738, Note_on_c, 0, 76, 0
1, 197741, Note_on_c, 0, 85, 105
1, 197741, Note_on_c, 0, 78, 93
1, 197741, Note_on_c, 0, 73, 93
1, 197744, Note_on_c, 0, 34, 88
1, 197744, Note_on_c, 0, 46, 99
1, 197758, Control_c, 0, 64, 127
1, 197822, Note_on_c, 0, 46, 0
1, 197822, Note_on_c, 0, 34, 0
1, 197905, Note_on_c, 0, 34, 88
1, 197905, Note_on_c, 0, 46, 99
1, 197988, Note_on_c, 0, 46, 0
1, 197988, Note_on_c, 0, 34, 0
1, 198071, Note_on_c, 0, 73, 0
1, 198071, Note_on_c, 0, 78, 0
1, 198071, Note_on_c, 0, 85, 0
1, 198074, Note_on_c, 0, 35, 112
1, 198074, Control_c, 0, 64, 0
1, 198074, Note_on_c, 0, 47, 126
1, 198119, Control_c, 0, 64, 127
1, 198154, Note_on_c, 0, 63, 96
1, 198238, Note_on_c, 0, 63, 0
1, 198238, Note_on_c, 0, 66, 97
1, 198319, Note_on_c, 0, 66, 0
1, 198319, Note_on_c, 0, 71, 99
1, 198400, Note_on_c, 0, 71, 0
1, 198400, Note_on_c, 0, 75, 100
1, 198482, Note_on_c, 0, 75, 0
1, 198482, Note_on_c, 0, 78, 101
1, 198563, Note_on_c, 0, 78, 0
1, 198563, Note_on_c, 0, 83, 103
1, 198645, Note_on_c, 0, 83, 0
1, 198645, Note_on_c, 0, 87, 104
1, 198727, Note_on_c, 0, 87, 0
1, 198727, Note_on_c, 0, 76, 99
1, 198727, Note_on_c, 0, 78, 99
1, 198730, Note_on_c, 0, 47, 0
1, 198730, Note_on_c, 0, 35, 0
1, 198730, Note_on_c, 0, 88, 113
1, 198733, Control_c, 0, 64, 0
1, 198733, Note_on_c, 0, 35, 99
1, 198733, Note_on_c, 0, 47, 113
1, 198766, Control_c, 0, 64, 127
1, 198894, Note_on_c, 0, 47, 0
1, 198894, Note_on_c, 0, 35, 0
1, 198894, Note_on_c, 0, 34, 88
1, 198897, Note_on_c, 0, 46, 99
1, 198977, Note_on_c, 0, 46, 0
1, 198977, Note_on_c, 0, 34, 0
1, 199046, Control_c, 0, 64, 0
1, 199060, Note_on_c, 0, 88, 0
1, 199060, Note_on_c, 0, 76, 0
1, 199060, Note_on_c, 0, 78, 0
1, 199063, Note_on_c, 0, 73, 93
1, 199063, Note_on_c, 0, 85, 105
1, 199063, Note_on_c, 0, 78, 93
1, 199066, Note_on_c, 0, 34, 88
1, 199066, Note_on_c, 0, 46, 99
1, 199080, Control_c, 0, 64, 127
1, 199143, Note_on_c, 0, 46, 0
1, 199143, Note_on_c, 0, 34, 0
1, 199227, Note_on_c, 0, 34, 88
1, 199227, Note_on_c, 0, 46, 99
1, 199310, Note_on_c, 0, 46, 0
1, 199310, Note_on_c, 0, 34, 0
1, 199393, Note_on_c, 0, 78, 0
1, 199393, Note_on_c, 0, 85, 0
1, 199393, Note_on_c, 0, 73, 0
1, 199396, Note_on_c, 0, 47, 126
1, 199396, Control_c, 0, 64, 0
1, 199396, Control_c, 0, 64, 0
1, 199399, Note_on_c, 0, 35, 112
1, 199441, Control_c, 0, 64, 127
1, 199476, Note_on_c, 0, 63, 96
1, 199559, Note_on_c, 0, 63, 0
1, 199559, Note_on_c, 0, 66, 97
1, 199641, Note_on_c, 0, 66, 0
1, 199641, Note_on_c, 0, 71, 99
1, 199722, Note_on_c, 0, 71, 0
1, 199722, Note_on_c, 0, 75, 100
1, 199804, Note_on_c, 0, 75, 0
1, 199804, Note_on_c, 0, 78, 101
1, 199885, Note_on_c, 0, 78, 0
1, 199885, Note_on_c, 0, 83, 103
1, 199967, Note_on_c, 0, 83, 0
1, 199967, Note_on_c, 0, 87, 104
1, 200049, Note_on_c, 0, 87, 0
1, 200049, Note_on_c, 0, 89, 113
1, 200049, Note_on_c, 0, 77, 88
1, 200052, Note_on_c, 0, 35, 0
1, 200052, Note_on_c, 0, 47, 0
1, 200052, Note_on_c, 0, 46, 113
1, 200055, Control_c, 0, 64, 0
1, 200055, Note_on_c, 0, 34, 99
1, 200088, Control_c, 0, 64, 127
1, 200216, Note_on_c, 0, 89, 0
1, 200216, Note_on_c, 0, 77, 0
1, 200216, Note_on_c, 0, 87, 90
1, 200219, Note_on_c, 0, 78, 90
1, 200219, Note_on_c, 0, 90, 102
1, 200299, Note_on_c, 0, 90, 0
1, 200299, Note_on_c, 0, 87, 0
1, 200299, Note_on_c, 0, 78, 0
1, 200368, Control_c, 0, 64, 0
1, 200382, Note_on_c, 0, 78, 90
1, 200382, Note_on_c, 0, 87, 90
1, 200382, Note_on_c, 0, 90, 102
1, 200385, Note_on_c, 0, 46, 0
1, 200385, Note_on_c, 0, 34, 0
1, 200385, Note_on_c, 0, 45, 99
1, 200388, Note_on_c, 0, 33, 88
1, 200402, Control_c, 0, 64, 127
1, 200465, Note_on_c, 0, 87, 0
1, 200465, Note_on_c, 0, 90, 0
1, 200465, Note_on_c, 0, 78, 0
1, 200549, Note_on_c, 0, 78, 90
1, 200549, Note_on_c, 0, 87, 90
1, 200549, Note_on_c, 0, 90, 102
1, 200632, Note_on_c, 0, 90, 0
1, 200632, Note_on_c, 0, 78, 0
1, 200632, Note_on_c, 0, 87, 0
1, 200715, Note_on_c, 0, 45, 0
1, 200715, Note_on_c, 0, 33, 0
1, 200715, Note_on_c, 0, 34, 112
1, 200718, Control_c, 0, 64, 0
1, 200718, Note_on_c, 0, 46, 126
1, 200763, Control_c, 0, 64, 127
1, 200798, Note_on_c, 0, 62, 96
1, 200881, Note_on_c, 0, 62, 0
1, 200881, Note_on_c, 0, 65, 97
1, 200963, Note_on_c, 0, 65, 0
1, 200963, Note_on_c, 0, 70, 98
1, 201044, Note_on_c, 0, 70, 0
1, 201044, Note_on_c, 0, 74, 99
1, 201125, Note_on_c, 0, 74, 0
1, 201125, Note_on_c, 0, 77, 99
1, 201207, Note_on_c, 0, 77, 0
1, 201207, Note_on_c, 0, 82, 101
1, 201289, Note_on_c, 0, 82, 0
1, 201289, Note_on_c, 0, 86, 101
1, 201371, Note_on_c, 0, 86, 0
1, 201371, Note_on_c, 0, 75, 96
1, 201371, Note_on_c, 0, 77, 96
1, 201374, Note_on_c, 0, 46, 0
1, 201374, Note_on_c, 0, 34, 0
1, 201374, Note_on_c, 0, 87, 110
1, 201377, Control_c, 0, 64, 0
1, 201377, Note_on_c, 0, 34, 96
1, 201377, Note_on_c, 0, 46, 110
1, 201410, Control_c, 0, 64, 127
1, 201538, Note_on_c, 0, 46, 0
1, 201538, Note_on_c, 0, 34, 0
1, 201538, Note_on_c, 0, 33, 84
1, 201541, Note_on_c, 0, 45, 96
1, 201621, Note_on_c, 0, 45, 0
1, 201621, Note_on_c, 0, 33, 0
1, 201689, Control_c, 0, 64, 0
1, 201704, Note_on_c, 0, 87, 0
1, 201704, Note_on_c, 0, 75, 0
1, 201704, Note_on_c, 0, 77, 0
1, 201707, Note_on_c, 0, 72, 89
1, 201707, Note_on_c, 0, 84, 101
1, 201707, Note_on_c, 0, 77, 89
1, 201710, Note_on_c, 0, 33, 83
1, 201710, Note_on_c, 0, 45, 95
1, 201723, Control_c, 0, 64, 127
1, 201787, Note_on_c, 0, 45, 0
1, 201787, Note_on_c, 0, 33, 0
1, 201870, Note_on_c, 0, 33, 83
1, 201870, Note_on_c, 0, 45, 94
1, 201954, Note_on_c, 0, 45, 0
1, 201954, Note_on_c, 0, 33, 0
1, 202037, Note_on_c, 0, 77, 0
1, 202037, Note_on_c, 0, 84, 0
1, 202037, Note_on_c, 0, 72, 0
1, 202040, Note_on_c, 0, 34, 105
1, 202040, Control_c, 0, 64, 0
1, 202040, Note_on_c, 0, 46, 120
1, 202085, Control_c, 0, 64, 127
1, 202120, Note_on_c, 0, 62, 91
1, 202203, Note_on_c, 0, 62, 0
1, 202203, Note_on_c, 0, 65, 91
1, 202285, Note_on_c, 0, 65, 0
1, 202285, Note_on_c, 0, 70, 93
1, 202366, Note_on_c, 0, 70, 0
1, 202366, Note_on_c, 0, 74, 93
1, 202447, Note_on_c, 0, 74, 0
1, 202447, Note_on_c, 0, 77, 94
1, 202529, Note_on_c, 0, 77, 0
1, 202529, Note_on_c, 0, 82, 95
1, 202610, Note_on_c, 0, 82, 0
1, 202610, Note_on_c, 0, 86, 96
1, 202693, Note_on_c, 0, 86, 0
1, 202693, Note_on_c, 0, 75, 91
1, 202693, Note_on_c, 0, 77, 91
1, 202696, Note_on_c, 0, 46, 0
1, 202696, Note_on_c, 0, 34, 0
1, 202696, Note_on_c, 0, 87, 102
1, 202699, Control_c, 0, 64, 0
1, 202699, Note_on_c, 0, 34, 91
1, 202699, Note_on_c, 0, 46, 102
1, 202732, Control_c, 0, 64, 127
1, 202859, Note_on_c, 0, 46, 0
1, 202859, Note_on_c, 0, 34, 0
1, 202859, Note_on_c, 0, 33, 79
1, 202862, Note_on_c, 0, 45, 90
1, 202943, Note_on_c, 0, 45, 0
1, 202943, Note_on_c, 0, 33, 0
1, 203011, Control_c, 0, 64, 0
1, 203026, Note_on_c, 0, 87, 0
1, 203026, Note_on_c, 0, 75, 0
1, 203026, Note_on_c, 0, 77, 0
1, 203029, Note_on_c, 0, 72, 83
1, 203029, Note_on_c, 0, 84, 94
1, 203029, Note_on_c, 0, 77, 83
1, 203032, Note_on_c, 0, 33, 79
1, 203032, Note_on_c, 0, 45, 89
1, 203045, Control_c, 0, 64, 127
1, 203109, Note_on_c, 0, 45, 0
1, 203109, Note_on_c, 0, 33, 0
1, 203192, Note_on_c, 0, 33, 78
1, 203192, Note_on_c, 0, 45, 88
1, 203275, Note_on_c, 0, 45, 0
1, 203275, Note_on_c, 0, 33, 0
1, 203359, Note_on_c, 0, 77, 0
1, 203359, Note_on_c, 0, 84, 0
1, 203359, Note_on_c, 0, 72, 0
1, 203362, Note_on_c, 0, 34, 98
1, 203362, Control_c, 0, 64, 0
1, 203362, Note_on_c, 0, 46, 112
1, 203406, Control_c, 0, 64, 127
1, 203442, Note_on_c, 0, 62, 84
1, 203525, Note_on_c, 0, 62, 0
1, 203525, Note_on_c, 0, 65, 85
1, 203606, Note_on_c, 0, 65, 0
1, 203606, Note_on_c, 0, 70, 87
1, 203688, Note_on_c, 0, 70, 0
1, 203688, Note_on_c, 0, 74, 88
1, 203769, Note_on_c, 0, 74, 0
1, 203769, Note_on_c, 0, 77, 88
1, 203851, Note_on_c, 0, 77, 0
1, 203851, Note_on_c, 0, 82, 90
1, 203932, Note_on_c, 0, 82, 0
1, 203932, Note_on_c, 0, 86, 90
1, 204015, Note_on_c, 0, 86, 0
1, 204015, Note_on_c, 0, 75, 85
1, 204015, Note_on_c, 0, 77, 85
1, 204018, Note_on_c, 0, 46, 0
1, 204018, Note_on_c, 0, 34, 0
1, 204018, Note_on_c, 0, 87, 96
1, 204021, Control_c, 0, 64, 0
1, 204021, Note_on_c, 0, 34, 85
1, 204021, Note_on_c, 0, 46, 96
1, 204054, Control_c, 0, 64, 127
1, 204181, Note_on_c, 0, 46, 0
1, 204181, Note_on_c, 0, 34, 0
1, 204181, Note_on_c, 0, 33, 75
1, 204184, Note_on_c, 0, 45, 84
1, 204264, Note_on_c, 0, 45, 0
1, 204264, Note_on_c, 0, 33, 0
1, 204333, Control_c, 0, 64, 0
1, 204348, Note_on_c, 0, 87, 0
1, 204348, Note_on_c, 0, 75, 0
1, 204348, Note_on_c, 0, 77, 0
1, 204351, Note_on_c, 0, 72, 78
1, 204351, Note_on_c, 0, 84, 89
1, 204351, Note_on_c, 0, 77, 78
1, 204354, Note_on_c, 0, 33, 74
1, 204354, Note_on_c, 0, 45, 83
1, 204367, Control_c, 0, 64, 127
1, 204431, Note_on_c, 0, 45, 0
1, 204431, Note_on_c, 0, 33, 0
1, 204514, Note_on_c, 0, 33, 74
1, 204514, Note_on_c, 0, 45, 82
1, 204597, Note_on_c, 0, 45, 0
1, 204597, Note_on_c, 0, 33, 0
1, 204680, Note_on_c, 0, 77, 0
1, 204680, Note_on_c, 0, 84, 0
1, 204680, Note_on_c, 0, 72, 0
1, 204683, Note_on_c, 0, 46, 104
1, 204683, Control_c, 0, 64, 0
1, 204683, Control_c, 0, 64, 0
1, 204686, Note_on_c, 0, 34, 92
1, 204728, Control_c, 0, 64, 127
1, 204764, Note_on_c, 0, 62, 79
1, 204847, Note_on_c, 0, 62, 0
1, 204847, Note_on_c, 0, 65, 79
1, 204928, Note_on_c, 0, 65, 0
1, 204928, Note_on_c, 0, 70, 81
1, 205010, Note_on_c, 0, 70, 0
1, 205010, Note_on_c, 0, 74, 81
1, 205091, Note_on_c, 0, 74, 0
1, 205091, Note_on_c, 0, 77, 82
1, 205172, Note_on_c, 0, 77, 0
1, 205172, Note_on_c, 0, 34, 0
1, 205172, Note_on_c, 0, 82, 83
1, 205175, Note_on_c, 0, 46, 0
1, 205175, Note_on_c, 0, 34, 90
1, 205175, Note_on_c, 0, 46, 101
1, 205254, Note_on_c, 0, 82, 0
1, 205254, Note_on_c, 0, 86, 83
1, 205337, Note_on_c, 0, 86, 0
1, 205337, Note_on_c, 0, 88, 89
1, 205337, Note_on_c, 0, 76, 71
1, 205340, Note_on_c, 0, 46, 0
1, 205340, Note_on_c, 0, 34, 0
1, 205340, Note_on_c, 0, 45, 89
1, 205343, Control_c, 0, 64, 0
1, 205343, Note_on_c, 0, 33, 79
1, 205376, Control_c, 0, 64, 127
1, 205503, Note_on_c, 0, 88, 0
1, 205503, Note_on_c, 0, 76, 0
1, 205503, Note_on_c, 0, 86, 71
1, 205506, Note_on_c, 0, 77, 71
1, 205506, Note_on_c, 0, 89, 80
1, 205586, Note_on_c, 0, 89, 0
1, 205586, Note_on_c, 0, 86, 0
1, 205586, Note_on_c, 0, 77, 0
1, 205655, Control_c, 0, 64, 0
1, 205669, Note_on_c, 0, 77, 71
1, 205669, Note_on_c, 0, 86, 71
1, 205669, Note_on_c, 0, 89, 80
1, 205672, Note_on_c, 0, 45, 0
1, 205672, Note_on_c, 0, 33, 0
1, 205672, Note_on_c, 0, 44, 77
1, 205675, Note_on_c, 0, 32, 69
1, 205689, Control_c, 0, 64, 127
1, 205753, Note_on_c, 0, 86, 0
1, 205753, Note_on_c, 0, 89, 0
1, 205753, Note_on_c, 0, 77, 0
1, 205836, Note_on_c, 0, 77, 70
1, 205836, Note_on_c, 0, 86, 70
1, 205836, Note_on_c, 0, 89, 79
1, 205919, Note_on_c, 0, 89, 0
1, 205919, Note_on_c, 0, 77, 0
1, 205919, Note_on_c, 0, 86, 0
1, 206002, Note_on_c, 0, 44, 0
1, 206002, Note_on_c, 0, 32, 0
1, 206002, Note_on_c, 0, 45, 92
1, 206005, Control_c, 0, 64, 0
1, 206005, Control_c, 0, 64, 0
1, 206005, Note_on_c, 0, 33, 81
1, 206050, Control_c, 0, 64, 127
1, 206085, Note_on_c, 0, 61, 74
1, 206169, Note_on_c, 0, 61, 0
1, 206169, Note_on_c, 0, 64, 75
1, 206250, Note_on_c, 0, 64, 0
1, 206250, Note_on_c, 0, 69, 76
1, 206331, Note_on_c, 0, 69, 0
1, 206331, Note_on_c, 0, 73, 77
1, 206413, Note_on_c, 0, 73, 0
1, 206413, Note_on_c, 0, 76, 77
1, 206494, Note_on_c, 0, 76, 0
1, 206494, Note_on_c, 0, 33, 0
1, 206494, Note_on_c, 0, 81, 79
1, 206497, Note_on_c, 0, 45, 0
1, 206497, Note_on_c, 0, 33, 80
1, 206497, Note_on_c, 0, 45, 80
1, 206576, Note_on_c, 0, 81, 0
1, 206576, Note_on_c, 0, 85, 79
1, 206659, Note_on_c, 0, 85, 0
1, 206659, Note_on_c, 0, 86, 85
1, 206659, Note_on_c, 0, 74, 68
1, 206662, Note_on_c, 0, 45, 0
1, 206662, Note_on_c, 0, 33, 0
1, 206662, Note_on_c, 0, 43, 82
1, 206665, Control_c, 0, 64, 0
1, 206665, Note_on_c, 0, 31, 73
1, 206697, Control_c, 0, 64, 127
1, 206825, Note_on_c, 0, 86, 0
1, 206825, Note_on_c, 0, 74, 0
1, 206825, Note_on_c, 0, 84, 70
1, 206828, Note_on_c, 0, 75, 70
1, 206828, Note_on_c, 0, 87, 78
1, 206908, Note_on_c, 0, 87, 0
1, 206908, Note_on_c, 0, 84, 0
1, 206908, Note_on_c, 0, 75, 0
1, 206977, Control_c, 0, 64, 0
1, 206991, Note_on_c, 0, 75, 70
1, 206991, Note_on_c, 0, 84, 70
1, 206991, Note_on_c, 0, 87, 78
1, 206994, Note_on_c, 0, 43, 0
1, 206994, Note_on_c, 0, 31, 0
1, 206994, Note_on_c, 0, 42, 73
1, 206997, Note_on_c, 0, 30, 64
1, 207011, Control_c, 0, 64, 127
1, 207075, Note_on_c, 0, 84, 0
1, 207075, Note_on_c, 0, 87, 0
1, 207075, Note_on_c, 0, 75, 0
1, 207158, Note_on_c, 0, 75, 70
1, 207158, Note_on_c, 0, 84, 70
1, 207158, Note_on_c, 0, 87, 78
1, 207241, Note_on_c, 0, 87, 0
1, 207241, Note_on_c, 0, 75, 0
1, 207241, Note_on_c, 0, 84, 0
1, 207324, Note_on_c, 0, 42, 0
1, 207324, Note_on_c, 0, 30, 0
1, 207324, Note_on_c, 0, 31, 81
1, 207327, Control_c, 0, 64, 0
1, 207327, Note_on_c, 0, 43, 92
1, 207372, Control_c, 0, 64, 127
1, 207407, Note_on_c, 0, 59, 74
1, 207491, Note_on_c, 0, 59, 0
1, 207491, Note_on_c, 0, 62, 75
1, 207572, Note_on_c, 0, 62, 0
1, 207572, Note_on_c, 0, 67, 76
1, 207653, Note_on_c, 0, 67, 0
1, 207653, Note_on_c, 0, 71, 77
1, 207735, Note_on_c, 0, 71, 0
1, 207735, Note_on_c, 0, 74, 77
1, 207816, Note_on_c, 0, 74, 0
1, 207816, Note_on_c, 0, 79, 79
1, 207898, Note_on_c, 0, 79, 0
1, 207898, Note_on_c, 0, 83, 79
1, 207980, Note_on_c, 0, 83, 0
1, 207980, Note_on_c, 0, 74, 76
1, 207980, Note_on_c, 0, 78, 76
1, 207983, Note_on_c, 0, 43, 0
1, 207983, Note_on_c, 0, 31, 0
1, 207983, Note_on_c, 0, 86, 85
1, 207986, Control_c, 0, 64, 0
1, 207986, Note_on_c, 0, 31, 73
1, 207986, Note_on_c, 0, 43, 82
1, 208019, Control_c, 0, 64, 127
1, 208147, Note_on_c, 0, 43, 0
1, 208147, Note_on_c, 0, 31, 0
1, 208147, Note_on_c, 0, 32, 64
1, 208150, Note_on_c, 0, 44, 73
1, 208230, Note_on_c, 0, 44, 0
1, 208230, Note_on_c, 0, 32, 0
1, 208299, Control_c, 0, 64, 0
1, 208313, Note_on_c, 0, 86, 0
1, 208313, Note_on_c, 0, 74, 0
1, 208313, Note_on_c, 0, 78, 0
1, 208316, Note_on_c, 0, 72, 72
1, 208316, Note_on_c, 0, 84, 80
1, 208316, Note_on_c, 0, 78, 72
1, 208319, Note_on_c, 0, 32, 64
1, 208319, Note_on_c, 0, 44, 73
1, 208333, Control_c, 0, 64, 127
1, 208396, Note_on_c, 0, 44, 0
1, 208396, Note_on_c, 0, 32, 0
1, 208480, Note_on_c, 0, 32, 64
1, 208480, Note_on_c, 0, 44, 73
1, 208563, Note_on_c, 0, 44, 0
1, 208563, Note_on_c, 0, 32, 0
1, 208646, Note_on_c, 0, 78, 0
1, 208646, Note_on_c, 0, 84, 0
1, 208646, Note_on_c, 0, 72, 0
1, 208649, Note_on_c, 0, 31, 81
1, 208649, Control_c, 0, 64, 0
1, 208649, Note_on_c, 0, 43, 92
1, 208694, Control_c, 0, 64, 127
1, 208729, Note_on_c, 0, 59, 73
1, 208812, Note_on_c, 0, 59, 0
1, 208812, Note_on_c, 0, 62, 72
1, 208894, Note_on_c, 0, 62, 0
1, 208894, Note_on_c, 0, 67, 72
1, 208975, Note_on_c, 0, 67, 0
1, 208975, Note_on_c, 0, 71, 71
1, 209057, Note_on_c, 0, 71, 0
1, 209057, Note_on_c, 0, 74, 70
1, 209138, Note_on_c, 0, 74, 0
1, 209138, Note_on_c, 0, 79, 71
1, 209221, Note_on_c, 0, 79, 0
1, 209221, Note_on_c, 0, 83, 69
1, 209305, Note_on_c, 0, 83, 0
1, 209305, Note_on_c, 0, 74, 66
1, 209305, Note_on_c, 0, 78, 66
1, 209308, Note_on_c, 0, 43, 0
1, 209308, Note_on_c, 0, 31, 0
1, 209308, Note_on_c, 0, 86, 73
1, 209311, Control_c, 0, 64, 0
1, 209311, Note_on_c, 0, 31, 62
1, 209311, Note_on_c, 0, 43, 70
1, 209346, Control_c, 0, 64, 127
1, 209479, Note_on_c, 0, 43, 0
1, 209479, Note_on_c, 0, 31, 0
1, 209479, Note_on_c, 0, 32, 56
1, 209482, Note_on_c, 0, 44, 62
1, 209567, Note_on_c, 0, 44, 0
1, 209567, Note_on_c, 0, 32, 0
1, 209640, Control_c, 0, 64, 0
1, 209655, Note_on_c, 0, 86, 0
1, 209655, Note_on_c, 0, 74, 0
1, 209655, Note_on_c, 0, 78, 0
1, 209658, Note_on_c, 0, 72, 61
1, 209658, Note_on_c, 0, 84, 69
1, 209658, Note_on_c, 0, 78, 61
1, 209661, Note_on_c, 0, 32, 56
1, 209661, Note_on_c, 0, 44, 62
1, 209676, Control_c, 0, 64, 127
1, 209745, Note_on_c, 0, 44, 0
1, 209745, Note_on_c, 0, 32, 0
1, 209835, Note_on_c, 0, 32, 56
1, 209835, Note_on_c, 0, 44, 62
1, 209926, Note_on_c, 0, 44, 0
1, 209926, Note_on_c, 0, 32, 0
1, 210018, Note_on_c, 0, 78, 0
1, 210018, Note_on_c, 0, 84, 0
1, 210018, Note_on_c, 0, 72, 0
1, 210021, Note_on_c, 0, 71, 61
1, 210021, Note_on_c, 0, 79, 61
1, 210021, Note_on_c, 0, 83, 69
1, 210024, Control_c, 0, 64, 0
1, 210024, Note_on_c, 0, 31, 62
1, 210024, Note_on_c, 0, 43, 70
1, 210203, Note_on_c, 0, 83, 0
1, 210203, Note_on_c, 0, 71, 0
1, 210203, Note_on_c, 0, 79, 0
1, 210206, Note_on_c, 0, 31, 0
1, 210206, Note_on_c, 0, 43, 0
1, 210388, Note_on_c, 0, 55, 102
1, 210388, Note_on_c, 0, 67, 118
1, 211209, Note_on_c, 0, 74, 76
1, 211294, Note_on_c, 0, 74, 0
1, 211378, Note_on_c, 0, 67, 0
1, 211378, Note_on_c, 0, 55, 0
1, 211378, Note_on_c, 0, 72, 87
1, 211381, Note_on_c, 0, 55, 66
1, 211540, Note_on_c, 0, 55, 0
1, 211540, Note_on_c, 0, 72, 0
1, 211540, Note_on_c, 0, 71, 61
1, 211543, Note_on_c, 0, 67, 55
1, 211621, Note_on_c, 0, 67, 0
1, 211621, Note_on_c, 0, 71, 0
1, 211702, Note_on_c, 0, 71, 67
1, 211702, Note_on_c, 0, 65, 55
1, 211702, Note_on_c, 0, 62, 50
1, 211784, Note_on_c, 0, 62, 0
1, 211784, Note_on_c, 0, 65, 0
1, 211784, Note_on_c, 0, 71, 0
1, 211866, Note_on_c, 0, 71, 61
1, 211866, Note_on_c, 0, 67, 56
1, 211949, Note_on_c, 0, 67, 0
1, 211949, Note_on_c, 0, 71, 0
1, 212033, Note_on_c, 0, 71, 79
1, 212033, Note_on_c, 0, 55, 68
1, 212112, Note_on_c, 0, 71, 0
1, 212112, Note_on_c, 0, 72, 73
1, 212198, Note_on_c, 0, 72, 0
1, 212198, Note_on_c, 0, 55, 0
1, 212198, Note_on_c, 0, 79, 83
1, 212201, Note_on_c, 0, 67, 55
1, 212359, Note_on_c, 0, 67, 0
1, 212359, Note_on_c, 0, 79, 0
1, 212359, Note_on_c, 0, 77, 74
1, 212362, Note_on_c, 0, 60, 53
1, 212362, Note_on_c, 0, 63, 59
1, 212440, Note_on_c, 0, 77, 0
1, 212440, Note_on_c, 0, 75, 69
1, 212522, Note_on_c, 0, 75, 0
1, 212522, Note_on_c, 0, 63, 0
1, 212522, Note_on_c, 0, 74, 69
1, 212525, Note_on_c, 0, 60, 0
1, 212525, Note_on_c, 0, 67, 56
1, 212606, Note_on_c, 0, 74, 0
1, 212606, Note_on_c, 0, 72, 69
1, 212690, Note_on_c, 0, 72, 0
1, 212690, Note_on_c, 0, 67, 0
1, 212690, Note_on_c, 0, 72, 87
1, 212693, Note_on_c, 0, 55, 66
1, 212851, Note_on_c, 0, 55, 0
1, 212851, Note_on_c, 0, 72, 0
1, 212851, Note_on_c, 0, 71, 61
1, 212854, Note_on_c, 0, 67, 55
1, 212932, Note_on_c, 0, 67, 0
1, 212932, Note_on_c, 0, 71, 0
1, 213013, Note_on_c, 0, 71, 68
1, 213013, Note_on_c, 0, 65, 55
1, 213013, Note_on_c, 0, 62, 50
1, 213095, Note_on_c, 0, 62, 0
1, 213095, Note_on_c, 0, 65, 0
1, 213095, Note_on_c, 0, 71, 0
1, 213177, Note_on_c, 0, 71, 61
1, 213177, Note_on_c, 0, 67, 53
1, 213261, Note_on_c, 0, 67, 0
1, 213261, Note_on_c, 0, 71, 0
1, 213345, Note_on_c, 0, 71, 81
1, 213345, Note_on_c, 0, 55, 68
1, 213509, Note_on_c, 0, 55, 0
1, 213509, Note_on_c, 0, 71, 0
1, 213509, Note_on_c, 0, 72, 71
1, 213512, Note_on_c, 0, 67, 56
1, 213591, Note_on_c, 0, 67, 0
1, 213591, Note_on_c, 0, 72, 0
1, 213674, Note_on_c, 0, 54, 53
1, 213674, Note_on_c, 0, 60, 53
1, 213674, Note_on_c, 0, 63, 59
1, 213756, Note_on_c, 0, 63, 0
1, 213756, Note_on_c, 0, 60, 0
1, 213756, Note_on_c, 0, 54, 0
1, 213838, Note_on_c, 0, 75, 78
1, 213838, Note_on_c, 0, 66, 59
1, 214005, Note_on_c, 0, 66, 0
1, 214005, Note_on_c, 0, 75, 0
1, 214005, Note_on_c, 0, 72, 87
1, 214008, Note_on_c, 0, 53, 66
1, 214166, Note_on_c, 0, 53, 0
1, 214166, Note_on_c, 0, 72, 0
1, 214166, Note_on_c, 0, 70, 76
1, 214169, Note_on_c, 0, 65, 59
1, 214247, Note_on_c, 0, 65, 0
1, 214247, Note_on_c, 0, 70, 0
1, 214328, Note_on_c, 0, 70, 78
1, 214328, Note_on_c, 0, 62, 59
1, 214410, Note_on_c, 0, 62, 0
1, 214410, Note_on_c, 0, 70, 0
1, 214492, Note_on_c, 0, 70, 78
1, 214492, Note_on_c, 0, 65, 60
1, 214574, Note_on_c, 0, 65, 0
1, 214574, Note_on_c, 0, 70, 0
1, 214656, Note_on_c, 0, 72, 87
1, 214656, Note_on_c, 0, 55, 66
1, 214818, Note_on_c, 0, 55, 0
1, 214818, Note_on_c, 0, 72, 0
1, 214818, Note_on_c, 0, 70, 77
1, 214821, Note_on_c, 0, 64, 60
1, 214899, Note_on_c, 0, 64, 0
1, 214899, Note_on_c, 0, 70, 0
1, 214980, Note_on_c, 0, 70, 79
1, 214980, Note_on_c, 0, 60, 60
1, 215062, Note_on_c, 0, 60, 0
1, 215062, Note_on_c, 0, 70, 0
1, 215144, Note_on_c, 0, 70, 79
1, 215144, Note_on_c, 0, 64, 60
1, 215226, Note_on_c, 0, 64, 0
1, 215226, Note_on_c, 0, 70, 0
1, 215308, Note_on_c, 0, 72, 87
1, 215308, Note_on_c, 0, 62, 66
1, 215308, Note_on_c, 0, 53, 59
1, 215336, Control_c, 0, 64, 127
1, 215389, Note_on_c, 0, 72, 0
1, 215389, Note_on_c, 0, 70, 76
1, 215469, Note_on_c, 0, 70, 0
1, 215469, Note_on_c, 0, 53, 0
1, 215469, Note_on_c, 0, 69, 77
1, 215472, Note_on_c, 0, 62, 0
1, 215472, Note_on_c, 0, 65, 57
1, 215550, Note_on_c, 0, 69, 0
1, 215550, Note_on_c, 0, 70, 77
1, 215630, Note_on_c, 0, 70, 0
1, 215630, Note_on_c, 0, 65, 0
1, 215630, Note_on_c, 0, 72, 82
1, 215633, Note_on_c, 0, 63, 59
1, 215633, Note_on_c, 0, 53, 53
1, 215655, Control_c, 0, 64, 0
1, 215714, Note_on_c, 0, 53, 0
1, 215714, Note_on_c, 0, 63, 0
1, 215714, Note_on_c, 0, 72, 0
1, 215797, Note_on_c, 0, 74, 78
1, 215797, Note_on_c, 0, 65, 58
1, 215882, Note_on_c, 0, 65, 0
1, 215882, Note_on_c, 0, 74, 0
1, 215967, Note_on_c, 0, 70, 82
1, 215967, Note_on_c, 0, 62, 66
1, 215967, Note_on_c, 0, 58, 66
1, 216054, Note_on_c, 0, 58, 0
1, 216054, Note_on_c, 0, 62, 0
1, 216136, Note_on_c, 0, 70, 0
1, 216136, Note_on_c, 0, 57, 62
1, 216220, Note_on_c, 0, 57, 0
1, 216304, Note_on_c, 0, 55, 61
1, 216388, Note_on_c, 0, 55, 0
1, 216471, Note_on_c, 0, 74, 81
1, 216471, Note_on_c, 0, 53, 60
1, 216556, Note_on_c, 0, 53, 0
1, 216556, Note_on_c, 0, 74, 0
1, 216640, Note_on_c, 0, 79, 84
1, 216640, Note_on_c, 0, 51, 66
1, 216724, Note_on_c, 0, 51, 0
1, 216807, Note_on_c, 0, 58, 60
1, 216807, Note_on_c, 0, 55, 60
1, 216890, Note_on_c, 0, 55, 0
1, 216890, Note_on_c, 0, 58, 0
1, 216974, Note_on_c, 0, 79, 0
1, 216974, Note_on_c, 0, 75, 84
1, 216974, Note_on_c, 0, 48, 60
1, 217057, Note_on_c, 0, 48, 0
1, 217141, Note_on_c, 0, 60, 60
1, 217141, Note_on_c, 0, 55, 60
1, 217224, Note_on_c, 0, 55, 0
1, 217224, Note_on_c, 0, 60, 0
1, 217307, Note_on_c, 0, 75, 0
1, 217307, Note_on_c, 0, 72, 84
1, 217307, Note_on_c, 0, 53, 66
1, 217390, Note_on_c, 0, 53, 0
1, 217472, Note_on_c, 0, 57, 59
1, 217472, Note_on_c, 0, 60, 59
1, 217554, Note_on_c, 0, 60, 0
1, 217554, Note_on_c, 0, 57, 0
1, 217636, Note_on_c, 0, 72, 0
1, 217636, Note_on_c, 0, 74, 84
1, 217636, Note_on_c, 0, 51, 60
1, 217718, Note_on_c, 0, 51, 0
1, 217718, Note_on_c, 0, 74, 0
1, 217800, Note_on_c, 0, 75, 82
1, 217800, Note_on_c, 0, 60, 60
1, 217800, Note_on_c, 0, 57, 60
1, 217882, Note_on_c, 0, 57, 0
1, 217882, Note_on_c, 0, 60, 0
1, 217882, Note_on_c, 0, 75, 0
1, 217964, Note_on_c, 0, 77, 81
1, 217964, Note_on_c, 0, 50, 63
1, 217974, Control_c, 0, 64, 127
1, 218045, Note_on_c, 0, 50, 0
1, 218045, Note_on_c, 0, 77, 0
1, 218045, Note_on_c, 0, 79, 77
1, 218126, Note_on_c, 0, 79, 0
1, 218126, Note_on_c, 0, 77, 77
1, 218126, Note_on_c, 0, 58, 58
1, 218129, Note_on_c, 0, 53, 53
1, 218207, Note_on_c, 0, 53, 0
1, 218207, Note_on_c, 0, 77, 0
1, 218207, Note_on_c, 0, 75, 77
1, 218210, Note_on_c, 0, 58, 0
1, 218288, Note_on_c, 0, 75, 0
1, 218288, Note_on_c, 0, 74, 83
1, 218288, Note_on_c, 0, 46, 58
1, 218298, Control_c, 0, 64, 0
1, 218332, Control_c, 0, 64, 127
1, 218370, Note_on_c, 0, 46, 0
1, 218370, Note_on_c, 0, 74, 0
1, 218370, Note_on_c, 0, 75, 76
1, 218453, Note_on_c, 0, 75, 0
1, 218453, Note_on_c, 0, 74, 76
1, 218453, Note_on_c, 0, 58, 58
1, 218456, Note_on_c, 0, 53, 53
1, 218538, Note_on_c, 0, 53, 0
1, 218538, Note_on_c, 0, 74, 0
1, 218538, Note_on_c, 0, 72, 77
1, 218541, Note_on_c, 0, 58, 0
1, 218624, Note_on_c, 0, 72, 0
1, 218624, Note_on_c, 0, 70, 84
1, 218624, Control_c, 0, 64, 0
1, 218627, Note_on_c, 0, 51, 64
1, 218707, Note_on_c, 0, 51, 0
1, 218727, Control_c, 0, 64, 127
1, 218791, Note_on_c, 0, 58, 58
1, 218791, Note_on_c, 0, 55, 53
1, 218875, Note_on_c, 0, 55, 0
1, 218875, Note_on_c, 0, 58, 0
1, 218949, Control_c, 0, 64, 0
1, 218959, Note_on_c, 0, 50, 58
1, 219045, Note_on_c, 0, 50, 0
1, 219132, Note_on_c, 0, 70, 0
1, 219132, Note_on_c, 0, 70, 70
1, 219132, Note_on_c, 0, 58, 53
1, 219135, Note_on_c, 0, 55, 53
1, 219217, Note_on_c, 0, 55, 0
1, 219217, Note_on_c, 0, 58, 0
1, 219217, Note_on_c, 0, 70, 0
1, 219302, Note_on_c, 0, 75, 72
1, 219302, Control_c, 0, 64, 127
1, 219302, Note_on_c, 0, 48, 57
1, 219386, Note_on_c, 0, 48, 0
1, 219469, Note_on_c, 0, 60, 53
1, 219469, Note_on_c, 0, 56, 53
1, 219553, Note_on_c, 0, 56, 0
1, 219553, Note_on_c, 0, 60, 0
1, 219636, Note_on_c, 0, 75, 0
1, 219636, Note_on_c, 0, 72, 72
1, 219636, Note_on_c, 0, 51, 53
1, 219719, Note_on_c, 0, 51, 0
1, 219803, Note_on_c, 0, 60, 53
1, 219803, Note_on_c, 0, 56, 53
1, 219886, Note_on_c, 0, 56, 0
1, 219886, Note_on_c, 0, 60, 0
1, 219970, Note_on_c, 0, 72, 0
1, 219970, Note_on_c, 0, 68, 72
1, 219970, Control_c, 0, 64, 0
1, 219973, Note_on_c, 0, 48, 57
1, 220048, Control_c, 0, 64, 127
1, 220052, Note_on_c, 0, 48, 0
1, 220134, Note_on_c, 0, 56, 52
1, 220134, Note_on_c, 0, 60, 52
1, 220216, Note_on_c, 0, 60, 0
1, 220216, Note_on_c, 0, 56, 0
1, 220298, Note_on_c, 0, 68, 0
1, 220298, Note_on_c, 0, 70, 72
1, 220298, Note_on_c, 0, 51, 53
1, 220380, Note_on_c, 0, 51, 0
1, 220380, Note_on_c, 0, 70, 0
1, 220462, Note_on_c, 0, 72, 70
1, 220462, Note_on_c, 0, 60, 53
1, 220462, Note_on_c, 0, 56, 53
1, 220545, Note_on_c, 0, 56, 0
1, 220545, Note_on_c, 0, 60, 0
1, 220545, Note_on_c, 0, 72, 0
1, 220627, Note_on_c, 0, 75, 72
1, 220627, Control_c, 0, 64, 0
1, 220627, Note_on_c, 0, 49, 57
1, 220706, Control_c, 0, 64, 127
1, 220794, Note_on_c, 0, 49, 0
1, 220794, Note_on_c, 0, 55, 53
1, 220794, Note_on_c, 0, 58, 53
1, 220960, Note_on_c, 0, 58, 0
1, 220960, Note_on_c, 0, 75, 0
1, 220960, Note_on_c, 0, 73, 72
1, 220963, Note_on_c, 0, 55, 0
1, 220963, Note_on_c, 0, 51, 53
1, 220984, Control_c, 0, 64, 0
1, 221040, Control_c, 0, 64, 127
1, 221127, Note_on_c, 0, 51, 0
1, 221127, Note_on_c, 0, 73, 0
1, 221127, Note_on_c, 0, 72, 72
1, 221130, Note_on_c, 0, 58, 53
1, 221130, Note_on_c, 0, 55, 53
1, 221294, Note_on_c, 0, 55, 0
1, 221294, Note_on_c, 0, 72, 0
1, 221294, Note_on_c, 0, 70, 72
1, 221297, Note_on_c, 0, 58, 0
1, 221297, Control_c, 0, 64, 0
1, 221297, Note_on_c, 0, 49, 57
1, 221329, Control_c, 0, 64, 127
1, 221458, Note_on_c, 0, 49, 0
1, 221458, Note_on_c, 0, 55, 52
1, 221458, Note_on_c, 0, 58, 52
1, 221623, Note_on_c, 0, 58, 0
1, 221623, Note_on_c, 0, 70, 0
1, 221623, Note_on_c, 0, 72, 72
1, 221626, Note_on_c, 0, 55, 0
1, 221626, Note_on_c, 0, 51, 53
1, 221626, Control_c, 0, 64, 0
1, 221705, Note_on_c, 0, 72, 0
1, 221746, Note_on_c, 0, 51, 0
1, 221787, Note_on_c, 0, 73, 70
1, 221787, Note_on_c, 0, 58, 53
1, 221787, Note_on_c, 0, 55, 53
1, 221869, Note_on_c, 0, 73, 0
1, 221910, Note_on_c, 0, 55, 0
1, 221910, Note_on_c, 0, 58, 0
1, 221951, Note_on_c, 0, 75, 70
1, 221951, Note_on_c, 0, 48, 55
1, 222033, Note_on_c, 0, 75, 0
1, 222033, Note_on_c, 0, 77, 66
1, 222115, Note_on_c, 0, 77, 0
1, 222115, Note_on_c, 0, 48, 0
1, 222115, Note_on_c, 0, 75, 66
1, 222118, Note_on_c, 0, 56, 47
1, 222118, Note_on_c, 0, 60, 51
1, 222197, Note_on_c, 0, 75, 0
1, 222197, Note_on_c, 0, 73, 66
1, 222280, Note_on_c, 0, 73, 0
1, 222280, Note_on_c, 0, 60, 0
1, 222280, Note_on_c, 0, 72, 71
1, 222283, Note_on_c, 0, 56, 0
1, 222283, Note_on_c, 0, 51, 51
1, 222362, Note_on_c, 0, 72, 0
1, 222362, Note_on_c, 0, 73, 66
1, 222444, Note_on_c, 0, 73, 0
1, 222444, Note_on_c, 0, 51, 0
1, 222444, Note_on_c, 0, 72, 66
1, 222447, Note_on_c, 0, 60, 51
1, 222447, Note_on_c, 0, 56, 47
1, 222529, Note_on_c, 0, 72, 0
1, 222529, Note_on_c, 0, 70, 66
1, 222613, Note_on_c, 0, 70, 0
1, 222613, Note_on_c, 0, 56, 0
1, 222613, Note_on_c, 0, 68, 72
1, 222616, Note_on_c, 0, 60, 0
1, 222616, Note_on_c, 0, 48, 56
1, 222716, Control_c, 0, 64, 127
1, 222780, Note_on_c, 0, 48, 0
1, 222780, Note_on_c, 0, 60, 51
1, 222780, Note_on_c, 0, 56, 47
1, 222940, Control_c, 0, 64, 0
1, 222950, Note_on_c, 0, 56, 0
1, 222950, Note_on_c, 0, 68, 0
1, 222950, Note_on_c, 0, 70, 72
1, 222953, Note_on_c, 0, 60, 0
1, 222953, Note_on_c, 0, 51, 56
1, 223034, Note_on_c, 0, 51, 0
1, 223034, Note_on_c, 0, 70, 0
1, 223118, Note_on_c, 0, 72, 68
1, 223118, Note_on_c, 0, 56, 47
1, 223118, Note_on_c, 0, 60, 51
1, 223201, Note_on_c, 0, 60, 0
1, 223201, Note_on_c, 0, 56, 0
1, 223201, Note_on_c, 0, 72, 0
1, 223285, Note_on_c, 0, 75, 72
1, 223285, Control_c, 0, 64, 127
1, 223285, Note_on_c, 0, 49, 56
1, 223453, Note_on_c, 0, 49, 0
1, 223453, Note_on_c, 0, 75, 0
1, 223453, Note_on_c, 0, 73, 72
1, 223456, Note_on_c, 0, 58, 53
1, 223456, Note_on_c, 0, 55, 53
1, 223536, Note_on_c, 0, 55, 0
1, 223536, Note_on_c, 0, 58, 0
1, 223536, Note_on_c, 0, 73, 0
1, 223612, Control_c, 0, 64, 0
1, 223620, Note_on_c, 0, 73, 72
1, 223620, Note_on_c, 0, 51, 56
1, 223647, Control_c, 0, 64, 127
1, 223702, Note_on_c, 0, 73, 0
1, 223702, Note_on_c, 0, 75, 68
1, 223784, Note_on_c, 0, 75, 0
1, 223784, Note_on_c, 0, 51, 0
1, 223784, Note_on_c, 0, 73, 68
1, 223787, Note_on_c, 0, 58, 53
1, 223787, Note_on_c, 0, 55, 53
1, 223866, Note_on_c, 0, 73, 0
1, 223866, Note_on_c, 0, 72, 68
1, 223947, Note_on_c, 0, 72, 0
1, 223947, Note_on_c, 0, 55, 0
1, 223947, Note_on_c, 0, 70, 72
1, 223950, Note_on_c, 0, 58, 0
1, 223950, Control_c, 0, 64, 0
1, 223950, Note_on_c, 0, 49, 58
1, 223974, Control_c, 0, 64, 127
1, 224111, Note_on_c, 0, 49, 0
1, 224111, Note_on_c, 0, 70, 0
1, 224111, Note_on_c, 0, 75, 73
1, 224114, Note_on_c, 0, 58, 53
1, 224114, Note_on_c, 0, 55, 53
1, 224161, Control_c, 0, 64, 0
1, 224195, Note_on_c, 0, 55, 0
1, 224195, Note_on_c, 0, 58, 0
1, 224195, Note_on_c, 0, 75, 0
1, 224278, Note_on_c, 0, 77, 77
1, 224278, Note_on_c, 0, 51, 55
1, 224362, Note_on_c, 0, 51, 0
1, 224362, Note_on_c, 0, 77, 0
1, 224446, Note_on_c, 0, 79, 80
1, 224446, Note_on_c, 0, 58, 58
1, 224446, Note_on_c, 0, 55, 58
1, 224530, Note_on_c, 0, 55, 0
1, 224530, Note_on_c, 0, 58, 0
1, 224530, Note_on_c, 0, 79, 0
1, 224613, Note_on_c, 0, 80, 83
1, 224613, Note_on_c, 0, 68, 74
1, 224613, Control_c, 0, 64, 127
1, 224616, Note_on_c, 0, 48, 61
1, 224777, Note_on_c, 0, 48, 0
1, 224777, Note_on_c, 0, 56, 51
1, 224777, Note_on_c, 0, 60, 56
1, 224941, Note_on_c, 0, 60, 0
1, 224941, Note_on_c, 0, 56, 0
1, 224941, Note_on_c, 0, 51, 56
1, 225108, Note_on_c, 0, 51, 0
1, 225108, Note_on_c, 0, 56, 51
1, 225108, Note_on_c, 0, 60, 56
1, 225276, Note_on_c, 0, 68, 0
1, 225276, Note_on_c, 0, 80, 0
1, 225276, Note_on_c, 0, 72, 75
1, 225279, Note_on_c, 0, 56, 0
1, 225279, Note_on_c, 0, 60, 0
1, 225279, Note_on_c, 0, 84, 84
1, 225282, Control_c, 0, 64, 0
1, 225282, Note_on_c, 0, 48, 61
1, 225369, Control_c, 0, 64, 127
1, 225439, Note_on_c, 0, 48, 0
1, 225439, Note_on_c, 0, 60, 56
1, 225439, Note_on_c, 0, 56, 51
1, 225605, Note_on_c, 0, 56, 0
1, 225605, Note_on_c, 0, 60, 0
1, 225605, Note_on_c, 0, 51, 56
1, 225772, Note_on_c, 0, 84, 0
1, 225772, Note_on_c, 0, 72, 0
1, 225772, Note_on_c, 0, 80, 79
1, 225775, Note_on_c, 0, 51, 0
1, 225775, Note_on_c, 0, 68, 71
1, 225775, Note_on_c, 0, 60, 56
1, 225778, Note_on_c, 0, 56, 51
1, 225940, Note_on_c, 0, 68, 0
1, 225940, Note_on_c, 0, 80, 0
1, 225940, Note_on_c, 0, 68, 74
1, 225943, Note_on_c, 0, 60, 0
1, 225943, Note_on_c, 0, 56, 0
1, 225943, Note_on_c, 0, 80, 83
1, 225946, Control_c, 0, 64, 0
1, 225946, Note_on_c, 0, 49, 61
1, 225996, Control_c, 0, 64, 127
1, 226107, Note_on_c, 0, 49, 0
1, 226107, Note_on_c, 0, 58, 56
1, 226107, Note_on_c, 0, 55, 51
1, 226271, Note_on_c, 0, 80, 0
1, 226271, Note_on_c, 0, 68, 0
1, 226271, Note_on_c, 0, 67, 71
1, 226274, Note_on_c, 0, 58, 0
1, 226274, Note_on_c, 0, 55, 0
1, 226274, Note_on_c, 0, 79, 79
1, 226277, Note_on_c, 0, 52, 56
1, 226277, Control_c, 0, 64, 0
1, 226341, Control_c, 0, 64, 127
1, 226435, Note_on_c, 0, 52, 0
1, 226435, Note_on_c, 0, 58, 56
1, 226435, Note_on_c, 0, 55, 51
1, 226601, Note_on_c, 0, 55, 0
1, 226601, Note_on_c, 0, 58, 0
1, 226601, Note_on_c, 0, 49, 61
1, 226768, Note_on_c, 0, 49, 0
1, 226768, Note_on_c, 0, 58, 56
1, 226768, Note_on_c, 0, 55, 51
1, 226937, Note_on_c, 0, 79, 0
1, 226937, Note_on_c, 0, 67, 0
1, 226937, Note_on_c, 0, 67, 72
1, 226940, Note_on_c, 0, 58, 0
1, 226940, Note_on_c, 0, 55, 0
1, 226940, Note_on_c, 0, 79, 81
1, 226943, Note_on_c, 0, 52, 60
1, 227103, Note_on_c, 0, 52, 0
1, 227103, Note_on_c, 0, 58, 63
1, 227103, Note_on_c, 0, 55, 56
1, 227269, Note_on_c, 0, 79, 0
1, 227269, Note_on_c, 0, 67, 0
1, 227269, Note_on_c, 0, 67, 76
1, 227272, Note_on_c, 0, 58, 0
1, 227272, Note_on_c, 0, 55, 0
1, 227272, Note_on_c, 0, 79, 87
1, 227275, Control_c, 0, 64, 0
1, 227275, Note_on_c, 0, 50, 68
1, 227337, Control_c, 0, 64, 127
1, 227433, Note_on_c, 0, 79, 0
1, 227433, Note_on_c, 0, 67, 0
1, 227433, Note_on_c, 0, 65, 72
1, 227436, Note_on_c, 0, 50, 0
1, 227436, Note_on_c, 0, 77, 83
1, 227436, Note_on_c, 0, 62, 62
1, 227439, Note_on_c, 0, 58, 55
1, 227597, Note_on_c, 0, 77, 0
1, 227597, Note_on_c, 0, 65, 0
1, 227597, Note_on_c, 0, 70, 73
1, 227600, Note_on_c, 0, 62, 0
1, 227600, Note_on_c, 0, 58, 0
1, 227600, Note_on_c, 0, 82, 82
1, 227603, Note_on_c, 0, 53, 62
1, 227616, Control_c, 0, 64, 0
1, 227694, Control_c, 0, 64, 127
1, 227763, Note_on_c, 0, 53, 0
1, 227763, Note_on_c, 0, 62, 62
1, 227763, Note_on_c, 0, 58, 55
1, 227929, Note_on_c, 0, 58, 0
1, 227929, Note_on_c, 0, 62, 0
1, 227929, Control_c, 0, 64, 0
1, 227932, Note_on_c, 0, 50, 72
1, 228007, Control_c, 0, 64, 127
1, 228095, Note_on_c, 0, 50, 0
1, 228095, Note_on_c, 0, 62, 61
1, 228095, Note_on_c, 0, 58, 55
1, 228261, Note_on_c, 0, 82, 0
1, 228261, Note_on_c, 0, 70, 0
1, 228261, Note_on_c, 0, 69, 75
1, 228264, Note_on_c, 0, 62, 0
1, 228264, Note_on_c, 0, 58, 0
1, 228264, Note_on_c, 0, 81, 85
1, 228267, Note_on_c, 0, 53, 61
1, 228429, Note_on_c, 0, 53, 0
1, 228429, Note_on_c, 0, 62, 61
1, 228429, Note_on_c, 0, 58, 55
1, 228596, Note_on_c, 0, 81, 0
1, 228596, Note_on_c, 0, 69, 0
1, 228596, Note_on_c, 0, 69, 75
1, 228599, Note_on_c, 0, 62, 0
1, 228599, Note_on_c, 0, 58, 0
1, 228599, Note_on_c, 0, 81, 85
1, 228602, Control_c, 0, 64, 0
1, 228602, Note_on_c, 0, 51, 74
1, 228683, Control_c, 0, 64, 127
1, 228760, Note_on_c, 0, 81, 0
1, 228760, Note_on_c, 0, 69, 0
1, 228760, Note_on_c, 0, 79, 78
1, 228763, Note_on_c, 0, 51, 0
1, 228763, Note_on_c, 0, 67, 70
1, 228763, Note_on_c, 0, 63, 64
1, 228766, Note_on_c, 0, 60, 58
1, 228923, Note_on_c, 0, 67, 0
1, 228923, Note_on_c, 0, 79, 0
1, 228923, Note_on_c, 0, 87, 95
1, 228926, Note_on_c, 0, 63, 0
1, 228926, Note_on_c, 0, 60, 0
1, 228926, Note_on_c, 0, 75, 83
1, 228929, Note_on_c, 0, 55, 61
1, 228943, Control_c, 0, 64, 0
1, 229012, Control_c, 0, 64, 127
1, 229091, Note_on_c, 0, 55, 0
1, 229091, Note_on_c, 0, 63, 61
1, 229091, Note_on_c, 0, 60, 55
1, 229258, Note_on_c, 0, 75, 0
1, 229258, Note_on_c, 0, 87, 0
1, 229258, Note_on_c, 0, 86, 87
1, 229261, Note_on_c, 0, 63, 0
1, 229261, Note_on_c, 0, 60, 0
1, 229261, Note_on_c, 0, 74, 76
1, 229264, Control_c, 0, 64, 0
1, 229264, Note_on_c, 0, 53, 68
1, 229337, Control_c, 0, 64, 127
1, 229426, Note_on_c, 0, 53, 0
1, 229426, Note_on_c, 0, 62, 58
1, 229426, Note_on_c, 0, 58, 52
1, 229593, Note_on_c, 0, 74, 0
1, 229593, Note_on_c, 0, 86, 0
1, 229593, Note_on_c, 0, 84, 77
1, 229596, Note_on_c, 0, 62, 0
1, 229596, Note_on_c, 0, 58, 0
1, 229596, Note_on_c, 0, 72, 69
1, 229599, Note_on_c, 0, 53, 58
1, 229623, Control_c, 0, 64, 0
1, 229682, Control_c, 0, 64, 127
1, 229761, Note_on_c, 0, 53, 0
1, 229761, Note_on_c, 0, 63, 58
1, 229761, Note_on_c, 0, 57, 52
1, 229928, Note_on_c, 0, 72, 0
1, 229928, Note_on_c, 0, 84, 0
1, 229928, Note_on_c, 0, 70, 68
1, 229931, Note_on_c, 0, 63, 0
1, 229931, Note_on_c, 0, 57, 0
1, 229931, Note_on_c, 0, 82, 77
1, 229934, Control_c, 0, 64, 0
1, 229934, Note_on_c, 0, 46, 62
1, 229963, Control_c, 0, 64, 127
1, 230096, Note_on_c, 0, 46, 0
1, 230096, Note_on_c, 0, 82, 0
1, 230096, Note_on_c, 0, 70, 0
1, 230099, Note_on_c, 0, 62, 54
1, 230099, Note_on_c, 0, 58, 49
1, 230249, Control_c, 0, 64, 0
1, 230263, Note_on_c, 0, 58, 0
1, 230263, Note_on_c, 0, 62, 0
1, 230263, Note_on_c, 0, 74, 70
1, 230266, Note_on_c, 0, 50, 54
1, 230278, Control_c, 0, 64, 127
1, 230345, Note_on_c, 0, 74, 0
1, 230372, Note_on_c, 0, 74, 72
1, 230427, Note_on_c, 0, 50, 0
1, 230427, Note_on_c, 0, 62, 54
1, 230427, Note_on_c, 0, 58, 49
1, 230454, Note_on_c, 0, 74, 0
1, 230481, Note_on_c, 0, 74, 74
1, 230563, Note_on_c, 0, 74, 0
1, 230591, Note_on_c, 0, 58, 0
1, 230591, Note_on_c, 0, 62, 0
1, 230591, Note_on_c, 0, 74, 75
1, 230594, Note_on_c, 0, 53, 60
1, 230672, Note_on_c, 0, 74, 0
1, 230700, Note_on_c, 0, 74, 73
1, 230754, Note_on_c, 0, 53, 0
1, 230754, Note_on_c, 0, 62, 54
1, 230754, Note_on_c, 0, 58, 49
1, 230781, Note_on_c, 0, 74, 0
1, 230809, Note_on_c, 0, 74, 71
1, 230891, Note_on_c, 0, 74, 0
1, 230918, Note_on_c, 0, 58, 0
1, 230918, Note_on_c, 0, 62, 0
1, 230918, Note_on_c, 0, 74, 75
1, 230921, Note_on_c, 0, 54, 54
1, 230933, Control_c, 0, 64, 0
1, 230957, Control_c, 0, 64, 127
1, 231002, Note_on_c, 0, 74, 0
1, 231002, Note_on_c, 0, 72, 70
1, 231086, Note_on_c, 0, 72, 0
1, 231086, Note_on_c, 0, 54, 0
1, 231086, Note_on_c, 0, 74, 71
1, 231089, Note_on_c, 0, 62, 55
1, 231089, Note_on_c, 0, 60, 50
1, 231170, Note_on_c, 0, 74, 0
1, 231170, Note_on_c, 0, 75, 71
1, 231254, Note_on_c, 0, 75, 0
1, 231254, Note_on_c, 0, 60, 0
1, 231254, Note_on_c, 0, 74, 77
1, 231257, Note_on_c, 0, 62, 0
1, 231257, Control_c, 0, 64, 0
1, 231257, Note_on_c, 0, 62, 58
1, 231260, Note_on_c, 0, 59, 53
1, 231260, Note_on_c, 0, 55, 53
1, 231433, Note_on_c, 0, 55, 0
1, 231433, Note_on_c, 0, 59, 0
1, 231433, Note_on_c, 0, 74, 0
1, 231436, Note_on_c, 0, 62, 0
1, 231611, Note_on_c, 0, 55, 102
1, 231611, Note_on_c, 0, 67, 118
1, 232433, Note_on_c, 0, 86, 76
1, 232517, Note_on_c, 0, 86, 0
1, 232602, Note_on_c, 0, 67, 0
1, 232602, Note_on_c, 0, 55, 0
1, 232602, Note_on_c, 0, 84, 87
1, 232605, Note_on_c, 0, 55, 66
1, 232764, Note_on_c, 0, 55, 0
1, 232764, Note_on_c, 0, 84, 0
1, 232764, Note_on_c, 0, 83, 61
1, 232767, Note_on_c, 0, 67, 55
1, 232845, Note_on_c, 0, 67, 0
1, 232845, Note_on_c, 0, 83, 0
1, 232926, Note_on_c, 0, 83, 67
1, 232926, Note_on_c, 0, 65, 55
1, 232926, Note_on_c, 0, 62, 50
1, 233008, Note_on_c, 0, 62, 0
1, 233008, Note_on_c, 0, 65, 0
1, 233008, Note_on_c, 0, 83, 0
1, 233090, Note_on_c, 0, 83, 61
1, 233090, Note_on_c, 0, 67, 56
1, 233173, Note_on_c, 0, 67, 0
1, 233173, Note_on_c, 0, 83, 0
1, 233257, Note_on_c, 0, 83, 79
1, 233257, Note_on_c, 0, 55, 68
1, 233336, Note_on_c, 0, 83, 0
1, 233336, Note_on_c, 0, 84, 73
1, 233422, Note_on_c, 0, 84, 0
1, 233422, Note_on_c, 0, 55, 0
1, 233422, Note_on_c, 0, 91, 83
1, 233425, Note_on_c, 0, 67, 55
1, 233583, Note_on_c, 0, 67, 0
1, 233583, Note_on_c, 0, 91, 0
1, 233583, Note_on_c, 0, 89, 74
1, 233586, Note_on_c, 0, 60, 53
1, 233586, Note_on_c, 0, 63, 59
1, 233664, Note_on_c, 0, 89, 0
1, 233664, Note_on_c, 0, 87, 69
1, 233746, Note_on_c, 0, 87, 0
1, 233746, Note_on_c, 0, 63, 0
1, 233746, Note_on_c, 0, 86, 69
1, 233749, Note_on_c, 0, 60, 0
1, 233749, Note_on_c, 0, 67, 56
1, 233830, Note_on_c, 0, 86, 0
1, 233830, Note_on_c, 0, 84, 69
1, 233914, Note_on_c, 0, 84, 0
1, 233914, Note_on_c, 0, 67, 0
1, 233914, Note_on_c, 0, 84, 87
1, 233917, Note_on_c, 0, 55, 66
1, 234075, Note_on_c, 0, 55, 0
1, 234075, Note_on_c, 0, 84, 0
1, 234075, Note_on_c, 0, 83, 61
1, 234078, Note_on_c, 0, 67, 55
1, 234156, Note_on_c, 0, 67, 0
1, 234156, Note_on_c, 0, 83, 0
1, 234237, Note_on_c, 0, 83, 68
1, 234237, Note_on_c, 0, 65, 55
1, 234237, Note_on_c, 0, 62, 50
1, 234319, Note_on_c, 0, 62, 0
1, 234319, Note_on_c, 0, 65, 0
1, 234319, Note_on_c, 0, 83, 0
1, 234401, Note_on_c, 0, 83, 61
1, 234401, Note_on_c, 0, 67, 53
1, 234485, Note_on_c, 0, 67, 0
1, 234485, Note_on_c, 0, 83, 0
1, 234569, Note_on_c, 0, 83, 81
1, 234569, Note_on_c, 0, 55, 68
1, 234733, Note_on_c, 0, 55, 0
1, 234733, Note_on_c, 0, 83, 0
1, 234733, Note_on_c, 0, 84, 71
1, 234736, Note_on_c, 0, 67, 56
1, 234815, Note_on_c, 0, 67, 0
1, 234815, Note_on_c, 0, 84, 0
1, 234897, Note_on_c, 0, 54, 53
1, 234897, Note_on_c, 0, 60, 53
1, 234897, Note_on_c, 0, 63, 59
1, 234980, Note_on_c, 0, 63, 0
1, 234980, Note_on_c, 0, 60, 0
1, 234980, Note_on_c, 0, 54, 0
1, 235062, Note_on_c, 0, 87, 78
1, 235062, Note_on_c, 0, 66, 59
1, 235229, Note_on_c, 0, 66, 0
1, 235229, Note_on_c, 0, 87, 0
1, 235229, Note_on_c, 0, 84, 87
1, 235232, Note_on_c, 0, 53, 66
1, 235390, Note_on_c, 0, 53, 0
1, 235390, Note_on_c, 0, 84, 0
1, 235390, Note_on_c, 0, 82, 76
1, 235393, Note_on_c, 0, 65, 59
1, 235471, Note_on_c, 0, 65, 0
1, 235471, Note_on_c, 0, 82, 0
1, 235552, Note_on_c, 0, 82, 78
1, 235552, Note_on_c, 0, 62, 59
1, 235634, Note_on_c, 0, 62, 0
1, 235634, Note_on_c, 0, 82, 0
1, 235716, Note_on_c, 0, 82, 78
1, 235716, Note_on_c, 0, 65, 60
1, 235798, Note_on_c, 0, 65, 0
1, 235798, Note_on_c, 0, 82, 0
1, 235880, Note_on_c, 0, 84, 87
1, 235880, Note_on_c, 0, 55, 66
1, 236042, Note_on_c, 0, 55, 0
1, 236042, Note_on_c, 0, 84, 0
1, 236042, Note_on_c, 0, 82, 77
1, 236045, Note_on_c, 0, 64, 60
1, 236123, Note_on_c, 0, 64, 0
1, 236123, Note_on_c, 0, 82, 0
1, 236204, Note_on_c, 0, 82, 79
1, 236204, Note_on_c, 0, 60, 60
1, 236286, Note_on_c, 0, 60, 0
1, 236286, Note_on_c, 0, 82, 0
1, 236368, Note_on_c, 0, 82, 79
1, 236368, Note_on_c, 0, 64, 60
1, 236450, Note_on_c, 0, 64, 0
1, 236450, Note_on_c, 0, 82, 0
1, 236532, Note_on_c, 0, 79, 87
1, 236532, Note_on_c, 0, 62, 66
1, 236532, Note_on_c, 0, 53, 59
1, 236560, Control_c, 0, 64, 127
1, 236613, Note_on_c, 0, 79, 0
1, 236613, Note_on_c, 0, 77, 76
1, 236693, Note_on_c, 0, 77, 0
1, 236693, Note_on_c, 0, 53, 0
1, 236693, Note_on_c, 0, 76, 77
1, 236696, Note_on_c, 0, 62, 0
1, 236696, Note_on_c, 0, 65, 57
1, 236774, Note_on_c, 0, 76, 0
1, 236774, Note_on_c, 0, 77, 77
1, 236854, Note_on_c, 0, 77, 0
1, 236854, Note_on_c, 0, 65, 0
1, 236854, Note_on_c, 0, 75, 82
1, 236857, Note_on_c, 0, 57, 59
1, 236857, Note_on_c, 0, 53, 53
1, 236879, Control_c, 0, 64, 0
1, 236937, Note_on_c, 0, 53, 0
1, 236937, Note_on_c, 0, 57, 0
1, 236937, Note_on_c, 0, 75, 0
1, 237021, Note_on_c, 0, 72, 78
1, 237021, Note_on_c, 0, 63, 58
1, 237106, Note_on_c, 0, 63, 0
1, 237106, Note_on_c, 0, 72, 0
1, 237191, Note_on_c, 0, 70, 82
1, 237191, Note_on_c, 0, 62, 66
1, 237191, Note_on_c, 0, 58, 66
1, 237274, Note_on_c, 0, 70, 0
1, 237357, Note_on_c, 0, 58, 0
1, 237357, Note_on_c, 0, 62, 0
1, 237357, Note_on_c, 0, 74, 79
1, 237360, Note_on_c, 0, 65, 62
1, 237437, Note_on_c, 0, 74, 0
1, 237518, Note_on_c, 0, 65, 0
1, 237518, Note_on_c, 0, 77, 79
1, 237518, Note_on_c, 0, 62, 62
1, 237600, Note_on_c, 0, 77, 0
1, 237682, Note_on_c, 0, 62, 0
1, 237682, Note_on_c, 0, 82, 79
1, 237682, Note_on_c, 0, 58, 62
1, 237766, Note_on_c, 0, 82, 0
1, 237850, Note_on_c, 0, 58, 0
1, 237850, Note_on_c, 0, 86, 84
1, 237850, Note_on_c, 0, 55, 67
1, 238019, Note_on_c, 0, 55, 0
1, 238019, Note_on_c, 0, 86, 0
1, 238019, Note_on_c, 0, 84, 82
1, 238022, Note_on_c, 0, 64, 61
1, 238102, Note_on_c, 0, 64, 0
1, 238102, Note_on_c, 0, 84, 0
1, 238185, Note_on_c, 0, 84, 85
1, 238185, Note_on_c, 0, 58, 63
1, 238268, Note_on_c, 0, 84, 0
1, 238351, Note_on_c, 0, 58, 0
1, 238351, Note_on_c, 0, 84, 82
1, 238351, Note_on_c, 0, 64, 66
1, 238434, Note_on_c, 0, 84, 0
1, 238517, Note_on_c, 0, 64, 0
1, 238517, Note_on_c, 0, 79, 87
1, 238517, Note_on_c, 0, 53, 59
1, 238545, Control_c, 0, 64, 127
1, 238598, Note_on_c, 0, 79, 0
1, 238598, Note_on_c, 0, 77, 76
1, 238678, Note_on_c, 0, 77, 0
1, 238678, Note_on_c, 0, 53, 0
1, 238678, Note_on_c, 0, 76, 77
1, 238681, Note_on_c, 0, 65, 57
1, 238759, Note_on_c, 0, 76, 0
1, 238759, Note_on_c, 0, 77, 77
1, 238839, Note_on_c, 0, 77, 0
1, 238839, Note_on_c, 0, 65, 0
1, 238839, Note_on_c, 0, 72, 82
1, 238842, Note_on_c, 0, 57, 59
1, 238864, Control_c, 0, 64, 0
1, 238922, Note_on_c, 0, 57, 0
1, 238922, Note_on_c, 0, 72, 0
1, 239006, Note_on_c, 0, 69, 78
1, 239006, Note_on_c, 0, 65, 58
1, 239090, Note_on_c, 0, 65, 0
1, 239090, Note_on_c, 0, 69, 0
1, 239175, Note_on_c, 0, 86, 89
1, 239175, Note_on_c, 0, 55, 67
1, 239339, Note_on_c, 0, 55, 0
1, 239339, Note_on_c, 0, 86, 0
1, 239339, Note_on_c, 0, 84, 82
1, 239342, Note_on_c, 0, 64, 59
1, 239422, Note_on_c, 0, 64, 0
1, 239422, Note_on_c, 0, 84, 0
1, 239506, Note_on_c, 0, 84, 85
1, 239506, Note_on_c, 0, 58, 59
1, 239590, Note_on_c, 0, 84, 0
1, 239674, Note_on_c, 0, 58, 0
1, 239674, Note_on_c, 0, 84, 82
1, 239674, Note_on_c, 0, 64, 60
1, 239757, Note_on_c, 0, 84, 0
1, 239841, Note_on_c, 0, 64, 0
1, 239841, Note_on_c, 0, 79, 87
1, 239841, Note_on_c, 0, 53, 53
1, 239844, Note_on_c, 0, 57, 53
1, 239844, Note_on_c, 0, 65, 59
1, 239869, Control_c, 0, 64, 127
1, 239922, Note_on_c, 0, 79, 0
1, 239922, Note_on_c, 0, 77, 76
1, 240002, Note_on_c, 0, 77, 0
1, 240002, Note_on_c, 0, 76, 77
1, 240083, Note_on_c, 0, 76, 0
1, 240083, Note_on_c, 0, 77, 77
1, 240163, Note_on_c, 0, 77, 0
1, 240163, Note_on_c, 0, 65, 0
1, 240163, Note_on_c, 0, 72, 82
1, 240166, Note_on_c, 0, 57, 0
1, 240166, Note_on_c, 0, 53, 0
1, 240188, Control_c, 0, 64, 0
1, 240247, Note_on_c, 0, 72, 0
1, 240330, Note_on_c, 0, 69, 78
1, 240415, Note_on_c, 0, 69, 0
1, 240500, Note_on_c, 0, 65, 70
1, 240587, Note_on_c, 0, 65, 0
1, 240673, Note_on_c, 0, 60, 63
1, 240760, Note_on_c, 0, 60, 0
1, 240846, Note_on_c, 0, 57, 67
1, 240934, Note_on_c, 0, 57, 0
1, 241023, Note_on_c, 0, 55, 71
1, 241111, Note_on_c, 0, 55, 0
1, 241200, Note_on_c, 0, 53, 74
1, 241291, Note_on_c, 0, 53, 0
1, 241381, Note_on_c, 0, 69, 76
1, 241381, Note_on_c, 0, 72, 76
1, 241381, Note_on_c, 0, 77, 76
1, 241384, Note_on_c, 0, 51, 70
1, 241474, Note_on_c, 0, 77, 0
1, 241474, Note_on_c, 0, 69, 0
1, 241474, Note_on_c, 0, 72, 0
1, 241477, Note_on_c, 0, 51, 0
1, 241569, Note_on_c, 0, 69, 76
1, 241569, Note_on_c, 0, 74, 76
1, 241569, Note_on_c, 0, 77, 76
1, 241572, Note_on_c, 0, 50, 67
1, 241664, Note_on_c, 0, 77, 0
1, 241664, Note_on_c, 0, 69, 0
1, 241664, Note_on_c, 0, 74, 0
1, 241667, Note_on_c, 0, 50, 0
1, 241760, Note_on_c, 0, 69, 76
1, 241760, Note_on_c, 0, 75, 76
1, 241760, Note_on_c, 0, 77, 76
1, 241763, Note_on_c, 0, 48, 63
1, 241857, Note_on_c, 0, 77, 0
1, 241857, Note_on_c, 0, 69, 0
1, 241857, Note_on_c, 0, 75, 0
1, 241860, Note_on_c, 0, 48, 0
1, 241956, Note_on_c, 0, 77, 76
1, 241956, Control_c, 0, 64, 127
1, 242055, Note_on_c, 0, 74, 58
1, 242151, Note_on_c, 0, 74, 0
1, 242151, Note_on_c, 0, 70, 57
1, 242151, Note_on_c, 0, 34, 57
1, 242244, Note_on_c, 0, 34, 0
1, 242244, Note_on_c, 0, 70, 0
1, 242244, Note_on_c, 0, 74, 57
1, 242335, Note_on_c, 0, 74, 0
1, 242335, Note_on_c, 0, 77, 0
1, 242335, Note_on_c, 0, 82, 77
1, 242424, Note_on_c, 0, 74, 63
1, 242510, Note_on_c, 0, 74, 0
1, 242510, Note_on_c, 0, 70, 63
1, 242510, Note_on_c, 0, 46, 57
1, 242597, Note_on_c, 0, 46, 0
1, 242597, Note_on_c, 0, 70, 0
1, 242597, Note_on_c, 0, 74, 63
1, 242684, Note_on_c, 0, 74, 0
1, 242684, Note_on_c, 0, 82, 0
1, 242684, Note_on_c, 0, 77, 76
1, 242687, Note_on_c, 0, 81, 76
1, 242687, Control_c, 0, 64, 0
1, 242717, Control_c, 0, 64, 127
1, 242771, Note_on_c, 0, 77, 0
1, 242771, Note_on_c, 0, 74, 62
1, 242858, Note_on_c, 0, 74, 0
1, 242858, Note_on_c, 0, 69, 62
1, 242858, Note_on_c, 0, 50, 57
1, 242944, Note_on_c, 0, 50, 0
1, 242944, Note_on_c, 0, 69, 0
1, 242944, Note_on_c, 0, 74, 62
1, 243030, Note_on_c, 0, 74, 0
1, 243030, Note_on_c, 0, 81, 0
1, 243030, Note_on_c, 0, 75, 75
1, 243033, Note_on_c, 0, 79, 75
1, 243050, Control_c, 0, 64, 0
1, 243087, Control_c, 0, 64, 127
1, 243115, Note_on_c, 0, 75, 0
1, 243115, Note_on_c, 0, 70, 58
1, 243201, Note_on_c, 0, 70, 0
1, 243201, Note_on_c, 0, 67, 58
1, 243201, Note_on_c, 0, 51, 57
1, 243288, Note_on_c, 0, 51, 0
1, 243288, Note_on_c, 0, 67, 0
1, 243288, Note_on_c, 0, 70, 58
1, 243374, Note_on_c, 0, 70, 0
1, 243374, Note_on_c, 0, 79, 0
1, 243374, Note_on_c, 0, 74, 75
1, 243377, Note_on_c, 0, 79, 75
1, 243377, Control_c, 0, 64, 0
1, 243420, Control_c, 0, 64, 127
1, 243460, Note_on_c, 0, 74, 0
1, 243460, Note_on_c, 0, 70, 59
1, 243547, Note_on_c, 0, 70, 0
1, 243547, Note_on_c, 0, 67, 59
1, 243547, Note_on_c, 0, 55, 57
1, 243632, Note_on_c, 0, 67, 0
1, 243632, Note_on_c, 0, 70, 59
1, 243718, Note_on_c, 0, 70, 0
1, 243718, Note_on_c, 0, 79, 0
1, 243718, Note_on_c, 0, 74, 73
1, 243721, Note_on_c, 0, 55, 0
1, 243721, Note_on_c, 0, 77, 73
1, 243721, Control_c, 0, 64, 0
1, 243753, Control_c, 0, 64, 127
1, 243803, Note_on_c, 0, 74, 0
1, 243803, Note_on_c, 0, 70, 59
1, 243888, Note_on_c, 0, 70, 0
1, 243888, Note_on_c, 0, 65, 59
1, 243888, Note_on_c, 0, 58, 57
1, 243973, Note_on_c, 0, 65, 0
1, 243973, Note_on_c, 0, 70, 59
1, 244059, Note_on_c, 0, 70, 0
1, 244059, Note_on_c, 0, 77, 0
1, 244059, Note_on_c, 0, 74, 74
1, 244062, Note_on_c, 0, 58, 0
1, 244062, Note_on_c, 0, 77, 74
1, 244062, Control_c, 0, 64, 0
1, 244108, Control_c, 0, 64, 127
1, 244144, Note_on_c, 0, 74, 0
1, 244144, Note_on_c, 0, 69, 60
1, 244229, Note_on_c, 0, 69, 0
1, 244229, Note_on_c, 0, 65, 60
1, 244229, Note_on_c, 0, 62, 57
1, 244314, Note_on_c, 0, 65, 0
1, 244314, Note_on_c, 0, 69, 60
1, 244398, Note_on_c, 0, 69, 0
1, 244398, Note_on_c, 0, 77, 0
1, 244398, Note_on_c, 0, 72, 73
1, 244401, Note_on_c, 0, 62, 0
1, 244401, Note_on_c, 0, 75, 73
1, 244419, Control_c, 0, 64, 0
1, 244456, Control_c, 0, 64, 127
1, 244485, Note_on_c, 0, 72, 0
1, 244485, Note_on_c, 0, 69, 58
1, 244571, Note_on_c, 0, 69, 0
1, 244571, Note_on_c, 0, 63, 58
1, 244571, Note_on_c, 0, 41, 57
1, 244658, Note_on_c, 0, 63, 0
1, 244658, Note_on_c, 0, 69, 58
1, 244743, Note_on_c, 0, 69, 0
1, 244743, Note_on_c, 0, 75, 0
1, 244743, Note_on_c, 0, 70, 74
1, 244746, Note_on_c, 0, 41, 0
1, 244746, Note_on_c, 0, 75, 74
1, 244746, Control_c, 0, 64, 0
1, 244783, Control_c, 0, 64, 127
1, 244828, Note_on_c, 0, 70, 0
1, 244828, Note_on_c, 0, 67, 59
1, 244912, Note_on_c, 0, 67, 0
1, 244912, Note_on_c, 0, 63, 59
1, 244912, Note_on_c, 0, 43, 57
1, 244998, Note_on_c, 0, 63, 0
1, 244998, Note_on_c, 0, 67, 59
1, 245083, Note_on_c, 0, 67, 0
1, 245083, Note_on_c, 0, 75, 0
1, 245083, Note_on_c, 0, 70, 73
1, 245086, Note_on_c, 0, 43, 0
1, 245086, Note_on_c, 0, 74, 73
1, 245103, Control_c, 0, 64, 0
1, 245128, Control_c, 0, 64, 127
1, 245168, Note_on_c, 0, 70, 0
1, 245168, Note_on_c, 0, 67, 59
1, 245254, Note_on_c, 0, 67, 0
1, 245254, Note_on_c, 0, 62, 59
1, 245254, Note_on_c, 0, 46, 57
1, 245340, Note_on_c, 0, 62, 0
1, 245340, Note_on_c, 0, 67, 59
1, 245426, Note_on_c, 0, 67, 0
1, 245426, Note_on_c, 0, 74, 0
1, 245426, Note_on_c, 0, 69, 72
1, 245429, Note_on_c, 0, 46, 0
1, 245429, Note_on_c, 0, 74, 72
1, 245429, Control_c, 0, 64, 0
1, 245455, Control_c, 0, 64, 127
1, 245513, Note_on_c, 0, 69, 0
1, 245513, Note_on_c, 0, 66, 60
1, 245600, Note_on_c, 0, 66, 0
1, 245600, Note_on_c, 0, 62, 60
1, 245600, Note_on_c, 0, 50, 57
1, 245687, Note_on_c, 0, 62, 0
1, 245687, Note_on_c, 0, 66, 60
1, 245773, Note_on_c, 0, 66, 0
1, 245773, Note_on_c, 0, 74, 0
1, 245773, Note_on_c, 0, 72, 71
1, 245776, Note_on_c, 0, 50, 0
1, 245814, Control_c, 0, 64, 0
1, 245851, Control_c, 0, 64, 127
1, 245859, Note_on_c, 0, 69, 59
1, 245945, Note_on_c, 0, 69, 0
1, 245945, Note_on_c, 0, 62, 59
1, 245945, Note_on_c, 0, 54, 57
1, 246031, Note_on_c, 0, 62, 0
1, 246031, Note_on_c, 0, 69, 59
1, 246118, Note_on_c, 0, 69, 0
1, 246118, Note_on_c, 0, 72, 0
1, 246118, Note_on_c, 0, 72, 72
1, 246121, Note_on_c, 0, 54, 0
1, 246121, Control_c, 0, 64, 0
1, 246163, Control_c, 0, 64, 127
1, 246204, Note_on_c, 0, 67, 62
1, 246290, Note_on_c, 0, 67, 0
1, 246290, Note_on_c, 0, 62, 66
1, 246290, Note_on_c, 0, 55, 57
1, 246375, Note_on_c, 0, 55, 0
1, 246375, Note_on_c, 0, 62, 0
1, 246375, Note_on_c, 0, 67, 69
1, 246461, Note_on_c, 0, 67, 0
1, 246461, Note_on_c, 0, 72, 0
1, 246461, Note_on_c, 0, 70, 76
1, 246464, Note_on_c, 0, 57, 57
1, 246517, Control_c, 0, 64, 0
1, 246546, Note_on_c, 0, 57, 0
1, 246546, Note_on_c, 0, 67, 63
1, 246550, Control_c, 0, 64, 127
1, 246631, Note_on_c, 0, 67, 0
1, 246631, Note_on_c, 0, 62, 63
1, 246631, Note_on_c, 0, 58, 57
1, 246716, Note_on_c, 0, 58, 0
1, 246716, Note_on_c, 0, 62, 0
1, 246716, Note_on_c, 0, 67, 63
1, 246801, Note_on_c, 0, 67, 0
1, 246801, Note_on_c, 0, 70, 0
1, 246801, Note_on_c, 0, 69, 73
1, 246804, Control_c, 0, 64, 0
1, 246804, Note_on_c, 0, 60, 57
1, 246849, Control_c, 0, 64, 127
1, 246885, Note_on_c, 0, 65, 59
1, 246970, Note_on_c, 0, 65, 0
1, 246970, Note_on_c, 0, 60, 0
1, 246970, Note_on_c, 0, 60, 59
1, 247055, Note_on_c, 0, 60, 0
1, 247055, Note_on_c, 0, 65, 59
1, 247140, Note_on_c, 0, 65, 0
1, 247140, Note_on_c, 0, 69, 0
1, 247140, Note_on_c, 0, 67, 71
1, 247143, Note_on_c, 0, 48, 57
1, 247168, Control_c, 0, 64, 0
1, 247204, Control_c, 0, 64, 127
1, 247225, Note_on_c, 0, 64, 57
1, 247310, Note_on_c, 0, 64, 0
1, 247310, Note_on_c, 0, 48, 0
1, 247310, Note_on_c, 0, 58, 57
1, 247394, Note_on_c, 0, 58, 0
1, 247394, Note_on_c, 0, 64, 57
1, 247479, Note_on_c, 0, 64, 0
1, 247479, Note_on_c, 0, 67, 0
1, 247479, Control_c, 0, 64, 0
1, 247482, Note_on_c, 0, 57, 57
1, 247482, Note_on_c, 0, 41, 57
1, 247482, Note_on_c, 0, 53, 57
1, 247485, Note_on_c, 0, 65, 70
1, 247565, Note_on_c, 0, 65, 0
1, 247565, Note_on_c, 0, 57, 0
1, 247565, Note_on_c, 0, 41, 0
1, 247568, Note_on_c, 0, 53, 0
1, 247651, Note_on_c, 0, 60, 63
1, 247737, Note_on_c, 0, 60, 0
1, 247824, Note_on_c, 0, 57, 67
1, 247911, Note_on_c, 0, 57, 0
1, 247997, Note_on_c, 0, 55, 71
1, 248085, Note_on_c, 0, 55, 0
1, 248173, Note_on_c, 0, 53, 74
1, 248258, Note_on_c, 0, 53, 0
1, 248344, Note_on_c, 0, 69, 76
1, 248344, Note_on_c, 0, 72, 76
1, 248344, Note_on_c, 0, 77, 76
1, 248347, Note_on_c, 0, 51, 70
1, 248434, Note_on_c, 0, 77, 0
1, 248434, Note_on_c, 0, 69, 0
1, 248434, Note_on_c, 0, 72, 0
1, 248437, Note_on_c, 0, 51, 0
1, 248526, Note_on_c, 0, 69, 76
1, 248526, Note_on_c, 0, 74, 76
1, 248526, Note_on_c, 0, 77, 76
1, 248529, Note_on_c, 0, 50, 67
1, 248619, Note_on_c, 0, 77, 0
1, 248619, Note_on_c, 0, 69, 0
1, 248619, Note_on_c, 0, 74, 0
1, 248622, Note_on_c, 0, 50, 0
1, 248713, Note_on_c, 0, 69, 76
1, 248713, Note_on_c, 0, 75, 76
1, 248713, Note_on_c, 0, 77, 76
1, 248716, Note_on_c, 0, 48, 63
1, 248808, Note_on_c, 0, 77, 0
1, 248808, Note_on_c, 0, 69, 0
1, 248808, Note_on_c, 0, 75, 0
1, 248811, Note_on_c, 0, 48, 0
1, 248904, Note_on_c, 0, 77, 76
1, 248904, Control_c, 0, 64, 127
1, 249001, Note_on_c, 0, 74, 61
1, 249095, Note_on_c, 0, 74, 0
1, 249095, Note_on_c, 0, 70, 61
1, 249095, Note_on_c, 0, 34, 57
1, 249186, Note_on_c, 0, 70, 0
1, 249186, Note_on_c, 0, 74, 61
1, 249276, Note_on_c, 0, 74, 0
1, 249276, Note_on_c, 0, 77, 0
1, 249276, Note_on_c, 0, 82, 77
1, 249279, Note_on_c, 0, 34, 0
1, 249363, Note_on_c, 0, 74, 64
1, 249450, Note_on_c, 0, 74, 0
1, 249450, Note_on_c, 0, 70, 64
1, 249450, Note_on_c, 0, 46, 57
1, 249537, Note_on_c, 0, 70, 0
1, 249537, Note_on_c, 0, 74, 66
1, 249623, Note_on_c, 0, 74, 0
1, 249623, Note_on_c, 0, 82, 0
1, 249623, Note_on_c, 0, 77, 76
1, 249626, Note_on_c, 0, 46, 0
1, 249626, Note_on_c, 0, 81, 76
1, 249626, Control_c, 0, 64, 0
1, 249657, Control_c, 0, 64, 127
1, 249711, Note_on_c, 0, 77, 0
1, 249711, Note_on_c, 0, 74, 62
1, 249798, Note_on_c, 0, 74, 0
1, 249798, Note_on_c, 0, 69, 62
1, 249798, Note_on_c, 0, 50, 57
1, 249884, Note_on_c, 0, 69, 0
1, 249884, Note_on_c, 0, 74, 62
1, 249969, Note_on_c, 0, 74, 0
1, 249969, Note_on_c, 0, 81, 0
1, 249969, Note_on_c, 0, 75, 75
1, 249972, Note_on_c, 0, 50, 0
1, 249972, Note_on_c, 0, 79, 75
1, 249990, Control_c, 0, 64, 0
1, 250026, Control_c, 0, 64, 127
1, 250055, Note_on_c, 0, 75, 0
1, 250055, Note_on_c, 0, 70, 58
1, 250141, Note_on_c, 0, 70, 0
1, 250141, Note_on_c, 0, 67, 58
1, 250141, Note_on_c, 0, 51, 57
1, 250227, Note_on_c, 0, 67, 0
1, 250227, Note_on_c, 0, 70, 58
1, 250314, Note_on_c, 0, 70, 0
1, 250314, Note_on_c, 0, 79, 0
1, 250314, Note_on_c, 0, 74, 72
1, 250317, Note_on_c, 0, 51, 0
1, 250317, Note_on_c, 0, 79, 72
1, 250317, Control_c, 0, 64, 0
1, 250360, Control_c, 0, 64, 127
1, 250400, Note_on_c, 0, 74, 0
1, 250400, Note_on_c, 0, 70, 61
1, 250486, Note_on_c, 0, 70, 0
1, 250486, Note_on_c, 0, 67, 61
1, 250486, Note_on_c, 0, 55, 57
1, 250572, Note_on_c, 0, 67, 0
1, 250572, Note_on_c, 0, 70, 61
1, 250657, Note_on_c, 0, 70, 0
1, 250657, Note_on_c, 0, 79, 0
1, 250657, Note_on_c, 0, 74, 73
1, 250660, Note_on_c, 0, 55, 0
1, 250660, Note_on_c, 0, 77, 73
1, 250660, Control_c, 0, 64, 0
1, 250692, Control_c, 0, 64, 127
1, 250742, Note_on_c, 0, 74, 0
1, 250742, Note_on_c, 0, 70, 59
1, 250827, Note_on_c, 0, 70, 0
1, 250827, Note_on_c, 0, 65, 59
1, 250827, Note_on_c, 0, 58, 57
1, 250913, Note_on_c, 0, 65, 0
1, 250913, Note_on_c, 0, 70, 59
1, 250999, Note_on_c, 0, 70, 0
1, 250999, Note_on_c, 0, 77, 0
1, 250999, Note_on_c, 0, 74, 73
1, 251002, Note_on_c, 0, 58, 0
1, 251002, Note_on_c, 0, 77, 73
1, 251002, Control_c, 0, 64, 0
1, 251048, Control_c, 0, 64, 127
1, 251084, Note_on_c, 0, 74, 0
1, 251084, Note_on_c, 0, 69, 60
1, 251169, Note_on_c, 0, 69, 0
1, 251169, Note_on_c, 0, 65, 60
1, 251169, Note_on_c, 0, 62, 57
1, 251254, Note_on_c, 0, 65, 0
1, 251254, Note_on_c, 0, 69, 61
1, 251338, Note_on_c, 0, 69, 0
1, 251338, Note_on_c, 0, 77, 0
1, 251338, Note_on_c, 0, 72, 73
1, 251341, Note_on_c, 0, 62, 0
1, 251341, Note_on_c, 0, 75, 73
1, 251359, Control_c, 0, 64, 0
1, 251396, Control_c, 0, 64, 127
1, 251425, Note_on_c, 0, 72, 0
1, 251425, Note_on_c, 0, 69, 59
1, 251513, Note_on_c, 0, 69, 0
1, 251513, Note_on_c, 0, 63, 59
1, 251513, Note_on_c, 0, 41, 57
1, 251601, Note_on_c, 0, 63, 0
1, 251601, Note_on_c, 0, 69, 59
1, 251686, Note_on_c, 0, 69, 0
1, 251686, Note_on_c, 0, 75, 0
1, 251686, Note_on_c, 0, 70, 74
1, 251689, Note_on_c, 0, 41, 0
1, 251689, Note_on_c, 0, 75, 74
1, 251689, Control_c, 0, 64, 0
1, 251726, Control_c, 0, 64, 127
1, 251771, Note_on_c, 0, 70, 0
1, 251771, Note_on_c, 0, 67, 60
1, 251856, Note_on_c, 0, 67, 0
1, 251856, Note_on_c, 0, 63, 60
1, 251856, Note_on_c, 0, 43, 57
1, 251941, Note_on_c, 0, 63, 0
1, 251941, Note_on_c, 0, 67, 60
1, 252026, Note_on_c, 0, 67, 0
1, 252026, Note_on_c, 0, 75, 0
1, 252026, Note_on_c, 0, 70, 73
1, 252029, Note_on_c, 0, 43, 0
1, 252029, Note_on_c, 0, 74, 73
1, 252046, Control_c, 0, 64, 0
1, 252076, Control_c, 0, 64, 127
1, 252111, Note_on_c, 0, 70, 0
1, 252111, Note_on_c, 0, 67, 60
1, 252197, Note_on_c, 0, 67, 0
1, 252197, Note_on_c, 0, 62, 60
1, 252197, Note_on_c, 0, 46, 57
1, 252283, Note_on_c, 0, 62, 0
1, 252283, Note_on_c, 0, 67, 60
1, 252370, Note_on_c, 0, 67, 0
1, 252370, Note_on_c, 0, 74, 0
1, 252370, Note_on_c, 0, 69, 72
1, 252373, Note_on_c, 0, 46, 0
1, 252373, Note_on_c, 0, 74, 72
1, 252373, Control_c, 0, 64, 0
1, 252399, Control_c, 0, 64, 127
1, 252456, Note_on_c, 0, 69, 0
1, 252456, Note_on_c, 0, 66, 60
1, 252543, Note_on_c, 0, 66, 0
1, 252543, Note_on_c, 0, 62, 60
1, 252543, Note_on_c, 0, 50, 57
1, 252630, Note_on_c, 0, 62, 0
1, 252630, Note_on_c, 0, 66, 60
1, 252716, Note_on_c, 0, 66, 0
1, 252716, Note_on_c, 0, 74, 0
1, 252716, Note_on_c, 0, 72, 71
1, 252719, Note_on_c, 0, 50, 0
1, 252757, Control_c, 0, 64, 0
1, 252794, Control_c, 0, 64, 127
1, 252802, Note_on_c, 0, 69, 61
1, 252888, Note_on_c, 0, 69, 0
1, 252888, Note_on_c, 0, 62, 61
1, 252888, Note_on_c, 0, 54, 57
1, 252977, Note_on_c, 0, 62, 0
1, 252977, Note_on_c, 0, 69, 61
1, 253066, Note_on_c, 0, 69, 0
1, 253066, Note_on_c, 0, 72, 0
1, 253066, Note_on_c, 0, 72, 72
1, 253069, Note_on_c, 0, 54, 0
1, 253069, Control_c, 0, 64, 0
1, 253111, Control_c, 0, 64, 127
1, 253151, Note_on_c, 0, 69, 62
1, 253237, Note_on_c, 0, 69, 0
1, 253237, Note_on_c, 0, 62, 66
1, 253237, Note_on_c, 0, 55, 57
1, 253323, Note_on_c, 0, 55, 0
1, 253323, Note_on_c, 0, 62, 0
1, 253323, Note_on_c, 0, 69, 69
1, 253408, Note_on_c, 0, 69, 0
1, 253408, Note_on_c, 0, 72, 0
1, 253408, Note_on_c, 0, 71, 76
1, 253411, Note_on_c, 0, 57, 57
1, 253465, Control_c, 0, 64, 0
1, 253493, Note_on_c, 0, 57, 0
1, 253493, Note_on_c, 0, 67, 67
1, 253498, Control_c, 0, 64, 127
1, 253579, Note_on_c, 0, 67, 0
1, 253579, Note_on_c, 0, 62, 68
1, 253579, Note_on_c, 0, 59, 57
1, 253663, Note_on_c, 0, 59, 0
1, 253663, Note_on_c, 0, 62, 0
1, 253663, Note_on_c, 0, 67, 68
1, 253748, Note_on_c, 0, 67, 0
1, 253748, Note_on_c, 0, 71, 0
1, 253748, Note_on_c, 0, 69, 73
1, 253751, Control_c, 0, 64, 0
1, 253751, Note_on_c, 0, 48, 57
1, 253797, Control_c, 0, 64, 127
1, 253833, Note_on_c, 0, 67, 64
1, 253917, Note_on_c, 0, 67, 0
1, 253917, Note_on_c, 0, 48, 0
1, 253917, Note_on_c, 0, 64, 62
1, 254002, Note_on_c, 0, 64, 0
1, 254002, Note_on_c, 0, 67, 60
1, 254088, Note_on_c, 0, 67, 0
1, 254088, Note_on_c, 0, 69, 0
1, 254088, Note_on_c, 0, 71, 69
1, 254091, Note_on_c, 0, 50, 57
1, 254091, Control_c, 0, 64, 0
1, 254124, Control_c, 0, 64, 127
1, 254174, Note_on_c, 0, 66, 57
1, 254261, Note_on_c, 0, 66, 0
1, 254261, Note_on_c, 0, 50, 0
1, 254261, Note_on_c, 0, 62, 57
1, 254349, Note_on_c, 0, 62, 0
1, 254349, Note_on_c, 0, 66, 57
1, 254439, Note_on_c, 0, 66, 0
1, 254439, Note_on_c, 0, 71, 0
1, 254439, Note_on_c, 0, 67, 67
1, 254442, Control_c, 0, 64, 0
1, 254479, Control_c, 0, 64, 127
1, 254534, Note_on_c, 0, 62, 59
1, 254622, Note_on_c, 0, 62, 0
1, 254622, Note_on_c, 0, 59, 59
1, 254622, Note_on_c, 0, 55, 57
1, 254709, Note_on_c, 0, 59, 0
1, 254709, Note_on_c, 0, 62, 59
1, 254796, Note_on_c, 0, 62, 0
1, 254796, Note_on_c, 0, 67, 0
1, 254796, Note_on_c, 0, 69, 73
1, 254799, Note_on_c, 0, 55, 0
1, 254817, Control_c, 0, 64, 0
1, 254858, Control_c, 0, 64, 127
1, 254883, Note_on_c, 0, 64, 59
1, 254969, Note_on_c, 0, 64, 0
1, 254969, Note_on_c, 0, 60, 59
1, 254969, Note_on_c, 0, 48, 57
1, 255055, Note_on_c, 0, 60, 0
1, 255055, Note_on_c, 0, 64, 59
1, 255141, Note_on_c, 0, 64, 0
1, 255141, Note_on_c, 0, 69, 0
1, 255141, Note_on_c, 0, 71, 73
1, 255144, Note_on_c, 0, 48, 0
1, 255144, Control_c, 0, 64, 0
1, 255180, Control_c, 0, 64, 127
1, 255225, Note_on_c, 0, 65, 59
1, 255309, Note_on_c, 0, 65, 0
1, 255309, Note_on_c, 0, 62, 60
1, 255309, Note_on_c, 0, 43, 57
1, 255394, Note_on_c, 0, 62, 0
1, 255394, Note_on_c, 0, 65, 60
1, 255478, Note_on_c, 0, 65, 0
1, 255478, Note_on_c, 0, 71, 0
1, 255478, Note_on_c, 0, 71, 76
1, 255481, Note_on_c, 0, 43, 0
1, 255524, Control_c, 0, 64, 0
1, 255554, Control_c, 0, 64, 127
1, 255564, Note_on_c, 0, 65, 62
1, 255650, Note_on_c, 0, 65, 0
1, 255650, Note_on_c, 0, 62, 62
1, 255650, Note_on_c, 0, 43, 60
1, 255736, Note_on_c, 0, 62, 0
1, 255736, Note_on_c, 0, 65, 63
1, 255821, Note_on_c, 0, 65, 0
1, 255821, Note_on_c, 0, 71, 0
1, 255821, Note_on_c, 0, 71, 80
1, 255824, Note_on_c, 0, 43, 0
1, 255824, Control_c, 0, 64, 0
1, 255849, Control_c, 0, 64, 127
1, 255905, Note_on_c, 0, 65, 63
1, 255989, Note_on_c, 0, 65, 0
1, 255989, Note_on_c, 0, 62, 63
1, 255989, Note_on_c, 0, 36, 60
1, 256073, Note_on_c, 0, 62, 0
1, 256073, Note_on_c, 0, 65, 62
1, 256157, Note_on_c, 0, 65, 0
1, 256157, Note_on_c, 0, 71, 0
1, 256157, Note_on_c, 0, 72, 76
1, 256160, Note_on_c, 0, 36, 0
1, 256197, Control_c, 0, 64, 0
1, 256225, Control_c, 0, 64, 127
1, 256241, Note_on_c, 0, 67, 61
1, 256326, Note_on_c, 0, 67, 0
1, 256326, Note_on_c, 0, 64, 60
1, 256326, Note_on_c, 0, 36, 58
1, 256410, Note_on_c, 0, 64, 0
1, 256410, Note_on_c, 0, 67, 59
1, 256494, Note_on_c, 0, 67, 0
1, 256494, Note_on_c, 0, 72, 0
1, 256494, Note_on_c, 0, 71, 73
1, 256497, Note_on_c, 0, 36, 0
1, 256497, Control_c, 0, 64, 0
1, 256543, Control_c, 0, 64, 127
1, 256579, Note_on_c, 0, 67, 59
1, 256663, Note_on_c, 0, 67, 0
1, 256663, Note_on_c, 0, 62, 59
1, 256663, Note_on_c, 0, 38, 57
1, 256748, Note_on_c, 0, 62, 0
1, 256748, Note_on_c, 0, 67, 59
1, 256832, Note_on_c, 0, 67, 0
1, 256832, Note_on_c, 0, 71, 0
1, 256832, Note_on_c, 0, 69, 73
1, 256835, Note_on_c, 0, 38, 0
1, 256877, Control_c, 0, 64, 0
1, 256909, Control_c, 0, 64, 127
1, 256917, Note_on_c, 0, 66, 59
1, 257002, Note_on_c, 0, 66, 0
1, 257002, Note_on_c, 0, 62, 59
1, 257002, Note_on_c, 0, 38, 57
1, 257087, Note_on_c, 0, 62, 0
1, 257087, Note_on_c, 0, 66, 59
1, 257173, Note_on_c, 0, 66, 0
1, 257173, Note_on_c, 0, 69, 0
1, 257173, Note_on_c, 0, 71, 71
1, 257176, Note_on_c, 0, 38, 0
1, 257176, Control_c, 0, 64, 0
1, 257195, Control_c, 0, 64, 0
1, 257214, Control_c, 0, 64, 127
1, 257267, Note_on_c, 0, 67, 59
1, 257353, Note_on_c, 0, 67, 0
1, 257353, Note_on_c, 0, 65, 59
1, 257353, Note_on_c, 0, 43, 57
1, 257440, Note_on_c, 0, 65, 0
1, 257440, Note_on_c, 0, 67, 59
1, 257526, Note_on_c, 0, 67, 0
1, 257526, Note_on_c, 0, 71, 0
1, 257526, Note_on_c, 0, 72, 73
1, 257529, Note_on_c, 0, 43, 0
1, 257546, Control_c, 0, 64, 0
1, 257587, Control_c, 0, 64, 127
1, 257611, Note_on_c, 0, 69, 59
1, 257697, Note_on_c, 0, 69, 0
1, 257697, Note_on_c, 0, 65, 59
1, 257697, Note_on_c, 0, 55, 57
1, 257782, Note_on_c, 0, 65, 0
1, 257782, Note_on_c, 0, 69, 59
1, 257866, Note_on_c, 0, 69, 0
1, 257866, Note_on_c, 0, 72, 0
1, 257866, Note_on_c, 0, 74, 73
1, 257869, Note_on_c, 0, 55, 0
1, 257869, Control_c, 0, 64, 0
1, 257906, Control_c, 0, 64, 127
1, 257951, Note_on_c, 0, 71, 59
1, 258035, Note_on_c, 0, 71, 0
1, 258035, Note_on_c, 0, 65, 60
1, 258035, Note_on_c, 0, 55, 57
1, 258119, Note_on_c, 0, 65, 0
1, 258119, Note_on_c, 0, 71, 60
1, 258203, Note_on_c, 0, 71, 0
1, 258203, Note_on_c, 0, 74, 0
1, 258203, Note_on_c, 0, 74, 76
1, 258206, Note_on_c, 0, 55, 0
1, 258227, Control_c, 0, 64, 0
1, 258248, Control_c, 0, 64, 127
1, 258289, Note_on_c, 0, 71, 62
1, 258375, Note_on_c, 0, 71, 0
1, 258375, Note_on_c, 0, 65, 62
1, 258375, Note_on_c, 0, 55, 60
1, 258461, Note_on_c, 0, 65, 0
1, 258461, Note_on_c, 0, 71, 63
1, 258548, Note_on_c, 0, 71, 0
1, 258548, Note_on_c, 0, 74, 0
1, 258548, Note_on_c, 0, 74, 80
1, 258551, Note_on_c, 0, 55, 0
1, 258551, Control_c, 0, 64, 0
1, 258576, Control_c, 0, 64, 127
1, 258633, Note_on_c, 0, 71, 63
1, 258719, Note_on_c, 0, 71, 0
1, 258719, Note_on_c, 0, 65, 63
1, 258719, Note_on_c, 0, 48, 60
1, 258804, Note_on_c, 0, 65, 0
1, 258804, Note_on_c, 0, 71, 62
1, 258890, Note_on_c, 0, 71, 0
1, 258890, Note_on_c, 0, 74, 0
1, 258890, Note_on_c, 0, 76, 76
1, 258893, Note_on_c, 0, 48, 0
1, 258930, Control_c, 0, 64, 0
1, 258958, Control_c, 0, 64, 127
1, 258975, Note_on_c, 0, 72, 61
1, 259059, Note_on_c, 0, 72, 0
1, 259059, Note_on_c, 0, 64, 60
1, 259059, Note_on_c, 0, 48, 58
1, 259144, Note_on_c, 0, 64, 0
1, 259144, Note_on_c, 0, 72, 59
1, 259229, Note_on_c, 0, 72, 0
1, 259229, Note_on_c, 0, 76, 0
1, 259229, Note_on_c, 0, 74, 73
1, 259232, Note_on_c, 0, 48, 0
1, 259232, Control_c, 0, 64, 0
1, 259278, Control_c, 0, 64, 127
1, 259314, Note_on_c, 0, 71, 59
1, 259399, Note_on_c, 0, 71, 0
1, 259399, Note_on_c, 0, 67, 59
1, 259399, Note_on_c, 0, 50, 57
1, 259484, Note_on_c, 0, 67, 0
1, 259484, Note_on_c, 0, 71, 59
1, 259568, Note_on_c, 0, 71, 0
1, 259568, Note_on_c, 0, 74, 0
1, 259568, Note_on_c, 0, 74, 73
1, 259571, Note_on_c, 0, 50, 0
1, 259589, Control_c, 0, 64, 0
1, 259613, Control_c, 0, 64, 127
1, 259653, Note_on_c, 0, 69, 59
1, 259738, Note_on_c, 0, 69, 0
1, 259738, Note_on_c, 0, 66, 59
1, 259738, Note_on_c, 0, 50, 57
1, 259827, Note_on_c, 0, 66, 0
1, 259827, Note_on_c, 0, 69, 59
1, 259915, Note_on_c, 0, 69, 0
1, 259915, Note_on_c, 0, 74, 0
1, 259915, Note_on_c, 0, 74, 66
1, 259918, Note_on_c, 0, 50, 0
1, 259918, Note_on_c, 0, 55, 53
1, 259918, Control_c, 0, 64, 0
1, 259937, Control_c, 0, 64, 0
1, 259956, Control_c, 0, 64, 127
1, 260010, Note_on_c, 0, 71, 55
1, 260098, Note_on_c, 0, 71, 0
1, 260098, Note_on_c, 0, 67, 55
1, 260187, Note_on_c, 0, 67, 0
1, 260187, Note_on_c, 0, 71, 55
1, 260275, Note_on_c, 0, 71, 0
1, 260275, Note_on_c, 0, 74, 0
1, 260275, Note_on_c, 0, 79, 63
1, 260278, Note_on_c, 0, 59, 53
1, 260296, Control_c, 0, 64, 0
1, 260337, Control_c, 0, 64, 127
1, 260361, Note_on_c, 0, 74, 55
1, 260447, Note_on_c, 0, 74, 0
1, 260447, Note_on_c, 0, 67, 55
1, 260533, Note_on_c, 0, 67, 0
1, 260533, Note_on_c, 0, 74, 55
1, 260619, Note_on_c, 0, 74, 0
1, 260619, Note_on_c, 0, 79, 0
1, 260619, Note_on_c, 0, 78, 68
1, 260622, Note_on_c, 0, 59, 0
1, 260622, Note_on_c, 0, 62, 53
1, 260622, Control_c, 0, 64, 0
1, 260659, Control_c, 0, 64, 127
1, 260705, Note_on_c, 0, 74, 55
1, 260791, Note_on_c, 0, 74, 0
1, 260791, Note_on_c, 0, 69, 56
1, 260876, Note_on_c, 0, 69, 0
1, 260876, Note_on_c, 0, 74, 56
1, 260962, Note_on_c, 0, 74, 0
1, 260962, Note_on_c, 0, 78, 0
1, 260962, Note_on_c, 0, 81, 64
1, 260965, Note_on_c, 0, 62, 0
1, 260965, Note_on_c, 0, 60, 56
1, 260972, Control_c, 0, 64, 0
1, 261002, Control_c, 0, 64, 127
1, 261049, Note_on_c, 0, 74, 58
1, 261136, Note_on_c, 0, 74, 0
1, 261136, Note_on_c, 0, 69, 57
1, 261222, Note_on_c, 0, 69, 0
1, 261222, Note_on_c, 0, 74, 57
1, 261308, Note_on_c, 0, 74, 0
1, 261308, Note_on_c, 0, 81, 0
1, 261308, Note_on_c, 0, 74, 63
1, 261311, Note_on_c, 0, 60, 0
1, 261311, Note_on_c, 0, 59, 56
1, 261311, Control_c, 0, 64, 0
1, 261336, Control_c, 0, 64, 127
1, 261393, Note_on_c, 0, 71, 56
1, 261479, Note_on_c, 0, 71, 0
1, 261479, Note_on_c, 0, 67, 56
1, 261564, Note_on_c, 0, 67, 0
1, 261564, Note_on_c, 0, 71, 56
1, 261650, Note_on_c, 0, 71, 0
1, 261650, Note_on_c, 0, 74, 0
1, 261650, Note_on_c, 0, 76, 63
1, 261653, Note_on_c, 0, 59, 0
1, 261653, Note_on_c, 0, 55, 0
1, 261653, Note_on_c, 0, 48, 54
1, 261656, Note_on_c, 0, 55, 54
1, 261662, Control_c, 0, 64, 0
1, 261691, Control_c, 0, 64, 127
1, 261737, Note_on_c, 0, 72, 55
1, 261824, Note_on_c, 0, 72, 0
1, 261824, Note_on_c, 0, 67, 55
1, 261911, Note_on_c, 0, 67, 0
1, 261911, Note_on_c, 0, 72, 55
1, 261997, Note_on_c, 0, 72, 0
1, 261997, Note_on_c, 0, 76, 0
1, 261997, Note_on_c, 0, 74, 64
1, 262000, Note_on_c, 0, 55, 0
1, 262000, Note_on_c, 0, 48, 0
1, 262000, Note_on_c, 0, 54, 53
1, 262003, Note_on_c, 0, 50, 53
1, 262003, Control_c, 0, 64, 0
1, 262029, Control_c, 0, 64, 127
1, 262082, Note_on_c, 0, 72, 55
1, 262168, Note_on_c, 0, 72, 0
1, 262168, Note_on_c, 0, 69, 55
1, 262254, Note_on_c, 0, 69, 0
1, 262254, Note_on_c, 0, 72, 55
1, 262340, Note_on_c, 0, 72, 0
1, 262340, Note_on_c, 0, 74, 0
1, 262340, Note_on_c, 0, 74, 62
1, 262343, Note_on_c, 0, 54, 0
1, 262343, Note_on_c, 0, 57, 53
1, 262385, Control_c, 0, 64, 0
1, 262418, Control_c, 0, 64, 127
1, 262425, Note_on_c, 0, 72, 55
1, 262511, Note_on_c, 0, 72, 0
1, 262511, Note_on_c, 0, 66, 55
1, 262597, Note_on_c, 0, 66, 0
1, 262597, Note_on_c, 0, 72, 55
1, 262684, Note_on_c, 0, 72, 0
1, 262684, Note_on_c, 0, 74, 0
1, 262684, Note_on_c, 0, 74, 66
1, 262687, Note_on_c, 0, 57, 0
1, 262687, Note_on_c, 0, 50, 0
1, 262687, Note_on_c, 0, 55, 53
1, 262690, Control_c, 0, 64, 0
1, 262705, Control_c, 0, 64, 0
1, 262724, Control_c, 0, 64, 127
1, 262778, Note_on_c, 0, 71, 55
1, 262867, Note_on_c, 0, 71, 0
1, 262867, Note_on_c, 0, 67, 55
1, 262955, Note_on_c, 0, 67, 0
1, 262955, Note_on_c, 0, 71, 55
1, 263042, Note_on_c, 0, 71, 0
1, 263042, Note_on_c, 0, 74, 0
1, 263042, Note_on_c, 0, 79, 63
1, 263045, Note_on_c, 0, 59, 53
1, 263063, Control_c, 0, 64, 0
1, 263103, Control_c, 0, 64, 127
1, 263127, Note_on_c, 0, 74, 55
1, 263213, Note_on_c, 0, 74, 0
1, 263213, Note_on_c, 0, 67, 55
1, 263298, Note_on_c, 0, 67, 0
1, 263298, Note_on_c, 0, 74, 55
1, 263383, Note_on_c, 0, 74, 0
1, 263383, Note_on_c, 0, 79, 0
1, 263383, Note_on_c, 0, 78, 68
1, 263386, Note_on_c, 0, 59, 0
1, 263386, Note_on_c, 0, 62, 53
1, 263386, Control_c, 0, 64, 0
1, 263423, Control_c, 0, 64, 127
1, 263468, Note_on_c, 0, 74, 55
1, 263553, Note_on_c, 0, 74, 0
1, 263553, Note_on_c, 0, 62, 0
1, 263553, Note_on_c, 0, 69, 56
1, 263556, Note_on_c, 0, 63, 50
1, 263638, Note_on_c, 0, 69, 0
1, 263638, Note_on_c, 0, 74, 56
1, 263723, Note_on_c, 0, 74, 0
1, 263723, Note_on_c, 0, 78, 0
1, 263723, Note_on_c, 0, 81, 64
1, 263726, Note_on_c, 0, 63, 0
1, 263726, Note_on_c, 0, 62, 53
1, 263733, Control_c, 0, 64, 0
1, 263763, Control_c, 0, 64, 127
1, 263808, Note_on_c, 0, 74, 58
1, 263894, Note_on_c, 0, 74, 0
1, 263894, Note_on_c, 0, 62, 0
1, 263894, Note_on_c, 0, 69, 57
1, 263897, Note_on_c, 0, 60, 51
1, 263980, Note_on_c, 0, 69, 0
1, 263980, Note_on_c, 0, 74, 57
1, 264065, Note_on_c, 0, 74, 0
1, 264065, Note_on_c, 0, 81, 0
1, 264065, Note_on_c, 0, 74, 64
1, 264068, Note_on_c, 0, 60, 0
1, 264068, Note_on_c, 0, 59, 56
1, 264068, Control_c, 0, 64, 0
1, 264094, Control_c, 0, 64, 127
1, 264152, Note_on_c, 0, 71, 56
1, 264238, Note_on_c, 0, 71, 0
1, 264238, Note_on_c, 0, 67, 56
1, 264325, Note_on_c, 0, 67, 0
1, 264325, Note_on_c, 0, 71, 56
1, 264412, Note_on_c, 0, 71, 0
1, 264412, Note_on_c, 0, 74, 0
1, 264412, Note_on_c, 0, 75, 63
1, 264415, Note_on_c, 0, 59, 0
1, 264415, Note_on_c, 0, 55, 0
1, 264415, Note_on_c, 0, 48, 54
1, 264418, Note_on_c, 0, 55, 54
1, 264424, Control_c, 0, 64, 0
1, 264449, Control_c, 0, 64, 127
1, 264499, Note_on_c, 0, 72, 55
1, 264585, Note_on_c, 0, 72, 0
1, 264585, Note_on_c, 0, 67, 55
1, 264671, Note_on_c, 0, 67, 0
1, 264671, Note_on_c, 0, 72, 55
1, 264758, Note_on_c, 0, 72, 0
1, 264758, Note_on_c, 0, 75, 0
1, 264758, Note_on_c, 0, 74, 63
1, 264761, Note_on_c, 0, 55, 0
1, 264761, Note_on_c, 0, 48, 0
1, 264761, Note_on_c, 0, 54, 53
1, 264764, Note_on_c, 0, 50, 53
1, 264764, Control_c, 0, 64, 0
1, 264807, Control_c, 0, 64, 127
1, 264844, Note_on_c, 0, 72, 55
1, 264930, Note_on_c, 0, 72, 0
1, 264930, Note_on_c, 0, 69, 55
1, 265015, Note_on_c, 0, 69, 0
1, 265015, Note_on_c, 0, 72, 55
1, 265101, Note_on_c, 0, 72, 0
1, 265101, Note_on_c, 0, 74, 0
1, 265101, Note_on_c, 0, 74, 62
1, 265104, Note_on_c, 0, 54, 0
1, 265104, Note_on_c, 0, 57, 53
1, 265122, Control_c, 0, 64, 0
1, 265142, Control_c, 0, 64, 127
1, 265187, Note_on_c, 0, 72, 55
1, 265273, Note_on_c, 0, 72, 0
1, 265273, Note_on_c, 0, 66, 55
1, 265359, Note_on_c, 0, 66, 0
1, 265359, Note_on_c, 0, 72, 55
1, 265445, Note_on_c, 0, 72, 0
1, 265445, Note_on_c, 0, 74, 0
1, 265445, Note_on_c, 0, 74, 68
1, 265448, Note_on_c, 0, 57, 0
1, 265448, Note_on_c, 0, 50, 0
1, 265448, Note_on_c, 0, 55, 56
1, 265451, Control_c, 0, 64, 0
1, 265474, Control_c, 0, 64, 127
1, 265532, Note_on_c, 0, 71, 55
1, 265619, Note_on_c, 0, 71, 0
1, 265619, Note_on_c, 0, 67, 55
1, 265706, Note_on_c, 0, 67, 0
1, 265706, Note_on_c, 0, 71, 55
1, 265793, Note_on_c, 0, 71, 0
1, 265793, Note_on_c, 0, 74, 0
1, 265793, Note_on_c, 0, 75, 61
1, 265796, Note_on_c, 0, 48, 52
1, 265834, Control_c, 0, 64, 0
1, 265863, Control_c, 0, 64, 127
1, 265879, Note_on_c, 0, 72, 53
1, 265966, Note_on_c, 0, 72, 0
1, 265966, Note_on_c, 0, 67, 52
1, 266053, Note_on_c, 0, 67, 0
1, 266053, Note_on_c, 0, 72, 52
1, 266140, Note_on_c, 0, 72, 0
1, 266140, Note_on_c, 0, 75, 0
1, 266140, Note_on_c, 0, 74, 60
1, 266143, Note_on_c, 0, 48, 0
1, 266143, Note_on_c, 0, 55, 0
1, 266143, Note_on_c, 0, 54, 50
1, 266146, Note_on_c, 0, 50, 50
1, 266146, Control_c, 0, 64, 0
1, 266189, Control_c, 0, 64, 127
1, 266226, Note_on_c, 0, 72, 52
1, 266311, Note_on_c, 0, 72, 0
1, 266311, Note_on_c, 0, 69, 52
1, 266397, Note_on_c, 0, 69, 0
1, 266397, Note_on_c, 0, 72, 52
1, 266483, Note_on_c, 0, 72, 0
1, 266483, Note_on_c, 0, 74, 0
1, 266483, Note_on_c, 0, 74, 58
1, 266486, Note_on_c, 0, 54, 0
1, 266486, Note_on_c, 0, 57, 50
1, 266528, Control_c, 0, 64, 0
1, 266552, Control_c, 0, 64, 127
1, 266569, Note_on_c, 0, 72, 52
1, 266654, Note_on_c, 0, 72, 0
1, 266654, Note_on_c, 0, 66, 52
1, 266741, Note_on_c, 0, 66, 0
1, 266741, Note_on_c, 0, 72, 52
1, 266828, Note_on_c, 0, 72, 0
1, 266828, Note_on_c, 0, 74, 0
1, 266828, Note_on_c, 0, 74, 60
1, 266831, Note_on_c, 0, 57, 0
1, 266831, Note_on_c, 0, 50, 0
1, 266831, Note_on_c, 0, 43, 50
1, 266834, Control_c, 0, 64, 0
1, 266859, Control_c, 0, 64, 127
1, 266916, Note_on_c, 0, 70, 52
1, 267002, Note_on_c, 0, 70, 0
1, 267002, Note_on_c, 0, 67, 52
1, 267088, Note_on_c, 0, 67, 0
1, 267088, Note_on_c, 0, 70, 52
1, 267174, Note_on_c, 0, 70, 0
1, 267174, Note_on_c, 0, 74, 0
1, 267174, Note_on_c, 0, 74, 58
1, 267177, Note_on_c, 0, 43, 0
1, 267177, Note_on_c, 0, 46, 50
1, 267177, Control_c, 0, 64, 0
1, 267209, Control_c, 0, 64, 127
1, 267259, Note_on_c, 0, 70, 52
1, 267345, Note_on_c, 0, 70, 0
1, 267345, Note_on_c, 0, 65, 52
1, 267431, Note_on_c, 0, 65, 0
1, 267431, Note_on_c, 0, 70, 52
1, 267517, Note_on_c, 0, 70, 0
1, 267517, Note_on_c, 0, 74, 0
1, 267517, Note_on_c, 0, 74, 60
1, 267520, Note_on_c, 0, 46, 0
1, 267520, Note_on_c, 0, 50, 50
1, 267520, Control_c, 0, 64, 0
1, 267541, Control_c, 0, 64, 127
1, 267601, Note_on_c, 0, 69, 52
1, 267685, Note_on_c, 0, 69, 0
1, 267685, Note_on_c, 0, 65, 52
1, 267769, Note_on_c, 0, 65, 0
1, 267769, Note_on_c, 0, 69, 52
1, 267853, Note_on_c, 0, 69, 0
1, 267853, Note_on_c, 0, 74, 0
1, 267853, Note_on_c, 0, 72, 58
1, 267856, Note_on_c, 0, 50, 0
1, 267856, Note_on_c, 0, 53, 50
1, 267868, Control_c, 0, 64, 0
1, 267903, Control_c, 0, 64, 127
1, 267938, Note_on_c, 0, 69, 52
1, 268024, Note_on_c, 0, 69, 0
1, 268024, Note_on_c, 0, 65, 52
1, 268110, Note_on_c, 0, 65, 0
1, 268110, Note_on_c, 0, 69, 52
1, 268196, Note_on_c, 0, 69, 0
1, 268196, Note_on_c, 0, 72, 0
1, 268196, Note_on_c, 0, 72, 60
1, 268199, Note_on_c, 0, 53, 0
1, 268199, Note_on_c, 0, 41, 50
1, 268199, Control_c, 0, 64, 0
1, 268225, Control_c, 0, 64, 127
1, 268283, Note_on_c, 0, 68, 52
1, 268368, Note_on_c, 0, 68, 0
1, 268368, Note_on_c, 0, 65, 52
1, 268454, Note_on_c, 0, 65, 0
1, 268454, Note_on_c, 0, 68, 52
1, 268538, Note_on_c, 0, 68, 0
1, 268538, Note_on_c, 0, 72, 0
1, 268538, Note_on_c, 0, 72, 58
1, 268541, Note_on_c, 0, 41, 0
1, 268541, Note_on_c, 0, 44, 50
1, 268550, Control_c, 0, 64, 0
1, 268578, Control_c, 0, 64, 127
1, 268623, Note_on_c, 0, 68, 52
1, 268709, Note_on_c, 0, 68, 0
1, 268709, Note_on_c, 0, 63, 52
1, 268795, Note_on_c, 0, 63, 0
1, 268795, Note_on_c, 0, 68, 52
1, 268881, Note_on_c, 0, 68, 0
1, 268881, Note_on_c, 0, 72, 0
1, 268881, Note_on_c, 0, 72, 60
1, 268884, Note_on_c, 0, 44, 0
1, 268884, Note_on_c, 0, 48, 50
1, 268884, Control_c, 0, 64, 0
1, 268931, Control_c, 0, 64, 127
1, 268967, Note_on_c, 0, 67, 52
1, 269053, Note_on_c, 0, 67, 0
1, 269053, Note_on_c, 0, 63, 52
1, 269139, Note_on_c, 0, 63, 0
1, 269139, Note_on_c, 0, 67, 52
1, 269225, Note_on_c, 0, 67, 0
1, 269225, Note_on_c, 0, 72, 0
1, 269225, Note_on_c, 0, 70, 58
1, 269228, Note_on_c, 0, 48, 0
1, 269228, Note_on_c, 0, 51, 50
1, 269228, Control_c, 0, 64, 0
1, 269255, Control_c, 0, 64, 127
1, 269310, Note_on_c, 0, 67, 52
1, 269396, Note_on_c, 0, 67, 0
1, 269396, Note_on_c, 0, 63, 52
1, 269482, Note_on_c, 0, 63, 0
1, 269482, Note_on_c, 0, 67, 52
1, 269568, Note_on_c, 0, 67, 0
1, 269568, Note_on_c, 0, 70, 0
1, 269568, Note_on_c, 0, 70, 66
1, 269571, Note_on_c, 0, 51, 0
1, 269571, Note_on_c, 0, 39, 53
1, 269571, Control_c, 0, 64, 0
1, 269618, Control_c, 0, 64, 127
1, 269655, Note_on_c, 0, 67, 56
1, 269741, Note_on_c, 0, 67, 0
1, 269741, Note_on_c, 0, 63, 56
1, 269827, Note_on_c, 0, 63, 0
1, 269827, Note_on_c, 0, 67, 56
1, 269913, Note_on_c, 0, 67, 0
1, 269913, Note_on_c, 0, 70, 0
1, 269913, Note_on_c, 0, 70, 63
1, 269916, Note_on_c, 0, 39, 0
1, 269916, Note_on_c, 0, 43, 54
1, 269923, Control_c, 0, 64, 0
1, 269953, Control_c, 0, 64, 127
1, 269998, Note_on_c, 0, 67, 57
1, 270084, Note_on_c, 0, 67, 0
1, 270084, Note_on_c, 0, 62, 57
1, 270170, Note_on_c, 0, 62, 0
1, 270170, Note_on_c, 0, 67, 57
1, 270257, Note_on_c, 0, 67, 0
1, 270257, Note_on_c, 0, 70, 0
1, 270257, Note_on_c, 0, 70, 68
1, 270260, Note_on_c, 0, 43, 0
1, 270260, Note_on_c, 0, 46, 55
1, 270260, Control_c, 0, 64, 0
1, 270306, Control_c, 0, 64, 127
1, 270342, Note_on_c, 0, 65, 58
1, 270428, Note_on_c, 0, 65, 0
1, 270428, Note_on_c, 0, 62, 58
1, 270514, Note_on_c, 0, 62, 0
1, 270514, Note_on_c, 0, 65, 58
1, 270600, Note_on_c, 0, 65, 0
1, 270600, Note_on_c, 0, 70, 0
1, 270600, Note_on_c, 0, 69, 67
1, 270603, Note_on_c, 0, 46, 0
1, 270603, Note_on_c, 0, 50, 56
1, 270645, Control_c, 0, 64, 0
1, 270678, Control_c, 0, 64, 127
1, 270685, Note_on_c, 0, 65, 59
1, 270771, Note_on_c, 0, 65, 0
1, 270771, Note_on_c, 0, 62, 59
1, 270857, Note_on_c, 0, 62, 0
1, 270857, Note_on_c, 0, 65, 59
1, 270944, Note_on_c, 0, 65, 0
1, 270944, Note_on_c, 0, 69, 0
1, 270944, Note_on_c, 0, 69, 70
1, 270947, Note_on_c, 0, 50, 0
1, 270947, Note_on_c, 0, 41, 53
1, 270947, Control_c, 0, 64, 0
1, 270994, Control_c, 0, 64, 127
1, 271031, Note_on_c, 0, 65, 58
1, 271118, Note_on_c, 0, 65, 0
1, 271118, Note_on_c, 0, 60, 60
1, 271204, Note_on_c, 0, 60, 0
1, 271204, Note_on_c, 0, 65, 62
1, 271289, Note_on_c, 0, 65, 0
1, 271289, Note_on_c, 0, 69, 0
1, 271289, Note_on_c, 0, 77, 74
1, 271292, Note_on_c, 0, 41, 0
1, 271292, Note_on_c, 0, 39, 56
1, 271319, Control_c, 0, 64, 0
1, 271345, Control_c, 0, 64, 127
1, 271375, Note_on_c, 0, 72, 62
1, 271460, Note_on_c, 0, 72, 0
1, 271460, Note_on_c, 0, 69, 62
1, 271546, Note_on_c, 0, 69, 0
1, 271546, Note_on_c, 0, 72, 62
1, 271633, Note_on_c, 0, 72, 0
1, 271633, Note_on_c, 0, 77, 0
1, 271633, Note_on_c, 0, 77, 75
1, 271636, Note_on_c, 0, 39, 0
1, 271636, Note_on_c, 0, 38, 60
1, 271636, Control_c, 0, 64, 0
1, 271683, Control_c, 0, 64, 127
1, 271719, Note_on_c, 0, 74, 62
1, 271806, Note_on_c, 0, 74, 0
1, 271806, Note_on_c, 0, 70, 61
1, 271894, Note_on_c, 0, 70, 0
1, 271894, Note_on_c, 0, 74, 58
1, 271971, Control_c, 0, 64, 0
1, 271981, Note_on_c, 0, 74, 0
1, 271981, Note_on_c, 0, 77, 0
1, 271981, Note_on_c, 0, 77, 67
1, 271984, Note_on_c, 0, 38, 0
1, 271984, Note_on_c, 0, 36, 56
1, 272001, Control_c, 0, 64, 127
1, 272069, Note_on_c, 0, 75, 59
1, 272160, Note_on_c, 0, 75, 0
1, 272160, Note_on_c, 0, 69, 59
1, 272254, Note_on_c, 0, 69, 0
1, 272254, Note_on_c, 0, 75, 59
1, 272350, Note_on_c, 0, 75, 0
1, 272350, Note_on_c, 0, 77, 0
1, 272350, Note_on_c, 0, 77, 76
1, 272353, Note_on_c, 0, 36, 0
1, 272379, Control_c, 0, 64, 0
1, 272395, Control_c, 0, 64, 127
1, 272446, Note_on_c, 0, 74, 62
1, 272539, Note_on_c, 0, 74, 0
1, 272539, Note_on_c, 0, 70, 62
1, 272539, Note_on_c, 0, 34, 57
1, 272629, Note_on_c, 0, 70, 0
1, 272629, Note_on_c, 0, 74, 62
1, 272718, Note_on_c, 0, 74, 0
1, 272718, Note_on_c, 0, 77, 0
1, 272718, Note_on_c, 0, 82, 77
1, 272721, Note_on_c, 0, 34, 0
1, 272805, Note_on_c, 0, 74, 67
1, 272892, Note_on_c, 0, 74, 0
1, 272892, Note_on_c, 0, 70, 68
1, 272892, Note_on_c, 0, 46, 57
1, 272979, Note_on_c, 0, 70, 0
1, 272979, Note_on_c, 0, 74, 68
1, 273065, Note_on_c, 0, 74, 0
1, 273065, Note_on_c, 0, 82, 0
1, 273065, Note_on_c, 0, 77, 76
1, 273068, Note_on_c, 0, 46, 0
1, 273068, Note_on_c, 0, 81, 76
1, 273068, Control_c, 0, 64, 0
1, 273099, Control_c, 0, 64, 127
1, 273153, Note_on_c, 0, 77, 0
1, 273153, Note_on_c, 0, 74, 62
1, 273240, Note_on_c, 0, 74, 0
1, 273240, Note_on_c, 0, 69, 62
1, 273240, Note_on_c, 0, 50, 57
1, 273326, Note_on_c, 0, 69, 0
1, 273326, Note_on_c, 0, 74, 62
1, 273411, Note_on_c, 0, 74, 0
1, 273411, Note_on_c, 0, 81, 0
1, 273411, Note_on_c, 0, 75, 75
1, 273414, Note_on_c, 0, 50, 0
1, 273414, Note_on_c, 0, 79, 75
1, 273432, Control_c, 0, 64, 0
1, 273468, Control_c, 0, 64, 127
1, 273497, Note_on_c, 0, 75, 0
1, 273497, Note_on_c, 0, 70, 58
1, 273583, Note_on_c, 0, 70, 0
1, 273583, Note_on_c, 0, 67, 58
1, 273583, Note_on_c, 0, 51, 57
1, 273669, Note_on_c, 0, 67, 0
1, 273669, Note_on_c, 0, 70, 58
1, 273756, Note_on_c, 0, 70, 0
1, 273756, Note_on_c, 0, 79, 0
1, 273756, Note_on_c, 0, 74, 74
1, 273759, Note_on_c, 0, 51, 0
1, 273759, Note_on_c, 0, 79, 74
1, 273759, Control_c, 0, 64, 0
1, 273802, Control_c, 0, 64, 127
1, 273842, Note_on_c, 0, 74, 0
1, 273842, Note_on_c, 0, 70, 60
1, 273928, Note_on_c, 0, 70, 0
1, 273928, Note_on_c, 0, 67, 60
1, 273928, Note_on_c, 0, 55, 57
1, 274014, Note_on_c, 0, 67, 0
1, 274014, Note_on_c, 0, 70, 60
1, 274099, Note_on_c, 0, 70, 0
1, 274099, Note_on_c, 0, 79, 0
1, 274099, Note_on_c, 0, 74, 73
1, 274102, Note_on_c, 0, 55, 0
1, 274102, Note_on_c, 0, 77, 73
1, 274102, Control_c, 0, 64, 0
1, 274134, Control_c, 0, 64, 127
1, 274184, Note_on_c, 0, 74, 0
1, 274184, Note_on_c, 0, 70, 59
1, 274269, Note_on_c, 0, 70, 0
1, 274269, Note_on_c, 0, 65, 59
1, 274269, Note_on_c, 0, 58, 57
1, 274355, Note_on_c, 0, 65, 0
1, 274355, Note_on_c, 0, 70, 59
1, 274441, Note_on_c, 0, 70, 0
1, 274441, Note_on_c, 0, 77, 0
1, 274441, Note_on_c, 0, 74, 74
1, 274444, Note_on_c, 0, 58, 0
1, 274444, Note_on_c, 0, 77, 74
1, 274444, Control_c, 0, 64, 0
1, 274490, Control_c, 0, 64, 127
1, 274526, Note_on_c, 0, 74, 0
1, 274526, Note_on_c, 0, 69, 60
1, 274611, Note_on_c, 0, 69, 0
1, 274611, Note_on_c, 0, 65, 60
1, 274611, Note_on_c, 0, 62, 57
1, 274696, Note_on_c, 0, 65, 0
1, 274696, Note_on_c, 0, 69, 60
1, 274780, Note_on_c, 0, 69, 0
1, 274780, Note_on_c, 0, 77, 0
1, 274780, Note_on_c, 0, 72, 73
1, 274783, Note_on_c, 0, 62, 0
1, 274783, Note_on_c, 0, 75, 73
1, 274800, Control_c, 0, 64, 0
1, 274836, Control_c, 0, 64, 127
1, 274864, Note_on_c, 0, 72, 0
1, 274864, Note_on_c, 0, 69, 59
1, 274948, Note_on_c, 0, 69, 0
1, 274948, Note_on_c, 0, 63, 59
1, 274948, Note_on_c, 0, 41, 57
1, 275032, Note_on_c, 0, 63, 0
1, 275032, Note_on_c, 0, 69, 59
1, 275117, Note_on_c, 0, 69, 0
1, 275117, Note_on_c, 0, 75, 0
1, 275117, Note_on_c, 0, 70, 74
1, 275120, Note_on_c, 0, 41, 0
1, 275120, Note_on_c, 0, 75, 74
1, 275120, Control_c, 0, 64, 0
1, 275156, Control_c, 0, 64, 127
1, 275201, Note_on_c, 0, 70, 0
1, 275201, Note_on_c, 0, 67, 60
1, 275286, Note_on_c, 0, 67, 0
1, 275286, Note_on_c, 0, 63, 60
1, 275286, Note_on_c, 0, 43, 57
1, 275371, Note_on_c, 0, 63, 0
1, 275371, Note_on_c, 0, 67, 60
1, 275437, Control_c, 0, 64, 0
1, 275457, Note_on_c, 0, 67, 0
1, 275457, Note_on_c, 0, 75, 0
1, 275457, Note_on_c, 0, 70, 73
1, 275460, Note_on_c, 0, 43, 0
1, 275460, Note_on_c, 0, 74, 73
1, 275472, Control_c, 0, 64, 127
1, 275542, Note_on_c, 0, 70, 0
1, 275542, Note_on_c, 0, 67, 60
1, 275628, Note_on_c, 0, 67, 0
1, 275628, Note_on_c, 0, 62, 60
1, 275628, Note_on_c, 0, 46, 57
1, 275714, Note_on_c, 0, 62, 0
1, 275714, Note_on_c, 0, 67, 60
1, 275800, Note_on_c, 0, 67, 0
1, 275800, Note_on_c, 0, 74, 0
1, 275800, Note_on_c, 0, 69, 72
1, 275803, Note_on_c, 0, 46, 0
1, 275803, Note_on_c, 0, 74, 72
1, 275803, Control_c, 0, 64, 0
1, 275829, Control_c, 0, 64, 127
1, 275887, Note_on_c, 0, 69, 0
1, 275887, Note_on_c, 0, 66, 60
1, 275974, Note_on_c, 0, 66, 0
1, 275974, Note_on_c, 0, 62, 60
1, 275974, Note_on_c, 0, 50, 57
1, 276061, Note_on_c, 0, 62, 0
1, 276061, Note_on_c, 0, 66, 60
1, 276147, Note_on_c, 0, 66, 0
1, 276147, Note_on_c, 0, 74, 0
1, 276147, Note_on_c, 0, 72, 71
1, 276150, Note_on_c, 0, 50, 0
1, 276188, Control_c, 0, 64, 0
1, 276225, Control_c, 0, 64, 127
1, 276233, Note_on_c, 0, 69, 61
1, 276319, Note_on_c, 0, 69, 0
1, 276319, Note_on_c, 0, 62, 61
1, 276319, Note_on_c, 0, 54, 57
1, 276405, Note_on_c, 0, 62, 0
1, 276405, Note_on_c, 0, 69, 61
1, 276492, Note_on_c, 0, 69, 0
1, 276492, Note_on_c, 0, 72, 0
1, 276492, Note_on_c, 0, 72, 72
1, 276495, Note_on_c, 0, 54, 0
1, 276495, Control_c, 0, 64, 0
1, 276537, Control_c, 0, 64, 127
1, 276578, Note_on_c, 0, 67, 62
1, 276663, Note_on_c, 0, 67, 0
1, 276663, Note_on_c, 0, 62, 66
1, 276663, Note_on_c, 0, 55, 57
1, 276749, Note_on_c, 0, 55, 0
1, 276749, Note_on_c, 0, 62, 0
1, 276749, Note_on_c, 0, 67, 69
1, 276834, Note_on_c, 0, 67, 0
1, 276834, Note_on_c, 0, 72, 0
1, 276834, Note_on_c, 0, 70, 76
1, 276837, Note_on_c, 0, 57, 57
1, 276891, Control_c, 0, 64, 0
1, 276920, Note_on_c, 0, 57, 0
1, 276920, Note_on_c, 0, 67, 67
1, 276924, Control_c, 0, 64, 127
1, 277005, Note_on_c, 0, 67, 0
1, 277005, Note_on_c, 0, 62, 68
1, 277005, Note_on_c, 0, 58, 57
1, 277090, Note_on_c, 0, 58, 0
1, 277090, Note_on_c, 0, 62, 0
1, 277090, Note_on_c, 0, 67, 68
1, 277174, Note_on_c, 0, 67, 0
1, 277174, Note_on_c, 0, 70, 0
1, 277174, Note_on_c, 0, 72, 73
1, 277177, Control_c, 0, 64, 0
1, 277177, Note_on_c, 0, 51, 57
1, 277223, Control_c, 0, 64, 127
1, 277259, Note_on_c, 0, 70, 59
1, 277344, Note_on_c, 0, 70, 0
1, 277344, Note_on_c, 0, 51, 0
1, 277344, Note_on_c, 0, 67, 59
1, 277429, Note_on_c, 0, 67, 0
1, 277429, Note_on_c, 0, 70, 59
1, 277514, Note_on_c, 0, 70, 0
1, 277514, Note_on_c, 0, 72, 0
1, 277514, Note_on_c, 0, 74, 69
1, 277517, Control_c, 0, 64, 0
1, 277517, Note_on_c, 0, 53, 57
1, 277539, Control_c, 0, 64, 127
1, 277600, Note_on_c, 0, 69, 57
1, 277686, Note_on_c, 0, 69, 0
1, 277686, Note_on_c, 0, 53, 0
1, 277686, Note_on_c, 0, 65, 57
1, 277773, Note_on_c, 0, 65, 0
1, 277773, Note_on_c, 0, 69, 57
1, 277860, Note_on_c, 0, 69, 0
1, 277860, Note_on_c, 0, 74, 0
1, 277860, Note_on_c, 0, 70, 71
1, 277863, Control_c, 0, 64, 0
1, 277900, Control_c, 0, 64, 127
1, 277955, Note_on_c, 0, 65, 59
1, 278043, Note_on_c, 0, 65, 0
1, 278043, Note_on_c, 0, 62, 59
1, 278043, Note_on_c, 0, 58, 57
1, 278131, Note_on_c, 0, 62, 0
1, 278131, Note_on_c, 0, 65, 59
1, 278219, Note_on_c, 0, 65, 0
1, 278219, Note_on_c, 0, 70, 0
1, 278219, Note_on_c, 0, 72, 73
1, 278222, Note_on_c, 0, 58, 0
1, 278239, Control_c, 0, 64, 0
1, 278280, Control_c, 0, 64, 127
1, 278305, Note_on_c, 0, 67, 59
1, 278391, Note_on_c, 0, 67, 0
1, 278391, Note_on_c, 0, 63, 59
1, 278391, Note_on_c, 0, 51, 57
1, 278477, Note_on_c, 0, 63, 0
1, 278477, Note_on_c, 0, 67, 59
1, 278563, Note_on_c, 0, 67, 0
1, 278563, Note_on_c, 0, 72, 0
1, 278563, Note_on_c, 0, 74, 73
1, 278566, Note_on_c, 0, 51, 0
1, 278566, Control_c, 0, 64, 0
1, 278603, Control_c, 0, 64, 127
1, 278649, Note_on_c, 0, 68, 59
1, 278734, Note_on_c, 0, 68, 0
1, 278734, Note_on_c, 0, 65, 60
1, 278734, Note_on_c, 0, 46, 57
1, 278819, Note_on_c, 0, 65, 0
1, 278819, Note_on_c, 0, 68, 60
1, 278897, Control_c, 0, 64, 0
1, 278905, Note_on_c, 0, 68, 0
1, 278905, Note_on_c, 0, 74, 0
1, 278905, Note_on_c, 0, 74, 76
1, 278908, Note_on_c, 0, 46, 0
1, 278925, Control_c, 0, 64, 127
1, 278989, Note_on_c, 0, 68, 62
1, 279074, Note_on_c, 0, 68, 0
1, 279074, Note_on_c, 0, 65, 62
1, 279074, Note_on_c, 0, 46, 60
1, 279158, Note_on_c, 0, 65, 0
1, 279158, Note_on_c, 0, 68, 63
1, 279242, Note_on_c, 0, 68, 0
1, 279242, Note_on_c, 0, 74, 0
1, 279242, Note_on_c, 0, 74, 77
1, 279245, Note_on_c, 0, 46, 0
1, 279245, Control_c, 0, 64, 0
1, 279271, Control_c, 0, 64, 127
1, 279328, Note_on_c, 0, 68, 61
1, 279413, Note_on_c, 0, 68, 0
1, 279413, Note_on_c, 0, 65, 60
1, 279413, Note_on_c, 0, 39, 60
1, 279499, Note_on_c, 0, 65, 0
1, 279499, Note_on_c, 0, 68, 60
1, 279584, Note_on_c, 0, 68, 0
1, 279584, Note_on_c, 0, 74, 0
1, 279584, Note_on_c, 0, 75, 73
1, 279587, Note_on_c, 0, 39, 0
1, 279587, Control_c, 0, 64, 0
1, 279605, Control_c, 0, 64, 127
1, 279668, Note_on_c, 0, 70, 61
1, 279752, Note_on_c, 0, 70, 0
1, 279752, Note_on_c, 0, 67, 60
1, 279752, Note_on_c, 0, 39, 58
1, 279836, Note_on_c, 0, 67, 0
1, 279836, Note_on_c, 0, 70, 59
1, 279920, Note_on_c, 0, 70, 0
1, 279920, Note_on_c, 0, 75, 0
1, 279920, Note_on_c, 0, 74, 73
1, 279923, Note_on_c, 0, 39, 0
1, 279923, Control_c, 0, 64, 0
1, 279968, Control_c, 0, 64, 127
1, 280004, Note_on_c, 0, 70, 59
1, 280089, Note_on_c, 0, 70, 0
1, 280089, Note_on_c, 0, 65, 59
1, 280089, Note_on_c, 0, 41, 57
1, 280174, Note_on_c, 0, 65, 0
1, 280174, Note_on_c, 0, 70, 59
1, 280259, Note_on_c, 0, 70, 0
1, 280259, Note_on_c, 0, 74, 0
1, 280259, Note_on_c, 0, 72, 73
1, 280262, Note_on_c, 0, 41, 0
1, 280303, Control_c, 0, 64, 0
1, 280335, Control_c, 0, 64, 127
1, 280343, Note_on_c, 0, 69, 59
1, 280428, Note_on_c, 0, 69, 0
1, 280428, Note_on_c, 0, 65, 59
1, 280428, Note_on_c, 0, 41, 57
1, 280514, Note_on_c, 0, 65, 0
1, 280514, Note_on_c, 0, 69, 59
1, 280600, Note_on_c, 0, 69, 0
1, 280600, Note_on_c, 0, 72, 0
1, 280600, Note_on_c, 0, 74, 71
1, 280603, Note_on_c, 0, 41, 0
1, 280603, Control_c, 0, 64, 0
1, 280621, Control_c, 0, 64, 0
1, 280640, Control_c, 0, 64, 127
1, 280695, Note_on_c, 0, 70, 59
1, 280781, Note_on_c, 0, 70, 0
1, 280781, Note_on_c, 0, 68, 59
1, 280781, Note_on_c, 0, 46, 57
1, 280868, Note_on_c, 0, 68, 0
1, 280868, Note_on_c, 0, 70, 59
1, 280954, Note_on_c, 0, 70, 0
1, 280954, Note_on_c, 0, 74, 0
1, 280954, Note_on_c, 0, 75, 73
1, 280957, Note_on_c, 0, 46, 0
1, 280975, Control_c, 0, 64, 0
1, 280995, Control_c, 0, 64, 127
1, 281041, Note_on_c, 0, 72, 59
1, 281127, Note_on_c, 0, 72, 0
1, 281127, Note_on_c, 0, 68, 59
1, 281127, Note_on_c, 0, 58, 57
1, 281213, Note_on_c, 0, 68, 0
1, 281213, Note_on_c, 0, 72, 59
1, 281299, Note_on_c, 0, 72, 0
1, 281299, Note_on_c, 0, 75, 0
1, 281299, Note_on_c, 0, 77, 73
1, 281302, Note_on_c, 0, 58, 0
1, 281302, Control_c, 0, 64, 0
1, 281339, Control_c, 0, 64, 127
1, 281385, Note_on_c, 0, 74, 59
1, 281470, Note_on_c, 0, 74, 0
1, 281470, Note_on_c, 0, 68, 60
1, 281470, Note_on_c, 0, 58, 57
1, 281556, Note_on_c, 0, 68, 0
1, 281556, Note_on_c, 0, 74, 60
1, 281641, Note_on_c, 0, 74, 0
1, 281641, Note_on_c, 0, 77, 0
1, 281641, Note_on_c, 0, 77, 76
1, 281644, Note_on_c, 0, 58, 0
1, 281666, Control_c, 0, 64, 0
1, 281695, Control_c, 0, 64, 127
1, 281728, Note_on_c, 0, 74, 62
1, 281814, Note_on_c, 0, 74, 0
1, 281814, Note_on_c, 0, 68, 62
1, 281814, Note_on_c, 0, 58, 60
1, 281901, Note_on_c, 0, 68, 0
1, 281901, Note_on_c, 0, 74, 63
1, 281987, Note_on_c, 0, 74, 0
1, 281987, Note_on_c, 0, 77, 0
1, 281987, Note_on_c, 0, 77, 80
1, 281990, Note_on_c, 0, 58, 0
1, 281990, Control_c, 0, 64, 0
1, 282015, Control_c, 0, 64, 127
1, 282072, Note_on_c, 0, 74, 63
1, 282158, Note_on_c, 0, 74, 0
1, 282158, Note_on_c, 0, 68, 63
1, 282158, Note_on_c, 0, 51, 60
1, 282243, Note_on_c, 0, 68, 0
1, 282243, Note_on_c, 0, 74, 62
1, 282329, Note_on_c, 0, 74, 0
1, 282329, Note_on_c, 0, 77, 0
1, 282329, Note_on_c, 0, 79, 76
1, 282332, Note_on_c, 0, 51, 0
1, 282369, Control_c, 0, 64, 0
1, 282398, Control_c, 0, 64, 127
1, 282414, Note_on_c, 0, 75, 61
1, 282499, Note_on_c, 0, 75, 0
1, 282499, Note_on_c, 0, 67, 60
1, 282499, Note_on_c, 0, 51, 56
1, 282584, Note_on_c, 0, 67, 0
1, 282584, Note_on_c, 0, 75, 59
1, 282669, Note_on_c, 0, 75, 0
1, 282669, Note_on_c, 0, 79, 0
1, 282669, Note_on_c, 0, 77, 73
1, 282672, Note_on_c, 0, 51, 0
1, 282672, Control_c, 0, 64, 0
1, 282717, Control_c, 0, 64, 127
1, 282753, Note_on_c, 0, 74, 58
1, 282838, Note_on_c, 0, 74, 0
1, 282838, Note_on_c, 0, 70, 58
1, 282838, Note_on_c, 0, 53, 57
1, 282923, Note_on_c, 0, 70, 0
1, 282923, Note_on_c, 0, 74, 58
1, 283008, Note_on_c, 0, 74, 0
1, 283008, Note_on_c, 0, 77, 0
1, 283008, Note_on_c, 0, 77, 71
1, 283011, Note_on_c, 0, 53, 0
1, 283028, Control_c, 0, 64, 0
1, 283058, Control_c, 0, 64, 127
1, 283092, Note_on_c, 0, 72, 58
1, 283177, Note_on_c, 0, 72, 0
1, 283177, Note_on_c, 0, 69, 57
1, 283177, Note_on_c, 0, 53, 57
1, 283266, Note_on_c, 0, 69, 0
1, 283266, Note_on_c, 0, 72, 56
1, 283355, Note_on_c, 0, 72, 0
1, 283355, Note_on_c, 0, 77, 0
1, 283355, Note_on_c, 0, 77, 66
1, 283358, Note_on_c, 0, 53, 0
1, 283358, Note_on_c, 0, 58, 53
1, 283358, Control_c, 0, 64, 0
1, 283376, Control_c, 0, 64, 0
1, 283395, Control_c, 0, 64, 127
1, 283450, Note_on_c, 0, 74, 55
1, 283538, Note_on_c, 0, 74, 0
1, 283538, Note_on_c, 0, 70, 55
1, 283626, Note_on_c, 0, 70, 0
1, 283626, Note_on_c, 0, 74, 55
1, 283626, Control_c, 0, 64, 0
1, 283667, Control_c, 0, 64, 127
1, 283714, Note_on_c, 0, 74, 0
1, 283714, Note_on_c, 0, 77, 0
1, 283714, Note_on_c, 0, 82, 63
1, 283717, Note_on_c, 0, 62, 53
1, 283800, Note_on_c, 0, 77, 55
1, 283887, Note_on_c, 0, 77, 0
1, 283887, Note_on_c, 0, 70, 55
1, 283973, Note_on_c, 0, 70, 0
1, 283973, Note_on_c, 0, 77, 55
1, 284059, Note_on_c, 0, 77, 0
1, 284059, Note_on_c, 0, 82, 0
1, 284059, Note_on_c, 0, 81, 68
1, 284062, Note_on_c, 0, 62, 0
1, 284062, Note_on_c, 0, 65, 53
1, 284062, Control_c, 0, 64, 0
1, 284099, Control_c, 0, 64, 127
1, 284145, Note_on_c, 0, 77, 55
1, 284231, Note_on_c, 0, 77, 0
1, 284231, Note_on_c, 0, 72, 56
1, 284317, Note_on_c, 0, 72, 0
1, 284317, Note_on_c, 0, 77, 56
1, 284402, Note_on_c, 0, 77, 0
1, 284402, Note_on_c, 0, 81, 0
1, 284402, Note_on_c, 0, 84, 64
1, 284405, Note_on_c, 0, 65, 0
1, 284405, Control_c, 0, 64, 0
1, 284405, Note_on_c, 0, 63, 56
1, 284427, Control_c, 0, 64, 127
1, 284488, Note_on_c, 0, 77, 58
1, 284573, Note_on_c, 0, 77, 0
1, 284573, Note_on_c, 0, 72, 57
1, 284659, Note_on_c, 0, 72, 0
1, 284659, Note_on_c, 0, 77, 57
1, 284744, Note_on_c, 0, 77, 0
1, 284744, Note_on_c, 0, 84, 0
1, 284744, Note_on_c, 0, 77, 68
1, 284747, Note_on_c, 0, 63, 0
1, 284747, Note_on_c, 0, 62, 56
1, 284747, Control_c, 0, 64, 0
1, 284773, Control_c, 0, 64, 127
1, 284831, Note_on_c, 0, 74, 56
1, 284918, Note_on_c, 0, 74, 0
1, 284918, Note_on_c, 0, 70, 56
1, 285005, Note_on_c, 0, 70, 0
1, 285005, Note_on_c, 0, 74, 56
1, 285091, Note_on_c, 0, 74, 0
1, 285091, Note_on_c, 0, 77, 0
1, 285091, Note_on_c, 0, 79, 63
1, 285094, Note_on_c, 0, 62, 0
1, 285094, Note_on_c, 0, 58, 0
1, 285094, Note_on_c, 0, 51, 54
1, 285097, Note_on_c, 0, 58, 54
1, 285097, Control_c, 0, 64, 0
1, 285132, Control_c, 0, 64, 127
1, 285177, Note_on_c, 0, 75, 55
1, 285262, Note_on_c, 0, 75, 0
1, 285262, Note_on_c, 0, 70, 55
1, 285347, Note_on_c, 0, 70, 0
1, 285347, Note_on_c, 0, 75, 55
1, 285432, Note_on_c, 0, 75, 0
1, 285432, Note_on_c, 0, 79, 0
1, 285432, Note_on_c, 0, 77, 64
1, 285435, Note_on_c, 0, 58, 0
1, 285435, Note_on_c, 0, 51, 0
1, 285435, Note_on_c, 0, 57, 53
1, 285438, Note_on_c, 0, 53, 53
1, 285438, Control_c, 0, 64, 0
1, 285482, Control_c, 0, 64, 127
1, 285518, Note_on_c, 0, 75, 55
1, 285604, Note_on_c, 0, 75, 0
1, 285604, Note_on_c, 0, 72, 55
1, 285690, Note_on_c, 0, 72, 0
1, 285690, Note_on_c, 0, 75, 55
1, 285771, Control_c, 0, 64, 0
1, 285776, Note_on_c, 0, 75, 0
1, 285776, Note_on_c, 0, 77, 0
1, 285776, Note_on_c, 0, 77, 62
1, 285779, Note_on_c, 0, 57, 0
1, 285779, Note_on_c, 0, 60, 53
1, 285811, Control_c, 0, 64, 127
1, 285861, Note_on_c, 0, 75, 55
1, 285947, Note_on_c, 0, 75, 0
1, 285947, Note_on_c, 0, 69, 55
1, 286034, Note_on_c, 0, 69, 0
1, 286034, Note_on_c, 0, 75, 55
1, 286123, Note_on_c, 0, 75, 0
1, 286123, Note_on_c, 0, 77, 0
1, 286123, Note_on_c, 0, 77, 66
1, 286126, Note_on_c, 0, 60, 0
1, 286126, Note_on_c, 0, 53, 0
1, 286126, Note_on_c, 0, 58, 53
1, 286129, Control_c, 0, 64, 0
1, 286145, Control_c, 0, 64, 0
1, 286165, Control_c, 0, 64, 127
1, 286221, Note_on_c, 0, 74, 55
1, 286310, Note_on_c, 0, 74, 0
1, 286310, Note_on_c, 0, 70, 55
1, 286398, Note_on_c, 0, 70, 0
1, 286398, Note_on_c, 0, 74, 55
1, 286461, Control_c, 0, 64, 0
1, 286487, Note_on_c, 0, 74, 0
1, 286487, Note_on_c, 0, 77, 0
1, 286487, Note_on_c, 0, 82, 63
1, 286490, Note_on_c, 0, 62, 53
1, 286490, Control_c, 0, 64, 127
1, 286573, Note_on_c, 0, 77, 55
1, 286660, Note_on_c, 0, 77, 0
1, 286660, Note_on_c, 0, 70, 55
1, 286747, Note_on_c, 0, 70, 0
1, 286747, Note_on_c, 0, 77, 55
1, 286834, Note_on_c, 0, 77, 0
1, 286834, Note_on_c, 0, 82, 0
1, 286834, Note_on_c, 0, 81, 68
1, 286837, Note_on_c, 0, 62, 0
1, 286837, Note_on_c, 0, 65, 53
1, 286837, Control_c, 0, 64, 0
1, 286874, Control_c, 0, 64, 127
1, 286920, Note_on_c, 0, 77, 55
1, 287006, Note_on_c, 0, 77, 0
1, 287006, Note_on_c, 0, 65, 0
1, 287006, Note_on_c, 0, 72, 56
1, 287009, Note_on_c, 0, 66, 50
1, 287092, Note_on_c, 0, 72, 0
1, 287092, Note_on_c, 0, 77, 56
1, 287178, Note_on_c, 0, 77, 0
1, 287178, Note_on_c, 0, 81, 0
1, 287178, Note_on_c, 0, 84, 64
1, 287181, Note_on_c, 0, 66, 0
1, 287181, Note_on_c, 0, 65, 53
1, 287224, Control_c, 0, 64, 0
1, 287253, Control_c, 0, 64, 127
1, 287263, Note_on_c, 0, 77, 58
1, 287349, Note_on_c, 0, 77, 0
1, 287349, Note_on_c, 0, 65, 0
1, 287349, Note_on_c, 0, 72, 57
1, 287352, Note_on_c, 0, 63, 51
1, 287434, Note_on_c, 0, 72, 0
1, 287434, Note_on_c, 0, 77, 57
1, 287520, Note_on_c, 0, 77, 0
1, 287520, Note_on_c, 0, 84, 0
1, 287520, Note_on_c, 0, 77, 68
1, 287523, Note_on_c, 0, 63, 0
1, 287523, Note_on_c, 0, 62, 56
1, 287523, Control_c, 0, 64, 0
1, 287549, Control_c, 0, 64, 127
1, 287607, Note_on_c, 0, 74, 56
1, 287694, Note_on_c, 0, 74, 0
1, 287694, Note_on_c, 0, 70, 56
1, 287781, Note_on_c, 0, 70, 0
1, 287781, Note_on_c, 0, 74, 56
1, 287858, Control_c, 0, 64, 0
1, 287868, Note_on_c, 0, 74, 0
1, 287868, Note_on_c, 0, 77, 0
1, 287868, Note_on_c, 0, 78, 63
1, 287871, Note_on_c, 0, 62, 0
1, 287871, Note_on_c, 0, 58, 0
1, 287871, Note_on_c, 0, 51, 54
1, 287874, Note_on_c, 0, 58, 54
1, 287878, Control_c, 0, 64, 127
1, 287956, Note_on_c, 0, 75, 55
1, 288043, Note_on_c, 0, 75, 0
1, 288043, Note_on_c, 0, 70, 55
1, 288131, Note_on_c, 0, 70, 0
1, 288131, Note_on_c, 0, 75, 55
1, 288219, Note_on_c, 0, 75, 0
1, 288219, Note_on_c, 0, 78, 0
1, 288219, Note_on_c, 0, 77, 63
1, 288222, Note_on_c, 0, 58, 0
1, 288222, Note_on_c, 0, 51, 0
1, 288222, Note_on_c, 0, 57, 53
1, 288225, Note_on_c, 0, 53, 53
1, 288225, Control_c, 0, 64, 0
1, 288270, Control_c, 0, 64, 127
1, 288307, Note_on_c, 0, 75, 55
1, 288396, Note_on_c, 0, 75, 0
1, 288396, Note_on_c, 0, 72, 55
1, 288485, Note_on_c, 0, 72, 0
1, 288485, Note_on_c, 0, 75, 55
1, 288574, Note_on_c, 0, 75, 0
1, 288574, Note_on_c, 0, 77, 0
1, 288574, Note_on_c, 0, 77, 62
1, 288577, Note_on_c, 0, 57, 0
1, 288577, Note_on_c, 0, 60, 53
1, 288620, Control_c, 0, 64, 0
1, 288654, Control_c, 0, 64, 127
1, 288662, Note_on_c, 0, 75, 55
1, 288751, Note_on_c, 0, 75, 0
1, 288751, Note_on_c, 0, 69, 55
1, 288840, Note_on_c, 0, 69, 0
1, 288840, Note_on_c, 0, 75, 55
1, 288929, Note_on_c, 0, 75, 0
1, 288929, Note_on_c, 0, 60, 0
1, 288929, Note_on_c, 0, 77, 0
1, 288932, Note_on_c, 0, 53, 0
1, 288932, Control_c, 0, 64, 0
1, 290361, Note_on_c, 0, 73, 113
1, 290361, Note_on_c, 0, 77, 113
1, 290361, Note_on_c, 0, 82, 126
1, 290364, Note_on_c, 0, 46, 100
1, 290364, Note_on_c, 0, 53, 100
1, 290364, Note_on_c, 0, 58, 116
1, 290409, Control_c, 0, 64, 127
1, 290988, Note_on_c, 0, 82, 0
1, 290988, Note_on_c, 0, 73, 0
1, 290988, Note_on_c, 0, 77, 0
1, 290991, Note_on_c, 0, 73, 101
1, 290991, Note_on_c, 0, 77, 101
1, 290991, Note_on_c, 0, 82, 116
1, 290994, Note_on_c, 0, 46, 0
1, 290994, Note_on_c, 0, 58, 0
1, 290994, Note_on_c, 0, 53, 0
1, 290997, Note_on_c, 0, 46, 90
1, 290997, Note_on_c, 0, 53, 90
1, 290997, Note_on_c, 0, 58, 101
1, 291077, Note_on_c, 0, 73, 0
1, 291077, Note_on_c, 0, 82, 0
1, 291077, Note_on_c, 0, 77, 0
1, 291080, Note_on_c, 0, 73, 105
1, 291080, Note_on_c, 0, 77, 105
1, 291080, Note_on_c, 0, 85, 120
1, 291083, Note_on_c, 0, 46, 0
1, 291083, Note_on_c, 0, 58, 0
1, 291083, Note_on_c, 0, 53, 0
1, 291086, Note_on_c, 0, 46, 94
1, 291086, Note_on_c, 0, 58, 108
1, 291086, Control_c, 0, 64, 0
1, 291128, Control_c, 0, 64, 127
1, 291334, Note_on_c, 0, 73, 0
1, 291334, Note_on_c, 0, 85, 0
1, 291334, Note_on_c, 0, 77, 0
1, 291337, Note_on_c, 0, 73, 100
1, 291337, Note_on_c, 0, 77, 100
1, 291337, Note_on_c, 0, 85, 115
1, 291340, Note_on_c, 0, 46, 0
1, 291340, Note_on_c, 0, 58, 0
1, 291340, Note_on_c, 0, 46, 91
1, 291343, Note_on_c, 0, 58, 104
1, 291419, Note_on_c, 0, 77, 0
1, 291419, Note_on_c, 0, 85, 0
1, 291419, Note_on_c, 0, 73, 0
1, 291422, Note_on_c, 0, 73, 105
1, 291422, Note_on_c, 0, 77, 105
1, 291422, Note_on_c, 0, 82, 120
1, 291425, Note_on_c, 0, 46, 0
1, 291425, Note_on_c, 0, 58, 0
1, 291425, Note_on_c, 0, 49, 94
1, 291428, Note_on_c, 0, 61, 108
1, 291673, Note_on_c, 0, 77, 0
1, 291673, Note_on_c, 0, 82, 0
1, 291673, Note_on_c, 0, 73, 0
1, 291676, Note_on_c, 0, 73, 101
1, 291676, Note_on_c, 0, 77, 101
1, 291676, Note_on_c, 0, 82, 116
1, 291679, Note_on_c, 0, 49, 0
1, 291679, Note_on_c, 0, 61, 0
1, 291679, Note_on_c, 0, 49, 90
1, 291682, Note_on_c, 0, 61, 101
1, 291757, Note_on_c, 0, 77, 0
1, 291757, Note_on_c, 0, 82, 0
1, 291757, Note_on_c, 0, 73, 0
1, 291760, Note_on_c, 0, 70, 105
1, 291760, Note_on_c, 0, 73, 105
1, 291760, Note_on_c, 0, 77, 120
1, 291763, Note_on_c, 0, 49, 0
1, 291763, Note_on_c, 0, 61, 0
1, 291763, Control_c, 0, 64, 0
1, 291766, Note_on_c, 0, 34, 94
1, 291766, Note_on_c, 0, 46, 108
1, 291807, Control_c, 0, 64, 127
1, 292008, Note_on_c, 0, 73, 0
1, 292008, Note_on_c, 0, 77, 0
1, 292008, Note_on_c, 0, 70, 0
1, 292011, Note_on_c, 0, 70, 101
1, 292011, Note_on_c, 0, 73, 101
1, 292011, Note_on_c, 0, 77, 116
1, 292014, Note_on_c, 0, 34, 0
1, 292014, Note_on_c, 0, 46, 0
1, 292014, Note_on_c, 0, 34, 90
1, 292017, Note_on_c, 0, 46, 101
1, 292092, Note_on_c, 0, 73, 0
1, 292092, Note_on_c, 0, 77, 0
1, 292092, Note_on_c, 0, 70, 0
1, 292095, Note_on_c, 0, 65, 101
1, 292095, Note_on_c, 0, 70, 101
1, 292095, Note_on_c, 0, 73, 115
1, 292098, Note_on_c, 0, 34, 0
1, 292098, Note_on_c, 0, 46, 0
1, 292098, Note_on_c, 0, 37, 90
1, 292101, Note_on_c, 0, 49, 103
1, 292344, Note_on_c, 0, 70, 0
1, 292344, Note_on_c, 0, 73, 0
1, 292344, Note_on_c, 0, 65, 0
1, 292347, Note_on_c, 0, 65, 96
1, 292347, Note_on_c, 0, 70, 96
1, 292347, Note_on_c, 0, 73, 110
1, 292350, Note_on_c, 0, 37, 0
1, 292350, Note_on_c, 0, 49, 0
1, 292350, Note_on_c, 0, 37, 85
1, 292353, Note_on_c, 0, 49, 97
1, 292428, Note_on_c, 0, 70, 0
1, 292428, Note_on_c, 0, 73, 0
1, 292428, Note_on_c, 0, 65, 0
1, 292431, Note_on_c, 0, 61, 101
1, 292431, Note_on_c, 0, 65, 101
1, 292431, Note_on_c, 0, 70, 115
1, 292434, Note_on_c, 0, 37, 0
1, 292434, Note_on_c, 0, 49, 0
1, 292434, Note_on_c, 0, 41, 90
1, 292437, Note_on_c, 0, 53, 103
1, 292437, Control_c, 0, 64, 0
1, 292462, Control_c, 0, 64, 127
1, 292681, Note_on_c, 0, 65, 0
1, 292681, Note_on_c, 0, 70, 0
1, 292681, Note_on_c, 0, 61, 0
1, 292684, Note_on_c, 0, 61, 96
1, 292684, Note_on_c, 0, 65, 96
1, 292684, Note_on_c, 0, 70, 110
1, 292687, Note_on_c, 0, 41, 0
1, 292687, Note_on_c, 0, 53, 0
1, 292687, Note_on_c, 0, 41, 85
1, 292690, Note_on_c, 0, 53, 97
1, 292765, Note_on_c, 0, 65, 0
1, 292765, Note_on_c, 0, 70, 0
1, 292765, Note_on_c, 0, 61, 0
1, 292768, Note_on_c, 0, 53, 0
1, 292768, Note_on_c, 0, 61, 101
1, 292768, Note_on_c, 0, 65, 115
1, 292771, Note_on_c, 0, 41, 0
1, 292771, Note_on_c, 0, 46, 90
1, 292771, Note_on_c, 0, 58, 103
1, 293019, Note_on_c, 0, 65, 0
1, 293019, Note_on_c, 0, 61, 0
1, 293019, Note_on_c, 0, 61, 95
1, 293022, Note_on_c, 0, 58, 0
1, 293022, Note_on_c, 0, 65, 95
1, 293022, Note_on_c, 0, 70, 109
1, 293025, Note_on_c, 0, 46, 0
1, 293025, Note_on_c, 0, 46, 83
1, 293025, Note_on_c, 0, 58, 95
1, 293103, Note_on_c, 0, 61, 0
1, 293103, Note_on_c, 0, 70, 0
1, 293103, Note_on_c, 0, 65, 0
1, 293106, Note_on_c, 0, 63, 105
1, 293106, Note_on_c, 0, 66, 105
1, 293106, Note_on_c, 0, 71, 120
1, 293109, Note_on_c, 0, 46, 0
1, 293109, Note_on_c, 0, 58, 0
1, 293109, Control_c, 0, 64, 0
1, 293112, Note_on_c, 0, 39, 94
1, 293112, Note_on_c, 0, 51, 108
1, 293187, Note_on_c, 0, 66, 0
1, 293187, Note_on_c, 0, 71, 0
1, 293187, Note_on_c, 0, 63, 0
1, 293190, Note_on_c, 0, 39, 0
1, 293190, Note_on_c, 0, 51, 0
1, 293270, Note_on_c, 0, 83, 85
1, 293354, Note_on_c, 0, 87, 89
1, 293368, Note_on_c, 0, 83, 0
1, 293437, Note_on_c, 0, 90, 92
1, 293451, Note_on_c, 0, 87, 0
1, 293521, Note_on_c, 0, 88, 92
1, 293535, Note_on_c, 0, 90, 0
1, 293604, Note_on_c, 0, 87, 91
1, 293618, Note_on_c, 0, 88, 0
1, 293688, Note_on_c, 0, 85, 91
1, 293702, Note_on_c, 0, 87, 0
1, 293771, Note_on_c, 0, 83, 92
1, 293785, Note_on_c, 0, 85, 0
1, 293855, Note_on_c, 0, 82, 92
1, 293869, Note_on_c, 0, 83, 0
1, 293938, Note_on_c, 0, 80, 91
1, 293952, Note_on_c, 0, 82, 0
1, 294022, Note_on_c, 0, 78, 91
1, 294036, Note_on_c, 0, 80, 0
1, 294105, Note_on_c, 0, 76, 91
1, 294119, Note_on_c, 0, 78, 0
1, 294189, Note_on_c, 0, 75, 91
1, 294203, Note_on_c, 0, 76, 0
1, 294272, Note_on_c, 0, 73, 91
1, 294286, Note_on_c, 0, 75, 0
1, 294356, Note_on_c, 0, 71, 91
1, 294370, Note_on_c, 0, 73, 0
1, 294439, Note_on_c, 0, 73, 91
1, 294453, Note_on_c, 0, 71, 0
1, 294524, Note_on_c, 0, 70, 92
1, 294538, Note_on_c, 0, 73, 0
1, 294609, Note_on_c, 0, 71, 96
1, 294609, Note_on_c, 0, 59, 87
1, 294623, Note_on_c, 0, 70, 0
1, 294694, Note_on_c, 0, 75, 99
1, 294694, Note_on_c, 0, 63, 89
1, 294708, Note_on_c, 0, 59, 0
1, 294708, Note_on_c, 0, 71, 0
1, 294778, Note_on_c, 0, 78, 98
1, 294778, Note_on_c, 0, 66, 92
1, 294792, Note_on_c, 0, 75, 0
1, 294792, Note_on_c, 0, 63, 0
1, 294862, Note_on_c, 0, 76, 97
1, 294862, Note_on_c, 0, 64, 90
1, 294876, Note_on_c, 0, 78, 0
1, 294876, Note_on_c, 0, 66, 0
1, 294945, Note_on_c, 0, 75, 97
1, 294945, Note_on_c, 0, 63, 88
1, 294959, Note_on_c, 0, 76, 0
1, 294959, Note_on_c, 0, 64, 0
1, 295028, Note_on_c, 0, 73, 96
1, 295028, Note_on_c, 0, 61, 87
1, 295042, Note_on_c, 0, 75, 0
1, 295042, Note_on_c, 0, 63, 0
1, 295111, Note_on_c, 0, 71, 95
1, 295111, Note_on_c, 0, 59, 85
1, 295125, Note_on_c, 0, 73, 0
1, 295125, Note_on_c, 0, 61, 0
1, 295193, Note_on_c, 0, 70, 95
1, 295193, Note_on_c, 0, 58, 85
1, 295207, Note_on_c, 0, 71, 0
1, 295207, Note_on_c, 0, 59, 0
1, 295276, Note_on_c, 0, 68, 96
1, 295276, Note_on_c, 0, 56, 87
1, 295289, Note_on_c, 0, 70, 0
1, 295289, Note_on_c, 0, 58, 0
1, 295358, Note_on_c, 0, 66, 97
1, 295358, Note_on_c, 0, 54, 88
1, 295372, Note_on_c, 0, 68, 0
1, 295372, Note_on_c, 0, 56, 0
1, 295440, Note_on_c, 0, 64, 98
1, 295440, Note_on_c, 0, 52, 88
1, 295454, Note_on_c, 0, 66, 0
1, 295454, Note_on_c, 0, 54, 0
1, 295522, Note_on_c, 0, 63, 99
1, 295522, Note_on_c, 0, 51, 89
1, 295536, Note_on_c, 0, 64, 0
1, 295536, Note_on_c, 0, 52, 0
1, 295604, Note_on_c, 0, 61, 100
1, 295604, Note_on_c, 0, 49, 90
1, 295617, Note_on_c, 0, 63, 0
1, 295617, Note_on_c, 0, 51, 0
1, 295685, Note_on_c, 0, 59, 103
1, 295685, Note_on_c, 0, 47, 90
1, 295699, Note_on_c, 0, 61, 0
1, 295699, Note_on_c, 0, 49, 0
1, 295766, Note_on_c, 0, 59, 0
1, 295766, Note_on_c, 0, 54, 110
1, 295766, Note_on_c, 0, 59, 110
1, 295769, Note_on_c, 0, 47, 0
1, 295769, Note_on_c, 0, 39, 85
1, 295769, Note_on_c, 0, 51, 97
1, 295837, Control_c, 0, 64, 127
1, 295932, Note_on_c, 0, 59, 0
1, 295932, Note_on_c, 0, 54, 0
1, 295932, Note_on_c, 0, 54, 98
1, 295935, Note_on_c, 0, 51, 0
1, 295935, Note_on_c, 0, 59, 98
1, 295935, Note_on_c, 0, 63, 112
1, 295938, Note_on_c, 0, 39, 0
1, 296097, Note_on_c, 0, 39, 89
1, 296097, Note_on_c, 0, 51, 101
1, 296260, Note_on_c, 0, 54, 0
1, 296260, Note_on_c, 0, 63, 0
1, 296260, Note_on_c, 0, 59, 0
1, 296263, Note_on_c, 0, 59, 97
1, 296263, Note_on_c, 0, 63, 97
1, 296263, Note_on_c, 0, 66, 111
1, 296266, Note_on_c, 0, 39, 0
1, 296266, Note_on_c, 0, 51, 0
1, 296424, Note_on_c, 0, 39, 88
1, 296424, Note_on_c, 0, 51, 100
1, 296587, Note_on_c, 0, 63, 0
1, 296587, Note_on_c, 0, 66, 0
1, 296587, Note_on_c, 0, 59, 0
1, 296590, Note_on_c, 0, 63, 93
1, 296590, Note_on_c, 0, 66, 93
1, 296590, Note_on_c, 0, 71, 105
1, 296593, Note_on_c, 0, 39, 0
1, 296593, Note_on_c, 0, 51, 0
1, 296593, Note_on_c, 0, 39, 76
1, 296596, Note_on_c, 0, 51, 87
1, 296626, Control_c, 0, 64, 0
1, 296668, Note_on_c, 0, 66, 0
1, 296668, Note_on_c, 0, 71, 0
1, 296668, Note_on_c, 0, 63, 0
1, 296749, Note_on_c, 0, 66, 95
1, 296749, Note_on_c, 0, 71, 95
1, 296749, Note_on_c, 0, 75, 109
1, 296752, Note_on_c, 0, 39, 0
1, 296752, Note_on_c, 0, 51, 0
1, 296752, Note_on_c, 0, 39, 81
1, 296755, Note_on_c, 0, 51, 91
1, 296830, Note_on_c, 0, 71, 0
1, 296830, Note_on_c, 0, 75, 0
1, 296830, Note_on_c, 0, 66, 0
1, 296911, Note_on_c, 0, 71, 98
1, 296911, Note_on_c, 0, 75, 98
1, 296911, Note_on_c, 0, 78, 112
1, 296914, Note_on_c, 0, 39, 0
1, 296914, Note_on_c, 0, 51, 0
1, 296914, Note_on_c, 0, 39, 84
1, 296917, Note_on_c, 0, 51, 96
1, 296996, Note_on_c, 0, 75, 0
1, 296996, Note_on_c, 0, 78, 0
1, 296996, Note_on_c, 0, 71, 0
1, 297041, Control_c, 0, 64, 0
1, 297082, Note_on_c, 0, 63, 99
1, 297082, Note_on_c, 0, 69, 99
1, 297082, Note_on_c, 0, 72, 110
1, 297085, Note_on_c, 0, 39, 0
1, 297085, Note_on_c, 0, 51, 0
1, 297085, Control_c, 0, 64, 127
1, 297088, Note_on_c, 0, 41, 85
1, 297088, Note_on_c, 0, 53, 97
1, 297247, Note_on_c, 0, 69, 0
1, 297247, Note_on_c, 0, 72, 0
1, 297247, Note_on_c, 0, 63, 0
1, 297250, Note_on_c, 0, 69, 98
1, 297250, Note_on_c, 0, 72, 98
1, 297250, Note_on_c, 0, 75, 112
1, 297253, Note_on_c, 0, 41, 0
1, 297253, Note_on_c, 0, 53, 0
1, 297413, Note_on_c, 0, 41, 89
1, 297413, Note_on_c, 0, 53, 101
1, 297576, Note_on_c, 0, 72, 0
1, 297576, Note_on_c, 0, 75, 0
1, 297576, Note_on_c, 0, 69, 0
1, 297579, Note_on_c, 0, 72, 97
1, 297579, Note_on_c, 0, 75, 97
1, 297579, Note_on_c, 0, 81, 111
1, 297582, Note_on_c, 0, 41, 0
1, 297582, Note_on_c, 0, 53, 0
1, 297739, Note_on_c, 0, 41, 88
1, 297739, Note_on_c, 0, 53, 100
1, 297903, Note_on_c, 0, 75, 0
1, 297903, Note_on_c, 0, 81, 0
1, 297903, Note_on_c, 0, 72, 0
1, 297906, Note_on_c, 0, 75, 93
1, 297906, Note_on_c, 0, 81, 93
1, 297906, Note_on_c, 0, 84, 105
1, 297909, Note_on_c, 0, 41, 0
1, 297909, Note_on_c, 0, 53, 0
1, 297909, Note_on_c, 0, 41, 76
1, 297912, Note_on_c, 0, 53, 87
1, 297941, Control_c, 0, 64, 0
1, 297984, Note_on_c, 0, 81, 0
1, 297984, Note_on_c, 0, 84, 0
1, 297984, Note_on_c, 0, 75, 0
1, 298064, Note_on_c, 0, 81, 95
1, 298064, Note_on_c, 0, 84, 95
1, 298064, Note_on_c, 0, 87, 109
1, 298067, Note_on_c, 0, 41, 0
1, 298067, Note_on_c, 0, 53, 0
1, 298067, Note_on_c, 0, 41, 81
1, 298070, Note_on_c, 0, 53, 91
1, 298145, Note_on_c, 0, 84, 0
1, 298145, Note_on_c, 0, 87, 0
1, 298145, Note_on_c, 0, 81, 0
1, 298226, Note_on_c, 0, 84, 98
1, 298226, Note_on_c, 0, 87, 98
1, 298226, Note_on_c, 0, 93, 112
1, 298229, Note_on_c, 0, 41, 0
1, 298229, Note_on_c, 0, 53, 0
1, 298229, Note_on_c, 0, 41, 84
1, 298232, Note_on_c, 0, 53, 96
1, 298311, Note_on_c, 0, 87, 0
1, 298311, Note_on_c, 0, 93, 0
1, 298311, Note_on_c, 0, 84, 0
1, 298396, Note_on_c, 0, 82, 113
1, 298396, Note_on_c, 0, 85, 113
1, 298396, Note_on_c, 0, 89, 113
1, 298399, Note_on_c, 0, 41, 0
1, 298399, Note_on_c, 0, 53, 0
1, 298399, Note_on_c, 0, 94, 126
1, 298402, Note_on_c, 0, 46, 91
1, 298421, Control_c, 0, 64, 127
1, 298484, Note_on_c, 0, 46, 0
1, 298484, Note_on_c, 0, 49, 81
1, 298571, Note_on_c, 0, 49, 0
1, 298571, Note_on_c, 0, 53, 81
1, 298657, Note_on_c, 0, 53, 0
1, 298657, Note_on_c, 0, 58, 81
1, 298744, Note_on_c, 0, 58, 0
1, 298744, Note_on_c, 0, 46, 91
1, 298829, Note_on_c, 0, 46, 0
1, 298829, Note_on_c, 0, 49, 81
1, 298915, Note_on_c, 0, 49, 0
1, 298915, Note_on_c, 0, 53, 81
1, 299000, Note_on_c, 0, 94, 0
1, 299000, Note_on_c, 0, 85, 0
1, 299000, Note_on_c, 0, 82, 0
1, 299003, Note_on_c, 0, 89, 0
1, 299003, Note_on_c, 0, 82, 101
1, 299003, Note_on_c, 0, 94, 116
1, 299006, Note_on_c, 0, 53, 0
1, 299006, Note_on_c, 0, 58, 81
1, 299085, Note_on_c, 0, 94, 0
1, 299085, Note_on_c, 0, 82, 0
1, 299085, Note_on_c, 0, 85, 105
1, 299088, Note_on_c, 0, 58, 0
1, 299088, Note_on_c, 0, 97, 120
1, 299088, Note_on_c, 0, 46, 91
1, 299109, Control_c, 0, 64, 0
1, 299145, Control_c, 0, 64, 127
1, 299169, Note_on_c, 0, 46, 0
1, 299169, Note_on_c, 0, 49, 80
1, 299253, Note_on_c, 0, 49, 0
1, 299253, Note_on_c, 0, 53, 81
1, 299337, Note_on_c, 0, 97, 0
1, 299337, Note_on_c, 0, 85, 0
1, 299337, Note_on_c, 0, 85, 100
1, 299340, Note_on_c, 0, 53, 0
1, 299340, Note_on_c, 0, 97, 115
1, 299340, Note_on_c, 0, 58, 81
1, 299421, Note_on_c, 0, 97, 0
1, 299421, Note_on_c, 0, 85, 0
1, 299421, Note_on_c, 0, 82, 105
1, 299424, Note_on_c, 0, 58, 0
1, 299424, Note_on_c, 0, 94, 120
1, 299424, Note_on_c, 0, 46, 91
1, 299505, Note_on_c, 0, 46, 0
1, 299505, Note_on_c, 0, 49, 83
1, 299589, Note_on_c, 0, 49, 0
1, 299589, Note_on_c, 0, 53, 83
1, 299672, Note_on_c, 0, 94, 0
1, 299672, Note_on_c, 0, 82, 0
1, 299672, Note_on_c, 0, 82, 101
1, 299675, Note_on_c, 0, 53, 0
1, 299675, Note_on_c, 0, 94, 116
1, 299675, Note_on_c, 0, 58, 84
1, 299756, Note_on_c, 0, 94, 0
1, 299756, Note_on_c, 0, 82, 0
1, 299756, Note_on_c, 0, 78, 105
1, 299759, Note_on_c, 0, 58, 0
1, 299759, Note_on_c, 0, 90, 120
1, 299759, Control_c, 0, 64, 0
1, 299762, Note_on_c, 0, 46, 91
1, 299783, Control_c, 0, 64, 127
1, 299838, Note_on_c, 0, 46, 0
1, 299838, Note_on_c, 0, 49, 82
1, 299922, Note_on_c, 0, 49, 0
1, 299922, Note_on_c, 0, 54, 82
1, 300005, Note_on_c, 0, 90, 0
1, 300005, Note_on_c, 0, 78, 0
1, 300005, Note_on_c, 0, 78, 101
1, 300008, Note_on_c, 0, 54, 0
1, 300008, Note_on_c, 0, 90, 116
1, 300008, Note_on_c, 0, 58, 82
1, 300088, Note_on_c, 0, 90, 0
1, 300088, Note_on_c, 0, 78, 0
1, 300088, Note_on_c, 0, 73, 101
1, 300091, Note_on_c, 0, 58, 0
1, 300091, Note_on_c, 0, 85, 115
1, 300091, Note_on_c, 0, 46, 91
1, 300091, Control_c, 0, 64, 0
1, 300112, Control_c, 0, 64, 127
1, 300172, Note_on_c, 0, 46, 0
1, 300172, Note_on_c, 0, 49, 84
1, 300256, Note_on_c, 0, 49, 0
1, 300256, Note_on_c, 0, 54, 84
1, 300340, Note_on_c, 0, 85, 0
1, 300340, Note_on_c, 0, 73, 0
1, 300340, Note_on_c, 0, 73, 96
1, 300343, Note_on_c, 0, 54, 0
1, 300343, Note_on_c, 0, 85, 110
1, 300343, Note_on_c, 0, 58, 84
1, 300425, Note_on_c, 0, 85, 0
1, 300425, Note_on_c, 0, 73, 0
1, 300425, Note_on_c, 0, 74, 101
1, 300428, Note_on_c, 0, 58, 0
1, 300428, Note_on_c, 0, 86, 115
1, 300428, Control_c, 0, 64, 0
1, 300431, Note_on_c, 0, 46, 91
1, 300449, Control_c, 0, 64, 127
1, 300510, Note_on_c, 0, 46, 0
1, 300510, Note_on_c, 0, 53, 82
1, 300596, Note_on_c, 0, 53, 0
1, 300596, Note_on_c, 0, 56, 82
1, 300682, Note_on_c, 0, 86, 0
1, 300682, Note_on_c, 0, 74, 0
1, 300682, Note_on_c, 0, 74, 96
1, 300685, Note_on_c, 0, 56, 0
1, 300685, Note_on_c, 0, 86, 110
1, 300685, Note_on_c, 0, 58, 82
1, 300768, Note_on_c, 0, 86, 0
1, 300768, Note_on_c, 0, 74, 0
1, 300768, Note_on_c, 0, 70, 101
1, 300771, Note_on_c, 0, 58, 0
1, 300771, Note_on_c, 0, 82, 115
1, 300771, Note_on_c, 0, 46, 91
1, 300798, Control_c, 0, 64, 0
1, 300814, Control_c, 0, 64, 127
1, 300854, Note_on_c, 0, 46, 0
1, 300854, Note_on_c, 0, 53, 81
1, 300941, Note_on_c, 0, 53, 0
1, 300941, Note_on_c, 0, 56, 81
1, 301027, Note_on_c, 0, 82, 0
1, 301027, Note_on_c, 0, 70, 0
1, 301027, Note_on_c, 0, 70, 95
1, 301030, Note_on_c, 0, 56, 0
1, 301030, Note_on_c, 0, 82, 109
1, 301030, Note_on_c, 0, 58, 81
1, 301113, Note_on_c, 0, 82, 0
1, 301113, Note_on_c, 0, 70, 0
1, 301113, Note_on_c, 0, 75, 103
1, 301116, Note_on_c, 0, 78, 103
1, 301116, Note_on_c, 0, 82, 103
1, 301116, Note_on_c, 0, 87, 118
1, 301119, Note_on_c, 0, 58, 0
1, 301119, Note_on_c, 0, 46, 91
1, 301122, Control_c, 0, 64, 0
1, 301143, Control_c, 0, 64, 127
1, 301201, Note_on_c, 0, 46, 0
1, 301201, Note_on_c, 0, 51, 81
1, 301288, Note_on_c, 0, 51, 0
1, 301288, Note_on_c, 0, 54, 81
1, 301375, Note_on_c, 0, 54, 0
1, 301375, Note_on_c, 0, 58, 81
1, 301461, Note_on_c, 0, 58, 0
1, 301461, Note_on_c, 0, 46, 91
1, 301547, Note_on_c, 0, 46, 0
1, 301547, Note_on_c, 0, 51, 79
1, 301632, Note_on_c, 0, 51, 0
1, 301632, Note_on_c, 0, 54, 79
1, 301718, Note_on_c, 0, 75, 0
1, 301718, Note_on_c, 0, 87, 0
1, 301718, Note_on_c, 0, 78, 0
1, 301721, Note_on_c, 0, 82, 0
1, 301721, Note_on_c, 0, 75, 97
1, 301721, Note_on_c, 0, 87, 111
1, 301724, Note_on_c, 0, 54, 0
1, 301724, Note_on_c, 0, 58, 78
1, 301802, Note_on_c, 0, 87, 0
1, 301802, Note_on_c, 0, 75, 0
1, 301802, Note_on_c, 0, 78, 101
1, 301805, Note_on_c, 0, 58, 0
1, 301805, Note_on_c, 0, 90, 115
1, 301805, Note_on_c, 0, 46, 87
1, 301826, Control_c, 0, 64, 0
1, 301863, Control_c, 0, 64, 127
1, 301887, Note_on_c, 0, 46, 0
1, 301887, Note_on_c, 0, 51, 77
1, 301971, Note_on_c, 0, 51, 0
1, 301971, Note_on_c, 0, 54, 78
1, 302055, Note_on_c, 0, 90, 0
1, 302055, Note_on_c, 0, 78, 0
1, 302055, Note_on_c, 0, 78, 96
1, 302058, Note_on_c, 0, 54, 0
1, 302058, Note_on_c, 0, 90, 110
1, 302058, Note_on_c, 0, 58, 78
1, 302139, Note_on_c, 0, 90, 0
1, 302139, Note_on_c, 0, 78, 0
1, 302139, Note_on_c, 0, 75, 101
1, 302142, Note_on_c, 0, 58, 0
1, 302142, Note_on_c, 0, 87, 115
1, 302142, Note_on_c, 0, 46, 87
1, 302222, Note_on_c, 0, 46, 0
1, 302222, Note_on_c, 0, 51, 80
1, 302306, Note_on_c, 0, 51, 0
1, 302306, Note_on_c, 0, 54, 80
1, 302389, Note_on_c, 0, 87, 0
1, 302389, Note_on_c, 0, 75, 0
1, 302389, Note_on_c, 0, 75, 97
1, 302392, Note_on_c, 0, 54, 0
1, 302392, Note_on_c, 0, 87, 111
1, 302392, Note_on_c, 0, 58, 81
1, 302473, Note_on_c, 0, 87, 0
1, 302473, Note_on_c, 0, 75, 0
1, 302473, Note_on_c, 0, 71, 101
1, 302476, Note_on_c, 0, 58, 0
1, 302476, Note_on_c, 0, 83, 115
1, 302476, Control_c, 0, 64, 0
1, 302479, Note_on_c, 0, 47, 87
1, 302501, Control_c, 0, 64, 127
1, 302556, Note_on_c, 0, 47, 0
1, 302556, Note_on_c, 0, 51, 79
1, 302639, Note_on_c, 0, 51, 0
1, 302639, Note_on_c, 0, 54, 79
1, 302722, Note_on_c, 0, 83, 0
1, 302722, Note_on_c, 0, 71, 0
1, 302722, Note_on_c, 0, 71, 97
1, 302725, Note_on_c, 0, 54, 0
1, 302725, Note_on_c, 0, 83, 111
1, 302725, Note_on_c, 0, 59, 79
1, 302806, Note_on_c, 0, 83, 0
1, 302806, Note_on_c, 0, 71, 0
1, 302806, Note_on_c, 0, 70, 97
1, 302809, Note_on_c, 0, 59, 0
1, 302809, Note_on_c, 0, 82, 110
1, 302809, Note_on_c, 0, 47, 87
1, 302809, Control_c, 0, 64, 0
1, 302830, Control_c, 0, 64, 127
1, 302890, Note_on_c, 0, 47, 0
1, 302890, Note_on_c, 0, 51, 81
1, 302973, Note_on_c, 0, 51, 0
1, 302973, Note_on_c, 0, 54, 81
1, 303058, Note_on_c, 0, 82, 0
1, 303058, Note_on_c, 0, 70, 0
1, 303058, Note_on_c, 0, 70, 92
1, 303061, Note_on_c, 0, 54, 0
1, 303061, Note_on_c, 0, 82, 104
1, 303061, Note_on_c, 0, 59, 81
1, 303142, Note_on_c, 0, 82, 0
1, 303142, Note_on_c, 0, 70, 0
1, 303142, Note_on_c, 0, 69, 97
1, 303145, Note_on_c, 0, 59, 0
1, 303145, Note_on_c, 0, 81, 110
1, 303145, Note_on_c, 0, 48, 87
1, 303171, Control_c, 0, 64, 0
1, 303208, Control_c, 0, 64, 127
1, 303228, Note_on_c, 0, 48, 0
1, 303228, Note_on_c, 0, 51, 79
1, 303313, Note_on_c, 0, 51, 0
1, 303313, Note_on_c, 0, 53, 79
1, 303399, Note_on_c, 0, 81, 0
1, 303399, Note_on_c, 0, 69, 0
1, 303399, Note_on_c, 0, 69, 92
1, 303402, Note_on_c, 0, 53, 0
1, 303402, Note_on_c, 0, 81, 104
1, 303402, Note_on_c, 0, 60, 79
1, 303485, Note_on_c, 0, 81, 0
1, 303485, Note_on_c, 0, 69, 0
1, 303485, Note_on_c, 0, 77, 97
1, 303488, Note_on_c, 0, 60, 0
1, 303488, Note_on_c, 0, 89, 110
1, 303488, Note_on_c, 0, 48, 87
1, 303515, Control_c, 0, 64, 0
1, 303531, Control_c, 0, 64, 127
1, 303572, Note_on_c, 0, 48, 0
1, 303572, Note_on_c, 0, 51, 78
1, 303658, Note_on_c, 0, 51, 0
1, 303658, Note_on_c, 0, 53, 78
1, 303744, Note_on_c, 0, 89, 0
1, 303744, Note_on_c, 0, 77, 0
1, 303744, Note_on_c, 0, 77, 91
1, 303747, Note_on_c, 0, 53, 0
1, 303747, Note_on_c, 0, 89, 103
1, 303747, Note_on_c, 0, 60, 78
1, 303831, Note_on_c, 0, 89, 0
1, 303831, Note_on_c, 0, 77, 0
1, 303831, Note_on_c, 0, 70, 103
1, 303834, Note_on_c, 0, 73, 103
1, 303834, Note_on_c, 0, 77, 103
1, 303834, Note_on_c, 0, 82, 118
1, 303837, Note_on_c, 0, 60, 0
1, 303837, Note_on_c, 0, 49, 87
1, 303837, Control_c, 0, 64, 0
1, 303856, Control_c, 0, 64, 127
1, 303919, Note_on_c, 0, 49, 0
1, 303919, Note_on_c, 0, 53, 78
1, 304006, Note_on_c, 0, 53, 0
1, 304006, Note_on_c, 0, 58, 78
1, 304092, Note_on_c, 0, 58, 0
1, 304092, Note_on_c, 0, 61, 78
1, 304178, Note_on_c, 0, 61, 0
1, 304178, Note_on_c, 0, 49, 87
1, 304264, Note_on_c, 0, 49, 0
1, 304264, Note_on_c, 0, 53, 78
1, 304350, Note_on_c, 0, 53, 0
1, 304350, Note_on_c, 0, 58, 78
1, 304435, Note_on_c, 0, 70, 0
1, 304435, Note_on_c, 0, 82, 0
1, 304435, Note_on_c, 0, 73, 0
1, 304438, Note_on_c, 0, 77, 0
1, 304438, Note_on_c, 0, 82, 97
1, 304438, Note_on_c, 0, 94, 111
1, 304441, Note_on_c, 0, 58, 0
1, 304441, Note_on_c, 0, 61, 78
1, 304520, Note_on_c, 0, 94, 0
1, 304520, Note_on_c, 0, 82, 0
1, 304520, Note_on_c, 0, 85, 101
1, 304523, Note_on_c, 0, 61, 0
1, 304523, Note_on_c, 0, 97, 115
1, 304523, Note_on_c, 0, 49, 87
1, 304544, Control_c, 0, 64, 0
1, 304564, Control_c, 0, 64, 127
1, 304604, Note_on_c, 0, 49, 0
1, 304604, Note_on_c, 0, 53, 77
1, 304688, Note_on_c, 0, 53, 0
1, 304688, Note_on_c, 0, 58, 78
1, 304772, Note_on_c, 0, 97, 0
1, 304772, Note_on_c, 0, 85, 0
1, 304772, Note_on_c, 0, 85, 96
1, 304775, Note_on_c, 0, 58, 0
1, 304775, Note_on_c, 0, 97, 110
1, 304775, Note_on_c, 0, 61, 78
1, 304856, Note_on_c, 0, 97, 0
1, 304856, Note_on_c, 0, 85, 0
1, 304856, Note_on_c, 0, 82, 101
1, 304859, Note_on_c, 0, 61, 0
1, 304859, Note_on_c, 0, 94, 115
1, 304859, Note_on_c, 0, 49, 87
1, 304940, Note_on_c, 0, 49, 0
1, 304940, Note_on_c, 0, 53, 80
1, 305023, Note_on_c, 0, 53, 0
1, 305023, Note_on_c, 0, 58, 80
1, 305107, Note_on_c, 0, 94, 0
1, 305107, Note_on_c, 0, 82, 0
1, 305107, Note_on_c, 0, 82, 97
1, 305110, Note_on_c, 0, 58, 0
1, 305110, Note_on_c, 0, 94, 111
1, 305110, Note_on_c, 0, 61, 81
1, 305190, Note_on_c, 0, 94, 0
1, 305190, Note_on_c, 0, 82, 0
1, 305190, Note_on_c, 0, 78, 101
1, 305193, Note_on_c, 0, 61, 0
1, 305193, Note_on_c, 0, 90, 115
1, 305193, Control_c, 0, 64, 0
1, 305196, Note_on_c, 0, 49, 87
1, 305218, Control_c, 0, 64, 127
1, 305273, Note_on_c, 0, 49, 0
1, 305273, Note_on_c, 0, 54, 79
1, 305356, Note_on_c, 0, 54, 0
1, 305356, Note_on_c, 0, 58, 79
1, 305440, Note_on_c, 0, 90, 0
1, 305440, Note_on_c, 0, 78, 0
1, 305440, Note_on_c, 0, 78, 97
1, 305443, Note_on_c, 0, 58, 0
1, 305443, Note_on_c, 0, 90, 111
1, 305443, Note_on_c, 0, 61, 79
1, 305523, Note_on_c, 0, 90, 0
1, 305523, Note_on_c, 0, 78, 0
1, 305523, Note_on_c, 0, 73, 97
1, 305526, Note_on_c, 0, 61, 0
1, 305526, Note_on_c, 0, 85, 110
1, 305526, Note_on_c, 0, 49, 87
1, 305526, Control_c, 0, 64, 0
1, 305547, Control_c, 0, 64, 127
1, 305607, Note_on_c, 0, 49, 0
1, 305607, Note_on_c, 0, 54, 81
1, 305691, Note_on_c, 0, 54, 0
1, 305691, Note_on_c, 0, 58, 81
1, 305775, Note_on_c, 0, 85, 0
1, 305775, Note_on_c, 0, 73, 0
1, 305775, Note_on_c, 0, 73, 92
1, 305778, Note_on_c, 0, 58, 0
1, 305778, Note_on_c, 0, 85, 104
1, 305778, Note_on_c, 0, 61, 81
1, 305860, Note_on_c, 0, 85, 0
1, 305860, Note_on_c, 0, 73, 0
1, 305860, Note_on_c, 0, 77, 97
1, 305863, Note_on_c, 0, 61, 0
1, 305863, Note_on_c, 0, 89, 110
1, 305863, Note_on_c, 0, 49, 87
1, 305888, Control_c, 0, 64, 0
1, 305925, Control_c, 0, 64, 127
1, 305945, Note_on_c, 0, 49, 0
1, 305945, Note_on_c, 0, 56, 79
1, 306031, Note_on_c, 0, 56, 0
1, 306031, Note_on_c, 0, 59, 79
1, 306116, Note_on_c, 0, 89, 0
1, 306116, Note_on_c, 0, 77, 0
1, 306116, Note_on_c, 0, 77, 92
1, 306119, Note_on_c, 0, 59, 0
1, 306119, Note_on_c, 0, 89, 104
1, 306119, Note_on_c, 0, 61, 79
1, 306203, Note_on_c, 0, 89, 0
1, 306203, Note_on_c, 0, 77, 0
1, 306203, Note_on_c, 0, 73, 97
1, 306206, Note_on_c, 0, 61, 0
1, 306206, Note_on_c, 0, 85, 110
1, 306206, Control_c, 0, 64, 0
1, 306209, Note_on_c, 0, 49, 87
1, 306215, Control_c, 0, 64, 127
1, 306289, Note_on_c, 0, 49, 0
1, 306289, Note_on_c, 0, 56, 78
1, 306375, Note_on_c, 0, 56, 0
1, 306375, Note_on_c, 0, 59, 78
1, 306462, Note_on_c, 0, 85, 0
1, 306462, Note_on_c, 0, 73, 0
1, 306462, Note_on_c, 0, 73, 91
1, 306465, Note_on_c, 0, 59, 0
1, 306465, Note_on_c, 0, 85, 103
1, 306465, Note_on_c, 0, 61, 78
1, 306548, Note_on_c, 0, 85, 0
1, 306548, Note_on_c, 0, 73, 0
1, 306548, Note_on_c, 0, 78, 103
1, 306551, Note_on_c, 0, 82, 103
1, 306551, Note_on_c, 0, 85, 103
1, 306551, Note_on_c, 0, 90, 118
1, 306554, Note_on_c, 0, 61, 0
1, 306554, Control_c, 0, 64, 0
1, 306554, Note_on_c, 0, 49, 91
1, 306590, Control_c, 0, 64, 127
1, 306636, Note_on_c, 0, 49, 0
1, 306636, Note_on_c, 0, 54, 81
1, 306723, Note_on_c, 0, 54, 0
1, 306723, Note_on_c, 0, 58, 81
1, 306809, Note_on_c, 0, 58, 0
1, 306809, Note_on_c, 0, 61, 81
1, 306896, Note_on_c, 0, 61, 0
1, 306896, Note_on_c, 0, 49, 91
1, 306982, Note_on_c, 0, 49, 0
1, 306982, Note_on_c, 0, 54, 79
1, 307067, Note_on_c, 0, 54, 0
1, 307067, Note_on_c, 0, 58, 79
1, 307152, Note_on_c, 0, 78, 0
1, 307152, Note_on_c, 0, 90, 0
1, 307152, Note_on_c, 0, 82, 0
1, 307155, Note_on_c, 0, 85, 0
1, 307155, Note_on_c, 0, 78, 93
1, 307155, Note_on_c, 0, 90, 105
1, 307158, Note_on_c, 0, 58, 0
1, 307158, Note_on_c, 0, 61, 75
1, 307237, Note_on_c, 0, 90, 0
1, 307237, Note_on_c, 0, 78, 0
1, 307237, Note_on_c, 0, 82, 97
1, 307240, Note_on_c, 0, 61, 0
1, 307240, Note_on_c, 0, 94, 110
1, 307240, Control_c, 0, 64, 0
1, 307243, Note_on_c, 0, 50, 83
1, 307257, Control_c, 0, 64, 127
1, 307321, Note_on_c, 0, 50, 0
1, 307321, Note_on_c, 0, 54, 74
1, 307405, Note_on_c, 0, 54, 0
1, 307405, Note_on_c, 0, 58, 75
1, 307489, Note_on_c, 0, 94, 0
1, 307489, Note_on_c, 0, 82, 0
1, 307489, Note_on_c, 0, 82, 92
1, 307492, Note_on_c, 0, 58, 0
1, 307492, Note_on_c, 0, 94, 104
1, 307492, Note_on_c, 0, 62, 75
1, 307573, Note_on_c, 0, 94, 0
1, 307573, Note_on_c, 0, 82, 0
1, 307573, Note_on_c, 0, 78, 97
1, 307576, Note_on_c, 0, 62, 0
1, 307576, Note_on_c, 0, 90, 110
1, 307576, Note_on_c, 0, 51, 83
1, 307657, Note_on_c, 0, 51, 0
1, 307657, Note_on_c, 0, 54, 77
1, 307741, Note_on_c, 0, 54, 0
1, 307741, Note_on_c, 0, 58, 77
1, 307824, Note_on_c, 0, 90, 0
1, 307824, Note_on_c, 0, 78, 0
1, 307824, Note_on_c, 0, 78, 93
1, 307827, Note_on_c, 0, 58, 0
1, 307827, Note_on_c, 0, 90, 105
1, 307827, Note_on_c, 0, 63, 78
1, 307908, Note_on_c, 0, 90, 0
1, 307908, Note_on_c, 0, 78, 0
1, 307908, Note_on_c, 0, 77, 97
1, 307911, Note_on_c, 0, 63, 0
1, 307911, Note_on_c, 0, 89, 110
1, 307911, Control_c, 0, 64, 0
1, 307914, Note_on_c, 0, 53, 83
1, 307935, Control_c, 0, 64, 127
1, 307991, Note_on_c, 0, 53, 0
1, 307991, Note_on_c, 0, 58, 76
1, 308074, Note_on_c, 0, 58, 0
1, 308074, Note_on_c, 0, 61, 76
1, 308157, Note_on_c, 0, 89, 0
1, 308157, Note_on_c, 0, 77, 0
1, 308157, Note_on_c, 0, 77, 93
1, 308160, Note_on_c, 0, 61, 0
1, 308160, Note_on_c, 0, 89, 105
1, 308160, Note_on_c, 0, 65, 76
1, 308240, Note_on_c, 0, 89, 0
1, 308240, Note_on_c, 0, 77, 0
1, 308240, Note_on_c, 0, 75, 93
1, 308243, Note_on_c, 0, 65, 0
1, 308243, Note_on_c, 0, 87, 104
1, 308243, Note_on_c, 0, 54, 83
1, 308243, Control_c, 0, 64, 0
1, 308264, Control_c, 0, 64, 127
1, 308324, Note_on_c, 0, 54, 0
1, 308324, Note_on_c, 0, 58, 78
1, 308408, Note_on_c, 0, 58, 0
1, 308408, Note_on_c, 0, 61, 78
1, 308492, Note_on_c, 0, 87, 0
1, 308492, Note_on_c, 0, 75, 0
1, 308492, Note_on_c, 0, 75, 88
1, 308495, Note_on_c, 0, 61, 0
1, 308495, Note_on_c, 0, 87, 100
1, 308495, Note_on_c, 0, 66, 78
1, 308577, Note_on_c, 0, 87, 0
1, 308577, Note_on_c, 0, 75, 0
1, 308577, Note_on_c, 0, 77, 93
1, 308580, Note_on_c, 0, 66, 0
1, 308580, Note_on_c, 0, 89, 104
1, 308580, Note_on_c, 0, 53, 83
1, 308606, Control_c, 0, 64, 0
1, 308642, Control_c, 0, 64, 127
1, 308662, Note_on_c, 0, 53, 0
1, 308662, Note_on_c, 0, 58, 76
1, 308748, Note_on_c, 0, 58, 0
1, 308748, Note_on_c, 0, 61, 76
1, 308834, Note_on_c, 0, 89, 0
1, 308834, Note_on_c, 0, 77, 0
1, 308834, Note_on_c, 0, 77, 88
1, 308837, Note_on_c, 0, 61, 0
1, 308837, Note_on_c, 0, 89, 100
1, 308837, Note_on_c, 0, 65, 76
1, 308920, Note_on_c, 0, 89, 0
1, 308920, Note_on_c, 0, 77, 0
1, 308920, Note_on_c, 0, 77, 93
1, 308923, Note_on_c, 0, 65, 0
1, 308923, Note_on_c, 0, 89, 104
1, 308923, Note_on_c, 0, 53, 83
1, 308950, Control_c, 0, 64, 0
1, 308966, Control_c, 0, 64, 127
1, 309006, Note_on_c, 0, 53, 0
1, 309006, Note_on_c, 0, 58, 75
1, 309093, Note_on_c, 0, 58, 0
1, 309093, Note_on_c, 0, 61, 75
1, 309179, Note_on_c, 0, 89, 0
1, 309179, Note_on_c, 0, 77, 0
1, 309179, Note_on_c, 0, 77, 87
1, 309182, Note_on_c, 0, 61, 0
1, 309182, Note_on_c, 0, 89, 99
1, 309182, Note_on_c, 0, 65, 75
1, 309265, Note_on_c, 0, 89, 0
1, 309265, Note_on_c, 0, 77, 0
1, 309265, Note_on_c, 0, 77, 90
1, 309268, Note_on_c, 0, 65, 0
1, 309268, Note_on_c, 0, 89, 100
1, 309268, Control_c, 0, 64, 0
1, 309271, Note_on_c, 0, 53, 80
1, 309307, Control_c, 0, 64, 127
1, 309353, Note_on_c, 0, 53, 0
1, 309353, Note_on_c, 0, 58, 73
1, 309438, Note_on_c, 0, 58, 0
1, 309438, Note_on_c, 0, 60, 72
1, 309524, Note_on_c, 0, 89, 0
1, 309524, Note_on_c, 0, 77, 0
1, 309524, Note_on_c, 0, 77, 81
1, 309527, Note_on_c, 0, 60, 0
1, 309527, Note_on_c, 0, 89, 92
1, 309527, Note_on_c, 0, 65, 71
1, 309610, Note_on_c, 0, 89, 0
1, 309610, Note_on_c, 0, 77, 0
1, 309610, Note_on_c, 0, 77, 84
1, 309613, Note_on_c, 0, 65, 0
1, 309613, Note_on_c, 0, 89, 95
1, 309613, Note_on_c, 0, 53, 75
1, 309640, Control_c, 0, 64, 0
1, 309656, Control_c, 0, 64, 127
1, 309697, Note_on_c, 0, 53, 0
1, 309697, Note_on_c, 0, 57, 68
1, 309783, Note_on_c, 0, 57, 0
1, 309783, Note_on_c, 0, 60, 67
1, 309869, Note_on_c, 0, 89, 0
1, 309869, Note_on_c, 0, 77, 0
1, 309869, Note_on_c, 0, 77, 75
1, 309872, Note_on_c, 0, 60, 0
1, 309872, Note_on_c, 0, 89, 85
1, 309872, Note_on_c, 0, 65, 66
1, 309951, Control_c, 0, 64, 0
1, 309956, Note_on_c, 0, 89, 0
1, 309956, Note_on_c, 0, 77, 0
1, 309956, Note_on_c, 0, 82, 82
1, 309959, Note_on_c, 0, 65, 0
1, 309959, Note_on_c, 0, 46, 66
1, 309981, Control_c, 0, 64, 127
1, 310013, Note_on_c, 0, 46, 0
1, 310071, Note_on_c, 0, 62, 66
1, 310186, Note_on_c, 0, 62, 0
1, 310186, Note_on_c, 0, 65, 58
1, 310296, Control_c, 0, 64, 0
1, 310301, Note_on_c, 0, 65, 0
1, 310301, Note_on_c, 0, 82, 0
1, 310301, Note_on_c, 0, 58, 58
1, 310342, Control_c, 0, 64, 127
1, 310417, Note_on_c, 0, 58, 0
1, 310417, Note_on_c, 0, 62, 54
1, 310532, Note_on_c, 0, 62, 0
1, 310532, Note_on_c, 0, 65, 54
1, 310561, Note_on_c, 0, 82, 67
1, 310647, Note_on_c, 0, 82, 0
1, 310647, Note_on_c, 0, 65, 0
1, 310647, Note_on_c, 0, 86, 72
1, 310650, Control_c, 0, 64, 0
1, 310650, Note_on_c, 0, 58, 58
1, 310681, Control_c, 0, 64, 127
1, 310759, Note_on_c, 0, 58, 0
1, 310759, Note_on_c, 0, 62, 53
1, 310871, Note_on_c, 0, 62, 0
1, 310871, Note_on_c, 0, 65, 53
1, 310899, Note_on_c, 0, 86, 0
1, 310899, Note_on_c, 0, 86, 67
1, 310983, Note_on_c, 0, 86, 0
1, 310983, Note_on_c, 0, 65, 0
1, 310983, Note_on_c, 0, 82, 72
1, 310986, Note_on_c, 0, 58, 58
1, 311095, Note_on_c, 0, 58, 0
1, 311095, Note_on_c, 0, 62, 54
1, 311206, Note_on_c, 0, 62, 0
1, 311206, Note_on_c, 0, 65, 54
1, 311234, Note_on_c, 0, 82, 0
1, 311234, Note_on_c, 0, 82, 66
1, 311318, Note_on_c, 0, 82, 0
1, 311318, Note_on_c, 0, 65, 0
1, 311318, Note_on_c, 0, 77, 72
1, 311321, Note_on_c, 0, 58, 58
1, 311334, Control_c, 0, 64, 0
1, 311365, Control_c, 0, 64, 127
1, 311428, Note_on_c, 0, 58, 0
1, 311428, Note_on_c, 0, 62, 54
1, 311539, Note_on_c, 0, 62, 0
1, 311539, Note_on_c, 0, 65, 54
1, 311567, Note_on_c, 0, 77, 0
1, 311567, Note_on_c, 0, 77, 67
1, 311650, Note_on_c, 0, 77, 0
1, 311650, Note_on_c, 0, 65, 0
1, 311650, Note_on_c, 0, 74, 72
1, 311653, Note_on_c, 0, 56, 58
1, 311662, Control_c, 0, 64, 0
1, 311699, Control_c, 0, 64, 127
1, 311762, Note_on_c, 0, 56, 0
1, 311762, Note_on_c, 0, 62, 54
1, 311874, Note_on_c, 0, 62, 0
1, 311874, Note_on_c, 0, 65, 54
1, 311902, Note_on_c, 0, 74, 0
1, 311902, Note_on_c, 0, 74, 67
1, 311987, Note_on_c, 0, 74, 0
1, 311987, Note_on_c, 0, 65, 0
1, 311987, Note_on_c, 0, 75, 72
1, 311990, Control_c, 0, 64, 0
1, 311990, Note_on_c, 0, 55, 58
1, 312011, Control_c, 0, 64, 127
1, 312101, Note_on_c, 0, 55, 0
1, 312101, Note_on_c, 0, 63, 53
1, 312215, Note_on_c, 0, 63, 0
1, 312215, Note_on_c, 0, 65, 53
1, 312244, Note_on_c, 0, 75, 0
1, 312244, Note_on_c, 0, 75, 66
1, 312330, Note_on_c, 0, 75, 0
1, 312330, Note_on_c, 0, 65, 0
1, 312330, Note_on_c, 0, 72, 72
1, 312333, Note_on_c, 0, 57, 58
1, 312338, Control_c, 0, 64, 0
1, 312363, Control_c, 0, 64, 127
1, 312445, Note_on_c, 0, 57, 0
1, 312445, Note_on_c, 0, 63, 54
1, 312560, Note_on_c, 0, 63, 0
1, 312560, Note_on_c, 0, 65, 54
1, 312589, Note_on_c, 0, 72, 0
1, 312589, Note_on_c, 0, 72, 66
1, 312675, Note_on_c, 0, 72, 0
1, 312675, Note_on_c, 0, 65, 0
1, 312675, Note_on_c, 0, 77, 72
1, 312678, Note_on_c, 0, 58, 58
1, 312691, Control_c, 0, 64, 0
1, 312706, Control_c, 0, 64, 127
1, 312791, Note_on_c, 0, 58, 0
1, 312791, Note_on_c, 0, 62, 55
1, 312906, Note_on_c, 0, 62, 0
1, 312906, Note_on_c, 0, 65, 55
1, 312935, Note_on_c, 0, 77, 0
1, 312935, Note_on_c, 0, 82, 60
1, 313021, Note_on_c, 0, 82, 0
1, 313021, Note_on_c, 0, 65, 0
1, 313021, Note_on_c, 0, 77, 69
1, 313024, Note_on_c, 0, 58, 58
1, 313046, Control_c, 0, 64, 0
1, 313077, Control_c, 0, 64, 127
1, 313136, Note_on_c, 0, 58, 0
1, 313136, Note_on_c, 0, 62, 54
1, 313194, Note_on_c, 0, 77, 0
1, 313251, Note_on_c, 0, 62, 0
1, 313251, Note_on_c, 0, 65, 54
1, 313280, Note_on_c, 0, 82, 67
1, 313367, Note_on_c, 0, 82, 0
1, 313367, Note_on_c, 0, 65, 0
1, 313367, Note_on_c, 0, 86, 72
1, 313370, Note_on_c, 0, 58, 58
1, 313396, Control_c, 0, 64, 0
1, 313441, Control_c, 0, 64, 127
1, 313479, Note_on_c, 0, 58, 0
1, 313479, Note_on_c, 0, 62, 53
1, 313591, Note_on_c, 0, 62, 0
1, 313591, Note_on_c, 0, 65, 53
1, 313619, Note_on_c, 0, 86, 0
1, 313619, Note_on_c, 0, 86, 69
1, 313703, Note_on_c, 0, 86, 0
1, 313703, Note_on_c, 0, 65, 0
1, 313703, Note_on_c, 0, 89, 76
1, 313706, Note_on_c, 0, 57, 58
1, 313815, Note_on_c, 0, 57, 0
1, 313815, Note_on_c, 0, 60, 54
1, 313926, Note_on_c, 0, 60, 0
1, 313926, Note_on_c, 0, 65, 54
1, 313954, Note_on_c, 0, 89, 0
1, 313954, Note_on_c, 0, 89, 72
1, 314037, Note_on_c, 0, 89, 0
1, 314037, Note_on_c, 0, 65, 0
1, 314037, Note_on_c, 0, 94, 76
1, 314040, Note_on_c, 0, 55, 58
1, 314045, Control_c, 0, 64, 0
1, 314077, Control_c, 0, 64, 127
1, 314148, Note_on_c, 0, 55, 0
1, 314148, Note_on_c, 0, 58, 54
1, 314259, Note_on_c, 0, 58, 0
1, 314259, Note_on_c, 0, 62, 54
1, 314286, Note_on_c, 0, 94, 0
1, 314286, Note_on_c, 0, 94, 74
1, 314370, Note_on_c, 0, 94, 0
1, 314370, Note_on_c, 0, 62, 0
1, 314370, Note_on_c, 0, 96, 80
1, 314373, Note_on_c, 0, 55, 58
1, 314382, Control_c, 0, 64, 0
1, 314402, Control_c, 0, 64, 127
1, 314482, Note_on_c, 0, 55, 0
1, 314482, Note_on_c, 0, 58, 54
1, 314594, Note_on_c, 0, 58, 0
1, 314594, Note_on_c, 0, 64, 54
1, 314622, Note_on_c, 0, 96, 0
1, 314622, Note_on_c, 0, 96, 73
1, 314707, Note_on_c, 0, 96, 0
1, 314707, Note_on_c, 0, 64, 0
1, 314707, Note_on_c, 0, 98, 79
1, 314710, Control_c, 0, 64, 0
1, 314710, Note_on_c, 0, 53, 58
1, 314731, Control_c, 0, 64, 127
1, 314820, Note_on_c, 0, 53, 0
1, 314820, Note_on_c, 0, 58, 53
1, 314935, Note_on_c, 0, 58, 0
1, 314935, Note_on_c, 0, 65, 53
1, 314963, Note_on_c, 0, 98, 0
1, 314963, Note_on_c, 0, 98, 72
1, 315049, Note_on_c, 0, 98, 0
1, 315049, Note_on_c, 0, 65, 0
1, 315049, Note_on_c, 0, 101, 78
1, 315052, Note_on_c, 0, 53, 58
1, 315057, Control_c, 0, 64, 0
1, 315083, Control_c, 0, 64, 127
1, 315165, Note_on_c, 0, 53, 0
1, 315165, Note_on_c, 0, 57, 54
1, 315280, Note_on_c, 0, 57, 0
1, 315280, Note_on_c, 0, 65, 54
1, 315309, Note_on_c, 0, 101, 0
1, 315309, Note_on_c, 0, 101, 71
1, 315395, Note_on_c, 0, 101, 0
1, 315395, Note_on_c, 0, 65, 0
1, 315395, Note_on_c, 0, 98, 77
1, 315398, Note_on_c, 0, 46, 58
1, 315410, Control_c, 0, 64, 0
1, 315446, Control_c, 0, 64, 127
1, 315453, Note_on_c, 0, 46, 0
1, 315510, Note_on_c, 0, 62, 55
1, 315568, Note_on_c, 0, 98, 0
1, 315625, Note_on_c, 0, 62, 0
1, 315625, Note_on_c, 0, 65, 55
1, 315741, Note_on_c, 0, 65, 0
1, 315741, Note_on_c, 0, 58, 58
1, 315751, Control_c, 0, 64, 0
1, 315780, Control_c, 0, 64, 127
1, 315854, Note_on_c, 0, 58, 0
1, 315854, Note_on_c, 0, 62, 54
1, 315967, Note_on_c, 0, 62, 0
1, 315967, Note_on_c, 0, 65, 54
1, 315995, Note_on_c, 0, 82, 67
1, 316080, Note_on_c, 0, 82, 0
1, 316080, Note_on_c, 0, 65, 0
1, 316080, Note_on_c, 0, 86, 72
1, 316083, Control_c, 0, 64, 0
1, 316083, Note_on_c, 0, 58, 58
1, 316109, Control_c, 0, 64, 127
1, 316192, Note_on_c, 0, 58, 0
1, 316192, Note_on_c, 0, 62, 53
1, 316304, Note_on_c, 0, 62, 0
1, 316304, Note_on_c, 0, 65, 53
1, 316332, Note_on_c, 0, 86, 0
1, 316332, Note_on_c, 0, 86, 67
1, 316416, Note_on_c, 0, 86, 0
1, 316416, Note_on_c, 0, 65, 0
1, 316416, Note_on_c, 0, 82, 72
1, 316419, Note_on_c, 0, 58, 58
1, 316528, Note_on_c, 0, 58, 0
1, 316528, Note_on_c, 0, 62, 54
1, 316639, Note_on_c, 0, 62, 0
1, 316639, Note_on_c, 0, 65, 54
1, 316667, Note_on_c, 0, 82, 0
1, 316667, Note_on_c, 0, 82, 66
1, 316750, Note_on_c, 0, 82, 0
1, 316750, Note_on_c, 0, 65, 0
1, 316750, Note_on_c, 0, 77, 72
1, 316753, Note_on_c, 0, 58, 58
1, 316770, Control_c, 0, 64, 0
1, 316778, Control_c, 0, 64, 127
1, 316861, Note_on_c, 0, 58, 0
1, 316861, Note_on_c, 0, 62, 54
1, 316972, Note_on_c, 0, 62, 0
1, 316972, Note_on_c, 0, 65, 54
1, 317000, Note_on_c, 0, 77, 0
1, 317000, Note_on_c, 0, 77, 67
1, 317083, Note_on_c, 0, 77, 0
1, 317083, Note_on_c, 0, 65, 0
1, 317083, Note_on_c, 0, 74, 72
1, 317086, Note_on_c, 0, 56, 58
1, 317086, Control_c, 0, 64, 0
1, 317111, Control_c, 0, 64, 127
1, 317195, Note_on_c, 0, 56, 0
1, 317195, Note_on_c, 0, 62, 54
1, 317307, Note_on_c, 0, 62, 0
1, 317307, Note_on_c, 0, 65, 54
1, 317335, Note_on_c, 0, 74, 0
1, 317335, Note_on_c, 0, 74, 67
1, 317420, Note_on_c, 0, 74, 0
1, 317420, Note_on_c, 0, 65, 0
1, 317420, Note_on_c, 0, 77, 72
1, 317423, Control_c, 0, 64, 0
1, 317423, Note_on_c, 0, 55, 58
1, 317444, Control_c, 0, 64, 127
1, 317533, Note_on_c, 0, 55, 0
1, 317533, Note_on_c, 0, 63, 53
1, 317648, Note_on_c, 0, 63, 0
1, 317648, Note_on_c, 0, 65, 53
1, 317676, Note_on_c, 0, 77, 0
1, 317676, Note_on_c, 0, 77, 66
1, 317762, Note_on_c, 0, 77, 0
1, 317762, Note_on_c, 0, 65, 0
1, 317762, Note_on_c, 0, 75, 72
1, 317765, Note_on_c, 0, 57, 58
1, 317770, Control_c, 0, 64, 0
1, 317796, Control_c, 0, 64, 127
1, 317878, Note_on_c, 0, 57, 0
1, 317878, Note_on_c, 0, 63, 54
1, 317993, Note_on_c, 0, 63, 0
1, 317993, Note_on_c, 0, 65, 54
1, 318022, Note_on_c, 0, 75, 0
1, 318022, Note_on_c, 0, 75, 66
1, 318108, Note_on_c, 0, 75, 0
1, 318108, Note_on_c, 0, 65, 0
1, 318108, Note_on_c, 0, 74, 72
1, 318111, Note_on_c, 0, 58, 58
1, 318123, Control_c, 0, 64, 0
1, 318159, Control_c, 0, 64, 127
1, 318223, Note_on_c, 0, 58, 0
1, 318223, Note_on_c, 0, 62, 55
1, 318338, Note_on_c, 0, 62, 0
1, 318338, Note_on_c, 0, 65, 55
1, 318367, Note_on_c, 0, 74, 0
1, 318367, Note_on_c, 0, 82, 60
1, 318454, Note_on_c, 0, 82, 0
1, 318454, Note_on_c, 0, 65, 0
1, 318454, Note_on_c, 0, 77, 69
1, 318457, Note_on_c, 0, 58, 58
1, 318479, Control_c, 0, 64, 0
1, 318510, Control_c, 0, 64, 127
1, 318569, Note_on_c, 0, 58, 0
1, 318569, Note_on_c, 0, 62, 54
1, 318626, Note_on_c, 0, 77, 0
1, 318684, Note_on_c, 0, 62, 0
1, 318684, Note_on_c, 0, 65, 54
1, 318713, Note_on_c, 0, 82, 67
1, 318799, Note_on_c, 0, 82, 0
1, 318799, Note_on_c, 0, 65, 0
1, 318799, Note_on_c, 0, 86, 72
1, 318802, Control_c, 0, 64, 0
1, 318802, Note_on_c, 0, 58, 58
1, 318841, Control_c, 0, 64, 127
1, 318911, Note_on_c, 0, 58, 0
1, 318911, Note_on_c, 0, 62, 53
1, 319024, Note_on_c, 0, 62, 0
1, 319024, Note_on_c, 0, 65, 53
1, 319052, Note_on_c, 0, 86, 0
1, 319052, Note_on_c, 0, 86, 69
1, 319135, Note_on_c, 0, 86, 0
1, 319135, Note_on_c, 0, 65, 0
1, 319135, Note_on_c, 0, 89, 76
1, 319138, Note_on_c, 0, 57, 58
1, 319147, Control_c, 0, 64, 0
1, 319163, Control_c, 0, 64, 127
1, 319247, Note_on_c, 0, 57, 0
1, 319247, Note_on_c, 0, 60, 54
1, 319358, Note_on_c, 0, 60, 0
1, 319358, Note_on_c, 0, 65, 54
1, 319386, Note_on_c, 0, 89, 0
1, 319386, Note_on_c, 0, 89, 72
1, 319470, Note_on_c, 0, 89, 0
1, 319470, Note_on_c, 0, 65, 0
1, 319470, Note_on_c, 0, 94, 76
1, 319473, Control_c, 0, 64, 0
1, 319473, Note_on_c, 0, 55, 58
1, 319493, Control_c, 0, 64, 127
1, 319580, Note_on_c, 0, 55, 0
1, 319580, Note_on_c, 0, 58, 54
1, 319691, Note_on_c, 0, 58, 0
1, 319691, Note_on_c, 0, 62, 54
1, 319719, Note_on_c, 0, 94, 0
1, 319719, Note_on_c, 0, 94, 74
1, 319803, Note_on_c, 0, 94, 0
1, 319803, Note_on_c, 0, 62, 0
1, 319803, Note_on_c, 0, 96, 80
1, 319806, Note_on_c, 0, 55, 58
1, 319847, Control_c, 0, 64, 0
1, 319882, Control_c, 0, 64, 127
1, 319914, Note_on_c, 0, 55, 0
1, 319914, Note_on_c, 0, 58, 54
1, 320026, Note_on_c, 0, 58, 0
1, 320026, Note_on_c, 0, 64, 54
1, 320054, Note_on_c, 0, 96, 0
1, 320054, Note_on_c, 0, 96, 73
1, 320139, Note_on_c, 0, 96, 0
1, 320139, Note_on_c, 0, 64, 0
1, 320139, Note_on_c, 0, 98, 79
1, 320142, Control_c, 0, 64, 0
1, 320142, Note_on_c, 0, 53, 58
1, 320163, Control_c, 0, 64, 127
1, 320253, Note_on_c, 0, 53, 0
1, 320253, Note_on_c, 0, 58, 53
1, 320367, Note_on_c, 0, 58, 0
1, 320367, Note_on_c, 0, 65, 53
1, 320396, Note_on_c, 0, 98, 0
1, 320396, Note_on_c, 0, 98, 72
1, 320482, Note_on_c, 0, 98, 0
1, 320482, Note_on_c, 0, 65, 0
1, 320482, Note_on_c, 0, 101, 78
1, 320485, Note_on_c, 0, 53, 58
1, 320490, Control_c, 0, 64, 0
1, 320515, Control_c, 0, 64, 127
1, 320597, Note_on_c, 0, 53, 0
1, 320597, Note_on_c, 0, 57, 54
1, 320712, Note_on_c, 0, 57, 0
1, 320712, Note_on_c, 0, 65, 54
1, 320741, Note_on_c, 0, 101, 0
1, 320741, Note_on_c, 0, 101, 71
1, 320828, Note_on_c, 0, 101, 0
1, 320828, Note_on_c, 0, 65, 0
1, 320828, Note_on_c, 0, 94, 77
1, 320831, Note_on_c, 0, 46, 58
1, 320843, Control_c, 0, 64, 0
1, 320879, Control_c, 0, 64, 127
1, 320885, Note_on_c, 0, 46, 0
1, 320943, Note_on_c, 0, 62, 55
1, 321000, Note_on_c, 0, 94, 0
1, 321058, Note_on_c, 0, 62, 0
1, 321058, Note_on_c, 0, 65, 55
1, 321173, Note_on_c, 0, 65, 0
1, 321173, Note_on_c, 0, 58, 58
1, 321198, Control_c, 0, 64, 0
1, 321229, Control_c, 0, 64, 127
1, 321287, Note_on_c, 0, 58, 0
1, 321287, Note_on_c, 0, 62, 54
1, 321401, Note_on_c, 0, 62, 0
1, 321401, Note_on_c, 0, 65, 54
1, 321429, Note_on_c, 0, 93, 67
1, 321515, Note_on_c, 0, 93, 0
1, 321515, Note_on_c, 0, 65, 0
1, 321515, Note_on_c, 0, 94, 72
1, 321518, Note_on_c, 0, 58, 58
1, 321544, Control_c, 0, 64, 0
1, 321589, Control_c, 0, 64, 127
1, 321627, Note_on_c, 0, 58, 0
1, 321627, Note_on_c, 0, 62, 53
1, 321739, Note_on_c, 0, 62, 0
1, 321739, Note_on_c, 0, 65, 53
1, 321767, Note_on_c, 0, 94, 0
1, 321767, Note_on_c, 0, 94, 69
1, 321851, Note_on_c, 0, 94, 0
1, 321851, Note_on_c, 0, 65, 0
1, 321851, Note_on_c, 0, 92, 76
1, 321854, Note_on_c, 0, 59, 58
1, 321854, Control_c, 0, 64, 0
1, 321879, Control_c, 0, 64, 127
1, 321963, Note_on_c, 0, 59, 0
1, 321963, Note_on_c, 0, 62, 54
1, 322074, Note_on_c, 0, 62, 0
1, 322074, Note_on_c, 0, 65, 54
1, 322102, Note_on_c, 0, 92, 0
1, 322102, Note_on_c, 0, 92, 72
1, 322185, Note_on_c, 0, 92, 0
1, 322185, Note_on_c, 0, 65, 0
1, 322185, Note_on_c, 0, 89, 76
1, 322188, Control_c, 0, 64, 0
1, 322188, Note_on_c, 0, 58, 58
1, 322233, Control_c, 0, 64, 127
1, 322296, Note_on_c, 0, 58, 0
1, 322296, Note_on_c, 0, 62, 54
1, 322407, Note_on_c, 0, 62, 0
1, 322407, Note_on_c, 0, 65, 54
1, 322435, Note_on_c, 0, 89, 0
1, 322435, Note_on_c, 0, 89, 74
1, 322518, Note_on_c, 0, 89, 0
1, 322518, Note_on_c, 0, 65, 0
1, 322518, Note_on_c, 0, 86, 80
1, 322521, Note_on_c, 0, 59, 58
1, 322521, Control_c, 0, 64, 0
1, 322550, Control_c, 0, 64, 127
1, 322630, Note_on_c, 0, 59, 0
1, 322630, Note_on_c, 0, 62, 54
1, 322741, Note_on_c, 0, 62, 0
1, 322741, Note_on_c, 0, 65, 54
1, 322769, Note_on_c, 0, 86, 0
1, 322769, Note_on_c, 0, 86, 73
1, 322852, Note_on_c, 0, 86, 0
1, 322852, Note_on_c, 0, 65, 0
1, 322852, Note_on_c, 0, 89, 79
1, 322855, Control_c, 0, 64, 0
1, 322855, Note_on_c, 0, 58, 58
1, 322876, Control_c, 0, 64, 127
1, 322964, Note_on_c, 0, 58, 0
1, 322964, Note_on_c, 0, 62, 53
1, 323076, Note_on_c, 0, 62, 0
1, 323076, Note_on_c, 0, 65, 53
1, 323104, Note_on_c, 0, 89, 0
1, 323104, Note_on_c, 0, 89, 72
1, 323188, Note_on_c, 0, 89, 0
1, 323188, Note_on_c, 0, 65, 0
1, 323188, Note_on_c, 0, 90, 78
1, 323191, Note_on_c, 0, 56, 58
1, 323195, Control_c, 0, 64, 0
1, 323220, Control_c, 0, 64, 127
1, 323300, Note_on_c, 0, 56, 0
1, 323300, Note_on_c, 0, 60, 54
1, 323412, Note_on_c, 0, 60, 0
1, 323412, Note_on_c, 0, 66, 54
1, 323440, Note_on_c, 0, 90, 0
1, 323440, Note_on_c, 0, 90, 71
1, 323524, Note_on_c, 0, 90, 0
1, 323524, Note_on_c, 0, 66, 0
1, 323524, Note_on_c, 0, 91, 79
1, 323527, Control_c, 0, 64, 0
1, 323527, Note_on_c, 0, 55, 58
1, 323548, Control_c, 0, 64, 127
1, 323636, Note_on_c, 0, 55, 0
1, 323636, Note_on_c, 0, 59, 52
1, 323748, Note_on_c, 0, 59, 0
1, 323748, Note_on_c, 0, 67, 52
1, 323776, Note_on_c, 0, 91, 0
1, 323776, Note_on_c, 0, 91, 71
1, 323859, Note_on_c, 0, 91, 0
1, 323859, Note_on_c, 0, 67, 0
1, 323859, Note_on_c, 0, 91, 76
1, 323862, Note_on_c, 0, 55, 57
1, 323867, Control_c, 0, 64, 0
1, 323891, Control_c, 0, 64, 127
1, 323971, Note_on_c, 0, 55, 0
1, 323971, Note_on_c, 0, 60, 52
1, 324084, Note_on_c, 0, 60, 0
1, 324084, Note_on_c, 0, 63, 52
1, 324112, Note_on_c, 0, 91, 0
1, 324112, Note_on_c, 0, 91, 68
1, 324196, Note_on_c, 0, 91, 0
1, 324196, Note_on_c, 0, 63, 0
1, 324196, Note_on_c, 0, 91, 75
1, 324199, Control_c, 0, 64, 0
1, 324199, Note_on_c, 0, 55, 55
1, 324220, Control_c, 0, 64, 127
1, 324309, Note_on_c, 0, 55, 0
1, 324309, Note_on_c, 0, 59, 50
1, 324422, Note_on_c, 0, 59, 0
1, 324422, Note_on_c, 0, 62, 50
1, 324450, Note_on_c, 0, 91, 0
1, 324450, Note_on_c, 0, 91, 67
1, 324536, Note_on_c, 0, 91, 0
1, 324536, Note_on_c, 0, 62, 0
1, 324536, Note_on_c, 0, 91, 72
1, 324539, Note_on_c, 0, 55, 54
1, 324544, Control_c, 0, 64, 0
1, 324568, Control_c, 0, 64, 127
1, 324650, Note_on_c, 0, 55, 0
1, 324650, Note_on_c, 0, 60, 50
1, 324765, Note_on_c, 0, 60, 0
1, 324765, Note_on_c, 0, 63, 50
1, 324793, Note_on_c, 0, 91, 0
1, 324793, Note_on_c, 0, 91, 64
1, 324880, Note_on_c, 0, 91, 0
1, 324880, Note_on_c, 0, 63, 0
1, 324880, Note_on_c, 0, 91, 71
1, 324883, Control_c, 0, 64, 0
1, 324883, Note_on_c, 0, 55, 53
1, 324904, Control_c, 0, 64, 127
1, 324994, Note_on_c, 0, 55, 0
1, 324994, Note_on_c, 0, 59, 51
1, 325051, Note_on_c, 0, 91, 0
1, 325108, Note_on_c, 0, 59, 0
1, 325108, Note_on_c, 0, 62, 52
1, 325223, Note_on_c, 0, 62, 0
1, 325223, Note_on_c, 0, 55, 58
1, 325231, Control_c, 0, 64, 0
1, 325256, Control_c, 0, 64, 127
1, 325338, Note_on_c, 0, 55, 0
1, 325338, Note_on_c, 0, 60, 54
1, 325455, Note_on_c, 0, 60, 0
1, 325455, Note_on_c, 0, 63, 54
1, 325484, Note_on_c, 0, 79, 72
1, 325534, Control_c, 0, 64, 0
1, 325550, Note_on_c, 0, 79, 0
1, 325572, Note_on_c, 0, 63, 0
1, 325572, Note_on_c, 0, 80, 77
1, 325572, Control_c, 0, 64, 127
1, 325575, Note_on_c, 0, 55, 58
1, 325689, Note_on_c, 0, 55, 0
1, 325689, Note_on_c, 0, 59, 55
1, 325747, Note_on_c, 0, 80, 0
1, 325747, Note_on_c, 0, 79, 73
1, 325806, Note_on_c, 0, 59, 0
1, 325806, Note_on_c, 0, 62, 55
1, 325836, Note_on_c, 0, 79, 0
1, 325925, Note_on_c, 0, 62, 0
1, 325925, Note_on_c, 0, 79, 75
1, 325925, Note_on_c, 0, 55, 58
1, 325963, Control_c, 0, 64, 0
1, 326014, Note_on_c, 0, 79, 0
1, 326014, Control_c, 0, 64, 127
1, 326044, Note_on_c, 0, 55, 0
1, 326044, Note_on_c, 0, 60, 55
1, 326103, Note_on_c, 0, 79, 73
1, 326163, Note_on_c, 0, 60, 0
1, 326163, Note_on_c, 0, 63, 55
1, 326193, Note_on_c, 0, 79, 0
1, 326284, Note_on_c, 0, 63, 0
1, 326284, Note_on_c, 0, 79, 71
1, 326284, Control_c, 0, 64, 0
1, 326287, Note_on_c, 0, 55, 58
1, 326325, Control_c, 0, 64, 127
1, 326401, Note_on_c, 0, 55, 0
1, 326401, Note_on_c, 0, 59, 54
1, 326459, Note_on_c, 0, 79, 0
1, 326518, Note_on_c, 0, 59, 0
1, 326518, Note_on_c, 0, 62, 54
1, 326635, Note_on_c, 0, 62, 0
1, 326635, Note_on_c, 0, 55, 58
1, 326643, Control_c, 0, 64, 0
1, 326668, Control_c, 0, 64, 127
1, 326752, Note_on_c, 0, 55, 0
1, 326752, Note_on_c, 0, 60, 54
1, 326869, Note_on_c, 0, 60, 0
1, 326869, Note_on_c, 0, 63, 54
1, 326898, Note_on_c, 0, 94, 72
1, 326948, Control_c, 0, 64, 0
1, 326964, Note_on_c, 0, 94, 0
1, 326986, Note_on_c, 0, 63, 0
1, 326986, Note_on_c, 0, 92, 77
1, 326986, Control_c, 0, 64, 127
1, 326989, Note_on_c, 0, 55, 58
1, 327103, Note_on_c, 0, 55, 0
1, 327103, Note_on_c, 0, 59, 55
1, 327161, Note_on_c, 0, 92, 0
1, 327161, Note_on_c, 0, 91, 73
1, 327220, Note_on_c, 0, 59, 0
1, 327220, Note_on_c, 0, 62, 55
1, 327250, Note_on_c, 0, 91, 0
1, 327339, Note_on_c, 0, 62, 0
1, 327339, Note_on_c, 0, 91, 75
1, 327339, Note_on_c, 0, 55, 58
1, 327377, Control_c, 0, 64, 0
1, 327428, Note_on_c, 0, 91, 0
1, 327428, Control_c, 0, 64, 127
1, 327458, Note_on_c, 0, 55, 0
1, 327458, Note_on_c, 0, 60, 55
1, 327517, Note_on_c, 0, 91, 73
1, 327577, Note_on_c, 0, 60, 0
1, 327577, Note_on_c, 0, 63, 55
1, 327607, Note_on_c, 0, 91, 0
1, 327698, Note_on_c, 0, 63, 0
1, 327698, Note_on_c, 0, 91, 71
1, 327698, Control_c, 0, 64, 0
1, 327701, Note_on_c, 0, 55, 58
1, 327739, Control_c, 0, 64, 127
1, 327815, Note_on_c, 0, 55, 0
1, 327815, Note_on_c, 0, 59, 54
1, 327873, Note_on_c, 0, 91, 0
1, 327932, Note_on_c, 0, 59, 0
1, 327932, Note_on_c, 0, 62, 54
1, 328049, Note_on_c, 0, 62, 0
1, 328049, Note_on_c, 0, 55, 58
1, 328057, Control_c, 0, 64, 0
1, 328082, Control_c, 0, 64, 127
1, 328166, Note_on_c, 0, 55, 0
1, 328166, Note_on_c, 0, 60, 54
1, 328283, Note_on_c, 0, 60, 0
1, 328283, Note_on_c, 0, 63, 54
1, 328312, Note_on_c, 0, 67, 72
1, 328362, Control_c, 0, 64, 0
1, 328378, Note_on_c, 0, 67, 0
1, 328400, Note_on_c, 0, 63, 0
1, 328400, Note_on_c, 0, 68, 77
1, 328400, Control_c, 0, 64, 127
1, 328403, Note_on_c, 0, 55, 58
1, 328517, Note_on_c, 0, 55, 0
1, 328517, Note_on_c, 0, 59, 55
1, 328575, Note_on_c, 0, 68, 0
1, 328575, Note_on_c, 0, 67, 73
1, 328634, Note_on_c, 0, 59, 0
1, 328634, Note_on_c, 0, 62, 55
1, 328664, Note_on_c, 0, 67, 0
1, 328753, Note_on_c, 0, 62, 0
1, 328753, Note_on_c, 0, 67, 75
1, 328753, Note_on_c, 0, 55, 58
1, 328791, Control_c, 0, 64, 0
1, 328842, Note_on_c, 0, 67, 0
1, 328842, Control_c, 0, 64, 127
1, 328872, Note_on_c, 0, 55, 0
1, 328872, Note_on_c, 0, 60, 55
1, 328931, Note_on_c, 0, 67, 73
1, 328991, Note_on_c, 0, 60, 0
1, 328991, Note_on_c, 0, 63, 55
1, 329021, Note_on_c, 0, 67, 0
1, 329112, Note_on_c, 0, 63, 0
1, 329112, Note_on_c, 0, 67, 71
1, 329112, Control_c, 0, 64, 0
1, 329115, Note_on_c, 0, 55, 58
1, 329153, Control_c, 0, 64, 127
1, 329229, Note_on_c, 0, 55, 0
1, 329229, Note_on_c, 0, 59, 54
1, 329287, Note_on_c, 0, 67, 0
1, 329346, Note_on_c, 0, 59, 0
1, 329346, Note_on_c, 0, 62, 54
1, 329463, Note_on_c, 0, 62, 0
1, 329463, Note_on_c, 0, 55, 58
1, 329471, Control_c, 0, 64, 0
1, 329496, Control_c, 0, 64, 127
1, 329580, Note_on_c, 0, 55, 0
1, 329580, Note_on_c, 0, 60, 54
1, 329697, Note_on_c, 0, 60, 0
1, 329697, Note_on_c, 0, 63, 54
1, 329726, Note_on_c, 0, 82, 72
1, 329776, Control_c, 0, 64, 0
1, 329792, Note_on_c, 0, 82, 0
1, 329814, Note_on_c, 0, 63, 0
1, 329814, Note_on_c, 0, 80, 77
1, 329814, Control_c, 0, 64, 127
1, 329817, Note_on_c, 0, 55, 58
1, 329931, Note_on_c, 0, 55, 0
1, 329931, Note_on_c, 0, 59, 55
1, 329989, Note_on_c, 0, 80, 0
1, 329989, Note_on_c, 0, 79, 73
1, 330048, Note_on_c, 0, 59, 0
1, 330048, Note_on_c, 0, 62, 55
1, 330078, Note_on_c, 0, 79, 0
1, 330167, Note_on_c, 0, 62, 0
1, 330167, Note_on_c, 0, 79, 75
1, 330167, Note_on_c, 0, 55, 58
1, 330205, Control_c, 0, 64, 0
1, 330256, Note_on_c, 0, 79, 0
1, 330256, Control_c, 0, 64, 127
1, 330286, Note_on_c, 0, 55, 0
1, 330286, Note_on_c, 0, 60, 55
1, 330345, Note_on_c, 0, 79, 73
1, 330405, Note_on_c, 0, 60, 0
1, 330405, Note_on_c, 0, 63, 55
1, 330436, Note_on_c, 0, 79, 0
1, 330526, Note_on_c, 0, 63, 0
1, 330526, Note_on_c, 0, 80, 77
1, 330526, Control_c, 0, 64, 127
1, 330529, Note_on_c, 0, 55, 58
1, 330646, Note_on_c, 0, 55, 0
1, 330646, Note_on_c, 0, 59, 55
1, 330706, Note_on_c, 0, 80, 0
1, 330706, Note_on_c, 0, 79, 73
1, 330766, Note_on_c, 0, 59, 0
1, 330766, Note_on_c, 0, 62, 55
1, 330796, Note_on_c, 0, 79, 0
1, 330885, Note_on_c, 0, 62, 0
1, 330885, Note_on_c, 0, 79, 75
1, 330885, Note_on_c, 0, 55, 58
1, 330923, Control_c, 0, 64, 0
1, 330974, Note_on_c, 0, 79, 0
1, 330974, Control_c, 0, 64, 127
1, 331004, Note_on_c, 0, 55, 0
1, 331004, Note_on_c, 0, 60, 55
1, 331063, Note_on_c, 0, 79, 73
1, 331127, Note_on_c, 0, 60, 0
1, 331127, Note_on_c, 0, 63, 55
1, 331160, Note_on_c, 0, 79, 0
1, 331256, Note_on_c, 0, 63, 0
1, 331256, Note_on_c, 0, 79, 77
1, 331256, Control_c, 0, 91, 127
1, 331259, Control_c, 0, 64, 0
1, 331259, Note_on_c, 0, 62, 58
1, 331259, Note_on_c, 0, 59, 58
1, 331262, Note_on_c, 0, 55, 58
1, 331442, Note_on_c, 0, 55, 0
1, 331442, Note_on_c, 0, 59, 0
1, 331442, Note_on_c, 0, 79, 0
1, 331445, Note_on_c, 0, 62, 0
1, 331629, Note_on_c, 0, 67, 118
1, 331629, Note_on_c, 0, 55, 102
1, 332449, Note_on_c, 0, 74, 71
1, 332631, Note_on_c, 0, 74, 0
1, 332631, Note_on_c, 0, 55, 0
1, 332631, Note_on_c, 0, 72, 80
1, 332634, Note_on_c, 0, 67, 0
1, 332634, Note_on_c, 0, 55, 61
1, 332797, Note_on_c, 0, 55, 0
1, 332797, Note_on_c, 0, 72, 0
1, 332797, Note_on_c, 0, 71, 57
1, 332800, Note_on_c, 0, 67, 52
1, 332880, Note_on_c, 0, 67, 0
1, 332880, Note_on_c, 0, 71, 0
1, 332963, Note_on_c, 0, 71, 61
1, 332963, Note_on_c, 0, 65, 52
1, 332963, Note_on_c, 0, 62, 47
1, 333045, Note_on_c, 0, 62, 0
1, 333045, Note_on_c, 0, 65, 0
1, 333045, Note_on_c, 0, 71, 0
1, 333127, Note_on_c, 0, 71, 57
1, 333127, Note_on_c, 0, 67, 52
1, 333211, Note_on_c, 0, 67, 0
1, 333211, Note_on_c, 0, 71, 0
1, 333295, Note_on_c, 0, 71, 73
1, 333295, Note_on_c, 0, 55, 62
1, 333459, Note_on_c, 0, 55, 0
1, 333459, Note_on_c, 0, 71, 0
1, 333459, Note_on_c, 0, 72, 60
1, 333462, Note_on_c, 0, 67, 49
1, 333541, Note_on_c, 0, 67, 0
1, 333541, Note_on_c, 0, 72, 0
1, 333623, Note_on_c, 0, 60, 50
1, 333623, Note_on_c, 0, 63, 55
1, 333705, Note_on_c, 0, 63, 0
1, 333705, Note_on_c, 0, 60, 0
1, 333788, Note_on_c, 0, 75, 70
1, 333788, Note_on_c, 0, 67, 52
1, 333956, Note_on_c, 0, 67, 0
1, 333956, Note_on_c, 0, 75, 0
1, 333956, Note_on_c, 0, 72, 80
1, 333959, Note_on_c, 0, 55, 61
1, 334119, Note_on_c, 0, 55, 0
1, 334119, Note_on_c, 0, 72, 0
1, 334119, Note_on_c, 0, 71, 57
1, 334122, Note_on_c, 0, 67, 52
1, 334201, Note_on_c, 0, 67, 0
1, 334201, Note_on_c, 0, 71, 0
1, 334282, Note_on_c, 0, 71, 62
1, 334282, Note_on_c, 0, 65, 52
1, 334282, Note_on_c, 0, 62, 47
1, 334365, Note_on_c, 0, 62, 0
1, 334365, Note_on_c, 0, 65, 0
1, 334365, Note_on_c, 0, 71, 0
1, 334448, Note_on_c, 0, 71, 57
1, 334448, Note_on_c, 0, 67, 50
1, 334533, Note_on_c, 0, 67, 0
1, 334533, Note_on_c, 0, 71, 0
1, 334618, Note_on_c, 0, 71, 75
1, 334618, Note_on_c, 0, 55, 62
1, 334784, Note_on_c, 0, 55, 0
1, 334784, Note_on_c, 0, 71, 0
1, 334784, Note_on_c, 0, 72, 66
1, 334787, Note_on_c, 0, 67, 52
1, 334870, Note_on_c, 0, 67, 0
1, 334870, Note_on_c, 0, 72, 0
1, 334956, Note_on_c, 0, 60, 50
1, 334956, Note_on_c, 0, 63, 55
1, 335045, Note_on_c, 0, 63, 0
1, 335045, Note_on_c, 0, 60, 0
1, 335134, Note_on_c, 0, 67, 55
1, 335245, Note_on_c, 0, 67, 0
1, 335356, Note_on_c, 0, 66, 91
1, 335356, Note_on_c, 0, 54, 79
1, 336519, Note_on_c, 0, 75, 71
1, 336698, Note_on_c, 0, 75, 0
1, 336698, Note_on_c, 0, 54, 0
1, 336698, Note_on_c, 0, 72, 80
1, 336701, Note_on_c, 0, 66, 0
1, 336701, Note_on_c, 0, 54, 61
1, 336864, Note_on_c, 0, 54, 0
1, 336864, Note_on_c, 0, 72, 0
1, 336864, Note_on_c, 0, 71, 56
1, 336867, Note_on_c, 0, 66, 51
1, 336947, Note_on_c, 0, 66, 0
1, 336947, Note_on_c, 0, 71, 0
1, 337030, Note_on_c, 0, 71, 61
1, 337030, Note_on_c, 0, 63, 51
1, 337030, Note_on_c, 0, 56, 46
1, 337112, Note_on_c, 0, 56, 0
1, 337112, Note_on_c, 0, 63, 0
1, 337112, Note_on_c, 0, 71, 0
1, 337194, Note_on_c, 0, 71, 57
1, 337194, Note_on_c, 0, 66, 52
1, 337278, Note_on_c, 0, 66, 0
1, 337278, Note_on_c, 0, 71, 0
1, 337362, Note_on_c, 0, 71, 71
1, 337362, Note_on_c, 0, 54, 61
1, 337526, Note_on_c, 0, 54, 0
1, 337526, Note_on_c, 0, 71, 0
1, 337526, Note_on_c, 0, 72, 58
1, 337529, Note_on_c, 0, 66, 48
1, 337608, Note_on_c, 0, 66, 0
1, 337608, Note_on_c, 0, 72, 0
1, 337690, Note_on_c, 0, 57, 48
1, 337690, Note_on_c, 0, 63, 53
1, 337772, Note_on_c, 0, 63, 0
1, 337772, Note_on_c, 0, 57, 0
1, 337854, Note_on_c, 0, 75, 68
1, 337854, Note_on_c, 0, 66, 51
1, 338023, Note_on_c, 0, 66, 0
1, 338023, Note_on_c, 0, 75, 0
1, 338023, Note_on_c, 0, 72, 77
1, 338026, Note_on_c, 0, 54, 59
1, 338187, Note_on_c, 0, 54, 0
1, 338187, Note_on_c, 0, 72, 0
1, 338187, Note_on_c, 0, 71, 55
1, 338190, Note_on_c, 0, 66, 50
1, 338269, Note_on_c, 0, 66, 0
1, 338269, Note_on_c, 0, 71, 0
1, 338351, Note_on_c, 0, 71, 60
1, 338351, Note_on_c, 0, 63, 49
1, 338351, Note_on_c, 0, 56, 45
1, 338434, Note_on_c, 0, 56, 0
1, 338434, Note_on_c, 0, 63, 0
1, 338434, Note_on_c, 0, 71, 0
1, 338517, Note_on_c, 0, 71, 54
1, 338517, Note_on_c, 0, 66, 48
1, 338604, Note_on_c, 0, 66, 0
1, 338604, Note_on_c, 0, 71, 0
1, 338690, Note_on_c, 0, 71, 71
1, 338690, Note_on_c, 0, 54, 60
1, 338857, Note_on_c, 0, 54, 0
1, 338857, Note_on_c, 0, 71, 0
1, 338857, Note_on_c, 0, 72, 61
1, 338860, Note_on_c, 0, 66, 50
1, 338944, Note_on_c, 0, 66, 0
1, 338944, Note_on_c, 0, 72, 0
1, 339032, Note_on_c, 0, 57, 47
1, 339032, Note_on_c, 0, 63, 52
1, 339121, Note_on_c, 0, 63, 0
1, 339121, Note_on_c, 0, 57, 0
1, 339211, Note_on_c, 0, 66, 52
1, 339319, Note_on_c, 0, 66, 0
1, 339427, Note_on_c, 0, 65, 83
1, 339427, Note_on_c, 0, 53, 74
1, 340581, Note_on_c, 0, 75, 68
1, 340751, Note_on_c, 0, 75, 0
1, 340751, Note_on_c, 0, 53, 0
1, 340751, Note_on_c, 0, 72, 77
1, 340754, Note_on_c, 0, 65, 0
1, 340754, Note_on_c, 0, 53, 59
1, 340913, Note_on_c, 0, 53, 0
1, 340913, Note_on_c, 0, 72, 0
1, 340913, Note_on_c, 0, 71, 59
1, 340916, Note_on_c, 0, 65, 53
1, 340995, Note_on_c, 0, 65, 0
1, 340995, Note_on_c, 0, 71, 0
1, 341076, Note_on_c, 0, 71, 64
1, 341076, Note_on_c, 0, 62, 53
1, 341076, Note_on_c, 0, 56, 48
1, 341158, Note_on_c, 0, 56, 0
1, 341158, Note_on_c, 0, 62, 0
1, 341158, Note_on_c, 0, 71, 0
1, 341240, Note_on_c, 0, 71, 59
1, 341240, Note_on_c, 0, 65, 54
1, 341324, Note_on_c, 0, 65, 0
1, 341324, Note_on_c, 0, 71, 0
1, 341408, Note_on_c, 0, 71, 71
1, 341408, Note_on_c, 0, 53, 60
1, 341572, Note_on_c, 0, 53, 0
1, 341572, Note_on_c, 0, 71, 0
1, 341572, Note_on_c, 0, 72, 58
1, 341575, Note_on_c, 0, 65, 47
1, 341654, Note_on_c, 0, 65, 0
1, 341654, Note_on_c, 0, 72, 0
1, 341737, Note_on_c, 0, 57, 48
1, 341737, Note_on_c, 0, 63, 53
1, 341819, Note_on_c, 0, 63, 0
1, 341819, Note_on_c, 0, 57, 0
1, 341901, Note_on_c, 0, 75, 67
1, 341901, Note_on_c, 0, 65, 51
1, 342069, Note_on_c, 0, 65, 0
1, 342069, Note_on_c, 0, 75, 0
1, 342069, Note_on_c, 0, 72, 77
1, 342072, Note_on_c, 0, 53, 59
1, 342232, Note_on_c, 0, 53, 0
1, 342232, Note_on_c, 0, 72, 0
1, 342232, Note_on_c, 0, 71, 59
1, 342235, Note_on_c, 0, 65, 53
1, 342313, Note_on_c, 0, 65, 0
1, 342313, Note_on_c, 0, 71, 0
1, 342395, Note_on_c, 0, 71, 64
1, 342395, Note_on_c, 0, 62, 53
1, 342395, Note_on_c, 0, 56, 48
1, 342476, Note_on_c, 0, 56, 0
1, 342476, Note_on_c, 0, 62, 0
1, 342476, Note_on_c, 0, 71, 0
1, 342558, Note_on_c, 0, 71, 59
1, 342558, Note_on_c, 0, 65, 52
1, 342642, Note_on_c, 0, 65, 0
1, 342642, Note_on_c, 0, 71, 0
1, 342726, Note_on_c, 0, 71, 72
1, 342726, Note_on_c, 0, 53, 60
1, 342891, Note_on_c, 0, 53, 0
1, 342891, Note_on_c, 0, 71, 0
1, 342891, Note_on_c, 0, 72, 63
1, 342894, Note_on_c, 0, 65, 51
1, 342978, Note_on_c, 0, 65, 0
1, 342978, Note_on_c, 0, 72, 0
1, 343065, Note_on_c, 0, 72, 78
1, 343065, Control_c, 0, 64, 127
1, 343065, Note_on_c, 0, 57, 53
1, 343068, Note_on_c, 0, 63, 59
1, 343229, Note_on_c, 0, 63, 0
1, 343229, Note_on_c, 0, 72, 0
1, 343229, Note_on_c, 0, 79, 72
1, 343232, Note_on_c, 0, 57, 0
1, 343232, Note_on_c, 0, 65, 59
1, 343397, Note_on_c, 0, 65, 0
1, 343397, Note_on_c, 0, 79, 0
1, 343397, Note_on_c, 0, 79, 83
1, 343400, Control_c, 0, 64, 0
1, 343400, Note_on_c, 0, 53, 68
1, 343473, Control_c, 0, 64, 127
1, 343558, Note_on_c, 0, 53, 0
1, 343558, Note_on_c, 0, 79, 0
1, 343558, Note_on_c, 0, 77, 75
1, 343561, Note_on_c, 0, 65, 57
1, 343722, Note_on_c, 0, 65, 0
1, 343722, Note_on_c, 0, 77, 0
1, 343722, Note_on_c, 0, 77, 79
1, 343725, Note_on_c, 0, 62, 59
1, 343725, Note_on_c, 0, 58, 59
1, 343888, Note_on_c, 0, 58, 0
1, 343888, Note_on_c, 0, 77, 0
1, 343888, Note_on_c, 0, 74, 76
1, 343891, Note_on_c, 0, 62, 0
1, 343891, Note_on_c, 0, 65, 57
1, 344054, Note_on_c, 0, 65, 0
1, 344054, Note_on_c, 0, 74, 0
1, 344054, Note_on_c, 0, 71, 81
1, 344057, Control_c, 0, 64, 0
1, 344057, Note_on_c, 0, 53, 61
1, 344093, Control_c, 0, 64, 127
1, 344220, Note_on_c, 0, 53, 0
1, 344220, Note_on_c, 0, 71, 0
1, 344220, Note_on_c, 0, 72, 71
1, 344223, Note_on_c, 0, 65, 57
1, 344298, Control_c, 0, 64, 0
1, 344303, Note_on_c, 0, 65, 0
1, 344303, Note_on_c, 0, 72, 0
1, 344386, Note_on_c, 0, 72, 81
1, 344386, Control_c, 0, 64, 127
1, 344386, Note_on_c, 0, 57, 53
1, 344389, Note_on_c, 0, 63, 59
1, 344551, Note_on_c, 0, 63, 0
1, 344551, Note_on_c, 0, 72, 0
1, 344551, Note_on_c, 0, 79, 74
1, 344554, Note_on_c, 0, 57, 0
1, 344554, Note_on_c, 0, 65, 59
1, 344719, Note_on_c, 0, 65, 0
1, 344719, Note_on_c, 0, 79, 0
1, 344719, Note_on_c, 0, 79, 88
1, 344722, Control_c, 0, 64, 0
1, 344722, Note_on_c, 0, 53, 68
1, 344795, Control_c, 0, 64, 127
1, 344880, Note_on_c, 0, 53, 0
1, 344880, Note_on_c, 0, 79, 0
1, 344880, Note_on_c, 0, 77, 79
1, 344883, Note_on_c, 0, 65, 57
1, 345044, Note_on_c, 0, 65, 0
1, 345044, Note_on_c, 0, 77, 0
1, 345044, Note_on_c, 0, 77, 81
1, 345047, Note_on_c, 0, 62, 59
1, 345047, Note_on_c, 0, 58, 59
1, 345210, Note_on_c, 0, 58, 0
1, 345210, Note_on_c, 0, 77, 0
1, 345210, Note_on_c, 0, 74, 76
1, 345213, Note_on_c, 0, 62, 0
1, 345213, Note_on_c, 0, 65, 57
1, 345376, Note_on_c, 0, 65, 0
1, 345376, Note_on_c, 0, 74, 0
1, 345376, Note_on_c, 0, 71, 80
1, 345379, Control_c, 0, 64, 0
1, 345379, Note_on_c, 0, 53, 61
1, 345415, Control_c, 0, 64, 127
1, 345542, Note_on_c, 0, 53, 0
1, 345542, Note_on_c, 0, 71, 0
1, 345542, Note_on_c, 0, 72, 68
1, 345545, Note_on_c, 0, 65, 57
1, 345708, Note_on_c, 0, 65, 0
1, 345708, Note_on_c, 0, 72, 0
1, 345708, Note_on_c, 0, 75, 72
1, 345711, Note_on_c, 0, 63, 57
1, 345711, Note_on_c, 0, 57, 57
1, 345711, Control_c, 0, 64, 0
1, 345752, Control_c, 0, 64, 127
1, 345873, Note_on_c, 0, 57, 0
1, 345873, Note_on_c, 0, 75, 0
1, 345873, Note_on_c, 0, 69, 64
1, 345876, Note_on_c, 0, 63, 0
1, 345876, Note_on_c, 0, 65, 57
1, 346039, Note_on_c, 0, 65, 0
1, 346039, Note_on_c, 0, 69, 0
1, 346039, Control_c, 0, 64, 0
1, 346533, Note_on_c, 0, 86, 110
1, 346533, Note_on_c, 0, 74, 96
1, 346533, Note_on_c, 0, 66, 95
1, 346536, Note_on_c, 0, 54, 83
1, 346664, Note_on_c, 0, 74, 0
1, 346664, Note_on_c, 0, 86, 0
1, 346664, Note_on_c, 0, 84, 117
1, 346667, Note_on_c, 0, 66, 0
1, 346667, Note_on_c, 0, 54, 0
1, 346667, Note_on_c, 0, 72, 101
1, 346670, Control_c, 0, 64, 127
1, 346670, Note_on_c, 0, 55, 88
1, 346670, Note_on_c, 0, 67, 100
1, 346790, Note_on_c, 0, 72, 0
1, 346790, Note_on_c, 0, 84, 0
1, 346790, Note_on_c, 0, 82, 110
1, 346793, Note_on_c, 0, 70, 96
1, 346854, Note_on_c, 0, 70, 0
1, 346854, Note_on_c, 0, 82, 0
1, 346911, Control_c, 0, 64, 0
1, 346918, Note_on_c, 0, 67, 0
1, 346918, Note_on_c, 0, 82, 110
1, 346918, Note_on_c, 0, 70, 96
1, 346921, Note_on_c, 0, 55, 0
1, 346921, Note_on_c, 0, 50, 79
1, 346921, Note_on_c, 0, 62, 90
1, 346983, Note_on_c, 0, 70, 0
1, 346983, Note_on_c, 0, 82, 0
1, 347047, Note_on_c, 0, 70, 96
1, 347047, Note_on_c, 0, 82, 110
1, 347112, Note_on_c, 0, 82, 0
1, 347112, Note_on_c, 0, 70, 0
1, 347176, Note_on_c, 0, 62, 0
1, 347176, Note_on_c, 0, 67, 101
1, 347176, Note_on_c, 0, 79, 117
1, 347179, Note_on_c, 0, 50, 0
1, 347179, Note_on_c, 0, 51, 89
1, 347179, Note_on_c, 0, 63, 101
1, 347206, Control_c, 0, 64, 127
1, 347302, Note_on_c, 0, 79, 0
1, 347302, Note_on_c, 0, 67, 0
1, 347302, Note_on_c, 0, 65, 97
1, 347305, Note_on_c, 0, 77, 112
1, 347367, Note_on_c, 0, 77, 0
1, 347367, Note_on_c, 0, 65, 0
1, 347431, Note_on_c, 0, 63, 0
1, 347431, Note_on_c, 0, 65, 97
1, 347431, Note_on_c, 0, 77, 112
1, 347434, Note_on_c, 0, 51, 0
1, 347434, Note_on_c, 0, 45, 79
1, 347434, Note_on_c, 0, 57, 91
1, 347450, Control_c, 0, 64, 0
1, 347496, Note_on_c, 0, 77, 0
1, 347496, Note_on_c, 0, 65, 0
1, 347560, Note_on_c, 0, 57, 0
1, 347560, Note_on_c, 0, 65, 97
1, 347560, Note_on_c, 0, 77, 112
1, 347563, Note_on_c, 0, 45, 0
1, 347563, Note_on_c, 0, 45, 79
1, 347563, Note_on_c, 0, 57, 91
1, 347624, Note_on_c, 0, 77, 0
1, 347624, Note_on_c, 0, 65, 0
1, 347689, Note_on_c, 0, 57, 0
1, 347689, Note_on_c, 0, 65, 101
1, 347689, Note_on_c, 0, 75, 117
1, 347692, Note_on_c, 0, 45, 0
1, 347692, Note_on_c, 0, 46, 88
1, 347692, Note_on_c, 0, 58, 100
1, 347700, Control_c, 0, 64, 127
1, 347815, Note_on_c, 0, 75, 0
1, 347815, Note_on_c, 0, 65, 0
1, 347815, Note_on_c, 0, 62, 97
1, 347818, Note_on_c, 0, 74, 112
1, 347880, Note_on_c, 0, 74, 0
1, 347880, Note_on_c, 0, 62, 0
1, 347944, Note_on_c, 0, 58, 0
1, 347944, Note_on_c, 0, 62, 97
1, 347944, Note_on_c, 0, 74, 112
1, 347947, Note_on_c, 0, 46, 0
1, 347947, Note_on_c, 0, 42, 79
1, 347947, Note_on_c, 0, 54, 91
1, 347956, Control_c, 0, 64, 0
1, 348009, Note_on_c, 0, 74, 0
1, 348009, Note_on_c, 0, 62, 0
1, 348073, Note_on_c, 0, 62, 97
1, 348073, Note_on_c, 0, 74, 112
1, 348138, Note_on_c, 0, 74, 0
1, 348138, Note_on_c, 0, 62, 0
1, 348202, Note_on_c, 0, 54, 0
1, 348202, Note_on_c, 0, 60, 101
1, 348202, Note_on_c, 0, 72, 116
1, 348205, Note_on_c, 0, 42, 0
1, 348205, Note_on_c, 0, 43, 88
1, 348205, Note_on_c, 0, 55, 100
1, 348220, Control_c, 0, 64, 127
1, 348327, Note_on_c, 0, 72, 0
1, 348327, Note_on_c, 0, 60, 0
1, 348327, Note_on_c, 0, 58, 97
1, 348330, Note_on_c, 0, 70, 112
1, 348392, Note_on_c, 0, 70, 0
1, 348392, Note_on_c, 0, 58, 0
1, 348452, Control_c, 0, 64, 0
1, 348456, Note_on_c, 0, 55, 0
1, 348456, Note_on_c, 0, 58, 97
1, 348456, Note_on_c, 0, 70, 112
1, 348459, Note_on_c, 0, 43, 0
1, 348459, Note_on_c, 0, 38, 79
1, 348459, Note_on_c, 0, 50, 91
1, 348520, Note_on_c, 0, 70, 0
1, 348520, Note_on_c, 0, 58, 0
1, 348584, Note_on_c, 0, 50, 0
1, 348584, Note_on_c, 0, 58, 97
1, 348584, Note_on_c, 0, 70, 112
1, 348587, Note_on_c, 0, 38, 0
1, 348587, Note_on_c, 0, 38, 79
1, 348587, Note_on_c, 0, 50, 91
1, 348649, Note_on_c, 0, 70, 0
1, 348649, Note_on_c, 0, 58, 0
1, 348713, Note_on_c, 0, 50, 0
1, 348713, Note_on_c, 0, 57, 101
1, 348713, Note_on_c, 0, 69, 116
1, 348716, Note_on_c, 0, 38, 0
1, 348716, Note_on_c, 0, 39, 88
1, 348716, Note_on_c, 0, 51, 100
1, 348750, Control_c, 0, 64, 127
1, 348838, Note_on_c, 0, 69, 0
1, 348838, Note_on_c, 0, 57, 0
1, 348838, Note_on_c, 0, 55, 97
1, 348841, Note_on_c, 0, 67, 112
1, 348903, Note_on_c, 0, 67, 0
1, 348903, Note_on_c, 0, 55, 0
1, 348967, Note_on_c, 0, 51, 0
1, 348967, Note_on_c, 0, 55, 97
1, 348967, Note_on_c, 0, 67, 112
1, 348970, Note_on_c, 0, 39, 0
1, 348970, Note_on_c, 0, 48, 91
1, 349001, Control_c, 0, 64, 0
1, 349031, Note_on_c, 0, 67, 0
1, 349031, Note_on_c, 0, 55, 0
1, 349096, Note_on_c, 0, 48, 0
1, 349096, Note_on_c, 0, 55, 97
1, 349096, Note_on_c, 0, 67, 112
1, 349099, Note_on_c, 0, 50, 91
1, 349160, Note_on_c, 0, 67, 0
1, 349160, Note_on_c, 0, 55, 0
1, 349225, Note_on_c, 0, 50, 0
1, 349225, Note_on_c, 0, 69, 101
1, 349225, Note_on_c, 0, 81, 116
1, 349228, Note_on_c, 0, 39, 88
1, 349228, Note_on_c, 0, 51, 100
1, 349262, Control_c, 0, 64, 127
1, 349350, Note_on_c, 0, 81, 0
1, 349350, Note_on_c, 0, 69, 0
1, 349350, Note_on_c, 0, 67, 97
1, 349353, Note_on_c, 0, 79, 112
1, 349415, Note_on_c, 0, 79, 0
1, 349415, Note_on_c, 0, 67, 0
1, 349479, Note_on_c, 0, 51, 0
1, 349479, Note_on_c, 0, 67, 97
1, 349479, Note_on_c, 0, 79, 112
1, 349482, Note_on_c, 0, 39, 0
1, 349482, Note_on_c, 0, 48, 91
1, 349513, Control_c, 0, 64, 0
1, 349543, Note_on_c, 0, 79, 0
1, 349543, Note_on_c, 0, 67, 0
1, 349608, Note_on_c, 0, 48, 0
1, 349608, Note_on_c, 0, 67, 97
1, 349608, Note_on_c, 0, 79, 112
1, 349611, Note_on_c, 0, 50, 91
1, 349672, Note_on_c, 0, 79, 0
1, 349672, Note_on_c, 0, 67, 0
1, 349737, Note_on_c, 0, 50, 0
1, 349737, Note_on_c, 0, 81, 101
1, 349737, Note_on_c, 0, 93, 116
1, 349740, Note_on_c, 0, 39, 88
1, 349740, Note_on_c, 0, 51, 100
1, 349774, Control_c, 0, 64, 127
1, 349862, Note_on_c, 0, 93, 0
1, 349862, Note_on_c, 0, 81, 0
1, 349862, Note_on_c, 0, 79, 97
1, 349865, Note_on_c, 0, 91, 112
1, 349927, Note_on_c, 0, 91, 0
1, 349927, Note_on_c, 0, 79, 0
1, 349991, Note_on_c, 0, 51, 0
1, 349991, Note_on_c, 0, 79, 97
1, 349991, Note_on_c, 0, 91, 112
1, 349994, Note_on_c, 0, 39, 0
1, 349994, Note_on_c, 0, 48, 91
1, 350025, Control_c, 0, 64, 0
1, 350055, Note_on_c, 0, 91, 0
1, 350055, Note_on_c, 0, 79, 0
1, 350120, Note_on_c, 0, 48, 0
1, 350120, Note_on_c, 0, 79, 97
1, 350120, Note_on_c, 0, 91, 112
1, 350123, Note_on_c, 0, 50, 91
1, 350184, Note_on_c, 0, 91, 0
1, 350184, Note_on_c, 0, 79, 0
1, 350249, Note_on_c, 0, 50, 0
1, 350249, Note_on_c, 0, 78, 101
1, 350249, Note_on_c, 0, 90, 116
1, 350252, Note_on_c, 0, 39, 88
1, 350252, Note_on_c, 0, 51, 100
1, 350286, Control_c, 0, 64, 127
1, 350374, Note_on_c, 0, 90, 0
1, 350374, Note_on_c, 0, 78, 0
1, 350374, Note_on_c, 0, 79, 97
1, 350377, Note_on_c, 0, 39, 0
1, 350377, Note_on_c, 0, 51, 0
1, 350377, Note_on_c, 0, 91, 112
1, 350380, Note_on_c, 0, 51, 91
1, 350439, Note_on_c, 0, 51, 0
1, 350439, Note_on_c, 0, 91, 0
1, 350439, Note_on_c, 0, 79, 0
1, 350503, Note_on_c, 0, 79, 97
1, 350503, Note_on_c, 0, 91, 112
1, 350503, Note_on_c, 0, 48, 91
1, 350537, Control_c, 0, 64, 0
1, 350567, Note_on_c, 0, 91, 0
1, 350567, Note_on_c, 0, 79, 0
1, 350632, Note_on_c, 0, 48, 0
1, 350632, Note_on_c, 0, 79, 97
1, 350632, Note_on_c, 0, 91, 112
1, 350635, Note_on_c, 0, 50, 91
1, 350703, Note_on_c, 0, 91, 0
1, 350703, Note_on_c, 0, 79, 0
1, 350775, Note_on_c, 0, 79, 114
1, 350775, Note_on_c, 0, 82, 114
1, 350775, Note_on_c, 0, 87, 114
1, 350778, Note_on_c, 0, 50, 0
1, 350778, Note_on_c, 0, 91, 126
1, 350778, Note_on_c, 0, 51, 94
1, 350781, Note_on_c, 0, 55, 94
1, 350781, Note_on_c, 0, 58, 94
1, 350781, Note_on_c, 0, 63, 106
1, 350870, Control_c, 0, 64, 127
1, 351061, Note_on_c, 0, 91, 0
1, 351061, Note_on_c, 0, 79, 0
1, 351061, Note_on_c, 0, 82, 0
1, 351064, Note_on_c, 0, 87, 0
1, 351064, Note_on_c, 0, 51, 0
1, 351064, Note_on_c, 0, 63, 0
1, 351067, Note_on_c, 0, 58, 0
1, 351067, Note_on_c, 0, 55, 0
1, 351109, Control_c, 0, 64, 0
1, 351919, Note_on_c, 0, 81, 114
1, 351919, Note_on_c, 0, 87, 114
1, 351919, Note_on_c, 0, 93, 126
1, 351922, Control_c, 0, 64, 127
1, 351922, Note_on_c, 0, 41, 94
1, 351922, Note_on_c, 0, 48, 94
1, 351925, Note_on_c, 0, 53, 106
1, 352205, Note_on_c, 0, 93, 0
1, 352205, Note_on_c, 0, 81, 0
1, 352205, Note_on_c, 0, 87, 0
1, 352208, Note_on_c, 0, 41, 0
1, 352208, Note_on_c, 0, 48, 0
1, 352208, Note_on_c, 0, 53, 0
1, 352300, Control_c, 0, 64, 0
1, 353104, Note_on_c, 0, 82, 126
1, 353104, Note_on_c, 0, 86, 126
1, 353104, Note_on_c, 0, 94, 126
1, 353107, Control_c, 0, 64, 127
1, 353107, Note_on_c, 0, 34, 106
1, 353198, Note_on_c, 0, 34, 0
1, 353198, Note_on_c, 0, 41, 76
1, 353289, Note_on_c, 0, 41, 0
1, 353289, Note_on_c, 0, 46, 76
1, 353380, Note_on_c, 0, 94, 0
1, 353380, Note_on_c, 0, 82, 0
1, 353380, Note_on_c, 0, 86, 0
1, 353383, Note_on_c, 0, 46, 0
1, 353383, Note_on_c, 0, 34, 73
1, 353392, Control_c, 0, 64, 0
1, 353427, Control_c, 0, 64, 127
1, 353469, Note_on_c, 0, 34, 0
1, 353469, Note_on_c, 0, 41, 69
1, 353514, Note_on_c, 0, 86, 78
1, 353514, Note_on_c, 0, 75, 70
1, 353558, Note_on_c, 0, 41, 0
1, 353558, Note_on_c, 0, 46, 69
1, 353645, Note_on_c, 0, 75, 0
1, 353645, Note_on_c, 0, 86, 0
1, 353645, Note_on_c, 0, 84, 82
1, 353648, Note_on_c, 0, 46, 0
1, 353648, Note_on_c, 0, 77, 73
1, 353648, Control_c, 0, 64, 0
1, 353651, Note_on_c, 0, 34, 74
1, 353675, Control_c, 0, 64, 127
1, 353729, Note_on_c, 0, 34, 0
1, 353729, Note_on_c, 0, 41, 69
1, 353771, Note_on_c, 0, 84, 0
1, 353771, Note_on_c, 0, 82, 78
1, 353814, Note_on_c, 0, 41, 0
1, 353814, Note_on_c, 0, 46, 69
1, 353835, Note_on_c, 0, 82, 0
1, 353892, Control_c, 0, 64, 0
1, 353900, Note_on_c, 0, 77, 0
1, 353900, Note_on_c, 0, 82, 78
1, 353900, Note_on_c, 0, 74, 70
1, 353903, Note_on_c, 0, 46, 0
1, 353903, Note_on_c, 0, 34, 73
1, 353930, Control_c, 0, 64, 127
1, 353964, Note_on_c, 0, 74, 0
1, 353964, Note_on_c, 0, 82, 0
1, 353986, Note_on_c, 0, 34, 0
1, 353986, Note_on_c, 0, 41, 69
1, 354029, Note_on_c, 0, 74, 70
1, 354029, Note_on_c, 0, 82, 78
1, 354072, Note_on_c, 0, 41, 0
1, 354072, Note_on_c, 0, 46, 69
1, 354093, Note_on_c, 0, 82, 0
1, 354093, Note_on_c, 0, 74, 0
1, 354158, Note_on_c, 0, 46, 0
1, 354158, Note_on_c, 0, 75, 73
1, 354158, Note_on_c, 0, 79, 82
1, 354161, Control_c, 0, 64, 0
1, 354161, Note_on_c, 0, 34, 73
1, 354187, Control_c, 0, 64, 127
1, 354242, Note_on_c, 0, 34, 0
1, 354242, Note_on_c, 0, 41, 69
1, 354284, Note_on_c, 0, 79, 0
1, 354284, Note_on_c, 0, 75, 0
1, 354284, Note_on_c, 0, 77, 79
1, 354327, Note_on_c, 0, 41, 0
1, 354327, Note_on_c, 0, 46, 69
1, 354348, Note_on_c, 0, 77, 0
1, 354413, Note_on_c, 0, 46, 0
1, 354413, Note_on_c, 0, 69, 70
1, 354413, Note_on_c, 0, 77, 79
1, 354416, Note_on_c, 0, 34, 72
1, 354443, Control_c, 0, 64, 0
1, 354473, Control_c, 0, 64, 127
1, 354477, Note_on_c, 0, 77, 0
1, 354477, Note_on_c, 0, 69, 0
1, 354498, Note_on_c, 0, 34, 0
1, 354498, Note_on_c, 0, 41, 69
1, 354541, Note_on_c, 0, 69, 70
1, 354541, Note_on_c, 0, 77, 79
1, 354584, Note_on_c, 0, 41, 0
1, 354584, Note_on_c, 0, 46, 69
1, 354606, Note_on_c, 0, 77, 0
1, 354606, Note_on_c, 0, 69, 0
1, 354670, Note_on_c, 0, 46, 0
1, 354670, Note_on_c, 0, 70, 73
1, 354670, Note_on_c, 0, 75, 82
1, 354673, Note_on_c, 0, 34, 73
1, 354688, Control_c, 0, 64, 0
1, 354709, Control_c, 0, 64, 127
1, 354755, Note_on_c, 0, 34, 0
1, 354755, Note_on_c, 0, 41, 69
1, 354797, Note_on_c, 0, 75, 0
1, 354797, Note_on_c, 0, 74, 79
1, 354840, Note_on_c, 0, 41, 0
1, 354840, Note_on_c, 0, 46, 69
1, 354861, Note_on_c, 0, 74, 0
1, 354926, Note_on_c, 0, 70, 0
1, 354926, Note_on_c, 0, 64, 70
1, 354926, Note_on_c, 0, 74, 79
1, 354929, Note_on_c, 0, 46, 0
1, 354929, Note_on_c, 0, 34, 73
1, 354947, Control_c, 0, 64, 0
1, 354969, Control_c, 0, 64, 127
1, 354990, Note_on_c, 0, 74, 0
1, 354990, Note_on_c, 0, 64, 0
1, 355012, Note_on_c, 0, 34, 0
1, 355012, Note_on_c, 0, 41, 69
1, 355054, Note_on_c, 0, 64, 70
1, 355054, Note_on_c, 0, 74, 79
1, 355097, Note_on_c, 0, 41, 0
1, 355097, Note_on_c, 0, 46, 69
1, 355119, Note_on_c, 0, 74, 0
1, 355119, Note_on_c, 0, 64, 0
1, 355183, Note_on_c, 0, 46, 0
1, 355183, Note_on_c, 0, 65, 73
1, 355183, Note_on_c, 0, 72, 82
1, 355186, Note_on_c, 0, 34, 72
1, 355213, Control_c, 0, 64, 0
1, 355235, Control_c, 0, 64, 127
1, 355267, Note_on_c, 0, 34, 0
1, 355267, Note_on_c, 0, 41, 69
1, 355309, Note_on_c, 0, 72, 0
1, 355309, Note_on_c, 0, 70, 79
1, 355352, Note_on_c, 0, 41, 0
1, 355352, Note_on_c, 0, 46, 69
1, 355373, Note_on_c, 0, 70, 0
1, 355437, Note_on_c, 0, 65, 0
1, 355437, Note_on_c, 0, 62, 70
1, 355437, Note_on_c, 0, 70, 79
1, 355440, Note_on_c, 0, 46, 0
1, 355440, Note_on_c, 0, 34, 74
1, 355456, Control_c, 0, 64, 0
1, 355483, Control_c, 0, 64, 127
1, 355501, Note_on_c, 0, 70, 0
1, 355501, Note_on_c, 0, 62, 0
1, 355523, Note_on_c, 0, 34, 0
1, 355523, Note_on_c, 0, 41, 69
1, 355566, Note_on_c, 0, 62, 70
1, 355566, Note_on_c, 0, 70, 79
1, 355609, Note_on_c, 0, 41, 0
1, 355609, Note_on_c, 0, 46, 69
1, 355630, Note_on_c, 0, 70, 0
1, 355630, Note_on_c, 0, 62, 0
1, 355694, Note_on_c, 0, 46, 0
1, 355694, Note_on_c, 0, 63, 73
1, 355694, Note_on_c, 0, 67, 82
1, 355697, Note_on_c, 0, 34, 73
1, 355709, Control_c, 0, 64, 0
1, 355731, Control_c, 0, 64, 127
1, 355778, Note_on_c, 0, 34, 0
1, 355778, Note_on_c, 0, 41, 69
1, 355820, Note_on_c, 0, 67, 0
1, 355820, Note_on_c, 0, 65, 79
1, 355863, Note_on_c, 0, 41, 0
1, 355863, Note_on_c, 0, 46, 69
1, 355884, Note_on_c, 0, 65, 0
1, 355948, Note_on_c, 0, 63, 0
1, 355948, Note_on_c, 0, 57, 70
1, 355948, Note_on_c, 0, 65, 80
1, 355951, Note_on_c, 0, 46, 0
1, 355951, Note_on_c, 0, 34, 74
1, 355967, Control_c, 0, 64, 0
1, 355990, Control_c, 0, 64, 127
1, 356013, Note_on_c, 0, 65, 0
1, 356013, Note_on_c, 0, 57, 0
1, 356034, Note_on_c, 0, 34, 0
1, 356034, Note_on_c, 0, 41, 70
1, 356077, Note_on_c, 0, 57, 71
1, 356077, Note_on_c, 0, 65, 80
1, 356120, Note_on_c, 0, 41, 0
1, 356120, Note_on_c, 0, 46, 70
1, 356142, Note_on_c, 0, 65, 0
1, 356142, Note_on_c, 0, 57, 0
1, 356206, Note_on_c, 0, 46, 0
1, 356206, Note_on_c, 0, 63, 74
1, 356206, Note_on_c, 0, 67, 84
1, 356209, Note_on_c, 0, 34, 74
1, 356221, Control_c, 0, 64, 0
1, 356243, Control_c, 0, 64, 127
1, 356290, Note_on_c, 0, 34, 0
1, 356290, Note_on_c, 0, 41, 71
1, 356332, Note_on_c, 0, 67, 0
1, 356332, Note_on_c, 0, 65, 82
1, 356375, Note_on_c, 0, 41, 0
1, 356375, Note_on_c, 0, 46, 71
1, 356396, Note_on_c, 0, 65, 0
1, 356460, Note_on_c, 0, 63, 0
1, 356460, Note_on_c, 0, 57, 73
1, 356460, Note_on_c, 0, 65, 82
1, 356463, Note_on_c, 0, 46, 0
1, 356463, Note_on_c, 0, 34, 77
1, 356475, Control_c, 0, 64, 0
1, 356502, Control_c, 0, 64, 127
1, 356525, Note_on_c, 0, 65, 0
1, 356525, Note_on_c, 0, 57, 0
1, 356546, Note_on_c, 0, 34, 0
1, 356546, Note_on_c, 0, 41, 72
1, 356589, Note_on_c, 0, 57, 73
1, 356589, Note_on_c, 0, 65, 83
1, 356632, Note_on_c, 0, 41, 0
1, 356632, Note_on_c, 0, 46, 72
1, 356654, Note_on_c, 0, 65, 0
1, 356654, Note_on_c, 0, 57, 0
1, 356718, Note_on_c, 0, 46, 0
1, 356718, Note_on_c, 0, 63, 76
1, 356718, Note_on_c, 0, 67, 87
1, 356721, Note_on_c, 0, 34, 76
1, 356733, Control_c, 0, 64, 0
1, 356755, Control_c, 0, 64, 127
1, 356802, Note_on_c, 0, 34, 0
1, 356802, Note_on_c, 0, 41, 73
1, 356844, Note_on_c, 0, 67, 0
1, 356844, Note_on_c, 0, 65, 84
1, 356887, Note_on_c, 0, 41, 0
1, 356887, Note_on_c, 0, 46, 73
1, 356908, Note_on_c, 0, 65, 0
1, 356972, Note_on_c, 0, 63, 0
1, 356972, Note_on_c, 0, 57, 75
1, 356972, Note_on_c, 0, 65, 84
1, 356975, Note_on_c, 0, 46, 0
1, 356975, Note_on_c, 0, 34, 79
1, 356987, Control_c, 0, 64, 0
1, 357014, Control_c, 0, 64, 127
1, 357037, Note_on_c, 0, 65, 0
1, 357037, Note_on_c, 0, 57, 0
1, 357058, Note_on_c, 0, 34, 0
1, 357058, Note_on_c, 0, 41, 74
1, 357101, Note_on_c, 0, 65, 85
1, 357101, Note_on_c, 0, 57, 75
1, 357144, Note_on_c, 0, 41, 0
1, 357144, Note_on_c, 0, 46, 74
1, 357166, Note_on_c, 0, 57, 0
1, 357166, Note_on_c, 0, 65, 0
1, 357230, Note_on_c, 0, 57, 71
1, 357230, Note_on_c, 0, 67, 91
1, 357230, Note_on_c, 0, 63, 71
1, 357233, Note_on_c, 0, 46, 0
1, 357233, Control_c, 0, 64, 0
1, 357233, Note_on_c, 0, 34, 79
1, 357245, Control_c, 0, 64, 0
1, 357268, Control_c, 0, 64, 127
1, 357316, Note_on_c, 0, 34, 0
1, 357316, Note_on_c, 0, 41, 75
1, 357359, Note_on_c, 0, 67, 0
1, 357359, Note_on_c, 0, 65, 87
1, 357402, Note_on_c, 0, 41, 0
1, 357402, Note_on_c, 0, 46, 75
1, 357423, Note_on_c, 0, 65, 0
1, 357488, Note_on_c, 0, 63, 0
1, 357488, Note_on_c, 0, 57, 0
1, 357488, Note_on_c, 0, 70, 95
1, 357491, Note_on_c, 0, 46, 0
1, 357491, Note_on_c, 0, 65, 83
1, 357491, Note_on_c, 0, 63, 83
1, 357494, Note_on_c, 0, 34, 81
1, 357502, Control_c, 0, 64, 0
1, 357543, Control_c, 0, 64, 127
1, 357571, Note_on_c, 0, 34, 0
1, 357571, Note_on_c, 0, 41, 76
1, 357613, Note_on_c, 0, 70, 0
1, 357613, Note_on_c, 0, 69, 91
1, 357655, Note_on_c, 0, 41, 0
1, 357655, Note_on_c, 0, 46, 76
1, 357676, Note_on_c, 0, 69, 0
1, 357740, Note_on_c, 0, 65, 0
1, 357740, Note_on_c, 0, 63, 0
1, 357740, Note_on_c, 0, 74, 99
1, 357743, Note_on_c, 0, 46, 0
1, 357743, Note_on_c, 0, 69, 87
1, 357743, Note_on_c, 0, 63, 87
1, 357746, Note_on_c, 0, 34, 79
1, 357746, Control_c, 0, 64, 0
1, 357746, Control_c, 0, 64, 0
1, 357754, Control_c, 0, 64, 0
1, 357776, Control_c, 0, 64, 127
1, 357822, Note_on_c, 0, 34, 0
1, 357822, Note_on_c, 0, 41, 75
1, 357863, Note_on_c, 0, 74, 0
1, 357863, Note_on_c, 0, 72, 95
1, 357906, Note_on_c, 0, 41, 0
1, 357906, Note_on_c, 0, 46, 75
1, 357927, Note_on_c, 0, 72, 0
1, 357990, Note_on_c, 0, 69, 0
1, 357990, Note_on_c, 0, 63, 0
1, 357990, Note_on_c, 0, 69, 88
1, 357993, Note_on_c, 0, 46, 0
1, 357993, Note_on_c, 0, 75, 88
1, 357993, Note_on_c, 0, 79, 100
1, 357996, Note_on_c, 0, 34, 82
1, 358033, Control_c, 0, 64, 0
1, 358068, Control_c, 0, 64, 127
1, 358071, Note_on_c, 0, 34, 0
1, 358071, Note_on_c, 0, 41, 78
1, 358112, Note_on_c, 0, 79, 0
1, 358112, Note_on_c, 0, 77, 97
1, 358153, Note_on_c, 0, 41, 0
1, 358153, Note_on_c, 0, 46, 78
1, 358174, Note_on_c, 0, 77, 0
1, 358236, Note_on_c, 0, 69, 0
1, 358236, Note_on_c, 0, 75, 0
1, 358236, Note_on_c, 0, 77, 93
1, 358239, Note_on_c, 0, 46, 0
1, 358239, Note_on_c, 0, 75, 93
1, 358239, Note_on_c, 0, 82, 104
1, 358242, Control_c, 0, 64, 0
1, 358242, Note_on_c, 0, 34, 88
1, 358250, Control_c, 0, 64, 0
1, 358271, Control_c, 0, 64, 127
1, 358316, Note_on_c, 0, 34, 0
1, 358316, Note_on_c, 0, 41, 80
1, 358357, Note_on_c, 0, 82, 0
1, 358357, Note_on_c, 0, 81, 99
1, 358398, Note_on_c, 0, 41, 0
1, 358398, Note_on_c, 0, 46, 80
1, 358419, Note_on_c, 0, 81, 0
1, 358481, Note_on_c, 0, 77, 0
1, 358481, Note_on_c, 0, 75, 0
1, 358481, Note_on_c, 0, 75, 94
1, 358484, Note_on_c, 0, 46, 0
1, 358484, Note_on_c, 0, 81, 94
1, 358484, Note_on_c, 0, 86, 108
1, 358487, Note_on_c, 0, 34, 93
1, 358523, Control_c, 0, 64, 0
1, 358558, Control_c, 0, 64, 127
1, 358561, Note_on_c, 0, 34, 0
1, 358561, Note_on_c, 0, 41, 84
1, 358601, Note_on_c, 0, 86, 0
1, 358601, Note_on_c, 0, 84, 103
1, 358642, Note_on_c, 0, 41, 0
1, 358642, Note_on_c, 0, 46, 84
1, 358662, Note_on_c, 0, 84, 0
1, 358723, Note_on_c, 0, 75, 0
1, 358723, Note_on_c, 0, 81, 0
1, 358723, Note_on_c, 0, 81, 100
1, 358726, Note_on_c, 0, 46, 0
1, 358726, Note_on_c, 0, 87, 100
1, 358726, Note_on_c, 0, 91, 114
1, 358729, Control_c, 0, 64, 0
1, 358729, Note_on_c, 0, 34, 98
1, 358737, Control_c, 0, 64, 0
1, 358759, Control_c, 0, 64, 127
1, 358804, Note_on_c, 0, 34, 0
1, 358804, Note_on_c, 0, 41, 89
1, 358844, Note_on_c, 0, 91, 0
1, 358844, Note_on_c, 0, 89, 109
1, 358887, Note_on_c, 0, 41, 0
1, 358887, Note_on_c, 0, 46, 90
1, 358909, Note_on_c, 0, 89, 0
1, 358973, Note_on_c, 0, 81, 0
1, 358973, Note_on_c, 0, 87, 0
1, 358973, Note_on_c, 0, 87, 106
1, 358976, Note_on_c, 0, 46, 0
1, 358976, Note_on_c, 0, 94, 121
1, 358976, Note_on_c, 0, 89, 106
1, 358979, Note_on_c, 0, 34, 99
1, 359017, Control_c, 0, 64, 0
1, 359053, Control_c, 0, 64, 127
1, 359056, Note_on_c, 0, 34, 0
1, 359056, Note_on_c, 0, 41, 90
1, 359098, Note_on_c, 0, 94, 0
1, 359098, Note_on_c, 0, 93, 118
1, 359142, Note_on_c, 0, 41, 0
1, 359142, Note_on_c, 0, 46, 90
1, 359164, Note_on_c, 0, 93, 0
1, 359230, Note_on_c, 0, 87, 0
1, 359230, Note_on_c, 0, 89, 0
1, 359230, Note_on_c, 0, 94, 126
1, 359233, Note_on_c, 0, 46, 0
1, 359233, Note_on_c, 0, 89, 120
1, 359233, Note_on_c, 0, 86, 120
1, 359236, Control_c, 0, 64, 0
1, 359236, Note_on_c, 0, 34, 109
1, 359341, Control_c, 0, 64, 127
1, 359516, Note_on_c, 0, 86, 0
1, 359516, Note_on_c, 0, 94, 0
1, 359516, Note_on_c, 0, 89, 0
1, 359519, Note_on_c, 0, 34, 0
1, 359706, Control_c, 0, 64, 0
1, 359802, Note_on_c, 0, 98, 126
1, 359802, Note_on_c, 0, 89, 116
1, 359802, Note_on_c, 0, 86, 116
1, 359805, Note_on_c, 0, 94, 126
1, 359805, Note_on_c, 0, 46, 90
1, 359805, Note_on_c, 0, 50, 90
1, 359808, Note_on_c, 0, 53, 90
1, 359808, Note_on_c, 0, 58, 101
1, 359849, Control_c, 0, 64, 127
1, 360088, Note_on_c, 0, 94, 0
1, 360088, Note_on_c, 0, 89, 0
1, 360088, Note_on_c, 0, 98, 0
1, 360091, Note_on_c, 0, 58, 0
1, 360091, Note_on_c, 0, 46, 0
1, 360091, Note_on_c, 0, 86, 0
1, 360094, Note_on_c, 0, 53, 0
1, 360094, Note_on_c, 0, 50, 0
1, 360183, Control_c, 0, 64, 0
1, 360374, Note_on_c, 0, 58, 126
1, 360374, Note_on_c, 0, 34, 94
1, 360374, Note_on_c, 0, 46, 105
1, 360438, Control_c, 0, 64, 127
1, 360660, Note_on_c, 0, 46, 0
1, 360660, Note_on_c, 0, 34, 0
1, 360660, Note_on_c, 0, 58, 0
1, 360707, Control_c, 0, 64, 0
1, 360707, End_track
0, 0, End_of_file
