0, 0, Header, 0, 1, 384
1, 0, Start_track
1, 0, Tempo, 512820
1, 0, Title_t, ""
1, 0, Control_c, 0, 64, 127
1, 0, Control_c, 0, 64, 0
1, 0, Control_c, 0, 64, 127
1, 3, Note_on_c, 0, 54, 34
1, 3, Note_on_c, 0, 50, 28
1, 14, Note_on_c, 0, 35, 24
1, 17, Note_on_c, 0, 47, 11
1, 300, Note_off_c, 0, 47, 64
1, 563, Note_off_c, 0, 54, 64
1, 677, Note_on_c, 0, 54, 27
1, 690, Note_on_c, 0, 59, 54
1, 704, Note_on_c, 0, 38, 25
1, 704, Note_on_c, 0, 47, 11
1, 735, Note_off_c, 0, 50, 64
1, 807, Note_off_c, 0, 35, 64
1, 857, Control_c, 0, 64, 0
1, 1013, Control_c, 0, 64, 127
1, 1081, Note_off_c, 0, 47, 64
1, 1102, Note_off_c, 0, 54, 64
1, 1102, Note_off_c, 0, 59, 64
1, 1395, Note_on_c, 0, 61, 38
1, 1395, Note_on_c, 0, 54, 29
1, 1409, Note_on_c, 0, 49, 13
1, 1415, Note_on_c, 0, 58, 13
1, 1426, Note_on_c, 0, 42, 17
1, 1593, Note_off_c, 0, 38, 64
1, 1624, Control_c, 0, 64, 0
1, 2020, Control_c, 0, 64, 127
1, 2312, Note_off_c, 0, 58, 64
1, 2331, Note_off_c, 0, 54, 64
1, 2334, Note_off_c, 0, 49, 64
1, 2573, Note_off_c, 0, 42, 64
1, 2669, Note_off_c, 0, 61, 64
1, 3086, Note_on_c, 0, 54, 35
1, 3108, Note_on_c, 0, 50, 29
1, 3117, Note_on_c, 0, 47, 18
1, 3123, Note_on_c, 0, 35, 24
1, 3326, Control_c, 0, 64, 0
1, 3545, Note_off_c, 0, 47, 64
1, 3566, Control_c, 0, 64, 127
1, 3624, Note_off_c, 0, 54, 64
1, 3777, Note_on_c, 0, 59, 61
1, 3782, Note_on_c, 0, 54, 43
1, 3782, Note_on_c, 0, 38, 39
1, 3791, Note_on_c, 0, 47, 20
1, 3877, Note_off_c, 0, 50, 64
1, 3935, Note_off_c, 0, 35, 64
1, 3997, Control_c, 0, 64, 0
1, 4130, Control_c, 0, 64, 127
1, 4181, Note_off_c, 0, 47, 64
1, 4217, Note_off_c, 0, 54, 64
1, 4234, Note_off_c, 0, 59, 64
1, 4468, Note_on_c, 0, 61, 52
1, 4477, Note_on_c, 0, 58, 22
1, 4477, Note_on_c, 0, 54, 29
1, 4477, Note_on_c, 0, 49, 21
1, 4487, Note_on_c, 0, 42, 29
1, 4585, Note_off_c, 0, 38, 64
1, 4668, Control_c, 0, 64, 0
1, 5159, Control_c, 0, 64, 127
1, 5367, Note_off_c, 0, 49, 64
1, 5516, Note_off_c, 0, 58, 64
1, 5604, Note_off_c, 0, 54, 64
1, 5847, Note_off_c, 0, 61, 64
1, 6130, Note_on_c, 0, 62, 47
1, 6137, Note_on_c, 0, 50, 26
1, 6144, Note_on_c, 0, 47, 24
1, 6153, Note_on_c, 0, 35, 35
1, 6156, Note_off_c, 0, 42, 64
1, 6298, Control_c, 0, 64, 0
1, 6502, Control_c, 0, 64, 127
1, 6686, Note_off_c, 0, 50, 64
1, 6719, Note_off_c, 0, 62, 64
1, 6853, Note_on_c, 0, 61, 57
1, 6866, Note_on_c, 0, 37, 35
1, 6874, Note_on_c, 0, 52, 36
1, 6917, Note_off_c, 0, 35, 64
1, 7059, Control_c, 0, 64, 0
1, 7137, Control_c, 0, 64, 127
1, 7168, Note_on_c, 0, 54, 62
1, 7178, Note_off_c, 0, 37, 64
1, 7178, Note_on_c, 0, 38, 49
1, 7270, Control_c, 0, 64, 0
1, 7287, Note_off_c, 0, 52, 64
1, 7365, Control_c, 0, 64, 127
1, 7376, Note_off_c, 0, 47, 64
1, 7396, Note_off_c, 0, 54, 64
1, 7541, Note_on_c, 0, 55, 46
1, 7541, Note_on_c, 0, 59, 50
1, 7551, Note_on_c, 0, 40, 52
1, 7562, Note_on_c, 0, 47, 9
1, 7604, Note_off_c, 0, 61, 64
1, 7616, Note_off_c, 0, 38, 64
1, 7725, Control_c, 0, 64, 0
1, 7917, Control_c, 0, 64, 127
1, 8056, Note_off_c, 0, 55, 64
1, 8200, Note_on_c, 0, 54, 45
1, 8209, Note_on_c, 0, 61, 48
1, 8228, Note_on_c, 0, 38, 34
1, 8250, Note_off_c, 0, 40, 64
1, 8275, Note_off_c, 0, 59, 64
1, 8432, Control_c, 0, 64, 0
1, 8509, Note_on_c, 0, 62, 67
1, 8563, Control_c, 0, 64, 127
1, 8563, Note_off_c, 0, 61, 64
1, 8602, Note_off_c, 0, 47, 64
1, 8668, Note_off_c, 0, 62, 64
1, 8674, Note_off_c, 0, 54, 64
1, 8736, Note_off_c, 0, 38, 64
1, 8842, Note_on_c, 0, 64, 70
1, 8863, Note_on_c, 0, 52, 54
1, 8877, Note_on_c, 0, 37, 30
1, 8877, Note_on_c, 0, 47, 21
1, 9055, Control_c, 0, 64, 0
1, 9223, Control_c, 0, 64, 127
1, 9335, Note_off_c, 0, 64, 64
1, 9485, Note_off_c, 0, 37, 64
1, 9498, Note_on_c, 0, 54, 52
1, 9498, Note_on_c, 0, 62, 50
1, 9504, Note_off_c, 0, 52, 64
1, 9504, Note_on_c, 0, 38, 25
1, 9822, Control_c, 0, 64, 0
1, 9845, Note_on_c, 0, 56, 38
1, 9852, Note_off_c, 0, 54, 64
1, 9864, Note_off_c, 0, 38, 64
1, 9872, Note_on_c, 0, 40, 36
1, 10025, Control_c, 0, 64, 127
1, 10079, Note_off_c, 0, 62, 64
1, 10259, Note_off_c, 0, 47, 64
1, 10320, Note_on_c, 0, 49, 22
1, 10320, Note_on_c, 0, 61, 35
1, 10320, Note_off_c, 0, 40, 64
1, 10331, Note_on_c, 0, 58, 17
1, 10345, Note_on_c, 0, 42, 14
1, 10449, Note_off_c, 0, 56, 64
1, 10482, Control_c, 0, 64, 0
1, 10756, Control_c, 0, 64, 127
1, 11145, Note_off_c, 0, 49, 64
1, 11249, Note_off_c, 0, 61, 64
1, 11249, Note_off_c, 0, 42, 64
1, 11259, Note_off_c, 0, 58, 64
1, 11752, Control_c, 0, 64, 0
1, 12145, Note_on_c, 0, 54, 33
1, 12162, Note_on_c, 0, 50, 26
1, 12178, Note_on_c, 0, 47, 15
1, 12189, Note_on_c, 0, 35, 25
1, 12387, Control_c, 0, 64, 127
1, 12444, Note_off_c, 0, 47, 64
1, 12569, Note_off_c, 0, 54, 64
1, 12797, Note_on_c, 0, 59, 42
1, 12806, Note_on_c, 0, 54, 44
1, 12824, Note_on_c, 0, 38, 29
1, 12828, Note_on_c, 0, 47, 22
1, 12878, Note_off_c, 0, 50, 64
1, 12937, Note_off_c, 0, 35, 64
1, 12986, Control_c, 0, 64, 0
1, 13165, Control_c, 0, 64, 127
1, 13248, Note_off_c, 0, 47, 64
1, 13256, Note_off_c, 0, 54, 64
1, 13298, Note_off_c, 0, 59, 64
1, 13618, Note_on_c, 0, 61, 26
1, 13635, Note_off_c, 0, 38, 64
1, 13638, Note_on_c, 0, 53, 44
1, 13652, Note_on_c, 0, 59, 28
1, 13660, Note_on_c, 0, 49, 12
1, 13660, Note_on_c, 0, 43, 22
1, 13766, Control_c, 0, 64, 0
1, 14340, Control_c, 0, 64, 127
1, 14522, Note_off_c, 0, 53, 64
1, 14585, Note_off_c, 0, 49, 64
1, 14641, Note_off_c, 0, 43, 64
1, 14666, Note_off_c, 0, 59, 64
1, 15004, Note_off_c, 0, 61, 64
1, 15295, Note_on_c, 0, 54, 41
1, 15316, Note_on_c, 0, 50, 35
1, 15329, Note_on_c, 0, 47, 21
1, 15337, Note_on_c, 0, 35, 32
1, 15407, Control_c, 0, 64, 0
1, 15655, Note_off_c, 0, 47, 64
1, 15683, Control_c, 0, 64, 127
1, 15744, Note_off_c, 0, 54, 64
1, 15940, Note_on_c, 0, 59, 56
1, 15951, Note_on_c, 0, 47, 24
1, 15954, Note_on_c, 0, 54, 40
1, 15958, Note_on_c, 0, 38, 38
1, 15997, Note_off_c, 0, 50, 64
1, 16098, Note_off_c, 0, 35, 64
1, 16137, Control_c, 0, 64, 0
1, 16282, Control_c, 0, 64, 127
1, 16383, Note_off_c, 0, 47, 64
1, 16413, Note_off_c, 0, 59, 64
1, 16691, Note_on_c, 0, 61, 40
1, 16699, Note_on_c, 0, 49, 18
1, 16699, Note_on_c, 0, 53, 58
1, 16708, Note_on_c, 0, 43, 21
1, 16716, Note_on_c, 0, 59, 25
1, 16736, Note_off_c, 0, 38, 64
1, 16748, Note_off_c, 0, 54, 64
1, 17001, Control_c, 0, 64, 0
1, 17432, Control_c, 0, 64, 127
1, 17716, Note_off_c, 0, 53, 64
1, 17817, Note_off_c, 0, 49, 64
1, 17823, Note_off_c, 0, 59, 64
1, 18067, Note_off_c, 0, 61, 64
1, 18335, Note_on_c, 0, 64, 67
1, 18343, Note_off_c, 0, 43, 64
1, 18358, Note_on_c, 0, 52, 30
1, 18358, Note_on_c, 0, 37, 27
1, 18361, Note_on_c, 0, 49, 23
1, 18374, Note_on_c, 0, 59, 28
1, 18535, Control_c, 0, 64, 0
1, 18691, Control_c, 0, 64, 127
1, 18731, Note_off_c, 0, 52, 64
1, 18747, Note_off_c, 0, 64, 64
1, 18772, Note_off_c, 0, 59, 64
1, 18881, Note_off_c, 0, 49, 64
1, 18886, Note_off_c, 0, 37, 64
1, 19012, Note_on_c, 0, 54, 46
1, 19012, Note_on_c, 0, 62, 68
1, 19028, Note_on_c, 0, 59, 41
1, 19028, Note_on_c, 0, 38, 35
1, 19042, Note_on_c, 0, 50, 25
1, 19123, Control_c, 0, 64, 0
1, 19218, Control_c, 0, 64, 127
1, 19218, Note_off_c, 0, 38, 64
1, 19218, Note_off_c, 0, 50, 64
1, 19310, Note_on_c, 0, 56, 53
1, 19313, Note_on_c, 0, 52, 55
1, 19330, Note_off_c, 0, 59, 64
1, 19330, Note_on_c, 0, 40, 54
1, 19335, Note_off_c, 0, 54, 64
1, 19410, Note_off_c, 0, 62, 64
1, 19450, Note_off_c, 0, 52, 64
1, 19469, Note_off_c, 0, 40, 64
1, 19644, Note_on_c, 0, 61, 66
1, 19644, Note_on_c, 0, 49, 38
1, 19650, Note_on_c, 0, 58, 41
1, 19663, Note_on_c, 0, 54, 55
1, 19674, Note_on_c, 0, 42, 29
1, 19723, Note_off_c, 0, 56, 64
1, 19806, Control_c, 0, 64, 0
1, 19987, Note_off_c, 0, 49, 64
1, 19998, Control_c, 0, 64, 127
1, 20057, Note_off_c, 0, 58, 64
1, 20062, Note_off_c, 0, 54, 64
1, 20221, Note_off_c, 0, 61, 64
1, 20276, Note_off_c, 0, 42, 64
1, 20285, Note_on_c, 0, 56, 50
1, 20293, Note_on_c, 0, 62, 59
1, 20301, Note_on_c, 0, 52, 41
1, 20301, Note_on_c, 0, 40, 51
1, 20312, Note_on_c, 0, 59, 40
1, 20525, Note_off_c, 0, 62, 64
1, 20620, Note_off_c, 0, 59, 64
1, 20620, Note_on_c, 0, 64, 70
1, 20620, Note_on_c, 0, 61, 36
1, 20628, Note_on_c, 0, 55, 58
1, 20664, Note_off_c, 0, 56, 64
1, 20755, Note_off_c, 0, 64, 64
1, 20778, Note_off_c, 0, 61, 64
1, 20808, Note_off_c, 0, 52, 64
1, 20823, Note_off_c, 0, 40, 64
1, 21014, Note_on_c, 0, 58, 44
1, 21018, Note_on_c, 0, 54, 50
1, 21046, Note_on_c, 0, 38, 30
1, 21049, Note_on_c, 0, 50, 25
1, 21052, Control_c, 0, 64, 0
1, 21065, Note_off_c, 0, 55, 64
1, 21232, Note_off_c, 0, 50, 64
1, 21268, Control_c, 0, 64, 127
1, 21447, Control_c, 0, 64, 0
1, 21471, Note_on_c, 0, 37, 19
1, 21471, Note_on_c, 0, 49, 13
1, 21475, Note_on_c, 0, 52, 38
1, 21491, Note_off_c, 0, 54, 64
1, 21500, Note_off_c, 0, 38, 64
1, 21698, Control_c, 0, 64, 127
1, 21765, Note_off_c, 0, 49, 64
1, 21818, Note_off_c, 0, 52, 64
1, 21862, Note_off_c, 0, 37, 64
1, 22034, Note_on_c, 0, 59, 29
1, 22056, Note_on_c, 0, 54, 29
1, 22079, Note_on_c, 0, 50, 25
1, 22087, Note_on_c, 0, 47, 10
1, 22101, Note_on_c, 0, 35, 19
1, 22118, Control_c, 0, 64, 0
1, 22130, Note_off_c, 0, 58, 64
1, 22681, Control_c, 0, 64, 127
1, 22857, Note_off_c, 0, 47, 64
1, 23288, Note_off_c, 0, 50, 64
1, 23377, Note_off_c, 0, 54, 64
1, 23377, Note_off_c, 0, 35, 64
1, 23383, Note_off_c, 0, 59, 64
1, 23772, Control_c, 0, 64, 0
1, 24023, Note_on_c, 0, 61, 61
1, 24027, Note_on_c, 0, 57, 44
1, 24034, Note_on_c, 0, 54, 50
1, 24038, Note_on_c, 0, 42, 42
1, 24071, Control_c, 0, 64, 127
1, 24325, Note_off_c, 0, 57, 64
1, 24469, Note_off_c, 0, 42, 64
1, 24483, Note_off_c, 0, 61, 64
1, 24483, Note_off_c, 0, 54, 64
1, 24670, Note_on_c, 0, 66, 67
1, 24675, Note_on_c, 0, 45, 50
1, 24675, Note_on_c, 0, 61, 64
1, 24678, Note_on_c, 0, 57, 47
1, 24864, Control_c, 0, 64, 0
1, 25043, Control_c, 0, 64, 127
1, 25062, Note_off_c, 0, 57, 64
1, 25076, Note_off_c, 0, 61, 64
1, 25127, Note_off_c, 0, 45, 64
1, 25146, Note_off_c, 0, 66, 64
1, 25324, Note_on_c, 0, 68, 67
1, 25328, Note_on_c, 0, 61, 56
1, 25328, Note_on_c, 0, 56, 57
1, 25338, Note_on_c, 0, 49, 51
1, 25338, Note_on_c, 0, 65, 46
1, 25617, Control_c, 0, 64, 0
1, 26049, Control_c, 0, 64, 127
1, 26124, Note_off_c, 0, 56, 64
1, 26154, Note_off_c, 0, 61, 64
1, 26188, Note_off_c, 0, 65, 64
1, 26208, Note_off_c, 0, 68, 64
1, 26517, Note_off_c, 0, 49, 64
1, 26697, Note_on_c, 0, 61, 69
1, 26711, Note_on_c, 0, 57, 43
1, 26711, Note_on_c, 0, 42, 34
1, 26715, Note_on_c, 0, 54, 46
1, 26840, Control_c, 0, 64, 0
1, 27080, Control_c, 0, 64, 127
1, 27161, Note_off_c, 0, 54, 64
1, 27253, Note_off_c, 0, 61, 64
1, 27333, Note_on_c, 0, 66, 72
1, 27338, Note_on_c, 0, 61, 47
1, 27347, Note_on_c, 0, 54, 62
1, 27352, Note_on_c, 0, 45, 50
1, 27414, Note_off_c, 0, 57, 64
1, 27477, Note_off_c, 0, 42, 64
1, 27511, Control_c, 0, 64, 0
1, 27692, Control_c, 0, 64, 127
1, 27721, Note_off_c, 0, 61, 64
1, 27781, Note_off_c, 0, 54, 64
1, 27803, Note_off_c, 0, 66, 64
1, 27952, Note_on_c, 0, 56, 59
1, 27952, Note_on_c, 0, 68, 71
1, 27957, Note_on_c, 0, 61, 62
1, 27965, Note_on_c, 0, 65, 51
1, 27971, Note_off_c, 0, 45, 64
1, 27974, Note_on_c, 0, 49, 44
1, 28182, Control_c, 0, 64, 0
1, 28590, Control_c, 0, 64, 127
1, 28695, Note_off_c, 0, 56, 64
1, 28813, Note_off_c, 0, 65, 64
1, 28904, Note_off_c, 0, 61, 64
1, 29118, Note_off_c, 0, 68, 64
1, 29345, Note_on_c, 0, 69, 63
1, 29352, Note_on_c, 0, 42, 38
1, 29359, Note_on_c, 0, 57, 38
1, 29359, Note_on_c, 0, 54, 37
1, 29405, Note_off_c, 0, 49, 64
1, 29453, Control_c, 0, 64, 0
1, 29657, Control_c, 0, 64, 127
1, 29795, Note_off_c, 0, 57, 64
1, 29932, Note_on_c, 0, 68, 67
1, 29951, Note_on_c, 0, 59, 38
1, 29951, Note_on_c, 0, 44, 46
1, 29996, Note_off_c, 0, 69, 64
1, 30015, Note_off_c, 0, 42, 64
1, 30147, Control_c, 0, 64, 0
1, 30225, Note_on_c, 0, 61, 68
1, 30249, Note_on_c, 0, 45, 45
1, 30267, Control_c, 0, 64, 127
1, 30274, Note_off_c, 0, 44, 64
1, 30319, Note_off_c, 0, 59, 64
1, 30391, Note_off_c, 0, 54, 64
1, 30420, Note_off_c, 0, 61, 64
1, 30534, Note_on_c, 0, 66, 68
1, 30544, Note_on_c, 0, 62, 53
1, 30544, Note_on_c, 0, 54, 49
1, 30558, Note_on_c, 0, 47, 44
1, 30586, Note_off_c, 0, 45, 64
1, 30643, Note_off_c, 0, 68, 64
1, 30710, Control_c, 0, 64, 0
1, 30927, Control_c, 0, 64, 127
1, 31008, Note_off_c, 0, 62, 64
1, 31132, Note_on_c, 0, 68, 64
1, 31141, Note_on_c, 0, 61, 52
1, 31168, Note_on_c, 0, 45, 48
1, 31182, Note_off_c, 0, 47, 64
1, 31200, Note_off_c, 0, 66, 64
1, 31334, Control_c, 0, 64, 0
1, 31423, Note_on_c, 0, 69, 76
1, 31478, Control_c, 0, 64, 127
1, 31486, Note_off_c, 0, 68, 64
1, 31561, Note_off_c, 0, 54, 64
1, 31604, Note_off_c, 0, 69, 64
1, 31617, Note_off_c, 0, 61, 64
1, 31735, Note_on_c, 0, 71, 85
1, 31745, Note_on_c, 0, 54, 48
1, 31745, Note_on_c, 0, 59, 48
1, 31765, Note_on_c, 0, 44, 44
1, 31773, Note_off_c, 0, 45, 64
1, 31874, Control_c, 0, 64, 0
1, 32138, Control_c, 0, 64, 127
1, 32280, Note_off_c, 0, 71, 64
1, 32383, Note_on_c, 0, 69, 48
1, 32389, Note_on_c, 0, 61, 46
1, 32409, Note_on_c, 0, 45, 35
1, 32409, Note_off_c, 0, 59, 64
1, 32420, Note_off_c, 0, 44, 64
1, 32450, Control_c, 0, 64, 0
1, 32604, Control_c, 0, 64, 127
1, 32676, Control_c, 0, 64, 0
1, 32715, Note_off_c, 0, 61, 64
1, 32723, Note_on_c, 0, 63, 43
1, 32738, Note_off_c, 0, 45, 64
1, 32743, Note_on_c, 0, 47, 34
1, 32880, Control_c, 0, 64, 127
1, 32891, Note_off_c, 0, 69, 64
1, 33057, Note_off_c, 0, 54, 64
1, 33149, Note_on_c, 0, 56, 32
1, 33149, Note_on_c, 0, 68, 37
1, 33160, Note_on_c, 0, 65, 25
1, 33175, Note_off_c, 0, 47, 64
1, 33192, Note_on_c, 0, 49, 20
1, 33216, Control_c, 0, 64, 0
1, 33227, Note_off_c, 0, 63, 64
1, 33696, Control_c, 0, 64, 127
1, 33835, Note_off_c, 0, 56, 64
1, 33852, Note_off_c, 0, 49, 64
1, 33874, Note_off_c, 0, 65, 64
1, 33874, Note_off_c, 0, 68, 64
1, 34426, Note_on_c, 0, 61, 47
1, 34431, Note_on_c, 0, 57, 36
1, 34447, Note_on_c, 0, 54, 37
1, 34454, Note_on_c, 0, 42, 32
1, 34667, Control_c, 0, 64, 0
1, 34882, Control_c, 0, 64, 127
1, 34916, Note_off_c, 0, 54, 64
1, 34994, Note_off_c, 0, 61, 64
1, 35069, Note_on_c, 0, 61, 47
1, 35069, Note_on_c, 0, 66, 64
1, 35078, Note_on_c, 0, 54, 66
1, 35094, Note_on_c, 0, 45, 45
1, 35195, Note_off_c, 0, 57, 64
1, 35202, Note_off_c, 0, 42, 64
1, 35548, Note_off_c, 0, 66, 64
1, 35654, Note_off_c, 0, 54, 64
1, 35732, Note_on_c, 0, 68, 67
1, 35737, Note_on_c, 0, 60, 64
1, 35737, Note_on_c, 0, 56, 65
1, 35737, Note_on_c, 0, 66, 54
1, 35757, Note_on_c, 0, 50, 59
1, 35887, Note_off_c, 0, 61, 64
1, 35997, Control_c, 0, 64, 0
1, 36004, Note_off_c, 0, 45, 64
1, 36369, Control_c, 0, 64, 127
1, 36693, Note_off_c, 0, 60, 64
1, 36720, Note_off_c, 0, 56, 64
1, 37216, Note_on_c, 0, 61, 58
1, 37222, Note_on_c, 0, 57, 38
1, 37225, Note_on_c, 0, 42, 31
1, 37230, Note_on_c, 0, 54, 42
1, 37256, Note_off_c, 0, 68, 64
1, 37262, Note_off_c, 0, 50, 64
1, 37273, Note_off_c, 0, 66, 64
1, 37398, Control_c, 0, 64, 0
1, 37687, Control_c, 0, 64, 127
1, 37729, Note_off_c, 0, 54, 64
1, 37762, Note_off_c, 0, 61, 64
1, 37844, Note_on_c, 0, 66, 68
1, 37844, Note_on_c, 0, 61, 55
1, 37854, Note_on_c, 0, 54, 64
1, 37868, Note_on_c, 0, 45, 49
1, 37939, Note_off_c, 0, 57, 64
1, 37977, Note_off_c, 0, 42, 64
1, 38117, Control_c, 0, 64, 0
1, 38273, Control_c, 0, 64, 127
1, 38411, Note_off_c, 0, 66, 64
1, 38414, Note_off_c, 0, 54, 64
1, 38515, Note_on_c, 0, 68, 75
1, 38521, Note_on_c, 0, 56, 66
1, 38521, Note_on_c, 0, 60, 68
1, 38532, Note_on_c, 0, 66, 62
1, 38545, Note_on_c, 0, 50, 48
1, 38674, Note_off_c, 0, 61, 64
1, 38754, Note_off_c, 0, 45, 64
1, 38826, Control_c, 0, 64, 0
1, 39220, Control_c, 0, 64, 127
1, 39446, Note_off_c, 0, 56, 64
1, 39629, Note_off_c, 0, 66, 64
1, 39649, Note_off_c, 0, 60, 64
1, 39851, Note_off_c, 0, 68, 64
1, 40030, Note_on_c, 0, 71, 88
1, 40035, Note_on_c, 0, 56, 52
1, 40035, Note_on_c, 0, 59, 59
1, 40038, Note_on_c, 0, 44, 55
1, 40041, Note_on_c, 0, 66, 52
1, 40092, Note_off_c, 0, 50, 64
1, 40203, Control_c, 0, 64, 0
1, 40443, Control_c, 0, 64, 127
1, 40481, Note_off_c, 0, 71, 64
1, 40579, Note_off_c, 0, 44, 64
1, 40584, Note_off_c, 0, 56, 64
1, 40584, Note_off_c, 0, 59, 64
1, 40584, Note_off_c, 0, 66, 64
1, 40629, Note_on_c, 0, 61, 61
1, 40629, Note_on_c, 0, 69, 70
1, 40638, Note_on_c, 0, 66, 63
1, 40638, Note_on_c, 0, 57, 54
1, 40641, Note_on_c, 0, 45, 49
1, 40719, Control_c, 0, 64, 0
1, 40835, Note_off_c, 0, 45, 64
1, 40835, Note_off_c, 0, 57, 64
1, 40838, Control_c, 0, 64, 127
1, 40928, Note_on_c, 0, 63, 78
1, 40933, Note_on_c, 0, 59, 68
1, 40942, Note_on_c, 0, 47, 52
1, 40969, Note_off_c, 0, 69, 64
1, 40994, Note_off_c, 0, 66, 64
1, 41005, Note_off_c, 0, 61, 64
1, 41245, Note_off_c, 0, 59, 64
1, 41270, Note_on_c, 0, 56, 60
1, 41275, Note_on_c, 0, 68, 70
1, 41284, Note_on_c, 0, 61, 60
1, 41284, Note_on_c, 0, 65, 58
1, 41287, Note_on_c, 0, 49, 70
1, 41312, Note_off_c, 0, 47, 64
1, 41324, Note_off_c, 0, 63, 64
1, 41462, Control_c, 0, 64, 0
1, 41666, Control_c, 0, 64, 127
1, 41691, Note_off_c, 0, 56, 64
1, 41698, Note_off_c, 0, 65, 64
1, 41710, Note_off_c, 0, 61, 64
1, 41893, Note_off_c, 0, 68, 64
1, 41938, Note_on_c, 0, 69, 64
1, 41944, Note_on_c, 0, 63, 60
1, 41944, Note_on_c, 0, 66, 51
1, 41949, Note_on_c, 0, 47, 60
1, 41952, Note_off_c, 0, 49, 64
1, 41957, Note_on_c, 0, 59, 54
1, 42164, Note_off_c, 0, 66, 64
1, 42175, Note_off_c, 0, 69, 64
1, 42261, Note_on_c, 0, 71, 82
1, 42270, Note_on_c, 0, 62, 70
1, 42275, Note_on_c, 0, 68, 44
1, 42289, Note_off_c, 0, 63, 64
1, 42384, Note_off_c, 0, 68, 64
1, 42409, Note_off_c, 0, 71, 64
1, 42463, Note_off_c, 0, 59, 64
1, 42590, Note_off_c, 0, 47, 64
1, 42643, Note_on_c, 0, 61, 62
1, 42646, Note_on_c, 0, 65, 69
1, 42663, Note_on_c, 0, 45, 37
1, 42669, Note_on_c, 0, 57, 24
1, 42699, Note_off_c, 0, 62, 64
1, 42732, Control_c, 0, 64, 0
1, 42846, Note_off_c, 0, 57, 64
1, 42913, Control_c, 0, 64, 127
1, 43064, Note_on_c, 0, 44, 43
1, 43067, Note_on_c, 0, 56, 26
1, 43067, Note_on_c, 0, 59, 44
1, 43094, Note_off_c, 0, 45, 64
1, 43103, Control_c, 0, 64, 0
1, 43108, Note_off_c, 0, 61, 64
1, 43307, Control_c, 0, 64, 127
1, 43361, Note_off_c, 0, 56, 64
1, 43401, Note_off_c, 0, 59, 64
1, 43579, Note_on_c, 0, 61, 27
1, 43579, Note_off_c, 0, 44, 64
1, 43583, Note_on_c, 0, 57, 28
1, 43583, Note_on_c, 0, 66, 28
1, 43586, Note_on_c, 0, 54, 28
1, 43593, Note_on_c, 0, 42, 18
1, 43643, Control_c, 0, 64, 0
1, 43730, Note_off_c, 0, 65, 64
1, 44111, Control_c, 0, 64, 127
1, 44282, Note_off_c, 0, 54, 64
1, 44869, Note_off_c, 0, 57, 64
1, 44885, Note_off_c, 0, 42, 64
1, 44927, Note_off_c, 0, 61, 64
1, 44944, Note_off_c, 0, 66, 64
1, 45045, Control_c, 0, 64, 0
1, 45310, Note_on_c, 0, 66, 75
1, 45310, Note_on_c, 0, 54, 79
1, 45320, Note_on_c, 0, 47, 63
1, 45320, Note_on_c, 0, 62, 72
1, 45326, Note_on_c, 0, 59, 62
1, 45326, Note_on_c, 0, 35, 63
1, 45417, Control_c, 0, 64, 127
1, 45568, Note_off_c, 0, 35, 64
1, 45568, Note_off_c, 0, 54, 64
1, 45629, Note_off_c, 0, 59, 64
1, 45655, Note_off_c, 0, 47, 64
1, 45671, Note_off_c, 0, 62, 64
1, 45746, Note_off_c, 0, 66, 64
1, 45972, Note_on_c, 0, 71, 98
1, 45980, Note_on_c, 0, 59, 83
1, 45980, Note_on_c, 0, 66, 66
1, 45984, Note_on_c, 0, 50, 77
1, 45984, Note_on_c, 0, 38, 69
1, 46172, Control_c, 0, 64, 0
1, 46273, Note_off_c, 0, 38, 64
1, 46279, Control_c, 0, 64, 127
1, 46293, Note_off_c, 0, 59, 64
1, 46339, Note_off_c, 0, 50, 64
1, 46406, Note_off_c, 0, 66, 64
1, 46490, Note_on_c, 0, 42, 69
1, 46538, Note_on_c, 0, 49, 68
1, 46543, Control_c, 0, 64, 0
1, 46543, Note_off_c, 0, 71, 64
1, 46661, Note_on_c, 0, 73, 90
1, 46664, Note_off_c, 0, 42, 64
1, 46664, Note_on_c, 0, 61, 86
1, 46675, Note_on_c, 0, 66, 58
1, 46686, Control_c, 0, 64, 127
1, 46705, Note_on_c, 0, 58, 68
1, 47197, Note_off_c, 0, 61, 64
1, 47211, Note_off_c, 0, 49, 64
1, 47254, Note_off_c, 0, 58, 64
1, 47342, Note_off_c, 0, 73, 64
1, 47348, Note_off_c, 0, 66, 64
1, 47958, Note_on_c, 0, 66, 76
1, 47964, Note_on_c, 0, 54, 80
1, 47975, Note_on_c, 0, 47, 70
1, 47975, Note_on_c, 0, 62, 73
1, 47975, Note_on_c, 0, 35, 81
1, 47983, Note_on_c, 0, 59, 61
1, 48089, Control_c, 0, 64, 0
1, 48265, Note_off_c, 0, 54, 64
1, 48281, Control_c, 0, 64, 127
1, 48295, Note_off_c, 0, 35, 64
1, 48310, Note_off_c, 0, 59, 64
1, 48345, Note_off_c, 0, 62, 64
1, 48382, Note_off_c, 0, 47, 64
1, 48392, Note_off_c, 0, 66, 64
1, 48560, Note_on_c, 0, 71, 101
1, 48568, Note_on_c, 0, 59, 76
1, 48568, Note_on_c, 0, 50, 83
1, 48573, Note_on_c, 0, 66, 64
1, 48573, Note_on_c, 0, 38, 74
1, 48713, Control_c, 0, 64, 0
1, 48844, Control_c, 0, 64, 127
1, 48860, Note_off_c, 0, 38, 64
1, 48931, Note_off_c, 0, 50, 64
1, 48972, Note_off_c, 0, 59, 64
1, 49040, Note_off_c, 0, 66, 64
1, 49040, Note_on_c, 0, 42, 73
1, 49084, Control_c, 0, 64, 0
1, 49108, Note_on_c, 0, 49, 67
1, 49176, Note_off_c, 0, 71, 64
1, 49214, Note_off_c, 0, 42, 64
1, 49214, Control_c, 0, 64, 127
1, 49232, Note_on_c, 0, 73, 88
1, 49239, Note_on_c, 0, 61, 78
1, 49249, Note_on_c, 0, 66, 55
1, 49254, Note_on_c, 0, 58, 65
1, 49769, Note_off_c, 0, 49, 64
1, 49789, Note_off_c, 0, 58, 64
1, 49916, Note_off_c, 0, 61, 64
1, 50192, Note_off_c, 0, 73, 64
1, 50379, Note_on_c, 0, 74, 92
1, 50379, Note_on_c, 0, 47, 54
1, 50385, Note_on_c, 0, 35, 67
1, 50388, Note_on_c, 0, 62, 64
1, 50438, Note_off_c, 0, 66, 64
1, 50510, Control_c, 0, 64, 0
1, 50666, Control_c, 0, 64, 127
1, 50735, Note_off_c, 0, 74, 64
1, 50795, Note_off_c, 0, 62, 64
1, 50887, Note_off_c, 0, 47, 64
1, 50925, Note_off_c, 0, 35, 64
1, 50981, Note_on_c, 0, 73, 79
1, 50987, Note_on_c, 0, 61, 55
1, 50987, Note_on_c, 0, 37, 69
1, 50998, Note_on_c, 0, 47, 57
1, 51004, Note_on_c, 0, 64, 57
1, 51145, Control_c, 0, 64, 0
1, 51240, Control_c, 0, 64, 127
1, 51262, Note_off_c, 0, 47, 64
1, 51282, Note_on_c, 0, 38, 76
1, 51285, Note_on_c, 0, 66, 79
1, 51309, Note_off_c, 0, 37, 64
1, 51343, Note_off_c, 0, 73, 64
1, 51423, Note_off_c, 0, 61, 64
1, 51427, Note_off_c, 0, 64, 64
1, 51566, Note_on_c, 0, 40, 80
1, 51575, Note_on_c, 0, 71, 95
1, 51578, Note_on_c, 0, 47, 55
1, 51583, Note_on_c, 0, 59, 62
1, 51589, Note_on_c, 0, 67, 67
1, 51610, Note_off_c, 0, 38, 64
1, 51627, Note_off_c, 0, 66, 64
1, 51685, Control_c, 0, 64, 0
1, 51864, Control_c, 0, 64, 127
1, 51925, Note_off_c, 0, 71, 64
1, 51931, Note_off_c, 0, 59, 64
1, 51945, Note_off_c, 0, 67, 64
1, 51965, Note_off_c, 0, 47, 64
1, 52121, Note_on_c, 0, 73, 87
1, 52131, Note_on_c, 0, 61, 76
1, 52131, Note_on_c, 0, 66, 65
1, 52143, Note_on_c, 0, 38, 66
1, 52146, Note_on_c, 0, 47, 58
1, 52153, Note_off_c, 0, 40, 64
1, 52271, Control_c, 0, 64, 0
1, 52366, Control_c, 0, 64, 127
1, 52376, Note_off_c, 0, 61, 64
1, 52385, Note_off_c, 0, 73, 64
1, 52416, Note_on_c, 0, 74, 101
1, 52424, Note_on_c, 0, 62, 79
1, 52521, Note_off_c, 0, 47, 64
1, 52621, Note_off_c, 0, 62, 64
1, 52661, Note_off_c, 0, 38, 64
1, 52666, Note_off_c, 0, 74, 64
1, 52669, Note_off_c, 0, 66, 64
1, 52764, Note_on_c, 0, 76, 95
1, 52775, Note_on_c, 0, 47, 59
1, 52775, Note_on_c, 0, 64, 78
1, 52783, Note_on_c, 0, 37, 60
1, 52967, Control_c, 0, 64, 0
1, 53170, Control_c, 0, 64, 127
1, 53212, Note_off_c, 0, 47, 64
1, 53259, Note_off_c, 0, 76, 64
1, 53274, Note_off_c, 0, 64, 64
1, 53371, Note_off_c, 0, 37, 64
1, 53371, Note_on_c, 0, 74, 87
1, 53371, Note_on_c, 0, 66, 47
1, 53382, Note_on_c, 0, 62, 61
1, 53387, Note_on_c, 0, 38, 55
1, 53387, Note_on_c, 0, 47, 42
1, 53518, Control_c, 0, 64, 0
1, 53632, Note_off_c, 0, 66, 64
1, 53650, Control_c, 0, 64, 127
1, 53660, Note_off_c, 0, 38, 64
1, 53685, Note_on_c, 0, 68, 70
1, 53694, Note_on_c, 0, 40, 71
1, 53724, Note_off_c, 0, 62, 64
1, 53744, Note_off_c, 0, 40, 64
1, 53781, Note_off_c, 0, 47, 64
1, 53901, Note_on_c, 0, 42, 64
1, 53950, Control_c, 0, 64, 0
1, 53986, Note_on_c, 0, 49, 55
1, 54039, Note_off_c, 0, 68, 64
1, 54053, Note_off_c, 0, 74, 64
1, 54093, Control_c, 0, 64, 127
1, 54107, Note_off_c, 0, 42, 64
1, 54149, Note_on_c, 0, 73, 70
1, 54153, Note_on_c, 0, 61, 67
1, 54160, Note_on_c, 0, 70, 52
1, 54190, Note_on_c, 0, 58, 48
1, 54851, Note_off_c, 0, 58, 64
1, 54856, Note_off_c, 0, 61, 64
1, 54872, Note_off_c, 0, 49, 64
1, 54883, Note_off_c, 0, 73, 64
1, 54915, Note_off_c, 0, 70, 64
1, 55424, Note_on_c, 0, 66, 83
1, 55424, Note_on_c, 0, 54, 92
1, 55430, Note_on_c, 0, 62, 85
1, 55430, Note_on_c, 0, 35, 95
1, 55433, Note_on_c, 0, 47, 83
1, 55436, Note_on_c, 0, 59, 78
1, 55452, Note_on_c, 0, 42, 39
1, 55483, Control_c, 0, 64, 0
1, 55675, Control_c, 0, 64, 127
1, 55720, Note_off_c, 0, 54, 64
1, 55734, Note_off_c, 0, 35, 64
1, 55752, Note_off_c, 0, 59, 64
1, 55766, Note_off_c, 0, 62, 64
1, 55775, Note_off_c, 0, 42, 64
1, 55809, Note_off_c, 0, 66, 64
1, 55820, Note_off_c, 0, 47, 64
1, 56025, Note_on_c, 0, 71, 107
1, 56025, Note_on_c, 0, 59, 100
1, 56031, Note_on_c, 0, 50, 88
1, 56031, Note_on_c, 0, 66, 78
1, 56031, Note_on_c, 0, 38, 81
1, 56241, Note_off_c, 0, 38, 64
1, 56301, Note_off_c, 0, 50, 64
1, 56312, Note_off_c, 0, 59, 64
1, 56397, Note_off_c, 0, 66, 64
1, 56415, Note_off_c, 0, 71, 64
1, 56592, Note_on_c, 0, 43, 82
1, 56610, Control_c, 0, 64, 0
1, 56619, Note_on_c, 0, 49, 77
1, 56672, Note_on_c, 0, 61, 96
1, 56675, Note_on_c, 0, 73, 90
1, 56675, Note_on_c, 0, 71, 96
1, 56680, Note_off_c, 0, 43, 64
1, 56680, Note_on_c, 0, 65, 80
1, 56697, Note_on_c, 0, 59, 94
1, 56720, Note_off_c, 0, 49, 64
1, 56742, Control_c, 0, 64, 127
1, 56769, Note_off_c, 0, 59, 64
1, 57131, Note_off_c, 0, 61, 64
1, 57260, Note_off_c, 0, 65, 64
1, 57341, Note_off_c, 0, 73, 64
1, 57341, Note_off_c, 0, 71, 64
1, 58074, Note_on_c, 0, 66, 88
1, 58074, Note_on_c, 0, 54, 103
1, 58079, Note_on_c, 0, 47, 89
1, 58079, Note_on_c, 0, 35, 94
1, 58083, Note_on_c, 0, 59, 91
1, 58083, Note_on_c, 0, 62, 90
1, 58216, Control_c, 0, 64, 0
1, 58349, Control_c, 0, 64, 127
1, 58349, Note_off_c, 0, 54, 64
1, 58349, Note_off_c, 0, 35, 64
1, 58399, Note_off_c, 0, 59, 64
1, 58404, Note_off_c, 0, 62, 64
1, 58430, Note_off_c, 0, 47, 64
1, 58461, Note_off_c, 0, 66, 64
1, 58689, Note_on_c, 0, 71, 107
1, 58689, Note_on_c, 0, 66, 86
1, 58689, Note_on_c, 0, 59, 104
1, 58695, Note_on_c, 0, 38, 95
1, 58695, Note_on_c, 0, 50, 98
1, 58744, Control_c, 0, 64, 0
1, 58911, Control_c, 0, 64, 127
1, 58942, Note_off_c, 0, 38, 64
1, 58946, Note_off_c, 0, 59, 64
1, 58979, Note_off_c, 0, 50, 64
1, 58998, Note_off_c, 0, 71, 64
1, 59032, Note_off_c, 0, 66, 64
1, 59414, Note_on_c, 0, 43, 70
1, 59417, Note_on_c, 0, 73, 90
1, 59417, Note_on_c, 0, 61, 95
1, 59421, Note_on_c, 0, 71, 96
1, 59428, Note_on_c, 0, 65, 80
1, 59431, Note_on_c, 0, 49, 65
1, 59438, Note_on_c, 0, 59, 73
1, 59655, Control_c, 0, 64, 0
1, 60003, Control_c, 0, 64, 127
1, 60137, Note_off_c, 0, 59, 64
1, 60157, Note_off_c, 0, 61, 64
1, 60216, Note_off_c, 0, 65, 64
1, 60233, Note_off_c, 0, 43, 64
1, 60254, Note_off_c, 0, 49, 64
1, 60315, Note_off_c, 0, 71, 64
1, 60389, Note_off_c, 0, 73, 64
1, 60703, Note_on_c, 0, 64, 101
1, 60703, Note_on_c, 0, 76, 98
1, 60706, Note_on_c, 0, 71, 101
1, 60712, Note_on_c, 0, 49, 91
1, 60715, Note_on_c, 0, 37, 90
1, 60715, Note_on_c, 0, 47, 74
1, 61056, Note_off_c, 0, 47, 64
1, 61099, Note_off_c, 0, 76, 64
1, 61102, Note_off_c, 0, 71, 64
1, 61148, Note_off_c, 0, 64, 64
1, 61168, Note_off_c, 0, 49, 64
1, 61194, Note_off_c, 0, 37, 64
1, 61321, Note_on_c, 0, 74, 104
1, 61325, Note_on_c, 0, 66, 81
1, 61325, Note_on_c, 0, 62, 95
1, 61325, Note_on_c, 0, 38, 95
1, 61330, Note_on_c, 0, 50, 94
1, 61343, Note_on_c, 0, 47, 74
1, 61380, Control_c, 0, 64, 0
1, 61500, Control_c, 0, 64, 127
1, 61531, Note_off_c, 0, 50, 64
1, 61538, Note_off_c, 0, 38, 64
1, 61611, Note_on_c, 0, 68, 90
1, 61619, Note_on_c, 0, 52, 103
1, 61619, Note_on_c, 0, 40, 103
1, 61705, Note_off_c, 0, 74, 64
1, 61720, Note_off_c, 0, 66, 64
1, 61734, Note_off_c, 0, 62, 64
1, 61809, Note_off_c, 0, 52, 64
1, 61889, Note_off_c, 0, 40, 64
1, 61953, Note_on_c, 0, 73, 90
1, 61953, Note_on_c, 0, 61, 99
1, 61953, Note_on_c, 0, 70, 81
1, 61957, Note_on_c, 0, 54, 100
1, 61967, Note_on_c, 0, 42, 76
1, 62138, Note_off_c, 0, 68, 64
1, 62171, Control_c, 0, 64, 0
1, 62325, Note_off_c, 0, 70, 64
1, 62363, Control_c, 0, 64, 127
1, 62441, Note_off_c, 0, 61, 64
1, 62480, Note_off_c, 0, 73, 64
1, 62499, Note_off_c, 0, 54, 64
1, 62586, Note_on_c, 0, 68, 69
1, 62586, Note_on_c, 0, 74, 101
1, 62589, Note_off_c, 0, 47, 64
1, 62589, Note_on_c, 0, 62, 97
1, 62592, Note_on_c, 0, 71, 87
1, 62595, Note_on_c, 0, 52, 95
1, 62595, Note_off_c, 0, 42, 64
1, 62600, Note_on_c, 0, 40, 97
1, 62675, Control_c, 0, 64, 0
1, 62783, Control_c, 0, 64, 127
1, 62814, Note_off_c, 0, 68, 64
1, 62823, Note_off_c, 0, 71, 64
1, 62823, Note_off_c, 0, 62, 64
1, 62846, Note_off_c, 0, 74, 64
1, 62931, Note_on_c, 0, 76, 98
1, 62935, Note_on_c, 0, 67, 76
1, 62938, Note_on_c, 0, 73, 78
1, 62938, Note_on_c, 0, 64, 95
1, 62999, Note_off_c, 0, 76, 64
1, 63040, Note_off_c, 0, 73, 64
1, 63046, Note_off_c, 0, 67, 64
1, 63055, Note_off_c, 0, 64, 64
1, 63191, Note_off_c, 0, 52, 64
1, 63222, Note_off_c, 0, 40, 64
1, 63288, Note_on_c, 0, 70, 80
1, 63288, Note_on_c, 0, 58, 80
1, 63291, Note_on_c, 0, 66, 72
1, 63304, Note_on_c, 0, 50, 89
1, 63310, Note_on_c, 0, 38, 77
1, 63322, Note_on_c, 0, 42, 42
1, 63357, Control_c, 0, 64, 0
1, 63372, Note_off_c, 0, 42, 64
1, 63464, Note_on_c, 0, 42, 16
1, 63508, Control_c, 0, 64, 127
1, 63544, Note_off_c, 0, 42, 64
1, 63559, Note_off_c, 0, 50, 64
1, 63658, Note_on_c, 0, 49, 83
1, 63661, Note_on_c, 0, 64, 88
1, 63670, Note_on_c, 0, 37, 78
1, 63692, Note_off_c, 0, 38, 64
1, 63729, Control_c, 0, 64, 0
1, 63750, Note_off_c, 0, 66, 64
1, 63932, Control_c, 0, 64, 127
1, 63984, Note_off_c, 0, 70, 64
1, 63984, Note_off_c, 0, 58, 64
1, 64049, Note_off_c, 0, 49, 64
1, 64059, Note_off_c, 0, 37, 64
1, 64168, Note_on_c, 0, 66, 64
1, 64168, Note_on_c, 0, 71, 96
1, 64171, Note_on_c, 0, 59, 81
1, 64174, Note_on_c, 0, 47, 71
1, 64177, Note_on_c, 0, 62, 75
1, 64182, Note_on_c, 0, 42, 55
1, 64182, Note_on_c, 0, 35, 70
1, 64191, Note_on_c, 0, 38, 50
1, 64224, Note_off_c, 0, 64, 64
1, 64268, Control_c, 0, 64, 0
1, 64784, Control_c, 0, 64, 127
1, 65505, Note_off_c, 0, 59, 64
1, 65509, Note_off_c, 0, 35, 64
1, 65525, Note_off_c, 0, 71, 64
1, 65533, Note_off_c, 0, 47, 64
1, 65541, Note_off_c, 0, 38, 64
1, 65572, Note_off_c, 0, 62, 64
1, 65572, Note_off_c, 0, 42, 64
1, 65620, Note_off_c, 0, 66, 64
1, 65862, Control_c, 0, 64, 0
1, 66469, Note_on_c, 0, 83, 70
1, 66478, Note_on_c, 0, 71, 31
1, 66484, Note_on_c, 0, 77, 36
1, 66489, Note_on_c, 0, 67, 25
1, 66761, Control_c, 0, 64, 127
1, 66809, Note_off_c, 0, 71, 64
1, 67082, Note_on_c, 0, 82, 65
1, 67094, Note_on_c, 0, 73, 23
1, 67144, Note_off_c, 0, 83, 64
1, 67325, Control_c, 0, 64, 0
1, 67433, Control_c, 0, 64, 127
1, 67519, Note_off_c, 0, 77, 64
1, 67618, Note_off_c, 0, 73, 64
1, 67634, Note_off_c, 0, 67, 64
1, 67809, Note_on_c, 0, 81, 37
1, 67821, Note_on_c, 0, 78, 21
1, 67821, Note_off_c, 0, 82, 64
1, 67824, Note_on_c, 0, 62, 28
1, 67832, Note_on_c, 0, 74, 31
1, 68140, Control_c, 0, 64, 0
1, 68439, Control_c, 0, 64, 127
1, 68455, Note_off_c, 0, 74, 64
1, 68492, Note_off_c, 0, 81, 64
1, 68492, Note_off_c, 0, 62, 64
1, 68520, Note_off_c, 0, 78, 64
1, 68996, Note_on_c, 0, 83, 76
1, 69004, Note_on_c, 0, 77, 38
1, 69010, Note_on_c, 0, 71, 26
1, 69029, Note_on_c, 0, 67, 20
1, 69086, Control_c, 0, 64, 0
1, 69327, Control_c, 0, 64, 127
1, 69417, Note_off_c, 0, 71, 64
1, 69642, Note_on_c, 0, 82, 51
1, 69650, Note_on_c, 0, 73, 27
1, 69757, Control_c, 0, 64, 0
1, 69782, Note_off_c, 0, 83, 64
1, 69949, Control_c, 0, 64, 127
1, 70094, Note_off_c, 0, 77, 64
1, 70154, Note_off_c, 0, 73, 64
1, 70302, Note_off_c, 0, 67, 64
1, 70336, Note_on_c, 0, 81, 31
1, 70342, Note_on_c, 0, 78, 23
1, 70345, Note_off_c, 0, 82, 64
1, 70364, Note_on_c, 0, 74, 29
1, 70377, Note_on_c, 0, 62, 22
1, 70537, Control_c, 0, 64, 0
1, 70909, Control_c, 0, 64, 127
1, 70916, Note_off_c, 0, 74, 64
1, 70965, Note_off_c, 0, 81, 64
1, 71005, Note_off_c, 0, 62, 64
1, 71011, Note_off_c, 0, 78, 64
1, 71720, Note_on_c, 0, 83, 54
1, 71735, Note_on_c, 0, 77, 24
1, 71738, Note_on_c, 0, 71, 19
1, 71756, Note_on_c, 0, 67, 13
1, 71795, Control_c, 0, 64, 0
1, 72035, Control_c, 0, 64, 127
1, 72132, Note_off_c, 0, 71, 64
1, 72335, Note_on_c, 0, 82, 57
1, 72345, Note_on_c, 0, 73, 31
1, 72419, Note_off_c, 0, 83, 64
1, 72609, Control_c, 0, 64, 0
1, 72718, Control_c, 0, 64, 127
1, 72793, Note_off_c, 0, 73, 64
1, 72807, Note_off_c, 0, 77, 64
1, 72816, Note_off_c, 0, 82, 64
1, 72907, Note_on_c, 0, 81, 54
1, 72912, Note_off_c, 0, 67, 64
1, 72912, Note_on_c, 0, 78, 38
1, 72912, Note_on_c, 0, 74, 44
1, 72929, Note_on_c, 0, 62, 29
1, 73197, Control_c, 0, 64, 0
1, 73330, Control_c, 0, 64, 127
1, 73498, Note_on_c, 0, 73, 48
1, 73590, Note_off_c, 0, 74, 64
1, 73715, Note_off_c, 0, 73, 64
1, 73760, Note_off_c, 0, 81, 64
1, 73801, Note_on_c, 0, 72, 58
1, 73891, Note_off_c, 0, 78, 64
1, 73941, Note_off_c, 0, 72, 64
1, 73999, Note_off_c, 0, 62, 64
1, 74195, Note_on_c, 0, 81, 58
1, 74195, Note_on_c, 0, 61, 44
1, 74200, Note_on_c, 0, 71, 51
1, 74208, Note_on_c, 0, 77, 41
1, 74312, Control_c, 0, 64, 0
1, 74707, Control_c, 0, 64, 127
1, 74952, Note_on_c, 0, 79, 56
1, 74958, Control_c, 0, 64, 0
1, 75002, Note_off_c, 0, 81, 64
1, 75247, Control_c, 0, 64, 127
1, 75369, Note_off_c, 0, 71, 64
1, 75448, Note_off_c, 0, 77, 64
1, 75623, Note_off_c, 0, 61, 64
1, 75696, Note_on_c, 0, 78, 32
1, 75724, Note_on_c, 0, 70, 16
1, 75732, Note_on_c, 0, 66, 20
1, 75740, Note_on_c, 0, 73, 12
1, 75784, Note_off_c, 0, 79, 64
1, 75905, Control_c, 0, 64, 0
1, 76361, Control_c, 0, 64, 127
1, 76459, Note_off_c, 0, 70, 64
1, 76495, Note_off_c, 0, 66, 64
1, 76500, Note_off_c, 0, 73, 64
1, 76514, Note_off_c, 0, 78, 64
1, 76996, Control_c, 0, 64, 0
1, 77291, Note_on_c, 0, 76, 28
1, 77294, Note_on_c, 0, 70, 17
1, 77311, Note_on_c, 0, 64, 17
1, 77322, Note_on_c, 0, 60, 15
1, 77476, Control_c, 0, 64, 127
1, 77615, Note_off_c, 0, 64, 64
1, 77933, Note_on_c, 0, 75, 26
1, 77974, Note_on_c, 0, 66, 4
1, 78035, Note_off_c, 0, 76, 64
1, 78331, Note_off_c, 0, 70, 64
1, 78350, Note_off_c, 0, 66, 64
1, 78381, Note_off_c, 0, 60, 64
1, 78532, Note_off_c, 0, 75, 64
1, 78588, Note_on_c, 0, 74, 15
1, 78616, Note_on_c, 0, 67, 16
1, 78621, Note_on_c, 0, 55, 13
1, 78626, Note_on_c, 0, 71, 9
1, 78794, Control_c, 0, 64, 0
1, 79117, Control_c, 0, 64, 127
1, 79236, Note_off_c, 0, 67, 64
1, 79242, Note_off_c, 0, 55, 64
1, 79261, Note_off_c, 0, 74, 64
1, 79275, Note_off_c, 0, 71, 64
1, 79847, Note_on_c, 0, 70, 18
1, 79850, Note_on_c, 0, 76, 41
1, 79886, Note_on_c, 0, 64, 15
1, 79886, Note_on_c, 0, 60, 23
1, 79967, Control_c, 0, 64, 0
1, 80172, Control_c, 0, 64, 127
1, 80206, Note_off_c, 0, 64, 64
1, 80453, Note_on_c, 0, 75, 45
1, 80468, Note_on_c, 0, 66, 17
1, 80559, Note_off_c, 0, 76, 64
1, 80771, Control_c, 0, 64, 0
1, 80855, Control_c, 0, 64, 127
1, 80933, Note_off_c, 0, 70, 64
1, 80938, Note_off_c, 0, 66, 64
1, 80991, Note_off_c, 0, 60, 64
1, 81117, Note_on_c, 0, 74, 41
1, 81133, Note_on_c, 0, 71, 23
1, 81144, Note_on_c, 0, 67, 23
1, 81161, Note_on_c, 0, 55, 19
1, 81242, Note_off_c, 0, 75, 64
1, 81300, Control_c, 0, 64, 0
1, 81766, Control_c, 0, 64, 127
1, 81825, Note_off_c, 0, 67, 64
1, 81847, Note_off_c, 0, 71, 64
1, 81871, Note_off_c, 0, 74, 64
1, 82323, Note_on_c, 0, 76, 47
1, 82334, Note_on_c, 0, 70, 22
1, 82345, Note_off_c, 0, 55, 64
1, 82348, Note_on_c, 0, 64, 13
1, 82359, Note_on_c, 0, 60, 18
1, 82485, Control_c, 0, 64, 0
1, 82690, Control_c, 0, 64, 127
1, 82769, Note_off_c, 0, 64, 64
1, 83011, Note_on_c, 0, 75, 54
1, 83017, Note_on_c, 0, 66, 30
1, 83081, Note_off_c, 0, 76, 64
1, 83375, Note_off_c, 0, 75, 64
1, 83435, Note_off_c, 0, 70, 64
1, 83502, Note_off_c, 0, 66, 64
1, 83623, Note_on_c, 0, 74, 60
1, 83627, Note_on_c, 0, 55, 34
1, 83630, Note_on_c, 0, 67, 34
1, 83633, Note_on_c, 0, 71, 47
1, 83646, Note_off_c, 0, 60, 64
1, 84103, Control_c, 0, 64, 0
1, 84189, Note_on_c, 0, 66, 52
1, 84354, Control_c, 0, 64, 127
1, 84371, Note_off_c, 0, 67, 64
1, 84454, Note_off_c, 0, 66, 64
1, 84521, Note_on_c, 0, 65, 58
1, 84622, Note_off_c, 0, 74, 64
1, 84719, Note_off_c, 0, 65, 64
1, 84754, Note_off_c, 0, 71, 64
1, 84779, Note_off_c, 0, 55, 64
1, 84944, Note_on_c, 0, 74, 62
1, 84944, Note_on_c, 0, 70, 35
1, 84950, Note_on_c, 0, 64, 50
1, 84961, Note_on_c, 0, 54, 37
1, 85170, Control_c, 0, 64, 0
1, 85565, Control_c, 0, 64, 127
1, 85647, Note_on_c, 0, 73, 47
1, 85680, Note_off_c, 0, 74, 64
1, 85721, Control_c, 0, 64, 0
1, 85997, Control_c, 0, 64, 127
1, 86048, Note_off_c, 0, 70, 64
1, 86080, Note_off_c, 0, 64, 64
1, 86242, Note_off_c, 0, 73, 64
1, 86338, Note_off_c, 0, 54, 64
1, 86341, Note_on_c, 0, 71, 33
1, 86370, Note_on_c, 0, 62, 14
1, 86370, Note_on_c, 0, 66, 11
1, 86396, Note_on_c, 0, 59, 8
1, 86512, Control_c, 0, 64, 0
1, 86895, Control_c, 0, 64, 127
1, 86936, Note_off_c, 0, 71, 64
1, 86981, Note_off_c, 0, 62, 64
1, 86986, Note_off_c, 0, 59, 64
1, 87031, Note_off_c, 0, 66, 64
1, 87998, Note_on_c, 0, 71, 41
1, 88012, Note_on_c, 0, 59, 16
1, 88019, Note_on_c, 0, 65, 14
1, 88026, Note_on_c, 0, 43, 22
1, 88036, Note_on_c, 0, 55, 13
1, 88490, Note_off_c, 0, 71, 64
1, 88771, Note_on_c, 0, 70, 21
1, 88791, Note_on_c, 0, 61, 23
1, 88884, Control_c, 0, 64, 0
1, 88930, Note_off_c, 0, 59, 64
1, 89040, Control_c, 0, 64, 127
1, 89073, Note_off_c, 0, 55, 64
1, 89112, Note_off_c, 0, 43, 64
1, 89234, Note_off_c, 0, 61, 64
1, 89243, Note_off_c, 0, 70, 64
1, 89393, Note_off_c, 0, 65, 64
1, 89474, Note_on_c, 0, 66, 17
1, 89482, Note_on_c, 0, 62, 15
1, 89491, Note_on_c, 0, 69, 14
1, 89504, Note_on_c, 0, 38, 15
1, 89507, Note_on_c, 0, 50, 14
1, 89736, Control_c, 0, 64, 0
1, 90143, Control_c, 0, 64, 127
1, 90148, Note_off_c, 0, 69, 64
1, 90157, Note_off_c, 0, 38, 64
1, 90162, Note_off_c, 0, 62, 64
1, 90228, Note_off_c, 0, 50, 64
1, 90243, Note_off_c, 0, 66, 64
1, 90870, Note_on_c, 0, 71, 52
1, 90894, Note_on_c, 0, 59, 13
1, 90898, Note_on_c, 0, 43, 15
1, 90901, Note_on_c, 0, 55, 8
1, 90909, Note_on_c, 0, 65, 12
1, 91078, Control_c, 0, 64, 0
1, 91198, Control_c, 0, 64, 127
1, 91310, Note_off_c, 0, 71, 64
1, 91488, Note_off_c, 0, 59, 64
1, 91561, Note_on_c, 0, 70, 25
1, 91596, Note_on_c, 0, 61, 19
1, 91761, Control_c, 0, 64, 0
1, 91917, Control_c, 0, 64, 127
1, 91945, Note_off_c, 0, 55, 64
1, 91989, Note_off_c, 0, 43, 64
1, 92112, Note_off_c, 0, 61, 64
1, 92128, Note_off_c, 0, 70, 64
1, 92213, Note_off_c, 0, 65, 64
1, 92349, Note_on_c, 0, 69, 21
1, 92357, Note_on_c, 0, 66, 14
1, 92357, Note_on_c, 0, 62, 16
1, 92377, Note_on_c, 0, 38, 13
1, 92384, Note_on_c, 0, 50, 12
1, 92613, Control_c, 0, 64, 0
1, 92993, Note_off_c, 0, 69, 64
1, 92993, Control_c, 0, 64, 127
1, 93092, Note_off_c, 0, 38, 64
1, 93151, Note_off_c, 0, 62, 64
1, 93168, Note_off_c, 0, 50, 64
1, 93535, Note_off_c, 0, 66, 64
1, 93730, Note_on_c, 0, 71, 49
1, 93747, Note_on_c, 0, 65, 23
1, 93753, Note_on_c, 0, 59, 15
1, 93761, Note_on_c, 0, 55, 22
1, 93766, Note_on_c, 0, 43, 24
1, 94075, Control_c, 0, 64, 0
1, 94206, Control_c, 0, 64, 127
1, 94246, Note_off_c, 0, 71, 64
1, 94343, Note_on_c, 0, 70, 62
1, 94358, Note_on_c, 0, 61, 45
1, 94376, Note_off_c, 0, 59, 64
1, 94705, Note_off_c, 0, 55, 64
1, 94748, Note_off_c, 0, 43, 64
1, 94908, Note_off_c, 0, 70, 64
1, 95006, Note_on_c, 0, 69, 50
1, 95009, Note_on_c, 0, 62, 54
1, 95023, Note_on_c, 0, 66, 51
1, 95023, Note_on_c, 0, 50, 31
1, 95023, Note_on_c, 0, 38, 24
1, 95054, Note_off_c, 0, 65, 64
1, 95076, Note_off_c, 0, 61, 64
1, 95309, Control_c, 0, 64, 0
1, 95488, Control_c, 0, 64, 127
1, 95748, Note_on_c, 0, 61, 62
1, 95881, Note_off_c, 0, 62, 64
1, 96026, Note_off_c, 0, 61, 64
1, 96039, Note_off_c, 0, 50, 64
1, 96064, Note_on_c, 0, 60, 79
1, 96121, Note_off_c, 0, 69, 64
1, 96137, Note_off_c, 0, 38, 64
1, 96357, Note_off_c, 0, 60, 64
1, 96393, Note_off_c, 0, 66, 64
1, 96522, Note_on_c, 0, 69, 56
1, 96527, Note_on_c, 0, 59, 54
1, 96544, Note_on_c, 0, 65, 19
1, 96544, Note_on_c, 0, 49, 29
1, 96558, Note_on_c, 0, 37, 25
1, 96688, Control_c, 0, 64, 0
1, 97082, Control_c, 0, 64, 127
1, 97274, Note_on_c, 0, 67, 46
1, 97335, Control_c, 0, 64, 0
1, 97400, Note_off_c, 0, 69, 64
1, 97586, Control_c, 0, 64, 127
1, 97698, Note_off_c, 0, 37, 64
1, 97742, Note_off_c, 0, 49, 64
1, 97742, Note_off_c, 0, 65, 64
1, 97750, Note_off_c, 0, 59, 64
1, 98120, Note_on_c, 0, 66, 29
1, 98129, Note_on_c, 0, 58, 17
1, 98141, Note_on_c, 0, 54, 19
1, 98151, Note_on_c, 0, 42, 19
1, 98151, Note_on_c, 0, 61, 17
1, 98282, Control_c, 0, 64, 0
1, 98344, Note_off_c, 0, 67, 64
1, 98725, Control_c, 0, 64, 127
1, 98840, Note_off_c, 0, 54, 64
1, 98934, Note_off_c, 0, 58, 64
1, 98940, Note_off_c, 0, 66, 64
1, 98940, Note_off_c, 0, 61, 64
1, 98950, Note_off_c, 0, 42, 64
1, 99647, Control_c, 0, 64, 0
1, 99765, Note_on_c, 0, 64, 51
1, 99765, Note_on_c, 0, 58, 17
1, 99773, Note_on_c, 0, 48, 18
1, 99778, Note_on_c, 0, 52, 36
1, 99797, Note_on_c, 0, 36, 34
1, 100066, Control_c, 0, 64, 127
1, 100129, Note_off_c, 0, 52, 64
1, 100446, Note_on_c, 0, 54, 48
1, 100458, Note_on_c, 0, 63, 52
1, 100534, Note_off_c, 0, 64, 64
1, 100818, Note_off_c, 0, 48, 64
1, 100871, Note_off_c, 0, 36, 64
1, 100948, Note_off_c, 0, 58, 64
1, 101040, Note_off_c, 0, 54, 64
1, 101169, Note_on_c, 0, 62, 43
1, 101176, Note_on_c, 0, 59, 27
1, 101190, Note_on_c, 0, 55, 35
1, 101190, Note_on_c, 0, 43, 27
1, 101190, Note_on_c, 0, 31, 28
1, 101353, Note_off_c, 0, 63, 64
1, 101361, Control_c, 0, 64, 0
1, 101768, Control_c, 0, 64, 127
1, 101803, Note_off_c, 0, 31, 64
1, 101851, Note_off_c, 0, 43, 64
1, 101912, Note_off_c, 0, 55, 64
1, 101962, Note_off_c, 0, 59, 64
1, 102024, Note_off_c, 0, 62, 64
1, 102587, Note_on_c, 0, 58, 11
1, 102597, Note_on_c, 0, 36, 17
1, 102605, Note_on_c, 0, 48, 13
1, 102608, Note_on_c, 0, 64, 28
1, 102628, Note_on_c, 0, 52, 4
1, 102680, Control_c, 0, 64, 0
1, 102932, Control_c, 0, 64, 127
1, 102957, Note_off_c, 0, 52, 64
1, 103288, Note_on_c, 0, 54, 24
1, 103293, Note_on_c, 0, 63, 27
1, 103341, Note_off_c, 0, 64, 64
1, 103386, Control_c, 0, 64, 0
1, 103555, Control_c, 0, 64, 127
1, 103587, Note_off_c, 0, 48, 64
1, 103630, Note_off_c, 0, 36, 64
1, 103647, Note_off_c, 0, 58, 64
1, 103670, Note_off_c, 0, 54, 64
1, 103951, Note_on_c, 0, 62, 22
1, 103988, Note_on_c, 0, 55, 14
1, 103991, Note_on_c, 0, 43, 12
1, 103991, Note_on_c, 0, 59, 10
1, 104007, Note_on_c, 0, 31, 25
1, 104118, Note_off_c, 0, 63, 64
1, 104118, Control_c, 0, 64, 0
1, 104573, Control_c, 0, 64, 127
1, 104636, Note_off_c, 0, 31, 64
1, 104648, Note_off_c, 0, 43, 64
1, 104683, Note_off_c, 0, 55, 64
1, 104757, Note_off_c, 0, 59, 64
1, 104800, Note_off_c, 0, 62, 64
1, 105372, Note_on_c, 0, 58, 9
1, 105372, Note_on_c, 0, 52, 24
1, 105377, Note_on_c, 0, 64, 32
1, 105388, Note_on_c, 0, 48, 9
1, 105403, Note_on_c, 0, 36, 21
1, 105508, Control_c, 0, 64, 0
1, 105736, Control_c, 0, 64, 127
1, 105820, Note_off_c, 0, 52, 64
1, 106104, Note_on_c, 0, 54, 29
1, 106108, Note_on_c, 0, 63, 48
1, 106211, Note_off_c, 0, 64, 64
1, 106409, Note_off_c, 0, 48, 64
1, 106459, Note_off_c, 0, 36, 64
1, 106491, Note_off_c, 0, 58, 64
1, 106542, Note_off_c, 0, 54, 64
1, 106589, Note_off_c, 0, 63, 64
1, 106737, Note_on_c, 0, 55, 54
1, 106745, Note_on_c, 0, 62, 47
1, 106754, Note_on_c, 0, 59, 38
1, 106764, Note_on_c, 0, 31, 26
1, 106775, Note_on_c, 0, 43, 18
1, 107174, Control_c, 0, 64, 0
1, 107317, Control_c, 0, 64, 127
1, 107375, Note_on_c, 0, 54, 64
1, 107409, Note_off_c, 0, 55, 64
1, 107618, Note_off_c, 0, 54, 64
1, 107647, Note_off_c, 0, 43, 64
1, 107751, Note_on_c, 0, 53, 81
1, 107784, Note_off_c, 0, 62, 64
1, 107810, Note_off_c, 0, 59, 64
1, 107848, Note_off_c, 0, 31, 64
1, 107921, Note_off_c, 0, 53, 64
1, 108239, Note_on_c, 0, 62, 61
1, 108249, Note_on_c, 0, 58, 25
1, 108253, Note_on_c, 0, 30, 26
1, 108253, Note_on_c, 0, 52, 48
1, 108256, Note_on_c, 0, 42, 26
1, 108325, Control_c, 0, 64, 0
1, 109330, Note_on_c, 0, 61, 44
1, 109448, Note_off_c, 0, 62, 64
1, 109667, Control_c, 0, 64, 127
1, 109681, Note_off_c, 0, 30, 64
1, 109684, Note_off_c, 0, 58, 64
1, 109729, Note_off_c, 0, 42, 64
1, 109774, Note_off_c, 0, 52, 64
1, 110160, Note_on_c, 0, 59, 31
1, 110175, Note_on_c, 0, 54, 17
1, 110175, Note_off_c, 0, 61, 64
1, 110178, Note_on_c, 0, 50, 22
1, 110203, Note_on_c, 0, 47, 10
1, 110214, Note_on_c, 0, 35, 28
1, 110673, Control_c, 0, 64, 0
1, 110880, Note_off_c, 0, 47, 64
1, 110924, Note_off_c, 0, 50, 64
1, 110924, Control_c, 0, 64, 127
1, 110935, Note_off_c, 0, 35, 64
1, 110952, Note_off_c, 0, 59, 64
1, 110980, Note_off_c, 0, 54, 64
1, 111800, Control_c, 0, 64, 0
1, 112138, Note_on_c, 0, 62, 39
1, 112138, Note_on_c, 0, 58, 11
1, 112138, Note_on_c, 0, 52, 32
1, 112146, Note_on_c, 0, 42, 27
1, 112150, Note_on_c, 0, 30, 26
1, 112398, Control_c, 0, 64, 127
1, 113142, Note_on_c, 0, 61, 33
1, 113203, Note_off_c, 0, 62, 64
1, 113214, Control_c, 0, 64, 0
1, 113406, Control_c, 0, 64, 127
1, 113406, Note_off_c, 0, 30, 64
1, 113429, Note_off_c, 0, 58, 64
1, 113440, Note_off_c, 0, 52, 64
1, 113451, Note_off_c, 0, 42, 64
1, 113955, Note_on_c, 0, 59, 22
1, 113969, Note_on_c, 0, 50, 11
1, 113977, Note_on_c, 0, 54, 15
1, 113977, Note_on_c, 0, 47, 4
1, 113985, Note_on_c, 0, 35, 17
1, 114002, Note_off_c, 0, 61, 64
1, 114138, Control_c, 0, 64, 0
1, 114409, Note_off_c, 0, 47, 64
1, 114436, Control_c, 0, 64, 127
1, 114442, Note_off_c, 0, 35, 64
1, 114456, Note_off_c, 0, 59, 64
1, 114478, Note_off_c, 0, 54, 64
1, 114482, Note_off_c, 0, 50, 64
1, 115503, Control_c, 0, 64, 0
1, 116007, Control_c, 0, 64, 127
1, 116180, Note_on_c, 0, 58, 11
1, 116186, Note_on_c, 0, 30, 14
1, 116186, Note_on_c, 0, 62, 24
1, 116202, Note_on_c, 0, 42, 7
1, 116202, Note_on_c, 0, 52, 15
1, 118153, Note_on_c, 0, 61, 10
1, 118267, Note_off_c, 0, 62, 64
1, 118428, Control_c, 0, 64, 0
1, 118582, Control_c, 0, 64, 127
1, 118758, Note_off_c, 0, 42, 64
1, 118771, Note_off_c, 0, 52, 64
1, 118802, Note_off_c, 0, 30, 64
1, 118860, Note_off_c, 0, 58, 64
1, 119534, Note_off_c, 0, 61, 64
1, 119989, Note_on_c, 0, 50, 3
1, 119992, Note_on_c, 0, 59, 9
1, 119996, Note_on_c, 0, 42, 5
1, 120013, Note_on_c, 0, 35, 5
1, 120404, Control_c, 0, 64, 0
1, 120537, Control_c, 0, 64, 127
1, 121613, Note_off_c, 0, 42, 64
1, 121641, Note_off_c, 0, 50, 64
1, 121641, Note_off_c, 0, 35, 64
1, 121690, Note_off_c, 0, 59, 64
1, 122351, Note_on_c, 0, 59, 24
1, 122351, Note_on_c, 0, 50, 18
1, 122368, Note_on_c, 0, 42, 15
1, 122373, Note_on_c, 0, 35, 20
1, 122899, Note_off_c, 0, 35, 64
1, 123421, Note_off_c, 0, 42, 64
1, 123587, Note_off_c, 0, 50, 64
1, 124126, Note_off_c, 0, 59, 64
1, 125694, Note_on_c, 0, 42, 13
1, 125702, Note_on_c, 0, 59, 12
1, 125708, Note_on_c, 0, 35, 19
1, 125714, Note_on_c, 0, 50, 12
1, 129273, Note_off_c, 0, 42, 64
1, 129299, Note_off_c, 0, 35, 64
1, 129307, Note_off_c, 0, 50, 64
1, 129391, Note_off_c, 0, 59, 64
1, 130292, Control_c, 0, 64, 0
1, 131790, End_track
0, 0, End_of_file
