0, 0, Header, 0, 1, 384
1, 0, Start_track
1, 0, Tempo, 512820
1, 0, Title_t, ""
1, 0, Note_on_c, 0, 67, 48
1, 3, Note_on_c, 0, 76, 50
1, 3, Note_on_c, 0, 64, 46
1, 3, Note_on_c, 0, 71, 52
1, 42, Note_off_c, 0, 76, 64
1, 49, Note_off_c, 0, 64, 64
1, 49, Note_off_c, 0, 71, 64
1, 49, Note_off_c, 0, 67, 64
1, 175, Note_on_c, 0, 76, 47
1, 180, Note_on_c, 0, 67, 40
1, 180, Note_on_c, 0, 71, 54
1, 186, Note_on_c, 0, 64, 46
1, 214, Note_off_c, 0, 76, 64
1, 222, Note_off_c, 0, 71, 64
1, 225, Note_off_c, 0, 64, 64
1, 225, Note_off_c, 0, 67, 64
1, 340, Note_on_c, 0, 76, 55
1, 347, Note_on_c, 0, 60, 53
1, 347, Note_on_c, 0, 72, 49
1, 359, Note_on_c, 0, 67, 34
1, 387, Note_off_c, 0, 76, 64
1, 387, Note_off_c, 0, 60, 64
1, 387, Note_off_c, 0, 72, 64
1, 420, Note_off_c, 0, 67, 64
1, 523, Note_on_c, 0, 76, 66
1, 523, Note_on_c, 0, 71, 73
1, 531, Note_on_c, 0, 64, 59
1, 531, Note_on_c, 0, 67, 51
1, 560, Note_off_c, 0, 71, 64
1, 565, Note_off_c, 0, 76, 64
1, 570, Note_off_c, 0, 64, 64
1, 574, Note_off_c, 0, 67, 64
1, 688, Note_on_c, 0, 76, 61
1, 691, Note_on_c, 0, 71, 53
1, 696, Note_on_c, 0, 64, 57
1, 713, Note_on_c, 0, 67, 26
1, 726, Note_off_c, 0, 76, 64
1, 732, Note_off_c, 0, 71, 64
1, 732, Note_off_c, 0, 64, 64
1, 766, Note_off_c, 0, 67, 64
1, 857, Note_on_c, 0, 67, 48
1, 899, Note_off_c, 0, 67, 64
1, 927, Note_on_c, 0, 69, 58
1, 992, Note_on_c, 0, 64, 70
1, 992, Note_off_c, 0, 69, 64
1, 1000, Note_on_c, 0, 67, 41
1, 1007, Note_on_c, 0, 71, 72
1, 1031, Note_off_c, 0, 64, 64
1, 1049, Note_off_c, 0, 67, 64
1, 1061, Note_off_c, 0, 71, 64
1, 1088, Note_on_c, 0, 72, 61
1, 1122, Note_off_c, 0, 72, 64
1, 1150, Note_on_c, 0, 67, 54
1, 1161, Note_on_c, 0, 64, 58
1, 1180, Note_on_c, 0, 71, 54
1, 1191, Note_off_c, 0, 67, 64
1, 1197, Note_off_c, 0, 64, 64
1, 1222, Note_off_c, 0, 71, 64
1, 1236, Note_on_c, 0, 78, 75
1, 1294, Note_on_c, 0, 69, 52
1, 1312, Note_on_c, 0, 76, 72
1, 1317, Note_on_c, 0, 64, 55
1, 1333, Note_off_c, 0, 69, 64
1, 1351, Note_off_c, 0, 78, 64
1, 1351, Note_off_c, 0, 64, 64
1, 1375, Note_off_c, 0, 76, 64
1, 1395, Note_on_c, 0, 74, 74
1, 1431, Note_off_c, 0, 74, 64
1, 1465, Note_on_c, 0, 71, 73
1, 1465, Note_on_c, 0, 67, 61
1, 1478, Note_on_c, 0, 64, 41
1, 1506, Note_off_c, 0, 67, 64
1, 1521, Note_off_c, 0, 64, 64
1, 1529, Note_off_c, 0, 71, 64
1, 1538, Note_on_c, 0, 76, 65
1, 1579, Note_off_c, 0, 76, 64
1, 1612, Note_on_c, 0, 79, 59
1, 1666, Note_off_c, 0, 79, 64
1, 1682, Note_on_c, 0, 82, 60
1, 1730, Note_off_c, 0, 82, 64
1, 1774, Note_on_c, 0, 83, 88
1, 1811, Note_off_c, 0, 83, 64
1, 1941, Note_on_c, 0, 83, 99
1, 1941, Note_on_c, 0, 74, 80
1, 1947, Note_on_c, 0, 78, 66
1, 1947, Note_on_c, 0, 71, 73
1, 1980, Note_off_c, 0, 71, 64
1, 1983, Note_off_c, 0, 74, 64
1, 1986, Note_off_c, 0, 78, 64
1, 1986, Note_off_c, 0, 83, 64
1, 2103, Note_on_c, 0, 74, 74
1, 2103, Note_on_c, 0, 78, 63
1, 2106, Note_on_c, 0, 83, 90
1, 2114, Note_on_c, 0, 71, 61
1, 2134, Note_off_c, 0, 74, 64
1, 2137, Note_off_c, 0, 78, 64
1, 2141, Note_off_c, 0, 83, 64
1, 2152, Note_off_c, 0, 71, 64
1, 2264, Note_on_c, 0, 74, 63
1, 2264, Note_on_c, 0, 83, 86
1, 2264, Note_on_c, 0, 67, 59
1, 2267, Note_on_c, 0, 79, 66
1, 2301, Note_off_c, 0, 74, 64
1, 2304, Note_off_c, 0, 83, 64
1, 2304, Note_off_c, 0, 67, 64
1, 2304, Note_off_c, 0, 79, 64
1, 2429, Note_on_c, 0, 78, 53
1, 2432, Note_on_c, 0, 71, 73
1, 2432, Note_on_c, 0, 74, 53
1, 2437, Note_on_c, 0, 83, 59
1, 2465, Note_off_c, 0, 71, 64
1, 2471, Note_off_c, 0, 78, 64
1, 2471, Note_off_c, 0, 74, 64
1, 2484, Note_off_c, 0, 83, 64
1, 2591, Note_on_c, 0, 71, 73
1, 2591, Note_on_c, 0, 78, 48
1, 2604, Note_on_c, 0, 74, 47
1, 2620, Note_on_c, 0, 83, 40
1, 2624, Note_off_c, 0, 71, 64
1, 2634, Note_off_c, 0, 78, 64
1, 2641, Note_off_c, 0, 74, 64
1, 2671, Note_off_c, 0, 83, 64
1, 2757, Note_on_c, 0, 71, 58
1, 2800, Note_off_c, 0, 71, 64
1, 2821, Note_on_c, 0, 73, 43
1, 2883, Note_off_c, 0, 73, 64
1, 2886, Note_on_c, 0, 74, 70
1, 2896, Note_on_c, 0, 66, 75
1, 2971, Note_on_c, 0, 78, 60
1, 2977, Note_off_c, 0, 74, 64
1, 2986, Note_off_c, 0, 66, 64
1, 3024, Note_off_c, 0, 78, 64
1, 3066, Note_on_c, 0, 62, 69
1, 3069, Note_on_c, 0, 74, 40
1, 3080, Note_on_c, 0, 71, 52
1, 3123, Note_off_c, 0, 71, 64
1, 3133, Note_on_c, 0, 64, 61
1, 3136, Note_off_c, 0, 62, 64
1, 3139, Note_on_c, 0, 78, 61
1, 3139, Note_off_c, 0, 74, 64
1, 3181, Note_off_c, 0, 64, 64
1, 3205, Note_on_c, 0, 66, 77
1, 3205, Note_off_c, 0, 78, 64
1, 3214, Note_on_c, 0, 73, 65
1, 3222, Note_on_c, 0, 70, 55
1, 3231, Note_off_c, 0, 66, 64
1, 3267, Note_off_c, 0, 70, 64
1, 3273, Note_off_c, 0, 73, 64
1, 3286, Note_on_c, 0, 78, 39
1, 3345, Note_off_c, 0, 78, 64
1, 3390, Note_on_c, 0, 66, 87
1, 3390, Note_on_c, 0, 75, 56
1, 3396, Note_on_c, 0, 71, 65
1, 3453, Note_off_c, 0, 71, 64
1, 3453, Note_off_c, 0, 75, 64
1, 3468, Note_on_c, 0, 78, 49
1, 3537, Note_off_c, 0, 78, 64
1, 3579, Note_on_c, 0, 71, 53
1, 3579, Note_on_c, 0, 75, 33
1, 3629, Note_off_c, 0, 71, 64
1, 3629, Note_off_c, 0, 75, 64
1, 3646, Note_on_c, 0, 78, 54
1, 3694, Note_off_c, 0, 78, 64
1, 3712, Note_off_c, 0, 66, 64
1, 3726, Note_on_c, 0, 75, 35
1, 3741, Note_on_c, 0, 59, 48
1, 3774, Note_off_c, 0, 75, 64
1, 3777, Note_off_c, 0, 59, 64
1, 3802, Note_on_c, 0, 78, 54
1, 3838, Note_off_c, 0, 78, 64
1, 3914, Note_on_c, 0, 76, 68
1, 3914, Note_on_c, 0, 64, 73
1, 3919, Note_on_c, 0, 67, 63
1, 3922, Note_on_c, 0, 71, 52
1, 3947, Note_off_c, 0, 64, 64
1, 3952, Note_off_c, 0, 76, 64
1, 3960, Note_off_c, 0, 67, 64
1, 3964, Note_off_c, 0, 71, 64
1, 4077, Note_on_c, 0, 76, 44
1, 4081, Note_on_c, 0, 64, 57
1, 4087, Note_on_c, 0, 71, 29
1, 4091, Note_on_c, 0, 67, 46
1, 4117, Note_off_c, 0, 64, 64
1, 4117, Note_off_c, 0, 76, 64
1, 4137, Note_off_c, 0, 67, 64
1, 4145, Note_off_c, 0, 71, 64
1, 4248, Note_on_c, 0, 67, 41
1, 4253, Note_on_c, 0, 76, 36
1, 4256, Note_on_c, 0, 72, 34
1, 4256, Note_on_c, 0, 60, 36
1, 4297, Note_off_c, 0, 67, 64
1, 4297, Note_off_c, 0, 76, 64
1, 4301, Note_off_c, 0, 72, 64
1, 4311, Note_off_c, 0, 60, 64
1, 4417, Note_on_c, 0, 71, 53
1, 4417, Note_on_c, 0, 67, 51
1, 4417, Note_on_c, 0, 64, 52
1, 4429, Note_on_c, 0, 76, 32
1, 4459, Note_off_c, 0, 64, 64
1, 4463, Note_off_c, 0, 67, 64
1, 4463, Note_off_c, 0, 71, 64
1, 4476, Note_off_c, 0, 76, 64
1, 4588, Note_on_c, 0, 76, 25
1, 4593, Note_on_c, 0, 64, 49
1, 4602, Note_on_c, 0, 67, 25
1, 4605, Note_on_c, 0, 71, 31
1, 4629, Note_off_c, 0, 64, 64
1, 4641, Note_off_c, 0, 76, 64
1, 4658, Note_off_c, 0, 67, 64
1, 4661, Note_off_c, 0, 71, 64
1, 4736, Note_on_c, 0, 67, 33
1, 4785, Note_off_c, 0, 67, 64
1, 4813, Note_on_c, 0, 69, 49
1, 4864, Note_off_c, 0, 69, 64
1, 4885, Note_on_c, 0, 64, 53
1, 4894, Note_on_c, 0, 71, 64
1, 4899, Note_on_c, 0, 67, 12
1, 4927, Note_off_c, 0, 64, 64
1, 4944, Note_off_c, 0, 67, 64
1, 4944, Note_off_c, 0, 71, 64
1, 4969, Note_on_c, 0, 72, 53
1, 5006, Note_off_c, 0, 72, 64
1, 5045, Note_on_c, 0, 67, 52
1, 5058, Note_on_c, 0, 64, 41
1, 5058, Note_on_c, 0, 71, 58
1, 5087, Note_off_c, 0, 67, 64
1, 5102, Note_off_c, 0, 64, 64
1, 5108, Note_off_c, 0, 71, 64
1, 5125, Note_on_c, 0, 78, 61
1, 5178, Note_off_c, 0, 78, 64
1, 5201, Note_on_c, 0, 64, 45
1, 5204, Note_on_c, 0, 69, 47
1, 5212, Note_on_c, 0, 76, 51
1, 5237, Note_off_c, 0, 64, 64
1, 5243, Note_off_c, 0, 69, 64
1, 5259, Note_off_c, 0, 76, 64
1, 5284, Note_on_c, 0, 74, 67
1, 5317, Note_off_c, 0, 74, 64
1, 5359, Note_on_c, 0, 67, 54
1, 5362, Note_on_c, 0, 71, 67
1, 5367, Note_on_c, 0, 64, 59
1, 5403, Note_off_c, 0, 71, 64
1, 5403, Note_off_c, 0, 64, 64
1, 5410, Note_off_c, 0, 67, 64
1, 5434, Note_on_c, 0, 76, 65
1, 5473, Note_off_c, 0, 76, 64
1, 5501, Note_on_c, 0, 79, 72
1, 5546, Note_off_c, 0, 79, 64
1, 5576, Note_on_c, 0, 82, 48
1, 5618, Note_off_c, 0, 82, 64
1, 5662, Note_on_c, 0, 83, 67
1, 5702, Note_off_c, 0, 83, 64
1, 5827, Note_on_c, 0, 83, 86
1, 5832, Note_on_c, 0, 78, 62
1, 5835, Note_on_c, 0, 74, 66
1, 5835, Note_on_c, 0, 71, 73
1, 5863, Note_off_c, 0, 83, 64
1, 5866, Note_off_c, 0, 78, 64
1, 5866, Note_off_c, 0, 74, 64
1, 5869, Note_off_c, 0, 71, 64
1, 5991, Note_on_c, 0, 83, 87
1, 5991, Note_on_c, 0, 78, 52
1, 5998, Note_on_c, 0, 74, 65
1, 6008, Note_on_c, 0, 71, 51
1, 6025, Note_off_c, 0, 83, 64
1, 6033, Note_off_c, 0, 74, 64
1, 6033, Note_off_c, 0, 78, 64
1, 6052, Note_off_c, 0, 71, 64
1, 6148, Note_on_c, 0, 83, 92
1, 6153, Note_on_c, 0, 79, 79
1, 6153, Note_on_c, 0, 67, 58
1, 6161, Note_on_c, 0, 74, 62
1, 6183, Note_off_c, 0, 83, 64
1, 6189, Note_off_c, 0, 79, 64
1, 6193, Note_off_c, 0, 67, 64
1, 6193, Note_off_c, 0, 74, 64
1, 6312, Note_on_c, 0, 71, 91
1, 6312, Note_on_c, 0, 78, 63
1, 6312, Note_on_c, 0, 83, 96
1, 6321, Note_on_c, 0, 74, 73
1, 6349, Note_off_c, 0, 71, 64
1, 6354, Note_off_c, 0, 78, 64
1, 6354, Note_off_c, 0, 74, 64
1, 6368, Note_off_c, 0, 83, 64
1, 6477, Note_on_c, 0, 78, 61
1, 6481, Note_on_c, 0, 71, 75
1, 6484, Note_on_c, 0, 74, 58
1, 6487, Note_on_c, 0, 83, 84
1, 6510, Note_off_c, 0, 71, 64
1, 6518, Note_off_c, 0, 78, 64
1, 6518, Note_off_c, 0, 83, 64
1, 6518, Note_off_c, 0, 74, 64
1, 6641, Note_on_c, 0, 71, 70
1, 6702, Note_off_c, 0, 71, 64
1, 6710, Note_on_c, 0, 73, 46
1, 6768, Note_off_c, 0, 73, 64
1, 6789, Note_on_c, 0, 74, 73
1, 6789, Note_on_c, 0, 66, 77
1, 6874, Note_off_c, 0, 74, 64
1, 6874, Note_on_c, 0, 78, 57
1, 6905, Note_off_c, 0, 66, 64
1, 6933, Note_off_c, 0, 78, 64
1, 6963, Note_on_c, 0, 62, 77
1, 6969, Note_on_c, 0, 74, 36
1, 6977, Note_on_c, 0, 71, 53
1, 7017, Note_off_c, 0, 71, 64
1, 7044, Note_on_c, 0, 64, 82
1, 7048, Note_off_c, 0, 74, 64
1, 7048, Note_on_c, 0, 78, 63
1, 7053, Note_off_c, 0, 62, 64
1, 7094, Note_off_c, 0, 78, 64
1, 7101, Note_off_c, 0, 64, 64
1, 7111, Note_on_c, 0, 66, 82
1, 7119, Note_on_c, 0, 73, 63
1, 7119, Note_on_c, 0, 70, 61
1, 7139, Note_off_c, 0, 66, 64
1, 7170, Note_off_c, 0, 70, 64
1, 7184, Note_off_c, 0, 73, 64
1, 7206, Note_on_c, 0, 78, 39
1, 7254, Note_off_c, 0, 78, 64
1, 7300, Note_on_c, 0, 75, 56
1, 7304, Note_on_c, 0, 71, 67
1, 7307, Note_on_c, 0, 66, 90
1, 7363, Note_off_c, 0, 71, 64
1, 7363, Note_off_c, 0, 75, 64
1, 7384, Note_on_c, 0, 78, 52
1, 7466, Note_off_c, 0, 78, 64
1, 7485, Note_on_c, 0, 75, 47
1, 7490, Note_on_c, 0, 71, 54
1, 7534, Note_off_c, 0, 75, 64
1, 7541, Note_off_c, 0, 71, 64
1, 7557, Note_on_c, 0, 78, 35
1, 7618, Note_off_c, 0, 78, 64
1, 7651, Note_off_c, 0, 66, 64
1, 7661, Note_on_c, 0, 75, 40
1, 7676, Note_on_c, 0, 59, 53
1, 7680, Note_on_c, 0, 71, 37
1, 7710, Note_off_c, 0, 75, 64
1, 7710, Note_off_c, 0, 59, 64
1, 7736, Note_off_c, 0, 71, 64
1, 7736, Note_on_c, 0, 78, 46
1, 7783, Note_off_c, 0, 78, 64
1, 7844, Note_on_c, 0, 59, 98
1, 7844, Note_on_c, 0, 47, 98
1, 7881, Note_off_c, 0, 47, 64
1, 7920, Note_off_c, 0, 59, 64
1, 8017, Note_on_c, 0, 59, 84
1, 8017, Note_on_c, 0, 47, 85
1, 8048, Note_off_c, 0, 59, 64
1, 8056, Note_off_c, 0, 47, 64
1, 8175, Note_on_c, 0, 54, 95
1, 8181, Note_on_c, 0, 42, 81
1, 8206, Note_off_c, 0, 54, 64
1, 8209, Note_off_c, 0, 42, 64
1, 8342, Note_on_c, 0, 59, 97
1, 8342, Note_on_c, 0, 47, 96
1, 8393, Note_off_c, 0, 47, 64
1, 8393, Note_off_c, 0, 59, 64
1, 8512, Note_on_c, 0, 47, 79
1, 8516, Note_on_c, 0, 59, 73
1, 8543, Note_off_c, 0, 47, 64
1, 8552, Note_off_c, 0, 59, 64
1, 8694, Note_on_c, 0, 64, 56
1, 8733, Note_off_c, 0, 64, 64
1, 8769, Note_on_c, 0, 66, 45
1, 8833, Note_off_c, 0, 66, 64
1, 8844, Note_on_c, 0, 61, 52
1, 8844, Note_on_c, 0, 67, 64
1, 8849, Note_on_c, 0, 52, 66
1, 8891, Note_off_c, 0, 61, 64
1, 8891, Note_off_c, 0, 52, 64
1, 8914, Note_off_c, 0, 67, 64
1, 8944, Note_on_c, 0, 70, 32
1, 8994, Note_off_c, 0, 70, 64
1, 8998, Note_on_c, 0, 67, 54
1, 9008, Note_on_c, 0, 61, 62
1, 9022, Note_on_c, 0, 52, 52
1, 9050, Note_off_c, 0, 61, 64
1, 9062, Note_off_c, 0, 67, 64
1, 9062, Note_off_c, 0, 52, 64
1, 9075, Note_on_c, 0, 70, 26
1, 9139, Note_off_c, 0, 70, 64
1, 9159, Note_on_c, 0, 54, 67
1, 9165, Note_on_c, 0, 66, 37
1, 9170, Note_on_c, 0, 61, 42
1, 9206, Note_off_c, 0, 54, 64
1, 9218, Note_off_c, 0, 61, 64
1, 9235, Note_off_c, 0, 66, 64
1, 9235, Note_on_c, 0, 70, 38
1, 9299, Note_off_c, 0, 70, 64
1, 9314, Note_on_c, 0, 61, 45
1, 9321, Note_on_c, 0, 55, 67
1, 9334, Note_on_c, 0, 64, 46
1, 9367, Note_off_c, 0, 61, 64
1, 9367, Note_off_c, 0, 55, 64
1, 9377, Note_off_c, 0, 64, 64
1, 9398, Note_on_c, 0, 70, 39
1, 9452, Note_off_c, 0, 70, 64
1, 9479, Note_on_c, 0, 64, 39
1, 9484, Note_on_c, 0, 61, 45
1, 9504, Note_on_c, 0, 55, 38
1, 9524, Note_off_c, 0, 64, 64
1, 9533, Note_off_c, 0, 61, 64
1, 9552, Note_off_c, 0, 55, 64
1, 9565, Note_on_c, 0, 70, 39
1, 9613, Note_off_c, 0, 70, 64
1, 9845, Note_on_c, 0, 59, 95
1, 9848, Note_on_c, 0, 47, 92
1, 9916, Note_off_c, 0, 59, 64
1, 9930, Note_off_c, 0, 47, 64
1, 10023, Note_on_c, 0, 59, 84
1, 10026, Note_on_c, 0, 47, 71
1, 10053, Note_off_c, 0, 59, 64
1, 10061, Note_off_c, 0, 47, 64
1, 10187, Note_on_c, 0, 54, 88
1, 10187, Note_on_c, 0, 42, 81
1, 10220, Note_off_c, 0, 54, 64
1, 10225, Note_off_c, 0, 42, 64
1, 10342, Note_on_c, 0, 59, 93
1, 10342, Note_on_c, 0, 47, 94
1, 10388, Note_off_c, 0, 47, 64
1, 10388, Note_off_c, 0, 59, 64
1, 10516, Note_on_c, 0, 47, 80
1, 10522, Note_on_c, 0, 59, 69
1, 10546, Note_off_c, 0, 47, 64
1, 10554, Note_off_c, 0, 59, 64
1, 10718, Note_on_c, 0, 64, 48
1, 10763, Note_off_c, 0, 64, 64
1, 10774, Note_on_c, 0, 66, 47
1, 10838, Note_off_c, 0, 66, 64
1, 10849, Note_on_c, 0, 61, 46
1, 10861, Note_on_c, 0, 67, 62
1, 10861, Note_on_c, 0, 52, 54
1, 10900, Note_off_c, 0, 61, 64
1, 10906, Note_off_c, 0, 52, 64
1, 10922, Note_off_c, 0, 67, 64
1, 10934, Note_on_c, 0, 70, 51
1, 10983, Note_off_c, 0, 70, 64
1, 11005, Note_on_c, 0, 67, 52
1, 11014, Note_on_c, 0, 61, 62
1, 11028, Note_on_c, 0, 52, 52
1, 11061, Note_off_c, 0, 61, 64
1, 11069, Note_off_c, 0, 52, 64
1, 11076, Note_off_c, 0, 67, 64
1, 11086, Note_on_c, 0, 70, 50
1, 11154, Note_off_c, 0, 70, 64
1, 11170, Note_on_c, 0, 66, 40
1, 11170, Note_on_c, 0, 54, 64
1, 11170, Note_on_c, 0, 61, 45
1, 11212, Note_off_c, 0, 54, 64
1, 11223, Note_off_c, 0, 61, 64
1, 11239, Note_on_c, 0, 70, 32
1, 11249, Note_off_c, 0, 66, 64
1, 11290, Note_off_c, 0, 70, 64
1, 11327, Note_on_c, 0, 61, 45
1, 11334, Note_on_c, 0, 55, 56
1, 11334, Note_on_c, 0, 64, 52
1, 11376, Note_off_c, 0, 61, 64
1, 11376, Note_off_c, 0, 64, 64
1, 11380, Note_off_c, 0, 55, 64
1, 11407, Note_on_c, 0, 70, 31
1, 11469, Note_off_c, 0, 70, 64
1, 11496, Note_on_c, 0, 61, 44
1, 11504, Note_on_c, 0, 64, 39
1, 11504, Note_on_c, 0, 55, 56
1, 11544, Note_off_c, 0, 61, 64
1, 11547, Note_off_c, 0, 64, 64
1, 11552, Note_off_c, 0, 55, 64
1, 11566, Note_on_c, 0, 70, 41
1, 11614, Note_off_c, 0, 70, 64
1, 11668, Note_on_c, 0, 67, 50
1, 11713, Note_off_c, 0, 67, 64
1, 11739, Note_on_c, 0, 69, 46
1, 11797, Note_off_c, 0, 69, 64
1, 11819, Note_on_c, 0, 70, 55
1, 11827, Note_on_c, 0, 64, 63
1, 11833, Note_on_c, 0, 55, 62
1, 11863, Note_off_c, 0, 64, 64
1, 11873, Note_off_c, 0, 55, 64
1, 11905, Note_off_c, 0, 70, 64
1, 11905, Note_on_c, 0, 73, 48
1, 11965, Note_off_c, 0, 73, 64
1, 11975, Note_on_c, 0, 70, 56
1, 11989, Note_on_c, 0, 55, 52
1, 11989, Note_on_c, 0, 64, 57
1, 12026, Note_off_c, 0, 64, 64
1, 12029, Note_off_c, 0, 55, 64
1, 12065, Note_off_c, 0, 70, 64
1, 12068, Note_on_c, 0, 73, 44
1, 12120, Note_off_c, 0, 73, 64
1, 12134, Note_on_c, 0, 57, 54
1, 12137, Note_on_c, 0, 69, 55
1, 12142, Note_on_c, 0, 64, 46
1, 12178, Note_off_c, 0, 57, 64
1, 12178, Note_off_c, 0, 64, 64
1, 12189, Note_off_c, 0, 69, 64
1, 12221, Note_on_c, 0, 73, 48
1, 12276, Note_off_c, 0, 73, 64
1, 12298, Note_on_c, 0, 58, 49
1, 12310, Note_on_c, 0, 67, 54
1, 12315, Note_on_c, 0, 64, 47
1, 12345, Note_off_c, 0, 58, 64
1, 12356, Note_off_c, 0, 64, 64
1, 12370, Note_off_c, 0, 67, 64
1, 12384, Note_on_c, 0, 73, 46
1, 12437, Note_off_c, 0, 73, 64
1, 12466, Note_on_c, 0, 58, 42
1, 12474, Note_on_c, 0, 67, 42
1, 12483, Note_on_c, 0, 64, 40
1, 12515, Note_off_c, 0, 58, 64
1, 12527, Note_off_c, 0, 64, 64
1, 12535, Note_off_c, 0, 67, 64
1, 12538, Note_on_c, 0, 73, 41
1, 12622, Note_off_c, 0, 73, 64
1, 12627, Note_on_c, 0, 70, 50
1, 12703, Note_on_c, 0, 71, 74
1, 12719, Note_off_c, 0, 70, 64
1, 12747, Note_off_c, 0, 71, 64
1, 12781, Note_on_c, 0, 67, 70
1, 12786, Note_on_c, 0, 58, 57
1, 12786, Note_on_c, 0, 72, 68
1, 12825, Note_off_c, 0, 67, 64
1, 12836, Note_off_c, 0, 58, 64
1, 12858, Note_on_c, 0, 76, 68
1, 12870, Note_off_c, 0, 72, 64
1, 12914, Note_off_c, 0, 76, 64
1, 12942, Note_on_c, 0, 72, 57
1, 12947, Note_on_c, 0, 67, 60
1, 12962, Note_on_c, 0, 64, 51
1, 12994, Note_off_c, 0, 67, 64
1, 13001, Note_off_c, 0, 64, 64
1, 13036, Note_off_c, 0, 72, 64
1, 13036, Note_on_c, 0, 76, 50
1, 13086, Note_off_c, 0, 76, 64
1, 13103, Note_on_c, 0, 71, 74
1, 13109, Note_on_c, 0, 67, 63
1, 13114, Note_on_c, 0, 62, 70
1, 13148, Note_off_c, 0, 62, 64
1, 13148, Note_off_c, 0, 67, 64
1, 13164, Note_off_c, 0, 71, 64
1, 13189, Note_on_c, 0, 76, 46
1, 13238, Note_off_c, 0, 76, 64
1, 13260, Note_on_c, 0, 66, 75
1, 13260, Note_on_c, 0, 70, 64
1, 13268, Note_on_c, 0, 60, 71
1, 13313, Note_off_c, 0, 60, 64
1, 13334, Note_on_c, 0, 76, 53
1, 13345, Note_off_c, 0, 66, 64
1, 13355, Note_off_c, 0, 70, 64
1, 13401, Note_off_c, 0, 76, 64
1, 13412, Note_on_c, 0, 70, 55
1, 13429, Note_on_c, 0, 66, 59
1, 13433, Note_on_c, 0, 60, 58
1, 13469, Note_off_c, 0, 66, 64
1, 13479, Note_off_c, 0, 60, 64
1, 13496, Note_on_c, 0, 76, 52
1, 13496, Note_off_c, 0, 70, 64
1, 13554, Note_off_c, 0, 76, 64
1, 13579, Note_on_c, 0, 70, 44
1, 13597, Note_on_c, 0, 66, 51
1, 13608, Note_on_c, 0, 60, 45
1, 13636, Note_off_c, 0, 66, 64
1, 13646, Note_off_c, 0, 70, 64
1, 13658, Note_off_c, 0, 60, 64
1, 13664, Note_on_c, 0, 76, 42
1, 13711, Note_off_c, 0, 76, 64
1, 13755, Note_on_c, 0, 71, 59
1, 13755, Note_on_c, 0, 66, 49
1, 13763, Note_on_c, 0, 59, 48
1, 13802, Note_off_c, 0, 71, 64
1, 13802, Note_off_c, 0, 66, 64
1, 13802, Note_off_c, 0, 59, 64
1, 13827, Note_on_c, 0, 76, 36
1, 13880, Note_off_c, 0, 76, 64
1, 13919, Note_on_c, 0, 71, 44
1, 13928, Note_on_c, 0, 66, 39
1, 13945, Note_on_c, 0, 59, 26
1, 13970, Note_off_c, 0, 71, 64
1, 13975, Note_off_c, 0, 66, 64
1, 13997, Note_off_c, 0, 59, 64
1, 13997, Note_on_c, 0, 76, 38
1, 14048, Note_off_c, 0, 76, 64
1, 14090, Note_on_c, 0, 59, 20
1, 14093, Note_on_c, 0, 71, 35
1, 14104, Note_on_c, 0, 66, 31
1, 14146, Note_off_c, 0, 59, 64
1, 14151, Note_off_c, 0, 71, 64
1, 14151, Note_off_c, 0, 66, 64
1, 14171, Note_on_c, 0, 76, 35
1, 14220, Note_off_c, 0, 76, 64
1, 14273, Note_on_c, 0, 71, 33
1, 14293, Note_on_c, 0, 66, 21
1, 14293, Note_on_c, 0, 59, 23
1, 14329, Note_off_c, 0, 71, 64
1, 14337, Note_on_c, 0, 75, 39
1, 14346, Note_off_c, 0, 59, 64
1, 14349, Note_off_c, 0, 66, 64
1, 14410, Note_off_c, 0, 75, 64
1, 14440, Note_on_c, 0, 71, 25
1, 14465, Note_on_c, 0, 66, 18
1, 14472, Note_on_c, 0, 59, 12
1, 14524, Note_off_c, 0, 71, 64
1, 14524, Note_off_c, 0, 66, 64
1, 14530, Note_off_c, 0, 59, 64
1, 14536, Note_on_c, 0, 75, 39
1, 14600, Note_off_c, 0, 75, 64
1, 14664, Note_on_c, 0, 71, 20
1, 14667, Note_on_c, 0, 66, 26
1, 14680, Note_on_c, 0, 59, 28
1, 14730, Note_off_c, 0, 66, 64
1, 14730, Note_off_c, 0, 59, 64
1, 14741, Note_on_c, 0, 75, 44
1, 14741, Note_off_c, 0, 71, 64
1, 14794, Note_off_c, 0, 75, 64
1, 14875, Note_on_c, 0, 76, 51
1, 14878, Note_on_c, 0, 71, 63
1, 14878, Note_on_c, 0, 67, 62
1, 14890, Note_on_c, 0, 64, 55
1, 14917, Note_off_c, 0, 76, 64
1, 14920, Note_off_c, 0, 71, 64
1, 14920, Note_off_c, 0, 67, 64
1, 14926, Note_off_c, 0, 64, 64
1, 15056, Note_on_c, 0, 76, 41
1, 15056, Note_on_c, 0, 67, 49
1, 15061, Note_on_c, 0, 64, 49
1, 15068, Note_on_c, 0, 71, 37
1, 15098, Note_off_c, 0, 76, 64
1, 15098, Note_off_c, 0, 64, 64
1, 15104, Note_off_c, 0, 67, 64
1, 15121, Note_off_c, 0, 71, 64
1, 15221, Note_on_c, 0, 67, 42
1, 15227, Note_on_c, 0, 60, 39
1, 15232, Note_on_c, 0, 72, 27
1, 15273, Note_off_c, 0, 67, 64
1, 15281, Note_off_c, 0, 60, 64
1, 15285, Note_off_c, 0, 72, 64
1, 15393, Note_on_c, 0, 76, 14
1, 15393, Note_on_c, 0, 64, 49
1, 15402, Note_on_c, 0, 67, 25
1, 15408, Note_on_c, 0, 71, 37
1, 15433, Note_off_c, 0, 64, 64
1, 15447, Note_off_c, 0, 76, 64
1, 15460, Note_off_c, 0, 71, 64
1, 15465, Note_off_c, 0, 67, 64
1, 15560, Note_on_c, 0, 67, 31
1, 15560, Note_on_c, 0, 71, 23
1, 15569, Note_on_c, 0, 64, 55
1, 15575, Note_on_c, 0, 76, 26
1, 15603, Note_off_c, 0, 64, 64
1, 15617, Note_off_c, 0, 67, 64
1, 15622, Note_off_c, 0, 71, 64
1, 15627, Note_off_c, 0, 76, 64
1, 15734, Note_on_c, 0, 67, 40
1, 15784, Note_off_c, 0, 67, 64
1, 15803, Note_on_c, 0, 69, 35
1, 15856, Note_off_c, 0, 69, 64
1, 15862, Note_on_c, 0, 67, 43
1, 15869, Note_on_c, 0, 71, 69
1, 15872, Note_on_c, 0, 64, 61
1, 15908, Note_off_c, 0, 67, 64
1, 15908, Note_off_c, 0, 64, 64
1, 15914, Note_off_c, 0, 71, 64
1, 15950, Note_on_c, 0, 72, 52
1, 15987, Note_off_c, 0, 72, 64
1, 16023, Note_on_c, 0, 67, 69
1, 16029, Note_on_c, 0, 71, 76
1, 16040, Note_on_c, 0, 64, 52
1, 16064, Note_off_c, 0, 67, 64
1, 16076, Note_off_c, 0, 71, 64
1, 16079, Note_off_c, 0, 64, 64
1, 16104, Note_on_c, 0, 78, 71
1, 16174, Note_on_c, 0, 69, 57
1, 16181, Note_on_c, 0, 76, 69
1, 16193, Note_on_c, 0, 64, 47
1, 16196, Note_off_c, 0, 78, 64
1, 16217, Note_off_c, 0, 69, 64
1, 16232, Note_off_c, 0, 64, 64
1, 16241, Note_off_c, 0, 76, 64
1, 16257, Note_on_c, 0, 74, 76
1, 16294, Note_off_c, 0, 74, 64
1, 16337, Note_on_c, 0, 71, 72
1, 16337, Note_on_c, 0, 67, 64
1, 16344, Note_on_c, 0, 64, 53
1, 16374, Note_off_c, 0, 71, 64
1, 16380, Note_off_c, 0, 67, 64
1, 16383, Note_off_c, 0, 64, 64
1, 16415, Note_on_c, 0, 76, 58
1, 16452, Note_off_c, 0, 76, 64
1, 16475, Note_on_c, 0, 79, 69
1, 16530, Note_off_c, 0, 79, 64
1, 16557, Note_on_c, 0, 82, 57
1, 16597, Note_off_c, 0, 82, 64
1, 16644, Note_on_c, 0, 83, 79
1, 16685, Note_off_c, 0, 83, 64
1, 16811, Note_on_c, 0, 83, 94
1, 16811, Note_on_c, 0, 74, 81
1, 16811, Note_on_c, 0, 78, 67
1, 16822, Note_on_c, 0, 71, 69
1, 16847, Note_off_c, 0, 74, 64
1, 16850, Note_off_c, 0, 83, 64
1, 16855, Note_off_c, 0, 78, 64
1, 16855, Note_off_c, 0, 71, 64
1, 16972, Note_on_c, 0, 78, 66
1, 16972, Note_on_c, 0, 74, 73
1, 16972, Note_on_c, 0, 83, 95
1, 16987, Note_on_c, 0, 71, 74
1, 17006, Note_off_c, 0, 74, 64
1, 17006, Note_off_c, 0, 83, 64
1, 17011, Note_off_c, 0, 78, 64
1, 17020, Note_off_c, 0, 71, 64
1, 17137, Note_on_c, 0, 67, 61
1, 17137, Note_on_c, 0, 79, 84
1, 17137, Note_on_c, 0, 74, 72
1, 17142, Note_on_c, 0, 83, 93
1, 17173, Note_off_c, 0, 74, 64
1, 17173, Note_off_c, 0, 67, 64
1, 17173, Note_off_c, 0, 79, 64
1, 17173, Note_off_c, 0, 83, 64
1, 17304, Note_on_c, 0, 74, 63
1, 17308, Note_on_c, 0, 83, 74
1, 17308, Note_on_c, 0, 78, 55
1, 17308, Note_on_c, 0, 71, 70
1, 17343, Note_off_c, 0, 71, 64
1, 17347, Note_off_c, 0, 74, 64
1, 17351, Note_off_c, 0, 78, 64
1, 17363, Note_off_c, 0, 83, 64
1, 17475, Note_on_c, 0, 71, 71
1, 17475, Note_on_c, 0, 78, 42
1, 17483, Note_on_c, 0, 74, 49
1, 17486, Note_on_c, 0, 83, 73
1, 17508, Note_off_c, 0, 71, 64
1, 17519, Note_off_c, 0, 78, 64
1, 17519, Note_off_c, 0, 74, 64
1, 17522, Note_off_c, 0, 83, 64
1, 17642, Note_on_c, 0, 71, 59
1, 17688, Note_off_c, 0, 71, 64
1, 17702, Note_on_c, 0, 73, 55
1, 17775, Note_on_c, 0, 66, 86
1, 17784, Note_on_c, 0, 74, 76
1, 17792, Note_off_c, 0, 73, 64
1, 17862, Note_on_c, 0, 78, 65
1, 17867, Note_off_c, 0, 74, 64
1, 17876, Note_off_c, 0, 66, 64
1, 17951, Note_on_c, 0, 74, 47
1, 17951, Note_off_c, 0, 78, 64
1, 17956, Note_on_c, 0, 62, 83
1, 17959, Note_on_c, 0, 71, 60
1, 18001, Note_off_c, 0, 71, 64
1, 18018, Note_on_c, 0, 64, 94
1, 18029, Note_on_c, 0, 78, 50
1, 18034, Note_off_c, 0, 62, 64
1, 18043, Note_off_c, 0, 74, 64
1, 18098, Note_on_c, 0, 66, 95
1, 18103, Note_off_c, 0, 64, 64
1, 18109, Note_on_c, 0, 73, 63
1, 18109, Note_on_c, 0, 70, 60
1, 18129, Note_off_c, 0, 78, 64
1, 18138, Note_off_c, 0, 66, 64
1, 18177, Note_off_c, 0, 70, 64
1, 18182, Note_on_c, 0, 78, 58
1, 18182, Note_off_c, 0, 73, 64
1, 18238, Note_off_c, 0, 78, 64
1, 18291, Note_on_c, 0, 75, 53
1, 18302, Note_on_c, 0, 66, 94
1, 18302, Note_on_c, 0, 71, 57
1, 18358, Note_off_c, 0, 71, 64
1, 18368, Note_off_c, 0, 75, 64
1, 18374, Note_on_c, 0, 78, 50
1, 18449, Note_off_c, 0, 78, 64
1, 18488, Note_on_c, 0, 71, 49
1, 18493, Note_on_c, 0, 75, 44
1, 18538, Note_off_c, 0, 75, 64
1, 18547, Note_off_c, 0, 71, 64
1, 18564, Note_on_c, 0, 78, 46
1, 18628, Note_off_c, 0, 78, 64
1, 18649, Note_off_c, 0, 66, 64
1, 18661, Note_on_c, 0, 75, 44
1, 18669, Note_on_c, 0, 59, 56
1, 18684, Note_on_c, 0, 71, 48
1, 18703, Note_off_c, 0, 59, 64
1, 18723, Note_off_c, 0, 75, 64
1, 18742, Note_off_c, 0, 71, 64
1, 18742, Note_on_c, 0, 78, 44
1, 18805, Note_off_c, 0, 78, 64
1, 18829, Note_on_c, 0, 59, 100
1, 18833, Note_on_c, 0, 47, 96
1, 18878, Note_off_c, 0, 47, 64
1, 18908, Note_off_c, 0, 59, 64
1, 19001, Note_on_c, 0, 59, 84
1, 19001, Note_on_c, 0, 47, 83
1, 19031, Note_off_c, 0, 59, 64
1, 19034, Note_off_c, 0, 47, 64
1, 19170, Note_on_c, 0, 54, 88
1, 19174, Note_on_c, 0, 42, 79
1, 19198, Note_off_c, 0, 54, 64
1, 19202, Note_off_c, 0, 42, 64
1, 19329, Note_on_c, 0, 59, 98
1, 19332, Note_on_c, 0, 47, 95
1, 19382, Note_off_c, 0, 47, 64
1, 19394, Note_off_c, 0, 59, 64
1, 19516, Note_on_c, 0, 59, 72
1, 19516, Note_on_c, 0, 47, 72
1, 19549, Note_off_c, 0, 59, 64
1, 19549, Note_off_c, 0, 47, 64
1, 19711, Note_on_c, 0, 64, 50
1, 19756, Note_off_c, 0, 64, 64
1, 19775, Note_on_c, 0, 66, 42
1, 19831, Note_off_c, 0, 66, 64
1, 19864, Note_on_c, 0, 67, 51
1, 19868, Note_on_c, 0, 61, 47
1, 19893, Note_on_c, 0, 52, 24
1, 19917, Note_off_c, 0, 67, 64
1, 19917, Note_off_c, 0, 61, 64
1, 19942, Note_off_c, 0, 52, 64
1, 19942, Note_on_c, 0, 70, 41
1, 19995, Note_off_c, 0, 70, 64
1, 20017, Note_on_c, 0, 52, 62
1, 20026, Note_on_c, 0, 67, 45
1, 20037, Note_on_c, 0, 61, 50
1, 20053, Note_off_c, 0, 52, 64
1, 20078, Note_off_c, 0, 67, 64
1, 20078, Note_off_c, 0, 61, 64
1, 20092, Note_on_c, 0, 70, 41
1, 20146, Note_off_c, 0, 70, 64
1, 20173, Note_on_c, 0, 66, 50
1, 20180, Note_on_c, 0, 54, 77
1, 20180, Note_on_c, 0, 61, 49
1, 20226, Note_off_c, 0, 61, 64
1, 20226, Note_off_c, 0, 54, 64
1, 20248, Note_off_c, 0, 66, 64
1, 20248, Note_on_c, 0, 70, 36
1, 20308, Note_off_c, 0, 70, 64
1, 20324, Note_on_c, 0, 61, 53
1, 20338, Note_on_c, 0, 64, 53
1, 20338, Note_on_c, 0, 55, 69
1, 20379, Note_off_c, 0, 61, 64
1, 20393, Note_off_c, 0, 55, 64
1, 20393, Note_off_c, 0, 64, 64
1, 20414, Note_on_c, 0, 70, 32
1, 20480, Note_off_c, 0, 70, 64
1, 20503, Note_on_c, 0, 61, 43
1, 20513, Note_on_c, 0, 55, 46
1, 20527, Note_on_c, 0, 64, 29
1, 20549, Note_off_c, 0, 61, 64
1, 20563, Note_off_c, 0, 55, 64
1, 20581, Note_off_c, 0, 64, 64
1, 20591, Note_on_c, 0, 70, 32
1, 20677, Note_off_c, 0, 70, 64
1, 20801, Note_on_c, 0, 47, 90
1, 20801, Note_on_c, 0, 59, 94
1, 20840, Note_off_c, 0, 47, 64
1, 20851, Note_off_c, 0, 59, 64
1, 20982, Note_on_c, 0, 59, 75
1, 20982, Note_on_c, 0, 47, 76
1, 21015, Note_off_c, 0, 59, 64
1, 21020, Note_off_c, 0, 47, 64
1, 21154, Note_on_c, 0, 54, 84
1, 21159, Note_on_c, 0, 42, 76
1, 21187, Note_off_c, 0, 54, 64
1, 21190, Note_off_c, 0, 42, 64
1, 21321, Note_on_c, 0, 59, 93
1, 21321, Note_on_c, 0, 47, 90
1, 21374, Note_off_c, 0, 59, 64
1, 21382, Note_off_c, 0, 47, 64
1, 21503, Note_on_c, 0, 47, 67
1, 21503, Note_on_c, 0, 59, 60
1, 21536, Note_off_c, 0, 47, 64
1, 21544, Note_off_c, 0, 59, 64
1, 21691, Note_on_c, 0, 64, 39
1, 21739, Note_off_c, 0, 64, 64
1, 21754, Note_on_c, 0, 66, 42
1, 21814, Note_off_c, 0, 66, 64
1, 21839, Note_on_c, 0, 61, 68
1, 21845, Note_on_c, 0, 67, 51
1, 21854, Note_on_c, 0, 52, 62
1, 21893, Note_off_c, 0, 61, 64
1, 21893, Note_off_c, 0, 52, 64
1, 21900, Note_off_c, 0, 67, 64
1, 21923, Note_on_c, 0, 70, 46
1, 21968, Note_off_c, 0, 70, 64
1, 21999, Note_on_c, 0, 67, 59
1, 22004, Note_on_c, 0, 61, 62
1, 22017, Note_on_c, 0, 52, 55
1, 22049, Note_off_c, 0, 61, 64
1, 22052, Note_off_c, 0, 67, 64
1, 22057, Note_off_c, 0, 52, 64
1, 22079, Note_on_c, 0, 70, 52
1, 22123, Note_off_c, 0, 70, 64
1, 22152, Note_on_c, 0, 66, 49
1, 22155, Note_on_c, 0, 61, 67
1, 22155, Note_on_c, 0, 54, 67
1, 22198, Note_off_c, 0, 61, 64
1, 22202, Note_off_c, 0, 54, 64
1, 22213, Note_off_c, 0, 66, 64
1, 22224, Note_on_c, 0, 70, 32
1, 22288, Note_off_c, 0, 70, 64
1, 22313, Note_on_c, 0, 61, 57
1, 22313, Note_on_c, 0, 55, 61
1, 22322, Note_on_c, 0, 64, 53
1, 22363, Note_off_c, 0, 61, 64
1, 22369, Note_off_c, 0, 55, 64
1, 22377, Note_off_c, 0, 64, 64
1, 22386, Note_on_c, 0, 70, 40
1, 22455, Note_off_c, 0, 70, 64
1, 22475, Note_on_c, 0, 64, 48
1, 22486, Note_on_c, 0, 61, 40
1, 22486, Note_on_c, 0, 55, 50
1, 22528, Note_off_c, 0, 64, 64
1, 22531, Note_off_c, 0, 55, 64
1, 22535, Note_off_c, 0, 61, 64
1, 22542, Note_on_c, 0, 70, 47
1, 22588, Note_off_c, 0, 70, 64
1, 22641, Note_on_c, 0, 67, 62
1, 22683, Note_off_c, 0, 67, 64
1, 22723, Note_on_c, 0, 69, 38
1, 22775, Note_off_c, 0, 69, 64
1, 22775, Note_on_c, 0, 70, 63
1, 22786, Note_on_c, 0, 64, 71
1, 22792, Note_on_c, 0, 55, 68
1, 22826, Note_off_c, 0, 64, 64
1, 22831, Note_off_c, 0, 55, 64
1, 22859, Note_on_c, 0, 73, 61
1, 22879, Note_off_c, 0, 70, 64
1, 22932, Note_off_c, 0, 73, 64
1, 22932, Note_on_c, 0, 70, 58
1, 22939, Note_on_c, 0, 64, 74
1, 22948, Note_on_c, 0, 55, 70
1, 22974, Note_off_c, 0, 64, 64
1, 22985, Note_off_c, 0, 55, 64
1, 23013, Note_on_c, 0, 73, 56
1, 23035, Note_off_c, 0, 70, 64
1, 23085, Note_off_c, 0, 73, 64
1, 23093, Note_on_c, 0, 69, 64
1, 23093, Note_on_c, 0, 64, 71
1, 23093, Note_on_c, 0, 57, 65
1, 23130, Note_off_c, 0, 64, 64
1, 23138, Note_off_c, 0, 57, 64
1, 23141, Note_off_c, 0, 69, 64
1, 23169, Note_on_c, 0, 73, 62
1, 23251, Note_on_c, 0, 64, 71
1, 23257, Note_off_c, 0, 73, 64
1, 23257, Note_on_c, 0, 67, 67
1, 23261, Note_on_c, 0, 58, 51
1, 23293, Note_off_c, 0, 64, 64
1, 23308, Note_off_c, 0, 58, 64
1, 23313, Note_off_c, 0, 67, 64
1, 23316, Note_on_c, 0, 73, 55
1, 23416, Note_off_c, 0, 73, 64
1, 23419, Note_on_c, 0, 67, 66
1, 23424, Note_on_c, 0, 64, 60
1, 23428, Note_on_c, 0, 58, 42
1, 23458, Note_off_c, 0, 64, 64
1, 23464, Note_off_c, 0, 67, 64
1, 23475, Note_off_c, 0, 58, 64
1, 23475, Note_on_c, 0, 73, 44
1, 23570, Note_on_c, 0, 70, 73
1, 23581, Note_off_c, 0, 73, 64
1, 23645, Note_on_c, 0, 71, 91
1, 23651, Note_off_c, 0, 70, 64
1, 23725, Note_on_c, 0, 67, 85
1, 23731, Note_on_c, 0, 72, 89
1, 23731, Note_on_c, 0, 58, 65
1, 23731, Note_off_c, 0, 71, 64
1, 23772, Note_off_c, 0, 58, 64
1, 23779, Note_off_c, 0, 67, 64
1, 23809, Note_on_c, 0, 76, 68
1, 23825, Note_off_c, 0, 72, 64
1, 23885, Note_on_c, 0, 72, 73
1, 23890, Note_on_c, 0, 67, 82
1, 23895, Note_on_c, 0, 64, 85
1, 23901, Note_off_c, 0, 76, 64
1, 23956, Note_off_c, 0, 67, 64
1, 23971, Note_on_c, 0, 76, 61
1, 23976, Note_off_c, 0, 64, 64
1, 23988, Note_off_c, 0, 72, 64
1, 24043, Note_on_c, 0, 67, 79
1, 24043, Note_on_c, 0, 62, 88
1, 24049, Note_on_c, 0, 71, 94
1, 24076, Note_off_c, 0, 76, 64
1, 24124, Note_on_c, 0, 76, 71
1, 24127, Note_off_c, 0, 62, 64
1, 24127, Note_off_c, 0, 71, 64
1, 24130, Note_off_c, 0, 67, 64
1, 24208, Note_on_c, 0, 66, 77
1, 24211, Note_on_c, 0, 70, 68
1, 24224, Note_on_c, 0, 60, 62
1, 24233, Note_off_c, 0, 76, 64
1, 24266, Note_off_c, 0, 60, 64
1, 24274, Note_off_c, 0, 70, 64
1, 24280, Note_on_c, 0, 76, 66
1, 24291, Note_off_c, 0, 66, 64
1, 24347, Note_off_c, 0, 76, 64
1, 24367, Note_on_c, 0, 70, 54
1, 24378, Note_on_c, 0, 66, 52
1, 24392, Note_on_c, 0, 60, 57
1, 24424, Note_off_c, 0, 66, 64
1, 24428, Note_off_c, 0, 70, 64
1, 24433, Note_off_c, 0, 60, 64
1, 24445, Note_on_c, 0, 76, 41
1, 24494, Note_off_c, 0, 76, 64
1, 24536, Note_on_c, 0, 70, 47
1, 24541, Note_on_c, 0, 66, 51
1, 24544, Note_on_c, 0, 60, 48
1, 24584, Note_off_c, 0, 66, 64
1, 24584, Note_off_c, 0, 60, 64
1, 24597, Note_off_c, 0, 70, 64
1, 24619, Note_on_c, 0, 76, 35
1, 24664, Note_off_c, 0, 76, 64
1, 24695, Note_on_c, 0, 66, 59
1, 24698, Note_on_c, 0, 71, 62
1, 24701, Note_on_c, 0, 59, 63
1, 24740, Note_off_c, 0, 59, 64
1, 24743, Note_off_c, 0, 66, 64
1, 24747, Note_off_c, 0, 71, 64
1, 24759, Note_on_c, 0, 76, 37
1, 24840, Note_off_c, 0, 76, 64
1, 24864, Note_on_c, 0, 66, 48
1, 24868, Note_on_c, 0, 71, 56
1, 24871, Note_on_c, 0, 59, 46
1, 24910, Note_off_c, 0, 66, 64
1, 24913, Note_off_c, 0, 71, 64
1, 24917, Note_off_c, 0, 59, 64
1, 24934, Note_on_c, 0, 76, 39
1, 24996, Note_off_c, 0, 76, 64
1, 25032, Note_on_c, 0, 71, 48
1, 25032, Note_on_c, 0, 66, 40
1, 25049, Note_on_c, 0, 59, 38
1, 25079, Note_off_c, 0, 71, 64
1, 25085, Note_off_c, 0, 66, 64
1, 25093, Note_off_c, 0, 59, 64
1, 25102, Note_on_c, 0, 76, 42
1, 25147, Note_off_c, 0, 76, 64
1, 25199, Note_on_c, 0, 71, 45
1, 25218, Note_on_c, 0, 66, 28
1, 25218, Note_on_c, 0, 59, 27
1, 25249, Note_off_c, 0, 71, 64
1, 25264, Note_on_c, 0, 75, 53
1, 25267, Note_off_c, 0, 59, 64
1, 25272, Note_off_c, 0, 66, 64
1, 25313, Note_off_c, 0, 75, 64
1, 25361, Note_on_c, 0, 71, 38
1, 25375, Note_on_c, 0, 66, 28
1, 25392, Note_on_c, 0, 59, 20
1, 25413, Note_off_c, 0, 71, 64
1, 25431, Note_off_c, 0, 66, 64
1, 25431, Note_on_c, 0, 75, 50
1, 25445, Note_off_c, 0, 59, 64
1, 25488, Note_off_c, 0, 75, 64
1, 25531, Note_on_c, 0, 71, 41
1, 25545, Note_on_c, 0, 66, 26
1, 25545, Note_on_c, 0, 59, 23
1, 25580, Note_off_c, 0, 71, 64
1, 25591, Note_on_c, 0, 75, 48
1, 25597, Note_off_c, 0, 59, 64
1, 25601, Note_off_c, 0, 66, 64
1, 25630, Note_off_c, 0, 75, 64
1, 25694, Note_on_c, 0, 64, 59
1, 25694, Note_on_c, 0, 67, 44
1, 25697, Note_on_c, 0, 71, 46
1, 25703, Note_on_c, 0, 76, 36
1, 25729, Note_off_c, 0, 64, 64
1, 25740, Note_off_c, 0, 67, 64
1, 25740, Note_off_c, 0, 71, 64
1, 25750, Note_off_c, 0, 76, 64
1, 25865, Note_on_c, 0, 67, 55
1, 25865, Note_on_c, 0, 64, 53
1, 25870, Note_on_c, 0, 76, 40
1, 25878, Note_on_c, 0, 71, 50
1, 25904, Note_off_c, 0, 64, 64
1, 25910, Note_off_c, 0, 67, 64
1, 25910, Note_off_c, 0, 76, 64
1, 25921, Note_off_c, 0, 71, 64
1, 26026, Note_on_c, 0, 72, 54
1, 26026, Note_on_c, 0, 67, 57
1, 26037, Note_on_c, 0, 60, 55
1, 26040, Note_on_c, 0, 76, 40
1, 26068, Note_off_c, 0, 72, 64
1, 26071, Note_off_c, 0, 67, 64
1, 26077, Note_off_c, 0, 60, 64
1, 26083, Note_off_c, 0, 76, 64
1, 26199, Note_on_c, 0, 71, 59
1, 26205, Note_on_c, 0, 67, 46
1, 26205, Note_on_c, 0, 76, 51
1, 26210, Note_on_c, 0, 64, 48
1, 26241, Note_off_c, 0, 71, 64
1, 26249, Note_off_c, 0, 67, 64
1, 26249, Note_off_c, 0, 76, 64
1, 26249, Note_off_c, 0, 64, 64
1, 26366, Note_on_c, 0, 71, 58
1, 26374, Note_on_c, 0, 67, 51
1, 26374, Note_on_c, 0, 76, 45
1, 26378, Note_on_c, 0, 64, 57
1, 26413, Note_off_c, 0, 64, 64
1, 26413, Note_off_c, 0, 71, 64
1, 26417, Note_off_c, 0, 67, 64
1, 26420, Note_off_c, 0, 76, 64
1, 26533, Note_on_c, 0, 67, 45
1, 26580, Note_off_c, 0, 67, 64
1, 26595, Note_on_c, 0, 69, 45
1, 26651, Note_off_c, 0, 69, 64
1, 26676, Note_on_c, 0, 71, 55
1, 26697, Note_on_c, 0, 64, 47
1, 26700, Note_on_c, 0, 67, 55
1, 26726, Note_off_c, 0, 71, 64
1, 26739, Note_off_c, 0, 64, 64
1, 26739, Note_off_c, 0, 67, 64
1, 26753, Note_on_c, 0, 72, 52
1, 26790, Note_off_c, 0, 72, 64
1, 26840, Note_on_c, 0, 71, 66
1, 26853, Note_on_c, 0, 67, 36
1, 26868, Note_on_c, 0, 64, 32
1, 26881, Note_off_c, 0, 71, 64
1, 26906, Note_off_c, 0, 67, 64
1, 26912, Note_off_c, 0, 64, 64
1, 26917, Note_on_c, 0, 78, 56
1, 26973, Note_off_c, 0, 78, 64
1, 26988, Note_on_c, 0, 69, 51
1, 27002, Note_on_c, 0, 76, 47
1, 27002, Note_on_c, 0, 64, 41
1, 27030, Note_off_c, 0, 69, 64
1, 27043, Note_off_c, 0, 64, 64
1, 27051, Note_off_c, 0, 76, 64
1, 27083, Note_on_c, 0, 74, 55
1, 27119, Note_off_c, 0, 74, 64
1, 27157, Note_on_c, 0, 71, 67
1, 27171, Note_on_c, 0, 67, 37
1, 27183, Note_on_c, 0, 64, 29
1, 27199, Note_off_c, 0, 71, 64
1, 27221, Note_off_c, 0, 67, 64
1, 27232, Note_off_c, 0, 64, 64
1, 27241, Note_on_c, 0, 76, 46
1, 27283, Note_off_c, 0, 76, 64
1, 27294, Note_on_c, 0, 79, 74
1, 27342, Note_off_c, 0, 79, 64
1, 27395, Note_on_c, 0, 82, 35
1, 27449, Note_off_c, 0, 82, 64
1, 27456, Note_on_c, 0, 83, 85
1, 27495, Note_off_c, 0, 83, 64
1, 27653, Note_on_c, 0, 83, 97
1, 27659, Note_on_c, 0, 74, 64
1, 27659, Note_on_c, 0, 78, 54
1, 27664, Note_on_c, 0, 71, 69
1, 27690, Note_off_c, 0, 83, 64
1, 27694, Note_off_c, 0, 74, 64
1, 27698, Note_off_c, 0, 71, 64
1, 27698, Note_off_c, 0, 78, 64
1, 27818, Note_on_c, 0, 83, 82
1, 27823, Note_on_c, 0, 78, 51
1, 27826, Note_on_c, 0, 74, 57
1, 27832, Note_on_c, 0, 71, 55
1, 27856, Note_off_c, 0, 83, 64
1, 27860, Note_off_c, 0, 74, 64
1, 27860, Note_off_c, 0, 78, 64
1, 27874, Note_off_c, 0, 71, 64
1, 27979, Note_on_c, 0, 83, 91
1, 27985, Note_on_c, 0, 67, 57
1, 27985, Note_on_c, 0, 79, 64
1, 27991, Note_on_c, 0, 74, 60
1, 28016, Note_off_c, 0, 83, 64
1, 28026, Note_off_c, 0, 67, 64
1, 28026, Note_off_c, 0, 79, 64
1, 28029, Note_off_c, 0, 74, 64
1, 28151, Note_on_c, 0, 78, 57
1, 28151, Note_on_c, 0, 83, 83
1, 28151, Note_on_c, 0, 71, 80
1, 28154, Note_on_c, 0, 74, 67
1, 28182, Note_off_c, 0, 71, 64
1, 28191, Note_off_c, 0, 74, 64
1, 28196, Note_off_c, 0, 78, 64
1, 28199, Note_off_c, 0, 83, 64
1, 28308, Note_on_c, 0, 71, 80
1, 28311, Note_on_c, 0, 78, 55
1, 28314, Note_on_c, 0, 74, 47
1, 28314, Note_on_c, 0, 83, 89
1, 28338, Note_off_c, 0, 71, 64
1, 28345, Note_off_c, 0, 83, 64
1, 28353, Note_off_c, 0, 74, 64
1, 28353, Note_off_c, 0, 78, 64
1, 28480, Note_on_c, 0, 71, 60
1, 28528, Note_off_c, 0, 71, 64
1, 28547, Note_on_c, 0, 73, 55
1, 28622, Note_on_c, 0, 66, 88
1, 28629, Note_on_c, 0, 74, 75
1, 28629, Note_off_c, 0, 73, 64
1, 28711, Note_on_c, 0, 78, 58
1, 28721, Note_off_c, 0, 74, 64
1, 28729, Note_off_c, 0, 66, 64
1, 28776, Note_off_c, 0, 78, 64
1, 28792, Note_on_c, 0, 62, 73
1, 28792, Note_on_c, 0, 74, 50
1, 28799, Note_on_c, 0, 71, 52
1, 28842, Note_off_c, 0, 71, 64
1, 28862, Note_on_c, 0, 64, 85
1, 28874, Note_off_c, 0, 62, 64
1, 28881, Note_on_c, 0, 78, 63
1, 28893, Note_off_c, 0, 74, 64
1, 28921, Note_off_c, 0, 64, 64
1, 28943, Note_on_c, 0, 66, 83
1, 28943, Note_on_c, 0, 70, 52
1, 28949, Note_off_c, 0, 78, 64
1, 28949, Note_on_c, 0, 73, 58
1, 28970, Note_off_c, 0, 66, 64
1, 28996, Note_off_c, 0, 70, 64
1, 29001, Note_off_c, 0, 73, 64
1, 29013, Note_on_c, 0, 78, 44
1, 29074, Note_off_c, 0, 78, 64
1, 29118, Note_on_c, 0, 66, 97
1, 29118, Note_on_c, 0, 75, 61
1, 29125, Note_on_c, 0, 71, 66
1, 29186, Note_off_c, 0, 71, 64
1, 29200, Note_off_c, 0, 75, 64
1, 29200, Note_on_c, 0, 78, 58
1, 29258, Note_off_c, 0, 78, 64
1, 29292, Note_on_c, 0, 75, 44
1, 29316, Note_on_c, 0, 71, 47
1, 29345, Note_off_c, 0, 75, 64
1, 29367, Note_off_c, 0, 71, 64
1, 29372, Note_on_c, 0, 78, 60
1, 29416, Note_off_c, 0, 78, 64
1, 29445, Note_off_c, 0, 66, 64
1, 29466, Note_on_c, 0, 59, 49
1, 29473, Note_on_c, 0, 75, 40
1, 29489, Note_on_c, 0, 71, 15
1, 29501, Note_off_c, 0, 59, 64
1, 29515, Note_off_c, 0, 75, 64
1, 29526, Note_on_c, 0, 78, 27
1, 29536, Note_off_c, 0, 71, 64
1, 29581, Note_off_c, 0, 78, 64
1, 29629, Note_on_c, 0, 67, 63
1, 29632, Note_on_c, 0, 64, 57
1, 29637, Note_on_c, 0, 71, 43
1, 29637, Note_on_c, 0, 76, 47
1, 29670, Note_off_c, 0, 67, 64
1, 29670, Note_off_c, 0, 64, 64
1, 29681, Note_off_c, 0, 76, 64
1, 29687, Note_off_c, 0, 71, 64
1, 29801, Note_on_c, 0, 67, 47
1, 29801, Note_on_c, 0, 64, 54
1, 29804, Note_on_c, 0, 76, 25
1, 29804, Note_on_c, 0, 71, 19
1, 29838, Note_off_c, 0, 64, 64
1, 29846, Note_off_c, 0, 67, 64
1, 29856, Note_off_c, 0, 76, 64
1, 29860, Note_off_c, 0, 71, 64
1, 29955, Note_on_c, 0, 76, 16
1, 29966, Note_on_c, 0, 72, 42
1, 29973, Note_on_c, 0, 67, 28
1, 29973, Note_on_c, 0, 60, 26
1, 30013, Note_off_c, 0, 72, 64
1, 30019, Note_off_c, 0, 76, 64
1, 30027, Note_off_c, 0, 60, 64
1, 30033, Note_off_c, 0, 67, 64
1, 30122, Note_on_c, 0, 67, 29
1, 30125, Note_on_c, 0, 76, 29
1, 30130, Note_on_c, 0, 71, 47
1, 30130, Note_on_c, 0, 64, 42
1, 30171, Note_off_c, 0, 64, 64
1, 30174, Note_off_c, 0, 71, 64
1, 30177, Note_off_c, 0, 67, 64
1, 30186, Note_off_c, 0, 76, 64
1, 30300, Note_on_c, 0, 71, 20
1, 30300, Note_on_c, 0, 76, 24
1, 30303, Note_on_c, 0, 64, 23
1, 30303, Note_on_c, 0, 67, 20
1, 30353, Note_off_c, 0, 64, 64
1, 30356, Note_off_c, 0, 71, 64
1, 30361, Note_off_c, 0, 76, 64
1, 30361, Note_off_c, 0, 67, 64
1, 30450, Note_on_c, 0, 67, 39
1, 30497, Note_off_c, 0, 67, 64
1, 30534, Note_on_c, 0, 69, 39
1, 30584, Note_off_c, 0, 69, 64
1, 30600, Note_on_c, 0, 67, 37
1, 30608, Note_on_c, 0, 71, 49
1, 30611, Note_on_c, 0, 64, 12
1, 30648, Note_off_c, 0, 67, 64
1, 30654, Note_off_c, 0, 64, 64
1, 30657, Note_off_c, 0, 71, 64
1, 30673, Note_on_c, 0, 72, 50
1, 30710, Note_off_c, 0, 72, 64
1, 30749, Note_on_c, 0, 67, 33
1, 30753, Note_on_c, 0, 71, 59
1, 30753, Note_on_c, 0, 64, 57
1, 30793, Note_off_c, 0, 64, 64
1, 30793, Note_off_c, 0, 71, 64
1, 30798, Note_off_c, 0, 67, 64
1, 30824, Note_on_c, 0, 78, 57
1, 30880, Note_off_c, 0, 78, 64
1, 30898, Note_on_c, 0, 76, 66
1, 30898, Note_on_c, 0, 69, 52
1, 30905, Note_on_c, 0, 64, 59
1, 30940, Note_off_c, 0, 69, 64
1, 30940, Note_off_c, 0, 64, 64
1, 30948, Note_off_c, 0, 76, 64
1, 30987, Note_on_c, 0, 74, 64
1, 31021, Note_off_c, 0, 74, 64
1, 31060, Note_on_c, 0, 71, 62
1, 31060, Note_on_c, 0, 67, 52
1, 31066, Note_on_c, 0, 64, 22
1, 31102, Note_off_c, 0, 71, 64
1, 31102, Note_off_c, 0, 67, 64
1, 31114, Note_off_c, 0, 64, 64
1, 31141, Note_on_c, 0, 76, 55
1, 31182, Note_off_c, 0, 76, 64
1, 31199, Note_on_c, 0, 79, 74
1, 31250, Note_off_c, 0, 79, 64
1, 31291, Note_on_c, 0, 82, 38
1, 31341, Note_off_c, 0, 82, 64
1, 31363, Note_on_c, 0, 83, 85
1, 31444, Note_off_c, 0, 83, 64
1, 31559, Note_on_c, 0, 64, 49
1, 31559, Note_on_c, 0, 60, 44
1, 31634, Note_on_c, 0, 68, 56
1, 31651, Note_off_c, 0, 64, 64
1, 31651, Note_off_c, 0, 60, 64
1, 31676, Note_off_c, 0, 68, 64
1, 31712, Note_on_c, 0, 69, 43
1, 31757, Note_off_c, 0, 69, 64
1, 31779, Note_on_c, 0, 72, 58
1, 31823, Note_off_c, 0, 72, 64
1, 31881, Note_on_c, 0, 76, 56
1, 31969, Note_off_c, 0, 76, 64
1, 32068, Note_on_c, 0, 60, 37
1, 32077, Note_on_c, 0, 57, 32
1, 32171, Note_on_c, 0, 64, 33
1, 32174, Note_off_c, 0, 60, 64
1, 32183, Note_off_c, 0, 57, 64
1, 32221, Note_off_c, 0, 64, 64
1, 32260, Note_on_c, 0, 65, 36
1, 32309, Note_off_c, 0, 65, 64
1, 32328, Note_on_c, 0, 69, 29
1, 32394, Note_off_c, 0, 69, 64
1, 32423, Note_on_c, 0, 72, 34
1, 32470, Note_off_c, 0, 72, 64
1, 32593, Note_on_c, 0, 57, 35
1, 32593, Note_on_c, 0, 54, 33
1, 32609, Note_on_c, 0, 47, 33
1, 32671, Note_off_c, 0, 57, 64
1, 32674, Note_off_c, 0, 47, 64
1, 32674, Note_off_c, 0, 54, 64
1, 32685, Note_on_c, 0, 62, 35
1, 32732, Note_off_c, 0, 62, 64
1, 32755, Note_on_c, 0, 63, 51
1, 32797, Note_off_c, 0, 63, 64
1, 32820, Note_on_c, 0, 66, 15
1, 32882, Note_off_c, 0, 66, 64
1, 32912, Note_on_c, 0, 71, 43
1, 32977, Note_off_c, 0, 71, 64
1, 33182, Note_on_c, 0, 64, 47
1, 33182, Note_on_c, 0, 55, 49
1, 33185, Note_on_c, 0, 47, 43
1, 33188, Note_on_c, 0, 59, 40
1, 33188, Note_on_c, 0, 40, 47
1, 33196, Note_on_c, 0, 52, 33
1, 33220, Note_off_c, 0, 64, 64
1, 33228, Note_off_c, 0, 40, 64
1, 33228, Note_off_c, 0, 55, 64
1, 33228, Note_off_c, 0, 59, 64
1, 33231, Note_off_c, 0, 47, 64
1, 33241, Note_off_c, 0, 52, 64
1, 33350, Note_on_c, 0, 52, 36
1, 33353, Note_on_c, 0, 47, 47
1, 33356, Note_on_c, 0, 55, 38
1, 33361, Note_on_c, 0, 64, 40
1, 33392, Note_off_c, 0, 52, 64
1, 33392, Note_off_c, 0, 47, 64
1, 33401, Note_off_c, 0, 55, 64
1, 33401, Note_off_c, 0, 64, 64
1, 33515, Note_on_c, 0, 45, 56
1, 33526, Note_on_c, 0, 55, 38
1, 33526, Note_on_c, 0, 52, 47
1, 33533, Note_on_c, 0, 60, 41
1, 33537, Note_on_c, 0, 64, 17
1, 33565, Note_off_c, 0, 45, 64
1, 33568, Note_off_c, 0, 52, 64
1, 33573, Note_off_c, 0, 55, 64
1, 33578, Note_off_c, 0, 60, 64
1, 33586, Note_off_c, 0, 64, 64
1, 33688, Note_on_c, 0, 52, 50
1, 33688, Note_on_c, 0, 47, 55
1, 33692, Note_on_c, 0, 59, 47
1, 33698, Note_on_c, 0, 40, 55
1, 33701, Note_on_c, 0, 55, 50
1, 33731, Note_off_c, 0, 52, 64
1, 33731, Note_off_c, 0, 47, 64
1, 33735, Note_off_c, 0, 59, 64
1, 33735, Note_off_c, 0, 40, 64
1, 33742, Note_off_c, 0, 55, 64
1, 33860, Note_on_c, 0, 64, 42
1, 33860, Note_on_c, 0, 52, 52
1, 33866, Note_on_c, 0, 59, 28
1, 33866, Note_on_c, 0, 47, 50
1, 33869, Note_on_c, 0, 55, 24
1, 33874, Note_on_c, 0, 40, 36
1, 33901, Note_off_c, 0, 64, 64
1, 33901, Note_off_c, 0, 52, 64
1, 33901, Note_off_c, 0, 47, 64
1, 33913, Note_off_c, 0, 59, 64
1, 33921, Note_off_c, 0, 40, 64
1, 33921, Note_off_c, 0, 55, 64
1, 34021, Note_on_c, 0, 55, 29
1, 34025, Note_on_c, 0, 52, 56
1, 34030, Note_on_c, 0, 48, 40
1, 34030, Note_on_c, 0, 64, 39
1, 34033, Note_on_c, 0, 40, 36
1, 34033, Note_on_c, 0, 57, 26
1, 34063, Note_off_c, 0, 52, 64
1, 34072, Note_off_c, 0, 55, 64
1, 34072, Note_off_c, 0, 48, 64
1, 34072, Note_off_c, 0, 64, 64
1, 34078, Note_off_c, 0, 40, 64
1, 34085, Note_off_c, 0, 57, 64
1, 34225, Note_on_c, 0, 40, 63
1, 34236, Note_on_c, 0, 55, 43
1, 34236, Note_on_c, 0, 52, 41
1, 34236, Note_on_c, 0, 47, 54
1, 34245, Note_on_c, 0, 64, 44
1, 34250, Note_on_c, 0, 59, 40
1, 34272, Note_off_c, 0, 40, 64
1, 34280, Note_off_c, 0, 47, 64
1, 34284, Note_off_c, 0, 55, 64
1, 34284, Note_off_c, 0, 52, 64
1, 34311, Note_off_c, 0, 59, 64
1, 34325, Note_off_c, 0, 64, 64
1, 34670, Note_on_c, 0, 71, 33
1, 34723, Note_off_c, 0, 71, 64
1, 34723, Note_on_c, 0, 75, 36
1, 34766, Note_off_c, 0, 75, 64
1, 34771, Note_on_c, 0, 59, 36
1, 34771, Note_on_c, 0, 76, 45
1, 34776, Note_on_c, 0, 67, 34
1, 34776, Note_on_c, 0, 52, 37
1, 34818, Note_off_c, 0, 52, 64
1, 34818, Note_off_c, 0, 59, 64
1, 34830, Note_off_c, 0, 67, 64
1, 34830, Note_off_c, 0, 76, 64
1, 35230, Note_on_c, 0, 83, 30
1, 35270, Note_on_c, 0, 87, 29
1, 35288, Note_off_c, 0, 83, 64
1, 35319, Note_off_c, 0, 87, 64
1, 35322, Note_on_c, 0, 79, 45
1, 35331, Note_on_c, 0, 88, 51
1, 35331, Note_on_c, 0, 71, 46
1, 35334, Note_on_c, 0, 64, 47
1, 35370, Note_off_c, 0, 79, 64
1, 35373, Note_off_c, 0, 71, 64
1, 35376, Note_off_c, 0, 88, 64
1, 35376, Note_off_c, 0, 64, 64
1, 36874, End_track
0, 0, End_of_file
