0, 0, Header, 1, 2, 480
1, 0, Start_track
1, 0, Title_t, "untitled"
1, 0, Time_signature, 4, 2, 24, 8
1, 0, Key_signature, 0, "major"
1, 0, Tempo, 500000
1, 0, Marker_t, "Prelude"
1, 190080, Tempo, 500000
1, 190080, Marker_t, "Sarabande"
1, 330240, Tempo, 500000
1, 330240, Marker_t, "Gavotte"
1, 524160, Tempo, 500000
1, 524160, Marker_t, "Air"
1, 794880, Tempo, 500000
1, 794880, Marker_t, "Rigaudon"
1, 794880, End_track
2, 0, Start_track
2, 0, Title_t, "Grieg: From Holberg's Time"
2, 0, Control_c, 0, 7, 105
2, 0, Control_c, 0, 91, 127
2, 0, Note_on_c, 0, 31, 109
2, 0, Note_on_c, 0, 43, 95
2, 4, Note_on_c, 0, 55, 80
2, 200, Note_on_c, 0, 55, 0
2, 204, Note_on_c, 0, 59, 62
2, 302, Note_on_c, 0, 55, 49
2, 358, Note_on_c, 0, 59, 0
2, 440, Note_on_c, 0, 50, 59
2, 444, Note_on_c, 0, 55, 0
2, 530, Note_on_c, 0, 50, 0
2, 556, Note_on_c, 0, 55, 59
2, 680, Note_on_c, 0, 55, 0
2, 680, Note_on_c, 0, 59, 71
2, 768, Note_on_c, 0, 55, 62
2, 808, Note_on_c, 0, 59, 0
2, 880, Note_on_c, 0, 50, 79
2, 886, Note_on_c, 0, 55, 0
2, 982, Note_on_c, 0, 55, 62
2, 1000, Note_on_c, 0, 50, 0
2, 1096, Note_on_c, 0, 55, 0
2, 1104, Note_on_c, 0, 59, 65
2, 1198, Note_on_c, 0, 55, 62
2, 1252, Note_on_c, 0, 59, 0
2, 1316, Note_on_c, 0, 50, 86
2, 1324, Note_on_c, 0, 55, 0
2, 1426, Note_on_c, 0, 50, 0
2, 1468, Note_on_c, 0, 55, 88
2, 1530, Control_c, 0, 64, 0
2, 1590, Note_on_c, 0, 55, 0
2, 1595, Note_on_c, 0, 60, 77
2, 1668, Control_c, 0, 64, 127
2, 1676, Note_on_c, 0, 55, 64
2, 1724, Note_on_c, 0, 60, 0
2, 1800, Note_on_c, 0, 52, 77
2, 1848, Note_on_c, 0, 55, 0
2, 1898, Control_c, 0, 64, 0
2, 1906, Note_on_c, 0, 57, 73
2, 1934, Note_on_c, 0, 52, 0
2, 2000, Note_on_c, 0, 62, 79
2, 2030, Note_on_c, 0, 57, 0
2, 2040, Control_c, 0, 64, 127
2, 2104, Note_on_c, 0, 57, 52
2, 2134, Note_on_c, 0, 62, 0
2, 2202, Note_on_c, 0, 57, 0
2, 2204, Note_on_c, 0, 54, 87
2, 2286, Note_on_c, 0, 54, 0
2, 2346, Note_on_c, 0, 59, 78
2, 2404, Control_c, 0, 64, 0
2, 2458, Note_on_c, 0, 64, 77
2, 2470, Note_on_c, 0, 59, 0
2, 2550, Note_on_c, 0, 59, 73
2, 2574, Control_c, 0, 64, 127
2, 2616, Note_on_c, 0, 64, 0
2, 2660, Note_on_c, 0, 55, 82
2, 2676, Note_on_c, 0, 59, 0
2, 2756, Note_on_c, 0, 60, 92
2, 2784, Note_on_c, 0, 55, 0
2, 2790, Control_c, 0, 64, 0
2, 2854, Note_on_c, 0, 66, 70
2, 2880, Note_on_c, 0, 60, 0
2, 2948, Note_on_c, 0, 60, 75
2, 2958, Control_c, 0, 64, 127
2, 3026, Note_on_c, 0, 66, 0
2, 3044, Note_on_c, 0, 57, 78
2, 3102, Note_on_c, 0, 60, 0
2, 3170, Note_on_c, 0, 62, 88
2, 3174, Control_c, 0, 64, 0
2, 3194, Note_on_c, 0, 57, 0
2, 3270, Note_on_c, 0, 67, 85
2, 3288, Note_on_c, 0, 62, 0
2, 3374, Control_c, 0, 64, 127
2, 3374, Note_on_c, 0, 62, 71
2, 3440, Note_on_c, 0, 67, 0
2, 3472, Note_on_c, 0, 59, 85
2, 3480, Note_on_c, 0, 62, 0
2, 3572, Control_c, 0, 64, 0
2, 3618, Note_on_c, 0, 64, 104
2, 3658, Note_on_c, 0, 59, 0
2, 3770, Note_on_c, 0, 69, 72
2, 3794, Note_on_c, 0, 64, 0
2, 3818, Control_c, 0, 64, 127
2, 3870, Note_on_c, 0, 64, 79
2, 3936, Note_on_c, 0, 69, 0
2, 3962, Note_on_c, 0, 60, 77
2, 3974, Note_on_c, 0, 64, 0
2, 4076, Note_on_c, 0, 64, 74
2, 4114, Note_on_c, 0, 60, 0
2, 4178, Note_on_c, 0, 69, 72
2, 4184, Note_on_c, 0, 64, 0
2, 4284, Note_on_c, 0, 64, 67
2, 4330, Note_on_c, 0, 69, 0
2, 4386, Note_on_c, 0, 64, 0
2, 4389, Note_on_c, 0, 60, 86
2, 4464, Control_c, 0, 64, 0
2, 4512, Note_on_c, 0, 66, 87
2, 4596, Note_on_c, 0, 60, 0
2, 4664, Note_on_c, 0, 71, 83
2, 4702, Note_on_c, 0, 66, 0
2, 4726, Control_c, 0, 64, 127
2, 4770, Note_on_c, 0, 66, 74
2, 4802, Note_on_c, 0, 71, 0
2, 4848, Note_on_c, 0, 62, 77
2, 4882, Note_on_c, 0, 66, 0
2, 4952, Note_on_c, 0, 66, 59
2, 4988, Note_on_c, 0, 62, 0
2, 5080, Note_on_c, 0, 71, 82
2, 5092, Note_on_c, 0, 66, 0
2, 5170, Note_on_c, 0, 66, 60
2, 5208, Note_on_c, 0, 71, 0
2, 5272, Note_on_c, 0, 62, 85
2, 5284, Note_on_c, 0, 66, 0
2, 5320, Note_on_c, 0, 62, 0
2, 5386, Control_c, 0, 64, 0
2, 5388, Note_on_c, 0, 62, 95
2, 5538, Note_on_c, 0, 67, 71
2, 5544, Note_on_c, 0, 62, 0
2, 5618, Note_on_c, 0, 62, 67
2, 5632, Control_c, 0, 64, 127
2, 5728, Note_on_c, 0, 62, 0
2, 5730, Note_on_c, 0, 59, 72
2, 5752, Note_on_c, 0, 67, 0
2, 5808, Note_on_c, 0, 59, 0
2, 5822, Note_on_c, 0, 62, 56
2, 5920, Note_on_c, 0, 67, 62
2, 5944, Note_on_c, 0, 62, 0
2, 6016, Note_on_c, 0, 62, 85
2, 6070, Note_on_c, 0, 67, 0
2, 6102, Note_on_c, 0, 31, 0
2, 6112, Note_on_c, 0, 62, 0
2, 6120, Note_on_c, 0, 59, 64
2, 6122, Note_on_c, 0, 43, 0
2, 6202, Note_on_c, 0, 62, 73
2, 6205, Note_on_c, 0, 59, 0
2, 6310, Note_on_c, 0, 67, 75
2, 6312, Note_on_c, 0, 62, 0
2, 6400, Note_on_c, 0, 62, 63
2, 6444, Note_on_c, 0, 67, 0
2, 6506, Note_on_c, 0, 59, 57
2, 6542, Note_on_c, 0, 62, 0
2, 6596, Note_on_c, 0, 55, 102
2, 6596, Note_on_c, 0, 43, 93
2, 6599, Note_on_c, 0, 64, 86
2, 6610, Note_on_c, 0, 59, 0
2, 6646, Control_c, 0, 64, 0
2, 6724, Note_on_c, 0, 69, 62
2, 6742, Note_on_c, 0, 64, 0
2, 6842, Note_on_c, 0, 64, 49
2, 6846, Control_c, 0, 64, 127
2, 6882, Note_on_c, 0, 69, 0
2, 6928, Note_on_c, 0, 55, 0
2, 6940, Note_on_c, 0, 61, 79
2, 6966, Note_on_c, 0, 43, 0
2, 6970, Note_on_c, 0, 64, 0
2, 7050, Note_on_c, 0, 61, 0
2, 7072, Note_on_c, 0, 66, 77
2, 7082, Note_on_c, 0, 54, 104
2, 7088, Note_on_c, 0, 42, 89
2, 7192, Note_on_c, 0, 69, 67
2, 7208, Note_on_c, 0, 66, 0
2, 7282, Note_on_c, 0, 66, 60
2, 7322, Note_on_c, 0, 69, 0
2, 7382, Control_c, 0, 64, 0
2, 7396, Note_on_c, 0, 62, 72
2, 7424, Note_on_c, 0, 66, 0
2, 7506, Note_on_c, 0, 66, 62
2, 7550, Note_on_c, 0, 62, 0
2, 7620, Note_on_c, 0, 69, 74
2, 7634, Note_on_c, 0, 66, 0
2, 7676, Control_c, 0, 64, 127
2, 7712, Note_on_c, 0, 66, 67
2, 7748, Note_on_c, 0, 69, 0
2, 7788, Note_on_c, 0, 54, 0
2, 7814, Note_on_c, 0, 62, 70
2, 7817, Note_on_c, 0, 66, 0
2, 7898, Note_on_c, 0, 42, 0
2, 7910, Note_on_c, 0, 62, 0
2, 7920, Note_on_c, 0, 52, 103
2, 7920, Note_on_c, 0, 67, 83
2, 7920, Note_on_c, 0, 40, 108
2, 8004, Note_on_c, 0, 73, 71
2, 8036, Note_on_c, 0, 67, 0
2, 8106, Note_on_c, 0, 67, 71
2, 8174, Note_on_c, 0, 73, 0
2, 8214, Note_on_c, 0, 64, 82
2, 8226, Note_on_c, 0, 67, 0
2, 8260, Control_c, 0, 64, 0
2, 8332, Note_on_c, 0, 67, 74
2, 8378, Note_on_c, 0, 64, 0
2, 8436, Note_on_c, 0, 73, 78
2, 8450, Note_on_c, 0, 67, 0
2, 8520, Control_c, 0, 64, 127
2, 8534, Note_on_c, 0, 67, 60
2, 8562, Note_on_c, 0, 40, 0
2, 8574, Note_on_c, 0, 52, 0
2, 8620, Note_on_c, 0, 73, 0
2, 8646, Note_on_c, 0, 64, 85
2, 8678, Note_on_c, 0, 67, 0
2, 8746, Note_on_c, 0, 54, 106
2, 8751, Note_on_c, 0, 69, 72
2, 8754, Note_on_c, 0, 42, 89
2, 8808, Note_on_c, 0, 64, 0
2, 8812, Control_c, 0, 64, 0
2, 8862, Note_on_c, 0, 74, 87
2, 8886, Note_on_c, 0, 69, 0
2, 8968, Note_on_c, 0, 69, 44
2, 9020, Note_on_c, 0, 74, 0
2, 9056, Note_on_c, 0, 62, 69
2, 9080, Note_on_c, 0, 69, 0
2, 9166, Control_c, 0, 64, 127
2, 9178, Note_on_c, 0, 69, 59
2, 9218, Note_on_c, 0, 62, 0
2, 9296, Note_on_c, 0, 74, 90
2, 9308, Note_on_c, 0, 69, 0
2, 9390, Note_on_c, 0, 69, 49
2, 9432, Note_on_c, 0, 74, 0
2, 9502, Note_on_c, 0, 62, 72
2, 9518, Note_on_c, 0, 69, 0
2, 9616, Note_on_c, 0, 69, 63
2, 9646, Note_on_c, 0, 62, 0
2, 9692, Note_on_c, 0, 42, 0
2, 9730, Note_on_c, 0, 74, 87
2, 9750, Note_on_c, 0, 54, 0
2, 9752, Note_on_c, 0, 69, 0
2, 9834, Note_on_c, 0, 69, 46
2, 9882, Note_on_c, 0, 74, 0
2, 9954, Note_on_c, 0, 62, 80
2, 10012, Note_on_c, 0, 69, 0
2, 10092, Note_on_c, 0, 67, 96
2, 10100, Note_on_c, 0, 59, 95
2, 10104, Note_on_c, 0, 47, 85
2, 10106, Note_on_c, 0, 62, 0
2, 10208, Note_on_c, 0, 74, 83
2, 10210, Note_on_c, 0, 67, 0
2, 10210, Control_c, 0, 64, 0
2, 10332, Note_on_c, 0, 67, 67
2, 10374, Note_on_c, 0, 74, 0
2, 10410, Control_c, 0, 64, 127
2, 10422, Note_on_c, 0, 62, 75
2, 10452, Note_on_c, 0, 59, 0
2, 10454, Note_on_c, 0, 47, 0
2, 10464, Note_on_c, 0, 67, 0
2, 10522, Note_on_c, 0, 57, 92
2, 10524, Note_on_c, 0, 45, 90
2, 10526, Note_on_c, 0, 69, 78
2, 10550, Note_on_c, 0, 62, 0
2, 10594, Control_c, 0, 64, 0
2, 10632, Note_on_c, 0, 74, 93
2, 10658, Note_on_c, 0, 69, 0
2, 10740, Note_on_c, 0, 69, 56
2, 10804, Note_on_c, 0, 74, 0
2, 10840, Control_c, 0, 64, 127
2, 10842, Note_on_c, 0, 64, 77
2, 10880, Note_on_c, 0, 69, 0
2, 10900, Note_on_c, 0, 57, 0
2, 10950, Note_on_c, 0, 69, 67
2, 10990, Note_on_c, 0, 64, 0
2, 11016, Note_on_c, 0, 45, 0
2, 11076, Note_on_c, 0, 74, 85
2, 11092, Note_on_c, 0, 69, 0
2, 11168, Note_on_c, 0, 69, 51
2, 11196, Note_on_c, 0, 74, 0
2, 11274, Note_on_c, 0, 64, 72
2, 11296, Note_on_c, 0, 69, 0
2, 11366, Note_on_c, 0, 45, 97
2, 11370, Note_on_c, 0, 69, 59
2, 11372, Note_on_c, 0, 33, 93
2, 11466, Note_on_c, 0, 64, 0
2, 11488, Note_on_c, 0, 73, 67
2, 11512, Note_on_c, 0, 69, 0
2, 11586, Note_on_c, 0, 69, 51
2, 11644, Note_on_c, 0, 73, 0
2, 11684, Note_on_c, 0, 64, 79
2, 11714, Note_on_c, 0, 69, 0
2, 11732, Control_c, 0, 64, 0
2, 11796, Note_on_c, 0, 69, 51
2, 11862, Note_on_c, 0, 64, 0
2, 11928, Note_on_c, 0, 73, 75
2, 11956, Note_on_c, 0, 69, 0
2, 11962, Control_c, 0, 64, 127
2, 12022, Note_on_c, 0, 69, 55
2, 12030, Note_on_c, 0, 33, 0
2, 12068, Note_on_c, 0, 45, 0
2, 12078, Note_on_c, 0, 73, 0
2, 12132, Note_on_c, 0, 64, 70
2, 12170, Note_on_c, 0, 69, 0
2, 12230, Note_on_c, 0, 64, 0
2, 12260, Note_on_c, 0, 69, 41
2, 12260, Note_on_c, 0, 38, 82
2, 12266, Note_on_c, 0, 50, 71
2, 12332, Control_c, 0, 64, 0
2, 12376, Note_on_c, 0, 74, 75
2, 12386, Note_on_c, 0, 69, 0
2, 12472, Note_on_c, 0, 69, 34
2, 12552, Note_on_c, 0, 74, 0
2, 12570, Note_on_c, 0, 66, 44
2, 12622, Note_on_c, 0, 69, 0
2, 12684, Note_on_c, 0, 69, 70
2, 12718, Note_on_c, 0, 66, 0
2, 12730, Control_c, 0, 64, 127
2, 12810, Note_on_c, 0, 69, 0
2, 12810, Note_on_c, 0, 74, 72
2, 12892, Note_on_c, 0, 69, 46
2, 12938, Note_on_c, 0, 74, 0
2, 12994, Note_on_c, 0, 66, 49
2, 13020, Note_on_c, 0, 69, 0
2, 13096, Note_on_c, 0, 69, 43
2, 13126, Note_on_c, 0, 66, 0
2, 13222, Note_on_c, 0, 74, 62
2, 13228, Note_on_c, 0, 69, 0
2, 13276, Note_on_c, 0, 38, 0
2, 13298, Note_on_c, 0, 69, 48
2, 13306, Note_on_c, 0, 50, 0
2, 13324, Note_on_c, 0, 74, 0
2, 13424, Note_on_c, 0, 66, 40
2, 13450, Note_on_c, 0, 69, 0
2, 13526, Note_on_c, 0, 69, 47
2, 13553, Note_on_c, 0, 66, 0
2, 13660, Note_on_c, 0, 69, 0
2, 13672, Note_on_c, 0, 74, 56
2, 13736, Note_on_c, 0, 69, 43
2, 13742, Note_on_c, 0, 74, 0
2, 13858, Note_on_c, 0, 66, 40
2, 13892, Note_on_c, 0, 69, 0
2, 14064, Note_on_c, 0, 67, 50
2, 14076, Note_on_c, 0, 83, 108
2, 14098, Note_on_c, 0, 66, 0
2, 14128, Control_c, 0, 64, 0
2, 14184, Note_on_c, 0, 67, 0
2, 14216, Note_on_c, 0, 74, 50
2, 14296, Note_on_c, 0, 74, 0
2, 14302, Note_on_c, 0, 67, 34
2, 14402, Note_on_c, 0, 67, 0
2, 14404, Note_on_c, 0, 66, 41
2, 14406, Control_c, 0, 64, 127
2, 14502, Note_on_c, 0, 66, 0
2, 14504, Note_on_c, 0, 67, 33
2, 14586, Note_on_c, 0, 67, 0
2, 14624, Note_on_c, 0, 74, 54
2, 14660, Note_on_c, 0, 83, 0
2, 14706, Note_on_c, 0, 74, 0
2, 14746, Note_on_c, 0, 67, 29
2, 14816, Note_on_c, 0, 67, 0
2, 14824, Note_on_c, 0, 66, 33
2, 14938, Note_on_c, 0, 66, 0
2, 14950, Note_on_c, 0, 67, 18
2, 14972, Note_on_c, 0, 83, 94
2, 15004, Control_c, 0, 64, 0
2, 15048, Note_on_c, 0, 67, 0
2, 15092, Note_on_c, 0, 74, 44
2, 15190, Note_on_c, 0, 74, 0
2, 15190, Control_c, 0, 64, 127
2, 15193, Note_on_c, 0, 67, 32
2, 15270, Note_on_c, 0, 67, 0
2, 15274, Note_on_c, 0, 83, 0
2, 15286, Note_on_c, 0, 66, 32
2, 15368, Note_on_c, 0, 66, 0
2, 15394, Note_on_c, 0, 67, 31
2, 15486, Note_on_c, 0, 67, 0
2, 15522, Note_on_c, 0, 74, 46
2, 15602, Note_on_c, 0, 74, 0
2, 15654, Note_on_c, 0, 83, 80
2, 15666, Note_on_c, 0, 67, 44
2, 15764, Note_on_c, 0, 67, 0
2, 15780, Note_on_c, 0, 66, 16
2, 15902, Note_on_c, 0, 66, 0
2, 15938, Note_on_c, 0, 83, 0
2, 15966, Note_on_c, 0, 67, 55
2, 15972, Control_c, 0, 64, 0
2, 15978, Note_on_c, 0, 76, 41
2, 16086, Note_on_c, 0, 67, 0
2, 16114, Note_on_c, 0, 74, 39
2, 16142, Control_c, 0, 64, 127
2, 16152, Note_on_c, 0, 76, 0
2, 16210, Note_on_c, 0, 67, 14
2, 16256, Note_on_c, 0, 74, 0
2, 16322, Note_on_c, 0, 67, 0
2, 16324, Note_on_c, 0, 64, 33
2, 16470, Note_on_c, 0, 57, 39
2, 16478, Note_on_c, 0, 64, 0
2, 16480, Note_on_c, 0, 67, 39
2, 16556, Note_on_c, 0, 67, 0
2, 16584, Note_on_c, 0, 74, 48
2, 16660, Note_on_c, 0, 74, 0
2, 16716, Note_on_c, 0, 67, 27
2, 16788, Note_on_c, 0, 67, 0
2, 16796, Note_on_c, 0, 64, 43
2, 16884, Note_on_c, 0, 64, 0
2, 16894, Control_c, 0, 64, 0
2, 16924, Note_on_c, 0, 57, 0
2, 16932, Note_on_c, 0, 50, 47
2, 16934, Note_on_c, 0, 67, 37
2, 17002, Note_on_c, 0, 67, 0
2, 17036, Note_on_c, 0, 73, 40
2, 17064, Control_c, 0, 64, 127
2, 17100, Note_on_c, 0, 50, 0
2, 17174, Note_on_c, 0, 67, 24
2, 17176, Note_on_c, 0, 73, 0
2, 17246, Note_on_c, 0, 64, 43
2, 17249, Note_on_c, 0, 67, 0
2, 17334, Note_on_c, 0, 64, 0
2, 17352, Note_on_c, 0, 67, 27
2, 17436, Note_on_c, 0, 67, 0
2, 17464, Note_on_c, 0, 73, 33
2, 17574, Note_on_c, 0, 76, 39
2, 17598, Note_on_c, 0, 73, 0
2, 17606, Note_on_c, 0, 67, 43
2, 17646, Note_on_c, 0, 78, 60
2, 17668, Note_on_c, 0, 67, 0
2, 17682, Note_on_c, 0, 76, 0
2, 17690, Note_on_c, 0, 64, 49
2, 17758, Note_on_c, 0, 79, 71
2, 17782, Note_on_c, 0, 64, 0
2, 17784, Note_on_c, 0, 78, 0
2, 17812, Note_on_c, 0, 66, 47
2, 17815, Note_on_c, 0, 81, 92
2, 17832, Control_c, 0, 64, 0
2, 17886, Note_on_c, 0, 79, 0
2, 17952, Note_on_c, 0, 66, 0
2, 17970, Note_on_c, 0, 73, 39
2, 18052, Note_on_c, 0, 66, 36
2, 18108, Control_c, 0, 64, 127
2, 18116, Note_on_c, 0, 73, 0
2, 18154, Note_on_c, 0, 66, 0
2, 18174, Note_on_c, 0, 64, 50
2, 18242, Note_on_c, 0, 64, 0
2, 18292, Note_on_c, 0, 66, 36
2, 18352, Note_on_c, 0, 66, 0
2, 18388, Note_on_c, 0, 73, 50
2, 18502, Note_on_c, 0, 73, 0
2, 18505, Note_on_c, 0, 66, 49
2, 18564, Note_on_c, 0, 66, 0
2, 18602, Note_on_c, 0, 64, 56
2, 18608, Note_on_c, 0, 81, 0
2, 18680, Note_on_c, 0, 64, 0
2, 18696, Note_on_c, 0, 81, 74
2, 18718, Note_on_c, 0, 66, 48
2, 18754, Control_c, 0, 64, 0
2, 18798, Note_on_c, 0, 66, 0
2, 18830, Note_on_c, 0, 73, 48
2, 18924, Note_on_c, 0, 66, 41
2, 18952, Note_on_c, 0, 73, 0
2, 19000, Control_c, 0, 64, 127
2, 19018, Note_on_c, 0, 66, 0
2, 19032, Note_on_c, 0, 64, 46
2, 19118, Note_on_c, 0, 64, 0
2, 19144, Note_on_c, 0, 81, 0
2, 19156, Note_on_c, 0, 66, 36
2, 19238, Note_on_c, 0, 66, 0
2, 19272, Note_on_c, 0, 73, 35
2, 19380, Note_on_c, 0, 81, 77
2, 19386, Note_on_c, 0, 66, 41
2, 19466, Note_on_c, 0, 73, 0
2, 19484, Note_on_c, 0, 66, 0
2, 19487, Note_on_c, 0, 64, 46
2, 19614, Control_c, 0, 64, 0
2, 19634, Note_on_c, 0, 64, 0
2, 19646, Note_on_c, 0, 66, 35
2, 19649, Note_on_c, 0, 74, 75
2, 19652, Note_on_c, 0, 81, 0
2, 19728, Note_on_c, 0, 66, 0
2, 19756, Note_on_c, 0, 73, 48
2, 19814, Control_c, 0, 64, 127
2, 19828, Note_on_c, 0, 74, 0
2, 19858, Note_on_c, 0, 66, 37
2, 19938, Note_on_c, 0, 66, 0
2, 19976, Note_on_c, 0, 73, 0
2, 19976, Note_on_c, 0, 62, 43
2, 20128, Note_on_c, 0, 66, 52
2, 20138, Note_on_c, 0, 62, 0
2, 20160, Note_on_c, 0, 57, 48
2, 20240, Note_on_c, 0, 57, 0
2, 20244, Note_on_c, 0, 66, 0
2, 20254, Note_on_c, 0, 73, 47
2, 20376, Note_on_c, 0, 66, 32
2, 20410, Note_on_c, 0, 73, 0
2, 20448, Note_on_c, 0, 66, 0
2, 20478, Note_on_c, 0, 62, 47
2, 20594, Note_on_c, 0, 62, 0
2, 20600, Note_on_c, 0, 50, 50
2, 20604, Note_on_c, 0, 66, 49
2, 20658, Control_c, 0, 64, 0
2, 20702, Note_on_c, 0, 66, 0
2, 20730, Note_on_c, 0, 71, 58
2, 20824, Note_on_c, 0, 66, 33
2, 20848, Note_on_c, 0, 50, 0
2, 20858, Control_c, 0, 64, 127
2, 20900, Note_on_c, 0, 71, 0
2, 20928, Note_on_c, 0, 62, 43
2, 20940, Note_on_c, 0, 66, 0
2, 21046, Note_on_c, 0, 66, 40
2, 21054, Note_on_c, 0, 62, 0
2, 21170, Note_on_c, 0, 66, 0
2, 21216, Note_on_c, 0, 71, 49
2, 21292, Note_on_c, 0, 66, 25
2, 21300, Note_on_c, 0, 74, 57
2, 21306, Note_on_c, 0, 71, 0
2, 21378, Note_on_c, 0, 76, 63
2, 21392, Note_on_c, 0, 66, 0
2, 21398, Note_on_c, 0, 62, 50
2, 21460, Note_on_c, 0, 78, 77
2, 21462, Note_on_c, 0, 74, 0
2, 21496, Note_on_c, 0, 62, 0
2, 21500, Note_on_c, 0, 76, 0
2, 21542, Note_on_c, 0, 64, 52
2, 21550, Control_c, 0, 64, 0
2, 21550, Note_on_c, 0, 79, 108
2, 21590, Note_on_c, 0, 78, 0
2, 21630, Note_on_c, 0, 64, 0
2, 21672, Note_on_c, 0, 71, 59
2, 21792, Note_on_c, 0, 64, 55
2, 21794, Control_c, 0, 64, 127
2, 21798, Note_on_c, 0, 71, 0
2, 21838, Note_on_c, 0, 79, 0
2, 21850, Note_on_c, 0, 64, 0
2, 21882, Note_on_c, 0, 62, 49
2, 21950, Note_on_c, 0, 62, 0
2, 21990, Note_on_c, 0, 64, 55
2, 22054, Note_on_c, 0, 64, 0
2, 22094, Note_on_c, 0, 71, 65
2, 22190, Note_on_c, 0, 71, 0
2, 22218, Note_on_c, 0, 64, 50
2, 22286, Note_on_c, 0, 64, 0
2, 22316, Note_on_c, 0, 62, 49
2, 22420, Note_on_c, 0, 62, 0
2, 22454, Note_on_c, 0, 50, 40
2, 22460, Note_on_c, 0, 64, 50
2, 22520, Note_on_c, 0, 64, 0
2, 22534, Control_c, 0, 64, 0
2, 22554, Note_on_c, 0, 69, 50
2, 22688, Control_c, 0, 64, 127
2, 22698, Note_on_c, 0, 69, 0
2, 22698, Note_on_c, 0, 50, 0
2, 22698, Note_on_c, 0, 64, 51
2, 22748, Note_on_c, 0, 64, 0
2, 22760, Note_on_c, 0, 61, 55
2, 22856, Note_on_c, 0, 61, 0
2, 22896, Note_on_c, 0, 64, 32
2, 22958, Note_on_c, 0, 64, 0
2, 22990, Note_on_c, 0, 69, 48
2, 23092, Note_on_c, 0, 73, 54
2, 23116, Note_on_c, 0, 64, 59
2, 23144, Note_on_c, 0, 69, 0
2, 23170, Note_on_c, 0, 64, 0
2, 23188, Note_on_c, 0, 74, 78
2, 23202, Note_on_c, 0, 61, 49
2, 23205, Note_on_c, 0, 73, 0
2, 23290, Note_on_c, 0, 76, 60
2, 23310, Note_on_c, 0, 61, 0
2, 23318, Note_on_c, 0, 74, 0
2, 23354, Note_on_c, 0, 76, 0
2, 23356, Note_on_c, 0, 62, 39
2, 23364, Control_c, 0, 64, 0
2, 23390, Note_on_c, 0, 78, 81
2, 23466, Note_on_c, 0, 62, 0
2, 23504, Note_on_c, 0, 69, 41
2, 23578, Control_c, 0, 64, 127
2, 23606, Note_on_c, 0, 62, 41
2, 23612, Note_on_c, 0, 69, 0
2, 23618, Note_on_c, 0, 78, 0
2, 23678, Note_on_c, 0, 62, 0
2, 23712, Note_on_c, 0, 61, 49
2, 23794, Note_on_c, 0, 61, 0
2, 23832, Note_on_c, 0, 62, 37
2, 23904, Note_on_c, 0, 62, 0
2, 23952, Note_on_c, 0, 69, 31
2, 24034, Note_on_c, 0, 69, 0
2, 24056, Note_on_c, 0, 62, 39
2, 24122, Note_on_c, 0, 62, 0
2, 24154, Note_on_c, 0, 61, 37
2, 24232, Note_on_c, 0, 61, 0
2, 24270, Note_on_c, 0, 62, 47
2, 24278, Note_on_c, 0, 50, 48
2, 24286, Control_c, 0, 64, 0
2, 24342, Note_on_c, 0, 62, 0
2, 24380, Note_on_c, 0, 67, 50
2, 24470, Control_c, 0, 64, 127
2, 24484, Note_on_c, 0, 50, 0
2, 24492, Note_on_c, 0, 67, 0
2, 24500, Note_on_c, 0, 62, 39
2, 24562, Note_on_c, 0, 62, 0
2, 24596, Note_on_c, 0, 59, 42
2, 24666, Note_on_c, 0, 59, 0
2, 24730, Note_on_c, 0, 62, 52
2, 24790, Note_on_c, 0, 62, 0
2, 24842, Note_on_c, 0, 67, 44
2, 24924, Note_on_c, 0, 67, 0
2, 24950, Note_on_c, 0, 71, 44
2, 24982, Note_on_c, 0, 62, 33
2, 25022, Note_on_c, 0, 73, 42
2, 25026, Note_on_c, 0, 71, 0
2, 25046, Note_on_c, 0, 62, 0
2, 25062, Note_on_c, 0, 59, 39
2, 25148, Note_on_c, 0, 73, 0
2, 25151, Note_on_c, 0, 74, 52
2, 25160, Control_c, 0, 64, 0
2, 25206, Note_on_c, 0, 61, 52
2, 25210, Note_on_c, 0, 74, 0
2, 25236, Note_on_c, 0, 76, 52
2, 25264, Note_on_c, 0, 59, 0
2, 25346, Note_on_c, 0, 61, 0
2, 25360, Control_c, 0, 64, 127
2, 25394, Note_on_c, 0, 76, 0
2, 25408, Note_on_c, 0, 67, 33
2, 25524, Note_on_c, 0, 61, 35
2, 25536, Note_on_c, 0, 67, 0
2, 25594, Note_on_c, 0, 61, 0
2, 25620, Note_on_c, 0, 59, 42
2, 25708, Note_on_c, 0, 59, 0
2, 25718, Note_on_c, 0, 50, 43
2, 25726, Note_on_c, 0, 61, 44
2, 25782, Note_on_c, 0, 50, 0
2, 25810, Note_on_c, 0, 61, 0
2, 25858, Note_on_c, 0, 67, 39
2, 25942, Note_on_c, 0, 67, 0
2, 25948, Note_on_c, 0, 61, 48
2, 26022, Note_on_c, 0, 61, 0
2, 26068, Note_on_c, 0, 59, 39
2, 26162, Note_on_c, 0, 59, 0
2, 26198, Note_on_c, 0, 61, 57
2, 26208, Note_on_c, 0, 73, 51
2, 26374, Control_c, 0, 64, 0
2, 26376, Note_on_c, 0, 74, 66
2, 26380, Note_on_c, 0, 73, 0
2, 26410, Note_on_c, 0, 61, 0
2, 26410, Note_on_c, 0, 67, 48
2, 26466, Note_on_c, 0, 73, 46
2, 26470, Note_on_c, 0, 74, 0
2, 26492, Note_on_c, 0, 61, 50
2, 26498, Control_c, 0, 64, 127
2, 26516, Note_on_c, 0, 67, 0
2, 26558, Note_on_c, 0, 74, 77
2, 26574, Note_on_c, 0, 73, 0
2, 26624, Note_on_c, 0, 61, 0
2, 26627, Note_on_c, 0, 59, 43
2, 26648, Note_on_c, 0, 74, 0
2, 26652, Note_on_c, 0, 73, 66
2, 26720, Note_on_c, 0, 61, 50
2, 26724, Note_on_c, 0, 73, 0
2, 26724, Note_on_c, 0, 59, 0
2, 26736, Note_on_c, 0, 74, 65
2, 26820, Note_on_c, 0, 74, 0
2, 26820, Note_on_c, 0, 73, 63
2, 26838, Note_on_c, 0, 61, 0
2, 26870, Note_on_c, 0, 67, 46
2, 26882, Note_on_c, 0, 73, 0
2, 26900, Note_on_c, 0, 74, 73
2, 26940, Note_on_c, 0, 61, 42
2, 26966, Note_on_c, 0, 74, 0
2, 26966, Note_on_c, 0, 67, 0
2, 26982, Note_on_c, 0, 73, 73
2, 27028, Note_on_c, 0, 61, 0
2, 27040, Note_on_c, 0, 73, 0
2, 27044, Note_on_c, 0, 59, 49
2, 27068, Note_on_c, 0, 74, 74
2, 27098, Control_c, 0, 64, 0
2, 27138, Note_on_c, 0, 73, 77
2, 27144, Note_on_c, 0, 61, 62
2, 27150, Note_on_c, 0, 74, 0
2, 27218, Note_on_c, 0, 59, 0
2, 27221, Note_on_c, 0, 73, 0
2, 27236, Note_on_c, 0, 74, 75
2, 27250, Control_c, 0, 64, 127
2, 27288, Note_on_c, 0, 61, 0
2, 27290, Note_on_c, 0, 66, 57
2, 27322, Note_on_c, 0, 73, 70
2, 27328, Note_on_c, 0, 74, 0
2, 27388, Note_on_c, 0, 73, 0
2, 27390, Note_on_c, 0, 61, 58
2, 27412, Note_on_c, 0, 74, 79
2, 27418, Note_on_c, 0, 66, 0
2, 27490, Note_on_c, 0, 57, 55
2, 27495, Note_on_c, 0, 74, 0
2, 27502, Note_on_c, 0, 73, 75
2, 27508, Note_on_c, 0, 61, 0
2, 27560, Note_on_c, 0, 73, 0
2, 27578, Note_on_c, 0, 61, 79
2, 27581, Note_on_c, 0, 74, 79
2, 27642, Note_on_c, 0, 57, 0
2, 27668, Note_on_c, 0, 73, 78
2, 27674, Note_on_c, 0, 74, 0
2, 27682, Note_on_c, 0, 66, 73
2, 27688, Note_on_c, 0, 61, 0
2, 27738, Note_on_c, 0, 73, 0
2, 27750, Note_on_c, 0, 74, 83
2, 27770, Note_on_c, 0, 61, 69
2, 27832, Note_on_c, 0, 73, 79
2, 27838, Note_on_c, 0, 74, 0
2, 27840, Note_on_c, 0, 66, 0
2, 27882, Note_on_c, 0, 57, 72
2, 27898, Note_on_c, 0, 61, 0
2, 27914, Note_on_c, 0, 74, 88
2, 27924, Note_on_c, 0, 73, 0
2, 27990, Note_on_c, 0, 61, 80
2, 27998, Note_on_c, 0, 73, 81
2, 28006, Note_on_c, 0, 74, 0
2, 28018, Control_c, 0, 64, 0
2, 28070, Note_on_c, 0, 57, 0
2, 28084, Note_on_c, 0, 74, 87
2, 28106, Note_on_c, 0, 73, 0
2, 28108, Note_on_c, 0, 64, 90
2, 28124, Note_on_c, 0, 61, 0
2, 28156, Control_c, 0, 64, 127
2, 28172, Note_on_c, 0, 73, 80
2, 28175, Note_on_c, 0, 74, 0
2, 28196, Note_on_c, 0, 61, 77
2, 28240, Note_on_c, 0, 64, 0
2, 28262, Note_on_c, 0, 74, 86
2, 28276, Note_on_c, 0, 73, 0
2, 28314, Note_on_c, 0, 55, 77
2, 28336, Note_on_c, 0, 61, 0
2, 28362, Note_on_c, 0, 73, 65
2, 28364, Note_on_c, 0, 74, 0
2, 28420, Note_on_c, 0, 61, 69
2, 28476, Note_on_c, 0, 74, 54
2, 28479, Note_on_c, 0, 73, 0
2, 28484, Note_on_c, 0, 55, 0
2, 28518, Note_on_c, 0, 64, 81
2, 28526, Note_on_c, 0, 61, 0
2, 28558, Note_on_c, 0, 73, 58
2, 28590, Note_on_c, 0, 74, 0
2, 28596, Note_on_c, 0, 61, 75
2, 28642, Note_on_c, 0, 64, 0
2, 28688, Note_on_c, 0, 71, 83
2, 28698, Note_on_c, 0, 73, 0
2, 28714, Note_on_c, 0, 55, 64
2, 28722, Note_on_c, 0, 61, 0
2, 28774, Note_on_c, 0, 73, 72
2, 28804, Note_on_c, 0, 71, 0
2, 28848, Control_c, 0, 64, 0
2, 28874, Note_on_c, 0, 73, 0
2, 28888, Note_on_c, 0, 55, 0
2, 28894, Note_on_c, 0, 57, 66
2, 28898, Note_on_c, 0, 74, 116
2, 28990, Note_on_c, 0, 74, 0
2, 29016, Control_c, 0, 64, 127
2, 29036, Note_on_c, 0, 57, 0
2, 29039, Note_on_c, 0, 62, 78
2, 29142, Note_on_c, 0, 57, 36
2, 29220, Note_on_c, 0, 62, 0
2, 29268, Note_on_c, 0, 54, 80
2, 29284, Note_on_c, 0, 57, 0
2, 29370, Note_on_c, 0, 54, 0
2, 29378, Note_on_c, 0, 50, 104
2, 29382, Note_on_c, 0, 57, 51
2, 29386, Note_on_c, 0, 38, 92
2, 29528, Note_on_c, 0, 57, 0
2, 29534, Note_on_c, 0, 62, 70
2, 29600, Note_on_c, 0, 57, 54
2, 29644, Note_on_c, 0, 62, 0
2, 29690, Note_on_c, 0, 57, 0
2, 29692, Note_on_c, 0, 54, 73
2, 29798, Note_on_c, 0, 54, 0
2, 29844, Note_on_c, 0, 62, 81
2, 29910, Control_c, 0, 64, 0
2, 29916, Note_on_c, 0, 66, 77
2, 29950, Note_on_c, 0, 62, 0
2, 30026, Note_on_c, 0, 62, 75
2, 30032, Control_c, 0, 64, 127
2, 30060, Note_on_c, 0, 66, 0
2, 30122, Note_on_c, 0, 62, 0
2, 30122, Note_on_c, 0, 57, 66
2, 30208, Note_on_c, 0, 57, 0
2, 30248, Note_on_c, 0, 66, 89
2, 30276, Control_c, 0, 64, 0
2, 30360, Note_on_c, 0, 69, 77
2, 30388, Note_on_c, 0, 66, 0
2, 30416, Control_c, 0, 64, 127
2, 30450, Note_on_c, 0, 66, 65
2, 30496, Note_on_c, 0, 50, 0
2, 30510, Note_on_c, 0, 69, 0
2, 30548, Note_on_c, 0, 62, 78
2, 30564, Note_on_c, 0, 66, 0
2, 30572, Note_on_c, 0, 38, 0
2, 30596, Note_on_c, 0, 62, 0
2, 30686, Note_on_c, 0, 69, 88
2, 30782, Note_on_c, 0, 74, 88
2, 30794, Note_on_c, 0, 69, 0
2, 30892, Note_on_c, 0, 69, 47
2, 30908, Note_on_c, 0, 74, 0
2, 30980, Note_on_c, 0, 69, 0
2, 30996, Note_on_c, 0, 66, 73
2, 31098, Note_on_c, 0, 66, 0
2, 31106, Note_on_c, 0, 74, 98
2, 31200, Note_on_c, 0, 78, 87
2, 31212, Note_on_c, 0, 74, 0
2, 31284, Note_on_c, 0, 74, 71
2, 31328, Note_on_c, 0, 78, 0
2, 31390, Note_on_c, 0, 69, 72
2, 31406, Note_on_c, 0, 74, 0
2, 31484, Note_on_c, 0, 69, 0
2, 31526, Note_on_c, 0, 78, 101
2, 31638, Note_on_c, 0, 81, 90
2, 31652, Note_on_c, 0, 78, 0
2, 31738, Note_on_c, 0, 78, 60
2, 31770, Note_on_c, 0, 81, 0
2, 31840, Note_on_c, 0, 78, 0
2, 31872, Note_on_c, 0, 74, 75
2, 32048, Note_on_c, 0, 74, 0
2, 32050, Note_on_c, 0, 86, 119
2, 32118, Note_on_c, 0, 86, 0
2, 32904, Note_on_c, 0, 55, 93
2, 32914, Note_on_c, 0, 43, 111
2, 32916, Note_on_c, 0, 31, 116
2, 33066, Note_on_c, 0, 59, 72
2, 33074, Note_on_c, 0, 55, 0
2, 33104, Control_c, 0, 64, 0
2, 33176, Note_on_c, 0, 55, 57
2, 33258, Note_on_c, 0, 59, 0
2, 33302, Note_on_c, 0, 50, 85
2, 33330, Note_on_c, 0, 55, 0
2, 33334, Control_c, 0, 64, 127
2, 33424, Note_on_c, 0, 55, 59
2, 33490, Note_on_c, 0, 50, 0
2, 33538, Note_on_c, 0, 59, 85
2, 33556, Note_on_c, 0, 55, 0
2, 33638, Note_on_c, 0, 55, 64
2, 33678, Note_on_c, 0, 59, 0
2, 33732, Note_on_c, 0, 50, 70
2, 33766, Note_on_c, 0, 55, 0
2, 33846, Note_on_c, 0, 55, 79
2, 33872, Note_on_c, 0, 50, 0
2, 33966, Note_on_c, 0, 59, 78
2, 33980, Note_on_c, 0, 55, 0
2, 34050, Note_on_c, 0, 55, 85
2, 34084, Note_on_c, 0, 59, 0
2, 34156, Note_on_c, 0, 50, 78
2, 34162, Note_on_c, 0, 55, 0
2, 34274, Note_on_c, 0, 55, 85
2, 34292, Note_on_c, 0, 50, 0
2, 34304, Control_c, 0, 64, 0
2, 34376, Note_on_c, 0, 60, 80
2, 34402, Note_on_c, 0, 55, 0
2, 34456, Control_c, 0, 64, 127
2, 34476, Note_on_c, 0, 55, 79
2, 34524, Note_on_c, 0, 60, 0
2, 34590, Note_on_c, 0, 52, 86
2, 34636, Note_on_c, 0, 55, 0
2, 34696, Note_on_c, 0, 57, 83
2, 34702, Control_c, 0, 64, 0
2, 34706, Note_on_c, 0, 52, 0
2, 34794, Note_on_c, 0, 62, 83
2, 34826, Note_on_c, 0, 57, 0
2, 34872, Control_c, 0, 64, 127
2, 34882, Note_on_c, 0, 62, 0
2, 34884, Note_on_c, 0, 57, 81
2, 34990, Note_on_c, 0, 57, 0
2, 34998, Note_on_c, 0, 54, 94
2, 35052, Note_on_c, 0, 54, 0
2, 35118, Note_on_c, 0, 59, 87
2, 35164, Control_c, 0, 64, 0
2, 35210, Note_on_c, 0, 64, 88
2, 35222, Note_on_c, 0, 59, 0
2, 35298, Note_on_c, 0, 59, 71
2, 35318, Control_c, 0, 64, 127
2, 35348, Note_on_c, 0, 64, 0
2, 35402, Note_on_c, 0, 55, 86
2, 35422, Note_on_c, 0, 59, 0
2, 35498, Note_on_c, 0, 60, 95
2, 35501, Control_c, 0, 64, 0
2, 35524, Note_on_c, 0, 55, 0
2, 35594, Note_on_c, 0, 66, 77
2, 35614, Note_on_c, 0, 60, 0
2, 35686, Control_c, 0, 64, 127
2, 35696, Note_on_c, 0, 60, 65
2, 35764, Note_on_c, 0, 66, 0
2, 35788, Note_on_c, 0, 57, 81
2, 35838, Note_on_c, 0, 60, 0
2, 35900, Control_c, 0, 64, 0
2, 35905, Note_on_c, 0, 62, 78
2, 35911, Note_on_c, 0, 57, 0
2, 36002, Note_on_c, 0, 67, 83
2, 36030, Note_on_c, 0, 62, 0
2, 36070, Control_c, 0, 64, 127
2, 36096, Note_on_c, 0, 62, 83
2, 36138, Note_on_c, 0, 67, 0
2, 36198, Note_on_c, 0, 59, 80
2, 36210, Note_on_c, 0, 62, 0
2, 36254, Control_c, 0, 64, 0
2, 36302, Note_on_c, 0, 59, 0
2, 36307, Note_on_c, 0, 64, 104
2, 36416, Note_on_c, 0, 69, 72
2, 36438, Note_on_c, 0, 64, 0
2, 36440, Control_c, 0, 64, 127
2, 36508, Note_on_c, 0, 64, 80
2, 36564, Note_on_c, 0, 69, 0
2, 36608, Note_on_c, 0, 60, 72
2, 36620, Note_on_c, 0, 64, 0
2, 36712, Note_on_c, 0, 64, 74
2, 36752, Note_on_c, 0, 60, 0
2, 36818, Note_on_c, 0, 69, 69
2, 36820, Note_on_c, 0, 64, 0
2, 36918, Note_on_c, 0, 64, 65
2, 36972, Note_on_c, 0, 69, 0
2, 37014, Note_on_c, 0, 60, 86
2, 37017, Note_on_c, 0, 64, 0
2, 37114, Control_c, 0, 64, 0
2, 37134, Note_on_c, 0, 66, 96
2, 37170, Note_on_c, 0, 60, 0
2, 37260, Note_on_c, 0, 71, 86
2, 37288, Note_on_c, 0, 66, 0
2, 37314, Control_c, 0, 64, 127
2, 37346, Note_on_c, 0, 66, 69
2, 37394, Note_on_c, 0, 71, 0
2, 37452, Note_on_c, 0, 62, 69
2, 37466, Note_on_c, 0, 66, 0
2, 37550, Note_on_c, 0, 62, 0
2, 37556, Note_on_c, 0, 66, 54
2, 37678, Note_on_c, 0, 66, 0
2, 37680, Note_on_c, 0, 71, 67
2, 37762, Note_on_c, 0, 66, 49
2, 37810, Note_on_c, 0, 71, 0
2, 37862, Note_on_c, 0, 62, 70
2, 37880, Note_on_c, 0, 66, 0
2, 37912, Note_on_c, 0, 62, 0
2, 37980, Note_on_c, 0, 62, 94
2, 37990, Control_c, 0, 64, 0
2, 38110, Note_on_c, 0, 67, 64
2, 38136, Note_on_c, 0, 62, 0
2, 38212, Note_on_c, 0, 62, 67
2, 38222, Control_c, 0, 64, 127
2, 38266, Note_on_c, 0, 67, 0
2, 38304, Note_on_c, 0, 59, 57
2, 38308, Note_on_c, 0, 62, 0
2, 38384, Note_on_c, 0, 59, 0
2, 38398, Note_on_c, 0, 62, 58
2, 38490, Note_on_c, 0, 62, 0
2, 38490, Note_on_c, 0, 43, 0
2, 38498, Note_on_c, 0, 31, 0
2, 38504, Note_on_c, 0, 67, 57
2, 38582, Note_on_c, 0, 62, 55
2, 38596, Note_on_c, 0, 67, 0
2, 38666, Note_on_c, 0, 62, 0
2, 38682, Note_on_c, 0, 59, 50
2, 38762, Note_on_c, 0, 59, 0
2, 38788, Note_on_c, 0, 62, 63
2, 38874, Note_on_c, 0, 62, 0
2, 38888, Note_on_c, 0, 67, 65
2, 38982, Note_on_c, 0, 62, 59
2, 39034, Note_on_c, 0, 67, 0
2, 39078, Note_on_c, 0, 59, 71
2, 39096, Note_on_c, 0, 62, 0
2, 39178, Note_on_c, 0, 59, 0
2, 39181, Note_on_c, 0, 55, 102
2, 39184, Note_on_c, 0, 43, 96
2, 39192, Note_on_c, 0, 64, 77
2, 39220, Control_c, 0, 64, 0
2, 39286, Note_on_c, 0, 69, 63
2, 39300, Note_on_c, 0, 64, 0
2, 39388, Note_on_c, 0, 64, 59
2, 39404, Control_c, 0, 64, 127
2, 39420, Note_on_c, 0, 69, 0
2, 39492, Note_on_c, 0, 55, 0
2, 39492, Note_on_c, 0, 61, 79
2, 39502, Note_on_c, 0, 43, 0
2, 39504, Note_on_c, 0, 64, 0
2, 39582, Note_on_c, 0, 61, 0
2, 39600, Note_on_c, 0, 54, 103
2, 39606, Note_on_c, 0, 42, 93
2, 39608, Note_on_c, 0, 66, 74
2, 39696, Control_c, 0, 64, 0
2, 39706, Note_on_c, 0, 69, 69
2, 39732, Note_on_c, 0, 66, 0
2, 39794, Note_on_c, 0, 66, 70
2, 39834, Note_on_c, 0, 69, 0
2, 39910, Note_on_c, 0, 62, 67
2, 39928, Note_on_c, 0, 66, 0
2, 39942, Control_c, 0, 64, 127
2, 40016, Note_on_c, 0, 66, 66
2, 40036, Note_on_c, 0, 62, 0
2, 40132, Note_on_c, 0, 69, 62
2, 40144, Note_on_c, 0, 66, 0
2, 40218, Note_on_c, 0, 66, 67
2, 40262, Note_on_c, 0, 69, 0
2, 40306, Note_on_c, 0, 54, 0
2, 40324, Note_on_c, 0, 62, 79
2, 40338, Note_on_c, 0, 66, 0
2, 40388, Note_on_c, 0, 62, 0
2, 40424, Note_on_c, 0, 42, 0
2, 40446, Note_on_c, 0, 52, 105
2, 40446, Note_on_c, 0, 40, 109
2, 40449, Note_on_c, 0, 67, 83
2, 40496, Control_c, 0, 64, 0
2, 40528, Note_on_c, 0, 67, 0
2, 40534, Note_on_c, 0, 73, 74
2, 40648, Note_on_c, 0, 67, 72
2, 40696, Note_on_c, 0, 73, 0
2, 40736, Note_on_c, 0, 64, 83
2, 40766, Note_on_c, 0, 67, 0
2, 40838, Note_on_c, 0, 67, 80
2, 40884, Note_on_c, 0, 64, 0
2, 40946, Note_on_c, 0, 73, 72
2, 40954, Note_on_c, 0, 67, 0
2, 41002, Control_c, 0, 64, 127
2, 41058, Note_on_c, 0, 67, 47
2, 41100, Note_on_c, 0, 52, 0
2, 41124, Note_on_c, 0, 40, 0
2, 41154, Note_on_c, 0, 73, 0
2, 41160, Note_on_c, 0, 64, 82
2, 41206, Note_on_c, 0, 67, 0
2, 41278, Note_on_c, 0, 69, 67
2, 41280, Note_on_c, 0, 54, 110
2, 41286, Note_on_c, 0, 42, 93
2, 41310, Note_on_c, 0, 64, 0
2, 41356, Control_c, 0, 64, 0
2, 41378, Note_on_c, 0, 74, 85
2, 41400, Note_on_c, 0, 69, 0
2, 41466, Note_on_c, 0, 69, 57
2, 41546, Note_on_c, 0, 74, 0
2, 41570, Note_on_c, 0, 62, 74
2, 41614, Note_on_c, 0, 69, 0
2, 41694, Note_on_c, 0, 69, 56
2, 41742, Note_on_c, 0, 62, 0
2, 41756, Control_c, 0, 64, 127
2, 41814, Note_on_c, 0, 74, 90
2, 41836, Note_on_c, 0, 69, 0
2, 41908, Note_on_c, 0, 69, 52
2, 41926, Note_on_c, 0, 74, 0
2, 42010, Note_on_c, 0, 62, 71
2, 42040, Note_on_c, 0, 69, 0
2, 42122, Note_on_c, 0, 42, 0
2, 42124, Note_on_c, 0, 69, 65
2, 42132, Note_on_c, 0, 62, 0
2, 42228, Note_on_c, 0, 74, 88
2, 42260, Note_on_c, 0, 69, 0
2, 42316, Note_on_c, 0, 69, 79
2, 42346, Note_on_c, 0, 74, 0
2, 42428, Note_on_c, 0, 62, 86
2, 42476, Note_on_c, 0, 69, 0
2, 42538, Note_on_c, 0, 59, 104
2, 42540, Note_on_c, 0, 47, 97
2, 42544, Note_on_c, 0, 67, 96
2, 42564, Note_on_c, 0, 62, 0
2, 42574, Note_on_c, 0, 54, 0
2, 42632, Control_c, 0, 64, 0
2, 42644, Note_on_c, 0, 74, 87
2, 42672, Note_on_c, 0, 67, 0
2, 42750, Note_on_c, 0, 67, 63
2, 42800, Note_on_c, 0, 74, 0
2, 42846, Control_c, 0, 64, 127
2, 42858, Note_on_c, 0, 62, 87
2, 42884, Note_on_c, 0, 47, 0
2, 42887, Note_on_c, 0, 59, 0
2, 42932, Note_on_c, 0, 67, 0
2, 42972, Note_on_c, 0, 57, 96
2, 42972, Note_on_c, 0, 69, 71
2, 42975, Note_on_c, 0, 45, 92
2, 42998, Note_on_c, 0, 62, 0
2, 43030, Control_c, 0, 64, 0
2, 43084, Note_on_c, 0, 74, 85
2, 43116, Note_on_c, 0, 69, 0
2, 43174, Note_on_c, 0, 69, 71
2, 43234, Note_on_c, 0, 74, 0
2, 43290, Note_on_c, 0, 64, 79
2, 43306, Control_c, 0, 64, 127
2, 43322, Note_on_c, 0, 69, 0
2, 43360, Note_on_c, 0, 57, 0
2, 43396, Note_on_c, 0, 69, 62
2, 43440, Note_on_c, 0, 64, 0
2, 43470, Note_on_c, 0, 45, 0
2, 43526, Note_on_c, 0, 74, 90
2, 43542, Note_on_c, 0, 69, 0
2, 43618, Note_on_c, 0, 69, 50
2, 43664, Note_on_c, 0, 74, 0
2, 43720, Note_on_c, 0, 64, 75
2, 43760, Note_on_c, 0, 69, 0
2, 43822, Note_on_c, 0, 69, 67
2, 43828, Note_on_c, 0, 45, 90
2, 43834, Note_on_c, 0, 33, 89
2, 43872, Note_on_c, 0, 64, 0
2, 43928, Note_on_c, 0, 73, 78
2, 43960, Note_on_c, 0, 69, 0
2, 44036, Note_on_c, 0, 69, 54
2, 44094, Note_on_c, 0, 73, 0
2, 44142, Note_on_c, 0, 64, 72
2, 44186, Note_on_c, 0, 69, 0
2, 44214, Control_c, 0, 64, 0
2, 44250, Note_on_c, 0, 69, 65
2, 44322, Note_on_c, 0, 64, 0
2, 44370, Note_on_c, 0, 73, 77
2, 44400, Note_on_c, 0, 69, 0
2, 44440, Note_on_c, 0, 33, 0
2, 44460, Control_c, 0, 64, 127
2, 44472, Note_on_c, 0, 69, 50
2, 44482, Note_on_c, 0, 45, 0
2, 44518, Note_on_c, 0, 73, 0
2, 44576, Note_on_c, 0, 64, 60
2, 44610, Note_on_c, 0, 69, 0
2, 44676, Note_on_c, 0, 69, 63
2, 44682, Note_on_c, 0, 50, 83
2, 44686, Note_on_c, 0, 38, 80
2, 44698, Note_on_c, 0, 64, 0
2, 44706, Control_c, 0, 64, 0
2, 44792, Note_on_c, 0, 74, 72
2, 44804, Note_on_c, 0, 69, 0
2, 44882, Note_on_c, 0, 69, 48
2, 44920, Note_on_c, 0, 74, 0
2, 44984, Note_on_c, 0, 66, 47
2, 45016, Note_on_c, 0, 69, 0
2, 45086, Note_on_c, 0, 69, 55
2, 45120, Note_on_c, 0, 66, 0
2, 45166, Control_c, 0, 64, 127
2, 45206, Note_on_c, 0, 74, 67
2, 45214, Note_on_c, 0, 69, 0
2, 45306, Note_on_c, 0, 69, 32
2, 45350, Control_c, 0, 64, 0
2, 45352, Note_on_c, 0, 74, 0
2, 45398, Note_on_c, 0, 66, 47
2, 45440, Note_on_c, 0, 69, 0
2, 45510, Note_on_c, 0, 69, 55
2, 45536, Note_on_c, 0, 66, 0
2, 45550, Control_c, 0, 64, 127
2, 45636, Note_on_c, 0, 69, 0
2, 45648, Note_on_c, 0, 74, 63
2, 45740, Note_on_c, 0, 69, 28
2, 45756, Note_on_c, 0, 38, 0
2, 45772, Note_on_c, 0, 74, 0
2, 45822, Note_on_c, 0, 50, 0
2, 45848, Note_on_c, 0, 66, 29
2, 45862, Note_on_c, 0, 69, 0
2, 45938, Note_on_c, 0, 69, 46
2, 45962, Note_on_c, 0, 66, 0
2, 45966, Control_c, 0, 64, 0
2, 46072, Control_c, 0, 64, 127
2, 46074, Note_on_c, 0, 69, 0
2, 46082, Note_on_c, 0, 74, 59
2, 46154, Note_on_c, 0, 69, 33
2, 46160, Note_on_c, 0, 74, 0
2, 46268, Note_on_c, 0, 66, 42
2, 46322, Note_on_c, 0, 69, 0
2, 46424, Note_on_c, 0, 67, 57
2, 46476, Note_on_c, 0, 66, 0
2, 46479, Note_on_c, 0, 83, 100
2, 46488, Control_c, 0, 64, 0
2, 46596, Note_on_c, 0, 67, 0
2, 46620, Note_on_c, 0, 74, 48
2, 46706, Note_on_c, 0, 74, 0
2, 46709, Note_on_c, 0, 67, 28
2, 46808, Note_on_c, 0, 67, 0
2, 46816, Note_on_c, 0, 66, 37
2, 46856, Control_c, 0, 64, 127
2, 46942, Note_on_c, 0, 66, 0
2, 46962, Note_on_c, 0, 67, 16
2, 47044, Note_on_c, 0, 67, 0
2, 47082, Note_on_c, 0, 74, 31
2, 47150, Note_on_c, 0, 67, 17
2, 47153, Note_on_c, 0, 74, 0
2, 47160, Note_on_c, 0, 83, 0
2, 47244, Note_on_c, 0, 67, 0
2, 47250, Note_on_c, 0, 66, 28
2, 47342, Note_on_c, 0, 66, 0
2, 47370, Note_on_c, 0, 83, 92
2, 47372, Note_on_c, 0, 67, 34
2, 47426, Control_c, 0, 64, 0
2, 47452, Note_on_c, 0, 67, 0
2, 47494, Note_on_c, 0, 74, 48
2, 47588, Note_on_c, 0, 74, 0
2, 47600, Note_on_c, 0, 67, 28
2, 47624, Control_c, 0, 64, 127
2, 47678, Note_on_c, 0, 67, 0
2, 47692, Note_on_c, 0, 66, 27
2, 47732, Note_on_c, 0, 83, 0
2, 47776, Note_on_c, 0, 66, 0
2, 47796, Note_on_c, 0, 67, 32
2, 47908, Note_on_c, 0, 67, 0
2, 47934, Note_on_c, 0, 74, 44
2, 48012, Note_on_c, 0, 74, 0
2, 48032, Note_on_c, 0, 67, 25
2, 48054, Note_on_c, 0, 83, 96
2, 48148, Note_on_c, 0, 66, 34
2, 48172, Note_on_c, 0, 67, 0
2, 48286, Note_on_c, 0, 66, 0
2, 48350, Note_on_c, 0, 67, 55
2, 48370, Note_on_c, 0, 83, 0
2, 48386, Note_on_c, 0, 76, 48
2, 48392, Control_c, 0, 64, 0
2, 48478, Note_on_c, 0, 67, 0
2, 48500, Note_on_c, 0, 74, 50
2, 48562, Control_c, 0, 64, 127
2, 48565, Note_on_c, 0, 76, 0
2, 48632, Note_on_c, 0, 67, 28
2, 48656, Note_on_c, 0, 74, 0
2, 48726, Note_on_c, 0, 67, 0
2, 48748, Note_on_c, 0, 64, 31
2, 48838, Note_on_c, 0, 64, 0
2, 48862, Note_on_c, 0, 67, 41
2, 48865, Note_on_c, 0, 57, 42
2, 48936, Note_on_c, 0, 67, 0
2, 48966, Note_on_c, 0, 74, 51
2, 49042, Note_on_c, 0, 74, 0
2, 49080, Note_on_c, 0, 67, 21
2, 49178, Note_on_c, 0, 67, 0
2, 49184, Note_on_c, 0, 64, 44
2, 49300, Note_on_c, 0, 64, 0
2, 49314, Control_c, 0, 64, 0
2, 49316, Note_on_c, 0, 67, 40
2, 49320, Note_on_c, 0, 50, 65
2, 49414, Note_on_c, 0, 67, 0
2, 49420, Note_on_c, 0, 73, 37
2, 49530, Control_c, 0, 64, 127
2, 49532, Note_on_c, 0, 50, 0
2, 49542, Note_on_c, 0, 67, 23
2, 49554, Note_on_c, 0, 57, 0
2, 49570, Note_on_c, 0, 73, 0
2, 49640, Note_on_c, 0, 67, 0
2, 49652, Note_on_c, 0, 64, 41
2, 49768, Note_on_c, 0, 67, 46
2, 49776, Note_on_c, 0, 64, 0
2, 49840, Note_on_c, 0, 67, 0
2, 49886, Note_on_c, 0, 73, 28
2, 49974, Note_on_c, 0, 73, 0
2, 49984, Note_on_c, 0, 67, 48
2, 49992, Note_on_c, 0, 76, 47
2, 50046, Note_on_c, 0, 67, 0
2, 50058, Note_on_c, 0, 78, 78
2, 50078, Note_on_c, 0, 64, 56
2, 50108, Note_on_c, 0, 76, 0
2, 50148, Note_on_c, 0, 79, 92
2, 50202, Note_on_c, 0, 66, 50
2, 50212, Note_on_c, 0, 78, 0
2, 50220, Control_c, 0, 64, 0
2, 50222, Note_on_c, 0, 81, 104
2, 50230, Note_on_c, 0, 64, 0
2, 50270, Note_on_c, 0, 79, 0
2, 50348, Note_on_c, 0, 66, 0
2, 50356, Note_on_c, 0, 73, 39
2, 50426, Note_on_c, 0, 66, 46
2, 50468, Control_c, 0, 64, 127
2, 50474, Note_on_c, 0, 73, 0
2, 50532, Note_on_c, 0, 66, 0
2, 50538, Note_on_c, 0, 64, 58
2, 50602, Note_on_c, 0, 64, 0
2, 50618, Note_on_c, 0, 66, 49
2, 50730, Note_on_c, 0, 66, 0
2, 50730, Note_on_c, 0, 73, 50
2, 50834, Note_on_c, 0, 66, 43
2, 50870, Note_on_c, 0, 73, 0
2, 50900, Note_on_c, 0, 81, 0
2, 50944, Note_on_c, 0, 64, 57
2, 50947, Note_on_c, 0, 66, 0
2, 51014, Note_on_c, 0, 64, 0
2, 51082, Note_on_c, 0, 81, 78
2, 51096, Note_on_c, 0, 66, 37
2, 51158, Control_c, 0, 64, 0
2, 51168, Note_on_c, 0, 66, 0
2, 51206, Note_on_c, 0, 73, 44
2, 51318, Note_on_c, 0, 66, 33
2, 51342, Note_on_c, 0, 73, 0
2, 51404, Control_c, 0, 64, 127
2, 51406, Note_on_c, 0, 66, 0
2, 51416, Note_on_c, 0, 64, 49
2, 51512, Note_on_c, 0, 64, 0
2, 51530, Note_on_c, 0, 81, 0
2, 51574, Note_on_c, 0, 66, 33
2, 51646, Note_on_c, 0, 66, 0
2, 51674, Note_on_c, 0, 73, 40
2, 51774, Note_on_c, 0, 73, 0
2, 51806, Note_on_c, 0, 81, 72
2, 51808, Note_on_c, 0, 66, 28
2, 51850, Control_c, 0, 64, 0
2, 51930, Note_on_c, 0, 66, 0
2, 51948, Note_on_c, 0, 64, 34
2, 51988, Control_c, 0, 64, 127
2, 52082, Note_on_c, 0, 64, 0
2, 52124, Note_on_c, 0, 66, 39
2, 52142, Control_c, 0, 64, 0
2, 52146, Note_on_c, 0, 74, 57
2, 52150, Note_on_c, 0, 81, 0
2, 52268, Note_on_c, 0, 73, 35
2, 52290, Note_on_c, 0, 66, 0
2, 52326, Control_c, 0, 64, 127
2, 52334, Note_on_c, 0, 74, 0
2, 52380, Note_on_c, 0, 66, 34
2, 52438, Note_on_c, 0, 73, 0
2, 52486, Note_on_c, 0, 66, 0
2, 52512, Note_on_c, 0, 62, 31
2, 52618, Note_on_c, 0, 62, 0
2, 52624, Note_on_c, 0, 66, 29
2, 52642, Note_on_c, 0, 57, 46
2, 52726, Note_on_c, 0, 66, 0
2, 52750, Note_on_c, 0, 73, 32
2, 52840, Note_on_c, 0, 57, 0
2, 52843, Note_on_c, 0, 66, 27
2, 52862, Note_on_c, 0, 73, 0
2, 52964, Note_on_c, 0, 62, 36
2, 52969, Note_on_c, 0, 66, 0
2, 53054, Note_on_c, 0, 62, 0
2, 53062, Note_on_c, 0, 66, 33
2, 53096, Note_on_c, 0, 50, 48
2, 53188, Control_c, 0, 64, 0
2, 53194, Note_on_c, 0, 66, 0
2, 53198, Note_on_c, 0, 71, 49
2, 53284, Note_on_c, 0, 66, 33
2, 53348, Note_on_c, 0, 50, 0
2, 53356, Control_c, 0, 64, 127
2, 53366, Note_on_c, 0, 71, 0
2, 53398, Note_on_c, 0, 66, 0
2, 53414, Note_on_c, 0, 62, 37
2, 53526, Note_on_c, 0, 62, 0
2, 53548, Note_on_c, 0, 66, 49
2, 53614, Note_on_c, 0, 66, 0
2, 53692, Note_on_c, 0, 71, 44
2, 53762, Note_on_c, 0, 71, 0
2, 53778, Note_on_c, 0, 66, 36
2, 53794, Note_on_c, 0, 74, 69
2, 53862, Note_on_c, 0, 66, 0
2, 53872, Note_on_c, 0, 62, 48
2, 53894, Note_on_c, 0, 76, 65
2, 53978, Note_on_c, 0, 74, 0
2, 53982, Note_on_c, 0, 78, 66
2, 54000, Note_on_c, 0, 62, 0
2, 54018, Note_on_c, 0, 76, 0
2, 54050, Note_on_c, 0, 64, 39
2, 54062, Control_c, 0, 64, 0
2, 54086, Note_on_c, 0, 78, 0
2, 54098, Note_on_c, 0, 79, 88
2, 54126, Note_on_c, 0, 64, 0
2, 54192, Note_on_c, 0, 71, 43
2, 54310, Note_on_c, 0, 71, 0
2, 54313, Note_on_c, 0, 64, 44
2, 54338, Control_c, 0, 64, 127
2, 54370, Note_on_c, 0, 79, 0
2, 54373, Note_on_c, 0, 64, 0
2, 54420, Note_on_c, 0, 62, 41
2, 54486, Note_on_c, 0, 62, 0
2, 54548, Note_on_c, 0, 64, 44
2, 54604, Note_on_c, 0, 64, 0
2, 54636, Note_on_c, 0, 71, 56
2, 54720, Note_on_c, 0, 71, 0
2, 54770, Note_on_c, 0, 64, 43
2, 54840, Note_on_c, 0, 64, 0
2, 54874, Note_on_c, 0, 62, 37
2, 54952, Note_on_c, 0, 62, 0
2, 54998, Note_on_c, 0, 50, 52
2, 55004, Note_on_c, 0, 64, 48
2, 55060, Note_on_c, 0, 64, 0
2, 55102, Note_on_c, 0, 69, 50
2, 55170, Control_c, 0, 64, 0
2, 55216, Note_on_c, 0, 64, 51
2, 55260, Note_on_c, 0, 69, 0
2, 55282, Note_on_c, 0, 50, 0
2, 55294, Note_on_c, 0, 64, 0
2, 55300, Note_on_c, 0, 61, 56
2, 55322, Control_c, 0, 64, 127
2, 55406, Note_on_c, 0, 64, 50
2, 55412, Note_on_c, 0, 61, 0
2, 55506, Note_on_c, 0, 64, 0
2, 55534, Note_on_c, 0, 69, 47
2, 55672, Note_on_c, 0, 64, 35
2, 55700, Note_on_c, 0, 69, 0
2, 55700, Note_on_c, 0, 73, 49
2, 55734, Note_on_c, 0, 64, 0
2, 55762, Note_on_c, 0, 61, 44
2, 55790, Note_on_c, 0, 74, 79
2, 55824, Note_on_c, 0, 73, 0
2, 55890, Note_on_c, 0, 74, 0
2, 55898, Note_on_c, 0, 76, 62
2, 55908, Note_on_c, 0, 61, 0
2, 55942, Note_on_c, 0, 62, 43
2, 55962, Note_on_c, 0, 76, 0
2, 55984, Control_c, 0, 64, 0
2, 56014, Note_on_c, 0, 78, 66
2, 56108, Note_on_c, 0, 62, 0
2, 56120, Note_on_c, 0, 69, 39
2, 56218, Note_on_c, 0, 62, 31
2, 56228, Control_c, 0, 64, 127
2, 56242, Note_on_c, 0, 69, 0
2, 56244, Note_on_c, 0, 78, 0
2, 56298, Note_on_c, 0, 62, 0
2, 56332, Note_on_c, 0, 61, 42
2, 56416, Note_on_c, 0, 61, 0
2, 56432, Note_on_c, 0, 62, 49
2, 56524, Note_on_c, 0, 62, 0
2, 56578, Note_on_c, 0, 69, 23
2, 56658, Note_on_c, 0, 69, 0
2, 56664, Note_on_c, 0, 62, 35
2, 56750, Note_on_c, 0, 61, 40
2, 56752, Note_on_c, 0, 62, 0
2, 56862, Note_on_c, 0, 61, 0
2, 56882, Note_on_c, 0, 62, 35
2, 56912, Note_on_c, 0, 50, 46
2, 56962, Note_on_c, 0, 62, 0
2, 56965, Control_c, 0, 64, 0
2, 57006, Note_on_c, 0, 67, 41
2, 57102, Note_on_c, 0, 62, 35
2, 57108, Note_on_c, 0, 67, 0
2, 57120, Control_c, 0, 64, 127
2, 57146, Note_on_c, 0, 50, 0
2, 57188, Note_on_c, 0, 62, 0
2, 57216, Note_on_c, 0, 59, 42
2, 57294, Note_on_c, 0, 59, 0
2, 57336, Note_on_c, 0, 62, 41
2, 57400, Note_on_c, 0, 62, 0
2, 57458, Note_on_c, 0, 67, 39
2, 57572, Note_on_c, 0, 67, 0
2, 57592, Note_on_c, 0, 62, 35
2, 57600, Note_on_c, 0, 71, 62
2, 57660, Note_on_c, 0, 62, 0
2, 57682, Note_on_c, 0, 73, 48
2, 57692, Note_on_c, 0, 71, 0
2, 57692, Note_on_c, 0, 59, 35
2, 57760, Note_on_c, 0, 73, 0
2, 57790, Note_on_c, 0, 74, 56
2, 57812, Control_c, 0, 64, 0
2, 57846, Note_on_c, 0, 74, 0
2, 57870, Note_on_c, 0, 61, 57
2, 57873, Note_on_c, 0, 59, 0
2, 57894, Note_on_c, 0, 76, 52
2, 58010, Control_c, 0, 64, 127
2, 58026, Note_on_c, 0, 61, 0
2, 58050, Note_on_c, 0, 76, 0
2, 58068, Note_on_c, 0, 67, 27
2, 58158, Note_on_c, 0, 61, 40
2, 58160, Note_on_c, 0, 67, 0
2, 58238, Note_on_c, 0, 61, 0
2, 58290, Note_on_c, 0, 59, 37
2, 58364, Note_on_c, 0, 59, 0
2, 58394, Note_on_c, 0, 61, 59
2, 58404, Note_on_c, 0, 50, 35
2, 58478, Note_on_c, 0, 50, 0
2, 58486, Note_on_c, 0, 61, 0
2, 58534, Note_on_c, 0, 67, 37
2, 58624, Note_on_c, 0, 67, 0
2, 58656, Note_on_c, 0, 61, 42
2, 58718, Note_on_c, 0, 61, 0
2, 58738, Note_on_c, 0, 59, 43
2, 58846, Note_on_c, 0, 73, 62
2, 58894, Note_on_c, 0, 61, 43
2, 58956, Note_on_c, 0, 59, 0
2, 58984, Note_on_c, 0, 61, 0
2, 58992, Note_on_c, 0, 73, 0
2, 59008, Note_on_c, 0, 74, 63
2, 59050, Note_on_c, 0, 67, 44
2, 59066, Note_on_c, 0, 74, 0
2, 59090, Note_on_c, 0, 73, 48
2, 59152, Note_on_c, 0, 67, 0
2, 59152, Note_on_c, 0, 61, 44
2, 59180, Note_on_c, 0, 74, 74
2, 59182, Note_on_c, 0, 73, 0
2, 59224, Note_on_c, 0, 61, 0
2, 59240, Control_c, 0, 64, 0
2, 59254, Note_on_c, 0, 59, 43
2, 59258, Note_on_c, 0, 73, 65
2, 59272, Note_on_c, 0, 74, 0
2, 59318, Control_c, 0, 64, 127
2, 59346, Note_on_c, 0, 74, 80
2, 59364, Note_on_c, 0, 73, 0
2, 59370, Note_on_c, 0, 61, 55
2, 59426, Note_on_c, 0, 59, 0
2, 59430, Note_on_c, 0, 73, 71
2, 59444, Note_on_c, 0, 74, 0
2, 59456, Note_on_c, 0, 61, 0
2, 59504, Note_on_c, 0, 67, 46
2, 59514, Note_on_c, 0, 74, 79
2, 59532, Note_on_c, 0, 73, 0
2, 59574, Note_on_c, 0, 61, 50
2, 59594, Note_on_c, 0, 67, 0
2, 59600, Note_on_c, 0, 73, 75
2, 59610, Note_on_c, 0, 74, 0
2, 59670, Note_on_c, 0, 59, 62
2, 59676, Note_on_c, 0, 61, 0
2, 59678, Note_on_c, 0, 74, 89
2, 59682, Note_on_c, 0, 73, 0
2, 59766, Note_on_c, 0, 74, 0
2, 59766, Note_on_c, 0, 73, 80
2, 59784, Note_on_c, 0, 61, 63
2, 59846, Note_on_c, 0, 59, 0
2, 59848, Note_on_c, 0, 74, 77
2, 59864, Note_on_c, 0, 73, 0
2, 59906, Note_on_c, 0, 61, 0
2, 59906, Note_on_c, 0, 66, 65
2, 59942, Note_on_c, 0, 73, 77
2, 59948, Note_on_c, 0, 74, 0
2, 60000, Note_on_c, 0, 61, 57
2, 60026, Note_on_c, 0, 74, 77
2, 60040, Note_on_c, 0, 73, 0
2, 60086, Note_on_c, 0, 66, 0
2, 60102, Note_on_c, 0, 57, 59
2, 60108, Note_on_c, 0, 73, 83
2, 60116, Note_on_c, 0, 61, 0
2, 60119, Note_on_c, 0, 74, 0
2, 60194, Note_on_c, 0, 74, 89
2, 60198, Note_on_c, 0, 61, 73
2, 60210, Note_on_c, 0, 73, 0
2, 60260, Note_on_c, 0, 57, 0
2, 60272, Note_on_c, 0, 73, 90
2, 60284, Note_on_c, 0, 74, 0
2, 60304, Note_on_c, 0, 66, 74
2, 60324, Note_on_c, 0, 61, 0
2, 60360, Note_on_c, 0, 74, 89
2, 60366, Note_on_c, 0, 73, 0
2, 60398, Note_on_c, 0, 61, 74
2, 60436, Note_on_c, 0, 73, 83
2, 60452, Note_on_c, 0, 74, 0
2, 60472, Note_on_c, 0, 66, 0
2, 60508, Note_on_c, 0, 57, 80
2, 60512, Note_on_c, 0, 74, 104
2, 60520, Note_on_c, 0, 61, 0
2, 60542, Note_on_c, 0, 73, 0
2, 60590, Note_on_c, 0, 73, 101
2, 60595, Note_on_c, 0, 74, 0
2, 60610, Note_on_c, 0, 61, 87
2, 60654, Control_c, 0, 64, 0
2, 60678, Note_on_c, 0, 57, 0
2, 60682, Note_on_c, 0, 74, 85
2, 60702, Note_on_c, 0, 73, 0
2, 60718, Note_on_c, 0, 64, 96
2, 60742, Note_on_c, 0, 61, 0
2, 60752, Note_on_c, 0, 73, 98
2, 60768, Note_on_c, 0, 74, 0
2, 60776, Control_c, 0, 64, 127
2, 60804, Note_on_c, 0, 61, 79
2, 60842, Note_on_c, 0, 74, 96
2, 60844, Note_on_c, 0, 73, 0
2, 60856, Note_on_c, 0, 64, 0
2, 60904, Note_on_c, 0, 55, 81
2, 60926, Note_on_c, 0, 61, 0
2, 60926, Note_on_c, 0, 73, 71
2, 60932, Note_on_c, 0, 74, 0
2, 61002, Note_on_c, 0, 74, 100
2, 61016, Note_on_c, 0, 61, 70
2, 61034, Note_on_c, 0, 73, 0
2, 61062, Note_on_c, 0, 55, 0
2, 61094, Note_on_c, 0, 74, 0
2, 61104, Note_on_c, 0, 73, 80
2, 61114, Note_on_c, 0, 64, 82
2, 61122, Note_on_c, 0, 61, 0
2, 61184, Note_on_c, 0, 74, 70
2, 61198, Note_on_c, 0, 61, 72
2, 61240, Note_on_c, 0, 64, 0
2, 61276, Note_on_c, 0, 74, 0
2, 61310, Note_on_c, 0, 55, 64
2, 61318, Note_on_c, 0, 61, 0
2, 61338, Note_on_c, 0, 71, 90
2, 61360, Note_on_c, 0, 73, 0
2, 61432, Note_on_c, 0, 73, 81
2, 61476, Note_on_c, 0, 55, 0
2, 61482, Note_on_c, 0, 71, 0
2, 61514, Control_c, 0, 64, 0
2, 61544, Note_on_c, 0, 57, 66
2, 61554, Note_on_c, 0, 74, 119
2, 61556, Note_on_c, 0, 73, 0
2, 61684, Note_on_c, 0, 74, 0
2, 61691, Note_on_c, 0, 62, 79
2, 61700, Control_c, 0, 64, 127
2, 61703, Note_on_c, 0, 57, 0
2, 61788, Note_on_c, 0, 57, 56
2, 61822, Note_on_c, 0, 62, 0
2, 61912, Note_on_c, 0, 54, 86
2, 61930, Note_on_c, 0, 57, 0
2, 62030, Note_on_c, 0, 54, 0
2, 62052, Note_on_c, 0, 57, 59
2, 62055, Note_on_c, 0, 50, 112
2, 62055, Note_on_c, 0, 38, 113
2, 62188, Note_on_c, 0, 62, 73
2, 62208, Note_on_c, 0, 57, 0
2, 62288, Note_on_c, 0, 57, 47
2, 62320, Note_on_c, 0, 62, 0
2, 62414, Note_on_c, 0, 57, 0
2, 62414, Note_on_c, 0, 54, 67
2, 62524, Note_on_c, 0, 54, 0
2, 62568, Note_on_c, 0, 62, 92
2, 62674, Note_on_c, 0, 66, 73
2, 62678, Note_on_c, 0, 62, 0
2, 62760, Note_on_c, 0, 62, 64
2, 62808, Note_on_c, 0, 66, 0
2, 62870, Note_on_c, 0, 62, 0
2, 62872, Note_on_c, 0, 57, 82
2, 62988, Note_on_c, 0, 57, 0
2, 63002, Note_on_c, 0, 66, 87
2, 63114, Note_on_c, 0, 69, 75
2, 63140, Note_on_c, 0, 66, 0
2, 63210, Note_on_c, 0, 66, 63
2, 63268, Note_on_c, 0, 69, 0
2, 63300, Note_on_c, 0, 62, 87
2, 63322, Note_on_c, 0, 66, 0
2, 63348, Note_on_c, 0, 62, 0
2, 63424, Note_on_c, 0, 69, 94
2, 63460, Note_on_c, 0, 50, 0
2, 63508, Note_on_c, 0, 38, 0
2, 63526, Note_on_c, 0, 69, 0
2, 63526, Note_on_c, 0, 74, 82
2, 63632, Note_on_c, 0, 69, 51
2, 63640, Note_on_c, 0, 74, 0
2, 63696, Note_on_c, 0, 69, 0
2, 63726, Note_on_c, 0, 66, 65
2, 63828, Note_on_c, 0, 74, 90
2, 63852, Note_on_c, 0, 66, 0
2, 63918, Note_on_c, 0, 78, 90
2, 63942, Note_on_c, 0, 74, 0
2, 64014, Note_on_c, 0, 74, 69
2, 64066, Note_on_c, 0, 78, 0
2, 64110, Note_on_c, 0, 69, 64
2, 64126, Note_on_c, 0, 74, 0
2, 64248, Note_on_c, 0, 69, 0
2, 64268, Note_on_c, 0, 78, 86
2, 64384, Note_on_c, 0, 81, 79
2, 64398, Note_on_c, 0, 78, 0
2, 64494, Note_on_c, 0, 78, 46
2, 64512, Note_on_c, 0, 81, 0
2, 64580, Note_on_c, 0, 78, 0
2, 64612, Note_on_c, 0, 74, 63
2, 64830, Note_on_c, 0, 86, 119
2, 64836, Note_on_c, 0, 74, 0
2, 64896, Note_on_c, 0, 86, 0
2, 65650, Note_on_c, 0, 42, 105
2, 65650, Note_on_c, 0, 50, 110
2, 65650, Note_on_c, 0, 62, 112
2, 65653, Note_on_c, 0, 60, 97
2, 65653, Note_on_c, 0, 57, 86
2, 65653, Note_on_c, 0, 30, 110
2, 65678, Control_c, 0, 64, 0
2, 65988, Note_on_c, 0, 50, 0
2, 66016, Control_c, 0, 64, 127
2, 66040, Note_on_c, 0, 42, 0
2, 66064, Note_on_c, 0, 57, 0
2, 66076, Note_on_c, 0, 30, 0
2, 66096, Note_on_c, 0, 60, 0
2, 66136, Note_on_c, 0, 62, 0
2, 66502, Note_on_c, 0, 84, 117
2, 67238, Note_on_c, 0, 84, 0
2, 67340, Note_on_c, 0, 81, 102
2, 67420, Note_on_c, 0, 81, 0
2, 67528, Note_on_c, 0, 81, 93
2, 67596, Note_on_c, 0, 81, 0
2, 67668, Note_on_c, 0, 78, 98
2, 67710, Note_on_c, 0, 78, 0
2, 67810, Note_on_c, 0, 78, 89
2, 67894, Note_on_c, 0, 78, 0
2, 67948, Note_on_c, 0, 74, 101
2, 67986, Note_on_c, 0, 74, 0
2, 68078, Note_on_c, 0, 74, 95
2, 68134, Note_on_c, 0, 74, 0
2, 68206, Note_on_c, 0, 72, 79
2, 68256, Note_on_c, 0, 72, 0
2, 68330, Note_on_c, 0, 72, 90
2, 68422, Note_on_c, 0, 72, 0
2, 68460, Note_on_c, 0, 69, 79
2, 68506, Note_on_c, 0, 69, 0
2, 68586, Note_on_c, 0, 69, 46
2, 68648, Note_on_c, 0, 69, 0
2, 68710, Note_on_c, 0, 66, 79
2, 68748, Note_on_c, 0, 66, 0
2, 68824, Note_on_c, 0, 66, 57
2, 68928, Note_on_c, 0, 66, 0
2, 68942, Note_on_c, 0, 62, 82
2, 68982, Note_on_c, 0, 62, 0
2, 69048, Note_on_c, 0, 62, 98
2, 69120, Note_on_c, 0, 62, 0
2, 69166, Note_on_c, 0, 60, 97
2, 69242, Note_on_c, 0, 60, 0
2, 69276, Note_on_c, 0, 60, 81
2, 69342, Note_on_c, 0, 60, 0
2, 69400, Note_on_c, 0, 57, 77
2, 69448, Note_on_c, 0, 57, 0
2, 69508, Note_on_c, 0, 57, 85
2, 69584, Note_on_c, 0, 57, 0
2, 69646, Note_on_c, 0, 54, 83
2, 69688, Note_on_c, 0, 54, 0
2, 69742, Note_on_c, 0, 54, 103
2, 69836, Note_on_c, 0, 54, 0
2, 69880, Note_on_c, 0, 50, 78
2, 69928, Note_on_c, 0, 50, 0
2, 69994, Note_on_c, 0, 50, 95
2, 70108, Note_on_c, 0, 50, 0
2, 70334, Note_on_c, 0, 31, 92
2, 70412, Control_c, 0, 64, 0
2, 70514, Note_on_c, 0, 43, 66
2, 70626, Note_on_c, 0, 31, 0
2, 70678, Note_on_c, 0, 43, 0
2, 70686, Note_on_c, 0, 59, 52
2, 70704, Control_c, 0, 64, 127
2, 70776, Note_on_c, 0, 59, 0
2, 70816, Note_on_c, 0, 50, 71
2, 70864, Note_on_c, 0, 50, 0
2, 70984, Note_on_c, 0, 55, 60
2, 71048, Note_on_c, 0, 55, 0
2, 71116, Note_on_c, 0, 43, 49
2, 71202, Note_on_c, 0, 43, 0
2, 71248, Note_on_c, 0, 59, 59
2, 71350, Note_on_c, 0, 50, 72
2, 71374, Note_on_c, 0, 59, 0
2, 71398, Note_on_c, 0, 50, 0
2, 71500, Note_on_c, 0, 55, 70
2, 71578, Note_on_c, 0, 55, 0
2, 71608, Note_on_c, 0, 43, 47
2, 71734, Note_on_c, 0, 59, 77
2, 71768, Note_on_c, 0, 43, 0
2, 71822, Note_on_c, 0, 50, 80
2, 71864, Note_on_c, 0, 50, 0
2, 71864, Note_on_c, 0, 59, 0
2, 71982, Note_on_c, 0, 55, 77
2, 72086, Note_on_c, 0, 43, 71
2, 72110, Note_on_c, 0, 55, 0
2, 72230, Note_on_c, 0, 60, 83
2, 72276, Note_on_c, 0, 43, 0
2, 72326, Note_on_c, 0, 52, 86
2, 72362, Note_on_c, 0, 60, 0
2, 72364, Note_on_c, 0, 52, 0
2, 72462, Note_on_c, 0, 57, 82
2, 72562, Note_on_c, 0, 55, 85
2, 72592, Control_c, 0, 64, 0
2, 72710, Note_on_c, 0, 62, 80
2, 72730, Note_on_c, 0, 55, 0
2, 72746, Control_c, 0, 64, 127
2, 72754, Note_on_c, 0, 57, 0
2, 72790, Note_on_c, 0, 54, 97
2, 72860, Note_on_c, 0, 62, 0
2, 72890, Note_on_c, 0, 54, 0
2, 72928, Note_on_c, 0, 59, 95
2, 73028, Note_on_c, 0, 55, 86
2, 73038, Control_c, 0, 64, 0
2, 73170, Note_on_c, 0, 64, 102
2, 73190, Note_on_c, 0, 55, 0
2, 73208, Control_c, 0, 64, 127
2, 73232, Note_on_c, 0, 59, 0
2, 73264, Note_on_c, 0, 55, 87
2, 73338, Note_on_c, 0, 55, 0
2, 73338, Note_on_c, 0, 64, 0
2, 73390, Note_on_c, 0, 60, 102
2, 73494, Note_on_c, 0, 55, 96
2, 73496, Control_c, 0, 64, 0
2, 73634, Note_on_c, 0, 66, 83
2, 73684, Control_c, 0, 64, 127
2, 73704, Note_on_c, 0, 60, 0
2, 73708, Note_on_c, 0, 55, 0
2, 73732, Note_on_c, 0, 57, 97
2, 73830, Note_on_c, 0, 57, 0
2, 73856, Note_on_c, 0, 66, 0
2, 73868, Note_on_c, 0, 62, 112
2, 73898, Control_c, 0, 64, 0
2, 74012, Note_on_c, 0, 55, 97
2, 74044, Note_on_c, 0, 62, 0
2, 74052, Control_c, 0, 64, 127
2, 74122, Note_on_c, 0, 55, 0
2, 74134, Note_on_c, 0, 67, 90
2, 74254, Note_on_c, 0, 59, 105
2, 74278, Note_on_c, 0, 67, 0
2, 74310, Note_on_c, 0, 59, 0
2, 74630, Note_on_c, 0, 39, 103
2, 74632, Note_on_c, 0, 59, 111
2, 74632, Note_on_c, 0, 47, 108
2, 74632, Note_on_c, 0, 57, 87
2, 74634, Note_on_c, 0, 54, 103
2, 74636, Note_on_c, 0, 27, 108
2, 74666, Control_c, 0, 64, 0
2, 74966, Note_on_c, 0, 47, 0
2, 75006, Control_c, 0, 64, 127
2, 75050, Note_on_c, 0, 57, 0
2, 75053, Note_on_c, 0, 39, 0
2, 75060, Note_on_c, 0, 54, 0
2, 75068, Note_on_c, 0, 27, 0
2, 75088, Note_on_c, 0, 59, 0
2, 75450, Note_on_c, 0, 81, 118
2, 76102, Note_on_c, 0, 78, 94
2, 76130, Note_on_c, 0, 81, 0
2, 76180, Note_on_c, 0, 78, 0
2, 76290, Note_on_c, 0, 78, 100
2, 76328, Note_on_c, 0, 78, 0
2, 76468, Note_on_c, 0, 75, 98
2, 76522, Note_on_c, 0, 75, 0
2, 76652, Note_on_c, 0, 75, 101
2, 76700, Note_on_c, 0, 75, 0
2, 76804, Note_on_c, 0, 71, 108
2, 76874, Note_on_c, 0, 71, 0
2, 76980, Note_on_c, 0, 71, 115
2, 77022, Note_on_c, 0, 71, 0
2, 77144, Note_on_c, 0, 69, 93
2, 77189, Note_on_c, 0, 69, 0
2, 77284, Note_on_c, 0, 69, 66
2, 77326, Note_on_c, 0, 69, 0
2, 77430, Note_on_c, 0, 66, 97
2, 77500, Note_on_c, 0, 66, 0
2, 77558, Note_on_c, 0, 66, 79
2, 77598, Note_on_c, 0, 66, 0
2, 77694, Note_on_c, 0, 63, 103
2, 77782, Note_on_c, 0, 63, 0
2, 77832, Note_on_c, 0, 63, 83
2, 77866, Note_on_c, 0, 63, 0
2, 77958, Note_on_c, 0, 59, 98
2, 78010, Note_on_c, 0, 59, 0
2, 78094, Note_on_c, 0, 59, 87
2, 78130, Note_on_c, 0, 59, 0
2, 78210, Note_on_c, 0, 57, 92
2, 78268, Note_on_c, 0, 57, 0
2, 78324, Note_on_c, 0, 57, 98
2, 78360, Note_on_c, 0, 57, 0
2, 78462, Note_on_c, 0, 54, 98
2, 78542, Note_on_c, 0, 54, 0
2, 78566, Note_on_c, 0, 54, 58
2, 78608, Note_on_c, 0, 54, 0
2, 78708, Note_on_c, 0, 51, 94
2, 78814, Note_on_c, 0, 51, 0
2, 78850, Note_on_c, 0, 51, 94
2, 78956, Note_on_c, 0, 51, 0
2, 78976, Note_on_c, 0, 47, 83
2, 79048, Note_on_c, 0, 47, 0
2, 79122, Note_on_c, 0, 47, 73
2, 79194, Note_on_c, 0, 47, 0
2, 79474, Note_on_c, 0, 28, 72
2, 79644, Control_c, 0, 64, 0
2, 79662, Note_on_c, 0, 40, 65
2, 79798, Note_on_c, 0, 55, 71
2, 79812, Note_on_c, 0, 28, 0
2, 79868, Note_on_c, 0, 40, 0
2, 79892, Control_c, 0, 64, 127
2, 79942, Note_on_c, 0, 47, 49
2, 79952, Note_on_c, 0, 55, 0
2, 80016, Note_on_c, 0, 47, 0
2, 80124, Note_on_c, 0, 52, 75
2, 80228, Note_on_c, 0, 52, 0
2, 80238, Note_on_c, 0, 40, 71
2, 80364, Note_on_c, 0, 55, 67
2, 80378, Note_on_c, 0, 40, 0
2, 80460, Note_on_c, 0, 47, 65
2, 80562, Note_on_c, 0, 47, 0
2, 80584, Note_on_c, 0, 55, 0
2, 80606, Note_on_c, 0, 52, 97
2, 80712, Note_on_c, 0, 52, 0
2, 80730, Note_on_c, 0, 40, 87
2, 80836, Note_on_c, 0, 55, 83
2, 80884, Note_on_c, 0, 40, 0
2, 80922, Note_on_c, 0, 47, 74
2, 80970, Note_on_c, 0, 47, 0
2, 81060, Note_on_c, 0, 55, 0
2, 81108, Note_on_c, 0, 52, 92
2, 81182, Control_c, 0, 64, 0
2, 81210, Note_on_c, 0, 40, 93
2, 81290, Note_on_c, 0, 52, 0
2, 81300, Note_on_c, 0, 57, 75
2, 81340, Note_on_c, 0, 40, 0
2, 81350, Control_c, 0, 64, 127
2, 81394, Note_on_c, 0, 49, 85
2, 81436, Note_on_c, 0, 57, 0
2, 81450, Note_on_c, 0, 49, 0
2, 81560, Note_on_c, 0, 54, 89
2, 81672, Note_on_c, 0, 52, 93
2, 81766, Note_on_c, 0, 54, 0
2, 81784, Note_on_c, 0, 52, 0
2, 81800, Note_on_c, 0, 59, 89
2, 81906, Note_on_c, 0, 51, 89
2, 81958, Note_on_c, 0, 51, 0
2, 81976, Note_on_c, 0, 59, 0
2, 82036, Note_on_c, 0, 55, 97
2, 82088, Control_c, 0, 64, 0
2, 82158, Note_on_c, 0, 52, 95
2, 82220, Note_on_c, 0, 55, 0
2, 82256, Control_c, 0, 64, 127
2, 82270, Note_on_c, 0, 61, 96
2, 82276, Note_on_c, 0, 52, 0
2, 82370, Note_on_c, 0, 52, 85
2, 82428, Note_on_c, 0, 61, 0
2, 82442, Note_on_c, 0, 52, 0
2, 82508, Note_on_c, 0, 57, 90
2, 82564, Control_c, 0, 64, 0
2, 82620, Note_on_c, 0, 52, 89
2, 82690, Note_on_c, 0, 57, 0
2, 82718, Note_on_c, 0, 63, 86
2, 82734, Control_c, 0, 64, 127
2, 82804, Note_on_c, 0, 52, 0
2, 82812, Note_on_c, 0, 54, 101
2, 82892, Note_on_c, 0, 63, 0
2, 82918, Note_on_c, 0, 54, 0
2, 82978, Note_on_c, 0, 59, 102
2, 83040, Control_c, 0, 64, 0
2, 83106, Note_on_c, 0, 52, 100
2, 83140, Note_on_c, 0, 59, 0
2, 83194, Control_c, 0, 64, 127
2, 83204, Note_on_c, 0, 52, 0
2, 83216, Note_on_c, 0, 64, 103
2, 83332, Note_on_c, 0, 55, 101
2, 83466, Note_on_c, 0, 64, 0
2, 83468, Note_on_c, 0, 55, 0
2, 83488, Note_on_c, 0, 52, 111
2, 83570, Note_on_c, 0, 40, 106
2, 83656, Control_c, 0, 64, 0
2, 83748, Note_on_c, 0, 65, 97
2, 83750, Note_on_c, 0, 60, 102
2, 83762, Note_on_c, 0, 52, 0
2, 83768, Note_on_c, 0, 40, 0
2, 83808, Control_c, 0, 64, 127
2, 83914, Note_on_c, 0, 65, 0
2, 83920, Note_on_c, 0, 60, 0
2, 83932, Note_on_c, 0, 53, 115
2, 84000, Note_on_c, 0, 53, 0
2, 84156, Note_on_c, 0, 64, 108
2, 84298, Note_on_c, 0, 52, 96
2, 84436, Note_on_c, 0, 77, 96
2, 84438, Note_on_c, 0, 72, 82
2, 84480, Note_on_c, 0, 64, 0
2, 84480, Note_on_c, 0, 65, 83
2, 84504, Note_on_c, 0, 52, 0
2, 84598, Note_on_c, 0, 77, 0
2, 84650, Note_on_c, 0, 65, 0
2, 84682, Note_on_c, 0, 62, 103
2, 84690, Note_on_c, 0, 72, 0
2, 84746, Control_c, 0, 64, 0
2, 84812, Note_on_c, 0, 50, 95
2, 84888, Note_on_c, 0, 62, 0
2, 84930, Control_c, 0, 64, 127
2, 84934, Note_on_c, 0, 50, 0
2, 84950, Note_on_c, 0, 77, 88
2, 84960, Note_on_c, 0, 71, 94
2, 84994, Note_on_c, 0, 65, 100
2, 85038, Note_on_c, 0, 65, 0
2, 85048, Note_on_c, 0, 77, 0
2, 85082, Note_on_c, 0, 71, 0
2, 85194, Note_on_c, 0, 50, 96
2, 85280, Note_on_c, 0, 38, 93
2, 85322, Note_on_c, 0, 50, 0
2, 85424, Note_on_c, 0, 65, 97
2, 85432, Note_on_c, 0, 59, 101
2, 85444, Note_on_c, 0, 38, 0
2, 85532, Note_on_c, 0, 53, 113
2, 85570, Note_on_c, 0, 65, 0
2, 85590, Note_on_c, 0, 59, 0
2, 85648, Note_on_c, 0, 50, 105
2, 85674, Note_on_c, 0, 53, 0
2, 85750, Note_on_c, 0, 38, 105
2, 85806, Control_c, 0, 64, 0
2, 85866, Note_on_c, 0, 50, 0
2, 85894, Note_on_c, 0, 64, 105
2, 85897, Note_on_c, 0, 59, 97
2, 85942, Note_on_c, 0, 38, 0
2, 85976, Control_c, 0, 64, 127
2, 85986, Note_on_c, 0, 52, 111
2, 86024, Note_on_c, 0, 52, 0
2, 86060, Note_on_c, 0, 59, 0
2, 86102, Note_on_c, 0, 64, 0
2, 86188, Note_on_c, 0, 62, 112
2, 86318, Note_on_c, 0, 50, 97
2, 86444, Note_on_c, 0, 76, 85
2, 86448, Note_on_c, 0, 71, 98
2, 86500, Note_on_c, 0, 62, 0
2, 86536, Note_on_c, 0, 50, 0
2, 86564, Note_on_c, 0, 64, 96
2, 86586, Note_on_c, 0, 76, 0
2, 86688, Note_on_c, 0, 71, 0
2, 86692, Note_on_c, 0, 60, 108
2, 86694, Note_on_c, 0, 64, 0
2, 86758, Control_c, 0, 64, 0
2, 86832, Note_on_c, 0, 48, 83
2, 86920, Note_on_c, 0, 60, 0
2, 86942, Note_on_c, 0, 76, 86
2, 86942, Control_c, 0, 64, 127
2, 86958, Note_on_c, 0, 69, 78
2, 86966, Note_on_c, 0, 48, 0
2, 87040, Note_on_c, 0, 76, 0
2, 87054, Note_on_c, 0, 64, 90
2, 87082, Note_on_c, 0, 69, 0
2, 87100, Note_on_c, 0, 64, 0
2, 87174, Note_on_c, 0, 48, 93
2, 87288, Note_on_c, 0, 36, 102
2, 87332, Note_on_c, 0, 48, 0
2, 87414, Note_on_c, 0, 64, 93
2, 87424, Note_on_c, 0, 57, 82
2, 87450, Note_on_c, 0, 36, 0
2, 87520, Note_on_c, 0, 52, 112
2, 87528, Note_on_c, 0, 64, 0
2, 87614, Note_on_c, 0, 36, 89
2, 87624, Note_on_c, 0, 52, 0
2, 87678, Note_on_c, 0, 57, 0
2, 87682, Control_c, 0, 64, 0
2, 87746, Note_on_c, 0, 48, 100
2, 87751, Note_on_c, 0, 58, 94
2, 87751, Note_on_c, 0, 55, 112
2, 87755, Note_on_c, 0, 64, 116
2, 87864, Note_on_c, 0, 55, 0
2, 87864, Control_c, 0, 64, 127
2, 87892, Note_on_c, 0, 58, 0
2, 87908, Note_on_c, 0, 36, 0
2, 87911, Note_on_c, 0, 64, 0
2, 87980, Note_on_c, 0, 48, 0
2, 88184, Note_on_c, 0, 76, 115
2, 88636, Note_on_c, 0, 76, 0
2, 88650, Note_on_c, 0, 70, 73
2, 88722, Note_on_c, 0, 70, 0
2, 88776, Note_on_c, 0, 70, 89
2, 88872, Note_on_c, 0, 70, 0
2, 88902, Note_on_c, 0, 64, 102
2, 88948, Note_on_c, 0, 64, 0
2, 89016, Note_on_c, 0, 64, 112
2, 89082, Note_on_c, 0, 64, 0
2, 89146, Note_on_c, 0, 58, 87
2, 89190, Note_on_c, 0, 58, 0
2, 89246, Note_on_c, 0, 58, 86
2, 89336, Note_on_c, 0, 58, 0
2, 89366, Note_on_c, 0, 53, 126
2, 89394, Note_on_c, 0, 53, 0
2, 89502, Note_on_c, 0, 52, 127
2, 89568, Note_on_c, 0, 52, 0
2, 89710, Control_c, 0, 64, 0
2, 89804, Note_on_c, 0, 58, 90
2, 89804, Note_on_c, 0, 52, 117
2, 89804, Note_on_c, 0, 64, 115
2, 89818, Note_on_c, 0, 48, 96
2, 89824, Note_on_c, 0, 36, 92
2, 89924, Control_c, 0, 64, 127
2, 89934, Note_on_c, 0, 48, 0
2, 89940, Note_on_c, 0, 52, 0
2, 89960, Note_on_c, 0, 64, 0
2, 89972, Note_on_c, 0, 36, 0
2, 90020, Note_on_c, 0, 58, 0
2, 90046, Control_c, 0, 64, 0
2, 90186, Note_on_c, 0, 54, 115
2, 90186, Note_on_c, 0, 63, 109
2, 90192, Note_on_c, 0, 59, 105
2, 90192, Note_on_c, 0, 47, 104
2, 90195, Note_on_c, 0, 35, 116
2, 90252, Note_on_c, 0, 35, 0
2, 90286, Note_on_c, 0, 47, 0
2, 90316, Note_on_c, 0, 54, 0
2, 90324, Control_c, 0, 64, 127
2, 90350, Note_on_c, 0, 59, 0
2, 90396, Note_on_c, 0, 63, 0
2, 90892, Note_on_c, 0, 78, 67
2, 90938, Control_c, 0, 64, 0
2, 91030, Note_on_c, 0, 71, 67
2, 91138, Control_c, 0, 64, 127
2, 91146, Note_on_c, 0, 78, 0
2, 91156, Note_on_c, 0, 71, 0
2, 91190, Note_on_c, 0, 83, 87
2, 91310, Note_on_c, 0, 75, 50
2, 91346, Note_on_c, 0, 83, 0
2, 91382, Note_on_c, 0, 75, 0
2, 91450, Note_on_c, 0, 78, 49
2, 91552, Note_on_c, 0, 78, 0
2, 91566, Note_on_c, 0, 71, 51
2, 91632, Note_on_c, 0, 71, 0
2, 91692, Note_on_c, 0, 83, 82
2, 91798, Note_on_c, 0, 75, 50
2, 91810, Note_on_c, 0, 83, 0
2, 91860, Note_on_c, 0, 75, 0
2, 91946, Note_on_c, 0, 78, 67
2, 91968, Control_c, 0, 64, 0
2, 92058, Note_on_c, 0, 71, 70
2, 92106, Control_c, 0, 64, 127
2, 92148, Note_on_c, 0, 71, 0
2, 92168, Note_on_c, 0, 78, 0
2, 92180, Note_on_c, 0, 83, 93
2, 92284, Note_on_c, 0, 75, 62
2, 92328, Note_on_c, 0, 83, 0
2, 92336, Note_on_c, 0, 75, 0
2, 92430, Note_on_c, 0, 79, 86
2, 92444, Control_c, 0, 64, 0
2, 92564, Note_on_c, 0, 71, 67
2, 92614, Control_c, 0, 64, 127
2, 92630, Note_on_c, 0, 79, 0
2, 92692, Note_on_c, 0, 84, 59
2, 92702, Note_on_c, 0, 71, 0
2, 92804, Note_on_c, 0, 76, 48
2, 92840, Note_on_c, 0, 84, 0
2, 92864, Note_on_c, 0, 76, 0
2, 92942, Note_on_c, 0, 79, 73
2, 93078, Note_on_c, 0, 71, 49
2, 93086, Note_on_c, 0, 79, 0
2, 93150, Note_on_c, 0, 71, 0
2, 93160, Note_on_c, 0, 84, 64
2, 93286, Note_on_c, 0, 76, 42
2, 93309, Note_on_c, 0, 84, 0
2, 93408, Note_on_c, 0, 76, 0
2, 93430, Note_on_c, 0, 76, 42
2, 93552, Note_on_c, 0, 76, 0
2, 93570, Note_on_c, 0, 71, 59
2, 93644, Note_on_c, 0, 71, 0
2, 93688, Note_on_c, 0, 81, 50
2, 93776, Note_on_c, 0, 72, 62
2, 93796, Note_on_c, 0, 81, 0
2, 93826, Note_on_c, 0, 72, 0
2, 93928, Note_on_c, 0, 76, 51
2, 94012, Note_on_c, 0, 76, 0
2, 94066, Note_on_c, 0, 71, 25
2, 94140, Note_on_c, 0, 71, 0
2, 94148, Note_on_c, 0, 81, 62
2, 94254, Note_on_c, 0, 72, 50
2, 94290, Note_on_c, 0, 81, 0
2, 94314, Note_on_c, 0, 72, 0
2, 94398, Note_on_c, 0, 78, 50
2, 94410, Control_c, 0, 64, 0
2, 94508, Note_on_c, 0, 71, 66
2, 94562, Note_on_c, 0, 78, 0
2, 94580, Control_c, 0, 64, 127
2, 94590, Note_on_c, 0, 71, 0
2, 94638, Note_on_c, 0, 83, 81
2, 94716, Note_on_c, 0, 83, 0
2, 94736, Note_on_c, 0, 74, 63
2, 94792, Note_on_c, 0, 74, 0
2, 94858, Note_on_c, 0, 78, 63
2, 94976, Note_on_c, 0, 71, 59
2, 94994, Note_on_c, 0, 78, 0
2, 95030, Note_on_c, 0, 71, 0
2, 95078, Note_on_c, 0, 83, 86
2, 95154, Note_on_c, 0, 83, 0
2, 95184, Note_on_c, 0, 74, 54
2, 95232, Note_on_c, 0, 74, 0
2, 95302, Note_on_c, 0, 74, 72
2, 95428, Note_on_c, 0, 71, 67
2, 95434, Note_on_c, 0, 74, 0
2, 95484, Note_on_c, 0, 71, 0
2, 95532, Note_on_c, 0, 79, 71
2, 95596, Note_on_c, 0, 79, 0
2, 95630, Note_on_c, 0, 71, 77
2, 95684, Note_on_c, 0, 71, 0
2, 95774, Note_on_c, 0, 74, 69
2, 95862, Note_on_c, 0, 74, 0
2, 95864, Note_on_c, 0, 71, 80
2, 95918, Note_on_c, 0, 71, 0
2, 95992, Note_on_c, 0, 79, 87
2, 96092, Note_on_c, 0, 71, 72
2, 96112, Note_on_c, 0, 79, 0
2, 96152, Note_on_c, 0, 71, 0
2, 96208, Control_c, 0, 64, 0
2, 96222, Note_on_c, 0, 76, 63
2, 96330, Note_on_c, 0, 71, 64
2, 96346, Control_c, 0, 64, 127
2, 96362, Note_on_c, 0, 76, 0
2, 96408, Note_on_c, 0, 71, 0
2, 96456, Note_on_c, 0, 81, 62
2, 96552, Note_on_c, 0, 81, 0
2, 96565, Note_on_c, 0, 72, 47
2, 96626, Note_on_c, 0, 72, 0
2, 96694, Note_on_c, 0, 76, 55
2, 96796, Note_on_c, 0, 76, 0
2, 96820, Note_on_c, 0, 71, 43
2, 96888, Note_on_c, 0, 71, 0
2, 96916, Note_on_c, 0, 81, 54
2, 97006, Note_on_c, 0, 81, 0
2, 97020, Note_on_c, 0, 72, 58
2, 97084, Note_on_c, 0, 72, 0
2, 97162, Control_c, 0, 64, 0
2, 97168, Note_on_c, 0, 73, 54
2, 97272, Note_on_c, 0, 73, 0
2, 97284, Control_c, 0, 64, 127
2, 97288, Note_on_c, 0, 71, 60
2, 97348, Note_on_c, 0, 71, 0
2, 97410, Note_on_c, 0, 79, 63
2, 97510, Note_on_c, 0, 79, 0
2, 97510, Note_on_c, 0, 70, 46
2, 97578, Note_on_c, 0, 70, 0
2, 97666, Note_on_c, 0, 73, 41
2, 97740, Note_on_c, 0, 73, 0
2, 97760, Note_on_c, 0, 71, 62
2, 97826, Note_on_c, 0, 71, 0
2, 97906, Note_on_c, 0, 79, 72
2, 98006, Note_on_c, 0, 70, 48
2, 98040, Note_on_c, 0, 79, 0
2, 98062, Note_on_c, 0, 70, 0
2, 98174, Note_on_c, 0, 75, 49
2, 98252, Control_c, 0, 64, 0
2, 98312, Note_on_c, 0, 71, 56
2, 98386, Note_on_c, 0, 75, 0
2, 98390, Control_c, 0, 64, 127
2, 98434, Note_on_c, 0, 71, 0
2, 98442, Note_on_c, 0, 78, 54
2, 98532, Note_on_c, 0, 71, 52
2, 98580, Note_on_c, 0, 78, 0
2, 98610, Note_on_c, 0, 71, 0
2, 98678, Note_on_c, 0, 75, 54
2, 98764, Note_on_c, 0, 75, 0
2, 98790, Note_on_c, 0, 71, 48
2, 98860, Note_on_c, 0, 71, 0
2, 98906, Note_on_c, 0, 78, 64
2, 99010, Note_on_c, 0, 78, 0
2, 99028, Note_on_c, 0, 71, 63
2, 99082, Note_on_c, 0, 71, 0
2, 99132, Note_on_c, 0, 75, 40
2, 99232, Note_on_c, 0, 75, 0
2, 99234, Note_on_c, 0, 71, 56
2, 99286, Note_on_c, 0, 71, 0
2, 99354, Note_on_c, 0, 78, 52
2, 99456, Note_on_c, 0, 71, 70
2, 99476, Note_on_c, 0, 78, 0
2, 99504, Note_on_c, 0, 71, 0
2, 99610, Note_on_c, 0, 71, 43
2, 99726, Note_on_c, 0, 59, 49
2, 99782, Note_on_c, 0, 71, 0
2, 99790, Note_on_c, 0, 59, 0
2, 99872, Note_on_c, 0, 66, 48
2, 100008, Note_on_c, 0, 66, 0
2, 100022, Note_on_c, 0, 75, 42
2, 100076, Note_on_c, 0, 75, 0
2, 100160, Note_on_c, 0, 72, 72
2, 100172, Control_c, 0, 64, 0
2, 100312, Control_c, 0, 64, 127
2, 100330, Note_on_c, 0, 59, 33
2, 100398, Note_on_c, 0, 72, 0
2, 100468, Note_on_c, 0, 67, 48
2, 100484, Note_on_c, 0, 59, 0
2, 100570, Note_on_c, 0, 67, 0
2, 100588, Note_on_c, 0, 76, 42
2, 100646, Note_on_c, 0, 76, 0
2, 100700, Note_on_c, 0, 72, 70
2, 100830, Note_on_c, 0, 72, 0
2, 100854, Note_on_c, 0, 59, 70
2, 100910, Note_on_c, 0, 59, 0
2, 100934, Note_on_c, 0, 67, 60
2, 101030, Note_on_c, 0, 67, 0
2, 101050, Note_on_c, 0, 76, 54
2, 101100, Note_on_c, 0, 76, 0
2, 101178, Note_on_c, 0, 69, 59
2, 101286, Note_on_c, 0, 59, 73
2, 101344, Note_on_c, 0, 69, 0
2, 101404, Note_on_c, 0, 59, 0
2, 101424, Note_on_c, 0, 64, 59
2, 101514, Note_on_c, 0, 72, 67
2, 101542, Note_on_c, 0, 64, 0
2, 101618, Note_on_c, 0, 69, 67
2, 101622, Note_on_c, 0, 72, 0
2, 101722, Note_on_c, 0, 59, 81
2, 101762, Note_on_c, 0, 69, 0
2, 101844, Note_on_c, 0, 64, 77
2, 101894, Note_on_c, 0, 59, 0
2, 101948, Note_on_c, 0, 72, 70
2, 101958, Note_on_c, 0, 64, 0
2, 102000, Note_on_c, 0, 72, 0
2, 102082, Note_on_c, 0, 71, 101
2, 102124, Control_c, 0, 64, 0
2, 102248, Note_on_c, 0, 59, 65
2, 102308, Control_c, 0, 64, 127
2, 102336, Note_on_c, 0, 71, 0
2, 102364, Note_on_c, 0, 66, 39
2, 102408, Note_on_c, 0, 59, 0
2, 102482, Note_on_c, 0, 74, 72
2, 102510, Note_on_c, 0, 66, 0
2, 102542, Note_on_c, 0, 74, 0
2, 102602, Note_on_c, 0, 71, 88
2, 102754, Note_on_c, 0, 59, 49
2, 102758, Note_on_c, 0, 71, 0
2, 102818, Note_on_c, 0, 66, 54
2, 102892, Note_on_c, 0, 59, 0
2, 102944, Note_on_c, 0, 74, 79
2, 102954, Note_on_c, 0, 66, 0
2, 102982, Note_on_c, 0, 74, 0
2, 103058, Note_on_c, 0, 67, 75
2, 103138, Control_c, 0, 64, 0
2, 103200, Note_on_c, 0, 59, 52
2, 103276, Control_c, 0, 64, 127
2, 103298, Note_on_c, 0, 67, 0
2, 103300, Note_on_c, 0, 59, 0
2, 103306, Note_on_c, 0, 62, 63
2, 103394, Note_on_c, 0, 71, 67
2, 103412, Note_on_c, 0, 62, 0
2, 103456, Note_on_c, 0, 71, 0
2, 103504, Note_on_c, 0, 67, 72
2, 103604, Note_on_c, 0, 59, 69
2, 103700, Note_on_c, 0, 62, 71
2, 103728, Note_on_c, 0, 67, 0
2, 103752, Note_on_c, 0, 59, 0
2, 103818, Note_on_c, 0, 62, 0
2, 103818, Note_on_c, 0, 71, 78
2, 103900, Note_on_c, 0, 71, 0
2, 103936, Note_on_c, 0, 69, 74
2, 103998, Control_c, 0, 64, 0
2, 104104, Note_on_c, 0, 59, 59
2, 104136, Control_c, 0, 64, 127
2, 104216, Note_on_c, 0, 64, 65
2, 104232, Note_on_c, 0, 59, 0
2, 104240, Note_on_c, 0, 69, 0
2, 104322, Note_on_c, 0, 72, 64
2, 104330, Note_on_c, 0, 64, 0
2, 104384, Note_on_c, 0, 72, 0
2, 104424, Note_on_c, 0, 69, 65
2, 104552, Note_on_c, 0, 59, 56
2, 104618, Note_on_c, 0, 64, 67
2, 104638, Note_on_c, 0, 69, 0
2, 104682, Note_on_c, 0, 59, 0
2, 104734, Note_on_c, 0, 72, 62
2, 104737, Note_on_c, 0, 64, 0
2, 104792, Note_on_c, 0, 72, 0
2, 104838, Note_on_c, 0, 67, 74
2, 104890, Control_c, 0, 64, 0
2, 104974, Note_on_c, 0, 59, 51
2, 105044, Control_c, 0, 64, 127
2, 105070, Note_on_c, 0, 61, 58
2, 105102, Note_on_c, 0, 67, 0
2, 105110, Note_on_c, 0, 59, 0
2, 105192, Note_on_c, 0, 70, 39
2, 105200, Note_on_c, 0, 61, 0
2, 105288, Note_on_c, 0, 70, 0
2, 105300, Note_on_c, 0, 67, 58
2, 105422, Note_on_c, 0, 59, 39
2, 105432, Note_on_c, 0, 67, 0
2, 105482, Note_on_c, 0, 59, 0
2, 105488, Note_on_c, 0, 61, 56
2, 105590, Note_on_c, 0, 61, 0
2, 105636, Note_on_c, 0, 70, 39
2, 105704, Note_on_c, 0, 70, 0
2, 105846, Note_on_c, 0, 66, 37
2, 105966, Control_c, 0, 64, 0
2, 106002, Note_on_c, 0, 59, 37
2, 106102, Note_on_c, 0, 63, 54
2, 106142, Note_on_c, 0, 59, 0
2, 106150, Control_c, 0, 64, 127
2, 106180, Note_on_c, 0, 66, 0
2, 106222, Note_on_c, 0, 71, 58
2, 106270, Note_on_c, 0, 63, 0
2, 106316, Note_on_c, 0, 71, 0
2, 106342, Note_on_c, 0, 66, 49
2, 106466, Note_on_c, 0, 59, 59
2, 106486, Note_on_c, 0, 66, 0
2, 106536, Note_on_c, 0, 59, 0
2, 106558, Note_on_c, 0, 63, 63
2, 106666, Note_on_c, 0, 71, 70
2, 106682, Note_on_c, 0, 63, 0
2, 106732, Note_on_c, 0, 71, 0
2, 106778, Note_on_c, 0, 66, 52
2, 106876, Note_on_c, 0, 59, 64
2, 106900, Note_on_c, 0, 66, 0
2, 106968, Note_on_c, 0, 59, 0
2, 106984, Note_on_c, 0, 63, 65
2, 107088, Note_on_c, 0, 71, 67
2, 107091, Note_on_c, 0, 63, 0
2, 107142, Note_on_c, 0, 71, 0
2, 107192, Note_on_c, 0, 66, 60
2, 107318, Note_on_c, 0, 66, 0
2, 107332, Note_on_c, 0, 59, 55
2, 107412, Note_on_c, 0, 63, 64
2, 107436, Note_on_c, 0, 59, 0
2, 107528, Note_on_c, 0, 71, 79
2, 107562, Note_on_c, 0, 63, 0
2, 107612, Note_on_c, 0, 71, 0
2, 107676, Note_on_c, 0, 66, 56
2, 107824, Note_on_c, 0, 59, 63
2, 107856, Control_c, 0, 64, 0
2, 107954, Note_on_c, 0, 62, 72
2, 108010, Control_c, 0, 64, 127
2, 108026, Note_on_c, 0, 66, 0
2, 108031, Note_on_c, 0, 59, 0
2, 108096, Note_on_c, 0, 71, 77
2, 108162, Note_on_c, 0, 62, 0
2, 108210, Note_on_c, 0, 66, 74
2, 108240, Note_on_c, 0, 71, 0
2, 108328, Note_on_c, 0, 59, 82
2, 108368, Note_on_c, 0, 66, 0
2, 108430, Note_on_c, 0, 62, 96
2, 108472, Note_on_c, 0, 59, 0
2, 108548, Note_on_c, 0, 71, 92
2, 108598, Note_on_c, 0, 62, 0
2, 108654, Note_on_c, 0, 66, 88
2, 108674, Note_on_c, 0, 71, 0
2, 108774, Note_on_c, 0, 59, 86
2, 108830, Note_on_c, 0, 66, 0
2, 108868, Note_on_c, 0, 62, 101
2, 108922, Note_on_c, 0, 59, 0
2, 108986, Note_on_c, 0, 71, 101
2, 109036, Note_on_c, 0, 62, 0
2, 109088, Note_on_c, 0, 66, 86
2, 109114, Note_on_c, 0, 71, 0
2, 109220, Note_on_c, 0, 59, 87
2, 109266, Note_on_c, 0, 66, 0
2, 109308, Note_on_c, 0, 59, 0
2, 109334, Note_on_c, 0, 62, 93
2, 109470, Note_on_c, 0, 71, 111
2, 109502, Note_on_c, 0, 62, 0
2, 109514, Note_on_c, 0, 71, 0
2, 109722, Note_on_c, 0, 45, 115
2, 109724, Note_on_c, 0, 33, 115
2, 109806, Control_c, 0, 64, 0
2, 109930, Note_on_c, 0, 33, 0
2, 109936, Note_on_c, 0, 52, 115
2, 109964, Note_on_c, 0, 45, 0
2, 109976, Control_c, 0, 64, 127
2, 110086, Note_on_c, 0, 55, 102
2, 110110, Note_on_c, 0, 52, 0
2, 110204, Note_on_c, 0, 60, 93
2, 110234, Note_on_c, 0, 55, 0
2, 110292, Note_on_c, 0, 60, 0
2, 110378, Note_on_c, 0, 72, 104
2, 110524, Note_on_c, 0, 67, 97
2, 110554, Note_on_c, 0, 72, 0
2, 110654, Note_on_c, 0, 72, 93
2, 110702, Note_on_c, 0, 67, 0
2, 110780, Note_on_c, 0, 72, 0
2, 110788, Note_on_c, 0, 79, 103
2, 110830, Note_on_c, 0, 79, 0
2, 110900, Note_on_c, 0, 79, 110
2, 111018, Note_on_c, 0, 72, 103
2, 111080, Note_on_c, 0, 79, 0
2, 111142, Note_on_c, 0, 79, 103
2, 111200, Note_on_c, 0, 72, 0
2, 111272, Note_on_c, 0, 84, 110
2, 111304, Note_on_c, 0, 79, 0
2, 111354, Note_on_c, 0, 84, 0
2, 111418, Note_on_c, 0, 84, 116
2, 111566, Note_on_c, 0, 79, 111
2, 111608, Note_on_c, 0, 84, 0
2, 111692, Note_on_c, 0, 84, 103
2, 111742, Note_on_c, 0, 79, 0
2, 111802, Note_on_c, 0, 50, 110
2, 111805, Control_c, 0, 64, 0
2, 111822, Note_on_c, 0, 91, 108
2, 111852, Note_on_c, 0, 84, 0
2, 111872, Note_on_c, 0, 57, 101
2, 111894, Note_on_c, 0, 50, 0
2, 111958, Note_on_c, 0, 60, 67
2, 111972, Control_c, 0, 64, 127
2, 112066, Note_on_c, 0, 57, 0
2, 112070, Note_on_c, 0, 90, 105
2, 112090, Note_on_c, 0, 66, 103
2, 112120, Note_on_c, 0, 66, 0
2, 112124, Note_on_c, 0, 60, 0
2, 112176, Note_on_c, 0, 91, 0
2, 112252, Note_on_c, 0, 88, 102
2, 112342, Note_on_c, 0, 90, 0
2, 112392, Note_on_c, 0, 86, 104
2, 112450, Note_on_c, 0, 88, 0
2, 112516, Note_on_c, 0, 84, 110
2, 112548, Note_on_c, 0, 86, 0
2, 112630, Note_on_c, 0, 83, 127
2, 112672, Note_on_c, 0, 84, 0
2, 112746, Note_on_c, 0, 81, 106
2, 112786, Note_on_c, 0, 83, 0
2, 112844, Note_on_c, 0, 79, 108
2, 112850, Note_on_c, 0, 81, 0
2, 112944, Note_on_c, 0, 78, 98
2, 112974, Note_on_c, 0, 79, 0
2, 113042, Note_on_c, 0, 76, 93
2, 113116, Note_on_c, 0, 78, 0
2, 113138, Note_on_c, 0, 74, 106
2, 113184, Note_on_c, 0, 76, 0
2, 113220, Note_on_c, 0, 72, 89
2, 113223, Note_on_c, 0, 74, 0
2, 113304, Note_on_c, 0, 71, 108
2, 113348, Note_on_c, 0, 72, 0
2, 113402, Note_on_c, 0, 69, 86
2, 113452, Note_on_c, 0, 71, 0
2, 113464, Note_on_c, 0, 67, 93
2, 113498, Note_on_c, 0, 69, 0
2, 113568, Note_on_c, 0, 66, 89
2, 113598, Note_on_c, 0, 67, 0
2, 113654, Note_on_c, 0, 64, 101
2, 113742, Note_on_c, 0, 66, 0
2, 113742, Note_on_c, 0, 62, 97
2, 113796, Note_on_c, 0, 64, 0
2, 113810, Note_on_c, 0, 60, 92
2, 113838, Note_on_c, 0, 62, 0
2, 113894, Note_on_c, 0, 59, 100
2, 113940, Note_on_c, 0, 60, 0
2, 113968, Note_on_c, 0, 57, 94
2, 114006, Note_on_c, 0, 59, 0
2, 114042, Note_on_c, 0, 55, 96
2, 114058, Note_on_c, 0, 57, 0
2, 114120, Note_on_c, 0, 54, 98
2, 114166, Note_on_c, 0, 55, 0
2, 114198, Note_on_c, 0, 52, 109
2, 114276, Note_on_c, 0, 50, 102
2, 114292, Note_on_c, 0, 54, 0
2, 114326, Note_on_c, 0, 52, 0
2, 114344, Note_on_c, 0, 48, 86
2, 114366, Note_on_c, 0, 50, 0
2, 114422, Note_on_c, 0, 47, 102
2, 114476, Note_on_c, 0, 48, 0
2, 114506, Note_on_c, 0, 45, 90
2, 114554, Note_on_c, 0, 47, 0
2, 114572, Note_on_c, 0, 45, 0
2, 114624, Note_on_c, 0, 43, 124
2, 114626, Note_on_c, 0, 31, 124
2, 114692, Control_c, 0, 64, 0
2, 114988, Note_on_c, 0, 31, 0
2, 115016, Control_c, 0, 64, 127
2, 115060, Note_on_c, 0, 43, 0
2, 115364, Note_on_c, 0, 79, 120
2, 115382, Note_on_c, 0, 47, 77
2, 115382, Note_on_c, 0, 67, 83
2, 115554, Note_on_c, 0, 47, 0
2, 115572, Note_on_c, 0, 55, 60
2, 115714, Note_on_c, 0, 47, 70
2, 115728, Note_on_c, 0, 55, 0
2, 115814, Note_on_c, 0, 47, 0
2, 115826, Note_on_c, 0, 43, 74
2, 115966, Note_on_c, 0, 48, 73
2, 116030, Control_c, 0, 64, 0
2, 116084, Note_on_c, 0, 57, 77
2, 116140, Note_on_c, 0, 48, 0
2, 116168, Control_c, 0, 64, 127
2, 116200, Note_on_c, 0, 43, 0
2, 116216, Note_on_c, 0, 48, 69
2, 116230, Note_on_c, 0, 79, 0
2, 116238, Note_on_c, 0, 57, 0
2, 116314, Note_on_c, 0, 43, 71
2, 116340, Note_on_c, 0, 48, 0
2, 116416, Note_on_c, 0, 50, 83
2, 116440, Note_on_c, 0, 74, 105
2, 116490, Control_c, 0, 64, 0
2, 116534, Note_on_c, 0, 59, 67
2, 116534, Note_on_c, 0, 57, 47
2, 116546, Note_on_c, 0, 50, 0
2, 116596, Note_on_c, 0, 57, 0
2, 116612, Note_on_c, 0, 59, 0
2, 116614, Control_c, 0, 64, 127
2, 116656, Note_on_c, 0, 43, 0
2, 116690, Note_on_c, 0, 71, 112
2, 116712, Note_on_c, 0, 50, 80
2, 116766, Note_on_c, 0, 67, 0
2, 116766, Note_on_c, 0, 74, 0
2, 116788, Note_on_c, 0, 50, 0
2, 116806, Note_on_c, 0, 43, 80
2, 116892, Note_on_c, 0, 43, 0
2, 116960, Note_on_c, 0, 69, 93
2, 116963, Note_on_c, 0, 52, 79
2, 116998, Note_on_c, 0, 71, 0
2, 116998, Control_c, 0, 64, 0
2, 117132, Note_on_c, 0, 52, 0
2, 117132, Note_on_c, 0, 60, 72
2, 117135, Control_c, 0, 64, 127
2, 117200, Note_on_c, 0, 60, 0
2, 117266, Note_on_c, 0, 52, 74
2, 117306, Note_on_c, 0, 52, 0
2, 117352, Note_on_c, 0, 69, 0
2, 117352, Note_on_c, 0, 43, 82
2, 117352, Note_on_c, 0, 67, 81
2, 117394, Note_on_c, 0, 43, 0
2, 117398, Note_on_c, 0, 67, 0
2, 117448, Note_on_c, 0, 67, 100
2, 117486, Note_on_c, 0, 54, 96
2, 117520, Control_c, 0, 64, 0
2, 117600, Note_on_c, 0, 62, 86
2, 117616, Note_on_c, 0, 54, 0
2, 117642, Control_c, 0, 64, 127
2, 117666, Note_on_c, 0, 62, 0
2, 117712, Note_on_c, 0, 54, 64
2, 117764, Note_on_c, 0, 54, 0
2, 117846, Note_on_c, 0, 43, 83
2, 117874, Note_on_c, 0, 67, 0
2, 117928, Note_on_c, 0, 43, 0
2, 117936, Note_on_c, 0, 67, 97
2, 117980, Note_on_c, 0, 52, 80
2, 117982, Control_c, 0, 64, 0
2, 118078, Note_on_c, 0, 60, 80
2, 118081, Note_on_c, 0, 52, 0
2, 118104, Control_c, 0, 64, 127
2, 118128, Note_on_c, 0, 60, 0
2, 118188, Note_on_c, 0, 52, 59
2, 118274, Note_on_c, 0, 52, 0
2, 118306, Note_on_c, 0, 43, 78
2, 118324, Note_on_c, 0, 67, 0
2, 118378, Note_on_c, 0, 43, 0
2, 118392, Note_on_c, 0, 67, 97
2, 118394, Note_on_c, 0, 50, 79
2, 118412, Control_c, 0, 64, 0
2, 118508, Note_on_c, 0, 59, 75
2, 118526, Note_on_c, 0, 50, 0
2, 118534, Control_c, 0, 64, 127
2, 118580, Note_on_c, 0, 59, 0
2, 118622, Note_on_c, 0, 50, 57
2, 118674, Note_on_c, 0, 50, 0
2, 118716, Note_on_c, 0, 43, 79
2, 118756, Note_on_c, 0, 67, 0
2, 118834, Note_on_c, 0, 48, 59
2, 118834, Note_on_c, 0, 64, 116
2, 118844, Note_on_c, 0, 43, 0
2, 118872, Control_c, 0, 64, 0
2, 118938, Note_on_c, 0, 57, 66
2, 118956, Note_on_c, 0, 48, 0
2, 119044, Note_on_c, 0, 48, 52
2, 119044, Control_c, 0, 64, 127
2, 119070, Note_on_c, 0, 57, 0
2, 119174, Note_on_c, 0, 43, 77
2, 119180, Note_on_c, 0, 48, 0
2, 119308, Note_on_c, 0, 47, 80
2, 119332, Control_c, 0, 64, 0
2, 119418, Note_on_c, 0, 55, 82
2, 119440, Note_on_c, 0, 47, 0
2, 119452, Note_on_c, 0, 43, 0
2, 119472, Control_c, 0, 64, 127
2, 119534, Note_on_c, 0, 47, 62
2, 119564, Note_on_c, 0, 55, 0
2, 119652, Note_on_c, 0, 43, 93
2, 119655, Note_on_c, 0, 47, 0
2, 119784, Note_on_c, 0, 64, 0
2, 119810, Note_on_c, 0, 66, 101
2, 119820, Note_on_c, 0, 45, 69
2, 119856, Control_c, 0, 64, 0
2, 119972, Note_on_c, 0, 43, 0
2, 119986, Note_on_c, 0, 54, 83
2, 119994, Note_on_c, 0, 67, 93
2, 120000, Note_on_c, 0, 45, 0
2, 120020, Note_on_c, 0, 66, 0
2, 120023, Control_c, 0, 64, 127
2, 120084, Note_on_c, 0, 67, 0
2, 120092, Note_on_c, 0, 66, 67
2, 120095, Note_on_c, 0, 45, 40
2, 120114, Note_on_c, 0, 54, 0
2, 120172, Note_on_c, 0, 67, 90
2, 120204, Note_on_c, 0, 66, 0
2, 120210, Note_on_c, 0, 43, 72
2, 120220, Note_on_c, 0, 45, 0
2, 120224, Note_on_c, 0, 67, 0
2, 120260, Note_on_c, 0, 66, 80
2, 120284, Note_on_c, 0, 45, 73
2, 120318, Note_on_c, 0, 43, 0
2, 120326, Note_on_c, 0, 66, 0
2, 120348, Note_on_c, 0, 67, 62
2, 120392, Note_on_c, 0, 66, 72
2, 120402, Note_on_c, 0, 67, 0
2, 120418, Note_on_c, 0, 45, 0
2, 120418, Note_on_c, 0, 54, 79
2, 120462, Note_on_c, 0, 67, 87
2, 120486, Note_on_c, 0, 66, 0
2, 120496, Note_on_c, 0, 45, 39
2, 120520, Note_on_c, 0, 54, 0
2, 120546, Note_on_c, 0, 66, 82
2, 120582, Note_on_c, 0, 67, 0
2, 120596, Note_on_c, 0, 43, 78
2, 120620, Note_on_c, 0, 45, 0
2, 120636, Note_on_c, 0, 64, 97
2, 120646, Note_on_c, 0, 66, 0
2, 120690, Note_on_c, 0, 45, 56
2, 120724, Note_on_c, 0, 66, 74
2, 120778, Note_on_c, 0, 64, 0
2, 120886, Note_on_c, 0, 67, 104
2, 120889, Note_on_c, 0, 54, 42
2, 120930, Note_on_c, 0, 45, 0
2, 120932, Control_c, 0, 64, 0
2, 120938, Note_on_c, 0, 66, 0
2, 120962, Note_on_c, 0, 54, 0
2, 120982, Note_on_c, 0, 47, 71
2, 121126, Note_on_c, 0, 47, 0
2, 121138, Note_on_c, 0, 55, 81
2, 121176, Control_c, 0, 64, 127
2, 121214, Note_on_c, 0, 43, 0
2, 121244, Note_on_c, 0, 47, 44
2, 121262, Note_on_c, 0, 55, 0
2, 121362, Note_on_c, 0, 43, 72
2, 121364, Note_on_c, 0, 47, 0
2, 121452, Note_on_c, 0, 47, 54
2, 121536, Note_on_c, 0, 43, 0
2, 121568, Note_on_c, 0, 47, 0
2, 121568, Note_on_c, 0, 55, 66
2, 121652, Note_on_c, 0, 55, 0
2, 121674, Note_on_c, 0, 47, 49
2, 121776, Note_on_c, 0, 47, 0
2, 121788, Note_on_c, 0, 43, 75
2, 121900, Note_on_c, 0, 47, 56
2, 121924, Note_on_c, 0, 43, 0
2, 121986, Note_on_c, 0, 47, 0
2, 122000, Note_on_c, 0, 55, 74
2, 122036, Note_on_c, 0, 67, 0
2, 122104, Note_on_c, 0, 47, 46
2, 122128, Note_on_c, 0, 55, 0
2, 122176, Note_on_c, 0, 47, 0
2, 122184, Note_on_c, 0, 43, 78
2, 122228, Note_on_c, 0, 43, 0
2, 122316, Note_on_c, 0, 67, 75
2, 122322, Note_on_c, 0, 53, 125
2, 122324, Note_on_c, 0, 41, 106
2, 122444, Note_on_c, 0, 71, 74
2, 122448, Note_on_c, 0, 67, 0
2, 122540, Note_on_c, 0, 67, 51
2, 122612, Note_on_c, 0, 71, 0
2, 122658, Note_on_c, 0, 62, 72
2, 122676, Note_on_c, 0, 67, 0
2, 122710, Note_on_c, 0, 53, 0
2, 122712, Note_on_c, 0, 41, 0
2, 122770, Note_on_c, 0, 67, 67
2, 122778, Note_on_c, 0, 52, 116
2, 122782, Note_on_c, 0, 40, 112
2, 122836, Control_c, 0, 64, 0
2, 122838, Note_on_c, 0, 62, 0
2, 122884, Note_on_c, 0, 72, 75
2, 122914, Note_on_c, 0, 67, 0
2, 122982, Note_on_c, 0, 67, 77
2, 123060, Note_on_c, 0, 72, 0
2, 123066, Control_c, 0, 64, 127
2, 123106, Note_on_c, 0, 60, 82
2, 123138, Note_on_c, 0, 67, 0
2, 123224, Note_on_c, 0, 67, 65
2, 123232, Note_on_c, 0, 60, 0
2, 123334, Note_on_c, 0, 72, 79
2, 123342, Note_on_c, 0, 67, 0
2, 123430, Note_on_c, 0, 67, 69
2, 123454, Note_on_c, 0, 72, 0
2, 123522, Note_on_c, 0, 52, 0
2, 123532, Note_on_c, 0, 60, 83
2, 123572, Note_on_c, 0, 67, 0
2, 123584, Note_on_c, 0, 60, 0
2, 123704, Note_on_c, 0, 71, 110
2, 123704, Note_on_c, 0, 50, 104
2, 123707, Note_on_c, 0, 40, 0
2, 123712, Note_on_c, 0, 38, 95
2, 123834, Note_on_c, 0, 77, 83
2, 123868, Note_on_c, 0, 71, 0
2, 123934, Note_on_c, 0, 71, 86
2, 124010, Note_on_c, 0, 77, 0
2, 124040, Note_on_c, 0, 65, 86
2, 124066, Control_c, 0, 64, 0
2, 124069, Note_on_c, 0, 71, 0
2, 124162, Note_on_c, 0, 71, 82
2, 124234, Control_c, 0, 64, 127
2, 124236, Note_on_c, 0, 65, 0
2, 124262, Note_on_c, 0, 77, 81
2, 124292, Note_on_c, 0, 71, 0
2, 124364, Note_on_c, 0, 71, 83
2, 124412, Note_on_c, 0, 77, 0
2, 124444, Note_on_c, 0, 50, 0
2, 124468, Note_on_c, 0, 65, 81
2, 124522, Note_on_c, 0, 71, 0
2, 124550, Note_on_c, 0, 38, 0
2, 124552, Note_on_c, 0, 48, 94
2, 124554, Note_on_c, 0, 36, 101
2, 124574, Note_on_c, 0, 72, 89
2, 124604, Control_c, 0, 64, 0
2, 124618, Note_on_c, 0, 65, 0
2, 124672, Note_on_c, 0, 76, 82
2, 124708, Note_on_c, 0, 72, 0
2, 124768, Note_on_c, 0, 72, 87
2, 124854, Note_on_c, 0, 76, 0
2, 124872, Note_on_c, 0, 67, 77
2, 124880, Control_c, 0, 64, 127
2, 124908, Note_on_c, 0, 72, 0
2, 124988, Note_on_c, 0, 72, 67
2, 125062, Note_on_c, 0, 67, 0
2, 125116, Note_on_c, 0, 76, 80
2, 125144, Note_on_c, 0, 72, 0
2, 125208, Note_on_c, 0, 72, 82
2, 125286, Note_on_c, 0, 76, 0
2, 125304, Note_on_c, 0, 36, 0
2, 125318, Note_on_c, 0, 67, 70
2, 125346, Note_on_c, 0, 72, 0
2, 125400, Note_on_c, 0, 48, 0
2, 125424, Note_on_c, 0, 72, 78
2, 125502, Note_on_c, 0, 67, 0
2, 125546, Note_on_c, 0, 76, 86
2, 125562, Note_on_c, 0, 72, 0
2, 125644, Note_on_c, 0, 72, 48
2, 125704, Note_on_c, 0, 76, 0
2, 125736, Note_on_c, 0, 67, 83
2, 125746, Note_on_c, 0, 72, 0
2, 125852, Note_on_c, 0, 60, 105
2, 125852, Note_on_c, 0, 48, 89
2, 125870, Note_on_c, 0, 67, 0
2, 125873, Note_on_c, 0, 74, 102
2, 125944, Note_on_c, 0, 78, 82
2, 125972, Note_on_c, 0, 74, 0
2, 126002, Control_c, 0, 64, 0
2, 126068, Note_on_c, 0, 74, 69
2, 126140, Control_c, 0, 64, 127
2, 126154, Note_on_c, 0, 78, 0
2, 126160, Note_on_c, 0, 69, 85
2, 126184, Note_on_c, 0, 74, 0
2, 126204, Note_on_c, 0, 60, 0
2, 126212, Note_on_c, 0, 48, 0
2, 126266, Note_on_c, 0, 59, 109
2, 126269, Note_on_c, 0, 47, 105
2, 126274, Note_on_c, 0, 74, 96
2, 126390, Note_on_c, 0, 79, 105
2, 126414, Note_on_c, 0, 74, 0
2, 126414, Note_on_c, 0, 69, 0
2, 126417, Control_c, 0, 64, 0
2, 126496, Note_on_c, 0, 74, 83
2, 126580, Note_on_c, 0, 79, 0
2, 126598, Note_on_c, 0, 67, 96
2, 126601, Control_c, 0, 64, 127
2, 126624, Note_on_c, 0, 74, 0
2, 126712, Note_on_c, 0, 74, 89
2, 126738, Note_on_c, 0, 67, 0
2, 126818, Note_on_c, 0, 79, 101
2, 126836, Note_on_c, 0, 74, 0
2, 126902, Note_on_c, 0, 74, 80
2, 126974, Note_on_c, 0, 79, 0
2, 126996, Note_on_c, 0, 67, 88
2, 127012, Note_on_c, 0, 59, 0
2, 127030, Note_on_c, 0, 74, 0
2, 127030, Note_on_c, 0, 47, 0
2, 127038, Note_on_c, 0, 67, 0
2, 127126, Note_on_c, 0, 57, 106
2, 127130, Note_on_c, 0, 45, 102
2, 127132, Note_on_c, 0, 78, 105
2, 127232, Control_c, 0, 64, 0
2, 127258, Note_on_c, 0, 84, 108
2, 127288, Note_on_c, 0, 78, 0
2, 127346, Note_on_c, 0, 78, 83
2, 127434, Note_on_c, 0, 84, 0
2, 127446, Control_c, 0, 64, 127
2, 127450, Note_on_c, 0, 72, 93
2, 127488, Note_on_c, 0, 78, 0
2, 127577, Note_on_c, 0, 78, 81
2, 127610, Note_on_c, 0, 72, 0
2, 127684, Note_on_c, 0, 84, 101
2, 127704, Note_on_c, 0, 78, 0
2, 127778, Note_on_c, 0, 78, 72
2, 127842, Note_on_c, 0, 84, 0
2, 127852, Note_on_c, 0, 57, 0
2, 127862, Note_on_c, 0, 45, 0
2, 127866, Note_on_c, 0, 72, 95
2, 127902, Note_on_c, 0, 78, 0
2, 127970, Note_on_c, 0, 78, 98
2, 127973, Note_on_c, 0, 55, 109
2, 127973, Note_on_c, 0, 43, 102
2, 127980, Note_on_c, 0, 72, 0
2, 128000, Control_c, 0, 64, 0
2, 128100, Note_on_c, 0, 83, 118
2, 128134, Note_on_c, 0, 78, 0
2, 128196, Control_c, 0, 64, 127
2, 128198, Note_on_c, 0, 78, 86
2, 128268, Note_on_c, 0, 83, 0
2, 128292, Note_on_c, 0, 71, 101
2, 128336, Note_on_c, 0, 78, 0
2, 128404, Note_on_c, 0, 78, 87
2, 128460, Note_on_c, 0, 71, 0
2, 128528, Note_on_c, 0, 83, 113
2, 128556, Note_on_c, 0, 78, 0
2, 128612, Note_on_c, 0, 78, 89
2, 128676, Note_on_c, 0, 83, 0
2, 128724, Note_on_c, 0, 71, 102
2, 128770, Note_on_c, 0, 78, 0
2, 128862, Note_on_c, 0, 76, 103
2, 128890, Control_c, 0, 64, 0
2, 128978, Note_on_c, 0, 83, 118
2, 128990, Note_on_c, 0, 43, 0
2, 129002, Note_on_c, 0, 76, 0
2, 129012, Control_c, 0, 64, 127
2, 129034, Note_on_c, 0, 55, 0
2, 129058, Note_on_c, 0, 71, 0
2, 129102, Note_on_c, 0, 76, 57
2, 129148, Note_on_c, 0, 83, 0
2, 129196, Note_on_c, 0, 71, 103
2, 129212, Note_on_c, 0, 76, 0
2, 129298, Note_on_c, 0, 67, 112
2, 129298, Note_on_c, 0, 76, 81
2, 129306, Note_on_c, 0, 55, 102
2, 129370, Note_on_c, 0, 71, 0
2, 129396, Note_on_c, 0, 83, 120
2, 129424, Note_on_c, 0, 76, 0
2, 129508, Note_on_c, 0, 76, 73
2, 129560, Note_on_c, 0, 83, 0
2, 129608, Note_on_c, 0, 55, 0
2, 129611, Note_on_c, 0, 71, 103
2, 129620, Note_on_c, 0, 67, 0
2, 129638, Note_on_c, 0, 76, 0
2, 129718, Note_on_c, 0, 66, 112
2, 129718, Note_on_c, 0, 76, 87
2, 129726, Note_on_c, 0, 54, 118
2, 129766, Control_c, 0, 64, 0
2, 129786, Note_on_c, 0, 71, 0
2, 129836, Note_on_c, 0, 81, 97
2, 129870, Note_on_c, 0, 76, 0
2, 129942, Note_on_c, 0, 76, 77
2, 129966, Control_c, 0, 64, 127
2, 130018, Note_on_c, 0, 81, 0
2, 130052, Note_on_c, 0, 69, 89
2, 130096, Note_on_c, 0, 76, 0
2, 130172, Note_on_c, 0, 76, 83
2, 130234, Note_on_c, 0, 69, 0
2, 130286, Note_on_c, 0, 81, 96
2, 130322, Note_on_c, 0, 76, 0
2, 130376, Note_on_c, 0, 76, 97
2, 130379, Note_on_c, 0, 66, 0
2, 130436, Note_on_c, 0, 81, 0
2, 130468, Note_on_c, 0, 69, 83
2, 130524, Note_on_c, 0, 76, 0
2, 130558, Note_on_c, 0, 54, 0
2, 130588, Note_on_c, 0, 74, 108
2, 130690, Note_on_c, 0, 81, 92
2, 130696, Note_on_c, 0, 69, 0
2, 130704, Note_on_c, 0, 74, 0
2, 130790, Note_on_c, 0, 74, 83
2, 130838, Note_on_c, 0, 81, 0
2, 130880, Note_on_c, 0, 69, 74
2, 130914, Note_on_c, 0, 74, 0
2, 130968, Note_on_c, 0, 54, 112
2, 130974, Note_on_c, 0, 42, 100
2, 130990, Note_on_c, 0, 74, 86
2, 131056, Note_on_c, 0, 69, 0
2, 131082, Note_on_c, 0, 81, 92
2, 131100, Note_on_c, 0, 74, 0
2, 131190, Note_on_c, 0, 74, 73
2, 131248, Note_on_c, 0, 81, 0
2, 131288, Note_on_c, 0, 69, 82
2, 131336, Note_on_c, 0, 74, 0
2, 131340, Note_on_c, 0, 54, 0
2, 131400, Note_on_c, 0, 42, 0
2, 131436, Note_on_c, 0, 52, 120
2, 131442, Note_on_c, 0, 40, 115
2, 131444, Note_on_c, 0, 74, 95
2, 131472, Control_c, 0, 64, 0
2, 131578, Note_on_c, 0, 79, 102
2, 131602, Note_on_c, 0, 74, 0
2, 131634, Note_on_c, 0, 40, 0
2, 131666, Note_on_c, 0, 69, 0
2, 131668, Note_on_c, 0, 74, 90
2, 131672, Control_c, 0, 64, 127
2, 131692, Note_on_c, 0, 52, 0
2, 131746, Note_on_c, 0, 79, 0
2, 131792, Note_on_c, 0, 67, 95
2, 131864, Note_on_c, 0, 74, 0
2, 131892, Note_on_c, 0, 64, 113
2, 131898, Note_on_c, 0, 52, 106
2, 131906, Note_on_c, 0, 72, 96
2, 131998, Note_on_c, 0, 67, 0
2, 132008, Control_c, 0, 64, 0
2, 132013, Note_on_c, 0, 79, 101
2, 132050, Note_on_c, 0, 72, 0
2, 132136, Note_on_c, 0, 72, 72
2, 132164, Control_c, 0, 64, 127
2, 132202, Note_on_c, 0, 79, 0
2, 132238, Note_on_c, 0, 67, 83
2, 132242, Note_on_c, 0, 64, 0
2, 132258, Note_on_c, 0, 52, 0
2, 132270, Note_on_c, 0, 72, 0
2, 132332, Control_c, 0, 64, 0
2, 132346, Note_on_c, 0, 72, 80
2, 132349, Note_on_c, 0, 62, 105
2, 132353, Note_on_c, 0, 50, 105
2, 132384, Note_on_c, 0, 67, 0
2, 132464, Note_on_c, 0, 78, 89
2, 132486, Control_c, 0, 64, 127
2, 132500, Note_on_c, 0, 72, 0
2, 132558, Note_on_c, 0, 62, 0
2, 132570, Note_on_c, 0, 72, 69
2, 132630, Note_on_c, 0, 78, 0
2, 132632, Note_on_c, 0, 50, 0
2, 132674, Note_on_c, 0, 66, 78
2, 132722, Note_on_c, 0, 72, 0
2, 132772, Note_on_c, 0, 50, 112
2, 132775, Note_on_c, 0, 38, 103
2, 132788, Note_on_c, 0, 71, 97
2, 132842, Note_on_c, 0, 66, 0
2, 132852, Note_on_c, 0, 78, 90
2, 132914, Note_on_c, 0, 71, 0
2, 132978, Note_on_c, 0, 71, 102
2, 133030, Note_on_c, 0, 78, 0
2, 133048, Note_on_c, 0, 66, 77
2, 133084, Note_on_c, 0, 50, 0
2, 133086, Note_on_c, 0, 71, 0
2, 133120, Note_on_c, 0, 38, 0
2, 133156, Note_on_c, 0, 66, 0
2, 133168, Note_on_c, 0, 71, 93
2, 133192, Control_c, 0, 64, 0
2, 133194, Note_on_c, 0, 48, 103
2, 133196, Note_on_c, 0, 36, 111
2, 133272, Note_on_c, 0, 76, 89
2, 133286, Note_on_c, 0, 36, 0
2, 133312, Note_on_c, 0, 71, 0
2, 133330, Control_c, 0, 64, 127
2, 133346, Note_on_c, 0, 48, 0
2, 133370, Note_on_c, 0, 71, 97
2, 133442, Note_on_c, 0, 76, 0
2, 133482, Note_on_c, 0, 64, 93
2, 133530, Note_on_c, 0, 71, 0
2, 133570, Note_on_c, 0, 60, 111
2, 133575, Note_on_c, 0, 48, 96
2, 133584, Note_on_c, 0, 69, 94
2, 133624, Note_on_c, 0, 64, 0
2, 133682, Note_on_c, 0, 76, 81
2, 133704, Note_on_c, 0, 69, 0
2, 133786, Note_on_c, 0, 69, 62
2, 133846, Note_on_c, 0, 76, 0
2, 133880, Note_on_c, 0, 64, 95
2, 133910, Note_on_c, 0, 60, 0
2, 133922, Note_on_c, 0, 69, 0
2, 133944, Note_on_c, 0, 48, 0
2, 133992, Control_c, 0, 64, 0
2, 133992, Note_on_c, 0, 59, 105
2, 133995, Note_on_c, 0, 69, 89
2, 134000, Note_on_c, 0, 47, 102
2, 134026, Note_on_c, 0, 64, 0
2, 134110, Note_on_c, 0, 74, 103
2, 134134, Note_on_c, 0, 69, 0
2, 134160, Control_c, 0, 64, 127
2, 134170, Note_on_c, 0, 59, 0
2, 134198, Note_on_c, 0, 69, 70
2, 134242, Note_on_c, 0, 47, 0
2, 134276, Note_on_c, 0, 74, 0
2, 134308, Note_on_c, 0, 62, 97
2, 134372, Note_on_c, 0, 69, 0
2, 134406, Note_on_c, 0, 47, 101
2, 134416, Note_on_c, 0, 35, 109
2, 134419, Note_on_c, 0, 67, 100
2, 134474, Note_on_c, 0, 62, 0
2, 134510, Note_on_c, 0, 74, 96
2, 134550, Note_on_c, 0, 67, 0
2, 134608, Note_on_c, 0, 67, 88
2, 134662, Note_on_c, 0, 74, 0
2, 134692, Note_on_c, 0, 47, 0
2, 134700, Note_on_c, 0, 62, 93
2, 134726, Note_on_c, 0, 35, 0
2, 134734, Note_on_c, 0, 67, 0
2, 134806, Control_c, 0, 64, 0
2, 134814, Note_on_c, 0, 67, 93
2, 134816, Note_on_c, 0, 45, 106
2, 134824, Note_on_c, 0, 33, 112
2, 134858, Note_on_c, 0, 62, 0
2, 134922, Note_on_c, 0, 72, 97
2, 134930, Note_on_c, 0, 33, 0
2, 134948, Note_on_c, 0, 67, 0
2, 134976, Control_c, 0, 64, 127
2, 134982, Note_on_c, 0, 45, 0
2, 135006, Note_on_c, 0, 67, 88
2, 135086, Note_on_c, 0, 72, 0
2, 135096, Note_on_c, 0, 60, 102
2, 135156, Note_on_c, 0, 67, 0
2, 135206, Note_on_c, 0, 66, 92
2, 135209, Note_on_c, 0, 57, 106
2, 135216, Note_on_c, 0, 45, 97
2, 135264, Note_on_c, 0, 60, 0
2, 135296, Note_on_c, 0, 72, 86
2, 135308, Note_on_c, 0, 57, 0
2, 135338, Note_on_c, 0, 66, 0
2, 135390, Note_on_c, 0, 45, 0
2, 135394, Note_on_c, 0, 66, 83
2, 135446, Note_on_c, 0, 72, 0
2, 135484, Note_on_c, 0, 60, 93
2, 135564, Note_on_c, 0, 66, 0
2, 135582, Note_on_c, 0, 47, 111
2, 135588, Note_on_c, 0, 35, 116
2, 135604, Note_on_c, 0, 67, 95
2, 135666, Control_c, 0, 64, 0
2, 135676, Note_on_c, 0, 60, 0
2, 135694, Note_on_c, 0, 71, 100
2, 135746, Note_on_c, 0, 67, 0
2, 135800, Note_on_c, 0, 67, 97
2, 135836, Control_c, 0, 64, 127
2, 135874, Note_on_c, 0, 71, 0
2, 135882, Note_on_c, 0, 35, 0
2, 135890, Note_on_c, 0, 62, 90
2, 135906, Note_on_c, 0, 47, 0
2, 135940, Note_on_c, 0, 67, 0
2, 135982, Note_on_c, 0, 48, 110
2, 135990, Note_on_c, 0, 36, 108
2, 136000, Note_on_c, 0, 67, 90
2, 136044, Note_on_c, 0, 62, 0
2, 136050, Control_c, 0, 64, 0
2, 136104, Note_on_c, 0, 71, 95
2, 136138, Note_on_c, 0, 67, 0
2, 136210, Note_on_c, 0, 67, 75
2, 136234, Control_c, 0, 64, 127
2, 136280, Note_on_c, 0, 71, 0
2, 136322, Note_on_c, 0, 64, 92
2, 136336, Note_on_c, 0, 36, 0
2, 136356, Note_on_c, 0, 67, 0
2, 136362, Note_on_c, 0, 48, 0
2, 136474, Note_on_c, 0, 67, 87
2, 136476, Note_on_c, 0, 50, 109
2, 136478, Note_on_c, 0, 38, 102
2, 136542, Control_c, 0, 64, 0
2, 136550, Note_on_c, 0, 64, 0
2, 136614, Note_on_c, 0, 69, 58
2, 136666, Note_on_c, 0, 67, 0
2, 136754, Note_on_c, 0, 67, 65
2, 136818, Control_c, 0, 64, 127
2, 136890, Note_on_c, 0, 57, 81
2, 136894, Note_on_c, 0, 69, 0
2, 136908, Note_on_c, 0, 67, 0
2, 137038, Note_on_c, 0, 67, 67
2, 137096, Control_c, 0, 64, 0
2, 137168, Note_on_c, 0, 69, 73
2, 137171, Note_on_c, 0, 67, 0
2, 137226, Note_on_c, 0, 57, 0
2, 137248, Control_c, 0, 64, 127
2, 137278, Note_on_c, 0, 67, 67
2, 137330, Note_on_c, 0, 69, 0
2, 137402, Note_on_c, 0, 59, 79
2, 137408, Note_on_c, 0, 67, 0
2, 137494, Control_c, 0, 64, 0
2, 137540, Note_on_c, 0, 67, 67
2, 137646, Note_on_c, 0, 69, 64
2, 137676, Note_on_c, 0, 67, 0
2, 137694, Control_c, 0, 64, 127
2, 137734, Note_on_c, 0, 59, 0
2, 137766, Note_on_c, 0, 67, 49
2, 137838, Note_on_c, 0, 69, 0
2, 137916, Note_on_c, 0, 60, 60
2, 137938, Note_on_c, 0, 67, 0
2, 138032, Control_c, 0, 64, 0
2, 138102, Note_on_c, 0, 66, 54
2, 138242, Note_on_c, 0, 69, 42
2, 138248, Control_c, 0, 64, 127
2, 138260, Note_on_c, 0, 66, 0
2, 138350, Note_on_c, 0, 60, 0
2, 138374, Note_on_c, 0, 50, 0
2, 138420, Note_on_c, 0, 66, 40
2, 138476, Note_on_c, 0, 69, 0
2, 138500, Note_on_c, 0, 38, 0
2, 138598, Note_on_c, 0, 60, 63
2, 138626, Note_on_c, 0, 66, 0
2, 138848, Note_on_c, 0, 62, 59
2, 138858, Note_on_c, 0, 43, 50
2, 138866, Note_on_c, 0, 31, 59
2, 138892, Control_c, 0, 64, 0
2, 138940, Note_on_c, 0, 60, 0
2, 139058, Note_on_c, 0, 67, 50
2, 139072, Note_on_c, 0, 62, 0
2, 139194, Note_on_c, 0, 62, 40
2, 139222, Note_on_c, 0, 67, 0
2, 139312, Note_on_c, 0, 62, 0
2, 139334, Note_on_c, 0, 59, 49
2, 139368, Control_c, 0, 64, 127
2, 139422, Note_on_c, 0, 59, 0
2, 139490, Note_on_c, 0, 62, 49
2, 139556, Note_on_c, 0, 62, 0
2, 139602, Note_on_c, 0, 67, 49
2, 139690, Note_on_c, 0, 67, 0
2, 139736, Note_on_c, 0, 62, 40
2, 139802, Note_on_c, 0, 62, 0
2, 139836, Note_on_c, 0, 59, 41
2, 139910, Note_on_c, 0, 59, 0
2, 139984, Note_on_c, 0, 62, 46
2, 140036, Note_on_c, 0, 31, 0
2, 140039, Note_on_c, 0, 62, 0
2, 140082, Note_on_c, 0, 67, 40
2, 140142, Note_on_c, 0, 43, 0
2, 140168, Note_on_c, 0, 67, 0
2, 140230, Note_on_c, 0, 62, 33
2, 140292, Note_on_c, 0, 62, 0
2, 140314, Note_on_c, 0, 59, 39
2, 140396, Note_on_c, 0, 59, 0
2, 140454, Note_on_c, 0, 62, 31
2, 140518, Note_on_c, 0, 62, 0
2, 140576, Note_on_c, 0, 67, 28
2, 140698, Note_on_c, 0, 67, 0
2, 140738, Note_on_c, 0, 62, 25
2, 140808, Note_on_c, 0, 62, 0
2, 140838, Note_on_c, 0, 59, 43
2, 141036, Note_on_c, 0, 59, 0
2, 141106, Note_on_c, 0, 60, 36
2, 141136, Note_on_c, 0, 76, 73
2, 141336, Note_on_c, 0, 60, 0
2, 141368, Note_on_c, 0, 67, 37
2, 141412, Control_c, 0, 64, 0
2, 141526, Note_on_c, 0, 60, 36
2, 141580, Note_on_c, 0, 67, 0
2, 141598, Note_on_c, 0, 60, 0
2, 141628, Control_c, 0, 64, 127
2, 141638, Note_on_c, 0, 59, 33
2, 141716, Note_on_c, 0, 59, 0
2, 141780, Note_on_c, 0, 60, 39
2, 141858, Note_on_c, 0, 60, 0
2, 141860, Note_on_c, 0, 76, 0
2, 141900, Note_on_c, 0, 67, 41
2, 142012, Note_on_c, 0, 67, 0
2, 142042, Note_on_c, 0, 60, 33
2, 142110, Note_on_c, 0, 60, 0
2, 142132, Note_on_c, 0, 59, 43
2, 142198, Note_on_c, 0, 59, 0
2, 142200, Note_on_c, 0, 76, 70
2, 142236, Note_on_c, 0, 60, 26
2, 142242, Control_c, 0, 64, 0
2, 142318, Note_on_c, 0, 60, 0
2, 142366, Note_on_c, 0, 67, 41
2, 142442, Control_c, 0, 64, 127
2, 142448, Note_on_c, 0, 67, 0
2, 142480, Note_on_c, 0, 60, 18
2, 142554, Note_on_c, 0, 60, 0
2, 142582, Note_on_c, 0, 59, 39
2, 142656, Note_on_c, 0, 59, 0
2, 142682, Note_on_c, 0, 76, 0
2, 142714, Note_on_c, 0, 60, 37
2, 142780, Note_on_c, 0, 60, 0
2, 142816, Note_on_c, 0, 67, 46
2, 142910, Note_on_c, 0, 67, 0
2, 142940, Note_on_c, 0, 76, 67
2, 142960, Note_on_c, 0, 60, 44
2, 142980, Control_c, 0, 64, 0
2, 143042, Note_on_c, 0, 60, 0
2, 143100, Note_on_c, 0, 59, 29
2, 143103, Control_c, 0, 64, 127
2, 143176, Note_on_c, 0, 59, 0
2, 143220, Note_on_c, 0, 60, 42
2, 143250, Note_on_c, 0, 69, 42
2, 143256, Note_on_c, 0, 76, 0
2, 143256, Control_c, 0, 64, 0
2, 143326, Note_on_c, 0, 60, 0
2, 143380, Note_on_c, 0, 67, 29
2, 143410, Control_c, 0, 64, 127
2, 143424, Note_on_c, 0, 69, 0
2, 143478, Note_on_c, 0, 67, 0
2, 143504, Note_on_c, 0, 60, 20
2, 143580, Note_on_c, 0, 60, 0
2, 143598, Note_on_c, 0, 57, 25
2, 143688, Note_on_c, 0, 57, 0
2, 143706, Note_on_c, 0, 60, 27
2, 143708, Note_on_c, 0, 50, 60
2, 143796, Note_on_c, 0, 60, 0
2, 143856, Note_on_c, 0, 67, 34
2, 143972, Note_on_c, 0, 67, 0
2, 143990, Note_on_c, 0, 60, 29
2, 144058, Note_on_c, 0, 60, 0
2, 144082, Note_on_c, 0, 57, 36
2, 144176, Note_on_c, 0, 57, 0
2, 144240, Note_on_c, 0, 60, 43
2, 144246, Note_on_c, 0, 43, 40
2, 144316, Note_on_c, 0, 60, 0
2, 144352, Note_on_c, 0, 50, 0
2, 144362, Note_on_c, 0, 66, 36
2, 144440, Control_c, 0, 64, 0
2, 144494, Note_on_c, 0, 60, 40
2, 144536, Note_on_c, 0, 43, 0
2, 144560, Note_on_c, 0, 60, 0
2, 144563, Note_on_c, 0, 66, 0
2, 144563, Control_c, 0, 64, 127
2, 144582, Note_on_c, 0, 57, 37
2, 144702, Note_on_c, 0, 57, 0
2, 144704, Note_on_c, 0, 60, 27
2, 144776, Note_on_c, 0, 60, 0
2, 144824, Note_on_c, 0, 66, 25
2, 144908, Note_on_c, 0, 66, 0
2, 144920, Note_on_c, 0, 69, 57
2, 144944, Note_on_c, 0, 60, 23
2, 145006, Note_on_c, 0, 71, 58
2, 145018, Note_on_c, 0, 60, 0
2, 145028, Note_on_c, 0, 57, 37
2, 145082, Note_on_c, 0, 72, 75
2, 145092, Note_on_c, 0, 69, 0
2, 145126, Note_on_c, 0, 57, 0
2, 145170, Note_on_c, 0, 59, 49
2, 145180, Note_on_c, 0, 71, 0
2, 145198, Note_on_c, 0, 74, 94
2, 145284, Control_c, 0, 64, 0
2, 145286, Note_on_c, 0, 72, 0
2, 145294, Note_on_c, 0, 59, 0
2, 145342, Note_on_c, 0, 66, 33
2, 145450, Note_on_c, 0, 59, 41
2, 145468, Control_c, 0, 64, 127
2, 145500, Note_on_c, 0, 66, 0
2, 145516, Note_on_c, 0, 59, 0
2, 145542, Note_on_c, 0, 57, 39
2, 145628, Note_on_c, 0, 57, 0
2, 145670, Note_on_c, 0, 59, 36
2, 145740, Note_on_c, 0, 59, 0
2, 145766, Note_on_c, 0, 66, 46
2, 145916, Note_on_c, 0, 66, 0
2, 145924, Note_on_c, 0, 59, 41
2, 145940, Note_on_c, 0, 74, 0
2, 145990, Note_on_c, 0, 59, 0
2, 146016, Note_on_c, 0, 57, 34
2, 146112, Note_on_c, 0, 57, 0
2, 146184, Note_on_c, 0, 59, 36
2, 146202, Note_on_c, 0, 74, 63
2, 146282, Note_on_c, 0, 59, 0
2, 146314, Control_c, 0, 64, 0
2, 146330, Note_on_c, 0, 66, 36
2, 146452, Control_c, 0, 64, 127
2, 146474, Note_on_c, 0, 59, 26
2, 146494, Note_on_c, 0, 66, 0
2, 146550, Note_on_c, 0, 59, 0
2, 146568, Note_on_c, 0, 74, 0
2, 146576, Note_on_c, 0, 57, 25
2, 146668, Note_on_c, 0, 57, 0
2, 146690, Note_on_c, 0, 59, 31
2, 146770, Note_on_c, 0, 59, 0
2, 146814, Note_on_c, 0, 66, 33
2, 146920, Note_on_c, 0, 66, 0
2, 146952, Note_on_c, 0, 59, 40
2, 146952, Note_on_c, 0, 74, 57
2, 147028, Note_on_c, 0, 59, 0
2, 147084, Note_on_c, 0, 57, 28
2, 147282, Note_on_c, 0, 57, 0
2, 147288, Note_on_c, 0, 59, 50
2, 147312, Control_c, 0, 64, 0
2, 147314, Note_on_c, 0, 67, 40
2, 147338, Note_on_c, 0, 74, 0
2, 147408, Note_on_c, 0, 59, 0
2, 147442, Note_on_c, 0, 66, 36
2, 147450, Control_c, 0, 64, 127
2, 147498, Note_on_c, 0, 67, 0
2, 147578, Note_on_c, 0, 66, 0
2, 147704, Note_on_c, 0, 55, 32
2, 147792, Note_on_c, 0, 55, 0
2, 147812, Note_on_c, 0, 50, 46
2, 147822, Note_on_c, 0, 59, 34
2, 147894, Note_on_c, 0, 59, 0
2, 147936, Note_on_c, 0, 66, 29
2, 148036, Note_on_c, 0, 66, 0
2, 148076, Note_on_c, 0, 59, 20
2, 148144, Note_on_c, 0, 59, 0
2, 148172, Note_on_c, 0, 55, 40
2, 148260, Note_on_c, 0, 55, 0
2, 148306, Note_on_c, 0, 50, 0
2, 148309, Note_on_c, 0, 59, 37
2, 148322, Note_on_c, 0, 43, 47
2, 148358, Control_c, 0, 64, 0
2, 148386, Note_on_c, 0, 59, 0
2, 148434, Note_on_c, 0, 64, 42
2, 148496, Control_c, 0, 64, 127
2, 148508, Note_on_c, 0, 64, 0
2, 148518, Note_on_c, 0, 43, 0
2, 148534, Note_on_c, 0, 59, 28
2, 148604, Note_on_c, 0, 59, 0
2, 148648, Note_on_c, 0, 55, 40
2, 148742, Note_on_c, 0, 55, 0
2, 148766, Note_on_c, 0, 59, 36
2, 148828, Note_on_c, 0, 59, 0
2, 148886, Note_on_c, 0, 64, 46
2, 148962, Note_on_c, 0, 64, 0
2, 148996, Note_on_c, 0, 67, 54
2, 149016, Note_on_c, 0, 59, 23
2, 149082, Note_on_c, 0, 59, 0
2, 149088, Note_on_c, 0, 69, 31
2, 149092, Note_on_c, 0, 55, 34
2, 149136, Note_on_c, 0, 67, 0
2, 149180, Note_on_c, 0, 55, 0
2, 149196, Note_on_c, 0, 71, 63
2, 149254, Note_on_c, 0, 69, 0
2, 149266, Note_on_c, 0, 71, 0
2, 149304, Note_on_c, 0, 57, 25
2, 149340, Note_on_c, 0, 72, 50
2, 149388, Control_c, 0, 64, 0
2, 149402, Note_on_c, 0, 57, 0
2, 149448, Note_on_c, 0, 64, 49
2, 149556, Control_c, 0, 64, 127
2, 149574, Note_on_c, 0, 57, 39
2, 149580, Note_on_c, 0, 64, 0
2, 149632, Note_on_c, 0, 72, 0
2, 149652, Note_on_c, 0, 57, 0
2, 149716, Note_on_c, 0, 55, 25
2, 149794, Note_on_c, 0, 55, 0
2, 149808, Note_on_c, 0, 57, 40
2, 149880, Note_on_c, 0, 57, 0
2, 149944, Note_on_c, 0, 64, 40
2, 150014, Note_on_c, 0, 64, 0
2, 150054, Note_on_c, 0, 57, 42
2, 150122, Note_on_c, 0, 57, 0
2, 150146, Note_on_c, 0, 55, 46
2, 150232, Note_on_c, 0, 55, 0
2, 150274, Note_on_c, 0, 43, 50
2, 150300, Note_on_c, 0, 57, 34
2, 150340, Control_c, 0, 64, 0
2, 150374, Note_on_c, 0, 57, 0
2, 150404, Note_on_c, 0, 62, 50
2, 150490, Note_on_c, 0, 57, 14
2, 150510, Note_on_c, 0, 43, 0
2, 150510, Control_c, 0, 64, 127
2, 150513, Note_on_c, 0, 62, 0
2, 150594, Note_on_c, 0, 54, 54
2, 150597, Note_on_c, 0, 57, 0
2, 150712, Note_on_c, 0, 57, 20
2, 150714, Note_on_c, 0, 54, 0
2, 150804, Note_on_c, 0, 57, 0
2, 150838, Note_on_c, 0, 62, 47
2, 150934, Note_on_c, 0, 66, 49
2, 150970, Note_on_c, 0, 57, 57
2, 151000, Note_on_c, 0, 62, 0
2, 151024, Note_on_c, 0, 67, 62
2, 151042, Note_on_c, 0, 57, 0
2, 151050, Note_on_c, 0, 66, 0
2, 151082, Note_on_c, 0, 54, 35
2, 151144, Note_on_c, 0, 69, 48
2, 151192, Note_on_c, 0, 67, 0
2, 151195, Note_on_c, 0, 54, 0
2, 151222, Note_on_c, 0, 69, 0
2, 151228, Note_on_c, 0, 55, 48
2, 151247, Control_c, 0, 64, 0
2, 151258, Note_on_c, 0, 71, 75
2, 151336, Note_on_c, 0, 55, 0
2, 151390, Note_on_c, 0, 62, 42
2, 151446, Control_c, 0, 64, 127
2, 151466, Note_on_c, 0, 62, 0
2, 151476, Note_on_c, 0, 55, 24
2, 151518, Note_on_c, 0, 71, 0
2, 151564, Note_on_c, 0, 55, 0
2, 151578, Note_on_c, 0, 54, 47
2, 151680, Note_on_c, 0, 54, 0
2, 151700, Note_on_c, 0, 55, 47
2, 151784, Note_on_c, 0, 55, 0
2, 151838, Note_on_c, 0, 62, 37
2, 151910, Note_on_c, 0, 62, 0
2, 151972, Note_on_c, 0, 55, 39
2, 152036, Note_on_c, 0, 55, 0
2, 152040, Note_on_c, 0, 54, 54
2, 152148, Note_on_c, 0, 54, 0
2, 152162, Note_on_c, 0, 55, 36
2, 152172, Note_on_c, 0, 43, 42
2, 152184, Control_c, 0, 64, 0
2, 152262, Note_on_c, 0, 55, 0
2, 152286, Note_on_c, 0, 60, 50
2, 152378, Note_on_c, 0, 55, 37
2, 152384, Control_c, 0, 64, 127
2, 152404, Note_on_c, 0, 43, 0
2, 152434, Note_on_c, 0, 60, 0
2, 152498, Note_on_c, 0, 55, 0
2, 152520, Note_on_c, 0, 52, 43
2, 152590, Note_on_c, 0, 52, 0
2, 152614, Note_on_c, 0, 55, 34
2, 152698, Note_on_c, 0, 55, 0
2, 152748, Note_on_c, 0, 60, 47
2, 152844, Note_on_c, 0, 60, 0
2, 152849, Note_on_c, 0, 64, 36
2, 152896, Note_on_c, 0, 55, 46
2, 152922, Note_on_c, 0, 66, 42
2, 152964, Note_on_c, 0, 55, 0
2, 152992, Note_on_c, 0, 52, 40
2, 153016, Note_on_c, 0, 64, 0
2, 153060, Note_on_c, 0, 66, 0
2, 153060, Note_on_c, 0, 67, 48
2, 153120, Control_c, 0, 64, 0
2, 153134, Note_on_c, 0, 67, 0
2, 153148, Note_on_c, 0, 54, 58
2, 153148, Note_on_c, 0, 69, 42
2, 153160, Note_on_c, 0, 52, 0
2, 153264, Note_on_c, 0, 54, 0
2, 153290, Control_c, 0, 64, 127
2, 153324, Note_on_c, 0, 69, 0
2, 153344, Note_on_c, 0, 60, 27
2, 153432, Note_on_c, 0, 54, 36
2, 153436, Note_on_c, 0, 60, 0
2, 153520, Note_on_c, 0, 54, 0
2, 153564, Note_on_c, 0, 52, 37
2, 153652, Note_on_c, 0, 52, 0
2, 153684, Note_on_c, 0, 54, 59
2, 153694, Note_on_c, 0, 43, 46
2, 153752, Note_on_c, 0, 43, 0
2, 153762, Note_on_c, 0, 54, 0
2, 153836, Note_on_c, 0, 60, 17
2, 153932, Note_on_c, 0, 54, 56
2, 154008, Note_on_c, 0, 54, 0
2, 154052, Note_on_c, 0, 60, 0
2, 154078, Note_on_c, 0, 52, 36
2, 154214, Note_on_c, 0, 66, 48
2, 154222, Note_on_c, 0, 54, 62
2, 154256, Note_on_c, 0, 52, 0
2, 154304, Control_c, 0, 64, 0
2, 154426, Control_c, 0, 64, 127
2, 154434, Note_on_c, 0, 54, 0
2, 154446, Note_on_c, 0, 60, 46
2, 154462, Note_on_c, 0, 67, 63
2, 154474, Note_on_c, 0, 66, 0
2, 154546, Note_on_c, 0, 67, 0
2, 154564, Note_on_c, 0, 66, 44
2, 154567, Note_on_c, 0, 54, 50
2, 154610, Note_on_c, 0, 60, 0
2, 154656, Note_on_c, 0, 54, 0
2, 154656, Note_on_c, 0, 66, 0
2, 154659, Note_on_c, 0, 67, 70
2, 154710, Note_on_c, 0, 52, 49
2, 154732, Note_on_c, 0, 67, 0
2, 154746, Note_on_c, 0, 66, 59
2, 154802, Note_on_c, 0, 52, 0
2, 154826, Note_on_c, 0, 54, 60
2, 154840, Note_on_c, 0, 67, 65
2, 154842, Note_on_c, 0, 66, 0
2, 154910, Note_on_c, 0, 67, 0
2, 154913, Note_on_c, 0, 66, 64
2, 154940, Note_on_c, 0, 54, 0
2, 154966, Note_on_c, 0, 60, 56
2, 155012, Note_on_c, 0, 66, 0
2, 155012, Note_on_c, 0, 67, 69
2, 155070, Note_on_c, 0, 54, 55
2, 155092, Note_on_c, 0, 67, 0
2, 155092, Note_on_c, 0, 66, 62
2, 155110, Note_on_c, 0, 60, 0
2, 155150, Note_on_c, 0, 54, 0
2, 155172, Note_on_c, 0, 67, 78
2, 155178, Note_on_c, 0, 52, 64
2, 155180, Note_on_c, 0, 66, 0
2, 155256, Control_c, 0, 64, 0
2, 155262, Note_on_c, 0, 66, 73
2, 155286, Note_on_c, 0, 67, 0
2, 155289, Note_on_c, 0, 54, 88
2, 155342, Note_on_c, 0, 52, 0
2, 155354, Note_on_c, 0, 67, 72
2, 155358, Note_on_c, 0, 66, 0
2, 155422, Note_on_c, 0, 54, 0
2, 155432, Note_on_c, 0, 59, 71
2, 155442, Control_c, 0, 64, 127
2, 155442, Note_on_c, 0, 66, 67
2, 155466, Note_on_c, 0, 67, 0
2, 155520, Note_on_c, 0, 54, 63
2, 155534, Note_on_c, 0, 67, 77
2, 155537, Note_on_c, 0, 66, 0
2, 155562, Note_on_c, 0, 59, 0
2, 155620, Note_on_c, 0, 66, 66
2, 155624, Note_on_c, 0, 50, 57
2, 155630, Note_on_c, 0, 67, 0
2, 155638, Note_on_c, 0, 54, 0
2, 155692, Note_on_c, 0, 66, 0
2, 155704, Note_on_c, 0, 67, 71
2, 155722, Note_on_c, 0, 54, 70
2, 155782, Note_on_c, 0, 50, 0
2, 155785, Note_on_c, 0, 66, 73
2, 155789, Note_on_c, 0, 67, 0
2, 155852, Note_on_c, 0, 59, 75
2, 155854, Note_on_c, 0, 54, 0
2, 155856, Note_on_c, 0, 66, 0
2, 155866, Note_on_c, 0, 67, 80
2, 155952, Note_on_c, 0, 66, 80
2, 155964, Note_on_c, 0, 67, 0
2, 155970, Note_on_c, 0, 54, 65
2, 155984, Note_on_c, 0, 59, 0
2, 156024, Note_on_c, 0, 66, 0
2, 156030, Note_on_c, 0, 67, 80
2, 156096, Note_on_c, 0, 54, 0
2, 156099, Note_on_c, 0, 50, 75
2, 156120, Note_on_c, 0, 66, 86
2, 156132, Note_on_c, 0, 67, 0
2, 156206, Note_on_c, 0, 67, 82
2, 156222, Note_on_c, 0, 66, 0
2, 156228, Note_on_c, 0, 54, 87
2, 156298, Note_on_c, 0, 66, 80
2, 156312, Note_on_c, 0, 67, 0
2, 156318, Note_on_c, 0, 50, 0
2, 156338, Note_on_c, 0, 57, 78
2, 156348, Note_on_c, 0, 54, 0
2, 156392, Note_on_c, 0, 67, 81
2, 156406, Note_on_c, 0, 66, 0
2, 156440, Note_on_c, 0, 54, 65
2, 156470, Note_on_c, 0, 66, 81
2, 156490, Note_on_c, 0, 67, 0
2, 156502, Note_on_c, 0, 57, 0
2, 156536, Note_on_c, 0, 48, 67
2, 156564, Note_on_c, 0, 67, 80
2, 156566, Note_on_c, 0, 54, 0
2, 156580, Note_on_c, 0, 66, 0
2, 156654, Note_on_c, 0, 54, 65
2, 156656, Note_on_c, 0, 66, 73
2, 156668, Note_on_c, 0, 67, 0
2, 156730, Note_on_c, 0, 48, 0
2, 156742, Note_on_c, 0, 67, 86
2, 156754, Note_on_c, 0, 66, 0
2, 156760, Note_on_c, 0, 57, 70
2, 156800, Note_on_c, 0, 54, 0
2, 156840, Note_on_c, 0, 66, 64
2, 156852, Note_on_c, 0, 67, 0
2, 156874, Note_on_c, 0, 54, 77
2, 156904, Note_on_c, 0, 57, 0
2, 156916, Note_on_c, 0, 67, 86
2, 156954, Note_on_c, 0, 66, 0
2, 157000, Note_on_c, 0, 66, 57
2, 157008, Note_on_c, 0, 54, 0
2, 157012, Note_on_c, 0, 67, 0
2, 157012, Note_on_c, 0, 48, 49
2, 157078, Note_on_c, 0, 64, 98
2, 157104, Note_on_c, 0, 66, 0
2, 157210, Note_on_c, 0, 66, 80
2, 157262, Note_on_c, 0, 64, 0
2, 157288, Note_on_c, 0, 48, 0
2, 157326, Note_on_c, 0, 50, 77
2, 157342, Note_on_c, 0, 66, 0
2, 157354, Note_on_c, 0, 67, 110
2, 157362, Control_c, 0, 64, 0
2, 157516, Note_on_c, 0, 55, 81
2, 157521, Note_on_c, 0, 67, 0
2, 157528, Note_on_c, 0, 50, 0
2, 157546, Control_c, 0, 64, 127
2, 157636, Note_on_c, 0, 50, 62
2, 157682, Note_on_c, 0, 55, 0
2, 157754, Note_on_c, 0, 47, 80
2, 157790, Note_on_c, 0, 50, 0
2, 157890, Note_on_c, 0, 50, 80
2, 157895, Note_on_c, 0, 47, 0
2, 157895, Note_on_c, 0, 43, 92
2, 157902, Note_on_c, 0, 31, 86
2, 158014, Note_on_c, 0, 55, 87
2, 158026, Note_on_c, 0, 50, 0
2, 158128, Note_on_c, 0, 50, 64
2, 158170, Note_on_c, 0, 55, 0
2, 158230, Note_on_c, 0, 47, 82
2, 158234, Note_on_c, 0, 50, 0
2, 158316, Note_on_c, 0, 47, 0
2, 158362, Note_on_c, 0, 55, 106
2, 158466, Note_on_c, 0, 59, 86
2, 158492, Note_on_c, 0, 55, 0
2, 158554, Note_on_c, 0, 55, 86
2, 158602, Note_on_c, 0, 59, 0
2, 158664, Note_on_c, 0, 50, 89
2, 158670, Note_on_c, 0, 55, 0
2, 158736, Note_on_c, 0, 50, 0
2, 158786, Note_on_c, 0, 59, 111
2, 158892, Note_on_c, 0, 62, 93
2, 158904, Note_on_c, 0, 59, 0
2, 158986, Note_on_c, 0, 59, 78
2, 159034, Note_on_c, 0, 62, 0
2, 159082, Note_on_c, 0, 55, 92
2, 159090, Note_on_c, 0, 59, 0
2, 159138, Note_on_c, 0, 55, 0
2, 159206, Note_on_c, 0, 62, 120
2, 159294, Note_on_c, 0, 67, 92
2, 159336, Note_on_c, 0, 62, 0
2, 159406, Note_on_c, 0, 62, 85
2, 159464, Note_on_c, 0, 67, 0
2, 159504, Note_on_c, 0, 59, 89
2, 159512, Note_on_c, 0, 62, 0
2, 159572, Note_on_c, 0, 59, 0
2, 159626, Note_on_c, 0, 67, 115
2, 159722, Note_on_c, 0, 71, 97
2, 159756, Note_on_c, 0, 67, 0
2, 159826, Note_on_c, 0, 67, 79
2, 159896, Note_on_c, 0, 71, 0
2, 159926, Note_on_c, 0, 62, 93
2, 159956, Note_on_c, 0, 67, 0
2, 160006, Note_on_c, 0, 62, 0
2, 160062, Note_on_c, 0, 71, 124
2, 160164, Note_on_c, 0, 74, 101
2, 160204, Note_on_c, 0, 71, 0
2, 160272, Note_on_c, 0, 71, 95
2, 160328, Note_on_c, 0, 74, 0
2, 160386, Note_on_c, 0, 67, 87
2, 160400, Note_on_c, 0, 71, 0
2, 160568, Note_on_c, 0, 79, 124
2, 160872, Note_on_c, 0, 67, 0
2, 160910, Note_on_c, 0, 43, 0
2, 160926, Note_on_c, 0, 31, 0
2, 160948, Note_on_c, 0, 79, 0
2, 161096, Note_on_c, 0, 29, 127
2, 161218, Control_c, 0, 64, 0
2, 161352, Note_on_c, 0, 41, 121
2, 161386, Control_c, 0, 64, 127
2, 161446, Note_on_c, 0, 29, 0
2, 161582, Note_on_c, 0, 41, 0
2, 161648, Note_on_c, 0, 43, 94
2, 161764, Note_on_c, 0, 41, 108
2, 161790, Note_on_c, 0, 43, 0
2, 161836, Note_on_c, 0, 50, 112
2, 161858, Note_on_c, 0, 41, 0
2, 161880, Note_on_c, 0, 43, 72
2, 161988, Note_on_c, 0, 43, 0
2, 162002, Note_on_c, 0, 41, 100
2, 162008, Note_on_c, 0, 55, 96
2, 162028, Note_on_c, 0, 50, 0
2, 162100, Note_on_c, 0, 41, 0
2, 162102, Note_on_c, 0, 43, 85
2, 162114, Note_on_c, 0, 50, 78
2, 162186, Note_on_c, 0, 55, 0
2, 162200, Note_on_c, 0, 41, 90
2, 162216, Note_on_c, 0, 43, 0
2, 162260, Note_on_c, 0, 47, 86
2, 162280, Note_on_c, 0, 50, 0
2, 162312, Note_on_c, 0, 43, 70
2, 162320, Note_on_c, 0, 41, 0
2, 162358, Note_on_c, 0, 47, 0
2, 162410, Note_on_c, 0, 41, 83
2, 162412, Note_on_c, 0, 55, 115
2, 162428, Note_on_c, 0, 43, 0
2, 162524, Note_on_c, 0, 43, 71
2, 162526, Note_on_c, 0, 59, 100
2, 162528, Note_on_c, 0, 41, 0
2, 162556, Note_on_c, 0, 55, 0
2, 162624, Note_on_c, 0, 41, 81
2, 162638, Note_on_c, 0, 43, 0
2, 162640, Note_on_c, 0, 55, 77
2, 162686, Note_on_c, 0, 59, 0
2, 162736, Note_on_c, 0, 43, 67
2, 162748, Note_on_c, 0, 41, 0
2, 162754, Note_on_c, 0, 50, 95
2, 162780, Note_on_c, 0, 55, 0
2, 162822, Note_on_c, 0, 50, 0
2, 162844, Note_on_c, 0, 41, 75
2, 162852, Note_on_c, 0, 43, 0
2, 162886, Note_on_c, 0, 59, 116
2, 162964, Note_on_c, 0, 43, 69
2, 162970, Note_on_c, 0, 41, 0
2, 162996, Note_on_c, 0, 62, 101
2, 163028, Note_on_c, 0, 59, 0
2, 163060, Note_on_c, 0, 41, 74
2, 163076, Note_on_c, 0, 43, 0
2, 163092, Note_on_c, 0, 59, 90
2, 163164, Note_on_c, 0, 62, 0
2, 163168, Note_on_c, 0, 43, 67
2, 163184, Note_on_c, 0, 41, 0
2, 163187, Note_on_c, 0, 55, 90
2, 163210, Note_on_c, 0, 59, 0
2, 163242, Note_on_c, 0, 55, 0
2, 163272, Note_on_c, 0, 41, 75
2, 163284, Note_on_c, 0, 43, 0
2, 163320, Note_on_c, 0, 62, 112
2, 163384, Note_on_c, 0, 43, 72
2, 163394, Note_on_c, 0, 41, 0
2, 163426, Note_on_c, 0, 67, 100
2, 163442, Note_on_c, 0, 62, 0
2, 163488, Note_on_c, 0, 41, 75
2, 163496, Note_on_c, 0, 43, 0
2, 163534, Note_on_c, 0, 62, 74
2, 163592, Note_on_c, 0, 43, 66
2, 163604, Note_on_c, 0, 41, 0
2, 163604, Note_on_c, 0, 67, 0
2, 163618, Note_on_c, 0, 59, 93
2, 163632, Note_on_c, 0, 62, 0
2, 163666, Note_on_c, 0, 59, 0
2, 163694, Note_on_c, 0, 41, 81
2, 163702, Note_on_c, 0, 43, 0
2, 163734, Note_on_c, 0, 67, 118
2, 163808, Note_on_c, 0, 43, 72
2, 163814, Note_on_c, 0, 41, 0
2, 163832, Note_on_c, 0, 71, 104
2, 163882, Note_on_c, 0, 67, 0
2, 163906, Note_on_c, 0, 41, 81
2, 163920, Note_on_c, 0, 43, 0
2, 163936, Note_on_c, 0, 67, 97
2, 164002, Note_on_c, 0, 71, 0
2, 164022, Note_on_c, 0, 43, 75
2, 164032, Note_on_c, 0, 62, 89
2, 164042, Note_on_c, 0, 41, 0
2, 164064, Note_on_c, 0, 67, 0
2, 164116, Note_on_c, 0, 62, 0
2, 164122, Note_on_c, 0, 41, 86
2, 164128, Note_on_c, 0, 43, 0
2, 164170, Note_on_c, 0, 71, 121
2, 164228, Note_on_c, 0, 43, 74
2, 164250, Note_on_c, 0, 41, 0
2, 164268, Note_on_c, 0, 74, 102
2, 164312, Note_on_c, 0, 71, 0
2, 164324, Note_on_c, 0, 41, 85
2, 164334, Note_on_c, 0, 43, 0
2, 164370, Note_on_c, 0, 71, 100
2, 164414, Note_on_c, 0, 43, 75
2, 164436, Note_on_c, 0, 41, 0
2, 164439, Note_on_c, 0, 74, 0
2, 164488, Note_on_c, 0, 67, 80
2, 164506, Note_on_c, 0, 71, 0
2, 164506, Note_on_c, 0, 41, 82
2, 164538, Note_on_c, 0, 43, 0
2, 164618, Note_on_c, 0, 43, 85
2, 164640, Note_on_c, 0, 41, 0
2, 164640, Note_on_c, 0, 79, 127
2, 164726, Note_on_c, 0, 41, 86
2, 164764, Note_on_c, 0, 43, 0
2, 164804, Note_on_c, 0, 43, 55
2, 164838, Note_on_c, 0, 41, 0
2, 164896, Note_on_c, 0, 40, 112
2, 164909, Note_on_c, 0, 43, 0
2, 164978, Note_on_c, 0, 67, 0
2, 164978, Note_on_c, 0, 79, 0
2, 165022, Note_on_c, 0, 41, 121
2, 165060, Note_on_c, 0, 40, 0
2, 165116, Note_on_c, 0, 41, 0
2, 165286, Note_on_c, 0, 40, 127
2, 165289, Note_on_c, 0, 28, 120
2, 165352, Control_c, 0, 64, 0
2, 165560, Note_on_c, 0, 28, 0
2, 165618, Note_on_c, 0, 40, 0
2, 165642, Control_c, 0, 64, 127
2, 165866, Note_on_c, 0, 67, 113
2, 165868, Note_on_c, 0, 61, 103
2, 165870, Note_on_c, 0, 55, 113
2, 165870, Note_on_c, 0, 52, 112
2, 165874, Note_on_c, 0, 40, 111
2, 166118, Control_c, 0, 64, 0
2, 166304, Control_c, 0, 64, 127
2, 166328, Note_on_c, 0, 55, 0
2, 166334, Note_on_c, 0, 67, 0
2, 166338, Note_on_c, 0, 52, 0
2, 166360, Note_on_c, 0, 40, 0
2, 166422, Note_on_c, 0, 61, 0
2, 166436, Note_on_c, 0, 66, 106
2, 166438, Note_on_c, 0, 50, 106
2, 166438, Note_on_c, 0, 57, 109
2, 166440, Note_on_c, 0, 62, 108
2, 166444, Note_on_c, 0, 38, 103
2, 166456, Control_c, 0, 64, 0
2, 166688, Control_c, 0, 64, 127
2, 166718, Note_on_c, 0, 62, 0
2, 166730, Note_on_c, 0, 66, 0
2, 166764, Note_on_c, 0, 57, 0
2, 166822, Note_on_c, 0, 50, 0
2, 166866, Note_on_c, 0, 38, 0
2, 166958, Note_on_c, 0, 64, 117
2, 166962, Note_on_c, 0, 54, 110
2, 166966, Note_on_c, 0, 48, 96
2, 166966, Note_on_c, 0, 57, 90
2, 166974, Note_on_c, 0, 36, 100
2, 167042, Control_c, 0, 64, 0
2, 167222, Note_on_c, 0, 57, 0
2, 167272, Control_c, 0, 64, 127
2, 167318, Note_on_c, 0, 54, 0
2, 167332, Note_on_c, 0, 64, 0
2, 167338, Note_on_c, 0, 48, 0
2, 167378, Note_on_c, 0, 36, 0
2, 167442, Control_c, 0, 64, 0
2, 167448, Note_on_c, 0, 62, 115
2, 167450, Note_on_c, 0, 55, 104
2, 167454, Note_on_c, 0, 59, 93
2, 167460, Note_on_c, 0, 47, 95
2, 167468, Note_on_c, 0, 35, 108
2, 167618, Note_on_c, 0, 35, 0
2, 167628, Note_on_c, 0, 55, 0
2, 167636, Note_on_c, 0, 59, 0
2, 167639, Control_c, 0, 64, 127
2, 167660, Note_on_c, 0, 62, 0
2, 167670, Note_on_c, 0, 47, 0
2, 167912, Note_on_c, 0, 69, 106
2, 167915, Note_on_c, 0, 62, 106
2, 167915, Note_on_c, 0, 59, 111
2, 167919, Note_on_c, 0, 53, 120
2, 167924, Note_on_c, 0, 41, 95
2, 168024, Control_c, 0, 64, 0
2, 168240, Control_c, 0, 64, 127
2, 168254, Note_on_c, 0, 59, 0
2, 168270, Note_on_c, 0, 69, 0
2, 168272, Note_on_c, 0, 53, 0
2, 168300, Note_on_c, 0, 41, 0
2, 168350, Note_on_c, 0, 62, 0
2, 168388, Note_on_c, 0, 60, 106
2, 168388, Note_on_c, 0, 67, 111
2, 168394, Note_on_c, 0, 52, 111
2, 168394, Note_on_c, 0, 64, 104
2, 168397, Note_on_c, 0, 40, 113
2, 168408, Control_c, 0, 64, 0
2, 168640, Control_c, 0, 64, 127
2, 168666, Note_on_c, 0, 64, 0
2, 168670, Note_on_c, 0, 60, 0
2, 168684, Note_on_c, 0, 67, 0
2, 168752, Note_on_c, 0, 52, 0
2, 168774, Note_on_c, 0, 40, 0
2, 168878, Note_on_c, 0, 65, 111
2, 168884, Note_on_c, 0, 53, 120
2, 168886, Note_on_c, 0, 50, 101
2, 168888, Note_on_c, 0, 59, 93
2, 168894, Note_on_c, 0, 38, 97
2, 169008, Control_c, 0, 64, 0
2, 169208, Control_c, 0, 64, 127
2, 169220, Note_on_c, 0, 65, 0
2, 169242, Note_on_c, 0, 59, 0
2, 169250, Note_on_c, 0, 53, 0
2, 169296, Note_on_c, 0, 50, 0
2, 169330, Note_on_c, 0, 38, 0
2, 169392, Control_c, 0, 64, 0
2, 169402, Note_on_c, 0, 64, 115
2, 169406, Note_on_c, 0, 55, 109
2, 169410, Note_on_c, 0, 60, 105
2, 169410, Note_on_c, 0, 48, 94
2, 169422, Note_on_c, 0, 36, 104
2, 169540, Note_on_c, 0, 36, 0
2, 169562, Note_on_c, 0, 55, 0
2, 169566, Note_on_c, 0, 48, 0
2, 169578, Note_on_c, 0, 60, 0
2, 169592, Control_c, 0, 64, 127
2, 169630, Note_on_c, 0, 64, 0
2, 169976, Note_on_c, 0, 66, 96
2, 169978, Note_on_c, 0, 76, 112
2, 169980, Note_on_c, 0, 69, 92
2, 169984, Note_on_c, 0, 60, 102
2, 169988, Note_on_c, 0, 48, 82
2, 170268, Control_c, 0, 64, 0
2, 170390, Note_on_c, 0, 69, 0
2, 170452, Control_c, 0, 64, 127
2, 170464, Note_on_c, 0, 76, 0
2, 170469, Note_on_c, 0, 66, 0
2, 170472, Note_on_c, 0, 60, 0
2, 170498, Note_on_c, 0, 48, 0
2, 170572, Note_on_c, 0, 71, 109
2, 170572, Note_on_c, 0, 67, 104
2, 170575, Note_on_c, 0, 74, 118
2, 170575, Note_on_c, 0, 59, 98
2, 170590, Note_on_c, 0, 47, 90
2, 170744, Control_c, 0, 64, 0
2, 170918, Note_on_c, 0, 47, 0
2, 170922, Note_on_c, 0, 71, 0
2, 170940, Note_on_c, 0, 59, 0
2, 170944, Control_c, 0, 64, 127
2, 170956, Note_on_c, 0, 74, 0
2, 170962, Note_on_c, 0, 67, 0
2, 171310, Note_on_c, 0, 79, 120
2, 171318, Note_on_c, 0, 67, 104
2, 171318, Note_on_c, 0, 73, 89
2, 171326, Note_on_c, 0, 64, 105
2, 171332, Note_on_c, 0, 52, 111
2, 171482, Control_c, 0, 64, 0
2, 171820, Control_c, 0, 64, 127
2, 171896, Note_on_c, 0, 67, 0
2, 171922, Note_on_c, 0, 79, 0
2, 171976, Note_on_c, 0, 73, 0
2, 172008, Note_on_c, 0, 52, 0
2, 172011, Note_on_c, 0, 64, 0
2, 172346, Note_on_c, 0, 71, 124
2, 172348, Note_on_c, 0, 67, 111
2, 172364, Note_on_c, 0, 62, 103
2, 172367, Note_on_c, 0, 50, 101
2, 172572, Control_c, 0, 64, 0
2, 173264, Control_c, 0, 64, 127
2, 173534, Note_on_c, 0, 62, 0
2, 173648, Note_on_c, 0, 50, 0
2, 173798, Note_on_c, 0, 64, 109
2, 173824, Note_on_c, 0, 67, 0
2, 174032, Note_on_c, 0, 38, 110
2, 174118, Note_on_c, 0, 66, 102
2, 174170, Control_c, 0, 64, 0
2, 174178, Note_on_c, 0, 64, 0
2, 174256, Note_on_c, 0, 50, 124
2, 174302, Note_on_c, 0, 38, 0
2, 174354, Note_on_c, 0, 66, 0
2, 174354, Control_c, 0, 64, 127
2, 174366, Note_on_c, 0, 67, 108
2, 174368, Note_on_c, 0, 50, 0
2, 174454, Note_on_c, 0, 71, 0
2, 174498, Note_on_c, 0, 67, 0
2, 174606, Note_on_c, 0, 71, 116
2, 174664, Note_on_c, 0, 67, 115
2, 174668, Note_on_c, 0, 60, 108
2, 174780, Note_on_c, 0, 69, 92
2, 174806, Note_on_c, 0, 71, 0
2, 174944, Note_on_c, 0, 71, 109
2, 174947, Note_on_c, 0, 69, 0
2, 175082, Note_on_c, 0, 69, 101
2, 175088, Note_on_c, 0, 71, 0
2, 175244, Note_on_c, 0, 71, 111
2, 175247, Note_on_c, 0, 69, 0
2, 175362, Note_on_c, 0, 71, 0
2, 175370, Note_on_c, 0, 69, 102
2, 175488, Note_on_c, 0, 69, 0
2, 175488, Note_on_c, 0, 71, 109
2, 175570, Note_on_c, 0, 71, 0
2, 175584, Note_on_c, 0, 69, 80
2, 175668, Note_on_c, 0, 71, 100
2, 175682, Note_on_c, 0, 69, 0
2, 175714, Note_on_c, 0, 71, 0
2, 175738, Note_on_c, 0, 69, 86
2, 175812, Note_on_c, 0, 71, 95
2, 175820, Note_on_c, 0, 69, 0
2, 175858, Note_on_c, 0, 71, 0
2, 175884, Note_on_c, 0, 69, 88
2, 175964, Note_on_c, 0, 69, 0
2, 175964, Note_on_c, 0, 71, 96
2, 176028, Note_on_c, 0, 71, 0
2, 176036, Note_on_c, 0, 69, 75
2, 176112, Note_on_c, 0, 69, 0
2, 176115, Note_on_c, 0, 71, 97
2, 176170, Note_on_c, 0, 71, 0
2, 176200, Note_on_c, 0, 69, 81
2, 176254, Note_on_c, 0, 69, 0
2, 176280, Note_on_c, 0, 71, 92
2, 176324, Note_on_c, 0, 66, 109
2, 176337, Note_on_c, 0, 71, 0
2, 176348, Note_on_c, 0, 69, 65
2, 176362, Note_on_c, 0, 67, 0
2, 176428, Note_on_c, 0, 71, 97
2, 176432, Note_on_c, 0, 69, 0
2, 176478, Note_on_c, 0, 71, 0
2, 176512, Note_on_c, 0, 69, 72
2, 176572, Note_on_c, 0, 69, 0
2, 176574, Note_on_c, 0, 71, 87
2, 176652, Note_on_c, 0, 71, 0
2, 176662, Note_on_c, 0, 69, 58
2, 176712, Note_on_c, 0, 69, 0
2, 176734, Note_on_c, 0, 71, 82
2, 176786, Note_on_c, 0, 71, 0
2, 176794, Note_on_c, 0, 69, 47
2, 176868, Note_on_c, 0, 71, 90
2, 176884, Note_on_c, 0, 66, 0
2, 176887, Note_on_c, 0, 69, 0
2, 176960, Note_on_c, 0, 69, 72
2, 176968, Note_on_c, 0, 71, 0
2, 176976, Note_on_c, 0, 60, 0
2, 177020, Note_on_c, 0, 69, 0
2, 177036, Note_on_c, 0, 71, 97
2, 177126, Note_on_c, 0, 69, 109
2, 177170, Note_on_c, 0, 71, 0
2, 177682, Note_on_c, 0, 67, 116
2, 177690, Note_on_c, 0, 69, 0
2, 177996, Note_on_c, 0, 43, 112
2, 178000, Note_on_c, 0, 31, 112
2, 178012, Control_c, 0, 64, 0
2, 178228, Note_on_c, 0, 31, 0
2, 178272, Control_c, 0, 64, 127
2, 178280, Note_on_c, 0, 43, 0
2, 178292, Note_on_c, 0, 67, 0
2, 178742, Note_on_c, 0, 67, 109
2, 178742, Note_on_c, 0, 62, 101
2, 178745, Note_on_c, 0, 59, 105
2, 178750, Note_on_c, 0, 55, 104
2, 178754, Note_on_c, 0, 50, 95
2, 180732, Note_on_c, 0, 59, 0
2, 180744, Note_on_c, 0, 50, 0
2, 180756, Note_on_c, 0, 55, 0
2, 180772, Note_on_c, 0, 62, 0
2, 180810, Note_on_c, 0, 67, 0
2, 183604, Control_c, 0, 64, 0
2, 186240, Control_c, 0, 64, 0
2, 190080, Note_on_c, 0, 67, 63
2, 190110, Note_on_c, 0, 62, 36
2, 190118, Note_on_c, 0, 59, 34
2, 190130, Note_on_c, 0, 55, 35
2, 190650, Note_on_c, 0, 69, 43
2, 190720, Note_on_c, 0, 67, 0
2, 190920, Control_c, 0, 64, 127
2, 190974, Note_on_c, 0, 62, 0
2, 190992, Note_on_c, 0, 69, 0
2, 191190, Note_on_c, 0, 69, 42
2, 191220, Note_on_c, 0, 64, 23
2, 191228, Note_on_c, 0, 59, 0
2, 191250, Note_on_c, 0, 60, 26
2, 191520, Control_c, 0, 64, 0
2, 191920, Control_c, 0, 64, 127
2, 192098, Note_on_c, 0, 55, 0
2, 192200, Note_on_c, 0, 54, 27
2, 192412, Control_c, 0, 64, 0
2, 192700, Note_on_c, 0, 60, 0
2, 192702, Control_c, 0, 64, 127
2, 192716, Note_on_c, 0, 64, 0
2, 192750, Note_on_c, 0, 69, 0
2, 192782, Note_on_c, 0, 54, 0
2, 193150, Note_on_c, 0, 71, 60
2, 193164, Note_on_c, 0, 67, 27
2, 193180, Note_on_c, 0, 53, 42
2, 193188, Note_on_c, 0, 62, 20
2, 193456, Control_c, 0, 64, 0
2, 193718, Control_c, 0, 64, 127
2, 193742, Note_on_c, 0, 72, 56
2, 193756, Note_on_c, 0, 62, 0
2, 193772, Note_on_c, 0, 60, 35
2, 193844, Note_on_c, 0, 71, 0
2, 193856, Control_c, 0, 64, 0
2, 193988, Note_on_c, 0, 74, 88
2, 194000, Note_on_c, 0, 59, 42
2, 194002, Note_on_c, 0, 60, 0
2, 194008, Control_c, 0, 64, 127
2, 194016, Note_on_c, 0, 72, 0
2, 194046, Note_on_c, 0, 67, 0
2, 194088, Note_on_c, 0, 59, 0
2, 194090, Note_on_c, 0, 53, 0
2, 194252, Note_on_c, 0, 72, 78
2, 194262, Note_on_c, 0, 67, 46
2, 194272, Note_on_c, 0, 60, 31
2, 194294, Note_on_c, 0, 74, 0
2, 194300, Note_on_c, 0, 52, 23
2, 194346, Control_c, 0, 64, 0
2, 194552, Note_on_c, 0, 60, 0
2, 194578, Control_c, 0, 64, 127
2, 194738, Note_on_c, 0, 67, 0
2, 194744, Note_on_c, 0, 71, 62
2, 194748, Note_on_c, 0, 66, 27
2, 194790, Note_on_c, 0, 52, 0
2, 194793, Control_c, 0, 64, 0
2, 194796, Note_on_c, 0, 62, 19
2, 194804, Note_on_c, 0, 50, 37
2, 194820, Note_on_c, 0, 72, 0
2, 194986, Note_on_c, 0, 62, 0
2, 195054, Control_c, 0, 64, 127
2, 195060, Note_on_c, 0, 71, 0
2, 195084, Note_on_c, 0, 66, 0
2, 195094, Note_on_c, 0, 50, 0
2, 195282, Note_on_c, 0, 71, 54
2, 195302, Note_on_c, 0, 67, 14
2, 195318, Note_on_c, 0, 55, 18
2, 195324, Note_on_c, 0, 62, 20
2, 195362, Control_c, 0, 64, 0
2, 195678, Note_on_c, 0, 62, 0
2, 195700, Control_c, 0, 64, 127
2, 195754, Note_on_c, 0, 67, 0
2, 195778, Note_on_c, 0, 55, 0
2, 195814, Note_on_c, 0, 71, 0
2, 196490, Note_on_c, 0, 67, 51
2, 196522, Note_on_c, 0, 62, 19
2, 196522, Note_on_c, 0, 55, 28
2, 196530, Note_on_c, 0, 47, 25
2, 196958, Note_on_c, 0, 69, 58
2, 197020, Note_on_c, 0, 67, 0
2, 197084, Note_on_c, 0, 55, 0
2, 197216, Note_on_c, 0, 71, 88
2, 197228, Note_on_c, 0, 69, 0
2, 197302, Note_on_c, 0, 62, 0
2, 197326, Note_on_c, 0, 71, 0
2, 197422, Note_on_c, 0, 47, 0
2, 197426, Note_on_c, 0, 69, 73
2, 197448, Note_on_c, 0, 64, 56
2, 197454, Note_on_c, 0, 59, 34
2, 197486, Note_on_c, 0, 52, 24
2, 197588, Control_c, 0, 64, 0
2, 197866, Note_on_c, 0, 67, 83
2, 197882, Control_c, 0, 64, 127
2, 197918, Note_on_c, 0, 69, 0
2, 197974, Control_c, 0, 64, 0
2, 198128, Control_c, 0, 64, 127
2, 198170, Note_on_c, 0, 59, 0
2, 198352, Note_on_c, 0, 66, 56
2, 198374, Note_on_c, 0, 45, 32
2, 198380, Note_on_c, 0, 57, 37
2, 198382, Note_on_c, 0, 60, 36
2, 198388, Note_on_c, 0, 64, 0
2, 198398, Note_on_c, 0, 67, 0
2, 198438, Note_on_c, 0, 52, 0
2, 198710, Control_c, 0, 64, 0
2, 198840, Note_on_c, 0, 64, 75
2, 198868, Note_on_c, 0, 66, 0
2, 198880, Control_c, 0, 64, 127
2, 198978, Note_on_c, 0, 45, 0
2, 199058, Note_on_c, 0, 57, 0
2, 199060, Note_on_c, 0, 60, 0
2, 199138, Note_on_c, 0, 64, 0
2, 199164, Note_on_c, 0, 66, 47
2, 199216, Note_on_c, 0, 66, 0
2, 199216, Note_on_c, 0, 67, 60
2, 199284, Note_on_c, 0, 66, 50
2, 199296, Note_on_c, 0, 67, 0
2, 199306, Note_on_c, 0, 62, 39
2, 199309, Note_on_c, 0, 57, 29
2, 199316, Note_on_c, 0, 50, 40
2, 199356, Control_c, 0, 64, 0
2, 199570, Note_on_c, 0, 64, 63
2, 199570, Control_c, 0, 64, 127
2, 199604, Note_on_c, 0, 62, 0
2, 199640, Note_on_c, 0, 66, 0
2, 199700, Note_on_c, 0, 57, 0
2, 199806, Note_on_c, 0, 62, 74
2, 199816, Note_on_c, 0, 59, 39
2, 199824, Note_on_c, 0, 55, 34
2, 199826, Note_on_c, 0, 64, 0
2, 199848, Control_c, 0, 64, 0
2, 199940, Control_c, 0, 64, 127
2, 199960, Note_on_c, 0, 55, 0
2, 199960, Note_on_c, 0, 62, 0
2, 200136, Note_on_c, 0, 54, 46
2, 200158, Note_on_c, 0, 59, 0
2, 200194, Note_on_c, 0, 54, 0
2, 200204, Note_on_c, 0, 55, 74
2, 200256, Note_on_c, 0, 55, 0
2, 200268, Note_on_c, 0, 54, 58
2, 200290, Note_on_c, 0, 62, 51
2, 200294, Note_on_c, 0, 57, 50
2, 200324, Control_c, 0, 64, 0
2, 200512, Note_on_c, 0, 54, 0
2, 200566, Note_on_c, 0, 55, 60
2, 200572, Note_on_c, 0, 52, 59
2, 200598, Note_on_c, 0, 57, 0
2, 200601, Note_on_c, 0, 50, 0
2, 200830, Note_on_c, 0, 52, 0
2, 200848, Note_on_c, 0, 54, 51
2, 200852, Note_on_c, 0, 55, 0
2, 200854, Note_on_c, 0, 50, 55
2, 201138, Control_c, 0, 64, 127
2, 201156, Note_on_c, 0, 54, 0
2, 201202, Note_on_c, 0, 50, 0
2, 201456, Note_on_c, 0, 54, 42
2, 201461, Control_c, 0, 64, 0
2, 201482, Note_on_c, 0, 50, 26
2, 201968, Control_c, 0, 64, 127
2, 202218, Note_on_c, 0, 54, 0
2, 202420, Note_on_c, 0, 62, 0
2, 202840, Note_on_c, 0, 40, 66
2, 202845, Note_on_c, 0, 60, 60
2, 202852, Note_on_c, 0, 55, 35
2, 202998, Control_c, 0, 64, 0
2, 203382, Control_c, 0, 64, 127
2, 203392, Note_on_c, 0, 62, 63
2, 203476, Note_on_c, 0, 60, 0
2, 203642, Note_on_c, 0, 64, 73
2, 203664, Note_on_c, 0, 62, 0
2, 203686, Note_on_c, 0, 55, 0
2, 203896, Note_on_c, 0, 62, 58
2, 203899, Note_on_c, 0, 42, 40
2, 203906, Note_on_c, 0, 57, 39
2, 203964, Note_on_c, 0, 40, 0
2, 203964, Control_c, 0, 64, 0
2, 204050, Note_on_c, 0, 64, 0
2, 204718, Control_c, 0, 64, 127
2, 204882, Note_on_c, 0, 59, 47
2, 204902, Note_on_c, 0, 43, 49
2, 204912, Note_on_c, 0, 42, 0
2, 204926, Note_on_c, 0, 57, 0
2, 205340, Note_on_c, 0, 64, 85
2, 205348, Control_c, 0, 64, 0
2, 205422, Note_on_c, 0, 62, 0
2, 205534, Control_c, 0, 64, 127
2, 205566, Note_on_c, 0, 59, 0
2, 205574, Note_on_c, 0, 50, 0
2, 205578, Note_on_c, 0, 64, 0
2, 205826, Note_on_c, 0, 60, 56
2, 205828, Note_on_c, 0, 50, 40
2, 205828, Note_on_c, 0, 64, 83
2, 205842, Note_on_c, 0, 45, 37
2, 205880, Note_on_c, 0, 43, 0
2, 206086, Control_c, 0, 64, 0
2, 206316, Control_c, 0, 64, 127
2, 206348, Note_on_c, 0, 66, 57
2, 206440, Control_c, 0, 64, 0
2, 206470, Note_on_c, 0, 64, 0
2, 206620, Note_on_c, 0, 67, 65
2, 206690, Note_on_c, 0, 66, 0
2, 206732, Control_c, 0, 64, 127
2, 206760, Note_on_c, 0, 60, 0
2, 206920, Note_on_c, 0, 66, 54
2, 206952, Note_on_c, 0, 62, 34
2, 206955, Note_on_c, 0, 47, 33
2, 206984, Note_on_c, 0, 45, 0
2, 207008, Control_c, 0, 64, 0
2, 207024, Note_on_c, 0, 67, 0
2, 207284, Control_c, 0, 64, 127
2, 207440, Note_on_c, 0, 67, 74
2, 207460, Note_on_c, 0, 50, 0
2, 207464, Note_on_c, 0, 52, 67
2, 207528, Note_on_c, 0, 66, 0
2, 207700, Control_c, 0, 64, 0
2, 207766, Note_on_c, 0, 62, 0
2, 207838, Control_c, 0, 64, 127
2, 207912, Note_on_c, 0, 47, 0
2, 207918, Note_on_c, 0, 52, 0
2, 207920, Note_on_c, 0, 69, 77
2, 207928, Note_on_c, 0, 54, 78
2, 207936, Note_on_c, 0, 45, 49
2, 207954, Note_on_c, 0, 62, 32
2, 207990, Note_on_c, 0, 67, 0
2, 208038, Control_c, 0, 64, 0
2, 208168, Note_on_c, 0, 45, 0
2, 208190, Control_c, 0, 64, 127
2, 208326, Note_on_c, 0, 43, 27
2, 208342, Note_on_c, 0, 54, 0
2, 208376, Control_c, 0, 64, 0
2, 208442, Note_on_c, 0, 43, 0
2, 208474, Note_on_c, 0, 74, 85
2, 208498, Control_c, 0, 64, 127
2, 208500, Note_on_c, 0, 59, 80
2, 208520, Note_on_c, 0, 69, 0
2, 208686, Note_on_c, 0, 74, 0
2, 208748, Note_on_c, 0, 59, 0
2, 208756, Note_on_c, 0, 62, 0
2, 209000, Note_on_c, 0, 62, 92
2, 209010, Note_on_c, 0, 57, 52
2, 209038, Note_on_c, 0, 42, 47
2, 209190, Control_c, 0, 64, 0
2, 209344, Control_c, 0, 64, 127
2, 209356, Note_on_c, 0, 57, 0
2, 209428, Note_on_c, 0, 42, 0
2, 209494, Note_on_c, 0, 67, 86
2, 209502, Note_on_c, 0, 59, 59
2, 209518, Note_on_c, 0, 43, 55
2, 209576, Note_on_c, 0, 62, 0
2, 209620, Control_c, 0, 64, 0
2, 209804, Control_c, 0, 64, 127
2, 209812, Note_on_c, 0, 43, 0
2, 209852, Note_on_c, 0, 59, 0
2, 209970, Note_on_c, 0, 66, 71
2, 209982, Note_on_c, 0, 62, 44
2, 209990, Note_on_c, 0, 57, 37
2, 209993, Note_on_c, 0, 45, 44
2, 210046, Note_on_c, 0, 67, 0
2, 210128, Control_c, 0, 64, 0
2, 210472, Note_on_c, 0, 64, 69
2, 210482, Note_on_c, 0, 66, 0
2, 210680, Control_c, 0, 64, 127
2, 210706, Note_on_c, 0, 62, 0
2, 210740, Note_on_c, 0, 64, 0
2, 210756, Note_on_c, 0, 57, 0
2, 210986, Note_on_c, 0, 61, 47
2, 210986, Note_on_c, 0, 64, 56
2, 211008, Note_on_c, 0, 55, 40
2, 211034, Control_c, 0, 64, 0
2, 211612, Note_on_c, 0, 62, 60
2, 211626, Note_on_c, 0, 64, 0
2, 211846, Note_on_c, 0, 62, 0
2, 211862, Note_on_c, 0, 55, 0
2, 211862, Control_c, 0, 64, 127
2, 211865, Note_on_c, 0, 61, 0
2, 212168, Note_on_c, 0, 55, 43
2, 212173, Note_on_c, 0, 62, 24
2, 212192, Note_on_c, 0, 50, 27
2, 212195, Note_on_c, 0, 57, 13
2, 212202, Control_c, 0, 64, 0
2, 212310, Note_on_c, 0, 45, 0
2, 212522, Note_on_c, 0, 55, 0
2, 212522, Note_on_c, 0, 52, 56
2, 212948, Note_on_c, 0, 54, 39
2, 212958, Note_on_c, 0, 52, 0
2, 213201, Control_c, 0, 64, 127
2, 213236, Note_on_c, 0, 54, 0
2, 213266, Note_on_c, 0, 57, 0
2, 213266, Note_on_c, 0, 62, 0
2, 213269, Note_on_c, 0, 50, 0
2, 213604, Note_on_c, 0, 54, 37
2, 213626, Note_on_c, 0, 62, 23
2, 213632, Note_on_c, 0, 57, 18
2, 214780, Note_on_c, 0, 38, 23
2, 215214, Note_on_c, 0, 38, 0
2, 215226, Note_on_c, 0, 54, 0
2, 215260, Note_on_c, 0, 57, 0
2, 215306, Note_on_c, 0, 62, 0
2, 216486, Note_on_c, 0, 67, 21
2, 216520, Note_on_c, 0, 62, 21
2, 216532, Note_on_c, 0, 59, 21
2, 216542, Note_on_c, 0, 55, 14
2, 216656, Control_c, 0, 64, 0
2, 216902, Control_c, 0, 64, 127
2, 217060, Note_on_c, 0, 69, 32
2, 217132, Note_on_c, 0, 67, 0
2, 217134, Control_c, 0, 64, 0
2, 217302, Control_c, 0, 64, 127
2, 217328, Note_on_c, 0, 62, 0
2, 217360, Note_on_c, 0, 69, 0
2, 217690, Note_on_c, 0, 59, 0
2, 217702, Note_on_c, 0, 69, 31
2, 217724, Note_on_c, 0, 60, 13
2, 217742, Note_on_c, 0, 64, 9
2, 218010, Control_c, 0, 64, 0
2, 218300, Control_c, 0, 64, 127
2, 218568, Note_on_c, 0, 55, 0
2, 218738, Note_on_c, 0, 54, 33
2, 219146, Control_c, 0, 64, 0
2, 219288, Note_on_c, 0, 64, 0
2, 219300, Control_c, 0, 64, 127
2, 219316, Note_on_c, 0, 69, 0
2, 219336, Note_on_c, 0, 60, 0
2, 219350, Note_on_c, 0, 54, 0
2, 219680, Note_on_c, 0, 67, 29
2, 219694, Note_on_c, 0, 71, 50
2, 219722, Note_on_c, 0, 62, 23
2, 219738, Note_on_c, 0, 53, 44
2, 219898, Control_c, 0, 64, 0
2, 220084, Control_c, 0, 64, 127
2, 220230, Note_on_c, 0, 62, 0
2, 220270, Note_on_c, 0, 72, 46
2, 220302, Note_on_c, 0, 60, 20
2, 220320, Note_on_c, 0, 71, 0
2, 220344, Control_c, 0, 64, 0
2, 220468, Control_c, 0, 64, 127
2, 220502, Note_on_c, 0, 60, 0
2, 220508, Note_on_c, 0, 74, 62
2, 220516, Note_on_c, 0, 72, 0
2, 220520, Note_on_c, 0, 59, 34
2, 220530, Note_on_c, 0, 67, 0
2, 220542, Note_on_c, 0, 53, 0
2, 220616, Note_on_c, 0, 59, 0
2, 220744, Note_on_c, 0, 72, 70
2, 220776, Note_on_c, 0, 74, 0
2, 220776, Note_on_c, 0, 52, 42
2, 220790, Note_on_c, 0, 67, 21
2, 220802, Note_on_c, 0, 60, 32
2, 220852, Control_c, 0, 64, 0
2, 221002, Note_on_c, 0, 60, 0
2, 221005, Control_c, 0, 64, 127
2, 221180, Note_on_c, 0, 67, 0
2, 221196, Note_on_c, 0, 71, 48
2, 221210, Note_on_c, 0, 66, 19
2, 221226, Note_on_c, 0, 52, 0
2, 221232, Note_on_c, 0, 62, 14
2, 221236, Note_on_c, 0, 72, 0
2, 221252, Note_on_c, 0, 50, 8
2, 221266, Control_c, 0, 64, 0
2, 221440, Note_on_c, 0, 62, 0
2, 221466, Control_c, 0, 64, 127
2, 221516, Note_on_c, 0, 71, 0
2, 221520, Note_on_c, 0, 66, 0
2, 221560, Note_on_c, 0, 50, 0
2, 221766, Note_on_c, 0, 71, 41
2, 221778, Note_on_c, 0, 62, 20
2, 221826, Note_on_c, 0, 55, 17
2, 221830, Note_on_c, 0, 67, 3
2, 222050, Control_c, 0, 64, 0
2, 222250, Control_c, 0, 64, 127
2, 222408, Note_on_c, 0, 62, 0
2, 222436, Note_on_c, 0, 67, 0
2, 222456, Note_on_c, 0, 55, 0
2, 222990, Note_on_c, 0, 67, 34
2, 223000, Note_on_c, 0, 47, 25
2, 223000, Note_on_c, 0, 55, 19
2, 223006, Note_on_c, 0, 62, 16
2, 223026, Note_on_c, 0, 71, 0
2, 223264, Control_c, 0, 64, 0
2, 223448, Control_c, 0, 64, 127
2, 223496, Note_on_c, 0, 69, 29
2, 223542, Note_on_c, 0, 55, 0
2, 223560, Note_on_c, 0, 67, 0
2, 223692, Note_on_c, 0, 62, 0
2, 223744, Note_on_c, 0, 71, 54
2, 223754, Note_on_c, 0, 69, 0
2, 223966, Note_on_c, 0, 69, 52
2, 223974, Note_on_c, 0, 64, 39
2, 223988, Note_on_c, 0, 59, 27
2, 224008, Note_on_c, 0, 52, 27
2, 224028, Note_on_c, 0, 71, 0
2, 224088, Note_on_c, 0, 47, 0
2, 224140, Control_c, 0, 64, 0
2, 224452, Note_on_c, 0, 69, 0
2, 224454, Note_on_c, 0, 67, 62
2, 224462, Control_c, 0, 64, 127
2, 224578, Note_on_c, 0, 64, 0
2, 224614, Note_on_c, 0, 59, 0
2, 224634, Note_on_c, 0, 67, 0
2, 224902, Note_on_c, 0, 52, 0
2, 224926, Note_on_c, 0, 66, 55
2, 224932, Note_on_c, 0, 60, 34
2, 224962, Note_on_c, 0, 57, 20
2, 224964, Note_on_c, 0, 45, 18
2, 225324, Control_c, 0, 64, 0
2, 225368, Note_on_c, 0, 64, 72
2, 225396, Note_on_c, 0, 66, 0
2, 225492, Control_c, 0, 64, 127
2, 225518, Note_on_c, 0, 45, 0
2, 225582, Note_on_c, 0, 57, 0
2, 225588, Note_on_c, 0, 60, 0
2, 225668, Note_on_c, 0, 64, 0
2, 225718, Note_on_c, 0, 66, 33
2, 225780, Note_on_c, 0, 67, 52
2, 225782, Note_on_c, 0, 66, 0
2, 225848, Note_on_c, 0, 50, 33
2, 225854, Note_on_c, 0, 66, 39
2, 225862, Note_on_c, 0, 57, 23
2, 225868, Note_on_c, 0, 62, 32
2, 225876, Note_on_c, 0, 67, 0
2, 225892, Control_c, 0, 64, 0
2, 226122, Control_c, 0, 64, 127
2, 226126, Note_on_c, 0, 64, 47
2, 226138, Note_on_c, 0, 62, 0
2, 226170, Note_on_c, 0, 66, 0
2, 226230, Note_on_c, 0, 57, 0
2, 226392, Note_on_c, 0, 64, 0
2, 226402, Note_on_c, 0, 62, 43
2, 226416, Note_on_c, 0, 59, 18
2, 226428, Note_on_c, 0, 55, 23
2, 226428, Control_c, 0, 64, 0
2, 226568, Control_c, 0, 64, 127
2, 226580, Note_on_c, 0, 62, 0
2, 226646, Note_on_c, 0, 55, 0
2, 226754, Note_on_c, 0, 50, 0
2, 226754, Note_on_c, 0, 54, 31
2, 226762, Note_on_c, 0, 59, 0
2, 226820, Note_on_c, 0, 55, 46
2, 226826, Note_on_c, 0, 54, 0
2, 226876, Note_on_c, 0, 62, 44
2, 226882, Note_on_c, 0, 55, 0
2, 226890, Note_on_c, 0, 57, 28
2, 226912, Note_on_c, 0, 54, 54
2, 226922, Control_c, 0, 64, 0
2, 227112, Note_on_c, 0, 54, 0
2, 227170, Note_on_c, 0, 57, 0
2, 227170, Note_on_c, 0, 52, 47
2, 227173, Note_on_c, 0, 55, 41
2, 227384, Note_on_c, 0, 52, 0
2, 227389, Note_on_c, 0, 55, 0
2, 227428, Note_on_c, 0, 54, 42
2, 227438, Note_on_c, 0, 50, 39
2, 227662, Note_on_c, 0, 50, 0
2, 227674, Control_c, 0, 64, 127
2, 227680, Note_on_c, 0, 54, 0
2, 227980, Control_c, 0, 64, 0
2, 228002, Note_on_c, 0, 54, 41
2, 228022, Note_on_c, 0, 50, 34
2, 228410, Control_c, 0, 64, 127
2, 228440, Note_on_c, 0, 54, 0
2, 228442, Note_on_c, 0, 62, 0
2, 229404, Note_on_c, 0, 60, 43
2, 229428, Note_on_c, 0, 40, 51
2, 229431, Note_on_c, 0, 55, 26
2, 229456, Control_c, 0, 64, 0
2, 229922, Note_on_c, 0, 62, 55
2, 230000, Note_on_c, 0, 60, 0
2, 230164, Control_c, 0, 64, 127
2, 230164, Note_on_c, 0, 64, 72
2, 230178, Note_on_c, 0, 62, 0
2, 230258, Note_on_c, 0, 55, 0
2, 230456, Note_on_c, 0, 62, 67
2, 230462, Note_on_c, 0, 57, 39
2, 230470, Note_on_c, 0, 42, 39
2, 230562, Note_on_c, 0, 40, 0
2, 230642, Note_on_c, 0, 64, 0
2, 230716, Control_c, 0, 64, 0
2, 231300, Control_c, 0, 64, 127
2, 231546, Note_on_c, 0, 42, 0
2, 231574, Note_on_c, 0, 57, 0
2, 231594, Note_on_c, 0, 59, 33
2, 231602, Note_on_c, 0, 43, 35
2, 231698, Control_c, 0, 64, 0
2, 231992, Control_c, 0, 64, 127
2, 232084, Note_on_c, 0, 64, 58
2, 232124, Note_on_c, 0, 62, 0
2, 232160, Control_c, 0, 64, 0
2, 232284, Control_c, 0, 64, 127
2, 232308, Note_on_c, 0, 59, 0
2, 232344, Note_on_c, 0, 50, 0
2, 232346, Note_on_c, 0, 64, 0
2, 232586, Note_on_c, 0, 43, 0
2, 232630, Note_on_c, 0, 45, 28
2, 232630, Note_on_c, 0, 64, 72
2, 232636, Note_on_c, 0, 60, 31
2, 232640, Note_on_c, 0, 50, 42
2, 233114, Control_c, 0, 64, 0
2, 233136, Note_on_c, 0, 66, 57
2, 233266, Control_c, 0, 64, 127
2, 233272, Note_on_c, 0, 64, 0
2, 233384, Note_on_c, 0, 67, 82
2, 233442, Note_on_c, 0, 66, 0
2, 233484, Note_on_c, 0, 60, 0
2, 233636, Note_on_c, 0, 66, 71
2, 233660, Note_on_c, 0, 62, 42
2, 233662, Note_on_c, 0, 45, 0
2, 233682, Note_on_c, 0, 47, 44
2, 233774, Note_on_c, 0, 67, 0
2, 233866, Control_c, 0, 64, 0
2, 234080, Control_c, 0, 64, 127
2, 234176, Note_on_c, 0, 50, 0
2, 234176, Note_on_c, 0, 67, 81
2, 234202, Note_on_c, 0, 52, 63
2, 234370, Note_on_c, 0, 66, 0
2, 234388, Control_c, 0, 64, 0
2, 234482, Note_on_c, 0, 62, 0
2, 234526, Control_c, 0, 64, 127
2, 234578, Note_on_c, 0, 47, 0
2, 234612, Note_on_c, 0, 52, 0
2, 234654, Note_on_c, 0, 69, 71
2, 234672, Note_on_c, 0, 62, 42
2, 234676, Note_on_c, 0, 54, 63
2, 234680, Note_on_c, 0, 45, 44
2, 234718, Note_on_c, 0, 67, 0
2, 234818, Control_c, 0, 64, 0
2, 234932, Note_on_c, 0, 45, 0
2, 234972, Control_c, 0, 64, 127
2, 235012, Note_on_c, 0, 54, 0
2, 235072, Note_on_c, 0, 43, 74
2, 235080, Control_c, 0, 64, 0
2, 235180, Note_on_c, 0, 43, 0
2, 235194, Note_on_c, 0, 74, 79
2, 235204, Note_on_c, 0, 69, 0
2, 235234, Control_c, 0, 64, 127
2, 235244, Note_on_c, 0, 59, 83
2, 235378, Note_on_c, 0, 74, 0
2, 235424, Note_on_c, 0, 62, 0
2, 235456, Note_on_c, 0, 59, 0
2, 235706, Note_on_c, 0, 62, 96
2, 235718, Note_on_c, 0, 57, 63
2, 235734, Note_on_c, 0, 42, 57
2, 235986, Control_c, 0, 64, 0
2, 236094, Note_on_c, 0, 57, 0
2, 236108, Control_c, 0, 64, 127
2, 236184, Note_on_c, 0, 42, 0
2, 236210, Note_on_c, 0, 67, 90
2, 236222, Note_on_c, 0, 59, 57
2, 236254, Note_on_c, 0, 43, 49
2, 236286, Note_on_c, 0, 62, 0
2, 236370, Control_c, 0, 64, 0
2, 236540, Control_c, 0, 64, 127
2, 236566, Note_on_c, 0, 43, 0
2, 236636, Note_on_c, 0, 59, 0
2, 236720, Note_on_c, 0, 66, 73
2, 236728, Note_on_c, 0, 62, 59
2, 236756, Note_on_c, 0, 45, 39
2, 236760, Note_on_c, 0, 67, 0
2, 236762, Note_on_c, 0, 57, 28
2, 237000, Control_c, 0, 64, 0
2, 237304, Note_on_c, 0, 64, 67
2, 237326, Note_on_c, 0, 66, 0
2, 237522, Control_c, 0, 64, 127
2, 237560, Note_on_c, 0, 62, 0
2, 237586, Note_on_c, 0, 64, 0
2, 237598, Note_on_c, 0, 57, 0
2, 237808, Note_on_c, 0, 61, 46
2, 237813, Note_on_c, 0, 64, 63
2, 237858, Note_on_c, 0, 55, 35
2, 237984, Control_c, 0, 64, 0
2, 238468, Note_on_c, 0, 64, 0
2, 238468, Note_on_c, 0, 62, 51
2, 238674, Note_on_c, 0, 62, 0
2, 238674, Control_c, 0, 64, 127
2, 238702, Note_on_c, 0, 61, 0
2, 238710, Note_on_c, 0, 55, 0
2, 238994, Note_on_c, 0, 62, 47
2, 239006, Note_on_c, 0, 57, 27
2, 239012, Note_on_c, 0, 55, 42
2, 239020, Note_on_c, 0, 50, 24
2, 239058, Control_c, 0, 64, 0
2, 239136, Note_on_c, 0, 45, 0
2, 239326, Note_on_c, 0, 55, 0
2, 239334, Note_on_c, 0, 52, 55
2, 239598, Control_c, 0, 64, 127
2, 239628, Control_c, 0, 64, 0
2, 239698, Note_on_c, 0, 52, 0
2, 239718, Note_on_c, 0, 54, 40
2, 239935, Control_c, 0, 64, 127
2, 239970, Note_on_c, 0, 62, 0
2, 240024, Note_on_c, 0, 57, 0
2, 240050, Note_on_c, 0, 54, 0
2, 240422, Note_on_c, 0, 62, 37
2, 240425, Note_on_c, 0, 54, 32
2, 240446, Note_on_c, 0, 57, 24
2, 240749, Control_c, 0, 64, 0
2, 241010, Control_c, 0, 64, 127
2, 241206, Note_on_c, 0, 50, 0
2, 241598, Note_on_c, 0, 38, 19
2, 241656, Control_c, 0, 64, 0
2, 241886, Control_c, 0, 64, 127
2, 241938, Note_on_c, 0, 54, 0
2, 241954, Note_on_c, 0, 38, 0
2, 241974, Note_on_c, 0, 62, 0
2, 241990, Note_on_c, 0, 57, 0
2, 243056, Note_on_c, 0, 71, 44
2, 243064, Note_on_c, 0, 59, 21
2, 243088, Note_on_c, 0, 66, 17
2, 243094, Note_on_c, 0, 50, 23
2, 243146, Control_c, 0, 64, 0
2, 243484, Control_c, 0, 64, 127
2, 243584, Note_on_c, 0, 73, 48
2, 243728, Note_on_c, 0, 71, 0
2, 243798, Note_on_c, 0, 74, 78
2, 243830, Note_on_c, 0, 73, 0
2, 244026, Note_on_c, 0, 73, 69
2, 244064, Note_on_c, 0, 74, 0
2, 244192, Control_c, 0, 64, 0
2, 244390, Control_c, 0, 64, 127
2, 244584, Note_on_c, 0, 71, 54
2, 244662, Note_on_c, 0, 66, 0
2, 244774, Control_c, 0, 64, 0
2, 244802, Note_on_c, 0, 73, 0
2, 244914, Control_c, 0, 64, 127
2, 245000, Note_on_c, 0, 67, 37
2, 245010, Note_on_c, 0, 50, 0
2, 245048, Note_on_c, 0, 52, 31
2, 245336, Note_on_c, 0, 71, 0
2, 245400, Note_on_c, 0, 73, 67
2, 245550, Note_on_c, 0, 73, 0
2, 245682, Note_on_c, 0, 70, 47
2, 245734, Note_on_c, 0, 70, 0
2, 245738, Note_on_c, 0, 71, 82
2, 245776, Note_on_c, 0, 67, 0
2, 245798, Note_on_c, 0, 70, 47
2, 245808, Note_on_c, 0, 66, 37
2, 245812, Note_on_c, 0, 52, 0
2, 245844, Note_on_c, 0, 71, 0
2, 245844, Note_on_c, 0, 54, 39
2, 245896, Control_c, 0, 64, 0
2, 245964, Note_on_c, 0, 59, 0
2, 246056, Note_on_c, 0, 68, 63
2, 246066, Control_c, 0, 64, 127
2, 246128, Note_on_c, 0, 70, 0
2, 246130, Note_on_c, 0, 66, 0
2, 246262, Note_on_c, 0, 66, 54
2, 246268, Note_on_c, 0, 59, 43
2, 246286, Note_on_c, 0, 68, 0
2, 246290, Note_on_c, 0, 62, 40
2, 246326, Control_c, 0, 64, 0
2, 246448, Note_on_c, 0, 66, 0
2, 246450, Control_c, 0, 64, 127
2, 246494, Note_on_c, 0, 59, 0
2, 246524, Note_on_c, 0, 58, 44
2, 246588, Note_on_c, 0, 58, 0
2, 246591, Note_on_c, 0, 59, 54
2, 246634, Control_c, 0, 64, 0
2, 246642, Note_on_c, 0, 59, 0
2, 246662, Note_on_c, 0, 58, 41
2, 246668, Note_on_c, 0, 61, 62
2, 246670, Note_on_c, 0, 66, 40
2, 246682, Note_on_c, 0, 62, 0
2, 246886, Note_on_c, 0, 56, 43
2, 246902, Note_on_c, 0, 58, 0
2, 246905, Note_on_c, 0, 54, 0
2, 247124, Note_on_c, 0, 54, 60
2, 247134, Note_on_c, 0, 56, 0
2, 247402, Control_c, 0, 64, 127
2, 247470, Note_on_c, 0, 54, 0
2, 247612, Note_on_c, 0, 54, 47
2, 247768, Note_on_c, 0, 66, 0
2, 247806, Note_on_c, 0, 61, 0
2, 248556, Note_on_c, 0, 71, 74
2, 248568, Note_on_c, 0, 66, 27
2, 248594, Note_on_c, 0, 59, 28
2, 248598, Note_on_c, 0, 54, 0
2, 248606, Note_on_c, 0, 50, 29
2, 248770, Control_c, 0, 64, 0
2, 248954, Control_c, 0, 64, 127
2, 248988, Note_on_c, 0, 73, 81
2, 249086, Note_on_c, 0, 71, 0
2, 249256, Note_on_c, 0, 74, 104
2, 249259, Note_on_c, 0, 59, 0
2, 249316, Note_on_c, 0, 73, 0
2, 249340, Note_on_c, 0, 66, 0
2, 249372, Note_on_c, 0, 74, 0
2, 249446, Note_on_c, 0, 50, 0
2, 249566, Note_on_c, 0, 74, 97
2, 249572, Note_on_c, 0, 66, 60
2, 249598, Note_on_c, 0, 49, 33
2, 249610, Note_on_c, 0, 59, 35
2, 249998, Control_c, 0, 64, 0
2, 250180, Note_on_c, 0, 73, 71
2, 250238, Note_on_c, 0, 74, 0
2, 250460, Control_c, 0, 64, 127
2, 250482, Note_on_c, 0, 73, 0
2, 250518, Note_on_c, 0, 66, 0
2, 250648, Note_on_c, 0, 73, 49
2, 250692, Note_on_c, 0, 65, 21
2, 250890, Control_c, 0, 64, 0
2, 251074, Control_c, 0, 64, 127
2, 251116, Note_on_c, 0, 70, 48
2, 251154, Note_on_c, 0, 73, 0
2, 251192, Note_on_c, 0, 65, 0
2, 251244, Note_on_c, 0, 70, 0
2, 251388, Note_on_c, 0, 70, 39
2, 251446, Note_on_c, 0, 70, 0
2, 251462, Note_on_c, 0, 71, 58
2, 251484, Note_on_c, 0, 59, 0
2, 251548, Note_on_c, 0, 71, 0
2, 251548, Note_on_c, 0, 70, 17
2, 251566, Note_on_c, 0, 66, 18
2, 251580, Note_on_c, 0, 54, 21
2, 251612, Control_c, 0, 64, 0
2, 251684, Note_on_c, 0, 49, 0
2, 251828, Control_c, 0, 64, 127
2, 251846, Note_on_c, 0, 68, 29
2, 251896, Note_on_c, 0, 70, 0
2, 251898, Note_on_c, 0, 66, 0
2, 252186, Note_on_c, 0, 68, 0
2, 252194, Note_on_c, 0, 66, 28
2, 252202, Note_on_c, 0, 62, 18
2, 252212, Note_on_c, 0, 59, 28
2, 252288, Control_c, 0, 64, 0
2, 252426, Control_c, 0, 64, 127
2, 252458, Note_on_c, 0, 66, 0
2, 252518, Note_on_c, 0, 59, 0
2, 252564, Note_on_c, 0, 58, 16
2, 252636, Note_on_c, 0, 59, 36
2, 252698, Note_on_c, 0, 59, 0
2, 252746, Note_on_c, 0, 61, 47
2, 252749, Note_on_c, 0, 62, 0
2, 252758, Note_on_c, 0, 66, 19
2, 252764, Control_c, 0, 64, 0
2, 252934, Control_c, 0, 64, 127
2, 252986, Note_on_c, 0, 56, 33
2, 253006, Note_on_c, 0, 58, 0
2, 253018, Note_on_c, 0, 54, 0
2, 253256, Note_on_c, 0, 56, 0
2, 253272, Note_on_c, 0, 54, 50
2, 253286, Control_c, 0, 64, 0
2, 253558, Note_on_c, 0, 54, 0
2, 253564, Control_c, 0, 64, 127
2, 253794, Control_c, 0, 64, 0
2, 253840, Note_on_c, 0, 54, 36
2, 254162, Control_c, 0, 64, 127
2, 254266, Note_on_c, 0, 66, 0
2, 254268, Note_on_c, 0, 61, 0
2, 255012, Note_on_c, 0, 54, 0
2, 255038, Note_on_c, 0, 66, 40
2, 255046, Note_on_c, 0, 59, 43
2, 255066, Note_on_c, 0, 50, 27
2, 255284, Control_c, 0, 64, 0
2, 255546, Control_c, 0, 64, 127
2, 255668, Note_on_c, 0, 61, 72
2, 255824, Note_on_c, 0, 59, 0
2, 255948, Note_on_c, 0, 62, 86
2, 256002, Note_on_c, 0, 61, 0
2, 256078, Note_on_c, 0, 62, 0
2, 256096, Note_on_c, 0, 66, 0
2, 256138, Note_on_c, 0, 62, 63
2, 256222, Note_on_c, 0, 67, 69
2, 256252, Note_on_c, 0, 50, 0
2, 256272, Note_on_c, 0, 52, 28
2, 256360, Control_c, 0, 64, 0
2, 256514, Control_c, 0, 64, 127
2, 256774, Note_on_c, 0, 62, 0
2, 256792, Note_on_c, 0, 61, 44
2, 257020, Control_c, 0, 64, 0
2, 257174, Control_c, 0, 64, 127
2, 257256, Note_on_c, 0, 46, 29
2, 257280, Note_on_c, 0, 52, 0
2, 257544, Control_c, 0, 64, 0
2, 257696, Control_c, 0, 64, 127
2, 257818, Note_on_c, 0, 66, 34
2, 257882, Note_on_c, 0, 67, 0
2, 257974, Control_c, 0, 64, 0
2, 258142, Control_c, 0, 64, 127
2, 258196, Note_on_c, 0, 66, 0
2, 258246, Note_on_c, 0, 61, 0
2, 258322, Note_on_c, 0, 66, 34
2, 258330, Note_on_c, 0, 50, 42
2, 258332, Note_on_c, 0, 59, 60
2, 258404, Note_on_c, 0, 46, 0
2, 258542, Control_c, 0, 64, 0
2, 258662, Note_on_c, 0, 61, 77
2, 258712, Control_c, 0, 64, 127
2, 258718, Note_on_c, 0, 59, 0
2, 258812, Note_on_c, 0, 61, 0
2, 258886, Note_on_c, 0, 61, 75
2, 259092, Note_on_c, 0, 61, 0
2, 259114, Note_on_c, 0, 62, 70
2, 259164, Note_on_c, 0, 62, 0
2, 259172, Note_on_c, 0, 66, 0
2, 259242, Note_on_c, 0, 62, 65
2, 259352, Note_on_c, 0, 52, 47
2, 259382, Note_on_c, 0, 50, 0
2, 259408, Note_on_c, 0, 67, 65
2, 259664, Control_c, 0, 64, 0
2, 259972, Control_c, 0, 64, 127
2, 259986, Note_on_c, 0, 61, 52
2, 260086, Note_on_c, 0, 62, 0
2, 260170, Control_c, 0, 64, 0
2, 260356, Control_c, 0, 64, 127
2, 260484, Note_on_c, 0, 46, 37
2, 260536, Note_on_c, 0, 52, 0
2, 260770, Control_c, 0, 64, 0
2, 260924, Control_c, 0, 64, 127
2, 261140, Note_on_c, 0, 66, 41
2, 261174, Note_on_c, 0, 67, 0
2, 261216, Control_c, 0, 64, 0
2, 261384, Control_c, 0, 64, 127
2, 261424, Note_on_c, 0, 61, 0
2, 261550, Note_on_c, 0, 66, 0
2, 261564, Note_on_c, 0, 59, 67
2, 261682, Note_on_c, 0, 50, 41
2, 261716, Note_on_c, 0, 66, 66
2, 261734, Note_on_c, 0, 46, 0
2, 261784, Control_c, 0, 64, 0
2, 261952, Control_c, 0, 64, 127
2, 261970, Note_on_c, 0, 66, 0
2, 262032, Note_on_c, 0, 66, 75
2, 262035, Note_on_c, 0, 69, 73
2, 262064, Note_on_c, 0, 59, 0
2, 262180, Note_on_c, 0, 69, 0
2, 262182, Note_on_c, 0, 66, 0
2, 262270, Note_on_c, 0, 69, 55
2, 262282, Note_on_c, 0, 66, 46
2, 262430, Note_on_c, 0, 66, 0
2, 262510, Note_on_c, 0, 67, 79
2, 262512, Note_on_c, 0, 64, 80
2, 262522, Note_on_c, 0, 69, 0
2, 262624, Note_on_c, 0, 64, 0
2, 262780, Note_on_c, 0, 67, 0
2, 262780, Note_on_c, 0, 66, 75
2, 262788, Note_on_c, 0, 62, 83
2, 262800, Note_on_c, 0, 50, 0
2, 262800, Note_on_c, 0, 52, 41
2, 262998, Control_c, 0, 64, 0
2, 263244, Control_c, 0, 64, 127
2, 263266, Note_on_c, 0, 61, 74
2, 263271, Note_on_c, 0, 64, 85
2, 263308, Note_on_c, 0, 62, 0
2, 263318, Note_on_c, 0, 66, 0
2, 263474, Control_c, 0, 64, 0
2, 263628, Control_c, 0, 64, 127
2, 263746, Note_on_c, 0, 54, 46
2, 263752, Note_on_c, 0, 62, 80
2, 263752, Note_on_c, 0, 59, 55
2, 263774, Note_on_c, 0, 61, 0
2, 263780, Note_on_c, 0, 52, 0
2, 263786, Note_on_c, 0, 64, 0
2, 263858, Control_c, 0, 64, 0
2, 264058, Control_c, 0, 64, 127
2, 264128, Note_on_c, 0, 62, 0
2, 264244, Note_on_c, 0, 61, 78
2, 264247, Note_on_c, 0, 58, 52
2, 264308, Note_on_c, 0, 59, 0
2, 264396, Control_c, 0, 64, 0
2, 264550, Control_c, 0, 64, 127
2, 264553, Note_on_c, 0, 58, 0
2, 264558, Note_on_c, 0, 61, 0
2, 264728, Note_on_c, 0, 61, 63
2, 264738, Note_on_c, 0, 58, 44
2, 264780, Note_on_c, 0, 47, 36
2, 264824, Note_on_c, 0, 54, 0
2, 264934, Control_c, 0, 64, 0
2, 265210, Control_c, 0, 64, 127
2, 265254, Note_on_c, 0, 58, 0
2, 265258, Control_c, 0, 64, 0
2, 265294, Note_on_c, 0, 62, 50
2, 265314, Note_on_c, 0, 61, 0
2, 265328, Note_on_c, 0, 59, 29
2, 265564, Control_c, 0, 64, 127
2, 265618, Note_on_c, 0, 59, 0
2, 265672, Note_on_c, 0, 62, 0
2, 265826, Control_c, 0, 64, 0
2, 265842, Note_on_c, 0, 42, 29
2, 265858, Note_on_c, 0, 62, 42
2, 265884, Note_on_c, 0, 59, 14
2, 265916, Note_on_c, 0, 47, 0
2, 266024, Control_c, 0, 64, 127
2, 266178, Control_c, 0, 64, 0
2, 266286, Control_c, 0, 64, 127
2, 266332, Control_c, 0, 64, 0
2, 266502, Control_c, 0, 64, 127
2, 266916, Control_c, 0, 64, 0
2, 266928, Note_on_c, 0, 35, 39
2, 266944, Note_on_c, 0, 42, 0
2, 267254, Control_c, 0, 64, 127
2, 267324, Note_on_c, 0, 35, 0
2, 267630, Note_on_c, 0, 62, 0
2, 267750, Note_on_c, 0, 59, 0
2, 268158, Note_on_c, 0, 50, 34
2, 268161, Note_on_c, 0, 42, 39
2, 268176, Control_c, 0, 64, 0
2, 268500, Control_c, 0, 64, 127
2, 268706, Note_on_c, 0, 60, 44
2, 268714, Note_on_c, 0, 57, 31
2, 268730, Control_c, 0, 64, 0
2, 268948, Note_on_c, 0, 57, 0
2, 268968, Note_on_c, 0, 62, 65
2, 268976, Note_on_c, 0, 59, 63
2, 268998, Note_on_c, 0, 60, 0
2, 269114, Control_c, 0, 64, 127
2, 269220, Control_c, 0, 64, 0
2, 269234, Note_on_c, 0, 62, 0
2, 269236, Note_on_c, 0, 60, 78
2, 269242, Note_on_c, 0, 57, 54
2, 269246, Note_on_c, 0, 59, 0
2, 269466, Control_c, 0, 64, 127
2, 269468, Note_on_c, 0, 57, 0
2, 269490, Note_on_c, 0, 60, 0
2, 269744, Control_c, 0, 64, 0
2, 269764, Note_on_c, 0, 69, 57
2, 269816, Note_on_c, 0, 60, 42
2, 270112, Control_c, 0, 64, 127
2, 270234, Note_on_c, 0, 42, 0
2, 270250, Control_c, 0, 64, 0
2, 270260, Note_on_c, 0, 38, 34
2, 270466, Note_on_c, 0, 60, 0
2, 270466, Control_c, 0, 64, 127
2, 270704, Note_on_c, 0, 69, 0
2, 270758, Control_c, 0, 64, 0
2, 270758, Note_on_c, 0, 60, 60
2, 270768, Note_on_c, 0, 57, 33
2, 270922, Note_on_c, 0, 50, 0
2, 270925, Control_c, 0, 64, 127
2, 270978, Note_on_c, 0, 60, 0
2, 271026, Note_on_c, 0, 57, 0
2, 271034, Note_on_c, 0, 38, 0
2, 271256, Note_on_c, 0, 60, 59
2, 271270, Note_on_c, 0, 57, 23
2, 271278, Note_on_c, 0, 43, 20
2, 271292, Note_on_c, 0, 50, 31
2, 271464, Control_c, 0, 64, 0
2, 271756, Note_on_c, 0, 60, 0
2, 271760, Note_on_c, 0, 55, 37
2, 271780, Note_on_c, 0, 59, 36
2, 271792, Note_on_c, 0, 57, 0
2, 272078, Control_c, 0, 64, 127
2, 272088, Note_on_c, 0, 59, 0
2, 272094, Note_on_c, 0, 55, 0
2, 272380, Note_on_c, 0, 59, 31
2, 272398, Note_on_c, 0, 55, 31
2, 272494, Control_c, 0, 64, 0
2, 272594, Note_on_c, 0, 50, 0
2, 272648, Control_c, 0, 64, 127
2, 272806, Note_on_c, 0, 43, 0
2, 272816, Note_on_c, 0, 51, 47
2, 272822, Note_on_c, 0, 42, 51
2, 272892, Control_c, 0, 64, 0
2, 273124, Control_c, 0, 64, 127
2, 273150, Note_on_c, 0, 42, 0
2, 273158, Note_on_c, 0, 51, 0
2, 273290, Note_on_c, 0, 51, 58
2, 273300, Note_on_c, 0, 42, 62
2, 273492, Control_c, 0, 64, 0
2, 273676, Control_c, 0, 64, 127
2, 273726, Note_on_c, 0, 51, 0
2, 273736, Note_on_c, 0, 42, 0
2, 273770, Note_on_c, 0, 40, 69
2, 273778, Note_on_c, 0, 52, 58
2, 273846, Control_c, 0, 64, 0
2, 274092, Control_c, 0, 64, 127
2, 274168, Note_on_c, 0, 40, 0
2, 274190, Note_on_c, 0, 55, 0
2, 274250, Note_on_c, 0, 52, 0
2, 274362, Note_on_c, 0, 39, 54
2, 274392, Note_on_c, 0, 47, 63
2, 274552, Control_c, 0, 64, 0
2, 274814, Control_c, 0, 64, 127
2, 274872, Note_on_c, 0, 54, 59
2, 274874, Note_on_c, 0, 59, 0
2, 274884, Note_on_c, 0, 57, 48
2, 274952, Control_c, 0, 64, 0
2, 275074, Note_on_c, 0, 54, 0
2, 275126, Note_on_c, 0, 55, 66
2, 275132, Note_on_c, 0, 59, 70
2, 275136, Control_c, 0, 64, 127
2, 275150, Note_on_c, 0, 57, 0
2, 275168, Control_c, 0, 64, 0
2, 275306, Control_c, 0, 64, 127
2, 275374, Note_on_c, 0, 55, 0
2, 275382, Control_c, 0, 64, 0
2, 275388, Note_on_c, 0, 54, 72
2, 275398, Note_on_c, 0, 57, 79
2, 275406, Note_on_c, 0, 59, 0
2, 275598, Control_c, 0, 64, 127
2, 275636, Note_on_c, 0, 57, 0
2, 275726, Note_on_c, 0, 54, 0
2, 275920, Control_c, 0, 64, 0
2, 275946, Note_on_c, 0, 66, 74
2, 275974, Note_on_c, 0, 57, 47
2, 276350, Control_c, 0, 64, 127
2, 276458, Control_c, 0, 64, 0
2, 276496, Note_on_c, 0, 39, 0
2, 276496, Note_on_c, 0, 35, 62
2, 276600, Note_on_c, 0, 57, 0
2, 276750, Control_c, 0, 64, 127
2, 276952, Note_on_c, 0, 66, 0
2, 276998, Note_on_c, 0, 54, 66
2, 276998, Note_on_c, 0, 57, 69
2, 277026, Control_c, 0, 64, 0
2, 277196, Control_c, 0, 64, 127
2, 277216, Note_on_c, 0, 47, 0
2, 277236, Note_on_c, 0, 57, 0
2, 277322, Note_on_c, 0, 54, 0
2, 277488, Note_on_c, 0, 35, 0
2, 277504, Note_on_c, 0, 54, 64
2, 277507, Note_on_c, 0, 57, 72
2, 277516, Note_on_c, 0, 40, 62
2, 277538, Note_on_c, 0, 47, 35
2, 277718, Control_c, 0, 64, 0
2, 277934, Control_c, 0, 64, 127
2, 278010, Note_on_c, 0, 55, 79
2, 278018, Note_on_c, 0, 52, 47
2, 278038, Note_on_c, 0, 54, 0
2, 278064, Note_on_c, 0, 57, 0
2, 278072, Control_c, 0, 64, 0
2, 278322, Note_on_c, 0, 52, 0
2, 278348, Control_c, 0, 64, 127
2, 278386, Note_on_c, 0, 55, 0
2, 278624, Note_on_c, 0, 55, 63
2, 278644, Note_on_c, 0, 52, 50
2, 278686, Control_c, 0, 64, 0
2, 278812, Note_on_c, 0, 47, 0
2, 278840, Control_c, 0, 64, 127
2, 278894, Note_on_c, 0, 52, 0
2, 278910, Note_on_c, 0, 55, 0
2, 278914, Note_on_c, 0, 40, 0
2, 278920, Note_on_c, 0, 35, 70
2, 279012, Note_on_c, 0, 43, 65
2, 279060, Note_on_c, 0, 50, 74
2, 279144, Note_on_c, 0, 53, 118
2, 279147, Control_c, 0, 64, 0
2, 279440, Note_on_c, 0, 53, 0
2, 279454, Control_c, 0, 64, 127
2, 279510, Note_on_c, 0, 50, 0
2, 279692, Note_on_c, 0, 62, 102
2, 279716, Control_c, 0, 64, 0
2, 279726, Note_on_c, 0, 53, 78
2, 279946, Control_c, 0, 64, 127
2, 280016, Note_on_c, 0, 53, 0
2, 280019, Note_on_c, 0, 62, 0
2, 280292, Note_on_c, 0, 53, 115
2, 280334, Note_on_c, 0, 50, 41
2, 280482, Note_on_c, 0, 43, 0
2, 280586, Note_on_c, 0, 53, 0
2, 280589, Note_on_c, 0, 50, 0
2, 280698, Note_on_c, 0, 36, 41
2, 280758, Note_on_c, 0, 43, 58
2, 280772, Note_on_c, 0, 53, 94
2, 280772, Note_on_c, 0, 50, 86
2, 280786, Note_on_c, 0, 35, 0
2, 280822, Control_c, 0, 64, 0
2, 281206, Control_c, 0, 64, 127
2, 281286, Note_on_c, 0, 50, 0
2, 281294, Note_on_c, 0, 52, 80
2, 281298, Note_on_c, 0, 48, 43
2, 281328, Note_on_c, 0, 53, 0
2, 281374, Control_c, 0, 64, 0
2, 281636, Control_c, 0, 64, 127
2, 281644, Note_on_c, 0, 48, 0
2, 281658, Note_on_c, 0, 52, 0
2, 281920, Note_on_c, 0, 52, 56
2, 281940, Note_on_c, 0, 48, 36
2, 281942, Note_on_c, 0, 36, 0
2, 282028, Note_on_c, 0, 43, 0
2, 282238, Note_on_c, 0, 32, 50
2, 282272, Note_on_c, 0, 48, 0
2, 282298, Note_on_c, 0, 40, 93
2, 282366, Note_on_c, 0, 47, 56
2, 282404, Control_c, 0, 64, 0
2, 282454, Note_on_c, 0, 50, 105
2, 282500, Note_on_c, 0, 52, 0
2, 282756, Control_c, 0, 64, 127
2, 282758, Note_on_c, 0, 50, 0
2, 282772, Note_on_c, 0, 47, 0
2, 283042, Note_on_c, 0, 59, 102
2, 283090, Note_on_c, 0, 50, 50
2, 283156, Control_c, 0, 64, 0
2, 283310, Control_c, 0, 64, 127
2, 283336, Note_on_c, 0, 59, 0
2, 283346, Note_on_c, 0, 50, 0
2, 283584, Note_on_c, 0, 40, 0
2, 283592, Note_on_c, 0, 50, 100
2, 283622, Note_on_c, 0, 47, 50
2, 283832, Note_on_c, 0, 47, 0
2, 283880, Note_on_c, 0, 50, 0
2, 283900, Note_on_c, 0, 32, 0
2, 284126, Control_c, 0, 64, 0
2, 284182, Note_on_c, 0, 47, 59
2, 284204, Note_on_c, 0, 50, 35
2, 284212, Note_on_c, 0, 33, 37
2, 284236, Note_on_c, 0, 48, 19
2, 284244, Note_on_c, 0, 40, 42
2, 284302, Note_on_c, 0, 48, 0
2, 284764, Note_on_c, 0, 47, 0
2, 284788, Note_on_c, 0, 45, 47
2, 284796, Note_on_c, 0, 48, 39
2, 284826, Note_on_c, 0, 50, 0
2, 285078, Control_c, 0, 64, 127
2, 285108, Note_on_c, 0, 48, 0
2, 285134, Note_on_c, 0, 45, 0
2, 285262, Control_c, 0, 64, 0
2, 285288, Note_on_c, 0, 45, 39
2, 285296, Note_on_c, 0, 48, 43
2, 285446, Control_c, 0, 64, 127
2, 285450, Note_on_c, 0, 45, 0
2, 285482, Note_on_c, 0, 48, 0
2, 285826, Note_on_c, 0, 60, 47
2, 285834, Note_on_c, 0, 57, 37
2, 285920, Note_on_c, 0, 40, 0
2, 285922, Control_c, 0, 64, 0
2, 286094, Note_on_c, 0, 33, 0
2, 286122, Control_c, 0, 64, 127
2, 286204, Note_on_c, 0, 57, 0
2, 286218, Note_on_c, 0, 60, 0
2, 286346, Note_on_c, 0, 60, 36
2, 286362, Note_on_c, 0, 57, 36
2, 286445, Control_c, 0, 64, 0
2, 286630, Control_c, 0, 64, 127
2, 286664, Note_on_c, 0, 60, 0
2, 286669, Note_on_c, 0, 57, 0
2, 286856, Note_on_c, 0, 60, 34
2, 286876, Note_on_c, 0, 59, 34
2, 286876, Note_on_c, 0, 55, 33
2, 286968, Control_c, 0, 64, 0
2, 287120, Control_c, 0, 64, 127
2, 287146, Note_on_c, 0, 55, 0
2, 287156, Note_on_c, 0, 60, 0
2, 287168, Note_on_c, 0, 59, 0
2, 287360, Note_on_c, 0, 59, 33
2, 287362, Note_on_c, 0, 55, 52
2, 287362, Note_on_c, 0, 60, 50
2, 287490, Control_c, 0, 64, 0
2, 287596, Note_on_c, 0, 60, 0
2, 287598, Control_c, 0, 64, 127
2, 287642, Note_on_c, 0, 55, 0
2, 287682, Note_on_c, 0, 59, 0
2, 287844, Note_on_c, 0, 54, 64
2, 287844, Note_on_c, 0, 60, 62
2, 287870, Note_on_c, 0, 57, 41
2, 287966, Control_c, 0, 64, 0
2, 288118, Note_on_c, 0, 60, 0
2, 288124, Note_on_c, 0, 57, 0
2, 288136, Control_c, 0, 64, 127
2, 288150, Note_on_c, 0, 54, 0
2, 288326, Note_on_c, 0, 54, 57
2, 288336, Note_on_c, 0, 60, 65
2, 288352, Note_on_c, 0, 57, 37
2, 288504, Control_c, 0, 64, 0
2, 288634, Note_on_c, 0, 60, 0
2, 288644, Note_on_c, 0, 54, 0
2, 288646, Control_c, 0, 64, 127
2, 288670, Note_on_c, 0, 57, 0
2, 288802, Note_on_c, 0, 61, 67
2, 288812, Note_on_c, 0, 52, 63
2, 288828, Note_on_c, 0, 55, 42
2, 288904, Control_c, 0, 64, 0
2, 289072, Control_c, 0, 64, 127
2, 289098, Note_on_c, 0, 55, 0
2, 289102, Note_on_c, 0, 52, 0
2, 289106, Note_on_c, 0, 61, 0
2, 289284, Note_on_c, 0, 61, 78
2, 289306, Note_on_c, 0, 52, 72
2, 289316, Note_on_c, 0, 55, 52
2, 289426, Control_c, 0, 64, 0
2, 289564, Control_c, 0, 64, 127
2, 289590, Note_on_c, 0, 55, 0
2, 289590, Note_on_c, 0, 52, 0
2, 289680, Note_on_c, 0, 61, 0
2, 289756, Note_on_c, 0, 50, 62
2, 289760, Note_on_c, 0, 54, 64
2, 289762, Note_on_c, 0, 62, 67
2, 289902, Control_c, 0, 64, 0
2, 290056, Control_c, 0, 64, 127
2, 290080, Note_on_c, 0, 54, 0
2, 290088, Note_on_c, 0, 62, 0
2, 290096, Note_on_c, 0, 50, 0
2, 290236, Note_on_c, 0, 54, 80
2, 290239, Note_on_c, 0, 62, 90
2, 290246, Note_on_c, 0, 50, 50
2, 290504, Note_on_c, 0, 54, 0
2, 290515, Note_on_c, 0, 50, 0
2, 290546, Note_on_c, 0, 62, 0
2, 290696, Note_on_c, 0, 64, 93
2, 290704, Note_on_c, 0, 50, 71
2, 290704, Note_on_c, 0, 61, 71
2, 290714, Note_on_c, 0, 55, 69
2, 290886, Control_c, 0, 64, 0
2, 291012, Note_on_c, 0, 50, 0
2, 291024, Control_c, 0, 64, 127
2, 291030, Note_on_c, 0, 55, 0
2, 291042, Note_on_c, 0, 64, 0
2, 291058, Note_on_c, 0, 61, 0
2, 291166, Note_on_c, 0, 50, 86
2, 291166, Note_on_c, 0, 61, 66
2, 291169, Note_on_c, 0, 64, 89
2, 291182, Note_on_c, 0, 55, 88
2, 291450, Note_on_c, 0, 64, 0
2, 291468, Note_on_c, 0, 55, 0
2, 291480, Note_on_c, 0, 50, 0
2, 291528, Note_on_c, 0, 61, 0
2, 291618, Note_on_c, 0, 66, 89
2, 291618, Note_on_c, 0, 60, 85
2, 291628, Note_on_c, 0, 57, 73
2, 291632, Note_on_c, 0, 50, 72
2, 291806, Control_c, 0, 64, 0
2, 291944, Control_c, 0, 64, 127
2, 291972, Note_on_c, 0, 50, 0
2, 291974, Note_on_c, 0, 57, 0
2, 291978, Note_on_c, 0, 66, 0
2, 291990, Note_on_c, 0, 60, 0
2, 292104, Note_on_c, 0, 66, 95
2, 292112, Note_on_c, 0, 57, 82
2, 292112, Note_on_c, 0, 60, 74
2, 292115, Note_on_c, 0, 50, 86
2, 292468, Note_on_c, 0, 60, 0
2, 292470, Note_on_c, 0, 57, 0
2, 292544, Note_on_c, 0, 50, 0
2, 292586, Note_on_c, 0, 66, 0
2, 292642, Note_on_c, 0, 67, 98
2, 292645, Note_on_c, 0, 50, 59
2, 292648, Note_on_c, 0, 59, 80
2, 292656, Note_on_c, 0, 65, 71
2, 292730, Control_c, 0, 64, 0
2, 292944, Control_c, 0, 64, 127
2, 292956, Note_on_c, 0, 50, 0
2, 292972, Note_on_c, 0, 65, 0
2, 292988, Note_on_c, 0, 59, 0
2, 293000, Note_on_c, 0, 67, 0
2, 293264, Note_on_c, 0, 67, 103
2, 293270, Note_on_c, 0, 59, 90
2, 293270, Note_on_c, 0, 65, 90
2, 293274, Note_on_c, 0, 50, 95
2, 293280, Note_on_c, 0, 43, 85
2, 293906, Note_on_c, 0, 69, 97
2, 294182, Note_on_c, 0, 67, 0
2, 294246, Note_on_c, 0, 69, 0
2, 294286, Note_on_c, 0, 59, 0
2, 294460, Note_on_c, 0, 69, 92
2, 294463, Note_on_c, 0, 67, 92
2, 294470, Note_on_c, 0, 60, 80
2, 294476, Note_on_c, 0, 51, 96
2, 294514, Note_on_c, 0, 50, 0
2, 294540, Note_on_c, 0, 65, 0
2, 294972, Control_c, 0, 64, 0
2, 295188, Control_c, 0, 64, 127
2, 295250, Control_c, 0, 64, 0
2, 295496, Control_c, 0, 64, 127
2, 295636, Note_on_c, 0, 66, 82
2, 295948, Note_on_c, 0, 67, 0
2, 295956, Control_c, 0, 64, 0
2, 296124, Control_c, 0, 64, 127
2, 296129, Note_on_c, 0, 71, 108
2, 296400, Note_on_c, 0, 69, 0
2, 296406, Note_on_c, 0, 43, 0
2, 296448, Note_on_c, 0, 60, 0
2, 296474, Note_on_c, 0, 71, 0
2, 296548, Note_on_c, 0, 66, 0
2, 296690, Note_on_c, 0, 71, 116
2, 296698, Note_on_c, 0, 62, 92
2, 296698, Note_on_c, 0, 43, 72
2, 296701, Note_on_c, 0, 67, 83
2, 296704, Note_on_c, 0, 53, 111
2, 296772, Note_on_c, 0, 51, 0
2, 296830, Control_c, 0, 64, 0
2, 297016, Control_c, 0, 64, 127
2, 297076, Note_on_c, 0, 62, 0
2, 297079, Note_on_c, 0, 43, 0
2, 297210, Note_on_c, 0, 71, 0
2, 297298, Note_on_c, 0, 72, 102
2, 297300, Note_on_c, 0, 60, 95
2, 297338, Note_on_c, 0, 53, 0
2, 297442, Note_on_c, 0, 60, 0
2, 297480, Note_on_c, 0, 72, 0
2, 297556, Note_on_c, 0, 74, 112
2, 297568, Note_on_c, 0, 59, 87
2, 297694, Note_on_c, 0, 74, 0
2, 297706, Note_on_c, 0, 59, 0
2, 297792, Note_on_c, 0, 67, 0
2, 297834, Note_on_c, 0, 72, 103
2, 297836, Note_on_c, 0, 52, 98
2, 297848, Note_on_c, 0, 60, 83
2, 298160, Note_on_c, 0, 43, 2
2, 298220, Note_on_c, 0, 60, 0
2, 298236, Note_on_c, 0, 72, 0
2, 298318, Note_on_c, 0, 71, 109
2, 298321, Note_on_c, 0, 50, 89
2, 298328, Note_on_c, 0, 62, 87
2, 298332, Note_on_c, 0, 66, 62
2, 298350, Note_on_c, 0, 52, 0
2, 298474, Control_c, 0, 64, 0
2, 298676, Control_c, 0, 64, 127
2, 298690, Note_on_c, 0, 62, 0
2, 298736, Note_on_c, 0, 71, 0
2, 298840, Note_on_c, 0, 71, 82
2, 298848, Note_on_c, 0, 55, 83
2, 298850, Note_on_c, 0, 62, 73
2, 298852, Note_on_c, 0, 67, 73
2, 298860, Note_on_c, 0, 50, 0
2, 298882, Note_on_c, 0, 66, 0
2, 298952, Control_c, 0, 64, 0
2, 299166, Control_c, 0, 64, 127
2, 299226, Note_on_c, 0, 55, 0
2, 299232, Note_on_c, 0, 43, 0
2, 299444, Note_on_c, 0, 54, 93
2, 299448, Note_on_c, 0, 42, 74
2, 299624, Note_on_c, 0, 67, 0
2, 299722, Note_on_c, 0, 62, 0
2, 299744, Note_on_c, 0, 71, 0
2, 299868, Note_on_c, 0, 54, 0
2, 299952, Note_on_c, 0, 42, 0
2, 299958, Note_on_c, 0, 67, 108
2, 299966, Note_on_c, 0, 59, 92
2, 299966, Note_on_c, 0, 62, 95
2, 299976, Note_on_c, 0, 52, 90
2, 299980, Note_on_c, 0, 40, 90
2, 299996, Control_c, 0, 64, 0
2, 300158, Note_on_c, 0, 40, 0
2, 300182, Control_c, 0, 64, 127
2, 300216, Note_on_c, 0, 59, 0
2, 300219, Note_on_c, 0, 52, 0
2, 300226, Note_on_c, 0, 62, 0
2, 300234, Note_on_c, 0, 67, 0
2, 300466, Note_on_c, 0, 69, 83
2, 300466, Note_on_c, 0, 57, 81
2, 300670, Note_on_c, 0, 57, 0
2, 300704, Note_on_c, 0, 69, 0
2, 300704, Note_on_c, 0, 71, 105
2, 300726, Note_on_c, 0, 55, 89
2, 300766, Note_on_c, 0, 55, 0
2, 300792, Note_on_c, 0, 71, 0
2, 300976, Note_on_c, 0, 69, 96
2, 300986, Note_on_c, 0, 57, 81
2, 301204, Note_on_c, 0, 40, 2
2, 301340, Note_on_c, 0, 57, 0
2, 301346, Note_on_c, 0, 52, 2
2, 301366, Note_on_c, 0, 69, 0
2, 301448, Note_on_c, 0, 67, 102
2, 301454, Note_on_c, 0, 59, 85
2, 301518, Control_c, 0, 64, 0
2, 301644, Note_on_c, 0, 52, 0
2, 301672, Control_c, 0, 64, 127
2, 301690, Note_on_c, 0, 40, 0
2, 301766, Note_on_c, 0, 59, 0
2, 301922, Note_on_c, 0, 57, 81
2, 301922, Note_on_c, 0, 66, 83
2, 301928, Note_on_c, 0, 61, 71
2, 301930, Note_on_c, 0, 33, 52
2, 301932, Note_on_c, 0, 45, 52
2, 301978, Note_on_c, 0, 67, 0
2, 302316, Note_on_c, 0, 57, 0
2, 302448, Note_on_c, 0, 64, 92
2, 302454, Note_on_c, 0, 55, 60
2, 302500, Control_c, 0, 64, 0
2, 302505, Note_on_c, 0, 66, 0
2, 302594, Note_on_c, 0, 33, 0
2, 302608, Control_c, 0, 64, 127
2, 302662, Note_on_c, 0, 55, 0
2, 302676, Note_on_c, 0, 45, 0
2, 302706, Note_on_c, 0, 64, 0
2, 302740, Note_on_c, 0, 61, 0
2, 302808, Note_on_c, 0, 66, 60
2, 302862, Note_on_c, 0, 66, 0
2, 302880, Note_on_c, 0, 67, 60
2, 302954, Note_on_c, 0, 66, 59
2, 302962, Note_on_c, 0, 50, 43
2, 302968, Note_on_c, 0, 38, 43
2, 302972, Note_on_c, 0, 57, 46
2, 302994, Note_on_c, 0, 62, 28
2, 303002, Note_on_c, 0, 67, 0
2, 303024, Control_c, 0, 64, 0
2, 303238, Control_c, 0, 64, 127
2, 303246, Note_on_c, 0, 38, 0
2, 303270, Note_on_c, 0, 62, 0
2, 303280, Note_on_c, 0, 64, 71
2, 303320, Note_on_c, 0, 50, 0
2, 303336, Note_on_c, 0, 57, 0
2, 303464, Note_on_c, 0, 66, 0
2, 303546, Note_on_c, 0, 55, 57
2, 303554, Note_on_c, 0, 62, 75
2, 303572, Note_on_c, 0, 59, 40
2, 303582, Note_on_c, 0, 64, 0
2, 303668, Note_on_c, 0, 62, 0
2, 303766, Note_on_c, 0, 55, 0
2, 303848, Note_on_c, 0, 59, 0
2, 303906, Note_on_c, 0, 54, 27
2, 303972, Note_on_c, 0, 55, 62
2, 303976, Note_on_c, 0, 54, 0
2, 304000, Note_on_c, 0, 62, 62
2, 304012, Note_on_c, 0, 57, 42
2, 304026, Note_on_c, 0, 55, 0
2, 304060, Note_on_c, 0, 54, 57
2, 304086, Control_c, 0, 64, 0
2, 304222, Control_c, 0, 64, 127
2, 304270, Note_on_c, 0, 54, 0
2, 304310, Note_on_c, 0, 57, 0
2, 304310, Note_on_c, 0, 55, 51
2, 304313, Control_c, 0, 64, 0
2, 304326, Note_on_c, 0, 52, 48
2, 304452, Control_c, 0, 64, 127
2, 304554, Note_on_c, 0, 55, 0
2, 304566, Note_on_c, 0, 52, 0
2, 304602, Note_on_c, 0, 54, 44
2, 304614, Note_on_c, 0, 50, 37
2, 304622, Control_c, 0, 64, 0
2, 304852, Control_c, 0, 64, 127
2, 304864, Note_on_c, 0, 54, 0
2, 304886, Note_on_c, 0, 50, 0
2, 305122, Note_on_c, 0, 54, 37
2, 305160, Control_c, 0, 64, 0
2, 305166, Note_on_c, 0, 50, 27
2, 305574, Control_c, 0, 64, 127
2, 305788, Control_c, 0, 64, 0
2, 305796, Note_on_c, 0, 59, 21
2, 305914, Note_on_c, 0, 54, 0
2, 305984, Note_on_c, 0, 50, 0
2, 305990, Control_c, 0, 64, 127
2, 306060, Note_on_c, 0, 62, 0
2, 306128, Note_on_c, 0, 59, 0
2, 306364, Note_on_c, 0, 45, 18
2, 306480, Note_on_c, 0, 53, 40
2, 306632, Note_on_c, 0, 60, 19
2, 306820, Note_on_c, 0, 65, 37
2, 307034, Control_c, 0, 64, 0
2, 307340, Control_c, 0, 64, 127
2, 307514, Note_on_c, 0, 67, 37
2, 307588, Control_c, 0, 64, 0
2, 307600, Note_on_c, 0, 65, 0
2, 307802, Control_c, 0, 64, 127
2, 307805, Note_on_c, 0, 69, 37
2, 307822, Note_on_c, 0, 67, 0
2, 307864, Control_c, 0, 64, 0
2, 307940, Control_c, 0, 64, 127
2, 308114, Note_on_c, 0, 60, 0
2, 308130, Note_on_c, 0, 67, 47
2, 308146, Note_on_c, 0, 45, 0
2, 308158, Note_on_c, 0, 47, 16
2, 308182, Note_on_c, 0, 62, 17
2, 308210, Note_on_c, 0, 69, 0
2, 308448, Control_c, 0, 64, 0
2, 308846, Control_c, 0, 64, 127
2, 308962, Note_on_c, 0, 53, 0
2, 309132, Note_on_c, 0, 47, 0
2, 309208, Note_on_c, 0, 48, 13
2, 309208, Note_on_c, 0, 52, 32
2, 309210, Note_on_c, 0, 60, 23
2, 309282, Note_on_c, 0, 62, 0
2, 309292, Control_c, 0, 64, 0
2, 309600, Control_c, 0, 64, 127
2, 309814, Control_c, 0, 64, 0
2, 309830, Note_on_c, 0, 69, 36
2, 309906, Note_on_c, 0, 67, 0
2, 309968, Control_c, 0, 64, 127
2, 309998, Note_on_c, 0, 60, 0
2, 310088, Note_on_c, 0, 69, 0
2, 310126, Note_on_c, 0, 50, 31
2, 310138, Note_on_c, 0, 48, 0
2, 310196, Note_on_c, 0, 52, 0
2, 310248, Note_on_c, 0, 55, 27
2, 310320, Note_on_c, 0, 65, 47
2, 310486, Note_on_c, 0, 69, 66
2, 310784, Control_c, 0, 64, 0
2, 311028, Control_c, 0, 64, 127
2, 311108, Note_on_c, 0, 71, 74
2, 311214, Control_c, 0, 64, 0
2, 311272, Note_on_c, 0, 69, 0
2, 311366, Control_c, 0, 64, 127
2, 311380, Note_on_c, 0, 72, 86
2, 311420, Note_on_c, 0, 71, 0
2, 311494, Note_on_c, 0, 65, 0
2, 311688, Note_on_c, 0, 71, 88
2, 311702, Note_on_c, 0, 67, 51
2, 311716, Note_on_c, 0, 50, 0
2, 311724, Note_on_c, 0, 52, 29
2, 311774, Note_on_c, 0, 72, 0
2, 311888, Control_c, 0, 64, 0
2, 312136, Control_c, 0, 64, 127
2, 312286, Note_on_c, 0, 72, 83
2, 312314, Note_on_c, 0, 57, 43
2, 312320, Note_on_c, 0, 55, 0
2, 312378, Note_on_c, 0, 71, 0
2, 312504, Control_c, 0, 64, 0
2, 312658, Control_c, 0, 64, 127
2, 312722, Note_on_c, 0, 67, 0
2, 312722, Note_on_c, 0, 57, 0
2, 312782, Note_on_c, 0, 52, 0
2, 312826, Note_on_c, 0, 67, 48
2, 312834, Note_on_c, 0, 74, 94
2, 312844, Note_on_c, 0, 59, 52
2, 312856, Note_on_c, 0, 50, 35
2, 312904, Control_c, 0, 64, 0
2, 312914, Note_on_c, 0, 72, 0
2, 313088, Control_c, 0, 64, 127
2, 313091, Note_on_c, 0, 50, 0
2, 313176, Note_on_c, 0, 59, 0
2, 313242, Control_c, 0, 64, 0
2, 313304, Note_on_c, 0, 47, 17
2, 313438, Note_on_c, 0, 47, 0
2, 313457, Control_c, 0, 64, 127
2, 313558, Note_on_c, 0, 79, 86
2, 313570, Note_on_c, 0, 48, 32
2, 313584, Note_on_c, 0, 64, 46
2, 313630, Note_on_c, 0, 74, 0
2, 313752, Note_on_c, 0, 48, 0
2, 313754, Note_on_c, 0, 64, 0
2, 313762, Note_on_c, 0, 67, 0
2, 313800, Note_on_c, 0, 79, 0
2, 314144, Note_on_c, 0, 67, 78
2, 314152, Note_on_c, 0, 62, 41
2, 314192, Note_on_c, 0, 47, 32
2, 314256, Control_c, 0, 64, 0
2, 314456, Control_c, 0, 64, 127
2, 314494, Note_on_c, 0, 47, 0
2, 314518, Note_on_c, 0, 62, 0
2, 314680, Note_on_c, 0, 72, 69
2, 314692, Note_on_c, 0, 64, 49
2, 314702, Note_on_c, 0, 48, 39
2, 314766, Note_on_c, 0, 67, 0
2, 314778, Control_c, 0, 64, 0
2, 315008, Control_c, 0, 64, 127
2, 315018, Note_on_c, 0, 64, 0
2, 315048, Note_on_c, 0, 48, 0
2, 315260, Note_on_c, 0, 71, 74
2, 315288, Note_on_c, 0, 67, 28
2, 315302, Note_on_c, 0, 72, 0
2, 315302, Note_on_c, 0, 50, 29
2, 315310, Note_on_c, 0, 62, 21
2, 315684, Control_c, 0, 64, 0
2, 315940, Note_on_c, 0, 69, 57
2, 315944, Note_on_c, 0, 71, 0
2, 316054, Control_c, 0, 64, 127
2, 316082, Note_on_c, 0, 62, 0
2, 316154, Note_on_c, 0, 67, 0
2, 316172, Note_on_c, 0, 69, 0
2, 316188, Note_on_c, 0, 50, 0
2, 316566, Note_on_c, 0, 69, 54
2, 316576, Note_on_c, 0, 66, 28
2, 316594, Note_on_c, 0, 60, 24
2, 316596, Note_on_c, 0, 38, 34
2, 316944, Control_c, 0, 64, 0
2, 317114, Control_c, 0, 64, 127
2, 317394, Note_on_c, 0, 67, 36
2, 317406, Control_c, 0, 64, 0
2, 317424, Note_on_c, 0, 69, 0
2, 317580, Note_on_c, 0, 38, 0
2, 317604, Control_c, 0, 64, 127
2, 317614, Note_on_c, 0, 66, 0
2, 317654, Note_on_c, 0, 60, 0
2, 317664, Note_on_c, 0, 67, 0
2, 318072, Note_on_c, 0, 67, 39
2, 318094, Note_on_c, 0, 43, 20
2, 318098, Note_on_c, 0, 60, 25
2, 318114, Note_on_c, 0, 62, 10
2, 318128, Note_on_c, 0, 50, 8
2, 318174, Control_c, 0, 64, 0
2, 318296, Control_c, 0, 64, 127
2, 318508, Note_on_c, 0, 57, 19
2, 318570, Note_on_c, 0, 60, 0
2, 318588, Control_c, 0, 64, 0
2, 318772, Control_c, 0, 64, 127
2, 318834, Control_c, 0, 64, 0
2, 318844, Note_on_c, 0, 57, 0
2, 318912, Control_c, 0, 64, 127
2, 319116, Note_on_c, 0, 59, 20
2, 319570, Note_on_c, 0, 67, 0
2, 319582, Note_on_c, 0, 59, 0
2, 319602, Note_on_c, 0, 62, 0
2, 320202, Note_on_c, 0, 67, 11
2, 320254, Note_on_c, 0, 59, 12
2, 320257, Note_on_c, 0, 62, 6
2, 320628, Note_on_c, 0, 50, 0
2, 320732, Note_on_c, 0, 43, 0
2, 321788, Note_on_c, 0, 31, 9
2, 324278, Note_on_c, 0, 59, 0
2, 324288, Note_on_c, 0, 62, 0
2, 324344, Note_on_c, 0, 31, 0
2, 324350, Note_on_c, 0, 67, 0
2, 324412, Control_c, 0, 64, 0
2, 326400, Control_c, 0, 64, 0
2, 330240, Note_on_c, 0, 67, 56
2, 330248, Note_on_c, 0, 59, 39
2, 330252, Note_on_c, 0, 55, 37
2, 330574, Note_on_c, 0, 69, 40
2, 330586, Note_on_c, 0, 60, 44
2, 330594, Note_on_c, 0, 59, 0
2, 330672, Note_on_c, 0, 60, 0
2, 330742, Note_on_c, 0, 69, 0
2, 330918, Note_on_c, 0, 69, 56
2, 330930, Note_on_c, 0, 60, 41
2, 331252, Note_on_c, 0, 60, 0
2, 331268, Note_on_c, 0, 72, 57
2, 331284, Note_on_c, 0, 69, 0
2, 331292, Note_on_c, 0, 64, 32
2, 331410, Note_on_c, 0, 64, 0
2, 331446, Note_on_c, 0, 72, 0
2, 331592, Note_on_c, 0, 72, 81
2, 331602, Note_on_c, 0, 64, 55
2, 331930, Note_on_c, 0, 66, 51
2, 331934, Note_on_c, 0, 72, 0
2, 331934, Note_on_c, 0, 76, 74
2, 331936, Note_on_c, 0, 64, 0
2, 332048, Note_on_c, 0, 66, 0
2, 332152, Note_on_c, 0, 76, 0
2, 332154, Note_on_c, 0, 67, 0
2, 332214, Control_c, 0, 64, 127
2, 332278, Note_on_c, 0, 76, 73
2, 332282, Note_on_c, 0, 72, 64
2, 332300, Note_on_c, 0, 69, 32
2, 332300, Note_on_c, 0, 66, 48
2, 332556, Note_on_c, 0, 72, 0
2, 332724, Note_on_c, 0, 76, 0
2, 332848, Note_on_c, 0, 69, 0
2, 332876, Note_on_c, 0, 74, 34
2, 332882, Note_on_c, 0, 66, 0
2, 332914, Note_on_c, 0, 76, 62
2, 332952, Control_c, 0, 64, 0
2, 332958, Note_on_c, 0, 71, 79
2, 332968, Note_on_c, 0, 76, 0
2, 333008, Note_on_c, 0, 67, 39
2, 333160, Note_on_c, 0, 72, 79
2, 333170, Note_on_c, 0, 67, 0
2, 333198, Note_on_c, 0, 71, 0
2, 333201, Note_on_c, 0, 74, 0
2, 333228, Control_c, 0, 64, 127
2, 333290, Control_c, 0, 64, 0
2, 333302, Note_on_c, 0, 71, 87
2, 333324, Note_on_c, 0, 64, 50
2, 333324, Note_on_c, 0, 67, 54
2, 333340, Note_on_c, 0, 72, 0
2, 333504, Control_c, 0, 64, 127
2, 333558, Note_on_c, 0, 64, 0
2, 333612, Control_c, 0, 64, 0
2, 333632, Note_on_c, 0, 72, 81
2, 333646, Note_on_c, 0, 71, 0
2, 333646, Note_on_c, 0, 57, 66
2, 333916, Note_on_c, 0, 55, 0
2, 333928, Note_on_c, 0, 67, 0
2, 333959, Note_on_c, 0, 57, 0
2, 333966, Note_on_c, 0, 69, 69
2, 333974, Note_on_c, 0, 62, 50
2, 333976, Note_on_c, 0, 66, 40
2, 333978, Note_on_c, 0, 72, 0
2, 334140, Note_on_c, 0, 62, 0
2, 334174, Note_on_c, 0, 69, 0
2, 334188, Note_on_c, 0, 71, 64
2, 334224, Note_on_c, 0, 66, 0
2, 334240, Note_on_c, 0, 71, 0
2, 334240, Note_on_c, 0, 72, 62
2, 334292, Note_on_c, 0, 72, 0
2, 334302, Note_on_c, 0, 71, 66
2, 334305, Note_on_c, 0, 55, 48
2, 334328, Note_on_c, 0, 62, 28
2, 334440, Note_on_c, 0, 62, 0
2, 334478, Note_on_c, 0, 71, 0
2, 334481, Note_on_c, 0, 69, 57
2, 334560, Note_on_c, 0, 69, 0
2, 334580, Note_on_c, 0, 55, 0
2, 334636, Note_on_c, 0, 67, 55
2, 334652, Note_on_c, 0, 59, 27
2, 334820, Note_on_c, 0, 67, 0
2, 334942, Note_on_c, 0, 59, 0
2, 334980, Note_on_c, 0, 69, 37
2, 334983, Note_on_c, 0, 66, 25
2, 335016, Note_on_c, 0, 62, 26
2, 335276, Note_on_c, 0, 62, 0
2, 335344, Note_on_c, 0, 50, 40
2, 335432, Note_on_c, 0, 50, 0
2, 335440, Control_c, 0, 64, 127
2, 335464, Note_on_c, 0, 66, 0
2, 335548, Note_on_c, 0, 69, 0
2, 335578, Control_c, 0, 64, 0
2, 335716, Note_on_c, 0, 67, 95
2, 335728, Note_on_c, 0, 59, 59
2, 335730, Note_on_c, 0, 55, 82
2, 335732, Note_on_c, 0, 43, 67
2, 335766, Note_on_c, 0, 60, 34
2, 335822, Note_on_c, 0, 60, 0
2, 335962, Control_c, 0, 64, 127
2, 335982, Note_on_c, 0, 59, 0
2, 336010, Note_on_c, 0, 67, 0
2, 336016, Note_on_c, 0, 55, 0
2, 336102, Note_on_c, 0, 69, 73
2, 336102, Note_on_c, 0, 67, 58
2, 336102, Note_on_c, 0, 60, 79
2, 336108, Note_on_c, 0, 43, 0
2, 336194, Control_c, 0, 64, 0
2, 336276, Note_on_c, 0, 54, 96
2, 336288, Note_on_c, 0, 42, 77
2, 336344, Note_on_c, 0, 60, 0
2, 336356, Note_on_c, 0, 69, 0
2, 336362, Note_on_c, 0, 67, 0
2, 336412, Note_on_c, 0, 54, 0
2, 336444, Note_on_c, 0, 42, 0
2, 336460, Note_on_c, 0, 67, 74
2, 336464, Note_on_c, 0, 69, 80
2, 336470, Note_on_c, 0, 40, 108
2, 336474, Note_on_c, 0, 52, 103
2, 336476, Note_on_c, 0, 60, 75
2, 336646, Note_on_c, 0, 67, 0
2, 336698, Note_on_c, 0, 60, 0
2, 336776, Control_c, 0, 64, 127
2, 336822, Note_on_c, 0, 72, 103
2, 336836, Note_on_c, 0, 64, 88
2, 336840, Note_on_c, 0, 67, 85
2, 336844, Note_on_c, 0, 52, 0
2, 336870, Control_c, 0, 64, 0
2, 336878, Note_on_c, 0, 69, 0
2, 336898, Note_on_c, 0, 40, 0
2, 336984, Note_on_c, 0, 67, 0
2, 336998, Note_on_c, 0, 50, 102
2, 337001, Note_on_c, 0, 38, 103
2, 337070, Control_c, 0, 64, 127
2, 337073, Note_on_c, 0, 64, 0
2, 337098, Note_on_c, 0, 50, 0
2, 337108, Note_on_c, 0, 72, 0
2, 337114, Note_on_c, 0, 38, 0
2, 337130, Control_c, 0, 64, 0
2, 337176, Note_on_c, 0, 72, 93
2, 337186, Note_on_c, 0, 48, 100
2, 337188, Note_on_c, 0, 64, 87
2, 337190, Note_on_c, 0, 36, 101
2, 337190, Note_on_c, 0, 67, 87
2, 337360, Note_on_c, 0, 67, 0
2, 337360, Control_c, 0, 64, 127
2, 337366, Note_on_c, 0, 64, 0
2, 337392, Note_on_c, 0, 72, 0
2, 337530, Control_c, 0, 64, 0
2, 337542, Note_on_c, 0, 76, 102
2, 337547, Note_on_c, 0, 72, 92
2, 337547, Note_on_c, 0, 67, 77
2, 337590, Note_on_c, 0, 48, 0
2, 337612, Note_on_c, 0, 36, 0
2, 337660, Note_on_c, 0, 72, 0
2, 337700, Control_c, 0, 64, 127
2, 337708, Note_on_c, 0, 67, 0
2, 337712, Note_on_c, 0, 76, 0
2, 337714, Note_on_c, 0, 47, 100
2, 337724, Note_on_c, 0, 35, 102
2, 337768, Note_on_c, 0, 35, 0
2, 337806, Note_on_c, 0, 47, 0
2, 337914, Control_c, 0, 64, 0
2, 337938, Note_on_c, 0, 66, 86
2, 337938, Note_on_c, 0, 76, 108
2, 337948, Note_on_c, 0, 45, 90
2, 337950, Note_on_c, 0, 72, 89
2, 337958, Note_on_c, 0, 33, 87
2, 338390, Note_on_c, 0, 76, 0
2, 338398, Note_on_c, 0, 72, 0
2, 338406, Control_c, 0, 64, 127
2, 338410, Note_on_c, 0, 45, 0
2, 338434, Note_on_c, 0, 66, 0
2, 338450, Note_on_c, 0, 33, 0
2, 338606, Control_c, 0, 64, 0
2, 338684, Note_on_c, 0, 62, 83
2, 338686, Note_on_c, 0, 74, 102
2, 338702, Note_on_c, 0, 67, 63
2, 338704, Note_on_c, 0, 47, 60
2, 338706, Note_on_c, 0, 35, 80
2, 338774, Note_on_c, 0, 35, 0
2, 338802, Note_on_c, 0, 62, 0
2, 338820, Control_c, 0, 64, 127
2, 338828, Note_on_c, 0, 47, 0
2, 338840, Note_on_c, 0, 67, 0
2, 338864, Note_on_c, 0, 72, 93
2, 338906, Note_on_c, 0, 74, 0
2, 338960, Control_c, 0, 64, 0
2, 339024, Note_on_c, 0, 72, 0
2, 339046, Note_on_c, 0, 71, 111
2, 339048, Note_on_c, 0, 64, 101
2, 339050, Note_on_c, 0, 52, 100
2, 339054, Note_on_c, 0, 40, 94
2, 339060, Note_on_c, 0, 67, 79
2, 339088, Note_on_c, 0, 52, 0
2, 339110, Note_on_c, 0, 40, 0
2, 339174, Control_c, 0, 64, 127
2, 339178, Note_on_c, 0, 64, 0
2, 339196, Note_on_c, 0, 71, 0
2, 339214, Note_on_c, 0, 67, 0
2, 339358, Control_c, 0, 64, 0
2, 339398, Note_on_c, 0, 72, 108
2, 339402, Note_on_c, 0, 60, 96
2, 339408, Note_on_c, 0, 67, 93
2, 339411, Note_on_c, 0, 45, 81
2, 339411, Note_on_c, 0, 33, 89
2, 339452, Note_on_c, 0, 33, 0
2, 339462, Note_on_c, 0, 45, 0
2, 339480, Note_on_c, 0, 60, 0
2, 339520, Note_on_c, 0, 67, 0
2, 339542, Control_c, 0, 64, 127
2, 339662, Note_on_c, 0, 72, 0
2, 339698, Control_c, 0, 64, 0
2, 339754, Note_on_c, 0, 69, 95
2, 339758, Note_on_c, 0, 62, 87
2, 339760, Note_on_c, 0, 66, 67
2, 339768, Note_on_c, 0, 50, 86
2, 339774, Note_on_c, 0, 38, 75
2, 339810, Note_on_c, 0, 50, 0
2, 339810, Note_on_c, 0, 62, 0
2, 339822, Note_on_c, 0, 38, 0
2, 339894, Note_on_c, 0, 66, 0
2, 339894, Control_c, 0, 64, 127
2, 339934, Note_on_c, 0, 69, 0
2, 340064, Control_c, 0, 64, 0
2, 340104, Note_on_c, 0, 71, 93
2, 340118, Note_on_c, 0, 31, 72
2, 340118, Note_on_c, 0, 43, 63
2, 340120, Note_on_c, 0, 62, 62
2, 340124, Note_on_c, 0, 67, 60
2, 340164, Note_on_c, 0, 31, 0
2, 340192, Note_on_c, 0, 67, 0
2, 340192, Note_on_c, 0, 43, 0
2, 340195, Note_on_c, 0, 62, 0
2, 340280, Control_c, 0, 64, 127
2, 340282, Note_on_c, 0, 72, 86
2, 340292, Note_on_c, 0, 71, 0
2, 340404, Control_c, 0, 64, 0
2, 340444, Note_on_c, 0, 69, 89
2, 340447, Note_on_c, 0, 72, 0
2, 340458, Note_on_c, 0, 64, 71
2, 340458, Note_on_c, 0, 36, 54
2, 340461, Note_on_c, 0, 48, 51
2, 340512, Note_on_c, 0, 64, 0
2, 340524, Note_on_c, 0, 36, 0
2, 340560, Note_on_c, 0, 48, 0
2, 340588, Control_c, 0, 64, 127
2, 340596, Note_on_c, 0, 69, 0
2, 340598, Note_on_c, 0, 67, 95
2, 340646, Note_on_c, 0, 67, 0
2, 340726, Control_c, 0, 64, 0
2, 340770, Note_on_c, 0, 38, 49
2, 340776, Note_on_c, 0, 50, 48
2, 340794, Note_on_c, 0, 66, 80
2, 340810, Note_on_c, 0, 57, 50
2, 340842, Note_on_c, 0, 38, 0
2, 340870, Note_on_c, 0, 50, 0
2, 340876, Note_on_c, 0, 66, 0
2, 340900, Note_on_c, 0, 67, 54
2, 340910, Control_c, 0, 64, 127
2, 340932, Note_on_c, 0, 66, 62
2, 340962, Note_on_c, 0, 67, 0
2, 340988, Note_on_c, 0, 66, 0
2, 341022, Note_on_c, 0, 67, 81
2, 341082, Note_on_c, 0, 66, 62
2, 341132, Note_on_c, 0, 67, 0
2, 341156, Control_c, 0, 64, 0
2, 341166, Note_on_c, 0, 57, 0
2, 341178, Note_on_c, 0, 62, 54
2, 341206, Note_on_c, 0, 50, 54
2, 341266, Note_on_c, 0, 57, 2
2, 341286, Note_on_c, 0, 62, 0
2, 341324, Note_on_c, 0, 50, 0
2, 341326, Control_c, 0, 64, 127
2, 341366, Note_on_c, 0, 67, 73
2, 341390, Note_on_c, 0, 66, 0
2, 341410, Note_on_c, 0, 57, 0
2, 341424, Note_on_c, 0, 67, 0
2, 341556, Control_c, 0, 64, 0
2, 341584, Note_on_c, 0, 67, 62
2, 341596, Note_on_c, 0, 55, 57
2, 341596, Note_on_c, 0, 62, 56
2, 341596, Note_on_c, 0, 43, 48
2, 341606, Note_on_c, 0, 59, 31
2, 341716, Note_on_c, 0, 55, 0
2, 341772, Control_c, 0, 64, 127
2, 341778, Note_on_c, 0, 43, 0
2, 341878, Control_c, 0, 64, 0
2, 342000, Note_on_c, 0, 38, 60
2, 342002, Note_on_c, 0, 50, 57
2, 342094, Control_c, 0, 64, 127
2, 342104, Note_on_c, 0, 50, 0
2, 342144, Note_on_c, 0, 38, 0
2, 342248, Control_c, 0, 64, 0
2, 342464, Note_on_c, 0, 31, 48
2, 342472, Note_on_c, 0, 43, 48
2, 342600, Control_c, 0, 64, 127
2, 342756, Note_on_c, 0, 31, 0
2, 342778, Note_on_c, 0, 59, 0
2, 342828, Note_on_c, 0, 43, 0
2, 342834, Note_on_c, 0, 62, 0
2, 342890, Note_on_c, 0, 67, 0
2, 343062, Control_c, 0, 64, 0
2, 343382, Note_on_c, 0, 69, 55
2, 343400, Note_on_c, 0, 62, 32
2, 343406, Note_on_c, 0, 57, 28
2, 343418, Note_on_c, 0, 54, 32
2, 343756, Note_on_c, 0, 54, 0
2, 343756, Note_on_c, 0, 66, 44
2, 343759, Note_on_c, 0, 74, 75
2, 343778, Note_on_c, 0, 69, 0
2, 343790, Note_on_c, 0, 50, 39
2, 343824, Note_on_c, 0, 62, 0
2, 343900, Note_on_c, 0, 57, 0
2, 343930, Note_on_c, 0, 50, 0
2, 343960, Note_on_c, 0, 66, 0
2, 343968, Control_c, 0, 64, 127
2, 343986, Note_on_c, 0, 74, 0
2, 344118, Note_on_c, 0, 71, 82
2, 344136, Note_on_c, 0, 62, 44
2, 344162, Note_on_c, 0, 55, 31
2, 344168, Note_on_c, 0, 57, 12
2, 344230, Control_c, 0, 64, 0
2, 344500, Note_on_c, 0, 71, 0
2, 344504, Note_on_c, 0, 69, 47
2, 344508, Note_on_c, 0, 54, 37
2, 344522, Note_on_c, 0, 55, 0
2, 344636, Note_on_c, 0, 57, 0
2, 344662, Note_on_c, 0, 62, 0
2, 344706, Control_c, 0, 64, 127
2, 344710, Note_on_c, 0, 69, 0
2, 344718, Note_on_c, 0, 54, 0
2, 344814, Control_c, 0, 64, 0
2, 344854, Note_on_c, 0, 69, 62
2, 344878, Note_on_c, 0, 62, 49
2, 344880, Note_on_c, 0, 57, 40
2, 344908, Note_on_c, 0, 54, 37
2, 345036, Note_on_c, 0, 66, 70
2, 345044, Note_on_c, 0, 69, 0
2, 345204, Note_on_c, 0, 69, 72
2, 345206, Note_on_c, 0, 54, 0
2, 345206, Note_on_c, 0, 50, 64
2, 345236, Note_on_c, 0, 66, 0
2, 345338, Note_on_c, 0, 69, 0
2, 345354, Note_on_c, 0, 62, 0
2, 345360, Note_on_c, 0, 74, 82
2, 345372, Note_on_c, 0, 57, 0
2, 345406, Note_on_c, 0, 74, 0
2, 345420, Control_c, 0, 64, 127
2, 345482, Note_on_c, 0, 50, 0
2, 345504, Control_c, 0, 64, 0
2, 345536, Note_on_c, 0, 71, 86
2, 345540, Note_on_c, 0, 57, 41
2, 345548, Note_on_c, 0, 62, 64
2, 345558, Note_on_c, 0, 55, 49
2, 345594, Note_on_c, 0, 71, 0
2, 345608, Note_on_c, 0, 73, 65
2, 345654, Note_on_c, 0, 73, 0
2, 345657, Note_on_c, 0, 71, 73
2, 345892, Note_on_c, 0, 69, 46
2, 345900, Note_on_c, 0, 71, 0
2, 345906, Note_on_c, 0, 54, 57
2, 345928, Note_on_c, 0, 55, 0
2, 346054, Note_on_c, 0, 57, 0
2, 346074, Note_on_c, 0, 69, 0
2, 346086, Note_on_c, 0, 54, 0
2, 346096, Note_on_c, 0, 62, 0
2, 346104, Control_c, 0, 64, 127
2, 346228, Control_c, 0, 64, 0
2, 346252, Note_on_c, 0, 54, 51
2, 346252, Note_on_c, 0, 69, 62
2, 346270, Note_on_c, 0, 62, 47
2, 346280, Note_on_c, 0, 57, 39
2, 346424, Note_on_c, 0, 66, 71
2, 346470, Note_on_c, 0, 69, 0
2, 346558, Note_on_c, 0, 54, 0
2, 346596, Note_on_c, 0, 50, 58
2, 346604, Note_on_c, 0, 69, 80
2, 346652, Note_on_c, 0, 66, 0
2, 346688, Note_on_c, 0, 57, 0
2, 346712, Note_on_c, 0, 62, 0
2, 346754, Note_on_c, 0, 74, 89
2, 346796, Control_c, 0, 64, 127
2, 346822, Note_on_c, 0, 69, 0
2, 346918, Control_c, 0, 64, 0
2, 346942, Note_on_c, 0, 67, 82
2, 346950, Note_on_c, 0, 62, 90
2, 346966, Note_on_c, 0, 59, 65
2, 346972, Note_on_c, 0, 74, 0
2, 347108, Note_on_c, 0, 50, 0
2, 347116, Note_on_c, 0, 64, 82
2, 347138, Note_on_c, 0, 67, 0
2, 347148, Control_c, 0, 64, 127
2, 347280, Note_on_c, 0, 50, 54
2, 347284, Note_on_c, 0, 67, 81
2, 347362, Note_on_c, 0, 59, 0
2, 347384, Note_on_c, 0, 62, 0
2, 347406, Note_on_c, 0, 64, 0
2, 347448, Note_on_c, 0, 67, 0
2, 347462, Note_on_c, 0, 74, 74
2, 347622, Note_on_c, 0, 66, 71
2, 347625, Note_on_c, 0, 61, 96
2, 347650, Note_on_c, 0, 57, 56
2, 347653, Note_on_c, 0, 74, 0
2, 347653, Control_c, 0, 64, 0
2, 347796, Note_on_c, 0, 50, 0
2, 347802, Note_on_c, 0, 62, 82
2, 347834, Note_on_c, 0, 66, 0
2, 347886, Control_c, 0, 64, 127
2, 347976, Note_on_c, 0, 66, 71
2, 347986, Note_on_c, 0, 62, 0
2, 348016, Note_on_c, 0, 57, 0
2, 348018, Note_on_c, 0, 50, 59
2, 348106, Note_on_c, 0, 61, 0
2, 348136, Note_on_c, 0, 74, 86
2, 348176, Note_on_c, 0, 66, 0
2, 348182, Note_on_c, 0, 74, 0
2, 348308, Note_on_c, 0, 64, 97
2, 348310, Note_on_c, 0, 59, 77
2, 348322, Note_on_c, 0, 50, 0
2, 348325, Note_on_c, 0, 55, 62
2, 348332, Control_c, 0, 64, 0
2, 348478, Note_on_c, 0, 62, 74
2, 348502, Note_on_c, 0, 64, 0
2, 348516, Control_c, 0, 64, 127
2, 348656, Note_on_c, 0, 64, 80
2, 348664, Note_on_c, 0, 62, 0
2, 348664, Note_on_c, 0, 50, 41
2, 348696, Note_on_c, 0, 64, 0
2, 348756, Note_on_c, 0, 55, 0
2, 348784, Note_on_c, 0, 59, 0
2, 348806, Note_on_c, 0, 74, 95
2, 348858, Note_on_c, 0, 74, 0
2, 348976, Control_c, 0, 64, 0
2, 348978, Note_on_c, 0, 62, 97
2, 348978, Note_on_c, 0, 57, 71
2, 348990, Note_on_c, 0, 54, 62
2, 349068, Note_on_c, 0, 50, 0
2, 349146, Note_on_c, 0, 61, 71
2, 349180, Note_on_c, 0, 62, 0
2, 349224, Control_c, 0, 64, 127
2, 349316, Note_on_c, 0, 61, 0
2, 349342, Note_on_c, 0, 62, 71
2, 349360, Note_on_c, 0, 50, 50
2, 349408, Note_on_c, 0, 62, 0
2, 349450, Note_on_c, 0, 54, 0
2, 349492, Note_on_c, 0, 74, 74
2, 349514, Note_on_c, 0, 57, 0
2, 349566, Note_on_c, 0, 74, 0
2, 349678, Note_on_c, 0, 55, 67
2, 349678, Note_on_c, 0, 62, 65
2, 349684, Control_c, 0, 64, 0
2, 349708, Note_on_c, 0, 52, 47
2, 349812, Note_on_c, 0, 50, 0
2, 349836, Note_on_c, 0, 62, 0
2, 349842, Note_on_c, 0, 61, 63
2, 349898, Note_on_c, 0, 52, 0
2, 349930, Control_c, 0, 64, 127
2, 349970, Note_on_c, 0, 61, 0
2, 350044, Note_on_c, 0, 62, 36
2, 350052, Note_on_c, 0, 45, 24
2, 350090, Note_on_c, 0, 55, 0
2, 350126, Note_on_c, 0, 62, 0
2, 350214, Note_on_c, 0, 74, 47
2, 350342, Note_on_c, 0, 74, 0
2, 350376, Control_c, 0, 64, 0
2, 350398, Note_on_c, 0, 54, 43
2, 350412, Note_on_c, 0, 62, 46
2, 350438, Note_on_c, 0, 50, 37
2, 350522, Note_on_c, 0, 50, 0
2, 350522, Note_on_c, 0, 45, 0
2, 350556, Note_on_c, 0, 54, 0
2, 350562, Control_c, 0, 64, 127
2, 350574, Note_on_c, 0, 62, 0
2, 350580, Note_on_c, 0, 61, 46
2, 350784, Note_on_c, 0, 61, 0
2, 350786, Note_on_c, 0, 38, 36
2, 350818, Note_on_c, 0, 62, 48
2, 350870, Note_on_c, 0, 38, 0
2, 350968, Note_on_c, 0, 62, 0
2, 351022, Note_on_c, 0, 74, 55
2, 351144, Control_c, 0, 64, 0
2, 351174, Note_on_c, 0, 62, 71
2, 351228, Note_on_c, 0, 62, 0
2, 351366, Note_on_c, 0, 60, 58
2, 351424, Note_on_c, 0, 60, 0
2, 351560, Note_on_c, 0, 59, 50
2, 351612, Note_on_c, 0, 59, 0
2, 351656, Note_on_c, 0, 74, 0
2, 351768, Note_on_c, 0, 57, 44
2, 351828, Note_on_c, 0, 57, 0
2, 352032, Note_on_c, 0, 67, 43
2, 352050, Note_on_c, 0, 55, 34
2, 352060, Note_on_c, 0, 59, 27
2, 352388, Note_on_c, 0, 59, 0
2, 352388, Note_on_c, 0, 69, 35
2, 352406, Note_on_c, 0, 60, 29
2, 352556, Note_on_c, 0, 67, 0
2, 352568, Note_on_c, 0, 60, 0
2, 352602, Note_on_c, 0, 69, 0
2, 352756, Note_on_c, 0, 69, 48
2, 352782, Note_on_c, 0, 67, 26
2, 352802, Note_on_c, 0, 60, 34
2, 353144, Note_on_c, 0, 60, 0
2, 353156, Note_on_c, 0, 69, 0
2, 353162, Note_on_c, 0, 72, 40
2, 353178, Note_on_c, 0, 64, 31
2, 353332, Note_on_c, 0, 64, 0
2, 353368, Note_on_c, 0, 72, 0
2, 353518, Note_on_c, 0, 64, 41
2, 353520, Note_on_c, 0, 72, 73
2, 353828, Note_on_c, 0, 64, 0
2, 353858, Note_on_c, 0, 66, 26
2, 353864, Note_on_c, 0, 72, 0
2, 353872, Note_on_c, 0, 76, 73
2, 353982, Note_on_c, 0, 67, 0
2, 354020, Note_on_c, 0, 66, 0
2, 354054, Note_on_c, 0, 76, 0
2, 354064, Control_c, 0, 64, 127
2, 354224, Note_on_c, 0, 76, 66
2, 354244, Note_on_c, 0, 66, 39
2, 354252, Note_on_c, 0, 72, 29
2, 354260, Note_on_c, 0, 69, 25
2, 354524, Note_on_c, 0, 72, 0
2, 354540, Control_c, 0, 64, 0
2, 354662, Control_c, 0, 64, 127
2, 354744, Note_on_c, 0, 76, 0
2, 354826, Note_on_c, 0, 74, 60
2, 354848, Note_on_c, 0, 66, 0
2, 354864, Note_on_c, 0, 69, 0
2, 354874, Note_on_c, 0, 74, 0
2, 354900, Note_on_c, 0, 76, 55
2, 354908, Control_c, 0, 64, 0
2, 354940, Note_on_c, 0, 74, 87
2, 354942, Note_on_c, 0, 71, 47
2, 354950, Note_on_c, 0, 76, 0
2, 354966, Note_on_c, 0, 67, 28
2, 355126, Note_on_c, 0, 72, 75
2, 355134, Note_on_c, 0, 67, 0
2, 355152, Note_on_c, 0, 71, 0
2, 355152, Control_c, 0, 64, 127
2, 355155, Note_on_c, 0, 74, 0
2, 355282, Note_on_c, 0, 71, 83
2, 355292, Control_c, 0, 64, 0
2, 355302, Note_on_c, 0, 72, 0
2, 355305, Note_on_c, 0, 64, 39
2, 355320, Note_on_c, 0, 67, 23
2, 355462, Control_c, 0, 64, 127
2, 355584, Control_c, 0, 64, 0
2, 355616, Note_on_c, 0, 64, 0
2, 355621, Note_on_c, 0, 71, 0
2, 355628, Note_on_c, 0, 72, 60
2, 355656, Note_on_c, 0, 57, 35
2, 355910, Note_on_c, 0, 67, 0
2, 355980, Note_on_c, 0, 57, 0
2, 355985, Note_on_c, 0, 69, 36
2, 355992, Note_on_c, 0, 72, 0
2, 356000, Note_on_c, 0, 66, 32
2, 356010, Note_on_c, 0, 62, 31
2, 356012, Note_on_c, 0, 55, 0
2, 356168, Note_on_c, 0, 62, 0
2, 356168, Control_c, 0, 64, 127
2, 356200, Note_on_c, 0, 71, 59
2, 356244, Control_c, 0, 64, 0
2, 356249, Note_on_c, 0, 71, 0
2, 356266, Note_on_c, 0, 72, 52
2, 356268, Note_on_c, 0, 69, 0
2, 356316, Note_on_c, 0, 71, 79
2, 356320, Note_on_c, 0, 72, 0
2, 356326, Note_on_c, 0, 62, 39
2, 356338, Note_on_c, 0, 55, 41
2, 356398, Note_on_c, 0, 66, 0
2, 356530, Note_on_c, 0, 71, 0
2, 356533, Note_on_c, 0, 69, 43
2, 356668, Note_on_c, 0, 69, 0
2, 356702, Note_on_c, 0, 67, 58
2, 356708, Note_on_c, 0, 59, 31
2, 356720, Note_on_c, 0, 62, 0
2, 356774, Note_on_c, 0, 55, 0
2, 356896, Note_on_c, 0, 67, 0
2, 356952, Control_c, 0, 64, 127
2, 357020, Note_on_c, 0, 59, 0
2, 357040, Note_on_c, 0, 69, 42
2, 357044, Control_c, 0, 64, 0
2, 357058, Note_on_c, 0, 66, 25
2, 357060, Note_on_c, 0, 62, 33
2, 357298, Note_on_c, 0, 62, 0
2, 357426, Note_on_c, 0, 50, 69
2, 357472, Note_on_c, 0, 50, 0
2, 357490, Control_c, 0, 64, 127
2, 357554, Note_on_c, 0, 66, 0
2, 357582, Control_c, 0, 64, 0
2, 357764, Note_on_c, 0, 69, 0
2, 357767, Note_on_c, 0, 67, 87
2, 357774, Note_on_c, 0, 59, 66
2, 357784, Note_on_c, 0, 55, 94
2, 357784, Note_on_c, 0, 43, 85
2, 358030, Note_on_c, 0, 59, 0
2, 358044, Control_c, 0, 64, 127
2, 358058, Note_on_c, 0, 67, 0
2, 358100, Note_on_c, 0, 55, 0
2, 358124, Note_on_c, 0, 43, 0
2, 358148, Note_on_c, 0, 67, 55
2, 358151, Note_on_c, 0, 69, 73
2, 358154, Note_on_c, 0, 60, 70
2, 358290, Note_on_c, 0, 69, 0
2, 358312, Note_on_c, 0, 54, 101
2, 358328, Note_on_c, 0, 42, 75
2, 358350, Control_c, 0, 64, 0
2, 358370, Note_on_c, 0, 60, 0
2, 358373, Note_on_c, 0, 67, 0
2, 358422, Note_on_c, 0, 54, 0
2, 358462, Note_on_c, 0, 42, 0
2, 358504, Note_on_c, 0, 69, 94
2, 358512, Note_on_c, 0, 60, 90
2, 358514, Note_on_c, 0, 67, 97
2, 358516, Note_on_c, 0, 40, 105
2, 358516, Note_on_c, 0, 52, 111
2, 358716, Note_on_c, 0, 67, 0
2, 358728, Note_on_c, 0, 60, 0
2, 358818, Note_on_c, 0, 52, 0
2, 358826, Control_c, 0, 64, 127
2, 358862, Note_on_c, 0, 40, 0
2, 358867, Note_on_c, 0, 72, 104
2, 358874, Note_on_c, 0, 64, 96
2, 358874, Note_on_c, 0, 67, 93
2, 358914, Note_on_c, 0, 69, 0
2, 359002, Note_on_c, 0, 67, 0
2, 359026, Note_on_c, 0, 50, 108
2, 359026, Note_on_c, 0, 38, 104
2, 359066, Note_on_c, 0, 64, 0
2, 359106, Note_on_c, 0, 72, 0
2, 359116, Note_on_c, 0, 50, 0
2, 359132, Note_on_c, 0, 38, 0
2, 359180, Control_c, 0, 64, 0
2, 359218, Note_on_c, 0, 72, 109
2, 359222, Note_on_c, 0, 64, 106
2, 359222, Note_on_c, 0, 48, 105
2, 359226, Note_on_c, 0, 67, 96
2, 359232, Note_on_c, 0, 36, 103
2, 359372, Note_on_c, 0, 67, 0
2, 359377, Note_on_c, 0, 64, 0
2, 359416, Note_on_c, 0, 72, 0
2, 359426, Control_c, 0, 64, 127
2, 359520, Note_on_c, 0, 48, 0
2, 359540, Note_on_c, 0, 36, 0
2, 359578, Note_on_c, 0, 76, 102
2, 359581, Note_on_c, 0, 72, 86
2, 359581, Note_on_c, 0, 67, 92
2, 359668, Note_on_c, 0, 67, 0
2, 359688, Note_on_c, 0, 72, 0
2, 359710, Note_on_c, 0, 76, 0
2, 359746, Note_on_c, 0, 47, 96
2, 359754, Note_on_c, 0, 35, 97
2, 359804, Note_on_c, 0, 35, 0
2, 359812, Note_on_c, 0, 47, 0
2, 359948, Control_c, 0, 64, 0
2, 359978, Note_on_c, 0, 66, 95
2, 359980, Note_on_c, 0, 76, 112
2, 359988, Note_on_c, 0, 72, 100
2, 359996, Note_on_c, 0, 45, 104
2, 360000, Note_on_c, 0, 33, 109
2, 360436, Note_on_c, 0, 76, 0
2, 360452, Note_on_c, 0, 72, 0
2, 360470, Control_c, 0, 64, 127
2, 360475, Note_on_c, 0, 45, 0
2, 360502, Note_on_c, 0, 33, 0
2, 360514, Note_on_c, 0, 66, 0
2, 360624, Control_c, 0, 64, 0
2, 360694, Note_on_c, 0, 74, 109
2, 360696, Note_on_c, 0, 62, 100
2, 360708, Note_on_c, 0, 67, 83
2, 360711, Note_on_c, 0, 47, 92
2, 360716, Note_on_c, 0, 35, 101
2, 360768, Note_on_c, 0, 35, 0
2, 360804, Note_on_c, 0, 62, 0
2, 360824, Note_on_c, 0, 47, 0
2, 360854, Control_c, 0, 64, 127
2, 360860, Note_on_c, 0, 67, 0
2, 360868, Note_on_c, 0, 72, 95
2, 360910, Note_on_c, 0, 74, 0
2, 360962, Control_c, 0, 64, 0
2, 361042, Note_on_c, 0, 72, 0
2, 361050, Note_on_c, 0, 71, 109
2, 361056, Note_on_c, 0, 52, 105
2, 361056, Note_on_c, 0, 64, 94
2, 361058, Note_on_c, 0, 40, 108
2, 361062, Note_on_c, 0, 67, 78
2, 361102, Note_on_c, 0, 52, 0
2, 361136, Note_on_c, 0, 40, 0
2, 361162, Note_on_c, 0, 64, 0
2, 361176, Control_c, 0, 64, 127
2, 361186, Note_on_c, 0, 71, 0
2, 361194, Note_on_c, 0, 67, 0
2, 361332, Control_c, 0, 64, 0
2, 361408, Note_on_c, 0, 72, 104
2, 361416, Note_on_c, 0, 60, 81
2, 361418, Note_on_c, 0, 67, 87
2, 361424, Note_on_c, 0, 45, 85
2, 361428, Note_on_c, 0, 33, 96
2, 361472, Note_on_c, 0, 33, 0
2, 361510, Note_on_c, 0, 45, 0
2, 361552, Note_on_c, 0, 60, 0
2, 361562, Control_c, 0, 64, 127
2, 361565, Note_on_c, 0, 67, 0
2, 361699, Control_c, 0, 64, 0
2, 361732, Note_on_c, 0, 72, 0
2, 361778, Note_on_c, 0, 69, 79
2, 361778, Note_on_c, 0, 66, 62
2, 361778, Note_on_c, 0, 50, 89
2, 361784, Note_on_c, 0, 62, 74
2, 361786, Note_on_c, 0, 38, 71
2, 361844, Note_on_c, 0, 50, 0
2, 361852, Note_on_c, 0, 62, 0
2, 361900, Note_on_c, 0, 38, 0
2, 361914, Control_c, 0, 64, 127
2, 361938, Note_on_c, 0, 66, 0
2, 362048, Note_on_c, 0, 69, 0
2, 362068, Control_c, 0, 64, 0
2, 362142, Note_on_c, 0, 62, 55
2, 362144, Note_on_c, 0, 71, 72
2, 362156, Note_on_c, 0, 67, 44
2, 362159, Note_on_c, 0, 31, 55
2, 362166, Note_on_c, 0, 43, 43
2, 362210, Note_on_c, 0, 62, 0
2, 362222, Note_on_c, 0, 67, 0
2, 362236, Note_on_c, 0, 31, 0
2, 362256, Note_on_c, 0, 43, 0
2, 362314, Control_c, 0, 64, 127
2, 362316, Note_on_c, 0, 71, 0
2, 362324, Note_on_c, 0, 72, 72
2, 362422, Control_c, 0, 64, 0
2, 362474, Note_on_c, 0, 72, 0
2, 362490, Note_on_c, 0, 69, 71
2, 362502, Note_on_c, 0, 48, 47
2, 362508, Note_on_c, 0, 36, 47
2, 362516, Note_on_c, 0, 64, 46
2, 362572, Note_on_c, 0, 48, 0
2, 362575, Note_on_c, 0, 64, 0
2, 362600, Note_on_c, 0, 69, 0
2, 362622, Control_c, 0, 64, 127
2, 362636, Note_on_c, 0, 36, 0
2, 362648, Note_on_c, 0, 67, 82
2, 362692, Note_on_c, 0, 67, 0
2, 362790, Control_c, 0, 64, 0
2, 362842, Note_on_c, 0, 38, 55
2, 362845, Note_on_c, 0, 66, 73
2, 362845, Note_on_c, 0, 57, 80
2, 362849, Note_on_c, 0, 50, 42
2, 362894, Note_on_c, 0, 38, 0
2, 362916, Note_on_c, 0, 66, 0
2, 362919, Note_on_c, 0, 50, 0
2, 362956, Note_on_c, 0, 67, 42
2, 362959, Control_c, 0, 64, 127
2, 362978, Note_on_c, 0, 66, 77
2, 363046, Note_on_c, 0, 66, 0
2, 363116, Note_on_c, 0, 66, 63
2, 363166, Note_on_c, 0, 67, 0
2, 363174, Control_c, 0, 64, 0
2, 363228, Note_on_c, 0, 62, 70
2, 363231, Note_on_c, 0, 50, 60
2, 363327, Note_on_c, 0, 62, 0
2, 363368, Note_on_c, 0, 50, 0
2, 363374, Control_c, 0, 64, 127
2, 363414, Note_on_c, 0, 67, 75
2, 363432, Note_on_c, 0, 57, 0
2, 363476, Note_on_c, 0, 66, 0
2, 363492, Note_on_c, 0, 67, 0
2, 363590, Control_c, 0, 64, 0
2, 363632, Note_on_c, 0, 55, 50
2, 363634, Note_on_c, 0, 62, 48
2, 363634, Note_on_c, 0, 43, 41
2, 363640, Note_on_c, 0, 67, 62
2, 363652, Note_on_c, 0, 59, 23
2, 363734, Note_on_c, 0, 55, 0
2, 363788, Note_on_c, 0, 43, 0
2, 363788, Control_c, 0, 64, 127
2, 363942, Control_c, 0, 64, 0
2, 364022, Note_on_c, 0, 38, 49
2, 364022, Note_on_c, 0, 50, 55
2, 364112, Control_c, 0, 64, 127
2, 364152, Note_on_c, 0, 50, 0
2, 364198, Note_on_c, 0, 38, 0
2, 364296, Control_c, 0, 64, 0
2, 364484, Note_on_c, 0, 43, 52
2, 364488, Note_on_c, 0, 31, 43
2, 364772, Control_c, 0, 64, 127
2, 364808, Note_on_c, 0, 31, 0
2, 364826, Note_on_c, 0, 43, 0
2, 364852, Note_on_c, 0, 59, 0
2, 364928, Note_on_c, 0, 62, 0
2, 365036, Note_on_c, 0, 67, 0
2, 365110, Control_c, 0, 64, 0
2, 365484, Note_on_c, 0, 72, 50
2, 365504, Note_on_c, 0, 67, 27
2, 365528, Note_on_c, 0, 64, 32
2, 365548, Note_on_c, 0, 55, 25
2, 366024, Note_on_c, 0, 72, 0
2, 366032, Control_c, 0, 64, 127
2, 366110, Note_on_c, 0, 71, 47
2, 366154, Control_c, 0, 64, 0
2, 366170, Note_on_c, 0, 72, 66
2, 366186, Note_on_c, 0, 71, 0
2, 366214, Note_on_c, 0, 64, 0
2, 366228, Note_on_c, 0, 72, 0
2, 366236, Note_on_c, 0, 71, 40
2, 366244, Note_on_c, 0, 62, 31
2, 366422, Note_on_c, 0, 69, 49
2, 366434, Note_on_c, 0, 60, 31
2, 366444, Note_on_c, 0, 62, 0
2, 366446, Note_on_c, 0, 71, 0
2, 366468, Note_on_c, 0, 67, 0
2, 366572, Note_on_c, 0, 60, 0
2, 366599, Note_on_c, 0, 67, 40
2, 366626, Note_on_c, 0, 69, 0
2, 366634, Note_on_c, 0, 59, 32
2, 366950, Note_on_c, 0, 59, 0
2, 366978, Note_on_c, 0, 72, 58
2, 367002, Note_on_c, 0, 64, 47
2, 367134, Note_on_c, 0, 64, 0
2, 367148, Note_on_c, 0, 67, 0
2, 367160, Note_on_c, 0, 66, 43
2, 367163, Note_on_c, 0, 74, 58
2, 367178, Note_on_c, 0, 72, 0
2, 367346, Note_on_c, 0, 66, 0
2, 367350, Note_on_c, 0, 76, 65
2, 367358, Note_on_c, 0, 67, 42
2, 367361, Note_on_c, 0, 74, 0
2, 367636, Note_on_c, 0, 67, 0
2, 367736, Note_on_c, 0, 67, 36
2, 367746, Note_on_c, 0, 71, 77
2, 367772, Note_on_c, 0, 62, 29
2, 367820, Note_on_c, 0, 76, 0
2, 368084, Note_on_c, 0, 67, 0
2, 368102, Note_on_c, 0, 55, 0
2, 368152, Control_c, 0, 64, 127
2, 368190, Note_on_c, 0, 71, 0
2, 368236, Note_on_c, 0, 62, 0
2, 368542, Note_on_c, 0, 76, 70
2, 368570, Note_on_c, 0, 67, 32
2, 368572, Note_on_c, 0, 71, 43
2, 368584, Note_on_c, 0, 55, 31
2, 368814, Control_c, 0, 64, 0
2, 368998, Control_c, 0, 64, 127
2, 369066, Note_on_c, 0, 76, 0
2, 369152, Note_on_c, 0, 74, 51
2, 369162, Note_on_c, 0, 67, 0
2, 369170, Note_on_c, 0, 71, 0
2, 369198, Note_on_c, 0, 74, 0
2, 369216, Note_on_c, 0, 76, 47
2, 369260, Control_c, 0, 64, 0
2, 369263, Note_on_c, 0, 74, 78
2, 369267, Note_on_c, 0, 66, 29
2, 369274, Note_on_c, 0, 76, 0
2, 369278, Note_on_c, 0, 69, 41
2, 369454, Note_on_c, 0, 66, 0
2, 369458, Note_on_c, 0, 71, 88
2, 369462, Note_on_c, 0, 62, 59
2, 369472, Note_on_c, 0, 74, 0
2, 369636, Note_on_c, 0, 71, 0
2, 369636, Note_on_c, 0, 74, 85
2, 369636, Note_on_c, 0, 66, 44
2, 369724, Note_on_c, 0, 62, 0
2, 369768, Note_on_c, 0, 69, 0
2, 369804, Note_on_c, 0, 74, 0
2, 369812, Control_c, 0, 64, 127
2, 369886, Note_on_c, 0, 72, 63
2, 369920, Control_c, 0, 64, 0
2, 369922, Note_on_c, 0, 74, 70
2, 369932, Note_on_c, 0, 66, 0
2, 369934, Note_on_c, 0, 72, 0
2, 369974, Note_on_c, 0, 67, 59
2, 369992, Note_on_c, 0, 72, 80
2, 370000, Note_on_c, 0, 64, 51
2, 370040, Note_on_c, 0, 74, 0
2, 370178, Note_on_c, 0, 64, 0
2, 370186, Note_on_c, 0, 69, 62
2, 370204, Note_on_c, 0, 72, 0
2, 370206, Note_on_c, 0, 60, 46
2, 370390, Note_on_c, 0, 72, 50
2, 370394, Note_on_c, 0, 69, 0
2, 370402, Note_on_c, 0, 64, 48
2, 370405, Note_on_c, 0, 60, 0
2, 370564, Note_on_c, 0, 67, 0
2, 370678, Note_on_c, 0, 64, 0
2, 370736, Note_on_c, 0, 71, 58
2, 370744, Note_on_c, 0, 67, 35
2, 370760, Note_on_c, 0, 72, 0
2, 370766, Note_on_c, 0, 59, 25
2, 370926, Note_on_c, 0, 59, 0
2, 370938, Note_on_c, 0, 60, 40
2, 371072, Note_on_c, 0, 60, 0
2, 371102, Note_on_c, 0, 67, 0
2, 371102, Note_on_c, 0, 71, 0
2, 371132, Note_on_c, 0, 69, 34
2, 371140, Note_on_c, 0, 66, 18
2, 371144, Note_on_c, 0, 62, 44
2, 371210, Note_on_c, 0, 62, 0
2, 371240, Note_on_c, 0, 55, 0
2, 371260, Note_on_c, 0, 69, 0
2, 371288, Control_c, 0, 64, 127
2, 371314, Note_on_c, 0, 66, 0
2, 371394, Control_c, 0, 64, 0
2, 371574, Note_on_c, 0, 72, 101
2, 371574, Note_on_c, 0, 67, 96
2, 371578, Note_on_c, 0, 60, 90
2, 371586, Note_on_c, 0, 43, 81
2, 371590, Note_on_c, 0, 52, 97
2, 371612, Note_on_c, 0, 40, 43
2, 371626, Note_on_c, 0, 41, 58
2, 371696, Note_on_c, 0, 41, 0
2, 372074, Note_on_c, 0, 52, 0
2, 372090, Note_on_c, 0, 72, 0
2, 372102, Control_c, 0, 64, 127
2, 372104, Note_on_c, 0, 67, 0
2, 372116, Note_on_c, 0, 43, 0
2, 372154, Note_on_c, 0, 40, 0
2, 372160, Note_on_c, 0, 60, 0
2, 372216, Note_on_c, 0, 71, 82
2, 372258, Note_on_c, 0, 71, 0
2, 372328, Note_on_c, 0, 50, 109
2, 372336, Note_on_c, 0, 71, 70
2, 372338, Note_on_c, 0, 38, 96
2, 372340, Note_on_c, 0, 43, 95
2, 372344, Note_on_c, 0, 59, 108
2, 372346, Note_on_c, 0, 67, 98
2, 372400, Note_on_c, 0, 43, 0
2, 372434, Note_on_c, 0, 71, 0
2, 372437, Note_on_c, 0, 50, 0
2, 372442, Note_on_c, 0, 59, 0
2, 372444, Note_on_c, 0, 38, 0
2, 372464, Note_on_c, 0, 67, 0
2, 372470, Control_c, 0, 64, 0
2, 372530, Note_on_c, 0, 69, 96
2, 372530, Note_on_c, 0, 57, 102
2, 372540, Note_on_c, 0, 48, 83
2, 372548, Note_on_c, 0, 36, 100
2, 372594, Note_on_c, 0, 36, 0
2, 372596, Note_on_c, 0, 48, 0
2, 372622, Note_on_c, 0, 69, 0
2, 372634, Note_on_c, 0, 57, 0
2, 372726, Note_on_c, 0, 47, 109
2, 372728, Note_on_c, 0, 67, 110
2, 372730, Note_on_c, 0, 55, 104
2, 372734, Note_on_c, 0, 35, 111
2, 372770, Note_on_c, 0, 35, 0
2, 372770, Note_on_c, 0, 55, 0
2, 372806, Note_on_c, 0, 47, 0
2, 372820, Note_on_c, 0, 67, 0
2, 372823, Control_c, 0, 64, 127
2, 373084, Control_c, 0, 64, 0
2, 373092, Note_on_c, 0, 72, 103
2, 373094, Note_on_c, 0, 60, 96
2, 373100, Note_on_c, 0, 52, 92
2, 373104, Note_on_c, 0, 40, 108
2, 373104, Note_on_c, 0, 43, 73
2, 373104, Note_on_c, 0, 67, 82
2, 373138, Note_on_c, 0, 40, 0
2, 373146, Note_on_c, 0, 52, 0
2, 373158, Note_on_c, 0, 43, 0
2, 373190, Note_on_c, 0, 72, 0
2, 373192, Note_on_c, 0, 60, 0
2, 373216, Note_on_c, 0, 67, 0
2, 373264, Note_on_c, 0, 42, 95
2, 373266, Note_on_c, 0, 54, 104
2, 373274, Note_on_c, 0, 74, 115
2, 373277, Note_on_c, 0, 62, 96
2, 373328, Note_on_c, 0, 62, 0
2, 373356, Note_on_c, 0, 74, 0
2, 373374, Note_on_c, 0, 42, 0
2, 373377, Note_on_c, 0, 54, 0
2, 373452, Note_on_c, 0, 76, 112
2, 373460, Note_on_c, 0, 64, 106
2, 373460, Note_on_c, 0, 55, 112
2, 373466, Note_on_c, 0, 43, 109
2, 373504, Note_on_c, 0, 55, 0
2, 373514, Control_c, 0, 64, 127
2, 373518, Note_on_c, 0, 43, 0
2, 373532, Note_on_c, 0, 76, 0
2, 373546, Control_c, 0, 64, 0
2, 373582, Note_on_c, 0, 64, 0
2, 373814, Note_on_c, 0, 71, 116
2, 373816, Note_on_c, 0, 59, 109
2, 373820, Note_on_c, 0, 67, 96
2, 373824, Note_on_c, 0, 50, 103
2, 373832, Note_on_c, 0, 43, 86
2, 373838, Note_on_c, 0, 38, 87
2, 374154, Note_on_c, 0, 59, 0
2, 374157, Note_on_c, 0, 38, 0
2, 374192, Control_c, 0, 64, 127
2, 374204, Note_on_c, 0, 50, 0
2, 374207, Note_on_c, 0, 43, 0
2, 374220, Note_on_c, 0, 67, 0
2, 374274, Note_on_c, 0, 71, 0
2, 374612, Note_on_c, 0, 76, 112
2, 374612, Note_on_c, 0, 64, 116
2, 374620, Note_on_c, 0, 71, 112
2, 374622, Note_on_c, 0, 55, 109
2, 374630, Note_on_c, 0, 43, 97
2, 374636, Control_c, 0, 64, 0
2, 374912, Note_on_c, 0, 71, 0
2, 374912, Control_c, 0, 64, 127
2, 374940, Note_on_c, 0, 55, 0
2, 374948, Note_on_c, 0, 43, 0
2, 374968, Note_on_c, 0, 76, 0
2, 375024, Note_on_c, 0, 64, 0
2, 375150, Note_on_c, 0, 74, 50
2, 375196, Note_on_c, 0, 74, 0
2, 375212, Note_on_c, 0, 76, 34
2, 375246, Note_on_c, 0, 54, 101
2, 375250, Note_on_c, 0, 74, 109
2, 375256, Note_on_c, 0, 42, 86
2, 375258, Note_on_c, 0, 69, 63
2, 375260, Note_on_c, 0, 62, 82
2, 375270, Note_on_c, 0, 64, 65
2, 375278, Note_on_c, 0, 43, 52
2, 375286, Note_on_c, 0, 74, 0
2, 375298, Note_on_c, 0, 76, 0
2, 375300, Note_on_c, 0, 42, 0
2, 375308, Note_on_c, 0, 69, 0
2, 375310, Note_on_c, 0, 54, 0
2, 375310, Note_on_c, 0, 62, 0
2, 375312, Control_c, 0, 64, 0
2, 375316, Note_on_c, 0, 64, 0
2, 375332, Note_on_c, 0, 43, 0
2, 375434, Note_on_c, 0, 50, 100
2, 375436, Note_on_c, 0, 38, 94
2, 375448, Note_on_c, 0, 71, 102
2, 375448, Note_on_c, 0, 59, 100
2, 375474, Note_on_c, 0, 38, 0
2, 375474, Note_on_c, 0, 50, 0
2, 375486, Note_on_c, 0, 59, 0
2, 375532, Note_on_c, 0, 71, 0
2, 375630, Note_on_c, 0, 74, 119
2, 375633, Note_on_c, 0, 54, 101
2, 375640, Note_on_c, 0, 62, 96
2, 375644, Note_on_c, 0, 42, 86
2, 375744, Note_on_c, 0, 42, 0
2, 375744, Note_on_c, 0, 54, 0
2, 375774, Control_c, 0, 64, 127
2, 375788, Note_on_c, 0, 74, 0
2, 375791, Note_on_c, 0, 62, 0
2, 375900, Note_on_c, 0, 72, 51
2, 375940, Note_on_c, 0, 74, 83
2, 375958, Note_on_c, 0, 72, 0
2, 375982, Note_on_c, 0, 52, 108
2, 375986, Note_on_c, 0, 40, 95
2, 375988, Note_on_c, 0, 72, 46
2, 375990, Note_on_c, 0, 67, 92
2, 375994, Note_on_c, 0, 60, 89
2, 376000, Note_on_c, 0, 43, 72
2, 376004, Control_c, 0, 64, 0
2, 376006, Note_on_c, 0, 62, 58
2, 376020, Note_on_c, 0, 52, 0
2, 376020, Note_on_c, 0, 74, 0
2, 376034, Note_on_c, 0, 67, 0
2, 376040, Note_on_c, 0, 72, 0
2, 376043, Note_on_c, 0, 40, 0
2, 376043, Note_on_c, 0, 43, 0
2, 376058, Note_on_c, 0, 62, 0
2, 376062, Note_on_c, 0, 60, 0
2, 376168, Note_on_c, 0, 48, 93
2, 376174, Note_on_c, 0, 36, 97
2, 376178, Note_on_c, 0, 69, 92
2, 376180, Note_on_c, 0, 57, 92
2, 376210, Note_on_c, 0, 36, 0
2, 376222, Note_on_c, 0, 57, 0
2, 376224, Note_on_c, 0, 48, 0
2, 376250, Note_on_c, 0, 69, 0
2, 376364, Note_on_c, 0, 72, 109
2, 376366, Note_on_c, 0, 52, 104
2, 376372, Note_on_c, 0, 40, 109
2, 376378, Note_on_c, 0, 60, 74
2, 376410, Note_on_c, 0, 52, 0
2, 376432, Note_on_c, 0, 40, 0
2, 376464, Note_on_c, 0, 72, 0
2, 376480, Control_c, 0, 64, 127
2, 376528, Note_on_c, 0, 60, 0
2, 376710, Control_c, 0, 64, 0
2, 376712, Note_on_c, 0, 47, 97
2, 376720, Note_on_c, 0, 71, 102
2, 376720, Note_on_c, 0, 35, 108
2, 376722, Note_on_c, 0, 67, 71
2, 376722, Note_on_c, 0, 59, 78
2, 376726, Note_on_c, 0, 62, 67
2, 376752, Note_on_c, 0, 35, 0
2, 376756, Note_on_c, 0, 47, 0
2, 376890, Note_on_c, 0, 48, 83
2, 376900, Note_on_c, 0, 36, 85
2, 376940, Note_on_c, 0, 36, 0
2, 376944, Note_on_c, 0, 62, 0
2, 376954, Note_on_c, 0, 71, 0
2, 376960, Note_on_c, 0, 48, 0
2, 376968, Note_on_c, 0, 67, 0
2, 376971, Control_c, 0, 64, 127
2, 376978, Note_on_c, 0, 59, 0
2, 377002, Control_c, 0, 64, 0
2, 377088, Note_on_c, 0, 69, 71
2, 377088, Note_on_c, 0, 57, 71
2, 377091, Note_on_c, 0, 50, 93
2, 377104, Note_on_c, 0, 66, 55
2, 377106, Note_on_c, 0, 38, 65
2, 377130, Note_on_c, 0, 62, 44
2, 377133, Note_on_c, 0, 50, 0
2, 377156, Note_on_c, 0, 38, 0
2, 377197, Note_on_c, 0, 57, 0
2, 377202, Note_on_c, 0, 62, 0
2, 377288, Note_on_c, 0, 66, 0
2, 377288, Note_on_c, 0, 69, 0
2, 377548, Note_on_c, 0, 59, 34
2, 377550, Note_on_c, 0, 67, 39
2, 377556, Note_on_c, 0, 55, 27
2, 377896, Note_on_c, 0, 69, 28
2, 377906, Note_on_c, 0, 60, 35
2, 377909, Note_on_c, 0, 59, 0
2, 378052, Note_on_c, 0, 60, 0
2, 378098, Note_on_c, 0, 69, 0
2, 378266, Note_on_c, 0, 69, 42
2, 378292, Note_on_c, 0, 60, 28
2, 378644, Note_on_c, 0, 60, 0
2, 378646, Note_on_c, 0, 72, 37
2, 378666, Note_on_c, 0, 69, 0
2, 378674, Note_on_c, 0, 64, 32
2, 378842, Note_on_c, 0, 72, 0
2, 378856, Note_on_c, 0, 64, 0
2, 378998, Note_on_c, 0, 72, 63
2, 379028, Note_on_c, 0, 64, 25
2, 379366, Note_on_c, 0, 76, 63
2, 379382, Note_on_c, 0, 72, 0
2, 379384, Note_on_c, 0, 66, 36
2, 379388, Note_on_c, 0, 64, 0
2, 379542, Note_on_c, 0, 66, 0
2, 379545, Note_on_c, 0, 67, 0
2, 379568, Control_c, 0, 64, 127
2, 379604, Note_on_c, 0, 76, 0
2, 379630, Control_c, 0, 64, 0
2, 379754, Note_on_c, 0, 76, 83
2, 379770, Note_on_c, 0, 66, 35
2, 379784, Note_on_c, 0, 72, 26
2, 379788, Note_on_c, 0, 69, 17
2, 380176, Note_on_c, 0, 72, 0
2, 380182, Control_c, 0, 64, 127
2, 380274, Note_on_c, 0, 76, 0
2, 380388, Note_on_c, 0, 66, 0
2, 380432, Note_on_c, 0, 69, 0
2, 380440, Note_on_c, 0, 74, 43
2, 380490, Control_c, 0, 64, 0
2, 380494, Note_on_c, 0, 74, 0
2, 380499, Note_on_c, 0, 76, 43
2, 380546, Note_on_c, 0, 71, 44
2, 380552, Note_on_c, 0, 76, 0
2, 380566, Note_on_c, 0, 74, 77
2, 380580, Note_on_c, 0, 67, 26
2, 380644, Note_on_c, 0, 71, 0
2, 380752, Note_on_c, 0, 72, 62
2, 380754, Control_c, 0, 64, 127
2, 380756, Note_on_c, 0, 74, 0
2, 380758, Note_on_c, 0, 67, 0
2, 380890, Control_c, 0, 64, 0
2, 380924, Note_on_c, 0, 71, 75
2, 380934, Note_on_c, 0, 72, 0
2, 380944, Note_on_c, 0, 64, 23
2, 380956, Note_on_c, 0, 67, 19
2, 381278, Note_on_c, 0, 64, 0
2, 381282, Note_on_c, 0, 72, 44
2, 381286, Note_on_c, 0, 71, 0
2, 381300, Note_on_c, 0, 57, 25
2, 381618, Note_on_c, 0, 72, 0
2, 381638, Note_on_c, 0, 67, 0
2, 381666, Note_on_c, 0, 57, 0
2, 381666, Note_on_c, 0, 69, 31
2, 381680, Note_on_c, 0, 62, 19
2, 381690, Note_on_c, 0, 66, 11
2, 381812, Note_on_c, 0, 55, 0
2, 381862, Note_on_c, 0, 69, 0
2, 381874, Note_on_c, 0, 62, 0
2, 381890, Note_on_c, 0, 71, 28
2, 381950, Note_on_c, 0, 72, 48
2, 382008, Note_on_c, 0, 72, 0
2, 382008, Note_on_c, 0, 62, 25
2, 382018, Note_on_c, 0, 55, 32
2, 382090, Note_on_c, 0, 66, 0
2, 382212, Note_on_c, 0, 71, 0
2, 382220, Note_on_c, 0, 69, 35
2, 382304, Note_on_c, 0, 62, 0
2, 382322, Note_on_c, 0, 69, 0
2, 382402, Note_on_c, 0, 67, 44
2, 382418, Note_on_c, 0, 59, 13
2, 382438, Note_on_c, 0, 55, 0
2, 382564, Control_c, 0, 64, 127
2, 382594, Note_on_c, 0, 67, 0
2, 382694, Note_on_c, 0, 59, 0
2, 382734, Control_c, 0, 64, 0
2, 382760, Note_on_c, 0, 69, 26
2, 382765, Note_on_c, 0, 66, 18
2, 382790, Note_on_c, 0, 62, 20
2, 383040, Note_on_c, 0, 62, 0
2, 383134, Note_on_c, 0, 50, 43
2, 383182, Note_on_c, 0, 66, 0
2, 383204, Note_on_c, 0, 50, 0
2, 383226, Control_c, 0, 64, 127
2, 383266, Note_on_c, 0, 69, 0
2, 383318, Control_c, 0, 64, 0
2, 383474, Note_on_c, 0, 67, 101
2, 383476, Note_on_c, 0, 59, 92
2, 383482, Note_on_c, 0, 55, 82
2, 383486, Note_on_c, 0, 43, 80
2, 383686, Control_c, 0, 64, 127
2, 383710, Note_on_c, 0, 55, 0
2, 383744, Note_on_c, 0, 59, 0
2, 383806, Note_on_c, 0, 43, 0
2, 383860, Note_on_c, 0, 67, 0
2, 383870, Control_c, 0, 64, 0
2, 383878, Note_on_c, 0, 69, 87
2, 383882, Note_on_c, 0, 57, 82
2, 383886, Note_on_c, 0, 54, 89
2, 383890, Note_on_c, 0, 62, 73
2, 383892, Note_on_c, 0, 42, 72
2, 384036, Note_on_c, 0, 54, 0
2, 384070, Control_c, 0, 64, 127
2, 384084, Note_on_c, 0, 57, 0
2, 384088, Note_on_c, 0, 42, 0
2, 384090, Note_on_c, 0, 69, 0
2, 384096, Note_on_c, 0, 62, 0
2, 384162, Control_c, 0, 64, 0
2, 384234, Note_on_c, 0, 69, 98
2, 384237, Note_on_c, 0, 57, 96
2, 384240, Note_on_c, 0, 54, 104
2, 384240, Note_on_c, 0, 42, 89
2, 384242, Note_on_c, 0, 62, 101
2, 384332, Control_c, 0, 64, 127
2, 384338, Note_on_c, 0, 57, 0
2, 384347, Note_on_c, 0, 62, 0
2, 384370, Note_on_c, 0, 69, 0
2, 384414, Note_on_c, 0, 54, 0
2, 384576, Note_on_c, 0, 42, 0
2, 384592, Note_on_c, 0, 60, 112
2, 384594, Control_c, 0, 64, 0
2, 384594, Note_on_c, 0, 72, 108
2, 384600, Note_on_c, 0, 67, 100
2, 384602, Note_on_c, 0, 40, 101
2, 384602, Note_on_c, 0, 52, 101
2, 384784, Note_on_c, 0, 67, 0
2, 384784, Note_on_c, 0, 60, 0
2, 384787, Note_on_c, 0, 72, 0
2, 384794, Control_c, 0, 64, 127
2, 384816, Note_on_c, 0, 52, 0
2, 384830, Note_on_c, 0, 40, 0
2, 384932, Control_c, 0, 64, 0
2, 384952, Note_on_c, 0, 72, 117
2, 384952, Note_on_c, 0, 67, 113
2, 384954, Note_on_c, 0, 60, 126
2, 384962, Note_on_c, 0, 52, 118
2, 384970, Note_on_c, 0, 40, 124
2, 385046, Note_on_c, 0, 52, 0
2, 385054, Note_on_c, 0, 67, 0
2, 385066, Note_on_c, 0, 40, 0
2, 385070, Control_c, 0, 64, 127
2, 385072, Note_on_c, 0, 60, 0
2, 385118, Note_on_c, 0, 72, 0
2, 385330, Control_c, 0, 64, 0
2, 385342, Note_on_c, 0, 76, 110
2, 385342, Note_on_c, 0, 64, 115
2, 385342, Note_on_c, 0, 67, 106
2, 385348, Note_on_c, 0, 48, 100
2, 385352, Note_on_c, 0, 36, 105
2, 385466, Note_on_c, 0, 36, 0
2, 385472, Note_on_c, 0, 48, 0
2, 385500, Note_on_c, 0, 64, 0
2, 385500, Control_c, 0, 64, 127
2, 385544, Note_on_c, 0, 67, 0
2, 385552, Note_on_c, 0, 76, 0
2, 385892, Note_on_c, 0, 76, 111
2, 385894, Note_on_c, 0, 66, 96
2, 385896, Note_on_c, 0, 64, 121
2, 385898, Note_on_c, 0, 72, 100
2, 385900, Note_on_c, 0, 33, 111
2, 385900, Note_on_c, 0, 45, 100
2, 386344, Control_c, 0, 64, 0
2, 386530, Control_c, 0, 64, 127
2, 386538, Note_on_c, 0, 76, 0
2, 386554, Note_on_c, 0, 64, 0
2, 386560, Note_on_c, 0, 33, 0
2, 386568, Note_on_c, 0, 45, 0
2, 386622, Note_on_c, 0, 66, 0
2, 386622, Control_c, 0, 64, 0
2, 386625, Note_on_c, 0, 72, 0
2, 386664, Note_on_c, 0, 74, 119
2, 386664, Note_on_c, 0, 62, 119
2, 386667, Note_on_c, 0, 67, 104
2, 386672, Note_on_c, 0, 47, 106
2, 386680, Note_on_c, 0, 35, 115
2, 386738, Note_on_c, 0, 74, 0
2, 386748, Note_on_c, 0, 62, 0
2, 386774, Control_c, 0, 64, 127
2, 386778, Note_on_c, 0, 67, 0
2, 386782, Note_on_c, 0, 35, 0
2, 386802, Note_on_c, 0, 47, 0
2, 386860, Note_on_c, 0, 72, 104
2, 386862, Note_on_c, 0, 60, 105
2, 386908, Note_on_c, 0, 72, 0
2, 386962, Note_on_c, 0, 60, 0
2, 386990, Control_c, 0, 64, 0
2, 387048, Note_on_c, 0, 71, 111
2, 387050, Note_on_c, 0, 59, 120
2, 387053, Note_on_c, 0, 52, 112
2, 387058, Note_on_c, 0, 40, 112
2, 387060, Note_on_c, 0, 67, 93
2, 387092, Note_on_c, 0, 68, 34
2, 387158, Control_c, 0, 64, 127
2, 387166, Note_on_c, 0, 68, 0
2, 387178, Note_on_c, 0, 52, 0
2, 387208, Note_on_c, 0, 67, 0
2, 387224, Note_on_c, 0, 40, 0
2, 387234, Note_on_c, 0, 59, 0
2, 387310, Note_on_c, 0, 71, 0
2, 387436, Control_c, 0, 64, 0
2, 387454, Note_on_c, 0, 72, 112
2, 387456, Note_on_c, 0, 60, 112
2, 387462, Note_on_c, 0, 67, 105
2, 387466, Note_on_c, 0, 45, 96
2, 387466, Note_on_c, 0, 33, 100
2, 387606, Control_c, 0, 64, 127
2, 387624, Note_on_c, 0, 33, 0
2, 387640, Note_on_c, 0, 72, 0
2, 387664, Note_on_c, 0, 67, 0
2, 387686, Note_on_c, 0, 45, 0
2, 387710, Note_on_c, 0, 60, 0
2, 387882, Note_on_c, 0, 69, 97
2, 387884, Note_on_c, 0, 57, 104
2, 387886, Note_on_c, 0, 66, 86
2, 387888, Note_on_c, 0, 50, 100
2, 387894, Note_on_c, 0, 38, 87
2, 387897, Control_c, 0, 64, 0
2, 387904, Note_on_c, 0, 62, 86
2, 388050, Control_c, 0, 64, 127
2, 388056, Note_on_c, 0, 50, 0
2, 388076, Note_on_c, 0, 62, 0
2, 388106, Note_on_c, 0, 38, 0
2, 388122, Note_on_c, 0, 57, 0
2, 388136, Note_on_c, 0, 69, 0
2, 388172, Note_on_c, 0, 66, 0
2, 388250, Control_c, 0, 64, 0
2, 388280, Note_on_c, 0, 71, 118
2, 388283, Note_on_c, 0, 59, 109
2, 388283, Note_on_c, 0, 67, 95
2, 388290, Note_on_c, 0, 62, 83
2, 388298, Note_on_c, 0, 43, 95
2, 388306, Note_on_c, 0, 31, 83
2, 388392, Note_on_c, 0, 62, 0
2, 388398, Note_on_c, 0, 59, 0
2, 388404, Control_c, 0, 64, 127
2, 388418, Note_on_c, 0, 31, 0
2, 388424, Note_on_c, 0, 67, 0
2, 388433, Note_on_c, 0, 71, 0
2, 388466, Note_on_c, 0, 43, 0
2, 388492, Note_on_c, 0, 72, 109
2, 388498, Note_on_c, 0, 60, 87
2, 388526, Note_on_c, 0, 72, 0
2, 388554, Note_on_c, 0, 60, 0
2, 388650, Control_c, 0, 64, 0
2, 388670, Note_on_c, 0, 69, 109
2, 388675, Note_on_c, 0, 48, 82
2, 388675, Note_on_c, 0, 64, 94
2, 388680, Note_on_c, 0, 36, 85
2, 388686, Note_on_c, 0, 57, 95
2, 388702, Note_on_c, 0, 60, 78
2, 388726, Note_on_c, 0, 59, 44
2, 388764, Note_on_c, 0, 69, 0
2, 388786, Note_on_c, 0, 59, 0
2, 388788, Note_on_c, 0, 57, 0
2, 388802, Control_c, 0, 64, 127
2, 388812, Note_on_c, 0, 60, 0
2, 388824, Note_on_c, 0, 64, 0
2, 388844, Note_on_c, 0, 36, 0
2, 388882, Note_on_c, 0, 67, 103
2, 388892, Note_on_c, 0, 55, 102
2, 388908, Note_on_c, 0, 48, 0
2, 388930, Note_on_c, 0, 55, 0
2, 388988, Note_on_c, 0, 67, 0
2, 389004, Note_on_c, 0, 38, 75
2, 389064, Control_c, 0, 64, 0
2, 389094, Note_on_c, 0, 50, 116
2, 389112, Note_on_c, 0, 54, 108
2, 389118, Note_on_c, 0, 66, 89
2, 389120, Note_on_c, 0, 62, 73
2, 389146, Note_on_c, 0, 61, 54
2, 389190, Note_on_c, 0, 38, 0
2, 389196, Note_on_c, 0, 54, 0
2, 389216, Note_on_c, 0, 61, 0
2, 389216, Control_c, 0, 64, 127
2, 389236, Note_on_c, 0, 62, 0
2, 389236, Note_on_c, 0, 50, 0
2, 389278, Note_on_c, 0, 66, 0
2, 389290, Note_on_c, 0, 67, 65
2, 389344, Note_on_c, 0, 67, 0
2, 389350, Note_on_c, 0, 66, 71
2, 389414, Note_on_c, 0, 67, 62
2, 389464, Note_on_c, 0, 66, 0
2, 389518, Note_on_c, 0, 67, 0
2, 389518, Note_on_c, 0, 66, 63
2, 389532, Note_on_c, 0, 62, 109
2, 389544, Note_on_c, 0, 50, 92
2, 389574, Note_on_c, 0, 67, 101
2, 389596, Note_on_c, 0, 66, 0
2, 389638, Note_on_c, 0, 62, 0
2, 389648, Note_on_c, 0, 50, 0
2, 389660, Note_on_c, 0, 66, 78
2, 389742, Note_on_c, 0, 67, 0
2, 389760, Note_on_c, 0, 64, 100
2, 389804, Note_on_c, 0, 66, 0
2, 389858, Note_on_c, 0, 66, 93
2, 389892, Note_on_c, 0, 64, 0
2, 389916, Note_on_c, 0, 67, 109
2, 389994, Note_on_c, 0, 66, 0
2, 390050, Note_on_c, 0, 67, 0
2, 390136, Note_on_c, 0, 55, 109
2, 390136, Note_on_c, 0, 67, 96
2, 390139, Control_c, 0, 64, 0
2, 390139, Note_on_c, 0, 59, 93
2, 390142, Note_on_c, 0, 43, 97
2, 390144, Note_on_c, 0, 62, 97
2, 390370, Control_c, 0, 64, 127
2, 390404, Note_on_c, 0, 43, 0
2, 390638, Note_on_c, 0, 50, 96
2, 390640, Note_on_c, 0, 38, 95
2, 390646, Control_c, 0, 64, 0
2, 390874, Note_on_c, 0, 50, 0
2, 390908, Control_c, 0, 64, 127
2, 391094, Note_on_c, 0, 38, 0
2, 391338, Control_c, 0, 64, 0
2, 391366, Note_on_c, 0, 31, 83
2, 391366, Note_on_c, 0, 43, 89
2, 391722, Control_c, 0, 64, 127
2, 392164, Note_on_c, 0, 55, 0
2, 392208, Note_on_c, 0, 31, 0
2, 392214, Note_on_c, 0, 43, 0
2, 392216, Note_on_c, 0, 67, 0
2, 392242, Note_on_c, 0, 59, 0
2, 392268, Note_on_c, 0, 62, 0
2, 392336, Control_c, 0, 64, 0
2, 392972, Note_on_c, 0, 36, 36
2, 392974, Note_on_c, 0, 67, 41
2, 392974, Note_on_c, 0, 64, 42
2, 392984, Note_on_c, 0, 48, 31
2, 392984, Note_on_c, 0, 43, 33
2, 393176, Note_on_c, 0, 64, 0
2, 393176, Note_on_c, 0, 62, 51
2, 393370, Note_on_c, 0, 64, 50
2, 393380, Note_on_c, 0, 62, 0
2, 393386, Note_on_c, 0, 67, 0
2, 393534, Note_on_c, 0, 67, 78
2, 393544, Note_on_c, 0, 64, 0
2, 393734, Note_on_c, 0, 65, 35
2, 393902, Note_on_c, 0, 64, 55
2, 393932, Note_on_c, 0, 65, 0
2, 394042, Note_on_c, 0, 64, 0
2, 394074, Note_on_c, 0, 67, 0
2, 394090, Note_on_c, 0, 62, 47
2, 394184, Note_on_c, 0, 43, 0
2, 394192, Note_on_c, 0, 48, 0
2, 394198, Note_on_c, 0, 36, 0
2, 394210, Note_on_c, 0, 62, 0
2, 394272, Note_on_c, 0, 67, 58
2, 394280, Note_on_c, 0, 65, 40
2, 394470, Note_on_c, 0, 64, 51
2, 394486, Note_on_c, 0, 48, 33
2, 394514, Note_on_c, 0, 43, 40
2, 394514, Note_on_c, 0, 36, 26
2, 394517, Note_on_c, 0, 65, 0
2, 394660, Note_on_c, 0, 64, 0
2, 394664, Note_on_c, 0, 62, 40
2, 394808, Note_on_c, 0, 62, 0
2, 394854, Note_on_c, 0, 60, 41
2, 394870, Note_on_c, 0, 67, 0
2, 395024, Note_on_c, 0, 60, 0
2, 395027, Note_on_c, 0, 64, 46
2, 395044, Note_on_c, 0, 67, 49
2, 395122, Note_on_c, 0, 64, 0
2, 395212, Note_on_c, 0, 62, 37
2, 395378, Note_on_c, 0, 62, 0
2, 395398, Note_on_c, 0, 59, 50
2, 395552, Note_on_c, 0, 59, 0
2, 395580, Note_on_c, 0, 55, 69
2, 395602, Note_on_c, 0, 48, 0
2, 395608, Note_on_c, 0, 43, 0
2, 395614, Note_on_c, 0, 36, 0
2, 395622, Note_on_c, 0, 67, 0
2, 395624, Control_c, 0, 64, 127
2, 395628, Note_on_c, 0, 55, 0
2, 395886, Control_c, 0, 64, 0
2, 395892, Note_on_c, 0, 72, 78
2, 395906, Note_on_c, 0, 48, 41
2, 395910, Note_on_c, 0, 65, 52
2, 395930, Note_on_c, 0, 36, 35
2, 395934, Note_on_c, 0, 43, 36
2, 396074, Note_on_c, 0, 65, 0
2, 396094, Note_on_c, 0, 69, 49
2, 396272, Note_on_c, 0, 69, 0
2, 396274, Note_on_c, 0, 65, 28
2, 396326, Note_on_c, 0, 72, 0
2, 396394, Control_c, 0, 64, 127
2, 396412, Note_on_c, 0, 65, 0
2, 396424, Note_on_c, 0, 62, 48
2, 396516, Control_c, 0, 64, 0
2, 396560, Note_on_c, 0, 62, 0
2, 396618, Note_on_c, 0, 67, 59
2, 396634, Note_on_c, 0, 60, 25
2, 396772, Note_on_c, 0, 60, 0
2, 396816, Note_on_c, 0, 64, 48
2, 396946, Control_c, 0, 64, 127
2, 396960, Note_on_c, 0, 67, 0
2, 396974, Note_on_c, 0, 48, 0
2, 396982, Note_on_c, 0, 64, 0
2, 396984, Note_on_c, 0, 43, 0
2, 396994, Note_on_c, 0, 36, 0
2, 397000, Note_on_c, 0, 60, 31
2, 397078, Note_on_c, 0, 60, 0
2, 397140, Note_on_c, 0, 57, 35
2, 397238, Control_c, 0, 64, 0
2, 397246, Note_on_c, 0, 57, 0
2, 397314, Note_on_c, 0, 62, 52
2, 397320, Note_on_c, 0, 55, 37
2, 397332, Note_on_c, 0, 48, 26
2, 397346, Note_on_c, 0, 36, 28
2, 397358, Note_on_c, 0, 43, 29
2, 397446, Note_on_c, 0, 55, 0
2, 397508, Note_on_c, 0, 59, 41
2, 397666, Note_on_c, 0, 59, 0
2, 397684, Note_on_c, 0, 55, 42
2, 397686, Note_on_c, 0, 62, 0
2, 397786, Note_on_c, 0, 55, 0
2, 397814, Note_on_c, 0, 50, 65
2, 397988, Note_on_c, 0, 50, 0
2, 397998, Note_on_c, 0, 60, 42
2, 398014, Note_on_c, 0, 52, 56
2, 398248, Note_on_c, 0, 52, 0
2, 398253, Control_c, 0, 64, 127
2, 398304, Note_on_c, 0, 48, 0
2, 398318, Note_on_c, 0, 36, 0
2, 398324, Note_on_c, 0, 43, 0
2, 398338, Note_on_c, 0, 60, 0
2, 398728, Note_on_c, 0, 67, 44
2, 398730, Control_c, 0, 64, 0
2, 398750, Note_on_c, 0, 48, 32
2, 398752, Note_on_c, 0, 64, 27
2, 398774, Note_on_c, 0, 43, 28
2, 398784, Note_on_c, 0, 36, 27
2, 398890, Note_on_c, 0, 64, 0
2, 398938, Note_on_c, 0, 62, 37
2, 399096, Note_on_c, 0, 67, 0
2, 399114, Note_on_c, 0, 64, 49
2, 399120, Note_on_c, 0, 62, 0
2, 399250, Note_on_c, 0, 67, 70
2, 399296, Note_on_c, 0, 64, 0
2, 399448, Note_on_c, 0, 65, 49
2, 399638, Note_on_c, 0, 64, 46
2, 399666, Note_on_c, 0, 65, 0
2, 399702, Note_on_c, 0, 67, 0
2, 399768, Note_on_c, 0, 64, 0
2, 399804, Control_c, 0, 64, 127
2, 399810, Note_on_c, 0, 62, 46
2, 399872, Note_on_c, 0, 43, 0
2, 399874, Note_on_c, 0, 62, 0
2, 399884, Note_on_c, 0, 36, 0
2, 399906, Note_on_c, 0, 48, 0
2, 399962, Note_on_c, 0, 67, 67
2, 399964, Note_on_c, 0, 65, 59
2, 400112, Control_c, 0, 64, 0
2, 400144, Note_on_c, 0, 48, 18
2, 400144, Note_on_c, 0, 64, 52
2, 400170, Note_on_c, 0, 65, 0
2, 400170, Note_on_c, 0, 43, 34
2, 400182, Note_on_c, 0, 36, 33
2, 400264, Note_on_c, 0, 64, 0
2, 400330, Note_on_c, 0, 62, 46
2, 400438, Note_on_c, 0, 62, 0
2, 400466, Note_on_c, 0, 67, 0
2, 400492, Note_on_c, 0, 60, 48
2, 400526, Control_c, 0, 64, 127
2, 400602, Note_on_c, 0, 60, 0
2, 400654, Note_on_c, 0, 64, 58
2, 400666, Note_on_c, 0, 67, 59
2, 400680, Control_c, 0, 64, 0
2, 400816, Note_on_c, 0, 64, 0
2, 400836, Note_on_c, 0, 62, 41
2, 400982, Note_on_c, 0, 62, 0
2, 401008, Note_on_c, 0, 59, 39
2, 401164, Note_on_c, 0, 59, 0
2, 401200, Note_on_c, 0, 55, 58
2, 401232, Note_on_c, 0, 48, 0
2, 401248, Note_on_c, 0, 36, 0
2, 401248, Control_c, 0, 64, 127
2, 401260, Note_on_c, 0, 55, 0
2, 401260, Note_on_c, 0, 43, 0
2, 401300, Note_on_c, 0, 67, 0
2, 401552, Note_on_c, 0, 72, 87
2, 401566, Note_on_c, 0, 65, 52
2, 401568, Note_on_c, 0, 48, 39
2, 401582, Note_on_c, 0, 36, 35
2, 401586, Note_on_c, 0, 43, 35
2, 401678, Control_c, 0, 64, 0
2, 401724, Note_on_c, 0, 65, 0
2, 401736, Note_on_c, 0, 69, 46
2, 401890, Note_on_c, 0, 65, 49
2, 401908, Control_c, 0, 64, 127
2, 401918, Note_on_c, 0, 69, 0
2, 401934, Note_on_c, 0, 72, 0
2, 402038, Note_on_c, 0, 65, 0
2, 402072, Note_on_c, 0, 62, 49
2, 402192, Note_on_c, 0, 62, 0
2, 402262, Note_on_c, 0, 60, 46
2, 402264, Note_on_c, 0, 67, 70
2, 402278, Control_c, 0, 64, 0
2, 402440, Note_on_c, 0, 60, 0
2, 402452, Note_on_c, 0, 64, 48
2, 402524, Note_on_c, 0, 64, 0
2, 402524, Control_c, 0, 64, 127
2, 402572, Note_on_c, 0, 67, 0
2, 402606, Note_on_c, 0, 60, 49
2, 402626, Note_on_c, 0, 36, 0
2, 402630, Note_on_c, 0, 43, 0
2, 402630, Note_on_c, 0, 48, 0
2, 402686, Note_on_c, 0, 60, 0
2, 402782, Note_on_c, 0, 57, 23
2, 402854, Note_on_c, 0, 57, 0
2, 402908, Control_c, 0, 64, 0
2, 402940, Note_on_c, 0, 62, 48
2, 402946, Note_on_c, 0, 55, 46
2, 402966, Note_on_c, 0, 48, 23
2, 402980, Note_on_c, 0, 43, 25
2, 402986, Note_on_c, 0, 36, 25
2, 403068, Note_on_c, 0, 55, 0
2, 403138, Note_on_c, 0, 59, 39
2, 403160, Note_on_c, 0, 62, 0
2, 403186, Control_c, 0, 64, 127
2, 403220, Note_on_c, 0, 59, 0
2, 403312, Note_on_c, 0, 55, 47
2, 403372, Note_on_c, 0, 55, 0
2, 403450, Note_on_c, 0, 50, 48
2, 403528, Note_on_c, 0, 50, 0
2, 403662, Control_c, 0, 64, 0
2, 403686, Note_on_c, 0, 60, 31
2, 403700, Note_on_c, 0, 52, 20
2, 403984, Control_c, 0, 64, 127
2, 403988, Note_on_c, 0, 36, 0
2, 404014, Note_on_c, 0, 52, 0
2, 404030, Note_on_c, 0, 43, 0
2, 404054, Note_on_c, 0, 48, 0
2, 404106, Note_on_c, 0, 60, 0
2, 404368, Control_c, 0, 64, 0
2, 404424, Note_on_c, 0, 62, 55
2, 404460, Note_on_c, 0, 59, 28
2, 404470, Note_on_c, 0, 55, 28
2, 404550, Note_on_c, 0, 55, 0
2, 404568, Note_on_c, 0, 59, 0
2, 404644, Control_c, 0, 64, 127
2, 404814, Control_c, 0, 64, 0
2, 404822, Note_on_c, 0, 55, 43
2, 404834, Note_on_c, 0, 59, 35
2, 404902, Note_on_c, 0, 59, 0
2, 404908, Note_on_c, 0, 55, 0
2, 404998, Control_c, 0, 64, 127
2, 405136, Control_c, 0, 64, 0
2, 405176, Note_on_c, 0, 57, 41
2, 405194, Note_on_c, 0, 53, 33
2, 405286, Note_on_c, 0, 57, 0
2, 405320, Control_c, 0, 64, 127
2, 405346, Note_on_c, 0, 53, 0
2, 405364, Note_on_c, 0, 64, 58
2, 405390, Note_on_c, 0, 62, 0
2, 405418, Note_on_c, 0, 64, 0
2, 405490, Control_c, 0, 64, 0
2, 405536, Note_on_c, 0, 64, 57
2, 405546, Note_on_c, 0, 61, 29
2, 405586, Note_on_c, 0, 52, 40
2, 405588, Note_on_c, 0, 55, 25
2, 405662, Note_on_c, 0, 55, 0
2, 405690, Control_c, 0, 64, 127
2, 405722, Note_on_c, 0, 61, 0
2, 405724, Note_on_c, 0, 52, 0
2, 405724, Note_on_c, 0, 65, 63
2, 405738, Note_on_c, 0, 64, 0
2, 405780, Note_on_c, 0, 65, 0
2, 405874, Control_c, 0, 64, 0
2, 405892, Note_on_c, 0, 65, 62
2, 405904, Note_on_c, 0, 50, 28
2, 405914, Note_on_c, 0, 62, 25
2, 405924, Note_on_c, 0, 57, 27
2, 406024, Note_on_c, 0, 62, 0
2, 406044, Note_on_c, 0, 57, 0
2, 406048, Note_on_c, 0, 50, 0
2, 406088, Control_c, 0, 64, 127
2, 406196, Control_c, 0, 64, 0
2, 406284, Note_on_c, 0, 62, 40
2, 406294, Note_on_c, 0, 57, 28
2, 406302, Note_on_c, 0, 50, 29
2, 406412, Control_c, 0, 64, 127
2, 406442, Note_on_c, 0, 62, 0
2, 406445, Note_on_c, 0, 50, 0
2, 406445, Note_on_c, 0, 57, 0
2, 406550, Control_c, 0, 64, 0
2, 406632, Note_on_c, 0, 58, 41
2, 406644, Note_on_c, 0, 62, 44
2, 406722, Note_on_c, 0, 62, 0
2, 406762, Note_on_c, 0, 58, 0
2, 406782, Note_on_c, 0, 67, 67
2, 406796, Control_c, 0, 64, 127
2, 406808, Note_on_c, 0, 65, 0
2, 406826, Control_c, 0, 64, 0
2, 406958, Note_on_c, 0, 65, 78
2, 406974, Note_on_c, 0, 58, 37
2, 406974, Note_on_c, 0, 62, 54
2, 407010, Note_on_c, 0, 67, 0
2, 407048, Note_on_c, 0, 62, 0
2, 407118, Note_on_c, 0, 58, 0
2, 407138, Note_on_c, 0, 67, 93
2, 407168, Note_on_c, 0, 65, 0
2, 407328, Note_on_c, 0, 64, 90
2, 407346, Note_on_c, 0, 62, 36
2, 407348, Note_on_c, 0, 55, 50
2, 407362, Note_on_c, 0, 67, 0
2, 407512, Note_on_c, 0, 62, 0
2, 407564, Control_c, 0, 64, 127
2, 407642, Note_on_c, 0, 55, 0
2, 407642, Control_c, 0, 64, 0
2, 407686, Note_on_c, 0, 65, 72
2, 407688, Note_on_c, 0, 61, 41
2, 407722, Note_on_c, 0, 64, 0
2, 407724, Note_on_c, 0, 57, 31
2, 407840, Note_on_c, 0, 65, 0
2, 407848, Note_on_c, 0, 67, 70
2, 407898, Note_on_c, 0, 67, 0
2, 407906, Note_on_c, 0, 65, 78
2, 407908, Note_on_c, 0, 57, 0
2, 407952, Note_on_c, 0, 65, 0
2, 407954, Note_on_c, 0, 61, 0
2, 407966, Note_on_c, 0, 67, 63
2, 408016, Note_on_c, 0, 65, 79
2, 408040, Note_on_c, 0, 62, 48
2, 408078, Note_on_c, 0, 67, 0
2, 408124, Note_on_c, 0, 62, 0
2, 408204, Note_on_c, 0, 64, 80
2, 408230, Note_on_c, 0, 65, 0
2, 408386, Note_on_c, 0, 64, 0
2, 408400, Note_on_c, 0, 62, 64
2, 408418, Note_on_c, 0, 50, 32
2, 408558, Note_on_c, 0, 50, 0
2, 408578, Control_c, 0, 64, 127
2, 408630, Note_on_c, 0, 62, 0
2, 408804, Note_on_c, 0, 65, 43
2, 408808, Control_c, 0, 64, 0
2, 408818, Note_on_c, 0, 58, 26
2, 408820, Note_on_c, 0, 62, 31
2, 408986, Note_on_c, 0, 62, 0
2, 408996, Note_on_c, 0, 58, 0
2, 409038, Control_c, 0, 64, 127
2, 409146, Control_c, 0, 64, 0
2, 409192, Note_on_c, 0, 58, 17
2, 409212, Note_on_c, 0, 62, 27
2, 409346, Control_c, 0, 64, 127
2, 409364, Note_on_c, 0, 62, 0
2, 409402, Note_on_c, 0, 58, 0
2, 409546, Control_c, 0, 64, 0
2, 409582, Note_on_c, 0, 60, 32
2, 409585, Note_on_c, 0, 57, 20
2, 409690, Note_on_c, 0, 60, 0
2, 409696, Note_on_c, 0, 57, 0
2, 409716, Control_c, 0, 64, 127
2, 409764, Note_on_c, 0, 67, 47
2, 409784, Note_on_c, 0, 65, 0
2, 409822, Note_on_c, 0, 67, 0
2, 409912, Note_on_c, 0, 67, 31
2, 409914, Control_c, 0, 64, 0
2, 409948, Note_on_c, 0, 58, 23
2, 409954, Note_on_c, 0, 64, 40
2, 409992, Note_on_c, 0, 55, 28
2, 410078, Note_on_c, 0, 55, 0
2, 410100, Control_c, 0, 64, 127
2, 410122, Note_on_c, 0, 64, 0
2, 410125, Note_on_c, 0, 69, 44
2, 410138, Note_on_c, 0, 58, 0
2, 410166, Note_on_c, 0, 67, 0
2, 410210, Note_on_c, 0, 69, 0
2, 410298, Control_c, 0, 64, 0
2, 410312, Note_on_c, 0, 69, 46
2, 410328, Note_on_c, 0, 60, 36
2, 410332, Note_on_c, 0, 65, 23
2, 410344, Note_on_c, 0, 53, 47
2, 410486, Note_on_c, 0, 65, 0
2, 410504, Note_on_c, 0, 60, 0
2, 410512, Note_on_c, 0, 53, 0
2, 410514, Control_c, 0, 64, 127
2, 410652, Control_c, 0, 64, 0
2, 410704, Note_on_c, 0, 65, 41
2, 410714, Note_on_c, 0, 53, 52
2, 410716, Note_on_c, 0, 60, 24
2, 410814, Note_on_c, 0, 53, 0
2, 410852, Control_c, 0, 64, 127
2, 410858, Note_on_c, 0, 60, 0
2, 410864, Note_on_c, 0, 65, 0
2, 411022, Control_c, 0, 64, 0
2, 411070, Note_on_c, 0, 65, 50
2, 411082, Note_on_c, 0, 62, 50
2, 411220, Control_c, 0, 64, 127
2, 411222, Note_on_c, 0, 65, 0
2, 411244, Note_on_c, 0, 70, 65
2, 411254, Note_on_c, 0, 62, 0
2, 411286, Note_on_c, 0, 69, 0
2, 411390, Control_c, 0, 64, 0
2, 411422, Note_on_c, 0, 69, 85
2, 411434, Note_on_c, 0, 62, 48
2, 411438, Note_on_c, 0, 65, 39
2, 411440, Note_on_c, 0, 70, 0
2, 411586, Note_on_c, 0, 65, 0
2, 411586, Note_on_c, 0, 70, 89
2, 411589, Control_c, 0, 64, 127
2, 411636, Note_on_c, 0, 69, 0
2, 411644, Note_on_c, 0, 62, 0
2, 411766, Note_on_c, 0, 58, 42
2, 411774, Control_c, 0, 64, 0
2, 411802, Note_on_c, 0, 65, 32
2, 411805, Note_on_c, 0, 67, 92
2, 411866, Note_on_c, 0, 70, 0
2, 411964, Note_on_c, 0, 65, 0
2, 412004, Control_c, 0, 64, 127
2, 412102, Note_on_c, 0, 58, 0
2, 412158, Control_c, 0, 64, 0
2, 412168, Note_on_c, 0, 60, 37
2, 412168, Note_on_c, 0, 69, 72
2, 412174, Note_on_c, 0, 64, 41
2, 412210, Note_on_c, 0, 67, 0
2, 412306, Note_on_c, 0, 69, 0
2, 412322, Note_on_c, 0, 64, 0
2, 412322, Note_on_c, 0, 70, 65
2, 412342, Control_c, 0, 64, 127
2, 412374, Note_on_c, 0, 70, 0
2, 412384, Note_on_c, 0, 69, 56
2, 412442, Note_on_c, 0, 69, 0
2, 412448, Note_on_c, 0, 70, 63
2, 412464, Control_c, 0, 64, 0
2, 412486, Note_on_c, 0, 60, 0
2, 412504, Note_on_c, 0, 65, 36
2, 412514, Note_on_c, 0, 69, 67
2, 412592, Note_on_c, 0, 70, 0
2, 412666, Control_c, 0, 64, 127
2, 412706, Note_on_c, 0, 65, 0
2, 412726, Note_on_c, 0, 67, 81
2, 412778, Note_on_c, 0, 69, 0
2, 412934, Note_on_c, 0, 67, 0
2, 412942, Control_c, 0, 64, 0
2, 412948, Note_on_c, 0, 53, 50
2, 412952, Note_on_c, 0, 65, 79
2, 413126, Control_c, 0, 64, 127
2, 413184, Note_on_c, 0, 53, 0
2, 413204, Note_on_c, 0, 65, 0
2, 413374, Note_on_c, 0, 77, 105
2, 413392, Note_on_c, 0, 65, 34
2, 413410, Note_on_c, 0, 69, 42
2, 413412, Note_on_c, 0, 62, 26
2, 413494, Control_c, 0, 64, 0
2, 413640, Note_on_c, 0, 62, 0
2, 413646, Note_on_c, 0, 65, 0
2, 413678, Control_c, 0, 64, 127
2, 413710, Note_on_c, 0, 69, 0
2, 413844, Note_on_c, 0, 69, 66
2, 413848, Note_on_c, 0, 62, 39
2, 413850, Note_on_c, 0, 65, 44
2, 413954, Note_on_c, 0, 65, 0
2, 413996, Note_on_c, 0, 62, 0
2, 414050, Note_on_c, 0, 69, 0
2, 414212, Note_on_c, 0, 62, 54
2, 414218, Note_on_c, 0, 71, 83
2, 414224, Note_on_c, 0, 67, 54
2, 414248, Control_c, 0, 64, 0
2, 414414, Note_on_c, 0, 79, 108
2, 414432, Control_c, 0, 64, 127
2, 414442, Note_on_c, 0, 71, 0
2, 414447, Note_on_c, 0, 67, 0
2, 414452, Note_on_c, 0, 62, 0
2, 414454, Note_on_c, 0, 77, 0
2, 414598, Note_on_c, 0, 77, 110
2, 414626, Note_on_c, 0, 62, 52
2, 414626, Note_on_c, 0, 67, 50
2, 414632, Note_on_c, 0, 71, 63
2, 414662, Note_on_c, 0, 79, 0
2, 414722, Note_on_c, 0, 71, 0
2, 414760, Note_on_c, 0, 67, 0
2, 414780, Note_on_c, 0, 79, 109
2, 414816, Note_on_c, 0, 62, 0
2, 414819, Note_on_c, 0, 77, 0
2, 414968, Note_on_c, 0, 76, 105
2, 414972, Note_on_c, 0, 60, 35
2, 414982, Note_on_c, 0, 71, 90
2, 415002, Note_on_c, 0, 67, 35
2, 415016, Control_c, 0, 64, 0
2, 415046, Note_on_c, 0, 79, 0
2, 415152, Note_on_c, 0, 71, 0
2, 415230, Note_on_c, 0, 67, 0
2, 415240, Note_on_c, 0, 60, 0
2, 415246, Control_c, 0, 64, 127
2, 415368, Note_on_c, 0, 71, 80
2, 415398, Note_on_c, 0, 67, 50
2, 415428, Note_on_c, 0, 60, 20
2, 415532, Note_on_c, 0, 67, 0
2, 415554, Note_on_c, 0, 60, 0
2, 415640, Note_on_c, 0, 71, 0
2, 415818, Note_on_c, 0, 69, 34
2, 415818, Note_on_c, 0, 65, 31
2, 415836, Note_on_c, 0, 60, 32
2, 415846, Control_c, 0, 64, 0
2, 416042, Note_on_c, 0, 77, 65
2, 416046, Control_c, 0, 64, 127
2, 416066, Note_on_c, 0, 65, 0
2, 416074, Note_on_c, 0, 76, 0
2, 416077, Note_on_c, 0, 60, 0
2, 416088, Note_on_c, 0, 69, 0
2, 416242, Note_on_c, 0, 76, 65
2, 416248, Note_on_c, 0, 69, 49
2, 416258, Note_on_c, 0, 65, 24
2, 416262, Note_on_c, 0, 77, 0
2, 416270, Note_on_c, 0, 60, 29
2, 416364, Note_on_c, 0, 69, 0
2, 416367, Note_on_c, 0, 65, 0
2, 416434, Note_on_c, 0, 60, 0
2, 416440, Note_on_c, 0, 77, 72
2, 416462, Note_on_c, 0, 76, 0
2, 416624, Note_on_c, 0, 69, 67
2, 416630, Note_on_c, 0, 74, 93
2, 416630, Note_on_c, 0, 65, 42
2, 416630, Control_c, 0, 64, 0
2, 416648, Note_on_c, 0, 59, 31
2, 416658, Note_on_c, 0, 77, 0
2, 416824, Note_on_c, 0, 76, 90
2, 416827, Control_c, 0, 64, 127
2, 416833, Note_on_c, 0, 65, 0
2, 416860, Note_on_c, 0, 59, 0
2, 416860, Note_on_c, 0, 74, 0
2, 416880, Note_on_c, 0, 69, 0
2, 417008, Note_on_c, 0, 74, 103
2, 417011, Note_on_c, 0, 67, 75
2, 417014, Note_on_c, 0, 64, 58
2, 417036, Note_on_c, 0, 59, 49
2, 417044, Control_c, 0, 64, 0
2, 417052, Note_on_c, 0, 76, 0
2, 417178, Note_on_c, 0, 64, 0
2, 417192, Note_on_c, 0, 76, 108
2, 417198, Control_c, 0, 64, 127
2, 417208, Note_on_c, 0, 67, 0
2, 417220, Note_on_c, 0, 59, 0
2, 417228, Note_on_c, 0, 74, 0
2, 417374, Note_on_c, 0, 72, 87
2, 417374, Note_on_c, 0, 67, 73
2, 417377, Note_on_c, 0, 64, 69
2, 417382, Control_c, 0, 64, 0
2, 417396, Note_on_c, 0, 57, 41
2, 417418, Note_on_c, 0, 76, 0
2, 417566, Control_c, 0, 64, 127
2, 417570, Note_on_c, 0, 74, 102
2, 417586, Note_on_c, 0, 64, 0
2, 417608, Note_on_c, 0, 72, 0
2, 417612, Note_on_c, 0, 67, 0
2, 417622, Note_on_c, 0, 57, 0
2, 417744, Note_on_c, 0, 72, 98
2, 417748, Note_on_c, 0, 65, 78
2, 417750, Note_on_c, 0, 62, 63
2, 417758, Note_on_c, 0, 57, 39
2, 417768, Note_on_c, 0, 74, 0
2, 417796, Control_c, 0, 64, 0
2, 417934, Note_on_c, 0, 62, 0
2, 417934, Control_c, 0, 64, 127
2, 417937, Note_on_c, 0, 74, 102
2, 417968, Note_on_c, 0, 57, 0
2, 417970, Note_on_c, 0, 65, 0
2, 417980, Note_on_c, 0, 72, 0
2, 418144, Note_on_c, 0, 65, 96
2, 418146, Note_on_c, 0, 62, 64
2, 418152, Note_on_c, 0, 71, 89
2, 418162, Note_on_c, 0, 55, 43
2, 418165, Note_on_c, 0, 74, 0
2, 418180, Control_c, 0, 64, 0
2, 418362, Note_on_c, 0, 72, 92
2, 418380, Control_c, 0, 64, 127
2, 418385, Note_on_c, 0, 71, 0
2, 418388, Note_on_c, 0, 62, 0
2, 418408, Note_on_c, 0, 55, 0
2, 418424, Note_on_c, 0, 65, 0
2, 418538, Note_on_c, 0, 64, 94
2, 418544, Note_on_c, 0, 71, 92
2, 418552, Note_on_c, 0, 60, 66
2, 418572, Note_on_c, 0, 55, 58
2, 418575, Note_on_c, 0, 72, 0
2, 418580, Control_c, 0, 64, 0
2, 418732, Note_on_c, 0, 72, 90
2, 418750, Control_c, 0, 64, 127
2, 418760, Note_on_c, 0, 60, 0
2, 418768, Note_on_c, 0, 64, 0
2, 418788, Note_on_c, 0, 71, 0
2, 418802, Note_on_c, 0, 55, 0
2, 418904, Control_c, 0, 64, 0
2, 418904, Note_on_c, 0, 64, 93
2, 418916, Note_on_c, 0, 69, 70
2, 418932, Note_on_c, 0, 60, 59
2, 418934, Note_on_c, 0, 53, 72
2, 418950, Note_on_c, 0, 72, 0
2, 419098, Note_on_c, 0, 71, 97
2, 419114, Note_on_c, 0, 69, 0
2, 419118, Control_c, 0, 64, 127
2, 419124, Note_on_c, 0, 60, 0
2, 419154, Note_on_c, 0, 53, 0
2, 419160, Note_on_c, 0, 64, 0
2, 419282, Note_on_c, 0, 62, 81
2, 419284, Note_on_c, 0, 69, 79
2, 419296, Note_on_c, 0, 59, 57
2, 419302, Control_c, 0, 64, 0
2, 419308, Note_on_c, 0, 53, 62
2, 419316, Note_on_c, 0, 71, 0
2, 419474, Note_on_c, 0, 71, 96
2, 419486, Note_on_c, 0, 59, 0
2, 419486, Note_on_c, 0, 62, 0
2, 419489, Control_c, 0, 64, 127
2, 419518, Note_on_c, 0, 53, 0
2, 419524, Note_on_c, 0, 69, 0
2, 419658, Note_on_c, 0, 67, 97
2, 419666, Note_on_c, 0, 59, 79
2, 419669, Note_on_c, 0, 62, 92
2, 419676, Note_on_c, 0, 52, 81
2, 419686, Control_c, 0, 64, 0
2, 419706, Note_on_c, 0, 71, 0
2, 419856, Note_on_c, 0, 69, 89
2, 419872, Control_c, 0, 64, 127
2, 419886, Note_on_c, 0, 62, 0
2, 419890, Note_on_c, 0, 59, 0
2, 419900, Note_on_c, 0, 52, 0
2, 419918, Note_on_c, 0, 67, 0
2, 420034, Note_on_c, 0, 60, 86
2, 420038, Note_on_c, 0, 52, 78
2, 420040, Note_on_c, 0, 67, 93
2, 420040, Control_c, 0, 64, 0
2, 420094, Note_on_c, 0, 69, 0
2, 420208, Note_on_c, 0, 72, 93
2, 420222, Note_on_c, 0, 60, 0
2, 420224, Control_c, 0, 64, 127
2, 420260, Note_on_c, 0, 67, 0
2, 420294, Note_on_c, 0, 52, 0
2, 420396, Note_on_c, 0, 67, 101
2, 420400, Note_on_c, 0, 57, 73
2, 420400, Note_on_c, 0, 60, 82
2, 420410, Note_on_c, 0, 72, 0
2, 420424, Control_c, 0, 64, 0
2, 420580, Note_on_c, 0, 60, 0
2, 420580, Note_on_c, 0, 72, 101
2, 420608, Control_c, 0, 64, 127
2, 420638, Note_on_c, 0, 57, 0
2, 420654, Note_on_c, 0, 67, 0
2, 420748, Note_on_c, 0, 72, 0
2, 420764, Note_on_c, 0, 65, 89
2, 420766, Note_on_c, 0, 60, 81
2, 420790, Note_on_c, 0, 57, 72
2, 420793, Control_c, 0, 64, 0
2, 420962, Note_on_c, 0, 60, 0
2, 420962, Note_on_c, 0, 72, 101
2, 420964, Control_c, 0, 64, 127
2, 420980, Note_on_c, 0, 57, 0
2, 421014, Note_on_c, 0, 65, 0
2, 421088, Note_on_c, 0, 72, 0
2, 421190, Note_on_c, 0, 55, 67
2, 421196, Note_on_c, 0, 72, 86
2, 421196, Note_on_c, 0, 67, 85
2, 421204, Note_on_c, 0, 62, 81
2, 421208, Control_c, 0, 64, 0
2, 421282, Note_on_c, 0, 67, 0
2, 421438, Control_c, 0, 64, 127
2, 421476, Note_on_c, 0, 62, 0
2, 421498, Note_on_c, 0, 55, 0
2, 421604, Note_on_c, 0, 55, 63
2, 421607, Note_on_c, 0, 71, 95
2, 421607, Note_on_c, 0, 62, 69
2, 421614, Note_on_c, 0, 67, 55
2, 421616, Note_on_c, 0, 72, 0
2, 421622, Control_c, 0, 64, 0
2, 421804, Note_on_c, 0, 67, 0
2, 421812, Note_on_c, 0, 72, 92
2, 421838, Control_c, 0, 64, 127
2, 421870, Note_on_c, 0, 71, 0
2, 421876, Note_on_c, 0, 62, 0
2, 421900, Note_on_c, 0, 55, 0
2, 421946, Note_on_c, 0, 72, 0
2, 422034, Note_on_c, 0, 72, 72
2, 422042, Note_on_c, 0, 64, 80
2, 422042, Note_on_c, 0, 67, 70
2, 422044, Note_on_c, 0, 60, 77
2, 422114, Control_c, 0, 64, 0
2, 422450, Note_on_c, 0, 60, 0
2, 422514, Control_c, 0, 64, 127
2, 422522, Note_on_c, 0, 64, 0
2, 422550, Note_on_c, 0, 48, 82
2, 422562, Note_on_c, 0, 67, 0
2, 422620, Note_on_c, 0, 72, 0
2, 422718, Note_on_c, 0, 48, 0
2, 423036, Control_c, 0, 64, 0
2, 423130, Note_on_c, 0, 62, 50
2, 423150, Note_on_c, 0, 59, 26
2, 423160, Note_on_c, 0, 55, 21
2, 423338, Note_on_c, 0, 59, 0
2, 423348, Note_on_c, 0, 55, 0
2, 423374, Control_c, 0, 64, 127
2, 423604, Note_on_c, 0, 59, 26
2, 423604, Note_on_c, 0, 55, 27
2, 423746, Note_on_c, 0, 55, 0
2, 423746, Note_on_c, 0, 59, 0
2, 423958, Control_c, 0, 64, 0
2, 424004, Note_on_c, 0, 57, 24
2, 424022, Note_on_c, 0, 53, 48
2, 424128, Control_c, 0, 64, 127
2, 424182, Note_on_c, 0, 53, 0
2, 424182, Note_on_c, 0, 57, 0
2, 424202, Note_on_c, 0, 64, 42
2, 424244, Note_on_c, 0, 62, 0
2, 424262, Note_on_c, 0, 64, 0
2, 424374, Control_c, 0, 64, 0
2, 424386, Note_on_c, 0, 61, 25
2, 424406, Note_on_c, 0, 64, 47
2, 424422, Note_on_c, 0, 52, 37
2, 424422, Note_on_c, 0, 55, 27
2, 424496, Note_on_c, 0, 52, 0
2, 424558, Control_c, 0, 64, 127
2, 424574, Note_on_c, 0, 55, 0
2, 424588, Note_on_c, 0, 61, 0
2, 424594, Note_on_c, 0, 64, 0
2, 424596, Note_on_c, 0, 65, 58
2, 424652, Note_on_c, 0, 65, 0
2, 424788, Control_c, 0, 64, 0
2, 424806, Note_on_c, 0, 50, 36
2, 424814, Note_on_c, 0, 62, 19
2, 424816, Note_on_c, 0, 65, 65
2, 424834, Note_on_c, 0, 57, 14
2, 424966, Note_on_c, 0, 62, 0
2, 424980, Note_on_c, 0, 50, 0
2, 424988, Control_c, 0, 64, 127
2, 425016, Note_on_c, 0, 57, 0
2, 425158, Control_c, 0, 64, 0
2, 425198, Note_on_c, 0, 62, 41
2, 425210, Note_on_c, 0, 50, 41
2, 425220, Note_on_c, 0, 57, 24
2, 425342, Control_c, 0, 64, 127
2, 425350, Note_on_c, 0, 62, 0
2, 425362, Note_on_c, 0, 50, 0
2, 425370, Note_on_c, 0, 57, 0
2, 425540, Control_c, 0, 64, 0
2, 425584, Note_on_c, 0, 62, 37
2, 425586, Note_on_c, 0, 58, 24
2, 425756, Control_c, 0, 64, 127
2, 425758, Note_on_c, 0, 62, 0
2, 425776, Note_on_c, 0, 58, 0
2, 425800, Note_on_c, 0, 67, 47
2, 425812, Note_on_c, 0, 65, 0
2, 425972, Control_c, 0, 64, 0
2, 425976, Note_on_c, 0, 58, 21
2, 425990, Note_on_c, 0, 65, 58
2, 426004, Note_on_c, 0, 62, 33
2, 426024, Note_on_c, 0, 67, 0
2, 426124, Note_on_c, 0, 62, 0
2, 426140, Control_c, 0, 64, 127
2, 426174, Note_on_c, 0, 67, 77
2, 426204, Note_on_c, 0, 65, 0
2, 426206, Note_on_c, 0, 58, 0
2, 426378, Note_on_c, 0, 62, 33
2, 426386, Control_c, 0, 64, 0
2, 426400, Note_on_c, 0, 64, 80
2, 426408, Note_on_c, 0, 67, 0
2, 426411, Note_on_c, 0, 55, 24
2, 426590, Note_on_c, 0, 62, 0
2, 426632, Control_c, 0, 64, 127
2, 426724, Note_on_c, 0, 55, 0
2, 426772, Note_on_c, 0, 61, 40
2, 426788, Note_on_c, 0, 65, 64
2, 426800, Control_c, 0, 64, 0
2, 426826, Note_on_c, 0, 64, 0
2, 426846, Note_on_c, 0, 57, 18
2, 426964, Note_on_c, 0, 65, 0
2, 426974, Note_on_c, 0, 67, 66
2, 427016, Control_c, 0, 64, 127
2, 427024, Note_on_c, 0, 67, 0
2, 427040, Note_on_c, 0, 65, 67
2, 427092, Control_c, 0, 64, 0
2, 427094, Note_on_c, 0, 61, 0
2, 427096, Note_on_c, 0, 65, 0
2, 427102, Note_on_c, 0, 67, 57
2, 427176, Note_on_c, 0, 65, 71
2, 427182, Note_on_c, 0, 62, 43
2, 427224, Note_on_c, 0, 67, 0
2, 427338, Control_c, 0, 64, 127
2, 427370, Note_on_c, 0, 62, 0
2, 427384, Note_on_c, 0, 64, 67
2, 427414, Note_on_c, 0, 65, 0
2, 427568, Control_c, 0, 64, 0
2, 427630, Note_on_c, 0, 50, 31
2, 427646, Note_on_c, 0, 64, 0
2, 427656, Note_on_c, 0, 62, 50
2, 427682, Note_on_c, 0, 57, 0
2, 427846, Control_c, 0, 64, 127
2, 427856, Note_on_c, 0, 50, 0
2, 427936, Note_on_c, 0, 62, 0
2, 428148, Note_on_c, 0, 65, 52
2, 428154, Note_on_c, 0, 62, 34
2, 428154, Note_on_c, 0, 58, 18
2, 428230, Control_c, 0, 64, 0
2, 428382, Note_on_c, 0, 62, 0
2, 428415, Note_on_c, 0, 58, 0
2, 428415, Control_c, 0, 64, 127
2, 428582, Note_on_c, 0, 58, 33
2, 428588, Note_on_c, 0, 62, 47
2, 428598, Control_c, 0, 64, 0
2, 428782, Control_c, 0, 64, 127
2, 428828, Note_on_c, 0, 58, 0
2, 428864, Note_on_c, 0, 62, 0
2, 428968, Control_c, 0, 64, 0
2, 428982, Note_on_c, 0, 60, 44
2, 428982, Note_on_c, 0, 57, 42
2, 429136, Control_c, 0, 64, 127
2, 429166, Note_on_c, 0, 67, 72
2, 429176, Note_on_c, 0, 60, 0
2, 429176, Note_on_c, 0, 65, 0
2, 429204, Note_on_c, 0, 57, 0
2, 429226, Note_on_c, 0, 67, 0
2, 429352, Control_c, 0, 64, 0
2, 429358, Note_on_c, 0, 58, 32
2, 429368, Note_on_c, 0, 64, 54
2, 429372, Note_on_c, 0, 67, 87
2, 429400, Note_on_c, 0, 55, 37
2, 429518, Note_on_c, 0, 55, 0
2, 429536, Control_c, 0, 64, 127
2, 429539, Note_on_c, 0, 64, 0
2, 429562, Note_on_c, 0, 69, 79
2, 429566, Note_on_c, 0, 67, 0
2, 429572, Note_on_c, 0, 58, 0
2, 429650, Note_on_c, 0, 69, 0
2, 429720, Control_c, 0, 64, 0
2, 429742, Note_on_c, 0, 65, 33
2, 429754, Note_on_c, 0, 53, 42
2, 429756, Note_on_c, 0, 60, 37
2, 429762, Note_on_c, 0, 69, 71
2, 429920, Control_c, 0, 64, 127
2, 429958, Note_on_c, 0, 53, 0
2, 429960, Note_on_c, 0, 65, 0
2, 429968, Note_on_c, 0, 60, 0
2, 430090, Control_c, 0, 64, 0
2, 430130, Note_on_c, 0, 65, 50
2, 430138, Note_on_c, 0, 53, 79
2, 430152, Note_on_c, 0, 60, 36
2, 430288, Control_c, 0, 64, 127
2, 430304, Note_on_c, 0, 65, 0
2, 430308, Note_on_c, 0, 53, 0
2, 430338, Note_on_c, 0, 60, 0
2, 430488, Control_c, 0, 64, 0
2, 430500, Note_on_c, 0, 62, 78
2, 430508, Note_on_c, 0, 65, 60
2, 430694, Note_on_c, 0, 70, 82
2, 430702, Note_on_c, 0, 65, 0
2, 430718, Control_c, 0, 64, 127
2, 430734, Note_on_c, 0, 69, 0
2, 430742, Note_on_c, 0, 62, 0
2, 430870, Note_on_c, 0, 69, 90
2, 430888, Control_c, 0, 64, 0
2, 430894, Note_on_c, 0, 62, 66
2, 430904, Note_on_c, 0, 65, 57
2, 430914, Note_on_c, 0, 70, 0
2, 431058, Control_c, 0, 64, 127
2, 431061, Note_on_c, 0, 70, 95
2, 431068, Note_on_c, 0, 65, 0
2, 431104, Note_on_c, 0, 69, 0
2, 431130, Note_on_c, 0, 62, 0
2, 431234, Note_on_c, 0, 58, 41
2, 431242, Note_on_c, 0, 65, 48
2, 431262, Note_on_c, 0, 67, 92
2, 431288, Control_c, 0, 64, 0
2, 431344, Note_on_c, 0, 70, 0
2, 431496, Note_on_c, 0, 65, 0
2, 431502, Control_c, 0, 64, 127
2, 431556, Note_on_c, 0, 58, 0
2, 431660, Note_on_c, 0, 69, 62
2, 431660, Note_on_c, 0, 64, 41
2, 431663, Note_on_c, 0, 60, 39
2, 431671, Control_c, 0, 64, 0
2, 431690, Note_on_c, 0, 67, 0
2, 431830, Note_on_c, 0, 69, 0
2, 431830, Note_on_c, 0, 70, 63
2, 431838, Note_on_c, 0, 64, 0
2, 431840, Control_c, 0, 64, 127
2, 431884, Note_on_c, 0, 70, 0
2, 431894, Note_on_c, 0, 69, 70
2, 431954, Note_on_c, 0, 69, 0
2, 431962, Note_on_c, 0, 70, 59
2, 431978, Control_c, 0, 64, 0
2, 431986, Note_on_c, 0, 60, 0
2, 432012, Note_on_c, 0, 65, 40
2, 432016, Note_on_c, 0, 69, 78
2, 432104, Note_on_c, 0, 70, 0
2, 432178, Control_c, 0, 64, 127
2, 432208, Note_on_c, 0, 65, 0
2, 432214, Note_on_c, 0, 67, 83
2, 432280, Note_on_c, 0, 69, 0
2, 432424, Note_on_c, 0, 67, 0
2, 432430, Note_on_c, 0, 65, 75
2, 432436, Note_on_c, 0, 53, 56
2, 432440, Control_c, 0, 64, 0
2, 432564, Control_c, 0, 64, 127
2, 432604, Note_on_c, 0, 53, 0
2, 432676, Note_on_c, 0, 65, 0
2, 432844, Note_on_c, 0, 77, 109
2, 432868, Note_on_c, 0, 69, 56
2, 432868, Note_on_c, 0, 65, 46
2, 432880, Note_on_c, 0, 62, 29
2, 432978, Control_c, 0, 64, 0
2, 433152, Note_on_c, 0, 62, 0
2, 433162, Control_c, 0, 64, 127
2, 433166, Note_on_c, 0, 65, 0
2, 433172, Note_on_c, 0, 69, 0
2, 433274, Note_on_c, 0, 65, 44
2, 433276, Note_on_c, 0, 69, 64
2, 433296, Note_on_c, 0, 62, 26
2, 433372, Note_on_c, 0, 62, 0
2, 433382, Note_on_c, 0, 65, 0
2, 433452, Note_on_c, 0, 69, 0
2, 433710, Note_on_c, 0, 67, 51
2, 433716, Note_on_c, 0, 71, 70
2, 433716, Note_on_c, 0, 62, 39
2, 433792, Control_c, 0, 64, 0
2, 433928, Note_on_c, 0, 79, 109
2, 433946, Control_c, 0, 64, 127
2, 433952, Note_on_c, 0, 71, 0
2, 433972, Note_on_c, 0, 67, 0
2, 433974, Note_on_c, 0, 77, 0
2, 433974, Note_on_c, 0, 62, 0
2, 434106, Note_on_c, 0, 77, 116
2, 434114, Note_on_c, 0, 71, 86
2, 434130, Note_on_c, 0, 62, 54
2, 434133, Note_on_c, 0, 67, 64
2, 434174, Note_on_c, 0, 79, 0
2, 434302, Note_on_c, 0, 67, 0
2, 434312, Note_on_c, 0, 79, 118
2, 434315, Note_on_c, 0, 71, 0
2, 434332, Note_on_c, 0, 62, 0
2, 434354, Note_on_c, 0, 77, 0
2, 434512, Note_on_c, 0, 76, 105
2, 434518, Note_on_c, 0, 67, 71
2, 434520, Note_on_c, 0, 71, 102
2, 434554, Note_on_c, 0, 60, 43
2, 434576, Control_c, 0, 64, 0
2, 434594, Note_on_c, 0, 79, 0
2, 434792, Note_on_c, 0, 67, 0
2, 434794, Note_on_c, 0, 60, 0
2, 434806, Control_c, 0, 64, 127
2, 434824, Note_on_c, 0, 71, 0
2, 434943, Note_on_c, 0, 71, 81
2, 434958, Note_on_c, 0, 67, 55
2, 434988, Note_on_c, 0, 60, 33
2, 435084, Note_on_c, 0, 67, 0
2, 435096, Note_on_c, 0, 60, 0
2, 435134, Note_on_c, 0, 71, 0
2, 435314, Note_on_c, 0, 69, 70
2, 435320, Note_on_c, 0, 65, 41
2, 435328, Note_on_c, 0, 60, 43
2, 435344, Control_c, 0, 64, 0
2, 435502, Note_on_c, 0, 77, 92
2, 435528, Control_c, 0, 64, 127
2, 435552, Note_on_c, 0, 65, 0
2, 435560, Note_on_c, 0, 76, 0
2, 435562, Note_on_c, 0, 69, 0
2, 435566, Note_on_c, 0, 60, 0
2, 435698, Note_on_c, 0, 76, 102
2, 435704, Note_on_c, 0, 69, 73
2, 435708, Note_on_c, 0, 60, 50
2, 435720, Note_on_c, 0, 65, 51
2, 435732, Note_on_c, 0, 77, 0
2, 435854, Note_on_c, 0, 65, 0
2, 435880, Note_on_c, 0, 69, 0
2, 435886, Note_on_c, 0, 77, 93
2, 435916, Note_on_c, 0, 60, 0
2, 435930, Note_on_c, 0, 76, 0
2, 436134, Note_on_c, 0, 74, 94
2, 436140, Note_on_c, 0, 69, 58
2, 436144, Note_on_c, 0, 65, 46
2, 436166, Note_on_c, 0, 59, 36
2, 436174, Note_on_c, 0, 77, 0
2, 436190, Control_c, 0, 64, 0
2, 436388, Control_c, 0, 64, 127
2, 436396, Note_on_c, 0, 76, 86
2, 436424, Note_on_c, 0, 65, 0
2, 436428, Note_on_c, 0, 74, 0
2, 436434, Note_on_c, 0, 59, 0
2, 436444, Note_on_c, 0, 69, 0
2, 436596, Note_on_c, 0, 74, 83
2, 436596, Note_on_c, 0, 67, 71
2, 436610, Note_on_c, 0, 64, 52
2, 436618, Note_on_c, 0, 59, 37
2, 436634, Control_c, 0, 64, 0
2, 436639, Note_on_c, 0, 76, 0
2, 436800, Note_on_c, 0, 76, 85
2, 436804, Note_on_c, 0, 64, 0
2, 436804, Control_c, 0, 64, 127
2, 436826, Note_on_c, 0, 59, 0
2, 436826, Note_on_c, 0, 67, 0
2, 436838, Note_on_c, 0, 74, 0
2, 436974, Control_c, 0, 64, 0
2, 436980, Note_on_c, 0, 67, 67
2, 436982, Note_on_c, 0, 72, 81
2, 436984, Note_on_c, 0, 64, 70
2, 437006, Note_on_c, 0, 57, 46
2, 437020, Note_on_c, 0, 76, 0
2, 437180, Note_on_c, 0, 74, 100
2, 437188, Control_c, 0, 64, 127
2, 437216, Note_on_c, 0, 72, 0
2, 437222, Note_on_c, 0, 64, 0
2, 437226, Note_on_c, 0, 67, 0
2, 437236, Note_on_c, 0, 57, 0
2, 437354, Note_on_c, 0, 65, 82
2, 437358, Note_on_c, 0, 72, 96
2, 437366, Note_on_c, 0, 62, 65
2, 437374, Note_on_c, 0, 57, 37
2, 437385, Note_on_c, 0, 74, 0
2, 437418, Control_c, 0, 64, 0
2, 437548, Note_on_c, 0, 74, 98
2, 437572, Control_c, 0, 64, 127
2, 437578, Note_on_c, 0, 62, 0
2, 437582, Note_on_c, 0, 65, 0
2, 437590, Note_on_c, 0, 57, 0
2, 437598, Note_on_c, 0, 72, 0
2, 437738, Note_on_c, 0, 62, 80
2, 437746, Note_on_c, 0, 71, 101
2, 437750, Note_on_c, 0, 65, 81
2, 437762, Note_on_c, 0, 55, 69
2, 437780, Note_on_c, 0, 74, 0
2, 437786, Control_c, 0, 64, 0
2, 437960, Note_on_c, 0, 72, 92
2, 437986, Control_c, 0, 64, 127
2, 438012, Note_on_c, 0, 71, 0
2, 438017, Note_on_c, 0, 65, 0
2, 438020, Note_on_c, 0, 62, 0
2, 438048, Note_on_c, 0, 55, 0
2, 438154, Note_on_c, 0, 64, 87
2, 438154, Note_on_c, 0, 71, 105
2, 438160, Note_on_c, 0, 55, 60
2, 438160, Note_on_c, 0, 60, 73
2, 438186, Control_c, 0, 64, 0
2, 438194, Note_on_c, 0, 72, 0
2, 438348, Note_on_c, 0, 72, 90
2, 438380, Note_on_c, 0, 64, 0
2, 438386, Control_c, 0, 64, 127
2, 438388, Note_on_c, 0, 60, 0
2, 438410, Note_on_c, 0, 71, 0
2, 438436, Note_on_c, 0, 55, 0
2, 438526, Note_on_c, 0, 69, 86
2, 438532, Note_on_c, 0, 64, 87
2, 438540, Note_on_c, 0, 53, 95
2, 438542, Note_on_c, 0, 60, 82
2, 438554, Control_c, 0, 64, 0
2, 438566, Note_on_c, 0, 72, 0
2, 438724, Note_on_c, 0, 71, 106
2, 438756, Control_c, 0, 64, 127
2, 438770, Note_on_c, 0, 64, 0
2, 438780, Note_on_c, 0, 60, 0
2, 438780, Note_on_c, 0, 69, 0
2, 438812, Note_on_c, 0, 53, 0
2, 438890, Note_on_c, 0, 69, 77
2, 438894, Note_on_c, 0, 53, 95
2, 438898, Note_on_c, 0, 62, 89
2, 438900, Note_on_c, 0, 59, 80
2, 438936, Note_on_c, 0, 71, 0
2, 438954, Control_c, 0, 64, 0
2, 439084, Note_on_c, 0, 71, 108
2, 439114, Note_on_c, 0, 62, 0
2, 439114, Note_on_c, 0, 59, 0
2, 439124, Control_c, 0, 64, 127
2, 439140, Note_on_c, 0, 53, 0
2, 439150, Note_on_c, 0, 69, 0
2, 439268, Note_on_c, 0, 59, 81
2, 439268, Note_on_c, 0, 67, 101
2, 439268, Note_on_c, 0, 62, 83
2, 439284, Note_on_c, 0, 52, 80
2, 439292, Control_c, 0, 64, 0
2, 439312, Note_on_c, 0, 71, 0
2, 439460, Note_on_c, 0, 69, 92
2, 439478, Control_c, 0, 64, 127
2, 439502, Note_on_c, 0, 59, 0
2, 439504, Note_on_c, 0, 62, 0
2, 439532, Note_on_c, 0, 67, 0
2, 439544, Note_on_c, 0, 52, 0
2, 439646, Note_on_c, 0, 52, 70
2, 439652, Note_on_c, 0, 67, 93
2, 439654, Note_on_c, 0, 60, 90
2, 439676, Control_c, 0, 64, 0
2, 439704, Note_on_c, 0, 69, 0
2, 439840, Note_on_c, 0, 72, 97
2, 439843, Note_on_c, 0, 60, 0
2, 439846, Control_c, 0, 64, 127
2, 439906, Note_on_c, 0, 67, 0
2, 439968, Note_on_c, 0, 52, 0
2, 440014, Note_on_c, 0, 57, 78
2, 440016, Note_on_c, 0, 67, 86
2, 440024, Note_on_c, 0, 60, 79
2, 440030, Note_on_c, 0, 72, 0
2, 440046, Control_c, 0, 64, 0
2, 440208, Note_on_c, 0, 72, 97
2, 440238, Note_on_c, 0, 60, 0
2, 440246, Control_c, 0, 64, 127
2, 440294, Note_on_c, 0, 57, 0
2, 440302, Note_on_c, 0, 67, 0
2, 440366, Note_on_c, 0, 72, 0
2, 440398, Note_on_c, 0, 65, 87
2, 440401, Note_on_c, 0, 60, 74
2, 440401, Note_on_c, 0, 57, 74
2, 440460, Control_c, 0, 64, 0
2, 440596, Note_on_c, 0, 72, 101
2, 440614, Control_c, 0, 64, 127
2, 440626, Note_on_c, 0, 60, 0
2, 440680, Note_on_c, 0, 57, 0
2, 440706, Note_on_c, 0, 72, 0
2, 440744, Note_on_c, 0, 65, 0
2, 440816, Note_on_c, 0, 72, 97
2, 440822, Note_on_c, 0, 62, 90
2, 440824, Note_on_c, 0, 55, 87
2, 440826, Note_on_c, 0, 67, 89
2, 440830, Control_c, 0, 64, 0
2, 441122, Control_c, 0, 64, 127
2, 441128, Note_on_c, 0, 67, 0
2, 441156, Note_on_c, 0, 62, 0
2, 441178, Note_on_c, 0, 55, 0
2, 441252, Note_on_c, 0, 71, 104
2, 441256, Note_on_c, 0, 62, 67
2, 441262, Note_on_c, 0, 55, 69
2, 441266, Note_on_c, 0, 67, 70
2, 441302, Note_on_c, 0, 72, 0
2, 441352, Control_c, 0, 64, 0
2, 441468, Note_on_c, 0, 72, 94
2, 441498, Note_on_c, 0, 67, 0
2, 441522, Control_c, 0, 64, 127
2, 441544, Note_on_c, 0, 71, 0
2, 441554, Note_on_c, 0, 62, 0
2, 441602, Note_on_c, 0, 55, 0
2, 441604, Note_on_c, 0, 72, 0
2, 441684, Note_on_c, 0, 72, 80
2, 441690, Control_c, 0, 64, 0
2, 441692, Note_on_c, 0, 67, 79
2, 441692, Note_on_c, 0, 60, 69
2, 441694, Note_on_c, 0, 64, 86
2, 442062, Note_on_c, 0, 60, 0
2, 442196, Control_c, 0, 64, 127
2, 442218, Note_on_c, 0, 64, 0
2, 442230, Note_on_c, 0, 48, 77
2, 442276, Note_on_c, 0, 48, 0
2, 442285, Note_on_c, 0, 67, 0
2, 442326, Note_on_c, 0, 72, 0
2, 442750, Control_c, 0, 64, 0
2, 442930, Note_on_c, 0, 43, 46
2, 442934, Note_on_c, 0, 48, 37
2, 442942, Note_on_c, 0, 64, 52
2, 442942, Note_on_c, 0, 36, 37
2, 442945, Note_on_c, 0, 67, 41
2, 443118, Note_on_c, 0, 64, 0
2, 443144, Note_on_c, 0, 62, 48
2, 443260, Note_on_c, 0, 67, 0
2, 443288, Note_on_c, 0, 62, 0
2, 443368, Note_on_c, 0, 64, 17
2, 443480, Note_on_c, 0, 64, 0
2, 443500, Note_on_c, 0, 67, 66
2, 443668, Note_on_c, 0, 65, 40
2, 443856, Note_on_c, 0, 65, 0
2, 443870, Note_on_c, 0, 64, 36
2, 443918, Note_on_c, 0, 67, 0
2, 443974, Note_on_c, 0, 64, 0
2, 444034, Note_on_c, 0, 62, 33
2, 444040, Control_c, 0, 64, 127
2, 444108, Note_on_c, 0, 62, 0
2, 444114, Note_on_c, 0, 43, 0
2, 444130, Note_on_c, 0, 36, 0
2, 444150, Note_on_c, 0, 48, 0
2, 444204, Note_on_c, 0, 67, 60
2, 444206, Note_on_c, 0, 65, 54
2, 444380, Note_on_c, 0, 65, 0
2, 444388, Note_on_c, 0, 64, 52
2, 444394, Note_on_c, 0, 48, 26
2, 444416, Note_on_c, 0, 43, 33
2, 444428, Note_on_c, 0, 36, 25
2, 444456, Control_c, 0, 64, 0
2, 444538, Note_on_c, 0, 64, 0
2, 444574, Note_on_c, 0, 62, 39
2, 444686, Note_on_c, 0, 62, 0
2, 444752, Note_on_c, 0, 67, 0
2, 444774, Note_on_c, 0, 60, 29
2, 444880, Note_on_c, 0, 60, 0
2, 444956, Note_on_c, 0, 64, 44
2, 444956, Note_on_c, 0, 67, 47
2, 445138, Note_on_c, 0, 64, 0
2, 445138, Note_on_c, 0, 62, 40
2, 445288, Note_on_c, 0, 62, 0
2, 445344, Note_on_c, 0, 59, 40
2, 445552, Note_on_c, 0, 59, 0
2, 445592, Control_c, 0, 64, 127
2, 445604, Note_on_c, 0, 55, 23
2, 445650, Note_on_c, 0, 36, 0
2, 445656, Note_on_c, 0, 43, 0
2, 445668, Note_on_c, 0, 48, 0
2, 445714, Note_on_c, 0, 55, 0
2, 445786, Note_on_c, 0, 67, 0
2, 445970, Note_on_c, 0, 72, 79
2, 445982, Note_on_c, 0, 65, 48
2, 445992, Control_c, 0, 64, 0
2, 445994, Note_on_c, 0, 48, 42
2, 446002, Note_on_c, 0, 43, 39
2, 446016, Note_on_c, 0, 36, 33
2, 446164, Note_on_c, 0, 69, 47
2, 446172, Note_on_c, 0, 65, 0
2, 446330, Control_c, 0, 64, 127
2, 446348, Note_on_c, 0, 69, 0
2, 446350, Note_on_c, 0, 65, 43
2, 446356, Note_on_c, 0, 72, 0
2, 446486, Note_on_c, 0, 65, 0
2, 446524, Note_on_c, 0, 62, 43
2, 446644, Note_on_c, 0, 62, 0
2, 446694, Note_on_c, 0, 67, 60
2, 446697, Control_c, 0, 64, 0
2, 446702, Note_on_c, 0, 60, 43
2, 446824, Note_on_c, 0, 60, 0
2, 446898, Note_on_c, 0, 64, 47
2, 446944, Control_c, 0, 64, 127
2, 446970, Note_on_c, 0, 67, 0
2, 447014, Note_on_c, 0, 64, 0
2, 447022, Note_on_c, 0, 43, 0
2, 447024, Note_on_c, 0, 48, 0
2, 447032, Note_on_c, 0, 36, 0
2, 447064, Note_on_c, 0, 60, 36
2, 447150, Note_on_c, 0, 60, 0
2, 447234, Note_on_c, 0, 57, 32
2, 447310, Note_on_c, 0, 57, 0
2, 447390, Control_c, 0, 64, 0
2, 447420, Note_on_c, 0, 62, 42
2, 447422, Note_on_c, 0, 55, 40
2, 447448, Note_on_c, 0, 48, 21
2, 447451, Note_on_c, 0, 43, 21
2, 447458, Note_on_c, 0, 36, 20
2, 447544, Note_on_c, 0, 55, 0
2, 447628, Note_on_c, 0, 59, 35
2, 447802, Note_on_c, 0, 59, 0
2, 447850, Note_on_c, 0, 55, 20
2, 447892, Note_on_c, 0, 62, 0
2, 447912, Control_c, 0, 64, 127
2, 447948, Note_on_c, 0, 55, 0
2, 448016, Note_on_c, 0, 50, 28
2, 448110, Note_on_c, 0, 50, 0
2, 448328, Control_c, 0, 64, 0
2, 448331, Note_on_c, 0, 52, 25
2, 448338, Note_on_c, 0, 60, 35
2, 448742, Control_c, 0, 64, 127
2, 448810, Note_on_c, 0, 36, 0
2, 448894, Note_on_c, 0, 52, 0
2, 448894, Note_on_c, 0, 43, 0
2, 448902, Note_on_c, 0, 48, 0
2, 448992, Note_on_c, 0, 60, 0
2, 449834, Control_c, 0, 64, 0
2, 450118, Note_on_c, 0, 67, 32
2, 450146, Note_on_c, 0, 55, 19
2, 450149, Note_on_c, 0, 59, 10
2, 450484, Note_on_c, 0, 59, 0
2, 450486, Note_on_c, 0, 69, 23
2, 450496, Note_on_c, 0, 60, 18
2, 450598, Note_on_c, 0, 60, 0
2, 450610, Note_on_c, 0, 69, 0
2, 450860, Note_on_c, 0, 69, 41
2, 450864, Note_on_c, 0, 60, 31
2, 450986, Control_c, 0, 64, 127
2, 451210, Note_on_c, 0, 60, 0
2, 451215, Control_c, 0, 64, 0
2, 451222, Note_on_c, 0, 72, 40
2, 451236, Note_on_c, 0, 64, 32
2, 451244, Note_on_c, 0, 69, 0
2, 451332, Note_on_c, 0, 64, 0
2, 451340, Note_on_c, 0, 72, 0
2, 451340, Control_c, 0, 64, 127
2, 451432, Control_c, 0, 64, 0
2, 451626, Note_on_c, 0, 64, 31
2, 451630, Note_on_c, 0, 72, 41
2, 451998, Note_on_c, 0, 72, 0
2, 451998, Note_on_c, 0, 76, 40
2, 452006, Note_on_c, 0, 66, 31
2, 452036, Note_on_c, 0, 64, 0
2, 452156, Note_on_c, 0, 66, 0
2, 452190, Note_on_c, 0, 67, 0
2, 452216, Note_on_c, 0, 76, 0
2, 452416, Note_on_c, 0, 76, 48
2, 452432, Note_on_c, 0, 66, 31
2, 452442, Note_on_c, 0, 69, 24
2, 452458, Note_on_c, 0, 72, 6
2, 452796, Note_on_c, 0, 72, 0
2, 452798, Control_c, 0, 64, 127
2, 453054, Note_on_c, 0, 76, 0
2, 453078, Note_on_c, 0, 69, 0
2, 453100, Note_on_c, 0, 74, 50
2, 453148, Note_on_c, 0, 76, 49
2, 453150, Note_on_c, 0, 74, 0
2, 453154, Note_on_c, 0, 66, 0
2, 453182, Control_c, 0, 64, 0
2, 453206, Note_on_c, 0, 76, 0
2, 453226, Note_on_c, 0, 71, 33
2, 453226, Note_on_c, 0, 74, 77
2, 453252, Note_on_c, 0, 67, 32
2, 453346, Note_on_c, 0, 71, 0
2, 453418, Note_on_c, 0, 72, 63
2, 453426, Note_on_c, 0, 74, 0
2, 453488, Note_on_c, 0, 67, 0
2, 453488, Note_on_c, 0, 72, 0
2, 453608, Note_on_c, 0, 71, 69
2, 453611, Note_on_c, 0, 64, 36
2, 453630, Note_on_c, 0, 67, 17
2, 453684, Note_on_c, 0, 64, 0
2, 453732, Note_on_c, 0, 67, 0
2, 453962, Note_on_c, 0, 71, 0
2, 453974, Note_on_c, 0, 72, 42
2, 453988, Note_on_c, 0, 67, 29
2, 453998, Note_on_c, 0, 57, 32
2, 454316, Note_on_c, 0, 67, 0
2, 454336, Control_c, 0, 64, 127
2, 454339, Note_on_c, 0, 72, 0
2, 454352, Note_on_c, 0, 57, 0
2, 454370, Note_on_c, 0, 69, 27
2, 454374, Note_on_c, 0, 66, 12
2, 454376, Note_on_c, 0, 62, 37
2, 454396, Control_c, 0, 64, 0
2, 454478, Note_on_c, 0, 55, 0
2, 454550, Control_c, 0, 64, 127
2, 454560, Note_on_c, 0, 69, 0
2, 454600, Note_on_c, 0, 71, 29
2, 454624, Note_on_c, 0, 62, 0
2, 454627, Control_c, 0, 64, 0
2, 454646, Note_on_c, 0, 72, 47
2, 454702, Note_on_c, 0, 72, 0
2, 454728, Note_on_c, 0, 55, 39
2, 454756, Note_on_c, 0, 62, 44
2, 454782, Note_on_c, 0, 66, 0
2, 454826, Note_on_c, 0, 62, 0
2, 454894, Note_on_c, 0, 71, 0
2, 454934, Note_on_c, 0, 69, 31
2, 455032, Note_on_c, 0, 69, 0
2, 455114, Note_on_c, 0, 55, 0
2, 455118, Note_on_c, 0, 59, 31
2, 455120, Note_on_c, 0, 67, 49
2, 455288, Control_c, 0, 64, 127
2, 455336, Note_on_c, 0, 67, 0
2, 455468, Note_on_c, 0, 59, 0
2, 455490, Note_on_c, 0, 69, 42
2, 455500, Note_on_c, 0, 66, 23
2, 455504, Control_c, 0, 64, 0
2, 455522, Note_on_c, 0, 62, 28
2, 455844, Note_on_c, 0, 62, 0
2, 455888, Note_on_c, 0, 50, 52
2, 455918, Control_c, 0, 64, 127
2, 455942, Note_on_c, 0, 50, 0
2, 455996, Note_on_c, 0, 66, 0
2, 456004, Note_on_c, 0, 69, 0
2, 456260, Note_on_c, 0, 67, 89
2, 456264, Note_on_c, 0, 55, 72
2, 456268, Note_on_c, 0, 59, 63
2, 456272, Note_on_c, 0, 43, 70
2, 456364, Control_c, 0, 64, 0
2, 456532, Note_on_c, 0, 59, 0
2, 456532, Control_c, 0, 64, 127
2, 456560, Note_on_c, 0, 67, 0
2, 456642, Note_on_c, 0, 55, 0
2, 456648, Note_on_c, 0, 67, 56
2, 456651, Note_on_c, 0, 69, 78
2, 456664, Note_on_c, 0, 60, 55
2, 456690, Note_on_c, 0, 43, 0
2, 456702, Control_c, 0, 64, 0
2, 456762, Control_c, 0, 64, 127
2, 456802, Note_on_c, 0, 67, 0
2, 456826, Note_on_c, 0, 54, 93
2, 456840, Note_on_c, 0, 42, 74
2, 456868, Note_on_c, 0, 69, 0
2, 456886, Note_on_c, 0, 60, 0
2, 456950, Note_on_c, 0, 54, 0
2, 456974, Note_on_c, 0, 42, 0
2, 456978, Control_c, 0, 64, 0
2, 457016, Note_on_c, 0, 69, 86
2, 457026, Note_on_c, 0, 67, 93
2, 457029, Note_on_c, 0, 60, 86
2, 457032, Note_on_c, 0, 52, 105
2, 457040, Note_on_c, 0, 40, 110
2, 457244, Note_on_c, 0, 67, 0
2, 457250, Note_on_c, 0, 60, 0
2, 457316, Control_c, 0, 64, 127
2, 457392, Control_c, 0, 64, 0
2, 457398, Note_on_c, 0, 72, 101
2, 457402, Note_on_c, 0, 67, 94
2, 457408, Note_on_c, 0, 64, 83
2, 457426, Note_on_c, 0, 69, 0
2, 457444, Note_on_c, 0, 52, 0
2, 457480, Note_on_c, 0, 40, 0
2, 457514, Control_c, 0, 64, 127
2, 457522, Note_on_c, 0, 67, 0
2, 457586, Note_on_c, 0, 50, 98
2, 457594, Note_on_c, 0, 38, 92
2, 457600, Note_on_c, 0, 64, 0
2, 457602, Note_on_c, 0, 72, 0
2, 457662, Note_on_c, 0, 38, 0
2, 457684, Note_on_c, 0, 50, 0
2, 457700, Control_c, 0, 64, 0
2, 457776, Note_on_c, 0, 72, 111
2, 457794, Note_on_c, 0, 48, 94
2, 457796, Note_on_c, 0, 67, 83
2, 457796, Note_on_c, 0, 64, 87
2, 457802, Note_on_c, 0, 36, 95
2, 457946, Control_c, 0, 64, 127
2, 457998, Note_on_c, 0, 64, 0
2, 458010, Note_on_c, 0, 67, 0
2, 458064, Note_on_c, 0, 72, 0
2, 458114, Control_c, 0, 64, 0
2, 458146, Note_on_c, 0, 76, 108
2, 458150, Note_on_c, 0, 72, 67
2, 458160, Note_on_c, 0, 67, 78
2, 458186, Note_on_c, 0, 48, 0
2, 458226, Note_on_c, 0, 36, 0
2, 458268, Control_c, 0, 64, 127
2, 458290, Note_on_c, 0, 72, 0
2, 458290, Note_on_c, 0, 67, 0
2, 458314, Note_on_c, 0, 47, 83
2, 458322, Note_on_c, 0, 35, 92
2, 458330, Note_on_c, 0, 76, 0
2, 458366, Note_on_c, 0, 35, 0
2, 458378, Note_on_c, 0, 47, 0
2, 458542, Note_on_c, 0, 76, 104
2, 458545, Control_c, 0, 64, 0
2, 458545, Note_on_c, 0, 66, 73
2, 458556, Note_on_c, 0, 72, 85
2, 458559, Note_on_c, 0, 45, 77
2, 458566, Note_on_c, 0, 33, 86
2, 459040, Note_on_c, 0, 76, 0
2, 459052, Control_c, 0, 64, 127
2, 459070, Note_on_c, 0, 72, 0
2, 459118, Note_on_c, 0, 33, 0
2, 459128, Note_on_c, 0, 45, 0
2, 459132, Note_on_c, 0, 66, 0
2, 459298, Control_c, 0, 64, 0
2, 459332, Note_on_c, 0, 74, 94
2, 459338, Note_on_c, 0, 62, 73
2, 459360, Note_on_c, 0, 67, 52
2, 459362, Note_on_c, 0, 35, 67
2, 459372, Note_on_c, 0, 47, 33
2, 459422, Note_on_c, 0, 35, 0
2, 459452, Note_on_c, 0, 62, 0
2, 459462, Note_on_c, 0, 67, 0
2, 459464, Note_on_c, 0, 47, 0
2, 459482, Control_c, 0, 64, 127
2, 459522, Note_on_c, 0, 72, 82
2, 459550, Note_on_c, 0, 74, 0
2, 459666, Control_c, 0, 64, 0
2, 459678, Note_on_c, 0, 72, 0
2, 459716, Note_on_c, 0, 71, 104
2, 459716, Note_on_c, 0, 64, 86
2, 459724, Note_on_c, 0, 52, 80
2, 459727, Note_on_c, 0, 67, 74
2, 459730, Note_on_c, 0, 40, 72
2, 459774, Note_on_c, 0, 52, 0
2, 459798, Note_on_c, 0, 40, 0
2, 459836, Control_c, 0, 64, 127
2, 459839, Note_on_c, 0, 64, 0
2, 459844, Note_on_c, 0, 71, 0
2, 459858, Note_on_c, 0, 67, 0
2, 460066, Control_c, 0, 64, 0
2, 460082, Note_on_c, 0, 72, 100
2, 460088, Note_on_c, 0, 60, 86
2, 460098, Note_on_c, 0, 45, 59
2, 460098, Note_on_c, 0, 67, 74
2, 460112, Note_on_c, 0, 33, 49
2, 460190, Note_on_c, 0, 33, 0
2, 460246, Note_on_c, 0, 60, 0
2, 460252, Control_c, 0, 64, 127
2, 460258, Note_on_c, 0, 45, 0
2, 460264, Note_on_c, 0, 67, 0
2, 460436, Control_c, 0, 64, 0
2, 460454, Note_on_c, 0, 69, 87
2, 460462, Note_on_c, 0, 62, 79
2, 460466, Note_on_c, 0, 66, 55
2, 460472, Note_on_c, 0, 72, 0
2, 460480, Note_on_c, 0, 50, 81
2, 460500, Note_on_c, 0, 38, 41
2, 460554, Note_on_c, 0, 50, 0
2, 460604, Note_on_c, 0, 38, 0
2, 460616, Note_on_c, 0, 62, 0
2, 460618, Control_c, 0, 64, 127
2, 460648, Note_on_c, 0, 66, 0
2, 460808, Note_on_c, 0, 69, 0
2, 460818, Control_c, 0, 64, 0
2, 460832, Note_on_c, 0, 62, 77
2, 460835, Note_on_c, 0, 71, 67
2, 460847, Note_on_c, 0, 43, 59
2, 460850, Note_on_c, 0, 31, 58
2, 460852, Note_on_c, 0, 67, 49
2, 460916, Note_on_c, 0, 31, 0
2, 460922, Note_on_c, 0, 62, 0
2, 460936, Note_on_c, 0, 67, 0
2, 460986, Note_on_c, 0, 43, 0
2, 461002, Note_on_c, 0, 71, 0
2, 461002, Control_c, 0, 64, 127
2, 461026, Note_on_c, 0, 72, 67
2, 461166, Note_on_c, 0, 72, 0
2, 461172, Control_c, 0, 64, 0
2, 461210, Note_on_c, 0, 69, 66
2, 461220, Note_on_c, 0, 64, 59
2, 461230, Note_on_c, 0, 48, 33
2, 461230, Note_on_c, 0, 36, 34
2, 461278, Note_on_c, 0, 64, 0
2, 461354, Note_on_c, 0, 36, 0
2, 461356, Control_c, 0, 64, 127
2, 461380, Note_on_c, 0, 69, 0
2, 461380, Note_on_c, 0, 67, 80
2, 461392, Note_on_c, 0, 48, 0
2, 461422, Note_on_c, 0, 67, 0
2, 461540, Control_c, 0, 64, 0
2, 461572, Note_on_c, 0, 50, 41
2, 461574, Note_on_c, 0, 38, 32
2, 461578, Note_on_c, 0, 66, 75
2, 461582, Note_on_c, 0, 57, 82
2, 461640, Note_on_c, 0, 38, 0
2, 461643, Note_on_c, 0, 50, 0
2, 461661, Note_on_c, 0, 66, 0
2, 461672, Note_on_c, 0, 67, 72
2, 461680, Control_c, 0, 64, 127
2, 461764, Note_on_c, 0, 66, 8
2, 461846, Note_on_c, 0, 67, 0
2, 461956, Control_c, 0, 64, 0
2, 461990, Note_on_c, 0, 62, 41
2, 462006, Note_on_c, 0, 50, 44
2, 462096, Note_on_c, 0, 62, 0
2, 462140, Control_c, 0, 64, 127
2, 462146, Note_on_c, 0, 50, 0
2, 462200, Note_on_c, 0, 67, 54
2, 462202, Note_on_c, 0, 57, 0
2, 462232, Note_on_c, 0, 66, 0
2, 462272, Note_on_c, 0, 67, 0
2, 462386, Control_c, 0, 64, 0
2, 462420, Note_on_c, 0, 67, 59
2, 462423, Note_on_c, 0, 43, 33
2, 462423, Note_on_c, 0, 62, 40
2, 462423, Note_on_c, 0, 59, 39
2, 462434, Note_on_c, 0, 55, 50
2, 462570, Control_c, 0, 64, 127
2, 462572, Note_on_c, 0, 55, 0
2, 462634, Note_on_c, 0, 43, 0
2, 462740, Control_c, 0, 64, 0
2, 462828, Note_on_c, 0, 50, 58
2, 462828, Note_on_c, 0, 38, 71
2, 462940, Control_c, 0, 64, 127
2, 462960, Note_on_c, 0, 50, 0
2, 463020, Note_on_c, 0, 38, 0
2, 463138, Control_c, 0, 64, 0
2, 463306, Note_on_c, 0, 31, 64
2, 463310, Note_on_c, 0, 43, 56
2, 463568, Control_c, 0, 64, 127
2, 463660, Note_on_c, 0, 31, 0
2, 463708, Note_on_c, 0, 43, 0
2, 463716, Note_on_c, 0, 59, 0
2, 463728, Note_on_c, 0, 62, 0
2, 463802, Note_on_c, 0, 67, 0
2, 463876, Control_c, 0, 64, 0
2, 464268, Note_on_c, 0, 69, 35
2, 464282, Note_on_c, 0, 57, 25
2, 464285, Note_on_c, 0, 62, 23
2, 464294, Note_on_c, 0, 54, 32
2, 464654, Note_on_c, 0, 54, 0
2, 464666, Note_on_c, 0, 74, 65
2, 464674, Note_on_c, 0, 66, 29
2, 464688, Note_on_c, 0, 50, 40
2, 464698, Note_on_c, 0, 62, 0
2, 464710, Note_on_c, 0, 69, 0
2, 464874, Control_c, 0, 64, 127
2, 464882, Note_on_c, 0, 57, 0
2, 464882, Note_on_c, 0, 50, 0
2, 464886, Note_on_c, 0, 74, 0
2, 464954, Note_on_c, 0, 66, 0
2, 465066, Note_on_c, 0, 71, 73
2, 465094, Note_on_c, 0, 57, 11
2, 465096, Note_on_c, 0, 62, 27
2, 465098, Note_on_c, 0, 55, 35
2, 465120, Control_c, 0, 64, 0
2, 465456, Note_on_c, 0, 69, 50
2, 465474, Note_on_c, 0, 71, 0
2, 465477, Note_on_c, 0, 54, 42
2, 465498, Note_on_c, 0, 55, 0
2, 465616, Note_on_c, 0, 57, 0
2, 465650, Note_on_c, 0, 62, 0
2, 465658, Control_c, 0, 64, 127
2, 465668, Note_on_c, 0, 54, 0
2, 465706, Note_on_c, 0, 69, 0
2, 465798, Control_c, 0, 64, 0
2, 465848, Note_on_c, 0, 69, 56
2, 465860, Note_on_c, 0, 54, 34
2, 465868, Note_on_c, 0, 62, 36
2, 465870, Note_on_c, 0, 57, 25
2, 466018, Note_on_c, 0, 66, 57
2, 466038, Note_on_c, 0, 69, 0
2, 466184, Note_on_c, 0, 54, 0
2, 466186, Note_on_c, 0, 69, 60
2, 466210, Note_on_c, 0, 50, 36
2, 466222, Note_on_c, 0, 66, 0
2, 466318, Note_on_c, 0, 57, 0
2, 466318, Note_on_c, 0, 62, 0
2, 466340, Note_on_c, 0, 69, 0
2, 466354, Note_on_c, 0, 74, 82
2, 466366, Control_c, 0, 64, 127
2, 466402, Note_on_c, 0, 74, 0
2, 466492, Note_on_c, 0, 50, 0
2, 466528, Note_on_c, 0, 71, 83
2, 466534, Control_c, 0, 64, 0
2, 466542, Note_on_c, 0, 62, 54
2, 466552, Note_on_c, 0, 55, 27
2, 466574, Note_on_c, 0, 57, 19
2, 466577, Note_on_c, 0, 71, 0
2, 466584, Note_on_c, 0, 73, 69
2, 466638, Note_on_c, 0, 73, 0
2, 466654, Note_on_c, 0, 71, 78
2, 466918, Note_on_c, 0, 71, 0
2, 466920, Note_on_c, 0, 69, 44
2, 466936, Note_on_c, 0, 54, 40
2, 466952, Note_on_c, 0, 55, 0
2, 467114, Note_on_c, 0, 57, 0
2, 467150, Note_on_c, 0, 54, 0
2, 467150, Control_c, 0, 64, 127
2, 467153, Note_on_c, 0, 69, 0
2, 467156, Note_on_c, 0, 62, 0
2, 467322, Note_on_c, 0, 69, 55
2, 467334, Note_on_c, 0, 54, 39
2, 467334, Note_on_c, 0, 62, 39
2, 467342, Note_on_c, 0, 57, 36
2, 467364, Control_c, 0, 64, 0
2, 467510, Note_on_c, 0, 66, 56
2, 467576, Note_on_c, 0, 69, 0
2, 467690, Note_on_c, 0, 54, 0
2, 467702, Note_on_c, 0, 69, 44
2, 467724, Note_on_c, 0, 50, 40
2, 467740, Note_on_c, 0, 66, 0
2, 467820, Note_on_c, 0, 62, 0
2, 467826, Note_on_c, 0, 57, 0
2, 467856, Control_c, 0, 64, 127
2, 467866, Note_on_c, 0, 74, 71
2, 467886, Note_on_c, 0, 69, 0
2, 468064, Note_on_c, 0, 67, 66
2, 468068, Note_on_c, 0, 74, 0
2, 468076, Note_on_c, 0, 62, 59
2, 468076, Note_on_c, 0, 59, 47
2, 468210, Control_c, 0, 64, 0
2, 468260, Note_on_c, 0, 64, 66
2, 468274, Note_on_c, 0, 67, 0
2, 468284, Note_on_c, 0, 50, 0
2, 468364, Control_c, 0, 64, 127
2, 468424, Note_on_c, 0, 67, 69
2, 468462, Note_on_c, 0, 50, 46
2, 468508, Note_on_c, 0, 62, 0
2, 468534, Note_on_c, 0, 59, 0
2, 468568, Note_on_c, 0, 64, 0
2, 468592, Note_on_c, 0, 67, 0
2, 468624, Note_on_c, 0, 74, 62
2, 468788, Note_on_c, 0, 66, 54
2, 468800, Note_on_c, 0, 74, 0
2, 468800, Note_on_c, 0, 61, 62
2, 468838, Note_on_c, 0, 57, 36
2, 468870, Control_c, 0, 64, 0
2, 468994, Note_on_c, 0, 62, 63
2, 469020, Note_on_c, 0, 50, 0
2, 469036, Note_on_c, 0, 66, 0
2, 469054, Control_c, 0, 64, 127
2, 469178, Note_on_c, 0, 62, 0
2, 469178, Note_on_c, 0, 66, 50
2, 469232, Note_on_c, 0, 50, 35
2, 469266, Note_on_c, 0, 57, 0
2, 469276, Note_on_c, 0, 61, 0
2, 469370, Note_on_c, 0, 74, 55
2, 469424, Note_on_c, 0, 66, 0
2, 469466, Note_on_c, 0, 74, 0
2, 469548, Note_on_c, 0, 64, 51
2, 469556, Note_on_c, 0, 59, 47
2, 469578, Note_on_c, 0, 55, 31
2, 469584, Note_on_c, 0, 50, 0
2, 469622, Control_c, 0, 64, 0
2, 469734, Note_on_c, 0, 62, 55
2, 469740, Note_on_c, 0, 64, 0
2, 469760, Control_c, 0, 64, 127
2, 469884, Note_on_c, 0, 62, 0
2, 469930, Note_on_c, 0, 64, 56
2, 469964, Note_on_c, 0, 50, 32
2, 470012, Note_on_c, 0, 64, 0
2, 470046, Note_on_c, 0, 55, 0
2, 470074, Note_on_c, 0, 59, 0
2, 470102, Note_on_c, 0, 74, 55
2, 470138, Note_on_c, 0, 50, 0
2, 470184, Note_on_c, 0, 74, 0
2, 470298, Note_on_c, 0, 57, 43
2, 470304, Note_on_c, 0, 62, 44
2, 470312, Note_on_c, 0, 54, 32
2, 470360, Control_c, 0, 64, 0
2, 470488, Note_on_c, 0, 62, 0
2, 470492, Note_on_c, 0, 61, 57
2, 470544, Control_c, 0, 64, 127
2, 470658, Note_on_c, 0, 61, 0
2, 470718, Note_on_c, 0, 62, 47
2, 470726, Note_on_c, 0, 50, 46
2, 470754, Note_on_c, 0, 54, 0
2, 470782, Note_on_c, 0, 57, 0
2, 470812, Note_on_c, 0, 62, 0
2, 470892, Note_on_c, 0, 74, 59
2, 470954, Note_on_c, 0, 74, 0
2, 471062, Note_on_c, 0, 62, 58
2, 471068, Note_on_c, 0, 55, 67
2, 471082, Control_c, 0, 64, 0
2, 471096, Note_on_c, 0, 52, 57
2, 471162, Note_on_c, 0, 50, 0
2, 471236, Note_on_c, 0, 62, 0
2, 471252, Note_on_c, 0, 61, 56
2, 471294, Note_on_c, 0, 52, 0
2, 471312, Control_c, 0, 64, 127
2, 471376, Note_on_c, 0, 61, 0
2, 471466, Note_on_c, 0, 62, 54
2, 471482, Note_on_c, 0, 45, 35
2, 471496, Note_on_c, 0, 55, 0
2, 471562, Note_on_c, 0, 62, 0
2, 471650, Note_on_c, 0, 74, 43
2, 471768, Note_on_c, 0, 74, 0
2, 471836, Control_c, 0, 64, 0
2, 471844, Note_on_c, 0, 62, 44
2, 471852, Note_on_c, 0, 54, 52
2, 471870, Note_on_c, 0, 50, 36
2, 472002, Note_on_c, 0, 50, 0
2, 472002, Note_on_c, 0, 45, 0
2, 472020, Control_c, 0, 64, 127
2, 472032, Note_on_c, 0, 54, 0
2, 472034, Note_on_c, 0, 62, 0
2, 472044, Note_on_c, 0, 61, 40
2, 472240, Note_on_c, 0, 61, 0
2, 472268, Note_on_c, 0, 38, 35
2, 472286, Note_on_c, 0, 62, 33
2, 472408, Note_on_c, 0, 38, 0
2, 472452, Note_on_c, 0, 62, 0
2, 472522, Note_on_c, 0, 74, 43
2, 472674, Note_on_c, 0, 62, 54
2, 472682, Control_c, 0, 64, 0
2, 472756, Note_on_c, 0, 62, 0
2, 472876, Note_on_c, 0, 60, 48
2, 472938, Note_on_c, 0, 60, 0
2, 473060, Note_on_c, 0, 59, 50
2, 473112, Note_on_c, 0, 59, 0
2, 473128, Note_on_c, 0, 74, 0
2, 473248, Note_on_c, 0, 57, 44
2, 473310, Note_on_c, 0, 57, 0
2, 473482, Note_on_c, 0, 67, 42
2, 473498, Note_on_c, 0, 59, 33
2, 473498, Note_on_c, 0, 55, 43
2, 473838, Note_on_c, 0, 59, 0
2, 473848, Note_on_c, 0, 69, 42
2, 473872, Note_on_c, 0, 60, 28
2, 474028, Note_on_c, 0, 60, 0
2, 474048, Control_c, 0, 64, 127
2, 474050, Note_on_c, 0, 69, 0
2, 474250, Note_on_c, 0, 69, 51
2, 474274, Note_on_c, 0, 60, 32
2, 474478, Control_c, 0, 64, 0
2, 474660, Note_on_c, 0, 72, 42
2, 474660, Note_on_c, 0, 64, 35
2, 474670, Note_on_c, 0, 60, 0
2, 474690, Note_on_c, 0, 69, 0
2, 474802, Note_on_c, 0, 72, 0
2, 474802, Control_c, 0, 64, 127
2, 474822, Note_on_c, 0, 64, 0
2, 475026, Note_on_c, 0, 72, 63
2, 475064, Note_on_c, 0, 64, 34
2, 475246, Control_c, 0, 64, 0
2, 475386, Note_on_c, 0, 67, 0
2, 475418, Note_on_c, 0, 76, 65
2, 475446, Note_on_c, 0, 66, 36
2, 475456, Note_on_c, 0, 72, 0
2, 475468, Note_on_c, 0, 64, 0
2, 475628, Note_on_c, 0, 66, 0
2, 475646, Control_c, 0, 64, 127
2, 475656, Note_on_c, 0, 76, 0
2, 475828, Note_on_c, 0, 76, 71
2, 475852, Note_on_c, 0, 66, 36
2, 475862, Note_on_c, 0, 72, 25
2, 475874, Note_on_c, 0, 69, 12
2, 476198, Control_c, 0, 64, 0
2, 476354, Control_c, 0, 64, 127
2, 476380, Note_on_c, 0, 72, 0
2, 476440, Note_on_c, 0, 76, 0
2, 476516, Note_on_c, 0, 74, 40
2, 476540, Note_on_c, 0, 69, 0
2, 476546, Note_on_c, 0, 66, 0
2, 476562, Note_on_c, 0, 76, 44
2, 476580, Note_on_c, 0, 74, 0
2, 476583, Control_c, 0, 64, 0
2, 476614, Note_on_c, 0, 76, 0
2, 476626, Note_on_c, 0, 74, 27
2, 476628, Note_on_c, 0, 71, 31
2, 476650, Note_on_c, 0, 67, 24
2, 476736, Control_c, 0, 64, 127
2, 476834, Note_on_c, 0, 72, 49
2, 476840, Note_on_c, 0, 71, 0
2, 476856, Note_on_c, 0, 74, 0
2, 476874, Note_on_c, 0, 67, 0
2, 477012, Note_on_c, 0, 71, 55
2, 477014, Control_c, 0, 64, 0
2, 477026, Note_on_c, 0, 67, 26
2, 477034, Note_on_c, 0, 64, 27
2, 477037, Note_on_c, 0, 72, 0
2, 477198, Control_c, 0, 64, 127
2, 477366, Note_on_c, 0, 72, 51
2, 477368, Note_on_c, 0, 71, 0
2, 477378, Note_on_c, 0, 64, 0
2, 477398, Control_c, 0, 64, 0
2, 477408, Note_on_c, 0, 57, 31
2, 477614, Control_c, 0, 64, 127
2, 477706, Control_c, 0, 64, 0
2, 477712, Note_on_c, 0, 67, 0
2, 477730, Note_on_c, 0, 72, 0
2, 477732, Note_on_c, 0, 57, 0
2, 477750, Note_on_c, 0, 66, 32
2, 477756, Note_on_c, 0, 69, 32
2, 477794, Note_on_c, 0, 62, 20
2, 477814, Note_on_c, 0, 55, 0
2, 477920, Control_c, 0, 64, 127
2, 477936, Note_on_c, 0, 62, 0
2, 477978, Note_on_c, 0, 71, 50
2, 478008, Note_on_c, 0, 69, 0
2, 478036, Note_on_c, 0, 71, 0
2, 478052, Note_on_c, 0, 72, 40
2, 478058, Control_c, 0, 64, 0
2, 478108, Note_on_c, 0, 71, 57
2, 478120, Note_on_c, 0, 72, 0
2, 478134, Note_on_c, 0, 66, 0
2, 478139, Note_on_c, 0, 62, 26
2, 478139, Note_on_c, 0, 55, 39
2, 478320, Note_on_c, 0, 69, 46
2, 478334, Note_on_c, 0, 71, 0
2, 478428, Note_on_c, 0, 69, 0
2, 478472, Note_on_c, 0, 55, 0
2, 478506, Note_on_c, 0, 62, 0
2, 478506, Note_on_c, 0, 67, 50
2, 478512, Note_on_c, 0, 59, 23
2, 478688, Control_c, 0, 64, 127
2, 478714, Note_on_c, 0, 67, 0
2, 478820, Note_on_c, 0, 59, 0
2, 478868, Note_on_c, 0, 69, 40
2, 478874, Control_c, 0, 64, 0
2, 478882, Note_on_c, 0, 66, 21
2, 478906, Note_on_c, 0, 62, 31
2, 479180, Note_on_c, 0, 62, 0
2, 479270, Note_on_c, 0, 50, 35
2, 479350, Note_on_c, 0, 50, 0
2, 479350, Control_c, 0, 64, 127
2, 479418, Note_on_c, 0, 66, 0
2, 479608, Note_on_c, 0, 69, 0
2, 479664, Note_on_c, 0, 67, 59
2, 479678, Note_on_c, 0, 43, 57
2, 479681, Note_on_c, 0, 59, 36
2, 479684, Note_on_c, 0, 55, 54
2, 479702, Control_c, 0, 64, 0
2, 479918, Control_c, 0, 64, 127
2, 479928, Note_on_c, 0, 59, 0
2, 479970, Note_on_c, 0, 67, 0
2, 480022, Note_on_c, 0, 55, 0
2, 480054, Note_on_c, 0, 43, 0
2, 480066, Note_on_c, 0, 67, 35
2, 480070, Note_on_c, 0, 69, 57
2, 480074, Note_on_c, 0, 60, 58
2, 480164, Note_on_c, 0, 67, 0
2, 480200, Note_on_c, 0, 60, 0
2, 480226, Note_on_c, 0, 69, 0
2, 480234, Note_on_c, 0, 54, 74
2, 480246, Note_on_c, 0, 42, 54
2, 480350, Note_on_c, 0, 54, 0
2, 480402, Note_on_c, 0, 42, 0
2, 480452, Note_on_c, 0, 69, 85
2, 480462, Note_on_c, 0, 60, 78
2, 480464, Note_on_c, 0, 67, 77
2, 480468, Note_on_c, 0, 40, 96
2, 480470, Note_on_c, 0, 52, 87
2, 480502, Control_c, 0, 64, 0
2, 480714, Note_on_c, 0, 60, 0
2, 480732, Note_on_c, 0, 67, 0
2, 480758, Note_on_c, 0, 52, 0
2, 480762, Control_c, 0, 64, 127
2, 480812, Note_on_c, 0, 40, 0
2, 480838, Note_on_c, 0, 72, 98
2, 480850, Note_on_c, 0, 64, 81
2, 480854, Note_on_c, 0, 67, 72
2, 480888, Note_on_c, 0, 69, 0
2, 480910, Note_on_c, 0, 64, 0
2, 480912, Note_on_c, 0, 67, 0
2, 481006, Note_on_c, 0, 50, 100
2, 481012, Note_on_c, 0, 38, 93
2, 481022, Note_on_c, 0, 72, 0
2, 481124, Note_on_c, 0, 50, 0
2, 481130, Note_on_c, 0, 38, 0
2, 481218, Note_on_c, 0, 72, 106
2, 481224, Control_c, 0, 64, 0
2, 481227, Note_on_c, 0, 64, 98
2, 481231, Note_on_c, 0, 48, 92
2, 481234, Note_on_c, 0, 67, 85
2, 481240, Note_on_c, 0, 36, 93
2, 481416, Note_on_c, 0, 67, 0
2, 481428, Note_on_c, 0, 64, 0
2, 481456, Note_on_c, 0, 72, 0
2, 481470, Control_c, 0, 64, 127
2, 481554, Note_on_c, 0, 48, 0
2, 481566, Note_on_c, 0, 36, 0
2, 481620, Note_on_c, 0, 76, 104
2, 481634, Note_on_c, 0, 72, 72
2, 481640, Note_on_c, 0, 67, 79
2, 481688, Note_on_c, 0, 72, 0
2, 481691, Note_on_c, 0, 67, 0
2, 481760, Note_on_c, 0, 76, 0
2, 481778, Note_on_c, 0, 47, 90
2, 481788, Note_on_c, 0, 35, 83
2, 481984, Note_on_c, 0, 35, 0
2, 481986, Note_on_c, 0, 47, 0
2, 482114, Note_on_c, 0, 76, 108
2, 482114, Note_on_c, 0, 66, 82
2, 482117, Note_on_c, 0, 45, 88
2, 482122, Note_on_c, 0, 72, 83
2, 482126, Note_on_c, 0, 33, 89
2, 482192, Control_c, 0, 64, 0
2, 482580, Note_on_c, 0, 76, 0
2, 482592, Control_c, 0, 64, 127
2, 482614, Note_on_c, 0, 72, 0
2, 482638, Note_on_c, 0, 33, 0
2, 482680, Note_on_c, 0, 66, 0
2, 482682, Note_on_c, 0, 45, 0
2, 482806, Control_c, 0, 64, 0
2, 482878, Note_on_c, 0, 62, 86
2, 482878, Note_on_c, 0, 74, 97
2, 482886, Note_on_c, 0, 67, 67
2, 482890, Note_on_c, 0, 47, 64
2, 482892, Note_on_c, 0, 35, 87
2, 482936, Note_on_c, 0, 35, 0
2, 482968, Note_on_c, 0, 47, 0
2, 482980, Note_on_c, 0, 62, 0
2, 482996, Note_on_c, 0, 67, 0
2, 483006, Control_c, 0, 64, 127
2, 483064, Note_on_c, 0, 72, 83
2, 483100, Note_on_c, 0, 74, 0
2, 483190, Control_c, 0, 64, 0
2, 483226, Note_on_c, 0, 72, 0
2, 483266, Note_on_c, 0, 64, 89
2, 483266, Note_on_c, 0, 71, 106
2, 483269, Note_on_c, 0, 52, 95
2, 483274, Note_on_c, 0, 67, 75
2, 483278, Note_on_c, 0, 40, 92
2, 483316, Note_on_c, 0, 52, 0
2, 483340, Note_on_c, 0, 40, 0
2, 483390, Control_c, 0, 64, 127
2, 483394, Note_on_c, 0, 64, 0
2, 483406, Note_on_c, 0, 67, 0
2, 483422, Note_on_c, 0, 71, 0
2, 483574, Control_c, 0, 64, 0
2, 483638, Note_on_c, 0, 72, 97
2, 483642, Note_on_c, 0, 60, 87
2, 483650, Note_on_c, 0, 67, 79
2, 483656, Note_on_c, 0, 33, 89
2, 483658, Note_on_c, 0, 45, 77
2, 483704, Note_on_c, 0, 33, 0
2, 483746, Note_on_c, 0, 45, 0
2, 483760, Control_c, 0, 64, 127
2, 483800, Note_on_c, 0, 67, 0
2, 483826, Note_on_c, 0, 60, 0
2, 483974, Control_c, 0, 64, 0
2, 483994, Note_on_c, 0, 72, 0
2, 484018, Note_on_c, 0, 69, 93
2, 484021, Note_on_c, 0, 62, 86
2, 484026, Note_on_c, 0, 50, 92
2, 484028, Note_on_c, 0, 66, 59
2, 484030, Note_on_c, 0, 38, 74
2, 484140, Note_on_c, 0, 50, 0
2, 484158, Control_c, 0, 64, 127
2, 484170, Note_on_c, 0, 38, 0
2, 484210, Note_on_c, 0, 62, 0
2, 484230, Note_on_c, 0, 66, 0
2, 484358, Control_c, 0, 64, 0
2, 484366, Note_on_c, 0, 69, 0
2, 484394, Note_on_c, 0, 71, 105
2, 484400, Note_on_c, 0, 62, 81
2, 484408, Note_on_c, 0, 67, 66
2, 484410, Note_on_c, 0, 31, 78
2, 484412, Note_on_c, 0, 43, 70
2, 484468, Note_on_c, 0, 31, 0
2, 484476, Note_on_c, 0, 67, 0
2, 484508, Note_on_c, 0, 62, 0
2, 484511, Note_on_c, 0, 43, 0
2, 484558, Control_c, 0, 64, 127
2, 484568, Note_on_c, 0, 71, 0
2, 484588, Note_on_c, 0, 72, 92
2, 484726, Control_c, 0, 64, 0
2, 484760, Note_on_c, 0, 69, 89
2, 484764, Note_on_c, 0, 48, 66
2, 484766, Note_on_c, 0, 36, 77
2, 484772, Note_on_c, 0, 64, 74
2, 484782, Note_on_c, 0, 72, 0
2, 484822, Note_on_c, 0, 64, 0
2, 484842, Note_on_c, 0, 36, 0
2, 484880, Note_on_c, 0, 48, 0
2, 484906, Note_on_c, 0, 69, 0
2, 484909, Control_c, 0, 64, 127
2, 484912, Note_on_c, 0, 67, 89
2, 484956, Note_on_c, 0, 67, 0
2, 485064, Control_c, 0, 64, 0
2, 485104, Note_on_c, 0, 50, 73
2, 485106, Note_on_c, 0, 38, 74
2, 485116, Note_on_c, 0, 66, 78
2, 485118, Note_on_c, 0, 57, 82
2, 485156, Note_on_c, 0, 38, 0
2, 485190, Note_on_c, 0, 50, 0
2, 485193, Note_on_c, 0, 66, 0
2, 485218, Note_on_c, 0, 67, 59
2, 485218, Control_c, 0, 64, 127
2, 485264, Note_on_c, 0, 66, 72
2, 485290, Note_on_c, 0, 67, 0
2, 485482, Note_on_c, 0, 62, 58
2, 485496, Note_on_c, 0, 50, 71
2, 485510, Control_c, 0, 64, 0
2, 485602, Note_on_c, 0, 62, 0
2, 485648, Control_c, 0, 64, 127
2, 485666, Note_on_c, 0, 50, 0
2, 485688, Note_on_c, 0, 67, 85
2, 485716, Note_on_c, 0, 66, 0
2, 485740, Note_on_c, 0, 57, 0
2, 485786, Note_on_c, 0, 67, 0
2, 485848, Control_c, 0, 64, 0
2, 485890, Note_on_c, 0, 67, 70
2, 485898, Note_on_c, 0, 55, 75
2, 485898, Note_on_c, 0, 59, 66
2, 485898, Note_on_c, 0, 43, 73
2, 485901, Note_on_c, 0, 62, 67
2, 486028, Note_on_c, 0, 55, 0
2, 486086, Note_on_c, 0, 43, 0
2, 486094, Control_c, 0, 64, 127
2, 486156, Control_c, 0, 64, 0
2, 486296, Note_on_c, 0, 38, 73
2, 486298, Note_on_c, 0, 50, 70
2, 486370, Control_c, 0, 64, 127
2, 486386, Note_on_c, 0, 50, 0
2, 486420, Note_on_c, 0, 38, 0
2, 486524, Control_c, 0, 64, 0
2, 486742, Note_on_c, 0, 43, 55
2, 486750, Note_on_c, 0, 31, 57
2, 486816, Control_c, 0, 64, 127
2, 486830, Note_on_c, 0, 31, 0
2, 486850, Note_on_c, 0, 43, 0
2, 487002, Note_on_c, 0, 62, 0
2, 487010, Note_on_c, 0, 59, 0
2, 487028, Note_on_c, 0, 67, 0
2, 487262, Control_c, 0, 64, 0
2, 487734, Note_on_c, 0, 72, 51
2, 487744, Note_on_c, 0, 67, 29
2, 487758, Note_on_c, 0, 64, 34
2, 487802, Note_on_c, 0, 55, 23
2, 488196, Note_on_c, 0, 72, 0
2, 488216, Control_c, 0, 64, 127
2, 488312, Note_on_c, 0, 64, 0
2, 488394, Note_on_c, 0, 71, 58
2, 488448, Note_on_c, 0, 71, 0
2, 488472, Note_on_c, 0, 72, 50
2, 488506, Control_c, 0, 64, 0
2, 488514, Note_on_c, 0, 71, 82
2, 488516, Note_on_c, 0, 62, 31
2, 488528, Note_on_c, 0, 72, 0
2, 488706, Note_on_c, 0, 60, 40
2, 488718, Note_on_c, 0, 62, 0
2, 488722, Note_on_c, 0, 69, 51
2, 488732, Note_on_c, 0, 71, 0
2, 488856, Note_on_c, 0, 60, 0
2, 488930, Note_on_c, 0, 59, 33
2, 488950, Note_on_c, 0, 67, 35
2, 488974, Note_on_c, 0, 67, 0
2, 488978, Note_on_c, 0, 69, 0
2, 489136, Control_c, 0, 64, 127
2, 489176, Note_on_c, 0, 67, 0
2, 489184, Note_on_c, 0, 59, 0
2, 489306, Control_c, 0, 64, 0
2, 489316, Note_on_c, 0, 72, 56
2, 489348, Note_on_c, 0, 64, 37
2, 489402, Note_on_c, 0, 72, 0
2, 489498, Note_on_c, 0, 64, 0
2, 489520, Note_on_c, 0, 74, 41
2, 489530, Note_on_c, 0, 66, 24
2, 489670, Note_on_c, 0, 66, 0
2, 489698, Note_on_c, 0, 74, 0
2, 489720, Note_on_c, 0, 76, 33
2, 489738, Note_on_c, 0, 67, 35
2, 489920, Control_c, 0, 64, 127
2, 489964, Note_on_c, 0, 67, 0
2, 490150, Control_c, 0, 64, 0
2, 490160, Note_on_c, 0, 76, 0
2, 490160, Note_on_c, 0, 71, 40
2, 490176, Note_on_c, 0, 67, 9
2, 490180, Note_on_c, 0, 62, 27
2, 490564, Note_on_c, 0, 67, 0
2, 490582, Note_on_c, 0, 55, 0
2, 490596, Control_c, 0, 64, 127
2, 490608, Note_on_c, 0, 62, 0
2, 490640, Note_on_c, 0, 71, 0
2, 490996, Note_on_c, 0, 76, 63
2, 491006, Note_on_c, 0, 71, 48
2, 491016, Note_on_c, 0, 67, 26
2, 491038, Note_on_c, 0, 55, 29
2, 491256, Control_c, 0, 64, 0
2, 491410, Control_c, 0, 64, 127
2, 491412, Note_on_c, 0, 67, 0
2, 491498, Note_on_c, 0, 76, 0
2, 491618, Note_on_c, 0, 74, 47
2, 491640, Note_on_c, 0, 71, 0
2, 491670, Note_on_c, 0, 74, 0
2, 491676, Note_on_c, 0, 76, 46
2, 491718, Control_c, 0, 64, 0
2, 491728, Note_on_c, 0, 76, 0
2, 491728, Note_on_c, 0, 66, 29
2, 491732, Note_on_c, 0, 69, 34
2, 491752, Note_on_c, 0, 74, 72
2, 491924, Note_on_c, 0, 71, 72
2, 491926, Note_on_c, 0, 74, 0
2, 491930, Note_on_c, 0, 66, 0
2, 491956, Note_on_c, 0, 62, 47
2, 492030, Note_on_c, 0, 62, 0
2, 492140, Note_on_c, 0, 74, 74
2, 492152, Note_on_c, 0, 71, 0
2, 492155, Note_on_c, 0, 66, 39
2, 492286, Control_c, 0, 64, 127
2, 492298, Note_on_c, 0, 74, 0
2, 492326, Note_on_c, 0, 66, 0
2, 492426, Note_on_c, 0, 72, 40
2, 492454, Note_on_c, 0, 74, 79
2, 492474, Note_on_c, 0, 69, 0
2, 492490, Note_on_c, 0, 67, 39
2, 492502, Control_c, 0, 64, 0
2, 492510, Note_on_c, 0, 74, 0
2, 492528, Note_on_c, 0, 64, 41
2, 492708, Note_on_c, 0, 64, 0
2, 492726, Note_on_c, 0, 72, 0
2, 492726, Note_on_c, 0, 69, 54
2, 492746, Note_on_c, 0, 60, 39
2, 492904, Note_on_c, 0, 60, 0
2, 492922, Note_on_c, 0, 72, 52
2, 492940, Note_on_c, 0, 69, 0
2, 492960, Note_on_c, 0, 64, 47
2, 493160, Note_on_c, 0, 67, 0
2, 493264, Note_on_c, 0, 64, 0
2, 493314, Note_on_c, 0, 71, 63
2, 493336, Note_on_c, 0, 72, 0
2, 493336, Note_on_c, 0, 67, 43
2, 493338, Note_on_c, 0, 59, 19
2, 493540, Note_on_c, 0, 60, 46
2, 493546, Note_on_c, 0, 59, 0
2, 493696, Note_on_c, 0, 60, 0
2, 493714, Note_on_c, 0, 71, 0
2, 493722, Note_on_c, 0, 67, 0
2, 493756, Note_on_c, 0, 69, 25
2, 493768, Note_on_c, 0, 62, 32
2, 493786, Note_on_c, 0, 66, 8
2, 493872, Note_on_c, 0, 62, 0
2, 493875, Note_on_c, 0, 55, 0
2, 493906, Note_on_c, 0, 69, 0
2, 493916, Control_c, 0, 64, 127
2, 494002, Note_on_c, 0, 66, 0
2, 494234, Note_on_c, 0, 72, 103
2, 494238, Note_on_c, 0, 67, 97
2, 494238, Note_on_c, 0, 60, 95
2, 494240, Note_on_c, 0, 52, 101
2, 494243, Note_on_c, 0, 43, 81
2, 494252, Note_on_c, 0, 40, 95
2, 494576, Control_c, 0, 64, 0
2, 494698, Control_c, 0, 64, 127
2, 494764, Note_on_c, 0, 43, 0
2, 494780, Note_on_c, 0, 52, 0
2, 494804, Note_on_c, 0, 40, 0
2, 494820, Note_on_c, 0, 67, 0
2, 494823, Note_on_c, 0, 72, 0
2, 494862, Note_on_c, 0, 60, 0
2, 494948, Note_on_c, 0, 71, 81
2, 494996, Note_on_c, 0, 71, 0
2, 495002, Note_on_c, 0, 72, 63
2, 495066, Note_on_c, 0, 71, 101
2, 495076, Note_on_c, 0, 50, 105
2, 495084, Note_on_c, 0, 43, 90
2, 495087, Note_on_c, 0, 38, 87
2, 495094, Note_on_c, 0, 60, 65
2, 495106, Note_on_c, 0, 59, 72
2, 495122, Note_on_c, 0, 50, 0
2, 495124, Note_on_c, 0, 43, 0
2, 495128, Note_on_c, 0, 72, 0
2, 495138, Note_on_c, 0, 38, 0
2, 495152, Note_on_c, 0, 59, 0
2, 495152, Note_on_c, 0, 60, 0
2, 495164, Note_on_c, 0, 71, 0
2, 495252, Control_c, 0, 64, 0
2, 495270, Note_on_c, 0, 69, 92
2, 495275, Note_on_c, 0, 57, 94
2, 495275, Note_on_c, 0, 48, 94
2, 495279, Note_on_c, 0, 36, 100
2, 495322, Note_on_c, 0, 48, 0
2, 495324, Note_on_c, 0, 36, 0
2, 495332, Note_on_c, 0, 57, 0
2, 495346, Note_on_c, 0, 69, 0
2, 495464, Note_on_c, 0, 47, 105
2, 495464, Note_on_c, 0, 67, 111
2, 495464, Note_on_c, 0, 55, 110
2, 495467, Note_on_c, 0, 35, 112
2, 495502, Note_on_c, 0, 35, 0
2, 495510, Note_on_c, 0, 55, 0
2, 495516, Note_on_c, 0, 47, 0
2, 495574, Control_c, 0, 64, 127
2, 495586, Note_on_c, 0, 67, 0
2, 495836, Note_on_c, 0, 72, 106
2, 495838, Note_on_c, 0, 52, 106
2, 495838, Note_on_c, 0, 60, 103
2, 495841, Note_on_c, 0, 40, 98
2, 495846, Note_on_c, 0, 67, 87
2, 495848, Note_on_c, 0, 43, 83
2, 495866, Control_c, 0, 64, 0
2, 495882, Note_on_c, 0, 40, 0
2, 495882, Note_on_c, 0, 52, 0
2, 495904, Note_on_c, 0, 43, 0
2, 495940, Note_on_c, 0, 60, 0
2, 495946, Note_on_c, 0, 67, 0
2, 495962, Note_on_c, 0, 72, 0
2, 496020, Note_on_c, 0, 54, 105
2, 496022, Note_on_c, 0, 42, 93
2, 496030, Note_on_c, 0, 74, 117
2, 496040, Note_on_c, 0, 62, 87
2, 496076, Note_on_c, 0, 42, 0
2, 496084, Note_on_c, 0, 54, 0
2, 496092, Note_on_c, 0, 62, 0
2, 496116, Note_on_c, 0, 74, 0
2, 496218, Note_on_c, 0, 76, 118
2, 496232, Note_on_c, 0, 64, 98
2, 496232, Note_on_c, 0, 55, 109
2, 496238, Note_on_c, 0, 43, 102
2, 496292, Note_on_c, 0, 55, 0
2, 496296, Note_on_c, 0, 43, 0
2, 496296, Note_on_c, 0, 76, 0
2, 496326, Control_c, 0, 64, 127
2, 496366, Note_on_c, 0, 64, 0
2, 496644, Note_on_c, 0, 71, 118
2, 496646, Note_on_c, 0, 59, 105
2, 496650, Note_on_c, 0, 50, 100
2, 496654, Note_on_c, 0, 67, 90
2, 496658, Note_on_c, 0, 38, 82
2, 496666, Note_on_c, 0, 43, 70
2, 496774, Control_c, 0, 64, 0
2, 496978, Note_on_c, 0, 38, 0
2, 496981, Note_on_c, 0, 71, 0
2, 496992, Note_on_c, 0, 59, 0
2, 497004, Note_on_c, 0, 50, 0
2, 497018, Control_c, 0, 64, 127
2, 497044, Note_on_c, 0, 43, 0
2, 497050, Note_on_c, 0, 67, 0
2, 497448, Note_on_c, 0, 76, 108
2, 497448, Note_on_c, 0, 64, 108
2, 497458, Note_on_c, 0, 55, 101
2, 497461, Note_on_c, 0, 71, 97
2, 497466, Note_on_c, 0, 43, 90
2, 497588, Control_c, 0, 64, 0
2, 497802, Control_c, 0, 64, 127
2, 497806, Note_on_c, 0, 71, 0
2, 497846, Note_on_c, 0, 55, 0
2, 497846, Note_on_c, 0, 43, 0
2, 497848, Note_on_c, 0, 76, 0
2, 497918, Note_on_c, 0, 64, 0
2, 498030, Note_on_c, 0, 74, 47
2, 498060, Note_on_c, 0, 76, 52
2, 498088, Note_on_c, 0, 74, 0
2, 498110, Control_c, 0, 64, 0
2, 498124, Note_on_c, 0, 74, 67
2, 498127, Note_on_c, 0, 54, 100
2, 498134, Note_on_c, 0, 62, 78
2, 498140, Note_on_c, 0, 69, 47
2, 498140, Note_on_c, 0, 43, 74
2, 498143, Note_on_c, 0, 42, 77
2, 498154, Note_on_c, 0, 76, 0
2, 498166, Note_on_c, 0, 74, 0
2, 498184, Note_on_c, 0, 62, 0
2, 498184, Note_on_c, 0, 43, 0
2, 498187, Note_on_c, 0, 42, 0
2, 498194, Note_on_c, 0, 54, 0
2, 498202, Control_c, 0, 64, 127
2, 498206, Note_on_c, 0, 69, 0
2, 498326, Note_on_c, 0, 71, 104
2, 498330, Note_on_c, 0, 59, 93
2, 498334, Note_on_c, 0, 50, 86
2, 498336, Note_on_c, 0, 38, 82
2, 498368, Note_on_c, 0, 59, 0
2, 498376, Note_on_c, 0, 38, 0
2, 498378, Note_on_c, 0, 50, 0
2, 498390, Note_on_c, 0, 71, 0
2, 498464, Control_c, 0, 64, 0
2, 498524, Note_on_c, 0, 74, 116
2, 498530, Note_on_c, 0, 54, 97
2, 498530, Note_on_c, 0, 62, 94
2, 498546, Note_on_c, 0, 42, 71
2, 498660, Note_on_c, 0, 54, 0
2, 498668, Note_on_c, 0, 42, 0
2, 498678, Control_c, 0, 64, 127
2, 498692, Note_on_c, 0, 74, 0
2, 498694, Note_on_c, 0, 62, 0
2, 498798, Note_on_c, 0, 72, 59
2, 498840, Control_c, 0, 64, 0
2, 498846, Note_on_c, 0, 72, 0
2, 498849, Note_on_c, 0, 74, 79
2, 498884, Note_on_c, 0, 72, 98
2, 498892, Note_on_c, 0, 52, 101
2, 498898, Note_on_c, 0, 67, 81
2, 498900, Note_on_c, 0, 60, 87
2, 498906, Note_on_c, 0, 40, 93
2, 498906, Note_on_c, 0, 43, 66
2, 498914, Note_on_c, 0, 62, 58
2, 498932, Note_on_c, 0, 52, 0
2, 498940, Note_on_c, 0, 74, 0
2, 498942, Note_on_c, 0, 67, 0
2, 498954, Note_on_c, 0, 43, 0
2, 498962, Note_on_c, 0, 40, 0
2, 498964, Note_on_c, 0, 60, 0
2, 498966, Note_on_c, 0, 62, 0
2, 498970, Control_c, 0, 64, 127
2, 498992, Note_on_c, 0, 72, 0
2, 499092, Note_on_c, 0, 48, 89
2, 499098, Note_on_c, 0, 36, 96
2, 499101, Note_on_c, 0, 69, 78
2, 499136, Note_on_c, 0, 36, 0
2, 499136, Note_on_c, 0, 48, 0
2, 499180, Note_on_c, 0, 69, 0
2, 499232, Control_c, 0, 64, 0
2, 499294, Note_on_c, 0, 72, 112
2, 499302, Note_on_c, 0, 40, 110
2, 499302, Note_on_c, 0, 52, 105
2, 499302, Note_on_c, 0, 60, 92
2, 499408, Note_on_c, 0, 52, 0
2, 499432, Control_c, 0, 64, 127
2, 499446, Note_on_c, 0, 40, 0
2, 499468, Note_on_c, 0, 72, 0
2, 499530, Note_on_c, 0, 60, 0
2, 499662, Control_c, 0, 64, 0
2, 499694, Note_on_c, 0, 71, 105
2, 499694, Note_on_c, 0, 47, 74
2, 499697, Note_on_c, 0, 35, 92
2, 499697, Note_on_c, 0, 59, 79
2, 499704, Note_on_c, 0, 67, 71
2, 499708, Note_on_c, 0, 62, 65
2, 499734, Note_on_c, 0, 35, 0
2, 499744, Note_on_c, 0, 47, 0
2, 499862, Control_c, 0, 64, 127
2, 499870, Note_on_c, 0, 48, 74
2, 499874, Note_on_c, 0, 36, 86
2, 499896, Note_on_c, 0, 62, 0
2, 499918, Note_on_c, 0, 71, 0
2, 499918, Note_on_c, 0, 36, 0
2, 499928, Note_on_c, 0, 67, 0
2, 499928, Note_on_c, 0, 48, 0
2, 499960, Note_on_c, 0, 59, 0
2, 500030, Control_c, 0, 64, 0
2, 500088, Note_on_c, 0, 50, 78
2, 500091, Note_on_c, 0, 69, 67
2, 500100, Note_on_c, 0, 38, 70
2, 500100, Note_on_c, 0, 57, 49
2, 500106, Note_on_c, 0, 66, 43
2, 500122, Note_on_c, 0, 62, 42
2, 500164, Note_on_c, 0, 38, 0
2, 500182, Note_on_c, 0, 50, 0
2, 500204, Note_on_c, 0, 57, 0
2, 500230, Control_c, 0, 64, 127
2, 500234, Note_on_c, 0, 62, 0
2, 500334, Note_on_c, 0, 66, 0
2, 500354, Note_on_c, 0, 69, 0
2, 500398, Control_c, 0, 64, 0
2, 500614, Note_on_c, 0, 67, 40
2, 500648, Note_on_c, 0, 59, 31
2, 500672, Note_on_c, 0, 55, 40
2, 500982, Note_on_c, 0, 59, 0
2, 500986, Note_on_c, 0, 69, 40
2, 501006, Note_on_c, 0, 60, 32
2, 501134, Note_on_c, 0, 60, 0
2, 501160, Note_on_c, 0, 69, 0
2, 501214, Control_c, 0, 64, 127
2, 501388, Note_on_c, 0, 69, 43
2, 501418, Note_on_c, 0, 60, 26
2, 501736, Control_c, 0, 64, 0
2, 501760, Note_on_c, 0, 60, 0
2, 501778, Note_on_c, 0, 72, 40
2, 501786, Note_on_c, 0, 69, 0
2, 501796, Note_on_c, 0, 64, 28
2, 501940, Note_on_c, 0, 72, 0
2, 501988, Note_on_c, 0, 64, 0
2, 501996, Control_c, 0, 64, 127
2, 502074, Control_c, 0, 64, 0
2, 502152, Note_on_c, 0, 72, 50
2, 502178, Note_on_c, 0, 64, 31
2, 502396, Control_c, 0, 64, 127
2, 502426, Control_c, 0, 64, 0
2, 502510, Note_on_c, 0, 76, 44
2, 502514, Note_on_c, 0, 72, 0
2, 502532, Note_on_c, 0, 66, 23
2, 502548, Note_on_c, 0, 64, 0
2, 502670, Note_on_c, 0, 66, 0
2, 502678, Note_on_c, 0, 67, 0
2, 502688, Control_c, 0, 64, 127
2, 502708, Note_on_c, 0, 76, 0
2, 502922, Note_on_c, 0, 76, 49
2, 502950, Note_on_c, 0, 66, 25
2, 502958, Note_on_c, 0, 72, 14
2, 502958, Note_on_c, 0, 69, 20
2, 503164, Control_c, 0, 64, 0
2, 503350, Control_c, 0, 64, 127
2, 503416, Note_on_c, 0, 72, 0
2, 503486, Note_on_c, 0, 76, 0
2, 503560, Note_on_c, 0, 74, 50
2, 503582, Note_on_c, 0, 66, 0
2, 503604, Note_on_c, 0, 69, 0
2, 503610, Note_on_c, 0, 74, 0
2, 503624, Note_on_c, 0, 76, 49
2, 503626, Control_c, 0, 64, 0
2, 503676, Note_on_c, 0, 76, 0
2, 503694, Note_on_c, 0, 74, 60
2, 503698, Note_on_c, 0, 71, 28
2, 503726, Note_on_c, 0, 67, 21
2, 503856, Control_c, 0, 64, 127
2, 503860, Note_on_c, 0, 71, 0
2, 503884, Note_on_c, 0, 72, 49
2, 503894, Note_on_c, 0, 74, 0
2, 503916, Note_on_c, 0, 67, 0
2, 504040, Control_c, 0, 64, 0
2, 504050, Note_on_c, 0, 72, 0
2, 504076, Note_on_c, 0, 71, 56
2, 504076, Note_on_c, 0, 67, 18
2, 504076, Note_on_c, 0, 64, 29
2, 504272, Control_c, 0, 64, 127
2, 504364, Control_c, 0, 64, 0
2, 504367, Note_on_c, 0, 71, 0
2, 504404, Note_on_c, 0, 64, 0
2, 504406, Note_on_c, 0, 72, 41
2, 504448, Note_on_c, 0, 57, 17
2, 504640, Control_c, 0, 64, 127
2, 504732, Note_on_c, 0, 72, 0
2, 504738, Note_on_c, 0, 67, 0
2, 504762, Control_c, 0, 64, 0
2, 504767, Note_on_c, 0, 57, 0
2, 504822, Note_on_c, 0, 69, 24
2, 504848, Note_on_c, 0, 62, 20
2, 504868, Note_on_c, 0, 66, 3
2, 504890, Note_on_c, 0, 55, 0
2, 504948, Control_c, 0, 64, 127
2, 505022, Note_on_c, 0, 62, 0
2, 505040, Note_on_c, 0, 71, 27
2, 505100, Note_on_c, 0, 69, 0
2, 505100, Note_on_c, 0, 72, 39
2, 505132, Control_c, 0, 64, 0
2, 505144, Note_on_c, 0, 62, 33
2, 505170, Note_on_c, 0, 72, 0
2, 505186, Note_on_c, 0, 66, 0
2, 505190, Note_on_c, 0, 55, 34
2, 505364, Note_on_c, 0, 71, 0
2, 505368, Note_on_c, 0, 69, 31
2, 505474, Note_on_c, 0, 69, 0
2, 505496, Note_on_c, 0, 62, 0
2, 505566, Note_on_c, 0, 55, 0
2, 505569, Note_on_c, 0, 67, 39
2, 505573, Note_on_c, 0, 59, 25
2, 505716, Control_c, 0, 64, 127
2, 505780, Note_on_c, 0, 67, 0
2, 505874, Note_on_c, 0, 59, 0
2, 505930, Note_on_c, 0, 69, 42
2, 505932, Control_c, 0, 64, 0
2, 505942, Note_on_c, 0, 66, 26
2, 505960, Note_on_c, 0, 62, 31
2, 506114, Control_c, 0, 64, 127
2, 506206, Note_on_c, 0, 62, 0
2, 506222, Control_c, 0, 64, 0
2, 506332, Note_on_c, 0, 50, 43
2, 506346, Control_c, 0, 64, 127
2, 506392, Note_on_c, 0, 50, 0
2, 506398, Note_on_c, 0, 66, 0
2, 506570, Note_on_c, 0, 69, 0
2, 506686, Note_on_c, 0, 67, 88
2, 506692, Note_on_c, 0, 59, 75
2, 506694, Note_on_c, 0, 43, 58
2, 506694, Note_on_c, 0, 55, 57
2, 506806, Control_c, 0, 64, 0
2, 506898, Control_c, 0, 64, 127
2, 506932, Note_on_c, 0, 55, 0
2, 506940, Note_on_c, 0, 59, 0
2, 506998, Note_on_c, 0, 43, 0
2, 507050, Note_on_c, 0, 67, 0
2, 507050, Note_on_c, 0, 69, 86
2, 507053, Note_on_c, 0, 57, 81
2, 507064, Note_on_c, 0, 62, 72
2, 507064, Note_on_c, 0, 54, 86
2, 507068, Note_on_c, 0, 42, 78
2, 507068, Control_c, 0, 64, 0
2, 507196, Note_on_c, 0, 54, 0
2, 507222, Control_c, 0, 64, 127
2, 507246, Note_on_c, 0, 42, 0
2, 507260, Note_on_c, 0, 69, 0
2, 507276, Note_on_c, 0, 62, 0
2, 507276, Note_on_c, 0, 57, 0
2, 507390, Control_c, 0, 64, 0
2, 507430, Note_on_c, 0, 69, 102
2, 507432, Note_on_c, 0, 57, 97
2, 507435, Note_on_c, 0, 62, 95
2, 507435, Note_on_c, 0, 54, 97
2, 507442, Note_on_c, 0, 42, 79
2, 507524, Note_on_c, 0, 57, 0
2, 507528, Control_c, 0, 64, 127
2, 507540, Note_on_c, 0, 62, 0
2, 507576, Note_on_c, 0, 69, 0
2, 507598, Note_on_c, 0, 54, 0
2, 507676, Note_on_c, 0, 42, 0
2, 507790, Note_on_c, 0, 60, 111
2, 507793, Note_on_c, 0, 72, 108
2, 507800, Note_on_c, 0, 67, 101
2, 507800, Note_on_c, 0, 52, 98
2, 507804, Note_on_c, 0, 40, 102
2, 507820, Control_c, 0, 64, 0
2, 507974, Control_c, 0, 64, 127
2, 507978, Note_on_c, 0, 52, 0
2, 507990, Note_on_c, 0, 72, 0
2, 508006, Note_on_c, 0, 60, 0
2, 508006, Note_on_c, 0, 67, 0
2, 508014, Note_on_c, 0, 40, 0
2, 508112, Control_c, 0, 64, 0
2, 508158, Note_on_c, 0, 72, 112
2, 508162, Note_on_c, 0, 60, 123
2, 508162, Note_on_c, 0, 67, 111
2, 508174, Note_on_c, 0, 52, 116
2, 508176, Note_on_c, 0, 40, 115
2, 508246, Note_on_c, 0, 40, 0
2, 508252, Note_on_c, 0, 60, 0
2, 508262, Note_on_c, 0, 67, 0
2, 508266, Control_c, 0, 64, 127
2, 508276, Note_on_c, 0, 52, 0
2, 508324, Note_on_c, 0, 72, 0
2, 508590, Note_on_c, 0, 76, 117
2, 508592, Note_on_c, 0, 67, 109
2, 508594, Note_on_c, 0, 64, 112
2, 508598, Note_on_c, 0, 48, 93
2, 508600, Note_on_c, 0, 36, 102
2, 508696, Control_c, 0, 64, 0
2, 508834, Note_on_c, 0, 48, 0
2, 508836, Control_c, 0, 64, 127
2, 508850, Note_on_c, 0, 36, 0
2, 508890, Note_on_c, 0, 76, 0
2, 508893, Note_on_c, 0, 67, 0
2, 508908, Note_on_c, 0, 64, 0
2, 509190, Note_on_c, 0, 76, 116
2, 509194, Note_on_c, 0, 64, 120
2, 509194, Note_on_c, 0, 66, 97
2, 509196, Note_on_c, 0, 33, 118
2, 509196, Note_on_c, 0, 72, 104
2, 509198, Note_on_c, 0, 45, 108
2, 509864, Control_c, 0, 64, 0
2, 509988, Control_c, 0, 64, 127
2, 510050, Note_on_c, 0, 76, 0
2, 510068, Note_on_c, 0, 64, 0
2, 510096, Note_on_c, 0, 33, 0
2, 510096, Note_on_c, 0, 45, 0
2, 510156, Note_on_c, 0, 72, 0
2, 510158, Note_on_c, 0, 66, 0
2, 510208, Note_on_c, 0, 74, 119
2, 510208, Control_c, 0, 64, 0
2, 510208, Note_on_c, 0, 62, 118
2, 510211, Note_on_c, 0, 67, 97
2, 510218, Note_on_c, 0, 47, 105
2, 510222, Note_on_c, 0, 35, 108
2, 510348, Note_on_c, 0, 62, 0
2, 510350, Note_on_c, 0, 74, 0
2, 510356, Control_c, 0, 64, 127
2, 510376, Note_on_c, 0, 35, 0
2, 510390, Note_on_c, 0, 67, 0
2, 510426, Note_on_c, 0, 47, 0
2, 510446, Note_on_c, 0, 72, 111
2, 510449, Note_on_c, 0, 60, 109
2, 510556, Note_on_c, 0, 60, 0
2, 510560, Note_on_c, 0, 72, 0
2, 510666, Note_on_c, 0, 71, 115
2, 510666, Control_c, 0, 64, 0
2, 510666, Note_on_c, 0, 59, 119
2, 510672, Note_on_c, 0, 67, 96
2, 510676, Note_on_c, 0, 52, 116
2, 510680, Note_on_c, 0, 40, 112
2, 510844, Note_on_c, 0, 52, 0
2, 510847, Control_c, 0, 64, 127
2, 510890, Note_on_c, 0, 40, 0
2, 510896, Note_on_c, 0, 67, 0
2, 510898, Note_on_c, 0, 59, 0
2, 510974, Note_on_c, 0, 71, 0
2, 511104, Note_on_c, 0, 72, 116
2, 511106, Note_on_c, 0, 60, 115
2, 511110, Note_on_c, 0, 67, 106
2, 511112, Note_on_c, 0, 33, 103
2, 511112, Note_on_c, 0, 45, 100
2, 511124, Control_c, 0, 64, 0
2, 511292, Control_c, 0, 64, 127
2, 511314, Note_on_c, 0, 33, 0
2, 511328, Note_on_c, 0, 72, 0
2, 511344, Note_on_c, 0, 67, 0
2, 511374, Note_on_c, 0, 45, 0
2, 511396, Note_on_c, 0, 60, 0
2, 511530, Note_on_c, 0, 69, 97
2, 511532, Note_on_c, 0, 66, 83
2, 511534, Note_on_c, 0, 50, 102
2, 511536, Note_on_c, 0, 57, 110
2, 511540, Note_on_c, 0, 62, 86
2, 511542, Note_on_c, 0, 38, 94
2, 511570, Control_c, 0, 64, 0
2, 511708, Note_on_c, 0, 50, 0
2, 511716, Note_on_c, 0, 62, 0
2, 511724, Control_c, 0, 64, 127
2, 511744, Note_on_c, 0, 38, 0
2, 511782, Note_on_c, 0, 57, 0
2, 511800, Note_on_c, 0, 69, 0
2, 511808, Note_on_c, 0, 66, 0
2, 511970, Control_c, 0, 64, 0
2, 511996, Note_on_c, 0, 71, 121
2, 511996, Note_on_c, 0, 67, 97
2, 511996, Note_on_c, 0, 43, 96
2, 511999, Note_on_c, 0, 59, 115
2, 512002, Note_on_c, 0, 62, 90
2, 512004, Note_on_c, 0, 31, 105
2, 512108, Control_c, 0, 64, 127
2, 512118, Note_on_c, 0, 59, 0
2, 512122, Note_on_c, 0, 62, 0
2, 512134, Note_on_c, 0, 31, 0
2, 512138, Note_on_c, 0, 67, 0
2, 512160, Note_on_c, 0, 71, 0
2, 512190, Note_on_c, 0, 43, 0
2, 512280, Note_on_c, 0, 72, 106
2, 512285, Note_on_c, 0, 60, 111
2, 512312, Note_on_c, 0, 72, 0
2, 512336, Note_on_c, 0, 60, 0
2, 512538, Note_on_c, 0, 69, 106
2, 512542, Note_on_c, 0, 57, 108
2, 512547, Note_on_c, 0, 48, 92
2, 512547, Note_on_c, 0, 60, 86
2, 512547, Note_on_c, 0, 64, 102
2, 512551, Note_on_c, 0, 36, 95
2, 512551, Control_c, 0, 64, 0
2, 512706, Control_c, 0, 64, 127
2, 512724, Note_on_c, 0, 69, 0
2, 512746, Note_on_c, 0, 57, 0
2, 512750, Note_on_c, 0, 60, 0
2, 512762, Note_on_c, 0, 64, 0
2, 512790, Note_on_c, 0, 36, 0
2, 512846, Note_on_c, 0, 67, 98
2, 512852, Note_on_c, 0, 48, 0
2, 512855, Note_on_c, 0, 55, 101
2, 512882, Note_on_c, 0, 67, 0
2, 512940, Note_on_c, 0, 55, 0
2, 513010, Note_on_c, 0, 66, 31
2, 513071, Note_on_c, 0, 66, 0
2, 513200, Control_c, 0, 64, 0
2, 513208, Note_on_c, 0, 66, 96
2, 513208, Note_on_c, 0, 62, 98
2, 513208, Note_on_c, 0, 50, 116
2, 513211, Note_on_c, 0, 54, 108
2, 513214, Note_on_c, 0, 57, 85
2, 513216, Note_on_c, 0, 38, 105
2, 513326, Note_on_c, 0, 57, 0
2, 513332, Note_on_c, 0, 54, 0
2, 513368, Control_c, 0, 64, 127
2, 513371, Note_on_c, 0, 62, 0
2, 513442, Note_on_c, 0, 38, 0
2, 513447, Note_on_c, 0, 67, 96
2, 513456, Note_on_c, 0, 66, 0
2, 513524, Note_on_c, 0, 50, 0
2, 513550, Note_on_c, 0, 66, 59
2, 513582, Note_on_c, 0, 67, 0
2, 513638, Note_on_c, 0, 67, 95
2, 513672, Note_on_c, 0, 66, 0
2, 513732, Note_on_c, 0, 66, 69
2, 513752, Note_on_c, 0, 67, 0
2, 513806, Note_on_c, 0, 67, 105
2, 513814, Note_on_c, 0, 66, 0
2, 513820, Note_on_c, 0, 62, 113
2, 513828, Note_on_c, 0, 50, 104
2, 513864, Note_on_c, 0, 62, 0
2, 513874, Note_on_c, 0, 50, 0
2, 513890, Note_on_c, 0, 66, 65
2, 513974, Note_on_c, 0, 67, 0
2, 513982, Note_on_c, 0, 64, 110
2, 514020, Note_on_c, 0, 66, 0
2, 514074, Note_on_c, 0, 66, 89
2, 514116, Note_on_c, 0, 64, 0
2, 514166, Note_on_c, 0, 67, 104
2, 514250, Note_on_c, 0, 66, 0
2, 514356, Note_on_c, 0, 67, 0
2, 514524, Note_on_c, 0, 67, 104
2, 514524, Note_on_c, 0, 55, 108
2, 514536, Note_on_c, 0, 62, 95
2, 514538, Note_on_c, 0, 59, 86
2, 514544, Note_on_c, 0, 43, 94
2, 514736, Control_c, 0, 64, 0
2, 514934, Control_c, 0, 64, 127
2, 514936, Note_on_c, 0, 43, 0
2, 515176, Note_on_c, 0, 50, 108
2, 515176, Note_on_c, 0, 38, 102
2, 515534, Control_c, 0, 64, 0
2, 515676, Note_on_c, 0, 50, 0
2, 515688, Control_c, 0, 64, 127
2, 515760, Note_on_c, 0, 38, 0
2, 516162, Note_on_c, 0, 31, 112
2, 516162, Note_on_c, 0, 43, 102
2, 516888, Note_on_c, 0, 43, 0
2, 516948, Note_on_c, 0, 31, 0
2, 517456, Note_on_c, 0, 55, 0
2, 517494, Note_on_c, 0, 62, 0
2, 517540, Note_on_c, 0, 59, 0
2, 517656, Note_on_c, 0, 67, 0
2, 517870, Control_c, 0, 64, 0
2, 520320, Control_c, 0, 64, 0
2, 524160, Note_on_c, 0, 74, 102
2, 524168, Note_on_c, 0, 58, 14
2, 524172, Note_on_c, 0, 62, 18
2, 524172, Note_on_c, 0, 67, 23
2, 524182, Note_on_c, 0, 55, 27
2, 524474, Note_on_c, 0, 62, 0
2, 524646, Note_on_c, 0, 67, 0
2, 524658, Note_on_c, 0, 55, 0
2, 524718, Note_on_c, 0, 58, 0
2, 524964, Note_on_c, 0, 58, 23
2, 524972, Note_on_c, 0, 67, 25
2, 524974, Note_on_c, 0, 55, 27
2, 524976, Note_on_c, 0, 62, 26
2, 525204, Note_on_c, 0, 67, 0
2, 525240, Note_on_c, 0, 62, 0
2, 525278, Note_on_c, 0, 55, 0
2, 525376, Note_on_c, 0, 58, 0
2, 525518, Note_on_c, 0, 74, 0
2, 525611, Note_on_c, 0, 55, 33
2, 525612, Note_on_c, 0, 67, 31
2, 525612, Note_on_c, 0, 58, 24
2, 525612, Note_on_c, 0, 62, 26
2, 525638, Note_on_c, 0, 74, 66
2, 525904, Note_on_c, 0, 55, 0
2, 525910, Note_on_c, 0, 62, 0
2, 526006, Note_on_c, 0, 58, 0
2, 526016, Note_on_c, 0, 67, 0
2, 526274, Note_on_c, 0, 67, 24
2, 526278, Note_on_c, 0, 62, 24
2, 526286, Note_on_c, 0, 58, 14
2, 526294, Note_on_c, 0, 55, 21
2, 526610, Note_on_c, 0, 67, 0
2, 526616, Note_on_c, 0, 62, 0
2, 526619, Note_on_c, 0, 55, 0
2, 526666, Note_on_c, 0, 58, 0
2, 526936, Note_on_c, 0, 67, 33
2, 526946, Note_on_c, 0, 62, 37
2, 526948, Note_on_c, 0, 58, 20
2, 526956, Note_on_c, 0, 55, 35
2, 527298, Note_on_c, 0, 62, 0
2, 527300, Note_on_c, 0, 67, 0
2, 527358, Note_on_c, 0, 58, 0
2, 527364, Note_on_c, 0, 55, 0
2, 527582, Note_on_c, 0, 67, 46
2, 527588, Note_on_c, 0, 58, 31
2, 527588, Note_on_c, 0, 62, 37
2, 527592, Note_on_c, 0, 55, 32
2, 527904, Note_on_c, 0, 67, 0
2, 527916, Note_on_c, 0, 62, 0
2, 527962, Note_on_c, 0, 74, 0
2, 527972, Note_on_c, 0, 55, 0
2, 528014, Note_on_c, 0, 58, 0
2, 528294, Note_on_c, 0, 74, 83
2, 528320, Note_on_c, 0, 63, 29
2, 528322, Note_on_c, 0, 67, 32
2, 528334, Note_on_c, 0, 57, 25
2, 528344, Note_on_c, 0, 55, 33
2, 528488, Control_c, 0, 64, 0
2, 528538, Note_on_c, 0, 72, 78
2, 528602, Note_on_c, 0, 74, 0
2, 528640, Control_c, 0, 64, 127
2, 528716, Note_on_c, 0, 70, 75
2, 528748, Note_on_c, 0, 72, 0
2, 528766, Note_on_c, 0, 55, 0
2, 528820, Note_on_c, 0, 63, 0
2, 528824, Note_on_c, 0, 67, 0
2, 528830, Note_on_c, 0, 57, 0
2, 528954, Note_on_c, 0, 72, 70
2, 529022, Note_on_c, 0, 70, 0
2, 529110, Note_on_c, 0, 63, 41
2, 529110, Note_on_c, 0, 67, 42
2, 529130, Note_on_c, 0, 55, 32
2, 529132, Note_on_c, 0, 57, 27
2, 529226, Control_c, 0, 64, 0
2, 529446, Note_on_c, 0, 55, 0
2, 529470, Control_c, 0, 64, 127
2, 529488, Note_on_c, 0, 67, 0
2, 529508, Note_on_c, 0, 63, 0
2, 529510, Note_on_c, 0, 57, 0
2, 529794, Note_on_c, 0, 57, 20
2, 529796, Note_on_c, 0, 63, 31
2, 529798, Note_on_c, 0, 55, 27
2, 529802, Note_on_c, 0, 67, 28
2, 530100, Note_on_c, 0, 67, 0
2, 530102, Note_on_c, 0, 55, 0
2, 530152, Note_on_c, 0, 57, 0
2, 530154, Note_on_c, 0, 63, 0
2, 530426, Note_on_c, 0, 63, 28
2, 530436, Note_on_c, 0, 67, 27
2, 530438, Note_on_c, 0, 57, 26
2, 530440, Note_on_c, 0, 55, 24
2, 530708, Note_on_c, 0, 55, 0
2, 530730, Note_on_c, 0, 67, 0
2, 530780, Note_on_c, 0, 63, 0
2, 530796, Note_on_c, 0, 57, 0
2, 531112, Note_on_c, 0, 67, 19
2, 531120, Note_on_c, 0, 63, 31
2, 531122, Note_on_c, 0, 57, 17
2, 531124, Note_on_c, 0, 55, 16
2, 531390, Note_on_c, 0, 55, 0
2, 531406, Note_on_c, 0, 67, 0
2, 531464, Note_on_c, 0, 57, 0
2, 531464, Note_on_c, 0, 63, 0
2, 531782, Note_on_c, 0, 67, 28
2, 531796, Note_on_c, 0, 63, 14
2, 531800, Note_on_c, 0, 55, 21
2, 531802, Note_on_c, 0, 57, 14
2, 531920, Note_on_c, 0, 55, 0
2, 531984, Note_on_c, 0, 67, 0
2, 532007, Note_on_c, 0, 57, 0
2, 532034, Note_on_c, 0, 63, 0
2, 532102, Note_on_c, 0, 72, 0
2, 532638, Note_on_c, 0, 72, 42
2, 532646, Note_on_c, 0, 66, 10
2, 532658, Note_on_c, 0, 60, 17
2, 532676, Note_on_c, 0, 57, 9
2, 532678, Note_on_c, 0, 55, 24
2, 532788, Control_c, 0, 64, 0
2, 533020, Control_c, 0, 64, 127
2, 533034, Note_on_c, 0, 55, 0
2, 533052, Note_on_c, 0, 60, 0
2, 533092, Note_on_c, 0, 66, 0
2, 533106, Note_on_c, 0, 57, 0
2, 533372, Note_on_c, 0, 66, 21
2, 533408, Note_on_c, 0, 57, 20
2, 533418, Note_on_c, 0, 60, 19
2, 533446, Note_on_c, 0, 55, 12
2, 533750, Note_on_c, 0, 66, 0
2, 533758, Note_on_c, 0, 55, 0
2, 533768, Note_on_c, 0, 60, 0
2, 533794, Note_on_c, 0, 57, 0
2, 533860, Note_on_c, 0, 72, 0
2, 534072, Note_on_c, 0, 72, 81
2, 534096, Note_on_c, 0, 66, 17
2, 534114, Note_on_c, 0, 60, 5
2, 534120, Note_on_c, 0, 57, 5
2, 534122, Note_on_c, 0, 55, 24
2, 534304, Note_on_c, 0, 60, 0
2, 534307, Note_on_c, 0, 55, 0
2, 534406, Note_on_c, 0, 66, 0
2, 534450, Note_on_c, 0, 57, 0
2, 534736, Note_on_c, 0, 66, 27
2, 534746, Note_on_c, 0, 60, 13
2, 534748, Note_on_c, 0, 57, 8
2, 534990, Note_on_c, 0, 60, 0
2, 535046, Note_on_c, 0, 66, 0
2, 535062, Note_on_c, 0, 57, 0
2, 535366, Note_on_c, 0, 66, 20
2, 535376, Note_on_c, 0, 60, 23
2, 535382, Note_on_c, 0, 57, 20
2, 535390, Note_on_c, 0, 55, 36
2, 535454, Note_on_c, 0, 55, 0
2, 535566, Note_on_c, 0, 60, 0
2, 535592, Note_on_c, 0, 57, 0
2, 535606, Note_on_c, 0, 66, 0
2, 536074, Note_on_c, 0, 66, 25
2, 536082, Note_on_c, 0, 60, 18
2, 536086, Note_on_c, 0, 57, 14
2, 536090, Note_on_c, 0, 55, 18
2, 536178, Note_on_c, 0, 55, 0
2, 536188, Note_on_c, 0, 60, 0
2, 536244, Note_on_c, 0, 66, 0
2, 536274, Note_on_c, 0, 57, 0
2, 536370, Note_on_c, 0, 72, 0
2, 536740, Note_on_c, 0, 72, 63
2, 536766, Note_on_c, 0, 62, 27
2, 536768, Note_on_c, 0, 67, 25
2, 536771, Note_on_c, 0, 58, 10
2, 536786, Note_on_c, 0, 55, 20
2, 536998, Note_on_c, 0, 70, 47
2, 537070, Note_on_c, 0, 72, 0
2, 537072, Control_c, 0, 64, 0
2, 537168, Note_on_c, 0, 62, 0
2, 537168, Control_c, 0, 64, 127
2, 537204, Note_on_c, 0, 69, 57
2, 537218, Note_on_c, 0, 55, 0
2, 537226, Note_on_c, 0, 70, 0
2, 537248, Note_on_c, 0, 67, 0
2, 537252, Note_on_c, 0, 58, 0
2, 537400, Note_on_c, 0, 70, 54
2, 537470, Note_on_c, 0, 69, 0
2, 537592, Note_on_c, 0, 67, 25
2, 537595, Note_on_c, 0, 58, 13
2, 537598, Note_on_c, 0, 55, 25
2, 537602, Note_on_c, 0, 62, 28
2, 537782, Control_c, 0, 64, 0
2, 537982, Control_c, 0, 64, 127
2, 537998, Note_on_c, 0, 62, 0
2, 537998, Note_on_c, 0, 55, 0
2, 538020, Note_on_c, 0, 67, 0
2, 538032, Note_on_c, 0, 58, 0
2, 538264, Note_on_c, 0, 62, 34
2, 538266, Note_on_c, 0, 58, 21
2, 538266, Note_on_c, 0, 67, 37
2, 538278, Note_on_c, 0, 55, 32
2, 538634, Note_on_c, 0, 62, 0
2, 538648, Note_on_c, 0, 67, 0
2, 538654, Note_on_c, 0, 55, 0
2, 538674, Note_on_c, 0, 58, 0
2, 539000, Note_on_c, 0, 55, 37
2, 539010, Note_on_c, 0, 67, 36
2, 539014, Note_on_c, 0, 58, 21
2, 539016, Note_on_c, 0, 62, 35
2, 539248, Note_on_c, 0, 62, 0
2, 539278, Note_on_c, 0, 67, 0
2, 539292, Note_on_c, 0, 55, 0
2, 539328, Note_on_c, 0, 58, 0
2, 539674, Note_on_c, 0, 65, 49
2, 539680, Note_on_c, 0, 58, 26
2, 539694, Note_on_c, 0, 55, 43
2, 539700, Note_on_c, 0, 53, 57
2, 539936, Note_on_c, 0, 53, 0
2, 539962, Note_on_c, 0, 55, 0
2, 539985, Note_on_c, 0, 65, 0
2, 540014, Note_on_c, 0, 58, 0
2, 540346, Note_on_c, 0, 63, 59
2, 540364, Note_on_c, 0, 58, 29
2, 540372, Note_on_c, 0, 51, 33
2, 540372, Note_on_c, 0, 55, 27
2, 540640, Control_c, 0, 64, 0
2, 540710, Note_on_c, 0, 55, 0
2, 540722, Note_on_c, 0, 58, 0
2, 540780, Control_c, 0, 64, 127
2, 540860, Note_on_c, 0, 63, 0
2, 540890, Note_on_c, 0, 51, 0
2, 541084, Note_on_c, 0, 70, 0
2, 541104, Note_on_c, 0, 58, 26
2, 541120, Note_on_c, 0, 62, 31
2, 541124, Note_on_c, 0, 53, 55
2, 541128, Note_on_c, 0, 50, 5
2, 541424, Control_c, 0, 64, 0
2, 541562, Control_c, 0, 64, 127
2, 541622, Note_on_c, 0, 50, 0
2, 541622, Note_on_c, 0, 53, 0
2, 541636, Note_on_c, 0, 58, 0
2, 541674, Note_on_c, 0, 62, 0
2, 541990, Note_on_c, 0, 77, 92
2, 542010, Note_on_c, 0, 62, 25
2, 542013, Note_on_c, 0, 58, 9
2, 542030, Note_on_c, 0, 53, 44
2, 542030, Note_on_c, 0, 50, 24
2, 542404, Note_on_c, 0, 62, 0
2, 542416, Note_on_c, 0, 53, 0
2, 542436, Note_on_c, 0, 50, 0
2, 542456, Note_on_c, 0, 58, 0
2, 542728, Note_on_c, 0, 58, 23
2, 542738, Note_on_c, 0, 62, 36
2, 542745, Note_on_c, 0, 53, 55
2, 542746, Note_on_c, 0, 50, 32
2, 543044, Note_on_c, 0, 62, 0
2, 543079, Note_on_c, 0, 53, 0
2, 543094, Note_on_c, 0, 50, 0
2, 543120, Note_on_c, 0, 58, 0
2, 543390, Note_on_c, 0, 74, 92
2, 543416, Note_on_c, 0, 62, 40
2, 543424, Note_on_c, 0, 58, 17
2, 543434, Note_on_c, 0, 50, 33
2, 543436, Note_on_c, 0, 53, 34
2, 543640, Note_on_c, 0, 77, 0
2, 543702, Note_on_c, 0, 62, 0
2, 543724, Note_on_c, 0, 50, 0
2, 543739, Note_on_c, 0, 53, 0
2, 543766, Note_on_c, 0, 58, 0
2, 544026, Note_on_c, 0, 70, 72
2, 544062, Note_on_c, 0, 62, 32
2, 544068, Note_on_c, 0, 58, 19
2, 544081, Note_on_c, 0, 53, 41
2, 544090, Note_on_c, 0, 50, 25
2, 544220, Note_on_c, 0, 74, 0
2, 544252, Control_c, 0, 64, 0
2, 544420, Control_c, 0, 64, 127
2, 544433, Note_on_c, 0, 53, 0
2, 544438, Note_on_c, 0, 62, 0
2, 544462, Note_on_c, 0, 50, 0
2, 544486, Note_on_c, 0, 58, 0
2, 544682, Note_on_c, 0, 68, 75
2, 544722, Note_on_c, 0, 62, 31
2, 544722, Note_on_c, 0, 58, 19
2, 544731, Note_on_c, 0, 53, 34
2, 544735, Note_on_c, 0, 50, 24
2, 544882, Note_on_c, 0, 70, 0
2, 544944, Control_c, 0, 64, 0
2, 545080, Control_c, 0, 64, 127
2, 545109, Note_on_c, 0, 50, 0
2, 545116, Note_on_c, 0, 53, 0
2, 545168, Note_on_c, 0, 68, 0
2, 545226, Note_on_c, 0, 62, 0
2, 545232, Note_on_c, 0, 58, 0
2, 545310, Note_on_c, 0, 68, 75
2, 545576, Note_on_c, 0, 67, 73
2, 545638, Note_on_c, 0, 68, 0
2, 545742, Note_on_c, 0, 65, 78
2, 545778, Note_on_c, 0, 67, 0
2, 545902, Note_on_c, 0, 67, 79
2, 545936, Note_on_c, 0, 65, 0
2, 546020, Note_on_c, 0, 62, 28
2, 546030, Note_on_c, 0, 55, 29
2, 546031, Note_on_c, 0, 51, 35
2, 546042, Note_on_c, 0, 50, 8
2, 546142, Note_on_c, 0, 65, 77
2, 546146, Note_on_c, 0, 67, 0
2, 546340, Note_on_c, 0, 67, 75
2, 546392, Note_on_c, 0, 65, 0
2, 546418, Control_c, 0, 64, 0
2, 546478, Note_on_c, 0, 68, 55
2, 546492, Note_on_c, 0, 67, 0
2, 546588, Control_c, 0, 64, 127
2, 546620, Note_on_c, 0, 50, 0
2, 546632, Note_on_c, 0, 55, 0
2, 546648, Note_on_c, 0, 67, 59
2, 546650, Note_on_c, 0, 62, 0
2, 546709, Note_on_c, 0, 51, 0
2, 546818, Note_on_c, 0, 68, 0
2, 546854, Note_on_c, 0, 62, 37
2, 546880, Note_on_c, 0, 51, 23
2, 546884, Note_on_c, 0, 55, 33
2, 546888, Note_on_c, 0, 50, 33
2, 547202, Control_c, 0, 64, 0
2, 547294, Control_c, 0, 64, 127
2, 547338, Note_on_c, 0, 55, 0
2, 547346, Note_on_c, 0, 62, 0
2, 547362, Note_on_c, 0, 50, 0
2, 547386, Note_on_c, 0, 51, 0
2, 547548, Note_on_c, 0, 62, 58
2, 547564, Note_on_c, 0, 51, 46
2, 547570, Note_on_c, 0, 55, 49
2, 547582, Note_on_c, 0, 50, 28
2, 547832, Note_on_c, 0, 55, 0
2, 547922, Note_on_c, 0, 62, 0
2, 547991, Note_on_c, 0, 50, 0
2, 548098, Note_on_c, 0, 51, 0
2, 548270, Note_on_c, 0, 61, 52
2, 548294, Note_on_c, 0, 51, 23
2, 548296, Note_on_c, 0, 55, 43
2, 548307, Note_on_c, 0, 49, 29
2, 548538, Control_c, 0, 64, 0
2, 548644, Note_on_c, 0, 55, 0
2, 548676, Control_c, 0, 64, 127
2, 548722, Note_on_c, 0, 51, 0
2, 548769, Note_on_c, 0, 49, 0
2, 548780, Note_on_c, 0, 61, 0
2, 549064, Note_on_c, 0, 60, 25
2, 549074, Note_on_c, 0, 55, 24
2, 549085, Note_on_c, 0, 51, 31
2, 549092, Note_on_c, 0, 48, 13
2, 549168, Control_c, 0, 64, 0
2, 549440, Note_on_c, 0, 55, 0
2, 549444, Control_c, 0, 64, 127
2, 549522, Note_on_c, 0, 48, 0
2, 549531, Note_on_c, 0, 51, 0
2, 549532, Note_on_c, 0, 60, 0
2, 549892, Note_on_c, 0, 67, 0
2, 549916, Note_on_c, 0, 59, 16
2, 549920, Note_on_c, 0, 55, 35
2, 549928, Note_on_c, 0, 50, 29
2, 549940, Note_on_c, 0, 47, 13
2, 550152, Control_c, 0, 64, 0
2, 550306, Control_c, 0, 64, 127
2, 550334, Note_on_c, 0, 47, 0
2, 550346, Note_on_c, 0, 55, 0
2, 550356, Note_on_c, 0, 50, 0
2, 550364, Note_on_c, 0, 59, 0
2, 550680, Note_on_c, 0, 74, 81
2, 550714, Note_on_c, 0, 55, 26
2, 550724, Note_on_c, 0, 59, 28
2, 550726, Note_on_c, 0, 50, 23
2, 550726, Note_on_c, 0, 47, 17
2, 550950, Note_on_c, 0, 59, 0
2, 550962, Note_on_c, 0, 47, 0
2, 550986, Note_on_c, 0, 55, 0
2, 550998, Note_on_c, 0, 50, 0
2, 551444, Note_on_c, 0, 59, 27
2, 551447, Note_on_c, 0, 47, 19
2, 551447, Note_on_c, 0, 55, 39
2, 551447, Note_on_c, 0, 50, 35
2, 551742, Note_on_c, 0, 50, 0
2, 551744, Note_on_c, 0, 47, 0
2, 551747, Note_on_c, 0, 59, 0
2, 551768, Note_on_c, 0, 55, 0
2, 551810, Note_on_c, 0, 71, 87
2, 551868, Note_on_c, 0, 74, 0
2, 552022, Note_on_c, 0, 71, 0
2, 552118, Note_on_c, 0, 71, 74
2, 552130, Note_on_c, 0, 59, 19
2, 552142, Note_on_c, 0, 50, 20
2, 552145, Note_on_c, 0, 47, 17
2, 552145, Note_on_c, 0, 55, 36
2, 552444, Note_on_c, 0, 67, 92
2, 552450, Note_on_c, 0, 47, 0
2, 552468, Note_on_c, 0, 50, 0
2, 552471, Note_on_c, 0, 59, 0
2, 552486, Note_on_c, 0, 71, 0
2, 552494, Note_on_c, 0, 55, 0
2, 552656, Note_on_c, 0, 67, 0
2, 552758, Note_on_c, 0, 47, 24
2, 552764, Note_on_c, 0, 55, 31
2, 552767, Note_on_c, 0, 59, 32
2, 552774, Note_on_c, 0, 50, 33
2, 552792, Note_on_c, 0, 67, 90
2, 552934, Control_c, 0, 64, 0
2, 553086, Control_c, 0, 64, 127
2, 553128, Note_on_c, 0, 68, 80
2, 553166, Note_on_c, 0, 47, 0
2, 553184, Note_on_c, 0, 67, 0
2, 553184, Note_on_c, 0, 50, 0
2, 553196, Note_on_c, 0, 59, 0
2, 553200, Note_on_c, 0, 55, 0
2, 553366, Note_on_c, 0, 68, 0
2, 553470, Note_on_c, 0, 47, 27
2, 553480, Note_on_c, 0, 59, 31
2, 553480, Note_on_c, 0, 55, 31
2, 553486, Note_on_c, 0, 50, 27
2, 553510, Note_on_c, 0, 68, 82
2, 553778, Control_c, 0, 64, 0
2, 553964, Note_on_c, 0, 65, 77
2, 554036, Note_on_c, 0, 68, 0
2, 554084, Control_c, 0, 64, 127
2, 554150, Note_on_c, 0, 55, 0
2, 554208, Note_on_c, 0, 65, 0
2, 554214, Note_on_c, 0, 59, 0
2, 554214, Note_on_c, 0, 47, 0
2, 554236, Note_on_c, 0, 50, 0
2, 554328, Note_on_c, 0, 65, 58
2, 554562, Note_on_c, 0, 63, 74
2, 554592, Control_c, 0, 64, 0
2, 554628, Note_on_c, 0, 65, 0
2, 554746, Note_on_c, 0, 62, 83
2, 554784, Note_on_c, 0, 63, 0
2, 554792, Control_c, 0, 64, 127
2, 554938, Note_on_c, 0, 63, 89
2, 554958, Note_on_c, 0, 62, 0
2, 555118, Note_on_c, 0, 59, 25
2, 555128, Note_on_c, 0, 55, 28
2, 555130, Note_on_c, 0, 47, 17
2, 555133, Note_on_c, 0, 51, 17
2, 555200, Note_on_c, 0, 63, 0
2, 555206, Note_on_c, 0, 62, 77
2, 555284, Control_c, 0, 64, 0
2, 555430, Note_on_c, 0, 63, 74
2, 555462, Note_on_c, 0, 62, 0
2, 555498, Control_c, 0, 64, 127
2, 555594, Note_on_c, 0, 63, 0
2, 555599, Note_on_c, 0, 65, 49
2, 555615, Note_on_c, 0, 51, 0
2, 555618, Note_on_c, 0, 47, 0
2, 555624, Note_on_c, 0, 55, 0
2, 555640, Note_on_c, 0, 59, 0
2, 555760, Note_on_c, 0, 63, 71
2, 555874, Note_on_c, 0, 47, 44
2, 555879, Note_on_c, 0, 51, 40
2, 555880, Note_on_c, 0, 65, 0
2, 555886, Note_on_c, 0, 59, 59
2, 555890, Note_on_c, 0, 55, 41
2, 555898, Control_c, 0, 64, 0
2, 556206, Control_c, 0, 64, 127
2, 556224, Note_on_c, 0, 47, 0
2, 556230, Note_on_c, 0, 55, 0
2, 556261, Note_on_c, 0, 51, 0
2, 556278, Note_on_c, 0, 59, 0
2, 556540, Note_on_c, 0, 62, 47
2, 556550, Note_on_c, 0, 55, 50
2, 556557, Note_on_c, 0, 51, 49
2, 556558, Note_on_c, 0, 50, 39
2, 556790, Control_c, 0, 64, 0
2, 556918, Note_on_c, 0, 55, 0
2, 556941, Control_c, 0, 64, 127
2, 556977, Note_on_c, 0, 62, 0
2, 556986, Note_on_c, 0, 50, 0
2, 556989, Note_on_c, 0, 51, 0
2, 557192, Note_on_c, 0, 62, 56
2, 557220, Note_on_c, 0, 55, 36
2, 557224, Note_on_c, 0, 50, 27
2, 557226, Note_on_c, 0, 51, 34
2, 557282, Control_c, 0, 64, 0
2, 557542, Control_c, 0, 64, 127
2, 557550, Note_on_c, 0, 55, 0
2, 557610, Note_on_c, 0, 51, 0
2, 557656, Note_on_c, 0, 50, 0
2, 557656, Note_on_c, 0, 62, 0
2, 558036, Note_on_c, 0, 60, 26
2, 558046, Note_on_c, 0, 55, 16
2, 558055, Note_on_c, 0, 51, 20
2, 558056, Note_on_c, 0, 48, 14
2, 558064, Control_c, 0, 64, 0
2, 558354, Control_c, 0, 64, 127
2, 558410, Note_on_c, 0, 55, 0
2, 558446, Note_on_c, 0, 60, 0
2, 558519, Note_on_c, 0, 51, 0
2, 558542, Note_on_c, 0, 48, 0
2, 558880, Note_on_c, 0, 48, 65
2, 559046, Note_on_c, 0, 63, 0
2, 559294, Control_c, 0, 64, 0
2, 559564, Note_on_c, 0, 66, 31
2, 559578, Note_on_c, 0, 57, 28
2, 559590, Note_on_c, 0, 62, 31
2, 559602, Control_c, 0, 64, 127
2, 559870, Note_on_c, 0, 66, 0
2, 559880, Note_on_c, 0, 62, 0
2, 559884, Note_on_c, 0, 57, 0
2, 560238, Note_on_c, 0, 66, 25
2, 560246, Note_on_c, 0, 57, 16
2, 560264, Note_on_c, 0, 62, 27
2, 560614, Note_on_c, 0, 66, 0
2, 560617, Note_on_c, 0, 62, 0
2, 560624, Note_on_c, 0, 57, 0
2, 560912, Note_on_c, 0, 66, 31
2, 560924, Note_on_c, 0, 57, 21
2, 560946, Note_on_c, 0, 62, 23
2, 561278, Note_on_c, 0, 57, 0
2, 561280, Note_on_c, 0, 66, 0
2, 561284, Note_on_c, 0, 62, 0
2, 561550, Note_on_c, 0, 66, 36
2, 561562, Note_on_c, 0, 62, 28
2, 561564, Note_on_c, 0, 57, 28
2, 561854, Note_on_c, 0, 51, 81
2, 561942, Note_on_c, 0, 48, 0
2, 561946, Note_on_c, 0, 62, 0
2, 561986, Note_on_c, 0, 66, 0
2, 562018, Note_on_c, 0, 57, 0
2, 562262, Note_on_c, 0, 50, 87
2, 562272, Note_on_c, 0, 66, 48
2, 562282, Note_on_c, 0, 57, 46
2, 562294, Note_on_c, 0, 62, 48
2, 562342, Note_on_c, 0, 51, 0
2, 562428, Control_c, 0, 64, 0
2, 562580, Note_on_c, 0, 62, 0
2, 562582, Note_on_c, 0, 57, 0
2, 562582, Control_c, 0, 64, 127
2, 562610, Note_on_c, 0, 48, 85
2, 562640, Note_on_c, 0, 50, 0
2, 562850, Note_on_c, 0, 48, 0
2, 562886, Note_on_c, 0, 66, 0
2, 562916, Note_on_c, 0, 48, 69
2, 562936, Note_on_c, 0, 67, 56
2, 562942, Note_on_c, 0, 55, 48
2, 562958, Note_on_c, 0, 62, 41
2, 563074, Control_c, 0, 64, 0
2, 563322, Note_on_c, 0, 46, 71
2, 563396, Control_c, 0, 64, 127
2, 563398, Note_on_c, 0, 48, 0
2, 563492, Note_on_c, 0, 67, 0
2, 563508, Note_on_c, 0, 62, 0
2, 563508, Note_on_c, 0, 55, 0
2, 563678, Note_on_c, 0, 45, 72
2, 563708, Note_on_c, 0, 55, 35
2, 563716, Note_on_c, 0, 67, 46
2, 563740, Note_on_c, 0, 62, 20
2, 563766, Note_on_c, 0, 46, 0
2, 563842, Control_c, 0, 64, 0
2, 564020, Note_on_c, 0, 46, 73
2, 564072, Control_c, 0, 64, 127
2, 564100, Note_on_c, 0, 45, 0
2, 564182, Note_on_c, 0, 67, 0
2, 564226, Note_on_c, 0, 62, 0
2, 564234, Note_on_c, 0, 55, 0
2, 564422, Note_on_c, 0, 45, 71
2, 564436, Note_on_c, 0, 55, 40
2, 564440, Note_on_c, 0, 67, 44
2, 564452, Note_on_c, 0, 46, 0
2, 564460, Note_on_c, 0, 62, 13
2, 564518, Control_c, 0, 64, 0
2, 564676, Note_on_c, 0, 46, 72
2, 564704, Note_on_c, 0, 45, 0
2, 564880, Note_on_c, 0, 48, 56
2, 564894, Note_on_c, 0, 46, 0
2, 564918, Control_c, 0, 64, 127
2, 565028, Note_on_c, 0, 67, 0
2, 565064, Note_on_c, 0, 62, 0
2, 565074, Note_on_c, 0, 55, 0
2, 565098, Note_on_c, 0, 46, 55
2, 565174, Note_on_c, 0, 48, 0
2, 565370, Note_on_c, 0, 55, 32
2, 565370, Note_on_c, 0, 67, 32
2, 565390, Note_on_c, 0, 62, 28
2, 565424, Control_c, 0, 64, 0
2, 565702, Control_c, 0, 64, 127
2, 565722, Note_on_c, 0, 67, 0
2, 565780, Note_on_c, 0, 55, 0
2, 565786, Note_on_c, 0, 62, 0
2, 566104, Note_on_c, 0, 67, 29
2, 566118, Note_on_c, 0, 62, 26
2, 566128, Note_on_c, 0, 55, 19
2, 566364, Note_on_c, 0, 67, 0
2, 566382, Note_on_c, 0, 55, 0
2, 566398, Note_on_c, 0, 62, 0
2, 566830, Note_on_c, 0, 62, 19
2, 566832, Note_on_c, 0, 67, 24
2, 566840, Note_on_c, 0, 46, 0
2, 566852, Note_on_c, 0, 55, 27
2, 567034, Note_on_c, 0, 55, 0
2, 567546, Note_on_c, 0, 55, 83
2, 567566, Note_on_c, 0, 62, 0
2, 567624, Note_on_c, 0, 67, 0
2, 567974, Control_c, 0, 64, 0
2, 568194, Note_on_c, 0, 73, 34
2, 568211, Note_on_c, 0, 69, 14
2, 568222, Note_on_c, 0, 64, 39
2, 568503, Note_on_c, 0, 69, 0
2, 568514, Control_c, 0, 64, 127
2, 568517, Note_on_c, 0, 64, 0
2, 568521, Note_on_c, 0, 73, 0
2, 568874, Note_on_c, 0, 73, 37
2, 568898, Note_on_c, 0, 69, 24
2, 568902, Note_on_c, 0, 64, 28
2, 569160, Note_on_c, 0, 64, 0
2, 569236, Note_on_c, 0, 69, 0
2, 569248, Note_on_c, 0, 73, 0
2, 569508, Note_on_c, 0, 73, 51
2, 569534, Note_on_c, 0, 64, 39
2, 569542, Note_on_c, 0, 69, 31
2, 569818, Note_on_c, 0, 64, 0
2, 569844, Note_on_c, 0, 69, 0
2, 569932, Note_on_c, 0, 73, 0
2, 570176, Note_on_c, 0, 73, 50
2, 570198, Note_on_c, 0, 69, 21
2, 570208, Note_on_c, 0, 64, 35
2, 570356, Control_c, 0, 64, 0
2, 570498, Note_on_c, 0, 58, 64
2, 570542, Control_c, 0, 64, 127
2, 570580, Note_on_c, 0, 55, 0
2, 570608, Note_on_c, 0, 69, 0
2, 570642, Note_on_c, 0, 64, 0
2, 570694, Note_on_c, 0, 73, 0
2, 570896, Note_on_c, 0, 57, 79
2, 570899, Note_on_c, 0, 73, 71
2, 570910, Note_on_c, 0, 64, 58
2, 570920, Note_on_c, 0, 69, 37
2, 570950, Note_on_c, 0, 58, 0
2, 571176, Note_on_c, 0, 69, 0
2, 571218, Note_on_c, 0, 55, 96
2, 571232, Note_on_c, 0, 57, 0
2, 571284, Note_on_c, 0, 64, 0
2, 571292, Note_on_c, 0, 73, 0
2, 571448, Note_on_c, 0, 55, 0
2, 571550, Note_on_c, 0, 55, 71
2, 571550, Note_on_c, 0, 74, 82
2, 571552, Note_on_c, 0, 62, 67
2, 571558, Note_on_c, 0, 69, 56
2, 571678, Control_c, 0, 64, 0
2, 571872, Note_on_c, 0, 53, 121
2, 571910, Note_on_c, 0, 55, 0
2, 571992, Note_on_c, 0, 74, 0
2, 572000, Control_c, 0, 64, 127
2, 572022, Note_on_c, 0, 62, 0
2, 572030, Note_on_c, 0, 69, 0
2, 572198, Note_on_c, 0, 74, 73
2, 572200, Note_on_c, 0, 52, 108
2, 572200, Note_on_c, 0, 62, 65
2, 572210, Note_on_c, 0, 69, 50
2, 572232, Note_on_c, 0, 53, 0
2, 572354, Control_c, 0, 64, 0
2, 572546, Note_on_c, 0, 53, 121
2, 572600, Note_on_c, 0, 74, 0
2, 572624, Note_on_c, 0, 52, 0
2, 572770, Control_c, 0, 64, 127
2, 572780, Note_on_c, 0, 62, 0
2, 572952, Note_on_c, 0, 60, 92
2, 572956, Note_on_c, 0, 74, 81
2, 572964, Note_on_c, 0, 64, 58
2, 572976, Note_on_c, 0, 67, 47
2, 572994, Note_on_c, 0, 53, 0
2, 573046, Note_on_c, 0, 69, 0
2, 573076, Control_c, 0, 64, 0
2, 573360, Note_on_c, 0, 58, 80
2, 573446, Control_c, 0, 64, 127
2, 573456, Note_on_c, 0, 60, 0
2, 573500, Note_on_c, 0, 64, 0
2, 573502, Note_on_c, 0, 74, 0
2, 573536, Note_on_c, 0, 67, 0
2, 573732, Note_on_c, 0, 70, 64
2, 573740, Note_on_c, 0, 57, 77
2, 573744, Note_on_c, 0, 74, 78
2, 573750, Note_on_c, 0, 64, 71
2, 573810, Note_on_c, 0, 58, 0
2, 573968, Control_c, 0, 64, 0
2, 574090, Note_on_c, 0, 55, 92
2, 574136, Note_on_c, 0, 57, 0
2, 574244, Control_c, 0, 64, 127
2, 574272, Note_on_c, 0, 74, 0
2, 574330, Note_on_c, 0, 64, 0
2, 574394, Note_on_c, 0, 70, 0
2, 574560, Note_on_c, 0, 74, 82
2, 574568, Note_on_c, 0, 64, 69
2, 574570, Note_on_c, 0, 69, 47
2, 574586, Note_on_c, 0, 57, 72
2, 574644, Note_on_c, 0, 55, 0
2, 574828, Control_c, 0, 64, 0
2, 575142, Note_on_c, 0, 64, 0
2, 575166, Control_c, 0, 64, 127
2, 575202, Note_on_c, 0, 69, 0
2, 575207, Note_on_c, 0, 74, 0
2, 575384, Note_on_c, 0, 73, 90
2, 575396, Note_on_c, 0, 69, 57
2, 575398, Note_on_c, 0, 64, 79
2, 575596, Control_c, 0, 64, 0
2, 575812, Control_c, 0, 64, 127
2, 575960, Note_on_c, 0, 69, 0
2, 575962, Note_on_c, 0, 64, 0
2, 576090, Note_on_c, 0, 74, 101
2, 576092, Note_on_c, 0, 57, 0
2, 576095, Note_on_c, 0, 73, 0
2, 576228, Note_on_c, 0, 74, 0
2, 576256, Note_on_c, 0, 62, 49
2, 576394, Note_on_c, 0, 69, 41
2, 576494, Note_on_c, 0, 58, 69
2, 576502, Note_on_c, 0, 74, 95
2, 576718, Control_c, 0, 64, 0
2, 577026, Control_c, 0, 64, 127
2, 577054, Note_on_c, 0, 69, 0
2, 577066, Note_on_c, 0, 62, 0
2, 577310, Note_on_c, 0, 69, 47
2, 577326, Note_on_c, 0, 62, 47
2, 577702, Note_on_c, 0, 62, 0
2, 577766, Note_on_c, 0, 69, 0
2, 578010, Note_on_c, 0, 62, 33
2, 578026, Note_on_c, 0, 67, 29
2, 578132, Control_c, 0, 64, 0
2, 578362, Control_c, 0, 64, 127
2, 578424, Note_on_c, 0, 62, 0
2, 578432, Note_on_c, 0, 67, 0
2, 578692, Note_on_c, 0, 67, 36
2, 578708, Note_on_c, 0, 62, 25
2, 578992, Note_on_c, 0, 67, 0
2, 579010, Note_on_c, 0, 62, 0
2, 579080, Note_on_c, 0, 58, 0
2, 579452, Note_on_c, 0, 62, 18
2, 579456, Note_on_c, 0, 54, 47
2, 579474, Note_on_c, 0, 69, 18
2, 579514, Control_c, 0, 64, 0
2, 579852, Control_c, 0, 64, 127
2, 579902, Note_on_c, 0, 62, 0
2, 579926, Note_on_c, 0, 69, 0
2, 580214, Note_on_c, 0, 69, 16
2, 580242, Note_on_c, 0, 62, 25
2, 580430, Note_on_c, 0, 62, 0
2, 580568, Note_on_c, 0, 74, 0
2, 580656, Note_on_c, 0, 69, 0
2, 580661, Note_on_c, 0, 72, 51
2, 580886, Note_on_c, 0, 72, 0
2, 581168, Note_on_c, 0, 54, 0
2, 581168, Note_on_c, 0, 72, 51
2, 581190, Note_on_c, 0, 67, 23
2, 581198, Note_on_c, 0, 62, 20
2, 581210, Note_on_c, 0, 55, 32
2, 581282, Control_c, 0, 64, 0
2, 581604, Control_c, 0, 64, 127
2, 581668, Note_on_c, 0, 71, 62
2, 581686, Note_on_c, 0, 62, 0
2, 581710, Note_on_c, 0, 72, 0
2, 581778, Note_on_c, 0, 67, 0
2, 581806, Note_on_c, 0, 71, 0
2, 582088, Note_on_c, 0, 71, 72
2, 582112, Note_on_c, 0, 62, 41
2, 582116, Note_on_c, 0, 65, 26
2, 582218, Control_c, 0, 64, 0
2, 582418, Control_c, 0, 64, 127
2, 582482, Note_on_c, 0, 70, 65
2, 582516, Note_on_c, 0, 71, 0
2, 582570, Note_on_c, 0, 62, 0
2, 582620, Note_on_c, 0, 65, 0
2, 582644, Note_on_c, 0, 70, 0
2, 582844, Note_on_c, 0, 70, 66
2, 582860, Note_on_c, 0, 61, 40
2, 582870, Note_on_c, 0, 64, 44
2, 582940, Control_c, 0, 64, 0
2, 583294, Control_c, 0, 64, 127
2, 583304, Note_on_c, 0, 69, 54
2, 583366, Note_on_c, 0, 70, 0
2, 583534, Note_on_c, 0, 69, 0
2, 583578, Note_on_c, 0, 61, 0
2, 583738, Note_on_c, 0, 69, 55
2, 583740, Note_on_c, 0, 53, 89
2, 583744, Note_on_c, 0, 62, 44
2, 583766, Note_on_c, 0, 64, 0
2, 583768, Note_on_c, 0, 55, 0
2, 583924, Control_c, 0, 64, 0
2, 584150, Note_on_c, 0, 55, 70
2, 584170, Note_on_c, 0, 53, 0
2, 584400, Control_c, 0, 64, 127
2, 584408, Note_on_c, 0, 69, 0
2, 584416, Note_on_c, 0, 62, 0
2, 584622, Note_on_c, 0, 74, 79
2, 584638, Note_on_c, 0, 64, 48
2, 584644, Note_on_c, 0, 69, 32
2, 584652, Note_on_c, 0, 55, 0
2, 584680, Note_on_c, 0, 57, 39
2, 584832, Control_c, 0, 64, 0
2, 584866, Note_on_c, 0, 73, 75
2, 584928, Note_on_c, 0, 74, 0
2, 585000, Control_c, 0, 64, 127
2, 585034, Note_on_c, 0, 71, 96
2, 585096, Note_on_c, 0, 73, 0
2, 585194, Note_on_c, 0, 73, 74
2, 585246, Note_on_c, 0, 71, 0
2, 585316, Note_on_c, 0, 69, 0
2, 585360, Note_on_c, 0, 64, 0
2, 585534, Note_on_c, 0, 64, 65
2, 585540, Note_on_c, 0, 69, 54
2, 585600, Control_c, 0, 64, 0
2, 585784, Control_c, 0, 64, 127
2, 586032, Note_on_c, 0, 69, 0
2, 586056, Note_on_c, 0, 74, 100
2, 586142, Note_on_c, 0, 73, 0
2, 586302, Note_on_c, 0, 64, 0
2, 586378, Note_on_c, 0, 74, 0
2, 586674, Note_on_c, 0, 57, 0
2, 586674, Note_on_c, 0, 74, 82
2, 586677, Note_on_c, 0, 65, 49
2, 586684, Note_on_c, 0, 69, 37
2, 586708, Note_on_c, 0, 62, 39
2, 586736, Control_c, 0, 64, 0
2, 586906, Control_c, 0, 64, 127
2, 586932, Note_on_c, 0, 62, 0
2, 587058, Note_on_c, 0, 69, 0
2, 587120, Note_on_c, 0, 65, 0
2, 587138, Note_on_c, 0, 74, 0
2, 587342, Note_on_c, 0, 50, 70
2, 587356, Note_on_c, 0, 38, 49
2, 587636, Note_on_c, 0, 50, 0
2, 587646, Note_on_c, 0, 38, 0
2, 587818, Note_on_c, 0, 48, 67
2, 587818, Note_on_c, 0, 62, 52
2, 587824, Note_on_c, 0, 36, 62
2, 587840, Note_on_c, 0, 53, 48
2, 587844, Note_on_c, 0, 57, 17
2, 588062, Note_on_c, 0, 48, 0
2, 588116, Note_on_c, 0, 36, 0
2, 588238, Note_on_c, 0, 46, 64
2, 588244, Note_on_c, 0, 34, 63
2, 588322, Note_on_c, 0, 62, 0
2, 588330, Note_on_c, 0, 57, 0
2, 588346, Note_on_c, 0, 53, 0
2, 588540, Note_on_c, 0, 34, 0
2, 588543, Note_on_c, 0, 46, 0
2, 588692, Note_on_c, 0, 33, 58
2, 588700, Note_on_c, 0, 45, 51
2, 588716, Note_on_c, 0, 62, 39
2, 588736, Note_on_c, 0, 57, 19
2, 588736, Note_on_c, 0, 53, 41
2, 588748, Control_c, 0, 64, 0
2, 588948, Control_c, 0, 64, 127
2, 588954, Note_on_c, 0, 45, 0
2, 588980, Note_on_c, 0, 33, 0
2, 589142, Note_on_c, 0, 31, 58
2, 589144, Note_on_c, 0, 43, 51
2, 589194, Control_c, 0, 64, 0
2, 589324, Note_on_c, 0, 62, 0
2, 589348, Control_c, 0, 64, 127
2, 589366, Note_on_c, 0, 53, 0
2, 589369, Note_on_c, 0, 57, 0
2, 589438, Note_on_c, 0, 43, 0
2, 589450, Note_on_c, 0, 31, 0
2, 589666, Note_on_c, 0, 29, 33
2, 589672, Control_c, 0, 64, 0
2, 589672, Note_on_c, 0, 41, 41
2, 589675, Note_on_c, 0, 62, 35
2, 589680, Note_on_c, 0, 53, 43
2, 589690, Note_on_c, 0, 57, 18
2, 589932, Control_c, 0, 64, 127
2, 590006, Note_on_c, 0, 41, 0
2, 590028, Note_on_c, 0, 29, 0
2, 590268, Note_on_c, 0, 28, 28
2, 590271, Note_on_c, 0, 40, 54
2, 590286, Control_c, 0, 64, 0
2, 590546, Control_c, 0, 64, 127
2, 590570, Note_on_c, 0, 62, 0
2, 590652, Note_on_c, 0, 53, 0
2, 590674, Note_on_c, 0, 40, 0
2, 590696, Note_on_c, 0, 57, 0
2, 590696, Note_on_c, 0, 28, 0
2, 591178, Note_on_c, 0, 62, 27
2, 591200, Note_on_c, 0, 38, 37
2, 591204, Note_on_c, 0, 57, 12
2, 591206, Note_on_c, 0, 53, 34
2, 591212, Note_on_c, 0, 26, 33
2, 591362, Control_c, 0, 64, 0
2, 592068, Control_c, 0, 64, 127
2, 592212, Note_on_c, 0, 26, 0
2, 592244, Note_on_c, 0, 38, 0
2, 592322, Note_on_c, 0, 53, 0
2, 592488, Note_on_c, 0, 57, 0
2, 592536, Note_on_c, 0, 62, 0
2, 593812, Note_on_c, 0, 74, 87
2, 593850, Note_on_c, 0, 70, 21
2, 593852, Note_on_c, 0, 65, 14
2, 593860, Note_on_c, 0, 58, 19
2, 593862, Note_on_c, 0, 62, 25
2, 593972, Control_c, 0, 64, 0
2, 594258, Note_on_c, 0, 62, 0
2, 594296, Control_c, 0, 64, 127
2, 594308, Note_on_c, 0, 65, 0
2, 594338, Note_on_c, 0, 58, 0
2, 594348, Note_on_c, 0, 70, 0
2, 594744, Note_on_c, 0, 70, 21
2, 594764, Note_on_c, 0, 62, 14
2, 594768, Note_on_c, 0, 58, 11
2, 594768, Note_on_c, 0, 65, 8
2, 594952, Note_on_c, 0, 62, 0
2, 595022, Note_on_c, 0, 65, 0
2, 595050, Note_on_c, 0, 58, 0
2, 595106, Note_on_c, 0, 70, 0
2, 595132, Note_on_c, 0, 74, 0
2, 595468, Note_on_c, 0, 74, 86
2, 595492, Note_on_c, 0, 70, 24
2, 595504, Note_on_c, 0, 58, 10
2, 595506, Note_on_c, 0, 65, 25
2, 595520, Note_on_c, 0, 62, 26
2, 595672, Note_on_c, 0, 62, 0
2, 595774, Note_on_c, 0, 58, 0
2, 595804, Note_on_c, 0, 65, 0
2, 595836, Note_on_c, 0, 70, 0
2, 596230, Note_on_c, 0, 70, 24
2, 596246, Note_on_c, 0, 58, 12
2, 596250, Note_on_c, 0, 62, 24
2, 596260, Note_on_c, 0, 65, 18
2, 596434, Note_on_c, 0, 62, 0
2, 596470, Note_on_c, 0, 65, 0
2, 596498, Note_on_c, 0, 58, 0
2, 596520, Note_on_c, 0, 70, 0
2, 596936, Note_on_c, 0, 70, 19
2, 596954, Note_on_c, 0, 58, 11
2, 596954, Note_on_c, 0, 65, 13
2, 596968, Note_on_c, 0, 62, 21
2, 597144, Note_on_c, 0, 62, 0
2, 597224, Note_on_c, 0, 65, 0
2, 597238, Note_on_c, 0, 58, 0
2, 597296, Note_on_c, 0, 70, 0
2, 597618, Note_on_c, 0, 70, 17
2, 597646, Note_on_c, 0, 62, 17
2, 597646, Note_on_c, 0, 65, 13
2, 597652, Note_on_c, 0, 58, 9
2, 597826, Note_on_c, 0, 65, 0
2, 597828, Note_on_c, 0, 62, 0
2, 597922, Note_on_c, 0, 70, 0
2, 597936, Note_on_c, 0, 58, 0
2, 598088, Note_on_c, 0, 74, 0
2, 598332, Note_on_c, 0, 77, 86
2, 598380, Note_on_c, 0, 70, 12
2, 598380, Note_on_c, 0, 67, 23
2, 598383, Note_on_c, 0, 63, 28
2, 598394, Note_on_c, 0, 60, 17
2, 598394, Note_on_c, 0, 58, 12
2, 598552, Control_c, 0, 64, 0
2, 598676, Control_c, 0, 64, 127
2, 598816, Note_on_c, 0, 75, 82
2, 598860, Note_on_c, 0, 58, 0
2, 598862, Note_on_c, 0, 63, 0
2, 598882, Note_on_c, 0, 77, 0
2, 598884, Note_on_c, 0, 60, 0
2, 598906, Note_on_c, 0, 67, 0
2, 598986, Note_on_c, 0, 70, 0
2, 599018, Note_on_c, 0, 75, 0
2, 599164, Note_on_c, 0, 75, 79
2, 599186, Note_on_c, 0, 60, 24
2, 599187, Note_on_c, 0, 58, 12
2, 599190, Note_on_c, 0, 63, 31
2, 599198, Note_on_c, 0, 70, 20
2, 599206, Note_on_c, 0, 67, 32
2, 599401, Note_on_c, 0, 58, 0
2, 599440, Note_on_c, 0, 63, 0
2, 599460, Note_on_c, 0, 60, 0
2, 599512, Note_on_c, 0, 74, 90
2, 599526, Note_on_c, 0, 75, 0
2, 599626, Note_on_c, 0, 67, 0
2, 599640, Note_on_c, 0, 70, 0
2, 599646, Note_on_c, 0, 74, 0
2, 599860, Note_on_c, 0, 63, 16
2, 599860, Note_on_c, 0, 58, 6
2, 599860, Note_on_c, 0, 60, 26
2, 599906, Note_on_c, 0, 70, 21
2, 599906, Note_on_c, 0, 74, 55
2, 599914, Note_on_c, 0, 67, 33
2, 600088, Note_on_c, 0, 75, 55
2, 600124, Note_on_c, 0, 74, 0
2, 600230, Note_on_c, 0, 75, 0
2, 600242, Note_on_c, 0, 77, 62
2, 600304, Control_c, 0, 64, 0
2, 600392, Note_on_c, 0, 75, 50
2, 600410, Note_on_c, 0, 77, 0
2, 600460, Note_on_c, 0, 63, 0
2, 600472, Control_c, 0, 64, 127
2, 600476, Note_on_c, 0, 67, 0
2, 600478, Note_on_c, 0, 58, 0
2, 600480, Note_on_c, 0, 60, 0
2, 600490, Note_on_c, 0, 70, 0
2, 600660, Note_on_c, 0, 70, 26
2, 600690, Note_on_c, 0, 67, 21
2, 600694, Note_on_c, 0, 63, 17
2, 600699, Note_on_c, 0, 58, 6
2, 600702, Note_on_c, 0, 60, 21
2, 600837, Note_on_c, 0, 58, 0
2, 600894, Note_on_c, 0, 60, 0
2, 600926, Note_on_c, 0, 63, 0
2, 600968, Note_on_c, 0, 67, 0
2, 601000, Note_on_c, 0, 70, 0
2, 601422, Note_on_c, 0, 63, 21
2, 601422, Note_on_c, 0, 70, 23
2, 601426, Note_on_c, 0, 67, 14
2, 601430, Note_on_c, 0, 58, 9
2, 601432, Note_on_c, 0, 60, 13
2, 601600, Note_on_c, 0, 63, 0
2, 601624, Note_on_c, 0, 67, 0
2, 601627, Note_on_c, 0, 60, 0
2, 601650, Note_on_c, 0, 58, 0
2, 601676, Note_on_c, 0, 70, 0
2, 602140, Note_on_c, 0, 70, 23
2, 602140, Note_on_c, 0, 63, 19
2, 602146, Note_on_c, 0, 67, 23
2, 602152, Note_on_c, 0, 58, 11
2, 602152, Note_on_c, 0, 60, 21
2, 602306, Note_on_c, 0, 63, 0
2, 602310, Note_on_c, 0, 60, 0
2, 602350, Note_on_c, 0, 67, 0
2, 602376, Note_on_c, 0, 70, 0
2, 602378, Note_on_c, 0, 58, 0
2, 602866, Note_on_c, 0, 69, 18
2, 602872, Note_on_c, 0, 63, 19
2, 602876, Note_on_c, 0, 60, 16
2, 602882, Note_on_c, 0, 65, 20
2, 602886, Note_on_c, 0, 58, 14
2, 602946, Control_c, 0, 64, 0
2, 603020, Note_on_c, 0, 75, 0
2, 603224, Control_c, 0, 64, 127
2, 603232, Note_on_c, 0, 63, 0
2, 603242, Note_on_c, 0, 60, 0
2, 603270, Note_on_c, 0, 58, 0
2, 603273, Note_on_c, 0, 65, 0
2, 603314, Note_on_c, 0, 69, 0
2, 603566, Note_on_c, 0, 69, 35
2, 603569, Note_on_c, 0, 65, 33
2, 603582, Note_on_c, 0, 60, 23
2, 603592, Note_on_c, 0, 63, 34
2, 603612, Note_on_c, 0, 58, 13
2, 603676, Note_on_c, 0, 63, 0
2, 603700, Note_on_c, 0, 65, 0
2, 603776, Note_on_c, 0, 60, 0
2, 603814, Note_on_c, 0, 69, 0
2, 603838, Note_on_c, 0, 58, 0
2, 604278, Note_on_c, 0, 77, 95
2, 604316, Note_on_c, 0, 69, 29
2, 604322, Note_on_c, 0, 65, 26
2, 604326, Note_on_c, 0, 60, 25
2, 604330, Note_on_c, 0, 63, 19
2, 604331, Note_on_c, 0, 58, 12
2, 604536, Note_on_c, 0, 63, 0
2, 604556, Note_on_c, 0, 60, 0
2, 604634, Note_on_c, 0, 58, 0
2, 604696, Note_on_c, 0, 69, 0
2, 604696, Note_on_c, 0, 65, 0
2, 605024, Note_on_c, 0, 69, 37
2, 605028, Note_on_c, 0, 63, 19
2, 605028, Note_on_c, 0, 65, 28
2, 605046, Note_on_c, 0, 60, 27
2, 605050, Note_on_c, 0, 58, 5
2, 605244, Note_on_c, 0, 63, 0
2, 605290, Note_on_c, 0, 60, 0
2, 605320, Note_on_c, 0, 58, 0
2, 605322, Note_on_c, 0, 65, 0
2, 605406, Note_on_c, 0, 69, 0
2, 605716, Note_on_c, 0, 65, 27
2, 605722, Note_on_c, 0, 69, 21
2, 605728, Note_on_c, 0, 63, 27
2, 605738, Note_on_c, 0, 60, 12
2, 605750, Note_on_c, 0, 58, 2
2, 605870, Note_on_c, 0, 63, 0
2, 605902, Note_on_c, 0, 65, 0
2, 605932, Note_on_c, 0, 60, 0
2, 605960, Note_on_c, 0, 58, 0
2, 606078, Note_on_c, 0, 69, 0
2, 606252, Note_on_c, 0, 77, 0
2, 606418, Note_on_c, 0, 72, 78
2, 606440, Note_on_c, 0, 69, 19
2, 606445, Note_on_c, 0, 65, 29
2, 606446, Note_on_c, 0, 63, 25
2, 606452, Note_on_c, 0, 58, 21
2, 606452, Note_on_c, 0, 60, 23
2, 606642, Note_on_c, 0, 63, 0
2, 606733, Note_on_c, 0, 65, 0
2, 606740, Note_on_c, 0, 60, 0
2, 606798, Note_on_c, 0, 58, 0
2, 606824, Note_on_c, 0, 69, 0
2, 606954, Note_on_c, 0, 72, 0
2, 607168, Note_on_c, 0, 75, 60
2, 607190, Note_on_c, 0, 58, 19
2, 607198, Note_on_c, 0, 70, 23
2, 607206, Note_on_c, 0, 62, 25
2, 607210, Note_on_c, 0, 65, 18
2, 607418, Control_c, 0, 64, 0
2, 607574, Note_on_c, 0, 74, 65
2, 607602, Control_c, 0, 64, 127
2, 607624, Note_on_c, 0, 75, 0
2, 607644, Note_on_c, 0, 62, 0
2, 607702, Note_on_c, 0, 58, 0
2, 607738, Note_on_c, 0, 65, 0
2, 607750, Note_on_c, 0, 74, 0
2, 607764, Note_on_c, 0, 70, 0
2, 607954, Note_on_c, 0, 58, 24
2, 607956, Note_on_c, 0, 74, 64
2, 607968, Note_on_c, 0, 65, 33
2, 607971, Note_on_c, 0, 62, 33
2, 607975, Note_on_c, 0, 70, 27
2, 608268, Note_on_c, 0, 62, 0
2, 608300, Note_on_c, 0, 72, 67
2, 608312, Note_on_c, 0, 58, 0
2, 608318, Note_on_c, 0, 74, 0
2, 608428, Note_on_c, 0, 65, 0
2, 608442, Note_on_c, 0, 72, 0
2, 608476, Note_on_c, 0, 70, 0
2, 608716, Note_on_c, 0, 65, 21
2, 608716, Note_on_c, 0, 57, 20
2, 608718, Note_on_c, 0, 72, 47
2, 608721, Note_on_c, 0, 70, 18
2, 608722, Note_on_c, 0, 62, 13
2, 608724, Note_on_c, 0, 58, 14
2, 608940, Note_on_c, 0, 74, 54
2, 608958, Note_on_c, 0, 72, 0
2, 609062, Control_c, 0, 64, 0
2, 609118, Note_on_c, 0, 74, 0
2, 609124, Note_on_c, 0, 75, 52
2, 609214, Control_c, 0, 64, 127
2, 609268, Note_on_c, 0, 62, 0
2, 609273, Note_on_c, 0, 57, 0
2, 609286, Note_on_c, 0, 58, 0
2, 609306, Note_on_c, 0, 74, 62
2, 609320, Note_on_c, 0, 75, 0
2, 609386, Note_on_c, 0, 65, 0
2, 609388, Note_on_c, 0, 70, 0
2, 609572, Note_on_c, 0, 70, 25
2, 609586, Note_on_c, 0, 65, 24
2, 609594, Note_on_c, 0, 62, 28
2, 609606, Note_on_c, 0, 57, 23
2, 609610, Note_on_c, 0, 58, 11
2, 609676, Control_c, 0, 64, 0
2, 609906, Control_c, 0, 64, 127
2, 609940, Note_on_c, 0, 62, 0
2, 609956, Note_on_c, 0, 58, 0
2, 609959, Note_on_c, 0, 65, 0
2, 609982, Note_on_c, 0, 57, 0
2, 610026, Note_on_c, 0, 70, 0
2, 610314, Note_on_c, 0, 63, 37
2, 610322, Note_on_c, 0, 58, 20
2, 610326, Note_on_c, 0, 55, 32
2, 610334, Note_on_c, 0, 62, 29
2, 610336, Note_on_c, 0, 70, 26
2, 610398, Control_c, 0, 64, 0
2, 610612, Control_c, 0, 64, 127
2, 610780, Note_on_c, 0, 62, 0
2, 610805, Note_on_c, 0, 55, 0
2, 610822, Note_on_c, 0, 63, 0
2, 610850, Note_on_c, 0, 58, 0
2, 610862, Note_on_c, 0, 75, 80
2, 610946, Note_on_c, 0, 74, 0
2, 611060, Note_on_c, 0, 70, 0
2, 611232, Note_on_c, 0, 58, 23
2, 611235, Note_on_c, 0, 63, 52
2, 611235, Note_on_c, 0, 55, 27
2, 611244, Note_on_c, 0, 62, 37
2, 611501, Note_on_c, 0, 55, 0
2, 611522, Note_on_c, 0, 62, 0
2, 611594, Note_on_c, 0, 70, 78
2, 611636, Note_on_c, 0, 63, 0
2, 611644, Note_on_c, 0, 58, 0
2, 611682, Note_on_c, 0, 75, 0
2, 611908, Note_on_c, 0, 70, 0
2, 612014, Note_on_c, 0, 74, 81
2, 612024, Note_on_c, 0, 63, 40
2, 612030, Note_on_c, 0, 60, 25
2, 612040, Note_on_c, 0, 57, 11
2, 612046, Note_on_c, 0, 69, 29
2, 612056, Note_on_c, 0, 55, 27
2, 612150, Control_c, 0, 64, 0
2, 612350, Control_c, 0, 64, 127
2, 612418, Note_on_c, 0, 72, 72
2, 612472, Note_on_c, 0, 74, 0
2, 612478, Note_on_c, 0, 60, 0
2, 612484, Note_on_c, 0, 57, 0
2, 612486, Note_on_c, 0, 55, 0
2, 612566, Note_on_c, 0, 63, 0
2, 612572, Note_on_c, 0, 69, 0
2, 612602, Note_on_c, 0, 72, 0
2, 612762, Note_on_c, 0, 63, 72
2, 612764, Note_on_c, 0, 72, 74
2, 612778, Note_on_c, 0, 55, 42
2, 612780, Note_on_c, 0, 57, 37
2, 612780, Note_on_c, 0, 69, 39
2, 612782, Note_on_c, 0, 60, 36
2, 613072, Note_on_c, 0, 60, 0
2, 613075, Note_on_c, 0, 57, 0
2, 613116, Note_on_c, 0, 74, 92
2, 613144, Note_on_c, 0, 55, 0
2, 613202, Note_on_c, 0, 72, 0
2, 613232, Note_on_c, 0, 69, 0
2, 613276, Note_on_c, 0, 74, 0
2, 613310, Note_on_c, 0, 63, 0
2, 613442, Note_on_c, 0, 74, 78
2, 613458, Note_on_c, 0, 62, 48
2, 613460, Note_on_c, 0, 57, 27
2, 613460, Note_on_c, 0, 60, 39
2, 613463, Note_on_c, 0, 53, 49
2, 613610, Control_c, 0, 64, 0
2, 613788, Note_on_c, 0, 69, 79
2, 613793, Control_c, 0, 64, 127
2, 613848, Note_on_c, 0, 74, 0
2, 613914, Note_on_c, 0, 60, 0
2, 613917, Note_on_c, 0, 57, 0
2, 613926, Note_on_c, 0, 62, 0
2, 613951, Note_on_c, 0, 53, 0
2, 613986, Note_on_c, 0, 69, 0
2, 614126, Note_on_c, 0, 69, 83
2, 614134, Note_on_c, 0, 62, 74
2, 614140, Note_on_c, 0, 60, 57
2, 614146, Note_on_c, 0, 57, 42
2, 614154, Note_on_c, 0, 53, 69
2, 614466, Note_on_c, 0, 72, 88
2, 614480, Note_on_c, 0, 57, 0
2, 614526, Note_on_c, 0, 53, 0
2, 614642, Note_on_c, 0, 62, 0
2, 614654, Note_on_c, 0, 72, 0
2, 614657, Note_on_c, 0, 60, 0
2, 614682, Note_on_c, 0, 69, 0
2, 614794, Note_on_c, 0, 72, 98
2, 614802, Note_on_c, 0, 62, 70
2, 614802, Note_on_c, 0, 58, 35
2, 614816, Note_on_c, 0, 67, 44
2, 614824, Note_on_c, 0, 53, 64
2, 614844, Note_on_c, 0, 55, 18
2, 614992, Control_c, 0, 64, 0
2, 615202, Note_on_c, 0, 70, 81
2, 615222, Control_c, 0, 64, 127
2, 615290, Note_on_c, 0, 72, 0
2, 615340, Note_on_c, 0, 67, 0
2, 615356, Note_on_c, 0, 58, 0
2, 615359, Note_on_c, 0, 53, 0
2, 615359, Note_on_c, 0, 62, 0
2, 615366, Note_on_c, 0, 55, 0
2, 615408, Note_on_c, 0, 70, 0
2, 615546, Note_on_c, 0, 70, 83
2, 615554, Note_on_c, 0, 67, 55
2, 615554, Note_on_c, 0, 62, 65
2, 615566, Note_on_c, 0, 55, 39
2, 615574, Note_on_c, 0, 58, 32
2, 615574, Note_on_c, 0, 53, 55
2, 615928, Note_on_c, 0, 72, 75
2, 615980, Note_on_c, 0, 67, 0
2, 615984, Note_on_c, 0, 70, 0
2, 615992, Note_on_c, 0, 55, 0
2, 616030, Note_on_c, 0, 58, 0
2, 616096, Note_on_c, 0, 62, 0
2, 616126, Note_on_c, 0, 72, 0
2, 616146, Note_on_c, 0, 53, 0
2, 616278, Note_on_c, 0, 72, 69
2, 616292, Note_on_c, 0, 60, 54
2, 616306, Note_on_c, 0, 55, 42
2, 616306, Note_on_c, 0, 58, 21
2, 616313, Note_on_c, 0, 51, 29
2, 616482, Control_c, 0, 64, 0
2, 616612, Note_on_c, 0, 67, 77
2, 616652, Control_c, 0, 64, 127
2, 616698, Note_on_c, 0, 55, 0
2, 616714, Note_on_c, 0, 58, 0
2, 616749, Note_on_c, 0, 51, 0
2, 616754, Note_on_c, 0, 72, 0
2, 616802, Note_on_c, 0, 60, 0
2, 616820, Note_on_c, 0, 67, 0
2, 616964, Note_on_c, 0, 67, 92
2, 616972, Note_on_c, 0, 60, 57
2, 616998, Note_on_c, 0, 58, 28
2, 617008, Note_on_c, 0, 55, 42
2, 617012, Note_on_c, 0, 51, 21
2, 617318, Note_on_c, 0, 70, 82
2, 617388, Note_on_c, 0, 67, 0
2, 617402, Note_on_c, 0, 55, 0
2, 617474, Note_on_c, 0, 60, 0
2, 617522, Note_on_c, 0, 51, 0
2, 617544, Note_on_c, 0, 58, 0
2, 617562, Note_on_c, 0, 70, 0
2, 617694, Note_on_c, 0, 70, 95
2, 617712, Note_on_c, 0, 51, 33
2, 617714, Note_on_c, 0, 60, 59
2, 617724, Note_on_c, 0, 57, 27
2, 617738, Note_on_c, 0, 53, 58
2, 617762, Note_on_c, 0, 65, 10
2, 617912, Control_c, 0, 64, 0
2, 618066, Control_c, 0, 64, 127
2, 618078, Note_on_c, 0, 69, 86
2, 618094, Note_on_c, 0, 53, 0
2, 618118, Note_on_c, 0, 60, 0
2, 618121, Note_on_c, 0, 65, 0
2, 618148, Note_on_c, 0, 57, 0
2, 618160, Note_on_c, 0, 51, 0
2, 618216, Note_on_c, 0, 70, 0
2, 618276, Note_on_c, 0, 69, 0
2, 618416, Note_on_c, 0, 69, 89
2, 618442, Note_on_c, 0, 60, 49
2, 618445, Note_on_c, 0, 57, 39
2, 618456, Note_on_c, 0, 53, 49
2, 618482, Note_on_c, 0, 51, 32
2, 618572, Control_c, 0, 64, 0
2, 618710, Control_c, 0, 64, 127
2, 618746, Note_on_c, 0, 53, 0
2, 618774, Note_on_c, 0, 65, 92
2, 618850, Note_on_c, 0, 69, 0
2, 618852, Note_on_c, 0, 65, 0
2, 618880, Note_on_c, 0, 57, 0
2, 618938, Note_on_c, 0, 60, 0
2, 618990, Note_on_c, 0, 65, 89
2, 618996, Note_on_c, 0, 51, 0
2, 619234, Note_on_c, 0, 58, 35
2, 619246, Note_on_c, 0, 50, 42
2, 619332, Note_on_c, 0, 77, 100
2, 619386, Control_c, 0, 64, 0
2, 619770, Control_c, 0, 64, 127
2, 619836, Note_on_c, 0, 65, 0
2, 619868, Note_on_c, 0, 58, 0
2, 619900, Note_on_c, 0, 50, 0
2, 620152, Note_on_c, 0, 65, 39
2, 620158, Note_on_c, 0, 58, 32
2, 620168, Note_on_c, 0, 50, 32
2, 620460, Note_on_c, 0, 50, 0
2, 620512, Note_on_c, 0, 65, 0
2, 620582, Note_on_c, 0, 58, 0
2, 620902, Note_on_c, 0, 58, 16
2, 620902, Note_on_c, 0, 65, 29
2, 620914, Note_on_c, 0, 50, 25
2, 621332, Note_on_c, 0, 58, 0
2, 621350, Note_on_c, 0, 75, 51
2, 621416, Note_on_c, 0, 50, 0
2, 621504, Note_on_c, 0, 65, 0
2, 621544, Note_on_c, 0, 77, 0
2, 621576, Note_on_c, 0, 75, 0
2, 621754, Note_on_c, 0, 75, 50
2, 621778, Note_on_c, 0, 67, 33
2, 621778, Note_on_c, 0, 58, 9
2, 621790, Note_on_c, 0, 51, 27
2, 621890, Control_c, 0, 64, 0
2, 622168, Control_c, 0, 64, 127
2, 622182, Note_on_c, 0, 72, 51
2, 622264, Note_on_c, 0, 75, 0
2, 622330, Note_on_c, 0, 58, 0
2, 622360, Note_on_c, 0, 67, 0
2, 622360, Note_on_c, 0, 51, 0
2, 622374, Note_on_c, 0, 72, 0
2, 622534, Note_on_c, 0, 72, 72
2, 622554, Note_on_c, 0, 65, 41
2, 622558, Note_on_c, 0, 57, 33
2, 622562, Note_on_c, 0, 53, 63
2, 622892, Note_on_c, 0, 75, 88
2, 623074, Note_on_c, 0, 57, 0
2, 623100, Note_on_c, 0, 65, 0
2, 623140, Note_on_c, 0, 72, 0
2, 623146, Note_on_c, 0, 75, 0
2, 623212, Note_on_c, 0, 53, 0
2, 623234, Note_on_c, 0, 75, 78
2, 623246, Note_on_c, 0, 58, 52
2, 623254, Note_on_c, 0, 67, 72
2, 623256, Note_on_c, 0, 51, 54
2, 623458, Control_c, 0, 64, 0
2, 623612, Control_c, 0, 64, 127
2, 623674, Note_on_c, 0, 77, 87
2, 623714, Note_on_c, 0, 58, 0
2, 623732, Note_on_c, 0, 67, 0
2, 623796, Note_on_c, 0, 75, 0
2, 623826, Note_on_c, 0, 77, 0
2, 623942, Note_on_c, 0, 51, 0
2, 623950, Note_on_c, 0, 65, 70
2, 624138, Note_on_c, 0, 58, 21
2, 624158, Note_on_c, 0, 50, 35
2, 624202, Note_on_c, 0, 77, 100
2, 624318, Control_c, 0, 64, 0
2, 624700, Note_on_c, 0, 58, 0
2, 624703, Control_c, 0, 64, 127
2, 624718, Note_on_c, 0, 65, 0
2, 624736, Note_on_c, 0, 50, 0
2, 624996, Note_on_c, 0, 65, 26
2, 625001, Note_on_c, 0, 58, 14
2, 625028, Note_on_c, 0, 50, 31
2, 625250, Note_on_c, 0, 58, 0
2, 625256, Note_on_c, 0, 50, 0
2, 625338, Note_on_c, 0, 65, 0
2, 625756, Note_on_c, 0, 58, 8
2, 625758, Note_on_c, 0, 65, 20
2, 625776, Note_on_c, 0, 50, 26
2, 626064, Note_on_c, 0, 58, 0
2, 626122, Note_on_c, 0, 50, 0
2, 626162, Note_on_c, 0, 75, 50
2, 626182, Note_on_c, 0, 65, 0
2, 626252, Note_on_c, 0, 77, 0
2, 626316, Note_on_c, 0, 75, 0
2, 626548, Note_on_c, 0, 75, 49
2, 626598, Note_on_c, 0, 67, 23
2, 626608, Note_on_c, 0, 51, 31
2, 626617, Note_on_c, 0, 58, 10
2, 626670, Control_c, 0, 64, 0
2, 626914, Control_c, 0, 64, 127
2, 626934, Note_on_c, 0, 72, 55
2, 627004, Note_on_c, 0, 75, 0
2, 627073, Note_on_c, 0, 58, 0
2, 627102, Note_on_c, 0, 51, 0
2, 627116, Note_on_c, 0, 67, 0
2, 627119, Note_on_c, 0, 72, 0
2, 627288, Note_on_c, 0, 72, 62
2, 627304, Note_on_c, 0, 65, 42
2, 627306, Note_on_c, 0, 53, 70
2, 627318, Note_on_c, 0, 57, 25
2, 627546, Control_c, 0, 64, 0
2, 627650, Note_on_c, 0, 75, 86
2, 627730, Control_c, 0, 64, 127
2, 627738, Note_on_c, 0, 57, 0
2, 627790, Note_on_c, 0, 65, 0
2, 627824, Note_on_c, 0, 72, 0
2, 627854, Note_on_c, 0, 75, 0
2, 627944, Note_on_c, 0, 53, 0
2, 627988, Note_on_c, 0, 75, 92
2, 628002, Note_on_c, 0, 58, 32
2, 628004, Note_on_c, 0, 67, 63
2, 628016, Note_on_c, 0, 51, 47
2, 628206, Control_c, 0, 64, 0
2, 628348, Note_on_c, 0, 77, 94
2, 628360, Control_c, 0, 64, 127
2, 628374, Note_on_c, 0, 58, 0
2, 628414, Note_on_c, 0, 75, 0
2, 628500, Note_on_c, 0, 67, 0
2, 628550, Note_on_c, 0, 77, 0
2, 628696, Note_on_c, 0, 77, 104
2, 628706, Note_on_c, 0, 58, 33
2, 628710, Note_on_c, 0, 65, 60
2, 628726, Note_on_c, 0, 51, 0
2, 628740, Note_on_c, 0, 50, 42
2, 628882, Control_c, 0, 64, 0
2, 629128, Control_c, 0, 64, 127
2, 629140, Note_on_c, 0, 72, 89
2, 629212, Note_on_c, 0, 77, 0
2, 629274, Note_on_c, 0, 50, 0
2, 629290, Note_on_c, 0, 58, 0
2, 629332, Note_on_c, 0, 65, 0
2, 629352, Note_on_c, 0, 72, 0
2, 629494, Note_on_c, 0, 72, 94
2, 629506, Note_on_c, 0, 57, 47
2, 629522, Note_on_c, 0, 65, 47
2, 629525, Note_on_c, 0, 53, 72
2, 629574, Control_c, 0, 64, 0
2, 629742, Control_c, 0, 64, 127
2, 629802, Note_on_c, 0, 65, 0
2, 629834, Note_on_c, 0, 79, 108
2, 629882, Note_on_c, 0, 53, 0
2, 629884, Note_on_c, 0, 57, 0
2, 629964, Note_on_c, 0, 72, 0
2, 630030, Note_on_c, 0, 79, 0
2, 630170, Note_on_c, 0, 79, 109
2, 630184, Note_on_c, 0, 67, 64
2, 630188, Note_on_c, 0, 58, 48
2, 630194, Note_on_c, 0, 51, 63
2, 630450, Control_c, 0, 64, 0
2, 630534, Note_on_c, 0, 74, 100
2, 630602, Note_on_c, 0, 79, 0
2, 630664, Control_c, 0, 64, 127
2, 630678, Note_on_c, 0, 58, 0
2, 630708, Note_on_c, 0, 67, 0
2, 630758, Note_on_c, 0, 74, 0
2, 630900, Note_on_c, 0, 51, 0
2, 630902, Note_on_c, 0, 74, 89
2, 630904, Note_on_c, 0, 58, 33
2, 630906, Note_on_c, 0, 67, 60
2, 630919, Note_on_c, 0, 55, 32
2, 631064, Control_c, 0, 64, 0
2, 631290, Note_on_c, 0, 77, 77
2, 631294, Control_c, 0, 64, 127
2, 631302, Note_on_c, 0, 74, 0
2, 631418, Note_on_c, 0, 58, 0
2, 631470, Note_on_c, 0, 67, 0
2, 631500, Note_on_c, 0, 77, 0
2, 631605, Note_on_c, 0, 55, 0
2, 631658, Note_on_c, 0, 77, 81
2, 631661, Note_on_c, 0, 58, 25
2, 631664, Note_on_c, 0, 65, 43
2, 631692, Note_on_c, 0, 50, 14
2, 631770, Control_c, 0, 64, 0
2, 632014, Note_on_c, 0, 72, 64
2, 632048, Control_c, 0, 64, 127
2, 632104, Note_on_c, 0, 77, 0
2, 632194, Note_on_c, 0, 65, 0
2, 632202, Note_on_c, 0, 72, 0
2, 632232, Note_on_c, 0, 50, 0
2, 632268, Note_on_c, 0, 58, 0
2, 632358, Note_on_c, 0, 72, 63
2, 632372, Note_on_c, 0, 65, 33
2, 632394, Note_on_c, 0, 57, 18
2, 632397, Note_on_c, 0, 53, 55
2, 632462, Control_c, 0, 64, 0
2, 632638, Note_on_c, 0, 65, 0
2, 632647, Control_c, 0, 64, 127
2, 632702, Note_on_c, 0, 79, 77
2, 632770, Note_on_c, 0, 57, 0
2, 632833, Note_on_c, 0, 53, 0
2, 632896, Note_on_c, 0, 72, 0
2, 632902, Note_on_c, 0, 79, 0
2, 633070, Note_on_c, 0, 79, 72
2, 633082, Note_on_c, 0, 67, 33
2, 633086, Note_on_c, 0, 58, 16
2, 633106, Note_on_c, 0, 51, 36
2, 633184, Control_c, 0, 64, 0
2, 633430, Control_c, 0, 64, 127
2, 633456, Note_on_c, 0, 74, 62
2, 633478, Note_on_c, 0, 79, 0
2, 633522, Note_on_c, 0, 58, 0
2, 633554, Note_on_c, 0, 67, 0
2, 633620, Note_on_c, 0, 74, 0
2, 633846, Note_on_c, 0, 74, 59
2, 633856, Note_on_c, 0, 58, 17
2, 633858, Note_on_c, 0, 67, 33
2, 633884, Note_on_c, 0, 51, 0
2, 633890, Note_on_c, 0, 55, 26
2, 634220, Note_on_c, 0, 77, 85
2, 634282, Note_on_c, 0, 74, 0
2, 634294, Note_on_c, 0, 58, 0
2, 634440, Note_on_c, 0, 67, 0
2, 634458, Note_on_c, 0, 77, 0
2, 634590, Note_on_c, 0, 77, 95
2, 634598, Note_on_c, 0, 65, 65
2, 634608, Note_on_c, 0, 58, 26
2, 634630, Note_on_c, 0, 50, 32
2, 634648, Note_on_c, 0, 55, 0
2, 634844, Control_c, 0, 64, 0
2, 634944, Note_on_c, 0, 70, 75
2, 634998, Control_c, 0, 64, 127
2, 635052, Note_on_c, 0, 77, 0
2, 635058, Note_on_c, 0, 58, 0
2, 635144, Note_on_c, 0, 65, 0
2, 635180, Note_on_c, 0, 70, 0
2, 635296, Note_on_c, 0, 70, 82
2, 635314, Note_on_c, 0, 64, 80
2, 635314, Note_on_c, 0, 58, 34
2, 635334, Note_on_c, 0, 55, 37
2, 635414, Note_on_c, 0, 50, 0
2, 635704, Note_on_c, 0, 72, 93
2, 635858, Control_c, 0, 64, 0
2, 635966, Control_c, 0, 64, 127
2, 636002, Note_on_c, 0, 64, 0
2, 636016, Note_on_c, 0, 70, 0
2, 636040, Note_on_c, 0, 72, 0
2, 636130, Note_on_c, 0, 55, 0
2, 636133, Note_on_c, 0, 72, 82
2, 636154, Note_on_c, 0, 70, 60
2, 636160, Note_on_c, 0, 65, 63
2, 636168, Note_on_c, 0, 60, 49
2, 636194, Note_on_c, 0, 58, 0
2, 636194, Note_on_c, 0, 53, 65
2, 636458, Control_c, 0, 64, 0
2, 636672, Control_c, 0, 64, 127
2, 636678, Note_on_c, 0, 70, 0
2, 636814, Note_on_c, 0, 60, 0
2, 636816, Note_on_c, 0, 53, 0
2, 636832, Note_on_c, 0, 65, 0
2, 636940, Note_on_c, 0, 70, 78
2, 636942, Note_on_c, 0, 60, 37
2, 636944, Note_on_c, 0, 65, 52
2, 636948, Note_on_c, 0, 53, 69
2, 637438, Note_on_c, 0, 60, 0
2, 637470, Note_on_c, 0, 65, 0
2, 637486, Note_on_c, 0, 53, 0
2, 637654, Note_on_c, 0, 69, 83
2, 637664, Note_on_c, 0, 65, 72
2, 637670, Note_on_c, 0, 60, 77
2, 637686, Note_on_c, 0, 53, 93
2, 637730, Note_on_c, 0, 70, 0
2, 637964, Control_c, 0, 64, 0
2, 638116, Control_c, 0, 64, 127
2, 638192, Note_on_c, 0, 69, 0
2, 638244, Note_on_c, 0, 60, 0
2, 638258, Note_on_c, 0, 65, 0
2, 638272, Note_on_c, 0, 53, 0
2, 638418, Note_on_c, 0, 65, 83
2, 638418, Note_on_c, 0, 69, 89
2, 638438, Note_on_c, 0, 60, 92
2, 638448, Note_on_c, 0, 53, 90
2, 638476, Note_on_c, 0, 65, 0
2, 638504, Note_on_c, 0, 72, 0
2, 638522, Note_on_c, 0, 69, 0
2, 638558, Note_on_c, 0, 60, 0
2, 638604, Note_on_c, 0, 53, 0
2, 638800, Note_on_c, 0, 79, 118
2, 638986, Note_on_c, 0, 39, 101
2, 639038, Control_c, 0, 64, 0
2, 639224, Control_c, 0, 64, 127
2, 639232, Note_on_c, 0, 39, 0
2, 639276, Note_on_c, 0, 79, 0
2, 639360, Note_on_c, 0, 79, 110
2, 639372, Note_on_c, 0, 58, 86
2, 639378, Note_on_c, 0, 67, 95
2, 639380, Note_on_c, 0, 51, 82
2, 639434, Note_on_c, 0, 51, 0
2, 639460, Note_on_c, 0, 58, 0
2, 639582, Note_on_c, 0, 67, 0
2, 640134, Note_on_c, 0, 70, 74
2, 640134, Note_on_c, 0, 67, 72
2, 640137, Note_on_c, 0, 58, 46
2, 640146, Note_on_c, 0, 63, 63
2, 640574, Note_on_c, 0, 70, 0
2, 640656, Note_on_c, 0, 67, 0
2, 640742, Note_on_c, 0, 63, 0
2, 640742, Note_on_c, 0, 58, 0
2, 640808, Note_on_c, 0, 58, 23
2, 640814, Note_on_c, 0, 63, 78
2, 640816, Note_on_c, 0, 70, 80
2, 640819, Note_on_c, 0, 67, 85
2, 641070, Note_on_c, 0, 70, 0
2, 641144, Note_on_c, 0, 82, 104
2, 641156, Note_on_c, 0, 63, 0
2, 641159, Note_on_c, 0, 67, 0
2, 641178, Note_on_c, 0, 79, 0
2, 641380, Note_on_c, 0, 82, 0
2, 641460, Note_on_c, 0, 58, 0
2, 641562, Note_on_c, 0, 82, 108
2, 641576, Note_on_c, 0, 70, 101
2, 641579, Note_on_c, 0, 74, 86
2, 641588, Note_on_c, 0, 62, 78
2, 641592, Note_on_c, 0, 63, 40
2, 641902, Note_on_c, 0, 82, 0
2, 641924, Note_on_c, 0, 63, 0
2, 641948, Note_on_c, 0, 81, 111
2, 642106, Note_on_c, 0, 74, 0
2, 642140, Note_on_c, 0, 81, 0
2, 642146, Note_on_c, 0, 70, 0
2, 642198, Note_on_c, 0, 62, 0
2, 642254, Note_on_c, 0, 81, 102
2, 642254, Note_on_c, 0, 63, 75
2, 642254, Note_on_c, 0, 60, 70
2, 642254, Note_on_c, 0, 72, 87
2, 642256, Note_on_c, 0, 69, 92
2, 642602, Note_on_c, 0, 63, 0
2, 642602, Note_on_c, 0, 77, 101
2, 642666, Note_on_c, 0, 81, 0
2, 642696, Note_on_c, 0, 69, 0
2, 642706, Note_on_c, 0, 72, 0
2, 642792, Note_on_c, 0, 77, 0
2, 642888, Note_on_c, 0, 77, 88
2, 642898, Note_on_c, 0, 69, 81
2, 642904, Note_on_c, 0, 65, 98
2, 642907, Note_on_c, 0, 63, 95
2, 642910, Note_on_c, 0, 60, 0
2, 642912, Note_on_c, 0, 57, 72
2, 643194, Note_on_c, 0, 77, 0
2, 643228, Note_on_c, 0, 79, 116
2, 643294, Note_on_c, 0, 69, 0
2, 643318, Note_on_c, 0, 63, 0
2, 643364, Note_on_c, 0, 65, 0
2, 643378, Note_on_c, 0, 79, 0
2, 643514, Note_on_c, 0, 79, 115
2, 643516, Note_on_c, 0, 70, 92
2, 643516, Note_on_c, 0, 58, 78
2, 643522, Note_on_c, 0, 67, 101
2, 643526, Note_on_c, 0, 63, 93
2, 643578, Note_on_c, 0, 57, 0
2, 643648, Control_c, 0, 64, 0
2, 643818, Control_c, 0, 64, 127
2, 643826, Note_on_c, 0, 79, 0
2, 643838, Note_on_c, 0, 81, 112
2, 643894, Note_on_c, 0, 63, 0
2, 643958, Note_on_c, 0, 67, 0
2, 643966, Note_on_c, 0, 70, 0
2, 644016, Note_on_c, 0, 81, 0
2, 644124, Note_on_c, 0, 81, 102
2, 644134, Note_on_c, 0, 69, 95
2, 644137, Note_on_c, 0, 72, 97
2, 644140, Note_on_c, 0, 63, 90
2, 644144, Note_on_c, 0, 60, 81
2, 644220, Note_on_c, 0, 58, 0
2, 644442, Note_on_c, 0, 82, 102
2, 644486, Note_on_c, 0, 81, 0
2, 644528, Note_on_c, 0, 63, 0
2, 644578, Note_on_c, 0, 69, 0
2, 644600, Note_on_c, 0, 72, 0
2, 644668, Note_on_c, 0, 82, 0
2, 644780, Note_on_c, 0, 82, 98
2, 644783, Note_on_c, 0, 70, 96
2, 644790, Note_on_c, 0, 74, 87
2, 644808, Note_on_c, 0, 62, 63
2, 644812, Note_on_c, 0, 63, 65
2, 644834, Note_on_c, 0, 60, 0
2, 645076, Control_c, 0, 64, 0
2, 645190, Note_on_c, 0, 81, 95
2, 645228, Note_on_c, 0, 82, 0
2, 645260, Control_c, 0, 64, 127
2, 645308, Note_on_c, 0, 63, 0
2, 645362, Note_on_c, 0, 74, 0
2, 645370, Note_on_c, 0, 81, 0
2, 645408, Note_on_c, 0, 70, 0
2, 645454, Note_on_c, 0, 62, 0
2, 645514, Note_on_c, 0, 69, 52
2, 645517, Note_on_c, 0, 81, 92
2, 645528, Note_on_c, 0, 72, 60
2, 645530, Note_on_c, 0, 63, 48
2, 645540, Note_on_c, 0, 60, 37
2, 645660, Control_c, 0, 64, 0
2, 645830, Control_c, 0, 64, 127
2, 645868, Note_on_c, 0, 79, 88
2, 645902, Note_on_c, 0, 81, 0
2, 645940, Note_on_c, 0, 69, 0
2, 645948, Note_on_c, 0, 72, 0
2, 645951, Note_on_c, 0, 63, 0
2, 645990, Note_on_c, 0, 79, 0
2, 646070, Note_on_c, 0, 60, 0
2, 646166, Note_on_c, 0, 79, 88
2, 646170, Note_on_c, 0, 70, 57
2, 646180, Note_on_c, 0, 67, 44
2, 646180, Note_on_c, 0, 58, 31
2, 646198, Control_c, 0, 64, 0
2, 646202, Note_on_c, 0, 63, 37
2, 646352, Control_c, 0, 64, 127
2, 646416, Note_on_c, 0, 67, 0
2, 646450, Note_on_c, 0, 63, 0
2, 646453, Note_on_c, 0, 70, 0
2, 646472, Note_on_c, 0, 58, 0
2, 646488, Note_on_c, 0, 72, 83
2, 646526, Note_on_c, 0, 79, 0
2, 646598, Note_on_c, 0, 72, 0
2, 646790, Note_on_c, 0, 72, 101
2, 646804, Note_on_c, 0, 57, 52
2, 646807, Note_on_c, 0, 65, 55
2, 646828, Note_on_c, 0, 51, 34
2, 646982, Control_c, 0, 64, 0
2, 647108, Note_on_c, 0, 77, 104
2, 647120, Control_c, 0, 64, 127
2, 647192, Note_on_c, 0, 72, 0
2, 647224, Note_on_c, 0, 65, 0
2, 647246, Note_on_c, 0, 51, 0
2, 647276, Note_on_c, 0, 77, 0
2, 647448, Note_on_c, 0, 77, 102
2, 647462, Note_on_c, 0, 65, 67
2, 647464, Note_on_c, 0, 57, 0
2, 647468, Note_on_c, 0, 58, 39
2, 647480, Note_on_c, 0, 50, 46
2, 647582, Control_c, 0, 64, 0
2, 647750, Control_c, 0, 64, 127
2, 647814, Note_on_c, 0, 70, 83
2, 647880, Note_on_c, 0, 77, 0
2, 647892, Note_on_c, 0, 58, 0
2, 648014, Note_on_c, 0, 65, 0
2, 648062, Note_on_c, 0, 70, 0
2, 648176, Note_on_c, 0, 70, 87
2, 648184, Note_on_c, 0, 58, 37
2, 648191, Note_on_c, 0, 55, 52
2, 648193, Note_on_c, 0, 64, 64
2, 648326, Note_on_c, 0, 50, 0
2, 648540, Note_on_c, 0, 72, 98
2, 648642, Control_c, 0, 64, 0
2, 648796, Control_c, 0, 64, 127
2, 648853, Note_on_c, 0, 64, 0
2, 648894, Note_on_c, 0, 70, 0
2, 648894, Note_on_c, 0, 72, 0
2, 648973, Note_on_c, 0, 55, 0
2, 648991, Note_on_c, 0, 72, 85
2, 649002, Note_on_c, 0, 70, 46
2, 649022, Note_on_c, 0, 65, 65
2, 649025, Note_on_c, 0, 60, 60
2, 649040, Note_on_c, 0, 53, 67
2, 649066, Note_on_c, 0, 58, 0
2, 649272, Control_c, 0, 64, 0
2, 649486, Control_c, 0, 64, 127
2, 649560, Note_on_c, 0, 70, 0
2, 649566, Note_on_c, 0, 53, 0
2, 649600, Note_on_c, 0, 65, 0
2, 649746, Note_on_c, 0, 70, 72
2, 649746, Note_on_c, 0, 62, 88
2, 649760, Note_on_c, 0, 53, 79
2, 649762, Note_on_c, 0, 65, 66
2, 649850, Note_on_c, 0, 60, 0
2, 650094, Note_on_c, 0, 53, 0
2, 650120, Note_on_c, 0, 65, 0
2, 650252, Note_on_c, 0, 70, 0
2, 650488, Note_on_c, 0, 63, 94
2, 650504, Note_on_c, 0, 65, 37
2, 650506, Note_on_c, 0, 53, 102
2, 650509, Note_on_c, 0, 69, 51
2, 650514, Note_on_c, 0, 62, 0
2, 650870, Control_c, 0, 64, 0
2, 651054, Control_c, 0, 64, 127
2, 651096, Note_on_c, 0, 65, 0
2, 651156, Note_on_c, 0, 63, 0
2, 651180, Note_on_c, 0, 69, 0
2, 651230, Note_on_c, 0, 53, 0
2, 651384, Note_on_c, 0, 63, 73
2, 651385, Note_on_c, 0, 65, 52
2, 651392, Note_on_c, 0, 69, 67
2, 651394, Note_on_c, 0, 53, 106
2, 651460, Note_on_c, 0, 53, 0
2, 651658, Note_on_c, 0, 69, 0
2, 651706, Note_on_c, 0, 63, 0
2, 651707, Note_on_c, 0, 65, 0
2, 651792, Note_on_c, 0, 70, 86
2, 652076, Note_on_c, 0, 34, 105
2, 652330, Note_on_c, 0, 72, 0
2, 652410, Note_on_c, 0, 46, 103
2, 652436, Control_c, 0, 64, 0
2, 652714, Note_on_c, 0, 34, 0
2, 652714, Control_c, 0, 64, 127
2, 652840, Note_on_c, 0, 46, 0
2, 652866, Note_on_c, 0, 70, 0
2, 653130, Note_on_c, 0, 70, 66
2, 653146, Note_on_c, 0, 62, 70
2, 653162, Note_on_c, 0, 65, 54
2, 653596, Note_on_c, 0, 65, 0
2, 653610, Note_on_c, 0, 70, 0
2, 653612, Note_on_c, 0, 62, 0
2, 653848, Note_on_c, 0, 70, 57
2, 653862, Note_on_c, 0, 62, 51
2, 653870, Note_on_c, 0, 65, 42
2, 654144, Note_on_c, 0, 62, 0
2, 654146, Note_on_c, 0, 65, 0
2, 654204, Note_on_c, 0, 70, 0
2, 654530, Note_on_c, 0, 70, 39
2, 654548, Note_on_c, 0, 62, 37
2, 654554, Note_on_c, 0, 65, 33
2, 654814, Note_on_c, 0, 65, 0
2, 654846, Note_on_c, 0, 62, 0
2, 654902, Note_on_c, 0, 70, 0
2, 655226, Note_on_c, 0, 70, 34
2, 655250, Note_on_c, 0, 62, 28
2, 655270, Note_on_c, 0, 65, 19
2, 655598, Note_on_c, 0, 62, 0
2, 655620, Note_on_c, 0, 65, 0
2, 655644, Note_on_c, 0, 70, 0
2, 655922, Note_on_c, 0, 70, 33
2, 655933, Note_on_c, 0, 65, 20
2, 655933, Note_on_c, 0, 62, 27
2, 656506, Note_on_c, 0, 36, 28
2, 656545, Note_on_c, 0, 65, 0
2, 656603, Note_on_c, 0, 62, 0
2, 656708, Note_on_c, 0, 70, 0
2, 656750, Note_on_c, 0, 48, 37
2, 656908, Control_c, 0, 64, 0
2, 657308, Control_c, 0, 64, 127
2, 657508, Note_on_c, 0, 69, 14
2, 657526, Note_on_c, 0, 63, 19
2, 657546, Note_on_c, 0, 60, 16
2, 657758, Note_on_c, 0, 63, 0
2, 657776, Note_on_c, 0, 60, 0
2, 657808, Note_on_c, 0, 69, 0
2, 658158, Note_on_c, 0, 69, 27
2, 658176, Note_on_c, 0, 60, 26
2, 658190, Note_on_c, 0, 63, 32
2, 658298, Note_on_c, 0, 63, 0
2, 658372, Note_on_c, 0, 60, 0
2, 658500, Note_on_c, 0, 69, 0
2, 658818, Note_on_c, 0, 69, 24
2, 658830, Note_on_c, 0, 60, 20
2, 658836, Note_on_c, 0, 63, 23
2, 659036, Note_on_c, 0, 60, 0
2, 659052, Note_on_c, 0, 63, 0
2, 659106, Note_on_c, 0, 69, 0
2, 659486, Note_on_c, 0, 69, 23
2, 659506, Note_on_c, 0, 63, 17
2, 659510, Note_on_c, 0, 60, 6
2, 659656, Note_on_c, 0, 60, 0
2, 659712, Note_on_c, 0, 63, 0
2, 659736, Note_on_c, 0, 69, 0
2, 660258, Note_on_c, 0, 63, 5
2, 660264, Note_on_c, 0, 69, 9
2, 660280, Note_on_c, 0, 60, 4
2, 660366, Note_on_c, 0, 48, 0
2, 660436, Note_on_c, 0, 60, 0
2, 660446, Note_on_c, 0, 36, 0
2, 660486, Note_on_c, 0, 69, 0
2, 660548, Note_on_c, 0, 63, 0
2, 661012, Note_on_c, 0, 66, 52
2, 661030, Note_on_c, 0, 62, 9
2, 661046, Note_on_c, 0, 57, 8
2, 661062, Note_on_c, 0, 50, 12
2, 661082, Note_on_c, 0, 38, 12
2, 661302, Control_c, 0, 64, 0
2, 661381, Note_on_c, 0, 62, 0
2, 661448, Note_on_c, 0, 57, 0
2, 661472, Control_c, 0, 64, 127
2, 661772, Note_on_c, 0, 57, 17
2, 661774, Note_on_c, 0, 62, 18
2, 661930, Note_on_c, 0, 57, 0
2, 661978, Note_on_c, 0, 62, 0
2, 662436, Note_on_c, 0, 57, 19
2, 662441, Note_on_c, 0, 62, 18
2, 662620, Note_on_c, 0, 57, 0
2, 662812, Note_on_c, 0, 64, 55
2, 662828, Note_on_c, 0, 62, 0
2, 662880, Note_on_c, 0, 66, 0
2, 662934, Note_on_c, 0, 64, 0
2, 663008, Note_on_c, 0, 50, 0
2, 663132, Note_on_c, 0, 38, 0
2, 663140, Note_on_c, 0, 64, 75
2, 663156, Note_on_c, 0, 57, 39
2, 663298, Note_on_c, 0, 57, 0
2, 663436, Note_on_c, 0, 64, 0
2, 663464, Note_on_c, 0, 62, 85
2, 663584, Note_on_c, 0, 62, 0
2, 663788, Note_on_c, 0, 64, 70
2, 663798, Note_on_c, 0, 50, 26
2, 663810, Note_on_c, 0, 43, 21
2, 663812, Note_on_c, 0, 58, 20
2, 663868, Control_c, 0, 64, 0
2, 664080, Note_on_c, 0, 66, 49
2, 664084, Control_c, 0, 64, 127
2, 664122, Note_on_c, 0, 64, 0
2, 664204, Note_on_c, 0, 58, 0
2, 664252, Note_on_c, 0, 66, 0
2, 664414, Note_on_c, 0, 66, 52
2, 664418, Note_on_c, 0, 58, 26
2, 664502, Note_on_c, 0, 62, 6
2, 664530, Control_c, 0, 64, 0
2, 664698, Control_c, 0, 64, 127
2, 664802, Note_on_c, 0, 50, 0
2, 664878, Note_on_c, 0, 67, 44
2, 664942, Note_on_c, 0, 66, 0
2, 664960, Control_c, 0, 64, 0
2, 665024, Note_on_c, 0, 43, 0
2, 665044, Note_on_c, 0, 38, 29
2, 665082, Control_c, 0, 64, 127
2, 665168, Note_on_c, 0, 50, 90
2, 665220, Note_on_c, 0, 62, 0
2, 665392, Note_on_c, 0, 58, 0
2, 665678, Note_on_c, 0, 38, 0
2, 665806, Note_on_c, 0, 66, 41
2, 665824, Note_on_c, 0, 67, 0
2, 665834, Note_on_c, 0, 57, 21
2, 665837, Note_on_c, 0, 62, 33
2, 665928, Control_c, 0, 64, 0
2, 666174, Note_on_c, 0, 57, 0
2, 666174, Control_c, 0, 64, 127
2, 666177, Note_on_c, 0, 66, 0
2, 666196, Note_on_c, 0, 62, 0
2, 666464, Note_on_c, 0, 66, 28
2, 666476, Note_on_c, 0, 57, 17
2, 666488, Note_on_c, 0, 62, 29
2, 666848, Note_on_c, 0, 62, 0
2, 666894, Note_on_c, 0, 48, 85
2, 666926, Note_on_c, 0, 66, 0
2, 666952, Note_on_c, 0, 57, 0
2, 666986, Note_on_c, 0, 50, 0
2, 667208, Note_on_c, 0, 48, 0
2, 667300, Note_on_c, 0, 66, 39
2, 667312, Note_on_c, 0, 48, 67
2, 667316, Note_on_c, 0, 57, 27
2, 667328, Note_on_c, 0, 62, 32
2, 667570, Note_on_c, 0, 62, 0
2, 667626, Note_on_c, 0, 46, 80
2, 667628, Note_on_c, 0, 57, 0
2, 667652, Note_on_c, 0, 48, 0
2, 667724, Note_on_c, 0, 66, 0
2, 667846, Note_on_c, 0, 46, 0
2, 667918, Note_on_c, 0, 46, 63
2, 667962, Note_on_c, 0, 64, 48
2, 667972, Note_on_c, 0, 50, 50
2, 667975, Note_on_c, 0, 62, 33
2, 667980, Note_on_c, 0, 55, 34
2, 668016, Control_c, 0, 64, 0
2, 668264, Control_c, 0, 64, 127
2, 668267, Note_on_c, 0, 62, 0
2, 668276, Note_on_c, 0, 45, 60
2, 668292, Note_on_c, 0, 46, 0
2, 668344, Note_on_c, 0, 64, 0
2, 668496, Note_on_c, 0, 45, 0
2, 668618, Note_on_c, 0, 58, 23
2, 668620, Note_on_c, 0, 55, 0
2, 668620, Note_on_c, 0, 64, 41
2, 668622, Note_on_c, 0, 45, 41
2, 668628, Note_on_c, 0, 62, 26
2, 668678, Control_c, 0, 64, 0
2, 668950, Note_on_c, 0, 62, 0
2, 669000, Control_c, 0, 64, 127
2, 669012, Note_on_c, 0, 64, 0
2, 669026, Note_on_c, 0, 43, 66
2, 669042, Note_on_c, 0, 58, 0
2, 669045, Note_on_c, 0, 45, 0
2, 669108, Control_c, 0, 64, 0
2, 669276, Control_c, 0, 64, 127
2, 669314, Note_on_c, 0, 50, 0
2, 669508, Note_on_c, 0, 66, 55
2, 669524, Note_on_c, 0, 57, 35
2, 669534, Note_on_c, 0, 62, 27
2, 669552, Note_on_c, 0, 43, 0
2, 669560, Note_on_c, 0, 38, 43
2, 669580, Note_on_c, 0, 50, 23
2, 669630, Control_c, 0, 64, 0
2, 669942, Note_on_c, 0, 62, 0
2, 670030, Control_c, 0, 64, 127
2, 670038, Note_on_c, 0, 57, 0
2, 670316, Note_on_c, 0, 57, 16
2, 670328, Note_on_c, 0, 62, 24
2, 670498, Note_on_c, 0, 57, 0
2, 670620, Note_on_c, 0, 62, 0
2, 670956, Note_on_c, 0, 62, 37
2, 670962, Note_on_c, 0, 57, 25
2, 671270, Note_on_c, 0, 57, 0
2, 671320, Note_on_c, 0, 64, 57
2, 671390, Note_on_c, 0, 62, 0
2, 671428, Note_on_c, 0, 66, 0
2, 671480, Note_on_c, 0, 64, 0
2, 671668, Note_on_c, 0, 64, 62
2, 671674, Note_on_c, 0, 57, 47
2, 671690, Note_on_c, 0, 62, 41
2, 671812, Note_on_c, 0, 62, 0
2, 671916, Note_on_c, 0, 50, 0
2, 672004, Note_on_c, 0, 57, 0
2, 672007, Note_on_c, 0, 62, 83
2, 672022, Note_on_c, 0, 64, 0
2, 672102, Note_on_c, 0, 62, 0
2, 672384, Note_on_c, 0, 43, 13
2, 672387, Note_on_c, 0, 64, 63
2, 672408, Note_on_c, 0, 58, 23
2, 672442, Note_on_c, 0, 50, 29
2, 672518, Control_c, 0, 64, 0
2, 672600, Note_on_c, 0, 62, 2
2, 672629, Note_on_c, 0, 38, 0
2, 672748, Note_on_c, 0, 66, 41
2, 672776, Note_on_c, 0, 64, 0
2, 672856, Control_c, 0, 64, 127
2, 672872, Note_on_c, 0, 62, 0
2, 672926, Note_on_c, 0, 58, 0
2, 673032, Note_on_c, 0, 66, 0
2, 673170, Note_on_c, 0, 69, 26
2, 673176, Note_on_c, 0, 58, 20
2, 673224, Note_on_c, 0, 62, 18
2, 673318, Control_c, 0, 64, 0
2, 673456, Control_c, 0, 64, 127
2, 673540, Note_on_c, 0, 67, 21
2, 673572, Note_on_c, 0, 69, 0
2, 673618, Note_on_c, 0, 50, 0
2, 673630, Note_on_c, 0, 43, 0
2, 673780, Note_on_c, 0, 67, 0
2, 673794, Note_on_c, 0, 66, 27
2, 673848, Note_on_c, 0, 38, 41
2, 673890, Note_on_c, 0, 62, 0
2, 674028, Note_on_c, 0, 50, 56
2, 674078, Note_on_c, 0, 66, 0
2, 674092, Note_on_c, 0, 58, 0
2, 674458, Note_on_c, 0, 38, 0
2, 674706, Note_on_c, 0, 66, 29
2, 674706, Note_on_c, 0, 57, 25
2, 674714, Note_on_c, 0, 62, 32
2, 674778, Control_c, 0, 64, 0
2, 675024, Control_c, 0, 64, 127
2, 675062, Note_on_c, 0, 62, 0
2, 675064, Note_on_c, 0, 57, 0
2, 675076, Note_on_c, 0, 66, 0
2, 675430, Note_on_c, 0, 66, 20
2, 675432, Note_on_c, 0, 57, 18
2, 675456, Note_on_c, 0, 62, 23
2, 675768, Note_on_c, 0, 50, 0
2, 675794, Note_on_c, 0, 66, 0
2, 675810, Note_on_c, 0, 48, 35
2, 675840, Note_on_c, 0, 57, 0
2, 675882, Note_on_c, 0, 62, 0
2, 676126, Note_on_c, 0, 48, 0
2, 676250, Note_on_c, 0, 48, 37
2, 676256, Note_on_c, 0, 66, 31
2, 676258, Note_on_c, 0, 62, 29
2, 676266, Note_on_c, 0, 57, 21
2, 676568, Note_on_c, 0, 62, 0
2, 676588, Note_on_c, 0, 46, 56
2, 676592, Note_on_c, 0, 57, 0
2, 676592, Note_on_c, 0, 48, 0
2, 676676, Note_on_c, 0, 66, 0
2, 676804, Note_on_c, 0, 46, 0
2, 676912, Note_on_c, 0, 46, 42
2, 676948, Note_on_c, 0, 64, 43
2, 676962, Note_on_c, 0, 55, 28
2, 676962, Note_on_c, 0, 50, 27
2, 676980, Note_on_c, 0, 62, 20
2, 677066, Control_c, 0, 64, 0
2, 677072, Note_on_c, 0, 50, 0
2, 677160, Note_on_c, 0, 50, 2
2, 677236, Control_c, 0, 64, 127
2, 677314, Note_on_c, 0, 46, 0
2, 677350, Note_on_c, 0, 45, 44
2, 677428, Note_on_c, 0, 62, 0
2, 677446, Note_on_c, 0, 64, 0
2, 677478, Note_on_c, 0, 55, 0
2, 677720, Note_on_c, 0, 45, 0
2, 677780, Note_on_c, 0, 48, 42
2, 677794, Note_on_c, 0, 64, 32
2, 677802, Note_on_c, 0, 55, 28
2, 677806, Note_on_c, 0, 62, 25
2, 677850, Control_c, 0, 64, 0
2, 678098, Note_on_c, 0, 46, 42
2, 678112, Control_c, 0, 64, 127
2, 678118, Note_on_c, 0, 48, 0
2, 678244, Note_on_c, 0, 55, 0
2, 678264, Note_on_c, 0, 62, 0
2, 678272, Note_on_c, 0, 46, 0
2, 678286, Note_on_c, 0, 64, 0
2, 678352, Note_on_c, 0, 45, 35
2, 678362, Note_on_c, 0, 50, 0
2, 678562, Note_on_c, 0, 45, 0
2, 678740, Note_on_c, 0, 66, 29
2, 678756, Note_on_c, 0, 38, 23
2, 678774, Note_on_c, 0, 57, 14
2, 678788, Note_on_c, 0, 62, 21
2, 678804, Control_c, 0, 64, 0
2, 678826, Note_on_c, 0, 50, 24
2, 679154, Note_on_c, 0, 62, 0
2, 679173, Control_c, 0, 64, 127
2, 679176, Note_on_c, 0, 57, 0
2, 679466, Note_on_c, 0, 50, 0
2, 679502, Note_on_c, 0, 57, 21
2, 679504, Note_on_c, 0, 62, 32
2, 679764, Note_on_c, 0, 62, 0
2, 679774, Note_on_c, 0, 57, 0
2, 680134, Note_on_c, 0, 46, 41
2, 680170, Note_on_c, 0, 55, 19
2, 680172, Control_c, 0, 64, 0
2, 680184, Note_on_c, 0, 62, 17
2, 680284, Note_on_c, 0, 50, 12
2, 680320, Note_on_c, 0, 38, 0
2, 680474, Note_on_c, 0, 64, 56
2, 680478, Control_c, 0, 64, 127
2, 680514, Note_on_c, 0, 55, 0
2, 680550, Note_on_c, 0, 66, 0
2, 680598, Note_on_c, 0, 62, 0
2, 680622, Note_on_c, 0, 64, 0
2, 680874, Note_on_c, 0, 55, 43
2, 680876, Note_on_c, 0, 64, 59
2, 681000, Note_on_c, 0, 55, 0
2, 681210, Note_on_c, 0, 66, 60
2, 681250, Note_on_c, 0, 64, 0
2, 681348, Note_on_c, 0, 66, 0
2, 681548, Note_on_c, 0, 66, 52
2, 681556, Note_on_c, 0, 45, 47
2, 681558, Note_on_c, 0, 46, 0
2, 681564, Note_on_c, 0, 57, 36
2, 681606, Note_on_c, 0, 62, 25
2, 681662, Control_c, 0, 64, 0
2, 681944, Note_on_c, 0, 62, 0
2, 681947, Note_on_c, 0, 57, 0
2, 681998, Control_c, 0, 64, 127
2, 682226, Note_on_c, 0, 57, 39
2, 682232, Note_on_c, 0, 62, 36
2, 682310, Note_on_c, 0, 50, 0
2, 682444, Note_on_c, 0, 57, 0
2, 682564, Note_on_c, 0, 62, 0
2, 682812, Note_on_c, 0, 58, 28
2, 682828, Note_on_c, 0, 50, 58
2, 682846, Note_on_c, 0, 62, 37
2, 682852, Note_on_c, 0, 45, 0
2, 682852, Note_on_c, 0, 43, 43
2, 682906, Control_c, 0, 64, 0
2, 683128, Note_on_c, 0, 64, 62
2, 683234, Note_on_c, 0, 62, 0
2, 683243, Control_c, 0, 64, 127
2, 683290, Note_on_c, 0, 64, 0
2, 683293, Note_on_c, 0, 58, 0
2, 683322, Note_on_c, 0, 66, 0
2, 683458, Note_on_c, 0, 64, 59
2, 683460, Note_on_c, 0, 58, 39
2, 683496, Note_on_c, 0, 62, 46
2, 683788, Note_on_c, 0, 66, 57
2, 683850, Note_on_c, 0, 64, 0
2, 683854, Note_on_c, 0, 62, 0
2, 683986, Note_on_c, 0, 66, 0
2, 684050, Note_on_c, 0, 58, 0
2, 684196, Note_on_c, 0, 43, 0
2, 684208, Note_on_c, 0, 66, 46
2, 684222, Note_on_c, 0, 42, 41
2, 684234, Note_on_c, 0, 57, 29
2, 684252, Note_on_c, 0, 62, 27
2, 684256, Control_c, 0, 64, 0
2, 684578, Note_on_c, 0, 62, 0
2, 684612, Control_c, 0, 64, 127
2, 684632, Note_on_c, 0, 57, 0
2, 684900, Note_on_c, 0, 62, 46
2, 684903, Note_on_c, 0, 57, 32
2, 685014, Note_on_c, 0, 50, 0
2, 685182, Note_on_c, 0, 57, 0
2, 685214, Note_on_c, 0, 62, 0
2, 685340, Note_on_c, 0, 42, 0
2, 685526, Note_on_c, 0, 58, 31
2, 685542, Note_on_c, 0, 50, 55
2, 685550, Note_on_c, 0, 62, 36
2, 685550, Note_on_c, 0, 40, 33
2, 685580, Control_c, 0, 64, 0
2, 685866, Note_on_c, 0, 64, 54
2, 685886, Control_c, 0, 64, 127
2, 685986, Note_on_c, 0, 66, 0
2, 686036, Note_on_c, 0, 58, 0
2, 686052, Note_on_c, 0, 64, 0
2, 686062, Note_on_c, 0, 62, 0
2, 686278, Note_on_c, 0, 58, 35
2, 686286, Note_on_c, 0, 64, 48
2, 686330, Note_on_c, 0, 62, 32
2, 686546, Note_on_c, 0, 62, 0
2, 686630, Note_on_c, 0, 64, 0
2, 686638, Note_on_c, 0, 66, 35
2, 686748, Note_on_c, 0, 66, 0
2, 686768, Note_on_c, 0, 40, 0
2, 686800, Note_on_c, 0, 58, 0
2, 687060, Note_on_c, 0, 66, 31
2, 687070, Note_on_c, 0, 57, 23
2, 687082, Note_on_c, 0, 38, 42
2, 687085, Control_c, 0, 64, 0
2, 687104, Note_on_c, 0, 62, 16
2, 687392, Control_c, 0, 64, 127
2, 687434, Note_on_c, 0, 50, 0
2, 687438, Note_on_c, 0, 64, 40
2, 687500, Note_on_c, 0, 66, 0
2, 687508, Note_on_c, 0, 62, 0
2, 687550, Note_on_c, 0, 64, 0
2, 687562, Note_on_c, 0, 57, 0
2, 687756, Note_on_c, 0, 46, 41
2, 687770, Note_on_c, 0, 55, 54
2, 687790, Note_on_c, 0, 64, 51
2, 687798, Note_on_c, 0, 38, 0
2, 687800, Note_on_c, 0, 50, 23
2, 687808, Control_c, 0, 64, 0
2, 687812, Note_on_c, 0, 62, 21
2, 688092, Note_on_c, 0, 66, 55
2, 688098, Control_c, 0, 64, 127
2, 688198, Note_on_c, 0, 62, 0
2, 688206, Note_on_c, 0, 64, 0
2, 688222, Note_on_c, 0, 55, 0
2, 688270, Note_on_c, 0, 66, 0
2, 688392, Note_on_c, 0, 66, 32
2, 688392, Note_on_c, 0, 57, 57
2, 688398, Note_on_c, 0, 45, 46
2, 688406, Note_on_c, 0, 62, 51
2, 688420, Note_on_c, 0, 46, 0
2, 688498, Control_c, 0, 64, 0
2, 688698, Control_c, 0, 64, 127
2, 688774, Note_on_c, 0, 64, 58
2, 688782, Note_on_c, 0, 57, 0
2, 688820, Note_on_c, 0, 62, 0
2, 688832, Note_on_c, 0, 66, 0
2, 688850, Note_on_c, 0, 64, 0
2, 689082, Note_on_c, 0, 58, 35
2, 689106, Note_on_c, 0, 45, 0
2, 689108, Note_on_c, 0, 43, 39
2, 689114, Note_on_c, 0, 64, 50
2, 689124, Note_on_c, 0, 62, 32
2, 689144, Control_c, 0, 64, 0
2, 689420, Control_c, 0, 64, 127
2, 689426, Note_on_c, 0, 64, 0
2, 689429, Note_on_c, 0, 66, 37
2, 689496, Note_on_c, 0, 62, 0
2, 689578, Note_on_c, 0, 66, 0
2, 689592, Note_on_c, 0, 58, 0
2, 689760, Note_on_c, 0, 57, 28
2, 689762, Note_on_c, 0, 43, 0
2, 689766, Note_on_c, 0, 66, 32
2, 689768, Note_on_c, 0, 62, 20
2, 689798, Note_on_c, 0, 42, 26
2, 689804, Control_c, 0, 64, 0
2, 690036, Control_c, 0, 64, 127
2, 690046, Note_on_c, 0, 57, 0
2, 690072, Note_on_c, 0, 62, 0
2, 690138, Note_on_c, 0, 64, 39
2, 690146, Note_on_c, 0, 66, 0
2, 690192, Note_on_c, 0, 64, 0
2, 690402, Note_on_c, 0, 42, 0
2, 690472, Note_on_c, 0, 40, 40
2, 690476, Note_on_c, 0, 62, 10
2, 690480, Note_on_c, 0, 58, 20
2, 690482, Note_on_c, 0, 64, 39
2, 690496, Control_c, 0, 64, 0
2, 690826, Note_on_c, 0, 62, 0
2, 690828, Note_on_c, 0, 64, 0
2, 690834, Control_c, 0, 64, 127
2, 690858, Note_on_c, 0, 66, 24
2, 690974, Note_on_c, 0, 50, 0
2, 691006, Note_on_c, 0, 58, 0
2, 691032, Note_on_c, 0, 66, 0
2, 691276, Note_on_c, 0, 40, 0
2, 691300, Note_on_c, 0, 66, 25
2, 691326, Note_on_c, 0, 57, 23
2, 691334, Note_on_c, 0, 62, 24
2, 691340, Control_c, 0, 64, 0
2, 691345, Note_on_c, 0, 38, 19
2, 691358, Note_on_c, 0, 50, 13
2, 691762, Note_on_c, 0, 57, 0
2, 691764, Note_on_c, 0, 67, 25
2, 691786, Control_c, 0, 64, 127
2, 691848, Note_on_c, 0, 62, 0
2, 691874, Note_on_c, 0, 66, 0
2, 691936, Note_on_c, 0, 67, 0
2, 692146, Note_on_c, 0, 67, 46
2, 692182, Note_on_c, 0, 66, 14
2, 692192, Note_on_c, 0, 62, 19
2, 692494, Note_on_c, 0, 67, 0
2, 692502, Note_on_c, 0, 62, 0
2, 692512, Note_on_c, 0, 68, 60
2, 692596, Note_on_c, 0, 66, 0
2, 692638, Note_on_c, 0, 68, 0
2, 692838, Note_on_c, 0, 68, 66
2, 692880, Note_on_c, 0, 62, 40
2, 692914, Note_on_c, 0, 66, 5
2, 692970, Control_c, 0, 64, 0
2, 693156, Note_on_c, 0, 69, 62
2, 693168, Control_c, 0, 64, 127
2, 693226, Note_on_c, 0, 68, 0
2, 693240, Note_on_c, 0, 66, 0
2, 693270, Note_on_c, 0, 62, 0
2, 693292, Note_on_c, 0, 69, 0
2, 693520, Note_on_c, 0, 50, 0
2, 693530, Note_on_c, 0, 69, 48
2, 693564, Note_on_c, 0, 62, 28
2, 693568, Control_c, 0, 64, 0
2, 693570, Note_on_c, 0, 66, 25
2, 693918, Note_on_c, 0, 74, 63
2, 693922, Control_c, 0, 64, 127
2, 693934, Note_on_c, 0, 38, 0
2, 693958, Note_on_c, 0, 69, 0
2, 693970, Note_on_c, 0, 62, 0
2, 694054, Note_on_c, 0, 66, 0
2, 694068, Note_on_c, 0, 74, 0
2, 694312, Note_on_c, 0, 74, 59
2, 694322, Note_on_c, 0, 63, 29
2, 694362, Note_on_c, 0, 67, 23
2, 694382, Control_c, 0, 64, 0
2, 694644, Control_c, 0, 64, 127
2, 694700, Note_on_c, 0, 73, 56
2, 694732, Note_on_c, 0, 74, 0
2, 694800, Note_on_c, 0, 63, 0
2, 694842, Note_on_c, 0, 67, 0
2, 694888, Note_on_c, 0, 73, 0
2, 695032, Note_on_c, 0, 73, 64
2, 695038, Note_on_c, 0, 63, 54
2, 695056, Note_on_c, 0, 67, 40
2, 695136, Control_c, 0, 64, 0
2, 695306, Control_c, 0, 64, 127
2, 695374, Note_on_c, 0, 74, 83
2, 695390, Note_on_c, 0, 67, 0
2, 695466, Note_on_c, 0, 73, 0
2, 695540, Note_on_c, 0, 63, 0
2, 695546, Note_on_c, 0, 74, 0
2, 695692, Note_on_c, 0, 74, 92
2, 695700, Note_on_c, 0, 68, 47
2, 695710, Note_on_c, 0, 64, 57
2, 695750, Control_c, 0, 64, 0
2, 696012, Control_c, 0, 64, 127
2, 696038, Note_on_c, 0, 73, 83
2, 696066, Note_on_c, 0, 74, 0
2, 696138, Note_on_c, 0, 64, 0
2, 696178, Note_on_c, 0, 68, 0
2, 696206, Note_on_c, 0, 73, 0
2, 696344, Note_on_c, 0, 68, 54
2, 696344, Note_on_c, 0, 73, 81
2, 696352, Note_on_c, 0, 64, 70
2, 696472, Control_c, 0, 64, 0
2, 696642, Control_c, 0, 64, 127
2, 696684, Note_on_c, 0, 74, 94
2, 696736, Note_on_c, 0, 73, 0
2, 696788, Note_on_c, 0, 64, 0
2, 696866, Note_on_c, 0, 68, 0
2, 696876, Note_on_c, 0, 74, 0
2, 697034, Note_on_c, 0, 74, 87
2, 697042, Note_on_c, 0, 69, 55
2, 697048, Note_on_c, 0, 65, 59
2, 697102, Control_c, 0, 64, 0
2, 697408, Note_on_c, 0, 73, 71
2, 697440, Control_c, 0, 64, 127
2, 697466, Note_on_c, 0, 74, 0
2, 697482, Note_on_c, 0, 69, 0
2, 697532, Note_on_c, 0, 65, 0
2, 697594, Note_on_c, 0, 73, 0
2, 697738, Note_on_c, 0, 73, 65
2, 697744, Note_on_c, 0, 69, 41
2, 697752, Note_on_c, 0, 65, 46
2, 697886, Control_c, 0, 64, 0
2, 698054, Control_c, 0, 64, 127
2, 698098, Note_on_c, 0, 69, 0
2, 698102, Note_on_c, 0, 74, 73
2, 698116, Note_on_c, 0, 73, 0
2, 698268, Note_on_c, 0, 65, 0
2, 698296, Note_on_c, 0, 74, 0
2, 698500, Note_on_c, 0, 74, 50
2, 698500, Note_on_c, 0, 66, 26
2, 698520, Note_on_c, 0, 70, 23
2, 698562, Control_c, 0, 64, 0
2, 698916, Note_on_c, 0, 73, 27
2, 698918, Note_on_c, 0, 74, 0
2, 698962, Control_c, 0, 64, 127
2, 699050, Note_on_c, 0, 70, 0
2, 699060, Note_on_c, 0, 66, 0
2, 699102, Note_on_c, 0, 73, 0
2, 699394, Note_on_c, 0, 73, 21
2, 699416, Note_on_c, 0, 66, 3
2, 699436, Note_on_c, 0, 70, 8
2, 699920, Note_on_c, 0, 74, 39
2, 700024, Note_on_c, 0, 73, 0
2, 700042, Note_on_c, 0, 43, 34
2, 700068, Control_c, 0, 64, 0
2, 700168, Note_on_c, 0, 50, 46
2, 700206, Control_c, 0, 64, 127
2, 700232, Note_on_c, 0, 43, 0
2, 700250, Note_on_c, 0, 50, 0
2, 700290, Note_on_c, 0, 55, 64
2, 700398, Note_on_c, 0, 55, 0
2, 700416, Note_on_c, 0, 58, 55
2, 700642, Note_on_c, 0, 62, 102
2, 700754, Note_on_c, 0, 66, 0
2, 700828, Note_on_c, 0, 70, 0
2, 700946, Note_on_c, 0, 58, 0
2, 701194, Note_on_c, 0, 73, 33
2, 701240, Note_on_c, 0, 74, 0
2, 701398, Note_on_c, 0, 73, 0
2, 701576, Note_on_c, 0, 73, 34
2, 701602, Note_on_c, 0, 67, 18
2, 701608, Note_on_c, 0, 70, 13
2, 701908, Note_on_c, 0, 74, 44
2, 701974, Note_on_c, 0, 70, 0
2, 701978, Note_on_c, 0, 73, 0
2, 702004, Note_on_c, 0, 67, 0
2, 702102, Note_on_c, 0, 74, 0
2, 702202, Note_on_c, 0, 62, 0
2, 702310, Note_on_c, 0, 74, 41
2, 702330, Note_on_c, 0, 70, 19
2, 702333, Note_on_c, 0, 67, 26
2, 702360, Note_on_c, 0, 62, 93
2, 702702, Note_on_c, 0, 67, 0
2, 702732, Note_on_c, 0, 73, 29
2, 702734, Note_on_c, 0, 74, 0
2, 702780, Note_on_c, 0, 70, 0
2, 702898, Note_on_c, 0, 73, 0
2, 703066, Note_on_c, 0, 73, 31
2, 703078, Note_on_c, 0, 70, 25
2, 703092, Note_on_c, 0, 67, 36
2, 703338, Note_on_c, 0, 67, 0
2, 703352, Note_on_c, 0, 70, 0
2, 703380, Note_on_c, 0, 74, 35
2, 703390, Note_on_c, 0, 73, 0
2, 703496, Note_on_c, 0, 74, 0
2, 703698, Note_on_c, 0, 74, 34
2, 703726, Note_on_c, 0, 70, 16
2, 703734, Note_on_c, 0, 67, 20
2, 703882, Note_on_c, 0, 67, 0
2, 703940, Note_on_c, 0, 70, 0
2, 704020, Note_on_c, 0, 74, 0
2, 704036, Note_on_c, 0, 73, 35
2, 704186, Note_on_c, 0, 73, 0
2, 704236, Note_on_c, 0, 62, 0
2, 704360, Note_on_c, 0, 73, 26
2, 704396, Note_on_c, 0, 70, 13
2, 704410, Note_on_c, 0, 67, 12
2, 704718, Note_on_c, 0, 74, 33
2, 704760, Note_on_c, 0, 70, 0
2, 704778, Note_on_c, 0, 73, 0
2, 704836, Note_on_c, 0, 43, 36
2, 704868, Note_on_c, 0, 67, 0
2, 704908, Control_c, 0, 64, 0
2, 704970, Note_on_c, 0, 48, 33
2, 704984, Control_c, 0, 64, 127
2, 705056, Note_on_c, 0, 43, 0
2, 705122, Note_on_c, 0, 51, 51
2, 705146, Note_on_c, 0, 48, 0
2, 705238, Note_on_c, 0, 51, 0
2, 705244, Note_on_c, 0, 57, 51
2, 705422, Note_on_c, 0, 57, 0
2, 705456, Note_on_c, 0, 62, 69
2, 705732, Note_on_c, 0, 60, 64
2, 705752, Note_on_c, 0, 62, 0
2, 705866, Note_on_c, 0, 60, 0
2, 705914, Note_on_c, 0, 59, 65
2, 705986, Note_on_c, 0, 74, 0
2, 706022, Note_on_c, 0, 71, 58
2, 706080, Note_on_c, 0, 71, 0
2, 706172, Note_on_c, 0, 60, 77
2, 706400, Note_on_c, 0, 63, 56
2, 706403, Note_on_c, 0, 71, 58
2, 706434, Note_on_c, 0, 69, 23
2, 706452, Note_on_c, 0, 59, 0
2, 706522, Control_c, 0, 64, 0
2, 706690, Control_c, 0, 64, 127
2, 706760, Note_on_c, 0, 71, 0
2, 706764, Note_on_c, 0, 72, 52
2, 706810, Note_on_c, 0, 69, 0
2, 706832, Note_on_c, 0, 63, 0
2, 706876, Note_on_c, 0, 72, 0
2, 707104, Note_on_c, 0, 72, 41
2, 707107, Note_on_c, 0, 63, 35
2, 707124, Note_on_c, 0, 69, 19
2, 707418, Note_on_c, 0, 63, 0
2, 707436, Note_on_c, 0, 72, 0
2, 707439, Note_on_c, 0, 71, 47
2, 707510, Note_on_c, 0, 71, 0
2, 707519, Note_on_c, 0, 69, 0
2, 707758, Note_on_c, 0, 63, 43
2, 707782, Note_on_c, 0, 71, 44
2, 707806, Note_on_c, 0, 69, 10
2, 708030, Note_on_c, 0, 63, 0
2, 708098, Note_on_c, 0, 71, 0
2, 708102, Note_on_c, 0, 72, 46
2, 708182, Note_on_c, 0, 72, 0
2, 708202, Note_on_c, 0, 69, 0
2, 708430, Note_on_c, 0, 63, 34
2, 708432, Note_on_c, 0, 72, 42
2, 708438, Note_on_c, 0, 69, 28
2, 708644, Note_on_c, 0, 63, 0
2, 708742, Note_on_c, 0, 72, 0
2, 708790, Note_on_c, 0, 71, 28
2, 708864, Note_on_c, 0, 69, 0
2, 708868, Note_on_c, 0, 71, 0
2, 709116, Note_on_c, 0, 60, 0
2, 709130, Note_on_c, 0, 63, 35
2, 709147, Note_on_c, 0, 71, 39
2, 709172, Note_on_c, 0, 69, 12
2, 709330, Note_on_c, 0, 63, 0
2, 709380, Note_on_c, 0, 71, 0
2, 709432, Note_on_c, 0, 69, 0
2, 709548, Note_on_c, 0, 72, 37
2, 709612, Note_on_c, 0, 43, 47
2, 709650, Note_on_c, 0, 45, 44
2, 709736, Note_on_c, 0, 48, 66
2, 709828, Note_on_c, 0, 51, 49
2, 709977, Note_on_c, 0, 54, 93
2, 710070, Note_on_c, 0, 60, 109
2, 710086, Control_c, 0, 64, 0
2, 710240, Control_c, 0, 64, 127
2, 710248, Note_on_c, 0, 43, 0
2, 710306, Note_on_c, 0, 48, 0
2, 710334, Note_on_c, 0, 45, 0
2, 710346, Note_on_c, 0, 60, 0
2, 710349, Note_on_c, 0, 54, 0
2, 710458, Note_on_c, 0, 51, 0
2, 710488, Note_on_c, 0, 72, 0
2, 710532, Note_on_c, 0, 71, 58
2, 710606, Note_on_c, 0, 71, 0
2, 710882, Note_on_c, 0, 63, 42
2, 710904, Note_on_c, 0, 71, 59
2, 710940, Note_on_c, 0, 69, 12
2, 711260, Note_on_c, 0, 72, 50
2, 711264, Note_on_c, 0, 63, 0
2, 711292, Note_on_c, 0, 69, 0
2, 711298, Note_on_c, 0, 71, 0
2, 711394, Note_on_c, 0, 72, 0
2, 711602, Note_on_c, 0, 72, 37
2, 711608, Note_on_c, 0, 63, 33
2, 711628, Note_on_c, 0, 66, 14
2, 711650, Note_on_c, 0, 69, 5
2, 711662, Note_on_c, 0, 60, 106
2, 711856, Note_on_c, 0, 63, 0
2, 711868, Note_on_c, 0, 69, 0
2, 711942, Note_on_c, 0, 66, 0
2, 711968, Note_on_c, 0, 72, 0
2, 712026, Note_on_c, 0, 71, 39
2, 712104, Note_on_c, 0, 71, 0
2, 712346, Note_on_c, 0, 71, 48
2, 712354, Note_on_c, 0, 63, 36
2, 712374, Note_on_c, 0, 69, 18
2, 712400, Note_on_c, 0, 66, 9
2, 712582, Note_on_c, 0, 63, 0
2, 712636, Note_on_c, 0, 66, 0
2, 712670, Note_on_c, 0, 71, 0
2, 712722, Note_on_c, 0, 72, 49
2, 712730, Note_on_c, 0, 69, 0
2, 712788, Note_on_c, 0, 72, 0
2, 713064, Note_on_c, 0, 72, 46
2, 713072, Note_on_c, 0, 63, 37
2, 713086, Note_on_c, 0, 69, 11
2, 713088, Note_on_c, 0, 66, 16
2, 713244, Note_on_c, 0, 63, 0
2, 713386, Note_on_c, 0, 72, 0
2, 713394, Note_on_c, 0, 71, 55
2, 713468, Note_on_c, 0, 69, 0
2, 713471, Note_on_c, 0, 71, 0
2, 713476, Note_on_c, 0, 66, 0
2, 713770, Note_on_c, 0, 71, 50
2, 713778, Note_on_c, 0, 63, 32
2, 713804, Note_on_c, 0, 69, 14
2, 713864, Note_on_c, 0, 60, 0
2, 714004, Note_on_c, 0, 63, 0
2, 714144, Note_on_c, 0, 69, 0
2, 714184, Note_on_c, 0, 71, 0
2, 714204, Note_on_c, 0, 72, 35
2, 714324, Note_on_c, 0, 43, 9
2, 714374, Note_on_c, 0, 46, 33
2, 714520, Note_on_c, 0, 50, 43
2, 714588, Control_c, 0, 64, 0
2, 714632, Note_on_c, 0, 55, 56
2, 714766, Note_on_c, 0, 43, 0
2, 714772, Control_c, 0, 64, 127
2, 714784, Note_on_c, 0, 50, 0
2, 714822, Note_on_c, 0, 60, 74
2, 714842, Note_on_c, 0, 46, 0
2, 714922, Note_on_c, 0, 55, 0
2, 715128, Note_on_c, 0, 58, 43
2, 715254, Note_on_c, 0, 60, 0
2, 715308, Note_on_c, 0, 57, 58
2, 715318, Note_on_c, 0, 58, 0
2, 715492, Note_on_c, 0, 69, 29
2, 715556, Note_on_c, 0, 58, 54
2, 715578, Note_on_c, 0, 57, 0
2, 715656, Note_on_c, 0, 72, 0
2, 715720, Note_on_c, 0, 69, 0
2, 715938, Note_on_c, 0, 69, 37
2, 715941, Note_on_c, 0, 62, 39
2, 715964, Note_on_c, 0, 67, 23
2, 716048, Control_c, 0, 64, 0
2, 716170, Control_c, 0, 64, 127
2, 716304, Note_on_c, 0, 70, 28
2, 716350, Note_on_c, 0, 69, 0
2, 716364, Note_on_c, 0, 62, 0
2, 716380, Note_on_c, 0, 67, 0
2, 716448, Note_on_c, 0, 70, 0
2, 716650, Note_on_c, 0, 70, 41
2, 716662, Note_on_c, 0, 67, 40
2, 716668, Note_on_c, 0, 62, 34
2, 716816, Control_c, 0, 64, 0
2, 716924, Control_c, 0, 64, 127
2, 716992, Note_on_c, 0, 69, 39
2, 717026, Note_on_c, 0, 70, 0
2, 717064, Note_on_c, 0, 62, 0
2, 717098, Note_on_c, 0, 67, 0
2, 717101, Note_on_c, 0, 69, 0
2, 717319, Note_on_c, 0, 69, 33
2, 717330, Note_on_c, 0, 67, 40
2, 717346, Note_on_c, 0, 62, 26
2, 717498, Note_on_c, 0, 62, 0
2, 717620, Note_on_c, 0, 67, 0
2, 717644, Note_on_c, 0, 69, 0
2, 717652, Note_on_c, 0, 70, 35
2, 717800, Note_on_c, 0, 70, 0
2, 718020, Note_on_c, 0, 70, 34
2, 718028, Note_on_c, 0, 67, 36
2, 718042, Note_on_c, 0, 62, 19
2, 718260, Note_on_c, 0, 62, 0
2, 718302, Note_on_c, 0, 70, 0
2, 718314, Note_on_c, 0, 58, 0
2, 718370, Note_on_c, 0, 69, 26
2, 718464, Note_on_c, 0, 67, 0
2, 718484, Note_on_c, 0, 69, 0
2, 718750, Note_on_c, 0, 69, 29
2, 718770, Note_on_c, 0, 67, 35
2, 719072, Note_on_c, 0, 67, 0
2, 719160, Note_on_c, 0, 70, 57
2, 719164, Note_on_c, 0, 69, 0
2, 719232, Note_on_c, 0, 70, 0
2, 719270, Note_on_c, 0, 38, 43
2, 719330, Note_on_c, 0, 41, 65
2, 719422, Note_on_c, 0, 46, 66
2, 719538, Note_on_c, 0, 50, 85
2, 719638, Note_on_c, 0, 53, 108
2, 719812, Control_c, 0, 64, 0
2, 719832, Note_on_c, 0, 58, 104
2, 719950, Control_c, 0, 64, 127
2, 719956, Note_on_c, 0, 53, 0
2, 719976, Note_on_c, 0, 38, 0
2, 720004, Note_on_c, 0, 50, 0
2, 720020, Note_on_c, 0, 41, 0
2, 720040, Note_on_c, 0, 58, 0
2, 720080, Note_on_c, 0, 46, 0
2, 720346, Note_on_c, 0, 76, 85
2, 720536, Note_on_c, 0, 76, 0
2, 720738, Note_on_c, 0, 76, 63
2, 720741, Note_on_c, 0, 70, 49
2, 720756, Note_on_c, 0, 74, 54
2, 720810, Note_on_c, 0, 65, 121
2, 720988, Note_on_c, 0, 76, 0
2, 720996, Note_on_c, 0, 74, 0
2, 721150, Note_on_c, 0, 70, 0
2, 721238, Note_on_c, 0, 77, 72
2, 721300, Note_on_c, 0, 77, 0
2, 721574, Note_on_c, 0, 77, 80
2, 721586, Note_on_c, 0, 70, 34
2, 721598, Note_on_c, 0, 74, 44
2, 721666, Note_on_c, 0, 74, 0
2, 721788, Note_on_c, 0, 70, 0
2, 721872, Note_on_c, 0, 76, 67
2, 721878, Note_on_c, 0, 77, 0
2, 722034, Note_on_c, 0, 76, 0
2, 722198, Note_on_c, 0, 76, 72
2, 722224, Note_on_c, 0, 70, 32
2, 722236, Note_on_c, 0, 74, 48
2, 722266, Note_on_c, 0, 62, 103
2, 722314, Note_on_c, 0, 74, 0
2, 722342, Note_on_c, 0, 65, 0
2, 722578, Note_on_c, 0, 70, 0
2, 722632, Note_on_c, 0, 77, 78
2, 722686, Note_on_c, 0, 76, 0
2, 722756, Note_on_c, 0, 77, 0
2, 722964, Note_on_c, 0, 77, 67
2, 722984, Note_on_c, 0, 70, 34
2, 723000, Note_on_c, 0, 74, 34
2, 723014, Note_on_c, 0, 58, 95
2, 723072, Note_on_c, 0, 74, 0
2, 723270, Note_on_c, 0, 70, 0
2, 723272, Note_on_c, 0, 62, 0
2, 723350, Note_on_c, 0, 76, 57
2, 723378, Note_on_c, 0, 77, 0
2, 723488, Note_on_c, 0, 76, 0
2, 723638, Note_on_c, 0, 76, 67
2, 723654, Note_on_c, 0, 70, 34
2, 723666, Note_on_c, 0, 74, 49
2, 723724, Note_on_c, 0, 56, 105
2, 723730, Note_on_c, 0, 74, 0
2, 723736, Note_on_c, 0, 70, 0
2, 723792, Note_on_c, 0, 58, 0
2, 723814, Note_on_c, 0, 76, 0
2, 723924, Note_on_c, 0, 56, 0
2, 724010, Note_on_c, 0, 77, 79
2, 724048, Note_on_c, 0, 77, 0
2, 724166, Note_on_c, 0, 39, 66
2, 724262, Note_on_c, 0, 46, 62
2, 724362, Note_on_c, 0, 51, 93
2, 724550, Note_on_c, 0, 56, 96
2, 724576, Control_c, 0, 64, 0
2, 724694, Note_on_c, 0, 39, 0
2, 724714, Control_c, 0, 64, 127
2, 724726, Note_on_c, 0, 46, 0
2, 724760, Note_on_c, 0, 56, 0
2, 724776, Note_on_c, 0, 51, 0
2, 725024, Note_on_c, 0, 69, 59
2, 725038, Note_on_c, 0, 55, 100
2, 725178, Note_on_c, 0, 69, 0
2, 725410, Note_on_c, 0, 69, 51
2, 725418, Note_on_c, 0, 55, 0
2, 725421, Note_on_c, 0, 54, 97
2, 725614, Note_on_c, 0, 69, 0
2, 725682, Note_on_c, 0, 55, 83
2, 725724, Note_on_c, 0, 54, 0
2, 725812, Note_on_c, 0, 70, 63
2, 725838, Note_on_c, 0, 55, 0
2, 725866, Note_on_c, 0, 56, 77
2, 725954, Note_on_c, 0, 70, 0
2, 726036, Note_on_c, 0, 56, 0
2, 726042, Note_on_c, 0, 55, 93
2, 726164, Note_on_c, 0, 70, 59
2, 726172, Note_on_c, 0, 58, 35
2, 726200, Note_on_c, 0, 63, 33
2, 726220, Control_c, 0, 64, 0
2, 726374, Control_c, 0, 64, 127
2, 726404, Note_on_c, 0, 70, 0
2, 726512, Note_on_c, 0, 69, 69
2, 726570, Note_on_c, 0, 58, 0
2, 726582, Note_on_c, 0, 63, 0
2, 726670, Note_on_c, 0, 69, 0
2, 726852, Note_on_c, 0, 58, 41
2, 726860, Note_on_c, 0, 69, 55
2, 726878, Note_on_c, 0, 63, 43
2, 727036, Note_on_c, 0, 69, 0
2, 727134, Note_on_c, 0, 58, 0
2, 727156, Note_on_c, 0, 63, 0
2, 727208, Note_on_c, 0, 70, 46
2, 727340, Note_on_c, 0, 70, 0
2, 727524, Note_on_c, 0, 70, 52
2, 727540, Note_on_c, 0, 58, 21
2, 727556, Note_on_c, 0, 63, 34
2, 727778, Note_on_c, 0, 63, 0
2, 727870, Note_on_c, 0, 66, 39
2, 727876, Note_on_c, 0, 70, 0
2, 727878, Note_on_c, 0, 58, 0
2, 728044, Note_on_c, 0, 66, 0
2, 728224, Note_on_c, 0, 66, 33
2, 728248, Note_on_c, 0, 58, 20
2, 728286, Note_on_c, 0, 63, 20
2, 728294, Note_on_c, 0, 55, 0
2, 728348, Note_on_c, 0, 58, 0
2, 728382, Note_on_c, 0, 63, 0
2, 728596, Note_on_c, 0, 66, 0
2, 728650, Note_on_c, 0, 67, 57
2, 728706, Note_on_c, 0, 67, 0
2, 728874, Note_on_c, 0, 35, 64
2, 728934, Note_on_c, 0, 38, 71
2, 728998, Note_on_c, 0, 43, 79
2, 729062, Note_on_c, 0, 47, 95
2, 729174, Note_on_c, 0, 50, 105
2, 729292, Control_c, 0, 64, 0
2, 729294, Note_on_c, 0, 55, 123
2, 729424, Note_on_c, 0, 47, 0
2, 729426, Note_on_c, 0, 35, 0
2, 729430, Note_on_c, 0, 50, 0
2, 729432, Control_c, 0, 64, 127
2, 729444, Note_on_c, 0, 38, 0
2, 729454, Note_on_c, 0, 43, 0
2, 729498, Note_on_c, 0, 55, 0
2, 729750, Note_on_c, 0, 73, 89
2, 729976, Note_on_c, 0, 73, 0
2, 730120, Note_on_c, 0, 73, 83
2, 730132, Note_on_c, 0, 67, 73
2, 730138, Note_on_c, 0, 71, 75
2, 730214, Note_on_c, 0, 62, 121
2, 730216, Note_on_c, 0, 71, 0
2, 730500, Note_on_c, 0, 67, 0
2, 730532, Note_on_c, 0, 74, 90
2, 730560, Note_on_c, 0, 73, 0
2, 730676, Note_on_c, 0, 74, 0
2, 730902, Note_on_c, 0, 74, 80
2, 730916, Note_on_c, 0, 71, 62
2, 730940, Note_on_c, 0, 67, 52
2, 730992, Note_on_c, 0, 71, 0
2, 731200, Note_on_c, 0, 59, 97
2, 731200, Note_on_c, 0, 73, 71
2, 731260, Note_on_c, 0, 74, 0
2, 731308, Note_on_c, 0, 67, 0
2, 731322, Note_on_c, 0, 62, 0
2, 731402, Note_on_c, 0, 73, 0
2, 731478, Note_on_c, 0, 59, 0
2, 731556, Note_on_c, 0, 73, 60
2, 731572, Note_on_c, 0, 71, 55
2, 731580, Note_on_c, 0, 59, 92
2, 731586, Note_on_c, 0, 67, 46
2, 731886, Note_on_c, 0, 74, 89
2, 731894, Note_on_c, 0, 71, 0
2, 731894, Note_on_c, 0, 55, 108
2, 731908, Note_on_c, 0, 73, 0
2, 731940, Note_on_c, 0, 59, 0
2, 732044, Note_on_c, 0, 67, 0
2, 732072, Note_on_c, 0, 74, 0
2, 732104, Note_on_c, 0, 55, 0
2, 732184, Note_on_c, 0, 74, 56
2, 732206, Note_on_c, 0, 67, 62
2, 732212, Note_on_c, 0, 71, 59
2, 732224, Note_on_c, 0, 55, 101
2, 732366, Control_c, 0, 64, 0
2, 732474, Control_c, 0, 64, 127
2, 732532, Note_on_c, 0, 71, 0
2, 732572, Note_on_c, 0, 73, 72
2, 732577, Note_on_c, 0, 56, 93
2, 732604, Note_on_c, 0, 55, 0
2, 732640, Note_on_c, 0, 74, 0
2, 732720, Note_on_c, 0, 67, 0
2, 732746, Note_on_c, 0, 73, 0
2, 732826, Note_on_c, 0, 56, 0
2, 732910, Note_on_c, 0, 73, 58
2, 732938, Note_on_c, 0, 71, 43
2, 732940, Note_on_c, 0, 65, 33
2, 732944, Note_on_c, 0, 56, 89
2, 733052, Control_c, 0, 64, 0
2, 733180, Control_c, 0, 64, 127
2, 733276, Note_on_c, 0, 71, 0
2, 733284, Note_on_c, 0, 56, 0
2, 733314, Note_on_c, 0, 73, 0
2, 733318, Note_on_c, 0, 65, 0
2, 733360, Note_on_c, 0, 53, 109
2, 733398, Note_on_c, 0, 53, 0
2, 733412, Note_on_c, 0, 74, 70
2, 733456, Note_on_c, 0, 74, 0
2, 733712, Note_on_c, 0, 36, 44
2, 733714, Note_on_c, 0, 44, 34
2, 733756, Note_on_c, 0, 43, 65
2, 733780, Note_on_c, 0, 44, 0
2, 733854, Note_on_c, 0, 48, 41
2, 733882, Note_on_c, 0, 53, 121
2, 733886, Control_c, 0, 64, 0
2, 733930, Note_on_c, 0, 43, 0
2, 733938, Note_on_c, 0, 36, 0
2, 734010, Control_c, 0, 64, 127
2, 734072, Note_on_c, 0, 48, 0
2, 734134, Note_on_c, 0, 53, 0
2, 734264, Note_on_c, 0, 51, 88
2, 734380, Note_on_c, 0, 66, 73
2, 734494, Note_on_c, 0, 51, 0
2, 734524, Note_on_c, 0, 66, 0
2, 734526, Note_on_c, 0, 50, 92
2, 734616, Note_on_c, 0, 50, 0
2, 734718, Note_on_c, 0, 66, 71
2, 734724, Note_on_c, 0, 55, 58
2, 734728, Note_on_c, 0, 50, 71
2, 734740, Note_on_c, 0, 60, 48
2, 734902, Note_on_c, 0, 51, 85
2, 734950, Note_on_c, 0, 50, 0
2, 735014, Note_on_c, 0, 66, 0
2, 735040, Note_on_c, 0, 67, 78
2, 735090, Note_on_c, 0, 51, 0
2, 735094, Note_on_c, 0, 53, 109
2, 735178, Note_on_c, 0, 55, 0
2, 735192, Note_on_c, 0, 60, 0
2, 735208, Note_on_c, 0, 67, 0
2, 735288, Note_on_c, 0, 51, 87
2, 735324, Note_on_c, 0, 53, 0
2, 735430, Note_on_c, 0, 67, 81
2, 735438, Note_on_c, 0, 55, 59
2, 735446, Note_on_c, 0, 60, 54
2, 735576, Control_c, 0, 64, 0
2, 735780, Note_on_c, 0, 66, 64
2, 735792, Control_c, 0, 64, 127
2, 735850, Note_on_c, 0, 67, 0
2, 735888, Note_on_c, 0, 55, 0
2, 735946, Note_on_c, 0, 60, 0
2, 735960, Note_on_c, 0, 66, 0
2, 736134, Note_on_c, 0, 66, 46
2, 736148, Note_on_c, 0, 55, 40
2, 736162, Note_on_c, 0, 60, 26
2, 736252, Control_c, 0, 64, 0
2, 736376, Control_c, 0, 64, 127
2, 736476, Note_on_c, 0, 66, 0
2, 736504, Note_on_c, 0, 67, 41
2, 736552, Note_on_c, 0, 55, 0
2, 736654, Note_on_c, 0, 60, 0
2, 736666, Note_on_c, 0, 67, 0
2, 736838, Note_on_c, 0, 67, 55
2, 736854, Note_on_c, 0, 60, 39
2, 736876, Note_on_c, 0, 55, 35
2, 736930, Control_c, 0, 64, 0
2, 737128, Control_c, 0, 64, 127
2, 737186, Note_on_c, 0, 62, 60
2, 737194, Note_on_c, 0, 67, 0
2, 737284, Note_on_c, 0, 55, 0
2, 737300, Note_on_c, 0, 60, 0
2, 737354, Note_on_c, 0, 62, 0
2, 737548, Note_on_c, 0, 62, 42
2, 737560, Note_on_c, 0, 55, 36
2, 737588, Note_on_c, 0, 60, 24
2, 737604, Control_c, 0, 64, 0
2, 737744, Control_c, 0, 64, 127
2, 737808, Note_on_c, 0, 55, 0
2, 737894, Note_on_c, 0, 60, 0
2, 737938, Note_on_c, 0, 62, 0
2, 737976, Note_on_c, 0, 51, 0
2, 738016, Note_on_c, 0, 63, 37
2, 738352, Note_on_c, 0, 36, 18
2, 738374, Note_on_c, 0, 54, 70
2, 738478, Note_on_c, 0, 63, 0
2, 738614, Note_on_c, 0, 48, 28
2, 738770, Note_on_c, 0, 66, 73
2, 738818, Control_c, 0, 64, 0
2, 738988, Control_c, 0, 64, 127
2, 739032, Note_on_c, 0, 36, 0
2, 739152, Note_on_c, 0, 48, 0
2, 739504, Note_on_c, 0, 50, 63
2, 739520, Note_on_c, 0, 57, 19
2, 739834, Note_on_c, 0, 57, 0
2, 740194, Note_on_c, 0, 51, 59
2, 740196, Note_on_c, 0, 50, 0
2, 740202, Note_on_c, 0, 57, 37
2, 740508, Control_c, 0, 64, 0
2, 740648, Control_c, 0, 64, 127
2, 740660, Note_on_c, 0, 57, 0
2, 740900, Note_on_c, 0, 57, 24
2, 740902, Note_on_c, 0, 50, 40
2, 740932, Note_on_c, 0, 51, 0
2, 741062, Control_c, 0, 64, 0
2, 741232, Control_c, 0, 64, 127
2, 741272, Note_on_c, 0, 57, 0
2, 741366, Note_on_c, 0, 54, 0
2, 741514, Note_on_c, 0, 50, 0
2, 741550, Note_on_c, 0, 49, 40
2, 741556, Note_on_c, 0, 57, 14
2, 741754, Note_on_c, 0, 57, 0
2, 741852, Note_on_c, 0, 66, 0
2, 741888, Note_on_c, 0, 69, 77
2, 741891, Note_on_c, 0, 57, 59
2, 742014, Note_on_c, 0, 57, 0
2, 742144, Note_on_c, 0, 69, 0
2, 742194, Note_on_c, 0, 49, 0
2, 742240, Note_on_c, 0, 67, 97
2, 742248, Note_on_c, 0, 55, 100
2, 742272, Note_on_c, 0, 50, 35
2, 742280, Note_on_c, 0, 57, 36
2, 742380, Note_on_c, 0, 55, 0
2, 742400, Note_on_c, 0, 57, 0
2, 742430, Note_on_c, 0, 50, 0
2, 742484, Note_on_c, 0, 67, 0
2, 742552, Note_on_c, 0, 66, 93
2, 742555, Note_on_c, 0, 54, 102
2, 742712, Note_on_c, 0, 54, 0
2, 742796, Note_on_c, 0, 34, 34
2, 742844, Note_on_c, 0, 69, 97
2, 742850, Note_on_c, 0, 57, 83
2, 742890, Control_c, 0, 64, 0
2, 742910, Note_on_c, 0, 46, 32
2, 742920, Note_on_c, 0, 66, 0
2, 743060, Note_on_c, 0, 34, 0
2, 743060, Control_c, 0, 64, 127
2, 743092, Note_on_c, 0, 69, 0
2, 743104, Note_on_c, 0, 57, 0
2, 743110, Note_on_c, 0, 46, 0
2, 743228, Note_on_c, 0, 67, 92
2, 743231, Note_on_c, 0, 55, 72
2, 743370, Note_on_c, 0, 55, 0
2, 743476, Note_on_c, 0, 67, 0
2, 743580, Note_on_c, 0, 66, 78
2, 743580, Note_on_c, 0, 54, 77
2, 743620, Note_on_c, 0, 58, 24
2, 743666, Note_on_c, 0, 50, 31
2, 743742, Note_on_c, 0, 54, 0
2, 743840, Note_on_c, 0, 66, 0
2, 743848, Note_on_c, 0, 67, 93
2, 743856, Note_on_c, 0, 55, 81
2, 743886, Note_on_c, 0, 58, 0
2, 743904, Note_on_c, 0, 55, 0
2, 743954, Note_on_c, 0, 67, 0
2, 744032, Note_on_c, 0, 66, 77
2, 744116, Note_on_c, 0, 67, 80
2, 744172, Note_on_c, 0, 50, 0
2, 744200, Note_on_c, 0, 69, 81
2, 744202, Note_on_c, 0, 66, 0
2, 744250, Note_on_c, 0, 67, 0
2, 744260, Note_on_c, 0, 69, 0
2, 744292, Note_on_c, 0, 51, 47
2, 744312, Note_on_c, 0, 58, 28
2, 744378, Note_on_c, 0, 67, 93
2, 744388, Note_on_c, 0, 55, 80
2, 744566, Control_c, 0, 64, 0
2, 744766, Control_c, 0, 64, 127
2, 744806, Note_on_c, 0, 58, 0
2, 745070, Note_on_c, 0, 58, 13
2, 745073, Note_on_c, 0, 50, 35
2, 745078, Note_on_c, 0, 51, 0
2, 745272, Control_c, 0, 64, 0
2, 745440, Control_c, 0, 64, 127
2, 745460, Note_on_c, 0, 58, 0
2, 745690, Note_on_c, 0, 50, 0
2, 745718, Note_on_c, 0, 58, 20
2, 745742, Note_on_c, 0, 49, 25
2, 745888, Control_c, 0, 64, 0
2, 746072, Control_c, 0, 64, 127
2, 746126, Note_on_c, 0, 58, 0
2, 746338, Note_on_c, 0, 49, 0
2, 746378, Note_on_c, 0, 58, 13
2, 746394, Note_on_c, 0, 50, 28
2, 746440, Control_c, 0, 64, 0
2, 746608, Control_c, 0, 64, 127
2, 746664, Note_on_c, 0, 55, 0
2, 746706, Note_on_c, 0, 58, 0
2, 746766, Note_on_c, 0, 50, 0
2, 747114, Note_on_c, 0, 59, 52
2, 747124, Note_on_c, 0, 41, 34
2, 747134, Note_on_c, 0, 53, 46
2, 747142, Note_on_c, 0, 67, 0
2, 747224, Control_c, 0, 64, 0
2, 747346, Control_c, 0, 64, 127
2, 747394, Note_on_c, 0, 41, 0
2, 747418, Note_on_c, 0, 71, 69
2, 747468, Note_on_c, 0, 53, 0
2, 747760, Note_on_c, 0, 59, 0
2, 747844, Note_on_c, 0, 55, 46
2, 747844, Note_on_c, 0, 62, 46
2, 748134, Note_on_c, 0, 62, 0
2, 748332, Note_on_c, 0, 55, 0
2, 748486, Note_on_c, 0, 56, 58
2, 748496, Note_on_c, 0, 62, 50
2, 748696, Note_on_c, 0, 62, 0
2, 748876, Note_on_c, 0, 59, 2
2, 749030, Note_on_c, 0, 56, 0
2, 749100, Note_on_c, 0, 55, 66
2, 749108, Note_on_c, 0, 62, 43
2, 749452, Control_c, 0, 64, 0
2, 749544, Control_c, 0, 64, 127
2, 749582, Note_on_c, 0, 62, 0
2, 749624, Note_on_c, 0, 59, 0
2, 749776, Note_on_c, 0, 55, 0
2, 749786, Note_on_c, 0, 62, 55
2, 749789, Note_on_c, 0, 54, 59
2, 749986, Note_on_c, 0, 62, 0
2, 750114, Note_on_c, 0, 74, 104
2, 750124, Note_on_c, 0, 62, 85
2, 750168, Note_on_c, 0, 71, 0
2, 750318, Note_on_c, 0, 62, 0
2, 750358, Note_on_c, 0, 74, 0
2, 750464, Note_on_c, 0, 54, 0
2, 750490, Note_on_c, 0, 72, 105
2, 750508, Note_on_c, 0, 60, 85
2, 750532, Note_on_c, 0, 55, 49
2, 750542, Note_on_c, 0, 62, 32
2, 750638, Note_on_c, 0, 62, 0
2, 750660, Note_on_c, 0, 60, 0
2, 750684, Note_on_c, 0, 72, 0
2, 750740, Note_on_c, 0, 55, 0
2, 750800, Note_on_c, 0, 71, 116
2, 750816, Note_on_c, 0, 59, 92
2, 750930, Note_on_c, 0, 59, 0
2, 751024, Note_on_c, 0, 71, 0
2, 751122, Note_on_c, 0, 74, 115
2, 751136, Note_on_c, 0, 39, 41
2, 751138, Note_on_c, 0, 62, 87
2, 751138, Note_on_c, 0, 51, 51
2, 751188, Control_c, 0, 64, 0
2, 751356, Control_c, 0, 64, 127
2, 751366, Note_on_c, 0, 39, 0
2, 751398, Note_on_c, 0, 62, 0
2, 751406, Note_on_c, 0, 74, 0
2, 751408, Note_on_c, 0, 51, 0
2, 751514, Note_on_c, 0, 72, 97
2, 751522, Note_on_c, 0, 60, 81
2, 751650, Note_on_c, 0, 60, 0
2, 751698, Note_on_c, 0, 72, 0
2, 751830, Note_on_c, 0, 71, 111
2, 751850, Note_on_c, 0, 63, 59
2, 751850, Note_on_c, 0, 59, 85
2, 751853, Note_on_c, 0, 55, 57
2, 752016, Note_on_c, 0, 59, 0
2, 752066, Note_on_c, 0, 71, 0
2, 752082, Note_on_c, 0, 63, 0
2, 752142, Note_on_c, 0, 72, 109
2, 752154, Note_on_c, 0, 60, 90
2, 752248, Note_on_c, 0, 60, 0
2, 752396, Note_on_c, 0, 72, 0
2, 752418, Note_on_c, 0, 56, 60
2, 752440, Note_on_c, 0, 55, 0
2, 752470, Note_on_c, 0, 63, 64
2, 752506, Note_on_c, 0, 71, 104
2, 752608, Note_on_c, 0, 72, 93
2, 752660, Note_on_c, 0, 71, 0
2, 752726, Note_on_c, 0, 74, 97
2, 752766, Note_on_c, 0, 63, 0
2, 752778, Note_on_c, 0, 72, 0
2, 752778, Note_on_c, 0, 74, 0
2, 752858, Note_on_c, 0, 72, 78
2, 752882, Note_on_c, 0, 60, 78
2, 753070, Note_on_c, 0, 63, 67
2, 753078, Note_on_c, 0, 55, 87
2, 753092, Note_on_c, 0, 56, 0
2, 753200, Control_c, 0, 64, 0
2, 753386, Control_c, 0, 64, 127
2, 753534, Note_on_c, 0, 63, 0
2, 753736, Note_on_c, 0, 63, 78
2, 753739, Note_on_c, 0, 54, 86
2, 753744, Note_on_c, 0, 55, 0
2, 754230, Control_c, 0, 64, 0
2, 754284, Note_on_c, 0, 63, 0
2, 754292, Control_c, 0, 64, 127
2, 754392, Note_on_c, 0, 63, 86
2, 754402, Note_on_c, 0, 55, 90
2, 754434, Note_on_c, 0, 54, 0
2, 754538, Note_on_c, 0, 63, 0
2, 754558, Note_on_c, 0, 55, 0
2, 754748, Note_on_c, 0, 60, 0
2, 754958, Note_on_c, 0, 72, 0
2, 755098, Note_on_c, 0, 60, 116
2, 755100, Note_on_c, 0, 48, 103
2, 755710, Note_on_c, 0, 78, 86
2, 755712, Note_on_c, 0, 66, 63
2, 755720, Note_on_c, 0, 69, 56
2, 755728, Note_on_c, 0, 74, 78
2, 755828, Control_c, 0, 64, 0
2, 756090, Control_c, 0, 64, 127
2, 756134, Note_on_c, 0, 69, 0
2, 756137, Note_on_c, 0, 74, 0
2, 756182, Note_on_c, 0, 78, 0
2, 756200, Note_on_c, 0, 66, 0
2, 756362, Note_on_c, 0, 66, 86
2, 756365, Note_on_c, 0, 75, 86
2, 756368, Note_on_c, 0, 78, 100
2, 756378, Note_on_c, 0, 69, 65
2, 756582, Control_c, 0, 64, 0
2, 756750, Control_c, 0, 64, 127
2, 756788, Note_on_c, 0, 69, 0
2, 756822, Note_on_c, 0, 75, 0
2, 756892, Note_on_c, 0, 66, 0
2, 756904, Note_on_c, 0, 78, 0
2, 757022, Note_on_c, 0, 66, 82
2, 757024, Note_on_c, 0, 74, 96
2, 757030, Note_on_c, 0, 78, 95
2, 757036, Note_on_c, 0, 69, 70
2, 757376, Note_on_c, 0, 69, 0
2, 757418, Note_on_c, 0, 78, 0
2, 757448, Note_on_c, 0, 66, 0
2, 757612, Note_on_c, 0, 74, 0
2, 757622, Note_on_c, 0, 78, 97
2, 757632, Note_on_c, 0, 66, 73
2, 757634, Note_on_c, 0, 73, 79
2, 757640, Note_on_c, 0, 69, 67
2, 757642, Note_on_c, 0, 48, 0
2, 757714, Note_on_c, 0, 60, 0
2, 757932, Note_on_c, 0, 51, 93
2, 757934, Note_on_c, 0, 63, 110
2, 757954, Note_on_c, 0, 69, 0
2, 758050, Note_on_c, 0, 66, 0
2, 758052, Note_on_c, 0, 78, 0
2, 758226, Note_on_c, 0, 63, 0
2, 758274, Note_on_c, 0, 78, 102
2, 758274, Note_on_c, 0, 66, 96
2, 758276, Note_on_c, 0, 51, 0
2, 758276, Note_on_c, 0, 62, 112
2, 758282, Note_on_c, 0, 69, 78
2, 758282, Note_on_c, 0, 50, 102
2, 758282, Note_on_c, 0, 74, 97
2, 758364, Control_c, 0, 64, 0
2, 758370, Note_on_c, 0, 73, 0
2, 758486, Control_c, 0, 64, 127
2, 758530, Note_on_c, 0, 62, 0
2, 758538, Note_on_c, 0, 50, 0
2, 758584, Note_on_c, 0, 69, 0
2, 758606, Note_on_c, 0, 60, 116
2, 758616, Note_on_c, 0, 48, 102
2, 758642, Note_on_c, 0, 66, 0
2, 758650, Note_on_c, 0, 74, 0
2, 758712, Note_on_c, 0, 78, 0
2, 758838, Note_on_c, 0, 60, 0
2, 758850, Note_on_c, 0, 48, 0
2, 758942, Note_on_c, 0, 79, 112
2, 758945, Note_on_c, 0, 67, 98
2, 758952, Note_on_c, 0, 60, 108
2, 758956, Note_on_c, 0, 48, 82
2, 758958, Note_on_c, 0, 74, 95
2, 759174, Note_on_c, 0, 60, 0
2, 759206, Note_on_c, 0, 48, 0
2, 759298, Note_on_c, 0, 58, 97
2, 759301, Note_on_c, 0, 46, 95
2, 759412, Note_on_c, 0, 74, 0
2, 759444, Note_on_c, 0, 79, 0
2, 759500, Note_on_c, 0, 67, 0
2, 759568, Note_on_c, 0, 58, 0
2, 759626, Note_on_c, 0, 57, 109
2, 759626, Note_on_c, 0, 79, 106
2, 759629, Note_on_c, 0, 45, 97
2, 759634, Note_on_c, 0, 74, 100
2, 759634, Note_on_c, 0, 67, 98
2, 759640, Note_on_c, 0, 46, 0
2, 759714, Control_c, 0, 64, 0
2, 759854, Control_c, 0, 64, 127
2, 759868, Note_on_c, 0, 57, 0
2, 759906, Note_on_c, 0, 45, 0
2, 759978, Note_on_c, 0, 58, 115
2, 759984, Note_on_c, 0, 46, 101
2, 760026, Note_on_c, 0, 79, 0
2, 760080, Note_on_c, 0, 46, 0
2, 760084, Note_on_c, 0, 58, 0
2, 760168, Note_on_c, 0, 67, 0
2, 760374, Note_on_c, 0, 79, 113
2, 760380, Note_on_c, 0, 69, 89
2, 760382, Note_on_c, 0, 65, 119
2, 760382, Note_on_c, 0, 72, 94
2, 760385, Note_on_c, 0, 53, 127
2, 760450, Note_on_c, 0, 74, 0
2, 760514, Control_c, 0, 64, 0
2, 760684, Control_c, 0, 64, 127
2, 760740, Note_on_c, 0, 65, 0
2, 760756, Note_on_c, 0, 53, 0
2, 760804, Note_on_c, 0, 63, 115
2, 760820, Note_on_c, 0, 51, 108
2, 761004, Note_on_c, 0, 79, 0
2, 761036, Note_on_c, 0, 72, 0
2, 761052, Note_on_c, 0, 69, 0
2, 761104, Note_on_c, 0, 63, 0
2, 761160, Note_on_c, 0, 75, 102
2, 761160, Note_on_c, 0, 62, 113
2, 761162, Note_on_c, 0, 79, 120
2, 761166, Note_on_c, 0, 50, 105
2, 761169, Note_on_c, 0, 51, 0
2, 761169, Note_on_c, 0, 69, 100
2, 761236, Control_c, 0, 64, 0
2, 761400, Control_c, 0, 64, 127
2, 761448, Note_on_c, 0, 62, 0
2, 761464, Note_on_c, 0, 50, 0
2, 761528, Note_on_c, 0, 60, 115
2, 761536, Note_on_c, 0, 48, 104
2, 761812, Note_on_c, 0, 79, 0
2, 761844, Note_on_c, 0, 69, 0
2, 761852, Note_on_c, 0, 48, 0
2, 761888, Note_on_c, 0, 75, 0
2, 761896, Note_on_c, 0, 60, 0
2, 762010, Note_on_c, 0, 79, 124
2, 762014, Note_on_c, 0, 69, 104
2, 762018, Note_on_c, 0, 74, 106
2, 762020, Note_on_c, 0, 62, 115
2, 762024, Note_on_c, 0, 50, 113
2, 762266, Control_c, 0, 64, 0
2, 762572, Control_c, 0, 64, 127
2, 762600, Note_on_c, 0, 74, 0
2, 762660, Note_on_c, 0, 69, 0
2, 762732, Note_on_c, 0, 79, 0
2, 762834, Note_on_c, 0, 78, 118
2, 762840, Note_on_c, 0, 69, 95
2, 762848, Note_on_c, 0, 74, 102
2, 763020, Control_c, 0, 64, 0
2, 763158, Control_c, 0, 64, 127
2, 763234, Note_on_c, 0, 74, 0
2, 763392, Note_on_c, 0, 78, 0
2, 763410, Note_on_c, 0, 69, 0
2, 763438, Note_on_c, 0, 62, 0
2, 763478, Note_on_c, 0, 50, 0
2, 763514, Note_on_c, 0, 79, 121
2, 763624, Note_on_c, 0, 51, 115
2, 763740, Note_on_c, 0, 63, 115
2, 763810, Note_on_c, 0, 79, 0
2, 763874, Note_on_c, 0, 67, 112
2, 763986, Note_on_c, 0, 74, 118
2, 764186, Note_on_c, 0, 79, 124
2, 764326, Control_c, 0, 64, 0
2, 764616, Control_c, 0, 64, 127
2, 764776, Note_on_c, 0, 67, 0
2, 764818, Note_on_c, 0, 74, 0
2, 764994, Note_on_c, 0, 67, 87
2, 765004, Note_on_c, 0, 74, 101
2, 765368, Note_on_c, 0, 67, 0
2, 765716, Note_on_c, 0, 67, 73
2, 765724, Note_on_c, 0, 72, 85
2, 765772, Note_on_c, 0, 74, 0
2, 765938, Control_c, 0, 64, 0
2, 766168, Control_c, 0, 64, 127
2, 766254, Note_on_c, 0, 67, 0
2, 766258, Note_on_c, 0, 72, 0
2, 766436, Note_on_c, 0, 67, 67
2, 766439, Note_on_c, 0, 72, 73
2, 766790, Note_on_c, 0, 67, 0
2, 766902, Note_on_c, 0, 51, 0
2, 766982, Note_on_c, 0, 72, 0
2, 767108, Note_on_c, 0, 63, 0
2, 767208, Note_on_c, 0, 74, 60
2, 767218, Note_on_c, 0, 67, 27
2, 767240, Note_on_c, 0, 59, 62
2, 767352, Control_c, 0, 64, 0
2, 767660, Control_c, 0, 64, 127
2, 767716, Note_on_c, 0, 67, 0
2, 767736, Note_on_c, 0, 74, 0
2, 767942, Note_on_c, 0, 74, 48
2, 767946, Note_on_c, 0, 67, 43
2, 768130, Note_on_c, 0, 67, 0
2, 768348, Note_on_c, 0, 77, 97
2, 768428, Note_on_c, 0, 79, 0
2, 768460, Note_on_c, 0, 74, 0
2, 768630, Note_on_c, 0, 77, 0
2, 768878, Note_on_c, 0, 77, 101
2, 768896, Note_on_c, 0, 67, 71
2, 768899, Note_on_c, 0, 72, 50
2, 768910, Note_on_c, 0, 59, 0
2, 768916, Note_on_c, 0, 60, 44
2, 769398, Note_on_c, 0, 76, 86
2, 769456, Control_c, 0, 64, 0
2, 769466, Note_on_c, 0, 77, 0
2, 769640, Control_c, 0, 64, 127
2, 769646, Note_on_c, 0, 67, 0
2, 769690, Note_on_c, 0, 72, 0
2, 769714, Note_on_c, 0, 76, 0
2, 769864, Note_on_c, 0, 76, 75
2, 769874, Note_on_c, 0, 70, 40
2, 769880, Note_on_c, 0, 67, 49
2, 770086, Control_c, 0, 64, 0
2, 770224, Control_c, 0, 64, 127
2, 770282, Note_on_c, 0, 75, 77
2, 770318, Note_on_c, 0, 76, 0
2, 770454, Note_on_c, 0, 67, 0
2, 770514, Note_on_c, 0, 75, 0
2, 770540, Note_on_c, 0, 70, 0
2, 770764, Note_on_c, 0, 75, 52
2, 770792, Note_on_c, 0, 69, 27
2, 770795, Note_on_c, 0, 66, 20
2, 770916, Control_c, 0, 64, 0
2, 771008, Control_c, 0, 64, 127
2, 771086, Control_c, 0, 64, 0
2, 771300, Control_c, 0, 64, 127
2, 771358, Note_on_c, 0, 74, 48
2, 771420, Note_on_c, 0, 75, 0
2, 771602, Note_on_c, 0, 74, 0
2, 771750, Note_on_c, 0, 66, 0
2, 771876, Note_on_c, 0, 58, 35
2, 771890, Note_on_c, 0, 74, 46
2, 771908, Note_on_c, 0, 67, 24
2, 771914, Note_on_c, 0, 69, 0
2, 771922, Note_on_c, 0, 60, 0
2, 772114, Control_c, 0, 64, 0
2, 772268, Control_c, 0, 64, 127
2, 772356, Note_on_c, 0, 60, 47
2, 772370, Note_on_c, 0, 58, 0
2, 772468, Control_c, 0, 64, 0
2, 772590, Control_c, 0, 64, 127
2, 772618, Note_on_c, 0, 67, 0
2, 772632, Note_on_c, 0, 74, 0
2, 772972, Note_on_c, 0, 79, 90
2, 772984, Note_on_c, 0, 69, 47
2, 772996, Note_on_c, 0, 74, 48
2, 773012, Note_on_c, 0, 60, 0
2, 773024, Note_on_c, 0, 62, 40
2, 773076, Note_on_c, 0, 74, 0
2, 773204, Note_on_c, 0, 74, 2
2, 773264, Note_on_c, 0, 78, 86
2, 773358, Note_on_c, 0, 79, 0
2, 773476, Note_on_c, 0, 76, 92
2, 773524, Note_on_c, 0, 78, 0
2, 773684, Note_on_c, 0, 78, 90
2, 773720, Note_on_c, 0, 76, 0
2, 773820, Control_c, 0, 64, 0
2, 773990, Control_c, 0, 64, 127
2, 774008, Note_on_c, 0, 74, 0
2, 774038, Note_on_c, 0, 69, 0
2, 774354, Note_on_c, 0, 69, 48
2, 774386, Note_on_c, 0, 74, 43
2, 774866, Note_on_c, 0, 79, 109
2, 774930, Note_on_c, 0, 74, 0
2, 774940, Note_on_c, 0, 78, 0
2, 775036, Note_on_c, 0, 69, 0
2, 775300, Note_on_c, 0, 79, 0
2, 775540, Note_on_c, 0, 62, 0
2, 775696, Note_on_c, 0, 79, 90
2, 775703, Note_on_c, 0, 67, 31
2, 775711, Note_on_c, 0, 74, 23
2, 775712, Note_on_c, 0, 70, 32
2, 775880, Control_c, 0, 64, 0
2, 776078, Control_c, 0, 64, 127
2, 776093, Note_on_c, 0, 67, 0
2, 776509, Note_on_c, 0, 74, 0
2, 776648, Note_on_c, 0, 55, 69
2, 776651, Note_on_c, 0, 43, 60
2, 776672, Note_on_c, 0, 79, 0
2, 776794, Note_on_c, 0, 70, 0
2, 776904, Note_on_c, 0, 43, 0
2, 777116, Note_on_c, 0, 55, 0
2, 777338, Note_on_c, 0, 58, 20
2, 777338, Note_on_c, 0, 62, 21
2, 777342, Note_on_c, 0, 53, 86
2, 777344, Note_on_c, 0, 67, 35
2, 777362, Note_on_c, 0, 41, 40
2, 777680, Note_on_c, 0, 53, 0
2, 777720, Note_on_c, 0, 41, 0
2, 777940, Note_on_c, 0, 39, 77
2, 777940, Note_on_c, 0, 51, 77
2, 778202, Note_on_c, 0, 62, 0
2, 778208, Note_on_c, 0, 67, 0
2, 778240, Note_on_c, 0, 58, 0
2, 778322, Note_on_c, 0, 39, 0
2, 778398, Note_on_c, 0, 51, 0
2, 778518, Note_on_c, 0, 50, 52
2, 778518, Note_on_c, 0, 67, 37
2, 778522, Note_on_c, 0, 58, 25
2, 778526, Note_on_c, 0, 62, 33
2, 778530, Note_on_c, 0, 38, 40
2, 778568, Control_c, 0, 64, 0
2, 778722, Control_c, 0, 64, 127
2, 778922, Note_on_c, 0, 50, 0
2, 778942, Note_on_c, 0, 38, 0
2, 779124, Note_on_c, 0, 36, 37
2, 779150, Note_on_c, 0, 48, 36
2, 779244, Control_c, 0, 64, 0
2, 779382, Control_c, 0, 64, 127
2, 779468, Note_on_c, 0, 67, 0
2, 779490, Note_on_c, 0, 62, 0
2, 779504, Note_on_c, 0, 58, 0
2, 779520, Note_on_c, 0, 48, 0
2, 779572, Note_on_c, 0, 36, 0
2, 779838, Note_on_c, 0, 58, 12
2, 779838, Note_on_c, 0, 67, 27
2, 779848, Note_on_c, 0, 46, 17
2, 779850, Note_on_c, 0, 62, 29
2, 779866, Note_on_c, 0, 34, 23
2, 779934, Control_c, 0, 64, 0
2, 780104, Control_c, 0, 64, 127
2, 780392, Note_on_c, 0, 34, 0
2, 780434, Note_on_c, 0, 46, 0
2, 780870, Note_on_c, 0, 45, 14
2, 780874, Note_on_c, 0, 33, 20
2, 781212, Control_c, 0, 64, 0
2, 781348, Control_c, 0, 64, 127
2, 781460, Note_on_c, 0, 58, 0
2, 781474, Note_on_c, 0, 62, 0
2, 781484, Note_on_c, 0, 67, 0
2, 781494, Note_on_c, 0, 45, 0
2, 781528, Note_on_c, 0, 33, 0
2, 782772, Note_on_c, 0, 31, 17
2, 782772, Note_on_c, 0, 43, 18
2, 782776, Note_on_c, 0, 67, 12
2, 782780, Note_on_c, 0, 62, 11
2, 782792, Note_on_c, 0, 58, 2
2, 783976, Control_c, 0, 64, 0
2, 784054, Control_c, 0, 64, 127
2, 785206, Control_c, 0, 64, 0
2, 785328, Control_c, 0, 64, 127
2, 787220, Note_on_c, 0, 43, 0
2, 787746, Note_on_c, 0, 58, 0
2, 787800, Note_on_c, 0, 62, 0
2, 787834, Note_on_c, 0, 31, 0
2, 787846, Note_on_c, 0, 67, 0
2, 789062, Control_c, 0, 64, 0
2, 791040, Control_c, 0, 64, 0
2, 794880, Note_on_c, 0, 74, 73
2, 794916, Note_on_c, 0, 74, 0
2, 795116, Note_on_c, 0, 79, 108
2, 795138, Note_on_c, 0, 67, 51
2, 795210, Note_on_c, 0, 67, 0
2, 795220, Note_on_c, 0, 74, 79
2, 795246, Note_on_c, 0, 79, 0
2, 795248, Note_on_c, 0, 62, 58
2, 795282, Note_on_c, 0, 74, 0
2, 795302, Note_on_c, 0, 62, 0
2, 795342, Note_on_c, 0, 71, 49
2, 795354, Note_on_c, 0, 55, 59
2, 795404, Note_on_c, 0, 71, 0
2, 795428, Note_on_c, 0, 69, 56
2, 795430, Note_on_c, 0, 55, 0
2, 795488, Note_on_c, 0, 69, 0
2, 795492, Note_on_c, 0, 62, 27
2, 795554, Note_on_c, 0, 71, 86
2, 795562, Note_on_c, 0, 62, 0
2, 795580, Note_on_c, 0, 55, 48
2, 795598, Note_on_c, 0, 71, 0
2, 795642, Note_on_c, 0, 55, 0
2, 795646, Note_on_c, 0, 62, 42
2, 795650, Note_on_c, 0, 74, 80
2, 795708, Note_on_c, 0, 74, 0
2, 795714, Note_on_c, 0, 62, 0
2, 795762, Note_on_c, 0, 79, 75
2, 795768, Note_on_c, 0, 67, 54
2, 795828, Note_on_c, 0, 67, 0
2, 795850, Note_on_c, 0, 79, 0
2, 795860, Note_on_c, 0, 74, 70
2, 795894, Note_on_c, 0, 62, 44
2, 795906, Note_on_c, 0, 74, 0
2, 795952, Note_on_c, 0, 62, 0
2, 795976, Note_on_c, 0, 71, 97
2, 795986, Note_on_c, 0, 67, 69
2, 796024, Note_on_c, 0, 71, 0
2, 796042, Note_on_c, 0, 67, 0
2, 796138, Note_on_c, 0, 62, 49
2, 796192, Note_on_c, 0, 62, 0
2, 796212, Note_on_c, 0, 55, 59
2, 796215, Note_on_c, 0, 67, 62
2, 796266, Note_on_c, 0, 67, 0
2, 796298, Note_on_c, 0, 55, 0
2, 796314, Note_on_c, 0, 62, 34
2, 796386, Note_on_c, 0, 62, 0
2, 796428, Note_on_c, 0, 67, 72
2, 796446, Note_on_c, 0, 55, 41
2, 796474, Note_on_c, 0, 67, 0
2, 796508, Note_on_c, 0, 55, 0
2, 796536, Note_on_c, 0, 62, 20
2, 796610, Note_on_c, 0, 62, 0
2, 796644, Note_on_c, 0, 67, 35
2, 796650, Note_on_c, 0, 71, 89
2, 796692, Note_on_c, 0, 71, 0
2, 796714, Note_on_c, 0, 67, 0
2, 796722, Note_on_c, 0, 62, 34
2, 796806, Note_on_c, 0, 62, 0
2, 796862, Note_on_c, 0, 66, 56
2, 796870, Note_on_c, 0, 69, 93
2, 796920, Note_on_c, 0, 66, 0
2, 796926, Note_on_c, 0, 69, 0
2, 796994, Note_on_c, 0, 62, 46
2, 797064, Note_on_c, 0, 62, 0
2, 797102, Note_on_c, 0, 66, 65
2, 797108, Note_on_c, 0, 55, 56
2, 797176, Note_on_c, 0, 66, 0
2, 797179, Note_on_c, 0, 55, 0
2, 797248, Note_on_c, 0, 62, 42
2, 797308, Note_on_c, 0, 62, 0
2, 797314, Note_on_c, 0, 66, 66
2, 797340, Note_on_c, 0, 55, 64
2, 797362, Note_on_c, 0, 66, 0
2, 797390, Note_on_c, 0, 55, 0
2, 797402, Note_on_c, 0, 62, 42
2, 797474, Note_on_c, 0, 62, 0
2, 797516, Note_on_c, 0, 69, 70
2, 797520, Note_on_c, 0, 66, 41
2, 797562, Note_on_c, 0, 69, 0
2, 797606, Note_on_c, 0, 66, 0
2, 797652, Note_on_c, 0, 62, 42
2, 797710, Note_on_c, 0, 62, 0
2, 797758, Note_on_c, 0, 71, 101
2, 797762, Note_on_c, 0, 67, 56
2, 797820, Note_on_c, 0, 67, 0
2, 797864, Note_on_c, 0, 71, 0
2, 797888, Note_on_c, 0, 62, 55
2, 797946, Note_on_c, 0, 62, 0
2, 797996, Note_on_c, 0, 55, 51
2, 798004, Note_on_c, 0, 67, 57
2, 798058, Note_on_c, 0, 67, 0
2, 798070, Note_on_c, 0, 55, 0
2, 798108, Note_on_c, 0, 62, 35
2, 798170, Note_on_c, 0, 62, 0
2, 798210, Note_on_c, 0, 67, 67
2, 798222, Note_on_c, 0, 55, 39
2, 798260, Note_on_c, 0, 67, 0
2, 798284, Note_on_c, 0, 55, 0
2, 798284, Note_on_c, 0, 62, 29
2, 798344, Note_on_c, 0, 62, 0
2, 798412, Note_on_c, 0, 67, 34
2, 798414, Note_on_c, 0, 71, 89
2, 798478, Note_on_c, 0, 71, 0
2, 798482, Note_on_c, 0, 67, 0
2, 798522, Note_on_c, 0, 62, 54
2, 798530, Note_on_c, 0, 74, 65
2, 798578, Note_on_c, 0, 62, 0
2, 798586, Note_on_c, 0, 74, 0
2, 798628, Note_on_c, 0, 64, 52
2, 798650, Note_on_c, 0, 72, 67
2, 798684, Note_on_c, 0, 64, 0
2, 798712, Note_on_c, 0, 72, 0
2, 798744, Note_on_c, 0, 74, 63
2, 798756, Note_on_c, 0, 62, 33
2, 798810, Note_on_c, 0, 74, 0
2, 798822, Note_on_c, 0, 62, 0
2, 798852, Note_on_c, 0, 66, 44
2, 798862, Note_on_c, 0, 72, 24
2, 798924, Note_on_c, 0, 66, 0
2, 798932, Note_on_c, 0, 72, 0
2, 798966, Note_on_c, 0, 74, 57
2, 798996, Note_on_c, 0, 62, 25
2, 799024, Note_on_c, 0, 74, 0
2, 799060, Note_on_c, 0, 62, 0
2, 799088, Note_on_c, 0, 71, 50
2, 799096, Note_on_c, 0, 69, 57
2, 799152, Note_on_c, 0, 69, 0
2, 799156, Note_on_c, 0, 71, 0
2, 799250, Note_on_c, 0, 62, 35
2, 799316, Note_on_c, 0, 62, 0
2, 799326, Note_on_c, 0, 71, 40
2, 799329, Note_on_c, 0, 67, 52
2, 799388, Note_on_c, 0, 71, 0
2, 799390, Note_on_c, 0, 67, 0
2, 799414, Note_on_c, 0, 74, 65
2, 799426, Note_on_c, 0, 62, 34
2, 799472, Note_on_c, 0, 74, 0
2, 799512, Note_on_c, 0, 62, 0
2, 799538, Note_on_c, 0, 72, 86
2, 799550, Note_on_c, 0, 64, 67
2, 799612, Note_on_c, 0, 64, 0
2, 799640, Note_on_c, 0, 74, 77
2, 799652, Note_on_c, 0, 62, 50
2, 799664, Note_on_c, 0, 72, 0
2, 799708, Note_on_c, 0, 62, 0
2, 799732, Note_on_c, 0, 74, 0
2, 799746, Note_on_c, 0, 72, 58
2, 799762, Note_on_c, 0, 66, 42
2, 799828, Note_on_c, 0, 66, 0
2, 799854, Note_on_c, 0, 72, 0
2, 799870, Note_on_c, 0, 74, 50
2, 799880, Note_on_c, 0, 62, 39
2, 799938, Note_on_c, 0, 62, 0
2, 799940, Note_on_c, 0, 74, 0
2, 799974, Note_on_c, 0, 71, 78
2, 799984, Note_on_c, 0, 69, 59
2, 800036, Note_on_c, 0, 69, 0
2, 800040, Note_on_c, 0, 71, 0
2, 800112, Note_on_c, 0, 62, 32
2, 800176, Note_on_c, 0, 62, 0
2, 800196, Note_on_c, 0, 71, 72
2, 800208, Note_on_c, 0, 67, 48
2, 800260, Note_on_c, 0, 71, 0
2, 800270, Note_on_c, 0, 67, 0
2, 800296, Note_on_c, 0, 62, 39
2, 800322, Note_on_c, 0, 74, 49
2, 800368, Note_on_c, 0, 62, 0
2, 800396, Note_on_c, 0, 74, 0
2, 800424, Note_on_c, 0, 69, 83
2, 800428, Note_on_c, 0, 66, 58
2, 800490, Note_on_c, 0, 66, 0
2, 800532, Note_on_c, 0, 62, 42
2, 800538, Note_on_c, 0, 69, 0
2, 800541, Note_on_c, 0, 74, 77
2, 800592, Note_on_c, 0, 62, 0
2, 800597, Note_on_c, 0, 74, 0
2, 800634, Note_on_c, 0, 66, 58
2, 800648, Note_on_c, 0, 69, 40
2, 800696, Note_on_c, 0, 66, 0
2, 800732, Note_on_c, 0, 69, 0
2, 800740, Note_on_c, 0, 74, 59
2, 800774, Note_on_c, 0, 62, 43
2, 800786, Note_on_c, 0, 74, 0
2, 800832, Note_on_c, 0, 62, 0
2, 800844, Note_on_c, 0, 73, 88
2, 800858, Note_on_c, 0, 64, 80
2, 800858, Note_on_c, 0, 69, 67
2, 800908, Note_on_c, 0, 64, 0
2, 800916, Note_on_c, 0, 69, 0
2, 800950, Note_on_c, 0, 73, 0
2, 800953, Note_on_c, 0, 79, 85
2, 800966, Note_on_c, 0, 62, 36
2, 801016, Note_on_c, 0, 79, 0
2, 801022, Note_on_c, 0, 62, 0
2, 801048, Note_on_c, 0, 73, 50
2, 801056, Note_on_c, 0, 64, 78
2, 801062, Note_on_c, 0, 69, 49
2, 801098, Note_on_c, 0, 64, 0
2, 801128, Note_on_c, 0, 69, 0
2, 801162, Note_on_c, 0, 73, 0
2, 801164, Note_on_c, 0, 79, 69
2, 801220, Note_on_c, 0, 79, 0
2, 801256, Note_on_c, 0, 69, 94
2, 801256, Note_on_c, 0, 78, 95
2, 801259, Note_on_c, 0, 62, 83
2, 801262, Note_on_c, 0, 74, 92
2, 801292, Note_on_c, 0, 78, 0
2, 801295, Note_on_c, 0, 69, 0
2, 801295, Note_on_c, 0, 74, 0
2, 801302, Note_on_c, 0, 62, 0
2, 801500, Note_on_c, 0, 62, 117
2, 801514, Note_on_c, 0, 50, 97
2, 801526, Note_on_c, 0, 38, 69
2, 801550, Note_on_c, 0, 62, 0
2, 801558, Note_on_c, 0, 50, 0
2, 801572, Note_on_c, 0, 38, 0
2, 801744, Note_on_c, 0, 62, 112
2, 801750, Note_on_c, 0, 50, 116
2, 801754, Note_on_c, 0, 38, 103
2, 801774, Note_on_c, 0, 62, 0
2, 801784, Note_on_c, 0, 38, 0
2, 801790, Note_on_c, 0, 50, 0
2, 801808, Control_c, 0, 64, 127
2, 801854, Control_c, 0, 64, 0
2, 802026, Note_on_c, 0, 74, 97
2, 802060, Note_on_c, 0, 74, 0
2, 802282, Note_on_c, 0, 79, 97
2, 802287, Note_on_c, 0, 67, 81
2, 802336, Note_on_c, 0, 67, 0
2, 802360, Control_c, 0, 64, 127
2, 802384, Note_on_c, 0, 74, 80
2, 802394, Note_on_c, 0, 79, 0
2, 802410, Note_on_c, 0, 62, 56
2, 802458, Note_on_c, 0, 74, 0
2, 802466, Note_on_c, 0, 62, 0
2, 802504, Note_on_c, 0, 55, 57
2, 802514, Note_on_c, 0, 71, 59
2, 802572, Note_on_c, 0, 71, 0
2, 802586, Note_on_c, 0, 55, 0
2, 802589, Control_c, 0, 64, 0
2, 802602, Note_on_c, 0, 69, 49
2, 802618, Note_on_c, 0, 62, 58
2, 802664, Note_on_c, 0, 69, 0
2, 802670, Note_on_c, 0, 62, 0
2, 802720, Note_on_c, 0, 71, 89
2, 802720, Note_on_c, 0, 55, 67
2, 802780, Note_on_c, 0, 71, 0
2, 802812, Note_on_c, 0, 55, 0
2, 802832, Note_on_c, 0, 62, 57
2, 802835, Note_on_c, 0, 74, 81
2, 802886, Note_on_c, 0, 62, 0
2, 802904, Note_on_c, 0, 74, 0
2, 802932, Note_on_c, 0, 79, 82
2, 802944, Note_on_c, 0, 67, 57
2, 803002, Note_on_c, 0, 67, 0
2, 803032, Note_on_c, 0, 79, 0
2, 803054, Note_on_c, 0, 62, 62
2, 803057, Note_on_c, 0, 74, 47
2, 803110, Note_on_c, 0, 62, 0
2, 803116, Note_on_c, 0, 74, 0
2, 803152, Note_on_c, 0, 71, 101
2, 803164, Note_on_c, 0, 67, 66
2, 803208, Note_on_c, 0, 71, 0
2, 803218, Note_on_c, 0, 67, 0
2, 803280, Note_on_c, 0, 62, 58
2, 803344, Note_on_c, 0, 62, 0
2, 803386, Note_on_c, 0, 67, 64
2, 803398, Note_on_c, 0, 55, 56
2, 803438, Note_on_c, 0, 67, 0
2, 803486, Note_on_c, 0, 55, 0
2, 803524, Note_on_c, 0, 62, 41
2, 803584, Note_on_c, 0, 62, 0
2, 803610, Note_on_c, 0, 67, 72
2, 803618, Note_on_c, 0, 55, 37
2, 803656, Note_on_c, 0, 67, 0
2, 803704, Note_on_c, 0, 55, 0
2, 803716, Note_on_c, 0, 62, 31
2, 803790, Note_on_c, 0, 62, 0
2, 803822, Note_on_c, 0, 67, 59
2, 803830, Note_on_c, 0, 71, 88
2, 803876, Note_on_c, 0, 71, 0
2, 803892, Note_on_c, 0, 67, 0
2, 803958, Note_on_c, 0, 62, 52
2, 804016, Note_on_c, 0, 62, 0
2, 804060, Note_on_c, 0, 69, 77
2, 804062, Note_on_c, 0, 66, 50
2, 804120, Note_on_c, 0, 66, 0
2, 804130, Note_on_c, 0, 69, 0
2, 804192, Note_on_c, 0, 62, 55
2, 804250, Note_on_c, 0, 62, 0
2, 804296, Note_on_c, 0, 66, 49
2, 804300, Note_on_c, 0, 55, 54
2, 804366, Note_on_c, 0, 55, 0
2, 804368, Note_on_c, 0, 66, 0
2, 804416, Note_on_c, 0, 62, 40
2, 804476, Note_on_c, 0, 62, 0
2, 804508, Note_on_c, 0, 66, 66
2, 804520, Note_on_c, 0, 55, 46
2, 804568, Note_on_c, 0, 66, 0
2, 804571, Note_on_c, 0, 62, 36
2, 804575, Note_on_c, 0, 55, 0
2, 804666, Note_on_c, 0, 62, 0
2, 804702, Note_on_c, 0, 66, 41
2, 804704, Note_on_c, 0, 69, 73
2, 804750, Note_on_c, 0, 69, 0
2, 804774, Note_on_c, 0, 66, 0
2, 804850, Note_on_c, 0, 62, 43
2, 804910, Note_on_c, 0, 62, 0
2, 804962, Note_on_c, 0, 71, 90
2, 804972, Note_on_c, 0, 67, 44
2, 805036, Note_on_c, 0, 67, 0
2, 805038, Note_on_c, 0, 71, 0
2, 805082, Note_on_c, 0, 62, 56
2, 805138, Note_on_c, 0, 62, 0
2, 805188, Note_on_c, 0, 55, 57
2, 805192, Note_on_c, 0, 67, 70
2, 805248, Note_on_c, 0, 67, 0
2, 805272, Note_on_c, 0, 55, 0
2, 805322, Note_on_c, 0, 62, 44
2, 805378, Note_on_c, 0, 62, 0
2, 805410, Note_on_c, 0, 67, 60
2, 805430, Note_on_c, 0, 55, 27
2, 805464, Note_on_c, 0, 67, 0
2, 805500, Note_on_c, 0, 55, 0
2, 805510, Note_on_c, 0, 62, 20
2, 805582, Note_on_c, 0, 62, 0
2, 805632, Note_on_c, 0, 67, 46
2, 805642, Note_on_c, 0, 71, 73
2, 805696, Note_on_c, 0, 71, 0
2, 805698, Note_on_c, 0, 67, 0
2, 805734, Note_on_c, 0, 62, 58
2, 805748, Note_on_c, 0, 74, 49
2, 805804, Note_on_c, 0, 74, 0
2, 805804, Note_on_c, 0, 62, 0
2, 805854, Note_on_c, 0, 64, 62
2, 805868, Note_on_c, 0, 72, 62
2, 805910, Note_on_c, 0, 64, 0
2, 805938, Note_on_c, 0, 72, 0
2, 805970, Note_on_c, 0, 62, 54
2, 805970, Note_on_c, 0, 74, 63
2, 806024, Note_on_c, 0, 74, 0
2, 806026, Note_on_c, 0, 62, 0
2, 806086, Note_on_c, 0, 66, 37
2, 806092, Note_on_c, 0, 72, 46
2, 806160, Note_on_c, 0, 66, 0
2, 806174, Note_on_c, 0, 72, 0
2, 806194, Note_on_c, 0, 74, 59
2, 806202, Note_on_c, 0, 62, 48
2, 806254, Note_on_c, 0, 74, 0
2, 806262, Note_on_c, 0, 62, 0
2, 806316, Note_on_c, 0, 69, 57
2, 806319, Note_on_c, 0, 71, 67
2, 806378, Note_on_c, 0, 69, 0
2, 806381, Note_on_c, 0, 71, 0
2, 806458, Note_on_c, 0, 62, 35
2, 806518, Note_on_c, 0, 62, 0
2, 806542, Note_on_c, 0, 71, 63
2, 806556, Note_on_c, 0, 67, 43
2, 806606, Note_on_c, 0, 71, 0
2, 806622, Note_on_c, 0, 67, 0
2, 806660, Note_on_c, 0, 74, 56
2, 806660, Note_on_c, 0, 62, 35
2, 806718, Note_on_c, 0, 74, 0
2, 806742, Note_on_c, 0, 62, 0
2, 806770, Note_on_c, 0, 72, 89
2, 806782, Note_on_c, 0, 64, 56
2, 806844, Note_on_c, 0, 64, 0
2, 806870, Note_on_c, 0, 62, 47
2, 806873, Note_on_c, 0, 74, 79
2, 806894, Note_on_c, 0, 72, 0
2, 806928, Note_on_c, 0, 62, 0
2, 806952, Note_on_c, 0, 74, 0
2, 806976, Note_on_c, 0, 72, 55
2, 806998, Note_on_c, 0, 66, 47
2, 807056, Note_on_c, 0, 72, 0
2, 807068, Note_on_c, 0, 66, 0
2, 807104, Note_on_c, 0, 74, 59
2, 807118, Note_on_c, 0, 62, 41
2, 807160, Note_on_c, 0, 74, 0
2, 807180, Note_on_c, 0, 62, 0
2, 807214, Note_on_c, 0, 69, 57
2, 807214, Note_on_c, 0, 71, 86
2, 807266, Note_on_c, 0, 69, 0
2, 807286, Note_on_c, 0, 71, 0
2, 807342, Note_on_c, 0, 62, 34
2, 807404, Note_on_c, 0, 62, 0
2, 807432, Note_on_c, 0, 67, 62
2, 807434, Note_on_c, 0, 71, 77
2, 807486, Note_on_c, 0, 67, 0
2, 807492, Note_on_c, 0, 71, 0
2, 807530, Note_on_c, 0, 74, 74
2, 807536, Note_on_c, 0, 62, 49
2, 807590, Note_on_c, 0, 74, 0
2, 807594, Note_on_c, 0, 62, 0
2, 807646, Note_on_c, 0, 66, 70
2, 807652, Note_on_c, 0, 69, 80
2, 807704, Note_on_c, 0, 66, 0
2, 807744, Note_on_c, 0, 69, 0
2, 807768, Note_on_c, 0, 62, 48
2, 807771, Note_on_c, 0, 74, 87
2, 807824, Note_on_c, 0, 62, 0
2, 807834, Note_on_c, 0, 74, 0
2, 807870, Note_on_c, 0, 66, 54
2, 807878, Note_on_c, 0, 69, 44
2, 807934, Note_on_c, 0, 66, 0
2, 807950, Note_on_c, 0, 69, 0
2, 807976, Note_on_c, 0, 74, 49
2, 808012, Note_on_c, 0, 62, 41
2, 808028, Note_on_c, 0, 74, 0
2, 808070, Note_on_c, 0, 73, 88
2, 808072, Note_on_c, 0, 62, 0
2, 808084, Note_on_c, 0, 69, 67
2, 808094, Note_on_c, 0, 64, 72
2, 808138, Note_on_c, 0, 64, 0
2, 808140, Note_on_c, 0, 69, 0
2, 808176, Note_on_c, 0, 73, 0
2, 808182, Note_on_c, 0, 79, 90
2, 808186, Note_on_c, 0, 62, 49
2, 808254, Note_on_c, 0, 62, 0
2, 808260, Note_on_c, 0, 79, 0
2, 808282, Note_on_c, 0, 73, 50
2, 808292, Note_on_c, 0, 64, 82
2, 808296, Note_on_c, 0, 69, 46
2, 808348, Note_on_c, 0, 64, 0
2, 808364, Note_on_c, 0, 69, 0
2, 808390, Note_on_c, 0, 79, 70
2, 808396, Note_on_c, 0, 73, 0
2, 808444, Note_on_c, 0, 79, 0
2, 808482, Note_on_c, 0, 62, 95
2, 808488, Note_on_c, 0, 69, 100
2, 808492, Note_on_c, 0, 78, 101
2, 808498, Note_on_c, 0, 74, 90
2, 808518, Note_on_c, 0, 62, 0
2, 808526, Note_on_c, 0, 69, 0
2, 808528, Note_on_c, 0, 78, 0
2, 808530, Note_on_c, 0, 74, 0
2, 808582, Control_c, 0, 64, 127
2, 808614, Control_c, 0, 64, 0
2, 808706, Control_c, 0, 64, 127
2, 808738, Note_on_c, 0, 62, 121
2, 808748, Note_on_c, 0, 50, 98
2, 808766, Note_on_c, 0, 38, 67
2, 808796, Note_on_c, 0, 50, 0
2, 808814, Note_on_c, 0, 38, 0
2, 808814, Note_on_c, 0, 62, 0
2, 808998, Note_on_c, 0, 62, 115
2, 809004, Note_on_c, 0, 50, 115
2, 809008, Note_on_c, 0, 38, 103
2, 809034, Note_on_c, 0, 62, 0
2, 809037, Note_on_c, 0, 38, 0
2, 809037, Note_on_c, 0, 50, 0
2, 809150, Control_c, 0, 64, 0
2, 809324, Note_on_c, 0, 74, 83
2, 809368, Note_on_c, 0, 74, 0
2, 809586, Note_on_c, 0, 79, 103
2, 809696, Note_on_c, 0, 74, 85
2, 809724, Note_on_c, 0, 79, 0
2, 809782, Note_on_c, 0, 74, 0
2, 809806, Note_on_c, 0, 71, 80
2, 809880, Note_on_c, 0, 71, 0
2, 809912, Note_on_c, 0, 69, 49
2, 809986, Note_on_c, 0, 69, 0
2, 810014, Note_on_c, 0, 71, 83
2, 810064, Note_on_c, 0, 71, 0
2, 810122, Note_on_c, 0, 74, 90
2, 810190, Note_on_c, 0, 74, 0
2, 810242, Note_on_c, 0, 79, 73
2, 810247, Note_on_c, 0, 67, 65
2, 810298, Note_on_c, 0, 67, 0
2, 810336, Note_on_c, 0, 74, 82
2, 810366, Note_on_c, 0, 79, 0
2, 810402, Note_on_c, 0, 74, 0
2, 810456, Note_on_c, 0, 73, 86
2, 810458, Note_on_c, 0, 76, 98
2, 810506, Note_on_c, 0, 73, 0
2, 810528, Note_on_c, 0, 76, 0
2, 810572, Note_on_c, 0, 67, 70
2, 810654, Note_on_c, 0, 67, 0
2, 810672, Note_on_c, 0, 64, 66
2, 810690, Note_on_c, 0, 73, 80
2, 810738, Note_on_c, 0, 64, 0
2, 810754, Note_on_c, 0, 73, 0
2, 810778, Note_on_c, 0, 62, 66
2, 810886, Note_on_c, 0, 62, 0
2, 810898, Note_on_c, 0, 64, 72
2, 810902, Note_on_c, 0, 73, 77
2, 810950, Note_on_c, 0, 73, 0
2, 811020, Note_on_c, 0, 64, 0
2, 811024, Note_on_c, 0, 67, 63
2, 811102, Note_on_c, 0, 67, 0
2, 811116, Note_on_c, 0, 76, 67
2, 811124, Note_on_c, 0, 73, 74
2, 811158, Note_on_c, 0, 76, 0
2, 811172, Note_on_c, 0, 73, 0
2, 811240, Note_on_c, 0, 67, 48
2, 811298, Note_on_c, 0, 67, 0
2, 811344, Note_on_c, 0, 78, 97
2, 811346, Note_on_c, 0, 69, 82
2, 811388, Note_on_c, 0, 69, 0
2, 811448, Note_on_c, 0, 78, 0
2, 811448, Note_on_c, 0, 73, 65
2, 811562, Note_on_c, 0, 69, 50
2, 811574, Note_on_c, 0, 66, 64
2, 811596, Note_on_c, 0, 73, 0
2, 811618, Note_on_c, 0, 66, 0
2, 811676, Note_on_c, 0, 69, 0
2, 811676, Note_on_c, 0, 67, 65
2, 811732, Note_on_c, 0, 67, 0
2, 811790, Note_on_c, 0, 69, 63
2, 811793, Note_on_c, 0, 66, 71
2, 811834, Note_on_c, 0, 66, 0
2, 811850, Note_on_c, 0, 69, 0
2, 811908, Note_on_c, 0, 73, 75
2, 811992, Note_on_c, 0, 73, 0
2, 812016, Note_on_c, 0, 69, 62
2, 812024, Note_on_c, 0, 78, 72
2, 812070, Note_on_c, 0, 69, 0
2, 812106, Note_on_c, 0, 73, 73
2, 812160, Note_on_c, 0, 78, 0
2, 812172, Note_on_c, 0, 73, 0
2, 812224, Note_on_c, 0, 71, 111
2, 812246, Note_on_c, 0, 74, 89
2, 812292, Note_on_c, 0, 74, 0
2, 812330, Note_on_c, 0, 71, 0
2, 812330, Note_on_c, 0, 66, 77
2, 812424, Note_on_c, 0, 62, 67
2, 812458, Note_on_c, 0, 66, 0
2, 812478, Note_on_c, 0, 71, 74
2, 812486, Note_on_c, 0, 62, 0
2, 812524, Note_on_c, 0, 71, 0
2, 812532, Note_on_c, 0, 61, 71
2, 812610, Note_on_c, 0, 61, 0
2, 812654, Note_on_c, 0, 62, 55
2, 812690, Note_on_c, 0, 71, 56
2, 812754, Note_on_c, 0, 71, 0
2, 812766, Note_on_c, 0, 62, 0
2, 812766, Note_on_c, 0, 66, 57
2, 812846, Note_on_c, 0, 66, 0
2, 812878, Note_on_c, 0, 74, 75
2, 812892, Note_on_c, 0, 71, 69
2, 812918, Note_on_c, 0, 74, 0
2, 812938, Note_on_c, 0, 71, 0
2, 812986, Note_on_c, 0, 66, 57
2, 813040, Note_on_c, 0, 66, 0
2, 813100, Note_on_c, 0, 67, 82
2, 813106, Note_on_c, 0, 76, 95
2, 813146, Note_on_c, 0, 67, 0
2, 813194, Note_on_c, 0, 76, 0
2, 813200, Note_on_c, 0, 66, 69
2, 813248, Note_on_c, 0, 66, 0
2, 813316, Note_on_c, 0, 67, 56
2, 813328, Note_on_c, 0, 64, 66
2, 813374, Note_on_c, 0, 64, 0
2, 813376, Note_on_c, 0, 67, 0
2, 813432, Note_on_c, 0, 71, 42
2, 813502, Note_on_c, 0, 71, 0
2, 813534, Note_on_c, 0, 69, 71
2, 813544, Note_on_c, 0, 73, 73
2, 813594, Note_on_c, 0, 73, 0
2, 813602, Note_on_c, 0, 69, 0
2, 813662, Note_on_c, 0, 59, 74
2, 813744, Note_on_c, 0, 59, 0
2, 813762, Note_on_c, 0, 69, 52
2, 813776, Note_on_c, 0, 61, 69
2, 813818, Note_on_c, 0, 69, 0
2, 813902, Note_on_c, 0, 64, 65
2, 813912, Note_on_c, 0, 61, 0
2, 813948, Note_on_c, 0, 64, 0
2, 814004, Note_on_c, 0, 74, 80
2, 814008, Note_on_c, 0, 66, 71
2, 814050, Note_on_c, 0, 66, 0
2, 814130, Note_on_c, 0, 64, 78
2, 814140, Note_on_c, 0, 74, 0
2, 814196, Note_on_c, 0, 64, 0
2, 814244, Note_on_c, 0, 66, 60
2, 814248, Note_on_c, 0, 62, 73
2, 814290, Note_on_c, 0, 62, 0
2, 814314, Note_on_c, 0, 66, 0
2, 814356, Note_on_c, 0, 69, 52
2, 814456, Note_on_c, 0, 69, 0
2, 814480, Note_on_c, 0, 71, 78
2, 814483, Note_on_c, 0, 67, 72
2, 814530, Note_on_c, 0, 71, 0
2, 814533, Note_on_c, 0, 67, 0
2, 814602, Note_on_c, 0, 57, 57
2, 814684, Note_on_c, 0, 57, 0
2, 814706, Note_on_c, 0, 59, 57
2, 814709, Note_on_c, 0, 67, 70
2, 814760, Note_on_c, 0, 67, 0
2, 814765, Note_on_c, 0, 59, 0
2, 814822, Note_on_c, 0, 62, 59
2, 814874, Note_on_c, 0, 62, 0
2, 814924, Note_on_c, 0, 73, 78
2, 814924, Note_on_c, 0, 64, 83
2, 814962, Note_on_c, 0, 64, 0
2, 815038, Note_on_c, 0, 62, 77
2, 815052, Note_on_c, 0, 73, 0
2, 815100, Note_on_c, 0, 62, 0
2, 815140, Note_on_c, 0, 64, 71
2, 815160, Note_on_c, 0, 50, 70
2, 815202, Note_on_c, 0, 64, 0
2, 815208, Note_on_c, 0, 50, 0
2, 815258, Note_on_c, 0, 67, 57
2, 815332, Note_on_c, 0, 67, 0
2, 815360, Note_on_c, 0, 71, 92
2, 815366, Note_on_c, 0, 62, 93
2, 815408, Note_on_c, 0, 62, 0
2, 815410, Note_on_c, 0, 71, 0
2, 815462, Note_on_c, 0, 61, 71
2, 815516, Note_on_c, 0, 61, 0
2, 815564, Note_on_c, 0, 62, 56
2, 815604, Note_on_c, 0, 50, 58
2, 815630, Note_on_c, 0, 62, 0
2, 815658, Note_on_c, 0, 50, 0
2, 815674, Note_on_c, 0, 66, 56
2, 815746, Note_on_c, 0, 66, 0
2, 815794, Note_on_c, 0, 61, 86
2, 815794, Note_on_c, 0, 69, 83
2, 815852, Note_on_c, 0, 61, 0
2, 815914, Note_on_c, 0, 69, 0
2, 815928, Note_on_c, 0, 59, 32
2, 815996, Note_on_c, 0, 59, 0
2, 816016, Note_on_c, 0, 61, 70
2, 816032, Note_on_c, 0, 50, 35
2, 816102, Note_on_c, 0, 50, 0
2, 816104, Note_on_c, 0, 61, 0
2, 816140, Note_on_c, 0, 64, 63
2, 816206, Note_on_c, 0, 64, 0
2, 816224, Note_on_c, 0, 67, 92
2, 816240, Note_on_c, 0, 59, 71
2, 816282, Note_on_c, 0, 59, 0
2, 816318, Note_on_c, 0, 67, 0
2, 816350, Note_on_c, 0, 57, 62
2, 816410, Note_on_c, 0, 57, 0
2, 816448, Note_on_c, 0, 59, 62
2, 816470, Note_on_c, 0, 50, 51
2, 816508, Note_on_c, 0, 59, 0
2, 816529, Note_on_c, 0, 50, 0
2, 816560, Note_on_c, 0, 62, 67
2, 816628, Note_on_c, 0, 62, 0
2, 816654, Note_on_c, 0, 66, 82
2, 816660, Note_on_c, 0, 57, 79
2, 816708, Note_on_c, 0, 57, 0
2, 816774, Note_on_c, 0, 66, 0
2, 816778, Note_on_c, 0, 55, 64
2, 816834, Note_on_c, 0, 55, 0
2, 816850, Note_on_c, 0, 57, 37
2, 816886, Note_on_c, 0, 50, 58
2, 816946, Note_on_c, 0, 57, 0
2, 816948, Note_on_c, 0, 50, 0
2, 816958, Note_on_c, 0, 61, 71
2, 817084, Note_on_c, 0, 55, 92
2, 817094, Note_on_c, 0, 64, 80
2, 817130, Note_on_c, 0, 55, 0
2, 817144, Note_on_c, 0, 64, 0
2, 817172, Note_on_c, 0, 61, 0
2, 817180, Note_on_c, 0, 54, 75
2, 817252, Note_on_c, 0, 54, 0
2, 817282, Note_on_c, 0, 55, 33
2, 817302, Note_on_c, 0, 50, 66
2, 817354, Note_on_c, 0, 55, 0
2, 817358, Note_on_c, 0, 50, 0
2, 817402, Note_on_c, 0, 59, 46
2, 817468, Note_on_c, 0, 59, 0
2, 817488, Note_on_c, 0, 54, 95
2, 817494, Note_on_c, 0, 62, 86
2, 817538, Note_on_c, 0, 54, 0
2, 817618, Note_on_c, 0, 52, 81
2, 817640, Note_on_c, 0, 62, 0
2, 817682, Note_on_c, 0, 52, 0
2, 817698, Note_on_c, 0, 54, 80
2, 817714, Note_on_c, 0, 50, 79
2, 817762, Note_on_c, 0, 50, 0
2, 817814, Note_on_c, 0, 57, 66
2, 817826, Note_on_c, 0, 54, 0
2, 817912, Note_on_c, 0, 61, 89
2, 817914, Note_on_c, 0, 52, 105
2, 817918, Note_on_c, 0, 57, 0
2, 817954, Note_on_c, 0, 52, 0
2, 818040, Note_on_c, 0, 50, 66
2, 818050, Note_on_c, 0, 61, 0
2, 818106, Note_on_c, 0, 52, 75
2, 818152, Note_on_c, 0, 50, 0
2, 818188, Note_on_c, 0, 52, 0
2, 818214, Note_on_c, 0, 55, 74
2, 818294, Note_on_c, 0, 55, 0
2, 818338, Note_on_c, 0, 57, 97
2, 818348, Note_on_c, 0, 54, 95
2, 818351, Note_on_c, 0, 50, 103
2, 818476, Note_on_c, 0, 50, 0
2, 818570, Control_c, 0, 64, 127
2, 818588, Note_on_c, 0, 38, 87
2, 818644, Note_on_c, 0, 38, 0
2, 818766, Note_on_c, 0, 57, 0
2, 818822, Note_on_c, 0, 38, 108
2, 818858, Note_on_c, 0, 38, 0
2, 818900, Note_on_c, 0, 54, 0
2, 818908, Control_c, 0, 64, 0
2, 819060, Note_on_c, 0, 45, 77
2, 819066, Note_on_c, 0, 52, 72
2, 819070, Note_on_c, 0, 57, 57
2, 819108, Note_on_c, 0, 45, 0
2, 819144, Note_on_c, 0, 52, 0
2, 819154, Note_on_c, 0, 61, 81
2, 819182, Note_on_c, 0, 57, 0
2, 819270, Note_on_c, 0, 57, 64
2, 819278, Note_on_c, 0, 54, 100
2, 819282, Note_on_c, 0, 50, 105
2, 819288, Note_on_c, 0, 61, 0
2, 819492, Control_c, 0, 64, 127
2, 819496, Note_on_c, 0, 50, 0
2, 819520, Note_on_c, 0, 38, 87
2, 819588, Note_on_c, 0, 38, 0
2, 819616, Note_on_c, 0, 57, 0
2, 819622, Note_on_c, 0, 54, 0
2, 819706, Control_c, 0, 64, 0
2, 819742, Note_on_c, 0, 38, 95
2, 819790, Note_on_c, 0, 38, 0
2, 819984, Note_on_c, 0, 45, 72
2, 819986, Note_on_c, 0, 52, 65
2, 819996, Note_on_c, 0, 57, 47
2, 820032, Note_on_c, 0, 45, 0
2, 820048, Note_on_c, 0, 52, 0
2, 820084, Note_on_c, 0, 61, 67
2, 820092, Note_on_c, 0, 57, 0
2, 820152, Note_on_c, 0, 61, 0
2, 820190, Note_on_c, 0, 57, 32
2, 820193, Note_on_c, 0, 50, 81
2, 820200, Note_on_c, 0, 54, 77
2, 820258, Note_on_c, 0, 50, 0
2, 820286, Note_on_c, 0, 54, 0
2, 820314, Note_on_c, 0, 57, 0
2, 820314, Note_on_c, 0, 62, 60
2, 820384, Note_on_c, 0, 62, 0
2, 820410, Note_on_c, 0, 57, 44
2, 820422, Note_on_c, 0, 42, 82
2, 820428, Note_on_c, 0, 54, 70
2, 820466, Note_on_c, 0, 42, 0
2, 820486, Note_on_c, 0, 54, 0
2, 820492, Note_on_c, 0, 62, 59
2, 820516, Note_on_c, 0, 57, 0
2, 820620, Note_on_c, 0, 62, 0
2, 820623, Note_on_c, 0, 59, 83
2, 820634, Note_on_c, 0, 43, 104
2, 820637, Note_on_c, 0, 54, 79
2, 820676, Note_on_c, 0, 43, 0
2, 820722, Note_on_c, 0, 62, 62
2, 820738, Note_on_c, 0, 54, 0
2, 820778, Note_on_c, 0, 59, 0
2, 820834, Note_on_c, 0, 62, 0
2, 820848, Note_on_c, 0, 45, 95
2, 820848, Note_on_c, 0, 57, 70
2, 820850, Note_on_c, 0, 52, 82
2, 820886, Note_on_c, 0, 45, 0
2, 820942, Note_on_c, 0, 61, 85
2, 820966, Note_on_c, 0, 57, 0
2, 820974, Note_on_c, 0, 52, 0
2, 821068, Note_on_c, 0, 57, 71
2, 821071, Note_on_c, 0, 54, 106
2, 821071, Note_on_c, 0, 50, 115
2, 821086, Note_on_c, 0, 61, 0
2, 821182, Control_c, 0, 64, 127
2, 821250, Note_on_c, 0, 50, 0
2, 821258, Note_on_c, 0, 54, 0
2, 821284, Note_on_c, 0, 57, 0
2, 821302, Note_on_c, 0, 38, 82
2, 821372, Note_on_c, 0, 38, 0
2, 821520, Control_c, 0, 64, 0
2, 821530, Note_on_c, 0, 38, 105
2, 821562, Note_on_c, 0, 38, 0
2, 821764, Note_on_c, 0, 62, 100
2, 821854, Note_on_c, 0, 62, 0
2, 821878, Note_on_c, 0, 74, 72
2, 821892, Note_on_c, 0, 50, 73
2, 821964, Note_on_c, 0, 50, 0
2, 821982, Note_on_c, 0, 74, 0
2, 822006, Note_on_c, 0, 64, 69
2, 822006, Note_on_c, 0, 60, 72
2, 822054, Note_on_c, 0, 64, 0
2, 822072, Note_on_c, 0, 60, 0
2, 822120, Note_on_c, 0, 50, 65
2, 822196, Note_on_c, 0, 50, 0
2, 822228, Note_on_c, 0, 64, 58
2, 822240, Note_on_c, 0, 60, 49
2, 822292, Note_on_c, 0, 64, 0
2, 822300, Note_on_c, 0, 60, 0
2, 822320, Note_on_c, 0, 74, 65
2, 822336, Note_on_c, 0, 50, 55
2, 822412, Note_on_c, 0, 50, 0
2, 822420, Note_on_c, 0, 74, 0
2, 822442, Note_on_c, 0, 57, 59
2, 822446, Note_on_c, 0, 66, 50
2, 822506, Note_on_c, 0, 57, 0
2, 822514, Note_on_c, 0, 66, 0
2, 822562, Note_on_c, 0, 50, 43
2, 822642, Note_on_c, 0, 50, 0
2, 822662, Note_on_c, 0, 66, 52
2, 822674, Note_on_c, 0, 57, 42
2, 822736, Note_on_c, 0, 57, 0
2, 822744, Note_on_c, 0, 66, 0
2, 822762, Note_on_c, 0, 74, 60
2, 822766, Note_on_c, 0, 50, 50
2, 822830, Note_on_c, 0, 74, 0
2, 822864, Note_on_c, 0, 50, 0
2, 822867, Note_on_c, 0, 59, 52
2, 822880, Note_on_c, 0, 67, 64
2, 822936, Note_on_c, 0, 59, 0
2, 822941, Note_on_c, 0, 67, 0
2, 823012, Note_on_c, 0, 50, 42
2, 823078, Note_on_c, 0, 50, 0
2, 823098, Note_on_c, 0, 67, 63
2, 823104, Note_on_c, 0, 59, 42
2, 823162, Note_on_c, 0, 67, 0
2, 823164, Note_on_c, 0, 59, 0
2, 823206, Note_on_c, 0, 74, 56
2, 823218, Note_on_c, 0, 50, 37
2, 823270, Note_on_c, 0, 74, 0
2, 823290, Note_on_c, 0, 50, 0
2, 823302, Note_on_c, 0, 71, 69
2, 823312, Note_on_c, 0, 55, 51
2, 823368, Note_on_c, 0, 55, 0
2, 823368, Note_on_c, 0, 71, 0
2, 823396, Note_on_c, 0, 50, 56
2, 823506, Note_on_c, 0, 50, 0
2, 823516, Note_on_c, 0, 55, 54
2, 823518, Note_on_c, 0, 71, 73
2, 823582, Note_on_c, 0, 55, 0
2, 823594, Note_on_c, 0, 71, 0
2, 823608, Note_on_c, 0, 50, 63
2, 823610, Note_on_c, 0, 74, 78
2, 823666, Note_on_c, 0, 74, 0
2, 823726, Note_on_c, 0, 54, 82
2, 823726, Note_on_c, 0, 72, 85
2, 823738, Note_on_c, 0, 50, 0
2, 823800, Note_on_c, 0, 72, 0
2, 823824, Note_on_c, 0, 54, 0
2, 823850, Note_on_c, 0, 50, 43
2, 823944, Note_on_c, 0, 54, 70
2, 823950, Note_on_c, 0, 72, 79
2, 823966, Note_on_c, 0, 50, 0
2, 824032, Note_on_c, 0, 74, 92
2, 824044, Note_on_c, 0, 50, 65
2, 824047, Note_on_c, 0, 72, 0
2, 824056, Note_on_c, 0, 54, 0
2, 824156, Note_on_c, 0, 74, 0
2, 824156, Note_on_c, 0, 73, 77
2, 824159, Note_on_c, 0, 52, 92
2, 824172, Note_on_c, 0, 50, 0
2, 824220, Note_on_c, 0, 52, 0
2, 824260, Note_on_c, 0, 50, 56
2, 824268, Note_on_c, 0, 73, 0
2, 824366, Note_on_c, 0, 73, 54
2, 824380, Note_on_c, 0, 52, 72
2, 824388, Note_on_c, 0, 50, 0
2, 824440, Note_on_c, 0, 52, 0
2, 824460, Note_on_c, 0, 50, 77
2, 824468, Note_on_c, 0, 74, 87
2, 824488, Note_on_c, 0, 73, 0
2, 824528, Note_on_c, 0, 74, 0
2, 824550, Note_on_c, 0, 50, 0
2, 824578, Note_on_c, 0, 62, 95
2, 824580, Note_on_c, 0, 66, 71
2, 824580, Note_on_c, 0, 69, 73
2, 824716, Control_c, 0, 64, 127
2, 824744, Note_on_c, 0, 62, 0
2, 824806, Note_on_c, 0, 66, 0
2, 824812, Note_on_c, 0, 50, 86
2, 824830, Note_on_c, 0, 69, 0
2, 824868, Note_on_c, 0, 50, 0
2, 825038, Note_on_c, 0, 50, 74
2, 825088, Note_on_c, 0, 50, 0
2, 825238, Control_c, 0, 64, 0
2, 825268, Note_on_c, 0, 74, 95
2, 825324, Note_on_c, 0, 74, 0
2, 825372, Note_on_c, 0, 86, 59
2, 825374, Note_on_c, 0, 62, 70
2, 825436, Note_on_c, 0, 62, 0
2, 825458, Note_on_c, 0, 86, 0
2, 825490, Note_on_c, 0, 72, 70
2, 825493, Note_on_c, 0, 76, 59
2, 825542, Note_on_c, 0, 72, 0
2, 825548, Note_on_c, 0, 76, 0
2, 825590, Note_on_c, 0, 86, 57
2, 825600, Note_on_c, 0, 62, 59
2, 825658, Note_on_c, 0, 62, 0
2, 825666, Note_on_c, 0, 86, 0
2, 825710, Note_on_c, 0, 76, 44
2, 825716, Note_on_c, 0, 72, 50
2, 825768, Note_on_c, 0, 76, 0
2, 825771, Note_on_c, 0, 72, 0
2, 825804, Note_on_c, 0, 86, 55
2, 825826, Note_on_c, 0, 62, 52
2, 825882, Note_on_c, 0, 62, 0
2, 825882, Note_on_c, 0, 86, 0
2, 825926, Note_on_c, 0, 69, 42
2, 825929, Note_on_c, 0, 78, 59
2, 825988, Note_on_c, 0, 78, 0
2, 825991, Note_on_c, 0, 69, 0
2, 826022, Note_on_c, 0, 86, 47
2, 826044, Note_on_c, 0, 62, 32
2, 826108, Note_on_c, 0, 86, 0
2, 826116, Note_on_c, 0, 62, 0
2, 826138, Note_on_c, 0, 78, 62
2, 826150, Note_on_c, 0, 69, 36
2, 826204, Note_on_c, 0, 78, 0
2, 826216, Note_on_c, 0, 69, 0
2, 826232, Note_on_c, 0, 86, 43
2, 826268, Note_on_c, 0, 62, 18
2, 826308, Note_on_c, 0, 86, 0
2, 826338, Note_on_c, 0, 71, 74
2, 826342, Note_on_c, 0, 62, 0
2, 826354, Note_on_c, 0, 79, 75
2, 826392, Note_on_c, 0, 71, 0
2, 826412, Note_on_c, 0, 79, 0
2, 826450, Note_on_c, 0, 62, 35
2, 826462, Note_on_c, 0, 86, 51
2, 826520, Note_on_c, 0, 86, 0
2, 826530, Note_on_c, 0, 62, 0
2, 826560, Note_on_c, 0, 79, 69
2, 826570, Note_on_c, 0, 71, 41
2, 826616, Note_on_c, 0, 79, 0
2, 826632, Note_on_c, 0, 71, 0
2, 826660, Note_on_c, 0, 86, 43
2, 826694, Note_on_c, 0, 62, 36
2, 826724, Note_on_c, 0, 86, 0
2, 826758, Note_on_c, 0, 62, 0
2, 826768, Note_on_c, 0, 83, 104
2, 826771, Note_on_c, 0, 67, 52
2, 826836, Note_on_c, 0, 67, 0
2, 826846, Note_on_c, 0, 83, 0
2, 826864, Note_on_c, 0, 86, 63
2, 826894, Note_on_c, 0, 62, 32
2, 826928, Note_on_c, 0, 86, 0
2, 826968, Note_on_c, 0, 62, 0
2, 826982, Note_on_c, 0, 83, 92
2, 827030, Note_on_c, 0, 67, 13
2, 827042, Note_on_c, 0, 83, 0
2, 827072, Note_on_c, 0, 86, 69
2, 827090, Note_on_c, 0, 67, 0
2, 827090, Note_on_c, 0, 62, 48
2, 827128, Note_on_c, 0, 86, 0
2, 827176, Note_on_c, 0, 62, 0
2, 827184, Note_on_c, 0, 66, 60
2, 827186, Note_on_c, 0, 84, 97
2, 827242, Note_on_c, 0, 66, 0
2, 827268, Note_on_c, 0, 86, 88
2, 827298, Note_on_c, 0, 62, 49
2, 827306, Note_on_c, 0, 84, 0
2, 827380, Note_on_c, 0, 84, 75
2, 827388, Note_on_c, 0, 62, 0
2, 827391, Note_on_c, 0, 66, 46
2, 827396, Note_on_c, 0, 86, 0
2, 827472, Note_on_c, 0, 86, 79
2, 827502, Note_on_c, 0, 66, 0
2, 827502, Note_on_c, 0, 84, 0
2, 827518, Note_on_c, 0, 62, 44
2, 827582, Note_on_c, 0, 86, 0
2, 827598, Note_on_c, 0, 62, 0
2, 827598, Note_on_c, 0, 85, 75
2, 827604, Note_on_c, 0, 64, 71
2, 827654, Note_on_c, 0, 64, 0
2, 827688, Note_on_c, 0, 85, 0
2, 827688, Note_on_c, 0, 86, 70
2, 827716, Note_on_c, 0, 62, 34
2, 827780, Note_on_c, 0, 85, 62
2, 827794, Note_on_c, 0, 62, 0
2, 827800, Note_on_c, 0, 64, 58
2, 827812, Note_on_c, 0, 86, 0
2, 827864, Note_on_c, 0, 64, 0
2, 827878, Note_on_c, 0, 86, 74
2, 827888, Note_on_c, 0, 62, 43
2, 827918, Note_on_c, 0, 85, 0
2, 827950, Note_on_c, 0, 62, 0
2, 827950, Note_on_c, 0, 86, 0
2, 828004, Note_on_c, 0, 78, 70
2, 828006, Note_on_c, 0, 74, 72
2, 828009, Note_on_c, 0, 81, 73
2, 828064, Note_on_c, 0, 74, 0
2, 828250, Note_on_c, 0, 62, 57
2, 828304, Note_on_c, 0, 81, 0
2, 828308, Note_on_c, 0, 62, 0
2, 828342, Note_on_c, 0, 78, 0
2, 828342, Control_c, 0, 64, 127
2, 828450, Control_c, 0, 64, 0
2, 828474, Note_on_c, 0, 62, 51
2, 828532, Note_on_c, 0, 62, 0
2, 828694, Note_on_c, 0, 69, 44
2, 828704, Note_on_c, 0, 57, 79
2, 828708, Note_on_c, 0, 64, 36
2, 828756, Note_on_c, 0, 57, 0
2, 828776, Note_on_c, 0, 64, 0
2, 828784, Note_on_c, 0, 69, 0
2, 828799, Note_on_c, 0, 72, 72
2, 828898, Note_on_c, 0, 69, 51
2, 828906, Note_on_c, 0, 72, 0
2, 828906, Note_on_c, 0, 62, 72
2, 828906, Note_on_c, 0, 66, 51
2, 829038, Note_on_c, 0, 62, 0
2, 829142, Note_on_c, 0, 50, 75
2, 829194, Note_on_c, 0, 50, 0
2, 829220, Note_on_c, 0, 66, 0
2, 829260, Note_on_c, 0, 69, 0
2, 829370, Note_on_c, 0, 50, 66
2, 829420, Note_on_c, 0, 50, 0
2, 829582, Note_on_c, 0, 69, 41
2, 829588, Note_on_c, 0, 64, 41
2, 829594, Note_on_c, 0, 57, 51
2, 829660, Note_on_c, 0, 64, 0
2, 829670, Note_on_c, 0, 69, 0
2, 829704, Note_on_c, 0, 72, 49
2, 829788, Note_on_c, 0, 57, 0
2, 829806, Note_on_c, 0, 72, 0
2, 829824, Note_on_c, 0, 62, 49
2, 829832, Note_on_c, 0, 69, 40
2, 829844, Note_on_c, 0, 66, 18
2, 829896, Note_on_c, 0, 62, 0
2, 830056, Note_on_c, 0, 50, 58
2, 830116, Note_on_c, 0, 50, 0
2, 830242, Note_on_c, 0, 69, 0
2, 830324, Note_on_c, 0, 50, 14
2, 830342, Note_on_c, 0, 66, 0
2, 830376, Note_on_c, 0, 50, 0
2, 830530, Note_on_c, 0, 69, 41
2, 830540, Note_on_c, 0, 57, 34
2, 830542, Note_on_c, 0, 64, 25
2, 830622, Note_on_c, 0, 64, 0
2, 830628, Note_on_c, 0, 69, 0
2, 830650, Note_on_c, 0, 72, 39
2, 830726, Note_on_c, 0, 72, 0
2, 830738, Note_on_c, 0, 57, 0
2, 830762, Note_on_c, 0, 62, 39
2, 830770, Note_on_c, 0, 69, 33
2, 830773, Note_on_c, 0, 66, 26
2, 830866, Note_on_c, 0, 69, 0
2, 830874, Note_on_c, 0, 66, 0
2, 830896, Note_on_c, 0, 72, 39
2, 830966, Note_on_c, 0, 72, 0
2, 830972, Note_on_c, 0, 62, 0
2, 830992, Note_on_c, 0, 69, 33
2, 831000, Note_on_c, 0, 64, 33
2, 831006, Note_on_c, 0, 57, 47
2, 831062, Note_on_c, 0, 57, 0
2, 831062, Control_c, 0, 64, 127
2, 831070, Note_on_c, 0, 64, 0
2, 831084, Note_on_c, 0, 69, 0
2, 831110, Note_on_c, 0, 72, 33
2, 831188, Note_on_c, 0, 72, 0
2, 831220, Note_on_c, 0, 69, 43
2, 831220, Note_on_c, 0, 50, 71
2, 831228, Note_on_c, 0, 66, 34
2, 831312, Note_on_c, 0, 69, 0
2, 831316, Note_on_c, 0, 66, 0
2, 831324, Note_on_c, 0, 72, 58
2, 831396, Note_on_c, 0, 50, 0
2, 831414, Note_on_c, 0, 72, 0
2, 831440, Note_on_c, 0, 69, 51
2, 831454, Note_on_c, 0, 45, 54
2, 831457, Note_on_c, 0, 64, 50
2, 831518, Note_on_c, 0, 64, 0
2, 831524, Note_on_c, 0, 45, 0
2, 831532, Note_on_c, 0, 69, 0
2, 831548, Note_on_c, 0, 72, 54
2, 831636, Note_on_c, 0, 72, 0
2, 831646, Control_c, 0, 64, 0
2, 831668, Note_on_c, 0, 38, 70
2, 831674, Note_on_c, 0, 66, 51
2, 831677, Note_on_c, 0, 69, 62
2, 831762, Note_on_c, 0, 69, 0
2, 831786, Note_on_c, 0, 72, 64
2, 831800, Note_on_c, 0, 66, 0
2, 831866, Note_on_c, 0, 72, 0
2, 831876, Control_c, 0, 64, 127
2, 831890, Note_on_c, 0, 69, 50
2, 831892, Note_on_c, 0, 45, 54
2, 831896, Note_on_c, 0, 64, 48
2, 831902, Note_on_c, 0, 38, 0
2, 831964, Note_on_c, 0, 64, 0
2, 831968, Note_on_c, 0, 45, 0
2, 831982, Note_on_c, 0, 69, 0
2, 832004, Note_on_c, 0, 72, 50
2, 832082, Note_on_c, 0, 72, 0
2, 832094, Note_on_c, 0, 50, 62
2, 832114, Note_on_c, 0, 69, 56
2, 832120, Note_on_c, 0, 66, 44
2, 832200, Note_on_c, 0, 66, 0
2, 832216, Note_on_c, 0, 69, 0
2, 832230, Note_on_c, 0, 72, 59
2, 832300, Note_on_c, 0, 72, 0
2, 832324, Note_on_c, 0, 57, 48
2, 832327, Note_on_c, 0, 69, 52
2, 832344, Note_on_c, 0, 64, 46
2, 832402, Note_on_c, 0, 64, 0
2, 832432, Note_on_c, 0, 69, 0
2, 832450, Note_on_c, 0, 72, 66
2, 832476, Control_c, 0, 64, 0
2, 832516, Note_on_c, 0, 72, 0
2, 832564, Note_on_c, 0, 69, 74
2, 832574, Note_on_c, 0, 62, 67
2, 832580, Note_on_c, 0, 66, 44
2, 832642, Note_on_c, 0, 66, 0
2, 832658, Note_on_c, 0, 72, 67
2, 832660, Control_c, 0, 64, 127
2, 832680, Note_on_c, 0, 69, 0
2, 832702, Note_on_c, 0, 72, 0
2, 832806, Note_on_c, 0, 69, 64
2, 832808, Note_on_c, 0, 72, 49
2, 832858, Note_on_c, 0, 69, 0
2, 832896, Note_on_c, 0, 78, 82
2, 832928, Note_on_c, 0, 72, 0
2, 832938, Note_on_c, 0, 78, 0
2, 833014, Note_on_c, 0, 57, 0
2, 833048, Note_on_c, 0, 78, 62
2, 833051, Note_on_c, 0, 72, 62
2, 833118, Note_on_c, 0, 72, 0
2, 833144, Note_on_c, 0, 78, 0
2, 833148, Note_on_c, 0, 81, 77
2, 833194, Note_on_c, 0, 81, 0
2, 833274, Note_on_c, 0, 81, 64
2, 833282, Note_on_c, 0, 78, 54
2, 833332, Note_on_c, 0, 78, 0
2, 833376, Note_on_c, 0, 81, 0
2, 833382, Note_on_c, 0, 84, 83
2, 833418, Note_on_c, 0, 84, 0
2, 833514, Note_on_c, 0, 84, 26
2, 833515, Note_on_c, 0, 81, 64
2, 833598, Note_on_c, 0, 90, 78
2, 833617, Note_on_c, 0, 81, 0
2, 833628, Note_on_c, 0, 84, 0
2, 833646, Note_on_c, 0, 90, 0
2, 833758, Note_on_c, 0, 84, 39
2, 833774, Note_on_c, 0, 90, 36
2, 833832, Note_on_c, 0, 84, 0
2, 833838, Note_on_c, 0, 90, 0
2, 833848, Note_on_c, 0, 93, 75
2, 833898, Note_on_c, 0, 93, 0
2, 833962, Note_on_c, 0, 62, 0
2, 834002, Note_on_c, 0, 93, 80
2, 834012, Note_on_c, 0, 90, 55
2, 834034, Note_on_c, 0, 50, 0
2, 834082, Note_on_c, 0, 90, 0
2, 834102, Note_on_c, 0, 96, 102
2, 834128, Note_on_c, 0, 93, 0
2, 834134, Note_on_c, 0, 96, 0
2, 834412, Note_on_c, 0, 50, 124
2, 834412, Note_on_c, 0, 38, 103
2, 834442, Note_on_c, 0, 38, 0
2, 834458, Note_on_c, 0, 50, 0
2, 834718, Note_on_c, 0, 83, 127
2, 834724, Note_on_c, 0, 71, 126
2, 834724, Note_on_c, 0, 55, 119
2, 834732, Note_on_c, 0, 43, 113
2, 834888, Control_c, 0, 64, 0
2, 835056, Note_on_c, 0, 55, 0
2, 835078, Note_on_c, 0, 83, 0
2, 835088, Control_c, 0, 64, 127
2, 835102, Note_on_c, 0, 43, 0
2, 835108, Note_on_c, 0, 71, 0
2, 835188, Note_on_c, 0, 81, 104
2, 835188, Note_on_c, 0, 69, 97
2, 835194, Note_on_c, 0, 54, 101
2, 835198, Note_on_c, 0, 42, 94
2, 835276, Note_on_c, 0, 81, 0
2, 835290, Note_on_c, 0, 69, 0
2, 835312, Note_on_c, 0, 54, 0
2, 835368, Note_on_c, 0, 42, 0
2, 835412, Note_on_c, 0, 67, 112
2, 835414, Note_on_c, 0, 79, 115
2, 835422, Note_on_c, 0, 52, 111
2, 835426, Note_on_c, 0, 40, 115
2, 835470, Note_on_c, 0, 40, 0
2, 835492, Note_on_c, 0, 52, 0
2, 835500, Note_on_c, 0, 79, 0
2, 835514, Note_on_c, 0, 67, 0
2, 835624, Control_c, 0, 64, 0
2, 835638, Note_on_c, 0, 66, 103
2, 835638, Note_on_c, 0, 78, 110
2, 835652, Note_on_c, 0, 50, 117
2, 835654, Note_on_c, 0, 38, 116
2, 835740, Note_on_c, 0, 66, 0
2, 835752, Note_on_c, 0, 50, 0
2, 835764, Note_on_c, 0, 38, 0
2, 835772, Note_on_c, 0, 78, 0
2, 835866, Note_on_c, 0, 76, 108
2, 835868, Note_on_c, 0, 48, 102
2, 835870, Note_on_c, 0, 64, 106
2, 835870, Note_on_c, 0, 36, 117
2, 835932, Note_on_c, 0, 64, 0
2, 835958, Note_on_c, 0, 76, 0
2, 835966, Note_on_c, 0, 48, 0
2, 835978, Note_on_c, 0, 36, 0
2, 836076, Note_on_c, 0, 74, 115
2, 836076, Note_on_c, 0, 62, 106
2, 836084, Note_on_c, 0, 47, 106
2, 836086, Note_on_c, 0, 35, 116
2, 836120, Note_on_c, 0, 74, 0
2, 836132, Note_on_c, 0, 62, 0
2, 836144, Note_on_c, 0, 47, 0
2, 836144, Note_on_c, 0, 35, 0
2, 836290, Note_on_c, 0, 60, 112
2, 836292, Note_on_c, 0, 72, 115
2, 836296, Note_on_c, 0, 45, 103
2, 836296, Note_on_c, 0, 33, 112
2, 836352, Note_on_c, 0, 33, 0
2, 836362, Note_on_c, 0, 60, 0
2, 836366, Note_on_c, 0, 45, 0
2, 836370, Note_on_c, 0, 72, 0
2, 836516, Note_on_c, 0, 71, 124
2, 836516, Note_on_c, 0, 59, 116
2, 836524, Note_on_c, 0, 31, 116
2, 836524, Note_on_c, 0, 43, 110
2, 836588, Note_on_c, 0, 31, 0
2, 836610, Note_on_c, 0, 71, 0
2, 836610, Note_on_c, 0, 59, 0
2, 836630, Note_on_c, 0, 43, 0
2, 836740, Note_on_c, 0, 45, 101
2, 836743, Note_on_c, 0, 72, 112
2, 836743, Note_on_c, 0, 33, 105
2, 836743, Note_on_c, 0, 60, 108
2, 836794, Note_on_c, 0, 33, 0
2, 836824, Note_on_c, 0, 45, 0
2, 836832, Note_on_c, 0, 72, 0
2, 836832, Note_on_c, 0, 60, 0
2, 837014, Note_on_c, 0, 74, 127
2, 837016, Note_on_c, 0, 62, 124
2, 837016, Note_on_c, 0, 47, 108
2, 837024, Note_on_c, 0, 35, 112
2, 837548, Note_on_c, 0, 35, 0
2, 837576, Control_c, 0, 64, 127
2, 837582, Note_on_c, 0, 47, 0
2, 837584, Note_on_c, 0, 62, 0
2, 837650, Note_on_c, 0, 74, 0
2, 837762, Control_c, 0, 64, 0
2, 837898, Note_on_c, 0, 76, 115
2, 837898, Note_on_c, 0, 48, 93
2, 837898, Note_on_c, 0, 36, 104
2, 837901, Note_on_c, 0, 67, 97
2, 837901, Note_on_c, 0, 64, 108
2, 838114, Control_c, 0, 64, 127
2, 838136, Note_on_c, 0, 48, 0
2, 838138, Note_on_c, 0, 76, 0
2, 838174, Note_on_c, 0, 36, 0
2, 838200, Note_on_c, 0, 67, 0
2, 838204, Note_on_c, 0, 64, 0
2, 838370, Note_on_c, 0, 72, 113
2, 838372, Note_on_c, 0, 60, 109
2, 838378, Note_on_c, 0, 66, 83
2, 838380, Note_on_c, 0, 45, 98
2, 838383, Note_on_c, 0, 33, 102
2, 838528, Control_c, 0, 64, 0
2, 838688, Note_on_c, 0, 33, 0
2, 838688, Note_on_c, 0, 72, 0
2, 838698, Control_c, 0, 64, 127
2, 838714, Note_on_c, 0, 45, 0
2, 838716, Note_on_c, 0, 60, 0
2, 838814, Note_on_c, 0, 71, 108
2, 838816, Note_on_c, 0, 47, 96
2, 838818, Note_on_c, 0, 66, 0
2, 838818, Note_on_c, 0, 35, 106
2, 838820, Note_on_c, 0, 62, 95
2, 838822, Note_on_c, 0, 67, 74
2, 838866, Control_c, 0, 64, 0
2, 838926, Note_on_c, 0, 35, 0
2, 838938, Note_on_c, 0, 47, 0
2, 839008, Note_on_c, 0, 67, 0
2, 839024, Control_c, 0, 64, 127
2, 839036, Note_on_c, 0, 48, 89
2, 839041, Note_on_c, 0, 36, 94
2, 839118, Note_on_c, 0, 62, 0
2, 839142, Note_on_c, 0, 71, 0
2, 839148, Note_on_c, 0, 36, 0
2, 839168, Note_on_c, 0, 48, 0
2, 839266, Control_c, 0, 64, 0
2, 839276, Note_on_c, 0, 69, 92
2, 839278, Note_on_c, 0, 60, 102
2, 839281, Note_on_c, 0, 50, 102
2, 839284, Note_on_c, 0, 38, 92
2, 839292, Note_on_c, 0, 66, 62
2, 839324, Note_on_c, 0, 69, 0
2, 839340, Note_on_c, 0, 71, 89
2, 839356, Note_on_c, 0, 66, 0
2, 839394, Note_on_c, 0, 69, 66
2, 839394, Note_on_c, 0, 66, 24
2, 839490, Note_on_c, 0, 71, 0
2, 839842, Note_on_c, 0, 38, 0
2, 839866, Control_c, 0, 64, 127
2, 839920, Note_on_c, 0, 66, 0
2, 839968, Note_on_c, 0, 67, 97
2, 839971, Note_on_c, 0, 50, 0
2, 839988, Note_on_c, 0, 69, 0
2, 840026, Note_on_c, 0, 60, 0
2, 840058, Note_on_c, 0, 67, 0
2, 840158, Control_c, 0, 64, 0
2, 840202, Note_on_c, 0, 67, 100
2, 840204, Note_on_c, 0, 55, 102
2, 840204, Note_on_c, 0, 62, 93
2, 840204, Note_on_c, 0, 59, 89
2, 840212, Note_on_c, 0, 43, 87
2, 840256, Note_on_c, 0, 62, 0
2, 840259, Note_on_c, 0, 55, 0
2, 840298, Note_on_c, 0, 43, 0
2, 840301, Note_on_c, 0, 67, 0
2, 840312, Control_c, 0, 64, 127
2, 840332, Note_on_c, 0, 59, 0
2, 840510, Control_c, 0, 64, 0
2, 840656, Note_on_c, 0, 43, 83
2, 840658, Note_on_c, 0, 55, 109
2, 840658, Note_on_c, 0, 31, 93
2, 840738, Note_on_c, 0, 31, 0
2, 840758, Control_c, 0, 64, 127
2, 840761, Note_on_c, 0, 43, 0
2, 840768, Note_on_c, 0, 55, 0
2, 840880, Control_c, 0, 64, 0
2, 841140, Note_on_c, 0, 55, 109
2, 841150, Note_on_c, 0, 43, 81
2, 841158, Note_on_c, 0, 31, 71
2, 841200, Note_on_c, 0, 31, 0
2, 841202, Note_on_c, 0, 55, 0
2, 841204, Note_on_c, 0, 43, 0
2, 841218, Control_c, 0, 64, 127
2, 841540, Control_c, 0, 64, 0
2, 841822, Note_on_c, 0, 74, 78
2, 841862, Note_on_c, 0, 74, 0
2, 842060, Note_on_c, 0, 79, 101
2, 842172, Note_on_c, 0, 74, 79
2, 842188, Note_on_c, 0, 79, 0
2, 842228, Note_on_c, 0, 74, 0
2, 842274, Note_on_c, 0, 71, 62
2, 842342, Note_on_c, 0, 71, 0
2, 842372, Note_on_c, 0, 69, 46
2, 842438, Note_on_c, 0, 69, 0
2, 842480, Note_on_c, 0, 71, 75
2, 842532, Note_on_c, 0, 71, 0
2, 842592, Note_on_c, 0, 74, 73
2, 842641, Note_on_c, 0, 74, 0
2, 842694, Note_on_c, 0, 79, 73
2, 842697, Note_on_c, 0, 67, 41
2, 842776, Note_on_c, 0, 67, 0
2, 842796, Note_on_c, 0, 79, 0
2, 842808, Note_on_c, 0, 74, 54
2, 842862, Note_on_c, 0, 74, 0
2, 842876, Note_on_c, 0, 76, 83
2, 842878, Note_on_c, 0, 73, 78
2, 842926, Note_on_c, 0, 76, 0
2, 842928, Note_on_c, 0, 73, 0
2, 843004, Note_on_c, 0, 67, 65
2, 843066, Note_on_c, 0, 67, 0
2, 843084, Note_on_c, 0, 64, 62
2, 843114, Note_on_c, 0, 73, 59
2, 843144, Note_on_c, 0, 64, 0
2, 843172, Note_on_c, 0, 73, 0
2, 843196, Note_on_c, 0, 62, 55
2, 843278, Note_on_c, 0, 62, 0
2, 843312, Note_on_c, 0, 64, 55
2, 843312, Note_on_c, 0, 73, 74
2, 843362, Note_on_c, 0, 73, 0
2, 843366, Note_on_c, 0, 64, 0
2, 843392, Note_on_c, 0, 67, 50
2, 843486, Note_on_c, 0, 67, 0
2, 843512, Note_on_c, 0, 73, 60
2, 843526, Note_on_c, 0, 76, 64
2, 843566, Note_on_c, 0, 73, 0
2, 843569, Note_on_c, 0, 76, 0
2, 843628, Note_on_c, 0, 67, 50
2, 843704, Note_on_c, 0, 67, 0
2, 843742, Note_on_c, 0, 78, 98
2, 843750, Note_on_c, 0, 69, 67
2, 843796, Note_on_c, 0, 69, 0
2, 843850, Note_on_c, 0, 78, 0
2, 843852, Note_on_c, 0, 73, 59
2, 843952, Note_on_c, 0, 69, 66
2, 843954, Note_on_c, 0, 66, 55
2, 843970, Note_on_c, 0, 73, 0
2, 844004, Note_on_c, 0, 66, 0
2, 844022, Note_on_c, 0, 69, 0
2, 844068, Note_on_c, 0, 67, 50
2, 844130, Note_on_c, 0, 67, 0
2, 844158, Note_on_c, 0, 69, 72
2, 844166, Note_on_c, 0, 66, 75
2, 844206, Note_on_c, 0, 66, 0
2, 844210, Note_on_c, 0, 69, 0
2, 844264, Note_on_c, 0, 73, 65
2, 844340, Note_on_c, 0, 73, 0
2, 844368, Note_on_c, 0, 78, 66
2, 844380, Note_on_c, 0, 69, 67
2, 844426, Note_on_c, 0, 69, 0
2, 844460, Note_on_c, 0, 73, 64
2, 844492, Note_on_c, 0, 78, 0
2, 844524, Note_on_c, 0, 73, 0
2, 844584, Note_on_c, 0, 74, 100
2, 844586, Note_on_c, 0, 71, 87
2, 844632, Note_on_c, 0, 71, 0
2, 844652, Note_on_c, 0, 74, 0
2, 844680, Note_on_c, 0, 66, 60
2, 844748, Note_on_c, 0, 66, 0
2, 844778, Note_on_c, 0, 62, 59
2, 844806, Note_on_c, 0, 71, 80
2, 844838, Note_on_c, 0, 62, 0
2, 844856, Note_on_c, 0, 71, 0
2, 844892, Note_on_c, 0, 61, 60
2, 844988, Note_on_c, 0, 61, 0
2, 845008, Note_on_c, 0, 71, 81
2, 845020, Note_on_c, 0, 62, 52
2, 845052, Note_on_c, 0, 71, 0
2, 845096, Note_on_c, 0, 62, 0
2, 845112, Note_on_c, 0, 66, 55
2, 845174, Note_on_c, 0, 66, 0
2, 845222, Note_on_c, 0, 74, 83
2, 845232, Note_on_c, 0, 71, 59
2, 845264, Note_on_c, 0, 74, 0
2, 845286, Note_on_c, 0, 71, 0
2, 845352, Note_on_c, 0, 66, 41
2, 845414, Note_on_c, 0, 66, 0
2, 845454, Note_on_c, 0, 76, 97
2, 845460, Note_on_c, 0, 67, 64
2, 845510, Note_on_c, 0, 67, 0
2, 845548, Note_on_c, 0, 76, 0
2, 845552, Note_on_c, 0, 66, 66
2, 845596, Note_on_c, 0, 66, 0
2, 845676, Note_on_c, 0, 64, 55
2, 845728, Note_on_c, 0, 64, 0
2, 845774, Note_on_c, 0, 71, 55
2, 845830, Note_on_c, 0, 71, 0
2, 845866, Note_on_c, 0, 69, 92
2, 845869, Note_on_c, 0, 73, 75
2, 845932, Note_on_c, 0, 69, 0
2, 845940, Note_on_c, 0, 73, 0
2, 845990, Note_on_c, 0, 59, 70
2, 846050, Note_on_c, 0, 59, 0
2, 846072, Note_on_c, 0, 61, 63
2, 846090, Note_on_c, 0, 69, 64
2, 846140, Note_on_c, 0, 69, 0
2, 846172, Note_on_c, 0, 61, 0
2, 846212, Note_on_c, 0, 64, 36
2, 846268, Note_on_c, 0, 64, 0
2, 846302, Note_on_c, 0, 66, 75
2, 846302, Note_on_c, 0, 74, 102
2, 846342, Note_on_c, 0, 66, 0
2, 846420, Note_on_c, 0, 64, 83
2, 846474, Note_on_c, 0, 64, 0
2, 846512, Note_on_c, 0, 66, 64
2, 846536, Note_on_c, 0, 62, 66
2, 846544, Note_on_c, 0, 74, 0
2, 846586, Note_on_c, 0, 62, 0
2, 846616, Note_on_c, 0, 66, 0
2, 846636, Note_on_c, 0, 69, 48
2, 846704, Note_on_c, 0, 69, 0
2, 846727, Note_on_c, 0, 67, 97
2, 846731, Note_on_c, 0, 71, 90
2, 846772, Note_on_c, 0, 71, 0
2, 846788, Note_on_c, 0, 67, 0
2, 846838, Note_on_c, 0, 57, 70
2, 846924, Note_on_c, 0, 57, 0
2, 846940, Note_on_c, 0, 67, 67
2, 846942, Note_on_c, 0, 59, 49
2, 846992, Note_on_c, 0, 67, 0
2, 847012, Note_on_c, 0, 59, 0
2, 847046, Note_on_c, 0, 62, 66
2, 847092, Note_on_c, 0, 62, 0
2, 847148, Note_on_c, 0, 73, 98
2, 847160, Note_on_c, 0, 64, 83
2, 847198, Note_on_c, 0, 64, 0
2, 847250, Note_on_c, 0, 73, 0
2, 847260, Note_on_c, 0, 62, 78
2, 847310, Note_on_c, 0, 62, 0
2, 847362, Note_on_c, 0, 54, 50
2, 847374, Note_on_c, 0, 64, 66
2, 847422, Note_on_c, 0, 54, 0
2, 847425, Note_on_c, 0, 64, 0
2, 847462, Note_on_c, 0, 67, 69
2, 847534, Note_on_c, 0, 67, 0
2, 847564, Note_on_c, 0, 62, 78
2, 847570, Note_on_c, 0, 71, 92
2, 847614, Note_on_c, 0, 62, 0
2, 847618, Note_on_c, 0, 71, 0
2, 847652, Note_on_c, 0, 61, 83
2, 847728, Note_on_c, 0, 61, 0
2, 847752, Note_on_c, 0, 62, 54
2, 847794, Note_on_c, 0, 50, 71
2, 847822, Note_on_c, 0, 62, 0
2, 847844, Note_on_c, 0, 50, 0
2, 847862, Note_on_c, 0, 66, 57
2, 847982, Note_on_c, 0, 61, 109
2, 847985, Note_on_c, 0, 69, 77
2, 847988, Note_on_c, 0, 66, 0
2, 848064, Note_on_c, 0, 61, 0
2, 848096, Note_on_c, 0, 69, 0
2, 848099, Note_on_c, 0, 59, 78
2, 848168, Note_on_c, 0, 59, 0
2, 848198, Note_on_c, 0, 61, 75
2, 848208, Note_on_c, 0, 50, 87
2, 848250, Note_on_c, 0, 50, 0
2, 848276, Note_on_c, 0, 61, 0
2, 848306, Note_on_c, 0, 64, 62
2, 848358, Note_on_c, 0, 64, 0
2, 848386, Note_on_c, 0, 67, 98
2, 848400, Note_on_c, 0, 59, 104
2, 848442, Note_on_c, 0, 59, 0
2, 848490, Note_on_c, 0, 67, 0
2, 848516, Note_on_c, 0, 57, 79
2, 848576, Note_on_c, 0, 57, 0
2, 848604, Note_on_c, 0, 59, 80
2, 848616, Note_on_c, 0, 50, 59
2, 848674, Note_on_c, 0, 50, 0
2, 848724, Note_on_c, 0, 59, 0
2, 848724, Note_on_c, 0, 62, 74
2, 848784, Note_on_c, 0, 62, 0
2, 848800, Note_on_c, 0, 57, 87
2, 848810, Note_on_c, 0, 66, 89
2, 848848, Note_on_c, 0, 57, 0
2, 848908, Note_on_c, 0, 55, 73
2, 848950, Note_on_c, 0, 66, 0
2, 848984, Note_on_c, 0, 57, 42
2, 848992, Note_on_c, 0, 55, 0
2, 849030, Note_on_c, 0, 50, 58
2, 849086, Note_on_c, 0, 50, 0
2, 849104, Note_on_c, 0, 57, 0
2, 849110, Note_on_c, 0, 61, 71
2, 849220, Note_on_c, 0, 55, 74
2, 849224, Note_on_c, 0, 64, 87
2, 849270, Note_on_c, 0, 55, 0
2, 849286, Note_on_c, 0, 61, 0
2, 849316, Note_on_c, 0, 54, 81
2, 849330, Note_on_c, 0, 64, 0
2, 849368, Note_on_c, 0, 54, 0
2, 849420, Note_on_c, 0, 55, 49
2, 849440, Note_on_c, 0, 50, 58
2, 849490, Note_on_c, 0, 55, 0
2, 849500, Note_on_c, 0, 50, 0
2, 849548, Note_on_c, 0, 59, 47
2, 849622, Note_on_c, 0, 54, 80
2, 849624, Note_on_c, 0, 59, 0
2, 849626, Note_on_c, 0, 62, 88
2, 849668, Note_on_c, 0, 54, 0
2, 849742, Note_on_c, 0, 62, 0
2, 849745, Note_on_c, 0, 52, 80
2, 849826, Note_on_c, 0, 54, 83
2, 849830, Note_on_c, 0, 52, 0
2, 849840, Note_on_c, 0, 50, 66
2, 849890, Note_on_c, 0, 50, 0
2, 849942, Note_on_c, 0, 54, 0
2, 849945, Note_on_c, 0, 57, 55
2, 850028, Note_on_c, 0, 61, 88
2, 850032, Note_on_c, 0, 52, 86
2, 850040, Note_on_c, 0, 57, 0
2, 850072, Note_on_c, 0, 52, 0
2, 850142, Note_on_c, 0, 61, 0
2, 850142, Note_on_c, 0, 50, 89
2, 850202, Note_on_c, 0, 50, 0
2, 850248, Note_on_c, 0, 52, 77
2, 850300, Note_on_c, 0, 52, 0
2, 850324, Note_on_c, 0, 55, 70
2, 850378, Note_on_c, 0, 55, 0
2, 850448, Note_on_c, 0, 57, 90
2, 850454, Note_on_c, 0, 54, 90
2, 850464, Note_on_c, 0, 50, 87
2, 850560, Control_c, 0, 64, 127
2, 850606, Note_on_c, 0, 50, 0
2, 850676, Note_on_c, 0, 38, 85
2, 850732, Note_on_c, 0, 38, 0
2, 850850, Note_on_c, 0, 57, 0
2, 850882, Note_on_c, 0, 54, 0
2, 850922, Note_on_c, 0, 38, 79
2, 850962, Note_on_c, 0, 38, 0
2, 850990, Control_c, 0, 64, 0
2, 851148, Note_on_c, 0, 52, 73
2, 851153, Note_on_c, 0, 45, 66
2, 851164, Note_on_c, 0, 57, 50
2, 851214, Note_on_c, 0, 45, 0
2, 851228, Note_on_c, 0, 52, 0
2, 851250, Note_on_c, 0, 61, 70
2, 851282, Note_on_c, 0, 57, 0
2, 851360, Note_on_c, 0, 57, 57
2, 851360, Note_on_c, 0, 54, 83
2, 851366, Note_on_c, 0, 50, 87
2, 851390, Note_on_c, 0, 61, 0
2, 851580, Note_on_c, 0, 50, 0
2, 851618, Note_on_c, 0, 38, 66
2, 851678, Note_on_c, 0, 38, 0
2, 851681, Control_c, 0, 64, 127
2, 851778, Note_on_c, 0, 57, 0
2, 851836, Control_c, 0, 64, 0
2, 851842, Note_on_c, 0, 38, 75
2, 851886, Note_on_c, 0, 38, 0
2, 851904, Note_on_c, 0, 54, 0
2, 852084, Note_on_c, 0, 45, 67
2, 852084, Note_on_c, 0, 52, 63
2, 852092, Note_on_c, 0, 57, 44
2, 852134, Note_on_c, 0, 45, 0
2, 852148, Note_on_c, 0, 52, 0
2, 852182, Note_on_c, 0, 57, 0
2, 852182, Note_on_c, 0, 61, 57
2, 852258, Note_on_c, 0, 61, 0
2, 852296, Note_on_c, 0, 50, 72
2, 852310, Note_on_c, 0, 54, 69
2, 852312, Note_on_c, 0, 57, 35
2, 852354, Note_on_c, 0, 50, 0
2, 852374, Note_on_c, 0, 54, 0
2, 852418, Note_on_c, 0, 57, 0
2, 852418, Note_on_c, 0, 62, 62
2, 852498, Note_on_c, 0, 62, 0
2, 852512, Note_on_c, 0, 42, 70
2, 852520, Note_on_c, 0, 57, 35
2, 852538, Note_on_c, 0, 54, 57
2, 852556, Note_on_c, 0, 42, 0
2, 852592, Note_on_c, 0, 54, 0
2, 852614, Note_on_c, 0, 62, 52
2, 852628, Note_on_c, 0, 57, 0
2, 852702, Note_on_c, 0, 62, 0
2, 852736, Note_on_c, 0, 59, 69
2, 852736, Note_on_c, 0, 43, 93
2, 852744, Note_on_c, 0, 54, 66
2, 852778, Note_on_c, 0, 43, 0
2, 852806, Note_on_c, 0, 54, 0
2, 852834, Note_on_c, 0, 62, 60
2, 852852, Note_on_c, 0, 59, 0
2, 852892, Note_on_c, 0, 62, 0
2, 852938, Note_on_c, 0, 57, 67
2, 852948, Note_on_c, 0, 52, 79
2, 852948, Note_on_c, 0, 45, 82
2, 852992, Note_on_c, 0, 45, 0
2, 853040, Note_on_c, 0, 61, 85
2, 853052, Note_on_c, 0, 57, 0
2, 853054, Note_on_c, 0, 52, 0
2, 853160, Note_on_c, 0, 57, 74
2, 853163, Note_on_c, 0, 50, 113
2, 853166, Note_on_c, 0, 54, 102
2, 853174, Note_on_c, 0, 61, 0
2, 853296, Control_c, 0, 64, 127
2, 853368, Note_on_c, 0, 50, 0
2, 853390, Note_on_c, 0, 54, 0
2, 853393, Note_on_c, 0, 38, 87
2, 853418, Note_on_c, 0, 57, 0
2, 853512, Note_on_c, 0, 38, 0
2, 853618, Note_on_c, 0, 38, 100
2, 853692, Note_on_c, 0, 38, 0
2, 853694, Control_c, 0, 64, 0
2, 853870, Note_on_c, 0, 62, 95
2, 853930, Note_on_c, 0, 62, 0
2, 853972, Note_on_c, 0, 74, 66
2, 853984, Note_on_c, 0, 50, 85
2, 854069, Note_on_c, 0, 50, 0
2, 854078, Note_on_c, 0, 74, 0
2, 854106, Note_on_c, 0, 64, 67
2, 854106, Note_on_c, 0, 60, 72
2, 854156, Note_on_c, 0, 64, 0
2, 854164, Note_on_c, 0, 60, 0
2, 854224, Note_on_c, 0, 50, 74
2, 854288, Note_on_c, 0, 50, 0
2, 854320, Note_on_c, 0, 60, 59
2, 854328, Note_on_c, 0, 64, 57
2, 854386, Note_on_c, 0, 60, 0
2, 854394, Note_on_c, 0, 64, 0
2, 854426, Note_on_c, 0, 74, 65
2, 854442, Note_on_c, 0, 50, 56
2, 854504, Note_on_c, 0, 50, 0
2, 854504, Note_on_c, 0, 74, 0
2, 854534, Note_on_c, 0, 57, 55
2, 854537, Note_on_c, 0, 66, 50
2, 854598, Note_on_c, 0, 66, 0
2, 854598, Note_on_c, 0, 57, 0
2, 854654, Note_on_c, 0, 50, 47
2, 854746, Note_on_c, 0, 50, 0
2, 854752, Note_on_c, 0, 66, 43
2, 854772, Note_on_c, 0, 57, 39
2, 854834, Note_on_c, 0, 57, 0
2, 854836, Note_on_c, 0, 66, 0
2, 854854, Note_on_c, 0, 74, 59
2, 854860, Note_on_c, 0, 50, 50
2, 854924, Note_on_c, 0, 74, 0
2, 854964, Note_on_c, 0, 50, 0
2, 854967, Note_on_c, 0, 67, 57
2, 854970, Note_on_c, 0, 59, 52
2, 855026, Note_on_c, 0, 67, 0
2, 855032, Note_on_c, 0, 59, 0
2, 855092, Note_on_c, 0, 50, 49
2, 855168, Note_on_c, 0, 50, 0
2, 855186, Note_on_c, 0, 67, 54
2, 855202, Note_on_c, 0, 59, 41
2, 855254, Note_on_c, 0, 67, 0
2, 855260, Note_on_c, 0, 59, 0
2, 855290, Note_on_c, 0, 74, 55
2, 855302, Note_on_c, 0, 50, 37
2, 855352, Note_on_c, 0, 74, 0
2, 855374, Note_on_c, 0, 50, 0
2, 855388, Note_on_c, 0, 55, 65
2, 855406, Note_on_c, 0, 71, 58
2, 855448, Note_on_c, 0, 55, 0
2, 855464, Note_on_c, 0, 71, 0
2, 855504, Note_on_c, 0, 50, 41
2, 855606, Note_on_c, 0, 50, 0
2, 855622, Note_on_c, 0, 71, 64
2, 855622, Note_on_c, 0, 55, 47
2, 855680, Note_on_c, 0, 55, 0
2, 855682, Note_on_c, 0, 71, 0
2, 855704, Note_on_c, 0, 74, 66
2, 855704, Note_on_c, 0, 50, 56
2, 855764, Note_on_c, 0, 74, 0
2, 855820, Note_on_c, 0, 54, 73
2, 855823, Note_on_c, 0, 72, 80
2, 855828, Note_on_c, 0, 50, 0
2, 855876, Note_on_c, 0, 72, 0
2, 855879, Note_on_c, 0, 54, 0
2, 855942, Note_on_c, 0, 50, 33
2, 856034, Note_on_c, 0, 54, 67
2, 856040, Note_on_c, 0, 72, 81
2, 856046, Note_on_c, 0, 50, 0
2, 856122, Note_on_c, 0, 54, 0
2, 856125, Note_on_c, 0, 72, 0
2, 856134, Note_on_c, 0, 74, 74
2, 856134, Note_on_c, 0, 50, 63
2, 856220, Note_on_c, 0, 74, 0
2, 856234, Note_on_c, 0, 73, 78
2, 856250, Note_on_c, 0, 52, 93
2, 856272, Note_on_c, 0, 50, 0
2, 856306, Note_on_c, 0, 73, 0
2, 856309, Note_on_c, 0, 52, 0
2, 856366, Note_on_c, 0, 50, 48
2, 856444, Note_on_c, 0, 73, 69
2, 856466, Note_on_c, 0, 52, 73
2, 856468, Note_on_c, 0, 50, 0
2, 856524, Note_on_c, 0, 52, 0
2, 856544, Note_on_c, 0, 50, 75
2, 856544, Note_on_c, 0, 74, 83
2, 856566, Note_on_c, 0, 73, 0
2, 856620, Note_on_c, 0, 74, 0
2, 856636, Note_on_c, 0, 50, 0
2, 856642, Note_on_c, 0, 66, 71
2, 856648, Note_on_c, 0, 69, 78
2, 856648, Note_on_c, 0, 62, 92
2, 856782, Control_c, 0, 64, 127
2, 856808, Note_on_c, 0, 62, 0
2, 856878, Note_on_c, 0, 66, 0
2, 856890, Note_on_c, 0, 50, 87
2, 856906, Note_on_c, 0, 69, 0
2, 856950, Note_on_c, 0, 50, 0
2, 857124, Note_on_c, 0, 50, 77
2, 857172, Note_on_c, 0, 50, 0
2, 857348, Note_on_c, 0, 74, 87
2, 857398, Note_on_c, 0, 74, 0
2, 857454, Note_on_c, 0, 86, 65
2, 857460, Control_c, 0, 64, 0
2, 857460, Note_on_c, 0, 62, 72
2, 857514, Note_on_c, 0, 62, 0
2, 857538, Note_on_c, 0, 86, 0
2, 857570, Note_on_c, 0, 72, 69
2, 857576, Note_on_c, 0, 76, 60
2, 857628, Note_on_c, 0, 72, 0
2, 857630, Note_on_c, 0, 76, 0
2, 857678, Note_on_c, 0, 86, 62
2, 857682, Note_on_c, 0, 62, 58
2, 857734, Note_on_c, 0, 62, 0
2, 857748, Note_on_c, 0, 86, 0
2, 857786, Note_on_c, 0, 72, 54
2, 857796, Note_on_c, 0, 76, 48
2, 857838, Note_on_c, 0, 72, 0
2, 857848, Note_on_c, 0, 76, 0
2, 857888, Note_on_c, 0, 86, 51
2, 857906, Note_on_c, 0, 62, 56
2, 857954, Note_on_c, 0, 86, 0
2, 857962, Note_on_c, 0, 62, 0
2, 858000, Note_on_c, 0, 78, 63
2, 858010, Note_on_c, 0, 69, 43
2, 858054, Note_on_c, 0, 78, 0
2, 858074, Note_on_c, 0, 69, 0
2, 858104, Note_on_c, 0, 86, 47
2, 858132, Note_on_c, 0, 62, 31
2, 858174, Note_on_c, 0, 86, 0
2, 858200, Note_on_c, 0, 62, 0
2, 858212, Note_on_c, 0, 78, 59
2, 858218, Note_on_c, 0, 69, 25
2, 858270, Note_on_c, 0, 78, 0
2, 858292, Note_on_c, 0, 69, 0
2, 858302, Note_on_c, 0, 86, 44
2, 858324, Note_on_c, 0, 62, 36
2, 858378, Note_on_c, 0, 86, 0
2, 858394, Note_on_c, 0, 62, 0
2, 858420, Note_on_c, 0, 71, 67
2, 858426, Note_on_c, 0, 79, 75
2, 858478, Note_on_c, 0, 71, 0
2, 858484, Note_on_c, 0, 79, 0
2, 858540, Note_on_c, 0, 86, 58
2, 858552, Note_on_c, 0, 62, 36
2, 858600, Note_on_c, 0, 86, 0
2, 858616, Note_on_c, 0, 62, 0
2, 858646, Note_on_c, 0, 79, 65
2, 858652, Note_on_c, 0, 71, 54
2, 858702, Note_on_c, 0, 79, 0
2, 858710, Note_on_c, 0, 71, 0
2, 858742, Note_on_c, 0, 86, 58
2, 858770, Note_on_c, 0, 62, 46
2, 858796, Note_on_c, 0, 86, 0
2, 858828, Note_on_c, 0, 62, 0
2, 858844, Note_on_c, 0, 83, 109
2, 858850, Note_on_c, 0, 67, 57
2, 858912, Note_on_c, 0, 67, 0
2, 858924, Note_on_c, 0, 83, 0
2, 858950, Note_on_c, 0, 86, 70
2, 858974, Note_on_c, 0, 62, 48
2, 859014, Note_on_c, 0, 86, 0
2, 859048, Note_on_c, 0, 62, 0
2, 859051, Note_on_c, 0, 83, 100
2, 859076, Note_on_c, 0, 67, 49
2, 859120, Note_on_c, 0, 83, 0
2, 859136, Note_on_c, 0, 67, 0
2, 859152, Note_on_c, 0, 86, 71
2, 859180, Note_on_c, 0, 62, 55
2, 859204, Note_on_c, 0, 86, 0
2, 859256, Note_on_c, 0, 84, 100
2, 859264, Note_on_c, 0, 62, 0
2, 859266, Note_on_c, 0, 66, 63
2, 859330, Note_on_c, 0, 66, 0
2, 859344, Note_on_c, 0, 86, 93
2, 859352, Note_on_c, 0, 84, 0
2, 859378, Note_on_c, 0, 62, 48
2, 859418, Note_on_c, 0, 86, 0
2, 859452, Note_on_c, 0, 84, 65
2, 859468, Note_on_c, 0, 66, 59
2, 859476, Note_on_c, 0, 62, 0
2, 859530, Note_on_c, 0, 66, 0
2, 859552, Note_on_c, 0, 86, 93
2, 859562, Note_on_c, 0, 84, 0
2, 859564, Note_on_c, 0, 62, 63
2, 859634, Note_on_c, 0, 86, 0
2, 859668, Note_on_c, 0, 64, 86
2, 859674, Note_on_c, 0, 85, 78
2, 859680, Note_on_c, 0, 62, 0
2, 859724, Note_on_c, 0, 64, 0
2, 859766, Note_on_c, 0, 86, 90
2, 859780, Note_on_c, 0, 85, 0
2, 859780, Note_on_c, 0, 62, 50
2, 859836, Note_on_c, 0, 86, 0
2, 859866, Note_on_c, 0, 85, 59
2, 859869, Note_on_c, 0, 64, 62
2, 859882, Note_on_c, 0, 62, 0
2, 859928, Note_on_c, 0, 64, 0
2, 859954, Note_on_c, 0, 62, 75
2, 859974, Note_on_c, 0, 86, 79
2, 859992, Note_on_c, 0, 85, 0
2, 860022, Note_on_c, 0, 86, 0
2, 860028, Note_on_c, 0, 62, 0
2, 860074, Note_on_c, 0, 81, 92
2, 860074, Note_on_c, 0, 78, 82
2, 860077, Note_on_c, 0, 74, 90
2, 860240, Control_c, 0, 64, 127
2, 860264, Note_on_c, 0, 74, 0
2, 860330, Note_on_c, 0, 62, 78
2, 860344, Note_on_c, 0, 81, 0
2, 860360, Note_on_c, 0, 78, 0
2, 860400, Note_on_c, 0, 62, 0
2, 860546, Note_on_c, 0, 62, 69
2, 860588, Note_on_c, 0, 62, 0
2, 860686, Control_c, 0, 64, 0
2, 860788, Note_on_c, 0, 69, 52
2, 860794, Note_on_c, 0, 57, 73
2, 860794, Note_on_c, 0, 64, 46
2, 860866, Note_on_c, 0, 64, 0
2, 860904, Note_on_c, 0, 72, 75
2, 860914, Note_on_c, 0, 69, 0
2, 861004, Note_on_c, 0, 57, 0
2, 861004, Note_on_c, 0, 69, 62
2, 861012, Note_on_c, 0, 66, 60
2, 861012, Note_on_c, 0, 62, 75
2, 861034, Note_on_c, 0, 72, 0
2, 861070, Control_c, 0, 64, 127
2, 861162, Control_c, 0, 64, 0
2, 861176, Note_on_c, 0, 62, 0
2, 861240, Note_on_c, 0, 50, 86
2, 861292, Note_on_c, 0, 50, 0
2, 861476, Note_on_c, 0, 50, 67
2, 861484, Note_on_c, 0, 69, 0
2, 861516, Note_on_c, 0, 66, 0
2, 861526, Note_on_c, 0, 50, 0
2, 861678, Note_on_c, 0, 69, 46
2, 861690, Note_on_c, 0, 64, 36
2, 861694, Note_on_c, 0, 57, 56
2, 861754, Note_on_c, 0, 64, 0
2, 861762, Note_on_c, 0, 57, 0
2, 861792, Control_c, 0, 64, 127
2, 861810, Note_on_c, 0, 72, 47
2, 861824, Note_on_c, 0, 69, 0
2, 861944, Note_on_c, 0, 69, 35
2, 861946, Note_on_c, 0, 66, 4
2, 861950, Note_on_c, 0, 62, 47
2, 861956, Note_on_c, 0, 72, 0
2, 862068, Control_c, 0, 64, 0
2, 862094, Note_on_c, 0, 62, 0
2, 862158, Note_on_c, 0, 50, 55
2, 862220, Note_on_c, 0, 50, 0
2, 862388, Note_on_c, 0, 50, 57
2, 862406, Note_on_c, 0, 66, 0
2, 862428, Note_on_c, 0, 69, 0
2, 862440, Note_on_c, 0, 50, 0
2, 862610, Note_on_c, 0, 69, 54
2, 862616, Note_on_c, 0, 57, 57
2, 862624, Note_on_c, 0, 64, 43
2, 862688, Note_on_c, 0, 64, 0
2, 862716, Note_on_c, 0, 69, 0
2, 862724, Note_on_c, 0, 72, 55
2, 862802, Note_on_c, 0, 57, 0
2, 862804, Note_on_c, 0, 72, 0
2, 862822, Note_on_c, 0, 62, 63
2, 862832, Note_on_c, 0, 69, 43
2, 862838, Note_on_c, 0, 66, 43
2, 862942, Note_on_c, 0, 69, 0
2, 862948, Note_on_c, 0, 72, 51
2, 862970, Note_on_c, 0, 66, 0
2, 863006, Note_on_c, 0, 62, 0
2, 863032, Note_on_c, 0, 72, 0
2, 863054, Note_on_c, 0, 69, 32
2, 863064, Note_on_c, 0, 64, 41
2, 863076, Note_on_c, 0, 57, 43
2, 863098, Control_c, 0, 64, 127
2, 863130, Note_on_c, 0, 64, 0
2, 863140, Note_on_c, 0, 57, 0
2, 863162, Note_on_c, 0, 72, 47
2, 863164, Note_on_c, 0, 69, 0
2, 863250, Note_on_c, 0, 72, 0
2, 863274, Note_on_c, 0, 69, 37
2, 863282, Note_on_c, 0, 50, 59
2, 863285, Note_on_c, 0, 66, 37
2, 863366, Note_on_c, 0, 66, 0
2, 863384, Note_on_c, 0, 69, 0
2, 863387, Note_on_c, 0, 72, 59
2, 863422, Note_on_c, 0, 50, 0
2, 863460, Note_on_c, 0, 72, 0
2, 863494, Note_on_c, 0, 69, 51
2, 863504, Note_on_c, 0, 64, 62
2, 863510, Note_on_c, 0, 45, 57
2, 863562, Note_on_c, 0, 64, 0
2, 863576, Note_on_c, 0, 45, 0
2, 863594, Note_on_c, 0, 69, 0
2, 863602, Note_on_c, 0, 72, 75
2, 863694, Note_on_c, 0, 72, 0
2, 863712, Note_on_c, 0, 66, 71
2, 863712, Note_on_c, 0, 69, 72
2, 863712, Note_on_c, 0, 38, 85
2, 863828, Note_on_c, 0, 72, 79
2, 863853, Note_on_c, 0, 69, 0
2, 863872, Note_on_c, 0, 66, 0
2, 863920, Note_on_c, 0, 69, 69
2, 863938, Note_on_c, 0, 45, 77
2, 863938, Note_on_c, 0, 64, 75
2, 863954, Note_on_c, 0, 72, 0
2, 864010, Note_on_c, 0, 38, 0
2, 864038, Note_on_c, 0, 64, 0
2, 864038, Note_on_c, 0, 72, 57
2, 864066, Note_on_c, 0, 69, 0
2, 864076, Note_on_c, 0, 45, 0
2, 864146, Note_on_c, 0, 69, 54
2, 864154, Note_on_c, 0, 50, 74
2, 864158, Note_on_c, 0, 66, 64
2, 864168, Note_on_c, 0, 72, 0
2, 864250, Note_on_c, 0, 72, 62
2, 864274, Note_on_c, 0, 69, 0
2, 864282, Note_on_c, 0, 66, 0
2, 864360, Note_on_c, 0, 69, 49
2, 864376, Note_on_c, 0, 64, 63
2, 864382, Note_on_c, 0, 72, 0
2, 864386, Note_on_c, 0, 57, 62
2, 864436, Note_on_c, 0, 64, 0
2, 864470, Note_on_c, 0, 72, 57
2, 864488, Note_on_c, 0, 69, 0
2, 864530, Note_on_c, 0, 72, 0
2, 864533, Note_on_c, 0, 57, 0
2, 864542, Control_c, 0, 64, 0
2, 864598, Note_on_c, 0, 69, 77
2, 864608, Note_on_c, 0, 66, 63
2, 864612, Note_on_c, 0, 62, 87
2, 864694, Note_on_c, 0, 66, 0
2, 864696, Control_c, 0, 64, 127
2, 864702, Note_on_c, 0, 72, 86
2, 864736, Note_on_c, 0, 69, 0
2, 864739, Note_on_c, 0, 72, 0
2, 864832, Note_on_c, 0, 72, 48
2, 864836, Note_on_c, 0, 69, 70
2, 864888, Note_on_c, 0, 69, 0
2, 864932, Note_on_c, 0, 78, 89
2, 864950, Note_on_c, 0, 72, 0
2, 864976, Note_on_c, 0, 78, 0
2, 865066, Note_on_c, 0, 78, 80
2, 865074, Note_on_c, 0, 72, 81
2, 865130, Note_on_c, 0, 72, 0
2, 865153, Note_on_c, 0, 81, 86
2, 865170, Note_on_c, 0, 78, 0
2, 865202, Note_on_c, 0, 81, 0
2, 865274, Note_on_c, 0, 78, 58
2, 865277, Note_on_c, 0, 81, 79
2, 865342, Note_on_c, 0, 78, 0
2, 865370, Note_on_c, 0, 84, 95
2, 865398, Note_on_c, 0, 81, 0
2, 865402, Note_on_c, 0, 84, 0
2, 865502, Note_on_c, 0, 84, 26
2, 865505, Note_on_c, 0, 81, 73
2, 865560, Note_on_c, 0, 81, 0
2, 865586, Note_on_c, 0, 90, 87
2, 865618, Note_on_c, 0, 84, 0
2, 865634, Note_on_c, 0, 90, 0
2, 865734, Note_on_c, 0, 90, 73
2, 865734, Note_on_c, 0, 84, 66
2, 865796, Note_on_c, 0, 84, 0
2, 865818, Note_on_c, 0, 93, 80
2, 865826, Note_on_c, 0, 90, 0
2, 865868, Note_on_c, 0, 93, 0
2, 865890, Note_on_c, 0, 62, 0
2, 865944, Note_on_c, 0, 50, 0
2, 865962, Note_on_c, 0, 93, 89
2, 865965, Note_on_c, 0, 90, 77
2, 866054, Note_on_c, 0, 96, 100
2, 866088, Note_on_c, 0, 90, 0
2, 866090, Note_on_c, 0, 96, 0
2, 866102, Note_on_c, 0, 93, 0
2, 866248, Note_on_c, 0, 50, 127
2, 866250, Note_on_c, 0, 38, 111
2, 866278, Note_on_c, 0, 38, 0
2, 866338, Note_on_c, 0, 50, 0
2, 866580, Note_on_c, 0, 83, 127
2, 866582, Note_on_c, 0, 71, 127
2, 866590, Note_on_c, 0, 55, 125
2, 866594, Note_on_c, 0, 43, 116
2, 866724, Control_c, 0, 64, 0
2, 866940, Note_on_c, 0, 55, 0
2, 866940, Control_c, 0, 64, 127
2, 866952, Note_on_c, 0, 83, 0
2, 866984, Note_on_c, 0, 71, 0
2, 867008, Note_on_c, 0, 43, 0
2, 867050, Note_on_c, 0, 69, 108
2, 867050, Note_on_c, 0, 81, 105
2, 867053, Note_on_c, 0, 54, 101
2, 867056, Note_on_c, 0, 42, 93
2, 867150, Note_on_c, 0, 69, 0
2, 867158, Note_on_c, 0, 54, 0
2, 867160, Note_on_c, 0, 81, 0
2, 867250, Note_on_c, 0, 42, 0
2, 867276, Note_on_c, 0, 67, 112
2, 867282, Note_on_c, 0, 79, 116
2, 867284, Note_on_c, 0, 52, 115
2, 867288, Note_on_c, 0, 40, 117
2, 867380, Note_on_c, 0, 40, 0
2, 867382, Note_on_c, 0, 79, 0
2, 867385, Note_on_c, 0, 67, 0
2, 867392, Note_on_c, 0, 52, 0
2, 867476, Control_c, 0, 64, 0
2, 867502, Note_on_c, 0, 66, 109
2, 867505, Note_on_c, 0, 78, 112
2, 867514, Note_on_c, 0, 50, 119
2, 867518, Note_on_c, 0, 38, 117
2, 867604, Note_on_c, 0, 50, 0
2, 867610, Note_on_c, 0, 38, 0
2, 867626, Note_on_c, 0, 78, 0
2, 867630, Control_c, 0, 64, 127
2, 867638, Note_on_c, 0, 66, 0
2, 867724, Note_on_c, 0, 76, 112
2, 867724, Note_on_c, 0, 64, 118
2, 867730, Note_on_c, 0, 48, 109
2, 867730, Note_on_c, 0, 36, 120
2, 867768, Control_c, 0, 64, 0
2, 867808, Note_on_c, 0, 64, 0
2, 867812, Note_on_c, 0, 36, 0
2, 867814, Note_on_c, 0, 76, 0
2, 867820, Note_on_c, 0, 48, 0
2, 867934, Note_on_c, 0, 62, 118
2, 867934, Note_on_c, 0, 74, 121
2, 867942, Note_on_c, 0, 47, 112
2, 867944, Note_on_c, 0, 35, 124
2, 868022, Note_on_c, 0, 47, 0
2, 868026, Note_on_c, 0, 62, 0
2, 868026, Note_on_c, 0, 74, 0
2, 868026, Note_on_c, 0, 35, 0
2, 868150, Note_on_c, 0, 60, 118
2, 868152, Note_on_c, 0, 72, 118
2, 868154, Note_on_c, 0, 45, 116
2, 868154, Note_on_c, 0, 33, 119
2, 868236, Note_on_c, 0, 45, 0
2, 868246, Note_on_c, 0, 60, 0
2, 868266, Note_on_c, 0, 72, 0
2, 868266, Note_on_c, 0, 33, 0
2, 868376, Note_on_c, 0, 71, 126
2, 868376, Note_on_c, 0, 59, 120
2, 868376, Note_on_c, 0, 31, 111
2, 868382, Note_on_c, 0, 43, 106
2, 868426, Note_on_c, 0, 43, 0
2, 868438, Note_on_c, 0, 31, 0
2, 868464, Note_on_c, 0, 71, 0
2, 868474, Note_on_c, 0, 59, 0
2, 868588, Note_on_c, 0, 45, 106
2, 868592, Note_on_c, 0, 33, 111
2, 868604, Note_on_c, 0, 72, 118
2, 868604, Note_on_c, 0, 60, 111
2, 868674, Note_on_c, 0, 45, 0
2, 868692, Note_on_c, 0, 33, 0
2, 868692, Note_on_c, 0, 72, 0
2, 868700, Note_on_c, 0, 60, 0
2, 868854, Note_on_c, 0, 74, 127
2, 868858, Note_on_c, 0, 47, 112
2, 868858, Note_on_c, 0, 62, 121
2, 868864, Note_on_c, 0, 35, 117
2, 869462, Note_on_c, 0, 35, 0
2, 869462, Note_on_c, 0, 47, 0
2, 869468, Note_on_c, 0, 62, 0
2, 869474, Control_c, 0, 64, 127
2, 869524, Note_on_c, 0, 74, 0
2, 869728, Note_on_c, 0, 76, 115
2, 869730, Note_on_c, 0, 67, 101
2, 869730, Note_on_c, 0, 64, 109
2, 869734, Note_on_c, 0, 48, 104
2, 869740, Note_on_c, 0, 36, 108
2, 869766, Control_c, 0, 64, 0
2, 869972, Note_on_c, 0, 48, 0
2, 869982, Control_c, 0, 64, 127
2, 869994, Note_on_c, 0, 76, 0
2, 870002, Note_on_c, 0, 36, 0
2, 870054, Note_on_c, 0, 64, 0
2, 870062, Note_on_c, 0, 67, 0
2, 870182, Note_on_c, 0, 72, 106
2, 870184, Note_on_c, 0, 60, 115
2, 870188, Note_on_c, 0, 66, 86
2, 870190, Note_on_c, 0, 45, 109
2, 870196, Note_on_c, 0, 33, 112
2, 870480, Note_on_c, 0, 33, 0
2, 870516, Note_on_c, 0, 45, 0
2, 870520, Note_on_c, 0, 72, 0
2, 870538, Note_on_c, 0, 60, 0
2, 870620, Note_on_c, 0, 47, 109
2, 870624, Note_on_c, 0, 66, 0
2, 870624, Note_on_c, 0, 62, 108
2, 870624, Note_on_c, 0, 71, 113
2, 870624, Note_on_c, 0, 35, 110
2, 870628, Note_on_c, 0, 67, 94
2, 870756, Note_on_c, 0, 35, 0
2, 870774, Note_on_c, 0, 47, 0
2, 870868, Note_on_c, 0, 48, 108
2, 870874, Note_on_c, 0, 36, 110
2, 870928, Note_on_c, 0, 67, 0
2, 870950, Note_on_c, 0, 62, 0
2, 870986, Note_on_c, 0, 71, 0
2, 870990, Note_on_c, 0, 36, 0
2, 870992, Note_on_c, 0, 48, 0
2, 871130, Note_on_c, 0, 60, 113
2, 871134, Note_on_c, 0, 69, 93
2, 871136, Note_on_c, 0, 50, 116
2, 871138, Note_on_c, 0, 66, 86
2, 871142, Note_on_c, 0, 38, 108
2, 871188, Note_on_c, 0, 69, 0
2, 871204, Note_on_c, 0, 71, 95
2, 871242, Control_c, 0, 64, 0
2, 871286, Note_on_c, 0, 69, 81
2, 871380, Note_on_c, 0, 71, 0
2, 871826, Control_c, 0, 64, 127
2, 872060, Note_on_c, 0, 67, 105
2, 872062, Note_on_c, 0, 38, 0
2, 872084, Note_on_c, 0, 50, 0
2, 872108, Note_on_c, 0, 66, 0
2, 872126, Note_on_c, 0, 69, 0
2, 872140, Note_on_c, 0, 60, 0
2, 872152, Note_on_c, 0, 67, 0
2, 872286, Control_c, 0, 64, 0
2, 872288, Note_on_c, 0, 67, 115
2, 872292, Note_on_c, 0, 62, 108
2, 872292, Note_on_c, 0, 59, 109
2, 872295, Note_on_c, 0, 55, 113
2, 872300, Note_on_c, 0, 43, 102
2, 872412, Note_on_c, 0, 55, 0
2, 872415, Note_on_c, 0, 62, 0
2, 872442, Note_on_c, 0, 67, 0
2, 872442, Control_c, 0, 64, 127
2, 872444, Note_on_c, 0, 43, 0
2, 872480, Note_on_c, 0, 59, 0
2, 872562, Control_c, 0, 64, 0
2, 872744, Note_on_c, 0, 55, 110
2, 872758, Note_on_c, 0, 31, 112
2, 872760, Note_on_c, 0, 43, 101
2, 872798, Note_on_c, 0, 31, 0
2, 872842, Note_on_c, 0, 55, 0
2, 872868, Note_on_c, 0, 43, 0
2, 872886, Control_c, 0, 64, 127
2, 872948, Control_c, 0, 64, 0
2, 873222, Note_on_c, 0, 31, 109
2, 873224, Note_on_c, 0, 55, 115
2, 873232, Note_on_c, 0, 43, 109
2, 873256, Note_on_c, 0, 31, 0
2, 873268, Note_on_c, 0, 43, 0
2, 873300, Control_c, 0, 64, 127
2, 873310, Note_on_c, 0, 55, 0
2, 873608, Control_c, 0, 64, 0
2, 874772, Note_on_c, 0, 74, 51
2, 875136, Note_on_c, 0, 79, 65
2, 875150, Note_on_c, 0, 70, 23
2, 875160, Note_on_c, 0, 67, 16
2, 875186, Note_on_c, 0, 74, 0
2, 875458, Note_on_c, 0, 77, 54
2, 875466, Control_c, 0, 64, 127
2, 875508, Note_on_c, 0, 79, 0
2, 875594, Note_on_c, 0, 75, 65
2, 875618, Note_on_c, 0, 77, 0
2, 875788, Note_on_c, 0, 74, 74
2, 875822, Note_on_c, 0, 69, 26
2, 875830, Note_on_c, 0, 70, 0
2, 875836, Note_on_c, 0, 75, 0
2, 875850, Control_c, 0, 64, 0
2, 876068, Note_on_c, 0, 67, 0
2, 876080, Control_c, 0, 64, 127
2, 876122, Note_on_c, 0, 72, 72
2, 876156, Note_on_c, 0, 74, 0
2, 876344, Note_on_c, 0, 69, 0
2, 876406, Note_on_c, 0, 70, 59
2, 876450, Note_on_c, 0, 72, 0
2, 876450, Control_c, 0, 64, 0
2, 876454, Note_on_c, 0, 67, 27
2, 876584, Note_on_c, 0, 72, 44
2, 876594, Note_on_c, 0, 69, 35
2, 876604, Note_on_c, 0, 70, 0
2, 876682, Note_on_c, 0, 69, 0
2, 876804, Note_on_c, 0, 72, 0
2, 876818, Note_on_c, 0, 74, 54
2, 876820, Note_on_c, 0, 70, 25
2, 877202, Control_c, 0, 64, 127
2, 877388, Note_on_c, 0, 70, 0
2, 877394, Note_on_c, 0, 74, 0
2, 877532, Note_on_c, 0, 70, 47
2, 877535, Note_on_c, 0, 74, 65
2, 877660, Note_on_c, 0, 70, 0
2, 877665, Note_on_c, 0, 74, 0
2, 877780, Note_on_c, 0, 67, 0
2, 877860, Note_on_c, 0, 74, 74
2, 877870, Note_on_c, 0, 69, 47
2, 877882, Note_on_c, 0, 65, 36
2, 878002, Control_c, 0, 64, 0
2, 878186, Control_c, 0, 64, 127
2, 878220, Note_on_c, 0, 74, 0
2, 878264, Note_on_c, 0, 69, 0
2, 878422, Note_on_c, 0, 73, 59
2, 878476, Note_on_c, 0, 73, 0
2, 878492, Note_on_c, 0, 74, 2
2, 878562, Note_on_c, 0, 73, 39
2, 878578, Note_on_c, 0, 65, 0
2, 878580, Note_on_c, 0, 74, 0
2, 878583, Note_on_c, 0, 67, 46
2, 878590, Note_on_c, 0, 63, 36
2, 878632, Control_c, 0, 64, 0
2, 878986, Control_c, 0, 64, 127
2, 879028, Note_on_c, 0, 67, 0
2, 879340, Note_on_c, 0, 74, 52
2, 879344, Note_on_c, 0, 63, 0
2, 879356, Note_on_c, 0, 66, 17
2, 879362, Note_on_c, 0, 62, 24
2, 879376, Note_on_c, 0, 73, 0
2, 879400, Control_c, 0, 64, 0
2, 880014, Control_c, 0, 64, 127
2, 880208, Note_on_c, 0, 74, 0
2, 880478, Note_on_c, 0, 74, 63
2, 880510, Note_on_c, 0, 66, 0
2, 880542, Note_on_c, 0, 74, 0
2, 880566, Note_on_c, 0, 62, 0
2, 880804, Note_on_c, 0, 75, 78
2, 880806, Note_on_c, 0, 70, 43
2, 880810, Note_on_c, 0, 60, 28
2, 881136, Control_c, 0, 64, 0
2, 881144, Note_on_c, 0, 69, 51
2, 881186, Note_on_c, 0, 70, 0
2, 881274, Control_c, 0, 64, 127
2, 881352, Note_on_c, 0, 69, 0
2, 881355, Note_on_c, 0, 75, 0
2, 881480, Note_on_c, 0, 72, 82
2, 881496, Note_on_c, 0, 57, 33
2, 881506, Note_on_c, 0, 67, 31
2, 881542, Note_on_c, 0, 60, 0
2, 881720, Control_c, 0, 64, 0
2, 881778, Note_on_c, 0, 67, 0
2, 881798, Note_on_c, 0, 66, 57
2, 881874, Control_c, 0, 64, 127
2, 881930, Note_on_c, 0, 66, 0
2, 881942, Note_on_c, 0, 72, 0
2, 882098, Note_on_c, 0, 74, 82
2, 882120, Note_on_c, 0, 69, 32
2, 882126, Note_on_c, 0, 57, 0
2, 882129, Note_on_c, 0, 58, 26
2, 882304, Control_c, 0, 64, 0
2, 882438, Note_on_c, 0, 67, 59
2, 882450, Note_on_c, 0, 69, 0
2, 882458, Control_c, 0, 64, 127
2, 882492, Note_on_c, 0, 74, 0
2, 882604, Note_on_c, 0, 67, 0
2, 882740, Note_on_c, 0, 70, 75
2, 882752, Note_on_c, 0, 65, 67
2, 882772, Note_on_c, 0, 55, 43
2, 882775, Note_on_c, 0, 58, 0
2, 883026, Control_c, 0, 64, 0
2, 883056, Note_on_c, 0, 63, 75
2, 883076, Note_on_c, 0, 65, 0
2, 883164, Control_c, 0, 64, 127
2, 883206, Note_on_c, 0, 70, 0
2, 883228, Note_on_c, 0, 63, 0
2, 883368, Note_on_c, 0, 69, 74
2, 883374, Note_on_c, 0, 55, 0
2, 883382, Note_on_c, 0, 63, 78
2, 883410, Note_on_c, 0, 53, 62
2, 883624, Control_c, 0, 64, 0
2, 883690, Note_on_c, 0, 62, 77
2, 883700, Note_on_c, 0, 63, 0
2, 883818, Note_on_c, 0, 69, 0
2, 883824, Control_c, 0, 64, 127
2, 883890, Note_on_c, 0, 62, 0
2, 884022, Note_on_c, 0, 67, 67
2, 884040, Note_on_c, 0, 62, 60
2, 884052, Note_on_c, 0, 53, 0
2, 884062, Note_on_c, 0, 51, 37
2, 884086, Control_c, 0, 64, 0
2, 884422, Note_on_c, 0, 60, 67
2, 884425, Note_on_c, 0, 62, 0
2, 884640, Control_c, 0, 64, 127
2, 884696, Note_on_c, 0, 60, 0
2, 884858, Note_on_c, 0, 66, 59
2, 884884, Note_on_c, 0, 57, 37
2, 884900, Note_on_c, 0, 50, 35
2, 884900, Control_c, 0, 64, 0
2, 884908, Note_on_c, 0, 67, 0
2, 884952, Note_on_c, 0, 51, 0
2, 885490, Note_on_c, 0, 57, 0
2, 885546, Control_c, 0, 64, 127
2, 885568, Note_on_c, 0, 50, 0
2, 885652, Note_on_c, 0, 66, 0
2, 885900, Control_c, 0, 64, 0
2, 886202, Control_c, 0, 64, 0
2, 886320, Note_on_c, 0, 77, 86
2, 886616, Control_c, 0, 64, 127
2, 886696, Note_on_c, 0, 82, 83
2, 886720, Note_on_c, 0, 70, 32
2, 886722, Note_on_c, 0, 74, 48
2, 886724, Note_on_c, 0, 77, 0
2, 886892, Control_c, 0, 64, 0
2, 887044, Note_on_c, 0, 81, 63
2, 887062, Control_c, 0, 64, 127
2, 887096, Note_on_c, 0, 82, 0
2, 887184, Note_on_c, 0, 79, 89
2, 887212, Note_on_c, 0, 81, 0
2, 887320, Note_on_c, 0, 74, 0
2, 887350, Note_on_c, 0, 77, 85
2, 887362, Note_on_c, 0, 79, 0
2, 887368, Note_on_c, 0, 72, 34
2, 887384, Control_c, 0, 64, 0
2, 887644, Control_c, 0, 64, 127
2, 887682, Note_on_c, 0, 75, 79
2, 887728, Note_on_c, 0, 70, 0
2, 887736, Note_on_c, 0, 77, 0
2, 887876, Note_on_c, 0, 72, 0
2, 888008, Note_on_c, 0, 70, 25
2, 888014, Control_c, 0, 64, 0
2, 888016, Note_on_c, 0, 74, 80
2, 888056, Note_on_c, 0, 75, 0
2, 888196, Note_on_c, 0, 75, 63
2, 888200, Note_on_c, 0, 72, 44
2, 888204, Note_on_c, 0, 74, 0
2, 888268, Note_on_c, 0, 72, 0
2, 888380, Note_on_c, 0, 77, 51
2, 888398, Note_on_c, 0, 75, 0
2, 888400, Note_on_c, 0, 74, 39
2, 888752, Control_c, 0, 64, 127
2, 888784, Note_on_c, 0, 74, 0
2, 888798, Note_on_c, 0, 77, 0
2, 889014, Note_on_c, 0, 77, 90
2, 889018, Note_on_c, 0, 74, 54
2, 889112, Note_on_c, 0, 74, 0
2, 889174, Note_on_c, 0, 77, 0
2, 889328, Note_on_c, 0, 70, 0
2, 889360, Note_on_c, 0, 77, 96
2, 889372, Note_on_c, 0, 69, 35
2, 889372, Note_on_c, 0, 72, 59
2, 889596, Control_c, 0, 64, 0
2, 889704, Control_c, 0, 64, 127
2, 889788, Note_on_c, 0, 77, 0
2, 889814, Note_on_c, 0, 72, 0
2, 889910, Note_on_c, 0, 76, 28
2, 889948, Note_on_c, 0, 77, 69
2, 889956, Note_on_c, 0, 69, 0
2, 889988, Note_on_c, 0, 76, 0
2, 890028, Note_on_c, 0, 70, 48
2, 890031, Note_on_c, 0, 76, 48
2, 890038, Note_on_c, 0, 67, 37
2, 890050, Note_on_c, 0, 77, 0
2, 890258, Control_c, 0, 64, 0
2, 890518, Control_c, 0, 64, 127
2, 890596, Note_on_c, 0, 70, 0
2, 890710, Note_on_c, 0, 67, 0
2, 890780, Note_on_c, 0, 77, 49
2, 890783, Note_on_c, 0, 65, 23
2, 890788, Note_on_c, 0, 69, 24
2, 890796, Note_on_c, 0, 76, 0
2, 890856, Control_c, 0, 64, 0
2, 891102, Control_c, 0, 64, 127
2, 891164, Note_on_c, 0, 65, 0
2, 891166, Note_on_c, 0, 63, 43
2, 891262, Note_on_c, 0, 69, 0
2, 891265, Note_on_c, 0, 77, 0
2, 891372, Note_on_c, 0, 63, 0
2, 891486, Control_c, 0, 64, 0
2, 891494, Note_on_c, 0, 62, 67
2, 891496, Note_on_c, 0, 70, 70
2, 891500, Note_on_c, 0, 77, 101
2, 891610, Control_c, 0, 64, 127
2, 891648, Note_on_c, 0, 62, 0
2, 891762, Note_on_c, 0, 70, 0
2, 891814, Note_on_c, 0, 58, 88
2, 891814, Note_on_c, 0, 82, 93
2, 891820, Note_on_c, 0, 46, 73
2, 891828, Note_on_c, 0, 74, 89
2, 891842, Note_on_c, 0, 77, 0
2, 891852, Note_on_c, 0, 58, 0
2, 891864, Note_on_c, 0, 46, 0
2, 892022, Note_on_c, 0, 74, 0
2, 892194, Note_on_c, 0, 82, 0
2, 892216, Note_on_c, 0, 67, 106
2, 892218, Note_on_c, 0, 77, 95
2, 892220, Note_on_c, 0, 70, 69
2, 892222, Note_on_c, 0, 55, 92
2, 892592, Control_c, 0, 64, 0
2, 892616, Note_on_c, 0, 77, 0
2, 892670, Note_on_c, 0, 82, 72
2, 892684, Note_on_c, 0, 75, 66
2, 892730, Note_on_c, 0, 70, 0
2, 892778, Control_c, 0, 64, 127
2, 892812, Note_on_c, 0, 67, 0
2, 892853, Note_on_c, 0, 55, 0
2, 892860, Note_on_c, 0, 75, 0
2, 892932, Note_on_c, 0, 82, 0
2, 893000, Note_on_c, 0, 75, 85
2, 893006, Note_on_c, 0, 70, 71
2, 893014, Note_on_c, 0, 65, 98
2, 893022, Note_on_c, 0, 53, 116
2, 893162, Control_c, 0, 64, 0
2, 893276, Note_on_c, 0, 75, 0
2, 893330, Control_c, 0, 64, 127
2, 893354, Note_on_c, 0, 70, 0
2, 893368, Note_on_c, 0, 82, 90
2, 893374, Note_on_c, 0, 74, 100
2, 893456, Note_on_c, 0, 65, 0
2, 893470, Note_on_c, 0, 53, 0
2, 893473, Note_on_c, 0, 82, 0
2, 893482, Note_on_c, 0, 74, 0
2, 893692, Note_on_c, 0, 70, 79
2, 893695, Note_on_c, 0, 74, 104
2, 893698, Note_on_c, 0, 63, 105
2, 893702, Note_on_c, 0, 51, 98
2, 893828, Note_on_c, 0, 70, 0
2, 893870, Note_on_c, 0, 72, 97
2, 893912, Note_on_c, 0, 74, 0
2, 893948, Note_on_c, 0, 72, 0
2, 894102, Note_on_c, 0, 82, 93
2, 894120, Note_on_c, 0, 72, 89
2, 894282, Control_c, 0, 64, 0
2, 894544, Control_c, 0, 64, 127
2, 894660, Note_on_c, 0, 72, 0
2, 894696, Note_on_c, 0, 82, 0
2, 894724, Note_on_c, 0, 63, 0
2, 894848, Note_on_c, 0, 51, 0
2, 894868, Note_on_c, 0, 75, 89
2, 894870, Note_on_c, 0, 70, 75
2, 894886, Note_on_c, 0, 60, 73
2, 894892, Note_on_c, 0, 48, 58
2, 895046, Note_on_c, 0, 70, 0
2, 895066, Note_on_c, 0, 79, 101
2, 895100, Note_on_c, 0, 48, 0
2, 895120, Note_on_c, 0, 60, 0
2, 895130, Note_on_c, 0, 75, 0
2, 895220, Control_c, 0, 64, 0
2, 895226, Note_on_c, 0, 70, 63
2, 895228, Note_on_c, 0, 77, 101
2, 895230, Note_on_c, 0, 62, 90
2, 895242, Note_on_c, 0, 50, 80
2, 895264, Note_on_c, 0, 79, 0
2, 895412, Note_on_c, 0, 50, 0
2, 895420, Control_c, 0, 64, 127
2, 895428, Note_on_c, 0, 62, 0
2, 895430, Note_on_c, 0, 77, 0
2, 895546, Note_on_c, 0, 75, 87
2, 895549, Note_on_c, 0, 72, 79
2, 895556, Note_on_c, 0, 70, 0
2, 895562, Note_on_c, 0, 63, 83
2, 895576, Note_on_c, 0, 51, 71
2, 895640, Note_on_c, 0, 72, 0
2, 895704, Note_on_c, 0, 70, 70
2, 895710, Note_on_c, 0, 74, 89
2, 895714, Note_on_c, 0, 75, 0
2, 895734, Note_on_c, 0, 51, 0
2, 895740, Note_on_c, 0, 63, 0
2, 895752, Note_on_c, 0, 74, 0
2, 895770, Note_on_c, 0, 70, 0
2, 895834, Control_c, 0, 64, 0
2, 895880, Note_on_c, 0, 65, 67
2, 895890, Note_on_c, 0, 53, 96
2, 895906, Note_on_c, 0, 69, 82
2, 895909, Note_on_c, 0, 72, 96
2, 895952, Note_on_c, 0, 72, 0
2, 895988, Note_on_c, 0, 74, 81
2, 896040, Note_on_c, 0, 65, 0
2, 896050, Control_c, 0, 64, 127
2, 896054, Note_on_c, 0, 72, 80
2, 896090, Note_on_c, 0, 53, 0
2, 896096, Note_on_c, 0, 74, 0
2, 896264, Control_c, 0, 64, 0
2, 896266, Note_on_c, 0, 53, 106
2, 896270, Note_on_c, 0, 41, 90
2, 896510, Control_c, 0, 64, 127
2, 896520, Note_on_c, 0, 41, 0
2, 896544, Note_on_c, 0, 70, 85
2, 896566, Note_on_c, 0, 53, 0
2, 896572, Note_on_c, 0, 72, 0
2, 896622, Note_on_c, 0, 69, 0
2, 896678, Note_on_c, 0, 70, 0
2, 896740, Control_c, 0, 64, 0
2, 896745, Note_on_c, 0, 70, 71
2, 896760, Note_on_c, 0, 58, 54
2, 896776, Note_on_c, 0, 46, 43
2, 897386, Control_c, 0, 64, 127
2, 897426, Note_on_c, 0, 46, 0
2, 897454, Note_on_c, 0, 58, 0
2, 897454, Note_on_c, 0, 70, 0
2, 897618, Control_c, 0, 64, 0
2, 897868, Note_on_c, 0, 74, 67
2, 898224, Note_on_c, 0, 79, 77
2, 898232, Note_on_c, 0, 70, 27
2, 898238, Note_on_c, 0, 67, 25
2, 898250, Note_on_c, 0, 74, 0
2, 898572, Note_on_c, 0, 77, 65
2, 898584, Note_on_c, 0, 79, 0
2, 898712, Note_on_c, 0, 75, 65
2, 898714, Note_on_c, 0, 77, 0
2, 898886, Note_on_c, 0, 74, 72
2, 898898, Note_on_c, 0, 69, 25
2, 898901, Note_on_c, 0, 70, 0
2, 898912, Note_on_c, 0, 75, 0
2, 899164, Note_on_c, 0, 67, 0
2, 899204, Note_on_c, 0, 72, 71
2, 899212, Note_on_c, 0, 74, 0
2, 899354, Control_c, 0, 64, 127
2, 899434, Note_on_c, 0, 69, 0
2, 899506, Control_c, 0, 64, 0
2, 899550, Note_on_c, 0, 67, 25
2, 899560, Note_on_c, 0, 70, 58
2, 899580, Note_on_c, 0, 72, 0
2, 899748, Note_on_c, 0, 72, 50
2, 899751, Note_on_c, 0, 70, 0
2, 899751, Note_on_c, 0, 69, 36
2, 899888, Note_on_c, 0, 69, 0
2, 899946, Note_on_c, 0, 74, 52
2, 899952, Note_on_c, 0, 72, 0
2, 899956, Note_on_c, 0, 70, 20
2, 900352, Control_c, 0, 64, 127
2, 900424, Note_on_c, 0, 74, 0
2, 900432, Note_on_c, 0, 70, 0
2, 900680, Note_on_c, 0, 70, 52
2, 900682, Note_on_c, 0, 74, 71
2, 900856, Note_on_c, 0, 70, 0
2, 900876, Note_on_c, 0, 74, 0
2, 900942, Note_on_c, 0, 67, 0
2, 901036, Note_on_c, 0, 74, 80
2, 901052, Note_on_c, 0, 69, 46
2, 901082, Note_on_c, 0, 65, 25
2, 901182, Control_c, 0, 64, 0
2, 901396, Control_c, 0, 64, 127
2, 901496, Note_on_c, 0, 69, 0
2, 901528, Note_on_c, 0, 74, 0
2, 901756, Note_on_c, 0, 73, 51
2, 901764, Note_on_c, 0, 65, 0
2, 901780, Note_on_c, 0, 67, 35
2, 901790, Note_on_c, 0, 63, 28
2, 901810, Note_on_c, 0, 73, 0
2, 901828, Note_on_c, 0, 74, 65
2, 901874, Control_c, 0, 64, 0
2, 901880, Note_on_c, 0, 73, 41
2, 901954, Note_on_c, 0, 74, 0
2, 902258, Control_c, 0, 64, 127
2, 902350, Note_on_c, 0, 73, 0
2, 902368, Note_on_c, 0, 67, 0
2, 902454, Note_on_c, 0, 74, 54
2, 902524, Note_on_c, 0, 74, 0
2, 902632, Note_on_c, 0, 63, 0
2, 902680, Note_on_c, 0, 66, 24
2, 902682, Note_on_c, 0, 62, 31
2, 902688, Note_on_c, 0, 74, 43
2, 902702, Control_c, 0, 64, 0
2, 903066, Note_on_c, 0, 62, 0
2, 903096, Note_on_c, 0, 50, 34
2, 903286, Control_c, 0, 64, 127
2, 903614, Note_on_c, 0, 74, 0
2, 903834, Note_on_c, 0, 74, 86
2, 903842, Note_on_c, 0, 50, 0
2, 903892, Note_on_c, 0, 66, 0
2, 904062, Note_on_c, 0, 74, 0
2, 904222, Note_on_c, 0, 75, 87
2, 904228, Note_on_c, 0, 70, 57
2, 904246, Note_on_c, 0, 60, 48
2, 904516, Control_c, 0, 64, 0
2, 904578, Note_on_c, 0, 70, 0
2, 904624, Note_on_c, 0, 69, 41
2, 904624, Note_on_c, 0, 63, 50
2, 904627, Note_on_c, 0, 60, 0
2, 904627, Note_on_c, 0, 48, 33
2, 904670, Control_c, 0, 64, 127
2, 904720, Note_on_c, 0, 48, 0
2, 904722, Note_on_c, 0, 75, 0
2, 904728, Note_on_c, 0, 69, 0
2, 904796, Note_on_c, 0, 63, 0
2, 904972, Note_on_c, 0, 67, 57
2, 904976, Note_on_c, 0, 72, 67
2, 904988, Note_on_c, 0, 57, 35
2, 905208, Control_c, 0, 64, 0
2, 905314, Note_on_c, 0, 66, 51
2, 905326, Note_on_c, 0, 60, 50
2, 905334, Note_on_c, 0, 67, 0
2, 905342, Note_on_c, 0, 57, 0
2, 905358, Note_on_c, 0, 45, 36
2, 905408, Control_c, 0, 64, 127
2, 905428, Note_on_c, 0, 45, 0
2, 905470, Note_on_c, 0, 60, 0
2, 905486, Note_on_c, 0, 72, 0
2, 905528, Note_on_c, 0, 66, 0
2, 905628, Note_on_c, 0, 69, 81
2, 905634, Note_on_c, 0, 74, 95
2, 905640, Note_on_c, 0, 58, 46
2, 905776, Control_c, 0, 64, 0
2, 905914, Control_c, 0, 64, 127
2, 905960, Note_on_c, 0, 74, 0
2, 905960, Note_on_c, 0, 67, 81
2, 905968, Note_on_c, 0, 46, 49
2, 905976, Note_on_c, 0, 62, 40
2, 905978, Note_on_c, 0, 69, 0
2, 906002, Note_on_c, 0, 58, 0
2, 906002, Note_on_c, 0, 67, 0
2, 906014, Note_on_c, 0, 64, 19
2, 906072, Note_on_c, 0, 64, 0
2, 906075, Note_on_c, 0, 46, 0
2, 906118, Note_on_c, 0, 62, 0
2, 906274, Note_on_c, 0, 70, 77
2, 906286, Note_on_c, 0, 65, 80
2, 906304, Note_on_c, 0, 55, 64
2, 906576, Control_c, 0, 64, 0
2, 906588, Note_on_c, 0, 58, 57
2, 906598, Note_on_c, 0, 63, 82
2, 906634, Note_on_c, 0, 65, 0
2, 906634, Note_on_c, 0, 43, 51
2, 906646, Note_on_c, 0, 55, 0
2, 906744, Control_c, 0, 64, 127
2, 906778, Note_on_c, 0, 43, 0
2, 906788, Note_on_c, 0, 58, 0
2, 906826, Note_on_c, 0, 63, 0
2, 906836, Note_on_c, 0, 70, 0
2, 906930, Note_on_c, 0, 69, 74
2, 906936, Note_on_c, 0, 63, 63
2, 906952, Note_on_c, 0, 53, 72
2, 907190, Control_c, 0, 64, 0
2, 907290, Note_on_c, 0, 63, 0
2, 907300, Note_on_c, 0, 62, 69
2, 907302, Note_on_c, 0, 41, 56
2, 907302, Note_on_c, 0, 57, 49
2, 907334, Note_on_c, 0, 53, 0
2, 907404, Control_c, 0, 64, 127
2, 907470, Note_on_c, 0, 41, 0
2, 907484, Note_on_c, 0, 69, 0
2, 907492, Note_on_c, 0, 57, 0
2, 907498, Note_on_c, 0, 62, 0
2, 907628, Note_on_c, 0, 62, 49
2, 907628, Note_on_c, 0, 67, 60
2, 907631, Note_on_c, 0, 51, 36
2, 907712, Control_c, 0, 64, 0
2, 907938, Note_on_c, 0, 62, 0
2, 907948, Note_on_c, 0, 60, 54
2, 907950, Note_on_c, 0, 55, 46
2, 907954, Note_on_c, 0, 39, 41
2, 908038, Note_on_c, 0, 51, 0
2, 908050, Control_c, 0, 64, 127
2, 908108, Note_on_c, 0, 55, 0
2, 908124, Note_on_c, 0, 39, 0
2, 908124, Note_on_c, 0, 60, 0
2, 908300, Note_on_c, 0, 66, 50
2, 908302, Note_on_c, 0, 62, 14
2, 908316, Note_on_c, 0, 57, 28
2, 908320, Note_on_c, 0, 50, 37
2, 908376, Note_on_c, 0, 67, 0
2, 908602, Control_c, 0, 64, 0
2, 908734, Note_on_c, 0, 62, 0
2, 908734, Note_on_c, 0, 38, 47
2, 908746, Note_on_c, 0, 50, 0
2, 908748, Note_on_c, 0, 57, 0
2, 908802, Control_c, 0, 64, 127
2, 908860, Note_on_c, 0, 38, 0
2, 908876, Note_on_c, 0, 66, 0
2, 909046, Note_on_c, 0, 70, 50
2, 909049, Note_on_c, 0, 65, 50
2, 909080, Note_on_c, 0, 55, 46
2, 909248, Control_c, 0, 64, 0
2, 909380, Note_on_c, 0, 58, 37
2, 909382, Note_on_c, 0, 63, 63
2, 909404, Note_on_c, 0, 65, 0
2, 909407, Note_on_c, 0, 43, 51
2, 909436, Note_on_c, 0, 55, 0
2, 909526, Control_c, 0, 64, 127
2, 909542, Note_on_c, 0, 63, 0
2, 909542, Note_on_c, 0, 43, 0
2, 909570, Note_on_c, 0, 58, 0
2, 909598, Note_on_c, 0, 70, 0
2, 909696, Note_on_c, 0, 54, 86
2, 909702, Note_on_c, 0, 69, 78
2, 909702, Note_on_c, 0, 63, 71
2, 909705, Note_on_c, 0, 57, 71
2, 909832, Control_c, 0, 64, 0
2, 909940, Note_on_c, 0, 57, 0
2, 909986, Control_c, 0, 64, 127
2, 910004, Note_on_c, 0, 54, 0
2, 910010, Note_on_c, 0, 63, 0
2, 910026, Note_on_c, 0, 69, 0
2, 910036, Note_on_c, 0, 42, 95
2, 910152, Note_on_c, 0, 42, 0
2, 910344, Note_on_c, 0, 74, 105
2, 910344, Note_on_c, 0, 69, 87
2, 910360, Note_on_c, 0, 58, 81
2, 910492, Control_c, 0, 64, 0
2, 910662, Note_on_c, 0, 62, 86
2, 910670, Note_on_c, 0, 46, 78
2, 910670, Note_on_c, 0, 67, 89
2, 910726, Note_on_c, 0, 69, 0
2, 910754, Control_c, 0, 64, 127
2, 910778, Note_on_c, 0, 74, 0
2, 910788, Note_on_c, 0, 58, 0
2, 910802, Note_on_c, 0, 62, 0
2, 910805, Note_on_c, 0, 46, 0
2, 910846, Note_on_c, 0, 67, 0
2, 910974, Note_on_c, 0, 75, 93
2, 910974, Note_on_c, 0, 70, 82
2, 910992, Note_on_c, 0, 60, 96
2, 911170, Control_c, 0, 64, 0
2, 911294, Note_on_c, 0, 63, 82
2, 911298, Note_on_c, 0, 69, 72
2, 911314, Note_on_c, 0, 48, 85
2, 911336, Note_on_c, 0, 70, 0
2, 911348, Note_on_c, 0, 60, 0
2, 911384, Control_c, 0, 64, 127
2, 911418, Note_on_c, 0, 48, 0
2, 911434, Note_on_c, 0, 63, 0
2, 911532, Note_on_c, 0, 69, 0
2, 911534, Note_on_c, 0, 75, 0
2, 911588, Note_on_c, 0, 76, 110
2, 911594, Note_on_c, 0, 72, 102
2, 911606, Note_on_c, 0, 61, 103
2, 911830, Control_c, 0, 64, 0
2, 911912, Note_on_c, 0, 70, 89
2, 911915, Note_on_c, 0, 49, 96
2, 911915, Note_on_c, 0, 64, 105
2, 911928, Note_on_c, 0, 72, 0
2, 911998, Control_c, 0, 64, 127
2, 912064, Note_on_c, 0, 64, 0
2, 912096, Note_on_c, 0, 61, 0
2, 912116, Note_on_c, 0, 49, 0
2, 912126, Note_on_c, 0, 76, 0
2, 912176, Note_on_c, 0, 70, 0
2, 912246, Note_on_c, 0, 78, 109
2, 912250, Note_on_c, 0, 74, 102
2, 912250, Note_on_c, 0, 66, 100
2, 912260, Note_on_c, 0, 62, 113
2, 912268, Note_on_c, 0, 50, 105
2, 912306, Control_c, 0, 64, 0
2, 912484, Note_on_c, 0, 62, 0
2, 912506, Note_on_c, 0, 50, 0
2, 912506, Control_c, 0, 64, 127
2, 912556, Note_on_c, 0, 74, 0
2, 912578, Note_on_c, 0, 66, 0
2, 912580, Note_on_c, 0, 60, 112
2, 912582, Note_on_c, 0, 48, 108
2, 912666, Note_on_c, 0, 60, 0
2, 912680, Note_on_c, 0, 78, 0
2, 912694, Note_on_c, 0, 48, 0
2, 912886, Note_on_c, 0, 67, 101
2, 912888, Note_on_c, 0, 74, 113
2, 912888, Note_on_c, 0, 58, 108
2, 912894, Note_on_c, 0, 46, 92
2, 912936, Control_c, 0, 64, 0
2, 913074, Control_c, 0, 64, 127
2, 913080, Note_on_c, 0, 58, 0
2, 913120, Note_on_c, 0, 67, 0
2, 913154, Note_on_c, 0, 46, 0
2, 913204, Note_on_c, 0, 70, 96
2, 913204, Note_on_c, 0, 43, 112
2, 913204, Note_on_c, 0, 79, 116
2, 913204, Note_on_c, 0, 55, 117
2, 913250, Note_on_c, 0, 43, 0
2, 913256, Note_on_c, 0, 74, 0
2, 913292, Note_on_c, 0, 55, 0
2, 913380, Note_on_c, 0, 70, 0
2, 913404, Note_on_c, 0, 79, 0
2, 913602, Note_on_c, 0, 63, 120
2, 913604, Note_on_c, 0, 67, 95
2, 913604, Note_on_c, 0, 74, 110
2, 913610, Note_on_c, 0, 51, 111
2, 913982, Control_c, 0, 64, 0
2, 914008, Note_on_c, 0, 79, 111
2, 914011, Note_on_c, 0, 72, 103
2, 914042, Note_on_c, 0, 74, 0
2, 914150, Control_c, 0, 64, 127
2, 914172, Note_on_c, 0, 79, 0
2, 914172, Note_on_c, 0, 67, 0
2, 914218, Note_on_c, 0, 72, 0
2, 914274, Note_on_c, 0, 63, 0
2, 914324, Note_on_c, 0, 72, 101
2, 914324, Note_on_c, 0, 67, 96
2, 914330, Note_on_c, 0, 62, 120
2, 914332, Note_on_c, 0, 50, 115
2, 914366, Note_on_c, 0, 51, 0
2, 914558, Note_on_c, 0, 72, 0
2, 914644, Note_on_c, 0, 70, 96
2, 914647, Note_on_c, 0, 79, 119
2, 914820, Note_on_c, 0, 79, 0
2, 914823, Note_on_c, 0, 67, 0
2, 914882, Note_on_c, 0, 70, 0
2, 914888, Note_on_c, 0, 62, 0
2, 914910, Note_on_c, 0, 50, 0
2, 914974, Note_on_c, 0, 67, 101
2, 914974, Note_on_c, 0, 70, 82
2, 914977, Note_on_c, 0, 60, 109
2, 914984, Note_on_c, 0, 48, 100
2, 915040, Control_c, 0, 64, 0
2, 915212, Note_on_c, 0, 69, 98
2, 915226, Control_c, 0, 64, 127
2, 915294, Note_on_c, 0, 67, 0
2, 915296, Note_on_c, 0, 70, 0
2, 915362, Note_on_c, 0, 69, 0
2, 915482, Note_on_c, 0, 79, 119
2, 915485, Note_on_c, 0, 69, 96
2, 915686, Control_c, 0, 64, 0
2, 916086, Control_c, 0, 64, 127
2, 916154, Note_on_c, 0, 60, 0
2, 916176, Note_on_c, 0, 48, 0
2, 916190, Note_on_c, 0, 69, 0
2, 916242, Note_on_c, 0, 79, 0
2, 916294, Note_on_c, 0, 72, 105
2, 916304, Note_on_c, 0, 67, 87
2, 916304, Note_on_c, 0, 57, 89
2, 916306, Note_on_c, 0, 45, 90
2, 916502, Note_on_c, 0, 75, 103
2, 916510, Note_on_c, 0, 67, 0
2, 916516, Note_on_c, 0, 45, 0
2, 916528, Note_on_c, 0, 57, 0
2, 916556, Note_on_c, 0, 72, 0
2, 916620, Note_on_c, 0, 75, 0
2, 916674, Note_on_c, 0, 74, 118
2, 916676, Note_on_c, 0, 58, 90
2, 916684, Control_c, 0, 64, 0
2, 916689, Note_on_c, 0, 46, 88
2, 916689, Note_on_c, 0, 67, 96
2, 916886, Control_c, 0, 64, 127
2, 916908, Note_on_c, 0, 46, 0
2, 916928, Note_on_c, 0, 58, 0
2, 916984, Note_on_c, 0, 67, 0
2, 917004, Note_on_c, 0, 72, 105
2, 917006, Note_on_c, 0, 60, 95
2, 917012, Note_on_c, 0, 69, 81
2, 917012, Note_on_c, 0, 48, 81
2, 917070, Note_on_c, 0, 74, 0
2, 917158, Note_on_c, 0, 69, 0
2, 917160, Note_on_c, 0, 67, 90
2, 917160, Note_on_c, 0, 70, 94
2, 917181, Note_on_c, 0, 48, 0
2, 917206, Note_on_c, 0, 60, 0
2, 917209, Note_on_c, 0, 72, 0
2, 917209, Note_on_c, 0, 67, 0
2, 917252, Note_on_c, 0, 70, 0
2, 917300, Control_c, 0, 64, 0
2, 917324, Note_on_c, 0, 62, 95
2, 917326, Note_on_c, 0, 50, 100
2, 917336, Note_on_c, 0, 66, 85
2, 917338, Note_on_c, 0, 69, 90
2, 917410, Note_on_c, 0, 70, 59
2, 917434, Note_on_c, 0, 69, 0
2, 917468, Note_on_c, 0, 62, 0
2, 917492, Note_on_c, 0, 69, 92
2, 917500, Control_c, 0, 64, 127
2, 917542, Note_on_c, 0, 50, 0
2, 917568, Note_on_c, 0, 70, 0
2, 917712, Note_on_c, 0, 50, 98
2, 917714, Note_on_c, 0, 38, 101
2, 917776, Control_c, 0, 64, 0
2, 917898, Note_on_c, 0, 66, 0
2, 917930, Note_on_c, 0, 38, 0
2, 917930, Control_c, 0, 64, 127
2, 917960, Note_on_c, 0, 67, 103
2, 917984, Note_on_c, 0, 69, 0
2, 917988, Note_on_c, 0, 50, 0
2, 918120, Note_on_c, 0, 67, 0
2, 918176, Note_on_c, 0, 67, 103
2, 918176, Control_c, 0, 64, 0
2, 918190, Note_on_c, 0, 55, 80
2, 918192, Note_on_c, 0, 43, 75
2, 918572, Note_on_c, 0, 55, 0
2, 918636, Control_c, 0, 64, 127
2, 918678, Note_on_c, 0, 43, 0
2, 918726, Note_on_c, 0, 67, 0
2, 918936, Note_on_c, 0, 62, 67
2, 918938, Note_on_c, 0, 55, 47
2, 918942, Note_on_c, 0, 46, 54
2, 918950, Note_on_c, 0, 34, 47
2, 918974, Control_c, 0, 64, 0
2, 919166, Note_on_c, 0, 46, 0
2, 919174, Control_c, 0, 64, 127
2, 919198, Note_on_c, 0, 55, 0
2, 919264, Note_on_c, 0, 34, 0
2, 919280, Note_on_c, 0, 58, 44
2, 919284, Note_on_c, 0, 67, 75
2, 919288, Note_on_c, 0, 31, 87
2, 919290, Note_on_c, 0, 43, 80
2, 919298, Control_c, 0, 64, 0
2, 919316, Note_on_c, 0, 62, 0
2, 919442, Note_on_c, 0, 31, 0
2, 919450, Control_c, 0, 64, 127
2, 919468, Note_on_c, 0, 67, 0
2, 919470, Note_on_c, 0, 43, 0
2, 919738, Note_on_c, 0, 58, 0
2, 919750, Note_on_c, 0, 62, 62
2, 919754, Note_on_c, 0, 55, 55
2, 919764, Note_on_c, 0, 51, 86
2, 919764, Note_on_c, 0, 39, 78
2, 920150, Control_c, 0, 64, 0
2, 920194, Note_on_c, 0, 67, 73
2, 920199, Note_on_c, 0, 60, 55
2, 920218, Note_on_c, 0, 62, 0
2, 920232, Note_on_c, 0, 55, 0
2, 920402, Note_on_c, 0, 67, 0
2, 920418, Control_c, 0, 64, 127
2, 920420, Note_on_c, 0, 60, 0
2, 920524, Note_on_c, 0, 51, 0
2, 920578, Note_on_c, 0, 55, 59
2, 920586, Note_on_c, 0, 50, 59
2, 920588, Note_on_c, 0, 60, 66
2, 920590, Note_on_c, 0, 39, 0
2, 920590, Note_on_c, 0, 38, 51
2, 920604, Control_c, 0, 64, 0
2, 920864, Control_c, 0, 64, 127
2, 920902, Note_on_c, 0, 60, 0
2, 921034, Control_c, 0, 64, 0
2, 921042, Note_on_c, 0, 55, 0
2, 921046, Note_on_c, 0, 58, 43
2, 921050, Note_on_c, 0, 67, 49
2, 921264, Control_c, 0, 64, 127
2, 921270, Note_on_c, 0, 67, 0
2, 921306, Note_on_c, 0, 50, 0
2, 921362, Note_on_c, 0, 58, 0
2, 921454, Note_on_c, 0, 38, 0
2, 921494, Note_on_c, 0, 58, 37
2, 921498, Note_on_c, 0, 55, 50
2, 921508, Note_on_c, 0, 48, 26
2, 921516, Note_on_c, 0, 36, 32
2, 921540, Control_c, 0, 64, 0
2, 921648, Control_c, 0, 64, 127
2, 921818, Control_c, 0, 64, 0
2, 921860, Note_on_c, 0, 57, 46
2, 921870, Note_on_c, 0, 58, 0
2, 922060, Note_on_c, 0, 55, 0
2, 922062, Control_c, 0, 64, 127
2, 922074, Note_on_c, 0, 57, 0
2, 922322, Note_on_c, 0, 67, 42
2, 922344, Note_on_c, 0, 57, 13
2, 922554, Control_c, 0, 64, 0
2, 922770, Control_c, 0, 64, 127
2, 922918, Note_on_c, 0, 48, 0
2, 922934, Note_on_c, 0, 57, 0
2, 922970, Note_on_c, 0, 36, 0
2, 923232, Note_on_c, 0, 67, 0
2, 923378, Note_on_c, 0, 45, 27
2, 923380, Note_on_c, 0, 60, 40
2, 923382, Note_on_c, 0, 55, 17
2, 923390, Note_on_c, 0, 33, 26
2, 923578, Note_on_c, 0, 55, 0
2, 923610, Note_on_c, 0, 45, 0
2, 923658, Note_on_c, 0, 63, 55
2, 923698, Note_on_c, 0, 60, 0
2, 923748, Note_on_c, 0, 63, 0
2, 923854, Note_on_c, 0, 33, 0
2, 923990, Note_on_c, 0, 34, 33
2, 923990, Note_on_c, 0, 62, 48
2, 923993, Note_on_c, 0, 46, 28
2, 924000, Note_on_c, 0, 55, 33
2, 924060, Control_c, 0, 64, 0
2, 924322, Control_c, 0, 64, 127
2, 924374, Note_on_c, 0, 46, 0
2, 924377, Note_on_c, 0, 34, 0
2, 924450, Note_on_c, 0, 55, 0
2, 924704, Note_on_c, 0, 60, 23
2, 924706, Note_on_c, 0, 57, 23
2, 924714, Note_on_c, 0, 48, 18
2, 924724, Note_on_c, 0, 36, 28
2, 924740, Note_on_c, 0, 62, 0
2, 924782, Control_c, 0, 64, 0
2, 924982, Control_c, 0, 64, 127
2, 924994, Note_on_c, 0, 36, 0
2, 924998, Note_on_c, 0, 57, 0
2, 925010, Note_on_c, 0, 58, 35
2, 925018, Note_on_c, 0, 60, 0
2, 925034, Note_on_c, 0, 55, 35
2, 925068, Note_on_c, 0, 48, 0
2, 925142, Note_on_c, 0, 55, 0
2, 925300, Note_on_c, 0, 38, 19
2, 925324, Note_on_c, 0, 50, 24
2, 925352, Note_on_c, 0, 58, 0
2, 925382, Control_c, 0, 64, 0
2, 925392, Note_on_c, 0, 54, 34
2, 925412, Note_on_c, 0, 57, 28
2, 925540, Note_on_c, 0, 57, 0
2, 925554, Note_on_c, 0, 58, 37
2, 925710, Note_on_c, 0, 57, 26
2, 925715, Note_on_c, 0, 58, 0
2, 925946, Note_on_c, 0, 50, 0
2, 925980, Control_c, 0, 64, 127
2, 926040, Note_on_c, 0, 38, 0
2, 926470, Note_on_c, 0, 26, 13
2, 926484, Note_on_c, 0, 38, 10
2, 926638, Note_on_c, 0, 54, 0
2, 927060, Note_on_c, 0, 55, 31
2, 927102, Note_on_c, 0, 57, 0
2, 927226, Note_on_c, 0, 26, 0
2, 927276, Note_on_c, 0, 38, 0
2, 927330, Note_on_c, 0, 55, 0
2, 927886, Control_c, 0, 64, 0
2, 927924, Note_on_c, 0, 55, 32
2, 927930, Note_on_c, 0, 31, 34
2, 927946, Note_on_c, 0, 43, 25
2, 928148, Control_c, 0, 64, 127
2, 928151, Note_on_c, 0, 31, 0
2, 928158, Note_on_c, 0, 43, 0
2, 929532, Note_on_c, 0, 55, 0
2, 931328, Control_c, 0, 64, 0
2, 931538, Note_on_c, 0, 74, 65
2, 931580, Note_on_c, 0, 74, 0
2, 931784, Note_on_c, 0, 79, 87
2, 931790, Note_on_c, 0, 67, 66
2, 931856, Note_on_c, 0, 67, 0
2, 931880, Note_on_c, 0, 79, 0
2, 931890, Note_on_c, 0, 74, 60
2, 931902, Note_on_c, 0, 62, 56
2, 931944, Note_on_c, 0, 74, 0
2, 931964, Note_on_c, 0, 62, 0
2, 932000, Note_on_c, 0, 71, 59
2, 932014, Note_on_c, 0, 55, 57
2, 932060, Note_on_c, 0, 71, 0
2, 932094, Note_on_c, 0, 69, 42
2, 932102, Note_on_c, 0, 55, 0
2, 932144, Note_on_c, 0, 62, 42
2, 932164, Note_on_c, 0, 69, 0
2, 932202, Note_on_c, 0, 62, 0
2, 932214, Note_on_c, 0, 71, 74
2, 932217, Note_on_c, 0, 55, 47
2, 932272, Note_on_c, 0, 71, 0
2, 932284, Note_on_c, 0, 55, 0
2, 932300, Note_on_c, 0, 62, 36
2, 932330, Note_on_c, 0, 74, 67
2, 932376, Note_on_c, 0, 62, 0
2, 932379, Note_on_c, 0, 74, 0
2, 932424, Note_on_c, 0, 79, 81
2, 932430, Note_on_c, 0, 67, 48
2, 932496, Note_on_c, 0, 67, 0
2, 932518, Note_on_c, 0, 79, 0
2, 932530, Note_on_c, 0, 74, 62
2, 932550, Note_on_c, 0, 62, 48
2, 932576, Note_on_c, 0, 74, 0
2, 932606, Note_on_c, 0, 62, 0
2, 932636, Note_on_c, 0, 71, 104
2, 932646, Note_on_c, 0, 67, 74
2, 932682, Note_on_c, 0, 71, 0
2, 932704, Note_on_c, 0, 67, 0
2, 932784, Note_on_c, 0, 62, 52
2, 932838, Note_on_c, 0, 62, 0
2, 932854, Note_on_c, 0, 67, 67
2, 932864, Note_on_c, 0, 55, 52
2, 932906, Note_on_c, 0, 67, 0
2, 932956, Note_on_c, 0, 55, 0
2, 932992, Note_on_c, 0, 62, 20
2, 933062, Note_on_c, 0, 62, 0
2, 933072, Note_on_c, 0, 67, 73
2, 933086, Note_on_c, 0, 55, 39
2, 933118, Note_on_c, 0, 67, 0
2, 933148, Note_on_c, 0, 62, 48
2, 933154, Note_on_c, 0, 55, 0
2, 933220, Note_on_c, 0, 62, 0
2, 933290, Note_on_c, 0, 71, 93
2, 933294, Note_on_c, 0, 67, 32
2, 933330, Note_on_c, 0, 71, 0
2, 933372, Note_on_c, 0, 67, 0
2, 933394, Note_on_c, 0, 62, 43
2, 933460, Note_on_c, 0, 62, 0
2, 933512, Note_on_c, 0, 66, 59
2, 933520, Note_on_c, 0, 69, 77
2, 933570, Note_on_c, 0, 69, 0
2, 933576, Note_on_c, 0, 66, 0
2, 933636, Note_on_c, 0, 62, 56
2, 933702, Note_on_c, 0, 62, 0
2, 933748, Note_on_c, 0, 66, 47
2, 933766, Note_on_c, 0, 55, 48
2, 933814, Note_on_c, 0, 66, 0
2, 933844, Note_on_c, 0, 55, 0
2, 933884, Note_on_c, 0, 62, 39
2, 933946, Note_on_c, 0, 62, 0
2, 933966, Note_on_c, 0, 66, 57
2, 933976, Note_on_c, 0, 55, 43
2, 934018, Note_on_c, 0, 66, 0
2, 934034, Note_on_c, 0, 55, 0
2, 934050, Note_on_c, 0, 62, 40
2, 934118, Note_on_c, 0, 62, 0
2, 934160, Note_on_c, 0, 69, 66
2, 934172, Note_on_c, 0, 66, 43
2, 934210, Note_on_c, 0, 69, 0
2, 934268, Note_on_c, 0, 66, 0
2, 934307, Note_on_c, 0, 62, 43
2, 934372, Note_on_c, 0, 62, 0
2, 934412, Note_on_c, 0, 71, 98
2, 934428, Note_on_c, 0, 67, 60
2, 934482, Note_on_c, 0, 67, 0
2, 934482, Note_on_c, 0, 71, 0
2, 934544, Note_on_c, 0, 62, 52
2, 934596, Note_on_c, 0, 62, 0
2, 934644, Note_on_c, 0, 55, 50
2, 934644, Note_on_c, 0, 67, 59
2, 934696, Note_on_c, 0, 67, 0
2, 934730, Note_on_c, 0, 55, 0
2, 934744, Note_on_c, 0, 62, 35
2, 934808, Note_on_c, 0, 62, 0
2, 934858, Note_on_c, 0, 67, 72
2, 934858, Note_on_c, 0, 55, 32
2, 934904, Note_on_c, 0, 67, 0
2, 934928, Note_on_c, 0, 55, 0
2, 934938, Note_on_c, 0, 62, 33
2, 934994, Note_on_c, 0, 62, 0
2, 935070, Note_on_c, 0, 71, 79
2, 935082, Note_on_c, 0, 67, 48
2, 935136, Note_on_c, 0, 71, 0
2, 935144, Note_on_c, 0, 67, 0
2, 935158, Note_on_c, 0, 62, 69
2, 935182, Note_on_c, 0, 74, 67
2, 935238, Note_on_c, 0, 74, 0
2, 935292, Note_on_c, 0, 62, 0
2, 935300, Note_on_c, 0, 64, 59
2, 935306, Note_on_c, 0, 72, 67
2, 935358, Note_on_c, 0, 64, 0
2, 935366, Note_on_c, 0, 72, 0
2, 935394, Note_on_c, 0, 74, 73
2, 935426, Note_on_c, 0, 62, 44
2, 935452, Note_on_c, 0, 74, 0
2, 935490, Note_on_c, 0, 62, 0
2, 935508, Note_on_c, 0, 72, 65
2, 935510, Note_on_c, 0, 66, 42
2, 935576, Note_on_c, 0, 66, 0
2, 935576, Note_on_c, 0, 72, 0
2, 935622, Note_on_c, 0, 74, 59
2, 935644, Note_on_c, 0, 62, 37
2, 935682, Note_on_c, 0, 74, 0
2, 935712, Note_on_c, 0, 62, 0
2, 935736, Note_on_c, 0, 69, 60
2, 935738, Note_on_c, 0, 71, 80
2, 935796, Note_on_c, 0, 69, 0
2, 935830, Note_on_c, 0, 71, 0
2, 935880, Note_on_c, 0, 62, 50
2, 935935, Note_on_c, 0, 62, 0
2, 935974, Note_on_c, 0, 71, 49
2, 935986, Note_on_c, 0, 67, 44
2, 936032, Note_on_c, 0, 71, 0
2, 936050, Note_on_c, 0, 67, 0
2, 936060, Note_on_c, 0, 62, 34
2, 936070, Note_on_c, 0, 74, 57
2, 936128, Note_on_c, 0, 74, 0
2, 936174, Note_on_c, 0, 72, 98
2, 936182, Note_on_c, 0, 64, 77
2, 936184, Note_on_c, 0, 62, 0
2, 936234, Note_on_c, 0, 64, 0
2, 936278, Note_on_c, 0, 74, 81
2, 936286, Note_on_c, 0, 72, 0
2, 936288, Note_on_c, 0, 62, 57
2, 936366, Note_on_c, 0, 62, 0
2, 936380, Note_on_c, 0, 74, 0
2, 936382, Note_on_c, 0, 72, 58
2, 936406, Note_on_c, 0, 66, 49
2, 936464, Note_on_c, 0, 66, 0
2, 936467, Note_on_c, 0, 72, 0
2, 936498, Note_on_c, 0, 74, 47
2, 936500, Note_on_c, 0, 62, 44
2, 936562, Note_on_c, 0, 62, 0
2, 936562, Note_on_c, 0, 74, 0
2, 936600, Note_on_c, 0, 71, 79
2, 936608, Note_on_c, 0, 69, 44
2, 936670, Note_on_c, 0, 69, 0
2, 936673, Note_on_c, 0, 71, 0
2, 936736, Note_on_c, 0, 62, 48
2, 936792, Note_on_c, 0, 62, 0
2, 936836, Note_on_c, 0, 67, 50
2, 936842, Note_on_c, 0, 71, 52
2, 936896, Note_on_c, 0, 67, 0
2, 936898, Note_on_c, 0, 71, 0
2, 936928, Note_on_c, 0, 74, 54
2, 936958, Note_on_c, 0, 62, 44
2, 936990, Note_on_c, 0, 74, 0
2, 937014, Note_on_c, 0, 62, 0
2, 937040, Note_on_c, 0, 66, 55
2, 937050, Note_on_c, 0, 69, 57
2, 937098, Note_on_c, 0, 66, 0
2, 937116, Note_on_c, 0, 69, 0
2, 937154, Note_on_c, 0, 74, 65
2, 937170, Note_on_c, 0, 62, 44
2, 937204, Note_on_c, 0, 74, 0
2, 937230, Note_on_c, 0, 62, 0
2, 937254, Note_on_c, 0, 66, 56
2, 937268, Note_on_c, 0, 69, 49
2, 937316, Note_on_c, 0, 66, 0
2, 937332, Note_on_c, 0, 69, 0
2, 937348, Note_on_c, 0, 74, 58
2, 937372, Note_on_c, 0, 62, 46
2, 937394, Note_on_c, 0, 74, 0
2, 937426, Note_on_c, 0, 62, 0
2, 937438, Note_on_c, 0, 73, 83
2, 937450, Note_on_c, 0, 69, 52
2, 937464, Note_on_c, 0, 64, 81
2, 937506, Note_on_c, 0, 64, 0
2, 937512, Note_on_c, 0, 69, 0
2, 937544, Note_on_c, 0, 79, 90
2, 937550, Note_on_c, 0, 73, 0
2, 937584, Note_on_c, 0, 62, 46
2, 937626, Note_on_c, 0, 79, 0
2, 937640, Note_on_c, 0, 73, 55
2, 937644, Note_on_c, 0, 62, 0
2, 937660, Note_on_c, 0, 64, 80
2, 937666, Note_on_c, 0, 69, 37
2, 937722, Note_on_c, 0, 64, 0
2, 937734, Note_on_c, 0, 69, 0
2, 937740, Note_on_c, 0, 62, 44
2, 937740, Note_on_c, 0, 79, 78
2, 937748, Note_on_c, 0, 73, 0
2, 937794, Note_on_c, 0, 62, 0
2, 937804, Note_on_c, 0, 79, 0
2, 937850, Note_on_c, 0, 78, 95
2, 937854, Note_on_c, 0, 69, 78
2, 937860, Note_on_c, 0, 74, 82
2, 937864, Note_on_c, 0, 62, 66
2, 937886, Note_on_c, 0, 78, 0
2, 937896, Note_on_c, 0, 74, 0
2, 937898, Note_on_c, 0, 69, 0
2, 937916, Note_on_c, 0, 62, 0
2, 938104, Note_on_c, 0, 62, 108
2, 938110, Note_on_c, 0, 50, 83
2, 938112, Note_on_c, 0, 38, 83
2, 938144, Note_on_c, 0, 62, 0
2, 938156, Note_on_c, 0, 38, 0
2, 938158, Note_on_c, 0, 50, 0
2, 938358, Note_on_c, 0, 50, 105
2, 938360, Note_on_c, 0, 62, 102
2, 938368, Note_on_c, 0, 38, 93
2, 938393, Note_on_c, 0, 62, 0
2, 938400, Note_on_c, 0, 50, 0
2, 938404, Note_on_c, 0, 38, 0
2, 938428, Control_c, 0, 64, 127
2, 938534, Control_c, 0, 64, 0
2, 938648, Note_on_c, 0, 74, 93
2, 938684, Note_on_c, 0, 74, 0
2, 938904, Note_on_c, 0, 79, 108
2, 939014, Note_on_c, 0, 79, 0
2, 939014, Note_on_c, 0, 74, 87
2, 939112, Note_on_c, 0, 74, 0
2, 939128, Note_on_c, 0, 71, 79
2, 939190, Note_on_c, 0, 71, 0
2, 939230, Note_on_c, 0, 69, 43
2, 939296, Note_on_c, 0, 69, 0
2, 939328, Note_on_c, 0, 71, 96
2, 939378, Note_on_c, 0, 71, 0
2, 939444, Note_on_c, 0, 74, 78
2, 939504, Note_on_c, 0, 74, 0
2, 939548, Note_on_c, 0, 79, 85
2, 939552, Note_on_c, 0, 67, 64
2, 939602, Note_on_c, 0, 67, 0
2, 939642, Note_on_c, 0, 79, 0
2, 939662, Note_on_c, 0, 74, 63
2, 939712, Note_on_c, 0, 74, 0
2, 939768, Note_on_c, 0, 73, 81
2, 939768, Note_on_c, 0, 76, 93
2, 939826, Note_on_c, 0, 73, 0
2, 939834, Note_on_c, 0, 76, 0
2, 939864, Note_on_c, 0, 67, 64
2, 939932, Note_on_c, 0, 67, 0
2, 939978, Note_on_c, 0, 73, 74
2, 939988, Note_on_c, 0, 64, 64
2, 940042, Note_on_c, 0, 73, 0
2, 940056, Note_on_c, 0, 64, 0
2, 940096, Note_on_c, 0, 62, 55
2, 940184, Note_on_c, 0, 62, 0
2, 940196, Note_on_c, 0, 73, 65
2, 940206, Note_on_c, 0, 64, 59
2, 940242, Note_on_c, 0, 73, 0
2, 940284, Note_on_c, 0, 67, 65
2, 940312, Note_on_c, 0, 64, 0
2, 940394, Note_on_c, 0, 76, 72
2, 940408, Note_on_c, 0, 73, 72
2, 940426, Note_on_c, 0, 67, 0
2, 940434, Note_on_c, 0, 76, 0
2, 940480, Note_on_c, 0, 73, 0
2, 940506, Note_on_c, 0, 67, 51
2, 940612, Note_on_c, 0, 67, 0
2, 940666, Note_on_c, 0, 78, 94
2, 940669, Note_on_c, 0, 69, 73
2, 940710, Note_on_c, 0, 69, 0
2, 940766, Note_on_c, 0, 73, 47
2, 940780, Note_on_c, 0, 78, 0
2, 940874, Note_on_c, 0, 69, 65
2, 940900, Note_on_c, 0, 66, 70
2, 940908, Note_on_c, 0, 73, 0
2, 940942, Note_on_c, 0, 66, 0
2, 940958, Note_on_c, 0, 69, 0
2, 940992, Note_on_c, 0, 67, 65
2, 941050, Note_on_c, 0, 67, 0
2, 941092, Note_on_c, 0, 69, 69
2, 941104, Note_on_c, 0, 66, 71
2, 941152, Note_on_c, 0, 66, 0
2, 941154, Note_on_c, 0, 69, 0
2, 941210, Note_on_c, 0, 73, 69
2, 941302, Note_on_c, 0, 73, 0
2, 941318, Note_on_c, 0, 78, 78
2, 941330, Note_on_c, 0, 69, 69
2, 941378, Note_on_c, 0, 69, 0
2, 941404, Note_on_c, 0, 73, 58
2, 941462, Note_on_c, 0, 78, 0
2, 941478, Note_on_c, 0, 73, 0
2, 941520, Note_on_c, 0, 71, 95
2, 941546, Note_on_c, 0, 74, 85
2, 941576, Note_on_c, 0, 71, 0
2, 941606, Note_on_c, 0, 74, 0
2, 941634, Note_on_c, 0, 66, 67
2, 941730, Note_on_c, 0, 66, 0
2, 941732, Note_on_c, 0, 62, 73
2, 941736, Note_on_c, 0, 71, 71
2, 941784, Note_on_c, 0, 71, 0
2, 941802, Note_on_c, 0, 62, 0
2, 941834, Note_on_c, 0, 61, 74
2, 941952, Note_on_c, 0, 61, 0
2, 941962, Note_on_c, 0, 62, 66
2, 941965, Note_on_c, 0, 71, 70
2, 942014, Note_on_c, 0, 71, 0
2, 942064, Note_on_c, 0, 66, 58
2, 942078, Note_on_c, 0, 62, 0
2, 942146, Note_on_c, 0, 66, 0
2, 942176, Note_on_c, 0, 74, 66
2, 942184, Note_on_c, 0, 71, 62
2, 942220, Note_on_c, 0, 74, 0
2, 942236, Note_on_c, 0, 71, 0
2, 942292, Note_on_c, 0, 66, 54
2, 942348, Note_on_c, 0, 66, 0
2, 942390, Note_on_c, 0, 67, 86
2, 942398, Note_on_c, 0, 76, 83
2, 942434, Note_on_c, 0, 67, 0
2, 942479, Note_on_c, 0, 76, 0
2, 942502, Note_on_c, 0, 66, 63
2, 942616, Note_on_c, 0, 66, 0
2, 942628, Note_on_c, 0, 64, 60
2, 942628, Note_on_c, 0, 67, 42
2, 942676, Note_on_c, 0, 64, 0
2, 942706, Note_on_c, 0, 67, 0
2, 942709, Note_on_c, 0, 71, 55
2, 942774, Note_on_c, 0, 71, 0
2, 942814, Note_on_c, 0, 69, 70
2, 942817, Note_on_c, 0, 73, 75
2, 942866, Note_on_c, 0, 69, 0
2, 942874, Note_on_c, 0, 73, 0
2, 942944, Note_on_c, 0, 59, 65
2, 943018, Note_on_c, 0, 59, 0
2, 943036, Note_on_c, 0, 69, 46
2, 943042, Note_on_c, 0, 61, 75
2, 943096, Note_on_c, 0, 69, 0
2, 943154, Note_on_c, 0, 61, 0
2, 943154, Note_on_c, 0, 64, 63
2, 943206, Note_on_c, 0, 64, 0
2, 943244, Note_on_c, 0, 66, 79
2, 943256, Note_on_c, 0, 74, 95
2, 943282, Note_on_c, 0, 66, 0
2, 943366, Note_on_c, 0, 64, 78
2, 943386, Note_on_c, 0, 74, 0
2, 943422, Note_on_c, 0, 64, 0
2, 943458, Note_on_c, 0, 66, 60
2, 943472, Note_on_c, 0, 62, 71
2, 943516, Note_on_c, 0, 62, 0
2, 943542, Note_on_c, 0, 66, 0
2, 943568, Note_on_c, 0, 69, 65
2, 943628, Note_on_c, 0, 69, 0
2, 943674, Note_on_c, 0, 71, 92
2, 943686, Note_on_c, 0, 67, 87
2, 943714, Note_on_c, 0, 71, 0
2, 943732, Note_on_c, 0, 67, 0
2, 943800, Note_on_c, 0, 57, 72
2, 943890, Note_on_c, 0, 67, 79
2, 943894, Note_on_c, 0, 59, 74
2, 943916, Note_on_c, 0, 57, 0
2, 943938, Note_on_c, 0, 67, 0
2, 943954, Note_on_c, 0, 59, 0
2, 944002, Note_on_c, 0, 62, 75
2, 944044, Note_on_c, 0, 62, 0
2, 944102, Note_on_c, 0, 64, 98
2, 944102, Note_on_c, 0, 73, 95
2, 944136, Note_on_c, 0, 64, 0
2, 944212, Note_on_c, 0, 62, 72
2, 944222, Note_on_c, 0, 73, 0
2, 944288, Note_on_c, 0, 62, 0
2, 944314, Note_on_c, 0, 64, 80
2, 944334, Note_on_c, 0, 50, 71
2, 944384, Note_on_c, 0, 64, 0
2, 944386, Note_on_c, 0, 50, 0
2, 944438, Note_on_c, 0, 67, 66
2, 944534, Note_on_c, 0, 67, 0
2, 944552, Note_on_c, 0, 71, 90
2, 944556, Note_on_c, 0, 62, 106
2, 944604, Note_on_c, 0, 71, 0
2, 944630, Note_on_c, 0, 62, 0
2, 944638, Note_on_c, 0, 61, 79
2, 944710, Note_on_c, 0, 61, 0
2, 944730, Note_on_c, 0, 62, 57
2, 944782, Note_on_c, 0, 50, 67
2, 944832, Note_on_c, 0, 50, 0
2, 944836, Note_on_c, 0, 62, 0
2, 944852, Note_on_c, 0, 66, 60
2, 944952, Note_on_c, 0, 66, 0
2, 944970, Note_on_c, 0, 69, 90
2, 944978, Note_on_c, 0, 61, 101
2, 945042, Note_on_c, 0, 61, 0
2, 945068, Note_on_c, 0, 69, 0
2, 945080, Note_on_c, 0, 59, 83
2, 945136, Note_on_c, 0, 59, 0
2, 945192, Note_on_c, 0, 61, 74
2, 945200, Note_on_c, 0, 50, 57
2, 945252, Note_on_c, 0, 50, 0
2, 945252, Note_on_c, 0, 61, 0
2, 945296, Note_on_c, 0, 64, 73
2, 945382, Note_on_c, 0, 67, 88
2, 945398, Note_on_c, 0, 64, 0
2, 945400, Note_on_c, 0, 59, 93
2, 945446, Note_on_c, 0, 59, 0
2, 945464, Note_on_c, 0, 67, 0
2, 945504, Note_on_c, 0, 57, 81
2, 945594, Note_on_c, 0, 57, 0
2, 945604, Note_on_c, 0, 50, 80
2, 945606, Note_on_c, 0, 59, 72
2, 945654, Note_on_c, 0, 50, 0
2, 945688, Note_on_c, 0, 59, 0
2, 945714, Note_on_c, 0, 62, 77
2, 945800, Note_on_c, 0, 57, 86
2, 945802, Note_on_c, 0, 66, 80
2, 945814, Note_on_c, 0, 62, 0
2, 945846, Note_on_c, 0, 57, 0
2, 945912, Note_on_c, 0, 55, 78
2, 945918, Note_on_c, 0, 66, 0
2, 946006, Note_on_c, 0, 55, 0
2, 946006, Note_on_c, 0, 57, 42
2, 946014, Note_on_c, 0, 50, 67
2, 946072, Note_on_c, 0, 50, 0
2, 946096, Note_on_c, 0, 57, 0
2, 946110, Note_on_c, 0, 61, 66
2, 946220, Note_on_c, 0, 55, 85
2, 946223, Note_on_c, 0, 64, 79
2, 946264, Note_on_c, 0, 55, 0
2, 946296, Note_on_c, 0, 64, 0
2, 946298, Note_on_c, 0, 61, 0
2, 946334, Note_on_c, 0, 54, 90
2, 946428, Note_on_c, 0, 50, 71
2, 946446, Note_on_c, 0, 54, 0
2, 946454, Note_on_c, 0, 55, 52
2, 946480, Note_on_c, 0, 50, 0
2, 946514, Note_on_c, 0, 55, 0
2, 946556, Note_on_c, 0, 59, 39
2, 946632, Note_on_c, 0, 62, 94
2, 946638, Note_on_c, 0, 59, 0
2, 946638, Note_on_c, 0, 54, 89
2, 946684, Note_on_c, 0, 54, 0
2, 946740, Note_on_c, 0, 52, 43
2, 946768, Note_on_c, 0, 62, 0
2, 946806, Note_on_c, 0, 52, 0
2, 946844, Note_on_c, 0, 54, 82
2, 946870, Note_on_c, 0, 50, 65
2, 946926, Note_on_c, 0, 50, 0
2, 946966, Note_on_c, 0, 57, 49
2, 946980, Note_on_c, 0, 54, 0
2, 947040, Note_on_c, 0, 57, 0
2, 947048, Note_on_c, 0, 61, 86
2, 947060, Note_on_c, 0, 52, 97
2, 947094, Note_on_c, 0, 52, 0
2, 947174, Note_on_c, 0, 50, 73
2, 947176, Note_on_c, 0, 61, 0
2, 947262, Note_on_c, 0, 52, 43
2, 947312, Note_on_c, 0, 50, 0
2, 947328, Note_on_c, 0, 52, 0
2, 947346, Note_on_c, 0, 55, 67
2, 947406, Note_on_c, 0, 55, 0
2, 947472, Note_on_c, 0, 57, 100
2, 947482, Note_on_c, 0, 54, 98
2, 947485, Note_on_c, 0, 50, 93
2, 947602, Note_on_c, 0, 50, 0
2, 947614, Control_c, 0, 64, 127
2, 947714, Note_on_c, 0, 38, 74
2, 947772, Note_on_c, 0, 38, 0
2, 947826, Note_on_c, 0, 57, 0
2, 947856, Note_on_c, 0, 54, 0
2, 947938, Control_c, 0, 64, 0
2, 947948, Note_on_c, 0, 38, 94
2, 947988, Note_on_c, 0, 38, 0
2, 948177, Note_on_c, 0, 57, 57
2, 948182, Note_on_c, 0, 45, 65
2, 948184, Note_on_c, 0, 52, 63
2, 948232, Note_on_c, 0, 45, 0
2, 948260, Note_on_c, 0, 61, 79
2, 948286, Note_on_c, 0, 52, 0
2, 948308, Note_on_c, 0, 57, 0
2, 948380, Note_on_c, 0, 57, 70
2, 948390, Note_on_c, 0, 54, 90
2, 948396, Note_on_c, 0, 50, 96
2, 948402, Note_on_c, 0, 61, 0
2, 948552, Control_c, 0, 64, 127
2, 948638, Note_on_c, 0, 50, 0
2, 948638, Note_on_c, 0, 38, 77
2, 948728, Note_on_c, 0, 38, 0
2, 948752, Note_on_c, 0, 57, 0
2, 948778, Note_on_c, 0, 54, 0
2, 948844, Control_c, 0, 64, 0
2, 948878, Note_on_c, 0, 38, 79
2, 948920, Note_on_c, 0, 38, 0
2, 949086, Note_on_c, 0, 45, 72
2, 949090, Note_on_c, 0, 57, 49
2, 949094, Note_on_c, 0, 52, 57
2, 949136, Note_on_c, 0, 45, 0
2, 949162, Note_on_c, 0, 52, 0
2, 949192, Note_on_c, 0, 61, 57
2, 949212, Note_on_c, 0, 57, 0
2, 949262, Note_on_c, 0, 61, 0
2, 949288, Note_on_c, 0, 57, 51
2, 949294, Note_on_c, 0, 50, 82
2, 949320, Note_on_c, 0, 54, 60
2, 949348, Note_on_c, 0, 50, 0
2, 949388, Note_on_c, 0, 54, 0
2, 949420, Note_on_c, 0, 57, 0
2, 949423, Note_on_c, 0, 62, 59
2, 949506, Note_on_c, 0, 62, 0
2, 949508, Note_on_c, 0, 42, 71
2, 949512, Note_on_c, 0, 57, 43
2, 949526, Note_on_c, 0, 54, 60
2, 949560, Note_on_c, 0, 42, 0
2, 949582, Note_on_c, 0, 54, 0
2, 949602, Note_on_c, 0, 62, 56
2, 949624, Note_on_c, 0, 57, 0
2, 949716, Note_on_c, 0, 62, 0
2, 949724, Note_on_c, 0, 59, 75
2, 949728, Note_on_c, 0, 43, 87
2, 949734, Note_on_c, 0, 54, 73
2, 949772, Note_on_c, 0, 43, 0
2, 949802, Note_on_c, 0, 54, 0
2, 949816, Note_on_c, 0, 62, 54
2, 949880, Note_on_c, 0, 62, 0
2, 949906, Note_on_c, 0, 59, 0
2, 949932, Note_on_c, 0, 52, 65
2, 949936, Note_on_c, 0, 45, 79
2, 949944, Note_on_c, 0, 57, 56
2, 949980, Note_on_c, 0, 45, 0
2, 950004, Note_on_c, 0, 52, 0
2, 950028, Note_on_c, 0, 61, 82
2, 950056, Note_on_c, 0, 57, 0
2, 950144, Note_on_c, 0, 57, 69
2, 950152, Note_on_c, 0, 54, 98
2, 950152, Note_on_c, 0, 50, 112
2, 950158, Note_on_c, 0, 61, 0
2, 950304, Control_c, 0, 64, 127
2, 950364, Note_on_c, 0, 50, 0
2, 950364, Note_on_c, 0, 54, 0
2, 950384, Note_on_c, 0, 38, 78
2, 950392, Note_on_c, 0, 57, 0
2, 950450, Note_on_c, 0, 38, 0
2, 950580, Control_c, 0, 64, 0
2, 950608, Note_on_c, 0, 38, 100
2, 950650, Note_on_c, 0, 38, 0
2, 950846, Note_on_c, 0, 62, 87
2, 950910, Note_on_c, 0, 62, 0
2, 950936, Note_on_c, 0, 74, 69
2, 950950, Note_on_c, 0, 50, 64
2, 951040, Note_on_c, 0, 74, 0
2, 951048, Note_on_c, 0, 50, 0
2, 951062, Note_on_c, 0, 60, 82
2, 951074, Note_on_c, 0, 64, 77
2, 951118, Note_on_c, 0, 60, 0
2, 951122, Note_on_c, 0, 64, 0
2, 951176, Note_on_c, 0, 50, 66
2, 951250, Note_on_c, 0, 50, 0
2, 951280, Note_on_c, 0, 64, 69
2, 951280, Note_on_c, 0, 60, 57
2, 951336, Note_on_c, 0, 60, 0
2, 951339, Note_on_c, 0, 64, 0
2, 951386, Note_on_c, 0, 74, 60
2, 951392, Note_on_c, 0, 50, 40
2, 951454, Note_on_c, 0, 74, 0
2, 951468, Note_on_c, 0, 50, 0
2, 951486, Note_on_c, 0, 66, 58
2, 951488, Note_on_c, 0, 57, 58
2, 951546, Note_on_c, 0, 57, 0
2, 951552, Note_on_c, 0, 66, 0
2, 951600, Note_on_c, 0, 50, 41
2, 951696, Note_on_c, 0, 50, 0
2, 951716, Note_on_c, 0, 57, 39
2, 951722, Note_on_c, 0, 66, 54
2, 951782, Note_on_c, 0, 57, 0
2, 951790, Note_on_c, 0, 66, 0
2, 951824, Note_on_c, 0, 50, 44
2, 951830, Note_on_c, 0, 74, 54
2, 951896, Note_on_c, 0, 74, 0
2, 951912, Note_on_c, 0, 50, 0
2, 951922, Note_on_c, 0, 59, 60
2, 951932, Note_on_c, 0, 67, 63
2, 951976, Note_on_c, 0, 59, 0
2, 952000, Note_on_c, 0, 67, 0
2, 952052, Note_on_c, 0, 50, 44
2, 952126, Note_on_c, 0, 50, 0
2, 952154, Note_on_c, 0, 59, 43
2, 952157, Note_on_c, 0, 67, 55
2, 952212, Note_on_c, 0, 59, 0
2, 952220, Note_on_c, 0, 67, 0
2, 952254, Note_on_c, 0, 74, 58
2, 952266, Note_on_c, 0, 50, 46
2, 952316, Note_on_c, 0, 74, 0
2, 952354, Note_on_c, 0, 50, 0
2, 952357, Note_on_c, 0, 71, 73
2, 952357, Note_on_c, 0, 55, 63
2, 952416, Note_on_c, 0, 55, 0
2, 952416, Note_on_c, 0, 71, 0
2, 952464, Note_on_c, 0, 50, 58
2, 952548, Note_on_c, 0, 50, 0
2, 952578, Note_on_c, 0, 55, 71
2, 952580, Note_on_c, 0, 71, 72
2, 952630, Note_on_c, 0, 55, 0
2, 952640, Note_on_c, 0, 71, 0
2, 952660, Note_on_c, 0, 74, 81
2, 952678, Note_on_c, 0, 50, 66
2, 952722, Note_on_c, 0, 74, 0
2, 952782, Note_on_c, 0, 72, 87
2, 952785, Note_on_c, 0, 54, 87
2, 952802, Note_on_c, 0, 50, 0
2, 952858, Note_on_c, 0, 54, 0
2, 952878, Note_on_c, 0, 72, 0
2, 952900, Note_on_c, 0, 50, 55
2, 953002, Note_on_c, 0, 54, 86
2, 953016, Note_on_c, 0, 72, 79
2, 953024, Note_on_c, 0, 50, 0
2, 953078, Note_on_c, 0, 72, 0
2, 953094, Note_on_c, 0, 74, 83
2, 953104, Note_on_c, 0, 50, 62
2, 953120, Note_on_c, 0, 54, 0
2, 953158, Note_on_c, 0, 74, 0
2, 953196, Note_on_c, 0, 73, 81
2, 953208, Note_on_c, 0, 52, 96
2, 953222, Note_on_c, 0, 50, 0
2, 953268, Note_on_c, 0, 52, 0
2, 953294, Note_on_c, 0, 73, 0
2, 953336, Note_on_c, 0, 50, 47
2, 953398, Note_on_c, 0, 73, 52
2, 953420, Note_on_c, 0, 52, 77
2, 953432, Note_on_c, 0, 50, 0
2, 953472, Note_on_c, 0, 52, 0
2, 953496, Note_on_c, 0, 74, 82
2, 953500, Note_on_c, 0, 50, 81
2, 953514, Note_on_c, 0, 73, 0
2, 953554, Note_on_c, 0, 74, 0
2, 953594, Note_on_c, 0, 50, 0
2, 953606, Note_on_c, 0, 66, 73
2, 953606, Note_on_c, 0, 69, 75
2, 953626, Note_on_c, 0, 62, 83
2, 953734, Note_on_c, 0, 62, 0
2, 953746, Control_c, 0, 64, 127
2, 953856, Note_on_c, 0, 50, 85
2, 953880, Note_on_c, 0, 66, 0
2, 953902, Note_on_c, 0, 69, 0
2, 953922, Note_on_c, 0, 50, 0
2, 954076, Note_on_c, 0, 50, 98
2, 954112, Note_on_c, 0, 50, 0
2, 954306, Note_on_c, 0, 74, 104
2, 954376, Note_on_c, 0, 74, 0
2, 954376, Control_c, 0, 64, 0
2, 954416, Note_on_c, 0, 86, 71
2, 954422, Note_on_c, 0, 62, 78
2, 954490, Note_on_c, 0, 62, 0
2, 954516, Note_on_c, 0, 86, 0
2, 954522, Note_on_c, 0, 76, 82
2, 954532, Note_on_c, 0, 72, 82
2, 954590, Note_on_c, 0, 72, 0
2, 954594, Note_on_c, 0, 76, 0
2, 954628, Note_on_c, 0, 86, 59
2, 954648, Note_on_c, 0, 62, 72
2, 954708, Note_on_c, 0, 62, 0
2, 954724, Note_on_c, 0, 86, 0
2, 954740, Note_on_c, 0, 76, 64
2, 954740, Note_on_c, 0, 72, 39
2, 954796, Note_on_c, 0, 76, 0
2, 954804, Note_on_c, 0, 72, 0
2, 954840, Note_on_c, 0, 86, 41
2, 954872, Note_on_c, 0, 62, 54
2, 954920, Note_on_c, 0, 86, 0
2, 954934, Note_on_c, 0, 62, 0
2, 954954, Note_on_c, 0, 78, 66
2, 954968, Note_on_c, 0, 69, 47
2, 955012, Note_on_c, 0, 78, 0
2, 955032, Note_on_c, 0, 69, 0
2, 955050, Note_on_c, 0, 86, 42
2, 955088, Note_on_c, 0, 62, 33
2, 955128, Note_on_c, 0, 86, 0
2, 955158, Note_on_c, 0, 62, 0
2, 955168, Note_on_c, 0, 78, 52
2, 955172, Note_on_c, 0, 69, 47
2, 955232, Note_on_c, 0, 78, 0
2, 955236, Note_on_c, 0, 69, 0
2, 955262, Note_on_c, 0, 86, 43
2, 955276, Note_on_c, 0, 62, 29
2, 955330, Note_on_c, 0, 86, 0
2, 955350, Note_on_c, 0, 62, 0
2, 955368, Note_on_c, 0, 71, 48
2, 955382, Note_on_c, 0, 79, 77
2, 955436, Note_on_c, 0, 79, 0
2, 955436, Note_on_c, 0, 71, 0
2, 955486, Note_on_c, 0, 62, 37
2, 955500, Note_on_c, 0, 86, 52
2, 955556, Note_on_c, 0, 62, 0
2, 955558, Note_on_c, 0, 86, 0
2, 955598, Note_on_c, 0, 79, 67
2, 955601, Note_on_c, 0, 71, 49
2, 955652, Note_on_c, 0, 79, 0
2, 955662, Note_on_c, 0, 71, 0
2, 955698, Note_on_c, 0, 86, 44
2, 955716, Note_on_c, 0, 62, 48
2, 955760, Note_on_c, 0, 86, 0
2, 955778, Note_on_c, 0, 62, 0
2, 955790, Note_on_c, 0, 67, 63
2, 955794, Note_on_c, 0, 83, 108
2, 955852, Note_on_c, 0, 67, 0
2, 955898, Note_on_c, 0, 83, 0
2, 955901, Note_on_c, 0, 86, 64
2, 955912, Note_on_c, 0, 62, 43
2, 955962, Note_on_c, 0, 86, 0
2, 955998, Note_on_c, 0, 62, 0
2, 956001, Note_on_c, 0, 83, 92
2, 956016, Note_on_c, 0, 67, 44
2, 956064, Note_on_c, 0, 83, 0
2, 956078, Note_on_c, 0, 67, 0
2, 956090, Note_on_c, 0, 86, 78
2, 956108, Note_on_c, 0, 62, 56
2, 956140, Note_on_c, 0, 86, 0
2, 956192, Note_on_c, 0, 62, 0
2, 956204, Note_on_c, 0, 84, 108
2, 956207, Note_on_c, 0, 66, 69
2, 956270, Note_on_c, 0, 66, 0
2, 956288, Note_on_c, 0, 86, 92
2, 956310, Note_on_c, 0, 84, 0
2, 956320, Note_on_c, 0, 62, 57
2, 956400, Note_on_c, 0, 84, 79
2, 956402, Note_on_c, 0, 86, 0
2, 956412, Note_on_c, 0, 62, 0
2, 956416, Note_on_c, 0, 66, 57
2, 956496, Note_on_c, 0, 86, 83
2, 956502, Note_on_c, 0, 66, 0
2, 956506, Note_on_c, 0, 84, 0
2, 956508, Note_on_c, 0, 62, 62
2, 956592, Note_on_c, 0, 86, 0
2, 956612, Note_on_c, 0, 62, 0
2, 956612, Note_on_c, 0, 64, 87
2, 956615, Note_on_c, 0, 85, 89
2, 956680, Note_on_c, 0, 64, 0
2, 956702, Note_on_c, 0, 86, 80
2, 956714, Note_on_c, 0, 85, 0
2, 956722, Note_on_c, 0, 62, 59
2, 956800, Note_on_c, 0, 85, 57
2, 956802, Note_on_c, 0, 64, 77
2, 956822, Note_on_c, 0, 62, 0
2, 956824, Note_on_c, 0, 86, 0
2, 956862, Note_on_c, 0, 64, 0
2, 956900, Note_on_c, 0, 62, 72
2, 956903, Note_on_c, 0, 86, 66
2, 956938, Note_on_c, 0, 85, 0
2, 956964, Note_on_c, 0, 86, 0
2, 956974, Note_on_c, 0, 62, 0
2, 957004, Note_on_c, 0, 78, 86
2, 957004, Note_on_c, 0, 81, 89
2, 957010, Note_on_c, 0, 74, 101
2, 957140, Control_c, 0, 64, 127
2, 957188, Note_on_c, 0, 74, 0
2, 957244, Note_on_c, 0, 62, 87
2, 957250, Note_on_c, 0, 81, 0
2, 957268, Note_on_c, 0, 78, 0
2, 957338, Note_on_c, 0, 62, 0
2, 957442, Note_on_c, 0, 62, 86
2, 957478, Note_on_c, 0, 62, 0
2, 957602, Control_c, 0, 64, 0
2, 957684, Note_on_c, 0, 57, 86
2, 957686, Note_on_c, 0, 69, 57
2, 957690, Note_on_c, 0, 64, 59
2, 957772, Note_on_c, 0, 64, 0
2, 957782, Note_on_c, 0, 72, 78
2, 957808, Note_on_c, 0, 69, 0
2, 957876, Note_on_c, 0, 69, 71
2, 957878, Note_on_c, 0, 57, 0
2, 957882, Note_on_c, 0, 66, 75
2, 957882, Note_on_c, 0, 62, 80
2, 957912, Note_on_c, 0, 72, 0
2, 958078, Note_on_c, 0, 62, 0
2, 958122, Note_on_c, 0, 50, 90
2, 958174, Note_on_c, 0, 50, 0
2, 958350, Note_on_c, 0, 50, 83
2, 958396, Note_on_c, 0, 50, 0
2, 958402, Note_on_c, 0, 69, 0
2, 958438, Note_on_c, 0, 66, 0
2, 958562, Note_on_c, 0, 69, 51
2, 958572, Note_on_c, 0, 57, 50
2, 958580, Note_on_c, 0, 64, 42
2, 958648, Note_on_c, 0, 64, 0
2, 958656, Note_on_c, 0, 57, 0
2, 958662, Control_c, 0, 64, 127
2, 958666, Note_on_c, 0, 72, 57
2, 958680, Note_on_c, 0, 69, 0
2, 958776, Note_on_c, 0, 72, 0
2, 958786, Note_on_c, 0, 69, 29
2, 958792, Note_on_c, 0, 62, 54
2, 958802, Note_on_c, 0, 66, 31
2, 958898, Note_on_c, 0, 62, 0
2, 958984, Control_c, 0, 64, 0
2, 959016, Note_on_c, 0, 50, 65
2, 959070, Note_on_c, 0, 50, 0
2, 959254, Note_on_c, 0, 50, 65
2, 959300, Note_on_c, 0, 69, 0
2, 959308, Note_on_c, 0, 50, 0
2, 959346, Note_on_c, 0, 66, 0
2, 959484, Note_on_c, 0, 69, 46
2, 959502, Note_on_c, 0, 57, 42
2, 959508, Note_on_c, 0, 64, 28
2, 959576, Note_on_c, 0, 64, 0
2, 959592, Note_on_c, 0, 69, 0
2, 959604, Note_on_c, 0, 72, 47
2, 959676, Note_on_c, 0, 72, 0
2, 959688, Note_on_c, 0, 57, 0
2, 959700, Note_on_c, 0, 69, 40
2, 959702, Note_on_c, 0, 62, 58
2, 959710, Note_on_c, 0, 66, 42
2, 959790, Note_on_c, 0, 66, 0
2, 959818, Note_on_c, 0, 72, 54
2, 959824, Note_on_c, 0, 69, 0
2, 959846, Control_c, 0, 64, 127
2, 959849, Note_on_c, 0, 62, 0
2, 959896, Note_on_c, 0, 72, 0
2, 959904, Note_on_c, 0, 69, 43
2, 959912, Note_on_c, 0, 64, 52
2, 959932, Note_on_c, 0, 57, 59
2, 959976, Note_on_c, 0, 64, 0
2, 959986, Note_on_c, 0, 57, 0
2, 960028, Note_on_c, 0, 72, 39
2, 960034, Note_on_c, 0, 69, 0
2, 960108, Note_on_c, 0, 72, 0
2, 960120, Note_on_c, 0, 69, 42
2, 960126, Note_on_c, 0, 50, 81
2, 960144, Note_on_c, 0, 66, 42
2, 960220, Note_on_c, 0, 50, 0
2, 960224, Note_on_c, 0, 66, 0
2, 960240, Note_on_c, 0, 72, 56
2, 960252, Note_on_c, 0, 69, 0
2, 960332, Note_on_c, 0, 72, 0
2, 960335, Note_on_c, 0, 69, 49
2, 960352, Note_on_c, 0, 45, 75
2, 960358, Note_on_c, 0, 64, 63
2, 960418, Note_on_c, 0, 64, 0
2, 960460, Note_on_c, 0, 72, 63
2, 960464, Note_on_c, 0, 69, 0
2, 960480, Note_on_c, 0, 45, 0
2, 960580, Note_on_c, 0, 72, 0
2, 960584, Note_on_c, 0, 38, 90
2, 960588, Note_on_c, 0, 69, 42
2, 960588, Note_on_c, 0, 66, 51
2, 960660, Control_c, 0, 64, 0
2, 960674, Note_on_c, 0, 66, 0
2, 960686, Note_on_c, 0, 69, 0
2, 960700, Note_on_c, 0, 72, 47
2, 960792, Note_on_c, 0, 72, 0
2, 960812, Note_on_c, 0, 45, 65
2, 960812, Note_on_c, 0, 69, 55
2, 960815, Note_on_c, 0, 64, 52
2, 960876, Note_on_c, 0, 64, 0
2, 960896, Note_on_c, 0, 69, 0
2, 960896, Note_on_c, 0, 45, 0
2, 960920, Note_on_c, 0, 72, 43
2, 960982, Control_c, 0, 64, 127
2, 960988, Note_on_c, 0, 38, 0
2, 960996, Note_on_c, 0, 72, 0
2, 961032, Note_on_c, 0, 69, 49
2, 961034, Note_on_c, 0, 66, 34
2, 961054, Note_on_c, 0, 50, 63
2, 961100, Note_on_c, 0, 69, 0
2, 961106, Note_on_c, 0, 66, 0
2, 961122, Note_on_c, 0, 50, 0
2, 961142, Note_on_c, 0, 72, 41
2, 961212, Note_on_c, 0, 72, 0
2, 961228, Control_c, 0, 64, 0
2, 961242, Note_on_c, 0, 64, 41
2, 961246, Note_on_c, 0, 69, 54
2, 961252, Note_on_c, 0, 57, 77
2, 961278, Note_on_c, 0, 50, 2
2, 961304, Note_on_c, 0, 64, 0
2, 961318, Note_on_c, 0, 69, 0
2, 961356, Note_on_c, 0, 72, 44
2, 961400, Note_on_c, 0, 50, 0
2, 961430, Note_on_c, 0, 72, 0
2, 961456, Note_on_c, 0, 69, 66
2, 961474, Note_on_c, 0, 66, 42
2, 961488, Note_on_c, 0, 57, 0
2, 961488, Note_on_c, 0, 62, 81
2, 961504, Control_c, 0, 64, 127
2, 961540, Note_on_c, 0, 66, 0
2, 961564, Note_on_c, 0, 72, 51
2, 961580, Note_on_c, 0, 69, 0
2, 961620, Note_on_c, 0, 72, 0
2, 961696, Note_on_c, 0, 72, 67
2, 961716, Note_on_c, 0, 69, 49
2, 961780, Note_on_c, 0, 69, 0
2, 961794, Note_on_c, 0, 78, 80
2, 961810, Note_on_c, 0, 72, 0
2, 961838, Note_on_c, 0, 78, 0
2, 961842, Control_c, 0, 64, 0
2, 961938, Note_on_c, 0, 78, 71
2, 961946, Note_on_c, 0, 72, 75
2, 961996, Note_on_c, 0, 72, 0
2, 961996, Control_c, 0, 64, 127
2, 962002, Note_on_c, 0, 81, 86
2, 962044, Note_on_c, 0, 81, 0
2, 962044, Note_on_c, 0, 78, 0
2, 962074, Control_c, 0, 64, 0
2, 962132, Note_on_c, 0, 78, 63
2, 962150, Note_on_c, 0, 81, 75
2, 962164, Control_c, 0, 64, 127
2, 962216, Note_on_c, 0, 78, 0
2, 962242, Note_on_c, 0, 84, 85
2, 962242, Control_c, 0, 64, 0
2, 962254, Note_on_c, 0, 81, 0
2, 962278, Note_on_c, 0, 84, 0
2, 962360, Note_on_c, 0, 84, 59
2, 962364, Note_on_c, 0, 81, 82
2, 962380, Control_c, 0, 64, 127
2, 962412, Note_on_c, 0, 81, 0
2, 962412, Control_c, 0, 64, 0
2, 962450, Note_on_c, 0, 90, 87
2, 962472, Note_on_c, 0, 84, 0
2, 962494, Note_on_c, 0, 90, 0
2, 962550, Control_c, 0, 64, 127
2, 962580, Control_c, 0, 64, 0
2, 962586, Note_on_c, 0, 84, 48
2, 962592, Note_on_c, 0, 90, 50
2, 962632, Note_on_c, 0, 93, 79
2, 962648, Note_on_c, 0, 84, 0
2, 962654, Note_on_c, 0, 90, 0
2, 962686, Note_on_c, 0, 93, 0
2, 962774, Note_on_c, 0, 62, 0
2, 962788, Note_on_c, 0, 90, 83
2, 962790, Note_on_c, 0, 93, 86
2, 962836, Note_on_c, 0, 90, 0
2, 962842, Control_c, 0, 64, 127
2, 962856, Note_on_c, 0, 96, 106
2, 962884, Note_on_c, 0, 96, 0
2, 962887, Note_on_c, 0, 93, 0
2, 963048, Note_on_c, 0, 50, 116
2, 963050, Note_on_c, 0, 38, 110
2, 963078, Note_on_c, 0, 38, 0
2, 963090, Note_on_c, 0, 50, 0
2, 963348, Note_on_c, 0, 83, 127
2, 963348, Note_on_c, 0, 71, 127
2, 963354, Note_on_c, 0, 55, 124
2, 963358, Note_on_c, 0, 43, 119
2, 963688, Note_on_c, 0, 55, 0
2, 963706, Note_on_c, 0, 83, 0
2, 963726, Note_on_c, 0, 71, 0
2, 963766, Note_on_c, 0, 43, 0
2, 963784, Note_on_c, 0, 81, 112
2, 963786, Note_on_c, 0, 54, 108
2, 963788, Note_on_c, 0, 69, 111
2, 963796, Note_on_c, 0, 42, 96
2, 963870, Control_c, 0, 64, 0
2, 963950, Note_on_c, 0, 81, 0
2, 963952, Note_on_c, 0, 54, 0
2, 963958, Note_on_c, 0, 69, 0
2, 964014, Note_on_c, 0, 67, 116
2, 964017, Note_on_c, 0, 79, 119
2, 964020, Note_on_c, 0, 42, 0
2, 964020, Note_on_c, 0, 52, 121
2, 964023, Control_c, 0, 64, 127
2, 964028, Note_on_c, 0, 40, 124
2, 964088, Note_on_c, 0, 79, 0
2, 964098, Note_on_c, 0, 67, 0
2, 964104, Note_on_c, 0, 52, 0
2, 964132, Note_on_c, 0, 40, 0
2, 964238, Note_on_c, 0, 66, 106
2, 964238, Control_c, 0, 64, 0
2, 964241, Note_on_c, 0, 78, 115
2, 964250, Note_on_c, 0, 50, 120
2, 964250, Note_on_c, 0, 38, 118
2, 964338, Note_on_c, 0, 50, 0
2, 964338, Note_on_c, 0, 66, 0
2, 964346, Note_on_c, 0, 38, 0
2, 964356, Note_on_c, 0, 78, 0
2, 964450, Note_on_c, 0, 76, 118
2, 964456, Note_on_c, 0, 48, 108
2, 964456, Note_on_c, 0, 64, 120
2, 964456, Note_on_c, 0, 36, 116
2, 964528, Note_on_c, 0, 64, 0
2, 964536, Note_on_c, 0, 76, 0
2, 964554, Note_on_c, 0, 36, 0
2, 964556, Note_on_c, 0, 48, 0
2, 964666, Note_on_c, 0, 62, 117
2, 964668, Note_on_c, 0, 74, 121
2, 964672, Note_on_c, 0, 47, 116
2, 964674, Note_on_c, 0, 35, 123
2, 964744, Note_on_c, 0, 74, 0
2, 964754, Note_on_c, 0, 62, 0
2, 964754, Note_on_c, 0, 47, 0
2, 964770, Note_on_c, 0, 35, 0
2, 964880, Note_on_c, 0, 45, 110
2, 964882, Note_on_c, 0, 33, 116
2, 964882, Note_on_c, 0, 72, 118
2, 964884, Note_on_c, 0, 60, 113
2, 964966, Note_on_c, 0, 45, 0
2, 964972, Note_on_c, 0, 72, 0
2, 964976, Note_on_c, 0, 60, 0
2, 964978, Note_on_c, 0, 33, 0
2, 965106, Note_on_c, 0, 71, 124
2, 965108, Note_on_c, 0, 59, 120
2, 965114, Note_on_c, 0, 43, 113
2, 965117, Note_on_c, 0, 31, 117
2, 965156, Note_on_c, 0, 31, 0
2, 965180, Note_on_c, 0, 59, 0
2, 965196, Note_on_c, 0, 71, 0
2, 965214, Note_on_c, 0, 43, 0
2, 965318, Note_on_c, 0, 45, 104
2, 965321, Note_on_c, 0, 60, 111
2, 965321, Note_on_c, 0, 72, 116
2, 965321, Note_on_c, 0, 33, 108
2, 965366, Note_on_c, 0, 33, 0
2, 965384, Note_on_c, 0, 45, 0
2, 965386, Note_on_c, 0, 60, 0
2, 965402, Note_on_c, 0, 72, 0
2, 965578, Note_on_c, 0, 74, 127
2, 965580, Note_on_c, 0, 62, 127
2, 965588, Note_on_c, 0, 47, 119
2, 965594, Note_on_c, 0, 35, 120
2, 966224, Note_on_c, 0, 35, 0
2, 966234, Note_on_c, 0, 47, 0
2, 966236, Note_on_c, 0, 62, 0
2, 966254, Note_on_c, 0, 74, 0
2, 966478, Note_on_c, 0, 76, 118
2, 966486, Note_on_c, 0, 64, 104
2, 966486, Note_on_c, 0, 67, 97
2, 966489, Note_on_c, 0, 48, 108
2, 966498, Note_on_c, 0, 36, 102
2, 966744, Control_c, 0, 64, 127
2, 966762, Note_on_c, 0, 48, 0
2, 966776, Note_on_c, 0, 76, 0
2, 966798, Note_on_c, 0, 36, 0
2, 966842, Note_on_c, 0, 67, 0
2, 966870, Note_on_c, 0, 64, 0
2, 967042, Note_on_c, 0, 72, 109
2, 967044, Note_on_c, 0, 66, 82
2, 967050, Note_on_c, 0, 60, 109
2, 967050, Note_on_c, 0, 45, 108
2, 967053, Note_on_c, 0, 33, 111
2, 967402, Note_on_c, 0, 33, 0
2, 967416, Note_on_c, 0, 60, 0
2, 967419, Note_on_c, 0, 72, 0
2, 967430, Note_on_c, 0, 45, 0
2, 967520, Note_on_c, 0, 71, 111
2, 967520, Note_on_c, 0, 62, 104
2, 967523, Note_on_c, 0, 47, 105
2, 967526, Note_on_c, 0, 67, 83
2, 967528, Note_on_c, 0, 35, 115
2, 967540, Note_on_c, 0, 66, 0
2, 967700, Note_on_c, 0, 35, 0
2, 967708, Note_on_c, 0, 47, 0
2, 967796, Note_on_c, 0, 48, 101
2, 967799, Note_on_c, 0, 36, 105
2, 967822, Note_on_c, 0, 67, 0
2, 967896, Note_on_c, 0, 62, 0
2, 967922, Note_on_c, 0, 36, 0
2, 967932, Note_on_c, 0, 48, 0
2, 967938, Note_on_c, 0, 71, 0
2, 968086, Note_on_c, 0, 60, 116
2, 968086, Note_on_c, 0, 69, 102
2, 968089, Note_on_c, 0, 50, 115
2, 968094, Note_on_c, 0, 66, 83
2, 968098, Note_on_c, 0, 38, 104
2, 968158, Control_c, 0, 64, 0
2, 968158, Note_on_c, 0, 71, 109
2, 968200, Note_on_c, 0, 69, 0
2, 968262, Note_on_c, 0, 69, 81
2, 968364, Note_on_c, 0, 71, 0
2, 968782, Note_on_c, 0, 38, 0
2, 968798, Note_on_c, 0, 50, 0
2, 968834, Control_c, 0, 64, 127
2, 968978, Note_on_c, 0, 67, 103
2, 969036, Note_on_c, 0, 69, 0
2, 969064, Note_on_c, 0, 66, 0
2, 969067, Note_on_c, 0, 60, 0
2, 969106, Note_on_c, 0, 67, 0
2, 969242, Note_on_c, 0, 59, 101
2, 969244, Note_on_c, 0, 62, 98
2, 969248, Note_on_c, 0, 67, 102
2, 969256, Note_on_c, 0, 55, 111
2, 969260, Note_on_c, 0, 43, 106
2, 969294, Control_c, 0, 64, 0
2, 969432, Note_on_c, 0, 55, 0
2, 969454, Note_on_c, 0, 62, 0
2, 969484, Note_on_c, 0, 43, 0
2, 969486, Note_on_c, 0, 67, 0
2, 969510, Control_c, 0, 64, 127
2, 969534, Note_on_c, 0, 59, 0
2, 969586, Control_c, 0, 64, 0
2, 969784, Note_on_c, 0, 55, 117
2, 969798, Note_on_c, 0, 31, 116
2, 969798, Note_on_c, 0, 43, 100
2, 969848, Note_on_c, 0, 43, 0
2, 969892, Note_on_c, 0, 31, 0
2, 969900, Note_on_c, 0, 55, 0
2, 969908, Control_c, 0, 64, 127
2, 970378, Note_on_c, 0, 55, 124
2, 970388, Note_on_c, 0, 43, 97
2, 970394, Note_on_c, 0, 31, 96
2, 970474, Note_on_c, 0, 55, 0
2, 970477, Note_on_c, 0, 43, 0
2, 970508, Note_on_c, 0, 31, 0
2, 970646, Control_c, 0, 64, 0
2, 970646, End_track
0, 0, End_of_file
