0, 0, Header, 0, 1, 384
1, 0, Start_track
1, 0, Tempo, 512820
1, 0, Title_t, ""
1, 0, Control_c, 0, 64, 127
1, 0, Note_on_c, 0, 54, 48
1, 0, Note_on_c, 0, 66, 43
1, 1577, Note_off_c, 0, 66, 64
1, 1645, Note_off_c, 0, 54, 64
1, 2825, Note_on_c, 0, 23, 35
1, 2838, Note_on_c, 0, 35, 30
1, 2875, Note_off_c, 0, 23, 64
1, 2893, Control_c, 0, 64, 0
1, 2907, Note_off_c, 0, 35, 64
1, 3008, Note_on_c, 0, 37, 39
1, 3075, Note_off_c, 0, 37, 64
1, 3212, Note_on_c, 0, 30, 41
1, 3220, Note_on_c, 0, 38, 39
1, 3268, Note_off_c, 0, 30, 64
1, 3268, Note_off_c, 0, 38, 64
1, 3412, Note_on_c, 0, 40, 52
1, 3451, Note_off_c, 0, 40, 64
1, 3591, Note_on_c, 0, 23, 48
1, 3591, Note_on_c, 0, 42, 45
1, 3634, Note_off_c, 0, 42, 64
1, 3634, Note_off_c, 0, 23, 64
1, 3763, Note_on_c, 0, 38, 49
1, 3807, Note_off_c, 0, 38, 64
1, 3953, Note_on_c, 0, 42, 48
1, 3953, Note_on_c, 0, 30, 41
1, 4011, Note_off_c, 0, 30, 64
1, 4011, Note_off_c, 0, 42, 64
1, 4318, Note_on_c, 0, 41, 69
1, 4329, Note_on_c, 0, 23, 49
1, 4371, Note_off_c, 0, 23, 64
1, 4376, Note_off_c, 0, 41, 64
1, 4498, Note_on_c, 0, 37, 50
1, 4548, Note_off_c, 0, 37, 64
1, 4677, Note_on_c, 0, 41, 45
1, 4682, Note_on_c, 0, 30, 42
1, 4747, Note_off_c, 0, 30, 64
1, 4808, Note_off_c, 0, 41, 64
1, 5030, Note_on_c, 0, 40, 55
1, 5034, Note_on_c, 0, 23, 31
1, 5075, Note_off_c, 0, 40, 64
1, 5103, Note_off_c, 0, 23, 64
1, 5211, Note_on_c, 0, 36, 43
1, 5256, Note_off_c, 0, 36, 64
1, 5387, Note_on_c, 0, 40, 52
1, 5393, Note_on_c, 0, 30, 29
1, 5448, Note_off_c, 0, 30, 64
1, 5474, Note_off_c, 0, 40, 64
1, 5721, Note_on_c, 0, 23, 44
1, 5721, Note_on_c, 0, 35, 67
1, 5769, Note_off_c, 0, 35, 64
1, 5782, Note_off_c, 0, 23, 64
1, 5878, Note_on_c, 0, 37, 65
1, 5916, Note_off_c, 0, 37, 64
1, 6050, Note_on_c, 0, 38, 63
1, 6050, Note_on_c, 0, 30, 44
1, 6095, Note_off_c, 0, 38, 64
1, 6095, Note_off_c, 0, 30, 64
1, 6212, Note_on_c, 0, 40, 83
1, 6254, Note_off_c, 0, 40, 64
1, 6392, Note_on_c, 0, 42, 64
1, 6404, Note_on_c, 0, 23, 50
1, 6454, Note_off_c, 0, 42, 64
1, 6458, Note_off_c, 0, 23, 64
1, 6562, Note_on_c, 0, 38, 67
1, 6615, Note_off_c, 0, 38, 64
1, 6724, Note_on_c, 0, 42, 64
1, 6730, Note_on_c, 0, 30, 41
1, 6782, Note_off_c, 0, 30, 64
1, 6797, Note_off_c, 0, 42, 64
1, 6886, Note_on_c, 0, 47, 63
1, 6945, Note_off_c, 0, 47, 64
1, 7069, Note_on_c, 0, 45, 45
1, 7073, Note_on_c, 0, 26, 36
1, 7133, Note_off_c, 0, 45, 64
1, 7140, Note_off_c, 0, 26, 64
1, 7229, Note_on_c, 0, 42, 52
1, 7273, Note_off_c, 0, 42, 64
1, 7399, Note_on_c, 0, 38, 48
1, 7406, Note_on_c, 0, 33, 39
1, 7446, Note_off_c, 0, 38, 64
1, 7468, Note_off_c, 0, 33, 64
1, 7571, Note_on_c, 0, 42, 43
1, 7627, Note_off_c, 0, 42, 64
1, 7764, Note_on_c, 0, 26, 27
1, 7764, Note_on_c, 0, 45, 39
1, 7874, Note_off_c, 0, 26, 64
1, 8115, Note_on_c, 0, 33, 32
1, 8193, Note_off_c, 0, 45, 64
1, 8201, Control_c, 0, 64, 127
1, 8201, Note_off_c, 0, 33, 64
1, 8239, Control_c, 0, 64, 0
1, 8435, Note_on_c, 0, 47, 48
1, 8449, Note_on_c, 0, 23, 40
1, 8479, Note_off_c, 0, 47, 64
1, 8537, Note_off_c, 0, 23, 64
1, 8607, Note_on_c, 0, 49, 48
1, 8650, Note_off_c, 0, 49, 64
1, 8788, Note_on_c, 0, 50, 56
1, 8788, Note_on_c, 0, 30, 40
1, 8836, Note_off_c, 0, 50, 64
1, 8842, Note_off_c, 0, 30, 64
1, 8972, Note_on_c, 0, 52, 43
1, 9016, Note_off_c, 0, 52, 64
1, 9134, Note_on_c, 0, 54, 55
1, 9134, Note_on_c, 0, 23, 38
1, 9179, Note_off_c, 0, 54, 64
1, 9190, Note_off_c, 0, 23, 64
1, 9314, Note_on_c, 0, 50, 45
1, 9368, Note_off_c, 0, 50, 64
1, 9480, Note_on_c, 0, 30, 36
1, 9487, Note_on_c, 0, 54, 46
1, 9546, Note_off_c, 0, 30, 64
1, 9622, Note_off_c, 0, 54, 64
1, 9817, Note_on_c, 0, 23, 44
1, 9822, Note_on_c, 0, 53, 74
1, 9859, Note_off_c, 0, 53, 64
1, 9895, Note_off_c, 0, 23, 64
1, 9997, Note_on_c, 0, 49, 47
1, 10039, Note_off_c, 0, 49, 64
1, 10164, Note_on_c, 0, 30, 35
1, 10176, Note_on_c, 0, 53, 58
1, 10223, Note_off_c, 0, 30, 64
1, 10235, Note_off_c, 0, 53, 64
1, 10521, Note_on_c, 0, 23, 34
1, 10521, Note_on_c, 0, 52, 36
1, 10568, Note_off_c, 0, 52, 64
1, 10601, Note_off_c, 0, 23, 64
1, 10677, Note_on_c, 0, 48, 38
1, 10730, Note_off_c, 0, 48, 64
1, 10853, Note_on_c, 0, 30, 26
1, 10864, Note_on_c, 0, 52, 48
1, 10920, Note_off_c, 0, 52, 64
1, 10939, Note_off_c, 0, 30, 64
1, 11189, Note_on_c, 0, 47, 42
1, 11189, Note_on_c, 0, 23, 46
1, 11242, Note_off_c, 0, 47, 64
1, 11248, Note_off_c, 0, 23, 64
1, 11359, Note_on_c, 0, 49, 56
1, 11401, Note_off_c, 0, 49, 64
1, 11530, Note_on_c, 0, 30, 44
1, 11530, Note_on_c, 0, 50, 60
1, 11577, Note_off_c, 0, 50, 64
1, 11588, Note_off_c, 0, 30, 64
1, 11696, Note_on_c, 0, 52, 61
1, 11739, Note_off_c, 0, 52, 64
1, 11864, Note_on_c, 0, 54, 53
1, 11884, Note_on_c, 0, 23, 36
1, 11919, Note_off_c, 0, 54, 64
1, 11933, Note_off_c, 0, 23, 64
1, 12033, Note_on_c, 0, 50, 57
1, 12082, Note_off_c, 0, 50, 64
1, 12196, Note_on_c, 0, 54, 62
1, 12207, Note_on_c, 0, 30, 33
1, 12246, Note_off_c, 0, 54, 64
1, 12262, Note_off_c, 0, 30, 64
1, 12365, Note_on_c, 0, 59, 55
1, 12407, Note_off_c, 0, 59, 64
1, 12530, Note_on_c, 0, 57, 50
1, 12543, Note_on_c, 0, 26, 31
1, 12593, Note_off_c, 0, 57, 64
1, 12596, Note_off_c, 0, 26, 64
1, 12677, Note_on_c, 0, 54, 70
1, 12722, Note_off_c, 0, 54, 64
1, 12845, Note_on_c, 0, 33, 46
1, 12850, Note_on_c, 0, 50, 64
1, 12901, Note_off_c, 0, 33, 64
1, 12901, Note_off_c, 0, 50, 64
1, 13017, Note_on_c, 0, 54, 50
1, 13061, Note_off_c, 0, 54, 64
1, 13199, Note_on_c, 0, 57, 57
1, 13204, Note_on_c, 0, 45, 43
1, 13220, Note_on_c, 0, 26, 31
1, 13316, Note_off_c, 0, 26, 64
1, 13558, Note_on_c, 0, 33, 20
1, 13571, Control_c, 0, 64, 127
1, 13575, Note_off_c, 0, 45, 64
1, 13603, Note_off_c, 0, 57, 64
1, 13622, Note_off_c, 0, 33, 64
1, 13906, Note_on_c, 0, 42, 43
1, 13909, Note_on_c, 0, 30, 26
1, 13967, Note_off_c, 0, 42, 64
1, 13976, Note_off_c, 0, 30, 64
1, 13990, Control_c, 0, 64, 0
1, 14070, Note_on_c, 0, 44, 51
1, 14117, Note_off_c, 0, 44, 64
1, 14251, Note_on_c, 0, 37, 31
1, 14256, Note_on_c, 0, 46, 30
1, 14309, Note_off_c, 0, 37, 64
1, 14309, Note_off_c, 0, 46, 64
1, 14437, Note_on_c, 0, 47, 36
1, 14485, Note_off_c, 0, 47, 64
1, 14611, Note_on_c, 0, 49, 42
1, 14619, Note_on_c, 0, 30, 32
1, 14660, Note_off_c, 0, 49, 64
1, 14697, Note_off_c, 0, 30, 64
1, 14786, Note_on_c, 0, 46, 32
1, 14844, Note_off_c, 0, 46, 64
1, 14964, Note_on_c, 0, 49, 39
1, 14979, Note_on_c, 0, 37, 22
1, 15047, Note_off_c, 0, 37, 64
1, 15093, Note_off_c, 0, 49, 64
1, 15315, Note_on_c, 0, 50, 56
1, 15326, Note_on_c, 0, 26, 34
1, 15358, Note_off_c, 0, 50, 64
1, 15379, Note_off_c, 0, 26, 64
1, 15485, Note_on_c, 0, 46, 46
1, 15533, Note_off_c, 0, 46, 64
1, 15656, Note_on_c, 0, 34, 32
1, 15663, Note_on_c, 0, 50, 39
1, 15709, Note_off_c, 0, 34, 64
1, 15836, Note_off_c, 0, 50, 64
1, 15987, Note_on_c, 0, 30, 29
1, 15987, Note_on_c, 0, 49, 44
1, 16039, Note_off_c, 0, 49, 64
1, 16064, Note_off_c, 0, 30, 64
1, 16159, Note_on_c, 0, 46, 37
1, 16213, Note_off_c, 0, 46, 64
1, 16348, Note_on_c, 0, 49, 37
1, 16358, Note_on_c, 0, 37, 19
1, 16427, Note_off_c, 0, 37, 64
1, 16502, Note_off_c, 0, 49, 64
1, 16685, Note_on_c, 0, 42, 52
1, 16691, Note_on_c, 0, 30, 26
1, 16736, Note_off_c, 0, 42, 64
1, 16750, Note_off_c, 0, 30, 64
1, 16845, Note_on_c, 0, 44, 52
1, 16895, Note_off_c, 0, 44, 64
1, 17012, Note_on_c, 0, 46, 47
1, 17023, Note_on_c, 0, 37, 34
1, 17068, Note_off_c, 0, 46, 64
1, 17074, Note_off_c, 0, 37, 64
1, 17185, Note_on_c, 0, 47, 56
1, 17226, Note_off_c, 0, 47, 64
1, 17349, Note_on_c, 0, 49, 61
1, 17358, Note_on_c, 0, 30, 38
1, 17424, Note_off_c, 0, 30, 64
1, 17424, Note_off_c, 0, 49, 64
1, 17511, Note_on_c, 0, 46, 47
1, 17560, Note_off_c, 0, 46, 64
1, 17678, Note_on_c, 0, 49, 55
1, 17684, Note_on_c, 0, 37, 37
1, 17756, Note_off_c, 0, 49, 64
1, 17786, Note_off_c, 0, 37, 64
1, 18003, Note_on_c, 0, 50, 66
1, 18021, Note_on_c, 0, 26, 27
1, 18046, Note_off_c, 0, 50, 64
1, 18124, Note_off_c, 0, 26, 64
1, 18165, Note_on_c, 0, 46, 46
1, 18223, Note_off_c, 0, 46, 64
1, 18338, Note_on_c, 0, 34, 38
1, 18343, Note_on_c, 0, 50, 51
1, 18396, Note_off_c, 0, 34, 64
1, 18415, Note_off_c, 0, 50, 64
1, 18661, Note_on_c, 0, 49, 54
1, 18678, Note_on_c, 0, 30, 34
1, 18786, Note_off_c, 0, 30, 64
1, 19031, Note_on_c, 0, 37, 36
1, 19106, Note_off_c, 0, 37, 64
1, 19227, Control_c, 0, 64, 127
1, 19237, Note_off_c, 0, 49, 64
1, 19324, Control_c, 0, 64, 0
1, 19358, Note_on_c, 0, 54, 58
1, 19370, Note_on_c, 0, 30, 34
1, 19402, Note_off_c, 0, 54, 64
1, 19439, Note_off_c, 0, 30, 64
1, 19517, Note_on_c, 0, 56, 47
1, 19566, Note_off_c, 0, 56, 64
1, 19691, Note_on_c, 0, 58, 33
1, 19705, Note_on_c, 0, 37, 29
1, 19745, Note_off_c, 0, 58, 64
1, 19755, Note_off_c, 0, 37, 64
1, 19861, Note_on_c, 0, 59, 47
1, 19903, Note_off_c, 0, 59, 64
1, 20023, Note_on_c, 0, 61, 62
1, 20029, Note_on_c, 0, 30, 34
1, 20070, Note_off_c, 0, 61, 64
1, 20098, Note_off_c, 0, 30, 64
1, 20190, Note_on_c, 0, 58, 34
1, 20238, Note_off_c, 0, 58, 64
1, 20358, Note_on_c, 0, 61, 52
1, 20365, Note_on_c, 0, 37, 36
1, 20408, Note_off_c, 0, 61, 64
1, 20419, Note_off_c, 0, 37, 64
1, 20698, Note_on_c, 0, 62, 59
1, 20716, Note_on_c, 0, 26, 36
1, 20737, Note_off_c, 0, 62, 64
1, 20789, Note_off_c, 0, 26, 64
1, 20857, Note_on_c, 0, 58, 36
1, 20915, Note_off_c, 0, 58, 64
1, 21043, Note_on_c, 0, 34, 27
1, 21043, Note_on_c, 0, 62, 39
1, 21127, Note_off_c, 0, 62, 64
1, 21171, Note_off_c, 0, 34, 64
1, 21368, Note_on_c, 0, 61, 52
1, 21386, Note_on_c, 0, 30, 24
1, 21413, Note_off_c, 0, 61, 64
1, 21483, Note_off_c, 0, 30, 64
1, 21528, Note_on_c, 0, 58, 48
1, 21591, Note_off_c, 0, 58, 64
1, 21712, Note_on_c, 0, 61, 50
1, 21720, Note_on_c, 0, 37, 28
1, 21781, Note_off_c, 0, 61, 64
1, 21800, Note_off_c, 0, 37, 64
1, 22031, Note_on_c, 0, 54, 46
1, 22045, Note_on_c, 0, 30, 31
1, 22077, Note_off_c, 0, 54, 64
1, 22102, Note_off_c, 0, 30, 64
1, 22187, Note_on_c, 0, 56, 52
1, 22233, Note_off_c, 0, 56, 64
1, 22352, Note_on_c, 0, 58, 38
1, 22360, Note_on_c, 0, 37, 35
1, 22403, Note_off_c, 0, 58, 64
1, 22416, Note_off_c, 0, 37, 64
1, 22520, Note_on_c, 0, 59, 50
1, 22559, Note_off_c, 0, 59, 64
1, 22676, Note_on_c, 0, 61, 70
1, 22687, Note_on_c, 0, 30, 38
1, 22745, Note_off_c, 0, 30, 64
1, 22745, Note_off_c, 0, 61, 64
1, 22840, Note_on_c, 0, 58, 41
1, 22887, Note_off_c, 0, 58, 64
1, 23012, Note_on_c, 0, 61, 56
1, 23024, Note_on_c, 0, 37, 27
1, 23060, Note_off_c, 0, 61, 64
1, 23134, Note_off_c, 0, 37, 64
1, 23327, Note_on_c, 0, 62, 70
1, 23346, Note_on_c, 0, 26, 38
1, 23369, Note_off_c, 0, 62, 64
1, 23408, Note_off_c, 0, 26, 64
1, 23486, Note_on_c, 0, 58, 52
1, 23547, Note_off_c, 0, 58, 64
1, 23664, Note_on_c, 0, 34, 36
1, 23664, Note_on_c, 0, 62, 60
1, 23726, Note_off_c, 0, 34, 64
1, 23765, Note_off_c, 0, 62, 64
1, 24010, Note_on_c, 0, 61, 62
1, 24010, Note_on_c, 0, 49, 55
1, 24023, Note_on_c, 0, 30, 32
1, 24085, Note_off_c, 0, 30, 64
1, 24357, Control_c, 0, 64, 127
1, 24363, Note_on_c, 0, 37, 35
1, 24391, Note_off_c, 0, 49, 64
1, 24402, Note_off_c, 0, 61, 64
1, 24424, Note_off_c, 0, 37, 64
1, 24728, Control_c, 0, 64, 0
1, 24743, Note_on_c, 0, 35, 72
1, 24748, Note_on_c, 0, 23, 46
1, 24795, Note_off_c, 0, 35, 64
1, 24795, Note_off_c, 0, 23, 64
1, 24909, Note_on_c, 0, 37, 54
1, 24960, Note_off_c, 0, 37, 64
1, 25091, Note_on_c, 0, 38, 57
1, 25101, Note_on_c, 0, 30, 43
1, 25140, Note_off_c, 0, 38, 64
1, 25147, Note_off_c, 0, 30, 64
1, 25272, Note_on_c, 0, 40, 74
1, 25310, Note_off_c, 0, 40, 64
1, 25438, Note_on_c, 0, 42, 69
1, 25452, Note_on_c, 0, 23, 45
1, 25500, Note_off_c, 0, 23, 64
1, 25517, Note_off_c, 0, 42, 64
1, 25614, Note_on_c, 0, 38, 59
1, 25656, Note_off_c, 0, 38, 64
1, 25790, Note_on_c, 0, 30, 36
1, 25790, Note_on_c, 0, 42, 50
1, 25845, Note_off_c, 0, 42, 64
1, 25857, Note_off_c, 0, 30, 64
1, 26130, Note_on_c, 0, 41, 67
1, 26143, Note_on_c, 0, 23, 35
1, 26199, Note_off_c, 0, 41, 64
1, 26199, Note_off_c, 0, 23, 64
1, 26291, Note_on_c, 0, 37, 61
1, 26339, Note_off_c, 0, 37, 64
1, 26470, Note_on_c, 0, 30, 36
1, 26480, Note_on_c, 0, 41, 58
1, 26536, Note_off_c, 0, 41, 64
1, 26547, Note_off_c, 0, 30, 64
1, 26821, Note_on_c, 0, 40, 67
1, 26832, Note_on_c, 0, 23, 39
1, 26862, Note_off_c, 0, 40, 64
1, 26892, Note_off_c, 0, 23, 64
1, 26995, Note_on_c, 0, 36, 49
1, 27040, Note_off_c, 0, 36, 64
1, 27174, Note_on_c, 0, 30, 33
1, 27174, Note_on_c, 0, 40, 59
1, 27241, Note_off_c, 0, 40, 64
1, 27241, Note_off_c, 0, 30, 64
1, 27517, Note_on_c, 0, 35, 64
1, 27526, Note_on_c, 0, 23, 37
1, 27556, Note_off_c, 0, 35, 64
1, 27576, Note_off_c, 0, 23, 64
1, 27676, Note_on_c, 0, 37, 62
1, 27737, Note_off_c, 0, 37, 64
1, 27848, Note_on_c, 0, 38, 63
1, 27848, Note_on_c, 0, 30, 34
1, 27902, Note_off_c, 0, 38, 64
1, 27902, Note_off_c, 0, 30, 64
1, 28027, Note_on_c, 0, 40, 78
1, 28068, Note_off_c, 0, 40, 64
1, 28189, Note_on_c, 0, 42, 58
1, 28200, Note_on_c, 0, 23, 41
1, 28243, Note_off_c, 0, 42, 64
1, 28250, Note_off_c, 0, 23, 64
1, 28350, Note_on_c, 0, 38, 65
1, 28405, Note_off_c, 0, 38, 64
1, 28512, Note_on_c, 0, 42, 62
1, 28512, Note_on_c, 0, 30, 43
1, 28569, Note_off_c, 0, 30, 64
1, 28579, Note_off_c, 0, 42, 64
1, 28675, Note_on_c, 0, 47, 70
1, 28742, Note_off_c, 0, 47, 64
1, 28840, Note_on_c, 0, 45, 61
1, 28851, Note_on_c, 0, 26, 39
1, 28901, Note_off_c, 0, 26, 64
1, 28904, Note_off_c, 0, 45, 64
1, 29004, Note_on_c, 0, 42, 52
1, 29046, Note_off_c, 0, 42, 64
1, 29164, Note_on_c, 0, 33, 44
1, 29177, Note_on_c, 0, 38, 36
1, 29216, Note_off_c, 0, 33, 64
1, 29224, Note_off_c, 0, 38, 64
1, 29330, Note_on_c, 0, 42, 54
1, 29377, Note_off_c, 0, 42, 64
1, 29511, Note_on_c, 0, 45, 65
1, 29533, Note_on_c, 0, 26, 27
1, 29606, Note_off_c, 0, 26, 64
1, 29846, Note_on_c, 0, 33, 37
1, 29916, Note_off_c, 0, 33, 64
1, 29916, Control_c, 0, 64, 127
1, 29932, Note_off_c, 0, 45, 64
1, 30217, Note_on_c, 0, 47, 57
1, 30228, Note_on_c, 0, 23, 42
1, 30242, Control_c, 0, 64, 0
1, 30267, Note_off_c, 0, 47, 64
1, 30313, Note_off_c, 0, 23, 64
1, 30389, Note_on_c, 0, 49, 47
1, 30437, Note_off_c, 0, 49, 64
1, 30561, Note_on_c, 0, 30, 37
1, 30561, Note_on_c, 0, 50, 53
1, 30609, Note_off_c, 0, 50, 64
1, 30618, Note_off_c, 0, 30, 64
1, 30739, Note_on_c, 0, 52, 54
1, 30779, Note_off_c, 0, 52, 64
1, 30904, Note_on_c, 0, 54, 62
1, 30915, Note_on_c, 0, 23, 45
1, 30949, Note_off_c, 0, 54, 64
1, 30973, Note_off_c, 0, 23, 64
1, 31068, Note_on_c, 0, 50, 64
1, 31108, Note_off_c, 0, 50, 64
1, 31261, Note_on_c, 0, 30, 37
1, 31261, Note_on_c, 0, 54, 61
1, 31331, Note_off_c, 0, 30, 64
1, 31377, Note_off_c, 0, 54, 64
1, 31607, Note_on_c, 0, 53, 76
1, 31618, Note_on_c, 0, 23, 33
1, 31645, Note_off_c, 0, 53, 64
1, 31670, Note_off_c, 0, 23, 64
1, 31779, Note_on_c, 0, 49, 40
1, 31831, Note_off_c, 0, 49, 64
1, 31946, Note_on_c, 0, 53, 59
1, 31951, Note_on_c, 0, 30, 32
1, 32012, Note_off_c, 0, 53, 64
1, 32018, Note_off_c, 0, 30, 64
1, 32306, Note_on_c, 0, 52, 53
1, 32316, Note_on_c, 0, 23, 37
1, 32347, Note_off_c, 0, 52, 64
1, 32370, Note_off_c, 0, 23, 64
1, 32469, Note_on_c, 0, 48, 43
1, 32514, Note_off_c, 0, 48, 64
1, 32646, Note_on_c, 0, 30, 30
1, 32657, Note_on_c, 0, 52, 48
1, 32717, Note_off_c, 0, 30, 64
1, 32723, Note_off_c, 0, 52, 64
1, 32982, Note_on_c, 0, 47, 44
1, 32982, Note_on_c, 0, 23, 42
1, 33029, Note_off_c, 0, 47, 64
1, 33029, Note_off_c, 0, 23, 64
1, 33144, Note_on_c, 0, 49, 54
1, 33183, Note_off_c, 0, 49, 64
1, 33313, Note_on_c, 0, 35, 49
1, 33316, Note_on_c, 0, 50, 53
1, 33364, Note_off_c, 0, 50, 64
1, 33383, Note_off_c, 0, 35, 64
1, 33486, Note_on_c, 0, 52, 43
1, 33528, Note_off_c, 0, 52, 64
1, 33634, Note_on_c, 0, 54, 60
1, 33654, Note_on_c, 0, 33, 42
1, 33684, Note_off_c, 0, 54, 64
1, 33704, Note_off_c, 0, 33, 64
1, 33802, Note_on_c, 0, 50, 62
1, 33851, Note_off_c, 0, 50, 64
1, 33961, Note_on_c, 0, 54, 65
1, 33966, Note_on_c, 0, 31, 51
1, 34016, Note_off_c, 0, 54, 64
1, 34016, Note_off_c, 0, 31, 64
1, 34132, Note_on_c, 0, 59, 62
1, 34172, Note_off_c, 0, 59, 64
1, 34284, Note_on_c, 0, 54, 65
1, 34289, Note_on_c, 0, 30, 58
1, 34341, Note_off_c, 0, 30, 64
1, 34341, Note_off_c, 0, 54, 64
1, 34440, Note_on_c, 0, 50, 78
1, 34489, Note_off_c, 0, 50, 64
1, 34604, Note_on_c, 0, 54, 74
1, 34610, Note_on_c, 0, 28, 51
1, 34649, Note_off_c, 0, 28, 64
1, 34656, Note_off_c, 0, 54, 64
1, 34756, Note_on_c, 0, 59, 78
1, 34785, Note_off_c, 0, 59, 64
1, 34958, Note_on_c, 0, 47, 76
1, 34961, Note_on_c, 0, 26, 53
1, 35008, Note_off_c, 0, 26, 64
1, 35283, Note_on_c, 0, 25, 52
1, 35339, Note_off_c, 0, 25, 64
1, 35409, Note_off_c, 0, 47, 64
1, 35653, Note_on_c, 0, 59, 49
1, 35670, Note_on_c, 0, 23, 52
1, 35698, Note_off_c, 0, 59, 64
1, 35704, Note_off_c, 0, 23, 64
1, 35720, Control_c, 0, 64, 127
1, 35837, Note_on_c, 0, 61, 36
1, 35887, Note_off_c, 0, 61, 64
1, 35985, Note_on_c, 0, 54, 60
1, 35985, Note_on_c, 0, 50, 51
1, 35994, Note_on_c, 0, 42, 61
1, 36004, Note_on_c, 0, 62, 42
1, 36047, Note_off_c, 0, 54, 64
1, 36052, Note_on_c, 0, 41, 55
1, 36052, Note_off_c, 0, 50, 64
1, 36055, Control_c, 0, 64, 0
1, 36064, Note_off_c, 0, 62, 64
1, 36077, Note_off_c, 0, 42, 64
1, 36094, Note_on_c, 0, 42, 53
1, 36113, Note_off_c, 0, 41, 64
1, 36136, Note_on_c, 0, 64, 62
1, 36139, Note_off_c, 0, 42, 64
1, 36180, Note_off_c, 0, 64, 64
1, 36317, Note_on_c, 0, 35, 58
1, 36320, Note_on_c, 0, 66, 41
1, 36356, Note_off_c, 0, 35, 64
1, 36369, Note_off_c, 0, 66, 64
1, 36414, Control_c, 0, 64, 127
1, 36486, Note_on_c, 0, 62, 39
1, 36531, Note_off_c, 0, 62, 64
1, 36545, Control_c, 0, 64, 0
1, 36631, Note_on_c, 0, 42, 58
1, 36638, Note_on_c, 0, 54, 57
1, 36638, Note_on_c, 0, 66, 50
1, 36638, Note_on_c, 0, 50, 47
1, 36668, Note_off_c, 0, 42, 64
1, 36702, Note_on_c, 0, 41, 55
1, 36763, Note_off_c, 0, 41, 64
1, 36776, Note_on_c, 0, 42, 62
1, 36788, Note_off_c, 0, 50, 64
1, 36812, Note_off_c, 0, 42, 64
1, 36860, Note_off_c, 0, 54, 64
1, 36954, Note_on_c, 0, 65, 70
1, 36971, Note_off_c, 0, 66, 64
1, 36975, Note_on_c, 0, 35, 71
1, 37000, Note_off_c, 0, 65, 64
1, 37039, Note_off_c, 0, 35, 64
1, 37111, Note_on_c, 0, 61, 66
1, 37158, Note_off_c, 0, 61, 64
1, 37261, Note_on_c, 0, 49, 50
1, 37266, Note_on_c, 0, 54, 55
1, 37269, Note_on_c, 0, 65, 60
1, 37269, Note_on_c, 0, 42, 48
1, 37308, Note_off_c, 0, 42, 64
1, 37328, Note_on_c, 0, 41, 61
1, 37337, Control_c, 0, 64, 127
1, 37389, Note_off_c, 0, 41, 64
1, 37425, Note_off_c, 0, 54, 64
1, 37425, Note_on_c, 0, 42, 53
1, 37434, Note_off_c, 0, 49, 64
1, 37461, Note_off_c, 0, 42, 64
1, 37471, Note_off_c, 0, 65, 64
1, 37517, Control_c, 0, 64, 0
1, 37590, Note_on_c, 0, 35, 70
1, 37594, Note_on_c, 0, 64, 66
1, 37623, Note_off_c, 0, 35, 64
1, 37629, Note_off_c, 0, 64, 64
1, 37673, Control_c, 0, 64, 127
1, 37745, Control_c, 0, 64, 0
1, 37751, Note_on_c, 0, 60, 51
1, 37794, Note_off_c, 0, 60, 64
1, 37908, Note_on_c, 0, 64, 65
1, 37911, Note_on_c, 0, 54, 44
1, 37911, Note_on_c, 0, 42, 51
1, 37916, Note_on_c, 0, 48, 38
1, 37975, Note_off_c, 0, 42, 64
1, 37982, Note_off_c, 0, 48, 64
1, 37989, Note_on_c, 0, 41, 51
1, 38041, Note_off_c, 0, 41, 64
1, 38058, Note_on_c, 0, 42, 53
1, 38097, Note_off_c, 0, 54, 64
1, 38097, Note_off_c, 0, 42, 64
1, 38170, Note_off_c, 0, 64, 64
1, 38236, Note_on_c, 0, 59, 64
1, 38242, Note_on_c, 0, 35, 74
1, 38281, Note_off_c, 0, 59, 64
1, 38326, Note_off_c, 0, 35, 64
1, 38393, Note_on_c, 0, 61, 56
1, 38436, Note_off_c, 0, 61, 64
1, 38537, Note_on_c, 0, 42, 54
1, 38537, Note_on_c, 0, 54, 60
1, 38551, Note_on_c, 0, 62, 54
1, 38556, Note_on_c, 0, 50, 41
1, 38578, Note_off_c, 0, 42, 64
1, 38599, Note_off_c, 0, 62, 64
1, 38607, Note_off_c, 0, 54, 64
1, 38620, Note_on_c, 0, 41, 58
1, 38690, Note_on_c, 0, 42, 68
1, 38699, Note_on_c, 0, 64, 67
1, 38702, Note_off_c, 0, 50, 64
1, 38712, Note_off_c, 0, 41, 64
1, 38737, Note_off_c, 0, 42, 64
1, 38752, Note_off_c, 0, 64, 64
1, 38855, Note_on_c, 0, 66, 68
1, 38858, Control_c, 0, 64, 127
1, 38872, Note_on_c, 0, 35, 68
1, 38910, Note_off_c, 0, 66, 64
1, 38915, Note_off_c, 0, 35, 64
1, 39002, Control_c, 0, 64, 0
1, 39014, Note_on_c, 0, 62, 78
1, 39058, Note_off_c, 0, 62, 64
1, 39153, Note_on_c, 0, 42, 64
1, 39158, Note_on_c, 0, 50, 64
1, 39158, Note_on_c, 0, 66, 53
1, 39194, Note_off_c, 0, 42, 64
1, 39209, Note_off_c, 0, 66, 64
1, 39226, Note_on_c, 0, 41, 71
1, 39278, Note_off_c, 0, 41, 64
1, 39303, Note_on_c, 0, 71, 91
1, 39309, Note_on_c, 0, 42, 71
1, 39328, Note_off_c, 0, 50, 64
1, 39361, Note_off_c, 0, 42, 64
1, 39386, Note_off_c, 0, 71, 64
1, 39456, Note_on_c, 0, 69, 70
1, 39464, Note_on_c, 0, 38, 79
1, 39510, Note_off_c, 0, 38, 64
1, 39518, Control_c, 0, 64, 127
1, 39553, Note_off_c, 0, 69, 64
1, 39577, Control_c, 0, 64, 0
1, 39609, Note_on_c, 0, 66, 66
1, 39679, Note_off_c, 0, 66, 64
1, 39748, Note_on_c, 0, 54, 65
1, 39757, Note_on_c, 0, 57, 55
1, 39763, Note_on_c, 0, 62, 67
1, 39777, Note_on_c, 0, 45, 37
1, 39801, Note_off_c, 0, 57, 64
1, 39804, Note_off_c, 0, 62, 64
1, 39813, Note_off_c, 0, 54, 64
1, 39829, Note_off_c, 0, 45, 64
1, 39833, Note_on_c, 0, 44, 60
1, 39886, Note_off_c, 0, 44, 64
1, 39894, Note_on_c, 0, 66, 72
1, 39910, Note_on_c, 0, 45, 38
1, 39975, Note_off_c, 0, 45, 64
1, 39983, Note_off_c, 0, 66, 64
1, 40077, Note_on_c, 0, 69, 76
1, 40099, Note_on_c, 0, 38, 44
1, 40161, Note_off_c, 0, 38, 64
1, 40189, Control_c, 0, 64, 127
1, 40382, Note_on_c, 0, 57, 45
1, 40385, Note_on_c, 0, 54, 61
1, 40389, Note_on_c, 0, 62, 51
1, 40414, Note_on_c, 0, 45, 43
1, 40429, Note_off_c, 0, 57, 64
1, 40429, Note_off_c, 0, 54, 64
1, 40439, Note_off_c, 0, 62, 64
1, 40460, Note_off_c, 0, 45, 64
1, 40473, Note_on_c, 0, 44, 52
1, 40503, Note_off_c, 0, 69, 64
1, 40523, Note_on_c, 0, 45, 44
1, 40540, Note_off_c, 0, 44, 64
1, 40573, Note_off_c, 0, 45, 64
1, 40705, Control_c, 0, 64, 0
1, 40716, Note_on_c, 0, 71, 86
1, 40730, Note_on_c, 0, 35, 76
1, 40762, Note_off_c, 0, 71, 64
1, 40811, Note_off_c, 0, 35, 64
1, 40863, Note_on_c, 0, 73, 66
1, 40925, Note_off_c, 0, 73, 64
1, 41013, Note_on_c, 0, 66, 48
1, 41016, Note_on_c, 0, 42, 48
1, 41016, Note_on_c, 0, 50, 51
1, 41021, Note_on_c, 0, 74, 69
1, 41061, Note_off_c, 0, 66, 64
1, 41061, Note_off_c, 0, 74, 64
1, 41064, Note_off_c, 0, 42, 64
1, 41081, Note_on_c, 0, 41, 62
1, 41094, Note_off_c, 0, 50, 64
1, 41134, Note_off_c, 0, 41, 64
1, 41161, Note_on_c, 0, 76, 74
1, 41166, Note_on_c, 0, 42, 63
1, 41219, Note_off_c, 0, 42, 64
1, 41250, Note_off_c, 0, 76, 64
1, 41267, Control_c, 0, 64, 127
1, 41323, Note_on_c, 0, 78, 79
1, 41332, Note_on_c, 0, 35, 79
1, 41340, Control_c, 0, 64, 0
1, 41410, Note_off_c, 0, 35, 64
1, 41413, Note_off_c, 0, 78, 64
1, 41484, Note_on_c, 0, 74, 78
1, 41513, Note_off_c, 0, 74, 64
1, 41627, Note_on_c, 0, 50, 55
1, 41634, Note_on_c, 0, 78, 88
1, 41637, Note_on_c, 0, 42, 45
1, 41651, Note_on_c, 0, 66, 44
1, 41682, Note_off_c, 0, 42, 64
1, 41696, Note_on_c, 0, 41, 67
1, 41733, Note_off_c, 0, 50, 64
1, 41757, Note_off_c, 0, 41, 64
1, 41796, Control_c, 0, 64, 127
1, 41796, Note_on_c, 0, 42, 50
1, 41875, Note_off_c, 0, 78, 64
1, 41886, Note_off_c, 0, 42, 64
1, 41903, Control_c, 0, 64, 0
1, 41942, Note_off_c, 0, 66, 64
1, 41950, Note_on_c, 0, 77, 81
1, 41964, Note_on_c, 0, 35, 71
1, 42010, Note_off_c, 0, 35, 64
1, 42030, Note_off_c, 0, 77, 64
1, 42059, Control_c, 0, 64, 127
1, 42095, Control_c, 0, 64, 0
1, 42120, Note_on_c, 0, 73, 58
1, 42159, Note_off_c, 0, 73, 64
1, 42264, Note_on_c, 0, 49, 42
1, 42264, Note_on_c, 0, 66, 52
1, 42275, Note_on_c, 0, 77, 55
1, 42275, Note_on_c, 0, 42, 35
1, 42318, Note_off_c, 0, 42, 64
1, 42334, Note_on_c, 0, 41, 49
1, 42395, Note_off_c, 0, 49, 64
1, 42395, Note_off_c, 0, 41, 64
1, 42417, Note_on_c, 0, 42, 52
1, 42463, Note_off_c, 0, 42, 64
1, 42576, Note_off_c, 0, 66, 64
1, 42582, Note_on_c, 0, 35, 57
1, 42590, Note_off_c, 0, 77, 64
1, 42595, Note_on_c, 0, 76, 52
1, 42626, Note_off_c, 0, 35, 64
1, 42637, Note_off_c, 0, 76, 64
1, 42747, Note_on_c, 0, 72, 49
1, 42790, Note_off_c, 0, 72, 64
1, 42891, Note_on_c, 0, 76, 57
1, 42900, Note_on_c, 0, 48, 30
1, 42905, Note_on_c, 0, 66, 30
1, 42908, Note_on_c, 0, 42, 25
1, 42952, Note_on_c, 0, 41, 53
1, 42956, Note_off_c, 0, 42, 64
1, 43010, Note_off_c, 0, 41, 64
1, 43034, Note_on_c, 0, 42, 34
1, 43067, Note_off_c, 0, 48, 64
1, 43083, Note_off_c, 0, 66, 64
1, 43165, Note_off_c, 0, 42, 64
1, 43212, Note_on_c, 0, 35, 66
1, 43219, Note_on_c, 0, 71, 66
1, 43233, Note_off_c, 0, 76, 64
1, 43261, Note_off_c, 0, 35, 64
1, 43267, Note_off_c, 0, 71, 64
1, 43368, Note_on_c, 0, 73, 59
1, 43421, Note_off_c, 0, 73, 64
1, 43515, Note_on_c, 0, 50, 48
1, 43515, Note_on_c, 0, 42, 46
1, 43521, Control_c, 0, 64, 127
1, 43521, Note_on_c, 0, 66, 48
1, 43529, Note_on_c, 0, 74, 66
1, 43566, Note_off_c, 0, 42, 64
1, 43579, Note_off_c, 0, 74, 64
1, 43579, Control_c, 0, 64, 0
1, 43584, Note_on_c, 0, 41, 61
1, 43598, Note_off_c, 0, 66, 64
1, 43648, Note_off_c, 0, 41, 64
1, 43671, Note_on_c, 0, 76, 72
1, 43671, Note_on_c, 0, 42, 59
1, 43671, Note_off_c, 0, 50, 64
1, 43730, Note_off_c, 0, 42, 64
1, 43743, Note_off_c, 0, 76, 64
1, 43825, Note_on_c, 0, 78, 75
1, 43832, Note_on_c, 0, 35, 74
1, 43867, Note_off_c, 0, 35, 64
1, 43924, Note_off_c, 0, 78, 64
1, 43983, Note_on_c, 0, 74, 74
1, 44048, Note_off_c, 0, 74, 64
1, 44114, Note_on_c, 0, 50, 57
1, 44119, Note_on_c, 0, 42, 60
1, 44130, Note_on_c, 0, 78, 78
1, 44180, Note_on_c, 0, 41, 75
1, 44184, Note_off_c, 0, 42, 64
1, 44209, Note_off_c, 0, 78, 64
1, 44225, Note_off_c, 0, 41, 64
1, 44264, Control_c, 0, 64, 127
1, 44268, Note_on_c, 0, 42, 66
1, 44272, Note_on_c, 0, 83, 105
1, 44325, Control_c, 0, 64, 0
1, 44331, Note_off_c, 0, 50, 64
1, 44345, Note_off_c, 0, 42, 64
1, 44350, Note_off_c, 0, 83, 64
1, 44434, Note_on_c, 0, 81, 88
1, 44434, Note_on_c, 0, 38, 86
1, 44456, Control_c, 0, 64, 127
1, 44498, Note_off_c, 0, 38, 64
1, 44527, Note_off_c, 0, 81, 64
1, 44582, Note_on_c, 0, 78, 76
1, 44588, Control_c, 0, 64, 0
1, 44638, Note_off_c, 0, 78, 64
1, 44719, Note_on_c, 0, 54, 69
1, 44732, Note_on_c, 0, 69, 40
1, 44732, Note_on_c, 0, 74, 64
1, 44743, Note_on_c, 0, 45, 51
1, 44774, Note_off_c, 0, 74, 64
1, 44788, Note_off_c, 0, 45, 64
1, 44799, Note_off_c, 0, 54, 64
1, 44799, Note_on_c, 0, 44, 59
1, 44803, Note_off_c, 0, 69, 64
1, 44867, Note_on_c, 0, 78, 81
1, 44877, Note_off_c, 0, 44, 64
1, 44877, Note_on_c, 0, 45, 47
1, 44952, Note_off_c, 0, 45, 64
1, 44952, Note_off_c, 0, 78, 64
1, 45039, Note_on_c, 0, 81, 94
1, 45055, Note_on_c, 0, 38, 56
1, 45103, Note_off_c, 0, 38, 64
1, 45114, Control_c, 0, 64, 127
1, 45259, Note_off_c, 0, 81, 64
1, 45335, Note_on_c, 0, 54, 62
1, 45345, Note_on_c, 0, 69, 46
1, 45351, Note_on_c, 0, 74, 60
1, 45364, Note_on_c, 0, 45, 52
1, 45382, Note_off_c, 0, 74, 64
1, 45385, Note_off_c, 0, 54, 64
1, 45393, Note_off_c, 0, 69, 64
1, 45418, Note_off_c, 0, 45, 64
1, 45435, Note_on_c, 0, 44, 60
1, 45495, Note_on_c, 0, 45, 40
1, 45530, Note_off_c, 0, 44, 64
1, 45540, Note_off_c, 0, 45, 64
1, 45607, Control_c, 0, 64, 0
1, 45665, Note_on_c, 0, 66, 49
1, 45672, Note_on_c, 0, 42, 57
1, 45732, Note_off_c, 0, 66, 64
1, 45755, Note_off_c, 0, 42, 64
1, 45822, Note_on_c, 0, 68, 52
1, 45872, Note_off_c, 0, 68, 64
1, 45959, Note_on_c, 0, 58, 39
1, 45967, Note_on_c, 0, 49, 42
1, 45970, Note_on_c, 0, 70, 46
1, 45977, Note_on_c, 0, 66, 28
1, 46012, Note_off_c, 0, 49, 64
1, 46023, Note_off_c, 0, 70, 64
1, 46031, Note_off_c, 0, 66, 64
1, 46037, Note_on_c, 0, 48, 35
1, 46099, Note_off_c, 0, 48, 64
1, 46099, Note_on_c, 0, 49, 41
1, 46112, Note_on_c, 0, 71, 59
1, 46139, Note_off_c, 0, 58, 64
1, 46162, Note_off_c, 0, 71, 64
1, 46170, Note_off_c, 0, 49, 64
1, 46275, Note_on_c, 0, 42, 56
1, 46278, Note_on_c, 0, 73, 55
1, 46315, Note_off_c, 0, 42, 64
1, 46345, Note_off_c, 0, 73, 64
1, 46431, Note_on_c, 0, 70, 52
1, 46477, Note_off_c, 0, 70, 64
1, 46582, Note_on_c, 0, 58, 41
1, 46582, Note_on_c, 0, 73, 53
1, 46587, Note_on_c, 0, 49, 46
1, 46594, Note_on_c, 0, 66, 28
1, 46605, Note_on_c, 0, 70, 31
1, 46633, Note_off_c, 0, 49, 64
1, 46668, Note_off_c, 0, 66, 64
1, 46668, Note_off_c, 0, 70, 64
1, 46668, Note_on_c, 0, 48, 29
1, 46752, Note_off_c, 0, 58, 64
1, 46757, Note_off_c, 0, 48, 64
1, 46761, Note_on_c, 0, 49, 29
1, 46794, Note_off_c, 0, 73, 64
1, 46817, Note_off_c, 0, 49, 64
1, 46913, Note_on_c, 0, 74, 59
1, 46920, Note_on_c, 0, 38, 58
1, 46956, Note_off_c, 0, 74, 64
1, 46963, Note_off_c, 0, 38, 64
1, 47062, Note_on_c, 0, 70, 47
1, 47119, Note_off_c, 0, 70, 64
1, 47215, Note_on_c, 0, 58, 43
1, 47232, Note_on_c, 0, 74, 57
1, 47237, Note_on_c, 0, 62, 33
1, 47248, Note_on_c, 0, 66, 23
1, 47248, Note_on_c, 0, 50, 35
1, 47285, Note_on_c, 0, 49, 50
1, 47299, Note_off_c, 0, 50, 64
1, 47339, Note_off_c, 0, 49, 64
1, 47345, Note_off_c, 0, 58, 64
1, 47371, Note_on_c, 0, 50, 38
1, 47435, Note_off_c, 0, 50, 64
1, 47438, Note_off_c, 0, 74, 64
1, 47438, Note_off_c, 0, 62, 64
1, 47466, Note_off_c, 0, 66, 64
1, 47540, Note_on_c, 0, 42, 55
1, 47543, Note_on_c, 0, 73, 49
1, 47587, Note_off_c, 0, 42, 64
1, 47590, Note_off_c, 0, 73, 64
1, 47691, Note_on_c, 0, 70, 49
1, 47738, Note_off_c, 0, 70, 64
1, 47853, Note_on_c, 0, 58, 36
1, 47853, Note_on_c, 0, 70, 40
1, 47856, Note_on_c, 0, 73, 56
1, 47856, Note_on_c, 0, 49, 39
1, 47863, Note_on_c, 0, 66, 33
1, 47903, Note_off_c, 0, 49, 64
1, 47919, Note_on_c, 0, 48, 48
1, 47967, Control_c, 0, 64, 127
1, 48001, Note_off_c, 0, 48, 64
1, 48006, Note_on_c, 0, 49, 48
1, 48020, Note_off_c, 0, 58, 64
1, 48047, Note_off_c, 0, 49, 64
1, 48055, Note_off_c, 0, 70, 64
1, 48075, Note_off_c, 0, 66, 64
1, 48109, Note_off_c, 0, 73, 64
1, 48172, Control_c, 0, 64, 0
1, 48179, Note_on_c, 0, 42, 58
1, 48183, Note_on_c, 0, 66, 54
1, 48234, Note_off_c, 0, 66, 64
1, 48267, Control_c, 0, 64, 127
1, 48267, Note_off_c, 0, 42, 64
1, 48335, Note_on_c, 0, 68, 58
1, 48376, Note_off_c, 0, 68, 64
1, 48399, Control_c, 0, 64, 0
1, 48469, Note_on_c, 0, 58, 47
1, 48479, Note_on_c, 0, 70, 55
1, 48479, Note_on_c, 0, 49, 47
1, 48484, Note_on_c, 0, 66, 44
1, 48494, Control_c, 0, 64, 127
1, 48521, Note_off_c, 0, 49, 64
1, 48529, Note_off_c, 0, 70, 64
1, 48529, Control_c, 0, 64, 0
1, 48537, Note_off_c, 0, 66, 64
1, 48543, Note_on_c, 0, 48, 46
1, 48608, Note_off_c, 0, 48, 64
1, 48616, Note_on_c, 0, 49, 52
1, 48624, Note_on_c, 0, 71, 79
1, 48638, Control_c, 0, 64, 127
1, 48664, Note_off_c, 0, 49, 64
1, 48664, Note_off_c, 0, 58, 64
1, 48677, Note_off_c, 0, 71, 64
1, 48735, Control_c, 0, 64, 0
1, 48783, Note_on_c, 0, 73, 69
1, 48799, Note_on_c, 0, 42, 66
1, 48842, Control_c, 0, 64, 127
1, 48849, Note_off_c, 0, 42, 64
1, 48874, Note_off_c, 0, 73, 64
1, 48939, Note_on_c, 0, 70, 61
1, 48962, Control_c, 0, 64, 0
1, 48983, Note_off_c, 0, 70, 64
1, 49084, Note_on_c, 0, 73, 72
1, 49087, Note_on_c, 0, 58, 44
1, 49087, Note_on_c, 0, 49, 58
1, 49090, Note_on_c, 0, 66, 56
1, 49094, Control_c, 0, 64, 127
1, 49094, Note_on_c, 0, 70, 47
1, 49131, Note_off_c, 0, 49, 64
1, 49154, Control_c, 0, 64, 0
1, 49161, Note_off_c, 0, 70, 64
1, 49168, Note_on_c, 0, 48, 42
1, 49196, Note_off_c, 0, 58, 64
1, 49206, Note_off_c, 0, 66, 64
1, 49240, Note_off_c, 0, 73, 64
1, 49249, Note_on_c, 0, 49, 72
1, 49262, Control_c, 0, 64, 127
1, 49268, Note_off_c, 0, 48, 64
1, 49284, Note_off_c, 0, 49, 64
1, 49334, Control_c, 0, 64, 0
1, 49402, Note_on_c, 0, 74, 87
1, 49423, Note_on_c, 0, 38, 38
1, 49465, Control_c, 0, 64, 127
1, 49471, Note_off_c, 0, 38, 64
1, 49474, Note_off_c, 0, 74, 64
1, 49541, Note_on_c, 0, 70, 64
1, 49562, Control_c, 0, 64, 0
1, 49594, Note_off_c, 0, 70, 64
1, 49633, Control_c, 0, 64, 127
1, 49669, Control_c, 0, 64, 0
1, 49691, Note_on_c, 0, 58, 52
1, 49699, Note_on_c, 0, 74, 90
1, 49708, Note_on_c, 0, 66, 51
1, 49708, Note_on_c, 0, 70, 47
1, 49713, Note_on_c, 0, 50, 62
1, 49752, Note_off_c, 0, 50, 64
1, 49752, Note_on_c, 0, 49, 65
1, 49761, Note_off_c, 0, 70, 64
1, 49789, Note_off_c, 0, 58, 64
1, 49849, Control_c, 0, 64, 127
1, 49849, Note_on_c, 0, 50, 58
1, 49856, Note_off_c, 0, 49, 64
1, 49883, Note_off_c, 0, 66, 64
1, 49895, Note_off_c, 0, 50, 64
1, 49933, Note_off_c, 0, 74, 64
1, 49969, Control_c, 0, 64, 0
1, 50019, Note_on_c, 0, 42, 70
1, 50023, Note_on_c, 0, 73, 83
1, 50086, Note_off_c, 0, 42, 64
1, 50101, Control_c, 0, 64, 127
1, 50304, Note_on_c, 0, 49, 61
1, 50304, Control_c, 0, 64, 0
1, 50304, Note_on_c, 0, 58, 39
1, 50324, Note_on_c, 0, 70, 48
1, 50331, Note_on_c, 0, 66, 37
1, 50341, Note_off_c, 0, 49, 64
1, 50370, Note_on_c, 0, 48, 59
1, 50398, Note_off_c, 0, 70, 64
1, 50398, Note_off_c, 0, 66, 64
1, 50412, Control_c, 0, 64, 127
1, 50426, Note_off_c, 0, 58, 64
1, 50434, Note_off_c, 0, 73, 64
1, 50462, Note_on_c, 0, 49, 55
1, 50476, Note_off_c, 0, 48, 64
1, 50499, Note_off_c, 0, 49, 64
1, 50544, Control_c, 0, 64, 0
1, 50619, Note_on_c, 0, 42, 68
1, 50624, Note_on_c, 0, 78, 69
1, 50664, Note_off_c, 0, 78, 64
1, 50669, Note_off_c, 0, 42, 64
1, 50675, Control_c, 0, 64, 127
1, 50747, Control_c, 0, 64, 0
1, 50772, Note_on_c, 0, 80, 67
1, 50813, Note_off_c, 0, 80, 64
1, 50911, Note_on_c, 0, 58, 43
1, 50916, Note_on_c, 0, 49, 54
1, 50919, Note_on_c, 0, 78, 58
1, 50919, Note_on_c, 0, 82, 67
1, 50956, Note_off_c, 0, 49, 64
1, 50956, Note_off_c, 0, 78, 64
1, 50964, Note_off_c, 0, 82, 64
1, 50984, Note_on_c, 0, 48, 42
1, 51067, Note_on_c, 0, 83, 106
1, 51067, Note_off_c, 0, 48, 64
1, 51072, Note_on_c, 0, 49, 65
1, 51072, Note_off_c, 0, 58, 64
1, 51106, Note_off_c, 0, 49, 64
1, 51132, Note_off_c, 0, 83, 64
1, 51221, Note_on_c, 0, 85, 91
1, 51224, Note_on_c, 0, 42, 70
1, 51228, Control_c, 0, 64, 127
1, 51270, Note_off_c, 0, 42, 64
1, 51301, Note_off_c, 0, 85, 64
1, 51373, Note_on_c, 0, 82, 71
1, 51413, Note_off_c, 0, 82, 64
1, 51419, Control_c, 0, 64, 0
1, 51521, Note_on_c, 0, 85, 91
1, 51521, Note_on_c, 0, 49, 70
1, 51529, Note_on_c, 0, 78, 74
1, 51529, Note_on_c, 0, 58, 42
1, 51535, Note_on_c, 0, 82, 56
1, 51582, Note_off_c, 0, 82, 64
1, 51586, Control_c, 0, 64, 127
1, 51602, Note_on_c, 0, 48, 47
1, 51608, Note_off_c, 0, 49, 64
1, 51622, Control_c, 0, 64, 0
1, 51633, Note_off_c, 0, 58, 64
1, 51680, Note_on_c, 0, 49, 75
1, 51691, Note_off_c, 0, 48, 64
1, 51717, Note_off_c, 0, 49, 64
1, 51742, Control_c, 0, 64, 127
1, 51742, Note_off_c, 0, 78, 64
1, 51791, Note_off_c, 0, 85, 64
1, 51791, Control_c, 0, 64, 0
1, 51833, Note_on_c, 0, 86, 94
1, 51847, Note_on_c, 0, 38, 89
1, 51872, Note_off_c, 0, 38, 64
1, 51934, Control_c, 0, 64, 127
1, 51939, Note_off_c, 0, 86, 64
1, 51958, Control_c, 0, 64, 0
1, 51989, Note_on_c, 0, 82, 76
1, 52076, Note_off_c, 0, 82, 64
1, 52131, Note_on_c, 0, 82, 70
1, 52136, Note_on_c, 0, 50, 83
1, 52136, Note_on_c, 0, 86, 97
1, 52136, Note_on_c, 0, 58, 48
1, 52136, Note_on_c, 0, 78, 77
1, 52193, Note_off_c, 0, 50, 64
1, 52209, Note_on_c, 0, 49, 72
1, 52229, Note_off_c, 0, 82, 64
1, 52282, Control_c, 0, 64, 127
1, 52293, Note_on_c, 0, 50, 77
1, 52299, Note_off_c, 0, 58, 64
1, 52299, Note_off_c, 0, 78, 64
1, 52318, Note_off_c, 0, 49, 64
1, 52343, Note_off_c, 0, 50, 64
1, 52351, Note_off_c, 0, 86, 64
1, 52377, Control_c, 0, 64, 0
1, 52440, Note_on_c, 0, 42, 90
1, 52451, Note_on_c, 0, 85, 91
1, 52510, Control_c, 0, 64, 127
1, 52516, Note_off_c, 0, 42, 64
1, 52533, Note_off_c, 0, 85, 64
1, 52594, Control_c, 0, 64, 0
1, 52605, Note_on_c, 0, 82, 80
1, 52689, Note_off_c, 0, 82, 64
1, 52745, Note_on_c, 0, 49, 77
1, 52745, Note_on_c, 0, 85, 93
1, 52748, Note_on_c, 0, 58, 57
1, 52755, Note_on_c, 0, 78, 79
1, 52755, Note_on_c, 0, 82, 49
1, 52784, Control_c, 0, 64, 127
1, 52789, Note_off_c, 0, 49, 64
1, 52809, Control_c, 0, 64, 0
1, 52814, Note_on_c, 0, 48, 56
1, 52838, Note_off_c, 0, 58, 64
1, 52898, Note_on_c, 0, 49, 76
1, 52903, Note_off_c, 0, 82, 64
1, 52923, Note_off_c, 0, 48, 64
1, 52940, Note_off_c, 0, 78, 64
1, 52940, Note_off_c, 0, 49, 64
1, 52953, Control_c, 0, 64, 127
1, 52989, Control_c, 0, 64, 0
1, 53012, Note_off_c, 0, 85, 64
1, 53048, Note_on_c, 0, 78, 89
1, 53051, Note_on_c, 0, 42, 80
1, 53101, Note_off_c, 0, 42, 64
1, 53125, Note_off_c, 0, 78, 64
1, 53132, Control_c, 0, 64, 127
1, 53157, Control_c, 0, 64, 0
1, 53206, Note_on_c, 0, 80, 86
1, 53279, Note_off_c, 0, 80, 64
1, 53334, Note_on_c, 0, 58, 53
1, 53340, Note_on_c, 0, 49, 66
1, 53346, Note_on_c, 0, 82, 76
1, 53346, Note_on_c, 0, 78, 80
1, 53385, Note_off_c, 0, 78, 64
1, 53390, Note_off_c, 0, 49, 64
1, 53404, Note_on_c, 0, 48, 58
1, 53416, Note_off_c, 0, 82, 64
1, 53483, Note_on_c, 0, 83, 113
1, 53483, Note_on_c, 0, 49, 80
1, 53486, Note_off_c, 0, 58, 64
1, 53493, Control_c, 0, 64, 127
1, 53508, Note_off_c, 0, 48, 64
1, 53538, Note_off_c, 0, 49, 64
1, 53538, Control_c, 0, 64, 0
1, 53552, Note_off_c, 0, 83, 64
1, 53636, Note_on_c, 0, 42, 83
1, 53636, Note_on_c, 0, 85, 95
1, 53683, Control_c, 0, 64, 127
1, 53687, Note_off_c, 0, 42, 64
1, 53719, Control_c, 0, 64, 0
1, 53741, Note_off_c, 0, 85, 64
1, 53781, Note_on_c, 0, 82, 84
1, 53864, Control_c, 0, 64, 127
1, 53872, Note_off_c, 0, 82, 64
1, 53912, Control_c, 0, 64, 0
1, 53926, Note_on_c, 0, 85, 99
1, 53933, Note_on_c, 0, 58, 61
1, 53933, Note_on_c, 0, 82, 56
1, 53933, Note_on_c, 0, 78, 88
1, 53937, Note_on_c, 0, 49, 78
1, 53990, Note_off_c, 0, 58, 64
1, 54022, Note_on_c, 0, 48, 58
1, 54056, Control_c, 0, 64, 127
1, 54068, Note_off_c, 0, 49, 64
1, 54073, Note_off_c, 0, 82, 64
1, 54090, Note_on_c, 0, 49, 38
1, 54120, Note_off_c, 0, 48, 64
1, 54140, Control_c, 0, 64, 0
1, 54159, Note_off_c, 0, 49, 64
1, 54159, Note_off_c, 0, 78, 64
1, 54165, Note_off_c, 0, 85, 64
1, 54224, Note_on_c, 0, 86, 101
1, 54234, Note_on_c, 0, 38, 83
1, 54262, Note_off_c, 0, 38, 64
1, 54284, Control_c, 0, 64, 127
1, 54335, Note_off_c, 0, 86, 64
1, 54355, Control_c, 0, 64, 0
1, 54373, Note_on_c, 0, 82, 83
1, 54454, Note_off_c, 0, 82, 64
1, 54510, Note_on_c, 0, 86, 105
1, 54514, Note_on_c, 0, 58, 60
1, 54518, Note_on_c, 0, 78, 90
1, 54518, Note_on_c, 0, 82, 51
1, 54525, Note_on_c, 0, 50, 67
1, 54552, Note_on_c, 0, 49, 78
1, 54563, Note_off_c, 0, 50, 64
1, 54614, Note_off_c, 0, 58, 64
1, 54649, Note_off_c, 0, 78, 64
1, 54649, Note_on_c, 0, 50, 59
1, 54653, Note_off_c, 0, 82, 64
1, 54678, Control_c, 0, 64, 127
1, 54694, Note_off_c, 0, 49, 64
1, 54720, Note_off_c, 0, 50, 64
1, 54739, Control_c, 0, 64, 0
1, 54742, Note_off_c, 0, 86, 64
1, 54820, Note_on_c, 0, 42, 86
1, 54820, Note_on_c, 0, 85, 102
1, 54875, Note_off_c, 0, 42, 64
1, 54895, Control_c, 0, 64, 127
1, 55109, Note_on_c, 0, 49, 59
1, 55109, Note_on_c, 0, 58, 50
1, 55118, Note_on_c, 0, 78, 79
1, 55118, Note_on_c, 0, 82, 75
1, 55128, Note_off_c, 0, 85, 64
1, 55148, Note_off_c, 0, 82, 64
1, 55154, Note_off_c, 0, 78, 64
1, 55176, Note_on_c, 0, 48, 54
1, 55195, Note_off_c, 0, 58, 64
1, 55195, Note_off_c, 0, 49, 64
1, 55241, Note_on_c, 0, 49, 77
1, 55260, Note_off_c, 0, 48, 64
1, 55270, Note_off_c, 0, 49, 64
1, 55410, Control_c, 0, 64, 0
1, 55502, Note_on_c, 0, 35, 46
1, 55513, Note_on_c, 0, 59, 50
1, 55602, Control_c, 0, 64, 127
1, 55617, Note_off_c, 0, 35, 64
1, 55631, Note_off_c, 0, 59, 64
1, 55636, Note_on_c, 0, 41, 36
1, 55677, Note_on_c, 0, 61, 56
1, 55692, Note_off_c, 0, 41, 64
1, 55711, Note_on_c, 0, 42, 45
1, 55719, Note_off_c, 0, 61, 64
1, 55770, Note_off_c, 0, 42, 64
1, 55826, Note_on_c, 0, 50, 58
1, 55826, Note_on_c, 0, 54, 51
1, 55834, Note_on_c, 0, 62, 62
1, 55886, Note_off_c, 0, 54, 64
1, 55890, Note_off_c, 0, 62, 64
1, 55917, Note_on_c, 0, 41, 56
1, 55926, Note_off_c, 0, 50, 64
1, 55984, Note_on_c, 0, 64, 86
1, 56004, Note_on_c, 0, 42, 64
1, 56018, Note_off_c, 0, 41, 64
1, 56040, Note_off_c, 0, 64, 64
1, 56092, Note_off_c, 0, 42, 64
1, 56142, Control_c, 0, 64, 0
1, 56149, Note_on_c, 0, 66, 67
1, 56149, Note_on_c, 0, 35, 75
1, 56245, Note_on_c, 0, 41, 59
1, 56271, Note_off_c, 0, 66, 64
1, 56275, Note_off_c, 0, 35, 64
1, 56298, Control_c, 0, 64, 127
1, 56319, Note_on_c, 0, 62, 76
1, 56354, Note_on_c, 0, 42, 62
1, 56368, Note_off_c, 0, 41, 64
1, 56372, Note_off_c, 0, 62, 64
1, 56435, Note_off_c, 0, 42, 64
1, 56485, Note_on_c, 0, 50, 55
1, 56493, Note_on_c, 0, 66, 72
1, 56514, Note_on_c, 0, 54, 53
1, 56577, Note_off_c, 0, 50, 64
1, 56594, Note_on_c, 0, 41, 48
1, 56619, Note_off_c, 0, 54, 64
1, 56689, Note_on_c, 0, 42, 53
1, 56697, Note_off_c, 0, 41, 64
1, 56767, Note_off_c, 0, 66, 64
1, 56783, Note_off_c, 0, 42, 64
1, 56800, Control_c, 0, 64, 0
1, 56831, Note_on_c, 0, 65, 64
1, 56844, Note_on_c, 0, 35, 58
1, 56940, Note_off_c, 0, 65, 64
1, 56940, Note_off_c, 0, 35, 64
1, 56940, Note_on_c, 0, 42, 48
1, 56956, Control_c, 0, 64, 127
1, 56989, Note_on_c, 0, 61, 64
1, 57031, Note_off_c, 0, 42, 64
1, 57046, Note_on_c, 0, 41, 28
1, 57046, Note_off_c, 0, 61, 64
1, 57121, Note_off_c, 0, 41, 64
1, 57149, Note_on_c, 0, 54, 67
1, 57152, Note_on_c, 0, 65, 73
1, 57168, Note_on_c, 0, 49, 54
1, 57273, Note_off_c, 0, 54, 64
1, 57280, Note_off_c, 0, 49, 64
1, 57280, Note_on_c, 0, 41, 50
1, 57341, Note_off_c, 0, 65, 64
1, 57366, Note_on_c, 0, 42, 54
1, 57369, Note_off_c, 0, 41, 64
1, 57449, Note_off_c, 0, 42, 64
1, 57483, Control_c, 0, 64, 0
1, 57499, Note_on_c, 0, 64, 64
1, 57508, Note_on_c, 0, 35, 58
1, 57595, Note_on_c, 0, 41, 59
1, 57602, Note_off_c, 0, 35, 64
1, 57614, Note_off_c, 0, 64, 64
1, 57647, Note_on_c, 0, 60, 50
1, 57652, Control_c, 0, 64, 127
1, 57691, Note_on_c, 0, 42, 58
1, 57698, Note_off_c, 0, 41, 64
1, 57742, Note_off_c, 0, 60, 64
1, 57761, Note_off_c, 0, 42, 64
1, 57803, Note_on_c, 0, 54, 74
1, 57809, Note_on_c, 0, 64, 89
1, 57812, Note_on_c, 0, 48, 51
1, 57895, Note_off_c, 0, 48, 64
1, 57906, Note_on_c, 0, 41, 57
1, 57932, Note_off_c, 0, 54, 64
1, 57984, Note_off_c, 0, 64, 64
1, 57984, Note_on_c, 0, 42, 63
1, 58003, Note_off_c, 0, 41, 64
1, 58070, Control_c, 0, 64, 0
1, 58078, Note_off_c, 0, 42, 64
1, 58115, Note_on_c, 0, 35, 64
1, 58124, Note_on_c, 0, 59, 68
1, 58187, Note_off_c, 0, 59, 64
1, 58221, Note_off_c, 0, 35, 64
1, 58224, Note_on_c, 0, 41, 58
1, 58238, Control_c, 0, 64, 127
1, 58276, Note_on_c, 0, 61, 66
1, 58321, Note_off_c, 0, 41, 64
1, 58324, Note_on_c, 0, 42, 54
1, 58324, Note_off_c, 0, 61, 64
1, 58399, Note_off_c, 0, 42, 64
1, 58433, Note_on_c, 0, 54, 65
1, 58441, Note_on_c, 0, 62, 70
1, 58449, Note_on_c, 0, 50, 56
1, 58516, Note_off_c, 0, 50, 64
1, 58525, Note_off_c, 0, 54, 64
1, 58546, Note_on_c, 0, 41, 60
1, 58597, Note_on_c, 0, 64, 85
1, 58613, Note_off_c, 0, 41, 64
1, 58622, Note_on_c, 0, 42, 66
1, 58622, Note_off_c, 0, 62, 64
1, 58686, Note_off_c, 0, 64, 64
1, 58708, Note_off_c, 0, 42, 64
1, 58742, Control_c, 0, 64, 0
1, 58742, Note_on_c, 0, 35, 72
1, 58758, Note_on_c, 0, 66, 68
1, 58843, Note_off_c, 0, 35, 64
1, 58843, Note_on_c, 0, 42, 62
1, 58873, Control_c, 0, 64, 127
1, 58886, Note_off_c, 0, 66, 64
1, 58914, Note_on_c, 0, 62, 69
1, 58934, Note_on_c, 0, 41, 63
1, 58940, Note_off_c, 0, 42, 64
1, 59012, Note_off_c, 0, 62, 64
1, 59021, Note_off_c, 0, 41, 64
1, 59032, Note_on_c, 0, 42, 20
1, 59065, Note_on_c, 0, 66, 74
1, 59077, Note_on_c, 0, 59, 59
1, 59087, Note_off_c, 0, 42, 64
1, 59087, Note_on_c, 0, 50, 67
1, 59132, Note_off_c, 0, 59, 64
1, 59148, Note_off_c, 0, 50, 64
1, 59171, Note_on_c, 0, 41, 69
1, 59182, Note_off_c, 0, 66, 64
1, 59227, Note_on_c, 0, 71, 92
1, 59254, Note_off_c, 0, 41, 64
1, 59265, Note_on_c, 0, 42, 64
1, 59326, Note_off_c, 0, 71, 64
1, 59332, Note_off_c, 0, 42, 64
1, 59365, Control_c, 0, 64, 0
1, 59382, Note_on_c, 0, 38, 71
1, 59382, Note_on_c, 0, 69, 77
1, 59474, Note_on_c, 0, 44, 67
1, 59503, Note_off_c, 0, 38, 64
1, 59507, Note_off_c, 0, 69, 64
1, 59533, Note_on_c, 0, 66, 64
1, 59545, Control_c, 0, 64, 127
1, 59586, Note_on_c, 0, 45, 61
1, 59592, Note_off_c, 0, 44, 64
1, 59628, Note_off_c, 0, 66, 64
1, 59641, Note_off_c, 0, 45, 64
1, 59673, Note_on_c, 0, 62, 80
1, 59676, Note_on_c, 0, 57, 59
1, 59687, Note_on_c, 0, 54, 70
1, 59722, Note_off_c, 0, 57, 64
1, 59762, Note_off_c, 0, 54, 64
1, 59770, Note_off_c, 0, 62, 64
1, 59787, Note_on_c, 0, 44, 64
1, 59822, Note_on_c, 0, 66, 80
1, 59895, Note_on_c, 0, 45, 61
1, 59923, Note_off_c, 0, 44, 64
1, 59937, Note_off_c, 0, 66, 64
1, 59971, Note_off_c, 0, 45, 64
1, 59989, Note_on_c, 0, 69, 86
1, 59999, Control_c, 0, 64, 0
1, 60013, Note_on_c, 0, 38, 63
1, 60092, Note_on_c, 0, 44, 68
1, 60115, Note_off_c, 0, 38, 64
1, 60155, Control_c, 0, 64, 127
1, 60182, Note_off_c, 0, 44, 64
1, 60182, Note_on_c, 0, 45, 49
1, 60246, Note_off_c, 0, 45, 64
1, 60274, Note_on_c, 0, 57, 67
1, 60280, Note_on_c, 0, 62, 73
1, 60280, Note_off_c, 0, 69, 64
1, 60288, Note_on_c, 0, 54, 73
1, 60310, Note_off_c, 0, 57, 64
1, 60318, Note_off_c, 0, 62, 64
1, 60327, Note_off_c, 0, 54, 64
1, 60369, Note_on_c, 0, 44, 57
1, 60453, Note_on_c, 0, 45, 66
1, 60478, Note_off_c, 0, 44, 64
1, 60489, Note_off_c, 0, 45, 64
1, 60575, Control_c, 0, 64, 0
1, 60603, Note_on_c, 0, 35, 63
1, 60606, Note_on_c, 0, 71, 75
1, 60677, Note_off_c, 0, 71, 64
1, 60722, Note_on_c, 0, 41, 48
1, 60722, Note_off_c, 0, 35, 64
1, 60744, Control_c, 0, 64, 127
1, 60773, Note_on_c, 0, 73, 58
1, 60803, Note_on_c, 0, 42, 59
1, 60803, Note_off_c, 0, 41, 64
1, 60811, Note_off_c, 0, 73, 64
1, 60851, Note_off_c, 0, 42, 64
1, 60932, Note_on_c, 0, 66, 40
1, 60932, Note_on_c, 0, 50, 50
1, 60935, Note_on_c, 0, 74, 67
1, 60996, Note_off_c, 0, 50, 64
1, 61009, Note_off_c, 0, 66, 64
1, 61042, Note_on_c, 0, 41, 44
1, 61054, Note_off_c, 0, 74, 64
1, 61090, Note_on_c, 0, 76, 69
1, 61126, Note_on_c, 0, 42, 54
1, 61134, Note_off_c, 0, 41, 64
1, 61134, Note_off_c, 0, 76, 64
1, 61169, Note_off_c, 0, 42, 64
1, 61246, Note_on_c, 0, 78, 79
1, 61246, Control_c, 0, 64, 0
1, 61262, Note_on_c, 0, 35, 72
1, 61341, Note_off_c, 0, 78, 64
1, 61361, Note_off_c, 0, 35, 64
1, 61361, Note_on_c, 0, 41, 56
1, 61391, Control_c, 0, 64, 127
1, 61419, Note_on_c, 0, 74, 77
1, 61446, Note_on_c, 0, 42, 59
1, 61450, Note_off_c, 0, 41, 64
1, 61472, Note_off_c, 0, 74, 64
1, 61496, Note_off_c, 0, 42, 64
1, 61567, Note_on_c, 0, 78, 93
1, 61583, Note_on_c, 0, 66, 58
1, 61591, Note_on_c, 0, 50, 63
1, 61641, Note_off_c, 0, 66, 64
1, 61641, Note_off_c, 0, 50, 64
1, 61684, Note_on_c, 0, 41, 62
1, 61765, Note_on_c, 0, 42, 64
1, 61775, Note_off_c, 0, 41, 64
1, 61801, Note_off_c, 0, 78, 64
1, 61857, Control_c, 0, 64, 0
1, 61861, Note_off_c, 0, 42, 64
1, 61875, Note_on_c, 0, 35, 73
1, 61890, Note_on_c, 0, 77, 81
1, 61971, Note_off_c, 0, 35, 64
1, 61987, Note_on_c, 0, 41, 45
1, 61987, Note_off_c, 0, 77, 64
1, 62013, Control_c, 0, 64, 127
1, 62048, Note_on_c, 0, 73, 63
1, 62085, Note_off_c, 0, 41, 64
1, 62085, Note_on_c, 0, 42, 57
1, 62088, Note_off_c, 0, 73, 64
1, 62129, Note_off_c, 0, 42, 64
1, 62201, Note_on_c, 0, 77, 97
1, 62212, Note_on_c, 0, 49, 50
1, 62216, Note_on_c, 0, 66, 51
1, 62297, Note_off_c, 0, 49, 64
1, 62302, Note_on_c, 0, 41, 54
1, 62325, Note_off_c, 0, 66, 64
1, 62392, Note_on_c, 0, 42, 65
1, 62413, Note_off_c, 0, 77, 64
1, 62421, Note_off_c, 0, 41, 64
1, 62500, Note_off_c, 0, 42, 64
1, 62505, Control_c, 0, 64, 0
1, 62513, Note_on_c, 0, 76, 72
1, 62516, Note_on_c, 0, 35, 74
1, 62611, Note_on_c, 0, 41, 59
1, 62617, Note_off_c, 0, 76, 64
1, 62626, Note_off_c, 0, 35, 64
1, 62648, Control_c, 0, 64, 127
1, 62657, Note_on_c, 0, 72, 73
1, 62694, Note_off_c, 0, 72, 64
1, 62697, Note_on_c, 0, 42, 59
1, 62703, Note_off_c, 0, 41, 64
1, 62798, Note_off_c, 0, 42, 64
1, 62815, Note_on_c, 0, 76, 97
1, 62820, Note_on_c, 0, 48, 57
1, 62820, Note_on_c, 0, 66, 68
1, 62909, Note_on_c, 0, 41, 70
1, 62942, Note_off_c, 0, 48, 64
1, 62960, Note_off_c, 0, 66, 64
1, 63001, Note_on_c, 0, 42, 68
1, 63027, Note_off_c, 0, 41, 64
1, 63040, Note_off_c, 0, 76, 64
1, 63113, Note_off_c, 0, 42, 64
1, 63119, Note_on_c, 0, 35, 88
1, 63129, Control_c, 0, 64, 0
1, 63134, Note_on_c, 0, 71, 95
1, 63216, Note_on_c, 0, 41, 66
1, 63238, Note_off_c, 0, 35, 64
1, 63263, Note_off_c, 0, 71, 64
1, 63283, Control_c, 0, 64, 127
1, 63294, Note_on_c, 0, 73, 73
1, 63302, Note_on_c, 0, 42, 76
1, 63316, Note_off_c, 0, 41, 64
1, 63327, Note_off_c, 0, 42, 64
1, 63464, Note_on_c, 0, 59, 97
1, 63467, Note_on_c, 0, 47, 91
1, 63474, Note_on_c, 0, 74, 97
1, 63509, Note_off_c, 0, 73, 64
1, 63628, Note_on_c, 0, 76, 85
1, 63659, Note_off_c, 0, 74, 64
1, 63665, Note_off_c, 0, 59, 64
1, 63695, Note_off_c, 0, 47, 64
1, 63743, Note_off_c, 0, 76, 64
1, 63782, Note_on_c, 0, 57, 101
1, 63785, Note_on_c, 0, 78, 83
1, 63789, Note_on_c, 0, 45, 83
1, 63795, Note_on_c, 0, 47, 63
1, 63823, Control_c, 0, 64, 0
1, 63904, Note_off_c, 0, 78, 64
1, 63945, Note_on_c, 0, 74, 86
1, 63956, Control_c, 0, 64, 127
1, 63988, Note_off_c, 0, 57, 64
1, 63993, Note_off_c, 0, 45, 64
1, 64007, Note_off_c, 0, 47, 64
1, 64029, Note_off_c, 0, 74, 64
1, 64087, Control_c, 0, 64, 0
1, 64091, Note_on_c, 0, 78, 92
1, 64098, Note_on_c, 0, 55, 105
1, 64104, Note_on_c, 0, 71, 79
1, 64104, Note_on_c, 0, 47, 76
1, 64110, Note_on_c, 0, 74, 38
1, 64110, Note_on_c, 0, 43, 82
1, 64152, Note_off_c, 0, 74, 64
1, 64218, Control_c, 0, 64, 127
1, 64229, Note_off_c, 0, 71, 64
1, 64241, Note_off_c, 0, 47, 64
1, 64241, Note_off_c, 0, 78, 64
1, 64247, Note_off_c, 0, 55, 64
1, 64254, Note_off_c, 0, 43, 64
1, 64261, Note_on_c, 0, 83, 114
1, 64367, Note_off_c, 0, 83, 64
1, 64386, Control_c, 0, 64, 0
1, 64411, Note_on_c, 0, 78, 95
1, 64411, Note_on_c, 0, 54, 106
1, 64425, Note_on_c, 0, 42, 87
1, 64428, Note_on_c, 0, 47, 80
1, 64517, Control_c, 0, 64, 127
1, 64534, Note_off_c, 0, 78, 64
1, 64537, Note_off_c, 0, 47, 64
1, 64569, Note_on_c, 0, 74, 95
1, 64600, Note_off_c, 0, 54, 64
1, 64648, Note_off_c, 0, 42, 64
1, 64692, Note_off_c, 0, 74, 64
1, 64711, Control_c, 0, 64, 0
1, 64720, Note_on_c, 0, 47, 91
1, 64720, Note_on_c, 0, 52, 107
1, 64720, Note_on_c, 0, 78, 96
1, 64726, Note_on_c, 0, 71, 89
1, 64729, Note_on_c, 0, 40, 101
1, 64842, Control_c, 0, 64, 127
1, 64854, Note_off_c, 0, 71, 64
1, 64864, Note_off_c, 0, 47, 64
1, 64864, Note_off_c, 0, 52, 64
1, 64864, Note_off_c, 0, 78, 64
1, 64879, Note_off_c, 0, 40, 64
1, 64879, Note_on_c, 0, 83, 115
1, 65010, Control_c, 0, 64, 0
1, 65037, Note_on_c, 0, 47, 88
1, 65037, Note_on_c, 0, 50, 108
1, 65037, Note_on_c, 0, 71, 110
1, 65048, Note_on_c, 0, 38, 103
1, 65141, Control_c, 0, 64, 127
1, 65168, Note_off_c, 0, 38, 64
1, 65185, Note_off_c, 0, 50, 64
1, 65218, Note_off_c, 0, 47, 64
1, 65222, Note_off_c, 0, 71, 64
1, 65288, Note_off_c, 0, 83, 64
1, 65355, Note_on_c, 0, 49, 105
1, 65355, Note_on_c, 0, 47, 38
1, 65355, Note_on_c, 0, 37, 100
1, 65400, Note_off_c, 0, 47, 64
1, 65427, Note_off_c, 0, 49, 64
1, 65438, Note_off_c, 0, 37, 64
1, 65658, Control_c, 0, 64, 0
1, 65670, Note_on_c, 0, 83, 123
1, 65673, Note_on_c, 0, 47, 111
1, 65683, Note_on_c, 0, 35, 110
1, 65739, Note_off_c, 0, 35, 64
1, 65753, Control_c, 0, 64, 127
1, 65785, Note_off_c, 0, 47, 64
1, 65826, Note_on_c, 0, 45, 91
1, 65826, Note_on_c, 0, 85, 102
1, 65871, Note_off_c, 0, 83, 64
1, 65931, Note_off_c, 0, 45, 64
1, 65942, Note_off_c, 0, 85, 64
1, 65965, Note_on_c, 0, 43, 85
1, 65971, Note_on_c, 0, 86, 98
1, 66051, Note_off_c, 0, 43, 64
1, 66068, Note_off_c, 0, 86, 64
1, 66102, Note_on_c, 0, 42, 77
1, 66108, Note_on_c, 0, 88, 97
1, 66179, Note_off_c, 0, 42, 64
1, 66205, Note_off_c, 0, 88, 64
1, 66257, Note_on_c, 0, 90, 102
1, 66257, Note_on_c, 0, 83, 116
1, 66268, Note_on_c, 0, 47, 106
1, 66268, Control_c, 0, 64, 0
1, 66268, Note_on_c, 0, 35, 107
1, 66293, Note_off_c, 0, 35, 64
1, 66352, Control_c, 0, 64, 127
1, 66381, Note_off_c, 0, 47, 64
1, 66395, Note_off_c, 0, 90, 64
1, 66410, Note_on_c, 0, 45, 89
1, 66410, Note_on_c, 0, 86, 94
1, 66500, Note_off_c, 0, 45, 64
1, 66533, Note_off_c, 0, 86, 64
1, 66558, Note_on_c, 0, 43, 80
1, 66558, Note_on_c, 0, 90, 95
1, 66687, Note_on_c, 0, 42, 79
1, 66687, Note_off_c, 0, 43, 64
1, 66707, Note_off_c, 0, 83, 64
1, 66718, Note_off_c, 0, 90, 64
1, 66770, Note_off_c, 0, 42, 64
1, 66820, Control_c, 0, 64, 0
1, 66843, Note_on_c, 0, 89, 111
1, 66843, Note_on_c, 0, 83, 125
1, 66846, Note_on_c, 0, 47, 106
1, 66851, Note_on_c, 0, 35, 105
1, 66873, Note_off_c, 0, 35, 64
1, 66940, Control_c, 0, 64, 127
1, 66948, Note_off_c, 0, 47, 64
1, 66963, Note_off_c, 0, 89, 64
1, 66984, Note_on_c, 0, 45, 76
1, 66987, Note_on_c, 0, 85, 92
1, 67085, Note_off_c, 0, 45, 64
1, 67094, Note_off_c, 0, 85, 64
1, 67141, Note_on_c, 0, 43, 84
1, 67146, Note_on_c, 0, 89, 92
1, 67257, Note_off_c, 0, 43, 64
1, 67261, Note_off_c, 0, 89, 64
1, 67278, Note_on_c, 0, 42, 76
1, 67353, Note_off_c, 0, 42, 64
1, 67356, Note_off_c, 0, 83, 64
1, 67405, Control_c, 0, 64, 0
1, 67420, Note_on_c, 0, 88, 108
1, 67420, Note_on_c, 0, 83, 108
1, 67425, Note_on_c, 0, 47, 95
1, 67428, Note_on_c, 0, 35, 102
1, 67453, Note_off_c, 0, 35, 64
1, 67514, Control_c, 0, 64, 127
1, 67520, Note_off_c, 0, 47, 64
1, 67540, Note_off_c, 0, 88, 64
1, 67561, Note_on_c, 0, 45, 77
1, 67561, Note_on_c, 0, 84, 99
1, 67650, Note_off_c, 0, 45, 64
1, 67661, Note_off_c, 0, 84, 64
1, 67712, Note_on_c, 0, 88, 97
1, 67712, Note_on_c, 0, 43, 79
1, 67817, Note_off_c, 0, 83, 64
1, 67829, Note_off_c, 0, 43, 64
1, 67835, Note_on_c, 0, 42, 74
1, 67859, Note_off_c, 0, 88, 64
1, 67913, Note_off_c, 0, 42, 64
1, 67934, Control_c, 0, 64, 0
1, 67982, Note_on_c, 0, 83, 121
1, 67987, Note_on_c, 0, 47, 101
1, 67991, Note_on_c, 0, 35, 100
1, 68015, Note_off_c, 0, 35, 64
1, 68066, Control_c, 0, 64, 127
1, 68104, Note_off_c, 0, 47, 64
1, 68119, Note_on_c, 0, 45, 74
1, 68127, Note_on_c, 0, 85, 95
1, 68188, Note_off_c, 0, 83, 64
1, 68216, Note_off_c, 0, 45, 64
1, 68236, Note_off_c, 0, 85, 64
1, 68261, Note_on_c, 0, 86, 92
1, 68265, Note_on_c, 0, 43, 71
1, 68366, Note_off_c, 0, 86, 64
1, 68366, Note_off_c, 0, 43, 64
1, 68386, Note_on_c, 0, 88, 89
1, 68392, Note_on_c, 0, 42, 73
1, 68459, Note_off_c, 0, 88, 64
1, 68464, Note_off_c, 0, 42, 64
1, 68497, Control_c, 0, 64, 0
1, 68517, Note_on_c, 0, 90, 97
1, 68528, Note_on_c, 0, 83, 111
1, 68528, Note_on_c, 0, 47, 98
1, 68536, Note_on_c, 0, 35, 96
1, 68561, Note_off_c, 0, 35, 64
1, 68604, Control_c, 0, 64, 127
1, 68604, Note_off_c, 0, 47, 64
1, 68617, Note_off_c, 0, 90, 64
1, 68654, Note_on_c, 0, 45, 84
1, 68664, Note_on_c, 0, 86, 94
1, 68745, Note_off_c, 0, 86, 64
1, 68750, Note_off_c, 0, 45, 64
1, 68785, Note_on_c, 0, 90, 87
1, 68790, Note_on_c, 0, 43, 62
1, 68860, Note_off_c, 0, 90, 64
1, 68891, Note_off_c, 0, 43, 64
1, 68898, Note_on_c, 0, 42, 69
1, 68910, Note_on_c, 0, 95, 101
1, 68949, Note_off_c, 0, 95, 64
1, 68968, Note_off_c, 0, 83, 64
1, 68988, Control_c, 0, 64, 0
1, 68996, Note_off_c, 0, 42, 64
1, 69040, Note_on_c, 0, 93, 108
1, 69040, Note_on_c, 0, 81, 107
1, 69044, Note_on_c, 0, 50, 108
1, 69044, Note_on_c, 0, 38, 101
1, 69044, Note_on_c, 0, 86, 99
1, 69074, Note_off_c, 0, 38, 64
1, 69108, Control_c, 0, 64, 127
1, 69136, Note_off_c, 0, 86, 64
1, 69149, Note_off_c, 0, 50, 64
1, 69174, Note_on_c, 0, 49, 81
1, 69174, Note_on_c, 0, 90, 86
1, 69219, Note_off_c, 0, 93, 64
1, 69249, Note_off_c, 0, 81, 64
1, 69278, Note_off_c, 0, 49, 64
1, 69291, Note_off_c, 0, 90, 64
1, 69306, Note_on_c, 0, 86, 91
1, 69310, Note_on_c, 0, 47, 80
1, 69400, Note_off_c, 0, 86, 64
1, 69400, Note_off_c, 0, 47, 64
1, 69427, Note_on_c, 0, 90, 95
1, 69436, Note_on_c, 0, 45, 66
1, 69501, Note_off_c, 0, 45, 64
1, 69515, Control_c, 0, 64, 0
1, 69525, Note_off_c, 0, 90, 64
1, 69559, Note_on_c, 0, 93, 109
1, 69559, Note_on_c, 0, 81, 92
1, 69559, Note_on_c, 0, 50, 113
1, 69564, Note_on_c, 0, 38, 97
1, 69564, Note_on_c, 0, 86, 85
1, 69586, Note_off_c, 0, 38, 64
1, 69623, Control_c, 0, 64, 127
1, 69623, Note_off_c, 0, 50, 64
1, 69692, Note_on_c, 0, 49, 92
1, 69787, Note_off_c, 0, 49, 64
1, 69793, Note_off_c, 0, 86, 64
1, 69821, Note_on_c, 0, 47, 84
1, 69834, Note_off_c, 0, 93, 64
1, 69902, Note_off_c, 0, 47, 64
1, 69943, Note_on_c, 0, 45, 84
1, 69979, Note_off_c, 0, 81, 64
1, 69987, Note_off_c, 0, 45, 64
1, 70019, Control_c, 0, 64, 0
1, 70079, Note_on_c, 0, 83, 117
1, 70086, Note_on_c, 0, 47, 105
1, 70090, Note_on_c, 0, 35, 108
1, 70110, Note_off_c, 0, 35, 64
1, 70150, Control_c, 0, 64, 127
1, 70164, Note_off_c, 0, 47, 64
1, 70208, Note_on_c, 0, 45, 80
1, 70208, Note_on_c, 0, 85, 85
1, 70295, Note_off_c, 0, 45, 64
1, 70320, Note_off_c, 0, 85, 64
1, 70334, Note_on_c, 0, 86, 79
1, 70334, Note_on_c, 0, 43, 76
1, 70350, Note_off_c, 0, 83, 64
1, 70417, Note_off_c, 0, 43, 64
1, 70455, Note_off_c, 0, 86, 64
1, 70455, Note_on_c, 0, 42, 75
1, 70455, Note_on_c, 0, 88, 89
1, 70514, Note_off_c, 0, 42, 64
1, 70529, Note_off_c, 0, 88, 64
1, 70534, Control_c, 0, 64, 0
1, 70579, Note_on_c, 0, 90, 97
1, 70584, Note_on_c, 0, 83, 110
1, 70584, Note_on_c, 0, 47, 104
1, 70589, Note_on_c, 0, 35, 106
1, 70609, Note_off_c, 0, 35, 64
1, 70664, Note_off_c, 0, 47, 64
1, 70664, Control_c, 0, 64, 127
1, 70685, Note_off_c, 0, 90, 64
1, 70695, Note_on_c, 0, 45, 80
1, 70704, Note_on_c, 0, 86, 89
1, 70781, Note_off_c, 0, 45, 64
1, 70798, Note_off_c, 0, 86, 64
1, 70835, Note_on_c, 0, 43, 70
1, 70841, Note_on_c, 0, 90, 92
1, 70910, Note_off_c, 0, 83, 64
1, 70943, Note_on_c, 0, 42, 75
1, 70949, Note_off_c, 0, 90, 64
1, 70957, Note_off_c, 0, 43, 64
1, 71010, Note_off_c, 0, 42, 64
1, 71026, Control_c, 0, 64, 0
1, 71069, Note_on_c, 0, 89, 110
1, 71069, Note_on_c, 0, 83, 124
1, 71079, Note_on_c, 0, 35, 108
1, 71079, Note_on_c, 0, 47, 104
1, 71105, Note_off_c, 0, 35, 64
1, 71127, Note_on_c, 0, 45, 9
1, 71146, Note_off_c, 0, 89, 64
1, 71146, Control_c, 0, 64, 127
1, 71163, Note_off_c, 0, 45, 64
1, 71174, Note_off_c, 0, 47, 64
1, 71194, Note_on_c, 0, 85, 81
1, 71194, Note_on_c, 0, 45, 68
1, 71286, Note_off_c, 0, 45, 64
1, 71300, Note_off_c, 0, 85, 64
1, 71311, Note_on_c, 0, 43, 73
1, 71327, Note_on_c, 0, 89, 88
1, 71412, Note_off_c, 0, 83, 64
1, 71417, Note_on_c, 0, 42, 75
1, 71431, Note_off_c, 0, 43, 64
1, 71436, Note_off_c, 0, 89, 64
1, 71469, Note_off_c, 0, 42, 64
1, 71517, Control_c, 0, 64, 0
1, 71561, Note_on_c, 0, 88, 103
1, 71564, Note_on_c, 0, 83, 121
1, 71572, Note_on_c, 0, 47, 106
1, 71572, Note_on_c, 0, 35, 106
1, 71600, Note_off_c, 0, 35, 64
1, 71660, Control_c, 0, 64, 127
1, 71676, Note_off_c, 0, 47, 64
1, 71689, Note_on_c, 0, 84, 95
1, 71689, Note_on_c, 0, 45, 81
1, 71706, Note_off_c, 0, 88, 64
1, 71796, Note_off_c, 0, 84, 64
1, 71804, Note_off_c, 0, 45, 64
1, 71804, Note_on_c, 0, 43, 75
1, 71810, Note_on_c, 0, 88, 89
1, 71898, Note_off_c, 0, 83, 64
1, 71923, Note_on_c, 0, 42, 76
1, 71938, Note_off_c, 0, 88, 64
1, 71938, Note_off_c, 0, 43, 64
1, 71985, Control_c, 0, 64, 0
1, 72002, Note_off_c, 0, 42, 64
1, 72047, Note_on_c, 0, 83, 124
1, 72058, Note_on_c, 0, 47, 106
1, 72061, Note_on_c, 0, 35, 106
1, 72083, Note_off_c, 0, 35, 64
1, 72116, Control_c, 0, 64, 127
1, 72152, Note_off_c, 0, 47, 64
1, 72166, Note_on_c, 0, 85, 92
1, 72171, Note_on_c, 0, 45, 82
1, 72269, Note_off_c, 0, 85, 64
1, 72278, Note_off_c, 0, 83, 64
1, 72278, Note_off_c, 0, 45, 64
1, 72278, Note_on_c, 0, 43, 82
1, 72281, Note_on_c, 0, 86, 90
1, 72369, Note_off_c, 0, 86, 64
1, 72389, Note_on_c, 0, 88, 91
1, 72389, Note_on_c, 0, 42, 83
1, 72405, Note_off_c, 0, 43, 64
1, 72459, Note_off_c, 0, 88, 64
1, 72464, Control_c, 0, 64, 0
1, 72472, Note_off_c, 0, 42, 64
1, 72506, Note_on_c, 0, 90, 101
1, 72506, Note_on_c, 0, 83, 117
1, 72515, Note_on_c, 0, 47, 98
1, 72515, Note_on_c, 0, 35, 100
1, 72537, Note_off_c, 0, 35, 64
1, 72584, Control_c, 0, 64, 127
1, 72592, Note_off_c, 0, 90, 64
1, 72607, Note_off_c, 0, 47, 64
1, 72631, Note_on_c, 0, 45, 76
1, 72635, Note_on_c, 0, 86, 85
1, 72710, Note_off_c, 0, 86, 64
1, 72734, Note_off_c, 0, 45, 64
1, 72734, Note_on_c, 0, 44, 58
1, 72751, Note_on_c, 0, 90, 82
1, 72762, Note_on_c, 0, 43, 63
1, 72785, Note_off_c, 0, 44, 64
1, 72802, Note_off_c, 0, 90, 64
1, 72820, Note_off_c, 0, 43, 64
1, 72823, Note_on_c, 0, 42, 69
1, 72843, Note_off_c, 0, 83, 64
1, 72859, Note_on_c, 0, 95, 80
1, 72888, Note_off_c, 0, 95, 64
1, 72910, Note_off_c, 0, 42, 64
1, 72919, Control_c, 0, 64, 0
1, 72965, Note_on_c, 0, 93, 103
1, 72965, Note_on_c, 0, 50, 110
1, 72965, Note_on_c, 0, 81, 108
1, 72969, Note_on_c, 0, 38, 97
1, 72969, Note_on_c, 0, 86, 97
1, 72993, Note_off_c, 0, 38, 64
1, 73039, Control_c, 0, 64, 127
1, 73074, Note_off_c, 0, 86, 64
1, 73074, Note_on_c, 0, 90, 82
1, 73082, Note_on_c, 0, 49, 82
1, 73085, Note_off_c, 0, 50, 64
1, 73117, Note_off_c, 0, 93, 64
1, 73183, Note_off_c, 0, 49, 64
1, 73192, Note_on_c, 0, 86, 84
1, 73197, Note_on_c, 0, 47, 80
1, 73211, Note_off_c, 0, 81, 64
1, 73211, Note_off_c, 0, 90, 64
1, 73288, Note_off_c, 0, 47, 64
1, 73297, Note_on_c, 0, 45, 74
1, 73297, Note_off_c, 0, 86, 64
1, 73297, Note_on_c, 0, 90, 91
1, 73351, Control_c, 0, 64, 0
1, 73351, Note_off_c, 0, 45, 64
1, 73378, Note_off_c, 0, 90, 64
1, 73419, Note_on_c, 0, 93, 107
1, 73419, Note_on_c, 0, 81, 98
1, 73419, Note_on_c, 0, 86, 97
1, 73423, Note_on_c, 0, 50, 113
1, 73423, Note_on_c, 0, 38, 97
1, 73447, Note_off_c, 0, 38, 64
1, 73483, Control_c, 0, 64, 127
1, 73512, Note_off_c, 0, 50, 64
1, 73545, Note_on_c, 0, 49, 90
1, 73593, Note_off_c, 0, 81, 64
1, 73637, Note_off_c, 0, 86, 64
1, 73653, Note_on_c, 0, 47, 72
1, 73659, Note_off_c, 0, 49, 64
1, 73679, Note_off_c, 0, 93, 64
1, 73741, Note_on_c, 0, 45, 85
1, 73762, Note_off_c, 0, 47, 64
1, 73824, Note_off_c, 0, 45, 64
1, 73830, Control_c, 0, 64, 0
1, 73891, Note_on_c, 0, 90, 104
1, 73891, Note_on_c, 0, 54, 111
1, 73898, Note_on_c, 0, 42, 81
1, 73927, Note_off_c, 0, 42, 64
1, 73951, Control_c, 0, 64, 127
1, 74004, Note_off_c, 0, 54, 64
1, 74010, Note_on_c, 0, 92, 86
1, 74016, Note_on_c, 0, 52, 94
1, 74091, Note_off_c, 0, 90, 64
1, 74130, Note_on_c, 0, 50, 85
1, 74130, Note_on_c, 0, 94, 82
1, 74146, Note_off_c, 0, 52, 64
1, 74163, Note_off_c, 0, 92, 64
1, 74230, Note_on_c, 0, 49, 82
1, 74234, Note_on_c, 0, 95, 94
1, 74249, Note_off_c, 0, 50, 64
1, 74283, Note_off_c, 0, 94, 64
1, 74302, Note_off_c, 0, 95, 64
1, 74306, Note_off_c, 0, 49, 64
1, 74334, Control_c, 0, 64, 0
1, 74359, Note_on_c, 0, 85, 99
1, 74359, Note_on_c, 0, 97, 102
1, 74363, Note_on_c, 0, 54, 111
1, 74363, Note_on_c, 0, 42, 94
1, 74367, Note_on_c, 0, 90, 87
1, 74398, Note_off_c, 0, 42, 64
1, 74453, Control_c, 0, 64, 127
1, 74453, Note_off_c, 0, 54, 64
1, 74487, Note_on_c, 0, 94, 84
1, 74500, Note_on_c, 0, 52, 90
1, 74514, Note_off_c, 0, 85, 64
1, 74521, Note_off_c, 0, 90, 64
1, 74526, Note_off_c, 0, 97, 64
1, 74592, Note_off_c, 0, 52, 64
1, 74604, Note_on_c, 0, 50, 81
1, 74609, Note_on_c, 0, 97, 87
1, 74614, Note_on_c, 0, 85, 90
1, 74614, Note_on_c, 0, 90, 75
1, 74623, Note_off_c, 0, 94, 64
1, 74695, Note_on_c, 0, 49, 79
1, 74718, Note_off_c, 0, 50, 64
1, 74738, Note_off_c, 0, 85, 64
1, 74745, Note_off_c, 0, 90, 64
1, 74757, Note_off_c, 0, 49, 64
1, 74777, Note_off_c, 0, 97, 64
1, 74801, Control_c, 0, 64, 0
1, 74844, Note_on_c, 0, 50, 112
1, 74844, Note_on_c, 0, 90, 83
1, 74844, Note_on_c, 0, 98, 108
1, 74847, Note_on_c, 0, 86, 95
1, 74852, Note_on_c, 0, 38, 96
1, 74872, Note_off_c, 0, 38, 64
1, 74933, Control_c, 0, 64, 127
1, 74943, Note_off_c, 0, 50, 64
1, 74961, Note_on_c, 0, 49, 61
1, 74966, Note_on_c, 0, 94, 79
1, 74999, Note_off_c, 0, 98, 64
1, 75004, Note_off_c, 0, 49, 64
1, 75007, Note_off_c, 0, 86, 64
1, 75011, Note_off_c, 0, 90, 64
1, 75066, Note_on_c, 0, 50, 97
1, 75066, Note_on_c, 0, 86, 73
1, 75075, Note_on_c, 0, 98, 91
1, 75078, Note_on_c, 0, 90, 55
1, 75111, Note_off_c, 0, 94, 64
1, 75130, Note_off_c, 0, 50, 64
1, 75153, Note_off_c, 0, 98, 64
1, 75166, Note_on_c, 0, 52, 98
1, 75183, Note_off_c, 0, 86, 64
1, 75191, Note_off_c, 0, 90, 64
1, 75218, Note_off_c, 0, 52, 64
1, 75269, Control_c, 0, 64, 0
1, 75302, Note_on_c, 0, 97, 94
1, 75302, Note_on_c, 0, 85, 95
1, 75302, Note_on_c, 0, 54, 110
1, 75306, Note_on_c, 0, 90, 75
1, 75312, Note_on_c, 0, 42, 86
1, 75339, Note_off_c, 0, 42, 64
1, 75394, Note_off_c, 0, 54, 64
1, 75400, Control_c, 0, 64, 127
1, 75411, Note_on_c, 0, 52, 101
1, 75422, Note_on_c, 0, 94, 76
1, 75453, Note_off_c, 0, 97, 64
1, 75459, Note_off_c, 0, 85, 64
1, 75462, Note_off_c, 0, 90, 64
1, 75490, Note_off_c, 0, 52, 64
1, 75536, Note_on_c, 0, 85, 75
1, 75536, Note_on_c, 0, 50, 89
1, 75543, Note_on_c, 0, 90, 57
1, 75543, Note_on_c, 0, 97, 79
1, 75573, Note_off_c, 0, 94, 64
1, 75623, Note_off_c, 0, 85, 64
1, 75623, Note_off_c, 0, 90, 64
1, 75635, Note_on_c, 0, 49, 84
1, 75642, Note_off_c, 0, 50, 64
1, 75706, Note_off_c, 0, 49, 64
1, 75718, Note_off_c, 0, 97, 64
1, 75735, Control_c, 0, 64, 0
1, 75776, Note_on_c, 0, 42, 89
1, 75776, Note_on_c, 0, 54, 110
1, 75776, Note_on_c, 0, 90, 105
1, 75808, Note_off_c, 0, 42, 64
1, 75837, Note_off_c, 0, 90, 64
1, 75843, Control_c, 0, 64, 127
1, 75865, Note_off_c, 0, 54, 64
1, 75890, Note_on_c, 0, 92, 85
1, 75890, Note_on_c, 0, 90, 61
1, 75890, Note_on_c, 0, 52, 91
1, 75930, Note_off_c, 0, 92, 64
1, 75949, Note_off_c, 0, 90, 64
1, 75975, Note_off_c, 0, 52, 64
1, 76000, Note_on_c, 0, 50, 92
1, 76003, Note_on_c, 0, 94, 87
1, 76003, Note_on_c, 0, 90, 80
1, 76075, Note_off_c, 0, 90, 64
1, 76078, Note_off_c, 0, 94, 64
1, 76092, Note_off_c, 0, 50, 64
1, 76102, Note_on_c, 0, 49, 81
1, 76110, Note_on_c, 0, 90, 65
1, 76110, Note_on_c, 0, 95, 92
1, 76147, Note_off_c, 0, 95, 64
1, 76147, Note_off_c, 0, 90, 64
1, 76177, Note_off_c, 0, 49, 64
1, 76203, Control_c, 0, 64, 0
1, 76231, Note_on_c, 0, 85, 104
1, 76231, Note_on_c, 0, 54, 112
1, 76236, Note_on_c, 0, 97, 97
1, 76236, Note_on_c, 0, 42, 96
1, 76241, Note_on_c, 0, 90, 86
1, 76270, Note_off_c, 0, 42, 64
1, 76273, Note_off_c, 0, 90, 64
1, 76308, Note_off_c, 0, 97, 64
1, 76311, Control_c, 0, 64, 127
1, 76320, Note_off_c, 0, 54, 64
1, 76353, Note_on_c, 0, 52, 102
1, 76353, Note_on_c, 0, 94, 79
1, 76365, Note_off_c, 0, 85, 64
1, 76436, Note_off_c, 0, 52, 64
1, 76443, Note_off_c, 0, 94, 64
1, 76461, Note_on_c, 0, 50, 89
1, 76461, Note_on_c, 0, 97, 95
1, 76461, Note_on_c, 0, 85, 94
1, 76466, Note_on_c, 0, 90, 81
1, 76514, Note_off_c, 0, 90, 64
1, 76539, Note_off_c, 0, 97, 64
1, 76554, Note_on_c, 0, 49, 88
1, 76565, Note_off_c, 0, 85, 64
1, 76582, Note_off_c, 0, 50, 64
1, 76624, Note_off_c, 0, 49, 64
1, 76671, Control_c, 0, 64, 0
1, 76690, Note_on_c, 0, 50, 112
1, 76693, Note_on_c, 0, 38, 106
1, 76693, Note_on_c, 0, 90, 92
1, 76696, Note_on_c, 0, 86, 94
1, 76696, Note_on_c, 0, 98, 114
1, 76716, Note_off_c, 0, 38, 64
1, 76768, Note_off_c, 0, 90, 64
1, 76774, Note_off_c, 0, 50, 64
1, 76777, Control_c, 0, 64, 127
1, 76777, Note_off_c, 0, 98, 64
1, 76788, Note_off_c, 0, 86, 64
1, 76805, Note_on_c, 0, 49, 95
1, 76805, Note_on_c, 0, 94, 87
1, 76883, Note_off_c, 0, 94, 64
1, 76899, Note_off_c, 0, 49, 64
1, 76915, Note_on_c, 0, 50, 101
1, 76918, Note_on_c, 0, 90, 88
1, 76921, Note_on_c, 0, 98, 103
1, 76924, Note_on_c, 0, 86, 70
1, 76982, Note_off_c, 0, 50, 64
1, 76994, Note_off_c, 0, 98, 64
1, 77000, Note_off_c, 0, 90, 64
1, 77019, Note_on_c, 0, 52, 106
1, 77024, Note_off_c, 0, 86, 64
1, 77064, Note_off_c, 0, 52, 64
1, 77114, Control_c, 0, 64, 0
1, 77150, Note_on_c, 0, 97, 100
1, 77150, Note_on_c, 0, 54, 111
1, 77150, Note_on_c, 0, 85, 100
1, 77153, Note_on_c, 0, 90, 88
1, 77158, Note_on_c, 0, 42, 95
1, 77184, Note_off_c, 0, 42, 64
1, 77234, Control_c, 0, 64, 127
1, 77239, Note_off_c, 0, 54, 64
1, 77266, Note_on_c, 0, 52, 101
1, 77326, Note_off_c, 0, 85, 64
1, 77376, Note_on_c, 0, 50, 93
1, 77383, Note_off_c, 0, 90, 64
1, 77397, Note_off_c, 0, 52, 64
1, 77464, Note_on_c, 0, 49, 90
1, 77484, Note_off_c, 0, 50, 64
1, 77528, Note_off_c, 0, 49, 64
1, 77535, Note_off_c, 0, 97, 64
1, 77545, Control_c, 0, 64, 0
1, 77590, Note_on_c, 0, 90, 105
1, 77596, Note_on_c, 0, 54, 109
1, 77596, Note_on_c, 0, 42, 90
1, 77607, Note_on_c, 0, 97, 52
1, 77626, Note_off_c, 0, 42, 64
1, 77640, Note_off_c, 0, 97, 64
1, 77665, Control_c, 0, 64, 127
1, 77685, Note_off_c, 0, 54, 64
1, 77698, Note_on_c, 0, 92, 91
1, 77702, Note_on_c, 0, 53, 116
1, 77729, Note_off_c, 0, 90, 64
1, 77791, Note_off_c, 0, 53, 64
1, 77810, Note_on_c, 0, 94, 80
1, 77815, Note_on_c, 0, 51, 93
1, 77826, Note_off_c, 0, 92, 64
1, 77908, Note_on_c, 0, 95, 91
1, 77908, Note_on_c, 0, 49, 92
1, 77935, Note_off_c, 0, 51, 64
1, 77957, Note_off_c, 0, 94, 64
1, 77969, Note_off_c, 0, 49, 64
1, 77977, Note_off_c, 0, 95, 64
1, 78024, Note_on_c, 0, 54, 113
1, 78024, Note_on_c, 0, 85, 100
1, 78027, Note_on_c, 0, 97, 100
1, 78027, Note_on_c, 0, 90, 88
1, 78030, Note_on_c, 0, 42, 95
1, 78060, Note_off_c, 0, 42, 64
1, 78117, Note_off_c, 0, 54, 64
1, 78141, Note_on_c, 0, 53, 113
1, 78141, Note_on_c, 0, 94, 84
1, 78145, Note_off_c, 0, 85, 64
1, 78158, Note_off_c, 0, 90, 64
1, 78175, Note_off_c, 0, 97, 64
1, 78251, Note_off_c, 0, 94, 64
1, 78251, Note_on_c, 0, 51, 94
1, 78259, Note_off_c, 0, 53, 64
1, 78262, Note_on_c, 0, 85, 92
1, 78262, Note_on_c, 0, 97, 94
1, 78265, Note_on_c, 0, 90, 81
1, 78354, Note_off_c, 0, 85, 64
1, 78354, Note_on_c, 0, 49, 90
1, 78365, Note_off_c, 0, 90, 64
1, 78387, Note_off_c, 0, 51, 64
1, 78390, Note_off_c, 0, 97, 64
1, 78421, Note_off_c, 0, 49, 64
1, 78481, Control_c, 0, 64, 0
1, 78509, Note_on_c, 0, 51, 112
1, 78514, Note_on_c, 0, 99, 101
1, 78514, Note_on_c, 0, 87, 89
1, 78514, Note_on_c, 0, 39, 97
1, 78514, Note_on_c, 0, 90, 84
1, 78542, Note_off_c, 0, 39, 64
1, 78588, Control_c, 0, 64, 127
1, 78604, Note_off_c, 0, 51, 64
1, 78626, Note_on_c, 0, 49, 85
1, 78631, Note_on_c, 0, 94, 76
1, 78648, Note_off_c, 0, 87, 64
1, 78651, Note_off_c, 0, 99, 64
1, 78657, Note_off_c, 0, 90, 64
1, 78746, Note_on_c, 0, 87, 85
1, 78746, Note_on_c, 0, 99, 95
1, 78750, Note_on_c, 0, 51, 94
1, 78750, Note_on_c, 0, 90, 76
1, 78790, Note_off_c, 0, 94, 64
1, 78790, Note_off_c, 0, 49, 64
1, 78846, Note_off_c, 0, 51, 64
1, 78852, Note_on_c, 0, 53, 110
1, 78857, Note_off_c, 0, 99, 64
1, 78868, Note_off_c, 0, 87, 64
1, 78897, Note_off_c, 0, 53, 64
1, 78902, Note_off_c, 0, 90, 64
1, 78924, Control_c, 0, 64, 0
1, 78961, Note_on_c, 0, 90, 73
1, 78961, Note_on_c, 0, 97, 98
1, 78961, Note_on_c, 0, 85, 99
1, 78966, Note_on_c, 0, 54, 111
1, 78974, Note_on_c, 0, 42, 87
1, 79002, Note_off_c, 0, 42, 64
1, 79042, Control_c, 0, 64, 127
1, 79060, Note_off_c, 0, 54, 64
1, 79074, Note_on_c, 0, 53, 103
1, 79078, Note_on_c, 0, 94, 83
1, 79095, Note_off_c, 0, 85, 64
1, 79105, Note_off_c, 0, 90, 64
1, 79105, Note_off_c, 0, 97, 64
1, 79180, Note_on_c, 0, 51, 91
1, 79192, Note_on_c, 0, 97, 85
1, 79192, Note_on_c, 0, 85, 92
1, 79200, Note_off_c, 0, 94, 64
1, 79200, Note_on_c, 0, 90, 77
1, 79203, Note_off_c, 0, 53, 64
1, 79283, Note_on_c, 0, 49, 86
1, 79289, Note_off_c, 0, 85, 64
1, 79308, Note_off_c, 0, 51, 64
1, 79314, Note_off_c, 0, 90, 64
1, 79356, Note_off_c, 0, 49, 64
1, 79379, Control_c, 0, 64, 0
1, 79407, Note_off_c, 0, 97, 64
1, 79414, Note_on_c, 0, 54, 112
1, 79414, Note_on_c, 0, 90, 103
1, 79418, Note_on_c, 0, 42, 97
1, 79453, Note_off_c, 0, 42, 64
1, 79499, Note_off_c, 0, 54, 64
1, 79499, Control_c, 0, 64, 127
1, 79514, Note_off_c, 0, 90, 64
1, 79526, Note_on_c, 0, 53, 110
1, 79526, Note_on_c, 0, 92, 93
1, 79620, Note_off_c, 0, 53, 64
1, 79632, Note_off_c, 0, 92, 64
1, 79632, Note_on_c, 0, 51, 90
1, 79637, Note_on_c, 0, 94, 82
1, 79637, Note_on_c, 0, 90, 83
1, 79710, Note_off_c, 0, 90, 64
1, 79732, Note_off_c, 0, 94, 64
1, 79735, Note_on_c, 0, 95, 93
1, 79738, Note_off_c, 0, 51, 64
1, 79738, Note_on_c, 0, 49, 88
1, 79744, Note_on_c, 0, 90, 73
1, 79783, Note_off_c, 0, 95, 64
1, 79786, Note_off_c, 0, 90, 64
1, 79816, Note_off_c, 0, 49, 64
1, 79846, Control_c, 0, 64, 0
1, 79854, Note_on_c, 0, 85, 97
1, 79857, Note_on_c, 0, 54, 103
1, 79857, Note_on_c, 0, 97, 97
1, 79860, Note_on_c, 0, 42, 86
1, 79860, Note_on_c, 0, 90, 74
1, 79866, Note_on_c, 0, 87, 61
1, 79894, Control_c, 0, 64, 127
1, 79894, Note_off_c, 0, 42, 64
1, 79899, Note_off_c, 0, 87, 64
1, 79910, Note_off_c, 0, 90, 64
1, 79941, Note_off_c, 0, 97, 64
1, 79955, Note_off_c, 0, 54, 64
1, 79966, Note_on_c, 0, 53, 103
1, 79966, Note_on_c, 0, 94, 80
1, 79992, Note_off_c, 0, 85, 64
1, 80058, Note_on_c, 0, 51, 87
1, 80058, Note_off_c, 0, 53, 64
1, 80072, Note_off_c, 0, 94, 64
1, 80078, Note_on_c, 0, 90, 80
1, 80081, Note_on_c, 0, 97, 87
1, 80081, Note_on_c, 0, 85, 73
1, 80153, Note_on_c, 0, 49, 90
1, 80181, Note_off_c, 0, 51, 64
1, 80209, Note_off_c, 0, 85, 64
1, 80217, Note_off_c, 0, 49, 64
1, 80226, Note_off_c, 0, 90, 64
1, 80231, Note_off_c, 0, 97, 64
1, 80253, Control_c, 0, 64, 0
1, 80287, Note_on_c, 0, 51, 97
1, 80292, Note_on_c, 0, 87, 95
1, 80292, Note_on_c, 0, 99, 102
1, 80297, Note_on_c, 0, 90, 69
1, 80301, Note_on_c, 0, 39, 51
1, 80337, Note_off_c, 0, 39, 64
1, 80375, Control_c, 0, 64, 127
1, 80375, Note_off_c, 0, 51, 64
1, 80409, Note_on_c, 0, 94, 76
1, 80415, Note_off_c, 0, 90, 64
1, 80425, Note_off_c, 0, 87, 64
1, 80434, Note_off_c, 0, 99, 64
1, 80434, Note_on_c, 0, 49, 90
1, 80498, Note_off_c, 0, 49, 64
1, 80515, Note_on_c, 0, 87, 83
1, 80515, Note_on_c, 0, 99, 84
1, 80518, Note_on_c, 0, 90, 78
1, 80550, Note_on_c, 0, 51, 86
1, 80550, Note_off_c, 0, 94, 64
1, 80602, Note_off_c, 0, 51, 64
1, 80637, Note_off_c, 0, 99, 64
1, 80637, Note_on_c, 0, 53, 92
1, 80654, Note_off_c, 0, 87, 64
1, 80660, Note_off_c, 0, 90, 64
1, 80698, Control_c, 0, 64, 0
1, 80732, Note_on_c, 0, 85, 99
1, 80735, Note_on_c, 0, 97, 93
1, 80735, Note_on_c, 0, 90, 64
1, 80743, Note_on_c, 0, 54, 109
1, 80746, Note_off_c, 0, 53, 64
1, 80752, Note_on_c, 0, 42, 81
1, 80783, Note_off_c, 0, 42, 64
1, 80841, Control_c, 0, 64, 127
1, 80854, Note_on_c, 0, 53, 111
1, 80863, Note_off_c, 0, 54, 64
1, 80922, Note_off_c, 0, 97, 64
1, 80944, Note_off_c, 0, 90, 64
1, 80981, Note_off_c, 0, 53, 64
1, 80985, Note_on_c, 0, 51, 70
1, 81008, Note_off_c, 0, 85, 64
1, 81078, Note_off_c, 0, 51, 64
1, 81084, Note_on_c, 0, 49, 76
1, 81112, Note_off_c, 0, 49, 64
1, 81286, Control_c, 0, 64, 0
1, 81286, Note_on_c, 0, 83, 121
1, 81292, Note_on_c, 0, 47, 113
1, 81304, Note_on_c, 0, 35, 103
1, 81376, Note_off_c, 0, 35, 64
1, 81410, Note_off_c, 0, 47, 64
1, 81417, Control_c, 0, 64, 127
1, 81428, Note_on_c, 0, 45, 92
1, 81428, Note_on_c, 0, 85, 95
1, 81487, Note_off_c, 0, 83, 64
1, 81535, Note_on_c, 0, 86, 89
1, 81545, Note_on_c, 0, 43, 87
1, 81545, Note_off_c, 0, 85, 64
1, 81551, Note_off_c, 0, 45, 64
1, 81629, Note_on_c, 0, 42, 87
1, 81643, Note_on_c, 0, 88, 87
1, 81654, Note_off_c, 0, 43, 64
1, 81673, Note_off_c, 0, 86, 64
1, 81699, Note_off_c, 0, 42, 64
1, 81722, Note_off_c, 0, 88, 64
1, 81751, Note_on_c, 0, 47, 106
1, 81751, Note_on_c, 0, 35, 111
1, 81751, Note_on_c, 0, 90, 97
1, 81751, Note_on_c, 0, 83, 111
1, 81774, Note_off_c, 0, 35, 64
1, 81854, Note_off_c, 0, 47, 64
1, 81854, Note_off_c, 0, 83, 64
1, 81861, Note_on_c, 0, 45, 91
1, 81866, Note_on_c, 0, 86, 86
1, 81894, Note_off_c, 0, 90, 64
1, 81967, Note_on_c, 0, 43, 82
1, 81978, Note_on_c, 0, 90, 86
1, 81981, Note_on_c, 0, 83, 101
1, 81981, Note_off_c, 0, 45, 64
1, 82008, Note_off_c, 0, 86, 64
1, 82047, Note_on_c, 0, 42, 87
1, 82083, Note_off_c, 0, 43, 64
1, 82106, Note_off_c, 0, 83, 64
1, 82128, Note_off_c, 0, 90, 64
1, 82128, Note_off_c, 0, 42, 64
1, 82159, Control_c, 0, 64, 0
1, 82173, Note_on_c, 0, 47, 113
1, 82176, Note_on_c, 0, 83, 106
1, 82176, Note_on_c, 0, 35, 113
1, 82181, Note_on_c, 0, 89, 99
1, 82206, Note_off_c, 0, 35, 64
1, 82243, Control_c, 0, 64, 127
1, 82281, Note_on_c, 0, 85, 91
1, 82281, Note_on_c, 0, 45, 89
1, 82303, Note_off_c, 0, 47, 64
1, 82307, Note_off_c, 0, 83, 64
1, 82320, Note_off_c, 0, 89, 64
1, 82382, Note_on_c, 0, 43, 83
1, 82385, Note_off_c, 0, 85, 64
1, 82390, Note_on_c, 0, 83, 97
1, 82393, Note_on_c, 0, 89, 81
1, 82403, Note_off_c, 0, 45, 64
1, 82462, Note_on_c, 0, 42, 86
1, 82498, Note_off_c, 0, 43, 64
1, 82502, Note_off_c, 0, 83, 64
1, 82526, Note_off_c, 0, 42, 64
1, 82532, Note_off_c, 0, 89, 64
1, 82568, Control_c, 0, 64, 0
1, 82590, Note_on_c, 0, 47, 106
1, 82590, Note_on_c, 0, 83, 112
1, 82590, Note_on_c, 0, 35, 109
1, 82594, Note_on_c, 0, 88, 103
1, 82616, Note_off_c, 0, 35, 64
1, 82676, Control_c, 0, 64, 127
1, 82688, Note_on_c, 0, 45, 84
1, 82688, Note_on_c, 0, 84, 102
1, 82708, Note_off_c, 0, 47, 64
1, 82713, Note_off_c, 0, 83, 64
1, 82724, Note_off_c, 0, 88, 64
1, 82793, Note_on_c, 0, 83, 96
1, 82793, Note_on_c, 0, 43, 85
1, 82797, Note_off_c, 0, 84, 64
1, 82802, Note_on_c, 0, 88, 78
1, 82818, Note_off_c, 0, 45, 64
1, 82875, Note_off_c, 0, 83, 64
1, 82875, Note_on_c, 0, 42, 81
1, 82905, Note_off_c, 0, 43, 64
1, 82933, Note_off_c, 0, 88, 64
1, 82939, Control_c, 0, 64, 0
1, 82953, Note_off_c, 0, 42, 64
1, 82986, Note_on_c, 0, 83, 118
1, 82992, Note_on_c, 0, 47, 106
1, 82999, Note_on_c, 0, 35, 106
1, 83017, Note_on_c, 0, 45, 52
1, 83020, Note_off_c, 0, 35, 64
1, 83058, Control_c, 0, 64, 127
1, 83064, Note_off_c, 0, 45, 64
1, 83081, Note_on_c, 0, 85, 91
1, 83101, Note_on_c, 0, 45, 92
1, 83104, Note_off_c, 0, 47, 64
1, 83139, Note_off_c, 0, 83, 64
1, 83170, Note_on_c, 0, 86, 92
1, 83189, Note_on_c, 0, 43, 74
1, 83217, Note_off_c, 0, 85, 64
1, 83226, Note_off_c, 0, 45, 64
1, 83259, Note_on_c, 0, 42, 88
1, 83259, Note_on_c, 0, 88, 91
1, 83296, Note_off_c, 0, 43, 64
1, 83309, Note_off_c, 0, 86, 64
1, 83320, Note_off_c, 0, 42, 64
1, 83328, Note_off_c, 0, 88, 64
1, 83334, Control_c, 0, 64, 0
1, 83370, Note_on_c, 0, 90, 97
1, 83370, Note_on_c, 0, 47, 107
1, 83373, Note_on_c, 0, 83, 118
1, 83378, Note_on_c, 0, 35, 98
1, 83399, Note_off_c, 0, 35, 64
1, 83454, Control_c, 0, 64, 127
1, 83454, Note_off_c, 0, 47, 64
1, 83468, Note_on_c, 0, 86, 87
1, 83474, Note_off_c, 0, 90, 64
1, 83474, Note_on_c, 0, 45, 84
1, 83560, Note_on_c, 0, 43, 81
1, 83565, Note_on_c, 0, 90, 77
1, 83593, Note_off_c, 0, 86, 64
1, 83598, Note_off_c, 0, 45, 64
1, 83616, Note_off_c, 0, 83, 64
1, 83632, Note_on_c, 0, 42, 83
1, 83651, Note_on_c, 0, 95, 75
1, 83660, Note_off_c, 0, 43, 64
1, 83682, Note_off_c, 0, 95, 64
1, 83690, Note_off_c, 0, 90, 64
1, 83699, Note_off_c, 0, 42, 64
1, 83705, Control_c, 0, 64, 0
1, 83741, Note_on_c, 0, 50, 113
1, 83741, Note_on_c, 0, 38, 100
1, 83746, Note_on_c, 0, 86, 89
1, 83746, Note_on_c, 0, 81, 100
1, 83746, Note_on_c, 0, 93, 100
1, 83766, Note_off_c, 0, 38, 64
1, 83786, Note_on_c, 0, 83, 37
1, 83838, Control_c, 0, 64, 127
1, 83846, Note_on_c, 0, 90, 83
1, 83846, Note_on_c, 0, 49, 86
1, 83852, Note_off_c, 0, 50, 64
1, 83860, Note_off_c, 0, 86, 64
1, 83897, Note_off_c, 0, 93, 64
1, 83928, Note_on_c, 0, 47, 67
1, 83944, Note_on_c, 0, 86, 72
1, 83944, Note_off_c, 0, 83, 64
1, 83944, Note_off_c, 0, 49, 64
1, 83974, Note_off_c, 0, 81, 64
1, 83974, Note_off_c, 0, 90, 64
1, 84014, Note_on_c, 0, 45, 78
1, 84033, Note_on_c, 0, 90, 74
1, 84041, Note_off_c, 0, 47, 64
1, 84075, Note_off_c, 0, 86, 64
1, 84075, Control_c, 0, 64, 0
1, 84089, Note_off_c, 0, 45, 64
1, 84115, Note_off_c, 0, 90, 64
1, 84137, Note_on_c, 0, 81, 107
1, 84137, Note_on_c, 0, 86, 81
1, 84137, Note_on_c, 0, 93, 106
1, 84142, Note_on_c, 0, 38, 95
1, 84145, Note_on_c, 0, 50, 108
1, 84167, Note_off_c, 0, 38, 64
1, 84175, Note_on_c, 0, 40, 55
1, 84197, Control_c, 0, 64, 127
1, 84209, Note_off_c, 0, 40, 64
1, 84256, Note_on_c, 0, 49, 88
1, 84262, Note_off_c, 0, 50, 64
1, 84321, Note_off_c, 0, 93, 64
1, 84342, Note_off_c, 0, 86, 64
1, 84346, Note_on_c, 0, 47, 59
1, 84364, Note_off_c, 0, 49, 64
1, 84364, Note_off_c, 0, 81, 64
1, 84410, Note_on_c, 0, 45, 82
1, 84431, Note_off_c, 0, 47, 64
1, 84465, Note_off_c, 0, 45, 64
1, 84496, Control_c, 0, 64, 0
1, 84534, Note_on_c, 0, 83, 119
1, 84534, Note_on_c, 0, 47, 109
1, 84541, Note_on_c, 0, 35, 108
1, 84560, Note_off_c, 0, 35, 64
1, 84591, Note_off_c, 0, 83, 64
1, 84615, Note_off_c, 0, 47, 64
1, 84615, Control_c, 0, 64, 127
1, 84621, Note_on_c, 0, 85, 93
1, 84637, Note_on_c, 0, 45, 88
1, 84694, Note_off_c, 0, 85, 64
1, 84727, Note_on_c, 0, 43, 79
1, 84727, Note_on_c, 0, 83, 94
1, 84732, Note_on_c, 0, 86, 91
1, 84738, Note_off_c, 0, 45, 64
1, 84777, Note_off_c, 0, 86, 64
1, 84786, Note_off_c, 0, 83, 64
1, 84797, Note_on_c, 0, 42, 83
1, 84816, Note_on_c, 0, 88, 84
1, 84830, Note_off_c, 0, 43, 64
1, 84871, Note_off_c, 0, 42, 64
1, 84892, Control_c, 0, 64, 0
1, 84892, Note_off_c, 0, 88, 64
1, 84924, Note_on_c, 0, 90, 97
1, 84924, Note_on_c, 0, 47, 105
1, 84924, Note_on_c, 0, 35, 105
1, 84934, Note_on_c, 0, 83, 111
1, 84947, Note_off_c, 0, 35, 64
1, 85011, Control_c, 0, 64, 127
1, 85020, Note_on_c, 0, 45, 88
1, 85027, Note_on_c, 0, 86, 87
1, 85031, Note_off_c, 0, 47, 64
1, 85051, Note_off_c, 0, 83, 64
1, 85070, Note_off_c, 0, 90, 64
1, 85112, Note_on_c, 0, 43, 84
1, 85130, Note_on_c, 0, 90, 79
1, 85134, Note_on_c, 0, 83, 104
1, 85153, Note_off_c, 0, 45, 64
1, 85165, Note_off_c, 0, 86, 64
1, 85187, Note_on_c, 0, 42, 86
1, 85226, Note_off_c, 0, 43, 64
1, 85232, Note_off_c, 0, 83, 64
1, 85250, Note_off_c, 0, 90, 64
1, 85268, Note_off_c, 0, 42, 64
1, 85276, Control_c, 0, 64, 0
1, 85320, Note_on_c, 0, 47, 107
1, 85320, Note_on_c, 0, 35, 113
1, 85329, Note_on_c, 0, 89, 105
1, 85329, Note_on_c, 0, 83, 118
1, 85345, Note_off_c, 0, 35, 64
1, 85345, Note_on_c, 0, 45, 56
1, 85388, Note_off_c, 0, 45, 64
1, 85402, Note_off_c, 0, 83, 64
1, 85407, Control_c, 0, 64, 127
1, 85417, Note_on_c, 0, 85, 97
1, 85426, Note_on_c, 0, 45, 98
1, 85441, Note_off_c, 0, 47, 64
1, 85459, Note_off_c, 0, 89, 64
1, 85512, Note_on_c, 0, 43, 81
1, 85512, Note_off_c, 0, 85, 64
1, 85524, Note_on_c, 0, 89, 81
1, 85527, Note_on_c, 0, 83, 109
1, 85548, Note_off_c, 0, 45, 64
1, 85591, Note_on_c, 0, 42, 86
1, 85627, Note_off_c, 0, 83, 64
1, 85627, Note_off_c, 0, 43, 64
1, 85652, Note_off_c, 0, 89, 64
1, 85665, Note_off_c, 0, 42, 64
1, 85671, Control_c, 0, 64, 0
1, 85721, Note_on_c, 0, 47, 109
1, 85721, Note_on_c, 0, 88, 105
1, 85721, Note_on_c, 0, 83, 117
1, 85725, Note_on_c, 0, 35, 108
1, 85746, Note_off_c, 0, 35, 64
1, 85789, Note_off_c, 0, 83, 64
1, 85814, Control_c, 0, 64, 127
1, 85817, Note_on_c, 0, 84, 102
1, 85824, Note_on_c, 0, 45, 93
1, 85832, Note_off_c, 0, 47, 64
1, 85855, Note_off_c, 0, 88, 64
1, 85903, Note_on_c, 0, 43, 83
1, 85917, Note_on_c, 0, 88, 78
1, 85917, Note_on_c, 0, 83, 110
1, 85947, Note_off_c, 0, 84, 64
1, 85959, Note_off_c, 0, 45, 64
1, 85970, Note_on_c, 0, 42, 88
1, 85986, Note_off_c, 0, 83, 64
1, 86012, Note_off_c, 0, 43, 64
1, 86034, Note_off_c, 0, 88, 64
1, 86042, Control_c, 0, 64, 0
1, 86051, Note_off_c, 0, 42, 64
1, 86104, Note_on_c, 0, 47, 111
1, 86107, Note_on_c, 0, 83, 121
1, 86107, Note_on_c, 0, 35, 104
1, 86129, Note_off_c, 0, 35, 64
1, 86175, Control_c, 0, 64, 127
1, 86201, Note_on_c, 0, 85, 94
1, 86204, Note_off_c, 0, 47, 64
1, 86204, Note_on_c, 0, 45, 87
1, 86248, Note_off_c, 0, 83, 64
1, 86290, Note_on_c, 0, 43, 82
1, 86290, Note_on_c, 0, 86, 94
1, 86338, Note_off_c, 0, 85, 64
1, 86343, Note_off_c, 0, 45, 64
1, 86368, Note_on_c, 0, 42, 81
1, 86385, Note_on_c, 0, 88, 81
1, 86401, Note_off_c, 0, 43, 64
1, 86415, Control_c, 0, 64, 0
1, 86415, Note_off_c, 0, 86, 64
1, 86435, Note_off_c, 0, 42, 64
1, 86479, Note_on_c, 0, 47, 107
1, 86484, Note_on_c, 0, 90, 95
1, 86484, Note_off_c, 0, 88, 64
1, 86490, Note_on_c, 0, 83, 113
1, 86499, Note_on_c, 0, 35, 47
1, 86510, Note_on_c, 0, 87, 19
1, 86534, Control_c, 0, 64, 127
1, 86541, Note_off_c, 0, 35, 64
1, 86560, Note_off_c, 0, 87, 64
1, 86572, Note_off_c, 0, 47, 64
1, 86575, Note_on_c, 0, 45, 87
1, 86579, Note_on_c, 0, 86, 91
1, 86590, Note_off_c, 0, 90, 64
1, 86633, Note_off_c, 0, 83, 64
1, 86663, Note_on_c, 0, 43, 78
1, 86668, Note_on_c, 0, 90, 66
1, 86713, Note_off_c, 0, 45, 64
1, 86719, Note_off_c, 0, 86, 64
1, 86739, Note_on_c, 0, 42, 83
1, 86758, Note_on_c, 0, 95, 73
1, 86775, Note_off_c, 0, 43, 64
1, 86778, Note_off_c, 0, 90, 64
1, 86786, Control_c, 0, 64, 0
1, 86789, Note_off_c, 0, 95, 64
1, 86806, Note_off_c, 0, 42, 64
1, 86847, Note_on_c, 0, 90, 83
1, 86847, Note_on_c, 0, 83, 118
1, 86852, Note_on_c, 0, 47, 92
1, 86856, Note_on_c, 0, 35, 95
1, 86881, Note_off_c, 0, 35, 64
1, 86917, Control_c, 0, 64, 127
1, 86933, Note_off_c, 0, 47, 64
1, 86939, Note_on_c, 0, 45, 66
1, 86942, Note_on_c, 0, 86, 89
1, 86975, Note_off_c, 0, 90, 64
1, 87008, Note_off_c, 0, 83, 64
1, 87014, Note_on_c, 0, 43, 85
1, 87033, Note_on_c, 0, 90, 69
1, 87079, Note_off_c, 0, 45, 64
1, 87079, Note_off_c, 0, 86, 64
1, 87101, Note_on_c, 0, 42, 46
1, 87122, Control_c, 0, 64, 0
1, 87131, Note_off_c, 0, 43, 64
1, 87131, Note_on_c, 0, 95, 80
1, 87143, Note_off_c, 0, 42, 64
1, 87179, Note_off_c, 0, 90, 64
1, 87198, Note_on_c, 0, 47, 106
1, 87198, Note_on_c, 0, 83, 125
1, 87265, Control_c, 0, 64, 127
1, 87276, Note_on_c, 0, 45, 93
1, 87298, Note_off_c, 0, 47, 64
1, 87353, Note_on_c, 0, 43, 54
1, 87393, Note_off_c, 0, 95, 64
1, 87415, Note_off_c, 0, 45, 64
1, 87431, Note_on_c, 0, 42, 84
1, 87445, Note_off_c, 0, 83, 64
1, 87445, Note_off_c, 0, 43, 64
1, 87480, Control_c, 0, 64, 0
1, 87511, Note_off_c, 0, 42, 64
1, 87532, Note_on_c, 0, 47, 116
1, 87532, Note_on_c, 0, 35, 117
1, 87566, Note_off_c, 0, 35, 64
1, 87587, Note_off_c, 0, 47, 64
1, 87611, Control_c, 0, 64, 127
1, 87643, Note_on_c, 0, 92, 79
1, 87675, Note_on_c, 0, 93, 73
1, 87718, Note_on_c, 0, 94, 69
1, 87767, Note_on_c, 0, 86, 105
1, 87767, Note_on_c, 0, 95, 108
1, 87772, Note_on_c, 0, 59, 114
1, 87772, Note_on_c, 0, 56, 103
1, 87777, Note_on_c, 0, 50, 101
1, 87777, Note_on_c, 0, 53, 107
1, 87844, Note_off_c, 0, 92, 64
1, 87849, Note_off_c, 0, 93, 64
1, 87888, Note_off_c, 0, 94, 64
1, 87892, Note_off_c, 0, 53, 64
1, 87897, Note_off_c, 0, 59, 64
1, 87897, Note_off_c, 0, 56, 64
1, 87908, Note_off_c, 0, 50, 64
1, 88025, Note_off_c, 0, 86, 64
1, 88097, Note_off_c, 0, 95, 64
1, 88248, Control_c, 0, 64, 0
1, 88427, Note_on_c, 0, 47, 115
1, 88427, Note_on_c, 0, 35, 114
1, 88485, Note_off_c, 0, 47, 64
1, 88488, Control_c, 0, 64, 127
1, 88494, Note_off_c, 0, 35, 64
1, 88560, Note_on_c, 0, 92, 74
1, 88600, Note_on_c, 0, 93, 69
1, 88640, Note_on_c, 0, 94, 63
1, 88693, Note_off_c, 0, 92, 64
1, 88735, Note_on_c, 0, 95, 107
1, 88738, Note_on_c, 0, 86, 103
1, 88741, Note_on_c, 0, 59, 114
1, 88746, Note_on_c, 0, 50, 101
1, 88746, Note_on_c, 0, 54, 107
1, 88813, Note_off_c, 0, 93, 64
1, 88849, Note_off_c, 0, 94, 64
1, 88861, Note_off_c, 0, 54, 64
1, 88866, Note_off_c, 0, 59, 64
1, 88877, Note_off_c, 0, 50, 64
1, 88970, Note_off_c, 0, 95, 64
1, 88995, Note_off_c, 0, 86, 64
1, 89062, Control_c, 0, 64, 0
1, 89284, Note_on_c, 0, 71, 104
1, 89288, Note_on_c, 0, 55, 107
1, 89288, Note_on_c, 0, 43, 98
1, 89351, Control_c, 0, 64, 127
1, 89374, Note_on_c, 0, 73, 86
1, 89377, Note_off_c, 0, 43, 64
1, 89387, Note_off_c, 0, 55, 64
1, 89421, Note_off_c, 0, 71, 64
1, 89466, Note_on_c, 0, 74, 84
1, 89479, Note_on_c, 0, 59, 74
1, 89479, Note_on_c, 0, 50, 80
1, 89479, Note_on_c, 0, 55, 51
1, 89508, Note_off_c, 0, 59, 64
1, 89516, Note_off_c, 0, 50, 64
1, 89519, Note_off_c, 0, 55, 64
1, 89519, Note_off_c, 0, 73, 64
1, 89540, Note_on_c, 0, 76, 72
1, 89555, Control_c, 0, 64, 0
1, 89596, Note_off_c, 0, 74, 64
1, 89630, Note_on_c, 0, 78, 90
1, 89630, Note_on_c, 0, 54, 110
1, 89636, Note_on_c, 0, 42, 99
1, 89658, Note_off_c, 0, 76, 64
1, 89693, Note_off_c, 0, 42, 64
1, 89699, Note_off_c, 0, 78, 64
1, 89708, Note_off_c, 0, 54, 64
1, 89716, Note_on_c, 0, 74, 91
1, 89722, Control_c, 0, 64, 127
1, 89803, Note_on_c, 0, 54, 88
1, 89806, Note_on_c, 0, 50, 79
1, 89806, Note_on_c, 0, 59, 80
1, 89806, Note_on_c, 0, 78, 86
1, 89831, Note_off_c, 0, 54, 64
1, 89834, Note_off_c, 0, 59, 64
1, 89841, Note_off_c, 0, 50, 64
1, 89858, Note_off_c, 0, 74, 64
1, 89878, Control_c, 0, 64, 0
1, 89887, Note_on_c, 0, 83, 101
1, 89920, Note_off_c, 0, 78, 64
1, 89970, Note_on_c, 0, 42, 109
1, 89970, Note_on_c, 0, 30, 111
1, 89984, Note_on_c, 0, 82, 96
1, 89989, Note_off_c, 0, 30, 64
1, 90012, Note_off_c, 0, 83, 64
1, 90034, Note_off_c, 0, 42, 64
1, 90058, Control_c, 0, 64, 127
1, 90058, Note_on_c, 0, 78, 79
1, 90101, Note_off_c, 0, 82, 64
1, 90146, Note_on_c, 0, 58, 88
1, 90157, Note_on_c, 0, 54, 80
1, 90157, Note_on_c, 0, 49, 70
1, 90161, Note_on_c, 0, 82, 67
1, 90178, Note_off_c, 0, 58, 64
1, 90192, Note_off_c, 0, 54, 64
1, 90207, Note_off_c, 0, 49, 64
1, 90226, Note_off_c, 0, 78, 64
1, 90248, Note_on_c, 0, 85, 81
1, 90285, Control_c, 0, 64, 0
1, 90299, Note_off_c, 0, 82, 64
1, 90362, Note_off_c, 0, 85, 64
1, 90362, Note_on_c, 0, 83, 118
1, 90362, Note_on_c, 0, 47, 112
1, 90362, Note_on_c, 0, 35, 112
1, 90390, Note_off_c, 0, 35, 64
1, 90440, Note_off_c, 0, 47, 64
1, 90452, Control_c, 0, 64, 127
1, 90561, Note_on_c, 0, 54, 98
1, 90565, Note_on_c, 0, 59, 97
1, 90571, Note_on_c, 0, 50, 83
1, 90586, Note_off_c, 0, 59, 64
1, 90586, Note_off_c, 0, 54, 64
1, 90602, Note_off_c, 0, 50, 64
1, 90630, Note_off_c, 0, 83, 64
1, 90777, Control_c, 0, 64, 0
1, 90859, Note_on_c, 0, 47, 116
1, 90863, Note_on_c, 0, 35, 117
1, 90909, Note_off_c, 0, 47, 64
1, 90934, Note_off_c, 0, 35, 64
1, 90956, Control_c, 0, 64, 127
1, 91001, Note_on_c, 0, 92, 72
1, 91042, Note_on_c, 0, 93, 80
1, 91089, Note_on_c, 0, 94, 72
1, 91104, Note_off_c, 0, 92, 64
1, 91134, Note_on_c, 0, 95, 110
1, 91134, Note_on_c, 0, 59, 103
1, 91134, Note_on_c, 0, 86, 107
1, 91134, Note_on_c, 0, 53, 111
1, 91139, Note_on_c, 0, 50, 97
1, 91146, Note_on_c, 0, 56, 86
1, 91168, Note_off_c, 0, 50, 64
1, 91206, Note_off_c, 0, 53, 64
1, 91215, Note_off_c, 0, 59, 64
1, 91229, Note_off_c, 0, 93, 64
1, 91237, Note_off_c, 0, 56, 64
1, 91248, Note_off_c, 0, 94, 64
1, 91352, Note_off_c, 0, 86, 64
1, 91430, Note_off_c, 0, 95, 64
1, 91611, Control_c, 0, 64, 0
1, 91783, Note_on_c, 0, 47, 115
1, 91783, Note_on_c, 0, 35, 113
1, 91825, Note_off_c, 0, 35, 64
1, 91836, Note_off_c, 0, 47, 64
1, 91844, Control_c, 0, 64, 127
1, 91922, Note_on_c, 0, 92, 73
1, 91958, Note_on_c, 0, 93, 77
1, 92009, Note_on_c, 0, 94, 64
1, 92048, Note_off_c, 0, 92, 64
1, 92068, Note_on_c, 0, 95, 107
1, 92068, Note_on_c, 0, 86, 102
1, 92073, Note_on_c, 0, 59, 110
1, 92079, Note_on_c, 0, 54, 103
1, 92079, Note_on_c, 0, 50, 103
1, 92134, Note_off_c, 0, 93, 64
1, 92150, Note_off_c, 0, 54, 64
1, 92150, Note_off_c, 0, 50, 64
1, 92154, Note_off_c, 0, 94, 64
1, 92162, Note_off_c, 0, 59, 64
1, 92268, Note_off_c, 0, 95, 64
1, 92277, Note_off_c, 0, 86, 64
1, 92538, Control_c, 0, 64, 0
1, 92725, Note_on_c, 0, 83, 118
1, 92735, Note_on_c, 0, 55, 109
1, 92735, Note_on_c, 0, 43, 100
1, 92802, Control_c, 0, 64, 127
1, 92805, Note_off_c, 0, 43, 64
1, 92834, Note_off_c, 0, 55, 64
1, 92839, Note_on_c, 0, 85, 81
1, 92936, Note_on_c, 0, 59, 82
1, 92936, Note_on_c, 0, 86, 75
1, 92944, Note_on_c, 0, 55, 70
1, 92944, Note_on_c, 0, 50, 72
1, 92965, Note_off_c, 0, 59, 64
1, 92978, Note_off_c, 0, 55, 64
1, 92981, Note_off_c, 0, 85, 64
1, 92984, Note_off_c, 0, 50, 64
1, 93001, Note_on_c, 0, 88, 66
1, 93017, Note_off_c, 0, 83, 64
1, 93065, Control_c, 0, 64, 0
1, 93073, Note_off_c, 0, 86, 64
1, 93098, Note_on_c, 0, 90, 84
1, 93109, Note_on_c, 0, 54, 111
1, 93114, Note_on_c, 0, 42, 101
1, 93126, Note_off_c, 0, 88, 64
1, 93145, Note_off_c, 0, 42, 64
1, 93178, Note_off_c, 0, 54, 64
1, 93181, Note_off_c, 0, 90, 64
1, 93188, Note_on_c, 0, 86, 95
1, 93198, Control_c, 0, 64, 127
1, 93287, Note_on_c, 0, 90, 88
1, 93304, Note_on_c, 0, 50, 31
1, 93304, Note_on_c, 0, 54, 79
1, 93308, Note_on_c, 0, 59, 20
1, 93335, Note_off_c, 0, 54, 64
1, 93355, Note_off_c, 0, 59, 64
1, 93362, Note_off_c, 0, 50, 64
1, 93365, Note_off_c, 0, 86, 64
1, 93365, Control_c, 0, 64, 0
1, 93377, Note_on_c, 0, 95, 84
1, 93413, Note_off_c, 0, 90, 64
1, 93454, Note_on_c, 0, 42, 105
1, 93457, Note_on_c, 0, 30, 106
1, 93472, Note_on_c, 0, 94, 96
1, 93477, Note_off_c, 0, 30, 64
1, 93490, Note_off_c, 0, 95, 64
1, 93524, Note_off_c, 0, 42, 64
1, 93533, Control_c, 0, 64, 127
1, 93555, Note_on_c, 0, 90, 79
1, 93589, Note_off_c, 0, 94, 64
1, 93655, Note_on_c, 0, 54, 34
1, 93658, Note_on_c, 0, 61, 95
1, 93658, Note_on_c, 0, 58, 52
1, 93661, Note_on_c, 0, 52, 48
1, 93667, Note_on_c, 0, 94, 69
1, 93685, Note_off_c, 0, 61, 64
1, 93699, Note_off_c, 0, 58, 64
1, 93705, Note_off_c, 0, 52, 64
1, 93711, Note_off_c, 0, 54, 64
1, 93719, Note_off_c, 0, 90, 64
1, 93763, Note_on_c, 0, 97, 85
1, 93809, Control_c, 0, 64, 0
1, 93816, Note_off_c, 0, 94, 64
1, 93865, Note_off_c, 0, 97, 64
1, 93880, Note_on_c, 0, 47, 106
1, 93880, Note_on_c, 0, 95, 106
1, 93884, Note_on_c, 0, 35, 109
1, 93905, Note_off_c, 0, 35, 64
1, 93926, Note_off_c, 0, 47, 64
1, 93976, Control_c, 0, 64, 127
1, 94121, Note_on_c, 0, 59, 93
1, 94124, Note_on_c, 0, 54, 84
1, 94128, Note_on_c, 0, 50, 83
1, 94159, Note_off_c, 0, 59, 64
1, 94181, Note_off_c, 0, 54, 64
1, 94181, Note_off_c, 0, 50, 64
1, 94240, Note_off_c, 0, 95, 64
1, 94324, Control_c, 0, 64, 0
1, 94394, Note_on_c, 0, 47, 108
1, 94394, Note_on_c, 0, 35, 106
1, 94418, Note_off_c, 0, 35, 64
1, 94455, Note_off_c, 0, 47, 64
1, 94480, Control_c, 0, 64, 127
1, 94543, Note_on_c, 0, 92, 69
1, 94583, Note_on_c, 0, 93, 70
1, 94635, Note_on_c, 0, 94, 65
1, 94635, Note_off_c, 0, 92, 64
1, 94689, Note_on_c, 0, 95, 107
1, 94692, Note_on_c, 0, 59, 105
1, 94692, Note_on_c, 0, 86, 106
1, 94695, Note_on_c, 0, 50, 100
1, 94695, Note_on_c, 0, 53, 108
1, 94699, Note_on_c, 0, 56, 80
1, 94761, Note_off_c, 0, 50, 64
1, 94780, Note_off_c, 0, 53, 64
1, 94791, Note_off_c, 0, 93, 64
1, 94801, Note_off_c, 0, 59, 64
1, 94808, Note_off_c, 0, 56, 64
1, 94817, Note_off_c, 0, 94, 64
1, 94936, Note_off_c, 0, 86, 64
1, 94990, Note_off_c, 0, 95, 64
1, 95115, Control_c, 0, 64, 0
1, 95309, Note_on_c, 0, 47, 112
1, 95309, Note_on_c, 0, 35, 109
1, 95354, Note_off_c, 0, 35, 64
1, 95366, Note_off_c, 0, 47, 64
1, 95391, Control_c, 0, 64, 127
1, 95452, Note_on_c, 0, 92, 72
1, 95499, Note_on_c, 0, 93, 72
1, 95552, Note_on_c, 0, 94, 49
1, 95575, Note_off_c, 0, 92, 64
1, 95611, Note_on_c, 0, 95, 108
1, 95611, Note_on_c, 0, 86, 105
1, 95616, Note_on_c, 0, 59, 101
1, 95619, Note_on_c, 0, 50, 95
1, 95624, Note_on_c, 0, 53, 109
1, 95624, Note_on_c, 0, 56, 83
1, 95697, Note_off_c, 0, 93, 64
1, 95711, Note_off_c, 0, 94, 64
1, 95789, Note_off_c, 0, 59, 64
1, 95789, Note_off_c, 0, 56, 64
1, 95803, Note_off_c, 0, 53, 64
1, 95844, Note_off_c, 0, 50, 64
1, 95912, Note_off_c, 0, 86, 64
1, 95986, Note_off_c, 0, 95, 64
1, 96205, Control_c, 0, 64, 0
1, 96294, Note_on_c, 0, 47, 111
1, 96299, Note_on_c, 0, 35, 113
1, 96349, Note_off_c, 0, 35, 64
1, 96362, Control_c, 0, 64, 127
1, 96365, Note_off_c, 0, 47, 64
1, 96522, Note_on_c, 0, 92, 62
1, 96567, Note_on_c, 0, 93, 57
1, 96596, Note_on_c, 0, 94, 58
1, 96600, Note_off_c, 0, 92, 64
1, 96634, Note_on_c, 0, 59, 46
1, 96641, Note_on_c, 0, 50, 47
1, 96645, Note_on_c, 0, 53, 59
1, 96645, Note_on_c, 0, 95, 84
1, 96645, Note_on_c, 0, 56, 39
1, 96648, Note_on_c, 0, 86, 68
1, 96658, Note_off_c, 0, 93, 64
1, 96695, Note_off_c, 0, 94, 64
1, 96695, Note_off_c, 0, 53, 64
1, 96695, Note_off_c, 0, 56, 64
1, 96722, Note_off_c, 0, 50, 64
1, 96725, Note_off_c, 0, 59, 64
1, 96739, Note_off_c, 0, 86, 64
1, 96759, Note_off_c, 0, 95, 64
1, 96806, Note_on_c, 0, 92, 47
1, 96844, Note_on_c, 0, 93, 73
1, 96861, Note_on_c, 0, 94, 70
1, 96883, Note_on_c, 0, 59, 67
1, 96887, Note_on_c, 0, 50, 61
1, 96887, Note_on_c, 0, 53, 80
1, 96892, Note_on_c, 0, 86, 74
1, 96892, Note_on_c, 0, 56, 49
1, 96898, Note_on_c, 0, 95, 89
1, 96917, Note_off_c, 0, 92, 64
1, 96931, Note_off_c, 0, 93, 64
1, 96937, Note_off_c, 0, 50, 64
1, 96953, Note_off_c, 0, 56, 64
1, 96959, Note_off_c, 0, 94, 64
1, 96959, Note_off_c, 0, 53, 64
1, 96965, Note_off_c, 0, 59, 64
1, 96968, Note_off_c, 0, 86, 64
1, 96981, Note_off_c, 0, 95, 64
1, 97045, Note_on_c, 0, 92, 41
1, 97054, Note_on_c, 0, 93, 92
1, 97071, Note_on_c, 0, 94, 81
1, 97084, Note_on_c, 0, 59, 82
1, 97087, Note_on_c, 0, 86, 77
1, 97090, Note_off_c, 0, 92, 64
1, 97090, Note_on_c, 0, 53, 91
1, 97090, Note_on_c, 0, 50, 78
1, 97095, Note_on_c, 0, 56, 66
1, 97110, Note_on_c, 0, 95, 99
1, 97140, Note_off_c, 0, 50, 64
1, 97149, Note_off_c, 0, 93, 64
1, 97165, Note_off_c, 0, 86, 64
1, 97168, Note_off_c, 0, 94, 64
1, 97174, Note_off_c, 0, 53, 64
1, 97177, Note_off_c, 0, 59, 64
1, 97196, Note_off_c, 0, 95, 64
1, 97196, Note_off_c, 0, 56, 64
1, 97218, Note_on_c, 0, 92, 56
1, 97244, Note_on_c, 0, 93, 105
1, 97258, Note_on_c, 0, 94, 86
1, 97265, Note_on_c, 0, 86, 87
1, 97265, Note_on_c, 0, 59, 86
1, 97271, Note_on_c, 0, 50, 89
1, 97271, Note_on_c, 0, 53, 87
1, 97271, Note_on_c, 0, 56, 55
1, 97298, Note_on_c, 0, 95, 99
1, 97301, Note_off_c, 0, 92, 64
1, 97318, Note_off_c, 0, 50, 64
1, 97340, Note_off_c, 0, 86, 64
1, 97343, Note_off_c, 0, 59, 64
1, 97343, Note_off_c, 0, 93, 64
1, 97358, Note_off_c, 0, 94, 64
1, 97358, Note_off_c, 0, 53, 64
1, 97365, Note_off_c, 0, 95, 64
1, 97369, Note_off_c, 0, 56, 64
1, 97400, Note_on_c, 0, 92, 55
1, 97411, Note_on_c, 0, 93, 95
1, 97421, Note_on_c, 0, 86, 92
1, 97424, Note_on_c, 0, 53, 98
1, 97424, Note_on_c, 0, 94, 79
1, 97424, Note_on_c, 0, 59, 95
1, 97430, Note_on_c, 0, 56, 65
1, 97430, Note_on_c, 0, 50, 91
1, 97457, Note_on_c, 0, 95, 83
1, 97477, Note_off_c, 0, 92, 64
1, 97480, Note_off_c, 0, 50, 64
1, 97491, Note_off_c, 0, 86, 64
1, 97496, Note_off_c, 0, 59, 64
1, 97508, Note_off_c, 0, 93, 64
1, 97530, Note_off_c, 0, 53, 64
1, 97530, Note_off_c, 0, 94, 64
1, 97530, Note_off_c, 0, 95, 64
1, 97536, Note_off_c, 0, 56, 64
1, 97558, Note_on_c, 0, 92, 66
1, 97575, Note_on_c, 0, 93, 92
1, 97580, Note_on_c, 0, 86, 101
1, 97580, Note_on_c, 0, 94, 79
1, 97586, Note_on_c, 0, 53, 105
1, 97591, Note_on_c, 0, 59, 102
1, 97591, Note_on_c, 0, 50, 92
1, 97594, Note_on_c, 0, 56, 62
1, 97600, Note_on_c, 0, 95, 88
1, 97644, Note_off_c, 0, 92, 64
1, 97652, Note_off_c, 0, 93, 64
1, 97655, Note_off_c, 0, 59, 64
1, 97663, Note_off_c, 0, 50, 64
1, 97672, Note_off_c, 0, 86, 64
1, 97687, Note_off_c, 0, 53, 64
1, 97692, Note_off_c, 0, 94, 64
1, 97697, Note_off_c, 0, 56, 64
1, 97708, Note_off_c, 0, 95, 64
1, 97767, Note_on_c, 0, 92, 18
1, 97790, Note_on_c, 0, 93, 96
1, 97795, Note_on_c, 0, 86, 73
1, 97795, Note_on_c, 0, 59, 106
1, 97798, Note_on_c, 0, 94, 88
1, 97804, Note_on_c, 0, 50, 98
1, 97804, Note_on_c, 0, 53, 111
1, 97804, Note_on_c, 0, 56, 86
1, 97807, Note_on_c, 0, 95, 115
1, 97850, Note_off_c, 0, 50, 64
1, 97864, Note_off_c, 0, 59, 64
1, 97883, Note_off_c, 0, 56, 64
1, 97883, Note_off_c, 0, 93, 64
1, 97886, Note_off_c, 0, 86, 64
1, 97890, Note_off_c, 0, 53, 64
1, 97890, Note_off_c, 0, 92, 64
1, 97900, Note_off_c, 0, 95, 64
1, 97914, Note_off_c, 0, 94, 64
1, 98135, Control_c, 0, 64, 0
1, 98851, Note_on_c, 0, 35, 46
1, 98854, Control_c, 0, 64, 127
1, 98896, Note_off_c, 0, 35, 64
1, 98950, Note_on_c, 0, 47, 36
1, 99006, Note_off_c, 0, 47, 64
1, 99037, Note_on_c, 0, 35, 46
1, 99082, Note_off_c, 0, 35, 64
1, 99121, Note_on_c, 0, 47, 25
1, 99176, Note_off_c, 0, 47, 64
1, 99182, Note_on_c, 0, 35, 31
1, 99227, Note_off_c, 0, 35, 64
1, 99238, Note_on_c, 0, 47, 44
1, 99311, Note_off_c, 0, 47, 64
1, 99311, Note_on_c, 0, 35, 26
1, 99360, Note_off_c, 0, 35, 64
1, 99377, Note_on_c, 0, 47, 34
1, 99427, Note_off_c, 0, 47, 64
1, 99432, Note_on_c, 0, 35, 50
1, 99474, Note_off_c, 0, 35, 64
1, 99489, Note_on_c, 0, 47, 52
1, 99542, Note_off_c, 0, 47, 64
1, 99559, Note_on_c, 0, 35, 69
1, 99597, Note_off_c, 0, 35, 64
1, 99608, Note_on_c, 0, 47, 59
1, 99650, Note_off_c, 0, 47, 64
1, 99678, Note_on_c, 0, 35, 77
1, 99714, Note_off_c, 0, 35, 64
1, 99726, Note_on_c, 0, 47, 68
1, 99765, Note_off_c, 0, 47, 64
1, 99797, Note_on_c, 0, 35, 85
1, 99828, Note_on_c, 0, 47, 66
1, 99876, Note_off_c, 0, 35, 64
1, 99901, Note_off_c, 0, 47, 64
1, 99923, Note_on_c, 0, 47, 79
1, 99956, Note_off_c, 0, 47, 64
1, 99956, Note_on_c, 0, 35, 101
1, 100020, Note_on_c, 0, 47, 78
1, 100032, Note_off_c, 0, 35, 64
1, 100077, Note_on_c, 0, 35, 106
1, 100095, Note_off_c, 0, 47, 64
1, 100132, Note_on_c, 0, 47, 111
1, 100138, Note_off_c, 0, 35, 64
1, 100193, Note_off_c, 0, 47, 64
1, 100193, Note_on_c, 0, 35, 107
1, 100244, Note_off_c, 0, 35, 64
1, 100247, Note_on_c, 0, 47, 94
1, 100305, Note_on_c, 0, 35, 104
1, 100322, Note_off_c, 0, 47, 64
1, 100360, Note_off_c, 0, 35, 64
1, 100360, Note_on_c, 0, 47, 105
1, 100417, Note_on_c, 0, 35, 100
1, 100435, Note_off_c, 0, 47, 64
1, 100471, Note_on_c, 0, 47, 108
1, 100483, Note_off_c, 0, 35, 64
1, 100530, Note_off_c, 0, 47, 64
1, 100597, Note_on_c, 0, 35, 115
1, 100602, Note_on_c, 0, 23, 115
1, 100676, Note_off_c, 0, 23, 64
1, 100703, Note_off_c, 0, 35, 64
1, 101037, Note_on_c, 0, 92, 44
1, 101095, Note_on_c, 0, 93, 62
1, 101137, Note_on_c, 0, 94, 42
1, 101159, Note_on_c, 0, 95, 113
1, 101162, Note_on_c, 0, 86, 113
1, 101165, Note_on_c, 0, 47, 105
1, 101165, Note_on_c, 0, 59, 122
1, 101171, Note_on_c, 0, 54, 103
1, 101176, Note_on_c, 0, 50, 105
1, 101176, Note_off_c, 0, 92, 64
1, 101218, Note_off_c, 0, 93, 64
1, 101240, Note_off_c, 0, 47, 64
1, 101263, Note_off_c, 0, 86, 64
1, 101263, Note_off_c, 0, 59, 64
1, 101263, Note_off_c, 0, 54, 64
1, 101268, Note_off_c, 0, 95, 64
1, 101268, Note_off_c, 0, 50, 64
1, 101279, Note_off_c, 0, 94, 64
1, 101407, Control_c, 0, 64, 0
1, 103335, Control_c, 0, 64, 0
1, 104833, End_track
0, 0, End_of_file
