0, 0, Header, 0, 1, 384
1, 0, Start_track
1, 0, Tempo, 512820
1, 0, Title_t, "Lyric Pieces Op. 12 No. 12 Valse"
1, 0, Program_c, 0, 0
1, 0, Control_c, 0, 7, 101
1, 3, Program_c, 0, 0
1, 748, Note_on_c, 0, 45, 45
1, 748, Program_c, 0, 0
1, 748, Control_c, 0, 64, 127
1, 1069, Note_on_c, 0, 45, 0
1, 1069, Note_on_c, 0, 60, 36
1, 1069, Note_on_c, 0, 52, 30
1, 1386, Note_on_c, 0, 52, 0
1, 1386, Note_on_c, 0, 60, 0
1, 1386, Note_on_c, 0, 52, 31
1, 1389, Note_on_c, 0, 60, 37
1, 1710, Note_on_c, 0, 60, 0
1, 1710, Note_on_c, 0, 52, 0
1, 1710, Note_on_c, 0, 45, 45
1, 2031, Note_on_c, 0, 45, 0
1, 2031, Note_on_c, 0, 52, 30
1, 2031, Note_on_c, 0, 60, 36
1, 2345, Note_on_c, 0, 60, 0
1, 2345, Note_on_c, 0, 52, 0
1, 2345, Note_on_c, 0, 60, 37
1, 2348, Note_on_c, 0, 52, 31
1, 2663, Note_on_c, 0, 64, 50
1, 2663, Note_on_c, 0, 52, 0
1, 2663, Note_on_c, 0, 60, 0
1, 2666, Note_on_c, 0, 45, 45
1, 2666, Control_c, 0, 64, 0
1, 2733, Control_c, 0, 64, 127
1, 2987, Note_on_c, 0, 64, 0
1, 2987, Note_on_c, 0, 66, 49
1, 2987, Note_on_c, 0, 45, 0
1, 2990, Note_on_c, 0, 52, 31
1, 2990, Note_on_c, 0, 60, 37
1, 3065, Note_on_c, 0, 66, 0
1, 3094, Control_c, 0, 64, 0
1, 3142, Note_on_c, 0, 68, 49
1, 3180, Note_on_c, 0, 68, 0
1, 3296, Note_on_c, 0, 69, 53
1, 3296, Note_on_c, 0, 60, 0
1, 3296, Note_on_c, 0, 52, 0
1, 3299, Note_on_c, 0, 60, 37
1, 3299, Note_on_c, 0, 52, 31
1, 3454, Note_on_c, 0, 69, 0
1, 3611, Note_on_c, 0, 69, 56
1, 3611, Note_on_c, 0, 52, 0
1, 3611, Note_on_c, 0, 60, 0
1, 3614, Note_on_c, 0, 45, 45
1, 3653, Control_c, 0, 64, 127
1, 3931, Note_on_c, 0, 69, 0
1, 3931, Note_on_c, 0, 71, 58
1, 3931, Note_on_c, 0, 45, 0
1, 3934, Note_on_c, 0, 62, 36
1, 3934, Note_on_c, 0, 52, 30
1, 4006, Note_on_c, 0, 71, 0
1, 4013, Control_c, 0, 64, 0
1, 4082, Note_on_c, 0, 68, 50
1, 4120, Note_on_c, 0, 68, 0
1, 4233, Note_on_c, 0, 66, 48
1, 4233, Note_on_c, 0, 52, 0
1, 4233, Note_on_c, 0, 62, 0
1, 4236, Note_on_c, 0, 62, 37
1, 4236, Note_on_c, 0, 52, 31
1, 4314, Note_on_c, 0, 66, 0
1, 4515, Note_on_c, 0, 69, 39
1, 4555, Note_on_c, 0, 69, 0
1, 4555, Note_on_c, 0, 66, 50
1, 4555, Note_on_c, 0, 52, 0
1, 4558, Note_on_c, 0, 62, 0
1, 4558, Note_on_c, 0, 45, 45
1, 4719, Note_on_c, 0, 66, 0
1, 4883, Note_on_c, 0, 64, 47
1, 4883, Note_on_c, 0, 45, 0
1, 4883, Note_on_c, 0, 60, 33
1, 4886, Note_on_c, 0, 52, 27
1, 4943, Control_c, 0, 64, 127
1, 5198, Note_on_c, 0, 52, 0
1, 5198, Note_on_c, 0, 60, 0
1, 5198, Note_on_c, 0, 60, 33
1, 5201, Note_on_c, 0, 52, 27
1, 5521, Note_on_c, 0, 52, 0
1, 5521, Note_on_c, 0, 60, 0
1, 5521, Note_on_c, 0, 45, 45
1, 5841, Note_on_c, 0, 64, 0
1, 5841, Note_on_c, 0, 45, 0
1, 5841, Note_on_c, 0, 52, 27
1, 5844, Note_on_c, 0, 60, 32
1, 6151, Note_on_c, 0, 60, 0
1, 6151, Note_on_c, 0, 52, 0
1, 6151, Note_on_c, 0, 60, 33
1, 6154, Note_on_c, 0, 52, 27
1, 6475, Note_on_c, 0, 52, 0
1, 6475, Note_on_c, 0, 60, 0
1, 6475, Note_on_c, 0, 45, 45
1, 6478, Control_c, 0, 64, 0
1, 6543, Control_c, 0, 64, 127
1, 6632, Note_on_c, 0, 64, 43
1, 6710, Note_on_c, 0, 64, 0
1, 6788, Note_on_c, 0, 66, 46
1, 6788, Note_on_c, 0, 45, 0
1, 6788, Note_on_c, 0, 60, 37
1, 6791, Note_on_c, 0, 52, 31
1, 6827, Note_on_c, 0, 66, 0
1, 6866, Control_c, 0, 64, 0
1, 6943, Note_on_c, 0, 68, 49
1, 6981, Note_on_c, 0, 68, 0
1, 7097, Note_on_c, 0, 68, 54
1, 7097, Note_on_c, 0, 52, 0
1, 7097, Note_on_c, 0, 60, 0
1, 7100, Note_on_c, 0, 52, 31
1, 7100, Note_on_c, 0, 60, 37
1, 7257, Note_on_c, 0, 68, 0
1, 7257, Note_on_c, 0, 69, 51
1, 7417, Note_on_c, 0, 69, 0
1, 7417, Note_on_c, 0, 60, 0
1, 7417, Note_on_c, 0, 52, 0
1, 7420, Note_on_c, 0, 45, 45
1, 7457, Control_c, 0, 64, 127
1, 7569, Note_on_c, 0, 69, 51
1, 7607, Note_on_c, 0, 69, 0
1, 7724, Note_on_c, 0, 71, 56
1, 7724, Note_on_c, 0, 45, 0
1, 7724, Note_on_c, 0, 52, 30
1, 7727, Note_on_c, 0, 62, 36
1, 7762, Note_on_c, 0, 71, 0
1, 7797, Control_c, 0, 64, 0
1, 7874, Note_on_c, 0, 68, 50
1, 7912, Note_on_c, 0, 68, 0
1, 8025, Note_on_c, 0, 68, 48
1, 8025, Note_on_c, 0, 62, 0
1, 8025, Note_on_c, 0, 52, 0
1, 8028, Note_on_c, 0, 62, 37
1, 8028, Note_on_c, 0, 52, 31
1, 8186, Note_on_c, 0, 68, 0
1, 8186, Note_on_c, 0, 66, 50
1, 8266, Note_on_c, 0, 66, 0
1, 8306, Note_on_c, 0, 69, 39
1, 8347, Note_on_c, 0, 69, 0
1, 8347, Note_on_c, 0, 66, 50
1, 8347, Note_on_c, 0, 52, 0
1, 8350, Note_on_c, 0, 62, 0
1, 8350, Note_on_c, 0, 45, 45
1, 8511, Note_on_c, 0, 66, 0
1, 8675, Note_on_c, 0, 64, 47
1, 8675, Note_on_c, 0, 45, 0
1, 8675, Note_on_c, 0, 60, 33
1, 8678, Note_on_c, 0, 52, 27
1, 8734, Control_c, 0, 64, 127
1, 8987, Note_on_c, 0, 52, 0
1, 8987, Note_on_c, 0, 60, 0
1, 8987, Note_on_c, 0, 60, 33
1, 8990, Note_on_c, 0, 52, 27
1, 9310, Note_on_c, 0, 52, 0
1, 9310, Note_on_c, 0, 60, 0
1, 9310, Note_on_c, 0, 45, 45
1, 9630, Note_on_c, 0, 64, 0
1, 9630, Note_on_c, 0, 45, 0
1, 9630, Note_on_c, 0, 60, 32
1, 9633, Note_on_c, 0, 52, 27
1, 9939, Note_on_c, 0, 52, 0
1, 9939, Note_on_c, 0, 60, 0
1, 9939, Note_on_c, 0, 52, 27
1, 9942, Note_on_c, 0, 60, 33
1, 10221, Control_c, 0, 64, 0
1, 10258, Note_on_c, 0, 67, 37
1, 10258, Note_on_c, 0, 76, 44
1, 10258, Note_on_c, 0, 60, 0
1, 10261, Note_on_c, 0, 52, 0
1, 10261, Note_on_c, 0, 60, 28
1, 10261, Note_on_c, 0, 64, 33
1, 10500, Note_on_c, 0, 76, 0
1, 10500, Note_on_c, 0, 67, 0
1, 10500, Note_on_c, 0, 64, 0
1, 10503, Note_on_c, 0, 60, 0
1, 10580, Note_on_c, 0, 76, 48
1, 10580, Note_on_c, 0, 68, 40
1, 10580, Note_on_c, 0, 65, 36
1, 10583, Note_on_c, 0, 60, 30
1, 10818, Note_on_c, 0, 68, 0
1, 10818, Note_on_c, 0, 76, 0
1, 10818, Note_on_c, 0, 60, 0
1, 10821, Note_on_c, 0, 65, 0
1, 10898, Note_on_c, 0, 69, 44
1, 10898, Note_on_c, 0, 76, 52
1, 10898, Note_on_c, 0, 60, 33
1, 10901, Note_on_c, 0, 66, 39
1, 11134, Note_on_c, 0, 76, 0
1, 11134, Note_on_c, 0, 69, 0
1, 11134, Note_on_c, 0, 66, 0
1, 11137, Note_on_c, 0, 60, 0
1, 11213, Note_on_c, 0, 71, 45
1, 11213, Note_on_c, 0, 76, 54
1, 11213, Note_on_c, 0, 62, 38
1, 11216, Note_on_c, 0, 67, 45
1, 11216, Note_on_c, 0, 55, 38
1, 11254, Control_c, 0, 64, 127
1, 11316, Note_on_c, 0, 76, 0
1, 11316, Note_on_c, 0, 74, 44
1, 11420, Note_on_c, 0, 74, 0
1, 11420, Note_on_c, 0, 72, 44
1, 11524, Note_on_c, 0, 72, 0
1, 11524, Note_on_c, 0, 74, 48
1, 11532, Control_c, 0, 64, 0
1, 11671, Control_c, 0, 64, 127
1, 12170, Note_on_c, 0, 74, 0
1, 12170, Note_on_c, 0, 71, 0
1, 12170, Note_on_c, 0, 72, 44
1, 12173, Note_on_c, 0, 64, 37
1, 12173, Note_on_c, 0, 55, 0
1, 12173, Note_on_c, 0, 67, 0
1, 12176, Note_on_c, 0, 62, 0
1, 12176, Note_on_c, 0, 60, 33
1, 12176, Note_on_c, 0, 57, 28
1, 12179, Control_c, 0, 64, 0
1, 12411, Note_on_c, 0, 64, 0
1, 12411, Note_on_c, 0, 72, 0
1, 12411, Note_on_c, 0, 57, 0
1, 12414, Note_on_c, 0, 60, 0
1, 12491, Note_on_c, 0, 72, 48
1, 12491, Note_on_c, 0, 65, 40
1, 12491, Note_on_c, 0, 57, 30
1, 12494, Note_on_c, 0, 62, 36
1, 12730, Note_on_c, 0, 65, 0
1, 12730, Note_on_c, 0, 72, 0
1, 12730, Note_on_c, 0, 62, 0
1, 12733, Note_on_c, 0, 57, 0
1, 12808, Note_on_c, 0, 66, 44
1, 12808, Note_on_c, 0, 72, 52
1, 12808, Note_on_c, 0, 63, 39
1, 12811, Note_on_c, 0, 57, 33
1, 13045, Note_on_c, 0, 72, 0
1, 13045, Note_on_c, 0, 66, 0
1, 13045, Note_on_c, 0, 57, 0
1, 13048, Note_on_c, 0, 63, 0
1, 13124, Note_on_c, 0, 67, 45
1, 13124, Note_on_c, 0, 72, 54
1, 13124, Note_on_c, 0, 59, 38
1, 13127, Note_on_c, 0, 64, 45
1, 13127, Note_on_c, 0, 52, 38
1, 13164, Control_c, 0, 64, 127
1, 13227, Note_on_c, 0, 72, 0
1, 13227, Note_on_c, 0, 71, 44
1, 13331, Note_on_c, 0, 71, 0
1, 13331, Note_on_c, 0, 69, 44
1, 13434, Note_on_c, 0, 69, 0
1, 13434, Note_on_c, 0, 71, 48
1, 13443, Control_c, 0, 64, 0
1, 13581, Control_c, 0, 64, 127
1, 14082, Note_on_c, 0, 71, 0
1, 14082, Note_on_c, 0, 67, 0
1, 14082, Note_on_c, 0, 65, 45
1, 14085, Note_on_c, 0, 71, 54
1, 14085, Note_on_c, 0, 52, 0
1, 14085, Note_on_c, 0, 64, 0
1, 14088, Note_on_c, 0, 59, 0
1, 14088, Note_on_c, 0, 60, 45
1, 14088, Note_on_c, 0, 53, 38
1, 14091, Control_c, 0, 64, 0
1, 14122, Control_c, 0, 64, 127
1, 14184, Note_on_c, 0, 71, 0
1, 14184, Note_on_c, 0, 69, 44
1, 14286, Note_on_c, 0, 69, 0
1, 14286, Note_on_c, 0, 67, 44
1, 14388, Note_on_c, 0, 67, 0
1, 14388, Note_on_c, 0, 69, 48
1, 14397, Control_c, 0, 64, 0
1, 14535, Control_c, 0, 64, 127
1, 15012, Note_on_c, 0, 69, 0
1, 15012, Note_on_c, 0, 65, 0
1, 15012, Note_on_c, 0, 65, 59
1, 15015, Note_on_c, 0, 67, 43
1, 15015, Note_on_c, 0, 53, 0
1, 15015, Note_on_c, 0, 60, 0
1, 15018, Note_on_c, 0, 55, 41
1, 15018, Note_on_c, 0, 60, 49
1, 15018, Control_c, 0, 64, 0
1, 15021, Note_on_c, 0, 48, 41
1, 15053, Control_c, 0, 64, 127
1, 15115, Note_on_c, 0, 65, 0
1, 15115, Note_on_c, 0, 64, 48
1, 15215, Note_on_c, 0, 62, 48
1, 15218, Note_on_c, 0, 64, 0
1, 15317, Note_on_c, 0, 62, 0
1, 15317, Note_on_c, 0, 64, 52
1, 15328, Control_c, 0, 64, 0
1, 15466, Control_c, 0, 64, 127
1, 15943, Note_on_c, 0, 64, 0
1, 15943, Note_on_c, 0, 67, 0
1, 15943, Note_on_c, 0, 60, 51
1, 15946, Note_on_c, 0, 65, 61
1, 15946, Note_on_c, 0, 60, 0
1, 15946, Note_on_c, 0, 55, 0
1, 15949, Note_on_c, 0, 57, 52
1, 15949, Note_on_c, 0, 50, 44
1, 15949, Control_c, 0, 64, 0
1, 15952, Note_on_c, 0, 48, 0
1, 16273, Note_on_c, 0, 65, 0
1, 16273, Note_on_c, 0, 60, 0
1, 16273, Note_on_c, 0, 67, 61
1, 16276, Note_on_c, 0, 60, 51
1, 16276, Note_on_c, 0, 50, 0
1, 16276, Note_on_c, 0, 57, 0
1, 16279, Note_on_c, 0, 52, 42
1, 16279, Note_on_c, 0, 57, 50
1, 16359, Note_on_c, 0, 60, 0
1, 16359, Note_on_c, 0, 67, 0
1, 16359, Note_on_c, 0, 57, 0
1, 16362, Note_on_c, 0, 52, 0
1, 16446, Note_on_c, 0, 69, 57
1, 16446, Note_on_c, 0, 60, 48
1, 16446, Note_on_c, 0, 57, 48
1, 16449, Note_on_c, 0, 53, 40
1, 16534, Note_on_c, 0, 60, 0
1, 16534, Note_on_c, 0, 69, 0
1, 16534, Note_on_c, 0, 53, 0
1, 16537, Note_on_c, 0, 57, 0
1, 16623, Note_on_c, 0, 65, 66
1, 16623, Note_on_c, 0, 60, 56
1, 16623, Note_on_c, 0, 50, 48
1, 16626, Note_on_c, 0, 57, 57
1, 16839, Note_on_c, 0, 60, 0
1, 16839, Note_on_c, 0, 65, 0
1, 16839, Note_on_c, 0, 57, 0
1, 16842, Note_on_c, 0, 50, 0
1, 17055, Note_on_c, 0, 62, 48
1, 17055, Note_on_c, 0, 59, 40
1, 17055, Note_on_c, 0, 57, 42
1, 17058, Note_on_c, 0, 53, 35
1, 17351, Note_on_c, 0, 59, 0
1, 17351, Note_on_c, 0, 62, 0
1, 17351, Note_on_c, 0, 53, 0
1, 17354, Note_on_c, 0, 57, 0
1, 17657, Note_on_c, 0, 64, 41
1, 17657, Note_on_c, 0, 59, 34
1, 17657, Note_on_c, 0, 52, 35
1, 17660, Note_on_c, 0, 56, 42
1, 17989, Control_c, 0, 64, 127
1, 18986, Note_on_c, 0, 59, 0
1, 18986, Note_on_c, 0, 64, 0
1, 18986, Note_on_c, 0, 56, 0
1, 18989, Note_on_c, 0, 52, 0
1, 18989, Note_on_c, 0, 45, 45
1, 18989, Control_c, 0, 64, 0
1, 19217, Control_c, 0, 64, 127
1, 19307, Note_on_c, 0, 45, 0
1, 19307, Note_on_c, 0, 60, 36
1, 19307, Note_on_c, 0, 52, 30
1, 19623, Note_on_c, 0, 52, 0
1, 19623, Note_on_c, 0, 60, 0
1, 19623, Note_on_c, 0, 60, 37
1, 19626, Note_on_c, 0, 52, 31
1, 19947, Note_on_c, 0, 52, 0
1, 19947, Note_on_c, 0, 60, 0
1, 19947, Note_on_c, 0, 45, 45
1, 20268, Note_on_c, 0, 45, 0
1, 20268, Note_on_c, 0, 52, 30
1, 20268, Note_on_c, 0, 60, 36
1, 20579, Note_on_c, 0, 60, 0
1, 20579, Note_on_c, 0, 52, 0
1, 20579, Note_on_c, 0, 52, 31
1, 20582, Note_on_c, 0, 60, 37
1, 20898, Note_on_c, 0, 64, 50
1, 20898, Note_on_c, 0, 60, 0
1, 20898, Note_on_c, 0, 52, 0
1, 20901, Note_on_c, 0, 45, 45
1, 20901, Control_c, 0, 64, 0
1, 20967, Control_c, 0, 64, 127
1, 21222, Note_on_c, 0, 64, 0
1, 21222, Note_on_c, 0, 66, 48
1, 21222, Note_on_c, 0, 45, 0
1, 21225, Note_on_c, 0, 52, 31
1, 21225, Note_on_c, 0, 60, 37
1, 21299, Note_on_c, 0, 66, 0
1, 21306, Control_c, 0, 64, 0
1, 21376, Note_on_c, 0, 68, 46
1, 21415, Note_on_c, 0, 68, 0
1, 21531, Note_on_c, 0, 69, 53
1, 21531, Note_on_c, 0, 60, 0
1, 21531, Note_on_c, 0, 52, 0
1, 21534, Note_on_c, 0, 52, 31
1, 21534, Note_on_c, 0, 60, 37
1, 21688, Note_on_c, 0, 69, 0
1, 21846, Note_on_c, 0, 69, 54
1, 21846, Note_on_c, 0, 60, 0
1, 21846, Note_on_c, 0, 52, 0
1, 21849, Note_on_c, 0, 45, 45
1, 21888, Control_c, 0, 64, 127
1, 22165, Note_on_c, 0, 69, 0
1, 22165, Note_on_c, 0, 71, 58
1, 22165, Note_on_c, 0, 45, 0
1, 22168, Note_on_c, 0, 52, 30
1, 22168, Note_on_c, 0, 62, 36
1, 22241, Note_on_c, 0, 71, 0
1, 22253, Control_c, 0, 64, 0
1, 22316, Note_on_c, 0, 68, 53
1, 22354, Note_on_c, 0, 68, 0
1, 22467, Note_on_c, 0, 66, 48
1, 22467, Note_on_c, 0, 62, 0
1, 22467, Note_on_c, 0, 52, 0
1, 22470, Note_on_c, 0, 52, 31
1, 22470, Note_on_c, 0, 62, 37
1, 22624, Note_on_c, 0, 66, 0
1, 22741, Note_on_c, 0, 69, 39
1, 22781, Note_on_c, 0, 69, 0
1, 22781, Note_on_c, 0, 66, 50
1, 22781, Note_on_c, 0, 62, 0
1, 22784, Note_on_c, 0, 52, 0
1, 22784, Note_on_c, 0, 45, 45
1, 22945, Note_on_c, 0, 66, 0
1, 23109, Note_on_c, 0, 64, 47
1, 23109, Note_on_c, 0, 45, 0
1, 23109, Note_on_c, 0, 60, 33
1, 23112, Note_on_c, 0, 52, 27
1, 23168, Control_c, 0, 64, 127
1, 23424, Note_on_c, 0, 52, 0
1, 23424, Note_on_c, 0, 60, 0
1, 23424, Note_on_c, 0, 52, 27
1, 23427, Note_on_c, 0, 60, 33
1, 23746, Note_on_c, 0, 60, 0
1, 23746, Note_on_c, 0, 52, 0
1, 23746, Note_on_c, 0, 45, 45
1, 24067, Note_on_c, 0, 64, 0
1, 24067, Note_on_c, 0, 45, 0
1, 24067, Note_on_c, 0, 60, 32
1, 24070, Note_on_c, 0, 52, 27
1, 24377, Note_on_c, 0, 52, 0
1, 24377, Note_on_c, 0, 60, 0
1, 24377, Note_on_c, 0, 60, 33
1, 24380, Note_on_c, 0, 52, 27
1, 24702, Note_on_c, 0, 52, 0
1, 24702, Note_on_c, 0, 60, 0
1, 24702, Note_on_c, 0, 45, 45
1, 24705, Control_c, 0, 64, 0
1, 24768, Control_c, 0, 64, 127
1, 24856, Note_on_c, 0, 64, 43
1, 24895, Note_on_c, 0, 64, 0
1, 25013, Note_on_c, 0, 66, 48
1, 25013, Note_on_c, 0, 45, 0
1, 25013, Note_on_c, 0, 52, 31
1, 25016, Note_on_c, 0, 60, 37
1, 25051, Note_on_c, 0, 66, 0
1, 25099, Control_c, 0, 64, 0
1, 25167, Note_on_c, 0, 68, 44
1, 25206, Note_on_c, 0, 68, 0
1, 25321, Note_on_c, 0, 68, 54
1, 25321, Note_on_c, 0, 60, 0
1, 25321, Note_on_c, 0, 52, 0
1, 25324, Note_on_c, 0, 52, 31
1, 25324, Note_on_c, 0, 60, 37
1, 25481, Note_on_c, 0, 68, 0
1, 25481, Note_on_c, 0, 69, 50
1, 25641, Note_on_c, 0, 69, 0
1, 25641, Note_on_c, 0, 60, 0
1, 25641, Note_on_c, 0, 52, 0
1, 25644, Note_on_c, 0, 45, 45
1, 25681, Control_c, 0, 64, 127
1, 25794, Note_on_c, 0, 69, 52
1, 25833, Note_on_c, 0, 69, 0
1, 25949, Note_on_c, 0, 71, 56
1, 25949, Note_on_c, 0, 45, 0
1, 25949, Note_on_c, 0, 52, 30
1, 25952, Note_on_c, 0, 62, 36
1, 25987, Note_on_c, 0, 71, 0
1, 26040, Control_c, 0, 64, 0
1, 26102, Note_on_c, 0, 68, 50
1, 26140, Note_on_c, 0, 68, 0
1, 26254, Note_on_c, 0, 68, 48
1, 26254, Note_on_c, 0, 62, 0
1, 26254, Note_on_c, 0, 52, 0
1, 26257, Note_on_c, 0, 52, 31
1, 26257, Note_on_c, 0, 62, 37
1, 26415, Note_on_c, 0, 68, 0
1, 26415, Note_on_c, 0, 66, 50
1, 26496, Note_on_c, 0, 66, 0
1, 26536, Note_on_c, 0, 69, 39
1, 26577, Note_on_c, 0, 69, 0
1, 26577, Note_on_c, 0, 66, 50
1, 26577, Note_on_c, 0, 62, 0
1, 26580, Note_on_c, 0, 52, 0
1, 26580, Note_on_c, 0, 45, 45
1, 26740, Note_on_c, 0, 66, 0
1, 26904, Note_on_c, 0, 64, 47
1, 26904, Note_on_c, 0, 45, 0
1, 26904, Note_on_c, 0, 52, 27
1, 26907, Note_on_c, 0, 60, 33
1, 26964, Control_c, 0, 64, 127
1, 27217, Note_on_c, 0, 60, 0
1, 27217, Note_on_c, 0, 52, 0
1, 27217, Note_on_c, 0, 60, 33
1, 27220, Note_on_c, 0, 52, 27
1, 27539, Note_on_c, 0, 52, 0
1, 27539, Note_on_c, 0, 60, 0
1, 27539, Note_on_c, 0, 45, 45
1, 27857, Note_on_c, 0, 64, 0
1, 27857, Note_on_c, 0, 45, 0
1, 27857, Note_on_c, 0, 60, 32
1, 27860, Note_on_c, 0, 52, 27
1, 28165, Note_on_c, 0, 52, 0
1, 28165, Note_on_c, 0, 60, 0
1, 28165, Note_on_c, 0, 60, 33
1, 28168, Note_on_c, 0, 52, 27
1, 28453, Control_c, 0, 64, 0
1, 28489, Note_on_c, 0, 67, 37
1, 28489, Note_on_c, 0, 76, 44
1, 28489, Note_on_c, 0, 52, 0
1, 28492, Note_on_c, 0, 60, 0
1, 28492, Note_on_c, 0, 60, 28
1, 28492, Note_on_c, 0, 64, 33
1, 28732, Note_on_c, 0, 76, 0
1, 28732, Note_on_c, 0, 67, 0
1, 28732, Note_on_c, 0, 64, 0
1, 28735, Note_on_c, 0, 60, 0
1, 28811, Note_on_c, 0, 68, 40
1, 28811, Note_on_c, 0, 76, 48
1, 28811, Note_on_c, 0, 65, 36
1, 28814, Note_on_c, 0, 60, 30
1, 29050, Note_on_c, 0, 76, 0
1, 29050, Note_on_c, 0, 68, 0
1, 29050, Note_on_c, 0, 60, 0
1, 29053, Note_on_c, 0, 65, 0
1, 29129, Note_on_c, 0, 69, 44
1, 29129, Note_on_c, 0, 76, 52
1, 29129, Note_on_c, 0, 66, 39
1, 29132, Note_on_c, 0, 60, 33
1, 29366, Note_on_c, 0, 76, 0
1, 29366, Note_on_c, 0, 69, 0
1, 29366, Note_on_c, 0, 60, 0
1, 29369, Note_on_c, 0, 66, 0
1, 29444, Note_on_c, 0, 76, 54
1, 29444, Note_on_c, 0, 71, 45
1, 29444, Note_on_c, 0, 55, 38
1, 29447, Note_on_c, 0, 67, 45
1, 29447, Note_on_c, 0, 62, 38
1, 29485, Control_c, 0, 64, 127
1, 29548, Note_on_c, 0, 76, 0
1, 29548, Note_on_c, 0, 74, 44
1, 29651, Note_on_c, 0, 74, 0
1, 29651, Note_on_c, 0, 72, 44
1, 29755, Note_on_c, 0, 72, 0
1, 29755, Note_on_c, 0, 74, 48
1, 29764, Control_c, 0, 64, 0
1, 29902, Control_c, 0, 64, 127
1, 30401, Note_on_c, 0, 74, 0
1, 30401, Note_on_c, 0, 71, 0
1, 30401, Note_on_c, 0, 64, 37
1, 30404, Note_on_c, 0, 72, 44
1, 30404, Note_on_c, 0, 62, 0
1, 30404, Note_on_c, 0, 67, 0
1, 30407, Note_on_c, 0, 55, 0
1, 30407, Note_on_c, 0, 60, 33
1, 30407, Note_on_c, 0, 57, 28
1, 30410, Control_c, 0, 64, 0
1, 30642, Note_on_c, 0, 72, 0
1, 30642, Note_on_c, 0, 64, 0
1, 30642, Note_on_c, 0, 57, 0
1, 30645, Note_on_c, 0, 60, 0
1, 30722, Note_on_c, 0, 72, 48
1, 30722, Note_on_c, 0, 65, 40
1, 30722, Note_on_c, 0, 62, 36
1, 30725, Note_on_c, 0, 57, 30
1, 30961, Note_on_c, 0, 65, 0
1, 30961, Note_on_c, 0, 72, 0
1, 30961, Note_on_c, 0, 57, 0
1, 30964, Note_on_c, 0, 62, 0
1, 31040, Note_on_c, 0, 72, 52
1, 31040, Note_on_c, 0, 66, 44
1, 31040, Note_on_c, 0, 63, 39
1, 31043, Note_on_c, 0, 57, 33
1, 31277, Note_on_c, 0, 66, 0
1, 31277, Note_on_c, 0, 72, 0
1, 31277, Note_on_c, 0, 57, 0
1, 31280, Note_on_c, 0, 63, 0
1, 31355, Note_on_c, 0, 72, 54
1, 31355, Note_on_c, 0, 67, 45
1, 31355, Note_on_c, 0, 52, 38
1, 31358, Note_on_c, 0, 64, 45
1, 31358, Note_on_c, 0, 59, 38
1, 31396, Control_c, 0, 64, 127
1, 31458, Note_on_c, 0, 72, 0
1, 31458, Note_on_c, 0, 71, 44
1, 31562, Note_on_c, 0, 71, 0
1, 31562, Note_on_c, 0, 69, 44
1, 31666, Note_on_c, 0, 69, 0
1, 31666, Note_on_c, 0, 71, 48
1, 31674, Control_c, 0, 64, 0
1, 31813, Control_c, 0, 64, 127
1, 32313, Note_on_c, 0, 71, 0
1, 32313, Note_on_c, 0, 67, 0
1, 32313, Note_on_c, 0, 65, 45
1, 32316, Note_on_c, 0, 71, 54
1, 32316, Note_on_c, 0, 59, 0
1, 32316, Note_on_c, 0, 64, 0
1, 32319, Note_on_c, 0, 52, 0
1, 32319, Note_on_c, 0, 53, 38
1, 32319, Note_on_c, 0, 60, 45
1, 32322, Control_c, 0, 64, 0
1, 32353, Control_c, 0, 64, 127
1, 32415, Note_on_c, 0, 71, 0
1, 32415, Note_on_c, 0, 69, 44
1, 32517, Note_on_c, 0, 69, 0
1, 32517, Note_on_c, 0, 67, 44
1, 32620, Note_on_c, 0, 67, 0
1, 32620, Note_on_c, 0, 69, 48
1, 32628, Control_c, 0, 64, 0
1, 32767, Control_c, 0, 64, 127
1, 33244, Note_on_c, 0, 69, 0
1, 33244, Note_on_c, 0, 65, 0
1, 33244, Note_on_c, 0, 65, 59
1, 33247, Note_on_c, 0, 67, 44
1, 33247, Note_on_c, 0, 60, 0
1, 33247, Note_on_c, 0, 53, 0
1, 33250, Note_on_c, 0, 60, 49
1, 33250, Note_on_c, 0, 55, 41
1, 33250, Control_c, 0, 64, 0
1, 33253, Note_on_c, 0, 48, 41
1, 33284, Control_c, 0, 64, 127
1, 33346, Note_on_c, 0, 65, 0
1, 33346, Note_on_c, 0, 64, 48
1, 33446, Note_on_c, 0, 62, 48
1, 33449, Note_on_c, 0, 64, 0
1, 33548, Note_on_c, 0, 62, 0
1, 33548, Note_on_c, 0, 64, 52
1, 33559, Control_c, 0, 64, 0
1, 33697, Control_c, 0, 64, 127
1, 34174, Note_on_c, 0, 64, 0
1, 34174, Note_on_c, 0, 67, 0
1, 34174, Note_on_c, 0, 60, 51
1, 34177, Note_on_c, 0, 65, 61
1, 34177, Note_on_c, 0, 55, 0
1, 34177, Note_on_c, 0, 60, 0
1, 34180, Note_on_c, 0, 50, 44
1, 34180, Note_on_c, 0, 57, 52
1, 34180, Control_c, 0, 64, 0
1, 34183, Note_on_c, 0, 48, 0
1, 34505, Note_on_c, 0, 65, 0
1, 34505, Note_on_c, 0, 60, 0
1, 34505, Note_on_c, 0, 60, 51
1, 34508, Note_on_c, 0, 67, 61
1, 34508, Note_on_c, 0, 57, 0
1, 34508, Note_on_c, 0, 50, 0
1, 34511, Note_on_c, 0, 57, 50
1, 34511, Note_on_c, 0, 52, 42
1, 34591, Note_on_c, 0, 67, 0
1, 34591, Note_on_c, 0, 60, 0
1, 34591, Note_on_c, 0, 52, 0
1, 34594, Note_on_c, 0, 57, 0
1, 34677, Note_on_c, 0, 60, 48
1, 34677, Note_on_c, 0, 69, 57
1, 34677, Note_on_c, 0, 53, 40
1, 34680, Note_on_c, 0, 57, 48
1, 34766, Note_on_c, 0, 69, 0
1, 34766, Note_on_c, 0, 60, 0
1, 34766, Note_on_c, 0, 57, 0
1, 34769, Note_on_c, 0, 53, 0
1, 34854, Note_on_c, 0, 60, 56
1, 34854, Note_on_c, 0, 65, 66
1, 34854, Note_on_c, 0, 50, 48
1, 34857, Note_on_c, 0, 57, 57
1, 35066, Note_on_c, 0, 65, 0
1, 35066, Note_on_c, 0, 60, 0
1, 35066, Note_on_c, 0, 57, 0
1, 35069, Note_on_c, 0, 50, 0
1, 35278, Note_on_c, 0, 62, 48
1, 35278, Note_on_c, 0, 59, 40
1, 35278, Note_on_c, 0, 53, 35
1, 35281, Note_on_c, 0, 57, 42
1, 35583, Note_on_c, 0, 59, 0
1, 35583, Note_on_c, 0, 62, 0
1, 35583, Note_on_c, 0, 57, 0
1, 35586, Note_on_c, 0, 53, 0
1, 35888, Note_on_c, 0, 59, 34
1, 35888, Note_on_c, 0, 64, 41
1, 35888, Note_on_c, 0, 52, 35
1, 35891, Note_on_c, 0, 56, 42
1, 37227, Note_on_c, 0, 64, 0
1, 37227, Note_on_c, 0, 59, 0
1, 37227, Note_on_c, 0, 56, 0
1, 37230, Note_on_c, 0, 52, 0
1, 37230, Note_on_c, 0, 69, 52
1, 37281, Control_c, 0, 64, 127
1, 37547, Note_on_c, 0, 73, 39
1, 37547, Note_on_c, 0, 76, 47
1, 37853, Note_on_c, 0, 76, 0
1, 37853, Note_on_c, 0, 73, 0
1, 37853, Note_on_c, 0, 73, 39
1, 37856, Note_on_c, 0, 76, 47
1, 37856, Note_on_c, 0, 69, 0
1, 37856, Note_on_c, 0, 71, 54
1, 37862, Control_c, 0, 64, 0
1, 37909, Control_c, 0, 64, 127
1, 38014, Note_on_c, 0, 71, 0
1, 38014, Note_on_c, 0, 68, 50
1, 38134, Note_on_c, 0, 68, 0
1, 38134, Note_on_c, 0, 69, 39
1, 38175, Note_on_c, 0, 76, 0
1, 38175, Note_on_c, 0, 73, 0
1, 38175, Note_on_c, 0, 69, 0
1, 38178, Note_on_c, 0, 66, 50
1, 38178, Control_c, 0, 64, 0
1, 38339, Note_on_c, 0, 66, 0
1, 38339, Note_on_c, 0, 64, 50
1, 38421, Note_on_c, 0, 64, 0
1, 38503, Note_on_c, 0, 76, 47
1, 38503, Note_on_c, 0, 68, 39
1, 38503, Note_on_c, 0, 74, 39
1, 38506, Note_on_c, 0, 64, 47
1, 38563, Control_c, 0, 64, 127
1, 38818, Note_on_c, 0, 74, 0
1, 38818, Note_on_c, 0, 68, 0
1, 38818, Note_on_c, 0, 76, 0
1, 38821, Note_on_c, 0, 68, 39
1, 38821, Note_on_c, 0, 74, 39
1, 38821, Note_on_c, 0, 76, 47
1, 39140, Note_on_c, 0, 76, 0
1, 39140, Note_on_c, 0, 74, 0
1, 39140, Note_on_c, 0, 68, 0
1, 39143, Note_on_c, 0, 64, 0
1, 39143, Note_on_c, 0, 69, 52
1, 39143, Control_c, 0, 64, 0
1, 39300, Control_c, 0, 64, 127
1, 39460, Note_on_c, 0, 73, 39
1, 39460, Note_on_c, 0, 76, 47
1, 39460, Note_on_c, 0, 69, 0
1, 39463, Note_on_c, 0, 71, 54
1, 39612, Note_on_c, 0, 71, 0
1, 39612, Note_on_c, 0, 73, 54
1, 39765, Note_on_c, 0, 76, 0
1, 39765, Note_on_c, 0, 73, 0
1, 39765, Note_on_c, 0, 73, 39
1, 39768, Note_on_c, 0, 76, 47
1, 39768, Note_on_c, 0, 73, 0
1, 39768, Note_on_c, 0, 69, 54
1, 39775, Control_c, 0, 64, 0
1, 39822, Control_c, 0, 64, 127
1, 39926, Note_on_c, 0, 69, 0
1, 39926, Note_on_c, 0, 66, 50
1, 40047, Note_on_c, 0, 66, 0
1, 40047, Note_on_c, 0, 68, 39
1, 40087, Note_on_c, 0, 76, 0
1, 40087, Note_on_c, 0, 73, 0
1, 40087, Note_on_c, 0, 68, 0
1, 40090, Note_on_c, 0, 66, 50
1, 40090, Control_c, 0, 64, 0
1, 40251, Note_on_c, 0, 66, 0
1, 40251, Note_on_c, 0, 64, 50
1, 40333, Note_on_c, 0, 64, 0
1, 40415, Note_on_c, 0, 74, 35
1, 40415, Note_on_c, 0, 68, 35
1, 40415, Note_on_c, 0, 76, 42
1, 40418, Note_on_c, 0, 64, 47
1, 40476, Control_c, 0, 64, 127
1, 40730, Note_on_c, 0, 76, 0
1, 40730, Note_on_c, 0, 68, 0
1, 40730, Note_on_c, 0, 74, 0
1, 40733, Note_on_c, 0, 68, 35
1, 40733, Note_on_c, 0, 74, 35
1, 40733, Note_on_c, 0, 76, 42
1, 41053, Note_on_c, 0, 76, 0
1, 41053, Note_on_c, 0, 74, 0
1, 41053, Note_on_c, 0, 68, 0
1, 41056, Note_on_c, 0, 64, 0
1, 41056, Note_on_c, 0, 69, 52
1, 41056, Control_c, 0, 64, 0
1, 41174, Control_c, 0, 64, 127
1, 41372, Note_on_c, 0, 73, 39
1, 41372, Note_on_c, 0, 76, 47
1, 41678, Note_on_c, 0, 76, 0
1, 41678, Note_on_c, 0, 73, 0
1, 41678, Note_on_c, 0, 76, 47
1, 41681, Note_on_c, 0, 73, 39
1, 41681, Note_on_c, 0, 69, 0
1, 41681, Note_on_c, 0, 64, 54
1, 41687, Control_c, 0, 64, 0
1, 41734, Control_c, 0, 64, 127
1, 41839, Note_on_c, 0, 64, 0
1, 41839, Note_on_c, 0, 66, 50
1, 42002, Note_on_c, 0, 73, 0
1, 42002, Note_on_c, 0, 76, 0
1, 42002, Note_on_c, 0, 66, 0
1, 42005, Note_on_c, 0, 66, 54
1, 42016, Control_c, 0, 64, 0
1, 42045, Control_c, 0, 64, 127
1, 42165, Note_on_c, 0, 66, 0
1, 42165, Note_on_c, 0, 68, 50
1, 42329, Note_on_c, 0, 73, 39
1, 42329, Note_on_c, 0, 76, 47
1, 42329, Note_on_c, 0, 68, 0
1, 42332, Note_on_c, 0, 68, 52
1, 42337, Control_c, 0, 64, 0
1, 42407, Control_c, 0, 64, 127
1, 42655, Note_on_c, 0, 76, 0
1, 42655, Note_on_c, 0, 73, 0
1, 42655, Note_on_c, 0, 73, 39
1, 42658, Note_on_c, 0, 76, 47
1, 42979, Note_on_c, 0, 76, 0
1, 42979, Note_on_c, 0, 73, 0
1, 42979, Note_on_c, 0, 68, 0
1, 42982, Note_on_c, 0, 68, 54
1, 42989, Control_c, 0, 64, 0
1, 43144, Note_on_c, 0, 68, 0
1, 43144, Note_on_c, 0, 71, 57
1, 43309, Note_on_c, 0, 73, 40
1, 43309, Note_on_c, 0, 76, 49
1, 43309, Note_on_c, 0, 71, 0
1, 43312, Note_on_c, 0, 71, 61
1, 43473, Note_on_c, 0, 71, 0
1, 43473, Note_on_c, 0, 69, 54
1, 43636, Note_on_c, 0, 76, 0
1, 43636, Note_on_c, 0, 73, 0
1, 43636, Note_on_c, 0, 73, 40
1, 43639, Note_on_c, 0, 76, 49
1, 43639, Note_on_c, 0, 69, 0
1, 43639, Note_on_c, 0, 64, 61
1, 43808, Note_on_c, 0, 64, 0
1, 43808, Note_on_c, 0, 66, 56
1, 44010, Note_on_c, 0, 76, 0
1, 44010, Note_on_c, 0, 73, 0
1, 44010, Note_on_c, 0, 66, 0
1, 44013, Note_on_c, 0, 66, 57
1, 44027, Control_c, 0, 64, 0
1, 44061, Control_c, 0, 64, 127
1, 44204, Note_on_c, 0, 66, 0
1, 44204, Note_on_c, 0, 68, 45
1, 44399, Note_on_c, 0, 76, 42
1, 44399, Note_on_c, 0, 73, 35
1, 44399, Note_on_c, 0, 68, 0
1, 44402, Note_on_c, 0, 68, 51
1, 44410, Control_c, 0, 64, 0
1, 44497, Control_c, 0, 64, 127
1, 44805, Note_on_c, 0, 73, 0
1, 44805, Note_on_c, 0, 76, 0
1, 44805, Note_on_c, 0, 73, 35
1, 44808, Note_on_c, 0, 76, 42
1, 45245, Note_on_c, 0, 76, 0
1, 45245, Note_on_c, 0, 73, 0
1, 45245, Note_on_c, 0, 68, 0
1, 45248, Note_on_c, 0, 69, 52
1, 45262, Control_c, 0, 64, 0
1, 45339, Control_c, 0, 64, 127
1, 45581, Note_on_c, 0, 73, 39
1, 45581, Note_on_c, 0, 76, 47
1, 45898, Note_on_c, 0, 76, 0
1, 45898, Note_on_c, 0, 73, 0
1, 45898, Note_on_c, 0, 73, 39
1, 45901, Note_on_c, 0, 76, 47
1, 45901, Note_on_c, 0, 69, 0
1, 45901, Note_on_c, 0, 71, 54
1, 45908, Control_c, 0, 64, 0
1, 45955, Control_c, 0, 64, 127
1, 46061, Note_on_c, 0, 71, 0
1, 46061, Note_on_c, 0, 68, 50
1, 46183, Note_on_c, 0, 68, 0
1, 46183, Note_on_c, 0, 69, 39
1, 46224, Note_on_c, 0, 76, 0
1, 46224, Note_on_c, 0, 73, 0
1, 46224, Note_on_c, 0, 69, 0
1, 46227, Note_on_c, 0, 66, 50
1, 46227, Control_c, 0, 64, 0
1, 46388, Note_on_c, 0, 66, 0
1, 46388, Note_on_c, 0, 64, 50
1, 46470, Note_on_c, 0, 64, 0
1, 46552, Note_on_c, 0, 76, 47
1, 46552, Note_on_c, 0, 68, 39
1, 46552, Note_on_c, 0, 74, 39
1, 46555, Note_on_c, 0, 64, 47
1, 46612, Control_c, 0, 64, 127
1, 46867, Note_on_c, 0, 74, 0
1, 46867, Note_on_c, 0, 68, 0
1, 46867, Note_on_c, 0, 76, 0
1, 46870, Note_on_c, 0, 68, 39
1, 46870, Note_on_c, 0, 74, 39
1, 46870, Note_on_c, 0, 76, 47
1, 47189, Note_on_c, 0, 76, 0
1, 47189, Note_on_c, 0, 74, 0
1, 47189, Note_on_c, 0, 68, 0
1, 47192, Note_on_c, 0, 64, 0
1, 47192, Note_on_c, 0, 69, 52
1, 47192, Control_c, 0, 64, 0
1, 47349, Control_c, 0, 64, 127
1, 47509, Note_on_c, 0, 73, 39
1, 47509, Note_on_c, 0, 76, 47
1, 47509, Note_on_c, 0, 69, 0
1, 47512, Note_on_c, 0, 71, 54
1, 47661, Note_on_c, 0, 71, 0
1, 47661, Note_on_c, 0, 73, 54
1, 47814, Note_on_c, 0, 76, 0
1, 47814, Note_on_c, 0, 73, 0
1, 47814, Note_on_c, 0, 73, 39
1, 47817, Note_on_c, 0, 76, 47
1, 47817, Note_on_c, 0, 73, 0
1, 47817, Note_on_c, 0, 69, 54
1, 47824, Control_c, 0, 64, 0
1, 47871, Control_c, 0, 64, 127
1, 47975, Note_on_c, 0, 69, 0
1, 47975, Note_on_c, 0, 66, 50
1, 48096, Note_on_c, 0, 66, 0
1, 48096, Note_on_c, 0, 68, 39
1, 48136, Note_on_c, 0, 76, 0
1, 48136, Note_on_c, 0, 73, 0
1, 48136, Note_on_c, 0, 68, 0
1, 48139, Note_on_c, 0, 66, 50
1, 48139, Control_c, 0, 64, 0
1, 48300, Note_on_c, 0, 66, 0
1, 48300, Note_on_c, 0, 64, 50
1, 48382, Note_on_c, 0, 64, 0
1, 48464, Note_on_c, 0, 74, 35
1, 48464, Note_on_c, 0, 68, 35
1, 48464, Note_on_c, 0, 76, 42
1, 48467, Note_on_c, 0, 64, 47
1, 48525, Control_c, 0, 64, 127
1, 48780, Note_on_c, 0, 76, 0
1, 48780, Note_on_c, 0, 68, 0
1, 48780, Note_on_c, 0, 74, 0
1, 48783, Note_on_c, 0, 68, 35
1, 48783, Note_on_c, 0, 74, 35
1, 48783, Note_on_c, 0, 76, 42
1, 49102, Note_on_c, 0, 76, 0
1, 49102, Note_on_c, 0, 74, 0
1, 49102, Note_on_c, 0, 68, 0
1, 49105, Note_on_c, 0, 64, 0
1, 49105, Note_on_c, 0, 69, 52
1, 49105, Control_c, 0, 64, 0
1, 49223, Control_c, 0, 64, 127
1, 49421, Note_on_c, 0, 73, 39
1, 49421, Note_on_c, 0, 76, 47
1, 49727, Note_on_c, 0, 76, 0
1, 49727, Note_on_c, 0, 73, 0
1, 49727, Note_on_c, 0, 76, 47
1, 49730, Note_on_c, 0, 73, 39
1, 49730, Note_on_c, 0, 69, 0
1, 49730, Note_on_c, 0, 64, 54
1, 49736, Control_c, 0, 64, 0
1, 49783, Control_c, 0, 64, 127
1, 49888, Note_on_c, 0, 64, 0
1, 49888, Note_on_c, 0, 66, 50
1, 50049, Note_on_c, 0, 73, 0
1, 50049, Note_on_c, 0, 76, 0
1, 50049, Note_on_c, 0, 66, 0
1, 50052, Note_on_c, 0, 66, 59
1, 50063, Control_c, 0, 64, 0
1, 50213, Note_on_c, 0, 66, 0
1, 50213, Note_on_c, 0, 67, 48
1, 50295, Note_on_c, 0, 67, 0
1, 50377, Note_on_c, 0, 73, 42
1, 50377, Note_on_c, 0, 76, 51
1, 50377, Note_on_c, 0, 67, 57
1, 50456, Control_c, 0, 64, 127
1, 50704, Note_on_c, 0, 76, 0
1, 50704, Note_on_c, 0, 73, 0
1, 50704, Note_on_c, 0, 73, 42
1, 50707, Note_on_c, 0, 76, 51
1, 51046, Note_on_c, 0, 76, 0
1, 51046, Note_on_c, 0, 73, 0
1, 51046, Note_on_c, 0, 67, 0
1, 51049, Note_on_c, 0, 67, 64
1, 51060, Control_c, 0, 64, 0
1, 51214, Note_on_c, 0, 67, 0
1, 51214, Note_on_c, 0, 68, 53
1, 51298, Note_on_c, 0, 68, 0
1, 51382, Note_on_c, 0, 73, 46
1, 51382, Note_on_c, 0, 76, 56
1, 51382, Note_on_c, 0, 68, 62
1, 51463, Control_c, 0, 64, 127
1, 51718, Note_on_c, 0, 76, 0
1, 51718, Note_on_c, 0, 73, 0
1, 51718, Note_on_c, 0, 73, 46
1, 51721, Note_on_c, 0, 76, 56
1, 52100, Note_on_c, 0, 76, 0
1, 52100, Note_on_c, 0, 73, 0
1, 52100, Note_on_c, 0, 68, 0
1, 52103, Note_on_c, 0, 68, 70
1, 52116, Control_c, 0, 64, 0
1, 52285, Note_on_c, 0, 68, 0
1, 52285, Note_on_c, 0, 69, 60
1, 52378, Note_on_c, 0, 69, 0
1, 52471, Note_on_c, 0, 76, 61
1, 52471, Note_on_c, 0, 73, 50
1, 52471, Note_on_c, 0, 69, 68
1, 52573, Control_c, 0, 64, 127
1, 52892, Note_on_c, 0, 73, 0
1, 52892, Note_on_c, 0, 76, 0
1, 52892, Note_on_c, 0, 73, 50
1, 52895, Note_on_c, 0, 76, 61
1, 53207, Control_c, 0, 64, 0
1, 53320, Note_on_c, 0, 76, 0
1, 53320, Note_on_c, 0, 73, 0
1, 53320, Note_on_c, 0, 69, 0
1, 53323, Note_on_c, 0, 45, 40
1, 53649, Note_on_c, 0, 45, 0
1, 53649, Note_on_c, 0, 52, 27
1, 53649, Note_on_c, 0, 60, 32
1, 53652, Control_c, 0, 64, 127
1, 53969, Note_on_c, 0, 60, 0
1, 53969, Note_on_c, 0, 52, 0
1, 53969, Note_on_c, 0, 60, 33
1, 53972, Note_on_c, 0, 52, 27
1, 54297, Note_on_c, 0, 52, 0
1, 54297, Note_on_c, 0, 60, 0
1, 54297, Note_on_c, 0, 45, 40
1, 54616, Note_on_c, 0, 45, 0
1, 54616, Note_on_c, 0, 52, 27
1, 54616, Note_on_c, 0, 60, 32
1, 54928, Note_on_c, 0, 60, 0
1, 54928, Note_on_c, 0, 52, 0
1, 54928, Note_on_c, 0, 60, 33
1, 54931, Note_on_c, 0, 52, 27
1, 55247, Note_on_c, 0, 64, 45
1, 55247, Note_on_c, 0, 52, 0
1, 55247, Note_on_c, 0, 60, 0
1, 55250, Note_on_c, 0, 45, 40
1, 55250, Control_c, 0, 64, 0
1, 55316, Control_c, 0, 64, 127
1, 55571, Note_on_c, 0, 64, 0
1, 55571, Note_on_c, 0, 66, 42
1, 55571, Note_on_c, 0, 45, 0
1, 55574, Note_on_c, 0, 60, 33
1, 55574, Note_on_c, 0, 52, 27
1, 55648, Note_on_c, 0, 66, 0
1, 55648, Control_c, 0, 64, 0
1, 55725, Note_on_c, 0, 68, 39
1, 55764, Note_on_c, 0, 68, 0
1, 55880, Note_on_c, 0, 69, 47
1, 55880, Note_on_c, 0, 52, 0
1, 55880, Note_on_c, 0, 60, 0
1, 55883, Note_on_c, 0, 52, 27
1, 55883, Note_on_c, 0, 60, 33
1, 56037, Note_on_c, 0, 69, 0
1, 56195, Note_on_c, 0, 69, 49
1, 56195, Note_on_c, 0, 60, 0
1, 56195, Note_on_c, 0, 52, 0
1, 56198, Note_on_c, 0, 45, 40
1, 56237, Control_c, 0, 64, 127
1, 56514, Note_on_c, 0, 69, 0
1, 56514, Note_on_c, 0, 71, 52
1, 56514, Note_on_c, 0, 45, 0
1, 56517, Note_on_c, 0, 52, 27
1, 56517, Note_on_c, 0, 62, 32
1, 56591, Note_on_c, 0, 71, 0
1, 56596, Control_c, 0, 64, 0
1, 56667, Note_on_c, 0, 68, 45
1, 56705, Note_on_c, 0, 68, 0
1, 56820, Note_on_c, 0, 66, 43
1, 56820, Note_on_c, 0, 62, 0
1, 56820, Note_on_c, 0, 52, 0
1, 56823, Note_on_c, 0, 62, 33
1, 56823, Note_on_c, 0, 52, 27
1, 56981, Note_on_c, 0, 66, 0
1, 57102, Note_on_c, 0, 69, 35
1, 57142, Note_on_c, 0, 69, 0
1, 57142, Note_on_c, 0, 66, 45
1, 57142, Note_on_c, 0, 52, 0
1, 57145, Note_on_c, 0, 62, 0
1, 57145, Note_on_c, 0, 45, 40
1, 57306, Note_on_c, 0, 66, 0
1, 57470, Note_on_c, 0, 64, 42
1, 57470, Note_on_c, 0, 45, 0
1, 57470, Note_on_c, 0, 52, 24
1, 57473, Note_on_c, 0, 60, 29
1, 57530, Control_c, 0, 64, 127
1, 57785, Note_on_c, 0, 60, 0
1, 57785, Note_on_c, 0, 52, 0
1, 57785, Note_on_c, 0, 60, 29
1, 57788, Note_on_c, 0, 52, 24
1, 58107, Note_on_c, 0, 52, 0
1, 58107, Note_on_c, 0, 60, 0
1, 58107, Note_on_c, 0, 45, 40
1, 58428, Note_on_c, 0, 64, 0
1, 58428, Note_on_c, 0, 45, 0
1, 58428, Note_on_c, 0, 52, 24
1, 58431, Note_on_c, 0, 60, 28
1, 58745, Note_on_c, 0, 60, 0
1, 58745, Note_on_c, 0, 52, 0
1, 58745, Note_on_c, 0, 60, 29
1, 58748, Note_on_c, 0, 52, 24
1, 59069, Note_on_c, 0, 52, 0
1, 59069, Note_on_c, 0, 60, 0
1, 59069, Note_on_c, 0, 45, 40
1, 59072, Control_c, 0, 64, 0
1, 59136, Control_c, 0, 64, 127
1, 59224, Note_on_c, 0, 64, 38
1, 59263, Note_on_c, 0, 64, 0
1, 59381, Note_on_c, 0, 66, 43
1, 59381, Note_on_c, 0, 45, 0
1, 59381, Note_on_c, 0, 60, 33
1, 59384, Note_on_c, 0, 52, 27
1, 59419, Note_on_c, 0, 66, 0
1, 59458, Control_c, 0, 64, 0
1, 59535, Note_on_c, 0, 68, 39
1, 59574, Note_on_c, 0, 68, 0
1, 59690, Note_on_c, 0, 68, 45
1, 59690, Note_on_c, 0, 52, 0
1, 59690, Note_on_c, 0, 60, 0
1, 59693, Note_on_c, 0, 52, 27
1, 59693, Note_on_c, 0, 60, 33
1, 59849, Note_on_c, 0, 68, 0
1, 59849, Note_on_c, 0, 69, 45
1, 60009, Note_on_c, 0, 69, 0
1, 60009, Note_on_c, 0, 60, 0
1, 60009, Note_on_c, 0, 52, 0
1, 60012, Note_on_c, 0, 45, 40
1, 60049, Control_c, 0, 64, 127
1, 60162, Note_on_c, 0, 69, 46
1, 60201, Note_on_c, 0, 69, 0
1, 60317, Note_on_c, 0, 71, 51
1, 60317, Note_on_c, 0, 45, 0
1, 60317, Note_on_c, 0, 62, 32
1, 60320, Note_on_c, 0, 52, 27
1, 60355, Note_on_c, 0, 71, 0
1, 60390, Control_c, 0, 64, 0
1, 60470, Note_on_c, 0, 68, 45
1, 60508, Note_on_c, 0, 68, 0
1, 60623, Note_on_c, 0, 68, 43
1, 60623, Note_on_c, 0, 52, 0
1, 60623, Note_on_c, 0, 62, 0
1, 60626, Note_on_c, 0, 62, 33
1, 60626, Note_on_c, 0, 52, 27
1, 60784, Note_on_c, 0, 68, 0
1, 60784, Note_on_c, 0, 66, 45
1, 60864, Note_on_c, 0, 66, 0
1, 60904, Note_on_c, 0, 69, 35
1, 60945, Note_on_c, 0, 69, 0
1, 60945, Note_on_c, 0, 66, 45
1, 60945, Note_on_c, 0, 52, 0
1, 60948, Note_on_c, 0, 62, 0
1, 60948, Note_on_c, 0, 45, 40
1, 61109, Note_on_c, 0, 66, 0
1, 61273, Note_on_c, 0, 64, 42
1, 61273, Note_on_c, 0, 45, 0
1, 61273, Note_on_c, 0, 52, 24
1, 61276, Note_on_c, 0, 60, 29
1, 61332, Control_c, 0, 64, 127
1, 61585, Note_on_c, 0, 60, 0
1, 61585, Note_on_c, 0, 52, 0
1, 61585, Note_on_c, 0, 52, 24
1, 61588, Note_on_c, 0, 60, 29
1, 61908, Note_on_c, 0, 60, 0
1, 61908, Note_on_c, 0, 52, 0
1, 61908, Note_on_c, 0, 45, 40
1, 62228, Note_on_c, 0, 64, 0
1, 62228, Note_on_c, 0, 45, 0
1, 62228, Note_on_c, 0, 52, 24
1, 62231, Note_on_c, 0, 60, 28
1, 62542, Note_on_c, 0, 60, 0
1, 62542, Note_on_c, 0, 52, 0
1, 62542, Note_on_c, 0, 60, 29
1, 62545, Note_on_c, 0, 52, 24
1, 62830, Control_c, 0, 64, 0
1, 62867, Note_on_c, 0, 67, 37
1, 62867, Note_on_c, 0, 76, 44
1, 62867, Note_on_c, 0, 52, 0
1, 62870, Note_on_c, 0, 60, 0
1, 62870, Note_on_c, 0, 64, 33
1, 62870, Note_on_c, 0, 60, 28
1, 63109, Note_on_c, 0, 76, 0
1, 63109, Note_on_c, 0, 67, 0
1, 63109, Note_on_c, 0, 60, 0
1, 63112, Note_on_c, 0, 64, 0
1, 63189, Note_on_c, 0, 68, 40
1, 63189, Note_on_c, 0, 76, 48
1, 63189, Note_on_c, 0, 65, 36
1, 63192, Note_on_c, 0, 60, 30
1, 63428, Note_on_c, 0, 76, 0
1, 63428, Note_on_c, 0, 68, 0
1, 63428, Note_on_c, 0, 60, 0
1, 63431, Note_on_c, 0, 65, 0
1, 63506, Note_on_c, 0, 76, 52
1, 63506, Note_on_c, 0, 69, 44
1, 63506, Note_on_c, 0, 60, 33
1, 63509, Note_on_c, 0, 66, 39
1, 63743, Note_on_c, 0, 69, 0
1, 63743, Note_on_c, 0, 76, 0
1, 63743, Note_on_c, 0, 66, 0
1, 63746, Note_on_c, 0, 60, 0
1, 63822, Note_on_c, 0, 71, 45
1, 63822, Note_on_c, 0, 76, 54
1, 63822, Note_on_c, 0, 62, 38
1, 63825, Note_on_c, 0, 67, 45
1, 63825, Note_on_c, 0, 55, 38
1, 63862, Control_c, 0, 64, 127
1, 63925, Note_on_c, 0, 76, 0
1, 63925, Note_on_c, 0, 74, 44
1, 64029, Note_on_c, 0, 74, 0
1, 64029, Note_on_c, 0, 72, 44
1, 64133, Note_on_c, 0, 72, 0
1, 64133, Note_on_c, 0, 74, 48
1, 64141, Control_c, 0, 64, 0
1, 64279, Control_c, 0, 64, 127
1, 64779, Note_on_c, 0, 74, 0
1, 64779, Note_on_c, 0, 71, 0
1, 64779, Note_on_c, 0, 72, 44
1, 64782, Note_on_c, 0, 64, 37
1, 64782, Note_on_c, 0, 55, 0
1, 64782, Note_on_c, 0, 67, 0
1, 64785, Note_on_c, 0, 62, 0
1, 64785, Note_on_c, 0, 57, 28
1, 64785, Note_on_c, 0, 60, 33
1, 64788, Control_c, 0, 64, 0
1, 65020, Note_on_c, 0, 64, 0
1, 65020, Note_on_c, 0, 72, 0
1, 65020, Note_on_c, 0, 60, 0
1, 65023, Note_on_c, 0, 57, 0
1, 65100, Note_on_c, 0, 72, 48
1, 65100, Note_on_c, 0, 65, 40
1, 65100, Note_on_c, 0, 57, 30
1, 65103, Note_on_c, 0, 62, 36
1, 65338, Note_on_c, 0, 65, 0
1, 65338, Note_on_c, 0, 72, 0
1, 65338, Note_on_c, 0, 62, 0
1, 65341, Note_on_c, 0, 57, 0
1, 65417, Note_on_c, 0, 72, 52
1, 65417, Note_on_c, 0, 66, 44
1, 65417, Note_on_c, 0, 63, 39
1, 65420, Note_on_c, 0, 57, 33
1, 65654, Note_on_c, 0, 66, 0
1, 65654, Note_on_c, 0, 72, 0
1, 65654, Note_on_c, 0, 57, 0
1, 65657, Note_on_c, 0, 63, 0
1, 65732, Note_on_c, 0, 67, 45
1, 65732, Note_on_c, 0, 72, 54
1, 65732, Note_on_c, 0, 52, 38
1, 65735, Note_on_c, 0, 64, 45
1, 65735, Note_on_c, 0, 59, 38
1, 65773, Control_c, 0, 64, 127
1, 65836, Note_on_c, 0, 72, 0
1, 65836, Note_on_c, 0, 71, 44
1, 65940, Note_on_c, 0, 71, 0
1, 65940, Note_on_c, 0, 69, 44
1, 66043, Note_on_c, 0, 69, 0
1, 66043, Note_on_c, 0, 71, 48
1, 66052, Control_c, 0, 64, 0
1, 66190, Control_c, 0, 64, 127
1, 66691, Note_on_c, 0, 71, 0
1, 66691, Note_on_c, 0, 67, 0
1, 66691, Note_on_c, 0, 71, 54
1, 66694, Note_on_c, 0, 65, 45
1, 66694, Note_on_c, 0, 59, 0
1, 66694, Note_on_c, 0, 64, 0
1, 66697, Note_on_c, 0, 52, 0
1, 66697, Note_on_c, 0, 53, 38
1, 66697, Note_on_c, 0, 60, 45
1, 66700, Control_c, 0, 64, 0
1, 66731, Control_c, 0, 64, 127
1, 66793, Note_on_c, 0, 71, 0
1, 66793, Note_on_c, 0, 69, 44
1, 66895, Note_on_c, 0, 69, 0
1, 66895, Note_on_c, 0, 67, 44
1, 66997, Note_on_c, 0, 67, 0
1, 66997, Note_on_c, 0, 69, 48
1, 67006, Control_c, 0, 64, 0
1, 67144, Control_c, 0, 64, 127
1, 67621, Note_on_c, 0, 69, 0
1, 67621, Note_on_c, 0, 65, 0
1, 67621, Note_on_c, 0, 67, 49
1, 67624, Note_on_c, 0, 65, 59
1, 67624, Note_on_c, 0, 60, 0
1, 67624, Note_on_c, 0, 53, 0
1, 67627, Note_on_c, 0, 55, 41
1, 67627, Note_on_c, 0, 60, 49
1, 67627, Control_c, 0, 64, 0
1, 67630, Note_on_c, 0, 48, 41
1, 67661, Control_c, 0, 64, 127
1, 67723, Note_on_c, 0, 65, 0
1, 67723, Note_on_c, 0, 64, 48
1, 67824, Note_on_c, 0, 62, 48
1, 67827, Note_on_c, 0, 64, 0
1, 67926, Note_on_c, 0, 62, 0
1, 67926, Note_on_c, 0, 64, 52
1, 67936, Control_c, 0, 64, 0
1, 68075, Control_c, 0, 64, 127
1, 68552, Note_on_c, 0, 64, 0
1, 68552, Note_on_c, 0, 67, 0
1, 68552, Note_on_c, 0, 60, 51
1, 68555, Note_on_c, 0, 65, 61
1, 68555, Note_on_c, 0, 60, 0
1, 68555, Note_on_c, 0, 55, 0
1, 68558, Note_on_c, 0, 57, 52
1, 68558, Note_on_c, 0, 50, 44
1, 68558, Control_c, 0, 64, 0
1, 68561, Note_on_c, 0, 48, 0
1, 68889, Note_on_c, 0, 65, 0
1, 68889, Note_on_c, 0, 60, 0
1, 68889, Note_on_c, 0, 60, 51
1, 68892, Note_on_c, 0, 67, 61
1, 68892, Note_on_c, 0, 50, 0
1, 68892, Note_on_c, 0, 57, 0
1, 68895, Note_on_c, 0, 57, 50
1, 68895, Note_on_c, 0, 52, 42
1, 68978, Note_on_c, 0, 67, 0
1, 68978, Note_on_c, 0, 60, 0
1, 68978, Note_on_c, 0, 52, 0
1, 68981, Note_on_c, 0, 57, 0
1, 69068, Note_on_c, 0, 60, 48
1, 69068, Note_on_c, 0, 69, 57
1, 69068, Note_on_c, 0, 57, 48
1, 69071, Note_on_c, 0, 53, 40
1, 69161, Note_on_c, 0, 69, 0
1, 69161, Note_on_c, 0, 60, 0
1, 69161, Note_on_c, 0, 53, 0
1, 69164, Note_on_c, 0, 57, 0
1, 69255, Note_on_c, 0, 60, 56
1, 69255, Note_on_c, 0, 65, 66
1, 69255, Note_on_c, 0, 50, 48
1, 69258, Note_on_c, 0, 57, 57
1, 69495, Note_on_c, 0, 65, 0
1, 69495, Note_on_c, 0, 60, 0
1, 69495, Note_on_c, 0, 57, 0
1, 69498, Note_on_c, 0, 50, 0
1, 69735, Note_on_c, 0, 59, 40
1, 69735, Note_on_c, 0, 62, 48
1, 69735, Note_on_c, 0, 57, 42
1, 69738, Note_on_c, 0, 53, 35
1, 70088, Note_on_c, 0, 62, 0
1, 70088, Note_on_c, 0, 59, 0
1, 70088, Note_on_c, 0, 53, 0
1, 70091, Note_on_c, 0, 57, 0
1, 70441, Note_on_c, 0, 64, 41
1, 70441, Note_on_c, 0, 59, 34
1, 70441, Note_on_c, 0, 56, 42
1, 70444, Note_on_c, 0, 52, 35
1, 70812, Control_c, 0, 64, 127
1, 71924, Note_on_c, 0, 59, 0
1, 71924, Note_on_c, 0, 64, 0
1, 71924, Note_on_c, 0, 69, 46
1, 71927, Note_on_c, 0, 61, 36
1, 71927, Note_on_c, 0, 52, 0
1, 71927, Note_on_c, 0, 56, 0
1, 71930, Note_on_c, 0, 52, 31
1, 71930, Note_on_c, 0, 45, 27
1, 71959, Control_c, 0, 64, 0
1, 71999, Control_c, 0, 64, 127
1, 72554, Note_on_c, 0, 69, 0
1, 72554, Note_on_c, 0, 71, 48
1, 72562, Control_c, 0, 64, 0
1, 72610, Control_c, 0, 64, 127
1, 72715, Note_on_c, 0, 71, 0
1, 72715, Note_on_c, 0, 68, 45
1, 72836, Note_on_c, 0, 68, 0
1, 72836, Note_on_c, 0, 69, 35
1, 72876, Note_on_c, 0, 69, 0
1, 72876, Note_on_c, 0, 61, 0
1, 72876, Note_on_c, 0, 62, 36
1, 72879, Note_on_c, 0, 66, 45
1, 72886, Control_c, 0, 64, 0
1, 72917, Control_c, 0, 64, 127
1, 73040, Note_on_c, 0, 66, 0
1, 73040, Note_on_c, 0, 64, 45
1, 73122, Note_on_c, 0, 64, 0
1, 73204, Note_on_c, 0, 64, 42
1, 73851, Note_on_c, 0, 64, 0
1, 73851, Note_on_c, 0, 62, 0
1, 73851, Note_on_c, 0, 69, 46
1, 73854, Note_on_c, 0, 61, 36
1, 73854, Note_on_c, 0, 45, 0
1, 73854, Note_on_c, 0, 52, 0
1, 73857, Note_on_c, 0, 52, 31
1, 73857, Note_on_c, 0, 45, 27
1, 73862, Control_c, 0, 64, 0
1, 73970, Control_c, 0, 64, 127
1, 74170, Note_on_c, 0, 69, 0
1, 74170, Note_on_c, 0, 71, 48
1, 74326, Note_on_c, 0, 71, 0
1, 74326, Note_on_c, 0, 73, 48
1, 74482, Note_on_c, 0, 73, 0
1, 74482, Note_on_c, 0, 69, 48
1, 74501, Control_c, 0, 64, 0
1, 74555, Control_c, 0, 64, 127
1, 74643, Note_on_c, 0, 69, 0
1, 74643, Note_on_c, 0, 66, 45
1, 74764, Note_on_c, 0, 66, 0
1, 74764, Note_on_c, 0, 68, 35
1, 74804, Note_on_c, 0, 68, 0
1, 74804, Note_on_c, 0, 61, 0
1, 74804, Note_on_c, 0, 62, 36
1, 74807, Note_on_c, 0, 66, 45
1, 74807, Control_c, 0, 64, 0
1, 74862, Control_c, 0, 64, 127
1, 74968, Note_on_c, 0, 66, 0
1, 74968, Note_on_c, 0, 64, 45
1, 75050, Note_on_c, 0, 64, 0
1, 75132, Note_on_c, 0, 64, 42
1, 75785, Note_on_c, 0, 64, 0
1, 75785, Note_on_c, 0, 62, 0
1, 75785, Note_on_c, 0, 69, 35
1, 75833, Note_on_c, 0, 69, 0
1, 75833, Note_on_c, 0, 61, 36
1, 75833, Note_on_c, 0, 66, 45
1, 75836, Note_on_c, 0, 45, 0
1, 75836, Note_on_c, 0, 52, 0
1, 75836, Note_on_c, 0, 52, 31
1, 75839, Note_on_c, 0, 45, 27
1, 75963, Control_c, 0, 64, 0
1, 76204, Note_on_c, 0, 66, 0
1, 76204, Note_on_c, 0, 64, 42
1, 76283, Control_c, 0, 64, 127
1, 77254, Control_c, 0, 64, 0
1, 77274, Note_on_c, 0, 64, 0
1, 77274, Note_on_c, 0, 61, 0
1, 77274, Note_on_c, 0, 45, 0
1, 77277, Note_on_c, 0, 52, 0
1, 77934, Note_on_c, 0, 69, 31
1, 77978, Note_on_c, 0, 69, 0
1, 77978, Note_on_c, 0, 60, 32
1, 77978, Note_on_c, 0, 65, 40
1, 77981, Note_on_c, 0, 52, 27
1, 77981, Note_on_c, 0, 45, 24
1, 78125, Control_c, 0, 64, 0
1, 78396, Note_on_c, 0, 65, 0
1, 78396, Note_on_c, 0, 64, 37
1, 78494, Control_c, 0, 64, 127
1, 80629, Note_on_c, 0, 64, 0
1, 80629, Note_on_c, 0, 60, 0
1, 80629, Note_on_c, 0, 45, 0
1, 80632, Note_on_c, 0, 52, 0
1, 80632, Note_on_c, 0, 33, 24
1, 80852, Note_on_c, 0, 33, 0
1, 81574, Control_c, 0, 64, 0
1, 83072, End_track
0, 0, End_of_file
