0, 0, Header, 0, 1, 384
1, 0, Start_track
1, 0, Tempo, 512820
1, 0, Title_t, "Vöglein Op 43, No. 4"
1, 0, Program_c, 0, 0
1, 0, Control_c, 0, 7, 100
1, 3, Control_c, 0, 10, 64
1, 3, Control_c, 0, 91, 127
1, 3, Program_c, 0, 0
1, 6, Control_c, 0, 7, 100
1, 6, Control_c, 0, 10, 64
1, 6, Control_c, 0, 64, 0
1, 635, Control_c, 0, 91, 127
1, 635, Control_c, 0, 91, 127
1, 748, Note_on_c, 0, 81, 55
1, 748, Note_on_c, 0, 74, 54
1, 748, Control_c, 0, 64, 0
1, 790, Note_on_c, 0, 81, 0
1, 790, Note_on_c, 0, 82, 49
1, 790, Note_on_c, 0, 74, 0
1, 793, Note_on_c, 0, 77, 49
1, 832, Note_on_c, 0, 82, 0
1, 832, Note_on_c, 0, 81, 55
1, 832, Note_on_c, 0, 77, 0
1, 835, Note_on_c, 0, 74, 54
1, 873, Note_on_c, 0, 81, 0
1, 873, Note_on_c, 0, 82, 50
1, 873, Note_on_c, 0, 74, 0
1, 876, Note_on_c, 0, 77, 49
1, 915, Note_on_c, 0, 82, 0
1, 915, Note_on_c, 0, 81, 62
1, 915, Note_on_c, 0, 77, 0
1, 918, Note_on_c, 0, 74, 63
1, 943, Control_c, 0, 64, 127
1, 1015, Note_on_c, 0, 81, 0
1, 1015, Note_on_c, 0, 74, 0
1, 1316, Note_on_c, 0, 69, 40
1, 1316, Note_on_c, 0, 62, 40
1, 1539, Note_on_c, 0, 62, 0
1, 1539, Note_on_c, 0, 69, 0
1, 1539, Note_on_c, 0, 69, 40
1, 1542, Note_on_c, 0, 62, 40
1, 1583, Control_c, 0, 64, 0
1, 1650, Note_on_c, 0, 62, 0
1, 1650, Note_on_c, 0, 69, 0
1, 1984, Note_on_c, 0, 86, 56
1, 1984, Note_on_c, 0, 79, 56
1, 2027, Note_on_c, 0, 86, 0
1, 2027, Note_on_c, 0, 88, 51
1, 2027, Note_on_c, 0, 79, 0
1, 2030, Note_on_c, 0, 83, 51
1, 2069, Note_on_c, 0, 88, 0
1, 2069, Note_on_c, 0, 86, 56
1, 2069, Note_on_c, 0, 83, 0
1, 2072, Note_on_c, 0, 79, 56
1, 2112, Note_on_c, 0, 86, 0
1, 2112, Note_on_c, 0, 88, 54
1, 2112, Note_on_c, 0, 79, 0
1, 2115, Note_on_c, 0, 83, 51
1, 2155, Note_on_c, 0, 88, 0
1, 2155, Note_on_c, 0, 86, 63
1, 2155, Note_on_c, 0, 83, 0
1, 2158, Note_on_c, 0, 79, 63
1, 2188, Control_c, 0, 64, 127
1, 2256, Note_on_c, 0, 86, 0
1, 2256, Note_on_c, 0, 79, 0
1, 2557, Note_on_c, 0, 74, 40
1, 2557, Note_on_c, 0, 67, 40
1, 2786, Note_on_c, 0, 67, 0
1, 2786, Note_on_c, 0, 74, 0
1, 2786, Note_on_c, 0, 74, 40
1, 2789, Note_on_c, 0, 67, 40
1, 2836, Control_c, 0, 64, 0
1, 2901, Note_on_c, 0, 67, 0
1, 2901, Note_on_c, 0, 74, 0
1, 3244, Note_on_c, 0, 81, 62
1, 3244, Note_on_c, 0, 74, 61
1, 3287, Note_on_c, 0, 81, 0
1, 3287, Note_on_c, 0, 82, 56
1, 3287, Note_on_c, 0, 74, 0
1, 3290, Note_on_c, 0, 77, 55
1, 3329, Note_on_c, 0, 82, 0
1, 3329, Note_on_c, 0, 81, 62
1, 3329, Note_on_c, 0, 77, 0
1, 3332, Note_on_c, 0, 74, 61
1, 3371, Note_on_c, 0, 81, 0
1, 3371, Note_on_c, 0, 82, 56
1, 3371, Note_on_c, 0, 74, 0
1, 3374, Note_on_c, 0, 77, 56
1, 3413, Note_on_c, 0, 82, 0
1, 3413, Note_on_c, 0, 81, 65
1, 3413, Note_on_c, 0, 77, 0
1, 3416, Note_on_c, 0, 74, 64
1, 3499, Note_on_c, 0, 81, 0
1, 3499, Note_on_c, 0, 74, 0
1, 3758, Note_on_c, 0, 77, 61
1, 3758, Note_on_c, 0, 70, 61
1, 3800, Note_on_c, 0, 77, 0
1, 3800, Note_on_c, 0, 79, 57
1, 3800, Note_on_c, 0, 70, 0
1, 3803, Note_on_c, 0, 74, 57
1, 3842, Note_on_c, 0, 79, 0
1, 3842, Note_on_c, 0, 77, 61
1, 3842, Note_on_c, 0, 74, 0
1, 3845, Note_on_c, 0, 70, 61
1, 3884, Note_on_c, 0, 77, 0
1, 3884, Note_on_c, 0, 79, 57
1, 3884, Note_on_c, 0, 70, 0
1, 3887, Note_on_c, 0, 74, 56
1, 3926, Note_on_c, 0, 79, 0
1, 3926, Note_on_c, 0, 77, 70
1, 3926, Note_on_c, 0, 74, 0
1, 3929, Note_on_c, 0, 70, 69
1, 4012, Note_on_c, 0, 77, 0
1, 4012, Note_on_c, 0, 70, 0
1, 4269, Note_on_c, 0, 81, 62
1, 4269, Note_on_c, 0, 74, 62
1, 4311, Note_on_c, 0, 81, 0
1, 4311, Note_on_c, 0, 82, 56
1, 4311, Note_on_c, 0, 74, 0
1, 4314, Note_on_c, 0, 77, 56
1, 4353, Note_on_c, 0, 82, 0
1, 4353, Note_on_c, 0, 81, 62
1, 4353, Note_on_c, 0, 77, 0
1, 4356, Note_on_c, 0, 74, 62
1, 4396, Note_on_c, 0, 81, 0
1, 4396, Note_on_c, 0, 82, 56
1, 4396, Note_on_c, 0, 74, 0
1, 4399, Note_on_c, 0, 77, 57
1, 4438, Note_on_c, 0, 82, 0
1, 4438, Note_on_c, 0, 81, 68
1, 4438, Note_on_c, 0, 77, 0
1, 4441, Note_on_c, 0, 74, 70
1, 4476, Control_c, 0, 64, 127
1, 4538, Note_on_c, 0, 81, 0
1, 4538, Note_on_c, 0, 74, 0
1, 4839, Note_on_c, 0, 69, 42
1, 4839, Note_on_c, 0, 62, 42
1, 5058, Note_on_c, 0, 62, 0
1, 5058, Note_on_c, 0, 69, 0
1, 5058, Note_on_c, 0, 62, 42
1, 5061, Note_on_c, 0, 69, 42
1, 5124, Control_c, 0, 64, 0
1, 5168, Note_on_c, 0, 69, 0
1, 5168, Note_on_c, 0, 62, 0
1, 5497, Note_on_c, 0, 84, 61
1, 5497, Note_on_c, 0, 77, 61
1, 5542, Note_on_c, 0, 84, 0
1, 5542, Note_on_c, 0, 86, 57
1, 5542, Note_on_c, 0, 77, 0
1, 5545, Note_on_c, 0, 81, 56
1, 5588, Note_on_c, 0, 86, 0
1, 5588, Note_on_c, 0, 84, 61
1, 5588, Note_on_c, 0, 81, 0
1, 5591, Note_on_c, 0, 77, 61
1, 5634, Note_on_c, 0, 84, 0
1, 5634, Note_on_c, 0, 86, 57
1, 5634, Note_on_c, 0, 77, 0
1, 5637, Note_on_c, 0, 81, 57
1, 5679, Note_on_c, 0, 86, 0
1, 5679, Note_on_c, 0, 84, 84
1, 5679, Note_on_c, 0, 81, 0
1, 5682, Note_on_c, 0, 77, 85
1, 5709, Control_c, 0, 64, 127
1, 5780, Note_on_c, 0, 84, 0
1, 5780, Note_on_c, 0, 77, 0
1, 6081, Note_on_c, 0, 65, 51
1, 6081, Note_on_c, 0, 72, 51
1, 6287, Note_on_c, 0, 72, 0
1, 6287, Note_on_c, 0, 65, 0
1, 6287, Note_on_c, 0, 65, 51
1, 6290, Note_on_c, 0, 72, 51
1, 6335, Control_c, 0, 64, 0
1, 6390, Note_on_c, 0, 72, 0
1, 6390, Note_on_c, 0, 65, 0
1, 6699, Note_on_c, 0, 88, 61
1, 6699, Note_on_c, 0, 81, 62
1, 6745, Note_on_c, 0, 88, 0
1, 6745, Note_on_c, 0, 89, 56
1, 6745, Note_on_c, 0, 81, 0
1, 6748, Note_on_c, 0, 84, 56
1, 6791, Note_on_c, 0, 89, 0
1, 6791, Note_on_c, 0, 88, 61
1, 6791, Note_on_c, 0, 84, 0
1, 6794, Note_on_c, 0, 81, 62
1, 6838, Note_on_c, 0, 88, 0
1, 6838, Note_on_c, 0, 89, 57
1, 6838, Note_on_c, 0, 81, 0
1, 6841, Note_on_c, 0, 84, 57
1, 6884, Note_on_c, 0, 89, 0
1, 6884, Note_on_c, 0, 88, 83
1, 6884, Note_on_c, 0, 84, 0
1, 6887, Note_on_c, 0, 81, 85
1, 6928, Control_c, 0, 64, 127
1, 6987, Note_on_c, 0, 88, 0
1, 6987, Note_on_c, 0, 81, 0
1, 7296, Note_on_c, 0, 72, 57
1, 7296, Note_on_c, 0, 64, 57
1, 7518, Note_on_c, 0, 64, 0
1, 7518, Note_on_c, 0, 72, 0
1, 7518, Note_on_c, 0, 72, 57
1, 7521, Note_on_c, 0, 64, 57
1, 7588, Control_c, 0, 64, 0
1, 7629, Note_on_c, 0, 64, 0
1, 7629, Note_on_c, 0, 72, 0
1, 7851, Note_on_c, 0, 80, 68
1, 7918, Note_on_c, 0, 80, 0
1, 7918, Note_on_c, 0, 76, 68
1, 8005, Note_on_c, 0, 76, 0
1, 8095, Note_on_c, 0, 72, 62
1, 8095, Note_on_c, 0, 68, 62
1, 8095, Note_on_c, 0, 62, 56
1, 8098, Note_on_c, 0, 52, 56
1, 8301, Note_on_c, 0, 68, 0
1, 8301, Note_on_c, 0, 72, 0
1, 8301, Note_on_c, 0, 52, 0
1, 8304, Note_on_c, 0, 62, 0
1, 8400, Note_on_c, 0, 80, 68
1, 8467, Note_on_c, 0, 80, 0
1, 8467, Note_on_c, 0, 76, 68
1, 8554, Note_on_c, 0, 76, 0
1, 8642, Note_on_c, 0, 68, 63
1, 8642, Note_on_c, 0, 72, 63
1, 8642, Note_on_c, 0, 52, 56
1, 8645, Note_on_c, 0, 62, 56
1, 8847, Note_on_c, 0, 72, 0
1, 8847, Note_on_c, 0, 68, 0
1, 8847, Note_on_c, 0, 62, 0
1, 8850, Note_on_c, 0, 52, 0
1, 8950, Note_on_c, 0, 81, 68
1, 9018, Note_on_c, 0, 81, 0
1, 9018, Note_on_c, 0, 76, 68
1, 9106, Note_on_c, 0, 76, 0
1, 9194, Note_on_c, 0, 69, 70
1, 9194, Control_c, 0, 64, 127
1, 9388, Note_on_c, 0, 69, 0
1, 9582, Note_on_c, 0, 60, 69
1, 9582, Note_on_c, 0, 69, 69
1, 9582, Note_on_c, 0, 52, 63
1, 9585, Note_on_c, 0, 45, 63
1, 9795, Note_on_c, 0, 69, 0
1, 9795, Note_on_c, 0, 60, 0
1, 9795, Note_on_c, 0, 69, 69
1, 9798, Note_on_c, 0, 60, 69
1, 9798, Note_on_c, 0, 45, 0
1, 9798, Note_on_c, 0, 52, 0
1, 9801, Note_on_c, 0, 45, 63
1, 9801, Note_on_c, 0, 52, 63
1, 10009, Note_on_c, 0, 60, 0
1, 10009, Note_on_c, 0, 69, 0
1, 10009, Note_on_c, 0, 52, 0
1, 10012, Note_on_c, 0, 45, 0
1, 10012, Control_c, 0, 64, 0
1, 10222, Note_on_c, 0, 81, 55
1, 10222, Note_on_c, 0, 74, 54
1, 10264, Note_on_c, 0, 81, 0
1, 10264, Note_on_c, 0, 82, 49
1, 10264, Note_on_c, 0, 74, 0
1, 10267, Note_on_c, 0, 77, 49
1, 10306, Note_on_c, 0, 82, 0
1, 10306, Note_on_c, 0, 81, 55
1, 10306, Note_on_c, 0, 77, 0
1, 10309, Note_on_c, 0, 74, 54
1, 10347, Note_on_c, 0, 81, 0
1, 10347, Note_on_c, 0, 82, 50
1, 10347, Note_on_c, 0, 74, 0
1, 10350, Note_on_c, 0, 77, 49
1, 10389, Note_on_c, 0, 82, 0
1, 10389, Note_on_c, 0, 81, 62
1, 10389, Note_on_c, 0, 77, 0
1, 10392, Note_on_c, 0, 74, 63
1, 10422, Control_c, 0, 64, 127
1, 10489, Note_on_c, 0, 81, 0
1, 10489, Note_on_c, 0, 74, 0
1, 10790, Note_on_c, 0, 62, 40
1, 10790, Note_on_c, 0, 69, 40
1, 11012, Note_on_c, 0, 69, 0
1, 11012, Note_on_c, 0, 62, 0
1, 11012, Note_on_c, 0, 62, 40
1, 11015, Note_on_c, 0, 69, 40
1, 11056, Control_c, 0, 64, 0
1, 11122, Note_on_c, 0, 69, 0
1, 11122, Note_on_c, 0, 62, 0
1, 11454, Note_on_c, 0, 86, 56
1, 11454, Note_on_c, 0, 79, 56
1, 11497, Note_on_c, 0, 86, 0
1, 11497, Note_on_c, 0, 88, 51
1, 11497, Note_on_c, 0, 79, 0
1, 11500, Note_on_c, 0, 83, 51
1, 11540, Note_on_c, 0, 88, 0
1, 11540, Note_on_c, 0, 86, 56
1, 11540, Note_on_c, 0, 83, 0
1, 11543, Note_on_c, 0, 79, 56
1, 11583, Note_on_c, 0, 86, 0
1, 11583, Note_on_c, 0, 88, 54
1, 11583, Note_on_c, 0, 79, 0
1, 11586, Note_on_c, 0, 83, 51
1, 11626, Note_on_c, 0, 88, 0
1, 11626, Note_on_c, 0, 86, 63
1, 11626, Note_on_c, 0, 83, 0
1, 11629, Note_on_c, 0, 79, 63
1, 11659, Control_c, 0, 64, 127
1, 11726, Note_on_c, 0, 86, 0
1, 11726, Note_on_c, 0, 79, 0
1, 12028, Note_on_c, 0, 67, 40
1, 12028, Note_on_c, 0, 74, 40
1, 12256, Note_on_c, 0, 74, 0
1, 12256, Note_on_c, 0, 67, 0
1, 12256, Note_on_c, 0, 67, 40
1, 12259, Note_on_c, 0, 74, 40
1, 12305, Control_c, 0, 64, 0
1, 12370, Note_on_c, 0, 74, 0
1, 12370, Note_on_c, 0, 67, 0
1, 12712, Note_on_c, 0, 81, 62
1, 12712, Note_on_c, 0, 74, 61
1, 12754, Note_on_c, 0, 81, 0
1, 12754, Note_on_c, 0, 82, 56
1, 12754, Note_on_c, 0, 74, 0
1, 12757, Note_on_c, 0, 77, 55
1, 12796, Note_on_c, 0, 82, 0
1, 12796, Note_on_c, 0, 81, 62
1, 12796, Note_on_c, 0, 77, 0
1, 12799, Note_on_c, 0, 74, 61
1, 12838, Note_on_c, 0, 81, 0
1, 12838, Note_on_c, 0, 82, 56
1, 12838, Note_on_c, 0, 74, 0
1, 12841, Note_on_c, 0, 77, 56
1, 12880, Note_on_c, 0, 82, 0
1, 12880, Note_on_c, 0, 81, 65
1, 12880, Note_on_c, 0, 77, 0
1, 12883, Note_on_c, 0, 74, 64
1, 12967, Note_on_c, 0, 81, 0
1, 12967, Note_on_c, 0, 74, 0
1, 13225, Note_on_c, 0, 77, 61
1, 13225, Note_on_c, 0, 70, 61
1, 13267, Note_on_c, 0, 77, 0
1, 13267, Note_on_c, 0, 79, 57
1, 13267, Note_on_c, 0, 70, 0
1, 13270, Note_on_c, 0, 74, 57
1, 13309, Note_on_c, 0, 79, 0
1, 13309, Note_on_c, 0, 77, 61
1, 13309, Note_on_c, 0, 74, 0
1, 13312, Note_on_c, 0, 70, 61
1, 13351, Note_on_c, 0, 77, 0
1, 13351, Note_on_c, 0, 79, 57
1, 13351, Note_on_c, 0, 70, 0
1, 13354, Note_on_c, 0, 74, 56
1, 13393, Note_on_c, 0, 79, 0
1, 13393, Note_on_c, 0, 77, 70
1, 13393, Note_on_c, 0, 74, 0
1, 13396, Note_on_c, 0, 70, 69
1, 13479, Note_on_c, 0, 77, 0
1, 13479, Note_on_c, 0, 70, 0
1, 13736, Note_on_c, 0, 81, 62
1, 13736, Note_on_c, 0, 74, 62
1, 13778, Note_on_c, 0, 81, 0
1, 13778, Note_on_c, 0, 82, 56
1, 13778, Note_on_c, 0, 74, 0
1, 13781, Note_on_c, 0, 77, 56
1, 13821, Note_on_c, 0, 82, 0
1, 13821, Note_on_c, 0, 81, 62
1, 13821, Note_on_c, 0, 77, 0
1, 13824, Note_on_c, 0, 74, 62
1, 13863, Note_on_c, 0, 81, 0
1, 13863, Note_on_c, 0, 82, 56
1, 13863, Note_on_c, 0, 74, 0
1, 13866, Note_on_c, 0, 77, 57
1, 13905, Note_on_c, 0, 82, 0
1, 13905, Note_on_c, 0, 81, 68
1, 13905, Note_on_c, 0, 77, 0
1, 13908, Note_on_c, 0, 74, 70
1, 13938, Control_c, 0, 64, 127
1, 14005, Note_on_c, 0, 81, 0
1, 14005, Note_on_c, 0, 74, 0
1, 14307, Note_on_c, 0, 62, 42
1, 14307, Note_on_c, 0, 69, 42
1, 14523, Note_on_c, 0, 69, 0
1, 14523, Note_on_c, 0, 62, 0
1, 14523, Note_on_c, 0, 62, 42
1, 14526, Note_on_c, 0, 69, 42
1, 14587, Control_c, 0, 64, 0
1, 14631, Note_on_c, 0, 69, 0
1, 14631, Note_on_c, 0, 62, 0
1, 14955, Note_on_c, 0, 84, 61
1, 14955, Note_on_c, 0, 77, 61
1, 15000, Note_on_c, 0, 84, 0
1, 15000, Note_on_c, 0, 86, 57
1, 15000, Note_on_c, 0, 77, 0
1, 15003, Note_on_c, 0, 81, 56
1, 15046, Note_on_c, 0, 86, 0
1, 15046, Note_on_c, 0, 84, 61
1, 15046, Note_on_c, 0, 81, 0
1, 15049, Note_on_c, 0, 77, 61
1, 15091, Note_on_c, 0, 84, 0
1, 15091, Note_on_c, 0, 86, 57
1, 15091, Note_on_c, 0, 77, 0
1, 15094, Note_on_c, 0, 81, 57
1, 15137, Note_on_c, 0, 86, 0
1, 15137, Note_on_c, 0, 84, 84
1, 15137, Note_on_c, 0, 81, 0
1, 15140, Note_on_c, 0, 77, 85
1, 15166, Control_c, 0, 64, 127
1, 15237, Note_on_c, 0, 84, 0
1, 15237, Note_on_c, 0, 77, 0
1, 15539, Note_on_c, 0, 65, 51
1, 15539, Note_on_c, 0, 72, 51
1, 15744, Note_on_c, 0, 72, 0
1, 15744, Note_on_c, 0, 65, 0
1, 15744, Note_on_c, 0, 65, 51
1, 15747, Note_on_c, 0, 72, 51
1, 15793, Control_c, 0, 64, 0
1, 15847, Note_on_c, 0, 72, 0
1, 15847, Note_on_c, 0, 65, 0
1, 16156, Note_on_c, 0, 88, 61
1, 16156, Note_on_c, 0, 81, 62
1, 16203, Note_on_c, 0, 88, 0
1, 16203, Note_on_c, 0, 89, 56
1, 16203, Note_on_c, 0, 81, 0
1, 16206, Note_on_c, 0, 84, 56
1, 16249, Note_on_c, 0, 89, 0
1, 16249, Note_on_c, 0, 88, 61
1, 16249, Note_on_c, 0, 84, 0
1, 16252, Note_on_c, 0, 81, 62
1, 16296, Note_on_c, 0, 88, 0
1, 16296, Note_on_c, 0, 89, 57
1, 16296, Note_on_c, 0, 81, 0
1, 16299, Note_on_c, 0, 84, 57
1, 16342, Note_on_c, 0, 89, 0
1, 16342, Note_on_c, 0, 88, 83
1, 16342, Note_on_c, 0, 84, 0
1, 16345, Note_on_c, 0, 81, 85
1, 16406, Control_c, 0, 64, 127
1, 16445, Note_on_c, 0, 88, 0
1, 16445, Note_on_c, 0, 81, 0
1, 16754, Note_on_c, 0, 64, 57
1, 16754, Note_on_c, 0, 72, 57
1, 16981, Note_on_c, 0, 72, 0
1, 16981, Note_on_c, 0, 64, 0
1, 16981, Note_on_c, 0, 64, 57
1, 16984, Note_on_c, 0, 72, 57
1, 17053, Control_c, 0, 64, 0
1, 17094, Note_on_c, 0, 72, 0
1, 17094, Note_on_c, 0, 64, 0
1, 17321, Note_on_c, 0, 80, 68
1, 17388, Note_on_c, 0, 80, 0
1, 17388, Note_on_c, 0, 76, 68
1, 17475, Note_on_c, 0, 76, 0
1, 17565, Note_on_c, 0, 68, 62
1, 17565, Note_on_c, 0, 72, 62
1, 17565, Note_on_c, 0, 62, 56
1, 17568, Note_on_c, 0, 52, 56
1, 17771, Note_on_c, 0, 72, 0
1, 17771, Note_on_c, 0, 68, 0
1, 17771, Note_on_c, 0, 52, 0
1, 17774, Note_on_c, 0, 62, 0
1, 17870, Note_on_c, 0, 80, 68
1, 17937, Note_on_c, 0, 80, 0
1, 17937, Note_on_c, 0, 76, 68
1, 18025, Note_on_c, 0, 76, 0
1, 18112, Note_on_c, 0, 68, 63
1, 18112, Note_on_c, 0, 72, 63
1, 18112, Note_on_c, 0, 62, 56
1, 18115, Note_on_c, 0, 52, 56
1, 18318, Note_on_c, 0, 72, 0
1, 18318, Note_on_c, 0, 68, 0
1, 18318, Note_on_c, 0, 52, 0
1, 18321, Note_on_c, 0, 62, 0
1, 18421, Note_on_c, 0, 81, 68
1, 18488, Note_on_c, 0, 81, 0
1, 18488, Note_on_c, 0, 76, 68
1, 18576, Note_on_c, 0, 76, 0
1, 18664, Note_on_c, 0, 69, 70
1, 18664, Control_c, 0, 64, 127
1, 18849, Note_on_c, 0, 69, 0
1, 19034, Note_on_c, 0, 60, 71
1, 19034, Note_on_c, 0, 69, 71
1, 19034, Note_on_c, 0, 52, 65
1, 19037, Note_on_c, 0, 45, 65
1, 19248, Note_on_c, 0, 69, 0
1, 19248, Note_on_c, 0, 60, 0
1, 19248, Note_on_c, 0, 60, 71
1, 19251, Note_on_c, 0, 69, 71
1, 19251, Note_on_c, 0, 45, 0
1, 19251, Note_on_c, 0, 52, 0
1, 19254, Note_on_c, 0, 45, 65
1, 19254, Note_on_c, 0, 52, 65
1, 19461, Note_on_c, 0, 69, 0
1, 19461, Note_on_c, 0, 60, 0
1, 19461, Note_on_c, 0, 52, 0
1, 19464, Note_on_c, 0, 45, 0
1, 19464, Control_c, 0, 64, 0
1, 19700, Note_on_c, 0, 46, 55
1, 19747, Note_on_c, 0, 46, 0
1, 19747, Note_on_c, 0, 48, 55
1, 19794, Note_on_c, 0, 48, 0
1, 19794, Note_on_c, 0, 46, 55
1, 19841, Note_on_c, 0, 46, 0
1, 19841, Note_on_c, 0, 48, 55
1, 19888, Note_on_c, 0, 48, 0
1, 19888, Note_on_c, 0, 46, 76
1, 20213, Note_on_c, 0, 52, 51
1, 20213, Note_on_c, 0, 62, 51
1, 20298, Note_on_c, 0, 62, 0
1, 20298, Note_on_c, 0, 52, 0
1, 20298, Note_on_c, 0, 64, 55
1, 20383, Note_on_c, 0, 64, 0
1, 20469, Note_on_c, 0, 64, 62
1, 20469, Note_on_c, 0, 62, 62
1, 20469, Note_on_c, 0, 52, 62
1, 20824, Note_on_c, 0, 46, 0
1, 20824, Note_on_c, 0, 46, 55
1, 20871, Note_on_c, 0, 46, 0
1, 20884, Note_on_c, 0, 48, 55
1, 20912, Note_on_c, 0, 46, 55
1, 20931, Note_on_c, 0, 48, 0
1, 20959, Note_on_c, 0, 46, 0
1, 20968, Note_on_c, 0, 48, 55
1, 21012, Note_on_c, 0, 52, 0
1, 21012, Note_on_c, 0, 62, 0
1, 21012, Note_on_c, 0, 64, 0
1, 21015, Note_on_c, 0, 46, 76
1, 21015, Note_on_c, 0, 48, 0
1, 21336, Note_on_c, 0, 62, 51
1, 21336, Note_on_c, 0, 52, 51
1, 21422, Note_on_c, 0, 52, 0
1, 21422, Note_on_c, 0, 62, 0
1, 21422, Note_on_c, 0, 64, 57
1, 21508, Note_on_c, 0, 64, 0
1, 21594, Note_on_c, 0, 62, 61
1, 21594, Note_on_c, 0, 64, 61
1, 21594, Note_on_c, 0, 52, 61
1, 21948, Note_on_c, 0, 46, 0
1, 21948, Note_on_c, 0, 46, 54
1, 21995, Note_on_c, 0, 46, 0
1, 21995, Note_on_c, 0, 48, 54
1, 22042, Note_on_c, 0, 48, 0
1, 22042, Note_on_c, 0, 46, 54
1, 22089, Note_on_c, 0, 46, 0
1, 22089, Note_on_c, 0, 48, 51
1, 22136, Note_on_c, 0, 52, 0
1, 22136, Note_on_c, 0, 64, 0
1, 22136, Note_on_c, 0, 62, 0
1, 22139, Note_on_c, 0, 48, 0
1, 22139, Note_on_c, 0, 46, 79
1, 22310, Note_on_c, 0, 46, 0
1, 22397, Note_on_c, 0, 46, 57
1, 22484, Note_on_c, 0, 64, 51
1, 22484, Note_on_c, 0, 62, 51
1, 22484, Note_on_c, 0, 52, 51
1, 22487, Note_on_c, 0, 46, 0
1, 22487, Note_on_c, 0, 48, 57
1, 22577, Note_on_c, 0, 52, 0
1, 22577, Note_on_c, 0, 62, 0
1, 22577, Note_on_c, 0, 64, 0
1, 22580, Note_on_c, 0, 48, 0
1, 22670, Note_on_c, 0, 46, 78
1, 22845, Note_on_c, 0, 46, 0
1, 22932, Note_on_c, 0, 46, 55
1, 23019, Note_on_c, 0, 64, 51
1, 23019, Note_on_c, 0, 62, 51
1, 23019, Note_on_c, 0, 52, 51
1, 23022, Note_on_c, 0, 46, 0
1, 23022, Note_on_c, 0, 48, 55
1, 23111, Note_on_c, 0, 52, 0
1, 23111, Note_on_c, 0, 62, 0
1, 23111, Note_on_c, 0, 64, 0
1, 23114, Note_on_c, 0, 48, 0
1, 23204, Note_on_c, 0, 45, 75
1, 23465, Note_on_c, 0, 61, 61
1, 23465, Note_on_c, 0, 52, 61
1, 23552, Note_on_c, 0, 52, 0
1, 23552, Note_on_c, 0, 61, 0
1, 23552, Note_on_c, 0, 64, 61
1, 23640, Note_on_c, 0, 64, 0
1, 23727, Note_on_c, 0, 52, 61
1, 23727, Note_on_c, 0, 61, 61
1, 23727, Note_on_c, 0, 64, 61
1, 23909, Note_on_c, 0, 45, 0
1, 23909, Note_on_c, 0, 42, 61
1, 23996, Note_on_c, 0, 42, 0
1, 24082, Note_on_c, 0, 44, 61
1, 24169, Note_on_c, 0, 44, 0
1, 24255, Note_on_c, 0, 64, 0
1, 24255, Note_on_c, 0, 61, 0
1, 24255, Note_on_c, 0, 52, 0
1, 24258, Control_c, 0, 91, 127
1, 24258, Control_c, 0, 91, 127
1, 24258, Note_on_c, 0, 40, 79
1, 24436, Note_on_c, 0, 40, 0
1, 24617, Note_on_c, 0, 69, 94
1, 24617, Note_on_c, 0, 64, 94
1, 24617, Note_on_c, 0, 61, 94
1, 24653, Note_on_c, 0, 69, 0
1, 24653, Note_on_c, 0, 71, 85
1, 24689, Note_on_c, 0, 71, 0
1, 24689, Note_on_c, 0, 69, 85
1, 24725, Note_on_c, 0, 69, 0
1, 24725, Note_on_c, 0, 71, 85
1, 24760, Note_on_c, 0, 71, 0
1, 24760, Note_on_c, 0, 68, 84
1, 24760, Note_on_c, 0, 61, 0
1, 24763, Note_on_c, 0, 64, 0
1, 24763, Note_on_c, 0, 63, 83
1, 24763, Note_on_c, 0, 60, 83
1, 24832, Note_on_c, 0, 68, 0
1, 24832, Note_on_c, 0, 60, 0
1, 24832, Note_on_c, 0, 63, 0
1, 25047, Note_on_c, 0, 67, 90
1, 25047, Note_on_c, 0, 62, 90
1, 25047, Note_on_c, 0, 59, 90
1, 25083, Note_on_c, 0, 67, 0
1, 25083, Note_on_c, 0, 69, 83
1, 25120, Note_on_c, 0, 69, 0
1, 25120, Note_on_c, 0, 67, 83
1, 25156, Note_on_c, 0, 67, 0
1, 25156, Note_on_c, 0, 69, 83
1, 25192, Note_on_c, 0, 69, 0
1, 25192, Note_on_c, 0, 66, 83
1, 25192, Note_on_c, 0, 59, 0
1, 25195, Note_on_c, 0, 62, 0
1, 25195, Note_on_c, 0, 58, 83
1, 25195, Note_on_c, 0, 61, 83
1, 25265, Note_on_c, 0, 66, 0
1, 25265, Note_on_c, 0, 61, 0
1, 25265, Note_on_c, 0, 58, 0
1, 25483, Note_on_c, 0, 65, 87
1, 25483, Note_on_c, 0, 60, 87
1, 25483, Note_on_c, 0, 57, 87
1, 25521, Note_on_c, 0, 65, 0
1, 25521, Note_on_c, 0, 67, 77
1, 25559, Note_on_c, 0, 67, 0
1, 25559, Note_on_c, 0, 65, 77
1, 25596, Note_on_c, 0, 65, 0
1, 25596, Note_on_c, 0, 67, 77
1, 25634, Note_on_c, 0, 67, 0
1, 25634, Note_on_c, 0, 64, 77
1, 25634, Note_on_c, 0, 57, 0
1, 25637, Note_on_c, 0, 60, 0
1, 25637, Note_on_c, 0, 56, 77
1, 25637, Note_on_c, 0, 59, 77
1, 25709, Note_on_c, 0, 64, 0
1, 25709, Note_on_c, 0, 59, 0
1, 25709, Note_on_c, 0, 56, 0
1, 25942, Note_on_c, 0, 62, 84
1, 25942, Note_on_c, 0, 54, 84
1, 25942, Note_on_c, 0, 57, 84
1, 25982, Note_on_c, 0, 62, 0
1, 25982, Note_on_c, 0, 64, 75
1, 26023, Note_on_c, 0, 64, 0
1, 26023, Note_on_c, 0, 62, 75
1, 26063, Note_on_c, 0, 62, 0
1, 26063, Note_on_c, 0, 64, 75
1, 26104, Note_on_c, 0, 64, 0
1, 26104, Note_on_c, 0, 61, 75
1, 26104, Note_on_c, 0, 54, 0
1, 26107, Note_on_c, 0, 53, 76
1, 26185, Note_on_c, 0, 61, 0
1, 26185, Note_on_c, 0, 53, 0
1, 26185, Note_on_c, 0, 57, 0
1, 26428, Note_on_c, 0, 60, 79
1, 26428, Note_on_c, 0, 52, 79
1, 26428, Note_on_c, 0, 57, 79
1, 26470, Note_on_c, 0, 60, 0
1, 26470, Note_on_c, 0, 64, 71
1, 26511, Note_on_c, 0, 64, 0
1, 26511, Note_on_c, 0, 60, 72
1, 26553, Note_on_c, 0, 60, 0
1, 26553, Note_on_c, 0, 64, 72
1, 26594, Note_on_c, 0, 64, 0
1, 26594, Note_on_c, 0, 59, 72
1, 26594, Note_on_c, 0, 52, 0
1, 26597, Note_on_c, 0, 51, 72
1, 26677, Note_on_c, 0, 59, 0
1, 26677, Note_on_c, 0, 51, 0
1, 26677, Note_on_c, 0, 57, 0
1, 26926, Note_on_c, 0, 58, 77
1, 26926, Note_on_c, 0, 50, 77
1, 26926, Note_on_c, 0, 52, 77
1, 26968, Note_on_c, 0, 58, 0
1, 26968, Note_on_c, 0, 64, 69
1, 27010, Note_on_c, 0, 64, 0
1, 27010, Note_on_c, 0, 58, 68
1, 27053, Note_on_c, 0, 58, 0
1, 27053, Note_on_c, 0, 64, 68
1, 27095, Note_on_c, 0, 64, 0
1, 27095, Note_on_c, 0, 57, 84
1, 27095, Note_on_c, 0, 52, 0
1, 27098, Note_on_c, 0, 49, 70
1, 27180, Note_on_c, 0, 57, 0
1, 27180, Note_on_c, 0, 49, 0
1, 27180, Note_on_c, 0, 50, 0
1, 27359, Note_on_c, 0, 40, 83
1, 27448, Note_on_c, 0, 40, 0
1, 27448, Note_on_c, 0, 45, 92
1, 27562, Note_on_c, 0, 45, 0
1, 27675, Note_on_c, 0, 33, 79
1, 27766, Note_on_c, 0, 33, 0
1, 28038, Note_on_c, 0, 70, 91
1, 28038, Note_on_c, 0, 62, 89
1, 28038, Note_on_c, 0, 64, 89
1, 28075, Note_on_c, 0, 70, 0
1, 28075, Note_on_c, 0, 76, 79
1, 28113, Note_on_c, 0, 76, 0
1, 28113, Note_on_c, 0, 70, 79
1, 28151, Note_on_c, 0, 70, 0
1, 28151, Note_on_c, 0, 76, 79
1, 28188, Note_on_c, 0, 76, 0
1, 28188, Note_on_c, 0, 69, 79
1, 28188, Note_on_c, 0, 62, 0
1, 28191, Note_on_c, 0, 61, 79
1, 28264, Note_on_c, 0, 69, 0
1, 28264, Note_on_c, 0, 61, 0
1, 28264, Note_on_c, 0, 64, 0
1, 28414, Note_on_c, 0, 52, 76
1, 28490, Note_on_c, 0, 52, 0
1, 28490, Note_on_c, 0, 57, 89
1, 28592, Note_on_c, 0, 57, 0
1, 28695, Note_on_c, 0, 45, 70
1, 28782, Note_on_c, 0, 45, 0
1, 29045, Note_on_c, 0, 82, 99
1, 29045, Note_on_c, 0, 74, 99
1, 29045, Note_on_c, 0, 76, 99
1, 29082, Note_on_c, 0, 82, 0
1, 29082, Note_on_c, 0, 88, 91
1, 29120, Note_on_c, 0, 88, 0
1, 29120, Note_on_c, 0, 82, 91
1, 29158, Note_on_c, 0, 82, 0
1, 29158, Note_on_c, 0, 88, 91
1, 29196, Note_on_c, 0, 88, 0
1, 29196, Note_on_c, 0, 81, 91
1, 29196, Note_on_c, 0, 74, 0
1, 29199, Note_on_c, 0, 73, 91
1, 29272, Note_on_c, 0, 81, 0
1, 29272, Note_on_c, 0, 73, 0
1, 29272, Note_on_c, 0, 76, 0
1, 29423, Note_on_c, 0, 64, 85
1, 29500, Note_on_c, 0, 64, 0
1, 29500, Note_on_c, 0, 69, 94
1, 29605, Note_on_c, 0, 69, 0
1, 29709, Note_on_c, 0, 57, 69
1, 29792, Note_on_c, 0, 57, 0
1, 30039, Note_on_c, 0, 94, 105
1, 30039, Note_on_c, 0, 88, 103
1, 30039, Note_on_c, 0, 86, 103
1, 30075, Note_on_c, 0, 94, 0
1, 30075, Note_on_c, 0, 100, 96
1, 30111, Note_on_c, 0, 100, 0
1, 30111, Note_on_c, 0, 94, 96
1, 30147, Note_on_c, 0, 94, 0
1, 30147, Note_on_c, 0, 100, 96
1, 30183, Note_on_c, 0, 100, 0
1, 30183, Note_on_c, 0, 93, 96
1, 30183, Note_on_c, 0, 86, 0
1, 30186, Note_on_c, 0, 85, 98
1, 30255, Note_on_c, 0, 93, 0
1, 30255, Note_on_c, 0, 85, 0
1, 30255, Note_on_c, 0, 88, 0
1, 30471, Note_on_c, 0, 82, 99
1, 30471, Note_on_c, 0, 74, 98
1, 30471, Note_on_c, 0, 76, 98
1, 30507, Note_on_c, 0, 82, 0
1, 30507, Note_on_c, 0, 88, 84
1, 30543, Note_on_c, 0, 88, 0
1, 30543, Note_on_c, 0, 82, 84
1, 30578, Note_on_c, 0, 82, 0
1, 30578, Note_on_c, 0, 88, 84
1, 30614, Note_on_c, 0, 88, 0
1, 30614, Note_on_c, 0, 81, 84
1, 30614, Note_on_c, 0, 74, 0
1, 30617, Note_on_c, 0, 73, 84
1, 30686, Note_on_c, 0, 81, 0
1, 30686, Note_on_c, 0, 73, 0
1, 30686, Note_on_c, 0, 76, 0
1, 30902, Note_on_c, 0, 70, 85
1, 30902, Note_on_c, 0, 62, 84
1, 30902, Note_on_c, 0, 64, 84
1, 30940, Note_on_c, 0, 70, 0
1, 30940, Note_on_c, 0, 76, 69
1, 30977, Note_on_c, 0, 76, 0
1, 30977, Note_on_c, 0, 70, 69
1, 31015, Note_on_c, 0, 70, 0
1, 31015, Note_on_c, 0, 76, 69
1, 31053, Note_on_c, 0, 76, 0
1, 31053, Note_on_c, 0, 69, 69
1, 31053, Note_on_c, 0, 62, 0
1, 31056, Note_on_c, 0, 61, 70
1, 31128, Note_on_c, 0, 69, 0
1, 31128, Note_on_c, 0, 61, 0
1, 31128, Note_on_c, 0, 64, 0
1, 31354, Note_on_c, 0, 58, 70
1, 31354, Note_on_c, 0, 50, 69
1, 31354, Note_on_c, 0, 52, 69
1, 31413, Note_on_c, 0, 58, 0
1, 31413, Note_on_c, 0, 64, 56
1, 31473, Note_on_c, 0, 64, 0
1, 31473, Note_on_c, 0, 58, 56
1, 31533, Note_on_c, 0, 58, 0
1, 31533, Note_on_c, 0, 64, 58
1, 31592, Note_on_c, 0, 64, 0
1, 31592, Note_on_c, 0, 57, 58
1, 31592, Note_on_c, 0, 50, 0
1, 31595, Note_on_c, 0, 49, 56
1, 31711, Note_on_c, 0, 57, 0
1, 31711, Note_on_c, 0, 49, 0
1, 31711, Note_on_c, 0, 52, 0
1, 32069, Note_on_c, 0, 81, 62
1, 32069, Note_on_c, 0, 74, 61
1, 32116, Note_on_c, 0, 81, 0
1, 32116, Note_on_c, 0, 82, 55
1, 32116, Note_on_c, 0, 74, 0
1, 32119, Note_on_c, 0, 77, 55
1, 32158, Note_on_c, 0, 82, 0
1, 32158, Note_on_c, 0, 81, 62
1, 32158, Note_on_c, 0, 77, 0
1, 32161, Note_on_c, 0, 74, 61
1, 32200, Note_on_c, 0, 81, 0
1, 32200, Note_on_c, 0, 82, 56
1, 32200, Note_on_c, 0, 74, 0
1, 32203, Note_on_c, 0, 77, 55
1, 32242, Note_on_c, 0, 82, 0
1, 32242, Note_on_c, 0, 81, 71
1, 32242, Note_on_c, 0, 77, 0
1, 32245, Note_on_c, 0, 74, 69
1, 32256, Control_c, 0, 64, 127
1, 32343, Note_on_c, 0, 81, 0
1, 32343, Note_on_c, 0, 74, 0
1, 32645, Note_on_c, 0, 82, 75
1, 32688, Note_on_c, 0, 82, 0
1, 32688, Note_on_c, 0, 81, 72
1, 32732, Note_on_c, 0, 81, 0
1, 32732, Note_on_c, 0, 77, 69
1, 32775, Note_on_c, 0, 77, 0
1, 32775, Note_on_c, 0, 74, 65
1, 32819, Note_on_c, 0, 74, 0
1, 32819, Note_on_c, 0, 69, 63
1, 32862, Note_on_c, 0, 69, 0
1, 32862, Note_on_c, 0, 62, 63
1, 32905, Control_c, 0, 64, 0
1, 32971, Note_on_c, 0, 62, 0
1, 33296, Note_on_c, 0, 86, 63
1, 33296, Note_on_c, 0, 79, 63
1, 33338, Note_on_c, 0, 86, 0
1, 33338, Note_on_c, 0, 88, 58
1, 33338, Note_on_c, 0, 79, 0
1, 33341, Note_on_c, 0, 83, 58
1, 33380, Note_on_c, 0, 88, 0
1, 33380, Note_on_c, 0, 86, 63
1, 33380, Note_on_c, 0, 83, 0
1, 33383, Note_on_c, 0, 79, 63
1, 33422, Note_on_c, 0, 86, 0
1, 33422, Note_on_c, 0, 88, 61
1, 33422, Note_on_c, 0, 79, 0
1, 33425, Note_on_c, 0, 83, 58
1, 33464, Note_on_c, 0, 88, 0
1, 33464, Note_on_c, 0, 86, 71
1, 33464, Note_on_c, 0, 83, 0
1, 33467, Note_on_c, 0, 79, 71
1, 33483, Control_c, 0, 64, 127
1, 33565, Note_on_c, 0, 86, 0
1, 33565, Note_on_c, 0, 79, 0
1, 33869, Note_on_c, 0, 88, 70
1, 33912, Note_on_c, 0, 88, 0
1, 33912, Note_on_c, 0, 86, 69
1, 33956, Note_on_c, 0, 86, 0
1, 33956, Note_on_c, 0, 83, 65
1, 33999, Note_on_c, 0, 83, 0
1, 33999, Note_on_c, 0, 79, 64
1, 34042, Note_on_c, 0, 79, 0
1, 34042, Note_on_c, 0, 74, 62
1, 34086, Note_on_c, 0, 74, 0
1, 34086, Note_on_c, 0, 67, 57
1, 34133, Control_c, 0, 64, 0
1, 34194, Note_on_c, 0, 67, 0
1, 34520, Note_on_c, 0, 81, 70
1, 34520, Note_on_c, 0, 74, 69
1, 34562, Note_on_c, 0, 81, 0
1, 34562, Note_on_c, 0, 82, 63
1, 34562, Note_on_c, 0, 74, 0
1, 34565, Note_on_c, 0, 77, 62
1, 34604, Note_on_c, 0, 82, 0
1, 34604, Note_on_c, 0, 81, 70
1, 34604, Note_on_c, 0, 77, 0
1, 34607, Note_on_c, 0, 74, 69
1, 34645, Note_on_c, 0, 81, 0
1, 34645, Note_on_c, 0, 82, 63
1, 34645, Note_on_c, 0, 74, 0
1, 34648, Note_on_c, 0, 77, 63
1, 34687, Note_on_c, 0, 82, 0
1, 34687, Note_on_c, 0, 81, 75
1, 34687, Note_on_c, 0, 77, 0
1, 34690, Note_on_c, 0, 74, 72
1, 34773, Note_on_c, 0, 81, 0
1, 34773, Note_on_c, 0, 74, 0
1, 35030, Note_on_c, 0, 77, 69
1, 35030, Note_on_c, 0, 70, 69
1, 35072, Note_on_c, 0, 77, 0
1, 35072, Note_on_c, 0, 79, 64
1, 35072, Note_on_c, 0, 70, 0
1, 35075, Note_on_c, 0, 74, 64
1, 35113, Note_on_c, 0, 79, 0
1, 35113, Note_on_c, 0, 77, 69
1, 35113, Note_on_c, 0, 74, 0
1, 35116, Note_on_c, 0, 70, 69
1, 35155, Note_on_c, 0, 77, 0
1, 35155, Note_on_c, 0, 79, 64
1, 35155, Note_on_c, 0, 70, 0
1, 35158, Note_on_c, 0, 74, 63
1, 35197, Note_on_c, 0, 79, 0
1, 35197, Note_on_c, 0, 77, 79
1, 35197, Note_on_c, 0, 74, 0
1, 35200, Note_on_c, 0, 70, 77
1, 35282, Note_on_c, 0, 77, 0
1, 35282, Note_on_c, 0, 70, 0
1, 35540, Note_on_c, 0, 81, 70
1, 35540, Note_on_c, 0, 74, 70
1, 35581, Note_on_c, 0, 81, 0
1, 35581, Note_on_c, 0, 82, 63
1, 35581, Note_on_c, 0, 74, 0
1, 35584, Note_on_c, 0, 77, 63
1, 35623, Note_on_c, 0, 82, 0
1, 35623, Note_on_c, 0, 81, 70
1, 35623, Note_on_c, 0, 77, 0
1, 35626, Note_on_c, 0, 74, 70
1, 35665, Note_on_c, 0, 81, 0
1, 35665, Note_on_c, 0, 82, 63
1, 35665, Note_on_c, 0, 74, 0
1, 35668, Note_on_c, 0, 77, 64
1, 35706, Note_on_c, 0, 82, 0
1, 35706, Note_on_c, 0, 81, 76
1, 35706, Note_on_c, 0, 77, 0
1, 35709, Note_on_c, 0, 74, 79
1, 35723, Control_c, 0, 64, 127
1, 35795, Note_on_c, 0, 81, 0
1, 35795, Note_on_c, 0, 74, 0
1, 36063, Note_on_c, 0, 82, 70
1, 36100, Note_on_c, 0, 82, 0
1, 36100, Note_on_c, 0, 81, 64
1, 36136, Note_on_c, 0, 81, 0
1, 36136, Note_on_c, 0, 77, 62
1, 36173, Note_on_c, 0, 77, 0
1, 36173, Note_on_c, 0, 74, 56
1, 36210, Note_on_c, 0, 74, 0
1, 36210, Note_on_c, 0, 69, 54
1, 36247, Note_on_c, 0, 69, 0
1, 36247, Note_on_c, 0, 62, 63
1, 36302, Control_c, 0, 64, 0
1, 36339, Note_on_c, 0, 62, 0
1, 36615, Note_on_c, 0, 81, 69
1, 36615, Note_on_c, 0, 73, 69
1, 36657, Note_on_c, 0, 81, 0
1, 36657, Note_on_c, 0, 82, 64
1, 36657, Note_on_c, 0, 73, 0
1, 36660, Note_on_c, 0, 77, 63
1, 36699, Note_on_c, 0, 82, 0
1, 36699, Note_on_c, 0, 81, 69
1, 36699, Note_on_c, 0, 77, 0
1, 36702, Note_on_c, 0, 73, 69
1, 36741, Note_on_c, 0, 81, 0
1, 36741, Note_on_c, 0, 82, 64
1, 36741, Note_on_c, 0, 73, 0
1, 36744, Note_on_c, 0, 77, 64
1, 36783, Note_on_c, 0, 82, 0
1, 36783, Note_on_c, 0, 81, 89
1, 36783, Note_on_c, 0, 77, 0
1, 36786, Control_c, 0, 64, 127
1, 36786, Note_on_c, 0, 73, 90
1, 36885, Note_on_c, 0, 81, 0
1, 36885, Note_on_c, 0, 73, 0
1, 37188, Note_on_c, 0, 82, 79
1, 37231, Note_on_c, 0, 82, 0
1, 37231, Note_on_c, 0, 81, 76
1, 37274, Note_on_c, 0, 81, 0
1, 37274, Note_on_c, 0, 77, 71
1, 37317, Note_on_c, 0, 77, 0
1, 37317, Note_on_c, 0, 73, 68
1, 37359, Note_on_c, 0, 73, 0
1, 37359, Note_on_c, 0, 69, 64
1, 37402, Note_on_c, 0, 69, 0
1, 37402, Note_on_c, 0, 61, 65
1, 37452, Control_c, 0, 64, 0
1, 37509, Note_on_c, 0, 61, 0
1, 37804, Note_on_c, 0, 84, 69
1, 37804, Note_on_c, 0, 77, 70
1, 37847, Note_on_c, 0, 84, 0
1, 37847, Note_on_c, 0, 86, 63
1, 37847, Note_on_c, 0, 77, 0
1, 37850, Note_on_c, 0, 81, 63
1, 37889, Note_on_c, 0, 86, 0
1, 37889, Note_on_c, 0, 84, 69
1, 37889, Note_on_c, 0, 81, 0
1, 37892, Note_on_c, 0, 77, 70
1, 37931, Note_on_c, 0, 84, 0
1, 37931, Note_on_c, 0, 86, 64
1, 37931, Note_on_c, 0, 77, 0
1, 37934, Note_on_c, 0, 81, 64
1, 37974, Note_on_c, 0, 86, 0
1, 37974, Note_on_c, 0, 84, 107
1, 37974, Note_on_c, 0, 81, 0
1, 37977, Control_c, 0, 64, 127
1, 37977, Note_on_c, 0, 81, 91
1, 38078, Note_on_c, 0, 84, 0
1, 38078, Note_on_c, 0, 81, 0
1, 38389, Note_on_c, 0, 86, 87
1, 38427, Note_on_c, 0, 86, 0
1, 38427, Note_on_c, 0, 84, 82
1, 38466, Note_on_c, 0, 84, 0
1, 38466, Note_on_c, 0, 81, 79
1, 38504, Note_on_c, 0, 81, 0
1, 38504, Note_on_c, 0, 77, 77
1, 38542, Note_on_c, 0, 77, 0
1, 38542, Note_on_c, 0, 72, 72
1, 38581, Note_on_c, 0, 72, 0
1, 38581, Note_on_c, 0, 69, 70
1, 38619, Note_on_c, 0, 69, 0
1, 38619, Note_on_c, 0, 60, 68
1, 38682, Control_c, 0, 64, 0
1, 38718, Note_on_c, 0, 60, 0
1, 38915, Note_on_c, 0, 85, 76
1, 38982, Note_on_c, 0, 85, 0
1, 38982, Note_on_c, 0, 81, 76
1, 39064, Note_on_c, 0, 81, 0
1, 39149, Note_on_c, 0, 73, 72
1, 39149, Note_on_c, 0, 77, 72
1, 39149, Control_c, 0, 64, 127
1, 39152, Note_on_c, 0, 67, 68
1, 39152, Note_on_c, 0, 57, 68
1, 39245, Note_on_c, 0, 57, 0
1, 39245, Note_on_c, 0, 67, 0
1, 39342, Note_on_c, 0, 77, 0
1, 39342, Note_on_c, 0, 73, 0
1, 39436, Note_on_c, 0, 85, 77
1, 39503, Note_on_c, 0, 85, 0
1, 39503, Note_on_c, 0, 81, 77
1, 39586, Note_on_c, 0, 81, 0
1, 39669, Note_on_c, 0, 73, 72
1, 39669, Note_on_c, 0, 77, 72
1, 39669, Note_on_c, 0, 67, 68
1, 39672, Note_on_c, 0, 57, 68
1, 39765, Note_on_c, 0, 57, 0
1, 39765, Note_on_c, 0, 67, 0
1, 39860, Note_on_c, 0, 77, 0
1, 39860, Note_on_c, 0, 73, 0
1, 39915, Control_c, 0, 64, 0
1, 39955, Note_on_c, 0, 86, 77
1, 40023, Note_on_c, 0, 86, 0
1, 40023, Note_on_c, 0, 81, 77
1, 40107, Note_on_c, 0, 81, 0
1, 40190, Note_on_c, 0, 74, 76
1, 40190, Control_c, 0, 64, 127
1, 40364, Note_on_c, 0, 74, 0
1, 40538, Note_on_c, 0, 65, 65
1, 40538, Note_on_c, 0, 74, 65
1, 40538, Note_on_c, 0, 57, 63
1, 40541, Note_on_c, 0, 50, 63
1, 40753, Note_on_c, 0, 74, 0
1, 40753, Note_on_c, 0, 65, 0
1, 40753, Note_on_c, 0, 65, 65
1, 40756, Note_on_c, 0, 74, 65
1, 40756, Note_on_c, 0, 50, 0
1, 40756, Note_on_c, 0, 57, 0
1, 40759, Note_on_c, 0, 50, 63
1, 40759, Note_on_c, 0, 57, 63
1, 40984, Note_on_c, 0, 74, 0
1, 40984, Note_on_c, 0, 65, 0
1, 40984, Note_on_c, 0, 57, 0
1, 40987, Note_on_c, 0, 50, 0
1, 40987, Control_c, 0, 64, 0
1, 41223, Control_c, 0, 91, 127
1, 41223, Control_c, 0, 91, 127
1, 41223, Note_on_c, 0, 46, 54
1, 41267, Note_on_c, 0, 48, 54
1, 41270, Note_on_c, 0, 46, 0
1, 41304, Note_on_c, 0, 46, 54
1, 41313, Note_on_c, 0, 48, 0
1, 41350, Note_on_c, 0, 46, 0
1, 41354, Note_on_c, 0, 48, 54
1, 41400, Note_on_c, 0, 48, 0
1, 41409, Note_on_c, 0, 46, 76
1, 41734, Note_on_c, 0, 52, 51
1, 41734, Note_on_c, 0, 62, 51
1, 41819, Note_on_c, 0, 62, 0
1, 41819, Note_on_c, 0, 52, 0
1, 41819, Note_on_c, 0, 64, 55
1, 41905, Note_on_c, 0, 64, 0
1, 41990, Note_on_c, 0, 64, 62
1, 41990, Note_on_c, 0, 62, 62
1, 41990, Note_on_c, 0, 52, 62
1, 42345, Note_on_c, 0, 46, 0
1, 42345, Note_on_c, 0, 46, 55
1, 42392, Note_on_c, 0, 46, 0
1, 42405, Note_on_c, 0, 48, 55
1, 42433, Note_on_c, 0, 46, 55
1, 42452, Note_on_c, 0, 48, 0
1, 42480, Note_on_c, 0, 46, 0
1, 42489, Note_on_c, 0, 48, 55
1, 42533, Note_on_c, 0, 52, 0
1, 42533, Note_on_c, 0, 62, 0
1, 42533, Note_on_c, 0, 64, 0
1, 42536, Note_on_c, 0, 46, 76
1, 42536, Note_on_c, 0, 48, 0
1, 42857, Note_on_c, 0, 62, 51
1, 42857, Note_on_c, 0, 52, 51
1, 42943, Note_on_c, 0, 52, 0
1, 42943, Note_on_c, 0, 62, 0
1, 42943, Note_on_c, 0, 64, 57
1, 43029, Note_on_c, 0, 64, 0
1, 43115, Note_on_c, 0, 62, 61
1, 43115, Note_on_c, 0, 64, 61
1, 43115, Note_on_c, 0, 52, 61
1, 43469, Note_on_c, 0, 46, 0
1, 43469, Note_on_c, 0, 46, 54
1, 43516, Note_on_c, 0, 46, 0
1, 43516, Note_on_c, 0, 48, 54
1, 43563, Note_on_c, 0, 48, 0
1, 43563, Note_on_c, 0, 46, 54
1, 43610, Note_on_c, 0, 46, 0
1, 43610, Note_on_c, 0, 48, 51
1, 43657, Note_on_c, 0, 52, 0
1, 43657, Note_on_c, 0, 64, 0
1, 43657, Note_on_c, 0, 62, 0
1, 43660, Note_on_c, 0, 48, 0
1, 43660, Note_on_c, 0, 46, 79
1, 43831, Note_on_c, 0, 46, 0
1, 43918, Note_on_c, 0, 46, 57
1, 44005, Note_on_c, 0, 64, 51
1, 44005, Note_on_c, 0, 62, 51
1, 44005, Note_on_c, 0, 52, 51
1, 44008, Note_on_c, 0, 46, 0
1, 44008, Note_on_c, 0, 48, 57
1, 44098, Note_on_c, 0, 52, 0
1, 44098, Note_on_c, 0, 62, 0
1, 44098, Note_on_c, 0, 64, 0
1, 44101, Note_on_c, 0, 48, 0
1, 44192, Note_on_c, 0, 46, 78
1, 44366, Note_on_c, 0, 46, 0
1, 44453, Note_on_c, 0, 46, 55
1, 44540, Note_on_c, 0, 64, 51
1, 44540, Note_on_c, 0, 62, 51
1, 44540, Note_on_c, 0, 52, 51
1, 44543, Note_on_c, 0, 46, 0
1, 44543, Note_on_c, 0, 48, 55
1, 44632, Note_on_c, 0, 52, 0
1, 44632, Note_on_c, 0, 62, 0
1, 44632, Note_on_c, 0, 64, 0
1, 44635, Note_on_c, 0, 48, 0
1, 44725, Note_on_c, 0, 45, 75
1, 44986, Note_on_c, 0, 61, 61
1, 44986, Note_on_c, 0, 52, 61
1, 45074, Note_on_c, 0, 52, 0
1, 45074, Note_on_c, 0, 61, 0
1, 45074, Note_on_c, 0, 64, 61
1, 45161, Note_on_c, 0, 64, 0
1, 45248, Note_on_c, 0, 52, 61
1, 45248, Note_on_c, 0, 61, 61
1, 45248, Note_on_c, 0, 64, 61
1, 45431, Note_on_c, 0, 45, 0
1, 45431, Note_on_c, 0, 42, 61
1, 45517, Note_on_c, 0, 42, 0
1, 45603, Note_on_c, 0, 44, 61
1, 45690, Note_on_c, 0, 44, 0
1, 45776, Note_on_c, 0, 64, 0
1, 45776, Note_on_c, 0, 61, 0
1, 45776, Note_on_c, 0, 52, 0
1, 45779, Control_c, 0, 91, 127
1, 45779, Note_on_c, 0, 40, 79
1, 45779, Control_c, 0, 91, 127
1, 45957, Note_on_c, 0, 40, 0
1, 46138, Note_on_c, 0, 69, 94
1, 46138, Note_on_c, 0, 61, 94
1, 46138, Note_on_c, 0, 64, 94
1, 46174, Note_on_c, 0, 69, 0
1, 46174, Note_on_c, 0, 71, 85
1, 46210, Note_on_c, 0, 71, 0
1, 46210, Note_on_c, 0, 69, 85
1, 46246, Note_on_c, 0, 69, 0
1, 46246, Note_on_c, 0, 71, 85
1, 46282, Note_on_c, 0, 71, 0
1, 46282, Note_on_c, 0, 68, 84
1, 46282, Note_on_c, 0, 64, 0
1, 46285, Note_on_c, 0, 61, 0
1, 46285, Note_on_c, 0, 63, 83
1, 46285, Note_on_c, 0, 60, 83
1, 46353, Note_on_c, 0, 68, 0
1, 46353, Note_on_c, 0, 60, 0
1, 46353, Note_on_c, 0, 63, 0
1, 46568, Note_on_c, 0, 67, 90
1, 46568, Note_on_c, 0, 62, 90
1, 46568, Note_on_c, 0, 59, 90
1, 46604, Note_on_c, 0, 67, 0
1, 46604, Note_on_c, 0, 69, 83
1, 46641, Note_on_c, 0, 69, 0
1, 46641, Note_on_c, 0, 67, 83
1, 46677, Note_on_c, 0, 67, 0
1, 46677, Note_on_c, 0, 69, 83
1, 46713, Note_on_c, 0, 69, 0
1, 46713, Note_on_c, 0, 66, 83
1, 46713, Note_on_c, 0, 59, 0
1, 46716, Note_on_c, 0, 62, 0
1, 46716, Note_on_c, 0, 58, 83
1, 46716, Note_on_c, 0, 61, 83
1, 46786, Note_on_c, 0, 66, 0
1, 46786, Note_on_c, 0, 61, 0
1, 46786, Note_on_c, 0, 58, 0
1, 47004, Note_on_c, 0, 65, 87
1, 47004, Note_on_c, 0, 60, 87
1, 47004, Note_on_c, 0, 57, 87
1, 47042, Note_on_c, 0, 65, 0
1, 47042, Note_on_c, 0, 67, 77
1, 47080, Note_on_c, 0, 67, 0
1, 47080, Note_on_c, 0, 65, 77
1, 47117, Note_on_c, 0, 65, 0
1, 47117, Note_on_c, 0, 67, 77
1, 47155, Note_on_c, 0, 67, 0
1, 47155, Note_on_c, 0, 64, 77
1, 47155, Note_on_c, 0, 57, 0
1, 47158, Note_on_c, 0, 60, 0
1, 47158, Note_on_c, 0, 59, 77
1, 47158, Note_on_c, 0, 56, 77
1, 47230, Note_on_c, 0, 64, 0
1, 47230, Note_on_c, 0, 56, 0
1, 47230, Note_on_c, 0, 59, 0
1, 47463, Note_on_c, 0, 62, 84
1, 47463, Note_on_c, 0, 54, 84
1, 47463, Note_on_c, 0, 57, 84
1, 47503, Note_on_c, 0, 62, 0
1, 47503, Note_on_c, 0, 64, 75
1, 47544, Note_on_c, 0, 64, 0
1, 47544, Note_on_c, 0, 62, 75
1, 47585, Note_on_c, 0, 62, 0
1, 47585, Note_on_c, 0, 64, 75
1, 47625, Note_on_c, 0, 64, 0
1, 47625, Note_on_c, 0, 61, 75
1, 47625, Note_on_c, 0, 54, 0
1, 47628, Note_on_c, 0, 53, 76
1, 47706, Note_on_c, 0, 61, 0
1, 47706, Note_on_c, 0, 53, 0
1, 47706, Note_on_c, 0, 57, 0
1, 47950, Note_on_c, 0, 60, 79
1, 47950, Note_on_c, 0, 57, 79
1, 47950, Note_on_c, 0, 52, 79
1, 47991, Note_on_c, 0, 60, 0
1, 47991, Note_on_c, 0, 64, 71
1, 48032, Note_on_c, 0, 64, 0
1, 48032, Note_on_c, 0, 60, 72
1, 48074, Note_on_c, 0, 60, 0
1, 48074, Note_on_c, 0, 64, 72
1, 48115, Note_on_c, 0, 64, 0
1, 48115, Note_on_c, 0, 59, 72
1, 48115, Note_on_c, 0, 52, 0
1, 48118, Note_on_c, 0, 51, 72
1, 48198, Note_on_c, 0, 59, 0
1, 48198, Note_on_c, 0, 51, 0
1, 48198, Note_on_c, 0, 57, 0
1, 48447, Note_on_c, 0, 58, 77
1, 48447, Note_on_c, 0, 50, 77
1, 48447, Note_on_c, 0, 52, 77
1, 48489, Note_on_c, 0, 58, 0
1, 48489, Note_on_c, 0, 64, 69
1, 48532, Note_on_c, 0, 64, 0
1, 48532, Note_on_c, 0, 58, 68
1, 48574, Note_on_c, 0, 58, 0
1, 48574, Note_on_c, 0, 64, 68
1, 48616, Note_on_c, 0, 64, 0
1, 48616, Note_on_c, 0, 57, 84
1, 48616, Note_on_c, 0, 52, 0
1, 48619, Note_on_c, 0, 49, 70
1, 48701, Note_on_c, 0, 57, 0
1, 48701, Note_on_c, 0, 49, 0
1, 48701, Note_on_c, 0, 50, 0
1, 48880, Note_on_c, 0, 40, 83
1, 48970, Note_on_c, 0, 40, 0
1, 48970, Note_on_c, 0, 45, 92
1, 49083, Note_on_c, 0, 45, 0
1, 49197, Note_on_c, 0, 33, 79
1, 49287, Note_on_c, 0, 33, 0
1, 49559, Note_on_c, 0, 70, 91
1, 49559, Note_on_c, 0, 64, 89
1, 49559, Note_on_c, 0, 62, 89
1, 49596, Note_on_c, 0, 70, 0
1, 49596, Note_on_c, 0, 76, 79
1, 49634, Note_on_c, 0, 76, 0
1, 49634, Note_on_c, 0, 70, 79
1, 49672, Note_on_c, 0, 70, 0
1, 49672, Note_on_c, 0, 76, 79
1, 49709, Note_on_c, 0, 76, 0
1, 49709, Note_on_c, 0, 69, 79
1, 49709, Note_on_c, 0, 62, 0
1, 49712, Note_on_c, 0, 61, 79
1, 49785, Note_on_c, 0, 69, 0
1, 49785, Note_on_c, 0, 61, 0
1, 49785, Note_on_c, 0, 64, 0
1, 49936, Note_on_c, 0, 52, 76
1, 50011, Note_on_c, 0, 52, 0
1, 50011, Note_on_c, 0, 57, 89
1, 50114, Note_on_c, 0, 57, 0
1, 50216, Note_on_c, 0, 45, 70
1, 50304, Note_on_c, 0, 45, 0
1, 50566, Note_on_c, 0, 82, 99
1, 50566, Note_on_c, 0, 74, 99
1, 50566, Note_on_c, 0, 76, 99
1, 50604, Note_on_c, 0, 82, 0
1, 50604, Note_on_c, 0, 88, 91
1, 50641, Note_on_c, 0, 88, 0
1, 50641, Note_on_c, 0, 82, 91
1, 50679, Note_on_c, 0, 82, 0
1, 50679, Note_on_c, 0, 88, 91
1, 50717, Note_on_c, 0, 88, 0
1, 50717, Note_on_c, 0, 81, 91
1, 50717, Note_on_c, 0, 74, 0
1, 50720, Note_on_c, 0, 73, 91
1, 50793, Note_on_c, 0, 81, 0
1, 50793, Note_on_c, 0, 73, 0
1, 50793, Note_on_c, 0, 76, 0
1, 50944, Note_on_c, 0, 64, 85
1, 51021, Note_on_c, 0, 64, 0
1, 51021, Note_on_c, 0, 69, 94
1, 51126, Note_on_c, 0, 69, 0
1, 51230, Note_on_c, 0, 57, 69
1, 51313, Note_on_c, 0, 57, 0
1, 51561, Note_on_c, 0, 94, 105
1, 51561, Note_on_c, 0, 88, 105
1, 51561, Note_on_c, 0, 86, 105
1, 51596, Note_on_c, 0, 94, 0
1, 51596, Note_on_c, 0, 100, 96
1, 51632, Note_on_c, 0, 100, 0
1, 51632, Note_on_c, 0, 94, 96
1, 51668, Note_on_c, 0, 94, 0
1, 51668, Note_on_c, 0, 100, 96
1, 51704, Note_on_c, 0, 100, 0
1, 51704, Note_on_c, 0, 93, 96
1, 51704, Note_on_c, 0, 86, 0
1, 51707, Note_on_c, 0, 85, 98
1, 51776, Note_on_c, 0, 93, 0
1, 51776, Note_on_c, 0, 85, 0
1, 51776, Note_on_c, 0, 88, 0
1, 51992, Note_on_c, 0, 82, 99
1, 51992, Note_on_c, 0, 74, 98
1, 51992, Note_on_c, 0, 76, 98
1, 52028, Note_on_c, 0, 82, 0
1, 52028, Note_on_c, 0, 88, 84
1, 52064, Note_on_c, 0, 88, 0
1, 52064, Note_on_c, 0, 82, 84
1, 52100, Note_on_c, 0, 82, 0
1, 52100, Note_on_c, 0, 88, 84
1, 52136, Note_on_c, 0, 88, 0
1, 52136, Note_on_c, 0, 81, 84
1, 52136, Note_on_c, 0, 74, 0
1, 52139, Note_on_c, 0, 73, 84
1, 52207, Note_on_c, 0, 81, 0
1, 52207, Note_on_c, 0, 73, 0
1, 52207, Note_on_c, 0, 76, 0
1, 52423, Note_on_c, 0, 70, 85
1, 52423, Note_on_c, 0, 64, 84
1, 52423, Note_on_c, 0, 62, 84
1, 52461, Note_on_c, 0, 70, 0
1, 52461, Note_on_c, 0, 76, 69
1, 52498, Note_on_c, 0, 76, 0
1, 52498, Note_on_c, 0, 70, 69
1, 52536, Note_on_c, 0, 70, 0
1, 52536, Note_on_c, 0, 76, 69
1, 52574, Note_on_c, 0, 76, 0
1, 52574, Note_on_c, 0, 69, 69
1, 52574, Note_on_c, 0, 62, 0
1, 52577, Note_on_c, 0, 61, 70
1, 52649, Note_on_c, 0, 69, 0
1, 52649, Note_on_c, 0, 61, 0
1, 52649, Note_on_c, 0, 64, 0
1, 52875, Note_on_c, 0, 58, 70
1, 52875, Note_on_c, 0, 52, 69
1, 52875, Note_on_c, 0, 50, 69
1, 52935, Note_on_c, 0, 58, 0
1, 52935, Note_on_c, 0, 64, 56
1, 52994, Note_on_c, 0, 64, 0
1, 52994, Note_on_c, 0, 58, 56
1, 53054, Note_on_c, 0, 58, 0
1, 53054, Note_on_c, 0, 64, 58
1, 53113, Note_on_c, 0, 64, 0
1, 53113, Note_on_c, 0, 57, 58
1, 53113, Note_on_c, 0, 50, 0
1, 53116, Note_on_c, 0, 49, 56
1, 53233, Note_on_c, 0, 57, 0
1, 53233, Note_on_c, 0, 49, 0
1, 53233, Note_on_c, 0, 52, 0
1, 53590, Note_on_c, 0, 81, 62
1, 53590, Note_on_c, 0, 74, 61
1, 53637, Note_on_c, 0, 81, 0
1, 53637, Note_on_c, 0, 82, 55
1, 53637, Note_on_c, 0, 74, 0
1, 53640, Note_on_c, 0, 77, 55
1, 53679, Note_on_c, 0, 82, 0
1, 53679, Note_on_c, 0, 81, 62
1, 53679, Note_on_c, 0, 77, 0
1, 53682, Note_on_c, 0, 74, 61
1, 53721, Note_on_c, 0, 81, 0
1, 53721, Note_on_c, 0, 82, 56
1, 53721, Note_on_c, 0, 74, 0
1, 53724, Note_on_c, 0, 77, 55
1, 53763, Note_on_c, 0, 82, 0
1, 53763, Note_on_c, 0, 81, 71
1, 53763, Note_on_c, 0, 77, 0
1, 53766, Note_on_c, 0, 74, 69
1, 53792, Control_c, 0, 64, 127
1, 53864, Note_on_c, 0, 81, 0
1, 53864, Note_on_c, 0, 74, 0
1, 54166, Note_on_c, 0, 82, 75
1, 54210, Note_on_c, 0, 82, 0
1, 54210, Note_on_c, 0, 81, 72
1, 54253, Note_on_c, 0, 81, 0
1, 54253, Note_on_c, 0, 77, 69
1, 54296, Note_on_c, 0, 77, 0
1, 54296, Note_on_c, 0, 74, 65
1, 54340, Note_on_c, 0, 74, 0
1, 54340, Note_on_c, 0, 69, 63
1, 54383, Note_on_c, 0, 69, 0
1, 54383, Note_on_c, 0, 62, 63
1, 54427, Control_c, 0, 64, 0
1, 54492, Note_on_c, 0, 62, 0
1, 54817, Note_on_c, 0, 86, 63
1, 54817, Note_on_c, 0, 79, 63
1, 54859, Note_on_c, 0, 86, 0
1, 54859, Note_on_c, 0, 88, 58
1, 54859, Note_on_c, 0, 79, 0
1, 54862, Note_on_c, 0, 83, 58
1, 54901, Note_on_c, 0, 88, 0
1, 54901, Note_on_c, 0, 86, 63
1, 54901, Note_on_c, 0, 83, 0
1, 54904, Note_on_c, 0, 79, 63
1, 54943, Note_on_c, 0, 86, 0
1, 54943, Note_on_c, 0, 88, 61
1, 54943, Note_on_c, 0, 79, 0
1, 54946, Note_on_c, 0, 83, 58
1, 54985, Note_on_c, 0, 88, 0
1, 54985, Note_on_c, 0, 86, 71
1, 54985, Note_on_c, 0, 83, 0
1, 54988, Note_on_c, 0, 79, 71
1, 55002, Control_c, 0, 64, 127
1, 55086, Note_on_c, 0, 86, 0
1, 55086, Note_on_c, 0, 79, 0
1, 55390, Note_on_c, 0, 88, 70
1, 55434, Note_on_c, 0, 88, 0
1, 55434, Note_on_c, 0, 86, 69
1, 55478, Note_on_c, 0, 86, 0
1, 55478, Note_on_c, 0, 83, 65
1, 55521, Note_on_c, 0, 83, 0
1, 55521, Note_on_c, 0, 79, 64
1, 55565, Note_on_c, 0, 79, 0
1, 55565, Note_on_c, 0, 74, 62
1, 55609, Note_on_c, 0, 74, 0
1, 55609, Note_on_c, 0, 67, 57
1, 55657, Control_c, 0, 64, 0
1, 55719, Note_on_c, 0, 67, 0
1, 56047, Note_on_c, 0, 81, 70
1, 56047, Note_on_c, 0, 74, 69
1, 56089, Note_on_c, 0, 81, 0
1, 56089, Note_on_c, 0, 82, 63
1, 56089, Note_on_c, 0, 74, 0
1, 56092, Note_on_c, 0, 77, 62
1, 56131, Note_on_c, 0, 82, 0
1, 56131, Note_on_c, 0, 81, 70
1, 56131, Note_on_c, 0, 77, 0
1, 56134, Note_on_c, 0, 74, 69
1, 56173, Note_on_c, 0, 81, 0
1, 56173, Note_on_c, 0, 82, 63
1, 56173, Note_on_c, 0, 74, 0
1, 56176, Note_on_c, 0, 77, 63
1, 56215, Note_on_c, 0, 82, 0
1, 56215, Note_on_c, 0, 81, 75
1, 56215, Note_on_c, 0, 77, 0
1, 56218, Note_on_c, 0, 74, 72
1, 56300, Note_on_c, 0, 81, 0
1, 56300, Note_on_c, 0, 74, 0
1, 56558, Note_on_c, 0, 77, 69
1, 56558, Note_on_c, 0, 70, 69
1, 56599, Note_on_c, 0, 77, 0
1, 56599, Note_on_c, 0, 79, 64
1, 56599, Note_on_c, 0, 70, 0
1, 56602, Note_on_c, 0, 74, 64
1, 56641, Note_on_c, 0, 79, 0
1, 56641, Note_on_c, 0, 77, 69
1, 56641, Note_on_c, 0, 74, 0
1, 56644, Note_on_c, 0, 70, 69
1, 56683, Note_on_c, 0, 77, 0
1, 56683, Note_on_c, 0, 79, 64
1, 56683, Note_on_c, 0, 70, 0
1, 56686, Note_on_c, 0, 74, 63
1, 56724, Note_on_c, 0, 79, 0
1, 56724, Note_on_c, 0, 77, 79
1, 56724, Note_on_c, 0, 74, 0
1, 56727, Note_on_c, 0, 70, 77
1, 56810, Note_on_c, 0, 77, 0
1, 56810, Note_on_c, 0, 70, 0
1, 57067, Note_on_c, 0, 81, 70
1, 57067, Note_on_c, 0, 74, 70
1, 57109, Note_on_c, 0, 81, 0
1, 57109, Note_on_c, 0, 82, 63
1, 57109, Note_on_c, 0, 74, 0
1, 57112, Note_on_c, 0, 77, 63
1, 57150, Note_on_c, 0, 82, 0
1, 57150, Note_on_c, 0, 81, 70
1, 57150, Note_on_c, 0, 77, 0
1, 57153, Note_on_c, 0, 74, 70
1, 57192, Note_on_c, 0, 81, 0
1, 57192, Note_on_c, 0, 82, 63
1, 57192, Note_on_c, 0, 74, 0
1, 57195, Note_on_c, 0, 77, 64
1, 57234, Note_on_c, 0, 82, 0
1, 57234, Note_on_c, 0, 81, 76
1, 57234, Note_on_c, 0, 77, 0
1, 57237, Note_on_c, 0, 74, 79
1, 57251, Control_c, 0, 64, 127
1, 57323, Note_on_c, 0, 81, 0
1, 57323, Note_on_c, 0, 74, 0
1, 57590, Note_on_c, 0, 82, 70
1, 57627, Note_on_c, 0, 82, 0
1, 57627, Note_on_c, 0, 81, 64
1, 57664, Note_on_c, 0, 81, 0
1, 57664, Note_on_c, 0, 77, 62
1, 57701, Note_on_c, 0, 77, 0
1, 57701, Note_on_c, 0, 74, 56
1, 57738, Note_on_c, 0, 74, 0
1, 57738, Note_on_c, 0, 69, 54
1, 57774, Note_on_c, 0, 69, 0
1, 57774, Note_on_c, 0, 62, 63
1, 57830, Control_c, 0, 64, 0
1, 57866, Note_on_c, 0, 62, 0
1, 58142, Note_on_c, 0, 81, 69
1, 58142, Note_on_c, 0, 73, 69
1, 58184, Note_on_c, 0, 81, 0
1, 58184, Note_on_c, 0, 82, 64
1, 58184, Note_on_c, 0, 73, 0
1, 58187, Note_on_c, 0, 77, 63
1, 58227, Note_on_c, 0, 82, 0
1, 58227, Note_on_c, 0, 81, 69
1, 58227, Note_on_c, 0, 77, 0
1, 58230, Note_on_c, 0, 73, 69
1, 58269, Note_on_c, 0, 81, 0
1, 58269, Note_on_c, 0, 82, 64
1, 58269, Note_on_c, 0, 73, 0
1, 58272, Note_on_c, 0, 77, 64
1, 58311, Note_on_c, 0, 82, 0
1, 58311, Note_on_c, 0, 81, 89
1, 58311, Note_on_c, 0, 77, 0
1, 58314, Note_on_c, 0, 73, 90
1, 58333, Control_c, 0, 64, 127
1, 58412, Note_on_c, 0, 81, 0
1, 58412, Note_on_c, 0, 73, 0
1, 58716, Note_on_c, 0, 82, 79
1, 58758, Note_on_c, 0, 82, 0
1, 58758, Note_on_c, 0, 81, 76
1, 58801, Note_on_c, 0, 81, 0
1, 58801, Note_on_c, 0, 77, 71
1, 58844, Note_on_c, 0, 77, 0
1, 58844, Note_on_c, 0, 73, 68
1, 58887, Note_on_c, 0, 73, 0
1, 58887, Note_on_c, 0, 69, 64
1, 58930, Note_on_c, 0, 69, 0
1, 58930, Note_on_c, 0, 61, 65
1, 58975, Control_c, 0, 64, 0
1, 59027, Note_on_c, 0, 61, 0
1, 59315, Note_on_c, 0, 84, 69
1, 59315, Note_on_c, 0, 77, 70
1, 59358, Note_on_c, 0, 84, 0
1, 59358, Note_on_c, 0, 86, 63
1, 59358, Note_on_c, 0, 77, 0
1, 59361, Note_on_c, 0, 81, 63
1, 59400, Note_on_c, 0, 86, 0
1, 59400, Note_on_c, 0, 84, 69
1, 59400, Note_on_c, 0, 81, 0
1, 59403, Note_on_c, 0, 77, 70
1, 59442, Note_on_c, 0, 84, 0
1, 59442, Note_on_c, 0, 86, 64
1, 59442, Note_on_c, 0, 77, 0
1, 59445, Note_on_c, 0, 81, 64
1, 59485, Note_on_c, 0, 86, 0
1, 59485, Note_on_c, 0, 84, 107
1, 59485, Note_on_c, 0, 81, 0
1, 59488, Control_c, 0, 64, 127
1, 59488, Note_on_c, 0, 81, 91
1, 59589, Note_on_c, 0, 84, 0
1, 59589, Note_on_c, 0, 81, 0
1, 59900, Note_on_c, 0, 86, 87
1, 59937, Note_on_c, 0, 86, 0
1, 59937, Note_on_c, 0, 84, 82
1, 59974, Note_on_c, 0, 84, 0
1, 59974, Note_on_c, 0, 81, 79
1, 60012, Note_on_c, 0, 81, 0
1, 60012, Note_on_c, 0, 77, 77
1, 60049, Note_on_c, 0, 77, 0
1, 60049, Note_on_c, 0, 72, 72
1, 60086, Note_on_c, 0, 72, 0
1, 60086, Note_on_c, 0, 69, 70
1, 60124, Note_on_c, 0, 69, 0
1, 60124, Note_on_c, 0, 60, 68
1, 60186, Control_c, 0, 64, 0
1, 60222, Note_on_c, 0, 60, 0
1, 60419, Note_on_c, 0, 85, 76
1, 60486, Note_on_c, 0, 85, 0
1, 60486, Note_on_c, 0, 81, 76
1, 60568, Note_on_c, 0, 81, 0
1, 60653, Note_on_c, 0, 73, 72
1, 60653, Note_on_c, 0, 77, 72
1, 60653, Control_c, 0, 64, 127
1, 60656, Note_on_c, 0, 57, 68
1, 60656, Note_on_c, 0, 67, 68
1, 60750, Note_on_c, 0, 67, 0
1, 60750, Note_on_c, 0, 57, 0
1, 60846, Note_on_c, 0, 77, 0
1, 60846, Note_on_c, 0, 73, 0
1, 60940, Note_on_c, 0, 85, 77
1, 61007, Note_on_c, 0, 85, 0
1, 61007, Note_on_c, 0, 81, 77
1, 61090, Note_on_c, 0, 81, 0
1, 61173, Note_on_c, 0, 73, 72
1, 61173, Note_on_c, 0, 77, 72
1, 61173, Note_on_c, 0, 57, 68
1, 61176, Note_on_c, 0, 67, 68
1, 61269, Note_on_c, 0, 67, 0
1, 61269, Note_on_c, 0, 57, 0
1, 61364, Note_on_c, 0, 77, 0
1, 61364, Note_on_c, 0, 73, 0
1, 61410, Control_c, 0, 64, 0
1, 61460, Note_on_c, 0, 86, 77
1, 61527, Note_on_c, 0, 86, 0
1, 61527, Note_on_c, 0, 81, 77
1, 61611, Note_on_c, 0, 81, 0
1, 61695, Note_on_c, 0, 74, 76
1, 61695, Control_c, 0, 64, 127
1, 61868, Note_on_c, 0, 74, 0
1, 62042, Note_on_c, 0, 65, 65
1, 62042, Note_on_c, 0, 74, 65
1, 62042, Note_on_c, 0, 57, 63
1, 62045, Note_on_c, 0, 50, 63
1, 62257, Note_on_c, 0, 74, 0
1, 62257, Note_on_c, 0, 65, 0
1, 62257, Note_on_c, 0, 65, 65
1, 62260, Note_on_c, 0, 74, 65
1, 62260, Note_on_c, 0, 50, 0
1, 62260, Note_on_c, 0, 57, 0
1, 62263, Note_on_c, 0, 50, 63
1, 62263, Note_on_c, 0, 57, 63
1, 62488, Note_on_c, 0, 74, 0
1, 62488, Note_on_c, 0, 65, 0
1, 62488, Note_on_c, 0, 57, 0
1, 62491, Note_on_c, 0, 50, 0
1, 62491, Control_c, 0, 64, 0
1, 62727, Note_on_c, 0, 39, 57
1, 62774, Note_on_c, 0, 39, 0
1, 62774, Note_on_c, 0, 41, 57
1, 62821, Note_on_c, 0, 41, 0
1, 62821, Note_on_c, 0, 39, 57
1, 62868, Note_on_c, 0, 39, 0
1, 62868, Note_on_c, 0, 41, 57
1, 62915, Note_on_c, 0, 41, 0
1, 62915, Note_on_c, 0, 39, 94
1, 63240, Note_on_c, 0, 45, 49
1, 63240, Note_on_c, 0, 55, 49
1, 63325, Note_on_c, 0, 55, 0
1, 63325, Note_on_c, 0, 45, 0
1, 63325, Note_on_c, 0, 57, 54
1, 63410, Note_on_c, 0, 57, 0
1, 63496, Note_on_c, 0, 57, 57
1, 63496, Note_on_c, 0, 55, 57
1, 63496, Note_on_c, 0, 45, 57
1, 63851, Note_on_c, 0, 39, 0
1, 63851, Note_on_c, 0, 39, 57
1, 63898, Note_on_c, 0, 39, 0
1, 63898, Note_on_c, 0, 41, 57
1, 63945, Note_on_c, 0, 41, 0
1, 63945, Note_on_c, 0, 39, 57
1, 63992, Note_on_c, 0, 39, 0
1, 63992, Note_on_c, 0, 41, 57
1, 64039, Note_on_c, 0, 45, 0
1, 64039, Note_on_c, 0, 55, 0
1, 64039, Note_on_c, 0, 57, 0
1, 64042, Note_on_c, 0, 41, 0
1, 64042, Note_on_c, 0, 39, 94
1, 64363, Note_on_c, 0, 55, 48
1, 64363, Note_on_c, 0, 45, 48
1, 64449, Note_on_c, 0, 45, 0
1, 64449, Note_on_c, 0, 55, 0
1, 64449, Note_on_c, 0, 57, 50
1, 64535, Note_on_c, 0, 57, 0
1, 64621, Note_on_c, 0, 57, 56
1, 64621, Note_on_c, 0, 55, 56
1, 64621, Note_on_c, 0, 45, 56
1, 64975, Note_on_c, 0, 39, 0
1, 64975, Note_on_c, 0, 39, 54
1, 65022, Note_on_c, 0, 39, 0
1, 65022, Note_on_c, 0, 41, 54
1, 65069, Note_on_c, 0, 41, 0
1, 65069, Note_on_c, 0, 39, 54
1, 65116, Note_on_c, 0, 39, 0
1, 65116, Note_on_c, 0, 41, 54
1, 65163, Note_on_c, 0, 45, 0
1, 65163, Note_on_c, 0, 55, 0
1, 65163, Note_on_c, 0, 57, 0
1, 65166, Note_on_c, 0, 41, 0
1, 65166, Note_on_c, 0, 39, 92
1, 65332, Note_on_c, 0, 39, 0
1, 65416, Note_on_c, 0, 39, 71
1, 65501, Note_on_c, 0, 57, 51
1, 65501, Note_on_c, 0, 55, 51
1, 65501, Note_on_c, 0, 45, 51
1, 65504, Note_on_c, 0, 39, 0
1, 65504, Note_on_c, 0, 41, 71
1, 65589, Note_on_c, 0, 45, 0
1, 65589, Note_on_c, 0, 55, 0
1, 65589, Note_on_c, 0, 57, 0
1, 65592, Note_on_c, 0, 41, 0
1, 65677, Note_on_c, 0, 39, 91
1, 65845, Note_on_c, 0, 39, 0
1, 65929, Note_on_c, 0, 39, 68
1, 66013, Note_on_c, 0, 57, 49
1, 66013, Note_on_c, 0, 55, 49
1, 66013, Note_on_c, 0, 45, 49
1, 66016, Note_on_c, 0, 39, 0
1, 66016, Note_on_c, 0, 41, 68
1, 66101, Note_on_c, 0, 45, 0
1, 66101, Note_on_c, 0, 55, 0
1, 66101, Note_on_c, 0, 57, 0
1, 66104, Note_on_c, 0, 41, 0
1, 66189, Note_on_c, 0, 39, 79
1, 66364, Note_on_c, 0, 39, 0
1, 66448, Note_on_c, 0, 39, 57
1, 66533, Note_on_c, 0, 57, 43
1, 66533, Note_on_c, 0, 55, 43
1, 66533, Note_on_c, 0, 45, 43
1, 66536, Note_on_c, 0, 39, 0
1, 66536, Note_on_c, 0, 41, 57
1, 66617, Note_on_c, 0, 45, 0
1, 66617, Note_on_c, 0, 55, 0
1, 66617, Note_on_c, 0, 57, 0
1, 66620, Note_on_c, 0, 41, 0
1, 66701, Note_on_c, 0, 39, 69
1, 66866, Note_on_c, 0, 39, 0
1, 66950, Note_on_c, 0, 39, 47
1, 67034, Note_on_c, 0, 55, 43
1, 67034, Note_on_c, 0, 45, 43
1, 67034, Note_on_c, 0, 57, 43
1, 67037, Note_on_c, 0, 39, 0
1, 67037, Note_on_c, 0, 41, 47
1, 67118, Note_on_c, 0, 57, 0
1, 67118, Note_on_c, 0, 45, 0
1, 67118, Note_on_c, 0, 55, 0
1, 67121, Note_on_c, 0, 41, 0
1, 67203, Note_on_c, 0, 38, 62
1, 67203, Control_c, 0, 64, 127
1, 67371, Note_on_c, 0, 38, 0
1, 67452, Note_on_c, 0, 54, 47
1, 67452, Note_on_c, 0, 45, 48
1, 67533, Note_on_c, 0, 54, 0
1, 67533, Note_on_c, 0, 57, 47
1, 67533, Note_on_c, 0, 45, 0
1, 67536, Note_on_c, 0, 50, 48
1, 67614, Note_on_c, 0, 57, 0
1, 67614, Note_on_c, 0, 50, 0
1, 67696, Note_on_c, 0, 62, 55
1, 67696, Note_on_c, 0, 54, 55
1, 67777, Note_on_c, 0, 62, 0
1, 67777, Note_on_c, 0, 54, 0
1, 67940, Note_on_c, 0, 66, 51
1, 67940, Note_on_c, 0, 57, 50
1, 68022, Note_on_c, 0, 66, 0
1, 68022, Note_on_c, 0, 69, 51
1, 68022, Note_on_c, 0, 57, 0
1, 68025, Note_on_c, 0, 62, 50
1, 68105, Note_on_c, 0, 69, 0
1, 68105, Note_on_c, 0, 62, 0
1, 68187, Note_on_c, 0, 74, 56
1, 68187, Note_on_c, 0, 66, 56
1, 68269, Note_on_c, 0, 74, 0
1, 68269, Note_on_c, 0, 66, 0
1, 68433, Note_on_c, 0, 66, 54
1, 68433, Note_on_c, 0, 57, 54
1, 68516, Note_on_c, 0, 66, 0
1, 68516, Note_on_c, 0, 69, 54
1, 68516, Note_on_c, 0, 57, 0
1, 68519, Note_on_c, 0, 62, 54
1, 68598, Note_on_c, 0, 69, 0
1, 68598, Note_on_c, 0, 62, 0
1, 68680, Note_on_c, 0, 74, 57
1, 68680, Note_on_c, 0, 66, 57
1, 68762, Note_on_c, 0, 74, 0
1, 68762, Note_on_c, 0, 66, 0
1, 68935, Note_on_c, 0, 78, 54
1, 68935, Note_on_c, 0, 69, 54
1, 69025, Note_on_c, 0, 78, 0
1, 69025, Note_on_c, 0, 81, 54
1, 69025, Note_on_c, 0, 69, 0
1, 69028, Note_on_c, 0, 74, 54
1, 69119, Note_on_c, 0, 81, 0
1, 69119, Note_on_c, 0, 74, 0
1, 69214, Note_on_c, 0, 86, 56
1, 69214, Note_on_c, 0, 78, 55
1, 69312, Note_on_c, 0, 86, 0
1, 69312, Note_on_c, 0, 78, 0
1, 69406, Control_c, 0, 64, 0
1, 69800, Note_on_c, 0, 55, 50
1, 69800, Note_on_c, 0, 52, 50
1, 69800, Note_on_c, 0, 62, 50
1, 69803, Note_on_c, 0, 58, 50
1, 69803, Note_on_c, 0, 33, 49
1, 69803, Note_on_c, 0, 45, 49
1, 69806, Control_c, 0, 64, 127
1, 69915, Note_on_c, 0, 58, 0
1, 69915, Note_on_c, 0, 55, 0
1, 69915, Note_on_c, 0, 52, 0
1, 69918, Note_on_c, 0, 62, 0
1, 69918, Note_on_c, 0, 45, 0
1, 69918, Note_on_c, 0, 33, 0
1, 70056, Control_c, 0, 64, 0
1, 70488, Note_on_c, 0, 62, 50
1, 70488, Note_on_c, 0, 54, 50
1, 70488, Note_on_c, 0, 57, 50
1, 70491, Note_on_c, 0, 26, 49
1, 70491, Control_c, 0, 64, 127
1, 70491, Note_on_c, 0, 38, 49
1, 70602, Note_on_c, 0, 57, 0
1, 70602, Note_on_c, 0, 54, 0
1, 70602, Note_on_c, 0, 62, 0
1, 70605, Note_on_c, 0, 38, 0
1, 70605, Note_on_c, 0, 26, 0
1, 70744, Control_c, 0, 64, 0
1, 72242, End_track
0, 0, End_of_file
