0, 0, Header, 0, 1, 384
1, 0, Start_track
1, 0, Tempo, 512820
1, 0, Title_t, "Zug der Zwerge Op 54, No. 3"
1, 0, Program_c, 0, 0
1, 0, Control_c, 0, 7, 100
1, 3, Control_c, 0, 91, 127
1, 3, Program_c, 0, 0
1, 3, Control_c, 0, 7, 100
1, 6, Control_c, 0, 91, 127
1, 6, Control_c, 0, 64, 0
1, 6, Control_c, 0, 64, 0
1, 748, Note_on_c, 0, 38, 51
1, 818, Note_on_c, 0, 38, 0
1, 886, Note_on_c, 0, 45, 49
1, 956, Note_on_c, 0, 45, 0
1, 1025, Note_on_c, 0, 38, 51
1, 1094, Note_on_c, 0, 38, 0
1, 1164, Note_on_c, 0, 45, 49
1, 1233, Note_on_c, 0, 45, 0
1, 1302, Note_on_c, 0, 38, 51
1, 1371, Note_on_c, 0, 38, 0
1, 1439, Note_on_c, 0, 45, 49
1, 1508, Note_on_c, 0, 45, 0
1, 1576, Note_on_c, 0, 38, 51
1, 1645, Note_on_c, 0, 38, 0
1, 1713, Note_on_c, 0, 62, 56
1, 1713, Note_on_c, 0, 45, 49
1, 1746, Note_on_c, 0, 62, 0
1, 1746, Note_on_c, 0, 64, 56
1, 1780, Note_on_c, 0, 64, 0
1, 1780, Note_on_c, 0, 65, 56
1, 1780, Note_on_c, 0, 45, 0
1, 1813, Note_on_c, 0, 65, 0
1, 1813, Note_on_c, 0, 67, 56
1, 1846, Note_on_c, 0, 67, 0
1, 1846, Note_on_c, 0, 69, 58
1, 1846, Note_on_c, 0, 38, 51
1, 1915, Note_on_c, 0, 69, 0
1, 1915, Note_on_c, 0, 38, 0
1, 1984, Note_on_c, 0, 74, 53
1, 1984, Note_on_c, 0, 62, 53
1, 1984, Note_on_c, 0, 65, 53
1, 1987, Note_on_c, 0, 45, 49
1, 2052, Note_on_c, 0, 65, 0
1, 2052, Note_on_c, 0, 62, 0
1, 2052, Note_on_c, 0, 74, 0
1, 2055, Note_on_c, 0, 45, 0
1, 2120, Note_on_c, 0, 62, 53
1, 2120, Note_on_c, 0, 74, 53
1, 2120, Note_on_c, 0, 65, 53
1, 2123, Note_on_c, 0, 38, 51
1, 2188, Note_on_c, 0, 65, 0
1, 2188, Note_on_c, 0, 74, 0
1, 2188, Note_on_c, 0, 62, 0
1, 2191, Note_on_c, 0, 38, 0
1, 2257, Note_on_c, 0, 73, 53
1, 2257, Note_on_c, 0, 62, 53
1, 2257, Note_on_c, 0, 65, 53
1, 2260, Note_on_c, 0, 45, 49
1, 2324, Note_on_c, 0, 65, 0
1, 2324, Note_on_c, 0, 62, 0
1, 2324, Note_on_c, 0, 73, 0
1, 2327, Note_on_c, 0, 45, 0
1, 2392, Note_on_c, 0, 73, 56
1, 2392, Note_on_c, 0, 62, 56
1, 2392, Note_on_c, 0, 65, 56
1, 2395, Note_on_c, 0, 38, 51
1, 2460, Note_on_c, 0, 65, 0
1, 2460, Note_on_c, 0, 62, 0
1, 2460, Note_on_c, 0, 73, 0
1, 2463, Note_on_c, 0, 38, 0
1, 2528, Note_on_c, 0, 65, 53
1, 2528, Note_on_c, 0, 62, 53
1, 2528, Note_on_c, 0, 72, 53
1, 2531, Note_on_c, 0, 45, 49
1, 2595, Note_on_c, 0, 72, 0
1, 2595, Note_on_c, 0, 62, 0
1, 2595, Note_on_c, 0, 65, 0
1, 2598, Note_on_c, 0, 45, 0
1, 2662, Note_on_c, 0, 72, 53
1, 2662, Note_on_c, 0, 62, 53
1, 2662, Note_on_c, 0, 65, 53
1, 2665, Note_on_c, 0, 38, 51
1, 2729, Note_on_c, 0, 65, 0
1, 2729, Note_on_c, 0, 62, 0
1, 2729, Note_on_c, 0, 72, 0
1, 2732, Note_on_c, 0, 38, 0
1, 2797, Note_on_c, 0, 62, 53
1, 2797, Note_on_c, 0, 71, 53
1, 2797, Note_on_c, 0, 65, 53
1, 2800, Note_on_c, 0, 45, 49
1, 2863, Note_on_c, 0, 65, 0
1, 2863, Note_on_c, 0, 71, 0
1, 2863, Note_on_c, 0, 62, 0
1, 2866, Note_on_c, 0, 45, 0
1, 2928, Note_on_c, 0, 71, 56
1, 2928, Note_on_c, 0, 62, 56
1, 2928, Note_on_c, 0, 65, 56
1, 2931, Note_on_c, 0, 38, 51
1, 2996, Note_on_c, 0, 65, 0
1, 2996, Note_on_c, 0, 62, 0
1, 2996, Note_on_c, 0, 71, 0
1, 2999, Note_on_c, 0, 38, 0
1, 3063, Note_on_c, 0, 70, 52
1, 3063, Note_on_c, 0, 62, 52
1, 3063, Note_on_c, 0, 65, 52
1, 3066, Note_on_c, 0, 45, 47
1, 3130, Note_on_c, 0, 65, 0
1, 3130, Note_on_c, 0, 62, 0
1, 3130, Note_on_c, 0, 70, 0
1, 3133, Note_on_c, 0, 45, 0
1, 3196, Note_on_c, 0, 65, 52
1, 3196, Note_on_c, 0, 62, 52
1, 3196, Note_on_c, 0, 70, 52
1, 3199, Note_on_c, 0, 38, 51
1, 3264, Note_on_c, 0, 70, 0
1, 3264, Note_on_c, 0, 62, 0
1, 3264, Note_on_c, 0, 65, 0
1, 3267, Note_on_c, 0, 38, 0
1, 3331, Note_on_c, 0, 69, 51
1, 3331, Note_on_c, 0, 62, 51
1, 3331, Note_on_c, 0, 65, 51
1, 3334, Note_on_c, 0, 45, 47
1, 3397, Note_on_c, 0, 65, 0
1, 3397, Note_on_c, 0, 62, 0
1, 3397, Note_on_c, 0, 69, 0
1, 3400, Note_on_c, 0, 45, 0
1, 3464, Note_on_c, 0, 59, 64
1, 3464, Note_on_c, 0, 68, 64
1, 3464, Note_on_c, 0, 64, 64
1, 3467, Note_on_c, 0, 38, 51
1, 3531, Note_on_c, 0, 64, 0
1, 3531, Note_on_c, 0, 68, 0
1, 3531, Note_on_c, 0, 59, 0
1, 3534, Note_on_c, 0, 38, 0
1, 3598, Note_on_c, 0, 64, 64
1, 3598, Note_on_c, 0, 68, 64
1, 3598, Note_on_c, 0, 59, 64
1, 3601, Note_on_c, 0, 45, 49
1, 3665, Note_on_c, 0, 45, 0
1, 3732, Note_on_c, 0, 38, 51
1, 3800, Note_on_c, 0, 38, 0
1, 3868, Note_on_c, 0, 59, 0
1, 3868, Note_on_c, 0, 68, 0
1, 3868, Note_on_c, 0, 64, 0
1, 3871, Note_on_c, 0, 67, 56
1, 3871, Note_on_c, 0, 45, 49
1, 3901, Note_on_c, 0, 67, 0
1, 3901, Note_on_c, 0, 69, 56
1, 3934, Note_on_c, 0, 69, 0
1, 3934, Note_on_c, 0, 70, 56
1, 3934, Note_on_c, 0, 45, 0
1, 3968, Note_on_c, 0, 70, 0
1, 3968, Note_on_c, 0, 72, 56
1, 4001, Note_on_c, 0, 72, 0
1, 4001, Note_on_c, 0, 74, 58
1, 4001, Note_on_c, 0, 38, 51
1, 4069, Note_on_c, 0, 74, 0
1, 4069, Note_on_c, 0, 38, 0
1, 4137, Note_on_c, 0, 67, 53
1, 4137, Note_on_c, 0, 70, 53
1, 4137, Note_on_c, 0, 79, 53
1, 4140, Note_on_c, 0, 45, 49
1, 4204, Note_on_c, 0, 79, 0
1, 4204, Note_on_c, 0, 70, 0
1, 4204, Note_on_c, 0, 67, 0
1, 4207, Note_on_c, 0, 45, 0
1, 4272, Note_on_c, 0, 70, 53
1, 4272, Note_on_c, 0, 79, 53
1, 4272, Note_on_c, 0, 67, 53
1, 4275, Note_on_c, 0, 38, 51
1, 4340, Note_on_c, 0, 67, 0
1, 4340, Note_on_c, 0, 79, 0
1, 4340, Note_on_c, 0, 70, 0
1, 4343, Note_on_c, 0, 38, 0
1, 4408, Note_on_c, 0, 78, 53
1, 4408, Note_on_c, 0, 67, 53
1, 4408, Note_on_c, 0, 70, 53
1, 4411, Note_on_c, 0, 45, 49
1, 4474, Note_on_c, 0, 70, 0
1, 4474, Note_on_c, 0, 67, 0
1, 4474, Note_on_c, 0, 78, 0
1, 4477, Note_on_c, 0, 45, 0
1, 4541, Note_on_c, 0, 70, 56
1, 4541, Note_on_c, 0, 78, 56
1, 4541, Note_on_c, 0, 67, 56
1, 4544, Note_on_c, 0, 38, 51
1, 4608, Note_on_c, 0, 67, 0
1, 4608, Note_on_c, 0, 78, 0
1, 4608, Note_on_c, 0, 70, 0
1, 4611, Note_on_c, 0, 38, 0
1, 4676, Note_on_c, 0, 77, 53
1, 4676, Note_on_c, 0, 70, 53
1, 4676, Note_on_c, 0, 67, 53
1, 4679, Note_on_c, 0, 45, 49
1, 4742, Note_on_c, 0, 67, 0
1, 4742, Note_on_c, 0, 70, 0
1, 4742, Note_on_c, 0, 77, 0
1, 4745, Note_on_c, 0, 45, 0
1, 4808, Note_on_c, 0, 70, 53
1, 4808, Note_on_c, 0, 77, 53
1, 4808, Note_on_c, 0, 67, 53
1, 4811, Note_on_c, 0, 38, 51
1, 4875, Note_on_c, 0, 67, 0
1, 4875, Note_on_c, 0, 77, 0
1, 4875, Note_on_c, 0, 70, 0
1, 4878, Note_on_c, 0, 38, 0
1, 4941, Note_on_c, 0, 70, 53
1, 4941, Note_on_c, 0, 67, 53
1, 4941, Note_on_c, 0, 76, 53
1, 4944, Note_on_c, 0, 45, 49
1, 5007, Note_on_c, 0, 76, 0
1, 5007, Note_on_c, 0, 67, 0
1, 5007, Note_on_c, 0, 70, 0
1, 5010, Note_on_c, 0, 45, 0
1, 5072, Note_on_c, 0, 76, 56
1, 5072, Note_on_c, 0, 70, 56
1, 5072, Note_on_c, 0, 67, 56
1, 5075, Note_on_c, 0, 38, 51
1, 5140, Note_on_c, 0, 67, 0
1, 5140, Note_on_c, 0, 70, 0
1, 5140, Note_on_c, 0, 76, 0
1, 5143, Note_on_c, 0, 38, 0
1, 5207, Note_on_c, 0, 75, 51
1, 5207, Note_on_c, 0, 67, 51
1, 5207, Note_on_c, 0, 70, 51
1, 5210, Note_on_c, 0, 45, 47
1, 5273, Note_on_c, 0, 70, 0
1, 5273, Note_on_c, 0, 67, 0
1, 5273, Note_on_c, 0, 75, 0
1, 5276, Note_on_c, 0, 45, 0
1, 5339, Note_on_c, 0, 75, 51
1, 5339, Note_on_c, 0, 67, 51
1, 5339, Note_on_c, 0, 70, 51
1, 5342, Note_on_c, 0, 38, 50
1, 5405, Note_on_c, 0, 70, 0
1, 5405, Note_on_c, 0, 67, 0
1, 5405, Note_on_c, 0, 75, 0
1, 5408, Note_on_c, 0, 38, 0
1, 5472, Note_on_c, 0, 74, 51
1, 5472, Note_on_c, 0, 67, 51
1, 5472, Note_on_c, 0, 70, 51
1, 5475, Note_on_c, 0, 45, 47
1, 5537, Note_on_c, 0, 70, 0
1, 5537, Note_on_c, 0, 67, 0
1, 5537, Note_on_c, 0, 74, 0
1, 5540, Note_on_c, 0, 45, 0
1, 5603, Note_on_c, 0, 64, 65
1, 5603, Note_on_c, 0, 73, 65
1, 5603, Note_on_c, 0, 69, 65
1, 5606, Note_on_c, 0, 38, 51
1, 5670, Note_on_c, 0, 69, 0
1, 5670, Note_on_c, 0, 73, 0
1, 5670, Note_on_c, 0, 64, 0
1, 5673, Note_on_c, 0, 38, 0
1, 5737, Note_on_c, 0, 64, 66
1, 5737, Note_on_c, 0, 73, 66
1, 5737, Note_on_c, 0, 69, 66
1, 5740, Note_on_c, 0, 45, 49
1, 5802, Note_on_c, 0, 45, 0
1, 5866, Note_on_c, 0, 38, 51
1, 5931, Note_on_c, 0, 38, 0
1, 5995, Note_on_c, 0, 69, 0
1, 5995, Note_on_c, 0, 73, 0
1, 5995, Note_on_c, 0, 64, 0
1, 5998, Note_on_c, 0, 45, 49
1, 6059, Note_on_c, 0, 45, 0
1, 6122, Note_on_c, 0, 74, 68
1, 6155, Note_on_c, 0, 74, 0
1, 6155, Note_on_c, 0, 76, 54
1, 6187, Note_on_c, 0, 76, 0
1, 6187, Note_on_c, 0, 77, 54
1, 6220, Note_on_c, 0, 77, 0
1, 6220, Note_on_c, 0, 79, 54
1, 6252, Note_on_c, 0, 79, 0
1, 6252, Note_on_c, 0, 81, 60
1, 6252, Note_on_c, 0, 58, 50
1, 6255, Note_on_c, 0, 65, 50
1, 6319, Note_on_c, 0, 81, 0
1, 6319, Note_on_c, 0, 65, 0
1, 6319, Note_on_c, 0, 58, 0
1, 6386, Note_on_c, 0, 79, 68
1, 6418, Note_on_c, 0, 79, 0
1, 6418, Note_on_c, 0, 77, 56
1, 6451, Note_on_c, 0, 77, 0
1, 6451, Note_on_c, 0, 76, 56
1, 6483, Note_on_c, 0, 76, 0
1, 6483, Note_on_c, 0, 74, 56
1, 6516, Note_on_c, 0, 74, 0
1, 6516, Note_on_c, 0, 72, 61
1, 6516, Note_on_c, 0, 53, 51
1, 6519, Note_on_c, 0, 60, 51
1, 6582, Note_on_c, 0, 72, 0
1, 6582, Note_on_c, 0, 60, 0
1, 6582, Note_on_c, 0, 53, 0
1, 6649, Note_on_c, 0, 70, 67
1, 6682, Note_on_c, 0, 70, 0
1, 6682, Note_on_c, 0, 72, 56
1, 6714, Note_on_c, 0, 72, 0
1, 6714, Note_on_c, 0, 74, 56
1, 6747, Note_on_c, 0, 74, 0
1, 6747, Note_on_c, 0, 76, 56
1, 6779, Note_on_c, 0, 76, 0
1, 6779, Note_on_c, 0, 77, 62
1, 6779, Note_on_c, 0, 62, 51
1, 6782, Note_on_c, 0, 55, 51
1, 6846, Note_on_c, 0, 77, 0
1, 6846, Note_on_c, 0, 55, 0
1, 6846, Note_on_c, 0, 62, 0
1, 6913, Note_on_c, 0, 76, 68
1, 6945, Note_on_c, 0, 76, 0
1, 6945, Note_on_c, 0, 74, 57
1, 6978, Note_on_c, 0, 74, 0
1, 6978, Note_on_c, 0, 72, 57
1, 7010, Note_on_c, 0, 72, 0
1, 7010, Note_on_c, 0, 70, 57
1, 7043, Note_on_c, 0, 70, 0
1, 7043, Note_on_c, 0, 69, 64
1, 7043, Note_on_c, 0, 50, 51
1, 7046, Note_on_c, 0, 57, 51
1, 7110, Note_on_c, 0, 69, 0
1, 7110, Note_on_c, 0, 57, 0
1, 7110, Note_on_c, 0, 50, 0
1, 7176, Note_on_c, 0, 67, 68
1, 7209, Note_on_c, 0, 67, 0
1, 7209, Note_on_c, 0, 69, 57
1, 7241, Note_on_c, 0, 69, 0
1, 7241, Note_on_c, 0, 70, 57
1, 7274, Note_on_c, 0, 70, 0
1, 7274, Note_on_c, 0, 72, 57
1, 7306, Note_on_c, 0, 72, 0
1, 7306, Note_on_c, 0, 74, 65
1, 7306, Note_on_c, 0, 58, 51
1, 7309, Note_on_c, 0, 51, 51
1, 7373, Note_on_c, 0, 74, 0
1, 7373, Note_on_c, 0, 51, 0
1, 7373, Note_on_c, 0, 58, 0
1, 7440, Note_on_c, 0, 72, 69
1, 7473, Note_on_c, 0, 72, 0
1, 7473, Note_on_c, 0, 70, 57
1, 7505, Note_on_c, 0, 70, 0
1, 7505, Note_on_c, 0, 69, 57
1, 7537, Note_on_c, 0, 69, 0
1, 7537, Note_on_c, 0, 67, 57
1, 7570, Note_on_c, 0, 67, 0
1, 7570, Note_on_c, 0, 65, 64
1, 7570, Note_on_c, 0, 53, 51
1, 7573, Note_on_c, 0, 46, 51
1, 7637, Note_on_c, 0, 65, 0
1, 7637, Note_on_c, 0, 46, 0
1, 7637, Note_on_c, 0, 53, 0
1, 7703, Note_on_c, 0, 45, 57
1, 7770, Note_on_c, 0, 45, 0
1, 7837, Note_on_c, 0, 64, 67
1, 7837, Note_on_c, 0, 57, 67
1, 7837, Note_on_c, 0, 52, 51
1, 7900, Note_on_c, 0, 52, 0
1, 7964, Note_on_c, 0, 45, 58
1, 8028, Note_on_c, 0, 45, 0
1, 8092, Note_on_c, 0, 52, 51
1, 8156, Note_on_c, 0, 52, 0
1, 8219, Note_on_c, 0, 57, 0
1, 8219, Note_on_c, 0, 64, 0
1, 8219, Note_on_c, 0, 86, 69
1, 8222, Note_on_c, 0, 39, 57
1, 8252, Note_on_c, 0, 86, 0
1, 8252, Note_on_c, 0, 84, 57
1, 8284, Note_on_c, 0, 84, 0
1, 8284, Note_on_c, 0, 82, 57
1, 8284, Note_on_c, 0, 39, 0
1, 8317, Note_on_c, 0, 82, 0
1, 8317, Note_on_c, 0, 81, 57
1, 8349, Note_on_c, 0, 81, 0
1, 8349, Note_on_c, 0, 79, 61
1, 8349, Note_on_c, 0, 46, 51
1, 8416, Note_on_c, 0, 79, 0
1, 8416, Note_on_c, 0, 46, 0
1, 8483, Note_on_c, 0, 74, 70
1, 8483, Note_on_c, 0, 39, 57
1, 8515, Note_on_c, 0, 74, 0
1, 8515, Note_on_c, 0, 72, 57
1, 8548, Note_on_c, 0, 72, 0
1, 8548, Note_on_c, 0, 70, 57
1, 8548, Note_on_c, 0, 39, 0
1, 8580, Note_on_c, 0, 70, 0
1, 8580, Note_on_c, 0, 69, 57
1, 8612, Note_on_c, 0, 69, 0
1, 8612, Note_on_c, 0, 67, 61
1, 8612, Note_on_c, 0, 46, 51
1, 8679, Note_on_c, 0, 67, 0
1, 8679, Note_on_c, 0, 46, 0
1, 8746, Note_on_c, 0, 45, 57
1, 8812, Note_on_c, 0, 45, 0
1, 8879, Note_on_c, 0, 64, 67
1, 8879, Note_on_c, 0, 57, 67
1, 8879, Note_on_c, 0, 52, 51
1, 8943, Note_on_c, 0, 52, 0
1, 9007, Note_on_c, 0, 45, 58
1, 9071, Note_on_c, 0, 45, 0
1, 9135, Note_on_c, 0, 52, 51
1, 9199, Note_on_c, 0, 52, 0
1, 9263, Note_on_c, 0, 57, 0
1, 9263, Note_on_c, 0, 64, 0
1, 9263, Note_on_c, 0, 86, 69
1, 9266, Note_on_c, 0, 39, 57
1, 9296, Note_on_c, 0, 86, 0
1, 9296, Note_on_c, 0, 84, 57
1, 9328, Note_on_c, 0, 84, 0
1, 9328, Note_on_c, 0, 82, 57
1, 9328, Note_on_c, 0, 39, 0
1, 9360, Note_on_c, 0, 82, 0
1, 9360, Note_on_c, 0, 81, 57
1, 9393, Note_on_c, 0, 81, 0
1, 9393, Note_on_c, 0, 79, 61
1, 9393, Note_on_c, 0, 46, 51
1, 9460, Note_on_c, 0, 79, 0
1, 9460, Note_on_c, 0, 46, 0
1, 9526, Note_on_c, 0, 74, 70
1, 9526, Note_on_c, 0, 39, 57
1, 9559, Note_on_c, 0, 74, 0
1, 9559, Note_on_c, 0, 72, 57
1, 9591, Note_on_c, 0, 72, 0
1, 9591, Note_on_c, 0, 70, 57
1, 9591, Note_on_c, 0, 39, 0
1, 9624, Note_on_c, 0, 70, 0
1, 9624, Note_on_c, 0, 69, 57
1, 9656, Note_on_c, 0, 69, 0
1, 9656, Note_on_c, 0, 67, 61
1, 9656, Note_on_c, 0, 46, 51
1, 9723, Note_on_c, 0, 67, 0
1, 9723, Note_on_c, 0, 46, 0
1, 9789, Note_on_c, 0, 45, 57
1, 9854, Note_on_c, 0, 45, 0
1, 9919, Note_on_c, 0, 57, 67
1, 9919, Note_on_c, 0, 64, 67
1, 9919, Note_on_c, 0, 52, 51
1, 9984, Note_on_c, 0, 52, 0
1, 10049, Note_on_c, 0, 64, 0
1, 10049, Note_on_c, 0, 57, 0
1, 10049, Note_on_c, 0, 74, 61
1, 10052, Note_on_c, 0, 39, 58
1, 10081, Note_on_c, 0, 74, 0
1, 10081, Note_on_c, 0, 72, 56
1, 10113, Note_on_c, 0, 72, 0
1, 10113, Note_on_c, 0, 70, 56
1, 10113, Note_on_c, 0, 39, 0
1, 10144, Note_on_c, 0, 70, 0
1, 10144, Note_on_c, 0, 69, 56
1, 10176, Note_on_c, 0, 69, 0
1, 10176, Note_on_c, 0, 67, 60
1, 10176, Note_on_c, 0, 46, 49
1, 10239, Note_on_c, 0, 67, 0
1, 10239, Note_on_c, 0, 46, 0
1, 10303, Note_on_c, 0, 45, 53
1, 10367, Note_on_c, 0, 45, 0
1, 10431, Note_on_c, 0, 64, 58
1, 10431, Note_on_c, 0, 57, 58
1, 10431, Note_on_c, 0, 52, 51
1, 10495, Note_on_c, 0, 52, 0
1, 10559, Note_on_c, 0, 57, 0
1, 10559, Note_on_c, 0, 64, 0
1, 10559, Note_on_c, 0, 74, 53
1, 10562, Note_on_c, 0, 39, 53
1, 10591, Note_on_c, 0, 74, 0
1, 10591, Note_on_c, 0, 72, 53
1, 10622, Note_on_c, 0, 72, 0
1, 10622, Note_on_c, 0, 70, 53
1, 10622, Note_on_c, 0, 39, 0
1, 10654, Note_on_c, 0, 70, 0
1, 10654, Note_on_c, 0, 69, 53
1, 10685, Note_on_c, 0, 69, 0
1, 10685, Note_on_c, 0, 67, 51
1, 10685, Note_on_c, 0, 46, 47
1, 10748, Note_on_c, 0, 67, 0
1, 10748, Note_on_c, 0, 46, 0
1, 10811, Note_on_c, 0, 45, 54
1, 10873, Note_on_c, 0, 45, 0
1, 10935, Note_on_c, 0, 64, 57
1, 10935, Note_on_c, 0, 57, 57
1, 10935, Note_on_c, 0, 52, 50
1, 10998, Note_on_c, 0, 52, 0
1, 11060, Note_on_c, 0, 57, 0
1, 11060, Note_on_c, 0, 64, 0
1, 11060, Note_on_c, 0, 74, 51
1, 11063, Note_on_c, 0, 39, 53
1, 11091, Note_on_c, 0, 74, 0
1, 11091, Note_on_c, 0, 72, 51
1, 11123, Note_on_c, 0, 72, 0
1, 11123, Note_on_c, 0, 70, 51
1, 11123, Note_on_c, 0, 39, 0
1, 11154, Note_on_c, 0, 70, 0
1, 11154, Note_on_c, 0, 69, 50
1, 11185, Note_on_c, 0, 69, 0
1, 11185, Note_on_c, 0, 67, 47
1, 11185, Note_on_c, 0, 46, 45
1, 11248, Note_on_c, 0, 67, 0
1, 11248, Note_on_c, 0, 46, 0
1, 11311, Note_on_c, 0, 45, 51
1, 11373, Note_on_c, 0, 45, 0
1, 11435, Note_on_c, 0, 64, 54
1, 11435, Note_on_c, 0, 57, 54
1, 11435, Note_on_c, 0, 52, 47
1, 11496, Note_on_c, 0, 52, 0
1, 11558, Note_on_c, 0, 57, 0
1, 11558, Note_on_c, 0, 64, 0
1, 11558, Note_on_c, 0, 74, 50
1, 11561, Note_on_c, 0, 39, 50
1, 11590, Note_on_c, 0, 74, 0
1, 11590, Note_on_c, 0, 72, 50
1, 11621, Note_on_c, 0, 72, 0
1, 11621, Note_on_c, 0, 70, 50
1, 11621, Note_on_c, 0, 39, 0
1, 11652, Note_on_c, 0, 70, 0
1, 11652, Note_on_c, 0, 69, 50
1, 11684, Note_on_c, 0, 69, 0
1, 11684, Note_on_c, 0, 67, 47
1, 11684, Note_on_c, 0, 46, 44
1, 11746, Note_on_c, 0, 67, 0
1, 11746, Note_on_c, 0, 46, 0
1, 11809, Note_on_c, 0, 45, 56
1, 11874, Note_on_c, 0, 45, 0
1, 11939, Note_on_c, 0, 57, 47
1, 11939, Note_on_c, 0, 64, 47
1, 11939, Note_on_c, 0, 61, 47
1, 11942, Note_on_c, 0, 52, 51
1, 12003, Note_on_c, 0, 61, 0
1, 12003, Note_on_c, 0, 64, 0
1, 12003, Note_on_c, 0, 57, 0
1, 12006, Note_on_c, 0, 52, 0
1, 12067, Note_on_c, 0, 46, 56
1, 12133, Note_on_c, 0, 46, 0
1, 12198, Note_on_c, 0, 64, 47
1, 12198, Note_on_c, 0, 58, 47
1, 12198, Note_on_c, 0, 61, 47
1, 12201, Note_on_c, 0, 52, 51
1, 12262, Note_on_c, 0, 61, 0
1, 12262, Note_on_c, 0, 58, 0
1, 12262, Note_on_c, 0, 64, 0
1, 12265, Note_on_c, 0, 52, 0
1, 12326, Note_on_c, 0, 44, 54
1, 12392, Note_on_c, 0, 44, 0
1, 12457, Note_on_c, 0, 64, 44
1, 12457, Note_on_c, 0, 56, 44
1, 12457, Note_on_c, 0, 61, 44
1, 12460, Note_on_c, 0, 52, 52
1, 12521, Note_on_c, 0, 61, 0
1, 12521, Note_on_c, 0, 56, 0
1, 12521, Note_on_c, 0, 64, 0
1, 12524, Note_on_c, 0, 52, 0
1, 12585, Note_on_c, 0, 45, 56
1, 12651, Note_on_c, 0, 45, 0
1, 12716, Note_on_c, 0, 61, 45
1, 12716, Note_on_c, 0, 57, 45
1, 12716, Note_on_c, 0, 64, 45
1, 12719, Note_on_c, 0, 52, 53
1, 12780, Note_on_c, 0, 64, 0
1, 12780, Note_on_c, 0, 57, 0
1, 12780, Note_on_c, 0, 61, 0
1, 12783, Note_on_c, 0, 52, 0
1, 12844, Note_on_c, 0, 46, 58
1, 12910, Note_on_c, 0, 46, 0
1, 12975, Note_on_c, 0, 64, 46
1, 12975, Note_on_c, 0, 58, 46
1, 12975, Note_on_c, 0, 61, 46
1, 12978, Note_on_c, 0, 52, 53
1, 13039, Note_on_c, 0, 61, 0
1, 13039, Note_on_c, 0, 58, 0
1, 13039, Note_on_c, 0, 64, 0
1, 13042, Note_on_c, 0, 52, 0
1, 13103, Note_on_c, 0, 47, 60
1, 13169, Note_on_c, 0, 47, 0
1, 13234, Note_on_c, 0, 59, 49
1, 13234, Note_on_c, 0, 64, 49
1, 13234, Note_on_c, 0, 61, 49
1, 13237, Note_on_c, 0, 52, 54
1, 13298, Note_on_c, 0, 61, 0
1, 13298, Note_on_c, 0, 64, 0
1, 13298, Note_on_c, 0, 59, 0
1, 13301, Note_on_c, 0, 52, 0
1, 13362, Note_on_c, 0, 48, 62
1, 13428, Note_on_c, 0, 48, 0
1, 13493, Note_on_c, 0, 64, 50
1, 13493, Note_on_c, 0, 60, 50
1, 13493, Note_on_c, 0, 61, 50
1, 13496, Note_on_c, 0, 52, 58
1, 13557, Note_on_c, 0, 61, 0
1, 13557, Note_on_c, 0, 60, 0
1, 13557, Note_on_c, 0, 64, 0
1, 13560, Note_on_c, 0, 52, 0
1, 13621, Note_on_c, 0, 47, 65
1, 13687, Note_on_c, 0, 47, 0
1, 13752, Note_on_c, 0, 64, 52
1, 13752, Note_on_c, 0, 59, 52
1, 13752, Note_on_c, 0, 61, 52
1, 13755, Note_on_c, 0, 52, 59
1, 13816, Note_on_c, 0, 61, 0
1, 13816, Note_on_c, 0, 59, 0
1, 13816, Note_on_c, 0, 64, 0
1, 13819, Note_on_c, 0, 52, 0
1, 13880, Note_on_c, 0, 46, 66
1, 13945, Note_on_c, 0, 46, 0
1, 14011, Note_on_c, 0, 61, 53
1, 14011, Note_on_c, 0, 58, 53
1, 14011, Note_on_c, 0, 64, 53
1, 14014, Note_on_c, 0, 52, 61
1, 14075, Note_on_c, 0, 64, 0
1, 14075, Note_on_c, 0, 58, 0
1, 14075, Note_on_c, 0, 61, 0
1, 14078, Note_on_c, 0, 52, 0
1, 14139, Note_on_c, 0, 45, 68
1, 14204, Note_on_c, 0, 45, 0
1, 14270, Note_on_c, 0, 64, 56
1, 14270, Note_on_c, 0, 57, 56
1, 14270, Note_on_c, 0, 61, 56
1, 14273, Note_on_c, 0, 52, 62
1, 14334, Note_on_c, 0, 61, 0
1, 14334, Note_on_c, 0, 57, 0
1, 14334, Note_on_c, 0, 64, 0
1, 14337, Note_on_c, 0, 52, 0
1, 14398, Note_on_c, 0, 44, 70
1, 14463, Note_on_c, 0, 44, 0
1, 14529, Note_on_c, 0, 56, 57
1, 14529, Note_on_c, 0, 64, 57
1, 14529, Note_on_c, 0, 61, 57
1, 14532, Note_on_c, 0, 52, 65
1, 14593, Note_on_c, 0, 61, 0
1, 14593, Note_on_c, 0, 64, 0
1, 14593, Note_on_c, 0, 56, 0
1, 14596, Note_on_c, 0, 52, 0
1, 14657, Note_on_c, 0, 43, 73
1, 14722, Note_on_c, 0, 43, 0
1, 14788, Note_on_c, 0, 61, 58
1, 14788, Note_on_c, 0, 55, 58
1, 14788, Note_on_c, 0, 58, 58
1, 14791, Note_on_c, 0, 49, 67
1, 14852, Note_on_c, 0, 58, 0
1, 14852, Note_on_c, 0, 55, 0
1, 14852, Note_on_c, 0, 61, 0
1, 14855, Note_on_c, 0, 49, 0
1, 14916, Note_on_c, 0, 42, 75
1, 14981, Note_on_c, 0, 42, 0
1, 15047, Note_on_c, 0, 61, 60
1, 15047, Note_on_c, 0, 58, 60
1, 15047, Note_on_c, 0, 54, 60
1, 15050, Note_on_c, 0, 49, 70
1, 15111, Note_on_c, 0, 54, 0
1, 15111, Note_on_c, 0, 58, 0
1, 15111, Note_on_c, 0, 61, 0
1, 15114, Note_on_c, 0, 49, 0
1, 15175, Note_on_c, 0, 41, 82
1, 15240, Note_on_c, 0, 41, 0
1, 15306, Note_on_c, 0, 61, 61
1, 15306, Note_on_c, 0, 58, 61
1, 15306, Note_on_c, 0, 53, 61
1, 15309, Note_on_c, 0, 49, 74
1, 15370, Note_on_c, 0, 53, 0
1, 15370, Note_on_c, 0, 58, 0
1, 15370, Note_on_c, 0, 61, 0
1, 15373, Note_on_c, 0, 49, 0
1, 15434, Note_on_c, 0, 40, 87
1, 15499, Note_on_c, 0, 40, 0
1, 15565, Note_on_c, 0, 61, 64
1, 15565, Note_on_c, 0, 52, 64
1, 15565, Note_on_c, 0, 57, 64
1, 15568, Note_on_c, 0, 49, 80
1, 15629, Note_on_c, 0, 57, 0
1, 15629, Note_on_c, 0, 52, 0
1, 15629, Note_on_c, 0, 61, 0
1, 15632, Note_on_c, 0, 49, 0
1, 15693, Note_on_c, 0, 39, 89
1, 15758, Note_on_c, 0, 39, 0
1, 15824, Note_on_c, 0, 55, 65
1, 15824, Note_on_c, 0, 61, 65
1, 15824, Note_on_c, 0, 51, 65
1, 15827, Note_on_c, 0, 57, 65
1, 15827, Note_on_c, 0, 49, 83
1, 15888, Note_on_c, 0, 57, 0
1, 15888, Note_on_c, 0, 55, 0
1, 15888, Note_on_c, 0, 61, 0
1, 15891, Note_on_c, 0, 51, 0
1, 15891, Note_on_c, 0, 49, 0
1, 15952, Note_on_c, 0, 50, 96
1, 15952, Note_on_c, 0, 38, 83
1, 16017, Note_on_c, 0, 38, 0
1, 16017, Note_on_c, 0, 50, 0
1, 16083, Note_on_c, 0, 45, 83
1, 16083, Note_on_c, 0, 33, 72
1, 16148, Note_on_c, 0, 33, 0
1, 16148, Note_on_c, 0, 45, 0
1, 16214, Note_on_c, 0, 50, 96
1, 16214, Note_on_c, 0, 38, 83
1, 16279, Note_on_c, 0, 38, 0
1, 16279, Note_on_c, 0, 50, 0
1, 16345, Note_on_c, 0, 33, 72
1, 16345, Note_on_c, 0, 45, 83
1, 16410, Note_on_c, 0, 45, 0
1, 16410, Note_on_c, 0, 33, 0
1, 16476, Note_on_c, 0, 38, 83
1, 16476, Note_on_c, 0, 50, 96
1, 16541, Note_on_c, 0, 50, 0
1, 16541, Note_on_c, 0, 38, 0
1, 16607, Note_on_c, 0, 33, 72
1, 16607, Note_on_c, 0, 45, 83
1, 16672, Note_on_c, 0, 45, 0
1, 16672, Note_on_c, 0, 33, 0
1, 16738, Note_on_c, 0, 50, 96
1, 16738, Note_on_c, 0, 38, 83
1, 16803, Note_on_c, 0, 38, 0
1, 16803, Note_on_c, 0, 50, 0
1, 16869, Note_on_c, 0, 74, 89
1, 16869, Note_on_c, 0, 33, 72
1, 16869, Note_on_c, 0, 45, 83
1, 16901, Note_on_c, 0, 74, 0
1, 16901, Note_on_c, 0, 76, 89
1, 16934, Note_on_c, 0, 76, 0
1, 16934, Note_on_c, 0, 77, 89
1, 16934, Note_on_c, 0, 45, 0
1, 16937, Note_on_c, 0, 33, 0
1, 16967, Note_on_c, 0, 77, 0
1, 16967, Note_on_c, 0, 79, 89
1, 16999, Note_on_c, 0, 79, 0
1, 16999, Note_on_c, 0, 81, 92
1, 16999, Note_on_c, 0, 38, 75
1, 17002, Note_on_c, 0, 50, 87
1, 17066, Note_on_c, 0, 81, 0
1, 17066, Note_on_c, 0, 50, 0
1, 17066, Note_on_c, 0, 38, 0
1, 17133, Note_on_c, 0, 86, 84
1, 17133, Note_on_c, 0, 74, 72
1, 17133, Note_on_c, 0, 77, 72
1, 17136, Note_on_c, 0, 33, 65
1, 17136, Note_on_c, 0, 45, 75
1, 17199, Note_on_c, 0, 77, 0
1, 17199, Note_on_c, 0, 74, 0
1, 17199, Note_on_c, 0, 86, 0
1, 17202, Note_on_c, 0, 45, 0
1, 17202, Note_on_c, 0, 33, 0
1, 17265, Note_on_c, 0, 86, 84
1, 17265, Note_on_c, 0, 74, 72
1, 17265, Note_on_c, 0, 77, 72
1, 17268, Note_on_c, 0, 38, 75
1, 17268, Note_on_c, 0, 50, 87
1, 17331, Note_on_c, 0, 77, 0
1, 17331, Note_on_c, 0, 74, 0
1, 17331, Note_on_c, 0, 86, 0
1, 17334, Note_on_c, 0, 50, 0
1, 17334, Note_on_c, 0, 38, 0
1, 17398, Note_on_c, 0, 77, 72
1, 17398, Note_on_c, 0, 74, 72
1, 17398, Note_on_c, 0, 85, 84
1, 17401, Note_on_c, 0, 33, 65
1, 17401, Note_on_c, 0, 45, 75
1, 17463, Note_on_c, 0, 85, 0
1, 17463, Note_on_c, 0, 74, 0
1, 17463, Note_on_c, 0, 77, 0
1, 17466, Note_on_c, 0, 45, 0
1, 17466, Note_on_c, 0, 33, 0
1, 17529, Note_on_c, 0, 85, 89
1, 17529, Note_on_c, 0, 74, 77
1, 17529, Note_on_c, 0, 77, 77
1, 17532, Note_on_c, 0, 50, 87
1, 17532, Note_on_c, 0, 38, 75
1, 17595, Note_on_c, 0, 77, 0
1, 17595, Note_on_c, 0, 74, 0
1, 17595, Note_on_c, 0, 85, 0
1, 17598, Note_on_c, 0, 38, 0
1, 17598, Note_on_c, 0, 50, 0
1, 17661, Note_on_c, 0, 74, 72
1, 17661, Note_on_c, 0, 84, 84
1, 17661, Note_on_c, 0, 77, 72
1, 17664, Note_on_c, 0, 33, 65
1, 17664, Note_on_c, 0, 45, 75
1, 17726, Note_on_c, 0, 77, 0
1, 17726, Note_on_c, 0, 84, 0
1, 17726, Note_on_c, 0, 74, 0
1, 17729, Note_on_c, 0, 45, 0
1, 17729, Note_on_c, 0, 33, 0
1, 17791, Note_on_c, 0, 84, 84
1, 17791, Note_on_c, 0, 74, 72
1, 17791, Note_on_c, 0, 77, 72
1, 17794, Note_on_c, 0, 38, 75
1, 17794, Note_on_c, 0, 50, 87
1, 17857, Note_on_c, 0, 77, 0
1, 17857, Note_on_c, 0, 74, 0
1, 17857, Note_on_c, 0, 84, 0
1, 17860, Note_on_c, 0, 50, 0
1, 17860, Note_on_c, 0, 38, 0
1, 17922, Note_on_c, 0, 83, 84
1, 17922, Note_on_c, 0, 74, 72
1, 17922, Note_on_c, 0, 77, 72
1, 17925, Note_on_c, 0, 33, 65
1, 17925, Note_on_c, 0, 45, 75
1, 17986, Note_on_c, 0, 77, 0
1, 17986, Note_on_c, 0, 74, 0
1, 17986, Note_on_c, 0, 83, 0
1, 17989, Note_on_c, 0, 45, 0
1, 17989, Note_on_c, 0, 33, 0
1, 18050, Note_on_c, 0, 77, 77
1, 18050, Note_on_c, 0, 74, 77
1, 18050, Note_on_c, 0, 83, 89
1, 18053, Note_on_c, 0, 50, 87
1, 18053, Note_on_c, 0, 38, 75
1, 18115, Note_on_c, 0, 83, 0
1, 18115, Note_on_c, 0, 74, 0
1, 18115, Note_on_c, 0, 77, 0
1, 18118, Note_on_c, 0, 38, 0
1, 18118, Note_on_c, 0, 50, 0
1, 18181, Note_on_c, 0, 77, 73
1, 18181, Note_on_c, 0, 74, 73
1, 18181, Note_on_c, 0, 82, 85
1, 18184, Note_on_c, 0, 45, 75
1, 18184, Note_on_c, 0, 33, 65
1, 18245, Note_on_c, 0, 82, 0
1, 18245, Note_on_c, 0, 74, 0
1, 18245, Note_on_c, 0, 77, 0
1, 18248, Note_on_c, 0, 33, 0
1, 18248, Note_on_c, 0, 45, 0
1, 18310, Note_on_c, 0, 82, 85
1, 18310, Note_on_c, 0, 77, 73
1, 18310, Note_on_c, 0, 74, 73
1, 18313, Note_on_c, 0, 50, 87
1, 18313, Note_on_c, 0, 38, 75
1, 18375, Note_on_c, 0, 74, 0
1, 18375, Note_on_c, 0, 77, 0
1, 18375, Note_on_c, 0, 82, 0
1, 18378, Note_on_c, 0, 38, 0
1, 18378, Note_on_c, 0, 50, 0
1, 18441, Note_on_c, 0, 81, 85
1, 18441, Note_on_c, 0, 74, 73
1, 18441, Note_on_c, 0, 77, 85
1, 18444, Note_on_c, 0, 45, 75
1, 18444, Note_on_c, 0, 33, 65
1, 18505, Note_on_c, 0, 77, 0
1, 18505, Note_on_c, 0, 74, 0
1, 18505, Note_on_c, 0, 81, 0
1, 18508, Note_on_c, 0, 33, 0
1, 18508, Note_on_c, 0, 45, 0
1, 18570, Note_on_c, 0, 76, 82
1, 18570, Note_on_c, 0, 71, 82
1, 18570, Note_on_c, 0, 80, 95
1, 18573, Note_on_c, 0, 38, 75
1, 18573, Note_on_c, 0, 50, 87
1, 18635, Note_on_c, 0, 80, 0
1, 18635, Note_on_c, 0, 71, 0
1, 18635, Note_on_c, 0, 76, 0
1, 18638, Note_on_c, 0, 50, 0
1, 18638, Note_on_c, 0, 38, 0
1, 18700, Note_on_c, 0, 80, 99
1, 18700, Note_on_c, 0, 71, 85
1, 18700, Note_on_c, 0, 76, 85
1, 18703, Note_on_c, 0, 33, 65
1, 18703, Note_on_c, 0, 45, 75
1, 18765, Note_on_c, 0, 45, 0
1, 18765, Note_on_c, 0, 33, 0
1, 18830, Note_on_c, 0, 38, 75
1, 18830, Note_on_c, 0, 50, 87
1, 18896, Note_on_c, 0, 50, 0
1, 18896, Note_on_c, 0, 38, 0
1, 18962, Note_on_c, 0, 76, 0
1, 18962, Note_on_c, 0, 71, 0
1, 18962, Note_on_c, 0, 80, 0
1, 18965, Note_on_c, 0, 79, 89
1, 18965, Note_on_c, 0, 33, 65
1, 18965, Note_on_c, 0, 45, 75
1, 18994, Note_on_c, 0, 79, 0
1, 18994, Note_on_c, 0, 81, 89
1, 19027, Note_on_c, 0, 81, 0
1, 19027, Note_on_c, 0, 82, 89
1, 19027, Note_on_c, 0, 45, 0
1, 19030, Note_on_c, 0, 33, 0
1, 19059, Note_on_c, 0, 82, 0
1, 19059, Note_on_c, 0, 84, 89
1, 19091, Note_on_c, 0, 84, 0
1, 19091, Note_on_c, 0, 86, 92
1, 19091, Note_on_c, 0, 50, 87
1, 19094, Note_on_c, 0, 38, 75
1, 19157, Note_on_c, 0, 86, 0
1, 19157, Note_on_c, 0, 38, 0
1, 19157, Note_on_c, 0, 50, 0
1, 19223, Note_on_c, 0, 79, 72
1, 19223, Note_on_c, 0, 82, 72
1, 19223, Note_on_c, 0, 91, 84
1, 19226, Note_on_c, 0, 45, 75
1, 19226, Note_on_c, 0, 33, 65
1, 19287, Note_on_c, 0, 91, 0
1, 19287, Note_on_c, 0, 82, 0
1, 19287, Note_on_c, 0, 79, 0
1, 19290, Note_on_c, 0, 33, 0
1, 19290, Note_on_c, 0, 45, 0
1, 19352, Note_on_c, 0, 82, 72
1, 19352, Note_on_c, 0, 91, 84
1, 19352, Note_on_c, 0, 79, 72
1, 19355, Note_on_c, 0, 50, 87
1, 19355, Note_on_c, 0, 38, 75
1, 19417, Note_on_c, 0, 79, 0
1, 19417, Note_on_c, 0, 91, 0
1, 19417, Note_on_c, 0, 82, 0
1, 19420, Note_on_c, 0, 38, 0
1, 19420, Note_on_c, 0, 50, 0
1, 19483, Note_on_c, 0, 90, 84
1, 19483, Note_on_c, 0, 79, 72
1, 19483, Note_on_c, 0, 82, 72
1, 19486, Note_on_c, 0, 45, 75
1, 19486, Note_on_c, 0, 33, 65
1, 19548, Note_on_c, 0, 82, 0
1, 19548, Note_on_c, 0, 79, 0
1, 19548, Note_on_c, 0, 90, 0
1, 19551, Note_on_c, 0, 33, 0
1, 19551, Note_on_c, 0, 45, 0
1, 19612, Note_on_c, 0, 82, 77
1, 19612, Note_on_c, 0, 90, 89
1, 19612, Note_on_c, 0, 79, 77
1, 19615, Note_on_c, 0, 38, 75
1, 19615, Note_on_c, 0, 50, 87
1, 19678, Note_on_c, 0, 79, 0
1, 19678, Note_on_c, 0, 90, 0
1, 19678, Note_on_c, 0, 82, 0
1, 19681, Note_on_c, 0, 50, 0
1, 19681, Note_on_c, 0, 38, 0
1, 19744, Note_on_c, 0, 89, 84
1, 19744, Note_on_c, 0, 82, 72
1, 19744, Note_on_c, 0, 79, 72
1, 19747, Note_on_c, 0, 45, 75
1, 19747, Note_on_c, 0, 33, 65
1, 19808, Note_on_c, 0, 79, 0
1, 19808, Note_on_c, 0, 82, 0
1, 19808, Note_on_c, 0, 89, 0
1, 19811, Note_on_c, 0, 33, 0
1, 19811, Note_on_c, 0, 45, 0
1, 19872, Note_on_c, 0, 82, 72
1, 19872, Note_on_c, 0, 89, 84
1, 19872, Note_on_c, 0, 79, 72
1, 19875, Note_on_c, 0, 50, 87
1, 19875, Note_on_c, 0, 38, 75
1, 19937, Note_on_c, 0, 79, 0
1, 19937, Note_on_c, 0, 89, 0
1, 19937, Note_on_c, 0, 82, 0
1, 19940, Note_on_c, 0, 38, 0
1, 19940, Note_on_c, 0, 50, 0
1, 20001, Note_on_c, 0, 82, 72
1, 20001, Note_on_c, 0, 79, 72
1, 20001, Note_on_c, 0, 88, 84
1, 20004, Note_on_c, 0, 45, 75
1, 20004, Note_on_c, 0, 33, 65
1, 20065, Note_on_c, 0, 88, 0
1, 20065, Note_on_c, 0, 79, 0
1, 20065, Note_on_c, 0, 82, 0
1, 20068, Note_on_c, 0, 33, 0
1, 20068, Note_on_c, 0, 45, 0
1, 20129, Note_on_c, 0, 88, 89
1, 20129, Note_on_c, 0, 79, 77
1, 20129, Note_on_c, 0, 82, 77
1, 20132, Note_on_c, 0, 38, 75
1, 20132, Note_on_c, 0, 50, 87
1, 20194, Note_on_c, 0, 82, 0
1, 20194, Note_on_c, 0, 79, 0
1, 20194, Note_on_c, 0, 88, 0
1, 20197, Note_on_c, 0, 50, 0
1, 20197, Note_on_c, 0, 38, 0
1, 20260, Note_on_c, 0, 82, 73
1, 20260, Note_on_c, 0, 87, 85
1, 20260, Note_on_c, 0, 79, 73
1, 20263, Note_on_c, 0, 33, 65
1, 20263, Note_on_c, 0, 45, 75
1, 20323, Note_on_c, 0, 79, 0
1, 20323, Note_on_c, 0, 87, 0
1, 20323, Note_on_c, 0, 82, 0
1, 20326, Note_on_c, 0, 45, 0
1, 20326, Note_on_c, 0, 33, 0
1, 20387, Note_on_c, 0, 87, 85
1, 20387, Note_on_c, 0, 79, 73
1, 20387, Note_on_c, 0, 82, 73
1, 20390, Note_on_c, 0, 50, 87
1, 20390, Note_on_c, 0, 38, 75
1, 20452, Note_on_c, 0, 82, 0
1, 20452, Note_on_c, 0, 79, 0
1, 20452, Note_on_c, 0, 87, 0
1, 20455, Note_on_c, 0, 38, 0
1, 20455, Note_on_c, 0, 50, 0
1, 20516, Note_on_c, 0, 82, 73
1, 20516, Note_on_c, 0, 86, 85
1, 20516, Note_on_c, 0, 79, 73
1, 20519, Note_on_c, 0, 33, 65
1, 20519, Note_on_c, 0, 45, 75
1, 20580, Note_on_c, 0, 79, 0
1, 20580, Note_on_c, 0, 86, 0
1, 20580, Note_on_c, 0, 82, 0
1, 20583, Note_on_c, 0, 45, 0
1, 20583, Note_on_c, 0, 33, 0
1, 20644, Note_on_c, 0, 81, 82
1, 20644, Note_on_c, 0, 76, 82
1, 20644, Note_on_c, 0, 85, 95
1, 20647, Note_on_c, 0, 38, 75
1, 20647, Note_on_c, 0, 50, 87
1, 20709, Note_on_c, 0, 85, 0
1, 20709, Note_on_c, 0, 76, 0
1, 20709, Note_on_c, 0, 81, 0
1, 20712, Note_on_c, 0, 50, 0
1, 20712, Note_on_c, 0, 38, 0
1, 20774, Note_on_c, 0, 85, 99
1, 20774, Note_on_c, 0, 81, 85
1, 20774, Note_on_c, 0, 76, 85
1, 20777, Note_on_c, 0, 33, 65
1, 20777, Note_on_c, 0, 45, 75
1, 20837, Note_on_c, 0, 45, 0
1, 20837, Note_on_c, 0, 33, 0
1, 20899, Note_on_c, 0, 38, 75
1, 20899, Note_on_c, 0, 50, 87
1, 20962, Note_on_c, 0, 50, 0
1, 20962, Note_on_c, 0, 38, 0
1, 21025, Note_on_c, 0, 76, 0
1, 21025, Note_on_c, 0, 81, 0
1, 21025, Note_on_c, 0, 85, 0
1, 21028, Note_on_c, 0, 33, 65
1, 21028, Note_on_c, 0, 45, 75
1, 21086, Note_on_c, 0, 45, 0
1, 21086, Note_on_c, 0, 33, 0
1, 21148, Note_on_c, 0, 86, 107
1, 21148, Note_on_c, 0, 53, 75
1, 21148, Note_on_c, 0, 65, 87
1, 21179, Note_on_c, 0, 86, 0
1, 21179, Note_on_c, 0, 88, 86
1, 21211, Note_on_c, 0, 88, 0
1, 21211, Note_on_c, 0, 89, 86
1, 21211, Note_on_c, 0, 65, 0
1, 21214, Note_on_c, 0, 53, 0
1, 21242, Note_on_c, 0, 89, 0
1, 21242, Note_on_c, 0, 91, 86
1, 21274, Note_on_c, 0, 91, 0
1, 21274, Note_on_c, 0, 93, 86
1, 21274, Note_on_c, 0, 50, 75
1, 21277, Note_on_c, 0, 38, 56
1, 21339, Note_on_c, 0, 93, 0
1, 21339, Note_on_c, 0, 38, 0
1, 21339, Note_on_c, 0, 50, 0
1, 21404, Note_on_c, 0, 91, 105
1, 21404, Note_on_c, 0, 64, 87
1, 21404, Note_on_c, 0, 52, 75
1, 21435, Note_on_c, 0, 91, 0
1, 21435, Note_on_c, 0, 89, 87
1, 21467, Note_on_c, 0, 89, 0
1, 21467, Note_on_c, 0, 88, 87
1, 21467, Note_on_c, 0, 52, 0
1, 21470, Note_on_c, 0, 64, 0
1, 21498, Note_on_c, 0, 88, 0
1, 21498, Note_on_c, 0, 86, 87
1, 21530, Note_on_c, 0, 86, 0
1, 21530, Note_on_c, 0, 84, 88
1, 21530, Note_on_c, 0, 38, 56
1, 21533, Note_on_c, 0, 50, 75
1, 21595, Note_on_c, 0, 84, 0
1, 21595, Note_on_c, 0, 50, 0
1, 21595, Note_on_c, 0, 38, 0
1, 21660, Note_on_c, 0, 82, 105
1, 21660, Note_on_c, 0, 62, 87
1, 21660, Note_on_c, 0, 50, 75
1, 21691, Note_on_c, 0, 82, 0
1, 21691, Note_on_c, 0, 84, 87
1, 21723, Note_on_c, 0, 84, 0
1, 21723, Note_on_c, 0, 86, 87
1, 21723, Note_on_c, 0, 50, 0
1, 21726, Note_on_c, 0, 62, 0
1, 21754, Note_on_c, 0, 86, 0
1, 21754, Note_on_c, 0, 88, 87
1, 21786, Note_on_c, 0, 88, 0
1, 21786, Note_on_c, 0, 89, 87
1, 21786, Note_on_c, 0, 50, 75
1, 21789, Note_on_c, 0, 38, 56
1, 21851, Note_on_c, 0, 89, 0
1, 21851, Note_on_c, 0, 38, 0
1, 21851, Note_on_c, 0, 50, 0
1, 21916, Note_on_c, 0, 88, 105
1, 21916, Note_on_c, 0, 60, 87
1, 21916, Note_on_c, 0, 48, 75
1, 21947, Note_on_c, 0, 88, 0
1, 21947, Note_on_c, 0, 86, 87
1, 21979, Note_on_c, 0, 86, 0
1, 21979, Note_on_c, 0, 84, 87
1, 21979, Note_on_c, 0, 48, 0
1, 21982, Note_on_c, 0, 60, 0
1, 22010, Note_on_c, 0, 84, 0
1, 22010, Note_on_c, 0, 82, 87
1, 22042, Note_on_c, 0, 82, 0
1, 22042, Note_on_c, 0, 81, 87
1, 22042, Note_on_c, 0, 38, 56
1, 22045, Note_on_c, 0, 50, 75
1, 22107, Note_on_c, 0, 81, 0
1, 22107, Note_on_c, 0, 50, 0
1, 22107, Note_on_c, 0, 38, 0
1, 22172, Note_on_c, 0, 79, 105
1, 22172, Note_on_c, 0, 46, 65
1, 22172, Note_on_c, 0, 58, 87
1, 22203, Note_on_c, 0, 79, 0
1, 22203, Note_on_c, 0, 81, 89
1, 22235, Note_on_c, 0, 81, 0
1, 22235, Note_on_c, 0, 82, 89
1, 22235, Note_on_c, 0, 58, 0
1, 22238, Note_on_c, 0, 46, 0
1, 22266, Note_on_c, 0, 82, 0
1, 22266, Note_on_c, 0, 84, 89
1, 22298, Note_on_c, 0, 84, 0
1, 22298, Note_on_c, 0, 86, 89
1, 22298, Note_on_c, 0, 38, 56
1, 22301, Note_on_c, 0, 50, 75
1, 22363, Note_on_c, 0, 86, 0
1, 22363, Note_on_c, 0, 50, 0
1, 22363, Note_on_c, 0, 38, 0
1, 22428, Note_on_c, 0, 84, 105
1, 22428, Note_on_c, 0, 57, 87
1, 22428, Note_on_c, 0, 45, 65
1, 22459, Note_on_c, 0, 84, 0
1, 22459, Note_on_c, 0, 82, 89
1, 22491, Note_on_c, 0, 82, 0
1, 22491, Note_on_c, 0, 81, 88
1, 22491, Note_on_c, 0, 45, 0
1, 22494, Note_on_c, 0, 57, 0
1, 22522, Note_on_c, 0, 81, 0
1, 22522, Note_on_c, 0, 79, 88
1, 22554, Note_on_c, 0, 79, 0
1, 22554, Note_on_c, 0, 77, 88
1, 22554, Note_on_c, 0, 50, 75
1, 22557, Note_on_c, 0, 38, 56
1, 22618, Note_on_c, 0, 77, 0
1, 22618, Note_on_c, 0, 38, 0
1, 22618, Note_on_c, 0, 50, 0
1, 22683, Note_on_c, 0, 76, 96
1, 22683, Note_on_c, 0, 81, 96
1, 22683, Note_on_c, 0, 88, 96
1, 22686, Note_on_c, 0, 43, 65
1, 22686, Note_on_c, 0, 55, 87
1, 22747, Note_on_c, 0, 88, 0
1, 22747, Note_on_c, 0, 81, 0
1, 22747, Note_on_c, 0, 76, 0
1, 22750, Note_on_c, 0, 55, 0
1, 22750, Note_on_c, 0, 43, 0
1, 22811, Note_on_c, 0, 76, 96
1, 22811, Note_on_c, 0, 88, 96
1, 22811, Note_on_c, 0, 81, 96
1, 22814, Note_on_c, 0, 50, 75
1, 22814, Note_on_c, 0, 38, 56
1, 22875, Note_on_c, 0, 38, 0
1, 22875, Note_on_c, 0, 50, 0
1, 22938, Note_on_c, 0, 55, 87
1, 22938, Note_on_c, 0, 43, 65
1, 23002, Note_on_c, 0, 43, 0
1, 23002, Note_on_c, 0, 55, 0
1, 23065, Note_on_c, 0, 81, 0
1, 23065, Note_on_c, 0, 88, 0
1, 23065, Note_on_c, 0, 76, 0
1, 23068, Note_on_c, 0, 38, 56
1, 23068, Note_on_c, 0, 50, 75
1, 23129, Note_on_c, 0, 50, 0
1, 23129, Note_on_c, 0, 38, 0
1, 23192, Note_on_c, 0, 82, 94
1, 23192, Note_on_c, 0, 62, 87
1, 23192, Note_on_c, 0, 50, 75
1, 23224, Note_on_c, 0, 82, 0
1, 23224, Note_on_c, 0, 84, 86
1, 23255, Note_on_c, 0, 84, 0
1, 23255, Note_on_c, 0, 86, 86
1, 23255, Note_on_c, 0, 50, 0
1, 23258, Note_on_c, 0, 62, 0
1, 23287, Note_on_c, 0, 86, 0
1, 23287, Note_on_c, 0, 88, 86
1, 23318, Note_on_c, 0, 88, 0
1, 23318, Note_on_c, 0, 89, 86
1, 23318, Note_on_c, 0, 38, 65
1, 23321, Note_on_c, 0, 50, 75
1, 23383, Note_on_c, 0, 89, 0
1, 23383, Note_on_c, 0, 50, 0
1, 23383, Note_on_c, 0, 38, 0
1, 23448, Note_on_c, 0, 88, 94
1, 23448, Note_on_c, 0, 60, 87
1, 23448, Note_on_c, 0, 48, 75
1, 23480, Note_on_c, 0, 88, 0
1, 23480, Note_on_c, 0, 86, 87
1, 23511, Note_on_c, 0, 86, 0
1, 23511, Note_on_c, 0, 84, 87
1, 23511, Note_on_c, 0, 48, 0
1, 23514, Note_on_c, 0, 60, 0
1, 23543, Note_on_c, 0, 84, 0
1, 23543, Note_on_c, 0, 82, 87
1, 23574, Note_on_c, 0, 82, 0
1, 23574, Note_on_c, 0, 81, 88
1, 23574, Note_on_c, 0, 50, 75
1, 23577, Note_on_c, 0, 38, 65
1, 23639, Note_on_c, 0, 81, 0
1, 23639, Note_on_c, 0, 38, 0
1, 23639, Note_on_c, 0, 50, 0
1, 23704, Note_on_c, 0, 79, 94
1, 23704, Note_on_c, 0, 58, 87
1, 23704, Note_on_c, 0, 46, 75
1, 23736, Note_on_c, 0, 79, 0
1, 23736, Note_on_c, 0, 81, 87
1, 23767, Note_on_c, 0, 81, 0
1, 23767, Note_on_c, 0, 82, 87
1, 23767, Note_on_c, 0, 46, 0
1, 23770, Note_on_c, 0, 58, 0
1, 23799, Note_on_c, 0, 82, 0
1, 23799, Note_on_c, 0, 84, 87
1, 23830, Note_on_c, 0, 84, 0
1, 23830, Note_on_c, 0, 86, 87
1, 23830, Note_on_c, 0, 38, 65
1, 23833, Note_on_c, 0, 50, 75
1, 23895, Note_on_c, 0, 86, 0
1, 23895, Note_on_c, 0, 50, 0
1, 23895, Note_on_c, 0, 38, 0
1, 23960, Note_on_c, 0, 84, 94
1, 23960, Note_on_c, 0, 57, 87
1, 23960, Note_on_c, 0, 45, 75
1, 23991, Note_on_c, 0, 84, 0
1, 23991, Note_on_c, 0, 82, 87
1, 24023, Note_on_c, 0, 82, 0
1, 24023, Note_on_c, 0, 81, 87
1, 24023, Note_on_c, 0, 45, 0
1, 24026, Note_on_c, 0, 57, 0
1, 24054, Note_on_c, 0, 81, 0
1, 24054, Note_on_c, 0, 79, 87
1, 24086, Note_on_c, 0, 79, 0
1, 24086, Note_on_c, 0, 77, 87
1, 24086, Note_on_c, 0, 50, 75
1, 24089, Note_on_c, 0, 38, 65
1, 24151, Note_on_c, 0, 77, 0
1, 24151, Note_on_c, 0, 38, 0
1, 24151, Note_on_c, 0, 50, 0
1, 24216, Note_on_c, 0, 75, 96
1, 24216, Note_on_c, 0, 55, 87
1, 24216, Note_on_c, 0, 43, 75
1, 24247, Note_on_c, 0, 75, 0
1, 24247, Note_on_c, 0, 77, 86
1, 24279, Note_on_c, 0, 77, 0
1, 24279, Note_on_c, 0, 79, 86
1, 24279, Note_on_c, 0, 43, 0
1, 24282, Note_on_c, 0, 55, 0
1, 24310, Note_on_c, 0, 79, 0
1, 24310, Note_on_c, 0, 81, 86
1, 24342, Note_on_c, 0, 81, 0
1, 24342, Note_on_c, 0, 82, 86
1, 24342, Note_on_c, 0, 50, 75
1, 24345, Note_on_c, 0, 38, 65
1, 24407, Note_on_c, 0, 82, 0
1, 24407, Note_on_c, 0, 38, 0
1, 24407, Note_on_c, 0, 50, 0
1, 24472, Note_on_c, 0, 81, 94
1, 24472, Note_on_c, 0, 41, 75
1, 24472, Note_on_c, 0, 53, 87
1, 24503, Note_on_c, 0, 81, 0
1, 24503, Note_on_c, 0, 79, 86
1, 24535, Note_on_c, 0, 79, 0
1, 24535, Note_on_c, 0, 77, 86
1, 24535, Note_on_c, 0, 53, 0
1, 24538, Note_on_c, 0, 41, 0
1, 24566, Note_on_c, 0, 77, 0
1, 24566, Note_on_c, 0, 75, 86
1, 24598, Note_on_c, 0, 75, 0
1, 24598, Note_on_c, 0, 74, 86
1, 24598, Note_on_c, 0, 38, 65
1, 24601, Note_on_c, 0, 50, 75
1, 24663, Note_on_c, 0, 74, 0
1, 24663, Note_on_c, 0, 50, 0
1, 24663, Note_on_c, 0, 38, 0
1, 24727, Note_on_c, 0, 69, 89
1, 24727, Note_on_c, 0, 81, 89
1, 24727, Note_on_c, 0, 76, 89
1, 24730, Note_on_c, 0, 40, 75
1, 24730, Note_on_c, 0, 52, 87
1, 24792, Note_on_c, 0, 76, 0
1, 24792, Note_on_c, 0, 81, 0
1, 24792, Note_on_c, 0, 69, 0
1, 24795, Note_on_c, 0, 52, 0
1, 24795, Note_on_c, 0, 40, 0
1, 24856, Note_on_c, 0, 76, 89
1, 24856, Note_on_c, 0, 81, 89
1, 24856, Note_on_c, 0, 69, 89
1, 24859, Note_on_c, 0, 50, 75
1, 24859, Note_on_c, 0, 38, 65
1, 24919, Note_on_c, 0, 38, 0
1, 24919, Note_on_c, 0, 50, 0
1, 24983, Note_on_c, 0, 52, 87
1, 24983, Note_on_c, 0, 40, 75
1, 25046, Note_on_c, 0, 40, 0
1, 25046, Note_on_c, 0, 52, 0
1, 25110, Note_on_c, 0, 69, 0
1, 25110, Note_on_c, 0, 81, 0
1, 25110, Note_on_c, 0, 76, 0
1, 25113, Note_on_c, 0, 38, 65
1, 25113, Note_on_c, 0, 50, 75
1, 25173, Note_on_c, 0, 50, 0
1, 25173, Note_on_c, 0, 38, 0
1, 25237, Note_on_c, 0, 74, 85
1, 25237, Note_on_c, 0, 53, 72
1, 25268, Note_on_c, 0, 74, 0
1, 25268, Note_on_c, 0, 76, 76
1, 25300, Note_on_c, 0, 76, 0
1, 25300, Note_on_c, 0, 77, 76
1, 25300, Note_on_c, 0, 53, 0
1, 25332, Note_on_c, 0, 77, 0
1, 25332, Note_on_c, 0, 79, 76
1, 25364, Note_on_c, 0, 79, 0
1, 25364, Note_on_c, 0, 81, 76
1, 25364, Note_on_c, 0, 38, 62
1, 25428, Note_on_c, 0, 81, 0
1, 25428, Note_on_c, 0, 38, 0
1, 25493, Note_on_c, 0, 79, 87
1, 25493, Note_on_c, 0, 52, 70
1, 25525, Note_on_c, 0, 79, 0
1, 25525, Note_on_c, 0, 77, 75
1, 25557, Note_on_c, 0, 77, 0
1, 25557, Note_on_c, 0, 76, 75
1, 25557, Note_on_c, 0, 52, 0
1, 25588, Note_on_c, 0, 76, 0
1, 25588, Note_on_c, 0, 74, 75
1, 25620, Note_on_c, 0, 74, 0
1, 25620, Note_on_c, 0, 72, 75
1, 25620, Note_on_c, 0, 38, 61
1, 25685, Note_on_c, 0, 72, 0
1, 25685, Note_on_c, 0, 38, 0
1, 25750, Note_on_c, 0, 70, 83
1, 25750, Note_on_c, 0, 50, 69
1, 25782, Note_on_c, 0, 70, 0
1, 25782, Note_on_c, 0, 72, 75
1, 25813, Note_on_c, 0, 72, 0
1, 25813, Note_on_c, 0, 74, 74
1, 25813, Note_on_c, 0, 50, 0
1, 25845, Note_on_c, 0, 74, 0
1, 25845, Note_on_c, 0, 76, 74
1, 25877, Note_on_c, 0, 76, 0
1, 25877, Note_on_c, 0, 77, 74
1, 25877, Note_on_c, 0, 38, 60
1, 25942, Note_on_c, 0, 77, 0
1, 25942, Note_on_c, 0, 38, 0
1, 26006, Note_on_c, 0, 76, 82
1, 26006, Note_on_c, 0, 48, 68
1, 26038, Note_on_c, 0, 76, 0
1, 26038, Note_on_c, 0, 74, 74
1, 26069, Note_on_c, 0, 74, 0
1, 26069, Note_on_c, 0, 72, 73
1, 26069, Note_on_c, 0, 48, 0
1, 26101, Note_on_c, 0, 72, 0
1, 26101, Note_on_c, 0, 70, 73
1, 26133, Note_on_c, 0, 70, 0
1, 26133, Note_on_c, 0, 69, 73
1, 26133, Note_on_c, 0, 38, 59
1, 26197, Note_on_c, 0, 69, 0
1, 26197, Note_on_c, 0, 38, 0
1, 26262, Note_on_c, 0, 67, 81
1, 26262, Note_on_c, 0, 46, 67
1, 26294, Note_on_c, 0, 67, 0
1, 26294, Note_on_c, 0, 69, 73
1, 26325, Note_on_c, 0, 69, 0
1, 26325, Note_on_c, 0, 70, 73
1, 26325, Note_on_c, 0, 46, 0
1, 26357, Note_on_c, 0, 70, 0
1, 26357, Note_on_c, 0, 72, 72
1, 26389, Note_on_c, 0, 72, 0
1, 26389, Note_on_c, 0, 74, 72
1, 26389, Note_on_c, 0, 38, 58
1, 26454, Note_on_c, 0, 74, 0
1, 26454, Note_on_c, 0, 38, 0
1, 26518, Note_on_c, 0, 72, 81
1, 26518, Note_on_c, 0, 45, 66
1, 26550, Note_on_c, 0, 72, 0
1, 26550, Note_on_c, 0, 70, 72
1, 26582, Note_on_c, 0, 70, 0
1, 26582, Note_on_c, 0, 69, 72
1, 26582, Note_on_c, 0, 45, 0
1, 26614, Note_on_c, 0, 69, 0
1, 26614, Note_on_c, 0, 67, 70
1, 26645, Note_on_c, 0, 67, 0
1, 26645, Note_on_c, 0, 65, 70
1, 26645, Note_on_c, 0, 38, 58
1, 26710, Note_on_c, 0, 65, 0
1, 26710, Note_on_c, 0, 38, 0
1, 26775, Note_on_c, 0, 64, 70
1, 26775, Note_on_c, 0, 76, 81
1, 26775, Note_on_c, 0, 69, 70
1, 26778, Note_on_c, 0, 43, 65
1, 26839, Note_on_c, 0, 69, 0
1, 26839, Note_on_c, 0, 76, 0
1, 26839, Note_on_c, 0, 64, 0
1, 26842, Note_on_c, 0, 43, 0
1, 26903, Note_on_c, 0, 69, 71
1, 26903, Note_on_c, 0, 64, 71
1, 26903, Note_on_c, 0, 76, 82
1, 26906, Note_on_c, 0, 38, 57
1, 26966, Note_on_c, 0, 38, 0
1, 27030, Note_on_c, 0, 43, 64
1, 27093, Note_on_c, 0, 43, 0
1, 27156, Note_on_c, 0, 76, 0
1, 27156, Note_on_c, 0, 64, 0
1, 27156, Note_on_c, 0, 69, 0
1, 27159, Note_on_c, 0, 38, 56
1, 27220, Note_on_c, 0, 38, 0
1, 27283, Note_on_c, 0, 70, 68
1, 27283, Note_on_c, 0, 50, 59
1, 27315, Note_on_c, 0, 70, 0
1, 27315, Note_on_c, 0, 72, 64
1, 27346, Note_on_c, 0, 72, 0
1, 27346, Note_on_c, 0, 74, 64
1, 27346, Note_on_c, 0, 50, 0
1, 27378, Note_on_c, 0, 74, 0
1, 27378, Note_on_c, 0, 76, 64
1, 27410, Note_on_c, 0, 76, 0
1, 27410, Note_on_c, 0, 77, 64
1, 27410, Note_on_c, 0, 38, 51
1, 27475, Note_on_c, 0, 77, 0
1, 27475, Note_on_c, 0, 38, 0
1, 27540, Note_on_c, 0, 76, 70
1, 27540, Note_on_c, 0, 48, 58
1, 27571, Note_on_c, 0, 76, 0
1, 27571, Note_on_c, 0, 74, 64
1, 27603, Note_on_c, 0, 74, 0
1, 27603, Note_on_c, 0, 72, 64
1, 27603, Note_on_c, 0, 48, 0
1, 27635, Note_on_c, 0, 72, 0
1, 27635, Note_on_c, 0, 70, 64
1, 27667, Note_on_c, 0, 70, 0
1, 27667, Note_on_c, 0, 69, 65
1, 27667, Note_on_c, 0, 38, 51
1, 27732, Note_on_c, 0, 69, 0
1, 27732, Note_on_c, 0, 38, 0
1, 27797, Note_on_c, 0, 67, 69
1, 27797, Note_on_c, 0, 46, 58
1, 27829, Note_on_c, 0, 67, 0
1, 27829, Note_on_c, 0, 69, 64
1, 27860, Note_on_c, 0, 69, 0
1, 27860, Note_on_c, 0, 70, 64
1, 27860, Note_on_c, 0, 46, 0
1, 27892, Note_on_c, 0, 70, 0
1, 27892, Note_on_c, 0, 72, 64
1, 27924, Note_on_c, 0, 72, 0
1, 27924, Note_on_c, 0, 74, 62
1, 27924, Note_on_c, 0, 38, 50
1, 27989, Note_on_c, 0, 74, 0
1, 27989, Note_on_c, 0, 38, 0
1, 28054, Note_on_c, 0, 72, 66
1, 28054, Note_on_c, 0, 45, 57
1, 28086, Note_on_c, 0, 72, 0
1, 28086, Note_on_c, 0, 70, 62
1, 28117, Note_on_c, 0, 70, 0
1, 28117, Note_on_c, 0, 69, 62
1, 28117, Note_on_c, 0, 45, 0
1, 28149, Note_on_c, 0, 69, 0
1, 28149, Note_on_c, 0, 67, 62
1, 28181, Note_on_c, 0, 67, 0
1, 28181, Note_on_c, 0, 65, 62
1, 28181, Note_on_c, 0, 38, 50
1, 28246, Note_on_c, 0, 65, 0
1, 28246, Note_on_c, 0, 38, 0
1, 28311, Note_on_c, 0, 63, 66
1, 28311, Note_on_c, 0, 43, 57
1, 28343, Note_on_c, 0, 63, 0
1, 28343, Note_on_c, 0, 65, 61
1, 28375, Note_on_c, 0, 65, 0
1, 28375, Note_on_c, 0, 67, 61
1, 28375, Note_on_c, 0, 43, 0
1, 28406, Note_on_c, 0, 67, 0
1, 28406, Note_on_c, 0, 69, 61
1, 28438, Note_on_c, 0, 69, 0
1, 28438, Note_on_c, 0, 70, 61
1, 28438, Note_on_c, 0, 38, 50
1, 28503, Note_on_c, 0, 70, 0
1, 28503, Note_on_c, 0, 38, 0
1, 28568, Note_on_c, 0, 69, 65
1, 28568, Note_on_c, 0, 41, 56
1, 28600, Note_on_c, 0, 69, 0
1, 28600, Note_on_c, 0, 67, 60
1, 28632, Note_on_c, 0, 67, 0
1, 28632, Note_on_c, 0, 65, 60
1, 28632, Note_on_c, 0, 41, 0
1, 28664, Note_on_c, 0, 65, 0
1, 28664, Note_on_c, 0, 63, 60
1, 28695, Note_on_c, 0, 63, 0
1, 28695, Note_on_c, 0, 62, 60
1, 28695, Note_on_c, 0, 38, 49
1, 28760, Note_on_c, 0, 62, 0
1, 28760, Note_on_c, 0, 38, 0
1, 28825, Note_on_c, 0, 57, 53
1, 28825, Note_on_c, 0, 64, 53
1, 28825, Note_on_c, 0, 69, 61
1, 28828, Note_on_c, 0, 40, 56
1, 28890, Note_on_c, 0, 69, 0
1, 28890, Note_on_c, 0, 64, 0
1, 28890, Note_on_c, 0, 57, 0
1, 28893, Note_on_c, 0, 40, 0
1, 28954, Note_on_c, 0, 57, 54
1, 28954, Note_on_c, 0, 69, 62
1, 28954, Note_on_c, 0, 64, 54
1, 28957, Note_on_c, 0, 38, 47
1, 29018, Note_on_c, 0, 38, 0
1, 29081, Note_on_c, 0, 40, 54
1, 29144, Note_on_c, 0, 40, 0
1, 29208, Note_on_c, 0, 64, 0
1, 29208, Note_on_c, 0, 69, 0
1, 29208, Note_on_c, 0, 57, 0
1, 29211, Note_on_c, 0, 38, 47
1, 29271, Note_on_c, 0, 38, 0
1, 29335, Note_on_c, 0, 86, 69
1, 29335, Note_on_c, 0, 39, 57
1, 29367, Note_on_c, 0, 86, 0
1, 29367, Note_on_c, 0, 84, 57
1, 29398, Note_on_c, 0, 84, 0
1, 29398, Note_on_c, 0, 82, 57
1, 29398, Note_on_c, 0, 39, 0
1, 29430, Note_on_c, 0, 82, 0
1, 29430, Note_on_c, 0, 81, 57
1, 29462, Note_on_c, 0, 81, 0
1, 29462, Note_on_c, 0, 79, 61
1, 29462, Note_on_c, 0, 45, 51
1, 29527, Note_on_c, 0, 79, 0
1, 29527, Note_on_c, 0, 45, 0
1, 29593, Note_on_c, 0, 74, 70
1, 29593, Note_on_c, 0, 39, 57
1, 29625, Note_on_c, 0, 74, 0
1, 29625, Note_on_c, 0, 72, 57
1, 29657, Note_on_c, 0, 72, 0
1, 29657, Note_on_c, 0, 70, 57
1, 29657, Note_on_c, 0, 39, 0
1, 29688, Note_on_c, 0, 70, 0
1, 29688, Note_on_c, 0, 69, 57
1, 29720, Note_on_c, 0, 69, 0
1, 29720, Note_on_c, 0, 67, 61
1, 29720, Note_on_c, 0, 45, 51
1, 29786, Note_on_c, 0, 67, 0
1, 29786, Note_on_c, 0, 45, 0
1, 29851, Note_on_c, 0, 38, 57
1, 29916, Note_on_c, 0, 38, 0
1, 29982, Note_on_c, 0, 69, 61
1, 29982, Note_on_c, 0, 57, 53
1, 29982, Note_on_c, 0, 64, 53
1, 29985, Note_on_c, 0, 45, 51
1, 30046, Note_on_c, 0, 45, 0
1, 30110, Note_on_c, 0, 38, 58
1, 30174, Note_on_c, 0, 38, 0
1, 30238, Note_on_c, 0, 45, 51
1, 30302, Note_on_c, 0, 45, 0
1, 30366, Note_on_c, 0, 64, 0
1, 30366, Note_on_c, 0, 57, 0
1, 30366, Note_on_c, 0, 69, 0
1, 30369, Note_on_c, 0, 86, 69
1, 30369, Note_on_c, 0, 39, 57
1, 30398, Note_on_c, 0, 86, 0
1, 30398, Note_on_c, 0, 84, 57
1, 30430, Note_on_c, 0, 84, 0
1, 30430, Note_on_c, 0, 82, 57
1, 30430, Note_on_c, 0, 39, 0
1, 30462, Note_on_c, 0, 82, 0
1, 30462, Note_on_c, 0, 81, 57
1, 30494, Note_on_c, 0, 81, 0
1, 30494, Note_on_c, 0, 79, 61
1, 30494, Note_on_c, 0, 45, 51
1, 30559, Note_on_c, 0, 79, 0
1, 30559, Note_on_c, 0, 45, 0
1, 30625, Note_on_c, 0, 74, 70
1, 30625, Note_on_c, 0, 39, 57
1, 30657, Note_on_c, 0, 74, 0
1, 30657, Note_on_c, 0, 72, 57
1, 30689, Note_on_c, 0, 72, 0
1, 30689, Note_on_c, 0, 70, 57
1, 30689, Note_on_c, 0, 39, 0
1, 30721, Note_on_c, 0, 70, 0
1, 30721, Note_on_c, 0, 69, 57
1, 30753, Note_on_c, 0, 69, 0
1, 30753, Note_on_c, 0, 67, 61
1, 30753, Note_on_c, 0, 45, 51
1, 30818, Note_on_c, 0, 67, 0
1, 30818, Note_on_c, 0, 45, 0
1, 30884, Note_on_c, 0, 38, 57
1, 30948, Note_on_c, 0, 38, 0
1, 31013, Note_on_c, 0, 69, 53
1, 31013, Note_on_c, 0, 64, 46
1, 31013, Note_on_c, 0, 57, 46
1, 31016, Note_on_c, 0, 45, 51
1, 31078, Note_on_c, 0, 57, 0
1, 31078, Note_on_c, 0, 64, 0
1, 31078, Note_on_c, 0, 69, 0
1, 31081, Note_on_c, 0, 45, 0
1, 31143, Note_on_c, 0, 74, 61
1, 31143, Note_on_c, 0, 39, 58
1, 31175, Note_on_c, 0, 74, 0
1, 31175, Note_on_c, 0, 72, 56
1, 31207, Note_on_c, 0, 72, 0
1, 31207, Note_on_c, 0, 70, 56
1, 31207, Note_on_c, 0, 39, 0
1, 31238, Note_on_c, 0, 70, 0
1, 31238, Note_on_c, 0, 69, 56
1, 31270, Note_on_c, 0, 69, 0
1, 31270, Note_on_c, 0, 67, 60
1, 31270, Note_on_c, 0, 45, 49
1, 31334, Note_on_c, 0, 67, 0
1, 31334, Note_on_c, 0, 45, 0
1, 31397, Note_on_c, 0, 38, 53
1, 31461, Note_on_c, 0, 38, 0
1, 31525, Note_on_c, 0, 69, 53
1, 31525, Note_on_c, 0, 64, 46
1, 31525, Note_on_c, 0, 57, 46
1, 31528, Note_on_c, 0, 45, 51
1, 31589, Note_on_c, 0, 57, 0
1, 31589, Note_on_c, 0, 64, 0
1, 31589, Note_on_c, 0, 69, 0
1, 31592, Note_on_c, 0, 45, 0
1, 31653, Note_on_c, 0, 74, 52
1, 31653, Note_on_c, 0, 39, 53
1, 31685, Note_on_c, 0, 74, 0
1, 31685, Note_on_c, 0, 72, 52
1, 31716, Note_on_c, 0, 72, 0
1, 31716, Note_on_c, 0, 70, 52
1, 31716, Note_on_c, 0, 39, 0
1, 31748, Note_on_c, 0, 70, 0
1, 31748, Note_on_c, 0, 69, 52
1, 31779, Note_on_c, 0, 69, 0
1, 31779, Note_on_c, 0, 67, 50
1, 31779, Note_on_c, 0, 45, 46
1, 31842, Note_on_c, 0, 67, 0
1, 31842, Note_on_c, 0, 45, 0
1, 31905, Note_on_c, 0, 38, 53
1, 31968, Note_on_c, 0, 38, 0
1, 32030, Note_on_c, 0, 57, 44
1, 32030, Note_on_c, 0, 69, 50
1, 32030, Note_on_c, 0, 64, 44
1, 32033, Note_on_c, 0, 45, 49
1, 32092, Note_on_c, 0, 64, 0
1, 32092, Note_on_c, 0, 69, 0
1, 32092, Note_on_c, 0, 57, 0
1, 32095, Note_on_c, 0, 45, 0
1, 32154, Note_on_c, 0, 74, 50
1, 32154, Note_on_c, 0, 39, 52
1, 32185, Note_on_c, 0, 74, 0
1, 32185, Note_on_c, 0, 72, 50
1, 32217, Note_on_c, 0, 72, 0
1, 32217, Note_on_c, 0, 70, 50
1, 32217, Note_on_c, 0, 39, 0
1, 32248, Note_on_c, 0, 70, 0
1, 32248, Note_on_c, 0, 69, 49
1, 32279, Note_on_c, 0, 69, 0
1, 32279, Note_on_c, 0, 67, 46
1, 32279, Note_on_c, 0, 45, 44
1, 32342, Note_on_c, 0, 67, 0
1, 32342, Note_on_c, 0, 45, 0
1, 32405, Note_on_c, 0, 38, 49
1, 32467, Note_on_c, 0, 38, 0
1, 32529, Note_on_c, 0, 57, 40
1, 32529, Note_on_c, 0, 64, 40
1, 32529, Note_on_c, 0, 69, 46
1, 32532, Note_on_c, 0, 45, 46
1, 32590, Note_on_c, 0, 69, 0
1, 32590, Note_on_c, 0, 64, 0
1, 32590, Note_on_c, 0, 57, 0
1, 32593, Note_on_c, 0, 45, 0
1, 32653, Note_on_c, 0, 74, 47
1, 32653, Note_on_c, 0, 39, 47
1, 32684, Note_on_c, 0, 74, 0
1, 32684, Note_on_c, 0, 72, 47
1, 32715, Note_on_c, 0, 72, 0
1, 32715, Note_on_c, 0, 70, 47
1, 32715, Note_on_c, 0, 39, 0
1, 32746, Note_on_c, 0, 70, 0
1, 32746, Note_on_c, 0, 69, 47
1, 32778, Note_on_c, 0, 69, 0
1, 32778, Note_on_c, 0, 67, 45
1, 32778, Note_on_c, 0, 45, 42
1, 32840, Note_on_c, 0, 67, 0
1, 32840, Note_on_c, 0, 45, 0
1, 32903, Note_on_c, 0, 38, 51
1, 32971, Note_on_c, 0, 38, 0
1, 33040, Note_on_c, 0, 45, 49
1, 33108, Note_on_c, 0, 45, 0
1, 33177, Note_on_c, 0, 38, 51
1, 33245, Note_on_c, 0, 38, 0
1, 33313, Note_on_c, 0, 50, 56
1, 33313, Note_on_c, 0, 45, 49
1, 33346, Note_on_c, 0, 50, 0
1, 33346, Note_on_c, 0, 52, 56
1, 33379, Note_on_c, 0, 52, 0
1, 33379, Note_on_c, 0, 53, 56
1, 33379, Note_on_c, 0, 45, 0
1, 33412, Note_on_c, 0, 53, 0
1, 33412, Note_on_c, 0, 55, 56
1, 33445, Note_on_c, 0, 55, 0
1, 33445, Note_on_c, 0, 57, 60
1, 33445, Note_on_c, 0, 38, 51
1, 33513, Note_on_c, 0, 57, 0
1, 33513, Note_on_c, 0, 38, 0
1, 33581, Note_on_c, 0, 53, 46
1, 33581, Note_on_c, 0, 50, 46
1, 33581, Note_on_c, 0, 62, 53
1, 33584, Note_on_c, 0, 45, 49
1, 33649, Note_on_c, 0, 62, 0
1, 33649, Note_on_c, 0, 50, 0
1, 33649, Note_on_c, 0, 53, 0
1, 33652, Note_on_c, 0, 45, 0
1, 33716, Note_on_c, 0, 50, 46
1, 33716, Note_on_c, 0, 53, 46
1, 33716, Note_on_c, 0, 62, 53
1, 33719, Note_on_c, 0, 38, 51
1, 33784, Note_on_c, 0, 62, 0
1, 33784, Note_on_c, 0, 53, 0
1, 33784, Note_on_c, 0, 50, 0
1, 33787, Note_on_c, 0, 38, 0
1, 33851, Note_on_c, 0, 50, 46
1, 33851, Note_on_c, 0, 61, 53
1, 33851, Note_on_c, 0, 53, 46
1, 33854, Note_on_c, 0, 45, 49
1, 33918, Note_on_c, 0, 53, 0
1, 33918, Note_on_c, 0, 61, 0
1, 33918, Note_on_c, 0, 50, 0
1, 33921, Note_on_c, 0, 45, 0
1, 33985, Note_on_c, 0, 50, 49
1, 33985, Note_on_c, 0, 61, 56
1, 33985, Note_on_c, 0, 53, 49
1, 33988, Note_on_c, 0, 38, 51
1, 34053, Note_on_c, 0, 53, 0
1, 34053, Note_on_c, 0, 61, 0
1, 34053, Note_on_c, 0, 50, 0
1, 34056, Note_on_c, 0, 38, 0
1, 34120, Note_on_c, 0, 53, 46
1, 34120, Note_on_c, 0, 50, 46
1, 34120, Note_on_c, 0, 60, 53
1, 34123, Note_on_c, 0, 45, 49
1, 34186, Note_on_c, 0, 60, 0
1, 34186, Note_on_c, 0, 50, 0
1, 34186, Note_on_c, 0, 53, 0
1, 34189, Note_on_c, 0, 45, 0
1, 34252, Note_on_c, 0, 53, 46
1, 34252, Note_on_c, 0, 50, 46
1, 34252, Note_on_c, 0, 60, 53
1, 34255, Note_on_c, 0, 38, 51
1, 34319, Note_on_c, 0, 60, 0
1, 34319, Note_on_c, 0, 50, 0
1, 34319, Note_on_c, 0, 53, 0
1, 34322, Note_on_c, 0, 38, 0
1, 34386, Note_on_c, 0, 50, 46
1, 34386, Note_on_c, 0, 53, 46
1, 34386, Note_on_c, 0, 59, 53
1, 34389, Note_on_c, 0, 45, 49
1, 34451, Note_on_c, 0, 59, 0
1, 34451, Note_on_c, 0, 53, 0
1, 34451, Note_on_c, 0, 50, 0
1, 34454, Note_on_c, 0, 45, 0
1, 34516, Note_on_c, 0, 50, 49
1, 34516, Note_on_c, 0, 59, 56
1, 34516, Note_on_c, 0, 53, 49
1, 34519, Note_on_c, 0, 38, 51
1, 34582, Note_on_c, 0, 53, 0
1, 34582, Note_on_c, 0, 59, 0
1, 34582, Note_on_c, 0, 50, 0
1, 34585, Note_on_c, 0, 38, 0
1, 34649, Note_on_c, 0, 50, 45
1, 34649, Note_on_c, 0, 58, 52
1, 34649, Note_on_c, 0, 53, 45
1, 34652, Note_on_c, 0, 45, 47
1, 34715, Note_on_c, 0, 53, 0
1, 34715, Note_on_c, 0, 58, 0
1, 34715, Note_on_c, 0, 50, 0
1, 34718, Note_on_c, 0, 45, 0
1, 34781, Note_on_c, 0, 53, 45
1, 34781, Note_on_c, 0, 50, 45
1, 34781, Note_on_c, 0, 58, 52
1, 34784, Note_on_c, 0, 38, 51
1, 34849, Note_on_c, 0, 58, 0
1, 34849, Note_on_c, 0, 50, 0
1, 34849, Note_on_c, 0, 53, 0
1, 34852, Note_on_c, 0, 38, 0
1, 34916, Note_on_c, 0, 53, 44
1, 34916, Note_on_c, 0, 57, 51
1, 34916, Note_on_c, 0, 50, 44
1, 34919, Note_on_c, 0, 45, 47
1, 34983, Note_on_c, 0, 45, 0
1, 35049, Note_on_c, 0, 38, 53
1, 35115, Note_on_c, 0, 38, 0
1, 35182, Note_on_c, 0, 45, 50
1, 35248, Note_on_c, 0, 45, 0
1, 35314, Note_on_c, 0, 38, 53
1, 35380, Note_on_c, 0, 38, 0
1, 35447, Note_on_c, 0, 45, 51
1, 35513, Note_on_c, 0, 45, 0
1, 35579, Note_on_c, 0, 50, 0
1, 35579, Note_on_c, 0, 57, 0
1, 35579, Note_on_c, 0, 53, 0
1, 35582, Note_on_c, 0, 38, 52
1, 35645, Note_on_c, 0, 38, 0
1, 35711, Note_on_c, 0, 45, 50
1, 35778, Note_on_c, 0, 45, 0
1, 35845, Note_on_c, 0, 50, 52
1, 35911, Note_on_c, 0, 50, 0
1, 35978, Note_on_c, 0, 57, 50
1, 36046, Note_on_c, 0, 57, 0
1, 36113, Note_on_c, 0, 62, 50
1, 36181, Note_on_c, 0, 62, 0
1, 36249, Note_on_c, 0, 69, 49
1, 36319, Note_on_c, 0, 69, 0
1, 36389, Note_on_c, 0, 74, 46
1, 36464, Note_on_c, 0, 74, 0
1, 36545, Note_on_c, 0, 81, 52
1, 36581, Control_c, 0, 64, 127
1, 37462, Control_c, 0, 91, 127
1, 37462, Note_on_c, 0, 74, 37
1, 37462, Note_on_c, 0, 78, 37
1, 37465, Control_c, 0, 91, 127
1, 37465, Note_on_c, 0, 62, 37
1, 37465, Note_on_c, 0, 69, 37
1, 37867, Note_on_c, 0, 81, 0
1, 37867, Note_on_c, 0, 83, 58
1, 37877, Control_c, 0, 64, 0
1, 38069, Note_on_c, 0, 83, 0
1, 38069, Note_on_c, 0, 85, 58
1, 38094, Control_c, 0, 64, 127
1, 38281, Note_on_c, 0, 85, 0
1, 38281, Note_on_c, 0, 78, 0
1, 38281, Note_on_c, 0, 74, 0
1, 38284, Note_on_c, 0, 74, 37
1, 38284, Note_on_c, 0, 86, 62
1, 38284, Note_on_c, 0, 69, 0
1, 38287, Note_on_c, 0, 62, 0
1, 38287, Control_c, 0, 64, 0
1, 38287, Note_on_c, 0, 66, 37
1, 38290, Note_on_c, 0, 71, 37
1, 38290, Note_on_c, 0, 59, 37
1, 38432, Control_c, 0, 64, 127
1, 38677, Note_on_c, 0, 86, 0
1, 38677, Note_on_c, 0, 85, 58
1, 38875, Note_on_c, 0, 85, 0
1, 38875, Note_on_c, 0, 83, 58
1, 39080, Note_on_c, 0, 83, 0
1, 39080, Note_on_c, 0, 74, 0
1, 39080, Note_on_c, 0, 74, 36
1, 39083, Note_on_c, 0, 78, 36
1, 39083, Note_on_c, 0, 85, 60
1, 39083, Note_on_c, 0, 59, 0
1, 39086, Note_on_c, 0, 71, 0
1, 39086, Note_on_c, 0, 66, 0
1, 39086, Note_on_c, 0, 62, 37
1, 39089, Note_on_c, 0, 69, 37
1, 39089, Control_c, 0, 64, 0
1, 39151, Control_c, 0, 64, 127
1, 39279, Note_on_c, 0, 85, 0
1, 39279, Note_on_c, 0, 81, 58
1, 39677, Note_on_c, 0, 81, 0
1, 39677, Note_on_c, 0, 85, 56
1, 39830, Note_on_c, 0, 85, 0
1, 39830, Note_on_c, 0, 85, 49
1, 39882, Note_on_c, 0, 85, 0
1, 39882, Note_on_c, 0, 78, 0
1, 39882, Note_on_c, 0, 74, 0
1, 39885, Note_on_c, 0, 74, 33
1, 39885, Note_on_c, 0, 78, 52
1, 39885, Note_on_c, 0, 69, 0
1, 39888, Note_on_c, 0, 62, 0
1, 39888, Note_on_c, 0, 71, 33
1, 39888, Note_on_c, 0, 59, 33
1, 39891, Note_on_c, 0, 66, 33
1, 39891, Control_c, 0, 64, 0
1, 40126, Control_c, 0, 64, 127
1, 40680, Note_on_c, 0, 78, 0
1, 40680, Note_on_c, 0, 74, 0
1, 40680, Note_on_c, 0, 81, 58
1, 40683, Control_c, 0, 91, 127
1, 40683, Note_on_c, 0, 74, 37
1, 40683, Note_on_c, 0, 78, 37
1, 40686, Note_on_c, 0, 66, 0
1, 40686, Note_on_c, 0, 59, 0
1, 40686, Note_on_c, 0, 71, 0
1, 40689, Note_on_c, 0, 62, 46
1, 40689, Control_c, 0, 91, 127
1, 40689, Note_on_c, 0, 69, 37
1, 40692, Control_c, 0, 64, 0
1, 40786, Control_c, 0, 64, 127
1, 41078, Note_on_c, 0, 81, 0
1, 41078, Note_on_c, 0, 83, 58
1, 41078, Note_on_c, 0, 62, 0
1, 41081, Note_on_c, 0, 61, 46
1, 41088, Control_c, 0, 64, 0
1, 41195, Control_c, 0, 64, 127
1, 41277, Note_on_c, 0, 83, 0
1, 41277, Note_on_c, 0, 85, 58
1, 41481, Note_on_c, 0, 85, 0
1, 41481, Note_on_c, 0, 78, 0
1, 41481, Note_on_c, 0, 74, 0
1, 41484, Note_on_c, 0, 74, 37
1, 41484, Note_on_c, 0, 86, 62
1, 41484, Note_on_c, 0, 61, 0
1, 41487, Note_on_c, 0, 69, 0
1, 41487, Note_on_c, 0, 71, 37
1, 41487, Note_on_c, 0, 66, 47
1, 41490, Note_on_c, 0, 59, 37
1, 41490, Control_c, 0, 64, 0
1, 41598, Control_c, 0, 64, 127
1, 41879, Note_on_c, 0, 86, 0
1, 41879, Note_on_c, 0, 85, 58
1, 41879, Note_on_c, 0, 66, 0
1, 41882, Note_on_c, 0, 65, 45
1, 41889, Control_c, 0, 64, 0
1, 42077, Note_on_c, 0, 85, 0
1, 42077, Note_on_c, 0, 83, 58
1, 42077, Control_c, 0, 64, 127
1, 42280, Note_on_c, 0, 83, 0
1, 42280, Note_on_c, 0, 74, 0
1, 42280, Note_on_c, 0, 74, 36
1, 42283, Note_on_c, 0, 85, 60
1, 42283, Note_on_c, 0, 65, 0
1, 42283, Note_on_c, 0, 59, 0
1, 42286, Note_on_c, 0, 71, 0
1, 42286, Note_on_c, 0, 69, 50
1, 42286, Note_on_c, 0, 64, 37
1, 42289, Control_c, 0, 64, 0
1, 42333, Control_c, 0, 64, 127
1, 42478, Note_on_c, 0, 85, 0
1, 42478, Note_on_c, 0, 81, 58
1, 42677, Note_on_c, 0, 69, 0
1, 42677, Note_on_c, 0, 68, 47
1, 42685, Control_c, 0, 64, 0
1, 42788, Control_c, 0, 64, 127
1, 42878, Note_on_c, 0, 81, 0
1, 42878, Note_on_c, 0, 85, 56
1, 43027, Note_on_c, 0, 85, 0
1, 43027, Note_on_c, 0, 85, 49
1, 43077, Note_on_c, 0, 85, 0
1, 43077, Note_on_c, 0, 74, 0
1, 43077, Note_on_c, 0, 73, 33
1, 43080, Note_on_c, 0, 81, 52
1, 43080, Note_on_c, 0, 68, 0
1, 43080, Note_on_c, 0, 64, 0
1, 43083, Note_on_c, 0, 64, 45
1, 43083, Note_on_c, 0, 69, 33
1, 43083, Note_on_c, 0, 57, 33
1, 43086, Control_c, 0, 64, 0
1, 43236, Control_c, 0, 64, 127
1, 43471, Note_on_c, 0, 64, 0
1, 43471, Note_on_c, 0, 65, 43
1, 43481, Control_c, 0, 64, 0
1, 43715, Control_c, 0, 64, 127
1, 43864, Note_on_c, 0, 69, 0
1, 43864, Note_on_c, 0, 81, 0
1, 43864, Note_on_c, 0, 73, 0
1, 43864, Control_c, 0, 91, 127
1, 43864, Note_on_c, 0, 69, 52
1, 43864, Note_on_c, 0, 65, 0
1, 43864, Note_on_c, 0, 57, 0
1, 43864, Control_c, 0, 91, 127
1, 43867, Control_c, 0, 64, 0
1, 44005, Control_c, 0, 64, 127
1, 44063, Note_on_c, 0, 62, 37
1, 44063, Note_on_c, 0, 66, 37
1, 44063, Note_on_c, 0, 57, 37
1, 44066, Note_on_c, 0, 50, 31
1, 44261, Note_on_c, 0, 69, 0
1, 44261, Note_on_c, 0, 71, 52
1, 44270, Control_c, 0, 64, 0
1, 44400, Control_c, 0, 64, 127
1, 44458, Note_on_c, 0, 71, 0
1, 44458, Note_on_c, 0, 73, 52
1, 44659, Note_on_c, 0, 73, 0
1, 44659, Note_on_c, 0, 66, 0
1, 44659, Note_on_c, 0, 62, 0
1, 44662, Note_on_c, 0, 74, 57
1, 44662, Note_on_c, 0, 50, 0
1, 44662, Note_on_c, 0, 57, 0
1, 44665, Control_c, 0, 64, 0
1, 44728, Control_c, 0, 64, 127
1, 44857, Note_on_c, 0, 62, 37
1, 44857, Note_on_c, 0, 47, 31
1, 44857, Note_on_c, 0, 59, 37
1, 44860, Note_on_c, 0, 54, 31
1, 45055, Note_on_c, 0, 74, 0
1, 45055, Note_on_c, 0, 73, 52
1, 45065, Control_c, 0, 64, 0
1, 45206, Control_c, 0, 64, 127
1, 45253, Note_on_c, 0, 73, 0
1, 45253, Note_on_c, 0, 71, 52
1, 45456, Note_on_c, 0, 71, 0
1, 45456, Note_on_c, 0, 62, 0
1, 45456, Note_on_c, 0, 73, 54
1, 45459, Note_on_c, 0, 54, 0
1, 45459, Note_on_c, 0, 59, 0
1, 45459, Note_on_c, 0, 47, 0
1, 45462, Control_c, 0, 64, 0
1, 45511, Control_c, 0, 64, 127
1, 45652, Note_on_c, 0, 73, 0
1, 45652, Note_on_c, 0, 66, 36
1, 45652, Note_on_c, 0, 62, 36
1, 45655, Note_on_c, 0, 57, 37
1, 45655, Note_on_c, 0, 50, 31
1, 45850, Note_on_c, 0, 69, 52
1, 46048, Note_on_c, 0, 69, 0
1, 46048, Note_on_c, 0, 73, 51
1, 46201, Note_on_c, 0, 73, 0
1, 46201, Note_on_c, 0, 73, 44
1, 46252, Note_on_c, 0, 73, 0
1, 46252, Note_on_c, 0, 62, 0
1, 46252, Note_on_c, 0, 66, 0
1, 46255, Note_on_c, 0, 66, 47
1, 46255, Note_on_c, 0, 50, 0
1, 46255, Note_on_c, 0, 57, 0
1, 46255, Control_c, 0, 64, 0
1, 46451, Note_on_c, 0, 62, 33
1, 46451, Note_on_c, 0, 59, 33
1, 46451, Note_on_c, 0, 47, 28
1, 46454, Note_on_c, 0, 54, 28
1, 46486, Control_c, 0, 64, 127
1, 47047, Note_on_c, 0, 62, 0
1, 47047, Note_on_c, 0, 66, 0
1, 47047, Note_on_c, 0, 69, 52
1, 47050, Control_c, 0, 91, 127
1, 47050, Note_on_c, 0, 54, 0
1, 47050, Note_on_c, 0, 47, 0
1, 47053, Note_on_c, 0, 59, 0
1, 47053, Control_c, 0, 91, 127
1, 47053, Control_c, 0, 64, 0
1, 47164, Control_c, 0, 64, 127
1, 47246, Note_on_c, 0, 62, 37
1, 47246, Note_on_c, 0, 66, 37
1, 47246, Note_on_c, 0, 57, 37
1, 47249, Note_on_c, 0, 50, 45
1, 47445, Note_on_c, 0, 69, 0
1, 47445, Note_on_c, 0, 71, 52
1, 47455, Control_c, 0, 64, 0
1, 47595, Control_c, 0, 64, 127
1, 47641, Note_on_c, 0, 71, 0
1, 47641, Note_on_c, 0, 73, 52
1, 47641, Note_on_c, 0, 50, 0
1, 47644, Note_on_c, 0, 49, 44
1, 47843, Note_on_c, 0, 73, 0
1, 47843, Note_on_c, 0, 66, 0
1, 47843, Note_on_c, 0, 62, 0
1, 47846, Note_on_c, 0, 74, 57
1, 47846, Note_on_c, 0, 49, 0
1, 47846, Note_on_c, 0, 57, 0
1, 47849, Control_c, 0, 64, 0
1, 47965, Control_c, 0, 64, 127
1, 48041, Note_on_c, 0, 62, 37
1, 48041, Note_on_c, 0, 47, 41
1, 48041, Note_on_c, 0, 59, 41
1, 48044, Note_on_c, 0, 54, 49
1, 48240, Note_on_c, 0, 74, 0
1, 48240, Note_on_c, 0, 73, 54
1, 48250, Control_c, 0, 64, 0
1, 48363, Control_c, 0, 64, 127
1, 48439, Note_on_c, 0, 73, 0
1, 48439, Note_on_c, 0, 71, 56
1, 48439, Note_on_c, 0, 54, 0
1, 48442, Note_on_c, 0, 53, 45
1, 48643, Note_on_c, 0, 71, 0
1, 48643, Note_on_c, 0, 62, 0
1, 48643, Note_on_c, 0, 73, 61
1, 48646, Note_on_c, 0, 53, 0
1, 48646, Note_on_c, 0, 59, 0
1, 48646, Note_on_c, 0, 47, 0
1, 48649, Control_c, 0, 64, 0
1, 48716, Control_c, 0, 64, 127
1, 48792, Note_on_c, 0, 40, 37
1, 48841, Note_on_c, 0, 62, 45
1, 48841, Note_on_c, 0, 57, 45
1, 49042, Note_on_c, 0, 73, 0
1, 49042, Note_on_c, 0, 66, 52
1, 49245, Note_on_c, 0, 66, 0
1, 49245, Note_on_c, 0, 73, 51
1, 49245, Note_on_c, 0, 57, 0
1, 49248, Note_on_c, 0, 56, 44
1, 49402, Note_on_c, 0, 73, 0
1, 49402, Note_on_c, 0, 73, 44
1, 49455, Note_on_c, 0, 73, 0
1, 49455, Note_on_c, 0, 62, 0
1, 49455, Note_on_c, 0, 69, 47
1, 49458, Note_on_c, 0, 56, 0
1, 49458, Note_on_c, 0, 40, 0
1, 49458, Control_c, 0, 64, 0
1, 49660, Note_on_c, 0, 61, 33
1, 49660, Note_on_c, 0, 52, 28
1, 49660, Note_on_c, 0, 57, 33
1, 49663, Note_on_c, 0, 45, 28
1, 49684, Control_c, 0, 64, 127
1, 50275, Note_on_c, 0, 61, 0
1, 50275, Note_on_c, 0, 69, 0
1, 50275, Note_on_c, 0, 45, 0
1, 50278, Note_on_c, 0, 57, 0
1, 50278, Note_on_c, 0, 52, 0
1, 50278, Control_c, 0, 64, 0
1, 50281, Note_on_c, 0, 57, 45
1, 50306, Control_c, 0, 64, 127
1, 50338, Note_on_c, 0, 57, 0
1, 50338, Note_on_c, 0, 67, 45
1, 50402, Note_on_c, 0, 67, 0
1, 50402, Note_on_c, 0, 73, 45
1, 50465, Note_on_c, 0, 76, 45
1, 50465, Note_on_c, 0, 73, 0
1, 50528, Note_on_c, 0, 76, 0
1, 50528, Note_on_c, 0, 79, 45
1, 50591, Note_on_c, 0, 79, 0
1, 50591, Note_on_c, 0, 88, 45
1, 50654, Note_on_c, 0, 88, 0
1, 50654, Note_on_c, 0, 83, 51
1, 50654, Note_on_c, 0, 79, 50
1, 51033, Note_on_c, 0, 83, 0
1, 51033, Note_on_c, 0, 79, 0
1, 51033, Note_on_c, 0, 57, 45
1, 51097, Note_on_c, 0, 57, 0
1, 51097, Note_on_c, 0, 67, 45
1, 51160, Note_on_c, 0, 67, 0
1, 51160, Note_on_c, 0, 73, 45
1, 51223, Note_on_c, 0, 76, 45
1, 51223, Note_on_c, 0, 73, 0
1, 51286, Note_on_c, 0, 76, 0
1, 51286, Note_on_c, 0, 79, 45
1, 51349, Note_on_c, 0, 79, 0
1, 51349, Note_on_c, 0, 88, 45
1, 51413, Note_on_c, 0, 88, 0
1, 51413, Note_on_c, 0, 83, 51
1, 51413, Note_on_c, 0, 79, 50
1, 51792, Note_on_c, 0, 83, 0
1, 51792, Note_on_c, 0, 79, 0
1, 51792, Note_on_c, 0, 57, 50
1, 51880, Note_on_c, 0, 57, 0
1, 51968, Note_on_c, 0, 67, 50
1, 51968, Note_on_c, 0, 64, 50
1, 52056, Note_on_c, 0, 67, 0
1, 52056, Note_on_c, 0, 73, 46
1, 52056, Note_on_c, 0, 64, 0
1, 52143, Note_on_c, 0, 73, 0
1, 52143, Note_on_c, 0, 71, 50
1, 52143, Note_on_c, 0, 67, 49
1, 52230, Note_on_c, 0, 71, 0
1, 52230, Note_on_c, 0, 76, 46
1, 52230, Note_on_c, 0, 67, 0
1, 52317, Note_on_c, 0, 76, 0
1, 52317, Note_on_c, 0, 74, 50
1, 52317, Note_on_c, 0, 71, 49
1, 52404, Note_on_c, 0, 74, 0
1, 52404, Note_on_c, 0, 79, 46
1, 52404, Note_on_c, 0, 71, 0
1, 52490, Note_on_c, 0, 79, 0
1, 52490, Note_on_c, 0, 76, 49
1, 52490, Note_on_c, 0, 73, 47
1, 52576, Note_on_c, 0, 76, 0
1, 52576, Note_on_c, 0, 81, 46
1, 52576, Note_on_c, 0, 73, 0
1, 52662, Note_on_c, 0, 81, 0
1, 52662, Note_on_c, 0, 79, 49
1, 52662, Note_on_c, 0, 76, 46
1, 52748, Note_on_c, 0, 79, 0
1, 52748, Note_on_c, 0, 85, 45
1, 52748, Note_on_c, 0, 76, 0
1, 52833, Note_on_c, 0, 85, 0
1, 52833, Note_on_c, 0, 83, 49
1, 52833, Note_on_c, 0, 79, 46
1, 52919, Note_on_c, 0, 83, 0
1, 52919, Note_on_c, 0, 88, 46
1, 52919, Note_on_c, 0, 79, 0
1, 53006, Note_on_c, 0, 88, 0
1, 53072, Control_c, 0, 64, 0
1, 53179, Control_c, 0, 64, 127
1, 53179, Note_on_c, 0, 53, 45
1, 53242, Note_on_c, 0, 53, 0
1, 53242, Note_on_c, 0, 63, 45
1, 53305, Note_on_c, 0, 63, 0
1, 53305, Note_on_c, 0, 69, 45
1, 53368, Note_on_c, 0, 72, 45
1, 53368, Note_on_c, 0, 69, 0
1, 53429, Note_on_c, 0, 75, 45
1, 53432, Note_on_c, 0, 72, 0
1, 53493, Note_on_c, 0, 75, 0
1, 53493, Note_on_c, 0, 84, 45
1, 53558, Note_on_c, 0, 84, 0
1, 53558, Note_on_c, 0, 79, 50
1, 53558, Note_on_c, 0, 75, 49
1, 53938, Note_on_c, 0, 79, 0
1, 53938, Note_on_c, 0, 75, 0
1, 53938, Note_on_c, 0, 53, 45
1, 54001, Note_on_c, 0, 53, 0
1, 54001, Note_on_c, 0, 63, 45
1, 54064, Note_on_c, 0, 63, 0
1, 54064, Note_on_c, 0, 69, 45
1, 54127, Note_on_c, 0, 72, 45
1, 54127, Note_on_c, 0, 69, 0
1, 54191, Note_on_c, 0, 72, 0
1, 54191, Note_on_c, 0, 75, 45
1, 54254, Note_on_c, 0, 75, 0
1, 54254, Note_on_c, 0, 84, 45
1, 54317, Note_on_c, 0, 84, 0
1, 54317, Note_on_c, 0, 79, 50
1, 54317, Note_on_c, 0, 75, 51
1, 54697, Note_on_c, 0, 79, 0
1, 54697, Note_on_c, 0, 75, 0
1, 54697, Note_on_c, 0, 53, 50
1, 54784, Note_on_c, 0, 53, 0
1, 54870, Note_on_c, 0, 63, 50
1, 54870, Note_on_c, 0, 60, 50
1, 54957, Note_on_c, 0, 63, 0
1, 54957, Note_on_c, 0, 69, 46
1, 54957, Note_on_c, 0, 60, 0
1, 55043, Note_on_c, 0, 69, 0
1, 55043, Note_on_c, 0, 67, 50
1, 55043, Note_on_c, 0, 63, 49
1, 55129, Note_on_c, 0, 67, 0
1, 55129, Note_on_c, 0, 72, 46
1, 55129, Note_on_c, 0, 63, 0
1, 55215, Note_on_c, 0, 72, 0
1, 55215, Note_on_c, 0, 70, 50
1, 55215, Note_on_c, 0, 67, 49
1, 55301, Note_on_c, 0, 70, 0
1, 55301, Note_on_c, 0, 75, 46
1, 55301, Note_on_c, 0, 67, 0
1, 55386, Note_on_c, 0, 75, 0
1, 55386, Note_on_c, 0, 72, 49
1, 55386, Note_on_c, 0, 69, 47
1, 55471, Note_on_c, 0, 72, 0
1, 55471, Note_on_c, 0, 77, 46
1, 55471, Note_on_c, 0, 69, 0
1, 55557, Note_on_c, 0, 77, 0
1, 55557, Note_on_c, 0, 75, 49
1, 55557, Note_on_c, 0, 72, 46
1, 55641, Note_on_c, 0, 75, 0
1, 55641, Note_on_c, 0, 81, 45
1, 55641, Note_on_c, 0, 72, 0
1, 55726, Note_on_c, 0, 81, 0
1, 55726, Note_on_c, 0, 79, 49
1, 55726, Note_on_c, 0, 75, 46
1, 55812, Note_on_c, 0, 79, 0
1, 55812, Note_on_c, 0, 84, 46
1, 55812, Note_on_c, 0, 75, 0
1, 55899, Note_on_c, 0, 84, 0
1, 55965, Control_c, 0, 64, 0
1, 56072, Note_on_c, 0, 50, 43
1, 56072, Control_c, 0, 64, 127
1, 56157, Note_on_c, 0, 50, 0
1, 56243, Note_on_c, 0, 60, 43
1, 56243, Note_on_c, 0, 57, 43
1, 56329, Note_on_c, 0, 60, 0
1, 56329, Note_on_c, 0, 66, 41
1, 56329, Note_on_c, 0, 57, 0
1, 56414, Note_on_c, 0, 66, 0
1, 56414, Note_on_c, 0, 64, 43
1, 56414, Note_on_c, 0, 60, 42
1, 56500, Note_on_c, 0, 64, 0
1, 56500, Note_on_c, 0, 69, 41
1, 56500, Note_on_c, 0, 60, 0
1, 56585, Note_on_c, 0, 69, 0
1, 56585, Note_on_c, 0, 67, 43
1, 56585, Note_on_c, 0, 64, 42
1, 56671, Note_on_c, 0, 67, 0
1, 56671, Note_on_c, 0, 72, 41
1, 56671, Note_on_c, 0, 64, 0
1, 56756, Note_on_c, 0, 72, 0
1, 56756, Note_on_c, 0, 69, 42
1, 56756, Note_on_c, 0, 66, 41
1, 56841, Note_on_c, 0, 69, 0
1, 56841, Note_on_c, 0, 74, 39
1, 56841, Note_on_c, 0, 66, 0
1, 56927, Note_on_c, 0, 74, 0
1, 56927, Note_on_c, 0, 72, 41
1, 56927, Note_on_c, 0, 69, 39
1, 57013, Note_on_c, 0, 72, 0
1, 57013, Note_on_c, 0, 78, 37
1, 57013, Note_on_c, 0, 69, 0
1, 57099, Note_on_c, 0, 78, 0
1, 57099, Note_on_c, 0, 76, 39
1, 57099, Note_on_c, 0, 72, 38
1, 57185, Note_on_c, 0, 76, 0
1, 57185, Note_on_c, 0, 81, 35
1, 57185, Note_on_c, 0, 72, 0
1, 57272, Note_on_c, 0, 81, 0
1, 57775, Control_c, 0, 64, 0
1, 58583, Control_c, 0, 91, 127
1, 58583, Note_on_c, 0, 79, 34
1, 58583, Note_on_c, 0, 83, 34
1, 58586, Note_on_c, 0, 86, 54
1, 58586, Control_c, 0, 91, 127
1, 58586, Note_on_c, 0, 74, 34
1, 58589, Note_on_c, 0, 67, 34
1, 58654, Control_c, 0, 64, 127
1, 58991, Note_on_c, 0, 86, 0
1, 58991, Note_on_c, 0, 88, 52
1, 59197, Note_on_c, 0, 88, 0
1, 59197, Note_on_c, 0, 90, 52
1, 59408, Note_on_c, 0, 90, 0
1, 59408, Note_on_c, 0, 83, 0
1, 59408, Note_on_c, 0, 79, 0
1, 59411, Note_on_c, 0, 79, 34
1, 59411, Note_on_c, 0, 91, 57
1, 59411, Note_on_c, 0, 67, 0
1, 59414, Note_on_c, 0, 74, 0
1, 59414, Control_c, 0, 64, 0
1, 59414, Note_on_c, 0, 76, 34
1, 59417, Note_on_c, 0, 71, 34
1, 59417, Note_on_c, 0, 64, 34
1, 59491, Control_c, 0, 64, 127
1, 59809, Note_on_c, 0, 91, 0
1, 59809, Note_on_c, 0, 90, 52
1, 60010, Note_on_c, 0, 90, 0
1, 60010, Note_on_c, 0, 88, 52
1, 60215, Note_on_c, 0, 88, 0
1, 60215, Note_on_c, 0, 79, 0
1, 60215, Note_on_c, 0, 79, 33
1, 60218, Note_on_c, 0, 83, 33
1, 60218, Note_on_c, 0, 90, 54
1, 60218, Note_on_c, 0, 64, 0
1, 60221, Note_on_c, 0, 71, 0
1, 60221, Note_on_c, 0, 76, 0
1, 60221, Note_on_c, 0, 67, 34
1, 60224, Note_on_c, 0, 74, 34
1, 60224, Control_c, 0, 64, 0
1, 60291, Control_c, 0, 64, 127
1, 60414, Note_on_c, 0, 90, 0
1, 60414, Note_on_c, 0, 86, 52
1, 60816, Note_on_c, 0, 86, 0
1, 60816, Note_on_c, 0, 90, 51
1, 60968, Note_on_c, 0, 90, 0
1, 60968, Note_on_c, 0, 90, 44
1, 61019, Note_on_c, 0, 90, 0
1, 61019, Note_on_c, 0, 83, 0
1, 61019, Note_on_c, 0, 79, 0
1, 61022, Note_on_c, 0, 79, 30
1, 61022, Note_on_c, 0, 83, 47
1, 61022, Note_on_c, 0, 74, 0
1, 61025, Note_on_c, 0, 67, 0
1, 61025, Note_on_c, 0, 64, 30
1, 61025, Note_on_c, 0, 71, 30
1, 61028, Note_on_c, 0, 76, 30
1, 61028, Control_c, 0, 64, 0
1, 61286, Control_c, 0, 64, 127
1, 61821, Note_on_c, 0, 83, 0
1, 61821, Note_on_c, 0, 79, 0
1, 61821, Note_on_c, 0, 86, 52
1, 61824, Control_c, 0, 91, 127
1, 61824, Note_on_c, 0, 79, 34
1, 61824, Note_on_c, 0, 83, 34
1, 61827, Note_on_c, 0, 76, 0
1, 61827, Note_on_c, 0, 71, 0
1, 61827, Note_on_c, 0, 64, 0
1, 61830, Note_on_c, 0, 67, 42
1, 61830, Note_on_c, 0, 74, 34
1, 61830, Control_c, 0, 91, 127
1, 61833, Control_c, 0, 64, 0
1, 61916, Control_c, 0, 64, 127
1, 62222, Note_on_c, 0, 86, 0
1, 62222, Note_on_c, 0, 88, 52
1, 62222, Note_on_c, 0, 67, 0
1, 62225, Note_on_c, 0, 66, 42
1, 62423, Note_on_c, 0, 88, 0
1, 62423, Note_on_c, 0, 90, 52
1, 62628, Note_on_c, 0, 90, 0
1, 62628, Note_on_c, 0, 83, 0
1, 62628, Note_on_c, 0, 79, 0
1, 62631, Note_on_c, 0, 79, 34
1, 62631, Note_on_c, 0, 91, 57
1, 62631, Note_on_c, 0, 66, 0
1, 62634, Note_on_c, 0, 74, 0
1, 62634, Note_on_c, 0, 76, 34
1, 62634, Note_on_c, 0, 64, 34
1, 62637, Note_on_c, 0, 71, 43
1, 62637, Control_c, 0, 64, 0
1, 62734, Control_c, 0, 64, 127
1, 63029, Note_on_c, 0, 91, 0
1, 63029, Note_on_c, 0, 90, 52
1, 63029, Note_on_c, 0, 71, 0
1, 63032, Note_on_c, 0, 70, 41
1, 63230, Note_on_c, 0, 90, 0
1, 63230, Note_on_c, 0, 88, 52
1, 63434, Note_on_c, 0, 88, 0
1, 63434, Note_on_c, 0, 79, 0
1, 63434, Note_on_c, 0, 79, 33
1, 63437, Note_on_c, 0, 90, 54
1, 63437, Note_on_c, 0, 70, 0
1, 63437, Note_on_c, 0, 64, 0
1, 63440, Note_on_c, 0, 76, 0
1, 63440, Control_c, 0, 64, 0
1, 63440, Note_on_c, 0, 69, 34
1, 63443, Note_on_c, 0, 74, 45
1, 63478, Control_c, 0, 64, 127
1, 63633, Note_on_c, 0, 90, 0
1, 63633, Note_on_c, 0, 86, 52
1, 63833, Note_on_c, 0, 74, 0
1, 63833, Note_on_c, 0, 73, 43
1, 64032, Note_on_c, 0, 86, 0
1, 64032, Note_on_c, 0, 90, 51
1, 64185, Note_on_c, 0, 90, 0
1, 64185, Note_on_c, 0, 90, 44
1, 64236, Note_on_c, 0, 90, 0
1, 64236, Note_on_c, 0, 79, 0
1, 64236, Note_on_c, 0, 78, 30
1, 64239, Note_on_c, 0, 86, 47
1, 64239, Note_on_c, 0, 73, 0
1, 64239, Note_on_c, 0, 69, 0
1, 64242, Control_c, 0, 64, 0
1, 64242, Note_on_c, 0, 62, 30
1, 64242, Note_on_c, 0, 69, 41
1, 64245, Note_on_c, 0, 74, 30
1, 64312, Control_c, 0, 64, 127
1, 64636, Note_on_c, 0, 69, 0
1, 64636, Note_on_c, 0, 70, 37
1, 64645, Control_c, 0, 64, 0
1, 64864, Control_c, 0, 64, 127
1, 65033, Note_on_c, 0, 74, 0
1, 65033, Note_on_c, 0, 86, 0
1, 65033, Note_on_c, 0, 78, 0
1, 65033, Control_c, 0, 91, 127
1, 65033, Note_on_c, 0, 74, 51
1, 65033, Note_on_c, 0, 70, 0
1, 65033, Note_on_c, 0, 62, 0
1, 65033, Control_c, 0, 91, 127
1, 65038, Control_c, 0, 64, 0
1, 65164, Control_c, 0, 64, 127
1, 65235, Note_on_c, 0, 71, 36
1, 65235, Note_on_c, 0, 67, 36
1, 65235, Note_on_c, 0, 55, 36
1, 65238, Note_on_c, 0, 62, 36
1, 65434, Note_on_c, 0, 74, 0
1, 65434, Note_on_c, 0, 76, 51
1, 65444, Control_c, 0, 64, 0
1, 65585, Control_c, 0, 64, 127
1, 65632, Note_on_c, 0, 76, 0
1, 65632, Note_on_c, 0, 78, 51
1, 65834, Note_on_c, 0, 78, 0
1, 65834, Note_on_c, 0, 67, 0
1, 65834, Note_on_c, 0, 71, 0
1, 65837, Note_on_c, 0, 79, 54
1, 65837, Note_on_c, 0, 62, 0
1, 65837, Note_on_c, 0, 55, 0
1, 65840, Control_c, 0, 64, 0
1, 65892, Control_c, 0, 64, 127
1, 66032, Note_on_c, 0, 67, 36
1, 66032, Note_on_c, 0, 52, 36
1, 66032, Note_on_c, 0, 59, 36
1, 66035, Note_on_c, 0, 64, 36
1, 66230, Note_on_c, 0, 79, 0
1, 66230, Note_on_c, 0, 78, 51
1, 66239, Control_c, 0, 64, 0
1, 66405, Control_c, 0, 64, 127
1, 66428, Note_on_c, 0, 78, 0
1, 66428, Note_on_c, 0, 76, 51
1, 66631, Note_on_c, 0, 76, 0
1, 66631, Note_on_c, 0, 67, 0
1, 66631, Note_on_c, 0, 78, 53
1, 66634, Note_on_c, 0, 64, 0
1, 66634, Note_on_c, 0, 59, 0
1, 66634, Note_on_c, 0, 52, 0
1, 66637, Control_c, 0, 64, 0
1, 66700, Control_c, 0, 64, 127
1, 66829, Note_on_c, 0, 78, 0
1, 66829, Note_on_c, 0, 67, 35
1, 66829, Note_on_c, 0, 71, 35
1, 66832, Note_on_c, 0, 55, 36
1, 66832, Note_on_c, 0, 62, 36
1, 67029, Note_on_c, 0, 74, 51
1, 67230, Note_on_c, 0, 74, 0
1, 67230, Note_on_c, 0, 78, 50
1, 67383, Note_on_c, 0, 78, 0
1, 67383, Note_on_c, 0, 78, 43
1, 67434, Note_on_c, 0, 78, 0
1, 67434, Note_on_c, 0, 71, 0
1, 67434, Note_on_c, 0, 67, 0
1, 67437, Note_on_c, 0, 71, 45
1, 67437, Note_on_c, 0, 62, 0
1, 67437, Note_on_c, 0, 55, 0
1, 67440, Control_c, 0, 64, 0
1, 67611, Control_c, 0, 64, 127
1, 67634, Note_on_c, 0, 67, 31
1, 67634, Note_on_c, 0, 64, 31
1, 67634, Note_on_c, 0, 52, 31
1, 67637, Note_on_c, 0, 59, 31
1, 68233, Note_on_c, 0, 67, 0
1, 68233, Note_on_c, 0, 71, 0
1, 68233, Control_c, 0, 91, 127
1, 68236, Note_on_c, 0, 74, 53
1, 68236, Note_on_c, 0, 59, 0
1, 68236, Note_on_c, 0, 52, 0
1, 68239, Note_on_c, 0, 64, 0
1, 68239, Control_c, 0, 91, 127
1, 68239, Control_c, 0, 64, 0
1, 68385, Control_c, 0, 64, 127
1, 68433, Note_on_c, 0, 67, 36
1, 68433, Note_on_c, 0, 71, 36
1, 68433, Note_on_c, 0, 55, 43
1, 68436, Note_on_c, 0, 62, 36
1, 68632, Note_on_c, 0, 74, 0
1, 68632, Note_on_c, 0, 76, 53
1, 68642, Control_c, 0, 64, 0
1, 68772, Control_c, 0, 64, 127
1, 68830, Note_on_c, 0, 76, 0
1, 68830, Note_on_c, 0, 78, 53
1, 68830, Note_on_c, 0, 55, 0
1, 68833, Note_on_c, 0, 54, 43
1, 69032, Note_on_c, 0, 78, 0
1, 69032, Note_on_c, 0, 71, 0
1, 69032, Note_on_c, 0, 67, 0
1, 69035, Note_on_c, 0, 79, 57
1, 69035, Note_on_c, 0, 54, 0
1, 69035, Note_on_c, 0, 62, 0
1, 69035, Control_c, 0, 64, 0
1, 69135, Control_c, 0, 64, 127
1, 69230, Note_on_c, 0, 67, 36
1, 69230, Note_on_c, 0, 52, 39
1, 69230, Note_on_c, 0, 59, 47
1, 69233, Note_on_c, 0, 64, 39
1, 69429, Note_on_c, 0, 79, 0
1, 69429, Note_on_c, 0, 78, 52
1, 69439, Control_c, 0, 64, 0
1, 69552, Control_c, 0, 64, 127
1, 69628, Note_on_c, 0, 78, 0
1, 69628, Note_on_c, 0, 76, 54
1, 69628, Note_on_c, 0, 59, 0
1, 69631, Note_on_c, 0, 58, 43
1, 69831, Note_on_c, 0, 76, 0
1, 69831, Note_on_c, 0, 67, 0
1, 69831, Note_on_c, 0, 78, 60
1, 69834, Note_on_c, 0, 58, 0
1, 69834, Note_on_c, 0, 64, 0
1, 69834, Note_on_c, 0, 52, 0
1, 69837, Control_c, 0, 64, 0
1, 69895, Control_c, 0, 64, 127
1, 69980, Note_on_c, 0, 45, 36
1, 70030, Note_on_c, 0, 67, 43
1, 70030, Note_on_c, 0, 62, 43
1, 70233, Note_on_c, 0, 78, 0
1, 70233, Note_on_c, 0, 71, 51
1, 70438, Note_on_c, 0, 71, 0
1, 70438, Note_on_c, 0, 78, 50
1, 70438, Note_on_c, 0, 62, 0
1, 70441, Note_on_c, 0, 61, 43
1, 70592, Note_on_c, 0, 78, 0
1, 70592, Note_on_c, 0, 78, 43
1, 70650, Note_on_c, 0, 78, 0
1, 70650, Note_on_c, 0, 67, 0
1, 70650, Note_on_c, 0, 74, 45
1, 70653, Note_on_c, 0, 61, 0
1, 70653, Note_on_c, 0, 45, 0
1, 70653, Control_c, 0, 64, 0
1, 70852, Note_on_c, 0, 66, 31
1, 70852, Note_on_c, 0, 62, 31
1, 70852, Note_on_c, 0, 50, 31
1, 70855, Note_on_c, 0, 57, 31
1, 70899, Control_c, 0, 64, 127
1, 71459, Note_on_c, 0, 66, 0
1, 71459, Note_on_c, 0, 74, 0
1, 71459, Note_on_c, 0, 57, 0
1, 71462, Note_on_c, 0, 50, 0
1, 71462, Note_on_c, 0, 62, 0
1, 71462, Control_c, 0, 64, 0
1, 71465, Note_on_c, 0, 62, 45
1, 71492, Control_c, 0, 64, 127
1, 71518, Note_on_c, 0, 62, 0
1, 71518, Note_on_c, 0, 72, 45
1, 71577, Note_on_c, 0, 72, 0
1, 71577, Note_on_c, 0, 78, 45
1, 71635, Note_on_c, 0, 81, 45
1, 71635, Note_on_c, 0, 78, 0
1, 71694, Note_on_c, 0, 81, 0
1, 71694, Note_on_c, 0, 84, 45
1, 71753, Note_on_c, 0, 84, 0
1, 71753, Note_on_c, 0, 93, 45
1, 71811, Note_on_c, 0, 93, 0
1, 71811, Note_on_c, 0, 88, 51
1, 71811, Note_on_c, 0, 84, 50
1, 72163, Note_on_c, 0, 88, 0
1, 72163, Note_on_c, 0, 84, 0
1, 72163, Control_c, 0, 64, 0
1, 72166, Note_on_c, 0, 62, 50
1, 72240, Control_c, 0, 64, 127
1, 72245, Note_on_c, 0, 62, 0
1, 72327, Note_on_c, 0, 79, 50
1, 72327, Note_on_c, 0, 71, 50
1, 72408, Note_on_c, 0, 79, 0
1, 72408, Note_on_c, 0, 86, 46
1, 72408, Note_on_c, 0, 71, 0
1, 72490, Note_on_c, 0, 86, 0
1, 72490, Note_on_c, 0, 83, 50
1, 72490, Note_on_c, 0, 74, 49
1, 72572, Note_on_c, 0, 83, 0
1, 72572, Note_on_c, 0, 91, 46
1, 72572, Note_on_c, 0, 74, 0
1, 72653, Note_on_c, 0, 91, 0
1, 72653, Note_on_c, 0, 86, 50
1, 72653, Note_on_c, 0, 79, 49
1, 72735, Note_on_c, 0, 86, 0
1, 72735, Note_on_c, 0, 95, 46
1, 72735, Note_on_c, 0, 79, 0
1, 72816, Note_on_c, 0, 95, 0
1, 72816, Note_on_c, 0, 62, 45
1, 72816, Control_c, 0, 64, 0
1, 72857, Control_c, 0, 64, 127
1, 72875, Note_on_c, 0, 62, 0
1, 72875, Note_on_c, 0, 69, 45
1, 72934, Note_on_c, 0, 69, 0
1, 72934, Note_on_c, 0, 73, 45
1, 72992, Note_on_c, 0, 76, 45
1, 72992, Note_on_c, 0, 73, 0
1, 73051, Note_on_c, 0, 76, 0
1, 73051, Note_on_c, 0, 79, 45
1, 73110, Note_on_c, 0, 79, 0
1, 73110, Note_on_c, 0, 88, 45
1, 73168, Note_on_c, 0, 88, 0
1, 73168, Note_on_c, 0, 83, 51
1, 73168, Note_on_c, 0, 79, 50
1, 73521, Note_on_c, 0, 83, 0
1, 73521, Note_on_c, 0, 79, 0
1, 73521, Note_on_c, 0, 62, 50
1, 73526, Control_c, 0, 64, 0
1, 73568, Control_c, 0, 64, 127
1, 73602, Note_on_c, 0, 62, 0
1, 73684, Note_on_c, 0, 78, 50
1, 73684, Note_on_c, 0, 69, 50
1, 73765, Note_on_c, 0, 78, 0
1, 73765, Note_on_c, 0, 86, 46
1, 73765, Note_on_c, 0, 69, 0
1, 73847, Note_on_c, 0, 86, 0
1, 73847, Note_on_c, 0, 81, 50
1, 73847, Note_on_c, 0, 74, 49
1, 73929, Note_on_c, 0, 81, 0
1, 73929, Note_on_c, 0, 90, 46
1, 73929, Note_on_c, 0, 74, 0
1, 74010, Note_on_c, 0, 90, 0
1, 74010, Note_on_c, 0, 86, 50
1, 74010, Note_on_c, 0, 78, 49
1, 74092, Note_on_c, 0, 86, 0
1, 74092, Note_on_c, 0, 93, 46
1, 74092, Note_on_c, 0, 78, 0
1, 74173, Note_on_c, 0, 93, 0
1, 74173, Note_on_c, 0, 50, 45
1, 74176, Control_c, 0, 64, 0
1, 74209, Control_c, 0, 64, 127
1, 74232, Note_on_c, 0, 50, 0
1, 74232, Note_on_c, 0, 60, 45
1, 74291, Note_on_c, 0, 66, 45
1, 74291, Note_on_c, 0, 60, 0
1, 74349, Note_on_c, 0, 69, 45
1, 74349, Note_on_c, 0, 66, 0
1, 74408, Note_on_c, 0, 69, 0
1, 74408, Note_on_c, 0, 72, 45
1, 74467, Note_on_c, 0, 72, 0
1, 74467, Note_on_c, 0, 81, 44
1, 74526, Note_on_c, 0, 81, 0
1, 74526, Note_on_c, 0, 76, 50
1, 74526, Note_on_c, 0, 72, 49
1, 74878, Note_on_c, 0, 76, 0
1, 74878, Note_on_c, 0, 72, 0
1, 74878, Control_c, 0, 64, 0
1, 74881, Note_on_c, 0, 50, 49
1, 74950, Control_c, 0, 64, 127
1, 74959, Note_on_c, 0, 50, 0
1, 75041, Note_on_c, 0, 71, 47
1, 75041, Note_on_c, 0, 59, 47
1, 75122, Note_on_c, 0, 71, 0
1, 75122, Note_on_c, 0, 74, 45
1, 75122, Note_on_c, 0, 59, 0
1, 75204, Note_on_c, 0, 74, 0
1, 75204, Note_on_c, 0, 71, 47
1, 75204, Note_on_c, 0, 62, 46
1, 75286, Note_on_c, 0, 71, 0
1, 75286, Note_on_c, 0, 79, 44
1, 75286, Note_on_c, 0, 62, 0
1, 75367, Note_on_c, 0, 79, 0
1, 75367, Note_on_c, 0, 74, 47
1, 75367, Note_on_c, 0, 67, 46
1, 75449, Note_on_c, 0, 74, 0
1, 75449, Note_on_c, 0, 83, 44
1, 75449, Note_on_c, 0, 67, 0
1, 75531, Note_on_c, 0, 83, 0
1, 75531, Control_c, 0, 64, 0
1, 75531, Note_on_c, 0, 50, 43
1, 75566, Control_c, 0, 64, 127
1, 75589, Note_on_c, 0, 50, 0
1, 75589, Note_on_c, 0, 57, 43
1, 75648, Note_on_c, 0, 57, 0
1, 75648, Note_on_c, 0, 61, 43
1, 75707, Note_on_c, 0, 64, 43
1, 75707, Note_on_c, 0, 61, 0
1, 75765, Note_on_c, 0, 64, 0
1, 75765, Note_on_c, 0, 67, 43
1, 75824, Note_on_c, 0, 67, 0
1, 75824, Note_on_c, 0, 76, 43
1, 75883, Note_on_c, 0, 76, 0
1, 75883, Note_on_c, 0, 71, 49
1, 75883, Note_on_c, 0, 67, 47
1, 76235, Note_on_c, 0, 71, 0
1, 76235, Note_on_c, 0, 67, 0
1, 76235, Control_c, 0, 64, 0
1, 76238, Note_on_c, 0, 50, 45
1, 76312, Control_c, 0, 64, 127
1, 76316, Note_on_c, 0, 50, 0
1, 76398, Note_on_c, 0, 66, 47
1, 76398, Note_on_c, 0, 57, 47
1, 76480, Note_on_c, 0, 66, 0
1, 76480, Note_on_c, 0, 74, 45
1, 76480, Note_on_c, 0, 57, 0
1, 76561, Note_on_c, 0, 74, 0
1, 76561, Note_on_c, 0, 69, 49
1, 76561, Note_on_c, 0, 62, 50
1, 76643, Note_on_c, 0, 69, 0
1, 76643, Note_on_c, 0, 78, 45
1, 76643, Note_on_c, 0, 62, 0
1, 76724, Note_on_c, 0, 78, 0
1, 76724, Note_on_c, 0, 74, 49
1, 76724, Note_on_c, 0, 69, 52
1, 76806, Note_on_c, 0, 74, 0
1, 76806, Note_on_c, 0, 81, 45
1, 76806, Note_on_c, 0, 69, 0
1, 76888, Note_on_c, 0, 81, 0
1, 76888, Control_c, 0, 64, 0
1, 76888, Note_on_c, 0, 74, 56
1, 76958, Note_on_c, 0, 74, 0
1, 77029, Note_on_c, 0, 69, 53
1, 77100, Note_on_c, 0, 69, 0
1, 77170, Note_on_c, 0, 62, 53
1, 77241, Note_on_c, 0, 62, 0
1, 77311, Note_on_c, 0, 69, 53
1, 77382, Note_on_c, 0, 69, 0
1, 77453, Note_on_c, 0, 62, 53
1, 77523, Note_on_c, 0, 62, 0
1, 77594, Note_on_c, 0, 57, 53
1, 77664, Note_on_c, 0, 57, 0
1, 77734, Note_on_c, 0, 62, 52
1, 77804, Note_on_c, 0, 62, 0
1, 77874, Note_on_c, 0, 57, 51
1, 77944, Note_on_c, 0, 57, 0
1, 78014, Note_on_c, 0, 50, 52
1, 78084, Note_on_c, 0, 50, 0
1, 78154, Note_on_c, 0, 57, 50
1, 78224, Note_on_c, 0, 57, 0
1, 78293, Note_on_c, 0, 50, 52
1, 78363, Note_on_c, 0, 50, 0
1, 78432, Note_on_c, 0, 45, 51
1, 78501, Note_on_c, 0, 45, 0
1, 78571, Control_c, 0, 91, 127
1, 78571, Control_c, 0, 91, 127
1, 78571, Note_on_c, 0, 38, 51
1, 78640, Note_on_c, 0, 38, 0
1, 78709, Note_on_c, 0, 45, 49
1, 78778, Note_on_c, 0, 45, 0
1, 78846, Note_on_c, 0, 38, 51
1, 78915, Note_on_c, 0, 38, 0
1, 78983, Note_on_c, 0, 45, 49
1, 79051, Note_on_c, 0, 45, 0
1, 79119, Note_on_c, 0, 38, 51
1, 79187, Note_on_c, 0, 38, 0
1, 79255, Note_on_c, 0, 45, 49
1, 79323, Note_on_c, 0, 45, 0
1, 79391, Note_on_c, 0, 38, 51
1, 79459, Note_on_c, 0, 38, 0
1, 79526, Note_on_c, 0, 62, 56
1, 79526, Note_on_c, 0, 45, 49
1, 79560, Note_on_c, 0, 62, 0
1, 79560, Note_on_c, 0, 64, 56
1, 79593, Note_on_c, 0, 64, 0
1, 79593, Note_on_c, 0, 65, 56
1, 79593, Note_on_c, 0, 45, 0
1, 79626, Note_on_c, 0, 65, 0
1, 79626, Note_on_c, 0, 67, 56
1, 79660, Note_on_c, 0, 67, 0
1, 79660, Note_on_c, 0, 69, 58
1, 79660, Note_on_c, 0, 38, 51
1, 79729, Note_on_c, 0, 69, 0
1, 79729, Note_on_c, 0, 38, 0
1, 79798, Note_on_c, 0, 62, 53
1, 79798, Note_on_c, 0, 65, 53
1, 79798, Note_on_c, 0, 74, 53
1, 79801, Note_on_c, 0, 45, 49
1, 79865, Note_on_c, 0, 74, 0
1, 79865, Note_on_c, 0, 65, 0
1, 79865, Note_on_c, 0, 62, 0
1, 79868, Note_on_c, 0, 45, 0
1, 79933, Note_on_c, 0, 62, 53
1, 79933, Note_on_c, 0, 74, 53
1, 79933, Note_on_c, 0, 65, 53
1, 79936, Note_on_c, 0, 38, 51
1, 80002, Note_on_c, 0, 65, 0
1, 80002, Note_on_c, 0, 74, 0
1, 80002, Note_on_c, 0, 62, 0
1, 80005, Note_on_c, 0, 38, 0
1, 80070, Note_on_c, 0, 62, 53
1, 80070, Note_on_c, 0, 73, 53
1, 80070, Note_on_c, 0, 65, 53
1, 80073, Note_on_c, 0, 45, 49
1, 80138, Note_on_c, 0, 65, 0
1, 80138, Note_on_c, 0, 73, 0
1, 80138, Note_on_c, 0, 62, 0
1, 80141, Note_on_c, 0, 45, 0
1, 80205, Note_on_c, 0, 65, 56
1, 80205, Note_on_c, 0, 73, 56
1, 80205, Note_on_c, 0, 62, 56
1, 80208, Note_on_c, 0, 38, 51
1, 80274, Note_on_c, 0, 62, 0
1, 80274, Note_on_c, 0, 73, 0
1, 80274, Note_on_c, 0, 65, 0
1, 80277, Note_on_c, 0, 38, 0
1, 80342, Note_on_c, 0, 62, 53
1, 80342, Note_on_c, 0, 72, 53
1, 80342, Note_on_c, 0, 65, 53
1, 80345, Note_on_c, 0, 45, 49
1, 80409, Note_on_c, 0, 65, 0
1, 80409, Note_on_c, 0, 72, 0
1, 80409, Note_on_c, 0, 62, 0
1, 80412, Note_on_c, 0, 45, 0
1, 80476, Note_on_c, 0, 65, 53
1, 80476, Note_on_c, 0, 62, 53
1, 80476, Note_on_c, 0, 72, 53
1, 80479, Note_on_c, 0, 38, 51
1, 80543, Note_on_c, 0, 72, 0
1, 80543, Note_on_c, 0, 62, 0
1, 80543, Note_on_c, 0, 65, 0
1, 80546, Note_on_c, 0, 38, 0
1, 80610, Note_on_c, 0, 65, 53
1, 80610, Note_on_c, 0, 62, 53
1, 80610, Note_on_c, 0, 71, 53
1, 80613, Note_on_c, 0, 45, 49
1, 80676, Note_on_c, 0, 71, 0
1, 80676, Note_on_c, 0, 62, 0
1, 80676, Note_on_c, 0, 65, 0
1, 80679, Note_on_c, 0, 45, 0
1, 80742, Note_on_c, 0, 62, 56
1, 80742, Note_on_c, 0, 65, 56
1, 80742, Note_on_c, 0, 71, 56
1, 80745, Note_on_c, 0, 38, 51
1, 80809, Note_on_c, 0, 71, 0
1, 80809, Note_on_c, 0, 65, 0
1, 80809, Note_on_c, 0, 62, 0
1, 80812, Note_on_c, 0, 38, 0
1, 80877, Note_on_c, 0, 62, 52
1, 80877, Note_on_c, 0, 70, 52
1, 80877, Note_on_c, 0, 65, 52
1, 80880, Note_on_c, 0, 45, 47
1, 80943, Note_on_c, 0, 65, 0
1, 80943, Note_on_c, 0, 70, 0
1, 80943, Note_on_c, 0, 62, 0
1, 80946, Note_on_c, 0, 45, 0
1, 81010, Note_on_c, 0, 62, 52
1, 81010, Note_on_c, 0, 70, 52
1, 81010, Note_on_c, 0, 65, 52
1, 81013, Note_on_c, 0, 38, 51
1, 81077, Note_on_c, 0, 65, 0
1, 81077, Note_on_c, 0, 70, 0
1, 81077, Note_on_c, 0, 62, 0
1, 81080, Note_on_c, 0, 38, 0
1, 81145, Note_on_c, 0, 65, 51
1, 81145, Note_on_c, 0, 62, 51
1, 81145, Note_on_c, 0, 69, 51
1, 81148, Note_on_c, 0, 45, 47
1, 81211, Note_on_c, 0, 69, 0
1, 81211, Note_on_c, 0, 62, 0
1, 81211, Note_on_c, 0, 65, 0
1, 81214, Note_on_c, 0, 45, 0
1, 81277, Note_on_c, 0, 64, 64
1, 81277, Note_on_c, 0, 59, 64
1, 81277, Note_on_c, 0, 68, 64
1, 81280, Note_on_c, 0, 38, 51
1, 81344, Note_on_c, 0, 68, 0
1, 81344, Note_on_c, 0, 59, 0
1, 81344, Note_on_c, 0, 64, 0
1, 81347, Note_on_c, 0, 38, 0
1, 81411, Note_on_c, 0, 59, 64
1, 81411, Note_on_c, 0, 64, 64
1, 81411, Note_on_c, 0, 68, 64
1, 81414, Note_on_c, 0, 45, 49
1, 81478, Note_on_c, 0, 45, 0
1, 81545, Note_on_c, 0, 38, 51
1, 81613, Note_on_c, 0, 38, 0
1, 81681, Note_on_c, 0, 68, 0
1, 81681, Note_on_c, 0, 64, 0
1, 81681, Note_on_c, 0, 59, 0
1, 81684, Note_on_c, 0, 67, 56
1, 81684, Note_on_c, 0, 45, 49
1, 81715, Note_on_c, 0, 67, 0
1, 81715, Note_on_c, 0, 69, 56
1, 81748, Note_on_c, 0, 69, 0
1, 81748, Note_on_c, 0, 70, 56
1, 81748, Note_on_c, 0, 45, 0
1, 81781, Note_on_c, 0, 70, 0
1, 81781, Note_on_c, 0, 72, 56
1, 81814, Note_on_c, 0, 72, 0
1, 81814, Note_on_c, 0, 74, 58
1, 81814, Note_on_c, 0, 38, 51
1, 81882, Note_on_c, 0, 74, 0
1, 81882, Note_on_c, 0, 38, 0
1, 81951, Note_on_c, 0, 67, 53
1, 81951, Note_on_c, 0, 70, 53
1, 81951, Note_on_c, 0, 79, 53
1, 81954, Note_on_c, 0, 45, 49
1, 82018, Note_on_c, 0, 79, 0
1, 82018, Note_on_c, 0, 70, 0
1, 82018, Note_on_c, 0, 67, 0
1, 82021, Note_on_c, 0, 45, 0
1, 82085, Note_on_c, 0, 79, 53
1, 82085, Note_on_c, 0, 70, 53
1, 82085, Note_on_c, 0, 67, 53
1, 82088, Note_on_c, 0, 38, 51
1, 82153, Note_on_c, 0, 67, 0
1, 82153, Note_on_c, 0, 70, 0
1, 82153, Note_on_c, 0, 79, 0
1, 82156, Note_on_c, 0, 38, 0
1, 82221, Note_on_c, 0, 70, 53
1, 82221, Note_on_c, 0, 78, 53
1, 82221, Note_on_c, 0, 67, 53
1, 82224, Note_on_c, 0, 45, 49
1, 82288, Note_on_c, 0, 67, 0
1, 82288, Note_on_c, 0, 78, 0
1, 82288, Note_on_c, 0, 70, 0
1, 82291, Note_on_c, 0, 45, 0
1, 82354, Note_on_c, 0, 70, 56
1, 82354, Note_on_c, 0, 78, 56
1, 82354, Note_on_c, 0, 67, 56
1, 82357, Note_on_c, 0, 38, 51
1, 82422, Note_on_c, 0, 67, 0
1, 82422, Note_on_c, 0, 78, 0
1, 82422, Note_on_c, 0, 70, 0
1, 82425, Note_on_c, 0, 38, 0
1, 82489, Note_on_c, 0, 67, 53
1, 82489, Note_on_c, 0, 70, 53
1, 82489, Note_on_c, 0, 77, 53
1, 82492, Note_on_c, 0, 45, 49
1, 82556, Note_on_c, 0, 77, 0
1, 82556, Note_on_c, 0, 70, 0
1, 82556, Note_on_c, 0, 67, 0
1, 82559, Note_on_c, 0, 45, 0
1, 82622, Note_on_c, 0, 70, 53
1, 82622, Note_on_c, 0, 67, 53
1, 82622, Note_on_c, 0, 77, 53
1, 82625, Note_on_c, 0, 38, 51
1, 82688, Note_on_c, 0, 77, 0
1, 82688, Note_on_c, 0, 67, 0
1, 82688, Note_on_c, 0, 70, 0
1, 82691, Note_on_c, 0, 38, 0
1, 82755, Note_on_c, 0, 67, 53
1, 82755, Note_on_c, 0, 70, 53
1, 82755, Note_on_c, 0, 76, 53
1, 82758, Note_on_c, 0, 45, 49
1, 82820, Note_on_c, 0, 76, 0
1, 82820, Note_on_c, 0, 70, 0
1, 82820, Note_on_c, 0, 67, 0
1, 82823, Note_on_c, 0, 45, 0
1, 82886, Note_on_c, 0, 70, 56
1, 82886, Note_on_c, 0, 76, 56
1, 82886, Note_on_c, 0, 67, 56
1, 82889, Note_on_c, 0, 38, 51
1, 82953, Note_on_c, 0, 67, 0
1, 82953, Note_on_c, 0, 76, 0
1, 82953, Note_on_c, 0, 70, 0
1, 82956, Note_on_c, 0, 38, 0
1, 83021, Note_on_c, 0, 75, 51
1, 83021, Note_on_c, 0, 67, 51
1, 83021, Note_on_c, 0, 70, 51
1, 83024, Note_on_c, 0, 45, 47
1, 83087, Note_on_c, 0, 70, 0
1, 83087, Note_on_c, 0, 67, 0
1, 83087, Note_on_c, 0, 75, 0
1, 83090, Note_on_c, 0, 45, 0
1, 83152, Note_on_c, 0, 70, 51
1, 83152, Note_on_c, 0, 67, 51
1, 83152, Note_on_c, 0, 75, 51
1, 83155, Note_on_c, 0, 38, 50
1, 83219, Note_on_c, 0, 75, 0
1, 83219, Note_on_c, 0, 67, 0
1, 83219, Note_on_c, 0, 70, 0
1, 83222, Note_on_c, 0, 38, 0
1, 83285, Note_on_c, 0, 74, 51
1, 83285, Note_on_c, 0, 70, 51
1, 83285, Note_on_c, 0, 67, 51
1, 83288, Note_on_c, 0, 45, 47
1, 83351, Note_on_c, 0, 67, 0
1, 83351, Note_on_c, 0, 70, 0
1, 83351, Note_on_c, 0, 74, 0
1, 83354, Note_on_c, 0, 45, 0
1, 83416, Note_on_c, 0, 64, 65
1, 83416, Note_on_c, 0, 69, 65
1, 83416, Note_on_c, 0, 73, 65
1, 83419, Note_on_c, 0, 38, 51
1, 83484, Note_on_c, 0, 73, 0
1, 83484, Note_on_c, 0, 69, 0
1, 83484, Note_on_c, 0, 64, 0
1, 83487, Note_on_c, 0, 38, 0
1, 83551, Note_on_c, 0, 73, 66
1, 83551, Note_on_c, 0, 69, 66
1, 83551, Note_on_c, 0, 64, 66
1, 83554, Note_on_c, 0, 45, 49
1, 83615, Note_on_c, 0, 45, 0
1, 83680, Note_on_c, 0, 38, 51
1, 83744, Note_on_c, 0, 38, 0
1, 83809, Note_on_c, 0, 64, 0
1, 83809, Note_on_c, 0, 69, 0
1, 83809, Note_on_c, 0, 73, 0
1, 83812, Note_on_c, 0, 45, 49
1, 83872, Note_on_c, 0, 45, 0
1, 83936, Note_on_c, 0, 74, 68
1, 83968, Note_on_c, 0, 74, 0
1, 83968, Note_on_c, 0, 76, 54
1, 84001, Note_on_c, 0, 76, 0
1, 84001, Note_on_c, 0, 77, 54
1, 84033, Note_on_c, 0, 77, 0
1, 84033, Note_on_c, 0, 79, 54
1, 84066, Note_on_c, 0, 79, 0
1, 84066, Note_on_c, 0, 81, 60
1, 84066, Note_on_c, 0, 65, 50
1, 84069, Note_on_c, 0, 58, 50
1, 84132, Note_on_c, 0, 81, 0
1, 84132, Note_on_c, 0, 58, 0
1, 84132, Note_on_c, 0, 65, 0
1, 84199, Note_on_c, 0, 79, 68
1, 84232, Note_on_c, 0, 79, 0
1, 84232, Note_on_c, 0, 77, 56
1, 84264, Note_on_c, 0, 77, 0
1, 84264, Note_on_c, 0, 76, 56
1, 84297, Note_on_c, 0, 76, 0
1, 84297, Note_on_c, 0, 74, 56
1, 84329, Note_on_c, 0, 74, 0
1, 84329, Note_on_c, 0, 72, 61
1, 84329, Note_on_c, 0, 60, 51
1, 84332, Note_on_c, 0, 53, 51
1, 84396, Note_on_c, 0, 72, 0
1, 84396, Note_on_c, 0, 53, 0
1, 84396, Note_on_c, 0, 60, 0
1, 84463, Note_on_c, 0, 70, 67
1, 84495, Note_on_c, 0, 70, 0
1, 84495, Note_on_c, 0, 72, 56
1, 84528, Note_on_c, 0, 72, 0
1, 84528, Note_on_c, 0, 74, 56
1, 84560, Note_on_c, 0, 74, 0
1, 84560, Note_on_c, 0, 76, 56
1, 84593, Note_on_c, 0, 76, 0
1, 84593, Note_on_c, 0, 77, 62
1, 84593, Note_on_c, 0, 62, 51
1, 84596, Note_on_c, 0, 55, 51
1, 84660, Note_on_c, 0, 77, 0
1, 84660, Note_on_c, 0, 55, 0
1, 84660, Note_on_c, 0, 62, 0
1, 84726, Note_on_c, 0, 76, 68
1, 84759, Note_on_c, 0, 76, 0
1, 84759, Note_on_c, 0, 74, 57
1, 84791, Note_on_c, 0, 74, 0
1, 84791, Note_on_c, 0, 72, 57
1, 84824, Note_on_c, 0, 72, 0
1, 84824, Note_on_c, 0, 70, 57
1, 84856, Note_on_c, 0, 70, 0
1, 84856, Note_on_c, 0, 69, 64
1, 84856, Note_on_c, 0, 50, 51
1, 84859, Note_on_c, 0, 57, 51
1, 84923, Note_on_c, 0, 69, 0
1, 84923, Note_on_c, 0, 57, 0
1, 84923, Note_on_c, 0, 50, 0
1, 84990, Note_on_c, 0, 67, 68
1, 85022, Note_on_c, 0, 67, 0
1, 85022, Note_on_c, 0, 69, 57
1, 85055, Note_on_c, 0, 69, 0
1, 85055, Note_on_c, 0, 70, 57
1, 85087, Note_on_c, 0, 70, 0
1, 85087, Note_on_c, 0, 72, 57
1, 85120, Note_on_c, 0, 72, 0
1, 85120, Note_on_c, 0, 74, 65
1, 85120, Note_on_c, 0, 51, 51
1, 85123, Note_on_c, 0, 58, 51
1, 85187, Note_on_c, 0, 74, 0
1, 85187, Note_on_c, 0, 58, 0
1, 85187, Note_on_c, 0, 51, 0
1, 85254, Note_on_c, 0, 72, 69
1, 85286, Note_on_c, 0, 72, 0
1, 85286, Note_on_c, 0, 70, 57
1, 85318, Note_on_c, 0, 70, 0
1, 85318, Note_on_c, 0, 69, 57
1, 85351, Note_on_c, 0, 69, 0
1, 85351, Note_on_c, 0, 67, 57
1, 85383, Note_on_c, 0, 67, 0
1, 85383, Note_on_c, 0, 65, 64
1, 85383, Note_on_c, 0, 46, 51
1, 85386, Note_on_c, 0, 53, 51
1, 85450, Note_on_c, 0, 65, 0
1, 85450, Note_on_c, 0, 53, 0
1, 85450, Note_on_c, 0, 46, 0
1, 85517, Note_on_c, 0, 45, 57
1, 85583, Note_on_c, 0, 45, 0
1, 85650, Note_on_c, 0, 57, 67
1, 85650, Note_on_c, 0, 64, 67
1, 85650, Note_on_c, 0, 52, 51
1, 85714, Note_on_c, 0, 52, 0
1, 85778, Note_on_c, 0, 45, 58
1, 85841, Note_on_c, 0, 45, 0
1, 85905, Note_on_c, 0, 52, 51
1, 85969, Note_on_c, 0, 52, 0
1, 86033, Note_on_c, 0, 64, 0
1, 86033, Note_on_c, 0, 57, 0
1, 86033, Note_on_c, 0, 86, 69
1, 86036, Note_on_c, 0, 39, 57
1, 86065, Note_on_c, 0, 86, 0
1, 86065, Note_on_c, 0, 84, 57
1, 86098, Note_on_c, 0, 84, 0
1, 86098, Note_on_c, 0, 82, 57
1, 86098, Note_on_c, 0, 39, 0
1, 86130, Note_on_c, 0, 82, 0
1, 86130, Note_on_c, 0, 81, 57
1, 86163, Note_on_c, 0, 81, 0
1, 86163, Note_on_c, 0, 79, 61
1, 86163, Note_on_c, 0, 46, 51
1, 86229, Note_on_c, 0, 79, 0
1, 86229, Note_on_c, 0, 46, 0
1, 86296, Note_on_c, 0, 74, 70
1, 86296, Note_on_c, 0, 39, 57
1, 86329, Note_on_c, 0, 74, 0
1, 86329, Note_on_c, 0, 72, 57
1, 86361, Note_on_c, 0, 72, 0
1, 86361, Note_on_c, 0, 70, 57
1, 86361, Note_on_c, 0, 39, 0
1, 86393, Note_on_c, 0, 70, 0
1, 86393, Note_on_c, 0, 69, 57
1, 86426, Note_on_c, 0, 69, 0
1, 86426, Note_on_c, 0, 67, 61
1, 86426, Note_on_c, 0, 46, 51
1, 86493, Note_on_c, 0, 67, 0
1, 86493, Note_on_c, 0, 46, 0
1, 86559, Note_on_c, 0, 45, 57
1, 86626, Note_on_c, 0, 45, 0
1, 86693, Note_on_c, 0, 57, 67
1, 86693, Note_on_c, 0, 64, 67
1, 86693, Note_on_c, 0, 52, 51
1, 86757, Note_on_c, 0, 52, 0
1, 86821, Note_on_c, 0, 45, 58
1, 86885, Note_on_c, 0, 45, 0
1, 86949, Note_on_c, 0, 52, 51
1, 87013, Note_on_c, 0, 52, 0
1, 87077, Note_on_c, 0, 64, 0
1, 87077, Note_on_c, 0, 57, 0
1, 87077, Note_on_c, 0, 86, 69
1, 87080, Note_on_c, 0, 39, 57
1, 87109, Note_on_c, 0, 86, 0
1, 87109, Note_on_c, 0, 84, 57
1, 87142, Note_on_c, 0, 84, 0
1, 87142, Note_on_c, 0, 82, 57
1, 87142, Note_on_c, 0, 39, 0
1, 87174, Note_on_c, 0, 82, 0
1, 87174, Note_on_c, 0, 81, 57
1, 87206, Note_on_c, 0, 81, 0
1, 87206, Note_on_c, 0, 79, 61
1, 87206, Note_on_c, 0, 46, 51
1, 87273, Note_on_c, 0, 79, 0
1, 87273, Note_on_c, 0, 46, 0
1, 87340, Note_on_c, 0, 74, 70
1, 87340, Note_on_c, 0, 39, 57
1, 87372, Note_on_c, 0, 74, 0
1, 87372, Note_on_c, 0, 72, 57
1, 87405, Note_on_c, 0, 72, 0
1, 87405, Note_on_c, 0, 70, 57
1, 87405, Note_on_c, 0, 39, 0
1, 87437, Note_on_c, 0, 70, 0
1, 87437, Note_on_c, 0, 69, 57
1, 87470, Note_on_c, 0, 69, 0
1, 87470, Note_on_c, 0, 67, 61
1, 87470, Note_on_c, 0, 46, 51
1, 87536, Note_on_c, 0, 67, 0
1, 87536, Note_on_c, 0, 46, 0
1, 87603, Note_on_c, 0, 45, 57
1, 87668, Note_on_c, 0, 45, 0
1, 87733, Note_on_c, 0, 57, 67
1, 87733, Note_on_c, 0, 64, 67
1, 87733, Note_on_c, 0, 52, 51
1, 87798, Note_on_c, 0, 52, 0
1, 87863, Note_on_c, 0, 64, 0
1, 87863, Note_on_c, 0, 57, 0
1, 87863, Note_on_c, 0, 74, 61
1, 87866, Note_on_c, 0, 39, 58
1, 87894, Note_on_c, 0, 74, 0
1, 87894, Note_on_c, 0, 72, 56
1, 87926, Note_on_c, 0, 72, 0
1, 87926, Note_on_c, 0, 70, 56
1, 87926, Note_on_c, 0, 39, 0
1, 87958, Note_on_c, 0, 70, 0
1, 87958, Note_on_c, 0, 69, 56
1, 87990, Note_on_c, 0, 69, 0
1, 87990, Note_on_c, 0, 67, 60
1, 87990, Note_on_c, 0, 46, 49
1, 88053, Note_on_c, 0, 67, 0
1, 88053, Note_on_c, 0, 46, 0
1, 88116, Note_on_c, 0, 45, 53
1, 88180, Note_on_c, 0, 45, 0
1, 88244, Note_on_c, 0, 64, 58
1, 88244, Note_on_c, 0, 57, 58
1, 88244, Note_on_c, 0, 52, 51
1, 88308, Note_on_c, 0, 52, 0
1, 88372, Note_on_c, 0, 57, 0
1, 88372, Note_on_c, 0, 64, 0
1, 88372, Note_on_c, 0, 74, 53
1, 88375, Note_on_c, 0, 39, 53
1, 88404, Note_on_c, 0, 74, 0
1, 88404, Note_on_c, 0, 72, 53
1, 88436, Note_on_c, 0, 72, 0
1, 88436, Note_on_c, 0, 70, 53
1, 88436, Note_on_c, 0, 39, 0
1, 88467, Note_on_c, 0, 70, 0
1, 88467, Note_on_c, 0, 69, 53
1, 88499, Note_on_c, 0, 69, 0
1, 88499, Note_on_c, 0, 67, 51
1, 88499, Note_on_c, 0, 46, 47
1, 88562, Note_on_c, 0, 67, 0
1, 88562, Note_on_c, 0, 46, 0
1, 88625, Note_on_c, 0, 45, 54
1, 88687, Note_on_c, 0, 45, 0
1, 88749, Note_on_c, 0, 64, 57
1, 88749, Note_on_c, 0, 57, 57
1, 88749, Note_on_c, 0, 52, 50
1, 88811, Note_on_c, 0, 52, 0
1, 88873, Note_on_c, 0, 57, 0
1, 88873, Note_on_c, 0, 64, 0
1, 88873, Note_on_c, 0, 74, 51
1, 88876, Note_on_c, 0, 39, 53
1, 88905, Note_on_c, 0, 74, 0
1, 88905, Note_on_c, 0, 72, 51
1, 88936, Note_on_c, 0, 72, 0
1, 88936, Note_on_c, 0, 70, 51
1, 88936, Note_on_c, 0, 39, 0
1, 88967, Note_on_c, 0, 70, 0
1, 88967, Note_on_c, 0, 69, 50
1, 88999, Note_on_c, 0, 69, 0
1, 88999, Note_on_c, 0, 67, 47
1, 88999, Note_on_c, 0, 46, 45
1, 89061, Note_on_c, 0, 67, 0
1, 89061, Note_on_c, 0, 46, 0
1, 89124, Note_on_c, 0, 45, 51
1, 89186, Note_on_c, 0, 45, 0
1, 89248, Note_on_c, 0, 57, 54
1, 89248, Note_on_c, 0, 64, 54
1, 89248, Note_on_c, 0, 52, 47
1, 89310, Note_on_c, 0, 52, 0
1, 89372, Note_on_c, 0, 64, 0
1, 89372, Note_on_c, 0, 57, 0
1, 89372, Note_on_c, 0, 74, 50
1, 89375, Note_on_c, 0, 39, 50
1, 89403, Note_on_c, 0, 74, 0
1, 89403, Note_on_c, 0, 72, 50
1, 89435, Note_on_c, 0, 72, 0
1, 89435, Note_on_c, 0, 70, 50
1, 89435, Note_on_c, 0, 39, 0
1, 89466, Note_on_c, 0, 70, 0
1, 89466, Note_on_c, 0, 69, 50
1, 89497, Note_on_c, 0, 69, 0
1, 89497, Note_on_c, 0, 67, 47
1, 89497, Note_on_c, 0, 46, 44
1, 89560, Note_on_c, 0, 67, 0
1, 89560, Note_on_c, 0, 46, 0
1, 89622, Note_on_c, 0, 45, 56
1, 89688, Note_on_c, 0, 45, 0
1, 89753, Note_on_c, 0, 57, 47
1, 89753, Note_on_c, 0, 64, 47
1, 89753, Note_on_c, 0, 61, 47
1, 89756, Note_on_c, 0, 52, 51
1, 89817, Note_on_c, 0, 61, 0
1, 89817, Note_on_c, 0, 64, 0
1, 89817, Note_on_c, 0, 57, 0
1, 89820, Note_on_c, 0, 52, 0
1, 89881, Note_on_c, 0, 46, 56
1, 89946, Note_on_c, 0, 46, 0
1, 90011, Note_on_c, 0, 58, 47
1, 90011, Note_on_c, 0, 64, 47
1, 90011, Note_on_c, 0, 61, 47
1, 90014, Note_on_c, 0, 52, 51
1, 90076, Note_on_c, 0, 61, 0
1, 90076, Note_on_c, 0, 64, 0
1, 90076, Note_on_c, 0, 58, 0
1, 90079, Note_on_c, 0, 52, 0
1, 90140, Note_on_c, 0, 44, 54
1, 90205, Note_on_c, 0, 44, 0
1, 90270, Note_on_c, 0, 61, 44
1, 90270, Note_on_c, 0, 56, 44
1, 90270, Note_on_c, 0, 64, 44
1, 90273, Note_on_c, 0, 52, 52
1, 90335, Note_on_c, 0, 64, 0
1, 90335, Note_on_c, 0, 56, 0
1, 90335, Note_on_c, 0, 61, 0
1, 90338, Note_on_c, 0, 52, 0
1, 90399, Note_on_c, 0, 45, 56
1, 90464, Note_on_c, 0, 45, 0
1, 90529, Note_on_c, 0, 61, 45
1, 90529, Note_on_c, 0, 64, 45
1, 90529, Note_on_c, 0, 57, 45
1, 90532, Note_on_c, 0, 52, 53
1, 90594, Note_on_c, 0, 57, 0
1, 90594, Note_on_c, 0, 64, 0
1, 90594, Note_on_c, 0, 61, 0
1, 90597, Note_on_c, 0, 52, 0
1, 90658, Note_on_c, 0, 46, 58
1, 90723, Note_on_c, 0, 46, 0
1, 90788, Note_on_c, 0, 61, 46
1, 90788, Note_on_c, 0, 58, 46
1, 90788, Note_on_c, 0, 64, 46
1, 90791, Note_on_c, 0, 52, 53
1, 90853, Note_on_c, 0, 64, 0
1, 90853, Note_on_c, 0, 58, 0
1, 90853, Note_on_c, 0, 61, 0
1, 90856, Note_on_c, 0, 52, 0
1, 90917, Note_on_c, 0, 47, 60
1, 90982, Note_on_c, 0, 47, 0
1, 91047, Note_on_c, 0, 61, 49
1, 91047, Note_on_c, 0, 59, 49
1, 91047, Note_on_c, 0, 64, 49
1, 91050, Note_on_c, 0, 52, 54
1, 91112, Note_on_c, 0, 64, 0
1, 91112, Note_on_c, 0, 59, 0
1, 91112, Note_on_c, 0, 61, 0
1, 91115, Note_on_c, 0, 52, 0
1, 91176, Note_on_c, 0, 48, 62
1, 91241, Note_on_c, 0, 48, 0
1, 91306, Note_on_c, 0, 60, 50
1, 91306, Note_on_c, 0, 61, 50
1, 91306, Note_on_c, 0, 64, 50
1, 91309, Note_on_c, 0, 52, 58
1, 91371, Note_on_c, 0, 64, 0
1, 91371, Note_on_c, 0, 61, 0
1, 91371, Note_on_c, 0, 60, 0
1, 91374, Note_on_c, 0, 52, 0
1, 91435, Note_on_c, 0, 47, 65
1, 91500, Note_on_c, 0, 47, 0
1, 91565, Note_on_c, 0, 59, 52
1, 91565, Note_on_c, 0, 64, 52
1, 91565, Note_on_c, 0, 61, 52
1, 91568, Note_on_c, 0, 52, 59
1, 91629, Note_on_c, 0, 61, 0
1, 91629, Note_on_c, 0, 64, 0
1, 91629, Note_on_c, 0, 59, 0
1, 91632, Note_on_c, 0, 52, 0
1, 91694, Note_on_c, 0, 46, 66
1, 91759, Note_on_c, 0, 46, 0
1, 91824, Note_on_c, 0, 58, 53
1, 91824, Note_on_c, 0, 64, 53
1, 91824, Note_on_c, 0, 61, 53
1, 91827, Note_on_c, 0, 52, 61
1, 91888, Note_on_c, 0, 61, 0
1, 91888, Note_on_c, 0, 64, 0
1, 91888, Note_on_c, 0, 58, 0
1, 91891, Note_on_c, 0, 52, 0
1, 91953, Note_on_c, 0, 45, 68
1, 92018, Note_on_c, 0, 45, 0
1, 92083, Note_on_c, 0, 61, 56
1, 92083, Note_on_c, 0, 57, 56
1, 92083, Note_on_c, 0, 64, 56
1, 92086, Note_on_c, 0, 52, 62
1, 92147, Note_on_c, 0, 64, 0
1, 92147, Note_on_c, 0, 57, 0
1, 92147, Note_on_c, 0, 61, 0
1, 92150, Note_on_c, 0, 52, 0
1, 92212, Note_on_c, 0, 44, 70
1, 92277, Note_on_c, 0, 44, 0
1, 92342, Note_on_c, 0, 61, 57
1, 92342, Note_on_c, 0, 56, 57
1, 92342, Note_on_c, 0, 64, 57
1, 92345, Note_on_c, 0, 52, 65
1, 92406, Note_on_c, 0, 64, 0
1, 92406, Note_on_c, 0, 56, 0
1, 92406, Note_on_c, 0, 61, 0
1, 92409, Note_on_c, 0, 52, 0
1, 92471, Note_on_c, 0, 43, 73
1, 92536, Note_on_c, 0, 43, 0
1, 92601, Note_on_c, 0, 55, 58
1, 92601, Note_on_c, 0, 58, 58
1, 92601, Note_on_c, 0, 61, 58
1, 92604, Note_on_c, 0, 49, 67
1, 92665, Note_on_c, 0, 61, 0
1, 92665, Note_on_c, 0, 58, 0
1, 92665, Note_on_c, 0, 55, 0
1, 92668, Note_on_c, 0, 49, 0
1, 92730, Note_on_c, 0, 42, 75
1, 92795, Note_on_c, 0, 42, 0
1, 92860, Note_on_c, 0, 54, 60
1, 92860, Note_on_c, 0, 61, 60
1, 92860, Note_on_c, 0, 58, 60
1, 92863, Note_on_c, 0, 49, 70
1, 92924, Note_on_c, 0, 58, 0
1, 92924, Note_on_c, 0, 61, 0
1, 92924, Note_on_c, 0, 54, 0
1, 92927, Note_on_c, 0, 49, 0
1, 92989, Note_on_c, 0, 41, 82
1, 93054, Note_on_c, 0, 41, 0
1, 93119, Note_on_c, 0, 53, 61
1, 93119, Note_on_c, 0, 61, 61
1, 93119, Note_on_c, 0, 58, 61
1, 93122, Note_on_c, 0, 49, 74
1, 93183, Note_on_c, 0, 58, 0
1, 93183, Note_on_c, 0, 61, 0
1, 93183, Note_on_c, 0, 53, 0
1, 93186, Note_on_c, 0, 49, 0
1, 93247, Note_on_c, 0, 40, 87
1, 93313, Note_on_c, 0, 40, 0
1, 93378, Note_on_c, 0, 57, 64
1, 93378, Note_on_c, 0, 52, 64
1, 93378, Note_on_c, 0, 61, 64
1, 93381, Note_on_c, 0, 49, 80
1, 93442, Note_on_c, 0, 61, 0
1, 93442, Note_on_c, 0, 52, 0
1, 93442, Note_on_c, 0, 57, 0
1, 93445, Note_on_c, 0, 49, 0
1, 93506, Note_on_c, 0, 39, 89
1, 93572, Note_on_c, 0, 39, 0
1, 93637, Note_on_c, 0, 55, 65
1, 93637, Note_on_c, 0, 57, 65
1, 93637, Note_on_c, 0, 61, 65
1, 93640, Note_on_c, 0, 51, 65
1, 93640, Note_on_c, 0, 49, 83
1, 93701, Note_on_c, 0, 51, 0
1, 93701, Note_on_c, 0, 55, 0
1, 93701, Note_on_c, 0, 57, 0
1, 93704, Note_on_c, 0, 61, 0
1, 93704, Note_on_c, 0, 49, 0
1, 93765, Note_on_c, 0, 38, 83
1, 93765, Note_on_c, 0, 50, 96
1, 93831, Note_on_c, 0, 50, 0
1, 93831, Note_on_c, 0, 38, 0
1, 93896, Note_on_c, 0, 33, 72
1, 93896, Note_on_c, 0, 45, 83
1, 93962, Note_on_c, 0, 45, 0
1, 93962, Note_on_c, 0, 33, 0
1, 94027, Note_on_c, 0, 38, 83
1, 94027, Note_on_c, 0, 50, 96
1, 94093, Note_on_c, 0, 50, 0
1, 94093, Note_on_c, 0, 38, 0
1, 94158, Note_on_c, 0, 33, 72
1, 94158, Note_on_c, 0, 45, 83
1, 94224, Note_on_c, 0, 45, 0
1, 94224, Note_on_c, 0, 33, 0
1, 94289, Note_on_c, 0, 38, 83
1, 94289, Note_on_c, 0, 50, 96
1, 94355, Note_on_c, 0, 50, 0
1, 94355, Note_on_c, 0, 38, 0
1, 94420, Note_on_c, 0, 33, 72
1, 94420, Note_on_c, 0, 45, 83
1, 94486, Note_on_c, 0, 45, 0
1, 94486, Note_on_c, 0, 33, 0
1, 94551, Note_on_c, 0, 38, 83
1, 94551, Note_on_c, 0, 50, 96
1, 94617, Note_on_c, 0, 50, 0
1, 94617, Note_on_c, 0, 38, 0
1, 94682, Note_on_c, 0, 74, 89
1, 94682, Note_on_c, 0, 45, 83
1, 94682, Note_on_c, 0, 33, 72
1, 94715, Note_on_c, 0, 74, 0
1, 94715, Note_on_c, 0, 76, 89
1, 94747, Note_on_c, 0, 76, 0
1, 94747, Note_on_c, 0, 77, 89
1, 94747, Note_on_c, 0, 33, 0
1, 94750, Note_on_c, 0, 45, 0
1, 94780, Note_on_c, 0, 77, 0
1, 94780, Note_on_c, 0, 79, 89
1, 94813, Note_on_c, 0, 79, 0
1, 94813, Note_on_c, 0, 81, 92
1, 94813, Note_on_c, 0, 38, 75
1, 94816, Note_on_c, 0, 50, 87
1, 94879, Note_on_c, 0, 81, 0
1, 94879, Note_on_c, 0, 50, 0
1, 94879, Note_on_c, 0, 38, 0
1, 94946, Note_on_c, 0, 74, 72
1, 94946, Note_on_c, 0, 77, 72
1, 94946, Note_on_c, 0, 86, 84
1, 94949, Note_on_c, 0, 33, 65
1, 94949, Note_on_c, 0, 45, 75
1, 95012, Note_on_c, 0, 86, 0
1, 95012, Note_on_c, 0, 77, 0
1, 95012, Note_on_c, 0, 74, 0
1, 95015, Note_on_c, 0, 45, 0
1, 95015, Note_on_c, 0, 33, 0
1, 95078, Note_on_c, 0, 74, 72
1, 95078, Note_on_c, 0, 77, 72
1, 95078, Note_on_c, 0, 86, 84
1, 95081, Note_on_c, 0, 38, 75
1, 95081, Note_on_c, 0, 50, 87
1, 95145, Note_on_c, 0, 86, 0
1, 95145, Note_on_c, 0, 77, 0
1, 95145, Note_on_c, 0, 74, 0
1, 95148, Note_on_c, 0, 50, 0
1, 95148, Note_on_c, 0, 38, 0
1, 95211, Note_on_c, 0, 74, 72
1, 95211, Note_on_c, 0, 77, 72
1, 95211, Note_on_c, 0, 85, 84
1, 95214, Note_on_c, 0, 45, 75
1, 95214, Note_on_c, 0, 33, 65
1, 95277, Note_on_c, 0, 85, 0
1, 95277, Note_on_c, 0, 77, 0
1, 95277, Note_on_c, 0, 74, 0
1, 95280, Note_on_c, 0, 33, 0
1, 95280, Note_on_c, 0, 45, 0
1, 95342, Note_on_c, 0, 74, 77
1, 95342, Note_on_c, 0, 77, 77
1, 95342, Note_on_c, 0, 85, 89
1, 95345, Note_on_c, 0, 38, 75
1, 95345, Note_on_c, 0, 50, 87
1, 95409, Note_on_c, 0, 85, 0
1, 95409, Note_on_c, 0, 77, 0
1, 95409, Note_on_c, 0, 74, 0
1, 95412, Note_on_c, 0, 50, 0
1, 95412, Note_on_c, 0, 38, 0
1, 95475, Note_on_c, 0, 74, 72
1, 95475, Note_on_c, 0, 77, 72
1, 95475, Note_on_c, 0, 84, 84
1, 95478, Note_on_c, 0, 33, 65
1, 95478, Note_on_c, 0, 45, 75
1, 95540, Note_on_c, 0, 84, 0
1, 95540, Note_on_c, 0, 77, 0
1, 95540, Note_on_c, 0, 74, 0
1, 95543, Note_on_c, 0, 45, 0
1, 95543, Note_on_c, 0, 33, 0
1, 95605, Note_on_c, 0, 77, 72
1, 95605, Note_on_c, 0, 84, 84
1, 95605, Note_on_c, 0, 74, 72
1, 95608, Note_on_c, 0, 38, 75
1, 95608, Note_on_c, 0, 50, 87
1, 95670, Note_on_c, 0, 74, 0
1, 95670, Note_on_c, 0, 84, 0
1, 95670, Note_on_c, 0, 77, 0
1, 95673, Note_on_c, 0, 50, 0
1, 95673, Note_on_c, 0, 38, 0
1, 95736, Note_on_c, 0, 74, 72
1, 95736, Note_on_c, 0, 77, 72
1, 95736, Note_on_c, 0, 83, 84
1, 95739, Note_on_c, 0, 45, 75
1, 95739, Note_on_c, 0, 33, 65
1, 95799, Note_on_c, 0, 83, 0
1, 95799, Note_on_c, 0, 77, 0
1, 95799, Note_on_c, 0, 74, 0
1, 95802, Note_on_c, 0, 33, 0
1, 95802, Note_on_c, 0, 45, 0
1, 95863, Note_on_c, 0, 74, 77
1, 95863, Note_on_c, 0, 77, 77
1, 95863, Note_on_c, 0, 83, 89
1, 95866, Note_on_c, 0, 38, 75
1, 95866, Note_on_c, 0, 50, 87
1, 95929, Note_on_c, 0, 83, 0
1, 95929, Note_on_c, 0, 77, 0
1, 95929, Note_on_c, 0, 74, 0
1, 95932, Note_on_c, 0, 50, 0
1, 95932, Note_on_c, 0, 38, 0
1, 95994, Note_on_c, 0, 74, 73
1, 95994, Note_on_c, 0, 77, 73
1, 95994, Note_on_c, 0, 82, 85
1, 95997, Note_on_c, 0, 33, 65
1, 95997, Note_on_c, 0, 45, 75
1, 96059, Note_on_c, 0, 82, 0
1, 96059, Note_on_c, 0, 77, 0
1, 96059, Note_on_c, 0, 74, 0
1, 96062, Note_on_c, 0, 45, 0
1, 96062, Note_on_c, 0, 33, 0
1, 96123, Note_on_c, 0, 74, 73
1, 96123, Note_on_c, 0, 77, 73
1, 96123, Note_on_c, 0, 82, 85
1, 96126, Note_on_c, 0, 38, 75
1, 96126, Note_on_c, 0, 50, 87
1, 96189, Note_on_c, 0, 82, 0
1, 96189, Note_on_c, 0, 77, 0
1, 96189, Note_on_c, 0, 74, 0
1, 96192, Note_on_c, 0, 50, 0
1, 96192, Note_on_c, 0, 38, 0
1, 96254, Note_on_c, 0, 77, 73
1, 96254, Note_on_c, 0, 81, 85
1, 96254, Note_on_c, 0, 74, 73
1, 96257, Note_on_c, 0, 45, 75
1, 96257, Note_on_c, 0, 33, 65
1, 96319, Note_on_c, 0, 74, 0
1, 96319, Note_on_c, 0, 81, 0
1, 96319, Note_on_c, 0, 77, 0
1, 96322, Note_on_c, 0, 33, 0
1, 96322, Note_on_c, 0, 45, 0
1, 96383, Note_on_c, 0, 71, 82
1, 96383, Note_on_c, 0, 76, 82
1, 96383, Note_on_c, 0, 80, 95
1, 96386, Note_on_c, 0, 38, 75
1, 96386, Note_on_c, 0, 50, 87
1, 96448, Note_on_c, 0, 80, 0
1, 96448, Note_on_c, 0, 76, 0
1, 96448, Note_on_c, 0, 71, 0
1, 96451, Note_on_c, 0, 50, 0
1, 96451, Note_on_c, 0, 38, 0
1, 96513, Note_on_c, 0, 71, 85
1, 96513, Note_on_c, 0, 76, 85
1, 96513, Note_on_c, 0, 80, 99
1, 96516, Note_on_c, 0, 33, 65
1, 96516, Note_on_c, 0, 45, 75
1, 96578, Note_on_c, 0, 45, 0
1, 96578, Note_on_c, 0, 33, 0
1, 96643, Note_on_c, 0, 38, 75
1, 96643, Note_on_c, 0, 50, 87
1, 96710, Note_on_c, 0, 50, 0
1, 96710, Note_on_c, 0, 38, 0
1, 96776, Note_on_c, 0, 80, 0
1, 96776, Note_on_c, 0, 76, 0
1, 96776, Note_on_c, 0, 71, 0
1, 96779, Note_on_c, 0, 79, 89
1, 96779, Note_on_c, 0, 45, 75
1, 96779, Note_on_c, 0, 33, 65
1, 96808, Note_on_c, 0, 79, 0
1, 96808, Note_on_c, 0, 81, 89
1, 96840, Note_on_c, 0, 81, 0
1, 96840, Note_on_c, 0, 82, 89
1, 96840, Note_on_c, 0, 33, 0
1, 96843, Note_on_c, 0, 45, 0
1, 96872, Note_on_c, 0, 82, 0
1, 96872, Note_on_c, 0, 84, 89
1, 96905, Note_on_c, 0, 84, 0
1, 96905, Note_on_c, 0, 86, 92
1, 96905, Note_on_c, 0, 38, 75
1, 96908, Note_on_c, 0, 50, 87
1, 96970, Note_on_c, 0, 86, 0
1, 96970, Note_on_c, 0, 50, 0
1, 96970, Note_on_c, 0, 38, 0
1, 97036, Note_on_c, 0, 79, 72
1, 97036, Note_on_c, 0, 91, 84
1, 97036, Note_on_c, 0, 82, 72
1, 97039, Note_on_c, 0, 33, 65
1, 97039, Note_on_c, 0, 45, 75
1, 97101, Note_on_c, 0, 82, 0
1, 97101, Note_on_c, 0, 91, 0
1, 97101, Note_on_c, 0, 79, 0
1, 97104, Note_on_c, 0, 45, 0
1, 97104, Note_on_c, 0, 33, 0
1, 97165, Note_on_c, 0, 91, 84
1, 97165, Note_on_c, 0, 79, 72
1, 97165, Note_on_c, 0, 82, 72
1, 97168, Note_on_c, 0, 38, 75
1, 97168, Note_on_c, 0, 50, 87
1, 97231, Note_on_c, 0, 82, 0
1, 97231, Note_on_c, 0, 79, 0
1, 97231, Note_on_c, 0, 91, 0
1, 97234, Note_on_c, 0, 50, 0
1, 97234, Note_on_c, 0, 38, 0
1, 97297, Note_on_c, 0, 79, 72
1, 97297, Note_on_c, 0, 82, 72
1, 97297, Note_on_c, 0, 90, 84
1, 97300, Note_on_c, 0, 45, 75
1, 97300, Note_on_c, 0, 33, 65
1, 97361, Note_on_c, 0, 90, 0
1, 97361, Note_on_c, 0, 82, 0
1, 97361, Note_on_c, 0, 79, 0
1, 97364, Note_on_c, 0, 33, 0
1, 97364, Note_on_c, 0, 45, 0
1, 97426, Note_on_c, 0, 90, 89
1, 97426, Note_on_c, 0, 82, 77
1, 97426, Note_on_c, 0, 79, 77
1, 97429, Note_on_c, 0, 38, 75
1, 97429, Note_on_c, 0, 50, 87
1, 97491, Note_on_c, 0, 79, 0
1, 97491, Note_on_c, 0, 82, 0
1, 97491, Note_on_c, 0, 90, 0
1, 97494, Note_on_c, 0, 50, 0
1, 97494, Note_on_c, 0, 38, 0
1, 97557, Note_on_c, 0, 79, 72
1, 97557, Note_on_c, 0, 89, 84
1, 97557, Note_on_c, 0, 82, 72
1, 97560, Note_on_c, 0, 33, 65
1, 97560, Note_on_c, 0, 45, 75
1, 97621, Note_on_c, 0, 82, 0
1, 97621, Note_on_c, 0, 89, 0
1, 97621, Note_on_c, 0, 79, 0
1, 97624, Note_on_c, 0, 45, 0
1, 97624, Note_on_c, 0, 33, 0
1, 97685, Note_on_c, 0, 82, 72
1, 97685, Note_on_c, 0, 79, 72
1, 97685, Note_on_c, 0, 89, 84
1, 97688, Note_on_c, 0, 38, 75
1, 97688, Note_on_c, 0, 50, 87
1, 97750, Note_on_c, 0, 89, 0
1, 97750, Note_on_c, 0, 79, 0
1, 97750, Note_on_c, 0, 82, 0
1, 97753, Note_on_c, 0, 50, 0
1, 97753, Note_on_c, 0, 38, 0
1, 97815, Note_on_c, 0, 79, 72
1, 97815, Note_on_c, 0, 88, 84
1, 97815, Note_on_c, 0, 82, 72
1, 97818, Note_on_c, 0, 45, 75
1, 97818, Note_on_c, 0, 33, 65
1, 97878, Note_on_c, 0, 82, 0
1, 97878, Note_on_c, 0, 88, 0
1, 97878, Note_on_c, 0, 79, 0
1, 97881, Note_on_c, 0, 33, 0
1, 97881, Note_on_c, 0, 45, 0
1, 97942, Note_on_c, 0, 82, 77
1, 97942, Note_on_c, 0, 79, 77
1, 97942, Note_on_c, 0, 88, 89
1, 97945, Note_on_c, 0, 38, 75
1, 97945, Note_on_c, 0, 50, 87
1, 98008, Note_on_c, 0, 88, 0
1, 98008, Note_on_c, 0, 79, 0
1, 98008, Note_on_c, 0, 82, 0
1, 98011, Note_on_c, 0, 50, 0
1, 98011, Note_on_c, 0, 38, 0
1, 98073, Note_on_c, 0, 79, 73
1, 98073, Note_on_c, 0, 87, 85
1, 98073, Note_on_c, 0, 82, 73
1, 98076, Note_on_c, 0, 33, 65
1, 98076, Note_on_c, 0, 45, 75
1, 98137, Note_on_c, 0, 82, 0
1, 98137, Note_on_c, 0, 87, 0
1, 98137, Note_on_c, 0, 79, 0
1, 98140, Note_on_c, 0, 45, 0
1, 98140, Note_on_c, 0, 33, 0
1, 98201, Note_on_c, 0, 82, 73
1, 98201, Note_on_c, 0, 87, 85
1, 98201, Note_on_c, 0, 79, 73
1, 98204, Note_on_c, 0, 38, 75
1, 98204, Note_on_c, 0, 50, 87
1, 98265, Note_on_c, 0, 79, 0
1, 98265, Note_on_c, 0, 87, 0
1, 98265, Note_on_c, 0, 82, 0
1, 98268, Note_on_c, 0, 50, 0
1, 98268, Note_on_c, 0, 38, 0
1, 98330, Note_on_c, 0, 86, 85
1, 98330, Note_on_c, 0, 82, 73
1, 98330, Note_on_c, 0, 79, 73
1, 98333, Note_on_c, 0, 45, 75
1, 98333, Note_on_c, 0, 33, 65
1, 98393, Note_on_c, 0, 79, 0
1, 98393, Note_on_c, 0, 82, 0
1, 98393, Note_on_c, 0, 86, 0
1, 98396, Note_on_c, 0, 33, 0
1, 98396, Note_on_c, 0, 45, 0
1, 98457, Note_on_c, 0, 76, 82
1, 98457, Note_on_c, 0, 85, 95
1, 98457, Note_on_c, 0, 81, 82
1, 98460, Note_on_c, 0, 38, 75
1, 98460, Note_on_c, 0, 50, 87
1, 98522, Note_on_c, 0, 81, 0
1, 98522, Note_on_c, 0, 85, 0
1, 98522, Note_on_c, 0, 76, 0
1, 98525, Note_on_c, 0, 50, 0
1, 98525, Note_on_c, 0, 38, 0
1, 98587, Note_on_c, 0, 85, 99
1, 98587, Note_on_c, 0, 76, 85
1, 98587, Note_on_c, 0, 81, 85
1, 98590, Note_on_c, 0, 33, 65
1, 98590, Note_on_c, 0, 45, 75
1, 98650, Note_on_c, 0, 45, 0
1, 98650, Note_on_c, 0, 33, 0
1, 98713, Note_on_c, 0, 38, 75
1, 98713, Note_on_c, 0, 50, 87
1, 98776, Note_on_c, 0, 50, 0
1, 98776, Note_on_c, 0, 38, 0
1, 98838, Note_on_c, 0, 81, 0
1, 98838, Note_on_c, 0, 76, 0
1, 98838, Note_on_c, 0, 85, 0
1, 98841, Note_on_c, 0, 45, 75
1, 98841, Note_on_c, 0, 33, 65
1, 98900, Note_on_c, 0, 33, 0
1, 98900, Note_on_c, 0, 45, 0
1, 98961, Note_on_c, 0, 86, 107
1, 98961, Note_on_c, 0, 65, 87
1, 98961, Note_on_c, 0, 53, 75
1, 98993, Note_on_c, 0, 86, 0
1, 98993, Note_on_c, 0, 88, 86
1, 99024, Note_on_c, 0, 88, 0
1, 99024, Note_on_c, 0, 89, 86
1, 99024, Note_on_c, 0, 53, 0
1, 99027, Note_on_c, 0, 65, 0
1, 99056, Note_on_c, 0, 89, 0
1, 99056, Note_on_c, 0, 91, 86
1, 99088, Note_on_c, 0, 91, 0
1, 99088, Note_on_c, 0, 93, 86
1, 99088, Note_on_c, 0, 38, 65
1, 99091, Note_on_c, 0, 50, 75
1, 99152, Note_on_c, 0, 93, 0
1, 99152, Note_on_c, 0, 50, 0
1, 99152, Note_on_c, 0, 38, 0
1, 99217, Note_on_c, 0, 91, 105
1, 99217, Note_on_c, 0, 52, 75
1, 99217, Note_on_c, 0, 64, 87
1, 99249, Note_on_c, 0, 91, 0
1, 99249, Note_on_c, 0, 89, 87
1, 99280, Note_on_c, 0, 89, 0
1, 99280, Note_on_c, 0, 88, 87
1, 99280, Note_on_c, 0, 64, 0
1, 99283, Note_on_c, 0, 52, 0
1, 99312, Note_on_c, 0, 88, 0
1, 99312, Note_on_c, 0, 86, 87
1, 99343, Note_on_c, 0, 86, 0
1, 99343, Note_on_c, 0, 84, 88
1, 99343, Note_on_c, 0, 38, 65
1, 99346, Note_on_c, 0, 50, 75
1, 99408, Note_on_c, 0, 84, 0
1, 99408, Note_on_c, 0, 50, 0
1, 99408, Note_on_c, 0, 38, 0
1, 99473, Note_on_c, 0, 82, 105
1, 99473, Note_on_c, 0, 62, 87
1, 99473, Note_on_c, 0, 50, 75
1, 99505, Note_on_c, 0, 82, 0
1, 99505, Note_on_c, 0, 84, 87
1, 99536, Note_on_c, 0, 84, 0
1, 99536, Note_on_c, 0, 86, 87
1, 99536, Note_on_c, 0, 50, 0
1, 99539, Note_on_c, 0, 62, 0
1, 99568, Note_on_c, 0, 86, 0
1, 99568, Note_on_c, 0, 88, 87
1, 99599, Note_on_c, 0, 88, 0
1, 99599, Note_on_c, 0, 89, 87
1, 99599, Note_on_c, 0, 38, 65
1, 99602, Note_on_c, 0, 50, 75
1, 99664, Note_on_c, 0, 89, 0
1, 99664, Note_on_c, 0, 50, 0
1, 99664, Note_on_c, 0, 38, 0
1, 99729, Note_on_c, 0, 88, 105
1, 99729, Note_on_c, 0, 48, 75
1, 99729, Note_on_c, 0, 60, 87
1, 99761, Note_on_c, 0, 88, 0
1, 99761, Note_on_c, 0, 86, 87
1, 99792, Note_on_c, 0, 86, 0
1, 99792, Note_on_c, 0, 84, 87
1, 99792, Note_on_c, 0, 60, 0
1, 99795, Note_on_c, 0, 48, 0
1, 99824, Note_on_c, 0, 84, 0
1, 99824, Note_on_c, 0, 82, 87
1, 99855, Note_on_c, 0, 82, 0
1, 99855, Note_on_c, 0, 81, 87
1, 99855, Note_on_c, 0, 38, 65
1, 99858, Note_on_c, 0, 50, 75
1, 99920, Note_on_c, 0, 81, 0
1, 99920, Note_on_c, 0, 50, 0
1, 99920, Note_on_c, 0, 38, 0
1, 99985, Note_on_c, 0, 79, 105
1, 99985, Note_on_c, 0, 46, 75
1, 99985, Note_on_c, 0, 58, 87
1, 100017, Note_on_c, 0, 79, 0
1, 100017, Note_on_c, 0, 81, 89
1, 100048, Note_on_c, 0, 81, 0
1, 100048, Note_on_c, 0, 82, 89
1, 100048, Note_on_c, 0, 58, 0
1, 100051, Note_on_c, 0, 46, 0
1, 100080, Note_on_c, 0, 82, 0
1, 100080, Note_on_c, 0, 84, 89
1, 100111, Note_on_c, 0, 84, 0
1, 100111, Note_on_c, 0, 86, 89
1, 100111, Note_on_c, 0, 38, 65
1, 100114, Note_on_c, 0, 50, 75
1, 100176, Note_on_c, 0, 86, 0
1, 100176, Note_on_c, 0, 50, 0
1, 100176, Note_on_c, 0, 38, 0
1, 100241, Note_on_c, 0, 84, 105
1, 100241, Note_on_c, 0, 45, 75
1, 100241, Note_on_c, 0, 57, 87
1, 100273, Note_on_c, 0, 84, 0
1, 100273, Note_on_c, 0, 82, 89
1, 100304, Note_on_c, 0, 82, 0
1, 100304, Note_on_c, 0, 81, 88
1, 100304, Note_on_c, 0, 57, 0
1, 100307, Note_on_c, 0, 45, 0
1, 100336, Note_on_c, 0, 81, 0
1, 100336, Note_on_c, 0, 79, 88
1, 100367, Note_on_c, 0, 79, 0
1, 100367, Note_on_c, 0, 77, 88
1, 100367, Note_on_c, 0, 38, 65
1, 100370, Note_on_c, 0, 50, 75
1, 100432, Note_on_c, 0, 77, 0
1, 100432, Note_on_c, 0, 50, 0
1, 100432, Note_on_c, 0, 38, 0
1, 100497, Note_on_c, 0, 81, 96
1, 100497, Note_on_c, 0, 88, 96
1, 100497, Note_on_c, 0, 76, 96
1, 100500, Note_on_c, 0, 43, 75
1, 100500, Note_on_c, 0, 55, 87
1, 100561, Note_on_c, 0, 76, 0
1, 100561, Note_on_c, 0, 88, 0
1, 100561, Note_on_c, 0, 81, 0
1, 100564, Note_on_c, 0, 55, 0
1, 100564, Note_on_c, 0, 43, 0
1, 100625, Note_on_c, 0, 76, 96
1, 100625, Note_on_c, 0, 81, 96
1, 100625, Note_on_c, 0, 88, 96
1, 100628, Note_on_c, 0, 38, 65
1, 100628, Note_on_c, 0, 50, 75
1, 100688, Note_on_c, 0, 50, 0
1, 100688, Note_on_c, 0, 38, 0
1, 100752, Note_on_c, 0, 43, 75
1, 100752, Note_on_c, 0, 55, 87
1, 100815, Note_on_c, 0, 55, 0
1, 100815, Note_on_c, 0, 43, 0
1, 100879, Note_on_c, 0, 88, 0
1, 100879, Note_on_c, 0, 81, 0
1, 100879, Note_on_c, 0, 76, 0
1, 100882, Note_on_c, 0, 38, 65
1, 100882, Note_on_c, 0, 50, 75
1, 100942, Note_on_c, 0, 50, 0
1, 100942, Note_on_c, 0, 38, 0
1, 101006, Note_on_c, 0, 82, 94
1, 101006, Note_on_c, 0, 62, 87
1, 101006, Note_on_c, 0, 50, 75
1, 101037, Note_on_c, 0, 82, 0
1, 101037, Note_on_c, 0, 84, 86
1, 101069, Note_on_c, 0, 84, 0
1, 101069, Note_on_c, 0, 86, 86
1, 101069, Note_on_c, 0, 50, 0
1, 101072, Note_on_c, 0, 62, 0
1, 101100, Note_on_c, 0, 86, 0
1, 101100, Note_on_c, 0, 88, 86
1, 101132, Note_on_c, 0, 88, 0
1, 101132, Note_on_c, 0, 89, 86
1, 101132, Note_on_c, 0, 38, 65
1, 101135, Note_on_c, 0, 50, 75
1, 101197, Note_on_c, 0, 89, 0
1, 101197, Note_on_c, 0, 50, 0
1, 101197, Note_on_c, 0, 38, 0
1, 101262, Note_on_c, 0, 88, 94
1, 101262, Note_on_c, 0, 48, 75
1, 101262, Note_on_c, 0, 60, 87
1, 101293, Note_on_c, 0, 88, 0
1, 101293, Note_on_c, 0, 86, 87
1, 101325, Note_on_c, 0, 86, 0
1, 101325, Note_on_c, 0, 84, 87
1, 101325, Note_on_c, 0, 60, 0
1, 101328, Note_on_c, 0, 48, 0
1, 101356, Note_on_c, 0, 84, 0
1, 101356, Note_on_c, 0, 82, 87
1, 101388, Note_on_c, 0, 82, 0
1, 101388, Note_on_c, 0, 81, 88
1, 101388, Note_on_c, 0, 38, 65
1, 101391, Note_on_c, 0, 50, 75
1, 101453, Note_on_c, 0, 81, 0
1, 101453, Note_on_c, 0, 50, 0
1, 101453, Note_on_c, 0, 38, 0
1, 101518, Note_on_c, 0, 79, 94
1, 101518, Note_on_c, 0, 58, 87
1, 101518, Note_on_c, 0, 46, 75
1, 101549, Note_on_c, 0, 79, 0
1, 101549, Note_on_c, 0, 81, 87
1, 101581, Note_on_c, 0, 81, 0
1, 101581, Note_on_c, 0, 82, 87
1, 101581, Note_on_c, 0, 46, 0
1, 101584, Note_on_c, 0, 58, 0
1, 101612, Note_on_c, 0, 82, 0
1, 101612, Note_on_c, 0, 84, 87
1, 101644, Note_on_c, 0, 84, 0
1, 101644, Note_on_c, 0, 86, 87
1, 101644, Note_on_c, 0, 38, 65
1, 101647, Note_on_c, 0, 50, 75
1, 101709, Note_on_c, 0, 86, 0
1, 101709, Note_on_c, 0, 50, 0
1, 101709, Note_on_c, 0, 38, 0
1, 101773, Note_on_c, 0, 84, 94
1, 101773, Note_on_c, 0, 45, 75
1, 101773, Note_on_c, 0, 57, 87
1, 101805, Note_on_c, 0, 84, 0
1, 101805, Note_on_c, 0, 82, 87
1, 101836, Note_on_c, 0, 82, 0
1, 101836, Note_on_c, 0, 81, 87
1, 101836, Note_on_c, 0, 57, 0
1, 101839, Note_on_c, 0, 45, 0
1, 101868, Note_on_c, 0, 81, 0
1, 101868, Note_on_c, 0, 79, 87
1, 101900, Note_on_c, 0, 79, 0
1, 101900, Note_on_c, 0, 77, 87
1, 101900, Note_on_c, 0, 38, 65
1, 101903, Note_on_c, 0, 50, 75
1, 101964, Note_on_c, 0, 77, 0
1, 101964, Note_on_c, 0, 50, 0
1, 101964, Note_on_c, 0, 38, 0
1, 102029, Note_on_c, 0, 75, 96
1, 102029, Note_on_c, 0, 43, 75
1, 102029, Note_on_c, 0, 55, 87
1, 102061, Note_on_c, 0, 75, 0
1, 102061, Note_on_c, 0, 77, 86
1, 102092, Note_on_c, 0, 77, 0
1, 102092, Note_on_c, 0, 79, 86
1, 102092, Note_on_c, 0, 55, 0
1, 102095, Note_on_c, 0, 43, 0
1, 102124, Note_on_c, 0, 79, 0
1, 102124, Note_on_c, 0, 81, 86
1, 102155, Note_on_c, 0, 81, 0
1, 102155, Note_on_c, 0, 82, 86
1, 102155, Note_on_c, 0, 38, 65
1, 102158, Note_on_c, 0, 50, 75
1, 102220, Note_on_c, 0, 82, 0
1, 102220, Note_on_c, 0, 50, 0
1, 102220, Note_on_c, 0, 38, 0
1, 102285, Note_on_c, 0, 81, 94
1, 102285, Note_on_c, 0, 41, 75
1, 102285, Note_on_c, 0, 53, 87
1, 102317, Note_on_c, 0, 81, 0
1, 102317, Note_on_c, 0, 79, 86
1, 102348, Note_on_c, 0, 79, 0
1, 102348, Note_on_c, 0, 77, 86
1, 102348, Note_on_c, 0, 53, 0
1, 102351, Note_on_c, 0, 41, 0
1, 102380, Note_on_c, 0, 77, 0
1, 102380, Note_on_c, 0, 75, 86
1, 102411, Note_on_c, 0, 75, 0
1, 102411, Note_on_c, 0, 74, 86
1, 102411, Note_on_c, 0, 38, 65
1, 102414, Note_on_c, 0, 50, 75
1, 102476, Note_on_c, 0, 74, 0
1, 102476, Note_on_c, 0, 50, 0
1, 102476, Note_on_c, 0, 38, 0
1, 102541, Note_on_c, 0, 76, 89
1, 102541, Note_on_c, 0, 81, 89
1, 102541, Note_on_c, 0, 69, 89
1, 102544, Note_on_c, 0, 40, 75
1, 102544, Note_on_c, 0, 52, 87
1, 102605, Note_on_c, 0, 69, 0
1, 102605, Note_on_c, 0, 81, 0
1, 102605, Note_on_c, 0, 76, 0
1, 102608, Note_on_c, 0, 52, 0
1, 102608, Note_on_c, 0, 40, 0
1, 102669, Note_on_c, 0, 69, 89
1, 102669, Note_on_c, 0, 76, 89
1, 102669, Note_on_c, 0, 81, 89
1, 102672, Note_on_c, 0, 38, 65
1, 102672, Note_on_c, 0, 50, 75
1, 102733, Note_on_c, 0, 50, 0
1, 102733, Note_on_c, 0, 38, 0
1, 102796, Note_on_c, 0, 40, 75
1, 102796, Note_on_c, 0, 52, 87
1, 102860, Note_on_c, 0, 52, 0
1, 102860, Note_on_c, 0, 40, 0
1, 102923, Note_on_c, 0, 81, 0
1, 102923, Note_on_c, 0, 76, 0
1, 102923, Note_on_c, 0, 69, 0
1, 102926, Note_on_c, 0, 38, 65
1, 102926, Note_on_c, 0, 50, 75
1, 102986, Note_on_c, 0, 50, 0
1, 102986, Note_on_c, 0, 38, 0
1, 103050, Note_on_c, 0, 74, 85
1, 103050, Note_on_c, 0, 53, 72
1, 103082, Note_on_c, 0, 74, 0
1, 103082, Note_on_c, 0, 76, 76
1, 103114, Note_on_c, 0, 76, 0
1, 103114, Note_on_c, 0, 77, 76
1, 103114, Note_on_c, 0, 53, 0
1, 103145, Note_on_c, 0, 77, 0
1, 103145, Note_on_c, 0, 79, 76
1, 103177, Note_on_c, 0, 79, 0
1, 103177, Note_on_c, 0, 81, 76
1, 103177, Note_on_c, 0, 38, 62
1, 103242, Note_on_c, 0, 81, 0
1, 103242, Note_on_c, 0, 38, 0
1, 103307, Note_on_c, 0, 79, 87
1, 103307, Note_on_c, 0, 52, 70
1, 103338, Note_on_c, 0, 79, 0
1, 103338, Note_on_c, 0, 77, 75
1, 103370, Note_on_c, 0, 77, 0
1, 103370, Note_on_c, 0, 76, 75
1, 103370, Note_on_c, 0, 52, 0
1, 103402, Note_on_c, 0, 76, 0
1, 103402, Note_on_c, 0, 74, 75
1, 103434, Note_on_c, 0, 74, 0
1, 103434, Note_on_c, 0, 72, 75
1, 103434, Note_on_c, 0, 38, 61
1, 103498, Note_on_c, 0, 72, 0
1, 103498, Note_on_c, 0, 38, 0
1, 103563, Note_on_c, 0, 70, 83
1, 103563, Note_on_c, 0, 50, 69
1, 103595, Note_on_c, 0, 70, 0
1, 103595, Note_on_c, 0, 72, 75
1, 103627, Note_on_c, 0, 72, 0
1, 103627, Note_on_c, 0, 74, 74
1, 103627, Note_on_c, 0, 50, 0
1, 103659, Note_on_c, 0, 74, 0
1, 103659, Note_on_c, 0, 76, 74
1, 103690, Note_on_c, 0, 76, 0
1, 103690, Note_on_c, 0, 77, 74
1, 103690, Note_on_c, 0, 38, 60
1, 103755, Note_on_c, 0, 77, 0
1, 103755, Note_on_c, 0, 38, 0
1, 103820, Note_on_c, 0, 76, 82
1, 103820, Note_on_c, 0, 48, 68
1, 103851, Note_on_c, 0, 76, 0
1, 103851, Note_on_c, 0, 74, 74
1, 103883, Note_on_c, 0, 74, 0
1, 103883, Note_on_c, 0, 72, 73
1, 103883, Note_on_c, 0, 48, 0
1, 103914, Note_on_c, 0, 72, 0
1, 103914, Note_on_c, 0, 70, 73
1, 103946, Note_on_c, 0, 70, 0
1, 103946, Note_on_c, 0, 69, 73
1, 103946, Note_on_c, 0, 38, 59
1, 104011, Note_on_c, 0, 69, 0
1, 104011, Note_on_c, 0, 38, 0
1, 104076, Note_on_c, 0, 67, 81
1, 104076, Note_on_c, 0, 46, 67
1, 104107, Note_on_c, 0, 67, 0
1, 104107, Note_on_c, 0, 69, 73
1, 104139, Note_on_c, 0, 69, 0
1, 104139, Note_on_c, 0, 70, 73
1, 104139, Note_on_c, 0, 46, 0
1, 104171, Note_on_c, 0, 70, 0
1, 104171, Note_on_c, 0, 72, 72
1, 104202, Note_on_c, 0, 72, 0
1, 104202, Note_on_c, 0, 74, 72
1, 104202, Note_on_c, 0, 38, 58
1, 104267, Note_on_c, 0, 74, 0
1, 104267, Note_on_c, 0, 38, 0
1, 104332, Note_on_c, 0, 72, 81
1, 104332, Note_on_c, 0, 45, 66
1, 104364, Note_on_c, 0, 72, 0
1, 104364, Note_on_c, 0, 70, 72
1, 104395, Note_on_c, 0, 70, 0
1, 104395, Note_on_c, 0, 69, 72
1, 104395, Note_on_c, 0, 45, 0
1, 104427, Note_on_c, 0, 69, 0
1, 104427, Note_on_c, 0, 67, 70
1, 104459, Note_on_c, 0, 67, 0
1, 104459, Note_on_c, 0, 65, 70
1, 104459, Note_on_c, 0, 38, 58
1, 104524, Note_on_c, 0, 65, 0
1, 104524, Note_on_c, 0, 38, 0
1, 104588, Note_on_c, 0, 64, 81
1, 104588, Note_on_c, 0, 69, 81
1, 104588, Note_on_c, 0, 76, 81
1, 104591, Note_on_c, 0, 43, 65
1, 104652, Note_on_c, 0, 76, 0
1, 104652, Note_on_c, 0, 69, 0
1, 104652, Note_on_c, 0, 64, 0
1, 104655, Note_on_c, 0, 43, 0
1, 104717, Note_on_c, 0, 64, 82
1, 104717, Note_on_c, 0, 69, 82
1, 104717, Note_on_c, 0, 76, 82
1, 104720, Note_on_c, 0, 38, 57
1, 104780, Note_on_c, 0, 38, 0
1, 104843, Note_on_c, 0, 43, 64
1, 104906, Note_on_c, 0, 43, 0
1, 104970, Note_on_c, 0, 76, 0
1, 104970, Note_on_c, 0, 69, 0
1, 104970, Note_on_c, 0, 64, 0
1, 104973, Note_on_c, 0, 38, 56
1, 105033, Note_on_c, 0, 38, 0
1, 105096, Note_on_c, 0, 70, 68
1, 105096, Note_on_c, 0, 50, 59
1, 105128, Note_on_c, 0, 70, 0
1, 105128, Note_on_c, 0, 72, 64
1, 105160, Note_on_c, 0, 72, 0
1, 105160, Note_on_c, 0, 74, 64
1, 105160, Note_on_c, 0, 50, 0
1, 105192, Note_on_c, 0, 74, 0
1, 105192, Note_on_c, 0, 76, 64
1, 105223, Note_on_c, 0, 76, 0
1, 105223, Note_on_c, 0, 77, 64
1, 105223, Note_on_c, 0, 38, 51
1, 105288, Note_on_c, 0, 77, 0
1, 105288, Note_on_c, 0, 38, 0
1, 105353, Note_on_c, 0, 76, 70
1, 105353, Note_on_c, 0, 48, 58
1, 105385, Note_on_c, 0, 76, 0
1, 105385, Note_on_c, 0, 74, 64
1, 105417, Note_on_c, 0, 74, 0
1, 105417, Note_on_c, 0, 72, 64
1, 105417, Note_on_c, 0, 48, 0
1, 105449, Note_on_c, 0, 72, 0
1, 105449, Note_on_c, 0, 70, 64
1, 105480, Note_on_c, 0, 70, 0
1, 105480, Note_on_c, 0, 69, 65
1, 105480, Note_on_c, 0, 38, 51
1, 105545, Note_on_c, 0, 69, 0
1, 105545, Note_on_c, 0, 38, 0
1, 105610, Note_on_c, 0, 67, 69
1, 105610, Note_on_c, 0, 46, 58
1, 105642, Note_on_c, 0, 67, 0
1, 105642, Note_on_c, 0, 69, 64
1, 105674, Note_on_c, 0, 69, 0
1, 105674, Note_on_c, 0, 70, 64
1, 105674, Note_on_c, 0, 46, 0
1, 105706, Note_on_c, 0, 70, 0
1, 105706, Note_on_c, 0, 72, 64
1, 105737, Note_on_c, 0, 72, 0
1, 105737, Note_on_c, 0, 74, 62
1, 105737, Note_on_c, 0, 38, 50
1, 105802, Note_on_c, 0, 74, 0
1, 105802, Note_on_c, 0, 38, 0
1, 105867, Note_on_c, 0, 72, 66
1, 105867, Note_on_c, 0, 45, 57
1, 105899, Note_on_c, 0, 72, 0
1, 105899, Note_on_c, 0, 70, 62
1, 105931, Note_on_c, 0, 70, 0
1, 105931, Note_on_c, 0, 69, 62
1, 105931, Note_on_c, 0, 45, 0
1, 105963, Note_on_c, 0, 69, 0
1, 105963, Note_on_c, 0, 67, 62
1, 105995, Note_on_c, 0, 67, 0
1, 105995, Note_on_c, 0, 65, 62
1, 105995, Note_on_c, 0, 38, 50
1, 106060, Note_on_c, 0, 65, 0
1, 106060, Note_on_c, 0, 38, 0
1, 106124, Note_on_c, 0, 63, 66
1, 106124, Note_on_c, 0, 43, 57
1, 106156, Note_on_c, 0, 63, 0
1, 106156, Note_on_c, 0, 65, 61
1, 106188, Note_on_c, 0, 65, 0
1, 106188, Note_on_c, 0, 67, 61
1, 106188, Note_on_c, 0, 43, 0
1, 106220, Note_on_c, 0, 67, 0
1, 106220, Note_on_c, 0, 69, 61
1, 106252, Note_on_c, 0, 69, 0
1, 106252, Note_on_c, 0, 70, 61
1, 106252, Note_on_c, 0, 38, 50
1, 106317, Note_on_c, 0, 70, 0
1, 106317, Note_on_c, 0, 38, 0
1, 106382, Note_on_c, 0, 69, 65
1, 106382, Note_on_c, 0, 41, 56
1, 106413, Note_on_c, 0, 69, 0
1, 106413, Note_on_c, 0, 67, 60
1, 106445, Note_on_c, 0, 67, 0
1, 106445, Note_on_c, 0, 65, 60
1, 106445, Note_on_c, 0, 41, 0
1, 106477, Note_on_c, 0, 65, 0
1, 106477, Note_on_c, 0, 63, 60
1, 106509, Note_on_c, 0, 63, 0
1, 106509, Note_on_c, 0, 62, 60
1, 106509, Note_on_c, 0, 38, 49
1, 106574, Note_on_c, 0, 62, 0
1, 106574, Note_on_c, 0, 38, 0
1, 106639, Note_on_c, 0, 57, 53
1, 106639, Note_on_c, 0, 64, 53
1, 106639, Note_on_c, 0, 69, 61
1, 106642, Note_on_c, 0, 40, 56
1, 106703, Note_on_c, 0, 69, 0
1, 106703, Note_on_c, 0, 64, 0
1, 106703, Note_on_c, 0, 57, 0
1, 106706, Note_on_c, 0, 40, 0
1, 106768, Note_on_c, 0, 57, 54
1, 106768, Note_on_c, 0, 64, 54
1, 106768, Note_on_c, 0, 69, 62
1, 106771, Note_on_c, 0, 38, 47
1, 106831, Note_on_c, 0, 38, 0
1, 106895, Note_on_c, 0, 40, 54
1, 106958, Note_on_c, 0, 40, 0
1, 107021, Note_on_c, 0, 69, 0
1, 107021, Note_on_c, 0, 64, 0
1, 107021, Note_on_c, 0, 57, 0
1, 107024, Note_on_c, 0, 38, 47
1, 107085, Note_on_c, 0, 38, 0
1, 107148, Note_on_c, 0, 86, 69
1, 107148, Note_on_c, 0, 39, 57
1, 107180, Note_on_c, 0, 86, 0
1, 107180, Note_on_c, 0, 84, 57
1, 107212, Note_on_c, 0, 84, 0
1, 107212, Note_on_c, 0, 82, 57
1, 107212, Note_on_c, 0, 39, 0
1, 107244, Note_on_c, 0, 82, 0
1, 107244, Note_on_c, 0, 81, 57
1, 107276, Note_on_c, 0, 81, 0
1, 107276, Note_on_c, 0, 79, 61
1, 107276, Note_on_c, 0, 45, 51
1, 107341, Note_on_c, 0, 79, 0
1, 107341, Note_on_c, 0, 45, 0
1, 107406, Note_on_c, 0, 74, 70
1, 107406, Note_on_c, 0, 39, 57
1, 107438, Note_on_c, 0, 74, 0
1, 107438, Note_on_c, 0, 72, 57
1, 107470, Note_on_c, 0, 72, 0
1, 107470, Note_on_c, 0, 70, 57
1, 107470, Note_on_c, 0, 39, 0
1, 107502, Note_on_c, 0, 70, 0
1, 107502, Note_on_c, 0, 69, 57
1, 107534, Note_on_c, 0, 69, 0
1, 107534, Note_on_c, 0, 67, 61
1, 107534, Note_on_c, 0, 45, 51
1, 107599, Note_on_c, 0, 67, 0
1, 107599, Note_on_c, 0, 45, 0
1, 107664, Note_on_c, 0, 38, 57
1, 107730, Note_on_c, 0, 38, 0
1, 107795, Note_on_c, 0, 69, 61
1, 107795, Note_on_c, 0, 57, 53
1, 107795, Note_on_c, 0, 64, 53
1, 107798, Note_on_c, 0, 45, 51
1, 107859, Note_on_c, 0, 45, 0
1, 107923, Note_on_c, 0, 38, 58
1, 107987, Note_on_c, 0, 38, 0
1, 108051, Note_on_c, 0, 45, 51
1, 108115, Note_on_c, 0, 45, 0
1, 108179, Note_on_c, 0, 64, 0
1, 108179, Note_on_c, 0, 57, 0
1, 108179, Note_on_c, 0, 69, 0
1, 108182, Note_on_c, 0, 86, 69
1, 108182, Note_on_c, 0, 39, 57
1, 108211, Note_on_c, 0, 86, 0
1, 108211, Note_on_c, 0, 84, 57
1, 108243, Note_on_c, 0, 84, 0
1, 108243, Note_on_c, 0, 82, 57
1, 108243, Note_on_c, 0, 39, 0
1, 108275, Note_on_c, 0, 82, 0
1, 108275, Note_on_c, 0, 81, 57
1, 108307, Note_on_c, 0, 81, 0
1, 108307, Note_on_c, 0, 79, 61
1, 108307, Note_on_c, 0, 45, 51
1, 108373, Note_on_c, 0, 79, 0
1, 108373, Note_on_c, 0, 45, 0
1, 108438, Note_on_c, 0, 74, 70
1, 108438, Note_on_c, 0, 39, 57
1, 108470, Note_on_c, 0, 74, 0
1, 108470, Note_on_c, 0, 72, 57
1, 108502, Note_on_c, 0, 72, 0
1, 108502, Note_on_c, 0, 70, 57
1, 108502, Note_on_c, 0, 39, 0
1, 108534, Note_on_c, 0, 70, 0
1, 108534, Note_on_c, 0, 69, 57
1, 108566, Note_on_c, 0, 69, 0
1, 108566, Note_on_c, 0, 67, 61
1, 108566, Note_on_c, 0, 45, 51
1, 108632, Note_on_c, 0, 67, 0
1, 108632, Note_on_c, 0, 45, 0
1, 108697, Note_on_c, 0, 38, 57
1, 108762, Note_on_c, 0, 38, 0
1, 108827, Note_on_c, 0, 69, 53
1, 108827, Note_on_c, 0, 57, 46
1, 108827, Note_on_c, 0, 64, 46
1, 108830, Note_on_c, 0, 45, 51
1, 108892, Note_on_c, 0, 64, 0
1, 108892, Note_on_c, 0, 57, 0
1, 108892, Note_on_c, 0, 69, 0
1, 108895, Note_on_c, 0, 45, 0
1, 108957, Note_on_c, 0, 74, 61
1, 108957, Note_on_c, 0, 39, 58
1, 108988, Note_on_c, 0, 74, 0
1, 108988, Note_on_c, 0, 72, 56
1, 109020, Note_on_c, 0, 72, 0
1, 109020, Note_on_c, 0, 70, 56
1, 109020, Note_on_c, 0, 39, 0
1, 109052, Note_on_c, 0, 70, 0
1, 109052, Note_on_c, 0, 69, 56
1, 109084, Note_on_c, 0, 69, 0
1, 109084, Note_on_c, 0, 67, 60
1, 109084, Note_on_c, 0, 45, 49
1, 109147, Note_on_c, 0, 67, 0
1, 109147, Note_on_c, 0, 45, 0
1, 109211, Note_on_c, 0, 38, 53
1, 109275, Note_on_c, 0, 38, 0
1, 109339, Note_on_c, 0, 69, 53
1, 109339, Note_on_c, 0, 57, 46
1, 109339, Note_on_c, 0, 64, 46
1, 109342, Note_on_c, 0, 45, 51
1, 109403, Note_on_c, 0, 64, 0
1, 109403, Note_on_c, 0, 57, 0
1, 109403, Note_on_c, 0, 69, 0
1, 109406, Note_on_c, 0, 45, 0
1, 109467, Note_on_c, 0, 74, 52
1, 109467, Note_on_c, 0, 39, 53
1, 109498, Note_on_c, 0, 74, 0
1, 109498, Note_on_c, 0, 72, 52
1, 109530, Note_on_c, 0, 72, 0
1, 109530, Note_on_c, 0, 70, 52
1, 109530, Note_on_c, 0, 39, 0
1, 109561, Note_on_c, 0, 70, 0
1, 109561, Note_on_c, 0, 69, 52
1, 109593, Note_on_c, 0, 69, 0
1, 109593, Note_on_c, 0, 67, 50
1, 109593, Note_on_c, 0, 45, 46
1, 109656, Note_on_c, 0, 67, 0
1, 109656, Note_on_c, 0, 45, 0
1, 109719, Note_on_c, 0, 38, 53
1, 109781, Note_on_c, 0, 38, 0
1, 109843, Note_on_c, 0, 69, 50
1, 109843, Note_on_c, 0, 57, 44
1, 109843, Note_on_c, 0, 64, 44
1, 109846, Note_on_c, 0, 45, 49
1, 109905, Note_on_c, 0, 64, 0
1, 109905, Note_on_c, 0, 57, 0
1, 109905, Note_on_c, 0, 69, 0
1, 109908, Note_on_c, 0, 45, 0
1, 109967, Note_on_c, 0, 74, 50
1, 109967, Note_on_c, 0, 39, 52
1, 109999, Note_on_c, 0, 74, 0
1, 109999, Note_on_c, 0, 72, 50
1, 110030, Note_on_c, 0, 72, 0
1, 110030, Note_on_c, 0, 70, 50
1, 110030, Note_on_c, 0, 39, 0
1, 110061, Note_on_c, 0, 70, 0
1, 110061, Note_on_c, 0, 69, 49
1, 110093, Note_on_c, 0, 69, 0
1, 110093, Note_on_c, 0, 67, 46
1, 110093, Note_on_c, 0, 45, 44
1, 110156, Note_on_c, 0, 67, 0
1, 110156, Note_on_c, 0, 45, 0
1, 110218, Note_on_c, 0, 38, 49
1, 110280, Note_on_c, 0, 38, 0
1, 110342, Note_on_c, 0, 69, 46
1, 110342, Note_on_c, 0, 57, 46
1, 110342, Note_on_c, 0, 64, 46
1, 110345, Note_on_c, 0, 45, 46
1, 110404, Note_on_c, 0, 64, 0
1, 110404, Note_on_c, 0, 57, 0
1, 110404, Note_on_c, 0, 69, 0
1, 110407, Note_on_c, 0, 45, 0
1, 110466, Note_on_c, 0, 74, 47
1, 110466, Note_on_c, 0, 39, 47
1, 110497, Note_on_c, 0, 74, 0
1, 110497, Note_on_c, 0, 72, 47
1, 110529, Note_on_c, 0, 72, 0
1, 110529, Note_on_c, 0, 70, 47
1, 110529, Note_on_c, 0, 39, 0
1, 110560, Note_on_c, 0, 70, 0
1, 110560, Note_on_c, 0, 69, 47
1, 110591, Note_on_c, 0, 69, 0
1, 110591, Note_on_c, 0, 67, 45
1, 110591, Note_on_c, 0, 45, 42
1, 110654, Note_on_c, 0, 67, 0
1, 110654, Note_on_c, 0, 45, 0
1, 110716, Note_on_c, 0, 38, 51
1, 110785, Note_on_c, 0, 38, 0
1, 110853, Note_on_c, 0, 45, 49
1, 110922, Note_on_c, 0, 45, 0
1, 110990, Note_on_c, 0, 38, 51
1, 111059, Note_on_c, 0, 38, 0
1, 111127, Note_on_c, 0, 50, 56
1, 111127, Note_on_c, 0, 45, 49
1, 111160, Note_on_c, 0, 50, 0
1, 111160, Note_on_c, 0, 52, 56
1, 111193, Note_on_c, 0, 52, 0
1, 111193, Note_on_c, 0, 53, 56
1, 111193, Note_on_c, 0, 45, 0
1, 111226, Note_on_c, 0, 53, 0
1, 111226, Note_on_c, 0, 55, 56
1, 111259, Note_on_c, 0, 55, 0
1, 111259, Note_on_c, 0, 57, 60
1, 111259, Note_on_c, 0, 38, 51
1, 111327, Note_on_c, 0, 57, 0
1, 111327, Note_on_c, 0, 38, 0
1, 111395, Note_on_c, 0, 50, 46
1, 111395, Note_on_c, 0, 53, 46
1, 111395, Note_on_c, 0, 62, 53
1, 111398, Note_on_c, 0, 45, 49
1, 111462, Note_on_c, 0, 62, 0
1, 111462, Note_on_c, 0, 53, 0
1, 111462, Note_on_c, 0, 50, 0
1, 111465, Note_on_c, 0, 45, 0
1, 111529, Note_on_c, 0, 50, 46
1, 111529, Note_on_c, 0, 53, 46
1, 111529, Note_on_c, 0, 62, 53
1, 111532, Note_on_c, 0, 38, 51
1, 111597, Note_on_c, 0, 62, 0
1, 111597, Note_on_c, 0, 53, 0
1, 111597, Note_on_c, 0, 50, 0
1, 111600, Note_on_c, 0, 38, 0
1, 111665, Note_on_c, 0, 50, 46
1, 111665, Note_on_c, 0, 53, 46
1, 111665, Note_on_c, 0, 61, 53
1, 111668, Note_on_c, 0, 45, 49
1, 111732, Note_on_c, 0, 61, 0
1, 111732, Note_on_c, 0, 53, 0
1, 111732, Note_on_c, 0, 50, 0
1, 111735, Note_on_c, 0, 45, 0
1, 111798, Note_on_c, 0, 53, 49
1, 111798, Note_on_c, 0, 61, 56
1, 111798, Note_on_c, 0, 50, 49
1, 111801, Note_on_c, 0, 38, 51
1, 111866, Note_on_c, 0, 50, 0
1, 111866, Note_on_c, 0, 61, 0
1, 111866, Note_on_c, 0, 53, 0
1, 111869, Note_on_c, 0, 38, 0
1, 111934, Note_on_c, 0, 50, 46
1, 111934, Note_on_c, 0, 53, 46
1, 111934, Note_on_c, 0, 60, 53
1, 111937, Note_on_c, 0, 45, 49
1, 112000, Note_on_c, 0, 60, 0
1, 112000, Note_on_c, 0, 53, 0
1, 112000, Note_on_c, 0, 50, 0
1, 112003, Note_on_c, 0, 45, 0
1, 112066, Note_on_c, 0, 50, 46
1, 112066, Note_on_c, 0, 53, 46
1, 112066, Note_on_c, 0, 60, 53
1, 112069, Note_on_c, 0, 38, 51
1, 112133, Note_on_c, 0, 60, 0
1, 112133, Note_on_c, 0, 53, 0
1, 112133, Note_on_c, 0, 50, 0
1, 112136, Note_on_c, 0, 38, 0
1, 112199, Note_on_c, 0, 50, 46
1, 112199, Note_on_c, 0, 53, 46
1, 112199, Note_on_c, 0, 59, 53
1, 112202, Note_on_c, 0, 45, 49
1, 112264, Note_on_c, 0, 59, 0
1, 112264, Note_on_c, 0, 53, 0
1, 112264, Note_on_c, 0, 50, 0
1, 112267, Note_on_c, 0, 45, 0
1, 112329, Note_on_c, 0, 50, 49
1, 112329, Note_on_c, 0, 53, 49
1, 112329, Note_on_c, 0, 59, 56
1, 112332, Note_on_c, 0, 38, 51
1, 112396, Note_on_c, 0, 59, 0
1, 112396, Note_on_c, 0, 53, 0
1, 112396, Note_on_c, 0, 50, 0
1, 112399, Note_on_c, 0, 38, 0
1, 112463, Note_on_c, 0, 53, 45
1, 112463, Note_on_c, 0, 58, 52
1, 112463, Note_on_c, 0, 50, 45
1, 112466, Note_on_c, 0, 45, 47
1, 112528, Note_on_c, 0, 50, 0
1, 112528, Note_on_c, 0, 58, 0
1, 112528, Note_on_c, 0, 53, 0
1, 112531, Note_on_c, 0, 45, 0
1, 112594, Note_on_c, 0, 50, 45
1, 112594, Note_on_c, 0, 53, 45
1, 112594, Note_on_c, 0, 58, 52
1, 112597, Note_on_c, 0, 38, 51
1, 112662, Note_on_c, 0, 58, 0
1, 112662, Note_on_c, 0, 53, 0
1, 112662, Note_on_c, 0, 50, 0
1, 112665, Note_on_c, 0, 38, 0
1, 112730, Note_on_c, 0, 50, 44
1, 112730, Note_on_c, 0, 53, 44
1, 112730, Note_on_c, 0, 57, 51
1, 112733, Note_on_c, 0, 45, 47
1, 112796, Note_on_c, 0, 45, 0
1, 112862, Note_on_c, 0, 38, 53
1, 112929, Note_on_c, 0, 38, 0
1, 112995, Note_on_c, 0, 45, 50
1, 113061, Note_on_c, 0, 45, 0
1, 113128, Note_on_c, 0, 38, 53
1, 113194, Note_on_c, 0, 38, 0
1, 113260, Note_on_c, 0, 45, 51
1, 113326, Note_on_c, 0, 45, 0
1, 113393, Note_on_c, 0, 57, 0
1, 113393, Note_on_c, 0, 53, 0
1, 113393, Note_on_c, 0, 50, 0
1, 113396, Note_on_c, 0, 38, 52
1, 113459, Note_on_c, 0, 38, 0
1, 113525, Note_on_c, 0, 45, 50
1, 113591, Note_on_c, 0, 45, 0
1, 113658, Note_on_c, 0, 50, 52
1, 113725, Note_on_c, 0, 50, 0
1, 113792, Note_on_c, 0, 57, 50
1, 113859, Note_on_c, 0, 57, 0
1, 113927, Note_on_c, 0, 62, 50
1, 113994, Note_on_c, 0, 62, 0
1, 114063, Note_on_c, 0, 69, 49
1, 114132, Note_on_c, 0, 69, 0
1, 114203, Note_on_c, 0, 74, 46
1, 114282, Note_on_c, 0, 74, 0
1, 114361, Note_on_c, 0, 81, 52
1, 114374, Control_c, 0, 64, 127
1, 115143, Note_on_c, 0, 81, 0
1, 115143, Note_on_c, 0, 86, 113
1, 115143, Note_on_c, 0, 81, 97
1, 115146, Note_on_c, 0, 74, 97
1, 115146, Control_c, 0, 91, 127
1, 115146, Note_on_c, 0, 50, 92
1, 115149, Note_on_c, 0, 38, 79
1, 115149, Note_on_c, 0, 45, 79
1, 115218, Note_on_c, 0, 74, 0
1, 115218, Note_on_c, 0, 81, 0
1, 115218, Note_on_c, 0, 86, 0
1, 115221, Note_on_c, 0, 74, 89
1, 115221, Note_on_c, 0, 81, 89
1, 115221, Note_on_c, 0, 86, 103
1, 115224, Note_on_c, 0, 45, 0
1, 115224, Note_on_c, 0, 38, 0
1, 115224, Note_on_c, 0, 50, 0
1, 115227, Note_on_c, 0, 38, 72
1, 115227, Note_on_c, 0, 50, 84
1, 115227, Note_on_c, 0, 45, 72
1, 115293, Note_on_c, 0, 86, 0
1, 115293, Note_on_c, 0, 81, 0
1, 115293, Note_on_c, 0, 74, 0
1, 115296, Note_on_c, 0, 45, 0
1, 115296, Note_on_c, 0, 50, 0
1, 115296, Note_on_c, 0, 38, 0
1, 115327, Control_c, 0, 64, 0
1, 116825, End_track
0, 0, End_of_file
