0, 0, Header, 0, 1, 384
1, 0, Start_track
1, 0, Tempo, 512820
1, 0, Title_t, "Grieg: Lyrische Stücke Op. 43 No"
1, 0, Program_c, 0, 0
1, 748, Note_on_c, 0, 78, 54
1, 748, Program_c, 0, 0
1, 748, Program_c, 0, 0
1, 751, Control_c, 0, 64, 127
1, 841, Note_on_c, 0, 50, 36
1, 934, Note_on_c, 0, 50, 0
1, 934, Note_on_c, 0, 56, 36
1, 1027, Note_on_c, 0, 78, 0
1, 1027, Note_on_c, 0, 68, 48
1, 1027, Note_on_c, 0, 56, 0
1, 1030, Note_on_c, 0, 59, 36
1, 1120, Note_on_c, 0, 68, 0
1, 1120, Note_on_c, 0, 69, 51
1, 1120, Note_on_c, 0, 59, 0
1, 1123, Note_on_c, 0, 66, 45
1, 1207, Note_on_c, 0, 69, 0
1, 1207, Note_on_c, 0, 70, 52
1, 1207, Note_on_c, 0, 66, 0
1, 1294, Note_on_c, 0, 70, 0
1, 1294, Note_on_c, 0, 71, 53
1, 1381, Note_on_c, 0, 71, 0
1, 1381, Note_on_c, 0, 72, 55
1, 1468, Note_on_c, 0, 72, 0
1, 1468, Note_on_c, 0, 73, 56
1, 1468, Control_c, 0, 64, 0
1, 1554, Note_on_c, 0, 73, 0
1, 1554, Note_on_c, 0, 74, 57
1, 1640, Note_on_c, 0, 74, 0
1, 1640, Note_on_c, 0, 75, 58
1, 1726, Note_on_c, 0, 75, 0
1, 1726, Note_on_c, 0, 76, 59
1, 1811, Note_on_c, 0, 76, 0
1, 1811, Note_on_c, 0, 81, 69
1, 1871, Control_c, 0, 64, 127
1, 1896, Note_on_c, 0, 81, 0
1, 1896, Note_on_c, 0, 76, 60
1, 1896, Note_on_c, 0, 49, 40
1, 1982, Note_on_c, 0, 76, 0
1, 1982, Note_on_c, 0, 73, 62
1, 1982, Note_on_c, 0, 49, 0
1, 1985, Note_on_c, 0, 57, 44
1, 2068, Note_on_c, 0, 73, 0
1, 2068, Note_on_c, 0, 69, 60
1, 2068, Note_on_c, 0, 57, 0
1, 2071, Note_on_c, 0, 64, 40
1, 2163, Note_on_c, 0, 69, 0
1, 2163, Note_on_c, 0, 67, 68
1, 2163, Note_on_c, 0, 64, 0
1, 2167, Control_c, 0, 64, 0
1, 2250, Note_on_c, 0, 46, 40
1, 2254, Control_c, 0, 64, 127
1, 2335, Note_on_c, 0, 46, 0
1, 2335, Note_on_c, 0, 52, 43
1, 2421, Note_on_c, 0, 67, 0
1, 2421, Note_on_c, 0, 76, 49
1, 2421, Note_on_c, 0, 52, 0
1, 2424, Note_on_c, 0, 61, 40
1, 2510, Note_on_c, 0, 76, 0
1, 2510, Note_on_c, 0, 68, 69
1, 2510, Note_on_c, 0, 61, 0
1, 2517, Control_c, 0, 64, 0
1, 2573, Control_c, 0, 64, 127
1, 2599, Note_on_c, 0, 47, 40
1, 2684, Note_on_c, 0, 47, 0
1, 2684, Note_on_c, 0, 52, 43
1, 2769, Note_on_c, 0, 68, 0
1, 2769, Note_on_c, 0, 76, 49
1, 2769, Note_on_c, 0, 52, 0
1, 2772, Note_on_c, 0, 62, 40
1, 2858, Note_on_c, 0, 76, 0
1, 2858, Note_on_c, 0, 67, 70
1, 2858, Note_on_c, 0, 62, 0
1, 2866, Control_c, 0, 64, 0
1, 2934, Control_c, 0, 64, 127
1, 2947, Note_on_c, 0, 46, 38
1, 3031, Note_on_c, 0, 46, 0
1, 3031, Note_on_c, 0, 52, 46
1, 3115, Note_on_c, 0, 67, 0
1, 3115, Note_on_c, 0, 76, 47
1, 3115, Note_on_c, 0, 52, 0
1, 3118, Note_on_c, 0, 61, 38
1, 3205, Note_on_c, 0, 76, 0
1, 3205, Note_on_c, 0, 68, 69
1, 3205, Note_on_c, 0, 61, 0
1, 3215, Control_c, 0, 64, 0
1, 3265, Control_c, 0, 64, 127
1, 3295, Note_on_c, 0, 47, 38
1, 3379, Note_on_c, 0, 47, 0
1, 3379, Note_on_c, 0, 52, 44
1, 3463, Note_on_c, 0, 68, 0
1, 3463, Note_on_c, 0, 77, 49
1, 3463, Note_on_c, 0, 52, 0
1, 3466, Note_on_c, 0, 62, 38
1, 3565, Note_on_c, 0, 77, 0
1, 3565, Note_on_c, 0, 78, 67
1, 3565, Note_on_c, 0, 62, 0
1, 3568, Control_c, 0, 64, 0
1, 3627, Control_c, 0, 64, 127
1, 3658, Note_on_c, 0, 50, 36
1, 3751, Note_on_c, 0, 50, 0
1, 3751, Note_on_c, 0, 56, 36
1, 3844, Note_on_c, 0, 78, 0
1, 3844, Note_on_c, 0, 68, 54
1, 3844, Note_on_c, 0, 56, 0
1, 3847, Note_on_c, 0, 59, 36
1, 3936, Note_on_c, 0, 68, 0
1, 3936, Note_on_c, 0, 69, 53
1, 3936, Note_on_c, 0, 59, 0
1, 3939, Note_on_c, 0, 66, 45
1, 4023, Note_on_c, 0, 69, 0
1, 4023, Note_on_c, 0, 70, 54
1, 4023, Note_on_c, 0, 66, 0
1, 4111, Note_on_c, 0, 70, 0
1, 4111, Note_on_c, 0, 71, 55
1, 4198, Note_on_c, 0, 71, 0
1, 4198, Note_on_c, 0, 72, 57
1, 4284, Note_on_c, 0, 72, 0
1, 4284, Note_on_c, 0, 73, 58
1, 4284, Control_c, 0, 64, 0
1, 4370, Note_on_c, 0, 73, 0
1, 4370, Note_on_c, 0, 74, 60
1, 4456, Note_on_c, 0, 74, 0
1, 4456, Note_on_c, 0, 75, 61
1, 4542, Note_on_c, 0, 75, 0
1, 4542, Note_on_c, 0, 76, 63
1, 4627, Note_on_c, 0, 76, 0
1, 4627, Note_on_c, 0, 81, 69
1, 4688, Control_c, 0, 64, 127
1, 4713, Note_on_c, 0, 81, 0
1, 4713, Note_on_c, 0, 76, 60
1, 4713, Note_on_c, 0, 49, 40
1, 4798, Note_on_c, 0, 76, 0
1, 4798, Note_on_c, 0, 73, 62
1, 4798, Note_on_c, 0, 49, 0
1, 4801, Note_on_c, 0, 57, 44
1, 4885, Note_on_c, 0, 73, 0
1, 4885, Note_on_c, 0, 69, 60
1, 4885, Note_on_c, 0, 57, 0
1, 4888, Note_on_c, 0, 64, 40
1, 4987, Note_on_c, 0, 69, 0
1, 4987, Note_on_c, 0, 85, 76
1, 4987, Note_on_c, 0, 64, 0
1, 4990, Control_c, 0, 64, 0
1, 5049, Control_c, 0, 64, 127
1, 5080, Note_on_c, 0, 57, 39
1, 5174, Note_on_c, 0, 57, 0
1, 5174, Note_on_c, 0, 63, 39
1, 5267, Note_on_c, 0, 85, 0
1, 5267, Note_on_c, 0, 75, 60
1, 5267, Note_on_c, 0, 63, 0
1, 5270, Note_on_c, 0, 66, 40
1, 5359, Note_on_c, 0, 75, 0
1, 5359, Note_on_c, 0, 76, 59
1, 5359, Note_on_c, 0, 66, 0
1, 5362, Note_on_c, 0, 73, 50
1, 5446, Note_on_c, 0, 76, 0
1, 5446, Note_on_c, 0, 77, 61
1, 5446, Note_on_c, 0, 73, 0
1, 5533, Note_on_c, 0, 77, 0
1, 5533, Note_on_c, 0, 78, 63
1, 5620, Note_on_c, 0, 78, 0
1, 5620, Note_on_c, 0, 79, 66
1, 5707, Note_on_c, 0, 79, 0
1, 5707, Note_on_c, 0, 80, 67
1, 5707, Control_c, 0, 64, 0
1, 5793, Note_on_c, 0, 80, 0
1, 5793, Note_on_c, 0, 81, 70
1, 5879, Note_on_c, 0, 81, 0
1, 5879, Note_on_c, 0, 82, 72
1, 5965, Note_on_c, 0, 82, 0
1, 5965, Note_on_c, 0, 83, 75
1, 6050, Note_on_c, 0, 83, 0
1, 6050, Note_on_c, 0, 88, 83
1, 6111, Control_c, 0, 64, 127
1, 6135, Note_on_c, 0, 88, 0
1, 6135, Note_on_c, 0, 83, 73
1, 6135, Note_on_c, 0, 56, 48
1, 6221, Note_on_c, 0, 83, 0
1, 6221, Note_on_c, 0, 80, 76
1, 6221, Note_on_c, 0, 56, 0
1, 6224, Note_on_c, 0, 64, 54
1, 6307, Note_on_c, 0, 80, 0
1, 6307, Note_on_c, 0, 76, 74
1, 6307, Note_on_c, 0, 64, 0
1, 6310, Note_on_c, 0, 71, 49
1, 6400, Note_on_c, 0, 71, 0
1, 6400, Note_on_c, 0, 76, 0
1, 6400, Note_on_c, 0, 71, 78
1, 6406, Control_c, 0, 64, 0
1, 6489, Note_on_c, 0, 47, 45
1, 6493, Control_c, 0, 64, 127
1, 6575, Note_on_c, 0, 47, 0
1, 6575, Note_on_c, 0, 56, 48
1, 6660, Note_on_c, 0, 71, 0
1, 6660, Note_on_c, 0, 80, 55
1, 6660, Note_on_c, 0, 56, 0
1, 6663, Note_on_c, 0, 64, 44
1, 6749, Note_on_c, 0, 80, 0
1, 6749, Note_on_c, 0, 68, 77
1, 6749, Note_on_c, 0, 64, 0
1, 7008, Note_on_c, 0, 68, 0
1, 7008, Note_on_c, 0, 76, 50
1, 7100, Note_on_c, 0, 76, 0
1, 7100, Note_on_c, 0, 64, 68
1, 7109, Control_c, 0, 64, 0
1, 7179, Control_c, 0, 64, 127
1, 7192, Note_on_c, 0, 47, 36
1, 7279, Note_on_c, 0, 47, 0
1, 7279, Note_on_c, 0, 55, 42
1, 7367, Note_on_c, 0, 64, 0
1, 7367, Note_on_c, 0, 73, 43
1, 7367, Note_on_c, 0, 55, 0
1, 7370, Note_on_c, 0, 64, 34
1, 7461, Note_on_c, 0, 73, 0
1, 7461, Note_on_c, 0, 61, 61
1, 7461, Note_on_c, 0, 64, 0
1, 7734, Note_on_c, 0, 61, 0
1, 7734, Note_on_c, 0, 70, 39
1, 7836, Note_on_c, 0, 70, 0
1, 7836, Note_on_c, 0, 60, 53
1, 7840, Control_c, 0, 64, 0
1, 7935, Note_on_c, 0, 47, 31
1, 7939, Control_c, 0, 64, 127
1, 8031, Note_on_c, 0, 47, 0
1, 8031, Note_on_c, 0, 54, 32
1, 8128, Note_on_c, 0, 60, 0
1, 8128, Note_on_c, 0, 69, 36
1, 8128, Note_on_c, 0, 54, 0
1, 8131, Note_on_c, 0, 63, 29
1, 8236, Note_on_c, 0, 69, 0
1, 8236, Note_on_c, 0, 57, 50
1, 8236, Note_on_c, 0, 63, 0
1, 8549, Note_on_c, 0, 57, 0
1, 8549, Note_on_c, 0, 66, 32
1, 8664, Note_on_c, 0, 66, 0
1, 8664, Note_on_c, 0, 56, 47
1, 8676, Control_c, 0, 64, 0
1, 8763, Control_c, 0, 64, 127
1, 8779, Note_on_c, 0, 40, 24
1, 8887, Note_on_c, 0, 40, 0
1, 8887, Note_on_c, 0, 47, 30
1, 8995, Note_on_c, 0, 56, 0
1, 8995, Note_on_c, 0, 64, 37
1, 8995, Note_on_c, 0, 47, 0
1, 9119, Note_on_c, 0, 64, 0
1, 9119, Note_on_c, 0, 28, 38
1, 9244, Note_on_c, 0, 28, 0
1, 9255, Control_c, 0, 64, 0
1, 9617, Note_on_c, 0, 78, 53
1, 9617, Control_c, 0, 64, 127
1, 9710, Note_on_c, 0, 50, 36
1, 9803, Note_on_c, 0, 50, 0
1, 9803, Note_on_c, 0, 56, 36
1, 9896, Note_on_c, 0, 78, 0
1, 9896, Note_on_c, 0, 68, 48
1, 9896, Note_on_c, 0, 56, 0
1, 9899, Note_on_c, 0, 59, 36
1, 9988, Note_on_c, 0, 68, 0
1, 9988, Note_on_c, 0, 69, 52
1, 9988, Note_on_c, 0, 59, 0
1, 9991, Note_on_c, 0, 66, 45
1, 10076, Note_on_c, 0, 69, 0
1, 10076, Note_on_c, 0, 70, 53
1, 10076, Note_on_c, 0, 66, 0
1, 10163, Note_on_c, 0, 70, 0
1, 10163, Note_on_c, 0, 71, 54
1, 10250, Note_on_c, 0, 71, 0
1, 10250, Note_on_c, 0, 72, 55
1, 10337, Note_on_c, 0, 72, 0
1, 10337, Note_on_c, 0, 73, 56
1, 10337, Control_c, 0, 64, 0
1, 10423, Note_on_c, 0, 73, 0
1, 10423, Note_on_c, 0, 74, 58
1, 10509, Note_on_c, 0, 74, 0
1, 10509, Note_on_c, 0, 75, 59
1, 10594, Note_on_c, 0, 75, 0
1, 10594, Note_on_c, 0, 76, 60
1, 10680, Note_on_c, 0, 76, 0
1, 10680, Note_on_c, 0, 81, 69
1, 10740, Control_c, 0, 64, 127
1, 10765, Note_on_c, 0, 81, 0
1, 10765, Note_on_c, 0, 76, 60
1, 10765, Note_on_c, 0, 49, 40
1, 10851, Note_on_c, 0, 76, 0
1, 10851, Note_on_c, 0, 73, 62
1, 10851, Note_on_c, 0, 49, 0
1, 10854, Note_on_c, 0, 57, 44
1, 10937, Note_on_c, 0, 73, 0
1, 10937, Note_on_c, 0, 69, 60
1, 10937, Note_on_c, 0, 57, 0
1, 10940, Note_on_c, 0, 64, 40
1, 11032, Note_on_c, 0, 69, 0
1, 11032, Note_on_c, 0, 67, 68
1, 11032, Note_on_c, 0, 64, 0
1, 11035, Control_c, 0, 64, 0
1, 11119, Note_on_c, 0, 46, 40
1, 11122, Control_c, 0, 64, 127
1, 11204, Note_on_c, 0, 46, 0
1, 11204, Note_on_c, 0, 52, 43
1, 11289, Note_on_c, 0, 67, 0
1, 11289, Note_on_c, 0, 76, 49
1, 11289, Note_on_c, 0, 52, 0
1, 11292, Note_on_c, 0, 61, 40
1, 11379, Note_on_c, 0, 76, 0
1, 11379, Note_on_c, 0, 68, 69
1, 11379, Note_on_c, 0, 61, 0
1, 11386, Control_c, 0, 64, 0
1, 11442, Control_c, 0, 64, 127
1, 11468, Note_on_c, 0, 47, 40
1, 11553, Note_on_c, 0, 47, 0
1, 11553, Note_on_c, 0, 52, 43
1, 11637, Note_on_c, 0, 68, 0
1, 11637, Note_on_c, 0, 76, 50
1, 11637, Note_on_c, 0, 52, 0
1, 11640, Note_on_c, 0, 62, 40
1, 11726, Note_on_c, 0, 76, 0
1, 11726, Note_on_c, 0, 67, 70
1, 11726, Note_on_c, 0, 62, 0
1, 11735, Control_c, 0, 64, 0
1, 11803, Control_c, 0, 64, 127
1, 11815, Note_on_c, 0, 46, 38
1, 11900, Note_on_c, 0, 46, 0
1, 11900, Note_on_c, 0, 52, 46
1, 11984, Note_on_c, 0, 67, 0
1, 11984, Note_on_c, 0, 76, 49
1, 11984, Note_on_c, 0, 52, 0
1, 11987, Note_on_c, 0, 61, 38
1, 12074, Note_on_c, 0, 76, 0
1, 12074, Note_on_c, 0, 68, 69
1, 12074, Note_on_c, 0, 61, 0
1, 12083, Control_c, 0, 64, 0
1, 12133, Control_c, 0, 64, 127
1, 12163, Note_on_c, 0, 47, 38
1, 12248, Note_on_c, 0, 47, 0
1, 12248, Note_on_c, 0, 52, 44
1, 12332, Note_on_c, 0, 68, 0
1, 12332, Note_on_c, 0, 77, 45
1, 12332, Note_on_c, 0, 52, 0
1, 12335, Note_on_c, 0, 62, 38
1, 12433, Note_on_c, 0, 77, 0
1, 12433, Note_on_c, 0, 78, 67
1, 12433, Note_on_c, 0, 62, 0
1, 12436, Control_c, 0, 64, 0
1, 12495, Control_c, 0, 64, 127
1, 12526, Note_on_c, 0, 50, 36
1, 12619, Note_on_c, 0, 50, 0
1, 12619, Note_on_c, 0, 56, 36
1, 12712, Note_on_c, 0, 78, 0
1, 12712, Note_on_c, 0, 68, 54
1, 12712, Note_on_c, 0, 56, 0
1, 12715, Note_on_c, 0, 59, 36
1, 12805, Note_on_c, 0, 68, 0
1, 12805, Note_on_c, 0, 69, 53
1, 12805, Note_on_c, 0, 59, 0
1, 12808, Note_on_c, 0, 66, 45
1, 12892, Note_on_c, 0, 69, 0
1, 12892, Note_on_c, 0, 70, 54
1, 12892, Note_on_c, 0, 66, 0
1, 12979, Note_on_c, 0, 70, 0
1, 12979, Note_on_c, 0, 71, 55
1, 13066, Note_on_c, 0, 71, 0
1, 13066, Note_on_c, 0, 72, 57
1, 13153, Note_on_c, 0, 72, 0
1, 13153, Note_on_c, 0, 73, 58
1, 13153, Control_c, 0, 64, 0
1, 13239, Note_on_c, 0, 73, 0
1, 13239, Note_on_c, 0, 74, 60
1, 13325, Note_on_c, 0, 74, 0
1, 13325, Note_on_c, 0, 75, 61
1, 13411, Note_on_c, 0, 75, 0
1, 13411, Note_on_c, 0, 76, 63
1, 13496, Note_on_c, 0, 76, 0
1, 13496, Note_on_c, 0, 81, 69
1, 13556, Control_c, 0, 64, 127
1, 13581, Note_on_c, 0, 81, 0
1, 13581, Note_on_c, 0, 76, 60
1, 13581, Note_on_c, 0, 49, 40
1, 13667, Note_on_c, 0, 76, 0
1, 13667, Note_on_c, 0, 73, 62
1, 13667, Note_on_c, 0, 49, 0
1, 13670, Note_on_c, 0, 57, 44
1, 13753, Note_on_c, 0, 73, 0
1, 13753, Note_on_c, 0, 69, 60
1, 13753, Note_on_c, 0, 57, 0
1, 13756, Note_on_c, 0, 64, 40
1, 13856, Note_on_c, 0, 69, 0
1, 13856, Note_on_c, 0, 85, 76
1, 13856, Note_on_c, 0, 64, 0
1, 13859, Control_c, 0, 64, 0
1, 13918, Control_c, 0, 64, 127
1, 13949, Note_on_c, 0, 57, 39
1, 14042, Note_on_c, 0, 57, 0
1, 14042, Note_on_c, 0, 63, 39
1, 14135, Note_on_c, 0, 85, 0
1, 14135, Note_on_c, 0, 75, 60
1, 14135, Note_on_c, 0, 63, 0
1, 14138, Note_on_c, 0, 66, 40
1, 14227, Note_on_c, 0, 75, 0
1, 14227, Note_on_c, 0, 76, 59
1, 14227, Note_on_c, 0, 66, 0
1, 14230, Note_on_c, 0, 73, 50
1, 14315, Note_on_c, 0, 76, 0
1, 14315, Note_on_c, 0, 77, 61
1, 14315, Note_on_c, 0, 73, 0
1, 14402, Note_on_c, 0, 77, 0
1, 14402, Note_on_c, 0, 78, 63
1, 14489, Note_on_c, 0, 78, 0
1, 14489, Note_on_c, 0, 79, 66
1, 14576, Note_on_c, 0, 79, 0
1, 14576, Note_on_c, 0, 80, 67
1, 14576, Control_c, 0, 64, 0
1, 14662, Note_on_c, 0, 80, 0
1, 14662, Note_on_c, 0, 81, 70
1, 14748, Note_on_c, 0, 81, 0
1, 14748, Note_on_c, 0, 82, 72
1, 14834, Note_on_c, 0, 82, 0
1, 14834, Note_on_c, 0, 83, 75
1, 14919, Note_on_c, 0, 83, 0
1, 14919, Note_on_c, 0, 88, 83
1, 14979, Control_c, 0, 64, 127
1, 15004, Note_on_c, 0, 88, 0
1, 15004, Note_on_c, 0, 83, 73
1, 15004, Note_on_c, 0, 56, 48
1, 15090, Note_on_c, 0, 83, 0
1, 15090, Note_on_c, 0, 80, 76
1, 15090, Note_on_c, 0, 56, 0
1, 15093, Note_on_c, 0, 64, 54
1, 15176, Note_on_c, 0, 80, 0
1, 15176, Note_on_c, 0, 76, 74
1, 15176, Note_on_c, 0, 64, 0
1, 15179, Note_on_c, 0, 71, 49
1, 15269, Note_on_c, 0, 71, 0
1, 15269, Note_on_c, 0, 76, 0
1, 15269, Note_on_c, 0, 71, 78
1, 15274, Control_c, 0, 64, 0
1, 15358, Note_on_c, 0, 47, 45
1, 15362, Control_c, 0, 64, 127
1, 15443, Note_on_c, 0, 47, 0
1, 15443, Note_on_c, 0, 56, 48
1, 15529, Note_on_c, 0, 71, 0
1, 15529, Note_on_c, 0, 80, 55
1, 15529, Note_on_c, 0, 56, 0
1, 15532, Note_on_c, 0, 64, 44
1, 15618, Note_on_c, 0, 80, 0
1, 15618, Note_on_c, 0, 68, 77
1, 15618, Note_on_c, 0, 64, 0
1, 15876, Note_on_c, 0, 68, 0
1, 15876, Note_on_c, 0, 76, 49
1, 15968, Note_on_c, 0, 76, 0
1, 15968, Note_on_c, 0, 64, 68
1, 15978, Control_c, 0, 64, 0
1, 16047, Control_c, 0, 64, 127
1, 16060, Note_on_c, 0, 47, 35
1, 16148, Note_on_c, 0, 47, 0
1, 16148, Note_on_c, 0, 55, 42
1, 16235, Note_on_c, 0, 64, 0
1, 16235, Note_on_c, 0, 73, 42
1, 16235, Note_on_c, 0, 55, 0
1, 16238, Note_on_c, 0, 64, 34
1, 16329, Note_on_c, 0, 73, 0
1, 16329, Note_on_c, 0, 61, 60
1, 16329, Note_on_c, 0, 64, 0
1, 16603, Note_on_c, 0, 61, 0
1, 16603, Note_on_c, 0, 70, 37
1, 16705, Note_on_c, 0, 70, 0
1, 16705, Note_on_c, 0, 60, 53
1, 16709, Control_c, 0, 64, 0
1, 16803, Note_on_c, 0, 47, 30
1, 16807, Control_c, 0, 64, 127
1, 16900, Note_on_c, 0, 47, 0
1, 16900, Note_on_c, 0, 54, 32
1, 16997, Note_on_c, 0, 60, 0
1, 16997, Note_on_c, 0, 69, 34
1, 16997, Note_on_c, 0, 54, 0
1, 17000, Note_on_c, 0, 63, 29
1, 17105, Note_on_c, 0, 69, 0
1, 17105, Note_on_c, 0, 57, 49
1, 17105, Note_on_c, 0, 63, 0
1, 17418, Note_on_c, 0, 57, 0
1, 17418, Note_on_c, 0, 66, 30
1, 17533, Note_on_c, 0, 66, 0
1, 17533, Note_on_c, 0, 56, 46
1, 17544, Control_c, 0, 64, 0
1, 17631, Control_c, 0, 64, 127
1, 17642, Note_on_c, 0, 40, 24
1, 17750, Note_on_c, 0, 40, 0
1, 17756, Note_on_c, 0, 47, 29
1, 17863, Note_on_c, 0, 56, 0
1, 17863, Note_on_c, 0, 64, 36
1, 17863, Note_on_c, 0, 47, 0
1, 18034, Note_on_c, 0, 64, 0
1, 18034, Note_on_c, 0, 28, 37
1, 18205, Note_on_c, 0, 28, 0
1, 18221, Control_c, 0, 64, 0
1, 18718, Note_on_c, 0, 67, 60
1, 18718, Control_c, 0, 64, 127
1, 18816, Note_on_c, 0, 47, 36
1, 18914, Note_on_c, 0, 47, 0
1, 18914, Note_on_c, 0, 55, 36
1, 19013, Note_on_c, 0, 67, 0
1, 19013, Note_on_c, 0, 71, 54
1, 19013, Note_on_c, 0, 55, 0
1, 19016, Note_on_c, 0, 62, 36
1, 19111, Note_on_c, 0, 71, 0
1, 19111, Note_on_c, 0, 74, 58
1, 19111, Note_on_c, 0, 62, 0
1, 19203, Note_on_c, 0, 74, 0
1, 19203, Note_on_c, 0, 79, 54
1, 19292, Note_on_c, 0, 79, 0
1, 19292, Note_on_c, 0, 73, 60
1, 19381, Note_on_c, 0, 73, 0
1, 19381, Note_on_c, 0, 74, 57
1, 19381, Note_on_c, 0, 79, 57
1, 19468, Note_on_c, 0, 79, 0
1, 19468, Note_on_c, 0, 74, 0
1, 19468, Note_on_c, 0, 71, 63
1, 19555, Note_on_c, 0, 71, 0
1, 19555, Note_on_c, 0, 74, 60
1, 19555, Note_on_c, 0, 79, 60
1, 19641, Note_on_c, 0, 79, 0
1, 19641, Note_on_c, 0, 74, 0
1, 19641, Note_on_c, 0, 69, 65
1, 19726, Note_on_c, 0, 69, 0
1, 19726, Note_on_c, 0, 71, 63
1, 19726, Note_on_c, 0, 74, 63
1, 19810, Note_on_c, 0, 74, 0
1, 19810, Note_on_c, 0, 71, 0
1, 19810, Note_on_c, 0, 67, 69
1, 19894, Note_on_c, 0, 67, 0
1, 19894, Note_on_c, 0, 71, 60
1, 19894, Note_on_c, 0, 74, 60
1, 19978, Note_on_c, 0, 74, 0
1, 19978, Note_on_c, 0, 71, 0
1, 19978, Note_on_c, 0, 66, 69
1, 20063, Note_on_c, 0, 66, 0
1, 20063, Note_on_c, 0, 71, 60
1, 20063, Note_on_c, 0, 74, 60
1, 20158, Note_on_c, 0, 74, 0
1, 20158, Note_on_c, 0, 71, 0
1, 20158, Note_on_c, 0, 65, 73
1, 20161, Control_c, 0, 64, 0
1, 20248, Note_on_c, 0, 49, 40
1, 20252, Control_c, 0, 64, 127
1, 20335, Note_on_c, 0, 49, 0
1, 20335, Note_on_c, 0, 59, 43
1, 20423, Note_on_c, 0, 65, 0
1, 20423, Note_on_c, 0, 68, 45
1, 20423, Note_on_c, 0, 73, 54
1, 20426, Note_on_c, 0, 59, 0
1, 20514, Note_on_c, 0, 73, 0
1, 20514, Note_on_c, 0, 68, 0
1, 20514, Note_on_c, 0, 66, 69
1, 20522, Control_c, 0, 64, 0
1, 20579, Control_c, 0, 64, 127
1, 20606, Note_on_c, 0, 49, 40
1, 20692, Note_on_c, 0, 49, 0
1, 20692, Note_on_c, 0, 61, 43
1, 20779, Note_on_c, 0, 66, 0
1, 20779, Note_on_c, 0, 69, 45
1, 20779, Note_on_c, 0, 73, 53
1, 20782, Note_on_c, 0, 61, 0
1, 20870, Note_on_c, 0, 73, 0
1, 20870, Note_on_c, 0, 69, 0
1, 20870, Note_on_c, 0, 63, 70
1, 20879, Control_c, 0, 64, 0
1, 20948, Control_c, 0, 64, 127
1, 20961, Note_on_c, 0, 49, 38
1, 21048, Note_on_c, 0, 49, 0
1, 21048, Note_on_c, 0, 57, 46
1, 21135, Note_on_c, 0, 63, 0
1, 21135, Note_on_c, 0, 66, 42
1, 21135, Note_on_c, 0, 73, 50
1, 21138, Note_on_c, 0, 57, 0
1, 21226, Note_on_c, 0, 73, 0
1, 21226, Note_on_c, 0, 66, 0
1, 21226, Note_on_c, 0, 65, 69
1, 21236, Control_c, 0, 64, 0
1, 21287, Control_c, 0, 64, 127
1, 21317, Note_on_c, 0, 49, 38
1, 21404, Note_on_c, 0, 49, 0
1, 21404, Note_on_c, 0, 59, 44
1, 21490, Note_on_c, 0, 65, 0
1, 21490, Note_on_c, 0, 68, 41
1, 21490, Note_on_c, 0, 73, 49
1, 21493, Note_on_c, 0, 59, 0
1, 21592, Note_on_c, 0, 73, 0
1, 21592, Note_on_c, 0, 68, 0
1, 21592, Note_on_c, 0, 61, 66
1, 21595, Control_c, 0, 64, 0
1, 21683, Note_on_c, 0, 42, 40
1, 21686, Control_c, 0, 64, 127
1, 21771, Note_on_c, 0, 42, 0
1, 21771, Note_on_c, 0, 49, 43
1, 21860, Note_on_c, 0, 61, 0
1, 21860, Note_on_c, 0, 66, 26
1, 21860, Note_on_c, 0, 69, 26
1, 21863, Note_on_c, 0, 73, 42
1, 21863, Note_on_c, 0, 49, 0
1, 21863, Note_on_c, 0, 57, 43
1, 21952, Note_on_c, 0, 73, 0
1, 21952, Note_on_c, 0, 69, 0
1, 21952, Note_on_c, 0, 66, 0
1, 21955, Note_on_c, 0, 62, 61
1, 21955, Note_on_c, 0, 57, 0
1, 21960, Control_c, 0, 64, 0
1, 22018, Control_c, 0, 64, 127
1, 22045, Note_on_c, 0, 62, 0
1, 22045, Note_on_c, 0, 66, 26
1, 22045, Note_on_c, 0, 69, 26
1, 22048, Note_on_c, 0, 73, 42
1, 22141, Note_on_c, 0, 73, 0
1, 22141, Note_on_c, 0, 69, 0
1, 22141, Note_on_c, 0, 66, 0
1, 22144, Note_on_c, 0, 64, 62
1, 22237, Note_on_c, 0, 64, 0
1, 22237, Note_on_c, 0, 66, 27
1, 22237, Note_on_c, 0, 69, 27
1, 22240, Note_on_c, 0, 73, 43
1, 22332, Note_on_c, 0, 73, 0
1, 22332, Note_on_c, 0, 69, 0
1, 22332, Note_on_c, 0, 66, 0
1, 22335, Note_on_c, 0, 61, 63
1, 22342, Control_c, 0, 64, 0
1, 22414, Control_c, 0, 64, 127
1, 22427, Note_on_c, 0, 42, 38
1, 22518, Note_on_c, 0, 42, 0
1, 22518, Note_on_c, 0, 49, 46
1, 22609, Note_on_c, 0, 61, 0
1, 22609, Note_on_c, 0, 69, 23
1, 22609, Note_on_c, 0, 65, 23
1, 22612, Note_on_c, 0, 73, 38
1, 22612, Note_on_c, 0, 49, 0
1, 22612, Note_on_c, 0, 59, 46
1, 22703, Note_on_c, 0, 73, 0
1, 22703, Note_on_c, 0, 65, 0
1, 22703, Note_on_c, 0, 69, 0
1, 22706, Note_on_c, 0, 61, 62
1, 22706, Note_on_c, 0, 59, 0
1, 22713, Control_c, 0, 64, 0
1, 22765, Control_c, 0, 64, 127
1, 22796, Note_on_c, 0, 42, 38
1, 22888, Note_on_c, 0, 42, 0
1, 22888, Note_on_c, 0, 49, 44
1, 22981, Note_on_c, 0, 61, 0
1, 22981, Note_on_c, 0, 65, 26
1, 22981, Note_on_c, 0, 69, 26
1, 22984, Note_on_c, 0, 73, 42
1, 22984, Note_on_c, 0, 49, 0
1, 22984, Note_on_c, 0, 59, 44
1, 23082, Note_on_c, 0, 73, 0
1, 23082, Note_on_c, 0, 69, 0
1, 23082, Note_on_c, 0, 65, 0
1, 23085, Note_on_c, 0, 61, 62
1, 23085, Note_on_c, 0, 59, 0
1, 23085, Control_c, 0, 64, 0
1, 23184, Note_on_c, 0, 42, 38
1, 23184, Control_c, 0, 64, 127
1, 23284, Note_on_c, 0, 42, 0
1, 23284, Note_on_c, 0, 49, 44
1, 23383, Note_on_c, 0, 49, 0
1, 23383, Note_on_c, 0, 57, 44
1, 23482, Note_on_c, 0, 66, 43
1, 23482, Note_on_c, 0, 57, 0
1, 23579, Note_on_c, 0, 66, 0
1, 23579, Note_on_c, 0, 68, 45
1, 23675, Note_on_c, 0, 68, 0
1, 23675, Note_on_c, 0, 69, 46
1, 23771, Note_on_c, 0, 69, 0
1, 23771, Note_on_c, 0, 73, 48
1, 23883, Note_on_c, 0, 73, 0
1, 23982, Note_on_c, 0, 61, 0
1, 23985, Note_on_c, 0, 54, 38
1, 24085, Note_on_c, 0, 54, 0
1, 24085, Note_on_c, 0, 61, 44
1, 24184, Note_on_c, 0, 69, 44
1, 24282, Note_on_c, 0, 78, 46
1, 24282, Note_on_c, 0, 69, 0
1, 24380, Note_on_c, 0, 78, 0
1, 24380, Note_on_c, 0, 80, 48
1, 24477, Note_on_c, 0, 80, 0
1, 24477, Note_on_c, 0, 81, 50
1, 24573, Note_on_c, 0, 81, 0
1, 24573, Note_on_c, 0, 85, 52
1, 24683, Note_on_c, 0, 85, 0
1, 24683, Note_on_c, 0, 72, 60
1, 24683, Note_on_c, 0, 61, 0
1, 24686, Control_c, 0, 64, 0
1, 24782, Note_on_c, 0, 52, 36
1, 24782, Control_c, 0, 64, 127
1, 24880, Note_on_c, 0, 52, 0
1, 24880, Note_on_c, 0, 60, 36
1, 24978, Note_on_c, 0, 72, 0
1, 24978, Note_on_c, 0, 76, 54
1, 24978, Note_on_c, 0, 60, 0
1, 24981, Note_on_c, 0, 67, 36
1, 25077, Note_on_c, 0, 76, 0
1, 25077, Note_on_c, 0, 79, 58
1, 25077, Note_on_c, 0, 67, 0
1, 25169, Note_on_c, 0, 79, 0
1, 25169, Note_on_c, 0, 84, 54
1, 25258, Note_on_c, 0, 84, 0
1, 25258, Note_on_c, 0, 78, 60
1, 25346, Note_on_c, 0, 78, 0
1, 25346, Note_on_c, 0, 79, 57
1, 25346, Note_on_c, 0, 84, 57
1, 25434, Note_on_c, 0, 84, 0
1, 25434, Note_on_c, 0, 79, 0
1, 25434, Note_on_c, 0, 76, 63
1, 25520, Note_on_c, 0, 76, 0
1, 25520, Note_on_c, 0, 79, 60
1, 25520, Note_on_c, 0, 84, 60
1, 25606, Note_on_c, 0, 84, 0
1, 25606, Note_on_c, 0, 79, 0
1, 25606, Note_on_c, 0, 74, 65
1, 25691, Note_on_c, 0, 74, 0
1, 25691, Note_on_c, 0, 76, 63
1, 25691, Note_on_c, 0, 79, 63
1, 25775, Note_on_c, 0, 79, 0
1, 25775, Note_on_c, 0, 76, 0
1, 25775, Note_on_c, 0, 72, 69
1, 25859, Note_on_c, 0, 72, 0
1, 25859, Note_on_c, 0, 76, 60
1, 25859, Note_on_c, 0, 79, 60
1, 25944, Note_on_c, 0, 79, 0
1, 25944, Note_on_c, 0, 76, 0
1, 25944, Note_on_c, 0, 71, 69
1, 26029, Note_on_c, 0, 71, 0
1, 26029, Note_on_c, 0, 76, 60
1, 26029, Note_on_c, 0, 79, 60
1, 26123, Note_on_c, 0, 79, 0
1, 26123, Note_on_c, 0, 76, 0
1, 26123, Note_on_c, 0, 70, 73
1, 26127, Control_c, 0, 64, 0
1, 26214, Note_on_c, 0, 54, 40
1, 26217, Control_c, 0, 64, 127
1, 26301, Note_on_c, 0, 54, 0
1, 26301, Note_on_c, 0, 64, 43
1, 26388, Note_on_c, 0, 70, 0
1, 26388, Note_on_c, 0, 73, 45
1, 26388, Note_on_c, 0, 78, 54
1, 26391, Note_on_c, 0, 64, 0
1, 26480, Note_on_c, 0, 78, 0
1, 26480, Note_on_c, 0, 73, 0
1, 26480, Note_on_c, 0, 71, 69
1, 26487, Control_c, 0, 64, 0
1, 26545, Control_c, 0, 64, 127
1, 26571, Note_on_c, 0, 54, 40
1, 26658, Note_on_c, 0, 54, 0
1, 26658, Note_on_c, 0, 66, 43
1, 26745, Note_on_c, 0, 71, 0
1, 26745, Note_on_c, 0, 74, 42
1, 26745, Note_on_c, 0, 78, 50
1, 26748, Note_on_c, 0, 66, 0
1, 26836, Note_on_c, 0, 78, 0
1, 26836, Note_on_c, 0, 74, 0
1, 26836, Note_on_c, 0, 68, 70
1, 26845, Control_c, 0, 64, 0
1, 26914, Control_c, 0, 64, 127
1, 26927, Note_on_c, 0, 54, 38
1, 27014, Note_on_c, 0, 54, 0
1, 27014, Note_on_c, 0, 62, 46
1, 27101, Note_on_c, 0, 68, 0
1, 27101, Note_on_c, 0, 71, 41
1, 27101, Note_on_c, 0, 78, 49
1, 27104, Note_on_c, 0, 62, 0
1, 27192, Note_on_c, 0, 78, 0
1, 27192, Note_on_c, 0, 71, 0
1, 27192, Note_on_c, 0, 70, 69
1, 27202, Control_c, 0, 64, 0
1, 27252, Control_c, 0, 64, 127
1, 27283, Note_on_c, 0, 54, 38
1, 27369, Note_on_c, 0, 54, 0
1, 27369, Note_on_c, 0, 64, 44
1, 27456, Note_on_c, 0, 70, 0
1, 27456, Note_on_c, 0, 73, 39
1, 27456, Note_on_c, 0, 78, 47
1, 27459, Note_on_c, 0, 64, 0
1, 27557, Note_on_c, 0, 78, 0
1, 27557, Note_on_c, 0, 73, 0
1, 27557, Note_on_c, 0, 66, 66
1, 27561, Control_c, 0, 64, 0
1, 27649, Note_on_c, 0, 47, 40
1, 27652, Control_c, 0, 64, 127
1, 27737, Note_on_c, 0, 47, 0
1, 27737, Note_on_c, 0, 54, 42
1, 27826, Note_on_c, 0, 66, 0
1, 27826, Note_on_c, 0, 71, 25
1, 27826, Note_on_c, 0, 74, 25
1, 27829, Note_on_c, 0, 78, 41
1, 27829, Note_on_c, 0, 54, 0
1, 27829, Note_on_c, 0, 62, 42
1, 27918, Note_on_c, 0, 78, 0
1, 27918, Note_on_c, 0, 74, 0
1, 27918, Note_on_c, 0, 71, 0
1, 27921, Note_on_c, 0, 67, 59
1, 27921, Note_on_c, 0, 62, 0
1, 27926, Control_c, 0, 64, 0
1, 27983, Control_c, 0, 64, 127
1, 28010, Note_on_c, 0, 67, 0
1, 28010, Note_on_c, 0, 71, 24
1, 28010, Note_on_c, 0, 74, 24
1, 28013, Note_on_c, 0, 78, 40
1, 28107, Note_on_c, 0, 78, 0
1, 28107, Note_on_c, 0, 74, 0
1, 28107, Note_on_c, 0, 71, 0
1, 28110, Note_on_c, 0, 69, 58
1, 28203, Note_on_c, 0, 69, 0
1, 28203, Note_on_c, 0, 71, 25
1, 28203, Note_on_c, 0, 74, 25
1, 28206, Note_on_c, 0, 78, 39
1, 28298, Note_on_c, 0, 78, 0
1, 28298, Note_on_c, 0, 74, 0
1, 28298, Note_on_c, 0, 71, 0
1, 28301, Note_on_c, 0, 66, 58
1, 28307, Control_c, 0, 64, 0
1, 28379, Control_c, 0, 64, 127
1, 28393, Note_on_c, 0, 47, 34
1, 28484, Note_on_c, 0, 47, 0
1, 28484, Note_on_c, 0, 54, 41
1, 28575, Note_on_c, 0, 66, 0
1, 28575, Note_on_c, 0, 74, 21
1, 28575, Note_on_c, 0, 70, 21
1, 28578, Note_on_c, 0, 78, 34
1, 28578, Note_on_c, 0, 54, 0
1, 28578, Note_on_c, 0, 64, 41
1, 28669, Note_on_c, 0, 78, 0
1, 28669, Note_on_c, 0, 70, 0
1, 28669, Note_on_c, 0, 74, 0
1, 28672, Note_on_c, 0, 66, 55
1, 28672, Note_on_c, 0, 64, 0
1, 28679, Control_c, 0, 64, 0
1, 28731, Control_c, 0, 64, 127
1, 28762, Note_on_c, 0, 47, 33
1, 28854, Note_on_c, 0, 47, 0
1, 28854, Note_on_c, 0, 54, 38
1, 28946, Note_on_c, 0, 66, 0
1, 28946, Note_on_c, 0, 70, 22
1, 28946, Note_on_c, 0, 74, 22
1, 28949, Note_on_c, 0, 78, 36
1, 28949, Note_on_c, 0, 54, 0
1, 28949, Note_on_c, 0, 64, 37
1, 29056, Note_on_c, 0, 78, 0
1, 29056, Note_on_c, 0, 74, 0
1, 29056, Note_on_c, 0, 70, 0
1, 29059, Note_on_c, 0, 66, 44
1, 29059, Note_on_c, 0, 64, 0
1, 29059, Control_c, 0, 64, 0
1, 29155, Note_on_c, 0, 47, 27
1, 29159, Control_c, 0, 64, 127
1, 29251, Note_on_c, 0, 47, 0
1, 29251, Note_on_c, 0, 54, 28
1, 29347, Note_on_c, 0, 66, 0
1, 29347, Note_on_c, 0, 71, 20
1, 29347, Note_on_c, 0, 75, 20
1, 29350, Note_on_c, 0, 78, 33
1, 29350, Note_on_c, 0, 54, 0
1, 29350, Note_on_c, 0, 63, 28
1, 29445, Note_on_c, 0, 78, 0
1, 29445, Note_on_c, 0, 75, 0
1, 29445, Note_on_c, 0, 71, 0
1, 29448, Note_on_c, 0, 68, 39
1, 29448, Note_on_c, 0, 63, 0
1, 29453, Control_c, 0, 64, 0
1, 29515, Control_c, 0, 64, 127
1, 29543, Note_on_c, 0, 68, 0
1, 29543, Note_on_c, 0, 71, 19
1, 29543, Note_on_c, 0, 75, 19
1, 29546, Note_on_c, 0, 78, 32
1, 29646, Note_on_c, 0, 78, 0
1, 29646, Note_on_c, 0, 75, 0
1, 29646, Note_on_c, 0, 71, 0
1, 29649, Note_on_c, 0, 70, 39
1, 29748, Note_on_c, 0, 70, 0
1, 29748, Note_on_c, 0, 71, 20
1, 29748, Note_on_c, 0, 75, 20
1, 29751, Note_on_c, 0, 78, 32
1, 29848, Note_on_c, 0, 78, 0
1, 29848, Note_on_c, 0, 75, 0
1, 29848, Note_on_c, 0, 71, 0
1, 29851, Note_on_c, 0, 66, 39
1, 29858, Control_c, 0, 64, 0
1, 29933, Control_c, 0, 64, 127
1, 29947, Note_on_c, 0, 47, 23
1, 30044, Note_on_c, 0, 47, 0
1, 30044, Note_on_c, 0, 54, 28
1, 30141, Note_on_c, 0, 66, 0
1, 30141, Note_on_c, 0, 75, 17
1, 30141, Note_on_c, 0, 70, 17
1, 30144, Note_on_c, 0, 78, 28
1, 30144, Note_on_c, 0, 54, 0
1, 30144, Note_on_c, 0, 64, 28
1, 30243, Note_on_c, 0, 78, 0
1, 30243, Note_on_c, 0, 70, 0
1, 30243, Note_on_c, 0, 75, 0
1, 30246, Note_on_c, 0, 66, 38
1, 30246, Note_on_c, 0, 64, 0
1, 30254, Control_c, 0, 64, 0
1, 30310, Control_c, 0, 64, 127
1, 30344, Note_on_c, 0, 47, 22
1, 30443, Note_on_c, 0, 47, 0
1, 30443, Note_on_c, 0, 54, 26
1, 30542, Note_on_c, 0, 66, 0
1, 30542, Note_on_c, 0, 70, 17
1, 30542, Note_on_c, 0, 75, 17
1, 30545, Note_on_c, 0, 78, 29
1, 30545, Note_on_c, 0, 54, 0
1, 30545, Note_on_c, 0, 64, 26
1, 30649, Note_on_c, 0, 78, 0
1, 30649, Note_on_c, 0, 75, 0
1, 30649, Note_on_c, 0, 70, 0
1, 30652, Note_on_c, 0, 66, 44
1, 30652, Note_on_c, 0, 64, 0
1, 30652, Control_c, 0, 64, 0
1, 30750, Note_on_c, 0, 47, 27
1, 30750, Control_c, 0, 64, 127
1, 30850, Note_on_c, 0, 47, 0
1, 30850, Note_on_c, 0, 54, 31
1, 30947, Note_on_c, 0, 54, 0
1, 30947, Note_on_c, 0, 63, 31
1, 31043, Note_on_c, 0, 71, 30
1, 31043, Note_on_c, 0, 63, 0
1, 31138, Note_on_c, 0, 71, 0
1, 31138, Note_on_c, 0, 73, 32
1, 31232, Note_on_c, 0, 73, 0
1, 31232, Note_on_c, 0, 75, 33
1, 31326, Note_on_c, 0, 75, 0
1, 31326, Note_on_c, 0, 78, 34
1, 31438, Note_on_c, 0, 78, 0
1, 31438, Note_on_c, 0, 66, 0
1, 31438, Note_on_c, 0, 66, 44
1, 31445, Control_c, 0, 64, 0
1, 31520, Control_c, 0, 64, 127
1, 31540, Note_on_c, 0, 47, 27
1, 31638, Note_on_c, 0, 47, 0
1, 31638, Note_on_c, 0, 54, 31
1, 31734, Note_on_c, 0, 54, 0
1, 31734, Note_on_c, 0, 63, 31
1, 31828, Note_on_c, 0, 71, 37
1, 31828, Note_on_c, 0, 63, 0
1, 31922, Note_on_c, 0, 71, 0
1, 31922, Note_on_c, 0, 73, 39
1, 32014, Note_on_c, 0, 73, 0
1, 32014, Note_on_c, 0, 75, 41
1, 32106, Note_on_c, 0, 75, 0
1, 32106, Note_on_c, 0, 78, 44
1, 32217, Note_on_c, 0, 78, 0
1, 32217, Note_on_c, 0, 66, 0
1, 32217, Note_on_c, 0, 78, 49
1, 32228, Control_c, 0, 64, 0
1, 32324, Note_on_c, 0, 47, 32
1, 32388, Control_c, 0, 64, 127
1, 32423, Note_on_c, 0, 47, 0
1, 32423, Note_on_c, 0, 54, 34
1, 32520, Note_on_c, 0, 54, 0
1, 32520, Note_on_c, 0, 62, 37
1, 32618, Note_on_c, 0, 74, 43
1, 32618, Note_on_c, 0, 62, 0
1, 32716, Note_on_c, 0, 74, 0
1, 32716, Note_on_c, 0, 73, 41
1, 32815, Note_on_c, 0, 73, 0
1, 32815, Note_on_c, 0, 71, 40
1, 32915, Note_on_c, 0, 71, 0
1, 32915, Note_on_c, 0, 66, 39
1, 33022, Note_on_c, 0, 66, 0
1, 33022, Note_on_c, 0, 78, 0
1, 33022, Note_on_c, 0, 78, 49
1, 33033, Control_c, 0, 64, 0
1, 33130, Note_on_c, 0, 47, 32
1, 33204, Control_c, 0, 64, 127
1, 33227, Note_on_c, 0, 47, 0
1, 33227, Note_on_c, 0, 55, 34
1, 33325, Note_on_c, 0, 55, 0
1, 33325, Note_on_c, 0, 62, 37
1, 33425, Note_on_c, 0, 74, 43
1, 33425, Note_on_c, 0, 62, 0
1, 33527, Note_on_c, 0, 74, 0
1, 33527, Note_on_c, 0, 73, 41
1, 33630, Note_on_c, 0, 73, 0
1, 33630, Note_on_c, 0, 71, 40
1, 33735, Note_on_c, 0, 71, 0
1, 33735, Note_on_c, 0, 67, 39
1, 33841, Note_on_c, 0, 67, 0
1, 33841, Note_on_c, 0, 78, 0
1, 33841, Note_on_c, 0, 78, 52
1, 33844, Note_on_c, 0, 38, 31
1, 33844, Note_on_c, 0, 50, 36
1, 33844, Control_c, 0, 64, 0
1, 33903, Control_c, 0, 64, 127
1, 33934, Note_on_c, 0, 50, 0
1, 33934, Note_on_c, 0, 38, 0
1, 33934, Note_on_c, 0, 56, 36
1, 34027, Note_on_c, 0, 56, 0
1, 34027, Note_on_c, 0, 59, 36
1, 34120, Note_on_c, 0, 78, 0
1, 34120, Note_on_c, 0, 68, 44
1, 34120, Note_on_c, 0, 59, 0
1, 34123, Note_on_c, 0, 66, 45
1, 34212, Note_on_c, 0, 68, 0
1, 34212, Note_on_c, 0, 69, 46
1, 34212, Note_on_c, 0, 66, 0
1, 34300, Note_on_c, 0, 69, 0
1, 34300, Note_on_c, 0, 70, 48
1, 34387, Note_on_c, 0, 70, 0
1, 34387, Note_on_c, 0, 71, 49
1, 34474, Note_on_c, 0, 71, 0
1, 34474, Note_on_c, 0, 72, 51
1, 34561, Note_on_c, 0, 72, 0
1, 34561, Note_on_c, 0, 73, 53
1, 34561, Control_c, 0, 64, 0
1, 34647, Note_on_c, 0, 73, 0
1, 34647, Note_on_c, 0, 74, 55
1, 34733, Note_on_c, 0, 74, 0
1, 34733, Note_on_c, 0, 75, 57
1, 34819, Note_on_c, 0, 75, 0
1, 34819, Note_on_c, 0, 76, 59
1, 34904, Note_on_c, 0, 76, 0
1, 34904, Note_on_c, 0, 81, 65
1, 34964, Control_c, 0, 64, 127
1, 34989, Note_on_c, 0, 81, 0
1, 34989, Note_on_c, 0, 76, 58
1, 34989, Note_on_c, 0, 49, 40
1, 35075, Note_on_c, 0, 76, 0
1, 35075, Note_on_c, 0, 73, 62
1, 35075, Note_on_c, 0, 49, 0
1, 35078, Note_on_c, 0, 57, 44
1, 35161, Note_on_c, 0, 73, 0
1, 35161, Note_on_c, 0, 69, 58
1, 35161, Note_on_c, 0, 57, 0
1, 35164, Note_on_c, 0, 64, 40
1, 35256, Note_on_c, 0, 69, 0
1, 35256, Note_on_c, 0, 67, 68
1, 35256, Note_on_c, 0, 64, 0
1, 35259, Control_c, 0, 64, 0
1, 35343, Note_on_c, 0, 46, 40
1, 35347, Control_c, 0, 64, 127
1, 35428, Note_on_c, 0, 46, 0
1, 35428, Note_on_c, 0, 52, 43
1, 35514, Note_on_c, 0, 67, 0
1, 35514, Note_on_c, 0, 76, 53
1, 35514, Note_on_c, 0, 52, 0
1, 35517, Note_on_c, 0, 61, 40
1, 35603, Note_on_c, 0, 76, 0
1, 35603, Note_on_c, 0, 68, 69
1, 35603, Note_on_c, 0, 61, 0
1, 35610, Control_c, 0, 64, 0
1, 35666, Control_c, 0, 64, 127
1, 35692, Note_on_c, 0, 47, 40
1, 35777, Note_on_c, 0, 47, 0
1, 35777, Note_on_c, 0, 52, 43
1, 35862, Note_on_c, 0, 68, 0
1, 35862, Note_on_c, 0, 76, 52
1, 35862, Note_on_c, 0, 52, 0
1, 35865, Note_on_c, 0, 62, 40
1, 35951, Note_on_c, 0, 76, 0
1, 35951, Note_on_c, 0, 67, 70
1, 35951, Note_on_c, 0, 62, 0
1, 35959, Control_c, 0, 64, 0
1, 36027, Control_c, 0, 64, 127
1, 36039, Note_on_c, 0, 46, 38
1, 36124, Note_on_c, 0, 46, 0
1, 36124, Note_on_c, 0, 52, 46
1, 36208, Note_on_c, 0, 67, 0
1, 36208, Note_on_c, 0, 76, 50
1, 36208, Note_on_c, 0, 52, 0
1, 36211, Note_on_c, 0, 61, 38
1, 36298, Note_on_c, 0, 76, 0
1, 36298, Note_on_c, 0, 68, 69
1, 36298, Note_on_c, 0, 61, 0
1, 36308, Control_c, 0, 64, 0
1, 36358, Control_c, 0, 64, 127
1, 36387, Note_on_c, 0, 47, 38
1, 36472, Note_on_c, 0, 47, 0
1, 36472, Note_on_c, 0, 52, 44
1, 36556, Note_on_c, 0, 68, 0
1, 36556, Note_on_c, 0, 77, 46
1, 36556, Note_on_c, 0, 52, 0
1, 36559, Note_on_c, 0, 62, 38
1, 36658, Note_on_c, 0, 77, 0
1, 36658, Note_on_c, 0, 78, 67
1, 36658, Note_on_c, 0, 62, 0
1, 36661, Control_c, 0, 64, 0
1, 36720, Control_c, 0, 64, 127
1, 36751, Note_on_c, 0, 50, 36
1, 36844, Note_on_c, 0, 50, 0
1, 36844, Note_on_c, 0, 56, 36
1, 36937, Note_on_c, 0, 78, 0
1, 36937, Note_on_c, 0, 68, 54
1, 36937, Note_on_c, 0, 56, 0
1, 36940, Note_on_c, 0, 59, 36
1, 37029, Note_on_c, 0, 68, 0
1, 37029, Note_on_c, 0, 69, 53
1, 37029, Note_on_c, 0, 59, 0
1, 37032, Note_on_c, 0, 66, 45
1, 37116, Note_on_c, 0, 69, 0
1, 37116, Note_on_c, 0, 70, 54
1, 37116, Note_on_c, 0, 66, 0
1, 37204, Note_on_c, 0, 70, 0
1, 37204, Note_on_c, 0, 71, 55
1, 37290, Note_on_c, 0, 71, 0
1, 37290, Note_on_c, 0, 72, 57
1, 37377, Note_on_c, 0, 72, 0
1, 37377, Note_on_c, 0, 73, 58
1, 37377, Control_c, 0, 64, 0
1, 37463, Note_on_c, 0, 73, 0
1, 37463, Note_on_c, 0, 74, 60
1, 37549, Note_on_c, 0, 74, 0
1, 37549, Note_on_c, 0, 75, 61
1, 37635, Note_on_c, 0, 75, 0
1, 37635, Note_on_c, 0, 76, 63
1, 37720, Note_on_c, 0, 76, 0
1, 37720, Note_on_c, 0, 81, 69
1, 37781, Control_c, 0, 64, 127
1, 37806, Note_on_c, 0, 81, 0
1, 37806, Note_on_c, 0, 76, 60
1, 37806, Note_on_c, 0, 49, 40
1, 37891, Note_on_c, 0, 76, 0
1, 37891, Note_on_c, 0, 73, 62
1, 37891, Note_on_c, 0, 49, 0
1, 37894, Note_on_c, 0, 57, 44
1, 37978, Note_on_c, 0, 73, 0
1, 37978, Note_on_c, 0, 69, 60
1, 37978, Note_on_c, 0, 57, 0
1, 37981, Note_on_c, 0, 64, 40
1, 38080, Note_on_c, 0, 69, 0
1, 38080, Note_on_c, 0, 85, 76
1, 38080, Note_on_c, 0, 64, 0
1, 38083, Control_c, 0, 64, 0
1, 38142, Control_c, 0, 64, 127
1, 38173, Note_on_c, 0, 57, 39
1, 38266, Note_on_c, 0, 57, 0
1, 38266, Note_on_c, 0, 63, 39
1, 38359, Note_on_c, 0, 85, 0
1, 38359, Note_on_c, 0, 75, 60
1, 38359, Note_on_c, 0, 63, 0
1, 38362, Note_on_c, 0, 66, 40
1, 38452, Note_on_c, 0, 75, 0
1, 38452, Note_on_c, 0, 76, 58
1, 38452, Note_on_c, 0, 66, 0
1, 38455, Note_on_c, 0, 73, 50
1, 38539, Note_on_c, 0, 76, 0
1, 38539, Note_on_c, 0, 77, 59
1, 38539, Note_on_c, 0, 73, 0
1, 38626, Note_on_c, 0, 77, 0
1, 38626, Note_on_c, 0, 78, 61
1, 38713, Note_on_c, 0, 78, 0
1, 38713, Note_on_c, 0, 79, 62
1, 38800, Note_on_c, 0, 79, 0
1, 38800, Note_on_c, 0, 80, 64
1, 38800, Control_c, 0, 64, 0
1, 38886, Note_on_c, 0, 80, 0
1, 38886, Note_on_c, 0, 81, 66
1, 38972, Note_on_c, 0, 81, 0
1, 38972, Note_on_c, 0, 82, 67
1, 39058, Note_on_c, 0, 82, 0
1, 39058, Note_on_c, 0, 83, 69
1, 39143, Note_on_c, 0, 83, 0
1, 39143, Note_on_c, 0, 88, 78
1, 39203, Control_c, 0, 64, 127
1, 39228, Note_on_c, 0, 88, 0
1, 39228, Note_on_c, 0, 83, 67
1, 39228, Note_on_c, 0, 56, 46
1, 39314, Note_on_c, 0, 83, 0
1, 39314, Note_on_c, 0, 80, 72
1, 39314, Note_on_c, 0, 56, 0
1, 39317, Note_on_c, 0, 64, 54
1, 39400, Note_on_c, 0, 80, 0
1, 39400, Note_on_c, 0, 76, 65
1, 39400, Note_on_c, 0, 64, 0
1, 39403, Note_on_c, 0, 71, 49
1, 39495, Note_on_c, 0, 76, 0
1, 39495, Note_on_c, 0, 90, 90
1, 39495, Note_on_c, 0, 71, 0
1, 39498, Control_c, 0, 64, 0
1, 39557, Control_c, 0, 64, 127
1, 39588, Note_on_c, 0, 62, 44
1, 39681, Note_on_c, 0, 62, 0
1, 39681, Note_on_c, 0, 68, 48
1, 39774, Note_on_c, 0, 90, 0
1, 39774, Note_on_c, 0, 80, 66
1, 39774, Note_on_c, 0, 68, 0
1, 39777, Note_on_c, 0, 71, 51
1, 39866, Note_on_c, 0, 80, 0
1, 39866, Note_on_c, 0, 81, 66
1, 39866, Note_on_c, 0, 71, 0
1, 39869, Note_on_c, 0, 78, 55
1, 39954, Note_on_c, 0, 81, 0
1, 39954, Note_on_c, 0, 82, 67
1, 39954, Note_on_c, 0, 78, 0
1, 40041, Note_on_c, 0, 82, 0
1, 40041, Note_on_c, 0, 83, 69
1, 40128, Note_on_c, 0, 83, 0
1, 40128, Note_on_c, 0, 84, 70
1, 40215, Note_on_c, 0, 84, 0
1, 40215, Note_on_c, 0, 85, 72
1, 40215, Control_c, 0, 64, 0
1, 40301, Note_on_c, 0, 85, 0
1, 40301, Note_on_c, 0, 86, 74
1, 40387, Note_on_c, 0, 86, 0
1, 40387, Note_on_c, 0, 87, 75
1, 40472, Note_on_c, 0, 87, 0
1, 40472, Note_on_c, 0, 88, 77
1, 40558, Note_on_c, 0, 88, 0
1, 40558, Note_on_c, 0, 93, 87
1, 40618, Control_c, 0, 64, 127
1, 40643, Note_on_c, 0, 93, 0
1, 40643, Note_on_c, 0, 88, 73
1, 40643, Note_on_c, 0, 61, 48
1, 40729, Note_on_c, 0, 88, 0
1, 40729, Note_on_c, 0, 85, 76
1, 40729, Note_on_c, 0, 61, 0
1, 40732, Note_on_c, 0, 69, 54
1, 40815, Note_on_c, 0, 85, 0
1, 40815, Note_on_c, 0, 81, 74
1, 40815, Note_on_c, 0, 69, 0
1, 40818, Note_on_c, 0, 76, 49
1, 40908, Note_on_c, 0, 76, 0
1, 40908, Note_on_c, 0, 81, 0
1, 40908, Note_on_c, 0, 76, 83
1, 40913, Control_c, 0, 64, 0
1, 40997, Note_on_c, 0, 52, 45
1, 41000, Control_c, 0, 64, 127
1, 41082, Note_on_c, 0, 52, 0
1, 41082, Note_on_c, 0, 61, 47
1, 41167, Note_on_c, 0, 76, 0
1, 41167, Note_on_c, 0, 85, 56
1, 41167, Note_on_c, 0, 61, 0
1, 41170, Note_on_c, 0, 69, 43
1, 41257, Note_on_c, 0, 85, 0
1, 41257, Note_on_c, 0, 73, 75
1, 41257, Note_on_c, 0, 69, 0
1, 41515, Note_on_c, 0, 73, 0
1, 41515, Note_on_c, 0, 81, 50
1, 41607, Note_on_c, 0, 81, 0
1, 41607, Note_on_c, 0, 69, 67
1, 41616, Control_c, 0, 64, 0
1, 41686, Control_c, 0, 64, 127
1, 41699, Note_on_c, 0, 52, 35
1, 41787, Note_on_c, 0, 52, 0
1, 41787, Note_on_c, 0, 60, 41
1, 41874, Note_on_c, 0, 69, 0
1, 41874, Note_on_c, 0, 78, 45
1, 41874, Note_on_c, 0, 60, 0
1, 41877, Note_on_c, 0, 69, 34
1, 41968, Note_on_c, 0, 78, 0
1, 41968, Note_on_c, 0, 66, 60
1, 41968, Note_on_c, 0, 69, 0
1, 42242, Note_on_c, 0, 66, 0
1, 42242, Note_on_c, 0, 75, 38
1, 42343, Note_on_c, 0, 75, 0
1, 42343, Note_on_c, 0, 65, 52
1, 42348, Control_c, 0, 64, 0
1, 42442, Note_on_c, 0, 52, 30
1, 42446, Control_c, 0, 64, 127
1, 42539, Note_on_c, 0, 52, 0
1, 42539, Note_on_c, 0, 59, 31
1, 42635, Note_on_c, 0, 65, 0
1, 42635, Note_on_c, 0, 74, 38
1, 42635, Note_on_c, 0, 59, 0
1, 42638, Note_on_c, 0, 68, 28
1, 42744, Note_on_c, 0, 74, 0
1, 42744, Note_on_c, 0, 62, 49
1, 42744, Note_on_c, 0, 68, 0
1, 43057, Note_on_c, 0, 62, 0
1, 43057, Note_on_c, 0, 71, 34
1, 43172, Note_on_c, 0, 71, 0
1, 43172, Note_on_c, 0, 61, 46
1, 43183, Control_c, 0, 64, 0
1, 43270, Control_c, 0, 64, 127
1, 43287, Note_on_c, 0, 45, 24
1, 43394, Note_on_c, 0, 45, 0
1, 43394, Note_on_c, 0, 52, 29
1, 43502, Note_on_c, 0, 61, 0
1, 43502, Note_on_c, 0, 69, 36
1, 43502, Note_on_c, 0, 52, 0
1, 43627, Note_on_c, 0, 69, 0
1, 43627, Note_on_c, 0, 33, 34
1, 43751, Note_on_c, 0, 33, 0
1, 43763, Control_c, 0, 64, 0
1, 44125, Note_on_c, 0, 67, 60
1, 44125, Control_c, 0, 64, 127
1, 44223, Note_on_c, 0, 47, 36
1, 44321, Note_on_c, 0, 47, 0
1, 44321, Note_on_c, 0, 55, 36
1, 44420, Note_on_c, 0, 67, 0
1, 44420, Note_on_c, 0, 71, 54
1, 44420, Note_on_c, 0, 55, 0
1, 44423, Note_on_c, 0, 62, 36
1, 44518, Note_on_c, 0, 71, 0
1, 44518, Note_on_c, 0, 74, 58
1, 44518, Note_on_c, 0, 62, 0
1, 44610, Note_on_c, 0, 74, 0
1, 44610, Note_on_c, 0, 79, 54
1, 44699, Note_on_c, 0, 79, 0
1, 44699, Note_on_c, 0, 73, 60
1, 44787, Note_on_c, 0, 73, 0
1, 44787, Note_on_c, 0, 74, 57
1, 44787, Note_on_c, 0, 79, 57
1, 44875, Note_on_c, 0, 79, 0
1, 44875, Note_on_c, 0, 74, 0
1, 44875, Note_on_c, 0, 71, 63
1, 44962, Note_on_c, 0, 71, 0
1, 44962, Note_on_c, 0, 74, 60
1, 44962, Note_on_c, 0, 79, 60
1, 45047, Note_on_c, 0, 79, 0
1, 45047, Note_on_c, 0, 74, 0
1, 45047, Note_on_c, 0, 69, 65
1, 45132, Note_on_c, 0, 69, 0
1, 45132, Note_on_c, 0, 71, 63
1, 45132, Note_on_c, 0, 74, 63
1, 45217, Note_on_c, 0, 74, 0
1, 45217, Note_on_c, 0, 71, 0
1, 45217, Note_on_c, 0, 67, 69
1, 45300, Note_on_c, 0, 67, 0
1, 45300, Note_on_c, 0, 71, 60
1, 45300, Note_on_c, 0, 74, 60
1, 45385, Note_on_c, 0, 74, 0
1, 45385, Note_on_c, 0, 71, 0
1, 45385, Note_on_c, 0, 66, 69
1, 45470, Note_on_c, 0, 66, 0
1, 45470, Note_on_c, 0, 71, 60
1, 45470, Note_on_c, 0, 74, 60
1, 45564, Note_on_c, 0, 74, 0
1, 45564, Note_on_c, 0, 71, 0
1, 45564, Note_on_c, 0, 65, 73
1, 45568, Control_c, 0, 64, 0
1, 45655, Note_on_c, 0, 49, 40
1, 45658, Control_c, 0, 64, 127
1, 45742, Note_on_c, 0, 49, 0
1, 45742, Note_on_c, 0, 59, 43
1, 45829, Note_on_c, 0, 65, 0
1, 45829, Note_on_c, 0, 68, 49
1, 45829, Note_on_c, 0, 73, 58
1, 45832, Note_on_c, 0, 59, 0
1, 45921, Note_on_c, 0, 73, 0
1, 45921, Note_on_c, 0, 68, 0
1, 45921, Note_on_c, 0, 66, 69
1, 45928, Control_c, 0, 64, 0
1, 45986, Control_c, 0, 64, 127
1, 46012, Note_on_c, 0, 49, 40
1, 46099, Note_on_c, 0, 49, 0
1, 46099, Note_on_c, 0, 61, 43
1, 46186, Note_on_c, 0, 66, 0
1, 46186, Note_on_c, 0, 69, 48
1, 46186, Note_on_c, 0, 73, 57
1, 46189, Note_on_c, 0, 61, 0
1, 46277, Note_on_c, 0, 73, 0
1, 46277, Note_on_c, 0, 69, 0
1, 46277, Note_on_c, 0, 63, 70
1, 46286, Control_c, 0, 64, 0
1, 46355, Control_c, 0, 64, 127
1, 46368, Note_on_c, 0, 49, 38
1, 46455, Note_on_c, 0, 49, 0
1, 46455, Note_on_c, 0, 57, 46
1, 46542, Note_on_c, 0, 63, 0
1, 46542, Note_on_c, 0, 66, 47
1, 46542, Note_on_c, 0, 73, 56
1, 46545, Note_on_c, 0, 57, 0
1, 46633, Note_on_c, 0, 73, 0
1, 46633, Note_on_c, 0, 66, 0
1, 46633, Note_on_c, 0, 65, 69
1, 46643, Control_c, 0, 64, 0
1, 46694, Control_c, 0, 64, 127
1, 46724, Note_on_c, 0, 49, 38
1, 46810, Note_on_c, 0, 49, 0
1, 46810, Note_on_c, 0, 59, 44
1, 46897, Note_on_c, 0, 65, 0
1, 46897, Note_on_c, 0, 68, 44
1, 46897, Note_on_c, 0, 73, 52
1, 46900, Note_on_c, 0, 59, 0
1, 46998, Note_on_c, 0, 73, 0
1, 46998, Note_on_c, 0, 68, 0
1, 46998, Note_on_c, 0, 61, 66
1, 47002, Control_c, 0, 64, 0
1, 47090, Note_on_c, 0, 42, 40
1, 47093, Control_c, 0, 64, 127
1, 47178, Note_on_c, 0, 42, 0
1, 47178, Note_on_c, 0, 49, 43
1, 47267, Note_on_c, 0, 61, 0
1, 47267, Note_on_c, 0, 66, 26
1, 47267, Note_on_c, 0, 69, 26
1, 47270, Note_on_c, 0, 73, 42
1, 47270, Note_on_c, 0, 49, 0
1, 47270, Note_on_c, 0, 57, 43
1, 47359, Note_on_c, 0, 73, 0
1, 47359, Note_on_c, 0, 69, 0
1, 47359, Note_on_c, 0, 66, 0
1, 47362, Note_on_c, 0, 62, 51
1, 47362, Note_on_c, 0, 57, 0
1, 47367, Control_c, 0, 64, 0
1, 47425, Control_c, 0, 64, 127
1, 47451, Note_on_c, 0, 62, 0
1, 47451, Note_on_c, 0, 66, 26
1, 47451, Note_on_c, 0, 69, 26
1, 47454, Note_on_c, 0, 73, 42
1, 47548, Note_on_c, 0, 73, 0
1, 47548, Note_on_c, 0, 69, 0
1, 47548, Note_on_c, 0, 66, 0
1, 47551, Note_on_c, 0, 64, 62
1, 47644, Note_on_c, 0, 64, 0
1, 47644, Note_on_c, 0, 66, 27
1, 47644, Note_on_c, 0, 69, 27
1, 47647, Note_on_c, 0, 73, 43
1, 47739, Note_on_c, 0, 73, 0
1, 47739, Note_on_c, 0, 69, 0
1, 47739, Note_on_c, 0, 66, 0
1, 47742, Note_on_c, 0, 61, 63
1, 47748, Control_c, 0, 64, 0
1, 47820, Control_c, 0, 64, 127
1, 47834, Note_on_c, 0, 42, 38
1, 47925, Note_on_c, 0, 42, 0
1, 47925, Note_on_c, 0, 49, 46
1, 48016, Note_on_c, 0, 61, 0
1, 48016, Note_on_c, 0, 69, 23
1, 48016, Note_on_c, 0, 65, 23
1, 48019, Note_on_c, 0, 73, 38
1, 48019, Note_on_c, 0, 49, 0
1, 48019, Note_on_c, 0, 59, 46
1, 48110, Note_on_c, 0, 73, 0
1, 48110, Note_on_c, 0, 65, 0
1, 48110, Note_on_c, 0, 69, 0
1, 48113, Note_on_c, 0, 61, 62
1, 48113, Note_on_c, 0, 59, 0
1, 48120, Control_c, 0, 64, 0
1, 48172, Control_c, 0, 64, 127
1, 48203, Note_on_c, 0, 42, 38
1, 48295, Note_on_c, 0, 42, 0
1, 48295, Note_on_c, 0, 49, 44
1, 48388, Note_on_c, 0, 61, 0
1, 48388, Note_on_c, 0, 65, 26
1, 48388, Note_on_c, 0, 69, 26
1, 48391, Note_on_c, 0, 73, 42
1, 48391, Note_on_c, 0, 49, 0
1, 48391, Note_on_c, 0, 59, 44
1, 48489, Note_on_c, 0, 73, 0
1, 48489, Note_on_c, 0, 69, 0
1, 48489, Note_on_c, 0, 65, 0
1, 48492, Note_on_c, 0, 61, 62
1, 48492, Note_on_c, 0, 59, 0
1, 48492, Control_c, 0, 64, 0
1, 48590, Note_on_c, 0, 42, 38
1, 48590, Control_c, 0, 64, 127
1, 48691, Note_on_c, 0, 42, 0
1, 48691, Note_on_c, 0, 49, 44
1, 48790, Note_on_c, 0, 49, 0
1, 48790, Note_on_c, 0, 57, 44
1, 48889, Note_on_c, 0, 66, 43
1, 48889, Note_on_c, 0, 57, 0
1, 48986, Note_on_c, 0, 66, 0
1, 48986, Note_on_c, 0, 68, 45
1, 49082, Note_on_c, 0, 68, 0
1, 49082, Note_on_c, 0, 69, 46
1, 49178, Note_on_c, 0, 69, 0
1, 49178, Note_on_c, 0, 73, 48
1, 49290, Note_on_c, 0, 73, 0
1, 49389, Note_on_c, 0, 61, 0
1, 49392, Note_on_c, 0, 54, 38
1, 49492, Note_on_c, 0, 54, 0
1, 49492, Note_on_c, 0, 61, 44
1, 49591, Note_on_c, 0, 69, 44
1, 49689, Note_on_c, 0, 78, 46
1, 49689, Note_on_c, 0, 69, 0
1, 49787, Note_on_c, 0, 78, 0
1, 49787, Note_on_c, 0, 80, 48
1, 49883, Note_on_c, 0, 80, 0
1, 49883, Note_on_c, 0, 81, 50
1, 49979, Note_on_c, 0, 81, 0
1, 49979, Note_on_c, 0, 85, 52
1, 50090, Note_on_c, 0, 85, 0
1, 50090, Note_on_c, 0, 72, 60
1, 50090, Note_on_c, 0, 61, 0
1, 50093, Control_c, 0, 64, 0
1, 50189, Note_on_c, 0, 52, 36
1, 50189, Control_c, 0, 64, 127
1, 50287, Note_on_c, 0, 52, 0
1, 50287, Note_on_c, 0, 60, 36
1, 50385, Note_on_c, 0, 72, 0
1, 50385, Note_on_c, 0, 76, 54
1, 50385, Note_on_c, 0, 60, 0
1, 50388, Note_on_c, 0, 67, 36
1, 50484, Note_on_c, 0, 76, 0
1, 50484, Note_on_c, 0, 79, 58
1, 50484, Note_on_c, 0, 67, 0
1, 50576, Note_on_c, 0, 79, 0
1, 50576, Note_on_c, 0, 84, 54
1, 50665, Note_on_c, 0, 84, 0
1, 50665, Note_on_c, 0, 78, 60
1, 50753, Note_on_c, 0, 78, 0
1, 50753, Note_on_c, 0, 79, 57
1, 50753, Note_on_c, 0, 84, 57
1, 50841, Note_on_c, 0, 84, 0
1, 50841, Note_on_c, 0, 79, 0
1, 50841, Note_on_c, 0, 76, 63
1, 50927, Note_on_c, 0, 76, 0
1, 50927, Note_on_c, 0, 79, 60
1, 50927, Note_on_c, 0, 84, 60
1, 51013, Note_on_c, 0, 84, 0
1, 51013, Note_on_c, 0, 79, 0
1, 51013, Note_on_c, 0, 74, 65
1, 51098, Note_on_c, 0, 74, 0
1, 51098, Note_on_c, 0, 76, 63
1, 51098, Note_on_c, 0, 79, 63
1, 51182, Note_on_c, 0, 79, 0
1, 51182, Note_on_c, 0, 76, 0
1, 51182, Note_on_c, 0, 72, 69
1, 51266, Note_on_c, 0, 72, 0
1, 51266, Note_on_c, 0, 76, 60
1, 51266, Note_on_c, 0, 79, 60
1, 51351, Note_on_c, 0, 79, 0
1, 51351, Note_on_c, 0, 76, 0
1, 51351, Note_on_c, 0, 71, 69
1, 51436, Note_on_c, 0, 71, 0
1, 51436, Note_on_c, 0, 76, 60
1, 51436, Note_on_c, 0, 79, 60
1, 51530, Note_on_c, 0, 79, 0
1, 51530, Note_on_c, 0, 76, 0
1, 51530, Note_on_c, 0, 70, 73
1, 51534, Control_c, 0, 64, 0
1, 51621, Note_on_c, 0, 54, 40
1, 51624, Control_c, 0, 64, 127
1, 51708, Note_on_c, 0, 54, 0
1, 51708, Note_on_c, 0, 64, 43
1, 51795, Note_on_c, 0, 70, 0
1, 51795, Note_on_c, 0, 73, 46
1, 51795, Note_on_c, 0, 78, 55
1, 51798, Note_on_c, 0, 64, 0
1, 51887, Note_on_c, 0, 78, 0
1, 51887, Note_on_c, 0, 73, 0
1, 51887, Note_on_c, 0, 71, 69
1, 51894, Control_c, 0, 64, 0
1, 51951, Control_c, 0, 64, 127
1, 51978, Note_on_c, 0, 54, 40
1, 52065, Note_on_c, 0, 54, 0
1, 52065, Note_on_c, 0, 66, 43
1, 52152, Note_on_c, 0, 71, 0
1, 52152, Note_on_c, 0, 74, 43
1, 52152, Note_on_c, 0, 78, 51
1, 52155, Note_on_c, 0, 66, 0
1, 52243, Note_on_c, 0, 78, 0
1, 52243, Note_on_c, 0, 74, 0
1, 52243, Note_on_c, 0, 68, 70
1, 52252, Control_c, 0, 64, 0
1, 52321, Control_c, 0, 64, 127
1, 52334, Note_on_c, 0, 54, 38
1, 52420, Note_on_c, 0, 54, 0
1, 52420, Note_on_c, 0, 62, 46
1, 52507, Note_on_c, 0, 68, 0
1, 52507, Note_on_c, 0, 71, 43
1, 52507, Note_on_c, 0, 78, 51
1, 52510, Note_on_c, 0, 62, 0
1, 52598, Note_on_c, 0, 78, 0
1, 52598, Note_on_c, 0, 71, 0
1, 52598, Note_on_c, 0, 70, 69
1, 52608, Control_c, 0, 64, 0
1, 52659, Control_c, 0, 64, 127
1, 52690, Note_on_c, 0, 54, 38
1, 52776, Note_on_c, 0, 54, 0
1, 52776, Note_on_c, 0, 64, 44
1, 52863, Note_on_c, 0, 70, 0
1, 52863, Note_on_c, 0, 73, 41
1, 52863, Note_on_c, 0, 78, 49
1, 52866, Note_on_c, 0, 64, 0
1, 52964, Note_on_c, 0, 78, 0
1, 52964, Note_on_c, 0, 73, 0
1, 52964, Note_on_c, 0, 66, 66
1, 52968, Control_c, 0, 64, 0
1, 53055, Note_on_c, 0, 47, 40
1, 53059, Control_c, 0, 64, 127
1, 53144, Note_on_c, 0, 47, 0
1, 53144, Note_on_c, 0, 54, 43
1, 53233, Note_on_c, 0, 66, 0
1, 53233, Note_on_c, 0, 71, 26
1, 53233, Note_on_c, 0, 74, 26
1, 53236, Note_on_c, 0, 78, 42
1, 53236, Note_on_c, 0, 54, 0
1, 53236, Note_on_c, 0, 62, 43
1, 53325, Note_on_c, 0, 78, 0
1, 53325, Note_on_c, 0, 74, 0
1, 53325, Note_on_c, 0, 71, 0
1, 53328, Note_on_c, 0, 67, 60
1, 53328, Note_on_c, 0, 62, 0
1, 53333, Control_c, 0, 64, 0
1, 53390, Control_c, 0, 64, 127
1, 53417, Note_on_c, 0, 67, 0
1, 53417, Note_on_c, 0, 71, 25
1, 53417, Note_on_c, 0, 74, 25
1, 53420, Note_on_c, 0, 78, 41
1, 53513, Note_on_c, 0, 78, 0
1, 53513, Note_on_c, 0, 74, 0
1, 53513, Note_on_c, 0, 71, 0
1, 53516, Note_on_c, 0, 69, 60
1, 53610, Note_on_c, 0, 69, 0
1, 53610, Note_on_c, 0, 71, 25
1, 53610, Note_on_c, 0, 74, 25
1, 53613, Note_on_c, 0, 78, 40
1, 53705, Note_on_c, 0, 78, 0
1, 53705, Note_on_c, 0, 74, 0
1, 53705, Note_on_c, 0, 71, 0
1, 53708, Note_on_c, 0, 66, 59
1, 53714, Control_c, 0, 64, 0
1, 53786, Control_c, 0, 64, 127
1, 53800, Note_on_c, 0, 47, 35
1, 53891, Note_on_c, 0, 47, 0
1, 53891, Note_on_c, 0, 54, 42
1, 53982, Note_on_c, 0, 66, 0
1, 53982, Note_on_c, 0, 74, 21
1, 53982, Note_on_c, 0, 70, 21
1, 53985, Note_on_c, 0, 78, 34
1, 53985, Note_on_c, 0, 54, 0
1, 53985, Note_on_c, 0, 64, 41
1, 54075, Note_on_c, 0, 78, 0
1, 54075, Note_on_c, 0, 70, 0
1, 54075, Note_on_c, 0, 74, 0
1, 54078, Note_on_c, 0, 66, 55
1, 54078, Note_on_c, 0, 64, 0
1, 54085, Control_c, 0, 64, 0
1, 54138, Control_c, 0, 64, 127
1, 54169, Note_on_c, 0, 47, 33
1, 54261, Note_on_c, 0, 47, 0
1, 54261, Note_on_c, 0, 54, 38
1, 54353, Note_on_c, 0, 66, 0
1, 54353, Note_on_c, 0, 70, 22
1, 54353, Note_on_c, 0, 74, 22
1, 54356, Note_on_c, 0, 78, 36
1, 54356, Note_on_c, 0, 54, 0
1, 54356, Note_on_c, 0, 64, 38
1, 54463, Note_on_c, 0, 78, 0
1, 54463, Note_on_c, 0, 74, 0
1, 54463, Note_on_c, 0, 70, 0
1, 54466, Note_on_c, 0, 66, 44
1, 54466, Note_on_c, 0, 64, 0
1, 54466, Control_c, 0, 64, 0
1, 54562, Note_on_c, 0, 47, 27
1, 54566, Control_c, 0, 64, 127
1, 54658, Note_on_c, 0, 47, 0
1, 54658, Note_on_c, 0, 54, 28
1, 54753, Note_on_c, 0, 66, 0
1, 54753, Note_on_c, 0, 71, 20
1, 54753, Note_on_c, 0, 75, 20
1, 54756, Note_on_c, 0, 78, 33
1, 54756, Note_on_c, 0, 54, 0
1, 54756, Note_on_c, 0, 63, 28
1, 54852, Note_on_c, 0, 78, 0
1, 54852, Note_on_c, 0, 75, 0
1, 54852, Note_on_c, 0, 71, 0
1, 54855, Note_on_c, 0, 68, 39
1, 54855, Note_on_c, 0, 63, 0
1, 54860, Control_c, 0, 64, 0
1, 54921, Control_c, 0, 64, 127
1, 54950, Note_on_c, 0, 68, 0
1, 54950, Note_on_c, 0, 71, 19
1, 54950, Note_on_c, 0, 75, 19
1, 54953, Note_on_c, 0, 78, 32
1, 55052, Note_on_c, 0, 78, 0
1, 55052, Note_on_c, 0, 75, 0
1, 55052, Note_on_c, 0, 71, 0
1, 55055, Note_on_c, 0, 70, 39
1, 55155, Note_on_c, 0, 70, 0
1, 55155, Note_on_c, 0, 71, 20
1, 55155, Note_on_c, 0, 75, 20
1, 55158, Note_on_c, 0, 78, 32
1, 55254, Note_on_c, 0, 78, 0
1, 55254, Note_on_c, 0, 75, 0
1, 55254, Note_on_c, 0, 71, 0
1, 55257, Note_on_c, 0, 66, 39
1, 55264, Control_c, 0, 64, 0
1, 55340, Control_c, 0, 64, 127
1, 55354, Note_on_c, 0, 47, 23
1, 55451, Note_on_c, 0, 47, 0
1, 55451, Note_on_c, 0, 54, 28
1, 55548, Note_on_c, 0, 66, 0
1, 55548, Note_on_c, 0, 75, 17
1, 55548, Note_on_c, 0, 70, 17
1, 55551, Note_on_c, 0, 78, 28
1, 55551, Note_on_c, 0, 54, 0
1, 55551, Note_on_c, 0, 64, 28
1, 55650, Note_on_c, 0, 78, 0
1, 55650, Note_on_c, 0, 70, 0
1, 55650, Note_on_c, 0, 75, 0
1, 55653, Note_on_c, 0, 66, 38
1, 55653, Note_on_c, 0, 64, 0
1, 55661, Control_c, 0, 64, 0
1, 55717, Control_c, 0, 64, 127
1, 55751, Note_on_c, 0, 47, 22
1, 55850, Note_on_c, 0, 47, 0
1, 55850, Note_on_c, 0, 54, 26
1, 55949, Note_on_c, 0, 66, 0
1, 55949, Note_on_c, 0, 70, 17
1, 55949, Note_on_c, 0, 75, 17
1, 55952, Note_on_c, 0, 78, 29
1, 55952, Note_on_c, 0, 54, 0
1, 55952, Note_on_c, 0, 64, 26
1, 56056, Note_on_c, 0, 78, 0
1, 56056, Note_on_c, 0, 75, 0
1, 56056, Note_on_c, 0, 70, 0
1, 56059, Note_on_c, 0, 66, 44
1, 56059, Note_on_c, 0, 64, 0
1, 56059, Control_c, 0, 64, 0
1, 56157, Note_on_c, 0, 47, 27
1, 56157, Control_c, 0, 64, 127
1, 56256, Note_on_c, 0, 47, 0
1, 56256, Note_on_c, 0, 54, 31
1, 56354, Note_on_c, 0, 54, 0
1, 56354, Note_on_c, 0, 63, 31
1, 56450, Note_on_c, 0, 71, 30
1, 56450, Note_on_c, 0, 63, 0
1, 56545, Note_on_c, 0, 71, 0
1, 56545, Note_on_c, 0, 73, 32
1, 56639, Note_on_c, 0, 73, 0
1, 56639, Note_on_c, 0, 75, 33
1, 56732, Note_on_c, 0, 75, 0
1, 56732, Note_on_c, 0, 78, 34
1, 56844, Note_on_c, 0, 78, 0
1, 56844, Note_on_c, 0, 66, 0
1, 56844, Note_on_c, 0, 66, 44
1, 56852, Control_c, 0, 64, 0
1, 56927, Control_c, 0, 64, 127
1, 56946, Note_on_c, 0, 47, 27
1, 57045, Note_on_c, 0, 47, 0
1, 57045, Note_on_c, 0, 54, 31
1, 57140, Note_on_c, 0, 54, 0
1, 57140, Note_on_c, 0, 63, 31
1, 57235, Note_on_c, 0, 71, 37
1, 57235, Note_on_c, 0, 63, 0
1, 57329, Note_on_c, 0, 71, 0
1, 57329, Note_on_c, 0, 73, 39
1, 57421, Note_on_c, 0, 73, 0
1, 57421, Note_on_c, 0, 75, 41
1, 57513, Note_on_c, 0, 75, 0
1, 57513, Note_on_c, 0, 78, 44
1, 57624, Note_on_c, 0, 78, 0
1, 57624, Note_on_c, 0, 66, 0
1, 57624, Note_on_c, 0, 78, 49
1, 57635, Control_c, 0, 64, 0
1, 57731, Note_on_c, 0, 47, 32
1, 57795, Control_c, 0, 64, 127
1, 57830, Note_on_c, 0, 47, 0
1, 57830, Note_on_c, 0, 54, 34
1, 57927, Note_on_c, 0, 54, 0
1, 57927, Note_on_c, 0, 62, 37
1, 58024, Note_on_c, 0, 74, 43
1, 58024, Note_on_c, 0, 62, 0
1, 58123, Note_on_c, 0, 74, 0
1, 58123, Note_on_c, 0, 73, 41
1, 58222, Note_on_c, 0, 73, 0
1, 58222, Note_on_c, 0, 71, 40
1, 58322, Note_on_c, 0, 71, 0
1, 58322, Note_on_c, 0, 66, 39
1, 58429, Note_on_c, 0, 66, 0
1, 58429, Note_on_c, 0, 78, 0
1, 58429, Note_on_c, 0, 78, 49
1, 58440, Control_c, 0, 64, 0
1, 58537, Note_on_c, 0, 47, 32
1, 58611, Control_c, 0, 64, 127
1, 58634, Note_on_c, 0, 47, 0
1, 58634, Note_on_c, 0, 55, 34
1, 58732, Note_on_c, 0, 55, 0
1, 58732, Note_on_c, 0, 62, 37
1, 58832, Note_on_c, 0, 74, 43
1, 58832, Note_on_c, 0, 62, 0
1, 58934, Note_on_c, 0, 74, 0
1, 58934, Note_on_c, 0, 73, 41
1, 59037, Note_on_c, 0, 73, 0
1, 59037, Note_on_c, 0, 71, 40
1, 59142, Note_on_c, 0, 71, 0
1, 59142, Note_on_c, 0, 67, 39
1, 59248, Note_on_c, 0, 67, 0
1, 59248, Note_on_c, 0, 78, 0
1, 59248, Note_on_c, 0, 78, 49
1, 59251, Note_on_c, 0, 38, 31
1, 59251, Note_on_c, 0, 50, 36
1, 59251, Control_c, 0, 64, 0
1, 59310, Control_c, 0, 64, 127
1, 59341, Note_on_c, 0, 50, 0
1, 59341, Note_on_c, 0, 38, 0
1, 59341, Note_on_c, 0, 56, 36
1, 59434, Note_on_c, 0, 56, 0
1, 59434, Note_on_c, 0, 59, 36
1, 59527, Note_on_c, 0, 78, 0
1, 59527, Note_on_c, 0, 68, 42
1, 59527, Note_on_c, 0, 59, 0
1, 59530, Note_on_c, 0, 66, 45
1, 59619, Note_on_c, 0, 68, 0
1, 59619, Note_on_c, 0, 69, 43
1, 59619, Note_on_c, 0, 66, 0
1, 59707, Note_on_c, 0, 69, 0
1, 59707, Note_on_c, 0, 70, 45
1, 59794, Note_on_c, 0, 70, 0
1, 59794, Note_on_c, 0, 71, 47
1, 59881, Note_on_c, 0, 71, 0
1, 59881, Note_on_c, 0, 72, 49
1, 59968, Note_on_c, 0, 72, 0
1, 59968, Note_on_c, 0, 73, 50
1, 59968, Control_c, 0, 64, 0
1, 60054, Note_on_c, 0, 73, 0
1, 60054, Note_on_c, 0, 74, 52
1, 60140, Note_on_c, 0, 74, 0
1, 60140, Note_on_c, 0, 75, 54
1, 60225, Note_on_c, 0, 75, 0
1, 60225, Note_on_c, 0, 76, 56
1, 60311, Note_on_c, 0, 76, 0
1, 60311, Note_on_c, 0, 81, 62
1, 60371, Control_c, 0, 64, 127
1, 60396, Note_on_c, 0, 81, 0
1, 60396, Note_on_c, 0, 76, 55
1, 60396, Note_on_c, 0, 49, 40
1, 60482, Note_on_c, 0, 76, 0
1, 60482, Note_on_c, 0, 73, 62
1, 60482, Note_on_c, 0, 49, 0
1, 60485, Note_on_c, 0, 57, 44
1, 60568, Note_on_c, 0, 73, 0
1, 60568, Note_on_c, 0, 69, 58
1, 60568, Note_on_c, 0, 57, 0
1, 60571, Note_on_c, 0, 64, 40
1, 60663, Note_on_c, 0, 69, 0
1, 60663, Note_on_c, 0, 67, 68
1, 60663, Note_on_c, 0, 64, 0
1, 60666, Control_c, 0, 64, 0
1, 60750, Note_on_c, 0, 46, 40
1, 60753, Control_c, 0, 64, 127
1, 60835, Note_on_c, 0, 46, 0
1, 60835, Note_on_c, 0, 52, 43
1, 60920, Note_on_c, 0, 67, 0
1, 60920, Note_on_c, 0, 76, 54
1, 60920, Note_on_c, 0, 52, 0
1, 60923, Note_on_c, 0, 61, 40
1, 61010, Note_on_c, 0, 76, 0
1, 61010, Note_on_c, 0, 68, 69
1, 61010, Note_on_c, 0, 61, 0
1, 61017, Control_c, 0, 64, 0
1, 61073, Control_c, 0, 64, 127
1, 61099, Note_on_c, 0, 47, 40
1, 61184, Note_on_c, 0, 47, 0
1, 61184, Note_on_c, 0, 52, 43
1, 61268, Note_on_c, 0, 68, 0
1, 61268, Note_on_c, 0, 76, 53
1, 61268, Note_on_c, 0, 52, 0
1, 61271, Note_on_c, 0, 62, 40
1, 61357, Note_on_c, 0, 76, 0
1, 61357, Note_on_c, 0, 67, 70
1, 61357, Note_on_c, 0, 62, 0
1, 61366, Control_c, 0, 64, 0
1, 61434, Control_c, 0, 64, 127
1, 61446, Note_on_c, 0, 46, 38
1, 61531, Note_on_c, 0, 46, 0
1, 61531, Note_on_c, 0, 52, 46
1, 61615, Note_on_c, 0, 67, 0
1, 61615, Note_on_c, 0, 76, 53
1, 61615, Note_on_c, 0, 52, 0
1, 61618, Note_on_c, 0, 61, 38
1, 61705, Note_on_c, 0, 76, 0
1, 61705, Note_on_c, 0, 68, 69
1, 61705, Note_on_c, 0, 61, 0
1, 61714, Control_c, 0, 64, 0
1, 61764, Control_c, 0, 64, 127
1, 61794, Note_on_c, 0, 47, 38
1, 61879, Note_on_c, 0, 47, 0
1, 61879, Note_on_c, 0, 52, 44
1, 61963, Note_on_c, 0, 68, 0
1, 61963, Note_on_c, 0, 77, 50
1, 61963, Note_on_c, 0, 52, 0
1, 61966, Note_on_c, 0, 62, 38
1, 62064, Note_on_c, 0, 77, 0
1, 62064, Note_on_c, 0, 78, 67
1, 62064, Note_on_c, 0, 62, 0
1, 62067, Control_c, 0, 64, 0
1, 62126, Control_c, 0, 64, 127
1, 62157, Note_on_c, 0, 50, 36
1, 62250, Note_on_c, 0, 50, 0
1, 62250, Note_on_c, 0, 56, 36
1, 62343, Note_on_c, 0, 78, 0
1, 62343, Note_on_c, 0, 68, 54
1, 62343, Note_on_c, 0, 56, 0
1, 62346, Note_on_c, 0, 59, 36
1, 62436, Note_on_c, 0, 68, 0
1, 62436, Note_on_c, 0, 69, 53
1, 62436, Note_on_c, 0, 59, 0
1, 62439, Note_on_c, 0, 66, 45
1, 62523, Note_on_c, 0, 69, 0
1, 62523, Note_on_c, 0, 70, 54
1, 62523, Note_on_c, 0, 66, 0
1, 62610, Note_on_c, 0, 70, 0
1, 62610, Note_on_c, 0, 71, 55
1, 62697, Note_on_c, 0, 71, 0
1, 62697, Note_on_c, 0, 72, 57
1, 62784, Note_on_c, 0, 72, 0
1, 62784, Note_on_c, 0, 73, 58
1, 62784, Control_c, 0, 64, 0
1, 62870, Note_on_c, 0, 73, 0
1, 62870, Note_on_c, 0, 74, 60
1, 62956, Note_on_c, 0, 74, 0
1, 62956, Note_on_c, 0, 75, 61
1, 63042, Note_on_c, 0, 75, 0
1, 63042, Note_on_c, 0, 76, 63
1, 63127, Note_on_c, 0, 76, 0
1, 63127, Note_on_c, 0, 81, 69
1, 63187, Control_c, 0, 64, 127
1, 63212, Note_on_c, 0, 81, 0
1, 63212, Note_on_c, 0, 76, 60
1, 63212, Note_on_c, 0, 49, 40
1, 63298, Note_on_c, 0, 76, 0
1, 63298, Note_on_c, 0, 73, 62
1, 63298, Note_on_c, 0, 49, 0
1, 63301, Note_on_c, 0, 57, 44
1, 63384, Note_on_c, 0, 73, 0
1, 63384, Note_on_c, 0, 69, 60
1, 63384, Note_on_c, 0, 57, 0
1, 63387, Note_on_c, 0, 64, 40
1, 63487, Note_on_c, 0, 69, 0
1, 63487, Note_on_c, 0, 85, 76
1, 63487, Note_on_c, 0, 64, 0
1, 63490, Control_c, 0, 64, 0
1, 63549, Control_c, 0, 64, 127
1, 63580, Note_on_c, 0, 57, 39
1, 63673, Note_on_c, 0, 57, 0
1, 63673, Note_on_c, 0, 63, 39
1, 63766, Note_on_c, 0, 85, 0
1, 63766, Note_on_c, 0, 75, 60
1, 63766, Note_on_c, 0, 63, 0
1, 63769, Note_on_c, 0, 66, 40
1, 63858, Note_on_c, 0, 75, 0
1, 63858, Note_on_c, 0, 76, 58
1, 63858, Note_on_c, 0, 66, 0
1, 63861, Note_on_c, 0, 73, 50
1, 63946, Note_on_c, 0, 76, 0
1, 63946, Note_on_c, 0, 77, 59
1, 63946, Note_on_c, 0, 73, 0
1, 64033, Note_on_c, 0, 77, 0
1, 64033, Note_on_c, 0, 78, 61
1, 64120, Note_on_c, 0, 78, 0
1, 64120, Note_on_c, 0, 79, 62
1, 64207, Note_on_c, 0, 79, 0
1, 64207, Note_on_c, 0, 80, 64
1, 64207, Control_c, 0, 64, 0
1, 64293, Note_on_c, 0, 80, 0
1, 64293, Note_on_c, 0, 81, 66
1, 64379, Note_on_c, 0, 81, 0
1, 64379, Note_on_c, 0, 82, 67
1, 64465, Note_on_c, 0, 82, 0
1, 64465, Note_on_c, 0, 83, 69
1, 64550, Note_on_c, 0, 83, 0
1, 64550, Note_on_c, 0, 88, 78
1, 64610, Control_c, 0, 64, 127
1, 64635, Note_on_c, 0, 88, 0
1, 64635, Note_on_c, 0, 83, 67
1, 64635, Note_on_c, 0, 56, 46
1, 64721, Note_on_c, 0, 83, 0
1, 64721, Note_on_c, 0, 80, 74
1, 64721, Note_on_c, 0, 56, 0
1, 64724, Note_on_c, 0, 64, 54
1, 64807, Note_on_c, 0, 80, 0
1, 64807, Note_on_c, 0, 76, 65
1, 64807, Note_on_c, 0, 64, 0
1, 64810, Note_on_c, 0, 71, 49
1, 64902, Note_on_c, 0, 76, 0
1, 64902, Note_on_c, 0, 90, 90
1, 64902, Note_on_c, 0, 71, 0
1, 64905, Control_c, 0, 64, 0
1, 64964, Control_c, 0, 64, 127
1, 64995, Note_on_c, 0, 62, 49
1, 65088, Note_on_c, 0, 62, 0
1, 65088, Note_on_c, 0, 68, 52
1, 65181, Note_on_c, 0, 90, 0
1, 65181, Note_on_c, 0, 80, 70
1, 65181, Note_on_c, 0, 68, 0
1, 65184, Note_on_c, 0, 71, 56
1, 65273, Note_on_c, 0, 80, 0
1, 65273, Note_on_c, 0, 81, 70
1, 65273, Note_on_c, 0, 71, 0
1, 65276, Note_on_c, 0, 78, 59
1, 65361, Note_on_c, 0, 81, 0
1, 65361, Note_on_c, 0, 82, 71
1, 65361, Note_on_c, 0, 78, 0
1, 65448, Note_on_c, 0, 82, 0
1, 65448, Note_on_c, 0, 83, 72
1, 65535, Note_on_c, 0, 83, 0
1, 65535, Note_on_c, 0, 84, 74
1, 65621, Note_on_c, 0, 84, 0
1, 65621, Note_on_c, 0, 85, 75
1, 65621, Control_c, 0, 64, 0
1, 65708, Note_on_c, 0, 85, 0
1, 65708, Note_on_c, 0, 86, 77
1, 65794, Note_on_c, 0, 86, 0
1, 65794, Note_on_c, 0, 87, 77
1, 65879, Note_on_c, 0, 87, 0
1, 65879, Note_on_c, 0, 88, 77
1, 65965, Note_on_c, 0, 88, 0
1, 65965, Note_on_c, 0, 93, 90
1, 66025, Control_c, 0, 64, 127
1, 66050, Note_on_c, 0, 93, 0
1, 66050, Note_on_c, 0, 88, 80
1, 66050, Note_on_c, 0, 61, 52
1, 66136, Note_on_c, 0, 88, 0
1, 66136, Note_on_c, 0, 85, 83
1, 66136, Note_on_c, 0, 61, 0
1, 66139, Note_on_c, 0, 69, 60
1, 66222, Note_on_c, 0, 85, 0
1, 66222, Note_on_c, 0, 81, 79
1, 66222, Note_on_c, 0, 69, 0
1, 66225, Note_on_c, 0, 76, 53
1, 66315, Note_on_c, 0, 76, 0
1, 66315, Note_on_c, 0, 81, 0
1, 66315, Note_on_c, 0, 76, 90
1, 66320, Control_c, 0, 64, 0
1, 66404, Note_on_c, 0, 52, 45
1, 66407, Control_c, 0, 64, 127
1, 66489, Note_on_c, 0, 52, 0
1, 66489, Note_on_c, 0, 61, 48
1, 66574, Note_on_c, 0, 76, 0
1, 66574, Note_on_c, 0, 85, 66
1, 66574, Note_on_c, 0, 61, 0
1, 66577, Note_on_c, 0, 69, 44
1, 66664, Note_on_c, 0, 85, 0
1, 66664, Note_on_c, 0, 73, 84
1, 66664, Note_on_c, 0, 69, 0
1, 66922, Note_on_c, 0, 73, 0
1, 66922, Note_on_c, 0, 81, 61
1, 67014, Note_on_c, 0, 81, 0
1, 67014, Note_on_c, 0, 69, 70
1, 67023, Control_c, 0, 64, 0
1, 67093, Control_c, 0, 64, 127
1, 67106, Note_on_c, 0, 52, 37
1, 67194, Note_on_c, 0, 52, 0
1, 67194, Note_on_c, 0, 60, 44
1, 67281, Note_on_c, 0, 69, 0
1, 67281, Note_on_c, 0, 78, 51
1, 67281, Note_on_c, 0, 60, 0
1, 67284, Note_on_c, 0, 69, 36
1, 67375, Note_on_c, 0, 78, 0
1, 67375, Note_on_c, 0, 66, 64
1, 67375, Note_on_c, 0, 69, 0
1, 67649, Note_on_c, 0, 66, 0
1, 67649, Note_on_c, 0, 75, 42
1, 67750, Note_on_c, 0, 75, 0
1, 67750, Note_on_c, 0, 65, 57
1, 67754, Control_c, 0, 64, 0
1, 67849, Note_on_c, 0, 52, 33
1, 67853, Control_c, 0, 64, 127
1, 67946, Note_on_c, 0, 52, 0
1, 67946, Note_on_c, 0, 59, 35
1, 68042, Note_on_c, 0, 65, 0
1, 68042, Note_on_c, 0, 74, 43
1, 68042, Note_on_c, 0, 59, 0
1, 68045, Note_on_c, 0, 68, 32
1, 68151, Note_on_c, 0, 74, 0
1, 68151, Note_on_c, 0, 62, 55
1, 68151, Note_on_c, 0, 68, 0
1, 68464, Note_on_c, 0, 62, 0
1, 68464, Note_on_c, 0, 71, 39
1, 68579, Note_on_c, 0, 71, 0
1, 68720, Control_c, 0, 64, 0
1, 69428, Note_on_c, 0, 64, 60
1, 69433, Control_c, 0, 64, 0
1, 69532, Note_on_c, 0, 40, 29
1, 69536, Control_c, 0, 64, 127
1, 69626, Note_on_c, 0, 40, 0
1, 69626, Note_on_c, 0, 49, 33
1, 69721, Note_on_c, 0, 64, 0
1, 69721, Note_on_c, 0, 73, 38
1, 69721, Note_on_c, 0, 49, 0
1, 69724, Note_on_c, 0, 57, 30
1, 69824, Note_on_c, 0, 73, 0
1, 69824, Note_on_c, 0, 61, 53
1, 69824, Note_on_c, 0, 57, 0
1, 70121, Note_on_c, 0, 61, 0
1, 70121, Note_on_c, 0, 69, 35
1, 70229, Note_on_c, 0, 69, 0
1, 70229, Note_on_c, 0, 57, 50
1, 70240, Control_c, 0, 64, 0
1, 70322, Control_c, 0, 64, 127
1, 70337, Note_on_c, 0, 40, 28
1, 70436, Note_on_c, 0, 40, 0
1, 70436, Note_on_c, 0, 48, 31
1, 70535, Note_on_c, 0, 57, 0
1, 70535, Note_on_c, 0, 66, 36
1, 70535, Note_on_c, 0, 48, 0
1, 70538, Note_on_c, 0, 57, 30
1, 70644, Note_on_c, 0, 66, 0
1, 70644, Note_on_c, 0, 54, 46
1, 70644, Note_on_c, 0, 57, 0
1, 70953, Note_on_c, 0, 54, 0
1, 70953, Note_on_c, 0, 63, 29
1, 71067, Note_on_c, 0, 63, 0
1, 71067, Note_on_c, 0, 53, 42
1, 71071, Control_c, 0, 64, 0
1, 71179, Note_on_c, 0, 40, 27
1, 71184, Control_c, 0, 64, 127
1, 71286, Note_on_c, 0, 40, 0
1, 71286, Note_on_c, 0, 47, 30
1, 71393, Note_on_c, 0, 53, 0
1, 71393, Note_on_c, 0, 62, 29
1, 71393, Note_on_c, 0, 47, 0
1, 71396, Note_on_c, 0, 56, 24
1, 71515, Note_on_c, 0, 62, 0
1, 71515, Note_on_c, 0, 50, 40
1, 71515, Note_on_c, 0, 56, 0
1, 71857, Note_on_c, 0, 50, 0
1, 71857, Note_on_c, 0, 59, 27
1, 71982, Note_on_c, 0, 59, 0
1, 71982, Note_on_c, 0, 49, 36
1, 71995, Control_c, 0, 64, 0
1, 72090, Control_c, 0, 64, 127
1, 72108, Note_on_c, 0, 33, 28
1, 72225, Note_on_c, 0, 33, 0
1, 72225, Note_on_c, 0, 40, 34
1, 72343, Note_on_c, 0, 49, 0
1, 72343, Note_on_c, 0, 57, 28
1, 72343, Note_on_c, 0, 40, 0
1, 72658, Note_on_c, 0, 57, 0
1, 72658, Note_on_c, 0, 21, 47
1, 73286, Note_on_c, 0, 21, 0
1, 73915, Control_c, 0, 64, 0
1, 75413, End_track
0, 0, End_of_file
