0, 0, Header, 1, 3, 240
1, 0, Start_track
1, 0, Title_t, "untitled"
1, 0, Time_signature, 3, 2, 24, 8
1, 0, Key_signature, 1, "major"
1, 0, Tempo, 303030
1, 0, End_track
2, 0, Start_track
2, 0, Title_t, "Piano"
2, 0, Program_c, 0, 0
2, 0, Control_c, 0, 7, 115
2, 0, Control_c, 0, 10, 76
2, 0, Note_on_c, 0, 67, 72
2, 0, Note_on_c, 0, 64, 72
2, 0, Note_on_c, 0, 76, 72
2, 0, Note_on_c, 0, 71, 72
2, 158, Note_on_c, 0, 71, 0
2, 158, Note_on_c, 0, 67, 0
2, 158, Note_on_c, 0, 64, 0
2, 158, Note_on_c, 0, 76, 0
2, 240, Note_on_c, 0, 67, 72
2, 240, Note_on_c, 0, 64, 72
2, 240, Note_on_c, 0, 76, 72
2, 240, Note_on_c, 0, 71, 72
2, 398, Note_on_c, 0, 71, 0
2, 398, Note_on_c, 0, 67, 0
2, 398, Note_on_c, 0, 64, 0
2, 398, Note_on_c, 0, 76, 0
2, 480, Note_on_c, 0, 72, 72
2, 480, Note_on_c, 0, 76, 72
2, 480, Note_on_c, 0, 60, 72
2, 480, Note_on_c, 0, 67, 72
2, 638, Note_on_c, 0, 67, 0
2, 638, Note_on_c, 0, 72, 0
2, 638, Note_on_c, 0, 76, 0
2, 638, Note_on_c, 0, 60, 0
2, 720, Note_on_c, 0, 67, 72
2, 720, Note_on_c, 0, 64, 72
2, 720, Note_on_c, 0, 76, 72
2, 720, Note_on_c, 0, 71, 72
2, 878, Note_on_c, 0, 71, 0
2, 878, Note_on_c, 0, 67, 0
2, 878, Note_on_c, 0, 64, 0
2, 878, Note_on_c, 0, 76, 0
2, 960, Note_on_c, 0, 64, 72
2, 960, Note_on_c, 0, 76, 72
2, 960, Note_on_c, 0, 71, 72
2, 960, Note_on_c, 0, 67, 72
2, 1118, Note_on_c, 0, 67, 0
2, 1118, Note_on_c, 0, 64, 0
2, 1118, Note_on_c, 0, 76, 0
2, 1118, Note_on_c, 0, 71, 0
2, 1200, Note_on_c, 0, 67, 72
2, 1279, Note_on_c, 0, 67, 0
2, 1320, Note_on_c, 0, 69, 72
2, 1399, Note_on_c, 0, 69, 0
2, 1440, Note_on_c, 0, 71, 72
2, 1440, Note_on_c, 0, 64, 72
2, 1440, Note_on_c, 0, 67, 72
2, 1560, Note_on_c, 0, 71, 0
2, 1560, Note_on_c, 0, 72, 72
2, 1680, Note_on_c, 0, 72, 0
2, 1680, Note_on_c, 0, 67, 0
2, 1680, Note_on_c, 0, 64, 0
2, 1680, Note_on_c, 0, 71, 72
2, 1680, Note_on_c, 0, 64, 72
2, 1680, Note_on_c, 0, 67, 72
2, 1800, Note_on_c, 0, 71, 0
2, 1800, Note_on_c, 0, 78, 72
2, 1920, Note_on_c, 0, 78, 0
2, 1920, Note_on_c, 0, 67, 0
2, 1920, Note_on_c, 0, 64, 0
2, 1920, Note_on_c, 0, 64, 72
2, 1920, Note_on_c, 0, 69, 72
2, 1920, Note_on_c, 0, 76, 72
2, 2040, Note_on_c, 0, 76, 0
2, 2040, Note_on_c, 0, 74, 72
2, 2160, Note_on_c, 0, 74, 0
2, 2160, Note_on_c, 0, 69, 0
2, 2160, Note_on_c, 0, 64, 0
2, 2160, Note_on_c, 0, 71, 72
2, 2160, Note_on_c, 0, 64, 72
2, 2160, Note_on_c, 0, 67, 72
2, 2280, Note_on_c, 0, 71, 0
2, 2280, Note_on_c, 0, 76, 72
2, 2400, Note_on_c, 0, 76, 0
2, 2400, Note_on_c, 0, 67, 0
2, 2400, Note_on_c, 0, 64, 0
2, 2400, Note_on_c, 0, 79, 72
2, 2520, Note_on_c, 0, 79, 0
2, 2520, Note_on_c, 0, 82, 72
2, 2640, Note_on_c, 0, 82, 0
2, 2640, Note_on_c, 0, 83, 72
2, 2880, Note_on_c, 0, 83, 0
2, 2880, Note_on_c, 0, 71, 72
2, 2880, Note_on_c, 0, 83, 72
2, 2880, Note_on_c, 0, 78, 72
2, 2880, Note_on_c, 0, 74, 72
2, 3038, Note_on_c, 0, 74, 0
2, 3038, Note_on_c, 0, 71, 0
2, 3038, Note_on_c, 0, 83, 0
2, 3038, Note_on_c, 0, 78, 0
2, 3120, Note_on_c, 0, 71, 72
2, 3120, Note_on_c, 0, 83, 72
2, 3120, Note_on_c, 0, 78, 72
2, 3120, Note_on_c, 0, 74, 72
2, 3278, Note_on_c, 0, 74, 0
2, 3278, Note_on_c, 0, 71, 0
2, 3278, Note_on_c, 0, 83, 0
2, 3278, Note_on_c, 0, 78, 0
2, 3360, Note_on_c, 0, 74, 72
2, 3360, Note_on_c, 0, 79, 72
2, 3360, Note_on_c, 0, 83, 72
2, 3360, Note_on_c, 0, 67, 72
2, 3518, Note_on_c, 0, 67, 0
2, 3518, Note_on_c, 0, 74, 0
2, 3518, Note_on_c, 0, 79, 0
2, 3518, Note_on_c, 0, 83, 0
2, 3600, Note_on_c, 0, 71, 72
2, 3600, Note_on_c, 0, 83, 72
2, 3600, Note_on_c, 0, 78, 72
2, 3600, Note_on_c, 0, 74, 72
2, 3758, Note_on_c, 0, 74, 0
2, 3758, Note_on_c, 0, 71, 0
2, 3758, Note_on_c, 0, 83, 0
2, 3758, Note_on_c, 0, 78, 0
2, 3840, Note_on_c, 0, 83, 72
2, 3840, Note_on_c, 0, 78, 72
2, 3840, Note_on_c, 0, 74, 72
2, 3840, Note_on_c, 0, 71, 72
2, 3998, Note_on_c, 0, 71, 0
2, 3998, Note_on_c, 0, 83, 0
2, 3998, Note_on_c, 0, 78, 0
2, 3998, Note_on_c, 0, 74, 0
2, 4080, Note_on_c, 0, 71, 72
2, 4159, Note_on_c, 0, 71, 0
2, 4200, Note_on_c, 0, 73, 72
2, 4279, Note_on_c, 0, 73, 0
2, 4320, Note_on_c, 0, 74, 72
2, 4320, Note_on_c, 0, 66, 72
2, 4440, Note_on_c, 0, 74, 0
2, 4440, Note_on_c, 0, 78, 72
2, 4560, Note_on_c, 0, 78, 0
2, 4560, Note_on_c, 0, 66, 0
2, 4560, Note_on_c, 0, 71, 72
2, 4560, Note_on_c, 0, 74, 72
2, 4560, Note_on_c, 0, 62, 72
2, 4680, Note_on_c, 0, 62, 0
2, 4680, Note_on_c, 0, 74, 0
2, 4680, Note_on_c, 0, 71, 0
2, 4680, Note_on_c, 0, 78, 72
2, 4680, Note_on_c, 0, 64, 72
2, 4800, Note_on_c, 0, 64, 0
2, 4800, Note_on_c, 0, 78, 0
2, 4800, Note_on_c, 0, 66, 72
2, 4800, Note_on_c, 0, 70, 72
2, 4800, Note_on_c, 0, 73, 72
2, 4920, Note_on_c, 0, 73, 0
2, 4920, Note_on_c, 0, 70, 0
2, 4920, Note_on_c, 0, 78, 72
2, 5040, Note_on_c, 0, 78, 0
2, 5040, Note_on_c, 0, 66, 0
2, 5040, Note_on_c, 0, 71, 72
2, 5040, Note_on_c, 0, 75, 72
2, 5040, Note_on_c, 0, 66, 72
2, 5160, Note_on_c, 0, 75, 0
2, 5160, Note_on_c, 0, 71, 0
2, 5160, Note_on_c, 0, 78, 72
2, 5280, Note_on_c, 0, 78, 0
2, 5280, Note_on_c, 0, 71, 72
2, 5280, Note_on_c, 0, 75, 72
2, 5400, Note_on_c, 0, 75, 0
2, 5400, Note_on_c, 0, 71, 0
2, 5400, Note_on_c, 0, 78, 72
2, 5520, Note_on_c, 0, 78, 0
2, 5520, Note_on_c, 0, 66, 0
2, 5520, Note_on_c, 0, 59, 72
2, 5520, Note_on_c, 0, 71, 72
2, 5520, Note_on_c, 0, 75, 72
2, 5640, Note_on_c, 0, 75, 0
2, 5640, Note_on_c, 0, 71, 0
2, 5640, Note_on_c, 0, 78, 72
2, 5760, Note_on_c, 0, 78, 0
2, 5760, Note_on_c, 0, 59, 0
2, 5760, Note_on_c, 0, 67, 72
2, 5760, Note_on_c, 0, 64, 72
2, 5760, Note_on_c, 0, 76, 72
2, 5760, Note_on_c, 0, 71, 72
2, 5918, Note_on_c, 0, 71, 0
2, 5918, Note_on_c, 0, 67, 0
2, 5918, Note_on_c, 0, 64, 0
2, 5918, Note_on_c, 0, 76, 0
2, 6000, Note_on_c, 0, 67, 72
2, 6000, Note_on_c, 0, 64, 72
2, 6000, Note_on_c, 0, 76, 72
2, 6000, Note_on_c, 0, 71, 72
2, 6158, Note_on_c, 0, 71, 0
2, 6158, Note_on_c, 0, 67, 0
2, 6158, Note_on_c, 0, 64, 0
2, 6158, Note_on_c, 0, 76, 0
2, 6240, Note_on_c, 0, 72, 72
2, 6240, Note_on_c, 0, 76, 72
2, 6240, Note_on_c, 0, 60, 72
2, 6240, Note_on_c, 0, 67, 72
2, 6398, Note_on_c, 0, 67, 0
2, 6398, Note_on_c, 0, 72, 0
2, 6398, Note_on_c, 0, 76, 0
2, 6398, Note_on_c, 0, 60, 0
2, 6480, Note_on_c, 0, 67, 72
2, 6480, Note_on_c, 0, 64, 72
2, 6480, Note_on_c, 0, 76, 72
2, 6480, Note_on_c, 0, 71, 72
2, 6638, Note_on_c, 0, 71, 0
2, 6638, Note_on_c, 0, 67, 0
2, 6638, Note_on_c, 0, 64, 0
2, 6638, Note_on_c, 0, 76, 0
2, 6720, Note_on_c, 0, 64, 72
2, 6720, Note_on_c, 0, 76, 72
2, 6720, Note_on_c, 0, 71, 72
2, 6720, Note_on_c, 0, 67, 72
2, 6878, Note_on_c, 0, 67, 0
2, 6878, Note_on_c, 0, 64, 0
2, 6878, Note_on_c, 0, 76, 0
2, 6878, Note_on_c, 0, 71, 0
2, 6960, Note_on_c, 0, 67, 72
2, 7039, Note_on_c, 0, 67, 0
2, 7080, Note_on_c, 0, 69, 72
2, 7159, Note_on_c, 0, 69, 0
2, 7200, Note_on_c, 0, 71, 72
2, 7200, Note_on_c, 0, 64, 72
2, 7200, Note_on_c, 0, 67, 72
2, 7320, Note_on_c, 0, 71, 0
2, 7320, Note_on_c, 0, 72, 72
2, 7440, Note_on_c, 0, 72, 0
2, 7440, Note_on_c, 0, 67, 0
2, 7440, Note_on_c, 0, 64, 0
2, 7440, Note_on_c, 0, 71, 72
2, 7440, Note_on_c, 0, 64, 72
2, 7440, Note_on_c, 0, 67, 72
2, 7560, Note_on_c, 0, 71, 0
2, 7560, Note_on_c, 0, 78, 72
2, 7680, Note_on_c, 0, 78, 0
2, 7680, Note_on_c, 0, 67, 0
2, 7680, Note_on_c, 0, 64, 0
2, 7680, Note_on_c, 0, 64, 72
2, 7680, Note_on_c, 0, 69, 72
2, 7680, Note_on_c, 0, 76, 72
2, 7800, Note_on_c, 0, 76, 0
2, 7800, Note_on_c, 0, 74, 72
2, 7920, Note_on_c, 0, 74, 0
2, 7920, Note_on_c, 0, 69, 0
2, 7920, Note_on_c, 0, 64, 0
2, 7920, Note_on_c, 0, 71, 72
2, 7920, Note_on_c, 0, 64, 72
2, 7920, Note_on_c, 0, 67, 72
2, 8040, Note_on_c, 0, 71, 0
2, 8040, Note_on_c, 0, 76, 72
2, 8160, Note_on_c, 0, 76, 0
2, 8160, Note_on_c, 0, 67, 0
2, 8160, Note_on_c, 0, 64, 0
2, 8160, Note_on_c, 0, 79, 72
2, 8280, Note_on_c, 0, 79, 0
2, 8280, Note_on_c, 0, 82, 72
2, 8400, Note_on_c, 0, 82, 0
2, 8400, Note_on_c, 0, 83, 72
2, 8640, Note_on_c, 0, 83, 0
2, 8640, Note_on_c, 0, 71, 72
2, 8640, Note_on_c, 0, 83, 72
2, 8640, Note_on_c, 0, 78, 72
2, 8640, Note_on_c, 0, 74, 72
2, 8798, Note_on_c, 0, 74, 0
2, 8798, Note_on_c, 0, 71, 0
2, 8798, Note_on_c, 0, 83, 0
2, 8798, Note_on_c, 0, 78, 0
2, 8880, Note_on_c, 0, 71, 72
2, 8880, Note_on_c, 0, 83, 72
2, 8880, Note_on_c, 0, 78, 72
2, 8880, Note_on_c, 0, 74, 72
2, 9038, Note_on_c, 0, 74, 0
2, 9038, Note_on_c, 0, 71, 0
2, 9038, Note_on_c, 0, 83, 0
2, 9038, Note_on_c, 0, 78, 0
2, 9120, Note_on_c, 0, 74, 72
2, 9120, Note_on_c, 0, 79, 72
2, 9120, Note_on_c, 0, 83, 72
2, 9120, Note_on_c, 0, 67, 72
2, 9278, Note_on_c, 0, 67, 0
2, 9278, Note_on_c, 0, 74, 0
2, 9278, Note_on_c, 0, 79, 0
2, 9278, Note_on_c, 0, 83, 0
2, 9360, Note_on_c, 0, 71, 72
2, 9360, Note_on_c, 0, 83, 72
2, 9360, Note_on_c, 0, 78, 72
2, 9360, Note_on_c, 0, 74, 72
2, 9518, Note_on_c, 0, 74, 0
2, 9518, Note_on_c, 0, 71, 0
2, 9518, Note_on_c, 0, 83, 0
2, 9518, Note_on_c, 0, 78, 0
2, 9600, Note_on_c, 0, 83, 72
2, 9600, Note_on_c, 0, 78, 72
2, 9600, Note_on_c, 0, 74, 72
2, 9600, Note_on_c, 0, 71, 72
2, 9758, Note_on_c, 0, 71, 0
2, 9758, Note_on_c, 0, 83, 0
2, 9758, Note_on_c, 0, 78, 0
2, 9758, Note_on_c, 0, 74, 0
2, 9840, Note_on_c, 0, 71, 72
2, 9919, Note_on_c, 0, 71, 0
2, 9960, Note_on_c, 0, 73, 72
2, 10039, Note_on_c, 0, 73, 0
2, 10080, Note_on_c, 0, 74, 72
2, 10080, Note_on_c, 0, 66, 72
2, 10200, Note_on_c, 0, 74, 0
2, 10200, Note_on_c, 0, 78, 72
2, 10320, Note_on_c, 0, 78, 0
2, 10320, Note_on_c, 0, 66, 0
2, 10320, Note_on_c, 0, 71, 72
2, 10320, Note_on_c, 0, 74, 72
2, 10320, Note_on_c, 0, 62, 72
2, 10440, Note_on_c, 0, 62, 0
2, 10440, Note_on_c, 0, 74, 0
2, 10440, Note_on_c, 0, 71, 0
2, 10440, Note_on_c, 0, 78, 72
2, 10440, Note_on_c, 0, 64, 72
2, 10560, Note_on_c, 0, 64, 0
2, 10560, Note_on_c, 0, 78, 0
2, 10560, Note_on_c, 0, 66, 72
2, 10560, Note_on_c, 0, 70, 72
2, 10560, Note_on_c, 0, 73, 72
2, 10680, Note_on_c, 0, 73, 0
2, 10680, Note_on_c, 0, 70, 0
2, 10680, Note_on_c, 0, 78, 72
2, 10800, Note_on_c, 0, 78, 0
2, 10800, Note_on_c, 0, 66, 0
2, 10800, Note_on_c, 0, 71, 72
2, 10800, Note_on_c, 0, 75, 72
2, 10800, Note_on_c, 0, 66, 72
2, 10920, Note_on_c, 0, 75, 0
2, 10920, Note_on_c, 0, 71, 0
2, 10920, Note_on_c, 0, 78, 72
2, 11040, Note_on_c, 0, 78, 0
2, 11040, Note_on_c, 0, 71, 72
2, 11040, Note_on_c, 0, 75, 72
2, 11160, Note_on_c, 0, 75, 0
2, 11160, Note_on_c, 0, 71, 0
2, 11160, Note_on_c, 0, 78, 72
2, 11280, Note_on_c, 0, 78, 0
2, 11280, Note_on_c, 0, 66, 0
2, 11280, Note_on_c, 0, 59, 72
2, 11280, Note_on_c, 0, 71, 72
2, 11280, Note_on_c, 0, 75, 72
2, 11400, Note_on_c, 0, 75, 0
2, 11400, Note_on_c, 0, 71, 0
2, 11400, Note_on_c, 0, 78, 72
2, 11520, Note_on_c, 0, 78, 0
2, 11520, Note_on_c, 0, 59, 0
2, 12720, Note_on_c, 0, 64, 72
2, 12840, Note_on_c, 0, 64, 0
2, 12840, Note_on_c, 0, 66, 72
2, 12960, Note_on_c, 0, 66, 0
2, 12960, Note_on_c, 0, 67, 72
2, 13080, Note_on_c, 0, 67, 0
2, 13080, Note_on_c, 0, 70, 72
2, 13200, Note_on_c, 0, 70, 0
2, 13200, Note_on_c, 0, 67, 72
2, 13320, Note_on_c, 0, 67, 0
2, 13320, Note_on_c, 0, 70, 72
2, 13440, Note_on_c, 0, 70, 0
2, 13440, Note_on_c, 0, 66, 72
2, 13560, Note_on_c, 0, 66, 0
2, 13560, Note_on_c, 0, 70, 72
2, 13680, Note_on_c, 0, 70, 0
2, 13680, Note_on_c, 0, 64, 72
2, 13800, Note_on_c, 0, 64, 0
2, 13800, Note_on_c, 0, 70, 72
2, 13920, Note_on_c, 0, 70, 0
2, 13920, Note_on_c, 0, 64, 72
2, 14040, Note_on_c, 0, 64, 0
2, 14040, Note_on_c, 0, 70, 72
2, 14160, Note_on_c, 0, 70, 0
2, 15600, Note_on_c, 0, 64, 72
2, 15720, Note_on_c, 0, 64, 0
2, 15720, Note_on_c, 0, 66, 72
2, 15840, Note_on_c, 0, 66, 0
2, 15840, Note_on_c, 0, 67, 72
2, 15960, Note_on_c, 0, 67, 0
2, 15960, Note_on_c, 0, 70, 72
2, 16080, Note_on_c, 0, 70, 0
2, 16080, Note_on_c, 0, 67, 72
2, 16200, Note_on_c, 0, 67, 0
2, 16200, Note_on_c, 0, 70, 72
2, 16320, Note_on_c, 0, 70, 0
2, 16320, Note_on_c, 0, 66, 72
2, 16440, Note_on_c, 0, 66, 0
2, 16440, Note_on_c, 0, 70, 72
2, 16560, Note_on_c, 0, 70, 0
2, 16560, Note_on_c, 0, 64, 72
2, 16680, Note_on_c, 0, 64, 0
2, 16680, Note_on_c, 0, 70, 72
2, 16800, Note_on_c, 0, 70, 0
2, 16800, Note_on_c, 0, 64, 72
2, 16920, Note_on_c, 0, 64, 0
2, 16920, Note_on_c, 0, 70, 72
2, 17040, Note_on_c, 0, 70, 0
2, 17040, Note_on_c, 0, 67, 72
2, 17160, Note_on_c, 0, 67, 0
2, 17160, Note_on_c, 0, 69, 72
2, 17280, Note_on_c, 0, 69, 0
2, 17280, Note_on_c, 0, 70, 72
2, 17400, Note_on_c, 0, 70, 0
2, 17400, Note_on_c, 0, 73, 72
2, 17520, Note_on_c, 0, 73, 0
2, 17520, Note_on_c, 0, 70, 72
2, 17640, Note_on_c, 0, 70, 0
2, 17640, Note_on_c, 0, 73, 72
2, 17760, Note_on_c, 0, 73, 0
2, 17760, Note_on_c, 0, 69, 72
2, 17880, Note_on_c, 0, 69, 0
2, 17880, Note_on_c, 0, 73, 72
2, 18000, Note_on_c, 0, 73, 0
2, 18000, Note_on_c, 0, 67, 72
2, 18120, Note_on_c, 0, 67, 0
2, 18120, Note_on_c, 0, 73, 72
2, 18240, Note_on_c, 0, 73, 0
2, 18240, Note_on_c, 0, 67, 72
2, 18360, Note_on_c, 0, 67, 0
2, 18360, Note_on_c, 0, 73, 72
2, 18480, Note_on_c, 0, 73, 0
2, 18480, Note_on_c, 0, 70, 72
2, 18600, Note_on_c, 0, 70, 0
2, 18600, Note_on_c, 0, 71, 72
2, 18720, Note_on_c, 0, 71, 0
2, 18720, Note_on_c, 0, 72, 72
2, 18840, Note_on_c, 0, 72, 0
2, 18840, Note_on_c, 0, 76, 72
2, 18960, Note_on_c, 0, 76, 0
2, 18960, Note_on_c, 0, 72, 72
2, 19080, Note_on_c, 0, 72, 0
2, 19080, Note_on_c, 0, 76, 72
2, 19200, Note_on_c, 0, 76, 0
2, 19200, Note_on_c, 0, 71, 72
2, 19320, Note_on_c, 0, 71, 0
2, 19320, Note_on_c, 0, 76, 72
2, 19440, Note_on_c, 0, 76, 0
2, 19440, Note_on_c, 0, 70, 72
2, 19560, Note_on_c, 0, 70, 0
2, 19560, Note_on_c, 0, 76, 72
2, 19680, Note_on_c, 0, 76, 0
2, 19680, Note_on_c, 0, 70, 72
2, 19800, Note_on_c, 0, 70, 0
2, 19800, Note_on_c, 0, 76, 72
2, 19920, Note_on_c, 0, 76, 0
2, 19920, Note_on_c, 0, 70, 72
2, 20040, Note_on_c, 0, 70, 0
2, 20040, Note_on_c, 0, 76, 72
2, 20160, Note_on_c, 0, 76, 0
2, 20160, Note_on_c, 0, 71, 72
2, 20280, Note_on_c, 0, 71, 0
2, 20280, Note_on_c, 0, 76, 72
2, 20400, Note_on_c, 0, 76, 0
2, 20400, Note_on_c, 0, 71, 72
2, 20520, Note_on_c, 0, 71, 0
2, 20520, Note_on_c, 0, 76, 72
2, 20640, Note_on_c, 0, 76, 0
2, 20640, Note_on_c, 0, 71, 72
2, 20760, Note_on_c, 0, 71, 0
2, 20760, Note_on_c, 0, 76, 72
2, 20880, Note_on_c, 0, 76, 0
2, 20880, Note_on_c, 0, 71, 72
2, 21000, Note_on_c, 0, 71, 0
2, 21000, Note_on_c, 0, 75, 72
2, 21120, Note_on_c, 0, 75, 0
2, 21120, Note_on_c, 0, 71, 72
2, 21240, Note_on_c, 0, 71, 0
2, 21240, Note_on_c, 0, 75, 72
2, 21360, Note_on_c, 0, 75, 0
2, 21360, Note_on_c, 0, 71, 72
2, 21480, Note_on_c, 0, 71, 0
2, 21480, Note_on_c, 0, 75, 72
2, 21600, Note_on_c, 0, 75, 0
2, 21600, Note_on_c, 0, 67, 72
2, 21600, Note_on_c, 0, 64, 72
2, 21600, Note_on_c, 0, 76, 72
2, 21600, Note_on_c, 0, 71, 72
2, 21758, Note_on_c, 0, 71, 0
2, 21758, Note_on_c, 0, 67, 0
2, 21758, Note_on_c, 0, 64, 0
2, 21758, Note_on_c, 0, 76, 0
2, 21840, Note_on_c, 0, 67, 72
2, 21840, Note_on_c, 0, 64, 72
2, 21840, Note_on_c, 0, 76, 72
2, 21840, Note_on_c, 0, 71, 72
2, 21998, Note_on_c, 0, 71, 0
2, 21998, Note_on_c, 0, 67, 0
2, 21998, Note_on_c, 0, 64, 0
2, 21998, Note_on_c, 0, 76, 0
2, 22080, Note_on_c, 0, 72, 72
2, 22080, Note_on_c, 0, 76, 72
2, 22080, Note_on_c, 0, 60, 72
2, 22080, Note_on_c, 0, 67, 72
2, 22238, Note_on_c, 0, 67, 0
2, 22238, Note_on_c, 0, 72, 0
2, 22238, Note_on_c, 0, 76, 0
2, 22238, Note_on_c, 0, 60, 0
2, 22320, Note_on_c, 0, 67, 72
2, 22320, Note_on_c, 0, 64, 72
2, 22320, Note_on_c, 0, 76, 72
2, 22320, Note_on_c, 0, 71, 72
2, 22478, Note_on_c, 0, 71, 0
2, 22478, Note_on_c, 0, 67, 0
2, 22478, Note_on_c, 0, 64, 0
2, 22478, Note_on_c, 0, 76, 0
2, 22560, Note_on_c, 0, 64, 72
2, 22560, Note_on_c, 0, 76, 72
2, 22560, Note_on_c, 0, 71, 72
2, 22560, Note_on_c, 0, 67, 72
2, 22718, Note_on_c, 0, 67, 0
2, 22718, Note_on_c, 0, 64, 0
2, 22718, Note_on_c, 0, 76, 0
2, 22718, Note_on_c, 0, 71, 0
2, 22800, Note_on_c, 0, 67, 72
2, 22879, Note_on_c, 0, 67, 0
2, 22920, Note_on_c, 0, 69, 72
2, 22999, Note_on_c, 0, 69, 0
2, 23040, Note_on_c, 0, 71, 72
2, 23040, Note_on_c, 0, 64, 72
2, 23040, Note_on_c, 0, 67, 72
2, 23160, Note_on_c, 0, 71, 0
2, 23160, Note_on_c, 0, 72, 72
2, 23280, Note_on_c, 0, 72, 0
2, 23280, Note_on_c, 0, 67, 0
2, 23280, Note_on_c, 0, 64, 0
2, 23280, Note_on_c, 0, 71, 72
2, 23280, Note_on_c, 0, 64, 72
2, 23280, Note_on_c, 0, 67, 72
2, 23400, Note_on_c, 0, 71, 0
2, 23400, Note_on_c, 0, 78, 72
2, 23520, Note_on_c, 0, 78, 0
2, 23520, Note_on_c, 0, 67, 0
2, 23520, Note_on_c, 0, 64, 0
2, 23520, Note_on_c, 0, 64, 72
2, 23520, Note_on_c, 0, 69, 72
2, 23520, Note_on_c, 0, 76, 72
2, 23640, Note_on_c, 0, 76, 0
2, 23640, Note_on_c, 0, 74, 72
2, 23760, Note_on_c, 0, 74, 0
2, 23760, Note_on_c, 0, 69, 0
2, 23760, Note_on_c, 0, 64, 0
2, 23760, Note_on_c, 0, 71, 72
2, 23760, Note_on_c, 0, 64, 72
2, 23760, Note_on_c, 0, 67, 72
2, 23880, Note_on_c, 0, 71, 0
2, 23880, Note_on_c, 0, 76, 72
2, 24000, Note_on_c, 0, 76, 0
2, 24000, Note_on_c, 0, 67, 0
2, 24000, Note_on_c, 0, 64, 0
2, 24000, Note_on_c, 0, 79, 72
2, 24120, Note_on_c, 0, 79, 0
2, 24120, Note_on_c, 0, 82, 72
2, 24240, Note_on_c, 0, 82, 0
2, 24240, Note_on_c, 0, 83, 72
2, 24480, Note_on_c, 0, 83, 0
2, 24480, Note_on_c, 0, 71, 72
2, 24480, Note_on_c, 0, 83, 72
2, 24480, Note_on_c, 0, 78, 72
2, 24480, Note_on_c, 0, 74, 72
2, 24638, Note_on_c, 0, 74, 0
2, 24638, Note_on_c, 0, 71, 0
2, 24638, Note_on_c, 0, 83, 0
2, 24638, Note_on_c, 0, 78, 0
2, 24720, Note_on_c, 0, 71, 72
2, 24720, Note_on_c, 0, 83, 72
2, 24720, Note_on_c, 0, 78, 72
2, 24720, Note_on_c, 0, 74, 72
2, 24878, Note_on_c, 0, 74, 0
2, 24878, Note_on_c, 0, 71, 0
2, 24878, Note_on_c, 0, 83, 0
2, 24878, Note_on_c, 0, 78, 0
2, 24960, Note_on_c, 0, 74, 72
2, 24960, Note_on_c, 0, 79, 72
2, 24960, Note_on_c, 0, 83, 72
2, 24960, Note_on_c, 0, 67, 72
2, 25118, Note_on_c, 0, 67, 0
2, 25118, Note_on_c, 0, 74, 0
2, 25118, Note_on_c, 0, 79, 0
2, 25118, Note_on_c, 0, 83, 0
2, 25200, Note_on_c, 0, 71, 72
2, 25200, Note_on_c, 0, 83, 72
2, 25200, Note_on_c, 0, 78, 72
2, 25200, Note_on_c, 0, 74, 72
2, 25358, Note_on_c, 0, 74, 0
2, 25358, Note_on_c, 0, 71, 0
2, 25358, Note_on_c, 0, 83, 0
2, 25358, Note_on_c, 0, 78, 0
2, 25440, Note_on_c, 0, 83, 72
2, 25440, Note_on_c, 0, 78, 72
2, 25440, Note_on_c, 0, 74, 72
2, 25440, Note_on_c, 0, 71, 72
2, 25598, Note_on_c, 0, 71, 0
2, 25598, Note_on_c, 0, 83, 0
2, 25598, Note_on_c, 0, 78, 0
2, 25598, Note_on_c, 0, 74, 0
2, 25680, Note_on_c, 0, 71, 72
2, 25759, Note_on_c, 0, 71, 0
2, 25800, Note_on_c, 0, 73, 72
2, 25879, Note_on_c, 0, 73, 0
2, 25920, Note_on_c, 0, 74, 72
2, 25920, Note_on_c, 0, 66, 72
2, 26040, Note_on_c, 0, 74, 0
2, 26040, Note_on_c, 0, 78, 72
2, 26160, Note_on_c, 0, 78, 0
2, 26160, Note_on_c, 0, 66, 0
2, 26160, Note_on_c, 0, 71, 72
2, 26160, Note_on_c, 0, 74, 72
2, 26160, Note_on_c, 0, 62, 72
2, 26280, Note_on_c, 0, 62, 0
2, 26280, Note_on_c, 0, 74, 0
2, 26280, Note_on_c, 0, 71, 0
2, 26280, Note_on_c, 0, 78, 72
2, 26280, Note_on_c, 0, 64, 72
2, 26400, Note_on_c, 0, 64, 0
2, 26400, Note_on_c, 0, 78, 0
2, 26400, Note_on_c, 0, 66, 72
2, 26400, Note_on_c, 0, 70, 72
2, 26400, Note_on_c, 0, 73, 72
2, 26520, Note_on_c, 0, 73, 0
2, 26520, Note_on_c, 0, 70, 0
2, 26520, Note_on_c, 0, 78, 72
2, 26640, Note_on_c, 0, 78, 0
2, 26640, Note_on_c, 0, 66, 0
2, 26640, Note_on_c, 0, 71, 72
2, 26640, Note_on_c, 0, 75, 72
2, 26640, Note_on_c, 0, 66, 72
2, 26760, Note_on_c, 0, 75, 0
2, 26760, Note_on_c, 0, 71, 0
2, 26760, Note_on_c, 0, 78, 72
2, 26880, Note_on_c, 0, 78, 0
2, 26880, Note_on_c, 0, 71, 72
2, 26880, Note_on_c, 0, 75, 72
2, 27000, Note_on_c, 0, 75, 0
2, 27000, Note_on_c, 0, 71, 0
2, 27000, Note_on_c, 0, 78, 72
2, 27120, Note_on_c, 0, 78, 0
2, 27120, Note_on_c, 0, 66, 0
2, 27120, Note_on_c, 0, 59, 72
2, 27120, Note_on_c, 0, 71, 72
2, 27120, Note_on_c, 0, 75, 72
2, 27240, Note_on_c, 0, 75, 0
2, 27240, Note_on_c, 0, 71, 0
2, 27240, Note_on_c, 0, 78, 72
2, 27360, Note_on_c, 0, 78, 0
2, 27360, Note_on_c, 0, 59, 0
2, 28560, Note_on_c, 0, 64, 72
2, 28680, Note_on_c, 0, 64, 0
2, 28680, Note_on_c, 0, 66, 72
2, 28800, Note_on_c, 0, 66, 0
2, 28800, Note_on_c, 0, 67, 72
2, 28920, Note_on_c, 0, 67, 0
2, 28920, Note_on_c, 0, 70, 72
2, 29040, Note_on_c, 0, 70, 0
2, 29040, Note_on_c, 0, 67, 72
2, 29160, Note_on_c, 0, 67, 0
2, 29160, Note_on_c, 0, 70, 72
2, 29280, Note_on_c, 0, 70, 0
2, 29280, Note_on_c, 0, 66, 72
2, 29400, Note_on_c, 0, 66, 0
2, 29400, Note_on_c, 0, 70, 72
2, 29520, Note_on_c, 0, 70, 0
2, 29520, Note_on_c, 0, 64, 72
2, 29640, Note_on_c, 0, 64, 0
2, 29640, Note_on_c, 0, 70, 72
2, 29760, Note_on_c, 0, 70, 0
2, 29760, Note_on_c, 0, 64, 72
2, 29880, Note_on_c, 0, 64, 0
2, 29880, Note_on_c, 0, 70, 72
2, 30000, Note_on_c, 0, 70, 0
2, 31440, Note_on_c, 0, 64, 72
2, 31560, Note_on_c, 0, 64, 0
2, 31560, Note_on_c, 0, 66, 72
2, 31680, Note_on_c, 0, 66, 0
2, 31680, Note_on_c, 0, 67, 72
2, 31800, Note_on_c, 0, 67, 0
2, 31800, Note_on_c, 0, 70, 72
2, 31920, Note_on_c, 0, 70, 0
2, 31920, Note_on_c, 0, 67, 72
2, 32040, Note_on_c, 0, 67, 0
2, 32040, Note_on_c, 0, 70, 72
2, 32160, Note_on_c, 0, 70, 0
2, 32160, Note_on_c, 0, 66, 72
2, 32280, Note_on_c, 0, 66, 0
2, 32280, Note_on_c, 0, 70, 72
2, 32400, Note_on_c, 0, 70, 0
2, 32400, Note_on_c, 0, 64, 72
2, 32520, Note_on_c, 0, 64, 0
2, 32520, Note_on_c, 0, 70, 72
2, 32640, Note_on_c, 0, 70, 0
2, 32640, Note_on_c, 0, 64, 72
2, 32760, Note_on_c, 0, 64, 0
2, 32760, Note_on_c, 0, 70, 72
2, 32880, Note_on_c, 0, 70, 0
2, 32880, Note_on_c, 0, 67, 72
2, 33000, Note_on_c, 0, 67, 0
2, 33000, Note_on_c, 0, 69, 72
2, 33120, Note_on_c, 0, 69, 0
2, 33120, Note_on_c, 0, 70, 72
2, 33240, Note_on_c, 0, 70, 0
2, 33240, Note_on_c, 0, 73, 72
2, 33360, Note_on_c, 0, 73, 0
2, 33360, Note_on_c, 0, 70, 72
2, 33480, Note_on_c, 0, 70, 0
2, 33480, Note_on_c, 0, 73, 72
2, 33600, Note_on_c, 0, 73, 0
2, 33600, Note_on_c, 0, 69, 72
2, 33720, Note_on_c, 0, 69, 0
2, 33720, Note_on_c, 0, 73, 72
2, 33840, Note_on_c, 0, 73, 0
2, 33840, Note_on_c, 0, 67, 72
2, 33960, Note_on_c, 0, 67, 0
2, 33960, Note_on_c, 0, 73, 72
2, 34080, Note_on_c, 0, 73, 0
2, 34080, Note_on_c, 0, 67, 72
2, 34200, Note_on_c, 0, 67, 0
2, 34200, Note_on_c, 0, 73, 72
2, 34320, Note_on_c, 0, 73, 0
2, 34320, Note_on_c, 0, 70, 72
2, 34440, Note_on_c, 0, 70, 0
2, 34440, Note_on_c, 0, 71, 72
2, 34560, Note_on_c, 0, 71, 0
2, 34560, Note_on_c, 0, 72, 72
2, 34680, Note_on_c, 0, 72, 0
2, 34680, Note_on_c, 0, 76, 72
2, 34800, Note_on_c, 0, 76, 0
2, 34800, Note_on_c, 0, 72, 72
2, 34920, Note_on_c, 0, 72, 0
2, 34920, Note_on_c, 0, 76, 72
2, 35040, Note_on_c, 0, 76, 0
2, 35040, Note_on_c, 0, 71, 72
2, 35160, Note_on_c, 0, 71, 0
2, 35160, Note_on_c, 0, 76, 72
2, 35280, Note_on_c, 0, 76, 0
2, 35280, Note_on_c, 0, 70, 72
2, 35400, Note_on_c, 0, 70, 0
2, 35400, Note_on_c, 0, 76, 72
2, 35520, Note_on_c, 0, 76, 0
2, 35520, Note_on_c, 0, 70, 72
2, 35640, Note_on_c, 0, 70, 0
2, 35640, Note_on_c, 0, 76, 72
2, 35760, Note_on_c, 0, 76, 0
2, 35760, Note_on_c, 0, 70, 72
2, 35880, Note_on_c, 0, 70, 0
2, 35880, Note_on_c, 0, 76, 72
2, 36000, Note_on_c, 0, 76, 0
2, 36000, Note_on_c, 0, 71, 72
2, 36120, Note_on_c, 0, 71, 0
2, 36120, Note_on_c, 0, 76, 72
2, 36240, Note_on_c, 0, 76, 0
2, 36240, Note_on_c, 0, 71, 72
2, 36360, Note_on_c, 0, 71, 0
2, 36360, Note_on_c, 0, 76, 72
2, 36480, Note_on_c, 0, 76, 0
2, 36480, Note_on_c, 0, 71, 72
2, 36600, Note_on_c, 0, 71, 0
2, 36600, Note_on_c, 0, 76, 72
2, 36720, Note_on_c, 0, 76, 0
2, 36720, Note_on_c, 0, 71, 72
2, 36840, Note_on_c, 0, 71, 0
2, 36840, Note_on_c, 0, 75, 72
2, 36960, Note_on_c, 0, 75, 0
2, 36960, Note_on_c, 0, 71, 72
2, 37080, Note_on_c, 0, 71, 0
2, 37080, Note_on_c, 0, 75, 72
2, 37200, Note_on_c, 0, 75, 0
2, 37200, Note_on_c, 0, 71, 72
2, 37320, Note_on_c, 0, 71, 0
2, 37320, Note_on_c, 0, 75, 72
2, 37440, Note_on_c, 0, 75, 0
2, 37440, Note_on_c, 0, 67, 72
2, 37440, Note_on_c, 0, 64, 72
2, 37440, Note_on_c, 0, 76, 72
2, 37440, Note_on_c, 0, 71, 72
2, 37598, Note_on_c, 0, 71, 0
2, 37598, Note_on_c, 0, 67, 0
2, 37598, Note_on_c, 0, 64, 0
2, 37598, Note_on_c, 0, 76, 0
2, 37680, Note_on_c, 0, 67, 72
2, 37680, Note_on_c, 0, 64, 72
2, 37680, Note_on_c, 0, 76, 72
2, 37680, Note_on_c, 0, 71, 72
2, 37838, Note_on_c, 0, 71, 0
2, 37838, Note_on_c, 0, 67, 0
2, 37838, Note_on_c, 0, 64, 0
2, 37838, Note_on_c, 0, 76, 0
2, 37920, Note_on_c, 0, 72, 72
2, 37920, Note_on_c, 0, 76, 72
2, 37920, Note_on_c, 0, 60, 72
2, 37920, Note_on_c, 0, 67, 72
2, 38078, Note_on_c, 0, 67, 0
2, 38078, Note_on_c, 0, 72, 0
2, 38078, Note_on_c, 0, 76, 0
2, 38078, Note_on_c, 0, 60, 0
2, 38160, Note_on_c, 0, 67, 72
2, 38160, Note_on_c, 0, 64, 72
2, 38160, Note_on_c, 0, 76, 72
2, 38160, Note_on_c, 0, 71, 72
2, 38318, Note_on_c, 0, 71, 0
2, 38318, Note_on_c, 0, 67, 0
2, 38318, Note_on_c, 0, 64, 0
2, 38318, Note_on_c, 0, 76, 0
2, 38400, Note_on_c, 0, 64, 72
2, 38400, Note_on_c, 0, 76, 72
2, 38400, Note_on_c, 0, 71, 72
2, 38400, Note_on_c, 0, 67, 72
2, 38558, Note_on_c, 0, 67, 0
2, 38558, Note_on_c, 0, 64, 0
2, 38558, Note_on_c, 0, 76, 0
2, 38558, Note_on_c, 0, 71, 0
2, 38640, Note_on_c, 0, 67, 72
2, 38719, Note_on_c, 0, 67, 0
2, 38760, Note_on_c, 0, 69, 72
2, 38839, Note_on_c, 0, 69, 0
2, 38880, Note_on_c, 0, 71, 72
2, 38880, Note_on_c, 0, 64, 72
2, 38880, Note_on_c, 0, 67, 72
2, 39000, Note_on_c, 0, 71, 0
2, 39000, Note_on_c, 0, 72, 72
2, 39120, Note_on_c, 0, 72, 0
2, 39120, Note_on_c, 0, 67, 0
2, 39120, Note_on_c, 0, 64, 0
2, 39120, Note_on_c, 0, 71, 72
2, 39120, Note_on_c, 0, 64, 72
2, 39120, Note_on_c, 0, 67, 72
2, 39240, Note_on_c, 0, 71, 0
2, 39240, Note_on_c, 0, 78, 72
2, 39360, Note_on_c, 0, 78, 0
2, 39360, Note_on_c, 0, 67, 0
2, 39360, Note_on_c, 0, 64, 0
2, 39360, Note_on_c, 0, 64, 72
2, 39360, Note_on_c, 0, 69, 72
2, 39360, Note_on_c, 0, 76, 72
2, 39480, Note_on_c, 0, 76, 0
2, 39480, Note_on_c, 0, 74, 72
2, 39600, Note_on_c, 0, 74, 0
2, 39600, Note_on_c, 0, 69, 0
2, 39600, Note_on_c, 0, 64, 0
2, 39600, Note_on_c, 0, 71, 72
2, 39600, Note_on_c, 0, 64, 72
2, 39600, Note_on_c, 0, 67, 72
2, 39720, Note_on_c, 0, 71, 0
2, 39720, Note_on_c, 0, 76, 72
2, 39840, Note_on_c, 0, 76, 0
2, 39840, Note_on_c, 0, 67, 0
2, 39840, Note_on_c, 0, 64, 0
2, 39840, Note_on_c, 0, 79, 72
2, 39960, Note_on_c, 0, 79, 0
2, 39960, Note_on_c, 0, 82, 72
2, 40080, Note_on_c, 0, 82, 0
2, 40080, Note_on_c, 0, 83, 72
2, 40320, Note_on_c, 0, 83, 0
2, 40320, Note_on_c, 0, 71, 72
2, 40320, Note_on_c, 0, 83, 72
2, 40320, Note_on_c, 0, 78, 72
2, 40320, Note_on_c, 0, 74, 72
2, 40478, Note_on_c, 0, 74, 0
2, 40478, Note_on_c, 0, 71, 0
2, 40478, Note_on_c, 0, 83, 0
2, 40478, Note_on_c, 0, 78, 0
2, 40560, Note_on_c, 0, 71, 72
2, 40560, Note_on_c, 0, 83, 72
2, 40560, Note_on_c, 0, 78, 72
2, 40560, Note_on_c, 0, 74, 72
2, 40718, Note_on_c, 0, 74, 0
2, 40718, Note_on_c, 0, 71, 0
2, 40718, Note_on_c, 0, 83, 0
2, 40718, Note_on_c, 0, 78, 0
2, 40800, Note_on_c, 0, 74, 72
2, 40800, Note_on_c, 0, 79, 72
2, 40800, Note_on_c, 0, 83, 72
2, 40800, Note_on_c, 0, 67, 72
2, 40958, Note_on_c, 0, 67, 0
2, 40958, Note_on_c, 0, 74, 0
2, 40958, Note_on_c, 0, 79, 0
2, 40958, Note_on_c, 0, 83, 0
2, 41040, Note_on_c, 0, 71, 72
2, 41040, Note_on_c, 0, 83, 72
2, 41040, Note_on_c, 0, 78, 72
2, 41040, Note_on_c, 0, 74, 72
2, 41198, Note_on_c, 0, 74, 0
2, 41198, Note_on_c, 0, 71, 0
2, 41198, Note_on_c, 0, 83, 0
2, 41198, Note_on_c, 0, 78, 0
2, 41280, Note_on_c, 0, 83, 72
2, 41280, Note_on_c, 0, 78, 72
2, 41280, Note_on_c, 0, 74, 72
2, 41280, Note_on_c, 0, 71, 72
2, 41438, Note_on_c, 0, 71, 0
2, 41438, Note_on_c, 0, 83, 0
2, 41438, Note_on_c, 0, 78, 0
2, 41438, Note_on_c, 0, 74, 0
2, 41520, Note_on_c, 0, 71, 72
2, 41599, Note_on_c, 0, 71, 0
2, 41640, Note_on_c, 0, 73, 72
2, 41719, Note_on_c, 0, 73, 0
2, 41760, Note_on_c, 0, 74, 72
2, 41760, Note_on_c, 0, 66, 72
2, 41880, Note_on_c, 0, 74, 0
2, 41880, Note_on_c, 0, 78, 72
2, 42000, Note_on_c, 0, 78, 0
2, 42000, Note_on_c, 0, 66, 0
2, 42000, Note_on_c, 0, 71, 72
2, 42000, Note_on_c, 0, 74, 72
2, 42000, Note_on_c, 0, 62, 72
2, 42120, Note_on_c, 0, 62, 0
2, 42120, Note_on_c, 0, 74, 0
2, 42120, Note_on_c, 0, 71, 0
2, 42120, Note_on_c, 0, 78, 72
2, 42120, Note_on_c, 0, 64, 72
2, 42240, Note_on_c, 0, 64, 0
2, 42240, Note_on_c, 0, 78, 0
2, 42240, Note_on_c, 0, 66, 72
2, 42240, Note_on_c, 0, 70, 72
2, 42240, Note_on_c, 0, 73, 72
2, 42360, Note_on_c, 0, 73, 0
2, 42360, Note_on_c, 0, 70, 0
2, 42360, Note_on_c, 0, 78, 72
2, 42480, Note_on_c, 0, 78, 0
2, 42480, Note_on_c, 0, 66, 0
2, 42480, Note_on_c, 0, 71, 72
2, 42480, Note_on_c, 0, 75, 72
2, 42480, Note_on_c, 0, 66, 72
2, 42600, Note_on_c, 0, 75, 0
2, 42600, Note_on_c, 0, 71, 0
2, 42600, Note_on_c, 0, 78, 72
2, 42720, Note_on_c, 0, 78, 0
2, 42720, Note_on_c, 0, 71, 72
2, 42720, Note_on_c, 0, 75, 72
2, 42840, Note_on_c, 0, 75, 0
2, 42840, Note_on_c, 0, 71, 0
2, 42840, Note_on_c, 0, 78, 72
2, 42960, Note_on_c, 0, 78, 0
2, 42960, Note_on_c, 0, 66, 0
2, 42960, Note_on_c, 0, 59, 72
2, 42960, Note_on_c, 0, 71, 72
2, 42960, Note_on_c, 0, 75, 72
2, 43080, Note_on_c, 0, 75, 0
2, 43080, Note_on_c, 0, 71, 0
2, 43080, Note_on_c, 0, 78, 72
2, 43200, Note_on_c, 0, 78, 0
2, 43200, Note_on_c, 0, 59, 0
2, 43200, Note_on_c, 0, 67, 72
2, 43200, Note_on_c, 0, 64, 72
2, 43200, Note_on_c, 0, 76, 72
2, 43200, Note_on_c, 0, 71, 72
2, 43358, Note_on_c, 0, 71, 0
2, 43358, Note_on_c, 0, 67, 0
2, 43358, Note_on_c, 0, 64, 0
2, 43358, Note_on_c, 0, 76, 0
2, 43440, Note_on_c, 0, 67, 72
2, 43440, Note_on_c, 0, 64, 72
2, 43440, Note_on_c, 0, 76, 72
2, 43440, Note_on_c, 0, 71, 72
2, 43598, Note_on_c, 0, 71, 0
2, 43598, Note_on_c, 0, 67, 0
2, 43598, Note_on_c, 0, 64, 0
2, 43598, Note_on_c, 0, 76, 0
2, 43680, Note_on_c, 0, 72, 72
2, 43680, Note_on_c, 0, 76, 72
2, 43680, Note_on_c, 0, 60, 72
2, 43680, Note_on_c, 0, 67, 72
2, 43838, Note_on_c, 0, 67, 0
2, 43838, Note_on_c, 0, 72, 0
2, 43838, Note_on_c, 0, 76, 0
2, 43838, Note_on_c, 0, 60, 0
2, 43920, Note_on_c, 0, 67, 72
2, 43920, Note_on_c, 0, 64, 72
2, 43920, Note_on_c, 0, 76, 72
2, 43920, Note_on_c, 0, 71, 72
2, 44078, Note_on_c, 0, 71, 0
2, 44078, Note_on_c, 0, 67, 0
2, 44078, Note_on_c, 0, 64, 0
2, 44078, Note_on_c, 0, 76, 0
2, 44160, Note_on_c, 0, 64, 72
2, 44160, Note_on_c, 0, 76, 72
2, 44160, Note_on_c, 0, 71, 72
2, 44160, Note_on_c, 0, 67, 72
2, 44318, Note_on_c, 0, 67, 0
2, 44318, Note_on_c, 0, 64, 0
2, 44318, Note_on_c, 0, 76, 0
2, 44318, Note_on_c, 0, 71, 0
2, 44400, Note_on_c, 0, 67, 72
2, 44479, Note_on_c, 0, 67, 0
2, 44520, Note_on_c, 0, 69, 72
2, 44599, Note_on_c, 0, 69, 0
2, 44640, Note_on_c, 0, 71, 72
2, 44640, Note_on_c, 0, 64, 72
2, 44640, Note_on_c, 0, 67, 72
2, 44760, Note_on_c, 0, 71, 0
2, 44760, Note_on_c, 0, 72, 72
2, 44880, Note_on_c, 0, 72, 0
2, 44880, Note_on_c, 0, 67, 0
2, 44880, Note_on_c, 0, 64, 0
2, 44880, Note_on_c, 0, 71, 72
2, 44880, Note_on_c, 0, 64, 72
2, 44880, Note_on_c, 0, 67, 72
2, 45000, Note_on_c, 0, 71, 0
2, 45000, Note_on_c, 0, 78, 72
2, 45120, Note_on_c, 0, 78, 0
2, 45120, Note_on_c, 0, 67, 0
2, 45120, Note_on_c, 0, 64, 0
2, 45120, Note_on_c, 0, 64, 72
2, 45120, Note_on_c, 0, 69, 72
2, 45120, Note_on_c, 0, 76, 72
2, 45240, Note_on_c, 0, 76, 0
2, 45240, Note_on_c, 0, 74, 72
2, 45360, Note_on_c, 0, 74, 0
2, 45360, Note_on_c, 0, 69, 0
2, 45360, Note_on_c, 0, 64, 0
2, 45360, Note_on_c, 0, 71, 72
2, 45360, Note_on_c, 0, 64, 72
2, 45360, Note_on_c, 0, 67, 72
2, 45480, Note_on_c, 0, 71, 0
2, 45480, Note_on_c, 0, 76, 72
2, 45600, Note_on_c, 0, 76, 0
2, 45600, Note_on_c, 0, 67, 0
2, 45600, Note_on_c, 0, 64, 0
2, 45600, Note_on_c, 0, 79, 72
2, 45720, Note_on_c, 0, 79, 0
2, 45720, Note_on_c, 0, 82, 72
2, 45840, Note_on_c, 0, 82, 0
2, 45840, Note_on_c, 0, 83, 72
2, 46080, Note_on_c, 0, 83, 0
2, 46080, Note_on_c, 0, 60, 72
2, 46080, Note_on_c, 0, 64, 72
2, 46200, Note_on_c, 0, 68, 72
2, 46320, Note_on_c, 0, 68, 0
2, 46320, Note_on_c, 0, 64, 0
2, 46320, Note_on_c, 0, 60, 0
2, 46320, Note_on_c, 0, 69, 72
2, 46440, Note_on_c, 0, 69, 0
2, 46440, Note_on_c, 0, 72, 72
2, 46560, Note_on_c, 0, 72, 0
2, 46560, Note_on_c, 0, 76, 72
2, 46800, Note_on_c, 0, 76, 0
2, 46800, Note_on_c, 0, 57, 72
2, 46800, Note_on_c, 0, 60, 72
2, 46920, Note_on_c, 0, 64, 72
2, 47040, Note_on_c, 0, 64, 0
2, 47040, Note_on_c, 0, 60, 0
2, 47040, Note_on_c, 0, 57, 0
2, 47040, Note_on_c, 0, 65, 72
2, 47160, Note_on_c, 0, 65, 0
2, 47160, Note_on_c, 0, 69, 72
2, 47280, Note_on_c, 0, 69, 0
2, 47280, Note_on_c, 0, 72, 72
2, 47520, Note_on_c, 0, 72, 0
2, 47640, Note_on_c, 0, 62, 72
2, 47760, Note_on_c, 0, 62, 0
2, 47760, Note_on_c, 0, 63, 72
2, 47880, Note_on_c, 0, 63, 0
2, 47880, Note_on_c, 0, 66, 72
2, 48000, Note_on_c, 0, 66, 0
2, 48000, Note_on_c, 0, 71, 72
2, 48240, Note_on_c, 0, 71, 0
2, 48240, Note_on_c, 0, 64, 72
2, 48240, Note_on_c, 0, 59, 72
2, 48240, Note_on_c, 0, 55, 72
2, 48398, Note_on_c, 0, 55, 0
2, 48398, Note_on_c, 0, 59, 0
2, 48398, Note_on_c, 0, 64, 0
2, 48480, Note_on_c, 0, 64, 72
2, 48480, Note_on_c, 0, 59, 72
2, 48480, Note_on_c, 0, 55, 72
2, 48638, Note_on_c, 0, 55, 0
2, 48638, Note_on_c, 0, 59, 0
2, 48638, Note_on_c, 0, 64, 0
2, 48720, Note_on_c, 0, 55, 72
2, 48720, Note_on_c, 0, 60, 72
2, 48720, Note_on_c, 0, 64, 72
2, 48878, Note_on_c, 0, 64, 0
2, 48878, Note_on_c, 0, 60, 0
2, 48878, Note_on_c, 0, 55, 0
2, 48960, Note_on_c, 0, 64, 72
2, 48960, Note_on_c, 0, 59, 72
2, 48960, Note_on_c, 0, 55, 72
2, 49118, Note_on_c, 0, 55, 0
2, 49118, Note_on_c, 0, 59, 0
2, 49118, Note_on_c, 0, 64, 0
2, 49200, Note_on_c, 0, 64, 72
2, 49200, Note_on_c, 0, 59, 72
2, 49200, Note_on_c, 0, 55, 72
2, 49358, Note_on_c, 0, 55, 0
2, 49358, Note_on_c, 0, 59, 0
2, 49358, Note_on_c, 0, 64, 0
2, 49440, Note_on_c, 0, 55, 72
2, 49440, Note_on_c, 0, 57, 72
2, 49440, Note_on_c, 0, 64, 72
2, 49598, Note_on_c, 0, 64, 0
2, 49598, Note_on_c, 0, 57, 0
2, 49598, Note_on_c, 0, 55, 0
2, 49680, Note_on_c, 0, 64, 72
2, 49680, Note_on_c, 0, 59, 72
2, 49680, Note_on_c, 0, 55, 72
2, 49838, Note_on_c, 0, 55, 0
2, 49838, Note_on_c, 0, 59, 0
2, 49838, Note_on_c, 0, 64, 0
2, 50340, Note_on_c, 0, 71, 72
2, 50359, Note_on_c, 0, 71, 0
2, 50370, Note_on_c, 0, 75, 72
2, 50389, Note_on_c, 0, 75, 0
2, 50400, Note_on_c, 0, 76, 72
2, 50400, Note_on_c, 0, 67, 72
2, 50558, Note_on_c, 0, 67, 0
2, 50558, Note_on_c, 0, 76, 0
2, 51060, Note_on_c, 0, 83, 72
2, 51079, Note_on_c, 0, 83, 0
2, 51090, Note_on_c, 0, 87, 72
2, 51109, Note_on_c, 0, 87, 0
2, 51120, Note_on_c, 0, 88, 72
2, 51120, Note_on_c, 0, 79, 72
2, 51278, Note_on_c, 0, 79, 0
2, 51278, Note_on_c, 0, 88, 0
2, 51278, End_track
3, 0, Start_track
3, 0, Title_t, "Op-12 No-04"
3, 0, Program_c, 0, 0
3, 0, Control_c, 0, 7, 115
3, 0, Control_c, 0, 10, 51
3, 11520, Note_on_c, 0, 59, 77
3, 11520, Note_on_c, 0, 47, 77
3, 11678, Note_on_c, 0, 47, 0
3, 11678, Note_on_c, 0, 59, 0
3, 11760, Note_on_c, 0, 59, 77
3, 11760, Note_on_c, 0, 47, 77
3, 11918, Note_on_c, 0, 47, 0
3, 11918, Note_on_c, 0, 59, 0
3, 12000, Note_on_c, 0, 42, 77
3, 12000, Note_on_c, 0, 54, 77
3, 12158, Note_on_c, 0, 54, 0
3, 12158, Note_on_c, 0, 42, 0
3, 12240, Note_on_c, 0, 59, 77
3, 12240, Note_on_c, 0, 47, 77
3, 12398, Note_on_c, 0, 47, 0
3, 12398, Note_on_c, 0, 59, 0
3, 12480, Note_on_c, 0, 59, 77
3, 12480, Note_on_c, 0, 47, 77
3, 12638, Note_on_c, 0, 47, 0
3, 12638, Note_on_c, 0, 59, 0
3, 12960, Note_on_c, 0, 52, 77
3, 12960, Note_on_c, 0, 61, 77
3, 13200, Note_on_c, 0, 61, 0
3, 13200, Note_on_c, 0, 52, 0
3, 13200, Note_on_c, 0, 52, 77
3, 13200, Note_on_c, 0, 61, 77
3, 13440, Note_on_c, 0, 61, 0
3, 13440, Note_on_c, 0, 52, 0
3, 13440, Note_on_c, 0, 54, 77
3, 13440, Note_on_c, 0, 61, 77
3, 13680, Note_on_c, 0, 61, 0
3, 13680, Note_on_c, 0, 54, 0
3, 13680, Note_on_c, 0, 55, 77
3, 13680, Note_on_c, 0, 61, 77
3, 13920, Note_on_c, 0, 61, 0
3, 13920, Note_on_c, 0, 55, 0
3, 13920, Note_on_c, 0, 55, 77
3, 13920, Note_on_c, 0, 61, 77
3, 14160, Note_on_c, 0, 61, 0
3, 14160, Note_on_c, 0, 55, 0
3, 14400, Note_on_c, 0, 59, 77
3, 14400, Note_on_c, 0, 47, 77
3, 14558, Note_on_c, 0, 47, 0
3, 14558, Note_on_c, 0, 59, 0
3, 14640, Note_on_c, 0, 59, 77
3, 14640, Note_on_c, 0, 47, 77
3, 14798, Note_on_c, 0, 47, 0
3, 14798, Note_on_c, 0, 59, 0
3, 14880, Note_on_c, 0, 42, 77
3, 14880, Note_on_c, 0, 54, 77
3, 15038, Note_on_c, 0, 54, 0
3, 15038, Note_on_c, 0, 42, 0
3, 15120, Note_on_c, 0, 59, 77
3, 15120, Note_on_c, 0, 47, 77
3, 15278, Note_on_c, 0, 47, 0
3, 15278, Note_on_c, 0, 59, 0
3, 15360, Note_on_c, 0, 59, 77
3, 15360, Note_on_c, 0, 47, 77
3, 15518, Note_on_c, 0, 47, 0
3, 15518, Note_on_c, 0, 59, 0
3, 15840, Note_on_c, 0, 52, 77
3, 15840, Note_on_c, 0, 61, 77
3, 16080, Note_on_c, 0, 61, 0
3, 16080, Note_on_c, 0, 52, 0
3, 16080, Note_on_c, 0, 52, 77
3, 16080, Note_on_c, 0, 61, 77
3, 16320, Note_on_c, 0, 61, 0
3, 16320, Note_on_c, 0, 52, 0
3, 16320, Note_on_c, 0, 54, 77
3, 16320, Note_on_c, 0, 61, 77
3, 16560, Note_on_c, 0, 61, 0
3, 16560, Note_on_c, 0, 54, 0
3, 16560, Note_on_c, 0, 55, 77
3, 16560, Note_on_c, 0, 61, 77
3, 16800, Note_on_c, 0, 61, 0
3, 16800, Note_on_c, 0, 55, 0
3, 16800, Note_on_c, 0, 55, 77
3, 16800, Note_on_c, 0, 61, 77
3, 17040, Note_on_c, 0, 61, 0
3, 17040, Note_on_c, 0, 55, 0
3, 17280, Note_on_c, 0, 55, 77
3, 17280, Note_on_c, 0, 64, 77
3, 17520, Note_on_c, 0, 64, 0
3, 17520, Note_on_c, 0, 55, 0
3, 17520, Note_on_c, 0, 55, 77
3, 17520, Note_on_c, 0, 64, 77
3, 17760, Note_on_c, 0, 64, 0
3, 17760, Note_on_c, 0, 55, 0
3, 17760, Note_on_c, 0, 57, 77
3, 17760, Note_on_c, 0, 64, 77
3, 18000, Note_on_c, 0, 64, 0
3, 18000, Note_on_c, 0, 57, 0
3, 18000, Note_on_c, 0, 58, 77
3, 18000, Note_on_c, 0, 64, 77
3, 18240, Note_on_c, 0, 64, 0
3, 18240, Note_on_c, 0, 58, 0
3, 18240, Note_on_c, 0, 58, 77
3, 18240, Note_on_c, 0, 64, 77
3, 18480, Note_on_c, 0, 64, 0
3, 18480, Note_on_c, 0, 58, 0
3, 18720, Note_on_c, 0, 58, 77
3, 18720, Note_on_c, 0, 67, 77
3, 18960, Note_on_c, 0, 67, 0
3, 18960, Note_on_c, 0, 58, 0
3, 18960, Note_on_c, 0, 64, 77
3, 18960, Note_on_c, 0, 67, 77
3, 19200, Note_on_c, 0, 67, 0
3, 19200, Note_on_c, 0, 64, 0
3, 19200, Note_on_c, 0, 62, 77
3, 19200, Note_on_c, 0, 67, 77
3, 19440, Note_on_c, 0, 67, 0
3, 19440, Note_on_c, 0, 62, 0
3, 19440, Note_on_c, 0, 60, 77
3, 19440, Note_on_c, 0, 66, 77
3, 19680, Note_on_c, 0, 66, 0
3, 19680, Note_on_c, 0, 60, 0
3, 19680, Note_on_c, 0, 60, 77
3, 19680, Note_on_c, 0, 66, 77
3, 19920, Note_on_c, 0, 66, 0
3, 19920, Note_on_c, 0, 60, 0
3, 19920, Note_on_c, 0, 60, 77
3, 19920, Note_on_c, 0, 66, 77
3, 20160, Note_on_c, 0, 66, 0
3, 20160, Note_on_c, 0, 60, 0
3, 20160, Note_on_c, 0, 59, 77
3, 20160, Note_on_c, 0, 66, 77
3, 20400, Note_on_c, 0, 66, 0
3, 20400, Note_on_c, 0, 59, 0
3, 20400, Note_on_c, 0, 59, 77
3, 20400, Note_on_c, 0, 66, 77
3, 20640, Note_on_c, 0, 66, 0
3, 20640, Note_on_c, 0, 59, 0
3, 20640, Note_on_c, 0, 59, 77
3, 20640, Note_on_c, 0, 66, 77
3, 20880, Note_on_c, 0, 66, 0
3, 20880, Note_on_c, 0, 59, 0
3, 20880, Note_on_c, 0, 59, 77
3, 20880, Note_on_c, 0, 66, 77
3, 21120, Note_on_c, 0, 66, 0
3, 21120, Note_on_c, 0, 59, 0
3, 21120, Note_on_c, 0, 59, 77
3, 21120, Note_on_c, 0, 66, 77
3, 21360, Note_on_c, 0, 66, 0
3, 21360, Note_on_c, 0, 59, 0
3, 21360, Note_on_c, 0, 59, 77
3, 21360, Note_on_c, 0, 66, 77
3, 21600, Note_on_c, 0, 66, 0
3, 21600, Note_on_c, 0, 59, 0
3, 27360, Note_on_c, 0, 59, 77
3, 27360, Note_on_c, 0, 47, 77
3, 27518, Note_on_c, 0, 47, 0
3, 27518, Note_on_c, 0, 59, 0
3, 27600, Note_on_c, 0, 59, 77
3, 27600, Note_on_c, 0, 47, 77
3, 27758, Note_on_c, 0, 47, 0
3, 27758, Note_on_c, 0, 59, 0
3, 27840, Note_on_c, 0, 42, 77
3, 27840, Note_on_c, 0, 54, 77
3, 27998, Note_on_c, 0, 54, 0
3, 27998, Note_on_c, 0, 42, 0
3, 28080, Note_on_c, 0, 59, 77
3, 28080, Note_on_c, 0, 47, 77
3, 28238, Note_on_c, 0, 47, 0
3, 28238, Note_on_c, 0, 59, 0
3, 28320, Note_on_c, 0, 59, 77
3, 28320, Note_on_c, 0, 47, 77
3, 28478, Note_on_c, 0, 47, 0
3, 28478, Note_on_c, 0, 59, 0
3, 28800, Note_on_c, 0, 52, 77
3, 28800, Note_on_c, 0, 61, 77
3, 29040, Note_on_c, 0, 61, 0
3, 29040, Note_on_c, 0, 52, 0
3, 29040, Note_on_c, 0, 52, 77
3, 29040, Note_on_c, 0, 61, 77
3, 29280, Note_on_c, 0, 61, 0
3, 29280, Note_on_c, 0, 52, 0
3, 29280, Note_on_c, 0, 54, 77
3, 29280, Note_on_c, 0, 61, 77
3, 29520, Note_on_c, 0, 61, 0
3, 29520, Note_on_c, 0, 54, 0
3, 29520, Note_on_c, 0, 55, 77
3, 29520, Note_on_c, 0, 61, 77
3, 29760, Note_on_c, 0, 61, 0
3, 29760, Note_on_c, 0, 55, 0
3, 29760, Note_on_c, 0, 55, 77
3, 29760, Note_on_c, 0, 61, 77
3, 30000, Note_on_c, 0, 61, 0
3, 30000, Note_on_c, 0, 55, 0
3, 30240, Note_on_c, 0, 59, 77
3, 30240, Note_on_c, 0, 47, 77
3, 30398, Note_on_c, 0, 47, 0
3, 30398, Note_on_c, 0, 59, 0
3, 30480, Note_on_c, 0, 59, 77
3, 30480, Note_on_c, 0, 47, 77
3, 30638, Note_on_c, 0, 47, 0
3, 30638, Note_on_c, 0, 59, 0
3, 30720, Note_on_c, 0, 42, 77
3, 30720, Note_on_c, 0, 54, 77
3, 30878, Note_on_c, 0, 54, 0
3, 30878, Note_on_c, 0, 42, 0
3, 30960, Note_on_c, 0, 59, 77
3, 30960, Note_on_c, 0, 47, 77
3, 31118, Note_on_c, 0, 47, 0
3, 31118, Note_on_c, 0, 59, 0
3, 31200, Note_on_c, 0, 59, 77
3, 31200, Note_on_c, 0, 47, 77
3, 31358, Note_on_c, 0, 47, 0
3, 31358, Note_on_c, 0, 59, 0
3, 31680, Note_on_c, 0, 52, 77
3, 31680, Note_on_c, 0, 61, 77
3, 31920, Note_on_c, 0, 61, 0
3, 31920, Note_on_c, 0, 52, 0
3, 31920, Note_on_c, 0, 52, 77
3, 31920, Note_on_c, 0, 61, 77
3, 32160, Note_on_c, 0, 61, 0
3, 32160, Note_on_c, 0, 52, 0
3, 32160, Note_on_c, 0, 54, 77
3, 32160, Note_on_c, 0, 61, 77
3, 32400, Note_on_c, 0, 61, 0
3, 32400, Note_on_c, 0, 54, 0
3, 32400, Note_on_c, 0, 55, 77
3, 32400, Note_on_c, 0, 61, 77
3, 32640, Note_on_c, 0, 61, 0
3, 32640, Note_on_c, 0, 55, 0
3, 32640, Note_on_c, 0, 55, 77
3, 32640, Note_on_c, 0, 61, 77
3, 32880, Note_on_c, 0, 61, 0
3, 32880, Note_on_c, 0, 55, 0
3, 33120, Note_on_c, 0, 55, 77
3, 33120, Note_on_c, 0, 64, 77
3, 33360, Note_on_c, 0, 64, 0
3, 33360, Note_on_c, 0, 55, 0
3, 33360, Note_on_c, 0, 55, 77
3, 33360, Note_on_c, 0, 64, 77
3, 33600, Note_on_c, 0, 64, 0
3, 33600, Note_on_c, 0, 55, 0
3, 33600, Note_on_c, 0, 57, 77
3, 33600, Note_on_c, 0, 64, 77
3, 33840, Note_on_c, 0, 64, 0
3, 33840, Note_on_c, 0, 57, 0
3, 33840, Note_on_c, 0, 58, 77
3, 33840, Note_on_c, 0, 64, 77
3, 34080, Note_on_c, 0, 64, 0
3, 34080, Note_on_c, 0, 58, 0
3, 34080, Note_on_c, 0, 58, 77
3, 34080, Note_on_c, 0, 64, 77
3, 34320, Note_on_c, 0, 64, 0
3, 34320, Note_on_c, 0, 58, 0
3, 34560, Note_on_c, 0, 58, 77
3, 34560, Note_on_c, 0, 67, 77
3, 34800, Note_on_c, 0, 67, 0
3, 34800, Note_on_c, 0, 58, 0
3, 34800, Note_on_c, 0, 64, 77
3, 34800, Note_on_c, 0, 67, 77
3, 35040, Note_on_c, 0, 67, 0
3, 35040, Note_on_c, 0, 64, 0
3, 35040, Note_on_c, 0, 62, 77
3, 35040, Note_on_c, 0, 67, 77
3, 35280, Note_on_c, 0, 67, 0
3, 35280, Note_on_c, 0, 62, 0
3, 35280, Note_on_c, 0, 60, 77
3, 35280, Note_on_c, 0, 66, 77
3, 35520, Note_on_c, 0, 66, 0
3, 35520, Note_on_c, 0, 60, 0
3, 35520, Note_on_c, 0, 60, 77
3, 35520, Note_on_c, 0, 66, 77
3, 35760, Note_on_c, 0, 66, 0
3, 35760, Note_on_c, 0, 60, 0
3, 35760, Note_on_c, 0, 60, 77
3, 35760, Note_on_c, 0, 66, 77
3, 36000, Note_on_c, 0, 66, 0
3, 36000, Note_on_c, 0, 60, 0
3, 36000, Note_on_c, 0, 59, 77
3, 36000, Note_on_c, 0, 66, 77
3, 36240, Note_on_c, 0, 66, 0
3, 36240, Note_on_c, 0, 59, 0
3, 36240, Note_on_c, 0, 59, 77
3, 36240, Note_on_c, 0, 66, 77
3, 36480, Note_on_c, 0, 66, 0
3, 36480, Note_on_c, 0, 59, 0
3, 36480, Note_on_c, 0, 59, 77
3, 36480, Note_on_c, 0, 66, 77
3, 36720, Note_on_c, 0, 66, 0
3, 36720, Note_on_c, 0, 59, 0
3, 36720, Note_on_c, 0, 59, 77
3, 36720, Note_on_c, 0, 66, 77
3, 36960, Note_on_c, 0, 66, 0
3, 36960, Note_on_c, 0, 59, 0
3, 36960, Note_on_c, 0, 59, 77
3, 36960, Note_on_c, 0, 66, 77
3, 37200, Note_on_c, 0, 66, 0
3, 37200, Note_on_c, 0, 59, 0
3, 37200, Note_on_c, 0, 59, 77
3, 37200, Note_on_c, 0, 66, 77
3, 37440, Note_on_c, 0, 66, 0
3, 37440, Note_on_c, 0, 59, 0
3, 47520, Note_on_c, 0, 47, 77
3, 47520, Note_on_c, 0, 54, 77
3, 47520, Note_on_c, 0, 57, 77
3, 47760, Note_on_c, 0, 57, 0
3, 47760, Note_on_c, 0, 54, 0
3, 47760, Note_on_c, 0, 47, 0
3, 48240, Note_on_c, 0, 52, 77
3, 48240, Note_on_c, 0, 47, 77
3, 48240, Note_on_c, 0, 40, 77
3, 48398, Note_on_c, 0, 40, 0
3, 48398, Note_on_c, 0, 47, 0
3, 48398, Note_on_c, 0, 52, 0
3, 48480, Note_on_c, 0, 52, 77
3, 48480, Note_on_c, 0, 47, 77
3, 48480, Note_on_c, 0, 40, 77
3, 48638, Note_on_c, 0, 40, 0
3, 48638, Note_on_c, 0, 47, 0
3, 48638, Note_on_c, 0, 52, 0
3, 48720, Note_on_c, 0, 40, 77
3, 48720, Note_on_c, 0, 45, 77
3, 48720, Note_on_c, 0, 52, 77
3, 48878, Note_on_c, 0, 52, 0
3, 48878, Note_on_c, 0, 45, 0
3, 48878, Note_on_c, 0, 40, 0
3, 48960, Note_on_c, 0, 52, 77
3, 48960, Note_on_c, 0, 47, 77
3, 48960, Note_on_c, 0, 40, 77
3, 49118, Note_on_c, 0, 40, 0
3, 49118, Note_on_c, 0, 47, 0
3, 49118, Note_on_c, 0, 52, 0
3, 49200, Note_on_c, 0, 52, 77
3, 49200, Note_on_c, 0, 47, 77
3, 49200, Note_on_c, 0, 40, 77
3, 49358, Note_on_c, 0, 40, 0
3, 49358, Note_on_c, 0, 47, 0
3, 49358, Note_on_c, 0, 52, 0
3, 49440, Note_on_c, 0, 40, 77
3, 49440, Note_on_c, 0, 48, 77
3, 49440, Note_on_c, 0, 52, 77
3, 49598, Note_on_c, 0, 52, 0
3, 49598, Note_on_c, 0, 48, 0
3, 49598, Note_on_c, 0, 40, 0
3, 49680, Note_on_c, 0, 52, 77
3, 49680, Note_on_c, 0, 47, 77
3, 49680, Note_on_c, 0, 40, 77
3, 49838, Note_on_c, 0, 40, 0
3, 49838, Note_on_c, 0, 47, 0
3, 49838, Note_on_c, 0, 52, 0
3, 50400, Note_on_c, 0, 59, 77
3, 50400, Note_on_c, 0, 52, 77
3, 50558, Note_on_c, 0, 52, 0
3, 50558, Note_on_c, 0, 59, 0
3, 51120, Note_on_c, 0, 71, 77
3, 51120, Note_on_c, 0, 64, 77
3, 51278, Note_on_c, 0, 64, 0
3, 51278, Note_on_c, 0, 71, 0
3, 51278, End_track
0, 0, End_of_file
