0, 0, Header, 1, 3, 240
1, 0, Start_track
1, 0, Title_t, "untitled"
1, 0, Time_signature, 3, 2, 24, 8
1, 0, Key_signature, 3, "major"
1, 0, Tempo, 560748
1, 0, End_track
2, 0, Start_track
2, 0, Title_t, "Grieg"
2, 0, Program_c, 0, 0
2, 0, Control_c, 0, 7, 115
2, 0, Control_c, 0, 10, 76
2, 480, Note_on_c, 0, 61, 91
2, 900, Note_on_c, 0, 61, 0
2, 900, Note_on_c, 0, 65, 91
2, 960, Note_on_c, 0, 65, 0
2, 960, Note_on_c, 0, 68, 91
2, 1200, Note_on_c, 0, 68, 0
2, 1200, Note_on_c, 0, 69, 91
2, 1440, Note_on_c, 0, 69, 0
2, 1440, Note_on_c, 0, 66, 91
2, 1620, Note_on_c, 0, 66, 0
2, 1620, Note_on_c, 0, 66, 91
2, 1680, Note_on_c, 0, 66, 0
2, 1680, Note_on_c, 0, 65, 91
2, 1920, Note_on_c, 0, 65, 0
2, 1920, Note_on_c, 0, 66, 91
2, 2040, Note_on_c, 0, 66, 0
2, 2040, Note_on_c, 0, 68, 91
2, 2160, Note_on_c, 0, 68, 0
2, 2160, Note_on_c, 0, 69, 91
2, 2239, Note_on_c, 0, 69, 0
2, 2239, Note_on_c, 0, 71, 91
2, 2319, Note_on_c, 0, 71, 0
2, 2319, Note_on_c, 0, 74, 91
2, 2399, Note_on_c, 0, 74, 0
2, 2400, Note_on_c, 0, 73, 91
2, 2430, Note_on_c, 0, 73, 0
2, 2430, Note_on_c, 0, 74, 91
2, 2460, Note_on_c, 0, 74, 0
2, 2460, Note_on_c, 0, 73, 91
2, 2520, Note_on_c, 0, 73, 0
2, 2520, Note_on_c, 0, 71, 91
2, 2640, Note_on_c, 0, 71, 0
2, 2640, Note_on_c, 0, 71, 91
2, 2760, Note_on_c, 0, 71, 0
2, 2760, Note_on_c, 0, 78, 91
2, 2880, Note_on_c, 0, 78, 0
2, 2880, Note_on_c, 0, 73, 91
2, 3060, Note_on_c, 0, 73, 0
2, 3060, Note_on_c, 0, 69, 91
2, 3120, Note_on_c, 0, 69, 0
2, 3120, Note_on_c, 0, 73, 91
2, 3360, Note_on_c, 0, 73, 0
2, 3360, Note_on_c, 0, 61, 91
2, 3780, Note_on_c, 0, 61, 0
2, 3780, Note_on_c, 0, 65, 91
2, 3840, Note_on_c, 0, 65, 0
2, 3840, Note_on_c, 0, 68, 91
2, 3960, Note_on_c, 0, 68, 0
2, 3960, Note_on_c, 0, 71, 91
2, 4200, Note_on_c, 0, 71, 0
2, 4200, Note_on_c, 0, 69, 91
2, 4239, Note_on_c, 0, 69, 0
2, 4239, Note_on_c, 0, 71, 91
2, 4279, Note_on_c, 0, 71, 0
2, 4279, Note_on_c, 0, 69, 91
2, 4319, Note_on_c, 0, 69, 0
2, 4320, Note_on_c, 0, 66, 91
2, 4500, Note_on_c, 0, 66, 0
2, 4500, Note_on_c, 0, 66, 91
2, 4560, Note_on_c, 0, 66, 0
2, 4560, Note_on_c, 0, 65, 91
2, 4800, Note_on_c, 0, 65, 0
2, 4800, Note_on_c, 0, 66, 91
2, 4920, Note_on_c, 0, 66, 0
2, 4920, Note_on_c, 0, 62, 91
2, 5040, Note_on_c, 0, 62, 0
2, 5040, Note_on_c, 0, 59, 91
2, 5160, Note_on_c, 0, 59, 0
2, 5160, Note_on_c, 0, 61, 91
2, 5280, Note_on_c, 0, 61, 0
2, 5280, Note_on_c, 0, 62, 91
2, 5520, Note_on_c, 0, 62, 0
2, 5520, Note_on_c, 0, 61, 91
2, 5700, Note_on_c, 0, 61, 0
2, 5700, Note_on_c, 0, 65, 91
2, 5760, Note_on_c, 0, 65, 0
2, 5760, Note_on_c, 0, 59, 91
2, 5760, Note_on_c, 0, 61, 91
2, 5760, Note_on_c, 0, 65, 91
2, 5760, Note_on_c, 0, 68, 91
2, 6000, Note_on_c, 0, 68, 0
2, 6000, Note_on_c, 0, 59, 0
2, 6000, Note_on_c, 0, 61, 0
2, 6000, Note_on_c, 0, 65, 0
2, 6000, Note_on_c, 0, 57, 91
2, 6000, Note_on_c, 0, 66, 91
2, 6480, Note_on_c, 0, 66, 0
2, 6480, Note_on_c, 0, 57, 0
2, 6480, Note_on_c, 0, 66, 91
2, 6480, Note_on_c, 0, 78, 91
2, 6660, Note_on_c, 0, 78, 0
2, 6660, Note_on_c, 0, 77, 91
2, 6690, Note_on_c, 0, 77, 0
2, 6690, Note_on_c, 0, 78, 91
2, 6720, Note_on_c, 0, 78, 0
2, 6720, Note_on_c, 0, 77, 91
2, 6840, Note_on_c, 0, 77, 0
2, 6840, Note_on_c, 0, 73, 91
2, 6960, Note_on_c, 0, 73, 0
2, 6960, Note_on_c, 0, 73, 91
2, 7200, Note_on_c, 0, 73, 0
2, 7200, Note_on_c, 0, 66, 0
2, 7200, Note_on_c, 0, 62, 91
2, 7200, Note_on_c, 0, 74, 91
2, 7380, Note_on_c, 0, 74, 0
2, 7380, Note_on_c, 0, 73, 91
2, 7410, Note_on_c, 0, 73, 0
2, 7410, Note_on_c, 0, 74, 91
2, 7440, Note_on_c, 0, 74, 0
2, 7440, Note_on_c, 0, 73, 91
2, 7560, Note_on_c, 0, 73, 0
2, 7560, Note_on_c, 0, 69, 91
2, 7680, Note_on_c, 0, 69, 0
2, 7680, Note_on_c, 0, 69, 91
2, 7920, Note_on_c, 0, 69, 0
2, 7920, Note_on_c, 0, 62, 0
2, 7920, Note_on_c, 0, 57, 91
2, 7920, Note_on_c, 0, 69, 91
2, 8100, Note_on_c, 0, 69, 0
2, 8100, Note_on_c, 0, 68, 91
2, 8130, Note_on_c, 0, 68, 0
2, 8130, Note_on_c, 0, 69, 91
2, 8160, Note_on_c, 0, 69, 0
2, 8160, Note_on_c, 0, 68, 91
2, 8280, Note_on_c, 0, 68, 0
2, 8280, Note_on_c, 0, 64, 91
2, 8400, Note_on_c, 0, 64, 0
2, 8400, Note_on_c, 0, 64, 91
2, 8520, Note_on_c, 0, 64, 0
2, 8520, Note_on_c, 0, 68, 91
2, 8640, Note_on_c, 0, 68, 0
2, 8640, Note_on_c, 0, 57, 0
2, 8640, Note_on_c, 0, 56, 91
2, 8640, Note_on_c, 0, 62, 91
2, 8640, Note_on_c, 0, 66, 91
2, 8880, Note_on_c, 0, 66, 0
2, 8880, Note_on_c, 0, 62, 0
2, 8880, Note_on_c, 0, 56, 0
2, 8880, Note_on_c, 0, 57, 91
2, 8880, Note_on_c, 0, 61, 91
2, 8880, Note_on_c, 0, 64, 91
2, 9360, Note_on_c, 0, 64, 0
2, 9360, Note_on_c, 0, 61, 0
2, 9360, Note_on_c, 0, 57, 0
2, 9360, Note_on_c, 0, 62, 91
2, 9360, Note_on_c, 0, 74, 91
2, 9540, Note_on_c, 0, 74, 0
2, 9540, Note_on_c, 0, 73, 91
2, 9570, Note_on_c, 0, 73, 0
2, 9570, Note_on_c, 0, 74, 91
2, 9600, Note_on_c, 0, 74, 0
2, 9600, Note_on_c, 0, 73, 91
2, 9720, Note_on_c, 0, 73, 0
2, 9720, Note_on_c, 0, 69, 91
2, 9840, Note_on_c, 0, 69, 0
2, 9840, Note_on_c, 0, 68, 91
2, 10080, Note_on_c, 0, 68, 0
2, 10080, Note_on_c, 0, 62, 0
2, 10080, Note_on_c, 0, 61, 91
2, 10080, Note_on_c, 0, 73, 91
2, 10260, Note_on_c, 0, 73, 0
2, 10260, Note_on_c, 0, 71, 91
2, 10290, Note_on_c, 0, 71, 0
2, 10290, Note_on_c, 0, 73, 91
2, 10320, Note_on_c, 0, 73, 0
2, 10320, Note_on_c, 0, 71, 91
2, 10440, Note_on_c, 0, 71, 0
2, 10440, Note_on_c, 0, 67, 91
2, 10560, Note_on_c, 0, 67, 0
2, 10560, Note_on_c, 0, 66, 91
2, 10800, Note_on_c, 0, 66, 0
2, 10800, Note_on_c, 0, 61, 0
2, 10800, Note_on_c, 0, 71, 91
2, 10800, Note_on_c, 0, 59, 91
2, 10980, Note_on_c, 0, 71, 0
2, 10980, Note_on_c, 0, 69, 91
2, 11010, Note_on_c, 0, 69, 0
2, 11010, Note_on_c, 0, 71, 91
2, 11040, Note_on_c, 0, 71, 0
2, 11040, Note_on_c, 0, 69, 91
2, 11160, Note_on_c, 0, 69, 0
2, 11160, Note_on_c, 0, 66, 91
2, 11280, Note_on_c, 0, 66, 0
2, 11280, Note_on_c, 0, 59, 0
2, 11280, Note_on_c, 0, 60, 91
2, 11280, Note_on_c, 0, 65, 91
2, 11359, Note_on_c, 0, 65, 0
2, 11359, Note_on_c, 0, 68, 91
2, 11439, Note_on_c, 0, 68, 0
2, 11439, Note_on_c, 0, 66, 91
2, 11519, Note_on_c, 0, 66, 0
2, 11520, Note_on_c, 0, 60, 0
2, 11520, Note_on_c, 0, 61, 91
2, 11520, Note_on_c, 0, 66, 91
2, 11760, Note_on_c, 0, 66, 0
2, 11760, Note_on_c, 0, 61, 0
2, 11760, Note_on_c, 0, 61, 91
2, 11760, Note_on_c, 0, 65, 91
2, 11880, Note_on_c, 0, 65, 0
2, 11880, Note_on_c, 0, 61, 0
2, 12000, Note_on_c, 0, 61, 91
2, 12420, Note_on_c, 0, 61, 0
2, 12420, Note_on_c, 0, 65, 91
2, 12480, Note_on_c, 0, 65, 0
2, 12480, Note_on_c, 0, 68, 91
2, 12720, Note_on_c, 0, 68, 0
2, 12720, Note_on_c, 0, 69, 91
2, 12960, Note_on_c, 0, 69, 0
2, 12960, Note_on_c, 0, 66, 91
2, 13140, Note_on_c, 0, 66, 0
2, 13140, Note_on_c, 0, 66, 91
2, 13200, Note_on_c, 0, 66, 0
2, 13200, Note_on_c, 0, 65, 91
2, 13440, Note_on_c, 0, 65, 0
2, 13440, Note_on_c, 0, 66, 91
2, 13560, Note_on_c, 0, 66, 0
2, 13560, Note_on_c, 0, 68, 91
2, 13680, Note_on_c, 0, 68, 0
2, 13680, Note_on_c, 0, 69, 91
2, 13759, Note_on_c, 0, 69, 0
2, 13759, Note_on_c, 0, 71, 91
2, 13839, Note_on_c, 0, 71, 0
2, 13839, Note_on_c, 0, 74, 91
2, 13919, Note_on_c, 0, 74, 0
2, 13920, Note_on_c, 0, 73, 91
2, 13950, Note_on_c, 0, 73, 0
2, 13950, Note_on_c, 0, 74, 91
2, 13980, Note_on_c, 0, 74, 0
2, 13980, Note_on_c, 0, 73, 91
2, 14040, Note_on_c, 0, 73, 0
2, 14040, Note_on_c, 0, 71, 91
2, 14160, Note_on_c, 0, 71, 0
2, 14160, Note_on_c, 0, 71, 91
2, 14280, Note_on_c, 0, 71, 0
2, 14280, Note_on_c, 0, 78, 91
2, 14400, Note_on_c, 0, 78, 0
2, 14400, Note_on_c, 0, 73, 91
2, 14580, Note_on_c, 0, 73, 0
2, 14580, Note_on_c, 0, 69, 91
2, 14640, Note_on_c, 0, 69, 0
2, 14640, Note_on_c, 0, 73, 91
2, 14880, Note_on_c, 0, 73, 0
2, 14880, Note_on_c, 0, 61, 91
2, 15300, Note_on_c, 0, 61, 0
2, 15300, Note_on_c, 0, 65, 91
2, 15360, Note_on_c, 0, 65, 0
2, 15360, Note_on_c, 0, 68, 91
2, 15480, Note_on_c, 0, 68, 0
2, 15480, Note_on_c, 0, 71, 91
2, 15720, Note_on_c, 0, 71, 0
2, 15720, Note_on_c, 0, 69, 91
2, 15759, Note_on_c, 0, 69, 0
2, 15759, Note_on_c, 0, 71, 91
2, 15799, Note_on_c, 0, 71, 0
2, 15799, Note_on_c, 0, 69, 91
2, 15839, Note_on_c, 0, 69, 0
2, 15840, Note_on_c, 0, 66, 91
2, 16020, Note_on_c, 0, 66, 0
2, 16020, Note_on_c, 0, 66, 91
2, 16080, Note_on_c, 0, 66, 0
2, 16080, Note_on_c, 0, 65, 91
2, 16320, Note_on_c, 0, 65, 0
2, 16320, Note_on_c, 0, 66, 91
2, 16440, Note_on_c, 0, 66, 0
2, 16440, Note_on_c, 0, 62, 91
2, 16560, Note_on_c, 0, 62, 0
2, 16560, Note_on_c, 0, 59, 91
2, 16680, Note_on_c, 0, 59, 0
2, 16680, Note_on_c, 0, 61, 91
2, 16800, Note_on_c, 0, 61, 0
2, 16800, Note_on_c, 0, 62, 91
2, 17040, Note_on_c, 0, 62, 0
2, 17040, Note_on_c, 0, 61, 91
2, 17220, Note_on_c, 0, 61, 0
2, 17220, Note_on_c, 0, 65, 91
2, 17280, Note_on_c, 0, 65, 0
2, 17280, Note_on_c, 0, 59, 91
2, 17280, Note_on_c, 0, 61, 91
2, 17280, Note_on_c, 0, 65, 91
2, 17280, Note_on_c, 0, 68, 91
2, 17520, Note_on_c, 0, 68, 0
2, 17520, Note_on_c, 0, 59, 0
2, 17520, Note_on_c, 0, 61, 0
2, 17520, Note_on_c, 0, 65, 0
2, 17520, Note_on_c, 0, 57, 91
2, 17520, Note_on_c, 0, 66, 91
2, 18000, Note_on_c, 0, 66, 0
2, 18000, Note_on_c, 0, 57, 0
2, 18000, Note_on_c, 0, 66, 91
2, 18000, Note_on_c, 0, 78, 91
2, 18180, Note_on_c, 0, 78, 0
2, 18180, Note_on_c, 0, 77, 91
2, 18210, Note_on_c, 0, 77, 0
2, 18210, Note_on_c, 0, 78, 91
2, 18240, Note_on_c, 0, 78, 0
2, 18240, Note_on_c, 0, 77, 91
2, 18360, Note_on_c, 0, 77, 0
2, 18360, Note_on_c, 0, 73, 91
2, 18480, Note_on_c, 0, 73, 0
2, 18480, Note_on_c, 0, 73, 91
2, 18720, Note_on_c, 0, 73, 0
2, 18720, Note_on_c, 0, 66, 0
2, 18720, Note_on_c, 0, 62, 91
2, 18720, Note_on_c, 0, 74, 91
2, 18900, Note_on_c, 0, 74, 0
2, 18900, Note_on_c, 0, 73, 91
2, 18930, Note_on_c, 0, 73, 0
2, 18930, Note_on_c, 0, 74, 91
2, 18960, Note_on_c, 0, 74, 0
2, 18960, Note_on_c, 0, 73, 91
2, 19080, Note_on_c, 0, 73, 0
2, 19080, Note_on_c, 0, 69, 91
2, 19200, Note_on_c, 0, 69, 0
2, 19200, Note_on_c, 0, 69, 91
2, 19440, Note_on_c, 0, 69, 0
2, 19440, Note_on_c, 0, 62, 0
2, 19440, Note_on_c, 0, 57, 91
2, 19440, Note_on_c, 0, 69, 91
2, 19620, Note_on_c, 0, 69, 0
2, 19620, Note_on_c, 0, 68, 91
2, 19650, Note_on_c, 0, 68, 0
2, 19650, Note_on_c, 0, 69, 91
2, 19680, Note_on_c, 0, 69, 0
2, 19680, Note_on_c, 0, 68, 91
2, 19800, Note_on_c, 0, 68, 0
2, 19800, Note_on_c, 0, 64, 91
2, 19920, Note_on_c, 0, 64, 0
2, 19920, Note_on_c, 0, 64, 91
2, 20040, Note_on_c, 0, 64, 0
2, 20040, Note_on_c, 0, 68, 91
2, 20160, Note_on_c, 0, 68, 0
2, 20160, Note_on_c, 0, 57, 0
2, 20160, Note_on_c, 0, 56, 91
2, 20160, Note_on_c, 0, 62, 91
2, 20160, Note_on_c, 0, 66, 91
2, 20400, Note_on_c, 0, 66, 0
2, 20400, Note_on_c, 0, 62, 0
2, 20400, Note_on_c, 0, 56, 0
2, 20400, Note_on_c, 0, 57, 91
2, 20400, Note_on_c, 0, 61, 91
2, 20400, Note_on_c, 0, 64, 91
2, 20880, Note_on_c, 0, 64, 0
2, 20880, Note_on_c, 0, 61, 0
2, 20880, Note_on_c, 0, 57, 0
2, 20880, Note_on_c, 0, 62, 91
2, 20880, Note_on_c, 0, 74, 91
2, 21060, Note_on_c, 0, 74, 0
2, 21060, Note_on_c, 0, 73, 91
2, 21090, Note_on_c, 0, 73, 0
2, 21090, Note_on_c, 0, 74, 91
2, 21120, Note_on_c, 0, 74, 0
2, 21120, Note_on_c, 0, 73, 91
2, 21240, Note_on_c, 0, 73, 0
2, 21240, Note_on_c, 0, 69, 91
2, 21360, Note_on_c, 0, 69, 0
2, 21360, Note_on_c, 0, 68, 91
2, 21600, Note_on_c, 0, 68, 0
2, 21600, Note_on_c, 0, 62, 0
2, 21600, Note_on_c, 0, 61, 91
2, 21600, Note_on_c, 0, 73, 91
2, 21780, Note_on_c, 0, 73, 0
2, 21780, Note_on_c, 0, 71, 91
2, 21810, Note_on_c, 0, 71, 0
2, 21810, Note_on_c, 0, 73, 91
2, 21840, Note_on_c, 0, 73, 0
2, 21840, Note_on_c, 0, 71, 91
2, 21960, Note_on_c, 0, 71, 0
2, 21960, Note_on_c, 0, 67, 91
2, 22080, Note_on_c, 0, 67, 0
2, 22080, Note_on_c, 0, 66, 91
2, 22320, Note_on_c, 0, 66, 0
2, 22320, Note_on_c, 0, 61, 0
2, 22320, Note_on_c, 0, 71, 91
2, 22320, Note_on_c, 0, 59, 91
2, 22500, Note_on_c, 0, 71, 0
2, 22500, Note_on_c, 0, 69, 91
2, 22530, Note_on_c, 0, 69, 0
2, 22530, Note_on_c, 0, 71, 91
2, 22560, Note_on_c, 0, 71, 0
2, 22560, Note_on_c, 0, 69, 91
2, 22680, Note_on_c, 0, 69, 0
2, 22680, Note_on_c, 0, 66, 91
2, 22800, Note_on_c, 0, 66, 0
2, 22800, Note_on_c, 0, 59, 0
2, 22800, Note_on_c, 0, 60, 91
2, 22800, Note_on_c, 0, 65, 91
2, 22879, Note_on_c, 0, 65, 0
2, 22879, Note_on_c, 0, 68, 91
2, 22959, Note_on_c, 0, 68, 0
2, 22959, Note_on_c, 0, 66, 91
2, 23039, Note_on_c, 0, 66, 0
2, 23040, Note_on_c, 0, 60, 0
2, 23040, Note_on_c, 0, 61, 91
2, 23040, Note_on_c, 0, 66, 91
2, 23280, Note_on_c, 0, 66, 0
2, 23280, Note_on_c, 0, 61, 0
2, 23280, Note_on_c, 0, 61, 91
2, 23280, Note_on_c, 0, 65, 91
2, 23400, Note_on_c, 0, 65, 0
2, 23400, Note_on_c, 0, 61, 0
2, 23520, Note_on_c, 0, 61, 91
2, 23940, Note_on_c, 0, 61, 0
2, 23940, Note_on_c, 0, 65, 91
2, 24000, Note_on_c, 0, 65, 0
2, 24000, Note_on_c, 0, 68, 91
2, 24240, Note_on_c, 0, 68, 0
2, 24240, Note_on_c, 0, 69, 91
2, 24480, Note_on_c, 0, 69, 0
2, 24480, Note_on_c, 0, 66, 91
2, 24660, Note_on_c, 0, 66, 0
2, 24660, Note_on_c, 0, 66, 91
2, 24720, Note_on_c, 0, 66, 0
2, 24720, Note_on_c, 0, 65, 91
2, 24960, Note_on_c, 0, 65, 0
2, 24960, Note_on_c, 0, 66, 91
2, 25080, Note_on_c, 0, 66, 0
2, 25080, Note_on_c, 0, 68, 91
2, 25200, Note_on_c, 0, 68, 0
2, 25200, Note_on_c, 0, 69, 91
2, 25279, Note_on_c, 0, 69, 0
2, 25279, Note_on_c, 0, 71, 91
2, 25359, Note_on_c, 0, 71, 0
2, 25359, Note_on_c, 0, 74, 91
2, 25439, Note_on_c, 0, 74, 0
2, 25440, Note_on_c, 0, 73, 91
2, 25470, Note_on_c, 0, 73, 0
2, 25470, Note_on_c, 0, 74, 91
2, 25500, Note_on_c, 0, 74, 0
2, 25500, Note_on_c, 0, 73, 91
2, 25560, Note_on_c, 0, 73, 0
2, 25560, Note_on_c, 0, 71, 91
2, 25680, Note_on_c, 0, 71, 0
2, 25680, Note_on_c, 0, 71, 91
2, 25800, Note_on_c, 0, 71, 0
2, 25800, Note_on_c, 0, 78, 91
2, 25920, Note_on_c, 0, 78, 0
2, 25920, Note_on_c, 0, 73, 91
2, 26100, Note_on_c, 0, 73, 0
2, 26100, Note_on_c, 0, 69, 91
2, 26160, Note_on_c, 0, 69, 0
2, 26160, Note_on_c, 0, 73, 91
2, 26400, Note_on_c, 0, 73, 0
2, 26400, Note_on_c, 0, 61, 91
2, 26820, Note_on_c, 0, 61, 0
2, 26820, Note_on_c, 0, 65, 91
2, 26880, Note_on_c, 0, 65, 0
2, 26880, Note_on_c, 0, 68, 91
2, 27000, Note_on_c, 0, 68, 0
2, 27000, Note_on_c, 0, 71, 91
2, 27240, Note_on_c, 0, 71, 0
2, 27240, Note_on_c, 0, 69, 91
2, 27279, Note_on_c, 0, 69, 0
2, 27279, Note_on_c, 0, 71, 91
2, 27319, Note_on_c, 0, 71, 0
2, 27319, Note_on_c, 0, 69, 91
2, 27359, Note_on_c, 0, 69, 0
2, 27360, Note_on_c, 0, 66, 91
2, 27540, Note_on_c, 0, 66, 0
2, 27540, Note_on_c, 0, 66, 91
2, 27600, Note_on_c, 0, 66, 0
2, 27600, Note_on_c, 0, 65, 91
2, 27840, Note_on_c, 0, 65, 0
2, 27840, Note_on_c, 0, 66, 91
2, 27960, Note_on_c, 0, 66, 0
2, 27960, Note_on_c, 0, 62, 91
2, 28080, Note_on_c, 0, 62, 0
2, 28080, Note_on_c, 0, 59, 91
2, 28200, Note_on_c, 0, 59, 0
2, 28200, Note_on_c, 0, 61, 91
2, 28320, Note_on_c, 0, 61, 0
2, 28320, Note_on_c, 0, 62, 91
2, 28560, Note_on_c, 0, 62, 0
2, 28560, Note_on_c, 0, 61, 91
2, 28740, Note_on_c, 0, 61, 0
2, 28740, Note_on_c, 0, 65, 91
2, 28800, Note_on_c, 0, 65, 0
2, 28800, Note_on_c, 0, 59, 91
2, 28800, Note_on_c, 0, 61, 91
2, 28800, Note_on_c, 0, 65, 91
2, 28800, Note_on_c, 0, 68, 91
2, 29040, Note_on_c, 0, 68, 0
2, 29040, Note_on_c, 0, 59, 0
2, 29040, Note_on_c, 0, 61, 0
2, 29040, Note_on_c, 0, 65, 0
2, 29040, Note_on_c, 0, 57, 91
2, 29040, Note_on_c, 0, 66, 91
2, 29520, Note_on_c, 0, 66, 0
2, 29520, Note_on_c, 0, 57, 0
2, 29520, End_track
3, 0, Start_track
3, 0, Title_t, "Op-12 No-05"
3, 0, Program_c, 0, 0
3, 0, Control_c, 0, 7, 115
3, 0, Control_c, 0, 10, 51
3, 720, Note_on_c, 0, 42, 79
3, 720, Note_on_c, 0, 49, 79
3, 960, Note_on_c, 0, 49, 0
3, 960, Note_on_c, 0, 42, 0
3, 960, Note_on_c, 0, 53, 79
3, 960, Note_on_c, 0, 59, 79
3, 960, Note_on_c, 0, 62, 79
3, 1200, Note_on_c, 0, 62, 0
3, 1200, Note_on_c, 0, 59, 0
3, 1200, Note_on_c, 0, 53, 0
3, 1200, Note_on_c, 0, 53, 79
3, 1200, Note_on_c, 0, 59, 79
3, 1200, Note_on_c, 0, 62, 79
3, 1440, Note_on_c, 0, 62, 0
3, 1440, Note_on_c, 0, 59, 0
3, 1440, Note_on_c, 0, 53, 0
3, 1440, Note_on_c, 0, 42, 79
3, 1440, Note_on_c, 0, 49, 79
3, 1680, Note_on_c, 0, 49, 0
3, 1680, Note_on_c, 0, 42, 0
3, 1680, Note_on_c, 0, 56, 79
3, 1680, Note_on_c, 0, 59, 79
3, 1680, Note_on_c, 0, 62, 79
3, 1920, Note_on_c, 0, 62, 0
3, 1920, Note_on_c, 0, 59, 0
3, 1920, Note_on_c, 0, 56, 0
3, 1920, Note_on_c, 0, 59, 79
3, 1920, Note_on_c, 0, 62, 79
3, 1920, Note_on_c, 0, 54, 79
3, 2040, Note_on_c, 0, 54, 0
3, 2040, Note_on_c, 0, 53, 79
3, 2160, Note_on_c, 0, 53, 0
3, 2160, Note_on_c, 0, 62, 0
3, 2160, Note_on_c, 0, 59, 0
3, 2160, Note_on_c, 0, 42, 79
3, 2160, Note_on_c, 0, 49, 79
3, 2400, Note_on_c, 0, 49, 0
3, 2400, Note_on_c, 0, 42, 0
3, 2400, Note_on_c, 0, 56, 79
3, 2400, Note_on_c, 0, 62, 79
3, 2400, Note_on_c, 0, 66, 79
3, 2640, Note_on_c, 0, 66, 0
3, 2640, Note_on_c, 0, 62, 0
3, 2640, Note_on_c, 0, 56, 0
3, 2640, Note_on_c, 0, 56, 79
3, 2640, Note_on_c, 0, 62, 79
3, 2640, Note_on_c, 0, 66, 79
3, 2880, Note_on_c, 0, 66, 0
3, 2880, Note_on_c, 0, 62, 0
3, 2880, Note_on_c, 0, 56, 0
3, 2880, Note_on_c, 0, 42, 79
3, 2880, Note_on_c, 0, 49, 79
3, 3120, Note_on_c, 0, 49, 0
3, 3120, Note_on_c, 0, 42, 0
3, 3120, Note_on_c, 0, 57, 79
3, 3120, Note_on_c, 0, 61, 79
3, 3120, Note_on_c, 0, 66, 79
3, 3360, Note_on_c, 0, 66, 0
3, 3360, Note_on_c, 0, 61, 0
3, 3360, Note_on_c, 0, 57, 0
3, 3600, Note_on_c, 0, 42, 79
3, 3600, Note_on_c, 0, 49, 79
3, 3840, Note_on_c, 0, 49, 0
3, 3840, Note_on_c, 0, 42, 0
3, 3840, Note_on_c, 0, 53, 79
3, 3840, Note_on_c, 0, 59, 79
3, 3840, Note_on_c, 0, 62, 79
3, 4080, Note_on_c, 0, 62, 0
3, 4080, Note_on_c, 0, 59, 0
3, 4080, Note_on_c, 0, 53, 0
3, 4080, Note_on_c, 0, 53, 79
3, 4080, Note_on_c, 0, 59, 79
3, 4080, Note_on_c, 0, 62, 79
3, 4320, Note_on_c, 0, 62, 0
3, 4320, Note_on_c, 0, 59, 0
3, 4320, Note_on_c, 0, 53, 0
3, 4320, Note_on_c, 0, 59, 79
3, 4320, Note_on_c, 0, 62, 79
3, 4320, Note_on_c, 0, 54, 79
3, 4560, Note_on_c, 0, 54, 0
3, 4560, Note_on_c, 0, 56, 79
3, 4800, Note_on_c, 0, 56, 0
3, 4800, Note_on_c, 0, 54, 79
3, 5040, Note_on_c, 0, 54, 0
3, 5040, Note_on_c, 0, 62, 0
3, 5040, Note_on_c, 0, 59, 0
3, 5040, Note_on_c, 0, 52, 79
3, 5040, Note_on_c, 0, 56, 79
3, 5280, Note_on_c, 0, 56, 0
3, 5280, Note_on_c, 0, 52, 0
3, 5280, Note_on_c, 0, 47, 79
3, 5280, Note_on_c, 0, 55, 79
3, 5400, Note_on_c, 0, 55, 0
3, 5400, Note_on_c, 0, 54, 79
3, 5520, Note_on_c, 0, 54, 0
3, 5520, Note_on_c, 0, 47, 0
3, 5520, Note_on_c, 0, 49, 79
3, 5520, Note_on_c, 0, 53, 79
3, 5700, Note_on_c, 0, 53, 0
3, 5700, Note_on_c, 0, 56, 79
3, 5760, Note_on_c, 0, 56, 0
3, 5760, Note_on_c, 0, 49, 0
3, 5760, Note_on_c, 0, 42, 79
3, 5760, Note_on_c, 0, 49, 79
3, 6480, Note_on_c, 0, 49, 0
3, 6480, Note_on_c, 0, 42, 0
3, 6480, Note_on_c, 0, 57, 79
3, 6480, Note_on_c, 0, 61, 79
3, 6720, Note_on_c, 0, 61, 0
3, 6720, Note_on_c, 0, 57, 0
3, 6720, Note_on_c, 0, 56, 79
3, 6720, Note_on_c, 0, 59, 79
3, 6960, Note_on_c, 0, 59, 0
3, 6960, Note_on_c, 0, 56, 0
3, 6960, Note_on_c, 0, 57, 79
3, 6960, Note_on_c, 0, 61, 79
3, 7200, Note_on_c, 0, 61, 0
3, 7200, Note_on_c, 0, 57, 0
3, 7200, Note_on_c, 0, 54, 79
3, 7200, Note_on_c, 0, 57, 79
3, 7440, Note_on_c, 0, 57, 0
3, 7440, Note_on_c, 0, 54, 0
3, 7440, Note_on_c, 0, 52, 79
3, 7440, Note_on_c, 0, 55, 79
3, 7680, Note_on_c, 0, 55, 0
3, 7680, Note_on_c, 0, 52, 0
3, 7680, Note_on_c, 0, 54, 79
3, 7680, Note_on_c, 0, 57, 79
3, 7920, Note_on_c, 0, 57, 0
3, 7920, Note_on_c, 0, 54, 0
3, 7920, Note_on_c, 0, 49, 79
3, 7920, Note_on_c, 0, 52, 79
3, 8160, Note_on_c, 0, 52, 0
3, 8160, Note_on_c, 0, 49, 0
3, 8160, Note_on_c, 0, 47, 79
3, 8160, Note_on_c, 0, 50, 79
3, 8400, Note_on_c, 0, 50, 0
3, 8400, Note_on_c, 0, 47, 0
3, 8400, Note_on_c, 0, 49, 79
3, 8400, Note_on_c, 0, 52, 79
3, 8640, Note_on_c, 0, 52, 0
3, 8640, Note_on_c, 0, 49, 0
3, 8640, Note_on_c, 0, 40, 79
3, 8640, Note_on_c, 0, 47, 79
3, 8640, Note_on_c, 0, 52, 79
3, 8880, Note_on_c, 0, 52, 0
3, 8880, Note_on_c, 0, 47, 0
3, 8880, Note_on_c, 0, 40, 0
3, 8880, Note_on_c, 0, 45, 79
3, 8880, Note_on_c, 0, 52, 79
3, 9360, Note_on_c, 0, 52, 0
3, 9360, Note_on_c, 0, 45, 0
3, 9360, Note_on_c, 0, 54, 79
3, 9360, Note_on_c, 0, 57, 79
3, 9840, Note_on_c, 0, 57, 0
3, 9840, Note_on_c, 0, 59, 79
3, 10080, Note_on_c, 0, 59, 0
3, 10080, Note_on_c, 0, 54, 0
3, 10080, Note_on_c, 0, 52, 79
3, 10080, Note_on_c, 0, 55, 79
3, 10560, Note_on_c, 0, 55, 0
3, 10560, Note_on_c, 0, 58, 79
3, 10800, Note_on_c, 0, 58, 0
3, 10800, Note_on_c, 0, 52, 0
3, 10800, Note_on_c, 0, 50, 79
3, 10800, Note_on_c, 0, 54, 79
3, 11280, Note_on_c, 0, 54, 0
3, 11280, Note_on_c, 0, 56, 79
3, 11520, Note_on_c, 0, 56, 0
3, 11520, Note_on_c, 0, 50, 0
3, 11520, Note_on_c, 0, 49, 79
3, 11520, Note_on_c, 0, 57, 79
3, 11760, Note_on_c, 0, 57, 0
3, 11760, Note_on_c, 0, 49, 0
3, 11760, Note_on_c, 0, 49, 79
3, 11760, Note_on_c, 0, 56, 79
3, 11880, Note_on_c, 0, 56, 0
3, 11880, Note_on_c, 0, 49, 0
3, 12240, Note_on_c, 0, 42, 79
3, 12240, Note_on_c, 0, 49, 79
3, 12480, Note_on_c, 0, 49, 0
3, 12480, Note_on_c, 0, 42, 0
3, 12480, Note_on_c, 0, 53, 79
3, 12480, Note_on_c, 0, 59, 79
3, 12480, Note_on_c, 0, 62, 79
3, 12720, Note_on_c, 0, 62, 0
3, 12720, Note_on_c, 0, 59, 0
3, 12720, Note_on_c, 0, 53, 0
3, 12720, Note_on_c, 0, 53, 79
3, 12720, Note_on_c, 0, 59, 79
3, 12720, Note_on_c, 0, 62, 79
3, 12960, Note_on_c, 0, 62, 0
3, 12960, Note_on_c, 0, 59, 0
3, 12960, Note_on_c, 0, 53, 0
3, 12960, Note_on_c, 0, 42, 79
3, 12960, Note_on_c, 0, 49, 79
3, 13200, Note_on_c, 0, 49, 0
3, 13200, Note_on_c, 0, 42, 0
3, 13200, Note_on_c, 0, 56, 79
3, 13200, Note_on_c, 0, 59, 79
3, 13200, Note_on_c, 0, 62, 79
3, 13440, Note_on_c, 0, 62, 0
3, 13440, Note_on_c, 0, 59, 0
3, 13440, Note_on_c, 0, 56, 0
3, 13440, Note_on_c, 0, 59, 79
3, 13440, Note_on_c, 0, 62, 79
3, 13440, Note_on_c, 0, 54, 79
3, 13560, Note_on_c, 0, 54, 0
3, 13560, Note_on_c, 0, 53, 79
3, 13680, Note_on_c, 0, 53, 0
3, 13680, Note_on_c, 0, 62, 0
3, 13680, Note_on_c, 0, 59, 0
3, 13680, Note_on_c, 0, 42, 79
3, 13680, Note_on_c, 0, 49, 79
3, 13920, Note_on_c, 0, 49, 0
3, 13920, Note_on_c, 0, 42, 0
3, 13920, Note_on_c, 0, 56, 79
3, 13920, Note_on_c, 0, 62, 79
3, 13920, Note_on_c, 0, 66, 79
3, 14160, Note_on_c, 0, 66, 0
3, 14160, Note_on_c, 0, 62, 0
3, 14160, Note_on_c, 0, 56, 0
3, 14160, Note_on_c, 0, 56, 79
3, 14160, Note_on_c, 0, 62, 79
3, 14160, Note_on_c, 0, 66, 79
3, 14400, Note_on_c, 0, 66, 0
3, 14400, Note_on_c, 0, 62, 0
3, 14400, Note_on_c, 0, 56, 0
3, 14400, Note_on_c, 0, 42, 79
3, 14400, Note_on_c, 0, 49, 79
3, 14640, Note_on_c, 0, 49, 0
3, 14640, Note_on_c, 0, 42, 0
3, 14640, Note_on_c, 0, 57, 79
3, 14640, Note_on_c, 0, 61, 79
3, 14640, Note_on_c, 0, 66, 79
3, 14880, Note_on_c, 0, 66, 0
3, 14880, Note_on_c, 0, 61, 0
3, 14880, Note_on_c, 0, 57, 0
3, 15120, Note_on_c, 0, 42, 79
3, 15120, Note_on_c, 0, 49, 79
3, 15360, Note_on_c, 0, 49, 0
3, 15360, Note_on_c, 0, 42, 0
3, 15360, Note_on_c, 0, 53, 79
3, 15360, Note_on_c, 0, 59, 79
3, 15360, Note_on_c, 0, 62, 79
3, 15600, Note_on_c, 0, 62, 0
3, 15600, Note_on_c, 0, 59, 0
3, 15600, Note_on_c, 0, 53, 0
3, 15600, Note_on_c, 0, 53, 79
3, 15600, Note_on_c, 0, 59, 79
3, 15600, Note_on_c, 0, 62, 79
3, 15840, Note_on_c, 0, 62, 0
3, 15840, Note_on_c, 0, 59, 0
3, 15840, Note_on_c, 0, 53, 0
3, 15840, Note_on_c, 0, 59, 79
3, 15840, Note_on_c, 0, 62, 79
3, 15840, Note_on_c, 0, 54, 79
3, 16080, Note_on_c, 0, 54, 0
3, 16080, Note_on_c, 0, 56, 79
3, 16320, Note_on_c, 0, 56, 0
3, 16320, Note_on_c, 0, 54, 79
3, 16560, Note_on_c, 0, 54, 0
3, 16560, Note_on_c, 0, 62, 0
3, 16560, Note_on_c, 0, 59, 0
3, 16560, Note_on_c, 0, 52, 79
3, 16560, Note_on_c, 0, 56, 79
3, 16800, Note_on_c, 0, 56, 0
3, 16800, Note_on_c, 0, 52, 0
3, 16800, Note_on_c, 0, 47, 79
3, 16800, Note_on_c, 0, 55, 79
3, 16920, Note_on_c, 0, 55, 0
3, 16920, Note_on_c, 0, 54, 79
3, 17040, Note_on_c, 0, 54, 0
3, 17040, Note_on_c, 0, 47, 0
3, 17040, Note_on_c, 0, 49, 79
3, 17040, Note_on_c, 0, 53, 79
3, 17220, Note_on_c, 0, 53, 0
3, 17220, Note_on_c, 0, 56, 79
3, 17280, Note_on_c, 0, 56, 0
3, 17280, Note_on_c, 0, 49, 0
3, 17280, Note_on_c, 0, 42, 79
3, 17280, Note_on_c, 0, 49, 79
3, 18000, Note_on_c, 0, 49, 0
3, 18000, Note_on_c, 0, 42, 0
3, 18000, Note_on_c, 0, 57, 79
3, 18000, Note_on_c, 0, 61, 79
3, 18240, Note_on_c, 0, 61, 0
3, 18240, Note_on_c, 0, 57, 0
3, 18240, Note_on_c, 0, 56, 79
3, 18240, Note_on_c, 0, 59, 79
3, 18480, Note_on_c, 0, 59, 0
3, 18480, Note_on_c, 0, 56, 0
3, 18480, Note_on_c, 0, 57, 79
3, 18480, Note_on_c, 0, 61, 79
3, 18720, Note_on_c, 0, 61, 0
3, 18720, Note_on_c, 0, 57, 0
3, 18720, Note_on_c, 0, 54, 79
3, 18720, Note_on_c, 0, 57, 79
3, 18960, Note_on_c, 0, 57, 0
3, 18960, Note_on_c, 0, 54, 0
3, 18960, Note_on_c, 0, 52, 79
3, 18960, Note_on_c, 0, 55, 79
3, 19200, Note_on_c, 0, 55, 0
3, 19200, Note_on_c, 0, 52, 0
3, 19200, Note_on_c, 0, 54, 79
3, 19200, Note_on_c, 0, 57, 79
3, 19440, Note_on_c, 0, 57, 0
3, 19440, Note_on_c, 0, 54, 0
3, 19440, Note_on_c, 0, 49, 79
3, 19440, Note_on_c, 0, 52, 79
3, 19680, Note_on_c, 0, 52, 0
3, 19680, Note_on_c, 0, 49, 0
3, 19680, Note_on_c, 0, 47, 79
3, 19680, Note_on_c, 0, 50, 79
3, 19920, Note_on_c, 0, 50, 0
3, 19920, Note_on_c, 0, 47, 0
3, 19920, Note_on_c, 0, 49, 79
3, 19920, Note_on_c, 0, 52, 79
3, 20160, Note_on_c, 0, 52, 0
3, 20160, Note_on_c, 0, 49, 0
3, 20160, Note_on_c, 0, 40, 79
3, 20160, Note_on_c, 0, 47, 79
3, 20160, Note_on_c, 0, 52, 79
3, 20400, Note_on_c, 0, 52, 0
3, 20400, Note_on_c, 0, 47, 0
3, 20400, Note_on_c, 0, 40, 0
3, 20400, Note_on_c, 0, 45, 79
3, 20400, Note_on_c, 0, 52, 79
3, 20880, Note_on_c, 0, 52, 0
3, 20880, Note_on_c, 0, 45, 0
3, 20880, Note_on_c, 0, 54, 79
3, 20880, Note_on_c, 0, 57, 79
3, 21360, Note_on_c, 0, 57, 0
3, 21360, Note_on_c, 0, 59, 79
3, 21600, Note_on_c, 0, 59, 0
3, 21600, Note_on_c, 0, 54, 0
3, 21600, Note_on_c, 0, 52, 79
3, 21600, Note_on_c, 0, 55, 79
3, 22080, Note_on_c, 0, 55, 0
3, 22080, Note_on_c, 0, 58, 79
3, 22320, Note_on_c, 0, 58, 0
3, 22320, Note_on_c, 0, 52, 0
3, 22320, Note_on_c, 0, 50, 79
3, 22320, Note_on_c, 0, 54, 79
3, 22800, Note_on_c, 0, 54, 0
3, 22800, Note_on_c, 0, 56, 79
3, 23040, Note_on_c, 0, 56, 0
3, 23040, Note_on_c, 0, 50, 0
3, 23040, Note_on_c, 0, 49, 79
3, 23040, Note_on_c, 0, 57, 79
3, 23280, Note_on_c, 0, 57, 0
3, 23280, Note_on_c, 0, 49, 0
3, 23280, Note_on_c, 0, 49, 79
3, 23280, Note_on_c, 0, 56, 79
3, 23400, Note_on_c, 0, 56, 0
3, 23400, Note_on_c, 0, 49, 0
3, 23760, Note_on_c, 0, 42, 79
3, 23760, Note_on_c, 0, 49, 79
3, 24000, Note_on_c, 0, 49, 0
3, 24000, Note_on_c, 0, 42, 0
3, 24000, Note_on_c, 0, 53, 79
3, 24000, Note_on_c, 0, 59, 79
3, 24000, Note_on_c, 0, 62, 79
3, 24240, Note_on_c, 0, 62, 0
3, 24240, Note_on_c, 0, 59, 0
3, 24240, Note_on_c, 0, 53, 0
3, 24240, Note_on_c, 0, 53, 79
3, 24240, Note_on_c, 0, 59, 79
3, 24240, Note_on_c, 0, 62, 79
3, 24480, Note_on_c, 0, 62, 0
3, 24480, Note_on_c, 0, 59, 0
3, 24480, Note_on_c, 0, 53, 0
3, 24480, Note_on_c, 0, 42, 79
3, 24480, Note_on_c, 0, 49, 79
3, 24720, Note_on_c, 0, 49, 0
3, 24720, Note_on_c, 0, 42, 0
3, 24720, Note_on_c, 0, 56, 79
3, 24720, Note_on_c, 0, 59, 79
3, 24720, Note_on_c, 0, 62, 79
3, 24960, Note_on_c, 0, 62, 0
3, 24960, Note_on_c, 0, 59, 0
3, 24960, Note_on_c, 0, 56, 0
3, 24960, Note_on_c, 0, 59, 79
3, 24960, Note_on_c, 0, 62, 79
3, 24960, Note_on_c, 0, 54, 79
3, 25080, Note_on_c, 0, 54, 0
3, 25080, Note_on_c, 0, 53, 79
3, 25200, Note_on_c, 0, 53, 0
3, 25200, Note_on_c, 0, 62, 0
3, 25200, Note_on_c, 0, 59, 0
3, 25200, Note_on_c, 0, 42, 79
3, 25200, Note_on_c, 0, 49, 79
3, 25440, Note_on_c, 0, 49, 0
3, 25440, Note_on_c, 0, 42, 0
3, 25440, Note_on_c, 0, 56, 79
3, 25440, Note_on_c, 0, 62, 79
3, 25440, Note_on_c, 0, 66, 79
3, 25680, Note_on_c, 0, 66, 0
3, 25680, Note_on_c, 0, 62, 0
3, 25680, Note_on_c, 0, 56, 0
3, 25680, Note_on_c, 0, 56, 79
3, 25680, Note_on_c, 0, 62, 79
3, 25680, Note_on_c, 0, 66, 79
3, 25920, Note_on_c, 0, 66, 0
3, 25920, Note_on_c, 0, 62, 0
3, 25920, Note_on_c, 0, 56, 0
3, 25920, Note_on_c, 0, 42, 79
3, 25920, Note_on_c, 0, 49, 79
3, 26160, Note_on_c, 0, 49, 0
3, 26160, Note_on_c, 0, 42, 0
3, 26160, Note_on_c, 0, 57, 79
3, 26160, Note_on_c, 0, 61, 79
3, 26160, Note_on_c, 0, 66, 79
3, 26400, Note_on_c, 0, 66, 0
3, 26400, Note_on_c, 0, 61, 0
3, 26400, Note_on_c, 0, 57, 0
3, 26640, Note_on_c, 0, 42, 79
3, 26640, Note_on_c, 0, 49, 79
3, 26880, Note_on_c, 0, 49, 0
3, 26880, Note_on_c, 0, 42, 0
3, 26880, Note_on_c, 0, 53, 79
3, 26880, Note_on_c, 0, 59, 79
3, 26880, Note_on_c, 0, 62, 79
3, 27120, Note_on_c, 0, 62, 0
3, 27120, Note_on_c, 0, 59, 0
3, 27120, Note_on_c, 0, 53, 0
3, 27120, Note_on_c, 0, 53, 79
3, 27120, Note_on_c, 0, 59, 79
3, 27120, Note_on_c, 0, 62, 79
3, 27360, Note_on_c, 0, 62, 0
3, 27360, Note_on_c, 0, 59, 0
3, 27360, Note_on_c, 0, 53, 0
3, 27360, Note_on_c, 0, 59, 79
3, 27360, Note_on_c, 0, 62, 79
3, 27360, Note_on_c, 0, 54, 79
3, 27600, Note_on_c, 0, 54, 0
3, 27600, Note_on_c, 0, 56, 79
3, 27840, Note_on_c, 0, 56, 0
3, 27840, Note_on_c, 0, 54, 79
3, 28080, Note_on_c, 0, 54, 0
3, 28080, Note_on_c, 0, 62, 0
3, 28080, Note_on_c, 0, 59, 0
3, 28080, Note_on_c, 0, 52, 79
3, 28080, Note_on_c, 0, 56, 79
3, 28320, Note_on_c, 0, 56, 0
3, 28320, Note_on_c, 0, 52, 0
3, 28320, Note_on_c, 0, 47, 79
3, 28320, Note_on_c, 0, 55, 79
3, 28440, Note_on_c, 0, 55, 0
3, 28440, Note_on_c, 0, 54, 79
3, 28560, Note_on_c, 0, 54, 0
3, 28560, Note_on_c, 0, 47, 0
3, 28560, Note_on_c, 0, 49, 79
3, 28560, Note_on_c, 0, 53, 79
3, 28740, Note_on_c, 0, 53, 0
3, 28740, Note_on_c, 0, 56, 79
3, 28800, Note_on_c, 0, 56, 0
3, 28800, Note_on_c, 0, 49, 0
3, 28800, Note_on_c, 0, 42, 79
3, 28800, Note_on_c, 0, 49, 79
3, 29520, Note_on_c, 0, 49, 0
3, 29520, Note_on_c, 0, 42, 0
3, 29520, End_track
0, 0, End_of_file
