0, 0, Header, 0, 1, 384
1, 0, Start_track
1, 0, Tempo, 512820
1, 0, Title_t, ""
1, 0, Note_on_c, 0, 31, 95
1, 0, Note_on_c, 0, 43, 83
1, 3, Note_on_c, 0, 55, 70
1, 156, Note_off_c, 0, 55, 64
1, 159, Note_on_c, 0, 59, 54
1, 236, Note_on_c, 0, 55, 43
1, 280, Note_off_c, 0, 59, 64
1, 343, Note_on_c, 0, 50, 52
1, 347, Note_off_c, 0, 55, 64
1, 414, Note_off_c, 0, 50, 64
1, 434, Note_on_c, 0, 55, 52
1, 531, Note_off_c, 0, 55, 64
1, 531, Note_on_c, 0, 59, 62
1, 599, Note_on_c, 0, 55, 54
1, 631, Note_off_c, 0, 59, 64
1, 687, Note_on_c, 0, 50, 69
1, 691, Note_off_c, 0, 55, 64
1, 766, Note_on_c, 0, 55, 54
1, 780, Note_off_c, 0, 50, 64
1, 855, Note_off_c, 0, 55, 64
1, 861, Note_on_c, 0, 59, 57
1, 935, Note_on_c, 0, 55, 54
1, 977, Note_off_c, 0, 59, 64
1, 1027, Note_on_c, 0, 50, 75
1, 1033, Note_off_c, 0, 55, 64
1, 1113, Note_off_c, 0, 50, 64
1, 1145, Note_on_c, 0, 55, 77
1, 1194, Control_c, 0, 64, 0
1, 1241, Note_off_c, 0, 55, 64
1, 1244, Note_on_c, 0, 60, 67
1, 1301, Control_c, 0, 64, 127
1, 1308, Note_on_c, 0, 55, 56
1, 1345, Note_off_c, 0, 60, 64
1, 1404, Note_on_c, 0, 52, 67
1, 1442, Note_off_c, 0, 55, 64
1, 1481, Control_c, 0, 64, 0
1, 1487, Note_on_c, 0, 57, 64
1, 1509, Note_off_c, 0, 52, 64
1, 1560, Note_on_c, 0, 62, 69
1, 1584, Note_off_c, 0, 57, 64
1, 1592, Control_c, 0, 64, 127
1, 1641, Note_on_c, 0, 57, 46
1, 1665, Note_off_c, 0, 62, 64
1, 1718, Note_off_c, 0, 57, 64
1, 1718, Note_on_c, 0, 54, 76
1, 1783, Note_off_c, 0, 54, 64
1, 1830, Note_on_c, 0, 59, 68
1, 1875, Control_c, 0, 64, 0
1, 1918, Note_on_c, 0, 64, 67
1, 1927, Note_off_c, 0, 59, 64
1, 1989, Note_on_c, 0, 59, 64
1, 2008, Control_c, 0, 64, 127
1, 2041, Note_off_c, 0, 64, 64
1, 2075, Note_on_c, 0, 55, 72
1, 2088, Note_off_c, 0, 59, 64
1, 2150, Note_on_c, 0, 60, 80
1, 2172, Note_off_c, 0, 55, 64
1, 2177, Control_c, 0, 64, 0
1, 2226, Note_on_c, 0, 66, 61
1, 2247, Note_off_c, 0, 60, 64
1, 2300, Note_on_c, 0, 60, 66
1, 2308, Control_c, 0, 64, 127
1, 2361, Note_off_c, 0, 66, 64
1, 2375, Note_on_c, 0, 57, 68
1, 2420, Note_off_c, 0, 60, 64
1, 2473, Note_on_c, 0, 62, 77
1, 2476, Control_c, 0, 64, 0
1, 2492, Note_off_c, 0, 57, 64
1, 2551, Note_on_c, 0, 67, 74
1, 2565, Note_off_c, 0, 62, 64
1, 2632, Control_c, 0, 64, 127
1, 2632, Note_on_c, 0, 62, 62
1, 2683, Note_off_c, 0, 67, 64
1, 2708, Note_on_c, 0, 59, 74
1, 2715, Note_off_c, 0, 62, 64
1, 2786, Control_c, 0, 64, 0
1, 2822, Note_on_c, 0, 64, 91
1, 2854, Note_off_c, 0, 59, 64
1, 2941, Note_on_c, 0, 69, 63
1, 2960, Note_off_c, 0, 64, 64
1, 2978, Control_c, 0, 64, 127
1, 3019, Note_on_c, 0, 64, 69
1, 3070, Note_off_c, 0, 69, 64
1, 3091, Note_on_c, 0, 60, 67
1, 3100, Note_off_c, 0, 64, 64
1, 3180, Note_on_c, 0, 64, 65
1, 3209, Note_off_c, 0, 60, 64
1, 3259, Note_on_c, 0, 69, 63
1, 3264, Note_off_c, 0, 64, 64
1, 3342, Note_on_c, 0, 64, 59
1, 3378, Note_off_c, 0, 69, 64
1, 3421, Note_off_c, 0, 64, 64
1, 3424, Note_on_c, 0, 60, 75
1, 3482, Control_c, 0, 64, 0
1, 3520, Note_on_c, 0, 66, 76
1, 3585, Note_off_c, 0, 60, 64
1, 3638, Note_on_c, 0, 71, 73
1, 3668, Note_off_c, 0, 66, 64
1, 3687, Control_c, 0, 64, 127
1, 3721, Note_on_c, 0, 66, 65
1, 3746, Note_off_c, 0, 71, 64
1, 3782, Note_on_c, 0, 62, 67
1, 3808, Note_off_c, 0, 66, 64
1, 3863, Note_on_c, 0, 66, 52
1, 3891, Note_off_c, 0, 62, 64
1, 3963, Note_on_c, 0, 71, 72
1, 3972, Note_off_c, 0, 66, 64
1, 4033, Note_on_c, 0, 66, 53
1, 4063, Note_off_c, 0, 71, 64
1, 4112, Note_on_c, 0, 62, 74
1, 4122, Note_off_c, 0, 66, 64
1, 4150, Note_off_c, 0, 62, 64
1, 4201, Control_c, 0, 64, 0
1, 4201, Note_on_c, 0, 62, 83
1, 4320, Note_on_c, 0, 67, 62
1, 4325, Note_off_c, 0, 62, 64
1, 4382, Note_on_c, 0, 62, 59
1, 4393, Control_c, 0, 64, 127
1, 4468, Note_off_c, 0, 62, 64
1, 4468, Note_on_c, 0, 59, 63
1, 4487, Note_off_c, 0, 67, 64
1, 4531, Note_off_c, 0, 59, 64
1, 4541, Note_on_c, 0, 62, 49
1, 4618, Note_on_c, 0, 67, 54
1, 4637, Note_off_c, 0, 62, 64
1, 4693, Note_on_c, 0, 62, 74
1, 4735, Note_off_c, 0, 67, 64
1, 4760, Note_off_c, 0, 31, 64
1, 4768, Note_off_c, 0, 62, 64
1, 4774, Note_on_c, 0, 59, 56
1, 4774, Note_off_c, 0, 43, 64
1, 4838, Note_on_c, 0, 62, 64
1, 4838, Note_off_c, 0, 59, 64
1, 4922, Note_on_c, 0, 67, 66
1, 4922, Note_off_c, 0, 62, 64
1, 4992, Note_on_c, 0, 62, 55
1, 5027, Note_off_c, 0, 67, 64
1, 5075, Note_on_c, 0, 59, 50
1, 5103, Note_off_c, 0, 62, 64
1, 5145, Note_on_c, 0, 55, 89
1, 5145, Note_on_c, 0, 43, 81
1, 5148, Note_on_c, 0, 64, 75
1, 5156, Note_off_c, 0, 59, 64
1, 5184, Control_c, 0, 64, 0
1, 5245, Note_on_c, 0, 69, 54
1, 5259, Note_off_c, 0, 64, 64
1, 5337, Note_on_c, 0, 64, 43
1, 5340, Control_c, 0, 64, 127
1, 5368, Note_off_c, 0, 69, 64
1, 5404, Note_off_c, 0, 55, 64
1, 5413, Note_on_c, 0, 61, 69
1, 5434, Note_off_c, 0, 43, 64
1, 5437, Note_off_c, 0, 64, 64
1, 5499, Note_off_c, 0, 61, 64
1, 5516, Note_on_c, 0, 66, 67
1, 5524, Note_on_c, 0, 54, 91
1, 5529, Note_on_c, 0, 42, 78
1, 5610, Note_on_c, 0, 69, 59
1, 5623, Note_off_c, 0, 66, 64
1, 5680, Note_on_c, 0, 66, 53
1, 5711, Note_off_c, 0, 69, 64
1, 5758, Control_c, 0, 64, 0
1, 5769, Note_on_c, 0, 62, 63
1, 5791, Note_off_c, 0, 66, 64
1, 5855, Note_on_c, 0, 66, 54
1, 5889, Note_off_c, 0, 62, 64
1, 5944, Note_on_c, 0, 69, 65
1, 5955, Note_off_c, 0, 66, 64
1, 5988, Control_c, 0, 64, 127
1, 6016, Note_on_c, 0, 66, 59
1, 6044, Note_off_c, 0, 69, 64
1, 6075, Note_off_c, 0, 54, 64
1, 6095, Note_on_c, 0, 62, 61
1, 6098, Note_off_c, 0, 66, 64
1, 6161, Note_off_c, 0, 42, 64
1, 6170, Note_off_c, 0, 62, 64
1, 6178, Note_on_c, 0, 52, 90
1, 6178, Note_on_c, 0, 67, 73
1, 6178, Note_on_c, 0, 40, 94
1, 6243, Note_on_c, 0, 73, 62
1, 6268, Note_off_c, 0, 67, 64
1, 6323, Note_on_c, 0, 67, 62
1, 6376, Note_off_c, 0, 73, 64
1, 6407, Note_on_c, 0, 64, 72
1, 6417, Note_off_c, 0, 67, 64
1, 6443, Control_c, 0, 64, 0
1, 6499, Note_on_c, 0, 67, 65
1, 6535, Note_off_c, 0, 64, 64
1, 6580, Note_on_c, 0, 73, 68
1, 6591, Note_off_c, 0, 67, 64
1, 6646, Control_c, 0, 64, 127
1, 6657, Note_on_c, 0, 67, 53
1, 6679, Note_off_c, 0, 40, 64
1, 6688, Note_off_c, 0, 52, 64
1, 6724, Note_off_c, 0, 73, 64
1, 6744, Note_on_c, 0, 64, 74
1, 6769, Note_off_c, 0, 67, 64
1, 6822, Note_on_c, 0, 54, 93
1, 6826, Note_on_c, 0, 69, 63
1, 6826, Note_on_c, 0, 42, 78
1, 6871, Note_off_c, 0, 64, 64
1, 6874, Control_c, 0, 64, 0
1, 6913, Note_on_c, 0, 74, 76
1, 6931, Note_off_c, 0, 69, 64
1, 6995, Note_on_c, 0, 69, 39
1, 7036, Note_off_c, 0, 74, 64
1, 7064, Note_on_c, 0, 62, 60
1, 7083, Note_off_c, 0, 69, 64
1, 7150, Control_c, 0, 64, 127
1, 7159, Note_on_c, 0, 69, 52
1, 7190, Note_off_c, 0, 62, 64
1, 7251, Note_on_c, 0, 74, 79
1, 7261, Note_off_c, 0, 69, 64
1, 7325, Note_on_c, 0, 69, 43
1, 7357, Note_off_c, 0, 74, 64
1, 7412, Note_on_c, 0, 62, 63
1, 7424, Note_off_c, 0, 69, 64
1, 7501, Note_on_c, 0, 69, 55
1, 7524, Note_off_c, 0, 62, 64
1, 7560, Note_off_c, 0, 42, 64
1, 7590, Note_on_c, 0, 74, 76
1, 7605, Note_off_c, 0, 54, 64
1, 7605, Note_off_c, 0, 69, 64
1, 7671, Note_on_c, 0, 69, 40
1, 7708, Note_off_c, 0, 74, 64
1, 7764, Note_on_c, 0, 62, 70
1, 7810, Note_off_c, 0, 69, 64
1, 7872, Note_on_c, 0, 67, 84
1, 7878, Note_on_c, 0, 59, 83
1, 7881, Note_on_c, 0, 47, 74
1, 7881, Note_off_c, 0, 62, 64
1, 7963, Note_on_c, 0, 74, 73
1, 7963, Note_off_c, 0, 67, 64
1, 7963, Control_c, 0, 64, 0
1, 8059, Note_on_c, 0, 67, 59
1, 8092, Note_off_c, 0, 74, 64
1, 8120, Control_c, 0, 64, 127
1, 8129, Note_on_c, 0, 62, 66
1, 8153, Note_off_c, 0, 59, 64
1, 8153, Note_off_c, 0, 47, 64
1, 8162, Note_off_c, 0, 67, 64
1, 8207, Note_on_c, 0, 57, 80
1, 8207, Note_on_c, 0, 45, 79
1, 8211, Note_on_c, 0, 69, 68
1, 8229, Note_off_c, 0, 62, 64
1, 8264, Control_c, 0, 64, 0
1, 8293, Note_on_c, 0, 74, 81
1, 8314, Note_off_c, 0, 69, 64
1, 8378, Note_on_c, 0, 69, 49
1, 8427, Note_off_c, 0, 74, 64
1, 8455, Control_c, 0, 64, 127
1, 8455, Note_on_c, 0, 64, 67
1, 8487, Note_off_c, 0, 69, 64
1, 8502, Note_off_c, 0, 57, 64
1, 8541, Note_on_c, 0, 69, 59
1, 8572, Note_off_c, 0, 64, 64
1, 8593, Note_off_c, 0, 45, 64
1, 8640, Note_on_c, 0, 74, 74
1, 8652, Note_off_c, 0, 69, 64
1, 8711, Note_on_c, 0, 69, 45
1, 8733, Note_off_c, 0, 74, 64
1, 8794, Note_on_c, 0, 64, 63
1, 8811, Note_off_c, 0, 69, 64
1, 8866, Note_on_c, 0, 45, 85
1, 8869, Note_on_c, 0, 69, 52
1, 8869, Note_on_c, 0, 33, 81
1, 8944, Note_off_c, 0, 64, 64
1, 8961, Note_on_c, 0, 73, 59
1, 8980, Note_off_c, 0, 69, 64
1, 9037, Note_on_c, 0, 69, 45
1, 9083, Note_off_c, 0, 73, 64
1, 9114, Note_on_c, 0, 64, 69
1, 9137, Note_off_c, 0, 69, 64
1, 9151, Control_c, 0, 64, 0
1, 9201, Note_on_c, 0, 69, 45
1, 9253, Note_off_c, 0, 64, 64
1, 9304, Note_on_c, 0, 73, 66
1, 9326, Note_off_c, 0, 69, 64
1, 9331, Control_c, 0, 64, 127
1, 9377, Note_on_c, 0, 69, 48
1, 9384, Note_off_c, 0, 33, 64
1, 9413, Note_off_c, 0, 45, 64
1, 9421, Note_off_c, 0, 73, 64
1, 9463, Note_on_c, 0, 64, 61
1, 9493, Note_off_c, 0, 69, 64
1, 9540, Note_off_c, 0, 64, 64
1, 9563, Note_on_c, 0, 69, 36
1, 9563, Note_on_c, 0, 38, 72
1, 9568, Note_on_c, 0, 50, 62
1, 9619, Control_c, 0, 64, 0
1, 9654, Note_on_c, 0, 74, 66
1, 9661, Note_off_c, 0, 69, 64
1, 9728, Note_on_c, 0, 69, 30
1, 9791, Note_off_c, 0, 74, 64
1, 9805, Note_on_c, 0, 66, 39
1, 9845, Note_off_c, 0, 69, 64
1, 9894, Note_on_c, 0, 69, 61
1, 9920, Note_off_c, 0, 66, 64
1, 9930, Control_c, 0, 64, 127
1, 9992, Note_off_c, 0, 69, 64
1, 9992, Note_on_c, 0, 74, 63
1, 10056, Note_on_c, 0, 69, 40
1, 10092, Note_off_c, 0, 74, 64
1, 10136, Note_on_c, 0, 66, 43
1, 10156, Note_off_c, 0, 69, 64
1, 10215, Note_on_c, 0, 69, 38
1, 10239, Note_off_c, 0, 66, 64
1, 10313, Note_on_c, 0, 74, 54
1, 10318, Note_off_c, 0, 69, 64
1, 10356, Note_off_c, 0, 38, 64
1, 10373, Note_on_c, 0, 69, 42
1, 10379, Note_off_c, 0, 50, 64
1, 10393, Note_off_c, 0, 74, 64
1, 10471, Note_on_c, 0, 66, 35
1, 10491, Note_off_c, 0, 69, 64
1, 10551, Note_on_c, 0, 69, 41
1, 10572, Note_off_c, 0, 66, 64
1, 10655, Note_off_c, 0, 69, 64
1, 10664, Note_on_c, 0, 74, 49
1, 10714, Note_on_c, 0, 69, 38
1, 10719, Note_off_c, 0, 74, 64
1, 10810, Note_on_c, 0, 66, 35
1, 10836, Note_off_c, 0, 69, 64
1, 10970, Note_on_c, 0, 67, 44
1, 10980, Note_on_c, 0, 83, 94
1, 10997, Note_off_c, 0, 66, 64
1, 11020, Control_c, 0, 64, 0
1, 11064, Note_off_c, 0, 67, 64
1, 11089, Note_on_c, 0, 74, 44
1, 11151, Note_off_c, 0, 74, 64
1, 11156, Note_on_c, 0, 67, 30
1, 11234, Note_off_c, 0, 67, 64
1, 11234, Note_on_c, 0, 66, 36
1, 11237, Control_c, 0, 64, 127
1, 11312, Note_off_c, 0, 66, 64
1, 11312, Note_on_c, 0, 67, 29
1, 11377, Note_off_c, 0, 67, 64
1, 11407, Note_on_c, 0, 74, 47
1, 11435, Note_off_c, 0, 83, 64
1, 11471, Note_off_c, 0, 74, 64
1, 11502, Note_on_c, 0, 67, 26
1, 11557, Note_off_c, 0, 67, 64
1, 11563, Note_on_c, 0, 66, 29
1, 11652, Note_off_c, 0, 66, 64
1, 11661, Note_on_c, 0, 67, 16
1, 11678, Note_on_c, 0, 83, 82
1, 11703, Control_c, 0, 64, 0
1, 11738, Note_off_c, 0, 67, 64
1, 11772, Note_on_c, 0, 74, 39
1, 11848, Note_off_c, 0, 74, 64
1, 11848, Control_c, 0, 64, 127
1, 11851, Note_on_c, 0, 67, 28
1, 11911, Note_off_c, 0, 67, 64
1, 11914, Note_off_c, 0, 83, 64
1, 11923, Note_on_c, 0, 66, 28
1, 11987, Note_off_c, 0, 66, 64
1, 12008, Note_on_c, 0, 67, 27
1, 12079, Note_off_c, 0, 67, 64
1, 12107, Note_on_c, 0, 74, 40
1, 12170, Note_off_c, 0, 74, 64
1, 12210, Note_on_c, 0, 83, 70
1, 12220, Note_on_c, 0, 67, 39
1, 12296, Note_off_c, 0, 67, 64
1, 12309, Note_on_c, 0, 66, 14
1, 12404, Note_off_c, 0, 66, 64
1, 12432, Note_off_c, 0, 83, 64
1, 12454, Note_on_c, 0, 67, 48
1, 12458, Control_c, 0, 64, 0
1, 12463, Note_on_c, 0, 76, 36
1, 12547, Note_off_c, 0, 67, 64
1, 12569, Note_on_c, 0, 74, 34
1, 12591, Control_c, 0, 64, 127
1, 12599, Note_off_c, 0, 76, 64
1, 12644, Note_on_c, 0, 67, 13
1, 12680, Note_off_c, 0, 74, 64
1, 12731, Note_off_c, 0, 67, 64
1, 12731, Note_on_c, 0, 64, 29
1, 12847, Note_on_c, 0, 57, 34
1, 12853, Note_off_c, 0, 64, 64
1, 12853, Note_on_c, 0, 67, 34
1, 12914, Note_off_c, 0, 67, 64
1, 12936, Note_on_c, 0, 74, 42
1, 12995, Note_off_c, 0, 74, 64
1, 13039, Note_on_c, 0, 67, 24
1, 13095, Note_off_c, 0, 67, 64
1, 13101, Note_on_c, 0, 64, 38
1, 13170, Note_off_c, 0, 64, 64
1, 13178, Control_c, 0, 64, 0
1, 13201, Note_off_c, 0, 57, 64
1, 13207, Note_on_c, 0, 50, 41
1, 13207, Note_on_c, 0, 67, 33
1, 13262, Note_off_c, 0, 67, 64
1, 13288, Note_on_c, 0, 73, 35
1, 13310, Control_c, 0, 64, 127
1, 13338, Note_off_c, 0, 50, 64
1, 13396, Note_on_c, 0, 67, 21
1, 13396, Note_off_c, 0, 73, 64
1, 13452, Note_on_c, 0, 64, 38
1, 13455, Note_off_c, 0, 67, 64
1, 13521, Note_off_c, 0, 64, 64
1, 13535, Note_on_c, 0, 67, 24
1, 13600, Note_off_c, 0, 67, 64
1, 13622, Note_on_c, 0, 73, 29
1, 13708, Note_on_c, 0, 76, 34
1, 13727, Note_off_c, 0, 73, 64
1, 13733, Note_on_c, 0, 67, 38
1, 13764, Note_on_c, 0, 78, 53
1, 13781, Note_off_c, 0, 67, 64
1, 13792, Note_off_c, 0, 76, 64
1, 13798, Note_on_c, 0, 64, 43
1, 13852, Note_on_c, 0, 79, 62
1, 13870, Note_off_c, 0, 64, 64
1, 13870, Note_off_c, 0, 78, 64
1, 13894, Note_on_c, 0, 66, 41
1, 13894, Note_on_c, 0, 81, 80
1, 13909, Control_c, 0, 64, 0
1, 13951, Note_off_c, 0, 79, 64
1, 14003, Note_off_c, 0, 66, 64
1, 14017, Note_on_c, 0, 73, 34
1, 14081, Note_on_c, 0, 66, 32
1, 14125, Control_c, 0, 64, 127
1, 14131, Note_off_c, 0, 73, 64
1, 14160, Note_off_c, 0, 66, 64
1, 14176, Note_on_c, 0, 64, 44
1, 14229, Note_off_c, 0, 64, 64
1, 14268, Note_on_c, 0, 66, 32
1, 14315, Note_off_c, 0, 66, 64
1, 14343, Note_on_c, 0, 73, 44
1, 14432, Note_off_c, 0, 73, 64
1, 14432, Note_on_c, 0, 66, 43
1, 14480, Note_off_c, 0, 66, 64
1, 14510, Note_on_c, 0, 64, 49
1, 14515, Note_off_c, 0, 81, 64
1, 14571, Note_off_c, 0, 64, 64
1, 14583, Note_on_c, 0, 81, 65
1, 14600, Note_on_c, 0, 66, 42
1, 14628, Control_c, 0, 64, 0
1, 14663, Note_off_c, 0, 66, 64
1, 14688, Note_on_c, 0, 73, 42
1, 14761, Note_on_c, 0, 66, 36
1, 14783, Note_off_c, 0, 73, 64
1, 14820, Control_c, 0, 64, 127
1, 14834, Note_off_c, 0, 66, 64
1, 14845, Note_on_c, 0, 64, 40
1, 14912, Note_off_c, 0, 64, 64
1, 14933, Note_off_c, 0, 81, 64
1, 14942, Note_on_c, 0, 66, 32
1, 15006, Note_off_c, 0, 66, 64
1, 15032, Note_on_c, 0, 73, 31
1, 15117, Note_on_c, 0, 81, 67
1, 15121, Note_on_c, 0, 66, 36
1, 15184, Note_off_c, 0, 73, 64
1, 15198, Note_off_c, 0, 66, 64
1, 15198, Note_on_c, 0, 64, 40
1, 15299, Control_c, 0, 64, 0
1, 15315, Note_off_c, 0, 64, 64
1, 15324, Note_on_c, 0, 66, 31
1, 15327, Note_on_c, 0, 74, 66
1, 15327, Note_off_c, 0, 81, 64
1, 15388, Note_off_c, 0, 66, 64
1, 15410, Note_on_c, 0, 73, 42
1, 15455, Control_c, 0, 64, 127
1, 15466, Note_off_c, 0, 74, 64
1, 15490, Note_on_c, 0, 66, 33
1, 15552, Note_off_c, 0, 66, 64
1, 15582, Note_off_c, 0, 73, 64
1, 15582, Note_on_c, 0, 62, 38
1, 15700, Note_on_c, 0, 66, 46
1, 15708, Note_off_c, 0, 62, 64
1, 15725, Note_on_c, 0, 57, 42
1, 15787, Note_off_c, 0, 57, 64
1, 15791, Note_off_c, 0, 66, 64
1, 15798, Note_on_c, 0, 73, 41
1, 15894, Note_on_c, 0, 66, 28
1, 15920, Note_off_c, 0, 73, 64
1, 15950, Note_off_c, 0, 66, 64
1, 15973, Note_on_c, 0, 62, 41
1, 16064, Note_off_c, 0, 62, 64
1, 16068, Note_on_c, 0, 50, 44
1, 16071, Note_on_c, 0, 66, 43
1, 16114, Control_c, 0, 64, 0
1, 16148, Note_off_c, 0, 66, 64
1, 16170, Note_on_c, 0, 71, 51
1, 16243, Note_on_c, 0, 66, 29
1, 16262, Note_off_c, 0, 50, 64
1, 16270, Control_c, 0, 64, 127
1, 16302, Note_off_c, 0, 71, 64
1, 16324, Note_on_c, 0, 62, 38
1, 16334, Note_off_c, 0, 66, 64
1, 16416, Note_on_c, 0, 66, 35
1, 16422, Note_off_c, 0, 62, 64
1, 16513, Note_off_c, 0, 66, 64
1, 16549, Note_on_c, 0, 71, 43
1, 16608, Note_on_c, 0, 66, 22
1, 16614, Note_on_c, 0, 74, 50
1, 16619, Note_off_c, 0, 71, 64
1, 16675, Note_on_c, 0, 76, 55
1, 16686, Note_off_c, 0, 66, 64
1, 16691, Note_on_c, 0, 62, 44
1, 16739, Note_on_c, 0, 78, 67
1, 16739, Note_off_c, 0, 74, 64
1, 16767, Note_off_c, 0, 62, 64
1, 16770, Note_off_c, 0, 76, 64
1, 16803, Note_on_c, 0, 64, 46
1, 16809, Control_c, 0, 64, 0
1, 16809, Note_on_c, 0, 79, 94
1, 16840, Note_off_c, 0, 78, 64
1, 16872, Note_off_c, 0, 64, 64
1, 16904, Note_on_c, 0, 71, 52
1, 16998, Note_on_c, 0, 64, 48
1, 16998, Control_c, 0, 64, 127
1, 17003, Note_off_c, 0, 71, 64
1, 17034, Note_off_c, 0, 79, 64
1, 17043, Note_off_c, 0, 64, 64
1, 17068, Note_on_c, 0, 62, 43
1, 17121, Note_off_c, 0, 62, 64
1, 17153, Note_on_c, 0, 64, 48
1, 17202, Note_off_c, 0, 64, 64
1, 17234, Note_on_c, 0, 71, 57
1, 17308, Note_off_c, 0, 71, 64
1, 17330, Note_on_c, 0, 64, 44
1, 17383, Note_off_c, 0, 64, 64
1, 17407, Note_on_c, 0, 62, 43
1, 17488, Note_off_c, 0, 62, 64
1, 17514, Note_on_c, 0, 50, 35
1, 17519, Note_on_c, 0, 64, 44
1, 17566, Note_off_c, 0, 64, 64
1, 17577, Control_c, 0, 64, 0
1, 17592, Note_on_c, 0, 69, 44
1, 17697, Control_c, 0, 64, 127
1, 17705, Note_off_c, 0, 50, 64
1, 17705, Note_off_c, 0, 69, 64
1, 17705, Note_on_c, 0, 64, 45
1, 17744, Note_off_c, 0, 64, 64
1, 17753, Note_on_c, 0, 61, 48
1, 17828, Note_off_c, 0, 61, 64
1, 17859, Note_on_c, 0, 64, 28
1, 17908, Note_off_c, 0, 64, 64
1, 17932, Note_on_c, 0, 69, 42
1, 18012, Note_on_c, 0, 73, 47
1, 18031, Note_on_c, 0, 64, 52
1, 18053, Note_off_c, 0, 69, 64
1, 18073, Note_off_c, 0, 64, 64
1, 18087, Note_on_c, 0, 74, 68
1, 18098, Note_on_c, 0, 61, 43
1, 18098, Note_off_c, 0, 73, 64
1, 18166, Note_on_c, 0, 76, 53
1, 18182, Note_off_c, 0, 61, 64
1, 18188, Note_off_c, 0, 74, 64
1, 18216, Note_off_c, 0, 76, 64
1, 18216, Note_on_c, 0, 62, 34
1, 18224, Control_c, 0, 64, 0
1, 18244, Note_on_c, 0, 78, 71
1, 18304, Note_off_c, 0, 62, 64
1, 18333, Note_on_c, 0, 69, 36
1, 18391, Control_c, 0, 64, 127
1, 18413, Note_on_c, 0, 62, 36
1, 18418, Note_off_c, 0, 69, 64
1, 18422, Note_off_c, 0, 78, 64
1, 18469, Note_off_c, 0, 62, 64
1, 18496, Note_on_c, 0, 61, 43
1, 18560, Note_off_c, 0, 61, 64
1, 18589, Note_on_c, 0, 62, 33
1, 18645, Note_off_c, 0, 62, 64
1, 18683, Note_on_c, 0, 69, 27
1, 18747, Note_off_c, 0, 69, 64
1, 18764, Note_on_c, 0, 62, 34
1, 18815, Note_off_c, 0, 62, 64
1, 18840, Note_on_c, 0, 61, 33
1, 18901, Note_off_c, 0, 61, 64
1, 18931, Note_on_c, 0, 62, 41
1, 18937, Note_on_c, 0, 50, 42
1, 18943, Control_c, 0, 64, 0
1, 18987, Note_off_c, 0, 62, 64
1, 19017, Note_on_c, 0, 67, 44
1, 19087, Control_c, 0, 64, 127
1, 19098, Note_off_c, 0, 50, 64
1, 19104, Note_off_c, 0, 67, 64
1, 19110, Note_on_c, 0, 62, 34
1, 19159, Note_off_c, 0, 62, 64
1, 19185, Note_on_c, 0, 59, 37
1, 19240, Note_off_c, 0, 59, 64
1, 19290, Note_on_c, 0, 62, 46
1, 19336, Note_off_c, 0, 62, 64
1, 19377, Note_on_c, 0, 67, 39
1, 19441, Note_off_c, 0, 67, 64
1, 19461, Note_on_c, 0, 71, 39
1, 19486, Note_on_c, 0, 62, 29
1, 19517, Note_on_c, 0, 73, 37
1, 19521, Note_off_c, 0, 71, 64
1, 19536, Note_off_c, 0, 62, 64
1, 19549, Note_on_c, 0, 59, 34
1, 19616, Note_off_c, 0, 73, 64
1, 19616, Note_on_c, 0, 74, 46
1, 19625, Control_c, 0, 64, 0
1, 19661, Note_on_c, 0, 61, 46
1, 19664, Note_off_c, 0, 74, 64
1, 19684, Note_on_c, 0, 76, 46
1, 19706, Note_off_c, 0, 59, 64
1, 19770, Note_off_c, 0, 61, 64
1, 19781, Control_c, 0, 64, 127
1, 19808, Note_off_c, 0, 76, 64
1, 19819, Note_on_c, 0, 67, 29
1, 19909, Note_on_c, 0, 61, 31
1, 19918, Note_off_c, 0, 67, 64
1, 19964, Note_off_c, 0, 61, 64
1, 19984, Note_on_c, 0, 59, 37
1, 20053, Note_off_c, 0, 59, 64
1, 20060, Note_on_c, 0, 50, 38
1, 20067, Note_on_c, 0, 61, 39
1, 20110, Note_off_c, 0, 50, 64
1, 20132, Note_off_c, 0, 61, 64
1, 20170, Note_on_c, 0, 67, 34
1, 20235, Note_off_c, 0, 67, 64
1, 20240, Note_on_c, 0, 61, 42
1, 20297, Note_off_c, 0, 61, 64
1, 20333, Note_on_c, 0, 59, 34
1, 20407, Note_off_c, 0, 59, 64
1, 20435, Note_on_c, 0, 61, 50
1, 20443, Note_on_c, 0, 73, 45
1, 20572, Control_c, 0, 64, 0
1, 20572, Note_on_c, 0, 74, 58
1, 20577, Note_off_c, 0, 73, 64
1, 20600, Note_off_c, 0, 61, 64
1, 20600, Note_on_c, 0, 67, 42
1, 20644, Note_on_c, 0, 73, 40
1, 20647, Note_off_c, 0, 74, 64
1, 20664, Note_on_c, 0, 61, 44
1, 20669, Control_c, 0, 64, 127
1, 20683, Note_off_c, 0, 67, 64
1, 20716, Note_on_c, 0, 74, 67
1, 20728, Note_off_c, 0, 73, 64
1, 20767, Note_off_c, 0, 61, 64
1, 20767, Note_on_c, 0, 59, 38
1, 20786, Note_off_c, 0, 74, 64
1, 20789, Note_on_c, 0, 73, 58
1, 20842, Note_on_c, 0, 61, 44
1, 20845, Note_off_c, 0, 59, 64
1, 20845, Note_off_c, 0, 73, 64
1, 20854, Note_on_c, 0, 74, 57
1, 20920, Note_off_c, 0, 74, 64
1, 20920, Note_on_c, 0, 73, 55
1, 20934, Note_off_c, 0, 61, 64
1, 20959, Note_on_c, 0, 67, 40
1, 20968, Note_off_c, 0, 73, 64
1, 20982, Note_on_c, 0, 74, 64
1, 21014, Note_on_c, 0, 61, 37
1, 21034, Note_off_c, 0, 67, 64
1, 21034, Note_off_c, 0, 74, 64
1, 21046, Note_on_c, 0, 73, 64
1, 21082, Note_off_c, 0, 61, 64
1, 21091, Note_off_c, 0, 73, 64
1, 21095, Note_on_c, 0, 59, 43
1, 21113, Note_on_c, 0, 74, 65
1, 21137, Control_c, 0, 64, 0
1, 21168, Note_on_c, 0, 73, 67
1, 21173, Note_on_c, 0, 61, 54
1, 21177, Note_off_c, 0, 74, 64
1, 21230, Note_off_c, 0, 59, 64
1, 21233, Note_off_c, 0, 73, 64
1, 21244, Note_on_c, 0, 74, 66
1, 21255, Control_c, 0, 64, 127
1, 21285, Note_off_c, 0, 61, 64
1, 21285, Note_on_c, 0, 66, 50
1, 21311, Note_on_c, 0, 73, 61
1, 21316, Note_off_c, 0, 74, 64
1, 21363, Note_off_c, 0, 73, 64
1, 21363, Note_on_c, 0, 61, 51
1, 21382, Note_on_c, 0, 74, 69
1, 21386, Note_off_c, 0, 66, 64
1, 21442, Note_on_c, 0, 57, 48
1, 21446, Note_off_c, 0, 74, 64
1, 21452, Note_on_c, 0, 73, 66
1, 21457, Note_off_c, 0, 61, 64
1, 21497, Note_off_c, 0, 73, 64
1, 21511, Note_on_c, 0, 61, 69
1, 21511, Note_on_c, 0, 74, 69
1, 21561, Note_off_c, 0, 57, 64
1, 21581, Note_on_c, 0, 73, 68
1, 21586, Note_off_c, 0, 74, 64
1, 21592, Note_on_c, 0, 66, 64
1, 21597, Note_off_c, 0, 61, 64
1, 21636, Note_off_c, 0, 73, 64
1, 21645, Note_on_c, 0, 74, 73
1, 21661, Note_on_c, 0, 61, 60
1, 21709, Note_on_c, 0, 73, 69
1, 21714, Note_off_c, 0, 74, 64
1, 21714, Note_off_c, 0, 66, 64
1, 21748, Note_on_c, 0, 57, 63
1, 21761, Note_off_c, 0, 61, 64
1, 21773, Note_on_c, 0, 74, 77
1, 21781, Note_off_c, 0, 73, 64
1, 21833, Note_on_c, 0, 61, 70
1, 21839, Note_on_c, 0, 73, 71
1, 21845, Note_off_c, 0, 74, 64
1, 21854, Control_c, 0, 64, 0
1, 21895, Note_off_c, 0, 57, 64
1, 21906, Note_on_c, 0, 74, 76
1, 21923, Note_off_c, 0, 73, 64
1, 21923, Note_on_c, 0, 64, 79
1, 21937, Note_off_c, 0, 61, 64
1, 21962, Control_c, 0, 64, 127
1, 21974, Note_on_c, 0, 73, 70
1, 21977, Note_off_c, 0, 74, 64
1, 21993, Note_on_c, 0, 61, 67
1, 22027, Note_off_c, 0, 64, 64
1, 22045, Note_on_c, 0, 74, 75
1, 22056, Note_off_c, 0, 73, 64
1, 22085, Note_on_c, 0, 55, 67
1, 22102, Note_off_c, 0, 61, 64
1, 22123, Note_on_c, 0, 73, 57
1, 22123, Note_off_c, 0, 74, 64
1, 22168, Note_on_c, 0, 61, 60
1, 22212, Note_on_c, 0, 74, 47
1, 22212, Note_off_c, 0, 73, 64
1, 22218, Note_off_c, 0, 55, 64
1, 22244, Note_on_c, 0, 64, 71
1, 22251, Note_off_c, 0, 61, 64
1, 22276, Note_on_c, 0, 73, 51
1, 22301, Note_off_c, 0, 74, 64
1, 22305, Note_on_c, 0, 61, 66
1, 22341, Note_off_c, 0, 64, 64
1, 22377, Note_on_c, 0, 71, 73
1, 22385, Note_off_c, 0, 73, 64
1, 22397, Note_on_c, 0, 55, 56
1, 22403, Note_off_c, 0, 61, 64
1, 22444, Note_on_c, 0, 73, 63
1, 22467, Note_off_c, 0, 71, 64
1, 22502, Control_c, 0, 64, 0
1, 22522, Note_off_c, 0, 73, 64
1, 22533, Note_off_c, 0, 55, 64
1, 22538, Note_on_c, 0, 57, 58
1, 22541, Note_on_c, 0, 74, 101
1, 22612, Note_off_c, 0, 74, 64
1, 22633, Control_c, 0, 64, 127
1, 22648, Note_off_c, 0, 57, 64
1, 22651, Note_on_c, 0, 62, 68
1, 22731, Note_on_c, 0, 57, 32
1, 22792, Note_off_c, 0, 62, 64
1, 22829, Note_on_c, 0, 54, 70
1, 22842, Note_off_c, 0, 57, 64
1, 22909, Note_off_c, 0, 54, 64
1, 22915, Note_on_c, 0, 50, 91
1, 22918, Note_on_c, 0, 57, 45
1, 22921, Note_on_c, 0, 38, 80
1, 23032, Note_off_c, 0, 57, 64
1, 23037, Note_on_c, 0, 62, 61
1, 23088, Note_on_c, 0, 57, 47
1, 23123, Note_off_c, 0, 62, 64
1, 23158, Note_off_c, 0, 57, 64
1, 23158, Note_on_c, 0, 54, 64
1, 23243, Note_off_c, 0, 54, 64
1, 23279, Note_on_c, 0, 62, 71
1, 23330, Control_c, 0, 64, 0
1, 23335, Note_on_c, 0, 66, 67
1, 23361, Note_off_c, 0, 62, 64
1, 23421, Note_on_c, 0, 62, 66
1, 23425, Control_c, 0, 64, 127
1, 23447, Note_off_c, 0, 66, 64
1, 23495, Note_off_c, 0, 62, 64
1, 23495, Note_on_c, 0, 57, 58
1, 23563, Note_off_c, 0, 57, 64
1, 23594, Note_on_c, 0, 66, 78
1, 23616, Control_c, 0, 64, 0
1, 23681, Note_on_c, 0, 69, 67
1, 23703, Note_off_c, 0, 66, 64
1, 23725, Control_c, 0, 64, 127
1, 23751, Note_on_c, 0, 66, 57
1, 23787, Note_off_c, 0, 50, 64
1, 23798, Note_off_c, 0, 69, 64
1, 23828, Note_on_c, 0, 62, 68
1, 23840, Note_off_c, 0, 66, 64
1, 23846, Note_off_c, 0, 38, 64
1, 23865, Note_off_c, 0, 62, 64
1, 23935, Note_on_c, 0, 69, 77
1, 24010, Note_on_c, 0, 74, 77
1, 24020, Note_off_c, 0, 69, 64
1, 24096, Note_on_c, 0, 69, 41
1, 24109, Note_off_c, 0, 74, 64
1, 24165, Note_off_c, 0, 69, 64
1, 24177, Note_on_c, 0, 66, 64
1, 24257, Note_off_c, 0, 66, 64
1, 24263, Note_on_c, 0, 74, 86
1, 24336, Note_on_c, 0, 78, 76
1, 24346, Note_off_c, 0, 74, 64
1, 24402, Note_on_c, 0, 74, 62
1, 24436, Note_off_c, 0, 78, 64
1, 24484, Note_on_c, 0, 69, 63
1, 24497, Note_off_c, 0, 74, 64
1, 24558, Note_off_c, 0, 69, 64
1, 24591, Note_on_c, 0, 78, 88
1, 24678, Note_on_c, 0, 81, 79
1, 24689, Note_off_c, 0, 78, 64
1, 24756, Note_on_c, 0, 78, 53
1, 24781, Note_off_c, 0, 81, 64
1, 24835, Note_off_c, 0, 78, 64
1, 24860, Note_on_c, 0, 74, 66
1, 24998, Note_off_c, 0, 74, 64
1, 24998, Note_on_c, 0, 86, 104
1, 25052, Note_off_c, 0, 86, 64
1, 25665, Note_on_c, 0, 55, 81
1, 25673, Note_on_c, 0, 43, 97
1, 25673, Note_on_c, 0, 31, 101
1, 25792, Note_on_c, 0, 59, 63
1, 25798, Note_off_c, 0, 55, 64
1, 25821, Control_c, 0, 64, 0
1, 25878, Note_on_c, 0, 55, 50
1, 25942, Note_off_c, 0, 59, 64
1, 25976, Note_on_c, 0, 50, 74
1, 25998, Note_off_c, 0, 55, 64
1, 26001, Control_c, 0, 64, 127
1, 26071, Note_on_c, 0, 55, 52
1, 26122, Note_off_c, 0, 50, 64
1, 26160, Note_on_c, 0, 59, 74
1, 26174, Note_off_c, 0, 55, 64
1, 26238, Note_on_c, 0, 55, 56
1, 26269, Note_off_c, 0, 59, 64
1, 26311, Note_on_c, 0, 50, 61
1, 26338, Note_off_c, 0, 55, 64
1, 26400, Note_on_c, 0, 55, 69
1, 26420, Note_off_c, 0, 50, 64
1, 26494, Note_on_c, 0, 59, 68
1, 26505, Note_off_c, 0, 55, 64
1, 26559, Note_on_c, 0, 55, 74
1, 26586, Note_off_c, 0, 59, 64
1, 26642, Note_on_c, 0, 50, 68
1, 26647, Note_off_c, 0, 55, 64
1, 26734, Note_on_c, 0, 55, 74
1, 26748, Note_off_c, 0, 50, 64
1, 26757, Control_c, 0, 64, 0
1, 26814, Note_on_c, 0, 60, 70
1, 26834, Note_off_c, 0, 55, 64
1, 26876, Control_c, 0, 64, 127
1, 26892, Note_on_c, 0, 55, 69
1, 26929, Note_off_c, 0, 60, 64
1, 26981, Note_on_c, 0, 52, 75
1, 27016, Note_off_c, 0, 55, 64
1, 27063, Note_on_c, 0, 57, 73
1, 27068, Control_c, 0, 64, 0
1, 27071, Note_off_c, 0, 52, 64
1, 27140, Note_on_c, 0, 62, 73
1, 27165, Note_off_c, 0, 57, 64
1, 27200, Control_c, 0, 64, 127
1, 27208, Note_off_c, 0, 62, 64
1, 27208, Note_on_c, 0, 57, 71
1, 27292, Note_off_c, 0, 57, 64
1, 27299, Note_on_c, 0, 54, 82
1, 27341, Note_off_c, 0, 54, 64
1, 27392, Note_on_c, 0, 59, 76
1, 27428, Control_c, 0, 64, 0
1, 27464, Note_on_c, 0, 64, 77
1, 27473, Note_off_c, 0, 59, 64
1, 27533, Note_on_c, 0, 59, 62
1, 27548, Control_c, 0, 64, 127
1, 27572, Note_off_c, 0, 64, 64
1, 27614, Note_on_c, 0, 55, 75
1, 27629, Note_off_c, 0, 59, 64
1, 27689, Note_on_c, 0, 60, 83
1, 27689, Control_c, 0, 64, 0
1, 27709, Note_off_c, 0, 55, 64
1, 27764, Note_on_c, 0, 66, 67
1, 27779, Note_off_c, 0, 60, 64
1, 27835, Control_c, 0, 64, 127
1, 27843, Note_on_c, 0, 60, 57
1, 27896, Note_off_c, 0, 66, 64
1, 27915, Note_on_c, 0, 57, 71
1, 27954, Note_off_c, 0, 60, 64
1, 28002, Control_c, 0, 64, 0
1, 28006, Note_on_c, 0, 62, 68
1, 28011, Note_off_c, 0, 57, 64
1, 28082, Note_on_c, 0, 67, 73
1, 28104, Note_off_c, 0, 62, 64
1, 28135, Control_c, 0, 64, 127
1, 28155, Note_on_c, 0, 62, 73
1, 28188, Note_off_c, 0, 67, 64
1, 28235, Note_on_c, 0, 59, 70
1, 28244, Note_off_c, 0, 62, 64
1, 28278, Control_c, 0, 64, 0
1, 28316, Note_off_c, 0, 59, 64
1, 28320, Note_on_c, 0, 64, 91
1, 28405, Note_on_c, 0, 69, 63
1, 28422, Note_off_c, 0, 64, 64
1, 28422, Control_c, 0, 64, 127
1, 28477, Note_on_c, 0, 64, 70
1, 28520, Note_off_c, 0, 69, 64
1, 28555, Note_on_c, 0, 60, 63
1, 28564, Note_off_c, 0, 64, 64
1, 28636, Note_on_c, 0, 64, 65
1, 28667, Note_off_c, 0, 60, 64
1, 28718, Note_on_c, 0, 69, 60
1, 28718, Note_off_c, 0, 64, 64
1, 28796, Note_on_c, 0, 64, 57
1, 28838, Note_off_c, 0, 69, 64
1, 28871, Note_on_c, 0, 60, 75
1, 28874, Note_off_c, 0, 64, 64
1, 28949, Control_c, 0, 64, 0
1, 28965, Note_on_c, 0, 66, 84
1, 28993, Note_off_c, 0, 60, 64
1, 29063, Note_on_c, 0, 71, 75
1, 29085, Note_off_c, 0, 66, 64
1, 29105, Control_c, 0, 64, 127
1, 29130, Note_on_c, 0, 66, 60
1, 29168, Note_off_c, 0, 71, 64
1, 29213, Note_on_c, 0, 62, 60
1, 29224, Note_off_c, 0, 66, 64
1, 29289, Note_off_c, 0, 62, 64
1, 29294, Note_on_c, 0, 66, 47
1, 29389, Note_off_c, 0, 66, 64
1, 29389, Note_on_c, 0, 71, 59
1, 29455, Note_on_c, 0, 66, 43
1, 29492, Note_off_c, 0, 71, 64
1, 29533, Note_on_c, 0, 62, 61
1, 29547, Note_off_c, 0, 66, 64
1, 29572, Note_off_c, 0, 62, 64
1, 29625, Note_on_c, 0, 62, 82
1, 29632, Control_c, 0, 64, 0
1, 29726, Note_on_c, 0, 67, 56
1, 29746, Note_off_c, 0, 62, 64
1, 29806, Note_on_c, 0, 62, 59
1, 29813, Control_c, 0, 64, 127
1, 29848, Note_off_c, 0, 67, 64
1, 29877, Note_on_c, 0, 59, 50
1, 29881, Note_off_c, 0, 62, 64
1, 29940, Note_off_c, 0, 59, 64
1, 29951, Note_on_c, 0, 62, 51
1, 30023, Note_off_c, 0, 43, 64
1, 30023, Note_off_c, 0, 62, 64
1, 30029, Note_off_c, 0, 31, 64
1, 30033, Note_on_c, 0, 67, 50
1, 30094, Note_on_c, 0, 62, 48
1, 30105, Note_off_c, 0, 67, 64
1, 30160, Note_off_c, 0, 62, 64
1, 30172, Note_on_c, 0, 59, 44
1, 30235, Note_off_c, 0, 59, 64
1, 30255, Note_on_c, 0, 62, 55
1, 30322, Note_off_c, 0, 62, 64
1, 30333, Note_on_c, 0, 67, 57
1, 30406, Note_on_c, 0, 62, 52
1, 30447, Note_off_c, 0, 67, 64
1, 30481, Note_on_c, 0, 59, 62
1, 30495, Note_off_c, 0, 62, 64
1, 30559, Note_off_c, 0, 59, 64
1, 30559, Note_on_c, 0, 55, 89
1, 30564, Note_on_c, 0, 43, 84
1, 30570, Note_on_c, 0, 64, 67
1, 30592, Control_c, 0, 64, 0
1, 30643, Note_on_c, 0, 69, 55
1, 30654, Note_off_c, 0, 64, 64
1, 30723, Note_on_c, 0, 64, 52
1, 30735, Control_c, 0, 64, 127
1, 30748, Note_off_c, 0, 69, 64
1, 30804, Note_off_c, 0, 55, 64
1, 30804, Note_on_c, 0, 61, 69
1, 30812, Note_off_c, 0, 43, 64
1, 30812, Note_off_c, 0, 64, 64
1, 30874, Note_off_c, 0, 61, 64
1, 30888, Note_on_c, 0, 54, 90
1, 30893, Note_on_c, 0, 42, 81
1, 30893, Note_on_c, 0, 66, 65
1, 30963, Control_c, 0, 64, 0
1, 30971, Note_on_c, 0, 69, 60
1, 30991, Note_off_c, 0, 66, 64
1, 31040, Note_on_c, 0, 66, 61
1, 31071, Note_off_c, 0, 69, 64
1, 31130, Note_on_c, 0, 62, 59
1, 31144, Note_off_c, 0, 66, 64
1, 31155, Control_c, 0, 64, 127
1, 31213, Note_on_c, 0, 66, 58
1, 31228, Note_off_c, 0, 62, 64
1, 31303, Note_on_c, 0, 69, 54
1, 31313, Note_off_c, 0, 66, 64
1, 31370, Note_on_c, 0, 66, 59
1, 31405, Note_off_c, 0, 69, 64
1, 31439, Note_off_c, 0, 54, 64
1, 31453, Note_on_c, 0, 62, 69
1, 31464, Note_off_c, 0, 66, 64
1, 31503, Note_off_c, 0, 62, 64
1, 31531, Note_off_c, 0, 42, 64
1, 31548, Note_on_c, 0, 52, 92
1, 31548, Note_on_c, 0, 40, 95
1, 31551, Note_on_c, 0, 67, 73
1, 31587, Control_c, 0, 64, 0
1, 31612, Note_off_c, 0, 67, 64
1, 31617, Note_on_c, 0, 73, 65
1, 31706, Note_on_c, 0, 67, 63
1, 31743, Note_off_c, 0, 73, 64
1, 31774, Note_on_c, 0, 64, 73
1, 31798, Note_off_c, 0, 67, 64
1, 31854, Note_on_c, 0, 67, 70
1, 31890, Note_off_c, 0, 64, 64
1, 31938, Note_on_c, 0, 73, 63
1, 31944, Note_off_c, 0, 67, 64
1, 31982, Control_c, 0, 64, 127
1, 32026, Note_on_c, 0, 67, 41
1, 32058, Note_off_c, 0, 52, 64
1, 32077, Note_off_c, 0, 40, 64
1, 32100, Note_off_c, 0, 73, 64
1, 32105, Note_on_c, 0, 64, 72
1, 32141, Note_off_c, 0, 67, 64
1, 32197, Note_on_c, 0, 69, 59
1, 32197, Note_on_c, 0, 54, 96
1, 32203, Note_on_c, 0, 42, 81
1, 32222, Note_off_c, 0, 64, 64
1, 32258, Control_c, 0, 64, 0
1, 32275, Note_on_c, 0, 74, 74
1, 32292, Note_off_c, 0, 69, 64
1, 32344, Note_on_c, 0, 69, 50
1, 32406, Note_off_c, 0, 74, 64
1, 32425, Note_on_c, 0, 62, 65
1, 32459, Note_off_c, 0, 69, 64
1, 32522, Note_on_c, 0, 69, 49
1, 32559, Note_off_c, 0, 62, 64
1, 32570, Control_c, 0, 64, 127
1, 32615, Note_on_c, 0, 74, 79
1, 32632, Note_off_c, 0, 69, 64
1, 32689, Note_on_c, 0, 69, 46
1, 32703, Note_off_c, 0, 74, 64
1, 32768, Note_on_c, 0, 62, 62
1, 32791, Note_off_c, 0, 69, 64
1, 32855, Note_off_c, 0, 42, 64
1, 32855, Note_on_c, 0, 69, 57
1, 32863, Note_off_c, 0, 62, 64
1, 32938, Note_on_c, 0, 74, 77
1, 32963, Note_off_c, 0, 69, 64
1, 33007, Note_on_c, 0, 69, 69
1, 33030, Note_off_c, 0, 74, 64
1, 33094, Note_on_c, 0, 62, 75
1, 33132, Note_off_c, 0, 69, 64
1, 33180, Note_on_c, 0, 59, 91
1, 33180, Note_on_c, 0, 47, 85
1, 33185, Note_on_c, 0, 67, 84
1, 33200, Note_off_c, 0, 62, 64
1, 33208, Note_off_c, 0, 54, 64
1, 33253, Control_c, 0, 64, 0
1, 33263, Note_on_c, 0, 74, 76
1, 33284, Note_off_c, 0, 67, 64
1, 33345, Note_on_c, 0, 67, 55
1, 33384, Note_off_c, 0, 74, 64
1, 33420, Control_c, 0, 64, 127
1, 33430, Note_on_c, 0, 62, 76
1, 33450, Note_off_c, 0, 47, 64
1, 33450, Note_off_c, 0, 59, 64
1, 33487, Note_off_c, 0, 67, 64
1, 33518, Note_on_c, 0, 57, 84
1, 33518, Note_on_c, 0, 69, 62
1, 33521, Note_on_c, 0, 45, 80
1, 33539, Note_off_c, 0, 62, 64
1, 33564, Control_c, 0, 64, 0
1, 33606, Note_on_c, 0, 74, 74
1, 33631, Note_off_c, 0, 69, 64
1, 33676, Note_on_c, 0, 69, 62
1, 33723, Note_off_c, 0, 74, 64
1, 33767, Note_on_c, 0, 64, 69
1, 33779, Control_c, 0, 64, 127
1, 33791, Note_off_c, 0, 69, 64
1, 33821, Note_off_c, 0, 57, 64
1, 33849, Note_on_c, 0, 69, 54
1, 33884, Note_off_c, 0, 64, 64
1, 33907, Note_off_c, 0, 45, 64
1, 33951, Note_on_c, 0, 74, 79
1, 33963, Note_off_c, 0, 69, 64
1, 34022, Note_on_c, 0, 69, 44
1, 34058, Note_off_c, 0, 74, 64
1, 34102, Note_on_c, 0, 64, 66
1, 34133, Note_off_c, 0, 69, 64
1, 34181, Note_on_c, 0, 69, 59
1, 34186, Note_on_c, 0, 45, 79
1, 34191, Note_on_c, 0, 33, 78
1, 34220, Note_off_c, 0, 64, 64
1, 34264, Note_on_c, 0, 73, 68
1, 34289, Note_off_c, 0, 69, 64
1, 34348, Note_on_c, 0, 69, 47
1, 34394, Note_off_c, 0, 73, 64
1, 34431, Note_on_c, 0, 64, 63
1, 34465, Note_off_c, 0, 69, 64
1, 34487, Control_c, 0, 64, 0
1, 34515, Note_on_c, 0, 69, 57
1, 34571, Note_off_c, 0, 64, 64
1, 34609, Note_on_c, 0, 73, 67
1, 34632, Note_off_c, 0, 69, 64
1, 34663, Note_off_c, 0, 33, 64
1, 34679, Control_c, 0, 64, 127
1, 34688, Note_on_c, 0, 69, 44
1, 34696, Note_off_c, 0, 45, 64
1, 34724, Note_off_c, 0, 73, 64
1, 34770, Note_on_c, 0, 64, 53
1, 34796, Note_off_c, 0, 69, 64
1, 34848, Note_on_c, 0, 69, 55
1, 34852, Note_on_c, 0, 50, 73
1, 34855, Note_on_c, 0, 38, 70
1, 34865, Note_off_c, 0, 64, 64
1, 34871, Control_c, 0, 64, 0
1, 34938, Note_on_c, 0, 74, 63
1, 34947, Note_off_c, 0, 69, 64
1, 35008, Note_on_c, 0, 69, 42
1, 35038, Note_off_c, 0, 74, 64
1, 35088, Note_on_c, 0, 66, 41
1, 35113, Note_off_c, 0, 69, 64
1, 35167, Note_on_c, 0, 69, 48
1, 35194, Note_off_c, 0, 66, 64
1, 35230, Control_c, 0, 64, 127
1, 35261, Note_on_c, 0, 74, 59
1, 35267, Note_off_c, 0, 69, 64
1, 35339, Note_on_c, 0, 69, 28
1, 35373, Control_c, 0, 64, 0
1, 35373, Note_off_c, 0, 74, 64
1, 35411, Note_on_c, 0, 66, 41
1, 35443, Note_off_c, 0, 69, 64
1, 35498, Note_on_c, 0, 69, 48
1, 35518, Note_off_c, 0, 66, 64
1, 35529, Control_c, 0, 64, 127
1, 35596, Note_off_c, 0, 69, 64
1, 35606, Note_on_c, 0, 74, 55
1, 35677, Note_on_c, 0, 69, 25
1, 35690, Note_off_c, 0, 38, 64
1, 35702, Note_off_c, 0, 74, 64
1, 35741, Note_off_c, 0, 50, 64
1, 35762, Note_on_c, 0, 66, 26
1, 35773, Note_off_c, 0, 69, 64
1, 35832, Note_on_c, 0, 69, 40
1, 35851, Note_off_c, 0, 66, 64
1, 35854, Control_c, 0, 64, 0
1, 35936, Control_c, 0, 64, 127
1, 35936, Note_off_c, 0, 69, 64
1, 35944, Note_on_c, 0, 74, 52
1, 36000, Note_on_c, 0, 69, 29
1, 36005, Note_off_c, 0, 74, 64
1, 36089, Note_on_c, 0, 66, 37
1, 36131, Note_off_c, 0, 69, 64
1, 36211, Note_on_c, 0, 67, 50
1, 36252, Note_off_c, 0, 66, 64
1, 36252, Note_on_c, 0, 83, 87
1, 36261, Control_c, 0, 64, 0
1, 36345, Note_off_c, 0, 67, 64
1, 36364, Note_on_c, 0, 74, 42
1, 36431, Note_off_c, 0, 74, 64
1, 36431, Note_on_c, 0, 67, 25
1, 36511, Note_off_c, 0, 67, 64
1, 36517, Note_on_c, 0, 66, 33
1, 36548, Control_c, 0, 64, 127
1, 36615, Note_off_c, 0, 66, 64
1, 36631, Note_on_c, 0, 67, 14
1, 36695, Note_off_c, 0, 67, 64
1, 36724, Note_on_c, 0, 74, 27
1, 36777, Note_on_c, 0, 67, 15
1, 36780, Note_off_c, 0, 74, 64
1, 36785, Note_off_c, 0, 83, 64
1, 36851, Note_off_c, 0, 67, 64
1, 36855, Note_on_c, 0, 66, 25
1, 36927, Note_off_c, 0, 66, 64
1, 36949, Note_on_c, 0, 83, 80
1, 36949, Note_on_c, 0, 67, 30
1, 36993, Control_c, 0, 64, 0
1, 37013, Note_off_c, 0, 67, 64
1, 37046, Note_on_c, 0, 74, 42
1, 37119, Note_off_c, 0, 74, 64
1, 37128, Note_on_c, 0, 67, 25
1, 37147, Control_c, 0, 64, 127
1, 37189, Note_off_c, 0, 67, 64
1, 37200, Note_on_c, 0, 66, 24
1, 37231, Note_off_c, 0, 83, 64
1, 37266, Note_off_c, 0, 66, 64
1, 37281, Note_on_c, 0, 67, 28
1, 37369, Note_off_c, 0, 67, 64
1, 37389, Note_on_c, 0, 74, 39
1, 37450, Note_off_c, 0, 74, 64
1, 37465, Note_on_c, 0, 67, 22
1, 37482, Note_on_c, 0, 83, 84
1, 37556, Note_on_c, 0, 66, 30
1, 37574, Note_off_c, 0, 67, 64
1, 37663, Note_off_c, 0, 66, 64
1, 37713, Note_on_c, 0, 67, 48
1, 37729, Note_off_c, 0, 83, 64
1, 37741, Note_on_c, 0, 76, 42
1, 37746, Control_c, 0, 64, 0
1, 37813, Note_off_c, 0, 67, 64
1, 37830, Note_on_c, 0, 74, 44
1, 37879, Control_c, 0, 64, 127
1, 37879, Note_off_c, 0, 76, 64
1, 37933, Note_on_c, 0, 67, 25
1, 37952, Note_off_c, 0, 74, 64
1, 38007, Note_off_c, 0, 67, 64
1, 38024, Note_on_c, 0, 64, 27
1, 38094, Note_off_c, 0, 64, 64
1, 38113, Note_on_c, 0, 67, 36
1, 38113, Note_on_c, 0, 57, 37
1, 38170, Note_off_c, 0, 67, 64
1, 38194, Note_on_c, 0, 74, 45
1, 38253, Note_off_c, 0, 74, 64
1, 38283, Note_on_c, 0, 67, 19
1, 38359, Note_off_c, 0, 67, 64
1, 38364, Note_on_c, 0, 64, 39
1, 38454, Note_off_c, 0, 64, 64
1, 38465, Control_c, 0, 64, 0
1, 38465, Note_on_c, 0, 67, 35
1, 38470, Note_on_c, 0, 50, 57
1, 38543, Note_off_c, 0, 67, 64
1, 38548, Note_on_c, 0, 73, 33
1, 38634, Control_c, 0, 64, 127
1, 38634, Note_off_c, 0, 50, 64
1, 38643, Note_on_c, 0, 67, 20
1, 38652, Note_off_c, 0, 57, 64
1, 38665, Note_off_c, 0, 73, 64
1, 38719, Note_off_c, 0, 67, 64
1, 38729, Note_on_c, 0, 64, 36
1, 38819, Note_on_c, 0, 67, 40
1, 38826, Note_off_c, 0, 64, 64
1, 38875, Note_off_c, 0, 67, 64
1, 38911, Note_on_c, 0, 73, 25
1, 38980, Note_off_c, 0, 73, 64
1, 38988, Note_on_c, 0, 67, 42
1, 38994, Note_on_c, 0, 76, 41
1, 39036, Note_off_c, 0, 67, 64
1, 39046, Note_on_c, 0, 78, 68
1, 39061, Note_on_c, 0, 64, 49
1, 39085, Note_off_c, 0, 76, 64
1, 39116, Note_on_c, 0, 79, 80
1, 39158, Note_on_c, 0, 66, 44
1, 39166, Note_off_c, 0, 78, 64
1, 39172, Control_c, 0, 64, 0
1, 39172, Note_on_c, 0, 81, 91
1, 39180, Note_off_c, 0, 64, 64
1, 39211, Note_off_c, 0, 79, 64
1, 39272, Note_off_c, 0, 66, 64
1, 39278, Note_on_c, 0, 73, 34
1, 39333, Note_on_c, 0, 66, 40
1, 39365, Control_c, 0, 64, 127
1, 39370, Note_off_c, 0, 73, 64
1, 39415, Note_off_c, 0, 66, 64
1, 39420, Note_on_c, 0, 64, 51
1, 39470, Note_off_c, 0, 64, 64
1, 39482, Note_on_c, 0, 66, 43
1, 39570, Note_off_c, 0, 66, 64
1, 39570, Note_on_c, 0, 73, 44
1, 39651, Note_on_c, 0, 66, 38
1, 39679, Note_off_c, 0, 73, 64
1, 39702, Note_off_c, 0, 81, 64
1, 39737, Note_on_c, 0, 64, 50
1, 39737, Note_off_c, 0, 66, 64
1, 39791, Note_off_c, 0, 64, 64
1, 39844, Note_on_c, 0, 81, 68
1, 39855, Note_on_c, 0, 66, 33
1, 39904, Control_c, 0, 64, 0
1, 39911, Note_off_c, 0, 66, 64
1, 39941, Note_on_c, 0, 73, 39
1, 40028, Note_on_c, 0, 66, 29
1, 40047, Note_off_c, 0, 73, 64
1, 40095, Control_c, 0, 64, 127
1, 40095, Note_off_c, 0, 66, 64
1, 40105, Note_on_c, 0, 64, 43
1, 40180, Note_off_c, 0, 64, 64
1, 40194, Note_off_c, 0, 81, 64
1, 40228, Note_on_c, 0, 66, 29
1, 40284, Note_off_c, 0, 66, 64
1, 40306, Note_on_c, 0, 73, 35
1, 40384, Note_off_c, 0, 73, 64
1, 40409, Note_on_c, 0, 81, 63
1, 40409, Note_on_c, 0, 66, 25
1, 40443, Control_c, 0, 64, 0
1, 40506, Note_off_c, 0, 66, 64
1, 40520, Note_on_c, 0, 64, 30
1, 40551, Control_c, 0, 64, 127
1, 40624, Note_off_c, 0, 64, 64
1, 40657, Note_on_c, 0, 66, 34
1, 40671, Control_c, 0, 64, 0
1, 40674, Note_on_c, 0, 74, 50
1, 40677, Note_off_c, 0, 81, 64
1, 40769, Note_on_c, 0, 73, 31
1, 40787, Note_off_c, 0, 66, 64
1, 40815, Control_c, 0, 64, 127
1, 40821, Note_off_c, 0, 74, 64
1, 40857, Note_on_c, 0, 66, 30
1, 40902, Note_off_c, 0, 73, 64
1, 40939, Note_off_c, 0, 66, 64
1, 40960, Note_on_c, 0, 62, 27
1, 41042, Note_off_c, 0, 62, 64
1, 41047, Note_on_c, 0, 66, 26
1, 41061, Note_on_c, 0, 57, 40
1, 41127, Note_off_c, 0, 66, 64
1, 41145, Note_on_c, 0, 73, 28
1, 41215, Note_off_c, 0, 57, 64
1, 41218, Note_on_c, 0, 66, 24
1, 41233, Note_off_c, 0, 73, 64
1, 41312, Note_on_c, 0, 62, 32
1, 41316, Note_off_c, 0, 66, 64
1, 41382, Note_off_c, 0, 62, 64
1, 41389, Note_on_c, 0, 66, 29
1, 41415, Note_on_c, 0, 50, 42
1, 41487, Control_c, 0, 64, 0
1, 41492, Note_off_c, 0, 66, 64
1, 41495, Note_on_c, 0, 71, 43
1, 41562, Note_on_c, 0, 66, 29
1, 41612, Note_off_c, 0, 50, 64
1, 41618, Control_c, 0, 64, 127
1, 41626, Note_off_c, 0, 71, 64
1, 41651, Note_off_c, 0, 66, 64
1, 41663, Note_on_c, 0, 62, 33
1, 41751, Note_off_c, 0, 62, 64
1, 41768, Note_on_c, 0, 66, 43
1, 41819, Note_off_c, 0, 66, 64
1, 41880, Note_on_c, 0, 71, 39
1, 41935, Note_off_c, 0, 71, 64
1, 41947, Note_on_c, 0, 66, 32
1, 41960, Note_on_c, 0, 74, 60
1, 42013, Note_off_c, 0, 66, 64
1, 42020, Note_on_c, 0, 62, 42
1, 42038, Note_on_c, 0, 76, 57
1, 42103, Note_off_c, 0, 74, 64
1, 42106, Note_on_c, 0, 78, 58
1, 42120, Note_off_c, 0, 62, 64
1, 42134, Note_off_c, 0, 76, 64
1, 42159, Note_on_c, 0, 64, 34
1, 42169, Control_c, 0, 64, 0
1, 42187, Note_off_c, 0, 78, 64
1, 42197, Note_on_c, 0, 79, 77
1, 42219, Note_off_c, 0, 64, 64
1, 42270, Note_on_c, 0, 71, 38
1, 42362, Note_off_c, 0, 71, 64
1, 42362, Note_on_c, 0, 64, 39
1, 42384, Control_c, 0, 64, 127
1, 42409, Note_off_c, 0, 79, 64
1, 42409, Note_off_c, 0, 64, 64
1, 42448, Note_on_c, 0, 62, 36
1, 42499, Note_off_c, 0, 62, 64
1, 42548, Note_on_c, 0, 64, 39
1, 42591, Note_off_c, 0, 64, 64
1, 42616, Note_on_c, 0, 71, 49
1, 42682, Note_off_c, 0, 71, 64
1, 42721, Note_on_c, 0, 64, 38
1, 42776, Note_off_c, 0, 64, 64
1, 42802, Note_on_c, 0, 62, 33
1, 42863, Note_off_c, 0, 62, 64
1, 42899, Note_on_c, 0, 50, 46
1, 42903, Note_on_c, 0, 64, 42
1, 42947, Note_off_c, 0, 64, 64
1, 42980, Note_on_c, 0, 69, 44
1, 43033, Control_c, 0, 64, 0
1, 43069, Note_on_c, 0, 64, 45
1, 43103, Note_off_c, 0, 69, 64
1, 43120, Note_off_c, 0, 50, 64
1, 43130, Note_off_c, 0, 64, 64
1, 43134, Note_on_c, 0, 61, 49
1, 43151, Control_c, 0, 64, 127
1, 43217, Note_on_c, 0, 64, 44
1, 43222, Note_off_c, 0, 61, 64
1, 43295, Note_off_c, 0, 64, 64
1, 43317, Note_on_c, 0, 69, 41
1, 43424, Note_on_c, 0, 64, 31
1, 43446, Note_off_c, 0, 69, 64
1, 43446, Note_on_c, 0, 73, 43
1, 43473, Note_off_c, 0, 64, 64
1, 43495, Note_on_c, 0, 61, 39
1, 43516, Note_on_c, 0, 74, 69
1, 43543, Note_off_c, 0, 73, 64
1, 43595, Note_off_c, 0, 74, 64
1, 43601, Note_on_c, 0, 76, 54
1, 43609, Note_off_c, 0, 61, 64
1, 43635, Note_on_c, 0, 62, 38
1, 43651, Note_off_c, 0, 76, 64
1, 43668, Control_c, 0, 64, 0
1, 43691, Note_on_c, 0, 78, 58
1, 43765, Note_off_c, 0, 62, 64
1, 43774, Note_on_c, 0, 69, 34
1, 43850, Note_on_c, 0, 62, 27
1, 43858, Control_c, 0, 64, 127
1, 43869, Note_off_c, 0, 69, 64
1, 43869, Note_off_c, 0, 78, 64
1, 43913, Note_off_c, 0, 62, 64
1, 43939, Note_on_c, 0, 61, 37
1, 44005, Note_off_c, 0, 61, 64
1, 44017, Note_on_c, 0, 62, 43
1, 44089, Note_off_c, 0, 62, 64
1, 44131, Note_on_c, 0, 69, 20
1, 44194, Note_off_c, 0, 69, 64
1, 44198, Note_on_c, 0, 62, 31
1, 44265, Note_on_c, 0, 61, 35
1, 44265, Note_off_c, 0, 62, 64
1, 44353, Note_off_c, 0, 61, 64
1, 44368, Note_on_c, 0, 62, 31
1, 44392, Note_on_c, 0, 50, 40
1, 44431, Note_off_c, 0, 62, 64
1, 44431, Control_c, 0, 64, 0
1, 44465, Note_on_c, 0, 67, 36
1, 44540, Note_on_c, 0, 62, 31
1, 44545, Note_off_c, 0, 67, 64
1, 44554, Control_c, 0, 64, 127
1, 44574, Note_off_c, 0, 50, 64
1, 44607, Note_off_c, 0, 62, 64
1, 44629, Note_on_c, 0, 59, 37
1, 44690, Note_off_c, 0, 59, 64
1, 44722, Note_on_c, 0, 62, 36
1, 44772, Note_off_c, 0, 62, 64
1, 44818, Note_on_c, 0, 67, 34
1, 44906, Note_off_c, 0, 67, 64
1, 44922, Note_on_c, 0, 62, 31
1, 44928, Note_on_c, 0, 71, 54
1, 44975, Note_off_c, 0, 62, 64
1, 44992, Note_on_c, 0, 73, 42
1, 45000, Note_off_c, 0, 71, 64
1, 45000, Note_on_c, 0, 59, 31
1, 45053, Note_off_c, 0, 73, 64
1, 45076, Note_on_c, 0, 74, 49
1, 45094, Control_c, 0, 64, 0
1, 45120, Note_off_c, 0, 74, 64
1, 45139, Note_on_c, 0, 61, 50
1, 45139, Note_off_c, 0, 59, 64
1, 45158, Note_on_c, 0, 76, 46
1, 45248, Control_c, 0, 64, 127
1, 45261, Note_off_c, 0, 61, 64
1, 45279, Note_off_c, 0, 76, 64
1, 45293, Note_on_c, 0, 67, 24
1, 45364, Note_on_c, 0, 61, 35
1, 45364, Note_off_c, 0, 67, 64
1, 45426, Note_off_c, 0, 61, 64
1, 45467, Note_on_c, 0, 59, 33
1, 45524, Note_off_c, 0, 59, 64
1, 45548, Note_on_c, 0, 61, 52
1, 45555, Note_on_c, 0, 50, 31
1, 45613, Note_off_c, 0, 50, 64
1, 45619, Note_off_c, 0, 61, 64
1, 45657, Note_on_c, 0, 67, 33
1, 45727, Note_off_c, 0, 67, 64
1, 45752, Note_on_c, 0, 61, 37
1, 45800, Note_off_c, 0, 61, 64
1, 45816, Note_on_c, 0, 59, 38
1, 45900, Note_on_c, 0, 73, 54
1, 45938, Note_on_c, 0, 61, 38
1, 45986, Note_off_c, 0, 59, 64
1, 46008, Note_off_c, 0, 61, 64
1, 46014, Note_off_c, 0, 73, 64
1, 46027, Note_on_c, 0, 74, 55
1, 46059, Note_on_c, 0, 67, 39
1, 46072, Note_off_c, 0, 74, 64
1, 46090, Note_on_c, 0, 73, 42
1, 46139, Note_off_c, 0, 67, 64
1, 46139, Note_on_c, 0, 61, 39
1, 46161, Note_on_c, 0, 74, 65
1, 46161, Note_off_c, 0, 73, 64
1, 46195, Note_off_c, 0, 61, 64
1, 46207, Control_c, 0, 64, 0
1, 46218, Note_on_c, 0, 59, 38
1, 46222, Note_on_c, 0, 73, 57
1, 46232, Note_off_c, 0, 74, 64
1, 46268, Control_c, 0, 64, 127
1, 46290, Note_on_c, 0, 74, 70
1, 46304, Note_off_c, 0, 73, 64
1, 46309, Note_on_c, 0, 61, 48
1, 46353, Note_off_c, 0, 59, 64
1, 46356, Note_on_c, 0, 73, 62
1, 46367, Note_off_c, 0, 74, 64
1, 46376, Note_off_c, 0, 61, 64
1, 46413, Note_on_c, 0, 67, 40
1, 46421, Note_on_c, 0, 74, 69
1, 46435, Note_off_c, 0, 73, 64
1, 46468, Note_on_c, 0, 61, 44
1, 46484, Note_off_c, 0, 67, 64
1, 46488, Note_on_c, 0, 73, 66
1, 46496, Note_off_c, 0, 74, 64
1, 46543, Note_on_c, 0, 59, 54
1, 46548, Note_off_c, 0, 61, 64
1, 46548, Note_on_c, 0, 74, 78
1, 46552, Note_off_c, 0, 73, 64
1, 46618, Note_off_c, 0, 74, 64
1, 46618, Note_on_c, 0, 73, 70
1, 46632, Note_on_c, 0, 61, 55
1, 46680, Note_off_c, 0, 59, 64
1, 46680, Note_on_c, 0, 74, 67
1, 46694, Note_off_c, 0, 73, 64
1, 46727, Note_off_c, 0, 61, 64
1, 46727, Note_on_c, 0, 66, 57
1, 46755, Note_on_c, 0, 73, 67
1, 46760, Note_off_c, 0, 74, 64
1, 46800, Note_on_c, 0, 61, 50
1, 46821, Note_on_c, 0, 74, 67
1, 46831, Note_off_c, 0, 73, 64
1, 46867, Note_off_c, 0, 66, 64
1, 46880, Note_on_c, 0, 57, 52
1, 46885, Note_on_c, 0, 73, 73
1, 46891, Note_off_c, 0, 61, 64
1, 46891, Note_off_c, 0, 74, 64
1, 46952, Note_on_c, 0, 74, 78
1, 46955, Note_on_c, 0, 61, 64
1, 46964, Note_off_c, 0, 73, 64
1, 47003, Note_off_c, 0, 57, 64
1, 47012, Note_on_c, 0, 73, 79
1, 47022, Note_off_c, 0, 74, 64
1, 47037, Note_on_c, 0, 66, 65
1, 47053, Note_off_c, 0, 61, 64
1, 47081, Note_on_c, 0, 74, 78
1, 47086, Note_off_c, 0, 73, 64
1, 47111, Note_on_c, 0, 61, 65
1, 47140, Note_on_c, 0, 73, 73
1, 47153, Note_off_c, 0, 74, 64
1, 47168, Note_off_c, 0, 66, 64
1, 47197, Note_on_c, 0, 57, 70
1, 47200, Note_on_c, 0, 74, 91
1, 47206, Note_off_c, 0, 61, 64
1, 47223, Note_off_c, 0, 73, 64
1, 47260, Note_on_c, 0, 73, 88
1, 47264, Note_off_c, 0, 74, 64
1, 47276, Note_on_c, 0, 61, 76
1, 47310, Control_c, 0, 64, 0
1, 47329, Note_off_c, 0, 57, 64
1, 47332, Note_on_c, 0, 74, 74
1, 47348, Note_off_c, 0, 73, 64
1, 47360, Note_on_c, 0, 64, 84
1, 47379, Note_off_c, 0, 61, 64
1, 47387, Note_on_c, 0, 73, 86
1, 47399, Note_off_c, 0, 74, 64
1, 47406, Control_c, 0, 64, 127
1, 47427, Note_on_c, 0, 61, 69
1, 47457, Note_on_c, 0, 74, 84
1, 47457, Note_off_c, 0, 73, 64
1, 47468, Note_off_c, 0, 64, 64
1, 47505, Note_on_c, 0, 55, 71
1, 47523, Note_off_c, 0, 61, 64
1, 47523, Note_on_c, 0, 73, 62
1, 47527, Note_off_c, 0, 74, 64
1, 47582, Note_on_c, 0, 74, 87
1, 47593, Note_on_c, 0, 61, 61
1, 47607, Note_off_c, 0, 73, 64
1, 47629, Note_off_c, 0, 55, 64
1, 47654, Note_off_c, 0, 74, 64
1, 47661, Note_on_c, 0, 73, 70
1, 47669, Note_on_c, 0, 64, 72
1, 47675, Note_off_c, 0, 61, 64
1, 47724, Note_on_c, 0, 74, 61
1, 47735, Note_on_c, 0, 61, 63
1, 47767, Note_off_c, 0, 64, 64
1, 47796, Note_off_c, 0, 74, 64
1, 47822, Note_on_c, 0, 55, 56
1, 47828, Note_off_c, 0, 61, 64
1, 47844, Note_on_c, 0, 71, 79
1, 47861, Note_off_c, 0, 73, 64
1, 47917, Note_on_c, 0, 73, 71
1, 47952, Note_off_c, 0, 55, 64
1, 47956, Note_off_c, 0, 71, 64
1, 47981, Control_c, 0, 64, 0
1, 48005, Note_on_c, 0, 57, 58
1, 48012, Note_on_c, 0, 74, 104
1, 48012, Note_off_c, 0, 73, 64
1, 48114, Note_off_c, 0, 74, 64
1, 48119, Note_on_c, 0, 62, 69
1, 48126, Control_c, 0, 64, 127
1, 48129, Note_off_c, 0, 57, 64
1, 48195, Note_on_c, 0, 57, 49
1, 48221, Note_off_c, 0, 62, 64
1, 48292, Note_on_c, 0, 54, 75
1, 48306, Note_off_c, 0, 57, 64
1, 48384, Note_off_c, 0, 54, 64
1, 48401, Note_on_c, 0, 57, 52
1, 48401, Note_on_c, 0, 50, 98
1, 48401, Note_on_c, 0, 38, 99
1, 48507, Note_on_c, 0, 62, 64
1, 48523, Note_off_c, 0, 57, 64
1, 48585, Note_on_c, 0, 57, 41
1, 48610, Note_off_c, 0, 62, 64
1, 48683, Note_off_c, 0, 57, 64
1, 48683, Note_on_c, 0, 54, 59
1, 48769, Note_off_c, 0, 54, 64
1, 48803, Note_on_c, 0, 62, 80
1, 48886, Note_on_c, 0, 66, 64
1, 48889, Note_off_c, 0, 62, 64
1, 48953, Note_on_c, 0, 62, 56
1, 48991, Note_off_c, 0, 66, 64
1, 49039, Note_off_c, 0, 62, 64
1, 49039, Note_on_c, 0, 57, 72
1, 49131, Note_off_c, 0, 57, 64
1, 49142, Note_on_c, 0, 66, 76
1, 49229, Note_on_c, 0, 69, 66
1, 49249, Note_off_c, 0, 66, 64
1, 49304, Note_on_c, 0, 66, 55
1, 49349, Note_off_c, 0, 69, 64
1, 49374, Note_on_c, 0, 62, 76
1, 49391, Note_off_c, 0, 66, 64
1, 49412, Note_off_c, 0, 62, 64
1, 49471, Note_on_c, 0, 69, 82
1, 49499, Note_off_c, 0, 50, 64
1, 49537, Note_off_c, 0, 38, 64
1, 49551, Note_off_c, 0, 69, 64
1, 49551, Note_on_c, 0, 74, 72
1, 49633, Note_on_c, 0, 69, 45
1, 49639, Note_off_c, 0, 74, 64
1, 49683, Note_off_c, 0, 69, 64
1, 49707, Note_on_c, 0, 66, 57
1, 49786, Note_on_c, 0, 74, 79
1, 49805, Note_off_c, 0, 66, 64
1, 49856, Note_on_c, 0, 78, 79
1, 49875, Note_off_c, 0, 74, 64
1, 49931, Note_on_c, 0, 74, 60
1, 49972, Note_off_c, 0, 78, 64
1, 50006, Note_on_c, 0, 69, 56
1, 50019, Note_off_c, 0, 74, 64
1, 50114, Note_off_c, 0, 69, 64
1, 50129, Note_on_c, 0, 78, 75
1, 50220, Note_on_c, 0, 81, 69
1, 50231, Note_off_c, 0, 78, 64
1, 50306, Note_on_c, 0, 78, 40
1, 50320, Note_off_c, 0, 81, 64
1, 50373, Note_off_c, 0, 78, 64
1, 50398, Note_on_c, 0, 74, 55
1, 50568, Note_on_c, 0, 86, 104
1, 50572, Note_off_c, 0, 74, 64
1, 50619, Note_off_c, 0, 86, 64
1, 51207, Note_on_c, 0, 42, 92
1, 51207, Note_on_c, 0, 50, 96
1, 51207, Note_on_c, 0, 62, 98
1, 51210, Note_on_c, 0, 60, 85
1, 51210, Note_on_c, 0, 57, 75
1, 51210, Note_on_c, 0, 30, 96
1, 51229, Control_c, 0, 64, 0
1, 51471, Note_off_c, 0, 50, 64
1, 51493, Control_c, 0, 64, 127
1, 51511, Note_off_c, 0, 42, 64
1, 51530, Note_off_c, 0, 57, 64
1, 51540, Note_off_c, 0, 30, 64
1, 51555, Note_off_c, 0, 60, 64
1, 51586, Note_off_c, 0, 62, 64
1, 51872, Note_on_c, 0, 84, 102
1, 52446, Note_off_c, 0, 84, 64
1, 52525, Note_on_c, 0, 81, 89
1, 52588, Note_off_c, 0, 81, 64
1, 52672, Note_on_c, 0, 81, 81
1, 52725, Note_off_c, 0, 81, 64
1, 52781, Note_on_c, 0, 78, 86
1, 52814, Note_off_c, 0, 78, 64
1, 52892, Note_on_c, 0, 78, 78
1, 52958, Note_off_c, 0, 78, 64
1, 53000, Note_on_c, 0, 74, 88
1, 53029, Note_off_c, 0, 74, 64
1, 53101, Note_on_c, 0, 74, 83
1, 53145, Note_off_c, 0, 74, 64
1, 53201, Note_on_c, 0, 72, 69
1, 53240, Note_off_c, 0, 72, 64
1, 53298, Note_on_c, 0, 72, 79
1, 53369, Note_off_c, 0, 72, 64
1, 53399, Note_on_c, 0, 69, 69
1, 53435, Note_off_c, 0, 69, 64
1, 53497, Note_on_c, 0, 69, 40
1, 53546, Note_off_c, 0, 69, 64
1, 53594, Note_on_c, 0, 66, 69
1, 53624, Note_off_c, 0, 66, 64
1, 53683, Note_on_c, 0, 66, 50
1, 53764, Note_off_c, 0, 66, 64
1, 53775, Note_on_c, 0, 62, 72
1, 53806, Note_off_c, 0, 62, 64
1, 53858, Note_on_c, 0, 62, 86
1, 53914, Note_off_c, 0, 62, 64
1, 53950, Note_on_c, 0, 60, 85
1, 54009, Note_off_c, 0, 60, 64
1, 54036, Note_on_c, 0, 60, 71
1, 54087, Note_off_c, 0, 60, 64
1, 54132, Note_on_c, 0, 57, 67
1, 54170, Note_off_c, 0, 57, 64
1, 54217, Note_on_c, 0, 57, 74
1, 54276, Note_off_c, 0, 57, 64
1, 54324, Note_on_c, 0, 54, 73
1, 54357, Note_off_c, 0, 54, 64
1, 54399, Note_on_c, 0, 54, 90
1, 54472, Note_off_c, 0, 54, 64
1, 54507, Note_on_c, 0, 50, 68
1, 54544, Note_off_c, 0, 50, 64
1, 54596, Note_on_c, 0, 50, 83
1, 54685, Note_off_c, 0, 50, 64
1, 54861, Note_on_c, 0, 31, 80
1, 54922, Control_c, 0, 64, 0
1, 55001, Note_on_c, 0, 43, 58
1, 55089, Note_off_c, 0, 31, 64
1, 55129, Note_off_c, 0, 43, 64
1, 55135, Note_on_c, 0, 59, 46
1, 55149, Control_c, 0, 64, 127
1, 55206, Note_off_c, 0, 59, 64
1, 55237, Note_on_c, 0, 50, 62
1, 55274, Note_off_c, 0, 50, 64
1, 55368, Note_on_c, 0, 55, 53
1, 55418, Note_off_c, 0, 55, 64
1, 55471, Note_on_c, 0, 43, 43
1, 55538, Note_off_c, 0, 43, 64
1, 55574, Note_on_c, 0, 59, 52
1, 55653, Note_on_c, 0, 50, 63
1, 55672, Note_off_c, 0, 59, 64
1, 55691, Note_off_c, 0, 50, 64
1, 55770, Note_on_c, 0, 55, 61
1, 55831, Note_off_c, 0, 55, 64
1, 55855, Note_on_c, 0, 43, 41
1, 55953, Note_on_c, 0, 59, 67
1, 55979, Note_off_c, 0, 43, 64
1, 56021, Note_on_c, 0, 50, 70
1, 56054, Note_off_c, 0, 59, 64
1, 56054, Note_off_c, 0, 50, 64
1, 56146, Note_on_c, 0, 55, 67
1, 56227, Note_on_c, 0, 43, 62
1, 56246, Note_off_c, 0, 55, 64
1, 56340, Note_on_c, 0, 60, 73
1, 56376, Note_off_c, 0, 43, 64
1, 56415, Note_on_c, 0, 52, 75
1, 56443, Note_off_c, 0, 60, 64
1, 56443, Note_off_c, 0, 52, 64
1, 56521, Note_on_c, 0, 57, 72
1, 56599, Note_on_c, 0, 55, 74
1, 56622, Control_c, 0, 64, 0
1, 56714, Note_on_c, 0, 62, 70
1, 56730, Note_off_c, 0, 55, 64
1, 56742, Control_c, 0, 64, 127
1, 56748, Note_off_c, 0, 57, 64
1, 56776, Note_on_c, 0, 54, 85
1, 56831, Note_off_c, 0, 62, 64
1, 56854, Note_off_c, 0, 54, 64
1, 56884, Note_on_c, 0, 59, 83
1, 56962, Note_on_c, 0, 55, 75
1, 56970, Control_c, 0, 64, 0
1, 57073, Note_on_c, 0, 64, 89
1, 57088, Note_off_c, 0, 55, 64
1, 57103, Control_c, 0, 64, 127
1, 57121, Note_off_c, 0, 59, 64
1, 57146, Note_on_c, 0, 55, 76
1, 57204, Note_off_c, 0, 64, 64
1, 57204, Note_off_c, 0, 55, 64
1, 57244, Note_on_c, 0, 60, 89
1, 57326, Note_on_c, 0, 55, 84
1, 57326, Control_c, 0, 64, 0
1, 57435, Note_on_c, 0, 66, 73
1, 57474, Control_c, 0, 64, 127
1, 57489, Note_off_c, 0, 60, 64
1, 57493, Note_off_c, 0, 55, 64
1, 57511, Note_on_c, 0, 57, 85
1, 57588, Note_off_c, 0, 57, 64
1, 57608, Note_off_c, 0, 66, 64
1, 57617, Note_on_c, 0, 62, 98
1, 57641, Control_c, 0, 64, 0
1, 57730, Note_on_c, 0, 55, 85
1, 57755, Note_off_c, 0, 62, 64
1, 57761, Control_c, 0, 64, 127
1, 57815, Note_off_c, 0, 55, 64
1, 57825, Note_on_c, 0, 67, 79
1, 57918, Note_on_c, 0, 59, 92
1, 57937, Note_off_c, 0, 67, 64
1, 57962, Note_off_c, 0, 59, 64
1, 58212, Note_on_c, 0, 39, 90
1, 58212, Note_on_c, 0, 59, 97
1, 58212, Note_on_c, 0, 47, 94
1, 58212, Note_on_c, 0, 57, 76
1, 58215, Note_on_c, 0, 54, 90
1, 58215, Note_on_c, 0, 27, 94
1, 58240, Control_c, 0, 64, 0
1, 58474, Note_off_c, 0, 47, 64
1, 58505, Control_c, 0, 64, 127
1, 58539, Note_off_c, 0, 57, 64
1, 58542, Note_off_c, 0, 39, 64
1, 58547, Note_off_c, 0, 54, 64
1, 58553, Note_off_c, 0, 27, 64
1, 58569, Note_off_c, 0, 59, 64
1, 58851, Note_on_c, 0, 81, 103
1, 59360, Note_on_c, 0, 78, 82
1, 59382, Note_off_c, 0, 81, 64
1, 59421, Note_off_c, 0, 78, 64
1, 59507, Note_on_c, 0, 78, 87
1, 59536, Note_off_c, 0, 78, 64
1, 59645, Note_on_c, 0, 75, 86
1, 59687, Note_off_c, 0, 75, 64
1, 59789, Note_on_c, 0, 75, 88
1, 59826, Note_off_c, 0, 75, 64
1, 59907, Note_on_c, 0, 71, 94
1, 59962, Note_off_c, 0, 71, 64
1, 60045, Note_on_c, 0, 71, 100
1, 60077, Note_off_c, 0, 71, 64
1, 60173, Note_on_c, 0, 69, 81
1, 60208, Note_off_c, 0, 69, 64
1, 60282, Note_on_c, 0, 69, 58
1, 60315, Note_off_c, 0, 69, 64
1, 60396, Note_on_c, 0, 66, 85
1, 60450, Note_off_c, 0, 66, 64
1, 60496, Note_on_c, 0, 66, 69
1, 60527, Note_off_c, 0, 66, 64
1, 60602, Note_on_c, 0, 63, 90
1, 60670, Note_off_c, 0, 63, 64
1, 60709, Note_on_c, 0, 63, 73
1, 60736, Note_off_c, 0, 63, 64
1, 60808, Note_on_c, 0, 59, 86
1, 60848, Note_off_c, 0, 59, 64
1, 60914, Note_on_c, 0, 59, 76
1, 60942, Note_off_c, 0, 59, 64
1, 61004, Note_on_c, 0, 57, 80
1, 61049, Note_off_c, 0, 57, 64
1, 61093, Note_on_c, 0, 57, 86
1, 61121, Note_off_c, 0, 57, 64
1, 61201, Note_on_c, 0, 54, 86
1, 61263, Note_off_c, 0, 54, 64
1, 61282, Note_on_c, 0, 54, 51
1, 61315, Note_off_c, 0, 54, 64
1, 61393, Note_on_c, 0, 51, 82
1, 61475, Note_off_c, 0, 51, 64
1, 61503, Note_on_c, 0, 51, 82
1, 61586, Note_off_c, 0, 51, 64
1, 61602, Note_on_c, 0, 47, 73
1, 61658, Note_off_c, 0, 47, 64
1, 61715, Note_on_c, 0, 47, 64
1, 61772, Note_off_c, 0, 47, 64
1, 61990, Note_on_c, 0, 28, 63
1, 62123, Control_c, 0, 64, 0
1, 62137, Note_on_c, 0, 40, 57
1, 62243, Note_on_c, 0, 55, 62
1, 62254, Note_off_c, 0, 28, 64
1, 62297, Note_off_c, 0, 40, 64
1, 62316, Control_c, 0, 64, 127
1, 62355, Note_on_c, 0, 47, 43
1, 62363, Note_off_c, 0, 55, 64
1, 62413, Note_off_c, 0, 47, 64
1, 62497, Note_on_c, 0, 52, 66
1, 62578, Note_off_c, 0, 52, 64
1, 62586, Note_on_c, 0, 40, 62
1, 62684, Note_on_c, 0, 55, 59
1, 62695, Note_off_c, 0, 40, 64
1, 62759, Note_on_c, 0, 47, 57
1, 62839, Note_off_c, 0, 47, 64
1, 62856, Note_off_c, 0, 55, 64
1, 62873, Note_on_c, 0, 52, 85
1, 62956, Note_off_c, 0, 52, 64
1, 62970, Note_on_c, 0, 40, 76
1, 63052, Note_on_c, 0, 55, 73
1, 63090, Note_off_c, 0, 40, 64
1, 63119, Note_on_c, 0, 47, 65
1, 63157, Note_off_c, 0, 47, 64
1, 63227, Note_off_c, 0, 55, 64
1, 63265, Note_on_c, 0, 52, 80
1, 63322, Control_c, 0, 64, 0
1, 63344, Note_on_c, 0, 40, 81
1, 63406, Note_off_c, 0, 52, 64
1, 63414, Note_on_c, 0, 57, 66
1, 63445, Note_off_c, 0, 40, 64
1, 63453, Control_c, 0, 64, 127
1, 63488, Note_on_c, 0, 49, 74
1, 63520, Note_off_c, 0, 57, 64
1, 63531, Note_off_c, 0, 49, 64
1, 63617, Note_on_c, 0, 54, 78
1, 63704, Note_on_c, 0, 52, 81
1, 63778, Note_off_c, 0, 54, 64
1, 63792, Note_off_c, 0, 52, 64
1, 63804, Note_on_c, 0, 59, 78
1, 63887, Note_on_c, 0, 51, 78
1, 63928, Note_off_c, 0, 51, 64
1, 63942, Note_off_c, 0, 59, 64
1, 63988, Note_on_c, 0, 55, 85
1, 64029, Control_c, 0, 64, 0
1, 64084, Note_on_c, 0, 52, 83
1, 64132, Note_off_c, 0, 55, 64
1, 64160, Control_c, 0, 64, 127
1, 64171, Note_on_c, 0, 61, 84
1, 64176, Note_off_c, 0, 52, 64
1, 64249, Note_on_c, 0, 52, 74
1, 64294, Note_off_c, 0, 61, 64
1, 64305, Note_off_c, 0, 52, 64
1, 64357, Note_on_c, 0, 57, 79
1, 64400, Control_c, 0, 64, 0
1, 64444, Note_on_c, 0, 52, 78
1, 64498, Note_off_c, 0, 57, 64
1, 64520, Note_on_c, 0, 63, 75
1, 64533, Control_c, 0, 64, 127
1, 64587, Note_off_c, 0, 52, 64
1, 64594, Note_on_c, 0, 54, 88
1, 64656, Note_off_c, 0, 63, 64
1, 64676, Note_off_c, 0, 54, 64
1, 64723, Note_on_c, 0, 59, 89
1, 64772, Control_c, 0, 64, 0
1, 64823, Note_on_c, 0, 52, 87
1, 64849, Note_off_c, 0, 59, 64
1, 64892, Control_c, 0, 64, 127
1, 64899, Note_off_c, 0, 52, 64
1, 64909, Note_on_c, 0, 64, 90
1, 64999, Note_on_c, 0, 55, 88
1, 65104, Note_off_c, 0, 64, 64
1, 65104, Note_off_c, 0, 55, 64
1, 65121, Note_on_c, 0, 52, 97
1, 65185, Note_on_c, 0, 40, 93
1, 65252, Control_c, 0, 64, 0
1, 65324, Note_on_c, 0, 65, 85
1, 65324, Note_on_c, 0, 60, 89
1, 65335, Note_off_c, 0, 52, 64
1, 65339, Note_off_c, 0, 40, 64
1, 65371, Control_c, 0, 64, 127
1, 65453, Note_off_c, 0, 65, 64
1, 65458, Note_off_c, 0, 60, 64
1, 65467, Note_on_c, 0, 53, 100
1, 65520, Note_off_c, 0, 53, 64
1, 65642, Note_on_c, 0, 64, 94
1, 65753, Note_on_c, 0, 52, 84
1, 65860, Note_on_c, 0, 77, 84
1, 65860, Note_on_c, 0, 72, 72
1, 65895, Note_off_c, 0, 64, 64
1, 65895, Note_on_c, 0, 65, 73
1, 65913, Note_off_c, 0, 52, 64
1, 65987, Note_off_c, 0, 77, 64
1, 66027, Note_off_c, 0, 65, 64
1, 66052, Note_on_c, 0, 62, 90
1, 66059, Note_off_c, 0, 72, 64
1, 66102, Control_c, 0, 64, 0
1, 66154, Note_on_c, 0, 50, 83
1, 66213, Note_off_c, 0, 62, 64
1, 66246, Control_c, 0, 64, 127
1, 66249, Note_off_c, 0, 50, 64
1, 66261, Note_on_c, 0, 77, 77
1, 66269, Note_on_c, 0, 71, 82
1, 66296, Note_on_c, 0, 65, 87
1, 66330, Note_off_c, 0, 65, 64
1, 66338, Note_off_c, 0, 77, 64
1, 66364, Note_off_c, 0, 71, 64
1, 66452, Note_on_c, 0, 50, 84
1, 66519, Note_on_c, 0, 38, 81
1, 66551, Note_off_c, 0, 50, 64
1, 66631, Note_on_c, 0, 65, 85
1, 66637, Note_on_c, 0, 59, 88
1, 66647, Note_off_c, 0, 38, 64
1, 66715, Note_on_c, 0, 53, 99
1, 66745, Note_off_c, 0, 65, 64
1, 66761, Note_off_c, 0, 59, 64
1, 66806, Note_on_c, 0, 50, 92
1, 66826, Note_off_c, 0, 53, 64
1, 66885, Note_on_c, 0, 38, 92
1, 66929, Control_c, 0, 64, 0
1, 66976, Note_off_c, 0, 50, 64
1, 66998, Note_on_c, 0, 64, 92
1, 66998, Note_on_c, 0, 59, 85
1, 67035, Note_off_c, 0, 38, 64
1, 67062, Control_c, 0, 64, 127
1, 67069, Note_on_c, 0, 52, 97
1, 67099, Note_off_c, 0, 52, 64
1, 67127, Note_off_c, 0, 59, 64
1, 67160, Note_off_c, 0, 64, 64
1, 67227, Note_on_c, 0, 62, 98
1, 67328, Note_on_c, 0, 50, 85
1, 67427, Note_on_c, 0, 76, 74
1, 67430, Note_on_c, 0, 71, 86
1, 67470, Note_off_c, 0, 62, 64
1, 67498, Note_off_c, 0, 50, 64
1, 67520, Note_on_c, 0, 64, 84
1, 67537, Note_off_c, 0, 76, 64
1, 67617, Note_off_c, 0, 71, 64
1, 67620, Note_on_c, 0, 60, 94
1, 67620, Note_off_c, 0, 64, 64
1, 67672, Control_c, 0, 64, 0
1, 67729, Note_on_c, 0, 48, 73
1, 67798, Note_off_c, 0, 60, 64
1, 67815, Note_on_c, 0, 76, 75
1, 67815, Control_c, 0, 64, 127
1, 67828, Note_on_c, 0, 69, 68
1, 67834, Note_off_c, 0, 48, 64
1, 67891, Note_off_c, 0, 76, 64
1, 67902, Note_on_c, 0, 64, 79
1, 67924, Note_off_c, 0, 69, 64
1, 67938, Note_off_c, 0, 64, 64
1, 67996, Note_on_c, 0, 48, 81
1, 68085, Note_on_c, 0, 36, 89
1, 68119, Note_off_c, 0, 48, 64
1, 68183, Note_on_c, 0, 64, 81
1, 68191, Note_on_c, 0, 57, 72
1, 68211, Note_off_c, 0, 36, 64
1, 68266, Note_on_c, 0, 52, 98
1, 68272, Note_off_c, 0, 64, 64
1, 68339, Note_on_c, 0, 36, 78
1, 68347, Note_off_c, 0, 52, 64
1, 68389, Note_off_c, 0, 57, 64
1, 68392, Control_c, 0, 64, 0
1, 68442, Note_on_c, 0, 48, 87
1, 68446, Note_on_c, 0, 58, 82
1, 68446, Note_on_c, 0, 55, 98
1, 68449, Note_on_c, 0, 64, 101
1, 68534, Note_off_c, 0, 55, 64
1, 68534, Control_c, 0, 64, 127
1, 68556, Note_off_c, 0, 58, 64
1, 68569, Note_off_c, 0, 36, 64
1, 68569, Note_off_c, 0, 64, 64
1, 68625, Note_off_c, 0, 48, 64
1, 68784, Note_on_c, 0, 76, 100
1, 69136, Note_off_c, 0, 76, 64
1, 69147, Note_on_c, 0, 70, 64
1, 69203, Note_off_c, 0, 70, 64
1, 69246, Note_on_c, 0, 70, 78
1, 69320, Note_off_c, 0, 70, 64
1, 69344, Note_on_c, 0, 64, 89
1, 69380, Note_off_c, 0, 64, 64
1, 69433, Note_on_c, 0, 64, 98
1, 69484, Note_off_c, 0, 64, 64
1, 69534, Note_on_c, 0, 58, 76
1, 69569, Note_off_c, 0, 58, 64
1, 69612, Note_on_c, 0, 58, 75
1, 69682, Note_off_c, 0, 58, 64
1, 69706, Note_on_c, 0, 53, 110
1, 69728, Note_off_c, 0, 53, 64
1, 69812, Note_on_c, 0, 52, 115
1, 69863, Note_off_c, 0, 52, 64
1, 69974, Control_c, 0, 64, 0
1, 70047, Note_on_c, 0, 58, 79
1, 70047, Note_on_c, 0, 52, 102
1, 70047, Note_on_c, 0, 64, 100
1, 70058, Note_on_c, 0, 48, 84
1, 70063, Note_on_c, 0, 36, 80
1, 70141, Control_c, 0, 64, 127
1, 70149, Note_off_c, 0, 48, 64
1, 70154, Note_off_c, 0, 52, 64
1, 70169, Note_off_c, 0, 64, 64
1, 70178, Note_off_c, 0, 36, 64
1, 70216, Note_off_c, 0, 58, 64
1, 70236, Control_c, 0, 64, 0
1, 70345, Note_on_c, 0, 54, 100
1, 70345, Note_on_c, 0, 63, 95
1, 70350, Note_on_c, 0, 59, 92
1, 70350, Note_on_c, 0, 47, 91
1, 70350, Note_on_c, 0, 35, 101
1, 70397, Note_off_c, 0, 35, 64
1, 70423, Note_off_c, 0, 47, 64
1, 70447, Note_off_c, 0, 54, 64
1, 70453, Control_c, 0, 64, 127
1, 70473, Note_off_c, 0, 59, 64
1, 70509, Note_off_c, 0, 63, 64
1, 70896, Note_on_c, 0, 78, 59
1, 70932, Control_c, 0, 64, 0
1, 71004, Note_on_c, 0, 71, 59
1, 71088, Control_c, 0, 64, 127
1, 71094, Note_off_c, 0, 78, 64
1, 71102, Note_off_c, 0, 71, 64
1, 71128, Note_on_c, 0, 83, 76
1, 71222, Note_on_c, 0, 75, 44
1, 71250, Note_off_c, 0, 83, 64
1, 71278, Note_off_c, 0, 75, 64
1, 71331, Note_on_c, 0, 78, 43
1, 71411, Note_off_c, 0, 78, 64
1, 71422, Note_on_c, 0, 71, 45
1, 71473, Note_off_c, 0, 71, 64
1, 71520, Note_on_c, 0, 83, 72
1, 71603, Note_on_c, 0, 75, 44
1, 71612, Note_off_c, 0, 83, 64
1, 71651, Note_off_c, 0, 75, 64
1, 71718, Note_on_c, 0, 78, 59
1, 71735, Control_c, 0, 64, 0
1, 71806, Note_on_c, 0, 71, 61
1, 71843, Control_c, 0, 64, 127
1, 71876, Note_off_c, 0, 71, 64
1, 71891, Note_off_c, 0, 78, 64
1, 71901, Note_on_c, 0, 83, 81
1, 71982, Note_on_c, 0, 75, 54
1, 72016, Note_off_c, 0, 83, 64
1, 72022, Note_off_c, 0, 75, 64
1, 72096, Note_on_c, 0, 79, 75
1, 72107, Control_c, 0, 64, 0
1, 72200, Note_on_c, 0, 71, 59
1, 72239, Control_c, 0, 64, 127
1, 72252, Note_off_c, 0, 79, 64
1, 72300, Note_on_c, 0, 84, 52
1, 72308, Note_off_c, 0, 71, 64
1, 72387, Note_on_c, 0, 76, 42
1, 72415, Note_off_c, 0, 84, 64
1, 72434, Note_off_c, 0, 76, 64
1, 72495, Note_on_c, 0, 79, 64
1, 72601, Note_on_c, 0, 71, 43
1, 72607, Note_off_c, 0, 79, 64
1, 72657, Note_off_c, 0, 71, 64
1, 72665, Note_on_c, 0, 84, 56
1, 72763, Note_on_c, 0, 76, 37
1, 72781, Note_off_c, 0, 84, 64
1, 72859, Note_off_c, 0, 76, 64
1, 72876, Note_on_c, 0, 76, 37
1, 72971, Note_off_c, 0, 76, 64
1, 72985, Note_on_c, 0, 71, 52
1, 73043, Note_off_c, 0, 71, 64
1, 73077, Note_on_c, 0, 81, 44
1, 73146, Note_on_c, 0, 72, 54
1, 73161, Note_off_c, 0, 81, 64
1, 73185, Note_off_c, 0, 72, 64
1, 73264, Note_on_c, 0, 76, 45
1, 73330, Note_off_c, 0, 76, 64
1, 73372, Note_on_c, 0, 71, 22
1, 73430, Note_off_c, 0, 71, 64
1, 73436, Note_on_c, 0, 81, 54
1, 73518, Note_on_c, 0, 72, 44
1, 73547, Note_off_c, 0, 81, 64
1, 73565, Note_off_c, 0, 72, 64
1, 73631, Note_on_c, 0, 78, 44
1, 73640, Control_c, 0, 64, 0
1, 73717, Note_on_c, 0, 71, 58
1, 73759, Note_off_c, 0, 78, 64
1, 73773, Control_c, 0, 64, 127
1, 73781, Note_off_c, 0, 71, 64
1, 73818, Note_on_c, 0, 83, 71
1, 73879, Note_off_c, 0, 83, 64
1, 73894, Note_on_c, 0, 74, 55
1, 73938, Note_off_c, 0, 74, 64
1, 73990, Note_on_c, 0, 78, 55
1, 74082, Note_on_c, 0, 71, 52
1, 74096, Note_off_c, 0, 78, 64
1, 74124, Note_off_c, 0, 71, 64
1, 74161, Note_on_c, 0, 83, 75
1, 74220, Note_off_c, 0, 83, 64
1, 74244, Note_on_c, 0, 74, 47
1, 74281, Note_off_c, 0, 74, 64
1, 74336, Note_on_c, 0, 74, 63
1, 74434, Note_on_c, 0, 71, 59
1, 74439, Note_off_c, 0, 74, 64
1, 74478, Note_off_c, 0, 71, 64
1, 74515, Note_on_c, 0, 79, 62
1, 74565, Note_off_c, 0, 79, 64
1, 74592, Note_on_c, 0, 71, 67
1, 74634, Note_off_c, 0, 71, 64
1, 74704, Note_on_c, 0, 74, 60
1, 74773, Note_off_c, 0, 74, 64
1, 74773, Note_on_c, 0, 71, 70
1, 74816, Note_off_c, 0, 71, 64
1, 74874, Note_on_c, 0, 79, 76
1, 74952, Note_on_c, 0, 71, 63
1, 74968, Note_off_c, 0, 79, 64
1, 74999, Note_off_c, 0, 71, 64
1, 75043, Control_c, 0, 64, 0
1, 75053, Note_on_c, 0, 76, 55
1, 75138, Note_on_c, 0, 71, 56
1, 75150, Control_c, 0, 64, 127
1, 75163, Note_off_c, 0, 76, 64
1, 75199, Note_off_c, 0, 71, 64
1, 75236, Note_on_c, 0, 81, 54
1, 75311, Note_off_c, 0, 81, 64
1, 75321, Note_on_c, 0, 72, 41
1, 75369, Note_off_c, 0, 72, 64
1, 75422, Note_on_c, 0, 76, 48
1, 75501, Note_off_c, 0, 76, 64
1, 75520, Note_on_c, 0, 71, 38
1, 75573, Note_off_c, 0, 71, 64
1, 75595, Note_on_c, 0, 81, 47
1, 75665, Note_off_c, 0, 81, 64
1, 75676, Note_on_c, 0, 72, 51
1, 75726, Note_off_c, 0, 72, 64
1, 75787, Control_c, 0, 64, 0
1, 75791, Note_on_c, 0, 73, 47
1, 75872, Note_off_c, 0, 73, 64
1, 75882, Control_c, 0, 64, 127
1, 75885, Note_on_c, 0, 71, 53
1, 75932, Note_off_c, 0, 71, 64
1, 75980, Note_on_c, 0, 79, 55
1, 76058, Note_off_c, 0, 79, 64
1, 76058, Note_on_c, 0, 70, 40
1, 76111, Note_off_c, 0, 70, 64
1, 76180, Note_on_c, 0, 73, 36
1, 76238, Note_off_c, 0, 73, 64
1, 76253, Note_on_c, 0, 71, 54
1, 76305, Note_off_c, 0, 71, 64
1, 76367, Note_on_c, 0, 79, 63
1, 76445, Note_on_c, 0, 70, 42
1, 76472, Note_off_c, 0, 79, 64
1, 76489, Note_off_c, 0, 70, 64
1, 76576, Note_on_c, 0, 75, 43
1, 76637, Control_c, 0, 64, 0
1, 76684, Note_on_c, 0, 71, 49
1, 76741, Note_off_c, 0, 75, 64
1, 76744, Control_c, 0, 64, 127
1, 76779, Note_off_c, 0, 71, 64
1, 76785, Note_on_c, 0, 78, 47
1, 76855, Note_on_c, 0, 71, 46
1, 76893, Note_off_c, 0, 78, 64
1, 76916, Note_off_c, 0, 71, 64
1, 76969, Note_on_c, 0, 75, 47
1, 77036, Note_off_c, 0, 75, 64
1, 77057, Note_on_c, 0, 71, 42
1, 77111, Note_off_c, 0, 71, 64
1, 77147, Note_on_c, 0, 78, 56
1, 77228, Note_off_c, 0, 78, 64
1, 77242, Note_on_c, 0, 71, 55
1, 77284, Note_off_c, 0, 71, 64
1, 77323, Note_on_c, 0, 75, 35
1, 77401, Note_off_c, 0, 75, 64
1, 77401, Note_on_c, 0, 71, 49
1, 77443, Note_off_c, 0, 71, 64
1, 77496, Note_on_c, 0, 78, 46
1, 77576, Note_on_c, 0, 71, 61
1, 77592, Note_off_c, 0, 78, 64
1, 77613, Note_off_c, 0, 71, 64
1, 77696, Note_on_c, 0, 71, 38
1, 77787, Note_on_c, 0, 59, 43
1, 77830, Note_off_c, 0, 71, 64
1, 77836, Note_off_c, 0, 59, 64
1, 77900, Note_on_c, 0, 66, 42
1, 78007, Note_off_c, 0, 66, 64
1, 78017, Note_on_c, 0, 75, 37
1, 78060, Note_off_c, 0, 75, 64
1, 78125, Note_on_c, 0, 72, 63
1, 78134, Control_c, 0, 64, 0
1, 78244, Control_c, 0, 64, 127
1, 78258, Note_on_c, 0, 59, 29
1, 78311, Note_off_c, 0, 72, 64
1, 78365, Note_on_c, 0, 67, 42
1, 78378, Note_off_c, 0, 59, 64
1, 78445, Note_off_c, 0, 67, 64
1, 78459, Note_on_c, 0, 76, 37
1, 78504, Note_off_c, 0, 76, 64
1, 78546, Note_on_c, 0, 72, 61
1, 78648, Note_off_c, 0, 72, 64
1, 78666, Note_on_c, 0, 59, 61
1, 78710, Note_off_c, 0, 59, 64
1, 78729, Note_on_c, 0, 67, 53
1, 78804, Note_off_c, 0, 67, 64
1, 78819, Note_on_c, 0, 76, 47
1, 78858, Note_off_c, 0, 76, 64
1, 78919, Note_on_c, 0, 69, 52
1, 79003, Note_on_c, 0, 59, 64
1, 79049, Note_off_c, 0, 69, 64
1, 79095, Note_off_c, 0, 59, 64
1, 79111, Note_on_c, 0, 64, 52
1, 79181, Note_on_c, 0, 72, 59
1, 79203, Note_off_c, 0, 64, 64
1, 79262, Note_on_c, 0, 69, 59
1, 79265, Note_off_c, 0, 72, 64
1, 79343, Note_on_c, 0, 59, 71
1, 79375, Note_off_c, 0, 69, 64
1, 79439, Note_on_c, 0, 64, 67
1, 79478, Note_off_c, 0, 59, 64
1, 79520, Note_on_c, 0, 72, 61
1, 79528, Note_off_c, 0, 64, 64
1, 79560, Note_off_c, 0, 72, 64
1, 79624, Note_on_c, 0, 71, 88
1, 79657, Control_c, 0, 64, 0
1, 79754, Note_on_c, 0, 59, 57
1, 79801, Control_c, 0, 64, 127
1, 79822, Note_off_c, 0, 71, 64
1, 79844, Note_on_c, 0, 66, 34
1, 79879, Note_off_c, 0, 59, 64
1, 79936, Note_on_c, 0, 74, 63
1, 79958, Note_off_c, 0, 66, 64
1, 79983, Note_off_c, 0, 74, 64
1, 80030, Note_on_c, 0, 71, 77
1, 80148, Note_on_c, 0, 59, 43
1, 80152, Note_off_c, 0, 71, 64
1, 80198, Note_on_c, 0, 66, 47
1, 80256, Note_off_c, 0, 59, 64
1, 80297, Note_on_c, 0, 74, 69
1, 80304, Note_off_c, 0, 66, 64
1, 80326, Note_off_c, 0, 74, 64
1, 80386, Note_on_c, 0, 67, 66
1, 80448, Control_c, 0, 64, 0
1, 80496, Note_on_c, 0, 59, 46
1, 80556, Control_c, 0, 64, 127
1, 80573, Note_off_c, 0, 67, 64
1, 80573, Note_off_c, 0, 59, 64
1, 80579, Note_on_c, 0, 62, 55
1, 80648, Note_on_c, 0, 71, 59
1, 80662, Note_off_c, 0, 62, 64
1, 80696, Note_off_c, 0, 71, 64
1, 80733, Note_on_c, 0, 67, 63
1, 80811, Note_on_c, 0, 59, 60
1, 80886, Note_on_c, 0, 62, 62
1, 80908, Note_off_c, 0, 67, 64
1, 80927, Note_off_c, 0, 59, 64
1, 80978, Note_off_c, 0, 62, 64
1, 80978, Note_on_c, 0, 71, 68
1, 81042, Note_off_c, 0, 71, 64
1, 81070, Note_on_c, 0, 69, 65
1, 81119, Control_c, 0, 64, 0
1, 81201, Note_on_c, 0, 59, 52
1, 81226, Control_c, 0, 64, 127
1, 81289, Note_on_c, 0, 64, 57
1, 81301, Note_off_c, 0, 59, 64
1, 81307, Note_off_c, 0, 69, 64
1, 81371, Note_on_c, 0, 72, 56
1, 81378, Note_off_c, 0, 64, 64
1, 81420, Note_off_c, 0, 72, 64
1, 81451, Note_on_c, 0, 69, 57
1, 81551, Note_on_c, 0, 59, 49
1, 81602, Note_on_c, 0, 64, 59
1, 81618, Note_off_c, 0, 69, 64
1, 81652, Note_off_c, 0, 59, 64
1, 81693, Note_on_c, 0, 72, 54
1, 81693, Note_off_c, 0, 64, 64
1, 81738, Note_off_c, 0, 72, 64
1, 81774, Note_on_c, 0, 67, 65
1, 81814, Control_c, 0, 64, 0
1, 81880, Note_on_c, 0, 59, 45
1, 81935, Control_c, 0, 64, 127
1, 81955, Note_on_c, 0, 61, 51
1, 81980, Note_off_c, 0, 67, 64
1, 81986, Note_off_c, 0, 59, 64
1, 82050, Note_on_c, 0, 70, 34
1, 82056, Note_off_c, 0, 61, 64
1, 82125, Note_off_c, 0, 70, 64
1, 82134, Note_on_c, 0, 67, 51
1, 82229, Note_on_c, 0, 59, 34
1, 82237, Note_off_c, 0, 67, 64
1, 82276, Note_off_c, 0, 59, 64
1, 82281, Note_on_c, 0, 61, 49
1, 82360, Note_off_c, 0, 61, 64
1, 82396, Note_on_c, 0, 70, 34
1, 82449, Note_off_c, 0, 70, 64
1, 82560, Note_on_c, 0, 66, 33
1, 82654, Control_c, 0, 64, 0
1, 82682, Note_on_c, 0, 59, 33
1, 82760, Note_on_c, 0, 63, 47
1, 82791, Note_off_c, 0, 59, 64
1, 82797, Control_c, 0, 64, 127
1, 82821, Note_off_c, 0, 66, 64
1, 82853, Note_on_c, 0, 71, 51
1, 82891, Note_off_c, 0, 63, 64
1, 82927, Note_off_c, 0, 71, 64
1, 82947, Note_on_c, 0, 66, 43
1, 83044, Note_on_c, 0, 59, 52
1, 83059, Note_off_c, 0, 66, 64
1, 83098, Note_off_c, 0, 59, 64
1, 83116, Note_on_c, 0, 63, 55
1, 83200, Note_on_c, 0, 71, 61
1, 83212, Note_off_c, 0, 63, 64
1, 83251, Note_off_c, 0, 71, 64
1, 83287, Note_on_c, 0, 66, 46
1, 83364, Note_on_c, 0, 59, 56
1, 83382, Note_off_c, 0, 66, 64
1, 83435, Note_off_c, 0, 59, 64
1, 83448, Note_on_c, 0, 63, 57
1, 83529, Note_on_c, 0, 71, 59
1, 83529, Note_off_c, 0, 63, 64
1, 83571, Note_off_c, 0, 71, 64
1, 83610, Note_on_c, 0, 66, 53
1, 83708, Note_off_c, 0, 66, 64
1, 83719, Note_on_c, 0, 59, 48
1, 83782, Note_on_c, 0, 63, 56
1, 83800, Note_off_c, 0, 59, 64
1, 83872, Note_on_c, 0, 71, 69
1, 83899, Note_off_c, 0, 63, 64
1, 83938, Note_off_c, 0, 71, 64
1, 83988, Note_on_c, 0, 66, 49
1, 84103, Note_on_c, 0, 59, 55
1, 84128, Control_c, 0, 64, 0
1, 84204, Note_on_c, 0, 62, 63
1, 84248, Control_c, 0, 64, 127
1, 84261, Note_off_c, 0, 66, 64
1, 84264, Note_off_c, 0, 59, 64
1, 84315, Note_on_c, 0, 71, 67
1, 84367, Note_off_c, 0, 62, 64
1, 84404, Note_on_c, 0, 66, 65
1, 84428, Note_off_c, 0, 71, 64
1, 84496, Note_on_c, 0, 59, 72
1, 84527, Note_off_c, 0, 66, 64
1, 84576, Note_on_c, 0, 62, 84
1, 84608, Note_off_c, 0, 59, 64
1, 84668, Note_on_c, 0, 71, 80
1, 84707, Note_off_c, 0, 62, 64
1, 84750, Note_on_c, 0, 66, 77
1, 84766, Note_off_c, 0, 71, 64
1, 84844, Note_on_c, 0, 59, 75
1, 84888, Note_off_c, 0, 66, 64
1, 84917, Note_on_c, 0, 62, 88
1, 84959, Note_off_c, 0, 59, 64
1, 85009, Note_on_c, 0, 71, 88
1, 85048, Note_off_c, 0, 62, 64
1, 85089, Note_on_c, 0, 66, 75
1, 85109, Note_off_c, 0, 71, 64
1, 85192, Note_on_c, 0, 59, 76
1, 85228, Note_off_c, 0, 66, 64
1, 85261, Note_off_c, 0, 59, 64
1, 85281, Note_on_c, 0, 62, 81
1, 85387, Note_on_c, 0, 71, 97
1, 85412, Note_off_c, 0, 62, 64
1, 85421, Note_off_c, 0, 71, 64
1, 85583, Note_on_c, 0, 45, 100
1, 85583, Note_on_c, 0, 33, 100
1, 85649, Control_c, 0, 64, 0
1, 85746, Note_off_c, 0, 33, 64
1, 85750, Note_on_c, 0, 52, 100
1, 85772, Note_off_c, 0, 45, 64
1, 85782, Control_c, 0, 64, 127
1, 85867, Note_on_c, 0, 55, 89
1, 85886, Note_off_c, 0, 52, 64
1, 85959, Note_on_c, 0, 60, 81
1, 85983, Note_off_c, 0, 55, 64
1, 86028, Note_off_c, 0, 60, 64
1, 86095, Note_on_c, 0, 72, 91
1, 86209, Note_on_c, 0, 67, 85
1, 86232, Note_off_c, 0, 72, 64
1, 86310, Note_on_c, 0, 72, 81
1, 86348, Note_off_c, 0, 67, 64
1, 86409, Note_off_c, 0, 72, 64
1, 86415, Note_on_c, 0, 79, 90
1, 86448, Note_off_c, 0, 79, 64
1, 86502, Note_on_c, 0, 79, 96
1, 86594, Note_on_c, 0, 72, 90
1, 86643, Note_off_c, 0, 79, 64
1, 86691, Note_on_c, 0, 79, 90
1, 86736, Note_off_c, 0, 72, 64
1, 86792, Note_on_c, 0, 84, 96
1, 86817, Note_off_c, 0, 79, 64
1, 86856, Note_off_c, 0, 84, 64
1, 86906, Note_on_c, 0, 84, 101
1, 87022, Note_on_c, 0, 79, 97
1, 87055, Note_off_c, 0, 84, 64
1, 87120, Note_on_c, 0, 84, 90
1, 87159, Note_off_c, 0, 79, 64
1, 87206, Note_on_c, 0, 50, 96
1, 87206, Control_c, 0, 64, 0
1, 87221, Note_on_c, 0, 91, 94
1, 87245, Note_off_c, 0, 84, 64
1, 87260, Note_on_c, 0, 57, 88
1, 87278, Note_off_c, 0, 50, 64
1, 87328, Note_on_c, 0, 60, 59
1, 87338, Control_c, 0, 64, 127
1, 87412, Note_off_c, 0, 57, 64
1, 87415, Note_on_c, 0, 90, 92
1, 87430, Note_on_c, 0, 66, 90
1, 87454, Note_off_c, 0, 66, 64
1, 87457, Note_off_c, 0, 60, 64
1, 87498, Note_off_c, 0, 91, 64
1, 87557, Note_on_c, 0, 88, 89
1, 87627, Note_off_c, 0, 90, 64
1, 87666, Note_on_c, 0, 86, 91
1, 87711, Note_off_c, 0, 88, 64
1, 87763, Note_on_c, 0, 84, 96
1, 87788, Note_off_c, 0, 86, 64
1, 87852, Note_on_c, 0, 83, 111
1, 87884, Note_off_c, 0, 84, 64
1, 87942, Note_on_c, 0, 81, 93
1, 87973, Note_off_c, 0, 83, 64
1, 88019, Note_on_c, 0, 79, 94
1, 88023, Note_off_c, 0, 81, 64
1, 88097, Note_on_c, 0, 78, 86
1, 88120, Note_off_c, 0, 79, 64
1, 88173, Note_on_c, 0, 76, 81
1, 88231, Note_off_c, 0, 78, 64
1, 88248, Note_on_c, 0, 74, 93
1, 88284, Note_off_c, 0, 76, 64
1, 88312, Note_on_c, 0, 72, 78
1, 88312, Note_off_c, 0, 74, 64
1, 88377, Note_on_c, 0, 71, 94
1, 88412, Note_off_c, 0, 72, 64
1, 88454, Note_on_c, 0, 69, 75
1, 88493, Note_off_c, 0, 71, 64
1, 88502, Note_on_c, 0, 67, 81
1, 88529, Note_off_c, 0, 69, 64
1, 88583, Note_on_c, 0, 66, 78
1, 88607, Note_off_c, 0, 67, 64
1, 88650, Note_on_c, 0, 64, 88
1, 88719, Note_off_c, 0, 66, 64
1, 88719, Note_on_c, 0, 62, 85
1, 88761, Note_off_c, 0, 64, 64
1, 88772, Note_on_c, 0, 60, 80
1, 88794, Note_off_c, 0, 62, 64
1, 88838, Note_on_c, 0, 59, 87
1, 88874, Note_off_c, 0, 60, 64
1, 88895, Note_on_c, 0, 57, 82
1, 88925, Note_off_c, 0, 59, 64
1, 88953, Note_on_c, 0, 55, 84
1, 88966, Note_off_c, 0, 57, 64
1, 89014, Note_on_c, 0, 54, 86
1, 89050, Note_off_c, 0, 55, 64
1, 89075, Note_on_c, 0, 52, 95
1, 89136, Note_on_c, 0, 50, 89
1, 89148, Note_off_c, 0, 54, 64
1, 89175, Note_off_c, 0, 52, 64
1, 89189, Note_on_c, 0, 48, 75
1, 89206, Note_off_c, 0, 50, 64
1, 89249, Note_on_c, 0, 47, 89
1, 89292, Note_off_c, 0, 48, 64
1, 89315, Note_on_c, 0, 45, 79
1, 89352, Note_off_c, 0, 47, 64
1, 89366, Note_off_c, 0, 45, 64
1, 89407, Note_on_c, 0, 43, 108
1, 89407, Note_on_c, 0, 31, 108
1, 89460, Control_c, 0, 64, 0
1, 89691, Note_off_c, 0, 31, 64
1, 89713, Control_c, 0, 64, 127
1, 89747, Note_off_c, 0, 43, 64
1, 89984, Note_on_c, 0, 79, 105
1, 89998, Note_on_c, 0, 47, 67
1, 89998, Note_on_c, 0, 67, 73
1, 90132, Note_off_c, 0, 47, 64
1, 90146, Note_on_c, 0, 55, 53
1, 90257, Note_on_c, 0, 47, 61
1, 90268, Note_off_c, 0, 55, 64
1, 90335, Note_off_c, 0, 47, 64
1, 90345, Note_on_c, 0, 43, 65
1, 90454, Note_on_c, 0, 48, 64
1, 90504, Control_c, 0, 64, 0
1, 90546, Note_on_c, 0, 57, 67
1, 90589, Note_off_c, 0, 48, 64
1, 90611, Control_c, 0, 64, 127
1, 90636, Note_off_c, 0, 43, 64
1, 90649, Note_on_c, 0, 48, 60
1, 90660, Note_off_c, 0, 79, 64
1, 90666, Note_off_c, 0, 57, 64
1, 90725, Note_on_c, 0, 43, 62
1, 90746, Note_off_c, 0, 48, 64
1, 90805, Note_on_c, 0, 50, 73
1, 90823, Note_on_c, 0, 74, 92
1, 90863, Control_c, 0, 64, 0
1, 90897, Note_on_c, 0, 59, 59
1, 90897, Note_on_c, 0, 57, 41
1, 90906, Note_off_c, 0, 50, 64
1, 90945, Note_off_c, 0, 57, 64
1, 90958, Note_off_c, 0, 59, 64
1, 90958, Control_c, 0, 64, 127
1, 90992, Note_off_c, 0, 43, 64
1, 91018, Note_on_c, 0, 71, 98
1, 91036, Note_on_c, 0, 50, 70
1, 91078, Note_off_c, 0, 67, 64
1, 91078, Note_off_c, 0, 74, 64
1, 91095, Note_off_c, 0, 50, 64
1, 91109, Note_on_c, 0, 43, 70
1, 91176, Note_off_c, 0, 43, 64
1, 91229, Note_on_c, 0, 69, 81
1, 91229, Note_on_c, 0, 52, 69
1, 91259, Note_off_c, 0, 71, 64
1, 91259, Control_c, 0, 64, 0
1, 91363, Note_off_c, 0, 52, 64
1, 91363, Note_on_c, 0, 60, 63
1, 91366, Control_c, 0, 64, 127
1, 91416, Note_off_c, 0, 60, 64
1, 91468, Note_on_c, 0, 52, 65
1, 91499, Note_off_c, 0, 52, 64
1, 91535, Note_off_c, 0, 69, 64
1, 91535, Note_on_c, 0, 43, 72
1, 91535, Note_on_c, 0, 67, 71
1, 91568, Note_off_c, 0, 43, 64
1, 91571, Note_off_c, 0, 67, 64
1, 91610, Note_on_c, 0, 67, 87
1, 91639, Note_on_c, 0, 54, 84
1, 91666, Control_c, 0, 64, 0
1, 91728, Note_on_c, 0, 62, 75
1, 91741, Note_off_c, 0, 54, 64
1, 91761, Control_c, 0, 64, 127
1, 91780, Note_off_c, 0, 62, 64
1, 91816, Note_on_c, 0, 54, 56
1, 91856, Note_off_c, 0, 54, 64
1, 91920, Note_on_c, 0, 43, 73
1, 91942, Note_off_c, 0, 67, 64
1, 91984, Note_off_c, 0, 43, 64
1, 91990, Note_on_c, 0, 67, 85
1, 92025, Note_on_c, 0, 52, 70
1, 92025, Control_c, 0, 64, 0
1, 92101, Note_on_c, 0, 60, 70
1, 92101, Note_off_c, 0, 52, 64
1, 92121, Control_c, 0, 64, 127
1, 92140, Note_off_c, 0, 60, 64
1, 92187, Note_on_c, 0, 52, 52
1, 92254, Note_off_c, 0, 52, 64
1, 92279, Note_on_c, 0, 43, 68
1, 92293, Note_off_c, 0, 67, 64
1, 92335, Note_off_c, 0, 43, 64
1, 92346, Note_on_c, 0, 67, 85
1, 92346, Note_on_c, 0, 50, 69
1, 92362, Control_c, 0, 64, 0
1, 92437, Note_on_c, 0, 59, 66
1, 92451, Note_off_c, 0, 50, 64
1, 92457, Control_c, 0, 64, 127
1, 92493, Note_off_c, 0, 59, 64
1, 92525, Note_on_c, 0, 50, 50
1, 92566, Note_off_c, 0, 50, 64
1, 92599, Note_on_c, 0, 43, 69
1, 92630, Note_off_c, 0, 67, 64
1, 92691, Note_on_c, 0, 48, 52
1, 92691, Note_on_c, 0, 64, 101
1, 92699, Note_off_c, 0, 43, 64
1, 92720, Control_c, 0, 64, 0
1, 92772, Note_on_c, 0, 57, 58
1, 92786, Note_off_c, 0, 48, 64
1, 92855, Note_on_c, 0, 48, 46
1, 92855, Control_c, 0, 64, 127
1, 92875, Note_off_c, 0, 57, 64
1, 92956, Note_on_c, 0, 43, 67
1, 92961, Note_off_c, 0, 48, 64
1, 93061, Note_on_c, 0, 47, 70
1, 93079, Control_c, 0, 64, 0
1, 93146, Note_on_c, 0, 55, 72
1, 93163, Note_off_c, 0, 47, 64
1, 93173, Note_off_c, 0, 43, 64
1, 93188, Control_c, 0, 64, 127
1, 93237, Note_on_c, 0, 47, 54
1, 93260, Note_off_c, 0, 55, 64
1, 93329, Note_on_c, 0, 43, 81
1, 93329, Note_off_c, 0, 47, 64
1, 93432, Note_off_c, 0, 64, 64
1, 93452, Note_on_c, 0, 66, 88
1, 93460, Note_on_c, 0, 45, 60
1, 93488, Control_c, 0, 64, 0
1, 93578, Note_off_c, 0, 43, 64
1, 93589, Note_on_c, 0, 54, 73
1, 93596, Note_on_c, 0, 67, 81
1, 93600, Note_off_c, 0, 45, 64
1, 93616, Note_off_c, 0, 66, 64
1, 93616, Control_c, 0, 64, 127
1, 93666, Note_off_c, 0, 67, 64
1, 93672, Note_on_c, 0, 66, 59
1, 93672, Note_on_c, 0, 45, 35
1, 93689, Note_off_c, 0, 54, 64
1, 93734, Note_on_c, 0, 67, 79
1, 93759, Note_off_c, 0, 66, 64
1, 93764, Note_on_c, 0, 43, 63
1, 93772, Note_off_c, 0, 45, 64
1, 93775, Note_off_c, 0, 67, 64
1, 93803, Note_on_c, 0, 66, 70
1, 93822, Note_on_c, 0, 45, 64
1, 93848, Note_off_c, 0, 43, 64
1, 93855, Note_off_c, 0, 66, 64
1, 93872, Note_on_c, 0, 67, 54
1, 93906, Note_on_c, 0, 66, 63
1, 93914, Note_off_c, 0, 67, 64
1, 93926, Note_off_c, 0, 45, 64
1, 93926, Note_on_c, 0, 54, 69
1, 93961, Note_on_c, 0, 67, 76
1, 93979, Note_off_c, 0, 66, 64
1, 93987, Note_on_c, 0, 45, 34
1, 94006, Note_off_c, 0, 54, 64
1, 94026, Note_on_c, 0, 66, 72
1, 94054, Note_off_c, 0, 67, 64
1, 94065, Note_on_c, 0, 43, 68
1, 94084, Note_off_c, 0, 45, 64
1, 94096, Note_on_c, 0, 64, 85
1, 94104, Note_off_c, 0, 66, 64
1, 94139, Note_on_c, 0, 45, 49
1, 94165, Note_on_c, 0, 66, 65
1, 94207, Note_off_c, 0, 64, 64
1, 94291, Note_on_c, 0, 67, 91
1, 94294, Note_on_c, 0, 54, 37
1, 94326, Note_off_c, 0, 45, 64
1, 94326, Control_c, 0, 64, 0
1, 94332, Note_off_c, 0, 66, 64
1, 94351, Note_off_c, 0, 54, 64
1, 94366, Note_on_c, 0, 47, 62
1, 94479, Note_off_c, 0, 47, 64
1, 94488, Note_on_c, 0, 55, 71
1, 94518, Control_c, 0, 64, 127
1, 94547, Note_off_c, 0, 43, 64
1, 94571, Note_on_c, 0, 47, 39
1, 94585, Note_off_c, 0, 55, 64
1, 94663, Note_on_c, 0, 43, 63
1, 94663, Note_off_c, 0, 47, 64
1, 94733, Note_on_c, 0, 47, 47
1, 94798, Note_off_c, 0, 43, 64
1, 94823, Note_off_c, 0, 47, 64
1, 94823, Note_on_c, 0, 55, 58
1, 94889, Note_off_c, 0, 55, 64
1, 94906, Note_on_c, 0, 47, 43
1, 94986, Note_off_c, 0, 47, 64
1, 94995, Note_on_c, 0, 43, 66
1, 95082, Note_on_c, 0, 47, 49
1, 95101, Note_off_c, 0, 43, 64
1, 95149, Note_off_c, 0, 47, 64
1, 95160, Note_on_c, 0, 55, 65
1, 95188, Note_off_c, 0, 67, 64
1, 95241, Note_on_c, 0, 47, 40
1, 95260, Note_off_c, 0, 55, 64
1, 95298, Note_off_c, 0, 47, 64
1, 95304, Note_on_c, 0, 43, 68
1, 95338, Note_off_c, 0, 43, 64
1, 95407, Note_on_c, 0, 67, 66
1, 95411, Note_on_c, 0, 53, 109
1, 95411, Note_on_c, 0, 41, 93
1, 95507, Note_on_c, 0, 71, 65
1, 95510, Note_off_c, 0, 67, 64
1, 95581, Note_on_c, 0, 67, 45
1, 95638, Note_off_c, 0, 71, 64
1, 95674, Note_on_c, 0, 62, 63
1, 95688, Note_off_c, 0, 67, 64
1, 95714, Note_off_c, 0, 53, 64
1, 95714, Note_off_c, 0, 41, 64
1, 95761, Note_on_c, 0, 67, 59
1, 95767, Note_on_c, 0, 52, 101
1, 95770, Note_on_c, 0, 40, 98
1, 95812, Control_c, 0, 64, 0
1, 95812, Note_off_c, 0, 62, 64
1, 95850, Note_on_c, 0, 72, 66
1, 95873, Note_off_c, 0, 67, 64
1, 95926, Note_on_c, 0, 67, 67
1, 95987, Note_off_c, 0, 72, 64
1, 95992, Control_c, 0, 64, 127
1, 96023, Note_on_c, 0, 60, 72
1, 96048, Note_off_c, 0, 67, 64
1, 96115, Note_on_c, 0, 67, 57
1, 96121, Note_off_c, 0, 60, 64
1, 96201, Note_on_c, 0, 72, 69
1, 96207, Note_off_c, 0, 67, 64
1, 96276, Note_on_c, 0, 67, 60
1, 96294, Note_off_c, 0, 72, 64
1, 96347, Note_off_c, 0, 52, 64
1, 96355, Note_on_c, 0, 60, 73
1, 96386, Note_off_c, 0, 67, 64
1, 96396, Note_off_c, 0, 60, 64
1, 96489, Note_on_c, 0, 71, 96
1, 96489, Note_on_c, 0, 50, 91
1, 96492, Note_off_c, 0, 40, 64
1, 96496, Note_on_c, 0, 38, 83
1, 96591, Note_on_c, 0, 77, 73
1, 96617, Note_off_c, 0, 71, 64
1, 96669, Note_on_c, 0, 71, 75
1, 96728, Note_off_c, 0, 77, 64
1, 96751, Note_on_c, 0, 65, 75
1, 96772, Control_c, 0, 64, 0
1, 96772, Note_off_c, 0, 71, 64
1, 96847, Note_on_c, 0, 71, 72
1, 96903, Control_c, 0, 64, 127
1, 96903, Note_off_c, 0, 65, 64
1, 96925, Note_on_c, 0, 77, 71
1, 96948, Note_off_c, 0, 71, 64
1, 97004, Note_on_c, 0, 71, 73
1, 97042, Note_off_c, 0, 77, 64
1, 97067, Note_off_c, 0, 50, 64
1, 97085, Note_on_c, 0, 65, 71
1, 97127, Note_off_c, 0, 71, 64
1, 97149, Note_off_c, 0, 38, 64
1, 97149, Note_on_c, 0, 48, 82
1, 97152, Note_on_c, 0, 36, 88
1, 97168, Note_on_c, 0, 72, 78
1, 97191, Control_c, 0, 64, 0
1, 97202, Note_off_c, 0, 65, 64
1, 97244, Note_on_c, 0, 76, 72
1, 97273, Note_off_c, 0, 72, 64
1, 97319, Note_on_c, 0, 72, 76
1, 97386, Note_off_c, 0, 76, 64
1, 97400, Note_on_c, 0, 67, 67
1, 97407, Control_c, 0, 64, 127
1, 97429, Note_off_c, 0, 72, 64
1, 97491, Note_on_c, 0, 72, 59
1, 97549, Note_off_c, 0, 67, 64
1, 97591, Note_on_c, 0, 76, 70
1, 97613, Note_off_c, 0, 72, 64
1, 97663, Note_on_c, 0, 72, 72
1, 97723, Note_off_c, 0, 76, 64
1, 97737, Note_off_c, 0, 36, 64
1, 97748, Note_on_c, 0, 67, 61
1, 97770, Note_off_c, 0, 72, 64
1, 97812, Note_off_c, 0, 48, 64
1, 97831, Note_on_c, 0, 72, 68
1, 97892, Note_off_c, 0, 67, 64
1, 97926, Note_on_c, 0, 76, 75
1, 97939, Note_off_c, 0, 72, 64
1, 98003, Note_on_c, 0, 72, 42
1, 98049, Note_off_c, 0, 76, 64
1, 98074, Note_on_c, 0, 67, 73
1, 98082, Note_off_c, 0, 72, 64
1, 98165, Note_on_c, 0, 60, 92
1, 98165, Note_on_c, 0, 48, 78
1, 98179, Note_off_c, 0, 67, 64
1, 98179, Note_on_c, 0, 74, 89
1, 98237, Note_on_c, 0, 78, 72
1, 98258, Note_off_c, 0, 74, 64
1, 98282, Control_c, 0, 64, 0
1, 98333, Note_on_c, 0, 74, 60
1, 98389, Control_c, 0, 64, 127
1, 98400, Note_off_c, 0, 78, 64
1, 98405, Note_on_c, 0, 69, 74
1, 98424, Note_off_c, 0, 74, 64
1, 98439, Note_off_c, 0, 60, 64
1, 98446, Note_off_c, 0, 48, 64
1, 98488, Note_on_c, 0, 59, 95
1, 98488, Note_on_c, 0, 47, 92
1, 98494, Note_on_c, 0, 74, 84
1, 98585, Note_on_c, 0, 79, 92
1, 98603, Note_off_c, 0, 69, 64
1, 98603, Note_off_c, 0, 74, 64
1, 98606, Control_c, 0, 64, 0
1, 98667, Note_on_c, 0, 74, 73
1, 98733, Note_off_c, 0, 79, 64
1, 98747, Note_on_c, 0, 67, 84
1, 98747, Control_c, 0, 64, 127
1, 98767, Note_off_c, 0, 74, 64
1, 98836, Note_on_c, 0, 74, 78
1, 98856, Note_off_c, 0, 67, 64
1, 98918, Note_on_c, 0, 79, 88
1, 98932, Note_off_c, 0, 74, 64
1, 98984, Note_on_c, 0, 74, 70
1, 99040, Note_off_c, 0, 79, 64
1, 99057, Note_on_c, 0, 67, 77
1, 99070, Note_off_c, 0, 59, 64
1, 99084, Note_off_c, 0, 47, 64
1, 99084, Note_off_c, 0, 74, 64
1, 99090, Note_off_c, 0, 67, 64
1, 99159, Note_on_c, 0, 57, 93
1, 99162, Note_on_c, 0, 45, 89
1, 99162, Note_on_c, 0, 78, 92
1, 99241, Control_c, 0, 64, 0
1, 99262, Note_on_c, 0, 84, 94
1, 99285, Note_off_c, 0, 78, 64
1, 99330, Note_on_c, 0, 78, 73
1, 99399, Note_off_c, 0, 84, 64
1, 99408, Control_c, 0, 64, 127
1, 99411, Note_on_c, 0, 72, 81
1, 99441, Note_off_c, 0, 78, 64
1, 99510, Note_on_c, 0, 78, 71
1, 99536, Note_off_c, 0, 72, 64
1, 99594, Note_on_c, 0, 84, 88
1, 99609, Note_off_c, 0, 78, 64
1, 99667, Note_on_c, 0, 78, 63
1, 99717, Note_off_c, 0, 84, 64
1, 99725, Note_off_c, 0, 57, 64
1, 99733, Note_off_c, 0, 45, 64
1, 99736, Note_on_c, 0, 72, 83
1, 99764, Note_off_c, 0, 78, 64
1, 99817, Note_on_c, 0, 78, 86
1, 99817, Note_on_c, 0, 55, 95
1, 99817, Note_on_c, 0, 43, 89
1, 99825, Note_off_c, 0, 72, 64
1, 99840, Control_c, 0, 64, 0
1, 99918, Note_on_c, 0, 83, 103
1, 99945, Note_off_c, 0, 78, 64
1, 99993, Control_c, 0, 64, 127
1, 99993, Note_on_c, 0, 78, 75
1, 100049, Note_off_c, 0, 83, 64
1, 100068, Note_on_c, 0, 71, 88
1, 100102, Note_off_c, 0, 78, 64
1, 100155, Note_on_c, 0, 78, 76
1, 100199, Note_off_c, 0, 71, 64
1, 100252, Note_on_c, 0, 83, 99
1, 100274, Note_off_c, 0, 78, 64
1, 100318, Note_on_c, 0, 78, 78
1, 100368, Note_off_c, 0, 83, 64
1, 100405, Note_on_c, 0, 71, 89
1, 100441, Note_off_c, 0, 78, 64
1, 100513, Note_on_c, 0, 76, 90
1, 100534, Control_c, 0, 64, 0
1, 100603, Note_on_c, 0, 83, 103
1, 100612, Note_off_c, 0, 43, 64
1, 100622, Note_off_c, 0, 76, 64
1, 100630, Control_c, 0, 64, 127
1, 100647, Note_off_c, 0, 55, 64
1, 100666, Note_off_c, 0, 71, 64
1, 100700, Note_on_c, 0, 76, 50
1, 100736, Note_off_c, 0, 83, 64
1, 100773, Note_on_c, 0, 71, 90
1, 100786, Note_off_c, 0, 76, 64
1, 100853, Note_on_c, 0, 67, 98
1, 100853, Note_on_c, 0, 76, 71
1, 100859, Note_on_c, 0, 55, 89
1, 100909, Note_off_c, 0, 71, 64
1, 100929, Note_on_c, 0, 83, 105
1, 100951, Note_off_c, 0, 76, 64
1, 101017, Note_on_c, 0, 76, 64
1, 101057, Note_off_c, 0, 83, 64
1, 101095, Note_off_c, 0, 55, 64
1, 101095, Note_on_c, 0, 71, 90
1, 101104, Note_off_c, 0, 67, 64
1, 101118, Note_off_c, 0, 76, 64
1, 101180, Note_on_c, 0, 66, 98
1, 101180, Note_on_c, 0, 76, 76
1, 101187, Note_on_c, 0, 54, 103
1, 101218, Control_c, 0, 64, 0
1, 101233, Note_off_c, 0, 71, 64
1, 101272, Note_on_c, 0, 81, 85
1, 101299, Note_off_c, 0, 76, 64
1, 101355, Note_on_c, 0, 76, 67
1, 101374, Control_c, 0, 64, 127
1, 101414, Note_off_c, 0, 81, 64
1, 101441, Note_on_c, 0, 69, 78
1, 101475, Note_off_c, 0, 76, 64
1, 101534, Note_on_c, 0, 76, 73
1, 101583, Note_off_c, 0, 69, 64
1, 101623, Note_on_c, 0, 81, 84
1, 101651, Note_off_c, 0, 76, 64
1, 101694, Note_on_c, 0, 76, 85
1, 101694, Note_off_c, 0, 66, 64
1, 101740, Note_off_c, 0, 81, 64
1, 101765, Note_on_c, 0, 69, 73
1, 101809, Note_off_c, 0, 76, 64
1, 101836, Note_off_c, 0, 54, 64
1, 101859, Note_on_c, 0, 74, 94
1, 101938, Note_on_c, 0, 81, 80
1, 101943, Note_off_c, 0, 69, 64
1, 101949, Note_off_c, 0, 74, 64
1, 102016, Note_on_c, 0, 74, 73
1, 102054, Note_off_c, 0, 81, 64
1, 102087, Note_on_c, 0, 69, 65
1, 102113, Note_off_c, 0, 74, 64
1, 102155, Note_on_c, 0, 54, 98
1, 102160, Note_on_c, 0, 42, 87
1, 102172, Note_on_c, 0, 74, 75
1, 102224, Note_off_c, 0, 69, 64
1, 102244, Note_on_c, 0, 81, 80
1, 102258, Note_off_c, 0, 74, 64
1, 102329, Note_on_c, 0, 74, 64
1, 102374, Note_off_c, 0, 81, 64
1, 102405, Note_on_c, 0, 69, 72
1, 102442, Note_off_c, 0, 74, 64
1, 102446, Note_off_c, 0, 54, 64
1, 102492, Note_off_c, 0, 42, 64
1, 102520, Note_on_c, 0, 52, 105
1, 102525, Note_on_c, 0, 40, 100
1, 102525, Note_on_c, 0, 74, 83
1, 102548, Control_c, 0, 64, 0
1, 102631, Note_on_c, 0, 79, 89
1, 102650, Note_off_c, 0, 74, 64
1, 102675, Note_off_c, 0, 40, 64
1, 102700, Note_off_c, 0, 69, 64
1, 102700, Note_on_c, 0, 74, 79
1, 102704, Control_c, 0, 64, 127
1, 102720, Note_off_c, 0, 52, 64
1, 102762, Note_off_c, 0, 79, 64
1, 102798, Note_on_c, 0, 67, 83
1, 102854, Note_off_c, 0, 74, 64
1, 102876, Note_on_c, 0, 64, 99
1, 102881, Note_on_c, 0, 52, 93
1, 102887, Note_on_c, 0, 72, 84
1, 102959, Note_off_c, 0, 67, 64
1, 102967, Control_c, 0, 64, 0
1, 102970, Note_on_c, 0, 79, 88
1, 102999, Note_off_c, 0, 72, 64
1, 103066, Note_on_c, 0, 72, 63
1, 103088, Control_c, 0, 64, 127
1, 103118, Note_off_c, 0, 79, 64
1, 103146, Note_on_c, 0, 67, 73
1, 103149, Note_off_c, 0, 64, 64
1, 103162, Note_off_c, 0, 52, 64
1, 103171, Note_off_c, 0, 72, 64
1, 103219, Control_c, 0, 64, 0
1, 103230, Note_on_c, 0, 72, 70
1, 103233, Note_on_c, 0, 62, 92
1, 103236, Note_on_c, 0, 50, 92
1, 103260, Note_off_c, 0, 67, 64
1, 103322, Note_on_c, 0, 78, 78
1, 103339, Control_c, 0, 64, 127
1, 103350, Note_off_c, 0, 72, 64
1, 103396, Note_off_c, 0, 62, 64
1, 103405, Note_on_c, 0, 72, 60
1, 103452, Note_off_c, 0, 78, 64
1, 103452, Note_off_c, 0, 50, 64
1, 103486, Note_on_c, 0, 66, 68
1, 103523, Note_off_c, 0, 72, 64
1, 103562, Note_on_c, 0, 50, 98
1, 103565, Note_on_c, 0, 38, 90
1, 103575, Note_on_c, 0, 71, 85
1, 103617, Note_off_c, 0, 66, 64
1, 103625, Note_on_c, 0, 78, 79
1, 103673, Note_off_c, 0, 71, 64
1, 103723, Note_on_c, 0, 71, 89
1, 103764, Note_off_c, 0, 78, 64
1, 103778, Note_on_c, 0, 66, 67
1, 103806, Note_off_c, 0, 50, 64
1, 103806, Note_off_c, 0, 71, 64
1, 103834, Note_off_c, 0, 38, 64
1, 103862, Note_off_c, 0, 66, 64
1, 103871, Note_on_c, 0, 71, 81
1, 103890, Control_c, 0, 64, 0
1, 103890, Note_on_c, 0, 48, 90
1, 103893, Note_on_c, 0, 36, 97
1, 103952, Note_on_c, 0, 76, 78
1, 103963, Note_off_c, 0, 36, 64
1, 103984, Note_off_c, 0, 71, 64
1, 103998, Control_c, 0, 64, 127
1, 104010, Note_off_c, 0, 48, 64
1, 104029, Note_on_c, 0, 71, 85
1, 104085, Note_off_c, 0, 76, 64
1, 104116, Note_on_c, 0, 64, 81
1, 104154, Note_off_c, 0, 71, 64
1, 104185, Note_on_c, 0, 60, 97
1, 104189, Note_on_c, 0, 48, 84
1, 104196, Note_on_c, 0, 69, 82
1, 104227, Note_off_c, 0, 64, 64
1, 104272, Note_on_c, 0, 76, 71
1, 104289, Note_off_c, 0, 69, 64
1, 104353, Note_on_c, 0, 69, 54
1, 104400, Note_off_c, 0, 76, 64
1, 104427, Note_on_c, 0, 64, 83
1, 104450, Note_off_c, 0, 60, 64
1, 104459, Note_off_c, 0, 69, 64
1, 104477, Note_off_c, 0, 48, 64
1, 104514, Control_c, 0, 64, 0
1, 104514, Note_on_c, 0, 59, 92
1, 104514, Note_on_c, 0, 69, 78
1, 104520, Note_on_c, 0, 47, 89
1, 104541, Note_off_c, 0, 64, 64
1, 104606, Note_on_c, 0, 74, 90
1, 104625, Note_off_c, 0, 69, 64
1, 104645, Control_c, 0, 64, 127
1, 104653, Note_off_c, 0, 59, 64
1, 104675, Note_on_c, 0, 69, 61
1, 104709, Note_off_c, 0, 47, 64
1, 104736, Note_off_c, 0, 74, 64
1, 104761, Note_on_c, 0, 62, 85
1, 104810, Note_off_c, 0, 69, 64
1, 104837, Note_on_c, 0, 47, 88
1, 104845, Note_on_c, 0, 35, 95
1, 104845, Note_on_c, 0, 67, 87
1, 104890, Note_off_c, 0, 62, 64
1, 104918, Note_on_c, 0, 74, 84
1, 104949, Note_off_c, 0, 67, 64
1, 104995, Note_on_c, 0, 67, 77
1, 105037, Note_off_c, 0, 74, 64
1, 105060, Note_off_c, 0, 47, 64
1, 105066, Note_on_c, 0, 62, 81
1, 105087, Note_off_c, 0, 35, 64
1, 105093, Note_off_c, 0, 67, 64
1, 105149, Control_c, 0, 64, 0
1, 105155, Note_on_c, 0, 67, 81
1, 105155, Note_on_c, 0, 45, 93
1, 105163, Note_on_c, 0, 33, 98
1, 105190, Note_off_c, 0, 62, 64
1, 105239, Note_on_c, 0, 72, 85
1, 105246, Note_off_c, 0, 33, 64
1, 105260, Note_off_c, 0, 67, 64
1, 105282, Control_c, 0, 64, 127
1, 105286, Note_off_c, 0, 45, 64
1, 105305, Note_on_c, 0, 67, 77
1, 105367, Note_off_c, 0, 72, 64
1, 105375, Note_on_c, 0, 60, 89
1, 105422, Note_off_c, 0, 67, 64
1, 105461, Note_on_c, 0, 66, 80
1, 105461, Note_on_c, 0, 57, 93
1, 105469, Note_on_c, 0, 45, 85
1, 105506, Note_off_c, 0, 60, 64
1, 105531, Note_on_c, 0, 72, 75
1, 105541, Note_off_c, 0, 57, 64
1, 105564, Note_off_c, 0, 66, 64
1, 105605, Note_off_c, 0, 45, 64
1, 105608, Note_on_c, 0, 66, 73
1, 105648, Note_off_c, 0, 72, 64
1, 105678, Note_on_c, 0, 60, 81
1, 105740, Note_off_c, 0, 66, 64
1, 105754, Note_on_c, 0, 47, 97
1, 105759, Note_on_c, 0, 35, 101
1, 105771, Note_on_c, 0, 67, 83
1, 105820, Control_c, 0, 64, 0
1, 105828, Note_off_c, 0, 60, 64
1, 105842, Note_on_c, 0, 71, 87
1, 105882, Note_off_c, 0, 67, 64
1, 105924, Note_on_c, 0, 67, 85
1, 105952, Control_c, 0, 64, 127
1, 105982, Note_off_c, 0, 71, 64
1, 105988, Note_off_c, 0, 35, 64
1, 105994, Note_on_c, 0, 62, 79
1, 106007, Note_off_c, 0, 47, 64
1, 106033, Note_off_c, 0, 67, 64
1, 106066, Note_on_c, 0, 48, 96
1, 106073, Note_on_c, 0, 36, 94
1, 106080, Note_on_c, 0, 67, 79
1, 106115, Note_off_c, 0, 62, 64
1, 106119, Control_c, 0, 64, 0
1, 106161, Note_on_c, 0, 71, 83
1, 106188, Note_off_c, 0, 67, 64
1, 106244, Note_on_c, 0, 67, 66
1, 106263, Control_c, 0, 64, 127
1, 106299, Note_off_c, 0, 71, 64
1, 106331, Note_on_c, 0, 64, 80
1, 106342, Note_off_c, 0, 36, 64
1, 106358, Note_off_c, 0, 67, 64
1, 106363, Note_off_c, 0, 48, 64
1, 106450, Note_on_c, 0, 67, 76
1, 106450, Note_on_c, 0, 50, 95
1, 106453, Note_on_c, 0, 38, 89
1, 106503, Control_c, 0, 64, 0
1, 106509, Note_off_c, 0, 64, 64
1, 106559, Note_on_c, 0, 69, 51
1, 106600, Note_off_c, 0, 67, 64
1, 106668, Note_on_c, 0, 67, 57
1, 106718, Control_c, 0, 64, 127
1, 106775, Note_on_c, 0, 57, 71
1, 106778, Note_off_c, 0, 69, 64
1, 106789, Note_off_c, 0, 67, 64
1, 106890, Note_on_c, 0, 67, 59
1, 106935, Control_c, 0, 64, 0
1, 106991, Note_on_c, 0, 69, 64
1, 106994, Note_off_c, 0, 67, 64
1, 107037, Note_off_c, 0, 57, 64
1, 107054, Control_c, 0, 64, 127
1, 107077, Note_on_c, 0, 67, 59
1, 107118, Note_off_c, 0, 69, 64
1, 107174, Note_on_c, 0, 59, 69
1, 107179, Note_off_c, 0, 67, 64
1, 107246, Control_c, 0, 64, 0
1, 107281, Note_on_c, 0, 67, 59
1, 107364, Note_on_c, 0, 69, 56
1, 107388, Note_off_c, 0, 67, 64
1, 107402, Control_c, 0, 64, 127
1, 107433, Note_off_c, 0, 59, 64
1, 107458, Note_on_c, 0, 67, 43
1, 107514, Note_off_c, 0, 69, 64
1, 107575, Note_on_c, 0, 60, 53
1, 107592, Note_off_c, 0, 67, 64
1, 107665, Control_c, 0, 64, 0
1, 107720, Note_on_c, 0, 66, 47
1, 107829, Note_on_c, 0, 69, 37
1, 107834, Control_c, 0, 64, 127
1, 107843, Note_off_c, 0, 66, 64
1, 107913, Note_off_c, 0, 60, 64
1, 107932, Note_off_c, 0, 50, 64
1, 107968, Note_on_c, 0, 66, 35
1, 108012, Note_off_c, 0, 69, 64
1, 108030, Note_off_c, 0, 38, 64
1, 108107, Note_on_c, 0, 60, 55
1, 108129, Note_off_c, 0, 66, 64
1, 108302, Note_on_c, 0, 62, 52
1, 108310, Note_on_c, 0, 43, 44
1, 108316, Note_on_c, 0, 31, 52
1, 108336, Control_c, 0, 64, 0
1, 108373, Note_off_c, 0, 60, 64
1, 108466, Note_on_c, 0, 67, 44
1, 108476, Note_off_c, 0, 62, 64
1, 108572, Note_on_c, 0, 62, 35
1, 108593, Note_off_c, 0, 67, 64
1, 108664, Note_off_c, 0, 62, 64
1, 108681, Note_on_c, 0, 59, 43
1, 108707, Control_c, 0, 64, 127
1, 108749, Note_off_c, 0, 59, 64
1, 108802, Note_on_c, 0, 62, 43
1, 108854, Note_off_c, 0, 62, 64
1, 108890, Note_on_c, 0, 67, 43
1, 108958, Note_off_c, 0, 67, 64
1, 108994, Note_on_c, 0, 62, 35
1, 109046, Note_off_c, 0, 62, 64
1, 109072, Note_on_c, 0, 59, 36
1, 109130, Note_off_c, 0, 59, 64
1, 109188, Note_on_c, 0, 62, 40
1, 109228, Note_off_c, 0, 31, 64
1, 109231, Note_off_c, 0, 62, 64
1, 109264, Note_on_c, 0, 67, 35
1, 109311, Note_off_c, 0, 43, 64
1, 109331, Note_off_c, 0, 67, 64
1, 109380, Note_on_c, 0, 62, 29
1, 109428, Note_off_c, 0, 62, 64
1, 109445, Note_on_c, 0, 59, 34
1, 109509, Note_off_c, 0, 59, 64
1, 109554, Note_on_c, 0, 62, 27
1, 109604, Note_off_c, 0, 62, 64
1, 109650, Note_on_c, 0, 67, 25
1, 109745, Note_off_c, 0, 67, 64
1, 109776, Note_on_c, 0, 62, 22
1, 109831, Note_off_c, 0, 62, 64
1, 109854, Note_on_c, 0, 59, 38
1, 110008, Note_off_c, 0, 59, 64
1, 110063, Note_on_c, 0, 60, 32
1, 110086, Note_on_c, 0, 76, 64
1, 110242, Note_off_c, 0, 60, 64
1, 110267, Note_on_c, 0, 67, 33
1, 110302, Control_c, 0, 64, 0
1, 110391, Note_on_c, 0, 60, 32
1, 110433, Note_off_c, 0, 67, 64
1, 110447, Note_off_c, 0, 60, 64
1, 110470, Control_c, 0, 64, 127
1, 110478, Note_on_c, 0, 59, 29
1, 110539, Note_off_c, 0, 59, 64
1, 110589, Note_on_c, 0, 60, 34
1, 110650, Note_off_c, 0, 60, 64
1, 110650, Note_off_c, 0, 76, 64
1, 110682, Note_on_c, 0, 67, 36
1, 110770, Note_off_c, 0, 67, 64
1, 110793, Note_on_c, 0, 60, 29
1, 110846, Note_off_c, 0, 60, 64
1, 110863, Note_on_c, 0, 59, 38
1, 110915, Note_off_c, 0, 59, 64
1, 110915, Note_on_c, 0, 76, 61
1, 110944, Note_on_c, 0, 60, 23
1, 110949, Control_c, 0, 64, 0
1, 111008, Note_off_c, 0, 60, 64
1, 111046, Note_on_c, 0, 67, 36
1, 111105, Control_c, 0, 64, 127
1, 111110, Note_off_c, 0, 67, 64
1, 111135, Note_on_c, 0, 60, 16
1, 111192, Note_off_c, 0, 60, 64
1, 111214, Note_on_c, 0, 59, 34
1, 111272, Note_off_c, 0, 59, 64
1, 111292, Note_off_c, 0, 76, 64
1, 111317, Note_on_c, 0, 60, 33
1, 111369, Note_off_c, 0, 60, 64
1, 111397, Note_on_c, 0, 67, 40
1, 111470, Note_off_c, 0, 67, 64
1, 111493, Note_on_c, 0, 76, 59
1, 111509, Note_on_c, 0, 60, 39
1, 111525, Control_c, 0, 64, 0
1, 111573, Note_off_c, 0, 60, 64
1, 111618, Note_on_c, 0, 59, 26
1, 111621, Control_c, 0, 64, 127
1, 111678, Note_off_c, 0, 59, 64
1, 111712, Note_on_c, 0, 60, 37
1, 111735, Note_on_c, 0, 69, 37
1, 111740, Note_off_c, 0, 76, 64
1, 111740, Control_c, 0, 64, 0
1, 111795, Note_off_c, 0, 60, 64
1, 111837, Note_on_c, 0, 67, 26
1, 111860, Control_c, 0, 64, 127
1, 111871, Note_off_c, 0, 69, 64
1, 111913, Note_off_c, 0, 67, 64
1, 111933, Note_on_c, 0, 60, 18
1, 111993, Note_off_c, 0, 60, 64
1, 112007, Note_on_c, 0, 57, 22
1, 112077, Note_off_c, 0, 57, 64
1, 112091, Note_on_c, 0, 60, 24
1, 112091, Note_on_c, 0, 50, 53
1, 112161, Note_off_c, 0, 60, 64
1, 112208, Note_on_c, 0, 67, 30
1, 112298, Note_off_c, 0, 67, 64
1, 112312, Note_on_c, 0, 60, 26
1, 112366, Note_off_c, 0, 60, 64
1, 112384, Note_on_c, 0, 57, 32
1, 112458, Note_off_c, 0, 57, 64
1, 112508, Note_on_c, 0, 60, 38
1, 112512, Note_on_c, 0, 43, 35
1, 112567, Note_off_c, 0, 60, 64
1, 112595, Note_off_c, 0, 50, 64
1, 112603, Note_on_c, 0, 66, 32
1, 112663, Control_c, 0, 64, 0
1, 112706, Note_on_c, 0, 60, 35
1, 112738, Note_off_c, 0, 43, 64
1, 112757, Note_off_c, 0, 60, 64
1, 112757, Note_off_c, 0, 66, 64
1, 112757, Control_c, 0, 64, 127
1, 112774, Note_on_c, 0, 57, 33
1, 112868, Note_off_c, 0, 57, 64
1, 112868, Note_on_c, 0, 60, 24
1, 112926, Note_off_c, 0, 60, 64
1, 112963, Note_on_c, 0, 66, 22
1, 113029, Note_off_c, 0, 66, 64
1, 113038, Note_on_c, 0, 69, 50
1, 113057, Note_on_c, 0, 60, 20
1, 113105, Note_on_c, 0, 71, 51
1, 113114, Note_off_c, 0, 60, 64
1, 113122, Note_on_c, 0, 57, 33
1, 113164, Note_on_c, 0, 72, 66
1, 113172, Note_off_c, 0, 69, 64
1, 113199, Note_off_c, 0, 57, 64
1, 113233, Note_on_c, 0, 59, 43
1, 113241, Note_off_c, 0, 71, 64
1, 113255, Note_on_c, 0, 74, 82
1, 113322, Control_c, 0, 64, 0
1, 113322, Note_off_c, 0, 72, 64
1, 113330, Note_off_c, 0, 59, 64
1, 113367, Note_on_c, 0, 66, 29
1, 113451, Note_on_c, 0, 59, 36
1, 113465, Control_c, 0, 64, 127
1, 113490, Note_off_c, 0, 66, 64
1, 113503, Note_off_c, 0, 59, 64
1, 113523, Note_on_c, 0, 57, 34
1, 113590, Note_off_c, 0, 57, 64
1, 113623, Note_on_c, 0, 59, 32
1, 113678, Note_off_c, 0, 59, 64
1, 113698, Note_on_c, 0, 66, 40
1, 113815, Note_off_c, 0, 66, 64
1, 113821, Note_on_c, 0, 59, 36
1, 113833, Note_off_c, 0, 74, 64
1, 113872, Note_off_c, 0, 59, 64
1, 113893, Note_on_c, 0, 57, 30
1, 113968, Note_off_c, 0, 57, 64
1, 114024, Note_on_c, 0, 59, 32
1, 114038, Note_on_c, 0, 74, 55
1, 114100, Note_off_c, 0, 59, 64
1, 114125, Control_c, 0, 64, 0
1, 114138, Note_on_c, 0, 66, 32
1, 114233, Control_c, 0, 64, 127
1, 114250, Note_on_c, 0, 59, 23
1, 114266, Note_off_c, 0, 66, 64
1, 114309, Note_off_c, 0, 59, 64
1, 114323, Note_off_c, 0, 74, 64
1, 114330, Note_on_c, 0, 57, 22
1, 114401, Note_off_c, 0, 57, 64
1, 114418, Note_on_c, 0, 59, 27
1, 114481, Note_off_c, 0, 59, 64
1, 114515, Note_on_c, 0, 66, 29
1, 114598, Note_off_c, 0, 66, 64
1, 114623, Note_on_c, 0, 59, 35
1, 114623, Note_on_c, 0, 74, 50
1, 114682, Note_off_c, 0, 59, 64
1, 114726, Note_on_c, 0, 57, 25
1, 114880, Note_off_c, 0, 57, 64
1, 114885, Note_on_c, 0, 59, 44
1, 114904, Control_c, 0, 64, 0
1, 114904, Note_on_c, 0, 67, 35
1, 114924, Note_off_c, 0, 74, 64
1, 114979, Note_off_c, 0, 59, 64
1, 115005, Note_on_c, 0, 66, 32
1, 115011, Control_c, 0, 64, 127
1, 115049, Note_off_c, 0, 67, 64
1, 115111, Note_off_c, 0, 66, 64
1, 115209, Note_on_c, 0, 55, 28
1, 115278, Note_off_c, 0, 55, 64
1, 115294, Note_on_c, 0, 50, 40
1, 115301, Note_on_c, 0, 59, 30
1, 115358, Note_off_c, 0, 59, 64
1, 115390, Note_on_c, 0, 66, 26
1, 115468, Note_off_c, 0, 66, 64
1, 115500, Note_on_c, 0, 59, 18
1, 115553, Note_off_c, 0, 59, 64
1, 115574, Note_on_c, 0, 55, 35
1, 115643, Note_off_c, 0, 55, 64
1, 115679, Note_off_c, 0, 50, 64
1, 115679, Note_on_c, 0, 59, 33
1, 115691, Note_on_c, 0, 43, 41
1, 115720, Control_c, 0, 64, 0
1, 115741, Note_off_c, 0, 59, 64
1, 115779, Note_on_c, 0, 64, 37
1, 115827, Control_c, 0, 64, 127
1, 115837, Note_off_c, 0, 64, 64
1, 115844, Note_off_c, 0, 43, 64
1, 115857, Note_on_c, 0, 59, 25
1, 115911, Note_off_c, 0, 59, 64
1, 115946, Note_on_c, 0, 55, 35
1, 116019, Note_off_c, 0, 55, 64
1, 116038, Note_on_c, 0, 59, 32
1, 116086, Note_off_c, 0, 59, 64
1, 116131, Note_on_c, 0, 64, 40
1, 116191, Note_off_c, 0, 64, 64
1, 116217, Note_on_c, 0, 67, 47
1, 116233, Note_on_c, 0, 59, 20
1, 116284, Note_off_c, 0, 59, 64
1, 116289, Note_on_c, 0, 69, 27
1, 116292, Note_on_c, 0, 55, 30
1, 116326, Note_off_c, 0, 67, 64
1, 116361, Note_off_c, 0, 55, 64
1, 116373, Note_on_c, 0, 71, 55
1, 116418, Note_off_c, 0, 69, 64
1, 116428, Note_off_c, 0, 71, 64
1, 116457, Note_on_c, 0, 57, 22
1, 116486, Note_on_c, 0, 72, 44
1, 116523, Control_c, 0, 64, 0
1, 116534, Note_off_c, 0, 57, 64
1, 116570, Note_on_c, 0, 64, 43
1, 116654, Control_c, 0, 64, 127
1, 116668, Note_on_c, 0, 57, 34
1, 116673, Note_off_c, 0, 64, 64
1, 116713, Note_off_c, 0, 72, 64
1, 116729, Note_off_c, 0, 57, 64
1, 116779, Note_on_c, 0, 55, 22
1, 116840, Note_off_c, 0, 55, 64
1, 116851, Note_on_c, 0, 57, 35
1, 116907, Note_off_c, 0, 57, 64
1, 116957, Note_on_c, 0, 64, 35
1, 117011, Note_off_c, 0, 64, 64
1, 117042, Note_on_c, 0, 57, 37
1, 117095, Note_off_c, 0, 57, 64
1, 117114, Note_on_c, 0, 55, 40
1, 117181, Note_off_c, 0, 55, 64
1, 117214, Note_on_c, 0, 43, 44
1, 117234, Note_on_c, 0, 57, 30
1, 117265, Control_c, 0, 64, 0
1, 117292, Note_off_c, 0, 57, 64
1, 117315, Note_on_c, 0, 62, 44
1, 117382, Note_on_c, 0, 57, 13
1, 117398, Note_off_c, 0, 43, 64
1, 117398, Control_c, 0, 64, 127
1, 117398, Note_off_c, 0, 62, 64
1, 117464, Note_on_c, 0, 54, 47
1, 117464, Note_off_c, 0, 57, 64
1, 117556, Note_on_c, 0, 57, 18
1, 117556, Note_off_c, 0, 54, 64
1, 117627, Note_off_c, 0, 57, 64
1, 117654, Note_on_c, 0, 62, 41
1, 117729, Note_on_c, 0, 66, 43
1, 117757, Note_on_c, 0, 57, 50
1, 117780, Note_off_c, 0, 62, 64
1, 117799, Note_on_c, 0, 67, 54
1, 117813, Note_off_c, 0, 57, 64
1, 117819, Note_off_c, 0, 66, 64
1, 117844, Note_on_c, 0, 54, 31
1, 117893, Note_on_c, 0, 69, 42
1, 117930, Note_off_c, 0, 67, 64
1, 117930, Note_off_c, 0, 54, 64
1, 117953, Note_off_c, 0, 69, 64
1, 117958, Note_on_c, 0, 55, 42
1, 117973, Control_c, 0, 64, 0
1, 117982, Note_on_c, 0, 71, 66
1, 118042, Note_off_c, 0, 55, 64
1, 118084, Note_on_c, 0, 62, 37
1, 118128, Control_c, 0, 64, 127
1, 118144, Note_off_c, 0, 62, 64
1, 118152, Note_on_c, 0, 55, 21
1, 118184, Note_off_c, 0, 71, 64
1, 118220, Note_off_c, 0, 55, 64
1, 118231, Note_on_c, 0, 54, 41
1, 118311, Note_off_c, 0, 54, 64
1, 118326, Note_on_c, 0, 55, 41
1, 118392, Note_off_c, 0, 55, 64
1, 118434, Note_on_c, 0, 62, 33
1, 118490, Note_off_c, 0, 62, 64
1, 118538, Note_on_c, 0, 55, 34
1, 118588, Note_off_c, 0, 55, 64
1, 118592, Note_on_c, 0, 54, 47
1, 118676, Note_off_c, 0, 54, 64
1, 118687, Note_on_c, 0, 55, 32
1, 118694, Note_on_c, 0, 43, 37
1, 118704, Control_c, 0, 64, 0
1, 118765, Note_off_c, 0, 55, 64
1, 118783, Note_on_c, 0, 60, 44
1, 118855, Note_on_c, 0, 55, 33
1, 118860, Control_c, 0, 64, 127
1, 118875, Note_off_c, 0, 43, 64
1, 118899, Note_off_c, 0, 60, 64
1, 118949, Note_off_c, 0, 55, 64
1, 118966, Note_on_c, 0, 52, 38
1, 119020, Note_off_c, 0, 52, 64
1, 119039, Note_on_c, 0, 55, 30
1, 119105, Note_off_c, 0, 55, 64
1, 119144, Note_on_c, 0, 60, 41
1, 119219, Note_off_c, 0, 60, 64
1, 119223, Note_on_c, 0, 64, 32
1, 119259, Note_on_c, 0, 55, 40
1, 119279, Note_on_c, 0, 66, 37
1, 119312, Note_off_c, 0, 55, 64
1, 119334, Note_on_c, 0, 52, 35
1, 119353, Note_off_c, 0, 64, 64
1, 119387, Note_off_c, 0, 66, 64
1, 119387, Note_on_c, 0, 67, 42
1, 119434, Control_c, 0, 64, 0
1, 119445, Note_off_c, 0, 67, 64
1, 119456, Note_on_c, 0, 54, 51
1, 119456, Note_on_c, 0, 69, 37
1, 119465, Note_off_c, 0, 52, 64
1, 119546, Note_off_c, 0, 54, 64
1, 119566, Control_c, 0, 64, 127
1, 119593, Note_off_c, 0, 69, 64
1, 119609, Note_on_c, 0, 60, 24
1, 119677, Note_on_c, 0, 54, 32
1, 119680, Note_off_c, 0, 60, 64
1, 119746, Note_off_c, 0, 54, 64
1, 119780, Note_on_c, 0, 52, 33
1, 119849, Note_off_c, 0, 52, 64
1, 119874, Note_on_c, 0, 54, 52
1, 119882, Note_on_c, 0, 43, 40
1, 119927, Note_off_c, 0, 43, 64
1, 119935, Note_off_c, 0, 54, 64
1, 119992, Note_on_c, 0, 60, 15
1, 120067, Note_on_c, 0, 54, 49
1, 120127, Note_off_c, 0, 54, 64
1, 120161, Note_off_c, 0, 60, 64
1, 120181, Note_on_c, 0, 52, 32
1, 120287, Note_on_c, 0, 66, 42
1, 120293, Note_on_c, 0, 54, 54
1, 120320, Note_off_c, 0, 52, 64
1, 120357, Control_c, 0, 64, 0
1, 120453, Control_c, 0, 64, 127
1, 120459, Note_off_c, 0, 54, 64
1, 120468, Note_on_c, 0, 60, 40
1, 120481, Note_on_c, 0, 67, 55
1, 120490, Note_off_c, 0, 66, 64
1, 120546, Note_off_c, 0, 67, 64
1, 120560, Note_on_c, 0, 66, 39
1, 120563, Note_on_c, 0, 54, 44
1, 120596, Note_off_c, 0, 60, 64
1, 120632, Note_off_c, 0, 66, 64
1, 120632, Note_off_c, 0, 54, 64
1, 120632, Note_on_c, 0, 67, 61
1, 120674, Note_on_c, 0, 52, 43
1, 120691, Note_off_c, 0, 67, 64
1, 120702, Note_on_c, 0, 66, 52
1, 120746, Note_off_c, 0, 52, 64
1, 120765, Note_on_c, 0, 54, 53
1, 120775, Note_on_c, 0, 67, 57
1, 120775, Note_off_c, 0, 66, 64
1, 120830, Note_off_c, 0, 67, 64
1, 120830, Note_on_c, 0, 66, 56
1, 120853, Note_off_c, 0, 54, 64
1, 120874, Note_on_c, 0, 60, 49
1, 120910, Note_off_c, 0, 66, 64
1, 120910, Note_on_c, 0, 67, 60
1, 120955, Note_on_c, 0, 54, 48
1, 120972, Note_off_c, 0, 67, 64
1, 120972, Note_on_c, 0, 66, 54
1, 120986, Note_off_c, 0, 60, 64
1, 121017, Note_off_c, 0, 54, 64
1, 121034, Note_on_c, 0, 67, 68
1, 121039, Note_on_c, 0, 52, 56
1, 121039, Note_off_c, 0, 66, 64
1, 121100, Control_c, 0, 64, 0
1, 121105, Note_on_c, 0, 66, 64
1, 121123, Note_off_c, 0, 67, 64
1, 121126, Note_on_c, 0, 54, 77
1, 121167, Note_off_c, 0, 52, 64
1, 121176, Note_on_c, 0, 67, 63
1, 121180, Note_off_c, 0, 66, 64
1, 121229, Note_off_c, 0, 54, 64
1, 121237, Note_on_c, 0, 59, 62
1, 121245, Control_c, 0, 64, 127
1, 121245, Note_on_c, 0, 66, 59
1, 121264, Note_off_c, 0, 67, 64
1, 121306, Note_on_c, 0, 54, 55
1, 121317, Note_on_c, 0, 67, 67
1, 121317, Note_off_c, 0, 66, 64
1, 121339, Note_off_c, 0, 59, 64
1, 121384, Note_on_c, 0, 66, 58
1, 121387, Note_on_c, 0, 50, 50
1, 121392, Note_off_c, 0, 67, 64
1, 121398, Note_off_c, 0, 54, 64
1, 121440, Note_off_c, 0, 66, 64
1, 121449, Note_on_c, 0, 67, 62
1, 121463, Note_on_c, 0, 54, 61
1, 121510, Note_off_c, 0, 50, 64
1, 121513, Note_on_c, 0, 66, 64
1, 121516, Note_off_c, 0, 67, 64
1, 121565, Note_on_c, 0, 59, 66
1, 121565, Note_off_c, 0, 54, 64
1, 121568, Note_off_c, 0, 66, 64
1, 121576, Note_on_c, 0, 67, 70
1, 121643, Note_on_c, 0, 66, 70
1, 121652, Note_off_c, 0, 67, 64
1, 121657, Note_on_c, 0, 54, 57
1, 121668, Note_off_c, 0, 59, 64
1, 121699, Note_off_c, 0, 66, 64
1, 121704, Note_on_c, 0, 67, 70
1, 121755, Note_off_c, 0, 54, 64
1, 121758, Note_on_c, 0, 50, 66
1, 121774, Note_on_c, 0, 66, 75
1, 121783, Note_off_c, 0, 67, 64
1, 121841, Note_on_c, 0, 67, 72
1, 121853, Note_off_c, 0, 66, 64
1, 121858, Note_on_c, 0, 54, 76
1, 121913, Note_on_c, 0, 66, 70
1, 121924, Note_off_c, 0, 67, 64
1, 121928, Note_off_c, 0, 50, 64
1, 121944, Note_on_c, 0, 57, 68
1, 121952, Note_off_c, 0, 54, 64
1, 121986, Note_on_c, 0, 67, 71
1, 121997, Note_off_c, 0, 66, 64
1, 122023, Note_on_c, 0, 54, 57
1, 122047, Note_on_c, 0, 66, 71
1, 122062, Note_off_c, 0, 67, 64
1, 122072, Note_off_c, 0, 57, 64
1, 122098, Note_on_c, 0, 48, 59
1, 122120, Note_on_c, 0, 67, 70
1, 122120, Note_off_c, 0, 54, 64
1, 122133, Note_off_c, 0, 66, 64
1, 122190, Note_on_c, 0, 54, 57
1, 122190, Note_on_c, 0, 66, 64
1, 122201, Note_off_c, 0, 67, 64
1, 122250, Note_off_c, 0, 48, 64
1, 122259, Note_on_c, 0, 67, 75
1, 122268, Note_off_c, 0, 66, 64
1, 122273, Note_on_c, 0, 57, 61
1, 122304, Note_off_c, 0, 54, 64
1, 122336, Note_on_c, 0, 66, 56
1, 122345, Note_off_c, 0, 67, 64
1, 122362, Note_on_c, 0, 54, 67
1, 122385, Note_off_c, 0, 57, 64
1, 122395, Note_on_c, 0, 67, 75
1, 122424, Note_off_c, 0, 66, 64
1, 122460, Note_on_c, 0, 66, 50
1, 122467, Note_off_c, 0, 54, 64
1, 122470, Note_off_c, 0, 67, 64
1, 122470, Note_on_c, 0, 48, 43
1, 122521, Note_on_c, 0, 64, 86
1, 122541, Note_off_c, 0, 66, 64
1, 122624, Note_on_c, 0, 66, 70
1, 122665, Note_off_c, 0, 64, 64
1, 122685, Note_off_c, 0, 48, 64
1, 122715, Note_on_c, 0, 50, 67
1, 122727, Note_off_c, 0, 66, 64
1, 122736, Note_on_c, 0, 67, 96
1, 122743, Control_c, 0, 64, 0
1, 122863, Note_on_c, 0, 55, 71
1, 122867, Note_off_c, 0, 67, 64
1, 122872, Note_off_c, 0, 50, 64
1, 122886, Control_c, 0, 64, 127
1, 122956, Note_on_c, 0, 50, 54
1, 122992, Note_off_c, 0, 55, 64
1, 123048, Note_on_c, 0, 47, 70
1, 123076, Note_off_c, 0, 50, 64
1, 123155, Note_on_c, 0, 50, 70
1, 123158, Note_off_c, 0, 47, 64
1, 123158, Note_on_c, 0, 43, 80
1, 123164, Note_on_c, 0, 31, 75
1, 123251, Note_on_c, 0, 55, 76
1, 123261, Note_off_c, 0, 50, 64
1, 123340, Note_on_c, 0, 50, 56
1, 123373, Note_off_c, 0, 55, 64
1, 123420, Note_on_c, 0, 47, 72
1, 123423, Note_off_c, 0, 50, 64
1, 123487, Note_off_c, 0, 47, 64
1, 123523, Note_on_c, 0, 55, 93
1, 123604, Note_on_c, 0, 59, 75
1, 123624, Note_off_c, 0, 55, 64
1, 123672, Note_on_c, 0, 55, 75
1, 123710, Note_off_c, 0, 59, 64
1, 123758, Note_on_c, 0, 50, 78
1, 123763, Note_off_c, 0, 55, 64
1, 123814, Note_off_c, 0, 50, 64
1, 123853, Note_on_c, 0, 59, 97
1, 123936, Note_on_c, 0, 62, 81
1, 123945, Note_off_c, 0, 59, 64
1, 124009, Note_on_c, 0, 59, 68
1, 124047, Note_off_c, 0, 62, 64
1, 124084, Note_on_c, 0, 55, 80
1, 124091, Note_off_c, 0, 59, 64
1, 124128, Note_off_c, 0, 55, 64
1, 124181, Note_on_c, 0, 62, 105
1, 124250, Note_on_c, 0, 67, 80
1, 124282, Note_off_c, 0, 62, 64
1, 124337, Note_on_c, 0, 62, 74
1, 124382, Note_off_c, 0, 67, 64
1, 124413, Note_on_c, 0, 59, 78
1, 124420, Note_off_c, 0, 62, 64
1, 124466, Note_off_c, 0, 59, 64
1, 124509, Note_on_c, 0, 67, 100
1, 124583, Note_on_c, 0, 71, 85
1, 124610, Note_off_c, 0, 67, 64
1, 124665, Note_on_c, 0, 67, 69
1, 124719, Note_off_c, 0, 71, 64
1, 124743, Note_on_c, 0, 62, 81
1, 124766, Note_off_c, 0, 67, 64
1, 124805, Note_off_c, 0, 62, 64
1, 124849, Note_on_c, 0, 71, 108
1, 124928, Note_on_c, 0, 74, 88
1, 124959, Note_off_c, 0, 71, 64
1, 125012, Note_on_c, 0, 71, 83
1, 125056, Note_off_c, 0, 74, 64
1, 125101, Note_on_c, 0, 67, 76
1, 125112, Note_off_c, 0, 71, 64
1, 125243, Note_on_c, 0, 79, 108
1, 125480, Note_off_c, 0, 67, 64
1, 125510, Note_off_c, 0, 43, 64
1, 125523, Note_off_c, 0, 31, 64
1, 125540, Note_off_c, 0, 79, 64
1, 125655, Note_on_c, 0, 29, 113
1, 125750, Control_c, 0, 64, 0
1, 125855, Note_on_c, 0, 41, 106
1, 125881, Control_c, 0, 64, 127
1, 125928, Note_off_c, 0, 29, 64
1, 126034, Note_off_c, 0, 41, 64
1, 126086, Note_on_c, 0, 43, 82
1, 126176, Note_on_c, 0, 41, 94
1, 126197, Note_off_c, 0, 43, 64
1, 126232, Note_on_c, 0, 50, 98
1, 126250, Note_off_c, 0, 41, 64
1, 126267, Note_on_c, 0, 43, 63
1, 126351, Note_off_c, 0, 43, 64
1, 126362, Note_on_c, 0, 41, 87
1, 126367, Note_on_c, 0, 55, 84
1, 126382, Note_off_c, 0, 50, 64
1, 126438, Note_off_c, 0, 41, 64
1, 126438, Note_on_c, 0, 43, 74
1, 126449, Note_on_c, 0, 50, 68
1, 126505, Note_off_c, 0, 55, 64
1, 126516, Note_on_c, 0, 41, 79
1, 126529, Note_off_c, 0, 43, 64
1, 126563, Note_on_c, 0, 47, 75
1, 126579, Note_off_c, 0, 50, 64
1, 126604, Note_on_c, 0, 43, 61
1, 126610, Note_off_c, 0, 41, 64
1, 126640, Note_off_c, 0, 47, 64
1, 126680, Note_on_c, 0, 41, 73
1, 126680, Note_on_c, 0, 55, 100
1, 126694, Note_off_c, 0, 43, 64
1, 126769, Note_on_c, 0, 43, 62
1, 126769, Note_on_c, 0, 59, 87
1, 126772, Note_off_c, 0, 41, 64
1, 126794, Note_off_c, 0, 55, 64
1, 126847, Note_on_c, 0, 41, 71
1, 126858, Note_off_c, 0, 43, 64
1, 126858, Note_on_c, 0, 55, 67
1, 126895, Note_off_c, 0, 59, 64
1, 126934, Note_on_c, 0, 43, 59
1, 126944, Note_off_c, 0, 41, 64
1, 126948, Note_on_c, 0, 50, 83
1, 126969, Note_off_c, 0, 55, 64
1, 127001, Note_off_c, 0, 50, 64
1, 127019, Note_on_c, 0, 41, 66
1, 127025, Note_off_c, 0, 43, 64
1, 127051, Note_on_c, 0, 59, 101
1, 127112, Note_on_c, 0, 43, 60
1, 127117, Note_off_c, 0, 41, 64
1, 127137, Note_on_c, 0, 62, 88
1, 127162, Note_off_c, 0, 59, 64
1, 127187, Note_on_c, 0, 41, 65
1, 127200, Note_off_c, 0, 43, 64
1, 127212, Note_on_c, 0, 59, 79
1, 127268, Note_off_c, 0, 62, 64
1, 127271, Note_on_c, 0, 43, 59
1, 127284, Note_off_c, 0, 41, 64
1, 127284, Note_on_c, 0, 55, 79
1, 127304, Note_off_c, 0, 59, 64
1, 127329, Note_off_c, 0, 55, 64
1, 127352, Note_on_c, 0, 41, 66
1, 127362, Note_off_c, 0, 43, 64
1, 127390, Note_on_c, 0, 62, 98
1, 127440, Note_on_c, 0, 43, 63
1, 127448, Note_off_c, 0, 41, 64
1, 127473, Note_on_c, 0, 67, 87
1, 127485, Note_off_c, 0, 62, 64
1, 127521, Note_on_c, 0, 41, 66
1, 127527, Note_off_c, 0, 43, 64
1, 127557, Note_on_c, 0, 62, 65
1, 127602, Note_on_c, 0, 43, 58
1, 127611, Note_off_c, 0, 67, 64
1, 127611, Note_off_c, 0, 41, 64
1, 127622, Note_on_c, 0, 59, 81
1, 127633, Note_off_c, 0, 62, 64
1, 127660, Note_off_c, 0, 59, 64
1, 127682, Note_on_c, 0, 41, 71
1, 127688, Note_off_c, 0, 43, 64
1, 127713, Note_on_c, 0, 67, 103
1, 127771, Note_on_c, 0, 43, 63
1, 127775, Note_off_c, 0, 41, 64
1, 127789, Note_on_c, 0, 71, 91
1, 127828, Note_off_c, 0, 67, 64
1, 127847, Note_on_c, 0, 41, 71
1, 127858, Note_off_c, 0, 43, 64
1, 127870, Note_on_c, 0, 67, 85
1, 127922, Note_off_c, 0, 71, 64
1, 127937, Note_on_c, 0, 43, 66
1, 127945, Note_on_c, 0, 62, 78
1, 127953, Note_off_c, 0, 41, 64
1, 127970, Note_off_c, 0, 67, 64
1, 128011, Note_off_c, 0, 62, 64
1, 128015, Note_on_c, 0, 41, 75
1, 128020, Note_off_c, 0, 43, 64
1, 128053, Note_on_c, 0, 71, 106
1, 128098, Note_on_c, 0, 43, 65
1, 128115, Note_off_c, 0, 41, 64
1, 128129, Note_on_c, 0, 74, 89
1, 128164, Note_off_c, 0, 71, 64
1, 128173, Note_on_c, 0, 41, 74
1, 128181, Note_off_c, 0, 43, 64
1, 128209, Note_on_c, 0, 71, 87
1, 128243, Note_on_c, 0, 43, 66
1, 128260, Note_off_c, 0, 41, 64
1, 128263, Note_off_c, 0, 74, 64
1, 128301, Note_on_c, 0, 67, 70
1, 128315, Note_off_c, 0, 71, 64
1, 128315, Note_on_c, 0, 41, 72
1, 128340, Note_off_c, 0, 43, 64
1, 128402, Note_on_c, 0, 43, 74
1, 128420, Note_off_c, 0, 41, 64
1, 128420, Note_on_c, 0, 79, 111
1, 128487, Note_on_c, 0, 41, 75
1, 128516, Note_off_c, 0, 43, 64
1, 128547, Note_on_c, 0, 43, 48
1, 128574, Note_off_c, 0, 41, 64
1, 128619, Note_on_c, 0, 40, 98
1, 128629, Note_off_c, 0, 43, 64
1, 128683, Note_off_c, 0, 67, 64
1, 128683, Note_off_c, 0, 79, 64
1, 128717, Note_on_c, 0, 41, 106
1, 128747, Note_off_c, 0, 40, 64
1, 128791, Note_off_c, 0, 41, 64
1, 128923, Note_on_c, 0, 40, 115
1, 128926, Note_on_c, 0, 28, 105
1, 128975, Control_c, 0, 64, 0
1, 129137, Note_off_c, 0, 28, 64
1, 129182, Note_off_c, 0, 40, 64
1, 129201, Control_c, 0, 64, 127
1, 129376, Note_on_c, 0, 67, 99
1, 129376, Note_on_c, 0, 61, 90
1, 129379, Note_on_c, 0, 55, 99
1, 129379, Note_on_c, 0, 52, 98
1, 129382, Note_on_c, 0, 40, 97
1, 129572, Control_c, 0, 64, 0
1, 129717, Control_c, 0, 64, 127
1, 129736, Note_off_c, 0, 55, 64
1, 129741, Note_off_c, 0, 67, 64
1, 129744, Note_off_c, 0, 52, 64
1, 129761, Note_off_c, 0, 40, 64
1, 129809, Note_off_c, 0, 61, 64
1, 129820, Note_on_c, 0, 66, 93
1, 129820, Note_on_c, 0, 50, 93
1, 129820, Note_on_c, 0, 57, 95
1, 129824, Note_on_c, 0, 62, 94
1, 129827, Note_on_c, 0, 38, 90
1, 129836, Control_c, 0, 64, 0
1, 130017, Control_c, 0, 64, 127
1, 130040, Note_off_c, 0, 62, 64
1, 130050, Note_off_c, 0, 66, 64
1, 130076, Note_off_c, 0, 57, 64
1, 130121, Note_off_c, 0, 50, 64
1, 130156, Note_off_c, 0, 38, 64
1, 130228, Note_on_c, 0, 64, 102
1, 130231, Note_on_c, 0, 54, 96
1, 130234, Note_on_c, 0, 48, 84
1, 130234, Note_on_c, 0, 57, 79
1, 130240, Note_on_c, 0, 36, 87
1, 130293, Control_c, 0, 64, 0
1, 130433, Note_off_c, 0, 57, 64
1, 130472, Control_c, 0, 64, 127
1, 130508, Note_off_c, 0, 54, 64
1, 130519, Note_off_c, 0, 64, 64
1, 130524, Note_off_c, 0, 48, 64
1, 130555, Note_off_c, 0, 36, 64
1, 130605, Control_c, 0, 64, 0
1, 130610, Note_on_c, 0, 62, 100
1, 130610, Note_on_c, 0, 55, 91
1, 130614, Note_on_c, 0, 59, 81
1, 130619, Note_on_c, 0, 47, 83
1, 130625, Note_on_c, 0, 35, 94
1, 130742, Note_off_c, 0, 35, 64
1, 130750, Note_off_c, 0, 55, 64
1, 130756, Note_off_c, 0, 59, 64
1, 130759, Control_c, 0, 64, 127
1, 130775, Note_off_c, 0, 62, 64
1, 130783, Note_off_c, 0, 47, 64
1, 130972, Note_on_c, 0, 69, 93
1, 130972, Note_on_c, 0, 62, 93
1, 130972, Note_on_c, 0, 59, 97
1, 130977, Note_on_c, 0, 53, 105
1, 130981, Note_on_c, 0, 41, 83
1, 131059, Control_c, 0, 64, 0
1, 131228, Control_c, 0, 64, 127
1, 131238, Note_off_c, 0, 59, 64
1, 131251, Note_off_c, 0, 69, 64
1, 131251, Note_off_c, 0, 53, 64
1, 131274, Note_off_c, 0, 41, 64
1, 131313, Note_off_c, 0, 62, 64
1, 131343, Note_on_c, 0, 60, 93
1, 131343, Note_on_c, 0, 67, 97
1, 131348, Note_on_c, 0, 52, 97
1, 131348, Note_on_c, 0, 64, 91
1, 131348, Note_on_c, 0, 40, 99
1, 131359, Control_c, 0, 64, 0
1, 131539, Control_c, 0, 64, 127
1, 131560, Note_off_c, 0, 64, 64
1, 131563, Note_off_c, 0, 60, 64
1, 131574, Note_off_c, 0, 67, 64
1, 131627, Note_off_c, 0, 52, 64
1, 131644, Note_off_c, 0, 40, 64
1, 131725, Note_on_c, 0, 65, 97
1, 131730, Note_on_c, 0, 53, 105
1, 131730, Note_on_c, 0, 50, 88
1, 131733, Note_on_c, 0, 59, 81
1, 131738, Note_on_c, 0, 38, 85
1, 131827, Control_c, 0, 64, 0
1, 131983, Control_c, 0, 64, 127
1, 131992, Note_off_c, 0, 65, 64
1, 132009, Note_off_c, 0, 59, 64
1, 132015, Note_off_c, 0, 53, 64
1, 132051, Note_off_c, 0, 50, 64
1, 132078, Note_off_c, 0, 38, 64
1, 132126, Control_c, 0, 64, 0
1, 132134, Note_on_c, 0, 64, 100
1, 132137, Note_on_c, 0, 55, 95
1, 132140, Note_on_c, 0, 60, 92
1, 132140, Note_on_c, 0, 48, 82
1, 132149, Note_on_c, 0, 36, 91
1, 132241, Note_off_c, 0, 36, 64
1, 132259, Note_off_c, 0, 55, 64
1, 132262, Note_off_c, 0, 48, 64
1, 132271, Note_off_c, 0, 60, 64
1, 132282, Control_c, 0, 64, 127
1, 132312, Note_off_c, 0, 64, 64
1, 132582, Note_on_c, 0, 66, 84
1, 132582, Note_on_c, 0, 76, 98
1, 132585, Note_on_c, 0, 69, 80
1, 132588, Note_on_c, 0, 60, 89
1, 132591, Note_on_c, 0, 48, 72
1, 132809, Control_c, 0, 64, 0
1, 132904, Note_off_c, 0, 69, 64
1, 132953, Control_c, 0, 64, 127
1, 132962, Note_off_c, 0, 76, 64
1, 132966, Note_off_c, 0, 66, 64
1, 132966, Note_off_c, 0, 60, 64
1, 132989, Note_off_c, 0, 48, 64
1, 133046, Note_on_c, 0, 71, 95
1, 133046, Note_on_c, 0, 67, 91
1, 133049, Note_on_c, 0, 74, 103
1, 133049, Note_on_c, 0, 59, 86
1, 133060, Note_on_c, 0, 47, 79
1, 133181, Control_c, 0, 64, 0
1, 133316, Note_off_c, 0, 47, 64
1, 133319, Note_off_c, 0, 71, 64
1, 133334, Note_off_c, 0, 59, 64
1, 133337, Control_c, 0, 64, 127
1, 133346, Note_off_c, 0, 74, 64
1, 133351, Note_off_c, 0, 67, 64
1, 133622, Note_on_c, 0, 79, 105
1, 133628, Note_on_c, 0, 67, 91
1, 133628, Note_on_c, 0, 73, 78
1, 133635, Note_on_c, 0, 64, 92
1, 133639, Note_on_c, 0, 52, 97
1, 133756, Control_c, 0, 64, 0
1, 134020, Control_c, 0, 64, 127
1, 134079, Note_off_c, 0, 67, 64
1, 134099, Note_off_c, 0, 79, 64
1, 134142, Note_off_c, 0, 73, 64
1, 134167, Note_off_c, 0, 52, 64
1, 134167, Note_off_c, 0, 64, 64
1, 134430, Note_on_c, 0, 71, 108
1, 134430, Note_on_c, 0, 67, 97
1, 134444, Note_on_c, 0, 62, 90
1, 134447, Note_on_c, 0, 50, 88
1, 134606, Control_c, 0, 64, 0
1, 135146, Control_c, 0, 64, 127
1, 135357, Note_off_c, 0, 62, 64
1, 135446, Note_off_c, 0, 50, 64
1, 135563, Note_on_c, 0, 64, 95
1, 135583, Note_off_c, 0, 67, 64
1, 135745, Note_on_c, 0, 38, 96
1, 135812, Note_on_c, 0, 66, 89
1, 135853, Control_c, 0, 64, 0
1, 135859, Note_off_c, 0, 64, 64
1, 135920, Note_on_c, 0, 50, 108
1, 135956, Note_off_c, 0, 38, 64
1, 135996, Note_off_c, 0, 66, 64
1, 135996, Control_c, 0, 64, 127
1, 136006, Note_on_c, 0, 67, 94
1, 136006, Note_off_c, 0, 50, 64
1, 136074, Note_off_c, 0, 71, 64
1, 136109, Note_off_c, 0, 67, 64
1, 136193, Note_on_c, 0, 71, 101
1, 136238, Note_on_c, 0, 67, 100
1, 136241, Note_on_c, 0, 60, 94
1, 136329, Note_on_c, 0, 69, 80
1, 136349, Note_off_c, 0, 71, 64
1, 136457, Note_on_c, 0, 71, 95
1, 136457, Note_off_c, 0, 69, 64
1, 136564, Note_on_c, 0, 69, 88
1, 136569, Note_off_c, 0, 71, 64
1, 136691, Note_on_c, 0, 71, 97
1, 136691, Note_off_c, 0, 69, 64
1, 136783, Note_off_c, 0, 71, 64
1, 136789, Note_on_c, 0, 69, 89
1, 136881, Note_off_c, 0, 69, 64
1, 136881, Note_on_c, 0, 71, 95
1, 136945, Note_off_c, 0, 71, 64
1, 136956, Note_on_c, 0, 69, 70
1, 137021, Note_on_c, 0, 71, 87
1, 137032, Note_off_c, 0, 69, 64
1, 137057, Note_off_c, 0, 71, 64
1, 137076, Note_on_c, 0, 69, 75
1, 137134, Note_on_c, 0, 71, 83
1, 137140, Note_off_c, 0, 69, 64
1, 137170, Note_off_c, 0, 71, 64
1, 137190, Note_on_c, 0, 69, 77
1, 137252, Note_off_c, 0, 69, 64
1, 137252, Note_on_c, 0, 71, 84
1, 137302, Note_off_c, 0, 71, 64
1, 137308, Note_on_c, 0, 69, 66
1, 137368, Note_off_c, 0, 69, 64
1, 137368, Note_on_c, 0, 71, 85
1, 137413, Note_off_c, 0, 71, 64
1, 137436, Note_on_c, 0, 69, 71
1, 137478, Note_off_c, 0, 69, 64
1, 137499, Note_on_c, 0, 71, 80
1, 137533, Note_on_c, 0, 66, 95
1, 137543, Note_off_c, 0, 71, 64
1, 137552, Note_on_c, 0, 69, 57
1, 137563, Note_off_c, 0, 67, 64
1, 137614, Note_on_c, 0, 71, 85
1, 137617, Note_off_c, 0, 69, 64
1, 137653, Note_off_c, 0, 71, 64
1, 137680, Note_on_c, 0, 69, 63
1, 137726, Note_off_c, 0, 69, 64
1, 137726, Note_on_c, 0, 71, 76
1, 137789, Note_off_c, 0, 71, 64
1, 137797, Note_on_c, 0, 69, 51
1, 137836, Note_off_c, 0, 69, 64
1, 137853, Note_on_c, 0, 71, 72
1, 137893, Note_off_c, 0, 71, 64
1, 137900, Note_on_c, 0, 69, 41
1, 137957, Note_on_c, 0, 71, 79
1, 137970, Note_off_c, 0, 66, 64
1, 137970, Note_off_c, 0, 69, 64
1, 138029, Note_on_c, 0, 69, 63
1, 138035, Note_off_c, 0, 71, 64
1, 138042, Note_off_c, 0, 60, 64
1, 138076, Note_off_c, 0, 69, 64
1, 138088, Note_on_c, 0, 71, 85
1, 138159, Note_on_c, 0, 69, 95
1, 138193, Note_off_c, 0, 71, 64
1, 138592, Note_on_c, 0, 67, 101
1, 138599, Note_off_c, 0, 69, 64
1, 138837, Note_on_c, 0, 43, 98
1, 138840, Note_on_c, 0, 31, 98
1, 138850, Control_c, 0, 64, 0
1, 139018, Note_off_c, 0, 31, 64
1, 139052, Control_c, 0, 64, 127
1, 139059, Note_off_c, 0, 43, 64
1, 139068, Note_off_c, 0, 67, 64
1, 139419, Note_on_c, 0, 67, 95
1, 139419, Note_on_c, 0, 62, 88
1, 139419, Note_on_c, 0, 59, 92
1, 139425, Note_on_c, 0, 55, 91
1, 139428, Note_on_c, 0, 50, 83
1, 140971, Note_off_c, 0, 59, 64
1, 140981, Note_off_c, 0, 50, 64
1, 140990, Note_off_c, 0, 55, 64
1, 141002, Note_off_c, 0, 62, 64
1, 141032, Note_off_c, 0, 67, 64
1, 143211, Control_c, 0, 64, 0
1, 145268, Control_c, 0, 64, 0
1, 146766, End_track
0, 0, End_of_file
