0, 0, Header, 0, 1, 384
1, 0, Start_track
1, 0, Tempo, 512820
1, 0, Title_t, ""
1, 0, Note_on_c, 0, 67, 55
1, 24, Note_on_c, 0, 62, 32
1, 30, Note_on_c, 0, 59, 30
1, 39, Note_on_c, 0, 55, 31
1, 445, Note_on_c, 0, 69, 38
1, 499, Note_off_c, 0, 67, 64
1, 656, Control_c, 0, 64, 127
1, 698, Note_off_c, 0, 62, 64
1, 712, Note_off_c, 0, 69, 64
1, 866, Note_on_c, 0, 69, 37
1, 890, Note_on_c, 0, 64, 20
1, 896, Note_off_c, 0, 59, 64
1, 913, Note_on_c, 0, 60, 23
1, 1124, Control_c, 0, 64, 0
1, 1435, Control_c, 0, 64, 127
1, 1574, Note_off_c, 0, 55, 64
1, 1654, Note_on_c, 0, 54, 24
1, 1819, Control_c, 0, 64, 0
1, 2044, Note_off_c, 0, 60, 64
1, 2044, Control_c, 0, 64, 127
1, 2056, Note_off_c, 0, 64, 64
1, 2083, Note_off_c, 0, 69, 64
1, 2108, Note_off_c, 0, 54, 64
1, 2395, Note_on_c, 0, 71, 53
1, 2406, Note_on_c, 0, 67, 24
1, 2418, Note_on_c, 0, 53, 37
1, 2425, Note_on_c, 0, 62, 18
1, 2634, Control_c, 0, 64, 0
1, 2838, Control_c, 0, 64, 127
1, 2857, Note_on_c, 0, 72, 49
1, 2868, Note_off_c, 0, 62, 64
1, 2880, Note_on_c, 0, 60, 31
1, 2936, Note_off_c, 0, 71, 64
1, 2946, Control_c, 0, 64, 0
1, 3049, Note_on_c, 0, 74, 77
1, 3058, Note_on_c, 0, 59, 37
1, 3058, Note_off_c, 0, 60, 64
1, 3064, Control_c, 0, 64, 127
1, 3070, Note_off_c, 0, 72, 64
1, 3094, Note_off_c, 0, 67, 64
1, 3127, Note_off_c, 0, 59, 64
1, 3127, Note_off_c, 0, 53, 64
1, 3254, Note_on_c, 0, 72, 68
1, 3262, Note_on_c, 0, 67, 40
1, 3270, Note_on_c, 0, 60, 27
1, 3287, Note_off_c, 0, 74, 64
1, 3292, Note_on_c, 0, 52, 20
1, 3328, Control_c, 0, 64, 0
1, 3488, Note_off_c, 0, 60, 64
1, 3509, Control_c, 0, 64, 127
1, 3634, Note_off_c, 0, 67, 64
1, 3638, Note_on_c, 0, 71, 54
1, 3641, Note_on_c, 0, 66, 24
1, 3674, Note_off_c, 0, 52, 64
1, 3674, Control_c, 0, 64, 0
1, 3679, Note_on_c, 0, 62, 17
1, 3685, Note_on_c, 0, 50, 33
1, 3698, Note_off_c, 0, 72, 64
1, 3827, Note_off_c, 0, 62, 64
1, 3880, Control_c, 0, 64, 127
1, 3885, Note_off_c, 0, 71, 64
1, 3903, Note_off_c, 0, 66, 64
1, 3911, Note_off_c, 0, 50, 64
1, 4058, Note_on_c, 0, 71, 47
1, 4073, Note_on_c, 0, 67, 13
1, 4086, Note_on_c, 0, 55, 16
1, 4091, Note_on_c, 0, 62, 18
1, 4120, Control_c, 0, 64, 0
1, 4367, Note_off_c, 0, 62, 64
1, 4384, Control_c, 0, 64, 127
1, 4426, Note_off_c, 0, 67, 64
1, 4445, Note_off_c, 0, 55, 64
1, 4473, Note_off_c, 0, 71, 64
1, 5000, Note_on_c, 0, 67, 45
1, 5025, Note_on_c, 0, 62, 17
1, 5025, Note_on_c, 0, 55, 25
1, 5031, Note_on_c, 0, 47, 22
1, 5365, Note_on_c, 0, 69, 51
1, 5413, Note_off_c, 0, 67, 64
1, 5463, Note_off_c, 0, 55, 64
1, 5566, Note_on_c, 0, 71, 77
1, 5576, Note_off_c, 0, 69, 64
1, 5633, Note_off_c, 0, 62, 64
1, 5652, Note_off_c, 0, 71, 64
1, 5727, Note_off_c, 0, 47, 64
1, 5730, Note_on_c, 0, 69, 64
1, 5747, Note_on_c, 0, 64, 49
1, 5752, Note_on_c, 0, 59, 30
1, 5777, Note_on_c, 0, 52, 21
1, 5857, Control_c, 0, 64, 0
1, 6073, Note_on_c, 0, 67, 73
1, 6086, Control_c, 0, 64, 127
1, 6114, Note_off_c, 0, 69, 64
1, 6158, Control_c, 0, 64, 0
1, 6278, Control_c, 0, 64, 127
1, 6310, Note_off_c, 0, 59, 64
1, 6452, Note_on_c, 0, 66, 49
1, 6470, Note_on_c, 0, 45, 28
1, 6474, Note_on_c, 0, 57, 33
1, 6474, Note_on_c, 0, 60, 32
1, 6481, Note_off_c, 0, 64, 64
1, 6488, Note_off_c, 0, 67, 64
1, 6520, Note_off_c, 0, 52, 64
1, 6732, Control_c, 0, 64, 0
1, 6833, Note_on_c, 0, 64, 66
1, 6855, Note_off_c, 0, 66, 64
1, 6864, Control_c, 0, 64, 127
1, 6941, Note_off_c, 0, 45, 64
1, 7003, Note_off_c, 0, 57, 64
1, 7003, Note_off_c, 0, 60, 64
1, 7066, Note_off_c, 0, 64, 64
1, 7086, Note_on_c, 0, 66, 41
1, 7126, Note_off_c, 0, 66, 64
1, 7126, Note_on_c, 0, 67, 53
1, 7179, Note_on_c, 0, 66, 44
1, 7189, Note_off_c, 0, 67, 64
1, 7197, Note_on_c, 0, 62, 34
1, 7197, Note_on_c, 0, 57, 26
1, 7204, Note_on_c, 0, 50, 35
1, 7236, Control_c, 0, 64, 0
1, 7402, Note_on_c, 0, 64, 55
1, 7402, Control_c, 0, 64, 127
1, 7429, Note_off_c, 0, 62, 64
1, 7457, Note_off_c, 0, 66, 64
1, 7504, Note_off_c, 0, 57, 64
1, 7587, Note_on_c, 0, 62, 65
1, 7594, Note_on_c, 0, 59, 34
1, 7601, Note_on_c, 0, 55, 30
1, 7601, Note_off_c, 0, 64, 64
1, 7619, Control_c, 0, 64, 0
1, 7691, Control_c, 0, 64, 127
1, 7707, Note_off_c, 0, 62, 64
1, 7707, Note_off_c, 0, 55, 64
1, 7844, Note_on_c, 0, 54, 40
1, 7861, Note_off_c, 0, 59, 64
1, 7889, Note_off_c, 0, 54, 64
1, 7897, Note_on_c, 0, 55, 65
1, 7938, Note_off_c, 0, 55, 64
1, 7947, Note_on_c, 0, 54, 51
1, 7964, Note_on_c, 0, 62, 45
1, 7967, Note_on_c, 0, 57, 44
1, 7991, Control_c, 0, 64, 0
1, 8137, Note_off_c, 0, 54, 64
1, 8179, Note_on_c, 0, 55, 53
1, 8184, Note_on_c, 0, 52, 52
1, 8204, Note_off_c, 0, 57, 64
1, 8207, Note_off_c, 0, 50, 64
1, 8385, Note_off_c, 0, 52, 64
1, 8399, Note_on_c, 0, 54, 45
1, 8402, Note_off_c, 0, 55, 64
1, 8402, Note_on_c, 0, 50, 48
1, 8626, Control_c, 0, 64, 127
1, 8640, Note_off_c, 0, 54, 64
1, 8675, Note_off_c, 0, 50, 64
1, 8874, Note_on_c, 0, 54, 37
1, 8877, Control_c, 0, 64, 0
1, 8894, Note_on_c, 0, 50, 23
1, 9273, Control_c, 0, 64, 127
1, 9468, Note_off_c, 0, 54, 64
1, 9625, Note_off_c, 0, 62, 64
1, 9953, Note_on_c, 0, 40, 58
1, 9957, Note_on_c, 0, 60, 53
1, 9962, Note_on_c, 0, 55, 31
1, 10076, Control_c, 0, 64, 0
1, 10376, Control_c, 0, 64, 127
1, 10384, Note_on_c, 0, 62, 55
1, 10449, Note_off_c, 0, 60, 64
1, 10579, Note_on_c, 0, 64, 64
1, 10596, Note_off_c, 0, 62, 64
1, 10613, Note_off_c, 0, 55, 64
1, 10777, Note_on_c, 0, 62, 51
1, 10777, Note_on_c, 0, 42, 35
1, 10785, Note_on_c, 0, 57, 34
1, 10830, Note_off_c, 0, 40, 64
1, 10830, Control_c, 0, 64, 0
1, 10897, Note_off_c, 0, 64, 64
1, 11418, Control_c, 0, 64, 127
1, 11546, Note_on_c, 0, 59, 41
1, 11561, Note_on_c, 0, 43, 43
1, 11569, Note_off_c, 0, 42, 64
1, 11580, Note_off_c, 0, 57, 64
1, 11903, Note_on_c, 0, 64, 74
1, 11909, Control_c, 0, 64, 0
1, 11967, Note_off_c, 0, 62, 64
1, 12054, Control_c, 0, 64, 127
1, 12079, Note_off_c, 0, 59, 64
1, 12086, Note_off_c, 0, 50, 64
1, 12089, Note_off_c, 0, 64, 64
1, 12282, Note_on_c, 0, 60, 49
1, 12282, Note_on_c, 0, 50, 35
1, 12282, Note_on_c, 0, 64, 73
1, 12295, Note_on_c, 0, 45, 33
1, 12324, Note_off_c, 0, 43, 64
1, 12485, Control_c, 0, 64, 0
1, 12664, Control_c, 0, 64, 127
1, 12689, Note_on_c, 0, 66, 50
1, 12761, Control_c, 0, 64, 0
1, 12784, Note_off_c, 0, 64, 64
1, 12901, Note_on_c, 0, 67, 57
1, 12956, Note_off_c, 0, 66, 64
1, 12989, Control_c, 0, 64, 127
1, 13011, Note_off_c, 0, 60, 64
1, 13135, Note_on_c, 0, 66, 47
1, 13160, Note_on_c, 0, 62, 30
1, 13163, Note_on_c, 0, 47, 29
1, 13185, Note_off_c, 0, 45, 64
1, 13204, Control_c, 0, 64, 0
1, 13217, Note_off_c, 0, 67, 64
1, 13419, Control_c, 0, 64, 127
1, 13541, Note_on_c, 0, 67, 65
1, 13557, Note_off_c, 0, 50, 64
1, 13560, Note_on_c, 0, 52, 59
1, 13610, Note_off_c, 0, 66, 64
1, 13744, Control_c, 0, 64, 0
1, 13795, Note_off_c, 0, 62, 64
1, 13852, Control_c, 0, 64, 127
1, 13909, Note_off_c, 0, 47, 64
1, 13914, Note_off_c, 0, 52, 64
1, 13914, Note_on_c, 0, 69, 67
1, 13922, Note_on_c, 0, 54, 68
1, 13928, Note_on_c, 0, 45, 43
1, 13942, Note_on_c, 0, 62, 28
1, 13970, Note_off_c, 0, 67, 64
1, 14008, Control_c, 0, 64, 0
1, 14109, Note_off_c, 0, 45, 64
1, 14126, Control_c, 0, 64, 127
1, 14232, Note_on_c, 0, 43, 24
1, 14245, Note_off_c, 0, 54, 64
1, 14271, Control_c, 0, 64, 0
1, 14323, Note_off_c, 0, 43, 64
1, 14348, Note_on_c, 0, 74, 74
1, 14366, Control_c, 0, 64, 127
1, 14366, Note_on_c, 0, 59, 70
1, 14383, Note_off_c, 0, 69, 64
1, 14513, Note_off_c, 0, 74, 64
1, 14561, Note_off_c, 0, 59, 64
1, 14568, Note_off_c, 0, 62, 64
1, 14758, Note_on_c, 0, 62, 80
1, 14766, Note_on_c, 0, 57, 46
1, 14788, Note_on_c, 0, 42, 41
1, 14906, Control_c, 0, 64, 0
1, 15026, Control_c, 0, 64, 127
1, 15036, Note_off_c, 0, 57, 64
1, 15092, Note_off_c, 0, 42, 64
1, 15143, Note_on_c, 0, 67, 75
1, 15149, Note_on_c, 0, 59, 52
1, 15162, Note_on_c, 0, 43, 48
1, 15207, Note_off_c, 0, 62, 64
1, 15241, Control_c, 0, 64, 0
1, 15385, Control_c, 0, 64, 127
1, 15391, Note_off_c, 0, 43, 64
1, 15422, Note_off_c, 0, 59, 64
1, 15515, Note_on_c, 0, 66, 62
1, 15524, Note_on_c, 0, 62, 39
1, 15530, Note_on_c, 0, 57, 33
1, 15530, Note_on_c, 0, 45, 39
1, 15574, Note_off_c, 0, 67, 64
1, 15638, Control_c, 0, 64, 0
1, 15906, Note_on_c, 0, 64, 60
1, 15914, Note_off_c, 0, 66, 64
1, 16068, Control_c, 0, 64, 127
1, 16089, Note_off_c, 0, 62, 64
1, 16115, Note_off_c, 0, 64, 64
1, 16128, Note_off_c, 0, 57, 64
1, 16307, Note_on_c, 0, 61, 41
1, 16307, Note_on_c, 0, 64, 49
1, 16324, Note_on_c, 0, 55, 35
1, 16344, Control_c, 0, 64, 0
1, 16795, Note_on_c, 0, 62, 53
1, 16806, Note_off_c, 0, 64, 64
1, 16978, Note_off_c, 0, 62, 64
1, 16990, Note_off_c, 0, 55, 64
1, 16990, Control_c, 0, 64, 127
1, 16993, Note_off_c, 0, 61, 64
1, 17229, Note_on_c, 0, 55, 38
1, 17233, Note_on_c, 0, 62, 21
1, 17248, Note_on_c, 0, 50, 24
1, 17248, Note_on_c, 0, 57, 12
1, 17255, Control_c, 0, 64, 0
1, 17340, Note_off_c, 0, 45, 64
1, 17505, Note_off_c, 0, 55, 64
1, 17505, Note_on_c, 0, 52, 49
1, 17837, Note_on_c, 0, 54, 34
1, 17845, Note_off_c, 0, 52, 64
1, 18035, Control_c, 0, 64, 127
1, 18062, Note_off_c, 0, 54, 64
1, 18085, Note_off_c, 0, 62, 64
1, 18085, Note_off_c, 0, 57, 64
1, 18088, Note_off_c, 0, 50, 64
1, 18349, Note_on_c, 0, 54, 33
1, 18366, Note_on_c, 0, 62, 20
1, 18371, Note_on_c, 0, 57, 16
1, 19266, Note_on_c, 0, 38, 20
1, 19605, Note_off_c, 0, 38, 64
1, 19614, Note_off_c, 0, 54, 64
1, 19641, Note_off_c, 0, 57, 64
1, 19677, Note_off_c, 0, 62, 64
1, 20597, Note_on_c, 0, 67, 19
1, 20623, Note_on_c, 0, 62, 19
1, 20633, Note_on_c, 0, 59, 19
1, 20641, Note_on_c, 0, 55, 13
1, 20730, Control_c, 0, 64, 0
1, 20921, Control_c, 0, 64, 127
1, 21045, Note_on_c, 0, 69, 28
1, 21101, Note_off_c, 0, 67, 64
1, 21101, Control_c, 0, 64, 0
1, 21233, Control_c, 0, 64, 127
1, 21254, Note_off_c, 0, 62, 64
1, 21279, Note_off_c, 0, 69, 64
1, 21536, Note_off_c, 0, 59, 64
1, 21545, Note_on_c, 0, 69, 27
1, 21563, Note_on_c, 0, 60, 12
1, 21577, Note_on_c, 0, 64, 8
1, 21786, Control_c, 0, 64, 0
1, 22012, Control_c, 0, 64, 127
1, 22221, Note_off_c, 0, 55, 64
1, 22354, Note_on_c, 0, 54, 29
1, 22672, Control_c, 0, 64, 0
1, 22783, Note_off_c, 0, 64, 64
1, 22792, Control_c, 0, 64, 127
1, 22804, Note_off_c, 0, 69, 64
1, 22820, Note_off_c, 0, 60, 64
1, 22831, Note_off_c, 0, 54, 64
1, 23088, Note_on_c, 0, 67, 26
1, 23099, Note_on_c, 0, 71, 44
1, 23121, Note_on_c, 0, 62, 20
1, 23134, Note_on_c, 0, 53, 39
1, 23258, Control_c, 0, 64, 0
1, 23403, Control_c, 0, 64, 127
1, 23517, Note_off_c, 0, 62, 64
1, 23548, Note_on_c, 0, 72, 40
1, 23573, Note_on_c, 0, 60, 18
1, 23588, Note_off_c, 0, 71, 64
1, 23606, Control_c, 0, 64, 0
1, 23703, Control_c, 0, 64, 127
1, 23729, Note_off_c, 0, 60, 64
1, 23734, Note_on_c, 0, 74, 54
1, 23740, Note_off_c, 0, 72, 64
1, 23743, Note_on_c, 0, 59, 30
1, 23751, Note_off_c, 0, 67, 64
1, 23761, Note_off_c, 0, 53, 64
1, 23818, Note_off_c, 0, 59, 64
1, 23918, Note_on_c, 0, 72, 61
1, 23943, Note_off_c, 0, 74, 64
1, 23943, Note_on_c, 0, 52, 37
1, 23954, Note_on_c, 0, 67, 19
1, 23963, Note_on_c, 0, 60, 28
1, 24002, Control_c, 0, 64, 0
1, 24119, Note_off_c, 0, 60, 64
1, 24122, Control_c, 0, 64, 127
1, 24258, Note_off_c, 0, 67, 64
1, 24271, Note_on_c, 0, 71, 42
1, 24282, Note_on_c, 0, 66, 17
1, 24294, Note_off_c, 0, 52, 64
1, 24299, Note_on_c, 0, 62, 13
1, 24302, Note_off_c, 0, 72, 64
1, 24314, Note_on_c, 0, 50, 7
1, 24325, Control_c, 0, 64, 0
1, 24461, Note_off_c, 0, 62, 64
1, 24481, Control_c, 0, 64, 127
1, 24520, Note_off_c, 0, 71, 64
1, 24524, Note_off_c, 0, 66, 64
1, 24555, Note_off_c, 0, 50, 64
1, 24715, Note_on_c, 0, 71, 36
1, 24725, Note_on_c, 0, 62, 18
1, 24762, Note_on_c, 0, 55, 15
1, 24765, Note_on_c, 0, 67, 3
1, 24937, Control_c, 0, 64, 0
1, 25093, Control_c, 0, 64, 127
1, 25216, Note_off_c, 0, 62, 64
1, 25238, Note_off_c, 0, 67, 64
1, 25254, Note_off_c, 0, 55, 64
1, 25670, Note_on_c, 0, 67, 30
1, 25678, Note_on_c, 0, 47, 22
1, 25678, Note_on_c, 0, 55, 17
1, 25683, Note_on_c, 0, 62, 14
1, 25698, Note_off_c, 0, 71, 64
1, 25884, Control_c, 0, 64, 0
1, 26027, Control_c, 0, 64, 127
1, 26065, Note_on_c, 0, 69, 26
1, 26101, Note_off_c, 0, 55, 64
1, 26115, Note_off_c, 0, 67, 64
1, 26218, Note_off_c, 0, 62, 64
1, 26258, Note_on_c, 0, 71, 47
1, 26266, Note_off_c, 0, 69, 64
1, 26431, Note_on_c, 0, 69, 46
1, 26438, Note_on_c, 0, 64, 34
1, 26449, Note_on_c, 0, 59, 24
1, 26464, Note_on_c, 0, 52, 24
1, 26480, Note_off_c, 0, 71, 64
1, 26527, Note_off_c, 0, 47, 64
1, 26567, Control_c, 0, 64, 0
1, 26810, Note_off_c, 0, 69, 64
1, 26810, Note_on_c, 0, 67, 54
1, 26818, Control_c, 0, 64, 127
1, 26909, Note_off_c, 0, 64, 64
1, 26937, Note_off_c, 0, 59, 64
1, 26952, Note_off_c, 0, 67, 64
1, 27161, Note_off_c, 0, 52, 64
1, 27180, Note_on_c, 0, 66, 48
1, 27185, Note_on_c, 0, 60, 30
1, 27208, Note_on_c, 0, 57, 18
1, 27208, Note_on_c, 0, 45, 16
1, 27491, Control_c, 0, 64, 0
1, 27525, Note_on_c, 0, 64, 63
1, 27547, Note_off_c, 0, 66, 64
1, 27622, Control_c, 0, 64, 127
1, 27642, Note_off_c, 0, 45, 64
1, 27692, Note_off_c, 0, 57, 64
1, 27697, Note_off_c, 0, 60, 64
1, 27759, Note_off_c, 0, 64, 64
1, 27798, Note_on_c, 0, 66, 29
1, 27846, Note_on_c, 0, 67, 46
1, 27846, Note_off_c, 0, 66, 64
1, 27899, Note_on_c, 0, 50, 29
1, 27904, Note_on_c, 0, 66, 34
1, 27910, Note_on_c, 0, 57, 20
1, 27915, Note_on_c, 0, 62, 28
1, 27921, Note_off_c, 0, 67, 64
1, 27934, Control_c, 0, 64, 0
1, 28113, Control_c, 0, 64, 127
1, 28116, Note_on_c, 0, 64, 41
1, 28126, Note_off_c, 0, 62, 64
1, 28151, Note_off_c, 0, 66, 64
1, 28197, Note_off_c, 0, 57, 64
1, 28324, Note_off_c, 0, 64, 64
1, 28331, Note_on_c, 0, 62, 38
1, 28342, Note_on_c, 0, 59, 16
1, 28352, Note_on_c, 0, 55, 20
1, 28352, Control_c, 0, 64, 0
1, 28461, Control_c, 0, 64, 127
1, 28470, Note_off_c, 0, 62, 64
1, 28522, Note_off_c, 0, 55, 64
1, 28606, Note_off_c, 0, 50, 64
1, 28606, Note_on_c, 0, 54, 27
1, 28612, Note_off_c, 0, 59, 64
1, 28657, Note_on_c, 0, 55, 40
1, 28662, Note_off_c, 0, 54, 64
1, 28701, Note_on_c, 0, 62, 39
1, 28706, Note_off_c, 0, 55, 64
1, 28712, Note_on_c, 0, 57, 25
1, 28729, Note_on_c, 0, 54, 47
1, 28737, Control_c, 0, 64, 0
1, 28885, Note_off_c, 0, 54, 64
1, 28930, Note_off_c, 0, 57, 64
1, 28930, Note_on_c, 0, 52, 41
1, 28933, Note_on_c, 0, 55, 36
1, 29097, Note_off_c, 0, 52, 64
1, 29101, Note_off_c, 0, 55, 64
1, 29132, Note_on_c, 0, 54, 37
1, 29140, Note_on_c, 0, 50, 34
1, 29314, Note_off_c, 0, 50, 64
1, 29324, Control_c, 0, 64, 127
1, 29328, Note_off_c, 0, 54, 64
1, 29562, Control_c, 0, 64, 0
1, 29579, Note_on_c, 0, 54, 36
1, 29595, Note_on_c, 0, 50, 30
1, 29898, Control_c, 0, 64, 127
1, 29921, Note_off_c, 0, 54, 64
1, 29921, Note_off_c, 0, 62, 64
1, 30673, Note_on_c, 0, 60, 38
1, 30692, Note_on_c, 0, 40, 45
1, 30692, Note_on_c, 0, 55, 23
1, 30714, Control_c, 0, 64, 0
1, 31077, Note_on_c, 0, 62, 48
1, 31138, Note_off_c, 0, 60, 64
1, 31266, Control_c, 0, 64, 127
1, 31266, Note_on_c, 0, 64, 63
1, 31277, Note_off_c, 0, 62, 64
1, 31339, Note_off_c, 0, 55, 64
1, 31494, Note_on_c, 0, 62, 59
1, 31498, Note_on_c, 0, 57, 34
1, 31504, Note_on_c, 0, 42, 34
1, 31576, Note_off_c, 0, 40, 64
1, 31639, Note_off_c, 0, 64, 64
1, 31696, Control_c, 0, 64, 0
1, 32152, Control_c, 0, 64, 127
1, 32344, Note_off_c, 0, 42, 64
1, 32366, Note_off_c, 0, 57, 64
1, 32381, Note_on_c, 0, 59, 29
1, 32387, Note_on_c, 0, 43, 31
1, 32462, Control_c, 0, 64, 0
1, 32692, Control_c, 0, 64, 127
1, 32763, Note_on_c, 0, 64, 51
1, 32795, Note_off_c, 0, 62, 64
1, 32823, Control_c, 0, 64, 0
1, 32919, Control_c, 0, 64, 127
1, 32938, Note_off_c, 0, 59, 64
1, 32966, Note_off_c, 0, 50, 64
1, 32966, Note_off_c, 0, 64, 64
1, 33155, Note_off_c, 0, 43, 64
1, 33189, Note_on_c, 0, 45, 25
1, 33189, Note_on_c, 0, 64, 63
1, 33194, Note_on_c, 0, 60, 27
1, 33197, Note_on_c, 0, 50, 37
1, 33567, Control_c, 0, 64, 0
1, 33584, Note_on_c, 0, 66, 50
1, 33685, Control_c, 0, 64, 127
1, 33690, Note_off_c, 0, 64, 64
1, 33777, Note_on_c, 0, 67, 72
1, 33823, Note_off_c, 0, 66, 64
1, 33855, Note_off_c, 0, 60, 64
1, 33974, Note_on_c, 0, 66, 62
1, 33993, Note_on_c, 0, 62, 37
1, 33993, Note_off_c, 0, 45, 64
1, 34010, Note_on_c, 0, 47, 39
1, 34082, Note_off_c, 0, 67, 64
1, 34153, Control_c, 0, 64, 0
1, 34320, Control_c, 0, 64, 127
1, 34395, Note_off_c, 0, 50, 64
1, 34395, Note_on_c, 0, 67, 71
1, 34415, Note_on_c, 0, 52, 55
1, 34546, Note_off_c, 0, 66, 64
1, 34561, Control_c, 0, 64, 0
1, 34634, Note_off_c, 0, 62, 64
1, 34668, Control_c, 0, 64, 127
1, 34709, Note_off_c, 0, 47, 64
1, 34735, Note_off_c, 0, 52, 64
1, 34768, Note_on_c, 0, 69, 62
1, 34782, Note_on_c, 0, 62, 37
1, 34785, Note_on_c, 0, 54, 55
1, 34788, Note_on_c, 0, 45, 39
1, 34818, Note_off_c, 0, 67, 64
1, 34896, Control_c, 0, 64, 0
1, 34985, Note_off_c, 0, 45, 64
1, 35016, Control_c, 0, 64, 127
1, 35047, Note_off_c, 0, 54, 64
1, 35094, Note_on_c, 0, 43, 65
1, 35100, Control_c, 0, 64, 0
1, 35178, Note_off_c, 0, 43, 64
1, 35189, Note_on_c, 0, 74, 69
1, 35197, Note_off_c, 0, 69, 64
1, 35220, Control_c, 0, 64, 127
1, 35228, Note_on_c, 0, 59, 73
1, 35333, Note_off_c, 0, 74, 64
1, 35369, Note_off_c, 0, 62, 64
1, 35394, Note_off_c, 0, 59, 64
1, 35589, Note_on_c, 0, 62, 84
1, 35598, Note_on_c, 0, 57, 55
1, 35610, Note_on_c, 0, 42, 50
1, 35807, Control_c, 0, 64, 0
1, 35891, Note_off_c, 0, 57, 64
1, 35902, Control_c, 0, 64, 127
1, 35961, Note_off_c, 0, 42, 64
1, 35982, Note_on_c, 0, 67, 79
1, 35991, Note_on_c, 0, 59, 50
1, 36016, Note_on_c, 0, 43, 43
1, 36041, Note_off_c, 0, 62, 64
1, 36107, Control_c, 0, 64, 0
1, 36239, Control_c, 0, 64, 127
1, 36259, Note_off_c, 0, 43, 64
1, 36314, Note_off_c, 0, 59, 64
1, 36379, Note_on_c, 0, 66, 64
1, 36386, Note_on_c, 0, 62, 52
1, 36408, Note_on_c, 0, 45, 34
1, 36411, Note_off_c, 0, 67, 64
1, 36411, Note_on_c, 0, 57, 25
1, 36598, Control_c, 0, 64, 0
1, 36835, Note_on_c, 0, 64, 59
1, 36852, Note_off_c, 0, 66, 64
1, 37005, Control_c, 0, 64, 127
1, 37035, Note_off_c, 0, 62, 64
1, 37055, Note_off_c, 0, 64, 64
1, 37064, Note_off_c, 0, 57, 64
1, 37228, Note_on_c, 0, 61, 40
1, 37232, Note_on_c, 0, 64, 55
1, 37267, Note_on_c, 0, 55, 31
1, 37365, Control_c, 0, 64, 0
1, 37743, Note_off_c, 0, 64, 64
1, 37743, Note_on_c, 0, 62, 45
1, 37904, Note_off_c, 0, 62, 64
1, 37904, Control_c, 0, 64, 127
1, 37925, Note_off_c, 0, 61, 64
1, 37932, Note_off_c, 0, 55, 64
1, 38153, Note_on_c, 0, 62, 41
1, 38163, Note_on_c, 0, 57, 24
1, 38167, Note_on_c, 0, 55, 37
1, 38173, Note_on_c, 0, 50, 21
1, 38203, Control_c, 0, 64, 0
1, 38264, Note_off_c, 0, 45, 64
1, 38412, Note_off_c, 0, 55, 64
1, 38418, Note_on_c, 0, 52, 48
1, 38624, Control_c, 0, 64, 127
1, 38648, Control_c, 0, 64, 0
1, 38702, Note_off_c, 0, 52, 64
1, 38718, Note_on_c, 0, 54, 35
1, 38887, Control_c, 0, 64, 127
1, 38915, Note_off_c, 0, 62, 64
1, 38957, Note_off_c, 0, 57, 64
1, 38977, Note_off_c, 0, 54, 64
1, 39267, Note_on_c, 0, 62, 33
1, 39267, Note_on_c, 0, 54, 28
1, 39286, Note_on_c, 0, 57, 21
1, 39522, Control_c, 0, 64, 0
1, 39726, Control_c, 0, 64, 127
1, 39879, Note_off_c, 0, 50, 64
1, 40184, Note_on_c, 0, 38, 17
1, 40230, Control_c, 0, 64, 0
1, 40409, Control_c, 0, 64, 127
1, 40450, Note_off_c, 0, 54, 64
1, 40462, Note_off_c, 0, 38, 64
1, 40478, Note_off_c, 0, 62, 64
1, 40490, Note_off_c, 0, 57, 64
1, 41322, Note_on_c, 0, 71, 39
1, 41328, Note_on_c, 0, 59, 19
1, 41347, Note_on_c, 0, 66, 15
1, 41351, Note_on_c, 0, 50, 20
1, 41392, Control_c, 0, 64, 0
1, 41655, Control_c, 0, 64, 127
1, 41733, Note_on_c, 0, 73, 42
1, 41846, Note_off_c, 0, 71, 64
1, 41900, Note_on_c, 0, 74, 68
1, 41925, Note_off_c, 0, 73, 64
1, 42078, Note_on_c, 0, 73, 60
1, 42108, Note_off_c, 0, 74, 64
1, 42208, Control_c, 0, 64, 0
1, 42362, Control_c, 0, 64, 127
1, 42513, Note_on_c, 0, 71, 47
1, 42574, Note_off_c, 0, 66, 64
1, 42662, Control_c, 0, 64, 0
1, 42683, Note_off_c, 0, 73, 64
1, 42771, Control_c, 0, 64, 127
1, 42838, Note_on_c, 0, 67, 33
1, 42846, Note_off_c, 0, 50, 64
1, 42875, Note_on_c, 0, 52, 27
1, 43100, Note_off_c, 0, 71, 64
1, 43150, Note_on_c, 0, 73, 59
1, 43267, Note_off_c, 0, 73, 64
1, 43370, Note_on_c, 0, 70, 41
1, 43410, Note_off_c, 0, 70, 64
1, 43414, Note_on_c, 0, 71, 72
1, 43443, Note_off_c, 0, 67, 64
1, 43460, Note_on_c, 0, 70, 41
1, 43468, Note_on_c, 0, 66, 33
1, 43471, Note_off_c, 0, 52, 64
1, 43496, Note_off_c, 0, 71, 64
1, 43496, Note_on_c, 0, 54, 34
1, 43537, Control_c, 0, 64, 0
1, 43590, Note_off_c, 0, 59, 64
1, 43662, Note_on_c, 0, 68, 55
1, 43669, Control_c, 0, 64, 127
1, 43718, Note_off_c, 0, 70, 64
1, 43718, Note_off_c, 0, 66, 64
1, 43822, Note_on_c, 0, 66, 47
1, 43827, Note_on_c, 0, 59, 38
1, 43841, Note_off_c, 0, 68, 64
1, 43844, Note_on_c, 0, 62, 35
1, 43872, Control_c, 0, 64, 0
1, 43967, Note_off_c, 0, 66, 64
1, 43967, Control_c, 0, 64, 127
1, 44003, Note_off_c, 0, 59, 64
1, 44027, Note_on_c, 0, 58, 39
1, 44077, Note_off_c, 0, 58, 64
1, 44077, Note_on_c, 0, 59, 47
1, 44112, Control_c, 0, 64, 0
1, 44119, Note_off_c, 0, 59, 64
1, 44134, Note_on_c, 0, 58, 36
1, 44139, Note_on_c, 0, 61, 54
1, 44139, Note_on_c, 0, 66, 35
1, 44150, Note_off_c, 0, 62, 64
1, 44309, Note_on_c, 0, 56, 38
1, 44321, Note_off_c, 0, 58, 64
1, 44324, Note_off_c, 0, 54, 64
1, 44495, Note_on_c, 0, 54, 53
1, 44502, Note_off_c, 0, 56, 64
1, 44711, Control_c, 0, 64, 127
1, 44765, Note_off_c, 0, 54, 64
1, 44875, Note_on_c, 0, 54, 41
1, 44997, Note_off_c, 0, 66, 64
1, 45027, Note_off_c, 0, 61, 64
1, 45612, Note_on_c, 0, 71, 65
1, 45621, Note_on_c, 0, 66, 24
1, 45641, Note_on_c, 0, 59, 25
1, 45644, Note_off_c, 0, 54, 64
1, 45651, Note_on_c, 0, 50, 26
1, 45778, Control_c, 0, 64, 0
1, 45922, Control_c, 0, 64, 127
1, 45949, Note_on_c, 0, 73, 71
1, 46025, Note_off_c, 0, 71, 64
1, 46158, Note_on_c, 0, 74, 91
1, 46158, Note_off_c, 0, 59, 64
1, 46204, Note_off_c, 0, 73, 64
1, 46223, Note_off_c, 0, 66, 64
1, 46248, Note_off_c, 0, 74, 64
1, 46306, Note_off_c, 0, 50, 64
1, 46399, Note_on_c, 0, 74, 85
1, 46404, Note_on_c, 0, 66, 53
1, 46424, Note_on_c, 0, 49, 29
1, 46434, Note_on_c, 0, 59, 31
1, 46736, Control_c, 0, 64, 0
1, 46878, Note_on_c, 0, 73, 62
1, 46924, Note_off_c, 0, 74, 64
1, 47097, Control_c, 0, 64, 127
1, 47114, Note_off_c, 0, 73, 64
1, 47142, Note_off_c, 0, 66, 64
1, 47243, Note_on_c, 0, 73, 43
1, 47278, Note_on_c, 0, 65, 19
1, 47432, Control_c, 0, 64, 0
1, 47576, Control_c, 0, 64, 127
1, 47608, Note_on_c, 0, 70, 42
1, 47638, Note_off_c, 0, 73, 64
1, 47668, Note_off_c, 0, 65, 64
1, 47708, Note_off_c, 0, 70, 64
1, 47821, Note_on_c, 0, 70, 34
1, 47866, Note_off_c, 0, 70, 64
1, 47878, Note_on_c, 0, 71, 51
1, 47895, Note_off_c, 0, 59, 64
1, 47945, Note_off_c, 0, 71, 64
1, 47945, Note_on_c, 0, 70, 15
1, 47959, Note_on_c, 0, 66, 16
1, 47970, Note_on_c, 0, 54, 19
1, 47995, Control_c, 0, 64, 0
1, 48051, Note_off_c, 0, 49, 64
1, 48164, Control_c, 0, 64, 127
1, 48178, Note_on_c, 0, 68, 26
1, 48217, Note_off_c, 0, 70, 64
1, 48217, Note_off_c, 0, 66, 64
1, 48443, Note_off_c, 0, 68, 64
1, 48449, Note_on_c, 0, 66, 25
1, 48455, Note_on_c, 0, 62, 16
1, 48463, Note_on_c, 0, 59, 25
1, 48523, Control_c, 0, 64, 0
1, 48630, Control_c, 0, 64, 127
1, 48655, Note_off_c, 0, 66, 64
1, 48702, Note_off_c, 0, 59, 64
1, 48738, Note_on_c, 0, 58, 14
1, 48794, Note_on_c, 0, 59, 32
1, 48842, Note_off_c, 0, 59, 64
1, 48880, Note_on_c, 0, 61, 41
1, 48880, Note_off_c, 0, 62, 64
1, 48889, Note_on_c, 0, 66, 17
1, 48894, Control_c, 0, 64, 0
1, 49026, Control_c, 0, 64, 127
1, 49067, Note_on_c, 0, 56, 29
1, 49083, Note_off_c, 0, 58, 64
1, 49092, Note_off_c, 0, 54, 64
1, 49278, Note_off_c, 0, 56, 64
1, 49290, Note_on_c, 0, 54, 44
1, 49301, Control_c, 0, 64, 0
1, 49513, Note_off_c, 0, 54, 64
1, 49518, Control_c, 0, 64, 127
1, 49697, Control_c, 0, 64, 0
1, 49733, Note_on_c, 0, 54, 32
1, 49984, Control_c, 0, 64, 127
1, 50065, Note_off_c, 0, 66, 64
1, 50065, Note_off_c, 0, 61, 64
1, 50647, Note_off_c, 0, 54, 64
1, 50668, Note_on_c, 0, 66, 35
1, 50674, Note_on_c, 0, 59, 38
1, 50689, Note_on_c, 0, 50, 24
1, 50859, Control_c, 0, 64, 0
1, 51064, Control_c, 0, 64, 127
1, 51159, Note_on_c, 0, 61, 63
1, 51281, Note_off_c, 0, 59, 64
1, 51377, Note_on_c, 0, 62, 75
1, 51419, Note_off_c, 0, 61, 64
1, 51479, Note_off_c, 0, 62, 64
1, 51493, Note_off_c, 0, 66, 64
1, 51526, Note_on_c, 0, 62, 55
1, 51591, Note_on_c, 0, 67, 60
1, 51614, Note_off_c, 0, 50, 64
1, 51630, Note_on_c, 0, 52, 25
1, 51699, Control_c, 0, 64, 0
1, 51819, Control_c, 0, 64, 127
1, 52022, Note_off_c, 0, 62, 64
1, 52036, Note_on_c, 0, 61, 39
1, 52213, Control_c, 0, 64, 0
1, 52334, Control_c, 0, 64, 127
1, 52398, Note_on_c, 0, 46, 26
1, 52416, Note_off_c, 0, 52, 64
1, 52622, Control_c, 0, 64, 0
1, 52741, Control_c, 0, 64, 127
1, 52836, Note_on_c, 0, 66, 30
1, 52886, Note_off_c, 0, 67, 64
1, 52958, Control_c, 0, 64, 0
1, 53089, Control_c, 0, 64, 127
1, 53131, Note_off_c, 0, 66, 64
1, 53170, Note_off_c, 0, 61, 64
1, 53229, Note_on_c, 0, 66, 30
1, 53235, Note_on_c, 0, 50, 37
1, 53235, Note_on_c, 0, 59, 53
1, 53293, Note_off_c, 0, 46, 64
1, 53401, Control_c, 0, 64, 0
1, 53494, Note_on_c, 0, 61, 67
1, 53533, Control_c, 0, 64, 127
1, 53538, Note_off_c, 0, 59, 64
1, 53611, Note_off_c, 0, 61, 64
1, 53669, Note_on_c, 0, 61, 66
1, 53830, Note_off_c, 0, 61, 64
1, 53847, Note_on_c, 0, 62, 61
1, 53886, Note_off_c, 0, 62, 64
1, 53892, Note_off_c, 0, 66, 64
1, 53947, Note_on_c, 0, 62, 57
1, 54032, Note_on_c, 0, 52, 41
1, 54056, Note_off_c, 0, 50, 64
1, 54076, Note_on_c, 0, 67, 57
1, 54276, Control_c, 0, 64, 0
1, 54516, Control_c, 0, 64, 127
1, 54527, Note_on_c, 0, 61, 46
1, 54605, Note_off_c, 0, 62, 64
1, 54670, Control_c, 0, 64, 0
1, 54816, Control_c, 0, 64, 127
1, 54915, Note_on_c, 0, 46, 33
1, 54956, Note_off_c, 0, 52, 64
1, 55138, Control_c, 0, 64, 0
1, 55259, Control_c, 0, 64, 127
1, 55427, Note_on_c, 0, 66, 36
1, 55454, Note_off_c, 0, 67, 64
1, 55486, Control_c, 0, 64, 0
1, 55617, Control_c, 0, 64, 127
1, 55649, Note_off_c, 0, 61, 64
1, 55747, Note_off_c, 0, 66, 64
1, 55758, Note_on_c, 0, 59, 59
1, 55850, Note_on_c, 0, 50, 36
1, 55876, Note_on_c, 0, 66, 58
1, 55890, Note_off_c, 0, 46, 64
1, 55929, Control_c, 0, 64, 0
1, 56060, Control_c, 0, 64, 127
1, 56074, Note_off_c, 0, 66, 64
1, 56123, Note_on_c, 0, 66, 66
1, 56123, Note_on_c, 0, 69, 64
1, 56148, Note_off_c, 0, 59, 64
1, 56238, Note_off_c, 0, 69, 64
1, 56238, Note_off_c, 0, 66, 64
1, 56308, Note_on_c, 0, 69, 48
1, 56318, Note_on_c, 0, 66, 40
1, 56433, Note_off_c, 0, 66, 64
1, 56496, Note_on_c, 0, 67, 69
1, 56496, Note_on_c, 0, 64, 70
1, 56505, Note_off_c, 0, 69, 64
1, 56585, Note_off_c, 0, 64, 64
1, 56706, Note_off_c, 0, 67, 64
1, 56706, Note_on_c, 0, 66, 66
1, 56713, Note_on_c, 0, 62, 73
1, 56722, Note_off_c, 0, 50, 64
1, 56722, Note_on_c, 0, 52, 36
1, 56876, Control_c, 0, 64, 0
1, 57068, Control_c, 0, 64, 127
1, 57085, Note_on_c, 0, 61, 65
1, 57089, Note_on_c, 0, 64, 74
1, 57118, Note_off_c, 0, 62, 64
1, 57126, Note_off_c, 0, 66, 64
1, 57248, Control_c, 0, 64, 0
1, 57368, Control_c, 0, 64, 127
1, 57460, Note_on_c, 0, 54, 40
1, 57464, Note_on_c, 0, 62, 70
1, 57464, Note_on_c, 0, 59, 48
1, 57482, Note_off_c, 0, 61, 64
1, 57486, Note_off_c, 0, 52, 64
1, 57491, Note_off_c, 0, 64, 64
1, 57547, Control_c, 0, 64, 0
1, 57703, Control_c, 0, 64, 127
1, 57758, Note_off_c, 0, 62, 64
1, 57848, Note_on_c, 0, 61, 68
1, 57851, Note_on_c, 0, 58, 46
1, 57898, Note_off_c, 0, 59, 64
1, 57967, Control_c, 0, 64, 0
1, 58087, Control_c, 0, 64, 127
1, 58087, Note_off_c, 0, 58, 64
1, 58093, Note_off_c, 0, 61, 64
1, 58226, Note_on_c, 0, 61, 55
1, 58234, Note_on_c, 0, 58, 39
1, 58266, Note_on_c, 0, 47, 32
1, 58301, Note_off_c, 0, 54, 64
1, 58386, Control_c, 0, 64, 0
1, 58602, Control_c, 0, 64, 127
1, 58636, Note_off_c, 0, 58, 64
1, 58639, Control_c, 0, 64, 0
1, 58667, Note_on_c, 0, 62, 44
1, 58683, Note_off_c, 0, 61, 64
1, 58694, Note_on_c, 0, 59, 26
1, 58878, Control_c, 0, 64, 127
1, 58920, Note_off_c, 0, 59, 64
1, 58962, Note_off_c, 0, 62, 64
1, 59082, Control_c, 0, 64, 0
1, 59095, Note_on_c, 0, 42, 26
1, 59107, Note_on_c, 0, 62, 37
1, 59127, Note_on_c, 0, 59, 13
1, 59152, Note_off_c, 0, 47, 64
1, 59237, Control_c, 0, 64, 127
1, 59357, Control_c, 0, 64, 0
1, 59441, Control_c, 0, 64, 127
1, 59477, Control_c, 0, 64, 0
1, 59609, Control_c, 0, 64, 127
1, 59932, Control_c, 0, 64, 0
1, 59942, Note_on_c, 0, 35, 34
1, 59954, Note_off_c, 0, 42, 64
1, 60196, Control_c, 0, 64, 127
1, 60251, Note_off_c, 0, 35, 64
1, 60489, Note_off_c, 0, 62, 64
1, 60583, Note_off_c, 0, 59, 64
1, 60901, Note_on_c, 0, 50, 30
1, 60901, Note_on_c, 0, 42, 34
1, 60915, Control_c, 0, 64, 0
1, 61168, Control_c, 0, 64, 127
1, 61329, Note_on_c, 0, 60, 39
1, 61335, Note_on_c, 0, 57, 27
1, 61347, Control_c, 0, 64, 0
1, 61517, Note_off_c, 0, 57, 64
1, 61533, Note_on_c, 0, 62, 57
1, 61539, Note_on_c, 0, 59, 55
1, 61556, Note_off_c, 0, 60, 64
1, 61647, Control_c, 0, 64, 127
1, 61730, Control_c, 0, 64, 0
1, 61740, Note_off_c, 0, 62, 64
1, 61740, Note_on_c, 0, 60, 68
1, 61747, Note_on_c, 0, 57, 47
1, 61750, Note_off_c, 0, 59, 64
1, 61921, Control_c, 0, 64, 127
1, 61921, Note_off_c, 0, 57, 64
1, 61940, Note_off_c, 0, 60, 64
1, 62138, Control_c, 0, 64, 0
1, 62154, Note_on_c, 0, 69, 50
1, 62194, Note_on_c, 0, 60, 37
1, 62425, Control_c, 0, 64, 127
1, 62520, Note_off_c, 0, 42, 64
1, 62533, Control_c, 0, 64, 0
1, 62541, Note_on_c, 0, 38, 30
1, 62701, Note_off_c, 0, 60, 64
1, 62701, Control_c, 0, 64, 127
1, 62887, Note_off_c, 0, 69, 64
1, 62929, Control_c, 0, 64, 0
1, 62929, Note_on_c, 0, 60, 53
1, 62937, Note_on_c, 0, 57, 29
1, 63057, Note_off_c, 0, 50, 64
1, 63057, Control_c, 0, 64, 127
1, 63101, Note_off_c, 0, 60, 64
1, 63138, Note_off_c, 0, 57, 64
1, 63144, Note_off_c, 0, 38, 64
1, 63318, Note_on_c, 0, 60, 52
1, 63328, Note_on_c, 0, 57, 20
1, 63335, Note_on_c, 0, 43, 18
1, 63346, Note_on_c, 0, 50, 27
1, 63480, Control_c, 0, 64, 0
1, 63708, Note_off_c, 0, 60, 64
1, 63711, Note_on_c, 0, 55, 33
1, 63726, Note_on_c, 0, 59, 32
1, 63736, Note_off_c, 0, 57, 64
1, 63959, Control_c, 0, 64, 127
1, 63967, Note_off_c, 0, 59, 64
1, 63971, Note_off_c, 0, 55, 64
1, 64194, Note_on_c, 0, 59, 27
1, 64208, Note_on_c, 0, 55, 27
1, 64283, Control_c, 0, 64, 0
1, 64361, Note_off_c, 0, 50, 64
1, 64403, Control_c, 0, 64, 127
1, 64527, Note_off_c, 0, 43, 64
1, 64534, Note_on_c, 0, 51, 41
1, 64539, Note_on_c, 0, 42, 45
1, 64594, Control_c, 0, 64, 0
1, 64775, Control_c, 0, 64, 127
1, 64795, Note_off_c, 0, 42, 64
1, 64801, Note_off_c, 0, 51, 64
1, 64904, Note_on_c, 0, 51, 51
1, 64912, Note_on_c, 0, 42, 54
1, 65062, Control_c, 0, 64, 0
1, 65205, Control_c, 0, 64, 127
1, 65244, Note_off_c, 0, 51, 64
1, 65252, Note_off_c, 0, 42, 64
1, 65278, Note_on_c, 0, 40, 60
1, 65285, Note_on_c, 0, 52, 51
1, 65338, Control_c, 0, 64, 0
1, 65530, Control_c, 0, 64, 127
1, 65589, Note_off_c, 0, 40, 64
1, 65606, Note_off_c, 0, 55, 64
1, 65653, Note_off_c, 0, 52, 64
1, 65740, Note_on_c, 0, 39, 47
1, 65764, Note_on_c, 0, 47, 55
1, 65888, Control_c, 0, 64, 0
1, 66093, Control_c, 0, 64, 127
1, 66138, Note_on_c, 0, 54, 52
1, 66138, Note_off_c, 0, 59, 64
1, 66147, Note_on_c, 0, 57, 42
1, 66200, Control_c, 0, 64, 0
1, 66296, Note_off_c, 0, 54, 64
1, 66336, Note_on_c, 0, 55, 58
1, 66341, Note_on_c, 0, 59, 61
1, 66344, Control_c, 0, 64, 127
1, 66355, Note_off_c, 0, 57, 64
1, 66369, Control_c, 0, 64, 0
1, 66477, Control_c, 0, 64, 127
1, 66530, Note_off_c, 0, 55, 64
1, 66536, Control_c, 0, 64, 0
1, 66541, Note_on_c, 0, 54, 63
1, 66548, Note_on_c, 0, 57, 69
1, 66555, Note_off_c, 0, 59, 64
1, 66704, Control_c, 0, 64, 127
1, 66734, Note_off_c, 0, 57, 64
1, 66804, Note_off_c, 0, 54, 64
1, 66955, Control_c, 0, 64, 0
1, 66976, Note_on_c, 0, 66, 65
1, 66998, Note_on_c, 0, 57, 41
1, 67291, Control_c, 0, 64, 127
1, 67375, Control_c, 0, 64, 0
1, 67405, Note_off_c, 0, 39, 64
1, 67405, Note_on_c, 0, 35, 54
1, 67486, Note_off_c, 0, 57, 64
1, 67603, Control_c, 0, 64, 127
1, 67760, Note_off_c, 0, 66, 64
1, 67796, Note_on_c, 0, 54, 58
1, 67796, Note_on_c, 0, 57, 60
1, 67818, Control_c, 0, 64, 0
1, 67951, Control_c, 0, 64, 127
1, 67966, Note_off_c, 0, 47, 64
1, 67982, Note_off_c, 0, 57, 64
1, 68049, Note_off_c, 0, 54, 64
1, 68179, Note_off_c, 0, 35, 64
1, 68191, Note_on_c, 0, 54, 56
1, 68191, Note_on_c, 0, 57, 63
1, 68200, Note_on_c, 0, 40, 54
1, 68218, Note_on_c, 0, 47, 31
1, 68358, Control_c, 0, 64, 0
1, 68526, Control_c, 0, 64, 127
1, 68586, Note_on_c, 0, 55, 69
1, 68592, Note_on_c, 0, 52, 41
1, 68608, Note_off_c, 0, 54, 64
1, 68628, Note_off_c, 0, 57, 64
1, 68634, Control_c, 0, 64, 0
1, 68829, Note_off_c, 0, 52, 64
1, 68849, Control_c, 0, 64, 127
1, 68879, Note_off_c, 0, 55, 64
1, 69065, Note_on_c, 0, 55, 55
1, 69080, Note_on_c, 0, 52, 44
1, 69113, Control_c, 0, 64, 0
1, 69211, Note_off_c, 0, 47, 64
1, 69233, Control_c, 0, 64, 127
1, 69275, Note_off_c, 0, 52, 64
1, 69288, Note_off_c, 0, 55, 64
1, 69291, Note_off_c, 0, 40, 64
1, 69295, Note_on_c, 0, 35, 61
1, 69367, Note_on_c, 0, 43, 57
1, 69405, Note_on_c, 0, 50, 65
1, 69470, Note_on_c, 0, 53, 103
1, 69473, Control_c, 0, 64, 0
1, 69701, Note_off_c, 0, 53, 64
1, 69712, Control_c, 0, 64, 127
1, 69756, Note_off_c, 0, 50, 64
1, 69898, Note_on_c, 0, 62, 89
1, 69916, Control_c, 0, 64, 0
1, 69924, Note_on_c, 0, 53, 68
1, 70096, Control_c, 0, 64, 127
1, 70150, Note_off_c, 0, 53, 64
1, 70153, Note_off_c, 0, 62, 64
1, 70366, Note_on_c, 0, 53, 100
1, 70398, Note_on_c, 0, 50, 36
1, 70514, Note_off_c, 0, 43, 64
1, 70595, Note_off_c, 0, 53, 64
1, 70595, Note_off_c, 0, 50, 64
1, 70682, Note_on_c, 0, 36, 36
1, 70729, Note_on_c, 0, 43, 51
1, 70740, Note_on_c, 0, 53, 82
1, 70740, Note_on_c, 0, 50, 75
1, 70751, Note_off_c, 0, 35, 64
1, 70779, Control_c, 0, 64, 0
1, 71079, Control_c, 0, 64, 127
1, 71141, Note_off_c, 0, 50, 64
1, 71147, Note_on_c, 0, 52, 70
1, 71150, Note_on_c, 0, 48, 38
1, 71174, Note_off_c, 0, 53, 64
1, 71210, Control_c, 0, 64, 0
1, 71414, Control_c, 0, 64, 127
1, 71420, Note_off_c, 0, 48, 64
1, 71431, Note_off_c, 0, 52, 64
1, 71635, Note_on_c, 0, 52, 49
1, 71651, Note_on_c, 0, 48, 32
1, 71651, Note_off_c, 0, 36, 64
1, 71720, Note_off_c, 0, 43, 64
1, 71884, Note_on_c, 0, 32, 44
1, 71910, Note_off_c, 0, 48, 64
1, 71930, Note_on_c, 0, 40, 81
1, 71983, Note_on_c, 0, 47, 49
1, 72013, Control_c, 0, 64, 0
1, 72052, Note_on_c, 0, 50, 92
1, 72088, Note_off_c, 0, 52, 64
1, 72288, Control_c, 0, 64, 127
1, 72288, Note_off_c, 0, 50, 64
1, 72300, Note_off_c, 0, 47, 64
1, 72511, Note_on_c, 0, 59, 89
1, 72548, Note_on_c, 0, 50, 44
1, 72600, Control_c, 0, 64, 0
1, 72720, Control_c, 0, 64, 127
1, 72740, Note_off_c, 0, 59, 64
1, 72748, Note_off_c, 0, 50, 64
1, 72933, Note_off_c, 0, 40, 64
1, 72940, Note_on_c, 0, 50, 87
1, 72963, Note_on_c, 0, 47, 44
1, 73127, Note_off_c, 0, 47, 64
1, 73164, Note_off_c, 0, 50, 64
1, 73180, Note_off_c, 0, 32, 64
1, 73356, Control_c, 0, 64, 0
1, 73400, Note_on_c, 0, 47, 52
1, 73417, Note_on_c, 0, 50, 31
1, 73423, Note_on_c, 0, 33, 33
1, 73442, Note_on_c, 0, 48, 17
1, 73448, Note_on_c, 0, 40, 37
1, 73493, Note_off_c, 0, 48, 64
1, 73854, Note_off_c, 0, 47, 64
1, 73873, Note_on_c, 0, 45, 41
1, 73879, Note_on_c, 0, 48, 34
1, 73902, Note_off_c, 0, 50, 64
1, 74099, Control_c, 0, 64, 127
1, 74122, Note_off_c, 0, 48, 64
1, 74142, Note_off_c, 0, 45, 64
1, 74242, Control_c, 0, 64, 0
1, 74263, Note_on_c, 0, 45, 34
1, 74269, Note_on_c, 0, 48, 38
1, 74386, Control_c, 0, 64, 127
1, 74389, Note_off_c, 0, 45, 64
1, 74414, Note_off_c, 0, 48, 64
1, 74682, Note_on_c, 0, 60, 41
1, 74688, Note_on_c, 0, 57, 33
1, 74755, Note_off_c, 0, 40, 64
1, 74755, Control_c, 0, 64, 0
1, 74891, Note_off_c, 0, 33, 64
1, 74913, Control_c, 0, 64, 127
1, 74977, Note_off_c, 0, 57, 64
1, 74988, Note_off_c, 0, 60, 64
1, 75088, Note_on_c, 0, 60, 32
1, 75100, Note_on_c, 0, 57, 32
1, 75165, Control_c, 0, 64, 0
1, 75309, Control_c, 0, 64, 127
1, 75336, Note_off_c, 0, 60, 64
1, 75340, Note_off_c, 0, 57, 64
1, 75486, Note_on_c, 0, 60, 30
1, 75501, Note_on_c, 0, 59, 30
1, 75501, Note_on_c, 0, 55, 29
1, 75573, Control_c, 0, 64, 0
1, 75691, Control_c, 0, 64, 127
1, 75712, Note_off_c, 0, 55, 64
1, 75720, Note_off_c, 0, 60, 64
1, 75729, Note_off_c, 0, 59, 64
1, 75879, Note_on_c, 0, 59, 29
1, 75879, Note_on_c, 0, 55, 46
1, 75879, Note_on_c, 0, 60, 44
1, 75980, Control_c, 0, 64, 0
1, 76063, Note_off_c, 0, 60, 64
1, 76063, Control_c, 0, 64, 127
1, 76099, Note_off_c, 0, 55, 64
1, 76130, Note_off_c, 0, 59, 64
1, 76256, Note_on_c, 0, 54, 56
1, 76256, Note_on_c, 0, 60, 54
1, 76276, Note_on_c, 0, 57, 36
1, 76351, Control_c, 0, 64, 0
1, 76470, Note_off_c, 0, 60, 64
1, 76475, Note_off_c, 0, 57, 64
1, 76484, Control_c, 0, 64, 127
1, 76495, Note_off_c, 0, 54, 64
1, 76632, Note_on_c, 0, 54, 50
1, 76640, Note_on_c, 0, 60, 57
1, 76652, Note_on_c, 0, 57, 33
1, 76771, Control_c, 0, 64, 0
1, 76872, Note_off_c, 0, 60, 64
1, 76880, Note_off_c, 0, 54, 64
1, 76880, Control_c, 0, 64, 127
1, 76900, Note_off_c, 0, 57, 64
1, 77003, Note_on_c, 0, 61, 59
1, 77011, Note_on_c, 0, 52, 55
1, 77024, Note_on_c, 0, 55, 37
1, 77083, Control_c, 0, 64, 0
1, 77214, Control_c, 0, 64, 127
1, 77234, Note_off_c, 0, 55, 64
1, 77237, Note_off_c, 0, 52, 64
1, 77241, Note_off_c, 0, 61, 64
1, 77379, Note_on_c, 0, 61, 68
1, 77397, Note_on_c, 0, 52, 63
1, 77404, Note_on_c, 0, 55, 46
1, 77490, Control_c, 0, 64, 0
1, 77598, Control_c, 0, 64, 127
1, 77618, Note_off_c, 0, 52, 64
1, 77618, Note_off_c, 0, 55, 64
1, 77688, Note_off_c, 0, 61, 64
1, 77748, Note_on_c, 0, 50, 54
1, 77751, Note_on_c, 0, 54, 56
1, 77751, Note_on_c, 0, 62, 59
1, 77861, Control_c, 0, 64, 0
1, 77982, Control_c, 0, 64, 127
1, 78000, Note_off_c, 0, 54, 64
1, 78007, Note_off_c, 0, 62, 64
1, 78013, Note_off_c, 0, 50, 64
1, 78122, Note_on_c, 0, 54, 70
1, 78122, Note_on_c, 0, 62, 79
1, 78130, Note_on_c, 0, 50, 44
1, 78331, Note_off_c, 0, 54, 64
1, 78340, Note_off_c, 0, 50, 64
1, 78364, Note_off_c, 0, 62, 64
1, 78481, Note_on_c, 0, 64, 81
1, 78487, Note_on_c, 0, 50, 62
1, 78487, Note_on_c, 0, 61, 62
1, 78495, Note_on_c, 0, 55, 60
1, 78629, Control_c, 0, 64, 0
1, 78727, Note_off_c, 0, 50, 64
1, 78737, Control_c, 0, 64, 127
1, 78741, Note_off_c, 0, 55, 64
1, 78751, Note_off_c, 0, 64, 64
1, 78763, Note_off_c, 0, 61, 64
1, 78847, Note_on_c, 0, 50, 75
1, 78847, Note_on_c, 0, 61, 58
1, 78850, Note_on_c, 0, 64, 78
1, 78860, Note_on_c, 0, 55, 77
1, 79069, Note_off_c, 0, 64, 64
1, 79083, Note_off_c, 0, 55, 64
1, 79092, Note_off_c, 0, 50, 64
1, 79130, Note_off_c, 0, 61, 64
1, 79200, Note_on_c, 0, 66, 78
1, 79200, Note_on_c, 0, 60, 74
1, 79208, Note_on_c, 0, 57, 64
1, 79211, Note_on_c, 0, 50, 63
1, 79347, Control_c, 0, 64, 0
1, 79454, Control_c, 0, 64, 127
1, 79476, Note_off_c, 0, 50, 64
1, 79476, Note_off_c, 0, 57, 64
1, 79481, Note_off_c, 0, 66, 64
1, 79490, Note_off_c, 0, 60, 64
1, 79579, Note_on_c, 0, 66, 83
1, 79585, Note_on_c, 0, 57, 72
1, 79585, Note_on_c, 0, 60, 65
1, 79588, Note_on_c, 0, 50, 75
1, 79863, Note_off_c, 0, 60, 64
1, 79863, Note_off_c, 0, 57, 64
1, 79922, Note_off_c, 0, 50, 64
1, 79955, Note_off_c, 0, 66, 64
1, 79999, Note_on_c, 0, 67, 86
1, 79999, Note_on_c, 0, 50, 52
1, 80003, Note_on_c, 0, 59, 70
1, 80010, Note_on_c, 0, 65, 62
1, 80067, Control_c, 0, 64, 0
1, 80234, Control_c, 0, 64, 127
1, 80244, Note_off_c, 0, 50, 64
1, 80256, Note_off_c, 0, 65, 64
1, 80269, Note_off_c, 0, 59, 64
1, 80278, Note_off_c, 0, 67, 64
1, 80484, Note_on_c, 0, 67, 90
1, 80488, Note_on_c, 0, 59, 79
1, 80488, Note_on_c, 0, 65, 79
1, 80492, Note_on_c, 0, 50, 83
1, 80496, Note_on_c, 0, 43, 74
1, 80985, Note_on_c, 0, 69, 85
1, 81200, Note_off_c, 0, 67, 64
1, 81250, Note_off_c, 0, 69, 64
1, 81281, Note_off_c, 0, 59, 64
1, 81417, Note_on_c, 0, 69, 80
1, 81417, Note_on_c, 0, 67, 80
1, 81424, Note_on_c, 0, 60, 70
1, 81429, Note_on_c, 0, 51, 84
1, 81459, Note_off_c, 0, 50, 64
1, 81479, Note_off_c, 0, 65, 64
1, 81816, Control_c, 0, 64, 0
1, 81985, Control_c, 0, 64, 127
1, 82033, Control_c, 0, 64, 0
1, 82225, Control_c, 0, 64, 127
1, 82334, Note_on_c, 0, 66, 72
1, 82577, Note_off_c, 0, 67, 64
1, 82584, Control_c, 0, 64, 0
1, 82715, Control_c, 0, 64, 127
1, 82719, Note_on_c, 0, 71, 94
1, 82930, Note_off_c, 0, 69, 64
1, 82935, Note_off_c, 0, 43, 64
1, 82967, Note_off_c, 0, 60, 64
1, 82988, Note_off_c, 0, 71, 64
1, 83045, Note_off_c, 0, 66, 64
1, 83156, Note_on_c, 0, 71, 101
1, 83162, Note_on_c, 0, 62, 80
1, 83162, Note_on_c, 0, 43, 63
1, 83165, Note_on_c, 0, 67, 73
1, 83165, Note_on_c, 0, 53, 97
1, 83220, Note_off_c, 0, 51, 64
1, 83265, Control_c, 0, 64, 0
1, 83410, Control_c, 0, 64, 127
1, 83457, Note_off_c, 0, 62, 64
1, 83460, Note_off_c, 0, 43, 64
1, 83562, Note_off_c, 0, 71, 64
1, 83630, Note_on_c, 0, 72, 89
1, 83630, Note_on_c, 0, 60, 83
1, 83662, Note_off_c, 0, 53, 64
1, 83743, Note_off_c, 0, 60, 64
1, 83772, Note_off_c, 0, 72, 64
1, 83832, Note_on_c, 0, 74, 98
1, 83841, Note_on_c, 0, 59, 76
1, 83939, Note_off_c, 0, 74, 64
1, 83949, Note_off_c, 0, 59, 64
1, 84016, Note_off_c, 0, 67, 64
1, 84048, Note_on_c, 0, 72, 90
1, 84048, Note_on_c, 0, 52, 86
1, 84059, Note_on_c, 0, 60, 73
1, 84303, Note_on_c, 0, 43, 2
1, 84349, Note_off_c, 0, 60, 64
1, 84362, Note_off_c, 0, 72, 64
1, 84426, Note_on_c, 0, 71, 95
1, 84426, Note_on_c, 0, 50, 78
1, 84434, Note_on_c, 0, 62, 76
1, 84437, Note_on_c, 0, 66, 54
1, 84451, Note_off_c, 0, 52, 64
1, 84548, Control_c, 0, 64, 0
1, 84705, Control_c, 0, 64, 127
1, 84716, Note_off_c, 0, 62, 64
1, 84752, Note_off_c, 0, 71, 64
1, 84833, Note_on_c, 0, 71, 72
1, 84839, Note_on_c, 0, 55, 73
1, 84839, Note_on_c, 0, 62, 64
1, 84842, Note_on_c, 0, 67, 64
1, 84849, Note_off_c, 0, 50, 64
1, 84866, Note_off_c, 0, 66, 64
1, 84920, Control_c, 0, 64, 0
1, 85087, Control_c, 0, 64, 127
1, 85134, Note_off_c, 0, 55, 64
1, 85139, Note_off_c, 0, 43, 64
1, 85304, Note_on_c, 0, 54, 81
1, 85307, Note_on_c, 0, 42, 65
1, 85445, Note_off_c, 0, 67, 64
1, 85521, Note_off_c, 0, 62, 64
1, 85538, Note_off_c, 0, 71, 64
1, 85635, Note_off_c, 0, 54, 64
1, 85700, Note_off_c, 0, 42, 64
1, 85705, Note_on_c, 0, 67, 94
1, 85711, Note_on_c, 0, 59, 80
1, 85711, Note_on_c, 0, 62, 83
1, 85719, Note_on_c, 0, 52, 79
1, 85722, Note_on_c, 0, 40, 79
1, 85735, Control_c, 0, 64, 0
1, 85861, Note_off_c, 0, 40, 64
1, 85880, Control_c, 0, 64, 127
1, 85906, Note_off_c, 0, 59, 64
1, 85909, Note_off_c, 0, 52, 64
1, 85914, Note_off_c, 0, 62, 64
1, 85920, Note_off_c, 0, 67, 64
1, 86101, Note_on_c, 0, 69, 73
1, 86101, Note_on_c, 0, 57, 71
1, 86260, Note_off_c, 0, 57, 64
1, 86287, Note_off_c, 0, 69, 64
1, 86287, Note_on_c, 0, 71, 92
1, 86304, Note_on_c, 0, 55, 78
1, 86335, Note_off_c, 0, 55, 64
1, 86356, Note_off_c, 0, 71, 64
1, 86499, Note_on_c, 0, 69, 84
1, 86507, Note_on_c, 0, 57, 71
1, 86677, Note_on_c, 0, 40, 2
1, 86783, Note_off_c, 0, 57, 64
1, 86788, Note_on_c, 0, 52, 2
1, 86803, Note_off_c, 0, 69, 64
1, 86867, Note_on_c, 0, 67, 89
1, 86872, Note_on_c, 0, 59, 74
1, 86922, Control_c, 0, 64, 0
1, 87020, Note_off_c, 0, 52, 64
1, 87042, Control_c, 0, 64, 127
1, 87056, Note_off_c, 0, 40, 64
1, 87115, Note_off_c, 0, 59, 64
1, 87237, Note_on_c, 0, 57, 71
1, 87237, Note_on_c, 0, 66, 73
1, 87242, Note_on_c, 0, 61, 62
1, 87242, Note_on_c, 0, 33, 46
1, 87245, Note_on_c, 0, 45, 46
1, 87281, Note_off_c, 0, 67, 64
1, 87544, Note_off_c, 0, 57, 64
1, 87647, Note_on_c, 0, 64, 80
1, 87652, Note_on_c, 0, 55, 53
1, 87688, Control_c, 0, 64, 0
1, 87692, Note_off_c, 0, 66, 64
1, 87761, Note_off_c, 0, 33, 64
1, 87772, Control_c, 0, 64, 127
1, 87814, Note_off_c, 0, 55, 64
1, 87825, Note_off_c, 0, 45, 64
1, 87849, Note_off_c, 0, 64, 64
1, 87875, Note_off_c, 0, 61, 64
1, 87928, Note_on_c, 0, 66, 53
1, 87970, Note_off_c, 0, 66, 64
1, 87984, Note_on_c, 0, 67, 53
1, 88042, Note_on_c, 0, 66, 52
1, 88048, Note_on_c, 0, 50, 38
1, 88053, Note_on_c, 0, 38, 38
1, 88056, Note_on_c, 0, 57, 40
1, 88073, Note_on_c, 0, 62, 25
1, 88079, Note_off_c, 0, 67, 64
1, 88097, Control_c, 0, 64, 0
1, 88264, Control_c, 0, 64, 127
1, 88270, Note_off_c, 0, 38, 64
1, 88289, Note_off_c, 0, 62, 64
1, 88296, Note_on_c, 0, 64, 62
1, 88327, Note_off_c, 0, 50, 64
1, 88340, Note_off_c, 0, 57, 64
1, 88440, Note_off_c, 0, 66, 64
1, 88504, Note_on_c, 0, 55, 50
1, 88510, Note_on_c, 0, 62, 66
1, 88524, Note_on_c, 0, 59, 35
1, 88532, Note_off_c, 0, 64, 64
1, 88599, Note_off_c, 0, 62, 64
1, 88675, Note_off_c, 0, 55, 64
1, 88739, Note_off_c, 0, 59, 64
1, 88785, Note_on_c, 0, 54, 24
1, 88836, Note_on_c, 0, 55, 54
1, 88839, Note_off_c, 0, 54, 64
1, 88858, Note_on_c, 0, 62, 54
1, 88867, Note_on_c, 0, 57, 37
1, 88878, Note_off_c, 0, 55, 64
1, 88905, Note_on_c, 0, 54, 50
1, 88925, Control_c, 0, 64, 0
1, 89031, Control_c, 0, 64, 127
1, 89068, Note_off_c, 0, 54, 64
1, 89100, Note_off_c, 0, 57, 64
1, 89100, Note_on_c, 0, 55, 45
1, 89100, Control_c, 0, 64, 0
1, 89112, Note_on_c, 0, 52, 42
1, 89210, Control_c, 0, 64, 127
1, 89290, Note_off_c, 0, 55, 64
1, 89299, Note_off_c, 0, 52, 64
1, 89327, Note_on_c, 0, 54, 39
1, 89337, Note_on_c, 0, 50, 33
1, 89343, Control_c, 0, 64, 0
1, 89522, Control_c, 0, 64, 127
1, 89532, Note_off_c, 0, 54, 64
1, 89549, Note_off_c, 0, 50, 64
1, 89733, Note_on_c, 0, 54, 33
1, 89763, Control_c, 0, 64, 0
1, 89767, Note_on_c, 0, 50, 24
1, 90086, Control_c, 0, 64, 127
1, 90253, Control_c, 0, 64, 0
1, 90259, Note_on_c, 0, 59, 19
1, 90351, Note_off_c, 0, 54, 64
1, 90405, Note_off_c, 0, 50, 64
1, 90410, Control_c, 0, 64, 127
1, 90465, Note_off_c, 0, 62, 64
1, 90518, Note_off_c, 0, 59, 64
1, 90702, Note_on_c, 0, 45, 16
1, 90792, Note_on_c, 0, 53, 35
1, 90911, Note_on_c, 0, 60, 17
1, 91057, Note_on_c, 0, 65, 33
1, 91224, Control_c, 0, 64, 0
1, 91463, Control_c, 0, 64, 127
1, 91599, Note_on_c, 0, 67, 33
1, 91657, Control_c, 0, 64, 0
1, 91666, Note_off_c, 0, 65, 64
1, 91823, Control_c, 0, 64, 127
1, 91826, Note_on_c, 0, 69, 33
1, 91839, Note_off_c, 0, 67, 64
1, 91872, Control_c, 0, 64, 0
1, 91931, Control_c, 0, 64, 127
1, 92067, Note_off_c, 0, 60, 64
1, 92079, Note_on_c, 0, 67, 41
1, 92092, Note_off_c, 0, 45, 64
1, 92101, Note_on_c, 0, 47, 14
1, 92120, Note_on_c, 0, 62, 15
1, 92142, Note_off_c, 0, 69, 64
1, 92327, Control_c, 0, 64, 0
1, 92638, Control_c, 0, 64, 127
1, 92728, Note_off_c, 0, 53, 64
1, 92861, Note_off_c, 0, 47, 64
1, 92920, Note_on_c, 0, 48, 12
1, 92920, Note_on_c, 0, 52, 28
1, 92920, Note_on_c, 0, 60, 20
1, 92978, Note_off_c, 0, 62, 64
1, 92986, Control_c, 0, 64, 0
1, 93226, Control_c, 0, 64, 127
1, 93393, Control_c, 0, 64, 0
1, 93405, Note_on_c, 0, 69, 32
1, 93465, Note_off_c, 0, 67, 64
1, 93513, Control_c, 0, 64, 127
1, 93536, Note_off_c, 0, 60, 64
1, 93607, Note_off_c, 0, 69, 64
1, 93636, Note_on_c, 0, 50, 27
1, 93646, Note_off_c, 0, 48, 64
1, 93691, Note_off_c, 0, 52, 64
1, 93731, Note_on_c, 0, 55, 24
1, 93788, Note_on_c, 0, 65, 41
1, 93917, Note_on_c, 0, 69, 58
1, 94149, Control_c, 0, 64, 0
1, 94340, Control_c, 0, 64, 127
1, 94402, Note_on_c, 0, 71, 65
1, 94485, Control_c, 0, 64, 0
1, 94530, Note_off_c, 0, 69, 64
1, 94603, Control_c, 0, 64, 127
1, 94614, Note_on_c, 0, 72, 75
1, 94645, Note_off_c, 0, 71, 64
1, 94703, Note_off_c, 0, 65, 64
1, 94855, Note_on_c, 0, 71, 77
1, 94865, Note_on_c, 0, 67, 45
1, 94876, Note_off_c, 0, 50, 64
1, 94883, Note_on_c, 0, 52, 26
1, 94922, Note_off_c, 0, 72, 64
1, 95011, Control_c, 0, 64, 0
1, 95204, Control_c, 0, 64, 127
1, 95321, Note_on_c, 0, 72, 73
1, 95343, Note_on_c, 0, 57, 38
1, 95347, Note_off_c, 0, 55, 64
1, 95393, Note_off_c, 0, 71, 64
1, 95491, Control_c, 0, 64, 0
1, 95611, Control_c, 0, 64, 127
1, 95661, Note_off_c, 0, 67, 64
1, 95661, Note_off_c, 0, 57, 64
1, 95708, Note_off_c, 0, 52, 64
1, 95742, Note_on_c, 0, 67, 42
1, 95748, Note_on_c, 0, 74, 82
1, 95756, Note_on_c, 0, 59, 46
1, 95766, Note_on_c, 0, 50, 31
1, 95803, Control_c, 0, 64, 0
1, 95811, Note_off_c, 0, 72, 64
1, 95947, Control_c, 0, 64, 127
1, 95947, Note_off_c, 0, 50, 64
1, 96015, Note_off_c, 0, 59, 64
1, 96067, Control_c, 0, 64, 0
1, 96115, Note_on_c, 0, 47, 15
1, 96220, Note_off_c, 0, 47, 64
1, 96234, Control_c, 0, 64, 127
1, 96313, Note_on_c, 0, 79, 75
1, 96322, Note_on_c, 0, 48, 28
1, 96333, Note_on_c, 0, 64, 40
1, 96369, Note_off_c, 0, 74, 64
1, 96464, Note_off_c, 0, 48, 64
1, 96464, Note_off_c, 0, 64, 64
1, 96472, Note_off_c, 0, 67, 64
1, 96502, Note_off_c, 0, 79, 64
1, 96770, Note_on_c, 0, 67, 68
1, 96776, Note_on_c, 0, 62, 36
1, 96808, Note_on_c, 0, 47, 28
1, 96858, Control_c, 0, 64, 0
1, 97014, Control_c, 0, 64, 127
1, 97043, Note_off_c, 0, 47, 64
1, 97062, Note_off_c, 0, 62, 64
1, 97188, Note_on_c, 0, 72, 60
1, 97198, Note_on_c, 0, 64, 43
1, 97205, Note_on_c, 0, 48, 34
1, 97255, Note_off_c, 0, 67, 64
1, 97265, Control_c, 0, 64, 0
1, 97444, Control_c, 0, 64, 127
1, 97452, Note_off_c, 0, 64, 64
1, 97475, Note_off_c, 0, 48, 64
1, 97641, Note_on_c, 0, 71, 65
1, 97663, Note_on_c, 0, 67, 25
1, 97673, Note_off_c, 0, 72, 64
1, 97673, Note_on_c, 0, 50, 26
1, 97680, Note_on_c, 0, 62, 19
1, 97971, Control_c, 0, 64, 0
1, 98171, Note_on_c, 0, 69, 50
1, 98174, Note_off_c, 0, 71, 64
1, 98260, Control_c, 0, 64, 127
1, 98282, Note_off_c, 0, 62, 64
1, 98338, Note_off_c, 0, 67, 64
1, 98352, Note_off_c, 0, 69, 64
1, 98365, Note_off_c, 0, 50, 64
1, 98659, Note_on_c, 0, 69, 47
1, 98667, Note_on_c, 0, 66, 25
1, 98681, Note_on_c, 0, 60, 21
1, 98681, Note_on_c, 0, 38, 30
1, 98954, Control_c, 0, 64, 0
1, 99087, Control_c, 0, 64, 127
1, 99305, Note_on_c, 0, 67, 32
1, 99315, Control_c, 0, 64, 0
1, 99329, Note_off_c, 0, 69, 64
1, 99450, Note_off_c, 0, 38, 64
1, 99469, Control_c, 0, 64, 127
1, 99477, Note_off_c, 0, 66, 64
1, 99508, Note_off_c, 0, 60, 64
1, 99516, Note_off_c, 0, 67, 64
1, 99834, Note_on_c, 0, 67, 34
1, 99851, Note_on_c, 0, 43, 18
1, 99854, Note_on_c, 0, 60, 22
1, 99867, Note_on_c, 0, 62, 9
1, 99878, Note_on_c, 0, 50, 7
1, 99914, Control_c, 0, 64, 0
1, 100009, Control_c, 0, 64, 127
1, 100174, Note_on_c, 0, 57, 17
1, 100223, Note_off_c, 0, 60, 64
1, 100237, Control_c, 0, 64, 0
1, 100380, Control_c, 0, 64, 127
1, 100428, Control_c, 0, 64, 0
1, 100436, Note_off_c, 0, 57, 64
1, 100489, Control_c, 0, 64, 127
1, 100648, Note_on_c, 0, 59, 18
1, 101002, Note_off_c, 0, 67, 64
1, 101012, Note_off_c, 0, 59, 64
1, 101027, Note_off_c, 0, 62, 64
1, 101495, Note_on_c, 0, 67, 10
1, 101536, Note_on_c, 0, 59, 11
1, 101536, Note_on_c, 0, 62, 6
1, 101828, Note_off_c, 0, 50, 64
1, 101909, Note_off_c, 0, 43, 64
1, 102733, Note_on_c, 0, 31, 8
1, 104675, Note_off_c, 0, 59, 64
1, 104683, Note_off_c, 0, 62, 64
1, 104726, Note_off_c, 0, 31, 64
1, 104731, Note_off_c, 0, 67, 64
1, 104779, Control_c, 0, 64, 0
1, 106330, Control_c, 0, 64, 0
1, 107828, End_track
0, 0, End_of_file
