0, 0, Header, 0, 1, 384
1, 0, Start_track
1, 0, Tempo, 512820
1, 0, Title_t, ""
1, 0, Control_c, 0, 64, 127
1, 0, Note_on_c, 0, 64, 49
1, 1627, Note_on_c, 0, 60, 36
1, 1721, Note_off_c, 0, 64, 64
1, 1782, Control_c, 0, 64, 0
1, 1938, Control_c, 0, 64, 127
1, 1989, Note_on_c, 0, 64, 65
1, 2081, Note_off_c, 0, 60, 64
1, 2188, Control_c, 0, 64, 0
1, 2284, Note_on_c, 0, 69, 63
1, 2309, Control_c, 0, 64, 127
1, 2381, Note_off_c, 0, 64, 64
1, 2465, Control_c, 0, 64, 0
1, 2605, Note_on_c, 0, 71, 67
1, 2621, Control_c, 0, 64, 127
1, 2708, Note_off_c, 0, 69, 64
1, 2729, Control_c, 0, 64, 0
1, 2896, Control_c, 0, 64, 127
1, 2932, Note_off_c, 0, 71, 64
1, 3131, Note_on_c, 0, 71, 53
1, 3292, Note_on_c, 0, 69, 42
1, 3336, Note_off_c, 0, 71, 64
1, 3429, Note_on_c, 0, 67, 47
1, 3507, Control_c, 0, 64, 0
1, 3618, Note_off_c, 0, 69, 64
1, 3914, Control_c, 0, 64, 127
1, 4560, Note_off_c, 0, 67, 64
1, 5326, Note_on_c, 0, 67, 30
1, 5449, Control_c, 0, 64, 0
1, 5761, Control_c, 0, 64, 127
1, 6537, Note_on_c, 0, 64, 39
1, 6605, Note_off_c, 0, 67, 64
1, 6696, Control_c, 0, 64, 0
1, 6852, Control_c, 0, 64, 127
1, 6895, Note_on_c, 0, 67, 67
1, 6966, Note_off_c, 0, 64, 64
1, 7044, Control_c, 0, 64, 0
1, 7175, Control_c, 0, 64, 127
1, 7184, Note_on_c, 0, 72, 84
1, 7292, Note_off_c, 0, 67, 64
1, 7331, Control_c, 0, 64, 0
1, 7471, Note_on_c, 0, 74, 86
1, 7474, Control_c, 0, 64, 127
1, 7557, Note_off_c, 0, 72, 64
1, 7630, Control_c, 0, 64, 0
1, 7810, Control_c, 0, 64, 127
1, 7833, Note_on_c, 0, 71, 91
1, 8020, Note_off_c, 0, 74, 64
1, 8050, Control_c, 0, 64, 0
1, 8457, Control_c, 0, 64, 127
1, 8516, Note_on_c, 0, 76, 77
1, 8638, Note_off_c, 0, 71, 64
1, 8661, Control_c, 0, 64, 0
1, 9044, Control_c, 0, 64, 127
1, 9597, Note_off_c, 0, 76, 64
1, 10401, Note_on_c, 0, 59, 47
1, 10423, Control_c, 0, 64, 0
1, 10710, Control_c, 0, 64, 127
1, 11012, Note_on_c, 0, 64, 41
1, 11045, Control_c, 0, 64, 0
1, 11051, Note_off_c, 0, 59, 64
1, 11477, Control_c, 0, 64, 127
1, 11604, Note_off_c, 0, 64, 64
1, 12794, Note_on_c, 0, 47, 14
1, 12822, Note_on_c, 0, 35, 28
1, 12892, Control_c, 0, 64, 0
1, 13263, Control_c, 0, 64, 127
1, 13600, Note_on_c, 0, 52, 18
1, 13600, Note_on_c, 0, 40, 32
1, 13691, Note_off_c, 0, 35, 64
1, 13700, Note_off_c, 0, 47, 64
1, 14067, Control_c, 0, 64, 0
1, 14366, Control_c, 0, 64, 127
1, 14580, Note_off_c, 0, 40, 64
1, 14608, Note_off_c, 0, 52, 64
1, 15709, Note_on_c, 0, 68, 10
1, 15731, Note_on_c, 0, 76, 23
1, 15731, Note_on_c, 0, 64, 22
1, 15731, Note_on_c, 0, 71, 23
1, 16332, Control_c, 0, 64, 0
1, 16415, Control_c, 0, 64, 127
1, 17516, Note_off_c, 0, 64, 64
1, 17661, Note_off_c, 0, 68, 64
1, 17705, Note_off_c, 0, 71, 64
1, 17722, Note_off_c, 0, 76, 64
1, 18224, Control_c, 0, 64, 0
1, 18641, Note_on_c, 0, 45, 13
1, 18655, Note_on_c, 0, 52, 34
1, 18680, Control_c, 0, 64, 127
1, 18831, Note_off_c, 0, 52, 64
1, 18850, Note_off_c, 0, 45, 64
1, 19174, Note_on_c, 0, 60, 30
1, 19210, Note_on_c, 0, 52, 15
1, 19269, Note_off_c, 0, 52, 64
1, 19310, Note_off_c, 0, 60, 64
1, 19694, Note_on_c, 0, 45, 17
1, 19700, Note_on_c, 0, 52, 27
1, 19790, Note_off_c, 0, 52, 64
1, 19837, Note_off_c, 0, 45, 64
1, 20204, Note_on_c, 0, 60, 20
1, 20218, Note_on_c, 0, 52, 19
1, 20322, Note_off_c, 0, 60, 64
1, 20333, Note_off_c, 0, 52, 64
1, 20717, Note_on_c, 0, 45, 24
1, 20750, Note_on_c, 0, 52, 23
1, 20804, Note_off_c, 0, 52, 64
1, 20876, Note_off_c, 0, 45, 64
1, 21224, Note_on_c, 0, 60, 21
1, 21243, Note_on_c, 0, 52, 11
1, 21341, Note_off_c, 0, 60, 64
1, 21366, Note_off_c, 0, 52, 64
1, 21740, Note_on_c, 0, 45, 21
1, 21748, Note_on_c, 0, 52, 27
1, 21820, Note_off_c, 0, 45, 64
1, 21828, Note_off_c, 0, 52, 64
1, 22240, Note_on_c, 0, 64, 66
1, 22268, Note_on_c, 0, 60, 25
1, 22288, Note_on_c, 0, 52, 15
1, 22391, Note_off_c, 0, 60, 64
1, 22435, Note_off_c, 0, 52, 64
1, 22786, Note_on_c, 0, 69, 65
1, 22829, Note_on_c, 0, 52, 32
1, 22839, Note_on_c, 0, 45, 23
1, 22864, Note_off_c, 0, 64, 64
1, 22900, Control_c, 0, 64, 0
1, 23018, Control_c, 0, 64, 127
1, 23027, Note_off_c, 0, 52, 64
1, 23070, Note_off_c, 0, 45, 64
1, 23344, Note_on_c, 0, 71, 87
1, 23378, Note_on_c, 0, 60, 28
1, 23408, Note_on_c, 0, 52, 23
1, 23464, Note_off_c, 0, 69, 64
1, 23477, Note_off_c, 0, 52, 64
1, 23527, Note_off_c, 0, 60, 64
1, 23594, Note_on_c, 0, 72, 85
1, 23659, Note_off_c, 0, 71, 64
1, 23851, Note_on_c, 0, 68, 55
1, 23854, Note_on_c, 0, 74, 87
1, 23871, Note_on_c, 0, 45, 25
1, 23881, Note_off_c, 0, 72, 64
1, 23893, Control_c, 0, 64, 0
1, 23899, Note_on_c, 0, 52, 32
1, 24062, Control_c, 0, 64, 127
1, 24071, Note_off_c, 0, 45, 64
1, 24087, Note_off_c, 0, 52, 64
1, 24353, Note_off_c, 0, 74, 64
1, 24353, Note_on_c, 0, 76, 84
1, 24386, Note_on_c, 0, 62, 23
1, 24400, Note_on_c, 0, 52, 25
1, 24505, Note_off_c, 0, 62, 64
1, 24548, Note_off_c, 0, 52, 64
1, 24625, Note_on_c, 0, 77, 83
1, 24684, Note_off_c, 0, 76, 64
1, 24750, Note_off_c, 0, 68, 64
1, 24786, Note_off_c, 0, 77, 64
1, 24928, Note_on_c, 0, 77, 79
1, 24932, Note_on_c, 0, 69, 54
1, 24948, Control_c, 0, 64, 0
1, 24962, Note_on_c, 0, 45, 12
1, 24981, Note_on_c, 0, 52, 22
1, 25201, Control_c, 0, 64, 127
1, 25235, Note_on_c, 0, 76, 63
1, 25239, Note_off_c, 0, 45, 64
1, 25257, Note_off_c, 0, 52, 64
1, 25286, Note_off_c, 0, 77, 64
1, 25391, Note_off_c, 0, 76, 64
1, 25506, Note_on_c, 0, 76, 47
1, 25516, Note_on_c, 0, 60, 24
1, 25545, Note_on_c, 0, 52, 22
1, 25795, Note_on_c, 0, 72, 46
1, 25817, Note_off_c, 0, 60, 64
1, 25832, Note_off_c, 0, 52, 64
1, 25846, Note_off_c, 0, 69, 64
1, 25966, Note_off_c, 0, 76, 64
1, 26102, Note_on_c, 0, 69, 39
1, 26112, Control_c, 0, 64, 0
1, 26121, Note_on_c, 0, 48, 22
1, 26199, Note_off_c, 0, 72, 64
1, 26350, Control_c, 0, 64, 127
1, 26386, Note_off_c, 0, 48, 64
1, 26442, Note_off_c, 0, 69, 64
1, 26609, Note_on_c, 0, 69, 63
1, 26633, Note_on_c, 0, 64, 31
1, 26653, Note_on_c, 0, 60, 13
1, 26817, Note_off_c, 0, 64, 64
1, 26817, Note_off_c, 0, 60, 64
1, 26888, Note_on_c, 0, 72, 83
1, 26934, Note_off_c, 0, 69, 64
1, 27079, Note_off_c, 0, 72, 64
1, 27190, Control_c, 0, 64, 0
1, 27196, Note_on_c, 0, 72, 79
1, 27213, Note_on_c, 0, 52, 41
1, 27405, Control_c, 0, 64, 127
1, 27466, Note_off_c, 0, 52, 64
1, 27536, Note_on_c, 0, 71, 82
1, 27608, Note_off_c, 0, 72, 64
1, 27709, Note_off_c, 0, 71, 64
1, 27775, Note_on_c, 0, 68, 31
1, 27810, Note_on_c, 0, 71, 66
1, 27815, Note_on_c, 0, 59, 23
1, 27834, Note_on_c, 0, 64, 32
1, 27848, Control_c, 0, 64, 0
1, 27895, Note_off_c, 0, 68, 64
1, 27917, Note_off_c, 0, 64, 64
1, 27932, Control_c, 0, 64, 127
1, 27943, Note_off_c, 0, 59, 64
1, 28072, Note_on_c, 0, 68, 63
1, 28079, Note_off_c, 0, 71, 64
1, 28218, Note_off_c, 0, 68, 64
1, 28341, Note_on_c, 0, 45, 8
1, 28341, Note_on_c, 0, 52, 32
1, 28406, Note_on_c, 0, 68, 50
1, 28520, Control_c, 0, 64, 0
1, 28611, Note_on_c, 0, 64, 50
1, 28631, Note_off_c, 0, 68, 64
1, 28770, Note_off_c, 0, 45, 64
1, 28770, Control_c, 0, 64, 127
1, 28782, Note_off_c, 0, 52, 64
1, 29072, Note_on_c, 0, 60, 31
1, 29077, Note_on_c, 0, 52, 26
1, 29149, Note_off_c, 0, 52, 64
1, 29177, Note_off_c, 0, 60, 64
1, 29297, Note_off_c, 0, 64, 64
1, 29753, Note_on_c, 0, 72, 26
1, 29753, Note_on_c, 0, 81, 32
1, 29767, Note_on_c, 0, 76, 15
1, 29779, Note_on_c, 0, 69, 7
1, 29949, Note_off_c, 0, 69, 64
1, 30760, Note_off_c, 0, 81, 64
1, 30792, Note_off_c, 0, 72, 64
1, 30835, Note_off_c, 0, 76, 64
1, 31378, Note_on_c, 0, 64, 49
1, 31743, Control_c, 0, 64, 0
1, 31960, Note_on_c, 0, 69, 51
1, 31977, Note_on_c, 0, 57, 24
1, 32013, Note_off_c, 0, 64, 64
1, 32150, Control_c, 0, 64, 127
1, 32192, Note_off_c, 0, 69, 64
1, 32231, Note_off_c, 0, 57, 64
1, 32246, Note_on_c, 0, 69, 54
1, 32409, Note_off_c, 0, 69, 64
1, 32409, Note_on_c, 0, 60, 36
1, 32481, Note_on_c, 0, 64, 33
1, 32494, Note_on_c, 0, 71, 84
1, 32531, Note_on_c, 0, 69, 30
1, 32562, Note_off_c, 0, 60, 64
1, 32678, Note_off_c, 0, 69, 64
1, 32703, Note_off_c, 0, 64, 64
1, 32745, Note_on_c, 0, 72, 89
1, 32771, Note_off_c, 0, 71, 64
1, 33013, Control_c, 0, 64, 0
1, 33027, Note_on_c, 0, 55, 45
1, 33030, Note_on_c, 0, 74, 90
1, 33046, Note_off_c, 0, 72, 64
1, 33217, Control_c, 0, 64, 127
1, 33220, Note_off_c, 0, 55, 64
1, 33469, Note_on_c, 0, 62, 37
1, 33508, Note_on_c, 0, 67, 34
1, 33540, Note_on_c, 0, 76, 75
1, 33557, Note_on_c, 0, 71, 54
1, 33615, Note_off_c, 0, 74, 64
1, 33738, Note_off_c, 0, 62, 64
1, 33767, Note_off_c, 0, 71, 64
1, 33774, Note_off_c, 0, 67, 64
1, 33791, Note_on_c, 0, 77, 89
1, 33841, Note_off_c, 0, 76, 64
1, 33919, Note_off_c, 0, 77, 64
1, 34032, Control_c, 0, 64, 0
1, 34050, Note_on_c, 0, 77, 76
1, 34071, Note_on_c, 0, 60, 34
1, 34381, Note_on_c, 0, 76, 56
1, 34403, Control_c, 0, 64, 127
1, 34417, Note_off_c, 0, 77, 64
1, 34525, Note_on_c, 0, 64, 30
1, 34540, Note_on_c, 0, 67, 22
1, 34540, Note_off_c, 0, 76, 64
1, 34623, Note_on_c, 0, 72, 23
1, 34640, Note_on_c, 0, 76, 39
1, 34640, Control_c, 0, 64, 0
1, 34735, Note_off_c, 0, 72, 64
1, 34763, Control_c, 0, 64, 127
1, 34823, Note_off_c, 0, 67, 64
1, 34840, Note_off_c, 0, 64, 64
1, 34882, Note_off_c, 0, 60, 64
1, 34937, Note_on_c, 0, 72, 46
1, 35038, Note_off_c, 0, 76, 64
1, 35244, Note_on_c, 0, 69, 31
1, 35261, Note_on_c, 0, 53, 51
1, 35297, Note_off_c, 0, 72, 64
1, 35434, Control_c, 0, 64, 0
1, 35542, Control_c, 0, 64, 127
1, 35609, Note_off_c, 0, 69, 64
1, 35662, Note_off_c, 0, 53, 64
1, 35698, Note_on_c, 0, 50, 29
1, 35765, Note_on_c, 0, 65, 59
1, 35765, Note_on_c, 0, 60, 36
1, 35810, Note_on_c, 0, 69, 79
1, 35915, Control_c, 0, 64, 0
1, 36057, Control_c, 0, 64, 127
1, 36088, Note_off_c, 0, 65, 64
1, 36091, Note_on_c, 0, 72, 87
1, 36234, Note_off_c, 0, 69, 64
1, 36273, Note_off_c, 0, 72, 64
1, 36401, Note_on_c, 0, 72, 75
1, 36428, Note_on_c, 0, 55, 36
1, 36498, Note_off_c, 0, 50, 64
1, 36550, Control_c, 0, 64, 0
1, 36564, Note_off_c, 0, 60, 64
1, 36729, Control_c, 0, 64, 127
1, 36802, Note_on_c, 0, 71, 70
1, 36855, Note_off_c, 0, 72, 64
1, 36964, Note_on_c, 0, 59, 22
1, 36993, Note_off_c, 0, 71, 64
1, 37005, Note_on_c, 0, 65, 27
1, 37053, Note_on_c, 0, 67, 42
1, 37064, Control_c, 0, 64, 0
1, 37105, Note_on_c, 0, 71, 57
1, 37135, Note_off_c, 0, 67, 64
1, 37244, Control_c, 0, 64, 127
1, 37295, Note_off_c, 0, 55, 64
1, 37365, Note_off_c, 0, 65, 64
1, 37375, Note_on_c, 0, 67, 62
1, 37386, Note_off_c, 0, 59, 64
1, 37404, Note_off_c, 0, 71, 64
1, 37518, Note_off_c, 0, 67, 64
1, 37613, Note_on_c, 0, 48, 19
1, 37645, Note_on_c, 0, 55, 24
1, 37720, Note_on_c, 0, 67, 54
1, 37768, Control_c, 0, 64, 0
1, 37985, Note_on_c, 0, 64, 53
1, 38027, Note_off_c, 0, 67, 64
1, 38124, Note_off_c, 0, 55, 64
1, 38127, Note_off_c, 0, 48, 64
1, 38131, Control_c, 0, 64, 127
1, 38211, Note_off_c, 0, 64, 64
1, 38459, Note_on_c, 0, 55, 32
1, 38470, Note_on_c, 0, 64, 21
1, 38529, Note_off_c, 0, 55, 64
1, 38559, Note_off_c, 0, 64, 64
1, 39178, Note_on_c, 0, 72, 22
1, 39272, Note_off_c, 0, 72, 64
1, 39272, Note_on_c, 0, 76, 12
1, 39328, Note_on_c, 0, 79, 23
1, 39415, Note_on_c, 0, 84, 37
1, 39911, Note_off_c, 0, 84, 64
1, 39955, Note_off_c, 0, 76, 64
1, 39983, Note_off_c, 0, 79, 64
1, 41234, Note_on_c, 0, 64, 43
1, 41295, Control_c, 0, 64, 0
1, 41426, Control_c, 0, 64, 127
1, 41468, Note_off_c, 0, 64, 64
1, 41612, Note_on_c, 0, 64, 55
1, 41621, Note_on_c, 0, 62, 44
1, 41949, Note_on_c, 0, 68, 65
1, 42237, Note_on_c, 0, 71, 84
1, 42510, Note_on_c, 0, 72, 81
1, 42563, Note_off_c, 0, 71, 64
1, 42582, Note_off_c, 0, 68, 64
1, 42669, Note_off_c, 0, 64, 64
1, 42805, Note_on_c, 0, 69, 74
1, 42819, Note_on_c, 0, 64, 58
1, 42822, Note_on_c, 0, 60, 59
1, 42822, Note_off_c, 0, 62, 64
1, 42900, Note_off_c, 0, 72, 64
1, 42936, Control_c, 0, 64, 0
1, 43261, Control_c, 0, 64, 127
1, 43389, Note_on_c, 0, 76, 78
1, 43785, Note_on_c, 0, 75, 82
1, 43785, Note_off_c, 0, 64, 64
1, 43844, Note_off_c, 0, 76, 64
1, 43857, Note_off_c, 0, 69, 64
1, 44036, Note_off_c, 0, 75, 64
1, 44130, Note_on_c, 0, 71, 90
1, 44136, Note_on_c, 0, 59, 53
1, 44148, Note_on_c, 0, 63, 27
1, 44148, Note_on_c, 0, 69, 41
1, 44183, Note_off_c, 0, 60, 64
1, 44267, Control_c, 0, 64, 0
1, 44412, Control_c, 0, 64, 127
1, 44490, Note_off_c, 0, 69, 64
1, 44546, Note_off_c, 0, 63, 64
1, 44610, Note_on_c, 0, 62, 47
1, 44610, Note_off_c, 0, 71, 64
1, 44654, Note_on_c, 0, 68, 56
1, 44785, Note_off_c, 0, 59, 64
1, 44785, Note_on_c, 0, 74, 84
1, 44788, Note_on_c, 0, 58, 28
1, 44938, Control_c, 0, 64, 0
1, 45106, Control_c, 0, 64, 127
1, 45198, Note_on_c, 0, 73, 63
1, 45245, Note_off_c, 0, 62, 64
1, 45248, Note_off_c, 0, 74, 64
1, 45346, Note_off_c, 0, 73, 64
1, 45370, Note_off_c, 0, 68, 64
1, 45576, Note_off_c, 0, 58, 64
1, 45593, Note_on_c, 0, 69, 48
1, 45607, Note_on_c, 0, 61, 22
1, 45627, Note_on_c, 0, 57, 20
1, 45754, Control_c, 0, 64, 0
1, 45958, Control_c, 0, 64, 127
1, 46296, Note_on_c, 0, 51, 45
1, 46320, Note_on_c, 0, 67, 25
1, 46493, Note_off_c, 0, 69, 64
1, 46741, Note_on_c, 0, 69, 68
1, 46760, Note_off_c, 0, 57, 64
1, 46892, Note_off_c, 0, 61, 64
1, 46955, Note_on_c, 0, 50, 41
1, 47026, Note_on_c, 0, 57, 37
1, 47076, Note_on_c, 0, 62, 43
1, 47133, Note_off_c, 0, 51, 64
1, 47150, Note_on_c, 0, 66, 33
1, 47268, Note_on_c, 0, 72, 73
1, 47317, Note_off_c, 0, 67, 64
1, 47323, Control_c, 0, 64, 0
1, 47348, Note_off_c, 0, 69, 64
1, 47551, Control_c, 0, 64, 127
1, 47636, Note_on_c, 0, 71, 84
1, 47691, Note_off_c, 0, 72, 64
1, 47755, Note_off_c, 0, 62, 64
1, 47783, Note_off_c, 0, 71, 64
1, 47819, Note_off_c, 0, 66, 64
1, 48008, Note_on_c, 0, 71, 68
1, 48023, Note_on_c, 0, 62, 34
1, 48023, Note_on_c, 0, 65, 32
1, 48042, Control_c, 0, 64, 0
1, 48306, Control_c, 0, 64, 127
1, 48404, Note_on_c, 0, 69, 45
1, 48435, Note_off_c, 0, 71, 64
1, 48446, Note_off_c, 0, 57, 64
1, 48521, Note_off_c, 0, 62, 64
1, 48546, Note_off_c, 0, 65, 64
1, 48626, Note_on_c, 0, 56, 26
1, 48725, Note_off_c, 0, 50, 64
1, 48746, Note_on_c, 0, 59, 36
1, 48766, Note_off_c, 0, 69, 64
1, 48831, Note_on_c, 0, 64, 53
1, 48970, Note_on_c, 0, 71, 67
1, 49001, Control_c, 0, 64, 0
1, 49193, Control_c, 0, 64, 127
1, 49217, Note_off_c, 0, 59, 64
1, 49249, Note_off_c, 0, 56, 64
1, 49349, Note_on_c, 0, 76, 55
1, 50162, Note_off_c, 0, 64, 64
1, 50253, Note_off_c, 0, 71, 64
1, 50276, Note_off_c, 0, 76, 64
1, 50864, Note_on_c, 0, 64, 53
1, 51047, Note_off_c, 0, 64, 64
1, 51263, Note_on_c, 0, 64, 72
1, 51281, Note_on_c, 0, 38, 31
1, 51281, Note_on_c, 0, 50, 34
1, 51302, Control_c, 0, 64, 0
1, 51471, Control_c, 0, 64, 127
1, 51487, Note_off_c, 0, 38, 64
1, 51543, Note_off_c, 0, 50, 64
1, 51643, Note_on_c, 0, 68, 72
1, 51705, Note_off_c, 0, 64, 64
1, 51858, Note_off_c, 0, 68, 64
1, 51940, Note_on_c, 0, 71, 94
1, 51950, Note_on_c, 0, 68, 40
1, 51973, Note_on_c, 0, 59, 36
1, 51981, Note_on_c, 0, 64, 42
1, 52075, Note_off_c, 0, 68, 64
1, 52125, Note_off_c, 0, 64, 64
1, 52136, Note_off_c, 0, 59, 64
1, 52242, Note_on_c, 0, 72, 95
1, 52288, Note_off_c, 0, 71, 64
1, 52574, Note_on_c, 0, 69, 87
1, 52588, Note_on_c, 0, 48, 48
1, 52596, Control_c, 0, 64, 0
1, 52607, Note_on_c, 0, 36, 35
1, 52647, Note_off_c, 0, 72, 64
1, 52766, Note_off_c, 0, 36, 64
1, 52813, Control_c, 0, 64, 127
1, 52833, Note_off_c, 0, 48, 64
1, 52950, Note_off_c, 0, 69, 64
1, 53195, Note_on_c, 0, 76, 91
1, 53210, Note_on_c, 0, 69, 58
1, 53221, Note_on_c, 0, 57, 44
1, 53229, Note_on_c, 0, 64, 48
1, 53373, Note_off_c, 0, 69, 64
1, 53440, Note_off_c, 0, 64, 64
1, 53497, Note_off_c, 0, 57, 64
1, 53538, Note_on_c, 0, 75, 95
1, 53563, Note_off_c, 0, 76, 64
1, 53627, Note_off_c, 0, 75, 64
1, 53828, Note_on_c, 0, 71, 97
1, 53828, Note_on_c, 0, 63, 76
1, 53839, Note_on_c, 0, 53, 84
1, 53839, Note_on_c, 0, 69, 63
1, 53839, Note_on_c, 0, 41, 65
1, 53892, Control_c, 0, 64, 0
1, 54048, Note_off_c, 0, 71, 64
1, 54070, Control_c, 0, 64, 127
1, 54145, Note_on_c, 0, 71, 104
1, 54391, Note_off_c, 0, 63, 64
1, 54535, Note_on_c, 0, 74, 95
1, 54549, Note_on_c, 0, 62, 69
1, 54563, Control_c, 0, 64, 0
1, 54742, Control_c, 0, 64, 127
1, 54747, Note_off_c, 0, 71, 64
1, 54923, Note_on_c, 0, 73, 88
1, 54962, Note_off_c, 0, 62, 64
1, 54967, Note_off_c, 0, 74, 64
1, 55001, Note_off_c, 0, 69, 64
1, 55042, Note_off_c, 0, 73, 64
1, 55131, Note_off_c, 0, 41, 64
1, 55162, Note_off_c, 0, 53, 64
1, 55280, Note_on_c, 0, 69, 78
1, 55280, Note_on_c, 0, 61, 70
1, 55288, Note_on_c, 0, 64, 77
1, 55293, Note_on_c, 0, 52, 69
1, 55302, Note_on_c, 0, 40, 57
1, 55426, Control_c, 0, 64, 0
1, 55809, Control_c, 0, 64, 127
1, 55981, Note_on_c, 0, 60, 68
1, 55986, Note_off_c, 0, 61, 64
1, 56025, Control_c, 0, 64, 0
1, 56181, Control_c, 0, 64, 127
1, 56213, Note_off_c, 0, 69, 64
1, 56307, Note_off_c, 0, 52, 64
1, 56313, Note_on_c, 0, 69, 84
1, 56360, Note_off_c, 0, 40, 64
1, 56499, Note_off_c, 0, 64, 64
1, 56499, Note_off_c, 0, 60, 64
1, 56776, Note_on_c, 0, 72, 92
1, 56920, Note_off_c, 0, 69, 64
1, 56947, Control_c, 0, 64, 0
1, 57117, Note_on_c, 0, 28, 57
1, 57121, Note_on_c, 0, 40, 78
1, 57174, Control_c, 0, 64, 127
1, 57204, Note_off_c, 0, 28, 64
1, 57244, Note_off_c, 0, 40, 64
1, 57574, Note_on_c, 0, 65, 80
1, 57578, Note_on_c, 0, 62, 73
1, 57588, Note_on_c, 0, 57, 51
1, 57975, Note_on_c, 0, 71, 101
1, 58017, Note_off_c, 0, 72, 64
1, 58182, Note_off_c, 0, 71, 64
1, 58329, Note_on_c, 0, 71, 80
1, 58374, Note_off_c, 0, 71, 64
1, 58379, Note_on_c, 0, 72, 69
1, 58425, Note_on_c, 0, 71, 84
1, 58469, Control_c, 0, 64, 0
1, 58491, Note_off_c, 0, 72, 64
1, 58673, Control_c, 0, 64, 127
1, 58850, Note_off_c, 0, 62, 64
1, 58889, Note_off_c, 0, 57, 64
1, 58901, Note_off_c, 0, 65, 64
1, 59283, Note_on_c, 0, 56, 20
1, 59283, Note_on_c, 0, 64, 37
1, 59296, Control_c, 0, 64, 0
1, 59306, Note_on_c, 0, 62, 29
1, 59524, Control_c, 0, 64, 127
1, 59712, Note_off_c, 0, 64, 64
1, 59715, Note_off_c, 0, 62, 64
1, 59772, Note_off_c, 0, 56, 64
1, 59911, Note_on_c, 0, 69, 33
1, 59964, Note_off_c, 0, 71, 64
1, 60099, Control_c, 0, 64, 0
1, 60160, Note_on_c, 0, 33, 34
1, 60166, Note_on_c, 0, 45, 25
1, 60279, Control_c, 0, 64, 127
1, 60305, Note_off_c, 0, 33, 64
1, 60324, Note_off_c, 0, 45, 64
1, 60355, Note_off_c, 0, 69, 64
1, 60778, Note_on_c, 0, 60, 30
1, 60783, Note_on_c, 0, 69, 19
1, 60798, Note_on_c, 0, 64, 34
1, 60809, Note_on_c, 0, 57, 9
1, 60822, Note_on_c, 0, 45, 13
1, 60834, Note_on_c, 0, 52, 22
1, 60904, Note_on_c, 0, 71, 47
1, 60909, Note_off_c, 0, 69, 64
1, 61079, Note_off_c, 0, 71, 64
1, 61079, Note_on_c, 0, 69, 49
1, 61694, Control_c, 0, 64, 0
1, 61765, Control_c, 0, 64, 127
1, 62542, Note_off_c, 0, 60, 64
1, 62609, Note_off_c, 0, 64, 64
1, 62651, Note_off_c, 0, 57, 64
1, 62666, Note_off_c, 0, 69, 64
1, 62709, Note_off_c, 0, 52, 64
1, 62779, Note_off_c, 0, 45, 64
1, 62924, Note_on_c, 0, 45, 12
1, 63004, Note_off_c, 0, 45, 64
1, 63174, Note_on_c, 0, 76, 43
1, 63275, Control_c, 0, 64, 0
1, 63959, Control_c, 0, 64, 127
1, 64717, Note_on_c, 0, 57, 8
1, 64781, Note_on_c, 0, 64, 15
1, 64865, Note_on_c, 0, 68, 21
1, 64873, Note_off_c, 0, 64, 64
1, 64923, Note_off_c, 0, 57, 64
1, 64945, Note_on_c, 0, 74, 41
1, 65002, Note_off_c, 0, 74, 64
1, 65176, Note_off_c, 0, 76, 64
1, 65283, Note_on_c, 0, 78, 45
1, 65383, Note_on_c, 0, 76, 41
1, 65399, Note_off_c, 0, 68, 64
1, 65399, Note_off_c, 0, 78, 64
1, 65658, Note_off_c, 0, 76, 64
1, 65673, Note_on_c, 0, 74, 45
1, 65722, Note_on_c, 0, 80, 14
1, 65751, Note_on_c, 0, 86, 15
1, 65781, Note_on_c, 0, 73, 45
1, 65789, Note_off_c, 0, 74, 64
1, 65789, Note_on_c, 0, 88, 26
1, 65809, Note_off_c, 0, 80, 64
1, 65821, Note_off_c, 0, 86, 64
1, 65843, Note_off_c, 0, 88, 64
1, 66085, Note_off_c, 0, 73, 64
1, 66099, Note_on_c, 0, 74, 34
1, 66219, Note_on_c, 0, 69, 10
1, 66224, Note_off_c, 0, 74, 64
1, 66243, Note_on_c, 0, 73, 26
1, 66258, Note_on_c, 0, 57, 7
1, 66283, Control_c, 0, 64, 0
1, 66289, Note_on_c, 0, 76, 43
1, 66299, Note_on_c, 0, 64, 36
1, 66366, Note_off_c, 0, 64, 64
1, 66416, Note_off_c, 0, 69, 64
1, 66436, Note_off_c, 0, 73, 64
1, 66439, Control_c, 0, 64, 127
1, 66452, Note_off_c, 0, 57, 64
1, 66461, Note_off_c, 0, 76, 64
1, 66682, Note_on_c, 0, 76, 65
1, 67052, Note_on_c, 0, 81, 13
1, 67065, Note_on_c, 0, 85, 22
1, 67102, Note_on_c, 0, 88, 33
1, 67136, Note_off_c, 0, 85, 64
1, 67147, Note_off_c, 0, 81, 64
1, 67154, Note_off_c, 0, 88, 64
1, 67492, Note_on_c, 0, 57, 18
1, 67550, Note_on_c, 0, 64, 44
1, 67553, Control_c, 0, 64, 0
1, 67565, Note_on_c, 0, 68, 31
1, 67620, Note_off_c, 0, 64, 64
1, 67625, Note_on_c, 0, 74, 50
1, 67686, Control_c, 0, 64, 127
1, 67686, Note_off_c, 0, 57, 64
1, 67891, Note_off_c, 0, 68, 64
1, 67904, Note_off_c, 0, 76, 64
1, 67910, Note_off_c, 0, 74, 64
1, 67924, Note_on_c, 0, 78, 53
1, 68007, Note_on_c, 0, 76, 64
1, 68038, Note_off_c, 0, 78, 64
1, 68297, Note_on_c, 0, 74, 67
1, 68327, Note_off_c, 0, 76, 64
1, 68347, Note_on_c, 0, 80, 35
1, 68377, Note_on_c, 0, 86, 25
1, 68391, Note_on_c, 0, 73, 66
1, 68400, Note_off_c, 0, 80, 64
1, 68409, Note_on_c, 0, 88, 48
1, 68414, Note_off_c, 0, 74, 64
1, 68442, Note_off_c, 0, 86, 64
1, 68447, Note_off_c, 0, 88, 64
1, 68690, Note_on_c, 0, 74, 74
1, 68712, Note_off_c, 0, 73, 64
1, 68756, Note_on_c, 0, 69, 41
1, 68790, Note_off_c, 0, 74, 64
1, 68795, Note_on_c, 0, 73, 54
1, 68799, Note_on_c, 0, 57, 27
1, 68812, Control_c, 0, 64, 0
1, 68835, Note_on_c, 0, 64, 15
1, 68855, Note_on_c, 0, 76, 82
1, 68980, Control_c, 0, 64, 127
1, 69007, Note_off_c, 0, 57, 64
1, 69049, Note_off_c, 0, 64, 64
1, 69133, Note_off_c, 0, 69, 64
1, 69149, Note_off_c, 0, 73, 64
1, 69523, Note_on_c, 0, 81, 24
1, 69553, Note_on_c, 0, 85, 31
1, 69600, Note_on_c, 0, 88, 51
1, 69639, Note_off_c, 0, 88, 64
1, 69645, Note_off_c, 0, 81, 64
1, 69656, Note_off_c, 0, 85, 64
1, 69987, Control_c, 0, 64, 0
1, 69990, Note_on_c, 0, 68, 32
1, 69993, Note_on_c, 0, 74, 52
1, 70008, Note_on_c, 0, 57, 31
1, 70041, Note_on_c, 0, 64, 18
1, 70122, Control_c, 0, 64, 127
1, 70174, Note_off_c, 0, 64, 64
1, 70182, Note_off_c, 0, 57, 64
1, 70405, Note_on_c, 0, 78, 81
1, 70505, Note_off_c, 0, 68, 64
1, 70582, Note_off_c, 0, 76, 64
1, 70739, Note_on_c, 0, 80, 33
1, 70795, Note_on_c, 0, 86, 34
1, 70837, Note_on_c, 0, 88, 37
1, 70865, Note_off_c, 0, 86, 64
1, 70880, Note_off_c, 0, 88, 64
1, 70896, Note_off_c, 0, 80, 64
1, 70910, Note_off_c, 0, 74, 64
1, 71186, Note_on_c, 0, 57, 13
1, 71210, Control_c, 0, 64, 0
1, 71239, Note_on_c, 0, 69, 26
1, 71264, Note_on_c, 0, 64, 25
1, 71311, Note_on_c, 0, 73, 31
1, 71364, Control_c, 0, 64, 127
1, 71394, Note_off_c, 0, 57, 64
1, 71405, Note_off_c, 0, 64, 64
1, 71498, Note_on_c, 0, 76, 53
1, 71512, Note_off_c, 0, 78, 64
1, 71554, Note_off_c, 0, 76, 64
1, 71645, Note_on_c, 0, 78, 61
1, 71679, Note_off_c, 0, 73, 64
1, 71689, Note_on_c, 0, 76, 58
1, 71710, Note_off_c, 0, 78, 64
1, 71871, Note_off_c, 0, 69, 64
1, 71876, Note_on_c, 0, 73, 55
1, 71954, Note_on_c, 0, 81, 22
1, 71994, Note_on_c, 0, 85, 25
1, 71999, Note_off_c, 0, 76, 64
1, 72038, Note_off_c, 0, 81, 64
1, 72060, Note_on_c, 0, 88, 49
1, 72099, Note_off_c, 0, 88, 64
1, 72105, Note_on_c, 0, 69, 57
1, 72116, Note_off_c, 0, 85, 64
1, 72161, Note_off_c, 0, 73, 64
1, 72523, Note_on_c, 0, 73, 49
1, 72528, Control_c, 0, 64, 0
1, 72528, Note_on_c, 0, 57, 21
1, 72557, Note_on_c, 0, 64, 35
1, 72562, Note_off_c, 0, 69, 64
1, 72671, Control_c, 0, 64, 127
1, 72687, Note_off_c, 0, 57, 64
1, 72692, Note_off_c, 0, 64, 64
1, 72746, Note_on_c, 0, 71, 71
1, 72756, Note_off_c, 0, 73, 64
1, 72790, Note_off_c, 0, 71, 64
1, 72866, Note_on_c, 0, 73, 40
1, 72935, Note_on_c, 0, 71, 77
1, 73015, Note_off_c, 0, 73, 64
1, 73121, Note_on_c, 0, 68, 68
1, 73177, Note_on_c, 0, 80, 38
1, 73185, Note_off_c, 0, 71, 64
1, 73238, Note_off_c, 0, 80, 64
1, 73249, Note_on_c, 0, 83, 39
1, 73317, Note_off_c, 0, 68, 64
1, 73317, Note_on_c, 0, 88, 50
1, 73323, Note_on_c, 0, 64, 67
1, 73353, Note_off_c, 0, 83, 64
1, 73359, Note_off_c, 0, 88, 64
1, 73444, Note_off_c, 0, 64, 64
1, 73526, Note_on_c, 0, 68, 67
1, 73735, Note_on_c, 0, 69, 64
1, 73748, Note_on_c, 0, 57, 34
1, 73748, Control_c, 0, 64, 0
1, 73762, Note_off_c, 0, 68, 64
1, 73770, Note_on_c, 0, 64, 30
1, 73885, Note_off_c, 0, 57, 64
1, 73893, Control_c, 0, 64, 127
1, 73918, Note_off_c, 0, 64, 64
1, 73933, Note_on_c, 0, 73, 66
1, 73979, Note_off_c, 0, 69, 64
1, 74146, Note_on_c, 0, 76, 78
1, 74209, Note_off_c, 0, 73, 64
1, 74437, Note_on_c, 0, 81, 23
1, 74472, Note_on_c, 0, 85, 27
1, 74504, Note_on_c, 0, 88, 64
1, 74512, Note_off_c, 0, 81, 64
1, 74540, Note_off_c, 0, 88, 64
1, 74557, Note_off_c, 0, 85, 64
1, 74838, Note_on_c, 0, 57, 30
1, 74888, Control_c, 0, 64, 0
1, 74902, Note_on_c, 0, 68, 34
1, 74924, Note_on_c, 0, 64, 33
1, 74941, Note_on_c, 0, 74, 55
1, 75025, Note_off_c, 0, 64, 64
1, 75044, Control_c, 0, 64, 127
1, 75049, Note_off_c, 0, 57, 64
1, 75139, Note_off_c, 0, 68, 64
1, 75242, Note_off_c, 0, 74, 64
1, 75300, Note_on_c, 0, 80, 85
1, 75336, Note_off_c, 0, 76, 64
1, 75724, Note_on_c, 0, 86, 38
1, 75765, Note_on_c, 0, 88, 56
1, 75774, Note_off_c, 0, 80, 64
1, 75804, Note_off_c, 0, 88, 64
1, 75808, Note_off_c, 0, 86, 64
1, 75975, Note_on_c, 0, 78, 75
1, 76096, Note_off_c, 0, 78, 64
1, 76181, Note_on_c, 0, 69, 47
1, 76195, Note_on_c, 0, 57, 23
1, 76238, Note_on_c, 0, 73, 38
1, 76259, Note_on_c, 0, 64, 18
1, 76281, Note_on_c, 0, 78, 67
1, 76291, Control_c, 0, 64, 0
1, 76422, Control_c, 0, 64, 127
1, 76422, Note_off_c, 0, 57, 64
1, 76442, Note_off_c, 0, 64, 64
1, 76501, Note_off_c, 0, 78, 64
1, 76501, Note_on_c, 0, 76, 60
1, 76515, Note_off_c, 0, 73, 64
1, 76549, Note_off_c, 0, 76, 64
1, 76609, Note_on_c, 0, 78, 52
1, 76668, Note_on_c, 0, 76, 62
1, 76688, Note_off_c, 0, 78, 64
1, 76706, Note_off_c, 0, 69, 64
1, 76866, Note_on_c, 0, 73, 46
1, 76919, Note_off_c, 0, 76, 64
1, 76982, Note_on_c, 0, 81, 18
1, 77007, Note_on_c, 0, 85, 26
1, 77078, Note_on_c, 0, 88, 34
1, 77103, Note_off_c, 0, 81, 64
1, 77114, Note_on_c, 0, 69, 45
1, 77114, Note_off_c, 0, 73, 64
1, 77125, Note_off_c, 0, 85, 64
1, 77133, Note_off_c, 0, 88, 64
1, 77278, Note_off_c, 0, 69, 64
1, 77482, Note_on_c, 0, 45, 26
1, 77557, Note_on_c, 0, 52, 36
1, 77598, Note_on_c, 0, 62, 46
1, 77640, Note_on_c, 0, 59, 42
1, 77666, Note_on_c, 0, 68, 37
1, 77740, Note_on_c, 0, 73, 63
1, 77982, Note_on_c, 0, 71, 79
1, 78002, Note_off_c, 0, 73, 64
1, 78080, Note_off_c, 0, 71, 64
1, 78130, Note_on_c, 0, 73, 44
1, 78178, Note_on_c, 0, 71, 61
1, 78236, Note_off_c, 0, 73, 64
1, 78265, Note_off_c, 0, 68, 64
1, 78375, Note_off_c, 0, 71, 64
1, 78379, Note_on_c, 0, 68, 63
1, 78587, Note_on_c, 0, 64, 64
1, 78598, Note_off_c, 0, 68, 64
1, 78749, Control_c, 0, 64, 0
1, 78771, Note_on_c, 0, 68, 60
1, 78807, Note_off_c, 0, 64, 64
1, 78879, Control_c, 0, 64, 127
1, 78957, Note_off_c, 0, 68, 64
1, 78986, Note_on_c, 0, 71, 59
1, 79022, Control_c, 0, 64, 0
1, 79119, Control_c, 0, 64, 127
1, 79136, Note_off_c, 0, 71, 64
1, 79211, Note_on_c, 0, 64, 56
1, 79251, Control_c, 0, 64, 0
1, 79359, Control_c, 0, 64, 127
1, 79429, Note_off_c, 0, 64, 64
1, 79467, Note_on_c, 0, 68, 34
1, 79526, Control_c, 0, 64, 0
1, 79610, Control_c, 0, 64, 127
1, 79688, Note_off_c, 0, 68, 64
1, 79729, Note_on_c, 0, 71, 36
1, 79857, Note_off_c, 0, 71, 64
1, 80016, Note_on_c, 0, 64, 35
1, 80119, Note_off_c, 0, 62, 64
1, 80119, Note_off_c, 0, 64, 64
1, 80258, Note_on_c, 0, 68, 29
1, 80261, Note_off_c, 0, 52, 64
1, 80284, Note_off_c, 0, 45, 64
1, 80295, Note_off_c, 0, 59, 64
1, 80353, Note_off_c, 0, 68, 64
1, 80476, Note_on_c, 0, 71, 47
1, 80524, Note_off_c, 0, 71, 64
1, 80818, Note_on_c, 0, 69, 30
1, 80818, Note_on_c, 0, 57, 22
1, 80822, Note_on_c, 0, 61, 26
1, 80847, Note_on_c, 0, 45, 16
1, 80855, Note_on_c, 0, 52, 30
1, 81000, Control_c, 0, 64, 0
1, 81215, Control_c, 0, 64, 127
1, 81424, Note_off_c, 0, 61, 64
1, 81448, Note_off_c, 0, 52, 64
1, 81448, Note_on_c, 0, 62, 46
1, 81470, Note_on_c, 0, 54, 32
1, 81551, Control_c, 0, 64, 0
1, 81652, Note_off_c, 0, 45, 64
1, 81652, Note_off_c, 0, 57, 64
1, 81673, Control_c, 0, 64, 127
1, 81735, Note_off_c, 0, 62, 64
1, 81744, Note_off_c, 0, 54, 64
1, 81783, Note_off_c, 0, 69, 64
1, 82056, Note_on_c, 0, 81, 53
1, 82061, Note_on_c, 0, 73, 37
1, 82064, Note_on_c, 0, 69, 29
1, 82086, Note_on_c, 0, 57, 15
1, 82095, Note_on_c, 0, 64, 24
1, 82295, Control_c, 0, 64, 0
1, 82451, Control_c, 0, 64, 127
1, 82562, Note_off_c, 0, 64, 64
1, 82610, Note_off_c, 0, 73, 64
1, 82699, Note_on_c, 0, 74, 40
1, 82726, Note_on_c, 0, 66, 20
1, 82750, Control_c, 0, 64, 0
1, 82883, Control_c, 0, 64, 127
1, 82903, Note_off_c, 0, 57, 64
1, 82933, Note_off_c, 0, 69, 64
1, 82986, Note_off_c, 0, 66, 64
1, 83019, Note_off_c, 0, 74, 64
1, 83025, Note_off_c, 0, 81, 64
1, 83573, Note_on_c, 0, 93, 40
1, 83587, Note_on_c, 0, 85, 31
1, 83602, Note_on_c, 0, 81, 34
1, 83615, Note_on_c, 0, 69, 17
1, 83618, Note_on_c, 0, 76, 24
1, 83889, Control_c, 0, 64, 0
1, 84189, Control_c, 0, 64, 127
1, 84900, Note_off_c, 0, 76, 64
1, 85009, Note_off_c, 0, 69, 64
1, 85259, Note_off_c, 0, 93, 64
1, 85281, Note_off_c, 0, 85, 64
1, 85281, Note_off_c, 0, 81, 64
1, 85530, Control_c, 0, 64, 0
1, 85914, Control_c, 0, 64, 127
1, 86028, Note_on_c, 0, 33, 29
1, 86042, Note_on_c, 0, 45, 35
1, 86220, Note_off_c, 0, 33, 64
1, 86228, Note_off_c, 0, 45, 64
1, 86630, Note_on_c, 0, 52, 40
1, 86689, Note_off_c, 0, 52, 64
1, 86692, Note_on_c, 0, 60, 41
1, 86760, Note_off_c, 0, 60, 64
1, 86833, Note_on_c, 0, 69, 39
1, 86944, Note_off_c, 0, 69, 64
1, 87454, Note_on_c, 0, 33, 38
1, 87454, Note_on_c, 0, 45, 35
1, 87587, Note_off_c, 0, 33, 64
1, 87632, Note_off_c, 0, 45, 64
1, 87959, Note_on_c, 0, 52, 45
1, 88047, Note_off_c, 0, 52, 64
1, 88047, Note_on_c, 0, 60, 39
1, 88104, Note_off_c, 0, 60, 64
1, 88165, Note_on_c, 0, 69, 49
1, 88279, Note_off_c, 0, 69, 64
1, 88799, Note_on_c, 0, 45, 42
1, 88799, Note_on_c, 0, 33, 51
1, 88884, Note_off_c, 0, 33, 64
1, 88922, Note_off_c, 0, 45, 64
1, 89282, Note_on_c, 0, 52, 51
1, 89354, Note_off_c, 0, 52, 64
1, 89360, Note_on_c, 0, 60, 39
1, 89424, Note_off_c, 0, 60, 64
1, 89488, Note_on_c, 0, 69, 41
1, 89585, Note_off_c, 0, 69, 64
1, 90082, Note_on_c, 0, 33, 41
1, 90082, Note_on_c, 0, 45, 37
1, 90187, Note_off_c, 0, 33, 64
1, 90218, Note_off_c, 0, 45, 64
1, 90560, Note_on_c, 0, 52, 37
1, 90671, Note_off_c, 0, 52, 64
1, 90682, Note_on_c, 0, 60, 32
1, 90731, Note_off_c, 0, 60, 64
1, 90827, Note_on_c, 0, 76, 80
1, 90833, Note_on_c, 0, 64, 69
1, 90855, Note_on_c, 0, 69, 39
1, 90912, Note_off_c, 0, 69, 64
1, 91087, Note_off_c, 0, 64, 64
1, 91165, Note_off_c, 0, 76, 64
1, 91458, Note_on_c, 0, 81, 93
1, 91458, Note_on_c, 0, 69, 69
1, 91468, Note_on_c, 0, 33, 30
1, 91468, Note_on_c, 0, 45, 36
1, 91546, Note_off_c, 0, 33, 64
1, 91594, Note_off_c, 0, 45, 64
1, 91940, Note_on_c, 0, 52, 34
1, 91965, Note_off_c, 0, 69, 64
1, 92014, Note_off_c, 0, 52, 64
1, 92031, Note_on_c, 0, 60, 29
1, 92082, Note_off_c, 0, 60, 64
1, 92100, Note_on_c, 0, 83, 112
1, 92106, Note_on_c, 0, 71, 83
1, 92154, Note_on_c, 0, 69, 52
1, 92160, Note_off_c, 0, 81, 64
1, 92235, Note_off_c, 0, 69, 64
1, 92304, Note_off_c, 0, 71, 64
1, 92341, Note_off_c, 0, 83, 64
1, 92394, Note_on_c, 0, 84, 110
1, 92399, Note_on_c, 0, 72, 93
1, 92636, Note_off_c, 0, 72, 64
1, 92667, Note_off_c, 0, 84, 64
1, 92692, Note_on_c, 0, 45, 39
1, 92706, Note_on_c, 0, 33, 41
1, 92717, Note_on_c, 0, 86, 100
1, 92722, Note_on_c, 0, 74, 94
1, 92758, Control_c, 0, 64, 0
1, 92869, Note_off_c, 0, 33, 64
1, 92889, Control_c, 0, 64, 127
1, 92920, Note_off_c, 0, 45, 64
1, 93128, Note_on_c, 0, 47, 53
1, 93187, Note_off_c, 0, 47, 64
1, 93224, Note_on_c, 0, 52, 50
1, 93231, Note_off_c, 0, 74, 64
1, 93273, Note_on_c, 0, 56, 57
1, 93279, Note_off_c, 0, 52, 64
1, 93318, Note_on_c, 0, 88, 99
1, 93324, Note_on_c, 0, 76, 86
1, 93327, Note_off_c, 0, 56, 64
1, 93351, Note_on_c, 0, 62, 59
1, 93426, Note_off_c, 0, 86, 64
1, 93433, Note_off_c, 0, 62, 64
1, 93549, Note_off_c, 0, 76, 64
1, 93578, Note_off_c, 0, 88, 64
1, 93628, Note_on_c, 0, 89, 105
1, 93636, Note_on_c, 0, 77, 93
1, 93842, Note_off_c, 0, 77, 64
1, 93853, Note_off_c, 0, 89, 64
1, 93986, Note_on_c, 0, 89, 100
1, 93992, Note_on_c, 0, 77, 91
1, 94011, Note_on_c, 0, 45, 37
1, 94022, Note_on_c, 0, 33, 27
1, 94040, Control_c, 0, 64, 0
1, 94187, Note_off_c, 0, 33, 64
1, 94196, Control_c, 0, 64, 127
1, 94249, Note_off_c, 0, 45, 64
1, 94290, Note_off_c, 0, 89, 64
1, 94326, Note_off_c, 0, 77, 64
1, 94382, Note_on_c, 0, 88, 87
1, 94391, Note_on_c, 0, 76, 68
1, 94539, Note_on_c, 0, 48, 13
1, 94588, Note_off_c, 0, 76, 64
1, 94592, Note_off_c, 0, 48, 64
1, 94603, Note_on_c, 0, 57, 31
1, 94607, Note_off_c, 0, 88, 64
1, 94661, Note_off_c, 0, 57, 64
1, 94678, Note_on_c, 0, 88, 69
1, 94691, Note_on_c, 0, 76, 73
1, 94727, Note_on_c, 0, 64, 30
1, 94801, Note_off_c, 0, 88, 64
1, 94809, Note_off_c, 0, 64, 64
1, 94851, Note_off_c, 0, 76, 64
1, 94998, Note_on_c, 0, 84, 78
1, 95006, Note_on_c, 0, 72, 70
1, 95142, Note_off_c, 0, 84, 64
1, 95209, Note_off_c, 0, 72, 64
1, 95349, Note_on_c, 0, 81, 64
1, 95362, Note_on_c, 0, 69, 26
1, 95366, Note_on_c, 0, 48, 21
1, 95372, Note_on_c, 0, 36, 23
1, 95479, Control_c, 0, 64, 0
1, 95567, Note_off_c, 0, 36, 64
1, 95597, Control_c, 0, 64, 127
1, 95624, Note_off_c, 0, 48, 64
1, 95867, Note_off_c, 0, 81, 64
1, 95873, Note_on_c, 0, 52, 27
1, 95898, Note_off_c, 0, 69, 64
1, 95929, Note_on_c, 0, 57, 25
1, 95981, Note_off_c, 0, 52, 64
1, 96006, Note_on_c, 0, 81, 74
1, 96012, Note_on_c, 0, 69, 55
1, 96040, Note_off_c, 0, 57, 64
1, 96040, Note_on_c, 0, 64, 47
1, 96117, Note_off_c, 0, 69, 64
1, 96140, Note_off_c, 0, 81, 64
1, 96140, Note_off_c, 0, 64, 64
1, 96318, Note_on_c, 0, 84, 98
1, 96318, Note_on_c, 0, 72, 83
1, 96499, Note_off_c, 0, 72, 64
1, 96507, Note_off_c, 0, 84, 64
1, 96624, Note_on_c, 0, 84, 103
1, 96630, Note_on_c, 0, 40, 40
1, 96630, Note_on_c, 0, 72, 79
1, 96636, Note_on_c, 0, 52, 44
1, 96652, Control_c, 0, 64, 0
1, 96751, Note_off_c, 0, 40, 64
1, 96797, Note_off_c, 0, 52, 64
1, 96797, Control_c, 0, 64, 127
1, 96837, Note_off_c, 0, 84, 64
1, 96859, Note_off_c, 0, 72, 64
1, 96918, Note_on_c, 0, 83, 110
1, 96928, Note_on_c, 0, 71, 81
1, 97018, Note_on_c, 0, 47, 39
1, 97071, Control_c, 0, 64, 0
1, 97087, Note_on_c, 0, 52, 36
1, 97143, Note_on_c, 0, 56, 53
1, 97148, Note_off_c, 0, 47, 64
1, 97156, Control_c, 0, 64, 127
1, 97170, Note_off_c, 0, 71, 64
1, 97182, Note_off_c, 0, 83, 64
1, 97193, Note_off_c, 0, 52, 64
1, 97209, Note_off_c, 0, 56, 64
1, 97234, Note_on_c, 0, 83, 103
1, 97244, Note_on_c, 0, 71, 66
1, 97279, Note_on_c, 0, 62, 43
1, 97374, Note_off_c, 0, 62, 64
1, 97393, Note_off_c, 0, 71, 64
1, 97485, Note_off_c, 0, 83, 64
1, 97636, Note_on_c, 0, 80, 74
1, 97641, Note_on_c, 0, 68, 59
1, 97712, Note_off_c, 0, 68, 64
1, 97789, Note_off_c, 0, 80, 64
1, 98004, Note_on_c, 0, 80, 66
1, 98012, Note_on_c, 0, 68, 52
1, 98012, Note_on_c, 0, 45, 25
1, 98028, Note_on_c, 0, 33, 28
1, 98053, Note_off_c, 0, 80, 64
1, 98063, Note_off_c, 0, 68, 64
1, 98227, Note_on_c, 0, 76, 63
1, 98227, Note_on_c, 0, 64, 49
1, 98246, Control_c, 0, 64, 0
1, 98361, Note_off_c, 0, 33, 64
1, 98389, Control_c, 0, 64, 127
1, 98405, Note_off_c, 0, 45, 64
1, 98647, Note_on_c, 0, 52, 34
1, 98706, Note_off_c, 0, 52, 64
1, 98719, Note_on_c, 0, 60, 27
1, 98795, Note_on_c, 0, 69, 35
1, 98812, Note_off_c, 0, 60, 64
1, 98868, Note_off_c, 0, 64, 64
1, 98960, Note_off_c, 0, 69, 64
1, 99012, Note_off_c, 0, 76, 64
1, 99457, Note_on_c, 0, 93, 48
1, 99466, Note_on_c, 0, 81, 43
1, 99471, Note_on_c, 0, 84, 29
1, 99475, Note_on_c, 0, 88, 28
1, 99488, Note_on_c, 0, 76, 20
1, 99514, Note_on_c, 0, 69, 6
1, 99528, Note_on_c, 0, 72, 22
1, 99617, Note_off_c, 0, 69, 64
1, 99622, Note_off_c, 0, 72, 64
1, 99681, Note_off_c, 0, 76, 64
1, 99769, Note_on_c, 0, 72, 4
1, 99806, Note_on_c, 0, 69, 2
1, 100071, Note_off_c, 0, 81, 64
1, 100102, Note_off_c, 0, 93, 64
1, 100194, Note_off_c, 0, 72, 64
1, 100208, Note_off_c, 0, 88, 64
1, 100229, Note_off_c, 0, 69, 64
1, 100263, Note_off_c, 0, 84, 64
1, 101024, Note_on_c, 0, 76, 68
1, 101027, Note_on_c, 0, 64, 53
1, 101293, Note_off_c, 0, 64, 64
1, 101421, Note_off_c, 0, 76, 64
1, 101684, Note_on_c, 0, 81, 71
1, 101687, Note_on_c, 0, 69, 39
1, 101711, Note_on_c, 0, 45, 32
1, 101734, Control_c, 0, 64, 0
1, 101734, Note_on_c, 0, 33, 6
1, 101865, Control_c, 0, 64, 127
1, 101871, Note_off_c, 0, 33, 64
1, 101926, Note_off_c, 0, 45, 64
1, 101960, Note_off_c, 0, 81, 64
1, 101965, Note_off_c, 0, 69, 64
1, 102070, Note_on_c, 0, 81, 90
1, 102070, Note_on_c, 0, 69, 54
1, 102194, Note_on_c, 0, 52, 44
1, 102236, Note_off_c, 0, 69, 64
1, 102249, Note_off_c, 0, 52, 64
1, 102272, Note_on_c, 0, 60, 39
1, 102283, Note_off_c, 0, 81, 64
1, 102321, Note_off_c, 0, 60, 64
1, 102353, Note_on_c, 0, 83, 115
1, 102361, Note_on_c, 0, 71, 87
1, 102386, Note_on_c, 0, 69, 58
1, 102466, Note_off_c, 0, 69, 64
1, 102541, Note_off_c, 0, 71, 64
1, 102580, Note_off_c, 0, 83, 64
1, 102639, Note_on_c, 0, 84, 107
1, 102644, Note_on_c, 0, 72, 89
1, 102845, Note_off_c, 0, 72, 64
1, 102878, Note_off_c, 0, 84, 64
1, 102934, Note_on_c, 0, 86, 103
1, 102938, Note_on_c, 0, 74, 97
1, 102948, Note_on_c, 0, 31, 64
1, 102948, Note_on_c, 0, 43, 57
1, 102956, Control_c, 0, 64, 0
1, 103074, Note_off_c, 0, 31, 64
1, 103101, Control_c, 0, 64, 127
1, 103126, Note_off_c, 0, 43, 64
1, 103332, Note_on_c, 0, 50, 67
1, 103394, Note_off_c, 0, 50, 64
1, 103414, Note_on_c, 0, 55, 58
1, 103438, Note_off_c, 0, 74, 64
1, 103472, Note_on_c, 0, 59, 68
1, 103500, Note_off_c, 0, 55, 64
1, 103548, Note_on_c, 0, 88, 98
1, 103551, Note_on_c, 0, 76, 84
1, 103566, Note_off_c, 0, 59, 64
1, 103581, Note_on_c, 0, 65, 79
1, 103626, Note_off_c, 0, 86, 64
1, 103690, Note_off_c, 0, 65, 64
1, 103767, Note_off_c, 0, 76, 64
1, 103801, Note_off_c, 0, 88, 64
1, 103846, Note_on_c, 0, 89, 104
1, 103851, Note_on_c, 0, 77, 97
1, 104055, Note_off_c, 0, 77, 64
1, 104073, Note_off_c, 0, 89, 64
1, 104230, Note_on_c, 0, 89, 103
1, 104235, Note_on_c, 0, 77, 97
1, 104244, Note_on_c, 0, 48, 53
1, 104252, Note_on_c, 0, 36, 51
1, 104274, Control_c, 0, 64, 0
1, 104436, Note_off_c, 0, 36, 64
1, 104442, Control_c, 0, 64, 127
1, 104494, Note_off_c, 0, 48, 64
1, 104505, Note_off_c, 0, 89, 64
1, 104523, Note_off_c, 0, 77, 64
1, 104575, Note_on_c, 0, 88, 94
1, 104583, Note_on_c, 0, 76, 83
1, 104723, Note_on_c, 0, 52, 63
1, 104768, Note_off_c, 0, 76, 64
1, 104768, Note_off_c, 0, 52, 64
1, 104781, Note_off_c, 0, 88, 64
1, 104803, Note_on_c, 0, 60, 49
1, 104848, Note_off_c, 0, 60, 64
1, 104878, Note_on_c, 0, 88, 96
1, 104882, Note_on_c, 0, 76, 84
1, 104903, Note_on_c, 0, 67, 57
1, 104952, Note_off_c, 0, 88, 64
1, 104985, Note_off_c, 0, 67, 64
1, 105009, Note_off_c, 0, 76, 64
1, 105177, Note_on_c, 0, 84, 94
1, 105183, Note_on_c, 0, 72, 72
1, 105310, Note_off_c, 0, 84, 64
1, 105310, Note_on_c, 0, 41, 41
1, 105364, Note_off_c, 0, 72, 64
1, 105364, Note_on_c, 0, 48, 32
1, 105480, Note_on_c, 0, 81, 86
1, 105488, Note_on_c, 0, 69, 54
1, 105503, Note_on_c, 0, 57, 47
1, 105556, Control_c, 0, 64, 0
1, 105725, Control_c, 0, 64, 127
1, 105732, Note_off_c, 0, 57, 64
1, 105775, Note_off_c, 0, 41, 64
1, 105815, Note_off_c, 0, 48, 64
1, 105941, Note_on_c, 0, 38, 32
1, 105988, Control_c, 0, 64, 0
1, 106032, Note_on_c, 0, 45, 44
1, 106076, Note_off_c, 0, 38, 64
1, 106080, Note_off_c, 0, 69, 64
1, 106085, Control_c, 0, 64, 127
1, 106101, Note_on_c, 0, 48, 47
1, 106107, Note_off_c, 0, 81, 64
1, 106179, Note_on_c, 0, 81, 74
1, 106186, Note_on_c, 0, 69, 68
1, 106186, Note_off_c, 0, 45, 64
1, 106221, Note_on_c, 0, 53, 72
1, 106240, Note_off_c, 0, 48, 64
1, 106300, Note_off_c, 0, 69, 64
1, 106353, Note_off_c, 0, 81, 64
1, 106399, Note_off_c, 0, 53, 64
1, 106498, Note_on_c, 0, 84, 99
1, 106503, Note_on_c, 0, 72, 85
1, 106686, Note_off_c, 0, 72, 64
1, 106693, Note_off_c, 0, 84, 64
1, 106807, Note_on_c, 0, 84, 106
1, 106812, Note_on_c, 0, 72, 87
1, 106812, Note_on_c, 0, 43, 46
1, 106817, Note_on_c, 0, 31, 50
1, 106838, Control_c, 0, 64, 0
1, 106937, Note_off_c, 0, 31, 64
1, 106977, Control_c, 0, 64, 127
1, 106980, Note_off_c, 0, 43, 64
1, 107027, Note_off_c, 0, 84, 64
1, 107044, Note_off_c, 0, 72, 64
1, 107115, Note_on_c, 0, 83, 109
1, 107121, Note_on_c, 0, 71, 87
1, 107230, Note_on_c, 0, 50, 41
1, 107271, Control_c, 0, 64, 0
1, 107283, Note_on_c, 0, 55, 47
1, 107352, Note_off_c, 0, 50, 64
1, 107367, Control_c, 0, 64, 127
1, 107375, Note_on_c, 0, 59, 37
1, 107391, Note_off_c, 0, 71, 64
1, 107405, Note_off_c, 0, 55, 64
1, 107405, Note_off_c, 0, 83, 64
1, 107450, Note_off_c, 0, 59, 64
1, 107472, Note_on_c, 0, 83, 94
1, 107484, Note_on_c, 0, 71, 67
1, 107542, Note_on_c, 0, 65, 40
1, 107632, Note_off_c, 0, 65, 64
1, 107665, Note_off_c, 0, 83, 64
1, 107737, Note_off_c, 0, 71, 64
1, 107874, Note_on_c, 0, 79, 86
1, 107882, Note_on_c, 0, 67, 60
1, 108022, Note_off_c, 0, 67, 64
1, 108025, Note_off_c, 0, 79, 64
1, 108222, Note_on_c, 0, 79, 82
1, 108233, Note_on_c, 0, 67, 54
1, 108249, Note_on_c, 0, 48, 19
1, 108274, Note_on_c, 0, 36, 19
1, 108319, Note_off_c, 0, 79, 64
1, 108349, Note_off_c, 0, 67, 64
1, 108487, Note_on_c, 0, 76, 69
1, 108497, Note_on_c, 0, 64, 54
1, 108530, Control_c, 0, 64, 0
1, 108685, Control_c, 0, 64, 127
1, 108690, Note_off_c, 0, 36, 64
1, 108743, Note_off_c, 0, 48, 64
1, 108943, Note_on_c, 0, 52, 12
1, 108991, Note_off_c, 0, 64, 64
1, 109012, Note_off_c, 0, 52, 64
1, 109012, Note_on_c, 0, 60, 37
1, 109069, Note_off_c, 0, 60, 64
1, 109099, Note_on_c, 0, 67, 43
1, 109153, Note_off_c, 0, 76, 64
1, 109217, Note_off_c, 0, 67, 64
1, 109827, Note_on_c, 0, 96, 46
1, 109838, Note_on_c, 0, 91, 36
1, 109843, Note_on_c, 0, 88, 33
1, 109848, Note_on_c, 0, 84, 47
1, 109852, Note_on_c, 0, 79, 26
1, 109859, Note_on_c, 0, 72, 12
1, 109893, Note_on_c, 0, 76, 9
1, 110075, Note_off_c, 0, 72, 64
1, 110093, Note_off_c, 0, 79, 64
1, 110107, Note_off_c, 0, 76, 64
1, 110662, Note_off_c, 0, 84, 64
1, 110742, Note_off_c, 0, 96, 64
1, 110801, Note_off_c, 0, 91, 64
1, 110810, Note_off_c, 0, 88, 64
1, 111570, Note_on_c, 0, 76, 44
1, 111581, Note_on_c, 0, 50, 31
1, 111581, Note_on_c, 0, 64, 33
1, 111589, Note_on_c, 0, 62, 13
1, 111596, Control_c, 0, 64, 0
1, 111765, Control_c, 0, 64, 127
1, 111777, Note_off_c, 0, 64, 64
1, 111844, Note_off_c, 0, 76, 64
1, 111887, Note_off_c, 0, 50, 64
1, 111961, Note_off_c, 0, 62, 64
1, 112010, Note_on_c, 0, 80, 62
1, 112016, Note_on_c, 0, 68, 42
1, 112121, Note_off_c, 0, 68, 64
1, 112178, Note_off_c, 0, 80, 64
1, 112345, Note_on_c, 0, 83, 106
1, 112350, Note_on_c, 0, 71, 72
1, 112356, Note_on_c, 0, 68, 40
1, 112389, Note_on_c, 0, 59, 20
1, 112408, Note_on_c, 0, 64, 21
1, 112526, Note_off_c, 0, 64, 64
1, 112540, Note_off_c, 0, 68, 64
1, 112553, Note_off_c, 0, 59, 64
1, 112553, Note_off_c, 0, 71, 64
1, 112589, Note_off_c, 0, 83, 64
1, 112657, Note_on_c, 0, 84, 100
1, 112660, Note_on_c, 0, 72, 76
1, 112796, Note_off_c, 0, 84, 64
1, 112844, Note_off_c, 0, 72, 64
1, 112963, Note_on_c, 0, 81, 93
1, 112971, Note_on_c, 0, 69, 67
1, 112985, Note_on_c, 0, 60, 34
1, 112990, Note_on_c, 0, 48, 19
1, 113011, Control_c, 0, 64, 0
1, 113180, Control_c, 0, 64, 127
1, 113213, Note_off_c, 0, 48, 64
1, 113249, Note_off_c, 0, 69, 64
1, 113291, Note_off_c, 0, 60, 64
1, 113311, Note_off_c, 0, 81, 64
1, 113534, Note_on_c, 0, 88, 95
1, 113540, Note_on_c, 0, 76, 73
1, 113546, Note_on_c, 0, 69, 50
1, 113584, Note_on_c, 0, 60, 19
1, 113584, Note_on_c, 0, 64, 31
1, 113782, Note_off_c, 0, 88, 64
1, 113805, Note_off_c, 0, 76, 64
1, 113872, Note_off_c, 0, 69, 64
1, 113880, Note_off_c, 0, 64, 64
1, 113880, Note_off_c, 0, 60, 64
1, 113912, Note_on_c, 0, 87, 98
1, 113915, Note_on_c, 0, 75, 82
1, 114039, Note_off_c, 0, 87, 64
1, 114067, Note_off_c, 0, 75, 64
1, 114213, Note_on_c, 0, 83, 117
1, 114213, Note_on_c, 0, 71, 100
1, 114219, Note_on_c, 0, 69, 45
1, 114230, Note_on_c, 0, 63, 47
1, 114252, Note_on_c, 0, 59, 37
1, 114355, Control_c, 0, 64, 0
1, 114498, Control_c, 0, 64, 127
1, 114556, Note_off_c, 0, 69, 64
1, 114560, Note_off_c, 0, 71, 64
1, 114567, Note_off_c, 0, 59, 64
1, 114595, Note_off_c, 0, 83, 64
1, 114598, Note_off_c, 0, 63, 64
1, 114816, Note_on_c, 0, 86, 94
1, 114826, Note_on_c, 0, 74, 71
1, 114826, Note_on_c, 0, 68, 78
1, 114852, Note_on_c, 0, 62, 49
1, 114855, Note_on_c, 0, 58, 30
1, 114977, Control_c, 0, 64, 0
1, 115082, Note_off_c, 0, 74, 64
1, 115085, Control_c, 0, 64, 127
1, 115183, Note_on_c, 0, 85, 97
1, 115183, Note_on_c, 0, 73, 81
1, 115194, Note_off_c, 0, 62, 64
1, 115211, Note_off_c, 0, 86, 64
1, 115280, Note_off_c, 0, 68, 64
1, 115331, Note_off_c, 0, 85, 64
1, 115379, Note_off_c, 0, 73, 64
1, 115384, Note_off_c, 0, 58, 64
1, 115559, Note_on_c, 0, 69, 58
1, 115559, Note_on_c, 0, 81, 87
1, 115573, Note_on_c, 0, 61, 44
1, 115585, Note_on_c, 0, 57, 33
1, 115684, Control_c, 0, 64, 0
1, 115829, Control_c, 0, 64, 127
1, 115874, Note_off_c, 0, 57, 64
1, 115935, Note_off_c, 0, 61, 64
1, 116064, Note_on_c, 0, 52, 61
1, 116116, Control_c, 0, 64, 0
1, 116181, Note_on_c, 0, 61, 53
1, 116223, Control_c, 0, 64, 127
1, 116223, Note_off_c, 0, 52, 64
1, 116325, Note_on_c, 0, 67, 57
1, 116556, Note_off_c, 0, 67, 64
1, 116579, Note_off_c, 0, 69, 64
1, 116579, Note_off_c, 0, 81, 64
1, 116610, Note_off_c, 0, 61, 64
1, 116727, Note_on_c, 0, 81, 92
1, 116734, Note_on_c, 0, 69, 63
1, 116851, Note_on_c, 0, 50, 51
1, 116858, Control_c, 0, 64, 0
1, 116919, Note_on_c, 0, 57, 51
1, 116955, Control_c, 0, 64, 127
1, 116960, Note_off_c, 0, 50, 64
1, 116963, Note_off_c, 0, 69, 64
1, 117019, Note_off_c, 0, 57, 64
1, 117066, Note_on_c, 0, 84, 104
1, 117077, Note_on_c, 0, 72, 64
1, 117120, Note_on_c, 0, 66, 57
1, 117142, Note_off_c, 0, 81, 64
1, 117273, Note_off_c, 0, 66, 64
1, 117320, Note_off_c, 0, 72, 64
1, 117339, Note_off_c, 0, 84, 64
1, 117415, Note_on_c, 0, 83, 109
1, 117422, Note_on_c, 0, 71, 85
1, 117620, Note_off_c, 0, 71, 64
1, 117651, Note_off_c, 0, 83, 64
1, 117832, Note_on_c, 0, 83, 102
1, 117844, Note_on_c, 0, 71, 59
1, 117874, Note_on_c, 0, 65, 23
1, 117961, Control_c, 0, 64, 0
1, 117999, Note_on_c, 0, 57, 2
1, 118094, Control_c, 0, 64, 127
1, 118120, Note_off_c, 0, 71, 64
1, 118125, Note_off_c, 0, 83, 64
1, 118211, Note_off_c, 0, 57, 64
1, 118230, Note_on_c, 0, 81, 72
1, 118244, Note_on_c, 0, 69, 33
1, 118356, Note_off_c, 0, 65, 64
1, 118465, Note_off_c, 0, 69, 64
1, 118624, Note_on_c, 0, 56, 45
1, 118669, Note_off_c, 0, 81, 64
1, 118751, Note_on_c, 0, 59, 34
1, 118824, Control_c, 0, 64, 0
1, 118875, Note_on_c, 0, 64, 54
1, 118932, Control_c, 0, 64, 127
1, 118947, Note_off_c, 0, 59, 64
1, 118994, Note_off_c, 0, 56, 64
1, 119108, Note_on_c, 0, 88, 59
1, 119123, Note_on_c, 0, 76, 25
1, 119183, Note_off_c, 0, 64, 64
1, 119183, Note_on_c, 0, 71, 14
1, 119354, Note_off_c, 0, 71, 64
1, 119568, Note_off_c, 0, 76, 64
1, 119927, Note_off_c, 0, 88, 64
1, 120356, Note_on_c, 0, 76, 34
1, 120361, Note_on_c, 0, 64, 28
1, 120610, Note_off_c, 0, 76, 64
1, 120629, Note_off_c, 0, 64, 64
1, 120824, Note_on_c, 0, 76, 48
1, 120824, Note_on_c, 0, 64, 43
1, 120836, Note_on_c, 0, 50, 22
1, 120836, Note_on_c, 0, 38, 25
1, 120874, Control_c, 0, 64, 0
1, 120958, Control_c, 0, 64, 127
1, 121008, Note_off_c, 0, 64, 64
1, 121050, Note_off_c, 0, 76, 64
1, 121050, Note_off_c, 0, 38, 64
1, 121126, Note_off_c, 0, 50, 64
1, 121206, Note_on_c, 0, 80, 74
1, 121210, Note_on_c, 0, 68, 53
1, 121315, Note_off_c, 0, 68, 64
1, 121323, Note_off_c, 0, 80, 64
1, 121513, Note_on_c, 0, 83, 100
1, 121520, Note_on_c, 0, 71, 71
1, 121523, Note_on_c, 0, 64, 43
1, 121545, Note_on_c, 0, 56, 23
1, 121565, Note_on_c, 0, 59, 8
1, 121701, Note_off_c, 0, 64, 64
1, 121736, Note_off_c, 0, 71, 64
1, 121744, Note_off_c, 0, 59, 64
1, 121765, Note_off_c, 0, 83, 64
1, 121791, Note_off_c, 0, 56, 64
1, 121875, Note_on_c, 0, 72, 67
1, 121880, Note_on_c, 0, 84, 89
1, 122042, Note_off_c, 0, 84, 64
1, 122094, Note_off_c, 0, 72, 64
1, 122217, Note_on_c, 0, 81, 79
1, 122223, Note_on_c, 0, 48, 30
1, 122226, Note_on_c, 0, 69, 41
1, 122226, Note_on_c, 0, 36, 22
1, 122264, Control_c, 0, 64, 0
1, 122418, Note_off_c, 0, 36, 64
1, 122418, Control_c, 0, 64, 127
1, 122471, Note_off_c, 0, 69, 64
1, 122476, Note_off_c, 0, 48, 64
1, 122562, Note_off_c, 0, 81, 64
1, 122874, Note_on_c, 0, 88, 90
1, 122874, Note_on_c, 0, 69, 38
1, 122880, Note_on_c, 0, 76, 66
1, 122900, Note_on_c, 0, 57, 25
1, 122917, Note_on_c, 0, 64, 40
1, 123030, Note_off_c, 0, 69, 64
1, 123058, Note_off_c, 0, 64, 64
1, 123091, Note_off_c, 0, 57, 64
1, 123193, Note_off_c, 0, 88, 64
1, 123215, Note_off_c, 0, 76, 64
1, 123282, Note_on_c, 0, 87, 89
1, 123285, Note_on_c, 0, 75, 82
1, 123331, Control_c, 0, 64, 0
1, 123339, Note_on_c, 0, 41, 60
1, 123413, Control_c, 0, 64, 127
1, 123437, Note_off_c, 0, 41, 64
1, 123449, Note_off_c, 0, 87, 64
1, 123491, Note_off_c, 0, 75, 64
1, 123604, Note_on_c, 0, 83, 112
1, 123608, Note_on_c, 0, 71, 89
1, 123624, Note_on_c, 0, 63, 77
1, 123655, Note_on_c, 0, 53, 58
1, 123686, Note_on_c, 0, 57, 36
1, 123839, Note_off_c, 0, 83, 64
1, 123850, Note_off_c, 0, 71, 64
1, 123969, Note_on_c, 0, 83, 119
1, 123973, Note_on_c, 0, 71, 97
1, 124142, Note_off_c, 0, 71, 64
1, 124183, Note_off_c, 0, 83, 64
1, 124356, Note_off_c, 0, 63, 64
1, 124413, Note_on_c, 0, 86, 99
1, 124424, Note_on_c, 0, 74, 76
1, 124460, Note_on_c, 0, 62, 62
1, 124505, Control_c, 0, 64, 0
1, 124624, Control_c, 0, 64, 127
1, 124657, Note_off_c, 0, 62, 64
1, 124679, Note_off_c, 0, 57, 64
1, 124686, Note_off_c, 0, 53, 64
1, 124689, Note_off_c, 0, 86, 64
1, 124705, Note_off_c, 0, 74, 64
1, 124822, Note_on_c, 0, 85, 88
1, 124827, Note_on_c, 0, 73, 72
1, 124969, Note_off_c, 0, 85, 64
1, 124975, Note_on_c, 0, 40, 84
1, 125003, Note_off_c, 0, 40, 64
1, 125009, Note_off_c, 0, 73, 64
1, 125251, Note_on_c, 0, 81, 92
1, 125256, Note_on_c, 0, 69, 67
1, 125262, Note_on_c, 0, 61, 69
1, 125275, Note_on_c, 0, 57, 49
1, 125290, Note_on_c, 0, 52, 54
1, 125512, Control_c, 0, 64, 0
1, 125619, Control_c, 0, 64, 127
1, 126028, Note_off_c, 0, 61, 64
1, 126176, Note_on_c, 0, 60, 70
1, 126398, Note_off_c, 0, 81, 64
1, 126402, Note_off_c, 0, 69, 64
1, 126505, Note_on_c, 0, 81, 104
1, 126508, Note_on_c, 0, 69, 81
1, 126572, Control_c, 0, 64, 0
1, 126650, Control_c, 0, 64, 127
1, 126686, Note_off_c, 0, 60, 64
1, 126719, Note_off_c, 0, 57, 64
1, 126724, Note_off_c, 0, 52, 64
1, 126738, Note_off_c, 0, 69, 64
1, 126774, Note_off_c, 0, 81, 64
1, 126973, Note_on_c, 0, 84, 107
1, 126978, Note_on_c, 0, 72, 87
1, 127363, Note_on_c, 0, 28, 65
1, 127370, Note_on_c, 0, 40, 84
1, 127382, Control_c, 0, 64, 0
1, 127515, Note_off_c, 0, 28, 64
1, 127537, Control_c, 0, 64, 127
1, 127558, Note_off_c, 0, 40, 64
1, 127956, Note_on_c, 0, 65, 67
1, 127969, Note_on_c, 0, 62, 57
1, 127969, Note_on_c, 0, 57, 54
1, 128306, Note_off_c, 0, 84, 64
1, 128341, Note_off_c, 0, 72, 64
1, 128435, Note_on_c, 0, 83, 107
1, 128441, Note_on_c, 0, 71, 79
1, 128588, Note_off_c, 0, 71, 64
1, 128697, Note_off_c, 0, 83, 64
1, 128744, Note_on_c, 0, 71, 78
1, 128844, Note_on_c, 0, 83, 84
1, 128953, Note_on_c, 0, 84, 84
1, 128956, Note_off_c, 0, 83, 64
1, 129078, Note_on_c, 0, 83, 102
1, 129120, Note_off_c, 0, 84, 64
1, 129154, Control_c, 0, 64, 0
1, 129274, Control_c, 0, 64, 127
1, 129549, Note_off_c, 0, 62, 64
1, 129591, Note_off_c, 0, 65, 64
1, 129643, Note_off_c, 0, 57, 64
1, 129958, Control_c, 0, 64, 0
1, 129964, Note_on_c, 0, 62, 28
1, 129969, Note_on_c, 0, 56, 24
1, 129976, Note_on_c, 0, 64, 34
1, 130090, Control_c, 0, 64, 127
1, 130117, Note_off_c, 0, 64, 64
1, 130128, Note_off_c, 0, 56, 64
1, 130137, Note_off_c, 0, 62, 64
1, 130212, Note_off_c, 0, 71, 64
1, 130268, Note_off_c, 0, 83, 64
1, 130603, Note_on_c, 0, 81, 49
1, 130613, Note_on_c, 0, 69, 25
1, 130834, Note_off_c, 0, 69, 64
1, 130906, Note_off_c, 0, 81, 64
1, 131115, Note_on_c, 0, 69, 32
1, 131266, Note_on_c, 0, 81, 28
1, 131401, Note_off_c, 0, 81, 64
1, 131412, Note_on_c, 0, 83, 65
1, 131572, Note_on_c, 0, 81, 69
1, 131591, Note_off_c, 0, 83, 64
1, 132012, Note_on_c, 0, 33, 28
1, 132068, Control_c, 0, 64, 0
1, 132259, Control_c, 0, 64, 127
1, 132318, Note_off_c, 0, 33, 64
1, 132330, Note_on_c, 0, 45, 43
1, 132387, Note_off_c, 0, 45, 64
1, 132635, Note_on_c, 0, 52, 35
1, 132694, Note_off_c, 0, 52, 64
1, 132873, Note_on_c, 0, 57, 34
1, 132958, Note_off_c, 0, 57, 64
1, 133084, Note_on_c, 0, 60, 40
1, 133114, Note_off_c, 0, 69, 64
1, 133224, Note_off_c, 0, 60, 64
1, 133318, Note_on_c, 0, 64, 41
1, 133337, Note_off_c, 0, 81, 64
1, 133382, Note_off_c, 0, 64, 64
1, 133583, Note_on_c, 0, 69, 24
1, 133672, Note_off_c, 0, 69, 64
1, 133887, Note_on_c, 0, 72, 29
1, 134028, Note_off_c, 0, 72, 64
1, 134255, Note_on_c, 0, 76, 32
1, 134372, Note_off_c, 0, 76, 64
1, 134840, Note_on_c, 0, 81, 27
1, 135644, Note_off_c, 0, 81, 64
1, 136372, Note_on_c, 0, 76, 47
1, 136588, Note_on_c, 0, 88, 69
1, 136694, Note_off_c, 0, 76, 64
1, 136694, Control_c, 0, 64, 0
1, 137112, Control_c, 0, 64, 127
1, 138285, Note_on_c, 0, 69, 6
1, 138365, Note_on_c, 0, 76, 15
1, 138435, Note_on_c, 0, 80, 25
1, 138453, Note_off_c, 0, 76, 64
1, 138471, Note_off_c, 0, 69, 64
1, 138520, Note_on_c, 0, 86, 14
1, 138597, Note_off_c, 0, 86, 64
1, 138631, Note_off_c, 0, 88, 64
1, 138822, Note_on_c, 0, 90, 22
1, 138901, Note_off_c, 0, 90, 64
1, 138931, Note_on_c, 0, 88, 33
1, 139202, Note_on_c, 0, 86, 33
1, 139205, Note_off_c, 0, 88, 64
1, 139238, Note_on_c, 0, 92, 20
1, 139272, Note_on_c, 0, 98, 31
1, 139280, Note_off_c, 0, 86, 64
1, 139307, Note_off_c, 0, 80, 64
1, 139318, Note_on_c, 0, 85, 33
1, 139332, Note_on_c, 0, 100, 26
1, 139358, Note_off_c, 0, 98, 64
1, 139380, Note_off_c, 0, 100, 64
1, 139389, Note_off_c, 0, 92, 64
1, 139633, Note_on_c, 0, 86, 32
1, 139633, Note_off_c, 0, 85, 64
1, 139705, Note_on_c, 0, 69, 20
1, 139705, Note_off_c, 0, 86, 64
1, 139720, Note_on_c, 0, 81, 39
1, 139761, Note_on_c, 0, 85, 18
1, 139797, Note_on_c, 0, 76, 5
1, 139815, Note_on_c, 0, 88, 41
1, 139834, Control_c, 0, 64, 0
1, 139965, Control_c, 0, 64, 127
1, 139988, Note_off_c, 0, 69, 64
1, 140027, Note_off_c, 0, 76, 64
1, 140031, Note_off_c, 0, 88, 64
1, 140261, Note_on_c, 0, 88, 69
1, 140266, Note_off_c, 0, 85, 64
1, 140591, Note_on_c, 0, 93, 30
1, 140597, Note_off_c, 0, 81, 64
1, 140633, Note_on_c, 0, 97, 31
1, 140675, Note_on_c, 0, 100, 53
1, 140709, Note_off_c, 0, 100, 64
1, 140736, Note_off_c, 0, 93, 64
1, 140736, Note_off_c, 0, 97, 64
1, 141038, Note_on_c, 0, 69, 19
1, 141127, Note_on_c, 0, 76, 12
1, 141144, Note_on_c, 0, 80, 31
1, 141176, Control_c, 0, 64, 0
1, 141197, Note_on_c, 0, 86, 44
1, 141296, Control_c, 0, 64, 127
1, 141296, Note_off_c, 0, 69, 64
1, 141330, Note_off_c, 0, 76, 64
1, 141497, Note_off_c, 0, 86, 64
1, 141538, Note_off_c, 0, 88, 64
1, 141548, Note_on_c, 0, 90, 54
1, 141630, Note_on_c, 0, 88, 59
1, 141675, Note_off_c, 0, 90, 64
1, 141689, Note_off_c, 0, 80, 64
1, 141907, Note_on_c, 0, 86, 60
1, 141940, Note_on_c, 0, 92, 41
1, 141948, Note_off_c, 0, 88, 64
1, 141982, Note_on_c, 0, 98, 41
1, 142007, Note_off_c, 0, 92, 64
1, 142012, Note_on_c, 0, 85, 56
1, 142018, Note_on_c, 0, 100, 61
1, 142052, Note_off_c, 0, 86, 64
1, 142055, Note_off_c, 0, 100, 64
1, 142084, Note_off_c, 0, 98, 64
1, 142391, Note_on_c, 0, 86, 45
1, 142416, Note_off_c, 0, 85, 64
1, 142422, Note_on_c, 0, 69, 15
1, 142466, Note_on_c, 0, 81, 39
1, 142500, Note_on_c, 0, 76, 13
1, 142513, Note_on_c, 0, 85, 30
1, 142562, Note_off_c, 0, 86, 64
1, 142562, Note_on_c, 0, 88, 61
1, 142567, Control_c, 0, 64, 0
1, 142734, Control_c, 0, 64, 127
1, 142742, Note_off_c, 0, 69, 64
1, 142796, Note_off_c, 0, 76, 64
1, 143296, Note_on_c, 0, 93, 20
1, 143324, Note_on_c, 0, 97, 22
1, 143374, Note_on_c, 0, 100, 47
1, 143414, Note_off_c, 0, 100, 64
1, 143441, Note_off_c, 0, 97, 64
1, 143441, Note_off_c, 0, 93, 64
1, 143537, Note_off_c, 0, 81, 64
1, 143550, Note_off_c, 0, 85, 64
1, 143750, Note_on_c, 0, 69, 31
1, 143856, Note_on_c, 0, 76, 19
1, 143864, Note_on_c, 0, 80, 25
1, 143896, Control_c, 0, 64, 0
1, 143913, Note_on_c, 0, 86, 44
1, 143968, Control_c, 0, 64, 127
1, 143987, Note_off_c, 0, 69, 64
1, 143987, Note_off_c, 0, 76, 64
1, 144313, Note_on_c, 0, 90, 74
1, 144516, Note_off_c, 0, 80, 64
1, 144516, Note_off_c, 0, 88, 64
1, 144665, Note_on_c, 0, 92, 19
1, 144712, Note_on_c, 0, 98, 43
1, 144748, Note_on_c, 0, 100, 34
1, 144779, Note_off_c, 0, 98, 64
1, 144787, Note_off_c, 0, 100, 64
1, 144818, Note_off_c, 0, 92, 64
1, 145105, Note_on_c, 0, 69, 11
1, 145157, Note_off_c, 0, 86, 64
1, 145180, Note_on_c, 0, 76, 11
1, 145185, Note_on_c, 0, 81, 33
1, 145199, Note_on_c, 0, 85, 32
1, 145322, Control_c, 0, 64, 0
1, 145406, Control_c, 0, 64, 127
1, 145413, Note_on_c, 0, 88, 62
1, 145427, Note_off_c, 0, 69, 64
1, 145464, Note_off_c, 0, 76, 64
1, 145473, Note_off_c, 0, 90, 64
1, 145539, Note_off_c, 0, 88, 64
1, 145586, Note_on_c, 0, 90, 41
1, 145648, Note_on_c, 0, 88, 62
1, 145670, Note_off_c, 0, 85, 64
1, 145690, Note_off_c, 0, 90, 64
1, 145857, Note_on_c, 0, 85, 53
1, 145921, Note_off_c, 0, 81, 64
1, 145959, Note_on_c, 0, 93, 27
1, 146004, Note_on_c, 0, 97, 29
1, 146066, Note_on_c, 0, 100, 49
1, 146079, Note_off_c, 0, 93, 64
1, 146102, Note_off_c, 0, 100, 64
1, 146121, Note_off_c, 0, 97, 64
1, 146121, Note_on_c, 0, 81, 53
1, 146252, Note_off_c, 0, 88, 64
1, 146283, Note_off_c, 0, 85, 64
1, 146514, Note_on_c, 0, 69, 16
1, 146584, Note_on_c, 0, 76, 31
1, 146604, Note_on_c, 0, 85, 40
1, 146654, Note_off_c, 0, 81, 64
1, 146706, Note_off_c, 0, 69, 64
1, 146732, Note_off_c, 0, 76, 64
1, 146831, Note_on_c, 0, 83, 77
1, 146837, Note_off_c, 0, 85, 64
1, 146876, Note_off_c, 0, 83, 64
1, 146991, Note_on_c, 0, 85, 66
1, 147054, Note_on_c, 0, 83, 75
1, 147119, Note_off_c, 0, 85, 64
1, 147232, Note_on_c, 0, 80, 67
1, 147313, Note_on_c, 0, 92, 18
1, 147331, Note_off_c, 0, 83, 64
1, 147355, Note_on_c, 0, 95, 37
1, 147422, Note_on_c, 0, 100, 46
1, 147448, Note_on_c, 0, 76, 53
1, 147453, Note_off_c, 0, 80, 64
1, 147459, Note_off_c, 0, 100, 64
1, 147498, Note_off_c, 0, 95, 64
1, 147522, Note_off_c, 0, 92, 64
1, 147587, Note_off_c, 0, 76, 64
1, 147673, Note_on_c, 0, 80, 64
1, 147868, Note_on_c, 0, 69, 31
1, 147921, Note_on_c, 0, 76, 26
1, 147927, Note_on_c, 0, 81, 49
1, 147946, Note_off_c, 0, 80, 64
1, 148007, Control_c, 0, 64, 0
1, 148091, Control_c, 0, 64, 127
1, 148102, Note_off_c, 0, 69, 64
1, 148113, Note_off_c, 0, 76, 64
1, 148132, Note_on_c, 0, 85, 52
1, 148391, Note_on_c, 0, 88, 52
1, 148809, Note_on_c, 0, 97, 23
1, 148809, Note_on_c, 0, 100, 42
1, 148838, Note_on_c, 0, 93, 26
1, 148843, Note_off_c, 0, 81, 64
1, 148871, Note_off_c, 0, 100, 64
1, 148896, Note_off_c, 0, 93, 64
1, 148902, Note_off_c, 0, 97, 64
1, 148907, Note_off_c, 0, 85, 64
1, 149317, Note_on_c, 0, 69, 15
1, 149369, Note_on_c, 0, 80, 23
1, 149398, Note_on_c, 0, 76, 14
1, 149445, Control_c, 0, 64, 0
1, 149458, Note_on_c, 0, 86, 33
1, 149492, Note_off_c, 0, 76, 64
1, 149517, Control_c, 0, 64, 127
1, 149537, Note_off_c, 0, 69, 64
1, 149720, Note_off_c, 0, 80, 64
1, 149880, Note_on_c, 0, 92, 44
1, 149923, Note_off_c, 0, 88, 64
1, 149952, Note_off_c, 0, 86, 64
1, 150122, Note_off_c, 0, 92, 64
1, 150202, Note_on_c, 0, 92, 16
1, 150300, Note_on_c, 0, 98, 33
1, 150362, Note_on_c, 0, 100, 43
1, 150400, Note_off_c, 0, 100, 64
1, 150414, Note_off_c, 0, 98, 64
1, 150454, Note_off_c, 0, 92, 64
1, 150610, Note_on_c, 0, 90, 40
1, 150698, Note_off_c, 0, 90, 64
1, 150797, Note_on_c, 0, 81, 39
1, 150859, Note_on_c, 0, 85, 32
1, 150866, Note_off_c, 0, 81, 64
1, 150932, Note_on_c, 0, 90, 40
1, 150966, Note_on_c, 0, 69, 8
1, 150966, Note_on_c, 0, 76, 5
1, 150985, Note_on_c, 0, 81, 2
1, 151178, Note_off_c, 0, 69, 64
1, 151178, Note_off_c, 0, 85, 64
1, 151220, Note_off_c, 0, 76, 64
1, 151220, Note_off_c, 0, 90, 64
1, 151231, Note_on_c, 0, 88, 49
1, 151316, Note_off_c, 0, 88, 64
1, 151422, Note_on_c, 0, 90, 52
1, 151495, Note_on_c, 0, 88, 44
1, 151507, Note_off_c, 0, 90, 64
1, 151688, Note_off_c, 0, 81, 64
1, 151701, Note_on_c, 0, 85, 52
1, 151740, Note_off_c, 0, 88, 64
1, 151745, Note_on_c, 0, 93, 30
1, 151802, Note_on_c, 0, 97, 21
1, 151919, Note_on_c, 0, 100, 44
1, 151954, Note_off_c, 0, 93, 64
1, 151957, Note_off_c, 0, 100, 64
1, 151993, Note_off_c, 0, 97, 64
1, 152046, Note_on_c, 0, 81, 51
1, 152063, Note_off_c, 0, 85, 64
1, 152125, Note_off_c, 0, 81, 64
1, 152621, Note_on_c, 0, 57, 16
1, 152707, Note_on_c, 0, 64, 15
1, 152762, Note_on_c, 0, 74, 27
1, 152793, Note_on_c, 0, 71, 22
1, 152851, Note_on_c, 0, 80, 34
1, 152969, Note_on_c, 0, 85, 40
1, 153309, Note_on_c, 0, 83, 73
1, 153341, Note_off_c, 0, 85, 64
1, 153370, Note_off_c, 0, 80, 64
1, 153433, Note_off_c, 0, 83, 64
1, 153498, Note_on_c, 0, 85, 44
1, 153575, Note_on_c, 0, 83, 78
1, 153618, Note_off_c, 0, 85, 64
1, 153801, Note_off_c, 0, 83, 64
1, 153801, Note_on_c, 0, 80, 65
1, 154053, Note_on_c, 0, 76, 54
1, 154061, Note_off_c, 0, 80, 64
1, 154278, Note_off_c, 0, 76, 64
1, 154278, Note_on_c, 0, 80, 51
1, 154451, Note_off_c, 0, 80, 64
1, 154537, Note_on_c, 0, 83, 63
1, 154720, Note_off_c, 0, 83, 64
1, 154787, Note_on_c, 0, 76, 46
1, 154955, Note_off_c, 0, 76, 64
1, 155035, Note_on_c, 0, 80, 40
1, 155239, Note_off_c, 0, 80, 64
1, 155358, Note_on_c, 0, 83, 57
1, 155532, Note_off_c, 0, 83, 64
1, 155735, Note_on_c, 0, 76, 32
1, 155816, Note_off_c, 0, 76, 64
1, 155882, Note_off_c, 0, 74, 64
1, 155924, Note_off_c, 0, 71, 64
1, 155930, Note_off_c, 0, 57, 64
1, 156000, Note_on_c, 0, 80, 25
1, 156075, Note_off_c, 0, 64, 64
1, 156130, Note_off_c, 0, 80, 64
1, 156262, Note_on_c, 0, 83, 43
1, 156381, Note_off_c, 0, 83, 64
1, 156670, Note_on_c, 0, 81, 38
1, 156677, Note_on_c, 0, 73, 19
1, 156677, Note_on_c, 0, 69, 11
1, 156694, Note_on_c, 0, 64, 20
1, 156707, Note_on_c, 0, 57, 13
1, 156983, Control_c, 0, 64, 0
1, 157127, Control_c, 0, 64, 127
1, 157378, Note_off_c, 0, 73, 64
1, 157407, Note_off_c, 0, 64, 64
1, 157526, Note_on_c, 0, 74, 30
1, 157545, Note_on_c, 0, 66, 11
1, 157727, Control_c, 0, 64, 0
1, 157832, Note_off_c, 0, 57, 64
1, 157835, Control_c, 0, 64, 127
1, 157860, Note_off_c, 0, 69, 64
1, 157918, Note_off_c, 0, 74, 64
1, 157939, Note_off_c, 0, 66, 64
1, 157939, Note_off_c, 0, 81, 64
1, 158350, Note_on_c, 0, 93, 36
1, 158362, Note_on_c, 0, 85, 23
1, 158372, Note_on_c, 0, 81, 27
1, 158379, Note_on_c, 0, 76, 13
1, 158398, Note_on_c, 0, 69, 9
1, 158602, Control_c, 0, 64, 0
1, 158710, Control_c, 0, 64, 127
1, 158936, Note_off_c, 0, 76, 64
1, 158974, Note_off_c, 0, 85, 64
1, 159069, Note_off_c, 0, 69, 64
1, 159183, Note_on_c, 0, 86, 29
1, 159198, Note_on_c, 0, 78, 27
1, 159574, Note_off_c, 0, 78, 64
1, 159588, Note_off_c, 0, 81, 64
1, 159598, Note_off_c, 0, 86, 64
1, 159644, Note_off_c, 0, 93, 64
1, 160387, Note_on_c, 0, 81, 38
1, 160404, Note_on_c, 0, 93, 20
1, 160415, Note_on_c, 0, 85, 13
1, 160415, Note_on_c, 0, 88, 10
1, 160676, Control_c, 0, 64, 0
1, 160747, Control_c, 0, 64, 127
1, 161462, Note_off_c, 0, 88, 64
1, 161797, Note_off_c, 0, 81, 64
1, 161955, Note_off_c, 0, 93, 64
1, 162080, Note_off_c, 0, 85, 64
1, 162777, Note_on_c, 0, 64, 41
1, 163036, Control_c, 0, 64, 0
1, 163682, Control_c, 0, 64, 127
1, 164451, Note_on_c, 0, 60, 33
1, 164505, Note_off_c, 0, 64, 64
1, 164679, Control_c, 0, 64, 0
1, 164785, Control_c, 0, 64, 127
1, 164899, Note_on_c, 0, 64, 43
1, 165059, Note_off_c, 0, 60, 64
1, 165086, Control_c, 0, 64, 0
1, 165193, Control_c, 0, 64, 127
1, 165264, Note_on_c, 0, 69, 37
1, 165362, Note_off_c, 0, 64, 64
1, 165409, Control_c, 0, 64, 0
1, 165552, Control_c, 0, 64, 127
1, 165624, Note_on_c, 0, 71, 54
1, 165718, Note_off_c, 0, 69, 64
1, 165718, Control_c, 0, 64, 0
1, 165888, Control_c, 0, 64, 127
1, 165947, Note_off_c, 0, 71, 64
1, 166192, Note_on_c, 0, 71, 28
1, 166349, Note_on_c, 0, 69, 31
1, 166349, Note_off_c, 0, 71, 64
1, 166521, Note_on_c, 0, 67, 30
1, 166565, Note_off_c, 0, 69, 64
1, 166775, Control_c, 0, 64, 0
1, 167003, Control_c, 0, 64, 127
1, 168101, Note_on_c, 0, 64, 34
1, 168215, Note_off_c, 0, 67, 64
1, 168393, Control_c, 0, 64, 0
1, 168608, Control_c, 0, 64, 127
1, 168861, Note_on_c, 0, 60, 37
1, 169022, Note_off_c, 0, 64, 64
1, 169125, Control_c, 0, 64, 0
1, 169483, Control_c, 0, 64, 127
1, 170316, Note_on_c, 0, 57, 21
1, 170324, Note_off_c, 0, 60, 64
1, 170550, Control_c, 0, 64, 0
1, 170706, Control_c, 0, 64, 127
1, 170798, Note_on_c, 0, 60, 35
1, 170942, Note_off_c, 0, 57, 64
1, 170993, Control_c, 0, 64, 0
1, 171114, Control_c, 0, 64, 127
1, 171173, Note_on_c, 0, 65, 35
1, 171249, Note_off_c, 0, 60, 64
1, 171257, Control_c, 0, 64, 0
1, 171426, Control_c, 0, 64, 127
1, 171536, Note_on_c, 0, 67, 33
1, 171572, Note_off_c, 0, 65, 64
1, 171761, Control_c, 0, 64, 0
1, 171915, Control_c, 0, 64, 127
1, 171986, Note_on_c, 0, 64, 35
1, 172029, Note_off_c, 0, 67, 64
1, 172337, Control_c, 0, 64, 0
1, 172647, Control_c, 0, 64, 127
1, 173071, Note_off_c, 0, 64, 64
1, 173092, Note_on_c, 0, 69, 13
1, 173271, Control_c, 0, 64, 0
1, 173546, Control_c, 0, 64, 127
1, 174087, Note_off_c, 0, 69, 64
1, 174864, Note_on_c, 0, 52, 30
1, 175308, Control_c, 0, 64, 0
1, 175380, Control_c, 0, 64, 127
1, 175624, Note_on_c, 0, 57, 20
1, 175705, Note_off_c, 0, 52, 64
1, 175992, Control_c, 0, 64, 0
1, 176230, Control_c, 0, 64, 127
1, 176425, Note_off_c, 0, 57, 64
1, 177333, Control_c, 0, 64, 0
1, 177354, Note_on_c, 0, 40, 40
1, 177382, Note_on_c, 0, 28, 14
1, 177656, Control_c, 0, 64, 127
1, 178307, Note_off_c, 0, 40, 64
1, 178347, Note_on_c, 0, 45, 17
1, 178371, Note_on_c, 0, 33, 20
1, 178539, Note_off_c, 0, 28, 64
1, 178651, Control_c, 0, 64, 0
1, 179059, Control_c, 0, 64, 127
1, 179739, Note_off_c, 0, 33, 64
1, 179758, Note_off_c, 0, 45, 64
1, 181263, Note_on_c, 0, 81, 34
1, 181280, Note_on_c, 0, 72, 18
1, 181285, Note_on_c, 0, 69, 8
1, 181285, Note_on_c, 0, 76, 32
1, 181293, Note_on_c, 0, 64, 13
1, 181302, Note_on_c, 0, 57, 7
1, 185425, Note_off_c, 0, 69, 64
1, 185428, Note_off_c, 0, 64, 64
1, 185494, Note_off_c, 0, 76, 64
1, 185505, Note_off_c, 0, 57, 64
1, 185508, Note_off_c, 0, 72, 64
1, 185536, Note_off_c, 0, 81, 64
1, 185795, Control_c, 0, 64, 0
1, 187200, Control_c, 0, 64, 0
1, 188698, End_track
0, 0, End_of_file
