0, 0, Header, 1, 3, 384
1, 0, Start_track
1, 0, Title_t, "--------"
1, 0, Sequencer_specific, 3, 0, 0, 65
1, 0, Time_signature, 4, 2, 24, 8
1, 0, Key_signature, 0, "major"
1, 0, Tempo, 410959
1, 844, Tempo, 379747
1, 3536, Tempo, 379747
1, 10176, Tempo, 277778
1, 10180, Tempo, 363636
1, 10772, Tempo, 266667
1, 36576, Tempo, 322581
1, 43472, Tempo, 277778
1, 48096, Tempo, 434783
1, 57984, Tempo, 535714
1, 58020, Tempo, 560748
1, 72656, Tempo, 451128
1, 86056, Tempo, 389610
1, 96300, Tempo, 487805
1, 109944, Tempo, 833333
1, 110116, Tempo, 731707
1, 110308, Tempo, 535714
1, 115032, Tempo, 606061
1, 121344, Tempo, 560748
1, 121384, Tempo, 566038
1, 121424, Tempo, 571429
1, 121464, Tempo, 576923
1, 121504, Tempo, 582524
1, 121544, Tempo, 588235
1, 121584, Tempo, 594059
1, 121624, Tempo, 606061
1, 121664, Tempo, 606061
1, 121704, Tempo, 612245
1, 121744, Tempo, 618557
1, 121784, Tempo, 625000
1, 121824, Tempo, 631579
1, 121864, Tempo, 638298
1, 121904, Tempo, 638298
1, 121944, Tempo, 645161
1, 121984, Tempo, 652174
1, 122024, Tempo, 666667
1, 122064, Tempo, 674157
1, 122104, Tempo, 681818
1, 122144, Tempo, 689655
1, 122584, Tempo, 618557
1, 122788, Tempo, 588235
1, 132552, Tempo, 618557
1, 138240, Tempo, 618557
1, 139676, Tempo, 612245
1, 141112, Tempo, 606061
1, 142548, Tempo, 606061
1, 143984, Tempo, 600000
1, 145420, Tempo, 594059
1, 146856, Tempo, 588235
1, 148292, Tempo, 582524
1, 149728, Tempo, 576923
1, 151164, Tempo, 571429
1, 152600, Tempo, 566038
1, 154036, Tempo, 560748
1, 155472, Tempo, 555556
1, 161280, Tempo, 555556
1, 161372, Tempo, 560748
1, 161464, Tempo, 566038
1, 161556, Tempo, 571429
1, 161648, Tempo, 576923
1, 161740, Tempo, 582524
1, 161832, Tempo, 588235
1, 161924, Tempo, 594059
1, 162016, Tempo, 600000
1, 162108, Tempo, 606061
1, 162200, Tempo, 606061
1, 162292, Tempo, 612245
1, 162384, Tempo, 618557
1, 162476, Tempo, 625000
1, 162568, Tempo, 631579
1, 162660, Tempo, 638298
1, 170496, Tempo, 638298
1, 170580, Tempo, 645161
1, 170664, Tempo, 652174
1, 170748, Tempo, 659341
1, 170832, Tempo, 666667
1, 170916, Tempo, 674157
1, 171000, Tempo, 681818
1, 171084, Tempo, 689655
1, 171168, Tempo, 697674
1, 171252, Tempo, 705882
1, 171336, Tempo, 714286
1, 171420, Tempo, 722892
1, 171504, Tempo, 731707
1, 171588, Tempo, 740741
1, 171672, Tempo, 750000
1, 171756, Tempo, 759494
1, 173004, Tempo, 638298
1, 178888, Tempo, 618557
1, 181200, Tempo, 566038
1, 188928, Tempo, 566038
1, 188992, Tempo, 571429
1, 189056, Tempo, 576923
1, 189120, Tempo, 582524
1, 189184, Tempo, 588235
1, 189248, Tempo, 594059
1, 189312, Tempo, 600000
1, 189376, Tempo, 606061
1, 189440, Tempo, 606061
1, 189504, Tempo, 612245
1, 189568, Tempo, 618557
1, 189632, Tempo, 625000
1, 189696, Tempo, 631579
1, 189760, Tempo, 638298
1, 189824, Tempo, 645161
1, 189888, Tempo, 652174
1, 189952, Tempo, 659341
1, 190016, Tempo, 666667
1, 190080, Tempo, 674157
1, 195744, Tempo, 618557
1, 200600, Tempo, 759494
1, 206196, Tempo, 983607
1, 209416, Tempo, 983607
1, 224052, Tempo, 1363636
1, 224276, Tempo, 983607
1, 249108, Tempo, 857143
1, 252004, Tempo, 759494
1, 276960, Tempo, 666667
1, 288768, Tempo, 759494
1, 288860, Tempo, 750000
1, 288952, Tempo, 740741
1, 289044, Tempo, 731707
1, 289136, Tempo, 722892
1, 289228, Tempo, 714286
1, 289320, Tempo, 705882
1, 289412, Tempo, 697674
1, 289504, Tempo, 689655
1, 289596, Tempo, 681818
1, 289688, Tempo, 674157
1, 289780, Tempo, 666667
1, 289872, Tempo, 659341
1, 289964, Tempo, 652174
1, 290056, Tempo, 645161
1, 290148, Tempo, 638298
1, 290240, Tempo, 631579
1, 290332, Tempo, 625000
1, 290424, Tempo, 618557
1, 290516, Tempo, 612245
1, 290608, Tempo, 606061
1, 290700, Tempo, 606061
1, 290792, Tempo, 600000
1, 290884, Tempo, 594059
1, 290976, Tempo, 588235
1, 291748, Tempo, 545455
1, 327168, Tempo, 535714
1, 327168, End_track
2, 0, Start_track
2, 0, Title_t, "Piano 1"
2, 0, Program_c, 0, 0
2, 0, Control_c, 0, 7, 100
2, 0, Control_c, 0, 10, 80
2, 10180, Note_on_c, 0, 92, 110
2, 10180, Note_on_c, 0, 68, 87
2, 10180, Note_on_c, 0, 89, 96
2, 10180, Note_on_c, 0, 80, 96
2, 10180, Note_on_c, 0, 65, 84
2, 10180, Note_on_c, 0, 86, 93
2, 10180, Note_on_c, 0, 62, 78
2, 10180, Note_on_c, 0, 56, 75
2, 10196, Control_c, 0, 64, 104
2, 10208, Control_c, 0, 64, 127
2, 10244, Note_on_c, 0, 62, 0
2, 10244, Note_on_c, 0, 65, 0
2, 10248, Note_on_c, 0, 56, 0
2, 10252, Note_on_c, 0, 68, 0
2, 10256, Note_on_c, 0, 80, 0
2, 10256, Note_on_c, 0, 86, 0
2, 10264, Note_on_c, 0, 89, 0
2, 10276, Note_on_c, 0, 92, 0
2, 10772, Note_on_c, 0, 70, 102
2, 10772, Note_on_c, 0, 58, 87
2, 10772, Note_on_c, 0, 46, 91
2, 10772, Note_on_c, 0, 34, 74
2, 10888, Control_c, 0, 64, 88
2, 10900, Control_c, 0, 64, 0
2, 10980, Control_c, 0, 64, 40
2, 10996, Control_c, 0, 64, 127
2, 11476, Note_on_c, 0, 58, 0
2, 11484, Note_on_c, 0, 70, 0
2, 11484, Note_on_c, 0, 46, 0
2, 11496, Note_on_c, 0, 34, 0
2, 11752, Note_on_c, 0, 69, 91
2, 11752, Note_on_c, 0, 57, 63
2, 11752, Note_on_c, 0, 45, 71
2, 11752, Note_on_c, 0, 33, 56
2, 11788, Note_on_c, 0, 33, 0
2, 11788, Note_on_c, 0, 45, 0
2, 11788, Note_on_c, 0, 57, 0
2, 11820, Note_on_c, 0, 69, 0
2, 11920, Note_on_c, 0, 70, 88
2, 11920, Note_on_c, 0, 58, 75
2, 11920, Note_on_c, 0, 34, 69
2, 11920, Note_on_c, 0, 46, 66
2, 11980, Note_on_c, 0, 46, 0
2, 11980, Note_on_c, 0, 58, 0
2, 12020, Note_on_c, 0, 34, 0
2, 12032, Note_on_c, 0, 70, 0
2, 12080, Control_c, 0, 64, 72
2, 12092, Note_on_c, 0, 71, 95
2, 12092, Note_on_c, 0, 59, 74
2, 12092, Note_on_c, 0, 47, 71
2, 12092, Note_on_c, 0, 35, 74
2, 12092, Control_c, 0, 64, 24
2, 12108, Control_c, 0, 64, 40
2, 12120, Control_c, 0, 64, 88
2, 12136, Control_c, 0, 64, 127
2, 12144, Note_on_c, 0, 47, 0
2, 12144, Note_on_c, 0, 59, 0
2, 12152, Note_on_c, 0, 35, 0
2, 12156, Note_on_c, 0, 71, 0
2, 12256, Note_on_c, 0, 70, 88
2, 12256, Note_on_c, 0, 34, 75
2, 12256, Note_on_c, 0, 58, 81
2, 12256, Note_on_c, 0, 46, 74
2, 12292, Note_on_c, 0, 58, 0
2, 12300, Note_on_c, 0, 46, 0
2, 12300, Note_on_c, 0, 34, 0
2, 12316, Note_on_c, 0, 70, 0
2, 12448, Control_c, 0, 64, 56
2, 12452, Note_on_c, 0, 74, 96
2, 12460, Note_on_c, 0, 62, 83
2, 12460, Control_c, 0, 64, 40
2, 12472, Note_on_c, 0, 50, 81
2, 12476, Note_on_c, 0, 38, 68
2, 12476, Control_c, 0, 64, 88
2, 12488, Control_c, 0, 64, 127
2, 12500, Note_on_c, 0, 50, 0
2, 12500, Note_on_c, 0, 62, 0
2, 12508, Note_on_c, 0, 74, 0
2, 12508, Note_on_c, 0, 38, 0
2, 12652, Note_on_c, 0, 70, 83
2, 12652, Note_on_c, 0, 58, 72
2, 12652, Note_on_c, 0, 34, 81
2, 12652, Note_on_c, 0, 46, 81
2, 12676, Note_on_c, 0, 58, 0
2, 12688, Note_on_c, 0, 34, 0
2, 12696, Note_on_c, 0, 70, 0
2, 12700, Note_on_c, 0, 46, 0
2, 12852, Note_on_c, 0, 77, 100
2, 12852, Note_on_c, 0, 53, 75
2, 12852, Control_c, 0, 64, 56
2, 12852, Note_on_c, 0, 65, 73
2, 12852, Note_on_c, 0, 41, 45
2, 12876, Note_on_c, 0, 65, 0
2, 12876, Note_on_c, 0, 53, 0
2, 12888, Note_on_c, 0, 41, 0
2, 12896, Control_c, 0, 64, 127
2, 12908, Note_on_c, 0, 77, 0
2, 13044, Note_on_c, 0, 46, 86
2, 13044, Note_on_c, 0, 58, 79
2, 13048, Note_on_c, 0, 70, 92
2, 13048, Note_on_c, 0, 34, 81
2, 13068, Note_on_c, 0, 34, 0
2, 13072, Note_on_c, 0, 58, 0
2, 13084, Note_on_c, 0, 46, 0
2, 13088, Note_on_c, 0, 70, 0
2, 13264, Control_c, 0, 64, 104
2, 13276, Note_on_c, 0, 80, 100
2, 13276, Note_on_c, 0, 68, 87
2, 13276, Note_on_c, 0, 56, 83
2, 13276, Control_c, 0, 64, 0
2, 13284, Note_on_c, 0, 44, 77
2, 13316, Control_c, 0, 64, 127
2, 13320, Note_on_c, 0, 68, 0
2, 13332, Note_on_c, 0, 80, 0
2, 13332, Note_on_c, 0, 56, 0
2, 13348, Note_on_c, 0, 44, 0
2, 13640, Note_on_c, 0, 70, 95
2, 13640, Note_on_c, 0, 58, 88
2, 13644, Note_on_c, 0, 46, 88
2, 13648, Note_on_c, 0, 34, 79
2, 13656, Control_c, 0, 64, 72
2, 13688, Note_on_c, 0, 46, 0
2, 13688, Note_on_c, 0, 58, 0
2, 13696, Note_on_c, 0, 34, 0
2, 13696, Control_c, 0, 64, 127
2, 13716, Note_on_c, 0, 70, 0
2, 14008, Note_on_c, 0, 86, 102
2, 14008, Control_c, 0, 64, 104
2, 14012, Note_on_c, 0, 74, 91
2, 14016, Control_c, 0, 64, 56
2, 14024, Note_on_c, 0, 62, 89
2, 14028, Note_on_c, 0, 50, 86
2, 14036, Control_c, 0, 64, 72
2, 14048, Control_c, 0, 64, 127
2, 14064, Note_on_c, 0, 74, 0
2, 14072, Note_on_c, 0, 86, 0
2, 14076, Note_on_c, 0, 62, 0
2, 14084, Note_on_c, 0, 50, 0
2, 14384, Note_on_c, 0, 58, 86
2, 14388, Note_on_c, 0, 70, 94
2, 14396, Note_on_c, 0, 34, 75
2, 14396, Note_on_c, 0, 46, 83
2, 14400, Control_c, 0, 64, 72
2, 14412, Control_c, 0, 64, 88
2, 14428, Control_c, 0, 64, 127
2, 14432, Note_on_c, 0, 58, 0
2, 14440, Note_on_c, 0, 46, 0
2, 14444, Note_on_c, 0, 34, 0
2, 14456, Note_on_c, 0, 70, 0
2, 14740, Note_on_c, 0, 89, 99
2, 14748, Note_on_c, 0, 77, 97
2, 14756, Note_on_c, 0, 65, 84
2, 14764, Note_on_c, 0, 53, 78
2, 14800, Note_on_c, 0, 77, 0
2, 14804, Note_on_c, 0, 89, 0
2, 14804, Note_on_c, 0, 65, 0
2, 14816, Note_on_c, 0, 53, 0
2, 15112, Note_on_c, 0, 70, 95
2, 15112, Note_on_c, 0, 58, 93
2, 15112, Note_on_c, 0, 34, 73
2, 15112, Note_on_c, 0, 46, 72
2, 15156, Note_on_c, 0, 58, 0
2, 15160, Note_on_c, 0, 46, 0
2, 15164, Note_on_c, 0, 34, 0
2, 15180, Note_on_c, 0, 70, 0
2, 15548, Note_on_c, 0, 92, 106
2, 15548, Note_on_c, 0, 89, 90
2, 15548, Note_on_c, 0, 65, 81
2, 15548, Note_on_c, 0, 56, 83
2, 15548, Note_on_c, 0, 68, 90
2, 15548, Note_on_c, 0, 80, 96
2, 15548, Note_on_c, 0, 62, 78
2, 15548, Control_c, 0, 64, 72
2, 15568, Note_on_c, 0, 86, 86
2, 15568, Control_c, 0, 64, 0
2, 15592, Note_on_c, 0, 86, 0
2, 15592, Control_c, 0, 64, 24
2, 15604, Control_c, 0, 64, 104
2, 15608, Note_on_c, 0, 62, 0
2, 15608, Note_on_c, 0, 56, 0
2, 15616, Note_on_c, 0, 89, 0
2, 15616, Note_on_c, 0, 65, 0
2, 15616, Note_on_c, 0, 68, 0
2, 15616, Note_on_c, 0, 80, 0
2, 15620, Control_c, 0, 64, 127
2, 15644, Note_on_c, 0, 92, 0
2, 16308, Note_on_c, 0, 70, 99
2, 16308, Note_on_c, 0, 58, 82
2, 16308, Note_on_c, 0, 46, 93
2, 16308, Note_on_c, 0, 34, 74
2, 16408, Control_c, 0, 64, 40
2, 16420, Control_c, 0, 64, 0
2, 16948, Control_c, 0, 64, 40
2, 16960, Control_c, 0, 64, 88
2, 16976, Control_c, 0, 64, 127
2, 17204, Note_on_c, 0, 34, 0
2, 17208, Note_on_c, 0, 46, 0
2, 17220, Note_on_c, 0, 58, 0
2, 17220, Note_on_c, 0, 70, 0
2, 17396, Control_c, 0, 64, 88
2, 17408, Note_on_c, 0, 69, 92
2, 17408, Note_on_c, 0, 57, 67
2, 17408, Note_on_c, 0, 45, 76
2, 17408, Note_on_c, 0, 33, 57
2, 17412, Control_c, 0, 64, 24
2, 17424, Control_c, 0, 64, 0
2, 17428, Control_c, 0, 64, 56
2, 17448, Note_on_c, 0, 33, 0
2, 17448, Note_on_c, 0, 45, 0
2, 17448, Control_c, 0, 64, 88
2, 17452, Note_on_c, 0, 57, 0
2, 17464, Control_c, 0, 64, 127
2, 17484, Note_on_c, 0, 69, 0
2, 17596, Note_on_c, 0, 70, 83
2, 17596, Note_on_c, 0, 58, 75
2, 17596, Note_on_c, 0, 34, 61
2, 17596, Note_on_c, 0, 46, 64
2, 17648, Note_on_c, 0, 46, 0
2, 17664, Note_on_c, 0, 34, 0
2, 17668, Note_on_c, 0, 58, 0
2, 17696, Note_on_c, 0, 70, 0
2, 17760, Control_c, 0, 64, 104
2, 17776, Note_on_c, 0, 71, 91
2, 17776, Control_c, 0, 64, 56
2, 17784, Note_on_c, 0, 59, 70
2, 17800, Note_on_c, 0, 47, 71
2, 17804, Note_on_c, 0, 35, 68
2, 17804, Control_c, 0, 64, 104
2, 17820, Control_c, 0, 64, 127
2, 17840, Note_on_c, 0, 47, 0
2, 17840, Note_on_c, 0, 59, 0
2, 17844, Note_on_c, 0, 71, 0
2, 17860, Note_on_c, 0, 35, 0
2, 17956, Note_on_c, 0, 58, 81
2, 17956, Note_on_c, 0, 70, 83
2, 17960, Note_on_c, 0, 46, 74
2, 17972, Note_on_c, 0, 34, 54
2, 17996, Note_on_c, 0, 34, 0
2, 18000, Note_on_c, 0, 58, 0
2, 18008, Note_on_c, 0, 46, 0
2, 18008, Note_on_c, 0, 70, 0
2, 18116, Control_c, 0, 64, 104
2, 18132, Control_c, 0, 64, 56
2, 18140, Note_on_c, 0, 74, 94
2, 18144, Control_c, 0, 64, 72
2, 18152, Note_on_c, 0, 62, 72
2, 18156, Note_on_c, 0, 50, 83
2, 18156, Control_c, 0, 64, 127
2, 18168, Note_on_c, 0, 38, 75
2, 18176, Note_on_c, 0, 62, 0
2, 18188, Note_on_c, 0, 50, 0
2, 18192, Note_on_c, 0, 74, 0
2, 18208, Note_on_c, 0, 38, 0
2, 18308, Note_on_c, 0, 58, 78
2, 18308, Note_on_c, 0, 34, 84
2, 18312, Note_on_c, 0, 46, 82
2, 18312, Note_on_c, 0, 70, 77
2, 18332, Note_on_c, 0, 70, 0
2, 18332, Note_on_c, 0, 58, 0
2, 18332, Note_on_c, 0, 34, 0
2, 18344, Note_on_c, 0, 46, 0
2, 18508, Note_on_c, 0, 77, 103
2, 18512, Note_on_c, 0, 65, 80
2, 18528, Note_on_c, 0, 53, 75
2, 18532, Note_on_c, 0, 41, 76
2, 18548, Note_on_c, 0, 53, 0
2, 18548, Note_on_c, 0, 65, 0
2, 18556, Note_on_c, 0, 77, 0
2, 18572, Note_on_c, 0, 41, 0
2, 18692, Note_on_c, 0, 70, 97
2, 18692, Note_on_c, 0, 58, 82
2, 18696, Note_on_c, 0, 46, 85
2, 18700, Note_on_c, 0, 34, 83
2, 18716, Note_on_c, 0, 58, 0
2, 18716, Note_on_c, 0, 70, 0
2, 18720, Note_on_c, 0, 46, 0
2, 18720, Note_on_c, 0, 34, 0
2, 18904, Note_on_c, 0, 68, 91
2, 18904, Note_on_c, 0, 80, 101
2, 18916, Control_c, 0, 64, 88
2, 18920, Note_on_c, 0, 56, 79
2, 18920, Note_on_c, 0, 44, 75
2, 18928, Control_c, 0, 64, 40
2, 18944, Control_c, 0, 64, 88
2, 18956, Note_on_c, 0, 68, 0
2, 18956, Control_c, 0, 64, 127
2, 18960, Note_on_c, 0, 80, 0
2, 18968, Note_on_c, 0, 56, 0
2, 18976, Note_on_c, 0, 44, 0
2, 19268, Note_on_c, 0, 58, 87
2, 19268, Note_on_c, 0, 70, 93
2, 19276, Note_on_c, 0, 34, 77
2, 19276, Note_on_c, 0, 46, 81
2, 19280, Control_c, 0, 64, 40
2, 19312, Note_on_c, 0, 58, 0
2, 19320, Control_c, 0, 64, 127
2, 19328, Note_on_c, 0, 70, 0
2, 19328, Note_on_c, 0, 34, 0
2, 19328, Note_on_c, 0, 46, 0
2, 19632, Control_c, 0, 64, 104
2, 19648, Note_on_c, 0, 86, 104
2, 19648, Control_c, 0, 64, 56
2, 19652, Note_on_c, 0, 74, 100
2, 19656, Note_on_c, 0, 62, 93
2, 19660, Control_c, 0, 64, 88
2, 19664, Note_on_c, 0, 50, 86
2, 19672, Control_c, 0, 64, 127
2, 19704, Note_on_c, 0, 62, 0
2, 19708, Note_on_c, 0, 74, 0
2, 19712, Note_on_c, 0, 86, 0
2, 19712, Note_on_c, 0, 50, 0
2, 20012, Control_c, 0, 64, 104
2, 20020, Note_on_c, 0, 58, 91
2, 20024, Note_on_c, 0, 70, 96
2, 20028, Note_on_c, 0, 34, 73
2, 20028, Note_on_c, 0, 46, 88
2, 20028, Control_c, 0, 64, 24
2, 20060, Note_on_c, 0, 58, 0
2, 20068, Control_c, 0, 64, 127
2, 20076, Note_on_c, 0, 46, 0
2, 20076, Note_on_c, 0, 34, 0
2, 20084, Note_on_c, 0, 70, 0
2, 20356, Note_on_c, 0, 89, 104
2, 20356, Note_on_c, 0, 77, 102
2, 20368, Note_on_c, 0, 65, 92
2, 20368, Note_on_c, 0, 53, 86
2, 20408, Note_on_c, 0, 77, 0
2, 20412, Note_on_c, 0, 89, 0
2, 20416, Note_on_c, 0, 65, 0
2, 20428, Note_on_c, 0, 53, 0
2, 20704, Note_on_c, 0, 58, 92
2, 20712, Note_on_c, 0, 70, 94
2, 20720, Note_on_c, 0, 34, 72
2, 20720, Note_on_c, 0, 46, 83
2, 20752, Note_on_c, 0, 58, 0
2, 20764, Note_on_c, 0, 46, 0
2, 20764, Note_on_c, 0, 34, 0
2, 20772, Note_on_c, 0, 70, 0
2, 21112, Note_on_c, 0, 92, 109
2, 21116, Note_on_c, 0, 80, 96
2, 21124, Note_on_c, 0, 68, 91
2, 21128, Note_on_c, 0, 56, 77
2, 21128, Note_on_c, 0, 89, 92
2, 21128, Control_c, 0, 64, 56
2, 21132, Note_on_c, 0, 65, 78
2, 21136, Note_on_c, 0, 86, 87
2, 21140, Note_on_c, 0, 62, 73
2, 21140, Control_c, 0, 64, 0
2, 21152, Control_c, 0, 64, 24
2, 21156, Note_on_c, 0, 86, 0
2, 21164, Note_on_c, 0, 62, 0
2, 21168, Control_c, 0, 64, 88
2, 21180, Control_c, 0, 64, 127
2, 21188, Note_on_c, 0, 56, 0
2, 21188, Note_on_c, 0, 68, 0
2, 21188, Note_on_c, 0, 89, 0
2, 21196, Note_on_c, 0, 80, 0
2, 21200, Note_on_c, 0, 65, 0
2, 21208, Note_on_c, 0, 92, 0
2, 21816, Note_on_c, 0, 58, 96
2, 21816, Note_on_c, 0, 34, 77
2, 21816, Note_on_c, 0, 46, 86
2, 21832, Control_c, 0, 64, 56
2, 21844, Control_c, 0, 64, 0
2, 21872, Control_c, 0, 64, 56
2, 21876, Note_on_c, 0, 46, 0
2, 21880, Note_on_c, 0, 34, 0
2, 21884, Control_c, 0, 64, 127
2, 21892, Note_on_c, 0, 58, 0
2, 22496, Control_c, 0, 64, 88
2, 22508, Control_c, 0, 64, 0
2, 22540, Note_on_c, 0, 92, 107
2, 22540, Note_on_c, 0, 68, 92
2, 22540, Note_on_c, 0, 89, 90
2, 22540, Note_on_c, 0, 56, 80
2, 22540, Note_on_c, 0, 80, 101
2, 22540, Note_on_c, 0, 65, 82
2, 22540, Note_on_c, 0, 86, 85
2, 22540, Note_on_c, 0, 62, 78
2, 22564, Note_on_c, 0, 62, 0
2, 22564, Note_on_c, 0, 86, 0
2, 22576, Control_c, 0, 64, 72
2, 22588, Note_on_c, 0, 89, 0
2, 22588, Control_c, 0, 64, 127
2, 22600, Note_on_c, 0, 68, 0
2, 22600, Note_on_c, 0, 56, 0
2, 22600, Note_on_c, 0, 65, 0
2, 22608, Note_on_c, 0, 80, 0
2, 22628, Note_on_c, 0, 92, 0
2, 23344, Note_on_c, 0, 59, 97
2, 23360, Note_on_c, 0, 47, 90
2, 23364, Note_on_c, 0, 35, 80
2, 23444, Control_c, 0, 64, 40
2, 23456, Control_c, 0, 64, 0
2, 23540, Control_c, 0, 64, 72
2, 23552, Control_c, 0, 64, 127
2, 23612, Note_on_c, 0, 47, 0
2, 23632, Note_on_c, 0, 35, 0
2, 23656, Note_on_c, 0, 59, 0
2, 24244, Control_c, 0, 64, 104
2, 24256, Control_c, 0, 64, 0
2, 24320, Note_on_c, 0, 24, 76
2, 24320, Note_on_c, 0, 36, 76
2, 24320, Note_on_c, 0, 48, 87
2, 24320, Note_on_c, 0, 60, 95
2, 24352, Control_c, 0, 64, 104
2, 24368, Control_c, 0, 64, 127
2, 24408, Note_on_c, 0, 24, 0
2, 24424, Note_on_c, 0, 48, 0
2, 24444, Note_on_c, 0, 36, 0
2, 24488, Note_on_c, 0, 60, 0
2, 24696, Note_on_c, 0, 64, 95
2, 24704, Note_on_c, 0, 52, 81
2, 24712, Note_on_c, 0, 36, 84
2, 24712, Note_on_c, 0, 40, 80
2, 24716, Note_on_c, 0, 28, 74
2, 24716, Note_on_c, 0, 60, 72
2, 24728, Control_c, 0, 64, 24
2, 24744, Control_c, 0, 64, 0
2, 24800, Note_on_c, 0, 28, 0
2, 24800, Control_c, 0, 64, 72
2, 24804, Note_on_c, 0, 60, 0
2, 24812, Note_on_c, 0, 52, 0
2, 24812, Control_c, 0, 64, 127
2, 24816, Note_on_c, 0, 36, 0
2, 24836, Note_on_c, 0, 40, 0
2, 24888, Note_on_c, 0, 64, 0
2, 25148, Note_on_c, 0, 67, 97
2, 25156, Note_on_c, 0, 55, 83
2, 25160, Note_on_c, 0, 43, 80
2, 25160, Note_on_c, 0, 36, 73
2, 25164, Note_on_c, 0, 60, 79
2, 25164, Note_on_c, 0, 31, 68
2, 25288, Control_c, 0, 64, 72
2, 25304, Control_c, 0, 64, 0
2, 25436, Control_c, 0, 64, 56
2, 25452, Control_c, 0, 64, 127
2, 25976, Note_on_c, 0, 67, 0
2, 25984, Note_on_c, 0, 55, 0
2, 25988, Note_on_c, 0, 36, 0
2, 25992, Note_on_c, 0, 43, 0
2, 25992, Note_on_c, 0, 31, 0
2, 25992, Note_on_c, 0, 60, 0
2, 26172, Note_on_c, 0, 72, 99
2, 26180, Note_on_c, 0, 60, 84
2, 26184, Control_c, 0, 64, 40
2, 26192, Note_on_c, 0, 43, 76
2, 26192, Note_on_c, 0, 67, 74
2, 26196, Note_on_c, 0, 48, 76
2, 26196, Note_on_c, 0, 36, 71
2, 26196, Control_c, 0, 64, 0
2, 26252, Control_c, 0, 64, 72
2, 26264, Note_on_c, 0, 60, 0
2, 26264, Control_c, 0, 64, 127
2, 26280, Note_on_c, 0, 43, 0
2, 26280, Note_on_c, 0, 36, 0
2, 26304, Note_on_c, 0, 72, 0
2, 26312, Note_on_c, 0, 48, 0
2, 26312, Note_on_c, 0, 67, 0
2, 26556, Note_on_c, 0, 76, 98
2, 26564, Note_on_c, 0, 40, 70
2, 26568, Note_on_c, 0, 67, 74
2, 26568, Note_on_c, 0, 64, 73
2, 26568, Note_on_c, 0, 52, 74
2, 26576, Note_on_c, 0, 43, 69
2, 26576, Control_c, 0, 64, 104
2, 26592, Control_c, 0, 64, 40
2, 26604, Control_c, 0, 64, 0
2, 26616, Control_c, 0, 64, 40
2, 26632, Control_c, 0, 64, 88
2, 26644, Control_c, 0, 64, 127
2, 26672, Note_on_c, 0, 43, 0
2, 26676, Note_on_c, 0, 40, 0
2, 26680, Note_on_c, 0, 76, 0
2, 26684, Note_on_c, 0, 52, 0
2, 26724, Note_on_c, 0, 67, 0
2, 26740, Note_on_c, 0, 64, 0
2, 26908, Note_on_c, 0, 74, 93
2, 26908, Note_on_c, 0, 50, 77
2, 26912, Note_on_c, 0, 62, 78
2, 26916, Note_on_c, 0, 38, 61
2, 26916, Note_on_c, 0, 43, 68
2, 26916, Note_on_c, 0, 67, 76
2, 26916, Control_c, 0, 64, 72
2, 26928, Control_c, 0, 64, 0
2, 26944, Control_c, 0, 64, 40
2, 26956, Control_c, 0, 64, 88
2, 26972, Control_c, 0, 64, 127
2, 26980, Note_on_c, 0, 43, 0
2, 26988, Note_on_c, 0, 50, 0
2, 27000, Note_on_c, 0, 38, 0
2, 27004, Note_on_c, 0, 62, 0
2, 27020, Note_on_c, 0, 74, 0
2, 27032, Note_on_c, 0, 67, 0
2, 27240, Note_on_c, 0, 72, 95
2, 27248, Note_on_c, 0, 60, 80
2, 27252, Note_on_c, 0, 43, 77
2, 27252, Note_on_c, 0, 36, 70
2, 27256, Note_on_c, 0, 48, 75
2, 27256, Control_c, 0, 64, 56
2, 27260, Note_on_c, 0, 67, 78
2, 27268, Control_c, 0, 64, 0
2, 27284, Control_c, 0, 64, 56
2, 27296, Control_c, 0, 64, 88
2, 27300, Note_on_c, 0, 36, 0
2, 27308, Note_on_c, 0, 43, 0
2, 27308, Note_on_c, 0, 60, 0
2, 27308, Control_c, 0, 64, 127
2, 27324, Note_on_c, 0, 67, 0
2, 27328, Note_on_c, 0, 48, 0
2, 27336, Note_on_c, 0, 72, 0
2, 27548, Note_on_c, 0, 76, 96
2, 27552, Note_on_c, 0, 64, 84
2, 27552, Control_c, 0, 64, 56
2, 27560, Note_on_c, 0, 72, 89
2, 27560, Note_on_c, 0, 48, 86
2, 27564, Note_on_c, 0, 40, 70
2, 27568, Note_on_c, 0, 52, 71
2, 27568, Control_c, 0, 64, 24
2, 27580, Control_c, 0, 64, 72
2, 27596, Control_c, 0, 64, 127
2, 27600, Note_on_c, 0, 40, 0
2, 27604, Note_on_c, 0, 64, 0
2, 27620, Note_on_c, 0, 48, 0
2, 27620, Note_on_c, 0, 72, 0
2, 27636, Note_on_c, 0, 76, 0
2, 27640, Note_on_c, 0, 52, 0
2, 27892, Control_c, 0, 64, 104
2, 27904, Note_on_c, 0, 79, 98
2, 27908, Note_on_c, 0, 67, 85
2, 27908, Control_c, 0, 64, 40
2, 27912, Note_on_c, 0, 72, 92
2, 27916, Note_on_c, 0, 48, 79
2, 27916, Note_on_c, 0, 55, 74
2, 27920, Control_c, 0, 64, 88
2, 27924, Note_on_c, 0, 43, 62
2, 27932, Control_c, 0, 64, 127
2, 27956, Note_on_c, 0, 43, 0
2, 27964, Note_on_c, 0, 67, 0
2, 27972, Note_on_c, 0, 48, 0
2, 27980, Note_on_c, 0, 72, 0
2, 27992, Note_on_c, 0, 55, 0
2, 28016, Note_on_c, 0, 79, 0
2, 28260, Note_on_c, 0, 84, 102
2, 28264, Note_on_c, 0, 72, 96
2, 28268, Note_on_c, 0, 79, 92
2, 28272, Note_on_c, 0, 60, 85
2, 28276, Note_on_c, 0, 55, 80
2, 28276, Note_on_c, 0, 48, 84
2, 28284, Control_c, 0, 64, 88
2, 28324, Control_c, 0, 64, 127
2, 28332, Note_on_c, 0, 48, 0
2, 28332, Note_on_c, 0, 72, 0
2, 28332, Note_on_c, 0, 55, 0
2, 28348, Note_on_c, 0, 60, 0
2, 28356, Note_on_c, 0, 79, 0
2, 28372, Note_on_c, 0, 84, 0
2, 28596, Note_on_c, 0, 88, 109
2, 28604, Note_on_c, 0, 79, 92
2, 28608, Note_on_c, 0, 76, 86
2, 28612, Note_on_c, 0, 64, 82
2, 28616, Note_on_c, 0, 52, 72
2, 28620, Note_on_c, 0, 55, 72
2, 28624, Control_c, 0, 64, 88
2, 28636, Control_c, 0, 64, 40
2, 28652, Control_c, 0, 64, 56
2, 28664, Control_c, 0, 64, 104
2, 28680, Control_c, 0, 64, 127
2, 28688, Note_on_c, 0, 52, 0
2, 28720, Note_on_c, 0, 64, 0
2, 28720, Note_on_c, 0, 88, 0
2, 28732, Note_on_c, 0, 55, 0
2, 28748, Note_on_c, 0, 76, 0
2, 28772, Note_on_c, 0, 79, 0
2, 28940, Note_on_c, 0, 86, 101
2, 28940, Note_on_c, 0, 62, 76
2, 28944, Note_on_c, 0, 74, 86
2, 28944, Note_on_c, 0, 55, 71
2, 28948, Note_on_c, 0, 79, 90
2, 28948, Note_on_c, 0, 50, 49
2, 28964, Control_c, 0, 64, 72
2, 28976, Control_c, 0, 64, 88
2, 28992, Control_c, 0, 64, 127
2, 29008, Note_on_c, 0, 55, 0
2, 29008, Note_on_c, 0, 62, 0
2, 29032, Note_on_c, 0, 50, 0
2, 29044, Note_on_c, 0, 86, 0
2, 29044, Note_on_c, 0, 74, 0
2, 29068, Note_on_c, 0, 79, 0
2, 29256, Note_on_c, 0, 84, 97
2, 29264, Note_on_c, 0, 72, 86
2, 29268, Note_on_c, 0, 55, 81
2, 29268, Note_on_c, 0, 60, 80
2, 29268, Note_on_c, 0, 79, 89
2, 29272, Note_on_c, 0, 48, 76
2, 29276, Control_c, 0, 64, 72
2, 29296, Note_on_c, 0, 48, 0
2, 29312, Note_on_c, 0, 72, 0
2, 29316, Note_on_c, 0, 55, 0
2, 29316, Control_c, 0, 64, 127
2, 29324, Note_on_c, 0, 79, 0
2, 29336, Note_on_c, 0, 60, 0
2, 29352, Note_on_c, 0, 84, 0
2, 29572, Note_on_c, 0, 88, 100
2, 29580, Note_on_c, 0, 84, 92
2, 29580, Note_on_c, 0, 76, 89
2, 29580, Note_on_c, 0, 60, 83
2, 29588, Note_on_c, 0, 64, 81
2, 29588, Note_on_c, 0, 52, 74
2, 29588, Control_c, 0, 64, 72
2, 29612, Control_c, 0, 64, 127
2, 29624, Note_on_c, 0, 52, 0
2, 29628, Note_on_c, 0, 76, 0
2, 29640, Note_on_c, 0, 60, 0
2, 29648, Note_on_c, 0, 84, 0
2, 29664, Note_on_c, 0, 88, 0
2, 29664, Note_on_c, 0, 64, 0
2, 29900, Note_on_c, 0, 91, 103
2, 29904, Note_on_c, 0, 79, 91
2, 29904, Note_on_c, 0, 67, 84
2, 29908, Note_on_c, 0, 84, 92
2, 29908, Note_on_c, 0, 55, 78
2, 29908, Note_on_c, 0, 60, 74
2, 29924, Control_c, 0, 64, 88
2, 29940, Control_c, 0, 64, 104
2, 29952, Note_on_c, 0, 60, 0
2, 29952, Note_on_c, 0, 79, 0
2, 29952, Note_on_c, 0, 55, 0
2, 29956, Note_on_c, 0, 84, 0
2, 29956, Control_c, 0, 64, 127
2, 29976, Note_on_c, 0, 67, 0
2, 29988, Note_on_c, 0, 91, 0
2, 30220, Note_on_c, 0, 96, 104
2, 30224, Note_on_c, 0, 84, 92
2, 30228, Note_on_c, 0, 72, 84
2, 30228, Note_on_c, 0, 60, 73
2, 30228, Note_on_c, 0, 91, 89
2, 30228, Note_on_c, 0, 67, 73
2, 30252, Control_c, 0, 64, 88
2, 30264, Control_c, 0, 64, 72
2, 30280, Control_c, 0, 64, 104
2, 30284, Note_on_c, 0, 60, 0
2, 30288, Note_on_c, 0, 84, 0
2, 30292, Control_c, 0, 64, 127
2, 30296, Note_on_c, 0, 67, 0
2, 30312, Note_on_c, 0, 72, 0
2, 30320, Note_on_c, 0, 96, 0
2, 30324, Note_on_c, 0, 91, 0
2, 30556, Note_on_c, 0, 100, 110
2, 30568, Note_on_c, 0, 76, 84
2, 30568, Note_on_c, 0, 88, 87
2, 30568, Note_on_c, 0, 91, 88
2, 30572, Note_on_c, 0, 67, 76
2, 30572, Note_on_c, 0, 64, 78
2, 30576, Control_c, 0, 64, 72
2, 30592, Control_c, 0, 64, 0
2, 30604, Control_c, 0, 64, 40
2, 30616, Control_c, 0, 64, 88
2, 30632, Control_c, 0, 64, 127
2, 30648, Note_on_c, 0, 64, 0
2, 30680, Note_on_c, 0, 76, 0
2, 30696, Note_on_c, 0, 100, 0
2, 30696, Note_on_c, 0, 67, 0
2, 30704, Note_on_c, 0, 88, 0
2, 30712, Note_on_c, 0, 91, 0
2, 30908, Note_on_c, 0, 74, 82
2, 30912, Note_on_c, 0, 98, 99
2, 30912, Note_on_c, 0, 67, 74
2, 30912, Note_on_c, 0, 86, 92
2, 30912, Note_on_c, 0, 62, 68
2, 30916, Control_c, 0, 64, 88
2, 30920, Note_on_c, 0, 91, 87
2, 30928, Control_c, 0, 64, 104
2, 30944, Control_c, 0, 64, 127
2, 30964, Note_on_c, 0, 74, 0
2, 30972, Note_on_c, 0, 67, 0
2, 30984, Note_on_c, 0, 62, 0
2, 31000, Note_on_c, 0, 98, 0
2, 31016, Note_on_c, 0, 91, 0
2, 31020, Note_on_c, 0, 86, 0
2, 31232, Note_on_c, 0, 96, 102
2, 31240, Note_on_c, 0, 84, 88
2, 31240, Note_on_c, 0, 67, 78
2, 31240, Note_on_c, 0, 72, 84
2, 31244, Note_on_c, 0, 91, 85
2, 31244, Control_c, 0, 64, 104
2, 31248, Note_on_c, 0, 60, 71
2, 31256, Control_c, 0, 64, 88
2, 31268, Control_c, 0, 64, 127
2, 31288, Note_on_c, 0, 72, 0
2, 31292, Note_on_c, 0, 67, 0
2, 31296, Note_on_c, 0, 91, 0
2, 31308, Note_on_c, 0, 60, 0
2, 31312, Note_on_c, 0, 96, 0
2, 31320, Note_on_c, 0, 84, 0
2, 31552, Note_on_c, 0, 91, 96
2, 31560, Note_on_c, 0, 67, 72
2, 31560, Note_on_c, 0, 79, 84
2, 31568, Note_on_c, 0, 84, 88
2, 31568, Note_on_c, 0, 60, 71
2, 31568, Note_on_c, 0, 55, 68
2, 31580, Control_c, 0, 64, 88
2, 31592, Control_c, 0, 64, 104
2, 31608, Note_on_c, 0, 60, 0
2, 31608, Control_c, 0, 64, 127
2, 31616, Note_on_c, 0, 67, 0
2, 31632, Note_on_c, 0, 84, 0
2, 31632, Note_on_c, 0, 55, 0
2, 31640, Note_on_c, 0, 91, 0
2, 31644, Note_on_c, 0, 79, 0
2, 31888, Note_on_c, 0, 88, 100
2, 31896, Note_on_c, 0, 79, 89
2, 31900, Note_on_c, 0, 76, 84
2, 31904, Note_on_c, 0, 64, 67
2, 31912, Note_on_c, 0, 52, 65
2, 31920, Note_on_c, 0, 55, 76
2, 31932, Control_c, 0, 64, 88
2, 31944, Control_c, 0, 64, 56
2, 31960, Control_c, 0, 64, 88
2, 31972, Control_c, 0, 64, 127
2, 32004, Note_on_c, 0, 64, 0
2, 32012, Note_on_c, 0, 55, 0
2, 32016, Note_on_c, 0, 88, 0
2, 32016, Note_on_c, 0, 52, 0
2, 32020, Note_on_c, 0, 76, 0
2, 32028, Note_on_c, 0, 79, 0
2, 32216, Note_on_c, 0, 86, 100
2, 32224, Note_on_c, 0, 62, 78
2, 32224, Note_on_c, 0, 74, 85
2, 32224, Note_on_c, 0, 79, 88
2, 32224, Note_on_c, 0, 50, 79
2, 32228, Note_on_c, 0, 55, 71
2, 32232, Control_c, 0, 64, 88
2, 32244, Control_c, 0, 64, 72
2, 32256, Control_c, 0, 64, 104
2, 32272, Control_c, 0, 64, 127
2, 32288, Note_on_c, 0, 55, 0
2, 32288, Note_on_c, 0, 62, 0
2, 32304, Note_on_c, 0, 74, 0
2, 32308, Note_on_c, 0, 50, 0
2, 32324, Note_on_c, 0, 86, 0
2, 32336, Note_on_c, 0, 79, 0
2, 32544, Note_on_c, 0, 84, 99
2, 32552, Note_on_c, 0, 72, 87
2, 32556, Note_on_c, 0, 79, 84
2, 32556, Note_on_c, 0, 60, 76
2, 32556, Note_on_c, 0, 55, 80
2, 32556, Control_c, 0, 64, 104
2, 32560, Note_on_c, 0, 48, 77
2, 32568, Control_c, 0, 64, 88
2, 32584, Control_c, 0, 64, 104
2, 32588, Note_on_c, 0, 60, 0
2, 32592, Note_on_c, 0, 55, 0
2, 32600, Control_c, 0, 64, 127
2, 32604, Note_on_c, 0, 79, 0
2, 32612, Note_on_c, 0, 72, 0
2, 32616, Note_on_c, 0, 48, 0
2, 32620, Note_on_c, 0, 84, 0
2, 32868, Note_on_c, 0, 79, 98
2, 32872, Note_on_c, 0, 55, 85
2, 32872, Note_on_c, 0, 67, 81
2, 32880, Note_on_c, 0, 72, 88
2, 32880, Note_on_c, 0, 43, 73
2, 32880, Note_on_c, 0, 48, 79
2, 32884, Control_c, 0, 64, 104
2, 32896, Control_c, 0, 64, 56
2, 32908, Note_on_c, 0, 48, 0
2, 32912, Control_c, 0, 64, 88
2, 32924, Note_on_c, 0, 55, 0
2, 32924, Control_c, 0, 64, 127
2, 32936, Note_on_c, 0, 72, 0
2, 32936, Note_on_c, 0, 43, 0
2, 32936, Note_on_c, 0, 67, 0
2, 32948, Note_on_c, 0, 79, 0
2, 33184, Note_on_c, 0, 76, 95
2, 33192, Note_on_c, 0, 64, 84
2, 33192, Note_on_c, 0, 40, 78
2, 33196, Note_on_c, 0, 67, 84
2, 33196, Note_on_c, 0, 52, 84
2, 33196, Control_c, 0, 64, 104
2, 33200, Note_on_c, 0, 43, 76
2, 33208, Control_c, 0, 64, 40
2, 33224, Control_c, 0, 64, 24
2, 33232, Control_c, 0, 64, 56
2, 33252, Note_on_c, 0, 52, 0
2, 33252, Note_on_c, 0, 64, 0
2, 33252, Control_c, 0, 64, 127
2, 33260, Note_on_c, 0, 43, 0
2, 33264, Note_on_c, 0, 40, 0
2, 33268, Note_on_c, 0, 76, 0
2, 33276, Note_on_c, 0, 67, 0
2, 33492, Control_c, 0, 64, 24
2, 33504, Note_on_c, 0, 74, 97
2, 33504, Control_c, 0, 64, 0
2, 33508, Note_on_c, 0, 62, 84
2, 33508, Note_on_c, 0, 67, 85
2, 33520, Note_on_c, 0, 50, 80
2, 33520, Note_on_c, 0, 38, 76
2, 33528, Note_on_c, 0, 43, 72
2, 33532, Control_c, 0, 64, 56
2, 33548, Control_c, 0, 64, 127
2, 33572, Note_on_c, 0, 62, 0
2, 33576, Note_on_c, 0, 50, 0
2, 33584, Note_on_c, 0, 74, 0
2, 33588, Note_on_c, 0, 38, 0
2, 33588, Note_on_c, 0, 43, 0
2, 33596, Note_on_c, 0, 67, 0
2, 33752, Control_c, 0, 64, 104
2, 33764, Control_c, 0, 64, 0
2, 33832, Note_on_c, 0, 72, 103
2, 33836, Note_on_c, 0, 60, 91
2, 33836, Note_on_c, 0, 67, 81
2, 33848, Note_on_c, 0, 43, 84
2, 33848, Note_on_c, 0, 36, 83
2, 33848, Note_on_c, 0, 48, 90
2, 33860, Control_c, 0, 64, 88
2, 33876, Control_c, 0, 64, 127
2, 33900, Note_on_c, 0, 48, 0
2, 33904, Note_on_c, 0, 60, 0
2, 33908, Note_on_c, 0, 43, 0
2, 33908, Note_on_c, 0, 36, 0
2, 33908, Note_on_c, 0, 67, 0
2, 33920, Note_on_c, 0, 72, 0
2, 34264, Control_c, 0, 64, 104
2, 34280, Control_c, 0, 64, 40
2, 34292, Control_c, 0, 64, 0
2, 34572, Note_on_c, 0, 67, 98
2, 34580, Note_on_c, 0, 55, 98
2, 34592, Note_on_c, 0, 43, 84
2, 34592, Note_on_c, 0, 31, 79
2, 34592, Control_c, 0, 64, 56
2, 34604, Control_c, 0, 64, 127
2, 34644, Note_on_c, 0, 55, 0
2, 34648, Note_on_c, 0, 31, 0
2, 34652, Note_on_c, 0, 43, 0
2, 34680, Note_on_c, 0, 67, 0
2, 35024, Control_c, 0, 64, 88
2, 35040, Control_c, 0, 64, 72
2, 35052, Control_c, 0, 64, 56
2, 35064, Control_c, 0, 64, 40
2, 35080, Control_c, 0, 64, 24
2, 35104, Control_c, 0, 64, 0
2, 35360, Note_on_c, 0, 72, 110
2, 35368, Note_on_c, 0, 60, 97
2, 35372, Note_on_c, 0, 36, 80
2, 35372, Note_on_c, 0, 48, 91
2, 35372, Note_on_c, 0, 67, 84
2, 35372, Note_on_c, 0, 64, 88
2, 35376, Note_on_c, 0, 40, 73
2, 35376, Control_c, 0, 64, 88
2, 35384, Note_on_c, 0, 43, 76
2, 35392, Control_c, 0, 64, 127
2, 35452, Note_on_c, 0, 40, 0
2, 35452, Note_on_c, 0, 48, 0
2, 35456, Note_on_c, 0, 43, 0
2, 35464, Note_on_c, 0, 36, 0
2, 36180, Note_on_c, 0, 64, 0
2, 36184, Note_on_c, 0, 72, 0
2, 36184, Note_on_c, 0, 67, 0
2, 36196, Note_on_c, 0, 60, 0
2, 36592, Note_on_c, 0, 59, 92
2, 36596, Note_on_c, 0, 47, 86
2, 36680, Note_on_c, 0, 47, 0
2, 36680, Note_on_c, 0, 59, 0
2, 36708, Control_c, 0, 64, 104
2, 36716, Note_on_c, 0, 60, 109
2, 36720, Note_on_c, 0, 48, 102
2, 36720, Control_c, 0, 64, 40
2, 36732, Control_c, 0, 64, 0
2, 36800, Note_on_c, 0, 48, 0
2, 36864, Note_on_c, 0, 60, 0
2, 37296, Note_on_c, 0, 59, 97
2, 37304, Note_on_c, 0, 47, 93
2, 37328, Control_c, 0, 64, 88
2, 37344, Control_c, 0, 64, 127
2, 37384, Note_on_c, 0, 47, 0
2, 37404, Note_on_c, 0, 59, 0
2, 37520, Control_c, 0, 64, 104
2, 37536, Control_c, 0, 64, 72
2, 37548, Control_c, 0, 64, 56
2, 37560, Control_c, 0, 64, 24
2, 37572, Control_c, 0, 64, 0
2, 37876, Note_on_c, 0, 48, 100
2, 37880, Note_on_c, 0, 60, 100
2, 37948, Note_on_c, 0, 48, 0
2, 37996, Note_on_c, 0, 60, 0
2, 38188, Note_on_c, 0, 59, 102
2, 38200, Note_on_c, 0, 47, 95
2, 38240, Control_c, 0, 64, 40
2, 38252, Control_c, 0, 64, 88
2, 38256, Note_on_c, 0, 47, 0
2, 38264, Control_c, 0, 64, 127
2, 38272, Note_on_c, 0, 59, 0
2, 38516, Note_on_c, 0, 58, 98
2, 38524, Control_c, 0, 64, 104
2, 38528, Note_on_c, 0, 70, 91
2, 38532, Note_on_c, 0, 46, 95
2, 38536, Note_on_c, 0, 61, 75
2, 38536, Note_on_c, 0, 34, 81
2, 38536, Control_c, 0, 64, 24
2, 38540, Note_on_c, 0, 37, 71
2, 38544, Note_on_c, 0, 40, 80
2, 38552, Note_on_c, 0, 64, 59
2, 38552, Note_on_c, 0, 67, 54
2, 38552, Control_c, 0, 64, 0
2, 38660, Control_c, 0, 64, 72
2, 38672, Control_c, 0, 64, 127
2, 38684, Note_on_c, 0, 34, 0
2, 38692, Note_on_c, 0, 40, 0
2, 38696, Note_on_c, 0, 46, 0
2, 38704, Note_on_c, 0, 37, 0
2, 38720, Note_on_c, 0, 67, 0
2, 38732, Note_on_c, 0, 70, 0
2, 38740, Note_on_c, 0, 64, 0
2, 38744, Note_on_c, 0, 58, 0
2, 38752, Note_on_c, 0, 61, 0
2, 39460, Control_c, 0, 64, 104
2, 39472, Control_c, 0, 64, 72
2, 39488, Control_c, 0, 64, 56
2, 39500, Control_c, 0, 64, 24
2, 39512, Control_c, 0, 64, 0
2, 39792, Note_on_c, 0, 46, 95
2, 39800, Note_on_c, 0, 58, 99
2, 39852, Control_c, 0, 64, 24
2, 39880, Note_on_c, 0, 46, 0
2, 39920, Note_on_c, 0, 58, 0
2, 39960, Control_c, 0, 64, 0
2, 40120, Note_on_c, 0, 57, 103
2, 40128, Note_on_c, 0, 45, 96
2, 40188, Note_on_c, 0, 45, 0
2, 40192, Control_c, 0, 64, 72
2, 40204, Control_c, 0, 64, 127
2, 40212, Note_on_c, 0, 57, 0
2, 40368, Control_c, 0, 64, 104
2, 40380, Control_c, 0, 64, 56
2, 40392, Control_c, 0, 64, 24
2, 40408, Control_c, 0, 64, 0
2, 40480, Note_on_c, 0, 56, 99
2, 40488, Note_on_c, 0, 68, 94
2, 40496, Note_on_c, 0, 41, 80
2, 40500, Note_on_c, 0, 44, 81
2, 40500, Note_on_c, 0, 61, 68
2, 40500, Note_on_c, 0, 32, 70
2, 40504, Note_on_c, 0, 37, 66
2, 40508, Note_on_c, 0, 65, 65
2, 40524, Note_on_c, 0, 61, 0
2, 40544, Note_on_c, 0, 65, 0
2, 40544, Control_c, 0, 64, 88
2, 40556, Control_c, 0, 64, 127
2, 40580, Note_on_c, 0, 32, 0
2, 40584, Note_on_c, 0, 37, 0
2, 40588, Note_on_c, 0, 44, 0
2, 40596, Note_on_c, 0, 41, 0
2, 40656, Note_on_c, 0, 68, 0
2, 40688, Note_on_c, 0, 56, 0
2, 41096, Control_c, 0, 64, 88
2, 41112, Control_c, 0, 64, 40
2, 41128, Control_c, 0, 64, 0
2, 41156, Note_on_c, 0, 53, 104
2, 41156, Note_on_c, 0, 41, 85
2, 41220, Control_c, 0, 64, 72
2, 41236, Control_c, 0, 64, 127
2, 41252, Note_on_c, 0, 41, 0
2, 41252, Note_on_c, 0, 53, 0
2, 41384, Control_c, 0, 64, 104
2, 41396, Control_c, 0, 64, 72
2, 41408, Control_c, 0, 64, 56
2, 41424, Control_c, 0, 64, 24
2, 41440, Control_c, 0, 64, 0
2, 41520, Note_on_c, 0, 52, 104
2, 41532, Note_on_c, 0, 40, 90
2, 41600, Control_c, 0, 64, 127
2, 41624, Note_on_c, 0, 40, 0
2, 41644, Note_on_c, 0, 52, 0
2, 41928, Note_on_c, 0, 51, 106
2, 41940, Note_on_c, 0, 63, 91
2, 41944, Note_on_c, 0, 39, 89
2, 41948, Note_on_c, 0, 56, 71
2, 41952, Note_on_c, 0, 35, 79
2, 41952, Note_on_c, 0, 59, 70
2, 41960, Note_on_c, 0, 29, 64
2, 41980, Control_c, 0, 64, 40
2, 41992, Control_c, 0, 64, 0
2, 42104, Control_c, 0, 64, 127
2, 42256, Note_on_c, 0, 59, 0
2, 42264, Note_on_c, 0, 29, 0
2, 42280, Note_on_c, 0, 39, 0
2, 42280, Note_on_c, 0, 35, 0
2, 42324, Note_on_c, 0, 51, 0
2, 42336, Note_on_c, 0, 56, 0
2, 42376, Note_on_c, 0, 63, 0
2, 42656, Control_c, 0, 64, 104
2, 42672, Control_c, 0, 64, 56
2, 42684, Control_c, 0, 64, 24
2, 42696, Note_on_c, 0, 52, 102
2, 42700, Control_c, 0, 64, 0
2, 42708, Note_on_c, 0, 40, 90
2, 42796, Note_on_c, 0, 40, 0
2, 42824, Note_on_c, 0, 52, 0
2, 43080, Note_on_c, 0, 51, 74
2, 43092, Note_on_c, 0, 39, 72
2, 43144, Note_on_c, 0, 39, 0
2, 43144, Note_on_c, 0, 51, 0
2, 43472, Note_on_c, 0, 50, 76
2, 43472, Note_on_c, 0, 62, 71
2, 43476, Note_on_c, 0, 38, 68
2, 43480, Note_on_c, 0, 56, 62
2, 43488, Note_on_c, 0, 34, 53
2, 43500, Control_c, 0, 64, 40
2, 43512, Control_c, 0, 64, 72
2, 43528, Control_c, 0, 64, 104
2, 43544, Note_on_c, 0, 62, 0
2, 43544, Control_c, 0, 64, 127
2, 43552, Note_on_c, 0, 50, 0
2, 43576, Note_on_c, 0, 56, 0
2, 43584, Note_on_c, 0, 38, 0
2, 43624, Note_on_c, 0, 34, 0
2, 43680, Control_c, 0, 64, 88
2, 43692, Note_on_c, 0, 37, 57
2, 43696, Control_c, 0, 64, 72
2, 43700, Note_on_c, 0, 49, 60
2, 43712, Control_c, 0, 64, 40
2, 43728, Control_c, 0, 64, 24
2, 43740, Control_c, 0, 64, 0
2, 43748, Note_on_c, 0, 49, 0
2, 43772, Note_on_c, 0, 37, 0
2, 43896, Note_on_c, 0, 48, 73
2, 43912, Note_on_c, 0, 36, 57
2, 43972, Note_on_c, 0, 48, 0
2, 44000, Note_on_c, 0, 36, 0
2, 44104, Note_on_c, 0, 47, 74
2, 44108, Note_on_c, 0, 59, 77
2, 44112, Note_on_c, 0, 35, 65
2, 44112, Note_on_c, 0, 53, 68
2, 44116, Note_on_c, 0, 27, 49
2, 44120, Note_on_c, 0, 56, 55
2, 44120, Control_c, 0, 64, 24
2, 44136, Control_c, 0, 64, 72
2, 44148, Control_c, 0, 64, 104
2, 44164, Control_c, 0, 64, 127
2, 44172, Note_on_c, 0, 53, 0
2, 44196, Note_on_c, 0, 59, 0
2, 44204, Note_on_c, 0, 56, 0
2, 44224, Control_c, 0, 64, 104
2, 44232, Note_on_c, 0, 35, 0
2, 44240, Control_c, 0, 64, 88
2, 44248, Note_on_c, 0, 47, 0
2, 44252, Control_c, 0, 64, 72
2, 44268, Control_c, 0, 64, 40
2, 44284, Control_c, 0, 64, 24
2, 44300, Control_c, 0, 64, 0
2, 44312, Note_on_c, 0, 48, 79
2, 44312, Note_on_c, 0, 36, 62
2, 44368, Note_on_c, 0, 48, 0
2, 44368, Note_on_c, 0, 27, 0
2, 44392, Note_on_c, 0, 36, 0
2, 44488, Note_on_c, 0, 35, 69
2, 44492, Note_on_c, 0, 47, 74
2, 44548, Note_on_c, 0, 35, 0
2, 44576, Note_on_c, 0, 47, 0
2, 44708, Note_on_c, 0, 46, 69
2, 44708, Note_on_c, 0, 34, 61
2, 44708, Note_on_c, 0, 56, 61
2, 44712, Note_on_c, 0, 58, 60
2, 44724, Control_c, 0, 64, 40
2, 44728, Note_on_c, 0, 26, 52
2, 44740, Control_c, 0, 64, 88
2, 44756, Note_on_c, 0, 46, 0
2, 44756, Control_c, 0, 64, 127
2, 44764, Note_on_c, 0, 26, 0
2, 44780, Note_on_c, 0, 34, 0
2, 44792, Note_on_c, 0, 58, 0
2, 44812, Note_on_c, 0, 56, 0
2, 44892, Note_on_c, 0, 41, 56
2, 44904, Note_on_c, 0, 53, 60
2, 44964, Control_c, 0, 64, 104
2, 44980, Control_c, 0, 64, 88
2, 44984, Note_on_c, 0, 53, 0
2, 44984, Note_on_c, 0, 41, 0
2, 44996, Control_c, 0, 64, 56
2, 45008, Control_c, 0, 64, 40
2, 45024, Control_c, 0, 64, 24
2, 45040, Control_c, 0, 64, 0
2, 45064, Note_on_c, 0, 40, 76
2, 45076, Note_on_c, 0, 52, 71
2, 45112, Note_on_c, 0, 52, 0
2, 45116, Note_on_c, 0, 40, 0
2, 45260, Note_on_c, 0, 63, 72
2, 45268, Note_on_c, 0, 51, 69
2, 45268, Note_on_c, 0, 39, 58
2, 45280, Note_on_c, 0, 56, 63
2, 45280, Control_c, 0, 64, 40
2, 45284, Note_on_c, 0, 35, 44
2, 45296, Control_c, 0, 64, 56
2, 45312, Control_c, 0, 64, 88
2, 45328, Control_c, 0, 64, 127
2, 45352, Note_on_c, 0, 39, 0
2, 45364, Note_on_c, 0, 35, 0
2, 45364, Note_on_c, 0, 51, 0
2, 45372, Note_on_c, 0, 56, 0
2, 45388, Control_c, 0, 64, 88
2, 45412, Note_on_c, 0, 63, 0
2, 45420, Control_c, 0, 64, 72
2, 45436, Control_c, 0, 64, 56
2, 45448, Control_c, 0, 64, 24
2, 45460, Note_on_c, 0, 40, 62
2, 45464, Control_c, 0, 64, 0
2, 45472, Note_on_c, 0, 52, 64
2, 45528, Note_on_c, 0, 52, 0
2, 45536, Note_on_c, 0, 40, 0
2, 45648, Note_on_c, 0, 39, 62
2, 45652, Note_on_c, 0, 51, 72
2, 45712, Note_on_c, 0, 39, 0
2, 45720, Note_on_c, 0, 51, 0
2, 45848, Note_on_c, 0, 62, 77
2, 45848, Note_on_c, 0, 50, 74
2, 45856, Note_on_c, 0, 56, 67
2, 45856, Note_on_c, 0, 38, 74
2, 45856, Note_on_c, 0, 34, 64
2, 45872, Control_c, 0, 64, 72
2, 45888, Control_c, 0, 64, 127
2, 45912, Note_on_c, 0, 50, 0
2, 45912, Note_on_c, 0, 62, 0
2, 45924, Note_on_c, 0, 38, 0
2, 45936, Note_on_c, 0, 34, 0
2, 45972, Note_on_c, 0, 56, 0
2, 46036, Note_on_c, 0, 37, 64
2, 46036, Control_c, 0, 64, 104
2, 46048, Note_on_c, 0, 49, 46
2, 46052, Control_c, 0, 64, 88
2, 46068, Control_c, 0, 64, 56
2, 46080, Control_c, 0, 64, 40
2, 46096, Note_on_c, 0, 49, 0
2, 46116, Note_on_c, 0, 37, 0
2, 46116, Control_c, 0, 64, 24
2, 46128, Control_c, 0, 64, 0
2, 46212, Note_on_c, 0, 48, 70
2, 46256, Note_on_c, 0, 36, 36
2, 46292, Note_on_c, 0, 48, 0
2, 46308, Note_on_c, 0, 36, 0
2, 46416, Note_on_c, 0, 47, 85
2, 46420, Note_on_c, 0, 35, 72
2, 46420, Note_on_c, 0, 59, 74
2, 46428, Note_on_c, 0, 27, 53
2, 46428, Note_on_c, 0, 53, 64
2, 46428, Control_c, 0, 64, 24
2, 46432, Note_on_c, 0, 56, 59
2, 46444, Control_c, 0, 64, 88
2, 46464, Control_c, 0, 64, 127
2, 46472, Note_on_c, 0, 47, 0
2, 46508, Note_on_c, 0, 27, 0
2, 46512, Note_on_c, 0, 53, 0
2, 46512, Note_on_c, 0, 35, 0
2, 46532, Note_on_c, 0, 59, 0
2, 46552, Note_on_c, 0, 56, 0
2, 46552, Control_c, 0, 64, 104
2, 46568, Control_c, 0, 64, 56
2, 46584, Control_c, 0, 64, 24
2, 46596, Control_c, 0, 64, 0
2, 46604, Note_on_c, 0, 48, 82
2, 46604, Note_on_c, 0, 36, 65
2, 46656, Note_on_c, 0, 48, 0
2, 46660, Note_on_c, 0, 36, 0
2, 46772, Note_on_c, 0, 35, 76
2, 46784, Note_on_c, 0, 47, 57
2, 46832, Note_on_c, 0, 35, 0
2, 46844, Note_on_c, 0, 47, 0
2, 46964, Note_on_c, 0, 46, 77
2, 46968, Note_on_c, 0, 58, 67
2, 46972, Note_on_c, 0, 34, 75
2, 46988, Note_on_c, 0, 26, 63
2, 46988, Note_on_c, 0, 53, 72
2, 46988, Control_c, 0, 64, 56
2, 46992, Note_on_c, 0, 56, 53
2, 47004, Control_c, 0, 64, 127
2, 47016, Note_on_c, 0, 26, 0
2, 47028, Note_on_c, 0, 53, 0
2, 47036, Note_on_c, 0, 46, 0
2, 47040, Note_on_c, 0, 34, 0
2, 47092, Note_on_c, 0, 58, 0
2, 47108, Note_on_c, 0, 56, 0
2, 47140, Control_c, 0, 64, 88
2, 47156, Control_c, 0, 64, 72
2, 47164, Note_on_c, 0, 41, 73
2, 47172, Control_c, 0, 64, 40
2, 47176, Note_on_c, 0, 53, 76
2, 47188, Control_c, 0, 64, 24
2, 47204, Control_c, 0, 64, 0
2, 47240, Note_on_c, 0, 41, 0
2, 47256, Note_on_c, 0, 53, 0
2, 47336, Note_on_c, 0, 52, 74
2, 47348, Note_on_c, 0, 40, 59
2, 47396, Note_on_c, 0, 40, 0
2, 47408, Note_on_c, 0, 52, 0
2, 47532, Note_on_c, 0, 51, 80
2, 47532, Note_on_c, 0, 63, 79
2, 47536, Note_on_c, 0, 56, 65
2, 47536, Control_c, 0, 64, 24
2, 47544, Note_on_c, 0, 39, 61
2, 47544, Note_on_c, 0, 35, 53
2, 47548, Control_c, 0, 64, 72
2, 47564, Control_c, 0, 64, 127
2, 47612, Note_on_c, 0, 35, 0
2, 47612, Note_on_c, 0, 39, 0
2, 47632, Note_on_c, 0, 51, 0
2, 47636, Note_on_c, 0, 63, 0
2, 47644, Note_on_c, 0, 56, 0
2, 47700, Control_c, 0, 64, 104
2, 47716, Control_c, 0, 64, 88
2, 47724, Note_on_c, 0, 40, 59
2, 47728, Note_on_c, 0, 52, 72
2, 47728, Control_c, 0, 64, 72
2, 47744, Control_c, 0, 64, 56
2, 47760, Control_c, 0, 64, 40
2, 47776, Control_c, 0, 64, 24
2, 47792, Note_on_c, 0, 52, 0
2, 47792, Note_on_c, 0, 40, 0
2, 47824, Control_c, 0, 64, 0
2, 47880, Note_on_c, 0, 39, 55
2, 47892, Note_on_c, 0, 51, 65
2, 47944, Note_on_c, 0, 39, 0
2, 47948, Note_on_c, 0, 51, 0
2, 48052, Note_on_c, 0, 62, 76
2, 48052, Note_on_c, 0, 38, 69
2, 48052, Note_on_c, 0, 34, 63
2, 48056, Note_on_c, 0, 50, 64
2, 48056, Note_on_c, 0, 56, 63
2, 48064, Control_c, 0, 64, 40
2, 48076, Control_c, 0, 64, 88
2, 48084, Note_on_c, 0, 38, 0
2, 48084, Control_c, 0, 64, 127
2, 48092, Note_on_c, 0, 62, 0
2, 48096, Note_on_c, 0, 34, 0
2, 48104, Note_on_c, 0, 56, 0
2, 48108, Note_on_c, 0, 50, 0
2, 48204, Control_c, 0, 64, 56
2, 48216, Control_c, 0, 64, 0
2, 48240, Note_on_c, 0, 44, 55
2, 48248, Note_on_c, 0, 39, 57
2, 48276, Control_c, 0, 64, 40
2, 48288, Control_c, 0, 64, 72
2, 48296, Note_on_c, 0, 39, 0
2, 48300, Control_c, 0, 64, 127
2, 48308, Note_on_c, 0, 44, 0
2, 48328, Note_on_c, 0, 59, 78
2, 48328, Note_on_c, 0, 47, 71
2, 48372, Note_on_c, 0, 47, 0
2, 48384, Control_c, 0, 64, 72
2, 48396, Control_c, 0, 64, 24
2, 48408, Control_c, 0, 64, 0
2, 48416, Note_on_c, 0, 59, 0
2, 48416, Note_on_c, 0, 46, 77
2, 48440, Note_on_c, 0, 38, 53
2, 48456, Control_c, 0, 64, 40
2, 48468, Control_c, 0, 64, 72
2, 48472, Note_on_c, 0, 38, 0
2, 48476, Note_on_c, 0, 46, 0
2, 48480, Control_c, 0, 64, 104
2, 48492, Control_c, 0, 64, 127
2, 48500, Note_on_c, 0, 58, 68
2, 48508, Note_on_c, 0, 53, 62
2, 48524, Control_c, 0, 64, 88
2, 48532, Note_on_c, 0, 53, 0
2, 48540, Control_c, 0, 64, 40
2, 48548, Control_c, 0, 64, 0
2, 48552, Note_on_c, 0, 58, 0
2, 48588, Note_on_c, 0, 47, 76
2, 48592, Note_on_c, 0, 42, 65
2, 48592, Control_c, 0, 64, 24
2, 48604, Control_c, 0, 64, 56
2, 48616, Control_c, 0, 64, 104
2, 48624, Control_c, 0, 64, 127
2, 48636, Note_on_c, 0, 47, 0
2, 48640, Note_on_c, 0, 42, 0
2, 48668, Note_on_c, 0, 63, 70
2, 48672, Note_on_c, 0, 51, 61
2, 48692, Control_c, 0, 64, 88
2, 48704, Control_c, 0, 64, 40
2, 48716, Control_c, 0, 64, 0
2, 48724, Note_on_c, 0, 51, 0
2, 48724, Control_c, 0, 64, 24
2, 48736, Control_c, 0, 64, 56
2, 48740, Note_on_c, 0, 50, 78
2, 48744, Note_on_c, 0, 63, 0
2, 48748, Control_c, 0, 64, 88
2, 48752, Note_on_c, 0, 41, 61
2, 48756, Control_c, 0, 64, 127
2, 48776, Note_on_c, 0, 41, 0
2, 48792, Note_on_c, 0, 50, 0
2, 48820, Note_on_c, 0, 56, 59
2, 48828, Note_on_c, 0, 62, 69
2, 48848, Note_on_c, 0, 56, 0
2, 48856, Control_c, 0, 64, 72
2, 48868, Control_c, 0, 64, 24
2, 48872, Note_on_c, 0, 62, 0
2, 48876, Control_c, 0, 64, 0
2, 48888, Control_c, 0, 64, 24
2, 48896, Note_on_c, 0, 46, 67
2, 48900, Note_on_c, 0, 51, 54
2, 48900, Control_c, 0, 64, 56
2, 48912, Control_c, 0, 64, 104
2, 48924, Control_c, 0, 64, 127
2, 48932, Note_on_c, 0, 51, 0
2, 48956, Note_on_c, 0, 46, 0
2, 48976, Note_on_c, 0, 66, 78
2, 48976, Note_on_c, 0, 54, 60
2, 49008, Control_c, 0, 64, 88
2, 49012, Note_on_c, 0, 54, 0
2, 49020, Control_c, 0, 64, 24
2, 49032, Control_c, 0, 64, 0
2, 49036, Note_on_c, 0, 66, 0
2, 49048, Note_on_c, 0, 44, 63
2, 49052, Note_on_c, 0, 53, 76
2, 49064, Control_c, 0, 64, 40
2, 49072, Note_on_c, 0, 44, 0
2, 49076, Control_c, 0, 64, 88
2, 49088, Control_c, 0, 64, 127
2, 49092, Note_on_c, 0, 53, 0
2, 49124, Note_on_c, 0, 59, 59
2, 49124, Note_on_c, 0, 65, 70
2, 49144, Note_on_c, 0, 59, 0
2, 49164, Control_c, 0, 64, 72
2, 49168, Note_on_c, 0, 65, 0
2, 49176, Control_c, 0, 64, 24
2, 49188, Control_c, 0, 64, 0
2, 49196, Note_on_c, 0, 56, 75
2, 49196, Control_c, 0, 64, 24
2, 49200, Note_on_c, 0, 51, 69
2, 49208, Control_c, 0, 64, 56
2, 49220, Control_c, 0, 64, 104
2, 49228, Control_c, 0, 64, 127
2, 49236, Note_on_c, 0, 51, 0
2, 49248, Note_on_c, 0, 56, 0
2, 49284, Note_on_c, 0, 71, 82
2, 49284, Note_on_c, 0, 59, 68
2, 49328, Control_c, 0, 64, 88
2, 49332, Note_on_c, 0, 59, 0
2, 49340, Control_c, 0, 64, 40
2, 49348, Note_on_c, 0, 58, 71
2, 49348, Control_c, 0, 64, 24
2, 49352, Note_on_c, 0, 50, 75
2, 49360, Control_c, 0, 64, 40
2, 49368, Note_on_c, 0, 71, 0
2, 49372, Control_c, 0, 64, 56
2, 49384, Control_c, 0, 64, 104
2, 49392, Control_c, 0, 64, 127
2, 49408, Note_on_c, 0, 50, 0
2, 49424, Note_on_c, 0, 58, 0
2, 49436, Note_on_c, 0, 70, 67
2, 49440, Note_on_c, 0, 65, 56
2, 49464, Note_on_c, 0, 65, 0
2, 49484, Note_on_c, 0, 70, 0
2, 49492, Control_c, 0, 64, 56
2, 49504, Control_c, 0, 64, 0
2, 49516, Note_on_c, 0, 59, 69
2, 49516, Note_on_c, 0, 54, 62
2, 49536, Control_c, 0, 64, 40
2, 49540, Note_on_c, 0, 54, 0
2, 49544, Control_c, 0, 64, 88
2, 49548, Note_on_c, 0, 59, 0
2, 49560, Control_c, 0, 64, 127
2, 49588, Note_on_c, 0, 63, 65
2, 49588, Note_on_c, 0, 75, 77
2, 49636, Control_c, 0, 64, 72
2, 49640, Note_on_c, 0, 63, 0
2, 49644, Control_c, 0, 64, 24
2, 49656, Note_on_c, 0, 75, 0
2, 49656, Control_c, 0, 64, 0
2, 49660, Note_on_c, 0, 62, 68
2, 49660, Note_on_c, 0, 53, 72
2, 49668, Control_c, 0, 64, 24
2, 49680, Control_c, 0, 64, 56
2, 49684, Note_on_c, 0, 53, 0
2, 49692, Control_c, 0, 64, 88
2, 49704, Control_c, 0, 64, 127
2, 49712, Note_on_c, 0, 62, 0
2, 49744, Note_on_c, 0, 74, 72
2, 49744, Note_on_c, 0, 68, 61
2, 49776, Note_on_c, 0, 68, 0
2, 49788, Control_c, 0, 64, 88
2, 49800, Note_on_c, 0, 74, 0
2, 49800, Control_c, 0, 64, 40
2, 49812, Note_on_c, 0, 63, 68
2, 49812, Note_on_c, 0, 58, 61
2, 49812, Control_c, 0, 64, 24
2, 49820, Control_c, 0, 64, 40
2, 49832, Control_c, 0, 64, 72
2, 49844, Control_c, 0, 64, 127
2, 49876, Note_on_c, 0, 58, 0
2, 49876, Note_on_c, 0, 63, 0
2, 49884, Note_on_c, 0, 78, 88
2, 49888, Note_on_c, 0, 66, 67
2, 49932, Note_on_c, 0, 66, 0
2, 49944, Control_c, 0, 64, 72
2, 49956, Note_on_c, 0, 78, 0
2, 49956, Control_c, 0, 64, 24
2, 49964, Note_on_c, 0, 56, 66
2, 49964, Control_c, 0, 64, 0
2, 49968, Note_on_c, 0, 65, 72
2, 49976, Control_c, 0, 64, 40
2, 49988, Note_on_c, 0, 56, 0
2, 49988, Control_c, 0, 64, 72
2, 50000, Control_c, 0, 64, 127
2, 50012, Note_on_c, 0, 65, 0
2, 50048, Note_on_c, 0, 77, 78
2, 50052, Note_on_c, 0, 71, 57
2, 50072, Note_on_c, 0, 71, 0
2, 50100, Note_on_c, 0, 77, 0
2, 50108, Note_on_c, 0, 68, 66
2, 50108, Control_c, 0, 64, 88
2, 50112, Note_on_c, 0, 63, 64
2, 50116, Control_c, 0, 64, 40
2, 50152, Control_c, 0, 64, 104
2, 50160, Control_c, 0, 64, 127
2, 50164, Note_on_c, 0, 63, 0
2, 50172, Note_on_c, 0, 68, 0
2, 50196, Note_on_c, 0, 71, 74
2, 50200, Note_on_c, 0, 83, 74
2, 50228, Note_on_c, 0, 71, 0
2, 50252, Note_on_c, 0, 83, 0
2, 50260, Control_c, 0, 64, 104
2, 50264, Note_on_c, 0, 70, 68
2, 50272, Note_on_c, 0, 62, 71
2, 50272, Control_c, 0, 64, 40
2, 50304, Control_c, 0, 64, 104
2, 50316, Note_on_c, 0, 62, 0
2, 50316, Control_c, 0, 64, 127
2, 50320, Note_on_c, 0, 70, 0
2, 50348, Note_on_c, 0, 82, 79
2, 50412, Note_on_c, 0, 82, 0
2, 50412, Note_on_c, 0, 71, 78
2, 50420, Note_on_c, 0, 66, 65
2, 50424, Control_c, 0, 64, 104
2, 50436, Control_c, 0, 64, 56
2, 50460, Note_on_c, 0, 66, 0
2, 50464, Note_on_c, 0, 71, 0
2, 50472, Control_c, 0, 64, 127
2, 50492, Note_on_c, 0, 87, 89
2, 50496, Note_on_c, 0, 75, 77
2, 50536, Note_on_c, 0, 75, 0
2, 50568, Note_on_c, 0, 74, 73
2, 50568, Control_c, 0, 64, 88
2, 50572, Note_on_c, 0, 87, 0
2, 50572, Note_on_c, 0, 65, 56
2, 50580, Control_c, 0, 64, 56
2, 50592, Note_on_c, 0, 65, 0
2, 50592, Control_c, 0, 64, 72
2, 50600, Control_c, 0, 64, 104
2, 50612, Control_c, 0, 64, 127
2, 50620, Note_on_c, 0, 74, 0
2, 50644, Note_on_c, 0, 80, 75
2, 50644, Note_on_c, 0, 86, 82
2, 50680, Note_on_c, 0, 80, 0
2, 50700, Control_c, 0, 64, 104
2, 50704, Note_on_c, 0, 86, 0
2, 50708, Note_on_c, 0, 75, 73
2, 50712, Note_on_c, 0, 70, 66
2, 50712, Control_c, 0, 64, 72
2, 50732, Control_c, 0, 64, 104
2, 50744, Control_c, 0, 64, 127
2, 50752, Note_on_c, 0, 75, 0
2, 50776, Note_on_c, 0, 70, 0
2, 50788, Note_on_c, 0, 90, 89
2, 50792, Note_on_c, 0, 78, 78
2, 50836, Note_on_c, 0, 78, 0
2, 50852, Control_c, 0, 64, 56
2, 50856, Note_on_c, 0, 90, 0
2, 50864, Note_on_c, 0, 77, 84
2, 50864, Control_c, 0, 64, 40
2, 50868, Note_on_c, 0, 68, 61
2, 50876, Control_c, 0, 64, 56
2, 50888, Note_on_c, 0, 68, 0
2, 50888, Control_c, 0, 64, 88
2, 50896, Control_c, 0, 64, 127
2, 50912, Note_on_c, 0, 77, 0
2, 50944, Note_on_c, 0, 89, 84
2, 50948, Note_on_c, 0, 83, 59
2, 50972, Note_on_c, 0, 83, 0
2, 50996, Note_on_c, 0, 89, 0
2, 51008, Note_on_c, 0, 80, 79
2, 51008, Note_on_c, 0, 75, 74
2, 51008, Control_c, 0, 64, 72
2, 51020, Control_c, 0, 64, 56
2, 51028, Control_c, 0, 64, 88
2, 51040, Control_c, 0, 64, 127
2, 51072, Note_on_c, 0, 75, 0
2, 51084, Note_on_c, 0, 80, 0
2, 51084, Note_on_c, 0, 83, 82
2, 51084, Note_on_c, 0, 95, 94
2, 51128, Note_on_c, 0, 83, 0
2, 51160, Note_on_c, 0, 95, 0
2, 51164, Note_on_c, 0, 82, 77
2, 51168, Note_on_c, 0, 74, 76
2, 51196, Control_c, 0, 64, 88
2, 51208, Control_c, 0, 64, 127
2, 51212, Note_on_c, 0, 74, 0
2, 51220, Note_on_c, 0, 82, 0
2, 51240, Note_on_c, 0, 94, 80
2, 51304, Note_on_c, 0, 94, 0
2, 51316, Note_on_c, 0, 78, 77
2, 51320, Note_on_c, 0, 83, 75
2, 51324, Control_c, 0, 64, 88
2, 51348, Control_c, 0, 64, 127
2, 51368, Note_on_c, 0, 83, 0
2, 51368, Note_on_c, 0, 78, 0
2, 51376, Note_on_c, 0, 87, 81
2, 51380, Note_on_c, 0, 99, 90
2, 51432, Note_on_c, 0, 87, 0
2, 51448, Note_on_c, 0, 99, 0
2, 51464, Note_on_c, 0, 83, 84
2, 51468, Note_on_c, 0, 77, 84
2, 51492, Control_c, 0, 64, 104
2, 51512, Control_c, 0, 64, 127
2, 51520, Note_on_c, 0, 77, 0
2, 51520, Note_on_c, 0, 83, 0
2, 51532, Note_on_c, 0, 98, 82
2, 51540, Note_on_c, 0, 92, 81
2, 51584, Note_on_c, 0, 98, 0
2, 51600, Note_on_c, 0, 92, 0
2, 51612, Note_on_c, 0, 78, 72
2, 51612, Note_on_c, 0, 83, 82
2, 51668, Note_on_c, 0, 83, 0
2, 51668, Note_on_c, 0, 78, 0
2, 51676, Note_on_c, 0, 99, 90
2, 51684, Note_on_c, 0, 87, 79
2, 51740, Note_on_c, 0, 87, 0
2, 51756, Note_on_c, 0, 99, 0
2, 51768, Note_on_c, 0, 77, 80
2, 51772, Note_on_c, 0, 83, 80
2, 51820, Note_on_c, 0, 77, 0
2, 51824, Note_on_c, 0, 83, 0
2, 51832, Note_on_c, 0, 98, 88
2, 51840, Note_on_c, 0, 86, 72
2, 51848, Note_on_c, 0, 92, 71
2, 51876, Note_on_c, 0, 86, 0
2, 51888, Note_on_c, 0, 98, 0
2, 51908, Note_on_c, 0, 92, 0
2, 51924, Note_on_c, 0, 83, 79
2, 51924, Note_on_c, 0, 78, 70
2, 51976, Note_on_c, 0, 78, 0
2, 51976, Note_on_c, 0, 83, 0
2, 51992, Note_on_c, 0, 99, 92
2, 51996, Note_on_c, 0, 92, 75
2, 51996, Note_on_c, 0, 87, 72
2, 52052, Note_on_c, 0, 87, 0
2, 52060, Note_on_c, 0, 92, 0
2, 52064, Note_on_c, 0, 99, 0
2, 52072, Note_on_c, 0, 77, 83
2, 52072, Note_on_c, 0, 83, 79
2, 52112, Note_on_c, 0, 83, 0
2, 52120, Note_on_c, 0, 77, 0
2, 52136, Note_on_c, 0, 98, 88
2, 52148, Note_on_c, 0, 86, 69
2, 52148, Note_on_c, 0, 92, 72
2, 52180, Note_on_c, 0, 86, 0
2, 52188, Note_on_c, 0, 98, 0
2, 52212, Note_on_c, 0, 92, 0
2, 52224, Note_on_c, 0, 83, 80
2, 52224, Note_on_c, 0, 78, 70
2, 52272, Note_on_c, 0, 78, 0
2, 52272, Note_on_c, 0, 83, 0
2, 52284, Note_on_c, 0, 99, 87
2, 52292, Note_on_c, 0, 87, 74
2, 52296, Note_on_c, 0, 92, 72
2, 52348, Note_on_c, 0, 87, 0
2, 52356, Note_on_c, 0, 99, 0
2, 52360, Note_on_c, 0, 77, 80
2, 52360, Note_on_c, 0, 83, 76
2, 52364, Note_on_c, 0, 92, 0
2, 52392, Note_on_c, 0, 83, 0
2, 52404, Note_on_c, 0, 77, 0
2, 52432, Note_on_c, 0, 98, 94
2, 52436, Note_on_c, 0, 86, 81
2, 52472, Note_on_c, 0, 86, 0
2, 52488, Note_on_c, 0, 98, 0
2, 52500, Note_on_c, 0, 85, 75
2, 52500, Control_c, 0, 64, 104
2, 52508, Note_on_c, 0, 79, 72
2, 52512, Control_c, 0, 64, 40
2, 52524, Control_c, 0, 64, 0
2, 52532, Note_on_c, 0, 79, 0
2, 52556, Control_c, 0, 64, 88
2, 52568, Control_c, 0, 64, 127
2, 52572, Note_on_c, 0, 85, 0
2, 52576, Note_on_c, 0, 100, 92
2, 52580, Note_on_c, 0, 88, 79
2, 52584, Note_on_c, 0, 94, 72
2, 52624, Note_on_c, 0, 88, 0
2, 52640, Note_on_c, 0, 100, 0
2, 52652, Note_on_c, 0, 80, 74
2, 52656, Note_on_c, 0, 94, 0
2, 52656, Note_on_c, 0, 86, 78
2, 52696, Note_on_c, 0, 86, 0
2, 52704, Note_on_c, 0, 80, 0
2, 52724, Note_on_c, 0, 101, 88
2, 52724, Note_on_c, 0, 94, 69
2, 52728, Note_on_c, 0, 89, 73
2, 52772, Note_on_c, 0, 89, 0
2, 52776, Note_on_c, 0, 101, 0
2, 52796, Note_on_c, 0, 94, 0
2, 52804, Note_on_c, 0, 85, 79
2, 52812, Note_on_c, 0, 79, 77
2, 52856, Note_on_c, 0, 79, 0
2, 52860, Note_on_c, 0, 85, 0
2, 52868, Note_on_c, 0, 100, 95
2, 52872, Note_on_c, 0, 94, 75
2, 52872, Note_on_c, 0, 88, 79
2, 52904, Note_on_c, 0, 88, 0
2, 52924, Note_on_c, 0, 100, 0
2, 52936, Note_on_c, 0, 94, 0
2, 52952, Note_on_c, 0, 80, 79
2, 52956, Note_on_c, 0, 86, 83
2, 53004, Note_on_c, 0, 86, 0
2, 53004, Note_on_c, 0, 80, 0
2, 53012, Note_on_c, 0, 94, 77
2, 53012, Note_on_c, 0, 89, 82
2, 53012, Note_on_c, 0, 101, 91
2, 53072, Note_on_c, 0, 101, 0
2, 53072, Note_on_c, 0, 89, 0
2, 53084, Note_on_c, 0, 94, 0
2, 53096, Note_on_c, 0, 85, 83
2, 53104, Note_on_c, 0, 79, 78
2, 53136, Note_on_c, 0, 79, 0
2, 53156, Note_on_c, 0, 85, 0
2, 53164, Note_on_c, 0, 100, 96
2, 53164, Note_on_c, 0, 88, 87
2, 53164, Note_on_c, 0, 94, 80
2, 53208, Note_on_c, 0, 88, 0
2, 53228, Note_on_c, 0, 100, 0
2, 53232, Note_on_c, 0, 94, 0
2, 53244, Note_on_c, 0, 80, 81
2, 53248, Note_on_c, 0, 86, 85
2, 53292, Note_on_c, 0, 86, 0
2, 53296, Note_on_c, 0, 80, 0
2, 53308, Note_on_c, 0, 89, 89
2, 53308, Note_on_c, 0, 101, 95
2, 53312, Note_on_c, 0, 94, 79
2, 53364, Note_on_c, 0, 89, 0
2, 53368, Note_on_c, 0, 101, 0
2, 53376, Note_on_c, 0, 94, 0
2, 53388, Note_on_c, 0, 85, 83
2, 53392, Note_on_c, 0, 79, 78
2, 53456, Note_on_c, 0, 79, 0
2, 53456, Note_on_c, 0, 85, 0
2, 53456, Note_on_c, 0, 100, 96
2, 53460, Note_on_c, 0, 88, 85
2, 53460, Note_on_c, 0, 94, 81
2, 53504, Note_on_c, 0, 88, 0
2, 53516, Note_on_c, 0, 94, 0
2, 53520, Note_on_c, 0, 100, 0
2, 53536, Note_on_c, 0, 80, 81
2, 53540, Note_on_c, 0, 86, 87
2, 53588, Note_on_c, 0, 80, 0
2, 53592, Note_on_c, 0, 86, 0
2, 53604, Note_on_c, 0, 89, 95
2, 53604, Note_on_c, 0, 101, 98
2, 53616, Note_on_c, 0, 94, 55
2, 53636, Note_on_c, 0, 94, 0
2, 53644, Note_on_c, 0, 89, 0
2, 53672, Note_on_c, 0, 101, 0
2, 53676, Note_on_c, 0, 88, 93
2, 53680, Note_on_c, 0, 82, 83
2, 53700, Control_c, 0, 64, 88
2, 53708, Control_c, 0, 64, 56
2, 53724, Note_on_c, 0, 88, 0
2, 53728, Control_c, 0, 64, 104
2, 53736, Note_on_c, 0, 82, 0
2, 53740, Control_c, 0, 64, 127
2, 53752, Note_on_c, 0, 103, 99
2, 53756, Note_on_c, 0, 91, 90
2, 53760, Note_on_c, 0, 97, 68
2, 53784, Note_on_c, 0, 97, 0
2, 53792, Note_on_c, 0, 91, 0
2, 53792, Note_on_c, 0, 103, 0
2, 53828, Note_on_c, 0, 89, 93
2, 53832, Note_on_c, 0, 82, 79
2, 53884, Note_on_c, 0, 89, 0
2, 53888, Note_on_c, 0, 82, 0
2, 53888, Note_on_c, 0, 92, 86
2, 53888, Note_on_c, 0, 104, 91
2, 53900, Note_on_c, 0, 97, 66
2, 53948, Note_on_c, 0, 97, 0
2, 53952, Note_on_c, 0, 92, 0
2, 53956, Note_on_c, 0, 104, 0
2, 53980, Note_on_c, 0, 88, 98
2, 53988, Note_on_c, 0, 82, 69
2, 54028, Note_on_c, 0, 103, 94
2, 54032, Note_on_c, 0, 91, 79
2, 54048, Note_on_c, 0, 82, 0
2, 54052, Note_on_c, 0, 97, 52
2, 54060, Note_on_c, 0, 88, 0
2, 54072, Note_on_c, 0, 97, 0
2, 54080, Note_on_c, 0, 91, 0
2, 54084, Note_on_c, 0, 103, 0
2, 54120, Note_on_c, 0, 89, 102
2, 54120, Note_on_c, 0, 82, 79
2, 54128, Control_c, 0, 64, 40
2, 54136, Control_c, 0, 64, 0
2, 54160, Note_on_c, 0, 104, 102
2, 54164, Note_on_c, 0, 98, 97
2, 54164, Note_on_c, 0, 92, 95
2, 54168, Note_on_c, 0, 89, 0
2, 54172, Control_c, 0, 64, 56
2, 54176, Note_on_c, 0, 82, 0
2, 54180, Control_c, 0, 64, 127
2, 54204, Note_on_c, 0, 98, 0
2, 54204, Note_on_c, 0, 92, 0
2, 54208, Note_on_c, 0, 104, 0
2, 54508, Note_on_c, 0, 34, 101
2, 54512, Note_on_c, 0, 46, 90
2, 54544, Control_c, 0, 64, 56
2, 54552, Control_c, 0, 64, 40
2, 54564, Control_c, 0, 64, 88
2, 54568, Note_on_c, 0, 34, 0
2, 54576, Note_on_c, 0, 36, 78
2, 54576, Control_c, 0, 64, 127
2, 54588, Note_on_c, 0, 46, 0
2, 54596, Note_on_c, 0, 48, 72
2, 54624, Note_on_c, 0, 36, 0
2, 54644, Note_on_c, 0, 34, 49
2, 54648, Note_on_c, 0, 48, 0
2, 54660, Note_on_c, 0, 46, 57
2, 54676, Note_on_c, 0, 34, 0
2, 54692, Note_on_c, 0, 36, 56
2, 54704, Note_on_c, 0, 46, 0
2, 54704, Note_on_c, 0, 48, 55
2, 54720, Note_on_c, 0, 36, 0
2, 54748, Note_on_c, 0, 48, 0
2, 54748, Note_on_c, 0, 34, 55
2, 54768, Note_on_c, 0, 34, 0
2, 54772, Note_on_c, 0, 46, 38
2, 54796, Note_on_c, 0, 46, 0
2, 54800, Note_on_c, 0, 36, 56
2, 54804, Note_on_c, 0, 48, 56
2, 54824, Note_on_c, 0, 36, 0
2, 54828, Note_on_c, 0, 34, 70
2, 54844, Note_on_c, 0, 48, 0
2, 54844, Note_on_c, 0, 46, 53
2, 54876, Note_on_c, 0, 36, 62
2, 54880, Note_on_c, 0, 34, 0
2, 54892, Note_on_c, 0, 46, 0
2, 54896, Note_on_c, 0, 48, 71
2, 54916, Note_on_c, 0, 34, 54
2, 54924, Note_on_c, 0, 36, 0
2, 54944, Note_on_c, 0, 48, 0
2, 54944, Note_on_c, 0, 46, 57
2, 54968, Note_on_c, 0, 34, 0
2, 54972, Note_on_c, 0, 36, 54
2, 54984, Note_on_c, 0, 46, 0
2, 54992, Note_on_c, 0, 48, 54
2, 55012, Note_on_c, 0, 36, 0
2, 55016, Note_on_c, 0, 34, 43
2, 55028, Note_on_c, 0, 48, 0
2, 55048, Note_on_c, 0, 46, 48
2, 55064, Note_on_c, 0, 34, 0
2, 55076, Note_on_c, 0, 46, 0
2, 55080, Note_on_c, 0, 36, 48
2, 55092, Note_on_c, 0, 48, 43
2, 55112, Note_on_c, 0, 36, 0
2, 55124, Note_on_c, 0, 34, 52
2, 55128, Note_on_c, 0, 48, 0
2, 55144, Note_on_c, 0, 46, 52
2, 55164, Note_on_c, 0, 34, 0
2, 55172, Note_on_c, 0, 46, 0
2, 55176, Note_on_c, 0, 36, 54
2, 55180, Note_on_c, 0, 48, 55
2, 55212, Note_on_c, 0, 36, 0
2, 55212, Note_on_c, 0, 34, 54
2, 55224, Note_on_c, 0, 48, 0
2, 55228, Note_on_c, 0, 46, 58
2, 55264, Note_on_c, 0, 34, 0
2, 55268, Note_on_c, 0, 46, 0
2, 55268, Note_on_c, 0, 36, 47
2, 55280, Note_on_c, 0, 48, 55
2, 55304, Note_on_c, 0, 34, 47
2, 55308, Note_on_c, 0, 36, 0
2, 55320, Note_on_c, 0, 48, 0
2, 55332, Note_on_c, 0, 46, 57
2, 55360, Note_on_c, 0, 34, 0
2, 55372, Note_on_c, 0, 46, 0
2, 55372, Note_on_c, 0, 36, 47
2, 55380, Note_on_c, 0, 48, 61
2, 55408, Note_on_c, 0, 36, 0
2, 55416, Note_on_c, 0, 48, 0
2, 55416, Note_on_c, 0, 34, 65
2, 55432, Note_on_c, 0, 46, 56
2, 55464, Note_on_c, 0, 34, 0
2, 55468, Note_on_c, 0, 46, 0
2, 55472, Note_on_c, 0, 48, 63
2, 55480, Note_on_c, 0, 36, 59
2, 55508, Note_on_c, 0, 36, 0
2, 55516, Note_on_c, 0, 48, 0
2, 55516, Note_on_c, 0, 34, 66
2, 55520, Note_on_c, 0, 46, 66
2, 55560, Note_on_c, 0, 46, 0
2, 55560, Note_on_c, 0, 34, 0
2, 55564, Note_on_c, 0, 48, 67
2, 55568, Note_on_c, 0, 36, 68
2, 55612, Note_on_c, 0, 36, 0
2, 55616, Note_on_c, 0, 48, 0
2, 55616, Note_on_c, 0, 34, 66
2, 55620, Note_on_c, 0, 46, 69
2, 55652, Note_on_c, 0, 46, 0
2, 55652, Note_on_c, 0, 34, 0
2, 55660, Note_on_c, 0, 48, 76
2, 55660, Note_on_c, 0, 36, 65
2, 55704, Note_on_c, 0, 36, 0
2, 55708, Note_on_c, 0, 48, 0
2, 55708, Note_on_c, 0, 46, 65
2, 55708, Note_on_c, 0, 34, 66
2, 55748, Note_on_c, 0, 46, 0
2, 55752, Note_on_c, 0, 34, 0
2, 55752, Note_on_c, 0, 48, 74
2, 55756, Note_on_c, 0, 36, 65
2, 55788, Note_on_c, 0, 48, 0
2, 55796, Note_on_c, 0, 36, 0
2, 55804, Note_on_c, 0, 34, 58
2, 55808, Note_on_c, 0, 46, 64
2, 55836, Note_on_c, 0, 46, 0
2, 55840, Note_on_c, 0, 48, 70
2, 55848, Note_on_c, 0, 34, 0
2, 55852, Note_on_c, 0, 36, 66
2, 55876, Note_on_c, 0, 48, 0
2, 55888, Note_on_c, 0, 36, 0
2, 55896, Note_on_c, 0, 46, 68
2, 55912, Note_on_c, 0, 34, 52
2, 55936, Note_on_c, 0, 34, 0
2, 55936, Note_on_c, 0, 46, 0
2, 55952, Note_on_c, 0, 36, 73
2, 55956, Note_on_c, 0, 48, 68
2, 55984, Note_on_c, 0, 36, 0
2, 56008, Note_on_c, 0, 48, 0
2, 56012, Note_on_c, 0, 34, 57
2, 56060, Note_on_c, 0, 34, 0
2, 56064, Note_on_c, 0, 46, 23
2, 56100, Note_on_c, 0, 46, 0
2, 56112, Note_on_c, 0, 33, 56
2, 56116, Note_on_c, 0, 45, 69
2, 56156, Note_on_c, 0, 45, 0
2, 56168, Note_on_c, 0, 46, 73
2, 56180, Note_on_c, 0, 33, 0
2, 56180, Note_on_c, 0, 34, 72
2, 56208, Note_on_c, 0, 46, 0
2, 56244, Note_on_c, 0, 34, 0
2, 56248, Note_on_c, 0, 36, 70
2, 56248, Note_on_c, 0, 48, 45
2, 56268, Note_on_c, 0, 36, 0
2, 56276, Note_on_c, 0, 48, 0
2, 56292, Note_on_c, 0, 38, 55
2, 56296, Note_on_c, 0, 50, 73
2, 56320, Note_on_c, 0, 38, 0
2, 56344, Note_on_c, 0, 50, 0
2, 56356, Note_on_c, 0, 51, 72
2, 56356, Note_on_c, 0, 39, 59
2, 56384, Note_on_c, 0, 51, 0
2, 56408, Note_on_c, 0, 53, 57
2, 56416, Note_on_c, 0, 39, 0
2, 56420, Note_on_c, 0, 41, 69
2, 56452, Note_on_c, 0, 53, 0
2, 56460, Note_on_c, 0, 41, 0
2, 56472, Note_on_c, 0, 55, 69
2, 56476, Note_on_c, 0, 43, 66
2, 56508, Control_c, 0, 64, 88
2, 56520, Control_c, 0, 64, 40
2, 56524, Note_on_c, 0, 43, 0
2, 56524, Note_on_c, 0, 56, 69
2, 56540, Note_on_c, 0, 55, 0
2, 56548, Note_on_c, 0, 44, 57
2, 56552, Control_c, 0, 64, 88
2, 56564, Control_c, 0, 64, 127
2, 56588, Note_on_c, 0, 58, 63
2, 56600, Note_on_c, 0, 44, 0
2, 56600, Note_on_c, 0, 56, 0
2, 56604, Note_on_c, 0, 58, 0
2, 56612, Note_on_c, 0, 46, 61
2, 56644, Note_on_c, 0, 46, 0
2, 56648, Note_on_c, 0, 60, 77
2, 56660, Note_on_c, 0, 48, 76
2, 56688, Note_on_c, 0, 60, 0
2, 56708, Note_on_c, 0, 48, 0
2, 56708, Note_on_c, 0, 62, 76
2, 56716, Control_c, 0, 64, 56
2, 56728, Control_c, 0, 64, 0
2, 56736, Note_on_c, 0, 50, 61
2, 56760, Control_c, 0, 64, 40
2, 56768, Note_on_c, 0, 62, 0
2, 56768, Note_on_c, 0, 63, 77
2, 56772, Control_c, 0, 64, 72
2, 56776, Note_on_c, 0, 50, 0
2, 56784, Control_c, 0, 64, 104
2, 56792, Control_c, 0, 64, 127
2, 56796, Note_on_c, 0, 51, 67
2, 56808, Note_on_c, 0, 63, 0
2, 56816, Note_on_c, 0, 51, 0
2, 56832, Note_on_c, 0, 65, 69
2, 56860, Note_on_c, 0, 53, 72
2, 56876, Note_on_c, 0, 65, 0
2, 56884, Note_on_c, 0, 53, 0
2, 56896, Note_on_c, 0, 67, 80
2, 56904, Control_c, 0, 64, 88
2, 56912, Note_on_c, 0, 55, 60
2, 56916, Control_c, 0, 64, 56
2, 56948, Control_c, 0, 64, 88
2, 56956, Note_on_c, 0, 68, 73
2, 56960, Control_c, 0, 64, 127
2, 56964, Note_on_c, 0, 55, 0
2, 56972, Note_on_c, 0, 67, 0
2, 56972, Note_on_c, 0, 56, 67
2, 57012, Note_on_c, 0, 70, 55
2, 57020, Note_on_c, 0, 68, 0
2, 57024, Note_on_c, 0, 56, 0
2, 57032, Note_on_c, 0, 70, 0
2, 57036, Note_on_c, 0, 58, 55
2, 57068, Note_on_c, 0, 72, 78
2, 57072, Note_on_c, 0, 58, 0
2, 57084, Note_on_c, 0, 60, 64
2, 57100, Control_c, 0, 64, 88
2, 57108, Note_on_c, 0, 72, 0
2, 57112, Control_c, 0, 64, 24
2, 57124, Note_on_c, 0, 74, 84
2, 57124, Control_c, 0, 64, 0
2, 57128, Note_on_c, 0, 60, 0
2, 57152, Note_on_c, 0, 62, 62
2, 57168, Control_c, 0, 64, 40
2, 57180, Note_on_c, 0, 62, 0
2, 57180, Note_on_c, 0, 74, 0
2, 57180, Note_on_c, 0, 75, 83
2, 57180, Control_c, 0, 64, 88
2, 57188, Control_c, 0, 64, 127
2, 57212, Note_on_c, 0, 63, 59
2, 57228, Note_on_c, 0, 75, 0
2, 57240, Note_on_c, 0, 77, 76
2, 57260, Note_on_c, 0, 63, 0
2, 57272, Note_on_c, 0, 65, 73
2, 57276, Control_c, 0, 64, 88
2, 57288, Control_c, 0, 64, 0
2, 57296, Note_on_c, 0, 77, 0
2, 57300, Note_on_c, 0, 79, 84
2, 57312, Note_on_c, 0, 65, 0
2, 57328, Note_on_c, 0, 67, 59
2, 57356, Note_on_c, 0, 80, 79
2, 57356, Control_c, 0, 64, 72
2, 57364, Control_c, 0, 64, 127
2, 57372, Note_on_c, 0, 67, 0
2, 57380, Note_on_c, 0, 79, 0
2, 57392, Note_on_c, 0, 68, 65
2, 57412, Note_on_c, 0, 82, 71
2, 57432, Note_on_c, 0, 80, 0
2, 57436, Note_on_c, 0, 82, 0
2, 57444, Note_on_c, 0, 68, 0
2, 57456, Note_on_c, 0, 70, 61
2, 57476, Note_on_c, 0, 70, 0
2, 57476, Note_on_c, 0, 84, 77
2, 57492, Note_on_c, 0, 72, 71
2, 57528, Note_on_c, 0, 72, 0
2, 57528, Note_on_c, 0, 84, 0
2, 57528, Note_on_c, 0, 86, 84
2, 57556, Note_on_c, 0, 74, 69
2, 57576, Note_on_c, 0, 86, 0
2, 57580, Note_on_c, 0, 87, 80
2, 57604, Note_on_c, 0, 74, 0
2, 57612, Note_on_c, 0, 87, 0
2, 57616, Note_on_c, 0, 75, 64
2, 57640, Note_on_c, 0, 89, 72
2, 57664, Note_on_c, 0, 75, 0
2, 57664, Note_on_c, 0, 77, 64
2, 57688, Note_on_c, 0, 77, 0
2, 57692, Note_on_c, 0, 89, 0
2, 57700, Note_on_c, 0, 91, 73
2, 57704, Note_on_c, 0, 79, 70
2, 57740, Note_on_c, 0, 79, 0
2, 57752, Note_on_c, 0, 92, 74
2, 57772, Note_on_c, 0, 91, 0
2, 57792, Note_on_c, 0, 80, 58
2, 57804, Note_on_c, 0, 94, 68
2, 57812, Note_on_c, 0, 92, 0
2, 57824, Note_on_c, 0, 94, 0
2, 57840, Note_on_c, 0, 80, 0
2, 57872, Note_on_c, 0, 96, 74
2, 57880, Note_on_c, 0, 84, 73
2, 57896, Note_on_c, 0, 96, 0
2, 57916, Note_on_c, 0, 84, 0
2, 57928, Note_on_c, 0, 98, 78
2, 57928, Note_on_c, 0, 86, 73
2, 57976, Note_on_c, 0, 86, 0
2, 57992, Note_on_c, 0, 98, 0
2, 58000, Note_on_c, 0, 99, 89
2, 58000, Note_on_c, 0, 87, 60
2, 58000, Control_c, 0, 64, 88
2, 58012, Control_c, 0, 64, 24
2, 58024, Control_c, 0, 64, 0
2, 58068, Control_c, 0, 64, 56
2, 58080, Note_on_c, 0, 99, 0
2, 58080, Control_c, 0, 64, 127
2, 58124, Note_on_c, 0, 87, 0
2, 58516, Control_c, 0, 64, 104
2, 58528, Control_c, 0, 64, 88
2, 58540, Control_c, 0, 64, 56
2, 58548, Control_c, 0, 64, 40
2, 58560, Control_c, 0, 64, 0
2, 62320, Note_on_c, 0, 39, 55
2, 62360, Control_c, 0, 64, 24
2, 62364, Note_on_c, 0, 44, 67
2, 62372, Control_c, 0, 64, 56
2, 62380, Control_c, 0, 64, 88
2, 62392, Control_c, 0, 64, 104
2, 62396, Note_on_c, 0, 51, 55
2, 62424, Control_c, 0, 64, 127
2, 62448, Note_on_c, 0, 47, 44
2, 62484, Note_on_c, 0, 56, 59
2, 62552, Control_c, 0, 64, 104
2, 62560, Control_c, 0, 64, 88
2, 62572, Control_c, 0, 64, 56
2, 62580, Control_c, 0, 64, 24
2, 62592, Control_c, 0, 64, 0
2, 62716, Control_c, 0, 64, 72
2, 62728, Control_c, 0, 64, 127
2, 62752, Note_on_c, 0, 39, 0
2, 62764, Note_on_c, 0, 51, 0
2, 62768, Note_on_c, 0, 47, 0
2, 62772, Note_on_c, 0, 44, 0
2, 62776, Note_on_c, 0, 56, 0
2, 63480, Note_on_c, 0, 63, 68
2, 63500, Note_on_c, 0, 51, 49
2, 63692, Note_on_c, 0, 68, 83
2, 63700, Note_on_c, 0, 51, 0
2, 63704, Note_on_c, 0, 63, 0
2, 63716, Note_on_c, 0, 56, 52
2, 63776, Note_on_c, 0, 68, 0
2, 63796, Note_on_c, 0, 56, 0
2, 63852, Note_on_c, 0, 63, 45
2, 63872, Note_on_c, 0, 51, 35
2, 63880, Note_on_c, 0, 54, 46
2, 63884, Control_c, 0, 64, 88
2, 63896, Control_c, 0, 64, 24
2, 63900, Note_on_c, 0, 66, 52
2, 63908, Control_c, 0, 64, 0
2, 63940, Note_on_c, 0, 69, 61
2, 63956, Note_on_c, 0, 57, 39
2, 64000, Note_on_c, 0, 71, 93
2, 64016, Note_on_c, 0, 59, 52
2, 64020, Note_on_c, 0, 66, 0
2, 64024, Note_on_c, 0, 69, 0
2, 64024, Note_on_c, 0, 63, 0
2, 64028, Note_on_c, 0, 57, 0
2, 64036, Control_c, 0, 64, 72
2, 64044, Control_c, 0, 64, 127
2, 64048, Note_on_c, 0, 54, 0
2, 64052, Note_on_c, 0, 51, 0
2, 64056, Note_on_c, 0, 71, 0
2, 64068, Note_on_c, 0, 59, 0
2, 64224, Note_on_c, 0, 75, 89
2, 64244, Note_on_c, 0, 63, 43
2, 64388, Note_on_c, 0, 75, 0
2, 64392, Note_on_c, 0, 66, 48
2, 64400, Note_on_c, 0, 78, 83
2, 64588, Note_on_c, 0, 83, 92
2, 64588, Note_on_c, 0, 71, 49
2, 64592, Note_on_c, 0, 78, 0
2, 64628, Note_on_c, 0, 63, 0
2, 64640, Note_on_c, 0, 71, 0
2, 64644, Note_on_c, 0, 66, 0
2, 64688, Note_on_c, 0, 83, 0
2, 64808, Note_on_c, 0, 83, 84
2, 64812, Note_on_c, 0, 71, 62
2, 64904, Note_on_c, 0, 71, 0
2, 64924, Note_on_c, 0, 83, 0
2, 65076, Note_on_c, 0, 83, 66
2, 65080, Note_on_c, 0, 71, 48
2, 65272, Note_on_c, 0, 71, 0
2, 65272, Note_on_c, 0, 83, 0
2, 65696, Note_on_c, 0, 83, 74
2, 65696, Note_on_c, 0, 71, 63
2, 65768, Note_on_c, 0, 71, 0
2, 65788, Note_on_c, 0, 83, 0
2, 65864, Note_on_c, 0, 71, 53
2, 65908, Note_on_c, 0, 76, 55
2, 65916, Control_c, 0, 64, 72
2, 65924, Control_c, 0, 64, 0
2, 65952, Note_on_c, 0, 80, 77
2, 65968, Control_c, 0, 64, 88
2, 65976, Control_c, 0, 64, 127
2, 66000, Note_on_c, 0, 76, 0
2, 66000, Note_on_c, 0, 71, 0
2, 66008, Note_on_c, 0, 83, 81
2, 66032, Note_on_c, 0, 80, 0
2, 66040, Note_on_c, 0, 83, 0
2, 66112, Note_on_c, 0, 83, 87
2, 66132, Note_on_c, 0, 83, 0
2, 66188, Note_on_c, 0, 83, 90
2, 66260, Note_on_c, 0, 85, 88
2, 66260, Note_on_c, 0, 52, 53
2, 66268, Note_on_c, 0, 40, 46
2, 66272, Note_on_c, 0, 83, 0
2, 66300, Note_on_c, 0, 40, 0
2, 66332, Note_on_c, 0, 52, 0
2, 66340, Note_on_c, 0, 85, 0
2, 66340, Note_on_c, 0, 83, 88
2, 66396, Note_on_c, 0, 83, 0
2, 66396, Note_on_c, 0, 82, 77
2, 66464, Note_on_c, 0, 82, 0
2, 66464, Note_on_c, 0, 83, 102
2, 66564, Note_on_c, 0, 83, 0
2, 66608, Note_on_c, 0, 91, 99
2, 66620, Note_on_c, 0, 79, 74
2, 66628, Note_on_c, 0, 68, 46
2, 66636, Note_on_c, 0, 56, 35
2, 66644, Note_on_c, 0, 64, 48
2, 66656, Note_on_c, 0, 59, 35
2, 66772, Note_on_c, 0, 79, 0
2, 66800, Note_on_c, 0, 56, 0
2, 66816, Note_on_c, 0, 59, 0
2, 66820, Note_on_c, 0, 68, 0
2, 66820, Note_on_c, 0, 64, 0
2, 66900, Note_on_c, 0, 91, 0
2, 66940, Note_on_c, 0, 92, 91
2, 66944, Note_on_c, 0, 80, 67
2, 67028, Note_on_c, 0, 80, 0
2, 67040, Note_on_c, 0, 92, 0
2, 67300, Note_on_c, 0, 84, 82
2, 67308, Note_on_c, 0, 72, 60
2, 67492, Control_c, 0, 64, 40
2, 67504, Control_c, 0, 64, 0
2, 67580, Control_c, 0, 64, 88
2, 67588, Control_c, 0, 64, 127
2, 67628, Note_on_c, 0, 45, 41
2, 67644, Note_on_c, 0, 33, 39
2, 67668, Note_on_c, 0, 33, 0
2, 67700, Note_on_c, 0, 45, 0
2, 67892, Note_on_c, 0, 72, 0
2, 67892, Note_on_c, 0, 54, 46
2, 67924, Note_on_c, 0, 54, 0
2, 67940, Note_on_c, 0, 61, 56
2, 67980, Note_on_c, 0, 64, 50
2, 68012, Note_on_c, 0, 61, 0
2, 68032, Note_on_c, 0, 84, 0
2, 68032, Note_on_c, 0, 66, 44
2, 68052, Note_on_c, 0, 64, 0
2, 68068, Note_on_c, 0, 66, 0
2, 68212, Note_on_c, 0, 75, 79
2, 68296, Note_on_c, 0, 87, 84
2, 68384, Note_on_c, 0, 85, 83
2, 68396, Note_on_c, 0, 75, 0
2, 68412, Note_on_c, 0, 87, 0
2, 68448, Note_on_c, 0, 85, 0
2, 68452, Note_on_c, 0, 73, 80
2, 68524, Note_on_c, 0, 73, 0
2, 68532, Note_on_c, 0, 78, 81
2, 68580, Note_on_c, 0, 78, 0
2, 68668, Note_on_c, 0, 68, 44
2, 68744, Note_on_c, 0, 71, 45
2, 68780, Note_on_c, 0, 76, 74
2, 68836, Note_on_c, 0, 80, 94
2, 68852, Control_c, 0, 64, 104
2, 68864, Control_c, 0, 64, 24
2, 68876, Control_c, 0, 64, 0
2, 68980, Control_c, 0, 64, 56
2, 68988, Control_c, 0, 64, 127
2, 69044, Note_on_c, 0, 47, 49
2, 69056, Note_on_c, 0, 35, 46
2, 69100, Note_on_c, 0, 35, 0
2, 69120, Note_on_c, 0, 47, 0
2, 69184, Note_on_c, 0, 68, 0
2, 69216, Note_on_c, 0, 71, 0
2, 69284, Note_on_c, 0, 76, 0
2, 69340, Note_on_c, 0, 68, 47
2, 69352, Note_on_c, 0, 56, 38
2, 69356, Note_on_c, 0, 64, 47
2, 69416, Note_on_c, 0, 68, 38
2, 69424, Note_on_c, 0, 56, 35
2, 69428, Note_on_c, 0, 64, 48
2, 69432, Note_on_c, 0, 59, 43
2, 69444, Note_on_c, 0, 64, 0
2, 69468, Note_on_c, 0, 56, 0
2, 69480, Note_on_c, 0, 68, 0
2, 69488, Note_on_c, 0, 64, 0
2, 69504, Note_on_c, 0, 80, 0
2, 69504, Note_on_c, 0, 59, 0
2, 69528, Note_on_c, 0, 56, 0
2, 69532, Note_on_c, 0, 68, 0
2, 69672, Note_on_c, 0, 68, 42
2, 69676, Note_on_c, 0, 56, 36
2, 69680, Note_on_c, 0, 64, 50
2, 69684, Note_on_c, 0, 59, 41
2, 69748, Note_on_c, 0, 64, 0
2, 69752, Note_on_c, 0, 68, 0
2, 69752, Note_on_c, 0, 56, 0
2, 69752, Note_on_c, 0, 59, 0
2, 69836, Note_on_c, 0, 80, 78
2, 69960, Note_on_c, 0, 80, 0
2, 69980, Note_on_c, 0, 54, 56
2, 70000, Control_c, 0, 64, 24
2, 70008, Control_c, 0, 64, 0
2, 70016, Note_on_c, 0, 54, 0
2, 70020, Note_on_c, 0, 59, 50
2, 70028, Note_on_c, 0, 80, 75
2, 70040, Note_on_c, 0, 63, 50
2, 70044, Control_c, 0, 64, 56
2, 70048, Control_c, 0, 64, 127
2, 70072, Note_on_c, 0, 59, 0
2, 70084, Note_on_c, 0, 69, 37
2, 70088, Note_on_c, 0, 80, 0
2, 70100, Note_on_c, 0, 63, 0
2, 70112, Note_on_c, 0, 69, 0
2, 70120, Note_on_c, 0, 81, 74
2, 70156, Note_on_c, 0, 81, 0
2, 70176, Note_on_c, 0, 83, 76
2, 70232, Note_on_c, 0, 83, 0
2, 70232, Note_on_c, 0, 81, 84
2, 70292, Note_on_c, 0, 81, 0
2, 70312, Note_on_c, 0, 80, 68
2, 70348, Note_on_c, 0, 80, 0
2, 70368, Note_on_c, 0, 81, 74
2, 70428, Note_on_c, 0, 83, 84
2, 70452, Note_on_c, 0, 81, 0
2, 70488, Note_on_c, 0, 87, 75
2, 70492, Note_on_c, 0, 83, 0
2, 70552, Note_on_c, 0, 92, 88
2, 70560, Note_on_c, 0, 87, 0
2, 70608, Note_on_c, 0, 92, 0
2, 70612, Note_on_c, 0, 90, 77
2, 70680, Note_on_c, 0, 87, 87
2, 70684, Note_on_c, 0, 90, 0
2, 70740, Note_on_c, 0, 83, 82
2, 70776, Note_on_c, 0, 87, 0
2, 70800, Note_on_c, 0, 83, 0
2, 70804, Note_on_c, 0, 81, 80
2, 70840, Note_on_c, 0, 81, 0
2, 70864, Note_on_c, 0, 78, 80
2, 70944, Note_on_c, 0, 78, 0
2, 70944, Note_on_c, 0, 75, 68
2, 71012, Note_on_c, 0, 75, 0
2, 71024, Note_on_c, 0, 71, 50
2, 71032, Note_on_c, 0, 72, 43
2, 71044, Note_on_c, 0, 72, 0
2, 71072, Note_on_c, 0, 71, 0
2, 71096, Note_on_c, 0, 69, 74
2, 71152, Note_on_c, 0, 68, 68
2, 71160, Note_on_c, 0, 69, 0
2, 71208, Note_on_c, 0, 68, 0
2, 71220, Note_on_c, 0, 69, 80
2, 71272, Note_on_c, 0, 69, 0
2, 71284, Note_on_c, 0, 71, 70
2, 71332, Note_on_c, 0, 71, 0
2, 71348, Note_on_c, 0, 69, 64
2, 71404, Note_on_c, 0, 69, 0
2, 71420, Note_on_c, 0, 66, 68
2, 71476, Note_on_c, 0, 66, 0
2, 71492, Note_on_c, 0, 61, 68
2, 71552, Note_on_c, 0, 61, 0
2, 71576, Note_on_c, 0, 63, 72
2, 71680, Note_on_c, 0, 63, 0
2, 71692, Note_on_c, 0, 68, 74
2, 71804, Note_on_c, 0, 68, 0
2, 71816, Note_on_c, 0, 66, 71
2, 71904, Control_c, 0, 64, 104
2, 71912, Control_c, 0, 64, 40
2, 71920, Control_c, 0, 64, 0
2, 72220, Control_c, 0, 64, 72
2, 72228, Control_c, 0, 64, 104
2, 72236, Control_c, 0, 64, 127
2, 72248, Note_on_c, 0, 66, 0
2, 72432, Control_c, 0, 64, 88
2, 72440, Control_c, 0, 64, 72
2, 72448, Note_on_c, 0, 64, 72
2, 72448, Control_c, 0, 64, 88
2, 72456, Control_c, 0, 64, 127
2, 72496, Note_on_c, 0, 64, 0
2, 72588, Control_c, 0, 64, 56
2, 72596, Control_c, 0, 64, 0
2, 78324, Control_c, 0, 64, 40
2, 78336, Control_c, 0, 64, 56
2, 78352, Note_on_c, 0, 53, 47
2, 78352, Control_c, 0, 64, 72
2, 78372, Note_on_c, 0, 48, 52
2, 78456, Note_on_c, 0, 57, 51
2, 78524, Control_c, 0, 64, 56
2, 78536, Control_c, 0, 64, 24
2, 78552, Control_c, 0, 64, 0
2, 78724, Control_c, 0, 64, 88
2, 78736, Control_c, 0, 64, 127
2, 78760, Note_on_c, 0, 53, 0
2, 78764, Note_on_c, 0, 57, 0
2, 78828, Note_on_c, 0, 48, 0
2, 79408, Note_on_c, 0, 65, 79
2, 79428, Note_on_c, 0, 53, 65
2, 79600, Note_on_c, 0, 53, 0
2, 79644, Note_on_c, 0, 65, 0
2, 79672, Note_on_c, 0, 57, 71
2, 79676, Note_on_c, 0, 69, 97
2, 79856, Note_on_c, 0, 42, 65
2, 79920, Note_on_c, 0, 48, 70
2, 79928, Control_c, 0, 64, 24
2, 79940, Control_c, 0, 64, 0
2, 79944, Note_on_c, 0, 51, 65
2, 79956, Note_on_c, 0, 69, 0
2, 79960, Note_on_c, 0, 42, 0
2, 79984, Note_on_c, 0, 57, 0
2, 79996, Note_on_c, 0, 68, 57
2, 80000, Note_on_c, 0, 72, 95
2, 80008, Note_on_c, 0, 60, 76
2, 80008, Note_on_c, 0, 63, 61
2, 80012, Control_c, 0, 64, 88
2, 80028, Note_on_c, 0, 56, 68
2, 80028, Control_c, 0, 64, 127
2, 80044, Note_on_c, 0, 48, 0
2, 80056, Note_on_c, 0, 60, 0
2, 80060, Note_on_c, 0, 51, 0
2, 80060, Note_on_c, 0, 63, 0
2, 80068, Note_on_c, 0, 56, 0
2, 80084, Note_on_c, 0, 68, 0
2, 80104, Note_on_c, 0, 72, 0
2, 80292, Note_on_c, 0, 75, 93
2, 80304, Note_on_c, 0, 68, 48
2, 80312, Note_on_c, 0, 63, 61
2, 80328, Note_on_c, 0, 68, 0
2, 80332, Note_on_c, 0, 60, 51
2, 80348, Note_on_c, 0, 75, 0
2, 80376, Note_on_c, 0, 60, 0
2, 80388, Note_on_c, 0, 63, 0
2, 80512, Note_on_c, 0, 80, 100
2, 80524, Note_on_c, 0, 72, 84
2, 80524, Note_on_c, 0, 75, 81
2, 80524, Note_on_c, 0, 68, 74
2, 80560, Note_on_c, 0, 60, 35
2, 80572, Note_on_c, 0, 75, 0
2, 80572, Note_on_c, 0, 72, 0
2, 80588, Note_on_c, 0, 68, 0
2, 80608, Note_on_c, 0, 60, 0
2, 80632, Note_on_c, 0, 80, 0
2, 80712, Note_on_c, 0, 54, 64
2, 80764, Note_on_c, 0, 63, 38
2, 80780, Note_on_c, 0, 54, 0
2, 80780, Note_on_c, 0, 60, 31
2, 80784, Note_on_c, 0, 84, 107
2, 80788, Note_on_c, 0, 80, 86
2, 80792, Note_on_c, 0, 72, 92
2, 80800, Note_on_c, 0, 75, 81
2, 80800, Note_on_c, 0, 68, 81
2, 80856, Note_on_c, 0, 75, 0
2, 80856, Note_on_c, 0, 72, 0
2, 80872, Note_on_c, 0, 60, 0
2, 80880, Note_on_c, 0, 80, 0
2, 80884, Note_on_c, 0, 68, 0
2, 80908, Note_on_c, 0, 84, 0
2, 80940, Note_on_c, 0, 63, 0
2, 80988, Note_on_c, 0, 54, 57
2, 81052, Note_on_c, 0, 54, 0
2, 81052, Note_on_c, 0, 60, 42
2, 81084, Note_on_c, 0, 84, 107
2, 81084, Note_on_c, 0, 80, 92
2, 81084, Note_on_c, 0, 63, 38
2, 81088, Note_on_c, 0, 72, 98
2, 81088, Note_on_c, 0, 75, 90
2, 81100, Note_on_c, 0, 68, 77
2, 81160, Note_on_c, 0, 63, 0
2, 81168, Note_on_c, 0, 60, 0
2, 81172, Note_on_c, 0, 72, 0
2, 81180, Note_on_c, 0, 75, 0
2, 81192, Note_on_c, 0, 68, 0
2, 81228, Note_on_c, 0, 84, 0
2, 81232, Note_on_c, 0, 80, 0
2, 81324, Note_on_c, 0, 54, 62
2, 81436, Note_on_c, 0, 54, 0
2, 81512, Note_on_c, 0, 84, 102
2, 81516, Note_on_c, 0, 80, 86
2, 81516, Note_on_c, 0, 72, 95
2, 81520, Note_on_c, 0, 68, 65
2, 81524, Note_on_c, 0, 75, 70
2, 81548, Note_on_c, 0, 75, 0
2, 81580, Note_on_c, 0, 72, 0
2, 81580, Note_on_c, 0, 68, 0
2, 81608, Note_on_c, 0, 80, 0
2, 81608, Note_on_c, 0, 84, 0
2, 81648, Control_c, 0, 64, 104
2, 81664, Control_c, 0, 64, 0
2, 81684, Note_on_c, 0, 60, 34
2, 81688, Note_on_c, 0, 84, 110
2, 81692, Note_on_c, 0, 72, 102
2, 81696, Note_on_c, 0, 79, 85
2, 81696, Note_on_c, 0, 76, 89
2, 81704, Note_on_c, 0, 64, 71
2, 81704, Note_on_c, 0, 67, 80
2, 81712, Note_on_c, 0, 80, 60
2, 81716, Note_on_c, 0, 55, 76
2, 81748, Control_c, 0, 64, 127
2, 81760, Note_on_c, 0, 80, 0
2, 81768, Note_on_c, 0, 67, 0
2, 81772, Note_on_c, 0, 64, 0
2, 81772, Note_on_c, 0, 60, 0
2, 81776, Note_on_c, 0, 55, 0
2, 81776, Note_on_c, 0, 72, 0
2, 81780, Note_on_c, 0, 76, 0
2, 81780, Note_on_c, 0, 84, 0
2, 81784, Note_on_c, 0, 79, 0
2, 82180, Note_on_c, 0, 64, 93
2, 82192, Note_on_c, 0, 60, 80
2, 82196, Note_on_c, 0, 55, 75
2, 82208, Note_on_c, 0, 48, 72
2, 82220, Note_on_c, 0, 43, 60
2, 82316, Control_c, 0, 64, 24
2, 82332, Control_c, 0, 64, 0
2, 82388, Control_c, 0, 64, 88
2, 82400, Control_c, 0, 64, 127
2, 82428, Note_on_c, 0, 55, 0
2, 82464, Note_on_c, 0, 60, 0
2, 82496, Note_on_c, 0, 43, 0
2, 82500, Note_on_c, 0, 48, 0
2, 82512, Note_on_c, 0, 64, 0
2, 82840, Note_on_c, 0, 67, 93
2, 82860, Note_on_c, 0, 55, 78
2, 83012, Note_on_c, 0, 55, 0
2, 83080, Note_on_c, 0, 60, 84
2, 83084, Note_on_c, 0, 67, 0
2, 83092, Note_on_c, 0, 72, 109
2, 83112, Note_on_c, 0, 60, 0
2, 83204, Note_on_c, 0, 72, 0
2, 83296, Note_on_c, 0, 44, 66
2, 83348, Note_on_c, 0, 52, 58
2, 83352, Note_on_c, 0, 44, 0
2, 83352, Control_c, 0, 64, 72
2, 83368, Control_c, 0, 64, 0
2, 83388, Note_on_c, 0, 56, 61
2, 83392, Note_on_c, 0, 64, 89
2, 83396, Note_on_c, 0, 76, 99
2, 83396, Note_on_c, 0, 72, 90
2, 83408, Note_on_c, 0, 68, 68
2, 83408, Control_c, 0, 64, 40
2, 83424, Control_c, 0, 64, 127
2, 83432, Note_on_c, 0, 68, 0
2, 83432, Note_on_c, 0, 52, 0
2, 83440, Note_on_c, 0, 64, 0
2, 83452, Note_on_c, 0, 56, 0
2, 83452, Note_on_c, 0, 60, 51
2, 83468, Note_on_c, 0, 72, 0
2, 83484, Note_on_c, 0, 60, 0
2, 83484, Note_on_c, 0, 76, 0
2, 83656, Note_on_c, 0, 80, 101
2, 83660, Note_on_c, 0, 68, 70
2, 83664, Note_on_c, 0, 76, 81
2, 83672, Note_on_c, 0, 64, 73
2, 83732, Note_on_c, 0, 76, 0
2, 83752, Note_on_c, 0, 68, 0
2, 83756, Note_on_c, 0, 64, 0
2, 83792, Note_on_c, 0, 80, 0
2, 83864, Note_on_c, 0, 84, 106
2, 83876, Note_on_c, 0, 72, 85
2, 83876, Note_on_c, 0, 64, 78
2, 83880, Note_on_c, 0, 76, 92
2, 83904, Note_on_c, 0, 80, 36
2, 83924, Note_on_c, 0, 80, 0
2, 83924, Note_on_c, 0, 72, 0
2, 83936, Note_on_c, 0, 76, 0
2, 83988, Note_on_c, 0, 64, 0
2, 83992, Note_on_c, 0, 84, 0
2, 84048, Note_on_c, 0, 56, 45
2, 84072, Note_on_c, 0, 64, 55
2, 84080, Note_on_c, 0, 56, 0
2, 84128, Note_on_c, 0, 88, 107
2, 84128, Note_on_c, 0, 68, 52
2, 84132, Note_on_c, 0, 84, 94
2, 84132, Note_on_c, 0, 76, 95
2, 84132, Note_on_c, 0, 80, 85
2, 84156, Note_on_c, 0, 72, 73
2, 84176, Note_on_c, 0, 64, 0
2, 84180, Note_on_c, 0, 80, 0
2, 84184, Note_on_c, 0, 76, 0
2, 84188, Note_on_c, 0, 72, 0
2, 84196, Note_on_c, 0, 84, 0
2, 84224, Note_on_c, 0, 88, 0
2, 84240, Note_on_c, 0, 68, 0
2, 84320, Note_on_c, 0, 56, 55
2, 84348, Note_on_c, 0, 56, 0
2, 84368, Note_on_c, 0, 64, 53
2, 84396, Note_on_c, 0, 88, 107
2, 84404, Note_on_c, 0, 84, 93
2, 84408, Note_on_c, 0, 76, 95
2, 84408, Note_on_c, 0, 80, 82
2, 84412, Note_on_c, 0, 68, 55
2, 84428, Note_on_c, 0, 72, 74
2, 84460, Note_on_c, 0, 72, 0
2, 84464, Note_on_c, 0, 80, 0
2, 84476, Note_on_c, 0, 76, 0
2, 84480, Note_on_c, 0, 68, 0
2, 84496, Note_on_c, 0, 84, 0
2, 84504, Note_on_c, 0, 64, 0
2, 84508, Note_on_c, 0, 88, 0
2, 84648, Note_on_c, 0, 56, 55
2, 84676, Note_on_c, 0, 56, 0
2, 84684, Note_on_c, 0, 64, 68
2, 84752, Note_on_c, 0, 64, 0
2, 84788, Note_on_c, 0, 84, 86
2, 84788, Note_on_c, 0, 88, 102
2, 84796, Note_on_c, 0, 76, 93
2, 84800, Note_on_c, 0, 80, 81
2, 84856, Note_on_c, 0, 80, 0
2, 84872, Note_on_c, 0, 76, 0
2, 84872, Note_on_c, 0, 84, 0
2, 84872, Note_on_c, 0, 64, 56
2, 84892, Note_on_c, 0, 88, 0
2, 84904, Note_on_c, 0, 57, 58
2, 84916, Control_c, 0, 64, 56
2, 84932, Note_on_c, 0, 57, 0
2, 84932, Note_on_c, 0, 64, 0
2, 84932, Control_c, 0, 64, 0
2, 84944, Note_on_c, 0, 69, 85
2, 84968, Note_on_c, 0, 88, 109
2, 84968, Note_on_c, 0, 84, 99
2, 84972, Note_on_c, 0, 76, 96
2, 84972, Control_c, 0, 64, 104
2, 84980, Note_on_c, 0, 81, 91
2, 84984, Control_c, 0, 64, 127
2, 85004, Note_on_c, 0, 81, 0
2, 85012, Note_on_c, 0, 72, 93
2, 85020, Note_on_c, 0, 76, 0
2, 85028, Note_on_c, 0, 69, 0
2, 85036, Note_on_c, 0, 84, 0
2, 85040, Note_on_c, 0, 72, 0
2, 85052, Note_on_c, 0, 88, 0
2, 85424, Note_on_c, 0, 64, 100
2, 85436, Note_on_c, 0, 60, 86
2, 85436, Note_on_c, 0, 57, 77
2, 85444, Note_on_c, 0, 52, 72
2, 85448, Note_on_c, 0, 45, 76
2, 85556, Control_c, 0, 64, 56
2, 85572, Control_c, 0, 64, 0
2, 85652, Control_c, 0, 64, 127
2, 85712, Note_on_c, 0, 57, 0
2, 85716, Note_on_c, 0, 60, 0
2, 85756, Note_on_c, 0, 45, 0
2, 85760, Note_on_c, 0, 64, 0
2, 85768, Note_on_c, 0, 52, 0
2, 86036, Control_c, 0, 64, 104
2, 86052, Control_c, 0, 64, 56
2, 86056, Note_on_c, 0, 69, 93
2, 86056, Note_on_c, 0, 52, 78
2, 86056, Note_on_c, 0, 64, 64
2, 86056, Note_on_c, 0, 48, 59
2, 86056, Note_on_c, 0, 57, 62
2, 86056, Note_on_c, 0, 60, 69
2, 86064, Control_c, 0, 64, 104
2, 86080, Control_c, 0, 64, 127
2, 86084, Note_on_c, 0, 60, 0
2, 86084, Note_on_c, 0, 64, 0
2, 86084, Note_on_c, 0, 48, 0
2, 86092, Note_on_c, 0, 52, 0
2, 86092, Note_on_c, 0, 57, 0
2, 86124, Note_on_c, 0, 69, 0
2, 86292, Control_c, 0, 64, 56
2, 86308, Control_c, 0, 64, 40
2, 86316, Note_on_c, 0, 72, 100
2, 86316, Note_on_c, 0, 64, 69
2, 86316, Note_on_c, 0, 69, 70
2, 86316, Note_on_c, 0, 64, 66
2, 86316, Note_on_c, 0, 72, 96
2, 86316, Note_on_c, 0, 52, 68
2, 86316, Note_on_c, 0, 60, 62
2, 86316, Note_on_c, 0, 52, 68
2, 86316, Control_c, 0, 64, 88
2, 86336, Control_c, 0, 64, 127
2, 86340, Note_on_c, 0, 52, 0
2, 86340, Note_on_c, 0, 52, 0
2, 86340, Note_on_c, 0, 69, 0
2, 86340, Note_on_c, 0, 57, 67
2, 86340, Note_on_c, 0, 69, 64
2, 86344, Note_on_c, 0, 64, 0
2, 86344, Note_on_c, 0, 64, 0
2, 86344, Note_on_c, 0, 60, 71
2, 86360, Note_on_c, 0, 57, 0
2, 86360, Note_on_c, 0, 69, 0
2, 86372, Note_on_c, 0, 60, 0
2, 86388, Note_on_c, 0, 72, 0
2, 86388, Note_on_c, 0, 72, 0
2, 86392, Note_on_c, 0, 60, 0
2, 86572, Note_on_c, 0, 76, 95
2, 86572, Note_on_c, 0, 69, 84
2, 86572, Note_on_c, 0, 72, 78
2, 86572, Note_on_c, 0, 57, 51
2, 86572, Note_on_c, 0, 60, 69
2, 86572, Note_on_c, 0, 64, 65
2, 86592, Note_on_c, 0, 72, 0
2, 86596, Note_on_c, 0, 60, 0
2, 86604, Note_on_c, 0, 69, 0
2, 86604, Note_on_c, 0, 64, 0
2, 86608, Note_on_c, 0, 57, 0
2, 86632, Note_on_c, 0, 76, 0
2, 86796, Note_on_c, 0, 81, 97
2, 86796, Note_on_c, 0, 72, 80
2, 86796, Note_on_c, 0, 64, 68
2, 86796, Note_on_c, 0, 69, 71
2, 86796, Note_on_c, 0, 76, 50
2, 86796, Note_on_c, 0, 60, 50
2, 86820, Note_on_c, 0, 64, 0
2, 86824, Note_on_c, 0, 72, 0
2, 86824, Note_on_c, 0, 60, 0
2, 86828, Note_on_c, 0, 76, 0
2, 86832, Note_on_c, 0, 69, 0
2, 86864, Note_on_c, 0, 81, 0
2, 87012, Note_on_c, 0, 72, 66
2, 87012, Note_on_c, 0, 81, 89
2, 87012, Note_on_c, 0, 84, 106
2, 87012, Note_on_c, 0, 76, 87
2, 87012, Note_on_c, 0, 69, 71
2, 87012, Note_on_c, 0, 64, 61
2, 87040, Note_on_c, 0, 81, 0
2, 87040, Note_on_c, 0, 72, 0
2, 87048, Note_on_c, 0, 76, 0
2, 87052, Note_on_c, 0, 69, 0
2, 87052, Note_on_c, 0, 64, 0
2, 87116, Note_on_c, 0, 84, 0
2, 87244, Note_on_c, 0, 88, 106
2, 87244, Note_on_c, 0, 84, 72
2, 87244, Note_on_c, 0, 81, 66
2, 87244, Note_on_c, 0, 76, 65
2, 87244, Note_on_c, 0, 72, 65
2, 87244, Note_on_c, 0, 69, 65
2, 87284, Note_on_c, 0, 69, 0
2, 87284, Note_on_c, 0, 76, 0
2, 87284, Note_on_c, 0, 72, 0
2, 87292, Note_on_c, 0, 84, 0
2, 87296, Note_on_c, 0, 81, 0
2, 87320, Note_on_c, 0, 88, 0
2, 87460, Note_on_c, 0, 93, 103
2, 87460, Note_on_c, 0, 84, 79
2, 87460, Note_on_c, 0, 88, 77
2, 87460, Note_on_c, 0, 81, 67
2, 87460, Note_on_c, 0, 76, 65
2, 87460, Note_on_c, 0, 72, 65
2, 87488, Note_on_c, 0, 88, 0
2, 87488, Note_on_c, 0, 84, 0
2, 87496, Note_on_c, 0, 81, 0
2, 87500, Note_on_c, 0, 76, 0
2, 87500, Note_on_c, 0, 72, 0
2, 87532, Note_on_c, 0, 93, 0
2, 87708, Note_on_c, 0, 84, 77
2, 87708, Note_on_c, 0, 96, 92
2, 87708, Note_on_c, 0, 93, 71
2, 87708, Note_on_c, 0, 88, 70
2, 87708, Note_on_c, 0, 76, 65
2, 87708, Note_on_c, 0, 81, 65
2, 87732, Note_on_c, 0, 93, 0
2, 87736, Note_on_c, 0, 88, 0
2, 87748, Note_on_c, 0, 81, 0
2, 87756, Note_on_c, 0, 84, 0
2, 87764, Note_on_c, 0, 76, 0
2, 87764, Note_on_c, 0, 96, 0
2, 87832, Note_on_c, 0, 70, 80
2, 87856, Note_on_c, 0, 79, 52
2, 87856, Control_c, 0, 64, 56
2, 87868, Note_on_c, 0, 76, 68
2, 87868, Control_c, 0, 64, 0
2, 87908, Note_on_c, 0, 70, 0
2, 87928, Note_on_c, 0, 85, 96
2, 87940, Control_c, 0, 64, 127
2, 87952, Note_on_c, 0, 88, 72
2, 87960, Note_on_c, 0, 76, 0
2, 87968, Note_on_c, 0, 79, 0
2, 87976, Note_on_c, 0, 97, 81
2, 87980, Note_on_c, 0, 91, 54
2, 87984, Note_on_c, 0, 85, 0
2, 88048, Note_on_c, 0, 88, 0
2, 88060, Note_on_c, 0, 100, 100
2, 88068, Note_on_c, 0, 91, 0
2, 88096, Note_on_c, 0, 97, 0
2, 88128, Note_on_c, 0, 100, 0
2, 88248, Note_on_c, 0, 99, 82
2, 88248, Control_c, 0, 64, 104
2, 88260, Control_c, 0, 64, 40
2, 88268, Control_c, 0, 64, 0
2, 88320, Control_c, 0, 64, 40
2, 88332, Control_c, 0, 64, 88
2, 88344, Control_c, 0, 64, 127
2, 88364, Control_c, 0, 64, 104
2, 88376, Control_c, 0, 64, 40
2, 88388, Note_on_c, 0, 100, 96
2, 88392, Note_on_c, 0, 99, 0
2, 88392, Control_c, 0, 64, 0
2, 88472, Control_c, 0, 64, 40
2, 88484, Control_c, 0, 64, 127
2, 88492, Note_on_c, 0, 102, 86
2, 88500, Note_on_c, 0, 100, 0
2, 88564, Control_c, 0, 64, 72
2, 88576, Control_c, 0, 64, 0
2, 88596, Note_on_c, 0, 102, 0
2, 88596, Note_on_c, 0, 100, 92
2, 88612, Control_c, 0, 64, 56
2, 88624, Control_c, 0, 64, 127
2, 88688, Note_on_c, 0, 102, 79
2, 88696, Note_on_c, 0, 100, 0
2, 88780, Note_on_c, 0, 102, 0
2, 88788, Note_on_c, 0, 100, 92
2, 88876, Note_on_c, 0, 102, 73
2, 88884, Note_on_c, 0, 100, 0
2, 88948, Note_on_c, 0, 102, 0
2, 88956, Note_on_c, 0, 100, 91
2, 89020, Note_on_c, 0, 102, 80
2, 89024, Note_on_c, 0, 100, 0
2, 89084, Note_on_c, 0, 102, 0
2, 89088, Note_on_c, 0, 100, 73
2, 89144, Note_on_c, 0, 100, 0
2, 89152, Note_on_c, 0, 102, 73
2, 89204, Note_on_c, 0, 102, 0
2, 89208, Note_on_c, 0, 100, 68
2, 89268, Note_on_c, 0, 102, 72
2, 89272, Note_on_c, 0, 100, 0
2, 89320, Note_on_c, 0, 102, 0
2, 89324, Note_on_c, 0, 100, 70
2, 89380, Note_on_c, 0, 100, 0
2, 89380, Note_on_c, 0, 102, 70
2, 89436, Note_on_c, 0, 102, 0
2, 89440, Note_on_c, 0, 100, 73
2, 89496, Note_on_c, 0, 100, 0
2, 89504, Note_on_c, 0, 102, 70
2, 89548, Note_on_c, 0, 102, 0
2, 89548, Note_on_c, 0, 100, 74
2, 89604, Note_on_c, 0, 102, 73
2, 89608, Note_on_c, 0, 100, 0
2, 89660, Note_on_c, 0, 100, 72
2, 89664, Note_on_c, 0, 102, 0
2, 89712, Note_on_c, 0, 102, 60
2, 89716, Note_on_c, 0, 100, 0
2, 89764, Note_on_c, 0, 100, 68
2, 89768, Note_on_c, 0, 102, 0
2, 89820, Note_on_c, 0, 100, 0
2, 89820, Note_on_c, 0, 102, 63
2, 89872, Note_on_c, 0, 100, 65
2, 89876, Note_on_c, 0, 102, 0
2, 89928, Note_on_c, 0, 100, 0
2, 89928, Note_on_c, 0, 102, 50
2, 89972, Note_on_c, 0, 102, 0
2, 89976, Note_on_c, 0, 100, 58
2, 90024, Note_on_c, 0, 100, 0
2, 90040, Note_on_c, 0, 102, 68
2, 90076, Note_on_c, 0, 102, 0
2, 90096, Note_on_c, 0, 100, 81
2, 90164, Note_on_c, 0, 100, 0
2, 90188, Note_on_c, 0, 99, 75
2, 90268, Note_on_c, 0, 99, 0
2, 90292, Note_on_c, 0, 100, 88
2, 90364, Note_on_c, 0, 100, 0
2, 90392, Note_on_c, 0, 101, 79
2, 90472, Note_on_c, 0, 101, 0
2, 90480, Note_on_c, 0, 102, 77
2, 90564, Note_on_c, 0, 103, 75
2, 90576, Note_on_c, 0, 102, 0
2, 90620, Note_on_c, 0, 103, 0
2, 90640, Note_on_c, 0, 97, 72
2, 90700, Note_on_c, 0, 97, 0
2, 90724, Note_on_c, 0, 98, 89
2, 90804, Note_on_c, 0, 98, 0
2, 90808, Note_on_c, 0, 99, 81
2, 90896, Note_on_c, 0, 100, 87
2, 90920, Note_on_c, 0, 99, 0
2, 90960, Note_on_c, 0, 100, 0
2, 90988, Note_on_c, 0, 94, 62
2, 91048, Note_on_c, 0, 94, 0
2, 91088, Note_on_c, 0, 95, 71
2, 91168, Note_on_c, 0, 95, 0
2, 91184, Note_on_c, 0, 96, 65
2, 91276, Note_on_c, 0, 97, 72
2, 91296, Note_on_c, 0, 96, 0
2, 91332, Note_on_c, 0, 97, 0
2, 91372, Note_on_c, 0, 88, 72
2, 91440, Note_on_c, 0, 88, 0
2, 91472, Note_on_c, 0, 89, 56
2, 91548, Note_on_c, 0, 89, 0
2, 91552, Note_on_c, 0, 90, 69
2, 91640, Note_on_c, 0, 91, 76
2, 91664, Note_on_c, 0, 90, 0
2, 91692, Note_on_c, 0, 91, 0
2, 91724, Note_on_c, 0, 85, 75
2, 91776, Note_on_c, 0, 85, 0
2, 91808, Note_on_c, 0, 86, 77
2, 91892, Note_on_c, 0, 86, 0
2, 91892, Note_on_c, 0, 87, 77
2, 91992, Note_on_c, 0, 88, 80
2, 92024, Note_on_c, 0, 87, 0
2, 92052, Note_on_c, 0, 88, 0
2, 92080, Note_on_c, 0, 82, 68
2, 92180, Note_on_c, 0, 82, 0
2, 92184, Note_on_c, 0, 83, 73
2, 92260, Note_on_c, 0, 83, 0
2, 92272, Note_on_c, 0, 84, 67
2, 92356, Note_on_c, 0, 85, 74
2, 92372, Note_on_c, 0, 84, 0
2, 92416, Note_on_c, 0, 85, 0
2, 92456, Note_on_c, 0, 76, 69
2, 92524, Note_on_c, 0, 76, 0
2, 92556, Note_on_c, 0, 77, 61
2, 92624, Note_on_c, 0, 77, 0
2, 92628, Note_on_c, 0, 78, 69
2, 92716, Note_on_c, 0, 79, 74
2, 92744, Note_on_c, 0, 78, 0
2, 92772, Note_on_c, 0, 79, 0
2, 92812, Note_on_c, 0, 73, 58
2, 92872, Note_on_c, 0, 73, 0
2, 92896, Note_on_c, 0, 74, 72
2, 92980, Note_on_c, 0, 74, 0
2, 92980, Note_on_c, 0, 75, 74
2, 93064, Note_on_c, 0, 76, 73
2, 93092, Note_on_c, 0, 75, 0
2, 93136, Note_on_c, 0, 76, 0
2, 93168, Note_on_c, 0, 70, 68
2, 93240, Note_on_c, 0, 70, 0
2, 93260, Note_on_c, 0, 71, 61
2, 93344, Note_on_c, 0, 71, 0
2, 93344, Note_on_c, 0, 72, 78
2, 93436, Note_on_c, 0, 73, 70
2, 93448, Note_on_c, 0, 72, 0
2, 93488, Note_on_c, 0, 73, 0
2, 93548, Note_on_c, 0, 64, 64
2, 93580, Control_c, 0, 64, 104
2, 93592, Control_c, 0, 64, 127
2, 93616, Note_on_c, 0, 64, 0
2, 93636, Note_on_c, 0, 65, 68
2, 93720, Note_on_c, 0, 66, 62
2, 93728, Note_on_c, 0, 65, 0
2, 93800, Note_on_c, 0, 67, 72
2, 93828, Note_on_c, 0, 66, 0
2, 93856, Note_on_c, 0, 67, 0
2, 93912, Control_c, 0, 64, 104
2, 93924, Control_c, 0, 64, 72
2, 93928, Note_on_c, 0, 61, 61
2, 93960, Control_c, 0, 64, 127
2, 93980, Note_on_c, 0, 61, 0
2, 94024, Note_on_c, 0, 62, 75
2, 94084, Note_on_c, 0, 62, 0
2, 94108, Note_on_c, 0, 63, 67
2, 94148, Control_c, 0, 64, 104
2, 94180, Control_c, 0, 64, 127
2, 94200, Note_on_c, 0, 64, 82
2, 94228, Note_on_c, 0, 63, 0
2, 94252, Note_on_c, 0, 64, 0
2, 94276, Control_c, 0, 64, 88
2, 94288, Control_c, 0, 64, 56
2, 94312, Note_on_c, 0, 65, 66
2, 94312, Control_c, 0, 64, 88
2, 94324, Control_c, 0, 64, 127
2, 94360, Control_c, 0, 64, 88
2, 94368, Control_c, 0, 64, 56
2, 94380, Control_c, 0, 64, 24
2, 94392, Control_c, 0, 64, 0
2, 94400, Note_on_c, 0, 65, 0
2, 94400, Note_on_c, 0, 66, 72
2, 94404, Control_c, 0, 64, 40
2, 94412, Control_c, 0, 64, 56
2, 94428, Control_c, 0, 64, 72
2, 94440, Control_c, 0, 64, 56
2, 94452, Control_c, 0, 64, 24
2, 94464, Control_c, 0, 64, 0
2, 94520, Note_on_c, 0, 66, 0
2, 94520, Note_on_c, 0, 69, 74
2, 94524, Control_c, 0, 64, 24
2, 94532, Control_c, 0, 64, 72
2, 94544, Control_c, 0, 64, 88
2, 94560, Control_c, 0, 64, 72
2, 94572, Control_c, 0, 64, 24
2, 94580, Control_c, 0, 64, 0
2, 94608, Note_on_c, 0, 69, 0
2, 94632, Note_on_c, 0, 67, 67
2, 94652, Control_c, 0, 64, 24
2, 94660, Control_c, 0, 64, 56
2, 94672, Control_c, 0, 64, 104
2, 94688, Control_c, 0, 64, 127
2, 94728, Note_on_c, 0, 67, 0
2, 94732, Control_c, 0, 64, 72
2, 94740, Note_on_c, 0, 64, 75
2, 94744, Control_c, 0, 64, 40
2, 94756, Control_c, 0, 64, 24
2, 94768, Control_c, 0, 64, 56
2, 94780, Control_c, 0, 64, 88
2, 94792, Control_c, 0, 64, 127
2, 94836, Note_on_c, 0, 64, 0
2, 94864, Note_on_c, 0, 61, 67
2, 94900, Control_c, 0, 64, 56
2, 94912, Control_c, 0, 64, 0
2, 94976, Note_on_c, 0, 61, 0
2, 94984, Note_on_c, 0, 58, 71
2, 95004, Control_c, 0, 64, 40
2, 95016, Control_c, 0, 64, 88
2, 95028, Control_c, 0, 64, 127
2, 95056, Note_on_c, 0, 58, 0
2, 95172, Note_on_c, 0, 58, 68
2, 95180, Control_c, 0, 64, 88
2, 95192, Control_c, 0, 64, 0
2, 95252, Control_c, 0, 64, 40
2, 95264, Control_c, 0, 64, 104
2, 95272, Control_c, 0, 64, 127
2, 95324, Note_on_c, 0, 58, 0
2, 95340, Note_on_c, 0, 63, 70
2, 95368, Control_c, 0, 64, 40
2, 95380, Control_c, 0, 64, 0
2, 95428, Control_c, 0, 64, 40
2, 95440, Control_c, 0, 64, 88
2, 95452, Control_c, 0, 64, 127
2, 95548, Note_on_c, 0, 63, 0
2, 95576, Note_on_c, 0, 61, 58
2, 95672, Control_c, 0, 64, 104
2, 95684, Control_c, 0, 64, 72
2, 95696, Control_c, 0, 64, 0
2, 95800, Control_c, 0, 64, 72
2, 95816, Control_c, 0, 64, 127
2, 95844, Note_on_c, 0, 61, 0
2, 96300, Note_on_c, 0, 59, 61
2, 96344, Note_on_c, 0, 59, 0
2, 96496, Note_on_c, 0, 59, 71
2, 96516, Note_on_c, 0, 47, 46
2, 96524, Note_on_c, 0, 35, 44
2, 96552, Control_c, 0, 64, 104
2, 96564, Control_c, 0, 64, 24
2, 96580, Control_c, 0, 64, 0
2, 96636, Control_c, 0, 64, 104
2, 96648, Control_c, 0, 64, 127
2, 96680, Note_on_c, 0, 59, 0
2, 96696, Note_on_c, 0, 64, 56
2, 96768, Note_on_c, 0, 35, 0
2, 96784, Note_on_c, 0, 47, 0
2, 96788, Note_on_c, 0, 64, 0
2, 96840, Note_on_c, 0, 59, 63
2, 96924, Note_on_c, 0, 59, 0
2, 97036, Note_on_c, 0, 68, 67
2, 97144, Note_on_c, 0, 68, 0
2, 97208, Note_on_c, 0, 64, 62
2, 97296, Note_on_c, 0, 64, 0
2, 97352, Note_on_c, 0, 59, 65
2, 97432, Note_on_c, 0, 59, 0
2, 97460, Note_on_c, 0, 80, 84
2, 97472, Note_on_c, 0, 76, 72
2, 97496, Note_on_c, 0, 76, 0
2, 97508, Note_on_c, 0, 80, 0
2, 97564, Note_on_c, 0, 56, 72
2, 97572, Note_on_c, 0, 80, 84
2, 97576, Note_on_c, 0, 76, 73
2, 97604, Note_on_c, 0, 76, 0
2, 97616, Note_on_c, 0, 80, 0
2, 97708, Note_on_c, 0, 56, 0
2, 97752, Note_on_c, 0, 64, 63
2, 97844, Note_on_c, 0, 64, 0
2, 97900, Note_on_c, 0, 59, 62
2, 98004, Note_on_c, 0, 59, 0
2, 98068, Note_on_c, 0, 68, 72
2, 98164, Note_on_c, 0, 68, 0
2, 98224, Note_on_c, 0, 64, 60
2, 98344, Note_on_c, 0, 64, 0
2, 98404, Note_on_c, 0, 59, 69
2, 98508, Note_on_c, 0, 59, 0
2, 98604, Note_on_c, 0, 60, 70
2, 98616, Note_on_c, 0, 48, 60
2, 98628, Note_on_c, 0, 36, 45
2, 98668, Control_c, 0, 64, 104
2, 98680, Control_c, 0, 64, 24
2, 98692, Control_c, 0, 64, 0
2, 98772, Control_c, 0, 64, 88
2, 98784, Control_c, 0, 64, 127
2, 98788, Note_on_c, 0, 64, 45
2, 98796, Note_on_c, 0, 60, 0
2, 98880, Note_on_c, 0, 64, 0
2, 98928, Note_on_c, 0, 60, 58
2, 99024, Note_on_c, 0, 60, 0
2, 99040, Note_on_c, 0, 36, 0
2, 99080, Note_on_c, 0, 48, 0
2, 99096, Note_on_c, 0, 68, 68
2, 99204, Note_on_c, 0, 68, 0
2, 99268, Note_on_c, 0, 64, 61
2, 99356, Note_on_c, 0, 64, 0
2, 99408, Note_on_c, 0, 60, 59
2, 99524, Note_on_c, 0, 80, 90
2, 99524, Note_on_c, 0, 76, 84
2, 99544, Note_on_c, 0, 60, 0
2, 99564, Note_on_c, 0, 80, 0
2, 99580, Note_on_c, 0, 76, 0
2, 99620, Note_on_c, 0, 56, 72
2, 99632, Note_on_c, 0, 80, 87
2, 99640, Note_on_c, 0, 76, 64
2, 99680, Note_on_c, 0, 80, 0
2, 99688, Note_on_c, 0, 76, 0
2, 99792, Note_on_c, 0, 64, 72
2, 99840, Note_on_c, 0, 56, 0
2, 99880, Note_on_c, 0, 64, 0
2, 99940, Note_on_c, 0, 60, 65
2, 99996, Note_on_c, 0, 60, 0
2, 100092, Note_on_c, 0, 68, 66
2, 100204, Note_on_c, 0, 68, 0
2, 100252, Note_on_c, 0, 64, 64
2, 100376, Note_on_c, 0, 64, 0
2, 100408, Note_on_c, 0, 60, 59
2, 100476, Note_on_c, 0, 60, 0
2, 100620, Note_on_c, 0, 56, 63
2, 100620, Note_on_c, 0, 37, 57
2, 100620, Note_on_c, 0, 49, 49
2, 100704, Control_c, 0, 64, 88
2, 100716, Control_c, 0, 64, 40
2, 100724, Control_c, 0, 64, 0
2, 100820, Note_on_c, 0, 65, 68
2, 100836, Control_c, 0, 64, 72
2, 100844, Control_c, 0, 64, 127
2, 100932, Note_on_c, 0, 65, 0
2, 100972, Note_on_c, 0, 61, 63
2, 101104, Note_on_c, 0, 61, 0
2, 101136, Note_on_c, 0, 68, 68
2, 101264, Note_on_c, 0, 68, 0
2, 101304, Note_on_c, 0, 65, 69
2, 101372, Note_on_c, 0, 37, 0
2, 101396, Note_on_c, 0, 49, 0
2, 101400, Note_on_c, 0, 56, 0
2, 101412, Note_on_c, 0, 65, 0
2, 101452, Note_on_c, 0, 61, 67
2, 101592, Note_on_c, 0, 61, 0
2, 101612, Note_on_c, 0, 56, 63
2, 101624, Note_on_c, 0, 36, 54
2, 101624, Note_on_c, 0, 48, 55
2, 101716, Control_c, 0, 64, 104
2, 101724, Control_c, 0, 64, 40
2, 101736, Control_c, 0, 64, 0
2, 101800, Note_on_c, 0, 65, 66
2, 101832, Control_c, 0, 64, 72
2, 101844, Control_c, 0, 64, 127
2, 101924, Note_on_c, 0, 65, 0
2, 101952, Note_on_c, 0, 61, 65
2, 102072, Note_on_c, 0, 61, 0
2, 102104, Note_on_c, 0, 68, 72
2, 102228, Note_on_c, 0, 68, 0
2, 102268, Note_on_c, 0, 65, 70
2, 102364, Note_on_c, 0, 56, 0
2, 102368, Note_on_c, 0, 65, 0
2, 102368, Note_on_c, 0, 48, 0
2, 102376, Note_on_c, 0, 36, 0
2, 102412, Note_on_c, 0, 61, 71
2, 102516, Note_on_c, 0, 61, 0
2, 102584, Note_on_c, 0, 56, 74
2, 102620, Note_on_c, 0, 47, 36
2, 102620, Note_on_c, 0, 35, 53
2, 102656, Control_c, 0, 64, 104
2, 102668, Control_c, 0, 64, 56
2, 102680, Control_c, 0, 64, 0
2, 102768, Note_on_c, 0, 65, 72
2, 102780, Control_c, 0, 64, 88
2, 102788, Control_c, 0, 64, 127
2, 102888, Note_on_c, 0, 65, 0
2, 102928, Note_on_c, 0, 62, 68
2, 103024, Note_on_c, 0, 62, 0
2, 103088, Note_on_c, 0, 68, 70
2, 103204, Note_on_c, 0, 68, 0
2, 103256, Note_on_c, 0, 65, 61
2, 103320, Note_on_c, 0, 56, 0
2, 103348, Note_on_c, 0, 65, 0
2, 103404, Note_on_c, 0, 62, 47
2, 103508, Note_on_c, 0, 62, 0
2, 103584, Note_on_c, 0, 55, 64
2, 103668, Control_c, 0, 64, 88
2, 103676, Control_c, 0, 64, 0
2, 103760, Note_on_c, 0, 65, 69
2, 103776, Control_c, 0, 64, 88
2, 103788, Control_c, 0, 64, 127
2, 103868, Note_on_c, 0, 65, 0
2, 103916, Note_on_c, 0, 62, 59
2, 104008, Note_on_c, 0, 62, 0
2, 104024, Note_on_c, 0, 55, 0
2, 104096, Note_on_c, 0, 67, 64
2, 104188, Note_on_c, 0, 67, 0
2, 104252, Note_on_c, 0, 65, 53
2, 104292, Note_on_c, 0, 35, 0
2, 104328, Note_on_c, 0, 47, 0
2, 104336, Note_on_c, 0, 65, 0
2, 104392, Note_on_c, 0, 62, 50
2, 104508, Note_on_c, 0, 62, 0
2, 104572, Note_on_c, 0, 55, 63
2, 104580, Note_on_c, 0, 48, 56
2, 104592, Note_on_c, 0, 36, 48
2, 104652, Control_c, 0, 64, 88
2, 104664, Control_c, 0, 64, 40
2, 104672, Control_c, 0, 64, 0
2, 104752, Note_on_c, 0, 63, 62
2, 104764, Control_c, 0, 64, 88
2, 104776, Control_c, 0, 64, 127
2, 104876, Note_on_c, 0, 63, 0
2, 104904, Note_on_c, 0, 60, 71
2, 105032, Note_on_c, 0, 60, 0
2, 105076, Note_on_c, 0, 67, 58
2, 105104, Note_on_c, 0, 36, 0
2, 105108, Note_on_c, 0, 48, 0
2, 105196, Note_on_c, 0, 63, 48
2, 105252, Note_on_c, 0, 55, 0
2, 105300, Note_on_c, 0, 67, 0
2, 105356, Note_on_c, 0, 63, 0
2, 105372, Note_on_c, 0, 60, 49
2, 105428, Note_on_c, 0, 60, 0
2, 105520, Note_on_c, 0, 51, 68
2, 105680, Note_on_c, 0, 60, 66
2, 105736, Note_on_c, 0, 51, 0
2, 105804, Note_on_c, 0, 60, 0
2, 105828, Note_on_c, 0, 55, 63
2, 105988, Note_on_c, 0, 55, 0
2, 106000, Note_on_c, 0, 75, 92
2, 106028, Note_on_c, 0, 63, 42
2, 106164, Note_on_c, 0, 63, 0
2, 106176, Note_on_c, 0, 60, 60
2, 106320, Note_on_c, 0, 60, 0
2, 106324, Note_on_c, 0, 55, 70
2, 106420, Note_on_c, 0, 75, 0
2, 106540, Note_on_c, 0, 41, 56
2, 106540, Note_on_c, 0, 75, 96
2, 106540, Note_on_c, 0, 53, 56
2, 106576, Note_on_c, 0, 55, 0
2, 106592, Control_c, 0, 64, 72
2, 106600, Note_on_c, 0, 53, 0
2, 106608, Control_c, 0, 64, 0
2, 106672, Control_c, 0, 64, 72
2, 106676, Note_on_c, 0, 41, 0
2, 106684, Control_c, 0, 64, 127
2, 106796, Note_on_c, 0, 61, 65
2, 106932, Note_on_c, 0, 61, 0
2, 106980, Note_on_c, 0, 56, 65
2, 107132, Note_on_c, 0, 65, 64
2, 107176, Note_on_c, 0, 56, 0
2, 107272, Note_on_c, 0, 61, 63
2, 107348, Note_on_c, 0, 65, 0
2, 107424, Note_on_c, 0, 56, 58
2, 107444, Note_on_c, 0, 61, 0
2, 107468, Note_on_c, 0, 56, 0
2, 107500, Note_on_c, 0, 75, 0
2, 107532, Note_on_c, 0, 73, 83
2, 107596, Note_on_c, 0, 73, 0
2, 107648, Note_on_c, 0, 73, 83
2, 107748, Note_on_c, 0, 73, 0
2, 107768, Note_on_c, 0, 75, 80
2, 107852, Note_on_c, 0, 73, 77
2, 107864, Note_on_c, 0, 75, 0
2, 107924, Note_on_c, 0, 73, 0
2, 107936, Note_on_c, 0, 72, 88
2, 108008, Note_on_c, 0, 73, 79
2, 108016, Note_on_c, 0, 72, 0
2, 108088, Note_on_c, 0, 75, 79
2, 108096, Note_on_c, 0, 73, 0
2, 108148, Note_on_c, 0, 75, 0
2, 108172, Note_on_c, 0, 76, 82
2, 108240, Note_on_c, 0, 76, 0
2, 108248, Note_on_c, 0, 77, 87
2, 108316, Note_on_c, 0, 77, 0
2, 108332, Note_on_c, 0, 79, 89
2, 108396, Note_on_c, 0, 79, 0
2, 108412, Note_on_c, 0, 77, 89
2, 108480, Note_on_c, 0, 77, 0
2, 108492, Note_on_c, 0, 76, 83
2, 108564, Note_on_c, 0, 76, 0
2, 108568, Note_on_c, 0, 77, 91
2, 108644, Note_on_c, 0, 77, 0
2, 108660, Note_on_c, 0, 79, 83
2, 108724, Note_on_c, 0, 79, 0
2, 108736, Note_on_c, 0, 80, 75
2, 108808, Note_on_c, 0, 80, 0
2, 108832, Note_on_c, 0, 79, 92
2, 108904, Note_on_c, 0, 79, 0
2, 108932, Note_on_c, 0, 82, 88
2, 109012, Note_on_c, 0, 82, 0
2, 109028, Note_on_c, 0, 80, 81
2, 109108, Note_on_c, 0, 80, 0
2, 109124, Note_on_c, 0, 79, 92
2, 109192, Note_on_c, 0, 79, 0
2, 109212, Note_on_c, 0, 77, 88
2, 109280, Note_on_c, 0, 77, 0
2, 109300, Note_on_c, 0, 76, 83
2, 109360, Note_on_c, 0, 76, 0
2, 109392, Note_on_c, 0, 79, 75
2, 109452, Note_on_c, 0, 79, 0
2, 109488, Note_on_c, 0, 77, 71
2, 109560, Note_on_c, 0, 77, 0
2, 109572, Note_on_c, 0, 76, 80
2, 109656, Note_on_c, 0, 76, 0
2, 109680, Note_on_c, 0, 77, 80
2, 109744, Note_on_c, 0, 77, 0
2, 109788, Note_on_c, 0, 68, 64
2, 109944, Note_on_c, 0, 75, 86
2, 109972, Note_on_c, 0, 68, 0
2, 110088, Note_on_c, 0, 73, 83
2, 110116, Note_on_c, 0, 75, 0
2, 110168, Note_on_c, 0, 73, 0
2, 110308, Note_on_c, 0, 43, 51
2, 110316, Note_on_c, 0, 73, 81
2, 110360, Control_c, 0, 64, 104
2, 110368, Control_c, 0, 64, 40
2, 110380, Control_c, 0, 64, 0
2, 110460, Control_c, 0, 64, 104
2, 110468, Control_c, 0, 64, 127
2, 110480, Note_on_c, 0, 55, 61
2, 110508, Note_on_c, 0, 43, 0
2, 110576, Note_on_c, 0, 55, 0
2, 110588, Note_on_c, 0, 51, 68
2, 110700, Note_on_c, 0, 51, 0
2, 110716, Note_on_c, 0, 73, 0
2, 110732, Note_on_c, 0, 72, 78
2, 110732, Note_on_c, 0, 60, 54
2, 110816, Note_on_c, 0, 60, 0
2, 110872, Note_on_c, 0, 55, 64
2, 110964, Note_on_c, 0, 55, 0
2, 111008, Note_on_c, 0, 63, 44
2, 111080, Note_on_c, 0, 63, 0
2, 111140, Note_on_c, 0, 60, 72
2, 111180, Note_on_c, 0, 72, 0
2, 111244, Note_on_c, 0, 60, 0
2, 111248, Note_on_c, 0, 67, 69
2, 111284, Note_on_c, 0, 67, 0
2, 111364, Note_on_c, 0, 67, 75
2, 111436, Note_on_c, 0, 63, 67
2, 111456, Note_on_c, 0, 63, 0
2, 111460, Note_on_c, 0, 67, 0
2, 111512, Note_on_c, 0, 70, 81
2, 111568, Note_on_c, 0, 68, 90
2, 111592, Note_on_c, 0, 70, 0
2, 111676, Note_on_c, 0, 68, 0
2, 111900, Note_on_c, 0, 67, 86
2, 111968, Note_on_c, 0, 67, 0
2, 112108, Note_on_c, 0, 59, 79
2, 112116, Control_c, 0, 64, 104
2, 112128, Note_on_c, 0, 43, 50
2, 112128, Control_c, 0, 64, 24
2, 112136, Control_c, 0, 64, 0
2, 112192, Control_c, 0, 64, 56
2, 112204, Control_c, 0, 64, 127
2, 112208, Note_on_c, 0, 43, 0
2, 112244, Note_on_c, 0, 59, 0
2, 112268, Note_on_c, 0, 65, 89
2, 112292, Note_on_c, 0, 56, 28
2, 112360, Note_on_c, 0, 65, 0
2, 112372, Note_on_c, 0, 56, 0
2, 112384, Note_on_c, 0, 68, 91
2, 112400, Note_on_c, 0, 53, 55
2, 112448, Note_on_c, 0, 68, 0
2, 112468, Note_on_c, 0, 53, 0
2, 112516, Note_on_c, 0, 75, 96
2, 112528, Note_on_c, 0, 59, 46
2, 112592, Note_on_c, 0, 59, 0
2, 112612, Note_on_c, 0, 75, 0
2, 112640, Note_on_c, 0, 56, 58
2, 112696, Note_on_c, 0, 75, 87
2, 112800, Note_on_c, 0, 65, 54
2, 112804, Note_on_c, 0, 56, 0
2, 112876, Note_on_c, 0, 65, 0
2, 112932, Note_on_c, 0, 59, 58
2, 113072, Note_on_c, 0, 68, 60
2, 113160, Note_on_c, 0, 68, 0
2, 113208, Note_on_c, 0, 65, 58
2, 113252, Note_on_c, 0, 59, 0
2, 113252, Note_on_c, 0, 75, 0
2, 113288, Note_on_c, 0, 65, 0
2, 113376, Note_on_c, 0, 75, 74
2, 113536, Note_on_c, 0, 75, 0
2, 113760, Note_on_c, 0, 75, 75
2, 114532, Note_on_c, 0, 75, 0
2, 114564, Note_on_c, 0, 74, 55
2, 114728, Note_on_c, 0, 74, 0
2, 114784, Control_c, 0, 64, 72
2, 114796, Control_c, 0, 64, 127
2, 114920, Control_c, 0, 64, 104
2, 114928, Control_c, 0, 64, 56
2, 114940, Control_c, 0, 64, 0
2, 115012, Control_c, 0, 64, 40
2, 115020, Control_c, 0, 64, 104
2, 115032, Note_on_c, 0, 48, 48
2, 115032, Control_c, 0, 64, 127
2, 115040, Note_on_c, 0, 36, 53
2, 115092, Note_on_c, 0, 36, 0
2, 115108, Note_on_c, 0, 48, 0
2, 115256, Note_on_c, 0, 63, 48
2, 115272, Note_on_c, 0, 55, 48
2, 115416, Note_on_c, 0, 63, 0
2, 115416, Note_on_c, 0, 67, 71
2, 115420, Note_on_c, 0, 55, 0
2, 115436, Note_on_c, 0, 67, 0
2, 115436, Note_on_c, 0, 60, 45
2, 115464, Note_on_c, 0, 60, 0
2, 115628, Note_on_c, 0, 79, 92
2, 115628, Note_on_c, 0, 72, 71
2, 115628, Note_on_c, 0, 63, 57
2, 115692, Note_on_c, 0, 72, 0
2, 115716, Note_on_c, 0, 63, 0
2, 115788, Note_on_c, 0, 79, 0
2, 115788, Note_on_c, 0, 60, 53
2, 115804, Note_on_c, 0, 67, 55
2, 115932, Note_on_c, 0, 63, 46
2, 115940, Note_on_c, 0, 72, 72
2, 115972, Note_on_c, 0, 60, 0
2, 115984, Note_on_c, 0, 63, 0
2, 116072, Note_on_c, 0, 72, 0
2, 116076, Note_on_c, 0, 77, 95
2, 116108, Note_on_c, 0, 67, 0
2, 116136, Note_on_c, 0, 77, 0
2, 116220, Note_on_c, 0, 63, 52
2, 116228, Note_on_c, 0, 55, 48
2, 116288, Note_on_c, 0, 63, 0
2, 116340, Note_on_c, 0, 55, 0
2, 116340, Note_on_c, 0, 75, 88
2, 116360, Note_on_c, 0, 67, 51
2, 116364, Note_on_c, 0, 60, 58
2, 116392, Note_on_c, 0, 67, 0
2, 116416, Note_on_c, 0, 75, 0
2, 116432, Note_on_c, 0, 60, 0
2, 116492, Note_on_c, 0, 74, 92
2, 116500, Note_on_c, 0, 63, 54
2, 116504, Note_on_c, 0, 55, 50
2, 116588, Note_on_c, 0, 63, 0
2, 116588, Note_on_c, 0, 74, 0
2, 116612, Note_on_c, 0, 55, 0
2, 116632, Note_on_c, 0, 67, 62
2, 116636, Note_on_c, 0, 60, 49
2, 116688, Note_on_c, 0, 60, 0
2, 116720, Note_on_c, 0, 67, 0
2, 116764, Note_on_c, 0, 55, 59
2, 116768, Note_on_c, 0, 72, 96
2, 116784, Note_on_c, 0, 55, 0
2, 116784, Note_on_c, 0, 63, 44
2, 116808, Note_on_c, 0, 63, 0
2, 116832, Note_on_c, 0, 72, 0
2, 116976, Note_on_c, 0, 72, 94
2, 116992, Note_on_c, 0, 44, 61
2, 116996, Control_c, 0, 64, 88
2, 117004, Control_c, 0, 64, 0
2, 117068, Control_c, 0, 64, 56
2, 117076, Control_c, 0, 64, 127
2, 117080, Note_on_c, 0, 44, 0
2, 117148, Note_on_c, 0, 62, 45
2, 117148, Note_on_c, 0, 56, 38
2, 117200, Note_on_c, 0, 62, 0
2, 117220, Note_on_c, 0, 56, 0
2, 117240, Note_on_c, 0, 72, 0
2, 117248, Note_on_c, 0, 65, 63
2, 117256, Note_on_c, 0, 60, 63
2, 117304, Note_on_c, 0, 60, 0
2, 117324, Note_on_c, 0, 65, 0
2, 117384, Note_on_c, 0, 71, 89
2, 117388, Note_on_c, 0, 56, 54
2, 117396, Note_on_c, 0, 62, 54
2, 117432, Note_on_c, 0, 62, 0
2, 117476, Note_on_c, 0, 56, 0
2, 117484, Note_on_c, 0, 71, 0
2, 117516, Note_on_c, 0, 65, 73
2, 117532, Note_on_c, 0, 60, 55
2, 117576, Note_on_c, 0, 60, 0
2, 117636, Note_on_c, 0, 65, 0
2, 117656, Note_on_c, 0, 72, 99
2, 117656, Note_on_c, 0, 56, 58
2, 117664, Note_on_c, 0, 62, 71
2, 117680, Note_on_c, 0, 56, 0
2, 117684, Note_on_c, 0, 62, 0
2, 117708, Note_on_c, 0, 72, 0
2, 117868, Note_on_c, 0, 75, 90
2, 117872, Control_c, 0, 64, 56
2, 117880, Note_on_c, 0, 43, 63
2, 117880, Control_c, 0, 64, 0
2, 117944, Control_c, 0, 64, 88
2, 117948, Note_on_c, 0, 43, 0
2, 117952, Control_c, 0, 64, 127
2, 118024, Note_on_c, 0, 65, 54
2, 118032, Note_on_c, 0, 56, 49
2, 118120, Note_on_c, 0, 65, 0
2, 118144, Note_on_c, 0, 75, 0
2, 118148, Note_on_c, 0, 56, 0
2, 118160, Note_on_c, 0, 68, 57
2, 118180, Note_on_c, 0, 59, 50
2, 118224, Note_on_c, 0, 68, 0
2, 118228, Note_on_c, 0, 59, 0
2, 118316, Note_on_c, 0, 75, 81
2, 118324, Note_on_c, 0, 56, 44
2, 118340, Note_on_c, 0, 65, 46
2, 118404, Note_on_c, 0, 65, 0
2, 118452, Note_on_c, 0, 75, 0
2, 118464, Note_on_c, 0, 56, 0
2, 118464, Note_on_c, 0, 68, 45
2, 118492, Note_on_c, 0, 59, 49
2, 118564, Note_on_c, 0, 68, 0
2, 118612, Note_on_c, 0, 59, 0
2, 118640, Note_on_c, 0, 56, 44
2, 118672, Note_on_c, 0, 74, 65
2, 118684, Note_on_c, 0, 56, 0
2, 118688, Note_on_c, 0, 65, 46
2, 118716, Note_on_c, 0, 65, 0
2, 118716, Note_on_c, 0, 74, 0
2, 118892, Note_on_c, 0, 36, 58
2, 118892, Control_c, 0, 64, 40
2, 118904, Control_c, 0, 64, 0
2, 118936, Control_c, 0, 64, 72
2, 118944, Control_c, 0, 64, 127
2, 118948, Note_on_c, 0, 36, 0
2, 119076, Note_on_c, 0, 63, 54
2, 119076, Note_on_c, 0, 55, 47
2, 119152, Note_on_c, 0, 63, 0
2, 119184, Note_on_c, 0, 55, 0
2, 119208, Note_on_c, 0, 60, 62
2, 119212, Note_on_c, 0, 67, 59
2, 119244, Note_on_c, 0, 60, 0
2, 119336, Note_on_c, 0, 67, 0
2, 119368, Note_on_c, 0, 72, 71
2, 119368, Note_on_c, 0, 63, 55
2, 119460, Note_on_c, 0, 63, 0
2, 119460, Note_on_c, 0, 72, 0
2, 119500, Note_on_c, 0, 67, 55
2, 119512, Note_on_c, 0, 60, 42
2, 119640, Note_on_c, 0, 67, 0
2, 119640, Note_on_c, 0, 63, 46
2, 119648, Note_on_c, 0, 72, 62
2, 119672, Note_on_c, 0, 60, 0
2, 119684, Note_on_c, 0, 72, 0
2, 119696, Note_on_c, 0, 63, 0
2, 119940, Note_on_c, 0, 63, 45
2, 119952, Note_on_c, 0, 55, 46
2, 120032, Note_on_c, 0, 63, 0
2, 120056, Note_on_c, 0, 55, 0
2, 120076, Note_on_c, 0, 67, 58
2, 120080, Note_on_c, 0, 60, 52
2, 120148, Note_on_c, 0, 60, 0
2, 120156, Note_on_c, 0, 67, 0
2, 120216, Note_on_c, 0, 63, 50
2, 120216, Note_on_c, 0, 55, 46
2, 120272, Note_on_c, 0, 55, 0
2, 120304, Note_on_c, 0, 63, 0
2, 120348, Note_on_c, 0, 67, 52
2, 120352, Note_on_c, 0, 60, 41
2, 120412, Note_on_c, 0, 60, 0
2, 120436, Note_on_c, 0, 67, 0
2, 120452, Note_on_c, 0, 55, 50
2, 120472, Note_on_c, 0, 63, 57
2, 120476, Note_on_c, 0, 55, 0
2, 120528, Note_on_c, 0, 63, 0
2, 120608, Control_c, 0, 64, 56
2, 120620, Note_on_c, 0, 44, 65
2, 120620, Control_c, 0, 64, 0
2, 120680, Control_c, 0, 64, 40
2, 120688, Control_c, 0, 64, 127
2, 120724, Note_on_c, 0, 44, 0
2, 120764, Note_on_c, 0, 62, 67
2, 120772, Note_on_c, 0, 53, 52
2, 120848, Note_on_c, 0, 62, 0
2, 120864, Note_on_c, 0, 53, 0
2, 120900, Note_on_c, 0, 60, 63
2, 120900, Note_on_c, 0, 65, 65
2, 120960, Note_on_c, 0, 60, 0
2, 121004, Note_on_c, 0, 65, 0
2, 121028, Note_on_c, 0, 53, 62
2, 121028, Note_on_c, 0, 62, 61
2, 121096, Note_on_c, 0, 53, 0
2, 121120, Note_on_c, 0, 62, 0
2, 121144, Note_on_c, 0, 60, 50
2, 121164, Note_on_c, 0, 65, 62
2, 121224, Note_on_c, 0, 60, 0
2, 121252, Note_on_c, 0, 65, 0
2, 121272, Note_on_c, 0, 53, 61
2, 121296, Note_on_c, 0, 62, 68
2, 121324, Note_on_c, 0, 53, 0
2, 121336, Note_on_c, 0, 62, 0
2, 121444, Control_c, 0, 64, 104
2, 121452, Note_on_c, 0, 44, 70
2, 121452, Control_c, 0, 64, 0
2, 121508, Control_c, 0, 64, 56
2, 121516, Control_c, 0, 64, 127
2, 121528, Note_on_c, 0, 44, 0
2, 121584, Note_on_c, 0, 65, 70
2, 121592, Note_on_c, 0, 56, 53
2, 121708, Note_on_c, 0, 56, 0
2, 121728, Note_on_c, 0, 65, 0
2, 121736, Note_on_c, 0, 71, 74
2, 121740, Note_on_c, 0, 59, 49
2, 121804, Note_on_c, 0, 71, 0
2, 121840, Note_on_c, 0, 59, 0
2, 121884, Note_on_c, 0, 56, 44
2, 121884, Note_on_c, 0, 64, 64
2, 121984, Note_on_c, 0, 56, 0
2, 122004, Note_on_c, 0, 64, 0
2, 122012, Note_on_c, 0, 71, 71
2, 122028, Note_on_c, 0, 59, 32
2, 122088, Note_on_c, 0, 71, 0
2, 122128, Note_on_c, 0, 56, 63
2, 122128, Note_on_c, 0, 64, 51
2, 122132, Note_on_c, 0, 59, 0
2, 122156, Note_on_c, 0, 56, 0
2, 122160, Note_on_c, 0, 64, 0
2, 122312, Control_c, 0, 64, 72
2, 122312, Control_c, 0, 64, 0
2, 122320, Note_on_c, 0, 45, 70
2, 122384, Control_c, 0, 64, 88
2, 122392, Control_c, 0, 64, 127
2, 122412, Note_on_c, 0, 45, 0
2, 122440, Note_on_c, 0, 64, 61
2, 122440, Note_on_c, 0, 57, 64
2, 122584, Note_on_c, 0, 69, 61
2, 122584, Note_on_c, 0, 61, 50
2, 122788, Note_on_c, 0, 85, 98
2, 122788, Control_c, 0, 64, 100
2, 122792, Note_on_c, 0, 73, 75
2, 122792, Note_on_c, 0, 64, 64
2, 122868, Note_on_c, 0, 73, 0
2, 122908, Note_on_c, 0, 57, 0
2, 122924, Note_on_c, 0, 64, 0
2, 122940, Note_on_c, 0, 64, 0
2, 122948, Note_on_c, 0, 76, 66
2, 122948, Note_on_c, 0, 69, 57
2, 122988, Note_on_c, 0, 69, 0
2, 122996, Note_on_c, 0, 85, 0
2, 123032, Note_on_c, 0, 76, 0
2, 123048, Note_on_c, 0, 73, 67
2, 123048, Note_on_c, 0, 64, 66
2, 123056, Note_on_c, 0, 69, 0
2, 123112, Note_on_c, 0, 64, 0
2, 123136, Note_on_c, 0, 61, 0
2, 123164, Note_on_c, 0, 73, 0
2, 123184, Note_on_c, 0, 83, 100
2, 123304, Note_on_c, 0, 83, 0
2, 123312, Note_on_c, 0, 73, 66
2, 123320, Note_on_c, 0, 61, 55
2, 123400, Note_on_c, 0, 73, 0
2, 123416, Note_on_c, 0, 61, 0
2, 123444, Note_on_c, 0, 81, 91
2, 123444, Note_on_c, 0, 64, 63
2, 123444, Note_on_c, 0, 76, 63
2, 123496, Note_on_c, 0, 76, 0
2, 123548, Note_on_c, 0, 64, 0
2, 123564, Note_on_c, 0, 81, 0
2, 123588, Note_on_c, 0, 80, 91
2, 123588, Note_on_c, 0, 61, 46
2, 123588, Note_on_c, 0, 69, 69
2, 123708, Note_on_c, 0, 69, 0
2, 123712, Note_on_c, 0, 61, 0
2, 123728, Note_on_c, 0, 73, 59
2, 123744, Note_on_c, 0, 64, 51
2, 123788, Note_on_c, 0, 80, 0
2, 123792, Note_on_c, 0, 73, 0
2, 123848, Note_on_c, 0, 78, 94
2, 123848, Note_on_c, 0, 69, 69
2, 123848, Note_on_c, 0, 61, 57
2, 123856, Note_on_c, 0, 64, 0
2, 123868, Note_on_c, 0, 69, 0
2, 123888, Note_on_c, 0, 61, 0
2, 123916, Note_on_c, 0, 78, 0
2, 124012, Note_on_c, 0, 78, 88
2, 124108, Control_c, 0, 64, 88
2, 124120, Control_c, 0, 64, 0
2, 124144, Note_on_c, 0, 71, 72
2, 124144, Note_on_c, 0, 56, 70
2, 124180, Control_c, 0, 64, 104
2, 124192, Control_c, 0, 64, 127
2, 124216, Note_on_c, 0, 56, 0
2, 124224, Note_on_c, 0, 71, 0
2, 124264, Note_on_c, 0, 68, 56
2, 124264, Note_on_c, 0, 66, 55
2, 124264, Note_on_c, 0, 62, 55
2, 124324, Note_on_c, 0, 66, 0
2, 124328, Note_on_c, 0, 62, 0
2, 124372, Note_on_c, 0, 78, 0
2, 124404, Note_on_c, 0, 75, 81
2, 124404, Note_on_c, 0, 59, 63
2, 124464, Note_on_c, 0, 59, 0
2, 124468, Note_on_c, 0, 68, 0
2, 124516, Note_on_c, 0, 75, 0
2, 124536, Note_on_c, 0, 62, 58
2, 124536, Note_on_c, 0, 64, 51
2, 124540, Note_on_c, 0, 68, 65
2, 124600, Note_on_c, 0, 64, 0
2, 124624, Note_on_c, 0, 68, 0
2, 124656, Note_on_c, 0, 62, 0
2, 124664, Note_on_c, 0, 76, 92
2, 124672, Note_on_c, 0, 56, 52
2, 124676, Note_on_c, 0, 71, 64
2, 124704, Note_on_c, 0, 71, 0
2, 124704, Note_on_c, 0, 56, 0
2, 124756, Note_on_c, 0, 76, 0
2, 124860, Note_on_c, 0, 79, 96
2, 124988, Control_c, 0, 64, 56
2, 124996, Control_c, 0, 64, 0
2, 125012, Note_on_c, 0, 71, 50
2, 125012, Note_on_c, 0, 56, 58
2, 125060, Control_c, 0, 64, 88
2, 125068, Control_c, 0, 64, 127
2, 125104, Note_on_c, 0, 56, 0
2, 125112, Note_on_c, 0, 71, 0
2, 125128, Note_on_c, 0, 68, 44
2, 125128, Note_on_c, 0, 62, 51
2, 125144, Note_on_c, 0, 65, 39
2, 125180, Note_on_c, 0, 65, 0
2, 125184, Note_on_c, 0, 62, 0
2, 125188, Note_on_c, 0, 79, 0
2, 125208, Note_on_c, 0, 68, 0
2, 125264, Note_on_c, 0, 77, 83
2, 125272, Note_on_c, 0, 56, 46
2, 125368, Note_on_c, 0, 56, 0
2, 125380, Note_on_c, 0, 77, 0
2, 125396, Note_on_c, 0, 68, 57
2, 125396, Note_on_c, 0, 62, 46
2, 125396, Note_on_c, 0, 64, 43
2, 125464, Note_on_c, 0, 62, 0
2, 125484, Note_on_c, 0, 68, 0
2, 125520, Note_on_c, 0, 64, 0
2, 125552, Note_on_c, 0, 76, 70
2, 125552, Note_on_c, 0, 71, 51
2, 125552, Note_on_c, 0, 56, 54
2, 125604, Note_on_c, 0, 71, 0
2, 125608, Note_on_c, 0, 56, 0
2, 125624, Note_on_c, 0, 76, 0
2, 125780, Control_c, 0, 64, 88
2, 125788, Note_on_c, 0, 45, 65
2, 125792, Control_c, 0, 64, 0
2, 125844, Control_c, 0, 64, 72
2, 125852, Control_c, 0, 64, 127
2, 125892, Note_on_c, 0, 45, 0
2, 125920, Note_on_c, 0, 57, 59
2, 125920, Note_on_c, 0, 64, 57
2, 125984, Note_on_c, 0, 57, 0
2, 125988, Note_on_c, 0, 64, 0
2, 126060, Note_on_c, 0, 69, 73
2, 126068, Note_on_c, 0, 61, 42
2, 126152, Note_on_c, 0, 69, 0
2, 126176, Note_on_c, 0, 61, 0
2, 126204, Note_on_c, 0, 73, 74
2, 126212, Note_on_c, 0, 64, 60
2, 126304, Note_on_c, 0, 73, 0
2, 126312, Note_on_c, 0, 64, 0
2, 126332, Note_on_c, 0, 69, 54
2, 126344, Note_on_c, 0, 76, 71
2, 126412, Note_on_c, 0, 76, 0
2, 126412, Note_on_c, 0, 69, 0
2, 126480, Note_on_c, 0, 73, 54
2, 126488, Note_on_c, 0, 64, 48
2, 126544, Note_on_c, 0, 64, 0
2, 126548, Note_on_c, 0, 73, 0
2, 126748, Note_on_c, 0, 69, 65
2, 126752, Note_on_c, 0, 61, 50
2, 126836, Note_on_c, 0, 61, 0
2, 126852, Note_on_c, 0, 69, 0
2, 126872, Note_on_c, 0, 73, 68
2, 126880, Note_on_c, 0, 64, 55
2, 126948, Note_on_c, 0, 64, 0
2, 126964, Note_on_c, 0, 73, 0
2, 127024, Note_on_c, 0, 57, 52
2, 127028, Note_on_c, 0, 64, 53
2, 127104, Note_on_c, 0, 64, 0
2, 127148, Note_on_c, 0, 61, 49
2, 127152, Note_on_c, 0, 69, 63
2, 127212, Note_on_c, 0, 57, 0
2, 127268, Note_on_c, 0, 69, 0
2, 127276, Note_on_c, 0, 73, 77
2, 127304, Note_on_c, 0, 64, 40
2, 127320, Note_on_c, 0, 73, 0
2, 127324, Note_on_c, 0, 64, 0
2, 127336, Note_on_c, 0, 61, 0
2, 127444, Note_on_c, 0, 78, 90
2, 127536, Control_c, 0, 64, 72
2, 127548, Control_c, 0, 64, 0
2, 127584, Note_on_c, 0, 71, 69
2, 127592, Note_on_c, 0, 56, 62
2, 127620, Control_c, 0, 64, 72
2, 127628, Control_c, 0, 64, 127
2, 127656, Note_on_c, 0, 71, 0
2, 127704, Note_on_c, 0, 56, 0
2, 127712, Note_on_c, 0, 66, 48
2, 127716, Note_on_c, 0, 68, 56
2, 127728, Note_on_c, 0, 62, 50
2, 127756, Note_on_c, 0, 62, 0
2, 127788, Note_on_c, 0, 66, 0
2, 127792, Note_on_c, 0, 78, 0
2, 127844, Note_on_c, 0, 75, 87
2, 127852, Note_on_c, 0, 56, 54
2, 127932, Note_on_c, 0, 68, 0
2, 127964, Note_on_c, 0, 56, 0
2, 127980, Note_on_c, 0, 75, 0
2, 127980, Note_on_c, 0, 62, 54
2, 127984, Note_on_c, 0, 71, 71
2, 127984, Note_on_c, 0, 64, 58
2, 128064, Note_on_c, 0, 71, 0
2, 128084, Note_on_c, 0, 64, 0
2, 128104, Note_on_c, 0, 76, 89
2, 128108, Note_on_c, 0, 56, 59
2, 128120, Note_on_c, 0, 68, 57
2, 128128, Note_on_c, 0, 62, 0
2, 128160, Note_on_c, 0, 56, 0
2, 128164, Note_on_c, 0, 68, 0
2, 128196, Note_on_c, 0, 76, 0
2, 128416, Control_c, 0, 64, 104
2, 128424, Control_c, 0, 64, 0
2, 128460, Note_on_c, 0, 56, 60
2, 128464, Note_on_c, 0, 71, 61
2, 128496, Control_c, 0, 64, 127
2, 128548, Note_on_c, 0, 56, 0
2, 128556, Note_on_c, 0, 71, 0
2, 128576, Note_on_c, 0, 62, 50
2, 128580, Note_on_c, 0, 68, 59
2, 128588, Note_on_c, 0, 65, 48
2, 128640, Note_on_c, 0, 65, 0
2, 128652, Note_on_c, 0, 62, 0
2, 128684, Note_on_c, 0, 68, 0
2, 128712, Note_on_c, 0, 56, 55
2, 128824, Note_on_c, 0, 56, 0
2, 128844, Note_on_c, 0, 68, 47
2, 128852, Note_on_c, 0, 62, 53
2, 128860, Note_on_c, 0, 65, 50
2, 128932, Note_on_c, 0, 65, 0
2, 128956, Note_on_c, 0, 62, 0
2, 128996, Note_on_c, 0, 56, 58
2, 129020, Note_on_c, 0, 68, 0
2, 129032, Note_on_c, 0, 56, 0
2, 129168, Note_on_c, 0, 45, 75
2, 129192, Control_c, 0, 64, 72
2, 129204, Note_on_c, 0, 45, 0
2, 129204, Control_c, 0, 64, 0
2, 129256, Control_c, 0, 64, 56
2, 129268, Control_c, 0, 64, 127
2, 129356, Note_on_c, 0, 66, 51
2, 129356, Note_on_c, 0, 57, 60
2, 129412, Note_on_c, 0, 57, 0
2, 129424, Note_on_c, 0, 66, 0
2, 129460, Note_on_c, 0, 69, 70
2, 129460, Note_on_c, 0, 61, 64
2, 129536, Note_on_c, 0, 61, 0
2, 129564, Note_on_c, 0, 69, 0
2, 129600, Note_on_c, 0, 77, 93
2, 129616, Note_on_c, 0, 73, 54
2, 129620, Note_on_c, 0, 57, 59
2, 129672, Note_on_c, 0, 73, 0
2, 129692, Note_on_c, 0, 57, 0
2, 129724, Note_on_c, 0, 77, 0
2, 129732, Note_on_c, 0, 66, 54
2, 129732, Note_on_c, 0, 61, 59
2, 129808, Note_on_c, 0, 61, 0
2, 129856, Note_on_c, 0, 57, 52
2, 129856, Note_on_c, 0, 78, 96
2, 129856, Note_on_c, 0, 69, 75
2, 129876, Note_on_c, 0, 57, 0
2, 129888, Note_on_c, 0, 66, 0
2, 129916, Note_on_c, 0, 78, 0
2, 129920, Note_on_c, 0, 69, 0
2, 130024, Note_on_c, 0, 41, 77
2, 130036, Control_c, 0, 64, 56
2, 130052, Control_c, 0, 64, 0
2, 130080, Note_on_c, 0, 41, 0
2, 130116, Control_c, 0, 64, 88
2, 130124, Control_c, 0, 64, 127
2, 130196, Note_on_c, 0, 59, 69
2, 130196, Note_on_c, 0, 68, 56
2, 130284, Note_on_c, 0, 68, 0
2, 130284, Note_on_c, 0, 59, 0
2, 130320, Note_on_c, 0, 71, 70
2, 130320, Note_on_c, 0, 62, 48
2, 130372, Note_on_c, 0, 62, 0
2, 130412, Note_on_c, 0, 71, 0
2, 130452, Note_on_c, 0, 74, 78
2, 130452, Note_on_c, 0, 59, 56
2, 130468, Note_on_c, 0, 74, 0
2, 130572, Note_on_c, 0, 59, 0
2, 130572, Note_on_c, 0, 68, 71
2, 130572, Note_on_c, 0, 62, 73
2, 130588, Note_on_c, 0, 62, 0
2, 130636, Note_on_c, 0, 68, 0
2, 130700, Note_on_c, 0, 71, 62
2, 130700, Note_on_c, 0, 80, 80
2, 130700, Note_on_c, 0, 59, 65
2, 130728, Note_on_c, 0, 71, 0
2, 130764, Note_on_c, 0, 59, 0
2, 130764, Note_on_c, 0, 80, 0
2, 130852, Control_c, 0, 64, 56
2, 130856, Note_on_c, 0, 42, 71
2, 130860, Control_c, 0, 64, 0
2, 130912, Note_on_c, 0, 42, 0
2, 130916, Control_c, 0, 64, 56
2, 130924, Control_c, 0, 64, 127
2, 131000, Note_on_c, 0, 61, 74
2, 131084, Note_on_c, 0, 61, 0
2, 131120, Note_on_c, 0, 69, 84
2, 131124, Note_on_c, 0, 66, 60
2, 131172, Note_on_c, 0, 66, 0
2, 131260, Note_on_c, 0, 52, 88
2, 131268, Note_on_c, 0, 73, 77
2, 131280, Control_c, 0, 64, 40
2, 131292, Control_c, 0, 64, 0
2, 131340, Control_c, 0, 64, 127
2, 131368, Note_on_c, 0, 73, 0
2, 131380, Note_on_c, 0, 52, 0
2, 131384, Note_on_c, 0, 61, 65
2, 131392, Note_on_c, 0, 78, 75
2, 131436, Note_on_c, 0, 69, 0
2, 131472, Note_on_c, 0, 78, 0
2, 131488, Note_on_c, 0, 61, 0
2, 131504, Note_on_c, 0, 80, 86
2, 131504, Note_on_c, 0, 66, 67
2, 131568, Note_on_c, 0, 66, 0
2, 131628, Note_on_c, 0, 80, 0
2, 131640, Note_on_c, 0, 83, 96
2, 131652, Note_on_c, 0, 51, 78
2, 131660, Control_c, 0, 64, 24
2, 131668, Control_c, 0, 64, 0
2, 131704, Control_c, 0, 64, 88
2, 131712, Control_c, 0, 64, 127
2, 131744, Note_on_c, 0, 51, 0
2, 131764, Note_on_c, 0, 83, 0
2, 131764, Note_on_c, 0, 81, 91
2, 131776, Note_on_c, 0, 60, 77
2, 131804, Note_on_c, 0, 81, 0
2, 131888, Note_on_c, 0, 60, 0
2, 131888, Note_on_c, 0, 84, 98
2, 131900, Note_on_c, 0, 66, 75
2, 131940, Note_on_c, 0, 66, 0
2, 132044, Note_on_c, 0, 90, 95
2, 132048, Note_on_c, 0, 84, 0
2, 132052, Control_c, 0, 64, 104
2, 132060, Note_on_c, 0, 50, 82
2, 132060, Control_c, 0, 64, 0
2, 132108, Note_on_c, 0, 50, 0
2, 132116, Control_c, 0, 64, 127
2, 132188, Note_on_c, 0, 92, 99
2, 132192, Note_on_c, 0, 90, 0
2, 132196, Note_on_c, 0, 60, 81
2, 132228, Note_on_c, 0, 92, 0
2, 132332, Note_on_c, 0, 66, 74
2, 132340, Note_on_c, 0, 102, 103
2, 132340, Note_on_c, 0, 90, 90
2, 132360, Note_on_c, 0, 60, 0
2, 132364, Note_on_c, 0, 66, 0
2, 132404, Note_on_c, 0, 90, 0
2, 132432, Note_on_c, 0, 102, 0
2, 132548, Note_on_c, 0, 101, 103
2, 132548, Note_on_c, 0, 89, 92
2, 132548, Note_on_c, 0, 37, 67
2, 132576, Control_c, 0, 64, 0
2, 132592, Note_on_c, 0, 37, 0
2, 132632, Control_c, 0, 64, 127
2, 132676, Note_on_c, 0, 89, 0
2, 132684, Note_on_c, 0, 101, 0
2, 132740, Note_on_c, 0, 65, 50
2, 132752, Note_on_c, 0, 56, 53
2, 132800, Note_on_c, 0, 56, 0
2, 132808, Note_on_c, 0, 65, 0
2, 132852, Note_on_c, 0, 61, 61
2, 132860, Note_on_c, 0, 68, 50
2, 132912, Note_on_c, 0, 61, 0
2, 132924, Note_on_c, 0, 68, 0
2, 132980, Note_on_c, 0, 89, 106
2, 132984, Note_on_c, 0, 77, 96
2, 132988, Note_on_c, 0, 65, 71
2, 133000, Note_on_c, 0, 56, 61
2, 133060, Note_on_c, 0, 56, 0
2, 133080, Note_on_c, 0, 65, 0
2, 133112, Note_on_c, 0, 68, 54
2, 133116, Note_on_c, 0, 61, 55
2, 133176, Note_on_c, 0, 89, 0
2, 133196, Note_on_c, 0, 68, 0
2, 133200, Note_on_c, 0, 77, 0
2, 133200, Note_on_c, 0, 61, 0
2, 133240, Note_on_c, 0, 65, 68
2, 133248, Note_on_c, 0, 56, 54
2, 133280, Note_on_c, 0, 65, 0
2, 133284, Note_on_c, 0, 56, 0
2, 133356, Note_on_c, 0, 75, 94
2, 133356, Note_on_c, 0, 87, 105
2, 133476, Note_on_c, 0, 65, 73
2, 133480, Note_on_c, 0, 56, 61
2, 133524, Note_on_c, 0, 87, 0
2, 133532, Note_on_c, 0, 75, 0
2, 133540, Note_on_c, 0, 65, 0
2, 133540, Note_on_c, 0, 56, 0
2, 133580, Note_on_c, 0, 68, 65
2, 133608, Note_on_c, 0, 61, 53
2, 133640, Note_on_c, 0, 85, 97
2, 133644, Note_on_c, 0, 73, 86
2, 133648, Note_on_c, 0, 68, 0
2, 133660, Note_on_c, 0, 61, 0
2, 133680, Note_on_c, 0, 73, 0
2, 133684, Note_on_c, 0, 85, 0
2, 133720, Note_on_c, 0, 84, 110
2, 133720, Note_on_c, 0, 72, 92
2, 133744, Note_on_c, 0, 65, 65
2, 133748, Note_on_c, 0, 56, 50
2, 133808, Note_on_c, 0, 56, 0
2, 133816, Note_on_c, 0, 65, 0
2, 133840, Note_on_c, 0, 84, 0
2, 133848, Note_on_c, 0, 61, 52
2, 133852, Note_on_c, 0, 72, 0
2, 133860, Note_on_c, 0, 68, 54
2, 133920, Note_on_c, 0, 68, 0
2, 133944, Note_on_c, 0, 65, 70
2, 133952, Note_on_c, 0, 61, 0
2, 133964, Note_on_c, 0, 65, 0
2, 133968, Note_on_c, 0, 56, 64
2, 133996, Note_on_c, 0, 56, 0
2, 134032, Note_on_c, 0, 82, 101
2, 134036, Note_on_c, 0, 70, 97
2, 134072, Note_on_c, 0, 70, 0
2, 134076, Note_on_c, 0, 82, 0
2, 134144, Note_on_c, 0, 82, 101
2, 134144, Note_on_c, 0, 70, 92
2, 134144, Note_on_c, 0, 37, 75
2, 134160, Control_c, 0, 64, 88
2, 134172, Control_c, 0, 64, 0
2, 134180, Note_on_c, 0, 37, 0
2, 134216, Control_c, 0, 64, 127
2, 134276, Note_on_c, 0, 63, 74
2, 134292, Note_on_c, 0, 54, 58
2, 134312, Note_on_c, 0, 70, 0
2, 134312, Note_on_c, 0, 82, 0
2, 134332, Note_on_c, 0, 54, 0
2, 134352, Note_on_c, 0, 63, 0
2, 134388, Note_on_c, 0, 66, 63
2, 134408, Note_on_c, 0, 60, 54
2, 134436, Note_on_c, 0, 60, 0
2, 134452, Note_on_c, 0, 66, 0
2, 134508, Note_on_c, 0, 79, 100
2, 134512, Note_on_c, 0, 63, 63
2, 134516, Note_on_c, 0, 67, 83
2, 134544, Note_on_c, 0, 54, 53
2, 134596, Note_on_c, 0, 54, 0
2, 134600, Note_on_c, 0, 67, 0
2, 134600, Note_on_c, 0, 63, 0
2, 134640, Note_on_c, 0, 79, 0
2, 134644, Note_on_c, 0, 66, 65
2, 134656, Note_on_c, 0, 60, 62
2, 134700, Note_on_c, 0, 66, 0
2, 134720, Note_on_c, 0, 60, 0
2, 134740, Note_on_c, 0, 63, 73
2, 134752, Note_on_c, 0, 54, 60
2, 134776, Note_on_c, 0, 54, 0
2, 134780, Note_on_c, 0, 63, 0
2, 134796, Note_on_c, 0, 80, 100
2, 134796, Note_on_c, 0, 68, 95
2, 134836, Note_on_c, 0, 68, 0
2, 134836, Note_on_c, 0, 80, 0
2, 134904, Note_on_c, 0, 83, 106
2, 134904, Note_on_c, 0, 71, 88
2, 135016, Note_on_c, 0, 63, 68
2, 135016, Control_c, 0, 64, 72
2, 135020, Note_on_c, 0, 54, 67
2, 135024, Control_c, 0, 64, 0
2, 135068, Control_c, 0, 64, 127
2, 135072, Note_on_c, 0, 54, 0
2, 135096, Note_on_c, 0, 63, 0
2, 135136, Note_on_c, 0, 66, 57
2, 135140, Note_on_c, 0, 83, 0
2, 135152, Note_on_c, 0, 71, 0
2, 135152, Note_on_c, 0, 60, 52
2, 135204, Note_on_c, 0, 66, 0
2, 135208, Note_on_c, 0, 60, 0
2, 135264, Note_on_c, 0, 81, 94
2, 135264, Note_on_c, 0, 69, 84
2, 135276, Note_on_c, 0, 54, 60
2, 135276, Note_on_c, 0, 63, 60
2, 135348, Note_on_c, 0, 54, 0
2, 135364, Note_on_c, 0, 63, 0
2, 135392, Note_on_c, 0, 66, 54
2, 135396, Note_on_c, 0, 60, 57
2, 135400, Note_on_c, 0, 69, 0
2, 135408, Note_on_c, 0, 81, 0
2, 135456, Note_on_c, 0, 66, 0
2, 135464, Note_on_c, 0, 60, 0
2, 135464, Note_on_c, 0, 63, 66
2, 135488, Note_on_c, 0, 54, 47
2, 135500, Note_on_c, 0, 63, 0
2, 135504, Note_on_c, 0, 54, 0
2, 135544, Note_on_c, 0, 80, 98
2, 135544, Note_on_c, 0, 68, 86
2, 135576, Note_on_c, 0, 68, 0
2, 135576, Note_on_c, 0, 80, 0
2, 135628, Note_on_c, 0, 80, 106
2, 135628, Note_on_c, 0, 68, 91
2, 135684, Control_c, 0, 64, 56
2, 135692, Control_c, 0, 64, 0
2, 135744, Note_on_c, 0, 68, 0
2, 135748, Note_on_c, 0, 65, 75
2, 135748, Control_c, 0, 64, 127
2, 135760, Note_on_c, 0, 56, 59
2, 135776, Note_on_c, 0, 80, 0
2, 135796, Note_on_c, 0, 56, 0
2, 135820, Note_on_c, 0, 65, 0
2, 135868, Note_on_c, 0, 68, 54
2, 135876, Note_on_c, 0, 61, 56
2, 135940, Note_on_c, 0, 61, 0
2, 135940, Note_on_c, 0, 68, 0
2, 135992, Note_on_c, 0, 101, 117
2, 135996, Note_on_c, 0, 89, 106
2, 136004, Note_on_c, 0, 65, 74
2, 136012, Note_on_c, 0, 56, 63
2, 136060, Note_on_c, 0, 56, 0
2, 136080, Note_on_c, 0, 65, 0
2, 136112, Note_on_c, 0, 68, 64
2, 136112, Note_on_c, 0, 61, 61
2, 136176, Note_on_c, 0, 68, 0
2, 136184, Note_on_c, 0, 61, 0
2, 136192, Note_on_c, 0, 101, 0
2, 136208, Note_on_c, 0, 89, 0
2, 136228, Note_on_c, 0, 65, 76
2, 136236, Note_on_c, 0, 56, 63
2, 136276, Note_on_c, 0, 56, 0
2, 136280, Note_on_c, 0, 65, 0
2, 136336, Note_on_c, 0, 99, 112
2, 136340, Note_on_c, 0, 87, 99
2, 136448, Note_on_c, 0, 65, 77
2, 136456, Note_on_c, 0, 56, 66
2, 136508, Note_on_c, 0, 56, 0
2, 136516, Note_on_c, 0, 65, 0
2, 136520, Note_on_c, 0, 87, 0
2, 136520, Note_on_c, 0, 99, 0
2, 136548, Note_on_c, 0, 68, 60
2, 136556, Note_on_c, 0, 61, 57
2, 136600, Note_on_c, 0, 97, 100
2, 136604, Note_on_c, 0, 85, 94
2, 136620, Note_on_c, 0, 61, 0
2, 136636, Note_on_c, 0, 68, 0
2, 136636, Note_on_c, 0, 85, 0
2, 136648, Note_on_c, 0, 97, 0
2, 136684, Note_on_c, 0, 96, 107
2, 136684, Note_on_c, 0, 84, 93
2, 136696, Note_on_c, 0, 65, 71
2, 136704, Note_on_c, 0, 56, 54
2, 136752, Note_on_c, 0, 56, 0
2, 136764, Note_on_c, 0, 65, 0
2, 136780, Note_on_c, 0, 84, 0
2, 136800, Note_on_c, 0, 61, 44
2, 136808, Note_on_c, 0, 68, 63
2, 136824, Note_on_c, 0, 96, 0
2, 136884, Note_on_c, 0, 68, 0
2, 136888, Note_on_c, 0, 65, 72
2, 136900, Note_on_c, 0, 61, 0
2, 136904, Note_on_c, 0, 56, 64
2, 136908, Note_on_c, 0, 65, 0
2, 136936, Note_on_c, 0, 56, 0
2, 136972, Note_on_c, 0, 94, 99
2, 136972, Note_on_c, 0, 82, 90
2, 137008, Note_on_c, 0, 82, 0
2, 137012, Note_on_c, 0, 94, 0
2, 137080, Note_on_c, 0, 94, 101
2, 137080, Note_on_c, 0, 82, 95
2, 137080, Note_on_c, 0, 37, 77
2, 137084, Control_c, 0, 64, 104
2, 137096, Control_c, 0, 64, 24
2, 137104, Control_c, 0, 64, 0
2, 137116, Note_on_c, 0, 37, 0
2, 137120, Control_c, 0, 64, 24
2, 137132, Control_c, 0, 64, 127
2, 137204, Note_on_c, 0, 63, 77
2, 137212, Note_on_c, 0, 54, 63
2, 137216, Note_on_c, 0, 94, 0
2, 137220, Note_on_c, 0, 82, 0
2, 137260, Note_on_c, 0, 54, 0
2, 137276, Note_on_c, 0, 63, 0
2, 137316, Note_on_c, 0, 66, 64
2, 137324, Note_on_c, 0, 60, 69
2, 137368, Note_on_c, 0, 66, 0
2, 137376, Note_on_c, 0, 60, 0
2, 137440, Note_on_c, 0, 67, 79
2, 137444, Note_on_c, 0, 91, 104
2, 137444, Note_on_c, 0, 79, 94
2, 137452, Note_on_c, 0, 60, 64
2, 137500, Note_on_c, 0, 60, 0
2, 137504, Note_on_c, 0, 67, 0
2, 137536, Note_on_c, 0, 79, 0
2, 137560, Note_on_c, 0, 54, 83
2, 137584, Note_on_c, 0, 91, 0
2, 137612, Note_on_c, 0, 54, 0
2, 137656, Note_on_c, 0, 68, 80
2, 137676, Note_on_c, 0, 60, 50
2, 137680, Note_on_c, 0, 63, 28
2, 137708, Note_on_c, 0, 92, 107
2, 137708, Note_on_c, 0, 80, 102
2, 137716, Note_on_c, 0, 68, 0
2, 137720, Note_on_c, 0, 60, 0
2, 137740, Note_on_c, 0, 63, 0
2, 137748, Note_on_c, 0, 80, 0
2, 137784, Note_on_c, 0, 92, 0
2, 137808, Note_on_c, 0, 54, 66
2, 137812, Note_on_c, 0, 95, 113
2, 137816, Note_on_c, 0, 83, 98
2, 137856, Note_on_c, 0, 54, 0
2, 137936, Note_on_c, 0, 71, 92
2, 137936, Note_on_c, 0, 63, 63
2, 137956, Note_on_c, 0, 63, 0
2, 137980, Note_on_c, 0, 71, 0
2, 137988, Note_on_c, 0, 95, 0
2, 138004, Note_on_c, 0, 83, 0
2, 138060, Note_on_c, 0, 54, 75
2, 138060, Note_on_c, 0, 60, 65
2, 138112, Note_on_c, 0, 54, 0
2, 138124, Note_on_c, 0, 60, 0
2, 138176, Note_on_c, 0, 63, 65
2, 138176, Note_on_c, 0, 93, 100
2, 138176, Note_on_c, 0, 81, 82
2, 138176, Note_on_c, 0, 69, 74
2, 138188, Note_on_c, 0, 60, 56
2, 138212, Note_on_c, 0, 63, 25
2, 138244, Note_on_c, 0, 63, 0
2, 138248, Note_on_c, 0, 60, 0
2, 138296, Note_on_c, 0, 54, 68
2, 138296, Note_on_c, 0, 60, 70
2, 138356, Note_on_c, 0, 54, 0
2, 138360, Note_on_c, 0, 60, 0
2, 138412, Note_on_c, 0, 63, 65
2, 138412, Note_on_c, 0, 68, 72
2, 138416, Note_on_c, 0, 63, 0
2, 138480, Note_on_c, 0, 92, 82
2, 138480, Note_on_c, 0, 80, 75
2, 138572, Note_on_c, 0, 37, 67
2, 138624, Note_on_c, 0, 80, 0
2, 138624, Note_on_c, 0, 92, 0
2, 138624, Note_on_c, 0, 68, 0
2, 138632, Note_on_c, 0, 69, 0
2, 138648, Note_on_c, 0, 63, 0
2, 138728, Note_on_c, 0, 93, 0
2, 138728, Note_on_c, 0, 81, 0
2, 138732, Note_on_c, 0, 53, 77
2, 138732, Note_on_c, 0, 44, 65
2, 138736, Note_on_c, 0, 37, 0
2, 138780, Note_on_c, 0, 53, 0
2, 138788, Note_on_c, 0, 44, 0
2, 138800, Note_on_c, 0, 49, 70
2, 138804, Note_on_c, 0, 56, 72
2, 138872, Note_on_c, 0, 49, 0
2, 138880, Note_on_c, 0, 61, 69
2, 138884, Note_on_c, 0, 56, 0
2, 138888, Note_on_c, 0, 53, 68
2, 138920, Note_on_c, 0, 61, 0
2, 138952, Note_on_c, 0, 53, 0
2, 138960, Note_on_c, 0, 56, 54
2, 138964, Note_on_c, 0, 65, 74
2, 139008, Note_on_c, 0, 65, 0
2, 139028, Note_on_c, 0, 56, 0
2, 139032, Note_on_c, 0, 68, 81
2, 139036, Note_on_c, 0, 61, 63
2, 139096, Control_c, 0, 64, 24
2, 139100, Note_on_c, 0, 61, 0
2, 139104, Note_on_c, 0, 73, 81
2, 139104, Control_c, 0, 64, 40
2, 139108, Control_c, 0, 64, 72
2, 139112, Note_on_c, 0, 68, 0
2, 139116, Note_on_c, 0, 65, 68
2, 139116, Control_c, 0, 64, 88
2, 139128, Control_c, 0, 64, 104
2, 139132, Note_on_c, 0, 73, 0
2, 139160, Note_on_c, 0, 65, 0
2, 139168, Control_c, 0, 64, 56
2, 139176, Note_on_c, 0, 77, 91
2, 139176, Control_c, 0, 64, 24
2, 139180, Control_c, 0, 64, 0
2, 139184, Note_on_c, 0, 68, 66
2, 139220, Note_on_c, 0, 77, 0
2, 139240, Note_on_c, 0, 68, 0
2, 139248, Note_on_c, 0, 80, 84
2, 139252, Control_c, 0, 64, 24
2, 139256, Note_on_c, 0, 73, 67
2, 139260, Control_c, 0, 64, 40
2, 139272, Control_c, 0, 64, 56
2, 139296, Control_c, 0, 64, 72
2, 139300, Note_on_c, 0, 73, 0
2, 139320, Control_c, 0, 64, 88
2, 139324, Note_on_c, 0, 80, 0
2, 139324, Note_on_c, 0, 85, 87
2, 139328, Note_on_c, 0, 77, 66
2, 139340, Control_c, 0, 64, 104
2, 139352, Note_on_c, 0, 85, 0
2, 139376, Note_on_c, 0, 77, 0
2, 139396, Note_on_c, 0, 89, 95
2, 139396, Note_on_c, 0, 80, 64
2, 139416, Note_on_c, 0, 89, 0
2, 139424, Control_c, 0, 64, 127
2, 139440, Note_on_c, 0, 80, 0
2, 139464, Control_c, 0, 64, 88
2, 139472, Control_c, 0, 64, 56
2, 139476, Note_on_c, 0, 85, 99
2, 139480, Control_c, 0, 64, 40
2, 139496, Control_c, 0, 64, 72
2, 139500, Note_on_c, 0, 85, 0
2, 139504, Control_c, 0, 64, 104
2, 139508, Control_c, 0, 64, 127
2, 139552, Note_on_c, 0, 85, 94
2, 139620, Note_on_c, 0, 85, 0
2, 139628, Note_on_c, 0, 97, 88
2, 139688, Note_on_c, 0, 97, 0
2, 139708, Note_on_c, 0, 85, 83
2, 139728, Control_c, 0, 64, 104
2, 139732, Control_c, 0, 64, 88
2, 139744, Control_c, 0, 64, 56
2, 139752, Control_c, 0, 64, 40
2, 139756, Note_on_c, 0, 85, 0
2, 139756, Control_c, 0, 64, 0
2, 139788, Note_on_c, 0, 97, 92
2, 139792, Note_on_c, 0, 81, 90
2, 139796, Note_on_c, 0, 93, 84
2, 139840, Note_on_c, 0, 93, 0
2, 139852, Note_on_c, 0, 97, 0
2, 139872, Note_on_c, 0, 90, 80
2, 139920, Note_on_c, 0, 81, 0
2, 139936, Note_on_c, 0, 90, 0
2, 139952, Note_on_c, 0, 78, 72
2, 139952, Note_on_c, 0, 85, 81
2, 139980, Note_on_c, 0, 78, 0
2, 139984, Note_on_c, 0, 85, 0
2, 140032, Note_on_c, 0, 81, 84
2, 140068, Note_on_c, 0, 81, 0
2, 140104, Note_on_c, 0, 73, 70
2, 140104, Note_on_c, 0, 90, 79
2, 140108, Note_on_c, 0, 85, 74
2, 140128, Note_on_c, 0, 73, 0
2, 140140, Note_on_c, 0, 90, 0
2, 140148, Note_on_c, 0, 85, 0
2, 140184, Note_on_c, 0, 81, 74
2, 140252, Note_on_c, 0, 81, 0
2, 140252, Note_on_c, 0, 69, 80
2, 140256, Note_on_c, 0, 78, 80
2, 140276, Note_on_c, 0, 69, 0
2, 140284, Note_on_c, 0, 78, 0
2, 140332, Note_on_c, 0, 73, 79
2, 140372, Note_on_c, 0, 73, 0
2, 140412, Note_on_c, 0, 78, 67
2, 140412, Note_on_c, 0, 81, 73
2, 140412, Note_on_c, 0, 66, 69
2, 140436, Note_on_c, 0, 66, 0
2, 140440, Note_on_c, 0, 81, 0
2, 140464, Note_on_c, 0, 78, 0
2, 140484, Note_on_c, 0, 73, 69
2, 140544, Note_on_c, 0, 73, 0
2, 140556, Note_on_c, 0, 69, 73
2, 140556, Note_on_c, 0, 61, 61
2, 140588, Note_on_c, 0, 61, 0
2, 140588, Note_on_c, 0, 69, 0
2, 140624, Note_on_c, 0, 66, 70
2, 140672, Note_on_c, 0, 66, 0
2, 140704, Note_on_c, 0, 73, 72
2, 140708, Note_on_c, 0, 57, 72
2, 140716, Note_on_c, 0, 69, 58
2, 140736, Note_on_c, 0, 57, 0
2, 140740, Note_on_c, 0, 73, 0
2, 140760, Note_on_c, 0, 69, 0
2, 140780, Note_on_c, 0, 66, 68
2, 140844, Note_on_c, 0, 66, 0
2, 140860, Note_on_c, 0, 61, 67
2, 140864, Note_on_c, 0, 54, 67
2, 140880, Note_on_c, 0, 54, 0
2, 140892, Note_on_c, 0, 61, 0
2, 140936, Note_on_c, 0, 57, 68
2, 140956, Note_on_c, 0, 57, 0
2, 141028, Note_on_c, 0, 38, 83
2, 141052, Control_c, 0, 64, 56
2, 141056, Control_c, 0, 64, 88
2, 141064, Control_c, 0, 64, 127
2, 141200, Note_on_c, 0, 54, 68
2, 141200, Note_on_c, 0, 45, 65
2, 141220, Note_on_c, 0, 38, 0
2, 141228, Note_on_c, 0, 54, 0
2, 141252, Note_on_c, 0, 45, 0
2, 141272, Note_on_c, 0, 57, 63
2, 141276, Note_on_c, 0, 50, 60
2, 141304, Note_on_c, 0, 57, 0
2, 141324, Note_on_c, 0, 50, 0
2, 141340, Control_c, 0, 64, 88
2, 141348, Note_on_c, 0, 54, 45
2, 141348, Control_c, 0, 64, 56
2, 141352, Note_on_c, 0, 62, 79
2, 141352, Control_c, 0, 64, 40
2, 141372, Control_c, 0, 64, 88
2, 141376, Control_c, 0, 64, 127
2, 141396, Note_on_c, 0, 54, 0
2, 141416, Note_on_c, 0, 62, 0
2, 141424, Note_on_c, 0, 66, 69
2, 141436, Note_on_c, 0, 57, 34
2, 141444, Note_on_c, 0, 66, 0
2, 141484, Note_on_c, 0, 57, 0
2, 141496, Note_on_c, 0, 69, 90
2, 141500, Note_on_c, 0, 62, 65
2, 141536, Note_on_c, 0, 69, 0
2, 141548, Note_on_c, 0, 62, 0
2, 141572, Note_on_c, 0, 74, 90
2, 141580, Note_on_c, 0, 66, 44
2, 141620, Note_on_c, 0, 66, 0
2, 141644, Note_on_c, 0, 78, 79
2, 141648, Note_on_c, 0, 74, 0
2, 141652, Note_on_c, 0, 69, 64
2, 141668, Note_on_c, 0, 78, 0
2, 141684, Note_on_c, 0, 69, 0
2, 141716, Note_on_c, 0, 81, 94
2, 141720, Note_on_c, 0, 74, 58
2, 141760, Note_on_c, 0, 81, 0
2, 141768, Note_on_c, 0, 74, 0
2, 141796, Note_on_c, 0, 86, 89
2, 141796, Note_on_c, 0, 78, 64
2, 141844, Note_on_c, 0, 78, 0
2, 141856, Note_on_c, 0, 86, 0
2, 141860, Note_on_c, 0, 90, 83
2, 141868, Note_on_c, 0, 81, 62
2, 141880, Note_on_c, 0, 90, 0
2, 141896, Note_on_c, 0, 81, 0
2, 141936, Control_c, 0, 64, 104
2, 141940, Note_on_c, 0, 86, 91
2, 141940, Control_c, 0, 64, 56
2, 141948, Control_c, 0, 64, 0
2, 141968, Note_on_c, 0, 86, 0
2, 141980, Control_c, 0, 64, 24
2, 141984, Control_c, 0, 64, 56
2, 141992, Control_c, 0, 64, 88
2, 141996, Control_c, 0, 64, 127
2, 142016, Note_on_c, 0, 86, 96
2, 142084, Note_on_c, 0, 86, 0
2, 142092, Note_on_c, 0, 98, 98
2, 142140, Note_on_c, 0, 98, 0
2, 142168, Note_on_c, 0, 86, 84
2, 142212, Note_on_c, 0, 86, 0
2, 142212, Control_c, 0, 64, 104
2, 142220, Control_c, 0, 64, 72
2, 142228, Control_c, 0, 64, 24
2, 142232, Control_c, 0, 64, 0
2, 142248, Note_on_c, 0, 98, 98
2, 142248, Note_on_c, 0, 82, 79
2, 142252, Note_on_c, 0, 94, 70
2, 142256, Control_c, 0, 64, 40
2, 142264, Control_c, 0, 64, 72
2, 142268, Control_c, 0, 64, 127
2, 142276, Note_on_c, 0, 82, 0
2, 142292, Note_on_c, 0, 98, 0
2, 142300, Note_on_c, 0, 94, 0
2, 142324, Note_on_c, 0, 91, 92
2, 142376, Note_on_c, 0, 91, 0
2, 142404, Note_on_c, 0, 86, 76
2, 142404, Note_on_c, 0, 79, 80
2, 142428, Note_on_c, 0, 79, 0
2, 142440, Note_on_c, 0, 86, 0
2, 142484, Note_on_c, 0, 82, 74
2, 142500, Control_c, 0, 64, 104
2, 142512, Control_c, 0, 64, 88
2, 142524, Note_on_c, 0, 82, 0
2, 142524, Control_c, 0, 64, 72
2, 142532, Control_c, 0, 64, 40
2, 142536, Control_c, 0, 64, 0
2, 142560, Note_on_c, 0, 91, 81
2, 142564, Note_on_c, 0, 86, 72
2, 142568, Note_on_c, 0, 74, 78
2, 142580, Control_c, 0, 64, 24
2, 142584, Control_c, 0, 64, 72
2, 142592, Control_c, 0, 64, 104
2, 142596, Note_on_c, 0, 91, 0
2, 142596, Control_c, 0, 64, 127
2, 142600, Note_on_c, 0, 74, 0
2, 142604, Note_on_c, 0, 86, 0
2, 142636, Note_on_c, 0, 82, 72
2, 142696, Note_on_c, 0, 82, 0
2, 142708, Note_on_c, 0, 79, 79
2, 142712, Note_on_c, 0, 70, 64
2, 142736, Note_on_c, 0, 79, 0
2, 142740, Note_on_c, 0, 70, 0
2, 142784, Note_on_c, 0, 74, 75
2, 142796, Control_c, 0, 64, 104
2, 142816, Control_c, 0, 64, 88
2, 142820, Note_on_c, 0, 74, 0
2, 142828, Control_c, 0, 64, 72
2, 142840, Control_c, 0, 64, 40
2, 142844, Control_c, 0, 64, 0
2, 142860, Note_on_c, 0, 82, 79
2, 142864, Note_on_c, 0, 67, 75
2, 142868, Note_on_c, 0, 79, 64
2, 142896, Control_c, 0, 64, 56
2, 142900, Note_on_c, 0, 82, 0
2, 142900, Control_c, 0, 64, 88
2, 142908, Control_c, 0, 64, 127
2, 142912, Note_on_c, 0, 79, 0
2, 142940, Note_on_c, 0, 74, 78
2, 142956, Note_on_c, 0, 67, 0
2, 142988, Note_on_c, 0, 74, 0
2, 143012, Note_on_c, 0, 70, 71
2, 143016, Note_on_c, 0, 62, 74
2, 143028, Control_c, 0, 64, 104
2, 143044, Note_on_c, 0, 62, 0
2, 143048, Note_on_c, 0, 70, 0
2, 143048, Control_c, 0, 64, 88
2, 143052, Control_c, 0, 64, 72
2, 143064, Control_c, 0, 64, 56
2, 143072, Control_c, 0, 64, 40
2, 143076, Control_c, 0, 64, 24
2, 143080, Note_on_c, 0, 67, 75
2, 143080, Control_c, 0, 64, 0
2, 143124, Note_on_c, 0, 67, 0
2, 143156, Note_on_c, 0, 58, 60
2, 143160, Note_on_c, 0, 74, 76
2, 143164, Note_on_c, 0, 70, 55
2, 143172, Control_c, 0, 64, 40
2, 143180, Control_c, 0, 64, 72
2, 143184, Note_on_c, 0, 58, 0
2, 143188, Control_c, 0, 64, 104
2, 143192, Note_on_c, 0, 74, 0
2, 143192, Control_c, 0, 64, 127
2, 143200, Note_on_c, 0, 70, 0
2, 143240, Note_on_c, 0, 67, 70
2, 143284, Note_on_c, 0, 67, 0
2, 143312, Note_on_c, 0, 62, 59
2, 143316, Note_on_c, 0, 55, 65
2, 143328, Note_on_c, 0, 55, 0
2, 143340, Note_on_c, 0, 62, 0
2, 143380, Note_on_c, 0, 58, 64
2, 143404, Note_on_c, 0, 58, 0
2, 143440, Control_c, 0, 64, 88
2, 143448, Control_c, 0, 64, 72
2, 143452, Control_c, 0, 64, 24
2, 143460, Control_c, 0, 64, 0
2, 143472, Note_on_c, 0, 39, 73
2, 143508, Control_c, 0, 64, 40
2, 143512, Control_c, 0, 64, 88
2, 143520, Control_c, 0, 64, 127
2, 143600, Note_on_c, 0, 39, 0
2, 143624, Note_on_c, 0, 46, 57
2, 143628, Note_on_c, 0, 55, 75
2, 143660, Note_on_c, 0, 55, 0
2, 143668, Note_on_c, 0, 46, 0
2, 143688, Note_on_c, 0, 51, 71
2, 143696, Note_on_c, 0, 58, 67
2, 143720, Note_on_c, 0, 51, 0
2, 143764, Control_c, 0, 64, 104
2, 143768, Control_c, 0, 64, 56
2, 143772, Note_on_c, 0, 58, 0
2, 143776, Note_on_c, 0, 63, 74
2, 143776, Control_c, 0, 64, 40
2, 143780, Control_c, 0, 64, 24
2, 143784, Note_on_c, 0, 58, 54
2, 143792, Note_on_c, 0, 55, 45
2, 143800, Control_c, 0, 64, 56
2, 143804, Note_on_c, 0, 63, 0
2, 143804, Control_c, 0, 64, 88
2, 143808, Control_c, 0, 64, 127
2, 143852, Note_on_c, 0, 67, 88
2, 143888, Note_on_c, 0, 67, 0
2, 143896, Note_on_c, 0, 55, 0
2, 143900, Note_on_c, 0, 58, 0
2, 143924, Note_on_c, 0, 70, 66
2, 143968, Note_on_c, 0, 70, 0
2, 143992, Note_on_c, 0, 75, 64
2, 143992, Note_on_c, 0, 79, 84
2, 144000, Note_on_c, 0, 75, 0
2, 144016, Note_on_c, 0, 79, 0
2, 144064, Control_c, 0, 64, 104
2, 144072, Control_c, 0, 64, 56
2, 144076, Note_on_c, 0, 47, 75
2, 144076, Control_c, 0, 64, 0
2, 144120, Control_c, 0, 64, 40
2, 144124, Control_c, 0, 64, 88
2, 144132, Control_c, 0, 64, 127
2, 144192, Control_c, 0, 64, 88
2, 144200, Control_c, 0, 64, 40
2, 144204, Control_c, 0, 64, 0
2, 144216, Note_on_c, 0, 47, 0
2, 144216, Note_on_c, 0, 54, 67
2, 144220, Note_on_c, 0, 63, 68
2, 144228, Control_c, 0, 64, 56
2, 144236, Control_c, 0, 64, 104
2, 144240, Control_c, 0, 64, 127
2, 144272, Note_on_c, 0, 54, 0
2, 144284, Note_on_c, 0, 63, 0
2, 144284, Note_on_c, 0, 66, 74
2, 144288, Note_on_c, 0, 59, 64
2, 144308, Note_on_c, 0, 66, 0
2, 144312, Note_on_c, 0, 59, 0
2, 144356, Note_on_c, 0, 71, 93
2, 144360, Note_on_c, 0, 63, 71
2, 144396, Note_on_c, 0, 71, 0
2, 144408, Note_on_c, 0, 63, 0
2, 144420, Note_on_c, 0, 75, 83
2, 144424, Note_on_c, 0, 66, 49
2, 144444, Note_on_c, 0, 71, 59
2, 144476, Note_on_c, 0, 75, 0
2, 144492, Note_on_c, 0, 78, 74
2, 144504, Note_on_c, 0, 71, 0
2, 144544, Note_on_c, 0, 66, 0
2, 144568, Note_on_c, 0, 87, 87
2, 144572, Note_on_c, 0, 78, 0
2, 144588, Note_on_c, 0, 87, 0
2, 144656, Note_on_c, 0, 44, 75
2, 144656, Control_c, 0, 64, 88
2, 144660, Control_c, 0, 64, 40
2, 144668, Control_c, 0, 64, 0
2, 144696, Control_c, 0, 64, 40
2, 144704, Note_on_c, 0, 44, 0
2, 144704, Control_c, 0, 64, 88
2, 144708, Control_c, 0, 64, 127
2, 144812, Note_on_c, 0, 56, 71
2, 144816, Note_on_c, 0, 71, 73
2, 144856, Note_on_c, 0, 56, 0
2, 144860, Note_on_c, 0, 71, 0
2, 144880, Note_on_c, 0, 75, 83
2, 144880, Note_on_c, 0, 59, 64
2, 144924, Note_on_c, 0, 59, 0
2, 144952, Note_on_c, 0, 80, 83
2, 144952, Note_on_c, 0, 83, 80
2, 144956, Note_on_c, 0, 75, 0
2, 144960, Note_on_c, 0, 68, 69
2, 144960, Note_on_c, 0, 63, 63
2, 144976, Note_on_c, 0, 80, 0
2, 145016, Note_on_c, 0, 83, 0
2, 145024, Note_on_c, 0, 83, 93
2, 145076, Note_on_c, 0, 68, 0
2, 145080, Note_on_c, 0, 83, 0
2, 145080, Note_on_c, 0, 63, 0
2, 145096, Note_on_c, 0, 87, 74
2, 145140, Note_on_c, 0, 87, 0
2, 145164, Note_on_c, 0, 95, 94
2, 145168, Note_on_c, 0, 92, 77
2, 145188, Note_on_c, 0, 95, 0
2, 145192, Note_on_c, 0, 92, 0
2, 145236, Control_c, 0, 64, 104
2, 145244, Control_c, 0, 64, 56
2, 145248, Control_c, 0, 64, 0
2, 145260, Note_on_c, 0, 52, 76
2, 145260, Note_on_c, 0, 40, 72
2, 145280, Control_c, 0, 64, 40
2, 145284, Note_on_c, 0, 40, 0
2, 145284, Control_c, 0, 64, 88
2, 145292, Note_on_c, 0, 52, 0
2, 145292, Control_c, 0, 64, 127
2, 145400, Note_on_c, 0, 71, 79
2, 145404, Note_on_c, 0, 59, 64
2, 145440, Note_on_c, 0, 71, 0
2, 145444, Note_on_c, 0, 59, 0
2, 145468, Note_on_c, 0, 76, 90
2, 145468, Note_on_c, 0, 64, 68
2, 145508, Note_on_c, 0, 64, 0
2, 145536, Note_on_c, 0, 76, 0
2, 145536, Note_on_c, 0, 80, 85
2, 145536, Note_on_c, 0, 83, 85
2, 145540, Note_on_c, 0, 68, 56
2, 145544, Note_on_c, 0, 71, 71
2, 145544, Note_on_c, 0, 64, 34
2, 145560, Note_on_c, 0, 80, 0
2, 145600, Note_on_c, 0, 83, 0
2, 145604, Note_on_c, 0, 83, 102
2, 145648, Note_on_c, 0, 83, 0
2, 145680, Note_on_c, 0, 88, 87
2, 145684, Note_on_c, 0, 71, 0
2, 145704, Note_on_c, 0, 68, 0
2, 145708, Note_on_c, 0, 64, 0
2, 145720, Note_on_c, 0, 88, 0
2, 145744, Note_on_c, 0, 92, 83
2, 145748, Note_on_c, 0, 95, 95
2, 145768, Note_on_c, 0, 95, 0
2, 145768, Note_on_c, 0, 92, 0
2, 145856, Note_on_c, 0, 36, 76
2, 145856, Note_on_c, 0, 48, 81
2, 145856, Control_c, 0, 64, 104
2, 145860, Control_c, 0, 64, 40
2, 145868, Control_c, 0, 64, 0
2, 145896, Note_on_c, 0, 36, 0
2, 145896, Control_c, 0, 64, 40
2, 145904, Control_c, 0, 64, 104
2, 145908, Control_c, 0, 64, 127
2, 145912, Note_on_c, 0, 48, 0
2, 146012, Note_on_c, 0, 76, 74
2, 146012, Note_on_c, 0, 67, 62
2, 146048, Note_on_c, 0, 76, 0
2, 146064, Note_on_c, 0, 67, 0
2, 146088, Note_on_c, 0, 79, 77
2, 146088, Note_on_c, 0, 72, 63
2, 146128, Note_on_c, 0, 72, 0
2, 146132, Note_on_c, 0, 79, 0
2, 146160, Note_on_c, 0, 84, 89
2, 146160, Note_on_c, 0, 76, 73
2, 146160, Note_on_c, 0, 88, 75
2, 146172, Note_on_c, 0, 84, 0
2, 146224, Note_on_c, 0, 88, 92
2, 146240, Note_on_c, 0, 88, 0
2, 146244, Note_on_c, 0, 76, 0
2, 146264, Note_on_c, 0, 88, 0
2, 146300, Note_on_c, 0, 91, 92
2, 146336, Note_on_c, 0, 91, 0
2, 146364, Note_on_c, 0, 100, 84
2, 146368, Note_on_c, 0, 96, 72
2, 146380, Note_on_c, 0, 96, 0
2, 146384, Note_on_c, 0, 100, 0
2, 146396, Control_c, 0, 64, 104
2, 146404, Control_c, 0, 64, 88
2, 146412, Control_c, 0, 64, 56
2, 146416, Control_c, 0, 64, 24
2, 146424, Control_c, 0, 64, 0
2, 146456, Note_on_c, 0, 33, 72
2, 146456, Note_on_c, 0, 45, 77
2, 146476, Note_on_c, 0, 33, 0
2, 146476, Control_c, 0, 64, 88
2, 146484, Control_c, 0, 64, 127
2, 146488, Note_on_c, 0, 45, 0
2, 146612, Note_on_c, 0, 76, 88
2, 146612, Note_on_c, 0, 60, 76
2, 146648, Note_on_c, 0, 60, 0
2, 146656, Note_on_c, 0, 76, 0
2, 146676, Note_on_c, 0, 81, 92
2, 146676, Note_on_c, 0, 64, 69
2, 146712, Note_on_c, 0, 64, 0
2, 146740, Note_on_c, 0, 81, 0
2, 146740, Control_c, 0, 64, 88
2, 146752, Control_c, 0, 64, 40
2, 146756, Note_on_c, 0, 88, 92
2, 146756, Note_on_c, 0, 84, 86
2, 146756, Note_on_c, 0, 72, 75
2, 146756, Note_on_c, 0, 69, 76
2, 146756, Control_c, 0, 64, 0
2, 146776, Note_on_c, 0, 84, 0
2, 146776, Control_c, 0, 64, 88
2, 146780, Note_on_c, 0, 88, 0
2, 146780, Note_on_c, 0, 72, 0
2, 146780, Control_c, 0, 64, 127
2, 146784, Note_on_c, 0, 69, 0
2, 146828, Note_on_c, 0, 88, 102
2, 146880, Note_on_c, 0, 88, 0
2, 146900, Note_on_c, 0, 93, 96
2, 146908, Note_on_c, 0, 88, 42
2, 146956, Note_on_c, 0, 88, 0
2, 146968, Note_on_c, 0, 93, 0
2, 146976, Note_on_c, 0, 100, 98
2, 146976, Note_on_c, 0, 96, 81
2, 146988, Note_on_c, 0, 96, 0
2, 147012, Note_on_c, 0, 100, 0
2, 147072, Control_c, 0, 64, 56
2, 147076, Note_on_c, 0, 101, 106
2, 147076, Note_on_c, 0, 96, 92
2, 147076, Note_on_c, 0, 93, 94
2, 147076, Note_on_c, 0, 89, 94
2, 147076, Note_on_c, 0, 77, 81
2, 147076, Note_on_c, 0, 72, 78
2, 147076, Note_on_c, 0, 69, 73
2, 147076, Note_on_c, 0, 65, 72
2, 147080, Control_c, 0, 64, 0
2, 147100, Note_on_c, 0, 72, 0
2, 147104, Note_on_c, 0, 65, 0
2, 147104, Note_on_c, 0, 77, 0
2, 147104, Note_on_c, 0, 69, 0
2, 147108, Control_c, 0, 64, 72
2, 147112, Control_c, 0, 64, 127
2, 147116, Note_on_c, 0, 93, 0
2, 147120, Note_on_c, 0, 89, 0
2, 147120, Note_on_c, 0, 96, 0
2, 147132, Note_on_c, 0, 101, 0
2, 147508, Control_c, 0, 64, 88
2, 147516, Control_c, 0, 64, 24
2, 147520, Control_c, 0, 64, 0
2, 153712, Note_on_c, 0, 71, 80
2, 153748, Note_on_c, 0, 71, 0
2, 153844, Note_on_c, 0, 74, 80
2, 153844, Note_on_c, 0, 62, 80
2, 153844, Note_on_c, 0, 50, 80
2, 153844, Note_on_c, 0, 38, 80
2, 153880, Note_on_c, 0, 38, 0
2, 153880, Note_on_c, 0, 74, 0
2, 153880, Note_on_c, 0, 62, 0
2, 153880, Note_on_c, 0, 50, 0
2, 153972, Note_on_c, 0, 77, 80
2, 153972, Note_on_c, 0, 65, 80
2, 153972, Note_on_c, 0, 53, 80
2, 153972, Note_on_c, 0, 41, 80
2, 154008, Note_on_c, 0, 41, 0
2, 154008, Note_on_c, 0, 77, 0
2, 154008, Note_on_c, 0, 65, 0
2, 154008, Note_on_c, 0, 53, 0
2, 154104, Note_on_c, 0, 80, 80
2, 154104, Note_on_c, 0, 68, 80
2, 154104, Note_on_c, 0, 56, 80
2, 154104, Note_on_c, 0, 44, 80
2, 154140, Note_on_c, 0, 44, 0
2, 154140, Note_on_c, 0, 80, 0
2, 154140, Note_on_c, 0, 68, 0
2, 154140, Note_on_c, 0, 56, 0
2, 154232, Note_on_c, 0, 83, 80
2, 154232, Note_on_c, 0, 71, 80
2, 154232, Note_on_c, 0, 59, 80
2, 154232, Note_on_c, 0, 47, 80
2, 154268, Note_on_c, 0, 47, 0
2, 154268, Note_on_c, 0, 83, 0
2, 154268, Note_on_c, 0, 71, 0
2, 154268, Note_on_c, 0, 59, 0
2, 154364, Note_on_c, 0, 86, 80
2, 154364, Note_on_c, 0, 74, 80
2, 154364, Note_on_c, 0, 62, 80
2, 154364, Note_on_c, 0, 50, 80
2, 154400, Note_on_c, 0, 50, 0
2, 154400, Note_on_c, 0, 86, 0
2, 154400, Note_on_c, 0, 74, 0
2, 154400, Note_on_c, 0, 62, 0
2, 154484, Note_on_c, 0, 89, 80
2, 154484, Note_on_c, 0, 77, 80
2, 154484, Note_on_c, 0, 65, 80
2, 154484, Note_on_c, 0, 53, 80
2, 154520, Note_on_c, 0, 53, 0
2, 154520, Note_on_c, 0, 89, 0
2, 154520, Note_on_c, 0, 77, 0
2, 154520, Note_on_c, 0, 65, 0
2, 154608, Note_on_c, 0, 92, 80
2, 154608, Note_on_c, 0, 80, 80
2, 154608, Note_on_c, 0, 68, 80
2, 154608, Note_on_c, 0, 56, 80
2, 154644, Note_on_c, 0, 56, 0
2, 154644, Note_on_c, 0, 92, 0
2, 154644, Note_on_c, 0, 80, 0
2, 154644, Note_on_c, 0, 68, 0
2, 154732, Note_on_c, 0, 95, 80
2, 154732, Note_on_c, 0, 83, 80
2, 154732, Note_on_c, 0, 71, 80
2, 154732, Note_on_c, 0, 59, 80
2, 154768, Note_on_c, 0, 59, 0
2, 154768, Note_on_c, 0, 95, 0
2, 154768, Note_on_c, 0, 83, 0
2, 154768, Note_on_c, 0, 71, 0
2, 154852, Note_on_c, 0, 98, 80
2, 154852, Note_on_c, 0, 86, 80
2, 154852, Note_on_c, 0, 74, 80
2, 154852, Note_on_c, 0, 62, 80
2, 154888, Note_on_c, 0, 62, 0
2, 154888, Note_on_c, 0, 98, 0
2, 154888, Note_on_c, 0, 86, 0
2, 154888, Note_on_c, 0, 74, 0
2, 154920, Note_on_c, 0, 101, 80
2, 154920, Note_on_c, 0, 89, 80
2, 154920, Note_on_c, 0, 77, 80
2, 154920, Note_on_c, 0, 65, 80
2, 154956, Note_on_c, 0, 65, 0
2, 154956, Note_on_c, 0, 101, 0
2, 154956, Note_on_c, 0, 89, 0
2, 154956, Note_on_c, 0, 77, 0
2, 155820, Note_on_c, 0, 66, 95
2, 155820, Note_on_c, 0, 54, 87
2, 155824, Note_on_c, 0, 42, 78
2, 155848, Note_on_c, 0, 42, 0
2, 155848, Note_on_c, 0, 54, 0
2, 155848, Control_c, 0, 64, 24
2, 155856, Note_on_c, 0, 66, 0
2, 155856, Control_c, 0, 64, 88
2, 155864, Control_c, 0, 64, 127
2, 156020, Note_on_c, 0, 53, 75
2, 156024, Note_on_c, 0, 65, 95
2, 156036, Note_on_c, 0, 53, 0
2, 156036, Control_c, 0, 64, 104
2, 156044, Control_c, 0, 64, 56
2, 156048, Control_c, 0, 64, 0
2, 156056, Note_on_c, 0, 65, 0
2, 156068, Note_on_c, 0, 54, 102
2, 156072, Note_on_c, 0, 42, 88
2, 156072, Note_on_c, 0, 66, 96
2, 156084, Note_on_c, 0, 42, 0
2, 156088, Note_on_c, 0, 54, 0
2, 156108, Note_on_c, 0, 66, 0
2, 156204, Note_on_c, 0, 53, 91
2, 156204, Note_on_c, 0, 65, 92
2, 156208, Note_on_c, 0, 41, 73
2, 156220, Note_on_c, 0, 41, 0
2, 156224, Note_on_c, 0, 53, 0
2, 156236, Note_on_c, 0, 65, 0
2, 156328, Note_on_c, 0, 64, 94
2, 156328, Note_on_c, 0, 52, 92
2, 156332, Note_on_c, 0, 40, 80
2, 156348, Note_on_c, 0, 40, 0
2, 156356, Note_on_c, 0, 52, 0
2, 156368, Note_on_c, 0, 64, 0
2, 156444, Note_on_c, 0, 63, 88
2, 156448, Note_on_c, 0, 51, 91
2, 156452, Note_on_c, 0, 39, 79
2, 156464, Note_on_c, 0, 39, 0
2, 156468, Note_on_c, 0, 51, 0
2, 156480, Note_on_c, 0, 63, 0
2, 156572, Note_on_c, 0, 62, 96
2, 156576, Note_on_c, 0, 50, 99
2, 156580, Note_on_c, 0, 38, 82
2, 156592, Note_on_c, 0, 38, 0
2, 156604, Note_on_c, 0, 50, 0
2, 156608, Note_on_c, 0, 62, 0
2, 156692, Note_on_c, 0, 49, 90
2, 156692, Note_on_c, 0, 61, 80
2, 156700, Note_on_c, 0, 37, 73
2, 156712, Note_on_c, 0, 37, 0
2, 156716, Note_on_c, 0, 49, 0
2, 156720, Note_on_c, 0, 61, 0
2, 156812, Note_on_c, 0, 60, 90
2, 156816, Note_on_c, 0, 48, 98
2, 156816, Note_on_c, 0, 36, 87
2, 156836, Note_on_c, 0, 36, 0
2, 156840, Note_on_c, 0, 48, 0
2, 156848, Note_on_c, 0, 60, 0
2, 156936, Note_on_c, 0, 47, 91
2, 156936, Note_on_c, 0, 59, 90
2, 156944, Note_on_c, 0, 35, 74
2, 156964, Note_on_c, 0, 35, 0
2, 156968, Note_on_c, 0, 47, 0
2, 156988, Note_on_c, 0, 59, 0
2, 157056, Note_on_c, 0, 58, 83
2, 157060, Note_on_c, 0, 46, 84
2, 157064, Note_on_c, 0, 34, 79
2, 157088, Note_on_c, 0, 34, 0
2, 157088, Note_on_c, 0, 46, 0
2, 157100, Note_on_c, 0, 58, 0
2, 157184, Note_on_c, 0, 57, 91
2, 157184, Note_on_c, 0, 45, 92
2, 157192, Note_on_c, 0, 33, 76
2, 157216, Note_on_c, 0, 33, 0
2, 157216, Note_on_c, 0, 45, 0
2, 157232, Note_on_c, 0, 57, 0
2, 157300, Note_on_c, 0, 56, 85
2, 157304, Note_on_c, 0, 44, 86
2, 157308, Note_on_c, 0, 32, 83
2, 157332, Note_on_c, 0, 32, 0
2, 157332, Note_on_c, 0, 44, 0
2, 157352, Note_on_c, 0, 56, 0
2, 157424, Note_on_c, 0, 55, 99
2, 157428, Note_on_c, 0, 43, 85
2, 157432, Note_on_c, 0, 31, 74
2, 157444, Note_on_c, 0, 43, 0
2, 157448, Note_on_c, 0, 31, 0
2, 157460, Note_on_c, 0, 55, 0
2, 157564, Note_on_c, 0, 54, 105
2, 157564, Note_on_c, 0, 42, 101
2, 157564, Note_on_c, 0, 30, 81
2, 157588, Note_on_c, 0, 30, 0
2, 157592, Note_on_c, 0, 42, 0
2, 157592, Control_c, 0, 64, 40
2, 157596, Note_on_c, 0, 54, 0
2, 157600, Control_c, 0, 64, 88
2, 157604, Control_c, 0, 64, 127
2, 157772, Control_c, 0, 64, 104
2, 157780, Control_c, 0, 64, 88
2, 157788, Control_c, 0, 64, 72
2, 157796, Control_c, 0, 64, 40
2, 157804, Control_c, 0, 64, 0
2, 157816, Note_on_c, 0, 78, 112
2, 157816, Note_on_c, 0, 54, 99
2, 157816, Note_on_c, 0, 66, 98
2, 157816, Note_on_c, 0, 42, 82
2, 157840, Note_on_c, 0, 42, 0
2, 157844, Note_on_c, 0, 54, 0
2, 157852, Note_on_c, 0, 66, 0
2, 157856, Control_c, 0, 64, 72
2, 157864, Control_c, 0, 64, 127
2, 157872, Note_on_c, 0, 78, 0
2, 158004, Note_on_c, 0, 77, 95
2, 158004, Note_on_c, 0, 53, 82
2, 158008, Note_on_c, 0, 65, 76
2, 158008, Note_on_c, 0, 41, 71
2, 158020, Note_on_c, 0, 65, 0
2, 158020, Note_on_c, 0, 53, 0
2, 158024, Note_on_c, 0, 77, 0
2, 158024, Note_on_c, 0, 41, 0
2, 158056, Note_on_c, 0, 66, 95
2, 158056, Note_on_c, 0, 78, 106
2, 158056, Note_on_c, 0, 54, 95
2, 158060, Note_on_c, 0, 42, 87
2, 158060, Control_c, 0, 64, 104
2, 158072, Note_on_c, 0, 42, 0
2, 158072, Control_c, 0, 64, 56
2, 158080, Note_on_c, 0, 54, 0
2, 158080, Note_on_c, 0, 66, 0
2, 158080, Control_c, 0, 64, 0
2, 158088, Note_on_c, 0, 78, 0
2, 158184, Note_on_c, 0, 77, 104
2, 158188, Note_on_c, 0, 65, 91
2, 158192, Note_on_c, 0, 53, 91
2, 158192, Note_on_c, 0, 41, 82
2, 158208, Note_on_c, 0, 41, 0
2, 158208, Note_on_c, 0, 53, 0
2, 158216, Note_on_c, 0, 65, 0
2, 158220, Note_on_c, 0, 77, 0
2, 158304, Note_on_c, 0, 76, 98
2, 158304, Note_on_c, 0, 64, 91
2, 158308, Note_on_c, 0, 52, 92
2, 158308, Note_on_c, 0, 40, 85
2, 158332, Note_on_c, 0, 40, 0
2, 158332, Note_on_c, 0, 76, 0
2, 158332, Note_on_c, 0, 64, 0
2, 158336, Note_on_c, 0, 52, 0
2, 158428, Note_on_c, 0, 75, 93
2, 158428, Note_on_c, 0, 63, 83
2, 158432, Note_on_c, 0, 51, 84
2, 158440, Note_on_c, 0, 39, 65
2, 158452, Note_on_c, 0, 39, 0
2, 158456, Note_on_c, 0, 51, 0
2, 158460, Note_on_c, 0, 63, 0
2, 158464, Note_on_c, 0, 75, 0
2, 158548, Note_on_c, 0, 74, 102
2, 158552, Note_on_c, 0, 62, 96
2, 158556, Note_on_c, 0, 50, 96
2, 158556, Note_on_c, 0, 38, 88
2, 158576, Note_on_c, 0, 38, 0
2, 158580, Note_on_c, 0, 50, 0
2, 158580, Note_on_c, 0, 62, 0
2, 158584, Note_on_c, 0, 74, 0
2, 158672, Note_on_c, 0, 73, 90
2, 158672, Note_on_c, 0, 61, 85
2, 158676, Note_on_c, 0, 49, 87
2, 158680, Note_on_c, 0, 37, 81
2, 158696, Note_on_c, 0, 37, 0
2, 158700, Note_on_c, 0, 49, 0
2, 158712, Note_on_c, 0, 61, 0
2, 158724, Note_on_c, 0, 73, 0
2, 158788, Note_on_c, 0, 72, 97
2, 158792, Note_on_c, 0, 60, 83
2, 158796, Note_on_c, 0, 36, 79
2, 158796, Note_on_c, 0, 48, 85
2, 158820, Note_on_c, 0, 48, 0
2, 158820, Note_on_c, 0, 60, 0
2, 158824, Note_on_c, 0, 36, 0
2, 158828, Note_on_c, 0, 72, 0
2, 158900, Note_on_c, 0, 71, 96
2, 158908, Note_on_c, 0, 59, 76
2, 158908, Note_on_c, 0, 47, 86
2, 158916, Note_on_c, 0, 35, 77
2, 158928, Note_on_c, 0, 35, 0
2, 158936, Note_on_c, 0, 47, 0
2, 158936, Note_on_c, 0, 59, 0
2, 158940, Note_on_c, 0, 71, 0
2, 159020, Note_on_c, 0, 70, 95
2, 159020, Note_on_c, 0, 58, 86
2, 159024, Note_on_c, 0, 46, 88
2, 159028, Note_on_c, 0, 34, 83
2, 159052, Note_on_c, 0, 34, 0
2, 159052, Note_on_c, 0, 46, 0
2, 159056, Note_on_c, 0, 58, 0
2, 159072, Note_on_c, 0, 70, 0
2, 159144, Note_on_c, 0, 69, 99
2, 159148, Note_on_c, 0, 57, 84
2, 159152, Note_on_c, 0, 45, 93
2, 159156, Note_on_c, 0, 33, 77
2, 159172, Note_on_c, 0, 33, 0
2, 159172, Note_on_c, 0, 45, 0
2, 159176, Note_on_c, 0, 57, 0
2, 159184, Note_on_c, 0, 69, 0
2, 159260, Note_on_c, 0, 68, 94
2, 159264, Note_on_c, 0, 56, 87
2, 159272, Note_on_c, 0, 44, 90
2, 159272, Note_on_c, 0, 32, 82
2, 159292, Note_on_c, 0, 32, 0
2, 159292, Note_on_c, 0, 44, 0
2, 159292, Note_on_c, 0, 56, 0
2, 159312, Note_on_c, 0, 68, 0
2, 159384, Note_on_c, 0, 67, 98
2, 159388, Note_on_c, 0, 55, 86
2, 159396, Note_on_c, 0, 43, 92
2, 159400, Note_on_c, 0, 31, 78
2, 159420, Note_on_c, 0, 31, 0
2, 159420, Note_on_c, 0, 43, 0
2, 159420, Note_on_c, 0, 55, 0
2, 159428, Note_on_c, 0, 67, 0
2, 159512, Note_on_c, 0, 54, 96
2, 159516, Note_on_c, 0, 66, 96
2, 159520, Note_on_c, 0, 42, 98
2, 159520, Note_on_c, 0, 30, 82
2, 159536, Note_on_c, 0, 54, 0
2, 159540, Control_c, 0, 64, 40
2, 159544, Note_on_c, 0, 30, 0
2, 159544, Note_on_c, 0, 42, 0
2, 159548, Control_c, 0, 64, 88
2, 159556, Note_on_c, 0, 66, 0
2, 159556, Control_c, 0, 64, 127
2, 159724, Control_c, 0, 64, 104
2, 159732, Control_c, 0, 64, 88
2, 159740, Control_c, 0, 64, 40
2, 159748, Control_c, 0, 64, 0
2, 159760, Note_on_c, 0, 66, 101
2, 159764, Note_on_c, 0, 78, 106
2, 159764, Note_on_c, 0, 90, 112
2, 159764, Note_on_c, 0, 54, 89
2, 159792, Control_c, 0, 64, 40
2, 159796, Note_on_c, 0, 54, 0
2, 159796, Note_on_c, 0, 66, 0
2, 159796, Note_on_c, 0, 78, 0
2, 159800, Control_c, 0, 64, 127
2, 159808, Note_on_c, 0, 90, 0
2, 159944, Note_on_c, 0, 89, 98
2, 159948, Note_on_c, 0, 77, 94
2, 159952, Note_on_c, 0, 65, 82
2, 159956, Note_on_c, 0, 53, 66
2, 159964, Note_on_c, 0, 65, 0
2, 159964, Note_on_c, 0, 77, 0
2, 159972, Note_on_c, 0, 89, 0
2, 159972, Note_on_c, 0, 53, 0
2, 159992, Note_on_c, 0, 78, 97
2, 159996, Note_on_c, 0, 90, 102
2, 159996, Note_on_c, 0, 66, 92
2, 160004, Note_on_c, 0, 54, 77
2, 160008, Control_c, 0, 64, 72
2, 160012, Control_c, 0, 64, 40
2, 160016, Note_on_c, 0, 54, 0
2, 160020, Note_on_c, 0, 66, 0
2, 160020, Control_c, 0, 64, 0
2, 160024, Note_on_c, 0, 78, 0
2, 160040, Note_on_c, 0, 90, 0
2, 160120, Note_on_c, 0, 89, 107
2, 160120, Note_on_c, 0, 77, 103
2, 160120, Note_on_c, 0, 65, 92
2, 160124, Note_on_c, 0, 53, 80
2, 160144, Note_on_c, 0, 77, 0
2, 160148, Note_on_c, 0, 89, 0
2, 160148, Note_on_c, 0, 65, 0
2, 160152, Note_on_c, 0, 53, 0
2, 160232, Note_on_c, 0, 88, 103
2, 160232, Note_on_c, 0, 76, 94
2, 160232, Note_on_c, 0, 64, 91
2, 160236, Note_on_c, 0, 52, 83
2, 160256, Note_on_c, 0, 52, 0
2, 160260, Note_on_c, 0, 76, 0
2, 160264, Note_on_c, 0, 64, 0
2, 160272, Note_on_c, 0, 88, 0
2, 160348, Note_on_c, 0, 87, 99
2, 160348, Note_on_c, 0, 75, 99
2, 160352, Note_on_c, 0, 63, 81
2, 160356, Note_on_c, 0, 51, 81
2, 160372, Note_on_c, 0, 51, 0
2, 160380, Note_on_c, 0, 63, 0
2, 160380, Note_on_c, 0, 75, 0
2, 160396, Note_on_c, 0, 87, 0
2, 160468, Note_on_c, 0, 86, 103
2, 160468, Note_on_c, 0, 74, 98
2, 160476, Note_on_c, 0, 50, 85
2, 160476, Note_on_c, 0, 62, 75
2, 160476, Note_on_c, 0, 64, 74
2, 160488, Note_on_c, 0, 64, 0
2, 160492, Note_on_c, 0, 50, 0
2, 160496, Note_on_c, 0, 74, 0
2, 160500, Note_on_c, 0, 62, 0
2, 160504, Note_on_c, 0, 86, 0
2, 160580, Note_on_c, 0, 85, 95
2, 160580, Note_on_c, 0, 73, 92
2, 160584, Note_on_c, 0, 61, 83
2, 160588, Note_on_c, 0, 49, 83
2, 160612, Note_on_c, 0, 49, 0
2, 160612, Note_on_c, 0, 61, 0
2, 160624, Note_on_c, 0, 73, 0
2, 160644, Note_on_c, 0, 85, 0
2, 160700, Note_on_c, 0, 84, 97
2, 160700, Note_on_c, 0, 60, 94
2, 160704, Note_on_c, 0, 72, 91
2, 160704, Note_on_c, 0, 48, 94
2, 160732, Note_on_c, 0, 72, 0
2, 160732, Note_on_c, 0, 60, 0
2, 160736, Note_on_c, 0, 48, 0
2, 160748, Note_on_c, 0, 84, 0
2, 160812, Note_on_c, 0, 83, 103
2, 160816, Note_on_c, 0, 71, 92
2, 160816, Note_on_c, 0, 59, 90
2, 160820, Note_on_c, 0, 47, 91
2, 160844, Note_on_c, 0, 59, 0
2, 160844, Note_on_c, 0, 71, 0
2, 160848, Note_on_c, 0, 47, 0
2, 160856, Note_on_c, 0, 83, 0
2, 160928, Note_on_c, 0, 82, 98
2, 160928, Note_on_c, 0, 70, 96
2, 160932, Note_on_c, 0, 58, 85
2, 160936, Note_on_c, 0, 46, 84
2, 160956, Note_on_c, 0, 46, 0
2, 160960, Note_on_c, 0, 58, 0
2, 160960, Note_on_c, 0, 70, 0
2, 160980, Note_on_c, 0, 82, 0
2, 161044, Note_on_c, 0, 81, 98
2, 161048, Note_on_c, 0, 69, 95
2, 161052, Note_on_c, 0, 57, 91
2, 161056, Note_on_c, 0, 45, 88
2, 161076, Note_on_c, 0, 69, 0
2, 161080, Note_on_c, 0, 45, 0
2, 161080, Note_on_c, 0, 57, 0
2, 161092, Note_on_c, 0, 81, 0
2, 161160, Note_on_c, 0, 80, 95
2, 161160, Note_on_c, 0, 56, 85
2, 161164, Note_on_c, 0, 68, 93
2, 161164, Note_on_c, 0, 44, 80
2, 161192, Note_on_c, 0, 44, 0
2, 161192, Note_on_c, 0, 56, 0
2, 161196, Note_on_c, 0, 68, 0
2, 161204, Note_on_c, 0, 80, 0
2, 161276, Note_on_c, 0, 79, 100
2, 161280, Note_on_c, 0, 67, 83
2, 161280, Note_on_c, 0, 55, 92
2, 161284, Note_on_c, 0, 43, 81
2, 161308, Note_on_c, 0, 67, 0
2, 161312, Note_on_c, 0, 79, 0
2, 161312, Note_on_c, 0, 55, 0
2, 161312, Note_on_c, 0, 43, 0
2, 161392, Note_on_c, 0, 78, 100
2, 161392, Note_on_c, 0, 66, 95
2, 161396, Note_on_c, 0, 54, 92
2, 161400, Note_on_c, 0, 42, 84
2, 161424, Note_on_c, 0, 42, 0
2, 161424, Note_on_c, 0, 54, 0
2, 161424, Note_on_c, 0, 66, 0
2, 161436, Note_on_c, 0, 78, 0
2, 161512, Note_on_c, 0, 77, 102
2, 161516, Note_on_c, 0, 65, 91
2, 161516, Note_on_c, 0, 41, 81
2, 161516, Note_on_c, 0, 53, 86
2, 161540, Note_on_c, 0, 65, 0
2, 161544, Note_on_c, 0, 53, 0
2, 161548, Note_on_c, 0, 41, 0
2, 161552, Note_on_c, 0, 77, 0
2, 161620, Note_on_c, 0, 76, 104
2, 161620, Note_on_c, 0, 64, 92
2, 161624, Note_on_c, 0, 52, 92
2, 161628, Note_on_c, 0, 40, 86
2, 161652, Note_on_c, 0, 52, 0
2, 161652, Note_on_c, 0, 64, 0
2, 161656, Note_on_c, 0, 76, 0
2, 161656, Note_on_c, 0, 40, 0
2, 161732, Note_on_c, 0, 75, 97
2, 161736, Note_on_c, 0, 63, 87
2, 161736, Note_on_c, 0, 51, 94
2, 161740, Note_on_c, 0, 39, 82
2, 161768, Note_on_c, 0, 39, 0
2, 161768, Note_on_c, 0, 51, 0
2, 161768, Note_on_c, 0, 63, 0
2, 161780, Note_on_c, 0, 75, 0
2, 161852, Note_on_c, 0, 74, 103
2, 161856, Note_on_c, 0, 62, 95
2, 161860, Note_on_c, 0, 50, 98
2, 161860, Note_on_c, 0, 38, 88
2, 161880, Note_on_c, 0, 62, 0
2, 161884, Note_on_c, 0, 38, 0
2, 161884, Note_on_c, 0, 50, 0
2, 161892, Note_on_c, 0, 74, 0
2, 161968, Note_on_c, 0, 73, 91
2, 161968, Note_on_c, 0, 61, 86
2, 161968, Note_on_c, 0, 49, 87
2, 161972, Note_on_c, 0, 37, 77
2, 162000, Note_on_c, 0, 49, 0
2, 162004, Note_on_c, 0, 37, 0
2, 162012, Note_on_c, 0, 61, 0
2, 162016, Note_on_c, 0, 73, 0
2, 162080, Note_on_c, 0, 72, 100
2, 162084, Note_on_c, 0, 60, 85
2, 162084, Note_on_c, 0, 48, 86
2, 162088, Note_on_c, 0, 36, 75
2, 162112, Note_on_c, 0, 60, 0
2, 162116, Note_on_c, 0, 48, 0
2, 162120, Note_on_c, 0, 72, 0
2, 162120, Note_on_c, 0, 36, 0
2, 162184, Note_on_c, 0, 71, 98
2, 162188, Note_on_c, 0, 59, 84
2, 162196, Note_on_c, 0, 47, 90
2, 162200, Note_on_c, 0, 35, 83
2, 162220, Note_on_c, 0, 59, 0
2, 162224, Note_on_c, 0, 71, 0
2, 162224, Note_on_c, 0, 47, 0
2, 162224, Note_on_c, 0, 35, 0
2, 162292, Note_on_c, 0, 70, 95
2, 162296, Note_on_c, 0, 58, 87
2, 162300, Note_on_c, 0, 46, 92
2, 162304, Note_on_c, 0, 34, 88
2, 162328, Note_on_c, 0, 34, 0
2, 162328, Note_on_c, 0, 46, 0
2, 162336, Note_on_c, 0, 58, 0
2, 162340, Note_on_c, 0, 70, 0
2, 162412, Note_on_c, 0, 69, 96
2, 162416, Note_on_c, 0, 57, 80
2, 162420, Note_on_c, 0, 45, 92
2, 162424, Note_on_c, 0, 33, 79
2, 162448, Note_on_c, 0, 45, 0
2, 162448, Note_on_c, 0, 57, 0
2, 162452, Note_on_c, 0, 33, 0
2, 162456, Note_on_c, 0, 69, 0
2, 162520, Note_on_c, 0, 68, 91
2, 162524, Note_on_c, 0, 56, 86
2, 162528, Note_on_c, 0, 44, 91
2, 162528, Note_on_c, 0, 32, 91
2, 162560, Note_on_c, 0, 44, 0
2, 162564, Note_on_c, 0, 32, 0
2, 162564, Note_on_c, 0, 56, 0
2, 162576, Note_on_c, 0, 68, 0
2, 162636, Note_on_c, 0, 67, 94
2, 162640, Note_on_c, 0, 55, 88
2, 162648, Note_on_c, 0, 43, 93
2, 162652, Note_on_c, 0, 31, 80
2, 162672, Note_on_c, 0, 31, 0
2, 162672, Note_on_c, 0, 43, 0
2, 162672, Note_on_c, 0, 55, 0
2, 162680, Note_on_c, 0, 67, 0
2, 162752, Note_on_c, 0, 66, 94
2, 162752, Note_on_c, 0, 54, 96
2, 162752, Note_on_c, 0, 30, 62
2, 162756, Note_on_c, 0, 42, 84
2, 162764, Control_c, 0, 64, 24
2, 162772, Control_c, 0, 64, 72
2, 162780, Control_c, 0, 64, 88
2, 162788, Note_on_c, 0, 42, 0
2, 162788, Note_on_c, 0, 30, 0
2, 162788, Note_on_c, 0, 54, 0
2, 162788, Control_c, 0, 64, 104
2, 162800, Note_on_c, 0, 66, 0
2, 162824, Control_c, 0, 64, 72
2, 162832, Control_c, 0, 64, 56
2, 162840, Control_c, 0, 64, 24
2, 162848, Control_c, 0, 64, 0
2, 162868, Note_on_c, 0, 65, 100
2, 162872, Note_on_c, 0, 53, 96
2, 162876, Note_on_c, 0, 41, 92
2, 162904, Note_on_c, 0, 41, 0
2, 162904, Note_on_c, 0, 53, 0
2, 162912, Note_on_c, 0, 65, 0
2, 162984, Note_on_c, 0, 64, 103
2, 162984, Note_on_c, 0, 40, 94
2, 162984, Note_on_c, 0, 52, 94
2, 163012, Note_on_c, 0, 52, 0
2, 163012, Note_on_c, 0, 40, 0
2, 163020, Note_on_c, 0, 64, 0
2, 163096, Note_on_c, 0, 63, 94
2, 163100, Note_on_c, 0, 51, 97
2, 163100, Note_on_c, 0, 39, 89
2, 163132, Note_on_c, 0, 39, 0
2, 163136, Note_on_c, 0, 51, 0
2, 163144, Note_on_c, 0, 63, 0
2, 163208, Note_on_c, 0, 62, 102
2, 163216, Note_on_c, 0, 50, 98
2, 163216, Note_on_c, 0, 38, 92
2, 163240, Note_on_c, 0, 50, 0
2, 163252, Note_on_c, 0, 38, 0
2, 163252, Note_on_c, 0, 62, 0
2, 163328, Note_on_c, 0, 37, 88
2, 163332, Note_on_c, 0, 61, 91
2, 163332, Note_on_c, 0, 49, 94
2, 163368, Note_on_c, 0, 37, 0
2, 163372, Note_on_c, 0, 49, 0
2, 163380, Note_on_c, 0, 61, 0
2, 163440, Note_on_c, 0, 60, 99
2, 163440, Note_on_c, 0, 36, 90
2, 163444, Note_on_c, 0, 48, 95
2, 163468, Note_on_c, 0, 48, 0
2, 163480, Note_on_c, 0, 36, 0
2, 163480, Note_on_c, 0, 60, 0
2, 163552, Note_on_c, 0, 59, 97
2, 163556, Note_on_c, 0, 47, 92
2, 163556, Note_on_c, 0, 35, 92
2, 163584, Note_on_c, 0, 47, 0
2, 163596, Note_on_c, 0, 35, 0
2, 163596, Note_on_c, 0, 59, 0
2, 163672, Note_on_c, 0, 58, 93
2, 163672, Note_on_c, 0, 46, 93
2, 163676, Note_on_c, 0, 34, 83
2, 163716, Note_on_c, 0, 46, 0
2, 163724, Note_on_c, 0, 34, 0
2, 163728, Note_on_c, 0, 58, 0
2, 163784, Note_on_c, 0, 33, 86
2, 163784, Note_on_c, 0, 57, 96
2, 163788, Note_on_c, 0, 45, 93
2, 163820, Note_on_c, 0, 45, 0
2, 163828, Note_on_c, 0, 33, 0
2, 163832, Note_on_c, 0, 57, 0
2, 163896, Note_on_c, 0, 56, 92
2, 163900, Note_on_c, 0, 44, 88
2, 163904, Note_on_c, 0, 32, 84
2, 163940, Note_on_c, 0, 44, 0
2, 163952, Note_on_c, 0, 32, 0
2, 163956, Note_on_c, 0, 56, 0
2, 164016, Note_on_c, 0, 55, 96
2, 164020, Note_on_c, 0, 43, 85
2, 164024, Note_on_c, 0, 31, 84
2, 164052, Note_on_c, 0, 43, 0
2, 164052, Note_on_c, 0, 55, 0
2, 164116, Note_on_c, 0, 31, 0
2, 164140, Note_on_c, 0, 42, 93
2, 164140, Note_on_c, 0, 54, 95
2, 164140, Note_on_c, 0, 30, 81
2, 164160, Control_c, 0, 64, 24
2, 164164, Note_on_c, 0, 42, 0
2, 164164, Control_c, 0, 64, 56
2, 164172, Note_on_c, 0, 54, 0
2, 164172, Control_c, 0, 64, 88
2, 164180, Control_c, 0, 64, 104
2, 164188, Note_on_c, 0, 30, 0
2, 164188, Control_c, 0, 64, 127
2, 164244, Control_c, 0, 64, 104
2, 164252, Control_c, 0, 64, 72
2, 164260, Control_c, 0, 64, 24
2, 164264, Control_c, 0, 64, 0
2, 164276, Note_on_c, 0, 58, 96
2, 164276, Note_on_c, 0, 46, 96
2, 164284, Note_on_c, 0, 30, 79
2, 164284, Note_on_c, 0, 54, 81
2, 164288, Control_c, 0, 64, 24
2, 164296, Control_c, 0, 64, 72
2, 164300, Control_c, 0, 64, 104
2, 164304, Note_on_c, 0, 46, 0
2, 164312, Control_c, 0, 64, 127
2, 164316, Note_on_c, 0, 54, 0
2, 164324, Note_on_c, 0, 58, 0
2, 164336, Note_on_c, 0, 30, 0
2, 164432, Note_on_c, 0, 61, 103
2, 164432, Note_on_c, 0, 49, 103
2, 164432, Note_on_c, 0, 42, 81
2, 164432, Note_on_c, 0, 37, 81
2, 164436, Note_on_c, 0, 58, 82
2, 164440, Control_c, 0, 64, 104
2, 164448, Control_c, 0, 64, 72
2, 164456, Control_c, 0, 64, 24
2, 164460, Control_c, 0, 64, 0
2, 164516, Control_c, 0, 64, 24
2, 164524, Control_c, 0, 64, 72
2, 164532, Control_c, 0, 64, 104
2, 164540, Control_c, 0, 64, 127
2, 164784, Control_c, 0, 64, 104
2, 164792, Control_c, 0, 64, 40
2, 164800, Note_on_c, 0, 66, 95
2, 164800, Control_c, 0, 64, 0
2, 164804, Note_on_c, 0, 54, 98
2, 164808, Note_on_c, 0, 61, 83
2, 164808, Note_on_c, 0, 42, 81
2, 164808, Note_on_c, 0, 37, 79
2, 164808, Note_on_c, 0, 30, 66
2, 164820, Control_c, 0, 64, 40
2, 164828, Note_on_c, 0, 30, 0
2, 164828, Control_c, 0, 64, 88
2, 164832, Note_on_c, 0, 54, 0
2, 164836, Note_on_c, 0, 37, 0
2, 164836, Control_c, 0, 64, 127
2, 164840, Note_on_c, 0, 61, 0
2, 164844, Note_on_c, 0, 42, 0
2, 164848, Note_on_c, 0, 66, 0
2, 164928, Control_c, 0, 64, 56
2, 164936, Control_c, 0, 64, 0
2, 164940, Note_on_c, 0, 70, 100
2, 164944, Note_on_c, 0, 58, 91
2, 164944, Note_on_c, 0, 46, 83
2, 164944, Note_on_c, 0, 37, 74
2, 164944, Note_on_c, 0, 34, 75
2, 164948, Note_on_c, 0, 61, 80
2, 164968, Note_on_c, 0, 49, 0
2, 164968, Control_c, 0, 64, 56
2, 164976, Control_c, 0, 64, 104
2, 164980, Note_on_c, 0, 34, 0
2, 164980, Note_on_c, 0, 37, 0
2, 164980, Note_on_c, 0, 46, 0
2, 164980, Control_c, 0, 64, 127
2, 164992, Note_on_c, 0, 58, 0
2, 165000, Note_on_c, 0, 61, 0
2, 165000, Note_on_c, 0, 61, 0
2, 165000, Note_on_c, 0, 70, 0
2, 165012, Note_on_c, 0, 58, 0
2, 165020, Note_on_c, 0, 42, 0
2, 165024, Note_on_c, 0, 37, 0
2, 165048, Control_c, 0, 64, 104
2, 165056, Control_c, 0, 64, 40
2, 165064, Control_c, 0, 64, 0
2, 165068, Note_on_c, 0, 68, 92
2, 165068, Note_on_c, 0, 56, 89
2, 165072, Note_on_c, 0, 44, 85
2, 165072, Note_on_c, 0, 32, 80
2, 165072, Note_on_c, 0, 61, 73
2, 165080, Note_on_c, 0, 37, 68
2, 165088, Control_c, 0, 64, 56
2, 165096, Control_c, 0, 64, 104
2, 165100, Note_on_c, 0, 32, 0
2, 165104, Note_on_c, 0, 56, 0
2, 165104, Control_c, 0, 64, 127
2, 165112, Note_on_c, 0, 44, 0
2, 165112, Note_on_c, 0, 37, 0
2, 165120, Note_on_c, 0, 61, 0
2, 165124, Note_on_c, 0, 68, 0
2, 165172, Control_c, 0, 64, 72
2, 165180, Control_c, 0, 64, 0
2, 165184, Note_on_c, 0, 66, 92
2, 165184, Note_on_c, 0, 54, 90
2, 165192, Note_on_c, 0, 61, 77
2, 165192, Note_on_c, 0, 37, 71
2, 165192, Note_on_c, 0, 30, 66
2, 165192, Note_on_c, 0, 42, 77
2, 165200, Control_c, 0, 64, 24
2, 165208, Note_on_c, 0, 54, 0
2, 165208, Control_c, 0, 64, 72
2, 165216, Note_on_c, 0, 30, 0
2, 165216, Note_on_c, 0, 66, 0
2, 165216, Control_c, 0, 64, 127
2, 165220, Note_on_c, 0, 37, 0
2, 165220, Note_on_c, 0, 42, 0
2, 165220, Note_on_c, 0, 61, 0
2, 165296, Control_c, 0, 64, 56
2, 165304, Control_c, 0, 64, 0
2, 165308, Note_on_c, 0, 58, 97
2, 165308, Note_on_c, 0, 70, 102
2, 165312, Note_on_c, 0, 61, 87
2, 165312, Note_on_c, 0, 46, 96
2, 165312, Note_on_c, 0, 34, 80
2, 165316, Control_c, 0, 64, 24
2, 165324, Control_c, 0, 64, 56
2, 165332, Note_on_c, 0, 61, 0
2, 165332, Control_c, 0, 64, 104
2, 165336, Note_on_c, 0, 58, 0
2, 165340, Note_on_c, 0, 34, 0
2, 165340, Control_c, 0, 64, 127
2, 165344, Note_on_c, 0, 46, 0
2, 165352, Note_on_c, 0, 70, 0
2, 165408, Control_c, 0, 64, 88
2, 165416, Control_c, 0, 64, 24
2, 165424, Control_c, 0, 64, 0
2, 165428, Note_on_c, 0, 73, 102
2, 165428, Note_on_c, 0, 49, 92
2, 165428, Note_on_c, 0, 61, 96
2, 165428, Note_on_c, 0, 37, 77
2, 165428, Note_on_c, 0, 42, 83
2, 165432, Note_on_c, 0, 70, 86
2, 165432, Control_c, 0, 64, 24
2, 165440, Control_c, 0, 64, 56
2, 165444, Control_c, 0, 64, 104
2, 165452, Note_on_c, 0, 61, 0
2, 165456, Note_on_c, 0, 37, 0
2, 165456, Note_on_c, 0, 49, 0
2, 165456, Control_c, 0, 64, 127
2, 165464, Note_on_c, 0, 70, 0
2, 165464, Note_on_c, 0, 42, 0
2, 165468, Note_on_c, 0, 73, 0
2, 165532, Control_c, 0, 64, 88
2, 165536, Control_c, 0, 64, 24
2, 165544, Control_c, 0, 64, 0
2, 165552, Note_on_c, 0, 78, 103
2, 165552, Note_on_c, 0, 66, 98
2, 165556, Note_on_c, 0, 46, 90
2, 165556, Note_on_c, 0, 54, 95
2, 165556, Note_on_c, 0, 70, 91
2, 165556, Note_on_c, 0, 42, 75
2, 165568, Control_c, 0, 64, 56
2, 165576, Note_on_c, 0, 66, 0
2, 165576, Control_c, 0, 64, 104
2, 165580, Note_on_c, 0, 70, 0
2, 165584, Note_on_c, 0, 46, 0
2, 165584, Control_c, 0, 64, 127
2, 165588, Note_on_c, 0, 42, 0
2, 165588, Note_on_c, 0, 54, 0
2, 165592, Note_on_c, 0, 78, 0
2, 165660, Control_c, 0, 64, 104
2, 165668, Control_c, 0, 64, 40
2, 165672, Note_on_c, 0, 82, 96
2, 165676, Control_c, 0, 64, 0
2, 165680, Note_on_c, 0, 70, 86
2, 165680, Note_on_c, 0, 73, 87
2, 165684, Note_on_c, 0, 49, 83
2, 165684, Note_on_c, 0, 58, 85
2, 165688, Note_on_c, 0, 46, 81
2, 165696, Control_c, 0, 64, 40
2, 165704, Control_c, 0, 64, 104
2, 165712, Control_c, 0, 64, 127
2, 165716, Note_on_c, 0, 58, 0
2, 165720, Note_on_c, 0, 49, 0
2, 165724, Note_on_c, 0, 70, 0
2, 165728, Note_on_c, 0, 82, 0
2, 165728, Note_on_c, 0, 46, 0
2, 165732, Note_on_c, 0, 73, 0
2, 165780, Control_c, 0, 64, 104
2, 165792, Control_c, 0, 64, 24
2, 165796, Control_c, 0, 64, 0
2, 165800, Note_on_c, 0, 80, 94
2, 165800, Note_on_c, 0, 68, 86
2, 165804, Note_on_c, 0, 73, 83
2, 165804, Note_on_c, 0, 56, 87
2, 165808, Note_on_c, 0, 44, 70
2, 165808, Note_on_c, 0, 49, 77
2, 165820, Control_c, 0, 64, 72
2, 165828, Control_c, 0, 64, 127
2, 165832, Note_on_c, 0, 44, 0
2, 165844, Note_on_c, 0, 68, 0
2, 165848, Note_on_c, 0, 56, 0
2, 165856, Note_on_c, 0, 49, 0
2, 165860, Note_on_c, 0, 73, 0
2, 165864, Note_on_c, 0, 80, 0
2, 165904, Control_c, 0, 64, 72
2, 165912, Control_c, 0, 64, 0
2, 165916, Note_on_c, 0, 49, 85
2, 165916, Note_on_c, 0, 66, 94
2, 165920, Note_on_c, 0, 78, 96
2, 165920, Note_on_c, 0, 42, 71
2, 165920, Note_on_c, 0, 54, 80
2, 165928, Note_on_c, 0, 73, 69
2, 165932, Control_c, 0, 64, 24
2, 165940, Note_on_c, 0, 73, 0
2, 165940, Note_on_c, 0, 49, 0
2, 165940, Note_on_c, 0, 42, 0
2, 165940, Control_c, 0, 64, 72
2, 165944, Note_on_c, 0, 66, 0
2, 165944, Note_on_c, 0, 54, 0
2, 165948, Control_c, 0, 64, 127
2, 165960, Note_on_c, 0, 78, 0
2, 166016, Control_c, 0, 64, 104
2, 166024, Control_c, 0, 64, 40
2, 166032, Control_c, 0, 64, 0
2, 166040, Note_on_c, 0, 82, 103
2, 166040, Note_on_c, 0, 70, 99
2, 166040, Control_c, 0, 64, 24
2, 166044, Note_on_c, 0, 46, 86
2, 166044, Note_on_c, 0, 73, 87
2, 166044, Note_on_c, 0, 58, 87
2, 166044, Note_on_c, 0, 54, 85
2, 166048, Control_c, 0, 64, 56
2, 166056, Note_on_c, 0, 73, 0
2, 166056, Control_c, 0, 64, 127
2, 166064, Note_on_c, 0, 70, 0
2, 166072, Note_on_c, 0, 58, 0
2, 166072, Note_on_c, 0, 46, 0
2, 166076, Note_on_c, 0, 54, 0
2, 166080, Note_on_c, 0, 82, 0
2, 166148, Control_c, 0, 64, 56
2, 166156, Control_c, 0, 64, 0
2, 166160, Note_on_c, 0, 85, 106
2, 166160, Note_on_c, 0, 73, 99
2, 166164, Note_on_c, 0, 61, 86
2, 166164, Note_on_c, 0, 49, 83
2, 166168, Note_on_c, 0, 82, 89
2, 166168, Note_on_c, 0, 54, 47
2, 166172, Control_c, 0, 64, 24
2, 166180, Control_c, 0, 64, 72
2, 166184, Note_on_c, 0, 54, 0
2, 166184, Note_on_c, 0, 73, 0
2, 166184, Control_c, 0, 64, 127
2, 166188, Note_on_c, 0, 49, 0
2, 166192, Note_on_c, 0, 61, 0
2, 166196, Note_on_c, 0, 82, 0
2, 166200, Note_on_c, 0, 85, 0
2, 166276, Control_c, 0, 64, 88
2, 166284, Control_c, 0, 64, 40
2, 166288, Note_on_c, 0, 90, 102
2, 166288, Note_on_c, 0, 78, 101
2, 166292, Note_on_c, 0, 82, 89
2, 166292, Note_on_c, 0, 66, 93
2, 166292, Control_c, 0, 64, 24
2, 166296, Note_on_c, 0, 54, 83
2, 166300, Control_c, 0, 64, 72
2, 166308, Control_c, 0, 64, 104
2, 166312, Note_on_c, 0, 78, 0
2, 166316, Control_c, 0, 64, 127
2, 166320, Note_on_c, 0, 82, 0
2, 166324, Note_on_c, 0, 54, 0
2, 166328, Note_on_c, 0, 66, 0
2, 166332, Note_on_c, 0, 90, 0
2, 166416, Note_on_c, 0, 94, 102
2, 166416, Control_c, 0, 64, 104
2, 166420, Note_on_c, 0, 82, 98
2, 166420, Control_c, 0, 64, 40
2, 166424, Note_on_c, 0, 58, 73
2, 166424, Note_on_c, 0, 85, 84
2, 166424, Note_on_c, 0, 70, 87
2, 166428, Note_on_c, 0, 61, 77
2, 166428, Control_c, 0, 64, 0
2, 166436, Note_on_c, 0, 85, 0
2, 166440, Control_c, 0, 64, 24
2, 166444, Control_c, 0, 64, 72
2, 166452, Control_c, 0, 64, 127
2, 166456, Note_on_c, 0, 70, 0
2, 166460, Note_on_c, 0, 58, 0
2, 166464, Note_on_c, 0, 61, 0
2, 166468, Note_on_c, 0, 82, 0
2, 166472, Note_on_c, 0, 94, 0
2, 166536, Note_on_c, 0, 92, 102
2, 166536, Note_on_c, 0, 68, 87
2, 166536, Control_c, 0, 64, 56
2, 166540, Note_on_c, 0, 56, 81
2, 166540, Note_on_c, 0, 80, 100
2, 166544, Note_on_c, 0, 85, 85
2, 166544, Control_c, 0, 64, 0
2, 166552, Note_on_c, 0, 61, 66
2, 166560, Control_c, 0, 64, 56
2, 166568, Control_c, 0, 64, 104
2, 166576, Note_on_c, 0, 56, 0
2, 166576, Note_on_c, 0, 68, 0
2, 166576, Control_c, 0, 64, 127
2, 166584, Note_on_c, 0, 80, 0
2, 166596, Note_on_c, 0, 85, 0
2, 166600, Note_on_c, 0, 61, 0
2, 166604, Note_on_c, 0, 92, 0
2, 166644, Control_c, 0, 64, 88
2, 166652, Control_c, 0, 64, 24
2, 166660, Note_on_c, 0, 66, 85
2, 166660, Note_on_c, 0, 54, 79
2, 166660, Control_c, 0, 64, 0
2, 166664, Note_on_c, 0, 61, 81
2, 166664, Note_on_c, 0, 90, 93
2, 166664, Note_on_c, 0, 78, 101
2, 166668, Note_on_c, 0, 85, 95
2, 166680, Control_c, 0, 64, 72
2, 166688, Note_on_c, 0, 61, 0
2, 166688, Note_on_c, 0, 66, 0
2, 166688, Control_c, 0, 64, 127
2, 166696, Note_on_c, 0, 90, 0
2, 166696, Note_on_c, 0, 54, 0
2, 166696, Note_on_c, 0, 85, 0
2, 166696, Note_on_c, 0, 78, 0
2, 166744, Note_on_c, 0, 61, 40
2, 166756, Note_on_c, 0, 61, 0
2, 166792, Note_on_c, 0, 85, 98
2, 166792, Note_on_c, 0, 73, 97
2, 166796, Note_on_c, 0, 61, 92
2, 166796, Note_on_c, 0, 49, 91
2, 166796, Note_on_c, 0, 54, 91
2, 166796, Control_c, 0, 64, 56
2, 166804, Control_c, 0, 64, 24
2, 166812, Control_c, 0, 64, 40
2, 166820, Control_c, 0, 64, 72
2, 166828, Control_c, 0, 64, 127
2, 166832, Note_on_c, 0, 61, 0
2, 166832, Note_on_c, 0, 73, 0
2, 166836, Note_on_c, 0, 54, 0
2, 166836, Note_on_c, 0, 49, 0
2, 166840, Note_on_c, 0, 85, 0
2, 166908, Control_c, 0, 64, 104
2, 166916, Note_on_c, 0, 82, 95
2, 166916, Note_on_c, 0, 70, 90
2, 166920, Note_on_c, 0, 73, 82
2, 166920, Note_on_c, 0, 49, 87
2, 166920, Note_on_c, 0, 58, 85
2, 166920, Control_c, 0, 64, 40
2, 166924, Note_on_c, 0, 46, 81
2, 166928, Control_c, 0, 64, 0
2, 166948, Control_c, 0, 64, 88
2, 166956, Note_on_c, 0, 58, 0
2, 166956, Control_c, 0, 64, 127
2, 166960, Note_on_c, 0, 49, 0
2, 166960, Note_on_c, 0, 46, 0
2, 166964, Note_on_c, 0, 70, 0
2, 166972, Note_on_c, 0, 73, 0
2, 166972, Note_on_c, 0, 82, 0
2, 167032, Control_c, 0, 64, 72
2, 167036, Note_on_c, 0, 80, 96
2, 167040, Note_on_c, 0, 68, 91
2, 167040, Note_on_c, 0, 73, 85
2, 167040, Control_c, 0, 64, 0
2, 167044, Note_on_c, 0, 56, 87
2, 167044, Note_on_c, 0, 44, 82
2, 167048, Note_on_c, 0, 49, 80
2, 167064, Control_c, 0, 64, 40
2, 167068, Control_c, 0, 64, 88
2, 167076, Note_on_c, 0, 44, 0
2, 167076, Control_c, 0, 64, 127
2, 167084, Note_on_c, 0, 56, 0
2, 167088, Note_on_c, 0, 68, 0
2, 167088, Note_on_c, 0, 80, 0
2, 167088, Note_on_c, 0, 49, 0
2, 167096, Note_on_c, 0, 73, 0
2, 167148, Control_c, 0, 64, 104
2, 167156, Control_c, 0, 64, 24
2, 167160, Note_on_c, 0, 78, 94
2, 167160, Control_c, 0, 64, 0
2, 167168, Note_on_c, 0, 66, 91
2, 167168, Note_on_c, 0, 73, 87
2, 167172, Note_on_c, 0, 54, 86
2, 167172, Note_on_c, 0, 49, 83
2, 167172, Note_on_c, 0, 42, 75
2, 167184, Control_c, 0, 64, 24
2, 167188, Note_on_c, 0, 49, 0
2, 167192, Note_on_c, 0, 54, 0
2, 167192, Note_on_c, 0, 73, 0
2, 167192, Control_c, 0, 64, 88
2, 167196, Note_on_c, 0, 66, 0
2, 167200, Note_on_c, 0, 78, 0
2, 167200, Note_on_c, 0, 42, 0
2, 167200, Control_c, 0, 64, 127
2, 167292, Control_c, 0, 64, 72
2, 167296, Note_on_c, 0, 73, 97
2, 167296, Control_c, 0, 64, 0
2, 167300, Note_on_c, 0, 61, 90
2, 167304, Note_on_c, 0, 49, 94
2, 167304, Note_on_c, 0, 42, 83
2, 167304, Note_on_c, 0, 66, 60
2, 167308, Note_on_c, 0, 37, 79
2, 167324, Note_on_c, 0, 49, 0
2, 167324, Control_c, 0, 64, 56
2, 167328, Note_on_c, 0, 42, 0
2, 167328, Note_on_c, 0, 61, 0
2, 167328, Control_c, 0, 64, 127
2, 167336, Note_on_c, 0, 66, 0
2, 167340, Note_on_c, 0, 37, 0
2, 167340, Note_on_c, 0, 73, 0
2, 167420, Control_c, 0, 64, 40
2, 167428, Note_on_c, 0, 70, 92
2, 167428, Control_c, 0, 64, 0
2, 167432, Note_on_c, 0, 37, 74
2, 167432, Note_on_c, 0, 58, 81
2, 167432, Note_on_c, 0, 46, 92
2, 167432, Note_on_c, 0, 34, 79
2, 167432, Note_on_c, 0, 61, 78
2, 167452, Control_c, 0, 64, 24
2, 167460, Note_on_c, 0, 46, 0
2, 167460, Control_c, 0, 64, 88
2, 167464, Note_on_c, 0, 37, 0
2, 167468, Note_on_c, 0, 61, 0
2, 167468, Control_c, 0, 64, 127
2, 167472, Note_on_c, 0, 58, 0
2, 167472, Note_on_c, 0, 34, 0
2, 167484, Note_on_c, 0, 70, 0
2, 167528, Control_c, 0, 64, 88
2, 167536, Control_c, 0, 64, 0
2, 167552, Note_on_c, 0, 68, 93
2, 167556, Note_on_c, 0, 56, 94
2, 167560, Note_on_c, 0, 44, 91
2, 167560, Note_on_c, 0, 61, 79
2, 167560, Note_on_c, 0, 32, 77
2, 167564, Note_on_c, 0, 37, 83
2, 167572, Control_c, 0, 64, 56
2, 167580, Control_c, 0, 64, 127
2, 167588, Note_on_c, 0, 44, 0
2, 167592, Note_on_c, 0, 32, 0
2, 167592, Note_on_c, 0, 37, 0
2, 167596, Note_on_c, 0, 56, 0
2, 167596, Note_on_c, 0, 61, 0
2, 167600, Note_on_c, 0, 68, 0
2, 167664, Control_c, 0, 64, 56
2, 167672, Control_c, 0, 64, 0
2, 167700, Note_on_c, 0, 66, 97
2, 167700, Note_on_c, 0, 54, 101
2, 167704, Note_on_c, 0, 42, 105
2, 167704, Note_on_c, 0, 37, 93
2, 167708, Note_on_c, 0, 30, 84
2, 167724, Note_on_c, 0, 38, 73
2, 167724, Control_c, 0, 64, 104
2, 167732, Control_c, 0, 64, 127
2, 167736, Note_on_c, 0, 38, 0
2, 167740, Note_on_c, 0, 42, 0
2, 167744, Note_on_c, 0, 37, 0
2, 167744, Note_on_c, 0, 66, 0
2, 167748, Note_on_c, 0, 54, 0
2, 167748, Note_on_c, 0, 30, 0
2, 167864, Control_c, 0, 64, 104
2, 167872, Control_c, 0, 64, 72
2, 167880, Control_c, 0, 64, 24
2, 167884, Control_c, 0, 64, 0
2, 168000, Note_on_c, 0, 49, 107
2, 168008, Note_on_c, 0, 61, 102
2, 168008, Note_on_c, 0, 37, 107
2, 168008, Note_on_c, 0, 25, 91
2, 168024, Control_c, 0, 64, 56
2, 168032, Control_c, 0, 64, 127
2, 168040, Note_on_c, 0, 25, 0
2, 168040, Note_on_c, 0, 37, 0
2, 168040, Note_on_c, 0, 49, 0
2, 168052, Note_on_c, 0, 61, 0
2, 168144, Control_c, 0, 64, 88
2, 168152, Control_c, 0, 64, 56
2, 168160, Control_c, 0, 64, 24
2, 168168, Control_c, 0, 64, 0
2, 168332, Note_on_c, 0, 54, 103
2, 168332, Note_on_c, 0, 42, 105
2, 168332, Note_on_c, 0, 66, 103
2, 168336, Note_on_c, 0, 30, 79
2, 168336, Note_on_c, 0, 37, 86
2, 168336, Note_on_c, 0, 61, 88
2, 168336, Note_on_c, 0, 58, 86
2, 168336, Note_on_c, 0, 34, 82
2, 168348, Control_c, 0, 64, 104
2, 168356, Control_c, 0, 64, 127
2, 168364, Note_on_c, 0, 34, 0
2, 168368, Note_on_c, 0, 30, 0
2, 168368, Note_on_c, 0, 42, 0
2, 168372, Note_on_c, 0, 37, 0
2, 168376, Note_on_c, 0, 54, 0
2, 168376, Note_on_c, 0, 58, 0
2, 168380, Note_on_c, 0, 61, 0
2, 168392, Note_on_c, 0, 66, 0
2, 168700, Control_c, 0, 64, 104
2, 168708, Control_c, 0, 64, 72
2, 168716, Control_c, 0, 64, 40
2, 168724, Control_c, 0, 64, 24
2, 168732, Control_c, 0, 64, 0
2, 172004, Note_on_c, 0, 42, 71
2, 172020, Control_c, 0, 64, 56
2, 172028, Control_c, 0, 64, 88
2, 172036, Control_c, 0, 64, 127
2, 172068, Note_on_c, 0, 47, 62
2, 172100, Note_on_c, 0, 50, 68
2, 172136, Note_on_c, 0, 54, 72
2, 172204, Note_on_c, 0, 59, 80
2, 172276, Note_on_c, 0, 62, 100
2, 172276, Control_c, 0, 64, 88
2, 172284, Control_c, 0, 64, 40
2, 172296, Control_c, 0, 64, 0
2, 172372, Control_c, 0, 64, 40
2, 172380, Control_c, 0, 64, 88
2, 172388, Control_c, 0, 64, 127
2, 172468, Note_on_c, 0, 54, 0
2, 172476, Note_on_c, 0, 42, 0
2, 172480, Note_on_c, 0, 59, 0
2, 172496, Note_on_c, 0, 50, 0
2, 172500, Note_on_c, 0, 47, 0
2, 172508, Note_on_c, 0, 62, 0
2, 173004, Note_on_c, 0, 66, 83
2, 173020, Note_on_c, 0, 54, 64
2, 173192, Note_on_c, 0, 54, 0
2, 173192, Note_on_c, 0, 66, 0
2, 173196, Note_on_c, 0, 71, 99
2, 173204, Note_on_c, 0, 59, 62
2, 173240, Note_on_c, 0, 59, 0
2, 173280, Note_on_c, 0, 71, 0
2, 173324, Note_on_c, 0, 54, 42
2, 173344, Note_on_c, 0, 57, 60
2, 173356, Note_on_c, 0, 66, 63
2, 173384, Note_on_c, 0, 60, 69
2, 173392, Control_c, 0, 64, 72
2, 173400, Note_on_c, 0, 69, 89
2, 173404, Control_c, 0, 64, 0
2, 173412, Note_on_c, 0, 62, 61
2, 173440, Note_on_c, 0, 66, 0
2, 173456, Note_on_c, 0, 74, 99
2, 173480, Note_on_c, 0, 69, 0
2, 173480, Control_c, 0, 64, 72
2, 173488, Control_c, 0, 64, 127
2, 173508, Note_on_c, 0, 74, 0
2, 173528, Note_on_c, 0, 60, 0
2, 173528, Note_on_c, 0, 57, 0
2, 173536, Note_on_c, 0, 54, 0
2, 173560, Note_on_c, 0, 62, 0
2, 173652, Note_on_c, 0, 78, 93
2, 173660, Note_on_c, 0, 66, 54
2, 173748, Note_on_c, 0, 78, 0
2, 173792, Note_on_c, 0, 66, 0
2, 173808, Note_on_c, 0, 81, 97
2, 173816, Note_on_c, 0, 69, 76
2, 173964, Note_on_c, 0, 69, 0
2, 173968, Note_on_c, 0, 81, 0
2, 173976, Note_on_c, 0, 86, 103
2, 173984, Note_on_c, 0, 74, 78
2, 174008, Note_on_c, 0, 74, 0
2, 174072, Note_on_c, 0, 86, 0
2, 174168, Note_on_c, 0, 86, 99
2, 174176, Note_on_c, 0, 74, 69
2, 174224, Note_on_c, 0, 74, 0
2, 174288, Note_on_c, 0, 86, 0
2, 174404, Note_on_c, 0, 86, 84
2, 174412, Note_on_c, 0, 74, 68
2, 174824, Note_on_c, 0, 74, 0
2, 174832, Note_on_c, 0, 86, 0
2, 174960, Note_on_c, 0, 86, 95
2, 174968, Note_on_c, 0, 74, 83
2, 175052, Note_on_c, 0, 74, 0
2, 175072, Note_on_c, 0, 86, 0
2, 175132, Note_on_c, 0, 74, 78
2, 175152, Note_on_c, 0, 79, 69
2, 175168, Note_on_c, 0, 79, 0
2, 175168, Note_on_c, 0, 74, 0
2, 175176, Note_on_c, 0, 83, 76
2, 175200, Control_c, 0, 64, 0
2, 175200, Control_c, 0, 64, 40
2, 175204, Note_on_c, 0, 86, 93
2, 175216, Note_on_c, 0, 83, 0
2, 175228, Control_c, 0, 64, 24
2, 175236, Control_c, 0, 64, 88
2, 175244, Control_c, 0, 64, 127
2, 175268, Note_on_c, 0, 86, 0
2, 175316, Note_on_c, 0, 86, 89
2, 175352, Note_on_c, 0, 86, 0
2, 175388, Note_on_c, 0, 86, 92
2, 175464, Note_on_c, 0, 86, 0
2, 175472, Note_on_c, 0, 88, 97
2, 175540, Note_on_c, 0, 88, 0
2, 175552, Note_on_c, 0, 86, 96
2, 175552, Note_on_c, 0, 43, 56
2, 175552, Note_on_c, 0, 55, 63
2, 175576, Note_on_c, 0, 43, 0
2, 175608, Note_on_c, 0, 55, 0
2, 175616, Note_on_c, 0, 86, 0
2, 175624, Note_on_c, 0, 85, 86
2, 175684, Note_on_c, 0, 85, 0
2, 175696, Note_on_c, 0, 86, 106
2, 175772, Note_on_c, 0, 86, 0
2, 175804, Note_on_c, 0, 94, 95
2, 175808, Note_on_c, 0, 82, 84
2, 175812, Note_on_c, 0, 71, 66
2, 175824, Note_on_c, 0, 62, 46
2, 175828, Note_on_c, 0, 67, 49
2, 175844, Note_on_c, 0, 59, 51
2, 176028, Note_on_c, 0, 94, 0
2, 176032, Note_on_c, 0, 82, 0
2, 176092, Note_on_c, 0, 95, 97
2, 176096, Note_on_c, 0, 83, 82
2, 176156, Note_on_c, 0, 95, 0
2, 176164, Note_on_c, 0, 83, 0
2, 176172, Note_on_c, 0, 71, 0
2, 176184, Note_on_c, 0, 59, 0
2, 176188, Note_on_c, 0, 67, 0
2, 176200, Note_on_c, 0, 62, 0
2, 176372, Note_on_c, 0, 87, 95
2, 176372, Note_on_c, 0, 75, 80
2, 176508, Control_c, 0, 64, 56
2, 176516, Control_c, 0, 64, 0
2, 176580, Control_c, 0, 64, 88
2, 176592, Control_c, 0, 64, 127
2, 176612, Note_on_c, 0, 36, 59
2, 176616, Note_on_c, 0, 48, 59
2, 176636, Note_on_c, 0, 36, 0
2, 176652, Note_on_c, 0, 48, 0
2, 176816, Note_on_c, 0, 75, 0
2, 176828, Note_on_c, 0, 55, 63
2, 176848, Note_on_c, 0, 55, 0
2, 176868, Note_on_c, 0, 60, 62
2, 176904, Note_on_c, 0, 64, 62
2, 176920, Note_on_c, 0, 60, 0
2, 176944, Note_on_c, 0, 69, 82
2, 176960, Note_on_c, 0, 64, 0
2, 176980, Note_on_c, 0, 69, 0
2, 177112, Note_on_c, 0, 87, 0
2, 177120, Note_on_c, 0, 78, 87
2, 177196, Note_on_c, 0, 78, 0
2, 177216, Note_on_c, 0, 90, 89
2, 177280, Note_on_c, 0, 90, 0
2, 177304, Note_on_c, 0, 88, 93
2, 177352, Note_on_c, 0, 88, 0
2, 177384, Note_on_c, 0, 76, 84
2, 177440, Note_on_c, 0, 76, 0
2, 177468, Note_on_c, 0, 81, 88
2, 177524, Note_on_c, 0, 81, 0
2, 177608, Note_on_c, 0, 71, 51
2, 177656, Note_on_c, 0, 74, 65
2, 177688, Note_on_c, 0, 79, 82
2, 177756, Note_on_c, 0, 83, 104
2, 177756, Control_c, 0, 64, 72
2, 177768, Control_c, 0, 64, 0
2, 177844, Control_c, 0, 64, 40
2, 177852, Control_c, 0, 64, 127
2, 177924, Note_on_c, 0, 50, 59
2, 177928, Note_on_c, 0, 38, 58
2, 177948, Note_on_c, 0, 38, 0
2, 177972, Note_on_c, 0, 50, 0
2, 178060, Note_on_c, 0, 71, 0
2, 178072, Note_on_c, 0, 74, 0
2, 178184, Note_on_c, 0, 71, 73
2, 178192, Note_on_c, 0, 67, 64
2, 178192, Note_on_c, 0, 59, 54
2, 178196, Note_on_c, 0, 62, 64
2, 178248, Note_on_c, 0, 62, 0
2, 178252, Note_on_c, 0, 67, 0
2, 178256, Note_on_c, 0, 59, 0
2, 178280, Note_on_c, 0, 71, 0
2, 178408, Note_on_c, 0, 79, 0
2, 178432, Note_on_c, 0, 83, 0
2, 178472, Note_on_c, 0, 71, 64
2, 178472, Note_on_c, 0, 67, 64
2, 178480, Note_on_c, 0, 59, 38
2, 178484, Note_on_c, 0, 62, 50
2, 178512, Note_on_c, 0, 62, 0
2, 178524, Note_on_c, 0, 67, 0
2, 178540, Note_on_c, 0, 59, 0
2, 178552, Note_on_c, 0, 71, 0
2, 178692, Note_on_c, 0, 83, 94
2, 178768, Note_on_c, 0, 83, 0
2, 178788, Note_on_c, 0, 57, 62
2, 178788, Control_c, 0, 64, 72
2, 178800, Note_on_c, 0, 62, 71
2, 178800, Control_c, 0, 64, 0
2, 178808, Note_on_c, 0, 57, 0
2, 178816, Note_on_c, 0, 66, 64
2, 178820, Control_c, 0, 64, 40
2, 178828, Control_c, 0, 64, 127
2, 178852, Note_on_c, 0, 62, 0
2, 178872, Note_on_c, 0, 72, 69
2, 178884, Note_on_c, 0, 66, 0
2, 178888, Note_on_c, 0, 83, 85
2, 178892, Note_on_c, 0, 72, 0
2, 178948, Note_on_c, 0, 83, 0
2, 178956, Note_on_c, 0, 84, 92
2, 179012, Note_on_c, 0, 84, 0
2, 179028, Note_on_c, 0, 86, 86
2, 179084, Note_on_c, 0, 86, 0
2, 179092, Note_on_c, 0, 84, 88
2, 179160, Note_on_c, 0, 84, 0
2, 179160, Note_on_c, 0, 83, 90
2, 179204, Note_on_c, 0, 83, 0
2, 179224, Note_on_c, 0, 84, 85
2, 179296, Note_on_c, 0, 90, 86
2, 179352, Note_on_c, 0, 84, 0
2, 179364, Note_on_c, 0, 90, 0
2, 179364, Note_on_c, 0, 93, 96
2, 179436, Note_on_c, 0, 98, 97
2, 179448, Note_on_c, 0, 93, 0
2, 179492, Note_on_c, 0, 98, 0
2, 179504, Note_on_c, 0, 96, 92
2, 179552, Note_on_c, 0, 96, 0
2, 179560, Note_on_c, 0, 93, 90
2, 179616, Note_on_c, 0, 90, 71
2, 179636, Note_on_c, 0, 93, 0
2, 179660, Note_on_c, 0, 90, 0
2, 179668, Note_on_c, 0, 86, 74
2, 179696, Note_on_c, 0, 86, 0
2, 179724, Note_on_c, 0, 84, 72
2, 179772, Note_on_c, 0, 84, 0
2, 179792, Note_on_c, 0, 81, 76
2, 179844, Note_on_c, 0, 81, 0
2, 179852, Note_on_c, 0, 78, 72
2, 179916, Note_on_c, 0, 78, 0
2, 179924, Note_on_c, 0, 74, 70
2, 179988, Note_on_c, 0, 72, 85
2, 179996, Note_on_c, 0, 74, 0
2, 180052, Note_on_c, 0, 72, 0
2, 180056, Note_on_c, 0, 71, 81
2, 180112, Note_on_c, 0, 71, 0
2, 180120, Note_on_c, 0, 72, 90
2, 180176, Note_on_c, 0, 72, 0
2, 180180, Note_on_c, 0, 74, 80
2, 180224, Note_on_c, 0, 74, 0
2, 180244, Note_on_c, 0, 72, 76
2, 180292, Note_on_c, 0, 72, 0
2, 180312, Note_on_c, 0, 69, 73
2, 180356, Note_on_c, 0, 69, 0
2, 180376, Note_on_c, 0, 64, 70
2, 180448, Note_on_c, 0, 64, 0
2, 180456, Note_on_c, 0, 66, 75
2, 180544, Note_on_c, 0, 66, 0
2, 180556, Note_on_c, 0, 71, 81
2, 180648, Note_on_c, 0, 71, 0
2, 180680, Note_on_c, 0, 69, 77
2, 180804, Control_c, 0, 64, 104
2, 180812, Control_c, 0, 64, 88
2, 180816, Control_c, 0, 64, 72
2, 180820, Control_c, 0, 64, 56
2, 180828, Control_c, 0, 64, 0
2, 180888, Control_c, 0, 64, 72
2, 180892, Control_c, 0, 64, 127
2, 181088, Note_on_c, 0, 67, 61
2, 181108, Note_on_c, 0, 67, 0
2, 181168, Note_on_c, 0, 69, 0
2, 181200, Note_on_c, 0, 59, 38
2, 181200, Note_on_c, 0, 67, 54
2, 181204, Note_on_c, 0, 62, 46
2, 181208, Note_on_c, 0, 55, 40
2, 181212, Note_on_c, 0, 43, 36
2, 181240, Control_c, 0, 64, 104
2, 181244, Control_c, 0, 64, 40
2, 181248, Control_c, 0, 64, 0
2, 181336, Note_on_c, 0, 43, 0
2, 181344, Note_on_c, 0, 55, 0
2, 181352, Note_on_c, 0, 62, 0
2, 181356, Note_on_c, 0, 59, 0
2, 181388, Note_on_c, 0, 67, 0
2, 187032, Note_on_c, 0, 51, 77
2, 187036, Note_on_c, 0, 63, 74
2, 187044, Control_c, 0, 64, 24
2, 187052, Control_c, 0, 64, 56
2, 187064, Note_on_c, 0, 51, 0
2, 187064, Control_c, 0, 64, 88
2, 187072, Control_c, 0, 64, 127
2, 187084, Note_on_c, 0, 63, 0
2, 187212, Note_on_c, 0, 67, 89
2, 187216, Note_on_c, 0, 55, 78
2, 187240, Note_on_c, 0, 55, 0
2, 187252, Note_on_c, 0, 67, 0
2, 187384, Note_on_c, 0, 70, 93
2, 187388, Note_on_c, 0, 58, 69
2, 187416, Note_on_c, 0, 58, 0
2, 187424, Note_on_c, 0, 70, 0
2, 187540, Control_c, 0, 64, 104
2, 187548, Control_c, 0, 64, 40
2, 187556, Control_c, 0, 64, 0
2, 187564, Note_on_c, 0, 63, 88
2, 187564, Note_on_c, 0, 75, 96
2, 187576, Note_on_c, 0, 31, 76
2, 187584, Note_on_c, 0, 43, 66
2, 187596, Note_on_c, 0, 31, 0
2, 187596, Control_c, 0, 64, 24
2, 187600, Note_on_c, 0, 63, 0
2, 187604, Control_c, 0, 64, 88
2, 187608, Note_on_c, 0, 75, 0
2, 187612, Note_on_c, 0, 43, 0
2, 187612, Control_c, 0, 64, 127
2, 187752, Note_on_c, 0, 79, 106
2, 187752, Note_on_c, 0, 67, 95
2, 187768, Note_on_c, 0, 58, 49
2, 187772, Note_on_c, 0, 61, 56
2, 187776, Note_on_c, 0, 63, 57
2, 187780, Note_on_c, 0, 51, 61
2, 187788, Note_on_c, 0, 67, 0
2, 187796, Note_on_c, 0, 79, 0
2, 187816, Note_on_c, 0, 61, 0
2, 187828, Note_on_c, 0, 58, 0
2, 187828, Note_on_c, 0, 51, 0
2, 187856, Note_on_c, 0, 63, 0
2, 187920, Note_on_c, 0, 70, 93
2, 187924, Note_on_c, 0, 82, 97
2, 187940, Note_on_c, 0, 63, 49
2, 187944, Note_on_c, 0, 58, 44
2, 187944, Note_on_c, 0, 51, 58
2, 187948, Note_on_c, 0, 61, 53
2, 187960, Note_on_c, 0, 70, 0
2, 187976, Note_on_c, 0, 82, 0
2, 187992, Note_on_c, 0, 51, 0
2, 188000, Note_on_c, 0, 58, 0
2, 188000, Note_on_c, 0, 61, 0
2, 188004, Note_on_c, 0, 63, 0
2, 188072, Note_on_c, 0, 58, 56
2, 188076, Note_on_c, 0, 61, 70
2, 188092, Note_on_c, 0, 61, 0
2, 188092, Note_on_c, 0, 63, 41
2, 188096, Note_on_c, 0, 51, 57
2, 188104, Note_on_c, 0, 63, 0
2, 188104, Note_on_c, 0, 58, 0
2, 188112, Note_on_c, 0, 51, 0
2, 188172, Note_on_c, 0, 87, 103
2, 188172, Note_on_c, 0, 75, 98
2, 188212, Note_on_c, 0, 75, 0
2, 188228, Note_on_c, 0, 87, 0
2, 188288, Control_c, 0, 64, 104
2, 188296, Note_on_c, 0, 87, 107
2, 188296, Note_on_c, 0, 75, 101
2, 188296, Note_on_c, 0, 32, 72
2, 188296, Note_on_c, 0, 44, 68
2, 188296, Control_c, 0, 64, 40
2, 188308, Control_c, 0, 64, 0
2, 188328, Note_on_c, 0, 32, 0
2, 188336, Note_on_c, 0, 44, 0
2, 188344, Control_c, 0, 64, 24
2, 188352, Control_c, 0, 64, 104
2, 188364, Control_c, 0, 64, 127
2, 188376, Note_on_c, 0, 87, 0
2, 188392, Note_on_c, 0, 75, 0
2, 188488, Note_on_c, 0, 75, 95
2, 188488, Note_on_c, 0, 87, 102
2, 188492, Note_on_c, 0, 63, 64
2, 188496, Note_on_c, 0, 59, 69
2, 188496, Note_on_c, 0, 51, 68
2, 188508, Note_on_c, 0, 56, 53
2, 188540, Note_on_c, 0, 56, 0
2, 188552, Note_on_c, 0, 59, 0
2, 188552, Note_on_c, 0, 51, 0
2, 188568, Note_on_c, 0, 63, 0
2, 188576, Note_on_c, 0, 75, 0
2, 188588, Note_on_c, 0, 87, 0
2, 188668, Note_on_c, 0, 87, 103
2, 188668, Note_on_c, 0, 75, 96
2, 188676, Note_on_c, 0, 63, 72
2, 188676, Note_on_c, 0, 56, 54
2, 188680, Note_on_c, 0, 51, 63
2, 188680, Note_on_c, 0, 59, 65
2, 188700, Note_on_c, 0, 59, 0
2, 188724, Note_on_c, 0, 75, 0
2, 188728, Note_on_c, 0, 56, 0
2, 188732, Note_on_c, 0, 87, 0
2, 188736, Note_on_c, 0, 51, 0
2, 188740, Note_on_c, 0, 63, 0
2, 188792, Note_on_c, 0, 87, 101
2, 188796, Note_on_c, 0, 75, 98
2, 188844, Note_on_c, 0, 75, 0
2, 188856, Note_on_c, 0, 87, 0
2, 188856, Note_on_c, 0, 63, 78
2, 188860, Note_on_c, 0, 56, 66
2, 188864, Note_on_c, 0, 59, 66
2, 188864, Note_on_c, 0, 51, 55
2, 188880, Note_on_c, 0, 59, 0
2, 188884, Note_on_c, 0, 63, 0
2, 188884, Note_on_c, 0, 56, 0
2, 188900, Note_on_c, 0, 51, 0
2, 188916, Note_on_c, 0, 87, 103
2, 188916, Note_on_c, 0, 75, 101
2, 188964, Note_on_c, 0, 75, 0
2, 188984, Note_on_c, 0, 87, 0
2, 189040, Note_on_c, 0, 87, 101
2, 189040, Note_on_c, 0, 75, 97
2, 189040, Note_on_c, 0, 42, 83
2, 189040, Note_on_c, 0, 30, 68
2, 189040, Control_c, 0, 64, 40
2, 189052, Control_c, 0, 64, 0
2, 189068, Note_on_c, 0, 30, 0
2, 189072, Note_on_c, 0, 42, 0
2, 189072, Control_c, 0, 64, 40
2, 189080, Control_c, 0, 64, 88
2, 189088, Note_on_c, 0, 75, 0
2, 189088, Control_c, 0, 64, 127
2, 189108, Note_on_c, 0, 87, 0
2, 189152, Note_on_c, 0, 88, 106
2, 189152, Note_on_c, 0, 76, 92
2, 189188, Note_on_c, 0, 76, 0
2, 189204, Note_on_c, 0, 88, 0
2, 189220, Note_on_c, 0, 63, 75
2, 189224, Note_on_c, 0, 58, 65
2, 189224, Note_on_c, 0, 51, 65
2, 189228, Note_on_c, 0, 54, 53
2, 189244, Note_on_c, 0, 54, 0
2, 189248, Note_on_c, 0, 87, 93
2, 189252, Note_on_c, 0, 63, 0
2, 189252, Note_on_c, 0, 75, 95
2, 189264, Note_on_c, 0, 58, 0
2, 189272, Note_on_c, 0, 51, 0
2, 189284, Note_on_c, 0, 75, 0
2, 189292, Note_on_c, 0, 87, 0
2, 189316, Note_on_c, 0, 86, 106
2, 189320, Note_on_c, 0, 74, 94
2, 189352, Note_on_c, 0, 74, 0
2, 189352, Note_on_c, 0, 86, 0
2, 189384, Note_on_c, 0, 75, 96
2, 189384, Note_on_c, 0, 87, 101
2, 189412, Note_on_c, 0, 75, 0
2, 189420, Note_on_c, 0, 87, 0
2, 189480, Note_on_c, 0, 63, 48
2, 189480, Note_on_c, 0, 58, 49
2, 189484, Note_on_c, 0, 54, 42
2, 189492, Note_on_c, 0, 51, 47
2, 189492, Note_on_c, 0, 95, 106
2, 189492, Note_on_c, 0, 83, 96
2, 189512, Note_on_c, 0, 83, 0
2, 189544, Note_on_c, 0, 51, 0
2, 189548, Note_on_c, 0, 54, 0
2, 189548, Note_on_c, 0, 58, 0
2, 189552, Note_on_c, 0, 83, 45
2, 189560, Note_on_c, 0, 63, 0
2, 189580, Note_on_c, 0, 95, 0
2, 189600, Note_on_c, 0, 83, 0
2, 189656, Note_on_c, 0, 63, 65
2, 189660, Note_on_c, 0, 51, 67
2, 189660, Note_on_c, 0, 54, 60
2, 189660, Note_on_c, 0, 58, 58
2, 189672, Note_on_c, 0, 63, 0
2, 189676, Note_on_c, 0, 58, 0
2, 189680, Note_on_c, 0, 54, 0
2, 189692, Note_on_c, 0, 51, 0
2, 189780, Note_on_c, 0, 94, 95
2, 189780, Note_on_c, 0, 82, 83
2, 189808, Note_on_c, 0, 94, 0
2, 189812, Note_on_c, 0, 82, 0
2, 189836, Control_c, 0, 64, 0
2, 189844, Note_on_c, 0, 94, 116
2, 189844, Note_on_c, 0, 82, 93
2, 189844, Control_c, 0, 64, 127
2, 189864, Note_on_c, 0, 28, 72
2, 189864, Control_c, 0, 64, 40
2, 189868, Note_on_c, 0, 40, 76
2, 189876, Control_c, 0, 64, 0
2, 189896, Note_on_c, 0, 28, 0
2, 189904, Note_on_c, 0, 40, 0
2, 189912, Control_c, 0, 64, 40
2, 189924, Control_c, 0, 64, 127
2, 189936, Note_on_c, 0, 94, 0
2, 189968, Note_on_c, 0, 82, 0
2, 190056, Note_on_c, 0, 92, 107
2, 190056, Note_on_c, 0, 80, 103
2, 190068, Note_on_c, 0, 63, 66
2, 190068, Note_on_c, 0, 56, 63
2, 190072, Note_on_c, 0, 52, 61
2, 190092, Note_on_c, 0, 52, 0
2, 190092, Note_on_c, 0, 80, 0
2, 190104, Note_on_c, 0, 92, 0
2, 190112, Note_on_c, 0, 56, 0
2, 190120, Note_on_c, 0, 63, 0
2, 190240, Note_on_c, 0, 99, 116
2, 190240, Note_on_c, 0, 87, 101
2, 190252, Note_on_c, 0, 63, 70
2, 190252, Note_on_c, 0, 56, 67
2, 190256, Note_on_c, 0, 52, 58
2, 190292, Note_on_c, 0, 52, 0
2, 190300, Note_on_c, 0, 56, 0
2, 190312, Note_on_c, 0, 63, 0
2, 190420, Note_on_c, 0, 63, 68
2, 190428, Note_on_c, 0, 56, 53
2, 190460, Note_on_c, 0, 56, 0
2, 190476, Note_on_c, 0, 63, 0
2, 190516, Note_on_c, 0, 52, 74
2, 190532, Note_on_c, 0, 56, 50
2, 190580, Note_on_c, 0, 63, 71
2, 190624, Note_on_c, 0, 87, 0
2, 190652, Note_on_c, 0, 99, 0
2, 190672, Note_on_c, 0, 68, 87
2, 190880, Note_on_c, 0, 98, 98
2, 191012, Note_on_c, 0, 93, 92
2, 191016, Note_on_c, 0, 98, 0
2, 191100, Note_on_c, 0, 93, 0
2, 191112, Note_on_c, 0, 94, 83
2, 191192, Note_on_c, 0, 94, 0
2, 191204, Note_on_c, 0, 97, 77
2, 191264, Note_on_c, 0, 97, 0
2, 191276, Note_on_c, 0, 95, 86
2, 191328, Note_on_c, 0, 95, 0
2, 191340, Note_on_c, 0, 91, 78
2, 191392, Note_on_c, 0, 91, 0
2, 191400, Note_on_c, 0, 92, 79
2, 191448, Note_on_c, 0, 92, 0
2, 191460, Note_on_c, 0, 95, 84
2, 191500, Note_on_c, 0, 95, 0
2, 191512, Note_on_c, 0, 94, 79
2, 191556, Note_on_c, 0, 94, 0
2, 191564, Note_on_c, 0, 89, 74
2, 191600, Note_on_c, 0, 89, 0
2, 191612, Note_on_c, 0, 90, 73
2, 191656, Note_on_c, 0, 90, 0
2, 191656, Note_on_c, 0, 94, 66
2, 191704, Note_on_c, 0, 94, 0
2, 191704, Note_on_c, 0, 92, 77
2, 191712, Note_on_c, 0, 52, 0
2, 191736, Note_on_c, 0, 56, 0
2, 191744, Note_on_c, 0, 92, 0
2, 191756, Note_on_c, 0, 87, 72
2, 191784, Note_on_c, 0, 63, 0
2, 191792, Note_on_c, 0, 87, 0
2, 191808, Note_on_c, 0, 88, 78
2, 191844, Note_on_c, 0, 88, 0
2, 191848, Note_on_c, 0, 92, 83
2, 191860, Note_on_c, 0, 68, 0
2, 191892, Note_on_c, 0, 92, 0
2, 191900, Note_on_c, 0, 90, 79
2, 191928, Note_on_c, 0, 90, 0
2, 191948, Note_on_c, 0, 86, 76
2, 191984, Note_on_c, 0, 86, 0
2, 191992, Note_on_c, 0, 87, 79
2, 192032, Note_on_c, 0, 87, 0
2, 192040, Note_on_c, 0, 90, 78
2, 192084, Note_on_c, 0, 90, 0
2, 192092, Note_on_c, 0, 88, 78
2, 192120, Note_on_c, 0, 88, 0
2, 192136, Note_on_c, 0, 84, 78
2, 192180, Note_on_c, 0, 84, 0
2, 192180, Note_on_c, 0, 85, 80
2, 192228, Note_on_c, 0, 85, 0
2, 192232, Note_on_c, 0, 88, 77
2, 192276, Note_on_c, 0, 88, 0
2, 192276, Note_on_c, 0, 87, 79
2, 192312, Note_on_c, 0, 87, 0
2, 192320, Note_on_c, 0, 82, 71
2, 192356, Note_on_c, 0, 82, 0
2, 192368, Note_on_c, 0, 83, 80
2, 192408, Note_on_c, 0, 83, 0
2, 192412, Note_on_c, 0, 87, 77
2, 192464, Note_on_c, 0, 85, 73
2, 192472, Note_on_c, 0, 87, 0
2, 192508, Note_on_c, 0, 85, 0
2, 192508, Note_on_c, 0, 81, 74
2, 192548, Note_on_c, 0, 81, 0
2, 192556, Note_on_c, 0, 82, 75
2, 192596, Note_on_c, 0, 82, 0
2, 192596, Note_on_c, 0, 85, 77
2, 192652, Note_on_c, 0, 85, 0
2, 192652, Note_on_c, 0, 83, 76
2, 192684, Note_on_c, 0, 83, 0
2, 192696, Note_on_c, 0, 79, 75
2, 192744, Note_on_c, 0, 79, 0
2, 192744, Note_on_c, 0, 80, 73
2, 192784, Note_on_c, 0, 80, 0
2, 192788, Note_on_c, 0, 83, 75
2, 192836, Note_on_c, 0, 83, 0
2, 192836, Note_on_c, 0, 82, 70
2, 192876, Note_on_c, 0, 82, 0
2, 192884, Note_on_c, 0, 77, 69
2, 192924, Note_on_c, 0, 77, 0
2, 192924, Note_on_c, 0, 78, 68
2, 192964, Note_on_c, 0, 82, 64
2, 192968, Note_on_c, 0, 78, 0
2, 193012, Note_on_c, 0, 82, 0
2, 193012, Note_on_c, 0, 80, 66
2, 193048, Note_on_c, 0, 80, 0
2, 193060, Note_on_c, 0, 75, 67
2, 193104, Note_on_c, 0, 75, 0
2, 193112, Note_on_c, 0, 76, 78
2, 193152, Note_on_c, 0, 76, 0
2, 193156, Note_on_c, 0, 80, 70
2, 193200, Note_on_c, 0, 78, 67
2, 193204, Note_on_c, 0, 80, 0
2, 193244, Note_on_c, 0, 78, 0
2, 193252, Note_on_c, 0, 74, 58
2, 193292, Note_on_c, 0, 74, 0
2, 193292, Note_on_c, 0, 75, 69
2, 193336, Note_on_c, 0, 75, 0
2, 193344, Note_on_c, 0, 78, 65
2, 193404, Note_on_c, 0, 78, 0
2, 193404, Note_on_c, 0, 76, 76
2, 193440, Note_on_c, 0, 76, 0
2, 193460, Note_on_c, 0, 72, 74
2, 193504, Note_on_c, 0, 72, 0
2, 193512, Note_on_c, 0, 73, 68
2, 193556, Note_on_c, 0, 73, 0
2, 193572, Note_on_c, 0, 76, 83
2, 193616, Note_on_c, 0, 76, 0
2, 193624, Note_on_c, 0, 75, 72
2, 193668, Note_on_c, 0, 75, 0
2, 193684, Note_on_c, 0, 70, 68
2, 193708, Control_c, 0, 64, 104
2, 193716, Control_c, 0, 64, 72
2, 193736, Control_c, 0, 64, 127
2, 193744, Note_on_c, 0, 70, 0
2, 193756, Note_on_c, 0, 71, 74
2, 193808, Control_c, 0, 64, 104
2, 193812, Control_c, 0, 64, 72
2, 193832, Note_on_c, 0, 71, 0
2, 193832, Note_on_c, 0, 75, 79
2, 193836, Control_c, 0, 64, 127
2, 193896, Note_on_c, 0, 75, 0
2, 193912, Note_on_c, 0, 73, 74
2, 193928, Control_c, 0, 64, 72
2, 193932, Control_c, 0, 64, 40
2, 193956, Control_c, 0, 64, 104
2, 193960, Control_c, 0, 64, 127
2, 194000, Note_on_c, 0, 73, 0
2, 194000, Note_on_c, 0, 78, 78
2, 194004, Control_c, 0, 64, 104
2, 194008, Control_c, 0, 64, 72
2, 194016, Control_c, 0, 64, 40
2, 194024, Control_c, 0, 64, 24
2, 194032, Control_c, 0, 64, 40
2, 194040, Control_c, 0, 64, 88
2, 194044, Control_c, 0, 64, 127
2, 194080, Note_on_c, 0, 78, 0
2, 194080, Control_c, 0, 64, 72
2, 194084, Control_c, 0, 64, 24
2, 194092, Note_on_c, 0, 76, 82
2, 194092, Control_c, 0, 64, 0
2, 194116, Control_c, 0, 64, 40
2, 194120, Control_c, 0, 64, 88
2, 194128, Control_c, 0, 64, 127
2, 194176, Control_c, 0, 64, 88
2, 194184, Control_c, 0, 64, 40
2, 194192, Note_on_c, 0, 82, 77
2, 194192, Control_c, 0, 64, 0
2, 194196, Note_on_c, 0, 76, 0
2, 194220, Control_c, 0, 64, 56
2, 194224, Control_c, 0, 64, 104
2, 194232, Control_c, 0, 64, 127
2, 194304, Control_c, 0, 64, 104
2, 194308, Note_on_c, 0, 82, 0
2, 194308, Note_on_c, 0, 80, 75
2, 194308, Control_c, 0, 64, 40
2, 194316, Control_c, 0, 64, 0
2, 194344, Control_c, 0, 64, 72
2, 194352, Control_c, 0, 64, 127
2, 194412, Note_on_c, 0, 75, 79
2, 194420, Note_on_c, 0, 80, 0
2, 194512, Note_on_c, 0, 75, 0
2, 194532, Note_on_c, 0, 76, 80
2, 194568, Note_on_c, 0, 76, 0
2, 194672, Note_on_c, 0, 71, 73
2, 194684, Note_on_c, 0, 68, 46
2, 194708, Control_c, 0, 64, 104
2, 194712, Control_c, 0, 64, 40
2, 194720, Control_c, 0, 64, 0
2, 194740, Control_c, 0, 64, 88
2, 194748, Control_c, 0, 64, 127
2, 194824, Note_on_c, 0, 71, 0
2, 194828, Note_on_c, 0, 68, 0
2, 194896, Note_on_c, 0, 72, 89
2, 194904, Note_on_c, 0, 68, 60
2, 194908, Note_on_c, 0, 64, 53
2, 194944, Control_c, 0, 64, 104
2, 194952, Control_c, 0, 64, 56
2, 194956, Control_c, 0, 64, 0
2, 194984, Control_c, 0, 64, 72
2, 194992, Control_c, 0, 64, 127
2, 195040, Note_on_c, 0, 72, 0
2, 195056, Note_on_c, 0, 68, 0
2, 195072, Note_on_c, 0, 64, 0
2, 195140, Note_on_c, 0, 73, 74
2, 195152, Note_on_c, 0, 68, 48
2, 195152, Note_on_c, 0, 58, 49
2, 195208, Control_c, 0, 64, 72
2, 195216, Control_c, 0, 64, 24
2, 195224, Control_c, 0, 64, 0
2, 195256, Control_c, 0, 64, 56
2, 195264, Control_c, 0, 64, 127
2, 195308, Note_on_c, 0, 73, 0
2, 195312, Note_on_c, 0, 58, 0
2, 195312, Note_on_c, 0, 68, 0
2, 195416, Note_on_c, 0, 74, 78
2, 195428, Note_on_c, 0, 68, 36
2, 195436, Note_on_c, 0, 52, 48
2, 195480, Control_c, 0, 64, 72
2, 195488, Control_c, 0, 64, 24
2, 195496, Control_c, 0, 64, 0
2, 195528, Control_c, 0, 64, 24
2, 195536, Control_c, 0, 64, 104
2, 195544, Control_c, 0, 64, 127
2, 195592, Note_on_c, 0, 52, 0
2, 195592, Note_on_c, 0, 68, 0
2, 195604, Note_on_c, 0, 74, 0
2, 195752, Note_on_c, 0, 75, 68
2, 195764, Note_on_c, 0, 58, 35
2, 195764, Note_on_c, 0, 51, 48
2, 195772, Note_on_c, 0, 67, 44
2, 195808, Control_c, 0, 64, 104
2, 195816, Control_c, 0, 64, 72
2, 195820, Control_c, 0, 64, 24
2, 195828, Control_c, 0, 64, 0
2, 195920, Control_c, 0, 64, 24
2, 195928, Control_c, 0, 64, 72
2, 195932, Control_c, 0, 64, 104
2, 195940, Control_c, 0, 64, 127
2, 195996, Control_c, 0, 64, 88
2, 196004, Control_c, 0, 64, 0
2, 196040, Control_c, 0, 64, 24
2, 196044, Control_c, 0, 64, 72
2, 196052, Control_c, 0, 64, 104
2, 196060, Control_c, 0, 64, 127
2, 196152, Control_c, 0, 64, 72
2, 196156, Control_c, 0, 64, 24
2, 196164, Control_c, 0, 64, 0
2, 196320, Note_on_c, 0, 67, 0
2, 196320, Note_on_c, 0, 75, 0
2, 196320, Note_on_c, 0, 58, 0
2, 196320, Note_on_c, 0, 51, 0
2, 196964, Control_c, 0, 64, 56
2, 196968, Note_on_c, 0, 59, 63
2, 196968, Control_c, 0, 64, 88
2, 196972, Control_c, 0, 64, 127
2, 197012, Note_on_c, 0, 63, 59
2, 197052, Note_on_c, 0, 66, 56
2, 197100, Note_on_c, 0, 69, 74
2, 197148, Note_on_c, 0, 71, 68
2, 197176, Note_on_c, 0, 71, 0
2, 197192, Note_on_c, 0, 75, 75
2, 197224, Note_on_c, 0, 75, 0
2, 197240, Note_on_c, 0, 78, 60
2, 197292, Note_on_c, 0, 81, 70
2, 197296, Note_on_c, 0, 78, 0
2, 197312, Note_on_c, 0, 81, 0
2, 197352, Note_on_c, 0, 83, 80
2, 197400, Note_on_c, 0, 87, 74
2, 197444, Note_on_c, 0, 87, 0
2, 197448, Note_on_c, 0, 90, 74
2, 197492, Note_on_c, 0, 90, 0
2, 197496, Note_on_c, 0, 93, 88
2, 197504, Note_on_c, 0, 59, 0
2, 197504, Note_on_c, 0, 66, 0
2, 197504, Note_on_c, 0, 63, 0
2, 197508, Note_on_c, 0, 69, 0
2, 197516, Note_on_c, 0, 83, 0
2, 197544, Note_on_c, 0, 93, 0
2, 197556, Control_c, 0, 64, 72
2, 197560, Control_c, 0, 64, 0
2, 197564, Note_on_c, 0, 95, 88
2, 197572, Control_c, 0, 64, 40
2, 197576, Control_c, 0, 64, 127
2, 197600, Note_on_c, 0, 95, 0
2, 197608, Note_on_c, 0, 92, 84
2, 197640, Note_on_c, 0, 92, 0
2, 197652, Note_on_c, 0, 89, 76
2, 197684, Note_on_c, 0, 89, 0
2, 197684, Note_on_c, 0, 86, 76
2, 197704, Note_on_c, 0, 86, 0
2, 197720, Note_on_c, 0, 83, 73
2, 197744, Note_on_c, 0, 83, 0
2, 197756, Note_on_c, 0, 80, 71
2, 197776, Note_on_c, 0, 80, 0
2, 197788, Note_on_c, 0, 77, 61
2, 197816, Note_on_c, 0, 74, 59
2, 197820, Note_on_c, 0, 77, 0
2, 197844, Note_on_c, 0, 74, 0
2, 197860, Note_on_c, 0, 71, 75
2, 197912, Note_on_c, 0, 71, 0
2, 197912, Note_on_c, 0, 68, 66
2, 197952, Note_on_c, 0, 68, 0
2, 197964, Note_on_c, 0, 65, 58
2, 198000, Note_on_c, 0, 65, 0
2, 198016, Note_on_c, 0, 62, 66
2, 198060, Note_on_c, 0, 62, 0
2, 198068, Note_on_c, 0, 59, 57
2, 198088, Note_on_c, 0, 59, 0
2, 198112, Note_on_c, 0, 56, 37
2, 198132, Note_on_c, 0, 56, 0
2, 198172, Note_on_c, 0, 51, 69
2, 198192, Control_c, 0, 64, 88
2, 198196, Control_c, 0, 64, 0
2, 198228, Control_c, 0, 64, 88
2, 198232, Control_c, 0, 64, 127
2, 198236, Note_on_c, 0, 58, 56
2, 198284, Note_on_c, 0, 63, 67
2, 198332, Note_on_c, 0, 67, 61
2, 198364, Note_on_c, 0, 67, 0
2, 198380, Note_on_c, 0, 70, 56
2, 198428, Note_on_c, 0, 70, 0
2, 198432, Note_on_c, 0, 75, 65
2, 198444, Note_on_c, 0, 75, 0
2, 198484, Note_on_c, 0, 79, 80
2, 198536, Note_on_c, 0, 82, 72
2, 198564, Note_on_c, 0, 51, 0
2, 198572, Note_on_c, 0, 58, 0
2, 198576, Note_on_c, 0, 63, 0
2, 198580, Note_on_c, 0, 79, 0
2, 198584, Note_on_c, 0, 87, 75
2, 198588, Note_on_c, 0, 82, 0
2, 198648, Note_on_c, 0, 91, 81
2, 198656, Note_on_c, 0, 87, 0
2, 198672, Note_on_c, 0, 91, 0
2, 198816, Control_c, 0, 64, 104
2, 198820, Control_c, 0, 64, 88
2, 198824, Control_c, 0, 64, 72
2, 198828, Control_c, 0, 64, 56
2, 198832, Control_c, 0, 64, 40
2, 198836, Control_c, 0, 64, 0
2, 199400, Note_on_c, 0, 47, 57
2, 199420, Control_c, 0, 64, 24
2, 199424, Control_c, 0, 64, 56
2, 199424, Control_c, 0, 64, 72
2, 199432, Control_c, 0, 64, 88
2, 199440, Note_on_c, 0, 51, 61
2, 199440, Control_c, 0, 64, 104
2, 199444, Control_c, 0, 64, 127
2, 199476, Note_on_c, 0, 54, 64
2, 199520, Note_on_c, 0, 57, 66
2, 199524, Control_c, 0, 64, 72
2, 199528, Control_c, 0, 64, 24
2, 199532, Control_c, 0, 64, 0
2, 199548, Control_c, 0, 64, 40
2, 199552, Control_c, 0, 64, 104
2, 199556, Control_c, 0, 64, 127
2, 199568, Note_on_c, 0, 59, 62
2, 199592, Note_on_c, 0, 59, 0
2, 199612, Note_on_c, 0, 63, 63
2, 199640, Note_on_c, 0, 63, 0
2, 199664, Note_on_c, 0, 66, 62
2, 199668, Control_c, 0, 64, 88
2, 199668, Control_c, 0, 64, 40
2, 199672, Control_c, 0, 64, 0
2, 199684, Control_c, 0, 64, 72
2, 199688, Control_c, 0, 64, 127
2, 199720, Note_on_c, 0, 66, 0
2, 199724, Note_on_c, 0, 69, 68
2, 199744, Note_on_c, 0, 69, 0
2, 199768, Note_on_c, 0, 71, 63
2, 199784, Note_on_c, 0, 51, 0
2, 199784, Note_on_c, 0, 47, 0
2, 199788, Note_on_c, 0, 54, 0
2, 199792, Note_on_c, 0, 57, 0
2, 199812, Note_on_c, 0, 75, 68
2, 199856, Note_on_c, 0, 75, 0
2, 199860, Note_on_c, 0, 78, 70
2, 199896, Note_on_c, 0, 78, 0
2, 199908, Note_on_c, 0, 81, 70
2, 199936, Note_on_c, 0, 81, 0
2, 199968, Note_on_c, 0, 71, 0
2, 199968, Control_c, 0, 64, 104
2, 199972, Control_c, 0, 64, 40
2, 199972, Control_c, 0, 64, 0
2, 199976, Note_on_c, 0, 83, 85
2, 199992, Control_c, 0, 64, 40
2, 199996, Control_c, 0, 64, 104
2, 200000, Control_c, 0, 64, 127
2, 200028, Note_on_c, 0, 78, 75
2, 200060, Note_on_c, 0, 78, 0
2, 200060, Note_on_c, 0, 75, 70
2, 200092, Note_on_c, 0, 75, 0
2, 200096, Note_on_c, 0, 71, 68
2, 200100, Note_on_c, 0, 83, 0
2, 200108, Note_on_c, 0, 71, 0
2, 200132, Note_on_c, 0, 69, 65
2, 200180, Note_on_c, 0, 66, 62
2, 200192, Note_on_c, 0, 69, 0
2, 200224, Note_on_c, 0, 66, 0
2, 200228, Note_on_c, 0, 63, 59
2, 200248, Note_on_c, 0, 63, 0
2, 200284, Note_on_c, 0, 59, 59
2, 200296, Control_c, 0, 64, 88
2, 200300, Control_c, 0, 64, 40
2, 200304, Control_c, 0, 64, 0
2, 200308, Control_c, 0, 64, 24
2, 200312, Control_c, 0, 64, 56
2, 200316, Control_c, 0, 64, 104
2, 200316, Control_c, 0, 64, 127
2, 200320, Note_on_c, 0, 56, 65
2, 200328, Note_on_c, 0, 59, 0
2, 200364, Note_on_c, 0, 56, 0
2, 200368, Note_on_c, 0, 53, 64
2, 200384, Note_on_c, 0, 53, 0
2, 200412, Note_on_c, 0, 50, 64
2, 200448, Note_on_c, 0, 50, 0
2, 200464, Note_on_c, 0, 47, 43
2, 200520, Note_on_c, 0, 47, 0
2, 200528, Note_on_c, 0, 44, 49
2, 200556, Note_on_c, 0, 44, 0
2, 200600, Note_on_c, 0, 39, 63
2, 200616, Control_c, 0, 64, 88
2, 200620, Control_c, 0, 64, 40
2, 200624, Control_c, 0, 64, 0
2, 200664, Note_on_c, 0, 46, 65
2, 200668, Control_c, 0, 64, 40
2, 200672, Control_c, 0, 64, 72
2, 200672, Control_c, 0, 64, 88
2, 200676, Control_c, 0, 64, 127
2, 200704, Note_on_c, 0, 51, 66
2, 200752, Note_on_c, 0, 55, 59
2, 200784, Note_on_c, 0, 55, 0
2, 200796, Note_on_c, 0, 58, 37
2, 200832, Note_on_c, 0, 58, 0
2, 200836, Note_on_c, 0, 63, 50
2, 200848, Note_on_c, 0, 63, 0
2, 200880, Note_on_c, 0, 67, 69
2, 200896, Note_on_c, 0, 39, 0
2, 200896, Note_on_c, 0, 46, 0
2, 200900, Note_on_c, 0, 51, 0
2, 200920, Note_on_c, 0, 70, 66
2, 200944, Note_on_c, 0, 67, 0
2, 200964, Note_on_c, 0, 75, 70
2, 200968, Note_on_c, 0, 70, 0
2, 200984, Note_on_c, 0, 75, 0
2, 201008, Note_on_c, 0, 79, 83
2, 201040, Note_on_c, 0, 79, 0
2, 201048, Note_on_c, 0, 87, 87
2, 201088, Note_on_c, 0, 87, 0
2, 201092, Note_on_c, 0, 85, 83
2, 201132, Note_on_c, 0, 85, 0
2, 201136, Note_on_c, 0, 83, 81
2, 201144, Control_c, 0, 64, 72
2, 201148, Control_c, 0, 64, 24
2, 201152, Control_c, 0, 64, 0
2, 201160, Control_c, 0, 64, 56
2, 201164, Note_on_c, 0, 83, 0
2, 201164, Control_c, 0, 64, 127
2, 201168, Note_on_c, 0, 78, 77
2, 201200, Note_on_c, 0, 78, 0
2, 201200, Note_on_c, 0, 75, 73
2, 201216, Note_on_c, 0, 75, 0
2, 201232, Note_on_c, 0, 71, 54
2, 201244, Note_on_c, 0, 71, 0
2, 201268, Note_on_c, 0, 69, 47
2, 201304, Note_on_c, 0, 66, 55
2, 201316, Note_on_c, 0, 69, 0
2, 201336, Note_on_c, 0, 66, 0
2, 201344, Note_on_c, 0, 63, 45
2, 201364, Note_on_c, 0, 63, 0
2, 201384, Note_on_c, 0, 59, 64
2, 201396, Control_c, 0, 64, 88
2, 201400, Control_c, 0, 64, 56
2, 201408, Control_c, 0, 64, 127
2, 201420, Note_on_c, 0, 59, 0
2, 201428, Note_on_c, 0, 56, 53
2, 201464, Note_on_c, 0, 56, 0
2, 201468, Note_on_c, 0, 53, 52
2, 201480, Note_on_c, 0, 53, 0
2, 201508, Note_on_c, 0, 50, 60
2, 201536, Note_on_c, 0, 50, 0
2, 201588, Note_on_c, 0, 44, 53
2, 201612, Note_on_c, 0, 44, 0
2, 201636, Note_on_c, 0, 39, 54
2, 201656, Control_c, 0, 64, 56
2, 201660, Control_c, 0, 64, 0
2, 201676, Control_c, 0, 64, 40
2, 201680, Note_on_c, 0, 46, 58
2, 201680, Control_c, 0, 64, 104
2, 201684, Control_c, 0, 64, 127
2, 201716, Note_on_c, 0, 51, 57
2, 201736, Note_on_c, 0, 46, 0
2, 201736, Note_on_c, 0, 39, 0
2, 201740, Note_on_c, 0, 51, 0
2, 201756, Note_on_c, 0, 55, 61
2, 201788, Note_on_c, 0, 55, 0
2, 201792, Note_on_c, 0, 58, 44
2, 201832, Note_on_c, 0, 58, 0
2, 201832, Note_on_c, 0, 63, 58
2, 201844, Note_on_c, 0, 63, 0
2, 201868, Note_on_c, 0, 67, 70
2, 201904, Note_on_c, 0, 70, 70
2, 201916, Note_on_c, 0, 67, 0
2, 201944, Note_on_c, 0, 70, 0
2, 201944, Note_on_c, 0, 75, 70
2, 201956, Note_on_c, 0, 75, 0
2, 201980, Note_on_c, 0, 79, 80
2, 202004, Note_on_c, 0, 79, 0
2, 202012, Note_on_c, 0, 87, 78
2, 202040, Note_on_c, 0, 87, 0
2, 202048, Note_on_c, 0, 85, 77
2, 202064, Note_on_c, 0, 85, 0
2, 202088, Note_on_c, 0, 83, 87
2, 202092, Note_on_c, 0, 83, 74
2, 202092, Control_c, 0, 64, 56
2, 202092, Control_c, 0, 64, 0
2, 202112, Control_c, 0, 64, 24
2, 202116, Note_on_c, 0, 78, 71
2, 202116, Control_c, 0, 64, 104
2, 202116, Control_c, 0, 64, 127
2, 202124, Note_on_c, 0, 78, 58
2, 202144, Note_on_c, 0, 78, 0
2, 202144, Note_on_c, 0, 78, 0
2, 202144, Note_on_c, 0, 75, 70
2, 202168, Note_on_c, 0, 75, 0
2, 202168, Note_on_c, 0, 83, 0
2, 202172, Note_on_c, 0, 83, 0
2, 202176, Note_on_c, 0, 71, 69
2, 202188, Note_on_c, 0, 71, 0
2, 202204, Note_on_c, 0, 69, 70
2, 202236, Note_on_c, 0, 69, 0
2, 202236, Note_on_c, 0, 66, 65
2, 202272, Note_on_c, 0, 66, 0
2, 202272, Note_on_c, 0, 63, 64
2, 202296, Note_on_c, 0, 63, 0
2, 202312, Note_on_c, 0, 59, 66
2, 202324, Control_c, 0, 64, 72
2, 202324, Control_c, 0, 64, 24
2, 202328, Control_c, 0, 64, 0
2, 202340, Control_c, 0, 64, 40
2, 202344, Control_c, 0, 64, 88
2, 202348, Control_c, 0, 64, 127
2, 202352, Note_on_c, 0, 59, 0
2, 202352, Note_on_c, 0, 56, 56
2, 202384, Note_on_c, 0, 56, 0
2, 202388, Note_on_c, 0, 53, 68
2, 202404, Note_on_c, 0, 53, 0
2, 202424, Note_on_c, 0, 50, 56
2, 202456, Note_on_c, 0, 50, 0
2, 202468, Note_on_c, 0, 47, 43
2, 202496, Note_on_c, 0, 47, 0
2, 202504, Note_on_c, 0, 44, 48
2, 202536, Note_on_c, 0, 44, 0
2, 202544, Note_on_c, 0, 39, 52
2, 202556, Control_c, 0, 64, 104
2, 202556, Control_c, 0, 64, 40
2, 202560, Control_c, 0, 64, 0
2, 202584, Note_on_c, 0, 46, 60
2, 202584, Control_c, 0, 64, 56
2, 202584, Control_c, 0, 64, 127
2, 202620, Note_on_c, 0, 51, 58
2, 202640, Note_on_c, 0, 51, 0
2, 202640, Note_on_c, 0, 46, 0
2, 202640, Note_on_c, 0, 39, 0
2, 202660, Note_on_c, 0, 55, 63
2, 202688, Note_on_c, 0, 55, 0
2, 202696, Note_on_c, 0, 58, 48
2, 202736, Note_on_c, 0, 58, 0
2, 202736, Note_on_c, 0, 63, 57
2, 202748, Note_on_c, 0, 63, 0
2, 202772, Note_on_c, 0, 67, 70
2, 202812, Note_on_c, 0, 67, 0
2, 202812, Note_on_c, 0, 70, 66
2, 202848, Note_on_c, 0, 70, 0
2, 202848, Note_on_c, 0, 75, 68
2, 202860, Note_on_c, 0, 75, 0
2, 202888, Note_on_c, 0, 79, 76
2, 202924, Note_on_c, 0, 82, 75
2, 202960, Note_on_c, 0, 82, 0
2, 202960, Note_on_c, 0, 87, 83
2, 203004, Note_on_c, 0, 87, 0
2, 203008, Note_on_c, 0, 91, 88
2, 203040, Note_on_c, 0, 91, 0
2, 203048, Note_on_c, 0, 87, 75
2, 203060, Note_on_c, 0, 79, 0
2, 203072, Note_on_c, 0, 87, 0
2, 203080, Note_on_c, 0, 82, 62
2, 203108, Note_on_c, 0, 82, 0
2, 203116, Note_on_c, 0, 79, 71
2, 203136, Note_on_c, 0, 79, 0
2, 203152, Note_on_c, 0, 75, 60
2, 203188, Note_on_c, 0, 75, 0
2, 203192, Note_on_c, 0, 70, 58
2, 203224, Note_on_c, 0, 70, 0
2, 203232, Note_on_c, 0, 67, 68
2, 203252, Note_on_c, 0, 67, 0
2, 203268, Note_on_c, 0, 63, 53
2, 203300, Note_on_c, 0, 63, 0
2, 203308, Note_on_c, 0, 58, 56
2, 203344, Note_on_c, 0, 58, 0
2, 203348, Note_on_c, 0, 55, 64
2, 203384, Note_on_c, 0, 51, 60
2, 203412, Note_on_c, 0, 51, 0
2, 203424, Note_on_c, 0, 46, 58
2, 203432, Note_on_c, 0, 55, 0
2, 203460, Note_on_c, 0, 46, 0
2, 203468, Note_on_c, 0, 39, 64
2, 203480, Control_c, 0, 64, 104
2, 203484, Control_c, 0, 64, 56
2, 203488, Control_c, 0, 64, 0
2, 203504, Control_c, 0, 64, 56
2, 203504, Control_c, 0, 64, 127
2, 203512, Note_on_c, 0, 46, 60
2, 203548, Note_on_c, 0, 46, 0
2, 203548, Note_on_c, 0, 39, 0
2, 203548, Note_on_c, 0, 51, 60
2, 203564, Note_on_c, 0, 51, 0
2, 203584, Note_on_c, 0, 55, 65
2, 203604, Note_on_c, 0, 55, 0
2, 203620, Note_on_c, 0, 58, 56
2, 203656, Note_on_c, 0, 58, 0
2, 203656, Note_on_c, 0, 63, 55
2, 203672, Note_on_c, 0, 63, 0
2, 203696, Note_on_c, 0, 67, 66
2, 203728, Note_on_c, 0, 67, 0
2, 203728, Note_on_c, 0, 70, 69
2, 203764, Note_on_c, 0, 75, 73
2, 203768, Note_on_c, 0, 70, 0
2, 203780, Note_on_c, 0, 75, 0
2, 203804, Note_on_c, 0, 79, 80
2, 203840, Note_on_c, 0, 82, 70
2, 203872, Note_on_c, 0, 82, 0
2, 203880, Note_on_c, 0, 87, 82
2, 203920, Note_on_c, 0, 87, 0
2, 203924, Note_on_c, 0, 91, 93
2, 203956, Note_on_c, 0, 91, 0
2, 203964, Note_on_c, 0, 87, 77
2, 203976, Note_on_c, 0, 79, 0
2, 203992, Note_on_c, 0, 87, 0
2, 204000, Note_on_c, 0, 82, 71
2, 204036, Note_on_c, 0, 82, 0
2, 204040, Note_on_c, 0, 79, 78
2, 204056, Note_on_c, 0, 79, 0
2, 204076, Note_on_c, 0, 75, 67
2, 204108, Note_on_c, 0, 75, 0
2, 204116, Note_on_c, 0, 70, 65
2, 204148, Note_on_c, 0, 70, 0
2, 204152, Note_on_c, 0, 67, 73
2, 204168, Note_on_c, 0, 67, 0
2, 204188, Note_on_c, 0, 63, 56
2, 204224, Note_on_c, 0, 63, 0
2, 204232, Note_on_c, 0, 58, 45
2, 204260, Note_on_c, 0, 58, 0
2, 204268, Note_on_c, 0, 55, 65
2, 204304, Note_on_c, 0, 51, 55
2, 204332, Note_on_c, 0, 55, 0
2, 204340, Note_on_c, 0, 51, 0
2, 204344, Note_on_c, 0, 46, 63
2, 204380, Note_on_c, 0, 46, 0
2, 204388, Note_on_c, 0, 39, 60
2, 204404, Control_c, 0, 64, 72
2, 204408, Control_c, 0, 64, 24
2, 204412, Control_c, 0, 64, 0
2, 204424, Control_c, 0, 64, 40
2, 204424, Control_c, 0, 64, 127
2, 204452, Note_on_c, 0, 39, 0
2, 204500, Note_on_c, 0, 46, 46
2, 204504, Note_on_c, 0, 55, 70
2, 204512, Note_on_c, 0, 46, 49
2, 204516, Note_on_c, 0, 55, 64
2, 204528, Note_on_c, 0, 55, 0
2, 204532, Note_on_c, 0, 46, 0
2, 204536, Note_on_c, 0, 55, 0
2, 204540, Note_on_c, 0, 46, 0
2, 204540, Note_on_c, 0, 51, 55
2, 204540, Note_on_c, 0, 58, 64
2, 204572, Note_on_c, 0, 51, 0
2, 204576, Note_on_c, 0, 58, 0
2, 204580, Note_on_c, 0, 63, 55
2, 204580, Note_on_c, 0, 55, 57
2, 204592, Note_on_c, 0, 63, 0
2, 204608, Note_on_c, 0, 55, 0
2, 204616, Note_on_c, 0, 58, 46
2, 204616, Note_on_c, 0, 67, 70
2, 204636, Note_on_c, 0, 67, 0
2, 204652, Note_on_c, 0, 58, 0
2, 204652, Note_on_c, 0, 70, 60
2, 204652, Note_on_c, 0, 63, 41
2, 204684, Note_on_c, 0, 63, 0
2, 204684, Note_on_c, 0, 70, 0
2, 204684, Note_on_c, 0, 75, 66
2, 204692, Note_on_c, 0, 67, 54
2, 204696, Note_on_c, 0, 75, 0
2, 204724, Note_on_c, 0, 67, 0
2, 204724, Note_on_c, 0, 79, 78
2, 204728, Note_on_c, 0, 70, 56
2, 204748, Note_on_c, 0, 79, 0
2, 204756, Note_on_c, 0, 70, 0
2, 204756, Note_on_c, 0, 82, 71
2, 204760, Note_on_c, 0, 75, 54
2, 204788, Note_on_c, 0, 75, 0
2, 204792, Note_on_c, 0, 87, 70
2, 204796, Note_on_c, 0, 82, 0
2, 204796, Note_on_c, 0, 79, 58
2, 204804, Note_on_c, 0, 87, 0
2, 204824, Note_on_c, 0, 79, 0
2, 204828, Note_on_c, 0, 91, 81
2, 204832, Note_on_c, 0, 82, 52
2, 204860, Note_on_c, 0, 82, 0
2, 204864, Note_on_c, 0, 91, 0
2, 204864, Note_on_c, 0, 99, 79
2, 204868, Note_on_c, 0, 87, 52
2, 204900, Note_on_c, 0, 87, 0
2, 204900, Note_on_c, 0, 82, 58
2, 204904, Note_on_c, 0, 99, 0
2, 204904, Note_on_c, 0, 91, 83
2, 204920, Note_on_c, 0, 91, 0
2, 204932, Note_on_c, 0, 82, 0
2, 204940, Note_on_c, 0, 87, 73
2, 204940, Note_on_c, 0, 79, 64
2, 204972, Note_on_c, 0, 79, 0
2, 204976, Note_on_c, 0, 87, 0
2, 204976, Note_on_c, 0, 82, 67
2, 204980, Note_on_c, 0, 75, 56
2, 205008, Note_on_c, 0, 75, 0
2, 205012, Note_on_c, 0, 82, 0
2, 205012, Note_on_c, 0, 70, 52
2, 205012, Note_on_c, 0, 79, 79
2, 205024, Note_on_c, 0, 79, 0
2, 205036, Note_on_c, 0, 70, 0
2, 205048, Note_on_c, 0, 75, 64
2, 205052, Note_on_c, 0, 67, 46
2, 205072, Note_on_c, 0, 67, 0
2, 205080, Note_on_c, 0, 75, 0
2, 205084, Note_on_c, 0, 70, 48
2, 205084, Note_on_c, 0, 63, 37
2, 205116, Note_on_c, 0, 63, 0
2, 205116, Note_on_c, 0, 70, 0
2, 205120, Note_on_c, 0, 67, 58
2, 205124, Note_on_c, 0, 58, 43
2, 205132, Note_on_c, 0, 67, 0
2, 205140, Note_on_c, 0, 58, 0
2, 205156, Note_on_c, 0, 63, 49
2, 205160, Note_on_c, 0, 55, 50
2, 205176, Note_on_c, 0, 55, 0
2, 205188, Note_on_c, 0, 63, 0
2, 205196, Note_on_c, 0, 58, 48
2, 205196, Note_on_c, 0, 51, 49
2, 205220, Note_on_c, 0, 51, 0
2, 205228, Note_on_c, 0, 58, 0
2, 205232, Note_on_c, 0, 55, 57
2, 205240, Note_on_c, 0, 55, 0
2, 205240, Note_on_c, 0, 46, 36
2, 205272, Note_on_c, 0, 46, 0
2, 205272, Note_on_c, 0, 39, 57
2, 205276, Control_c, 0, 64, 104
2, 205276, Control_c, 0, 64, 40
2, 205280, Control_c, 0, 64, 0
2, 205304, Control_c, 0, 64, 88
2, 205308, Control_c, 0, 64, 127
2, 205384, Note_on_c, 0, 55, 64
2, 205388, Note_on_c, 0, 39, 0
2, 205388, Note_on_c, 0, 46, 47
2, 205388, Control_c, 0, 64, 72
2, 205392, Control_c, 0, 64, 0
2, 205400, Control_c, 0, 64, 40
2, 205400, Control_c, 0, 64, 88
2, 205404, Control_c, 0, 64, 127
2, 205412, Note_on_c, 0, 46, 0
2, 205412, Note_on_c, 0, 55, 0
2, 205420, Note_on_c, 0, 58, 52
2, 205424, Note_on_c, 0, 51, 47
2, 205452, Note_on_c, 0, 51, 0
2, 205452, Note_on_c, 0, 58, 0
2, 205456, Note_on_c, 0, 63, 56
2, 205460, Note_on_c, 0, 55, 47
2, 205468, Note_on_c, 0, 63, 0
2, 205480, Note_on_c, 0, 55, 0
2, 205492, Note_on_c, 0, 67, 65
2, 205492, Note_on_c, 0, 58, 37
2, 205504, Control_c, 0, 64, 104
2, 205508, Control_c, 0, 64, 127
2, 205516, Note_on_c, 0, 67, 0
2, 205528, Note_on_c, 0, 70, 65
2, 205528, Note_on_c, 0, 63, 36
2, 205532, Note_on_c, 0, 58, 0
2, 205560, Note_on_c, 0, 63, 0
2, 205560, Note_on_c, 0, 70, 0
2, 205560, Note_on_c, 0, 75, 68
2, 205564, Note_on_c, 0, 67, 53
2, 205572, Note_on_c, 0, 75, 0
2, 205592, Note_on_c, 0, 67, 0
2, 205600, Note_on_c, 0, 79, 76
2, 205604, Note_on_c, 0, 70, 44
2, 205620, Note_on_c, 0, 79, 0
2, 205628, Note_on_c, 0, 70, 0
2, 205632, Note_on_c, 0, 82, 66
2, 205636, Note_on_c, 0, 75, 52
2, 205664, Note_on_c, 0, 75, 0
2, 205664, Note_on_c, 0, 82, 0
2, 205664, Note_on_c, 0, 87, 70
2, 205672, Note_on_c, 0, 79, 58
2, 205676, Note_on_c, 0, 87, 0
2, 205704, Note_on_c, 0, 91, 69
2, 205708, Note_on_c, 0, 82, 49
2, 205712, Note_on_c, 0, 79, 0
2, 205712, Control_c, 0, 64, 72
2, 205716, Control_c, 0, 64, 24
2, 205720, Control_c, 0, 64, 0
2, 205720, Control_c, 0, 64, 40
2, 205724, Control_c, 0, 64, 88
2, 205724, Control_c, 0, 64, 127
2, 205740, Note_on_c, 0, 82, 0
2, 205740, Note_on_c, 0, 99, 75
2, 205740, Note_on_c, 0, 87, 57
2, 205744, Note_on_c, 0, 91, 0
2, 205772, Note_on_c, 0, 87, 0
2, 205776, Note_on_c, 0, 82, 53
2, 205780, Note_on_c, 0, 99, 0
2, 205780, Note_on_c, 0, 91, 64
2, 205788, Note_on_c, 0, 91, 0
2, 205796, Note_on_c, 0, 82, 0
2, 205816, Note_on_c, 0, 79, 58
2, 205816, Note_on_c, 0, 87, 45
2, 205820, Note_on_c, 0, 87, 0
2, 205836, Note_on_c, 0, 79, 0
2, 205852, Note_on_c, 0, 82, 59
2, 205852, Note_on_c, 0, 75, 52
2, 205888, Note_on_c, 0, 75, 0
2, 205888, Note_on_c, 0, 82, 0
2, 205892, Note_on_c, 0, 79, 75
2, 205892, Note_on_c, 0, 70, 47
2, 205900, Note_on_c, 0, 79, 0
2, 205912, Note_on_c, 0, 70, 0
2, 205928, Note_on_c, 0, 67, 57
2, 205928, Note_on_c, 0, 75, 64
2, 205936, Control_c, 0, 64, 104
2, 205940, Control_c, 0, 64, 40
2, 205944, Control_c, 0, 64, 0
2, 205952, Note_on_c, 0, 67, 0
2, 205952, Control_c, 0, 64, 72
2, 205952, Control_c, 0, 64, 127
2, 205960, Note_on_c, 0, 75, 0
2, 205964, Note_on_c, 0, 63, 53
2, 205964, Note_on_c, 0, 70, 55
2, 205992, Note_on_c, 0, 70, 0
2, 205996, Note_on_c, 0, 63, 0
2, 206000, Note_on_c, 0, 67, 64
2, 206004, Note_on_c, 0, 58, 41
2, 206008, Note_on_c, 0, 67, 0
2, 206020, Note_on_c, 0, 58, 0
2, 206040, Note_on_c, 0, 55, 64
2, 206040, Note_on_c, 0, 63, 53
2, 206056, Note_on_c, 0, 55, 0
2, 206060, Note_on_c, 0, 63, 0
2, 206072, Note_on_c, 0, 58, 48
2, 206076, Note_on_c, 0, 51, 52
2, 206096, Note_on_c, 0, 51, 0
2, 206108, Note_on_c, 0, 58, 0
2, 206112, Note_on_c, 0, 55, 51
2, 206116, Note_on_c, 0, 46, 36
2, 206120, Note_on_c, 0, 55, 0
2, 206128, Note_on_c, 0, 46, 0
2, 206152, Control_c, 0, 64, 72
2, 206156, Note_on_c, 0, 39, 53
2, 206156, Control_c, 0, 64, 0
2, 206172, Control_c, 0, 64, 72
2, 206172, Control_c, 0, 64, 127
2, 206192, Note_on_c, 0, 39, 0
2, 206196, Note_on_c, 0, 43, 51
2, 206196, Note_on_c, 0, 51, 47
2, 206208, Control_c, 0, 64, 104
2, 206212, Control_c, 0, 64, 88
2, 206212, Control_c, 0, 64, 72
2, 206216, Control_c, 0, 64, 56
2, 206220, Note_on_c, 0, 51, 0
2, 206220, Control_c, 0, 64, 40
2, 206220, Control_c, 0, 64, 24
2, 206224, Note_on_c, 0, 43, 0
2, 206224, Note_on_c, 0, 44, 67
2, 206224, Control_c, 0, 64, 0
2, 206228, Note_on_c, 0, 52, 56
2, 206252, Note_on_c, 0, 52, 0
2, 206256, Note_on_c, 0, 44, 0
2, 206256, Note_on_c, 0, 53, 67
2, 206260, Note_on_c, 0, 45, 64
2, 206288, Note_on_c, 0, 53, 0
2, 206292, Note_on_c, 0, 46, 58
2, 206292, Note_on_c, 0, 54, 50
2, 206296, Note_on_c, 0, 45, 0
2, 206320, Note_on_c, 0, 46, 0
2, 206324, Note_on_c, 0, 54, 0
2, 206328, Note_on_c, 0, 55, 48
2, 206332, Note_on_c, 0, 47, 37
2, 206360, Note_on_c, 0, 47, 0
2, 206360, Note_on_c, 0, 55, 0
2, 206364, Note_on_c, 0, 56, 53
2, 206368, Note_on_c, 0, 48, 46
2, 206392, Note_on_c, 0, 48, 0
2, 206392, Note_on_c, 0, 56, 0
2, 206396, Note_on_c, 0, 49, 54
2, 206396, Note_on_c, 0, 57, 57
2, 206420, Note_on_c, 0, 49, 0
2, 206424, Note_on_c, 0, 57, 0
2, 206428, Note_on_c, 0, 58, 50
2, 206432, Note_on_c, 0, 50, 54
2, 206456, Note_on_c, 0, 58, 0
2, 206460, Note_on_c, 0, 50, 0
2, 206460, Note_on_c, 0, 51, 62
2, 206464, Note_on_c, 0, 59, 54
2, 206484, Note_on_c, 0, 59, 0
2, 206488, Note_on_c, 0, 51, 0
2, 206492, Note_on_c, 0, 60, 64
2, 206496, Note_on_c, 0, 52, 48
2, 206516, Note_on_c, 0, 52, 0
2, 206516, Note_on_c, 0, 60, 0
2, 206520, Note_on_c, 0, 61, 57
2, 206524, Note_on_c, 0, 53, 42
2, 206540, Note_on_c, 0, 61, 0
2, 206544, Note_on_c, 0, 53, 0
2, 206544, Note_on_c, 0, 62, 67
2, 206548, Note_on_c, 0, 54, 41
2, 206572, Note_on_c, 0, 54, 0
2, 206572, Note_on_c, 0, 62, 0
2, 206576, Note_on_c, 0, 63, 63
2, 206580, Note_on_c, 0, 55, 55
2, 206600, Note_on_c, 0, 55, 0
2, 206604, Note_on_c, 0, 63, 0
2, 206608, Note_on_c, 0, 64, 64
2, 206608, Note_on_c, 0, 56, 40
2, 206632, Note_on_c, 0, 56, 0
2, 206632, Note_on_c, 0, 64, 0
2, 206636, Note_on_c, 0, 65, 64
2, 206640, Note_on_c, 0, 57, 55
2, 206664, Note_on_c, 0, 57, 0
2, 206664, Note_on_c, 0, 65, 0
2, 206664, Note_on_c, 0, 58, 44
2, 206664, Note_on_c, 0, 66, 66
2, 206692, Note_on_c, 0, 66, 0
2, 206696, Note_on_c, 0, 58, 0
2, 206696, Note_on_c, 0, 67, 63
2, 206700, Note_on_c, 0, 59, 42
2, 206720, Note_on_c, 0, 59, 0
2, 206724, Note_on_c, 0, 67, 0
2, 206724, Note_on_c, 0, 68, 64
2, 206728, Note_on_c, 0, 60, 54
2, 206748, Note_on_c, 0, 68, 0
2, 206752, Note_on_c, 0, 60, 0
2, 206752, Note_on_c, 0, 69, 72
2, 206756, Note_on_c, 0, 61, 46
2, 206780, Note_on_c, 0, 61, 0
2, 206780, Note_on_c, 0, 69, 0
2, 206784, Note_on_c, 0, 70, 68
2, 206784, Note_on_c, 0, 62, 56
2, 206808, Note_on_c, 0, 62, 0
2, 206808, Note_on_c, 0, 70, 0
2, 206812, Note_on_c, 0, 63, 47
2, 206812, Note_on_c, 0, 71, 69
2, 206836, Note_on_c, 0, 71, 0
2, 206840, Note_on_c, 0, 63, 0
2, 206840, Note_on_c, 0, 72, 73
2, 206844, Note_on_c, 0, 64, 50
2, 206860, Note_on_c, 0, 64, 0
2, 206868, Note_on_c, 0, 72, 0
2, 206868, Note_on_c, 0, 73, 65
2, 206872, Note_on_c, 0, 65, 46
2, 206892, Note_on_c, 0, 65, 0
2, 206892, Note_on_c, 0, 73, 0
2, 206896, Note_on_c, 0, 74, 76
2, 206896, Note_on_c, 0, 66, 47
2, 206924, Note_on_c, 0, 66, 0
2, 206928, Note_on_c, 0, 74, 0
2, 206928, Note_on_c, 0, 75, 72
2, 206928, Note_on_c, 0, 67, 55
2, 206952, Note_on_c, 0, 67, 0
2, 206956, Note_on_c, 0, 75, 0
2, 206956, Note_on_c, 0, 68, 50
2, 206960, Note_on_c, 0, 76, 62
2, 206984, Note_on_c, 0, 76, 0
2, 206984, Note_on_c, 0, 68, 0
2, 206988, Note_on_c, 0, 77, 72
2, 206992, Note_on_c, 0, 69, 57
2, 207016, Note_on_c, 0, 69, 0
2, 207016, Note_on_c, 0, 77, 0
2, 207016, Note_on_c, 0, 70, 56
2, 207016, Note_on_c, 0, 78, 67
2, 207044, Note_on_c, 0, 78, 0
2, 207048, Note_on_c, 0, 70, 0
2, 207048, Note_on_c, 0, 79, 66
2, 207052, Note_on_c, 0, 71, 52
2, 207072, Note_on_c, 0, 71, 0
2, 207076, Note_on_c, 0, 79, 0
2, 207076, Note_on_c, 0, 80, 70
2, 207080, Note_on_c, 0, 72, 56
2, 207104, Note_on_c, 0, 80, 0
2, 207108, Note_on_c, 0, 72, 0
2, 207108, Note_on_c, 0, 73, 52
2, 207108, Note_on_c, 0, 81, 68
2, 207136, Note_on_c, 0, 81, 0
2, 207136, Note_on_c, 0, 73, 0
2, 207136, Note_on_c, 0, 82, 67
2, 207144, Note_on_c, 0, 74, 54
2, 207164, Note_on_c, 0, 74, 0
2, 207164, Note_on_c, 0, 82, 0
2, 207164, Note_on_c, 0, 75, 61
2, 207168, Note_on_c, 0, 83, 63
2, 207192, Note_on_c, 0, 83, 0
2, 207196, Note_on_c, 0, 75, 0
2, 207196, Note_on_c, 0, 84, 64
2, 207204, Note_on_c, 0, 76, 50
2, 207224, Note_on_c, 0, 76, 0
2, 207224, Note_on_c, 0, 84, 0
2, 207228, Note_on_c, 0, 85, 65
2, 207232, Note_on_c, 0, 77, 53
2, 207248, Note_on_c, 0, 85, 0
2, 207256, Note_on_c, 0, 77, 0
2, 207256, Note_on_c, 0, 86, 59
2, 207256, Note_on_c, 0, 78, 47
2, 207284, Note_on_c, 0, 78, 0
2, 207284, Note_on_c, 0, 86, 0
2, 207284, Note_on_c, 0, 87, 59
2, 207288, Note_on_c, 0, 79, 55
2, 207312, Note_on_c, 0, 79, 0
2, 207312, Note_on_c, 0, 87, 0
2, 207316, Note_on_c, 0, 88, 62
2, 207316, Note_on_c, 0, 80, 47
2, 207340, Note_on_c, 0, 80, 0
2, 207340, Note_on_c, 0, 88, 0
2, 207344, Note_on_c, 0, 89, 59
2, 207348, Note_on_c, 0, 81, 47
2, 207372, Note_on_c, 0, 81, 0
2, 207372, Note_on_c, 0, 89, 0
2, 207372, Note_on_c, 0, 82, 56
2, 207376, Note_on_c, 0, 90, 60
2, 207400, Note_on_c, 0, 90, 0
2, 207404, Note_on_c, 0, 82, 0
2, 207404, Note_on_c, 0, 91, 65
2, 207408, Note_on_c, 0, 83, 37
2, 207432, Note_on_c, 0, 83, 0
2, 207432, Note_on_c, 0, 91, 0
2, 207436, Note_on_c, 0, 92, 65
2, 207436, Note_on_c, 0, 84, 50
2, 207456, Note_on_c, 0, 92, 0
2, 207460, Note_on_c, 0, 93, 71
2, 207464, Note_on_c, 0, 84, 0
2, 207464, Note_on_c, 0, 85, 49
2, 207488, Note_on_c, 0, 85, 0
2, 207488, Note_on_c, 0, 93, 0
2, 207492, Note_on_c, 0, 94, 58
2, 207496, Note_on_c, 0, 86, 46
2, 207516, Note_on_c, 0, 94, 0
2, 207520, Note_on_c, 0, 87, 55
2, 207520, Note_on_c, 0, 95, 71
2, 207524, Note_on_c, 0, 86, 0
2, 207544, Note_on_c, 0, 95, 0
2, 207552, Note_on_c, 0, 87, 0
2, 207552, Note_on_c, 0, 96, 66
2, 207556, Note_on_c, 0, 88, 35
2, 207576, Note_on_c, 0, 96, 0
2, 207580, Note_on_c, 0, 88, 0
2, 207580, Note_on_c, 0, 97, 60
2, 207588, Note_on_c, 0, 89, 40
2, 207608, Note_on_c, 0, 97, 0
2, 207612, Note_on_c, 0, 90, 43
2, 207616, Note_on_c, 0, 98, 65
2, 207620, Note_on_c, 0, 89, 0
2, 207648, Note_on_c, 0, 98, 0
2, 207648, Note_on_c, 0, 90, 0
2, 207652, Note_on_c, 0, 99, 60
2, 207656, Note_on_c, 0, 91, 45
2, 207748, Note_on_c, 0, 99, 0
2, 207760, Note_on_c, 0, 91, 0
2, 218940, Control_c, 0, 64, 24
2, 218948, Control_c, 0, 64, 72
2, 218952, Note_on_c, 0, 35, 37
2, 218956, Control_c, 0, 64, 127
2, 219000, Note_on_c, 0, 35, 0
2, 219108, Note_on_c, 0, 51, 44
2, 219124, Note_on_c, 0, 51, 0
2, 219208, Note_on_c, 0, 54, 53
2, 219288, Note_on_c, 0, 54, 0
2, 219316, Note_on_c, 0, 59, 59
2, 219372, Note_on_c, 0, 59, 0
2, 219400, Note_on_c, 0, 63, 59
2, 219484, Note_on_c, 0, 63, 0
2, 219500, Note_on_c, 0, 68, 56
2, 219588, Note_on_c, 0, 68, 0
2, 219596, Note_on_c, 0, 66, 59
2, 219676, Note_on_c, 0, 66, 0
2, 219692, Note_on_c, 0, 63, 37
2, 219728, Note_on_c, 0, 63, 0
2, 219784, Note_on_c, 0, 59, 54
2, 219836, Note_on_c, 0, 59, 0
2, 219880, Note_on_c, 0, 54, 46
2, 219976, Note_on_c, 0, 54, 0
2, 219992, Note_on_c, 0, 51, 52
2, 220024, Note_on_c, 0, 51, 0
2, 220212, Control_c, 0, 64, 56
2, 220220, Control_c, 0, 64, 0
2, 220224, Note_on_c, 0, 35, 64
2, 220248, Control_c, 0, 64, 40
2, 220256, Control_c, 0, 64, 104
2, 220264, Note_on_c, 0, 35, 0
2, 220264, Control_c, 0, 64, 127
2, 220340, Note_on_c, 0, 51, 50
2, 220356, Note_on_c, 0, 51, 0
2, 220432, Note_on_c, 0, 54, 57
2, 220508, Note_on_c, 0, 54, 0
2, 220540, Note_on_c, 0, 59, 51
2, 220588, Note_on_c, 0, 59, 0
2, 220624, Note_on_c, 0, 63, 55
2, 220708, Note_on_c, 0, 63, 0
2, 220724, Note_on_c, 0, 68, 53
2, 220808, Note_on_c, 0, 68, 0
2, 220820, Note_on_c, 0, 66, 44
2, 220908, Note_on_c, 0, 66, 0
2, 220916, Note_on_c, 0, 63, 45
2, 220948, Note_on_c, 0, 63, 0
2, 221032, Note_on_c, 0, 75, 78
2, 221036, Note_on_c, 0, 59, 43
2, 221112, Note_on_c, 0, 59, 0
2, 221144, Note_on_c, 0, 54, 37
2, 221220, Note_on_c, 0, 51, 43
2, 221224, Note_on_c, 0, 54, 0
2, 221236, Note_on_c, 0, 51, 0
2, 221248, Note_on_c, 0, 75, 0
2, 221276, Note_on_c, 0, 76, 83
2, 221352, Note_on_c, 0, 76, 0
2, 221364, Note_on_c, 0, 80, 87
2, 221404, Control_c, 0, 64, 40
2, 221412, Control_c, 0, 64, 0
2, 221448, Note_on_c, 0, 35, 69
2, 221460, Control_c, 0, 64, 56
2, 221468, Control_c, 0, 64, 127
2, 221484, Note_on_c, 0, 35, 0
2, 221564, Note_on_c, 0, 51, 58
2, 221580, Note_on_c, 0, 51, 0
2, 221664, Note_on_c, 0, 78, 84
2, 221668, Note_on_c, 0, 80, 0
2, 221676, Note_on_c, 0, 54, 48
2, 221752, Note_on_c, 0, 54, 0
2, 221780, Note_on_c, 0, 59, 49
2, 221824, Note_on_c, 0, 59, 0
2, 221856, Note_on_c, 0, 63, 45
2, 221892, Note_on_c, 0, 78, 0
2, 221896, Note_on_c, 0, 80, 90
2, 221952, Note_on_c, 0, 63, 0
2, 221960, Note_on_c, 0, 80, 0
2, 221976, Note_on_c, 0, 83, 92
2, 221980, Note_on_c, 0, 68, 50
2, 222052, Note_on_c, 0, 68, 0
2, 222080, Note_on_c, 0, 66, 43
2, 222164, Note_on_c, 0, 66, 0
2, 222172, Note_on_c, 0, 63, 48
2, 222216, Note_on_c, 0, 63, 0
2, 222264, Note_on_c, 0, 85, 95
2, 222276, Note_on_c, 0, 59, 47
2, 222288, Note_on_c, 0, 83, 0
2, 222336, Note_on_c, 0, 59, 0
2, 222380, Note_on_c, 0, 54, 47
2, 222472, Note_on_c, 0, 54, 0
2, 222472, Note_on_c, 0, 51, 42
2, 222488, Note_on_c, 0, 51, 0
2, 222584, Note_on_c, 0, 87, 90
2, 222604, Note_on_c, 0, 85, 0
2, 222660, Control_c, 0, 64, 72
2, 222668, Control_c, 0, 64, 0
2, 222688, Note_on_c, 0, 35, 52
2, 222696, Control_c, 0, 64, 40
2, 222704, Control_c, 0, 64, 104
2, 222712, Control_c, 0, 64, 127
2, 222720, Note_on_c, 0, 35, 0
2, 222792, Note_on_c, 0, 51, 60
2, 222808, Note_on_c, 0, 51, 0
2, 222892, Note_on_c, 0, 54, 56
2, 222956, Note_on_c, 0, 54, 0
2, 222992, Note_on_c, 0, 59, 54
2, 223044, Note_on_c, 0, 59, 0
2, 223080, Note_on_c, 0, 63, 52
2, 223152, Note_on_c, 0, 63, 0
2, 223172, Note_on_c, 0, 68, 49
2, 223256, Note_on_c, 0, 68, 0
2, 223268, Note_on_c, 0, 66, 45
2, 223352, Note_on_c, 0, 66, 0
2, 223356, Note_on_c, 0, 63, 50
2, 223404, Note_on_c, 0, 63, 0
2, 223452, Note_on_c, 0, 85, 88
2, 223464, Note_on_c, 0, 87, 0
2, 223468, Note_on_c, 0, 59, 46
2, 223528, Note_on_c, 0, 59, 0
2, 223568, Note_on_c, 0, 54, 44
2, 223660, Note_on_c, 0, 54, 0
2, 223660, Note_on_c, 0, 51, 46
2, 223680, Note_on_c, 0, 51, 0
2, 223736, Note_on_c, 0, 85, 0
2, 223756, Note_on_c, 0, 83, 92
2, 223828, Control_c, 0, 64, 88
2, 223836, Control_c, 0, 64, 24
2, 223844, Control_c, 0, 64, 0
2, 223848, Note_on_c, 0, 35, 58
2, 223860, Control_c, 0, 64, 40
2, 223868, Control_c, 0, 64, 104
2, 223876, Control_c, 0, 64, 127
2, 223880, Note_on_c, 0, 35, 0
2, 223948, Note_on_c, 0, 51, 56
2, 223972, Note_on_c, 0, 51, 0
2, 224036, Note_on_c, 0, 83, 0
2, 224052, Note_on_c, 0, 75, 87
2, 224052, Note_on_c, 0, 54, 52
2, 224120, Note_on_c, 0, 59, 57
2, 224144, Note_on_c, 0, 54, 0
2, 224176, Note_on_c, 0, 59, 0
2, 224200, Note_on_c, 0, 63, 50
2, 224204, Note_on_c, 0, 63, 0
2, 224276, Note_on_c, 0, 82, 86
2, 224280, Note_on_c, 0, 68, 53
2, 224284, Note_on_c, 0, 75, 0
2, 224360, Note_on_c, 0, 68, 0
2, 224372, Note_on_c, 0, 66, 47
2, 224448, Note_on_c, 0, 66, 0
2, 224460, Note_on_c, 0, 63, 46
2, 224508, Note_on_c, 0, 63, 0
2, 224560, Note_on_c, 0, 80, 87
2, 224568, Note_on_c, 0, 59, 49
2, 224584, Note_on_c, 0, 82, 0
2, 224628, Note_on_c, 0, 59, 0
2, 224640, Note_on_c, 0, 80, 0
2, 224676, Note_on_c, 0, 54, 38
2, 224748, Note_on_c, 0, 54, 0
2, 224752, Note_on_c, 0, 51, 38
2, 224772, Note_on_c, 0, 51, 0
2, 224804, Note_on_c, 0, 78, 75
2, 224852, Note_on_c, 0, 78, 0
2, 224876, Note_on_c, 0, 64, 63
2, 224876, Control_c, 0, 64, 40
2, 224884, Control_c, 0, 64, 0
2, 224920, Note_on_c, 0, 70, 71
2, 224924, Control_c, 0, 64, 127
2, 224948, Note_on_c, 0, 64, 0
2, 224976, Note_on_c, 0, 78, 91
2, 224980, Note_on_c, 0, 70, 0
2, 225008, Note_on_c, 0, 78, 0
2, 225076, Note_on_c, 0, 35, 39
2, 225108, Note_on_c, 0, 35, 0
2, 225192, Note_on_c, 0, 52, 52
2, 225216, Note_on_c, 0, 52, 0
2, 225280, Note_on_c, 0, 54, 49
2, 225356, Note_on_c, 0, 54, 0
2, 225368, Note_on_c, 0, 58, 50
2, 225464, Note_on_c, 0, 64, 63
2, 225476, Note_on_c, 0, 54, 21
2, 225488, Note_on_c, 0, 64, 0
2, 225500, Note_on_c, 0, 54, 0
2, 225504, Note_on_c, 0, 58, 0
2, 225572, Note_on_c, 0, 73, 67
2, 225572, Note_on_c, 0, 68, 55
2, 225624, Note_on_c, 0, 68, 0
2, 225668, Note_on_c, 0, 66, 52
2, 225724, Note_on_c, 0, 66, 0
2, 225756, Note_on_c, 0, 64, 52
2, 225776, Note_on_c, 0, 64, 0
2, 225796, Note_on_c, 0, 73, 0
2, 225856, Note_on_c, 0, 58, 36
2, 225940, Note_on_c, 0, 58, 0
2, 225948, Note_on_c, 0, 54, 41
2, 226032, Note_on_c, 0, 54, 0
2, 226048, Note_on_c, 0, 52, 48
2, 226064, Note_on_c, 0, 52, 0
2, 226276, Control_c, 0, 64, 88
2, 226284, Control_c, 0, 64, 24
2, 226292, Note_on_c, 0, 47, 54
2, 226292, Control_c, 0, 64, 0
2, 226316, Control_c, 0, 64, 40
2, 226324, Control_c, 0, 64, 104
2, 226332, Control_c, 0, 64, 127
2, 226364, Note_on_c, 0, 47, 0
2, 226368, Note_on_c, 0, 64, 58
2, 226376, Note_on_c, 0, 52, 58
2, 226412, Note_on_c, 0, 70, 56
2, 226416, Note_on_c, 0, 64, 0
2, 226464, Note_on_c, 0, 78, 92
2, 226472, Note_on_c, 0, 52, 0
2, 226484, Note_on_c, 0, 54, 55
2, 226520, Note_on_c, 0, 70, 0
2, 226536, Note_on_c, 0, 78, 0
2, 226572, Note_on_c, 0, 54, 0
2, 226580, Note_on_c, 0, 58, 52
2, 226604, Note_on_c, 0, 58, 0
2, 226672, Note_on_c, 0, 64, 63
2, 226688, Note_on_c, 0, 64, 0
2, 226728, Note_on_c, 0, 73, 81
2, 226768, Note_on_c, 0, 73, 0
2, 226820, Note_on_c, 0, 73, 83
2, 226828, Note_on_c, 0, 68, 59
2, 226880, Note_on_c, 0, 68, 0
2, 226912, Note_on_c, 0, 66, 66
2, 226984, Note_on_c, 0, 66, 0
2, 227016, Note_on_c, 0, 73, 0
2, 227016, Note_on_c, 0, 64, 50
2, 227148, Note_on_c, 0, 74, 70
2, 227160, Note_on_c, 0, 58, 33
2, 227208, Control_c, 0, 64, 104
2, 227216, Control_c, 0, 64, 56
2, 227224, Control_c, 0, 64, 40
2, 227232, Control_c, 0, 64, 72
2, 227236, Control_c, 0, 64, 127
2, 227268, Note_on_c, 0, 54, 35
2, 227292, Note_on_c, 0, 58, 0
2, 227360, Note_on_c, 0, 54, 0
2, 227404, Note_on_c, 0, 52, 32
2, 227420, Note_on_c, 0, 64, 0
2, 227432, Note_on_c, 0, 52, 0
2, 227452, Note_on_c, 0, 74, 0
2, 227688, Control_c, 0, 64, 104
2, 227696, Control_c, 0, 64, 40
2, 227700, Note_on_c, 0, 35, 61
2, 227704, Control_c, 0, 64, 0
2, 227740, Control_c, 0, 64, 127
2, 227752, Note_on_c, 0, 35, 0
2, 227828, Note_on_c, 0, 51, 60
2, 227852, Note_on_c, 0, 51, 0
2, 227924, Note_on_c, 0, 54, 56
2, 228004, Note_on_c, 0, 54, 0
2, 228032, Note_on_c, 0, 59, 48
2, 228064, Note_on_c, 0, 59, 0
2, 228120, Note_on_c, 0, 63, 45
2, 228192, Note_on_c, 0, 63, 0
2, 228204, Note_on_c, 0, 68, 50
2, 228292, Note_on_c, 0, 68, 0
2, 228300, Note_on_c, 0, 66, 45
2, 228372, Note_on_c, 0, 66, 0
2, 228380, Note_on_c, 0, 63, 42
2, 228420, Note_on_c, 0, 63, 0
2, 228488, Note_on_c, 0, 75, 75
2, 228492, Note_on_c, 0, 59, 44
2, 228552, Note_on_c, 0, 59, 0
2, 228580, Note_on_c, 0, 54, 49
2, 228608, Note_on_c, 0, 75, 0
2, 228664, Note_on_c, 0, 51, 52
2, 228668, Note_on_c, 0, 54, 0
2, 228684, Note_on_c, 0, 51, 0
2, 228728, Note_on_c, 0, 76, 83
2, 228800, Note_on_c, 0, 76, 0
2, 228824, Note_on_c, 0, 80, 84
2, 228888, Control_c, 0, 64, 40
2, 228896, Control_c, 0, 64, 0
2, 228912, Note_on_c, 0, 35, 56
2, 228928, Control_c, 0, 64, 40
2, 228932, Control_c, 0, 64, 127
2, 228940, Note_on_c, 0, 35, 0
2, 229004, Note_on_c, 0, 51, 71
2, 229024, Note_on_c, 0, 51, 0
2, 229092, Note_on_c, 0, 78, 85
2, 229100, Note_on_c, 0, 80, 0
2, 229100, Note_on_c, 0, 54, 55
2, 229160, Note_on_c, 0, 54, 0
2, 229204, Note_on_c, 0, 59, 51
2, 229232, Note_on_c, 0, 59, 0
2, 229268, Note_on_c, 0, 63, 57
2, 229292, Note_on_c, 0, 78, 0
2, 229304, Note_on_c, 0, 80, 94
2, 229356, Note_on_c, 0, 63, 0
2, 229364, Note_on_c, 0, 80, 0
2, 229380, Note_on_c, 0, 68, 50
2, 229384, Note_on_c, 0, 83, 93
2, 229468, Note_on_c, 0, 68, 0
2, 229476, Note_on_c, 0, 66, 50
2, 229552, Note_on_c, 0, 66, 0
2, 229552, Note_on_c, 0, 63, 50
2, 229592, Note_on_c, 0, 63, 0
2, 229640, Note_on_c, 0, 83, 0
2, 229652, Note_on_c, 0, 85, 93
2, 229664, Note_on_c, 0, 59, 64
2, 229716, Note_on_c, 0, 59, 0
2, 229760, Note_on_c, 0, 54, 50
2, 229832, Note_on_c, 0, 51, 50
2, 229836, Note_on_c, 0, 54, 0
2, 229848, Note_on_c, 0, 85, 0
2, 229852, Note_on_c, 0, 51, 0
2, 229900, Note_on_c, 0, 71, 70
2, 229904, Control_c, 0, 64, 88
2, 229912, Control_c, 0, 64, 0
2, 229940, Control_c, 0, 64, 88
2, 229944, Note_on_c, 0, 71, 0
2, 229944, Note_on_c, 0, 80, 79
2, 229948, Control_c, 0, 64, 127
2, 229996, Note_on_c, 0, 80, 0
2, 230024, Note_on_c, 0, 87, 97
2, 230116, Note_on_c, 0, 32, 69
2, 230152, Note_on_c, 0, 87, 0
2, 230176, Note_on_c, 0, 32, 0
2, 230240, Note_on_c, 0, 51, 56
2, 230264, Note_on_c, 0, 51, 0
2, 230328, Note_on_c, 0, 56, 68
2, 230376, Note_on_c, 0, 56, 0
2, 230420, Note_on_c, 0, 59, 66
2, 230468, Note_on_c, 0, 59, 0
2, 230504, Note_on_c, 0, 63, 73
2, 230572, Note_on_c, 0, 63, 0
2, 230600, Note_on_c, 0, 70, 71
2, 230676, Note_on_c, 0, 70, 0
2, 230684, Note_on_c, 0, 68, 63
2, 230764, Note_on_c, 0, 68, 0
2, 230772, Note_on_c, 0, 63, 66
2, 230856, Note_on_c, 0, 63, 0
2, 230884, Note_on_c, 0, 85, 95
2, 230904, Note_on_c, 0, 59, 52
2, 230968, Note_on_c, 0, 59, 0
2, 230980, Note_on_c, 0, 56, 55
2, 231064, Note_on_c, 0, 85, 0
2, 231068, Note_on_c, 0, 51, 68
2, 231076, Note_on_c, 0, 56, 0
2, 231104, Note_on_c, 0, 51, 0
2, 231148, Note_on_c, 0, 83, 97
2, 231268, Note_on_c, 0, 44, 54
2, 231280, Control_c, 0, 64, 24
2, 231288, Control_c, 0, 64, 0
2, 231320, Control_c, 0, 64, 56
2, 231328, Control_c, 0, 64, 127
2, 231332, Note_on_c, 0, 44, 0
2, 231344, Note_on_c, 0, 51, 60
2, 231404, Note_on_c, 0, 51, 0
2, 231428, Note_on_c, 0, 75, 88
2, 231432, Note_on_c, 0, 83, 0
2, 231440, Note_on_c, 0, 56, 52
2, 231512, Note_on_c, 0, 56, 0
2, 231528, Note_on_c, 0, 59, 60
2, 231580, Note_on_c, 0, 59, 0
2, 231620, Note_on_c, 0, 63, 52
2, 231656, Note_on_c, 0, 63, 0
2, 231712, Note_on_c, 0, 70, 60
2, 231736, Note_on_c, 0, 75, 0
2, 231740, Note_on_c, 0, 82, 90
2, 231812, Note_on_c, 0, 70, 0
2, 231828, Note_on_c, 0, 68, 57
2, 231912, Note_on_c, 0, 63, 57
2, 231916, Note_on_c, 0, 68, 0
2, 231944, Note_on_c, 0, 63, 0
2, 231988, Note_on_c, 0, 82, 0
2, 231996, Note_on_c, 0, 80, 90
2, 232008, Note_on_c, 0, 59, 64
2, 232060, Note_on_c, 0, 59, 0
2, 232116, Note_on_c, 0, 56, 38
2, 232188, Note_on_c, 0, 51, 50
2, 232192, Note_on_c, 0, 56, 0
2, 232200, Note_on_c, 0, 51, 0
2, 232220, Note_on_c, 0, 80, 0
2, 232248, Note_on_c, 0, 78, 91
2, 232288, Note_on_c, 0, 78, 0
2, 232340, Note_on_c, 0, 78, 96
2, 232388, Control_c, 0, 64, 104
2, 232396, Control_c, 0, 64, 24
2, 232404, Control_c, 0, 64, 0
2, 232444, Control_c, 0, 64, 88
2, 232452, Control_c, 0, 64, 127
2, 232456, Note_on_c, 0, 38, 66
2, 232472, Note_on_c, 0, 38, 0
2, 232552, Note_on_c, 0, 56, 64
2, 232652, Note_on_c, 0, 59, 65
2, 232696, Note_on_c, 0, 59, 0
2, 232696, Note_on_c, 0, 56, 0
2, 232740, Note_on_c, 0, 66, 63
2, 232748, Note_on_c, 0, 78, 0
2, 232792, Note_on_c, 0, 66, 0
2, 232832, Note_on_c, 0, 68, 62
2, 232912, Note_on_c, 0, 68, 0
2, 232932, Control_c, 0, 64, 104
2, 232940, Note_on_c, 0, 77, 88
2, 232940, Control_c, 0, 64, 0
2, 232952, Note_on_c, 0, 37, 54
2, 232976, Control_c, 0, 64, 72
2, 232984, Control_c, 0, 64, 127
2, 232988, Note_on_c, 0, 37, 0
2, 233036, Note_on_c, 0, 77, 0
2, 233052, Note_on_c, 0, 56, 53
2, 233052, Note_on_c, 0, 65, 54
2, 233136, Note_on_c, 0, 65, 0
2, 233144, Note_on_c, 0, 68, 49
2, 233148, Note_on_c, 0, 59, 50
2, 233156, Note_on_c, 0, 56, 0
2, 233164, Note_on_c, 0, 59, 0
2, 233256, Note_on_c, 0, 68, 0
2, 233260, Note_on_c, 0, 74, 87
2, 233288, Control_c, 0, 64, 88
2, 233296, Note_on_c, 0, 41, 59
2, 233296, Control_c, 0, 64, 0
2, 233316, Note_on_c, 0, 41, 0
2, 233328, Control_c, 0, 64, 104
2, 233336, Control_c, 0, 64, 127
2, 233384, Note_on_c, 0, 61, 44
2, 233396, Note_on_c, 0, 56, 42
2, 233416, Note_on_c, 0, 74, 0
2, 233420, Note_on_c, 0, 61, 0
2, 233464, Note_on_c, 0, 68, 36
2, 233476, Note_on_c, 0, 59, 47
2, 233500, Note_on_c, 0, 59, 0
2, 233508, Note_on_c, 0, 56, 0
2, 233544, Note_on_c, 0, 73, 80
2, 233548, Note_on_c, 0, 68, 0
2, 233576, Note_on_c, 0, 73, 0
2, 233668, Note_on_c, 0, 73, 73
2, 233760, Control_c, 0, 64, 104
2, 233768, Control_c, 0, 64, 0
2, 233780, Note_on_c, 0, 42, 57
2, 233800, Control_c, 0, 64, 56
2, 233804, Control_c, 0, 64, 127
2, 233892, Note_on_c, 0, 42, 0
2, 233892, Note_on_c, 0, 87, 98
2, 233912, Note_on_c, 0, 49, 55
2, 233964, Note_on_c, 0, 49, 0
2, 233992, Note_on_c, 0, 54, 60
2, 234052, Note_on_c, 0, 54, 0
2, 234072, Note_on_c, 0, 58, 56
2, 234112, Note_on_c, 0, 87, 0
2, 234124, Note_on_c, 0, 58, 0
2, 234148, Note_on_c, 0, 85, 95
2, 234168, Note_on_c, 0, 61, 69
2, 234216, Note_on_c, 0, 85, 0
2, 234264, Note_on_c, 0, 61, 0
2, 234292, Note_on_c, 0, 82, 92
2, 234296, Note_on_c, 0, 70, 65
2, 234312, Note_on_c, 0, 73, 0
2, 234368, Note_on_c, 0, 70, 0
2, 234384, Note_on_c, 0, 66, 50
2, 234440, Note_on_c, 0, 82, 0
2, 234444, Note_on_c, 0, 73, 93
2, 234488, Note_on_c, 0, 66, 0
2, 234488, Note_on_c, 0, 61, 49
2, 234540, Note_on_c, 0, 61, 0
2, 234572, Note_on_c, 0, 73, 0
2, 234576, Note_on_c, 0, 80, 97
2, 234596, Note_on_c, 0, 58, 52
2, 234644, Note_on_c, 0, 58, 0
2, 234680, Note_on_c, 0, 54, 54
2, 234740, Note_on_c, 0, 54, 0
2, 234744, Note_on_c, 0, 49, 44
2, 234752, Note_on_c, 0, 80, 0
2, 234760, Note_on_c, 0, 49, 0
2, 234792, Note_on_c, 0, 78, 95
2, 234836, Note_on_c, 0, 78, 0
2, 234880, Note_on_c, 0, 78, 99
2, 234924, Control_c, 0, 64, 88
2, 234932, Control_c, 0, 64, 0
2, 234968, Note_on_c, 0, 38, 71
2, 234968, Control_c, 0, 64, 72
2, 234976, Control_c, 0, 64, 127
2, 235000, Note_on_c, 0, 38, 0
2, 235080, Note_on_c, 0, 56, 63
2, 235180, Note_on_c, 0, 59, 70
2, 235220, Note_on_c, 0, 59, 0
2, 235228, Note_on_c, 0, 56, 0
2, 235252, Note_on_c, 0, 78, 0
2, 235264, Note_on_c, 0, 66, 64
2, 235316, Note_on_c, 0, 66, 0
2, 235352, Note_on_c, 0, 68, 74
2, 235432, Note_on_c, 0, 68, 0
2, 235448, Control_c, 0, 64, 104
2, 235456, Note_on_c, 0, 77, 94
2, 235456, Control_c, 0, 64, 0
2, 235460, Note_on_c, 0, 37, 58
2, 235488, Control_c, 0, 64, 40
2, 235496, Control_c, 0, 64, 127
2, 235500, Note_on_c, 0, 37, 0
2, 235520, Note_on_c, 0, 77, 0
2, 235556, Note_on_c, 0, 65, 62
2, 235568, Note_on_c, 0, 56, 49
2, 235616, Note_on_c, 0, 65, 0
2, 235648, Note_on_c, 0, 56, 0
2, 235652, Note_on_c, 0, 68, 58
2, 235656, Note_on_c, 0, 59, 50
2, 235676, Note_on_c, 0, 59, 0
2, 235752, Note_on_c, 0, 68, 0
2, 235768, Note_on_c, 0, 74, 78
2, 235792, Note_on_c, 0, 41, 52
2, 235796, Control_c, 0, 64, 0
2, 235828, Control_c, 0, 64, 40
2, 235832, Note_on_c, 0, 41, 0
2, 235836, Control_c, 0, 64, 127
2, 235868, Note_on_c, 0, 61, 53
2, 235904, Note_on_c, 0, 56, 38
2, 235912, Note_on_c, 0, 61, 0
2, 235912, Note_on_c, 0, 74, 0
2, 235948, Note_on_c, 0, 68, 35
2, 235980, Note_on_c, 0, 59, 47
2, 236000, Note_on_c, 0, 59, 0
2, 236008, Note_on_c, 0, 56, 0
2, 236032, Note_on_c, 0, 73, 73
2, 236040, Note_on_c, 0, 68, 0
2, 236072, Note_on_c, 0, 73, 0
2, 236164, Note_on_c, 0, 73, 68
2, 236248, Control_c, 0, 64, 104
2, 236256, Control_c, 0, 64, 0
2, 236272, Note_on_c, 0, 40, 54
2, 236300, Control_c, 0, 64, 127
2, 236372, Note_on_c, 0, 49, 33
2, 236412, Note_on_c, 0, 87, 92
2, 236432, Note_on_c, 0, 40, 0
2, 236488, Note_on_c, 0, 49, 0
2, 236488, Note_on_c, 0, 52, 54
2, 236508, Note_on_c, 0, 52, 0
2, 236596, Note_on_c, 0, 57, 46
2, 236604, Note_on_c, 0, 87, 0
2, 236660, Note_on_c, 0, 57, 0
2, 236664, Note_on_c, 0, 85, 94
2, 236676, Note_on_c, 0, 61, 54
2, 236720, Note_on_c, 0, 85, 0
2, 236788, Note_on_c, 0, 61, 0
2, 236808, Note_on_c, 0, 81, 91
2, 236808, Note_on_c, 0, 69, 47
2, 236828, Note_on_c, 0, 73, 0
2, 236884, Note_on_c, 0, 69, 0
2, 236900, Note_on_c, 0, 64, 57
2, 236940, Note_on_c, 0, 81, 0
2, 236944, Note_on_c, 0, 73, 91
2, 237000, Note_on_c, 0, 61, 56
2, 237004, Note_on_c, 0, 64, 0
2, 237056, Note_on_c, 0, 61, 0
2, 237076, Note_on_c, 0, 80, 95
2, 237124, Note_on_c, 0, 57, 48
2, 237172, Note_on_c, 0, 57, 0
2, 237176, Note_on_c, 0, 80, 0
2, 237176, Note_on_c, 0, 73, 0
2, 237184, Note_on_c, 0, 78, 92
2, 237208, Note_on_c, 0, 52, 54
2, 237260, Note_on_c, 0, 78, 0
2, 237264, Note_on_c, 0, 49, 56
2, 237268, Note_on_c, 0, 52, 0
2, 237300, Note_on_c, 0, 49, 0
2, 237336, Note_on_c, 0, 76, 91
2, 237404, Note_on_c, 0, 76, 0
2, 237412, Note_on_c, 0, 73, 93
2, 237456, Control_c, 0, 64, 56
2, 237464, Control_c, 0, 64, 0
2, 237504, Note_on_c, 0, 73, 0
2, 237504, Control_c, 0, 64, 127
2, 237512, Note_on_c, 0, 40, 70
2, 237592, Note_on_c, 0, 49, 58
2, 237600, Note_on_c, 0, 40, 0
2, 237624, Note_on_c, 0, 90, 109
2, 237712, Note_on_c, 0, 52, 66
2, 237716, Note_on_c, 0, 49, 0
2, 237728, Note_on_c, 0, 52, 0
2, 237792, Note_on_c, 0, 90, 0
2, 237792, Note_on_c, 0, 56, 66
2, 237848, Note_on_c, 0, 56, 0
2, 237868, Note_on_c, 0, 88, 106
2, 237876, Note_on_c, 0, 61, 64
2, 237940, Note_on_c, 0, 61, 0
2, 237960, Note_on_c, 0, 68, 70
2, 237980, Note_on_c, 0, 88, 0
2, 238008, Note_on_c, 0, 85, 95
2, 238028, Note_on_c, 0, 68, 0
2, 238064, Note_on_c, 0, 64, 69
2, 238080, Note_on_c, 0, 85, 0
2, 238124, Note_on_c, 0, 76, 92
2, 238148, Note_on_c, 0, 61, 60
2, 238152, Note_on_c, 0, 64, 0
2, 238188, Note_on_c, 0, 61, 0
2, 238240, Note_on_c, 0, 76, 0
2, 238252, Note_on_c, 0, 83, 104
2, 238264, Note_on_c, 0, 56, 56
2, 238308, Note_on_c, 0, 56, 0
2, 238320, Note_on_c, 0, 83, 0
2, 238340, Note_on_c, 0, 52, 68
2, 238352, Note_on_c, 0, 81, 107
2, 238404, Note_on_c, 0, 52, 0
2, 238424, Note_on_c, 0, 49, 78
2, 238452, Note_on_c, 0, 81, 0
2, 238456, Note_on_c, 0, 49, 0
2, 238488, Note_on_c, 0, 80, 96
2, 238536, Note_on_c, 0, 80, 0
2, 238560, Note_on_c, 0, 79, 110
2, 238604, Control_c, 0, 64, 56
2, 238612, Control_c, 0, 64, 0
2, 238640, Note_on_c, 0, 40, 71
2, 238648, Control_c, 0, 64, 127
2, 238748, Note_on_c, 0, 40, 0
2, 238752, Note_on_c, 0, 93, 119
2, 238764, Note_on_c, 0, 52, 68
2, 238784, Note_on_c, 0, 52, 0
2, 238868, Note_on_c, 0, 55, 70
2, 238880, Note_on_c, 0, 93, 0
2, 238908, Note_on_c, 0, 55, 0
2, 238952, Note_on_c, 0, 64, 78
2, 238960, Note_on_c, 0, 60, 66
2, 239000, Note_on_c, 0, 91, 106
2, 239068, Note_on_c, 0, 67, 83
2, 239072, Note_on_c, 0, 91, 0
2, 239088, Note_on_c, 0, 64, 0
2, 239088, Note_on_c, 0, 67, 0
2, 239100, Note_on_c, 0, 60, 0
2, 239160, Note_on_c, 0, 79, 0
2, 239164, Note_on_c, 0, 88, 104
2, 239220, Control_c, 0, 64, 104
2, 239228, Control_c, 0, 64, 0
2, 239240, Note_on_c, 0, 38, 83
2, 239260, Control_c, 0, 64, 104
2, 239268, Control_c, 0, 64, 127
2, 239292, Note_on_c, 0, 79, 106
2, 239300, Note_on_c, 0, 38, 0
2, 239312, Note_on_c, 0, 88, 0
2, 239348, Note_on_c, 0, 52, 42
2, 239368, Note_on_c, 0, 52, 0
2, 239416, Note_on_c, 0, 86, 104
2, 239452, Note_on_c, 0, 55, 61
2, 239488, Note_on_c, 0, 55, 0
2, 239500, Note_on_c, 0, 86, 0
2, 239524, Note_on_c, 0, 64, 72
2, 239528, Note_on_c, 0, 59, 64
2, 239532, Note_on_c, 0, 84, 106
2, 239608, Note_on_c, 0, 67, 78
2, 239616, Note_on_c, 0, 84, 0
2, 239632, Note_on_c, 0, 64, 0
2, 239636, Note_on_c, 0, 67, 0
2, 239644, Note_on_c, 0, 79, 0
2, 239656, Note_on_c, 0, 59, 0
2, 239664, Note_on_c, 0, 83, 110
2, 239696, Note_on_c, 0, 83, 0
2, 239716, Note_on_c, 0, 83, 104
2, 239776, Control_c, 0, 64, 24
2, 239784, Control_c, 0, 64, 0
2, 239800, Note_on_c, 0, 37, 79
2, 239808, Control_c, 0, 64, 56
2, 239816, Control_c, 0, 64, 127
2, 239844, Note_on_c, 0, 83, 0
2, 239852, Note_on_c, 0, 37, 0
2, 239864, Note_on_c, 0, 82, 99
2, 239892, Note_on_c, 0, 52, 66
2, 239912, Note_on_c, 0, 52, 0
2, 239920, Note_on_c, 0, 82, 0
2, 240008, Note_on_c, 0, 91, 110
2, 240012, Note_on_c, 0, 79, 100
2, 240016, Note_on_c, 0, 55, 72
2, 240068, Note_on_c, 0, 55, 0
2, 240108, Note_on_c, 0, 64, 72
2, 240116, Note_on_c, 0, 58, 54
2, 240180, Note_on_c, 0, 64, 0
2, 240192, Note_on_c, 0, 64, 37
2, 240204, Note_on_c, 0, 67, 86
2, 240228, Note_on_c, 0, 64, 0
2, 240232, Note_on_c, 0, 67, 0
2, 240240, Note_on_c, 0, 79, 0
2, 240248, Note_on_c, 0, 91, 0
2, 240248, Note_on_c, 0, 58, 0
2, 240296, Note_on_c, 0, 91, 110
2, 240300, Note_on_c, 0, 79, 102
2, 240372, Control_c, 0, 64, 88
2, 240380, Note_on_c, 0, 35, 78
2, 240380, Control_c, 0, 64, 0
2, 240412, Control_c, 0, 64, 127
2, 240416, Note_on_c, 0, 35, 0
2, 240484, Note_on_c, 0, 52, 66
2, 240500, Note_on_c, 0, 52, 0
2, 240580, Note_on_c, 0, 55, 77
2, 240632, Note_on_c, 0, 55, 0
2, 240668, Note_on_c, 0, 64, 81
2, 240676, Note_on_c, 0, 59, 73
2, 240732, Note_on_c, 0, 79, 0
2, 240756, Note_on_c, 0, 67, 87
2, 240768, Note_on_c, 0, 91, 0
2, 240780, Note_on_c, 0, 64, 0
2, 240784, Note_on_c, 0, 67, 0
2, 240800, Note_on_c, 0, 59, 0
2, 240812, Note_on_c, 0, 91, 115
2, 240816, Note_on_c, 0, 79, 106
2, 240840, Note_on_c, 0, 79, 0
2, 240844, Note_on_c, 0, 91, 0
2, 240888, Note_on_c, 0, 91, 110
2, 240892, Note_on_c, 0, 79, 106
2, 240940, Control_c, 0, 64, 72
2, 240948, Control_c, 0, 64, 0
2, 240968, Note_on_c, 0, 34, 64
2, 240976, Control_c, 0, 64, 88
2, 240984, Control_c, 0, 64, 127
2, 241008, Note_on_c, 0, 34, 0
2, 241036, Note_on_c, 0, 79, 0
2, 241068, Note_on_c, 0, 52, 76
2, 241088, Note_on_c, 0, 52, 0
2, 241092, Note_on_c, 0, 91, 0
2, 241164, Note_on_c, 0, 90, 105
2, 241164, Note_on_c, 0, 78, 99
2, 241176, Note_on_c, 0, 54, 70
2, 241212, Note_on_c, 0, 54, 0
2, 241264, Note_on_c, 0, 78, 0
2, 241268, Note_on_c, 0, 64, 73
2, 241272, Note_on_c, 0, 61, 58
2, 241312, Note_on_c, 0, 64, 0
2, 241324, Note_on_c, 0, 90, 0
2, 241332, Note_on_c, 0, 66, 81
2, 241356, Note_on_c, 0, 66, 0
2, 241372, Note_on_c, 0, 61, 0
2, 241372, Note_on_c, 0, 80, 87
2, 241372, Note_on_c, 0, 92, 112
2, 241400, Note_on_c, 0, 80, 0
2, 241408, Note_on_c, 0, 92, 0
2, 241484, Note_on_c, 0, 95, 113
2, 241484, Note_on_c, 0, 83, 99
2, 241528, Control_c, 0, 64, 56
2, 241536, Control_c, 0, 64, 0
2, 241560, Note_on_c, 0, 32, 75
2, 241568, Control_c, 0, 64, 127
2, 241588, Note_on_c, 0, 32, 0
2, 241632, Note_on_c, 0, 83, 0
2, 241648, Note_on_c, 0, 95, 0
2, 241664, Note_on_c, 0, 52, 63
2, 241688, Note_on_c, 0, 52, 0
2, 241776, Note_on_c, 0, 97, 110
2, 241776, Note_on_c, 0, 85, 97
2, 241780, Note_on_c, 0, 54, 70
2, 241840, Note_on_c, 0, 54, 0
2, 241888, Note_on_c, 0, 64, 75
2, 241896, Note_on_c, 0, 59, 63
2, 241952, Note_on_c, 0, 59, 0
2, 241952, Note_on_c, 0, 85, 0
2, 241968, Note_on_c, 0, 64, 0
2, 241984, Note_on_c, 0, 64, 28
2, 241992, Note_on_c, 0, 66, 77
2, 242004, Note_on_c, 0, 59, 34
2, 242020, Note_on_c, 0, 64, 0
2, 242024, Note_on_c, 0, 66, 0
2, 242032, Note_on_c, 0, 97, 0
2, 242044, Note_on_c, 0, 59, 0
2, 242128, Note_on_c, 0, 99, 117
2, 242132, Note_on_c, 0, 87, 111
2, 242208, Control_c, 0, 64, 56
2, 242216, Control_c, 0, 64, 0
2, 242256, Control_c, 0, 64, 127
2, 242260, Note_on_c, 0, 30, 85
2, 242304, Note_on_c, 0, 30, 0
2, 242416, Note_on_c, 0, 52, 74
2, 242452, Note_on_c, 0, 52, 0
2, 242520, Note_on_c, 0, 54, 70
2, 242588, Note_on_c, 0, 54, 0
2, 242612, Note_on_c, 0, 58, 66
2, 242696, Note_on_c, 0, 58, 0
2, 242712, Note_on_c, 0, 64, 76
2, 242784, Note_on_c, 0, 64, 0
2, 242812, Note_on_c, 0, 66, 61
2, 242904, Note_on_c, 0, 66, 0
2, 242908, Note_on_c, 0, 70, 66
2, 242984, Note_on_c, 0, 70, 0
2, 243012, Note_on_c, 0, 76, 58
2, 243080, Note_on_c, 0, 76, 0
2, 243112, Note_on_c, 0, 78, 81
2, 243184, Note_on_c, 0, 87, 0
2, 243192, Note_on_c, 0, 99, 0
2, 243216, Note_on_c, 0, 78, 0
2, 243220, Note_on_c, 0, 82, 59
2, 243260, Note_on_c, 0, 82, 0
2, 243324, Note_on_c, 0, 88, 92
2, 243396, Note_on_c, 0, 88, 0
2, 243432, Note_on_c, 0, 99, 94
2, 243528, Note_on_c, 0, 97, 81
2, 243532, Note_on_c, 0, 99, 0
2, 243624, Note_on_c, 0, 97, 0
2, 243624, Note_on_c, 0, 94, 70
2, 243728, Note_on_c, 0, 92, 78
2, 243732, Note_on_c, 0, 94, 0
2, 243828, Note_on_c, 0, 92, 0
2, 243828, Note_on_c, 0, 90, 70
2, 243920, Note_on_c, 0, 90, 0
2, 243924, Note_on_c, 0, 88, 70
2, 244024, Note_on_c, 0, 88, 0
2, 244024, Note_on_c, 0, 87, 81
2, 244032, Control_c, 0, 64, 104
2, 244036, Control_c, 0, 64, 56
2, 244040, Control_c, 0, 64, 24
2, 244040, Control_c, 0, 64, 0
2, 244048, Control_c, 0, 64, 40
2, 244048, Control_c, 0, 64, 88
2, 244052, Control_c, 0, 64, 127
2, 244124, Note_on_c, 0, 92, 75
2, 244128, Note_on_c, 0, 87, 0
2, 244224, Note_on_c, 0, 85, 57
2, 244228, Note_on_c, 0, 92, 0
2, 244316, Note_on_c, 0, 85, 0
2, 244316, Note_on_c, 0, 88, 73
2, 244348, Control_c, 0, 64, 72
2, 244352, Control_c, 0, 64, 56
2, 244352, Control_c, 0, 64, 72
2, 244356, Control_c, 0, 64, 104
2, 244360, Control_c, 0, 64, 127
2, 244400, Note_on_c, 0, 88, 0
2, 244408, Note_on_c, 0, 83, 64
2, 244496, Note_on_c, 0, 83, 0
2, 244496, Note_on_c, 0, 82, 70
2, 244596, Note_on_c, 0, 82, 0
2, 244596, Note_on_c, 0, 80, 65
2, 244620, Control_c, 0, 64, 88
2, 244624, Control_c, 0, 64, 40
2, 244628, Control_c, 0, 64, 0
2, 244636, Control_c, 0, 64, 40
2, 244640, Control_c, 0, 64, 88
2, 244644, Control_c, 0, 64, 127
2, 244688, Note_on_c, 0, 85, 70
2, 244692, Note_on_c, 0, 80, 0
2, 244780, Note_on_c, 0, 78, 61
2, 244784, Note_on_c, 0, 85, 0
2, 244884, Note_on_c, 0, 78, 0
2, 244884, Note_on_c, 0, 82, 63
2, 244976, Note_on_c, 0, 82, 0
2, 244976, Note_on_c, 0, 76, 66
2, 245072, Note_on_c, 0, 75, 70
2, 245076, Note_on_c, 0, 76, 0
2, 245092, Control_c, 0, 64, 88
2, 245096, Control_c, 0, 64, 56
2, 245108, Control_c, 0, 64, 127
2, 245176, Note_on_c, 0, 75, 0
2, 245176, Note_on_c, 0, 80, 68
2, 245272, Note_on_c, 0, 73, 61
2, 245284, Control_c, 0, 64, 104
2, 245288, Control_c, 0, 64, 56
2, 245292, Note_on_c, 0, 80, 0
2, 245296, Control_c, 0, 64, 104
2, 245296, Control_c, 0, 64, 127
2, 245364, Note_on_c, 0, 73, 0
2, 245364, Note_on_c, 0, 76, 68
2, 245456, Note_on_c, 0, 76, 0
2, 245464, Note_on_c, 0, 71, 55
2, 245484, Control_c, 0, 64, 88
2, 245488, Control_c, 0, 64, 40
2, 245488, Control_c, 0, 64, 0
2, 245496, Control_c, 0, 64, 56
2, 245500, Control_c, 0, 64, 104
2, 245500, Control_c, 0, 64, 127
2, 245560, Note_on_c, 0, 70, 63
2, 245564, Note_on_c, 0, 71, 0
2, 245648, Note_on_c, 0, 73, 59
2, 245652, Note_on_c, 0, 70, 0
2, 245744, Note_on_c, 0, 73, 0
2, 245744, Note_on_c, 0, 68, 56
2, 245760, Control_c, 0, 64, 104
2, 245764, Control_c, 0, 64, 56
2, 245764, Control_c, 0, 64, 0
2, 245784, Control_c, 0, 64, 24
2, 245788, Control_c, 0, 64, 72
2, 245792, Control_c, 0, 64, 104
2, 245792, Control_c, 0, 64, 127
2, 245836, Note_on_c, 0, 66, 58
2, 245840, Note_on_c, 0, 68, 0
2, 245928, Note_on_c, 0, 66, 0
2, 245928, Note_on_c, 0, 70, 63
2, 245944, Control_c, 0, 64, 88
2, 245944, Control_c, 0, 64, 56
2, 245948, Control_c, 0, 64, 40
2, 245952, Control_c, 0, 64, 56
2, 245952, Control_c, 0, 64, 88
2, 245956, Control_c, 0, 64, 127
2, 246012, Note_on_c, 0, 70, 0
2, 246020, Note_on_c, 0, 64, 52
2, 246032, Control_c, 0, 64, 104
2, 246036, Control_c, 0, 64, 72
2, 246040, Control_c, 0, 64, 56
2, 246048, Control_c, 0, 64, 88
2, 246048, Control_c, 0, 64, 127
2, 246112, Note_on_c, 0, 64, 0
2, 246112, Note_on_c, 0, 63, 58
2, 246120, Control_c, 0, 64, 72
2, 246124, Control_c, 0, 64, 40
2, 246128, Control_c, 0, 64, 24
2, 246128, Control_c, 0, 64, 0
2, 246132, Control_c, 0, 64, 24
2, 246136, Control_c, 0, 64, 56
2, 246136, Control_c, 0, 64, 88
2, 246140, Control_c, 0, 64, 127
2, 246200, Note_on_c, 0, 63, 0
2, 246200, Note_on_c, 0, 68, 44
2, 246208, Control_c, 0, 64, 88
2, 246212, Control_c, 0, 64, 56
2, 246216, Control_c, 0, 64, 40
2, 246220, Control_c, 0, 64, 88
2, 246224, Control_c, 0, 64, 127
2, 246292, Note_on_c, 0, 61, 49
2, 246296, Note_on_c, 0, 68, 0
2, 246304, Control_c, 0, 64, 88
2, 246308, Control_c, 0, 64, 56
2, 246308, Control_c, 0, 64, 24
2, 246312, Control_c, 0, 64, 0
2, 246320, Control_c, 0, 64, 72
2, 246324, Control_c, 0, 64, 127
2, 246384, Note_on_c, 0, 61, 0
2, 246384, Note_on_c, 0, 64, 58
2, 246392, Control_c, 0, 64, 104
2, 246396, Control_c, 0, 64, 72
2, 246396, Control_c, 0, 64, 40
2, 246400, Control_c, 0, 64, 24
2, 246404, Control_c, 0, 64, 40
2, 246404, Control_c, 0, 64, 72
2, 246408, Control_c, 0, 64, 104
2, 246412, Control_c, 0, 64, 127
2, 246476, Note_on_c, 0, 64, 0
2, 246484, Note_on_c, 0, 59, 49
2, 246488, Control_c, 0, 64, 88
2, 246492, Control_c, 0, 64, 56
2, 246492, Control_c, 0, 64, 40
2, 246504, Control_c, 0, 64, 104
2, 246504, Control_c, 0, 64, 127
2, 246580, Note_on_c, 0, 59, 0
2, 246580, Note_on_c, 0, 58, 47
2, 246588, Control_c, 0, 64, 88
2, 246592, Control_c, 0, 64, 56
2, 246592, Control_c, 0, 64, 24
2, 246596, Control_c, 0, 64, 0
2, 246600, Control_c, 0, 64, 24
2, 246600, Control_c, 0, 64, 56
2, 246604, Control_c, 0, 64, 88
2, 246608, Control_c, 0, 64, 127
2, 246672, Note_on_c, 0, 58, 0
2, 246672, Note_on_c, 0, 61, 49
2, 246688, Control_c, 0, 64, 88
2, 246692, Control_c, 0, 64, 56
2, 246696, Control_c, 0, 64, 24
2, 246696, Control_c, 0, 64, 0
2, 246704, Control_c, 0, 64, 56
2, 246708, Control_c, 0, 64, 88
2, 246708, Control_c, 0, 64, 127
2, 246768, Note_on_c, 0, 61, 0
2, 246768, Note_on_c, 0, 56, 55
2, 246776, Control_c, 0, 64, 104
2, 246776, Control_c, 0, 64, 72
2, 246780, Control_c, 0, 64, 24
2, 246780, Control_c, 0, 64, 0
2, 246796, Control_c, 0, 64, 24
2, 246796, Control_c, 0, 64, 72
2, 246800, Control_c, 0, 64, 104
2, 246804, Control_c, 0, 64, 127
2, 246888, Note_on_c, 0, 56, 0
2, 246892, Note_on_c, 0, 55, 64
2, 246920, Control_c, 0, 64, 104
2, 246924, Control_c, 0, 64, 88
2, 246928, Control_c, 0, 64, 72
2, 246928, Control_c, 0, 64, 56
2, 246936, Control_c, 0, 64, 40
2, 246936, Control_c, 0, 64, 24
2, 246940, Control_c, 0, 64, 0
2, 247044, Control_c, 0, 64, 24
2, 247044, Control_c, 0, 64, 40
2, 247048, Control_c, 0, 64, 56
2, 247052, Control_c, 0, 64, 72
2, 247052, Control_c, 0, 64, 88
2, 247060, Control_c, 0, 64, 104
2, 247064, Control_c, 0, 64, 127
2, 247108, Control_c, 0, 64, 104
2, 247120, Control_c, 0, 64, 127
2, 247340, Control_c, 0, 64, 88
2, 247344, Control_c, 0, 64, 72
2, 247344, Control_c, 0, 64, 40
2, 247348, Control_c, 0, 64, 24
2, 247348, Control_c, 0, 64, 0
2, 248076, Note_on_c, 0, 54, 33
2, 248084, Note_on_c, 0, 55, 0
2, 248364, Note_on_c, 0, 54, 0
2, 252436, Note_on_c, 0, 32, 81
2, 252488, Control_c, 0, 64, 24
2, 252500, Control_c, 0, 64, 56
2, 252508, Control_c, 0, 64, 88
2, 252520, Control_c, 0, 64, 104
2, 252528, Control_c, 0, 64, 127
2, 252552, Note_on_c, 0, 39, 77
2, 252672, Note_on_c, 0, 44, 73
2, 252732, Control_c, 0, 64, 88
2, 252740, Control_c, 0, 64, 56
2, 252752, Control_c, 0, 64, 24
2, 252760, Control_c, 0, 64, 0
2, 252780, Note_on_c, 0, 47, 79
2, 252820, Control_c, 0, 64, 24
2, 252828, Control_c, 0, 64, 56
2, 252840, Control_c, 0, 64, 88
2, 252848, Control_c, 0, 64, 104
2, 252860, Control_c, 0, 64, 127
2, 252880, Note_on_c, 0, 51, 91
2, 252992, Note_on_c, 0, 51, 0
2, 253004, Note_on_c, 0, 58, 87
2, 253004, Control_c, 0, 64, 72
2, 253012, Control_c, 0, 64, 24
2, 253020, Control_c, 0, 64, 0
2, 253072, Control_c, 0, 64, 40
2, 253080, Control_c, 0, 64, 72
2, 253088, Note_on_c, 0, 47, 0
2, 253092, Control_c, 0, 64, 104
2, 253100, Control_c, 0, 64, 127
2, 253112, Note_on_c, 0, 56, 79
2, 253188, Control_c, 0, 64, 104
2, 253196, Control_c, 0, 64, 88
2, 253208, Control_c, 0, 64, 56
2, 253216, Control_c, 0, 64, 24
2, 253220, Note_on_c, 0, 51, 84
2, 253224, Control_c, 0, 64, 0
2, 253232, Note_on_c, 0, 56, 0
2, 253280, Note_on_c, 0, 44, 0
2, 253304, Control_c, 0, 64, 56
2, 253312, Control_c, 0, 64, 104
2, 253324, Note_on_c, 0, 47, 78
2, 253324, Control_c, 0, 64, 127
2, 253328, Note_on_c, 0, 51, 0
2, 253388, Note_on_c, 0, 47, 0
2, 253428, Note_on_c, 0, 39, 0
2, 253456, Note_on_c, 0, 44, 75
2, 253520, Note_on_c, 0, 58, 0
2, 253560, Note_on_c, 0, 39, 65
2, 253572, Note_on_c, 0, 32, 0
2, 253580, Note_on_c, 0, 44, 0
2, 253596, Note_on_c, 0, 39, 0
2, 253712, Note_on_c, 0, 32, 65
2, 253768, Control_c, 0, 64, 104
2, 253776, Note_on_c, 0, 37, 71
2, 253780, Control_c, 0, 64, 72
2, 253788, Note_on_c, 0, 34, 74
2, 253788, Control_c, 0, 64, 40
2, 253796, Control_c, 0, 64, 0
2, 253820, Note_on_c, 0, 40, 70
2, 253848, Note_on_c, 0, 43, 104
2, 253884, Control_c, 0, 64, 127
2, 253896, Note_on_c, 0, 37, 0
2, 253900, Note_on_c, 0, 40, 0
2, 253904, Note_on_c, 0, 32, 0
2, 253904, Note_on_c, 0, 34, 0
2, 253920, Note_on_c, 0, 43, 0
2, 254772, Note_on_c, 0, 88, 113
2, 254776, Note_on_c, 0, 76, 103
2, 254788, Control_c, 0, 64, 40
2, 254800, Control_c, 0, 64, 127
2, 254812, Note_on_c, 0, 76, 0
2, 254824, Note_on_c, 0, 88, 0
2, 255036, Note_on_c, 0, 83, 102
2, 255040, Note_on_c, 0, 71, 90
2, 255064, Note_on_c, 0, 83, 0
2, 255068, Note_on_c, 0, 71, 0
2, 255100, Note_on_c, 0, 83, 107
2, 255104, Note_on_c, 0, 71, 85
2, 255136, Control_c, 0, 64, 104
2, 255148, Control_c, 0, 64, 56
2, 255156, Control_c, 0, 64, 0
2, 255592, Control_c, 0, 64, 24
2, 255600, Control_c, 0, 64, 56
2, 255612, Control_c, 0, 64, 88
2, 255620, Control_c, 0, 64, 104
2, 255632, Control_c, 0, 64, 127
2, 255636, Note_on_c, 0, 83, 0
2, 255732, Note_on_c, 0, 71, 0
2, 255760, Note_on_c, 0, 82, 86
2, 255764, Note_on_c, 0, 70, 83
2, 255824, Note_on_c, 0, 70, 0
2, 255828, Note_on_c, 0, 82, 0
2, 255840, Note_on_c, 0, 73, 77
2, 255840, Note_on_c, 0, 85, 90
2, 255880, Note_on_c, 0, 73, 0
2, 255884, Note_on_c, 0, 85, 0
2, 255908, Note_on_c, 0, 80, 90
2, 255908, Note_on_c, 0, 68, 85
2, 255924, Control_c, 0, 64, 104
2, 255932, Control_c, 0, 64, 72
2, 255940, Note_on_c, 0, 80, 0
2, 255940, Control_c, 0, 64, 40
2, 255944, Note_on_c, 0, 68, 0
2, 255948, Control_c, 0, 64, 0
2, 255968, Note_on_c, 0, 80, 95
2, 255968, Note_on_c, 0, 68, 85
2, 256004, Note_on_c, 0, 68, 0
2, 256024, Note_on_c, 0, 80, 0
2, 256044, Note_on_c, 0, 79, 97
2, 256044, Note_on_c, 0, 67, 107
2, 256100, Note_on_c, 0, 67, 0
2, 256108, Note_on_c, 0, 79, 0
2, 256120, Note_on_c, 0, 82, 95
2, 256124, Note_on_c, 0, 70, 90
2, 256136, Control_c, 0, 64, 40
2, 256144, Control_c, 0, 64, 88
2, 256148, Note_on_c, 0, 70, 0
2, 256152, Control_c, 0, 64, 127
2, 256156, Note_on_c, 0, 82, 0
2, 256280, Note_on_c, 0, 63, 91
2, 256296, Note_on_c, 0, 75, 77
2, 256312, Note_on_c, 0, 75, 0
2, 256312, Note_on_c, 0, 63, 0
2, 256328, Control_c, 0, 64, 104
2, 256340, Control_c, 0, 64, 88
2, 256344, Note_on_c, 0, 75, 95
2, 256348, Control_c, 0, 64, 56
2, 256352, Note_on_c, 0, 63, 97
2, 256360, Control_c, 0, 64, 40
2, 256368, Control_c, 0, 64, 0
2, 256804, Control_c, 0, 64, 40
2, 256812, Control_c, 0, 64, 56
2, 256832, Control_c, 0, 64, 72
2, 256872, Control_c, 0, 64, 88
2, 256964, Note_on_c, 0, 75, 0
2, 256992, Note_on_c, 0, 73, 95
2, 256996, Note_on_c, 0, 61, 79
2, 256996, Control_c, 0, 64, 104
2, 257016, Note_on_c, 0, 63, 0
2, 257036, Control_c, 0, 64, 127
2, 257064, Note_on_c, 0, 61, 0
2, 257072, Note_on_c, 0, 73, 0
2, 257072, Control_c, 0, 64, 104
2, 257080, Note_on_c, 0, 76, 97
2, 257080, Note_on_c, 0, 64, 83
2, 257112, Control_c, 0, 64, 72
2, 257120, Control_c, 0, 64, 40
2, 257132, Control_c, 0, 64, 0
2, 257136, Note_on_c, 0, 64, 0
2, 257144, Note_on_c, 0, 76, 0
2, 257144, Note_on_c, 0, 71, 93
2, 257164, Note_on_c, 0, 59, 34
2, 257172, Control_c, 0, 64, 24
2, 257176, Note_on_c, 0, 59, 0
2, 257180, Note_on_c, 0, 71, 0
2, 257180, Control_c, 0, 64, 40
2, 257192, Control_c, 0, 64, 56
2, 257200, Control_c, 0, 64, 72
2, 257208, Note_on_c, 0, 59, 82
2, 257212, Control_c, 0, 64, 88
2, 257216, Note_on_c, 0, 71, 87
2, 257228, Control_c, 0, 64, 104
2, 257260, Note_on_c, 0, 71, 0
2, 257260, Note_on_c, 0, 59, 0
2, 257284, Note_on_c, 0, 58, 71
2, 257288, Note_on_c, 0, 70, 91
2, 257332, Note_on_c, 0, 58, 0
2, 257340, Note_on_c, 0, 70, 0
2, 257356, Note_on_c, 0, 61, 82
2, 257364, Note_on_c, 0, 73, 86
2, 257364, Control_c, 0, 64, 88
2, 257400, Note_on_c, 0, 61, 0
2, 257404, Control_c, 0, 64, 104
2, 257412, Note_on_c, 0, 73, 0
2, 257452, Note_on_c, 0, 68, 87
2, 257452, Note_on_c, 0, 56, 80
2, 257484, Note_on_c, 0, 56, 0
2, 257492, Note_on_c, 0, 68, 0
2, 257508, Control_c, 0, 64, 56
2, 257520, Note_on_c, 0, 68, 88
2, 257520, Note_on_c, 0, 56, 74
2, 257520, Control_c, 0, 64, 24
2, 257528, Control_c, 0, 64, 0
2, 257568, Control_c, 0, 64, 24
2, 257580, Control_c, 0, 64, 40
2, 257584, Note_on_c, 0, 56, 0
2, 257584, Note_on_c, 0, 68, 0
2, 257596, Note_on_c, 0, 67, 90
2, 257600, Note_on_c, 0, 55, 80
2, 257616, Control_c, 0, 64, 0
2, 257656, Note_on_c, 0, 55, 0
2, 257672, Note_on_c, 0, 67, 0
2, 257672, Note_on_c, 0, 70, 82
2, 257672, Note_on_c, 0, 58, 75
2, 257692, Note_on_c, 0, 58, 75
2, 257704, Note_on_c, 0, 58, 0
2, 257720, Note_on_c, 0, 70, 0
2, 257748, Note_on_c, 0, 58, 0
2, 257772, Note_on_c, 0, 61, 83
2, 257776, Note_on_c, 0, 49, 89
2, 257828, Note_on_c, 0, 61, 0
2, 257880, Note_on_c, 0, 49, 0
2, 257884, Note_on_c, 0, 52, 94
2, 257888, Note_on_c, 0, 64, 102
2, 257976, Note_on_c, 0, 64, 0
2, 257976, Note_on_c, 0, 52, 0
2, 258244, Note_on_c, 0, 63, 79
2, 258244, Note_on_c, 0, 51, 61
2, 258292, Note_on_c, 0, 51, 0
2, 258304, Note_on_c, 0, 63, 0
2, 258304, Note_on_c, 0, 49, 66
2, 258304, Note_on_c, 0, 61, 74
2, 258348, Note_on_c, 0, 61, 0
2, 258356, Note_on_c, 0, 49, 0
2, 258356, Note_on_c, 0, 58, 73
2, 258364, Note_on_c, 0, 46, 67
2, 258400, Note_on_c, 0, 58, 0
2, 258404, Note_on_c, 0, 46, 0
2, 258408, Note_on_c, 0, 55, 82
2, 258416, Note_on_c, 0, 43, 72
2, 258452, Note_on_c, 0, 58, 77
2, 258460, Note_on_c, 0, 43, 0
2, 258460, Note_on_c, 0, 55, 0
2, 258460, Note_on_c, 0, 46, 69
2, 258492, Note_on_c, 0, 61, 74
2, 258492, Note_on_c, 0, 49, 58
2, 258496, Note_on_c, 0, 46, 0
2, 258500, Note_on_c, 0, 58, 0
2, 258516, Control_c, 0, 64, 40
2, 258524, Control_c, 0, 64, 56
2, 258532, Control_c, 0, 64, 88
2, 258536, Note_on_c, 0, 63, 75
2, 258540, Note_on_c, 0, 51, 66
2, 258540, Control_c, 0, 64, 104
2, 258544, Note_on_c, 0, 49, 0
2, 258548, Control_c, 0, 64, 127
2, 258552, Note_on_c, 0, 61, 0
2, 258560, Note_on_c, 0, 63, 0
2, 258560, Note_on_c, 0, 51, 0
2, 258576, Note_on_c, 0, 64, 89
2, 258588, Control_c, 0, 64, 104
2, 258596, Control_c, 0, 64, 72
2, 258604, Control_c, 0, 64, 40
2, 258608, Control_c, 0, 64, 0
2, 258616, Note_on_c, 0, 64, 0
2, 258624, Note_on_c, 0, 67, 83
2, 258644, Control_c, 0, 64, 40
2, 258648, Control_c, 0, 64, 88
2, 258656, Note_on_c, 0, 58, 60
2, 258656, Note_on_c, 0, 70, 79
2, 258656, Control_c, 0, 64, 127
2, 258676, Note_on_c, 0, 67, 0
2, 258692, Note_on_c, 0, 58, 0
2, 258692, Note_on_c, 0, 61, 60
2, 258696, Note_on_c, 0, 73, 80
2, 258708, Note_on_c, 0, 70, 0
2, 258712, Note_on_c, 0, 73, 0
2, 258716, Note_on_c, 0, 61, 0
2, 258716, Note_on_c, 0, 64, 64
2, 258728, Note_on_c, 0, 64, 0
2, 258732, Note_on_c, 0, 76, 95
2, 258760, Note_on_c, 0, 67, 73
2, 258764, Note_on_c, 0, 76, 0
2, 258768, Control_c, 0, 64, 88
2, 258772, Note_on_c, 0, 79, 84
2, 258780, Control_c, 0, 64, 104
2, 258784, Control_c, 0, 64, 127
2, 258796, Note_on_c, 0, 67, 0
2, 258800, Note_on_c, 0, 82, 79
2, 258808, Note_on_c, 0, 70, 63
2, 258820, Note_on_c, 0, 79, 0
2, 258840, Note_on_c, 0, 73, 60
2, 258840, Note_on_c, 0, 85, 82
2, 258844, Note_on_c, 0, 70, 0
2, 258856, Note_on_c, 0, 82, 0
2, 258856, Note_on_c, 0, 85, 0
2, 258860, Note_on_c, 0, 73, 0
2, 258864, Note_on_c, 0, 76, 63
2, 258876, Note_on_c, 0, 76, 0
2, 258876, Note_on_c, 0, 88, 97
2, 258908, Note_on_c, 0, 88, 0
2, 258908, Note_on_c, 0, 79, 68
2, 258920, Note_on_c, 0, 91, 85
2, 258940, Note_on_c, 0, 91, 0
2, 258956, Note_on_c, 0, 79, 0
2, 258956, Note_on_c, 0, 94, 88
2, 258956, Note_on_c, 0, 82, 61
2, 258984, Note_on_c, 0, 82, 0
2, 258984, Note_on_c, 0, 85, 66
2, 258996, Note_on_c, 0, 94, 0
2, 258996, Note_on_c, 0, 97, 87
2, 259016, Note_on_c, 0, 85, 0
2, 259036, Note_on_c, 0, 88, 59
2, 259040, Note_on_c, 0, 97, 0
2, 259044, Note_on_c, 0, 100, 98
2, 259048, Note_on_c, 0, 88, 0
2, 259068, Note_on_c, 0, 100, 0
2, 259268, Control_c, 0, 64, 104
2, 259276, Control_c, 0, 64, 88
2, 259292, Control_c, 0, 64, 72
2, 259296, Control_c, 0, 64, 56
2, 259304, Control_c, 0, 64, 40
2, 259308, Control_c, 0, 64, 24
2, 259320, Control_c, 0, 64, 0
2, 260604, Note_on_c, 0, 32, 73
2, 260668, Control_c, 0, 64, 24
2, 260676, Control_c, 0, 64, 56
2, 260688, Control_c, 0, 64, 72
2, 260696, Control_c, 0, 64, 88
2, 260704, Note_on_c, 0, 39, 73
2, 260704, Control_c, 0, 64, 104
2, 260712, Control_c, 0, 64, 127
2, 260816, Note_on_c, 0, 44, 79
2, 260980, Note_on_c, 0, 47, 82
2, 261076, Note_on_c, 0, 51, 94
2, 261220, Note_on_c, 0, 58, 87
2, 261240, Note_on_c, 0, 51, 0
2, 261252, Control_c, 0, 64, 104
2, 261264, Control_c, 0, 64, 56
2, 261272, Control_c, 0, 64, 0
2, 261316, Control_c, 0, 64, 24
2, 261328, Control_c, 0, 64, 56
2, 261336, Control_c, 0, 64, 104
2, 261348, Note_on_c, 0, 56, 74
2, 261348, Control_c, 0, 64, 127
2, 261396, Note_on_c, 0, 47, 0
2, 261460, Note_on_c, 0, 51, 80
2, 261476, Note_on_c, 0, 56, 0
2, 261548, Note_on_c, 0, 51, 0
2, 261556, Note_on_c, 0, 47, 74
2, 261580, Note_on_c, 0, 44, 0
2, 261624, Note_on_c, 0, 58, 0
2, 261676, Note_on_c, 0, 56, 70
2, 261756, Note_on_c, 0, 32, 0
2, 261760, Note_on_c, 0, 39, 0
2, 261768, Note_on_c, 0, 56, 0
2, 261772, Note_on_c, 0, 44, 81
2, 261792, Note_on_c, 0, 47, 0
2, 261808, Note_on_c, 0, 44, 0
2, 261876, Control_c, 0, 64, 88
2, 261884, Note_on_c, 0, 35, 79
2, 261888, Control_c, 0, 64, 0
2, 261900, Note_on_c, 0, 40, 82
2, 261916, Note_on_c, 0, 47, 85
2, 261936, Note_on_c, 0, 43, 90
2, 261944, Note_on_c, 0, 52, 85
2, 261948, Note_on_c, 0, 35, 0
2, 261964, Note_on_c, 0, 40, 0
2, 261968, Note_on_c, 0, 43, 0
2, 261968, Control_c, 0, 64, 88
2, 261980, Control_c, 0, 64, 127
2, 261992, Note_on_c, 0, 55, 113
2, 262020, Note_on_c, 0, 47, 0
2, 262024, Note_on_c, 0, 52, 0
2, 262040, Note_on_c, 0, 55, 0
2, 262500, Control_c, 0, 64, 104
2, 262520, Control_c, 0, 64, 88
2, 262528, Control_c, 0, 64, 72
2, 262548, Control_c, 0, 64, 56
2, 262556, Control_c, 0, 64, 24
2, 262572, Control_c, 0, 64, 0
2, 262776, Control_c, 0, 64, 88
2, 262784, Control_c, 0, 64, 127
2, 262952, Note_on_c, 0, 88, 110
2, 262960, Note_on_c, 0, 76, 102
2, 262984, Note_on_c, 0, 76, 0
2, 262992, Note_on_c, 0, 88, 0
2, 263196, Note_on_c, 0, 82, 86
2, 263208, Note_on_c, 0, 70, 90
2, 263232, Note_on_c, 0, 70, 0
2, 263232, Note_on_c, 0, 82, 0
2, 263256, Note_on_c, 0, 82, 96
2, 263268, Note_on_c, 0, 70, 91
2, 263316, Note_on_c, 0, 70, 0
2, 263316, Note_on_c, 0, 82, 0
2, 263324, Note_on_c, 0, 72, 98
2, 263328, Note_on_c, 0, 84, 112
2, 263484, Control_c, 0, 64, 56
2, 263492, Control_c, 0, 64, 0
2, 263548, Control_c, 0, 64, 72
2, 263556, Control_c, 0, 64, 127
2, 263828, Note_on_c, 0, 84, 0
2, 263860, Note_on_c, 0, 72, 0
2, 263980, Note_on_c, 0, 83, 94
2, 263988, Note_on_c, 0, 71, 77
2, 264040, Note_on_c, 0, 71, 0
2, 264052, Note_on_c, 0, 83, 0
2, 264072, Note_on_c, 0, 78, 101
2, 264076, Note_on_c, 0, 66, 75
2, 264148, Note_on_c, 0, 78, 0
2, 264152, Note_on_c, 0, 66, 0
2, 264168, Note_on_c, 0, 81, 91
2, 264172, Note_on_c, 0, 69, 77
2, 264228, Note_on_c, 0, 69, 0
2, 264228, Note_on_c, 0, 81, 0
2, 264252, Note_on_c, 0, 79, 94
2, 264252, Note_on_c, 0, 67, 78
2, 264304, Note_on_c, 0, 79, 0
2, 264316, Note_on_c, 0, 67, 0
2, 264328, Note_on_c, 0, 75, 101
2, 264328, Note_on_c, 0, 63, 87
2, 264384, Note_on_c, 0, 63, 0
2, 264396, Note_on_c, 0, 75, 0
2, 264440, Note_on_c, 0, 78, 100
2, 264444, Note_on_c, 0, 66, 87
2, 264500, Control_c, 0, 64, 88
2, 264508, Control_c, 0, 64, 0
2, 264572, Control_c, 0, 64, 104
2, 264584, Control_c, 0, 64, 127
2, 264780, Note_on_c, 0, 78, 0
2, 264788, Note_on_c, 0, 66, 0
2, 264940, Note_on_c, 0, 76, 91
2, 264944, Note_on_c, 0, 64, 73
2, 264992, Note_on_c, 0, 64, 0
2, 264992, Note_on_c, 0, 76, 0
2, 265012, Note_on_c, 0, 70, 88
2, 265020, Note_on_c, 0, 58, 65
2, 265064, Note_on_c, 0, 70, 0
2, 265076, Note_on_c, 0, 58, 0
2, 265092, Note_on_c, 0, 72, 97
2, 265096, Note_on_c, 0, 60, 77
2, 265144, Note_on_c, 0, 60, 0
2, 265144, Note_on_c, 0, 72, 0
2, 265160, Note_on_c, 0, 71, 90
2, 265164, Note_on_c, 0, 59, 77
2, 265208, Note_on_c, 0, 59, 0
2, 265212, Note_on_c, 0, 71, 0
2, 265228, Note_on_c, 0, 66, 84
2, 265240, Note_on_c, 0, 54, 65
2, 265284, Note_on_c, 0, 54, 0
2, 265284, Note_on_c, 0, 66, 0
2, 265304, Note_on_c, 0, 69, 90
2, 265312, Note_on_c, 0, 57, 66
2, 265360, Note_on_c, 0, 57, 0
2, 265364, Note_on_c, 0, 69, 0
2, 265372, Note_on_c, 0, 67, 77
2, 265380, Note_on_c, 0, 55, 73
2, 265428, Note_on_c, 0, 67, 0
2, 265444, Note_on_c, 0, 55, 0
2, 265456, Note_on_c, 0, 63, 81
2, 265460, Note_on_c, 0, 51, 81
2, 265516, Note_on_c, 0, 51, 0
2, 265520, Note_on_c, 0, 63, 0
2, 265524, Note_on_c, 0, 66, 87
2, 265528, Note_on_c, 0, 54, 80
2, 265584, Note_on_c, 0, 54, 0
2, 265588, Note_on_c, 0, 64, 98
2, 265592, Note_on_c, 0, 66, 0
2, 265596, Note_on_c, 0, 52, 87
2, 265600, Control_c, 0, 64, 88
2, 265608, Control_c, 0, 64, 40
2, 265632, Note_on_c, 0, 52, 0
2, 265636, Control_c, 0, 64, 88
2, 265644, Note_on_c, 0, 64, 0
2, 265648, Control_c, 0, 64, 127
2, 265704, Note_on_c, 0, 58, 87
2, 265716, Note_on_c, 0, 46, 78
2, 265744, Note_on_c, 0, 58, 0
2, 265756, Note_on_c, 0, 46, 0
2, 265776, Note_on_c, 0, 60, 110
2, 265784, Note_on_c, 0, 48, 84
2, 265784, Control_c, 0, 64, 104
2, 265792, Control_c, 0, 64, 0
2, 265836, Note_on_c, 0, 47, 92
2, 265844, Note_on_c, 0, 48, 0
2, 265848, Note_on_c, 0, 59, 103
2, 265860, Control_c, 0, 64, 72
2, 265864, Note_on_c, 0, 47, 0
2, 265864, Note_on_c, 0, 60, 0
2, 265868, Control_c, 0, 64, 104
2, 265876, Control_c, 0, 64, 127
2, 265884, Note_on_c, 0, 59, 0
2, 265984, Note_on_c, 0, 54, 94
2, 265992, Note_on_c, 0, 42, 77
2, 266016, Note_on_c, 0, 54, 0
2, 266024, Control_c, 0, 64, 88
2, 266032, Control_c, 0, 64, 24
2, 266040, Control_c, 0, 64, 0
2, 266048, Note_on_c, 0, 57, 109
2, 266048, Note_on_c, 0, 45, 88
2, 266048, Note_on_c, 0, 56, 40
2, 266056, Note_on_c, 0, 42, 0
2, 266064, Note_on_c, 0, 56, 0
2, 266104, Note_on_c, 0, 43, 97
2, 266104, Control_c, 0, 64, 56
2, 266108, Note_on_c, 0, 45, 0
2, 266108, Note_on_c, 0, 55, 107
2, 266112, Control_c, 0, 64, 88
2, 266124, Note_on_c, 0, 57, 0
2, 266124, Control_c, 0, 64, 127
2, 266132, Note_on_c, 0, 43, 0
2, 266144, Note_on_c, 0, 55, 0
2, 266276, Note_on_c, 0, 51, 97
2, 266288, Note_on_c, 0, 39, 87
2, 266324, Note_on_c, 0, 51, 0
2, 266328, Note_on_c, 0, 39, 0
2, 266356, Note_on_c, 0, 54, 95
2, 266356, Note_on_c, 0, 42, 97
2, 266416, Control_c, 0, 64, 72
2, 266424, Control_c, 0, 64, 24
2, 266436, Control_c, 0, 64, 0
2, 266848, Note_on_c, 0, 40, 66
2, 266848, Note_on_c, 0, 52, 86
2, 266924, Note_on_c, 0, 52, 0
2, 266936, Note_on_c, 0, 47, 90
2, 266940, Note_on_c, 0, 35, 65
2, 266944, Note_on_c, 0, 40, 0
2, 267020, Note_on_c, 0, 47, 0
2, 267020, Note_on_c, 0, 35, 0
2, 267028, Note_on_c, 0, 43, 87
2, 267032, Note_on_c, 0, 42, 0
2, 267032, Note_on_c, 0, 31, 65
2, 267044, Note_on_c, 0, 54, 0
2, 267100, Note_on_c, 0, 43, 0
2, 267100, Note_on_c, 0, 47, 87
2, 267104, Note_on_c, 0, 35, 75
2, 267108, Note_on_c, 0, 31, 0
2, 267120, Note_on_c, 0, 47, 0
2, 267132, Control_c, 0, 64, 24
2, 267136, Control_c, 0, 64, 56
2, 267144, Note_on_c, 0, 35, 0
2, 267148, Control_c, 0, 64, 72
2, 267156, Note_on_c, 0, 40, 71
2, 267156, Note_on_c, 0, 52, 83
2, 267156, Control_c, 0, 64, 88
2, 267168, Control_c, 0, 64, 104
2, 267184, Note_on_c, 0, 40, 0
2, 267188, Note_on_c, 0, 52, 0
2, 267208, Note_on_c, 0, 55, 90
2, 267208, Note_on_c, 0, 43, 55
2, 267220, Control_c, 0, 64, 72
2, 267228, Control_c, 0, 64, 24
2, 267232, Control_c, 0, 64, 0
2, 267252, Note_on_c, 0, 43, 0
2, 267256, Note_on_c, 0, 59, 84
2, 267260, Note_on_c, 0, 55, 0
2, 267260, Note_on_c, 0, 47, 63
2, 267260, Control_c, 0, 64, 56
2, 267268, Control_c, 0, 64, 88
2, 267272, Note_on_c, 0, 59, 0
2, 267272, Control_c, 0, 64, 127
2, 267288, Note_on_c, 0, 47, 0
2, 267304, Note_on_c, 0, 52, 65
2, 267308, Note_on_c, 0, 64, 87
2, 267316, Note_on_c, 0, 52, 0
2, 267328, Control_c, 0, 64, 88
2, 267332, Note_on_c, 0, 64, 0
2, 267332, Control_c, 0, 64, 56
2, 267340, Control_c, 0, 64, 40
2, 267344, Control_c, 0, 64, 56
2, 267352, Control_c, 0, 64, 88
2, 267356, Note_on_c, 0, 67, 90
2, 267356, Control_c, 0, 64, 127
2, 267360, Note_on_c, 0, 55, 56
2, 267392, Note_on_c, 0, 55, 0
2, 267392, Note_on_c, 0, 71, 88
2, 267396, Note_on_c, 0, 67, 0
2, 267396, Note_on_c, 0, 59, 68
2, 267412, Note_on_c, 0, 71, 0
2, 267420, Note_on_c, 0, 59, 0
2, 267432, Note_on_c, 0, 64, 65
2, 267432, Note_on_c, 0, 76, 95
2, 267444, Note_on_c, 0, 64, 0
2, 267464, Note_on_c, 0, 76, 0
2, 267476, Note_on_c, 0, 79, 89
2, 267492, Note_on_c, 0, 69, 43
2, 267508, Note_on_c, 0, 69, 0
2, 267516, Note_on_c, 0, 79, 0
2, 267516, Note_on_c, 0, 83, 92
2, 267528, Note_on_c, 0, 71, 43
2, 267532, Note_on_c, 0, 83, 0
2, 267552, Note_on_c, 0, 71, 0
2, 267560, Note_on_c, 0, 88, 105
2, 267560, Note_on_c, 0, 76, 81
2, 267560, Note_on_c, 0, 64, 80
2, 267612, Note_on_c, 0, 76, 0
2, 267612, Note_on_c, 0, 88, 0
2, 267620, Note_on_c, 0, 64, 0
2, 267812, Note_on_c, 0, 86, 96
2, 267816, Note_on_c, 0, 74, 89
2, 267820, Note_on_c, 0, 62, 80
2, 267832, Control_c, 0, 64, 40
2, 267840, Control_c, 0, 64, 56
2, 267848, Note_on_c, 0, 74, 0
2, 267852, Note_on_c, 0, 86, 0
2, 267876, Note_on_c, 0, 62, 0
2, 267876, Control_c, 0, 64, 0
2, 267892, Note_on_c, 0, 84, 117
2, 267892, Note_on_c, 0, 72, 106
2, 267896, Note_on_c, 0, 60, 92
2, 267936, Note_on_c, 0, 72, 0
2, 267952, Note_on_c, 0, 84, 0
2, 267952, Control_c, 0, 64, 56
2, 267960, Control_c, 0, 64, 88
2, 267968, Control_c, 0, 64, 127
2, 268160, Control_c, 0, 64, 104
2, 268172, Control_c, 0, 64, 88
2, 268180, Control_c, 0, 64, 56
2, 268192, Note_on_c, 0, 60, 0
2, 268192, Control_c, 0, 64, 0
2, 268200, Note_on_c, 0, 76, 97
2, 268200, Note_on_c, 0, 64, 92
2, 268212, Note_on_c, 0, 52, 87
2, 268244, Note_on_c, 0, 64, 0
2, 268256, Control_c, 0, 64, 40
2, 268260, Control_c, 0, 64, 88
2, 268272, Control_c, 0, 64, 104
2, 268276, Note_on_c, 0, 76, 0
2, 268280, Note_on_c, 0, 52, 0
2, 268280, Control_c, 0, 64, 127
2, 268480, Control_c, 0, 64, 104
2, 268500, Control_c, 0, 64, 88
2, 268504, Note_on_c, 0, 59, 84
2, 268508, Note_on_c, 0, 83, 106
2, 268508, Note_on_c, 0, 71, 92
2, 268512, Control_c, 0, 64, 56
2, 268520, Control_c, 0, 64, 0
2, 268576, Control_c, 0, 64, 24
2, 268584, Control_c, 0, 64, 72
2, 268592, Note_on_c, 0, 83, 0
2, 268592, Control_c, 0, 64, 127
2, 268612, Note_on_c, 0, 71, 0
2, 268768, Control_c, 0, 64, 104
2, 268776, Control_c, 0, 64, 88
2, 268784, Control_c, 0, 64, 56
2, 268796, Control_c, 0, 64, 0
2, 268800, Note_on_c, 0, 59, 0
2, 268804, Note_on_c, 0, 81, 99
2, 268808, Note_on_c, 0, 69, 91
2, 268812, Note_on_c, 0, 57, 84
2, 268852, Note_on_c, 0, 69, 0
2, 268852, Control_c, 0, 64, 40
2, 268856, Note_on_c, 0, 81, 0
2, 268860, Control_c, 0, 64, 88
2, 268864, Note_on_c, 0, 57, 0
2, 268868, Control_c, 0, 64, 127
2, 269040, Note_on_c, 0, 79, 99
2, 269040, Note_on_c, 0, 55, 91
2, 269040, Note_on_c, 0, 67, 83
2, 269056, Note_on_c, 0, 67, 0
2, 269060, Control_c, 0, 64, 104
2, 269064, Note_on_c, 0, 55, 0
2, 269064, Note_on_c, 0, 79, 0
2, 269072, Control_c, 0, 64, 40
2, 269080, Control_c, 0, 64, 0
2, 269088, Note_on_c, 0, 67, 92
2, 269088, Note_on_c, 0, 79, 110
2, 269096, Note_on_c, 0, 55, 88
2, 269124, Control_c, 0, 64, 40
2, 269132, Note_on_c, 0, 79, 0
2, 269132, Note_on_c, 0, 67, 0
2, 269136, Control_c, 0, 64, 88
2, 269144, Control_c, 0, 64, 127
2, 269148, Note_on_c, 0, 55, 0
2, 269208, Control_c, 0, 64, 88
2, 269216, Control_c, 0, 64, 40
2, 269224, Control_c, 0, 64, 0
2, 269248, Note_on_c, 0, 65, 93
2, 269256, Note_on_c, 0, 53, 92
2, 269256, Note_on_c, 0, 77, 104
2, 269272, Control_c, 0, 64, 56
2, 269276, Note_on_c, 0, 53, 0
2, 269276, Note_on_c, 0, 65, 0
2, 269280, Control_c, 0, 64, 104
2, 269292, Control_c, 0, 64, 127
2, 269296, Note_on_c, 0, 77, 0
2, 269436, Note_on_c, 0, 93, 110
2, 269436, Note_on_c, 0, 81, 100
2, 269444, Note_on_c, 0, 69, 92
2, 269492, Control_c, 0, 64, 104
2, 269500, Control_c, 0, 64, 72
2, 269512, Control_c, 0, 64, 40
2, 269520, Control_c, 0, 64, 0
2, 269600, Control_c, 0, 64, 56
2, 269612, Control_c, 0, 64, 88
2, 269620, Control_c, 0, 64, 127
2, 269732, Note_on_c, 0, 93, 0
2, 269764, Note_on_c, 0, 81, 0
2, 269784, Note_on_c, 0, 69, 0
2, 269876, Control_c, 0, 64, 72
2, 269884, Control_c, 0, 64, 0
2, 269896, Note_on_c, 0, 91, 102
2, 269896, Note_on_c, 0, 79, 97
2, 269908, Note_on_c, 0, 67, 80
2, 269924, Control_c, 0, 64, 56
2, 269932, Control_c, 0, 64, 104
2, 269940, Note_on_c, 0, 79, 0
2, 269940, Control_c, 0, 64, 127
2, 269948, Note_on_c, 0, 91, 0
2, 269956, Note_on_c, 0, 67, 0
2, 270016, Control_c, 0, 64, 72
2, 270024, Control_c, 0, 64, 24
2, 270032, Control_c, 0, 64, 0
2, 270040, Control_c, 0, 64, 24
2, 270052, Note_on_c, 0, 89, 102
2, 270052, Control_c, 0, 64, 56
2, 270056, Note_on_c, 0, 77, 97
2, 270056, Note_on_c, 0, 65, 81
2, 270060, Control_c, 0, 64, 104
2, 270068, Control_c, 0, 64, 127
2, 270084, Note_on_c, 0, 77, 0
2, 270084, Note_on_c, 0, 89, 0
2, 270116, Note_on_c, 0, 65, 0
2, 270160, Note_on_c, 0, 81, 99
2, 270164, Note_on_c, 0, 69, 68
2, 270176, Note_on_c, 0, 81, 0
2, 270176, Note_on_c, 0, 57, 63
2, 270176, Note_on_c, 0, 71, 41
2, 270180, Note_on_c, 0, 69, 0
2, 270192, Note_on_c, 0, 71, 0
2, 270224, Control_c, 0, 64, 88
2, 270236, Control_c, 0, 64, 40
2, 270240, Note_on_c, 0, 57, 0
2, 270244, Control_c, 0, 64, 24
2, 270252, Control_c, 0, 64, 40
2, 270256, Note_on_c, 0, 86, 112
2, 270256, Note_on_c, 0, 74, 88
2, 270260, Note_on_c, 0, 62, 79
2, 270260, Control_c, 0, 64, 72
2, 270268, Note_on_c, 0, 76, 69
2, 270272, Control_c, 0, 64, 127
2, 270280, Note_on_c, 0, 74, 0
2, 270284, Note_on_c, 0, 86, 0
2, 270284, Note_on_c, 0, 76, 0
2, 270328, Note_on_c, 0, 62, 0
2, 270372, Note_on_c, 0, 84, 106
2, 270372, Note_on_c, 0, 72, 102
2, 270372, Control_c, 0, 64, 88
2, 270380, Note_on_c, 0, 60, 88
2, 270380, Control_c, 0, 64, 24
2, 270388, Control_c, 0, 64, 0
2, 270428, Control_c, 0, 64, 40
2, 270436, Control_c, 0, 64, 88
2, 270444, Note_on_c, 0, 84, 0
2, 270444, Control_c, 0, 64, 127
2, 270452, Note_on_c, 0, 72, 0
2, 270536, Control_c, 0, 64, 72
2, 270540, Note_on_c, 0, 60, 0
2, 270548, Control_c, 0, 64, 0
2, 270552, Note_on_c, 0, 71, 85
2, 270556, Note_on_c, 0, 83, 103
2, 270556, Note_on_c, 0, 59, 80
2, 270584, Note_on_c, 0, 71, 0
2, 270584, Control_c, 0, 64, 72
2, 270592, Note_on_c, 0, 59, 0
2, 270592, Control_c, 0, 64, 127
2, 270600, Note_on_c, 0, 83, 0
2, 270840, Note_on_c, 0, 101, 110
2, 270840, Note_on_c, 0, 95, 96
2, 270840, Note_on_c, 0, 92, 100
2, 270840, Note_on_c, 0, 89, 88
2, 270840, Note_on_c, 0, 86, 33
2, 270840, Note_on_c, 0, 80, 82
2, 270868, Control_c, 0, 64, 88
2, 270876, Control_c, 0, 64, 0
2, 270932, Control_c, 0, 64, 72
2, 270940, Note_on_c, 0, 95, 0
2, 270940, Control_c, 0, 64, 127
2, 270948, Note_on_c, 0, 80, 0
2, 270952, Note_on_c, 0, 86, 0
2, 270960, Note_on_c, 0, 92, 0
2, 270968, Note_on_c, 0, 89, 0
2, 270980, Note_on_c, 0, 101, 0
2, 271260, Note_on_c, 0, 95, 113
2, 271264, Note_on_c, 0, 89, 91
2, 271264, Note_on_c, 0, 80, 74
2, 271264, Note_on_c, 0, 86, 77
2, 271272, Control_c, 0, 64, 56
2, 271276, Control_c, 0, 64, 104
2, 271280, Control_c, 0, 64, 127
2, 271336, Note_on_c, 0, 95, 0
2, 271348, Note_on_c, 0, 86, 0
2, 271348, Note_on_c, 0, 80, 0
2, 271348, Note_on_c, 0, 98, 95
2, 271348, Note_on_c, 0, 92, 83
2, 271348, Note_on_c, 0, 77, 74
2, 271352, Note_on_c, 0, 83, 49
2, 271360, Note_on_c, 0, 77, 0
2, 271364, Note_on_c, 0, 92, 0
2, 271364, Note_on_c, 0, 83, 0
2, 271364, Note_on_c, 0, 89, 0
2, 271372, Note_on_c, 0, 98, 0
2, 271412, Control_c, 0, 64, 104
2, 271420, Control_c, 0, 64, 72
2, 271424, Control_c, 0, 64, 40
2, 271428, Control_c, 0, 64, 0
2, 271436, Note_on_c, 0, 92, 95
2, 271440, Note_on_c, 0, 86, 84
2, 271440, Note_on_c, 0, 77, 72
2, 271440, Note_on_c, 0, 83, 80
2, 271452, Control_c, 0, 64, 24
2, 271456, Control_c, 0, 64, 72
2, 271460, Control_c, 0, 64, 127
2, 271488, Note_on_c, 0, 77, 0
2, 271492, Note_on_c, 0, 83, 0
2, 271496, Note_on_c, 0, 92, 0
2, 271508, Note_on_c, 0, 80, 70
2, 271512, Note_on_c, 0, 74, 69
2, 271516, Note_on_c, 0, 95, 94
2, 271516, Note_on_c, 0, 89, 81
2, 271520, Note_on_c, 0, 80, 0
2, 271524, Note_on_c, 0, 74, 0
2, 271528, Note_on_c, 0, 89, 0
2, 271528, Note_on_c, 0, 86, 0
2, 271536, Note_on_c, 0, 95, 0
2, 271568, Control_c, 0, 64, 88
2, 271572, Control_c, 0, 64, 40
2, 271576, Control_c, 0, 64, 0
2, 271588, Note_on_c, 0, 89, 90
2, 271592, Note_on_c, 0, 83, 74
2, 271596, Note_on_c, 0, 80, 80
2, 271596, Note_on_c, 0, 74, 75
2, 271608, Control_c, 0, 64, 72
2, 271616, Control_c, 0, 64, 127
2, 271636, Note_on_c, 0, 74, 0
2, 271644, Note_on_c, 0, 89, 0
2, 271644, Note_on_c, 0, 83, 0
2, 271644, Note_on_c, 0, 80, 0
2, 271660, Note_on_c, 0, 77, 73
2, 271660, Note_on_c, 0, 92, 93
2, 271664, Note_on_c, 0, 71, 59
2, 271668, Note_on_c, 0, 86, 66
2, 271672, Note_on_c, 0, 71, 0
2, 271672, Note_on_c, 0, 77, 0
2, 271676, Note_on_c, 0, 86, 0
2, 271688, Note_on_c, 0, 92, 0
2, 271716, Control_c, 0, 64, 104
2, 271720, Control_c, 0, 64, 72
2, 271724, Control_c, 0, 64, 24
2, 271728, Control_c, 0, 64, 0
2, 271736, Note_on_c, 0, 86, 91
2, 271740, Note_on_c, 0, 77, 78
2, 271740, Note_on_c, 0, 80, 69
2, 271740, Note_on_c, 0, 71, 66
2, 271764, Control_c, 0, 64, 56
2, 271768, Control_c, 0, 64, 104
2, 271772, Control_c, 0, 64, 127
2, 271780, Note_on_c, 0, 77, 0
2, 271784, Note_on_c, 0, 71, 0
2, 271788, Note_on_c, 0, 80, 0
2, 271788, Note_on_c, 0, 86, 0
2, 271804, Note_on_c, 0, 74, 56
2, 271804, Note_on_c, 0, 89, 89
2, 271808, Note_on_c, 0, 68, 61
2, 271808, Note_on_c, 0, 83, 68
2, 271816, Note_on_c, 0, 68, 0
2, 271816, Note_on_c, 0, 74, 0
2, 271820, Note_on_c, 0, 83, 0
2, 271828, Note_on_c, 0, 89, 0
2, 271852, Control_c, 0, 64, 104
2, 271856, Control_c, 0, 64, 72
2, 271864, Control_c, 0, 64, 24
2, 271868, Control_c, 0, 64, 0
2, 271880, Note_on_c, 0, 83, 92
2, 271884, Note_on_c, 0, 77, 82
2, 271884, Note_on_c, 0, 74, 75
2, 271884, Note_on_c, 0, 68, 66
2, 271904, Control_c, 0, 64, 88
2, 271912, Control_c, 0, 64, 127
2, 271932, Note_on_c, 0, 74, 0
2, 271936, Note_on_c, 0, 68, 0
2, 271940, Note_on_c, 0, 83, 0
2, 271952, Note_on_c, 0, 80, 79
2, 271952, Note_on_c, 0, 86, 87
2, 271952, Note_on_c, 0, 65, 57
2, 271964, Note_on_c, 0, 65, 0
2, 271964, Note_on_c, 0, 77, 0
2, 271972, Note_on_c, 0, 86, 0
2, 271972, Note_on_c, 0, 80, 0
2, 272012, Control_c, 0, 64, 88
2, 272016, Control_c, 0, 64, 40
2, 272020, Note_on_c, 0, 80, 87
2, 272024, Note_on_c, 0, 74, 73
2, 272024, Control_c, 0, 64, 0
2, 272028, Note_on_c, 0, 71, 76
2, 272028, Note_on_c, 0, 65, 73
2, 272048, Control_c, 0, 64, 40
2, 272056, Control_c, 0, 64, 88
2, 272060, Control_c, 0, 64, 127
2, 272076, Note_on_c, 0, 65, 0
2, 272076, Note_on_c, 0, 71, 0
2, 272084, Note_on_c, 0, 68, 60
2, 272088, Note_on_c, 0, 74, 0
2, 272088, Note_on_c, 0, 80, 0
2, 272096, Note_on_c, 0, 68, 0
2, 272096, Note_on_c, 0, 62, 63
2, 272096, Note_on_c, 0, 83, 89
2, 272100, Note_on_c, 0, 77, 74
2, 272104, Note_on_c, 0, 62, 0
2, 272108, Note_on_c, 0, 77, 0
2, 272116, Note_on_c, 0, 83, 0
2, 272156, Control_c, 0, 64, 88
2, 272160, Control_c, 0, 64, 40
2, 272164, Note_on_c, 0, 77, 87
2, 272164, Control_c, 0, 64, 0
2, 272168, Note_on_c, 0, 68, 69
2, 272168, Note_on_c, 0, 71, 71
2, 272172, Note_on_c, 0, 62, 65
2, 272192, Control_c, 0, 64, 56
2, 272196, Control_c, 0, 64, 127
2, 272212, Note_on_c, 0, 68, 0
2, 272216, Note_on_c, 0, 62, 0
2, 272220, Note_on_c, 0, 71, 0
2, 272220, Note_on_c, 0, 77, 0
2, 272228, Note_on_c, 0, 80, 85
2, 272236, Note_on_c, 0, 59, 62
2, 272236, Note_on_c, 0, 65, 43
2, 272236, Note_on_c, 0, 74, 61
2, 272244, Note_on_c, 0, 59, 0
2, 272248, Note_on_c, 0, 74, 0
2, 272248, Note_on_c, 0, 65, 0
2, 272256, Note_on_c, 0, 80, 0
2, 272292, Control_c, 0, 64, 88
2, 272296, Control_c, 0, 64, 40
2, 272304, Note_on_c, 0, 65, 61
2, 272304, Note_on_c, 0, 74, 86
2, 272304, Control_c, 0, 64, 0
2, 272308, Note_on_c, 0, 68, 65
2, 272308, Note_on_c, 0, 59, 56
2, 272324, Control_c, 0, 64, 40
2, 272328, Control_c, 0, 64, 88
2, 272336, Control_c, 0, 64, 127
2, 272348, Note_on_c, 0, 65, 0
2, 272352, Note_on_c, 0, 59, 0
2, 272352, Note_on_c, 0, 68, 0
2, 272360, Note_on_c, 0, 74, 0
2, 272372, Note_on_c, 0, 56, 63
2, 272372, Note_on_c, 0, 77, 91
2, 272380, Note_on_c, 0, 71, 52
2, 272388, Note_on_c, 0, 56, 0
2, 272392, Note_on_c, 0, 71, 0
2, 272396, Note_on_c, 0, 77, 0
2, 272436, Control_c, 0, 64, 56
2, 272440, Control_c, 0, 64, 0
2, 272444, Note_on_c, 0, 71, 90
2, 272448, Note_on_c, 0, 62, 71
2, 272452, Note_on_c, 0, 65, 70
2, 272452, Note_on_c, 0, 56, 47
2, 272460, Control_c, 0, 64, 24
2, 272468, Control_c, 0, 64, 88
2, 272472, Control_c, 0, 64, 127
2, 272492, Note_on_c, 0, 56, 0
2, 272492, Note_on_c, 0, 62, 0
2, 272500, Note_on_c, 0, 71, 0
2, 272516, Note_on_c, 0, 65, 0
2, 272516, Note_on_c, 0, 68, 71
2, 272516, Note_on_c, 0, 74, 90
2, 272516, Note_on_c, 0, 59, 51
2, 272516, Note_on_c, 0, 53, 72
2, 272528, Note_on_c, 0, 53, 0
2, 272528, Note_on_c, 0, 59, 0
2, 272532, Note_on_c, 0, 68, 0
2, 272536, Note_on_c, 0, 74, 0
2, 272572, Control_c, 0, 64, 56
2, 272580, Control_c, 0, 64, 0
2, 272584, Note_on_c, 0, 68, 84
2, 272588, Note_on_c, 0, 62, 70
2, 272588, Note_on_c, 0, 59, 68
2, 272592, Note_on_c, 0, 53, 70
2, 272600, Control_c, 0, 64, 56
2, 272604, Control_c, 0, 64, 104
2, 272608, Control_c, 0, 64, 127
2, 272640, Note_on_c, 0, 53, 0
2, 272640, Note_on_c, 0, 59, 0
2, 272648, Note_on_c, 0, 68, 0
2, 272652, Note_on_c, 0, 56, 68
2, 272656, Note_on_c, 0, 71, 83
2, 272660, Note_on_c, 0, 50, 75
2, 272660, Note_on_c, 0, 65, 65
2, 272668, Note_on_c, 0, 50, 0
2, 272672, Note_on_c, 0, 56, 0
2, 272672, Note_on_c, 0, 62, 0
2, 272672, Note_on_c, 0, 65, 0
2, 272680, Note_on_c, 0, 71, 0
2, 272704, Control_c, 0, 64, 72
2, 272712, Control_c, 0, 64, 24
2, 272716, Control_c, 0, 64, 0
2, 272732, Note_on_c, 0, 65, 79
2, 272736, Control_c, 0, 64, 72
2, 272740, Note_on_c, 0, 56, 78
2, 272740, Note_on_c, 0, 59, 70
2, 272740, Note_on_c, 0, 50, 76
2, 272740, Control_c, 0, 64, 127
2, 272796, Note_on_c, 0, 65, 0
2, 272800, Note_on_c, 0, 50, 0
2, 272816, Note_on_c, 0, 56, 0
2, 272816, Note_on_c, 0, 53, 69
2, 272816, Note_on_c, 0, 68, 86
2, 272816, Note_on_c, 0, 62, 83
2, 272820, Note_on_c, 0, 47, 72
2, 272824, Note_on_c, 0, 53, 0
2, 272828, Note_on_c, 0, 62, 0
2, 272836, Note_on_c, 0, 59, 0
2, 272836, Note_on_c, 0, 47, 0
2, 272840, Note_on_c, 0, 68, 0
2, 272932, Note_on_c, 0, 56, 91
2, 272936, Note_on_c, 0, 44, 84
2, 272960, Control_c, 0, 64, 104
2, 272964, Control_c, 0, 64, 56
2, 272968, Control_c, 0, 64, 24
2, 272976, Control_c, 0, 64, 0
2, 273284, Note_on_c, 0, 44, 0
2, 273284, Note_on_c, 0, 55, 96
2, 273284, Note_on_c, 0, 43, 79
2, 273296, Note_on_c, 0, 56, 0
2, 273452, Note_on_c, 0, 55, 0
2, 273460, Note_on_c, 0, 53, 92
2, 273464, Note_on_c, 0, 41, 76
2, 273472, Note_on_c, 0, 43, 0
2, 273620, Note_on_c, 0, 44, 78
2, 273620, Note_on_c, 0, 32, 68
2, 273624, Note_on_c, 0, 53, 0
2, 273636, Note_on_c, 0, 41, 0
2, 273788, Note_on_c, 0, 51, 81
2, 273788, Note_on_c, 0, 39, 72
2, 273796, Note_on_c, 0, 44, 0
2, 273804, Note_on_c, 0, 32, 0
2, 273980, Note_on_c, 0, 51, 0
2, 273996, Note_on_c, 0, 39, 0
2, 274024, Note_on_c, 0, 49, 75
2, 274024, Note_on_c, 0, 37, 67
2, 274248, Note_on_c, 0, 49, 0
2, 274400, Note_on_c, 0, 37, 0
2, 274416, Note_on_c, 0, 48, 85
2, 274416, Note_on_c, 0, 36, 84
2, 274472, Note_on_c, 0, 36, 0
2, 274472, Note_on_c, 0, 48, 0
2, 274512, Note_on_c, 0, 48, 89
2, 274512, Note_on_c, 0, 36, 62
2, 274876, Note_on_c, 0, 36, 0
2, 274876, Note_on_c, 0, 47, 79
2, 274876, Note_on_c, 0, 35, 71
2, 274900, Note_on_c, 0, 48, 0
2, 275208, Control_c, 0, 64, 56
2, 275220, Control_c, 0, 64, 88
2, 275228, Control_c, 0, 64, 127
2, 275252, Note_on_c, 0, 35, 0
2, 275276, Note_on_c, 0, 47, 0
2, 275564, Note_on_c, 0, 41, 91
2, 275564, Note_on_c, 0, 29, 56
2, 275624, Control_c, 0, 64, 88
2, 275632, Control_c, 0, 64, 24
2, 275644, Control_c, 0, 64, 0
2, 275712, Control_c, 0, 64, 24
2, 275724, Control_c, 0, 64, 56
2, 275732, Control_c, 0, 64, 88
2, 275744, Control_c, 0, 64, 104
2, 275752, Control_c, 0, 64, 127
2, 275896, Note_on_c, 0, 44, 95
2, 275896, Note_on_c, 0, 32, 80
2, 275904, Note_on_c, 0, 41, 0
2, 275912, Note_on_c, 0, 29, 0
2, 275952, Control_c, 0, 64, 104
2, 275964, Control_c, 0, 64, 72
2, 275972, Control_c, 0, 64, 56
2, 275984, Control_c, 0, 64, 24
2, 275992, Control_c, 0, 64, 0
2, 276540, Control_c, 0, 64, 40
2, 276548, Control_c, 0, 64, 56
2, 276560, Control_c, 0, 64, 72
2, 276580, Control_c, 0, 64, 88
2, 276588, Control_c, 0, 64, 104
2, 276600, Control_c, 0, 64, 127
2, 276684, Note_on_c, 0, 44, 0
2, 276780, Note_on_c, 0, 32, 0
2, 276960, Note_on_c, 0, 67, 68
2, 276960, Note_on_c, 0, 59, 52
2, 276960, Note_on_c, 0, 53, 41
2, 276960, Note_on_c, 0, 43, 45
2, 276960, Note_on_c, 0, 31, 42
2, 277012, Control_c, 0, 64, 88
2, 277020, Control_c, 0, 64, 56
2, 277032, Control_c, 0, 64, 0
2, 277132, Control_c, 0, 64, 72
2, 277144, Control_c, 0, 64, 127
2, 277168, Note_on_c, 0, 53, 0
2, 277172, Note_on_c, 0, 31, 0
2, 277180, Note_on_c, 0, 43, 0
2, 277188, Note_on_c, 0, 59, 0
2, 277192, Note_on_c, 0, 67, 0
2, 277344, Note_on_c, 0, 62, 69
2, 277344, Note_on_c, 0, 43, 59
2, 277344, Note_on_c, 0, 59, 51
2, 277344, Note_on_c, 0, 53, 49
2, 277344, Note_on_c, 0, 31, 44
2, 277372, Note_on_c, 0, 31, 0
2, 277372, Note_on_c, 0, 43, 0
2, 277372, Note_on_c, 0, 53, 0
2, 277376, Note_on_c, 0, 59, 0
2, 277396, Note_on_c, 0, 62, 0
2, 277472, Note_on_c, 0, 62, 70
2, 277472, Note_on_c, 0, 53, 47
2, 277472, Note_on_c, 0, 43, 48
2, 277472, Note_on_c, 0, 31, 48
2, 277472, Note_on_c, 0, 59, 47
2, 277516, Control_c, 0, 64, 104
2, 277524, Control_c, 0, 64, 88
2, 277536, Control_c, 0, 64, 56
2, 277548, Control_c, 0, 64, 24
2, 277556, Control_c, 0, 64, 0
2, 277648, Control_c, 0, 64, 40
2, 277656, Control_c, 0, 64, 88
2, 277668, Control_c, 0, 64, 127
2, 277728, Note_on_c, 0, 62, 0
2, 277744, Note_on_c, 0, 59, 0
2, 277748, Note_on_c, 0, 53, 0
2, 277764, Note_on_c, 0, 43, 0
2, 277764, Note_on_c, 0, 31, 0
2, 277996, Note_on_c, 0, 63, 70
2, 277996, Note_on_c, 0, 59, 51
2, 277996, Note_on_c, 0, 53, 50
2, 277996, Note_on_c, 0, 31, 44
2, 277996, Note_on_c, 0, 43, 38
2, 278068, Control_c, 0, 64, 104
2, 278080, Control_c, 0, 64, 40
2, 278088, Control_c, 0, 64, 0
2, 278148, Control_c, 0, 64, 88
2, 278160, Control_c, 0, 64, 127
2, 278204, Note_on_c, 0, 59, 0
2, 278252, Note_on_c, 0, 31, 0
2, 278264, Note_on_c, 0, 63, 0
2, 278292, Note_on_c, 0, 67, 65
2, 278300, Note_on_c, 0, 43, 0
2, 278412, Note_on_c, 0, 67, 0
2, 278420, Note_on_c, 0, 53, 0
2, 278488, Note_on_c, 0, 31, 42
2, 278544, Control_c, 0, 64, 72
2, 278552, Control_c, 0, 64, 0
2, 278556, Note_on_c, 0, 43, 43
2, 278604, Control_c, 0, 64, 88
2, 278612, Control_c, 0, 64, 127
2, 278616, Note_on_c, 0, 52, 40
2, 278656, Note_on_c, 0, 52, 0
2, 278684, Note_on_c, 0, 60, 37
2, 278716, Note_on_c, 0, 60, 0
2, 278728, Note_on_c, 0, 64, 64
2, 278796, Note_on_c, 0, 64, 0
2, 278800, Note_on_c, 0, 67, 68
2, 278872, Note_on_c, 0, 67, 0
2, 279028, Note_on_c, 0, 31, 0
2, 279072, Note_on_c, 0, 43, 0
2, 279392, Note_on_c, 0, 76, 80
2, 279940, Note_on_c, 0, 76, 0
2, 280048, Note_on_c, 0, 74, 77
2, 280308, Note_on_c, 0, 74, 0
2, 280312, Note_on_c, 0, 72, 76
2, 280628, Note_on_c, 0, 72, 0
2, 280628, Note_on_c, 0, 64, 59
2, 281008, Note_on_c, 0, 71, 70
2, 281024, Note_on_c, 0, 64, 0
2, 281272, Note_on_c, 0, 69, 67
2, 281288, Note_on_c, 0, 71, 0
2, 281476, Control_c, 0, 64, 24
2, 281496, Control_c, 0, 64, 40
2, 281504, Control_c, 0, 64, 56
2, 281524, Control_c, 0, 64, 72
2, 281544, Control_c, 0, 64, 88
2, 281576, Control_c, 0, 64, 104
2, 281768, Note_on_c, 0, 69, 0
2, 281772, Note_on_c, 0, 67, 60
2, 281852, Note_on_c, 0, 67, 0
2, 281928, Note_on_c, 0, 67, 49
2, 281956, Control_c, 0, 64, 88
2, 281976, Control_c, 0, 64, 72
2, 281988, Control_c, 0, 64, 56
2, 282008, Control_c, 0, 64, 24
2, 282016, Control_c, 0, 64, 0
2, 282128, Control_c, 0, 64, 40
2, 282140, Control_c, 0, 64, 88
2, 282148, Control_c, 0, 64, 127
2, 282224, Note_on_c, 0, 67, 0
2, 282820, Note_on_c, 0, 79, 73
2, 282832, Note_on_c, 0, 43, 39
2, 282836, Note_on_c, 0, 59, 37
2, 282836, Note_on_c, 0, 74, 57
2, 282836, Note_on_c, 0, 65, 43
2, 282836, Note_on_c, 0, 67, 43
2, 282876, Control_c, 0, 64, 88
2, 282884, Control_c, 0, 64, 40
2, 282896, Control_c, 0, 64, 0
2, 282916, Control_c, 0, 64, 24
2, 282924, Control_c, 0, 64, 88
2, 282936, Control_c, 0, 64, 127
2, 282984, Note_on_c, 0, 43, 0
2, 282992, Note_on_c, 0, 59, 0
2, 282996, Control_c, 0, 67, 127
2, 283004, Note_on_c, 0, 74, 0
2, 283004, Note_on_c, 0, 65, 0
2, 283004, Note_on_c, 0, 67, 0
2, 283008, Note_on_c, 0, 79, 0
2, 283236, Note_on_c, 0, 43, 36
2, 283240, Note_on_c, 0, 74, 69
2, 283240, Note_on_c, 0, 59, 39
2, 283244, Note_on_c, 0, 65, 49
2, 283248, Note_on_c, 0, 67, 49
2, 283304, Note_on_c, 0, 67, 0
2, 283308, Note_on_c, 0, 74, 0
2, 283308, Note_on_c, 0, 43, 0
2, 283308, Note_on_c, 0, 65, 0
2, 283316, Note_on_c, 0, 59, 0
2, 283384, Note_on_c, 0, 74, 67
2, 283384, Note_on_c, 0, 65, 43
2, 283388, Note_on_c, 0, 67, 43
2, 283388, Note_on_c, 0, 43, 45
2, 283396, Note_on_c, 0, 59, 35
2, 283448, Control_c, 0, 64, 72
2, 283456, Control_c, 0, 64, 24
2, 283468, Control_c, 0, 64, 0
2, 283496, Control_c, 0, 64, 104
2, 283508, Control_c, 0, 64, 127
2, 283588, Note_on_c, 0, 74, 0
2, 283592, Note_on_c, 0, 43, 0
2, 283600, Note_on_c, 0, 59, 0
2, 283620, Note_on_c, 0, 65, 0
2, 283628, Note_on_c, 0, 67, 0
2, 283836, Note_on_c, 0, 75, 70
2, 283840, Note_on_c, 0, 43, 47
2, 283844, Note_on_c, 0, 67, 51
2, 283844, Note_on_c, 0, 65, 52
2, 283844, Note_on_c, 0, 59, 41
2, 283880, Control_c, 0, 64, 72
2, 283892, Control_c, 0, 64, 0
2, 283920, Control_c, 0, 64, 56
2, 283932, Control_c, 0, 64, 127
2, 283984, Note_on_c, 0, 43, 0
2, 283996, Note_on_c, 0, 59, 0
2, 284052, Note_on_c, 0, 75, 0
2, 284108, Note_on_c, 0, 67, 0
2, 284108, Note_on_c, 0, 65, 0
2, 284136, Note_on_c, 0, 79, 69
2, 284252, Control_c, 0, 64, 56
2, 284264, Control_c, 0, 64, 0
2, 284272, Note_on_c, 0, 43, 66
2, 284292, Note_on_c, 0, 43, 0
2, 284304, Control_c, 0, 64, 72
2, 284316, Note_on_c, 0, 79, 0
2, 284316, Control_c, 0, 64, 127
2, 284376, Note_on_c, 0, 60, 64
2, 284420, Note_on_c, 0, 60, 0
2, 284424, Note_on_c, 0, 64, 61
2, 284484, Note_on_c, 0, 64, 0
2, 284488, Note_on_c, 0, 72, 62
2, 284516, Note_on_c, 0, 72, 0
2, 284520, Note_on_c, 0, 76, 74
2, 284580, Note_on_c, 0, 76, 0
2, 284584, Note_on_c, 0, 79, 83
2, 284676, Note_on_c, 0, 79, 0
2, 285048, Control_c, 0, 67, 0
2, 285104, Note_on_c, 0, 88, 81
2, 285684, Note_on_c, 0, 88, 0
2, 285688, Note_on_c, 0, 86, 74
2, 286020, Note_on_c, 0, 84, 78
2, 286024, Note_on_c, 0, 86, 0
2, 286324, Note_on_c, 0, 76, 69
2, 286328, Note_on_c, 0, 84, 0
2, 286648, Note_on_c, 0, 83, 73
2, 286652, Note_on_c, 0, 76, 0
2, 286876, Note_on_c, 0, 83, 0
2, 286888, Note_on_c, 0, 81, 69
2, 287220, Note_on_c, 0, 81, 0
2, 287336, Note_on_c, 0, 79, 66
2, 287388, Note_on_c, 0, 79, 0
2, 287444, Note_on_c, 0, 79, 54
2, 287576, Control_c, 0, 64, 104
2, 287584, Control_c, 0, 64, 72
2, 287616, Control_c, 0, 64, 127
2, 287744, Note_on_c, 0, 79, 0
2, 288120, Control_c, 0, 67, 127
2, 288172, Note_on_c, 0, 91, 74
2, 288172, Note_on_c, 0, 55, 52
2, 288172, Note_on_c, 0, 77, 52
2, 288172, Note_on_c, 0, 86, 54
2, 288172, Note_on_c, 0, 71, 48
2, 288172, Note_on_c, 0, 79, 44
2, 288220, Control_c, 0, 64, 56
2, 288232, Control_c, 0, 64, 0
2, 288252, Control_c, 0, 64, 24
2, 288260, Control_c, 0, 64, 88
2, 288272, Control_c, 0, 64, 127
2, 288328, Note_on_c, 0, 55, 0
2, 288348, Note_on_c, 0, 71, 0
2, 288360, Note_on_c, 0, 79, 0
2, 288364, Note_on_c, 0, 77, 0
2, 288364, Note_on_c, 0, 86, 0
2, 288412, Note_on_c, 0, 91, 0
2, 288588, Note_on_c, 0, 86, 64
2, 288588, Note_on_c, 0, 71, 47
2, 288588, Note_on_c, 0, 79, 46
2, 288588, Note_on_c, 0, 77, 50
2, 288588, Note_on_c, 0, 55, 34
2, 288628, Note_on_c, 0, 77, 0
2, 288628, Note_on_c, 0, 79, 0
2, 288644, Note_on_c, 0, 86, 0
2, 288644, Note_on_c, 0, 71, 0
2, 288644, Note_on_c, 0, 55, 0
2, 288732, Note_on_c, 0, 55, 37
2, 288732, Note_on_c, 0, 86, 67
2, 288732, Note_on_c, 0, 77, 50
2, 288732, Note_on_c, 0, 79, 47
2, 288732, Note_on_c, 0, 71, 42
2, 288876, Note_on_c, 0, 55, 0
2, 288880, Note_on_c, 0, 71, 0
2, 288904, Note_on_c, 0, 77, 0
2, 288908, Note_on_c, 0, 79, 0
2, 288976, Note_on_c, 0, 86, 0
2, 289164, Note_on_c, 0, 87, 63
2, 289164, Note_on_c, 0, 77, 50
2, 289164, Note_on_c, 0, 79, 47
2, 289164, Note_on_c, 0, 55, 35
2, 289164, Note_on_c, 0, 71, 39
2, 289196, Control_c, 0, 64, 88
2, 289228, Control_c, 0, 64, 127
2, 289252, Control_c, 0, 64, 88
2, 289264, Control_c, 0, 64, 40
2, 289272, Control_c, 0, 64, 0
2, 289312, Control_c, 0, 64, 24
2, 289324, Control_c, 0, 64, 72
2, 289332, Control_c, 0, 64, 127
2, 289412, Note_on_c, 0, 55, 0
2, 289432, Note_on_c, 0, 79, 0
2, 289432, Note_on_c, 0, 77, 0
2, 289440, Note_on_c, 0, 71, 0
2, 289448, Note_on_c, 0, 87, 0
2, 289544, Note_on_c, 0, 91, 76
2, 289716, Note_on_c, 0, 91, 0
2, 289832, Note_on_c, 0, 90, 63
2, 289932, Note_on_c, 0, 90, 0
2, 289956, Note_on_c, 0, 91, 74
2, 290072, Note_on_c, 0, 91, 0
2, 290080, Note_on_c, 0, 93, 77
2, 290156, Control_c, 0, 64, 0
2, 290176, Note_on_c, 0, 93, 0
2, 290184, Note_on_c, 0, 91, 74
2, 290188, Note_on_c, 0, 91, 70
2, 290288, Note_on_c, 0, 91, 0
2, 290292, Note_on_c, 0, 91, 0
2, 290292, Note_on_c, 0, 93, 66
2, 290336, Control_c, 0, 64, 24
2, 290344, Control_c, 0, 64, 56
2, 290348, Control_c, 0, 64, 72
2, 290356, Control_c, 0, 64, 88
2, 290376, Note_on_c, 0, 93, 0
2, 290384, Note_on_c, 0, 91, 69
2, 290384, Control_c, 0, 64, 104
2, 290444, Control_c, 0, 64, 127
2, 290456, Note_on_c, 0, 91, 0
2, 290456, Note_on_c, 0, 93, 69
2, 290520, Note_on_c, 0, 93, 0
2, 290524, Note_on_c, 0, 91, 66
2, 290584, Note_on_c, 0, 91, 0
2, 290588, Note_on_c, 0, 93, 61
2, 290628, Note_on_c, 0, 93, 0
2, 290640, Note_on_c, 0, 91, 58
2, 290676, Note_on_c, 0, 91, 0
2, 290680, Note_on_c, 0, 93, 56
2, 290712, Note_on_c, 0, 93, 0
2, 290728, Note_on_c, 0, 91, 55
2, 290756, Note_on_c, 0, 91, 0
2, 290764, Note_on_c, 0, 93, 69
2, 290800, Note_on_c, 0, 93, 0
2, 290812, Note_on_c, 0, 91, 52
2, 290840, Note_on_c, 0, 91, 0
2, 290848, Note_on_c, 0, 93, 50
2, 290876, Note_on_c, 0, 93, 0
2, 290892, Note_on_c, 0, 91, 55
2, 290916, Note_on_c, 0, 91, 0
2, 290924, Note_on_c, 0, 93, 61
2, 290952, Note_on_c, 0, 93, 0
2, 290968, Note_on_c, 0, 91, 59
2, 290988, Note_on_c, 0, 91, 0
2, 290996, Note_on_c, 0, 93, 52
2, 291024, Note_on_c, 0, 93, 0
2, 291036, Note_on_c, 0, 91, 54
2, 291056, Note_on_c, 0, 91, 0
2, 291060, Note_on_c, 0, 93, 45
2, 291088, Note_on_c, 0, 93, 0
2, 291100, Note_on_c, 0, 91, 44
2, 291116, Note_on_c, 0, 91, 0
2, 291120, Note_on_c, 0, 93, 50
2, 291148, Note_on_c, 0, 93, 0
2, 291160, Note_on_c, 0, 91, 38
2, 291180, Note_on_c, 0, 91, 0
2, 291184, Note_on_c, 0, 93, 50
2, 291208, Note_on_c, 0, 93, 0
2, 291216, Note_on_c, 0, 91, 38
2, 291240, Note_on_c, 0, 91, 0
2, 291244, Note_on_c, 0, 93, 46
2, 291268, Note_on_c, 0, 93, 0
2, 291276, Note_on_c, 0, 91, 39
2, 291296, Note_on_c, 0, 91, 0
2, 291300, Note_on_c, 0, 93, 48
2, 291324, Note_on_c, 0, 93, 0
2, 291332, Note_on_c, 0, 91, 40
2, 291352, Note_on_c, 0, 91, 0
2, 291360, Note_on_c, 0, 93, 48
2, 291384, Note_on_c, 0, 93, 0
2, 291392, Note_on_c, 0, 91, 40
2, 291412, Note_on_c, 0, 91, 0
2, 291416, Note_on_c, 0, 93, 50
2, 291444, Note_on_c, 0, 93, 0
2, 291456, Note_on_c, 0, 91, 35
2, 291472, Note_on_c, 0, 91, 0
2, 291476, Note_on_c, 0, 93, 51
2, 291504, Note_on_c, 0, 93, 0
2, 291512, Note_on_c, 0, 91, 43
2, 291532, Note_on_c, 0, 91, 0
2, 291540, Note_on_c, 0, 93, 48
2, 291564, Note_on_c, 0, 93, 0
2, 291576, Note_on_c, 0, 91, 48
2, 291600, Note_on_c, 0, 91, 0
2, 291608, Note_on_c, 0, 93, 59
2, 291636, Note_on_c, 0, 93, 0
2, 291648, Note_on_c, 0, 91, 60
2, 291672, Note_on_c, 0, 91, 0
2, 291680, Note_on_c, 0, 93, 57
2, 291700, Note_on_c, 0, 93, 0
2, 291708, Note_on_c, 0, 91, 48
2, 291732, Note_on_c, 0, 91, 0
2, 291740, Note_on_c, 0, 93, 58
2, 291764, Note_on_c, 0, 93, 0
2, 291772, Note_on_c, 0, 91, 52
2, 291792, Note_on_c, 0, 91, 0
2, 330272, Control_c, 0, 64, 104
2, 330280, Control_c, 0, 64, 88
2, 330284, Control_c, 0, 64, 56
2, 330292, Control_c, 0, 64, 40
2, 330300, Control_c, 0, 64, 24
2, 330308, Control_c, 0, 64, 0
2, 330308, End_track
3, 0, Start_track
3, 0, Title_t, "Piano 2"
3, 0, Program_c, 0, 0
3, 0, Control_c, 0, 7, 100
3, 0, Control_c, 0, 10, 48
3, 844, Note_on_c, 0, 63, 88
3, 844, Note_on_c, 0, 51, 88
3, 844, Control_c, 0, 64, 119
3, 860, Note_on_c, 0, 39, 72
3, 860, Control_c, 0, 64, 127
3, 928, Note_on_c, 0, 51, 0
3, 948, Note_on_c, 0, 39, 0
3, 1008, Note_on_c, 0, 63, 0
3, 1688, Note_on_c, 0, 62, 92
3, 1688, Note_on_c, 0, 50, 85
3, 1688, Note_on_c, 0, 38, 73
3, 1736, Note_on_c, 0, 38, 0
3, 1744, Note_on_c, 0, 50, 0
3, 1768, Note_on_c, 0, 62, 0
3, 1788, Note_on_c, 0, 63, 96
3, 1788, Note_on_c, 0, 39, 80
3, 1788, Note_on_c, 0, 51, 105
3, 1824, Note_on_c, 0, 51, 0
3, 1828, Note_on_c, 0, 39, 0
3, 1832, Control_c, 0, 64, 56
3, 1848, Note_on_c, 0, 63, 0
3, 1848, Control_c, 0, 64, 0
3, 2252, Note_on_c, 0, 62, 102
3, 2252, Note_on_c, 0, 38, 82
3, 2268, Control_c, 0, 64, 72
3, 2284, Control_c, 0, 64, 0
3, 2304, Note_on_c, 0, 38, 0
3, 2324, Note_on_c, 0, 62, 0
3, 2364, Control_c, 0, 64, 72
3, 2376, Control_c, 0, 64, 0
3, 2712, Note_on_c, 0, 63, 91
3, 2712, Note_on_c, 0, 51, 96
3, 2712, Note_on_c, 0, 39, 83
3, 2736, Control_c, 0, 64, 40
3, 2764, Control_c, 0, 64, 24
3, 2772, Note_on_c, 0, 51, 0
3, 2780, Note_on_c, 0, 39, 0
3, 2796, Control_c, 0, 64, 0
3, 2828, Note_on_c, 0, 63, 0
3, 2968, Note_on_c, 0, 62, 103
3, 2968, Note_on_c, 0, 50, 88
3, 2968, Note_on_c, 0, 38, 80
3, 3004, Note_on_c, 0, 38, 0
3, 3020, Note_on_c, 0, 50, 0
3, 3060, Note_on_c, 0, 62, 0
3, 3260, Note_on_c, 0, 61, 90
3, 3260, Note_on_c, 0, 49, 103
3, 3260, Note_on_c, 0, 37, 77
3, 3304, Note_on_c, 0, 37, 0
3, 3304, Control_c, 0, 64, 127
3, 3308, Note_on_c, 0, 49, 0
3, 3332, Note_on_c, 0, 61, 0
3, 3776, Note_on_c, 0, 91, 103
3, 3776, Note_on_c, 0, 67, 85
3, 3776, Note_on_c, 0, 87, 76
3, 3776, Note_on_c, 0, 63, 67
3, 3776, Note_on_c, 0, 61, 69
3, 3776, Note_on_c, 0, 79, 96
3, 3804, Note_on_c, 0, 87, 0
3, 3828, Note_on_c, 0, 91, 0
3, 3832, Note_on_c, 0, 63, 0
3, 3832, Note_on_c, 0, 61, 0
3, 3832, Note_on_c, 0, 79, 0
3, 3836, Note_on_c, 0, 67, 0
3, 3900, Note_on_c, 0, 91, 103
3, 3900, Note_on_c, 0, 79, 105
3, 3900, Note_on_c, 0, 87, 91
3, 3900, Note_on_c, 0, 67, 96
3, 3900, Note_on_c, 0, 61, 84
3, 3900, Note_on_c, 0, 63, 85
3, 3948, Note_on_c, 0, 63, 0
3, 3952, Note_on_c, 0, 67, 0
3, 3952, Note_on_c, 0, 61, 0
3, 3984, Note_on_c, 0, 79, 0
3, 3984, Note_on_c, 0, 87, 0
3, 4008, Note_on_c, 0, 91, 0
3, 5148, Control_c, 0, 64, 104
3, 5164, Control_c, 0, 64, 0
3, 5412, Note_on_c, 0, 61, 93
3, 5412, Note_on_c, 0, 49, 83
3, 5412, Note_on_c, 0, 37, 75
3, 5460, Control_c, 0, 64, 127
3, 5492, Note_on_c, 0, 37, 0
3, 5492, Note_on_c, 0, 49, 0
3, 5528, Note_on_c, 0, 61, 0
3, 6208, Note_on_c, 0, 60, 92
3, 6208, Note_on_c, 0, 48, 85
3, 6208, Note_on_c, 0, 36, 69
3, 6236, Note_on_c, 0, 36, 0
3, 6240, Note_on_c, 0, 48, 0
3, 6284, Note_on_c, 0, 60, 0
3, 6312, Note_on_c, 0, 61, 96
3, 6312, Note_on_c, 0, 37, 81
3, 6312, Note_on_c, 0, 49, 95
3, 6356, Note_on_c, 0, 49, 0
3, 6356, Control_c, 0, 64, 72
3, 6368, Note_on_c, 0, 37, 0
3, 6372, Control_c, 0, 64, 0
3, 6384, Note_on_c, 0, 61, 0
3, 6784, Note_on_c, 0, 60, 104
3, 6784, Note_on_c, 0, 48, 98
3, 6784, Note_on_c, 0, 36, 85
3, 6836, Note_on_c, 0, 36, 0
3, 6848, Note_on_c, 0, 48, 0
3, 6872, Note_on_c, 0, 60, 0
3, 7252, Note_on_c, 0, 61, 88
3, 7252, Note_on_c, 0, 49, 88
3, 7252, Note_on_c, 0, 37, 82
3, 7304, Note_on_c, 0, 37, 0
3, 7304, Note_on_c, 0, 49, 0
3, 7360, Note_on_c, 0, 61, 0
3, 7516, Note_on_c, 0, 60, 105
3, 7516, Note_on_c, 0, 48, 92
3, 7516, Note_on_c, 0, 36, 82
3, 7552, Note_on_c, 0, 36, 0
3, 7564, Note_on_c, 0, 48, 0
3, 7596, Note_on_c, 0, 60, 0
3, 7808, Note_on_c, 0, 59, 98
3, 7808, Note_on_c, 0, 47, 91
3, 7808, Note_on_c, 0, 35, 70
3, 7836, Note_on_c, 0, 35, 0
3, 7876, Note_on_c, 0, 47, 0
3, 7876, Control_c, 0, 64, 127
3, 7880, Note_on_c, 0, 59, 0
3, 8324, Note_on_c, 0, 56, 54
3, 8328, Note_on_c, 0, 92, 97
3, 8328, Note_on_c, 0, 68, 77
3, 8328, Note_on_c, 0, 64, 77
3, 8328, Note_on_c, 0, 88, 64
3, 8328, Note_on_c, 0, 83, 85
3, 8328, Note_on_c, 0, 59, 70
3, 8328, Note_on_c, 0, 80, 88
3, 8352, Note_on_c, 0, 88, 0
3, 8352, Note_on_c, 0, 56, 0
3, 8372, Note_on_c, 0, 83, 0
3, 8388, Note_on_c, 0, 68, 0
3, 8392, Note_on_c, 0, 59, 0
3, 8404, Note_on_c, 0, 80, 0
3, 8404, Note_on_c, 0, 64, 0
3, 8416, Note_on_c, 0, 92, 0
3, 8452, Note_on_c, 0, 92, 107
3, 8452, Note_on_c, 0, 80, 92
3, 8452, Note_on_c, 0, 64, 80
3, 8452, Note_on_c, 0, 83, 90
3, 8452, Note_on_c, 0, 68, 90
3, 8452, Note_on_c, 0, 56, 77
3, 8452, Note_on_c, 0, 59, 67
3, 8452, Note_on_c, 0, 88, 82
3, 8480, Note_on_c, 0, 88, 0
3, 8508, Note_on_c, 0, 56, 0
3, 8512, Note_on_c, 0, 68, 0
3, 8520, Note_on_c, 0, 83, 0
3, 8528, Note_on_c, 0, 80, 0
3, 8528, Note_on_c, 0, 59, 0
3, 8532, Note_on_c, 0, 64, 0
3, 8552, Note_on_c, 0, 92, 0
3, 9844, Control_c, 0, 64, 104
3, 9860, Control_c, 0, 64, 88
3, 9876, Control_c, 0, 64, 56
3, 9892, Control_c, 0, 64, 24
3, 9908, Control_c, 0, 64, 0
3, 11240, Note_on_c, 0, 46, 57
3, 11268, Control_c, 0, 64, 88
3, 11276, Note_on_c, 0, 65, 65
3, 11284, Control_c, 0, 64, 127
3, 11304, Note_on_c, 0, 46, 0
3, 11328, Note_on_c, 0, 53, 66
3, 11340, Note_on_c, 0, 70, 66
3, 11360, Note_on_c, 0, 65, 0
3, 11364, Note_on_c, 0, 56, 50
3, 11384, Note_on_c, 0, 74, 73
3, 11424, Note_on_c, 0, 70, 0
3, 11432, Note_on_c, 0, 53, 0
3, 11444, Note_on_c, 0, 62, 68
3, 11456, Note_on_c, 0, 80, 92
3, 11480, Note_on_c, 0, 74, 0
3, 11492, Note_on_c, 0, 56, 0
3, 11504, Note_on_c, 0, 62, 0
3, 11540, Note_on_c, 0, 80, 0
3, 11860, Control_c, 0, 64, 104
3, 11876, Control_c, 0, 64, 24
3, 11892, Control_c, 0, 64, 0
3, 16796, Note_on_c, 0, 46, 60
3, 16824, Control_c, 0, 64, 88
3, 16840, Note_on_c, 0, 65, 65
3, 16840, Control_c, 0, 64, 127
3, 16856, Note_on_c, 0, 46, 0
3, 16872, Note_on_c, 0, 53, 64
3, 16896, Note_on_c, 0, 56, 62
3, 16904, Note_on_c, 0, 70, 61
3, 16916, Note_on_c, 0, 65, 0
3, 16936, Note_on_c, 0, 74, 68
3, 16968, Note_on_c, 0, 70, 0
3, 17004, Note_on_c, 0, 62, 74
3, 17012, Note_on_c, 0, 53, 0
3, 17020, Note_on_c, 0, 80, 101
3, 17036, Note_on_c, 0, 74, 0
3, 17052, Note_on_c, 0, 56, 0
3, 17060, Note_on_c, 0, 62, 0
3, 17088, Note_on_c, 0, 80, 0
3, 17524, Control_c, 0, 64, 72
3, 17544, Control_c, 0, 64, 0
3, 21816, Note_on_c, 0, 80, 96
3, 21816, Note_on_c, 0, 74, 87
3, 21816, Note_on_c, 0, 68, 81
3, 21816, Note_on_c, 0, 58, 67
3, 21816, Note_on_c, 0, 53, 70
3, 21816, Note_on_c, 0, 46, 67
3, 21844, Control_c, 0, 64, 56
3, 21872, Control_c, 0, 64, 127
3, 21908, Note_on_c, 0, 53, 0
3, 21916, Note_on_c, 0, 46, 0
3, 21924, Note_on_c, 0, 58, 0
3, 21936, Note_on_c, 0, 74, 0
3, 21956, Note_on_c, 0, 68, 0
3, 21980, Note_on_c, 0, 80, 0
3, 22236, Control_c, 0, 64, 104
3, 22256, Control_c, 0, 64, 56
3, 22272, Control_c, 0, 64, 0
3, 22540, Note_on_c, 0, 80, 96
3, 22540, Note_on_c, 0, 68, 84
3, 22540, Note_on_c, 0, 74, 87
3, 22540, Note_on_c, 0, 59, 84
3, 22540, Note_on_c, 0, 53, 70
3, 22540, Note_on_c, 0, 47, 77
3, 22620, Note_on_c, 0, 47, 0
3, 22624, Note_on_c, 0, 53, 0
3, 22632, Note_on_c, 0, 59, 0
3, 22636, Note_on_c, 0, 74, 0
3, 22652, Note_on_c, 0, 68, 0
3, 22652, Control_c, 0, 64, 56
3, 22664, Note_on_c, 0, 80, 0
3, 22672, Control_c, 0, 64, 127
3, 23260, Control_c, 0, 64, 88
3, 23276, Note_on_c, 0, 35, 85
3, 23276, Control_c, 0, 64, 24
3, 23296, Control_c, 0, 64, 0
3, 23308, Note_on_c, 0, 59, 73
3, 23316, Control_c, 0, 64, 24
3, 23332, Control_c, 0, 64, 72
3, 23344, Note_on_c, 0, 47, 80
3, 23352, Control_c, 0, 64, 127
3, 23364, Note_on_c, 0, 35, 0
3, 23396, Note_on_c, 0, 59, 0
3, 23400, Note_on_c, 0, 60, 75
3, 23424, Note_on_c, 0, 47, 0
3, 23464, Note_on_c, 0, 35, 43
3, 23484, Note_on_c, 0, 33, 49
3, 23492, Note_on_c, 0, 60, 0
3, 23492, Note_on_c, 0, 59, 61
3, 23512, Note_on_c, 0, 47, 75
3, 23524, Note_on_c, 0, 33, 0
3, 23524, Note_on_c, 0, 35, 0
3, 23552, Note_on_c, 0, 59, 0
3, 23556, Note_on_c, 0, 60, 77
3, 23588, Note_on_c, 0, 47, 0
3, 23628, Note_on_c, 0, 59, 64
3, 23636, Note_on_c, 0, 60, 0
3, 23652, Note_on_c, 0, 35, 73
3, 23692, Note_on_c, 0, 35, 0
3, 23692, Note_on_c, 0, 47, 82
3, 23700, Note_on_c, 0, 59, 0
3, 23700, Note_on_c, 0, 60, 73
3, 23764, Note_on_c, 0, 60, 0
3, 23772, Note_on_c, 0, 47, 0
3, 23780, Note_on_c, 0, 59, 59
3, 23808, Note_on_c, 0, 35, 83
3, 23868, Note_on_c, 0, 60, 52
3, 23880, Note_on_c, 0, 35, 0
3, 23888, Note_on_c, 0, 59, 0
3, 23900, Note_on_c, 0, 47, 61
3, 23936, Note_on_c, 0, 60, 0
3, 23936, Note_on_c, 0, 59, 24
3, 23940, Note_on_c, 0, 47, 0
3, 23988, Note_on_c, 0, 35, 75
3, 24008, Note_on_c, 0, 59, 0
3, 24064, Note_on_c, 0, 57, 58
3, 24072, Note_on_c, 0, 35, 0
3, 24156, Note_on_c, 0, 35, 37
3, 24172, Note_on_c, 0, 59, 83
3, 24180, Note_on_c, 0, 57, 0
3, 24192, Note_on_c, 0, 35, 0
3, 24308, Note_on_c, 0, 59, 0
3, 24320, Note_on_c, 0, 60, 97
3, 24320, Note_on_c, 0, 48, 85
3, 24320, Note_on_c, 0, 36, 82
3, 24356, Control_c, 0, 64, 56
3, 24372, Control_c, 0, 64, 0
3, 24376, Note_on_c, 0, 36, 0
3, 24392, Note_on_c, 0, 48, 0
3, 24440, Note_on_c, 0, 60, 0
3, 24456, Control_c, 0, 64, 88
3, 24476, Control_c, 0, 64, 127
3, 25232, Control_c, 0, 64, 88
3, 25252, Control_c, 0, 64, 72
3, 25264, Control_c, 0, 64, 56
3, 25288, Control_c, 0, 64, 40
3, 25476, Control_c, 0, 64, 24
3, 25572, Control_c, 0, 64, 40
3, 25588, Control_c, 0, 64, 56
3, 25728, Control_c, 0, 64, 40
3, 25776, Control_c, 0, 64, 24
3, 25840, Control_c, 0, 64, 0
3, 54488, Note_on_c, 0, 58, 50
3, 54488, Note_on_c, 0, 70, 73
3, 54488, Note_on_c, 0, 34, 54
3, 54488, Note_on_c, 0, 46, 52
3, 54676, Note_on_c, 0, 70, 0
3, 54680, Note_on_c, 0, 58, 0
3, 54680, Note_on_c, 0, 34, 0
3, 54684, Note_on_c, 0, 46, 0
3, 54840, Note_on_c, 0, 70, 84
3, 54840, Note_on_c, 0, 58, 68
3, 54840, Note_on_c, 0, 34, 62
3, 54840, Note_on_c, 0, 46, 72
3, 54868, Note_on_c, 0, 46, 0
3, 54888, Note_on_c, 0, 34, 0
3, 54892, Note_on_c, 0, 58, 0
3, 54900, Note_on_c, 0, 70, 0
3, 54948, Note_on_c, 0, 70, 92
3, 54948, Note_on_c, 0, 58, 76
3, 54948, Note_on_c, 0, 34, 61
3, 54948, Note_on_c, 0, 46, 69
3, 55084, Note_on_c, 0, 46, 0
3, 55100, Note_on_c, 0, 34, 0
3, 55120, Note_on_c, 0, 58, 0
3, 55124, Note_on_c, 0, 70, 0
3, 55344, Note_on_c, 0, 70, 85
3, 55344, Note_on_c, 0, 34, 74
3, 55344, Note_on_c, 0, 46, 74
3, 55344, Note_on_c, 0, 58, 83
3, 55468, Note_on_c, 0, 34, 0
3, 55472, Note_on_c, 0, 46, 0
3, 55524, Note_on_c, 0, 70, 0
3, 55528, Note_on_c, 0, 58, 0
3, 55652, Note_on_c, 0, 70, 90
3, 55652, Note_on_c, 0, 58, 85
3, 55652, Note_on_c, 0, 46, 85
3, 55652, Note_on_c, 0, 34, 85
3, 55780, Note_on_c, 0, 58, 85
3, 55780, Note_on_c, 0, 70, 96
3, 55780, Note_on_c, 0, 46, 20
3, 55780, Note_on_c, 0, 34, 84
3, 55832, Note_on_c, 0, 34, 0
3, 55832, Note_on_c, 0, 46, 0
3, 55832, Note_on_c, 0, 70, 0
3, 55832, Note_on_c, 0, 58, 0
3, 55864, Note_on_c, 0, 34, 0
3, 55888, Note_on_c, 0, 46, 0
3, 56652, Note_on_c, 0, 70, 0
3, 56688, Note_on_c, 0, 58, 0
3, 58020, Note_on_c, 0, 63, 78
3, 58020, Note_on_c, 0, 58, 49
3, 58020, Note_on_c, 0, 55, 46
3, 58020, Note_on_c, 0, 51, 46
3, 58020, Note_on_c, 0, 39, 49
3, 58104, Control_c, 0, 64, 40
3, 58108, Note_on_c, 0, 58, 0
3, 58112, Note_on_c, 0, 55, 0
3, 58112, Control_c, 0, 64, 72
3, 58124, Control_c, 0, 64, 88
3, 58132, Control_c, 0, 64, 104
3, 58176, Control_c, 0, 64, 40
3, 58188, Control_c, 0, 64, 0
3, 58236, Note_on_c, 0, 58, 50
3, 58240, Note_on_c, 0, 55, 43
3, 58296, Note_on_c, 0, 55, 0
3, 58316, Note_on_c, 0, 58, 0
3, 58384, Note_on_c, 0, 58, 54
3, 58396, Note_on_c, 0, 55, 54
3, 58448, Note_on_c, 0, 55, 0
3, 58456, Note_on_c, 0, 58, 0
3, 58500, Control_c, 0, 64, 24
3, 58512, Control_c, 0, 64, 40
3, 58540, Note_on_c, 0, 51, 0
3, 58564, Note_on_c, 0, 58, 38
3, 58572, Note_on_c, 0, 63, 0
3, 58580, Note_on_c, 0, 55, 33
3, 58600, Control_c, 0, 64, 24
3, 58612, Control_c, 0, 64, 0
3, 58636, Note_on_c, 0, 55, 0
3, 58648, Note_on_c, 0, 58, 0
3, 58652, Note_on_c, 0, 62, 72
3, 58728, Note_on_c, 0, 63, 75
3, 58732, Note_on_c, 0, 51, 69
3, 58736, Note_on_c, 0, 62, 0
3, 58736, Note_on_c, 0, 55, 64
3, 58744, Note_on_c, 0, 58, 54
3, 58784, Note_on_c, 0, 55, 0
3, 58800, Note_on_c, 0, 58, 0
3, 58896, Note_on_c, 0, 58, 52
3, 58948, Note_on_c, 0, 58, 0
3, 58968, Note_on_c, 0, 51, 0
3, 59004, Note_on_c, 0, 63, 0
3, 59052, Note_on_c, 0, 62, 74
3, 59056, Note_on_c, 0, 50, 58
3, 59072, Note_on_c, 0, 55, 52
3, 59100, Note_on_c, 0, 55, 0
3, 59196, Note_on_c, 0, 58, 53
3, 59208, Note_on_c, 0, 55, 51
3, 59212, Control_c, 0, 64, 24
3, 59220, Note_on_c, 0, 50, 0
3, 59236, Note_on_c, 0, 55, 0
3, 59248, Note_on_c, 0, 62, 0
3, 59256, Note_on_c, 0, 58, 0
3, 59280, Control_c, 0, 64, 0
3, 59356, Note_on_c, 0, 63, 65
3, 59364, Note_on_c, 0, 51, 43
3, 59364, Note_on_c, 0, 58, 46
3, 59376, Note_on_c, 0, 55, 47
3, 59388, Control_c, 0, 64, 24
3, 59400, Control_c, 0, 64, 56
3, 59404, Note_on_c, 0, 55, 0
3, 59412, Control_c, 0, 64, 88
3, 59428, Note_on_c, 0, 51, 0
3, 59436, Note_on_c, 0, 58, 0
3, 59440, Note_on_c, 0, 63, 0
3, 59488, Control_c, 0, 64, 104
3, 59520, Note_on_c, 0, 62, 64
3, 59520, Note_on_c, 0, 50, 47
3, 59540, Note_on_c, 0, 58, 33
3, 59544, Note_on_c, 0, 55, 31
3, 59548, Note_on_c, 0, 50, 0
3, 59568, Note_on_c, 0, 55, 0
3, 59588, Note_on_c, 0, 58, 0
3, 59588, Control_c, 0, 64, 88
3, 59592, Note_on_c, 0, 62, 0
3, 59600, Control_c, 0, 64, 56
3, 59608, Control_c, 0, 64, 40
3, 59624, Control_c, 0, 64, 0
3, 59668, Note_on_c, 0, 61, 69
3, 59680, Note_on_c, 0, 39, 0
3, 59680, Note_on_c, 0, 55, 53
3, 59688, Note_on_c, 0, 49, 49
3, 59700, Note_on_c, 0, 55, 0
3, 59700, Control_c, 0, 64, 56
3, 59712, Control_c, 0, 64, 127
3, 59728, Note_on_c, 0, 49, 0
3, 59748, Note_on_c, 0, 61, 0
3, 59956, Note_on_c, 0, 58, 43
3, 59960, Note_on_c, 0, 82, 83
3, 59964, Note_on_c, 0, 70, 69
3, 59972, Note_on_c, 0, 55, 39
3, 59976, Note_on_c, 0, 79, 62
3, 59988, Note_on_c, 0, 58, 0
3, 59992, Note_on_c, 0, 70, 0
3, 59996, Note_on_c, 0, 79, 0
3, 60000, Note_on_c, 0, 55, 0
3, 60004, Note_on_c, 0, 82, 0
3, 60028, Note_on_c, 0, 82, 89
3, 60040, Note_on_c, 0, 70, 66
3, 60040, Note_on_c, 0, 79, 61
3, 60072, Note_on_c, 0, 79, 0
3, 60084, Note_on_c, 0, 70, 0
3, 60104, Note_on_c, 0, 82, 0
3, 60188, Note_on_c, 0, 58, 39
3, 60192, Note_on_c, 0, 55, 47
3, 60224, Note_on_c, 0, 55, 0
3, 60232, Note_on_c, 0, 58, 0
3, 60348, Note_on_c, 0, 55, 43
3, 60352, Note_on_c, 0, 58, 29
3, 60384, Note_on_c, 0, 58, 0
3, 60384, Note_on_c, 0, 55, 0
3, 60496, Note_on_c, 0, 58, 52
3, 60504, Note_on_c, 0, 55, 54
3, 60524, Note_on_c, 0, 55, 0
3, 60524, Note_on_c, 0, 58, 0
3, 60688, Control_c, 0, 64, 104
3, 60692, Note_on_c, 0, 61, 75
3, 60700, Control_c, 0, 64, 88
3, 60704, Note_on_c, 0, 49, 50
3, 60704, Note_on_c, 0, 55, 58
3, 60708, Note_on_c, 0, 58, 45
3, 60712, Control_c, 0, 64, 40
3, 60716, Note_on_c, 0, 39, 39
3, 60720, Control_c, 0, 64, 0
3, 60744, Note_on_c, 0, 55, 0
3, 60768, Note_on_c, 0, 58, 0
3, 60800, Control_c, 0, 64, 24
3, 60812, Control_c, 0, 64, 88
3, 60824, Control_c, 0, 64, 127
3, 60852, Note_on_c, 0, 58, 51
3, 60876, Note_on_c, 0, 55, 34
3, 60904, Note_on_c, 0, 55, 0
3, 60912, Note_on_c, 0, 58, 0
3, 61024, Note_on_c, 0, 58, 37
3, 61044, Note_on_c, 0, 55, 37
3, 61072, Note_on_c, 0, 55, 0
3, 61072, Note_on_c, 0, 58, 0
3, 61132, Note_on_c, 0, 61, 0
3, 61168, Note_on_c, 0, 58, 50
3, 61184, Note_on_c, 0, 55, 35
3, 61220, Note_on_c, 0, 55, 0
3, 61220, Note_on_c, 0, 49, 0
3, 61240, Note_on_c, 0, 58, 0
3, 61260, Note_on_c, 0, 60, 81
3, 61264, Note_on_c, 0, 48, 58
3, 61312, Note_on_c, 0, 48, 0
3, 61324, Note_on_c, 0, 60, 0
3, 61336, Note_on_c, 0, 61, 73
3, 61356, Note_on_c, 0, 49, 46
3, 61356, Note_on_c, 0, 55, 54
3, 61360, Note_on_c, 0, 58, 46
3, 61376, Control_c, 0, 64, 104
3, 61388, Note_on_c, 0, 55, 0
3, 61388, Control_c, 0, 64, 40
3, 61400, Control_c, 0, 64, 0
3, 61412, Note_on_c, 0, 58, 0
3, 61456, Control_c, 0, 64, 40
3, 61464, Control_c, 0, 64, 104
3, 61476, Control_c, 0, 64, 127
3, 61500, Note_on_c, 0, 58, 49
3, 61520, Note_on_c, 0, 55, 47
3, 61548, Note_on_c, 0, 55, 0
3, 61568, Note_on_c, 0, 58, 0
3, 61624, Note_on_c, 0, 49, 0
3, 61632, Note_on_c, 0, 61, 0
3, 61652, Note_on_c, 0, 60, 76
3, 61656, Control_c, 0, 64, 88
3, 61664, Control_c, 0, 64, 56
3, 61676, Note_on_c, 0, 48, 46
3, 61676, Control_c, 0, 64, 72
3, 61680, Note_on_c, 0, 55, 34
3, 61688, Control_c, 0, 64, 104
3, 61696, Control_c, 0, 64, 127
3, 61704, Note_on_c, 0, 55, 0
3, 61780, Note_on_c, 0, 60, 0
3, 61800, Note_on_c, 0, 58, 53
3, 61852, Note_on_c, 0, 58, 0
3, 61852, Note_on_c, 0, 48, 0
3, 61876, Note_on_c, 0, 39, 0
3, 61976, Control_c, 0, 64, 72
3, 61988, Note_on_c, 0, 61, 64
3, 61988, Control_c, 0, 64, 24
3, 62000, Control_c, 0, 64, 0
3, 62004, Note_on_c, 0, 51, 49
3, 62004, Note_on_c, 0, 56, 54
3, 62008, Note_on_c, 0, 49, 35
3, 62012, Note_on_c, 0, 39, 39
3, 62032, Control_c, 0, 64, 40
3, 62044, Control_c, 0, 64, 88
3, 62052, Control_c, 0, 64, 127
3, 62072, Note_on_c, 0, 51, 0
3, 62084, Note_on_c, 0, 56, 0
3, 62092, Note_on_c, 0, 49, 0
3, 62100, Note_on_c, 0, 61, 0
3, 62120, Control_c, 0, 64, 104
3, 62132, Control_c, 0, 64, 72
3, 62144, Control_c, 0, 64, 40
3, 62156, Control_c, 0, 64, 24
3, 62184, Note_on_c, 0, 60, 73
3, 62184, Control_c, 0, 64, 88
3, 62192, Note_on_c, 0, 48, 67
3, 62200, Note_on_c, 0, 51, 49
3, 62200, Control_c, 0, 64, 127
3, 62216, Note_on_c, 0, 56, 33
3, 62224, Note_on_c, 0, 39, 0
3, 62232, Note_on_c, 0, 48, 0
3, 62240, Note_on_c, 0, 51, 0
3, 62244, Note_on_c, 0, 56, 0
3, 62324, Note_on_c, 0, 60, 0
3, 62336, Note_on_c, 0, 39, 45
3, 62360, Note_on_c, 0, 51, 38
3, 62456, Note_on_c, 0, 56, 33
3, 62460, Note_on_c, 0, 47, 34
3, 62492, Note_on_c, 0, 59, 73
3, 62508, Control_c, 0, 64, 88
3, 62520, Control_c, 0, 64, 40
3, 62532, Control_c, 0, 64, 0
3, 62632, Control_c, 0, 64, 40
3, 62636, Note_on_c, 0, 51, 0
3, 62644, Note_on_c, 0, 56, 0
3, 62644, Control_c, 0, 64, 127
3, 62656, Note_on_c, 0, 39, 0
3, 62672, Note_on_c, 0, 59, 0
3, 62672, Note_on_c, 0, 47, 0
3, 62868, Note_on_c, 0, 83, 73
3, 62872, Note_on_c, 0, 80, 53
3, 62876, Note_on_c, 0, 71, 49
3, 62904, Note_on_c, 0, 59, 34
3, 62912, Note_on_c, 0, 71, 0
3, 62912, Note_on_c, 0, 83, 0
3, 62912, Note_on_c, 0, 80, 0
3, 62936, Note_on_c, 0, 59, 0
3, 62956, Note_on_c, 0, 83, 74
3, 62960, Note_on_c, 0, 71, 58
3, 62964, Note_on_c, 0, 80, 66
3, 63020, Note_on_c, 0, 71, 0
3, 63024, Note_on_c, 0, 59, 38
3, 63028, Note_on_c, 0, 83, 0
3, 63028, Note_on_c, 0, 56, 29
3, 63032, Note_on_c, 0, 80, 0
3, 63056, Note_on_c, 0, 59, 0
3, 63076, Note_on_c, 0, 56, 0
3, 63752, Control_c, 0, 64, 104
3, 63788, Control_c, 0, 64, 88
3, 63796, Control_c, 0, 64, 72
3, 63820, Control_c, 0, 64, 56
3, 63840, Control_c, 0, 64, 40
3, 63864, Control_c, 0, 64, 24
3, 63884, Control_c, 0, 64, 0
3, 72656, Note_on_c, 0, 56, 50
3, 72656, Note_on_c, 0, 52, 60
3, 72660, Note_on_c, 0, 64, 64
3, 72664, Note_on_c, 0, 40, 52
3, 72692, Note_on_c, 0, 59, 33
3, 72696, Control_c, 0, 64, 24
3, 72712, Control_c, 0, 64, 56
3, 72724, Control_c, 0, 64, 88
3, 72740, Control_c, 0, 64, 104
3, 72744, Note_on_c, 0, 59, 0
3, 72756, Control_c, 0, 64, 127
3, 72760, Note_on_c, 0, 56, 0
3, 72872, Note_on_c, 0, 56, 33
3, 72872, Note_on_c, 0, 59, 38
3, 72940, Note_on_c, 0, 59, 0
3, 72960, Note_on_c, 0, 56, 0
3, 73096, Note_on_c, 0, 56, 34
3, 73112, Note_on_c, 0, 59, 31
3, 73144, Note_on_c, 0, 56, 0
3, 73152, Note_on_c, 0, 59, 0
3, 73284, Note_on_c, 0, 56, 43
3, 73300, Note_on_c, 0, 59, 45
3, 73308, Note_on_c, 0, 52, 0
3, 73344, Note_on_c, 0, 64, 0
3, 73368, Note_on_c, 0, 59, 0
3, 73392, Note_on_c, 0, 56, 0
3, 73416, Note_on_c, 0, 51, 53
3, 73416, Note_on_c, 0, 63, 64
3, 73468, Note_on_c, 0, 51, 0
3, 73504, Control_c, 0, 64, 88
3, 73516, Note_on_c, 0, 63, 0
3, 73516, Control_c, 0, 64, 56
3, 73528, Note_on_c, 0, 64, 73
3, 73528, Note_on_c, 0, 52, 58
3, 73528, Note_on_c, 0, 56, 34
3, 73532, Control_c, 0, 64, 0
3, 73540, Note_on_c, 0, 59, 41
3, 73572, Note_on_c, 0, 59, 0
3, 73596, Note_on_c, 0, 56, 0
3, 73744, Note_on_c, 0, 56, 52
3, 73752, Note_on_c, 0, 59, 53
3, 73808, Note_on_c, 0, 52, 0
3, 73824, Note_on_c, 0, 59, 0
3, 73828, Note_on_c, 0, 56, 0
3, 73864, Note_on_c, 0, 64, 0
3, 73948, Note_on_c, 0, 51, 50
3, 73952, Note_on_c, 0, 63, 56
3, 73960, Note_on_c, 0, 56, 39
3, 74028, Note_on_c, 0, 56, 0
3, 74092, Note_on_c, 0, 63, 0
3, 74156, Note_on_c, 0, 59, 51
3, 74160, Note_on_c, 0, 56, 38
3, 74224, Note_on_c, 0, 56, 0
3, 74228, Note_on_c, 0, 51, 0
3, 74240, Note_on_c, 0, 59, 0
3, 74364, Note_on_c, 0, 64, 64
3, 74364, Note_on_c, 0, 52, 50
3, 74368, Note_on_c, 0, 56, 42
3, 74372, Control_c, 0, 64, 40
3, 74384, Note_on_c, 0, 59, 39
3, 74388, Control_c, 0, 64, 72
3, 74400, Control_c, 0, 64, 88
3, 74408, Note_on_c, 0, 52, 0
3, 74440, Note_on_c, 0, 56, 0
3, 74440, Note_on_c, 0, 59, 0
3, 74440, Note_on_c, 0, 64, 0
3, 74544, Control_c, 0, 64, 104
3, 74548, Note_on_c, 0, 51, 58
3, 74552, Note_on_c, 0, 63, 59
3, 74556, Control_c, 0, 64, 127
3, 74572, Note_on_c, 0, 56, 34
3, 74628, Note_on_c, 0, 56, 0
3, 74628, Note_on_c, 0, 51, 0
3, 74648, Note_on_c, 0, 63, 0
3, 74668, Control_c, 0, 64, 104
3, 74684, Control_c, 0, 64, 72
3, 74696, Control_c, 0, 64, 24
3, 74716, Control_c, 0, 64, 0
3, 74756, Note_on_c, 0, 56, 54
3, 74768, Note_on_c, 0, 62, 68
3, 74784, Note_on_c, 0, 50, 57
3, 74784, Control_c, 0, 64, 40
3, 74800, Note_on_c, 0, 56, 0
3, 74800, Control_c, 0, 64, 104
3, 74804, Note_on_c, 0, 40, 0
3, 74812, Control_c, 0, 64, 127
3, 74820, Note_on_c, 0, 50, 0
3, 74840, Note_on_c, 0, 62, 0
3, 75124, Note_on_c, 0, 83, 82
3, 75128, Note_on_c, 0, 80, 68
3, 75132, Note_on_c, 0, 71, 50
3, 75160, Note_on_c, 0, 80, 0
3, 75168, Note_on_c, 0, 71, 0
3, 75180, Note_on_c, 0, 83, 0
3, 75220, Note_on_c, 0, 71, 62
3, 75220, Note_on_c, 0, 83, 80
3, 75232, Note_on_c, 0, 80, 67
3, 75232, Note_on_c, 0, 56, 43
3, 75252, Note_on_c, 0, 59, 34
3, 75276, Note_on_c, 0, 71, 0
3, 75284, Note_on_c, 0, 80, 0
3, 75288, Note_on_c, 0, 83, 0
3, 75296, Note_on_c, 0, 59, 0
3, 75304, Note_on_c, 0, 56, 0
3, 75452, Note_on_c, 0, 59, 43
3, 75456, Note_on_c, 0, 56, 36
3, 75504, Note_on_c, 0, 56, 0
3, 75512, Note_on_c, 0, 59, 0
3, 75664, Note_on_c, 0, 56, 38
3, 75676, Note_on_c, 0, 59, 41
3, 75732, Note_on_c, 0, 59, 0
3, 75736, Note_on_c, 0, 56, 0
3, 75856, Note_on_c, 0, 56, 53
3, 75884, Note_on_c, 0, 56, 0
3, 76108, Note_on_c, 0, 62, 73
3, 76116, Note_on_c, 0, 59, 54
3, 76120, Control_c, 0, 64, 88
3, 76132, Note_on_c, 0, 50, 53
3, 76132, Note_on_c, 0, 40, 47
3, 76132, Note_on_c, 0, 56, 42
3, 76132, Control_c, 0, 64, 0
3, 76200, Note_on_c, 0, 59, 0
3, 76216, Note_on_c, 0, 56, 0
3, 76248, Control_c, 0, 64, 56
3, 76260, Control_c, 0, 64, 104
3, 76276, Control_c, 0, 64, 127
3, 76324, Note_on_c, 0, 59, 38
3, 76344, Note_on_c, 0, 56, 29
3, 76392, Note_on_c, 0, 56, 0
3, 76404, Note_on_c, 0, 59, 0
3, 76516, Note_on_c, 0, 59, 46
3, 76608, Note_on_c, 0, 59, 0
3, 76712, Note_on_c, 0, 59, 31
3, 76716, Note_on_c, 0, 56, 33
3, 76764, Note_on_c, 0, 56, 0
3, 76780, Note_on_c, 0, 59, 0
3, 76796, Note_on_c, 0, 62, 0
3, 76836, Note_on_c, 0, 50, 0
3, 76840, Note_on_c, 0, 61, 67
3, 76844, Note_on_c, 0, 49, 62
3, 76924, Note_on_c, 0, 49, 0
3, 76936, Note_on_c, 0, 62, 85
3, 76940, Note_on_c, 0, 61, 0
3, 76944, Note_on_c, 0, 59, 24
3, 76944, Control_c, 0, 64, 72
3, 76952, Note_on_c, 0, 50, 67
3, 76956, Control_c, 0, 64, 0
3, 76964, Note_on_c, 0, 56, 46
3, 77016, Note_on_c, 0, 56, 0
3, 77020, Note_on_c, 0, 59, 0
3, 77056, Control_c, 0, 64, 40
3, 77072, Control_c, 0, 64, 72
3, 77088, Control_c, 0, 64, 104
3, 77100, Control_c, 0, 64, 127
3, 77160, Note_on_c, 0, 59, 43
3, 77164, Note_on_c, 0, 56, 39
3, 77228, Note_on_c, 0, 56, 0
3, 77244, Note_on_c, 0, 62, 0
3, 77248, Note_on_c, 0, 59, 0
3, 77324, Control_c, 0, 64, 72
3, 77340, Control_c, 0, 64, 24
3, 77352, Note_on_c, 0, 61, 65
3, 77356, Control_c, 0, 64, 0
3, 77360, Note_on_c, 0, 49, 59
3, 77396, Note_on_c, 0, 50, 0
3, 77428, Control_c, 0, 64, 24
3, 77440, Control_c, 0, 64, 56
3, 77456, Control_c, 0, 64, 104
3, 77468, Control_c, 0, 64, 127
3, 77492, Note_on_c, 0, 61, 0
3, 77580, Note_on_c, 0, 59, 49
3, 77592, Note_on_c, 0, 56, 33
3, 77604, Note_on_c, 0, 40, 0
3, 77640, Note_on_c, 0, 56, 0
3, 77656, Note_on_c, 0, 59, 0
3, 77684, Note_on_c, 0, 41, 52
3, 77700, Note_on_c, 0, 49, 0
3, 77740, Control_c, 0, 64, 104
3, 77752, Control_c, 0, 64, 88
3, 77768, Control_c, 0, 64, 56
3, 77780, Control_c, 0, 64, 24
3, 77796, Control_c, 0, 64, 0
3, 77800, Note_on_c, 0, 62, 67
3, 77812, Note_on_c, 0, 50, 50
3, 77820, Note_on_c, 0, 57, 47
3, 77824, Note_on_c, 0, 53, 45
3, 77912, Note_on_c, 0, 57, 0
3, 77944, Note_on_c, 0, 53, 0
3, 77992, Control_c, 0, 64, 24
3, 78004, Note_on_c, 0, 62, 0
3, 78008, Control_c, 0, 64, 40
3, 78020, Control_c, 0, 64, 72
3, 78036, Control_c, 0, 64, 88
3, 78040, Note_on_c, 0, 61, 61
3, 78052, Note_on_c, 0, 49, 54
3, 78052, Control_c, 0, 64, 104
3, 78056, Note_on_c, 0, 50, 0
3, 78056, Note_on_c, 0, 53, 38
3, 78076, Note_on_c, 0, 57, 35
3, 78080, Control_c, 0, 64, 127
3, 78116, Note_on_c, 0, 57, 0
3, 78116, Note_on_c, 0, 53, 0
3, 78128, Note_on_c, 0, 61, 0
3, 78148, Note_on_c, 0, 49, 0
3, 78252, Note_on_c, 0, 41, 64
3, 78336, Note_on_c, 0, 41, 0
3, 78340, Note_on_c, 0, 48, 58
3, 78380, Note_on_c, 0, 53, 62
3, 78452, Note_on_c, 0, 53, 0
3, 78452, Note_on_c, 0, 57, 62
3, 78564, Note_on_c, 0, 60, 68
3, 78792, Note_on_c, 0, 57, 0
3, 78800, Control_c, 0, 64, 127
3, 78820, Note_on_c, 0, 41, 0
3, 78824, Note_on_c, 0, 60, 0
3, 78852, Note_on_c, 0, 48, 0
3, 78936, Note_on_c, 0, 84, 75
3, 78936, Note_on_c, 0, 81, 69
3, 78936, Note_on_c, 0, 72, 69
3, 79036, Note_on_c, 0, 84, 75
3, 79036, Note_on_c, 0, 81, 68
3, 79036, Note_on_c, 0, 72, 68
3, 79080, Note_on_c, 0, 72, 0
3, 79092, Note_on_c, 0, 81, 0
3, 79108, Note_on_c, 0, 84, 0
3, 79192, Note_on_c, 0, 84, 0
3, 79192, Note_on_c, 0, 72, 0
3, 79192, Note_on_c, 0, 81, 0
3, 79808, Control_c, 0, 64, 104
3, 79820, Control_c, 0, 64, 72
3, 79828, Control_c, 0, 64, 40
3, 79840, Control_c, 0, 64, 0
3, 100092, Note_on_c, 0, 56, 75
3, 100808, Control_c, 0, 64, 40
3, 100820, Control_c, 0, 64, 56
3, 100828, Control_c, 0, 64, 88
3, 100840, Control_c, 0, 64, 104
3, 100876, Control_c, 0, 64, 127
3, 100920, Note_on_c, 0, 56, 0
3, 101136, Note_on_c, 0, 61, 80
3, 101196, Control_c, 0, 64, 104
3, 101208, Control_c, 0, 64, 56
3, 101216, Control_c, 0, 64, 24
3, 101224, Control_c, 0, 64, 0
3, 101252, Control_c, 0, 64, 56
3, 101260, Control_c, 0, 64, 88
3, 101272, Control_c, 0, 64, 127
3, 101368, Note_on_c, 0, 61, 0
3, 101384, Control_c, 0, 64, 88
3, 101396, Control_c, 0, 64, 40
3, 101404, Note_on_c, 0, 65, 83
3, 101404, Control_c, 0, 64, 0
3, 101444, Control_c, 0, 64, 24
3, 101452, Control_c, 0, 64, 56
3, 101460, Control_c, 0, 64, 72
3, 101472, Control_c, 0, 64, 104
3, 101528, Control_c, 0, 64, 127
3, 101604, Note_on_c, 0, 65, 0
3, 101624, Note_on_c, 0, 68, 85
3, 101640, Control_c, 0, 64, 88
3, 101648, Control_c, 0, 64, 72
3, 101660, Control_c, 0, 64, 24
3, 101668, Control_c, 0, 64, 0
3, 101772, Control_c, 0, 64, 24
3, 101780, Control_c, 0, 64, 72
3, 101792, Control_c, 0, 64, 104
3, 101800, Control_c, 0, 64, 127
3, 101860, Note_on_c, 0, 73, 89
3, 101868, Note_on_c, 0, 68, 0
3, 101916, Note_on_c, 0, 73, 0
3, 102084, Note_on_c, 0, 77, 93
3, 102320, Note_on_c, 0, 80, 100
3, 102336, Note_on_c, 0, 77, 0
3, 102404, Note_on_c, 0, 80, 0
3, 102620, Note_on_c, 0, 80, 102
3, 102712, Control_c, 0, 64, 104
3, 102724, Control_c, 0, 64, 56
3, 102732, Control_c, 0, 64, 0
3, 102876, Control_c, 0, 64, 24
3, 102884, Control_c, 0, 64, 72
3, 102892, Control_c, 0, 64, 127
3, 103360, Note_on_c, 0, 80, 0
3, 103584, Note_on_c, 0, 79, 92
3, 103728, Control_c, 0, 64, 104
3, 103740, Control_c, 0, 64, 40
3, 103748, Control_c, 0, 64, 0
3, 103804, Control_c, 0, 64, 40
3, 103816, Control_c, 0, 64, 88
3, 103824, Control_c, 0, 64, 127
3, 104092, Note_on_c, 0, 79, 0
3, 104096, Note_on_c, 0, 74, 83
3, 104204, Control_c, 0, 64, 56
3, 104212, Control_c, 0, 64, 0
3, 104240, Control_c, 0, 64, 24
3, 104248, Control_c, 0, 64, 72
3, 104260, Control_c, 0, 64, 127
3, 104592, Note_on_c, 0, 77, 94
3, 104636, Note_on_c, 0, 74, 0
3, 104728, Control_c, 0, 64, 88
3, 104736, Control_c, 0, 64, 24
3, 104748, Control_c, 0, 64, 0
3, 104820, Control_c, 0, 64, 40
3, 104832, Control_c, 0, 64, 104
3, 104844, Control_c, 0, 64, 127
3, 105092, Note_on_c, 0, 75, 80
3, 105096, Note_on_c, 0, 77, 0
3, 105248, Control_c, 0, 64, 88
3, 105256, Control_c, 0, 64, 40
3, 105264, Control_c, 0, 64, 0
3, 105792, Note_on_c, 0, 75, 0
3, 119368, Note_on_c, 0, 79, 88
3, 119804, Note_on_c, 0, 77, 80
3, 119812, Note_on_c, 0, 79, 0
3, 119944, Control_c, 0, 64, 24
3, 119956, Control_c, 0, 64, 40
3, 119964, Control_c, 0, 64, 56
3, 119976, Control_c, 0, 64, 72
3, 119984, Control_c, 0, 64, 88
3, 120056, Control_c, 0, 64, 104
3, 120136, Note_on_c, 0, 75, 80
3, 120160, Note_on_c, 0, 77, 0
3, 120216, Note_on_c, 0, 75, 0
3, 120220, Note_on_c, 0, 74, 88
3, 120236, Control_c, 0, 64, 88
3, 120248, Control_c, 0, 64, 72
3, 120256, Control_c, 0, 64, 56
3, 120268, Control_c, 0, 64, 40
3, 120276, Control_c, 0, 64, 0
3, 120376, Control_c, 0, 64, 40
3, 120384, Control_c, 0, 64, 72
3, 120396, Control_c, 0, 64, 88
3, 120404, Control_c, 0, 64, 104
3, 120432, Control_c, 0, 64, 127
3, 120540, Note_on_c, 0, 72, 79
3, 120560, Note_on_c, 0, 74, 0
3, 120592, Note_on_c, 0, 72, 0
3, 120660, Note_on_c, 0, 72, 83
3, 120672, Control_c, 0, 64, 88
3, 120688, Control_c, 0, 64, 72
3, 120696, Control_c, 0, 64, 40
3, 120708, Control_c, 0, 64, 24
3, 120716, Control_c, 0, 64, 0
3, 120980, Control_c, 0, 64, 24
3, 120992, Control_c, 0, 64, 40
3, 121028, Control_c, 0, 64, 56
3, 121052, Note_on_c, 0, 71, 80
3, 121056, Note_on_c, 0, 72, 0
3, 121076, Control_c, 0, 64, 24
3, 121084, Control_c, 0, 64, 0
3, 121184, Control_c, 0, 64, 40
3, 121188, Control_c, 0, 64, 56
3, 121200, Control_c, 0, 64, 72
3, 121220, Control_c, 0, 64, 88
3, 121352, Note_on_c, 0, 72, 90
3, 121360, Note_on_c, 0, 71, 0
3, 121484, Note_on_c, 0, 75, 84
3, 121496, Note_on_c, 0, 72, 0
3, 121504, Control_c, 0, 64, 56
3, 121512, Control_c, 0, 64, 40
3, 121524, Control_c, 0, 64, 0
3, 121676, Control_c, 0, 64, 40
3, 121688, Control_c, 0, 64, 72
3, 121696, Control_c, 0, 64, 104
3, 121708, Control_c, 0, 64, 127
3, 121884, Note_on_c, 0, 76, 88
3, 121924, Note_on_c, 0, 75, 0
3, 121936, Control_c, 0, 64, 104
3, 121944, Control_c, 0, 64, 88
3, 121952, Control_c, 0, 64, 72
3, 121964, Control_c, 0, 64, 56
3, 121968, Control_c, 0, 64, 24
3, 121980, Control_c, 0, 64, 0
3, 122080, Control_c, 0, 64, 40
3, 122088, Control_c, 0, 64, 88
3, 122100, Control_c, 0, 64, 127
3, 122212, Note_on_c, 0, 74, 79
3, 122244, Note_on_c, 0, 76, 0
3, 122320, Note_on_c, 0, 73, 74
3, 122352, Note_on_c, 0, 74, 0
3, 122440, Control_c, 0, 64, 88
3, 122448, Control_c, 0, 64, 56
3, 122456, Control_c, 0, 64, 0
3, 122744, Note_on_c, 0, 73, 0
3, 126212, Note_on_c, 0, 85, 88
3, 126616, Note_on_c, 0, 83, 83
3, 126644, Note_on_c, 0, 85, 0
3, 126944, Note_on_c, 0, 81, 80
3, 126952, Note_on_c, 0, 83, 0
3, 127020, Note_on_c, 0, 80, 88
3, 127028, Note_on_c, 0, 81, 0
3, 127332, Note_on_c, 0, 78, 82
3, 127344, Note_on_c, 0, 80, 0
3, 127396, Note_on_c, 0, 78, 0
3, 127440, Note_on_c, 0, 78, 84
3, 127860, Note_on_c, 0, 75, 79
3, 127872, Note_on_c, 0, 78, 0
3, 128152, Note_on_c, 0, 75, 0
3, 128268, Note_on_c, 0, 79, 88
3, 128920, Note_on_c, 0, 77, 88
3, 128924, Note_on_c, 0, 79, 0
3, 129172, Note_on_c, 0, 80, 84
3, 129184, Note_on_c, 0, 77, 0
3, 129880, Note_on_c, 0, 80, 0
3, 130028, Note_on_c, 0, 81, 85
3, 130136, Control_c, 0, 64, 56
3, 130144, Control_c, 0, 64, 88
3, 130156, Control_c, 0, 64, 127
3, 130228, Control_c, 0, 64, 104
3, 130236, Control_c, 0, 64, 88
3, 130312, Control_c, 0, 64, 72
3, 130344, Control_c, 0, 64, 88
3, 130356, Control_c, 0, 64, 127
3, 130464, Control_c, 0, 64, 88
3, 130476, Control_c, 0, 64, 40
3, 130484, Control_c, 0, 64, 0
3, 130532, Note_on_c, 0, 81, 0
3, 130540, Control_c, 0, 64, 24
3, 130548, Control_c, 0, 64, 56
3, 130556, Control_c, 0, 64, 72
3, 130860, Note_on_c, 0, 83, 88
3, 131720, Note_on_c, 0, 83, 0
3, 131836, Note_on_c, 0, 81, 13
3, 132076, Note_on_c, 0, 80, 88
3, 132100, Note_on_c, 0, 81, 0
3, 132272, Note_on_c, 0, 78, 91
3, 132304, Note_on_c, 0, 80, 0
3, 132516, Note_on_c, 0, 78, 0
3, 132552, Note_on_c, 0, 77, 91
3, 133224, Note_on_c, 0, 77, 0
3, 133724, Note_on_c, 0, 65, 79
3, 133844, Control_c, 0, 64, 24
3, 133852, Control_c, 0, 64, 56
3, 133860, Control_c, 0, 64, 72
3, 133868, Control_c, 0, 64, 88
3, 133876, Control_c, 0, 64, 104
3, 133888, Control_c, 0, 64, 127
3, 134124, Note_on_c, 0, 65, 0
3, 134148, Note_on_c, 0, 66, 79
3, 134152, Control_c, 0, 64, 72
3, 134160, Control_c, 0, 64, 0
3, 134264, Control_c, 0, 64, 24
3, 134272, Control_c, 0, 64, 56
3, 134280, Control_c, 0, 64, 72
3, 134288, Control_c, 0, 64, 88
3, 134296, Control_c, 0, 64, 127
3, 134528, Control_c, 0, 64, 104
3, 134532, Note_on_c, 0, 63, 81
3, 134536, Control_c, 0, 64, 72
3, 134544, Control_c, 0, 64, 24
3, 134552, Control_c, 0, 64, 0
3, 134596, Note_on_c, 0, 66, 0
3, 134608, Control_c, 0, 64, 24
3, 134616, Control_c, 0, 64, 72
3, 134624, Control_c, 0, 64, 127
3, 134768, Note_on_c, 0, 63, 0
3, 134800, Note_on_c, 0, 60, 79
3, 134904, Note_on_c, 0, 60, 0
3, 134908, Note_on_c, 0, 56, 72
3, 134944, Control_c, 0, 64, 88
3, 134952, Control_c, 0, 64, 40
3, 134960, Control_c, 0, 64, 0
3, 135008, Control_c, 0, 64, 40
3, 135016, Control_c, 0, 64, 88
3, 135024, Control_c, 0, 64, 127
3, 135200, Note_on_c, 0, 56, 0
3, 135268, Note_on_c, 0, 56, 72
3, 135328, Control_c, 0, 64, 104
3, 135336, Control_c, 0, 64, 56
3, 135344, Control_c, 0, 64, 0
3, 135448, Control_c, 0, 64, 56
3, 135456, Control_c, 0, 64, 104
3, 135464, Control_c, 0, 64, 127
3, 135624, Note_on_c, 0, 56, 0
3, 135848, Control_c, 0, 64, 88
3, 135856, Control_c, 0, 64, 72
3, 135864, Control_c, 0, 64, 40
3, 135872, Control_c, 0, 64, 0
3, 135912, Control_c, 0, 64, 40
3, 135920, Control_c, 0, 64, 72
3, 135928, Control_c, 0, 64, 104
3, 135936, Control_c, 0, 64, 127
3, 135988, Note_on_c, 0, 77, 92
3, 135996, Note_on_c, 0, 65, 66
3, 136000, Control_c, 0, 64, 104
3, 136008, Control_c, 0, 64, 72
3, 136016, Control_c, 0, 64, 40
3, 136024, Control_c, 0, 64, 0
3, 136080, Control_c, 0, 64, 24
3, 136088, Control_c, 0, 64, 56
3, 136096, Control_c, 0, 64, 88
3, 136104, Control_c, 0, 64, 127
3, 136240, Control_c, 0, 64, 88
3, 136248, Control_c, 0, 64, 56
3, 136256, Control_c, 0, 64, 24
3, 136280, Control_c, 0, 64, 72
3, 136288, Control_c, 0, 64, 104
3, 136296, Control_c, 0, 64, 127
3, 136492, Note_on_c, 0, 65, 0
3, 136512, Note_on_c, 0, 77, 0
3, 136688, Note_on_c, 0, 65, 81
3, 136688, Note_on_c, 0, 77, 92
3, 136744, Control_c, 0, 64, 72
3, 136752, Control_c, 0, 64, 24
3, 136756, Control_c, 0, 64, 0
3, 136784, Control_c, 0, 64, 24
3, 136792, Control_c, 0, 64, 72
3, 136800, Control_c, 0, 64, 127
3, 136900, Note_on_c, 0, 77, 0
3, 137024, Note_on_c, 0, 65, 0
3, 137084, Note_on_c, 0, 78, 84
3, 137084, Note_on_c, 0, 66, 69
3, 137104, Control_c, 0, 64, 104
3, 137112, Control_c, 0, 64, 56
3, 137120, Control_c, 0, 64, 0
3, 137196, Control_c, 0, 64, 56
3, 137208, Control_c, 0, 64, 104
3, 137212, Control_c, 0, 64, 127
3, 137444, Note_on_c, 0, 75, 82
3, 137452, Note_on_c, 0, 63, 64
3, 137480, Note_on_c, 0, 78, 0
3, 137488, Control_c, 0, 64, 104
3, 137496, Control_c, 0, 64, 40
3, 137504, Control_c, 0, 64, 0
3, 137512, Note_on_c, 0, 66, 0
3, 137544, Control_c, 0, 64, 24
3, 137552, Control_c, 0, 64, 88
3, 137560, Control_c, 0, 64, 127
3, 137668, Note_on_c, 0, 75, 0
3, 137680, Note_on_c, 0, 63, 0
3, 137712, Note_on_c, 0, 60, 62
3, 137712, Note_on_c, 0, 72, 88
3, 137812, Note_on_c, 0, 68, 79
3, 137816, Note_on_c, 0, 60, 0
3, 137816, Note_on_c, 0, 56, 80
3, 137820, Note_on_c, 0, 72, 0
3, 137856, Control_c, 0, 64, 88
3, 137864, Control_c, 0, 64, 40
3, 137872, Control_c, 0, 64, 0
3, 137944, Control_c, 0, 64, 40
3, 137952, Control_c, 0, 64, 72
3, 137960, Control_c, 0, 64, 104
3, 137968, Control_c, 0, 64, 127
3, 138104, Note_on_c, 0, 68, 0
3, 138192, Note_on_c, 0, 56, 0
3, 138192, Note_on_c, 0, 69, 77
3, 138200, Note_on_c, 0, 57, 49
3, 138256, Control_c, 0, 64, 88
3, 138264, Control_c, 0, 64, 40
3, 138272, Control_c, 0, 64, 0
3, 138300, Note_on_c, 0, 57, 0
3, 138300, Note_on_c, 0, 69, 0
3, 139100, Note_on_c, 0, 60, 68
3, 139172, Note_on_c, 0, 60, 0
3, 139176, Note_on_c, 0, 61, 77
3, 139200, Control_c, 0, 64, 56
3, 139204, Control_c, 0, 64, 88
3, 139208, Control_c, 0, 64, 104
3, 139212, Control_c, 0, 64, 127
3, 139220, Note_on_c, 0, 61, 0
3, 139244, Control_c, 0, 64, 104
3, 139252, Control_c, 0, 64, 88
3, 139256, Control_c, 0, 64, 72
3, 139260, Control_c, 0, 64, 40
3, 139268, Control_c, 0, 64, 0
3, 139476, Note_on_c, 0, 61, 76
3, 139480, Note_on_c, 0, 37, 52
3, 139480, Note_on_c, 0, 49, 50
3, 139488, Control_c, 0, 64, 56
3, 139496, Control_c, 0, 64, 88
3, 139500, Control_c, 0, 64, 127
3, 139508, Note_on_c, 0, 49, 0
3, 139508, Note_on_c, 0, 37, 0
3, 139512, Note_on_c, 0, 61, 0
3, 139572, Control_c, 0, 64, 104
3, 139580, Control_c, 0, 64, 88
3, 139584, Control_c, 0, 64, 72
3, 139588, Control_c, 0, 64, 40
3, 139592, Control_c, 0, 64, 0
3, 139788, Note_on_c, 0, 57, 73
3, 139792, Note_on_c, 0, 54, 52
3, 139796, Note_on_c, 0, 42, 46
3, 139824, Control_c, 0, 64, 40
3, 139828, Control_c, 0, 64, 72
3, 139832, Control_c, 0, 64, 104
3, 139836, Control_c, 0, 64, 127
3, 139948, Note_on_c, 0, 57, 0
3, 140000, Note_on_c, 0, 42, 0
3, 140016, Note_on_c, 0, 54, 0
3, 140016, Control_c, 0, 64, 104
3, 140024, Control_c, 0, 64, 88
3, 140032, Control_c, 0, 64, 72
3, 140044, Control_c, 0, 64, 56
3, 140048, Control_c, 0, 64, 40
3, 140056, Control_c, 0, 64, 24
3, 140060, Control_c, 0, 64, 0
3, 140100, Note_on_c, 0, 61, 69
3, 140100, Note_on_c, 0, 54, 60
3, 140248, Note_on_c, 0, 61, 0
3, 140248, Note_on_c, 0, 66, 77
3, 140300, Note_on_c, 0, 54, 0
3, 140320, Note_on_c, 0, 53, 67
3, 140376, Note_on_c, 0, 53, 0
3, 140376, Note_on_c, 0, 66, 0
3, 140392, Note_on_c, 0, 54, 66
3, 140392, Note_on_c, 0, 69, 82
3, 140428, Note_on_c, 0, 54, 0
3, 140540, Note_on_c, 0, 73, 82
3, 140540, Note_on_c, 0, 53, 69
3, 140544, Note_on_c, 0, 69, 0
3, 140556, Note_on_c, 0, 53, 0
3, 140608, Note_on_c, 0, 56, 34
3, 140620, Note_on_c, 0, 56, 0
3, 140696, Note_on_c, 0, 78, 88
3, 140696, Note_on_c, 0, 57, 52
3, 140700, Note_on_c, 0, 61, 49
3, 140700, Note_on_c, 0, 52, 62
3, 140704, Note_on_c, 0, 73, 0
3, 140732, Note_on_c, 0, 52, 0
3, 140840, Note_on_c, 0, 51, 73
3, 140844, Note_on_c, 0, 81, 84
3, 140864, Note_on_c, 0, 57, 0
3, 140868, Note_on_c, 0, 78, 0
3, 140868, Control_c, 0, 64, 40
3, 140872, Note_on_c, 0, 51, 0
3, 140876, Note_on_c, 0, 61, 0
3, 140876, Control_c, 0, 64, 72
3, 140880, Control_c, 0, 64, 104
3, 140884, Note_on_c, 0, 81, 0
3, 140884, Control_c, 0, 64, 127
3, 140924, Control_c, 0, 64, 104
3, 140928, Control_c, 0, 64, 56
3, 140932, Control_c, 0, 64, 0
3, 140952, Note_on_c, 0, 66, 62
3, 140956, Note_on_c, 0, 50, 67
3, 140968, Control_c, 0, 64, 24
3, 140972, Note_on_c, 0, 57, 42
3, 140976, Control_c, 0, 64, 72
3, 140980, Note_on_c, 0, 66, 0
3, 140980, Control_c, 0, 64, 104
3, 140984, Note_on_c, 0, 74, 79
3, 140988, Note_on_c, 0, 50, 0
3, 140988, Control_c, 0, 64, 127
3, 141004, Note_on_c, 0, 62, 58
3, 141016, Note_on_c, 0, 81, 91
3, 141028, Note_on_c, 0, 62, 0
3, 141028, Note_on_c, 0, 57, 0
3, 141028, Note_on_c, 0, 74, 0
3, 141040, Note_on_c, 0, 81, 0
3, 141168, Control_c, 0, 64, 88
3, 141172, Control_c, 0, 64, 72
3, 141176, Control_c, 0, 64, 24
3, 141184, Control_c, 0, 64, 0
3, 141500, Note_on_c, 0, 78, 77
3, 141548, Note_on_c, 0, 78, 0
3, 141576, Note_on_c, 0, 61, 65
3, 141640, Note_on_c, 0, 61, 0
3, 141648, Note_on_c, 0, 74, 69
3, 141712, Note_on_c, 0, 74, 0
3, 141940, Note_on_c, 0, 62, 72
3, 141944, Note_on_c, 0, 50, 62
3, 141948, Note_on_c, 0, 38, 58
3, 141976, Control_c, 0, 64, 56
3, 141980, Control_c, 0, 64, 88
3, 141984, Control_c, 0, 64, 127
3, 141992, Note_on_c, 0, 38, 0
3, 141996, Note_on_c, 0, 50, 0
3, 142028, Note_on_c, 0, 62, 0
3, 142108, Control_c, 0, 64, 104
3, 142112, Control_c, 0, 64, 88
3, 142120, Control_c, 0, 64, 72
3, 142124, Control_c, 0, 64, 40
3, 142128, Control_c, 0, 64, 24
3, 142132, Control_c, 0, 64, 0
3, 142244, Note_on_c, 0, 58, 68
3, 142252, Note_on_c, 0, 55, 52
3, 142252, Note_on_c, 0, 43, 58
3, 142272, Control_c, 0, 64, 40
3, 142276, Control_c, 0, 64, 88
3, 142280, Control_c, 0, 64, 127
3, 142324, Note_on_c, 0, 58, 0
3, 142416, Note_on_c, 0, 43, 0
3, 142444, Note_on_c, 0, 55, 0
3, 142456, Control_c, 0, 64, 88
3, 142464, Control_c, 0, 64, 72
3, 142472, Control_c, 0, 64, 56
3, 142480, Control_c, 0, 64, 40
3, 142484, Control_c, 0, 64, 24
3, 142488, Control_c, 0, 64, 0
3, 142560, Note_on_c, 0, 62, 70
3, 142568, Note_on_c, 0, 55, 46
3, 142692, Note_on_c, 0, 62, 0
3, 142704, Note_on_c, 0, 67, 85
3, 142756, Note_on_c, 0, 55, 0
3, 142772, Note_on_c, 0, 54, 66
3, 142832, Note_on_c, 0, 54, 0
3, 142840, Note_on_c, 0, 70, 80
3, 142852, Note_on_c, 0, 55, 67
3, 142864, Note_on_c, 0, 55, 0
3, 142992, Note_on_c, 0, 54, 54
3, 142996, Note_on_c, 0, 70, 0
3, 143000, Note_on_c, 0, 74, 81
3, 143008, Note_on_c, 0, 54, 0
3, 143152, Note_on_c, 0, 79, 85
3, 143156, Note_on_c, 0, 67, 0
3, 143156, Note_on_c, 0, 53, 62
3, 143156, Note_on_c, 0, 62, 56
3, 143156, Note_on_c, 0, 58, 46
3, 143160, Note_on_c, 0, 74, 0
3, 143176, Control_c, 0, 64, 56
3, 143184, Control_c, 0, 64, 88
3, 143188, Note_on_c, 0, 53, 0
3, 143188, Control_c, 0, 64, 127
3, 143208, Note_on_c, 0, 79, 0
3, 143312, Note_on_c, 0, 82, 77
3, 143320, Note_on_c, 0, 52, 44
3, 143336, Note_on_c, 0, 62, 0
3, 143340, Note_on_c, 0, 52, 0
3, 143348, Note_on_c, 0, 58, 0
3, 143372, Note_on_c, 0, 82, 0
3, 143412, Note_on_c, 0, 67, 61
3, 143412, Control_c, 0, 64, 72
3, 143416, Control_c, 0, 64, 0
3, 143424, Note_on_c, 0, 51, 56
3, 143432, Note_on_c, 0, 58, 43
3, 143440, Note_on_c, 0, 75, 72
3, 143444, Note_on_c, 0, 67, 0
3, 143452, Control_c, 0, 64, 24
3, 143456, Control_c, 0, 64, 56
3, 143464, Note_on_c, 0, 63, 49
3, 143464, Control_c, 0, 64, 88
3, 143468, Control_c, 0, 64, 127
3, 143480, Note_on_c, 0, 82, 82
3, 143488, Control_c, 0, 64, 104
3, 143496, Control_c, 0, 64, 56
3, 143500, Control_c, 0, 64, 0
3, 143544, Control_c, 0, 64, 24
3, 143548, Control_c, 0, 64, 40
3, 143572, Control_c, 0, 64, 24
3, 143580, Control_c, 0, 64, 0
3, 143592, Note_on_c, 0, 58, 0
3, 143600, Control_c, 0, 64, 24
3, 143604, Control_c, 0, 64, 40
3, 143608, Note_on_c, 0, 51, 0
3, 143616, Control_c, 0, 64, 56
3, 143644, Control_c, 0, 64, 40
3, 143668, Note_on_c, 0, 63, 0
3, 143668, Control_c, 0, 64, 24
3, 143684, Control_c, 0, 64, 56
3, 143688, Note_on_c, 0, 62, 72
3, 143696, Control_c, 0, 64, 72
3, 143700, Control_c, 0, 64, 88
3, 143712, Control_c, 0, 64, 104
3, 143740, Note_on_c, 0, 62, 0
3, 143752, Control_c, 0, 64, 88
3, 143760, Note_on_c, 0, 63, 69
3, 143760, Control_c, 0, 64, 56
3, 143764, Control_c, 0, 64, 24
3, 143768, Control_c, 0, 64, 0
3, 143808, Control_c, 0, 64, 40
3, 143812, Control_c, 0, 64, 72
3, 143816, Control_c, 0, 64, 88
3, 143824, Control_c, 0, 64, 127
3, 143836, Note_on_c, 0, 82, 0
3, 143904, Control_c, 0, 64, 104
3, 143908, Control_c, 0, 64, 88
3, 143912, Control_c, 0, 64, 40
3, 143920, Note_on_c, 0, 79, 90
3, 143920, Note_on_c, 0, 61, 58
3, 143920, Control_c, 0, 64, 0
3, 143932, Note_on_c, 0, 63, 0
3, 143940, Note_on_c, 0, 75, 0
3, 143940, Control_c, 0, 64, 40
3, 143944, Control_c, 0, 64, 72
3, 143948, Control_c, 0, 64, 104
3, 143956, Control_c, 0, 64, 127
3, 143960, Note_on_c, 0, 61, 0
3, 143988, Note_on_c, 0, 79, 0
3, 144072, Note_on_c, 0, 75, 77
3, 144088, Note_on_c, 0, 59, 53
3, 144088, Note_on_c, 0, 67, 45
3, 144088, Note_on_c, 0, 47, 50
3, 144108, Control_c, 0, 64, 104
3, 144112, Control_c, 0, 64, 56
3, 144120, Control_c, 0, 64, 0
3, 144172, Control_c, 0, 64, 40
3, 144176, Control_c, 0, 64, 72
3, 144184, Control_c, 0, 64, 104
3, 144188, Control_c, 0, 64, 127
3, 144204, Note_on_c, 0, 47, 0
3, 144224, Note_on_c, 0, 67, 0
3, 144256, Note_on_c, 0, 59, 0
3, 144272, Note_on_c, 0, 58, 62
3, 144332, Note_on_c, 0, 58, 0
3, 144336, Control_c, 0, 64, 72
3, 144340, Control_c, 0, 64, 24
3, 144348, Note_on_c, 0, 59, 68
3, 144348, Control_c, 0, 64, 0
3, 144372, Control_c, 0, 64, 40
3, 144380, Control_c, 0, 64, 72
3, 144384, Control_c, 0, 64, 104
3, 144388, Control_c, 0, 64, 127
3, 144412, Note_on_c, 0, 59, 0
3, 144492, Note_on_c, 0, 57, 68
3, 144492, Note_on_c, 0, 63, 72
3, 144500, Note_on_c, 0, 75, 0
3, 144512, Note_on_c, 0, 57, 0
3, 144592, Control_c, 0, 64, 104
3, 144596, Control_c, 0, 64, 56
3, 144600, Control_c, 0, 64, 0
3, 144624, Note_on_c, 0, 63, 0
3, 144644, Note_on_c, 0, 59, 76
3, 144652, Note_on_c, 0, 56, 62
3, 144656, Note_on_c, 0, 44, 62
3, 144692, Control_c, 0, 64, 24
3, 144696, Control_c, 0, 64, 56
3, 144700, Control_c, 0, 64, 88
3, 144708, Control_c, 0, 64, 127
3, 144752, Note_on_c, 0, 44, 0
3, 144848, Note_on_c, 0, 56, 0
3, 144884, Note_on_c, 0, 55, 73
3, 144916, Note_on_c, 0, 55, 0
3, 144940, Control_c, 0, 64, 72
3, 144944, Note_on_c, 0, 63, 77
3, 144944, Control_c, 0, 64, 40
3, 144948, Note_on_c, 0, 56, 60
3, 144952, Note_on_c, 0, 59, 0
3, 144952, Control_c, 0, 64, 0
3, 144976, Note_on_c, 0, 56, 0
3, 145092, Note_on_c, 0, 54, 69
3, 145092, Control_c, 0, 64, 24
3, 145096, Note_on_c, 0, 68, 77
3, 145100, Note_on_c, 0, 63, 0
3, 145100, Control_c, 0, 64, 56
3, 145104, Control_c, 0, 64, 88
3, 145108, Control_c, 0, 64, 104
3, 145112, Note_on_c, 0, 54, 0
3, 145112, Control_c, 0, 64, 127
3, 145156, Note_on_c, 0, 68, 0
3, 145176, Note_on_c, 0, 59, 64
3, 145176, Control_c, 0, 64, 104
3, 145184, Control_c, 0, 64, 72
3, 145188, Control_c, 0, 64, 24
3, 145192, Note_on_c, 0, 64, 68
3, 145192, Control_c, 0, 64, 0
3, 145204, Note_on_c, 0, 68, 69
3, 145212, Note_on_c, 0, 40, 31
3, 145216, Note_on_c, 0, 52, 64
3, 145236, Note_on_c, 0, 71, 95
3, 145248, Note_on_c, 0, 68, 0
3, 145264, Control_c, 0, 64, 40
3, 145268, Control_c, 0, 64, 88
3, 145272, Control_c, 0, 64, 127
3, 145276, Note_on_c, 0, 64, 0
3, 145280, Note_on_c, 0, 59, 0
3, 145364, Note_on_c, 0, 40, 0
3, 145380, Note_on_c, 0, 71, 0
3, 145388, Note_on_c, 0, 64, 76
3, 145416, Note_on_c, 0, 52, 0
3, 145432, Control_c, 0, 64, 104
3, 145436, Control_c, 0, 64, 88
3, 145444, Control_c, 0, 64, 72
3, 145448, Control_c, 0, 64, 40
3, 145452, Control_c, 0, 64, 0
3, 145456, Note_on_c, 0, 51, 74
3, 145484, Note_on_c, 0, 51, 0
3, 145532, Note_on_c, 0, 68, 75
3, 145532, Note_on_c, 0, 52, 76
3, 145556, Note_on_c, 0, 52, 0
3, 145648, Note_on_c, 0, 68, 0
3, 145680, Note_on_c, 0, 71, 85
3, 145680, Note_on_c, 0, 50, 77
3, 145696, Note_on_c, 0, 64, 0
3, 145696, Control_c, 0, 64, 56
3, 145700, Control_c, 0, 64, 72
3, 145704, Note_on_c, 0, 50, 0
3, 145708, Control_c, 0, 64, 88
3, 145712, Control_c, 0, 64, 104
3, 145724, Note_on_c, 0, 71, 0
3, 145740, Control_c, 0, 64, 88
3, 145744, Control_c, 0, 64, 72
3, 145748, Control_c, 0, 64, 40
3, 145756, Control_c, 0, 64, 0
3, 145836, Note_on_c, 0, 76, 90
3, 145840, Note_on_c, 0, 64, 80
3, 145840, Note_on_c, 0, 67, 77
3, 145840, Note_on_c, 0, 72, 82
3, 145844, Note_on_c, 0, 48, 68
3, 145844, Note_on_c, 0, 36, 64
3, 145860, Control_c, 0, 64, 24
3, 145864, Control_c, 0, 64, 88
3, 145872, Control_c, 0, 64, 127
3, 145888, Note_on_c, 0, 36, 0
3, 145888, Note_on_c, 0, 48, 0
3, 145960, Note_on_c, 0, 64, 0
3, 145968, Note_on_c, 0, 67, 0
3, 145976, Note_on_c, 0, 72, 0
3, 145992, Note_on_c, 0, 76, 0
3, 146060, Note_on_c, 0, 59, 62
3, 146064, Note_on_c, 0, 47, 58
3, 146072, Note_on_c, 0, 47, 0
3, 146080, Note_on_c, 0, 59, 0
3, 146092, Control_c, 0, 64, 104
3, 146100, Control_c, 0, 64, 72
3, 146104, Control_c, 0, 64, 56
3, 146108, Control_c, 0, 64, 24
3, 146116, Control_c, 0, 64, 0
3, 146136, Note_on_c, 0, 79, 88
3, 146140, Note_on_c, 0, 67, 68
3, 146140, Note_on_c, 0, 60, 73
3, 146140, Note_on_c, 0, 72, 74
3, 146140, Note_on_c, 0, 76, 72
3, 146144, Note_on_c, 0, 48, 75
3, 146160, Note_on_c, 0, 48, 0
3, 146160, Note_on_c, 0, 60, 0
3, 146264, Control_c, 0, 64, 24
3, 146268, Control_c, 0, 64, 40
3, 146272, Control_c, 0, 64, 56
3, 146280, Control_c, 0, 64, 72
3, 146284, Control_c, 0, 64, 88
3, 146296, Note_on_c, 0, 59, 76
3, 146296, Control_c, 0, 64, 104
3, 146304, Note_on_c, 0, 47, 54
3, 146304, Control_c, 0, 64, 127
3, 146308, Note_on_c, 0, 72, 0
3, 146312, Note_on_c, 0, 67, 0
3, 146316, Note_on_c, 0, 59, 0
3, 146316, Note_on_c, 0, 47, 0
3, 146320, Note_on_c, 0, 76, 0
3, 146328, Note_on_c, 0, 79, 0
3, 146348, Control_c, 0, 64, 104
3, 146356, Control_c, 0, 64, 72
3, 146364, Control_c, 0, 64, 56
3, 146368, Control_c, 0, 64, 24
3, 146376, Control_c, 0, 64, 0
3, 146444, Note_on_c, 0, 84, 92
3, 146448, Note_on_c, 0, 72, 84
3, 146448, Note_on_c, 0, 57, 74
3, 146452, Note_on_c, 0, 76, 76
3, 146452, Note_on_c, 0, 81, 75
3, 146452, Note_on_c, 0, 45, 68
3, 146484, Control_c, 0, 64, 56
3, 146492, Control_c, 0, 64, 88
3, 146496, Control_c, 0, 64, 104
3, 146500, Control_c, 0, 64, 127
3, 146576, Note_on_c, 0, 45, 0
3, 146580, Note_on_c, 0, 57, 0
3, 146596, Note_on_c, 0, 76, 0
3, 146600, Note_on_c, 0, 72, 0
3, 146612, Note_on_c, 0, 81, 0
3, 146628, Note_on_c, 0, 84, 0
3, 146676, Note_on_c, 0, 56, 73
3, 146676, Note_on_c, 0, 44, 75
3, 146696, Note_on_c, 0, 44, 0
3, 146700, Note_on_c, 0, 56, 0
3, 146712, Control_c, 0, 64, 104
3, 146716, Control_c, 0, 64, 88
3, 146724, Control_c, 0, 64, 56
3, 146728, Control_c, 0, 64, 0
3, 146740, Note_on_c, 0, 88, 90
3, 146744, Note_on_c, 0, 76, 80
3, 146744, Note_on_c, 0, 81, 75
3, 146748, Note_on_c, 0, 84, 77
3, 146748, Note_on_c, 0, 57, 77
3, 146752, Note_on_c, 0, 45, 70
3, 146764, Control_c, 0, 64, 56
3, 146768, Note_on_c, 0, 45, 0
3, 146768, Note_on_c, 0, 57, 0
3, 146772, Control_c, 0, 64, 104
3, 146776, Control_c, 0, 64, 127
3, 146796, Note_on_c, 0, 76, 0
3, 146800, Note_on_c, 0, 81, 0
3, 146808, Note_on_c, 0, 84, 0
3, 146820, Note_on_c, 0, 88, 0
3, 146896, Note_on_c, 0, 55, 82
3, 146900, Note_on_c, 0, 43, 64
3, 146904, Control_c, 0, 64, 104
3, 146908, Control_c, 0, 64, 88
3, 146916, Control_c, 0, 64, 72
3, 146920, Note_on_c, 0, 43, 0
3, 146920, Note_on_c, 0, 55, 0
3, 146920, Control_c, 0, 64, 56
3, 146924, Control_c, 0, 64, 40
3, 146928, Control_c, 0, 64, 24
3, 146940, Control_c, 0, 64, 0
3, 147056, Note_on_c, 0, 77, 105
3, 147060, Note_on_c, 0, 53, 92
3, 147060, Note_on_c, 0, 41, 81
3, 147088, Control_c, 0, 64, 40
3, 147096, Control_c, 0, 64, 88
3, 147104, Control_c, 0, 64, 127
3, 147140, Note_on_c, 0, 77, 0
3, 147140, Note_on_c, 0, 89, 83
3, 147204, Note_on_c, 0, 77, 98
3, 147216, Note_on_c, 0, 89, 0
3, 147268, Note_on_c, 0, 77, 0
3, 147272, Note_on_c, 0, 89, 95
3, 147336, Note_on_c, 0, 89, 0
3, 147340, Note_on_c, 0, 77, 97
3, 147352, Note_on_c, 0, 53, 0
3, 147364, Note_on_c, 0, 41, 0
3, 147400, Note_on_c, 0, 77, 0
3, 147404, Note_on_c, 0, 89, 92
3, 147464, Note_on_c, 0, 77, 92
3, 147476, Note_on_c, 0, 89, 0
3, 147524, Note_on_c, 0, 77, 0
3, 147528, Note_on_c, 0, 89, 92
3, 147544, Note_on_c, 0, 52, 91
3, 147544, Note_on_c, 0, 40, 82
3, 147568, Note_on_c, 0, 40, 0
3, 147568, Note_on_c, 0, 52, 0
3, 147592, Note_on_c, 0, 89, 0
3, 147596, Note_on_c, 0, 77, 104
3, 147604, Note_on_c, 0, 53, 98
3, 147604, Control_c, 0, 64, 72
3, 147608, Note_on_c, 0, 41, 85
3, 147612, Control_c, 0, 64, 40
3, 147620, Note_on_c, 0, 41, 0
3, 147624, Control_c, 0, 64, 0
3, 147636, Note_on_c, 0, 53, 0
3, 147664, Note_on_c, 0, 77, 0
3, 147664, Note_on_c, 0, 89, 96
3, 147728, Note_on_c, 0, 89, 0
3, 147732, Note_on_c, 0, 77, 98
3, 147792, Note_on_c, 0, 77, 0
3, 147792, Note_on_c, 0, 89, 92
3, 147856, Note_on_c, 0, 89, 0
3, 147860, Note_on_c, 0, 77, 108
3, 147860, Note_on_c, 0, 52, 99
3, 147860, Note_on_c, 0, 40, 84
3, 147864, Control_c, 0, 64, 56
3, 147872, Control_c, 0, 64, 104
3, 147880, Control_c, 0, 64, 127
3, 147884, Note_on_c, 0, 40, 0
3, 147892, Note_on_c, 0, 52, 0
3, 147924, Note_on_c, 0, 77, 0
3, 147928, Note_on_c, 0, 89, 92
3, 147948, Control_c, 0, 64, 88
3, 147956, Control_c, 0, 64, 72
3, 147964, Control_c, 0, 64, 40
3, 147972, Control_c, 0, 64, 24
3, 147980, Control_c, 0, 64, 0
3, 147992, Note_on_c, 0, 89, 0
3, 147996, Note_on_c, 0, 77, 92
3, 148052, Note_on_c, 0, 77, 0
3, 148060, Note_on_c, 0, 89, 95
3, 148116, Note_on_c, 0, 89, 0
3, 148132, Note_on_c, 0, 77, 105
3, 148132, Note_on_c, 0, 53, 99
3, 148132, Control_c, 0, 64, 72
3, 148136, Note_on_c, 0, 41, 82
3, 148140, Control_c, 0, 64, 127
3, 148164, Note_on_c, 0, 41, 0
3, 148168, Note_on_c, 0, 53, 0
3, 148172, Control_c, 0, 64, 104
3, 148180, Control_c, 0, 64, 72
3, 148184, Control_c, 0, 64, 40
3, 148192, Note_on_c, 0, 77, 0
3, 148192, Control_c, 0, 64, 0
3, 148200, Note_on_c, 0, 89, 92
3, 148264, Note_on_c, 0, 89, 0
3, 148272, Note_on_c, 0, 77, 102
3, 148272, Note_on_c, 0, 52, 85
3, 148276, Note_on_c, 0, 40, 75
3, 148308, Note_on_c, 0, 52, 0
3, 148328, Note_on_c, 0, 40, 0
3, 148332, Note_on_c, 0, 77, 0
3, 148336, Note_on_c, 0, 89, 91
3, 148400, Note_on_c, 0, 89, 0
3, 148408, Note_on_c, 0, 39, 73
3, 148412, Note_on_c, 0, 51, 105
3, 148412, Note_on_c, 0, 77, 102
3, 148436, Note_on_c, 0, 51, 0
3, 148436, Note_on_c, 0, 39, 0
3, 148444, Control_c, 0, 64, 72
3, 148452, Control_c, 0, 64, 127
3, 148476, Note_on_c, 0, 77, 0
3, 148476, Note_on_c, 0, 89, 92
3, 148536, Note_on_c, 0, 89, 0
3, 148544, Note_on_c, 0, 77, 91
3, 148604, Note_on_c, 0, 77, 0
3, 148604, Note_on_c, 0, 89, 88
3, 148632, Note_on_c, 0, 65, 87
3, 148632, Note_on_c, 0, 60, 80
3, 148636, Note_on_c, 0, 57, 73
3, 148640, Note_on_c, 0, 53, 73
3, 148648, Note_on_c, 0, 57, 0
3, 148652, Note_on_c, 0, 53, 0
3, 148656, Note_on_c, 0, 65, 0
3, 148660, Note_on_c, 0, 60, 0
3, 148660, Note_on_c, 0, 89, 0
3, 148668, Note_on_c, 0, 77, 99
3, 148680, Note_on_c, 0, 65, 85
3, 148684, Note_on_c, 0, 53, 73
3, 148684, Note_on_c, 0, 60, 82
3, 148684, Note_on_c, 0, 57, 75
3, 148712, Note_on_c, 0, 60, 0
3, 148712, Note_on_c, 0, 53, 0
3, 148716, Note_on_c, 0, 57, 0
3, 148716, Note_on_c, 0, 65, 0
3, 148736, Note_on_c, 0, 77, 0
3, 148744, Note_on_c, 0, 89, 90
3, 148808, Note_on_c, 0, 89, 0
3, 148820, Note_on_c, 0, 77, 90
3, 148876, Note_on_c, 0, 77, 0
3, 148896, Note_on_c, 0, 89, 88
3, 148952, Note_on_c, 0, 89, 0
3, 148960, Note_on_c, 0, 77, 96
3, 149016, Note_on_c, 0, 77, 0
3, 149024, Note_on_c, 0, 89, 87
3, 149080, Note_on_c, 0, 89, 0
3, 149084, Note_on_c, 0, 77, 89
3, 149120, Control_c, 0, 64, 104
3, 149128, Control_c, 0, 64, 88
3, 149136, Control_c, 0, 64, 72
3, 149140, Note_on_c, 0, 77, 0
3, 149144, Control_c, 0, 64, 56
3, 149148, Note_on_c, 0, 89, 90
3, 149152, Control_c, 0, 64, 24
3, 149160, Control_c, 0, 64, 0
3, 149196, Note_on_c, 0, 89, 0
3, 149220, Note_on_c, 0, 77, 103
3, 149224, Note_on_c, 0, 51, 95
3, 149224, Note_on_c, 0, 39, 77
3, 149252, Control_c, 0, 64, 56
3, 149260, Control_c, 0, 64, 127
3, 149284, Note_on_c, 0, 77, 0
3, 149292, Note_on_c, 0, 89, 88
3, 149348, Note_on_c, 0, 89, 0
3, 149360, Note_on_c, 0, 77, 88
3, 149412, Note_on_c, 0, 77, 0
3, 149428, Note_on_c, 0, 89, 88
3, 149484, Note_on_c, 0, 89, 0
3, 149492, Note_on_c, 0, 77, 92
3, 149544, Note_on_c, 0, 77, 0
3, 149556, Note_on_c, 0, 89, 88
3, 149612, Note_on_c, 0, 89, 0
3, 149612, Note_on_c, 0, 77, 92
3, 149616, Note_on_c, 0, 39, 0
3, 149620, Note_on_c, 0, 51, 0
3, 149672, Note_on_c, 0, 77, 0
3, 149676, Note_on_c, 0, 89, 99
3, 149680, Note_on_c, 0, 50, 87
3, 149688, Note_on_c, 0, 38, 68
3, 149700, Note_on_c, 0, 38, 0
3, 149704, Note_on_c, 0, 50, 0
3, 149708, Control_c, 0, 64, 88
3, 149716, Control_c, 0, 64, 40
3, 149724, Control_c, 0, 64, 0
3, 149736, Note_on_c, 0, 89, 0
3, 149736, Note_on_c, 0, 51, 98
3, 149740, Note_on_c, 0, 77, 104
3, 149740, Note_on_c, 0, 39, 81
3, 149764, Note_on_c, 0, 39, 0
3, 149768, Note_on_c, 0, 51, 0
3, 149772, Control_c, 0, 64, 56
3, 149780, Control_c, 0, 64, 88
3, 149784, Control_c, 0, 64, 104
3, 149804, Note_on_c, 0, 77, 0
3, 149808, Note_on_c, 0, 89, 92
3, 149816, Control_c, 0, 64, 72
3, 149820, Control_c, 0, 64, 40
3, 149832, Control_c, 0, 64, 24
3, 149840, Control_c, 0, 64, 0
3, 149864, Note_on_c, 0, 89, 0
3, 149868, Note_on_c, 0, 77, 89
3, 149928, Note_on_c, 0, 77, 0
3, 149928, Note_on_c, 0, 89, 85
3, 149988, Note_on_c, 0, 89, 0
3, 149992, Note_on_c, 0, 50, 92
3, 149996, Note_on_c, 0, 77, 98
3, 149996, Note_on_c, 0, 38, 77
3, 150024, Note_on_c, 0, 38, 0
3, 150024, Note_on_c, 0, 50, 0
3, 150060, Note_on_c, 0, 77, 0
3, 150068, Note_on_c, 0, 89, 90
3, 150128, Note_on_c, 0, 89, 0
3, 150136, Note_on_c, 0, 77, 91
3, 150192, Note_on_c, 0, 77, 0
3, 150196, Note_on_c, 0, 89, 92
3, 150256, Note_on_c, 0, 89, 0
3, 150256, Note_on_c, 0, 51, 98
3, 150260, Note_on_c, 0, 39, 85
3, 150260, Note_on_c, 0, 77, 99
3, 150288, Note_on_c, 0, 39, 0
3, 150288, Note_on_c, 0, 51, 0
3, 150324, Note_on_c, 0, 77, 0
3, 150324, Note_on_c, 0, 89, 91
3, 150384, Note_on_c, 0, 89, 0
3, 150392, Note_on_c, 0, 77, 99
3, 150396, Note_on_c, 0, 50, 97
3, 150404, Note_on_c, 0, 38, 82
3, 150420, Note_on_c, 0, 38, 0
3, 150428, Note_on_c, 0, 50, 0
3, 150452, Note_on_c, 0, 77, 0
3, 150460, Note_on_c, 0, 89, 90
3, 150520, Note_on_c, 0, 89, 0
3, 150520, Note_on_c, 0, 49, 104
3, 150520, Note_on_c, 0, 37, 69
3, 150524, Note_on_c, 0, 77, 99
3, 150540, Note_on_c, 0, 37, 0
3, 150540, Control_c, 0, 64, 24
3, 150544, Note_on_c, 0, 49, 0
3, 150548, Control_c, 0, 64, 104
3, 150556, Control_c, 0, 64, 127
3, 150588, Note_on_c, 0, 77, 0
3, 150596, Note_on_c, 0, 89, 90
3, 150660, Note_on_c, 0, 89, 0
3, 150660, Note_on_c, 0, 77, 91
3, 150704, Note_on_c, 0, 68, 84
3, 150704, Note_on_c, 0, 65, 68
3, 150712, Note_on_c, 0, 61, 57
3, 150712, Note_on_c, 0, 56, 54
3, 150720, Note_on_c, 0, 77, 0
3, 150724, Note_on_c, 0, 61, 0
3, 150724, Note_on_c, 0, 56, 0
3, 150724, Note_on_c, 0, 65, 0
3, 150724, Note_on_c, 0, 89, 88
3, 150732, Note_on_c, 0, 68, 0
3, 150768, Note_on_c, 0, 68, 88
3, 150772, Note_on_c, 0, 61, 68
3, 150772, Note_on_c, 0, 56, 60
3, 150772, Note_on_c, 0, 65, 67
3, 150776, Note_on_c, 0, 89, 0
3, 150780, Note_on_c, 0, 77, 96
3, 150784, Note_on_c, 0, 65, 0
3, 150800, Note_on_c, 0, 68, 0
3, 150800, Note_on_c, 0, 61, 0
3, 150812, Note_on_c, 0, 56, 0
3, 150844, Note_on_c, 0, 77, 0
3, 150848, Note_on_c, 0, 89, 92
3, 150896, Note_on_c, 0, 89, 0
3, 150904, Note_on_c, 0, 77, 88
3, 150956, Note_on_c, 0, 77, 0
3, 150964, Note_on_c, 0, 89, 92
3, 150996, Control_c, 0, 64, 72
3, 151004, Note_on_c, 0, 89, 0
3, 151004, Control_c, 0, 64, 24
3, 151012, Control_c, 0, 64, 0
3, 151020, Control_c, 0, 64, 24
3, 151024, Note_on_c, 0, 49, 91
3, 151024, Note_on_c, 0, 77, 88
3, 151028, Note_on_c, 0, 85, 90
3, 151028, Note_on_c, 0, 37, 75
3, 151028, Control_c, 0, 64, 56
3, 151032, Note_on_c, 0, 80, 79
3, 151036, Control_c, 0, 64, 88
3, 151044, Control_c, 0, 64, 127
3, 151052, Note_on_c, 0, 37, 0
3, 151056, Note_on_c, 0, 49, 0
3, 151080, Note_on_c, 0, 80, 0
3, 151084, Note_on_c, 0, 77, 0
3, 151096, Note_on_c, 0, 85, 0
3, 151100, Note_on_c, 0, 89, 88
3, 151148, Note_on_c, 0, 89, 0
3, 151160, Note_on_c, 0, 48, 88
3, 151160, Note_on_c, 0, 77, 88
3, 151164, Note_on_c, 0, 80, 81
3, 151164, Note_on_c, 0, 36, 66
3, 151180, Note_on_c, 0, 36, 0
3, 151180, Control_c, 0, 64, 104
3, 151188, Control_c, 0, 64, 88
3, 151192, Note_on_c, 0, 48, 0
3, 151196, Control_c, 0, 64, 72
3, 151204, Control_c, 0, 64, 56
3, 151208, Note_on_c, 0, 80, 0
3, 151212, Note_on_c, 0, 77, 0
3, 151212, Control_c, 0, 64, 40
3, 151216, Control_c, 0, 64, 24
3, 151220, Note_on_c, 0, 89, 95
3, 151232, Control_c, 0, 64, 0
3, 151272, Note_on_c, 0, 89, 0
3, 151300, Note_on_c, 0, 80, 82
3, 151304, Note_on_c, 0, 77, 85
3, 151304, Note_on_c, 0, 86, 91
3, 151304, Note_on_c, 0, 47, 108
3, 151308, Note_on_c, 0, 35, 84
3, 151316, Control_c, 0, 64, 88
3, 151324, Control_c, 0, 64, 127
3, 151328, Note_on_c, 0, 35, 0
3, 151340, Note_on_c, 0, 47, 0
3, 151356, Note_on_c, 0, 80, 0
3, 151360, Note_on_c, 0, 77, 0
3, 151376, Note_on_c, 0, 89, 85
3, 151380, Note_on_c, 0, 86, 0
3, 151428, Note_on_c, 0, 89, 0
3, 151444, Note_on_c, 0, 77, 68
3, 151448, Note_on_c, 0, 80, 66
3, 151452, Note_on_c, 0, 86, 65
3, 151488, Note_on_c, 0, 80, 0
3, 151500, Note_on_c, 0, 86, 0
3, 151500, Note_on_c, 0, 77, 0
3, 151512, Note_on_c, 0, 89, 89
3, 151568, Note_on_c, 0, 89, 0
3, 151576, Note_on_c, 0, 77, 88
3, 151576, Note_on_c, 0, 80, 77
3, 151580, Note_on_c, 0, 86, 77
3, 151584, Note_on_c, 0, 59, 82
3, 151588, Note_on_c, 0, 47, 72
3, 151612, Note_on_c, 0, 47, 0
3, 151620, Note_on_c, 0, 59, 0
3, 151632, Note_on_c, 0, 77, 0
3, 151632, Note_on_c, 0, 80, 0
3, 151640, Note_on_c, 0, 89, 87
3, 151656, Note_on_c, 0, 86, 0
3, 151692, Note_on_c, 0, 89, 0
3, 151700, Note_on_c, 0, 58, 81
3, 151704, Note_on_c, 0, 77, 74
3, 151704, Note_on_c, 0, 80, 62
3, 151704, Note_on_c, 0, 86, 49
3, 151704, Note_on_c, 0, 46, 77
3, 151732, Note_on_c, 0, 58, 0
3, 151736, Note_on_c, 0, 46, 0
3, 151744, Note_on_c, 0, 86, 0
3, 151748, Note_on_c, 0, 80, 0
3, 151748, Note_on_c, 0, 89, 58
3, 151756, Note_on_c, 0, 77, 0
3, 151760, Note_on_c, 0, 88, 37
3, 151776, Note_on_c, 0, 88, 0
3, 151780, Note_on_c, 0, 89, 0
3, 151804, Control_c, 0, 64, 88
3, 151812, Control_c, 0, 64, 56
3, 151820, Control_c, 0, 64, 0
3, 151840, Note_on_c, 0, 78, 82
3, 151844, Note_on_c, 0, 87, 85
3, 151844, Note_on_c, 0, 57, 92
3, 151848, Note_on_c, 0, 84, 85
3, 151848, Note_on_c, 0, 45, 90
3, 151872, Control_c, 0, 64, 88
3, 151880, Note_on_c, 0, 45, 0
3, 151880, Control_c, 0, 64, 127
3, 151884, Note_on_c, 0, 57, 0
3, 151892, Note_on_c, 0, 78, 0
3, 151900, Note_on_c, 0, 84, 0
3, 151908, Note_on_c, 0, 87, 0
3, 151916, Note_on_c, 0, 90, 87
3, 151968, Note_on_c, 0, 78, 58
3, 151976, Note_on_c, 0, 90, 0
3, 151980, Note_on_c, 0, 87, 74
3, 151984, Note_on_c, 0, 84, 68
3, 152000, Note_on_c, 0, 84, 0
3, 152020, Note_on_c, 0, 78, 0
3, 152028, Note_on_c, 0, 87, 0
3, 152032, Note_on_c, 0, 90, 82
3, 152096, Note_on_c, 0, 90, 0
3, 152104, Note_on_c, 0, 78, 74
3, 152104, Note_on_c, 0, 87, 77
3, 152112, Note_on_c, 0, 84, 76
3, 152112, Note_on_c, 0, 45, 88
3, 152120, Note_on_c, 0, 33, 68
3, 152148, Note_on_c, 0, 45, 0
3, 152152, Note_on_c, 0, 84, 0
3, 152156, Note_on_c, 0, 33, 0
3, 152156, Note_on_c, 0, 78, 0
3, 152160, Note_on_c, 0, 87, 0
3, 152164, Note_on_c, 0, 90, 82
3, 152232, Note_on_c, 0, 78, 68
3, 152232, Note_on_c, 0, 87, 69
3, 152236, Note_on_c, 0, 44, 79
3, 152240, Note_on_c, 0, 32, 72
3, 152240, Note_on_c, 0, 84, 65
3, 152244, Note_on_c, 0, 90, 0
3, 152280, Note_on_c, 0, 32, 0
3, 152288, Note_on_c, 0, 84, 0
3, 152296, Note_on_c, 0, 78, 0
3, 152296, Note_on_c, 0, 90, 77
3, 152308, Note_on_c, 0, 87, 0
3, 152316, Note_on_c, 0, 44, 0
3, 152316, Control_c, 0, 64, 104
3, 152324, Control_c, 0, 64, 88
3, 152328, Control_c, 0, 64, 56
3, 152336, Control_c, 0, 64, 24
3, 152344, Control_c, 0, 64, 0
3, 152348, Note_on_c, 0, 90, 0
3, 152372, Note_on_c, 0, 79, 85
3, 152376, Note_on_c, 0, 43, 99
3, 152376, Note_on_c, 0, 31, 82
3, 152376, Note_on_c, 0, 82, 77
3, 152376, Note_on_c, 0, 85, 81
3, 152380, Note_on_c, 0, 88, 84
3, 152400, Note_on_c, 0, 31, 0
3, 152400, Control_c, 0, 64, 72
3, 152408, Control_c, 0, 64, 127
3, 152412, Note_on_c, 0, 43, 0
3, 152424, Note_on_c, 0, 79, 0
3, 152432, Note_on_c, 0, 82, 0
3, 152440, Note_on_c, 0, 85, 0
3, 152444, Note_on_c, 0, 88, 0
3, 152444, Note_on_c, 0, 91, 87
3, 152496, Note_on_c, 0, 91, 0
3, 152504, Note_on_c, 0, 79, 68
3, 152508, Note_on_c, 0, 82, 62
3, 152508, Note_on_c, 0, 88, 62
3, 152516, Note_on_c, 0, 85, 66
3, 152556, Note_on_c, 0, 79, 0
3, 152560, Note_on_c, 0, 82, 0
3, 152560, Note_on_c, 0, 88, 0
3, 152560, Note_on_c, 0, 85, 0
3, 152576, Note_on_c, 0, 91, 90
3, 152628, Note_on_c, 0, 91, 0
3, 152640, Note_on_c, 0, 79, 82
3, 152644, Note_on_c, 0, 82, 69
3, 152644, Note_on_c, 0, 85, 75
3, 152652, Note_on_c, 0, 55, 85
3, 152652, Note_on_c, 0, 43, 76
3, 152656, Note_on_c, 0, 88, 62
3, 152684, Note_on_c, 0, 55, 0
3, 152688, Note_on_c, 0, 43, 0
3, 152696, Note_on_c, 0, 88, 0
3, 152700, Note_on_c, 0, 79, 0
3, 152700, Note_on_c, 0, 82, 0
3, 152712, Note_on_c, 0, 85, 0
3, 152712, Note_on_c, 0, 91, 91
3, 152772, Note_on_c, 0, 79, 77
3, 152776, Note_on_c, 0, 91, 0
3, 152776, Note_on_c, 0, 85, 64
3, 152776, Note_on_c, 0, 54, 82
3, 152780, Note_on_c, 0, 82, 62
3, 152780, Note_on_c, 0, 42, 72
3, 152792, Note_on_c, 0, 88, 38
3, 152812, Note_on_c, 0, 88, 0
3, 152820, Note_on_c, 0, 42, 0
3, 152836, Note_on_c, 0, 91, 90
3, 152840, Note_on_c, 0, 79, 0
3, 152840, Note_on_c, 0, 85, 0
3, 152848, Note_on_c, 0, 82, 0
3, 152856, Note_on_c, 0, 54, 0
3, 152880, Note_on_c, 0, 91, 0
3, 152880, Control_c, 0, 64, 104
3, 152888, Control_c, 0, 64, 40
3, 152896, Control_c, 0, 64, 0
3, 152912, Note_on_c, 0, 53, 95
3, 152912, Note_on_c, 0, 41, 84
3, 152916, Note_on_c, 0, 80, 82
3, 152916, Note_on_c, 0, 83, 82
3, 152920, Note_on_c, 0, 86, 85
3, 152920, Note_on_c, 0, 89, 76
3, 152924, Control_c, 0, 64, 40
3, 152932, Control_c, 0, 64, 88
3, 152940, Control_c, 0, 64, 127
3, 152944, Note_on_c, 0, 41, 0
3, 152948, Note_on_c, 0, 53, 0
3, 152964, Note_on_c, 0, 83, 0
3, 152972, Note_on_c, 0, 80, 0
3, 152972, Note_on_c, 0, 89, 0
3, 152984, Note_on_c, 0, 92, 87
3, 153000, Note_on_c, 0, 86, 0
3, 153040, Note_on_c, 0, 86, 67
3, 153040, Note_on_c, 0, 80, 68
3, 153048, Note_on_c, 0, 92, 0
3, 153052, Note_on_c, 0, 52, 84
3, 153056, Note_on_c, 0, 40, 73
3, 153060, Note_on_c, 0, 83, 49
3, 153072, Note_on_c, 0, 89, 39
3, 153088, Note_on_c, 0, 89, 0
3, 153088, Note_on_c, 0, 52, 0
3, 153096, Note_on_c, 0, 40, 0
3, 153100, Note_on_c, 0, 83, 0
3, 153108, Note_on_c, 0, 86, 0
3, 153108, Note_on_c, 0, 92, 88
3, 153116, Note_on_c, 0, 80, 0
3, 153144, Control_c, 0, 64, 104
3, 153152, Note_on_c, 0, 92, 0
3, 153152, Control_c, 0, 64, 56
3, 153160, Control_c, 0, 64, 24
3, 153168, Control_c, 0, 64, 40
3, 153172, Note_on_c, 0, 51, 96
3, 153172, Note_on_c, 0, 39, 84
3, 153176, Note_on_c, 0, 87, 75
3, 153176, Note_on_c, 0, 84, 73
3, 153176, Control_c, 0, 64, 88
3, 153180, Note_on_c, 0, 81, 73
3, 153180, Note_on_c, 0, 90, 75
3, 153184, Control_c, 0, 64, 127
3, 153224, Note_on_c, 0, 84, 0
3, 153232, Note_on_c, 0, 81, 0
3, 153236, Note_on_c, 0, 90, 0
3, 153240, Note_on_c, 0, 87, 0
3, 153244, Note_on_c, 0, 39, 0
3, 153244, Note_on_c, 0, 93, 96
3, 153252, Note_on_c, 0, 51, 0
3, 153300, Note_on_c, 0, 93, 0
3, 153308, Note_on_c, 0, 81, 77
3, 153308, Note_on_c, 0, 87, 77
3, 153312, Note_on_c, 0, 50, 90
3, 153312, Note_on_c, 0, 84, 73
3, 153316, Note_on_c, 0, 38, 79
3, 153348, Note_on_c, 0, 38, 0
3, 153352, Note_on_c, 0, 50, 0
3, 153360, Note_on_c, 0, 84, 0
3, 153368, Note_on_c, 0, 81, 0
3, 153376, Note_on_c, 0, 93, 95
3, 153384, Note_on_c, 0, 87, 0
3, 153412, Note_on_c, 0, 93, 0
3, 153428, Control_c, 0, 64, 72
3, 153436, Control_c, 0, 64, 0
3, 153448, Note_on_c, 0, 49, 103
3, 153448, Note_on_c, 0, 82, 77
3, 153448, Note_on_c, 0, 37, 81
3, 153448, Note_on_c, 0, 85, 73
3, 153456, Note_on_c, 0, 88, 79
3, 153460, Note_on_c, 0, 91, 73
3, 153460, Control_c, 0, 64, 40
3, 153468, Control_c, 0, 64, 72
3, 153472, Control_c, 0, 64, 127
3, 153504, Note_on_c, 0, 85, 0
3, 153504, Note_on_c, 0, 82, 0
3, 153516, Note_on_c, 0, 49, 0
3, 153516, Note_on_c, 0, 94, 77
3, 153520, Note_on_c, 0, 88, 0
3, 153520, Note_on_c, 0, 91, 0
3, 153528, Note_on_c, 0, 37, 0
3, 153568, Note_on_c, 0, 48, 96
3, 153572, Note_on_c, 0, 94, 0
3, 153572, Note_on_c, 0, 36, 82
3, 153572, Note_on_c, 0, 82, 75
3, 153572, Note_on_c, 0, 88, 76
3, 153576, Note_on_c, 0, 85, 66
3, 153592, Note_on_c, 0, 36, 0
3, 153596, Note_on_c, 0, 91, 33
3, 153600, Note_on_c, 0, 48, 0
3, 153616, Note_on_c, 0, 91, 0
3, 153620, Note_on_c, 0, 85, 0
3, 153628, Note_on_c, 0, 94, 82
3, 153636, Note_on_c, 0, 82, 0
3, 153640, Note_on_c, 0, 88, 0
3, 153676, Note_on_c, 0, 94, 0
3, 153688, Control_c, 0, 64, 72
3, 153696, Control_c, 0, 64, 0
3, 153708, Note_on_c, 0, 44, 89
3, 153708, Note_on_c, 0, 47, 96
3, 153708, Note_on_c, 0, 41, 82
3, 153712, Note_on_c, 0, 92, 89
3, 153712, Note_on_c, 0, 35, 77
3, 153712, Note_on_c, 0, 83, 90
3, 153712, Note_on_c, 0, 86, 85
3, 153712, Note_on_c, 0, 59, 74
3, 153712, Note_on_c, 0, 47, 74
3, 153712, Note_on_c, 0, 35, 74
3, 153716, Note_on_c, 0, 89, 82
3, 153716, Note_on_c, 0, 34, 65
3, 153748, Note_on_c, 0, 34, 0
3, 153748, Note_on_c, 0, 35, 0
3, 153748, Note_on_c, 0, 47, 0
3, 153748, Note_on_c, 0, 59, 0
3, 153756, Control_c, 0, 64, 127
3, 153764, Note_on_c, 0, 83, 0
3, 153768, Note_on_c, 0, 86, 0
3, 153784, Note_on_c, 0, 95, 88
3, 153788, Note_on_c, 0, 92, 0
3, 153808, Note_on_c, 0, 89, 0
3, 153836, Note_on_c, 0, 95, 0
3, 153840, Note_on_c, 0, 83, 77
3, 153844, Note_on_c, 0, 89, 73
3, 153844, Note_on_c, 0, 86, 73
3, 153856, Note_on_c, 0, 92, 49
3, 153892, Note_on_c, 0, 86, 0
3, 153892, Note_on_c, 0, 35, 0
3, 153892, Note_on_c, 0, 83, 0
3, 153900, Note_on_c, 0, 89, 0
3, 153904, Note_on_c, 0, 95, 92
3, 153912, Note_on_c, 0, 92, 0
3, 153916, Note_on_c, 0, 47, 0
3, 153916, Note_on_c, 0, 41, 0
3, 153928, Note_on_c, 0, 44, 0
3, 153964, Note_on_c, 0, 83, 76
3, 153968, Note_on_c, 0, 95, 0
3, 153972, Note_on_c, 0, 89, 75
3, 153972, Note_on_c, 0, 86, 77
3, 154028, Note_on_c, 0, 86, 0
3, 154028, Note_on_c, 0, 89, 0
3, 154028, Note_on_c, 0, 83, 0
3, 154040, Note_on_c, 0, 95, 96
3, 154040, Note_on_c, 0, 92, 62
3, 154072, Note_on_c, 0, 92, 0
3, 154092, Note_on_c, 0, 95, 0
3, 154096, Note_on_c, 0, 83, 79
3, 154104, Note_on_c, 0, 89, 75
3, 154104, Note_on_c, 0, 86, 77
3, 154160, Note_on_c, 0, 83, 0
3, 154164, Note_on_c, 0, 86, 0
3, 154164, Note_on_c, 0, 95, 96
3, 154176, Note_on_c, 0, 92, 58
3, 154180, Note_on_c, 0, 89, 0
3, 154208, Note_on_c, 0, 92, 0
3, 154228, Note_on_c, 0, 95, 0
3, 154228, Note_on_c, 0, 83, 90
3, 154228, Note_on_c, 0, 68, 73
3, 154232, Note_on_c, 0, 71, 83
3, 154232, Note_on_c, 0, 86, 88
3, 154232, Note_on_c, 0, 89, 90
3, 154244, Note_on_c, 0, 59, 64
3, 154248, Note_on_c, 0, 65, 65
3, 154268, Note_on_c, 0, 65, 0
3, 154276, Note_on_c, 0, 59, 0
3, 154284, Note_on_c, 0, 83, 0
3, 154288, Note_on_c, 0, 86, 0
3, 154288, Note_on_c, 0, 68, 0
3, 154288, Note_on_c, 0, 71, 0
3, 154292, Note_on_c, 0, 89, 0
3, 154300, Note_on_c, 0, 95, 96
3, 154304, Note_on_c, 0, 92, 75
3, 154360, Note_on_c, 0, 83, 88
3, 154364, Note_on_c, 0, 95, 0
3, 154364, Note_on_c, 0, 89, 73
3, 154364, Note_on_c, 0, 86, 79
3, 154368, Note_on_c, 0, 92, 0
3, 154412, Note_on_c, 0, 83, 0
3, 154412, Note_on_c, 0, 89, 0
3, 154412, Note_on_c, 0, 86, 0
3, 154420, Note_on_c, 0, 68, 77
3, 154420, Note_on_c, 0, 71, 83
3, 154420, Note_on_c, 0, 65, 73
3, 154424, Note_on_c, 0, 95, 96
3, 154424, Note_on_c, 0, 59, 66
3, 154428, Note_on_c, 0, 92, 69
3, 154444, Note_on_c, 0, 59, 0
3, 154448, Note_on_c, 0, 71, 0
3, 154452, Note_on_c, 0, 68, 0
3, 154452, Note_on_c, 0, 65, 0
3, 154464, Note_on_c, 0, 92, 0
3, 154476, Note_on_c, 0, 95, 0
3, 154480, Note_on_c, 0, 83, 96
3, 154480, Note_on_c, 0, 68, 68
3, 154480, Note_on_c, 0, 71, 83
3, 154480, Note_on_c, 0, 65, 68
3, 154484, Note_on_c, 0, 86, 85
3, 154484, Note_on_c, 0, 89, 82
3, 154484, Note_on_c, 0, 59, 67
3, 154504, Note_on_c, 0, 59, 0
3, 154516, Note_on_c, 0, 68, 0
3, 154516, Note_on_c, 0, 71, 0
3, 154516, Note_on_c, 0, 65, 0
3, 154536, Note_on_c, 0, 83, 0
3, 154540, Note_on_c, 0, 86, 0
3, 154544, Note_on_c, 0, 89, 0
3, 154548, Note_on_c, 0, 95, 97
3, 154600, Note_on_c, 0, 83, 80
3, 154604, Note_on_c, 0, 95, 0
3, 154608, Note_on_c, 0, 86, 73
3, 154608, Note_on_c, 0, 89, 62
3, 154656, Note_on_c, 0, 83, 0
3, 154660, Note_on_c, 0, 86, 0
3, 154664, Note_on_c, 0, 95, 88
3, 154672, Note_on_c, 0, 92, 43
3, 154680, Note_on_c, 0, 89, 0
3, 154688, Note_on_c, 0, 92, 0
3, 154720, Note_on_c, 0, 95, 0
3, 154724, Note_on_c, 0, 83, 85
3, 154732, Note_on_c, 0, 89, 68
3, 154732, Note_on_c, 0, 86, 75
3, 154736, Note_on_c, 0, 68, 67
3, 154740, Note_on_c, 0, 71, 74
3, 154740, Note_on_c, 0, 65, 62
3, 154740, Note_on_c, 0, 59, 62
3, 154776, Note_on_c, 0, 65, 0
3, 154780, Note_on_c, 0, 68, 0
3, 154780, Note_on_c, 0, 71, 0
3, 154784, Note_on_c, 0, 86, 0
3, 154784, Note_on_c, 0, 59, 0
3, 154784, Note_on_c, 0, 83, 0
3, 154788, Note_on_c, 0, 95, 95
3, 154792, Note_on_c, 0, 89, 0
3, 154844, Note_on_c, 0, 83, 92
3, 154852, Note_on_c, 0, 95, 0
3, 154852, Note_on_c, 0, 89, 59
3, 154852, Note_on_c, 0, 86, 67
3, 154872, Note_on_c, 0, 89, 0
3, 154876, Note_on_c, 0, 86, 0
3, 154908, Note_on_c, 0, 83, 0
3, 154908, Note_on_c, 0, 92, 69
3, 154908, Note_on_c, 0, 89, 26
3, 154920, Note_on_c, 0, 95, 70
3, 154920, Note_on_c, 0, 71, 75
3, 154920, Note_on_c, 0, 68, 69
3, 154920, Note_on_c, 0, 65, 69
3, 154920, Note_on_c, 0, 59, 69
3, 154932, Note_on_c, 0, 89, 0
3, 154936, Note_on_c, 0, 95, 0
3, 154948, Note_on_c, 0, 92, 0
3, 154976, Note_on_c, 0, 83, 67
3, 154976, Note_on_c, 0, 68, 77
3, 154976, Note_on_c, 0, 71, 88
3, 154980, Note_on_c, 0, 65, 73
3, 154980, Note_on_c, 0, 59, 73
3, 154980, Note_on_c, 0, 95, 105
3, 154984, Note_on_c, 0, 89, 84
3, 154984, Note_on_c, 0, 86, 84
3, 154996, Note_on_c, 0, 86, 0
3, 155000, Note_on_c, 0, 71, 0
3, 155004, Note_on_c, 0, 83, 0
3, 155008, Note_on_c, 0, 68, 0
3, 155012, Note_on_c, 0, 59, 0
3, 155016, Note_on_c, 0, 95, 0
3, 155016, Note_on_c, 0, 65, 0
3, 155016, Note_on_c, 0, 89, 0
3, 155152, Control_c, 0, 64, 88
3, 155160, Control_c, 0, 64, 56
3, 155164, Control_c, 0, 64, 40
3, 155172, Control_c, 0, 64, 0
3, 155176, Note_on_c, 0, 71, 0
3, 155176, Note_on_c, 0, 65, 0
3, 155176, Note_on_c, 0, 59, 0
3, 155176, Note_on_c, 0, 68, 0
3, 155252, Note_on_c, 0, 89, 104
3, 155256, Note_on_c, 0, 77, 97
3, 155256, Note_on_c, 0, 80, 83
3, 155260, Note_on_c, 0, 83, 87
3, 155260, Note_on_c, 0, 56, 81
3, 155260, Note_on_c, 0, 86, 77
3, 155260, Control_c, 0, 64, 72
3, 155264, Note_on_c, 0, 59, 83
3, 155264, Note_on_c, 0, 53, 77
3, 155264, Control_c, 0, 64, 127
3, 155268, Note_on_c, 0, 47, 64
3, 155268, Note_on_c, 0, 46, 62
3, 155284, Note_on_c, 0, 46, 0
3, 155288, Note_on_c, 0, 47, 0
3, 155288, Note_on_c, 0, 59, 0
3, 155288, Note_on_c, 0, 77, 0
3, 155292, Note_on_c, 0, 56, 0
3, 155296, Note_on_c, 0, 53, 0
3, 155300, Note_on_c, 0, 83, 0
3, 155300, Note_on_c, 0, 86, 0
3, 155300, Note_on_c, 0, 89, 0
3, 155300, Note_on_c, 0, 80, 0
3, 155408, Control_c, 0, 64, 88
3, 155428, Control_c, 0, 64, 0
3, 155436, Note_on_c, 0, 42, 68
3, 155436, Control_c, 0, 64, 127
3, 155440, Note_on_c, 0, 49, 67
3, 155464, Note_on_c, 0, 42, 0
3, 155468, Note_on_c, 0, 49, 0
3, 155472, Note_on_c, 0, 54, 73
3, 155532, Note_on_c, 0, 54, 0
3, 155556, Note_on_c, 0, 58, 69
3, 155556, Control_c, 0, 64, 104
3, 155560, Note_on_c, 0, 90, 103
3, 155560, Note_on_c, 0, 78, 95
3, 155560, Note_on_c, 0, 85, 88
3, 155564, Note_on_c, 0, 82, 87
3, 155564, Control_c, 0, 64, 127
3, 155588, Note_on_c, 0, 58, 0
3, 155592, Note_on_c, 0, 82, 0
3, 155592, Note_on_c, 0, 78, 0
3, 155600, Note_on_c, 0, 85, 0
3, 155604, Note_on_c, 0, 90, 0
3, 156320, Note_on_c, 0, 66, 87
3, 156320, Note_on_c, 0, 54, 77
3, 156324, Note_on_c, 0, 42, 73
3, 156324, Note_on_c, 0, 58, 73
3, 156324, Note_on_c, 0, 61, 74
3, 156344, Control_c, 0, 64, 40
3, 156348, Note_on_c, 0, 54, 0
3, 156352, Note_on_c, 0, 61, 0
3, 156352, Note_on_c, 0, 42, 0
3, 156352, Control_c, 0, 64, 88
3, 156356, Note_on_c, 0, 58, 0
3, 156360, Note_on_c, 0, 66, 0
3, 156360, Control_c, 0, 64, 104
3, 156364, Control_c, 0, 64, 127
3, 156416, Control_c, 0, 64, 88
3, 156424, Control_c, 0, 64, 56
3, 156432, Control_c, 0, 64, 0
3, 156576, Note_on_c, 0, 66, 89
3, 156580, Note_on_c, 0, 62, 82
3, 156580, Note_on_c, 0, 50, 88
3, 156584, Note_on_c, 0, 57, 73
3, 156584, Note_on_c, 0, 38, 80
3, 156588, Control_c, 0, 64, 56
3, 156596, Control_c, 0, 64, 104
3, 156600, Note_on_c, 0, 38, 0
3, 156600, Control_c, 0, 64, 127
3, 156604, Note_on_c, 0, 50, 0
3, 156612, Note_on_c, 0, 57, 0
3, 156616, Note_on_c, 0, 62, 0
3, 156632, Note_on_c, 0, 66, 0
3, 156732, Control_c, 0, 64, 104
3, 156740, Control_c, 0, 64, 88
3, 156748, Control_c, 0, 64, 72
3, 156756, Control_c, 0, 64, 40
3, 156764, Control_c, 0, 64, 24
3, 156768, Control_c, 0, 64, 0
3, 157060, Note_on_c, 0, 70, 91
3, 157060, Note_on_c, 0, 58, 75
3, 157060, Note_on_c, 0, 34, 73
3, 157064, Note_on_c, 0, 46, 88
3, 157064, Note_on_c, 0, 62, 80
3, 157064, Note_on_c, 0, 65, 77
3, 157080, Control_c, 0, 64, 56
3, 157088, Note_on_c, 0, 46, 0
3, 157088, Note_on_c, 0, 34, 0
3, 157088, Control_c, 0, 64, 127
3, 157100, Note_on_c, 0, 62, 0
3, 157100, Note_on_c, 0, 58, 0
3, 157108, Note_on_c, 0, 65, 0
3, 157120, Note_on_c, 0, 70, 0
3, 157364, Control_c, 0, 64, 104
3, 157372, Control_c, 0, 64, 88
3, 157380, Control_c, 0, 64, 72
3, 157388, Control_c, 0, 64, 40
3, 157396, Control_c, 0, 64, 24
3, 157404, Control_c, 0, 64, 0
3, 157564, Note_on_c, 0, 70, 92
3, 157568, Note_on_c, 0, 58, 82
3, 157568, Note_on_c, 0, 66, 76
3, 157568, Note_on_c, 0, 42, 95
3, 157568, Note_on_c, 0, 61, 75
3, 157572, Note_on_c, 0, 30, 82
3, 157572, Control_c, 0, 64, 24
3, 157580, Control_c, 0, 64, 88
3, 157588, Control_c, 0, 64, 127
3, 157592, Note_on_c, 0, 30, 0
3, 157592, Note_on_c, 0, 42, 0
3, 157600, Note_on_c, 0, 58, 0
3, 157604, Note_on_c, 0, 61, 0
3, 157616, Note_on_c, 0, 66, 0
3, 157616, Note_on_c, 0, 70, 0
3, 157844, Control_c, 0, 64, 104
3, 157852, Control_c, 0, 64, 72
3, 157860, Control_c, 0, 64, 40
3, 157864, Control_c, 0, 64, 24
3, 157872, Control_c, 0, 64, 0
3, 158304, Note_on_c, 0, 61, 68
3, 158304, Note_on_c, 0, 73, 88
3, 158308, Note_on_c, 0, 66, 75
3, 158308, Note_on_c, 0, 54, 64
3, 158308, Note_on_c, 0, 58, 58
3, 158308, Note_on_c, 0, 70, 73
3, 158320, Control_c, 0, 64, 56
3, 158328, Control_c, 0, 64, 127
3, 158332, Note_on_c, 0, 61, 0
3, 158336, Note_on_c, 0, 58, 0
3, 158336, Note_on_c, 0, 54, 0
3, 158336, Note_on_c, 0, 70, 0
3, 158340, Note_on_c, 0, 66, 0
3, 158352, Note_on_c, 0, 73, 0
3, 158408, Control_c, 0, 64, 88
3, 158416, Control_c, 0, 64, 72
3, 158424, Control_c, 0, 64, 40
3, 158432, Control_c, 0, 64, 24
3, 158440, Control_c, 0, 64, 0
3, 158548, Note_on_c, 0, 74, 104
3, 158552, Note_on_c, 0, 62, 76
3, 158552, Note_on_c, 0, 65, 82
3, 158556, Note_on_c, 0, 69, 82
3, 158556, Note_on_c, 0, 50, 68
3, 158556, Note_on_c, 0, 57, 64
3, 158560, Note_on_c, 0, 53, 65
3, 158600, Control_c, 0, 64, 72
3, 158608, Control_c, 0, 64, 127
3, 158632, Note_on_c, 0, 53, 0
3, 158632, Note_on_c, 0, 65, 0
3, 158636, Note_on_c, 0, 50, 0
3, 158636, Note_on_c, 0, 69, 0
3, 158640, Note_on_c, 0, 74, 0
3, 158640, Note_on_c, 0, 57, 0
3, 158640, Note_on_c, 0, 62, 0
3, 158896, Control_c, 0, 64, 88
3, 158904, Control_c, 0, 64, 72
3, 158908, Control_c, 0, 64, 56
3, 158916, Control_c, 0, 64, 24
3, 158924, Control_c, 0, 64, 0
3, 158956, Note_on_c, 0, 46, 65
3, 158980, Note_on_c, 0, 46, 0
3, 158980, Note_on_c, 0, 53, 66
3, 159012, Control_c, 0, 64, 40
3, 159020, Note_on_c, 0, 77, 99
3, 159020, Note_on_c, 0, 58, 53
3, 159020, Note_on_c, 0, 65, 89
3, 159020, Control_c, 0, 64, 104
3, 159024, Note_on_c, 0, 70, 79
3, 159028, Note_on_c, 0, 74, 84
3, 159028, Note_on_c, 0, 62, 84
3, 159028, Control_c, 0, 64, 127
3, 159048, Note_on_c, 0, 53, 0
3, 159052, Note_on_c, 0, 58, 0
3, 159052, Note_on_c, 0, 70, 0
3, 159052, Note_on_c, 0, 65, 0
3, 159052, Note_on_c, 0, 62, 0
3, 159060, Note_on_c, 0, 74, 0
3, 159068, Note_on_c, 0, 77, 0
3, 159264, Control_c, 0, 64, 104
3, 159272, Control_c, 0, 64, 88
3, 159280, Control_c, 0, 64, 72
3, 159284, Control_c, 0, 64, 56
3, 159292, Control_c, 0, 64, 40
3, 159300, Control_c, 0, 64, 24
3, 159308, Control_c, 0, 64, 0
3, 159516, Note_on_c, 0, 78, 93
3, 159516, Note_on_c, 0, 66, 84
3, 159520, Note_on_c, 0, 73, 77
3, 159520, Note_on_c, 0, 61, 75
3, 159524, Note_on_c, 0, 70, 75
3, 159528, Note_on_c, 0, 58, 56
3, 159528, Note_on_c, 0, 54, 53
3, 159528, Control_c, 0, 64, 56
3, 159536, Control_c, 0, 64, 127
3, 159540, Note_on_c, 0, 54, 0
3, 159544, Note_on_c, 0, 58, 0
3, 159548, Note_on_c, 0, 61, 0
3, 159548, Note_on_c, 0, 66, 0
3, 159548, Note_on_c, 0, 70, 0
3, 159552, Note_on_c, 0, 73, 0
3, 159568, Note_on_c, 0, 78, 0
3, 159720, Control_c, 0, 64, 104
3, 159728, Control_c, 0, 64, 88
3, 159732, Control_c, 0, 64, 72
3, 159740, Control_c, 0, 64, 56
3, 159748, Control_c, 0, 64, 24
3, 159756, Control_c, 0, 64, 0
3, 160216, Note_on_c, 0, 54, 72
3, 160216, Note_on_c, 0, 66, 72
3, 160216, Note_on_c, 0, 78, 89
3, 160220, Note_on_c, 0, 70, 79
3, 160224, Note_on_c, 0, 73, 73
3, 160232, Control_c, 0, 64, 40
3, 160240, Control_c, 0, 64, 88
3, 160244, Note_on_c, 0, 54, 0
3, 160248, Note_on_c, 0, 66, 0
3, 160248, Control_c, 0, 64, 127
3, 160252, Note_on_c, 0, 73, 0
3, 160260, Note_on_c, 0, 70, 0
3, 160264, Note_on_c, 0, 78, 0
3, 160324, Control_c, 0, 64, 88
3, 160328, Control_c, 0, 64, 72
3, 160336, Control_c, 0, 64, 56
3, 160344, Control_c, 0, 64, 24
3, 160352, Control_c, 0, 64, 0
3, 160456, Note_on_c, 0, 78, 95
3, 160460, Note_on_c, 0, 66, 77
3, 160460, Note_on_c, 0, 74, 85
3, 160464, Note_on_c, 0, 69, 87
3, 160464, Note_on_c, 0, 62, 74
3, 160464, Control_c, 0, 64, 24
3, 160468, Control_c, 0, 64, 88
3, 160476, Control_c, 0, 64, 127
3, 160484, Note_on_c, 0, 66, 0
3, 160488, Note_on_c, 0, 69, 0
3, 160488, Note_on_c, 0, 62, 0
3, 160492, Note_on_c, 0, 74, 0
3, 160504, Note_on_c, 0, 78, 0
3, 160676, Control_c, 0, 64, 104
3, 160692, Control_c, 0, 64, 88
3, 160720, Control_c, 0, 64, 72
3, 160728, Control_c, 0, 64, 56
3, 160732, Control_c, 0, 64, 40
3, 160748, Control_c, 0, 64, 24
3, 160756, Control_c, 0, 64, 0
3, 160924, Note_on_c, 0, 82, 92
3, 160928, Note_on_c, 0, 70, 75
3, 160928, Note_on_c, 0, 74, 87
3, 160932, Note_on_c, 0, 58, 61
3, 160932, Note_on_c, 0, 65, 74
3, 160936, Note_on_c, 0, 62, 68
3, 160948, Control_c, 0, 64, 88
3, 160956, Control_c, 0, 64, 127
3, 160972, Note_on_c, 0, 62, 0
3, 160976, Note_on_c, 0, 58, 0
3, 160976, Note_on_c, 0, 65, 0
3, 160980, Note_on_c, 0, 70, 0
3, 160980, Note_on_c, 0, 74, 0
3, 161000, Note_on_c, 0, 82, 0
3, 161156, Control_c, 0, 64, 104
3, 161400, Note_on_c, 0, 85, 99
3, 161404, Note_on_c, 0, 70, 92
3, 161408, Note_on_c, 0, 78, 85
3, 161408, Note_on_c, 0, 66, 76
3, 161412, Note_on_c, 0, 54, 75
3, 161412, Note_on_c, 0, 61, 65
3, 161416, Note_on_c, 0, 58, 59
3, 161416, Control_c, 0, 64, 24
3, 161424, Control_c, 0, 64, 104
3, 161432, Control_c, 0, 64, 127
3, 161456, Note_on_c, 0, 61, 0
3, 161456, Note_on_c, 0, 66, 0
3, 161456, Note_on_c, 0, 54, 0
3, 161460, Note_on_c, 0, 58, 0
3, 161472, Note_on_c, 0, 78, 0
3, 161476, Note_on_c, 0, 70, 0
3, 161488, Note_on_c, 0, 85, 0
3, 161704, Control_c, 0, 64, 72
3, 161712, Control_c, 0, 64, 0
3, 161760, Note_on_c, 0, 50, 60
3, 161764, Note_on_c, 0, 69, 70
3, 161764, Note_on_c, 0, 57, 58
3, 161764, Control_c, 0, 64, 72
3, 161772, Control_c, 0, 64, 127
3, 161776, Note_on_c, 0, 50, 0
3, 161784, Note_on_c, 0, 57, 0
3, 161796, Note_on_c, 0, 78, 75
3, 161800, Note_on_c, 0, 69, 0
3, 161800, Note_on_c, 0, 62, 68
3, 161836, Note_on_c, 0, 62, 0
3, 161856, Note_on_c, 0, 78, 0
3, 161868, Note_on_c, 0, 66, 77
3, 161868, Note_on_c, 0, 86, 107
3, 161896, Note_on_c, 0, 66, 0
3, 161904, Note_on_c, 0, 86, 0
3, 162140, Control_c, 0, 64, 104
3, 162148, Control_c, 0, 64, 88
3, 162156, Control_c, 0, 64, 72
3, 162168, Control_c, 0, 64, 56
3, 162184, Control_c, 0, 64, 40
3, 162204, Control_c, 0, 64, 24
3, 162236, Note_on_c, 0, 74, 66
3, 162236, Control_c, 0, 64, 0
3, 162272, Note_on_c, 0, 82, 73
3, 162284, Note_on_c, 0, 74, 0
3, 162308, Control_c, 0, 64, 104
3, 162316, Control_c, 0, 64, 127
3, 162324, Note_on_c, 0, 58, 66
3, 162328, Note_on_c, 0, 62, 77
3, 162328, Note_on_c, 0, 65, 77
3, 162332, Note_on_c, 0, 89, 102
3, 162348, Note_on_c, 0, 58, 0
3, 162356, Note_on_c, 0, 62, 0
3, 162360, Note_on_c, 0, 65, 0
3, 162376, Note_on_c, 0, 82, 0
3, 162396, Note_on_c, 0, 89, 0
3, 162784, Control_c, 0, 64, 104
3, 162800, Control_c, 0, 64, 88
3, 162816, Control_c, 0, 64, 72
3, 162832, Control_c, 0, 64, 56
3, 162840, Control_c, 0, 64, 40
3, 162852, Control_c, 0, 64, 24
3, 162884, Control_c, 0, 64, 0
3, 163248, Control_c, 0, 64, 72
3, 163256, Control_c, 0, 64, 127
3, 163536, Control_c, 0, 64, 104
3, 163544, Control_c, 0, 64, 88
3, 163552, Control_c, 0, 64, 72
3, 163568, Control_c, 0, 64, 56
3, 163572, Control_c, 0, 64, 40
3, 163588, Control_c, 0, 64, 24
3, 163640, Control_c, 0, 64, 0
3, 163672, Note_on_c, 0, 89, 104
3, 163672, Note_on_c, 0, 77, 97
3, 163672, Note_on_c, 0, 82, 82
3, 163672, Note_on_c, 0, 86, 87
3, 163672, Note_on_c, 0, 50, 69
3, 163672, Note_on_c, 0, 65, 92
3, 163672, Note_on_c, 0, 58, 92
3, 164092, Note_on_c, 0, 50, 0
3, 164116, Note_on_c, 0, 86, 0
3, 164120, Note_on_c, 0, 65, 0
3, 164120, Note_on_c, 0, 77, 0
3, 164120, Note_on_c, 0, 58, 0
3, 164124, Note_on_c, 0, 82, 0
3, 164128, Note_on_c, 0, 89, 0
3, 164140, Note_on_c, 0, 90, 96
3, 164144, Note_on_c, 0, 78, 88
3, 164144, Note_on_c, 0, 66, 69
3, 164144, Note_on_c, 0, 82, 81
3, 164144, Note_on_c, 0, 85, 81
3, 164144, Note_on_c, 0, 54, 62
3, 164148, Control_c, 0, 64, 24
3, 164152, Note_on_c, 0, 61, 64
3, 164152, Note_on_c, 0, 58, 57
3, 164156, Control_c, 0, 64, 72
3, 164160, Control_c, 0, 64, 127
3, 164204, Note_on_c, 0, 54, 0
3, 164208, Note_on_c, 0, 58, 0
3, 164216, Note_on_c, 0, 82, 0
3, 164216, Note_on_c, 0, 78, 0
3, 164216, Note_on_c, 0, 66, 0
3, 164216, Note_on_c, 0, 61, 0
3, 164228, Note_on_c, 0, 90, 0
3, 164228, Note_on_c, 0, 85, 0
3, 164516, Control_c, 0, 64, 104
3, 164528, Control_c, 0, 64, 88
3, 164536, Control_c, 0, 64, 72
3, 164544, Control_c, 0, 64, 56
3, 164552, Control_c, 0, 64, 40
3, 164560, Control_c, 0, 64, 24
3, 164568, Control_c, 0, 64, 0
3, 168328, Note_on_c, 0, 54, 79
3, 168344, Note_on_c, 0, 46, 50
3, 168348, Note_on_c, 0, 49, 36
3, 168396, Note_on_c, 0, 49, 0
3, 168400, Note_on_c, 0, 46, 0
3, 168500, Note_on_c, 0, 46, 53
3, 168504, Note_on_c, 0, 49, 45
3, 168540, Note_on_c, 0, 49, 0
3, 168540, Note_on_c, 0, 46, 0
3, 168648, Note_on_c, 0, 46, 56
3, 168648, Note_on_c, 0, 49, 56
3, 168688, Note_on_c, 0, 49, 0
3, 168688, Note_on_c, 0, 46, 0
3, 168788, Note_on_c, 0, 46, 58
3, 168788, Note_on_c, 0, 49, 56
3, 168812, Note_on_c, 0, 49, 0
3, 168816, Note_on_c, 0, 46, 0
3, 168856, Note_on_c, 0, 53, 77
3, 168864, Note_on_c, 0, 54, 0
3, 168920, Note_on_c, 0, 46, 61
3, 168920, Note_on_c, 0, 49, 57
3, 168928, Note_on_c, 0, 54, 85
3, 168932, Note_on_c, 0, 53, 0
3, 168952, Note_on_c, 0, 49, 0
3, 168956, Note_on_c, 0, 46, 0
3, 168972, Note_on_c, 0, 54, 0
3, 169076, Note_on_c, 0, 46, 52
3, 169076, Note_on_c, 0, 49, 49
3, 169112, Note_on_c, 0, 49, 0
3, 169116, Note_on_c, 0, 46, 0
3, 169212, Note_on_c, 0, 53, 83
3, 169224, Note_on_c, 0, 49, 58
3, 169224, Note_on_c, 0, 46, 60
3, 169252, Note_on_c, 0, 49, 0
3, 169256, Note_on_c, 0, 46, 0
3, 169260, Note_on_c, 0, 53, 0
3, 169360, Note_on_c, 0, 46, 62
3, 169360, Note_on_c, 0, 49, 61
3, 169388, Note_on_c, 0, 46, 0
3, 169392, Note_on_c, 0, 49, 0
3, 169496, Note_on_c, 0, 54, 76
3, 169504, Note_on_c, 0, 46, 58
3, 169508, Note_on_c, 0, 49, 52
3, 169528, Note_on_c, 0, 49, 0
3, 169540, Note_on_c, 0, 46, 0
3, 169552, Note_on_c, 0, 54, 0
3, 169632, Note_on_c, 0, 53, 82
3, 169640, Note_on_c, 0, 46, 62
3, 169644, Note_on_c, 0, 49, 57
3, 169664, Note_on_c, 0, 49, 0
3, 169672, Note_on_c, 0, 46, 0
3, 169692, Note_on_c, 0, 53, 0
3, 169768, Note_on_c, 0, 52, 80
3, 169780, Note_on_c, 0, 46, 61
3, 169784, Note_on_c, 0, 49, 52
3, 169804, Control_c, 0, 64, 24
3, 169812, Control_c, 0, 64, 72
3, 169816, Note_on_c, 0, 49, 0
3, 169820, Note_on_c, 0, 46, 0
3, 169820, Note_on_c, 0, 52, 0
3, 169824, Control_c, 0, 64, 104
3, 169832, Control_c, 0, 64, 127
3, 169916, Note_on_c, 0, 46, 62
3, 169924, Note_on_c, 0, 49, 54
3, 169940, Note_on_c, 0, 49, 0
3, 169952, Note_on_c, 0, 46, 0
3, 170000, Note_on_c, 0, 85, 92
3, 170000, Note_on_c, 0, 73, 92
3, 170004, Note_on_c, 0, 82, 73
3, 170016, Note_on_c, 0, 82, 0
3, 170024, Note_on_c, 0, 73, 0
3, 170024, Note_on_c, 0, 85, 0
3, 170052, Control_c, 0, 64, 104
3, 170060, Control_c, 0, 64, 72
3, 170064, Note_on_c, 0, 85, 98
3, 170064, Note_on_c, 0, 73, 90
3, 170068, Note_on_c, 0, 82, 77
3, 170076, Note_on_c, 0, 46, 56
3, 170076, Note_on_c, 0, 49, 53
3, 170084, Control_c, 0, 64, 127
3, 170108, Note_on_c, 0, 49, 0
3, 170112, Note_on_c, 0, 46, 0
3, 170124, Note_on_c, 0, 73, 0
3, 170128, Note_on_c, 0, 82, 0
3, 170132, Note_on_c, 0, 85, 0
3, 170208, Note_on_c, 0, 49, 60
3, 170208, Note_on_c, 0, 46, 58
3, 170232, Note_on_c, 0, 49, 0
3, 170236, Note_on_c, 0, 46, 0
3, 170344, Note_on_c, 0, 49, 54
3, 170348, Note_on_c, 0, 46, 52
3, 170368, Note_on_c, 0, 46, 0
3, 170368, Note_on_c, 0, 49, 0
3, 170480, Note_on_c, 0, 49, 56
3, 170484, Note_on_c, 0, 46, 52
3, 170500, Control_c, 0, 64, 104
3, 170512, Note_on_c, 0, 46, 0
3, 170512, Note_on_c, 0, 49, 0
3, 170512, Control_c, 0, 64, 72
3, 170520, Control_c, 0, 64, 40
3, 170528, Control_c, 0, 64, 24
3, 170536, Control_c, 0, 64, 0
3, 170628, Note_on_c, 0, 52, 85
3, 170628, Note_on_c, 0, 49, 56
3, 170632, Note_on_c, 0, 46, 51
3, 170664, Note_on_c, 0, 46, 0
3, 170664, Note_on_c, 0, 49, 0
3, 170760, Note_on_c, 0, 49, 53
3, 170760, Note_on_c, 0, 46, 52
3, 170792, Note_on_c, 0, 49, 0
3, 170796, Note_on_c, 0, 46, 0
3, 170900, Note_on_c, 0, 49, 56
3, 170900, Note_on_c, 0, 46, 57
3, 170932, Note_on_c, 0, 49, 0
3, 170936, Note_on_c, 0, 46, 0
3, 171028, Note_on_c, 0, 49, 49
3, 171028, Note_on_c, 0, 46, 50
3, 171052, Note_on_c, 0, 49, 0
3, 171056, Note_on_c, 0, 46, 0
3, 171100, Note_on_c, 0, 51, 83
3, 171108, Note_on_c, 0, 52, 0
3, 171164, Note_on_c, 0, 51, 0
3, 171168, Note_on_c, 0, 46, 51
3, 171168, Note_on_c, 0, 49, 43
3, 171168, Note_on_c, 0, 52, 88
3, 171192, Note_on_c, 0, 49, 0
3, 171196, Note_on_c, 0, 46, 0
3, 171208, Note_on_c, 0, 52, 0
3, 171312, Note_on_c, 0, 49, 58
3, 171316, Note_on_c, 0, 46, 50
3, 171332, Note_on_c, 0, 46, 0
3, 171340, Note_on_c, 0, 49, 0
3, 171436, Note_on_c, 0, 51, 77
3, 171444, Note_on_c, 0, 49, 61
3, 171448, Note_on_c, 0, 46, 57
3, 171476, Note_on_c, 0, 46, 0
3, 171476, Note_on_c, 0, 49, 0
3, 171484, Note_on_c, 0, 51, 0
3, 171584, Note_on_c, 0, 49, 57
3, 171624, Note_on_c, 0, 49, 0
3, 171732, Note_on_c, 0, 52, 73
3, 171744, Note_on_c, 0, 47, 53
3, 171744, Note_on_c, 0, 42, 38
3, 171768, Note_on_c, 0, 47, 0
3, 171780, Note_on_c, 0, 42, 0
3, 171792, Note_on_c, 0, 52, 0
3, 171880, Note_on_c, 0, 51, 74
3, 171884, Note_on_c, 0, 47, 58
3, 171884, Note_on_c, 0, 42, 43
3, 171916, Note_on_c, 0, 47, 0
3, 171928, Note_on_c, 0, 42, 0
3, 171940, Note_on_c, 0, 51, 0
3, 172028, Note_on_c, 0, 50, 82
3, 172036, Note_on_c, 0, 47, 53
3, 172040, Note_on_c, 0, 42, 39
3, 172056, Control_c, 0, 64, 40
3, 172064, Control_c, 0, 64, 88
3, 172068, Note_on_c, 0, 50, 0
3, 172072, Control_c, 0, 64, 127
3, 172080, Note_on_c, 0, 47, 0
3, 172084, Note_on_c, 0, 42, 0
3, 172272, Note_on_c, 0, 86, 85
3, 172280, Note_on_c, 0, 74, 68
3, 172284, Note_on_c, 0, 83, 68
3, 172300, Note_on_c, 0, 83, 0
3, 172308, Note_on_c, 0, 74, 0
3, 172316, Note_on_c, 0, 86, 0
3, 172344, Note_on_c, 0, 86, 81
3, 172348, Note_on_c, 0, 74, 73
3, 172352, Note_on_c, 0, 83, 82
3, 172364, Note_on_c, 0, 54, 39
3, 172368, Note_on_c, 0, 62, 47
3, 172376, Note_on_c, 0, 59, 38
3, 172384, Note_on_c, 0, 74, 0
3, 172392, Note_on_c, 0, 83, 0
3, 172400, Note_on_c, 0, 59, 0
3, 172404, Note_on_c, 0, 86, 0
3, 172404, Note_on_c, 0, 54, 0
3, 172404, Note_on_c, 0, 62, 0
3, 172924, Control_c, 0, 64, 104
3, 172940, Control_c, 0, 64, 88
3, 172964, Control_c, 0, 64, 72
3, 172984, Control_c, 0, 64, 56
3, 172992, Control_c, 0, 64, 40
3, 173000, Control_c, 0, 64, 0
3, 181368, Control_c, 0, 64, 40
3, 181376, Control_c, 0, 64, 72
3, 181384, Note_on_c, 0, 62, 65
3, 181384, Control_c, 0, 64, 104
3, 181388, Note_on_c, 0, 59, 53
3, 181392, Control_c, 0, 64, 127
3, 181432, Note_on_c, 0, 59, 0
3, 181444, Note_on_c, 0, 62, 0
3, 181568, Note_on_c, 0, 62, 62
3, 181572, Note_on_c, 0, 59, 49
3, 181612, Note_on_c, 0, 59, 0
3, 181620, Note_on_c, 0, 62, 0
3, 181748, Note_on_c, 0, 62, 50
3, 181752, Note_on_c, 0, 59, 44
3, 181788, Note_on_c, 0, 59, 0
3, 181788, Note_on_c, 0, 62, 0
3, 181828, Note_on_c, 0, 66, 73
3, 181832, Note_on_c, 0, 54, 65
3, 181876, Note_on_c, 0, 54, 0
3, 181888, Note_on_c, 0, 66, 0
3, 181916, Note_on_c, 0, 67, 83
3, 181916, Control_c, 0, 64, 104
3, 181920, Note_on_c, 0, 59, 57
3, 181920, Note_on_c, 0, 62, 62
3, 181924, Note_on_c, 0, 55, 64
3, 181924, Control_c, 0, 64, 56
3, 181936, Control_c, 0, 64, 0
3, 181948, Note_on_c, 0, 62, 0
3, 181964, Control_c, 0, 64, 88
3, 181968, Note_on_c, 0, 59, 0
3, 181972, Control_c, 0, 64, 127
3, 182048, Note_on_c, 0, 67, 0
3, 182092, Note_on_c, 0, 62, 68
3, 182096, Note_on_c, 0, 59, 46
3, 182140, Note_on_c, 0, 59, 0
3, 182152, Note_on_c, 0, 62, 0
3, 182164, Note_on_c, 0, 55, 0
3, 182248, Control_c, 0, 64, 104
3, 182252, Note_on_c, 0, 66, 67
3, 182256, Control_c, 0, 64, 56
3, 182260, Note_on_c, 0, 59, 62
3, 182268, Note_on_c, 0, 54, 58
3, 182268, Control_c, 0, 64, 24
3, 182272, Note_on_c, 0, 62, 53
3, 182296, Note_on_c, 0, 62, 0
3, 182296, Control_c, 0, 64, 104
3, 182304, Control_c, 0, 64, 127
3, 182312, Note_on_c, 0, 59, 0
3, 182416, Note_on_c, 0, 66, 0
3, 182432, Note_on_c, 0, 62, 61
3, 182448, Note_on_c, 0, 59, 43
3, 182456, Note_on_c, 0, 54, 0
3, 182484, Note_on_c, 0, 59, 0
3, 182488, Note_on_c, 0, 62, 0
3, 182588, Note_on_c, 0, 67, 81
3, 182592, Note_on_c, 0, 62, 62
3, 182592, Control_c, 0, 64, 56
3, 182596, Note_on_c, 0, 55, 68
3, 182600, Note_on_c, 0, 59, 58
3, 182600, Control_c, 0, 64, 24
3, 182612, Control_c, 0, 64, 0
3, 182632, Control_c, 0, 64, 40
3, 182640, Control_c, 0, 64, 88
3, 182648, Note_on_c, 0, 62, 0
3, 182652, Control_c, 0, 64, 127
3, 182660, Note_on_c, 0, 59, 0
3, 182684, Note_on_c, 0, 55, 0
3, 182688, Note_on_c, 0, 67, 0
3, 182756, Note_on_c, 0, 66, 77
3, 182760, Note_on_c, 0, 54, 60
3, 182768, Note_on_c, 0, 59, 65
3, 182776, Note_on_c, 0, 62, 49
3, 182796, Note_on_c, 0, 62, 0
3, 182812, Note_on_c, 0, 59, 0
3, 182820, Note_on_c, 0, 66, 0
3, 182840, Note_on_c, 0, 54, 0
3, 182896, Control_c, 0, 64, 104
3, 182904, Control_c, 0, 64, 40
3, 182912, Control_c, 0, 64, 0
3, 182928, Note_on_c, 0, 65, 75
3, 182932, Note_on_c, 0, 59, 64
3, 182936, Note_on_c, 0, 62, 68
3, 182936, Control_c, 0, 64, 24
3, 182940, Control_c, 0, 64, 72
3, 182944, Note_on_c, 0, 53, 44
3, 182952, Note_on_c, 0, 62, 0
3, 182952, Control_c, 0, 64, 127
3, 182956, Note_on_c, 0, 59, 0
3, 182964, Note_on_c, 0, 53, 0
3, 182996, Note_on_c, 0, 65, 0
3, 183108, Note_on_c, 0, 59, 56
3, 183108, Note_on_c, 0, 62, 60
3, 183144, Note_on_c, 0, 59, 0
3, 183152, Note_on_c, 0, 62, 0
3, 183180, Note_on_c, 0, 86, 85
3, 183180, Note_on_c, 0, 74, 77
3, 183184, Note_on_c, 0, 83, 77
3, 183212, Note_on_c, 0, 74, 0
3, 183216, Note_on_c, 0, 83, 0
3, 183216, Note_on_c, 0, 86, 0
3, 183252, Note_on_c, 0, 86, 88
3, 183256, Note_on_c, 0, 74, 77
3, 183260, Note_on_c, 0, 83, 77
3, 183272, Note_on_c, 0, 62, 62
3, 183272, Note_on_c, 0, 59, 60
3, 183288, Note_on_c, 0, 74, 0
3, 183292, Note_on_c, 0, 83, 0
3, 183304, Note_on_c, 0, 62, 0
3, 183308, Note_on_c, 0, 59, 0
3, 183308, Note_on_c, 0, 86, 0
3, 183444, Note_on_c, 0, 59, 57
3, 183448, Note_on_c, 0, 62, 59
3, 183488, Note_on_c, 0, 62, 0
3, 183492, Note_on_c, 0, 59, 0
3, 183608, Note_on_c, 0, 59, 50
3, 183608, Note_on_c, 0, 62, 53
3, 183648, Note_on_c, 0, 62, 0
3, 183660, Note_on_c, 0, 59, 0
3, 183796, Note_on_c, 0, 62, 58
3, 183800, Note_on_c, 0, 59, 53
3, 183816, Note_on_c, 0, 59, 0
3, 183816, Note_on_c, 0, 62, 0
3, 183984, Note_on_c, 0, 65, 77
3, 183984, Note_on_c, 0, 62, 62
3, 183984, Note_on_c, 0, 43, 51
3, 183984, Note_on_c, 0, 59, 65
3, 183996, Control_c, 0, 64, 88
3, 184000, Control_c, 0, 64, 24
3, 184008, Note_on_c, 0, 62, 0
3, 184016, Control_c, 0, 64, 0
3, 184036, Note_on_c, 0, 59, 0
3, 184064, Control_c, 0, 64, 24
3, 184072, Control_c, 0, 64, 72
3, 184080, Note_on_c, 0, 53, 43
3, 184084, Control_c, 0, 64, 127
3, 184172, Note_on_c, 0, 59, 62
3, 184172, Note_on_c, 0, 62, 66
3, 184224, Note_on_c, 0, 62, 0
3, 184228, Note_on_c, 0, 59, 0
3, 184340, Note_on_c, 0, 62, 58
3, 184344, Note_on_c, 0, 59, 49
3, 184376, Note_on_c, 0, 59, 0
3, 184388, Note_on_c, 0, 62, 0
3, 184440, Note_on_c, 0, 65, 0
3, 184452, Note_on_c, 0, 53, 0
3, 184500, Note_on_c, 0, 62, 52
3, 184500, Note_on_c, 0, 59, 44
3, 184528, Note_on_c, 0, 59, 0
3, 184536, Note_on_c, 0, 62, 0
3, 184588, Note_on_c, 0, 64, 77
3, 184588, Note_on_c, 0, 52, 61
3, 184640, Note_on_c, 0, 64, 0
3, 184644, Note_on_c, 0, 52, 0
3, 184676, Note_on_c, 0, 65, 82
3, 184676, Note_on_c, 0, 59, 53
3, 184680, Note_on_c, 0, 53, 60
3, 184680, Note_on_c, 0, 62, 65
3, 184692, Control_c, 0, 64, 88
3, 184700, Control_c, 0, 64, 24
3, 184704, Note_on_c, 0, 62, 0
3, 184712, Control_c, 0, 64, 0
3, 184736, Note_on_c, 0, 59, 0
3, 184756, Control_c, 0, 64, 72
3, 184768, Control_c, 0, 64, 127
3, 184852, Note_on_c, 0, 62, 57
3, 184852, Note_on_c, 0, 59, 52
3, 184904, Note_on_c, 0, 62, 0
3, 184908, Note_on_c, 0, 59, 0
3, 184928, Note_on_c, 0, 65, 0
3, 184972, Note_on_c, 0, 53, 0
3, 185012, Note_on_c, 0, 64, 74
3, 185036, Note_on_c, 0, 52, 58
3, 185036, Note_on_c, 0, 59, 39
3, 185064, Note_on_c, 0, 62, 27
3, 185088, Note_on_c, 0, 62, 0
3, 185088, Note_on_c, 0, 59, 0
3, 185132, Note_on_c, 0, 64, 0
3, 185180, Note_on_c, 0, 62, 66
3, 185196, Note_on_c, 0, 59, 41
3, 185220, Note_on_c, 0, 59, 0
3, 185224, Note_on_c, 0, 62, 0
3, 185316, Note_on_c, 0, 52, 0
3, 185348, Control_c, 0, 64, 56
3, 185360, Note_on_c, 0, 65, 76
3, 185360, Control_c, 0, 64, 0
3, 185364, Note_on_c, 0, 53, 66
3, 185368, Note_on_c, 0, 58, 56
3, 185416, Control_c, 0, 64, 56
3, 185428, Control_c, 0, 64, 127
3, 185440, Note_on_c, 0, 58, 0
3, 185460, Note_on_c, 0, 53, 0
3, 185460, Note_on_c, 0, 65, 0
3, 185548, Note_on_c, 0, 64, 75
3, 185552, Note_on_c, 0, 58, 53
3, 185564, Note_on_c, 0, 52, 58
3, 185612, Note_on_c, 0, 58, 0
3, 185632, Note_on_c, 0, 52, 0
3, 185632, Note_on_c, 0, 64, 0
3, 185656, Note_on_c, 0, 43, 0
3, 185692, Control_c, 0, 64, 72
3, 185700, Control_c, 0, 64, 0
3, 185728, Note_on_c, 0, 63, 73
3, 185728, Note_on_c, 0, 51, 72
3, 185728, Note_on_c, 0, 58, 61
3, 185740, Control_c, 0, 64, 40
3, 185752, Control_c, 0, 64, 104
3, 185756, Note_on_c, 0, 51, 0
3, 185760, Note_on_c, 0, 58, 0
3, 185760, Control_c, 0, 64, 127
3, 185788, Note_on_c, 0, 63, 0
3, 185912, Note_on_c, 0, 63, 61
3, 185924, Note_on_c, 0, 58, 43
3, 185928, Note_on_c, 0, 55, 49
3, 185952, Note_on_c, 0, 55, 0
3, 185968, Note_on_c, 0, 58, 0
3, 185972, Note_on_c, 0, 63, 0
3, 186004, Note_on_c, 0, 87, 87
3, 186004, Note_on_c, 0, 75, 77
3, 186008, Note_on_c, 0, 82, 68
3, 186040, Note_on_c, 0, 75, 0
3, 186048, Note_on_c, 0, 82, 0
3, 186048, Note_on_c, 0, 87, 0
3, 186100, Note_on_c, 0, 63, 61
3, 186104, Note_on_c, 0, 87, 92
3, 186108, Note_on_c, 0, 55, 54
3, 186108, Note_on_c, 0, 58, 43
3, 186108, Note_on_c, 0, 75, 75
3, 186112, Note_on_c, 0, 82, 68
3, 186132, Note_on_c, 0, 55, 0
3, 186148, Note_on_c, 0, 63, 0
3, 186152, Note_on_c, 0, 58, 0
3, 186280, Note_on_c, 0, 63, 60
3, 186284, Note_on_c, 0, 55, 59
3, 186284, Note_on_c, 0, 58, 44
3, 186332, Note_on_c, 0, 55, 0
3, 186332, Note_on_c, 0, 63, 0
3, 186336, Note_on_c, 0, 58, 0
3, 186456, Note_on_c, 0, 63, 67
3, 186464, Note_on_c, 0, 58, 45
3, 186472, Note_on_c, 0, 55, 49
3, 186512, Note_on_c, 0, 55, 0
3, 186512, Note_on_c, 0, 63, 0
3, 186512, Note_on_c, 0, 58, 0
3, 186528, Note_on_c, 0, 75, 0
3, 186532, Note_on_c, 0, 82, 0
3, 186536, Note_on_c, 0, 87, 0
3, 186632, Note_on_c, 0, 63, 67
3, 186636, Note_on_c, 0, 58, 49
3, 186640, Note_on_c, 0, 55, 59
3, 186688, Note_on_c, 0, 55, 0
3, 186688, Note_on_c, 0, 58, 0
3, 186688, Note_on_c, 0, 63, 0
3, 186832, Note_on_c, 0, 63, 65
3, 186836, Note_on_c, 0, 55, 58
3, 186840, Note_on_c, 0, 58, 46
3, 186900, Note_on_c, 0, 58, 0
3, 186900, Note_on_c, 0, 55, 0
3, 186900, Note_on_c, 0, 63, 0
3, 187252, Control_c, 0, 64, 104
3, 187264, Control_c, 0, 64, 88
3, 187272, Control_c, 0, 64, 56
3, 187280, Control_c, 0, 64, 24
3, 188296, Note_on_c, 0, 44, 62
3, 188296, Note_on_c, 0, 56, 61
3, 188296, Note_on_c, 0, 59, 77
3, 188296, Note_on_c, 0, 63, 79
3, 188320, Control_c, 0, 64, 104
3, 188332, Control_c, 0, 64, 56
3, 188340, Control_c, 0, 64, 24
3, 188348, Control_c, 0, 64, 0
3, 188764, Control_c, 0, 64, 24
3, 188772, Control_c, 0, 64, 56
3, 188784, Control_c, 0, 64, 88
3, 188792, Control_c, 0, 64, 104
3, 188800, Control_c, 0, 64, 127
3, 188920, Note_on_c, 0, 56, 0
3, 188924, Note_on_c, 0, 59, 0
3, 188944, Note_on_c, 0, 44, 0
3, 188944, Note_on_c, 0, 63, 0
3, 189040, Note_on_c, 0, 58, 67
3, 189040, Note_on_c, 0, 63, 81
3, 189040, Note_on_c, 0, 54, 61
3, 189040, Note_on_c, 0, 42, 60
3, 189096, Control_c, 0, 64, 88
3, 189104, Control_c, 0, 64, 40
3, 189112, Control_c, 0, 64, 0
3, 189404, Control_c, 0, 64, 24
3, 189412, Control_c, 0, 64, 56
3, 189420, Control_c, 0, 64, 88
3, 189428, Control_c, 0, 64, 127
3, 189624, Note_on_c, 0, 54, 0
3, 189636, Note_on_c, 0, 42, 0
3, 189644, Note_on_c, 0, 58, 0
3, 189648, Note_on_c, 0, 63, 0
3, 189844, Note_on_c, 0, 63, 88
3, 189844, Note_on_c, 0, 56, 69
3, 189844, Note_on_c, 0, 52, 67
3, 189844, Note_on_c, 0, 40, 59
3, 189968, Control_c, 0, 64, 56
3, 189976, Control_c, 0, 64, 0
3, 191100, Note_on_c, 0, 52, 0
3, 191108, Note_on_c, 0, 40, 0
3, 191128, Note_on_c, 0, 56, 0
3, 191148, Note_on_c, 0, 63, 0
3, 195744, Note_on_c, 0, 63, 62
3, 195744, Note_on_c, 0, 58, 50
3, 195744, Note_on_c, 0, 55, 56
3, 195744, Note_on_c, 0, 51, 42
3, 195756, Note_on_c, 0, 39, 37
3, 195788, Control_c, 0, 64, 40
3, 195796, Control_c, 0, 64, 56
3, 195824, Note_on_c, 0, 55, 0
3, 195824, Note_on_c, 0, 58, 0
3, 195844, Control_c, 0, 64, 24
3, 195860, Control_c, 0, 64, 0
3, 195920, Note_on_c, 0, 58, 50
3, 195920, Note_on_c, 0, 55, 47
3, 195968, Note_on_c, 0, 55, 0
3, 195984, Note_on_c, 0, 58, 0
3, 196076, Note_on_c, 0, 58, 46
3, 196076, Note_on_c, 0, 55, 53
3, 196124, Note_on_c, 0, 55, 0
3, 196128, Note_on_c, 0, 58, 0
3, 196228, Note_on_c, 0, 58, 36
3, 196228, Note_on_c, 0, 55, 47
3, 196256, Note_on_c, 0, 55, 0
3, 196264, Note_on_c, 0, 63, 0
3, 196268, Note_on_c, 0, 58, 0
3, 196300, Note_on_c, 0, 62, 69
3, 196308, Note_on_c, 0, 55, 43
3, 196312, Note_on_c, 0, 58, 39
3, 196336, Note_on_c, 0, 55, 0
3, 196344, Note_on_c, 0, 58, 0
3, 196356, Note_on_c, 0, 62, 0
3, 196364, Note_on_c, 0, 63, 72
3, 196368, Note_on_c, 0, 55, 62
3, 196372, Note_on_c, 0, 58, 49
3, 196420, Note_on_c, 0, 55, 0
3, 196424, Note_on_c, 0, 58, 0
3, 196528, Note_on_c, 0, 58, 50
3, 196536, Note_on_c, 0, 55, 51
3, 196564, Note_on_c, 0, 63, 0
3, 196568, Note_on_c, 0, 55, 0
3, 196580, Note_on_c, 0, 58, 0
3, 196668, Note_on_c, 0, 62, 65
3, 196672, Note_on_c, 0, 55, 62
3, 196676, Note_on_c, 0, 58, 44
3, 196708, Note_on_c, 0, 55, 0
3, 196712, Note_on_c, 0, 58, 0
3, 196756, Note_on_c, 0, 62, 0
3, 196808, Note_on_c, 0, 58, 44
3, 196816, Note_on_c, 0, 55, 43
3, 196832, Note_on_c, 0, 51, 0
3, 196836, Note_on_c, 0, 55, 0
3, 196856, Note_on_c, 0, 58, 0
3, 196924, Note_on_c, 0, 39, 0
3, 196968, Note_on_c, 0, 63, 65
3, 196968, Note_on_c, 0, 54, 53
3, 196968, Note_on_c, 0, 57, 65
3, 197028, Note_on_c, 0, 57, 0
3, 197032, Note_on_c, 0, 54, 0
3, 197060, Note_on_c, 0, 63, 0
3, 197100, Note_on_c, 0, 62, 68
3, 197100, Note_on_c, 0, 57, 53
3, 197100, Note_on_c, 0, 54, 53
3, 197152, Note_on_c, 0, 54, 0
3, 197156, Note_on_c, 0, 57, 0
3, 197160, Note_on_c, 0, 62, 0
3, 197240, Note_on_c, 0, 61, 65
3, 197240, Note_on_c, 0, 57, 57
3, 197240, Note_on_c, 0, 54, 46
3, 197284, Note_on_c, 0, 54, 0
3, 197304, Note_on_c, 0, 57, 0
3, 197304, Note_on_c, 0, 61, 0
3, 197400, Note_on_c, 0, 54, 49
3, 197400, Note_on_c, 0, 60, 68
3, 197412, Note_on_c, 0, 57, 58
3, 197444, Note_on_c, 0, 60, 0
3, 197444, Note_on_c, 0, 54, 0
3, 197476, Note_on_c, 0, 57, 0
3, 197484, Note_on_c, 0, 51, 59
3, 197488, Note_on_c, 0, 39, 53
3, 197504, Note_on_c, 0, 51, 0
3, 197508, Note_on_c, 0, 39, 0
3, 197564, Note_on_c, 0, 53, 52
3, 197564, Note_on_c, 0, 39, 49
3, 197564, Note_on_c, 0, 56, 46
3, 197564, Note_on_c, 0, 51, 60
3, 197564, Note_on_c, 0, 59, 65
3, 197596, Note_on_c, 0, 53, 0
3, 197604, Note_on_c, 0, 51, 0
3, 197604, Note_on_c, 0, 39, 0
3, 197604, Note_on_c, 0, 56, 0
3, 197620, Note_on_c, 0, 59, 0
3, 197720, Note_on_c, 0, 56, 36
3, 197720, Note_on_c, 0, 53, 58
3, 197720, Note_on_c, 0, 60, 73
3, 197744, Note_on_c, 0, 56, 0
3, 197748, Note_on_c, 0, 53, 0
3, 197760, Note_on_c, 0, 60, 0
3, 197860, Note_on_c, 0, 61, 62
3, 197860, Note_on_c, 0, 53, 64
3, 197860, Note_on_c, 0, 56, 58
3, 197860, Note_on_c, 0, 32, 61
3, 197860, Note_on_c, 0, 44, 53
3, 197880, Note_on_c, 0, 44, 0
3, 197892, Note_on_c, 0, 32, 0
3, 197916, Note_on_c, 0, 53, 0
3, 197928, Note_on_c, 0, 56, 0
3, 197936, Note_on_c, 0, 61, 0
3, 197940, Control_c, 0, 64, 24
3, 197948, Control_c, 0, 64, 40
3, 198016, Note_on_c, 0, 62, 67
3, 198016, Note_on_c, 0, 53, 62
3, 198016, Note_on_c, 0, 56, 57
3, 198044, Note_on_c, 0, 53, 0
3, 198052, Note_on_c, 0, 62, 0
3, 198060, Note_on_c, 0, 56, 0
3, 198072, Control_c, 0, 64, 56
3, 198144, Control_c, 0, 64, 40
3, 198152, Control_c, 0, 64, 24
3, 198160, Control_c, 0, 64, 0
3, 198168, Note_on_c, 0, 27, 35
3, 198172, Note_on_c, 0, 63, 69
3, 198172, Note_on_c, 0, 58, 50
3, 198172, Note_on_c, 0, 55, 53
3, 198172, Note_on_c, 0, 39, 46
3, 198232, Note_on_c, 0, 58, 0
3, 198236, Note_on_c, 0, 55, 0
3, 198256, Control_c, 0, 64, 24
3, 198268, Control_c, 0, 64, 56
3, 198276, Control_c, 0, 64, 72
3, 198284, Control_c, 0, 64, 88
3, 198288, Note_on_c, 0, 27, 0
3, 198320, Control_c, 0, 64, 104
3, 198340, Note_on_c, 0, 58, 49
3, 198344, Control_c, 0, 64, 127
3, 198352, Note_on_c, 0, 55, 39
3, 198356, Note_on_c, 0, 39, 0
3, 198400, Note_on_c, 0, 58, 0
3, 198408, Note_on_c, 0, 55, 0
3, 198496, Note_on_c, 0, 58, 43
3, 198504, Note_on_c, 0, 55, 53
3, 198532, Note_on_c, 0, 55, 0
3, 198540, Note_on_c, 0, 58, 0
3, 198636, Note_on_c, 0, 58, 38
3, 198640, Note_on_c, 0, 55, 51
3, 198668, Note_on_c, 0, 55, 0
3, 198672, Note_on_c, 0, 58, 0
3, 198708, Note_on_c, 0, 50, 73
3, 198748, Control_c, 0, 64, 104
3, 198756, Control_c, 0, 64, 72
3, 198760, Note_on_c, 0, 50, 0
3, 198764, Note_on_c, 0, 58, 49
3, 198768, Control_c, 0, 64, 40
3, 198776, Note_on_c, 0, 51, 77
3, 198776, Note_on_c, 0, 55, 50
3, 198776, Control_c, 0, 64, 0
3, 198836, Note_on_c, 0, 58, 0
3, 198840, Note_on_c, 0, 55, 0
3, 198844, Note_on_c, 0, 51, 0
3, 198844, Control_c, 0, 64, 24
3, 198852, Control_c, 0, 64, 40
3, 198864, Control_c, 0, 64, 72
3, 198900, Control_c, 0, 64, 56
3, 198908, Control_c, 0, 64, 24
3, 198916, Control_c, 0, 64, 0
3, 198936, Note_on_c, 0, 58, 41
3, 198940, Note_on_c, 0, 55, 50
3, 198992, Note_on_c, 0, 55, 0
3, 198996, Note_on_c, 0, 58, 0
3, 199080, Note_on_c, 0, 50, 67
3, 199088, Note_on_c, 0, 58, 39
3, 199092, Note_on_c, 0, 55, 47
3, 199132, Note_on_c, 0, 55, 0
3, 199132, Note_on_c, 0, 50, 0
3, 199136, Note_on_c, 0, 58, 0
3, 199160, Control_c, 0, 64, 24
3, 199188, Control_c, 0, 64, 40
3, 199212, Control_c, 0, 64, 56
3, 199236, Note_on_c, 0, 58, 35
3, 199240, Note_on_c, 0, 55, 52
3, 199240, Control_c, 0, 64, 72
3, 199268, Control_c, 0, 64, 88
3, 199272, Note_on_c, 0, 55, 0
3, 199272, Note_on_c, 0, 58, 0
3, 199336, Control_c, 0, 64, 56
3, 199348, Control_c, 0, 64, 40
3, 199356, Control_c, 0, 64, 0
3, 199392, Note_on_c, 0, 63, 0
3, 199400, Note_on_c, 0, 57, 52
3, 199400, Note_on_c, 0, 54, 50
3, 199400, Note_on_c, 0, 59, 54
3, 199400, Note_on_c, 0, 51, 65
3, 199400, Control_c, 0, 64, 24
3, 199404, Control_c, 0, 64, 56
3, 199424, Control_c, 0, 64, 72
3, 199432, Control_c, 0, 64, 88
3, 199448, Note_on_c, 0, 51, 0
3, 199456, Note_on_c, 0, 57, 0
3, 199456, Note_on_c, 0, 54, 0
3, 199472, Note_on_c, 0, 59, 0
3, 199520, Note_on_c, 0, 59, 58
3, 199520, Note_on_c, 0, 57, 34
3, 199520, Note_on_c, 0, 50, 67
3, 199520, Note_on_c, 0, 54, 62
3, 199524, Control_c, 0, 64, 104
3, 199556, Note_on_c, 0, 54, 0
3, 199564, Note_on_c, 0, 50, 0
3, 199564, Note_on_c, 0, 57, 0
3, 199568, Note_on_c, 0, 59, 0
3, 199652, Control_c, 0, 64, 56
3, 199660, Control_c, 0, 64, 40
3, 199664, Note_on_c, 0, 59, 49
3, 199664, Note_on_c, 0, 49, 67
3, 199664, Note_on_c, 0, 54, 58
3, 199664, Note_on_c, 0, 57, 54
3, 199672, Control_c, 0, 64, 24
3, 199692, Note_on_c, 0, 54, 0
3, 199696, Control_c, 0, 64, 56
3, 199700, Note_on_c, 0, 57, 0
3, 199704, Control_c, 0, 64, 72
3, 199716, Note_on_c, 0, 49, 0
3, 199716, Note_on_c, 0, 59, 0
3, 199716, Control_c, 0, 64, 88
3, 199724, Control_c, 0, 64, 104
3, 199732, Control_c, 0, 64, 127
3, 199812, Note_on_c, 0, 48, 77
3, 199812, Note_on_c, 0, 54, 46
3, 199812, Note_on_c, 0, 59, 51
3, 199812, Note_on_c, 0, 57, 51
3, 199812, Note_on_c, 0, 39, 62
3, 199832, Note_on_c, 0, 54, 0
3, 199844, Note_on_c, 0, 48, 0
3, 199876, Note_on_c, 0, 57, 0
3, 199876, Note_on_c, 0, 59, 0
3, 199876, Note_on_c, 0, 39, 0
3, 199956, Control_c, 0, 64, 104
3, 199968, Control_c, 0, 64, 56
3, 199976, Note_on_c, 0, 57, 53
3, 199976, Note_on_c, 0, 59, 53
3, 199976, Note_on_c, 0, 39, 61
3, 199976, Note_on_c, 0, 47, 51
3, 199976, Note_on_c, 0, 54, 54
3, 199980, Control_c, 0, 64, 24
3, 199988, Control_c, 0, 64, 0
3, 200016, Note_on_c, 0, 47, 0
3, 200028, Note_on_c, 0, 59, 0
3, 200040, Control_c, 0, 64, 40
3, 200048, Control_c, 0, 64, 72
3, 200056, Note_on_c, 0, 54, 0
3, 200056, Control_c, 0, 64, 88
3, 200060, Note_on_c, 0, 57, 0
3, 200064, Control_c, 0, 64, 104
3, 200132, Note_on_c, 0, 59, 58
3, 200132, Note_on_c, 0, 48, 73
3, 200132, Note_on_c, 0, 57, 43
3, 200132, Note_on_c, 0, 54, 46
3, 200156, Note_on_c, 0, 54, 0
3, 200172, Note_on_c, 0, 48, 0
3, 200172, Note_on_c, 0, 59, 0
3, 200180, Note_on_c, 0, 57, 0
3, 200284, Note_on_c, 0, 53, 36
3, 200284, Note_on_c, 0, 56, 44
3, 200284, Note_on_c, 0, 32, 58
3, 200284, Note_on_c, 0, 59, 45
3, 200284, Note_on_c, 0, 49, 56
3, 200308, Note_on_c, 0, 53, 0
3, 200312, Control_c, 0, 64, 127
3, 200316, Note_on_c, 0, 39, 0
3, 200340, Note_on_c, 0, 59, 0
3, 200340, Note_on_c, 0, 49, 0
3, 200344, Note_on_c, 0, 56, 0
3, 200348, Note_on_c, 0, 32, 0
3, 200412, Note_on_c, 0, 50, 66
3, 200412, Note_on_c, 0, 56, 43
3, 200412, Note_on_c, 0, 53, 45
3, 200412, Note_on_c, 0, 59, 58
3, 200436, Note_on_c, 0, 53, 0
3, 200440, Note_on_c, 0, 50, 0
3, 200456, Note_on_c, 0, 56, 0
3, 200456, Note_on_c, 0, 59, 0
3, 200604, Note_on_c, 0, 51, 60
3, 200608, Control_c, 0, 64, 104
3, 200616, Note_on_c, 0, 58, 45
3, 200616, Note_on_c, 0, 55, 53
3, 200616, Control_c, 0, 64, 72
3, 200620, Note_on_c, 0, 39, 49
3, 200624, Note_on_c, 0, 27, 59
3, 200628, Control_c, 0, 64, 24
3, 200636, Control_c, 0, 64, 0
3, 200740, Note_on_c, 0, 50, 51
3, 200744, Note_on_c, 0, 58, 28
3, 200744, Note_on_c, 0, 55, 38
3, 200824, Note_on_c, 0, 50, 0
3, 200832, Note_on_c, 0, 55, 0
3, 200836, Note_on_c, 0, 58, 0
3, 200872, Note_on_c, 0, 49, 49
3, 200872, Note_on_c, 0, 58, 38
3, 200872, Note_on_c, 0, 55, 52
3, 200920, Note_on_c, 0, 55, 0
3, 200920, Note_on_c, 0, 51, 0
3, 200932, Note_on_c, 0, 27, 0
3, 200936, Note_on_c, 0, 58, 0
3, 200944, Note_on_c, 0, 39, 0
3, 200968, Note_on_c, 0, 58, 0
3, 200968, Note_on_c, 0, 49, 0
3, 200968, Note_on_c, 0, 55, 0
3, 201000, Note_on_c, 0, 48, 53
3, 201004, Note_on_c, 0, 58, 38
3, 201004, Note_on_c, 0, 55, 46
3, 201088, Note_on_c, 0, 55, 0
3, 201088, Note_on_c, 0, 39, 57
3, 201092, Note_on_c, 0, 48, 0
3, 201096, Note_on_c, 0, 58, 0
3, 201104, Note_on_c, 0, 39, 0
3, 201136, Note_on_c, 0, 59, 65
3, 201136, Note_on_c, 0, 47, 60
3, 201140, Note_on_c, 0, 57, 49
3, 201140, Note_on_c, 0, 53, 60
3, 201140, Note_on_c, 0, 32, 51
3, 201212, Note_on_c, 0, 47, 0
3, 201220, Note_on_c, 0, 53, 0
3, 201224, Note_on_c, 0, 59, 0
3, 201224, Note_on_c, 0, 57, 0
3, 201264, Note_on_c, 0, 48, 62
3, 201264, Note_on_c, 0, 59, 47
3, 201264, Note_on_c, 0, 57, 42
3, 201272, Note_on_c, 0, 53, 42
3, 201340, Note_on_c, 0, 59, 0
3, 201340, Note_on_c, 0, 48, 0
3, 201344, Note_on_c, 0, 53, 0
3, 201352, Note_on_c, 0, 57, 0
3, 201356, Note_on_c, 0, 32, 0
3, 201384, Note_on_c, 0, 49, 53
3, 201388, Note_on_c, 0, 59, 49
3, 201388, Note_on_c, 0, 32, 43
3, 201388, Note_on_c, 0, 56, 34
3, 201392, Note_on_c, 0, 53, 43
3, 201456, Note_on_c, 0, 53, 0
3, 201460, Note_on_c, 0, 49, 0
3, 201464, Note_on_c, 0, 59, 0
3, 201468, Note_on_c, 0, 56, 0
3, 201504, Note_on_c, 0, 50, 53
3, 201504, Note_on_c, 0, 59, 47
3, 201504, Note_on_c, 0, 56, 38
3, 201508, Note_on_c, 0, 53, 35
3, 201576, Note_on_c, 0, 53, 0
3, 201588, Note_on_c, 0, 50, 0
3, 201592, Note_on_c, 0, 56, 0
3, 201616, Note_on_c, 0, 59, 0
3, 201636, Note_on_c, 0, 32, 0
3, 201636, Note_on_c, 0, 51, 44
3, 201636, Note_on_c, 0, 58, 45
3, 201636, Note_on_c, 0, 39, 44
3, 201640, Note_on_c, 0, 55, 49
3, 201688, Note_on_c, 0, 55, 0
3, 201720, Note_on_c, 0, 58, 0
3, 201728, Note_on_c, 0, 51, 0
3, 201752, Note_on_c, 0, 50, 53
3, 201756, Note_on_c, 0, 58, 43
3, 201756, Note_on_c, 0, 55, 43
3, 201828, Note_on_c, 0, 50, 0
3, 201836, Note_on_c, 0, 55, 0
3, 201840, Note_on_c, 0, 58, 0
3, 201852, Note_on_c, 0, 39, 0
3, 201876, Note_on_c, 0, 49, 50
3, 201876, Note_on_c, 0, 58, 43
3, 201880, Note_on_c, 0, 55, 51
3, 201956, Note_on_c, 0, 55, 0
3, 201956, Note_on_c, 0, 58, 0
3, 201956, Note_on_c, 0, 49, 0
3, 201984, Note_on_c, 0, 58, 44
3, 201988, Note_on_c, 0, 48, 56
3, 201988, Note_on_c, 0, 55, 52
3, 202044, Note_on_c, 0, 39, 58
3, 202052, Note_on_c, 0, 55, 0
3, 202056, Note_on_c, 0, 58, 0
3, 202056, Note_on_c, 0, 48, 0
3, 202064, Note_on_c, 0, 39, 0
3, 202096, Note_on_c, 0, 47, 53
3, 202096, Note_on_c, 0, 59, 53
3, 202100, Note_on_c, 0, 57, 45
3, 202100, Note_on_c, 0, 39, 53
3, 202100, Note_on_c, 0, 53, 57
3, 202152, Note_on_c, 0, 47, 0
3, 202168, Note_on_c, 0, 59, 0
3, 202168, Note_on_c, 0, 53, 0
3, 202168, Note_on_c, 0, 57, 0
3, 202196, Note_on_c, 0, 48, 59
3, 202196, Note_on_c, 0, 59, 49
3, 202200, Note_on_c, 0, 57, 43
3, 202204, Note_on_c, 0, 53, 47
3, 202256, Note_on_c, 0, 48, 0
3, 202264, Note_on_c, 0, 59, 0
3, 202272, Note_on_c, 0, 53, 0
3, 202280, Note_on_c, 0, 57, 0
3, 202308, Note_on_c, 0, 49, 50
3, 202312, Note_on_c, 0, 39, 0
3, 202312, Note_on_c, 0, 56, 36
3, 202312, Note_on_c, 0, 59, 47
3, 202312, Note_on_c, 0, 32, 42
3, 202312, Note_on_c, 0, 53, 53
3, 202364, Note_on_c, 0, 53, 0
3, 202368, Note_on_c, 0, 49, 0
3, 202372, Note_on_c, 0, 59, 0
3, 202376, Note_on_c, 0, 56, 0
3, 202416, Note_on_c, 0, 59, 45
3, 202420, Note_on_c, 0, 50, 46
3, 202420, Note_on_c, 0, 56, 44
3, 202424, Note_on_c, 0, 53, 42
3, 202500, Note_on_c, 0, 50, 0
3, 202504, Note_on_c, 0, 56, 0
3, 202504, Note_on_c, 0, 53, 0
3, 202504, Note_on_c, 0, 59, 0
3, 202548, Note_on_c, 0, 39, 61
3, 202552, Note_on_c, 0, 32, 0
3, 202688, Note_on_c, 0, 39, 0
3, 202944, Note_on_c, 0, 79, 50
3, 202944, Note_on_c, 0, 67, 47
3, 202944, Note_on_c, 0, 75, 53
3, 202944, Note_on_c, 0, 70, 51
3, 202944, Note_on_c, 0, 51, 39
3, 202948, Note_on_c, 0, 63, 34
3, 202948, Note_on_c, 0, 58, 34
3, 202964, Note_on_c, 0, 58, 0
3, 202964, Note_on_c, 0, 51, 0
3, 202964, Note_on_c, 0, 63, 0
3, 202968, Note_on_c, 0, 75, 0
3, 202968, Note_on_c, 0, 79, 0
3, 202968, Note_on_c, 0, 67, 0
3, 202968, Note_on_c, 0, 70, 0
3, 202968, Control_c, 0, 64, 24
3, 202968, Control_c, 0, 64, 40
3, 202972, Control_c, 0, 64, 56
3, 202984, Control_c, 0, 64, 72
3, 203004, Note_on_c, 0, 79, 62
3, 203004, Control_c, 0, 64, 88
3, 203008, Note_on_c, 0, 67, 54
3, 203008, Note_on_c, 0, 75, 58
3, 203008, Note_on_c, 0, 70, 52
3, 203008, Note_on_c, 0, 51, 46
3, 203008, Note_on_c, 0, 63, 38
3, 203012, Note_on_c, 0, 58, 34
3, 203024, Control_c, 0, 64, 72
3, 203028, Control_c, 0, 64, 56
3, 203032, Control_c, 0, 64, 40
3, 203032, Control_c, 0, 64, 24
3, 203036, Control_c, 0, 64, 0
3, 203228, Note_on_c, 0, 58, 0
3, 203228, Note_on_c, 0, 51, 0
3, 203228, Note_on_c, 0, 67, 0
3, 203228, Note_on_c, 0, 63, 0
3, 203232, Note_on_c, 0, 79, 0
3, 203232, Note_on_c, 0, 70, 0
3, 203232, Note_on_c, 0, 75, 0
3, 203468, Note_on_c, 0, 39, 53
3, 203480, Control_c, 0, 64, 24
3, 203484, Control_c, 0, 64, 56
3, 203484, Control_c, 0, 64, 88
3, 203488, Control_c, 0, 64, 104
3, 203488, Control_c, 0, 64, 127
3, 203520, Note_on_c, 0, 39, 0
3, 203668, Control_c, 0, 64, 104
3, 203676, Control_c, 0, 64, 88
3, 203680, Control_c, 0, 64, 72
3, 203684, Control_c, 0, 64, 56
3, 203688, Control_c, 0, 64, 40
3, 203692, Control_c, 0, 64, 24
3, 203696, Control_c, 0, 64, 0
3, 203824, Control_c, 0, 64, 40
3, 203828, Control_c, 0, 64, 56
3, 203832, Control_c, 0, 64, 88
3, 203836, Control_c, 0, 64, 104
3, 203840, Control_c, 0, 64, 127
3, 203864, Note_on_c, 0, 82, 67
3, 203864, Note_on_c, 0, 70, 57
3, 203868, Note_on_c, 0, 67, 45
3, 203868, Note_on_c, 0, 63, 41
3, 203868, Note_on_c, 0, 75, 57
3, 203868, Note_on_c, 0, 79, 58
3, 203868, Note_on_c, 0, 55, 43
3, 203868, Note_on_c, 0, 58, 35
3, 203876, Note_on_c, 0, 79, 0
3, 203880, Note_on_c, 0, 70, 0
3, 203880, Note_on_c, 0, 75, 0
3, 203880, Note_on_c, 0, 55, 0
3, 203884, Note_on_c, 0, 63, 0
3, 203884, Note_on_c, 0, 58, 0
3, 203884, Note_on_c, 0, 67, 0
3, 203888, Note_on_c, 0, 82, 0
3, 203912, Note_on_c, 0, 82, 69
3, 203916, Note_on_c, 0, 70, 58
3, 203916, Note_on_c, 0, 67, 41
3, 203920, Note_on_c, 0, 75, 62
3, 203920, Note_on_c, 0, 63, 37
3, 203920, Note_on_c, 0, 79, 62
3, 203920, Note_on_c, 0, 55, 39
3, 203920, Note_on_c, 0, 58, 33
3, 203920, Control_c, 0, 64, 104
3, 203924, Control_c, 0, 64, 72
3, 203928, Control_c, 0, 64, 56
3, 203932, Control_c, 0, 64, 127
3, 203940, Note_on_c, 0, 55, 0
3, 203944, Note_on_c, 0, 58, 0
3, 203944, Note_on_c, 0, 67, 0
3, 203944, Note_on_c, 0, 63, 0
3, 203948, Note_on_c, 0, 75, 0
3, 203948, Note_on_c, 0, 70, 0
3, 203952, Note_on_c, 0, 79, 0
3, 203952, Note_on_c, 0, 82, 0
3, 204072, Control_c, 0, 64, 104
3, 204092, Control_c, 0, 64, 88
3, 204104, Control_c, 0, 64, 72
3, 204128, Control_c, 0, 64, 56
3, 204136, Control_c, 0, 64, 40
3, 204140, Control_c, 0, 64, 24
3, 204140, Control_c, 0, 64, 0
3, 204288, Note_on_c, 0, 39, 53
3, 204296, Control_c, 0, 64, 24
3, 204296, Control_c, 0, 64, 56
3, 204300, Control_c, 0, 64, 88
3, 204304, Control_c, 0, 64, 104
3, 204304, Control_c, 0, 64, 127
3, 204312, Note_on_c, 0, 39, 0
3, 204392, Control_c, 0, 64, 104
3, 204392, Control_c, 0, 64, 88
3, 204396, Control_c, 0, 64, 72
3, 204400, Control_c, 0, 64, 40
3, 204400, Control_c, 0, 64, 24
3, 204404, Control_c, 0, 64, 0
3, 204672, Note_on_c, 0, 87, 60
3, 204672, Note_on_c, 0, 82, 51
3, 204672, Note_on_c, 0, 79, 55
3, 204672, Note_on_c, 0, 75, 54
3, 204672, Note_on_c, 0, 70, 55
3, 204672, Note_on_c, 0, 67, 55
3, 204672, Note_on_c, 0, 63, 55
3, 204672, Note_on_c, 0, 58, 55
3, 204732, Note_on_c, 0, 75, 55
3, 204732, Note_on_c, 0, 79, 56
3, 204732, Note_on_c, 0, 82, 55
3, 204732, Note_on_c, 0, 70, 55
3, 204732, Note_on_c, 0, 67, 54
3, 204732, Note_on_c, 0, 63, 54
3, 204732, Note_on_c, 0, 58, 54
3, 204732, Note_on_c, 0, 87, 60
3, 204928, Note_on_c, 0, 58, 0
3, 204928, Note_on_c, 0, 63, 0
3, 204928, Note_on_c, 0, 75, 0
3, 204928, Note_on_c, 0, 87, 0
3, 204928, Note_on_c, 0, 79, 0
3, 204928, Note_on_c, 0, 67, 0
3, 204928, Note_on_c, 0, 82, 0
3, 204928, Note_on_c, 0, 70, 0
3, 204952, Note_on_c, 0, 58, 55
3, 204952, Note_on_c, 0, 63, 55
3, 204952, Note_on_c, 0, 67, 54
3, 204952, Note_on_c, 0, 70, 55
3, 204952, Note_on_c, 0, 75, 55
3, 204952, Note_on_c, 0, 79, 54
3, 204952, Note_on_c, 0, 82, 55
3, 204952, Note_on_c, 0, 75, 60
3, 204952, Note_on_c, 0, 87, 57
3, 205176, Note_on_c, 0, 87, 60
3, 205176, Note_on_c, 0, 82, 55
3, 205176, Note_on_c, 0, 79, 55
3, 205176, Note_on_c, 0, 75, 55
3, 205176, Note_on_c, 0, 70, 55
3, 205176, Note_on_c, 0, 67, 55
3, 205176, Note_on_c, 0, 63, 55
3, 205176, Note_on_c, 0, 58, 55
3, 205208, Note_on_c, 0, 75, 0
3, 205372, Note_on_c, 0, 58, 0
3, 205372, Note_on_c, 0, 67, 0
3, 205372, Note_on_c, 0, 87, 0
3, 205372, Note_on_c, 0, 63, 0
3, 205372, Note_on_c, 0, 75, 0
3, 205372, Note_on_c, 0, 79, 0
3, 205372, Note_on_c, 0, 70, 0
3, 205372, Note_on_c, 0, 82, 0
3, 205396, Note_on_c, 0, 39, 55
3, 205396, Note_on_c, 0, 51, 55
3, 205396, Note_on_c, 0, 75, 55
3, 205396, Note_on_c, 0, 79, 55
3, 205396, Note_on_c, 0, 82, 55
3, 205396, Note_on_c, 0, 87, 60
3, 205432, Note_on_c, 0, 75, 0
3, 205432, Note_on_c, 0, 87, 0
3, 205432, Note_on_c, 0, 58, 0
3, 205432, Note_on_c, 0, 63, 0
3, 205432, Note_on_c, 0, 67, 0
3, 205432, Note_on_c, 0, 70, 0
3, 205432, Note_on_c, 0, 79, 0
3, 205432, Note_on_c, 0, 82, 0
3, 205548, Note_on_c, 0, 46, 55
3, 205548, Note_on_c, 0, 34, 55
3, 205592, Note_on_c, 0, 70, 0
3, 205592, Note_on_c, 0, 58, 0
3, 205592, Note_on_c, 0, 63, 0
3, 205592, Note_on_c, 0, 67, 0
3, 205592, Note_on_c, 0, 75, 0
3, 205592, Note_on_c, 0, 87, 0
3, 205592, Note_on_c, 0, 79, 0
3, 205592, Note_on_c, 0, 82, 0
3, 205608, Note_on_c, 0, 39, 55
3, 205608, Note_on_c, 0, 51, 55
3, 205608, Note_on_c, 0, 75, 55
3, 205608, Note_on_c, 0, 79, 55
3, 205608, Note_on_c, 0, 82, 55
3, 205608, Note_on_c, 0, 87, 60
3, 205652, Note_on_c, 0, 51, 0
3, 205652, Note_on_c, 0, 39, 0
3, 205652, Note_on_c, 0, 75, 0
3, 205652, Note_on_c, 0, 79, 0
3, 205652, Note_on_c, 0, 87, 0
3, 205652, Note_on_c, 0, 82, 0
3, 205804, Note_on_c, 0, 34, 0
3, 205804, Note_on_c, 0, 46, 0
3, 205832, Note_on_c, 0, 87, 60
3, 205832, Note_on_c, 0, 82, 55
3, 205832, Note_on_c, 0, 79, 55
3, 205832, Note_on_c, 0, 75, 55
3, 205832, Note_on_c, 0, 46, 55
3, 205832, Note_on_c, 0, 34, 55
3, 205864, Note_on_c, 0, 75, 0
3, 205864, Note_on_c, 0, 39, 0
3, 205864, Note_on_c, 0, 79, 0
3, 205864, Note_on_c, 0, 82, 0
3, 205864, Note_on_c, 0, 87, 0
3, 205864, Note_on_c, 0, 51, 0
3, 206060, Note_on_c, 0, 87, 65
3, 206060, Note_on_c, 0, 82, 65
3, 206060, Note_on_c, 0, 79, 65
3, 206060, Note_on_c, 0, 75, 65
3, 206080, Note_on_c, 0, 34, 0
3, 206088, Note_on_c, 0, 87, 0
3, 206088, Note_on_c, 0, 75, 0
3, 206088, Note_on_c, 0, 46, 0
3, 206088, Note_on_c, 0, 82, 0
3, 206088, Note_on_c, 0, 79, 0
3, 206268, Note_on_c, 0, 51, 64
3, 206268, Note_on_c, 0, 39, 65
3, 206424, Note_on_c, 0, 46, 65
3, 206424, Note_on_c, 0, 34, 65
3, 206480, Note_on_c, 0, 51, 65
3, 206480, Note_on_c, 0, 39, 65
3, 206524, Note_on_c, 0, 39, 0
3, 206524, Note_on_c, 0, 51, 0
3, 206656, Note_on_c, 0, 46, 65
3, 206656, Note_on_c, 0, 34, 65
3, 206680, Note_on_c, 0, 34, 0
3, 206680, Note_on_c, 0, 46, 0
3, 206700, Note_on_c, 0, 79, 0
3, 206700, Note_on_c, 0, 75, 0
3, 206700, Note_on_c, 0, 82, 0
3, 206700, Note_on_c, 0, 87, 0
3, 206736, Note_on_c, 0, 39, 0
3, 206736, Note_on_c, 0, 51, 0
3, 206832, Note_on_c, 0, 51, 65
3, 206832, Note_on_c, 0, 39, 65
3, 206912, Note_on_c, 0, 34, 0
3, 206912, Note_on_c, 0, 46, 0
3, 207012, Note_on_c, 0, 46, 65
3, 207012, Note_on_c, 0, 34, 65
3, 207088, Note_on_c, 0, 51, 0
3, 207088, Note_on_c, 0, 39, 0
3, 207188, Note_on_c, 0, 51, 65
3, 207188, Note_on_c, 0, 39, 65
3, 207264, Note_on_c, 0, 46, 0
3, 207264, Note_on_c, 0, 34, 0
3, 207360, Note_on_c, 0, 46, 65
3, 207360, Note_on_c, 0, 34, 65
3, 207440, Note_on_c, 0, 51, 0
3, 207440, Note_on_c, 0, 39, 0
3, 207552, Note_on_c, 0, 51, 65
3, 207552, Note_on_c, 0, 39, 65
3, 207616, Note_on_c, 0, 46, 0
3, 207616, Note_on_c, 0, 34, 0
3, 207808, Note_on_c, 0, 51, 0
3, 207808, Note_on_c, 0, 39, 0
3, 208796, Control_c, 0, 64, 24
3, 209320, Note_on_c, 0, 51, 55
3, 209332, Note_on_c, 0, 39, 46
3, 209420, Control_c, 0, 66, 127
3, 209608, Note_on_c, 0, 39, 0
3, 209612, Control_c, 0, 66, 0
3, 209616, Note_on_c, 0, 52, 73
3, 209620, Note_on_c, 0, 40, 52
3, 209632, Note_on_c, 0, 51, 0
3, 209668, Control_c, 0, 66, 127
3, 209696, Note_on_c, 0, 52, 0
3, 209716, Note_on_c, 0, 40, 0
3, 209716, Note_on_c, 0, 56, 70
3, 209724, Note_on_c, 0, 44, 49
3, 209736, Control_c, 0, 66, 0
3, 209844, Control_c, 0, 66, 127
3, 210036, Note_on_c, 0, 55, 80
3, 210040, Note_on_c, 0, 56, 0
3, 210044, Note_on_c, 0, 44, 0
3, 210052, Note_on_c, 0, 43, 45
3, 210068, Control_c, 0, 66, 0
3, 210156, Control_c, 0, 66, 127
3, 210188, Control_c, 0, 66, 0
3, 210280, Note_on_c, 0, 56, 82
3, 210284, Note_on_c, 0, 43, 0
3, 210284, Note_on_c, 0, 44, 61
3, 210292, Note_on_c, 0, 55, 0
3, 210312, Control_c, 0, 66, 127
3, 210376, Note_on_c, 0, 56, 0
3, 210384, Note_on_c, 0, 44, 0
3, 210384, Note_on_c, 0, 59, 81
3, 210388, Control_c, 0, 66, 0
3, 210392, Note_on_c, 0, 47, 63
3, 210580, Control_c, 0, 64, 40
3, 210588, Control_c, 0, 64, 56
3, 210596, Control_c, 0, 64, 88
3, 210604, Control_c, 0, 64, 104
3, 210612, Control_c, 0, 64, 127
3, 210700, Note_on_c, 0, 58, 73
3, 210704, Note_on_c, 0, 59, 0
3, 210704, Control_c, 0, 64, 104
3, 210708, Note_on_c, 0, 47, 0
3, 210712, Note_on_c, 0, 46, 59
3, 210712, Control_c, 0, 64, 88
3, 210720, Control_c, 0, 64, 72
3, 210728, Control_c, 0, 64, 24
3, 210736, Control_c, 0, 64, 0
3, 210812, Control_c, 0, 64, 40
3, 210824, Control_c, 0, 64, 88
3, 210828, Control_c, 0, 64, 104
3, 210836, Control_c, 0, 64, 127
3, 210936, Note_on_c, 0, 46, 0
3, 210948, Note_on_c, 0, 59, 79
3, 210952, Note_on_c, 0, 58, 0
3, 210952, Control_c, 0, 64, 88
3, 210960, Note_on_c, 0, 47, 63
3, 210960, Control_c, 0, 64, 24
3, 210968, Control_c, 0, 64, 0
3, 211008, Control_c, 0, 64, 24
3, 211016, Control_c, 0, 64, 72
3, 211024, Control_c, 0, 64, 104
3, 211028, Control_c, 0, 64, 127
3, 211064, Note_on_c, 0, 47, 0
3, 211084, Note_on_c, 0, 59, 0
3, 211088, Note_on_c, 0, 63, 74
3, 211088, Note_on_c, 0, 51, 58
3, 211124, Control_c, 0, 64, 104
3, 211132, Control_c, 0, 64, 72
3, 211140, Control_c, 0, 64, 40
3, 211148, Control_c, 0, 64, 0
3, 211316, Control_c, 0, 64, 40
3, 211324, Control_c, 0, 64, 72
3, 211332, Control_c, 0, 64, 104
3, 211340, Control_c, 0, 64, 127
3, 211488, Control_c, 0, 64, 72
3, 211496, Control_c, 0, 64, 24
3, 211504, Control_c, 0, 64, 0
3, 211540, Control_c, 0, 64, 40
3, 211548, Control_c, 0, 64, 72
3, 211560, Control_c, 0, 64, 104
3, 211564, Control_c, 0, 64, 127
3, 211788, Note_on_c, 0, 61, 60
3, 211792, Note_on_c, 0, 51, 0
3, 211796, Note_on_c, 0, 63, 0
3, 211796, Note_on_c, 0, 49, 49
3, 211828, Control_c, 0, 64, 88
3, 211836, Control_c, 0, 64, 40
3, 211844, Control_c, 0, 64, 0
3, 211904, Control_c, 0, 64, 24
3, 211912, Control_c, 0, 64, 72
3, 211920, Control_c, 0, 64, 104
3, 211928, Control_c, 0, 64, 127
3, 212092, Note_on_c, 0, 61, 0
3, 212100, Note_on_c, 0, 58, 52
3, 212108, Note_on_c, 0, 49, 0
3, 212108, Note_on_c, 0, 46, 42
3, 212148, Control_c, 0, 64, 88
3, 212152, Control_c, 0, 64, 40
3, 212160, Control_c, 0, 64, 0
3, 212216, Control_c, 0, 64, 40
3, 212224, Control_c, 0, 64, 104
3, 212232, Control_c, 0, 64, 127
3, 212420, Note_on_c, 0, 46, 0
3, 212428, Note_on_c, 0, 43, 43
3, 212432, Note_on_c, 0, 58, 0
3, 212432, Note_on_c, 0, 55, 46
3, 212480, Control_c, 0, 64, 104
3, 212488, Control_c, 0, 64, 56
3, 212496, Control_c, 0, 64, 0
3, 212548, Control_c, 0, 64, 72
3, 212556, Control_c, 0, 64, 127
3, 212740, Note_on_c, 0, 55, 0
3, 212744, Note_on_c, 0, 43, 0
3, 212764, Note_on_c, 0, 40, 44
3, 212764, Note_on_c, 0, 52, 48
3, 212796, Control_c, 0, 64, 88
3, 212804, Control_c, 0, 64, 40
3, 212812, Control_c, 0, 64, 0
3, 212860, Control_c, 0, 64, 24
3, 212868, Control_c, 0, 64, 88
3, 212876, Control_c, 0, 64, 127
3, 212896, Note_on_c, 0, 52, 0
3, 212896, Note_on_c, 0, 40, 0
3, 213120, Note_on_c, 0, 63, 52
3, 213124, Note_on_c, 0, 58, 47
3, 213124, Note_on_c, 0, 51, 47
3, 213124, Note_on_c, 0, 39, 46
3, 213128, Note_on_c, 0, 55, 44
3, 213160, Control_c, 0, 64, 104
3, 213168, Control_c, 0, 64, 56
3, 213176, Control_c, 0, 64, 0
3, 213208, Control_c, 0, 64, 24
3, 213216, Control_c, 0, 64, 88
3, 213224, Control_c, 0, 64, 127
3, 213284, Note_on_c, 0, 51, 0
3, 213288, Note_on_c, 0, 39, 0
3, 213304, Note_on_c, 0, 63, 0
3, 213336, Note_on_c, 0, 58, 0
3, 213380, Note_on_c, 0, 55, 0
3, 213384, Note_on_c, 0, 64, 78
3, 213388, Control_c, 0, 64, 88
3, 213392, Control_c, 0, 64, 0
3, 213420, Note_on_c, 0, 37, 65
3, 213432, Note_on_c, 0, 64, 0
3, 213432, Control_c, 0, 64, 72
3, 213440, Control_c, 0, 64, 127
3, 213476, Note_on_c, 0, 37, 0
3, 213512, Note_on_c, 0, 58, 48
3, 213528, Note_on_c, 0, 52, 46
3, 213552, Note_on_c, 0, 68, 83
3, 213588, Control_c, 0, 64, 72
3, 213596, Control_c, 0, 64, 40
3, 213604, Control_c, 0, 64, 56
3, 213612, Control_c, 0, 64, 88
3, 213620, Control_c, 0, 64, 127
3, 213864, Note_on_c, 0, 68, 0
3, 213876, Note_on_c, 0, 66, 74
3, 213992, Note_on_c, 0, 58, 0
3, 214000, Note_on_c, 0, 52, 0
3, 214088, Note_on_c, 0, 66, 0
3, 214112, Note_on_c, 0, 68, 77
3, 214172, Note_on_c, 0, 68, 0
3, 214228, Note_on_c, 0, 71, 89
3, 214232, Note_on_c, 0, 64, 64
3, 214236, Note_on_c, 0, 59, 55
3, 214244, Note_on_c, 0, 56, 38
3, 214252, Note_on_c, 0, 49, 41
3, 214284, Control_c, 0, 64, 72
3, 214292, Control_c, 0, 64, 0
3, 214348, Control_c, 0, 64, 56
3, 214356, Control_c, 0, 64, 127
3, 214364, Note_on_c, 0, 64, 0
3, 214420, Note_on_c, 0, 59, 0
3, 214492, Note_on_c, 0, 71, 0
3, 214556, Note_on_c, 0, 70, 81
3, 214656, Note_on_c, 0, 56, 0
3, 214676, Note_on_c, 0, 49, 0
3, 214716, Note_on_c, 0, 70, 0
3, 214800, Note_on_c, 0, 71, 77
3, 214832, Control_c, 0, 64, 24
3, 214840, Control_c, 0, 64, 0
3, 214880, Control_c, 0, 64, 104
3, 214888, Control_c, 0, 64, 127
3, 214936, Note_on_c, 0, 71, 0
3, 214972, Control_c, 0, 64, 0
3, 214980, Note_on_c, 0, 75, 79
3, 214980, Note_on_c, 0, 64, 58
3, 214980, Note_on_c, 0, 58, 58
3, 214980, Note_on_c, 0, 42, 58
3, 214980, Control_c, 0, 64, 127
3, 215012, Note_on_c, 0, 42, 0
3, 215560, Note_on_c, 0, 75, 0
3, 215784, Note_on_c, 0, 73, 74
3, 215820, Note_on_c, 0, 64, 0
3, 215824, Note_on_c, 0, 58, 0
3, 216036, Note_on_c, 0, 73, 0
3, 216072, Note_on_c, 0, 70, 75
3, 216356, Note_on_c, 0, 70, 0
3, 216376, Note_on_c, 0, 68, 60
3, 216656, Note_on_c, 0, 68, 0
3, 216668, Note_on_c, 0, 64, 65
3, 216724, Control_c, 0, 64, 56
3, 216732, Control_c, 0, 64, 0
3, 216768, Control_c, 0, 64, 72
3, 216776, Control_c, 0, 64, 127
3, 216932, Note_on_c, 0, 64, 0
3, 216944, Note_on_c, 0, 63, 61
3, 216980, Control_c, 0, 64, 88
3, 216988, Control_c, 0, 64, 0
3, 217032, Control_c, 0, 64, 56
3, 217040, Control_c, 0, 64, 127
3, 217240, Note_on_c, 0, 63, 0
3, 217244, Note_on_c, 0, 61, 54
3, 217272, Control_c, 0, 64, 88
3, 217280, Control_c, 0, 64, 24
3, 217288, Control_c, 0, 64, 0
3, 217344, Control_c, 0, 64, 72
3, 217352, Control_c, 0, 64, 127
3, 217544, Note_on_c, 0, 61, 0
3, 217552, Note_on_c, 0, 56, 48
3, 217616, Control_c, 0, 64, 104
3, 217624, Control_c, 0, 64, 88
3, 217628, Control_c, 0, 64, 40
3, 217636, Control_c, 0, 64, 0
3, 217724, Control_c, 0, 64, 24
3, 217728, Control_c, 0, 64, 56
3, 217740, Control_c, 0, 64, 72
3, 217748, Control_c, 0, 64, 88
3, 217764, Control_c, 0, 64, 104
3, 217808, Control_c, 0, 64, 127
3, 218140, Note_on_c, 0, 56, 0
3, 218216, Note_on_c, 0, 58, 35
3, 218320, Control_c, 0, 64, 88
3, 218328, Control_c, 0, 64, 40
3, 218336, Control_c, 0, 64, 0
3, 218668, Note_on_c, 0, 58, 0
3, 248788, Control_c, 0, 64, 24
3, 248796, Control_c, 0, 64, 40
3, 248804, Control_c, 0, 64, 56
3, 248812, Control_c, 0, 64, 72
3, 248820, Control_c, 0, 64, 88
3, 248828, Control_c, 0, 64, 104
3, 248848, Control_c, 0, 64, 127
3, 249012, Note_on_c, 0, 63, 55
3, 249012, Note_on_c, 0, 59, 42
3, 249012, Note_on_c, 0, 47, 45
3, 249052, Control_c, 0, 64, 104
3, 249060, Control_c, 0, 64, 56
3, 249076, Control_c, 0, 64, 88
3, 249088, Control_c, 0, 64, 127
3, 249108, Note_on_c, 0, 59, 0
3, 249220, Note_on_c, 0, 63, 0
3, 249284, Note_on_c, 0, 64, 74
3, 249284, Note_on_c, 0, 61, 52
3, 249284, Note_on_c, 0, 58, 42
3, 249300, Note_on_c, 0, 61, 0
3, 249328, Note_on_c, 0, 64, 0
3, 249344, Note_on_c, 0, 58, 0
3, 249396, Note_on_c, 0, 68, 82
3, 249396, Note_on_c, 0, 63, 45
3, 249396, Note_on_c, 0, 57, 48
3, 249460, Control_c, 0, 64, 88
3, 249468, Control_c, 0, 64, 24
3, 249480, Control_c, 0, 64, 0
3, 249544, Control_c, 0, 64, 24
3, 249556, Control_c, 0, 64, 88
3, 249564, Control_c, 0, 64, 127
3, 249672, Note_on_c, 0, 68, 0
3, 249724, Note_on_c, 0, 66, 74
3, 249776, Control_c, 0, 64, 88
3, 249784, Control_c, 0, 64, 0
3, 249820, Control_c, 0, 64, 40
3, 249828, Control_c, 0, 64, 104
3, 249836, Control_c, 0, 64, 127
3, 249892, Note_on_c, 0, 63, 0
3, 249952, Note_on_c, 0, 66, 0
3, 249988, Note_on_c, 0, 68, 74
3, 250052, Note_on_c, 0, 57, 0
3, 250072, Note_on_c, 0, 68, 0
3, 250096, Note_on_c, 0, 56, 43
3, 250100, Note_on_c, 0, 71, 83
3, 250100, Note_on_c, 0, 62, 49
3, 250100, Note_on_c, 0, 65, 46
3, 250152, Control_c, 0, 64, 72
3, 250160, Control_c, 0, 64, 0
3, 250212, Control_c, 0, 64, 72
3, 250220, Control_c, 0, 64, 127
3, 250264, Note_on_c, 0, 62, 0
3, 250292, Note_on_c, 0, 71, 0
3, 250296, Note_on_c, 0, 65, 0
3, 250320, Note_on_c, 0, 56, 0
3, 250448, Note_on_c, 0, 73, 90
3, 250448, Note_on_c, 0, 64, 61
3, 250448, Note_on_c, 0, 55, 56
3, 250448, Note_on_c, 0, 58, 42
3, 250516, Control_c, 0, 64, 104
3, 250528, Control_c, 0, 64, 0
3, 250584, Control_c, 0, 64, 40
3, 250592, Control_c, 0, 64, 127
3, 250624, Note_on_c, 0, 55, 0
3, 250624, Note_on_c, 0, 47, 0
3, 250648, Note_on_c, 0, 64, 0
3, 250672, Note_on_c, 0, 58, 0
3, 250704, Note_on_c, 0, 73, 0
3, 250724, Note_on_c, 0, 47, 51
3, 250752, Note_on_c, 0, 54, 64
3, 250764, Control_c, 0, 64, 104
3, 250772, Control_c, 0, 64, 24
3, 250780, Control_c, 0, 64, 0
3, 250788, Note_on_c, 0, 59, 61
3, 250792, Control_c, 0, 64, 24
3, 250800, Control_c, 0, 64, 72
3, 250808, Control_c, 0, 64, 127
3, 250816, Note_on_c, 0, 63, 66
3, 250904, Note_on_c, 0, 75, 92
3, 251012, Control_c, 0, 64, 40
3, 251020, Control_c, 0, 64, 0
3, 251064, Control_c, 0, 64, 40
3, 251072, Control_c, 0, 64, 88
3, 251080, Control_c, 0, 64, 127
3, 251260, Note_on_c, 0, 47, 0
3, 251268, Note_on_c, 0, 59, 0
3, 251276, Note_on_c, 0, 54, 0
3, 251324, Note_on_c, 0, 63, 0
3, 251332, Note_on_c, 0, 75, 0
3, 251908, Note_on_c, 0, 63, 86
3, 251916, Control_c, 0, 64, 104
3, 251920, Control_c, 0, 64, 88
3, 251932, Control_c, 0, 64, 56
3, 251940, Control_c, 0, 64, 0
3, 252032, Control_c, 0, 64, 40
3, 252040, Control_c, 0, 64, 88
3, 252052, Control_c, 0, 64, 104
3, 252060, Control_c, 0, 64, 127
3, 252148, Note_on_c, 0, 63, 0
3, 252172, Note_on_c, 0, 61, 82
3, 252268, Note_on_c, 0, 61, 0
3, 252280, Note_on_c, 0, 59, 85
3, 252340, Control_c, 0, 64, 88
3, 252348, Control_c, 0, 64, 40
3, 252356, Control_c, 0, 64, 0
3, 252444, Control_c, 0, 64, 40
3, 252452, Control_c, 0, 64, 72
3, 252460, Control_c, 0, 64, 104
3, 252468, Control_c, 0, 64, 127
3, 252644, Note_on_c, 0, 51, 85
3, 252648, Note_on_c, 0, 59, 0
3, 252688, Control_c, 0, 64, 104
3, 252700, Control_c, 0, 64, 88
3, 252708, Control_c, 0, 64, 56
3, 252716, Control_c, 0, 64, 24
3, 252724, Control_c, 0, 64, 0
3, 252792, Control_c, 0, 64, 24
3, 252800, Control_c, 0, 64, 56
3, 252816, Control_c, 0, 64, 72
3, 252824, Control_c, 0, 64, 88
3, 252836, Control_c, 0, 64, 104
3, 252876, Control_c, 0, 64, 127
3, 253040, Control_c, 0, 64, 104
3, 253044, Note_on_c, 0, 51, 0
3, 253064, Control_c, 0, 64, 88
3, 253072, Control_c, 0, 64, 72
3, 253080, Control_c, 0, 64, 56
3, 253088, Control_c, 0, 64, 40
3, 253096, Control_c, 0, 64, 24
3, 253108, Control_c, 0, 64, 0
3, 253404, Control_c, 0, 64, 24
3, 253412, Control_c, 0, 64, 40
3, 253424, Control_c, 0, 64, 56
3, 253480, Control_c, 0, 64, 72
3, 253508, Control_c, 0, 64, 88
3, 253576, Note_on_c, 0, 56, 74
3, 253576, Control_c, 0, 64, 56
3, 253584, Control_c, 0, 64, 24
3, 253592, Control_c, 0, 64, 0
3, 253644, Control_c, 0, 64, 24
3, 253652, Control_c, 0, 64, 56
3, 253660, Control_c, 0, 64, 88
3, 253668, Control_c, 0, 64, 127
3, 253736, Note_on_c, 0, 61, 71
3, 253740, Note_on_c, 0, 58, 60
3, 253744, Note_on_c, 0, 55, 69
3, 253748, Control_c, 0, 64, 24
3, 253752, Note_on_c, 0, 58, 72
3, 253752, Note_on_c, 0, 61, 75
3, 253752, Control_c, 0, 64, 72
3, 253760, Note_on_c, 0, 58, 67
3, 253760, Note_on_c, 0, 55, 78
3, 253760, Note_on_c, 0, 61, 69
3, 253760, Note_on_c, 0, 55, 78
3, 253760, Control_c, 0, 64, 104
3, 253764, Control_c, 0, 64, 127
3, 253800, Note_on_c, 0, 55, 0
3, 253804, Note_on_c, 0, 55, 0
3, 253804, Note_on_c, 0, 58, 0
3, 253804, Note_on_c, 0, 64, 76
3, 253808, Note_on_c, 0, 58, 0
3, 253812, Note_on_c, 0, 58, 0
3, 253812, Note_on_c, 0, 56, 0
3, 253816, Note_on_c, 0, 61, 0
3, 253816, Note_on_c, 0, 55, 0
3, 253832, Note_on_c, 0, 61, 0
3, 253832, Note_on_c, 0, 61, 0
3, 253848, Note_on_c, 0, 64, 0
3, 253856, Note_on_c, 0, 61, 60
3, 253860, Note_on_c, 0, 55, 50
3, 253860, Note_on_c, 0, 58, 47
3, 253900, Note_on_c, 0, 55, 0
3, 253904, Note_on_c, 0, 58, 0
3, 253904, Note_on_c, 0, 61, 0
3, 253908, Note_on_c, 0, 64, 78
3, 253944, Note_on_c, 0, 64, 0
3, 253952, Note_on_c, 0, 61, 66
3, 253956, Note_on_c, 0, 55, 62
3, 253956, Note_on_c, 0, 58, 50
3, 253984, Note_on_c, 0, 55, 0
3, 253992, Note_on_c, 0, 58, 0
3, 253992, Note_on_c, 0, 61, 0
3, 253996, Note_on_c, 0, 64, 76
3, 254036, Note_on_c, 0, 64, 0
3, 254044, Note_on_c, 0, 61, 63
3, 254048, Note_on_c, 0, 58, 46
3, 254048, Note_on_c, 0, 55, 55
3, 254072, Note_on_c, 0, 55, 0
3, 254080, Note_on_c, 0, 58, 0
3, 254080, Note_on_c, 0, 61, 0
3, 254084, Note_on_c, 0, 64, 83
3, 254124, Note_on_c, 0, 64, 0
3, 254136, Note_on_c, 0, 61, 67
3, 254136, Note_on_c, 0, 58, 60
3, 254136, Note_on_c, 0, 55, 69
3, 254140, Control_c, 0, 64, 104
3, 254144, Control_c, 0, 64, 88
3, 254152, Control_c, 0, 64, 56
3, 254156, Control_c, 0, 64, 40
3, 254172, Note_on_c, 0, 55, 0
3, 254176, Note_on_c, 0, 58, 0
3, 254176, Note_on_c, 0, 61, 0
3, 254176, Note_on_c, 0, 64, 75
3, 254184, Control_c, 0, 64, 56
3, 254188, Control_c, 0, 64, 72
3, 254192, Control_c, 0, 64, 88
3, 254204, Control_c, 0, 64, 104
3, 254212, Note_on_c, 0, 64, 0
3, 254216, Note_on_c, 0, 61, 66
3, 254220, Note_on_c, 0, 58, 52
3, 254220, Note_on_c, 0, 55, 57
3, 254244, Note_on_c, 0, 55, 0
3, 254252, Note_on_c, 0, 58, 0
3, 254256, Note_on_c, 0, 61, 0
3, 254256, Note_on_c, 0, 64, 78
3, 254304, Note_on_c, 0, 64, 0
3, 254304, Note_on_c, 0, 61, 70
3, 254308, Note_on_c, 0, 55, 63
3, 254308, Note_on_c, 0, 58, 53
3, 254308, Control_c, 0, 64, 88
3, 254328, Control_c, 0, 64, 72
3, 254336, Note_on_c, 0, 55, 0
3, 254344, Note_on_c, 0, 58, 0
3, 254344, Note_on_c, 0, 61, 0
3, 254344, Note_on_c, 0, 64, 73
3, 254388, Note_on_c, 0, 64, 0
3, 254388, Note_on_c, 0, 61, 64
3, 254392, Note_on_c, 0, 55, 57
3, 254396, Note_on_c, 0, 58, 50
3, 254404, Control_c, 0, 64, 56
3, 254408, Control_c, 0, 64, 24
3, 254412, Control_c, 0, 64, 0
3, 254424, Note_on_c, 0, 55, 0
3, 254428, Note_on_c, 0, 58, 0
3, 254428, Note_on_c, 0, 61, 0
3, 254428, Note_on_c, 0, 64, 74
3, 254468, Note_on_c, 0, 64, 0
3, 254472, Note_on_c, 0, 61, 68
3, 254476, Note_on_c, 0, 55, 58
3, 254480, Note_on_c, 0, 58, 47
3, 254504, Note_on_c, 0, 55, 0
3, 254512, Note_on_c, 0, 61, 0
3, 254516, Note_on_c, 0, 58, 0
3, 254516, Note_on_c, 0, 64, 76
3, 254524, Control_c, 0, 64, 40
3, 254528, Control_c, 0, 64, 56
3, 254532, Control_c, 0, 64, 72
3, 254540, Control_c, 0, 64, 88
3, 254556, Note_on_c, 0, 64, 0
3, 254560, Note_on_c, 0, 61, 62
3, 254560, Control_c, 0, 64, 104
3, 254564, Note_on_c, 0, 55, 54
3, 254564, Note_on_c, 0, 58, 50
3, 254576, Control_c, 0, 64, 127
3, 254592, Note_on_c, 0, 55, 0
3, 254596, Note_on_c, 0, 58, 0
3, 254600, Note_on_c, 0, 61, 0
3, 254600, Note_on_c, 0, 64, 79
3, 254640, Note_on_c, 0, 64, 0
3, 254648, Note_on_c, 0, 61, 63
3, 254648, Note_on_c, 0, 55, 57
3, 254652, Note_on_c, 0, 58, 52
3, 254676, Note_on_c, 0, 55, 0
3, 254680, Note_on_c, 0, 58, 0
3, 254684, Note_on_c, 0, 61, 0
3, 254688, Note_on_c, 0, 64, 74
3, 254724, Note_on_c, 0, 64, 0
3, 254732, Note_on_c, 0, 61, 56
3, 254736, Note_on_c, 0, 55, 50
3, 254740, Note_on_c, 0, 58, 48
3, 254760, Control_c, 0, 64, 104
3, 254764, Note_on_c, 0, 55, 0
3, 254768, Note_on_c, 0, 58, 0
3, 254772, Note_on_c, 0, 61, 0
3, 254772, Note_on_c, 0, 64, 78
3, 254776, Control_c, 0, 64, 88
3, 254780, Control_c, 0, 64, 72
3, 254784, Control_c, 0, 64, 56
3, 254788, Control_c, 0, 64, 40
3, 254796, Control_c, 0, 64, 24
3, 254800, Control_c, 0, 64, 0
3, 254816, Note_on_c, 0, 61, 68
3, 254820, Note_on_c, 0, 64, 0
3, 254820, Note_on_c, 0, 55, 60
3, 254820, Note_on_c, 0, 58, 56
3, 254848, Note_on_c, 0, 55, 0
3, 254848, Control_c, 0, 64, 24
3, 254852, Control_c, 0, 64, 72
3, 254856, Note_on_c, 0, 58, 0
3, 254856, Note_on_c, 0, 61, 0
3, 254856, Note_on_c, 0, 64, 73
3, 254856, Control_c, 0, 64, 104
3, 254860, Control_c, 0, 64, 127
3, 254892, Note_on_c, 0, 64, 0
3, 254896, Note_on_c, 0, 61, 65
3, 254900, Note_on_c, 0, 55, 57
3, 254904, Note_on_c, 0, 58, 50
3, 254928, Note_on_c, 0, 55, 0
3, 254936, Note_on_c, 0, 58, 0
3, 254940, Note_on_c, 0, 61, 0
3, 254940, Note_on_c, 0, 64, 74
3, 254976, Note_on_c, 0, 64, 0
3, 254984, Note_on_c, 0, 61, 59
3, 254992, Note_on_c, 0, 55, 43
3, 254996, Note_on_c, 0, 58, 45
3, 255016, Note_on_c, 0, 55, 0
3, 255024, Note_on_c, 0, 58, 0
3, 255024, Note_on_c, 0, 61, 0
3, 255028, Note_on_c, 0, 64, 78
3, 255064, Note_on_c, 0, 64, 0
3, 255072, Note_on_c, 0, 61, 59
3, 255076, Note_on_c, 0, 55, 51
3, 255076, Note_on_c, 0, 58, 47
3, 255096, Note_on_c, 0, 55, 0
3, 255104, Note_on_c, 0, 58, 0
3, 255108, Note_on_c, 0, 61, 0
3, 255112, Note_on_c, 0, 64, 73
3, 255148, Note_on_c, 0, 64, 0
3, 255156, Note_on_c, 0, 61, 62
3, 255160, Note_on_c, 0, 55, 58
3, 255160, Note_on_c, 0, 58, 50
3, 255160, Control_c, 0, 64, 88
3, 255164, Control_c, 0, 64, 24
3, 255168, Control_c, 0, 64, 0
3, 255192, Note_on_c, 0, 55, 0
3, 255196, Note_on_c, 0, 58, 0
3, 255196, Note_on_c, 0, 61, 0
3, 255196, Note_on_c, 0, 64, 73
3, 255200, Control_c, 0, 64, 56
3, 255204, Control_c, 0, 64, 104
3, 255212, Control_c, 0, 64, 127
3, 255232, Note_on_c, 0, 64, 0
3, 255240, Note_on_c, 0, 61, 60
3, 255244, Note_on_c, 0, 55, 55
3, 255248, Note_on_c, 0, 58, 47
3, 255268, Note_on_c, 0, 55, 0
3, 255280, Note_on_c, 0, 58, 0
3, 255280, Note_on_c, 0, 61, 0
3, 255284, Note_on_c, 0, 64, 75
3, 255320, Note_on_c, 0, 64, 0
3, 255328, Note_on_c, 0, 61, 60
3, 255332, Note_on_c, 0, 58, 48
3, 255332, Note_on_c, 0, 55, 50
3, 255356, Note_on_c, 0, 55, 0
3, 255364, Note_on_c, 0, 58, 0
3, 255368, Note_on_c, 0, 61, 0
3, 255368, Note_on_c, 0, 64, 74
3, 255404, Note_on_c, 0, 64, 0
3, 255408, Note_on_c, 0, 61, 59
3, 255416, Note_on_c, 0, 58, 53
3, 255416, Note_on_c, 0, 55, 47
3, 255440, Note_on_c, 0, 55, 0
3, 255448, Note_on_c, 0, 58, 0
3, 255448, Note_on_c, 0, 61, 0
3, 255452, Note_on_c, 0, 64, 74
3, 255452, Control_c, 0, 64, 40
3, 255460, Control_c, 0, 64, 0
3, 255492, Note_on_c, 0, 64, 0
3, 255492, Note_on_c, 0, 61, 61
3, 255496, Note_on_c, 0, 55, 50
3, 255496, Note_on_c, 0, 58, 52
3, 255500, Control_c, 0, 64, 56
3, 255508, Control_c, 0, 64, 127
3, 255524, Note_on_c, 0, 55, 0
3, 255532, Note_on_c, 0, 58, 0
3, 255532, Note_on_c, 0, 61, 0
3, 255532, Note_on_c, 0, 64, 71
3, 255568, Note_on_c, 0, 64, 0
3, 255576, Note_on_c, 0, 61, 65
3, 255576, Note_on_c, 0, 55, 55
3, 255580, Note_on_c, 0, 58, 48
3, 255604, Note_on_c, 0, 55, 0
3, 255612, Note_on_c, 0, 58, 0
3, 255612, Note_on_c, 0, 61, 0
3, 255616, Note_on_c, 0, 64, 73
3, 255652, Note_on_c, 0, 64, 0
3, 255656, Note_on_c, 0, 61, 64
3, 255664, Note_on_c, 0, 55, 54
3, 255664, Note_on_c, 0, 58, 47
3, 255688, Note_on_c, 0, 55, 0
3, 255692, Note_on_c, 0, 58, 0
3, 255696, Note_on_c, 0, 61, 0
3, 255700, Note_on_c, 0, 64, 75
3, 255740, Note_on_c, 0, 64, 0
3, 255740, Note_on_c, 0, 61, 59
3, 255748, Note_on_c, 0, 55, 49
3, 255752, Note_on_c, 0, 58, 43
3, 255772, Note_on_c, 0, 55, 0
3, 255776, Note_on_c, 0, 58, 0
3, 255780, Note_on_c, 0, 61, 0
3, 255784, Note_on_c, 0, 64, 74
3, 255824, Note_on_c, 0, 64, 0
3, 255828, Note_on_c, 0, 61, 64
3, 255832, Note_on_c, 0, 55, 55
3, 255832, Note_on_c, 0, 58, 49
3, 255836, Control_c, 0, 64, 72
3, 255840, Control_c, 0, 64, 0
3, 255864, Note_on_c, 0, 55, 0
3, 255868, Note_on_c, 0, 64, 74
3, 255872, Note_on_c, 0, 58, 0
3, 255872, Note_on_c, 0, 61, 0
3, 255880, Control_c, 0, 64, 56
3, 255884, Control_c, 0, 64, 127
3, 255912, Note_on_c, 0, 64, 0
3, 255912, Note_on_c, 0, 61, 66
3, 255920, Note_on_c, 0, 55, 54
3, 255920, Note_on_c, 0, 58, 49
3, 255944, Note_on_c, 0, 55, 0
3, 255952, Note_on_c, 0, 58, 0
3, 255952, Note_on_c, 0, 61, 0
3, 255956, Note_on_c, 0, 64, 76
3, 255992, Note_on_c, 0, 64, 0
3, 256000, Note_on_c, 0, 61, 59
3, 256004, Note_on_c, 0, 55, 46
3, 256004, Note_on_c, 0, 58, 43
3, 256028, Note_on_c, 0, 55, 0
3, 256036, Note_on_c, 0, 58, 0
3, 256036, Note_on_c, 0, 61, 0
3, 256040, Note_on_c, 0, 64, 74
3, 256080, Note_on_c, 0, 64, 0
3, 256084, Note_on_c, 0, 61, 60
3, 256092, Note_on_c, 0, 58, 44
3, 256092, Note_on_c, 0, 55, 42
3, 256112, Note_on_c, 0, 55, 0
3, 256120, Note_on_c, 0, 58, 0
3, 256120, Note_on_c, 0, 61, 0
3, 256128, Note_on_c, 0, 64, 72
3, 256164, Note_on_c, 0, 64, 0
3, 256164, Control_c, 0, 64, 72
3, 256168, Note_on_c, 0, 61, 53
3, 256172, Control_c, 0, 64, 0
3, 256176, Note_on_c, 0, 55, 42
3, 256176, Note_on_c, 0, 58, 44
3, 256200, Note_on_c, 0, 55, 0
3, 256200, Control_c, 0, 64, 56
3, 256204, Note_on_c, 0, 58, 0
3, 256204, Control_c, 0, 64, 127
3, 256208, Note_on_c, 0, 61, 0
3, 256212, Note_on_c, 0, 64, 66
3, 256256, Note_on_c, 0, 64, 0
3, 256256, Note_on_c, 0, 61, 56
3, 256264, Note_on_c, 0, 55, 42
3, 256264, Note_on_c, 0, 58, 42
3, 256284, Note_on_c, 0, 55, 0
3, 256292, Note_on_c, 0, 58, 0
3, 256292, Note_on_c, 0, 61, 0
3, 256300, Note_on_c, 0, 64, 74
3, 256336, Note_on_c, 0, 64, 0
3, 256344, Note_on_c, 0, 61, 58
3, 256348, Note_on_c, 0, 55, 48
3, 256348, Note_on_c, 0, 58, 43
3, 256372, Note_on_c, 0, 55, 0
3, 256380, Note_on_c, 0, 58, 0
3, 256380, Note_on_c, 0, 61, 0
3, 256388, Note_on_c, 0, 64, 73
3, 256424, Note_on_c, 0, 64, 0
3, 256428, Note_on_c, 0, 61, 59
3, 256436, Note_on_c, 0, 58, 42
3, 256440, Note_on_c, 0, 55, 37
3, 256456, Note_on_c, 0, 55, 0
3, 256464, Note_on_c, 0, 58, 0
3, 256468, Note_on_c, 0, 61, 0
3, 256472, Note_on_c, 0, 64, 73
3, 256508, Control_c, 0, 64, 72
3, 256512, Note_on_c, 0, 64, 0
3, 256516, Note_on_c, 0, 61, 57
3, 256516, Control_c, 0, 64, 0
3, 256520, Note_on_c, 0, 55, 50
3, 256520, Note_on_c, 0, 58, 47
3, 256548, Note_on_c, 0, 55, 0
3, 256552, Control_c, 0, 64, 72
3, 256556, Note_on_c, 0, 58, 0
3, 256556, Control_c, 0, 64, 127
3, 256560, Note_on_c, 0, 61, 0
3, 256560, Note_on_c, 0, 64, 72
3, 256596, Note_on_c, 0, 64, 0
3, 256604, Note_on_c, 0, 61, 63
3, 256608, Note_on_c, 0, 55, 50
3, 256608, Note_on_c, 0, 58, 45
3, 256632, Note_on_c, 0, 55, 0
3, 256640, Note_on_c, 0, 58, 0
3, 256640, Note_on_c, 0, 61, 0
3, 256644, Note_on_c, 0, 64, 74
3, 256684, Note_on_c, 0, 64, 0
3, 256684, Note_on_c, 0, 61, 61
3, 256692, Note_on_c, 0, 55, 49
3, 256692, Note_on_c, 0, 58, 45
3, 256712, Note_on_c, 0, 55, 0
3, 256724, Note_on_c, 0, 58, 0
3, 256724, Note_on_c, 0, 61, 0
3, 256728, Note_on_c, 0, 64, 73
3, 256764, Note_on_c, 0, 64, 0
3, 256768, Note_on_c, 0, 61, 57
3, 256776, Note_on_c, 0, 58, 46
3, 256776, Note_on_c, 0, 55, 40
3, 256796, Note_on_c, 0, 55, 0
3, 256804, Note_on_c, 0, 58, 0
3, 256804, Note_on_c, 0, 61, 0
3, 256808, Note_on_c, 0, 64, 75
3, 256852, Note_on_c, 0, 64, 0
3, 256856, Note_on_c, 0, 61, 59
3, 256856, Note_on_c, 0, 55, 57
3, 256860, Note_on_c, 0, 58, 45
3, 256876, Control_c, 0, 64, 72
3, 256884, Control_c, 0, 64, 0
3, 256888, Note_on_c, 0, 55, 0
3, 256892, Note_on_c, 0, 58, 0
3, 256896, Note_on_c, 0, 61, 0
3, 256896, Note_on_c, 0, 64, 76
3, 256936, Note_on_c, 0, 64, 0
3, 256936, Note_on_c, 0, 61, 63
3, 256936, Note_on_c, 0, 55, 54
3, 256940, Note_on_c, 0, 58, 49
3, 256944, Control_c, 0, 64, 56
3, 256948, Control_c, 0, 64, 127
3, 256964, Note_on_c, 0, 55, 0
3, 256972, Note_on_c, 0, 58, 0
3, 256972, Note_on_c, 0, 61, 0
3, 256976, Note_on_c, 0, 64, 71
3, 257016, Note_on_c, 0, 64, 0
3, 257016, Note_on_c, 0, 61, 62
3, 257020, Note_on_c, 0, 55, 50
3, 257024, Note_on_c, 0, 58, 45
3, 257044, Note_on_c, 0, 55, 0
3, 257052, Note_on_c, 0, 58, 0
3, 257052, Note_on_c, 0, 61, 0
3, 257060, Note_on_c, 0, 64, 69
3, 257096, Note_on_c, 0, 64, 0
3, 257100, Note_on_c, 0, 61, 56
3, 257104, Note_on_c, 0, 55, 47
3, 257104, Note_on_c, 0, 58, 45
3, 257128, Note_on_c, 0, 55, 0
3, 257136, Note_on_c, 0, 58, 0
3, 257136, Note_on_c, 0, 61, 0
3, 257144, Note_on_c, 0, 64, 72
3, 257180, Control_c, 0, 64, 72
3, 257184, Control_c, 0, 64, 0
3, 257188, Note_on_c, 0, 64, 0
3, 257188, Note_on_c, 0, 61, 56
3, 257192, Note_on_c, 0, 55, 48
3, 257192, Note_on_c, 0, 58, 46
3, 257220, Note_on_c, 0, 55, 0
3, 257224, Note_on_c, 0, 58, 0
3, 257224, Control_c, 0, 64, 88
3, 257228, Note_on_c, 0, 61, 0
3, 257228, Note_on_c, 0, 64, 73
3, 257228, Control_c, 0, 64, 127
3, 257268, Note_on_c, 0, 64, 0
3, 257272, Note_on_c, 0, 61, 56
3, 257276, Note_on_c, 0, 55, 52
3, 257280, Note_on_c, 0, 58, 45
3, 257300, Note_on_c, 0, 55, 0
3, 257308, Note_on_c, 0, 58, 0
3, 257308, Note_on_c, 0, 61, 0
3, 257316, Note_on_c, 0, 64, 71
3, 257356, Note_on_c, 0, 64, 0
3, 257360, Note_on_c, 0, 61, 58
3, 257364, Note_on_c, 0, 58, 45
3, 257368, Note_on_c, 0, 55, 40
3, 257388, Note_on_c, 0, 55, 0
3, 257396, Note_on_c, 0, 58, 0
3, 257396, Note_on_c, 0, 61, 0
3, 257404, Note_on_c, 0, 64, 65
3, 257440, Note_on_c, 0, 64, 0
3, 257444, Note_on_c, 0, 61, 61
3, 257452, Note_on_c, 0, 58, 44
3, 257452, Note_on_c, 0, 55, 40
3, 257472, Note_on_c, 0, 55, 0
3, 257480, Note_on_c, 0, 58, 0
3, 257484, Note_on_c, 0, 61, 0
3, 257488, Note_on_c, 0, 64, 70
3, 257528, Note_on_c, 0, 64, 0
3, 257528, Control_c, 0, 64, 88
3, 257532, Note_on_c, 0, 61, 57
3, 257532, Control_c, 0, 64, 40
3, 257536, Note_on_c, 0, 58, 45
3, 257536, Note_on_c, 0, 55, 46
3, 257536, Control_c, 0, 64, 0
3, 257564, Note_on_c, 0, 55, 0
3, 257572, Note_on_c, 0, 58, 0
3, 257572, Note_on_c, 0, 61, 0
3, 257572, Note_on_c, 0, 64, 73
3, 257572, Control_c, 0, 64, 72
3, 257576, Control_c, 0, 64, 127
3, 257608, Note_on_c, 0, 64, 0
3, 257612, Note_on_c, 0, 61, 64
3, 257620, Note_on_c, 0, 58, 46
3, 257620, Note_on_c, 0, 55, 43
3, 257644, Note_on_c, 0, 55, 0
3, 257648, Note_on_c, 0, 58, 0
3, 257652, Note_on_c, 0, 61, 0
3, 257656, Note_on_c, 0, 64, 70
3, 257696, Note_on_c, 0, 64, 0
3, 257700, Note_on_c, 0, 61, 59
3, 257708, Note_on_c, 0, 58, 41
3, 257708, Note_on_c, 0, 55, 44
3, 257728, Note_on_c, 0, 55, 0
3, 257736, Note_on_c, 0, 58, 0
3, 257736, Note_on_c, 0, 61, 0
3, 257748, Note_on_c, 0, 64, 63
3, 257780, Note_on_c, 0, 64, 0
3, 257788, Note_on_c, 0, 61, 60
3, 257792, Note_on_c, 0, 58, 46
3, 257796, Note_on_c, 0, 55, 36
3, 257816, Note_on_c, 0, 55, 0
3, 257824, Note_on_c, 0, 58, 0
3, 257824, Note_on_c, 0, 61, 0
3, 257832, Note_on_c, 0, 64, 74
3, 257844, Control_c, 0, 64, 72
3, 257848, Control_c, 0, 64, 0
3, 257872, Note_on_c, 0, 64, 0
3, 257872, Note_on_c, 0, 61, 56
3, 257876, Control_c, 0, 64, 40
3, 257880, Note_on_c, 0, 58, 47
3, 257880, Note_on_c, 0, 55, 43
3, 257880, Control_c, 0, 64, 104
3, 257888, Control_c, 0, 64, 127
3, 257900, Note_on_c, 0, 55, 0
3, 257912, Note_on_c, 0, 58, 0
3, 257916, Note_on_c, 0, 61, 0
3, 257920, Note_on_c, 0, 64, 70
3, 257956, Note_on_c, 0, 64, 0
3, 257964, Note_on_c, 0, 61, 55
3, 257968, Note_on_c, 0, 55, 46
3, 257968, Note_on_c, 0, 58, 45
3, 257984, Note_on_c, 0, 55, 0
3, 257996, Note_on_c, 0, 58, 0
3, 258000, Note_on_c, 0, 61, 0
3, 258008, Note_on_c, 0, 64, 58
3, 258036, Note_on_c, 0, 64, 0
3, 258180, Control_c, 0, 64, 104
3, 258188, Control_c, 0, 64, 72
3, 258192, Control_c, 0, 64, 24
3, 258196, Control_c, 0, 64, 0
3, 260028, Note_on_c, 0, 63, 88
3, 260156, Control_c, 0, 64, 24
3, 260164, Control_c, 0, 64, 40
3, 260172, Control_c, 0, 64, 56
3, 260180, Control_c, 0, 64, 72
3, 260364, Note_on_c, 0, 61, 87
3, 260364, Control_c, 0, 64, 56
3, 260380, Note_on_c, 0, 63, 0
3, 260400, Control_c, 0, 64, 40
3, 260436, Control_c, 0, 64, 0
3, 260456, Note_on_c, 0, 61, 0
3, 260456, Note_on_c, 0, 59, 90
3, 260732, Control_c, 0, 64, 24
3, 260784, Note_on_c, 0, 51, 89
3, 260816, Note_on_c, 0, 59, 0
3, 260824, Control_c, 0, 64, 0
3, 261036, Control_c, 0, 64, 24
3, 261060, Control_c, 0, 64, 40
3, 261180, Note_on_c, 0, 51, 0
3, 261188, Note_on_c, 0, 58, 83
3, 261216, Control_c, 0, 64, 24
3, 261228, Control_c, 0, 64, 0
3, 261348, Control_c, 0, 64, 24
3, 261356, Control_c, 0, 64, 40
3, 261376, Control_c, 0, 64, 56
3, 261524, Note_on_c, 0, 56, 80
3, 261568, Note_on_c, 0, 58, 0
3, 261584, Control_c, 0, 64, 40
3, 261596, Control_c, 0, 64, 24
3, 261604, Control_c, 0, 64, 0
3, 261684, Control_c, 0, 64, 24
3, 261696, Control_c, 0, 64, 72
3, 261704, Control_c, 0, 64, 104
3, 261712, Control_c, 0, 64, 127
3, 261772, Note_on_c, 0, 55, 82
3, 261836, Note_on_c, 0, 55, 0
3, 261872, Note_on_c, 0, 56, 0
3, 262100, Note_on_c, 0, 59, 74
3, 262108, Note_on_c, 0, 55, 84
3, 262120, Control_c, 0, 64, 40
3, 262124, Control_c, 0, 64, 72
3, 262128, Control_c, 0, 64, 104
3, 262132, Control_c, 0, 64, 127
3, 262152, Note_on_c, 0, 59, 0
3, 262152, Note_on_c, 0, 64, 80
3, 262156, Note_on_c, 0, 55, 0
3, 262184, Note_on_c, 0, 64, 0
3, 262200, Note_on_c, 0, 59, 68
3, 262200, Note_on_c, 0, 55, 53
3, 262236, Note_on_c, 0, 55, 0
3, 262236, Note_on_c, 0, 59, 0
3, 262240, Note_on_c, 0, 64, 68
3, 262264, Note_on_c, 0, 64, 0
3, 262280, Note_on_c, 0, 59, 64
3, 262280, Note_on_c, 0, 55, 54
3, 262308, Note_on_c, 0, 55, 0
3, 262312, Note_on_c, 0, 59, 0
3, 262316, Note_on_c, 0, 64, 68
3, 262344, Note_on_c, 0, 64, 0
3, 262360, Note_on_c, 0, 59, 62
3, 262360, Note_on_c, 0, 55, 51
3, 262384, Note_on_c, 0, 55, 0
3, 262388, Note_on_c, 0, 59, 0
3, 262392, Note_on_c, 0, 64, 70
3, 262424, Note_on_c, 0, 64, 0
3, 262440, Note_on_c, 0, 59, 69
3, 262440, Note_on_c, 0, 55, 62
3, 262468, Note_on_c, 0, 55, 0
3, 262472, Note_on_c, 0, 59, 0
3, 262476, Note_on_c, 0, 64, 69
3, 262504, Note_on_c, 0, 64, 0
3, 262516, Note_on_c, 0, 59, 62
3, 262516, Note_on_c, 0, 55, 53
3, 262540, Note_on_c, 0, 55, 0
3, 262548, Note_on_c, 0, 59, 0
3, 262548, Note_on_c, 0, 64, 73
3, 262580, Note_on_c, 0, 64, 0
3, 262592, Note_on_c, 0, 59, 65
3, 262592, Note_on_c, 0, 55, 59
3, 262604, Control_c, 0, 64, 104
3, 262620, Note_on_c, 0, 55, 0
3, 262624, Note_on_c, 0, 59, 0
3, 262628, Note_on_c, 0, 64, 72
3, 262660, Note_on_c, 0, 64, 0
3, 262668, Note_on_c, 0, 55, 59
3, 262668, Note_on_c, 0, 59, 67
3, 262684, Control_c, 0, 64, 88
3, 262696, Note_on_c, 0, 59, 0
3, 262696, Note_on_c, 0, 55, 0
3, 262700, Note_on_c, 0, 64, 76
3, 262732, Note_on_c, 0, 64, 0
3, 262744, Note_on_c, 0, 59, 68
3, 262744, Note_on_c, 0, 55, 59
3, 262768, Note_on_c, 0, 55, 0
3, 262768, Control_c, 0, 64, 72
3, 262772, Note_on_c, 0, 59, 0
3, 262776, Note_on_c, 0, 64, 74
3, 262776, Control_c, 0, 64, 56
3, 262812, Note_on_c, 0, 64, 0
3, 262816, Note_on_c, 0, 59, 64
3, 262816, Note_on_c, 0, 55, 49
3, 262820, Control_c, 0, 64, 72
3, 262844, Note_on_c, 0, 55, 0
3, 262848, Note_on_c, 0, 59, 0
3, 262848, Note_on_c, 0, 64, 71
3, 262876, Note_on_c, 0, 64, 0
3, 262892, Note_on_c, 0, 55, 55
3, 262892, Note_on_c, 0, 59, 59
3, 262916, Note_on_c, 0, 59, 0
3, 262916, Note_on_c, 0, 55, 0
3, 262920, Note_on_c, 0, 64, 73
3, 262960, Note_on_c, 0, 64, 0
3, 262964, Note_on_c, 0, 59, 60
3, 262964, Note_on_c, 0, 55, 50
3, 262988, Note_on_c, 0, 55, 0
3, 262988, Note_on_c, 0, 59, 0
3, 262996, Note_on_c, 0, 64, 73
3, 263032, Note_on_c, 0, 64, 0
3, 263040, Note_on_c, 0, 59, 69
3, 263040, Note_on_c, 0, 55, 62
3, 263068, Note_on_c, 0, 55, 0
3, 263068, Note_on_c, 0, 59, 0
3, 263068, Note_on_c, 0, 64, 67
3, 263108, Note_on_c, 0, 64, 0
3, 263112, Note_on_c, 0, 59, 66
3, 263112, Note_on_c, 0, 55, 49
3, 263136, Note_on_c, 0, 55, 0
3, 263144, Note_on_c, 0, 59, 0
3, 263144, Note_on_c, 0, 64, 73
3, 263164, Control_c, 0, 64, 56
3, 263176, Note_on_c, 0, 64, 0
3, 263180, Control_c, 0, 64, 40
3, 263184, Note_on_c, 0, 59, 69
3, 263188, Note_on_c, 0, 55, 57
3, 263208, Control_c, 0, 64, 24
3, 263216, Note_on_c, 0, 55, 0
3, 263216, Note_on_c, 0, 59, 0
3, 263220, Note_on_c, 0, 64, 78
3, 263220, Control_c, 0, 64, 0
3, 263256, Note_on_c, 0, 64, 0
3, 263260, Note_on_c, 0, 59, 70
3, 263260, Note_on_c, 0, 55, 63
3, 263292, Note_on_c, 0, 55, 0
3, 263292, Note_on_c, 0, 59, 0
3, 263292, Note_on_c, 0, 64, 76
3, 263336, Note_on_c, 0, 64, 0
3, 263336, Note_on_c, 0, 59, 72
3, 263336, Note_on_c, 0, 55, 61
3, 263356, Control_c, 0, 64, 56
3, 263360, Control_c, 0, 64, 88
3, 263368, Note_on_c, 0, 55, 0
3, 263368, Control_c, 0, 64, 127
3, 263372, Note_on_c, 0, 59, 0
3, 263372, Note_on_c, 0, 64, 70
3, 263408, Note_on_c, 0, 64, 0
3, 263416, Note_on_c, 0, 55, 64
3, 263416, Note_on_c, 0, 59, 67
3, 263440, Note_on_c, 0, 55, 0
3, 263444, Note_on_c, 0, 59, 0
3, 263448, Note_on_c, 0, 64, 72
3, 263484, Note_on_c, 0, 64, 0
3, 263492, Note_on_c, 0, 59, 67
3, 263492, Note_on_c, 0, 55, 61
3, 263524, Note_on_c, 0, 55, 0
3, 263524, Note_on_c, 0, 59, 0
3, 263528, Note_on_c, 0, 64, 77
3, 263560, Note_on_c, 0, 64, 0
3, 263572, Note_on_c, 0, 59, 63
3, 263572, Note_on_c, 0, 55, 59
3, 263600, Note_on_c, 0, 55, 0
3, 263600, Note_on_c, 0, 59, 0
3, 263604, Note_on_c, 0, 64, 72
3, 263624, Control_c, 0, 64, 104
3, 263628, Control_c, 0, 64, 88
3, 263632, Control_c, 0, 64, 56
3, 263636, Control_c, 0, 64, 24
3, 263644, Control_c, 0, 64, 0
3, 263648, Note_on_c, 0, 64, 0
3, 263648, Note_on_c, 0, 59, 66
3, 263652, Note_on_c, 0, 55, 56
3, 263680, Note_on_c, 0, 55, 0
3, 263684, Note_on_c, 0, 59, 0
3, 263684, Note_on_c, 0, 64, 69
3, 263704, Control_c, 0, 64, 24
3, 263708, Control_c, 0, 64, 88
3, 263716, Note_on_c, 0, 64, 0
3, 263716, Control_c, 0, 64, 127
3, 263724, Note_on_c, 0, 59, 61
3, 263728, Note_on_c, 0, 55, 60
3, 263752, Note_on_c, 0, 55, 0
3, 263756, Note_on_c, 0, 59, 0
3, 263756, Note_on_c, 0, 64, 73
3, 263788, Note_on_c, 0, 64, 0
3, 263800, Note_on_c, 0, 55, 54
3, 263800, Note_on_c, 0, 59, 65
3, 263824, Note_on_c, 0, 55, 0
3, 263832, Note_on_c, 0, 59, 0
3, 263832, Note_on_c, 0, 64, 74
3, 263868, Note_on_c, 0, 64, 0
3, 263876, Note_on_c, 0, 59, 68
3, 263876, Note_on_c, 0, 55, 53
3, 263904, Note_on_c, 0, 55, 0
3, 263904, Note_on_c, 0, 59, 0
3, 263908, Note_on_c, 0, 64, 76
3, 263944, Note_on_c, 0, 64, 0
3, 263952, Note_on_c, 0, 59, 63
3, 263952, Note_on_c, 0, 55, 54
3, 263976, Note_on_c, 0, 55, 0
3, 263980, Note_on_c, 0, 59, 0
3, 263984, Note_on_c, 0, 64, 74
3, 264016, Note_on_c, 0, 64, 0
3, 264020, Control_c, 0, 64, 104
3, 264024, Note_on_c, 0, 59, 64
3, 264024, Note_on_c, 0, 55, 52
3, 264024, Control_c, 0, 64, 56
3, 264032, Control_c, 0, 64, 0
3, 264056, Note_on_c, 0, 55, 0
3, 264060, Note_on_c, 0, 59, 0
3, 264060, Note_on_c, 0, 64, 74
3, 264092, Note_on_c, 0, 64, 0
3, 264100, Note_on_c, 0, 59, 63
3, 264100, Note_on_c, 0, 55, 55
3, 264100, Control_c, 0, 64, 56
3, 264104, Control_c, 0, 64, 104
3, 264108, Control_c, 0, 64, 127
3, 264128, Note_on_c, 0, 55, 0
3, 264132, Note_on_c, 0, 59, 0
3, 264132, Note_on_c, 0, 64, 75
3, 264168, Note_on_c, 0, 64, 0
3, 264176, Note_on_c, 0, 55, 59
3, 264176, Note_on_c, 0, 59, 62
3, 264204, Note_on_c, 0, 55, 0
3, 264208, Note_on_c, 0, 59, 0
3, 264208, Note_on_c, 0, 64, 77
3, 264240, Note_on_c, 0, 64, 0
3, 264252, Note_on_c, 0, 59, 68
3, 264252, Note_on_c, 0, 55, 54
3, 264272, Note_on_c, 0, 55, 0
3, 264280, Note_on_c, 0, 59, 0
3, 264280, Note_on_c, 0, 64, 72
3, 264312, Note_on_c, 0, 64, 0
3, 264324, Note_on_c, 0, 59, 61
3, 264324, Note_on_c, 0, 55, 49
3, 264344, Note_on_c, 0, 55, 0
3, 264352, Note_on_c, 0, 59, 0
3, 264356, Note_on_c, 0, 64, 75
3, 264384, Note_on_c, 0, 64, 0
3, 264396, Note_on_c, 0, 55, 58
3, 264396, Note_on_c, 0, 59, 61
3, 264428, Note_on_c, 0, 59, 0
3, 264428, Note_on_c, 0, 55, 0
3, 264432, Note_on_c, 0, 64, 75
3, 264464, Note_on_c, 0, 64, 0
3, 264472, Note_on_c, 0, 59, 66
3, 264472, Note_on_c, 0, 55, 56
3, 264496, Control_c, 0, 64, 88
3, 264500, Note_on_c, 0, 55, 0
3, 264500, Control_c, 0, 64, 40
3, 264504, Note_on_c, 0, 59, 0
3, 264504, Note_on_c, 0, 64, 76
3, 264504, Control_c, 0, 64, 0
3, 264540, Note_on_c, 0, 64, 0
3, 264548, Note_on_c, 0, 59, 63
3, 264548, Note_on_c, 0, 55, 57
3, 264568, Control_c, 0, 64, 56
3, 264572, Note_on_c, 0, 55, 0
3, 264572, Control_c, 0, 64, 104
3, 264576, Note_on_c, 0, 64, 69
3, 264576, Control_c, 0, 64, 127
3, 264580, Note_on_c, 0, 59, 0
3, 264608, Note_on_c, 0, 64, 0
3, 264620, Note_on_c, 0, 55, 56
3, 264624, Note_on_c, 0, 59, 58
3, 264648, Note_on_c, 0, 59, 0
3, 264648, Note_on_c, 0, 55, 0
3, 264652, Note_on_c, 0, 64, 72
3, 264684, Note_on_c, 0, 64, 0
3, 264696, Note_on_c, 0, 59, 63
3, 264696, Note_on_c, 0, 55, 50
3, 264724, Note_on_c, 0, 55, 0
3, 264728, Note_on_c, 0, 59, 0
3, 264732, Note_on_c, 0, 64, 73
3, 264760, Note_on_c, 0, 64, 0
3, 264772, Note_on_c, 0, 55, 54
3, 264772, Note_on_c, 0, 59, 61
3, 264800, Note_on_c, 0, 55, 0
3, 264804, Note_on_c, 0, 59, 0
3, 264808, Note_on_c, 0, 64, 74
3, 264836, Note_on_c, 0, 64, 0
3, 264848, Note_on_c, 0, 59, 63
3, 264852, Note_on_c, 0, 55, 50
3, 264876, Note_on_c, 0, 55, 0
3, 264880, Note_on_c, 0, 59, 0
3, 264880, Note_on_c, 0, 64, 74
3, 264912, Note_on_c, 0, 64, 0
3, 264912, Control_c, 0, 64, 104
3, 264916, Control_c, 0, 64, 88
3, 264920, Note_on_c, 0, 55, 57
3, 264920, Note_on_c, 0, 59, 63
3, 264920, Control_c, 0, 64, 56
3, 264924, Control_c, 0, 64, 0
3, 264952, Note_on_c, 0, 55, 0
3, 264956, Note_on_c, 0, 59, 0
3, 264956, Note_on_c, 0, 64, 72
3, 264988, Note_on_c, 0, 64, 0
3, 264992, Note_on_c, 0, 59, 59
3, 264996, Note_on_c, 0, 55, 51
3, 265016, Control_c, 0, 64, 40
3, 265020, Note_on_c, 0, 55, 0
3, 265020, Control_c, 0, 64, 72
3, 265024, Note_on_c, 0, 59, 0
3, 265024, Note_on_c, 0, 64, 69
3, 265024, Control_c, 0, 64, 127
3, 265060, Note_on_c, 0, 64, 0
3, 265068, Note_on_c, 0, 59, 57
3, 265068, Note_on_c, 0, 55, 52
3, 265092, Note_on_c, 0, 55, 0
3, 265096, Note_on_c, 0, 59, 0
3, 265100, Note_on_c, 0, 64, 75
3, 265132, Note_on_c, 0, 64, 0
3, 265140, Note_on_c, 0, 55, 49
3, 265144, Note_on_c, 0, 59, 59
3, 265168, Note_on_c, 0, 55, 0
3, 265172, Note_on_c, 0, 59, 0
3, 265176, Note_on_c, 0, 64, 73
3, 265208, Note_on_c, 0, 64, 0
3, 265220, Note_on_c, 0, 59, 58
3, 265220, Note_on_c, 0, 55, 51
3, 265240, Note_on_c, 0, 55, 0
3, 265248, Note_on_c, 0, 59, 0
3, 265252, Note_on_c, 0, 64, 72
3, 265284, Note_on_c, 0, 64, 0
3, 265292, Note_on_c, 0, 59, 57
3, 265292, Note_on_c, 0, 55, 53
3, 265320, Note_on_c, 0, 55, 0
3, 265324, Note_on_c, 0, 59, 0
3, 265328, Note_on_c, 0, 64, 74
3, 265360, Note_on_c, 0, 64, 0
3, 265372, Note_on_c, 0, 59, 61
3, 265372, Note_on_c, 0, 55, 51
3, 265396, Note_on_c, 0, 55, 0
3, 265400, Note_on_c, 0, 59, 0
3, 265404, Note_on_c, 0, 64, 76
3, 265420, Control_c, 0, 64, 104
3, 265420, Control_c, 0, 64, 56
3, 265428, Control_c, 0, 64, 24
3, 265432, Control_c, 0, 64, 0
3, 265436, Note_on_c, 0, 64, 0
3, 265448, Note_on_c, 0, 55, 54
3, 265448, Note_on_c, 0, 59, 65
3, 265476, Note_on_c, 0, 55, 0
3, 265480, Note_on_c, 0, 59, 0
3, 265480, Note_on_c, 0, 64, 73
3, 265496, Control_c, 0, 64, 56
3, 265500, Control_c, 0, 64, 127
3, 265512, Note_on_c, 0, 64, 0
3, 265524, Note_on_c, 0, 59, 61
3, 265524, Note_on_c, 0, 55, 54
3, 265548, Note_on_c, 0, 55, 0
3, 265548, Note_on_c, 0, 59, 0
3, 265556, Note_on_c, 0, 64, 76
3, 265584, Note_on_c, 0, 64, 0
3, 265596, Note_on_c, 0, 59, 63
3, 265596, Note_on_c, 0, 55, 49
3, 265624, Note_on_c, 0, 55, 0
3, 265624, Note_on_c, 0, 59, 0
3, 265628, Note_on_c, 0, 64, 74
3, 265660, Note_on_c, 0, 64, 0
3, 265668, Note_on_c, 0, 59, 62
3, 265672, Note_on_c, 0, 55, 47
3, 265692, Note_on_c, 0, 55, 0
3, 265696, Note_on_c, 0, 59, 0
3, 265700, Note_on_c, 0, 64, 73
3, 265732, Note_on_c, 0, 64, 0
3, 265744, Note_on_c, 0, 59, 61
3, 265744, Note_on_c, 0, 55, 50
3, 265756, Note_on_c, 0, 55, 63
3, 265756, Note_on_c, 0, 59, 65
3, 265772, Note_on_c, 0, 55, 0
3, 265772, Note_on_c, 0, 59, 0
3, 265796, Note_on_c, 0, 55, 0
3, 265800, Note_on_c, 0, 59, 0
3, 265804, Note_on_c, 0, 64, 74
3, 265836, Note_on_c, 0, 64, 0
3, 265844, Note_on_c, 0, 59, 62
3, 265844, Note_on_c, 0, 55, 56
3, 265872, Note_on_c, 0, 55, 0
3, 265872, Note_on_c, 0, 59, 0
3, 265876, Note_on_c, 0, 64, 61
3, 265908, Note_on_c, 0, 64, 0
3, 265916, Note_on_c, 0, 55, 54
3, 265920, Note_on_c, 0, 59, 64
3, 265944, Note_on_c, 0, 55, 0
3, 265948, Note_on_c, 0, 59, 0
3, 265948, Note_on_c, 0, 64, 68
3, 265984, Note_on_c, 0, 64, 0
3, 265992, Note_on_c, 0, 59, 65
3, 265992, Note_on_c, 0, 55, 54
3, 266016, Note_on_c, 0, 55, 0
3, 266020, Note_on_c, 0, 59, 0
3, 266020, Note_on_c, 0, 64, 73
3, 266052, Note_on_c, 0, 64, 0
3, 266056, Note_on_c, 0, 55, 65
3, 266060, Note_on_c, 0, 59, 66
3, 266060, Note_on_c, 0, 52, 53
3, 266064, Note_on_c, 0, 47, 42
3, 266080, Note_on_c, 0, 52, 0
3, 266084, Note_on_c, 0, 47, 0
3, 266084, Note_on_c, 0, 55, 0
3, 266088, Note_on_c, 0, 59, 0
3, 266088, Note_on_c, 0, 64, 74
3, 266104, Note_on_c, 0, 43, 62
3, 266120, Note_on_c, 0, 64, 0
3, 266124, Note_on_c, 0, 55, 60
3, 266128, Note_on_c, 0, 43, 0
3, 266128, Note_on_c, 0, 59, 66
3, 266136, Note_on_c, 0, 52, 58
3, 266140, Note_on_c, 0, 47, 50
3, 266152, Note_on_c, 0, 55, 0
3, 266156, Note_on_c, 0, 59, 0
3, 266156, Note_on_c, 0, 47, 0
3, 266156, Note_on_c, 0, 64, 74
3, 266160, Note_on_c, 0, 52, 0
3, 266176, Note_on_c, 0, 43, 56
3, 266188, Note_on_c, 0, 64, 0
3, 266192, Note_on_c, 0, 43, 0
3, 266200, Note_on_c, 0, 55, 61
3, 266200, Note_on_c, 0, 59, 64
3, 266204, Note_on_c, 0, 52, 43
3, 266212, Note_on_c, 0, 47, 38
3, 266220, Note_on_c, 0, 52, 0
3, 266224, Note_on_c, 0, 55, 0
3, 266224, Note_on_c, 0, 59, 0
3, 266224, Note_on_c, 0, 47, 0
3, 266228, Note_on_c, 0, 64, 73
3, 266236, Note_on_c, 0, 43, 56
3, 266260, Note_on_c, 0, 43, 0
3, 266260, Note_on_c, 0, 64, 0
3, 266268, Note_on_c, 0, 55, 55
3, 266268, Note_on_c, 0, 59, 65
3, 266272, Note_on_c, 0, 52, 43
3, 266272, Note_on_c, 0, 47, 48
3, 266292, Note_on_c, 0, 52, 0
3, 266292, Note_on_c, 0, 55, 0
3, 266296, Note_on_c, 0, 59, 0
3, 266296, Note_on_c, 0, 47, 0
3, 266296, Note_on_c, 0, 64, 73
3, 266308, Note_on_c, 0, 43, 56
3, 266332, Note_on_c, 0, 43, 0
3, 266332, Note_on_c, 0, 64, 0
3, 266336, Note_on_c, 0, 59, 64
3, 266336, Note_on_c, 0, 55, 60
3, 266340, Note_on_c, 0, 52, 52
3, 266344, Note_on_c, 0, 47, 44
3, 266356, Note_on_c, 0, 52, 0
3, 266360, Note_on_c, 0, 47, 0
3, 266364, Note_on_c, 0, 55, 0
3, 266364, Note_on_c, 0, 59, 0
3, 266364, Note_on_c, 0, 64, 80
3, 266376, Note_on_c, 0, 43, 62
3, 266396, Note_on_c, 0, 43, 0
3, 266396, Note_on_c, 0, 64, 0
3, 266400, Note_on_c, 0, 59, 59
3, 266404, Note_on_c, 0, 55, 54
3, 266404, Note_on_c, 0, 52, 50
3, 266408, Note_on_c, 0, 47, 52
3, 266420, Note_on_c, 0, 52, 0
3, 266424, Note_on_c, 0, 47, 0
3, 266428, Note_on_c, 0, 55, 0
3, 266432, Note_on_c, 0, 59, 0
3, 266432, Note_on_c, 0, 64, 75
3, 266440, Note_on_c, 0, 43, 64
3, 266460, Note_on_c, 0, 64, 0
3, 266464, Note_on_c, 0, 43, 0
3, 266468, Note_on_c, 0, 55, 55
3, 266468, Note_on_c, 0, 59, 55
3, 266472, Note_on_c, 0, 52, 49
3, 266472, Note_on_c, 0, 47, 49
3, 266488, Note_on_c, 0, 52, 0
3, 266492, Note_on_c, 0, 47, 0
3, 266496, Note_on_c, 0, 59, 0
3, 266496, Note_on_c, 0, 55, 0
3, 266496, Note_on_c, 0, 64, 71
3, 266508, Note_on_c, 0, 43, 64
3, 266528, Note_on_c, 0, 43, 0
3, 266528, Note_on_c, 0, 64, 0
3, 266532, Note_on_c, 0, 59, 62
3, 266532, Note_on_c, 0, 55, 58
3, 266536, Note_on_c, 0, 52, 47
3, 266540, Note_on_c, 0, 47, 53
3, 266552, Note_on_c, 0, 52, 0
3, 266556, Note_on_c, 0, 47, 0
3, 266556, Note_on_c, 0, 55, 0
3, 266560, Note_on_c, 0, 59, 0
3, 266564, Note_on_c, 0, 64, 80
3, 266572, Note_on_c, 0, 43, 69
3, 266592, Note_on_c, 0, 64, 0
3, 266596, Note_on_c, 0, 43, 0
3, 266600, Note_on_c, 0, 59, 56
3, 266600, Note_on_c, 0, 55, 52
3, 266604, Note_on_c, 0, 52, 53
3, 266604, Note_on_c, 0, 47, 52
3, 266620, Note_on_c, 0, 52, 0
3, 266624, Note_on_c, 0, 47, 0
3, 266624, Note_on_c, 0, 55, 0
3, 266628, Note_on_c, 0, 59, 0
3, 266628, Note_on_c, 0, 64, 71
3, 266640, Note_on_c, 0, 43, 61
3, 266660, Note_on_c, 0, 64, 0
3, 266664, Note_on_c, 0, 43, 0
3, 266664, Note_on_c, 0, 59, 59
3, 266664, Note_on_c, 0, 55, 56
3, 266672, Note_on_c, 0, 52, 46
3, 266672, Note_on_c, 0, 47, 51
3, 266684, Note_on_c, 0, 52, 0
3, 266688, Note_on_c, 0, 47, 0
3, 266688, Note_on_c, 0, 55, 0
3, 266692, Note_on_c, 0, 59, 0
3, 266692, Note_on_c, 0, 64, 76
3, 266708, Note_on_c, 0, 43, 59
3, 266724, Note_on_c, 0, 64, 0
3, 266728, Note_on_c, 0, 55, 58
3, 266732, Note_on_c, 0, 43, 0
3, 266732, Note_on_c, 0, 59, 58
3, 266740, Note_on_c, 0, 52, 46
3, 266740, Note_on_c, 0, 47, 57
3, 266756, Note_on_c, 0, 52, 0
3, 266756, Note_on_c, 0, 55, 0
3, 266760, Note_on_c, 0, 59, 0
3, 266760, Note_on_c, 0, 47, 0
3, 266760, Note_on_c, 0, 64, 72
3, 266776, Note_on_c, 0, 43, 66
3, 266792, Note_on_c, 0, 64, 0
3, 266796, Note_on_c, 0, 59, 59
3, 266796, Note_on_c, 0, 55, 54
3, 266800, Note_on_c, 0, 43, 0
3, 266804, Note_on_c, 0, 52, 44
3, 266808, Note_on_c, 0, 47, 57
3, 266820, Note_on_c, 0, 52, 0
3, 266820, Note_on_c, 0, 55, 0
3, 266824, Note_on_c, 0, 59, 0
3, 266824, Note_on_c, 0, 47, 0
3, 266828, Note_on_c, 0, 64, 75
3, 266836, Note_on_c, 0, 43, 59
3, 266856, Note_on_c, 0, 64, 0
3, 266864, Note_on_c, 0, 43, 0
3, 266864, Note_on_c, 0, 55, 62
3, 266864, Note_on_c, 0, 59, 61
3, 266868, Note_on_c, 0, 52, 50
3, 266872, Note_on_c, 0, 47, 57
3, 266884, Note_on_c, 0, 52, 0
3, 266888, Note_on_c, 0, 47, 0
3, 266888, Note_on_c, 0, 55, 0
3, 266892, Note_on_c, 0, 59, 0
3, 266892, Note_on_c, 0, 64, 69
3, 266904, Note_on_c, 0, 43, 59
3, 266924, Note_on_c, 0, 64, 0
3, 266928, Note_on_c, 0, 43, 0
3, 266928, Note_on_c, 0, 59, 62
3, 266928, Note_on_c, 0, 55, 56
3, 266932, Note_on_c, 0, 52, 46
3, 266936, Note_on_c, 0, 47, 57
3, 266944, Note_on_c, 0, 52, 0
3, 266952, Note_on_c, 0, 47, 0
3, 266952, Note_on_c, 0, 55, 0
3, 266956, Note_on_c, 0, 59, 0
3, 266956, Note_on_c, 0, 64, 78
3, 266968, Note_on_c, 0, 43, 59
3, 266988, Note_on_c, 0, 64, 0
3, 266992, Note_on_c, 0, 43, 0
3, 266992, Note_on_c, 0, 59, 61
3, 266992, Note_on_c, 0, 55, 58
3, 266996, Note_on_c, 0, 52, 54
3, 267000, Note_on_c, 0, 47, 57
3, 267012, Note_on_c, 0, 52, 0
3, 267016, Note_on_c, 0, 47, 0
3, 267016, Note_on_c, 0, 55, 0
3, 267020, Note_on_c, 0, 59, 0
3, 267020, Note_on_c, 0, 64, 81
3, 267032, Note_on_c, 0, 43, 66
3, 267052, Note_on_c, 0, 64, 0
3, 267056, Note_on_c, 0, 43, 0
3, 267056, Note_on_c, 0, 55, 53
3, 267056, Note_on_c, 0, 59, 59
3, 267060, Note_on_c, 0, 52, 56
3, 267068, Note_on_c, 0, 47, 54
3, 267076, Note_on_c, 0, 52, 0
3, 267084, Note_on_c, 0, 47, 0
3, 267084, Note_on_c, 0, 55, 0
3, 267088, Note_on_c, 0, 59, 0
3, 267088, Note_on_c, 0, 64, 75
3, 267100, Note_on_c, 0, 43, 72
3, 267120, Note_on_c, 0, 64, 0
3, 267124, Note_on_c, 0, 43, 0
3, 267124, Note_on_c, 0, 59, 61
3, 267128, Note_on_c, 0, 55, 60
3, 267128, Note_on_c, 0, 52, 54
3, 267132, Note_on_c, 0, 47, 56
3, 267144, Note_on_c, 0, 52, 0
3, 267148, Note_on_c, 0, 47, 0
3, 267152, Note_on_c, 0, 55, 0
3, 267156, Note_on_c, 0, 59, 0
3, 267156, Note_on_c, 0, 64, 82
3, 267164, Note_on_c, 0, 43, 66
3, 267184, Note_on_c, 0, 43, 0
3, 267184, Note_on_c, 0, 64, 0
3, 267188, Note_on_c, 0, 59, 65
3, 267192, Note_on_c, 0, 52, 54
3, 267192, Note_on_c, 0, 55, 55
3, 267196, Note_on_c, 0, 47, 62
3, 267204, Note_on_c, 0, 52, 0
3, 267212, Note_on_c, 0, 47, 0
3, 267216, Note_on_c, 0, 55, 0
3, 267216, Note_on_c, 0, 59, 0
3, 267220, Note_on_c, 0, 64, 78
3, 267228, Note_on_c, 0, 43, 68
3, 267248, Note_on_c, 0, 64, 0
3, 267252, Note_on_c, 0, 43, 0
3, 267252, Note_on_c, 0, 59, 62
3, 267252, Note_on_c, 0, 55, 58
3, 267256, Note_on_c, 0, 52, 50
3, 267264, Note_on_c, 0, 47, 53
3, 267272, Note_on_c, 0, 52, 0
3, 267276, Note_on_c, 0, 47, 0
3, 267280, Note_on_c, 0, 55, 0
3, 267280, Note_on_c, 0, 59, 0
3, 267284, Note_on_c, 0, 64, 75
3, 267292, Note_on_c, 0, 43, 63
3, 267316, Note_on_c, 0, 43, 0
3, 267316, Note_on_c, 0, 64, 0
3, 267320, Note_on_c, 0, 59, 64
3, 267320, Note_on_c, 0, 55, 59
3, 267324, Note_on_c, 0, 52, 57
3, 267324, Note_on_c, 0, 47, 59
3, 267340, Note_on_c, 0, 47, 0
3, 267340, Note_on_c, 0, 52, 0
3, 267344, Note_on_c, 0, 55, 0
3, 267348, Note_on_c, 0, 59, 0
3, 267348, Note_on_c, 0, 64, 82
3, 267360, Note_on_c, 0, 43, 73
3, 267384, Note_on_c, 0, 43, 0
3, 267384, Note_on_c, 0, 64, 0
3, 267388, Note_on_c, 0, 59, 62
3, 267388, Note_on_c, 0, 55, 66
3, 267392, Note_on_c, 0, 52, 54
3, 267392, Note_on_c, 0, 47, 58
3, 267404, Note_on_c, 0, 47, 0
3, 267404, Note_on_c, 0, 52, 0
3, 267412, Note_on_c, 0, 55, 0
3, 267416, Note_on_c, 0, 59, 0
3, 267416, Note_on_c, 0, 64, 82
3, 267428, Note_on_c, 0, 43, 69
3, 267448, Note_on_c, 0, 43, 0
3, 267448, Note_on_c, 0, 64, 0
3, 267452, Note_on_c, 0, 55, 62
3, 267452, Note_on_c, 0, 59, 62
3, 267452, Note_on_c, 0, 52, 55
3, 267456, Note_on_c, 0, 47, 52
3, 267468, Note_on_c, 0, 52, 0
3, 267472, Note_on_c, 0, 47, 0
3, 267476, Note_on_c, 0, 55, 0
3, 267480, Note_on_c, 0, 59, 0
3, 267480, Note_on_c, 0, 64, 83
3, 267492, Note_on_c, 0, 43, 69
3, 267512, Note_on_c, 0, 43, 0
3, 267512, Note_on_c, 0, 64, 0
3, 267516, Note_on_c, 0, 55, 62
3, 267516, Note_on_c, 0, 59, 66
3, 267520, Note_on_c, 0, 52, 47
3, 267520, Note_on_c, 0, 47, 52
3, 267532, Note_on_c, 0, 52, 0
3, 267544, Note_on_c, 0, 55, 0
3, 267544, Note_on_c, 0, 59, 0
3, 267544, Note_on_c, 0, 47, 0
3, 267544, Note_on_c, 0, 64, 84
3, 267556, Note_on_c, 0, 43, 68
3, 267576, Note_on_c, 0, 43, 0
3, 267576, Note_on_c, 0, 64, 0
3, 267580, Note_on_c, 0, 55, 64
3, 267580, Note_on_c, 0, 59, 66
3, 267584, Note_on_c, 0, 52, 55
3, 267588, Note_on_c, 0, 47, 46
3, 267604, Note_on_c, 0, 52, 0
3, 267604, Note_on_c, 0, 55, 0
3, 267608, Note_on_c, 0, 59, 0
3, 267608, Note_on_c, 0, 47, 0
3, 267608, Note_on_c, 0, 64, 80
3, 267620, Note_on_c, 0, 43, 64
3, 267640, Note_on_c, 0, 64, 0
3, 267644, Note_on_c, 0, 43, 0
3, 267644, Note_on_c, 0, 59, 64
3, 267644, Note_on_c, 0, 55, 63
3, 267648, Note_on_c, 0, 52, 56
3, 267652, Note_on_c, 0, 47, 43
3, 267668, Note_on_c, 0, 52, 0
3, 267672, Note_on_c, 0, 59, 0
3, 267672, Note_on_c, 0, 55, 0
3, 267676, Note_on_c, 0, 47, 0
3, 267676, Note_on_c, 0, 64, 82
3, 267688, Note_on_c, 0, 43, 65
3, 267712, Note_on_c, 0, 43, 0
3, 267712, Note_on_c, 0, 64, 0
3, 267712, Note_on_c, 0, 59, 59
3, 267712, Note_on_c, 0, 55, 50
3, 267724, Note_on_c, 0, 52, 42
3, 267732, Note_on_c, 0, 47, 27
3, 267736, Note_on_c, 0, 55, 0
3, 267740, Note_on_c, 0, 59, 0
3, 267740, Note_on_c, 0, 64, 69
3, 267744, Note_on_c, 0, 52, 0
3, 267768, Note_on_c, 0, 43, 64
3, 267772, Note_on_c, 0, 47, 0
3, 267780, Note_on_c, 0, 64, 0
3, 267780, Note_on_c, 0, 55, 56
3, 267780, Note_on_c, 0, 59, 68
3, 267792, Note_on_c, 0, 43, 0
3, 267796, Note_on_c, 0, 52, 49
3, 267804, Note_on_c, 0, 59, 0
3, 267808, Note_on_c, 0, 55, 0
3, 267812, Note_on_c, 0, 64, 80
3, 267816, Note_on_c, 0, 52, 0
3, 267836, Note_on_c, 0, 43, 43
3, 267852, Note_on_c, 0, 43, 0
3, 267852, Note_on_c, 0, 64, 0
3, 267860, Note_on_c, 0, 55, 63
3, 267864, Note_on_c, 0, 52, 55
3, 267876, Note_on_c, 0, 60, 80
3, 267888, Note_on_c, 0, 55, 0
3, 267900, Note_on_c, 0, 52, 0
3, 267908, Note_on_c, 0, 43, 76
3, 267912, Note_on_c, 0, 64, 82
3, 267916, Note_on_c, 0, 60, 0
3, 267932, Note_on_c, 0, 43, 0
3, 267936, Note_on_c, 0, 52, 60
3, 267944, Note_on_c, 0, 64, 0
3, 267948, Note_on_c, 0, 60, 78
3, 267948, Note_on_c, 0, 55, 57
3, 267976, Note_on_c, 0, 52, 0
3, 267976, Note_on_c, 0, 43, 73
3, 267980, Note_on_c, 0, 55, 0
3, 267980, Note_on_c, 0, 64, 77
3, 267988, Note_on_c, 0, 60, 0
3, 268000, Note_on_c, 0, 43, 0
3, 268008, Note_on_c, 0, 52, 67
3, 268016, Note_on_c, 0, 64, 0
3, 268016, Note_on_c, 0, 55, 72
3, 268020, Note_on_c, 0, 60, 84
3, 268040, Note_on_c, 0, 55, 0
3, 268040, Note_on_c, 0, 52, 0
3, 268044, Note_on_c, 0, 43, 75
3, 268048, Note_on_c, 0, 64, 84
3, 268052, Note_on_c, 0, 60, 0
3, 268072, Note_on_c, 0, 43, 0
3, 268076, Note_on_c, 0, 52, 60
3, 268080, Note_on_c, 0, 64, 0
3, 268084, Note_on_c, 0, 55, 64
3, 268088, Note_on_c, 0, 60, 80
3, 268108, Note_on_c, 0, 55, 0
3, 268108, Note_on_c, 0, 52, 0
3, 268112, Note_on_c, 0, 43, 55
3, 268116, Note_on_c, 0, 64, 76
3, 268124, Note_on_c, 0, 60, 0
3, 268148, Note_on_c, 0, 43, 0
3, 268148, Note_on_c, 0, 52, 64
3, 268156, Note_on_c, 0, 64, 0
3, 268156, Note_on_c, 0, 55, 63
3, 268156, Note_on_c, 0, 60, 71
3, 268180, Note_on_c, 0, 55, 0
3, 268184, Note_on_c, 0, 52, 0
3, 268188, Note_on_c, 0, 43, 65
3, 268188, Note_on_c, 0, 64, 82
3, 268196, Note_on_c, 0, 60, 0
3, 268216, Note_on_c, 0, 43, 0
3, 268220, Note_on_c, 0, 52, 63
3, 268224, Note_on_c, 0, 64, 0
3, 268228, Note_on_c, 0, 55, 69
3, 268228, Note_on_c, 0, 60, 80
3, 268252, Note_on_c, 0, 55, 0
3, 268252, Note_on_c, 0, 52, 0
3, 268256, Note_on_c, 0, 43, 55
3, 268260, Note_on_c, 0, 64, 72
3, 268264, Note_on_c, 0, 60, 0
3, 268284, Note_on_c, 0, 43, 0
3, 268288, Note_on_c, 0, 52, 61
3, 268296, Note_on_c, 0, 64, 0
3, 268300, Note_on_c, 0, 55, 68
3, 268300, Note_on_c, 0, 60, 76
3, 268324, Note_on_c, 0, 55, 0
3, 268328, Note_on_c, 0, 52, 0
3, 268332, Note_on_c, 0, 64, 76
3, 268332, Note_on_c, 0, 43, 61
3, 268336, Note_on_c, 0, 60, 0
3, 268356, Note_on_c, 0, 43, 0
3, 268364, Note_on_c, 0, 64, 0
3, 268368, Note_on_c, 0, 52, 64
3, 268368, Note_on_c, 0, 55, 61
3, 268372, Note_on_c, 0, 60, 75
3, 268400, Note_on_c, 0, 55, 0
3, 268404, Note_on_c, 0, 52, 0
3, 268404, Note_on_c, 0, 64, 73
3, 268408, Note_on_c, 0, 60, 0
3, 268412, Note_on_c, 0, 43, 68
3, 268448, Note_on_c, 0, 64, 0
3, 268460, Note_on_c, 0, 52, 70
3, 268460, Note_on_c, 0, 61, 77
3, 268460, Note_on_c, 0, 55, 73
3, 268464, Note_on_c, 0, 43, 0
3, 268496, Note_on_c, 0, 55, 0
3, 268504, Note_on_c, 0, 61, 0
3, 268504, Note_on_c, 0, 52, 0
3, 268504, Note_on_c, 0, 64, 76
3, 268512, Note_on_c, 0, 43, 55
3, 268528, Note_on_c, 0, 43, 0
3, 268540, Note_on_c, 0, 64, 0
3, 268540, Note_on_c, 0, 61, 68
3, 268544, Note_on_c, 0, 52, 58
3, 268544, Note_on_c, 0, 55, 63
3, 268576, Note_on_c, 0, 55, 0
3, 268580, Note_on_c, 0, 52, 0
3, 268580, Note_on_c, 0, 61, 0
3, 268580, Note_on_c, 0, 64, 79
3, 268584, Note_on_c, 0, 43, 63
3, 268608, Note_on_c, 0, 43, 0
3, 268612, Note_on_c, 0, 64, 0
3, 268620, Note_on_c, 0, 52, 63
3, 268620, Note_on_c, 0, 61, 68
3, 268620, Control_c, 0, 64, 24
3, 268624, Note_on_c, 0, 55, 64
3, 268636, Control_c, 0, 64, 40
3, 268648, Note_on_c, 0, 52, 0
3, 268652, Note_on_c, 0, 55, 0
3, 268652, Control_c, 0, 64, 56
3, 268656, Note_on_c, 0, 64, 78
3, 268660, Note_on_c, 0, 61, 0
3, 268660, Note_on_c, 0, 43, 57
3, 268684, Note_on_c, 0, 43, 0
3, 268692, Note_on_c, 0, 64, 0
3, 268692, Note_on_c, 0, 52, 64
3, 268696, Note_on_c, 0, 61, 68
3, 268700, Note_on_c, 0, 55, 63
3, 268724, Note_on_c, 0, 55, 0
3, 268724, Control_c, 0, 64, 72
3, 268728, Note_on_c, 0, 52, 0
3, 268732, Note_on_c, 0, 61, 0
3, 268732, Note_on_c, 0, 64, 78
3, 268740, Note_on_c, 0, 43, 62
3, 268764, Note_on_c, 0, 43, 0
3, 268764, Note_on_c, 0, 64, 0
3, 268772, Note_on_c, 0, 52, 70
3, 268772, Note_on_c, 0, 61, 72
3, 268772, Note_on_c, 0, 55, 70
3, 268804, Note_on_c, 0, 55, 0
3, 268808, Note_on_c, 0, 52, 0
3, 268808, Note_on_c, 0, 64, 81
3, 268812, Note_on_c, 0, 61, 0
3, 268816, Note_on_c, 0, 43, 63
3, 268840, Note_on_c, 0, 43, 0
3, 268844, Note_on_c, 0, 64, 0
3, 268848, Note_on_c, 0, 52, 62
3, 268848, Note_on_c, 0, 61, 70
3, 268852, Note_on_c, 0, 55, 64
3, 268880, Note_on_c, 0, 55, 0
3, 268884, Note_on_c, 0, 61, 0
3, 268884, Note_on_c, 0, 52, 0
3, 268884, Note_on_c, 0, 64, 82
3, 268892, Note_on_c, 0, 43, 62
3, 268908, Note_on_c, 0, 43, 0
3, 268920, Note_on_c, 0, 64, 0
3, 268920, Note_on_c, 0, 52, 62
3, 268924, Note_on_c, 0, 61, 72
3, 268928, Note_on_c, 0, 55, 62
3, 268952, Note_on_c, 0, 55, 0
3, 268956, Note_on_c, 0, 52, 0
3, 268960, Note_on_c, 0, 61, 0
3, 268960, Note_on_c, 0, 64, 74
3, 268968, Note_on_c, 0, 43, 60
3, 268988, Note_on_c, 0, 43, 0
3, 268992, Note_on_c, 0, 64, 0
3, 268996, Note_on_c, 0, 61, 63
3, 269000, Note_on_c, 0, 55, 53
3, 269000, Note_on_c, 0, 52, 62
3, 269032, Note_on_c, 0, 55, 0
3, 269036, Note_on_c, 0, 64, 80
3, 269040, Note_on_c, 0, 52, 0
3, 269040, Note_on_c, 0, 61, 0
3, 269052, Note_on_c, 0, 43, 59
3, 269064, Note_on_c, 0, 43, 0
3, 269064, Note_on_c, 0, 64, 0
3, 269080, Control_c, 0, 64, 40
3, 269084, Control_c, 0, 64, 24
3, 269088, Control_c, 0, 64, 0
3, 269096, Note_on_c, 0, 53, 70
3, 269096, Note_on_c, 0, 62, 83
3, 269100, Note_on_c, 0, 57, 66
3, 269124, Note_on_c, 0, 57, 0
3, 269128, Note_on_c, 0, 53, 0
3, 269132, Note_on_c, 0, 62, 0
3, 269132, Note_on_c, 0, 65, 76
3, 269136, Note_on_c, 0, 43, 68
3, 269136, Control_c, 0, 64, 40
3, 269140, Control_c, 0, 64, 56
3, 269144, Note_on_c, 0, 43, 0
3, 269148, Control_c, 0, 64, 72
3, 269152, Control_c, 0, 64, 88
3, 269160, Note_on_c, 0, 65, 0
3, 269164, Note_on_c, 0, 53, 68
3, 269168, Note_on_c, 0, 57, 64
3, 269168, Note_on_c, 0, 62, 77
3, 269176, Control_c, 0, 64, 104
3, 269196, Note_on_c, 0, 57, 0
3, 269196, Note_on_c, 0, 53, 0
3, 269204, Note_on_c, 0, 62, 0
3, 269204, Note_on_c, 0, 43, 69
3, 269204, Note_on_c, 0, 65, 80
3, 269228, Note_on_c, 0, 43, 0
3, 269232, Note_on_c, 0, 65, 0
3, 269236, Note_on_c, 0, 53, 71
3, 269240, Note_on_c, 0, 62, 73
3, 269244, Note_on_c, 0, 57, 57
3, 269268, Note_on_c, 0, 57, 0
3, 269268, Note_on_c, 0, 53, 0
3, 269276, Note_on_c, 0, 62, 0
3, 269276, Note_on_c, 0, 65, 82
3, 269276, Note_on_c, 0, 43, 68
3, 269296, Note_on_c, 0, 43, 0
3, 269300, Control_c, 0, 64, 88
3, 269308, Note_on_c, 0, 65, 0
3, 269312, Note_on_c, 0, 53, 61
3, 269316, Note_on_c, 0, 62, 75
3, 269320, Note_on_c, 0, 57, 65
3, 269344, Note_on_c, 0, 57, 0
3, 269344, Note_on_c, 0, 53, 0
3, 269348, Note_on_c, 0, 43, 62
3, 269352, Note_on_c, 0, 62, 0
3, 269352, Note_on_c, 0, 65, 79
3, 269372, Note_on_c, 0, 43, 0
3, 269384, Note_on_c, 0, 65, 0
3, 269384, Note_on_c, 0, 53, 58
3, 269392, Note_on_c, 0, 57, 58
3, 269392, Note_on_c, 0, 62, 62
3, 269424, Note_on_c, 0, 57, 0
3, 269424, Note_on_c, 0, 53, 0
3, 269428, Note_on_c, 0, 62, 0
3, 269428, Note_on_c, 0, 65, 79
3, 269432, Note_on_c, 0, 43, 65
3, 269460, Note_on_c, 0, 43, 0
3, 269464, Note_on_c, 0, 65, 0
3, 269472, Note_on_c, 0, 62, 67
3, 269472, Note_on_c, 0, 53, 64
3, 269472, Note_on_c, 0, 57, 56
3, 269500, Note_on_c, 0, 57, 0
3, 269504, Note_on_c, 0, 53, 0
3, 269508, Note_on_c, 0, 62, 0
3, 269508, Note_on_c, 0, 65, 77
3, 269508, Note_on_c, 0, 43, 61
3, 269528, Note_on_c, 0, 43, 0
3, 269540, Note_on_c, 0, 65, 0
3, 269544, Note_on_c, 0, 62, 59
3, 269548, Note_on_c, 0, 53, 59
3, 269548, Note_on_c, 0, 57, 57
3, 269576, Note_on_c, 0, 57, 0
3, 269576, Note_on_c, 0, 53, 0
3, 269580, Note_on_c, 0, 65, 78
3, 269584, Note_on_c, 0, 62, 0
3, 269584, Note_on_c, 0, 43, 61
3, 269596, Note_on_c, 0, 43, 0
3, 269616, Note_on_c, 0, 65, 0
3, 269620, Note_on_c, 0, 53, 51
3, 269624, Note_on_c, 0, 62, 63
3, 269628, Note_on_c, 0, 57, 54
3, 269652, Note_on_c, 0, 57, 0
3, 269652, Note_on_c, 0, 53, 0
3, 269656, Note_on_c, 0, 43, 58
3, 269660, Note_on_c, 0, 62, 0
3, 269660, Note_on_c, 0, 65, 74
3, 269668, Note_on_c, 0, 43, 0
3, 269692, Note_on_c, 0, 65, 0
3, 269692, Note_on_c, 0, 53, 49
3, 269696, Note_on_c, 0, 62, 63
3, 269700, Note_on_c, 0, 57, 51
3, 269720, Note_on_c, 0, 57, 0
3, 269724, Note_on_c, 0, 53, 0
3, 269732, Note_on_c, 0, 62, 0
3, 269732, Note_on_c, 0, 43, 51
3, 269732, Note_on_c, 0, 65, 75
3, 269744, Note_on_c, 0, 43, 0
3, 269768, Note_on_c, 0, 65, 0
3, 269768, Note_on_c, 0, 53, 47
3, 269776, Note_on_c, 0, 57, 57
3, 269780, Note_on_c, 0, 62, 68
3, 269808, Note_on_c, 0, 57, 0
3, 269808, Note_on_c, 0, 53, 0
3, 269812, Note_on_c, 0, 62, 0
3, 269812, Note_on_c, 0, 65, 78
3, 269816, Note_on_c, 0, 43, 52
3, 269848, Note_on_c, 0, 43, 0
3, 269856, Note_on_c, 0, 65, 0
3, 269860, Note_on_c, 0, 57, 55
3, 269860, Note_on_c, 0, 53, 51
3, 269860, Note_on_c, 0, 62, 68
3, 269892, Note_on_c, 0, 57, 0
3, 269896, Note_on_c, 0, 62, 0
3, 269896, Note_on_c, 0, 53, 0
3, 269896, Note_on_c, 0, 65, 77
3, 269904, Note_on_c, 0, 43, 62
3, 269916, Note_on_c, 0, 43, 0
3, 269932, Note_on_c, 0, 65, 0
3, 269940, Note_on_c, 0, 53, 62
3, 269940, Note_on_c, 0, 62, 63
3, 269940, Note_on_c, 0, 57, 62
3, 269972, Note_on_c, 0, 57, 0
3, 269976, Note_on_c, 0, 62, 0
3, 269976, Note_on_c, 0, 53, 0
3, 269980, Note_on_c, 0, 65, 74
3, 269984, Note_on_c, 0, 43, 58
3, 270000, Note_on_c, 0, 43, 0
3, 270020, Note_on_c, 0, 65, 0
3, 270024, Note_on_c, 0, 53, 55
3, 270024, Note_on_c, 0, 62, 70
3, 270028, Note_on_c, 0, 57, 58
3, 270060, Note_on_c, 0, 57, 0
3, 270060, Note_on_c, 0, 53, 0
3, 270064, Note_on_c, 0, 62, 0
3, 270064, Note_on_c, 0, 65, 74
3, 270064, Note_on_c, 0, 43, 58
3, 270076, Note_on_c, 0, 43, 0
3, 270096, Note_on_c, 0, 65, 0
3, 270100, Note_on_c, 0, 53, 48
3, 270104, Note_on_c, 0, 62, 67
3, 270104, Note_on_c, 0, 57, 58
3, 270132, Note_on_c, 0, 53, 0
3, 270136, Note_on_c, 0, 57, 0
3, 270140, Note_on_c, 0, 62, 0
3, 270140, Note_on_c, 0, 43, 46
3, 270144, Note_on_c, 0, 65, 73
3, 270156, Note_on_c, 0, 43, 0
3, 270156, Control_c, 0, 64, 104
3, 270172, Note_on_c, 0, 53, 51
3, 270176, Note_on_c, 0, 65, 0
3, 270184, Note_on_c, 0, 62, 66
3, 270184, Note_on_c, 0, 57, 57
3, 270204, Note_on_c, 0, 53, 0
3, 270212, Note_on_c, 0, 57, 0
3, 270212, Note_on_c, 0, 43, 57
3, 270216, Note_on_c, 0, 65, 78
3, 270220, Note_on_c, 0, 62, 0
3, 270228, Note_on_c, 0, 43, 0
3, 270248, Note_on_c, 0, 65, 0
3, 270252, Note_on_c, 0, 53, 53
3, 270260, Note_on_c, 0, 62, 67
3, 270260, Note_on_c, 0, 57, 53
3, 270284, Note_on_c, 0, 57, 0
3, 270288, Note_on_c, 0, 62, 0
3, 270288, Note_on_c, 0, 53, 0
3, 270292, Note_on_c, 0, 65, 69
3, 270300, Note_on_c, 0, 43, 50
3, 270316, Note_on_c, 0, 65, 0
3, 270316, Control_c, 0, 64, 72
3, 270324, Control_c, 0, 64, 24
3, 270328, Control_c, 0, 64, 0
3, 270332, Note_on_c, 0, 43, 0
3, 270332, Note_on_c, 0, 56, 84
3, 270332, Note_on_c, 0, 62, 85
3, 270336, Note_on_c, 0, 53, 73
3, 270356, Control_c, 0, 64, 24
3, 270360, Control_c, 0, 64, 56
3, 270364, Control_c, 0, 64, 88
3, 270368, Control_c, 0, 64, 104
3, 270372, Note_on_c, 0, 56, 0
3, 270372, Control_c, 0, 64, 127
3, 270380, Note_on_c, 0, 53, 0
3, 270380, Note_on_c, 0, 65, 72
3, 270384, Note_on_c, 0, 62, 0
3, 270388, Note_on_c, 0, 43, 61
3, 270400, Note_on_c, 0, 43, 0
3, 270408, Note_on_c, 0, 65, 0
3, 270416, Note_on_c, 0, 56, 66
3, 270416, Note_on_c, 0, 53, 62
3, 270420, Note_on_c, 0, 62, 69
3, 270448, Note_on_c, 0, 56, 0
3, 270452, Note_on_c, 0, 53, 0
3, 270456, Note_on_c, 0, 62, 0
3, 270460, Note_on_c, 0, 65, 64
3, 270460, Note_on_c, 0, 43, 57
3, 270472, Note_on_c, 0, 43, 0
3, 270492, Note_on_c, 0, 53, 56
3, 270496, Note_on_c, 0, 65, 0
3, 270500, Note_on_c, 0, 56, 52
3, 270504, Note_on_c, 0, 62, 62
3, 270532, Note_on_c, 0, 65, 68
3, 270536, Note_on_c, 0, 56, 0
3, 270536, Note_on_c, 0, 43, 50
3, 270540, Note_on_c, 0, 53, 0
3, 270540, Note_on_c, 0, 62, 0
3, 270540, Note_on_c, 0, 65, 71
3, 270544, Note_on_c, 0, 43, 55
3, 270552, Note_on_c, 0, 43, 0
3, 270564, Note_on_c, 0, 43, 0
3, 270568, Note_on_c, 0, 65, 0
3, 270572, Note_on_c, 0, 53, 54
3, 270572, Note_on_c, 0, 62, 71
3, 270572, Note_on_c, 0, 56, 50
3, 270584, Note_on_c, 0, 65, 0
3, 270600, Note_on_c, 0, 53, 0
3, 270600, Note_on_c, 0, 56, 0
3, 270604, Note_on_c, 0, 62, 0
3, 270604, Note_on_c, 0, 65, 69
3, 270612, Note_on_c, 0, 43, 58
3, 270628, Note_on_c, 0, 43, 0
3, 270636, Note_on_c, 0, 65, 0
3, 270644, Note_on_c, 0, 53, 59
3, 270648, Note_on_c, 0, 56, 58
3, 270648, Note_on_c, 0, 62, 74
3, 270676, Note_on_c, 0, 56, 0
3, 270680, Note_on_c, 0, 53, 0
3, 270680, Note_on_c, 0, 65, 72
3, 270684, Note_on_c, 0, 62, 0
3, 270688, Note_on_c, 0, 43, 46
3, 270712, Note_on_c, 0, 65, 0
3, 270720, Note_on_c, 0, 43, 0
3, 270720, Note_on_c, 0, 56, 56
3, 270720, Note_on_c, 0, 62, 74
3, 270724, Note_on_c, 0, 53, 59
3, 270748, Note_on_c, 0, 53, 0
3, 270748, Note_on_c, 0, 56, 0
3, 270756, Note_on_c, 0, 62, 0
3, 270756, Note_on_c, 0, 65, 67
3, 270760, Note_on_c, 0, 43, 60
3, 270780, Note_on_c, 0, 43, 0
3, 270788, Note_on_c, 0, 65, 0
3, 270808, Note_on_c, 0, 62, 76
3, 270808, Note_on_c, 0, 53, 62
3, 270808, Note_on_c, 0, 56, 56
3, 270832, Note_on_c, 0, 53, 0
3, 270836, Note_on_c, 0, 56, 0
3, 270840, Note_on_c, 0, 62, 0
3, 270856, Note_on_c, 0, 56, 64
3, 270860, Note_on_c, 0, 53, 59
3, 270860, Note_on_c, 0, 62, 78
3, 270884, Note_on_c, 0, 53, 0
3, 270888, Note_on_c, 0, 56, 0
3, 270892, Note_on_c, 0, 62, 0
3, 271124, Control_c, 0, 64, 88
3, 271128, Control_c, 0, 64, 56
3, 271132, Control_c, 0, 64, 0
3, 291728, Note_on_c, 0, 67, 58
3, 291768, Note_on_c, 0, 67, 0
3, 291768, Note_on_c, 0, 72, 58
3, 291808, Note_on_c, 0, 72, 0
3, 292208, Note_on_c, 0, 60, 41
3, 292236, Control_c, 0, 64, 24
3, 292240, Note_on_c, 0, 67, 53
3, 292248, Control_c, 0, 64, 72
3, 292256, Control_c, 0, 64, 104
3, 292272, Control_c, 0, 64, 127
3, 292304, Note_on_c, 0, 71, 60
3, 292316, Note_on_c, 0, 67, 0
3, 292324, Note_on_c, 0, 60, 0
3, 292364, Note_on_c, 0, 71, 0
3, 292364, Note_on_c, 0, 77, 70
3, 292408, Note_on_c, 0, 77, 0
3, 293256, Control_c, 0, 64, 88
3, 293324, Control_c, 0, 64, 72
3, 293356, Control_c, 0, 64, 56
3, 293560, Control_c, 0, 64, 40
3, 293620, Control_c, 0, 64, 24
3, 293696, Control_c, 0, 64, 0
3, 293824, Control_c, 0, 64, 40
3, 293828, Note_on_c, 0, 60, 37
3, 293836, Control_c, 0, 64, 88
3, 293848, Control_c, 0, 64, 127
3, 293872, Note_on_c, 0, 67, 45
3, 293928, Note_on_c, 0, 60, 0
3, 293928, Note_on_c, 0, 72, 63
3, 293956, Note_on_c, 0, 67, 0
3, 293996, Note_on_c, 0, 76, 63
3, 294000, Note_on_c, 0, 72, 0
3, 294032, Note_on_c, 0, 76, 0
3, 294804, Control_c, 0, 64, 104
3, 294812, Control_c, 0, 64, 88
3, 294836, Control_c, 0, 64, 72
3, 294844, Control_c, 0, 64, 56
3, 294856, Control_c, 0, 64, 40
3, 294876, Control_c, 0, 64, 24
3, 294908, Control_c, 0, 64, 0
3, 295252, Control_c, 0, 64, 40
3, 295264, Control_c, 0, 64, 104
3, 295272, Control_c, 0, 64, 127
3, 295288, Note_on_c, 0, 60, 44
3, 295348, Note_on_c, 0, 66, 54
3, 295372, Note_on_c, 0, 60, 0
3, 295400, Note_on_c, 0, 74, 54
3, 295400, Note_on_c, 0, 69, 50
3, 295432, Note_on_c, 0, 69, 0
3, 295432, Note_on_c, 0, 66, 0
3, 295440, Note_on_c, 0, 78, 63
3, 295444, Note_on_c, 0, 74, 0
3, 295500, Note_on_c, 0, 78, 0
3, 295500, Note_on_c, 0, 81, 68
3, 295536, Note_on_c, 0, 81, 0
3, 296052, Control_c, 0, 64, 72
3, 296056, Note_on_c, 0, 60, 51
3, 296064, Control_c, 0, 64, 24
3, 296076, Control_c, 0, 64, 0
3, 296116, Control_c, 0, 64, 40
3, 296128, Control_c, 0, 64, 127
3, 296144, Note_on_c, 0, 65, 60
3, 296152, Note_on_c, 0, 60, 0
3, 296172, Note_on_c, 0, 71, 47
3, 296200, Note_on_c, 0, 65, 0
3, 296208, Note_on_c, 0, 71, 0
3, 296212, Note_on_c, 0, 74, 52
3, 296248, Note_on_c, 0, 77, 58
3, 296268, Note_on_c, 0, 74, 0
3, 296280, Note_on_c, 0, 77, 0
3, 296284, Note_on_c, 0, 79, 65
3, 296324, Note_on_c, 0, 79, 0
3, 296768, Control_c, 0, 64, 56
3, 296776, Note_on_c, 0, 60, 64
3, 296776, Control_c, 0, 64, 0
3, 296820, Control_c, 0, 64, 56
3, 296832, Note_on_c, 0, 60, 0
3, 296832, Control_c, 0, 64, 127
3, 296840, Note_on_c, 0, 64, 51
3, 296868, Note_on_c, 0, 67, 60
3, 296876, Note_on_c, 0, 64, 0
3, 296892, Note_on_c, 0, 72, 54
3, 296904, Note_on_c, 0, 67, 0
3, 296928, Note_on_c, 0, 72, 0
3, 296944, Note_on_c, 0, 76, 59
3, 297000, Note_on_c, 0, 76, 0
3, 297004, Note_on_c, 0, 79, 61
3, 297052, Note_on_c, 0, 79, 0
3, 298160, Control_c, 0, 64, 104
3, 298192, Control_c, 0, 64, 88
3, 298212, Control_c, 0, 64, 72
3, 298224, Control_c, 0, 64, 56
3, 298248, Control_c, 0, 64, 40
3, 298256, Control_c, 0, 64, 24
3, 298268, Control_c, 0, 64, 0
3, 298380, Control_c, 0, 64, 24
3, 298388, Control_c, 0, 64, 72
3, 298400, Control_c, 0, 64, 127
3, 298428, Note_on_c, 0, 60, 49
3, 298492, Note_on_c, 0, 67, 53
3, 298508, Note_on_c, 0, 60, 0
3, 298536, Note_on_c, 0, 71, 45
3, 298548, Note_on_c, 0, 77, 58
3, 298552, Note_on_c, 0, 67, 0
3, 298568, Note_on_c, 0, 71, 0
3, 298584, Note_on_c, 0, 77, 0
3, 298604, Note_on_c, 0, 79, 51
3, 298632, Note_on_c, 0, 79, 0
3, 298652, Note_on_c, 0, 83, 53
3, 298704, Note_on_c, 0, 83, 0
3, 298732, Note_on_c, 0, 89, 76
3, 298812, Note_on_c, 0, 89, 0
3, 300004, Control_c, 0, 64, 104
3, 300012, Control_c, 0, 64, 56
3, 300024, Note_on_c, 0, 60, 62
3, 300024, Control_c, 0, 64, 0
3, 300068, Control_c, 0, 64, 40
3, 300080, Control_c, 0, 64, 127
3, 300092, Note_on_c, 0, 60, 0
3, 300092, Note_on_c, 0, 67, 55
3, 300136, Note_on_c, 0, 72, 53
3, 300148, Note_on_c, 0, 76, 54
3, 300152, Note_on_c, 0, 67, 0
3, 300176, Note_on_c, 0, 72, 0
3, 300180, Note_on_c, 0, 76, 0
3, 300244, Note_on_c, 0, 84, 67
3, 300304, Note_on_c, 0, 88, 72
3, 300308, Note_on_c, 0, 84, 0
3, 300344, Note_on_c, 0, 88, 0
3, 301560, Control_c, 0, 64, 104
3, 301572, Control_c, 0, 64, 72
3, 301584, Control_c, 0, 64, 24
3, 301592, Control_c, 0, 64, 0
3, 301620, Note_on_c, 0, 59, 45
3, 301648, Control_c, 0, 64, 56
3, 301660, Note_on_c, 0, 59, 0
3, 301660, Note_on_c, 0, 64, 47
3, 301660, Control_c, 0, 64, 127
3, 301700, Note_on_c, 0, 68, 47
3, 301716, Note_on_c, 0, 64, 0
3, 301748, Note_on_c, 0, 76, 53
3, 301784, Note_on_c, 0, 76, 0
3, 301800, Note_on_c, 0, 80, 37
3, 301828, Note_on_c, 0, 80, 0
3, 301860, Note_on_c, 0, 88, 60
3, 301884, Note_on_c, 0, 88, 0
3, 302112, Note_on_c, 0, 68, 0
3, 302416, Note_on_c, 0, 59, 50
3, 302416, Control_c, 0, 64, 72
3, 302428, Control_c, 0, 64, 24
3, 302440, Control_c, 0, 64, 0
3, 302452, Note_on_c, 0, 59, 0
3, 302464, Note_on_c, 0, 66, 54
3, 302472, Control_c, 0, 64, 56
3, 302480, Control_c, 0, 64, 127
3, 302520, Note_on_c, 0, 69, 48
3, 302556, Note_on_c, 0, 66, 0
3, 302564, Note_on_c, 0, 71, 49
3, 302572, Note_on_c, 0, 75, 50
3, 302580, Note_on_c, 0, 69, 0
3, 302596, Note_on_c, 0, 71, 0
3, 302612, Note_on_c, 0, 75, 0
3, 302620, Note_on_c, 0, 78, 42
3, 302644, Note_on_c, 0, 78, 0
3, 302676, Note_on_c, 0, 87, 65
3, 302728, Note_on_c, 0, 87, 0
3, 302752, Note_on_c, 0, 90, 70
3, 302824, Note_on_c, 0, 90, 0
3, 303368, Note_on_c, 0, 64, 42
3, 303384, Control_c, 0, 64, 72
3, 303392, Control_c, 0, 64, 24
3, 303404, Control_c, 0, 64, 0
3, 303412, Note_on_c, 0, 68, 42
3, 303436, Note_on_c, 0, 64, 0
3, 303448, Control_c, 0, 64, 56
3, 303452, Note_on_c, 0, 71, 43
3, 303456, Control_c, 0, 64, 127
3, 303476, Note_on_c, 0, 68, 0
3, 303488, Note_on_c, 0, 76, 42
3, 303508, Note_on_c, 0, 71, 0
3, 303516, Note_on_c, 0, 80, 41
3, 303528, Note_on_c, 0, 76, 0
3, 303560, Note_on_c, 0, 80, 0
3, 303580, Note_on_c, 0, 83, 49
3, 303612, Note_on_c, 0, 83, 0
3, 303640, Note_on_c, 0, 88, 66
3, 303688, Note_on_c, 0, 88, 0
3, 303704, Note_on_c, 0, 92, 66
3, 303724, Note_on_c, 0, 92, 0
3, 304984, Control_c, 0, 64, 104
3, 304996, Control_c, 0, 64, 56
3, 305000, Note_on_c, 0, 64, 51
3, 305008, Control_c, 0, 64, 24
3, 305016, Control_c, 0, 64, 0
3, 305048, Control_c, 0, 64, 24
3, 305060, Control_c, 0, 64, 72
3, 305072, Control_c, 0, 64, 127
3, 305080, Note_on_c, 0, 69, 52
3, 305104, Note_on_c, 0, 75, 50
3, 305180, Note_on_c, 0, 75, 0
3, 305180, Note_on_c, 0, 81, 66
3, 305244, Note_on_c, 0, 81, 0
3, 305580, Note_on_c, 0, 64, 0
3, 305616, Note_on_c, 0, 69, 0
3, 306684, Control_c, 0, 64, 72
3, 306696, Control_c, 0, 64, 24
3, 306708, Control_c, 0, 64, 0
3, 306736, Note_on_c, 0, 64, 55
3, 306748, Control_c, 0, 64, 40
3, 306760, Control_c, 0, 64, 104
3, 306772, Control_c, 0, 64, 127
3, 306792, Note_on_c, 0, 71, 38
3, 306808, Note_on_c, 0, 64, 0
3, 306808, Note_on_c, 0, 76, 50
3, 306840, Note_on_c, 0, 71, 0
3, 306876, Note_on_c, 0, 80, 59
3, 306884, Note_on_c, 0, 76, 0
3, 306944, Note_on_c, 0, 80, 0
3, 308440, Control_c, 0, 64, 88
3, 308452, Control_c, 0, 64, 40
3, 308464, Control_c, 0, 64, 0
3, 308468, Note_on_c, 0, 64, 52
3, 308516, Control_c, 0, 64, 56
3, 308520, Note_on_c, 0, 70, 37
3, 308528, Control_c, 0, 64, 127
3, 308568, Note_on_c, 0, 70, 0
3, 308568, Note_on_c, 0, 73, 54
3, 308616, Note_on_c, 0, 73, 0
3, 308616, Note_on_c, 0, 78, 71
3, 308676, Note_on_c, 0, 64, 0
3, 308692, Note_on_c, 0, 78, 0
3, 309176, Control_c, 0, 64, 72
3, 309184, Control_c, 0, 64, 24
3, 309188, Note_on_c, 0, 64, 39
3, 309196, Control_c, 0, 64, 0
3, 309212, Note_on_c, 0, 69, 49
3, 309216, Note_on_c, 0, 75, 57
3, 309232, Control_c, 0, 64, 104
3, 309240, Control_c, 0, 64, 127
3, 309248, Note_on_c, 0, 75, 0
3, 309288, Note_on_c, 0, 78, 58
3, 309316, Note_on_c, 0, 83, 58
3, 309328, Note_on_c, 0, 78, 0
3, 309332, Note_on_c, 0, 87, 59
3, 309356, Note_on_c, 0, 83, 0
3, 309380, Note_on_c, 0, 87, 0
3, 309404, Note_on_c, 0, 90, 72
3, 309476, Note_on_c, 0, 90, 0
3, 309524, Note_on_c, 0, 64, 0
3, 309564, Note_on_c, 0, 69, 0
3, 309984, Control_c, 0, 64, 72
3, 309996, Note_on_c, 0, 64, 46
3, 310000, Control_c, 0, 64, 0
3, 310024, Note_on_c, 0, 68, 50
3, 310032, Note_on_c, 0, 64, 0
3, 310044, Control_c, 0, 64, 104
3, 310052, Control_c, 0, 64, 127
3, 310076, Note_on_c, 0, 71, 34
3, 310080, Note_on_c, 0, 68, 0
3, 310096, Note_on_c, 0, 76, 44
3, 310100, Note_on_c, 0, 80, 43
3, 310112, Note_on_c, 0, 71, 0
3, 310128, Note_on_c, 0, 80, 0
3, 310132, Note_on_c, 0, 76, 0
3, 310192, Note_on_c, 0, 88, 48
3, 310228, Note_on_c, 0, 88, 0
3, 310236, Note_on_c, 0, 92, 72
3, 310300, Note_on_c, 0, 92, 0
3, 311772, Control_c, 0, 64, 104
3, 311796, Control_c, 0, 64, 88
3, 311804, Control_c, 0, 64, 72
3, 311812, Control_c, 0, 64, 40
3, 311828, Control_c, 0, 64, 24
3, 311836, Control_c, 0, 64, 0
3, 311912, Control_c, 0, 64, 24
3, 311916, Note_on_c, 0, 64, 39
3, 311920, Control_c, 0, 64, 72
3, 311932, Control_c, 0, 64, 127
3, 311956, Note_on_c, 0, 81, 65
3, 311956, Note_on_c, 0, 71, 40
3, 311992, Note_on_c, 0, 75, 41
3, 312016, Note_on_c, 0, 83, 39
3, 312024, Note_on_c, 0, 81, 0
3, 312040, Note_on_c, 0, 87, 58
3, 312044, Note_on_c, 0, 83, 0
3, 312072, Note_on_c, 0, 90, 49
3, 312100, Note_on_c, 0, 87, 0
3, 312120, Note_on_c, 0, 90, 0
3, 312120, Note_on_c, 0, 93, 75
3, 312164, Note_on_c, 0, 93, 0
3, 312412, Note_on_c, 0, 64, 0
3, 312444, Note_on_c, 0, 71, 0
3, 312448, Note_on_c, 0, 75, 0
3, 313124, Control_c, 0, 64, 104
3, 313328, Control_c, 0, 64, 88
3, 313540, Control_c, 0, 64, 72
3, 313548, Control_c, 0, 64, 56
3, 313560, Control_c, 0, 64, 40
3, 313572, Control_c, 0, 64, 24
3, 313580, Control_c, 0, 64, 0
3, 313644, Note_on_c, 0, 64, 48
3, 313668, Control_c, 0, 64, 56
3, 313680, Control_c, 0, 64, 104
3, 313692, Control_c, 0, 64, 127
3, 313704, Note_on_c, 0, 71, 52
3, 313748, Note_on_c, 0, 76, 40
3, 313760, Note_on_c, 0, 64, 0
3, 313760, Note_on_c, 0, 80, 40
3, 313780, Note_on_c, 0, 71, 0
3, 313788, Note_on_c, 0, 76, 0
3, 313840, Note_on_c, 0, 83, 34
3, 313864, Note_on_c, 0, 80, 0
3, 313868, Note_on_c, 0, 88, 55
3, 313872, Note_on_c, 0, 83, 0
3, 313908, Note_on_c, 0, 88, 0
3, 313920, Note_on_c, 0, 92, 63
3, 313964, Note_on_c, 0, 92, 0
3, 314868, Control_c, 0, 64, 104
3, 314880, Control_c, 0, 64, 88
3, 314912, Control_c, 0, 64, 72
3, 314932, Control_c, 0, 64, 56
3, 314944, Control_c, 0, 64, 40
3, 314964, Control_c, 0, 64, 24
3, 314976, Control_c, 0, 64, 0
3, 315168, Control_c, 0, 64, 24
3, 315180, Control_c, 0, 64, 56
3, 315192, Control_c, 0, 64, 88
3, 315200, Control_c, 0, 64, 127
3, 315704, Control_c, 0, 64, 72
3, 315716, Control_c, 0, 64, 56
3, 315728, Control_c, 0, 64, 24
3, 315736, Control_c, 0, 64, 0
3, 315832, Control_c, 0, 64, 24
3, 315844, Control_c, 0, 64, 56
3, 315856, Control_c, 0, 64, 104
3, 315864, Control_c, 0, 64, 127
3, 315964, Note_on_c, 0, 100, 46
3, 315964, Note_on_c, 0, 104, 75
3, 315984, Note_on_c, 0, 100, 0
3, 316004, Note_on_c, 0, 104, 0
3, 316248, Note_on_c, 0, 95, 63
3, 316248, Note_on_c, 0, 100, 78
3, 316296, Note_on_c, 0, 100, 0
3, 316300, Note_on_c, 0, 95, 0
3, 316472, Note_on_c, 0, 95, 73
3, 316472, Note_on_c, 0, 92, 56
3, 316500, Note_on_c, 0, 92, 0
3, 316520, Note_on_c, 0, 95, 0
3, 316744, Note_on_c, 0, 88, 58
3, 316744, Note_on_c, 0, 92, 72
3, 316776, Note_on_c, 0, 88, 0
3, 316784, Note_on_c, 0, 92, 0
3, 316968, Note_on_c, 0, 88, 68
3, 316968, Note_on_c, 0, 83, 66
3, 316988, Note_on_c, 0, 88, 0
3, 317008, Note_on_c, 0, 83, 0
3, 317196, Note_on_c, 0, 80, 39
3, 317196, Note_on_c, 0, 83, 62
3, 317228, Note_on_c, 0, 80, 0
3, 317232, Note_on_c, 0, 83, 0
3, 317424, Note_on_c, 0, 80, 53
3, 317424, Note_on_c, 0, 76, 57
3, 317452, Note_on_c, 0, 76, 0
3, 317456, Note_on_c, 0, 80, 0
3, 317716, Note_on_c, 0, 76, 67
3, 317744, Note_on_c, 0, 76, 0
3, 317944, Note_on_c, 0, 71, 55
3, 317944, Note_on_c, 0, 68, 49
3, 318004, Note_on_c, 0, 71, 0
3, 318012, Note_on_c, 0, 68, 0
3, 318160, Note_on_c, 0, 68, 50
3, 318160, Note_on_c, 0, 64, 48
3, 318196, Note_on_c, 0, 64, 0
3, 318196, Note_on_c, 0, 68, 0
3, 318360, Note_on_c, 0, 59, 42
3, 318360, Note_on_c, 0, 64, 59
3, 318388, Note_on_c, 0, 64, 0
3, 318412, Note_on_c, 0, 59, 0
3, 318520, Note_on_c, 0, 44, 43
3, 318544, Control_c, 0, 64, 104
3, 318556, Control_c, 0, 64, 72
3, 318564, Note_on_c, 0, 52, 48
3, 318568, Control_c, 0, 64, 24
3, 318576, Control_c, 0, 64, 0
3, 318608, Note_on_c, 0, 59, 58
3, 318620, Control_c, 0, 64, 56
3, 318632, Control_c, 0, 64, 104
3, 318640, Control_c, 0, 64, 127
3, 318692, Note_on_c, 0, 52, 0
3, 318708, Note_on_c, 0, 59, 0
3, 318764, Note_on_c, 0, 44, 0
3, 319500, Control_c, 0, 64, 24
3, 319520, Control_c, 0, 64, 56
3, 319520, Note_on_c, 0, 56, 41
3, 319528, Control_c, 0, 64, 88
3, 319540, Control_c, 0, 64, 127
3, 319620, Note_on_c, 0, 64, 49
3, 319668, Note_on_c, 0, 56, 0
3, 319732, Note_on_c, 0, 71, 53
3, 319740, Note_on_c, 0, 64, 0
3, 319792, Note_on_c, 0, 71, 0
3, 320348, Control_c, 0, 64, 104
3, 320360, Control_c, 0, 64, 56
3, 320376, Control_c, 0, 64, 0
3, 320408, Note_on_c, 0, 68, 43
3, 320456, Control_c, 0, 64, 24
3, 320468, Control_c, 0, 64, 72
3, 320480, Control_c, 0, 64, 127
3, 320520, Note_on_c, 0, 76, 59
3, 320524, Note_on_c, 0, 68, 0
3, 320632, Note_on_c, 0, 76, 0
3, 320636, Note_on_c, 0, 83, 58
3, 320684, Note_on_c, 0, 83, 0
3, 321288, Control_c, 0, 64, 104
3, 321312, Control_c, 0, 64, 88
3, 321328, Control_c, 0, 64, 72
3, 321340, Control_c, 0, 64, 56
3, 321368, Control_c, 0, 64, 40
3, 321380, Control_c, 0, 64, 24
3, 321408, Control_c, 0, 64, 0
3, 321408, End_track
0, 0, End_of_file
