0, 0, Header, 1, 3, 384
1, 0, Start_track
1, 0, Title_t, "--------"
1, 0, Sequencer_specific, 3, 0, 0, 65
1, 0, Time_signature, 4, 2, 24, 8
1, 0, Key_signature, 0, "major"
1, 0, Tempo, 465116
1, 52172, Tempo, 413793
1, 52224, Tempo, 413793
1, 93908, Tempo, 500000
1, 111032, Tempo, 600000
1, 118292, Tempo, 631579
1, 125636, Tempo, 666667
1, 129904, Tempo, 750000
1, 131820, Tempo, 428571
1, 131820, End_track
2, 0, Start_track
2, 0, Title_t, "Piano 1"
2, 0, Program_c, 0, 0
2, 0, Control_c, 0, 7, 100
2, 0, Control_c, 0, 10, 79
2, 7592, Note_on_c, 0, 70, 64
2, 7668, Note_on_c, 0, 70, 0
2, 7684, Note_on_c, 0, 82, 72
2, 7684, Control_c, 0, 64, 56
2, 7696, Note_on_c, 0, 39, 44
2, 7696, Control_c, 0, 64, 88
2, 7704, Control_c, 0, 64, 127
2, 7720, Note_on_c, 0, 82, 0
2, 7788, Note_on_c, 0, 46, 37
2, 7804, Note_on_c, 0, 39, 0
2, 7820, Note_on_c, 0, 94, 86
2, 7828, Note_on_c, 0, 54, 58
2, 7852, Note_on_c, 0, 94, 0
2, 7860, Note_on_c, 0, 46, 0
2, 7864, Note_on_c, 0, 54, 0
2, 8008, Control_c, 0, 64, 88
2, 8020, Control_c, 0, 64, 72
2, 8032, Control_c, 0, 64, 40
2, 8044, Control_c, 0, 64, 24
2, 8052, Control_c, 0, 64, 0
2, 8152, Note_on_c, 0, 92, 79
2, 8152, Note_on_c, 0, 80, 64
2, 8192, Note_on_c, 0, 80, 0
2, 8192, Note_on_c, 0, 92, 0
2, 8260, Note_on_c, 0, 78, 69
2, 8280, Note_on_c, 0, 78, 0
2, 8348, Note_on_c, 0, 87, 75
2, 8348, Note_on_c, 0, 75, 74
2, 8372, Note_on_c, 0, 75, 0
2, 8384, Note_on_c, 0, 87, 0
2, 8436, Note_on_c, 0, 42, 54
2, 8476, Note_on_c, 0, 42, 0
2, 8476, Control_c, 0, 64, 56
2, 8480, Note_on_c, 0, 90, 86
2, 8480, Note_on_c, 0, 78, 80
2, 8484, Note_on_c, 0, 49, 48
2, 8484, Control_c, 0, 64, 104
2, 8496, Control_c, 0, 64, 127
2, 8508, Note_on_c, 0, 49, 0
2, 8512, Note_on_c, 0, 58, 58
2, 8528, Note_on_c, 0, 78, 0
2, 8528, Note_on_c, 0, 90, 0
2, 8540, Note_on_c, 0, 58, 0
2, 8596, Control_c, 0, 64, 104
2, 8608, Control_c, 0, 64, 72
2, 8616, Control_c, 0, 64, 56
2, 8624, Control_c, 0, 64, 40
2, 8640, Control_c, 0, 64, 0
2, 8776, Note_on_c, 0, 47, 64
2, 8784, Note_on_c, 0, 54, 59
2, 8792, Note_on_c, 0, 47, 0
2, 8804, Note_on_c, 0, 89, 88
2, 8808, Note_on_c, 0, 77, 78
2, 8832, Note_on_c, 0, 63, 60
2, 8836, Note_on_c, 0, 77, 0
2, 8836, Note_on_c, 0, 54, 0
2, 8844, Note_on_c, 0, 89, 0
2, 8852, Note_on_c, 0, 63, 0
2, 8904, Note_on_c, 0, 87, 83
2, 8912, Note_on_c, 0, 75, 79
2, 8936, Note_on_c, 0, 75, 0
2, 8944, Note_on_c, 0, 87, 0
2, 8996, Note_on_c, 0, 83, 92
2, 9004, Note_on_c, 0, 71, 72
2, 9020, Note_on_c, 0, 71, 0
2, 9040, Note_on_c, 0, 83, 0
2, 9104, Control_c, 0, 64, 24
2, 9116, Control_c, 0, 64, 72
2, 9124, Note_on_c, 0, 51, 65
2, 9128, Note_on_c, 0, 87, 79
2, 9128, Note_on_c, 0, 66, 55
2, 9128, Note_on_c, 0, 75, 68
2, 9128, Control_c, 0, 64, 104
2, 9132, Note_on_c, 0, 58, 46
2, 9136, Control_c, 0, 64, 127
2, 9168, Note_on_c, 0, 66, 0
2, 9172, Note_on_c, 0, 51, 0
2, 9180, Note_on_c, 0, 58, 0
2, 9184, Note_on_c, 0, 75, 0
2, 9188, Note_on_c, 0, 87, 0
2, 9212, Control_c, 0, 64, 104
2, 9224, Control_c, 0, 64, 88
2, 9236, Control_c, 0, 64, 56
2, 9244, Control_c, 0, 64, 40
2, 9256, Control_c, 0, 64, 0
2, 9328, Note_on_c, 0, 85, 78
2, 9332, Note_on_c, 0, 73, 71
2, 9368, Note_on_c, 0, 73, 0
2, 9376, Note_on_c, 0, 85, 0
2, 9444, Note_on_c, 0, 83, 85
2, 9444, Note_on_c, 0, 71, 72
2, 9448, Note_on_c, 0, 56, 56
2, 9448, Note_on_c, 0, 63, 40
2, 9460, Note_on_c, 0, 83, 0
2, 9464, Note_on_c, 0, 71, 0
2, 9468, Note_on_c, 0, 56, 0
2, 9472, Note_on_c, 0, 63, 0
2, 9540, Note_on_c, 0, 82, 77
2, 9544, Note_on_c, 0, 70, 72
2, 9564, Note_on_c, 0, 70, 0
2, 9564, Note_on_c, 0, 82, 0
2, 9640, Note_on_c, 0, 80, 78
2, 9672, Note_on_c, 0, 80, 0
2, 9756, Note_on_c, 0, 51, 50
2, 9756, Control_c, 0, 64, 40
2, 9760, Note_on_c, 0, 66, 44
2, 9764, Note_on_c, 0, 87, 81
2, 9764, Note_on_c, 0, 75, 74
2, 9764, Control_c, 0, 64, 72
2, 9776, Note_on_c, 0, 58, 41
2, 9780, Control_c, 0, 64, 104
2, 9788, Control_c, 0, 64, 127
2, 9804, Note_on_c, 0, 75, 0
2, 9804, Note_on_c, 0, 87, 0
2, 9824, Note_on_c, 0, 66, 0
2, 9828, Note_on_c, 0, 51, 0
2, 9832, Note_on_c, 0, 58, 0
2, 9960, Control_c, 0, 64, 104
2, 9972, Control_c, 0, 64, 88
2, 9984, Control_c, 0, 64, 72
2, 9992, Control_c, 0, 64, 56
2, 10004, Control_c, 0, 64, 40
2, 10016, Control_c, 0, 64, 24
2, 10028, Control_c, 0, 64, 0
2, 10616, Note_on_c, 0, 70, 60
2, 10660, Note_on_c, 0, 70, 0
2, 10676, Note_on_c, 0, 82, 71
2, 10712, Note_on_c, 0, 82, 0
2, 10724, Note_on_c, 0, 39, 50
2, 10776, Note_on_c, 0, 46, 42
2, 10776, Control_c, 0, 64, 24
2, 10784, Note_on_c, 0, 94, 82
2, 10788, Control_c, 0, 64, 72
2, 10796, Note_on_c, 0, 39, 0
2, 10796, Control_c, 0, 64, 127
2, 10816, Note_on_c, 0, 54, 50
2, 10828, Note_on_c, 0, 94, 0
2, 10832, Note_on_c, 0, 46, 0
2, 10852, Note_on_c, 0, 54, 0
2, 10972, Control_c, 0, 64, 104
2, 10980, Control_c, 0, 64, 88
2, 10992, Control_c, 0, 64, 56
2, 11004, Control_c, 0, 64, 40
2, 11012, Control_c, 0, 64, 0
2, 11100, Note_on_c, 0, 92, 79
2, 11104, Note_on_c, 0, 80, 66
2, 11140, Note_on_c, 0, 80, 0
2, 11140, Note_on_c, 0, 92, 0
2, 11204, Note_on_c, 0, 90, 79
2, 11204, Note_on_c, 0, 78, 72
2, 11228, Note_on_c, 0, 90, 0
2, 11232, Note_on_c, 0, 78, 0
2, 11296, Note_on_c, 0, 75, 72
2, 11300, Note_on_c, 0, 87, 79
2, 11324, Note_on_c, 0, 75, 0
2, 11332, Note_on_c, 0, 42, 49
2, 11336, Note_on_c, 0, 87, 0
2, 11384, Note_on_c, 0, 42, 0
2, 11388, Note_on_c, 0, 49, 45
2, 11416, Control_c, 0, 64, 40
2, 11428, Note_on_c, 0, 49, 0
2, 11428, Note_on_c, 0, 90, 80
2, 11428, Note_on_c, 0, 58, 50
2, 11428, Control_c, 0, 64, 88
2, 11432, Note_on_c, 0, 78, 77
2, 11436, Control_c, 0, 64, 127
2, 11460, Note_on_c, 0, 58, 0
2, 11472, Note_on_c, 0, 78, 0
2, 11472, Note_on_c, 0, 90, 0
2, 11544, Control_c, 0, 64, 104
2, 11556, Control_c, 0, 64, 72
2, 11568, Control_c, 0, 64, 56
2, 11576, Control_c, 0, 64, 40
2, 11588, Control_c, 0, 64, 24
2, 11600, Control_c, 0, 64, 0
2, 11692, Note_on_c, 0, 47, 64
2, 11716, Note_on_c, 0, 54, 64
2, 11720, Note_on_c, 0, 47, 0
2, 11740, Note_on_c, 0, 89, 81
2, 11740, Control_c, 0, 64, 72
2, 11744, Note_on_c, 0, 77, 62
2, 11752, Control_c, 0, 64, 127
2, 11764, Note_on_c, 0, 54, 0
2, 11764, Note_on_c, 0, 63, 66
2, 11768, Note_on_c, 0, 77, 0
2, 11776, Note_on_c, 0, 89, 0
2, 11784, Note_on_c, 0, 63, 0
2, 11832, Note_on_c, 0, 87, 79
2, 11840, Note_on_c, 0, 75, 64
2, 11840, Control_c, 0, 64, 88
2, 11852, Control_c, 0, 64, 56
2, 11860, Note_on_c, 0, 75, 0
2, 11860, Control_c, 0, 64, 24
2, 11872, Note_on_c, 0, 87, 0
2, 11872, Control_c, 0, 64, 0
2, 11928, Note_on_c, 0, 83, 78
2, 11936, Note_on_c, 0, 71, 56
2, 11948, Note_on_c, 0, 83, 0
2, 11956, Note_on_c, 0, 71, 0
2, 12048, Note_on_c, 0, 87, 79
2, 12048, Note_on_c, 0, 75, 67
2, 12052, Note_on_c, 0, 66, 55
2, 12052, Note_on_c, 0, 51, 58
2, 12056, Note_on_c, 0, 58, 47
2, 12056, Control_c, 0, 64, 72
2, 12064, Control_c, 0, 64, 127
2, 12088, Note_on_c, 0, 87, 0
2, 12092, Note_on_c, 0, 51, 0
2, 12092, Note_on_c, 0, 75, 0
2, 12092, Note_on_c, 0, 66, 0
2, 12096, Note_on_c, 0, 58, 0
2, 12152, Control_c, 0, 64, 88
2, 12164, Control_c, 0, 64, 56
2, 12176, Control_c, 0, 64, 24
2, 12184, Control_c, 0, 64, 0
2, 12260, Note_on_c, 0, 85, 74
2, 12264, Note_on_c, 0, 73, 66
2, 12292, Note_on_c, 0, 73, 0
2, 12296, Note_on_c, 0, 85, 0
2, 12364, Note_on_c, 0, 63, 47
2, 12368, Note_on_c, 0, 83, 79
2, 12368, Note_on_c, 0, 56, 48
2, 12372, Note_on_c, 0, 71, 55
2, 12384, Note_on_c, 0, 83, 0
2, 12388, Note_on_c, 0, 63, 0
2, 12392, Note_on_c, 0, 56, 0
2, 12396, Note_on_c, 0, 71, 0
2, 12460, Note_on_c, 0, 82, 78
2, 12464, Note_on_c, 0, 70, 69
2, 12480, Note_on_c, 0, 82, 0
2, 12488, Note_on_c, 0, 70, 0
2, 12552, Note_on_c, 0, 80, 78
2, 12556, Note_on_c, 0, 68, 52
2, 12576, Note_on_c, 0, 68, 0
2, 12592, Note_on_c, 0, 80, 0
2, 12688, Note_on_c, 0, 51, 45
2, 12688, Note_on_c, 0, 87, 83
2, 12692, Note_on_c, 0, 75, 75
2, 12692, Note_on_c, 0, 66, 40
2, 12692, Control_c, 0, 64, 40
2, 12704, Note_on_c, 0, 58, 40
2, 12708, Control_c, 0, 64, 72
2, 12716, Control_c, 0, 64, 104
2, 12728, Control_c, 0, 64, 127
2, 12732, Note_on_c, 0, 75, 0
2, 12732, Note_on_c, 0, 87, 0
2, 12760, Note_on_c, 0, 51, 0
2, 12764, Note_on_c, 0, 66, 0
2, 12768, Note_on_c, 0, 58, 0
2, 12872, Control_c, 0, 64, 104
2, 12892, Control_c, 0, 64, 88
2, 12904, Control_c, 0, 64, 72
2, 12912, Control_c, 0, 64, 56
2, 12924, Control_c, 0, 64, 24
2, 12936, Control_c, 0, 64, 0
2, 14284, Note_on_c, 0, 78, 71
2, 14300, Note_on_c, 0, 72, 59
2, 14304, Note_on_c, 0, 69, 46
2, 14308, Note_on_c, 0, 63, 43
2, 14352, Note_on_c, 0, 78, 0
2, 14364, Note_on_c, 0, 80, 67
2, 14428, Note_on_c, 0, 80, 0
2, 14436, Note_on_c, 0, 78, 81
2, 14456, Note_on_c, 0, 69, 0
2, 14468, Note_on_c, 0, 72, 0
2, 14476, Note_on_c, 0, 63, 0
2, 14496, Note_on_c, 0, 78, 0
2, 14504, Note_on_c, 0, 80, 79
2, 14576, Note_on_c, 0, 80, 0
2, 14580, Note_on_c, 0, 78, 82
2, 14604, Note_on_c, 0, 71, 62
2, 14608, Note_on_c, 0, 68, 55
2, 14608, Note_on_c, 0, 62, 63
2, 14632, Note_on_c, 0, 71, 0
2, 14640, Note_on_c, 0, 68, 0
2, 14644, Note_on_c, 0, 78, 0
2, 14652, Note_on_c, 0, 73, 81
2, 14708, Note_on_c, 0, 73, 0
2, 14724, Note_on_c, 0, 71, 71
2, 14780, Note_on_c, 0, 71, 0
2, 14788, Note_on_c, 0, 68, 64
2, 14860, Note_on_c, 0, 68, 0
2, 14864, Note_on_c, 0, 62, 0
2, 14880, Note_on_c, 0, 65, 74
2, 14916, Note_on_c, 0, 65, 0
2, 15152, Note_on_c, 0, 85, 73
2, 15212, Note_on_c, 0, 83, 76
2, 15216, Note_on_c, 0, 85, 0
2, 15236, Note_on_c, 0, 83, 0
2, 16184, Note_on_c, 0, 90, 68
2, 16188, Note_on_c, 0, 84, 57
2, 16188, Note_on_c, 0, 78, 44
2, 16196, Note_on_c, 0, 69, 51
2, 16208, Note_on_c, 0, 75, 40
2, 16256, Note_on_c, 0, 90, 0
2, 16272, Note_on_c, 0, 92, 72
2, 16348, Note_on_c, 0, 90, 73
2, 16352, Note_on_c, 0, 92, 0
2, 16368, Note_on_c, 0, 69, 0
2, 16384, Note_on_c, 0, 84, 0
2, 16416, Note_on_c, 0, 90, 0
2, 16420, Note_on_c, 0, 78, 0
2, 16424, Note_on_c, 0, 75, 0
2, 16428, Note_on_c, 0, 92, 80
2, 16484, Note_on_c, 0, 92, 0
2, 16524, Note_on_c, 0, 90, 75
2, 16528, Note_on_c, 0, 78, 54
2, 16536, Note_on_c, 0, 83, 52
2, 16548, Note_on_c, 0, 74, 49
2, 16548, Note_on_c, 0, 68, 43
2, 16572, Note_on_c, 0, 83, 0
2, 16572, Note_on_c, 0, 90, 0
2, 16572, Note_on_c, 0, 92, 79
2, 16632, Note_on_c, 0, 90, 82
2, 16636, Note_on_c, 0, 92, 0
2, 16680, Note_on_c, 0, 78, 0
2, 16704, Note_on_c, 0, 90, 0
2, 16704, Note_on_c, 0, 86, 73
2, 16720, Note_on_c, 0, 86, 0
2, 16736, Note_on_c, 0, 83, 75
2, 16764, Note_on_c, 0, 83, 0
2, 16796, Note_on_c, 0, 80, 87
2, 16852, Note_on_c, 0, 80, 0
2, 16864, Note_on_c, 0, 77, 82
2, 16884, Note_on_c, 0, 77, 0
2, 16892, Note_on_c, 0, 68, 0
2, 16896, Note_on_c, 0, 74, 0
2, 17064, Note_on_c, 0, 97, 77
2, 17136, Note_on_c, 0, 97, 0
2, 17136, Note_on_c, 0, 95, 93
2, 17172, Note_on_c, 0, 95, 0
2, 17436, Note_on_c, 0, 90, 69
2, 17444, Note_on_c, 0, 83, 54
2, 17448, Note_on_c, 0, 78, 42
2, 17460, Note_on_c, 0, 74, 45
2, 17464, Note_on_c, 0, 68, 35
2, 17468, Control_c, 0, 64, 40
2, 17480, Control_c, 0, 64, 88
2, 17484, Note_on_c, 0, 83, 0
2, 17488, Control_c, 0, 64, 127
2, 17492, Note_on_c, 0, 90, 0
2, 17504, Note_on_c, 0, 92, 66
2, 17536, Note_on_c, 0, 90, 60
2, 17548, Note_on_c, 0, 78, 0
2, 17556, Note_on_c, 0, 92, 0
2, 17620, Note_on_c, 0, 90, 0
2, 17624, Note_on_c, 0, 86, 45
2, 17648, Note_on_c, 0, 86, 0
2, 17648, Note_on_c, 0, 83, 74
2, 17684, Note_on_c, 0, 83, 0
2, 17684, Control_c, 0, 64, 104
2, 17708, Control_c, 0, 64, 88
2, 17716, Note_on_c, 0, 80, 70
2, 17728, Control_c, 0, 64, 72
2, 17740, Control_c, 0, 64, 56
2, 17760, Control_c, 0, 64, 40
2, 17764, Note_on_c, 0, 80, 0
2, 17772, Note_on_c, 0, 77, 72
2, 17780, Note_on_c, 0, 74, 0
2, 17784, Control_c, 0, 64, 24
2, 17792, Note_on_c, 0, 77, 0
2, 17792, Note_on_c, 0, 68, 0
2, 17792, Control_c, 0, 64, 0
2, 17992, Note_on_c, 0, 97, 70
2, 18064, Note_on_c, 0, 97, 0
2, 18064, Note_on_c, 0, 95, 76
2, 18104, Note_on_c, 0, 95, 0
2, 18364, Note_on_c, 0, 90, 59
2, 18368, Note_on_c, 0, 83, 44
2, 18376, Control_c, 0, 64, 24
2, 18384, Note_on_c, 0, 78, 46
2, 18388, Note_on_c, 0, 74, 49
2, 18388, Control_c, 0, 64, 56
2, 18400, Control_c, 0, 64, 88
2, 18404, Note_on_c, 0, 83, 0
2, 18412, Note_on_c, 0, 68, 35
2, 18412, Control_c, 0, 64, 127
2, 18416, Note_on_c, 0, 90, 0
2, 18424, Note_on_c, 0, 92, 61
2, 18460, Note_on_c, 0, 90, 55
2, 18472, Note_on_c, 0, 92, 0
2, 18480, Note_on_c, 0, 78, 0
2, 18532, Note_on_c, 0, 86, 52
2, 18536, Note_on_c, 0, 90, 0
2, 18556, Note_on_c, 0, 86, 0
2, 18568, Note_on_c, 0, 83, 70
2, 18620, Note_on_c, 0, 83, 0
2, 18640, Note_on_c, 0, 80, 66
2, 18648, Note_on_c, 0, 74, 0
2, 18688, Note_on_c, 0, 80, 0
2, 18708, Note_on_c, 0, 77, 69
2, 18724, Note_on_c, 0, 68, 0
2, 18728, Note_on_c, 0, 77, 0
2, 18832, Control_c, 0, 64, 88
2, 18844, Control_c, 0, 64, 72
2, 18856, Control_c, 0, 64, 56
2, 18868, Control_c, 0, 64, 40
2, 18876, Control_c, 0, 64, 24
2, 18888, Control_c, 0, 64, 0
2, 18936, Note_on_c, 0, 97, 59
2, 19008, Note_on_c, 0, 97, 0
2, 19016, Note_on_c, 0, 95, 55
2, 19108, Note_on_c, 0, 95, 0
2, 20308, Note_on_c, 0, 78, 61
2, 20308, Note_on_c, 0, 90, 67
2, 20340, Note_on_c, 0, 78, 0
2, 20360, Note_on_c, 0, 80, 60
2, 20364, Note_on_c, 0, 90, 0
2, 20368, Note_on_c, 0, 92, 83
2, 20416, Note_on_c, 0, 80, 0
2, 20420, Note_on_c, 0, 90, 86
2, 20420, Note_on_c, 0, 78, 58
2, 20424, Note_on_c, 0, 92, 0
2, 20448, Control_c, 0, 64, 40
2, 20456, Control_c, 0, 64, 56
2, 20468, Control_c, 0, 64, 88
2, 20476, Control_c, 0, 64, 104
2, 20480, Note_on_c, 0, 78, 0
2, 20484, Note_on_c, 0, 86, 76
2, 20484, Control_c, 0, 64, 127
2, 20512, Note_on_c, 0, 90, 0
2, 20524, Note_on_c, 0, 74, 53
2, 20536, Note_on_c, 0, 86, 0
2, 20548, Note_on_c, 0, 83, 71
2, 20552, Note_on_c, 0, 74, 0
2, 20584, Note_on_c, 0, 83, 0
2, 20600, Note_on_c, 0, 71, 42
2, 20632, Note_on_c, 0, 71, 0
2, 20652, Note_on_c, 0, 68, 63
2, 20720, Control_c, 0, 64, 56
2, 20724, Note_on_c, 0, 76, 65
2, 20728, Control_c, 0, 64, 0
2, 20732, Note_on_c, 0, 68, 0
2, 20752, Note_on_c, 0, 76, 0
2, 20752, Note_on_c, 0, 64, 58
2, 20776, Note_on_c, 0, 64, 0
2, 20792, Control_c, 0, 64, 56
2, 20804, Control_c, 0, 64, 127
2, 20896, Control_c, 0, 64, 104
2, 20904, Control_c, 0, 64, 88
2, 20916, Control_c, 0, 64, 56
2, 20928, Control_c, 0, 64, 24
2, 20936, Control_c, 0, 64, 0
2, 20964, Note_on_c, 0, 97, 71
2, 20972, Note_on_c, 0, 85, 69
2, 21024, Note_on_c, 0, 97, 0
2, 21032, Note_on_c, 0, 85, 0
2, 21044, Note_on_c, 0, 95, 85
2, 21056, Note_on_c, 0, 83, 70
2, 21076, Note_on_c, 0, 83, 0
2, 21084, Note_on_c, 0, 95, 0
2, 21096, Control_c, 0, 64, 56
2, 21112, Control_c, 0, 64, 72
2, 21120, Control_c, 0, 64, 88
2, 21132, Control_c, 0, 64, 104
2, 21160, Control_c, 0, 64, 72
2, 21180, Control_c, 0, 64, 56
2, 21192, Control_c, 0, 64, 40
2, 21200, Control_c, 0, 64, 24
2, 21212, Control_c, 0, 64, 0
2, 21304, Note_on_c, 0, 90, 74
2, 21308, Note_on_c, 0, 78, 68
2, 21312, Control_c, 0, 64, 40
2, 21324, Control_c, 0, 64, 72
2, 21328, Note_on_c, 0, 78, 0
2, 21332, Control_c, 0, 64, 88
2, 21344, Control_c, 0, 64, 104
2, 21348, Note_on_c, 0, 80, 60
2, 21356, Note_on_c, 0, 90, 0
2, 21360, Note_on_c, 0, 92, 77
2, 21376, Control_c, 0, 64, 127
2, 21380, Note_on_c, 0, 80, 0
2, 21392, Note_on_c, 0, 78, 77
2, 21392, Note_on_c, 0, 90, 81
2, 21404, Note_on_c, 0, 92, 0
2, 21424, Control_c, 0, 64, 104
2, 21428, Note_on_c, 0, 78, 0
2, 21452, Note_on_c, 0, 88, 67
2, 21464, Note_on_c, 0, 76, 67
2, 21468, Note_on_c, 0, 90, 0
2, 21492, Note_on_c, 0, 76, 0
2, 21500, Note_on_c, 0, 85, 77
2, 21512, Note_on_c, 0, 88, 0
2, 21532, Note_on_c, 0, 73, 45
2, 21536, Control_c, 0, 64, 127
2, 21548, Note_on_c, 0, 85, 0
2, 21560, Note_on_c, 0, 73, 0
2, 21560, Note_on_c, 0, 81, 75
2, 21596, Note_on_c, 0, 81, 0
2, 21608, Note_on_c, 0, 69, 46
2, 21640, Note_on_c, 0, 76, 75
2, 21660, Note_on_c, 0, 69, 0
2, 21668, Note_on_c, 0, 64, 61
2, 21672, Note_on_c, 0, 76, 0
2, 21696, Note_on_c, 0, 64, 0
2, 21804, Control_c, 0, 64, 104
2, 21816, Control_c, 0, 64, 88
2, 21836, Control_c, 0, 64, 72
2, 21844, Control_c, 0, 64, 40
2, 21856, Control_c, 0, 64, 24
2, 21864, Control_c, 0, 64, 0
2, 21884, Note_on_c, 0, 95, 78
2, 21892, Note_on_c, 0, 83, 65
2, 21936, Note_on_c, 0, 95, 0
2, 21948, Note_on_c, 0, 83, 0
2, 21956, Note_on_c, 0, 93, 86
2, 21968, Note_on_c, 0, 81, 63
2, 21996, Note_on_c, 0, 81, 0
2, 22004, Note_on_c, 0, 93, 0
2, 22048, Control_c, 0, 64, 40
2, 22060, Control_c, 0, 64, 56
2, 22068, Control_c, 0, 64, 72
2, 22128, Control_c, 0, 64, 40
2, 22140, Control_c, 0, 64, 24
2, 22148, Control_c, 0, 64, 0
2, 22220, Note_on_c, 0, 93, 78
2, 22220, Note_on_c, 0, 81, 65
2, 22232, Control_c, 0, 64, 56
2, 22240, Control_c, 0, 64, 88
2, 22244, Note_on_c, 0, 81, 0
2, 22252, Control_c, 0, 64, 127
2, 22264, Note_on_c, 0, 83, 63
2, 22268, Note_on_c, 0, 93, 0
2, 22284, Note_on_c, 0, 95, 78
2, 22288, Note_on_c, 0, 83, 0
2, 22320, Note_on_c, 0, 81, 39
2, 22320, Note_on_c, 0, 93, 84
2, 22324, Note_on_c, 0, 95, 0
2, 22340, Note_on_c, 0, 81, 0
2, 22356, Note_on_c, 0, 78, 61
2, 22364, Note_on_c, 0, 90, 72
2, 22376, Note_on_c, 0, 93, 0
2, 22392, Note_on_c, 0, 78, 0
2, 22420, Note_on_c, 0, 90, 0
2, 22424, Note_on_c, 0, 86, 73
2, 22432, Note_on_c, 0, 74, 64
2, 22456, Note_on_c, 0, 74, 0
2, 22460, Note_on_c, 0, 86, 0
2, 22476, Note_on_c, 0, 83, 72
2, 22488, Note_on_c, 0, 71, 52
2, 22528, Note_on_c, 0, 83, 0
2, 22540, Note_on_c, 0, 71, 0
2, 22544, Note_on_c, 0, 80, 71
2, 22544, Note_on_c, 0, 68, 64
2, 22564, Note_on_c, 0, 80, 0
2, 22588, Note_on_c, 0, 68, 0
2, 22640, Control_c, 0, 64, 104
2, 22648, Control_c, 0, 64, 88
2, 22660, Control_c, 0, 64, 72
2, 22668, Control_c, 0, 64, 56
2, 22680, Control_c, 0, 64, 24
2, 22688, Control_c, 0, 64, 0
2, 22792, Note_on_c, 0, 102, 79
2, 22796, Note_on_c, 0, 90, 65
2, 22848, Note_on_c, 0, 102, 0
2, 22856, Note_on_c, 0, 90, 0
2, 22864, Note_on_c, 0, 92, 79
2, 22880, Note_on_c, 0, 80, 43
2, 22900, Note_on_c, 0, 80, 0
2, 22900, Note_on_c, 0, 92, 0
2, 23100, Note_on_c, 0, 101, 86
2, 23108, Note_on_c, 0, 89, 65
2, 23124, Note_on_c, 0, 89, 0
2, 23136, Note_on_c, 0, 101, 0
2, 23172, Note_on_c, 0, 100, 92
2, 23172, Note_on_c, 0, 88, 76
2, 23192, Note_on_c, 0, 88, 0
2, 23216, Note_on_c, 0, 100, 0
2, 23400, Note_on_c, 0, 97, 72
2, 23404, Note_on_c, 0, 85, 55
2, 23464, Note_on_c, 0, 85, 0
2, 23464, Note_on_c, 0, 97, 0
2, 23476, Note_on_c, 0, 93, 79
2, 23476, Note_on_c, 0, 81, 65
2, 23492, Note_on_c, 0, 81, 0
2, 23496, Note_on_c, 0, 93, 0
2, 23716, Note_on_c, 0, 85, 61
2, 23740, Note_on_c, 0, 73, 44
2, 23772, Note_on_c, 0, 73, 0
2, 23772, Note_on_c, 0, 85, 0
2, 23800, Note_on_c, 0, 88, 76
2, 23820, Note_on_c, 0, 76, 54
2, 23824, Note_on_c, 0, 88, 0
2, 23844, Note_on_c, 0, 76, 0
2, 24012, Note_on_c, 0, 89, 68
2, 24020, Note_on_c, 0, 77, 46
2, 24040, Note_on_c, 0, 77, 0
2, 24040, Note_on_c, 0, 89, 0
2, 24112, Note_on_c, 0, 78, 78
2, 24112, Note_on_c, 0, 90, 72
2, 24144, Note_on_c, 0, 78, 0
2, 24164, Note_on_c, 0, 90, 0
2, 24164, Note_on_c, 0, 92, 82
2, 24168, Note_on_c, 0, 80, 66
2, 24172, Control_c, 0, 64, 24
2, 24180, Control_c, 0, 64, 56
2, 24192, Control_c, 0, 64, 88
2, 24200, Control_c, 0, 64, 104
2, 24212, Note_on_c, 0, 80, 0
2, 24212, Note_on_c, 0, 92, 0
2, 24212, Note_on_c, 0, 90, 87
2, 24212, Note_on_c, 0, 78, 63
2, 24212, Control_c, 0, 64, 127
2, 24260, Note_on_c, 0, 78, 0
2, 24260, Note_on_c, 0, 86, 65
2, 24276, Note_on_c, 0, 90, 0
2, 24292, Note_on_c, 0, 86, 0
2, 24296, Note_on_c, 0, 74, 72
2, 24304, Note_on_c, 0, 83, 83
2, 24320, Note_on_c, 0, 74, 0
2, 24332, Note_on_c, 0, 83, 0
2, 24352, Note_on_c, 0, 71, 65
2, 24380, Note_on_c, 0, 71, 0
2, 24380, Note_on_c, 0, 80, 73
2, 24404, Note_on_c, 0, 68, 49
2, 24436, Note_on_c, 0, 80, 0
2, 24456, Note_on_c, 0, 76, 71
2, 24460, Note_on_c, 0, 68, 0
2, 24472, Note_on_c, 0, 64, 58
2, 24476, Note_on_c, 0, 76, 0
2, 24496, Note_on_c, 0, 64, 0
2, 24504, Control_c, 0, 64, 104
2, 24528, Control_c, 0, 64, 88
2, 24536, Control_c, 0, 64, 72
2, 24548, Control_c, 0, 64, 40
2, 24556, Control_c, 0, 64, 24
2, 24568, Control_c, 0, 64, 0
2, 24680, Note_on_c, 0, 97, 72
2, 24692, Note_on_c, 0, 85, 56
2, 24740, Note_on_c, 0, 97, 0
2, 24752, Note_on_c, 0, 85, 0
2, 24756, Note_on_c, 0, 95, 78
2, 24764, Note_on_c, 0, 83, 62
2, 24780, Note_on_c, 0, 83, 0
2, 24784, Note_on_c, 0, 95, 0
2, 24988, Note_on_c, 0, 90, 71
2, 25000, Note_on_c, 0, 78, 65
2, 25016, Note_on_c, 0, 78, 0
2, 25016, Control_c, 0, 64, 24
2, 25028, Control_c, 0, 64, 56
2, 25036, Note_on_c, 0, 80, 53
2, 25036, Control_c, 0, 64, 72
2, 25044, Note_on_c, 0, 90, 0
2, 25048, Control_c, 0, 64, 104
2, 25052, Note_on_c, 0, 92, 79
2, 25056, Control_c, 0, 64, 127
2, 25072, Note_on_c, 0, 80, 0
2, 25080, Note_on_c, 0, 78, 74
2, 25092, Note_on_c, 0, 90, 89
2, 25096, Note_on_c, 0, 92, 0
2, 25120, Note_on_c, 0, 78, 0
2, 25140, Note_on_c, 0, 88, 73
2, 25156, Note_on_c, 0, 76, 61
2, 25164, Note_on_c, 0, 90, 0
2, 25180, Note_on_c, 0, 76, 0
2, 25184, Note_on_c, 0, 85, 77
2, 25196, Note_on_c, 0, 88, 0
2, 25220, Note_on_c, 0, 73, 53
2, 25228, Note_on_c, 0, 85, 0
2, 25232, Note_on_c, 0, 81, 79
2, 25248, Note_on_c, 0, 73, 0
2, 25268, Note_on_c, 0, 81, 0
2, 25272, Note_on_c, 0, 69, 63
2, 25304, Note_on_c, 0, 76, 80
2, 25332, Note_on_c, 0, 76, 0
2, 25336, Note_on_c, 0, 69, 0
2, 25340, Note_on_c, 0, 64, 56
2, 25364, Note_on_c, 0, 64, 0
2, 25372, Control_c, 0, 64, 104
2, 25436, Control_c, 0, 64, 88
2, 25444, Control_c, 0, 64, 72
2, 25456, Control_c, 0, 64, 56
2, 25464, Control_c, 0, 64, 40
2, 25476, Control_c, 0, 64, 24
2, 25496, Control_c, 0, 64, 0
2, 25544, Note_on_c, 0, 95, 76
2, 25560, Note_on_c, 0, 83, 47
2, 25596, Note_on_c, 0, 95, 0
2, 25600, Note_on_c, 0, 83, 0
2, 25616, Note_on_c, 0, 93, 88
2, 25624, Note_on_c, 0, 81, 69
2, 25660, Note_on_c, 0, 93, 0
2, 25672, Note_on_c, 0, 81, 0
2, 25680, Control_c, 0, 64, 24
2, 25688, Control_c, 0, 64, 40
2, 25700, Control_c, 0, 64, 56
2, 25760, Control_c, 0, 64, 24
2, 25772, Control_c, 0, 64, 0
2, 25912, Note_on_c, 0, 69, 56
2, 25920, Note_on_c, 0, 81, 69
2, 25940, Note_on_c, 0, 69, 0
2, 25964, Note_on_c, 0, 71, 52
2, 25968, Note_on_c, 0, 81, 0
2, 25980, Note_on_c, 0, 83, 61
2, 25996, Note_on_c, 0, 71, 0
2, 26020, Note_on_c, 0, 69, 49
2, 26036, Note_on_c, 0, 83, 0
2, 26036, Note_on_c, 0, 81, 69
2, 26084, Note_on_c, 0, 69, 0
2, 26088, Note_on_c, 0, 68, 58
2, 26092, Note_on_c, 0, 81, 0
2, 26096, Note_on_c, 0, 80, 73
2, 26132, Note_on_c, 0, 68, 0
2, 26140, Note_on_c, 0, 80, 0
2, 26256, Note_on_c, 0, 80, 74
2, 26268, Note_on_c, 0, 68, 56
2, 26312, Note_on_c, 0, 68, 0
2, 26316, Note_on_c, 0, 80, 0
2, 26324, Note_on_c, 0, 69, 58
2, 26328, Note_on_c, 0, 81, 68
2, 26360, Note_on_c, 0, 69, 0
2, 26376, Note_on_c, 0, 68, 53
2, 26380, Note_on_c, 0, 81, 0
2, 26380, Note_on_c, 0, 80, 71
2, 26440, Note_on_c, 0, 80, 0
2, 26440, Note_on_c, 0, 79, 73
2, 26440, Note_on_c, 0, 67, 51
2, 26452, Note_on_c, 0, 68, 0
2, 26468, Note_on_c, 0, 67, 0
2, 26472, Note_on_c, 0, 79, 0
2, 26604, Note_on_c, 0, 79, 66
2, 26612, Note_on_c, 0, 67, 63
2, 26640, Note_on_c, 0, 67, 0
2, 26656, Note_on_c, 0, 79, 0
2, 26664, Note_on_c, 0, 69, 48
2, 26668, Note_on_c, 0, 81, 63
2, 26696, Note_on_c, 0, 69, 0
2, 26708, Note_on_c, 0, 67, 35
2, 26720, Note_on_c, 0, 81, 0
2, 26724, Note_on_c, 0, 79, 58
2, 26772, Note_on_c, 0, 67, 0
2, 26776, Note_on_c, 0, 79, 0
2, 26776, Note_on_c, 0, 66, 58
2, 26784, Note_on_c, 0, 78, 70
2, 26824, Note_on_c, 0, 78, 0
2, 26824, Note_on_c, 0, 66, 0
2, 26976, Note_on_c, 0, 83, 74
2, 26984, Note_on_c, 0, 71, 65
2, 27024, Note_on_c, 0, 83, 0
2, 27028, Note_on_c, 0, 85, 65
2, 27036, Note_on_c, 0, 71, 0
2, 27052, Note_on_c, 0, 73, 55
2, 27088, Note_on_c, 0, 83, 64
2, 27096, Note_on_c, 0, 73, 0
2, 27096, Note_on_c, 0, 71, 44
2, 27104, Note_on_c, 0, 85, 0
2, 27156, Note_on_c, 0, 82, 75
2, 27160, Note_on_c, 0, 83, 0
2, 27168, Note_on_c, 0, 71, 0
2, 27176, Note_on_c, 0, 70, 60
2, 27196, Note_on_c, 0, 70, 0
2, 27208, Note_on_c, 0, 82, 0
2, 27324, Note_on_c, 0, 82, 66
2, 27332, Note_on_c, 0, 70, 57
2, 27376, Note_on_c, 0, 70, 0
2, 27380, Note_on_c, 0, 82, 0
2, 27388, Note_on_c, 0, 83, 72
2, 27396, Note_on_c, 0, 71, 51
2, 27428, Note_on_c, 0, 71, 0
2, 27440, Note_on_c, 0, 70, 56
2, 27444, Note_on_c, 0, 83, 0
2, 27444, Note_on_c, 0, 82, 69
2, 27496, Note_on_c, 0, 69, 65
2, 27500, Note_on_c, 0, 81, 72
2, 27504, Note_on_c, 0, 82, 0
2, 27504, Note_on_c, 0, 70, 0
2, 27532, Note_on_c, 0, 69, 0
2, 27536, Note_on_c, 0, 81, 0
2, 27668, Note_on_c, 0, 81, 73
2, 27672, Note_on_c, 0, 69, 70
2, 27704, Note_on_c, 0, 69, 0
2, 27708, Note_on_c, 0, 81, 0
2, 27728, Note_on_c, 0, 83, 56
2, 27732, Note_on_c, 0, 71, 45
2, 27768, Note_on_c, 0, 71, 0
2, 27772, Note_on_c, 0, 83, 0
2, 27772, Note_on_c, 0, 81, 56
2, 27788, Note_on_c, 0, 69, 54
2, 27836, Note_on_c, 0, 81, 0
2, 27844, Note_on_c, 0, 80, 72
2, 27856, Note_on_c, 0, 69, 0
2, 27860, Note_on_c, 0, 68, 46
2, 27888, Note_on_c, 0, 80, 0
2, 27900, Note_on_c, 0, 68, 0
2, 28044, Note_on_c, 0, 85, 77
2, 28048, Note_on_c, 0, 73, 54
2, 28100, Note_on_c, 0, 73, 0
2, 28100, Note_on_c, 0, 85, 0
2, 28104, Note_on_c, 0, 87, 70
2, 28116, Note_on_c, 0, 75, 47
2, 28164, Note_on_c, 0, 73, 65
2, 28164, Note_on_c, 0, 85, 74
2, 28168, Note_on_c, 0, 75, 0
2, 28188, Note_on_c, 0, 87, 0
2, 28236, Note_on_c, 0, 84, 75
2, 28240, Note_on_c, 0, 85, 0
2, 28248, Note_on_c, 0, 73, 0
2, 28256, Note_on_c, 0, 72, 61
2, 28268, Note_on_c, 0, 84, 0
2, 28276, Note_on_c, 0, 72, 0
2, 28412, Note_on_c, 0, 84, 67
2, 28416, Note_on_c, 0, 72, 61
2, 28444, Note_on_c, 0, 72, 0
2, 28456, Note_on_c, 0, 84, 0
2, 28464, Note_on_c, 0, 85, 67
2, 28472, Note_on_c, 0, 73, 48
2, 28504, Note_on_c, 0, 73, 0
2, 28520, Note_on_c, 0, 84, 70
2, 28524, Note_on_c, 0, 72, 65
2, 28528, Note_on_c, 0, 85, 0
2, 28576, Note_on_c, 0, 84, 0
2, 28584, Note_on_c, 0, 72, 0
2, 28588, Note_on_c, 0, 83, 72
2, 28588, Note_on_c, 0, 71, 69
2, 28620, Note_on_c, 0, 71, 0
2, 28624, Note_on_c, 0, 83, 0
2, 28764, Note_on_c, 0, 71, 57
2, 28772, Note_on_c, 0, 83, 69
2, 28808, Note_on_c, 0, 71, 0
2, 28824, Note_on_c, 0, 83, 0
2, 28836, Note_on_c, 0, 72, 41
2, 28840, Note_on_c, 0, 84, 64
2, 28868, Note_on_c, 0, 72, 0
2, 28876, Note_on_c, 0, 71, 46
2, 28892, Note_on_c, 0, 84, 0
2, 28892, Note_on_c, 0, 83, 67
2, 28952, Note_on_c, 0, 71, 0
2, 28952, Note_on_c, 0, 70, 61
2, 28960, Note_on_c, 0, 83, 0
2, 28964, Note_on_c, 0, 82, 60
2, 28996, Note_on_c, 0, 82, 0
2, 28996, Note_on_c, 0, 70, 0
2, 29148, Note_on_c, 0, 87, 81
2, 29152, Note_on_c, 0, 75, 56
2, 29184, Note_on_c, 0, 75, 0
2, 29204, Note_on_c, 0, 77, 56
2, 29212, Note_on_c, 0, 87, 0
2, 29216, Note_on_c, 0, 89, 78
2, 29248, Note_on_c, 0, 77, 0
2, 29256, Note_on_c, 0, 75, 64
2, 29272, Note_on_c, 0, 87, 70
2, 29280, Note_on_c, 0, 89, 0
2, 29340, Note_on_c, 0, 75, 0
2, 29340, Note_on_c, 0, 74, 67
2, 29348, Note_on_c, 0, 87, 0
2, 29352, Note_on_c, 0, 86, 54
2, 29360, Note_on_c, 0, 74, 0
2, 29372, Note_on_c, 0, 86, 0
2, 29516, Note_on_c, 0, 89, 78
2, 29528, Note_on_c, 0, 77, 61
2, 29564, Note_on_c, 0, 89, 0
2, 29572, Note_on_c, 0, 77, 0
2, 29576, Note_on_c, 0, 90, 70
2, 29584, Note_on_c, 0, 78, 65
2, 29636, Note_on_c, 0, 89, 78
2, 29652, Note_on_c, 0, 90, 0
2, 29660, Note_on_c, 0, 78, 0
2, 29668, Note_on_c, 0, 77, 66
2, 29700, Note_on_c, 0, 89, 0
2, 29704, Note_on_c, 0, 88, 76
2, 29724, Note_on_c, 0, 77, 0
2, 29736, Note_on_c, 0, 76, 60
2, 29744, Note_on_c, 0, 88, 0
2, 29756, Note_on_c, 0, 76, 0
2, 29904, Note_on_c, 0, 90, 79
2, 29908, Note_on_c, 0, 78, 69
2, 29960, Note_on_c, 0, 78, 0
2, 29960, Note_on_c, 0, 90, 0
2, 29968, Note_on_c, 0, 92, 81
2, 29972, Note_on_c, 0, 80, 71
2, 30028, Note_on_c, 0, 80, 0
2, 30032, Note_on_c, 0, 90, 69
2, 30040, Note_on_c, 0, 92, 0
2, 30048, Note_on_c, 0, 78, 59
2, 30088, Note_on_c, 0, 90, 0
2, 30088, Note_on_c, 0, 89, 74
2, 30092, Note_on_c, 0, 77, 82
2, 30096, Note_on_c, 0, 78, 0
2, 30128, Note_on_c, 0, 77, 0
2, 30128, Note_on_c, 0, 89, 0
2, 30276, Note_on_c, 0, 76, 53
2, 30280, Note_on_c, 0, 88, 71
2, 30332, Note_on_c, 0, 88, 0
2, 30344, Note_on_c, 0, 76, 0
2, 30348, Note_on_c, 0, 89, 80
2, 30348, Note_on_c, 0, 77, 70
2, 30412, Note_on_c, 0, 77, 0
2, 30412, Note_on_c, 0, 89, 0
2, 30424, Note_on_c, 0, 90, 74
2, 30436, Note_on_c, 0, 78, 58
2, 30488, Note_on_c, 0, 78, 0
2, 30488, Note_on_c, 0, 90, 0
2, 30504, Note_on_c, 0, 91, 76
2, 30516, Note_on_c, 0, 79, 54
2, 30564, Note_on_c, 0, 79, 0
2, 30572, Note_on_c, 0, 91, 0
2, 30576, Note_on_c, 0, 92, 78
2, 30592, Note_on_c, 0, 80, 50
2, 30636, Note_on_c, 0, 92, 0
2, 30640, Note_on_c, 0, 80, 0
2, 30648, Note_on_c, 0, 93, 80
2, 30664, Note_on_c, 0, 81, 54
2, 30708, Note_on_c, 0, 93, 0
2, 30724, Note_on_c, 0, 94, 68
2, 30728, Note_on_c, 0, 81, 0
2, 30736, Note_on_c, 0, 82, 53
2, 31028, Note_on_c, 0, 94, 0
2, 31036, Note_on_c, 0, 82, 0
2, 36128, Note_on_c, 0, 94, 54
2, 36152, Control_c, 0, 64, 40
2, 36164, Control_c, 0, 64, 72
2, 36172, Note_on_c, 0, 94, 0
2, 36172, Control_c, 0, 64, 104
2, 36176, Note_on_c, 0, 83, 55
2, 36184, Control_c, 0, 64, 127
2, 36188, Note_on_c, 0, 95, 69
2, 36208, Note_on_c, 0, 83, 0
2, 36232, Note_on_c, 0, 82, 56
2, 36236, Note_on_c, 0, 95, 0
2, 36236, Note_on_c, 0, 94, 65
2, 36284, Note_on_c, 0, 90, 68
2, 36300, Note_on_c, 0, 94, 0
2, 36308, Note_on_c, 0, 82, 0
2, 36328, Note_on_c, 0, 75, 55
2, 36336, Note_on_c, 0, 90, 0
2, 36352, Note_on_c, 0, 87, 61
2, 36368, Note_on_c, 0, 75, 0
2, 36396, Note_on_c, 0, 87, 0
2, 36420, Control_c, 0, 64, 104
2, 36428, Control_c, 0, 64, 72
2, 36440, Control_c, 0, 64, 40
2, 36448, Control_c, 0, 64, 0
2, 36520, Note_on_c, 0, 92, 66
2, 36524, Note_on_c, 0, 80, 48
2, 36528, Control_c, 0, 64, 40
2, 36540, Control_c, 0, 64, 88
2, 36548, Control_c, 0, 64, 127
2, 36552, Note_on_c, 0, 80, 0
2, 36564, Note_on_c, 0, 92, 0
2, 36568, Note_on_c, 0, 94, 72
2, 36568, Note_on_c, 0, 82, 48
2, 36620, Note_on_c, 0, 82, 0
2, 36628, Note_on_c, 0, 94, 0
2, 36632, Note_on_c, 0, 92, 72
2, 36632, Note_on_c, 0, 80, 46
2, 36676, Note_on_c, 0, 87, 67
2, 36684, Note_on_c, 0, 92, 0
2, 36692, Note_on_c, 0, 80, 0
2, 36708, Note_on_c, 0, 75, 53
2, 36720, Note_on_c, 0, 87, 0
2, 36728, Note_on_c, 0, 75, 0
2, 36740, Note_on_c, 0, 82, 58
2, 36784, Control_c, 0, 64, 104
2, 36792, Note_on_c, 0, 82, 0
2, 36796, Control_c, 0, 64, 72
2, 36804, Control_c, 0, 64, 40
2, 36816, Control_c, 0, 64, 0
2, 36888, Control_c, 0, 64, 56
2, 36896, Note_on_c, 0, 90, 74
2, 36896, Control_c, 0, 64, 88
2, 36904, Control_c, 0, 64, 127
2, 36912, Note_on_c, 0, 78, 45
2, 36940, Note_on_c, 0, 78, 0
2, 36956, Note_on_c, 0, 90, 0
2, 36960, Note_on_c, 0, 92, 75
2, 36964, Note_on_c, 0, 80, 57
2, 37012, Note_on_c, 0, 80, 0
2, 37020, Note_on_c, 0, 92, 0
2, 37024, Note_on_c, 0, 90, 72
2, 37024, Note_on_c, 0, 78, 44
2, 37056, Note_on_c, 0, 78, 0
2, 37068, Note_on_c, 0, 85, 70
2, 37080, Note_on_c, 0, 90, 0
2, 37100, Control_c, 0, 64, 104
2, 37112, Note_on_c, 0, 85, 0
2, 37112, Control_c, 0, 64, 56
2, 37120, Control_c, 0, 64, 40
2, 37124, Note_on_c, 0, 82, 60
2, 37152, Control_c, 0, 64, 72
2, 37164, Control_c, 0, 64, 104
2, 37172, Control_c, 0, 64, 127
2, 37188, Note_on_c, 0, 82, 0
2, 37252, Control_c, 0, 64, 88
2, 37264, Control_c, 0, 64, 40
2, 37268, Note_on_c, 0, 89, 76
2, 37272, Control_c, 0, 64, 0
2, 37284, Note_on_c, 0, 77, 43
2, 37304, Control_c, 0, 64, 40
2, 37316, Control_c, 0, 64, 72
2, 37324, Note_on_c, 0, 77, 0
2, 37324, Note_on_c, 0, 89, 0
2, 37324, Note_on_c, 0, 90, 79
2, 37328, Control_c, 0, 64, 104
2, 37336, Control_c, 0, 64, 127
2, 37344, Note_on_c, 0, 78, 53
2, 37376, Note_on_c, 0, 78, 0
2, 37380, Note_on_c, 0, 90, 0
2, 37380, Note_on_c, 0, 87, 70
2, 37416, Note_on_c, 0, 75, 41
2, 37428, Note_on_c, 0, 87, 0
2, 37452, Note_on_c, 0, 83, 59
2, 37468, Note_on_c, 0, 75, 0
2, 37468, Control_c, 0, 64, 72
2, 37476, Control_c, 0, 64, 24
2, 37488, Note_on_c, 0, 83, 0
2, 37488, Control_c, 0, 64, 0
2, 37492, Note_on_c, 0, 71, 45
2, 37508, Note_on_c, 0, 78, 53
2, 37520, Control_c, 0, 64, 56
2, 37532, Note_on_c, 0, 71, 0
2, 37532, Control_c, 0, 64, 88
2, 37540, Note_on_c, 0, 78, 0
2, 37540, Control_c, 0, 64, 127
2, 37652, Note_on_c, 0, 87, 72
2, 37652, Control_c, 0, 64, 104
2, 37660, Control_c, 0, 64, 40
2, 37668, Note_on_c, 0, 75, 61
2, 37672, Control_c, 0, 64, 0
2, 37712, Note_on_c, 0, 75, 0
2, 37712, Note_on_c, 0, 87, 0
2, 37720, Note_on_c, 0, 89, 71
2, 37732, Control_c, 0, 64, 40
2, 37736, Note_on_c, 0, 77, 46
2, 37744, Control_c, 0, 64, 72
2, 37756, Control_c, 0, 64, 127
2, 37760, Note_on_c, 0, 87, 55
2, 37764, Note_on_c, 0, 77, 0
2, 37764, Note_on_c, 0, 89, 0
2, 37784, Note_on_c, 0, 75, 53
2, 37824, Note_on_c, 0, 82, 67
2, 37828, Note_on_c, 0, 87, 0
2, 37844, Note_on_c, 0, 75, 0
2, 37856, Note_on_c, 0, 70, 53
2, 37872, Note_on_c, 0, 82, 0
2, 37880, Note_on_c, 0, 78, 64
2, 37884, Note_on_c, 0, 70, 0
2, 37924, Note_on_c, 0, 78, 0
2, 37968, Control_c, 0, 64, 88
2, 37976, Control_c, 0, 64, 24
2, 37988, Control_c, 0, 64, 0
2, 38032, Note_on_c, 0, 83, 51
2, 38032, Note_on_c, 0, 71, 50
2, 38052, Control_c, 0, 64, 24
2, 38060, Note_on_c, 0, 83, 0
2, 38060, Control_c, 0, 64, 56
2, 38064, Note_on_c, 0, 85, 70
2, 38072, Control_c, 0, 64, 88
2, 38080, Control_c, 0, 64, 104
2, 38084, Note_on_c, 0, 71, 0
2, 38092, Control_c, 0, 64, 127
2, 38096, Note_on_c, 0, 73, 52
2, 38124, Note_on_c, 0, 85, 0
2, 38132, Note_on_c, 0, 83, 61
2, 38140, Note_on_c, 0, 73, 0
2, 38160, Note_on_c, 0, 71, 37
2, 38180, Note_on_c, 0, 80, 64
2, 38180, Control_c, 0, 64, 72
2, 38184, Note_on_c, 0, 83, 0
2, 38192, Control_c, 0, 64, 24
2, 38204, Control_c, 0, 64, 0
2, 38232, Note_on_c, 0, 80, 0
2, 38232, Note_on_c, 0, 71, 0
2, 38240, Note_on_c, 0, 68, 47
2, 38240, Note_on_c, 0, 75, 55
2, 38256, Control_c, 0, 64, 40
2, 38264, Note_on_c, 0, 68, 0
2, 38264, Control_c, 0, 64, 88
2, 38272, Note_on_c, 0, 75, 0
2, 38276, Control_c, 0, 64, 127
2, 38344, Control_c, 0, 64, 88
2, 38356, Control_c, 0, 64, 40
2, 38364, Control_c, 0, 64, 0
2, 38408, Note_on_c, 0, 87, 77
2, 38436, Control_c, 0, 64, 24
2, 38448, Control_c, 0, 64, 40
2, 38456, Control_c, 0, 64, 56
2, 38460, Note_on_c, 0, 87, 0
2, 38472, Note_on_c, 0, 89, 76
2, 38488, Control_c, 0, 64, 40
2, 38500, Control_c, 0, 64, 24
2, 38504, Note_on_c, 0, 87, 52
2, 38508, Control_c, 0, 64, 0
2, 38520, Note_on_c, 0, 89, 0
2, 38556, Note_on_c, 0, 82, 67
2, 38584, Note_on_c, 0, 87, 0
2, 38608, Note_on_c, 0, 82, 0
2, 38612, Note_on_c, 0, 78, 63
2, 38664, Note_on_c, 0, 78, 0
2, 38808, Note_on_c, 0, 75, 60
2, 38852, Note_on_c, 0, 75, 0
2, 38868, Note_on_c, 0, 77, 59
2, 38912, Note_on_c, 0, 77, 0
2, 38916, Note_on_c, 0, 75, 68
2, 38964, Note_on_c, 0, 75, 0
2, 38976, Note_on_c, 0, 70, 61
2, 39036, Note_on_c, 0, 70, 0
2, 39036, Note_on_c, 0, 66, 56
2, 39088, Note_on_c, 0, 66, 0
2, 39264, Note_on_c, 0, 63, 40
2, 39344, Control_c, 0, 64, 40
2, 39352, Note_on_c, 0, 63, 0
2, 39356, Control_c, 0, 64, 72
2, 39364, Control_c, 0, 64, 104
2, 39376, Control_c, 0, 64, 127
2, 39520, Control_c, 0, 64, 88
2, 39528, Control_c, 0, 64, 72
2, 39540, Control_c, 0, 64, 40
2, 39548, Control_c, 0, 64, 0
2, 39644, Note_on_c, 0, 94, 68
2, 39660, Note_on_c, 0, 82, 49
2, 39700, Note_on_c, 0, 94, 0
2, 39704, Note_on_c, 0, 82, 0
2, 39712, Note_on_c, 0, 95, 70
2, 39728, Note_on_c, 0, 83, 50
2, 39756, Note_on_c, 0, 94, 72
2, 39760, Note_on_c, 0, 83, 0
2, 39760, Note_on_c, 0, 95, 0
2, 39764, Note_on_c, 0, 82, 52
2, 39812, Note_on_c, 0, 82, 0
2, 39824, Note_on_c, 0, 90, 70
2, 39832, Note_on_c, 0, 78, 54
2, 39836, Note_on_c, 0, 94, 0
2, 39880, Note_on_c, 0, 90, 0
2, 39884, Note_on_c, 0, 78, 0
2, 39888, Note_on_c, 0, 87, 61
2, 39896, Note_on_c, 0, 75, 44
2, 39920, Note_on_c, 0, 75, 0
2, 39936, Note_on_c, 0, 87, 0
2, 40048, Note_on_c, 0, 92, 70
2, 40048, Control_c, 0, 64, 24
2, 40060, Control_c, 0, 64, 40
2, 40068, Note_on_c, 0, 80, 65
2, 40068, Control_c, 0, 64, 56
2, 40080, Control_c, 0, 64, 72
2, 40088, Control_c, 0, 64, 88
2, 40100, Note_on_c, 0, 92, 0
2, 40100, Control_c, 0, 64, 104
2, 40104, Note_on_c, 0, 94, 68
2, 40108, Note_on_c, 0, 80, 0
2, 40128, Note_on_c, 0, 82, 49
2, 40160, Control_c, 0, 64, 88
2, 40164, Note_on_c, 0, 92, 71
2, 40168, Note_on_c, 0, 94, 0
2, 40180, Note_on_c, 0, 82, 0
2, 40188, Note_on_c, 0, 80, 48
2, 40220, Note_on_c, 0, 87, 66
2, 40232, Note_on_c, 0, 92, 0
2, 40240, Note_on_c, 0, 80, 0
2, 40256, Note_on_c, 0, 75, 56
2, 40268, Note_on_c, 0, 87, 0
2, 40284, Note_on_c, 0, 75, 0
2, 40288, Note_on_c, 0, 82, 44
2, 40332, Control_c, 0, 64, 72
2, 40344, Control_c, 0, 64, 40
2, 40352, Note_on_c, 0, 82, 0
2, 40356, Control_c, 0, 64, 24
2, 40364, Control_c, 0, 64, 0
2, 40416, Control_c, 0, 64, 24
2, 40428, Control_c, 0, 64, 40
2, 40436, Control_c, 0, 64, 56
2, 40444, Note_on_c, 0, 90, 66
2, 40448, Control_c, 0, 64, 72
2, 40452, Note_on_c, 0, 78, 56
2, 40456, Control_c, 0, 64, 88
2, 40464, Control_c, 0, 64, 104
2, 40476, Control_c, 0, 64, 127
2, 40496, Note_on_c, 0, 78, 0
2, 40496, Note_on_c, 0, 90, 0
2, 40500, Note_on_c, 0, 92, 75
2, 40508, Note_on_c, 0, 80, 53
2, 40560, Note_on_c, 0, 80, 0
2, 40564, Note_on_c, 0, 92, 0
2, 40564, Note_on_c, 0, 90, 69
2, 40568, Note_on_c, 0, 78, 56
2, 40616, Note_on_c, 0, 85, 68
2, 40624, Note_on_c, 0, 78, 0
2, 40624, Note_on_c, 0, 90, 0
2, 40640, Note_on_c, 0, 73, 50
2, 40660, Note_on_c, 0, 85, 0
2, 40672, Note_on_c, 0, 73, 0
2, 40676, Note_on_c, 0, 82, 53
2, 40740, Note_on_c, 0, 82, 0
2, 40764, Control_c, 0, 64, 104
2, 40772, Control_c, 0, 64, 88
2, 40784, Control_c, 0, 64, 56
2, 40792, Control_c, 0, 64, 24
2, 40804, Control_c, 0, 64, 0
2, 40820, Note_on_c, 0, 89, 76
2, 40844, Note_on_c, 0, 77, 60
2, 40844, Control_c, 0, 64, 24
2, 40856, Control_c, 0, 64, 56
2, 40864, Control_c, 0, 64, 88
2, 40876, Control_c, 0, 64, 104
2, 40880, Note_on_c, 0, 77, 0
2, 40880, Note_on_c, 0, 89, 0
2, 40880, Note_on_c, 0, 90, 78
2, 40888, Control_c, 0, 64, 127
2, 40892, Note_on_c, 0, 78, 55
2, 40940, Note_on_c, 0, 78, 0
2, 40944, Note_on_c, 0, 90, 0
2, 40944, Note_on_c, 0, 87, 68
2, 40964, Note_on_c, 0, 75, 49
2, 40996, Control_c, 0, 64, 88
2, 41000, Note_on_c, 0, 87, 0
2, 41008, Control_c, 0, 64, 40
2, 41016, Control_c, 0, 64, 0
2, 41020, Note_on_c, 0, 75, 0
2, 41020, Note_on_c, 0, 83, 52
2, 41036, Note_on_c, 0, 71, 51
2, 41064, Note_on_c, 0, 83, 0
2, 41072, Note_on_c, 0, 78, 41
2, 41088, Note_on_c, 0, 71, 0
2, 41092, Control_c, 0, 64, 40
2, 41100, Note_on_c, 0, 78, 0
2, 41100, Control_c, 0, 64, 72
2, 41112, Control_c, 0, 64, 104
2, 41120, Control_c, 0, 64, 127
2, 41180, Control_c, 0, 64, 104
2, 41192, Control_c, 0, 64, 72
2, 41200, Control_c, 0, 64, 40
2, 41212, Note_on_c, 0, 87, 68
2, 41212, Control_c, 0, 64, 0
2, 41232, Note_on_c, 0, 75, 53
2, 41248, Note_on_c, 0, 75, 0
2, 41268, Note_on_c, 0, 87, 0
2, 41272, Note_on_c, 0, 89, 78
2, 41272, Note_on_c, 0, 77, 59
2, 41304, Control_c, 0, 64, 24
2, 41308, Note_on_c, 0, 77, 0
2, 41316, Note_on_c, 0, 87, 57
2, 41324, Note_on_c, 0, 89, 0
2, 41324, Note_on_c, 0, 75, 54
2, 41344, Control_c, 0, 64, 0
2, 41376, Note_on_c, 0, 82, 66
2, 41388, Note_on_c, 0, 75, 0
2, 41392, Note_on_c, 0, 87, 0
2, 41400, Note_on_c, 0, 70, 57
2, 41424, Note_on_c, 0, 82, 0
2, 41436, Note_on_c, 0, 78, 68
2, 41436, Control_c, 0, 64, 24
2, 41452, Note_on_c, 0, 70, 0
2, 41492, Note_on_c, 0, 78, 0
2, 41596, Note_on_c, 0, 83, 43
2, 41600, Note_on_c, 0, 71, 43
2, 41624, Note_on_c, 0, 83, 0
2, 41628, Note_on_c, 0, 85, 71
2, 41632, Note_on_c, 0, 71, 0
2, 41644, Note_on_c, 0, 73, 55
2, 41652, Control_c, 0, 64, 0
2, 41688, Note_on_c, 0, 73, 0
2, 41688, Note_on_c, 0, 85, 0
2, 41696, Note_on_c, 0, 83, 60
2, 41712, Note_on_c, 0, 71, 29
2, 41752, Note_on_c, 0, 83, 0
2, 41752, Note_on_c, 0, 80, 60
2, 41784, Note_on_c, 0, 71, 0
2, 41784, Note_on_c, 0, 68, 52
2, 41800, Note_on_c, 0, 80, 0
2, 41804, Control_c, 0, 64, 24
2, 41812, Note_on_c, 0, 75, 49
2, 41820, Note_on_c, 0, 68, 0
2, 41844, Note_on_c, 0, 75, 0
2, 41876, Control_c, 0, 64, 40
2, 41916, Control_c, 0, 64, 56
2, 41960, Note_on_c, 0, 87, 72
2, 41964, Note_on_c, 0, 75, 60
2, 41988, Control_c, 0, 64, 0
2, 42008, Note_on_c, 0, 75, 0
2, 42012, Note_on_c, 0, 87, 0
2, 42020, Note_on_c, 0, 89, 69
2, 42024, Note_on_c, 0, 77, 55
2, 42056, Note_on_c, 0, 77, 0
2, 42056, Note_on_c, 0, 87, 53
2, 42068, Note_on_c, 0, 89, 0
2, 42068, Control_c, 0, 64, 40
2, 42080, Note_on_c, 0, 75, 47
2, 42080, Control_c, 0, 64, 72
2, 42088, Control_c, 0, 64, 88
2, 42100, Control_c, 0, 64, 104
2, 42104, Note_on_c, 0, 75, 0
2, 42120, Note_on_c, 0, 82, 65
2, 42132, Note_on_c, 0, 87, 0
2, 42140, Control_c, 0, 64, 24
2, 42152, Control_c, 0, 64, 0
2, 42168, Note_on_c, 0, 82, 0
2, 42172, Note_on_c, 0, 78, 67
2, 42212, Control_c, 0, 64, 40
2, 42216, Note_on_c, 0, 78, 0
2, 42220, Control_c, 0, 64, 72
2, 42232, Control_c, 0, 64, 88
2, 42336, Note_on_c, 0, 75, 61
2, 42344, Control_c, 0, 64, 72
2, 42356, Control_c, 0, 64, 40
2, 42364, Control_c, 0, 64, 0
2, 42380, Note_on_c, 0, 75, 0
2, 42396, Note_on_c, 0, 77, 70
2, 42448, Note_on_c, 0, 77, 0
2, 42452, Note_on_c, 0, 75, 49
2, 42476, Note_on_c, 0, 75, 0
2, 42492, Note_on_c, 0, 70, 56
2, 42552, Note_on_c, 0, 70, 0
2, 42552, Note_on_c, 0, 66, 54
2, 42604, Note_on_c, 0, 66, 0
2, 42776, Note_on_c, 0, 63, 44
2, 42888, Note_on_c, 0, 63, 0
2, 43748, Note_on_c, 0, 78, 58
2, 43764, Note_on_c, 0, 69, 57
2, 43768, Note_on_c, 0, 75, 53
2, 43796, Note_on_c, 0, 69, 0
2, 43800, Note_on_c, 0, 75, 0
2, 43844, Note_on_c, 0, 78, 0
2, 43848, Note_on_c, 0, 80, 64
2, 43860, Note_on_c, 0, 72, 47
2, 43908, Note_on_c, 0, 72, 0
2, 43928, Note_on_c, 0, 80, 0
2, 43940, Note_on_c, 0, 78, 58
2, 43956, Note_on_c, 0, 69, 52
2, 43964, Note_on_c, 0, 75, 52
2, 44000, Note_on_c, 0, 69, 0
2, 44024, Note_on_c, 0, 75, 0
2, 44036, Note_on_c, 0, 78, 0
2, 44040, Note_on_c, 0, 80, 71
2, 44044, Note_on_c, 0, 72, 66
2, 44108, Note_on_c, 0, 72, 0
2, 44112, Note_on_c, 0, 80, 0
2, 44140, Note_on_c, 0, 78, 59
2, 44144, Note_on_c, 0, 75, 60
2, 44152, Note_on_c, 0, 69, 52
2, 44184, Note_on_c, 0, 69, 0
2, 44208, Note_on_c, 0, 75, 0
2, 44228, Note_on_c, 0, 78, 0
2, 44236, Note_on_c, 0, 80, 77
2, 44240, Note_on_c, 0, 72, 76
2, 44300, Note_on_c, 0, 72, 0
2, 44304, Note_on_c, 0, 80, 0
2, 44340, Note_on_c, 0, 78, 61
2, 44356, Note_on_c, 0, 74, 58
2, 44356, Note_on_c, 0, 68, 36
2, 44384, Note_on_c, 0, 74, 0
2, 44392, Note_on_c, 0, 68, 0
2, 44412, Note_on_c, 0, 78, 0
2, 44432, Note_on_c, 0, 77, 63
2, 44436, Note_on_c, 0, 71, 59
2, 44484, Note_on_c, 0, 71, 0
2, 44504, Note_on_c, 0, 77, 0
2, 44528, Note_on_c, 0, 78, 75
2, 44532, Note_on_c, 0, 68, 57
2, 44540, Note_on_c, 0, 74, 62
2, 44560, Note_on_c, 0, 74, 0
2, 44564, Note_on_c, 0, 68, 0
2, 44580, Note_on_c, 0, 78, 0
2, 44628, Note_on_c, 0, 77, 84
2, 44628, Note_on_c, 0, 71, 70
2, 44680, Note_on_c, 0, 71, 0
2, 44684, Note_on_c, 0, 77, 0
2, 44732, Note_on_c, 0, 85, 91
2, 44740, Note_on_c, 0, 80, 79
2, 44796, Note_on_c, 0, 80, 0
2, 44804, Note_on_c, 0, 85, 0
2, 44824, Note_on_c, 0, 83, 84
2, 44824, Note_on_c, 0, 74, 71
2, 44840, Note_on_c, 0, 77, 68
2, 44864, Note_on_c, 0, 77, 0
2, 44896, Note_on_c, 0, 74, 0
2, 44900, Note_on_c, 0, 83, 0
2, 44916, Note_on_c, 0, 85, 83
2, 44924, Note_on_c, 0, 80, 74
2, 44988, Note_on_c, 0, 80, 0
2, 44992, Note_on_c, 0, 85, 0
2, 45008, Note_on_c, 0, 83, 75
2, 45012, Note_on_c, 0, 74, 66
2, 45020, Note_on_c, 0, 77, 65
2, 45048, Note_on_c, 0, 77, 0
2, 45076, Note_on_c, 0, 74, 0
2, 45076, Note_on_c, 0, 83, 0
2, 45100, Note_on_c, 0, 85, 71
2, 45116, Note_on_c, 0, 80, 55
2, 45164, Note_on_c, 0, 80, 0
2, 45180, Note_on_c, 0, 85, 0
2, 45196, Note_on_c, 0, 83, 75
2, 45204, Note_on_c, 0, 74, 56
2, 45212, Note_on_c, 0, 77, 59
2, 45240, Note_on_c, 0, 77, 0
2, 45248, Note_on_c, 0, 74, 0
2, 45260, Note_on_c, 0, 83, 0
2, 45288, Note_on_c, 0, 85, 67
2, 45300, Note_on_c, 0, 80, 48
2, 45344, Note_on_c, 0, 80, 0
2, 45352, Note_on_c, 0, 85, 0
2, 45388, Note_on_c, 0, 83, 76
2, 45400, Note_on_c, 0, 74, 50
2, 45408, Note_on_c, 0, 77, 44
2, 45428, Note_on_c, 0, 74, 0
2, 45432, Note_on_c, 0, 77, 0
2, 45440, Note_on_c, 0, 83, 0
2, 46084, Note_on_c, 0, 78, 68
2, 46092, Note_on_c, 0, 69, 58
2, 46092, Note_on_c, 0, 75, 61
2, 46124, Note_on_c, 0, 69, 0
2, 46156, Note_on_c, 0, 78, 0
2, 46160, Note_on_c, 0, 75, 0
2, 46176, Note_on_c, 0, 80, 73
2, 46188, Note_on_c, 0, 72, 67
2, 46224, Note_on_c, 0, 72, 0
2, 46256, Note_on_c, 0, 80, 0
2, 46276, Note_on_c, 0, 78, 69
2, 46284, Note_on_c, 0, 75, 57
2, 46284, Note_on_c, 0, 69, 56
2, 46340, Note_on_c, 0, 78, 0
2, 46344, Note_on_c, 0, 69, 0
2, 46352, Note_on_c, 0, 75, 0
2, 46360, Note_on_c, 0, 80, 68
2, 46368, Note_on_c, 0, 72, 68
2, 46436, Note_on_c, 0, 72, 0
2, 46448, Note_on_c, 0, 80, 0
2, 46468, Note_on_c, 0, 78, 56
2, 46468, Note_on_c, 0, 75, 55
2, 46476, Note_on_c, 0, 69, 43
2, 46508, Note_on_c, 0, 69, 0
2, 46520, Note_on_c, 0, 78, 0
2, 46532, Note_on_c, 0, 75, 0
2, 46556, Note_on_c, 0, 80, 65
2, 46564, Note_on_c, 0, 72, 66
2, 46624, Note_on_c, 0, 72, 0
2, 46624, Note_on_c, 0, 80, 0
2, 46644, Note_on_c, 0, 78, 77
2, 46656, Note_on_c, 0, 68, 49
2, 46664, Note_on_c, 0, 74, 63
2, 46692, Note_on_c, 0, 74, 0
2, 46720, Note_on_c, 0, 68, 0
2, 46736, Note_on_c, 0, 78, 0
2, 46752, Note_on_c, 0, 77, 72
2, 46752, Note_on_c, 0, 71, 59
2, 46820, Note_on_c, 0, 71, 0
2, 46828, Note_on_c, 0, 77, 0
2, 46840, Note_on_c, 0, 78, 74
2, 46848, Note_on_c, 0, 74, 65
2, 46852, Note_on_c, 0, 68, 42
2, 46872, Note_on_c, 0, 74, 0
2, 46880, Note_on_c, 0, 68, 0
2, 46896, Note_on_c, 0, 78, 0
2, 46940, Note_on_c, 0, 77, 81
2, 46940, Note_on_c, 0, 71, 59
2, 46972, Note_on_c, 0, 71, 0
2, 46992, Note_on_c, 0, 77, 0
2, 47044, Note_on_c, 0, 85, 95
2, 47052, Note_on_c, 0, 80, 68
2, 47096, Note_on_c, 0, 80, 0
2, 47100, Note_on_c, 0, 85, 0
2, 47136, Note_on_c, 0, 83, 74
2, 47140, Note_on_c, 0, 74, 58
2, 47192, Note_on_c, 0, 74, 0
2, 47208, Note_on_c, 0, 83, 0
2, 47228, Note_on_c, 0, 85, 77
2, 47232, Note_on_c, 0, 80, 71
2, 47292, Note_on_c, 0, 80, 0
2, 47292, Note_on_c, 0, 85, 0
2, 47328, Note_on_c, 0, 83, 66
2, 47328, Note_on_c, 0, 74, 59
2, 47332, Note_on_c, 0, 77, 59
2, 47380, Note_on_c, 0, 77, 0
2, 47396, Note_on_c, 0, 74, 0
2, 47396, Note_on_c, 0, 83, 0
2, 47428, Note_on_c, 0, 85, 79
2, 47436, Note_on_c, 0, 80, 66
2, 47496, Note_on_c, 0, 80, 0
2, 47500, Note_on_c, 0, 85, 0
2, 47528, Note_on_c, 0, 83, 68
2, 47528, Note_on_c, 0, 74, 55
2, 47532, Note_on_c, 0, 77, 58
2, 47580, Note_on_c, 0, 77, 0
2, 47592, Note_on_c, 0, 83, 0
2, 47596, Note_on_c, 0, 74, 0
2, 47620, Note_on_c, 0, 85, 75
2, 47628, Note_on_c, 0, 80, 68
2, 47684, Note_on_c, 0, 80, 0
2, 47688, Note_on_c, 0, 85, 0
2, 47716, Note_on_c, 0, 83, 70
2, 47720, Note_on_c, 0, 74, 58
2, 47724, Note_on_c, 0, 77, 62
2, 47772, Note_on_c, 0, 77, 0
2, 47784, Note_on_c, 0, 74, 0
2, 47784, Note_on_c, 0, 83, 0
2, 47824, Note_on_c, 0, 85, 70
2, 47824, Note_on_c, 0, 80, 67
2, 47888, Note_on_c, 0, 80, 0
2, 47888, Note_on_c, 0, 85, 0
2, 47916, Note_on_c, 0, 83, 70
2, 47916, Note_on_c, 0, 74, 61
2, 47920, Note_on_c, 0, 77, 62
2, 47960, Note_on_c, 0, 77, 0
2, 47976, Note_on_c, 0, 74, 0
2, 47980, Note_on_c, 0, 83, 0
2, 48008, Note_on_c, 0, 85, 69
2, 48012, Note_on_c, 0, 80, 63
2, 48064, Note_on_c, 0, 80, 0
2, 48072, Note_on_c, 0, 85, 0
2, 48096, Note_on_c, 0, 83, 77
2, 48104, Note_on_c, 0, 77, 64
2, 48104, Note_on_c, 0, 74, 59
2, 48136, Note_on_c, 0, 74, 0
2, 48136, Note_on_c, 0, 77, 0
2, 48160, Note_on_c, 0, 83, 0
2, 48208, Note_on_c, 0, 87, 81
2, 48208, Note_on_c, 0, 83, 65
2, 48284, Note_on_c, 0, 83, 0
2, 48288, Note_on_c, 0, 87, 0
2, 48316, Note_on_c, 0, 77, 55
2, 48316, Note_on_c, 0, 86, 65
2, 48340, Note_on_c, 0, 80, 33
2, 48352, Note_on_c, 0, 86, 0
2, 48372, Note_on_c, 0, 80, 0
2, 48372, Note_on_c, 0, 77, 0
2, 48392, Note_on_c, 0, 87, 71
2, 48408, Note_on_c, 0, 83, 57
2, 48440, Note_on_c, 0, 83, 0
2, 48456, Note_on_c, 0, 87, 0
2, 48492, Note_on_c, 0, 80, 52
2, 48492, Note_on_c, 0, 86, 66
2, 48492, Note_on_c, 0, 77, 61
2, 48552, Note_on_c, 0, 80, 0
2, 48556, Note_on_c, 0, 77, 0
2, 48564, Note_on_c, 0, 86, 0
2, 48580, Note_on_c, 0, 87, 75
2, 48600, Note_on_c, 0, 83, 55
2, 48628, Note_on_c, 0, 83, 0
2, 48648, Note_on_c, 0, 87, 0
2, 48680, Note_on_c, 0, 86, 67
2, 48684, Note_on_c, 0, 80, 53
2, 48688, Note_on_c, 0, 77, 59
2, 48752, Note_on_c, 0, 77, 0
2, 48752, Note_on_c, 0, 80, 0
2, 48756, Note_on_c, 0, 86, 0
2, 48772, Note_on_c, 0, 87, 74
2, 48796, Note_on_c, 0, 83, 46
2, 48832, Note_on_c, 0, 83, 0
2, 48844, Note_on_c, 0, 87, 0
2, 48872, Note_on_c, 0, 86, 70
2, 48876, Note_on_c, 0, 77, 60
2, 48876, Note_on_c, 0, 80, 53
2, 48940, Note_on_c, 0, 80, 0
2, 48940, Note_on_c, 0, 77, 0
2, 48944, Note_on_c, 0, 86, 0
2, 48960, Note_on_c, 0, 87, 71
2, 48988, Note_on_c, 0, 83, 41
2, 49024, Note_on_c, 0, 83, 0
2, 49028, Note_on_c, 0, 87, 0
2, 49060, Note_on_c, 0, 86, 67
2, 49060, Note_on_c, 0, 80, 59
2, 49068, Note_on_c, 0, 77, 57
2, 49112, Note_on_c, 0, 77, 0
2, 49120, Note_on_c, 0, 80, 0
2, 49132, Note_on_c, 0, 86, 0
2, 49132, Note_on_c, 0, 87, 68
2, 49160, Note_on_c, 0, 83, 41
2, 49196, Note_on_c, 0, 83, 0
2, 49204, Note_on_c, 0, 87, 0
2, 49240, Note_on_c, 0, 86, 71
2, 49240, Note_on_c, 0, 80, 53
2, 49244, Note_on_c, 0, 77, 62
2, 49300, Note_on_c, 0, 77, 0
2, 49300, Note_on_c, 0, 80, 0
2, 49308, Note_on_c, 0, 86, 0
2, 49320, Note_on_c, 0, 90, 64
2, 49328, Note_on_c, 0, 86, 56
2, 49352, Note_on_c, 0, 86, 0
2, 49372, Note_on_c, 0, 90, 0
2, 49416, Note_on_c, 0, 89, 74
2, 49424, Note_on_c, 0, 80, 43
2, 49424, Note_on_c, 0, 83, 58
2, 49464, Note_on_c, 0, 89, 0
2, 49468, Note_on_c, 0, 83, 0
2, 49480, Note_on_c, 0, 80, 0
2, 49508, Note_on_c, 0, 90, 65
2, 49520, Note_on_c, 0, 86, 54
2, 49548, Note_on_c, 0, 86, 0
2, 49556, Note_on_c, 0, 90, 0
2, 49588, Note_on_c, 0, 89, 73
2, 49588, Note_on_c, 0, 80, 54
2, 49596, Note_on_c, 0, 83, 54
2, 49640, Note_on_c, 0, 83, 0
2, 49644, Note_on_c, 0, 89, 0
2, 49652, Note_on_c, 0, 80, 0
2, 49692, Note_on_c, 0, 90, 59
2, 49696, Note_on_c, 0, 86, 57
2, 49724, Note_on_c, 0, 86, 0
2, 49740, Note_on_c, 0, 90, 0
2, 49772, Note_on_c, 0, 89, 68
2, 49776, Note_on_c, 0, 80, 50
2, 49780, Note_on_c, 0, 83, 56
2, 49828, Note_on_c, 0, 89, 0
2, 49832, Note_on_c, 0, 83, 0
2, 49832, Note_on_c, 0, 80, 0
2, 49868, Note_on_c, 0, 90, 66
2, 49880, Note_on_c, 0, 86, 58
2, 49904, Note_on_c, 0, 86, 0
2, 49920, Note_on_c, 0, 90, 0
2, 49948, Note_on_c, 0, 89, 70
2, 49956, Note_on_c, 0, 80, 41
2, 49956, Note_on_c, 0, 83, 52
2, 50008, Note_on_c, 0, 89, 0
2, 50012, Note_on_c, 0, 83, 0
2, 50012, Note_on_c, 0, 80, 0
2, 50044, Note_on_c, 0, 90, 67
2, 50052, Note_on_c, 0, 86, 55
2, 50076, Note_on_c, 0, 86, 0
2, 50092, Note_on_c, 0, 90, 0
2, 50124, Note_on_c, 0, 89, 66
2, 50128, Note_on_c, 0, 80, 44
2, 50136, Note_on_c, 0, 83, 54
2, 50188, Note_on_c, 0, 83, 0
2, 50188, Note_on_c, 0, 89, 0
2, 50192, Note_on_c, 0, 80, 0
2, 50216, Note_on_c, 0, 90, 58
2, 50232, Note_on_c, 0, 86, 41
2, 50256, Note_on_c, 0, 86, 0
2, 50268, Note_on_c, 0, 90, 0
2, 50304, Note_on_c, 0, 89, 69
2, 50308, Note_on_c, 0, 80, 47
2, 50312, Note_on_c, 0, 83, 59
2, 50372, Note_on_c, 0, 83, 0
2, 50372, Note_on_c, 0, 80, 0
2, 50376, Note_on_c, 0, 89, 0
2, 50404, Note_on_c, 0, 90, 65
2, 50412, Note_on_c, 0, 86, 54
2, 50440, Note_on_c, 0, 86, 0
2, 50460, Note_on_c, 0, 90, 0
2, 50488, Note_on_c, 0, 89, 70
2, 50492, Note_on_c, 0, 80, 48
2, 50492, Note_on_c, 0, 83, 58
2, 50548, Note_on_c, 0, 83, 0
2, 50552, Note_on_c, 0, 80, 0
2, 50556, Note_on_c, 0, 89, 0
2, 50588, Note_on_c, 0, 90, 58
2, 50604, Note_on_c, 0, 86, 46
2, 50628, Note_on_c, 0, 86, 0
2, 50640, Note_on_c, 0, 90, 0
2, 50672, Note_on_c, 0, 89, 58
2, 50676, Note_on_c, 0, 80, 43
2, 50680, Note_on_c, 0, 83, 53
2, 50728, Note_on_c, 0, 89, 0
2, 50732, Note_on_c, 0, 83, 0
2, 50732, Note_on_c, 0, 80, 0
2, 50768, Note_on_c, 0, 90, 53
2, 50776, Note_on_c, 0, 86, 50
2, 50808, Note_on_c, 0, 86, 0
2, 50824, Note_on_c, 0, 90, 0
2, 50844, Note_on_c, 0, 89, 66
2, 50848, Note_on_c, 0, 80, 43
2, 50852, Note_on_c, 0, 83, 49
2, 50908, Note_on_c, 0, 83, 0
2, 50912, Note_on_c, 0, 80, 0
2, 50912, Note_on_c, 0, 89, 0
2, 50944, Note_on_c, 0, 90, 56
2, 50956, Note_on_c, 0, 86, 49
2, 50988, Note_on_c, 0, 86, 0
2, 51000, Note_on_c, 0, 90, 0
2, 51024, Note_on_c, 0, 89, 56
2, 51028, Note_on_c, 0, 80, 39
2, 51032, Note_on_c, 0, 83, 48
2, 51084, Note_on_c, 0, 83, 0
2, 51088, Note_on_c, 0, 80, 0
2, 51088, Note_on_c, 0, 89, 0
2, 51116, Note_on_c, 0, 90, 52
2, 51128, Note_on_c, 0, 86, 50
2, 51156, Note_on_c, 0, 86, 0
2, 51172, Note_on_c, 0, 90, 0
2, 51200, Note_on_c, 0, 80, 41
2, 51200, Note_on_c, 0, 89, 55
2, 51204, Note_on_c, 0, 83, 49
2, 51252, Note_on_c, 0, 89, 0
2, 51256, Note_on_c, 0, 83, 0
2, 51256, Note_on_c, 0, 80, 0
2, 51292, Note_on_c, 0, 90, 50
2, 51300, Note_on_c, 0, 86, 48
2, 51328, Note_on_c, 0, 86, 0
2, 51340, Note_on_c, 0, 90, 0
2, 51368, Note_on_c, 0, 89, 64
2, 51372, Note_on_c, 0, 80, 44
2, 51376, Note_on_c, 0, 83, 52
2, 51432, Note_on_c, 0, 83, 0
2, 51432, Note_on_c, 0, 89, 0
2, 51436, Note_on_c, 0, 80, 0
2, 51436, End_track
3, 0, Start_track
3, 0, Title_t, "Piano 2"
3, 0, Program_c, 0, 0
3, 0, Control_c, 0, 7, 100
3, 0, Control_c, 0, 10, 48
3, 184, Note_on_c, 0, 83, 44
3, 196, Note_on_c, 0, 71, 42
3, 220, Note_on_c, 0, 83, 0
3, 268, Note_on_c, 0, 71, 0
3, 268, Note_on_c, 0, 82, 54
3, 280, Note_on_c, 0, 70, 47
3, 308, Note_on_c, 0, 82, 0
3, 324, Note_on_c, 0, 70, 0
3, 524, Note_on_c, 0, 83, 57
3, 524, Note_on_c, 0, 95, 67
3, 564, Note_on_c, 0, 95, 0
3, 572, Note_on_c, 0, 83, 0
3, 624, Note_on_c, 0, 94, 64
3, 632, Note_on_c, 0, 82, 55
3, 668, Note_on_c, 0, 82, 0
3, 676, Note_on_c, 0, 94, 0
3, 980, Note_on_c, 0, 82, 65
3, 984, Note_on_c, 0, 70, 54
3, 988, Note_on_c, 0, 68, 45
3, 996, Note_on_c, 0, 65, 54
3, 1000, Note_on_c, 0, 62, 51
3, 1020, Note_on_c, 0, 65, 0
3, 1028, Note_on_c, 0, 62, 0
3, 1032, Note_on_c, 0, 68, 0
3, 1036, Note_on_c, 0, 82, 0
3, 1040, Note_on_c, 0, 70, 0
3, 1328, Note_on_c, 0, 63, 56
3, 1328, Note_on_c, 0, 80, 61
3, 1328, Note_on_c, 0, 68, 43
3, 1340, Note_on_c, 0, 71, 41
3, 1356, Note_on_c, 0, 68, 0
3, 1356, Note_on_c, 0, 63, 0
3, 1372, Note_on_c, 0, 71, 0
3, 1384, Note_on_c, 0, 80, 0
3, 1440, Note_on_c, 0, 78, 65
3, 1492, Note_on_c, 0, 78, 0
3, 1532, Note_on_c, 0, 77, 69
3, 1572, Note_on_c, 0, 77, 0
3, 1656, Note_on_c, 0, 82, 63
3, 1660, Note_on_c, 0, 70, 49
3, 1664, Note_on_c, 0, 62, 50
3, 1668, Note_on_c, 0, 68, 37
3, 1672, Note_on_c, 0, 65, 41
3, 1708, Control_c, 0, 64, 56
3, 1720, Control_c, 0, 64, 104
3, 1728, Control_c, 0, 64, 127
3, 1732, Note_on_c, 0, 70, 0
3, 1740, Note_on_c, 0, 62, 0
3, 1744, Note_on_c, 0, 65, 0
3, 1752, Note_on_c, 0, 68, 0
3, 1756, Note_on_c, 0, 82, 0
3, 1980, Control_c, 0, 64, 104
3, 1988, Control_c, 0, 64, 72
3, 2000, Control_c, 0, 64, 56
3, 2012, Control_c, 0, 64, 24
3, 2024, Control_c, 0, 64, 0
3, 2276, Note_on_c, 0, 71, 56
3, 2280, Note_on_c, 0, 83, 57
3, 2308, Note_on_c, 0, 83, 0
3, 2324, Note_on_c, 0, 71, 0
3, 2368, Note_on_c, 0, 82, 62
3, 2380, Note_on_c, 0, 70, 53
3, 2408, Note_on_c, 0, 70, 0
3, 2408, Note_on_c, 0, 82, 0
3, 2624, Note_on_c, 0, 95, 80
3, 2636, Note_on_c, 0, 83, 50
3, 2668, Note_on_c, 0, 83, 0
3, 2680, Note_on_c, 0, 95, 0
3, 2724, Note_on_c, 0, 94, 74
3, 2728, Note_on_c, 0, 82, 64
3, 2744, Note_on_c, 0, 82, 0
3, 2764, Note_on_c, 0, 94, 0
3, 3120, Note_on_c, 0, 70, 59
3, 3128, Note_on_c, 0, 58, 52
3, 3132, Note_on_c, 0, 65, 46
3, 3136, Note_on_c, 0, 50, 58
3, 3136, Note_on_c, 0, 56, 50
3, 3156, Note_on_c, 0, 56, 0
3, 3160, Note_on_c, 0, 50, 0
3, 3168, Note_on_c, 0, 65, 0
3, 3176, Note_on_c, 0, 58, 0
3, 3180, Note_on_c, 0, 70, 0
3, 3448, Note_on_c, 0, 68, 54
3, 3452, Note_on_c, 0, 51, 56
3, 3456, Note_on_c, 0, 59, 57
3, 3464, Note_on_c, 0, 65, 37
3, 3464, Note_on_c, 0, 56, 32
3, 3472, Note_on_c, 0, 51, 0
3, 3480, Note_on_c, 0, 59, 0
3, 3488, Note_on_c, 0, 56, 0
3, 3492, Note_on_c, 0, 65, 0
3, 3508, Note_on_c, 0, 68, 0
3, 3552, Note_on_c, 0, 66, 64
3, 3608, Note_on_c, 0, 66, 0
3, 3672, Note_on_c, 0, 65, 46
3, 3704, Note_on_c, 0, 65, 0
3, 3796, Note_on_c, 0, 70, 54
3, 3796, Note_on_c, 0, 50, 56
3, 3800, Note_on_c, 0, 56, 44
3, 3804, Note_on_c, 0, 58, 35
3, 3804, Note_on_c, 0, 65, 39
3, 3864, Control_c, 0, 64, 40
3, 3876, Control_c, 0, 64, 72
3, 3884, Note_on_c, 0, 65, 0
3, 3888, Control_c, 0, 64, 88
3, 3900, Note_on_c, 0, 70, 0
3, 3900, Note_on_c, 0, 50, 0
3, 3900, Control_c, 0, 64, 127
3, 3904, Note_on_c, 0, 56, 0
3, 3916, Note_on_c, 0, 58, 0
3, 4096, Control_c, 0, 64, 104
3, 4104, Control_c, 0, 64, 88
3, 4116, Control_c, 0, 64, 72
3, 4128, Control_c, 0, 64, 56
3, 4136, Control_c, 0, 64, 24
3, 4148, Control_c, 0, 64, 0
3, 4368, Note_on_c, 0, 83, 62
3, 4368, Note_on_c, 0, 71, 63
3, 4404, Note_on_c, 0, 83, 0
3, 4424, Note_on_c, 0, 71, 0
3, 4456, Note_on_c, 0, 82, 74
3, 4468, Note_on_c, 0, 70, 61
3, 4484, Note_on_c, 0, 70, 0
3, 4496, Note_on_c, 0, 82, 0
3, 4696, Note_on_c, 0, 95, 78
3, 4740, Note_on_c, 0, 95, 0
3, 4792, Note_on_c, 0, 94, 72
3, 4796, Note_on_c, 0, 82, 57
3, 4848, Note_on_c, 0, 94, 0
3, 4852, Note_on_c, 0, 82, 0
3, 5160, Note_on_c, 0, 58, 60
3, 5164, Note_on_c, 0, 46, 61
3, 5196, Note_on_c, 0, 46, 0
3, 5224, Note_on_c, 0, 58, 0
3, 5496, Note_on_c, 0, 56, 49
3, 5504, Note_on_c, 0, 44, 54
3, 5540, Note_on_c, 0, 44, 0
3, 5548, Note_on_c, 0, 56, 0
3, 5588, Note_on_c, 0, 54, 65
3, 5596, Note_on_c, 0, 42, 53
3, 5628, Note_on_c, 0, 42, 0
3, 5640, Note_on_c, 0, 54, 0
3, 5692, Note_on_c, 0, 41, 67
3, 5696, Note_on_c, 0, 53, 48
3, 5716, Note_on_c, 0, 41, 0
3, 5728, Note_on_c, 0, 53, 0
3, 5804, Note_on_c, 0, 58, 68
3, 5820, Note_on_c, 0, 46, 59
3, 5864, Note_on_c, 0, 46, 0
3, 5884, Note_on_c, 0, 58, 0
3, 6148, Note_on_c, 0, 56, 49
3, 6152, Note_on_c, 0, 44, 60
3, 6204, Note_on_c, 0, 44, 0
3, 6204, Note_on_c, 0, 56, 0
3, 6248, Note_on_c, 0, 54, 54
3, 6260, Note_on_c, 0, 42, 43
3, 6292, Note_on_c, 0, 42, 0
3, 6300, Note_on_c, 0, 54, 0
3, 6356, Note_on_c, 0, 41, 65
3, 6360, Note_on_c, 0, 53, 53
3, 6388, Note_on_c, 0, 41, 0
3, 6392, Note_on_c, 0, 53, 0
3, 6468, Note_on_c, 0, 58, 63
3, 6468, Note_on_c, 0, 46, 64
3, 6496, Note_on_c, 0, 46, 0
3, 6516, Note_on_c, 0, 58, 0
3, 6812, Note_on_c, 0, 56, 59
3, 6820, Note_on_c, 0, 44, 58
3, 6856, Note_on_c, 0, 44, 0
3, 6868, Note_on_c, 0, 56, 0
3, 7132, Note_on_c, 0, 42, 58
3, 7132, Note_on_c, 0, 54, 61
3, 7180, Note_on_c, 0, 42, 0
3, 7184, Note_on_c, 0, 54, 0
3, 7456, Note_on_c, 0, 53, 61
3, 7460, Note_on_c, 0, 41, 70
3, 7496, Note_on_c, 0, 41, 0
3, 7500, Note_on_c, 0, 53, 0
3, 7836, Note_on_c, 0, 39, 54
3, 7844, Note_on_c, 0, 51, 57
3, 7912, Note_on_c, 0, 39, 0
3, 7944, Note_on_c, 0, 51, 0
3, 9988, Note_on_c, 0, 75, 77
3, 9992, Note_on_c, 0, 66, 56
3, 10004, Note_on_c, 0, 70, 52
3, 10020, Note_on_c, 0, 70, 0
3, 10028, Note_on_c, 0, 66, 0
3, 10028, Note_on_c, 0, 75, 0
3, 10072, Note_on_c, 0, 66, 64
3, 10076, Note_on_c, 0, 75, 71
3, 10080, Note_on_c, 0, 70, 64
3, 10104, Note_on_c, 0, 70, 0
3, 10112, Note_on_c, 0, 75, 0
3, 10116, Note_on_c, 0, 66, 0
3, 10300, Note_on_c, 0, 63, 66
3, 10304, Note_on_c, 0, 51, 75
3, 10340, Note_on_c, 0, 63, 0
3, 10344, Note_on_c, 0, 51, 0
3, 10392, Note_on_c, 0, 51, 67
3, 10392, Note_on_c, 0, 63, 79
3, 10424, Note_on_c, 0, 51, 0
3, 10428, Note_on_c, 0, 63, 0
3, 12928, Note_on_c, 0, 75, 71
3, 12928, Note_on_c, 0, 70, 64
3, 12928, Note_on_c, 0, 66, 56
3, 12952, Note_on_c, 0, 70, 0
3, 12952, Note_on_c, 0, 75, 0
3, 12956, Note_on_c, 0, 66, 0
3, 13008, Note_on_c, 0, 66, 63
3, 13012, Note_on_c, 0, 75, 78
3, 13012, Note_on_c, 0, 70, 74
3, 13028, Note_on_c, 0, 70, 0
3, 13036, Note_on_c, 0, 75, 0
3, 13040, Note_on_c, 0, 66, 0
3, 13236, Note_on_c, 0, 63, 68
3, 13240, Note_on_c, 0, 51, 72
3, 13268, Note_on_c, 0, 63, 0
3, 13272, Note_on_c, 0, 51, 0
3, 13328, Note_on_c, 0, 63, 85
3, 13328, Note_on_c, 0, 51, 82
3, 13360, Note_on_c, 0, 63, 0
3, 13364, Note_on_c, 0, 51, 0
3, 13632, Note_on_c, 0, 78, 95
3, 13636, Note_on_c, 0, 66, 75
3, 13636, Note_on_c, 0, 63, 71
3, 13640, Note_on_c, 0, 69, 85
3, 13644, Note_on_c, 0, 72, 79
3, 13648, Control_c, 0, 64, 56
3, 13656, Control_c, 0, 64, 127
3, 13664, Note_on_c, 0, 72, 0
3, 13664, Note_on_c, 0, 63, 0
3, 13668, Note_on_c, 0, 69, 0
3, 13668, Note_on_c, 0, 66, 0
3, 13672, Note_on_c, 0, 78, 0
3, 13868, Note_on_c, 0, 51, 68
3, 13880, Note_on_c, 0, 57, 63
3, 13880, Note_on_c, 0, 66, 65
3, 13896, Note_on_c, 0, 60, 54
3, 13904, Note_on_c, 0, 57, 0
3, 13904, Control_c, 0, 64, 104
3, 13912, Note_on_c, 0, 51, 0
3, 13912, Note_on_c, 0, 66, 0
3, 13916, Note_on_c, 0, 60, 0
3, 13920, Control_c, 0, 64, 56
3, 13928, Control_c, 0, 64, 0
3, 13960, Note_on_c, 0, 66, 75
3, 13960, Note_on_c, 0, 51, 77
3, 13964, Note_on_c, 0, 57, 77
3, 13964, Note_on_c, 0, 60, 72
3, 14004, Note_on_c, 0, 57, 0
3, 14004, Note_on_c, 0, 51, 0
3, 14008, Note_on_c, 0, 66, 0
3, 14008, Note_on_c, 0, 60, 0
3, 15504, Note_on_c, 0, 78, 89
3, 15512, Note_on_c, 0, 63, 68
3, 15512, Note_on_c, 0, 66, 63
3, 15516, Note_on_c, 0, 69, 76
3, 15520, Control_c, 0, 64, 72
3, 15528, Note_on_c, 0, 72, 49
3, 15532, Control_c, 0, 64, 127
3, 15536, Note_on_c, 0, 63, 0
3, 15540, Note_on_c, 0, 69, 0
3, 15540, Note_on_c, 0, 66, 0
3, 15552, Note_on_c, 0, 78, 0
3, 15552, Note_on_c, 0, 72, 0
3, 15768, Note_on_c, 0, 66, 63
3, 15768, Note_on_c, 0, 51, 58
3, 15780, Note_on_c, 0, 60, 48
3, 15780, Control_c, 0, 64, 72
3, 15788, Note_on_c, 0, 51, 0
3, 15792, Control_c, 0, 64, 24
3, 15804, Note_on_c, 0, 60, 0
3, 15804, Note_on_c, 0, 66, 0
3, 15804, Control_c, 0, 64, 0
3, 15848, Note_on_c, 0, 66, 64
3, 15852, Note_on_c, 0, 60, 65
3, 15856, Note_on_c, 0, 51, 72
3, 15864, Note_on_c, 0, 57, 65
3, 15888, Note_on_c, 0, 57, 0
3, 15892, Note_on_c, 0, 66, 0
3, 15892, Note_on_c, 0, 60, 0
3, 15896, Note_on_c, 0, 51, 0
3, 20424, Note_on_c, 0, 78, 65
3, 20428, Note_on_c, 0, 62, 66
3, 20432, Note_on_c, 0, 56, 47
3, 20440, Note_on_c, 0, 52, 57
3, 20468, Note_on_c, 0, 78, 0
3, 20472, Note_on_c, 0, 80, 67
3, 20516, Note_on_c, 0, 80, 0
3, 20528, Note_on_c, 0, 52, 0
3, 20528, Note_on_c, 0, 78, 54
3, 20556, Note_on_c, 0, 56, 0
3, 20564, Note_on_c, 0, 78, 0
3, 20564, Note_on_c, 0, 62, 0
3, 20572, Note_on_c, 0, 80, 38
3, 20608, Note_on_c, 0, 78, 52
3, 20672, Note_on_c, 0, 80, 0
3, 20712, Note_on_c, 0, 78, 0
3, 20712, Note_on_c, 0, 56, 57
3, 20752, Note_on_c, 0, 62, 62
3, 20752, Note_on_c, 0, 52, 61
3, 20760, Note_on_c, 0, 56, 0
3, 20784, Note_on_c, 0, 52, 0
3, 20788, Note_on_c, 0, 62, 0
3, 21360, Note_on_c, 0, 78, 56
3, 21376, Note_on_c, 0, 61, 37
3, 21380, Note_on_c, 0, 52, 41
3, 21380, Note_on_c, 0, 57, 46
3, 21396, Note_on_c, 0, 78, 0
3, 21396, Note_on_c, 0, 80, 68
3, 21416, Note_on_c, 0, 57, 0
3, 21424, Note_on_c, 0, 52, 0
3, 21448, Note_on_c, 0, 61, 0
3, 21452, Note_on_c, 0, 80, 0
3, 21456, Note_on_c, 0, 78, 65
3, 21484, Note_on_c, 0, 78, 0
3, 21484, Note_on_c, 0, 80, 66
3, 21528, Note_on_c, 0, 80, 0
3, 21544, Note_on_c, 0, 78, 65
3, 21564, Note_on_c, 0, 78, 0
3, 21572, Note_on_c, 0, 80, 58
3, 21616, Note_on_c, 0, 78, 58
3, 21624, Note_on_c, 0, 80, 0
3, 21656, Note_on_c, 0, 78, 0
3, 21668, Note_on_c, 0, 61, 54
3, 21668, Note_on_c, 0, 57, 51
3, 21668, Note_on_c, 0, 52, 55
3, 21696, Note_on_c, 0, 52, 0
3, 21696, Note_on_c, 0, 57, 0
3, 21712, Note_on_c, 0, 61, 0
3, 22276, Note_on_c, 0, 81, 59
3, 22288, Note_on_c, 0, 52, 52
3, 22288, Note_on_c, 0, 62, 46
3, 22292, Note_on_c, 0, 59, 44
3, 22300, Note_on_c, 0, 81, 0
3, 22300, Note_on_c, 0, 83, 75
3, 22348, Note_on_c, 0, 83, 0
3, 22360, Note_on_c, 0, 62, 0
3, 22364, Note_on_c, 0, 81, 66
3, 22372, Note_on_c, 0, 52, 0
3, 22388, Note_on_c, 0, 81, 0
3, 22408, Note_on_c, 0, 83, 65
3, 22412, Note_on_c, 0, 59, 0
3, 22440, Note_on_c, 0, 83, 0
3, 22452, Note_on_c, 0, 81, 50
3, 22476, Note_on_c, 0, 81, 0
3, 22488, Note_on_c, 0, 83, 73
3, 22512, Note_on_c, 0, 83, 0
3, 22524, Note_on_c, 0, 81, 55
3, 22544, Note_on_c, 0, 62, 68
3, 22544, Note_on_c, 0, 59, 64
3, 22544, Note_on_c, 0, 52, 64
3, 22556, Note_on_c, 0, 81, 0
3, 22572, Note_on_c, 0, 52, 0
3, 22576, Note_on_c, 0, 62, 0
3, 22592, Note_on_c, 0, 59, 0
3, 23172, Note_on_c, 0, 61, 61
3, 23172, Note_on_c, 0, 57, 50
3, 23172, Note_on_c, 0, 52, 51
3, 23192, Note_on_c, 0, 52, 0
3, 23200, Note_on_c, 0, 57, 0
3, 23208, Note_on_c, 0, 61, 0
3, 23476, Note_on_c, 0, 61, 49
3, 23476, Note_on_c, 0, 57, 50
3, 23476, Note_on_c, 0, 52, 39
3, 23504, Note_on_c, 0, 52, 0
3, 23504, Note_on_c, 0, 57, 0
3, 23516, Note_on_c, 0, 61, 0
3, 24112, Note_on_c, 0, 62, 53
3, 24112, Note_on_c, 0, 56, 46
3, 24112, Note_on_c, 0, 78, 66
3, 24124, Note_on_c, 0, 52, 43
3, 24148, Note_on_c, 0, 78, 0
3, 24156, Note_on_c, 0, 80, 71
3, 24164, Note_on_c, 0, 52, 0
3, 24200, Note_on_c, 0, 56, 0
3, 24204, Note_on_c, 0, 80, 0
3, 24216, Note_on_c, 0, 78, 72
3, 24240, Note_on_c, 0, 78, 0
3, 24240, Note_on_c, 0, 62, 0
3, 24240, Note_on_c, 0, 80, 63
3, 24292, Note_on_c, 0, 80, 0
3, 24300, Note_on_c, 0, 78, 77
3, 24332, Note_on_c, 0, 78, 0
3, 24336, Note_on_c, 0, 80, 60
3, 24376, Note_on_c, 0, 80, 0
3, 24412, Note_on_c, 0, 80, 82
3, 24436, Note_on_c, 0, 78, 55
3, 24448, Note_on_c, 0, 80, 0
3, 24472, Note_on_c, 0, 78, 0
3, 24472, Note_on_c, 0, 62, 28
3, 24472, Note_on_c, 0, 56, 35
3, 24472, Note_on_c, 0, 52, 39
3, 24504, Note_on_c, 0, 62, 0
3, 24512, Note_on_c, 0, 52, 0
3, 24512, Note_on_c, 0, 56, 0
3, 25052, Note_on_c, 0, 78, 60
3, 25076, Note_on_c, 0, 61, 40
3, 25080, Note_on_c, 0, 57, 38
3, 25084, Note_on_c, 0, 78, 0
3, 25088, Note_on_c, 0, 52, 38
3, 25104, Note_on_c, 0, 80, 68
3, 25120, Note_on_c, 0, 52, 0
3, 25120, Note_on_c, 0, 57, 0
3, 25144, Note_on_c, 0, 80, 0
3, 25148, Note_on_c, 0, 61, 0
3, 25156, Note_on_c, 0, 78, 65
3, 25184, Note_on_c, 0, 78, 0
3, 25196, Note_on_c, 0, 80, 60
3, 25236, Note_on_c, 0, 80, 0
3, 25240, Note_on_c, 0, 78, 63
3, 25260, Note_on_c, 0, 78, 0
3, 25272, Note_on_c, 0, 80, 71
3, 25320, Note_on_c, 0, 80, 0
3, 25320, Note_on_c, 0, 78, 75
3, 25340, Note_on_c, 0, 61, 43
3, 25340, Note_on_c, 0, 52, 43
3, 25356, Note_on_c, 0, 78, 0
3, 25368, Note_on_c, 0, 52, 0
3, 25392, Note_on_c, 0, 61, 0
3, 25960, Note_on_c, 0, 62, 52
3, 25972, Note_on_c, 0, 52, 52
3, 25980, Note_on_c, 0, 59, 42
3, 26244, Note_on_c, 0, 52, 0
3, 26256, Note_on_c, 0, 53, 62
3, 26592, Note_on_c, 0, 53, 0
3, 26604, Note_on_c, 0, 54, 43
3, 26864, Note_on_c, 0, 54, 0
3, 26944, Note_on_c, 0, 62, 0
3, 26952, Note_on_c, 0, 59, 0
3, 26960, Note_on_c, 0, 64, 72
3, 26960, Note_on_c, 0, 61, 44
3, 26964, Note_on_c, 0, 54, 61
3, 27336, Note_on_c, 0, 54, 0
3, 27336, Note_on_c, 0, 55, 56
3, 27664, Note_on_c, 0, 56, 66
3, 27672, Note_on_c, 0, 55, 0
3, 27856, Note_on_c, 0, 61, 0
3, 27876, Note_on_c, 0, 64, 0
3, 27908, Note_on_c, 0, 56, 0
3, 28040, Note_on_c, 0, 66, 59
3, 28040, Note_on_c, 0, 56, 52
3, 28052, Note_on_c, 0, 63, 44
3, 28368, Note_on_c, 0, 56, 0
3, 28384, Note_on_c, 0, 57, 50
3, 28792, Note_on_c, 0, 57, 0
3, 28792, Note_on_c, 0, 58, 55
3, 28916, Note_on_c, 0, 63, 0
3, 28952, Note_on_c, 0, 66, 0
3, 29128, Note_on_c, 0, 58, 0
3, 29144, Note_on_c, 0, 67, 58
3, 29148, Note_on_c, 0, 63, 37
3, 29152, Note_on_c, 0, 59, 57
3, 29204, Note_on_c, 0, 67, 0
3, 29208, Note_on_c, 0, 59, 0
3, 29216, Note_on_c, 0, 63, 0
3, 29508, Note_on_c, 0, 68, 57
3, 29508, Note_on_c, 0, 63, 42
3, 29520, Note_on_c, 0, 59, 45
3, 29568, Note_on_c, 0, 59, 0
3, 29576, Note_on_c, 0, 68, 0
3, 29584, Note_on_c, 0, 63, 0
3, 29904, Note_on_c, 0, 69, 70
3, 29912, Note_on_c, 0, 63, 42
3, 29912, Note_on_c, 0, 59, 45
3, 29964, Note_on_c, 0, 59, 0
3, 29972, Note_on_c, 0, 69, 0
3, 29988, Note_on_c, 0, 63, 0
3, 30288, Note_on_c, 0, 70, 63
3, 30288, Note_on_c, 0, 62, 57
3, 30292, Note_on_c, 0, 58, 45
3, 30364, Note_on_c, 0, 62, 0
3, 30368, Note_on_c, 0, 58, 0
3, 30392, Note_on_c, 0, 70, 0
3, 30944, Note_on_c, 0, 71, 59
3, 30944, Note_on_c, 0, 83, 45
3, 30976, Note_on_c, 0, 83, 0
3, 30996, Note_on_c, 0, 71, 0
3, 31004, Note_on_c, 0, 82, 72
3, 31020, Note_on_c, 0, 70, 62
3, 31036, Note_on_c, 0, 82, 0
3, 31040, Note_on_c, 0, 70, 0
3, 31280, Note_on_c, 0, 83, 50
3, 31296, Note_on_c, 0, 95, 61
3, 31328, Note_on_c, 0, 95, 0
3, 31356, Note_on_c, 0, 83, 0
3, 31372, Note_on_c, 0, 94, 64
3, 31384, Note_on_c, 0, 82, 63
3, 31404, Note_on_c, 0, 82, 0
3, 31412, Note_on_c, 0, 94, 0
3, 31716, Note_on_c, 0, 82, 63
3, 31728, Note_on_c, 0, 70, 59
3, 31732, Note_on_c, 0, 74, 63
3, 31736, Note_on_c, 0, 77, 44
3, 31752, Note_on_c, 0, 74, 0
3, 31752, Note_on_c, 0, 70, 0
3, 31760, Note_on_c, 0, 77, 0
3, 31764, Note_on_c, 0, 82, 0
3, 32044, Note_on_c, 0, 80, 50
3, 32048, Note_on_c, 0, 75, 48
3, 32052, Note_on_c, 0, 71, 52
3, 32060, Note_on_c, 0, 77, 34
3, 32076, Note_on_c, 0, 71, 0
3, 32076, Note_on_c, 0, 75, 0
3, 32084, Note_on_c, 0, 77, 0
3, 32092, Note_on_c, 0, 80, 0
3, 32136, Note_on_c, 0, 78, 57
3, 32184, Note_on_c, 0, 78, 0
3, 32240, Note_on_c, 0, 77, 51
3, 32272, Note_on_c, 0, 77, 0
3, 32368, Note_on_c, 0, 82, 67
3, 32368, Note_on_c, 0, 77, 63
3, 32376, Note_on_c, 0, 70, 56
3, 32376, Note_on_c, 0, 74, 66
3, 32392, Note_on_c, 0, 77, 0
3, 32400, Note_on_c, 0, 74, 0
3, 32400, Note_on_c, 0, 70, 0
3, 32420, Note_on_c, 0, 82, 0
3, 32656, Note_on_c, 0, 83, 58
3, 32668, Note_on_c, 0, 71, 35
3, 32680, Note_on_c, 0, 83, 0
3, 32696, Note_on_c, 0, 71, 0
3, 32720, Note_on_c, 0, 82, 75
3, 32732, Note_on_c, 0, 70, 63
3, 32752, Note_on_c, 0, 70, 0
3, 32764, Note_on_c, 0, 82, 0
3, 32972, Note_on_c, 0, 95, 67
3, 32980, Note_on_c, 0, 83, 47
3, 33012, Note_on_c, 0, 83, 0
3, 33016, Note_on_c, 0, 95, 0
3, 33056, Note_on_c, 0, 94, 66
3, 33068, Note_on_c, 0, 82, 63
3, 33088, Note_on_c, 0, 82, 0
3, 33100, Note_on_c, 0, 94, 0
3, 33412, Note_on_c, 0, 70, 60
3, 33412, Note_on_c, 0, 65, 56
3, 33416, Note_on_c, 0, 58, 55
3, 33424, Note_on_c, 0, 62, 53
3, 33444, Note_on_c, 0, 58, 0
3, 33444, Note_on_c, 0, 65, 0
3, 33448, Note_on_c, 0, 62, 0
3, 33460, Note_on_c, 0, 70, 0
3, 33748, Note_on_c, 0, 68, 50
3, 33756, Note_on_c, 0, 59, 51
3, 33760, Note_on_c, 0, 63, 35
3, 33764, Note_on_c, 0, 65, 31
3, 33776, Note_on_c, 0, 59, 0
3, 33784, Note_on_c, 0, 63, 0
3, 33788, Note_on_c, 0, 65, 0
3, 33800, Note_on_c, 0, 68, 0
3, 33836, Note_on_c, 0, 66, 56
3, 33888, Note_on_c, 0, 66, 0
3, 33928, Note_on_c, 0, 65, 59
3, 33968, Note_on_c, 0, 65, 0
3, 34060, Note_on_c, 0, 70, 57
3, 34064, Note_on_c, 0, 62, 57
3, 34068, Note_on_c, 0, 58, 44
3, 34068, Note_on_c, 0, 65, 34
3, 34112, Note_on_c, 0, 65, 0
3, 34112, Note_on_c, 0, 62, 0
3, 34116, Note_on_c, 0, 58, 0
3, 34116, Note_on_c, 0, 70, 0
3, 34772, Note_on_c, 0, 46, 55
3, 34776, Note_on_c, 0, 58, 56
3, 34816, Note_on_c, 0, 46, 0
3, 34832, Note_on_c, 0, 58, 0
3, 35124, Note_on_c, 0, 56, 47
3, 35136, Note_on_c, 0, 44, 43
3, 35160, Note_on_c, 0, 44, 0
3, 35172, Note_on_c, 0, 56, 0
3, 35224, Note_on_c, 0, 54, 46
3, 35244, Note_on_c, 0, 42, 35
3, 35272, Note_on_c, 0, 42, 0
3, 35272, Note_on_c, 0, 54, 0
3, 35324, Note_on_c, 0, 41, 64
3, 35324, Note_on_c, 0, 53, 56
3, 35348, Note_on_c, 0, 41, 0
3, 35352, Note_on_c, 0, 53, 0
3, 35444, Note_on_c, 0, 58, 58
3, 35452, Note_on_c, 0, 46, 55
3, 35476, Note_on_c, 0, 46, 0
3, 35500, Note_on_c, 0, 58, 0
3, 35776, Note_on_c, 0, 56, 42
3, 35788, Note_on_c, 0, 44, 40
3, 35816, Note_on_c, 0, 44, 0
3, 35820, Note_on_c, 0, 56, 0
3, 35880, Note_on_c, 0, 54, 47
3, 35896, Note_on_c, 0, 42, 35
3, 35924, Note_on_c, 0, 42, 0
3, 35936, Note_on_c, 0, 54, 0
3, 35996, Note_on_c, 0, 41, 54
3, 35996, Note_on_c, 0, 53, 41
3, 36024, Note_on_c, 0, 53, 0
3, 36028, Note_on_c, 0, 41, 0
3, 36068, Note_on_c, 0, 66, 50
3, 36096, Note_on_c, 0, 75, 40
3, 36128, Note_on_c, 0, 51, 50
3, 36128, Note_on_c, 0, 39, 50
3, 36140, Note_on_c, 0, 75, 0
3, 36140, Note_on_c, 0, 54, 43
3, 36148, Note_on_c, 0, 66, 0
3, 36160, Note_on_c, 0, 82, 67
3, 36196, Note_on_c, 0, 54, 0
3, 36208, Note_on_c, 0, 39, 0
3, 36208, Note_on_c, 0, 51, 0
3, 36208, Note_on_c, 0, 82, 0
3, 36304, Control_c, 0, 64, 88
3, 36316, Control_c, 0, 64, 40
3, 36324, Control_c, 0, 64, 0
3, 36512, Note_on_c, 0, 80, 60
3, 36564, Note_on_c, 0, 80, 0
3, 36636, Note_on_c, 0, 78, 47
3, 36676, Note_on_c, 0, 78, 0
3, 36724, Note_on_c, 0, 75, 65
3, 36752, Note_on_c, 0, 75, 0
3, 36880, Note_on_c, 0, 78, 63
3, 36884, Note_on_c, 0, 54, 40
3, 36888, Note_on_c, 0, 66, 33
3, 36892, Note_on_c, 0, 70, 42
3, 36924, Note_on_c, 0, 78, 0
3, 36928, Note_on_c, 0, 70, 0
3, 36936, Note_on_c, 0, 66, 0
3, 36936, Note_on_c, 0, 54, 0
3, 37260, Note_on_c, 0, 77, 68
3, 37260, Note_on_c, 0, 63, 38
3, 37268, Note_on_c, 0, 66, 35
3, 37284, Note_on_c, 0, 59, 42
3, 37312, Note_on_c, 0, 59, 0
3, 37312, Note_on_c, 0, 63, 0
3, 37328, Note_on_c, 0, 77, 0
3, 37408, Note_on_c, 0, 75, 56
3, 37468, Note_on_c, 0, 75, 0
3, 37472, Note_on_c, 0, 66, 0
3, 37616, Note_on_c, 0, 75, 70
3, 37624, Note_on_c, 0, 66, 44
3, 37628, Note_on_c, 0, 63, 38
3, 37632, Note_on_c, 0, 51, 45
3, 37672, Note_on_c, 0, 75, 0
3, 37676, Note_on_c, 0, 51, 0
3, 37684, Note_on_c, 0, 63, 0
3, 37696, Note_on_c, 0, 66, 0
3, 37872, Note_on_c, 0, 73, 66
3, 37920, Note_on_c, 0, 73, 0
3, 38016, Note_on_c, 0, 71, 61
3, 38016, Note_on_c, 0, 63, 47
3, 38028, Note_on_c, 0, 56, 37
3, 38036, Note_on_c, 0, 59, 32
3, 38044, Note_on_c, 0, 71, 0
3, 38052, Note_on_c, 0, 56, 0
3, 38064, Note_on_c, 0, 59, 0
3, 38068, Note_on_c, 0, 63, 0
3, 38128, Note_on_c, 0, 70, 63
3, 38180, Note_on_c, 0, 70, 0
3, 38280, Note_on_c, 0, 68, 35
3, 38308, Note_on_c, 0, 68, 0
3, 38432, Note_on_c, 0, 75, 63
3, 38432, Note_on_c, 0, 63, 47
3, 38436, Note_on_c, 0, 51, 55
3, 38436, Note_on_c, 0, 66, 48
3, 38440, Note_on_c, 0, 58, 38
3, 38472, Note_on_c, 0, 75, 0
3, 38476, Note_on_c, 0, 66, 0
3, 38484, Note_on_c, 0, 63, 0
3, 38484, Note_on_c, 0, 51, 0
3, 38484, Note_on_c, 0, 58, 0
3, 38696, Note_on_c, 0, 63, 54
3, 38736, Note_on_c, 0, 63, 0
3, 38772, Note_on_c, 0, 63, 78
3, 38836, Note_on_c, 0, 63, 0
3, 39124, Note_on_c, 0, 51, 58
3, 39144, Note_on_c, 0, 51, 0
3, 39204, Note_on_c, 0, 51, 71
3, 39276, Note_on_c, 0, 51, 0
3, 39536, Note_on_c, 0, 66, 44
3, 39572, Note_on_c, 0, 66, 0
3, 39616, Note_on_c, 0, 39, 45
3, 39616, Control_c, 0, 64, 40
3, 39628, Control_c, 0, 64, 72
3, 39636, Note_on_c, 0, 75, 33
3, 39640, Control_c, 0, 64, 88
3, 39644, Note_on_c, 0, 46, 35
3, 39648, Control_c, 0, 64, 104
3, 39660, Control_c, 0, 64, 127
3, 39668, Note_on_c, 0, 75, 0
3, 39692, Note_on_c, 0, 82, 75
3, 39696, Note_on_c, 0, 54, 39
3, 39704, Note_on_c, 0, 39, 0
3, 39720, Note_on_c, 0, 46, 0
3, 39728, Note_on_c, 0, 54, 0
3, 39732, Note_on_c, 0, 82, 0
3, 39792, Control_c, 0, 64, 104
3, 39804, Control_c, 0, 64, 88
3, 39812, Control_c, 0, 64, 56
3, 39820, Control_c, 0, 64, 24
3, 39832, Control_c, 0, 64, 0
3, 40068, Note_on_c, 0, 80, 66
3, 40128, Note_on_c, 0, 80, 0
3, 40188, Note_on_c, 0, 78, 60
3, 40244, Note_on_c, 0, 78, 0
3, 40288, Note_on_c, 0, 75, 64
3, 40324, Note_on_c, 0, 75, 0
3, 40424, Note_on_c, 0, 78, 70
3, 40432, Note_on_c, 0, 66, 43
3, 40440, Note_on_c, 0, 70, 45
3, 40440, Note_on_c, 0, 54, 42
3, 40448, Note_on_c, 0, 61, 41
3, 40484, Note_on_c, 0, 78, 0
3, 40488, Note_on_c, 0, 61, 0
3, 40492, Note_on_c, 0, 54, 0
3, 40496, Note_on_c, 0, 66, 0
3, 40504, Note_on_c, 0, 70, 0
3, 40848, Note_on_c, 0, 77, 73
3, 40852, Note_on_c, 0, 66, 47
3, 40856, Note_on_c, 0, 63, 38
3, 40860, Note_on_c, 0, 59, 45
3, 40896, Note_on_c, 0, 59, 0
3, 40904, Note_on_c, 0, 63, 0
3, 40916, Note_on_c, 0, 77, 0
3, 40960, Note_on_c, 0, 75, 67
3, 41020, Note_on_c, 0, 66, 0
3, 41024, Note_on_c, 0, 75, 0
3, 41068, Note_on_c, 0, 71, 55
3, 41096, Note_on_c, 0, 71, 0
3, 41196, Note_on_c, 0, 75, 67
3, 41208, Note_on_c, 0, 66, 42
3, 41216, Note_on_c, 0, 63, 39
3, 41216, Note_on_c, 0, 51, 47
3, 41232, Note_on_c, 0, 58, 35
3, 41256, Note_on_c, 0, 75, 0
3, 41264, Note_on_c, 0, 58, 0
3, 41276, Note_on_c, 0, 51, 0
3, 41276, Note_on_c, 0, 63, 0
3, 41288, Note_on_c, 0, 66, 0
3, 41464, Note_on_c, 0, 73, 68
3, 41524, Note_on_c, 0, 73, 0
3, 41584, Note_on_c, 0, 71, 66
3, 41588, Note_on_c, 0, 63, 44
3, 41596, Note_on_c, 0, 56, 41
3, 41604, Note_on_c, 0, 59, 35
3, 41640, Note_on_c, 0, 59, 0
3, 41640, Note_on_c, 0, 56, 0
3, 41648, Note_on_c, 0, 63, 0
3, 41648, Note_on_c, 0, 71, 0
3, 41704, Note_on_c, 0, 70, 52
3, 41756, Note_on_c, 0, 70, 0
3, 41812, Note_on_c, 0, 68, 58
3, 41856, Note_on_c, 0, 68, 0
3, 41952, Note_on_c, 0, 75, 67
3, 41960, Note_on_c, 0, 66, 52
3, 41960, Note_on_c, 0, 58, 44
3, 41964, Note_on_c, 0, 63, 41
3, 41968, Note_on_c, 0, 51, 53
3, 41992, Control_c, 0, 64, 24
3, 41996, Note_on_c, 0, 66, 0
3, 42000, Note_on_c, 0, 75, 0
3, 42020, Note_on_c, 0, 51, 0
3, 42020, Note_on_c, 0, 58, 0
3, 42036, Note_on_c, 0, 63, 0
3, 42036, Control_c, 0, 64, 0
3, 42232, Note_on_c, 0, 63, 44
3, 42268, Note_on_c, 0, 63, 0
3, 42308, Note_on_c, 0, 63, 74
3, 42416, Note_on_c, 0, 63, 0
3, 42616, Note_on_c, 0, 51, 55
3, 42648, Note_on_c, 0, 51, 0
3, 42700, Note_on_c, 0, 51, 65
3, 42760, Note_on_c, 0, 51, 0
3, 43140, Note_on_c, 0, 78, 84
3, 43140, Note_on_c, 0, 72, 46
3, 43140, Note_on_c, 0, 69, 78
3, 43140, Note_on_c, 0, 66, 48
3, 43140, Note_on_c, 0, 63, 53
3, 43152, Control_c, 0, 64, 40
3, 43164, Control_c, 0, 64, 88
3, 43168, Note_on_c, 0, 72, 0
3, 43172, Note_on_c, 0, 63, 0
3, 43176, Note_on_c, 0, 66, 0
3, 43176, Control_c, 0, 64, 127
3, 43184, Note_on_c, 0, 69, 0
3, 43204, Note_on_c, 0, 78, 0
3, 43432, Note_on_c, 0, 66, 70
3, 43440, Control_c, 0, 64, 104
3, 43452, Control_c, 0, 64, 88
3, 43460, Control_c, 0, 64, 56
3, 43472, Note_on_c, 0, 66, 0
3, 43472, Control_c, 0, 64, 40
3, 43484, Control_c, 0, 64, 0
3, 43520, Note_on_c, 0, 66, 68
3, 43520, Note_on_c, 0, 60, 48
3, 43520, Note_on_c, 0, 60, 65
3, 43520, Note_on_c, 0, 51, 61
3, 43520, Note_on_c, 0, 57, 59
3, 43540, Note_on_c, 0, 51, 0
3, 43544, Note_on_c, 0, 60, 0
3, 43544, Note_on_c, 0, 57, 0
3, 43564, Note_on_c, 0, 60, 0
3, 43572, Note_on_c, 0, 66, 0
3, 44700, Note_on_c, 0, 50, 70
3, 44724, Note_on_c, 0, 50, 0
3, 44860, Note_on_c, 0, 53, 67
3, 44892, Note_on_c, 0, 53, 0
3, 44976, Note_on_c, 0, 56, 70
3, 44996, Note_on_c, 0, 56, 0
3, 45100, Note_on_c, 0, 59, 70
3, 45144, Note_on_c, 0, 59, 0
3, 45228, Note_on_c, 0, 62, 73
3, 45284, Note_on_c, 0, 62, 0
3, 45344, Note_on_c, 0, 65, 83
3, 45356, Note_on_c, 0, 65, 0
3, 45500, Note_on_c, 0, 78, 91
3, 45504, Note_on_c, 0, 66, 65
3, 45504, Note_on_c, 0, 69, 77
3, 45508, Note_on_c, 0, 63, 65
3, 45508, Note_on_c, 0, 72, 78
3, 45528, Note_on_c, 0, 72, 0
3, 45608, Note_on_c, 0, 66, 0
3, 45608, Note_on_c, 0, 63, 0
3, 45620, Note_on_c, 0, 69, 0
3, 45620, Note_on_c, 0, 78, 0
3, 45820, Note_on_c, 0, 66, 60
3, 45824, Note_on_c, 0, 51, 65
3, 45828, Note_on_c, 0, 60, 60
3, 45832, Note_on_c, 0, 57, 56
3, 45852, Note_on_c, 0, 60, 0
3, 45860, Note_on_c, 0, 57, 0
3, 45868, Note_on_c, 0, 51, 0
3, 45868, Note_on_c, 0, 66, 0
3, 45920, Note_on_c, 0, 66, 60
3, 45928, Note_on_c, 0, 51, 55
3, 45928, Note_on_c, 0, 60, 56
3, 45928, Note_on_c, 0, 57, 54
3, 45956, Note_on_c, 0, 51, 0
3, 45960, Note_on_c, 0, 57, 0
3, 45960, Note_on_c, 0, 60, 0
3, 45972, Note_on_c, 0, 66, 0
3, 46988, Note_on_c, 0, 50, 71
3, 47044, Note_on_c, 0, 50, 0
3, 47144, Note_on_c, 0, 53, 59
3, 47196, Note_on_c, 0, 53, 0
3, 47272, Note_on_c, 0, 56, 60
3, 47292, Note_on_c, 0, 56, 0
3, 47400, Note_on_c, 0, 59, 46
3, 47432, Note_on_c, 0, 59, 0
3, 47536, Note_on_c, 0, 62, 53
3, 47564, Note_on_c, 0, 62, 0
3, 47648, Note_on_c, 0, 65, 63
3, 47688, Note_on_c, 0, 65, 0
3, 47792, Note_on_c, 0, 68, 55
3, 47920, Note_on_c, 0, 68, 0
3, 48180, Note_on_c, 0, 53, 61
3, 48200, Note_on_c, 0, 53, 0
3, 48332, Note_on_c, 0, 56, 61
3, 48380, Note_on_c, 0, 56, 0
3, 48456, Note_on_c, 0, 59, 74
3, 48480, Note_on_c, 0, 59, 0
3, 48576, Note_on_c, 0, 62, 67
3, 48628, Note_on_c, 0, 62, 0
3, 48708, Note_on_c, 0, 65, 54
3, 48736, Note_on_c, 0, 65, 0
3, 48812, Note_on_c, 0, 68, 54
3, 48860, Note_on_c, 0, 68, 0
3, 48956, Note_on_c, 0, 71, 62
3, 49068, Note_on_c, 0, 71, 0
3, 49312, Note_on_c, 0, 56, 48
3, 49368, Note_on_c, 0, 56, 0
3, 49460, Note_on_c, 0, 59, 59
3, 49504, Note_on_c, 0, 59, 0
3, 49588, Note_on_c, 0, 62, 66
3, 49624, Note_on_c, 0, 62, 0
3, 49728, Note_on_c, 0, 65, 53
3, 49756, Note_on_c, 0, 65, 0
3, 49840, Note_on_c, 0, 68, 57
3, 49904, Note_on_c, 0, 68, 0
3, 49940, Note_on_c, 0, 71, 50
3, 49964, Note_on_c, 0, 71, 0
3, 50044, Note_on_c, 0, 74, 66
3, 50236, Note_on_c, 0, 74, 0
3, 50404, Note_on_c, 0, 71, 54
3, 50424, Note_on_c, 0, 71, 0
3, 50588, Note_on_c, 0, 68, 48
3, 50668, Note_on_c, 0, 68, 0
3, 50768, Note_on_c, 0, 65, 41
3, 50816, Note_on_c, 0, 65, 0
3, 50944, Note_on_c, 0, 62, 52
3, 50976, Note_on_c, 0, 62, 0
3, 51116, Note_on_c, 0, 59, 52
3, 51168, Note_on_c, 0, 59, 0
3, 51292, Note_on_c, 0, 56, 48
3, 51352, Note_on_c, 0, 56, 0
3, 51456, Note_on_c, 0, 53, 44
3, 51484, Note_on_c, 0, 53, 0
3, 51624, Note_on_c, 0, 52, 44
3, 51660, Note_on_c, 0, 52, 0
3, 51792, Note_on_c, 0, 51, 44
3, 51828, Note_on_c, 0, 51, 0
3, 51964, Note_on_c, 0, 50, 44
3, 52000, Note_on_c, 0, 50, 0
3, 52000, End_track
0, 0, End_of_file
