0, 0, Header, 1, 2, 384
1, 0, Start_track
1, 0, Title_t, "untitled"
1, 0, Sequencer_specific, 3, 0, 0, 65
1, 0, Time_signature, 2, 2, 24, 8
1, 0, Key_signature, 0, "major"
1, 0, Tempo, 397351
1, 16048, Tempo, 428571
1, 22512, Tempo, 465116
1, 53484, Tempo, 428571
1, 62244, Tempo, 397351
1, 63668, Tempo, 428571
1, 65648, Tempo, 397351
1, 75168, Tempo, 397351
1, 96800, Tempo, 428571
1, 111624, Tempo, 444444
1, 114080, Tempo, 461538
1, 118452, Tempo, 461538
1, 122788, Tempo, 480000
1, 129148, Tempo, 500000
1, 131852, Tempo, 545455
1, 136660, Tempo, 600000
1, 141088, Tempo, 631579
1, 144112, Tempo, 666667
1, 147672, Tempo, 631579
1, 157896, Tempo, 631579
1, 167988, Tempo, 666667
1, 167988, End_track
2, 0, Start_track
2, 0, Title_t, "Robert Finley, Piano"
2, 0, Program_c, 0, 0
2, 0, Control_c, 0, 7, 105
2, 44, Control_c, 0, 64, 24
2, 108, Control_c, 0, 64, 0
2, 212, Control_c, 0, 64, 24
2, 296, Control_c, 0, 64, 0
2, 612, Control_c, 0, 64, 24
2, 620, Control_c, 0, 64, 40
2, 636, Note_on_c, 0, 65, 35
2, 660, Control_c, 0, 64, 56
2, 704, Note_on_c, 0, 65, 0
2, 728, Note_on_c, 0, 66, 34
2, 760, Note_on_c, 0, 66, 0
2, 824, Note_on_c, 0, 65, 35
2, 868, Note_on_c, 0, 65, 0
2, 908, Note_on_c, 0, 67, 48
2, 964, Control_c, 0, 64, 72
2, 976, Note_on_c, 0, 67, 0
2, 1000, Note_on_c, 0, 68, 50
2, 1052, Note_on_c, 0, 68, 0
2, 1092, Note_on_c, 0, 69, 49
2, 1140, Note_on_c, 0, 69, 0
2, 1180, Note_on_c, 0, 68, 50
2, 1248, Note_on_c, 0, 68, 0
2, 1272, Note_on_c, 0, 70, 64
2, 1320, Note_on_c, 0, 70, 0
2, 1364, Note_on_c, 0, 71, 50
2, 1384, Control_c, 0, 64, 24
2, 1392, Control_c, 0, 64, 0
2, 1432, Note_on_c, 0, 71, 0
2, 1460, Note_on_c, 0, 72, 47
2, 1476, Control_c, 0, 64, 24
2, 1484, Control_c, 0, 64, 40
2, 1496, Note_on_c, 0, 72, 0
2, 1524, Control_c, 0, 64, 56
2, 1544, Note_on_c, 0, 71, 55
2, 1596, Note_on_c, 0, 71, 0
2, 1632, Note_on_c, 0, 73, 55
2, 1684, Note_on_c, 0, 73, 0
2, 1724, Note_on_c, 0, 74, 65
2, 1744, Control_c, 0, 64, 24
2, 1756, Control_c, 0, 64, 0
2, 1800, Note_on_c, 0, 74, 0
2, 1812, Note_on_c, 0, 75, 64
2, 1820, Control_c, 0, 64, 24
2, 1828, Control_c, 0, 64, 40
2, 1848, Control_c, 0, 64, 56
2, 1864, Note_on_c, 0, 75, 0
2, 1908, Note_on_c, 0, 74, 66
2, 1912, Control_c, 0, 64, 72
2, 1960, Control_c, 0, 64, 88
2, 1968, Note_on_c, 0, 74, 0
2, 2000, Note_on_c, 0, 76, 57
2, 2024, Control_c, 0, 64, 104
2, 2048, Note_on_c, 0, 76, 0
2, 2060, Control_c, 0, 64, 127
2, 2088, Control_c, 0, 64, 88
2, 2096, Note_on_c, 0, 77, 70
2, 2100, Control_c, 0, 64, 56
2, 2108, Control_c, 0, 64, 24
2, 2120, Control_c, 0, 64, 0
2, 2156, Control_c, 0, 64, 24
2, 2164, Control_c, 0, 64, 40
2, 2172, Note_on_c, 0, 77, 0
2, 2172, Control_c, 0, 64, 56
2, 2184, Note_on_c, 0, 78, 60
2, 2184, Control_c, 0, 64, 72
2, 2192, Control_c, 0, 64, 88
2, 2228, Control_c, 0, 64, 104
2, 2236, Note_on_c, 0, 78, 0
2, 2272, Note_on_c, 0, 77, 66
2, 2312, Control_c, 0, 64, 127
2, 2328, Note_on_c, 0, 77, 0
2, 2352, Control_c, 0, 64, 72
2, 2360, Control_c, 0, 64, 0
2, 2364, Note_on_c, 0, 79, 75
2, 2432, Note_on_c, 0, 53, 57
2, 2432, Control_c, 0, 64, 40
2, 2444, Control_c, 0, 64, 88
2, 2448, Note_on_c, 0, 53, 0
2, 2452, Control_c, 0, 64, 104
2, 2456, Note_on_c, 0, 59, 46
2, 2460, Control_c, 0, 64, 127
2, 2472, Note_on_c, 0, 79, 0
2, 2484, Note_on_c, 0, 62, 58
2, 2500, Note_on_c, 0, 80, 64
2, 2520, Note_on_c, 0, 68, 74
2, 2552, Note_on_c, 0, 80, 0
2, 2564, Control_c, 0, 67, 127
2, 2584, Note_on_c, 0, 81, 55
2, 2648, Note_on_c, 0, 81, 0
2, 2664, Control_c, 0, 64, 104
2, 2680, Note_on_c, 0, 80, 60
2, 2752, Note_on_c, 0, 80, 0
2, 2772, Note_on_c, 0, 82, 62
2, 2820, Note_on_c, 0, 82, 0
2, 2864, Note_on_c, 0, 83, 69
2, 2932, Note_on_c, 0, 83, 0
2, 2960, Note_on_c, 0, 84, 71
2, 3000, Note_on_c, 0, 84, 0
2, 3048, Note_on_c, 0, 83, 74
2, 3112, Note_on_c, 0, 83, 0
2, 3136, Note_on_c, 0, 85, 67
2, 3152, Note_on_c, 0, 62, 0
2, 3176, Note_on_c, 0, 59, 0
2, 3232, Note_on_c, 0, 85, 0
2, 3256, Note_on_c, 0, 84, 62
2, 3268, Note_on_c, 0, 63, 46
2, 3280, Note_on_c, 0, 60, 42
2, 3280, Control_c, 0, 64, 72
2, 3288, Control_c, 0, 64, 24
2, 3296, Control_c, 0, 64, 0
2, 3332, Note_on_c, 0, 84, 0
2, 3348, Note_on_c, 0, 85, 58
2, 3392, Control_c, 0, 64, 40
2, 3400, Control_c, 0, 64, 72
2, 3408, Note_on_c, 0, 85, 0
2, 3412, Control_c, 0, 64, 88
2, 3420, Control_c, 0, 64, 104
2, 3428, Control_c, 0, 64, 127
2, 3436, Note_on_c, 0, 84, 71
2, 3496, Note_on_c, 0, 84, 0
2, 3536, Note_on_c, 0, 86, 78
2, 3616, Note_on_c, 0, 86, 0
2, 3616, Note_on_c, 0, 68, 0
2, 3632, Note_on_c, 0, 87, 73
2, 3640, Note_on_c, 0, 67, 56
2, 3688, Control_c, 0, 64, 88
2, 3696, Control_c, 0, 64, 40
2, 3708, Control_c, 0, 64, 0
2, 3712, Note_on_c, 0, 87, 0
2, 3712, Note_on_c, 0, 63, 0
2, 3728, Note_on_c, 0, 89, 73
2, 3764, Control_c, 0, 64, 40
2, 3772, Control_c, 0, 64, 56
2, 3780, Control_c, 0, 64, 88
2, 3784, Note_on_c, 0, 89, 0
2, 3800, Control_c, 0, 64, 104
2, 3808, Control_c, 0, 64, 127
2, 3812, Note_on_c, 0, 87, 65
2, 3844, Note_on_c, 0, 60, 0
2, 3884, Note_on_c, 0, 87, 0
2, 3904, Note_on_c, 0, 90, 67
2, 3940, Note_on_c, 0, 90, 0
2, 3980, Note_on_c, 0, 91, 73
2, 3996, Note_on_c, 0, 63, 50
2, 4028, Note_on_c, 0, 67, 0
2, 4056, Note_on_c, 0, 91, 0
2, 4076, Note_on_c, 0, 92, 74
2, 4140, Note_on_c, 0, 92, 0
2, 4164, Note_on_c, 0, 91, 81
2, 4236, Note_on_c, 0, 91, 0
2, 4256, Note_on_c, 0, 95, 73
2, 4284, Note_on_c, 0, 95, 0
2, 4336, Note_on_c, 0, 96, 80
2, 4344, Note_on_c, 0, 60, 54
2, 4348, Note_on_c, 0, 63, 0
2, 4416, Note_on_c, 0, 96, 0
2, 4424, Note_on_c, 0, 97, 79
2, 4480, Note_on_c, 0, 97, 0
2, 4508, Note_on_c, 0, 96, 89
2, 4576, Note_on_c, 0, 96, 0
2, 4596, Note_on_c, 0, 98, 92
2, 4680, Note_on_c, 0, 98, 0
2, 4688, Note_on_c, 0, 99, 96
2, 4768, Note_on_c, 0, 99, 0
2, 4780, Note_on_c, 0, 98, 88
2, 4848, Note_on_c, 0, 98, 0
2, 4864, Note_on_c, 0, 99, 85
2, 4920, Note_on_c, 0, 60, 0
2, 4936, Note_on_c, 0, 99, 0
2, 4956, Note_on_c, 0, 97, 79
2, 5032, Note_on_c, 0, 97, 0
2, 5048, Note_on_c, 0, 96, 80
2, 5064, Control_c, 0, 64, 88
2, 5072, Control_c, 0, 64, 72
2, 5100, Control_c, 0, 64, 104
2, 5112, Note_on_c, 0, 96, 0
2, 5120, Control_c, 0, 64, 127
2, 5136, Note_on_c, 0, 95, 75
2, 5196, Note_on_c, 0, 95, 0
2, 5224, Note_on_c, 0, 96, 69
2, 5280, Note_on_c, 0, 96, 0
2, 5316, Note_on_c, 0, 94, 56
2, 5384, Note_on_c, 0, 94, 0
2, 5404, Note_on_c, 0, 93, 78
2, 5460, Note_on_c, 0, 93, 0
2, 5484, Note_on_c, 0, 92, 71
2, 5552, Note_on_c, 0, 92, 0
2, 5580, Note_on_c, 0, 93, 67
2, 5636, Note_on_c, 0, 93, 0
2, 5660, Note_on_c, 0, 91, 74
2, 5712, Note_on_c, 0, 91, 0
2, 5748, Note_on_c, 0, 90, 65
2, 5808, Note_on_c, 0, 90, 0
2, 5840, Note_on_c, 0, 89, 69
2, 5900, Note_on_c, 0, 89, 0
2, 5924, Note_on_c, 0, 90, 59
2, 5992, Note_on_c, 0, 90, 0
2, 6016, Note_on_c, 0, 88, 67
2, 6080, Note_on_c, 0, 88, 0
2, 6100, Note_on_c, 0, 87, 60
2, 6172, Note_on_c, 0, 87, 0
2, 6192, Note_on_c, 0, 86, 75
2, 6252, Note_on_c, 0, 86, 0
2, 6280, Note_on_c, 0, 87, 59
2, 6352, Note_on_c, 0, 87, 0
2, 6368, Note_on_c, 0, 85, 64
2, 6436, Note_on_c, 0, 85, 0
2, 6456, Note_on_c, 0, 84, 72
2, 6516, Note_on_c, 0, 84, 0
2, 6548, Note_on_c, 0, 83, 69
2, 6600, Note_on_c, 0, 83, 0
2, 6636, Note_on_c, 0, 84, 67
2, 6672, Control_c, 0, 64, 88
2, 6680, Control_c, 0, 64, 40
2, 6688, Control_c, 0, 64, 0
2, 6704, Note_on_c, 0, 84, 0
2, 6720, Note_on_c, 0, 82, 69
2, 6724, Note_on_c, 0, 53, 48
2, 6756, Note_on_c, 0, 57, 47
2, 6756, Control_c, 0, 64, 56
2, 6764, Control_c, 0, 64, 104
2, 6776, Control_c, 0, 64, 127
2, 6788, Note_on_c, 0, 60, 51
2, 6820, Note_on_c, 0, 63, 50
2, 6824, Note_on_c, 0, 53, 0
2, 6824, Note_on_c, 0, 82, 0
2, 6836, Note_on_c, 0, 60, 0
2, 6840, Note_on_c, 0, 81, 78
2, 6856, Note_on_c, 0, 66, 70
2, 6908, Note_on_c, 0, 81, 0
2, 6932, Control_c, 0, 67, 0
2, 6936, Note_on_c, 0, 80, 71
2, 6948, Note_on_c, 0, 57, 0
2, 7004, Note_on_c, 0, 80, 0
2, 7024, Note_on_c, 0, 81, 66
2, 7088, Note_on_c, 0, 81, 0
2, 7124, Note_on_c, 0, 79, 64
2, 7168, Note_on_c, 0, 79, 0
2, 7204, Note_on_c, 0, 78, 63
2, 7264, Note_on_c, 0, 78, 0
2, 7296, Note_on_c, 0, 77, 64
2, 7348, Note_on_c, 0, 77, 0
2, 7380, Note_on_c, 0, 78, 57
2, 7404, Note_on_c, 0, 63, 0
2, 7444, Note_on_c, 0, 78, 0
2, 7468, Note_on_c, 0, 75, 54
2, 7528, Note_on_c, 0, 58, 43
2, 7572, Control_c, 0, 64, 88
2, 7580, Note_on_c, 0, 62, 50
2, 7584, Control_c, 0, 64, 56
2, 7588, Note_on_c, 0, 75, 0
2, 7592, Control_c, 0, 64, 40
2, 7600, Control_c, 0, 64, 0
2, 7608, Note_on_c, 0, 74, 57
2, 7680, Note_on_c, 0, 74, 0
2, 7684, Control_c, 0, 64, 40
2, 7692, Note_on_c, 0, 73, 57
2, 7696, Control_c, 0, 64, 72
2, 7704, Control_c, 0, 64, 104
2, 7712, Control_c, 0, 64, 127
2, 7756, Note_on_c, 0, 73, 0
2, 7788, Note_on_c, 0, 74, 64
2, 7828, Note_on_c, 0, 66, 0
2, 7840, Note_on_c, 0, 74, 0
2, 7876, Note_on_c, 0, 72, 70
2, 7936, Note_on_c, 0, 72, 0
2, 7968, Note_on_c, 0, 62, 0
2, 7972, Note_on_c, 0, 70, 52
2, 7972, Note_on_c, 0, 65, 59
2, 7972, Control_c, 0, 64, 104
2, 7980, Control_c, 0, 64, 56
2, 7992, Control_c, 0, 64, 24
2, 8000, Control_c, 0, 64, 0
2, 8040, Note_on_c, 0, 70, 0
2, 8048, Control_c, 0, 64, 24
2, 8056, Control_c, 0, 64, 56
2, 8064, Note_on_c, 0, 69, 65
2, 8068, Control_c, 0, 64, 88
2, 8084, Control_c, 0, 64, 104
2, 8096, Control_c, 0, 64, 127
2, 8124, Note_on_c, 0, 69, 0
2, 8148, Note_on_c, 0, 70, 51
2, 8220, Note_on_c, 0, 70, 0
2, 8248, Note_on_c, 0, 68, 48
2, 8308, Note_on_c, 0, 65, 0
2, 8320, Note_on_c, 0, 68, 0
2, 8348, Note_on_c, 0, 61, 51
2, 8348, Note_on_c, 0, 67, 55
2, 8356, Control_c, 0, 64, 104
2, 8360, Control_c, 0, 64, 72
2, 8368, Note_on_c, 0, 58, 0
2, 8372, Control_c, 0, 64, 24
2, 8380, Control_c, 0, 64, 0
2, 8412, Note_on_c, 0, 53, 1
2, 8420, Note_on_c, 0, 67, 0
2, 8440, Note_on_c, 0, 66, 49
2, 8456, Control_c, 0, 64, 40
2, 8464, Control_c, 0, 64, 56
2, 8476, Control_c, 0, 64, 72
2, 8484, Control_c, 0, 64, 88
2, 8508, Note_on_c, 0, 66, 0
2, 8524, Control_c, 0, 64, 104
2, 8540, Note_on_c, 0, 67, 51
2, 8584, Note_on_c, 0, 67, 0
2, 8624, Control_c, 0, 64, 127
2, 8628, Note_on_c, 0, 65, 52
2, 8684, Note_on_c, 0, 65, 0
2, 8728, Note_on_c, 0, 61, 0
2, 8728, Note_on_c, 0, 58, 36
2, 8732, Note_on_c, 0, 73, 62
2, 8744, Control_c, 0, 64, 104
2, 8756, Control_c, 0, 64, 72
2, 8764, Control_c, 0, 64, 40
2, 8772, Control_c, 0, 64, 0
2, 8820, Note_on_c, 0, 73, 0
2, 8828, Note_on_c, 0, 70, 62
2, 8856, Control_c, 0, 64, 56
2, 8864, Control_c, 0, 64, 88
2, 8876, Control_c, 0, 64, 127
2, 8900, Note_on_c, 0, 70, 0
2, 8924, Note_on_c, 0, 53, 0
2, 8928, Note_on_c, 0, 67, 60
2, 8948, Note_on_c, 0, 58, 0
2, 8988, Note_on_c, 0, 67, 0
2, 9016, Control_c, 0, 67, 127
2, 9024, Note_on_c, 0, 65, 52
2, 9076, Note_on_c, 0, 53, 35
2, 9088, Note_on_c, 0, 65, 0
2, 9112, Note_on_c, 0, 55, 39
2, 9116, Control_c, 0, 64, 104
2, 9124, Control_c, 0, 64, 88
2, 9144, Control_c, 0, 64, 56
2, 9152, Note_on_c, 0, 58, 33
2, 9156, Control_c, 0, 64, 40
2, 9164, Control_c, 0, 64, 24
2, 9172, Control_c, 0, 64, 0
2, 9188, Note_on_c, 0, 64, 62
2, 9196, Note_on_c, 0, 61, 36
2, 9360, Note_on_c, 0, 53, 0
2, 9380, Note_on_c, 0, 55, 0
2, 9384, Note_on_c, 0, 64, 0
2, 9400, Note_on_c, 0, 58, 0
2, 9408, Note_on_c, 0, 61, 0
2, 9664, Note_on_c, 0, 97, 77
2, 9684, Note_on_c, 0, 88, 46
2, 9704, Note_on_c, 0, 88, 0
2, 9724, Note_on_c, 0, 97, 0
2, 9768, Note_on_c, 0, 94, 62
2, 9828, Note_on_c, 0, 94, 0
2, 9868, Note_on_c, 0, 84, 57
2, 9872, Note_on_c, 0, 81, 51
2, 9872, Note_on_c, 0, 90, 51
2, 9884, Note_on_c, 0, 84, 0
2, 9888, Note_on_c, 0, 81, 0
2, 9920, Note_on_c, 0, 90, 0
2, 9952, Note_on_c, 0, 87, 63
2, 9992, Note_on_c, 0, 87, 0
2, 10060, Note_on_c, 0, 85, 54
2, 10064, Note_on_c, 0, 91, 75
2, 10064, Note_on_c, 0, 82, 48
2, 10080, Note_on_c, 0, 82, 0
2, 10080, Note_on_c, 0, 85, 0
2, 10100, Note_on_c, 0, 91, 0
2, 10148, Note_on_c, 0, 88, 65
2, 10192, Note_on_c, 0, 88, 0
2, 10244, Note_on_c, 0, 78, 60
2, 10248, Note_on_c, 0, 75, 55
2, 10252, Note_on_c, 0, 84, 59
2, 10268, Note_on_c, 0, 75, 0
2, 10268, Note_on_c, 0, 78, 0
2, 10284, Note_on_c, 0, 84, 0
2, 10340, Note_on_c, 0, 81, 50
2, 10376, Note_on_c, 0, 81, 0
2, 10420, Note_on_c, 0, 85, 65
2, 10428, Note_on_c, 0, 79, 49
2, 10432, Note_on_c, 0, 76, 47
2, 10452, Note_on_c, 0, 76, 0
2, 10452, Note_on_c, 0, 79, 0
2, 10476, Note_on_c, 0, 85, 0
2, 10508, Note_on_c, 0, 82, 57
2, 10560, Note_on_c, 0, 82, 0
2, 10612, Note_on_c, 0, 78, 57
2, 10612, Note_on_c, 0, 72, 60
2, 10628, Note_on_c, 0, 72, 0
2, 10664, Note_on_c, 0, 78, 0
2, 10700, Note_on_c, 0, 75, 50
2, 10720, Note_on_c, 0, 75, 0
2, 10804, Note_on_c, 0, 79, 64
2, 10804, Note_on_c, 0, 73, 49
2, 10808, Note_on_c, 0, 70, 49
2, 10824, Note_on_c, 0, 70, 0
2, 10832, Note_on_c, 0, 73, 0
2, 10832, Note_on_c, 0, 79, 0
2, 10892, Note_on_c, 0, 76, 67
2, 10940, Note_on_c, 0, 76, 0
2, 10980, Note_on_c, 0, 66, 52
2, 10984, Note_on_c, 0, 63, 44
2, 11000, Note_on_c, 0, 72, 60
2, 11008, Note_on_c, 0, 63, 0
2, 11008, Note_on_c, 0, 66, 0
2, 11024, Note_on_c, 0, 72, 0
2, 11084, Note_on_c, 0, 69, 42
2, 11136, Note_on_c, 0, 69, 0
2, 11172, Note_on_c, 0, 73, 56
2, 11172, Note_on_c, 0, 64, 59
2, 11176, Note_on_c, 0, 67, 48
2, 11196, Note_on_c, 0, 64, 0
2, 11200, Note_on_c, 0, 67, 0
2, 11228, Note_on_c, 0, 73, 0
2, 11268, Note_on_c, 0, 70, 51
2, 11324, Note_on_c, 0, 70, 0
2, 11364, Note_on_c, 0, 60, 51
2, 11368, Note_on_c, 0, 57, 44
2, 11372, Note_on_c, 0, 66, 57
2, 11400, Note_on_c, 0, 57, 0
2, 11404, Note_on_c, 0, 60, 0
2, 11428, Note_on_c, 0, 66, 0
2, 11452, Note_on_c, 0, 63, 55
2, 11492, Note_on_c, 0, 63, 0
2, 11572, Note_on_c, 0, 67, 54
2, 11588, Note_on_c, 0, 64, 48
2, 11588, Note_on_c, 0, 61, 34
2, 11588, Note_on_c, 0, 58, 31
2, 11648, Note_on_c, 0, 64, 0
2, 11648, Control_c, 0, 64, 56
2, 11660, Control_c, 0, 64, 88
2, 11664, Note_on_c, 0, 67, 0
2, 11668, Control_c, 0, 64, 127
2, 11676, Note_on_c, 0, 61, 0
2, 11680, Note_on_c, 0, 58, 0
2, 11956, Control_c, 0, 64, 88
2, 11964, Control_c, 0, 64, 40
2, 11972, Note_on_c, 0, 41, 59
2, 11972, Control_c, 0, 64, 0
2, 11992, Note_on_c, 0, 41, 0
2, 12000, Control_c, 0, 64, 40
2, 12012, Control_c, 0, 64, 88
2, 12020, Control_c, 0, 64, 127
2, 12184, Note_on_c, 0, 85, 70
2, 12200, Note_on_c, 0, 73, 29
2, 12208, Note_on_c, 0, 61, 28
2, 12208, Note_on_c, 0, 53, 32
2, 12208, Note_on_c, 0, 67, 20
2, 12208, Note_on_c, 0, 76, 40
2, 12232, Note_on_c, 0, 76, 0
2, 12240, Note_on_c, 0, 85, 0
2, 12244, Note_on_c, 0, 73, 0
2, 12252, Note_on_c, 0, 61, 0
2, 12256, Note_on_c, 0, 53, 0
2, 12264, Note_on_c, 0, 67, 0
2, 12372, Note_on_c, 0, 84, 87
2, 12380, Note_on_c, 0, 67, 44
2, 12384, Note_on_c, 0, 61, 40
2, 12384, Note_on_c, 0, 73, 36
2, 12384, Note_on_c, 0, 58, 28
2, 12392, Note_on_c, 0, 76, 48
2, 12416, Note_on_c, 0, 76, 0
2, 12420, Note_on_c, 0, 84, 0
2, 12424, Note_on_c, 0, 67, 0
2, 12428, Note_on_c, 0, 61, 0
2, 12432, Note_on_c, 0, 58, 0
2, 12444, Note_on_c, 0, 73, 0
2, 12560, Note_on_c, 0, 83, 87
2, 12564, Note_on_c, 0, 73, 48
2, 12564, Note_on_c, 0, 58, 28
2, 12568, Note_on_c, 0, 67, 34
2, 12568, Note_on_c, 0, 61, 41
2, 12604, Note_on_c, 0, 67, 0
2, 12608, Note_on_c, 0, 61, 0
2, 12612, Note_on_c, 0, 58, 0
2, 12616, Note_on_c, 0, 83, 0
2, 12620, Note_on_c, 0, 73, 0
2, 12756, Note_on_c, 0, 58, 28
2, 12760, Note_on_c, 0, 82, 58
2, 12760, Note_on_c, 0, 67, 41
2, 12760, Note_on_c, 0, 61, 43
2, 12760, Note_on_c, 0, 73, 39
2, 12772, Note_on_c, 0, 76, 49
2, 12792, Note_on_c, 0, 76, 0
2, 12800, Note_on_c, 0, 67, 0
2, 12800, Note_on_c, 0, 73, 0
2, 12804, Note_on_c, 0, 58, 0
2, 12804, Note_on_c, 0, 61, 0
2, 12820, Note_on_c, 0, 82, 0
2, 12944, Note_on_c, 0, 85, 73
2, 12956, Note_on_c, 0, 67, 48
2, 12956, Note_on_c, 0, 73, 32
2, 12960, Note_on_c, 0, 58, 28
2, 12960, Note_on_c, 0, 61, 39
2, 12960, Note_on_c, 0, 76, 56
2, 12984, Note_on_c, 0, 76, 0
2, 12992, Note_on_c, 0, 73, 0
2, 12996, Note_on_c, 0, 61, 0
2, 12996, Note_on_c, 0, 67, 0
2, 13000, Note_on_c, 0, 58, 0
2, 13008, Note_on_c, 0, 85, 0
2, 13132, Note_on_c, 0, 84, 75
2, 13136, Note_on_c, 0, 73, 41
2, 13144, Note_on_c, 0, 67, 46
2, 13148, Note_on_c, 0, 58, 28
2, 13148, Note_on_c, 0, 61, 35
2, 13188, Note_on_c, 0, 84, 0
2, 13200, Note_on_c, 0, 73, 0
2, 13220, Note_on_c, 0, 83, 78
2, 13280, Note_on_c, 0, 83, 0
2, 13312, Note_on_c, 0, 82, 60
2, 13368, Note_on_c, 0, 82, 0
2, 13380, Note_on_c, 0, 67, 0
2, 13388, Note_on_c, 0, 58, 0
2, 13392, Note_on_c, 0, 61, 0
2, 13572, Control_c, 0, 64, 88
2, 13580, Control_c, 0, 64, 56
2, 13592, Control_c, 0, 64, 24
2, 13600, Control_c, 0, 64, 0
2, 13732, Note_on_c, 0, 99, 63
2, 13740, Note_on_c, 0, 93, 63
2, 13744, Note_on_c, 0, 90, 48
2, 13760, Note_on_c, 0, 90, 0
2, 13760, Note_on_c, 0, 93, 0
2, 13776, Note_on_c, 0, 99, 0
2, 13836, Note_on_c, 0, 96, 59
2, 13860, Note_on_c, 0, 96, 0
2, 13924, Note_on_c, 0, 92, 62
2, 13932, Note_on_c, 0, 86, 48
2, 13936, Note_on_c, 0, 83, 39
2, 13956, Note_on_c, 0, 86, 0
2, 13964, Note_on_c, 0, 83, 0
2, 13972, Note_on_c, 0, 92, 0
2, 14024, Note_on_c, 0, 89, 54
2, 14048, Note_on_c, 0, 89, 0
2, 14116, Note_on_c, 0, 87, 50
2, 14124, Note_on_c, 0, 84, 65
2, 14124, Note_on_c, 0, 93, 62
2, 14140, Note_on_c, 0, 84, 0
2, 14152, Note_on_c, 0, 93, 0
2, 14152, Note_on_c, 0, 87, 0
2, 14208, Note_on_c, 0, 90, 55
2, 14264, Note_on_c, 0, 90, 0
2, 14308, Note_on_c, 0, 77, 54
2, 14312, Note_on_c, 0, 80, 42
2, 14312, Note_on_c, 0, 86, 54
2, 14332, Note_on_c, 0, 80, 0
2, 14332, Note_on_c, 0, 77, 0
2, 14340, Note_on_c, 0, 86, 0
2, 14408, Note_on_c, 0, 83, 37
2, 14440, Note_on_c, 0, 83, 0
2, 14488, Note_on_c, 0, 78, 62
2, 14500, Note_on_c, 0, 81, 46
2, 14504, Note_on_c, 0, 86, 47
2, 14516, Note_on_c, 0, 78, 0
2, 14520, Note_on_c, 0, 81, 0
2, 14524, Note_on_c, 0, 86, 0
2, 14584, Note_on_c, 0, 84, 63
2, 14628, Note_on_c, 0, 84, 0
2, 14680, Note_on_c, 0, 80, 64
2, 14680, Note_on_c, 0, 71, 37
2, 14680, Note_on_c, 0, 74, 48
2, 14708, Note_on_c, 0, 74, 0
2, 14708, Note_on_c, 0, 71, 0
2, 14732, Note_on_c, 0, 80, 0
2, 14784, Note_on_c, 0, 77, 43
2, 14808, Note_on_c, 0, 77, 0
2, 14860, Note_on_c, 0, 75, 57
2, 14864, Note_on_c, 0, 81, 70
2, 14868, Note_on_c, 0, 72, 60
2, 14884, Note_on_c, 0, 72, 0
2, 14900, Note_on_c, 0, 75, 0
2, 14904, Note_on_c, 0, 81, 0
2, 14952, Note_on_c, 0, 78, 59
2, 15000, Note_on_c, 0, 78, 0
2, 15048, Note_on_c, 0, 68, 48
2, 15052, Note_on_c, 0, 74, 66
2, 15052, Note_on_c, 0, 65, 46
2, 15080, Note_on_c, 0, 65, 0
2, 15092, Note_on_c, 0, 74, 0
2, 15092, Note_on_c, 0, 68, 0
2, 15144, Note_on_c, 0, 71, 47
2, 15188, Note_on_c, 0, 71, 0
2, 15224, Note_on_c, 0, 75, 62
2, 15232, Note_on_c, 0, 66, 54
2, 15240, Note_on_c, 0, 69, 55
2, 15260, Note_on_c, 0, 69, 0
2, 15260, Note_on_c, 0, 66, 0
2, 15284, Note_on_c, 0, 75, 0
2, 15324, Note_on_c, 0, 72, 66
2, 15368, Note_on_c, 0, 72, 0
2, 15424, Note_on_c, 0, 62, 58
2, 15424, Note_on_c, 0, 59, 48
2, 15432, Note_on_c, 0, 68, 48
2, 15456, Note_on_c, 0, 59, 0
2, 15464, Note_on_c, 0, 62, 0
2, 15480, Note_on_c, 0, 68, 0
2, 15516, Note_on_c, 0, 65, 46
2, 15548, Note_on_c, 0, 65, 0
2, 15624, Note_on_c, 0, 69, 46
2, 15632, Note_on_c, 0, 66, 40
2, 15636, Note_on_c, 0, 63, 29
2, 15652, Note_on_c, 0, 60, 31
2, 15684, Control_c, 0, 64, 24
2, 15692, Control_c, 0, 64, 56
2, 15700, Control_c, 0, 64, 88
2, 15712, Control_c, 0, 64, 104
2, 15720, Control_c, 0, 64, 127
2, 15744, Note_on_c, 0, 66, 0
2, 15760, Note_on_c, 0, 69, 0
2, 15776, Note_on_c, 0, 63, 0
2, 15776, Note_on_c, 0, 60, 0
2, 16020, Control_c, 0, 64, 104
2, 16028, Control_c, 0, 64, 56
2, 16036, Control_c, 0, 64, 0
2, 16048, Note_on_c, 0, 41, 62
2, 16084, Control_c, 0, 64, 40
2, 16092, Control_c, 0, 64, 104
2, 16100, Note_on_c, 0, 41, 0
2, 16100, Control_c, 0, 64, 127
2, 16260, Note_on_c, 0, 90, 81
2, 16272, Note_on_c, 0, 78, 42
2, 16280, Note_on_c, 0, 81, 42
2, 16280, Note_on_c, 0, 69, 44
2, 16284, Note_on_c, 0, 63, 26
2, 16304, Note_on_c, 0, 81, 0
2, 16304, Note_on_c, 0, 78, 0
2, 16308, Note_on_c, 0, 63, 0
2, 16308, Note_on_c, 0, 69, 0
2, 16320, Note_on_c, 0, 90, 0
2, 16464, Note_on_c, 0, 89, 77
2, 16468, Note_on_c, 0, 78, 39
2, 16468, Note_on_c, 0, 69, 55
2, 16472, Note_on_c, 0, 63, 32
2, 16472, Note_on_c, 0, 81, 43
2, 16484, Note_on_c, 0, 60, 28
2, 16496, Note_on_c, 0, 89, 0
2, 16500, Note_on_c, 0, 81, 0
2, 16500, Note_on_c, 0, 78, 0
2, 16500, Note_on_c, 0, 69, 0
2, 16504, Note_on_c, 0, 63, 0
2, 16508, Note_on_c, 0, 60, 0
2, 16648, Note_on_c, 0, 88, 81
2, 16660, Note_on_c, 0, 78, 42
2, 16660, Note_on_c, 0, 63, 39
2, 16664, Note_on_c, 0, 60, 46
2, 16668, Note_on_c, 0, 81, 48
2, 16668, Note_on_c, 0, 69, 40
2, 16688, Note_on_c, 0, 78, 0
2, 16692, Note_on_c, 0, 81, 0
2, 16696, Note_on_c, 0, 60, 0
2, 16696, Note_on_c, 0, 69, 0
2, 16700, Note_on_c, 0, 88, 0
2, 16704, Note_on_c, 0, 63, 0
2, 16832, Note_on_c, 0, 87, 71
2, 16840, Note_on_c, 0, 78, 37
2, 16844, Note_on_c, 0, 63, 35
2, 16848, Note_on_c, 0, 81, 44
2, 16848, Note_on_c, 0, 60, 39
2, 16852, Note_on_c, 0, 69, 36
2, 16868, Note_on_c, 0, 78, 0
2, 16872, Note_on_c, 0, 81, 0
2, 16880, Note_on_c, 0, 60, 0
2, 16880, Note_on_c, 0, 69, 0
2, 16884, Note_on_c, 0, 63, 0
2, 16892, Note_on_c, 0, 87, 0
2, 17012, Note_on_c, 0, 90, 77
2, 17028, Note_on_c, 0, 78, 39
2, 17028, Note_on_c, 0, 63, 36
2, 17032, Note_on_c, 0, 81, 52
2, 17032, Note_on_c, 0, 60, 46
2, 17032, Note_on_c, 0, 69, 47
2, 17056, Note_on_c, 0, 69, 0
2, 17056, Note_on_c, 0, 63, 0
2, 17056, Note_on_c, 0, 60, 0
2, 17060, Note_on_c, 0, 78, 0
2, 17060, Note_on_c, 0, 81, 0
2, 17084, Note_on_c, 0, 90, 0
2, 17192, Note_on_c, 0, 89, 71
2, 17192, Note_on_c, 0, 69, 37
2, 17196, Note_on_c, 0, 63, 28
2, 17200, Note_on_c, 0, 78, 28
2, 17200, Note_on_c, 0, 60, 27
2, 17256, Note_on_c, 0, 89, 0
2, 17280, Note_on_c, 0, 88, 72
2, 17292, Note_on_c, 0, 78, 0
2, 17352, Note_on_c, 0, 88, 0
2, 17360, Note_on_c, 0, 87, 67
2, 17400, Note_on_c, 0, 87, 0
2, 17420, Note_on_c, 0, 60, 0
2, 17428, Note_on_c, 0, 63, 0
2, 17428, Note_on_c, 0, 69, 0
2, 17716, Note_on_c, 0, 87, 73
2, 17732, Note_on_c, 0, 75, 37
2, 17732, Note_on_c, 0, 78, 49
2, 17740, Note_on_c, 0, 69, 41
2, 17744, Note_on_c, 0, 63, 26
2, 17760, Note_on_c, 0, 78, 0
2, 17764, Note_on_c, 0, 87, 0
2, 17764, Note_on_c, 0, 75, 0
2, 17768, Note_on_c, 0, 69, 0
2, 17772, Note_on_c, 0, 63, 0
2, 17908, Note_on_c, 0, 86, 72
2, 17920, Note_on_c, 0, 63, 36
2, 17920, Note_on_c, 0, 69, 43
2, 17920, Note_on_c, 0, 78, 36
2, 17924, Note_on_c, 0, 75, 23
2, 17924, Note_on_c, 0, 60, 35
2, 17936, Note_on_c, 0, 86, 0
2, 17944, Note_on_c, 0, 78, 0
2, 17948, Note_on_c, 0, 69, 0
2, 17948, Note_on_c, 0, 63, 0
2, 17948, Note_on_c, 0, 60, 0
2, 17952, Note_on_c, 0, 75, 0
2, 18084, Note_on_c, 0, 85, 58
2, 18088, Note_on_c, 0, 63, 39
2, 18088, Note_on_c, 0, 78, 40
2, 18088, Note_on_c, 0, 75, 28
2, 18092, Note_on_c, 0, 60, 44
2, 18092, Note_on_c, 0, 69, 47
2, 18112, Note_on_c, 0, 78, 0
2, 18116, Note_on_c, 0, 60, 0
2, 18116, Note_on_c, 0, 69, 0
2, 18120, Note_on_c, 0, 75, 0
2, 18124, Note_on_c, 0, 63, 0
2, 18128, Note_on_c, 0, 85, 0
2, 18264, Note_on_c, 0, 75, 35
2, 18268, Note_on_c, 0, 84, 57
2, 18268, Note_on_c, 0, 69, 48
2, 18268, Note_on_c, 0, 78, 46
2, 18268, Note_on_c, 0, 63, 36
2, 18272, Note_on_c, 0, 60, 41
2, 18296, Note_on_c, 0, 60, 0
2, 18296, Note_on_c, 0, 75, 0
2, 18296, Note_on_c, 0, 84, 0
2, 18300, Note_on_c, 0, 69, 0
2, 18304, Note_on_c, 0, 63, 0
2, 18312, Note_on_c, 0, 78, 0
2, 18428, Note_on_c, 0, 87, 71
2, 18440, Note_on_c, 0, 69, 57
2, 18440, Note_on_c, 0, 78, 44
2, 18444, Note_on_c, 0, 63, 37
2, 18444, Note_on_c, 0, 75, 28
2, 18444, Note_on_c, 0, 60, 46
2, 18468, Note_on_c, 0, 60, 0
2, 18468, Note_on_c, 0, 69, 0
2, 18472, Note_on_c, 0, 63, 0
2, 18480, Note_on_c, 0, 75, 0
2, 18480, Note_on_c, 0, 78, 0
2, 18484, Note_on_c, 0, 87, 0
2, 18608, Note_on_c, 0, 86, 69
2, 18608, Note_on_c, 0, 69, 35
2, 18612, Note_on_c, 0, 60, 31
2, 18612, Note_on_c, 0, 63, 26
2, 18616, Note_on_c, 0, 75, 25
2, 18628, Note_on_c, 0, 78, 29
2, 18660, Note_on_c, 0, 86, 0
2, 18676, Note_on_c, 0, 85, 69
2, 18748, Note_on_c, 0, 85, 0
2, 18764, Note_on_c, 0, 84, 69
2, 18796, Note_on_c, 0, 78, 0
2, 18804, Note_on_c, 0, 84, 0
2, 18808, Note_on_c, 0, 75, 0
2, 18836, Note_on_c, 0, 60, 0
2, 18844, Note_on_c, 0, 63, 0
2, 18848, Note_on_c, 0, 69, 0
2, 19120, Note_on_c, 0, 84, 66
2, 19132, Note_on_c, 0, 63, 40
2, 19132, Note_on_c, 0, 69, 48
2, 19132, Note_on_c, 0, 75, 44
2, 19136, Note_on_c, 0, 72, 35
2, 19144, Note_on_c, 0, 66, 29
2, 19160, Note_on_c, 0, 84, 0
2, 19164, Note_on_c, 0, 72, 0
2, 19164, Note_on_c, 0, 75, 0
2, 19164, Note_on_c, 0, 66, 0
2, 19168, Note_on_c, 0, 63, 0
2, 19168, Note_on_c, 0, 69, 0
2, 19308, Note_on_c, 0, 83, 49
2, 19312, Note_on_c, 0, 63, 28
2, 19316, Note_on_c, 0, 69, 32
2, 19316, Note_on_c, 0, 66, 25
2, 19332, Note_on_c, 0, 75, 26
2, 19332, Note_on_c, 0, 72, 13
2, 19364, Note_on_c, 0, 83, 0
2, 19396, Note_on_c, 0, 82, 54
2, 19472, Note_on_c, 0, 82, 0
2, 19484, Note_on_c, 0, 81, 52
2, 19508, Note_on_c, 0, 72, 0
2, 19508, Note_on_c, 0, 75, 0
2, 19528, Note_on_c, 0, 63, 0
2, 19532, Note_on_c, 0, 66, 0
2, 19532, Note_on_c, 0, 81, 0
2, 19532, Note_on_c, 0, 69, 0
2, 19832, Note_on_c, 0, 81, 58
2, 19840, Note_on_c, 0, 66, 42
2, 19840, Note_on_c, 0, 75, 48
2, 19848, Note_on_c, 0, 69, 40
2, 19852, Note_on_c, 0, 72, 35
2, 19876, Note_on_c, 0, 72, 0
2, 19876, Note_on_c, 0, 66, 0
2, 19876, Note_on_c, 0, 81, 0
2, 19876, Note_on_c, 0, 69, 0
2, 19880, Note_on_c, 0, 75, 0
2, 20004, Note_on_c, 0, 80, 52
2, 20008, Note_on_c, 0, 66, 37
2, 20008, Note_on_c, 0, 69, 50
2, 20016, Note_on_c, 0, 75, 28
2, 20016, Note_on_c, 0, 72, 35
2, 20048, Note_on_c, 0, 72, 0
2, 20048, Note_on_c, 0, 75, 0
2, 20064, Note_on_c, 0, 80, 0
2, 20088, Note_on_c, 0, 79, 70
2, 20144, Note_on_c, 0, 79, 0
2, 20172, Note_on_c, 0, 78, 69
2, 20224, Note_on_c, 0, 78, 0
2, 20252, Note_on_c, 0, 69, 0
2, 20256, Note_on_c, 0, 66, 0
2, 20552, Note_on_c, 0, 77, 60
2, 20556, Note_on_c, 0, 75, 56
2, 20560, Note_on_c, 0, 69, 49
2, 20576, Note_on_c, 0, 77, 0
2, 20580, Note_on_c, 0, 69, 0
2, 20584, Note_on_c, 0, 75, 0
2, 20728, Note_on_c, 0, 78, 62
2, 20740, Note_on_c, 0, 72, 59
2, 20740, Note_on_c, 0, 75, 39
2, 20752, Note_on_c, 0, 72, 0
2, 20768, Note_on_c, 0, 75, 0
2, 20768, Note_on_c, 0, 78, 0
2, 20908, Note_on_c, 0, 75, 46
2, 20912, Note_on_c, 0, 77, 63
2, 20916, Note_on_c, 0, 72, 41
2, 20920, Note_on_c, 0, 69, 39
2, 20936, Note_on_c, 0, 77, 0
2, 20936, Note_on_c, 0, 75, 0
2, 20940, Note_on_c, 0, 72, 0
2, 20940, Note_on_c, 0, 69, 0
2, 21092, Note_on_c, 0, 79, 65
2, 21096, Note_on_c, 0, 72, 57
2, 21096, Note_on_c, 0, 75, 32
2, 21112, Note_on_c, 0, 72, 0
2, 21112, Note_on_c, 0, 79, 0
2, 21116, Note_on_c, 0, 75, 0
2, 21256, Note_on_c, 0, 75, 57
2, 21256, Note_on_c, 0, 77, 71
2, 21264, Note_on_c, 0, 69, 50
2, 21284, Note_on_c, 0, 69, 0
2, 21288, Note_on_c, 0, 77, 0
2, 21288, Note_on_c, 0, 75, 0
2, 21428, Note_on_c, 0, 78, 63
2, 21436, Note_on_c, 0, 72, 51
2, 21448, Note_on_c, 0, 75, 26
2, 21452, Note_on_c, 0, 72, 0
2, 21468, Note_on_c, 0, 75, 0
2, 21472, Note_on_c, 0, 78, 0
2, 21608, Note_on_c, 0, 77, 63
2, 21608, Note_on_c, 0, 75, 41
2, 21612, Note_on_c, 0, 72, 44
2, 21616, Note_on_c, 0, 69, 42
2, 21636, Note_on_c, 0, 72, 0
2, 21640, Note_on_c, 0, 69, 0
2, 21648, Note_on_c, 0, 75, 0
2, 21648, Note_on_c, 0, 77, 0
2, 21796, Note_on_c, 0, 79, 52
2, 21828, Note_on_c, 0, 79, 0
2, 21908, Note_on_c, 0, 77, 65
2, 21968, Note_on_c, 0, 77, 0
2, 22004, Note_on_c, 0, 78, 63
2, 22044, Note_on_c, 0, 78, 0
2, 22116, Note_on_c, 0, 77, 69
2, 22164, Note_on_c, 0, 77, 0
2, 22212, Note_on_c, 0, 79, 56
2, 22236, Note_on_c, 0, 79, 0
2, 22304, Note_on_c, 0, 77, 69
2, 22352, Note_on_c, 0, 77, 0
2, 22408, Note_on_c, 0, 78, 57
2, 22456, Note_on_c, 0, 78, 0
2, 22512, Note_on_c, 0, 77, 62
2, 22568, Note_on_c, 0, 77, 0
2, 22612, Note_on_c, 0, 79, 60
2, 22644, Note_on_c, 0, 79, 0
2, 22716, Note_on_c, 0, 77, 64
2, 22760, Note_on_c, 0, 77, 0
2, 22792, Note_on_c, 0, 78, 54
2, 22836, Note_on_c, 0, 78, 0
2, 22876, Note_on_c, 0, 77, 56
2, 22916, Note_on_c, 0, 77, 0
2, 22944, Note_on_c, 0, 79, 62
2, 22988, Note_on_c, 0, 79, 0
2, 23028, Note_on_c, 0, 77, 51
2, 23080, Note_on_c, 0, 77, 0
2, 23104, Note_on_c, 0, 78, 57
2, 23152, Note_on_c, 0, 78, 0
2, 23188, Note_on_c, 0, 77, 58
2, 23236, Note_on_c, 0, 77, 0
2, 23256, Note_on_c, 0, 79, 64
2, 23308, Note_on_c, 0, 79, 0
2, 23340, Note_on_c, 0, 77, 59
2, 23388, Note_on_c, 0, 77, 0
2, 23416, Note_on_c, 0, 78, 51
2, 23464, Note_on_c, 0, 78, 0
2, 23492, Note_on_c, 0, 77, 65
2, 23548, Note_on_c, 0, 77, 0
2, 23568, Note_on_c, 0, 79, 60
2, 23620, Note_on_c, 0, 79, 0
2, 23652, Note_on_c, 0, 77, 62
2, 23704, Note_on_c, 0, 77, 0
2, 23720, Note_on_c, 0, 78, 58
2, 23772, Note_on_c, 0, 78, 0
2, 23800, Note_on_c, 0, 77, 56
2, 23852, Note_on_c, 0, 77, 0
2, 23876, Note_on_c, 0, 79, 63
2, 23924, Note_on_c, 0, 79, 0
2, 23960, Note_on_c, 0, 77, 55
2, 24012, Note_on_c, 0, 77, 0
2, 24036, Note_on_c, 0, 78, 56
2, 24088, Note_on_c, 0, 78, 0
2, 24120, Note_on_c, 0, 77, 58
2, 24164, Note_on_c, 0, 77, 0
2, 24196, Note_on_c, 0, 79, 47
2, 24244, Note_on_c, 0, 79, 0
2, 24284, Note_on_c, 0, 77, 34
2, 24328, Note_on_c, 0, 77, 0
2, 24352, Note_on_c, 0, 78, 50
2, 24404, Note_on_c, 0, 78, 0
2, 24440, Note_on_c, 0, 77, 62
2, 24508, Note_on_c, 0, 77, 0
2, 24528, Note_on_c, 0, 79, 59
2, 24548, Note_on_c, 0, 79, 0
2, 24640, Note_on_c, 0, 69, 51
2, 24644, Note_on_c, 0, 77, 59
2, 24648, Note_on_c, 0, 63, 32
2, 24648, Note_on_c, 0, 65, 41
2, 24692, Note_on_c, 0, 77, 0
2, 24696, Note_on_c, 0, 69, 0
2, 24724, Note_on_c, 0, 78, 58
2, 24736, Note_on_c, 0, 72, 46
2, 24764, Note_on_c, 0, 72, 0
2, 24768, Note_on_c, 0, 78, 0
2, 24812, Note_on_c, 0, 77, 71
2, 24812, Note_on_c, 0, 69, 41
2, 24852, Note_on_c, 0, 69, 0
2, 24872, Note_on_c, 0, 77, 0
2, 24888, Control_c, 0, 64, 24
2, 24896, Control_c, 0, 64, 40
2, 24908, Note_on_c, 0, 79, 63
2, 24908, Note_on_c, 0, 72, 52
2, 24908, Control_c, 0, 64, 56
2, 24916, Control_c, 0, 64, 72
2, 24936, Note_on_c, 0, 79, 0
2, 24944, Note_on_c, 0, 72, 0
2, 24972, Control_c, 0, 64, 40
2, 24976, Note_on_c, 0, 63, 0
2, 24984, Note_on_c, 0, 77, 66
2, 24984, Control_c, 0, 64, 0
2, 25000, Note_on_c, 0, 70, 39
2, 25000, Note_on_c, 0, 62, 39
2, 25032, Note_on_c, 0, 70, 0
2, 25048, Note_on_c, 0, 77, 0
2, 25064, Control_c, 0, 64, 24
2, 25072, Note_on_c, 0, 78, 48
2, 25072, Note_on_c, 0, 74, 40
2, 25076, Control_c, 0, 64, 40
2, 25084, Control_c, 0, 64, 56
2, 25092, Control_c, 0, 64, 72
2, 25104, Note_on_c, 0, 78, 0
2, 25120, Note_on_c, 0, 74, 0
2, 25132, Control_c, 0, 64, 88
2, 25148, Note_on_c, 0, 70, 37
2, 25156, Note_on_c, 0, 77, 66
2, 25160, Control_c, 0, 64, 104
2, 25184, Note_on_c, 0, 70, 0
2, 25184, Control_c, 0, 64, 127
2, 25192, Note_on_c, 0, 77, 0
2, 25240, Note_on_c, 0, 79, 60
2, 25240, Note_on_c, 0, 74, 40
2, 25248, Note_on_c, 0, 65, 0
2, 25264, Note_on_c, 0, 79, 0
2, 25276, Note_on_c, 0, 62, 0
2, 25288, Note_on_c, 0, 74, 0
2, 25296, Control_c, 0, 64, 104
2, 25308, Control_c, 0, 64, 72
2, 25316, Control_c, 0, 64, 24
2, 25320, Note_on_c, 0, 77, 75
2, 25324, Note_on_c, 0, 69, 48
2, 25324, Control_c, 0, 64, 0
2, 25328, Note_on_c, 0, 65, 27
2, 25348, Note_on_c, 0, 60, 32
2, 25368, Note_on_c, 0, 69, 0
2, 25372, Note_on_c, 0, 77, 0
2, 25384, Control_c, 0, 64, 24
2, 25392, Control_c, 0, 64, 56
2, 25400, Control_c, 0, 64, 72
2, 25404, Note_on_c, 0, 78, 49
2, 25408, Control_c, 0, 64, 88
2, 25412, Note_on_c, 0, 75, 50
2, 25420, Control_c, 0, 64, 104
2, 25440, Note_on_c, 0, 75, 0
2, 25444, Note_on_c, 0, 78, 0
2, 25448, Control_c, 0, 64, 127
2, 25496, Note_on_c, 0, 69, 41
2, 25500, Note_on_c, 0, 77, 52
2, 25528, Note_on_c, 0, 69, 0
2, 25544, Note_on_c, 0, 77, 0
2, 25576, Note_on_c, 0, 79, 49
2, 25576, Note_on_c, 0, 75, 40
2, 25596, Note_on_c, 0, 79, 0
2, 25596, Note_on_c, 0, 65, 0
2, 25604, Note_on_c, 0, 60, 0
2, 25624, Note_on_c, 0, 75, 0
2, 25644, Control_c, 0, 64, 88
2, 25652, Control_c, 0, 64, 40
2, 25660, Control_c, 0, 64, 0
2, 25664, Note_on_c, 0, 65, 36
2, 25668, Note_on_c, 0, 77, 73
2, 25676, Note_on_c, 0, 70, 34
2, 25680, Note_on_c, 0, 58, 28
2, 25716, Control_c, 0, 64, 40
2, 25720, Note_on_c, 0, 77, 0
2, 25724, Note_on_c, 0, 70, 0
2, 25724, Control_c, 0, 64, 56
2, 25736, Control_c, 0, 64, 88
2, 25752, Note_on_c, 0, 78, 70
2, 25752, Note_on_c, 0, 74, 40
2, 25756, Control_c, 0, 64, 104
2, 25760, Control_c, 0, 64, 127
2, 25796, Note_on_c, 0, 78, 0
2, 25800, Note_on_c, 0, 74, 0
2, 25836, Note_on_c, 0, 78, 70
2, 25848, Note_on_c, 0, 70, 46
2, 25880, Note_on_c, 0, 70, 0
2, 25900, Note_on_c, 0, 78, 0
2, 25924, Note_on_c, 0, 65, 0
2, 25928, Note_on_c, 0, 58, 0
2, 25928, Note_on_c, 0, 79, 72
2, 25928, Note_on_c, 0, 74, 40
2, 25952, Note_on_c, 0, 79, 0
2, 25976, Note_on_c, 0, 74, 0
2, 26004, Control_c, 0, 64, 104
2, 26008, Note_on_c, 0, 80, 78
2, 26012, Note_on_c, 0, 74, 64
2, 26016, Control_c, 0, 64, 72
2, 26020, Note_on_c, 0, 62, 52
2, 26024, Note_on_c, 0, 65, 48
2, 26024, Control_c, 0, 64, 24
2, 26032, Control_c, 0, 64, 0
2, 26040, Note_on_c, 0, 74, 0
2, 26060, Note_on_c, 0, 80, 0
2, 26060, Control_c, 0, 64, 24
2, 26068, Control_c, 0, 64, 40
2, 26080, Control_c, 0, 64, 72
2, 26088, Control_c, 0, 64, 104
2, 26092, Note_on_c, 0, 81, 75
2, 26092, Note_on_c, 0, 77, 40
2, 26096, Control_c, 0, 64, 127
2, 26132, Note_on_c, 0, 81, 0
2, 26140, Note_on_c, 0, 77, 0
2, 26172, Note_on_c, 0, 81, 71
2, 26184, Note_on_c, 0, 74, 37
2, 26212, Note_on_c, 0, 74, 0
2, 26220, Note_on_c, 0, 81, 0
2, 26224, Note_on_c, 0, 62, 0
2, 26252, Note_on_c, 0, 65, 0
2, 26260, Note_on_c, 0, 82, 74
2, 26268, Note_on_c, 0, 77, 44
2, 26296, Note_on_c, 0, 77, 0
2, 26300, Note_on_c, 0, 82, 0
2, 26352, Note_on_c, 0, 82, 81
2, 26356, Control_c, 0, 64, 88
2, 26368, Note_on_c, 0, 72, 66
2, 26368, Note_on_c, 0, 63, 39
2, 26368, Control_c, 0, 64, 40
2, 26372, Note_on_c, 0, 53, 40
2, 26372, Note_on_c, 0, 65, 27
2, 26376, Control_c, 0, 64, 0
2, 26400, Note_on_c, 0, 72, 0
2, 26412, Note_on_c, 0, 82, 0
2, 26424, Control_c, 0, 64, 40
2, 26432, Control_c, 0, 64, 88
2, 26440, Note_on_c, 0, 81, 69
2, 26440, Note_on_c, 0, 75, 40
2, 26444, Control_c, 0, 64, 127
2, 26460, Note_on_c, 0, 75, 33
2, 26480, Note_on_c, 0, 75, 0
2, 26484, Note_on_c, 0, 81, 0
2, 26488, Note_on_c, 0, 75, 0
2, 26516, Note_on_c, 0, 81, 73
2, 26532, Note_on_c, 0, 53, 0
2, 26532, Note_on_c, 0, 72, 62
2, 26548, Note_on_c, 0, 65, 0
2, 26552, Note_on_c, 0, 72, 0
2, 26552, Note_on_c, 0, 63, 0
2, 26560, Note_on_c, 0, 81, 0
2, 26608, Note_on_c, 0, 80, 80
2, 26612, Note_on_c, 0, 75, 56
2, 26632, Note_on_c, 0, 75, 0
2, 26652, Note_on_c, 0, 80, 0
2, 26696, Note_on_c, 0, 80, 74
2, 26700, Control_c, 0, 64, 104
2, 26704, Note_on_c, 0, 72, 66
2, 26712, Note_on_c, 0, 65, 35
2, 26712, Control_c, 0, 64, 56
2, 26716, Note_on_c, 0, 63, 28
2, 26720, Note_on_c, 0, 57, 33
2, 26720, Control_c, 0, 64, 0
2, 26752, Note_on_c, 0, 72, 0
2, 26768, Note_on_c, 0, 80, 0
2, 26784, Control_c, 0, 64, 24
2, 26788, Note_on_c, 0, 79, 78
2, 26796, Control_c, 0, 64, 56
2, 26804, Control_c, 0, 64, 72
2, 26816, Note_on_c, 0, 75, 25
2, 26816, Control_c, 0, 64, 88
2, 26824, Control_c, 0, 64, 104
2, 26828, Note_on_c, 0, 79, 0
2, 26832, Note_on_c, 0, 75, 0
2, 26860, Control_c, 0, 64, 127
2, 26868, Note_on_c, 0, 79, 70
2, 26888, Note_on_c, 0, 72, 56
2, 26912, Note_on_c, 0, 72, 0
2, 26916, Note_on_c, 0, 79, 0
2, 26944, Note_on_c, 0, 63, 0
2, 26956, Note_on_c, 0, 78, 72
2, 26968, Note_on_c, 0, 75, 39
2, 26988, Note_on_c, 0, 57, 0
2, 26996, Note_on_c, 0, 75, 0
2, 27008, Note_on_c, 0, 78, 0
2, 27028, Control_c, 0, 64, 104
2, 27036, Control_c, 0, 64, 88
2, 27048, Control_c, 0, 64, 72
2, 27052, Note_on_c, 0, 77, 75
2, 27052, Note_on_c, 0, 70, 49
2, 27056, Note_on_c, 0, 62, 39
2, 27056, Note_on_c, 0, 58, 29
2, 27056, Control_c, 0, 64, 40
2, 27064, Control_c, 0, 64, 0
2, 27104, Note_on_c, 0, 77, 0
2, 27108, Note_on_c, 0, 70, 0
2, 27128, Note_on_c, 0, 78, 69
2, 27128, Note_on_c, 0, 74, 40
2, 27140, Control_c, 0, 64, 24
2, 27148, Control_c, 0, 64, 40
2, 27156, Control_c, 0, 64, 72
2, 27168, Control_c, 0, 64, 88
2, 27176, Note_on_c, 0, 74, 0
2, 27184, Note_on_c, 0, 78, 0
2, 27204, Control_c, 0, 64, 104
2, 27220, Note_on_c, 0, 70, 34
2, 27228, Note_on_c, 0, 77, 71
2, 27260, Note_on_c, 0, 70, 0
2, 27268, Note_on_c, 0, 62, 0
2, 27268, Note_on_c, 0, 77, 0
2, 27292, Note_on_c, 0, 65, 0
2, 27296, Note_on_c, 0, 58, 0
2, 27296, Control_c, 0, 64, 127
2, 27312, Note_on_c, 0, 79, 70
2, 27312, Note_on_c, 0, 74, 40
2, 27344, Note_on_c, 0, 79, 0
2, 27360, Note_on_c, 0, 74, 0
2, 27380, Control_c, 0, 64, 88
2, 27388, Control_c, 0, 64, 56
2, 27396, Note_on_c, 0, 77, 74
2, 27396, Note_on_c, 0, 63, 42
2, 27400, Note_on_c, 0, 65, 46
2, 27400, Control_c, 0, 64, 0
2, 27404, Note_on_c, 0, 69, 58
2, 27448, Note_on_c, 0, 77, 0
2, 27452, Note_on_c, 0, 69, 0
2, 27464, Control_c, 0, 64, 40
2, 27476, Control_c, 0, 64, 72
2, 27480, Note_on_c, 0, 78, 63
2, 27484, Control_c, 0, 64, 104
2, 27488, Note_on_c, 0, 72, 58
2, 27492, Control_c, 0, 64, 127
2, 27512, Note_on_c, 0, 72, 0
2, 27520, Note_on_c, 0, 78, 0
2, 27572, Note_on_c, 0, 77, 72
2, 27572, Note_on_c, 0, 69, 47
2, 27600, Note_on_c, 0, 69, 0
2, 27616, Note_on_c, 0, 77, 0
2, 27652, Note_on_c, 0, 79, 69
2, 27652, Note_on_c, 0, 72, 44
2, 27684, Note_on_c, 0, 79, 0
2, 27700, Note_on_c, 0, 72, 0
2, 27724, Control_c, 0, 64, 88
2, 27736, Note_on_c, 0, 63, 0
2, 27736, Control_c, 0, 64, 40
2, 27744, Note_on_c, 0, 77, 71
2, 27744, Note_on_c, 0, 62, 47
2, 27744, Control_c, 0, 64, 0
2, 27748, Note_on_c, 0, 70, 39
2, 27792, Note_on_c, 0, 70, 0
2, 27796, Note_on_c, 0, 77, 0
2, 27808, Control_c, 0, 64, 40
2, 27816, Control_c, 0, 64, 72
2, 27824, Note_on_c, 0, 78, 55
2, 27828, Control_c, 0, 64, 104
2, 27836, Note_on_c, 0, 74, 50
2, 27836, Control_c, 0, 64, 127
2, 27860, Note_on_c, 0, 74, 0
2, 27868, Note_on_c, 0, 78, 0
2, 27912, Note_on_c, 0, 77, 75
2, 27916, Note_on_c, 0, 70, 32
2, 27948, Note_on_c, 0, 70, 0
2, 27960, Note_on_c, 0, 77, 0
2, 27984, Note_on_c, 0, 65, 0
2, 27992, Note_on_c, 0, 79, 67
2, 27992, Note_on_c, 0, 74, 44
2, 28012, Note_on_c, 0, 62, 0
2, 28024, Note_on_c, 0, 79, 0
2, 28040, Note_on_c, 0, 74, 0
2, 28076, Control_c, 0, 64, 88
2, 28080, Note_on_c, 0, 77, 73
2, 28084, Note_on_c, 0, 69, 49
2, 28084, Note_on_c, 0, 65, 43
2, 28088, Note_on_c, 0, 60, 48
2, 28088, Control_c, 0, 64, 56
2, 28096, Control_c, 0, 64, 0
2, 28136, Note_on_c, 0, 69, 0
2, 28136, Note_on_c, 0, 77, 0
2, 28152, Control_c, 0, 64, 24
2, 28160, Control_c, 0, 64, 72
2, 28172, Note_on_c, 0, 78, 59
2, 28172, Note_on_c, 0, 75, 49
2, 28172, Control_c, 0, 64, 104
2, 28180, Control_c, 0, 64, 127
2, 28212, Note_on_c, 0, 78, 0
2, 28216, Note_on_c, 0, 75, 0
2, 28260, Note_on_c, 0, 77, 79
2, 28264, Note_on_c, 0, 69, 55
2, 28300, Note_on_c, 0, 69, 0
2, 28324, Note_on_c, 0, 77, 0
2, 28344, Note_on_c, 0, 79, 74
2, 28344, Note_on_c, 0, 75, 44
2, 28368, Note_on_c, 0, 60, 0
2, 28372, Note_on_c, 0, 65, 0
2, 28372, Note_on_c, 0, 79, 0
2, 28392, Note_on_c, 0, 75, 0
2, 28420, Control_c, 0, 64, 104
2, 28432, Note_on_c, 0, 77, 65
2, 28432, Control_c, 0, 64, 72
2, 28436, Note_on_c, 0, 70, 52
2, 28440, Note_on_c, 0, 65, 37
2, 28440, Control_c, 0, 64, 40
2, 28444, Note_on_c, 0, 58, 44
2, 28448, Control_c, 0, 64, 0
2, 28480, Note_on_c, 0, 70, 0
2, 28484, Note_on_c, 0, 77, 0
2, 28500, Control_c, 0, 64, 24
2, 28504, Control_c, 0, 64, 40
2, 28512, Control_c, 0, 64, 56
2, 28520, Control_c, 0, 64, 88
2, 28532, Note_on_c, 0, 78, 77
2, 28532, Note_on_c, 0, 74, 44
2, 28532, Control_c, 0, 64, 104
2, 28540, Control_c, 0, 64, 127
2, 28580, Note_on_c, 0, 74, 0
2, 28580, Note_on_c, 0, 78, 0
2, 28628, Note_on_c, 0, 58, 0
2, 28628, Note_on_c, 0, 78, 71
2, 28632, Note_on_c, 0, 70, 51
2, 28636, Note_on_c, 0, 65, 0
2, 28672, Note_on_c, 0, 70, 0
2, 28688, Note_on_c, 0, 78, 0
2, 28708, Note_on_c, 0, 79, 82
2, 28708, Note_on_c, 0, 74, 44
2, 28744, Note_on_c, 0, 79, 0
2, 28756, Note_on_c, 0, 74, 0
2, 28772, Control_c, 0, 64, 104
2, 28784, Control_c, 0, 64, 56
2, 28792, Control_c, 0, 64, 24
2, 28796, Note_on_c, 0, 62, 41
2, 28800, Note_on_c, 0, 80, 70
2, 28804, Note_on_c, 0, 74, 49
2, 28804, Note_on_c, 0, 65, 34
2, 28804, Control_c, 0, 64, 0
2, 28808, Note_on_c, 0, 53, 34
2, 28828, Note_on_c, 0, 74, 0
2, 28844, Note_on_c, 0, 80, 0
2, 28844, Control_c, 0, 64, 24
2, 28852, Control_c, 0, 64, 56
2, 28864, Control_c, 0, 64, 88
2, 28876, Note_on_c, 0, 81, 73
2, 28876, Note_on_c, 0, 77, 44
2, 28876, Control_c, 0, 64, 127
2, 28916, Note_on_c, 0, 81, 0
2, 28924, Note_on_c, 0, 77, 0
2, 28964, Note_on_c, 0, 81, 72
2, 28972, Note_on_c, 0, 74, 44
2, 28992, Note_on_c, 0, 62, 0
2, 29000, Note_on_c, 0, 74, 0
2, 29004, Note_on_c, 0, 81, 0
2, 29024, Note_on_c, 0, 53, 0
2, 29036, Note_on_c, 0, 65, 0
2, 29052, Note_on_c, 0, 82, 81
2, 29052, Note_on_c, 0, 77, 44
2, 29096, Note_on_c, 0, 82, 0
2, 29100, Note_on_c, 0, 77, 0
2, 29116, Control_c, 0, 64, 104
2, 29128, Control_c, 0, 64, 56
2, 29136, Control_c, 0, 64, 0
2, 29144, Note_on_c, 0, 82, 73
2, 29148, Note_on_c, 0, 53, 52
2, 29152, Note_on_c, 0, 63, 37
2, 29152, Note_on_c, 0, 65, 39
2, 29156, Note_on_c, 0, 72, 67
2, 29180, Note_on_c, 0, 72, 0
2, 29188, Control_c, 0, 64, 40
2, 29196, Note_on_c, 0, 82, 0
2, 29196, Control_c, 0, 64, 72
2, 29204, Control_c, 0, 64, 104
2, 29216, Control_c, 0, 64, 127
2, 29228, Note_on_c, 0, 81, 70
2, 29228, Note_on_c, 0, 75, 44
2, 29272, Note_on_c, 0, 81, 0
2, 29276, Note_on_c, 0, 75, 0
2, 29316, Note_on_c, 0, 81, 66
2, 29316, Note_on_c, 0, 72, 60
2, 29336, Note_on_c, 0, 72, 0
2, 29344, Note_on_c, 0, 53, 0
2, 29360, Note_on_c, 0, 81, 0
2, 29388, Note_on_c, 0, 63, 0
2, 29404, Note_on_c, 0, 80, 77
2, 29408, Note_on_c, 0, 65, 0
2, 29420, Note_on_c, 0, 75, 36
2, 29436, Note_on_c, 0, 75, 0
2, 29444, Note_on_c, 0, 80, 0
2, 29488, Control_c, 0, 64, 88
2, 29496, Note_on_c, 0, 80, 71
2, 29496, Control_c, 0, 64, 40
2, 29500, Note_on_c, 0, 65, 41
2, 29508, Note_on_c, 0, 63, 35
2, 29508, Note_on_c, 0, 72, 59
2, 29508, Control_c, 0, 64, 0
2, 29512, Note_on_c, 0, 57, 39
2, 29536, Note_on_c, 0, 72, 0
2, 29552, Note_on_c, 0, 80, 0
2, 29560, Control_c, 0, 64, 40
2, 29568, Control_c, 0, 64, 88
2, 29580, Control_c, 0, 64, 127
2, 29592, Note_on_c, 0, 79, 83
2, 29592, Note_on_c, 0, 75, 44
2, 29628, Note_on_c, 0, 79, 0
2, 29640, Note_on_c, 0, 75, 0
2, 29672, Note_on_c, 0, 79, 66
2, 29684, Note_on_c, 0, 72, 59
2, 29712, Note_on_c, 0, 72, 0
2, 29712, Note_on_c, 0, 63, 0
2, 29720, Note_on_c, 0, 79, 0
2, 29752, Note_on_c, 0, 78, 71
2, 29768, Note_on_c, 0, 75, 49
2, 29788, Note_on_c, 0, 57, 0
2, 29808, Note_on_c, 0, 78, 0
2, 29816, Note_on_c, 0, 75, 0
2, 29840, Control_c, 0, 64, 88
2, 29852, Note_on_c, 0, 77, 75
2, 29852, Note_on_c, 0, 74, 44
2, 29852, Control_c, 0, 64, 40
2, 29860, Control_c, 0, 64, 0
2, 29864, Note_on_c, 0, 62, 39
2, 29868, Note_on_c, 0, 58, 31
2, 29900, Note_on_c, 0, 74, 0
2, 29908, Note_on_c, 0, 77, 0
2, 29920, Control_c, 0, 64, 24
2, 29932, Note_on_c, 0, 78, 52
2, 29932, Control_c, 0, 64, 72
2, 29940, Control_c, 0, 64, 104
2, 29948, Note_on_c, 0, 70, 48
2, 29952, Control_c, 0, 64, 127
2, 29992, Note_on_c, 0, 70, 0
2, 30004, Note_on_c, 0, 78, 0
2, 30012, Note_on_c, 0, 62, 0
2, 30024, Note_on_c, 0, 58, 0
2, 30040, Note_on_c, 0, 65, 0
2, 30040, Note_on_c, 0, 77, 65
2, 30040, Note_on_c, 0, 74, 44
2, 30088, Note_on_c, 0, 74, 0
2, 30100, Note_on_c, 0, 77, 0
2, 30116, Note_on_c, 0, 81, 70
2, 30144, Note_on_c, 0, 81, 0
2, 30212, Note_on_c, 0, 82, 74
2, 30212, Control_c, 0, 64, 72
2, 30224, Note_on_c, 0, 74, 51
2, 30224, Note_on_c, 0, 70, 29
2, 30224, Control_c, 0, 64, 40
2, 30228, Note_on_c, 0, 68, 35
2, 30232, Control_c, 0, 64, 0
2, 30248, Note_on_c, 0, 74, 0
2, 30260, Note_on_c, 0, 82, 0
2, 30284, Control_c, 0, 64, 24
2, 30296, Control_c, 0, 64, 72
2, 30300, Note_on_c, 0, 83, 73
2, 30300, Note_on_c, 0, 77, 44
2, 30304, Control_c, 0, 64, 104
2, 30316, Control_c, 0, 64, 127
2, 30336, Note_on_c, 0, 83, 0
2, 30348, Note_on_c, 0, 77, 0
2, 30384, Note_on_c, 0, 82, 69
2, 30396, Note_on_c, 0, 74, 43
2, 30428, Note_on_c, 0, 74, 0
2, 30452, Note_on_c, 0, 82, 0
2, 30472, Note_on_c, 0, 83, 72
2, 30472, Note_on_c, 0, 77, 44
2, 30508, Note_on_c, 0, 83, 0
2, 30520, Note_on_c, 0, 77, 0
2, 30556, Control_c, 0, 64, 104
2, 30564, Note_on_c, 0, 82, 67
2, 30568, Note_on_c, 0, 68, 0
2, 30568, Control_c, 0, 64, 56
2, 30576, Note_on_c, 0, 75, 42
2, 30576, Control_c, 0, 64, 24
2, 30584, Control_c, 0, 64, 0
2, 30588, Note_on_c, 0, 66, 32
2, 30620, Note_on_c, 0, 75, 0
2, 30648, Note_on_c, 0, 82, 0
2, 30648, Control_c, 0, 64, 56
2, 30656, Control_c, 0, 64, 88
2, 30660, Note_on_c, 0, 83, 71
2, 30668, Control_c, 0, 64, 127
2, 30676, Note_on_c, 0, 78, 28
2, 30692, Note_on_c, 0, 83, 0
2, 30700, Note_on_c, 0, 78, 0
2, 30744, Note_on_c, 0, 82, 63
2, 30744, Note_on_c, 0, 75, 46
2, 30800, Note_on_c, 0, 75, 0
2, 30804, Note_on_c, 0, 82, 0
2, 30828, Note_on_c, 0, 83, 66
2, 30828, Note_on_c, 0, 78, 44
2, 30848, Note_on_c, 0, 70, 0
2, 30864, Note_on_c, 0, 83, 0
2, 30876, Note_on_c, 0, 78, 0
2, 30896, Note_on_c, 0, 66, 0
2, 30908, Control_c, 0, 64, 104
2, 30916, Note_on_c, 0, 82, 64
2, 30916, Control_c, 0, 64, 72
2, 30924, Note_on_c, 0, 70, 36
2, 30928, Control_c, 0, 64, 24
2, 30932, Note_on_c, 0, 74, 42
2, 30932, Note_on_c, 0, 65, 41
2, 30936, Control_c, 0, 64, 0
2, 30956, Note_on_c, 0, 74, 0
2, 30968, Control_c, 0, 64, 24
2, 30980, Control_c, 0, 64, 56
2, 30988, Note_on_c, 0, 82, 0
2, 30988, Control_c, 0, 64, 104
2, 31000, Control_c, 0, 64, 127
2, 31020, Note_on_c, 0, 80, 39
2, 31024, Note_on_c, 0, 83, 60
2, 31056, Note_on_c, 0, 83, 0
2, 31060, Note_on_c, 0, 80, 0
2, 31100, Note_on_c, 0, 82, 66
2, 31112, Note_on_c, 0, 74, 47
2, 31144, Note_on_c, 0, 74, 0
2, 31164, Note_on_c, 0, 82, 0
2, 31184, Note_on_c, 0, 83, 73
2, 31184, Note_on_c, 0, 80, 44
2, 31216, Note_on_c, 0, 70, 0
2, 31220, Note_on_c, 0, 83, 0
2, 31228, Note_on_c, 0, 65, 0
2, 31232, Note_on_c, 0, 80, 0
2, 31252, Control_c, 0, 64, 104
2, 31260, Control_c, 0, 64, 56
2, 31268, Note_on_c, 0, 82, 79
2, 31272, Note_on_c, 0, 75, 63
2, 31272, Note_on_c, 0, 70, 34
2, 31272, Control_c, 0, 64, 24
2, 31276, Note_on_c, 0, 63, 42
2, 31280, Control_c, 0, 64, 0
2, 31300, Control_c, 0, 64, 40
2, 31312, Control_c, 0, 64, 72
2, 31320, Control_c, 0, 64, 104
2, 31324, Note_on_c, 0, 75, 0
2, 31332, Control_c, 0, 64, 127
2, 31336, Note_on_c, 0, 82, 0
2, 31360, Note_on_c, 0, 83, 74
2, 31376, Note_on_c, 0, 78, 46
2, 31396, Note_on_c, 0, 78, 0
2, 31404, Note_on_c, 0, 83, 0
2, 31448, Note_on_c, 0, 83, 78
2, 31452, Note_on_c, 0, 75, 65
2, 31492, Note_on_c, 0, 75, 0
2, 31508, Note_on_c, 0, 83, 0
2, 31516, Note_on_c, 0, 63, 0
2, 31536, Note_on_c, 0, 84, 82
2, 31536, Note_on_c, 0, 78, 44
2, 31548, Note_on_c, 0, 70, 0
2, 31576, Note_on_c, 0, 84, 0
2, 31584, Note_on_c, 0, 78, 0
2, 31612, Control_c, 0, 64, 104
2, 31624, Note_on_c, 0, 85, 83
2, 31624, Control_c, 0, 64, 56
2, 31628, Note_on_c, 0, 78, 60
2, 31632, Control_c, 0, 64, 0
2, 31636, Note_on_c, 0, 58, 42
2, 31644, Note_on_c, 0, 70, 31
2, 31648, Note_on_c, 0, 66, 29
2, 31672, Note_on_c, 0, 78, 0
2, 31676, Control_c, 0, 64, 56
2, 31680, Note_on_c, 0, 85, 0
2, 31684, Control_c, 0, 64, 104
2, 31696, Control_c, 0, 64, 127
2, 31716, Note_on_c, 0, 86, 75
2, 31716, Note_on_c, 0, 82, 44
2, 31760, Note_on_c, 0, 86, 0
2, 31764, Note_on_c, 0, 82, 0
2, 31800, Note_on_c, 0, 86, 89
2, 31800, Note_on_c, 0, 78, 65
2, 31840, Note_on_c, 0, 78, 0
2, 31852, Note_on_c, 0, 86, 0
2, 31864, Note_on_c, 0, 66, 0
2, 31864, Note_on_c, 0, 58, 0
2, 31880, Note_on_c, 0, 70, 0
2, 31888, Note_on_c, 0, 87, 70
2, 31888, Note_on_c, 0, 82, 44
2, 31928, Note_on_c, 0, 87, 0
2, 31936, Note_on_c, 0, 82, 0
2, 31980, Note_on_c, 0, 87, 85
2, 31984, Control_c, 0, 64, 104
2, 31996, Note_on_c, 0, 77, 67
2, 31996, Note_on_c, 0, 58, 34
2, 31996, Note_on_c, 0, 70, 25
2, 31996, Control_c, 0, 64, 56
2, 32004, Note_on_c, 0, 68, 37
2, 32008, Control_c, 0, 64, 0
2, 32020, Note_on_c, 0, 77, 0
2, 32040, Note_on_c, 0, 87, 0
2, 32068, Note_on_c, 0, 86, 79
2, 32068, Note_on_c, 0, 80, 44
2, 32076, Control_c, 0, 64, 24
2, 32088, Control_c, 0, 64, 56
2, 32096, Control_c, 0, 64, 88
2, 32112, Note_on_c, 0, 86, 0
2, 32116, Note_on_c, 0, 80, 0
2, 32120, Control_c, 0, 64, 104
2, 32148, Control_c, 0, 64, 127
2, 32156, Note_on_c, 0, 86, 77
2, 32172, Note_on_c, 0, 77, 52
2, 32196, Note_on_c, 0, 77, 0
2, 32196, Note_on_c, 0, 86, 0
2, 32216, Note_on_c, 0, 68, 0
2, 32220, Note_on_c, 0, 70, 0
2, 32228, Note_on_c, 0, 58, 0
2, 32244, Note_on_c, 0, 85, 77
2, 32252, Note_on_c, 0, 80, 43
2, 32272, Note_on_c, 0, 80, 0
2, 32288, Note_on_c, 0, 85, 0
2, 32316, Control_c, 0, 64, 104
2, 32328, Control_c, 0, 64, 72
2, 32336, Note_on_c, 0, 85, 73
2, 32340, Control_c, 0, 64, 40
2, 32344, Note_on_c, 0, 77, 57
2, 32348, Note_on_c, 0, 70, 36
2, 32348, Control_c, 0, 64, 0
2, 32360, Note_on_c, 0, 62, 37
2, 32364, Note_on_c, 0, 68, 32
2, 32376, Note_on_c, 0, 77, 0
2, 32404, Note_on_c, 0, 85, 0
2, 32420, Control_c, 0, 64, 56
2, 32428, Control_c, 0, 64, 88
2, 32436, Note_on_c, 0, 84, 72
2, 32436, Note_on_c, 0, 80, 57
2, 32436, Control_c, 0, 64, 127
2, 32460, Note_on_c, 0, 84, 0
2, 32472, Note_on_c, 0, 80, 0
2, 32520, Note_on_c, 0, 84, 77
2, 32536, Note_on_c, 0, 77, 39
2, 32548, Note_on_c, 0, 68, 0
2, 32564, Note_on_c, 0, 84, 0
2, 32564, Note_on_c, 0, 77, 0
2, 32608, Note_on_c, 0, 83, 71
2, 32608, Note_on_c, 0, 80, 44
2, 32656, Note_on_c, 0, 80, 0
2, 32656, Note_on_c, 0, 62, 0
2, 32660, Note_on_c, 0, 83, 0
2, 32668, Control_c, 0, 64, 104
2, 32692, Control_c, 0, 64, 88
2, 32700, Control_c, 0, 64, 72
2, 32712, Control_c, 0, 64, 56
2, 32720, Note_on_c, 0, 82, 55
2, 32720, Control_c, 0, 64, 40
2, 32728, Note_on_c, 0, 78, 28
2, 32732, Note_on_c, 0, 66, 31
2, 32732, Control_c, 0, 64, 0
2, 32744, Note_on_c, 0, 63, 31
2, 32780, Note_on_c, 0, 83, 73
2, 32784, Note_on_c, 0, 75, 41
2, 32784, Control_c, 0, 64, 56
2, 32796, Control_c, 0, 64, 88
2, 32804, Control_c, 0, 64, 127
2, 32824, Note_on_c, 0, 83, 0
2, 32828, Note_on_c, 0, 75, 0
2, 32844, Note_on_c, 0, 78, 0
2, 32856, Note_on_c, 0, 66, 0
2, 32856, Note_on_c, 0, 63, 0
2, 32856, Note_on_c, 0, 82, 0
2, 32872, Note_on_c, 0, 70, 0
2, 32872, Note_on_c, 0, 82, 57
2, 32880, Note_on_c, 0, 78, 44
2, 32904, Note_on_c, 0, 78, 0
2, 32940, Note_on_c, 0, 82, 0
2, 32952, Note_on_c, 0, 83, 78
2, 32960, Note_on_c, 0, 75, 52
2, 32988, Note_on_c, 0, 75, 0
2, 32996, Note_on_c, 0, 83, 0
2, 33044, Control_c, 0, 64, 104
2, 33048, Note_on_c, 0, 82, 66
2, 33056, Control_c, 0, 64, 72
2, 33064, Note_on_c, 0, 70, 35
2, 33064, Note_on_c, 0, 74, 58
2, 33064, Note_on_c, 0, 68, 39
2, 33064, Control_c, 0, 64, 40
2, 33072, Control_c, 0, 64, 0
2, 33104, Note_on_c, 0, 74, 0
2, 33116, Note_on_c, 0, 82, 0
2, 33144, Note_on_c, 0, 83, 72
2, 33148, Control_c, 0, 64, 40
2, 33156, Note_on_c, 0, 77, 55
2, 33156, Control_c, 0, 64, 72
2, 33164, Control_c, 0, 64, 104
2, 33176, Control_c, 0, 64, 127
2, 33180, Note_on_c, 0, 77, 0
2, 33188, Note_on_c, 0, 83, 0
2, 33228, Note_on_c, 0, 82, 62
2, 33240, Note_on_c, 0, 74, 48
2, 33268, Note_on_c, 0, 74, 0
2, 33288, Note_on_c, 0, 82, 0
2, 33324, Note_on_c, 0, 83, 67
2, 33336, Note_on_c, 0, 77, 33
2, 33352, Note_on_c, 0, 77, 0
2, 33356, Note_on_c, 0, 83, 0
2, 33404, Note_on_c, 0, 68, 0
2, 33408, Note_on_c, 0, 82, 63
2, 33408, Control_c, 0, 64, 88
2, 33412, Note_on_c, 0, 66, 37
2, 33416, Note_on_c, 0, 75, 57
2, 33416, Control_c, 0, 64, 40
2, 33428, Control_c, 0, 64, 0
2, 33472, Note_on_c, 0, 75, 0
2, 33476, Note_on_c, 0, 82, 0
2, 33484, Control_c, 0, 64, 40
2, 33492, Control_c, 0, 64, 72
2, 33500, Control_c, 0, 64, 104
2, 33504, Note_on_c, 0, 83, 69
2, 33508, Note_on_c, 0, 78, 56
2, 33512, Control_c, 0, 64, 127
2, 33544, Note_on_c, 0, 83, 0
2, 33548, Note_on_c, 0, 78, 0
2, 33592, Note_on_c, 0, 82, 65
2, 33592, Note_on_c, 0, 75, 54
2, 33644, Note_on_c, 0, 75, 0
2, 33648, Note_on_c, 0, 82, 0
2, 33676, Note_on_c, 0, 83, 79
2, 33676, Note_on_c, 0, 78, 44
2, 33708, Note_on_c, 0, 70, 0
2, 33720, Note_on_c, 0, 83, 0
2, 33724, Note_on_c, 0, 78, 0
2, 33756, Note_on_c, 0, 66, 0
2, 33760, Note_on_c, 0, 82, 71
2, 33760, Control_c, 0, 64, 88
2, 33768, Note_on_c, 0, 70, 35
2, 33768, Control_c, 0, 64, 40
2, 33772, Note_on_c, 0, 74, 55
2, 33780, Note_on_c, 0, 65, 41
2, 33780, Control_c, 0, 64, 0
2, 33816, Control_c, 0, 64, 40
2, 33820, Note_on_c, 0, 74, 0
2, 33824, Control_c, 0, 64, 88
2, 33828, Note_on_c, 0, 82, 0
2, 33836, Control_c, 0, 64, 127
2, 33852, Note_on_c, 0, 83, 73
2, 33856, Note_on_c, 0, 80, 55
2, 33896, Note_on_c, 0, 83, 0
2, 33900, Note_on_c, 0, 80, 0
2, 33940, Note_on_c, 0, 82, 69
2, 33948, Note_on_c, 0, 74, 62
2, 33996, Note_on_c, 0, 74, 0
2, 34008, Note_on_c, 0, 82, 0
2, 34036, Note_on_c, 0, 83, 72
2, 34040, Note_on_c, 0, 80, 55
2, 34052, Note_on_c, 0, 65, 0
2, 34060, Note_on_c, 0, 70, 0
2, 34064, Note_on_c, 0, 80, 0
2, 34072, Note_on_c, 0, 83, 0
2, 34132, Control_c, 0, 64, 72
2, 34136, Note_on_c, 0, 82, 70
2, 34140, Note_on_c, 0, 70, 43
2, 34140, Note_on_c, 0, 75, 52
2, 34144, Note_on_c, 0, 63, 36
2, 34144, Control_c, 0, 64, 24
2, 34148, Control_c, 0, 64, 0
2, 34188, Control_c, 0, 64, 56
2, 34192, Note_on_c, 0, 82, 0
2, 34196, Control_c, 0, 64, 88
2, 34204, Note_on_c, 0, 75, 0
2, 34208, Control_c, 0, 64, 127
2, 34232, Note_on_c, 0, 83, 69
2, 34232, Note_on_c, 0, 78, 44
2, 34268, Note_on_c, 0, 83, 0
2, 34280, Note_on_c, 0, 78, 0
2, 34328, Note_on_c, 0, 83, 67
2, 34328, Note_on_c, 0, 75, 48
2, 34376, Note_on_c, 0, 75, 0
2, 34380, Note_on_c, 0, 83, 0
2, 34408, Note_on_c, 0, 63, 0
2, 34412, Note_on_c, 0, 84, 79
2, 34440, Note_on_c, 0, 70, 0
2, 34452, Note_on_c, 0, 84, 0
2, 34504, Note_on_c, 0, 78, 65
2, 34504, Control_c, 0, 64, 72
2, 34508, Note_on_c, 0, 85, 73
2, 34516, Note_on_c, 0, 58, 34
2, 34516, Control_c, 0, 64, 24
2, 34520, Note_on_c, 0, 70, 28
2, 34524, Note_on_c, 0, 66, 26
2, 34524, Control_c, 0, 64, 0
2, 34556, Note_on_c, 0, 85, 0
2, 34560, Control_c, 0, 64, 56
2, 34564, Note_on_c, 0, 78, 0
2, 34568, Control_c, 0, 64, 104
2, 34580, Control_c, 0, 64, 127
2, 34596, Note_on_c, 0, 86, 71
2, 34604, Note_on_c, 0, 82, 40
2, 34620, Note_on_c, 0, 82, 0
2, 34632, Note_on_c, 0, 86, 0
2, 34684, Note_on_c, 0, 86, 85
2, 34684, Note_on_c, 0, 78, 70
2, 34728, Note_on_c, 0, 78, 0
2, 34740, Note_on_c, 0, 86, 0
2, 34744, Note_on_c, 0, 66, 0
2, 34756, Note_on_c, 0, 70, 0
2, 34764, Note_on_c, 0, 58, 0
2, 34768, Note_on_c, 0, 87, 77
2, 34776, Note_on_c, 0, 82, 46
2, 34796, Note_on_c, 0, 82, 0
2, 34804, Note_on_c, 0, 87, 0
2, 34840, Control_c, 0, 64, 72
2, 34848, Control_c, 0, 64, 24
2, 34856, Control_c, 0, 64, 0
2, 34860, Note_on_c, 0, 87, 89
2, 34868, Note_on_c, 0, 58, 48
2, 34868, Note_on_c, 0, 68, 44
2, 34876, Note_on_c, 0, 77, 66
2, 34880, Note_on_c, 0, 70, 23
2, 34884, Control_c, 0, 64, 24
2, 34896, Control_c, 0, 64, 72
2, 34904, Control_c, 0, 64, 127
2, 34912, Note_on_c, 0, 87, 0
2, 34920, Note_on_c, 0, 77, 0
2, 34948, Note_on_c, 0, 86, 75
2, 34948, Note_on_c, 0, 80, 44
2, 34996, Note_on_c, 0, 80, 0
2, 34996, Note_on_c, 0, 86, 0
2, 35036, Note_on_c, 0, 86, 78
2, 35048, Note_on_c, 0, 77, 62
2, 35072, Note_on_c, 0, 77, 0
2, 35084, Note_on_c, 0, 58, 0
2, 35084, Note_on_c, 0, 86, 0
2, 35124, Note_on_c, 0, 85, 73
2, 35124, Note_on_c, 0, 80, 44
2, 35128, Note_on_c, 0, 70, 0
2, 35132, Note_on_c, 0, 68, 0
2, 35164, Note_on_c, 0, 85, 0
2, 35172, Note_on_c, 0, 80, 0
2, 35216, Note_on_c, 0, 85, 69
2, 35220, Control_c, 0, 64, 88
2, 35224, Note_on_c, 0, 77, 65
2, 35228, Note_on_c, 0, 70, 29
2, 35228, Control_c, 0, 64, 40
2, 35232, Note_on_c, 0, 68, 32
2, 35236, Note_on_c, 0, 62, 37
2, 35240, Control_c, 0, 64, 0
2, 35268, Control_c, 0, 64, 56
2, 35272, Note_on_c, 0, 85, 0
2, 35276, Note_on_c, 0, 77, 0
2, 35276, Control_c, 0, 64, 104
2, 35284, Control_c, 0, 64, 127
2, 35308, Note_on_c, 0, 84, 82
2, 35308, Note_on_c, 0, 80, 44
2, 35348, Note_on_c, 0, 84, 0
2, 35356, Note_on_c, 0, 80, 0
2, 35392, Note_on_c, 0, 84, 71
2, 35412, Note_on_c, 0, 77, 59
2, 35432, Note_on_c, 0, 77, 0
2, 35444, Note_on_c, 0, 68, 0
2, 35448, Note_on_c, 0, 84, 0
2, 35488, Note_on_c, 0, 83, 77
2, 35496, Note_on_c, 0, 80, 43
2, 35512, Note_on_c, 0, 62, 0
2, 35516, Note_on_c, 0, 80, 0
2, 35536, Note_on_c, 0, 83, 0
2, 35572, Control_c, 0, 64, 104
2, 35576, Note_on_c, 0, 82, 65
2, 35580, Note_on_c, 0, 66, 41
2, 35584, Control_c, 0, 64, 56
2, 35588, Note_on_c, 0, 63, 34
2, 35592, Note_on_c, 0, 78, 41
2, 35592, Control_c, 0, 64, 0
2, 35628, Control_c, 0, 64, 72
2, 35636, Note_on_c, 0, 78, 0
2, 35640, Control_c, 0, 64, 127
2, 35648, Note_on_c, 0, 82, 0
2, 35668, Note_on_c, 0, 83, 72
2, 35676, Note_on_c, 0, 75, 65
2, 35720, Note_on_c, 0, 70, 0
2, 35724, Note_on_c, 0, 66, 0
2, 35732, Note_on_c, 0, 83, 0
2, 35736, Note_on_c, 0, 63, 0
2, 35752, Note_on_c, 0, 82, 77
2, 35752, Note_on_c, 0, 78, 44
2, 35764, Note_on_c, 0, 75, 0
2, 35796, Note_on_c, 0, 82, 0
2, 35800, Note_on_c, 0, 78, 0
2, 35840, Note_on_c, 0, 87, 95
2, 35880, Note_on_c, 0, 87, 0
2, 35940, Note_on_c, 0, 61, 71
2, 35940, Note_on_c, 0, 46, 52
2, 35948, Note_on_c, 0, 78, 70
2, 35948, Note_on_c, 0, 90, 73
2, 35948, Control_c, 0, 64, 104
2, 35956, Control_c, 0, 64, 72
2, 35968, Control_c, 0, 64, 40
2, 35976, Control_c, 0, 64, 0
2, 36012, Note_on_c, 0, 90, 0
2, 36024, Note_on_c, 0, 78, 0
2, 36028, Note_on_c, 0, 87, 73
2, 36036, Control_c, 0, 64, 40
2, 36040, Control_c, 0, 64, 104
2, 36044, Note_on_c, 0, 85, 52
2, 36052, Control_c, 0, 64, 127
2, 36084, Note_on_c, 0, 85, 0
2, 36104, Note_on_c, 0, 87, 0
2, 36116, Note_on_c, 0, 90, 79
2, 36128, Note_on_c, 0, 78, 56
2, 36156, Note_on_c, 0, 46, 0
2, 36176, Note_on_c, 0, 90, 0
2, 36180, Note_on_c, 0, 78, 0
2, 36184, Note_on_c, 0, 61, 0
2, 36208, Note_on_c, 0, 88, 85
2, 36220, Note_on_c, 0, 85, 41
2, 36240, Note_on_c, 0, 85, 0
2, 36256, Note_on_c, 0, 88, 0
2, 36264, Control_c, 0, 64, 72
2, 36272, Control_c, 0, 64, 0
2, 36284, Note_on_c, 0, 47, 64
2, 36308, Control_c, 0, 64, 56
2, 36316, Note_on_c, 0, 88, 87
2, 36316, Note_on_c, 0, 78, 62
2, 36316, Control_c, 0, 64, 127
2, 36332, Note_on_c, 0, 47, 0
2, 36344, Note_on_c, 0, 63, 64
2, 36360, Note_on_c, 0, 78, 0
2, 36364, Note_on_c, 0, 88, 0
2, 36404, Note_on_c, 0, 86, 75
2, 36416, Note_on_c, 0, 83, 47
2, 36440, Note_on_c, 0, 83, 0
2, 36452, Note_on_c, 0, 86, 0
2, 36480, Note_on_c, 0, 88, 86
2, 36480, Note_on_c, 0, 78, 56
2, 36512, Note_on_c, 0, 63, 0
2, 36524, Note_on_c, 0, 78, 0
2, 36528, Note_on_c, 0, 88, 0
2, 36560, Note_on_c, 0, 87, 79
2, 36572, Note_on_c, 0, 83, 66
2, 36588, Note_on_c, 0, 83, 0
2, 36612, Note_on_c, 0, 87, 0
2, 36664, Note_on_c, 0, 87, 86
2, 36668, Note_on_c, 0, 64, 75
2, 36668, Note_on_c, 0, 49, 57
2, 36672, Note_on_c, 0, 76, 69
2, 36672, Control_c, 0, 64, 40
2, 36680, Control_c, 0, 64, 0
2, 36708, Note_on_c, 0, 76, 0
2, 36716, Note_on_c, 0, 49, 0
2, 36728, Note_on_c, 0, 87, 0
2, 36732, Control_c, 0, 64, 40
2, 36740, Control_c, 0, 64, 104
2, 36748, Control_c, 0, 64, 127
2, 36760, Note_on_c, 0, 84, 79
2, 36768, Note_on_c, 0, 82, 48
2, 36800, Note_on_c, 0, 82, 0
2, 36804, Note_on_c, 0, 84, 0
2, 36832, Note_on_c, 0, 87, 71
2, 36852, Note_on_c, 0, 76, 47
2, 36864, Note_on_c, 0, 64, 0
2, 36888, Note_on_c, 0, 76, 0
2, 36892, Note_on_c, 0, 87, 0
2, 36932, Note_on_c, 0, 85, 77
2, 36936, Note_on_c, 0, 82, 55
2, 36960, Note_on_c, 0, 82, 0
2, 36976, Note_on_c, 0, 85, 0
2, 37020, Control_c, 0, 64, 40
2, 37028, Note_on_c, 0, 85, 80
2, 37032, Note_on_c, 0, 75, 63
2, 37032, Note_on_c, 0, 51, 54
2, 37032, Control_c, 0, 64, 0
2, 37036, Note_on_c, 0, 66, 70
2, 37064, Control_c, 0, 64, 40
2, 37072, Control_c, 0, 64, 104
2, 37080, Note_on_c, 0, 75, 0
2, 37080, Control_c, 0, 64, 127
2, 37092, Note_on_c, 0, 85, 0
2, 37112, Note_on_c, 0, 82, 66
2, 37124, Note_on_c, 0, 78, 46
2, 37132, Note_on_c, 0, 51, 0
2, 37140, Note_on_c, 0, 66, 0
2, 37144, Note_on_c, 0, 78, 0
2, 37168, Note_on_c, 0, 82, 0
2, 37200, Note_on_c, 0, 85, 77
2, 37204, Note_on_c, 0, 75, 58
2, 37248, Note_on_c, 0, 85, 0
2, 37252, Note_on_c, 0, 75, 0
2, 37288, Note_on_c, 0, 83, 75
2, 37300, Note_on_c, 0, 78, 35
2, 37316, Note_on_c, 0, 78, 0
2, 37328, Note_on_c, 0, 52, 50
2, 37332, Note_on_c, 0, 83, 0
2, 37356, Control_c, 0, 64, 72
2, 37364, Control_c, 0, 64, 0
2, 37384, Note_on_c, 0, 84, 85
2, 37392, Note_on_c, 0, 73, 54
2, 37396, Note_on_c, 0, 67, 74
2, 37412, Control_c, 0, 64, 104
2, 37424, Control_c, 0, 64, 127
2, 37432, Note_on_c, 0, 84, 0
2, 37452, Note_on_c, 0, 73, 0
2, 37476, Note_on_c, 0, 81, 72
2, 37528, Note_on_c, 0, 81, 0
2, 37544, Note_on_c, 0, 52, 0
2, 37556, Note_on_c, 0, 84, 79
2, 37564, Note_on_c, 0, 73, 43
2, 37592, Note_on_c, 0, 84, 0
2, 37596, Note_on_c, 0, 67, 0
2, 37616, Note_on_c, 0, 73, 0
2, 37640, Note_on_c, 0, 82, 80
2, 37640, Note_on_c, 0, 79, 52
2, 37684, Note_on_c, 0, 82, 0
2, 37688, Note_on_c, 0, 79, 0
2, 37712, Note_on_c, 0, 53, 13
2, 37740, Control_c, 0, 64, 104
2, 37748, Note_on_c, 0, 82, 69
2, 37748, Control_c, 0, 64, 24
2, 37752, Note_on_c, 0, 69, 73
2, 37756, Control_c, 0, 64, 0
2, 37764, Note_on_c, 0, 72, 52
2, 37792, Note_on_c, 0, 72, 0
2, 37804, Note_on_c, 0, 82, 0
2, 37816, Control_c, 0, 64, 88
2, 37824, Control_c, 0, 64, 127
2, 37832, Note_on_c, 0, 80, 65
2, 37860, Note_on_c, 0, 77, 27
2, 37880, Note_on_c, 0, 77, 0
2, 37888, Note_on_c, 0, 80, 0
2, 37916, Note_on_c, 0, 82, 52
2, 37932, Note_on_c, 0, 72, 49
2, 37952, Note_on_c, 0, 53, 0
2, 37960, Note_on_c, 0, 72, 0
2, 37964, Note_on_c, 0, 82, 0
2, 37972, Note_on_c, 0, 69, 0
2, 38012, Note_on_c, 0, 81, 60
2, 38024, Note_on_c, 0, 77, 44
2, 38044, Note_on_c, 0, 77, 0
2, 38048, Note_on_c, 0, 81, 0
2, 38100, Note_on_c, 0, 81, 80
2, 38100, Note_on_c, 0, 70, 51
2, 38104, Note_on_c, 0, 64, 59
2, 38104, Control_c, 0, 64, 88
2, 38112, Note_on_c, 0, 55, 44
2, 38112, Control_c, 0, 64, 0
2, 38148, Note_on_c, 0, 70, 0
2, 38148, Note_on_c, 0, 81, 0
2, 38156, Control_c, 0, 64, 56
2, 38164, Control_c, 0, 64, 127
2, 38184, Note_on_c, 0, 78, 70
2, 38184, Note_on_c, 0, 76, 52
2, 38232, Note_on_c, 0, 76, 0
2, 38244, Note_on_c, 0, 78, 0
2, 38284, Note_on_c, 0, 81, 71
2, 38296, Note_on_c, 0, 61, 41
2, 38300, Note_on_c, 0, 70, 43
2, 38304, Note_on_c, 0, 55, 0
2, 38332, Note_on_c, 0, 64, 0
2, 38332, Note_on_c, 0, 81, 0
2, 38360, Note_on_c, 0, 70, 0
2, 38376, Note_on_c, 0, 79, 75
2, 38376, Note_on_c, 0, 76, 52
2, 38408, Note_on_c, 0, 79, 0
2, 38424, Note_on_c, 0, 76, 0
2, 38472, Note_on_c, 0, 61, 0
2, 38476, Note_on_c, 0, 79, 72
2, 38484, Note_on_c, 0, 69, 46
2, 38484, Note_on_c, 0, 57, 41
2, 38488, Note_on_c, 0, 65, 34
2, 38488, Control_c, 0, 64, 56
2, 38496, Control_c, 0, 64, 0
2, 38512, Note_on_c, 0, 69, 0
2, 38524, Note_on_c, 0, 79, 0
2, 38540, Control_c, 0, 64, 40
2, 38548, Control_c, 0, 64, 104
2, 38556, Control_c, 0, 64, 127
2, 38564, Note_on_c, 0, 76, 79
2, 38564, Note_on_c, 0, 72, 52
2, 38612, Note_on_c, 0, 72, 0
2, 38616, Note_on_c, 0, 76, 0
2, 38656, Note_on_c, 0, 57, 0
2, 38656, Note_on_c, 0, 79, 66
2, 38656, Note_on_c, 0, 69, 52
2, 38680, Note_on_c, 0, 60, 27
2, 38704, Note_on_c, 0, 69, 0
2, 38704, Note_on_c, 0, 79, 0
2, 38736, Note_on_c, 0, 77, 85
2, 38736, Note_on_c, 0, 72, 52
2, 38744, Note_on_c, 0, 65, 0
2, 38772, Note_on_c, 0, 77, 0
2, 38784, Note_on_c, 0, 72, 0
2, 38800, Note_on_c, 0, 60, 0
2, 38832, Note_on_c, 0, 73, 43
2, 38832, Note_on_c, 0, 58, 36
2, 38836, Control_c, 0, 64, 72
2, 38840, Note_on_c, 0, 77, 70
2, 38840, Note_on_c, 0, 67, 46
2, 38844, Control_c, 0, 64, 0
2, 38896, Control_c, 0, 64, 56
2, 38900, Note_on_c, 0, 77, 0
2, 38900, Note_on_c, 0, 73, 0
2, 38904, Control_c, 0, 64, 127
2, 38924, Note_on_c, 0, 75, 71
2, 38968, Note_on_c, 0, 75, 0
2, 39016, Note_on_c, 0, 61, 48
2, 39016, Note_on_c, 0, 77, 74
2, 39016, Note_on_c, 0, 70, 52
2, 39020, Note_on_c, 0, 58, 0
2, 39064, Note_on_c, 0, 77, 0
2, 39064, Note_on_c, 0, 70, 0
2, 39088, Note_on_c, 0, 67, 0
2, 39100, Note_on_c, 0, 76, 79
2, 39152, Note_on_c, 0, 76, 0
2, 39156, Note_on_c, 0, 61, 0
2, 39196, Note_on_c, 0, 79, 75
2, 39200, Note_on_c, 0, 75, 50
2, 39208, Note_on_c, 0, 69, 52
2, 39212, Note_on_c, 0, 60, 54
2, 39220, Control_c, 0, 64, 104
2, 39228, Control_c, 0, 64, 40
2, 39236, Control_c, 0, 64, 0
2, 39252, Note_on_c, 0, 75, 0
2, 39268, Note_on_c, 0, 79, 0
2, 39280, Note_on_c, 0, 76, 71
2, 39280, Control_c, 0, 64, 40
2, 39288, Control_c, 0, 64, 104
2, 39296, Control_c, 0, 64, 127
2, 39340, Note_on_c, 0, 76, 0
2, 39372, Note_on_c, 0, 79, 75
2, 39384, Note_on_c, 0, 63, 40
2, 39388, Note_on_c, 0, 60, 0
2, 39388, Note_on_c, 0, 72, 54
2, 39400, Note_on_c, 0, 69, 0
2, 39408, Note_on_c, 0, 72, 0
2, 39420, Note_on_c, 0, 79, 0
2, 39460, Note_on_c, 0, 77, 79
2, 39496, Note_on_c, 0, 77, 0
2, 39520, Note_on_c, 0, 63, 0
2, 39552, Note_on_c, 0, 77, 52
2, 39552, Note_on_c, 0, 70, 52
2, 39552, Control_c, 0, 64, 56
2, 39556, Note_on_c, 0, 67, 35
2, 39564, Note_on_c, 0, 61, 31
2, 39564, Control_c, 0, 64, 0
2, 39600, Note_on_c, 0, 70, 0
2, 39612, Control_c, 0, 64, 24
2, 39616, Note_on_c, 0, 77, 0
2, 39620, Control_c, 0, 64, 88
2, 39628, Control_c, 0, 64, 127
2, 39636, Note_on_c, 0, 75, 69
2, 39708, Note_on_c, 0, 75, 0
2, 39720, Note_on_c, 0, 67, 0
2, 39720, Note_on_c, 0, 77, 80
2, 39736, Note_on_c, 0, 61, 0
2, 39772, Note_on_c, 0, 77, 0
2, 39804, Note_on_c, 0, 76, 72
2, 39860, Note_on_c, 0, 76, 0
2, 39892, Control_c, 0, 64, 104
2, 39900, Note_on_c, 0, 79, 72
2, 39900, Note_on_c, 0, 69, 48
2, 39904, Note_on_c, 0, 63, 41
2, 39904, Control_c, 0, 64, 72
2, 39912, Control_c, 0, 64, 24
2, 39920, Note_on_c, 0, 72, 29
2, 39920, Control_c, 0, 64, 0
2, 39952, Note_on_c, 0, 72, 0
2, 39968, Note_on_c, 0, 79, 0
2, 39992, Note_on_c, 0, 76, 69
2, 40040, Note_on_c, 0, 76, 0
2, 40084, Note_on_c, 0, 79, 63
2, 40140, Note_on_c, 0, 79, 0
2, 40164, Note_on_c, 0, 78, 69
2, 40228, Note_on_c, 0, 78, 0
2, 40256, Note_on_c, 0, 77, 62
2, 40340, Note_on_c, 0, 78, 62
2, 40348, Note_on_c, 0, 77, 0
2, 40360, Note_on_c, 0, 63, 0
2, 40380, Note_on_c, 0, 69, 0
2, 40392, Note_on_c, 0, 78, 0
2, 40424, Note_on_c, 0, 77, 64
2, 40488, Note_on_c, 0, 77, 0
2, 40504, Note_on_c, 0, 79, 60
2, 40572, Note_on_c, 0, 79, 0
2, 40596, Note_on_c, 0, 77, 64
2, 40660, Note_on_c, 0, 77, 0
2, 40680, Note_on_c, 0, 78, 55
2, 40736, Note_on_c, 0, 78, 0
2, 40760, Note_on_c, 0, 77, 60
2, 40824, Note_on_c, 0, 77, 0
2, 40840, Note_on_c, 0, 79, 59
2, 40912, Note_on_c, 0, 79, 0
2, 40928, Note_on_c, 0, 77, 60
2, 40996, Note_on_c, 0, 77, 0
2, 41012, Note_on_c, 0, 78, 50
2, 41064, Note_on_c, 0, 78, 0
2, 41096, Note_on_c, 0, 77, 47
2, 41148, Note_on_c, 0, 77, 0
2, 41168, Note_on_c, 0, 79, 52
2, 41228, Note_on_c, 0, 79, 0
2, 41264, Note_on_c, 0, 77, 54
2, 41320, Note_on_c, 0, 77, 0
2, 41344, Note_on_c, 0, 78, 49
2, 41396, Note_on_c, 0, 78, 0
2, 41432, Note_on_c, 0, 77, 47
2, 41472, Note_on_c, 0, 77, 0
2, 41508, Note_on_c, 0, 79, 50
2, 41556, Note_on_c, 0, 79, 0
2, 41600, Note_on_c, 0, 77, 59
2, 41648, Note_on_c, 0, 77, 0
2, 41684, Note_on_c, 0, 78, 55
2, 41732, Note_on_c, 0, 78, 0
2, 41768, Note_on_c, 0, 77, 52
2, 41820, Note_on_c, 0, 77, 0
2, 41848, Note_on_c, 0, 79, 60
2, 41864, Note_on_c, 0, 79, 0
2, 41944, Note_on_c, 0, 69, 52
2, 41948, Note_on_c, 0, 77, 47
2, 41960, Note_on_c, 0, 51, 43
2, 41964, Control_c, 0, 64, 40
2, 41972, Control_c, 0, 64, 72
2, 41980, Control_c, 0, 64, 88
2, 41992, Note_on_c, 0, 77, 0
2, 41992, Control_c, 0, 64, 104
2, 42000, Note_on_c, 0, 69, 0
2, 42000, Control_c, 0, 64, 127
2, 42012, Note_on_c, 0, 51, 0
2, 42036, Note_on_c, 0, 78, 62
2, 42036, Note_on_c, 0, 72, 46
2, 42072, Note_on_c, 0, 72, 0
2, 42076, Note_on_c, 0, 78, 0
2, 42100, Note_on_c, 0, 67, 57
2, 42104, Control_c, 0, 64, 104
2, 42112, Control_c, 0, 64, 88
2, 42120, Note_on_c, 0, 67, 0
2, 42120, Note_on_c, 0, 65, 69
2, 42120, Control_c, 0, 64, 56
2, 42124, Note_on_c, 0, 77, 72
2, 42128, Control_c, 0, 64, 40
2, 42136, Note_on_c, 0, 69, 35
2, 42140, Control_c, 0, 64, 0
2, 42156, Note_on_c, 0, 65, 0
2, 42164, Note_on_c, 0, 69, 0
2, 42172, Note_on_c, 0, 77, 0
2, 42204, Note_on_c, 0, 79, 79
2, 42204, Note_on_c, 0, 72, 46
2, 42240, Note_on_c, 0, 72, 0
2, 42240, Note_on_c, 0, 79, 0
2, 42300, Note_on_c, 0, 77, 64
2, 42304, Note_on_c, 0, 70, 34
2, 42308, Note_on_c, 0, 50, 46
2, 42328, Note_on_c, 0, 50, 0
2, 42336, Note_on_c, 0, 70, 0
2, 42340, Note_on_c, 0, 77, 0
2, 42384, Note_on_c, 0, 78, 42
2, 42404, Note_on_c, 0, 74, 29
2, 42412, Note_on_c, 0, 78, 0
2, 42424, Note_on_c, 0, 74, 0
2, 42448, Note_on_c, 0, 67, 57
2, 42468, Note_on_c, 0, 67, 0
2, 42468, Note_on_c, 0, 77, 66
2, 42468, Note_on_c, 0, 65, 66
2, 42476, Note_on_c, 0, 70, 29
2, 42500, Note_on_c, 0, 70, 0
2, 42508, Note_on_c, 0, 77, 0
2, 42512, Note_on_c, 0, 65, 0
2, 42544, Note_on_c, 0, 79, 75
2, 42544, Note_on_c, 0, 74, 46
2, 42580, Note_on_c, 0, 74, 0
2, 42588, Note_on_c, 0, 79, 0
2, 42636, Note_on_c, 0, 77, 75
2, 42644, Note_on_c, 0, 69, 47
2, 42648, Control_c, 0, 64, 24
2, 42652, Note_on_c, 0, 48, 40
2, 42660, Control_c, 0, 64, 56
2, 42664, Control_c, 0, 64, 88
2, 42672, Note_on_c, 0, 69, 0
2, 42676, Note_on_c, 0, 48, 0
2, 42676, Control_c, 0, 64, 104
2, 42688, Note_on_c, 0, 77, 0
2, 42724, Note_on_c, 0, 78, 57
2, 42724, Control_c, 0, 64, 88
2, 42732, Note_on_c, 0, 75, 48
2, 42736, Control_c, 0, 64, 72
2, 42752, Control_c, 0, 64, 56
2, 42760, Note_on_c, 0, 75, 0
2, 42760, Control_c, 0, 64, 40
2, 42764, Note_on_c, 0, 78, 0
2, 42768, Control_c, 0, 64, 24
2, 42780, Control_c, 0, 64, 0
2, 42808, Note_on_c, 0, 67, 50
2, 42812, Note_on_c, 0, 77, 71
2, 42816, Note_on_c, 0, 69, 47
2, 42828, Note_on_c, 0, 67, 0
2, 42828, Note_on_c, 0, 65, 64
2, 42840, Note_on_c, 0, 69, 0
2, 42844, Note_on_c, 0, 65, 0
2, 42860, Note_on_c, 0, 77, 0
2, 42892, Note_on_c, 0, 79, 72
2, 42892, Note_on_c, 0, 72, 46
2, 42920, Note_on_c, 0, 79, 0
2, 42928, Note_on_c, 0, 72, 0
2, 42960, Control_c, 0, 64, 24
2, 42968, Control_c, 0, 64, 56
2, 42976, Control_c, 0, 64, 88
2, 42984, Control_c, 0, 64, 104
2, 42996, Note_on_c, 0, 77, 66
2, 42996, Control_c, 0, 64, 127
2, 43000, Note_on_c, 0, 46, 41
2, 43008, Note_on_c, 0, 70, 41
2, 43032, Note_on_c, 0, 46, 0
2, 43036, Note_on_c, 0, 70, 0
2, 43040, Note_on_c, 0, 77, 0
2, 43076, Note_on_c, 0, 78, 63
2, 43076, Note_on_c, 0, 74, 46
2, 43100, Control_c, 0, 64, 104
2, 43108, Note_on_c, 0, 78, 0
2, 43108, Control_c, 0, 64, 88
2, 43112, Note_on_c, 0, 74, 0
2, 43116, Control_c, 0, 64, 72
2, 43132, Control_c, 0, 64, 56
2, 43152, Note_on_c, 0, 67, 47
2, 43164, Note_on_c, 0, 78, 69
2, 43168, Note_on_c, 0, 70, 40
2, 43172, Note_on_c, 0, 65, 71
2, 43176, Note_on_c, 0, 67, 0
2, 43184, Control_c, 0, 64, 72
2, 43196, Note_on_c, 0, 65, 0
2, 43200, Note_on_c, 0, 70, 0
2, 43200, Control_c, 0, 64, 88
2, 43212, Control_c, 0, 64, 104
2, 43216, Note_on_c, 0, 78, 0
2, 43220, Control_c, 0, 64, 127
2, 43248, Note_on_c, 0, 79, 72
2, 43248, Note_on_c, 0, 74, 46
2, 43264, Note_on_c, 0, 79, 0
2, 43272, Control_c, 0, 64, 88
2, 43280, Control_c, 0, 64, 72
2, 43284, Note_on_c, 0, 74, 0
2, 43288, Control_c, 0, 64, 40
2, 43300, Control_c, 0, 64, 0
2, 43328, Note_on_c, 0, 80, 74
2, 43328, Note_on_c, 0, 41, 57
2, 43336, Note_on_c, 0, 74, 48
2, 43360, Note_on_c, 0, 74, 0
2, 43376, Note_on_c, 0, 80, 0
2, 43380, Note_on_c, 0, 41, 0
2, 43420, Note_on_c, 0, 81, 73
2, 43420, Note_on_c, 0, 77, 46
2, 43456, Note_on_c, 0, 77, 0
2, 43460, Note_on_c, 0, 81, 0
2, 43488, Note_on_c, 0, 66, 57
2, 43504, Note_on_c, 0, 81, 64
2, 43512, Note_on_c, 0, 65, 67
2, 43524, Control_c, 0, 64, 40
2, 43528, Note_on_c, 0, 65, 0
2, 43528, Note_on_c, 0, 66, 0
2, 43528, Note_on_c, 0, 74, 21
2, 43544, Note_on_c, 0, 74, 0
2, 43564, Note_on_c, 0, 81, 0
2, 43584, Control_c, 0, 64, 24
2, 43592, Control_c, 0, 64, 0
2, 43604, Note_on_c, 0, 82, 73
2, 43604, Note_on_c, 0, 77, 46
2, 43640, Note_on_c, 0, 77, 0
2, 43652, Note_on_c, 0, 82, 0
2, 43692, Note_on_c, 0, 82, 60
2, 43696, Control_c, 0, 64, 24
2, 43704, Control_c, 0, 64, 56
2, 43708, Note_on_c, 0, 41, 64
2, 43712, Note_on_c, 0, 72, 52
2, 43712, Control_c, 0, 64, 88
2, 43720, Control_c, 0, 64, 127
2, 43728, Note_on_c, 0, 41, 0
2, 43736, Note_on_c, 0, 72, 0
2, 43744, Note_on_c, 0, 82, 0
2, 43784, Note_on_c, 0, 81, 56
2, 43784, Note_on_c, 0, 75, 46
2, 43820, Note_on_c, 0, 75, 0
2, 43824, Control_c, 0, 64, 104
2, 43828, Note_on_c, 0, 81, 0
2, 43832, Control_c, 0, 64, 88
2, 43840, Control_c, 0, 64, 72
2, 43852, Control_c, 0, 64, 56
2, 43860, Control_c, 0, 64, 40
2, 43868, Note_on_c, 0, 67, 59
2, 43868, Control_c, 0, 64, 24
2, 43884, Note_on_c, 0, 81, 50
2, 43888, Control_c, 0, 64, 0
2, 43896, Note_on_c, 0, 65, 60
2, 43896, Note_on_c, 0, 72, 46
2, 43904, Note_on_c, 0, 67, 0
2, 43912, Note_on_c, 0, 65, 0
2, 43920, Note_on_c, 0, 72, 0
2, 43924, Note_on_c, 0, 81, 0
2, 43972, Note_on_c, 0, 80, 58
2, 43972, Note_on_c, 0, 75, 46
2, 44008, Note_on_c, 0, 75, 0
2, 44008, Note_on_c, 0, 80, 0
2, 44048, Control_c, 0, 64, 24
2, 44056, Note_on_c, 0, 80, 71
2, 44056, Note_on_c, 0, 45, 57
2, 44056, Control_c, 0, 64, 56
2, 44068, Control_c, 0, 64, 88
2, 44072, Note_on_c, 0, 72, 49
2, 44076, Note_on_c, 0, 45, 0
2, 44076, Control_c, 0, 64, 127
2, 44096, Note_on_c, 0, 72, 0
2, 44108, Note_on_c, 0, 80, 0
2, 44156, Note_on_c, 0, 79, 75
2, 44156, Note_on_c, 0, 75, 46
2, 44164, Control_c, 0, 64, 104
2, 44172, Control_c, 0, 64, 88
2, 44180, Control_c, 0, 64, 72
2, 44188, Note_on_c, 0, 79, 0
2, 44188, Control_c, 0, 64, 56
2, 44192, Note_on_c, 0, 75, 0
2, 44196, Control_c, 0, 64, 40
2, 44204, Control_c, 0, 64, 24
2, 44212, Control_c, 0, 64, 0
2, 44236, Note_on_c, 0, 67, 58
2, 44248, Note_on_c, 0, 79, 71
2, 44252, Note_on_c, 0, 65, 73
2, 44260, Note_on_c, 0, 67, 0
2, 44260, Note_on_c, 0, 72, 41
2, 44272, Note_on_c, 0, 65, 0
2, 44284, Note_on_c, 0, 72, 0
2, 44284, Note_on_c, 0, 79, 0
2, 44328, Note_on_c, 0, 78, 64
2, 44328, Note_on_c, 0, 75, 46
2, 44364, Note_on_c, 0, 75, 0
2, 44384, Note_on_c, 0, 78, 0
2, 44420, Note_on_c, 0, 77, 73
2, 44420, Note_on_c, 0, 46, 49
2, 44420, Note_on_c, 0, 74, 46
2, 44428, Control_c, 0, 64, 40
2, 44436, Control_c, 0, 64, 72
2, 44444, Control_c, 0, 64, 104
2, 44452, Control_c, 0, 64, 127
2, 44456, Note_on_c, 0, 74, 0
2, 44460, Note_on_c, 0, 46, 0
2, 44468, Note_on_c, 0, 77, 0
2, 44512, Note_on_c, 0, 78, 65
2, 44520, Note_on_c, 0, 70, 49
2, 44532, Control_c, 0, 64, 104
2, 44536, Control_c, 0, 64, 88
2, 44544, Control_c, 0, 64, 56
2, 44548, Control_c, 0, 64, 40
2, 44556, Control_c, 0, 64, 0
2, 44560, Note_on_c, 0, 70, 0
2, 44560, Note_on_c, 0, 78, 0
2, 44580, Note_on_c, 0, 66, 56
2, 44600, Note_on_c, 0, 65, 69
2, 44604, Note_on_c, 0, 66, 0
2, 44612, Note_on_c, 0, 65, 0
2, 44612, Note_on_c, 0, 77, 73
2, 44620, Note_on_c, 0, 74, 47
2, 44636, Note_on_c, 0, 74, 0
2, 44652, Note_on_c, 0, 77, 0
2, 44696, Note_on_c, 0, 70, 54
2, 44700, Note_on_c, 0, 79, 70
2, 44728, Note_on_c, 0, 70, 0
2, 44740, Note_on_c, 0, 79, 0
2, 44780, Note_on_c, 0, 69, 52
2, 44784, Note_on_c, 0, 77, 47
2, 44796, Note_on_c, 0, 51, 43
2, 44800, Control_c, 0, 64, 40
2, 44808, Control_c, 0, 64, 72
2, 44816, Control_c, 0, 64, 88
2, 44828, Note_on_c, 0, 77, 0
2, 44828, Control_c, 0, 64, 104
2, 44836, Note_on_c, 0, 69, 0
2, 44836, Control_c, 0, 64, 127
2, 44848, Note_on_c, 0, 51, 0
2, 44872, Note_on_c, 0, 78, 62
2, 44872, Note_on_c, 0, 72, 46
2, 44908, Note_on_c, 0, 72, 0
2, 44912, Note_on_c, 0, 78, 0
2, 44936, Note_on_c, 0, 67, 57
2, 44940, Control_c, 0, 64, 104
2, 44948, Control_c, 0, 64, 88
2, 44956, Note_on_c, 0, 67, 0
2, 44956, Note_on_c, 0, 65, 69
2, 44956, Control_c, 0, 64, 56
2, 44960, Note_on_c, 0, 77, 72
2, 44964, Control_c, 0, 64, 40
2, 44972, Note_on_c, 0, 69, 35
2, 44976, Control_c, 0, 64, 0
2, 44992, Note_on_c, 0, 65, 0
2, 45000, Note_on_c, 0, 69, 0
2, 45008, Note_on_c, 0, 77, 0
2, 45040, Note_on_c, 0, 79, 79
2, 45040, Note_on_c, 0, 72, 46
2, 45076, Note_on_c, 0, 72, 0
2, 45076, Note_on_c, 0, 79, 0
2, 45136, Note_on_c, 0, 77, 64
2, 45140, Note_on_c, 0, 70, 34
2, 45144, Note_on_c, 0, 50, 46
2, 45164, Note_on_c, 0, 50, 0
2, 45172, Note_on_c, 0, 70, 0
2, 45176, Note_on_c, 0, 77, 0
2, 45220, Note_on_c, 0, 78, 42
2, 45240, Note_on_c, 0, 74, 29
2, 45248, Note_on_c, 0, 78, 0
2, 45260, Note_on_c, 0, 74, 0
2, 45284, Note_on_c, 0, 67, 57
2, 45304, Note_on_c, 0, 67, 0
2, 45304, Note_on_c, 0, 77, 66
2, 45304, Note_on_c, 0, 65, 66
2, 45312, Note_on_c, 0, 70, 29
2, 45336, Note_on_c, 0, 70, 0
2, 45344, Note_on_c, 0, 77, 0
2, 45348, Note_on_c, 0, 65, 0
2, 45380, Note_on_c, 0, 79, 75
2, 45380, Note_on_c, 0, 74, 46
2, 45416, Note_on_c, 0, 74, 0
2, 45424, Note_on_c, 0, 79, 0
2, 45472, Note_on_c, 0, 77, 75
2, 45480, Note_on_c, 0, 69, 47
2, 45484, Control_c, 0, 64, 24
2, 45488, Note_on_c, 0, 48, 40
2, 45496, Control_c, 0, 64, 56
2, 45500, Control_c, 0, 64, 88
2, 45508, Note_on_c, 0, 69, 0
2, 45512, Note_on_c, 0, 48, 0
2, 45512, Control_c, 0, 64, 104
2, 45524, Note_on_c, 0, 77, 0
2, 45560, Note_on_c, 0, 78, 57
2, 45560, Control_c, 0, 64, 88
2, 45568, Note_on_c, 0, 75, 48
2, 45572, Control_c, 0, 64, 72
2, 45588, Control_c, 0, 64, 56
2, 45596, Note_on_c, 0, 75, 0
2, 45596, Control_c, 0, 64, 40
2, 45600, Note_on_c, 0, 78, 0
2, 45604, Control_c, 0, 64, 24
2, 45616, Control_c, 0, 64, 0
2, 45644, Note_on_c, 0, 67, 50
2, 45648, Note_on_c, 0, 77, 71
2, 45652, Note_on_c, 0, 69, 47
2, 45664, Note_on_c, 0, 67, 0
2, 45664, Note_on_c, 0, 65, 64
2, 45676, Note_on_c, 0, 69, 0
2, 45680, Note_on_c, 0, 65, 0
2, 45696, Note_on_c, 0, 77, 0
2, 45728, Note_on_c, 0, 79, 72
2, 45728, Note_on_c, 0, 72, 46
2, 45756, Note_on_c, 0, 79, 0
2, 45764, Note_on_c, 0, 72, 0
2, 45796, Control_c, 0, 64, 24
2, 45804, Control_c, 0, 64, 56
2, 45812, Control_c, 0, 64, 88
2, 45820, Control_c, 0, 64, 104
2, 45832, Note_on_c, 0, 77, 66
2, 45832, Control_c, 0, 64, 127
2, 45836, Note_on_c, 0, 46, 41
2, 45844, Note_on_c, 0, 70, 41
2, 45860, Note_on_c, 0, 46, 0
2, 45864, Note_on_c, 0, 77, 0
2, 45872, Note_on_c, 0, 70, 0
2, 45912, Note_on_c, 0, 78, 63
2, 45912, Note_on_c, 0, 74, 46
2, 45936, Control_c, 0, 64, 104
2, 45944, Note_on_c, 0, 78, 0
2, 45944, Control_c, 0, 64, 88
2, 45948, Note_on_c, 0, 74, 0
2, 45952, Control_c, 0, 64, 72
2, 45968, Control_c, 0, 64, 56
2, 45988, Note_on_c, 0, 67, 47
2, 46000, Note_on_c, 0, 78, 69
2, 46004, Note_on_c, 0, 70, 40
2, 46008, Note_on_c, 0, 65, 71
2, 46012, Note_on_c, 0, 67, 0
2, 46020, Control_c, 0, 64, 72
2, 46032, Note_on_c, 0, 65, 0
2, 46036, Note_on_c, 0, 70, 0
2, 46036, Control_c, 0, 64, 88
2, 46048, Control_c, 0, 64, 104
2, 46052, Note_on_c, 0, 78, 0
2, 46056, Control_c, 0, 64, 127
2, 46084, Note_on_c, 0, 79, 72
2, 46084, Note_on_c, 0, 74, 46
2, 46100, Note_on_c, 0, 79, 0
2, 46108, Control_c, 0, 64, 88
2, 46116, Control_c, 0, 64, 72
2, 46120, Note_on_c, 0, 74, 0
2, 46124, Control_c, 0, 64, 40
2, 46136, Control_c, 0, 64, 0
2, 46164, Note_on_c, 0, 80, 74
2, 46164, Note_on_c, 0, 41, 57
2, 46172, Note_on_c, 0, 74, 48
2, 46196, Note_on_c, 0, 74, 0
2, 46212, Note_on_c, 0, 80, 0
2, 46216, Note_on_c, 0, 41, 0
2, 46256, Note_on_c, 0, 81, 73
2, 46256, Note_on_c, 0, 77, 46
2, 46292, Note_on_c, 0, 77, 0
2, 46296, Note_on_c, 0, 81, 0
2, 46324, Note_on_c, 0, 66, 57
2, 46340, Note_on_c, 0, 81, 64
2, 46348, Note_on_c, 0, 65, 67
2, 46360, Control_c, 0, 64, 40
2, 46364, Note_on_c, 0, 65, 0
2, 46364, Note_on_c, 0, 66, 0
2, 46364, Note_on_c, 0, 74, 21
2, 46380, Note_on_c, 0, 74, 0
2, 46400, Note_on_c, 0, 81, 0
2, 46420, Control_c, 0, 64, 24
2, 46428, Control_c, 0, 64, 0
2, 46440, Note_on_c, 0, 82, 73
2, 46440, Note_on_c, 0, 77, 46
2, 46476, Note_on_c, 0, 77, 0
2, 46488, Note_on_c, 0, 82, 0
2, 46528, Note_on_c, 0, 82, 60
2, 46532, Control_c, 0, 64, 24
2, 46540, Control_c, 0, 64, 56
2, 46544, Note_on_c, 0, 41, 64
2, 46548, Note_on_c, 0, 72, 52
2, 46548, Control_c, 0, 64, 88
2, 46556, Control_c, 0, 64, 127
2, 46564, Note_on_c, 0, 41, 0
2, 46572, Note_on_c, 0, 72, 0
2, 46580, Note_on_c, 0, 82, 0
2, 46620, Note_on_c, 0, 81, 56
2, 46620, Note_on_c, 0, 75, 46
2, 46656, Note_on_c, 0, 75, 0
2, 46660, Control_c, 0, 64, 104
2, 46664, Note_on_c, 0, 81, 0
2, 46668, Control_c, 0, 64, 88
2, 46676, Control_c, 0, 64, 72
2, 46688, Control_c, 0, 64, 56
2, 46696, Control_c, 0, 64, 40
2, 46704, Note_on_c, 0, 67, 59
2, 46704, Control_c, 0, 64, 24
2, 46720, Note_on_c, 0, 81, 50
2, 46724, Control_c, 0, 64, 0
2, 46732, Note_on_c, 0, 65, 60
2, 46732, Note_on_c, 0, 72, 46
2, 46740, Note_on_c, 0, 67, 0
2, 46748, Note_on_c, 0, 65, 0
2, 46756, Note_on_c, 0, 72, 0
2, 46760, Note_on_c, 0, 81, 0
2, 46808, Note_on_c, 0, 80, 58
2, 46808, Note_on_c, 0, 75, 46
2, 46844, Note_on_c, 0, 75, 0
2, 46844, Note_on_c, 0, 80, 0
2, 46884, Control_c, 0, 64, 24
2, 46892, Note_on_c, 0, 80, 71
2, 46892, Note_on_c, 0, 45, 57
2, 46892, Control_c, 0, 64, 56
2, 46904, Control_c, 0, 64, 88
2, 46908, Note_on_c, 0, 72, 49
2, 46912, Note_on_c, 0, 45, 0
2, 46912, Control_c, 0, 64, 127
2, 46932, Note_on_c, 0, 72, 0
2, 46944, Note_on_c, 0, 80, 0
2, 46992, Note_on_c, 0, 79, 75
2, 46992, Note_on_c, 0, 75, 46
2, 47000, Control_c, 0, 64, 104
2, 47008, Control_c, 0, 64, 88
2, 47016, Control_c, 0, 64, 72
2, 47024, Note_on_c, 0, 79, 0
2, 47024, Control_c, 0, 64, 56
2, 47028, Note_on_c, 0, 75, 0
2, 47032, Control_c, 0, 64, 40
2, 47040, Control_c, 0, 64, 24
2, 47048, Control_c, 0, 64, 0
2, 47072, Note_on_c, 0, 67, 58
2, 47084, Note_on_c, 0, 79, 71
2, 47088, Note_on_c, 0, 65, 73
2, 47096, Note_on_c, 0, 67, 0
2, 47096, Note_on_c, 0, 72, 41
2, 47108, Note_on_c, 0, 65, 0
2, 47120, Note_on_c, 0, 72, 0
2, 47120, Note_on_c, 0, 79, 0
2, 47164, Note_on_c, 0, 78, 64
2, 47164, Note_on_c, 0, 75, 46
2, 47200, Note_on_c, 0, 75, 0
2, 47220, Note_on_c, 0, 78, 0
2, 47256, Note_on_c, 0, 77, 73
2, 47256, Note_on_c, 0, 46, 49
2, 47256, Note_on_c, 0, 74, 46
2, 47264, Control_c, 0, 64, 40
2, 47272, Control_c, 0, 64, 72
2, 47280, Control_c, 0, 64, 104
2, 47288, Control_c, 0, 64, 127
2, 47292, Note_on_c, 0, 74, 0
2, 47296, Note_on_c, 0, 46, 0
2, 47304, Note_on_c, 0, 77, 0
2, 47348, Note_on_c, 0, 78, 65
2, 47356, Note_on_c, 0, 70, 49
2, 47368, Control_c, 0, 64, 104
2, 47372, Control_c, 0, 64, 88
2, 47380, Control_c, 0, 64, 56
2, 47384, Control_c, 0, 64, 40
2, 47392, Control_c, 0, 64, 0
2, 47396, Note_on_c, 0, 70, 0
2, 47396, Note_on_c, 0, 78, 0
2, 47416, Note_on_c, 0, 66, 56
2, 47436, Note_on_c, 0, 65, 69
2, 47440, Note_on_c, 0, 66, 0
2, 47448, Note_on_c, 0, 65, 0
2, 47448, Note_on_c, 0, 77, 73
2, 47456, Note_on_c, 0, 74, 47
2, 47472, Note_on_c, 0, 74, 0
2, 47488, Note_on_c, 0, 77, 0
2, 47536, Note_on_c, 0, 81, 70
2, 47576, Note_on_c, 0, 81, 0
2, 47616, Note_on_c, 0, 82, 73
2, 47624, Note_on_c, 0, 74, 71
2, 47624, Note_on_c, 0, 56, 49
2, 47664, Note_on_c, 0, 56, 0
2, 47664, Note_on_c, 0, 74, 0
2, 47680, Note_on_c, 0, 82, 0
2, 47708, Note_on_c, 0, 83, 75
2, 47716, Note_on_c, 0, 77, 63
2, 47748, Note_on_c, 0, 77, 0
2, 47764, Note_on_c, 0, 83, 0
2, 47788, Note_on_c, 0, 71, 42
2, 47800, Note_on_c, 0, 74, 59
2, 47800, Note_on_c, 0, 82, 74
2, 47804, Note_on_c, 0, 70, 62
2, 47808, Note_on_c, 0, 71, 0
2, 47816, Note_on_c, 0, 70, 0
2, 47840, Note_on_c, 0, 74, 0
2, 47856, Note_on_c, 0, 82, 0
2, 47884, Note_on_c, 0, 84, 75
2, 47888, Note_on_c, 0, 77, 34
2, 47908, Note_on_c, 0, 77, 0
2, 47968, Note_on_c, 0, 84, 0
2, 47980, Note_on_c, 0, 82, 69
2, 47984, Note_on_c, 0, 55, 50
2, 47984, Note_on_c, 0, 75, 44
2, 48016, Note_on_c, 0, 55, 0
2, 48028, Note_on_c, 0, 75, 0
2, 48040, Note_on_c, 0, 82, 0
2, 48068, Note_on_c, 0, 83, 75
2, 48080, Note_on_c, 0, 79, 50
2, 48100, Note_on_c, 0, 79, 0
2, 48124, Note_on_c, 0, 83, 0
2, 48140, Note_on_c, 0, 72, 55
2, 48152, Note_on_c, 0, 75, 63
2, 48164, Note_on_c, 0, 82, 50
2, 48168, Note_on_c, 0, 70, 57
2, 48176, Note_on_c, 0, 72, 0
2, 48184, Note_on_c, 0, 70, 0
2, 48188, Note_on_c, 0, 75, 0
2, 48216, Note_on_c, 0, 82, 0
2, 48244, Note_on_c, 0, 84, 77
2, 48248, Note_on_c, 0, 82, 43
2, 48280, Note_on_c, 0, 82, 0
2, 48304, Note_on_c, 0, 84, 0
2, 48336, Note_on_c, 0, 82, 65
2, 48344, Note_on_c, 0, 77, 64
2, 48348, Note_on_c, 0, 50, 50
2, 48368, Note_on_c, 0, 50, 0
2, 48396, Note_on_c, 0, 77, 0
2, 48404, Note_on_c, 0, 82, 0
2, 48428, Note_on_c, 0, 83, 73
2, 48428, Note_on_c, 0, 80, 57
2, 48476, Note_on_c, 0, 80, 0
2, 48492, Note_on_c, 0, 71, 62
2, 48500, Note_on_c, 0, 83, 0
2, 48512, Note_on_c, 0, 82, 62
2, 48516, Note_on_c, 0, 71, 0
2, 48516, Note_on_c, 0, 70, 48
2, 48520, Note_on_c, 0, 77, 59
2, 48532, Note_on_c, 0, 70, 0
2, 48540, Note_on_c, 0, 77, 0
2, 48576, Note_on_c, 0, 82, 0
2, 48596, Note_on_c, 0, 80, 52
2, 48600, Note_on_c, 0, 84, 85
2, 48640, Note_on_c, 0, 80, 0
2, 48656, Note_on_c, 0, 84, 0
2, 48692, Note_on_c, 0, 82, 66
2, 48692, Note_on_c, 0, 51, 46
2, 48696, Note_on_c, 0, 75, 52
2, 48716, Note_on_c, 0, 51, 0
2, 48752, Note_on_c, 0, 82, 0
2, 48756, Note_on_c, 0, 75, 0
2, 48784, Note_on_c, 0, 83, 78
2, 48792, Note_on_c, 0, 79, 51
2, 48812, Note_on_c, 0, 79, 0
2, 48820, Note_on_c, 0, 83, 0
2, 48864, Note_on_c, 0, 72, 60
2, 48868, Note_on_c, 0, 75, 66
2, 48868, Note_on_c, 0, 83, 79
2, 48880, Note_on_c, 0, 72, 0
2, 48884, Note_on_c, 0, 79, 41
2, 48888, Note_on_c, 0, 70, 51
2, 48896, Note_on_c, 0, 70, 0
2, 48904, Note_on_c, 0, 75, 0
2, 48920, Note_on_c, 0, 83, 0
2, 48932, Note_on_c, 0, 79, 0
2, 48952, Note_on_c, 0, 84, 80
2, 48992, Note_on_c, 0, 84, 0
2, 49040, Note_on_c, 0, 85, 83
2, 49048, Note_on_c, 0, 79, 66
2, 49048, Note_on_c, 0, 46, 58
2, 49080, Note_on_c, 0, 46, 0
2, 49096, Note_on_c, 0, 79, 0
2, 49100, Note_on_c, 0, 85, 0
2, 49136, Note_on_c, 0, 86, 83
2, 49140, Note_on_c, 0, 82, 55
2, 49172, Note_on_c, 0, 82, 0
2, 49180, Note_on_c, 0, 86, 0
2, 49196, Note_on_c, 0, 72, 69
2, 49224, Note_on_c, 0, 86, 89
2, 49228, Note_on_c, 0, 79, 70
2, 49228, Note_on_c, 0, 70, 63
2, 49232, Note_on_c, 0, 72, 0
2, 49240, Note_on_c, 0, 70, 0
2, 49264, Note_on_c, 0, 79, 0
2, 49288, Note_on_c, 0, 86, 0
2, 49316, Note_on_c, 0, 87, 83
2, 49320, Note_on_c, 0, 82, 48
2, 49360, Note_on_c, 0, 82, 0
2, 49360, Note_on_c, 0, 87, 0
2, 49404, Note_on_c, 0, 46, 64
2, 49404, Note_on_c, 0, 87, 85
2, 49412, Note_on_c, 0, 77, 73
2, 49436, Note_on_c, 0, 46, 0
2, 49456, Note_on_c, 0, 87, 0
2, 49464, Note_on_c, 0, 77, 0
2, 49492, Note_on_c, 0, 86, 85
2, 49496, Note_on_c, 0, 80, 64
2, 49532, Note_on_c, 0, 80, 0
2, 49540, Note_on_c, 0, 86, 0
2, 49576, Note_on_c, 0, 72, 69
2, 49584, Note_on_c, 0, 86, 86
2, 49588, Note_on_c, 0, 77, 71
2, 49596, Note_on_c, 0, 70, 60
2, 49608, Note_on_c, 0, 72, 0
2, 49624, Note_on_c, 0, 70, 0
2, 49628, Note_on_c, 0, 77, 0
2, 49628, Note_on_c, 0, 86, 0
2, 49668, Note_on_c, 0, 85, 82
2, 49672, Note_on_c, 0, 80, 66
2, 49708, Note_on_c, 0, 80, 0
2, 49708, Note_on_c, 0, 85, 0
2, 49756, Note_on_c, 0, 85, 74
2, 49764, Note_on_c, 0, 50, 66
2, 49768, Note_on_c, 0, 77, 71
2, 49780, Note_on_c, 0, 50, 0
2, 49800, Note_on_c, 0, 77, 0
2, 49812, Note_on_c, 0, 85, 0
2, 49852, Note_on_c, 0, 84, 73
2, 49856, Note_on_c, 0, 80, 59
2, 49884, Note_on_c, 0, 84, 0
2, 49888, Note_on_c, 0, 80, 0
2, 49904, Note_on_c, 0, 72, 65
2, 49936, Note_on_c, 0, 72, 0
2, 49936, Note_on_c, 0, 84, 82
2, 49940, Note_on_c, 0, 70, 64
2, 49944, Note_on_c, 0, 77, 56
2, 49952, Note_on_c, 0, 70, 0
2, 49968, Note_on_c, 0, 77, 0
2, 49984, Note_on_c, 0, 84, 0
2, 50028, Note_on_c, 0, 83, 80
2, 50032, Note_on_c, 0, 80, 46
2, 50080, Note_on_c, 0, 83, 0
2, 50088, Note_on_c, 0, 80, 0
2, 50124, Note_on_c, 0, 82, 58
2, 50128, Note_on_c, 0, 75, 40
2, 50136, Note_on_c, 0, 51, 42
2, 50176, Note_on_c, 0, 51, 0
2, 50176, Note_on_c, 0, 75, 0
2, 50176, Note_on_c, 0, 82, 0
2, 50212, Note_on_c, 0, 83, 69
2, 50268, Note_on_c, 0, 83, 0
2, 50280, Note_on_c, 0, 71, 27
2, 50300, Note_on_c, 0, 75, 39
2, 50304, Note_on_c, 0, 70, 64
2, 50304, Note_on_c, 0, 82, 57
2, 50308, Note_on_c, 0, 71, 0
2, 50336, Note_on_c, 0, 75, 0
2, 50336, Note_on_c, 0, 70, 0
2, 50348, Note_on_c, 0, 82, 0
2, 50396, Note_on_c, 0, 84, 80
2, 50444, Note_on_c, 0, 84, 0
2, 50488, Note_on_c, 0, 82, 71
2, 50492, Note_on_c, 0, 56, 36
2, 50496, Note_on_c, 0, 74, 67
2, 50536, Note_on_c, 0, 56, 0
2, 50540, Note_on_c, 0, 74, 0
2, 50556, Note_on_c, 0, 82, 0
2, 50584, Note_on_c, 0, 83, 78
2, 50588, Note_on_c, 0, 77, 56
2, 50612, Note_on_c, 0, 77, 0
2, 50644, Note_on_c, 0, 71, 62
2, 50648, Note_on_c, 0, 83, 0
2, 50668, Note_on_c, 0, 74, 58
2, 50676, Note_on_c, 0, 71, 0
2, 50676, Note_on_c, 0, 70, 57
2, 50680, Note_on_c, 0, 82, 70
2, 50692, Note_on_c, 0, 70, 0
2, 50716, Note_on_c, 0, 74, 0
2, 50744, Note_on_c, 0, 82, 0
2, 50764, Note_on_c, 0, 84, 83
2, 50832, Note_on_c, 0, 84, 0
2, 50852, Note_on_c, 0, 75, 59
2, 50856, Note_on_c, 0, 82, 66
2, 50864, Note_on_c, 0, 55, 51
2, 50880, Note_on_c, 0, 55, 0
2, 50908, Note_on_c, 0, 82, 0
2, 50908, Note_on_c, 0, 75, 0
2, 50940, Note_on_c, 0, 83, 79
2, 50956, Note_on_c, 0, 79, 31
2, 50972, Note_on_c, 0, 79, 0
2, 50980, Note_on_c, 0, 83, 0
2, 51004, Note_on_c, 0, 72, 71
2, 51024, Note_on_c, 0, 82, 81
2, 51028, Note_on_c, 0, 75, 63
2, 51036, Note_on_c, 0, 72, 0
2, 51036, Note_on_c, 0, 70, 69
2, 51060, Note_on_c, 0, 70, 0
2, 51068, Note_on_c, 0, 75, 0
2, 51092, Note_on_c, 0, 82, 0
2, 51116, Note_on_c, 0, 84, 85
2, 51180, Note_on_c, 0, 84, 0
2, 51208, Note_on_c, 0, 82, 71
2, 51216, Note_on_c, 0, 77, 63
2, 51220, Note_on_c, 0, 50, 56
2, 51236, Note_on_c, 0, 50, 0
2, 51272, Note_on_c, 0, 77, 0
2, 51276, Note_on_c, 0, 82, 0
2, 51296, Note_on_c, 0, 83, 72
2, 51304, Note_on_c, 0, 80, 69
2, 51344, Note_on_c, 0, 80, 0
2, 51368, Note_on_c, 0, 72, 66
2, 51372, Note_on_c, 0, 83, 0
2, 51392, Note_on_c, 0, 82, 67
2, 51392, Note_on_c, 0, 70, 70
2, 51392, Note_on_c, 0, 77, 65
2, 51404, Note_on_c, 0, 72, 0
2, 51412, Note_on_c, 0, 70, 0
2, 51416, Note_on_c, 0, 77, 0
2, 51456, Note_on_c, 0, 82, 0
2, 51480, Note_on_c, 0, 80, 57
2, 51480, Note_on_c, 0, 84, 85
2, 51524, Note_on_c, 0, 80, 0
2, 51532, Note_on_c, 0, 84, 0
2, 51576, Note_on_c, 0, 82, 66
2, 51576, Note_on_c, 0, 51, 46
2, 51580, Note_on_c, 0, 75, 58
2, 51600, Note_on_c, 0, 51, 0
2, 51636, Note_on_c, 0, 75, 0
2, 51644, Note_on_c, 0, 82, 0
2, 51668, Note_on_c, 0, 83, 80
2, 51704, Note_on_c, 0, 83, 0
2, 51740, Note_on_c, 0, 71, 71
2, 51756, Note_on_c, 0, 83, 80
2, 51756, Note_on_c, 0, 75, 66
2, 51772, Note_on_c, 0, 71, 0
2, 51772, Note_on_c, 0, 70, 71
2, 51780, Note_on_c, 0, 79, 25
2, 51792, Note_on_c, 0, 70, 0
2, 51796, Note_on_c, 0, 75, 0
2, 51816, Note_on_c, 0, 83, 0
2, 51828, Note_on_c, 0, 79, 0
2, 51848, Note_on_c, 0, 84, 93
2, 51896, Note_on_c, 0, 84, 0
2, 51936, Note_on_c, 0, 85, 85
2, 51944, Note_on_c, 0, 79, 65
2, 51944, Note_on_c, 0, 46, 59
2, 51980, Note_on_c, 0, 46, 0
2, 51992, Note_on_c, 0, 79, 0
2, 52004, Note_on_c, 0, 85, 0
2, 52032, Note_on_c, 0, 86, 87
2, 52036, Note_on_c, 0, 82, 69
2, 52064, Note_on_c, 0, 82, 0
2, 52076, Note_on_c, 0, 86, 0
2, 52096, Note_on_c, 0, 72, 62
2, 52124, Note_on_c, 0, 86, 85
2, 52124, Note_on_c, 0, 79, 75
2, 52132, Note_on_c, 0, 72, 0
2, 52132, Note_on_c, 0, 70, 48
2, 52148, Note_on_c, 0, 70, 0
2, 52164, Note_on_c, 0, 79, 0
2, 52192, Note_on_c, 0, 86, 0
2, 52220, Note_on_c, 0, 87, 89
2, 52224, Note_on_c, 0, 82, 57
2, 52256, Note_on_c, 0, 82, 0
2, 52268, Note_on_c, 0, 87, 0
2, 52308, Note_on_c, 0, 87, 89
2, 52312, Note_on_c, 0, 46, 57
2, 52316, Note_on_c, 0, 77, 73
2, 52348, Note_on_c, 0, 46, 0
2, 52364, Note_on_c, 0, 87, 0
2, 52376, Note_on_c, 0, 77, 0
2, 52396, Note_on_c, 0, 86, 77
2, 52404, Note_on_c, 0, 80, 57
2, 52436, Note_on_c, 0, 80, 0
2, 52444, Note_on_c, 0, 86, 0
2, 52492, Note_on_c, 0, 71, 54
2, 52496, Note_on_c, 0, 86, 75
2, 52504, Note_on_c, 0, 77, 60
2, 52512, Note_on_c, 0, 70, 66
2, 52516, Note_on_c, 0, 71, 0
2, 52536, Note_on_c, 0, 86, 0
2, 52540, Note_on_c, 0, 70, 0
2, 52548, Note_on_c, 0, 77, 0
2, 52584, Note_on_c, 0, 85, 87
2, 52588, Note_on_c, 0, 80, 69
2, 52632, Note_on_c, 0, 80, 0
2, 52632, Note_on_c, 0, 85, 0
2, 52680, Note_on_c, 0, 85, 77
2, 52688, Note_on_c, 0, 50, 58
2, 52688, Note_on_c, 0, 77, 72
2, 52720, Note_on_c, 0, 50, 0
2, 52740, Note_on_c, 0, 77, 0
2, 52752, Note_on_c, 0, 85, 0
2, 52776, Note_on_c, 0, 84, 83
2, 52776, Note_on_c, 0, 80, 62
2, 52820, Note_on_c, 0, 84, 0
2, 52828, Note_on_c, 0, 80, 0
2, 52856, Note_on_c, 0, 72, 66
2, 52868, Note_on_c, 0, 84, 82
2, 52876, Note_on_c, 0, 77, 59
2, 52892, Note_on_c, 0, 72, 0
2, 52892, Note_on_c, 0, 70, 67
2, 52920, Note_on_c, 0, 70, 0
2, 52924, Note_on_c, 0, 77, 0
2, 52924, Note_on_c, 0, 84, 0
2, 52964, Note_on_c, 0, 80, 69
2, 52964, Note_on_c, 0, 83, 85
2, 53012, Note_on_c, 0, 80, 0
2, 53040, Note_on_c, 0, 83, 0
2, 53052, Control_c, 0, 64, 88
2, 53056, Control_c, 0, 64, 56
2, 53060, Note_on_c, 0, 82, 60
2, 53064, Control_c, 0, 64, 24
2, 53072, Note_on_c, 0, 51, 46
2, 53072, Control_c, 0, 64, 0
2, 53140, Note_on_c, 0, 82, 0
2, 53140, Control_c, 0, 64, 24
2, 53144, Control_c, 0, 64, 72
2, 53152, Control_c, 0, 64, 127
2, 53160, Note_on_c, 0, 83, 79
2, 53164, Note_on_c, 0, 75, 54
2, 53212, Note_on_c, 0, 83, 0
2, 53232, Note_on_c, 0, 75, 0
2, 53244, Note_on_c, 0, 82, 70
2, 53268, Note_on_c, 0, 82, 0
2, 53304, Note_on_c, 0, 51, 0
2, 53352, Note_on_c, 0, 87, 92
2, 53372, Note_on_c, 0, 87, 79
2, 53376, Note_on_c, 0, 87, 0
2, 53392, Note_on_c, 0, 87, 0
2, 53392, Control_c, 0, 64, 104
2, 53448, Control_c, 0, 64, 88
2, 53460, Control_c, 0, 64, 24
2, 53468, Control_c, 0, 64, 0
2, 53484, Note_on_c, 0, 91, 102
2, 53492, Note_on_c, 0, 35, 63
2, 53500, Note_on_c, 0, 47, 55
2, 53500, Note_on_c, 0, 80, 72
2, 53544, Note_on_c, 0, 35, 0
2, 53548, Note_on_c, 0, 80, 0
2, 53556, Control_c, 0, 64, 72
2, 53568, Note_on_c, 0, 47, 0
2, 53568, Note_on_c, 0, 91, 0
2, 53568, Control_c, 0, 64, 127
2, 53596, Note_on_c, 0, 88, 96
2, 53596, Note_on_c, 0, 86, 80
2, 53644, Note_on_c, 0, 86, 0
2, 53704, Note_on_c, 0, 91, 98
2, 53704, Note_on_c, 0, 56, 42
2, 53704, Note_on_c, 0, 80, 64
2, 53708, Note_on_c, 0, 88, 0
2, 53712, Note_on_c, 0, 62, 59
2, 53712, Note_on_c, 0, 53, 48
2, 53756, Note_on_c, 0, 80, 0
2, 53756, Note_on_c, 0, 56, 0
2, 53760, Note_on_c, 0, 53, 0
2, 53760, Note_on_c, 0, 62, 0
2, 53768, Note_on_c, 0, 91, 0
2, 53800, Note_on_c, 0, 89, 103
2, 53800, Note_on_c, 0, 86, 80
2, 53848, Note_on_c, 0, 86, 0
2, 53864, Note_on_c, 0, 89, 0
2, 53924, Note_on_c, 0, 89, 94
2, 53924, Note_on_c, 0, 63, 74
2, 53928, Note_on_c, 0, 48, 54
2, 53928, Control_c, 0, 64, 88
2, 53936, Note_on_c, 0, 55, 50
2, 53936, Control_c, 0, 64, 24
2, 53944, Note_on_c, 0, 79, 48
2, 53948, Control_c, 0, 64, 0
2, 53980, Note_on_c, 0, 79, 0
2, 54016, Note_on_c, 0, 89, 0
2, 54032, Note_on_c, 0, 86, 92
2, 54040, Control_c, 0, 64, 88
2, 54048, Note_on_c, 0, 84, 63
2, 54052, Control_c, 0, 64, 127
2, 54072, Note_on_c, 0, 84, 0
2, 54080, Note_on_c, 0, 63, 0
2, 54104, Note_on_c, 0, 55, 0
2, 54108, Note_on_c, 0, 86, 0
2, 54128, Note_on_c, 0, 48, 0
2, 54132, Note_on_c, 0, 89, 96
2, 54144, Note_on_c, 0, 79, 63
2, 54184, Note_on_c, 0, 79, 0
2, 54204, Note_on_c, 0, 89, 0
2, 54232, Note_on_c, 0, 87, 93
2, 54260, Note_on_c, 0, 84, 35
2, 54276, Note_on_c, 0, 84, 0
2, 54308, Note_on_c, 0, 87, 0
2, 54328, Control_c, 0, 64, 72
2, 54340, Control_c, 0, 64, 0
2, 54356, Note_on_c, 0, 87, 88
2, 54360, Note_on_c, 0, 38, 65
2, 54368, Note_on_c, 0, 77, 67
2, 54372, Note_on_c, 0, 50, 55
2, 54392, Note_on_c, 0, 77, 0
2, 54412, Note_on_c, 0, 38, 0
2, 54424, Control_c, 0, 64, 88
2, 54432, Note_on_c, 0, 87, 0
2, 54436, Note_on_c, 0, 50, 0
2, 54436, Control_c, 0, 64, 127
2, 54460, Note_on_c, 0, 85, 88
2, 54484, Note_on_c, 0, 83, 44
2, 54512, Note_on_c, 0, 83, 0
2, 54540, Note_on_c, 0, 85, 0
2, 54568, Note_on_c, 0, 87, 92
2, 54580, Note_on_c, 0, 59, 54
2, 54580, Note_on_c, 0, 77, 72
2, 54580, Note_on_c, 0, 65, 64
2, 54588, Note_on_c, 0, 56, 50
2, 54604, Note_on_c, 0, 77, 0
2, 54616, Note_on_c, 0, 59, 0
2, 54620, Note_on_c, 0, 65, 0
2, 54632, Note_on_c, 0, 87, 0
2, 54636, Note_on_c, 0, 56, 0
2, 54668, Note_on_c, 0, 86, 100
2, 54720, Note_on_c, 0, 86, 0
2, 54728, Note_on_c, 0, 51, 71
2, 54732, Control_c, 0, 64, 104
2, 54740, Control_c, 0, 64, 0
2, 54748, Note_on_c, 0, 60, 74
2, 54768, Note_on_c, 0, 51, 0
2, 54796, Control_c, 0, 64, 56
2, 54800, Note_on_c, 0, 86, 87
2, 54804, Control_c, 0, 64, 127
2, 54808, Note_on_c, 0, 60, 0
2, 54808, Note_on_c, 0, 67, 81
2, 54812, Note_on_c, 0, 75, 46
2, 54832, Note_on_c, 0, 67, 0
2, 54852, Note_on_c, 0, 75, 0
2, 54864, Note_on_c, 0, 86, 0
2, 54904, Note_on_c, 0, 83, 83
2, 54928, Note_on_c, 0, 79, 35
2, 54948, Note_on_c, 0, 79, 0
2, 54980, Note_on_c, 0, 83, 0
2, 55004, Note_on_c, 0, 86, 92
2, 55012, Note_on_c, 0, 75, 62
2, 55064, Note_on_c, 0, 75, 0
2, 55064, Note_on_c, 0, 86, 0
2, 55104, Note_on_c, 0, 84, 89
2, 55116, Note_on_c, 0, 79, 66
2, 55136, Note_on_c, 0, 79, 0
2, 55164, Note_on_c, 0, 84, 0
2, 55240, Note_on_c, 0, 84, 86
2, 55252, Control_c, 0, 64, 88
2, 55256, Note_on_c, 0, 79, 60
2, 55260, Note_on_c, 0, 40, 57
2, 55260, Control_c, 0, 64, 24
2, 55272, Control_c, 0, 64, 0
2, 55316, Note_on_c, 0, 79, 0
2, 55328, Note_on_c, 0, 84, 0
2, 55336, Control_c, 0, 64, 40
2, 55344, Control_c, 0, 64, 104
2, 55356, Note_on_c, 0, 81, 79
2, 55356, Control_c, 0, 64, 127
2, 55372, Note_on_c, 0, 73, 44
2, 55408, Note_on_c, 0, 73, 0
2, 55424, Note_on_c, 0, 81, 0
2, 55444, Note_on_c, 0, 40, 0
2, 55452, Note_on_c, 0, 84, 81
2, 55452, Note_on_c, 0, 46, 58
2, 55468, Note_on_c, 0, 79, 69
2, 55512, Note_on_c, 0, 84, 0
2, 55524, Note_on_c, 0, 79, 0
2, 55556, Note_on_c, 0, 82, 81
2, 55572, Note_on_c, 0, 73, 51
2, 55596, Note_on_c, 0, 73, 0
2, 55608, Note_on_c, 0, 82, 0
2, 55652, Note_on_c, 0, 46, 0
2, 55664, Note_on_c, 0, 81, 86
2, 55668, Note_on_c, 0, 73, 65
2, 55676, Note_on_c, 0, 52, 43
2, 55716, Note_on_c, 0, 81, 0
2, 55728, Note_on_c, 0, 73, 0
2, 55768, Note_on_c, 0, 78, 79
2, 55776, Note_on_c, 0, 70, 60
2, 55824, Note_on_c, 0, 70, 0
2, 55844, Note_on_c, 0, 78, 0
2, 55868, Note_on_c, 0, 81, 80
2, 55880, Note_on_c, 0, 52, 0
2, 55880, Note_on_c, 0, 73, 58
2, 55880, Note_on_c, 0, 58, 32
2, 55928, Note_on_c, 0, 58, 0
2, 55928, Note_on_c, 0, 81, 0
2, 55932, Note_on_c, 0, 73, 0
2, 55972, Note_on_c, 0, 79, 86
2, 55988, Note_on_c, 0, 70, 46
2, 56012, Note_on_c, 0, 70, 0
2, 56016, Note_on_c, 0, 79, 0
2, 56092, Note_on_c, 0, 77, 92
2, 56096, Note_on_c, 0, 61, 58
2, 56096, Note_on_c, 0, 55, 57
2, 56096, Note_on_c, 0, 70, 63
2, 56096, Control_c, 0, 64, 88
2, 56108, Control_c, 0, 64, 40
2, 56112, Note_on_c, 0, 70, 0
2, 56116, Control_c, 0, 64, 0
2, 56152, Control_c, 0, 64, 72
2, 56160, Note_on_c, 0, 77, 0
2, 56160, Control_c, 0, 64, 104
2, 56172, Control_c, 0, 64, 127
2, 56192, Note_on_c, 0, 75, 81
2, 56204, Note_on_c, 0, 67, 63
2, 56232, Note_on_c, 0, 67, 0
2, 56248, Note_on_c, 0, 75, 0
2, 56312, Note_on_c, 0, 77, 83
2, 56320, Note_on_c, 0, 73, 60
2, 56320, Note_on_c, 0, 58, 37
2, 56324, Note_on_c, 0, 61, 0
2, 56372, Note_on_c, 0, 73, 0
2, 56372, Note_on_c, 0, 77, 0
2, 56376, Note_on_c, 0, 55, 0
2, 56420, Note_on_c, 0, 76, 89
2, 56420, Note_on_c, 0, 67, 77
2, 56468, Note_on_c, 0, 67, 0
2, 56476, Note_on_c, 0, 76, 0
2, 56484, Note_on_c, 0, 58, 0
2, 56524, Note_on_c, 0, 53, 62
2, 56604, Note_on_c, 0, 79, 96
2, 56612, Note_on_c, 0, 62, 62
2, 56616, Note_on_c, 0, 70, 69
2, 56616, Control_c, 0, 64, 72
2, 56624, Control_c, 0, 64, 0
2, 56708, Note_on_c, 0, 70, 0
2, 56716, Note_on_c, 0, 79, 0
2, 56732, Control_c, 0, 64, 72
2, 56744, Control_c, 0, 64, 127
2, 56752, Note_on_c, 0, 65, 63
2, 56856, Note_on_c, 0, 70, 69
2, 56904, Note_on_c, 0, 65, 0
2, 56956, Note_on_c, 0, 70, 0
2, 56960, Note_on_c, 0, 77, 82
2, 57012, Note_on_c, 0, 77, 0
2, 57036, Note_on_c, 0, 53, 0
2, 57056, Note_on_c, 0, 62, 0
2, 57076, Note_on_c, 0, 74, 80
2, 57088, Note_on_c, 0, 68, 65
2, 57092, Note_on_c, 0, 59, 39
2, 57100, Control_c, 0, 64, 88
2, 57108, Note_on_c, 0, 53, 34
2, 57112, Control_c, 0, 64, 24
2, 57124, Control_c, 0, 64, 0
2, 57180, Note_on_c, 0, 68, 0
2, 57200, Note_on_c, 0, 65, 59
2, 57208, Control_c, 0, 64, 56
2, 57220, Control_c, 0, 64, 104
2, 57228, Control_c, 0, 64, 127
2, 57284, Note_on_c, 0, 74, 0
2, 57300, Note_on_c, 0, 68, 63
2, 57356, Note_on_c, 0, 65, 0
2, 57396, Note_on_c, 0, 68, 0
2, 57396, Note_on_c, 0, 75, 81
2, 57464, Note_on_c, 0, 75, 0
2, 57520, Note_on_c, 0, 74, 83
2, 57524, Note_on_c, 0, 59, 0
2, 57528, Note_on_c, 0, 70, 46
2, 57536, Note_on_c, 0, 60, 48
2, 57536, Control_c, 0, 64, 56
2, 57544, Note_on_c, 0, 64, 31
2, 57548, Control_c, 0, 64, 0
2, 57584, Note_on_c, 0, 64, 0
2, 57592, Note_on_c, 0, 70, 0
2, 57632, Control_c, 0, 64, 72
2, 57640, Note_on_c, 0, 67, 66
2, 57644, Control_c, 0, 64, 127
2, 57692, Note_on_c, 0, 74, 0
2, 57716, Note_on_c, 0, 60, 0
2, 57740, Note_on_c, 0, 53, 0
2, 57756, Note_on_c, 0, 64, 49
2, 57840, Note_on_c, 0, 67, 0
2, 57848, Note_on_c, 0, 72, 81
2, 57876, Note_on_c, 0, 64, 0
2, 57888, Note_on_c, 0, 72, 0
2, 57960, Note_on_c, 0, 67, 87
2, 57968, Note_on_c, 0, 63, 52
2, 57972, Control_c, 0, 64, 88
2, 57980, Note_on_c, 0, 40, 51
2, 57980, Control_c, 0, 64, 0
2, 58044, Control_c, 0, 64, 24
2, 58056, Control_c, 0, 64, 88
2, 58060, Note_on_c, 0, 40, 0
2, 58064, Note_on_c, 0, 63, 0
2, 58064, Control_c, 0, 64, 127
2, 58076, Note_on_c, 0, 60, 66
2, 58076, Note_on_c, 0, 41, 52
2, 58148, Note_on_c, 0, 41, 0
2, 58164, Note_on_c, 0, 40, 59
2, 58180, Note_on_c, 0, 63, 51
2, 58196, Note_on_c, 0, 60, 0
2, 58228, Note_on_c, 0, 40, 0
2, 58268, Note_on_c, 0, 67, 0
2, 58276, Note_on_c, 0, 41, 54
2, 58280, Note_on_c, 0, 63, 0
2, 58284, Note_on_c, 0, 69, 86
2, 58324, Note_on_c, 0, 69, 0
2, 58408, Note_on_c, 0, 72, 88
2, 58416, Control_c, 0, 64, 88
2, 58424, Note_on_c, 0, 62, 60
2, 58424, Note_on_c, 0, 53, 62
2, 58428, Control_c, 0, 64, 40
2, 58436, Control_c, 0, 64, 0
2, 58496, Note_on_c, 0, 62, 0
2, 58520, Note_on_c, 0, 65, 65
2, 58616, Control_c, 0, 64, 40
2, 58620, Note_on_c, 0, 65, 0
2, 58624, Control_c, 0, 64, 72
2, 58636, Note_on_c, 0, 62, 56
2, 58636, Control_c, 0, 64, 88
2, 58648, Control_c, 0, 64, 104
2, 58660, Control_c, 0, 64, 127
2, 58700, Note_on_c, 0, 72, 0
2, 58732, Note_on_c, 0, 70, 73
2, 58744, Note_on_c, 0, 62, 0
2, 58772, Note_on_c, 0, 70, 0
2, 58804, Note_on_c, 0, 41, 0
2, 58816, Note_on_c, 0, 53, 0
2, 58864, Note_on_c, 0, 67, 79
2, 58880, Note_on_c, 0, 41, 49
2, 58880, Note_on_c, 0, 47, 46
2, 58884, Note_on_c, 0, 56, 54
2, 58924, Control_c, 0, 64, 88
2, 58936, Control_c, 0, 64, 0
2, 58992, Note_on_c, 0, 56, 0
2, 58996, Note_on_c, 0, 62, 65
2, 59020, Control_c, 0, 64, 56
2, 59028, Control_c, 0, 64, 104
2, 59040, Control_c, 0, 64, 127
2, 59076, Note_on_c, 0, 62, 0
2, 59104, Note_on_c, 0, 56, 49
2, 59148, Note_on_c, 0, 67, 0
2, 59180, Note_on_c, 0, 56, 0
2, 59196, Note_on_c, 0, 65, 74
2, 59204, Note_on_c, 0, 62, 58
2, 59228, Note_on_c, 0, 62, 0
2, 59252, Note_on_c, 0, 65, 0
2, 59300, Note_on_c, 0, 47, 0
2, 59312, Note_on_c, 0, 65, 85
2, 59328, Note_on_c, 0, 55, 55
2, 59328, Note_on_c, 0, 48, 46
2, 59344, Control_c, 0, 64, 104
2, 59356, Control_c, 0, 64, 24
2, 59368, Control_c, 0, 64, 0
2, 59424, Note_on_c, 0, 55, 0
2, 59432, Note_on_c, 0, 60, 75
2, 59444, Control_c, 0, 64, 72
2, 59452, Control_c, 0, 64, 127
2, 59508, Note_on_c, 0, 60, 0
2, 59544, Note_on_c, 0, 55, 63
2, 59580, Note_on_c, 0, 65, 0
2, 59636, Note_on_c, 0, 63, 74
2, 59660, Note_on_c, 0, 55, 0
2, 59676, Note_on_c, 0, 63, 0
2, 59728, Note_on_c, 0, 41, 0
2, 59728, Note_on_c, 0, 48, 0
2, 59760, Note_on_c, 0, 60, 73
2, 59768, Note_on_c, 0, 42, 62
2, 59776, Note_on_c, 0, 51, 46
2, 59792, Control_c, 0, 64, 104
2, 59800, Control_c, 0, 64, 56
2, 59812, Control_c, 0, 64, 0
2, 59876, Note_on_c, 0, 51, 0
2, 59900, Note_on_c, 0, 57, 50
2, 59908, Control_c, 0, 64, 56
2, 59920, Control_c, 0, 64, 104
2, 59928, Control_c, 0, 64, 127
2, 59940, Note_on_c, 0, 57, 0
2, 59968, Control_c, 0, 64, 40
2, 59972, Note_on_c, 0, 42, 0
2, 59984, Control_c, 0, 64, 0
2, 59988, Note_on_c, 0, 41, 59
2, 59992, Note_on_c, 0, 51, 49
2, 60036, Control_c, 0, 64, 40
2, 60044, Control_c, 0, 64, 104
2, 60056, Control_c, 0, 64, 127
2, 60076, Note_on_c, 0, 51, 0
2, 60084, Note_on_c, 0, 60, 0
2, 60092, Note_on_c, 0, 41, 0
2, 60112, Note_on_c, 0, 62, 60
2, 60116, Note_on_c, 0, 57, 49
2, 60140, Note_on_c, 0, 57, 0
2, 60164, Note_on_c, 0, 62, 0
2, 60252, Note_on_c, 0, 58, 57
2, 60260, Note_on_c, 0, 50, 55
2, 60264, Note_on_c, 0, 34, 51
2, 60288, Control_c, 0, 64, 88
2, 60300, Control_c, 0, 64, 40
2, 60480, Note_on_c, 0, 50, 75
2, 60500, Note_on_c, 0, 58, 34
2, 60508, Note_on_c, 0, 53, 24
2, 60516, Note_on_c, 0, 50, 0
2, 60532, Note_on_c, 0, 58, 0
2, 60532, Note_on_c, 0, 34, 0
2, 60556, Note_on_c, 0, 50, 0
2, 60560, Note_on_c, 0, 58, 0
2, 60576, Note_on_c, 0, 53, 0
2, 60584, Note_on_c, 0, 62, 47
2, 60612, Note_on_c, 0, 62, 0
2, 60700, Note_on_c, 0, 48, 73
2, 60708, Note_on_c, 0, 58, 28
2, 60732, Note_on_c, 0, 54, 28
2, 60764, Note_on_c, 0, 54, 0
2, 60772, Note_on_c, 0, 48, 0
2, 60776, Note_on_c, 0, 58, 0
2, 60796, Note_on_c, 0, 62, 46
2, 60828, Note_on_c, 0, 62, 0
2, 60912, Note_on_c, 0, 47, 71
2, 60924, Note_on_c, 0, 58, 31
2, 60932, Note_on_c, 0, 55, 43
2, 60996, Note_on_c, 0, 58, 0
2, 61000, Note_on_c, 0, 55, 0
2, 61008, Note_on_c, 0, 62, 43
2, 61040, Note_on_c, 0, 62, 0
2, 61056, Note_on_c, 0, 47, 0
2, 61116, Note_on_c, 0, 46, 65
2, 61132, Note_on_c, 0, 54, 39
2, 61144, Note_on_c, 0, 58, 21
2, 61196, Note_on_c, 0, 54, 0
2, 61208, Note_on_c, 0, 58, 0
2, 61208, Note_on_c, 0, 46, 0
2, 61224, Note_on_c, 0, 62, 46
2, 61256, Note_on_c, 0, 62, 0
2, 61328, Note_on_c, 0, 50, 75
2, 61344, Note_on_c, 0, 58, 35
2, 61352, Note_on_c, 0, 53, 37
2, 61396, Note_on_c, 0, 50, 0
2, 61408, Note_on_c, 0, 58, 0
2, 61420, Note_on_c, 0, 53, 0
2, 61424, Note_on_c, 0, 62, 41
2, 61456, Note_on_c, 0, 62, 0
2, 61544, Note_on_c, 0, 48, 73
2, 61552, Note_on_c, 0, 54, 40
2, 61552, Note_on_c, 0, 58, 28
2, 61608, Note_on_c, 0, 54, 0
2, 61616, Note_on_c, 0, 48, 0
2, 61620, Note_on_c, 0, 58, 0
2, 61648, Note_on_c, 0, 47, 73
2, 61648, Note_on_c, 0, 62, 48
2, 61716, Note_on_c, 0, 62, 0
2, 61732, Note_on_c, 0, 47, 0
2, 61752, Note_on_c, 0, 46, 57
2, 61760, Note_on_c, 0, 58, 35
2, 61772, Note_on_c, 0, 55, 39
2, 61840, Note_on_c, 0, 58, 0
2, 61844, Note_on_c, 0, 55, 0
2, 61852, Note_on_c, 0, 46, 0
2, 61864, Note_on_c, 0, 62, 52
2, 61920, Note_on_c, 0, 62, 0
2, 61964, Note_on_c, 0, 54, 49
2, 61996, Note_on_c, 0, 57, 51
2, 62028, Note_on_c, 0, 63, 63
2, 62040, Note_on_c, 0, 54, 0
2, 62044, Control_c, 0, 64, 24
2, 62052, Note_on_c, 0, 57, 0
2, 62052, Control_c, 0, 64, 72
2, 62060, Control_c, 0, 64, 127
2, 62072, Note_on_c, 0, 63, 0
2, 62208, Control_c, 0, 64, 88
2, 62216, Control_c, 0, 64, 40
2, 62228, Control_c, 0, 64, 0
2, 62244, Note_on_c, 0, 87, 79
2, 62248, Note_on_c, 0, 81, 63
2, 62252, Note_on_c, 0, 78, 62
2, 62276, Note_on_c, 0, 78, 0
2, 62284, Note_on_c, 0, 81, 0
2, 62316, Note_on_c, 0, 87, 0
2, 62352, Note_on_c, 0, 84, 72
2, 62424, Note_on_c, 0, 84, 0
2, 62444, Note_on_c, 0, 80, 79
2, 62456, Note_on_c, 0, 71, 44
2, 62460, Note_on_c, 0, 74, 52
2, 62492, Note_on_c, 0, 74, 0
2, 62500, Note_on_c, 0, 71, 0
2, 62512, Note_on_c, 0, 80, 0
2, 62548, Note_on_c, 0, 77, 73
2, 62640, Note_on_c, 0, 77, 0
2, 62652, Note_on_c, 0, 75, 52
2, 62656, Note_on_c, 0, 81, 75
2, 62672, Note_on_c, 0, 72, 39
2, 62688, Note_on_c, 0, 75, 0
2, 62692, Note_on_c, 0, 72, 0
2, 62716, Note_on_c, 0, 81, 0
2, 62740, Note_on_c, 0, 78, 66
2, 62836, Note_on_c, 0, 78, 0
2, 62852, Note_on_c, 0, 74, 67
2, 62856, Note_on_c, 0, 68, 43
2, 62864, Note_on_c, 0, 65, 41
2, 62892, Note_on_c, 0, 65, 0
2, 62892, Note_on_c, 0, 68, 0
2, 62924, Note_on_c, 0, 74, 0
2, 62956, Note_on_c, 0, 71, 59
2, 63036, Note_on_c, 0, 71, 0
2, 63056, Note_on_c, 0, 75, 64
2, 63064, Note_on_c, 0, 69, 47
2, 63064, Note_on_c, 0, 66, 39
2, 63096, Note_on_c, 0, 69, 0
2, 63100, Note_on_c, 0, 66, 0
2, 63124, Note_on_c, 0, 75, 0
2, 63152, Note_on_c, 0, 72, 72
2, 63224, Note_on_c, 0, 72, 0
2, 63252, Note_on_c, 0, 68, 55
2, 63264, Note_on_c, 0, 59, 32
2, 63276, Note_on_c, 0, 62, 34
2, 63324, Note_on_c, 0, 68, 0
2, 63328, Note_on_c, 0, 59, 0
2, 63340, Note_on_c, 0, 62, 0
2, 63340, Note_on_c, 0, 65, 59
2, 63448, Note_on_c, 0, 69, 58
2, 63452, Note_on_c, 0, 65, 0
2, 63460, Note_on_c, 0, 63, 34
2, 63468, Note_on_c, 0, 60, 42
2, 63508, Note_on_c, 0, 60, 0
2, 63520, Note_on_c, 0, 69, 0
2, 63544, Note_on_c, 0, 78, 70
2, 63636, Note_on_c, 0, 78, 0
2, 63648, Note_on_c, 0, 63, 0
2, 63668, Note_on_c, 0, 77, 69
2, 63680, Note_on_c, 0, 70, 42
2, 63684, Note_on_c, 0, 62, 50
2, 63736, Note_on_c, 0, 62, 0
2, 63736, Control_c, 0, 64, 40
2, 63748, Control_c, 0, 64, 72
2, 63756, Control_c, 0, 64, 104
2, 63760, Note_on_c, 0, 77, 0
2, 63764, Note_on_c, 0, 70, 0
2, 63764, Control_c, 0, 64, 127
2, 63772, Note_on_c, 0, 62, 27
2, 63832, Note_on_c, 0, 62, 0
2, 63860, Control_c, 0, 64, 104
2, 63872, Control_c, 0, 64, 72
2, 63880, Control_c, 0, 64, 56
2, 63888, Control_c, 0, 64, 24
2, 63896, Control_c, 0, 64, 0
2, 63924, Note_on_c, 0, 50, 74
2, 63928, Note_on_c, 0, 58, 40
2, 63936, Note_on_c, 0, 53, 46
2, 63996, Note_on_c, 0, 50, 0
2, 64012, Note_on_c, 0, 58, 0
2, 64032, Note_on_c, 0, 53, 0
2, 64032, Note_on_c, 0, 62, 44
2, 64064, Note_on_c, 0, 62, 0
2, 64136, Note_on_c, 0, 48, 80
2, 64140, Note_on_c, 0, 58, 32
2, 64148, Note_on_c, 0, 54, 33
2, 64188, Note_on_c, 0, 48, 0
2, 64204, Note_on_c, 0, 54, 0
2, 64216, Note_on_c, 0, 58, 0
2, 64228, Note_on_c, 0, 62, 56
2, 64292, Note_on_c, 0, 62, 0
2, 64352, Note_on_c, 0, 47, 67
2, 64352, Note_on_c, 0, 55, 47
2, 64356, Note_on_c, 0, 58, 34
2, 64404, Note_on_c, 0, 47, 0
2, 64436, Note_on_c, 0, 55, 0
2, 64440, Note_on_c, 0, 58, 0
2, 64456, Note_on_c, 0, 62, 39
2, 64500, Note_on_c, 0, 62, 0
2, 64556, Note_on_c, 0, 46, 70
2, 64564, Note_on_c, 0, 58, 36
2, 64568, Note_on_c, 0, 54, 37
2, 64612, Note_on_c, 0, 46, 0
2, 64628, Note_on_c, 0, 54, 0
2, 64648, Note_on_c, 0, 58, 0
2, 64656, Note_on_c, 0, 62, 48
2, 64692, Note_on_c, 0, 62, 0
2, 64768, Note_on_c, 0, 50, 63
2, 64772, Note_on_c, 0, 58, 39
2, 64784, Note_on_c, 0, 53, 44
2, 64844, Note_on_c, 0, 50, 0
2, 64848, Note_on_c, 0, 58, 0
2, 64852, Note_on_c, 0, 53, 0
2, 64860, Note_on_c, 0, 62, 39
2, 64892, Note_on_c, 0, 62, 0
2, 64968, Note_on_c, 0, 58, 37
2, 64968, Note_on_c, 0, 54, 44
2, 64972, Note_on_c, 0, 48, 73
2, 65028, Note_on_c, 0, 48, 0
2, 65028, Note_on_c, 0, 54, 0
2, 65052, Note_on_c, 0, 58, 0
2, 65072, Note_on_c, 0, 47, 74
2, 65076, Note_on_c, 0, 62, 54
2, 65164, Note_on_c, 0, 47, 0
2, 65176, Note_on_c, 0, 62, 0
2, 65176, Note_on_c, 0, 46, 69
2, 65180, Note_on_c, 0, 58, 44
2, 65188, Note_on_c, 0, 55, 46
2, 65256, Note_on_c, 0, 46, 0
2, 65260, Note_on_c, 0, 58, 0
2, 65264, Note_on_c, 0, 55, 0
2, 65288, Note_on_c, 0, 62, 49
2, 65336, Note_on_c, 0, 62, 0
2, 65380, Note_on_c, 0, 54, 54
2, 65396, Note_on_c, 0, 57, 56
2, 65440, Note_on_c, 0, 63, 57
2, 65448, Control_c, 0, 64, 24
2, 65460, Control_c, 0, 64, 88
2, 65464, Note_on_c, 0, 57, 0
2, 65464, Note_on_c, 0, 54, 0
2, 65468, Control_c, 0, 64, 127
2, 65484, Note_on_c, 0, 63, 0
2, 65644, Control_c, 0, 64, 104
2, 65648, Note_on_c, 0, 87, 73
2, 65652, Note_on_c, 0, 81, 52
2, 65652, Note_on_c, 0, 78, 55
2, 65652, Control_c, 0, 64, 88
2, 65660, Control_c, 0, 64, 56
2, 65668, Control_c, 0, 64, 40
2, 65676, Control_c, 0, 64, 0
2, 65684, Note_on_c, 0, 78, 0
2, 65692, Note_on_c, 0, 81, 0
2, 65724, Note_on_c, 0, 87, 0
2, 65752, Note_on_c, 0, 84, 75
2, 65836, Note_on_c, 0, 84, 0
2, 65848, Note_on_c, 0, 80, 74
2, 65864, Note_on_c, 0, 71, 39
2, 65868, Note_on_c, 0, 74, 31
2, 65904, Note_on_c, 0, 74, 0
2, 65912, Note_on_c, 0, 71, 0
2, 65936, Note_on_c, 0, 80, 0
2, 65964, Note_on_c, 0, 77, 71
2, 66052, Note_on_c, 0, 77, 0
2, 66068, Note_on_c, 0, 75, 48
2, 66068, Note_on_c, 0, 81, 77
2, 66080, Note_on_c, 0, 72, 44
2, 66100, Note_on_c, 0, 72, 0
2, 66100, Note_on_c, 0, 75, 0
2, 66136, Note_on_c, 0, 81, 0
2, 66160, Note_on_c, 0, 78, 63
2, 66268, Note_on_c, 0, 78, 0
2, 66280, Note_on_c, 0, 74, 69
2, 66284, Note_on_c, 0, 65, 42
2, 66288, Note_on_c, 0, 68, 34
2, 66312, Note_on_c, 0, 65, 0
2, 66336, Note_on_c, 0, 68, 0
2, 66360, Note_on_c, 0, 74, 0
2, 66388, Note_on_c, 0, 71, 62
2, 66464, Note_on_c, 0, 71, 0
2, 66488, Note_on_c, 0, 75, 69
2, 66500, Note_on_c, 0, 66, 46
2, 66524, Note_on_c, 0, 66, 0
2, 66524, Note_on_c, 0, 69, 21
2, 66540, Note_on_c, 0, 69, 0
2, 66560, Note_on_c, 0, 75, 0
2, 66592, Note_on_c, 0, 72, 77
2, 66656, Note_on_c, 0, 72, 0
2, 66692, Note_on_c, 0, 68, 59
2, 66700, Note_on_c, 0, 59, 49
2, 66704, Note_on_c, 0, 62, 47
2, 66760, Note_on_c, 0, 59, 0
2, 66768, Note_on_c, 0, 68, 0
2, 66792, Note_on_c, 0, 65, 63
2, 66844, Note_on_c, 0, 62, 0
2, 66912, Note_on_c, 0, 63, 34
2, 66912, Note_on_c, 0, 69, 29
2, 66928, Note_on_c, 0, 60, 25
2, 66932, Control_c, 0, 64, 40
2, 66936, Note_on_c, 0, 63, 0
2, 66944, Note_on_c, 0, 60, 0
2, 66944, Control_c, 0, 64, 56
2, 66952, Control_c, 0, 64, 88
2, 66960, Control_c, 0, 64, 104
2, 66968, Control_c, 0, 64, 127
2, 66972, Note_on_c, 0, 65, 0
2, 66988, Note_on_c, 0, 69, 0
2, 67004, Note_on_c, 0, 78, 63
2, 67024, Note_on_c, 0, 78, 0
2, 67064, Control_c, 0, 64, 104
2, 67076, Control_c, 0, 64, 88
2, 67084, Control_c, 0, 64, 56
2, 67092, Control_c, 0, 64, 24
2, 67100, Note_on_c, 0, 46, 46
2, 67100, Control_c, 0, 64, 0
2, 67128, Note_on_c, 0, 56, 51
2, 67136, Note_on_c, 0, 65, 75
2, 67144, Note_on_c, 0, 62, 42
2, 67164, Note_on_c, 0, 62, 0
2, 67164, Note_on_c, 0, 46, 0
2, 67172, Note_on_c, 0, 59, 51
2, 67172, Control_c, 0, 64, 40
2, 67180, Note_on_c, 0, 65, 0
2, 67180, Control_c, 0, 64, 88
2, 67188, Control_c, 0, 64, 127
2, 67200, Note_on_c, 0, 56, 0
2, 67204, Note_on_c, 0, 59, 0
2, 67380, Note_on_c, 0, 89, 90
2, 67392, Note_on_c, 0, 80, 49
2, 67396, Note_on_c, 0, 83, 50
2, 67412, Note_on_c, 0, 83, 0
2, 67416, Note_on_c, 0, 80, 0
2, 67428, Control_c, 0, 64, 104
2, 67432, Control_c, 0, 64, 72
2, 67440, Control_c, 0, 64, 56
2, 67448, Note_on_c, 0, 89, 0
2, 67452, Control_c, 0, 64, 40
2, 67460, Control_c, 0, 64, 24
2, 67468, Control_c, 0, 64, 0
2, 67480, Note_on_c, 0, 86, 79
2, 67564, Note_on_c, 0, 86, 0
2, 67592, Note_on_c, 0, 82, 67
2, 67592, Note_on_c, 0, 73, 40
2, 67592, Note_on_c, 0, 76, 66
2, 67632, Note_on_c, 0, 76, 0
2, 67632, Note_on_c, 0, 73, 0
2, 67680, Note_on_c, 0, 82, 0
2, 67696, Note_on_c, 0, 79, 73
2, 67780, Note_on_c, 0, 79, 0
2, 67800, Note_on_c, 0, 77, 63
2, 67804, Note_on_c, 0, 74, 57
2, 67804, Note_on_c, 0, 83, 71
2, 67820, Note_on_c, 0, 74, 0
2, 67820, Note_on_c, 0, 77, 0
2, 67860, Note_on_c, 0, 83, 0
2, 67892, Note_on_c, 0, 80, 71
2, 67984, Note_on_c, 0, 80, 0
2, 68004, Note_on_c, 0, 76, 73
2, 68004, Note_on_c, 0, 67, 58
2, 68008, Note_on_c, 0, 70, 51
2, 68048, Note_on_c, 0, 70, 0
2, 68048, Note_on_c, 0, 67, 0
2, 68080, Note_on_c, 0, 76, 0
2, 68104, Note_on_c, 0, 73, 67
2, 68140, Note_on_c, 0, 73, 0
2, 68220, Note_on_c, 0, 77, 75
2, 68232, Note_on_c, 0, 68, 40
2, 68236, Note_on_c, 0, 71, 42
2, 68252, Note_on_c, 0, 68, 0
2, 68256, Note_on_c, 0, 71, 0
2, 68272, Note_on_c, 0, 77, 0
2, 68316, Note_on_c, 0, 74, 63
2, 68396, Note_on_c, 0, 74, 0
2, 68420, Note_on_c, 0, 70, 64
2, 68428, Note_on_c, 0, 61, 44
2, 68432, Note_on_c, 0, 64, 47
2, 68456, Note_on_c, 0, 64, 0
2, 68476, Note_on_c, 0, 61, 0
2, 68496, Note_on_c, 0, 70, 0
2, 68520, Note_on_c, 0, 67, 64
2, 68588, Note_on_c, 0, 67, 0
2, 68628, Note_on_c, 0, 71, 72
2, 68628, Control_c, 0, 64, 24
2, 68636, Note_on_c, 0, 62, 50
2, 68636, Note_on_c, 0, 65, 43
2, 68640, Control_c, 0, 64, 72
2, 68648, Control_c, 0, 64, 104
2, 68656, Note_on_c, 0, 62, 0
2, 68656, Control_c, 0, 64, 127
2, 68660, Note_on_c, 0, 65, 0
2, 68716, Note_on_c, 0, 71, 0
2, 68740, Note_on_c, 0, 80, 69
2, 68764, Note_on_c, 0, 80, 0
2, 68804, Control_c, 0, 64, 88
2, 68812, Control_c, 0, 64, 56
2, 68820, Control_c, 0, 64, 24
2, 68828, Control_c, 0, 64, 0
2, 68840, Note_on_c, 0, 46, 49
2, 68880, Note_on_c, 0, 67, 82
2, 68884, Note_on_c, 0, 64, 44
2, 68892, Note_on_c, 0, 61, 43
2, 68900, Control_c, 0, 64, 24
2, 68908, Note_on_c, 0, 64, 0
2, 68908, Control_c, 0, 64, 88
2, 68920, Control_c, 0, 64, 127
2, 68924, Note_on_c, 0, 67, 0
2, 68932, Note_on_c, 0, 46, 0
2, 68964, Note_on_c, 0, 61, 0
2, 69060, Control_c, 0, 64, 88
2, 69072, Control_c, 0, 64, 72
2, 69080, Control_c, 0, 64, 56
2, 69088, Control_c, 0, 64, 40
2, 69096, Control_c, 0, 64, 24
2, 69104, Control_c, 0, 64, 0
2, 69112, Note_on_c, 0, 91, 92
2, 69112, Note_on_c, 0, 82, 63
2, 69116, Note_on_c, 0, 85, 41
2, 69120, Note_on_c, 0, 85, 0
2, 69124, Note_on_c, 0, 82, 0
2, 69144, Note_on_c, 0, 91, 0
2, 69184, Note_on_c, 0, 88, 67
2, 69252, Note_on_c, 0, 88, 0
2, 69284, Note_on_c, 0, 78, 63
2, 69292, Note_on_c, 0, 84, 79
2, 69292, Note_on_c, 0, 75, 63
2, 69316, Note_on_c, 0, 78, 0
2, 69320, Note_on_c, 0, 75, 0
2, 69340, Note_on_c, 0, 84, 0
2, 69388, Note_on_c, 0, 81, 67
2, 69436, Note_on_c, 0, 81, 0
2, 69484, Note_on_c, 0, 85, 71
2, 69488, Control_c, 0, 64, 40
2, 69492, Note_on_c, 0, 79, 62
2, 69496, Control_c, 0, 64, 88
2, 69500, Note_on_c, 0, 76, 52
2, 69504, Control_c, 0, 64, 104
2, 69508, Note_on_c, 0, 79, 0
2, 69516, Note_on_c, 0, 76, 0
2, 69516, Control_c, 0, 64, 127
2, 69556, Note_on_c, 0, 85, 0
2, 69576, Note_on_c, 0, 82, 73
2, 69576, Control_c, 0, 64, 104
2, 69608, Note_on_c, 0, 82, 0
2, 69628, Control_c, 0, 64, 72
2, 69636, Control_c, 0, 64, 56
2, 69644, Control_c, 0, 64, 24
2, 69652, Control_c, 0, 64, 0
2, 69688, Note_on_c, 0, 46, 62
2, 69708, Note_on_c, 0, 54, 48
2, 69728, Note_on_c, 0, 46, 0
2, 69748, Note_on_c, 0, 69, 85
2, 69752, Note_on_c, 0, 63, 56
2, 69756, Control_c, 0, 64, 72
2, 69760, Note_on_c, 0, 60, 63
2, 69764, Control_c, 0, 64, 127
2, 69788, Note_on_c, 0, 63, 0
2, 69792, Note_on_c, 0, 54, 0
2, 69804, Note_on_c, 0, 69, 0
2, 69804, Note_on_c, 0, 60, 0
2, 70020, Note_on_c, 0, 93, 88
2, 70020, Note_on_c, 0, 84, 69
2, 70020, Note_on_c, 0, 87, 59
2, 70044, Note_on_c, 0, 84, 0
2, 70056, Note_on_c, 0, 87, 0
2, 70076, Note_on_c, 0, 93, 0
2, 70120, Control_c, 0, 64, 104
2, 70128, Control_c, 0, 64, 88
2, 70132, Note_on_c, 0, 90, 77
2, 70136, Control_c, 0, 64, 56
2, 70144, Control_c, 0, 64, 40
2, 70156, Control_c, 0, 64, 0
2, 70204, Note_on_c, 0, 90, 0
2, 70228, Note_on_c, 0, 80, 62
2, 70232, Note_on_c, 0, 86, 85
2, 70232, Note_on_c, 0, 77, 64
2, 70260, Note_on_c, 0, 77, 0
2, 70260, Note_on_c, 0, 80, 0
2, 70284, Note_on_c, 0, 86, 0
2, 70320, Note_on_c, 0, 83, 78
2, 70372, Note_on_c, 0, 83, 0
2, 70416, Note_on_c, 0, 87, 77
2, 70428, Note_on_c, 0, 81, 58
2, 70428, Note_on_c, 0, 78, 55
2, 70440, Control_c, 0, 64, 40
2, 70448, Control_c, 0, 64, 56
2, 70456, Note_on_c, 0, 81, 0
2, 70468, Control_c, 0, 64, 72
2, 70472, Note_on_c, 0, 78, 0
2, 70488, Note_on_c, 0, 87, 0
2, 70500, Control_c, 0, 64, 88
2, 70508, Control_c, 0, 64, 104
2, 70512, Note_on_c, 0, 84, 75
2, 70528, Note_on_c, 0, 84, 0
2, 70536, Control_c, 0, 64, 127
2, 70624, Control_c, 0, 64, 104
2, 70632, Control_c, 0, 64, 88
2, 70640, Note_on_c, 0, 75, 51
2, 70640, Note_on_c, 0, 96, 77
2, 70640, Note_on_c, 0, 78, 60
2, 70640, Control_c, 0, 64, 56
2, 70648, Control_c, 0, 64, 40
2, 70656, Control_c, 0, 64, 24
2, 70664, Control_c, 0, 64, 0
2, 70676, Note_on_c, 0, 78, 0
2, 70680, Note_on_c, 0, 75, 0
2, 70708, Note_on_c, 0, 96, 0
2, 70744, Note_on_c, 0, 93, 85
2, 70832, Note_on_c, 0, 93, 0
2, 70852, Note_on_c, 0, 89, 79
2, 70868, Note_on_c, 0, 71, 56
2, 70868, Note_on_c, 0, 68, 51
2, 70904, Note_on_c, 0, 68, 0
2, 70912, Note_on_c, 0, 71, 0
2, 70928, Note_on_c, 0, 89, 0
2, 70948, Note_on_c, 0, 86, 73
2, 71016, Note_on_c, 0, 86, 0
2, 71052, Note_on_c, 0, 90, 78
2, 71052, Note_on_c, 0, 72, 37
2, 71052, Note_on_c, 0, 69, 40
2, 71080, Note_on_c, 0, 69, 0
2, 71088, Note_on_c, 0, 72, 0
2, 71128, Note_on_c, 0, 90, 0
2, 71140, Note_on_c, 0, 87, 78
2, 71168, Note_on_c, 0, 87, 0
2, 71244, Control_c, 0, 64, 24
2, 71252, Control_c, 0, 64, 56
2, 71256, Note_on_c, 0, 99, 77
2, 71264, Note_on_c, 0, 69, 64
2, 71264, Note_on_c, 0, 66, 51
2, 71264, Control_c, 0, 64, 88
2, 71284, Note_on_c, 0, 69, 0
2, 71292, Note_on_c, 0, 66, 0
2, 71312, Control_c, 0, 64, 72
2, 71316, Note_on_c, 0, 99, 0
2, 71324, Control_c, 0, 64, 56
2, 71332, Control_c, 0, 64, 24
2, 71340, Control_c, 0, 64, 0
2, 71360, Note_on_c, 0, 96, 81
2, 71428, Note_on_c, 0, 96, 0
2, 71460, Note_on_c, 0, 92, 81
2, 71472, Note_on_c, 0, 62, 55
2, 71476, Note_on_c, 0, 59, 48
2, 71492, Note_on_c, 0, 62, 0
2, 71500, Note_on_c, 0, 59, 0
2, 71528, Note_on_c, 0, 92, 0
2, 71556, Note_on_c, 0, 89, 77
2, 71620, Note_on_c, 0, 89, 0
2, 71660, Note_on_c, 0, 93, 88
2, 71660, Control_c, 0, 64, 24
2, 71668, Note_on_c, 0, 63, 56
2, 71668, Note_on_c, 0, 60, 51
2, 71668, Control_c, 0, 64, 40
2, 71676, Control_c, 0, 64, 72
2, 71684, Control_c, 0, 64, 88
2, 71700, Control_c, 0, 64, 104
2, 71704, Note_on_c, 0, 60, 0
2, 71708, Note_on_c, 0, 63, 0
2, 71728, Note_on_c, 0, 93, 0
2, 71764, Note_on_c, 0, 90, 69
2, 71820, Note_on_c, 0, 90, 0
2, 71832, Control_c, 0, 64, 88
2, 71840, Control_c, 0, 64, 72
2, 71852, Control_c, 0, 64, 56
2, 71860, Control_c, 0, 64, 24
2, 71868, Control_c, 0, 64, 0
2, 71880, Note_on_c, 0, 100, 93
2, 71892, Note_on_c, 0, 64, 54
2, 71900, Note_on_c, 0, 59, 55
2, 71908, Note_on_c, 0, 56, 33
2, 71920, Control_c, 0, 64, 40
2, 71928, Note_on_c, 0, 59, 0
2, 71928, Control_c, 0, 64, 72
2, 71936, Note_on_c, 0, 56, 0
2, 71936, Note_on_c, 0, 64, 0
2, 71936, Control_c, 0, 64, 88
2, 71944, Control_c, 0, 64, 104
2, 71952, Control_c, 0, 64, 127
2, 71960, Note_on_c, 0, 100, 0
2, 71988, Note_on_c, 0, 87, 81
2, 72024, Note_on_c, 0, 87, 0
2, 72048, Control_c, 0, 64, 104
2, 72056, Control_c, 0, 64, 88
2, 72076, Control_c, 0, 64, 72
2, 72084, Control_c, 0, 64, 56
2, 72092, Control_c, 0, 64, 40
2, 72100, Control_c, 0, 64, 0
2, 72112, Note_on_c, 0, 101, 102
2, 72120, Note_on_c, 0, 65, 48
2, 72124, Note_on_c, 0, 60, 47
2, 72124, Note_on_c, 0, 57, 40
2, 72168, Control_c, 0, 64, 40
2, 72172, Note_on_c, 0, 60, 0
2, 72180, Note_on_c, 0, 57, 0
2, 72180, Note_on_c, 0, 101, 0
2, 72180, Control_c, 0, 64, 72
2, 72188, Note_on_c, 0, 65, 0
2, 72188, Control_c, 0, 64, 88
2, 72196, Control_c, 0, 64, 104
2, 72204, Control_c, 0, 64, 127
2, 72220, Note_on_c, 0, 87, 71
2, 72252, Note_on_c, 0, 87, 0
2, 72324, Control_c, 0, 64, 104
2, 72336, Control_c, 0, 64, 88
2, 72368, Note_on_c, 0, 46, 58
2, 72376, Note_on_c, 0, 34, 51
2, 72396, Control_c, 0, 64, 40
2, 72404, Control_c, 0, 64, 104
2, 72412, Control_c, 0, 64, 127
2, 72432, Note_on_c, 0, 34, 0
2, 72436, Note_on_c, 0, 46, 0
2, 72620, Note_on_c, 0, 98, 94
2, 72620, Note_on_c, 0, 94, 73
2, 72628, Note_on_c, 0, 62, 64
2, 72632, Note_on_c, 0, 50, 63
2, 72728, Note_on_c, 0, 94, 0
2, 72740, Note_on_c, 0, 93, 74
2, 72744, Note_on_c, 0, 98, 0
2, 72744, Note_on_c, 0, 62, 0
2, 72776, Note_on_c, 0, 50, 0
2, 72800, Note_on_c, 0, 93, 0
2, 72844, Note_on_c, 0, 98, 86
2, 72848, Note_on_c, 0, 92, 71
2, 72848, Note_on_c, 0, 60, 47
2, 72852, Note_on_c, 0, 53, 56
2, 72936, Note_on_c, 0, 98, 0
2, 72944, Note_on_c, 0, 92, 0
2, 72964, Note_on_c, 0, 91, 73
2, 73024, Note_on_c, 0, 60, 0
2, 73044, Note_on_c, 0, 91, 0
2, 73068, Note_on_c, 0, 58, 49
2, 73072, Note_on_c, 0, 98, 83
2, 73072, Note_on_c, 0, 90, 64
2, 73104, Note_on_c, 0, 53, 0
2, 73112, Note_on_c, 0, 58, 0
2, 73144, Note_on_c, 0, 90, 0
2, 73148, Note_on_c, 0, 98, 0
2, 73172, Note_on_c, 0, 89, 71
2, 73212, Note_on_c, 0, 44, 28
2, 73228, Note_on_c, 0, 44, 0
2, 73264, Control_c, 0, 64, 104
2, 73268, Note_on_c, 0, 89, 0
2, 73276, Control_c, 0, 64, 56
2, 73284, Control_c, 0, 64, 0
2, 73292, Note_on_c, 0, 98, 87
2, 73296, Note_on_c, 0, 94, 71
2, 73300, Note_on_c, 0, 44, 78
2, 73300, Note_on_c, 0, 32, 70
2, 73328, Note_on_c, 0, 32, 0
2, 73328, Control_c, 0, 64, 40
2, 73332, Note_on_c, 0, 44, 0
2, 73336, Control_c, 0, 64, 88
2, 73348, Control_c, 0, 64, 127
2, 73364, Note_on_c, 0, 94, 0
2, 73364, Note_on_c, 0, 98, 0
2, 73396, Note_on_c, 0, 88, 69
2, 73448, Note_on_c, 0, 88, 0
2, 73516, Note_on_c, 0, 94, 81
2, 73524, Note_on_c, 0, 89, 62
2, 73532, Note_on_c, 0, 50, 69
2, 73532, Note_on_c, 0, 62, 46
2, 73584, Note_on_c, 0, 62, 0
2, 73596, Note_on_c, 0, 94, 0
2, 73600, Note_on_c, 0, 89, 0
2, 73624, Note_on_c, 0, 50, 0
2, 73628, Note_on_c, 0, 84, 60
2, 73672, Note_on_c, 0, 84, 0
2, 73732, Note_on_c, 0, 89, 80
2, 73736, Note_on_c, 0, 53, 72
2, 73744, Note_on_c, 0, 60, 63
2, 73744, Note_on_c, 0, 84, 69
2, 73788, Note_on_c, 0, 53, 0
2, 73792, Note_on_c, 0, 84, 0
2, 73824, Note_on_c, 0, 60, 0
2, 73824, Note_on_c, 0, 89, 0
2, 73840, Note_on_c, 0, 83, 67
2, 73848, Note_on_c, 0, 59, 65
2, 73888, Note_on_c, 0, 83, 0
2, 73900, Note_on_c, 0, 59, 0
2, 73948, Note_on_c, 0, 86, 78
2, 73948, Note_on_c, 0, 58, 57
2, 73952, Note_on_c, 0, 82, 54
2, 73992, Note_on_c, 0, 58, 0
2, 74032, Note_on_c, 0, 82, 0
2, 74036, Note_on_c, 0, 86, 0
2, 74060, Note_on_c, 0, 81, 69
2, 74108, Note_on_c, 0, 81, 0
2, 74168, Control_c, 0, 64, 104
2, 74176, Control_c, 0, 64, 56
2, 74180, Note_on_c, 0, 89, 88
2, 74184, Note_on_c, 0, 82, 66
2, 74188, Control_c, 0, 64, 0
2, 74192, Note_on_c, 0, 42, 66
2, 74196, Note_on_c, 0, 30, 55
2, 74240, Note_on_c, 0, 30, 0
2, 74244, Note_on_c, 0, 42, 0
2, 74244, Control_c, 0, 64, 72
2, 74252, Control_c, 0, 64, 127
2, 74280, Note_on_c, 0, 89, 0
2, 74304, Note_on_c, 0, 82, 0
2, 74308, Note_on_c, 0, 81, 64
2, 74364, Note_on_c, 0, 81, 0
2, 74408, Note_on_c, 0, 86, 80
2, 74412, Note_on_c, 0, 82, 63
2, 74416, Note_on_c, 0, 62, 69
2, 74420, Note_on_c, 0, 50, 59
2, 74496, Note_on_c, 0, 62, 0
2, 74496, Note_on_c, 0, 82, 0
2, 74504, Note_on_c, 0, 86, 0
2, 74516, Note_on_c, 0, 81, 71
2, 74552, Note_on_c, 0, 50, 0
2, 74572, Note_on_c, 0, 81, 0
2, 74624, Note_on_c, 0, 86, 81
2, 74628, Note_on_c, 0, 80, 64
2, 74632, Note_on_c, 0, 60, 62
2, 74632, Note_on_c, 0, 54, 62
2, 74708, Note_on_c, 0, 80, 0
2, 74716, Note_on_c, 0, 86, 0
2, 74732, Note_on_c, 0, 79, 73
2, 74792, Note_on_c, 0, 79, 0
2, 74820, Note_on_c, 0, 60, 0
2, 74844, Note_on_c, 0, 82, 74
2, 74852, Note_on_c, 0, 78, 64
2, 74856, Note_on_c, 0, 58, 48
2, 74888, Note_on_c, 0, 58, 0
2, 74892, Note_on_c, 0, 54, 0
2, 74916, Note_on_c, 0, 78, 0
2, 74924, Note_on_c, 0, 82, 0
2, 74952, Note_on_c, 0, 77, 69
2, 75016, Note_on_c, 0, 77, 0
2, 75044, Control_c, 0, 64, 88
2, 75056, Control_c, 0, 64, 24
2, 75064, Control_c, 0, 64, 0
2, 75068, Note_on_c, 0, 86, 82
2, 75072, Note_on_c, 0, 82, 63
2, 75084, Note_on_c, 0, 29, 78
2, 75084, Note_on_c, 0, 41, 72
2, 75100, Note_on_c, 0, 29, 0
2, 75108, Control_c, 0, 64, 56
2, 75120, Control_c, 0, 64, 127
2, 75136, Note_on_c, 0, 41, 0
2, 75140, Note_on_c, 0, 82, 0
2, 75140, Note_on_c, 0, 86, 0
2, 75168, Note_on_c, 0, 76, 77
2, 75228, Note_on_c, 0, 76, 0
2, 75288, Note_on_c, 0, 82, 73
2, 75296, Note_on_c, 0, 62, 66
2, 75300, Note_on_c, 0, 77, 58
2, 75300, Note_on_c, 0, 50, 63
2, 75368, Note_on_c, 0, 77, 0
2, 75372, Note_on_c, 0, 82, 0
2, 75388, Note_on_c, 0, 62, 0
2, 75392, Note_on_c, 0, 74, 69
2, 75412, Note_on_c, 0, 50, 0
2, 75436, Note_on_c, 0, 74, 0
2, 75512, Note_on_c, 0, 72, 64
2, 75512, Note_on_c, 0, 60, 56
2, 75516, Note_on_c, 0, 56, 49
2, 75516, Note_on_c, 0, 77, 69
2, 75556, Note_on_c, 0, 72, 0
2, 75592, Note_on_c, 0, 60, 0
2, 75592, Note_on_c, 0, 77, 0
2, 75600, Note_on_c, 0, 56, 0
2, 75612, Note_on_c, 0, 71, 64
2, 75612, Note_on_c, 0, 59, 64
2, 75628, Note_on_c, 0, 77, 10
2, 75652, Note_on_c, 0, 77, 0
2, 75664, Note_on_c, 0, 71, 0
2, 75676, Note_on_c, 0, 59, 0
2, 75732, Note_on_c, 0, 70, 51
2, 75732, Note_on_c, 0, 74, 69
2, 75740, Note_on_c, 0, 58, 46
2, 75784, Note_on_c, 0, 58, 0
2, 75840, Note_on_c, 0, 68, 35
2, 75896, Control_c, 0, 64, 88
2, 75976, Note_on_c, 0, 78, 88
2, 75984, Note_on_c, 0, 66, 60
2, 75984, Note_on_c, 0, 70, 69
2, 75988, Note_on_c, 0, 51, 62
2, 75988, Note_on_c, 0, 39, 54
2, 75992, Note_on_c, 0, 70, 0
2, 75992, Control_c, 0, 64, 40
2, 75996, Note_on_c, 0, 68, 0
2, 76000, Control_c, 0, 64, 88
2, 76004, Note_on_c, 0, 74, 0
2, 76008, Control_c, 0, 64, 127
2, 76036, Note_on_c, 0, 39, 0
2, 76040, Note_on_c, 0, 51, 0
2, 76056, Note_on_c, 0, 70, 0
2, 76072, Note_on_c, 0, 66, 0
2, 76088, Note_on_c, 0, 78, 0
2, 76208, Note_on_c, 0, 90, 73
2, 76212, Note_on_c, 0, 87, 77
2, 76224, Note_on_c, 0, 66, 58
2, 76228, Note_on_c, 0, 54, 56
2, 76284, Note_on_c, 0, 87, 0
2, 76296, Note_on_c, 0, 90, 0
2, 76312, Note_on_c, 0, 86, 64
2, 76364, Note_on_c, 0, 66, 0
2, 76368, Note_on_c, 0, 54, 0
2, 76376, Note_on_c, 0, 86, 0
2, 76420, Note_on_c, 0, 90, 77
2, 76424, Note_on_c, 0, 85, 74
2, 76432, Note_on_c, 0, 65, 63
2, 76432, Note_on_c, 0, 58, 46
2, 76500, Note_on_c, 0, 85, 0
2, 76516, Note_on_c, 0, 90, 0
2, 76536, Note_on_c, 0, 84, 75
2, 76604, Note_on_c, 0, 84, 0
2, 76644, Note_on_c, 0, 65, 0
2, 76644, Note_on_c, 0, 90, 70
2, 76644, Note_on_c, 0, 87, 70
2, 76644, Note_on_c, 0, 63, 69
2, 76692, Note_on_c, 0, 63, 0
2, 76692, Note_on_c, 0, 58, 0
2, 76720, Note_on_c, 0, 90, 0
2, 76724, Note_on_c, 0, 87, 0
2, 76756, Note_on_c, 0, 83, 72
2, 76804, Note_on_c, 0, 83, 0
2, 76848, Control_c, 0, 64, 88
2, 76860, Control_c, 0, 64, 24
2, 76868, Control_c, 0, 64, 0
2, 76872, Note_on_c, 0, 90, 86
2, 76880, Note_on_c, 0, 82, 70
2, 76884, Note_on_c, 0, 49, 70
2, 76884, Note_on_c, 0, 37, 63
2, 76928, Note_on_c, 0, 37, 0
2, 76928, Note_on_c, 0, 49, 0
2, 76932, Control_c, 0, 64, 56
2, 76940, Control_c, 0, 64, 127
2, 76968, Note_on_c, 0, 82, 0
2, 76972, Note_on_c, 0, 90, 0
2, 76996, Note_on_c, 0, 81, 69
2, 77044, Note_on_c, 0, 81, 0
2, 77100, Note_on_c, 0, 87, 78
2, 77108, Note_on_c, 0, 66, 69
2, 77108, Note_on_c, 0, 80, 63
2, 77108, Note_on_c, 0, 54, 55
2, 77184, Note_on_c, 0, 80, 0
2, 77196, Note_on_c, 0, 87, 0
2, 77216, Note_on_c, 0, 79, 69
2, 77228, Note_on_c, 0, 66, 0
2, 77252, Note_on_c, 0, 54, 0
2, 77268, Note_on_c, 0, 79, 0
2, 77324, Note_on_c, 0, 87, 77
2, 77328, Note_on_c, 0, 65, 62
2, 77332, Note_on_c, 0, 58, 49
2, 77332, Note_on_c, 0, 78, 63
2, 77404, Note_on_c, 0, 65, 0
2, 77408, Note_on_c, 0, 78, 0
2, 77408, Note_on_c, 0, 58, 0
2, 77416, Note_on_c, 0, 87, 0
2, 77432, Note_on_c, 0, 77, 73
2, 77432, Note_on_c, 0, 64, 74
2, 77492, Note_on_c, 0, 64, 0
2, 77496, Note_on_c, 0, 77, 0
2, 77544, Note_on_c, 0, 82, 70
2, 77548, Note_on_c, 0, 63, 54
2, 77552, Note_on_c, 0, 78, 51
2, 77580, Note_on_c, 0, 63, 0
2, 77628, Note_on_c, 0, 78, 0
2, 77628, Note_on_c, 0, 82, 0
2, 77656, Note_on_c, 0, 76, 71
2, 77708, Note_on_c, 0, 76, 0
2, 77764, Note_on_c, 0, 87, 90
2, 77764, Note_on_c, 0, 78, 74
2, 77764, Note_on_c, 0, 35, 66
2, 77764, Note_on_c, 0, 47, 75
2, 77764, Control_c, 0, 64, 72
2, 77772, Control_c, 0, 64, 24
2, 77780, Control_c, 0, 64, 0
2, 77800, Note_on_c, 0, 35, 0
2, 77820, Note_on_c, 0, 47, 0
2, 77828, Control_c, 0, 64, 40
2, 77832, Control_c, 0, 64, 88
2, 77844, Control_c, 0, 64, 127
2, 77852, Note_on_c, 0, 87, 0
2, 77860, Note_on_c, 0, 78, 0
2, 77892, Note_on_c, 0, 75, 63
2, 77956, Note_on_c, 0, 75, 0
2, 77992, Note_on_c, 0, 82, 82
2, 78000, Note_on_c, 0, 66, 64
2, 78000, Note_on_c, 0, 75, 57
2, 78008, Note_on_c, 0, 54, 52
2, 78072, Note_on_c, 0, 75, 0
2, 78104, Note_on_c, 0, 74, 69
2, 78108, Note_on_c, 0, 82, 0
2, 78124, Note_on_c, 0, 66, 0
2, 78148, Note_on_c, 0, 54, 0
2, 78156, Note_on_c, 0, 74, 0
2, 78212, Note_on_c, 0, 78, 73
2, 78212, Note_on_c, 0, 73, 60
2, 78216, Note_on_c, 0, 65, 67
2, 78216, Note_on_c, 0, 59, 57
2, 78284, Note_on_c, 0, 73, 0
2, 78304, Note_on_c, 0, 78, 0
2, 78324, Note_on_c, 0, 74, 56
2, 78384, Note_on_c, 0, 74, 0
2, 78388, Note_on_c, 0, 65, 0
2, 78432, Note_on_c, 0, 78, 78
2, 78440, Note_on_c, 0, 75, 66
2, 78448, Note_on_c, 0, 63, 28
2, 78512, Note_on_c, 0, 63, 0
2, 78516, Note_on_c, 0, 75, 0
2, 78520, Note_on_c, 0, 59, 0
2, 78528, Note_on_c, 0, 78, 0
2, 78544, Note_on_c, 0, 71, 64
2, 78600, Note_on_c, 0, 71, 0
2, 78648, Control_c, 0, 64, 104
2, 78660, Control_c, 0, 64, 40
2, 78664, Note_on_c, 0, 78, 74
2, 78664, Note_on_c, 0, 75, 62
2, 78668, Control_c, 0, 64, 0
2, 78680, Note_on_c, 0, 46, 57
2, 78696, Note_on_c, 0, 34, 66
2, 78720, Note_on_c, 0, 34, 0
2, 78720, Control_c, 0, 64, 24
2, 78732, Note_on_c, 0, 46, 0
2, 78732, Control_c, 0, 64, 72
2, 78740, Control_c, 0, 64, 127
2, 78760, Note_on_c, 0, 75, 0
2, 78764, Note_on_c, 0, 78, 0
2, 78780, Note_on_c, 0, 70, 63
2, 78844, Note_on_c, 0, 70, 0
2, 78892, Note_on_c, 0, 78, 73
2, 78896, Note_on_c, 0, 66, 64
2, 78896, Note_on_c, 0, 54, 57
2, 78900, Note_on_c, 0, 75, 63
2, 78980, Note_on_c, 0, 75, 0
2, 78992, Note_on_c, 0, 78, 0
2, 79004, Note_on_c, 0, 66, 0
2, 79004, Note_on_c, 0, 69, 66
2, 79048, Note_on_c, 0, 69, 0
2, 79080, Note_on_c, 0, 54, 0
2, 79108, Note_on_c, 0, 75, 70
2, 79108, Note_on_c, 0, 65, 56
2, 79108, Note_on_c, 0, 68, 58
2, 79108, Note_on_c, 0, 59, 56
2, 79164, Note_on_c, 0, 65, 0
2, 79180, Note_on_c, 0, 68, 0
2, 79220, Note_on_c, 0, 64, 66
2, 79220, Note_on_c, 0, 67, 67
2, 79260, Note_on_c, 0, 75, 0
2, 79272, Note_on_c, 0, 67, 0
2, 79280, Note_on_c, 0, 64, 0
2, 79296, Note_on_c, 0, 59, 0
2, 79348, Note_on_c, 0, 70, 60
2, 79348, Note_on_c, 0, 66, 36
2, 79348, Note_on_c, 0, 63, 49
2, 79352, Control_c, 0, 64, 88
2, 79364, Control_c, 0, 64, 56
2, 79372, Control_c, 0, 64, 40
2, 79396, Note_on_c, 0, 63, 0
2, 79400, Control_c, 0, 64, 104
2, 79408, Control_c, 0, 64, 127
2, 79440, Note_on_c, 0, 66, 0
2, 79468, Note_on_c, 0, 63, 55
2, 79508, Note_on_c, 0, 63, 0
2, 79508, Note_on_c, 0, 70, 0
2, 79608, Note_on_c, 0, 32, 52
2, 79620, Control_c, 0, 64, 40
2, 79624, Note_on_c, 0, 44, 33
2, 79628, Control_c, 0, 64, 56
2, 79636, Control_c, 0, 64, 72
2, 79644, Note_on_c, 0, 32, 0
2, 79644, Control_c, 0, 64, 88
2, 79684, Note_on_c, 0, 44, 0
2, 79712, Note_on_c, 0, 44, 43
2, 79724, Control_c, 0, 64, 72
2, 79728, Note_on_c, 0, 44, 0
2, 79740, Note_on_c, 0, 45, 39
2, 79800, Note_on_c, 0, 45, 0
2, 79816, Control_c, 0, 64, 56
2, 79824, Control_c, 0, 64, 40
2, 79832, Control_c, 0, 64, 24
2, 79840, Note_on_c, 0, 44, 42
2, 79840, Control_c, 0, 64, 0
2, 79848, Note_on_c, 0, 95, 67
2, 79848, Note_on_c, 0, 87, 42
2, 79912, Note_on_c, 0, 95, 0
2, 79952, Note_on_c, 0, 46, 46
2, 79956, Note_on_c, 0, 90, 71
2, 79960, Note_on_c, 0, 87, 0
2, 79960, Control_c, 0, 64, 40
2, 79964, Note_on_c, 0, 83, 51
2, 79968, Control_c, 0, 64, 56
2, 79988, Note_on_c, 0, 90, 0
2, 79992, Note_on_c, 0, 83, 0
2, 79996, Note_on_c, 0, 44, 0
2, 80012, Control_c, 0, 64, 40
2, 80020, Control_c, 0, 64, 24
2, 80028, Control_c, 0, 64, 0
2, 80036, Note_on_c, 0, 46, 0
2, 80060, Note_on_c, 0, 47, 51
2, 80084, Control_c, 0, 64, 24
2, 80092, Control_c, 0, 64, 56
2, 80108, Control_c, 0, 64, 72
2, 80140, Note_on_c, 0, 47, 0
2, 80168, Note_on_c, 0, 48, 58
2, 80236, Note_on_c, 0, 48, 0
2, 80256, Control_c, 0, 64, 40
2, 80260, Control_c, 0, 64, 0
2, 80272, Note_on_c, 0, 87, 78
2, 80280, Note_on_c, 0, 47, 59
2, 80284, Note_on_c, 0, 78, 50
2, 80312, Control_c, 0, 64, 40
2, 80320, Control_c, 0, 64, 56
2, 80328, Control_c, 0, 64, 88
2, 80340, Note_on_c, 0, 87, 0
2, 80344, Control_c, 0, 64, 104
2, 80352, Note_on_c, 0, 78, 0
2, 80356, Note_on_c, 0, 47, 0
2, 80376, Control_c, 0, 64, 127
2, 80380, Note_on_c, 0, 75, 52
2, 80384, Note_on_c, 0, 83, 64
2, 80384, Note_on_c, 0, 48, 56
2, 80396, Note_on_c, 0, 83, 0
2, 80412, Note_on_c, 0, 48, 0
2, 80412, Note_on_c, 0, 75, 0
2, 80472, Control_c, 0, 64, 88
2, 80480, Control_c, 0, 64, 56
2, 80488, Control_c, 0, 64, 0
2, 80492, Note_on_c, 0, 49, 62
2, 80512, Note_on_c, 0, 37, 41
2, 80524, Control_c, 0, 64, 24
2, 80532, Note_on_c, 0, 37, 0
2, 80532, Control_c, 0, 64, 56
2, 80540, Control_c, 0, 64, 72
2, 80548, Control_c, 0, 64, 104
2, 80556, Note_on_c, 0, 49, 0
2, 80580, Control_c, 0, 64, 127
2, 80604, Note_on_c, 0, 50, 63
2, 80628, Note_on_c, 0, 50, 0
2, 80684, Control_c, 0, 64, 88
2, 80692, Control_c, 0, 64, 40
2, 80700, Note_on_c, 0, 80, 62
2, 80700, Control_c, 0, 64, 0
2, 80712, Note_on_c, 0, 49, 36
2, 80724, Note_on_c, 0, 71, 42
2, 80760, Note_on_c, 0, 71, 0
2, 80760, Note_on_c, 0, 80, 0
2, 80760, Control_c, 0, 64, 40
2, 80768, Control_c, 0, 64, 72
2, 80776, Control_c, 0, 64, 88
2, 80784, Control_c, 0, 64, 104
2, 80792, Control_c, 0, 64, 127
2, 80800, Note_on_c, 0, 49, 0
2, 80812, Note_on_c, 0, 50, 57
2, 80816, Note_on_c, 0, 77, 48
2, 80816, Note_on_c, 0, 68, 46
2, 80832, Note_on_c, 0, 77, 0
2, 80856, Note_on_c, 0, 68, 0
2, 80888, Control_c, 0, 64, 88
2, 80896, Note_on_c, 0, 50, 0
2, 80896, Control_c, 0, 64, 40
2, 80904, Control_c, 0, 64, 0
2, 80928, Note_on_c, 0, 52, 63
2, 80956, Control_c, 0, 64, 24
2, 80964, Control_c, 0, 64, 56
2, 80972, Control_c, 0, 64, 72
2, 80980, Control_c, 0, 64, 88
2, 80996, Note_on_c, 0, 52, 0
2, 81012, Control_c, 0, 64, 104
2, 81020, Note_on_c, 0, 53, 54
2, 81044, Control_c, 0, 64, 72
2, 81052, Control_c, 0, 64, 40
2, 81060, Note_on_c, 0, 83, 56
2, 81060, Control_c, 0, 64, 0
2, 81100, Note_on_c, 0, 83, 0
2, 81108, Note_on_c, 0, 89, 64
2, 81108, Control_c, 0, 64, 24
2, 81116, Control_c, 0, 64, 56
2, 81124, Control_c, 0, 64, 88
2, 81132, Note_on_c, 0, 53, 0
2, 81132, Control_c, 0, 64, 127
2, 81144, Note_on_c, 0, 97, 86
2, 81148, Note_on_c, 0, 89, 0
2, 81148, Note_on_c, 0, 52, 37
2, 81164, Note_on_c, 0, 97, 0
2, 81236, Note_on_c, 0, 52, 0
2, 81248, Note_on_c, 0, 53, 67
2, 81260, Note_on_c, 0, 53, 0
2, 81336, Control_c, 0, 64, 104
2, 81344, Control_c, 0, 64, 56
2, 81352, Control_c, 0, 64, 0
2, 81372, Note_on_c, 0, 54, 46
2, 81380, Note_on_c, 0, 42, 37
2, 81392, Control_c, 0, 64, 40
2, 81400, Control_c, 0, 64, 72
2, 81404, Note_on_c, 0, 42, 0
2, 81408, Control_c, 0, 64, 104
2, 81416, Control_c, 0, 64, 127
2, 81432, Note_on_c, 0, 54, 0
2, 81472, Note_on_c, 0, 55, 56
2, 81560, Note_on_c, 0, 55, 0
2, 81576, Note_on_c, 0, 94, 79
2, 81584, Note_on_c, 0, 85, 60
2, 81584, Note_on_c, 0, 54, 50
2, 81636, Note_on_c, 0, 94, 0
2, 81644, Note_on_c, 0, 85, 0
2, 81688, Note_on_c, 0, 82, 59
2, 81688, Note_on_c, 0, 89, 80
2, 81692, Note_on_c, 0, 54, 0
2, 81692, Note_on_c, 0, 56, 58
2, 81712, Note_on_c, 0, 89, 0
2, 81716, Note_on_c, 0, 82, 0
2, 81792, Note_on_c, 0, 56, 0
2, 81824, Note_on_c, 0, 57, 50
2, 81908, Note_on_c, 0, 58, 50
2, 81912, Note_on_c, 0, 57, 0
2, 82004, Note_on_c, 0, 58, 0
2, 82004, Control_c, 0, 64, 104
2, 82008, Note_on_c, 0, 85, 74
2, 82012, Control_c, 0, 64, 72
2, 82016, Note_on_c, 0, 57, 54
2, 82020, Control_c, 0, 64, 24
2, 82024, Note_on_c, 0, 77, 54
2, 82028, Control_c, 0, 64, 0
2, 82060, Control_c, 0, 64, 56
2, 82068, Control_c, 0, 64, 88
2, 82072, Note_on_c, 0, 77, 0
2, 82076, Control_c, 0, 64, 127
2, 82080, Note_on_c, 0, 85, 0
2, 82120, Note_on_c, 0, 57, 0
2, 82120, Note_on_c, 0, 82, 57
2, 82128, Note_on_c, 0, 58, 28
2, 82132, Note_on_c, 0, 73, 26
2, 82140, Note_on_c, 0, 58, 0
2, 82152, Note_on_c, 0, 73, 0
2, 82152, Note_on_c, 0, 82, 0
2, 82208, Control_c, 0, 64, 104
2, 82216, Control_c, 0, 64, 56
2, 82224, Control_c, 0, 64, 40
2, 82240, Note_on_c, 0, 47, 62
2, 82248, Control_c, 0, 64, 88
2, 82252, Note_on_c, 0, 59, 46
2, 82256, Control_c, 0, 64, 127
2, 82264, Note_on_c, 0, 47, 0
2, 82308, Note_on_c, 0, 59, 0
2, 82340, Note_on_c, 0, 60, 43
2, 82416, Note_on_c, 0, 60, 0
2, 82436, Note_on_c, 0, 78, 69
2, 82436, Note_on_c, 0, 70, 57
2, 82464, Note_on_c, 0, 59, 28
2, 82476, Note_on_c, 0, 70, 0
2, 82516, Note_on_c, 0, 78, 0
2, 82540, Note_on_c, 0, 59, 0
2, 82548, Note_on_c, 0, 75, 60
2, 82548, Note_on_c, 0, 66, 57
2, 82560, Note_on_c, 0, 60, 48
2, 82588, Note_on_c, 0, 60, 0
2, 82588, Note_on_c, 0, 66, 0
2, 82592, Note_on_c, 0, 75, 0
2, 82644, Control_c, 0, 64, 104
2, 82652, Control_c, 0, 64, 72
2, 82660, Control_c, 0, 64, 56
2, 82672, Note_on_c, 0, 62, 62
2, 82672, Note_on_c, 0, 77, 63
2, 82688, Control_c, 0, 64, 88
2, 82696, Control_c, 0, 64, 127
2, 82712, Note_on_c, 0, 77, 0
2, 82732, Note_on_c, 0, 62, 0
2, 82760, Note_on_c, 0, 63, 47
2, 82784, Note_on_c, 0, 63, 0
2, 82844, Note_on_c, 0, 82, 50
2, 82876, Note_on_c, 0, 82, 0
2, 82876, Note_on_c, 0, 89, 63
2, 82880, Note_on_c, 0, 62, 60
2, 82912, Note_on_c, 0, 95, 89
2, 82916, Note_on_c, 0, 89, 0
2, 82940, Note_on_c, 0, 95, 0
2, 82976, Note_on_c, 0, 62, 0
2, 82996, Note_on_c, 0, 63, 59
2, 83032, Note_on_c, 0, 63, 0
2, 83128, Note_on_c, 0, 65, 51
2, 83128, Note_on_c, 0, 53, 57
2, 83136, Control_c, 0, 64, 56
2, 83148, Control_c, 0, 64, 88
2, 83156, Control_c, 0, 64, 127
2, 83168, Note_on_c, 0, 53, 0
2, 83200, Note_on_c, 0, 65, 0
2, 83224, Note_on_c, 0, 66, 57
2, 83292, Note_on_c, 0, 66, 0
2, 83300, Control_c, 0, 64, 88
2, 83308, Control_c, 0, 64, 56
2, 83316, Control_c, 0, 64, 0
2, 83320, Note_on_c, 0, 65, 41
2, 83324, Note_on_c, 0, 92, 80
2, 83348, Note_on_c, 0, 83, 43
2, 83352, Control_c, 0, 64, 40
2, 83360, Control_c, 0, 64, 56
2, 83368, Control_c, 0, 64, 88
2, 83376, Control_c, 0, 64, 104
2, 83380, Note_on_c, 0, 83, 0
2, 83384, Control_c, 0, 64, 127
2, 83404, Note_on_c, 0, 65, 0
2, 83408, Note_on_c, 0, 92, 0
2, 83436, Note_on_c, 0, 67, 44
2, 83440, Note_on_c, 0, 87, 67
2, 83440, Note_on_c, 0, 80, 51
2, 83464, Note_on_c, 0, 80, 0
2, 83468, Note_on_c, 0, 87, 0
2, 83520, Control_c, 0, 64, 104
2, 83528, Control_c, 0, 64, 56
2, 83536, Control_c, 0, 64, 24
2, 83540, Note_on_c, 0, 67, 0
2, 83544, Note_on_c, 0, 68, 64
2, 83548, Control_c, 0, 64, 0
2, 83572, Control_c, 0, 64, 24
2, 83580, Control_c, 0, 64, 56
2, 83588, Control_c, 0, 64, 72
2, 83596, Control_c, 0, 64, 104
2, 83604, Control_c, 0, 64, 127
2, 83652, Note_on_c, 0, 69, 62
2, 83664, Note_on_c, 0, 68, 0
2, 83732, Control_c, 0, 64, 88
2, 83740, Note_on_c, 0, 69, 0
2, 83744, Control_c, 0, 64, 56
2, 83748, Note_on_c, 0, 87, 81
2, 83752, Control_c, 0, 64, 24
2, 83756, Note_on_c, 0, 80, 51
2, 83760, Control_c, 0, 64, 0
2, 83764, Note_on_c, 0, 68, 37
2, 83812, Control_c, 0, 64, 40
2, 83816, Control_c, 0, 64, 72
2, 83824, Note_on_c, 0, 80, 0
2, 83824, Control_c, 0, 64, 104
2, 83832, Note_on_c, 0, 87, 0
2, 83836, Control_c, 0, 64, 127
2, 83860, Note_on_c, 0, 83, 72
2, 83864, Note_on_c, 0, 69, 43
2, 83868, Note_on_c, 0, 68, 0
2, 83868, Note_on_c, 0, 77, 44
2, 83880, Note_on_c, 0, 69, 0
2, 83884, Note_on_c, 0, 77, 0
2, 83888, Note_on_c, 0, 83, 0
2, 83940, Control_c, 0, 64, 88
2, 83948, Control_c, 0, 64, 40
2, 83956, Control_c, 0, 64, 0
2, 83968, Note_on_c, 0, 58, 50
2, 83976, Note_on_c, 0, 70, 39
2, 83980, Control_c, 0, 64, 24
2, 83988, Control_c, 0, 64, 56
2, 83996, Control_c, 0, 64, 88
2, 84004, Control_c, 0, 64, 127
2, 84008, Note_on_c, 0, 58, 0
2, 84036, Note_on_c, 0, 70, 0
2, 84072, Note_on_c, 0, 71, 50
2, 84140, Note_on_c, 0, 80, 48
2, 84140, Note_on_c, 0, 74, 46
2, 84160, Control_c, 0, 64, 88
2, 84168, Control_c, 0, 64, 72
2, 84176, Note_on_c, 0, 71, 0
2, 84176, Control_c, 0, 64, 40
2, 84180, Note_on_c, 0, 74, 0
2, 84180, Note_on_c, 0, 80, 0
2, 84180, Note_on_c, 0, 70, 51
2, 84184, Control_c, 0, 64, 24
2, 84192, Control_c, 0, 64, 0
2, 84208, Control_c, 0, 64, 24
2, 84220, Control_c, 0, 64, 40
2, 84228, Control_c, 0, 64, 72
2, 84236, Control_c, 0, 64, 88
2, 84244, Control_c, 0, 64, 104
2, 84252, Control_c, 0, 64, 127
2, 84256, Note_on_c, 0, 70, 0
2, 84264, Note_on_c, 0, 73, 51
2, 84264, Note_on_c, 0, 76, 57
2, 84304, Note_on_c, 0, 76, 0
2, 84340, Control_c, 0, 64, 104
2, 84348, Control_c, 0, 64, 72
2, 84356, Control_c, 0, 64, 40
2, 84364, Note_on_c, 0, 73, 0
2, 84364, Control_c, 0, 64, 0
2, 84384, Note_on_c, 0, 74, 54
2, 84400, Control_c, 0, 64, 56
2, 84404, Control_c, 0, 64, 72
2, 84416, Control_c, 0, 64, 104
2, 84424, Control_c, 0, 64, 127
2, 84468, Note_on_c, 0, 74, 0
2, 84476, Note_on_c, 0, 73, 52
2, 84568, Note_on_c, 0, 73, 0
2, 84576, Control_c, 0, 64, 88
2, 84588, Note_on_c, 0, 74, 66
2, 84588, Note_on_c, 0, 94, 82
2, 84588, Note_on_c, 0, 80, 63
2, 84588, Control_c, 0, 64, 56
2, 84596, Control_c, 0, 64, 40
2, 84604, Control_c, 0, 64, 24
2, 84608, Control_c, 0, 64, 0
2, 84628, Note_on_c, 0, 80, 0
2, 84628, Note_on_c, 0, 94, 0
2, 84696, Note_on_c, 0, 74, 0
2, 84696, Note_on_c, 0, 70, 54
2, 84748, Note_on_c, 0, 70, 0
2, 84816, Note_on_c, 0, 75, 63
2, 84824, Note_on_c, 0, 63, 50
2, 84852, Control_c, 0, 64, 24
2, 84864, Control_c, 0, 64, 40
2, 84880, Control_c, 0, 64, 56
2, 84884, Note_on_c, 0, 75, 0
2, 84904, Control_c, 0, 64, 72
2, 84920, Note_on_c, 0, 74, 65
2, 84932, Control_c, 0, 64, 88
2, 84968, Control_c, 0, 64, 104
2, 84976, Note_on_c, 0, 74, 0
2, 84992, Control_c, 0, 64, 72
2, 85000, Control_c, 0, 64, 56
2, 85008, Control_c, 0, 64, 0
2, 85024, Note_on_c, 0, 90, 77
2, 85024, Note_on_c, 0, 73, 60
2, 85032, Note_on_c, 0, 82, 60
2, 85080, Note_on_c, 0, 82, 0
2, 85104, Note_on_c, 0, 90, 0
2, 85120, Note_on_c, 0, 73, 0
2, 85136, Note_on_c, 0, 72, 72
2, 85140, Note_on_c, 0, 87, 74
2, 85144, Note_on_c, 0, 78, 49
2, 85196, Note_on_c, 0, 87, 0
2, 85200, Note_on_c, 0, 78, 0
2, 85216, Note_on_c, 0, 72, 0
2, 85248, Note_on_c, 0, 71, 49
2, 85316, Note_on_c, 0, 71, 0
2, 85344, Note_on_c, 0, 70, 55
2, 85424, Note_on_c, 0, 63, 0
2, 85456, Note_on_c, 0, 75, 50
2, 85460, Note_on_c, 0, 66, 50
2, 85464, Note_on_c, 0, 70, 0
2, 85464, Note_on_c, 0, 82, 57
2, 85516, Note_on_c, 0, 75, 0
2, 85528, Control_c, 0, 64, 40
2, 85536, Control_c, 0, 64, 72
2, 85544, Control_c, 0, 64, 88
2, 85548, Note_on_c, 0, 82, 0
2, 85556, Control_c, 0, 64, 127
2, 85560, Note_on_c, 0, 87, 81
2, 85564, Note_on_c, 0, 63, 56
2, 85572, Note_on_c, 0, 78, 41
2, 85584, Note_on_c, 0, 66, 0
2, 85596, Note_on_c, 0, 78, 0
2, 85600, Note_on_c, 0, 63, 0
2, 85612, Note_on_c, 0, 87, 0
2, 85648, Control_c, 0, 64, 56
2, 85660, Control_c, 0, 64, 0
2, 85676, Note_on_c, 0, 90, 88
2, 85680, Note_on_c, 0, 59, 60
2, 85680, Note_on_c, 0, 78, 66
2, 85688, Note_on_c, 0, 69, 48
2, 85700, Control_c, 0, 64, 24
2, 85708, Control_c, 0, 64, 56
2, 85744, Control_c, 0, 64, 40
2, 85752, Note_on_c, 0, 90, 0
2, 85756, Control_c, 0, 64, 24
2, 85764, Control_c, 0, 64, 0
2, 85768, Note_on_c, 0, 69, 0
2, 85784, Note_on_c, 0, 89, 90
2, 85792, Note_on_c, 0, 68, 50
2, 85868, Note_on_c, 0, 89, 0
2, 85880, Note_on_c, 0, 68, 0
2, 85892, Note_on_c, 0, 88, 85
2, 85896, Note_on_c, 0, 67, 71
2, 85908, Control_c, 0, 64, 24
2, 85916, Control_c, 0, 64, 56
2, 85924, Control_c, 0, 64, 72
2, 85936, Control_c, 0, 64, 88
2, 85944, Control_c, 0, 64, 104
2, 85952, Control_c, 0, 64, 127
2, 85972, Note_on_c, 0, 67, 0
2, 85972, Note_on_c, 0, 88, 0
2, 85972, Note_on_c, 0, 78, 0
2, 85984, Note_on_c, 0, 87, 92
2, 85992, Note_on_c, 0, 66, 65
2, 86008, Note_on_c, 0, 59, 0
2, 86020, Note_on_c, 0, 87, 0
2, 86056, Control_c, 0, 64, 104
2, 86060, Note_on_c, 0, 66, 0
2, 86064, Control_c, 0, 64, 88
2, 86072, Control_c, 0, 64, 56
2, 86080, Control_c, 0, 64, 0
2, 86108, Note_on_c, 0, 93, 102
2, 86112, Note_on_c, 0, 65, 66
2, 86112, Note_on_c, 0, 81, 77
2, 86112, Note_on_c, 0, 59, 62
2, 86196, Note_on_c, 0, 93, 0
2, 86212, Note_on_c, 0, 92, 97
2, 86216, Note_on_c, 0, 64, 73
2, 86232, Note_on_c, 0, 65, 0
2, 86296, Note_on_c, 0, 92, 0
2, 86300, Note_on_c, 0, 64, 0
2, 86320, Note_on_c, 0, 63, 60
2, 86328, Note_on_c, 0, 91, 96
2, 86332, Control_c, 0, 64, 24
2, 86344, Control_c, 0, 64, 40
2, 86360, Control_c, 0, 64, 56
2, 86372, Note_on_c, 0, 81, 0
2, 86384, Control_c, 0, 64, 72
2, 86396, Note_on_c, 0, 63, 0
2, 86396, Control_c, 0, 64, 88
2, 86404, Control_c, 0, 64, 104
2, 86412, Note_on_c, 0, 91, 0
2, 86420, Note_on_c, 0, 62, 71
2, 86420, Control_c, 0, 64, 127
2, 86428, Note_on_c, 0, 90, 88
2, 86444, Note_on_c, 0, 59, 0
2, 86456, Note_on_c, 0, 62, 0
2, 86460, Note_on_c, 0, 90, 0
2, 86524, Control_c, 0, 64, 104
2, 86532, Control_c, 0, 64, 72
2, 86540, Control_c, 0, 64, 24
2, 86552, Control_c, 0, 64, 0
2, 86560, Note_on_c, 0, 97, 103
2, 86564, Note_on_c, 0, 85, 81
2, 86572, Note_on_c, 0, 49, 64
2, 86572, Note_on_c, 0, 61, 55
2, 86608, Control_c, 0, 64, 24
2, 86620, Control_c, 0, 64, 88
2, 86624, Control_c, 0, 64, 127
2, 86644, Note_on_c, 0, 97, 0
2, 86648, Note_on_c, 0, 49, 0
2, 86660, Note_on_c, 0, 85, 0
2, 86660, Note_on_c, 0, 61, 0
2, 86796, Note_on_c, 0, 86, 93
2, 86800, Control_c, 0, 64, 88
2, 86804, Note_on_c, 0, 71, 56
2, 86808, Note_on_c, 0, 80, 57
2, 86808, Control_c, 0, 64, 40
2, 86812, Note_on_c, 0, 77, 54
2, 86816, Control_c, 0, 64, 0
2, 86860, Note_on_c, 0, 80, 0
2, 86896, Note_on_c, 0, 86, 0
2, 86900, Note_on_c, 0, 71, 0
2, 86908, Note_on_c, 0, 83, 89
2, 86916, Note_on_c, 0, 74, 62
2, 86976, Note_on_c, 0, 77, 0
2, 86980, Note_on_c, 0, 74, 0
2, 87024, Note_on_c, 0, 79, 92
2, 87024, Note_on_c, 0, 70, 55
2, 87032, Note_on_c, 0, 83, 0
2, 87104, Note_on_c, 0, 70, 0
2, 87124, Note_on_c, 0, 73, 52
2, 87124, Note_on_c, 0, 76, 83
2, 87128, Note_on_c, 0, 79, 0
2, 87200, Note_on_c, 0, 73, 0
2, 87232, Note_on_c, 0, 76, 0
2, 87232, Note_on_c, 0, 80, 82
2, 87240, Note_on_c, 0, 71, 51
2, 87328, Note_on_c, 0, 71, 0
2, 87328, Note_on_c, 0, 80, 0
2, 87340, Note_on_c, 0, 77, 87
2, 87344, Note_on_c, 0, 74, 73
2, 87372, Note_on_c, 0, 74, 0
2, 87444, Note_on_c, 0, 85, 88
2, 87444, Note_on_c, 0, 64, 66
2, 87464, Note_on_c, 0, 64, 0
2, 87536, Note_on_c, 0, 77, 0
2, 87548, Note_on_c, 0, 85, 0
2, 87548, Note_on_c, 0, 82, 79
2, 87552, Note_on_c, 0, 67, 63
2, 87636, Note_on_c, 0, 67, 0
2, 87652, Note_on_c, 0, 82, 0
2, 87656, Note_on_c, 0, 86, 94
2, 87672, Note_on_c, 0, 65, 51
2, 87692, Control_c, 0, 64, 24
2, 87700, Control_c, 0, 64, 56
2, 87708, Control_c, 0, 64, 72
2, 87716, Control_c, 0, 64, 88
2, 87724, Control_c, 0, 64, 104
2, 87732, Note_on_c, 0, 65, 0
2, 87732, Control_c, 0, 64, 127
2, 87748, Note_on_c, 0, 86, 0
2, 87764, Note_on_c, 0, 68, 55
2, 87764, Note_on_c, 0, 83, 80
2, 87828, Note_on_c, 0, 68, 0
2, 87836, Note_on_c, 0, 83, 0
2, 87840, Control_c, 0, 64, 104
2, 87848, Control_c, 0, 64, 72
2, 87856, Control_c, 0, 64, 40
2, 87864, Control_c, 0, 64, 0
2, 87872, Note_on_c, 0, 91, 96
2, 87876, Note_on_c, 0, 58, 50
2, 87924, Control_c, 0, 64, 40
2, 87932, Control_c, 0, 64, 72
2, 87940, Control_c, 0, 64, 88
2, 87952, Control_c, 0, 64, 104
2, 87960, Control_c, 0, 64, 127
2, 87976, Note_on_c, 0, 58, 0
2, 87980, Note_on_c, 0, 88, 85
2, 87984, Note_on_c, 0, 91, 0
2, 87984, Note_on_c, 0, 61, 49
2, 88048, Note_on_c, 0, 88, 0
2, 88080, Control_c, 0, 64, 72
2, 88084, Note_on_c, 0, 61, 0
2, 88088, Control_c, 0, 64, 40
2, 88092, Note_on_c, 0, 59, 51
2, 88092, Note_on_c, 0, 92, 96
2, 88096, Control_c, 0, 64, 0
2, 88124, Control_c, 0, 64, 24
2, 88132, Control_c, 0, 64, 56
2, 88140, Control_c, 0, 64, 88
2, 88152, Control_c, 0, 64, 127
2, 88196, Note_on_c, 0, 92, 0
2, 88200, Note_on_c, 0, 89, 85
2, 88204, Note_on_c, 0, 59, 0
2, 88204, Note_on_c, 0, 62, 63
2, 88224, Note_on_c, 0, 62, 0
2, 88292, Note_on_c, 0, 89, 0
2, 88304, Control_c, 0, 64, 72
2, 88312, Note_on_c, 0, 98, 101
2, 88312, Control_c, 0, 64, 24
2, 88320, Note_on_c, 0, 59, 67
2, 88324, Control_c, 0, 64, 0
2, 88360, Control_c, 0, 64, 40
2, 88368, Control_c, 0, 64, 72
2, 88376, Control_c, 0, 64, 127
2, 88400, Note_on_c, 0, 98, 0
2, 88420, Note_on_c, 0, 59, 0
2, 88420, Note_on_c, 0, 86, 74
2, 88428, Note_on_c, 0, 49, 66
2, 88432, Note_on_c, 0, 89, 75
2, 88480, Note_on_c, 0, 86, 0
2, 88520, Control_c, 0, 64, 72
2, 88528, Note_on_c, 0, 97, 94
2, 88528, Control_c, 0, 64, 24
2, 88532, Note_on_c, 0, 89, 0
2, 88532, Note_on_c, 0, 49, 0
2, 88536, Note_on_c, 0, 57, 60
2, 88540, Control_c, 0, 64, 0
2, 88608, Control_c, 0, 64, 56
2, 88616, Control_c, 0, 64, 104
2, 88624, Control_c, 0, 64, 127
2, 88632, Note_on_c, 0, 57, 0
2, 88636, Note_on_c, 0, 49, 63
2, 88636, Note_on_c, 0, 85, 60
2, 88644, Note_on_c, 0, 89, 73
2, 88648, Note_on_c, 0, 97, 0
2, 88708, Note_on_c, 0, 85, 0
2, 88712, Control_c, 0, 64, 104
2, 88720, Control_c, 0, 64, 40
2, 88728, Control_c, 0, 64, 0
2, 88752, Note_on_c, 0, 49, 0
2, 88752, Note_on_c, 0, 89, 0
2, 88752, Note_on_c, 0, 95, 100
2, 88756, Note_on_c, 0, 56, 42
2, 88792, Control_c, 0, 64, 56
2, 88800, Control_c, 0, 64, 88
2, 88808, Control_c, 0, 64, 127
2, 88844, Note_on_c, 0, 56, 0
2, 88848, Note_on_c, 0, 95, 0
2, 88860, Note_on_c, 0, 83, 69
2, 88860, Note_on_c, 0, 49, 54
2, 88864, Note_on_c, 0, 89, 69
2, 88908, Note_on_c, 0, 89, 0
2, 88936, Note_on_c, 0, 83, 0
2, 88948, Control_c, 0, 64, 104
2, 88956, Control_c, 0, 64, 72
2, 88964, Control_c, 0, 64, 24
2, 88972, Note_on_c, 0, 94, 88
2, 88972, Control_c, 0, 64, 0
2, 88980, Note_on_c, 0, 49, 0
2, 88980, Note_on_c, 0, 55, 52
2, 89032, Control_c, 0, 64, 56
2, 89040, Control_c, 0, 64, 104
2, 89048, Control_c, 0, 64, 127
2, 89060, Note_on_c, 0, 55, 0
2, 89080, Note_on_c, 0, 94, 0
2, 89080, Note_on_c, 0, 85, 64
2, 89080, Note_on_c, 0, 49, 48
2, 89084, Note_on_c, 0, 82, 48
2, 89144, Note_on_c, 0, 82, 0
2, 89164, Note_on_c, 0, 85, 0
2, 89172, Control_c, 0, 64, 104
2, 89180, Control_c, 0, 64, 40
2, 89188, Note_on_c, 0, 93, 101
2, 89188, Control_c, 0, 64, 0
2, 89192, Note_on_c, 0, 49, 0
2, 89192, Note_on_c, 0, 54, 54
2, 89232, Control_c, 0, 64, 56
2, 89240, Control_c, 0, 64, 88
2, 89248, Control_c, 0, 64, 127
2, 89260, Note_on_c, 0, 54, 0
2, 89264, Note_on_c, 0, 93, 0
2, 89292, Note_on_c, 0, 49, 52
2, 89300, Note_on_c, 0, 81, 64
2, 89304, Note_on_c, 0, 84, 71
2, 89348, Note_on_c, 0, 81, 0
2, 89396, Control_c, 0, 64, 56
2, 89400, Note_on_c, 0, 84, 0
2, 89404, Control_c, 0, 64, 0
2, 89408, Note_on_c, 0, 92, 94
2, 89412, Note_on_c, 0, 49, 0
2, 89416, Note_on_c, 0, 57, 59
2, 89448, Control_c, 0, 64, 40
2, 89456, Control_c, 0, 64, 72
2, 89464, Control_c, 0, 64, 127
2, 89504, Note_on_c, 0, 92, 0
2, 89508, Note_on_c, 0, 57, 0
2, 89528, Note_on_c, 0, 49, 57
2, 89528, Note_on_c, 0, 84, 64
2, 89532, Note_on_c, 0, 80, 48
2, 89596, Control_c, 0, 64, 104
2, 89600, Note_on_c, 0, 49, 0
2, 89604, Control_c, 0, 64, 40
2, 89608, Note_on_c, 0, 80, 0
2, 89612, Note_on_c, 0, 84, 0
2, 89612, Control_c, 0, 64, 0
2, 89624, Note_on_c, 0, 63, 69
2, 89624, Note_on_c, 0, 90, 89
2, 89636, Control_c, 0, 64, 40
2, 89648, Control_c, 0, 64, 72
2, 89656, Control_c, 0, 64, 127
2, 89684, Note_on_c, 0, 63, 0
2, 89728, Note_on_c, 0, 90, 0
2, 89740, Note_on_c, 0, 84, 63
2, 89740, Note_on_c, 0, 49, 62
2, 89740, Note_on_c, 0, 78, 42
2, 89756, Note_on_c, 0, 84, 0
2, 89764, Note_on_c, 0, 78, 0
2, 89808, Note_on_c, 0, 49, 0
2, 89828, Control_c, 0, 64, 88
2, 89836, Control_c, 0, 64, 24
2, 89844, Control_c, 0, 64, 0
2, 89852, Note_on_c, 0, 89, 96
2, 89860, Note_on_c, 0, 77, 67
2, 89860, Note_on_c, 0, 85, 59
2, 89872, Control_c, 0, 64, 72
2, 89876, Note_on_c, 0, 68, 54
2, 89876, Note_on_c, 0, 61, 59
2, 89880, Control_c, 0, 64, 104
2, 89888, Control_c, 0, 64, 127
2, 89900, Note_on_c, 0, 68, 0
2, 89916, Note_on_c, 0, 61, 0
2, 89932, Note_on_c, 0, 89, 0
2, 89964, Note_on_c, 0, 85, 0
2, 89968, Note_on_c, 0, 77, 0
2, 89984, Note_on_c, 0, 37, 58
2, 90000, Note_on_c, 0, 37, 0
2, 90068, Control_c, 0, 64, 88
2, 90080, Control_c, 0, 64, 56
2, 90088, Control_c, 0, 64, 24
2, 90092, Note_on_c, 0, 74, 79
2, 90096, Note_on_c, 0, 65, 54
2, 90096, Control_c, 0, 64, 0
2, 90108, Note_on_c, 0, 59, 35
2, 90108, Note_on_c, 0, 68, 29
2, 90156, Note_on_c, 0, 68, 0
2, 90176, Note_on_c, 0, 59, 0
2, 90176, Note_on_c, 0, 74, 0
2, 90196, Note_on_c, 0, 71, 71
2, 90204, Note_on_c, 0, 62, 58
2, 90212, Note_on_c, 0, 65, 0
2, 90256, Note_on_c, 0, 62, 0
2, 90296, Note_on_c, 0, 71, 0
2, 90300, Note_on_c, 0, 67, 79
2, 90304, Note_on_c, 0, 58, 54
2, 90388, Note_on_c, 0, 58, 0
2, 90404, Note_on_c, 0, 67, 0
2, 90404, Note_on_c, 0, 64, 64
2, 90408, Note_on_c, 0, 61, 43
2, 90480, Note_on_c, 0, 61, 0
2, 90504, Note_on_c, 0, 64, 0
2, 90512, Note_on_c, 0, 68, 62
2, 90520, Note_on_c, 0, 59, 43
2, 90596, Note_on_c, 0, 59, 0
2, 90604, Note_on_c, 0, 68, 0
2, 90616, Note_on_c, 0, 62, 64
2, 90620, Note_on_c, 0, 65, 67
2, 90696, Note_on_c, 0, 62, 0
2, 90724, Note_on_c, 0, 73, 81
2, 90732, Note_on_c, 0, 52, 65
2, 90816, Note_on_c, 0, 65, 0
2, 90832, Note_on_c, 0, 52, 0
2, 90836, Note_on_c, 0, 70, 74
2, 90844, Note_on_c, 0, 73, 0
2, 90848, Note_on_c, 0, 55, 50
2, 90936, Note_on_c, 0, 55, 0
2, 90936, Note_on_c, 0, 70, 0
2, 90940, Note_on_c, 0, 74, 88
2, 90960, Note_on_c, 0, 53, 47
2, 91024, Note_on_c, 0, 53, 0
2, 91032, Control_c, 0, 64, 40
2, 91036, Control_c, 0, 64, 72
2, 91044, Note_on_c, 0, 74, 0
2, 91048, Control_c, 0, 64, 104
2, 91056, Note_on_c, 0, 71, 71
2, 91056, Note_on_c, 0, 56, 50
2, 91056, Control_c, 0, 64, 127
2, 91124, Control_c, 0, 64, 88
2, 91132, Control_c, 0, 64, 56
2, 91140, Note_on_c, 0, 71, 0
2, 91140, Control_c, 0, 64, 24
2, 91152, Control_c, 0, 64, 0
2, 91156, Note_on_c, 0, 56, 0
2, 91160, Note_on_c, 0, 79, 94
2, 91172, Note_on_c, 0, 46, 46
2, 91188, Control_c, 0, 64, 24
2, 91196, Control_c, 0, 64, 40
2, 91204, Control_c, 0, 64, 72
2, 91212, Control_c, 0, 64, 88
2, 91248, Note_on_c, 0, 46, 0
2, 91248, Control_c, 0, 64, 104
2, 91264, Note_on_c, 0, 79, 0
2, 91268, Note_on_c, 0, 76, 75
2, 91268, Note_on_c, 0, 49, 55
2, 91280, Control_c, 0, 64, 127
2, 91332, Note_on_c, 0, 76, 0
2, 91340, Control_c, 0, 64, 104
2, 91348, Control_c, 0, 64, 72
2, 91360, Control_c, 0, 64, 40
2, 91364, Note_on_c, 0, 49, 0
2, 91368, Control_c, 0, 64, 0
2, 91372, Note_on_c, 0, 80, 89
2, 91380, Note_on_c, 0, 47, 52
2, 91404, Control_c, 0, 64, 24
2, 91412, Control_c, 0, 64, 56
2, 91420, Control_c, 0, 64, 88
2, 91428, Control_c, 0, 64, 127
2, 91472, Note_on_c, 0, 80, 0
2, 91476, Note_on_c, 0, 77, 79
2, 91480, Note_on_c, 0, 50, 51
2, 91484, Note_on_c, 0, 47, 0
2, 91504, Note_on_c, 0, 50, 0
2, 91568, Control_c, 0, 64, 88
2, 91576, Note_on_c, 0, 77, 0
2, 91576, Control_c, 0, 64, 40
2, 91584, Control_c, 0, 64, 0
2, 91588, Note_on_c, 0, 86, 95
2, 91596, Note_on_c, 0, 47, 66
2, 91620, Control_c, 0, 64, 24
2, 91628, Control_c, 0, 64, 56
2, 91636, Control_c, 0, 64, 88
2, 91644, Control_c, 0, 64, 127
2, 91676, Note_on_c, 0, 86, 0
2, 91692, Note_on_c, 0, 47, 0
2, 91696, Note_on_c, 0, 74, 62
2, 91700, Note_on_c, 0, 77, 73
2, 91704, Note_on_c, 0, 37, 52
2, 91728, Note_on_c, 0, 74, 0
2, 91784, Control_c, 0, 64, 104
2, 91792, Note_on_c, 0, 77, 0
2, 91792, Control_c, 0, 64, 56
2, 91796, Note_on_c, 0, 37, 0
2, 91800, Note_on_c, 0, 85, 90
2, 91800, Control_c, 0, 64, 24
2, 91808, Control_c, 0, 64, 0
2, 91816, Note_on_c, 0, 45, 67
2, 91844, Control_c, 0, 64, 24
2, 91852, Control_c, 0, 64, 72
2, 91860, Control_c, 0, 64, 104
2, 91868, Control_c, 0, 64, 127
2, 91892, Note_on_c, 0, 45, 0
2, 91908, Note_on_c, 0, 85, 0
2, 91908, Note_on_c, 0, 37, 52
2, 91912, Note_on_c, 0, 77, 74
2, 91912, Note_on_c, 0, 73, 54
2, 91972, Note_on_c, 0, 73, 0
2, 92000, Control_c, 0, 64, 72
2, 92008, Note_on_c, 0, 77, 0
2, 92008, Control_c, 0, 64, 0
2, 92012, Note_on_c, 0, 37, 0
2, 92020, Note_on_c, 0, 83, 94
2, 92024, Note_on_c, 0, 44, 51
2, 92084, Control_c, 0, 64, 24
2, 92092, Control_c, 0, 64, 56
2, 92104, Control_c, 0, 64, 104
2, 92112, Note_on_c, 0, 83, 0
2, 92112, Control_c, 0, 64, 127
2, 92120, Note_on_c, 0, 44, 0
2, 92128, Note_on_c, 0, 37, 50
2, 92128, Note_on_c, 0, 77, 73
2, 92128, Note_on_c, 0, 71, 64
2, 92196, Note_on_c, 0, 71, 0
2, 92212, Note_on_c, 0, 77, 0
2, 92216, Control_c, 0, 64, 56
2, 92224, Control_c, 0, 64, 0
2, 92236, Note_on_c, 0, 37, 0
2, 92236, Note_on_c, 0, 82, 83
2, 92252, Note_on_c, 0, 43, 50
2, 92292, Control_c, 0, 64, 24
2, 92300, Control_c, 0, 64, 72
2, 92308, Control_c, 0, 64, 104
2, 92320, Control_c, 0, 64, 127
2, 92336, Note_on_c, 0, 43, 0
2, 92344, Note_on_c, 0, 37, 44
2, 92352, Note_on_c, 0, 73, 60
2, 92356, Note_on_c, 0, 82, 0
2, 92356, Note_on_c, 0, 70, 48
2, 92412, Note_on_c, 0, 70, 0
2, 92432, Control_c, 0, 64, 72
2, 92440, Note_on_c, 0, 73, 0
2, 92440, Control_c, 0, 64, 24
2, 92448, Control_c, 0, 64, 0
2, 92452, Note_on_c, 0, 37, 0
2, 92452, Note_on_c, 0, 81, 94
2, 92456, Note_on_c, 0, 42, 56
2, 92500, Control_c, 0, 64, 24
2, 92508, Control_c, 0, 64, 56
2, 92516, Control_c, 0, 64, 104
2, 92528, Control_c, 0, 64, 127
2, 92548, Note_on_c, 0, 81, 0
2, 92560, Note_on_c, 0, 42, 0
2, 92560, Note_on_c, 0, 37, 52
2, 92564, Note_on_c, 0, 72, 70
2, 92572, Note_on_c, 0, 69, 47
2, 92624, Note_on_c, 0, 69, 0
2, 92640, Control_c, 0, 64, 88
2, 92648, Control_c, 0, 64, 40
2, 92656, Note_on_c, 0, 72, 0
2, 92656, Note_on_c, 0, 37, 0
2, 92656, Control_c, 0, 64, 0
2, 92660, Note_on_c, 0, 80, 95
2, 92676, Note_on_c, 0, 45, 55
2, 92708, Control_c, 0, 64, 24
2, 92716, Control_c, 0, 64, 72
2, 92724, Control_c, 0, 64, 104
2, 92732, Control_c, 0, 64, 127
2, 92752, Note_on_c, 0, 45, 0
2, 92776, Note_on_c, 0, 37, 48
2, 92780, Note_on_c, 0, 72, 59
2, 92784, Note_on_c, 0, 80, 0
2, 92784, Note_on_c, 0, 68, 36
2, 92848, Note_on_c, 0, 37, 0
2, 92856, Control_c, 0, 64, 72
2, 92864, Note_on_c, 0, 68, 0
2, 92864, Note_on_c, 0, 72, 0
2, 92864, Control_c, 0, 64, 24
2, 92872, Note_on_c, 0, 78, 92
2, 92872, Control_c, 0, 64, 0
2, 92876, Note_on_c, 0, 51, 50
2, 92908, Control_c, 0, 64, 40
2, 92916, Control_c, 0, 64, 72
2, 92924, Control_c, 0, 64, 127
2, 92948, Note_on_c, 0, 51, 0
2, 92972, Note_on_c, 0, 78, 0
2, 92984, Note_on_c, 0, 72, 56
2, 92988, Note_on_c, 0, 66, 32
2, 92992, Note_on_c, 0, 37, 49
2, 93020, Note_on_c, 0, 72, 0
2, 93028, Note_on_c, 0, 66, 0
2, 93064, Control_c, 0, 64, 88
2, 93072, Control_c, 0, 64, 24
2, 93080, Note_on_c, 0, 77, 98
2, 93080, Control_c, 0, 64, 0
2, 93092, Note_on_c, 0, 37, 0
2, 93092, Note_on_c, 0, 49, 70
2, 93124, Control_c, 0, 64, 24
2, 93132, Control_c, 0, 64, 72
2, 93140, Control_c, 0, 64, 127
2, 93164, Note_on_c, 0, 77, 0
2, 93180, Note_on_c, 0, 49, 0
2, 93196, Note_on_c, 0, 68, 66
2, 93200, Note_on_c, 0, 37, 52
2, 93200, Note_on_c, 0, 65, 55
2, 93240, Note_on_c, 0, 68, 0
2, 93272, Note_on_c, 0, 65, 0
2, 93288, Control_c, 0, 64, 104
2, 93296, Control_c, 0, 64, 40
2, 93304, Note_on_c, 0, 37, 0
2, 93304, Control_c, 0, 64, 0
2, 93312, Note_on_c, 0, 74, 94
2, 93320, Note_on_c, 0, 47, 62
2, 93368, Control_c, 0, 64, 56
2, 93376, Control_c, 0, 64, 88
2, 93384, Control_c, 0, 64, 127
2, 93396, Note_on_c, 0, 47, 0
2, 93396, Note_on_c, 0, 74, 0
2, 93424, Note_on_c, 0, 62, 62
2, 93424, Note_on_c, 0, 65, 46
2, 93424, Note_on_c, 0, 37, 49
2, 93488, Note_on_c, 0, 62, 0
2, 93512, Control_c, 0, 64, 104
2, 93520, Control_c, 0, 64, 72
2, 93524, Note_on_c, 0, 65, 0
2, 93528, Control_c, 0, 64, 24
2, 93532, Note_on_c, 0, 73, 88
2, 93536, Note_on_c, 0, 37, 0
2, 93540, Note_on_c, 0, 45, 64
2, 93540, Control_c, 0, 64, 0
2, 93592, Control_c, 0, 64, 40
2, 93600, Control_c, 0, 64, 88
2, 93608, Control_c, 0, 64, 127
2, 93640, Note_on_c, 0, 73, 0
2, 93644, Note_on_c, 0, 45, 0
2, 93644, Note_on_c, 0, 37, 43
2, 93648, Note_on_c, 0, 61, 41
2, 93652, Note_on_c, 0, 65, 60
2, 93708, Note_on_c, 0, 61, 0
2, 93736, Control_c, 0, 64, 88
2, 93740, Note_on_c, 0, 65, 0
2, 93744, Control_c, 0, 64, 24
2, 93752, Note_on_c, 0, 71, 89
2, 93756, Note_on_c, 0, 37, 0
2, 93756, Control_c, 0, 64, 0
2, 93764, Note_on_c, 0, 44, 48
2, 93800, Control_c, 0, 64, 40
2, 93808, Control_c, 0, 64, 72
2, 93816, Control_c, 0, 64, 127
2, 93840, Note_on_c, 0, 71, 0
2, 93848, Note_on_c, 0, 44, 0
2, 93864, Note_on_c, 0, 37, 52
2, 93864, Note_on_c, 0, 59, 44
2, 93868, Note_on_c, 0, 65, 50
2, 93924, Note_on_c, 0, 65, 0
2, 93924, Note_on_c, 0, 59, 0
2, 93964, Control_c, 0, 64, 72
2, 93972, Note_on_c, 0, 70, 83
2, 93972, Control_c, 0, 64, 0
2, 93976, Note_on_c, 0, 37, 0
2, 93984, Note_on_c, 0, 43, 60
2, 94032, Control_c, 0, 64, 24
2, 94040, Control_c, 0, 64, 72
2, 94048, Control_c, 0, 64, 127
2, 94080, Note_on_c, 0, 43, 0
2, 94080, Note_on_c, 0, 37, 51
2, 94084, Note_on_c, 0, 61, 54
2, 94092, Note_on_c, 0, 70, 0
2, 94092, Note_on_c, 0, 58, 36
2, 94144, Note_on_c, 0, 58, 0
2, 94176, Note_on_c, 0, 61, 0
2, 94188, Note_on_c, 0, 69, 93
2, 94196, Control_c, 0, 64, 72
2, 94200, Note_on_c, 0, 42, 50
2, 94204, Note_on_c, 0, 37, 0
2, 94204, Control_c, 0, 64, 24
2, 94212, Control_c, 0, 64, 0
2, 94248, Control_c, 0, 64, 40
2, 94256, Control_c, 0, 64, 88
2, 94264, Control_c, 0, 64, 127
2, 94284, Note_on_c, 0, 69, 0
2, 94300, Note_on_c, 0, 37, 49
2, 94304, Note_on_c, 0, 42, 0
2, 94304, Note_on_c, 0, 60, 60
2, 94308, Note_on_c, 0, 57, 47
2, 94352, Note_on_c, 0, 57, 0
2, 94404, Note_on_c, 0, 68, 86
2, 94408, Note_on_c, 0, 60, 0
2, 94412, Control_c, 0, 64, 72
2, 94420, Note_on_c, 0, 45, 64
2, 94420, Control_c, 0, 64, 0
2, 94428, Note_on_c, 0, 37, 0
2, 94444, Control_c, 0, 64, 40
2, 94456, Control_c, 0, 64, 72
2, 94464, Control_c, 0, 64, 104
2, 94472, Control_c, 0, 64, 127
2, 94512, Note_on_c, 0, 68, 0
2, 94524, Note_on_c, 0, 60, 50
2, 94528, Note_on_c, 0, 37, 43
2, 94528, Note_on_c, 0, 56, 32
2, 94580, Note_on_c, 0, 37, 0
2, 94600, Note_on_c, 0, 45, 0
2, 94600, Note_on_c, 0, 60, 0
2, 94604, Note_on_c, 0, 56, 0
2, 94616, Note_on_c, 0, 66, 81
2, 94624, Note_on_c, 0, 51, 51
2, 94680, Note_on_c, 0, 51, 0
2, 94708, Note_on_c, 0, 66, 0
2, 94728, Note_on_c, 0, 37, 48
2, 94736, Note_on_c, 0, 54, 26
2, 94740, Note_on_c, 0, 60, 28
2, 94760, Note_on_c, 0, 60, 0
2, 94764, Note_on_c, 0, 54, 0
2, 94828, Control_c, 0, 64, 88
2, 94836, Control_c, 0, 64, 40
2, 94844, Note_on_c, 0, 65, 83
2, 94844, Control_c, 0, 64, 0
2, 94852, Note_on_c, 0, 53, 66
2, 94852, Note_on_c, 0, 61, 62
2, 94860, Note_on_c, 0, 49, 60
2, 94880, Control_c, 0, 64, 24
2, 94888, Control_c, 0, 64, 72
2, 94892, Note_on_c, 0, 53, 0
2, 94896, Note_on_c, 0, 65, 0
2, 94896, Control_c, 0, 64, 127
2, 94900, Note_on_c, 0, 49, 0
2, 94900, Note_on_c, 0, 61, 0
2, 94908, Note_on_c, 0, 37, 0
2, 95016, Control_c, 0, 64, 104
2, 95028, Control_c, 0, 64, 72
2, 95036, Control_c, 0, 64, 40
2, 95044, Control_c, 0, 64, 0
2, 95052, Note_on_c, 0, 62, 81
2, 95056, Note_on_c, 0, 56, 67
2, 95056, Note_on_c, 0, 53, 70
2, 95064, Note_on_c, 0, 47, 75
2, 95068, Note_on_c, 0, 35, 67
2, 95080, Note_on_c, 0, 35, 0
2, 95080, Note_on_c, 0, 53, 0
2, 95080, Note_on_c, 0, 47, 0
2, 95088, Note_on_c, 0, 56, 0
2, 95092, Note_on_c, 0, 62, 0
2, 95284, Note_on_c, 0, 61, 69
2, 95288, Note_on_c, 0, 56, 55
2, 95292, Note_on_c, 0, 48, 67
2, 95296, Note_on_c, 0, 53, 57
2, 95296, Note_on_c, 0, 36, 57
2, 95308, Note_on_c, 0, 48, 0
2, 95312, Note_on_c, 0, 53, 0
2, 95316, Note_on_c, 0, 36, 0
2, 95328, Note_on_c, 0, 56, 0
2, 95332, Note_on_c, 0, 61, 0
2, 95492, Note_on_c, 0, 60, 80
2, 95496, Note_on_c, 0, 49, 72
2, 95496, Note_on_c, 0, 56, 58
2, 95496, Note_on_c, 0, 37, 67
2, 95500, Note_on_c, 0, 53, 62
2, 95520, Note_on_c, 0, 53, 0
2, 95520, Note_on_c, 0, 37, 0
2, 95528, Note_on_c, 0, 49, 0
2, 95532, Note_on_c, 0, 56, 0
2, 95540, Note_on_c, 0, 60, 0
2, 95712, Note_on_c, 0, 59, 75
2, 95712, Note_on_c, 0, 56, 66
2, 95716, Note_on_c, 0, 53, 63
2, 95720, Note_on_c, 0, 50, 72
2, 95724, Note_on_c, 0, 38, 63
2, 95744, Note_on_c, 0, 38, 0
2, 95760, Note_on_c, 0, 53, 0
2, 95768, Note_on_c, 0, 50, 0
2, 95772, Note_on_c, 0, 56, 0
2, 95772, Note_on_c, 0, 59, 0
2, 95912, Note_on_c, 0, 62, 86
2, 95920, Note_on_c, 0, 53, 71
2, 95924, Note_on_c, 0, 47, 72
2, 95924, Note_on_c, 0, 56, 62
2, 95972, Note_on_c, 0, 47, 0
2, 95972, Note_on_c, 0, 53, 0
2, 95980, Note_on_c, 0, 56, 0
2, 95992, Note_on_c, 0, 62, 0
2, 96120, Note_on_c, 0, 61, 74
2, 96128, Note_on_c, 0, 56, 52
2, 96128, Note_on_c, 0, 48, 78
2, 96132, Note_on_c, 0, 53, 64
2, 96160, Control_c, 0, 64, 24
2, 96168, Control_c, 0, 64, 40
2, 96176, Control_c, 0, 64, 56
2, 96196, Note_on_c, 0, 61, 0
2, 96204, Note_on_c, 0, 48, 0
2, 96224, Note_on_c, 0, 60, 80
2, 96228, Note_on_c, 0, 49, 67
2, 96228, Control_c, 0, 64, 40
2, 96248, Control_c, 0, 64, 24
2, 96256, Control_c, 0, 64, 0
2, 96304, Note_on_c, 0, 60, 0
2, 96320, Note_on_c, 0, 49, 0
2, 96328, Note_on_c, 0, 59, 80
2, 96328, Note_on_c, 0, 50, 74
2, 96408, Note_on_c, 0, 50, 0
2, 96408, Note_on_c, 0, 59, 0
2, 96448, Note_on_c, 0, 53, 0
2, 96460, Note_on_c, 0, 56, 0
2, 96780, Note_on_c, 0, 74, 48
2, 96784, Note_on_c, 0, 65, 43
2, 96788, Note_on_c, 0, 59, 40
2, 96796, Note_on_c, 0, 68, 29
2, 96808, Note_on_c, 0, 59, 0
2, 96812, Note_on_c, 0, 68, 0
2, 96812, Note_on_c, 0, 65, 0
2, 96816, Note_on_c, 0, 74, 0
2, 96984, Note_on_c, 0, 73, 65
2, 96988, Note_on_c, 0, 65, 51
2, 96996, Note_on_c, 0, 68, 34
2, 97000, Note_on_c, 0, 60, 48
2, 97016, Note_on_c, 0, 60, 0
2, 97016, Note_on_c, 0, 68, 0
2, 97016, Note_on_c, 0, 65, 0
2, 97024, Note_on_c, 0, 73, 0
2, 97192, Note_on_c, 0, 61, 48
2, 97192, Note_on_c, 0, 72, 43
2, 97192, Note_on_c, 0, 65, 39
2, 97204, Note_on_c, 0, 68, 25
2, 97220, Note_on_c, 0, 72, 0
2, 97224, Note_on_c, 0, 61, 0
2, 97224, Note_on_c, 0, 65, 0
2, 97228, Note_on_c, 0, 68, 0
2, 97384, Note_on_c, 0, 71, 55
2, 97388, Note_on_c, 0, 65, 28
2, 97392, Note_on_c, 0, 62, 39
2, 97392, Note_on_c, 0, 68, 34
2, 97416, Note_on_c, 0, 62, 0
2, 97420, Note_on_c, 0, 71, 0
2, 97420, Note_on_c, 0, 65, 0
2, 97428, Note_on_c, 0, 68, 0
2, 97572, Note_on_c, 0, 65, 47
2, 97576, Note_on_c, 0, 68, 41
2, 97576, Note_on_c, 0, 74, 47
2, 97584, Note_on_c, 0, 59, 32
2, 97616, Note_on_c, 0, 59, 0
2, 97628, Note_on_c, 0, 65, 0
2, 97628, Note_on_c, 0, 68, 0
2, 97632, Note_on_c, 0, 74, 0
2, 97772, Note_on_c, 0, 73, 51
2, 97784, Note_on_c, 0, 60, 33
2, 97784, Note_on_c, 0, 65, 35
2, 97792, Note_on_c, 0, 68, 23
2, 97844, Note_on_c, 0, 60, 0
2, 97844, Note_on_c, 0, 73, 0
2, 97860, Note_on_c, 0, 72, 66
2, 97868, Note_on_c, 0, 61, 48
2, 97904, Note_on_c, 0, 72, 0
2, 97944, Note_on_c, 0, 61, 0
2, 97952, Note_on_c, 0, 71, 54
2, 97956, Note_on_c, 0, 62, 50
2, 97984, Note_on_c, 0, 68, 0
2, 97996, Note_on_c, 0, 65, 0
2, 98016, Note_on_c, 0, 71, 0
2, 98024, Note_on_c, 0, 62, 0
2, 98364, Note_on_c, 0, 56, 64
2, 98364, Note_on_c, 0, 65, 78
2, 98368, Note_on_c, 0, 62, 70
2, 98372, Note_on_c, 0, 47, 72
2, 98376, Note_on_c, 0, 35, 51
2, 98384, Note_on_c, 0, 62, 0
2, 98388, Note_on_c, 0, 47, 0
2, 98392, Note_on_c, 0, 65, 0
2, 98396, Note_on_c, 0, 56, 0
2, 98396, Note_on_c, 0, 35, 0
2, 98572, Note_on_c, 0, 65, 72
2, 98572, Note_on_c, 0, 56, 58
2, 98572, Note_on_c, 0, 61, 64
2, 98576, Note_on_c, 0, 48, 80
2, 98580, Note_on_c, 0, 36, 67
2, 98592, Note_on_c, 0, 48, 0
2, 98596, Note_on_c, 0, 36, 0
2, 98600, Note_on_c, 0, 65, 0
2, 98600, Note_on_c, 0, 56, 0
2, 98612, Note_on_c, 0, 61, 0
2, 98768, Note_on_c, 0, 49, 67
2, 98768, Note_on_c, 0, 56, 50
2, 98768, Note_on_c, 0, 60, 77
2, 98768, Note_on_c, 0, 65, 56
2, 98768, Note_on_c, 0, 37, 52
2, 98788, Note_on_c, 0, 37, 0
2, 98800, Note_on_c, 0, 56, 0
2, 98804, Note_on_c, 0, 49, 0
2, 98804, Note_on_c, 0, 65, 0
2, 98808, Note_on_c, 0, 60, 0
2, 98960, Note_on_c, 0, 56, 55
2, 98960, Note_on_c, 0, 65, 64
2, 98964, Note_on_c, 0, 59, 71
2, 98972, Note_on_c, 0, 38, 63
2, 98972, Note_on_c, 0, 50, 67
2, 98988, Note_on_c, 0, 38, 0
2, 98996, Note_on_c, 0, 50, 0
2, 99000, Note_on_c, 0, 56, 0
2, 99004, Note_on_c, 0, 65, 0
2, 99008, Note_on_c, 0, 59, 0
2, 99156, Note_on_c, 0, 65, 74
2, 99156, Note_on_c, 0, 56, 56
2, 99160, Note_on_c, 0, 47, 72
2, 99168, Note_on_c, 0, 62, 64
2, 99192, Note_on_c, 0, 62, 0
2, 99204, Note_on_c, 0, 47, 0
2, 99204, Note_on_c, 0, 65, 0
2, 99208, Note_on_c, 0, 56, 0
2, 99352, Note_on_c, 0, 48, 79
2, 99356, Note_on_c, 0, 65, 59
2, 99360, Note_on_c, 0, 61, 51
2, 99364, Note_on_c, 0, 56, 32
2, 99396, Note_on_c, 0, 48, 0
2, 99416, Note_on_c, 0, 61, 0
2, 99432, Note_on_c, 0, 60, 77
2, 99440, Note_on_c, 0, 49, 69
2, 99496, Note_on_c, 0, 60, 0
2, 99500, Note_on_c, 0, 49, 0
2, 99528, Note_on_c, 0, 59, 55
2, 99540, Note_on_c, 0, 50, 58
2, 99656, Note_on_c, 0, 59, 0
2, 99656, Note_on_c, 0, 56, 0
2, 99660, Note_on_c, 0, 65, 0
2, 99672, Note_on_c, 0, 50, 0
2, 99988, Note_on_c, 0, 77, 51
2, 99988, Note_on_c, 0, 59, 51
2, 99996, Note_on_c, 0, 68, 29
2, 99996, Note_on_c, 0, 74, 50
2, 100016, Note_on_c, 0, 74, 0
2, 100016, Note_on_c, 0, 77, 0
2, 100016, Note_on_c, 0, 59, 0
2, 100020, Note_on_c, 0, 68, 0
2, 100188, Note_on_c, 0, 73, 52
2, 100188, Note_on_c, 0, 77, 52
2, 100188, Note_on_c, 0, 68, 35
2, 100192, Note_on_c, 0, 60, 51
2, 100216, Note_on_c, 0, 77, 0
2, 100220, Note_on_c, 0, 60, 0
2, 100228, Note_on_c, 0, 68, 0
2, 100240, Note_on_c, 0, 73, 0
2, 100376, Note_on_c, 0, 72, 59
2, 100376, Note_on_c, 0, 77, 52
2, 100384, Note_on_c, 0, 68, 28
2, 100392, Note_on_c, 0, 61, 31
2, 100416, Note_on_c, 0, 77, 0
2, 100416, Note_on_c, 0, 72, 0
2, 100432, Note_on_c, 0, 61, 0
2, 100448, Note_on_c, 0, 68, 0
2, 100564, Note_on_c, 0, 68, 33
2, 100568, Note_on_c, 0, 71, 47
2, 100568, Note_on_c, 0, 77, 52
2, 100576, Note_on_c, 0, 62, 46
2, 100596, Note_on_c, 0, 62, 0
2, 100604, Note_on_c, 0, 71, 0
2, 100608, Note_on_c, 0, 77, 0
2, 100620, Note_on_c, 0, 68, 0
2, 100756, Note_on_c, 0, 77, 58
2, 100756, Note_on_c, 0, 59, 50
2, 100756, Note_on_c, 0, 68, 39
2, 100764, Note_on_c, 0, 74, 50
2, 100796, Note_on_c, 0, 77, 0
2, 100800, Note_on_c, 0, 59, 0
2, 100804, Note_on_c, 0, 74, 0
2, 100816, Note_on_c, 0, 68, 0
2, 100948, Note_on_c, 0, 60, 51
2, 100952, Note_on_c, 0, 77, 46
2, 100952, Note_on_c, 0, 73, 51
2, 100964, Note_on_c, 0, 68, 25
2, 100996, Note_on_c, 0, 60, 0
2, 101036, Note_on_c, 0, 72, 72
2, 101040, Note_on_c, 0, 73, 0
2, 101040, Note_on_c, 0, 61, 39
2, 101084, Note_on_c, 0, 72, 0
2, 101120, Note_on_c, 0, 61, 0
2, 101120, Note_on_c, 0, 71, 66
2, 101120, Note_on_c, 0, 62, 57
2, 101168, Note_on_c, 0, 68, 0
2, 101180, Note_on_c, 0, 77, 0
2, 101200, Note_on_c, 0, 71, 0
2, 101200, Note_on_c, 0, 62, 0
2, 101484, Note_on_c, 0, 80, 42
2, 101488, Note_on_c, 0, 77, 48
2, 101492, Note_on_c, 0, 71, 43
2, 101496, Note_on_c, 0, 62, 36
2, 101512, Note_on_c, 0, 77, 0
2, 101516, Note_on_c, 0, 62, 0
2, 101516, Note_on_c, 0, 71, 0
2, 101520, Note_on_c, 0, 80, 0
2, 101672, Note_on_c, 0, 63, 50
2, 101676, Note_on_c, 0, 80, 49
2, 101680, Note_on_c, 0, 76, 50
2, 101688, Note_on_c, 0, 71, 29
2, 101700, Note_on_c, 0, 76, 0
2, 101704, Note_on_c, 0, 71, 0
2, 101704, Note_on_c, 0, 63, 0
2, 101708, Note_on_c, 0, 80, 0
2, 101848, Note_on_c, 0, 75, 62
2, 101856, Note_on_c, 0, 64, 62
2, 101860, Note_on_c, 0, 80, 32
2, 101864, Note_on_c, 0, 71, 28
2, 101872, Note_on_c, 0, 64, 0
2, 101884, Note_on_c, 0, 71, 0
2, 101884, Note_on_c, 0, 80, 0
2, 101896, Note_on_c, 0, 75, 0
2, 102016, Note_on_c, 0, 80, 48
2, 102024, Note_on_c, 0, 74, 60
2, 102028, Note_on_c, 0, 71, 40
2, 102028, Note_on_c, 0, 65, 43
2, 102044, Note_on_c, 0, 71, 0
2, 102044, Note_on_c, 0, 74, 0
2, 102056, Note_on_c, 0, 80, 0
2, 102056, Note_on_c, 0, 65, 0
2, 102208, Note_on_c, 0, 83, 59
2, 102208, Note_on_c, 0, 74, 52
2, 102212, Note_on_c, 0, 65, 50
2, 102212, Note_on_c, 0, 80, 39
2, 102240, Note_on_c, 0, 83, 0
2, 102248, Note_on_c, 0, 74, 0
2, 102248, Note_on_c, 0, 65, 0
2, 102260, Note_on_c, 0, 80, 0
2, 102376, Note_on_c, 0, 66, 44
2, 102384, Note_on_c, 0, 83, 49
2, 102384, Note_on_c, 0, 79, 62
2, 102392, Note_on_c, 0, 74, 34
2, 102428, Note_on_c, 0, 79, 0
2, 102432, Note_on_c, 0, 66, 0
2, 102456, Note_on_c, 0, 78, 57
2, 102460, Note_on_c, 0, 67, 39
2, 102512, Note_on_c, 0, 78, 0
2, 102528, Note_on_c, 0, 67, 0
2, 102552, Note_on_c, 0, 68, 41
2, 102560, Note_on_c, 0, 77, 63
2, 102612, Note_on_c, 0, 74, 0
2, 102616, Note_on_c, 0, 77, 0
2, 102624, Note_on_c, 0, 83, 0
2, 102644, Note_on_c, 0, 68, 0
2, 102740, Note_on_c, 0, 68, 46
2, 102748, Note_on_c, 0, 86, 62
2, 102752, Note_on_c, 0, 83, 47
2, 102756, Note_on_c, 0, 77, 43
2, 102804, Note_on_c, 0, 83, 0
2, 102824, Note_on_c, 0, 82, 63
2, 102836, Note_on_c, 0, 68, 0
2, 102840, Note_on_c, 0, 69, 51
2, 102848, Note_on_c, 0, 77, 0
2, 102888, Note_on_c, 0, 82, 0
2, 102900, Note_on_c, 0, 69, 0
2, 102916, Note_on_c, 0, 81, 47
2, 102920, Note_on_c, 0, 70, 37
2, 102972, Note_on_c, 0, 81, 0
2, 102972, Note_on_c, 0, 86, 0
2, 102988, Note_on_c, 0, 70, 0
2, 102992, Note_on_c, 0, 80, 60
2, 103008, Note_on_c, 0, 71, 44
2, 103024, Note_on_c, 0, 80, 0
2, 103028, Note_on_c, 0, 71, 0
2, 103092, Note_on_c, 0, 71, 58
2, 103092, Note_on_c, 0, 89, 77
2, 103096, Note_on_c, 0, 86, 52
2, 103100, Note_on_c, 0, 80, 28
2, 103164, Note_on_c, 0, 86, 0
2, 103172, Note_on_c, 0, 71, 0
2, 103172, Note_on_c, 0, 84, 69
2, 103188, Note_on_c, 0, 72, 51
2, 103228, Note_on_c, 0, 84, 0
2, 103256, Note_on_c, 0, 72, 0
2, 103264, Note_on_c, 0, 85, 64
2, 103268, Note_on_c, 0, 80, 0
2, 103268, Note_on_c, 0, 73, 52
2, 103340, Note_on_c, 0, 85, 0
2, 103340, Note_on_c, 0, 89, 0
2, 103344, Note_on_c, 0, 73, 0
2, 103344, Note_on_c, 0, 83, 64
2, 103360, Note_on_c, 0, 83, 0
2, 103360, Note_on_c, 0, 74, 44
2, 103380, Note_on_c, 0, 74, 0
2, 103448, Note_on_c, 0, 74, 49
2, 103452, Note_on_c, 0, 92, 66
2, 103460, Note_on_c, 0, 83, 44
2, 103460, Note_on_c, 0, 88, 66
2, 103508, Note_on_c, 0, 88, 0
2, 103536, Note_on_c, 0, 74, 0
2, 103536, Note_on_c, 0, 75, 65
2, 103552, Note_on_c, 0, 87, 77
2, 103616, Note_on_c, 0, 87, 0
2, 103620, Note_on_c, 0, 75, 0
2, 103632, Note_on_c, 0, 88, 80
2, 103632, Note_on_c, 0, 76, 63
2, 103688, Note_on_c, 0, 88, 0
2, 103708, Note_on_c, 0, 76, 0
2, 103712, Note_on_c, 0, 83, 0
2, 103712, Note_on_c, 0, 86, 80
2, 103720, Note_on_c, 0, 92, 0
2, 103732, Note_on_c, 0, 86, 0
2, 103732, Note_on_c, 0, 77, 58
2, 103748, Note_on_c, 0, 77, 0
2, 103808, Note_on_c, 0, 77, 42
2, 103824, Note_on_c, 0, 86, 54
2, 103824, Note_on_c, 0, 95, 69
2, 103828, Note_on_c, 0, 92, 52
2, 103872, Note_on_c, 0, 92, 0
2, 103904, Note_on_c, 0, 90, 71
2, 103908, Note_on_c, 0, 77, 0
2, 103908, Note_on_c, 0, 78, 54
2, 103952, Note_on_c, 0, 90, 0
2, 103976, Note_on_c, 0, 78, 0
2, 103996, Note_on_c, 0, 86, 0
2, 103996, Note_on_c, 0, 91, 59
2, 104000, Note_on_c, 0, 79, 51
2, 104064, Note_on_c, 0, 91, 0
2, 104072, Note_on_c, 0, 79, 0
2, 104076, Note_on_c, 0, 89, 73
2, 104092, Note_on_c, 0, 80, 40
2, 104104, Note_on_c, 0, 89, 0
2, 104108, Note_on_c, 0, 95, 0
2, 104128, Note_on_c, 0, 80, 0
2, 104184, Note_on_c, 0, 80, 49
2, 104196, Note_on_c, 0, 98, 74
2, 104200, Note_on_c, 0, 89, 58
2, 104200, Note_on_c, 0, 95, 55
2, 104264, Note_on_c, 0, 80, 0
2, 104276, Note_on_c, 0, 95, 0
2, 104280, Note_on_c, 0, 81, 46
2, 104280, Note_on_c, 0, 94, 64
2, 104332, Note_on_c, 0, 94, 0
2, 104348, Note_on_c, 0, 81, 0
2, 104360, Note_on_c, 0, 82, 54
2, 104376, Note_on_c, 0, 95, 55
2, 104428, Note_on_c, 0, 95, 0
2, 104444, Note_on_c, 0, 82, 0
2, 104452, Note_on_c, 0, 98, 0
2, 104456, Note_on_c, 0, 92, 65
2, 104464, Note_on_c, 0, 83, 56
2, 104468, Note_on_c, 0, 89, 0
2, 104484, Note_on_c, 0, 83, 0
2, 104488, Note_on_c, 0, 92, 0
2, 104548, Note_on_c, 0, 80, 52
2, 104552, Note_on_c, 0, 95, 60
2, 104556, Note_on_c, 0, 98, 33
2, 104560, Note_on_c, 0, 89, 51
2, 104616, Note_on_c, 0, 95, 0
2, 104636, Note_on_c, 0, 93, 66
2, 104644, Note_on_c, 0, 80, 0
2, 104648, Note_on_c, 0, 81, 50
2, 104700, Note_on_c, 0, 93, 0
2, 104716, Note_on_c, 0, 81, 0
2, 104720, Note_on_c, 0, 94, 57
2, 104724, Note_on_c, 0, 82, 56
2, 104792, Note_on_c, 0, 98, 0
2, 104796, Note_on_c, 0, 82, 0
2, 104796, Note_on_c, 0, 94, 0
2, 104804, Note_on_c, 0, 89, 0
2, 104804, Note_on_c, 0, 92, 73
2, 104824, Note_on_c, 0, 83, 33
2, 104844, Note_on_c, 0, 83, 0
2, 104844, Note_on_c, 0, 92, 0
2, 104896, Note_on_c, 0, 80, 52
2, 104896, Note_on_c, 0, 98, 62
2, 104904, Note_on_c, 0, 95, 50
2, 104908, Note_on_c, 0, 89, 47
2, 104964, Note_on_c, 0, 95, 0
2, 104984, Note_on_c, 0, 93, 64
2, 104988, Note_on_c, 0, 80, 0
2, 104992, Note_on_c, 0, 81, 44
2, 105044, Note_on_c, 0, 93, 0
2, 105064, Note_on_c, 0, 81, 0
2, 105064, Note_on_c, 0, 94, 52
2, 105072, Note_on_c, 0, 82, 51
2, 105140, Note_on_c, 0, 98, 0
2, 105144, Note_on_c, 0, 89, 0
2, 105144, Note_on_c, 0, 94, 0
2, 105148, Note_on_c, 0, 82, 0
2, 105148, Note_on_c, 0, 92, 78
2, 105168, Note_on_c, 0, 83, 46
2, 105184, Note_on_c, 0, 83, 0
2, 105188, Note_on_c, 0, 92, 0
2, 105248, Note_on_c, 0, 80, 50
2, 105248, Note_on_c, 0, 98, 66
2, 105252, Note_on_c, 0, 95, 62
2, 105256, Note_on_c, 0, 89, 60
2, 105328, Note_on_c, 0, 95, 0
2, 105332, Note_on_c, 0, 93, 73
2, 105340, Note_on_c, 0, 80, 0
2, 105344, Note_on_c, 0, 81, 48
2, 105388, Note_on_c, 0, 93, 0
2, 105408, Note_on_c, 0, 81, 0
2, 105416, Note_on_c, 0, 94, 56
2, 105420, Note_on_c, 0, 82, 52
2, 105484, Note_on_c, 0, 94, 0
2, 105500, Note_on_c, 0, 92, 56
2, 105504, Note_on_c, 0, 82, 0
2, 105524, Note_on_c, 0, 83, 36
2, 105568, Note_on_c, 0, 83, 0
2, 105580, Note_on_c, 0, 92, 0
2, 105584, Note_on_c, 0, 98, 0
2, 105592, Note_on_c, 0, 89, 0
2, 105608, Note_on_c, 0, 101, 69
2, 105608, Note_on_c, 0, 98, 66
2, 105636, Note_on_c, 0, 95, 18
2, 105672, Note_on_c, 0, 95, 0
2, 105672, Note_on_c, 0, 101, 0
2, 105684, Note_on_c, 0, 98, 0
2, 105700, Note_on_c, 0, 97, 70
2, 105700, Note_on_c, 0, 94, 42
2, 105744, Note_on_c, 0, 94, 0
2, 105748, Note_on_c, 0, 97, 0
2, 105796, Note_on_c, 0, 101, 54
2, 105796, Note_on_c, 0, 98, 51
2, 105800, Note_on_c, 0, 95, 35
2, 105844, Note_on_c, 0, 95, 0
2, 105852, Note_on_c, 0, 98, 0
2, 105852, Note_on_c, 0, 101, 0
2, 105876, Note_on_c, 0, 96, 67
2, 105884, Note_on_c, 0, 93, 66
2, 105904, Note_on_c, 0, 93, 0
2, 105904, Note_on_c, 0, 96, 0
2, 105972, Note_on_c, 0, 98, 66
2, 105980, Note_on_c, 0, 95, 42
2, 105980, Note_on_c, 0, 92, 36
2, 106032, Note_on_c, 0, 92, 0
2, 106036, Note_on_c, 0, 98, 0
2, 106044, Note_on_c, 0, 95, 0
2, 106056, Note_on_c, 0, 94, 60
2, 106068, Note_on_c, 0, 91, 47
2, 106092, Note_on_c, 0, 91, 0
2, 106100, Note_on_c, 0, 94, 0
2, 106144, Note_on_c, 0, 98, 72
2, 106144, Note_on_c, 0, 92, 52
2, 106156, Note_on_c, 0, 95, 48
2, 106176, Note_on_c, 0, 95, 0
2, 106188, Note_on_c, 0, 98, 0
2, 106204, Note_on_c, 0, 92, 0
2, 106236, Note_on_c, 0, 93, 60
2, 106240, Note_on_c, 0, 90, 42
2, 106252, Note_on_c, 0, 93, 0
2, 106276, Note_on_c, 0, 90, 0
2, 106328, Note_on_c, 0, 92, 49
2, 106336, Note_on_c, 0, 95, 55
2, 106336, Note_on_c, 0, 89, 50
2, 106384, Note_on_c, 0, 89, 0
2, 106396, Note_on_c, 0, 95, 0
2, 106400, Note_on_c, 0, 92, 0
2, 106420, Note_on_c, 0, 91, 54
2, 106424, Note_on_c, 0, 88, 51
2, 106444, Note_on_c, 0, 88, 0
2, 106456, Note_on_c, 0, 91, 0
2, 106508, Note_on_c, 0, 95, 62
2, 106508, Note_on_c, 0, 92, 49
2, 106512, Note_on_c, 0, 89, 47
2, 106552, Note_on_c, 0, 89, 0
2, 106560, Note_on_c, 0, 95, 0
2, 106576, Note_on_c, 0, 92, 0
2, 106592, Note_on_c, 0, 90, 63
2, 106600, Note_on_c, 0, 87, 64
2, 106616, Note_on_c, 0, 90, 0
2, 106644, Note_on_c, 0, 87, 0
2, 106680, Note_on_c, 0, 90, 36
2, 106692, Note_on_c, 0, 90, 0
2, 106692, Note_on_c, 0, 92, 64
2, 106696, Note_on_c, 0, 86, 51
2, 106696, Note_on_c, 0, 89, 66
2, 106748, Note_on_c, 0, 86, 0
2, 106756, Note_on_c, 0, 89, 0
2, 106764, Note_on_c, 0, 92, 0
2, 106776, Note_on_c, 0, 85, 52
2, 106780, Note_on_c, 0, 88, 66
2, 106820, Note_on_c, 0, 88, 0
2, 106820, Note_on_c, 0, 85, 0
2, 106868, Note_on_c, 0, 92, 58
2, 106876, Note_on_c, 0, 89, 43
2, 106924, Note_on_c, 0, 89, 0
2, 106932, Note_on_c, 0, 92, 0
2, 106952, Note_on_c, 0, 87, 58
2, 106964, Note_on_c, 0, 84, 62
2, 106980, Note_on_c, 0, 87, 0
2, 106988, Note_on_c, 0, 84, 0
2, 107048, Note_on_c, 0, 89, 51
2, 107056, Note_on_c, 0, 83, 42
2, 107060, Note_on_c, 0, 86, 43
2, 107092, Note_on_c, 0, 83, 0
2, 107104, Note_on_c, 0, 89, 0
2, 107120, Note_on_c, 0, 86, 0
2, 107136, Note_on_c, 0, 85, 59
2, 107136, Note_on_c, 0, 82, 39
2, 107184, Note_on_c, 0, 82, 0
2, 107200, Note_on_c, 0, 85, 0
2, 107228, Note_on_c, 0, 89, 39
2, 107236, Note_on_c, 0, 86, 37
2, 107236, Note_on_c, 0, 83, 24
2, 107264, Note_on_c, 0, 83, 0
2, 107272, Note_on_c, 0, 89, 0
2, 107284, Note_on_c, 0, 86, 0
2, 107304, Note_on_c, 0, 84, 65
2, 107316, Note_on_c, 0, 81, 54
2, 107332, Note_on_c, 0, 84, 0
2, 107368, Note_on_c, 0, 81, 0
2, 107408, Note_on_c, 0, 80, 39
2, 107412, Note_on_c, 0, 86, 39
2, 107412, Note_on_c, 0, 83, 44
2, 107468, Note_on_c, 0, 80, 0
2, 107472, Note_on_c, 0, 86, 0
2, 107476, Note_on_c, 0, 83, 0
2, 107488, Note_on_c, 0, 82, 60
2, 107500, Note_on_c, 0, 79, 46
2, 107536, Note_on_c, 0, 82, 0
2, 107556, Note_on_c, 0, 79, 0
2, 107576, Note_on_c, 0, 80, 52
2, 107580, Note_on_c, 0, 86, 62
2, 107588, Note_on_c, 0, 83, 49
2, 107608, Note_on_c, 0, 83, 0
2, 107616, Note_on_c, 0, 86, 0
2, 107632, Note_on_c, 0, 80, 0
2, 107664, Note_on_c, 0, 81, 48
2, 107668, Note_on_c, 0, 78, 37
2, 107684, Note_on_c, 0, 81, 0
2, 107688, Note_on_c, 0, 78, 0
2, 107744, Note_on_c, 0, 80, 50
2, 107752, Note_on_c, 0, 77, 47
2, 107756, Note_on_c, 0, 83, 46
2, 107792, Note_on_c, 0, 77, 0
2, 107800, Note_on_c, 0, 83, 0
2, 107816, Note_on_c, 0, 80, 0
2, 107824, Note_on_c, 0, 79, 67
2, 107832, Note_on_c, 0, 76, 47
2, 107872, Note_on_c, 0, 79, 0
2, 107892, Note_on_c, 0, 76, 0
2, 107908, Note_on_c, 0, 83, 60
2, 107908, Note_on_c, 0, 80, 41
2, 107912, Note_on_c, 0, 77, 36
2, 107936, Note_on_c, 0, 77, 0
2, 107952, Note_on_c, 0, 83, 0
2, 107960, Note_on_c, 0, 80, 0
2, 107988, Note_on_c, 0, 78, 57
2, 107996, Note_on_c, 0, 75, 56
2, 108012, Note_on_c, 0, 78, 0
2, 108036, Note_on_c, 0, 75, 0
2, 108080, Note_on_c, 0, 80, 52
2, 108088, Note_on_c, 0, 77, 27
2, 108100, Note_on_c, 0, 74, 20
2, 108124, Note_on_c, 0, 74, 0
2, 108144, Note_on_c, 0, 77, 0
2, 108144, Note_on_c, 0, 80, 0
2, 108160, Note_on_c, 0, 76, 72
2, 108164, Note_on_c, 0, 73, 35
2, 108228, Note_on_c, 0, 76, 0
2, 108232, Note_on_c, 0, 73, 0
2, 108252, Note_on_c, 0, 80, 42
2, 108256, Note_on_c, 0, 74, 36
2, 108256, Note_on_c, 0, 77, 44
2, 108276, Note_on_c, 0, 74, 0
2, 108312, Note_on_c, 0, 77, 0
2, 108320, Note_on_c, 0, 80, 0
2, 108328, Note_on_c, 0, 75, 62
2, 108344, Note_on_c, 0, 72, 32
2, 108396, Note_on_c, 0, 72, 0
2, 108396, Note_on_c, 0, 75, 0
2, 108420, Note_on_c, 0, 74, 44
2, 108424, Note_on_c, 0, 80, 32
2, 108428, Note_on_c, 0, 77, 42
2, 108472, Note_on_c, 0, 74, 0
2, 108480, Note_on_c, 0, 77, 0
2, 108480, Note_on_c, 0, 80, 0
2, 108500, Note_on_c, 0, 76, 67
2, 108500, Note_on_c, 0, 73, 37
2, 108568, Note_on_c, 0, 76, 0
2, 108572, Note_on_c, 0, 73, 0
2, 108584, Note_on_c, 0, 77, 60
2, 108588, Note_on_c, 0, 80, 37
2, 108588, Note_on_c, 0, 74, 42
2, 108632, Note_on_c, 0, 74, 0
2, 108660, Note_on_c, 0, 80, 0
2, 108660, Note_on_c, 0, 77, 0
2, 108668, Note_on_c, 0, 73, 41
2, 108672, Note_on_c, 0, 76, 67
2, 108740, Note_on_c, 0, 76, 0
2, 108740, Note_on_c, 0, 73, 0
2, 108752, Note_on_c, 0, 80, 43
2, 108756, Note_on_c, 0, 77, 58
2, 108764, Note_on_c, 0, 74, 32
2, 108812, Note_on_c, 0, 74, 0
2, 108824, Note_on_c, 0, 80, 0
2, 108828, Note_on_c, 0, 77, 0
2, 108832, Note_on_c, 0, 73, 39
2, 108840, Note_on_c, 0, 76, 62
2, 108900, Note_on_c, 0, 73, 0
2, 108904, Note_on_c, 0, 76, 0
2, 108920, Note_on_c, 0, 80, 46
2, 108924, Note_on_c, 0, 77, 51
2, 108924, Note_on_c, 0, 74, 27
2, 108976, Note_on_c, 0, 74, 0
2, 108996, Note_on_c, 0, 77, 0
2, 109000, Note_on_c, 0, 80, 0
2, 109000, Note_on_c, 0, 73, 40
2, 109008, Note_on_c, 0, 76, 62
2, 109076, Note_on_c, 0, 76, 0
2, 109076, Note_on_c, 0, 73, 0
2, 109088, Note_on_c, 0, 80, 37
2, 109092, Note_on_c, 0, 77, 51
2, 109096, Note_on_c, 0, 74, 39
2, 109152, Note_on_c, 0, 74, 0
2, 109164, Note_on_c, 0, 77, 0
2, 109164, Note_on_c, 0, 80, 0
2, 109172, Note_on_c, 0, 73, 41
2, 109176, Note_on_c, 0, 76, 62
2, 109244, Note_on_c, 0, 76, 0
2, 109244, Note_on_c, 0, 73, 0
2, 109252, Note_on_c, 0, 80, 40
2, 109260, Note_on_c, 0, 77, 54
2, 109260, Note_on_c, 0, 74, 42
2, 109316, Note_on_c, 0, 74, 0
2, 109332, Note_on_c, 0, 77, 0
2, 109332, Note_on_c, 0, 80, 0
2, 109336, Note_on_c, 0, 73, 42
2, 109344, Note_on_c, 0, 76, 64
2, 109408, Note_on_c, 0, 73, 0
2, 109412, Note_on_c, 0, 76, 0
2, 109420, Note_on_c, 0, 80, 52
2, 109428, Note_on_c, 0, 77, 52
2, 109428, Note_on_c, 0, 74, 39
2, 109464, Note_on_c, 0, 74, 0
2, 109496, Note_on_c, 0, 77, 0
2, 109496, Note_on_c, 0, 80, 0
2, 109500, Note_on_c, 0, 73, 34
2, 109508, Note_on_c, 0, 76, 60
2, 109568, Note_on_c, 0, 76, 0
2, 109572, Note_on_c, 0, 73, 0
2, 109588, Note_on_c, 0, 80, 43
2, 109588, Note_on_c, 0, 77, 55
2, 109652, Note_on_c, 0, 77, 0
2, 109656, Note_on_c, 0, 80, 0
2, 109668, Note_on_c, 0, 73, 41
2, 109668, Note_on_c, 0, 76, 67
2, 109724, Note_on_c, 0, 73, 0
2, 109728, Note_on_c, 0, 76, 0
2, 109748, Note_on_c, 0, 77, 35
2, 109756, Note_on_c, 0, 74, 35
2, 109756, Note_on_c, 0, 80, 52
2, 109768, Note_on_c, 0, 77, 0
2, 109792, Note_on_c, 0, 74, 0
2, 109848, Note_on_c, 0, 80, 0
2, 109848, Note_on_c, 0, 78, 64
2, 109916, Note_on_c, 0, 78, 0
2, 109924, Note_on_c, 0, 77, 69
2, 110000, Note_on_c, 0, 77, 0
2, 110008, Note_on_c, 0, 78, 64
2, 110084, Note_on_c, 0, 78, 0
2, 110096, Note_on_c, 0, 77, 56
2, 110168, Note_on_c, 0, 77, 0
2, 110176, Note_on_c, 0, 78, 62
2, 110240, Note_on_c, 0, 78, 0
2, 110260, Note_on_c, 0, 77, 31
2, 110328, Note_on_c, 0, 77, 0
2, 110336, Note_on_c, 0, 78, 64
2, 110412, Note_on_c, 0, 78, 0
2, 110420, Note_on_c, 0, 77, 64
2, 110504, Note_on_c, 0, 77, 0
2, 110504, Note_on_c, 0, 78, 56
2, 110572, Note_on_c, 0, 78, 0
2, 110584, Note_on_c, 0, 77, 56
2, 110656, Note_on_c, 0, 77, 0
2, 110664, Note_on_c, 0, 78, 65
2, 110744, Note_on_c, 0, 78, 0
2, 110748, Note_on_c, 0, 77, 71
2, 110828, Note_on_c, 0, 77, 0
2, 110832, Note_on_c, 0, 78, 59
2, 110912, Note_on_c, 0, 78, 0
2, 110920, Note_on_c, 0, 77, 48
2, 110996, Note_on_c, 0, 77, 0
2, 111004, Note_on_c, 0, 78, 58
2, 111080, Note_on_c, 0, 78, 0
2, 111088, Note_on_c, 0, 77, 63
2, 111164, Note_on_c, 0, 77, 0
2, 111168, Note_on_c, 0, 78, 58
2, 111244, Note_on_c, 0, 78, 0
2, 111256, Note_on_c, 0, 77, 64
2, 111332, Note_on_c, 0, 77, 0
2, 111340, Note_on_c, 0, 78, 56
2, 111424, Note_on_c, 0, 78, 0
2, 111432, Note_on_c, 0, 77, 55
2, 111504, Note_on_c, 0, 77, 0
2, 111512, Note_on_c, 0, 78, 55
2, 111548, Note_on_c, 0, 78, 0
2, 111612, Note_on_c, 0, 67, 37
2, 111612, Note_on_c, 0, 76, 54
2, 111612, Note_on_c, 0, 62, 37
2, 111620, Note_on_c, 0, 70, 20
2, 111688, Note_on_c, 0, 76, 0
2, 111704, Note_on_c, 0, 78, 54
2, 111712, Note_on_c, 0, 70, 0
2, 111772, Note_on_c, 0, 67, 0
2, 111772, Note_on_c, 0, 78, 0
2, 111796, Note_on_c, 0, 71, 51
2, 111796, Note_on_c, 0, 68, 41
2, 111796, Note_on_c, 0, 76, 59
2, 111872, Note_on_c, 0, 76, 0
2, 111876, Note_on_c, 0, 62, 0
2, 111884, Note_on_c, 0, 71, 0
2, 111884, Note_on_c, 0, 78, 57
2, 111888, Control_c, 0, 64, 24
2, 111896, Control_c, 0, 64, 40
2, 111912, Note_on_c, 0, 68, 0
2, 111920, Control_c, 0, 64, 56
2, 111944, Note_on_c, 0, 78, 0
2, 111944, Control_c, 0, 64, 24
2, 111952, Control_c, 0, 64, 0
2, 111972, Note_on_c, 0, 68, 40
2, 111972, Note_on_c, 0, 76, 67
2, 111980, Note_on_c, 0, 61, 43
2, 111988, Note_on_c, 0, 72, 35
2, 112016, Control_c, 0, 64, 56
2, 112024, Control_c, 0, 64, 72
2, 112028, Note_on_c, 0, 72, 0
2, 112032, Control_c, 0, 64, 88
2, 112040, Control_c, 0, 64, 104
2, 112052, Note_on_c, 0, 76, 0
2, 112056, Note_on_c, 0, 78, 57
2, 112064, Control_c, 0, 64, 127
2, 112112, Note_on_c, 0, 78, 0
2, 112112, Control_c, 0, 64, 56
2, 112120, Note_on_c, 0, 68, 0
2, 112132, Control_c, 0, 64, 72
2, 112140, Note_on_c, 0, 69, 54
2, 112140, Note_on_c, 0, 76, 71
2, 112140, Control_c, 0, 64, 88
2, 112144, Note_on_c, 0, 73, 42
2, 112148, Control_c, 0, 64, 127
2, 112176, Note_on_c, 0, 61, 0
2, 112180, Note_on_c, 0, 69, 0
2, 112208, Note_on_c, 0, 76, 0
2, 112208, Note_on_c, 0, 73, 0
2, 112224, Note_on_c, 0, 78, 66
2, 112284, Note_on_c, 0, 78, 0
2, 112292, Control_c, 0, 64, 88
2, 112300, Control_c, 0, 64, 56
2, 112308, Control_c, 0, 64, 24
2, 112312, Note_on_c, 0, 76, 67
2, 112316, Note_on_c, 0, 73, 42
2, 112316, Control_c, 0, 64, 0
2, 112320, Note_on_c, 0, 70, 35
2, 112328, Note_on_c, 0, 56, 28
2, 112356, Control_c, 0, 64, 24
2, 112364, Control_c, 0, 64, 56
2, 112372, Control_c, 0, 64, 72
2, 112380, Control_c, 0, 64, 88
2, 112384, Note_on_c, 0, 76, 0
2, 112388, Control_c, 0, 64, 104
2, 112396, Note_on_c, 0, 78, 70
2, 112400, Note_on_c, 0, 73, 0
2, 112424, Note_on_c, 0, 56, 0
2, 112428, Note_on_c, 0, 70, 0
2, 112448, Control_c, 0, 64, 127
2, 112476, Note_on_c, 0, 78, 0
2, 112480, Note_on_c, 0, 71, 52
2, 112488, Note_on_c, 0, 76, 64
2, 112492, Note_on_c, 0, 74, 41
2, 112516, Note_on_c, 0, 74, 0
2, 112540, Note_on_c, 0, 76, 0
2, 112556, Note_on_c, 0, 71, 0
2, 112564, Note_on_c, 0, 78, 59
2, 112616, Note_on_c, 0, 78, 0
2, 112636, Control_c, 0, 64, 104
2, 112644, Control_c, 0, 64, 88
2, 112652, Note_on_c, 0, 73, 42
2, 112652, Control_c, 0, 64, 56
2, 112660, Note_on_c, 0, 76, 66
2, 112660, Control_c, 0, 64, 24
2, 112664, Note_on_c, 0, 64, 49
2, 112664, Note_on_c, 0, 57, 42
2, 112668, Control_c, 0, 64, 0
2, 112716, Note_on_c, 0, 76, 0
2, 112732, Note_on_c, 0, 73, 0
2, 112740, Note_on_c, 0, 78, 66
2, 112792, Note_on_c, 0, 78, 0
2, 112828, Note_on_c, 0, 85, 81
2, 112828, Note_on_c, 0, 76, 71
2, 112876, Note_on_c, 0, 76, 0
2, 112896, Note_on_c, 0, 85, 0
2, 112908, Note_on_c, 0, 57, 0
2, 112920, Note_on_c, 0, 78, 44
2, 112920, Note_on_c, 0, 73, 50
2, 112948, Note_on_c, 0, 64, 0
2, 112956, Note_on_c, 0, 73, 0
2, 112964, Note_on_c, 0, 78, 0
2, 113004, Note_on_c, 0, 83, 75
2, 113008, Note_on_c, 0, 76, 69
2, 113016, Note_on_c, 0, 64, 32
2, 113020, Note_on_c, 0, 57, 35
2, 113032, Note_on_c, 0, 52, 36
2, 113044, Note_on_c, 0, 76, 0
2, 113064, Note_on_c, 0, 83, 0
2, 113084, Note_on_c, 0, 78, 63
2, 113088, Note_on_c, 0, 73, 54
2, 113140, Note_on_c, 0, 73, 0
2, 113148, Note_on_c, 0, 78, 0
2, 113180, Note_on_c, 0, 81, 78
2, 113180, Note_on_c, 0, 76, 71
2, 113228, Note_on_c, 0, 76, 0
2, 113240, Note_on_c, 0, 81, 0
2, 113260, Note_on_c, 0, 78, 66
2, 113276, Note_on_c, 0, 73, 42
2, 113280, Note_on_c, 0, 64, 0
2, 113284, Note_on_c, 0, 52, 0
2, 113292, Note_on_c, 0, 57, 0
2, 113312, Note_on_c, 0, 78, 0
2, 113312, Note_on_c, 0, 73, 0
2, 113356, Note_on_c, 0, 64, 36
2, 113360, Note_on_c, 0, 74, 73
2, 113360, Note_on_c, 0, 81, 60
2, 113360, Note_on_c, 0, 52, 40
2, 113372, Note_on_c, 0, 59, 37
2, 113412, Note_on_c, 0, 74, 0
2, 113416, Note_on_c, 0, 81, 0
2, 113448, Note_on_c, 0, 71, 47
2, 113448, Note_on_c, 0, 76, 58
2, 113488, Note_on_c, 0, 71, 0
2, 113500, Note_on_c, 0, 76, 0
2, 113532, Note_on_c, 0, 80, 71
2, 113540, Note_on_c, 0, 74, 56
2, 113568, Note_on_c, 0, 74, 0
2, 113592, Note_on_c, 0, 80, 0
2, 113628, Note_on_c, 0, 71, 43
2, 113628, Note_on_c, 0, 76, 66
2, 113664, Note_on_c, 0, 64, 0
2, 113664, Note_on_c, 0, 52, 0
2, 113668, Note_on_c, 0, 71, 0
2, 113676, Note_on_c, 0, 76, 0
2, 113688, Note_on_c, 0, 59, 0
2, 113708, Note_on_c, 0, 79, 75
2, 113720, Note_on_c, 0, 56, 37
2, 113720, Note_on_c, 0, 74, 63
2, 113724, Note_on_c, 0, 64, 43
2, 113768, Note_on_c, 0, 74, 0
2, 113768, Note_on_c, 0, 79, 0
2, 113792, Note_on_c, 0, 78, 65
2, 113800, Note_on_c, 0, 71, 57
2, 113844, Note_on_c, 0, 71, 0
2, 113848, Note_on_c, 0, 78, 0
2, 113888, Note_on_c, 0, 77, 75
2, 113892, Note_on_c, 0, 74, 60
2, 113928, Note_on_c, 0, 74, 0
2, 113968, Note_on_c, 0, 71, 54
2, 114028, Note_on_c, 0, 77, 0
2, 114040, Note_on_c, 0, 71, 0
2, 114056, Note_on_c, 0, 56, 0
2, 114064, Note_on_c, 0, 76, 62
2, 114068, Note_on_c, 0, 57, 36
2, 114076, Note_on_c, 0, 73, 39
2, 114140, Note_on_c, 0, 73, 0
2, 114164, Note_on_c, 0, 69, 56
2, 114248, Note_on_c, 0, 73, 46
2, 114260, Note_on_c, 0, 69, 0
2, 114308, Note_on_c, 0, 78, 58
2, 114312, Note_on_c, 0, 78, 65
2, 114316, Note_on_c, 0, 73, 0
2, 114320, Note_on_c, 0, 76, 0
2, 114324, Note_on_c, 0, 57, 0
2, 114336, Note_on_c, 0, 64, 0
2, 114372, Note_on_c, 0, 78, 0
2, 114388, Note_on_c, 0, 78, 0
2, 114404, Note_on_c, 0, 76, 64
2, 114412, Note_on_c, 0, 67, 46
2, 114412, Note_on_c, 0, 70, 31
2, 114420, Note_on_c, 0, 62, 44
2, 114480, Note_on_c, 0, 76, 0
2, 114488, Note_on_c, 0, 78, 66
2, 114492, Note_on_c, 0, 70, 0
2, 114568, Note_on_c, 0, 78, 0
2, 114576, Note_on_c, 0, 67, 0
2, 114580, Note_on_c, 0, 76, 64
2, 114584, Note_on_c, 0, 68, 44
2, 114584, Note_on_c, 0, 71, 51
2, 114644, Note_on_c, 0, 62, 0
2, 114656, Note_on_c, 0, 76, 0
2, 114664, Note_on_c, 0, 71, 0
2, 114664, Note_on_c, 0, 78, 67
2, 114748, Note_on_c, 0, 78, 0
2, 114752, Note_on_c, 0, 61, 40
2, 114752, Note_on_c, 0, 76, 63
2, 114756, Note_on_c, 0, 72, 48
2, 114812, Note_on_c, 0, 72, 0
2, 114828, Note_on_c, 0, 78, 71
2, 114836, Note_on_c, 0, 76, 0
2, 114904, Note_on_c, 0, 78, 0
2, 114920, Note_on_c, 0, 73, 57
2, 114920, Note_on_c, 0, 76, 75
2, 114928, Note_on_c, 0, 69, 67
2, 114956, Note_on_c, 0, 68, 0
2, 114964, Note_on_c, 0, 61, 0
2, 114972, Note_on_c, 0, 69, 0
2, 114992, Note_on_c, 0, 76, 0
2, 114996, Note_on_c, 0, 78, 74
2, 115012, Note_on_c, 0, 73, 0
2, 115084, Note_on_c, 0, 78, 0
2, 115092, Note_on_c, 0, 76, 72
2, 115096, Note_on_c, 0, 73, 55
2, 115100, Note_on_c, 0, 70, 48
2, 115108, Note_on_c, 0, 56, 35
2, 115168, Note_on_c, 0, 73, 0
2, 115172, Note_on_c, 0, 76, 0
2, 115176, Note_on_c, 0, 78, 71
2, 115220, Note_on_c, 0, 70, 0
2, 115232, Note_on_c, 0, 56, 0
2, 115264, Note_on_c, 0, 78, 0
2, 115264, Note_on_c, 0, 71, 62
2, 115264, Note_on_c, 0, 74, 58
2, 115268, Note_on_c, 0, 76, 71
2, 115324, Note_on_c, 0, 74, 0
2, 115340, Note_on_c, 0, 76, 0
2, 115340, Note_on_c, 0, 78, 63
2, 115344, Note_on_c, 0, 71, 0
2, 115412, Note_on_c, 0, 78, 0
2, 115436, Note_on_c, 0, 73, 48
2, 115440, Note_on_c, 0, 76, 66
2, 115448, Note_on_c, 0, 64, 46
2, 115448, Note_on_c, 0, 57, 35
2, 115488, Note_on_c, 0, 76, 0
2, 115516, Note_on_c, 0, 78, 70
2, 115528, Note_on_c, 0, 73, 0
2, 115568, Note_on_c, 0, 78, 0
2, 115596, Note_on_c, 0, 57, 0
2, 115604, Note_on_c, 0, 85, 83
2, 115608, Note_on_c, 0, 76, 74
2, 115668, Note_on_c, 0, 76, 0
2, 115668, Note_on_c, 0, 85, 0
2, 115668, Note_on_c, 0, 64, 0
2, 115684, Note_on_c, 0, 78, 67
2, 115696, Note_on_c, 0, 73, 29
2, 115736, Note_on_c, 0, 73, 0
2, 115748, Note_on_c, 0, 78, 0
2, 115784, Note_on_c, 0, 83, 75
2, 115788, Note_on_c, 0, 76, 70
2, 115788, Note_on_c, 0, 64, 52
2, 115796, Note_on_c, 0, 57, 50
2, 115796, Note_on_c, 0, 52, 39
2, 115808, Note_on_c, 0, 76, 0
2, 115816, Note_on_c, 0, 78, 41
2, 115836, Note_on_c, 0, 83, 0
2, 115856, Note_on_c, 0, 73, 58
2, 115904, Note_on_c, 0, 78, 0
2, 115912, Note_on_c, 0, 73, 0
2, 115952, Note_on_c, 0, 81, 80
2, 115960, Note_on_c, 0, 76, 62
2, 115984, Note_on_c, 0, 76, 0
2, 116008, Note_on_c, 0, 81, 0
2, 116040, Note_on_c, 0, 73, 54
2, 116040, Note_on_c, 0, 78, 57
2, 116068, Note_on_c, 0, 52, 0
2, 116080, Note_on_c, 0, 57, 0
2, 116080, Note_on_c, 0, 78, 0
2, 116080, Note_on_c, 0, 64, 0
2, 116088, Note_on_c, 0, 73, 0
2, 116132, Note_on_c, 0, 81, 66
2, 116136, Note_on_c, 0, 74, 69
2, 116140, Note_on_c, 0, 64, 27
2, 116144, Note_on_c, 0, 59, 35
2, 116152, Note_on_c, 0, 52, 31
2, 116192, Note_on_c, 0, 74, 0
2, 116200, Note_on_c, 0, 81, 0
2, 116216, Note_on_c, 0, 71, 64
2, 116216, Note_on_c, 0, 76, 57
2, 116256, Note_on_c, 0, 76, 0
2, 116260, Note_on_c, 0, 71, 0
2, 116304, Note_on_c, 0, 80, 73
2, 116316, Note_on_c, 0, 74, 70
2, 116352, Note_on_c, 0, 74, 0
2, 116368, Note_on_c, 0, 80, 0
2, 116396, Note_on_c, 0, 71, 63
2, 116396, Note_on_c, 0, 76, 66
2, 116428, Note_on_c, 0, 64, 0
2, 116436, Note_on_c, 0, 71, 0
2, 116444, Note_on_c, 0, 52, 0
2, 116448, Note_on_c, 0, 76, 0
2, 116452, Note_on_c, 0, 59, 0
2, 116484, Note_on_c, 0, 79, 78
2, 116488, Note_on_c, 0, 64, 39
2, 116492, Note_on_c, 0, 74, 63
2, 116496, Note_on_c, 0, 56, 44
2, 116532, Note_on_c, 0, 79, 0
2, 116536, Note_on_c, 0, 74, 0
2, 116568, Note_on_c, 0, 71, 44
2, 116568, Note_on_c, 0, 78, 66
2, 116612, Note_on_c, 0, 71, 0
2, 116620, Note_on_c, 0, 78, 0
2, 116660, Note_on_c, 0, 74, 62
2, 116660, Note_on_c, 0, 77, 73
2, 116688, Note_on_c, 0, 74, 0
2, 116736, Note_on_c, 0, 71, 49
2, 116796, Note_on_c, 0, 56, 0
2, 116804, Note_on_c, 0, 77, 0
2, 116808, Note_on_c, 0, 71, 0
2, 116836, Note_on_c, 0, 76, 64
2, 116848, Note_on_c, 0, 73, 40
2, 116848, Note_on_c, 0, 57, 34
2, 116900, Note_on_c, 0, 73, 0
2, 116916, Note_on_c, 0, 76, 0
2, 116924, Note_on_c, 0, 69, 56
2, 117008, Note_on_c, 0, 57, 0
2, 117008, Note_on_c, 0, 73, 57
2, 117028, Note_on_c, 0, 69, 0
2, 117052, Note_on_c, 0, 64, 0
2, 117064, Control_c, 0, 64, 24
2, 117072, Control_c, 0, 64, 40
2, 117080, Note_on_c, 0, 73, 0
2, 117088, Control_c, 0, 64, 56
2, 117104, Note_on_c, 0, 80, 67
2, 117104, Control_c, 0, 64, 72
2, 117128, Control_c, 0, 64, 88
2, 117144, Note_on_c, 0, 80, 0
2, 117184, Control_c, 0, 64, 56
2, 117192, Note_on_c, 0, 67, 44
2, 117192, Control_c, 0, 64, 40
2, 117200, Note_on_c, 0, 72, 51
2, 117200, Note_on_c, 0, 81, 73
2, 117200, Note_on_c, 0, 75, 48
2, 117200, Control_c, 0, 64, 24
2, 117208, Control_c, 0, 64, 0
2, 117236, Note_on_c, 0, 67, 0
2, 117280, Note_on_c, 0, 75, 0
2, 117280, Note_on_c, 0, 81, 0
2, 117284, Note_on_c, 0, 82, 72
2, 117296, Control_c, 0, 64, 24
2, 117332, Control_c, 0, 64, 0
2, 117340, Note_on_c, 0, 72, 0
2, 117364, Note_on_c, 0, 82, 0
2, 117372, Note_on_c, 0, 81, 71
2, 117372, Note_on_c, 0, 73, 54
2, 117380, Note_on_c, 0, 76, 67
2, 117436, Note_on_c, 0, 81, 0
2, 117448, Note_on_c, 0, 76, 0
2, 117452, Control_c, 0, 64, 24
2, 117456, Note_on_c, 0, 82, 60
2, 117460, Control_c, 0, 64, 40
2, 117480, Note_on_c, 0, 73, 0
2, 117500, Note_on_c, 0, 82, 0
2, 117508, Control_c, 0, 64, 56
2, 117536, Control_c, 0, 64, 24
2, 117544, Control_c, 0, 64, 0
2, 117552, Note_on_c, 0, 81, 67
2, 117552, Note_on_c, 0, 73, 51
2, 117556, Note_on_c, 0, 76, 44
2, 117568, Note_on_c, 0, 65, 37
2, 117624, Note_on_c, 0, 76, 0
2, 117636, Note_on_c, 0, 81, 0
2, 117636, Note_on_c, 0, 82, 69
2, 117696, Note_on_c, 0, 73, 0
2, 117700, Control_c, 0, 64, 24
2, 117708, Control_c, 0, 64, 56
2, 117716, Note_on_c, 0, 82, 0
2, 117728, Note_on_c, 0, 81, 73
2, 117728, Control_c, 0, 64, 72
2, 117732, Note_on_c, 0, 77, 63
2, 117736, Note_on_c, 0, 74, 54
2, 117736, Control_c, 0, 64, 88
2, 117760, Control_c, 0, 64, 104
2, 117768, Note_on_c, 0, 65, 0
2, 117780, Note_on_c, 0, 74, 0
2, 117788, Note_on_c, 0, 77, 0
2, 117796, Note_on_c, 0, 81, 0
2, 117808, Note_on_c, 0, 82, 73
2, 117816, Control_c, 0, 64, 127
2, 117856, Note_on_c, 0, 82, 0
2, 117868, Control_c, 0, 64, 104
2, 117876, Control_c, 0, 64, 88
2, 117884, Control_c, 0, 64, 72
2, 117892, Control_c, 0, 64, 40
2, 117896, Note_on_c, 0, 78, 57
2, 117900, Note_on_c, 0, 81, 74
2, 117900, Control_c, 0, 64, 0
2, 117908, Note_on_c, 0, 75, 54
2, 117912, Note_on_c, 0, 61, 42
2, 117976, Note_on_c, 0, 81, 0
2, 117980, Control_c, 0, 64, 24
2, 117988, Note_on_c, 0, 78, 0
2, 117988, Note_on_c, 0, 82, 77
2, 117988, Control_c, 0, 64, 40
2, 117996, Control_c, 0, 64, 56
2, 118004, Control_c, 0, 64, 72
2, 118024, Note_on_c, 0, 75, 0
2, 118028, Note_on_c, 0, 61, 0
2, 118036, Control_c, 0, 64, 104
2, 118072, Note_on_c, 0, 82, 0
2, 118080, Note_on_c, 0, 81, 81
2, 118080, Note_on_c, 0, 76, 60
2, 118084, Note_on_c, 0, 79, 66
2, 118088, Control_c, 0, 64, 127
2, 118144, Note_on_c, 0, 81, 0
2, 118148, Note_on_c, 0, 79, 0
2, 118160, Note_on_c, 0, 82, 73
2, 118164, Note_on_c, 0, 76, 0
2, 118228, Note_on_c, 0, 82, 0
2, 118232, Control_c, 0, 64, 104
2, 118240, Control_c, 0, 64, 88
2, 118244, Control_c, 0, 64, 56
2, 118252, Control_c, 0, 64, 24
2, 118260, Note_on_c, 0, 81, 70
2, 118264, Note_on_c, 0, 77, 52
2, 118264, Control_c, 0, 64, 0
2, 118272, Note_on_c, 0, 69, 42
2, 118280, Note_on_c, 0, 62, 33
2, 118324, Note_on_c, 0, 81, 0
2, 118324, Control_c, 0, 64, 40
2, 118332, Control_c, 0, 64, 56
2, 118340, Note_on_c, 0, 82, 69
2, 118340, Control_c, 0, 64, 72
2, 118356, Note_on_c, 0, 77, 0
2, 118372, Control_c, 0, 64, 88
2, 118380, Note_on_c, 0, 82, 0
2, 118404, Control_c, 0, 64, 104
2, 118428, Note_on_c, 0, 81, 71
2, 118428, Control_c, 0, 64, 127
2, 118436, Note_on_c, 0, 89, 89
2, 118472, Note_on_c, 0, 81, 0
2, 118472, Note_on_c, 0, 62, 0
2, 118476, Note_on_c, 0, 89, 0
2, 118504, Note_on_c, 0, 69, 0
2, 118516, Note_on_c, 0, 82, 77
2, 118524, Note_on_c, 0, 77, 62
2, 118548, Note_on_c, 0, 77, 0
2, 118576, Note_on_c, 0, 82, 0
2, 118612, Note_on_c, 0, 88, 88
2, 118616, Note_on_c, 0, 81, 70
2, 118616, Control_c, 0, 64, 104
2, 118624, Note_on_c, 0, 69, 40
2, 118624, Note_on_c, 0, 62, 41
2, 118624, Control_c, 0, 64, 72
2, 118632, Control_c, 0, 64, 40
2, 118636, Note_on_c, 0, 57, 35
2, 118640, Control_c, 0, 64, 24
2, 118648, Control_c, 0, 64, 0
2, 118668, Note_on_c, 0, 81, 0
2, 118672, Control_c, 0, 64, 40
2, 118680, Note_on_c, 0, 88, 0
2, 118680, Control_c, 0, 64, 56
2, 118688, Control_c, 0, 64, 88
2, 118692, Note_on_c, 0, 82, 58
2, 118696, Control_c, 0, 64, 104
2, 118700, Note_on_c, 0, 77, 57
2, 118704, Control_c, 0, 64, 127
2, 118744, Note_on_c, 0, 77, 0
2, 118748, Note_on_c, 0, 82, 0
2, 118788, Note_on_c, 0, 86, 83
2, 118788, Note_on_c, 0, 81, 75
2, 118840, Note_on_c, 0, 81, 0
2, 118856, Note_on_c, 0, 86, 0
2, 118876, Note_on_c, 0, 82, 42
2, 118884, Note_on_c, 0, 77, 69
2, 118892, Note_on_c, 0, 57, 0
2, 118904, Note_on_c, 0, 69, 0
2, 118908, Note_on_c, 0, 62, 0
2, 118916, Note_on_c, 0, 77, 0
2, 118920, Note_on_c, 0, 82, 0
2, 118948, Control_c, 0, 64, 104
2, 118956, Control_c, 0, 64, 88
2, 118964, Note_on_c, 0, 86, 80
2, 118964, Control_c, 0, 64, 56
2, 118972, Note_on_c, 0, 79, 73
2, 118972, Control_c, 0, 64, 24
2, 118976, Note_on_c, 0, 69, 43
2, 118980, Control_c, 0, 64, 0
2, 118984, Note_on_c, 0, 57, 39
2, 118988, Note_on_c, 0, 64, 43
2, 119036, Note_on_c, 0, 79, 0
2, 119036, Control_c, 0, 64, 40
2, 119044, Note_on_c, 0, 86, 0
2, 119044, Control_c, 0, 64, 72
2, 119052, Control_c, 0, 64, 104
2, 119056, Note_on_c, 0, 81, 63
2, 119056, Note_on_c, 0, 76, 63
2, 119064, Control_c, 0, 64, 127
2, 119096, Note_on_c, 0, 76, 0
2, 119104, Note_on_c, 0, 81, 0
2, 119144, Note_on_c, 0, 85, 80
2, 119152, Note_on_c, 0, 79, 67
2, 119188, Note_on_c, 0, 79, 0
2, 119196, Note_on_c, 0, 85, 0
2, 119236, Note_on_c, 0, 57, 0
2, 119240, Note_on_c, 0, 81, 64
2, 119240, Note_on_c, 0, 76, 62
2, 119248, Note_on_c, 0, 69, 0
2, 119264, Note_on_c, 0, 76, 0
2, 119280, Note_on_c, 0, 81, 0
2, 119280, Note_on_c, 0, 64, 0
2, 119296, Control_c, 0, 64, 104
2, 119304, Control_c, 0, 64, 88
2, 119312, Control_c, 0, 64, 72
2, 119320, Control_c, 0, 64, 56
2, 119324, Note_on_c, 0, 69, 47
2, 119324, Note_on_c, 0, 84, 75
2, 119328, Note_on_c, 0, 61, 40
2, 119328, Note_on_c, 0, 79, 67
2, 119328, Control_c, 0, 64, 24
2, 119332, Control_c, 0, 64, 0
2, 119380, Note_on_c, 0, 79, 0
2, 119388, Note_on_c, 0, 84, 0
2, 119404, Note_on_c, 0, 83, 71
2, 119408, Note_on_c, 0, 76, 60
2, 119456, Note_on_c, 0, 76, 0
2, 119468, Note_on_c, 0, 83, 0
2, 119492, Note_on_c, 0, 82, 57
2, 119500, Note_on_c, 0, 79, 65
2, 119548, Note_on_c, 0, 79, 0
2, 119576, Note_on_c, 0, 82, 0
2, 119580, Note_on_c, 0, 76, 58
2, 119628, Note_on_c, 0, 61, 0
2, 119652, Note_on_c, 0, 76, 0
2, 119668, Note_on_c, 0, 81, 71
2, 119668, Note_on_c, 0, 77, 63
2, 119672, Note_on_c, 0, 62, 50
2, 119716, Note_on_c, 0, 77, 0
2, 119748, Note_on_c, 0, 81, 0
2, 119756, Note_on_c, 0, 74, 58
2, 119820, Note_on_c, 0, 62, 0
2, 119840, Note_on_c, 0, 74, 0
2, 119848, Note_on_c, 0, 77, 47
2, 119872, Note_on_c, 0, 69, 0
2, 119900, Note_on_c, 0, 77, 0
2, 119912, Note_on_c, 0, 82, 62
2, 119984, Note_on_c, 0, 82, 0
2, 120000, Note_on_c, 0, 75, 49
2, 120004, Note_on_c, 0, 81, 62
2, 120012, Note_on_c, 0, 72, 46
2, 120012, Note_on_c, 0, 67, 42
2, 120076, Note_on_c, 0, 81, 0
2, 120088, Note_on_c, 0, 82, 62
2, 120092, Note_on_c, 0, 75, 0
2, 120164, Note_on_c, 0, 82, 0
2, 120176, Note_on_c, 0, 81, 67
2, 120176, Note_on_c, 0, 73, 57
2, 120180, Note_on_c, 0, 72, 0
2, 120184, Note_on_c, 0, 76, 57
2, 120228, Note_on_c, 0, 67, 0
2, 120248, Note_on_c, 0, 81, 0
2, 120256, Note_on_c, 0, 76, 0
2, 120256, Note_on_c, 0, 82, 72
2, 120276, Note_on_c, 0, 73, 0
2, 120320, Note_on_c, 0, 82, 0
2, 120344, Note_on_c, 0, 81, 77
2, 120344, Note_on_c, 0, 73, 58
2, 120352, Note_on_c, 0, 76, 55
2, 120356, Note_on_c, 0, 65, 51
2, 120420, Note_on_c, 0, 76, 0
2, 120432, Note_on_c, 0, 81, 0
2, 120432, Note_on_c, 0, 82, 81
2, 120492, Note_on_c, 0, 73, 0
2, 120516, Note_on_c, 0, 82, 0
2, 120520, Note_on_c, 0, 81, 86
2, 120524, Note_on_c, 0, 77, 78
2, 120528, Note_on_c, 0, 74, 70
2, 120572, Note_on_c, 0, 74, 0
2, 120576, Note_on_c, 0, 65, 0
2, 120580, Note_on_c, 0, 77, 0
2, 120600, Note_on_c, 0, 81, 0
2, 120600, Note_on_c, 0, 82, 83
2, 120680, Note_on_c, 0, 82, 0
2, 120692, Note_on_c, 0, 81, 78
2, 120696, Note_on_c, 0, 78, 58
2, 120700, Note_on_c, 0, 75, 58
2, 120708, Note_on_c, 0, 61, 39
2, 120744, Control_c, 0, 64, 24
2, 120752, Control_c, 0, 64, 40
2, 120764, Note_on_c, 0, 81, 0
2, 120768, Note_on_c, 0, 78, 0
2, 120772, Note_on_c, 0, 82, 79
2, 120776, Control_c, 0, 64, 56
2, 120824, Note_on_c, 0, 75, 0
2, 120824, Note_on_c, 0, 61, 0
2, 120840, Control_c, 0, 64, 40
2, 120864, Note_on_c, 0, 82, 0
2, 120864, Note_on_c, 0, 81, 87
2, 120868, Note_on_c, 0, 79, 75
2, 120868, Note_on_c, 0, 76, 69
2, 120872, Control_c, 0, 64, 72
2, 120876, Control_c, 0, 64, 88
2, 120884, Control_c, 0, 64, 104
2, 120916, Control_c, 0, 64, 127
2, 120928, Note_on_c, 0, 79, 0
2, 120940, Note_on_c, 0, 76, 0
2, 120940, Note_on_c, 0, 81, 0
2, 120940, Note_on_c, 0, 82, 80
2, 121004, Control_c, 0, 64, 104
2, 121012, Control_c, 0, 64, 88
2, 121016, Note_on_c, 0, 82, 0
2, 121020, Control_c, 0, 64, 72
2, 121028, Control_c, 0, 64, 40
2, 121036, Control_c, 0, 64, 24
2, 121040, Note_on_c, 0, 81, 78
2, 121040, Note_on_c, 0, 77, 54
2, 121044, Control_c, 0, 64, 0
2, 121048, Note_on_c, 0, 69, 50
2, 121052, Note_on_c, 0, 62, 41
2, 121100, Note_on_c, 0, 81, 0
2, 121116, Note_on_c, 0, 82, 73
2, 121144, Note_on_c, 0, 77, 0
2, 121172, Note_on_c, 0, 82, 0
2, 121208, Note_on_c, 0, 81, 58
2, 121212, Note_on_c, 0, 89, 94
2, 121244, Note_on_c, 0, 62, 0
2, 121268, Note_on_c, 0, 89, 0
2, 121276, Note_on_c, 0, 81, 0
2, 121288, Note_on_c, 0, 82, 69
2, 121300, Note_on_c, 0, 69, 0
2, 121300, Note_on_c, 0, 77, 71
2, 121344, Note_on_c, 0, 77, 0
2, 121356, Note_on_c, 0, 82, 0
2, 121380, Note_on_c, 0, 88, 80
2, 121384, Note_on_c, 0, 81, 72
2, 121388, Note_on_c, 0, 62, 48
2, 121388, Note_on_c, 0, 69, 49
2, 121396, Note_on_c, 0, 57, 39
2, 121440, Note_on_c, 0, 81, 0
2, 121448, Note_on_c, 0, 88, 0
2, 121468, Note_on_c, 0, 82, 60
2, 121468, Note_on_c, 0, 77, 62
2, 121520, Note_on_c, 0, 77, 0
2, 121528, Note_on_c, 0, 82, 0
2, 121556, Note_on_c, 0, 86, 78
2, 121560, Note_on_c, 0, 81, 71
2, 121608, Note_on_c, 0, 81, 0
2, 121608, Note_on_c, 0, 86, 0
2, 121624, Note_on_c, 0, 57, 0
2, 121624, Note_on_c, 0, 62, 0
2, 121632, Note_on_c, 0, 69, 0
2, 121632, Note_on_c, 0, 82, 57
2, 121648, Note_on_c, 0, 77, 65
2, 121676, Note_on_c, 0, 77, 0
2, 121684, Note_on_c, 0, 82, 0
2, 121724, Note_on_c, 0, 86, 81
2, 121728, Note_on_c, 0, 79, 77
2, 121732, Note_on_c, 0, 69, 41
2, 121744, Note_on_c, 0, 64, 37
2, 121748, Note_on_c, 0, 57, 28
2, 121776, Note_on_c, 0, 79, 0
2, 121792, Note_on_c, 0, 86, 0
2, 121808, Note_on_c, 0, 81, 59
2, 121816, Note_on_c, 0, 76, 54
2, 121840, Note_on_c, 0, 76, 0
2, 121864, Note_on_c, 0, 81, 0
2, 121900, Note_on_c, 0, 85, 65
2, 121912, Note_on_c, 0, 79, 62
2, 121940, Note_on_c, 0, 57, 0
2, 121956, Note_on_c, 0, 79, 0
2, 121964, Note_on_c, 0, 85, 0
2, 121964, Note_on_c, 0, 69, 0
2, 121988, Note_on_c, 0, 81, 67
2, 121996, Note_on_c, 0, 76, 58
2, 122016, Note_on_c, 0, 64, 0
2, 122024, Note_on_c, 0, 76, 0
2, 122068, Control_c, 0, 64, 104
2, 122072, Note_on_c, 0, 84, 86
2, 122072, Control_c, 0, 64, 56
2, 122076, Note_on_c, 0, 79, 80
2, 122076, Note_on_c, 0, 69, 55
2, 122080, Note_on_c, 0, 61, 43
2, 122080, Control_c, 0, 64, 0
2, 122120, Control_c, 0, 64, 40
2, 122128, Note_on_c, 0, 79, 0
2, 122128, Note_on_c, 0, 84, 0
2, 122128, Control_c, 0, 64, 88
2, 122136, Control_c, 0, 64, 127
2, 122156, Note_on_c, 0, 83, 79
2, 122164, Note_on_c, 0, 76, 54
2, 122196, Note_on_c, 0, 76, 0
2, 122220, Note_on_c, 0, 83, 0
2, 122240, Note_on_c, 0, 82, 70
2, 122252, Note_on_c, 0, 79, 63
2, 122252, Control_c, 0, 64, 104
2, 122260, Control_c, 0, 64, 40
2, 122264, Control_c, 0, 64, 0
2, 122296, Note_on_c, 0, 79, 0
2, 122312, Control_c, 0, 64, 24
2, 122316, Note_on_c, 0, 82, 0
2, 122320, Control_c, 0, 64, 56
2, 122324, Note_on_c, 0, 76, 55
2, 122328, Control_c, 0, 64, 88
2, 122332, Control_c, 0, 64, 104
2, 122348, Control_c, 0, 64, 127
2, 122380, Note_on_c, 0, 76, 0
2, 122384, Note_on_c, 0, 61, 0
2, 122400, Control_c, 0, 64, 104
2, 122408, Note_on_c, 0, 81, 75
2, 122408, Control_c, 0, 64, 88
2, 122412, Note_on_c, 0, 77, 64
2, 122416, Control_c, 0, 64, 56
2, 122420, Note_on_c, 0, 62, 40
2, 122424, Control_c, 0, 64, 24
2, 122428, Control_c, 0, 64, 0
2, 122460, Note_on_c, 0, 77, 0
2, 122492, Note_on_c, 0, 81, 0
2, 122496, Control_c, 0, 64, 88
2, 122500, Note_on_c, 0, 74, 66
2, 122504, Control_c, 0, 64, 127
2, 122528, Note_on_c, 0, 69, 0
2, 122536, Note_on_c, 0, 62, 0
2, 122572, Note_on_c, 0, 77, 73
2, 122584, Note_on_c, 0, 74, 0
2, 122648, Note_on_c, 0, 77, 0
2, 122652, Note_on_c, 0, 86, 98
2, 122676, Note_on_c, 0, 86, 0
2, 122744, Note_on_c, 0, 45, 41
2, 122760, Note_on_c, 0, 60, 64
2, 122768, Note_on_c, 0, 77, 81
2, 122772, Note_on_c, 0, 89, 85
2, 122784, Control_c, 0, 64, 88
2, 122792, Control_c, 0, 64, 24
2, 122800, Control_c, 0, 64, 0
2, 122840, Note_on_c, 0, 89, 0
2, 122848, Control_c, 0, 64, 72
2, 122852, Control_c, 0, 64, 127
2, 122856, Note_on_c, 0, 86, 87
2, 122864, Note_on_c, 0, 77, 0
2, 122864, Note_on_c, 0, 84, 72
2, 122916, Note_on_c, 0, 45, 0
2, 122920, Note_on_c, 0, 84, 0
2, 122928, Note_on_c, 0, 86, 0
2, 122936, Note_on_c, 0, 60, 0
2, 122940, Note_on_c, 0, 89, 96
2, 122944, Note_on_c, 0, 77, 78
2, 122992, Note_on_c, 0, 89, 0
2, 123016, Note_on_c, 0, 77, 0
2, 123020, Note_on_c, 0, 87, 81
2, 123028, Note_on_c, 0, 84, 71
2, 123048, Note_on_c, 0, 84, 0
2, 123072, Note_on_c, 0, 87, 0
2, 123120, Note_on_c, 0, 87, 88
2, 123120, Note_on_c, 0, 62, 69
2, 123124, Note_on_c, 0, 77, 73
2, 123124, Note_on_c, 0, 46, 43
2, 123136, Control_c, 0, 64, 104
2, 123140, Control_c, 0, 64, 56
2, 123148, Control_c, 0, 64, 0
2, 123200, Note_on_c, 0, 77, 0
2, 123200, Note_on_c, 0, 87, 0
2, 123204, Note_on_c, 0, 85, 79
2, 123212, Note_on_c, 0, 82, 58
2, 123212, Control_c, 0, 64, 72
2, 123216, Control_c, 0, 64, 127
2, 123260, Note_on_c, 0, 82, 0
2, 123276, Note_on_c, 0, 85, 0
2, 123296, Note_on_c, 0, 87, 86
2, 123300, Note_on_c, 0, 77, 75
2, 123320, Note_on_c, 0, 46, 0
2, 123348, Note_on_c, 0, 87, 0
2, 123348, Note_on_c, 0, 77, 0
2, 123356, Note_on_c, 0, 62, 0
2, 123368, Note_on_c, 0, 86, 83
2, 123368, Note_on_c, 0, 82, 63
2, 123384, Note_on_c, 0, 82, 0
2, 123396, Control_c, 0, 64, 72
2, 123400, Control_c, 0, 64, 24
2, 123416, Note_on_c, 0, 86, 0
2, 123420, Note_on_c, 0, 48, 54
2, 123424, Control_c, 0, 64, 88
2, 123428, Control_c, 0, 64, 127
2, 123432, Note_on_c, 0, 48, 0
2, 123468, Note_on_c, 0, 75, 63
2, 123472, Note_on_c, 0, 86, 83
2, 123476, Control_c, 0, 64, 104
2, 123484, Control_c, 0, 64, 56
2, 123488, Note_on_c, 0, 63, 64
2, 123488, Control_c, 0, 64, 24
2, 123512, Control_c, 0, 64, 72
2, 123520, Control_c, 0, 64, 88
2, 123524, Control_c, 0, 64, 127
2, 123528, Note_on_c, 0, 86, 0
2, 123544, Note_on_c, 0, 75, 0
2, 123552, Control_c, 0, 64, 104
2, 123556, Note_on_c, 0, 83, 69
2, 123564, Note_on_c, 0, 81, 55
2, 123612, Note_on_c, 0, 81, 0
2, 123620, Note_on_c, 0, 83, 0
2, 123632, Control_c, 0, 64, 88
2, 123640, Control_c, 0, 64, 72
2, 123644, Note_on_c, 0, 86, 81
2, 123648, Note_on_c, 0, 75, 57
2, 123648, Control_c, 0, 64, 56
2, 123656, Control_c, 0, 64, 40
2, 123660, Control_c, 0, 64, 24
2, 123668, Control_c, 0, 64, 0
2, 123684, Note_on_c, 0, 63, 0
2, 123696, Note_on_c, 0, 75, 0
2, 123704, Note_on_c, 0, 86, 0
2, 123732, Note_on_c, 0, 84, 78
2, 123732, Note_on_c, 0, 81, 54
2, 123756, Note_on_c, 0, 81, 0
2, 123768, Note_on_c, 0, 84, 0
2, 123792, Note_on_c, 0, 50, 44
2, 123800, Note_on_c, 0, 65, 64
2, 123808, Note_on_c, 0, 84, 80
2, 123808, Note_on_c, 0, 74, 71
2, 123812, Control_c, 0, 64, 104
2, 123816, Control_c, 0, 64, 88
2, 123824, Control_c, 0, 64, 56
2, 123832, Control_c, 0, 64, 24
2, 123836, Control_c, 0, 64, 0
2, 123864, Note_on_c, 0, 84, 0
2, 123876, Note_on_c, 0, 74, 0
2, 123892, Note_on_c, 0, 81, 72
2, 123896, Note_on_c, 0, 77, 51
2, 123908, Control_c, 0, 64, 88
2, 123916, Control_c, 0, 64, 127
2, 123936, Note_on_c, 0, 77, 0
2, 123956, Note_on_c, 0, 81, 0
2, 123960, Note_on_c, 0, 50, 0
2, 123968, Note_on_c, 0, 84, 81
2, 123976, Note_on_c, 0, 65, 0
2, 123976, Note_on_c, 0, 74, 67
2, 124012, Note_on_c, 0, 84, 0
2, 124020, Note_on_c, 0, 74, 0
2, 124048, Note_on_c, 0, 82, 71
2, 124052, Note_on_c, 0, 77, 62
2, 124068, Note_on_c, 0, 77, 0
2, 124092, Note_on_c, 0, 82, 0
2, 124148, Note_on_c, 0, 83, 75
2, 124152, Note_on_c, 0, 72, 63
2, 124152, Note_on_c, 0, 66, 69
2, 124156, Note_on_c, 0, 51, 44
2, 124164, Control_c, 0, 64, 104
2, 124172, Control_c, 0, 64, 72
2, 124180, Control_c, 0, 64, 40
2, 124188, Control_c, 0, 64, 0
2, 124216, Note_on_c, 0, 83, 0
2, 124224, Note_on_c, 0, 72, 0
2, 124228, Control_c, 0, 64, 24
2, 124236, Note_on_c, 0, 80, 70
2, 124236, Control_c, 0, 64, 88
2, 124244, Note_on_c, 0, 78, 50
2, 124244, Control_c, 0, 64, 127
2, 124292, Note_on_c, 0, 78, 0
2, 124300, Note_on_c, 0, 80, 0
2, 124320, Note_on_c, 0, 83, 79
2, 124328, Note_on_c, 0, 72, 54
2, 124332, Note_on_c, 0, 51, 0
2, 124360, Note_on_c, 0, 83, 0
2, 124384, Note_on_c, 0, 72, 0
2, 124388, Note_on_c, 0, 66, 0
2, 124400, Note_on_c, 0, 81, 75
2, 124400, Note_on_c, 0, 78, 60
2, 124444, Note_on_c, 0, 78, 0
2, 124444, Note_on_c, 0, 81, 0
2, 124444, Control_c, 0, 64, 56
2, 124452, Control_c, 0, 64, 0
2, 124456, Note_on_c, 0, 52, 51
2, 124468, Note_on_c, 0, 52, 0
2, 124492, Note_on_c, 0, 71, 63
2, 124496, Note_on_c, 0, 81, 72
2, 124508, Control_c, 0, 64, 56
2, 124512, Note_on_c, 0, 68, 69
2, 124516, Control_c, 0, 64, 127
2, 124540, Note_on_c, 0, 81, 0
2, 124556, Note_on_c, 0, 71, 0
2, 124580, Note_on_c, 0, 76, 57
2, 124580, Note_on_c, 0, 79, 67
2, 124608, Note_on_c, 0, 76, 0
2, 124616, Note_on_c, 0, 79, 0
2, 124648, Note_on_c, 0, 81, 69
2, 124652, Note_on_c, 0, 71, 46
2, 124696, Note_on_c, 0, 81, 0
2, 124696, Note_on_c, 0, 68, 0
2, 124704, Note_on_c, 0, 71, 0
2, 124732, Note_on_c, 0, 80, 74
2, 124744, Note_on_c, 0, 76, 58
2, 124756, Note_on_c, 0, 76, 0
2, 124772, Note_on_c, 0, 80, 0
2, 124824, Note_on_c, 0, 80, 79
2, 124828, Note_on_c, 0, 54, 46
2, 124828, Note_on_c, 0, 69, 63
2, 124832, Note_on_c, 0, 63, 46
2, 124836, Control_c, 0, 64, 104
2, 124840, Control_c, 0, 64, 56
2, 124848, Control_c, 0, 64, 0
2, 124884, Note_on_c, 0, 80, 0
2, 124892, Control_c, 0, 64, 24
2, 124896, Note_on_c, 0, 69, 0
2, 124900, Control_c, 0, 64, 72
2, 124904, Control_c, 0, 64, 104
2, 124912, Note_on_c, 0, 77, 75
2, 124912, Control_c, 0, 64, 127
2, 124916, Note_on_c, 0, 75, 50
2, 124952, Note_on_c, 0, 75, 0
2, 124956, Note_on_c, 0, 77, 0
2, 124996, Note_on_c, 0, 54, 0
2, 124996, Note_on_c, 0, 80, 70
2, 125000, Note_on_c, 0, 69, 56
2, 125008, Note_on_c, 0, 60, 43
2, 125012, Note_on_c, 0, 63, 0
2, 125056, Note_on_c, 0, 80, 0
2, 125072, Note_on_c, 0, 69, 0
2, 125080, Note_on_c, 0, 78, 71
2, 125084, Note_on_c, 0, 75, 66
2, 125104, Note_on_c, 0, 75, 0
2, 125112, Note_on_c, 0, 78, 0
2, 125152, Note_on_c, 0, 60, 0
2, 125164, Note_on_c, 0, 78, 69
2, 125176, Note_on_c, 0, 71, 43
2, 125180, Note_on_c, 0, 56, 43
2, 125184, Note_on_c, 0, 64, 48
2, 125188, Note_on_c, 0, 71, 0
2, 125188, Note_on_c, 0, 68, 64
2, 125212, Control_c, 0, 64, 104
2, 125220, Control_c, 0, 64, 56
2, 125228, Control_c, 0, 64, 24
2, 125232, Control_c, 0, 64, 0
2, 125260, Control_c, 0, 64, 0
2, 125268, Note_on_c, 0, 68, 0
2, 125268, Note_on_c, 0, 78, 0
2, 125268, Note_on_c, 0, 71, 60
2, 125268, Control_c, 0, 64, 0
2, 125276, Note_on_c, 0, 75, 60
2, 125276, Control_c, 0, 64, 0
2, 125288, Note_on_c, 0, 71, 0
2, 125304, Note_on_c, 0, 81, 0
2, 125336, Note_on_c, 0, 75, 0
2, 125360, Note_on_c, 0, 78, 65
2, 125360, Control_c, 0, 64, 0
2, 125364, Note_on_c, 0, 68, 40
2, 125364, Control_c, 0, 64, 0
2, 125372, Note_on_c, 0, 56, 0
2, 125380, Note_on_c, 0, 59, 37
2, 125388, Control_c, 0, 64, 0
2, 125392, Control_c, 0, 64, 0
2, 125400, Note_on_c, 0, 64, 0
2, 125424, Note_on_c, 0, 78, 0
2, 125432, Note_on_c, 0, 68, 0
2, 125436, Note_on_c, 0, 76, 79
2, 125480, Note_on_c, 0, 76, 0
2, 125492, Note_on_c, 0, 59, 0
2, 125504, Note_on_c, 0, 66, 43
2, 125512, Note_on_c, 0, 76, 54
2, 125512, Note_on_c, 0, 57, 42
2, 125516, Note_on_c, 0, 72, 66
2, 125576, Note_on_c, 0, 72, 0
2, 125584, Note_on_c, 0, 76, 0
2, 125600, Note_on_c, 0, 74, 72
2, 125672, Note_on_c, 0, 74, 0
2, 125680, Note_on_c, 0, 57, 0
2, 125684, Note_on_c, 0, 76, 70
2, 125688, Note_on_c, 0, 69, 39
2, 125696, Note_on_c, 0, 60, 39
2, 125732, Note_on_c, 0, 66, 0
2, 125756, Note_on_c, 0, 76, 0
2, 125764, Note_on_c, 0, 75, 71
2, 125784, Note_on_c, 0, 69, 0
2, 125840, Note_on_c, 0, 75, 0
2, 125844, Note_on_c, 0, 60, 0
2, 125848, Note_on_c, 0, 78, 67
2, 125852, Note_on_c, 0, 74, 62
2, 125852, Note_on_c, 0, 68, 36
2, 125860, Note_on_c, 0, 59, 41
2, 125912, Note_on_c, 0, 74, 0
2, 125932, Note_on_c, 0, 78, 0
2, 125932, Note_on_c, 0, 75, 69
2, 126008, Note_on_c, 0, 75, 0
2, 126016, Note_on_c, 0, 78, 60
2, 126020, Note_on_c, 0, 59, 0
2, 126024, Note_on_c, 0, 68, 0
2, 126024, Note_on_c, 0, 71, 42
2, 126024, Note_on_c, 0, 62, 44
2, 126084, Note_on_c, 0, 78, 0
2, 126092, Note_on_c, 0, 71, 0
2, 126092, Note_on_c, 0, 76, 73
2, 126132, Note_on_c, 0, 76, 0
2, 126160, Note_on_c, 0, 62, 0
2, 126180, Note_on_c, 0, 66, 33
2, 126180, Note_on_c, 0, 76, 55
2, 126180, Note_on_c, 0, 60, 46
2, 126184, Note_on_c, 0, 69, 43
2, 126248, Note_on_c, 0, 76, 0
2, 126256, Note_on_c, 0, 74, 71
2, 126336, Note_on_c, 0, 76, 59
2, 126348, Note_on_c, 0, 74, 0
2, 126396, Note_on_c, 0, 69, 0
2, 126404, Note_on_c, 0, 76, 0
2, 126412, Note_on_c, 0, 75, 71
2, 126428, Note_on_c, 0, 66, 0
2, 126448, Note_on_c, 0, 60, 0
2, 126484, Note_on_c, 0, 75, 0
2, 126496, Note_on_c, 0, 78, 62
2, 126500, Note_on_c, 0, 68, 36
2, 126500, Note_on_c, 0, 62, 46
2, 126508, Note_on_c, 0, 71, 44
2, 126572, Note_on_c, 0, 78, 0
2, 126576, Note_on_c, 0, 76, 73
2, 126596, Note_on_c, 0, 71, 0
2, 126656, Note_on_c, 0, 76, 0
2, 126660, Note_on_c, 0, 78, 63
2, 126700, Note_on_c, 0, 62, 0
2, 126724, Note_on_c, 0, 78, 0
2, 126728, Note_on_c, 0, 68, 0
2, 126740, Note_on_c, 0, 77, 71
2, 126808, Note_on_c, 0, 77, 0
2, 126820, Note_on_c, 0, 76, 72
2, 126828, Note_on_c, 0, 68, 39
2, 126828, Note_on_c, 0, 71, 42
2, 126848, Control_c, 0, 64, 0
2, 126852, Control_c, 0, 64, 0
2, 126860, Control_c, 0, 64, 0
2, 126864, Control_c, 0, 64, 0
2, 126872, Control_c, 0, 64, 0
2, 126876, Control_c, 0, 64, 0
2, 126900, Note_on_c, 0, 78, 55
2, 126904, Note_on_c, 0, 76, 0
2, 126924, Control_c, 0, 64, 0
2, 126932, Control_c, 0, 64, 0
2, 126936, Control_c, 0, 64, 0
2, 126944, Control_c, 0, 64, 0
2, 126948, Control_c, 0, 64, 0
2, 126968, Control_c, 0, 64, 0
2, 126972, Control_c, 0, 64, 0
2, 126980, Note_on_c, 0, 78, 0
2, 126980, Control_c, 0, 64, 0
2, 126984, Control_c, 0, 64, 0
2, 126992, Note_on_c, 0, 76, 67
2, 126996, Note_on_c, 0, 62, 41
2, 127008, Note_on_c, 0, 76, 0
2, 127016, Note_on_c, 0, 68, 0
2, 127032, Note_on_c, 0, 71, 0
2, 127036, Note_on_c, 0, 62, 0
2, 127076, Note_on_c, 0, 90, 74
2, 127096, Note_on_c, 0, 90, 0
2, 127148, Control_c, 0, 64, 0
2, 127156, Note_on_c, 0, 88, 87
2, 127156, Control_c, 0, 64, 0
2, 127160, Control_c, 0, 64, 0
2, 127168, Control_c, 0, 64, 0
2, 127172, Note_on_c, 0, 73, 34
2, 127180, Control_c, 0, 64, 0
2, 127188, Control_c, 0, 64, 0
2, 127192, Note_on_c, 0, 69, 17
2, 127192, Control_c, 0, 64, 0
2, 127228, Note_on_c, 0, 73, 0
2, 127244, Note_on_c, 0, 88, 0
2, 127248, Note_on_c, 0, 78, 58
2, 127272, Note_on_c, 0, 78, 0
2, 127304, Note_on_c, 0, 69, 0
2, 127336, Note_on_c, 0, 61, 31
2, 127336, Note_on_c, 0, 76, 69
2, 127356, Note_on_c, 0, 76, 0
2, 127364, Note_on_c, 0, 61, 0
2, 127412, Note_on_c, 0, 66, 57
2, 127476, Control_c, 0, 64, 0
2, 127480, Note_on_c, 0, 66, 0
2, 127484, Control_c, 0, 64, 0
2, 127488, Control_c, 0, 64, 0
2, 127500, Note_on_c, 0, 74, 56
2, 127504, Note_on_c, 0, 64, 63
2, 127504, Note_on_c, 0, 68, 50
2, 127512, Control_c, 0, 64, 24
2, 127520, Control_c, 0, 64, 72
2, 127524, Control_c, 0, 64, 127
2, 127528, Note_on_c, 0, 74, 0
2, 127536, Note_on_c, 0, 68, 0
2, 127548, Note_on_c, 0, 64, 0
2, 127576, Note_on_c, 0, 66, 65
2, 127636, Note_on_c, 0, 66, 0
2, 127668, Note_on_c, 0, 64, 67
2, 127672, Note_on_c, 0, 59, 34
2, 127684, Note_on_c, 0, 59, 0
2, 127684, Note_on_c, 0, 64, 0
2, 127736, Note_on_c, 0, 78, 80
2, 127768, Control_c, 0, 64, 72
2, 127776, Control_c, 0, 64, 24
2, 127780, Note_on_c, 0, 57, 42
2, 127780, Control_c, 0, 64, 0
2, 127796, Note_on_c, 0, 57, 0
2, 127800, Control_c, 0, 64, 24
2, 127804, Control_c, 0, 64, 56
2, 127808, Note_on_c, 0, 78, 0
2, 127808, Control_c, 0, 64, 88
2, 127816, Control_c, 0, 64, 127
2, 127832, Note_on_c, 0, 76, 77
2, 127832, Note_on_c, 0, 73, 71
2, 127852, Note_on_c, 0, 73, 0
2, 127880, Note_on_c, 0, 76, 0
2, 127920, Note_on_c, 0, 78, 63
2, 127956, Note_on_c, 0, 78, 0
2, 127984, Note_on_c, 0, 63, 43
2, 127996, Note_on_c, 0, 63, 0
2, 128000, Note_on_c, 0, 85, 79
2, 128000, Control_c, 0, 64, 104
2, 128004, Control_c, 0, 64, 88
2, 128008, Note_on_c, 0, 64, 60
2, 128012, Note_on_c, 0, 76, 52
2, 128012, Control_c, 0, 64, 72
2, 128016, Control_c, 0, 64, 56
2, 128028, Control_c, 0, 64, 40
2, 128032, Note_on_c, 0, 64, 0
2, 128036, Control_c, 0, 64, 24
2, 128044, Note_on_c, 0, 76, 0
2, 128044, Note_on_c, 0, 85, 0
2, 128060, Control_c, 0, 64, 0
2, 128088, Note_on_c, 0, 73, 55
2, 128088, Note_on_c, 0, 78, 57
2, 128120, Note_on_c, 0, 73, 0
2, 128132, Note_on_c, 0, 78, 0
2, 128168, Note_on_c, 0, 83, 71
2, 128172, Note_on_c, 0, 76, 66
2, 128176, Note_on_c, 0, 49, 43
2, 128200, Note_on_c, 0, 49, 0
2, 128208, Note_on_c, 0, 83, 0
2, 128212, Note_on_c, 0, 76, 0
2, 128252, Note_on_c, 0, 78, 64
2, 128260, Note_on_c, 0, 73, 48
2, 128288, Note_on_c, 0, 66, 44
2, 128296, Note_on_c, 0, 73, 0
2, 128300, Note_on_c, 0, 78, 0
2, 128328, Note_on_c, 0, 66, 0
2, 128328, Note_on_c, 0, 64, 67
2, 128340, Note_on_c, 0, 81, 70
2, 128340, Note_on_c, 0, 76, 72
2, 128344, Note_on_c, 0, 64, 0
2, 128384, Note_on_c, 0, 76, 0
2, 128412, Note_on_c, 0, 78, 64
2, 128420, Note_on_c, 0, 73, 48
2, 128444, Note_on_c, 0, 73, 0
2, 128452, Note_on_c, 0, 78, 0
2, 128500, Note_on_c, 0, 40, 55
2, 128500, Note_on_c, 0, 81, 72
2, 128504, Note_on_c, 0, 74, 66
2, 128512, Note_on_c, 0, 40, 0
2, 128536, Note_on_c, 0, 74, 0
2, 128540, Note_on_c, 0, 81, 0
2, 128580, Note_on_c, 0, 71, 47
2, 128584, Note_on_c, 0, 76, 63
2, 128588, Note_on_c, 0, 81, 0
2, 128616, Note_on_c, 0, 71, 0
2, 128628, Note_on_c, 0, 76, 0
2, 128640, Note_on_c, 0, 64, 65
2, 128660, Note_on_c, 0, 64, 0
2, 128668, Note_on_c, 0, 80, 65
2, 128668, Note_on_c, 0, 74, 66
2, 128704, Note_on_c, 0, 74, 0
2, 128704, Note_on_c, 0, 80, 0
2, 128740, Note_on_c, 0, 71, 47
2, 128740, Note_on_c, 0, 76, 69
2, 128764, Note_on_c, 0, 71, 0
2, 128776, Note_on_c, 0, 76, 0
2, 128812, Note_on_c, 0, 44, 44
2, 128816, Note_on_c, 0, 79, 70
2, 128820, Note_on_c, 0, 74, 58
2, 128844, Note_on_c, 0, 74, 0
2, 128844, Note_on_c, 0, 44, 0
2, 128848, Note_on_c, 0, 79, 0
2, 128892, Note_on_c, 0, 78, 69
2, 128936, Note_on_c, 0, 78, 0
2, 128964, Note_on_c, 0, 64, 28
2, 128964, Note_on_c, 0, 65, 50
2, 128976, Note_on_c, 0, 77, 72
2, 128980, Note_on_c, 0, 74, 64
2, 128992, Note_on_c, 0, 65, 0
2, 128992, Note_on_c, 0, 64, 0
2, 129016, Note_on_c, 0, 74, 0
2, 129032, Note_on_c, 0, 77, 0
2, 129056, Note_on_c, 0, 71, 62
2, 129108, Note_on_c, 0, 71, 0
2, 129132, Note_on_c, 0, 76, 75
2, 129136, Note_on_c, 0, 45, 59
2, 129144, Note_on_c, 0, 73, 42
2, 129148, Note_on_c, 0, 45, 0
2, 129180, Note_on_c, 0, 73, 0
2, 129184, Note_on_c, 0, 76, 0
2, 129216, Note_on_c, 0, 69, 66
2, 129248, Note_on_c, 0, 63, 44
2, 129264, Note_on_c, 0, 69, 0
2, 129280, Note_on_c, 0, 73, 56
2, 129288, Note_on_c, 0, 63, 0
2, 129292, Note_on_c, 0, 64, 65
2, 129304, Note_on_c, 0, 64, 0
2, 129344, Note_on_c, 0, 73, 0
2, 129360, Note_on_c, 0, 78, 70
2, 129396, Note_on_c, 0, 78, 0
2, 129444, Note_on_c, 0, 76, 73
2, 129444, Note_on_c, 0, 71, 50
2, 129448, Note_on_c, 0, 68, 29
2, 129464, Note_on_c, 0, 68, 0
2, 129464, Note_on_c, 0, 71, 0
2, 129496, Note_on_c, 0, 76, 0
2, 129516, Note_on_c, 0, 78, 60
2, 129580, Note_on_c, 0, 78, 0
2, 129596, Note_on_c, 0, 76, 64
2, 129596, Note_on_c, 0, 62, 50
2, 129608, Note_on_c, 0, 62, 0
2, 129612, Note_on_c, 0, 76, 0
2, 129672, Note_on_c, 0, 90, 89
2, 129708, Note_on_c, 0, 90, 0
2, 129760, Note_on_c, 0, 88, 88
2, 129760, Note_on_c, 0, 73, 43
2, 129772, Note_on_c, 0, 69, 37
2, 129788, Note_on_c, 0, 69, 0
2, 129792, Note_on_c, 0, 73, 0
2, 129816, Note_on_c, 0, 88, 0
2, 129832, Note_on_c, 0, 78, 71
2, 129852, Note_on_c, 0, 78, 0
2, 129916, Note_on_c, 0, 61, 56
2, 129920, Note_on_c, 0, 76, 59
2, 129928, Note_on_c, 0, 61, 0
2, 129940, Note_on_c, 0, 76, 0
2, 129996, Note_on_c, 0, 66, 62
2, 130028, Note_on_c, 0, 66, 0
2, 130076, Note_on_c, 0, 64, 60
2, 130080, Note_on_c, 0, 74, 52
2, 130084, Note_on_c, 0, 68, 46
2, 130100, Note_on_c, 0, 74, 0
2, 130108, Note_on_c, 0, 68, 0
2, 130128, Note_on_c, 0, 64, 0
2, 130160, Note_on_c, 0, 66, 57
2, 130212, Note_on_c, 0, 66, 0
2, 130232, Note_on_c, 0, 59, 60
2, 130236, Note_on_c, 0, 64, 71
2, 130252, Note_on_c, 0, 64, 0
2, 130260, Note_on_c, 0, 59, 0
2, 130308, Note_on_c, 0, 78, 80
2, 130340, Note_on_c, 0, 57, 55
2, 130352, Note_on_c, 0, 57, 0
2, 130352, Note_on_c, 0, 78, 0
2, 130388, Note_on_c, 0, 73, 74
2, 130400, Note_on_c, 0, 76, 77
2, 130408, Note_on_c, 0, 73, 0
2, 130452, Note_on_c, 0, 76, 0
2, 130476, Note_on_c, 0, 78, 67
2, 130508, Note_on_c, 0, 63, 54
2, 130516, Note_on_c, 0, 78, 0
2, 130536, Note_on_c, 0, 64, 75
2, 130540, Note_on_c, 0, 63, 0
2, 130548, Note_on_c, 0, 85, 77
2, 130552, Note_on_c, 0, 76, 66
2, 130556, Note_on_c, 0, 64, 0
2, 130568, Note_on_c, 0, 76, 0
2, 130576, Note_on_c, 0, 85, 0
2, 130624, Note_on_c, 0, 73, 55
2, 130624, Note_on_c, 0, 78, 55
2, 130656, Note_on_c, 0, 73, 0
2, 130660, Note_on_c, 0, 78, 0
2, 130692, Note_on_c, 0, 49, 50
2, 130700, Note_on_c, 0, 83, 70
2, 130700, Note_on_c, 0, 76, 66
2, 130720, Note_on_c, 0, 49, 0
2, 130728, Note_on_c, 0, 83, 0
2, 130736, Note_on_c, 0, 76, 0
2, 130776, Note_on_c, 0, 78, 58
2, 130784, Note_on_c, 0, 73, 40
2, 130800, Note_on_c, 0, 73, 0
2, 130808, Note_on_c, 0, 78, 0
2, 130812, Note_on_c, 0, 66, 52
2, 130840, Note_on_c, 0, 66, 0
2, 130840, Note_on_c, 0, 64, 73
2, 130856, Note_on_c, 0, 64, 0
2, 130860, Note_on_c, 0, 81, 64
2, 130860, Note_on_c, 0, 76, 67
2, 130896, Note_on_c, 0, 76, 0
2, 130924, Note_on_c, 0, 78, 56
2, 130932, Note_on_c, 0, 73, 41
2, 130952, Note_on_c, 0, 73, 0
2, 130956, Note_on_c, 0, 78, 0
2, 130996, Note_on_c, 0, 40, 50
2, 131004, Note_on_c, 0, 81, 66
2, 131008, Note_on_c, 0, 74, 64
2, 131020, Note_on_c, 0, 40, 0
2, 131040, Note_on_c, 0, 81, 0
2, 131040, Note_on_c, 0, 74, 0
2, 131084, Note_on_c, 0, 71, 46
2, 131092, Note_on_c, 0, 76, 56
2, 131108, Note_on_c, 0, 71, 0
2, 131124, Note_on_c, 0, 76, 0
2, 131124, Note_on_c, 0, 63, 41
2, 131152, Note_on_c, 0, 64, 73
2, 131156, Note_on_c, 0, 63, 0
2, 131160, Note_on_c, 0, 80, 70
2, 131160, Note_on_c, 0, 74, 64
2, 131168, Note_on_c, 0, 64, 0
2, 131196, Note_on_c, 0, 74, 0
2, 131196, Note_on_c, 0, 80, 0
2, 131236, Note_on_c, 0, 76, 63
2, 131240, Note_on_c, 0, 71, 39
2, 131260, Note_on_c, 0, 71, 0
2, 131268, Note_on_c, 0, 76, 0
2, 131304, Note_on_c, 0, 44, 58
2, 131308, Note_on_c, 0, 79, 75
2, 131312, Note_on_c, 0, 74, 69
2, 131332, Note_on_c, 0, 44, 0
2, 131340, Note_on_c, 0, 79, 0
2, 131344, Note_on_c, 0, 74, 0
2, 131380, Note_on_c, 0, 78, 71
2, 131392, Note_on_c, 0, 71, 51
2, 131408, Note_on_c, 0, 71, 0
2, 131424, Note_on_c, 0, 78, 0
2, 131448, Note_on_c, 0, 64, 50
2, 131468, Note_on_c, 0, 74, 67
2, 131468, Note_on_c, 0, 77, 67
2, 131476, Note_on_c, 0, 64, 0
2, 131476, Note_on_c, 0, 65, 54
2, 131492, Note_on_c, 0, 65, 0
2, 131512, Note_on_c, 0, 74, 0
2, 131536, Note_on_c, 0, 71, 60
2, 131592, Note_on_c, 0, 71, 0
2, 131592, Note_on_c, 0, 77, 0
2, 131612, Note_on_c, 0, 45, 63
2, 131616, Note_on_c, 0, 76, 52
2, 131624, Note_on_c, 0, 45, 0
2, 131628, Note_on_c, 0, 73, 41
2, 131660, Note_on_c, 0, 76, 0
2, 131664, Note_on_c, 0, 73, 0
2, 131696, Note_on_c, 0, 69, 59
2, 131744, Note_on_c, 0, 69, 0
2, 131748, Note_on_c, 0, 63, 42
2, 131764, Note_on_c, 0, 73, 40
2, 131780, Note_on_c, 0, 63, 0
2, 131780, Note_on_c, 0, 64, 67
2, 131792, Note_on_c, 0, 64, 0
2, 131828, Note_on_c, 0, 73, 0
2, 131836, Note_on_c, 0, 80, 71
2, 131868, Note_on_c, 0, 80, 0
2, 131920, Note_on_c, 0, 81, 81
2, 131920, Note_on_c, 0, 73, 34
2, 131920, Note_on_c, 0, 76, 50
2, 131944, Note_on_c, 0, 76, 0
2, 131952, Note_on_c, 0, 73, 0
2, 131968, Note_on_c, 0, 81, 0
2, 131988, Note_on_c, 0, 82, 60
2, 132040, Note_on_c, 0, 82, 0
2, 132060, Note_on_c, 0, 81, 66
2, 132060, Note_on_c, 0, 67, 52
2, 132080, Note_on_c, 0, 81, 0
2, 132092, Note_on_c, 0, 67, 0
2, 132132, Note_on_c, 0, 94, 95
2, 132180, Note_on_c, 0, 94, 0
2, 132220, Note_on_c, 0, 93, 100
2, 132232, Note_on_c, 0, 77, 54
2, 132236, Note_on_c, 0, 74, 50
2, 132260, Note_on_c, 0, 77, 0
2, 132292, Note_on_c, 0, 74, 0
2, 132292, Note_on_c, 0, 93, 0
2, 132308, Note_on_c, 0, 82, 50
2, 132324, Note_on_c, 0, 82, 0
2, 132376, Note_on_c, 0, 65, 50
2, 132376, Note_on_c, 0, 81, 57
2, 132396, Note_on_c, 0, 65, 0
2, 132416, Note_on_c, 0, 81, 0
2, 132456, Note_on_c, 0, 70, 73
2, 132504, Note_on_c, 0, 70, 0
2, 132536, Note_on_c, 0, 73, 60
2, 132536, Note_on_c, 0, 69, 73
2, 132544, Note_on_c, 0, 79, 29
2, 132560, Note_on_c, 0, 79, 0
2, 132568, Note_on_c, 0, 73, 0
2, 132592, Note_on_c, 0, 69, 0
2, 132616, Note_on_c, 0, 70, 55
2, 132660, Note_on_c, 0, 70, 0
2, 132684, Note_on_c, 0, 64, 44
2, 132688, Note_on_c, 0, 69, 69
2, 132696, Note_on_c, 0, 64, 0
2, 132704, Note_on_c, 0, 69, 0
2, 132768, Note_on_c, 0, 82, 57
2, 132776, Note_on_c, 0, 62, 56
2, 132804, Note_on_c, 0, 62, 0
2, 132808, Note_on_c, 0, 82, 0
2, 132840, Note_on_c, 0, 77, 57
2, 132844, Note_on_c, 0, 81, 74
2, 132852, Note_on_c, 0, 77, 0
2, 132888, Note_on_c, 0, 81, 0
2, 132916, Note_on_c, 0, 82, 70
2, 132924, Note_on_c, 0, 77, 62
2, 132948, Note_on_c, 0, 77, 0
2, 132960, Note_on_c, 0, 82, 0
2, 132976, Note_on_c, 0, 68, 39
2, 132992, Note_on_c, 0, 68, 0
2, 132996, Note_on_c, 0, 81, 50
2, 133000, Note_on_c, 0, 89, 82
2, 133004, Note_on_c, 0, 69, 34
2, 133020, Note_on_c, 0, 69, 0
2, 133036, Note_on_c, 0, 89, 0
2, 133040, Note_on_c, 0, 81, 0
2, 133076, Note_on_c, 0, 77, 64
2, 133076, Note_on_c, 0, 82, 62
2, 133112, Note_on_c, 0, 77, 0
2, 133120, Note_on_c, 0, 82, 0
2, 133152, Note_on_c, 0, 81, 71
2, 133152, Note_on_c, 0, 88, 72
2, 133156, Note_on_c, 0, 53, 32
2, 133168, Note_on_c, 0, 53, 0
2, 133188, Note_on_c, 0, 88, 0
2, 133188, Note_on_c, 0, 81, 0
2, 133224, Note_on_c, 0, 77, 65
2, 133224, Note_on_c, 0, 82, 60
2, 133260, Note_on_c, 0, 77, 0
2, 133280, Note_on_c, 0, 69, 62
2, 133292, Note_on_c, 0, 69, 0
2, 133300, Note_on_c, 0, 86, 72
2, 133344, Note_on_c, 0, 86, 0
2, 133420, Note_on_c, 0, 45, 52
2, 133424, Note_on_c, 0, 79, 74
2, 133424, Note_on_c, 0, 86, 67
2, 133440, Note_on_c, 0, 45, 0
2, 133464, Note_on_c, 0, 86, 0
2, 133472, Note_on_c, 0, 79, 0
2, 133500, Note_on_c, 0, 76, 59
2, 133504, Note_on_c, 0, 81, 54
2, 133532, Note_on_c, 0, 81, 0
2, 133536, Note_on_c, 0, 76, 0
2, 133540, Note_on_c, 0, 68, 36
2, 133572, Note_on_c, 0, 68, 0
2, 133572, Note_on_c, 0, 69, 56
2, 133580, Note_on_c, 0, 85, 73
2, 133588, Note_on_c, 0, 69, 0
2, 133588, Note_on_c, 0, 79, 64
2, 133612, Note_on_c, 0, 82, 0
2, 133620, Note_on_c, 0, 85, 0
2, 133620, Note_on_c, 0, 79, 0
2, 133652, Note_on_c, 0, 76, 58
2, 133652, Note_on_c, 0, 81, 59
2, 133672, Note_on_c, 0, 76, 0
2, 133688, Note_on_c, 0, 81, 0
2, 133720, Note_on_c, 0, 49, 49
2, 133724, Note_on_c, 0, 84, 78
2, 133728, Note_on_c, 0, 79, 70
2, 133748, Note_on_c, 0, 49, 0
2, 133756, Note_on_c, 0, 79, 0
2, 133756, Note_on_c, 0, 84, 0
2, 133800, Note_on_c, 0, 83, 80
2, 133800, Note_on_c, 0, 76, 58
2, 133828, Note_on_c, 0, 76, 0
2, 133840, Note_on_c, 0, 83, 0
2, 133864, Note_on_c, 0, 70, 46
2, 133872, Note_on_c, 0, 82, 70
2, 133880, Note_on_c, 0, 79, 63
2, 133880, Note_on_c, 0, 69, 72
2, 133888, Note_on_c, 0, 70, 0
2, 133896, Note_on_c, 0, 69, 0
2, 133916, Note_on_c, 0, 79, 0
2, 133936, Note_on_c, 0, 82, 0
2, 133952, Note_on_c, 0, 76, 60
2, 133992, Note_on_c, 0, 76, 0
2, 134028, Note_on_c, 0, 50, 50
2, 134032, Note_on_c, 0, 81, 62
2, 134032, Note_on_c, 0, 77, 72
2, 134048, Note_on_c, 0, 50, 0
2, 134068, Note_on_c, 0, 77, 0
2, 134084, Note_on_c, 0, 81, 0
2, 134104, Note_on_c, 0, 74, 65
2, 134152, Note_on_c, 0, 74, 0
2, 134160, Note_on_c, 0, 68, 25
2, 134172, Note_on_c, 0, 77, 64
2, 134180, Note_on_c, 0, 69, 64
2, 134192, Note_on_c, 0, 68, 0
2, 134196, Note_on_c, 0, 69, 0
2, 134224, Note_on_c, 0, 77, 0
2, 134244, Note_on_c, 0, 82, 67
2, 134264, Note_on_c, 0, 82, 0
2, 134320, Note_on_c, 0, 73, 42
2, 134324, Note_on_c, 0, 76, 62
2, 134324, Note_on_c, 0, 81, 80
2, 134336, Note_on_c, 0, 76, 0
2, 134336, Note_on_c, 0, 73, 0
2, 134368, Note_on_c, 0, 81, 0
2, 134396, Note_on_c, 0, 82, 49
2, 134444, Note_on_c, 0, 82, 0
2, 134460, Note_on_c, 0, 81, 67
2, 134468, Note_on_c, 0, 67, 48
2, 134480, Note_on_c, 0, 67, 0
2, 134484, Note_on_c, 0, 81, 0
2, 134540, Note_on_c, 0, 94, 81
2, 134572, Note_on_c, 0, 94, 0
2, 134612, Note_on_c, 0, 93, 94
2, 134620, Note_on_c, 0, 77, 60
2, 134620, Note_on_c, 0, 74, 56
2, 134636, Note_on_c, 0, 74, 0
2, 134640, Note_on_c, 0, 77, 0
2, 134684, Note_on_c, 0, 93, 0
2, 134684, Note_on_c, 0, 82, 65
2, 134708, Note_on_c, 0, 82, 0
2, 134756, Note_on_c, 0, 81, 83
2, 134760, Note_on_c, 0, 65, 49
2, 134776, Note_on_c, 0, 65, 0
2, 134784, Note_on_c, 0, 81, 0
2, 134832, Note_on_c, 0, 70, 67
2, 134884, Note_on_c, 0, 70, 0
2, 134908, Note_on_c, 0, 69, 66
2, 134912, Note_on_c, 0, 79, 59
2, 134912, Note_on_c, 0, 73, 48
2, 134932, Note_on_c, 0, 73, 0
2, 134932, Note_on_c, 0, 79, 0
2, 134948, Note_on_c, 0, 69, 0
2, 134980, Note_on_c, 0, 70, 56
2, 135028, Note_on_c, 0, 70, 0
2, 135048, Note_on_c, 0, 69, 73
2, 135048, Note_on_c, 0, 64, 54
2, 135064, Note_on_c, 0, 64, 0
2, 135064, Note_on_c, 0, 69, 0
2, 135120, Note_on_c, 0, 82, 63
2, 135144, Note_on_c, 0, 62, 51
2, 135152, Note_on_c, 0, 82, 0
2, 135168, Note_on_c, 0, 62, 0
2, 135208, Note_on_c, 0, 81, 75
2, 135252, Note_on_c, 0, 81, 0
2, 135284, Note_on_c, 0, 82, 62
2, 135284, Note_on_c, 0, 77, 60
2, 135300, Note_on_c, 0, 77, 0
2, 135308, Note_on_c, 0, 68, 35
2, 135316, Note_on_c, 0, 82, 0
2, 135348, Note_on_c, 0, 69, 69
2, 135352, Note_on_c, 0, 68, 0
2, 135356, Note_on_c, 0, 89, 85
2, 135360, Note_on_c, 0, 81, 52
2, 135368, Note_on_c, 0, 69, 0
2, 135388, Note_on_c, 0, 89, 0
2, 135396, Note_on_c, 0, 81, 0
2, 135432, Note_on_c, 0, 77, 64
2, 135432, Note_on_c, 0, 82, 66
2, 135456, Note_on_c, 0, 77, 0
2, 135468, Note_on_c, 0, 82, 0
2, 135496, Note_on_c, 0, 53, 51
2, 135500, Note_on_c, 0, 88, 75
2, 135500, Note_on_c, 0, 81, 69
2, 135508, Note_on_c, 0, 53, 0
2, 135528, Note_on_c, 0, 88, 0
2, 135536, Note_on_c, 0, 81, 0
2, 135568, Note_on_c, 0, 82, 64
2, 135572, Note_on_c, 0, 77, 62
2, 135604, Note_on_c, 0, 77, 0
2, 135608, Note_on_c, 0, 70, 69
2, 135620, Note_on_c, 0, 82, 0
2, 135644, Note_on_c, 0, 70, 0
2, 135644, Note_on_c, 0, 69, 78
2, 135652, Note_on_c, 0, 86, 71
2, 135652, Note_on_c, 0, 81, 69
2, 135660, Note_on_c, 0, 69, 0
2, 135688, Note_on_c, 0, 81, 0
2, 135688, Note_on_c, 0, 86, 0
2, 135720, Note_on_c, 0, 77, 70
2, 135744, Note_on_c, 0, 77, 0
2, 135788, Note_on_c, 0, 79, 69
2, 135788, Note_on_c, 0, 86, 69
2, 135796, Note_on_c, 0, 45, 56
2, 135804, Note_on_c, 0, 45, 0
2, 135820, Note_on_c, 0, 86, 0
2, 135820, Note_on_c, 0, 79, 0
2, 135856, Note_on_c, 0, 76, 63
2, 135864, Note_on_c, 0, 81, 46
2, 135880, Note_on_c, 0, 76, 0
2, 135892, Note_on_c, 0, 68, 65
2, 135904, Note_on_c, 0, 81, 0
2, 135916, Note_on_c, 0, 68, 0
2, 135928, Note_on_c, 0, 69, 75
2, 135932, Note_on_c, 0, 85, 66
2, 135940, Note_on_c, 0, 79, 64
2, 135944, Note_on_c, 0, 69, 0
2, 135964, Note_on_c, 0, 79, 0
2, 135964, Note_on_c, 0, 85, 0
2, 136000, Note_on_c, 0, 81, 69
2, 136000, Note_on_c, 0, 76, 60
2, 136012, Note_on_c, 0, 76, 0
2, 136028, Note_on_c, 0, 81, 0
2, 136064, Note_on_c, 0, 49, 60
2, 136064, Note_on_c, 0, 84, 75
2, 136068, Note_on_c, 0, 79, 67
2, 136088, Note_on_c, 0, 49, 0
2, 136092, Note_on_c, 0, 79, 0
2, 136092, Note_on_c, 0, 84, 0
2, 136132, Note_on_c, 0, 83, 75
2, 136140, Note_on_c, 0, 76, 54
2, 136156, Note_on_c, 0, 76, 0
2, 136176, Note_on_c, 0, 83, 0
2, 136188, Note_on_c, 0, 70, 69
2, 136212, Note_on_c, 0, 70, 0
2, 136212, Note_on_c, 0, 82, 64
2, 136212, Note_on_c, 0, 69, 85
2, 136216, Note_on_c, 0, 79, 64
2, 136224, Note_on_c, 0, 69, 0
2, 136248, Note_on_c, 0, 79, 0
2, 136260, Note_on_c, 0, 82, 0
2, 136276, Note_on_c, 0, 76, 72
2, 136312, Note_on_c, 0, 76, 0
2, 136352, Note_on_c, 0, 81, 66
2, 136356, Note_on_c, 0, 77, 69
2, 136368, Note_on_c, 0, 50, 39
2, 136384, Note_on_c, 0, 50, 0
2, 136400, Note_on_c, 0, 77, 0
2, 136408, Note_on_c, 0, 81, 0
2, 136428, Note_on_c, 0, 74, 52
2, 136476, Note_on_c, 0, 74, 0
2, 136496, Note_on_c, 0, 77, 60
2, 136548, Note_on_c, 0, 77, 0
2, 136552, Control_c, 0, 64, 56
2, 136556, Note_on_c, 0, 86, 94
2, 136564, Control_c, 0, 64, 40
2, 136568, Control_c, 0, 64, 24
2, 136572, Control_c, 0, 64, 0
2, 136572, Control_c, 0, 64, 0
2, 136576, Note_on_c, 0, 86, 0
2, 136640, Note_on_c, 0, 89, 96
2, 136640, Note_on_c, 0, 77, 79
2, 136644, Note_on_c, 0, 29, 60
2, 136652, Note_on_c, 0, 41, 40
2, 136660, Control_c, 0, 64, 24
2, 136664, Note_on_c, 0, 29, 0
2, 136664, Control_c, 0, 64, 72
2, 136668, Control_c, 0, 64, 88
2, 136676, Control_c, 0, 64, 104
2, 136680, Control_c, 0, 64, 127
2, 136692, Note_on_c, 0, 41, 0
2, 136696, Note_on_c, 0, 89, 0
2, 136708, Note_on_c, 0, 42, 64
2, 136712, Note_on_c, 0, 84, 71
2, 136716, Note_on_c, 0, 77, 0
2, 136716, Note_on_c, 0, 81, 54
2, 136748, Note_on_c, 0, 42, 0
2, 136752, Note_on_c, 0, 81, 0
2, 136760, Note_on_c, 0, 84, 0
2, 136772, Note_on_c, 0, 41, 60
2, 136772, Control_c, 0, 64, 104
2, 136776, Control_c, 0, 64, 72
2, 136780, Control_c, 0, 64, 24
2, 136784, Note_on_c, 0, 75, 60
2, 136788, Control_c, 0, 64, 0
2, 136820, Note_on_c, 0, 41, 0
2, 136828, Control_c, 0, 64, 40
2, 136832, Control_c, 0, 64, 56
2, 136836, Control_c, 0, 64, 72
2, 136840, Note_on_c, 0, 42, 64
2, 136840, Control_c, 0, 64, 88
2, 136844, Note_on_c, 0, 87, 86
2, 136848, Control_c, 0, 64, 104
2, 136852, Note_on_c, 0, 42, 0
2, 136852, Control_c, 0, 64, 127
2, 136864, Note_on_c, 0, 87, 0
2, 136864, Note_on_c, 0, 75, 0
2, 136892, Control_c, 0, 64, 88
2, 136896, Control_c, 0, 64, 72
2, 136900, Control_c, 0, 64, 24
2, 136908, Control_c, 0, 64, 0
2, 136920, Note_on_c, 0, 85, 89
2, 136924, Note_on_c, 0, 73, 73
2, 136924, Note_on_c, 0, 41, 56
2, 136928, Note_on_c, 0, 53, 52
2, 136936, Note_on_c, 0, 41, 0
2, 136944, Control_c, 0, 64, 24
2, 136948, Control_c, 0, 64, 56
2, 136952, Control_c, 0, 64, 72
2, 136956, Control_c, 0, 64, 88
2, 136960, Control_c, 0, 64, 104
2, 136972, Note_on_c, 0, 73, 0
2, 136976, Note_on_c, 0, 53, 0
2, 136976, Note_on_c, 0, 85, 0
2, 136988, Note_on_c, 0, 54, 63
2, 136988, Note_on_c, 0, 82, 58
2, 136992, Note_on_c, 0, 77, 63
2, 137004, Control_c, 0, 64, 127
2, 137024, Note_on_c, 0, 77, 0
2, 137028, Note_on_c, 0, 82, 0
2, 137040, Note_on_c, 0, 54, 0
2, 137052, Note_on_c, 0, 74, 80
2, 137052, Note_on_c, 0, 53, 69
2, 137108, Note_on_c, 0, 53, 0
2, 137116, Note_on_c, 0, 54, 62
2, 137120, Note_on_c, 0, 86, 93
2, 137124, Note_on_c, 0, 54, 0
2, 137132, Note_on_c, 0, 74, 0
2, 137140, Note_on_c, 0, 86, 0
2, 137160, Control_c, 0, 64, 104
2, 137164, Control_c, 0, 64, 72
2, 137168, Control_c, 0, 64, 40
2, 137172, Control_c, 0, 64, 0
2, 137192, Note_on_c, 0, 80, 86
2, 137192, Note_on_c, 0, 68, 70
2, 137200, Note_on_c, 0, 65, 52
2, 137204, Note_on_c, 0, 53, 49
2, 137224, Note_on_c, 0, 53, 0
2, 137244, Control_c, 0, 64, 24
2, 137248, Control_c, 0, 64, 40
2, 137252, Control_c, 0, 64, 56
2, 137256, Note_on_c, 0, 68, 0
2, 137256, Note_on_c, 0, 65, 0
2, 137256, Note_on_c, 0, 80, 0
2, 137260, Note_on_c, 0, 75, 66
2, 137260, Control_c, 0, 64, 72
2, 137264, Note_on_c, 0, 66, 71
2, 137264, Control_c, 0, 64, 88
2, 137268, Note_on_c, 0, 72, 44
2, 137268, Control_c, 0, 64, 104
2, 137288, Control_c, 0, 64, 127
2, 137304, Note_on_c, 0, 72, 0
2, 137312, Note_on_c, 0, 66, 0
2, 137320, Note_on_c, 0, 75, 0
2, 137328, Note_on_c, 0, 69, 82
2, 137328, Note_on_c, 0, 65, 66
2, 137384, Note_on_c, 0, 65, 0
2, 137388, Note_on_c, 0, 69, 0
2, 137392, Note_on_c, 0, 66, 46
2, 137396, Note_on_c, 0, 81, 87
2, 137416, Note_on_c, 0, 81, 0
2, 137420, Note_on_c, 0, 66, 0
2, 137444, Control_c, 0, 64, 104
2, 137452, Control_c, 0, 64, 88
2, 137456, Control_c, 0, 64, 40
2, 137460, Control_c, 0, 64, 0
2, 137464, Note_on_c, 0, 84, 93
2, 137472, Note_on_c, 0, 72, 63
2, 137472, Note_on_c, 0, 65, 58
2, 137496, Control_c, 0, 64, 40
2, 137500, Control_c, 0, 64, 88
2, 137504, Note_on_c, 0, 84, 0
2, 137508, Control_c, 0, 64, 104
2, 137512, Control_c, 0, 64, 127
2, 137536, Note_on_c, 0, 65, 0
2, 137540, Note_on_c, 0, 72, 0
2, 137544, Note_on_c, 0, 74, 55
2, 137544, Note_on_c, 0, 77, 70
2, 137544, Note_on_c, 0, 67, 54
2, 137568, Note_on_c, 0, 74, 0
2, 137572, Note_on_c, 0, 77, 0
2, 137584, Note_on_c, 0, 67, 0
2, 137608, Note_on_c, 0, 70, 74
2, 137612, Note_on_c, 0, 65, 54
2, 137624, Note_on_c, 0, 65, 0
2, 137672, Note_on_c, 0, 70, 0
2, 137672, Note_on_c, 0, 82, 88
2, 137688, Note_on_c, 0, 82, 0
2, 137724, Control_c, 0, 64, 104
2, 137728, Control_c, 0, 64, 88
2, 137732, Control_c, 0, 64, 72
2, 137740, Control_c, 0, 64, 40
2, 137744, Control_c, 0, 64, 0
2, 137756, Note_on_c, 0, 77, 82
2, 137756, Note_on_c, 0, 89, 97
2, 137760, Note_on_c, 0, 29, 64
2, 137764, Note_on_c, 0, 41, 66
2, 137780, Note_on_c, 0, 29, 0
2, 137784, Control_c, 0, 64, 24
2, 137788, Control_c, 0, 64, 72
2, 137792, Control_c, 0, 64, 104
2, 137796, Control_c, 0, 64, 127
2, 137812, Note_on_c, 0, 89, 0
2, 137812, Note_on_c, 0, 41, 0
2, 137824, Note_on_c, 0, 42, 66
2, 137828, Note_on_c, 0, 84, 73
2, 137832, Note_on_c, 0, 77, 0
2, 137832, Note_on_c, 0, 81, 57
2, 137868, Note_on_c, 0, 81, 0
2, 137880, Note_on_c, 0, 84, 0
2, 137880, Note_on_c, 0, 42, 0
2, 137896, Note_on_c, 0, 75, 73
2, 137896, Note_on_c, 0, 41, 51
2, 137948, Note_on_c, 0, 41, 0
2, 137956, Note_on_c, 0, 87, 83
2, 137956, Note_on_c, 0, 42, 41
2, 137968, Note_on_c, 0, 42, 0
2, 137976, Note_on_c, 0, 87, 0
2, 137976, Note_on_c, 0, 75, 0
2, 138016, Control_c, 0, 64, 88
2, 138020, Control_c, 0, 64, 40
2, 138024, Control_c, 0, 64, 0
2, 138028, Note_on_c, 0, 85, 90
2, 138028, Note_on_c, 0, 73, 79
2, 138036, Note_on_c, 0, 41, 55
2, 138040, Note_on_c, 0, 53, 57
2, 138048, Note_on_c, 0, 41, 0
2, 138056, Control_c, 0, 64, 24
2, 138060, Control_c, 0, 64, 72
2, 138064, Control_c, 0, 64, 104
2, 138068, Control_c, 0, 64, 127
2, 138076, Note_on_c, 0, 73, 0
2, 138084, Note_on_c, 0, 85, 0
2, 138088, Note_on_c, 0, 53, 0
2, 138100, Note_on_c, 0, 82, 66
2, 138100, Note_on_c, 0, 54, 59
2, 138100, Note_on_c, 0, 77, 72
2, 138128, Note_on_c, 0, 77, 0
2, 138152, Note_on_c, 0, 54, 0
2, 138152, Note_on_c, 0, 82, 0
2, 138168, Note_on_c, 0, 74, 78
2, 138172, Note_on_c, 0, 53, 64
2, 138212, Note_on_c, 0, 53, 0
2, 138236, Note_on_c, 0, 86, 86
2, 138248, Note_on_c, 0, 86, 0
2, 138248, Note_on_c, 0, 74, 0
2, 138300, Control_c, 0, 64, 104
2, 138308, Control_c, 0, 64, 56
2, 138312, Note_on_c, 0, 80, 87
2, 138312, Note_on_c, 0, 68, 62
2, 138312, Note_on_c, 0, 65, 49
2, 138312, Control_c, 0, 64, 0
2, 138316, Note_on_c, 0, 53, 55
2, 138332, Note_on_c, 0, 53, 0
2, 138348, Control_c, 0, 64, 24
2, 138352, Control_c, 0, 64, 56
2, 138356, Control_c, 0, 64, 88
2, 138360, Note_on_c, 0, 65, 0
2, 138364, Control_c, 0, 64, 104
2, 138368, Note_on_c, 0, 68, 0
2, 138368, Note_on_c, 0, 80, 0
2, 138368, Control_c, 0, 64, 127
2, 138376, Note_on_c, 0, 66, 56
2, 138380, Note_on_c, 0, 75, 60
2, 138388, Note_on_c, 0, 72, 41
2, 138416, Note_on_c, 0, 72, 0
2, 138432, Note_on_c, 0, 66, 0
2, 138440, Note_on_c, 0, 75, 0
2, 138448, Note_on_c, 0, 69, 77
2, 138448, Note_on_c, 0, 65, 64
2, 138500, Note_on_c, 0, 65, 0
2, 138500, Note_on_c, 0, 69, 0
2, 138512, Note_on_c, 0, 66, 49
2, 138512, Note_on_c, 0, 81, 88
2, 138532, Note_on_c, 0, 66, 0
2, 138532, Note_on_c, 0, 81, 0
2, 138568, Control_c, 0, 64, 104
2, 138572, Control_c, 0, 64, 88
2, 138580, Control_c, 0, 64, 56
2, 138584, Note_on_c, 0, 84, 86
2, 138584, Control_c, 0, 64, 0
2, 138592, Note_on_c, 0, 81, 0
2, 138592, Note_on_c, 0, 72, 54
2, 138596, Note_on_c, 0, 65, 64
2, 138624, Note_on_c, 0, 84, 0
2, 138624, Control_c, 0, 64, 56
2, 138628, Control_c, 0, 64, 88
2, 138632, Control_c, 0, 64, 127
2, 138652, Note_on_c, 0, 65, 0
2, 138652, Note_on_c, 0, 72, 0
2, 138660, Note_on_c, 0, 74, 52
2, 138660, Note_on_c, 0, 67, 59
2, 138664, Note_on_c, 0, 77, 56
2, 138680, Note_on_c, 0, 74, 0
2, 138696, Note_on_c, 0, 77, 0
2, 138708, Note_on_c, 0, 67, 0
2, 138720, Note_on_c, 0, 70, 63
2, 138724, Note_on_c, 0, 65, 63
2, 138740, Note_on_c, 0, 65, 0
2, 138784, Note_on_c, 0, 70, 0
2, 138784, Note_on_c, 0, 82, 88
2, 138800, Note_on_c, 0, 82, 0
2, 138832, Note_on_c, 0, 46, 28
2, 138844, Note_on_c, 0, 46, 0
2, 138864, Control_c, 0, 64, 104
2, 138872, Note_on_c, 0, 94, 97
2, 138872, Note_on_c, 0, 82, 85
2, 138872, Control_c, 0, 64, 56
2, 138876, Control_c, 0, 64, 0
2, 138880, Note_on_c, 0, 92, 52
2, 138880, Note_on_c, 0, 34, 59
2, 138884, Note_on_c, 0, 46, 62
2, 138888, Note_on_c, 0, 92, 0
2, 138912, Note_on_c, 0, 34, 0
2, 138912, Control_c, 0, 64, 72
2, 138916, Control_c, 0, 64, 127
2, 138928, Note_on_c, 0, 46, 0
2, 138936, Note_on_c, 0, 94, 0
2, 138948, Note_on_c, 0, 82, 0
2, 138948, Note_on_c, 0, 89, 71
2, 138952, Note_on_c, 0, 86, 58
2, 138952, Note_on_c, 0, 47, 58
2, 138968, Note_on_c, 0, 86, 0
2, 138988, Note_on_c, 0, 47, 0
2, 139000, Note_on_c, 0, 89, 0
2, 139008, Note_on_c, 0, 46, 50
2, 139008, Note_on_c, 0, 80, 79
2, 139064, Note_on_c, 0, 46, 0
2, 139072, Note_on_c, 0, 47, 72
2, 139076, Note_on_c, 0, 92, 86
2, 139080, Note_on_c, 0, 47, 0
2, 139092, Note_on_c, 0, 80, 0
2, 139096, Note_on_c, 0, 92, 0
2, 139132, Control_c, 0, 64, 104
2, 139136, Control_c, 0, 64, 72
2, 139144, Control_c, 0, 64, 24
2, 139148, Note_on_c, 0, 89, 97
2, 139148, Control_c, 0, 64, 0
2, 139152, Note_on_c, 0, 77, 69
2, 139160, Note_on_c, 0, 58, 52
2, 139160, Note_on_c, 0, 46, 58
2, 139160, Note_on_c, 0, 79, 42
2, 139172, Note_on_c, 0, 79, 0
2, 139180, Note_on_c, 0, 46, 0
2, 139184, Control_c, 0, 64, 72
2, 139188, Control_c, 0, 64, 127
2, 139204, Note_on_c, 0, 58, 0
2, 139208, Note_on_c, 0, 77, 0
2, 139216, Note_on_c, 0, 89, 0
2, 139220, Note_on_c, 0, 59, 67
2, 139220, Note_on_c, 0, 87, 74
2, 139224, Note_on_c, 0, 82, 49
2, 139248, Note_on_c, 0, 82, 0
2, 139256, Note_on_c, 0, 59, 0
2, 139276, Note_on_c, 0, 87, 0
2, 139284, Note_on_c, 0, 58, 41
2, 139288, Note_on_c, 0, 78, 73
2, 139344, Note_on_c, 0, 58, 0
2, 139348, Note_on_c, 0, 90, 88
2, 139348, Note_on_c, 0, 59, 59
2, 139360, Note_on_c, 0, 59, 0
2, 139368, Note_on_c, 0, 90, 0
2, 139368, Note_on_c, 0, 78, 0
2, 139408, Control_c, 0, 64, 104
2, 139416, Control_c, 0, 64, 40
2, 139420, Note_on_c, 0, 73, 81
2, 139420, Note_on_c, 0, 85, 90
2, 139420, Note_on_c, 0, 58, 50
2, 139420, Control_c, 0, 64, 0
2, 139424, Note_on_c, 0, 70, 44
2, 139448, Control_c, 0, 64, 56
2, 139452, Note_on_c, 0, 58, 0
2, 139456, Control_c, 0, 64, 104
2, 139460, Note_on_c, 0, 70, 0
2, 139460, Control_c, 0, 64, 127
2, 139464, Note_on_c, 0, 73, 0
2, 139472, Note_on_c, 0, 85, 0
2, 139488, Note_on_c, 0, 80, 65
2, 139488, Note_on_c, 0, 71, 58
2, 139492, Note_on_c, 0, 77, 54
2, 139520, Note_on_c, 0, 77, 0
2, 139520, Note_on_c, 0, 71, 0
2, 139544, Note_on_c, 0, 80, 0
2, 139552, Note_on_c, 0, 70, 66
2, 139552, Note_on_c, 0, 74, 81
2, 139600, Note_on_c, 0, 74, 0
2, 139608, Note_on_c, 0, 70, 0
2, 139616, Note_on_c, 0, 86, 87
2, 139620, Note_on_c, 0, 71, 71
2, 139636, Note_on_c, 0, 86, 0
2, 139648, Note_on_c, 0, 71, 0
2, 139680, Control_c, 0, 64, 104
2, 139688, Control_c, 0, 64, 72
2, 139692, Control_c, 0, 64, 0
2, 139704, Note_on_c, 0, 89, 100
2, 139704, Note_on_c, 0, 77, 94
2, 139704, Note_on_c, 0, 70, 66
2, 139740, Note_on_c, 0, 89, 0
2, 139756, Control_c, 0, 64, 24
2, 139764, Control_c, 0, 64, 56
2, 139768, Note_on_c, 0, 78, 48
2, 139768, Control_c, 0, 64, 88
2, 139772, Note_on_c, 0, 82, 51
2, 139772, Control_c, 0, 64, 104
2, 139776, Note_on_c, 0, 77, 0
2, 139776, Control_c, 0, 64, 127
2, 139796, Note_on_c, 0, 78, 0
2, 139824, Note_on_c, 0, 82, 0
2, 139836, Note_on_c, 0, 75, 66
2, 139840, Note_on_c, 0, 70, 0
2, 139892, Note_on_c, 0, 75, 0
2, 139896, Note_on_c, 0, 87, 94
2, 139912, Note_on_c, 0, 87, 0
2, 139968, Control_c, 0, 64, 88
2, 139972, Control_c, 0, 64, 24
2, 139976, Note_on_c, 0, 94, 96
2, 139976, Control_c, 0, 64, 0
2, 139980, Note_on_c, 0, 82, 89
2, 139984, Note_on_c, 0, 34, 62
2, 139984, Note_on_c, 0, 46, 57
2, 140004, Control_c, 0, 64, 56
2, 140008, Control_c, 0, 64, 104
2, 140012, Note_on_c, 0, 34, 0
2, 140012, Control_c, 0, 64, 127
2, 140024, Note_on_c, 0, 46, 0
2, 140028, Note_on_c, 0, 94, 0
2, 140040, Note_on_c, 0, 82, 0
2, 140048, Note_on_c, 0, 89, 69
2, 140048, Note_on_c, 0, 47, 69
2, 140060, Note_on_c, 0, 86, 31
2, 140076, Note_on_c, 0, 86, 0
2, 140080, Note_on_c, 0, 47, 0
2, 140096, Note_on_c, 0, 89, 0
2, 140112, Note_on_c, 0, 46, 57
2, 140112, Note_on_c, 0, 80, 81
2, 140156, Note_on_c, 0, 46, 0
2, 140172, Note_on_c, 0, 80, 0
2, 140172, Note_on_c, 0, 47, 66
2, 140176, Note_on_c, 0, 92, 95
2, 140184, Note_on_c, 0, 47, 0
2, 140204, Note_on_c, 0, 92, 0
2, 140240, Control_c, 0, 64, 104
2, 140244, Control_c, 0, 64, 56
2, 140248, Note_on_c, 0, 89, 100
2, 140252, Note_on_c, 0, 77, 83
2, 140252, Note_on_c, 0, 46, 60
2, 140252, Note_on_c, 0, 58, 49
2, 140252, Control_c, 0, 64, 0
2, 140276, Control_c, 0, 64, 40
2, 140280, Note_on_c, 0, 46, 0
2, 140280, Control_c, 0, 64, 88
2, 140284, Control_c, 0, 64, 127
2, 140292, Note_on_c, 0, 58, 0
2, 140292, Note_on_c, 0, 77, 0
2, 140300, Note_on_c, 0, 89, 0
2, 140312, Note_on_c, 0, 82, 49
2, 140312, Note_on_c, 0, 87, 62
2, 140320, Note_on_c, 0, 59, 43
2, 140336, Note_on_c, 0, 82, 0
2, 140360, Note_on_c, 0, 59, 0
2, 140368, Note_on_c, 0, 87, 0
2, 140380, Note_on_c, 0, 58, 44
2, 140380, Note_on_c, 0, 78, 63
2, 140436, Note_on_c, 0, 58, 0
2, 140444, Note_on_c, 0, 90, 89
2, 140448, Note_on_c, 0, 59, 47
2, 140460, Note_on_c, 0, 59, 0
2, 140464, Note_on_c, 0, 90, 0
2, 140464, Note_on_c, 0, 78, 0
2, 140500, Control_c, 0, 64, 88
2, 140508, Control_c, 0, 64, 40
2, 140512, Control_c, 0, 64, 0
2, 140516, Note_on_c, 0, 85, 92
2, 140520, Note_on_c, 0, 73, 83
2, 140520, Note_on_c, 0, 58, 59
2, 140520, Note_on_c, 0, 70, 64
2, 140532, Control_c, 0, 64, 40
2, 140536, Control_c, 0, 64, 88
2, 140540, Control_c, 0, 64, 127
2, 140556, Note_on_c, 0, 70, 0
2, 140556, Note_on_c, 0, 58, 0
2, 140556, Note_on_c, 0, 73, 0
2, 140564, Note_on_c, 0, 85, 0
2, 140580, Note_on_c, 0, 80, 62
2, 140584, Note_on_c, 0, 77, 60
2, 140588, Note_on_c, 0, 71, 48
2, 140608, Note_on_c, 0, 77, 0
2, 140616, Note_on_c, 0, 71, 0
2, 140632, Note_on_c, 0, 80, 0
2, 140644, Note_on_c, 0, 74, 77
2, 140648, Note_on_c, 0, 70, 50
2, 140700, Note_on_c, 0, 70, 0
2, 140700, Note_on_c, 0, 74, 0
2, 140712, Note_on_c, 0, 86, 87
2, 140716, Note_on_c, 0, 71, 63
2, 140720, Note_on_c, 0, 86, 0
2, 140732, Note_on_c, 0, 71, 0
2, 140784, Control_c, 0, 64, 88
2, 140788, Note_on_c, 0, 89, 90
2, 140788, Control_c, 0, 64, 56
2, 140792, Note_on_c, 0, 70, 46
2, 140792, Note_on_c, 0, 77, 54
2, 140796, Control_c, 0, 64, 0
2, 140824, Note_on_c, 0, 89, 0
2, 140836, Control_c, 0, 64, 56
2, 140840, Control_c, 0, 64, 88
2, 140844, Control_c, 0, 64, 127
2, 140860, Note_on_c, 0, 78, 56
2, 140860, Note_on_c, 0, 82, 55
2, 140864, Note_on_c, 0, 77, 0
2, 140892, Note_on_c, 0, 78, 0
2, 140900, Note_on_c, 0, 70, 0
2, 140908, Note_on_c, 0, 82, 0
2, 140924, Note_on_c, 0, 75, 71
2, 140984, Note_on_c, 0, 87, 95
2, 141004, Note_on_c, 0, 87, 0
2, 141012, Note_on_c, 0, 75, 0
2, 141060, Control_c, 0, 64, 104
2, 141064, Control_c, 0, 64, 72
2, 141068, Note_on_c, 0, 85, 72
2, 141068, Note_on_c, 0, 97, 96
2, 141068, Control_c, 0, 64, 40
2, 141076, Note_on_c, 0, 46, 48
2, 141076, Control_c, 0, 64, 0
2, 141080, Note_on_c, 0, 34, 39
2, 141104, Control_c, 0, 64, 56
2, 141108, Control_c, 0, 64, 127
2, 141112, Note_on_c, 0, 85, 0
2, 141124, Note_on_c, 0, 34, 0
2, 141128, Note_on_c, 0, 46, 0
2, 141128, Note_on_c, 0, 97, 0
2, 141136, Note_on_c, 0, 90, 74
2, 141196, Note_on_c, 0, 90, 0
2, 141204, Note_on_c, 0, 85, 83
2, 141208, Note_on_c, 0, 54, 65
2, 141212, Note_on_c, 0, 42, 46
2, 141224, Note_on_c, 0, 42, 0
2, 141224, Note_on_c, 0, 54, 0
2, 141264, Note_on_c, 0, 85, 0
2, 141268, Note_on_c, 0, 97, 97
2, 141292, Note_on_c, 0, 97, 0
2, 141336, Control_c, 0, 64, 104
2, 141340, Control_c, 0, 64, 72
2, 141344, Note_on_c, 0, 100, 101
2, 141344, Note_on_c, 0, 88, 81
2, 141348, Control_c, 0, 64, 24
2, 141352, Note_on_c, 0, 47, 60
2, 141352, Control_c, 0, 64, 0
2, 141356, Note_on_c, 0, 35, 50
2, 141380, Control_c, 0, 64, 56
2, 141384, Note_on_c, 0, 35, 0
2, 141384, Control_c, 0, 64, 127
2, 141392, Note_on_c, 0, 100, 0
2, 141396, Note_on_c, 0, 47, 0
2, 141404, Note_on_c, 0, 88, 0
2, 141416, Note_on_c, 0, 90, 71
2, 141480, Note_on_c, 0, 90, 0
2, 141484, Note_on_c, 0, 54, 63
2, 141484, Note_on_c, 0, 87, 74
2, 141488, Note_on_c, 0, 42, 41
2, 141500, Note_on_c, 0, 42, 0
2, 141500, Note_on_c, 0, 54, 0
2, 141540, Note_on_c, 0, 87, 0
2, 141544, Note_on_c, 0, 99, 92
2, 141564, Note_on_c, 0, 99, 0
2, 141612, Control_c, 0, 64, 88
2, 141616, Note_on_c, 0, 93, 94
2, 141616, Control_c, 0, 64, 40
2, 141620, Note_on_c, 0, 81, 67
2, 141624, Note_on_c, 0, 49, 52
2, 141624, Note_on_c, 0, 37, 48
2, 141624, Control_c, 0, 64, 0
2, 141652, Control_c, 0, 64, 24
2, 141656, Control_c, 0, 64, 88
2, 141660, Control_c, 0, 64, 127
2, 141668, Note_on_c, 0, 37, 0
2, 141672, Note_on_c, 0, 93, 0
2, 141676, Note_on_c, 0, 49, 0
2, 141684, Note_on_c, 0, 90, 59
2, 141692, Note_on_c, 0, 88, 56
2, 141724, Note_on_c, 0, 88, 0
2, 141744, Note_on_c, 0, 90, 0
2, 141756, Note_on_c, 0, 82, 70
2, 141756, Note_on_c, 0, 54, 60
2, 141760, Note_on_c, 0, 42, 44
2, 141776, Note_on_c, 0, 54, 0
2, 141784, Note_on_c, 0, 42, 0
2, 141816, Note_on_c, 0, 94, 93
2, 141820, Note_on_c, 0, 82, 0
2, 141824, Note_on_c, 0, 81, 0
2, 141840, Note_on_c, 0, 94, 0
2, 141884, Control_c, 0, 64, 104
2, 141888, Note_on_c, 0, 97, 94
2, 141892, Note_on_c, 0, 85, 83
2, 141892, Note_on_c, 0, 39, 50
2, 141892, Note_on_c, 0, 51, 48
2, 141892, Control_c, 0, 64, 72
2, 141896, Control_c, 0, 64, 0
2, 141924, Control_c, 0, 64, 40
2, 141928, Control_c, 0, 64, 88
2, 141936, Control_c, 0, 64, 127
2, 141944, Note_on_c, 0, 97, 0
2, 141956, Note_on_c, 0, 85, 0
2, 141960, Note_on_c, 0, 87, 62
2, 141960, Note_on_c, 0, 90, 65
2, 141964, Note_on_c, 0, 39, 0
2, 141968, Note_on_c, 0, 51, 0
2, 142016, Note_on_c, 0, 87, 0
2, 142016, Note_on_c, 0, 90, 0
2, 142024, Note_on_c, 0, 54, 63
2, 142028, Note_on_c, 0, 83, 78
2, 142028, Note_on_c, 0, 42, 46
2, 142044, Note_on_c, 0, 54, 0
2, 142052, Note_on_c, 0, 42, 0
2, 142084, Note_on_c, 0, 83, 0
2, 142088, Note_on_c, 0, 95, 94
2, 142104, Note_on_c, 0, 95, 0
2, 142164, Control_c, 0, 64, 88
2, 142168, Note_on_c, 0, 96, 90
2, 142168, Control_c, 0, 64, 56
2, 142172, Note_on_c, 0, 91, 75
2, 142172, Control_c, 0, 64, 0
2, 142176, Note_on_c, 0, 40, 50
2, 142176, Note_on_c, 0, 52, 48
2, 142200, Control_c, 0, 64, 72
2, 142208, Control_c, 0, 64, 127
2, 142212, Note_on_c, 0, 40, 0
2, 142220, Note_on_c, 0, 96, 0
2, 142220, Note_on_c, 0, 91, 0
2, 142220, Note_on_c, 0, 52, 0
2, 142236, Note_on_c, 0, 94, 83
2, 142240, Note_on_c, 0, 85, 69
2, 142272, Note_on_c, 0, 85, 0
2, 142288, Note_on_c, 0, 94, 0
2, 142304, Note_on_c, 0, 96, 88
2, 142308, Note_on_c, 0, 91, 73
2, 142312, Note_on_c, 0, 55, 63
2, 142312, Note_on_c, 0, 46, 50
2, 142352, Note_on_c, 0, 46, 0
2, 142352, Note_on_c, 0, 96, 0
2, 142352, Note_on_c, 0, 91, 0
2, 142352, Note_on_c, 0, 55, 0
2, 142372, Note_on_c, 0, 94, 80
2, 142380, Note_on_c, 0, 85, 78
2, 142396, Note_on_c, 0, 94, 0
2, 142408, Note_on_c, 0, 85, 0
2, 142444, Control_c, 0, 64, 104
2, 142448, Note_on_c, 0, 93, 94
2, 142448, Control_c, 0, 64, 56
2, 142452, Note_on_c, 0, 58, 46
2, 142452, Note_on_c, 0, 88, 73
2, 142456, Note_on_c, 0, 49, 48
2, 142456, Control_c, 0, 64, 0
2, 142476, Control_c, 0, 64, 24
2, 142480, Control_c, 0, 64, 72
2, 142484, Control_c, 0, 64, 127
2, 142488, Note_on_c, 0, 93, 0
2, 142500, Note_on_c, 0, 88, 0
2, 142508, Note_on_c, 0, 58, 0
2, 142512, Note_on_c, 0, 91, 86
2, 142516, Note_on_c, 0, 82, 63
2, 142544, Note_on_c, 0, 82, 0
2, 142548, Note_on_c, 0, 49, 0
2, 142564, Note_on_c, 0, 91, 0
2, 142580, Note_on_c, 0, 93, 94
2, 142584, Note_on_c, 0, 61, 42
2, 142588, Note_on_c, 0, 88, 67
2, 142592, Note_on_c, 0, 52, 47
2, 142600, Note_on_c, 0, 52, 0
2, 142616, Note_on_c, 0, 93, 0
2, 142616, Note_on_c, 0, 61, 0
2, 142624, Note_on_c, 0, 88, 0
2, 142652, Note_on_c, 0, 91, 83
2, 142656, Note_on_c, 0, 82, 67
2, 142672, Note_on_c, 0, 91, 0
2, 142676, Note_on_c, 0, 82, 0
2, 142716, Note_on_c, 0, 90, 85
2, 142724, Note_on_c, 0, 85, 73
2, 142724, Note_on_c, 0, 64, 56
2, 142728, Note_on_c, 0, 55, 57
2, 142728, Control_c, 0, 64, 56
2, 142732, Control_c, 0, 64, 0
2, 142756, Control_c, 0, 64, 24
2, 142760, Control_c, 0, 64, 72
2, 142764, Note_on_c, 0, 90, 0
2, 142764, Control_c, 0, 64, 127
2, 142772, Note_on_c, 0, 85, 0
2, 142776, Note_on_c, 0, 64, 0
2, 142780, Note_on_c, 0, 88, 92
2, 142784, Note_on_c, 0, 79, 75
2, 142800, Note_on_c, 0, 55, 0
2, 142812, Note_on_c, 0, 79, 0
2, 142828, Note_on_c, 0, 88, 0
2, 142848, Note_on_c, 0, 90, 79
2, 142852, Note_on_c, 0, 67, 65
2, 142852, Note_on_c, 0, 58, 48
2, 142856, Note_on_c, 0, 85, 43
2, 142876, Note_on_c, 0, 58, 0
2, 142884, Note_on_c, 0, 67, 0
2, 142888, Note_on_c, 0, 90, 0
2, 142892, Note_on_c, 0, 85, 0
2, 142912, Note_on_c, 0, 88, 85
2, 142920, Note_on_c, 0, 79, 63
2, 142932, Note_on_c, 0, 88, 0
2, 142944, Note_on_c, 0, 79, 0
2, 142980, Note_on_c, 0, 87, 81
2, 142984, Note_on_c, 0, 70, 42
2, 142988, Note_on_c, 0, 79, 66
2, 142988, Note_on_c, 0, 61, 39
2, 142988, Control_c, 0, 64, 104
2, 142996, Control_c, 0, 64, 56
2, 143000, Control_c, 0, 64, 0
2, 143016, Control_c, 0, 64, 24
2, 143020, Note_on_c, 0, 79, 0
2, 143024, Note_on_c, 0, 87, 0
2, 143024, Control_c, 0, 64, 72
2, 143028, Control_c, 0, 64, 127
2, 143048, Note_on_c, 0, 85, 80
2, 143052, Note_on_c, 0, 76, 80
2, 143056, Note_on_c, 0, 70, 0
2, 143072, Note_on_c, 0, 76, 0
2, 143076, Note_on_c, 0, 61, 0
2, 143092, Note_on_c, 0, 85, 0
2, 143112, Note_on_c, 0, 87, 73
2, 143120, Note_on_c, 0, 73, 42
2, 143120, Note_on_c, 0, 79, 58
2, 143124, Note_on_c, 0, 64, 40
2, 143136, Note_on_c, 0, 64, 0
2, 143148, Note_on_c, 0, 79, 0
2, 143152, Note_on_c, 0, 87, 0
2, 143164, Note_on_c, 0, 73, 0
2, 143180, Note_on_c, 0, 85, 78
2, 143184, Note_on_c, 0, 76, 75
2, 143196, Note_on_c, 0, 76, 0
2, 143208, Note_on_c, 0, 85, 0
2, 143244, Control_c, 0, 64, 56
2, 143248, Note_on_c, 0, 84, 82
2, 143248, Control_c, 0, 64, 0
2, 143252, Note_on_c, 0, 76, 77
2, 143256, Note_on_c, 0, 79, 59
2, 143268, Control_c, 0, 64, 72
2, 143272, Control_c, 0, 64, 127
2, 143284, Note_on_c, 0, 79, 0
2, 143284, Note_on_c, 0, 76, 0
2, 143288, Note_on_c, 0, 84, 0
2, 143320, Note_on_c, 0, 73, 57
2, 143324, Note_on_c, 0, 81, 78
2, 143352, Note_on_c, 0, 73, 0
2, 143380, Note_on_c, 0, 84, 80
2, 143384, Note_on_c, 0, 64, 58
2, 143392, Note_on_c, 0, 79, 57
2, 143412, Note_on_c, 0, 64, 0
2, 143412, Note_on_c, 0, 84, 0
2, 143424, Note_on_c, 0, 79, 0
2, 143448, Note_on_c, 0, 82, 69
2, 143448, Note_on_c, 0, 73, 69
2, 143468, Note_on_c, 0, 82, 0
2, 143472, Note_on_c, 0, 73, 0
2, 143516, Note_on_c, 0, 81, 85
2, 143520, Note_on_c, 0, 73, 50
2, 143520, Note_on_c, 0, 76, 72
2, 143520, Control_c, 0, 64, 72
2, 143524, Control_c, 0, 64, 24
2, 143528, Control_c, 0, 64, 0
2, 143544, Control_c, 0, 64, 88
2, 143548, Control_c, 0, 64, 127
2, 143552, Note_on_c, 0, 73, 0
2, 143560, Note_on_c, 0, 81, 0
2, 143564, Note_on_c, 0, 76, 0
2, 143588, Note_on_c, 0, 78, 73
2, 143592, Note_on_c, 0, 70, 43
2, 143624, Note_on_c, 0, 70, 0
2, 143628, Note_on_c, 0, 78, 0
2, 143656, Note_on_c, 0, 61, 51
2, 143656, Note_on_c, 0, 81, 74
2, 143664, Note_on_c, 0, 76, 60
2, 143688, Note_on_c, 0, 81, 0
2, 143696, Note_on_c, 0, 76, 0
2, 143704, Note_on_c, 0, 81, 0
2, 143720, Note_on_c, 0, 79, 73
2, 143728, Note_on_c, 0, 70, 36
2, 143736, Note_on_c, 0, 70, 0
2, 143736, Note_on_c, 0, 79, 0
2, 143788, Control_c, 0, 64, 104
2, 143792, Note_on_c, 0, 70, 50
2, 143792, Control_c, 0, 64, 56
2, 143796, Note_on_c, 0, 73, 48
2, 143796, Note_on_c, 0, 77, 62
2, 143796, Control_c, 0, 64, 0
2, 143800, Note_on_c, 0, 79, 54
2, 143804, Note_on_c, 0, 61, 0
2, 143808, Note_on_c, 0, 79, 0
2, 143812, Control_c, 0, 64, 40
2, 143816, Control_c, 0, 64, 72
2, 143820, Control_c, 0, 64, 127
2, 143828, Note_on_c, 0, 77, 0
2, 143832, Note_on_c, 0, 73, 0
2, 143832, Note_on_c, 0, 70, 0
2, 143860, Note_on_c, 0, 75, 81
2, 143860, Note_on_c, 0, 67, 66
2, 143884, Note_on_c, 0, 67, 0
2, 143892, Note_on_c, 0, 75, 0
2, 143932, Note_on_c, 0, 77, 80
2, 143936, Note_on_c, 0, 70, 63
2, 143948, Note_on_c, 0, 55, 36
2, 143968, Note_on_c, 0, 77, 0
2, 143972, Note_on_c, 0, 70, 0
2, 143984, Note_on_c, 0, 55, 0
2, 144000, Note_on_c, 0, 76, 87
2, 144004, Note_on_c, 0, 67, 65
2, 144016, Note_on_c, 0, 67, 0
2, 144044, Note_on_c, 0, 76, 0
2, 144084, Note_on_c, 0, 53, 40
2, 144092, Note_on_c, 0, 79, 90
2, 144096, Note_on_c, 0, 70, 34
2, 144100, Note_on_c, 0, 74, 73
2, 144116, Note_on_c, 0, 62, 33
2, 144116, Control_c, 0, 64, 104
2, 144120, Control_c, 0, 64, 72
2, 144128, Control_c, 0, 64, 40
2, 144132, Control_c, 0, 64, 0
2, 144156, Note_on_c, 0, 79, 0
2, 144160, Control_c, 0, 64, 24
2, 144164, Note_on_c, 0, 70, 0
2, 144164, Control_c, 0, 64, 88
2, 144168, Note_on_c, 0, 74, 0
2, 144168, Control_c, 0, 64, 127
2, 144172, Note_on_c, 0, 65, 56
2, 144236, Note_on_c, 0, 70, 67
2, 144304, Note_on_c, 0, 70, 0
2, 144304, Note_on_c, 0, 53, 0
2, 144304, Note_on_c, 0, 77, 93
2, 144340, Note_on_c, 0, 77, 0
2, 144356, Note_on_c, 0, 65, 0
2, 144368, Note_on_c, 0, 62, 0
2, 144380, Note_on_c, 0, 74, 85
2, 144384, Note_on_c, 0, 68, 49
2, 144384, Note_on_c, 0, 59, 46
2, 144392, Note_on_c, 0, 53, 39
2, 144404, Control_c, 0, 64, 88
2, 144408, Control_c, 0, 64, 56
2, 144412, Control_c, 0, 64, 24
2, 144416, Note_on_c, 0, 68, 0
2, 144416, Control_c, 0, 64, 0
2, 144452, Note_on_c, 0, 65, 60
2, 144452, Control_c, 0, 64, 24
2, 144456, Control_c, 0, 64, 88
2, 144460, Control_c, 0, 64, 127
2, 144492, Note_on_c, 0, 74, 0
2, 144520, Note_on_c, 0, 68, 56
2, 144556, Note_on_c, 0, 65, 0
2, 144580, Note_on_c, 0, 68, 0
2, 144588, Note_on_c, 0, 75, 88
2, 144628, Note_on_c, 0, 75, 0
2, 144652, Note_on_c, 0, 59, 0
2, 144664, Note_on_c, 0, 74, 78
2, 144668, Note_on_c, 0, 70, 58
2, 144672, Note_on_c, 0, 64, 50
2, 144672, Note_on_c, 0, 60, 56
2, 144684, Control_c, 0, 64, 88
2, 144688, Control_c, 0, 64, 56
2, 144696, Control_c, 0, 64, 24
2, 144700, Control_c, 0, 64, 0
2, 144704, Note_on_c, 0, 64, 0
2, 144704, Note_on_c, 0, 70, 0
2, 144740, Note_on_c, 0, 67, 52
2, 144740, Control_c, 0, 64, 72
2, 144744, Control_c, 0, 64, 127
2, 144772, Note_on_c, 0, 74, 0
2, 144812, Note_on_c, 0, 64, 44
2, 144832, Note_on_c, 0, 60, 0
2, 144844, Note_on_c, 0, 53, 0
2, 144872, Note_on_c, 0, 67, 0
2, 144876, Note_on_c, 0, 72, 88
2, 144892, Note_on_c, 0, 72, 0
2, 144908, Note_on_c, 0, 64, 0
2, 144952, Note_on_c, 0, 67, 72
2, 144952, Control_c, 0, 64, 104
2, 144956, Control_c, 0, 64, 56
2, 144960, Note_on_c, 0, 63, 33
2, 144964, Control_c, 0, 64, 0
2, 144996, Control_c, 0, 64, 40
2, 145000, Control_c, 0, 64, 88
2, 145004, Control_c, 0, 64, 127
2, 145008, Note_on_c, 0, 63, 0
2, 145020, Note_on_c, 0, 60, 56
2, 145064, Control_c, 0, 64, 104
2, 145068, Control_c, 0, 64, 88
2, 145072, Control_c, 0, 64, 72
2, 145076, Control_c, 0, 64, 56
2, 145080, Note_on_c, 0, 67, 0
2, 145080, Note_on_c, 0, 63, 50
2, 145084, Control_c, 0, 64, 40
2, 145088, Control_c, 0, 64, 0
2, 145152, Note_on_c, 0, 69, 70
2, 145164, Note_on_c, 0, 63, 0
2, 145168, Note_on_c, 0, 60, 0
2, 145236, Control_c, 0, 64, 104
2, 145240, Control_c, 0, 64, 88
2, 145248, Control_c, 0, 64, 72
2, 145252, Note_on_c, 0, 79, 85
2, 145252, Note_on_c, 0, 70, 34
2, 145252, Control_c, 0, 64, 56
2, 145260, Note_on_c, 0, 69, 0
2, 145260, Note_on_c, 0, 74, 69
2, 145260, Note_on_c, 0, 53, 47
2, 145260, Control_c, 0, 64, 0
2, 145316, Note_on_c, 0, 79, 0
2, 145324, Control_c, 0, 64, 40
2, 145328, Note_on_c, 0, 70, 0
2, 145328, Control_c, 0, 64, 104
2, 145332, Note_on_c, 0, 74, 0
2, 145336, Control_c, 0, 64, 127
2, 145340, Note_on_c, 0, 65, 51
2, 145392, Note_on_c, 0, 53, 0
2, 145404, Note_on_c, 0, 70, 67
2, 145472, Note_on_c, 0, 70, 0
2, 145472, Note_on_c, 0, 77, 83
2, 145504, Note_on_c, 0, 77, 0
2, 145516, Note_on_c, 0, 65, 0
2, 145544, Note_on_c, 0, 74, 72
2, 145552, Note_on_c, 0, 53, 39
2, 145552, Note_on_c, 0, 59, 40
2, 145556, Note_on_c, 0, 68, 37
2, 145556, Control_c, 0, 64, 104
2, 145560, Control_c, 0, 64, 88
2, 145568, Control_c, 0, 64, 72
2, 145572, Control_c, 0, 64, 56
2, 145580, Control_c, 0, 64, 24
2, 145584, Control_c, 0, 64, 0
2, 145604, Note_on_c, 0, 68, 0
2, 145624, Note_on_c, 0, 65, 58
2, 145632, Control_c, 0, 64, 72
2, 145636, Control_c, 0, 64, 127
2, 145656, Note_on_c, 0, 74, 0
2, 145684, Note_on_c, 0, 68, 60
2, 145736, Note_on_c, 0, 65, 0
2, 145744, Note_on_c, 0, 68, 0
2, 145756, Note_on_c, 0, 75, 77
2, 145796, Note_on_c, 0, 75, 0
2, 145840, Note_on_c, 0, 59, 0
2, 145840, Note_on_c, 0, 74, 71
2, 145844, Note_on_c, 0, 64, 43
2, 145844, Note_on_c, 0, 70, 43
2, 145852, Note_on_c, 0, 60, 41
2, 145864, Control_c, 0, 64, 104
2, 145868, Control_c, 0, 64, 72
2, 145876, Control_c, 0, 64, 40
2, 145880, Control_c, 0, 64, 0
2, 145900, Note_on_c, 0, 70, 0
2, 145900, Note_on_c, 0, 64, 0
2, 145920, Note_on_c, 0, 67, 49
2, 145920, Control_c, 0, 64, 40
2, 145928, Control_c, 0, 64, 104
2, 145932, Control_c, 0, 64, 127
2, 145948, Note_on_c, 0, 74, 0
2, 145992, Note_on_c, 0, 64, 47
2, 145996, Note_on_c, 0, 60, 0
2, 146008, Note_on_c, 0, 53, 0
2, 146060, Note_on_c, 0, 67, 0
2, 146060, Note_on_c, 0, 72, 75
2, 146080, Note_on_c, 0, 72, 0
2, 146080, Note_on_c, 0, 64, 0
2, 146136, Note_on_c, 0, 67, 71
2, 146136, Note_on_c, 0, 63, 43
2, 146140, Note_on_c, 0, 40, 46
2, 146144, Control_c, 0, 64, 88
2, 146148, Control_c, 0, 64, 24
2, 146156, Control_c, 0, 64, 0
2, 146188, Note_on_c, 0, 40, 0
2, 146188, Note_on_c, 0, 63, 0
2, 146188, Control_c, 0, 64, 88
2, 146196, Control_c, 0, 64, 127
2, 146200, Note_on_c, 0, 41, 51
2, 146208, Note_on_c, 0, 67, 0
2, 146212, Note_on_c, 0, 60, 60
2, 146240, Note_on_c, 0, 41, 0
2, 146276, Note_on_c, 0, 40, 44
2, 146276, Note_on_c, 0, 63, 58
2, 146324, Note_on_c, 0, 40, 0
2, 146336, Note_on_c, 0, 60, 0
2, 146340, Note_on_c, 0, 69, 83
2, 146344, Note_on_c, 0, 63, 0
2, 146344, Note_on_c, 0, 41, 49
2, 146364, Note_on_c, 0, 69, 0
2, 146432, Note_on_c, 0, 72, 72
2, 146432, Note_on_c, 0, 62, 59
2, 146436, Note_on_c, 0, 53, 55
2, 146440, Control_c, 0, 64, 104
2, 146444, Control_c, 0, 64, 88
2, 146452, Control_c, 0, 64, 56
2, 146456, Control_c, 0, 64, 40
2, 146460, Control_c, 0, 64, 0
2, 146488, Note_on_c, 0, 62, 0
2, 146504, Note_on_c, 0, 65, 59
2, 146512, Control_c, 0, 64, 40
2, 146520, Control_c, 0, 64, 88
2, 146524, Control_c, 0, 64, 127
2, 146584, Note_on_c, 0, 62, 50
2, 146588, Note_on_c, 0, 72, 0
2, 146600, Note_on_c, 0, 65, 0
2, 146648, Note_on_c, 0, 70, 69
2, 146656, Note_on_c, 0, 62, 0
2, 146668, Note_on_c, 0, 70, 0
2, 146676, Note_on_c, 0, 41, 0
2, 146676, Note_on_c, 0, 53, 0
2, 146732, Note_on_c, 0, 67, 80
2, 146736, Note_on_c, 0, 50, 57
2, 146736, Note_on_c, 0, 56, 43
2, 146740, Note_on_c, 0, 41, 44
2, 146740, Note_on_c, 0, 47, 48
2, 146768, Control_c, 0, 64, 72
2, 146776, Control_c, 0, 64, 24
2, 146780, Control_c, 0, 64, 0
2, 146812, Note_on_c, 0, 56, 0
2, 146816, Note_on_c, 0, 62, 60
2, 146816, Control_c, 0, 64, 40
2, 146824, Control_c, 0, 64, 88
2, 146828, Control_c, 0, 64, 127
2, 146852, Note_on_c, 0, 62, 0
2, 146884, Note_on_c, 0, 56, 46
2, 146928, Note_on_c, 0, 67, 0
2, 146936, Note_on_c, 0, 50, 0
2, 146952, Note_on_c, 0, 47, 0
2, 146956, Note_on_c, 0, 65, 71
2, 146960, Note_on_c, 0, 56, 0
2, 146960, Note_on_c, 0, 62, 54
2, 146972, Note_on_c, 0, 62, 0
2, 146984, Note_on_c, 0, 65, 0
2, 147036, Note_on_c, 0, 65, 66
2, 147040, Note_on_c, 0, 51, 44
2, 147040, Note_on_c, 0, 55, 60
2, 147048, Note_on_c, 0, 48, 55
2, 147056, Control_c, 0, 64, 104
2, 147060, Control_c, 0, 64, 72
2, 147068, Control_c, 0, 64, 40
2, 147072, Control_c, 0, 64, 0
2, 147096, Note_on_c, 0, 55, 0
2, 147116, Note_on_c, 0, 60, 54
2, 147124, Control_c, 0, 64, 72
2, 147132, Control_c, 0, 64, 127
2, 147172, Note_on_c, 0, 60, 0
2, 147184, Note_on_c, 0, 55, 59
2, 147212, Note_on_c, 0, 65, 0
2, 147248, Note_on_c, 0, 48, 0
2, 147248, Note_on_c, 0, 63, 67
2, 147252, Note_on_c, 0, 60, 59
2, 147256, Note_on_c, 0, 55, 0
2, 147268, Note_on_c, 0, 41, 0
2, 147276, Note_on_c, 0, 60, 0
2, 147280, Note_on_c, 0, 63, 0
2, 147284, Note_on_c, 0, 51, 0
2, 147344, Note_on_c, 0, 60, 64
2, 147348, Note_on_c, 0, 42, 51
2, 147352, Control_c, 0, 64, 72
2, 147356, Note_on_c, 0, 51, 46
2, 147356, Control_c, 0, 64, 0
2, 147392, Control_c, 0, 64, 40
2, 147396, Control_c, 0, 64, 104
2, 147404, Note_on_c, 0, 51, 0
2, 147404, Control_c, 0, 64, 127
2, 147408, Note_on_c, 0, 42, 0
2, 147416, Note_on_c, 0, 41, 52
2, 147420, Control_c, 0, 64, 56
2, 147424, Note_on_c, 0, 57, 48
2, 147428, Control_c, 0, 64, 0
2, 147456, Control_c, 0, 64, 40
2, 147460, Control_c, 0, 64, 72
2, 147464, Note_on_c, 0, 57, 0
2, 147480, Note_on_c, 0, 41, 0
2, 147480, Note_on_c, 0, 51, 51
2, 147480, Control_c, 0, 64, 0
2, 147484, Note_on_c, 0, 42, 43
2, 147496, Control_c, 0, 64, 56
2, 147504, Control_c, 0, 64, 104
2, 147508, Control_c, 0, 64, 127
2, 147536, Note_on_c, 0, 60, 0
2, 147540, Note_on_c, 0, 51, 0
2, 147560, Note_on_c, 0, 42, 0
2, 147560, Note_on_c, 0, 57, 44
2, 147560, Note_on_c, 0, 62, 64
2, 147564, Note_on_c, 0, 41, 48
2, 147576, Note_on_c, 0, 57, 0
2, 147580, Note_on_c, 0, 41, 0
2, 147588, Note_on_c, 0, 62, 0
2, 147652, Note_on_c, 0, 58, 63
2, 147656, Note_on_c, 0, 50, 50
2, 147668, Note_on_c, 0, 34, 58
2, 147688, Control_c, 0, 64, 104
2, 147692, Control_c, 0, 64, 72
2, 147700, Control_c, 0, 64, 40
2, 147704, Control_c, 0, 64, 0
2, 147800, Note_on_c, 0, 74, 78
2, 147808, Note_on_c, 0, 62, 36
2, 147812, Note_on_c, 0, 65, 47
2, 147812, Note_on_c, 0, 58, 36
2, 147816, Note_on_c, 0, 50, 50
2, 147820, Note_on_c, 0, 53, 40
2, 147828, Note_on_c, 0, 65, 0
2, 147828, Note_on_c, 0, 50, 0
2, 147832, Note_on_c, 0, 53, 0
2, 147832, Note_on_c, 0, 62, 0
2, 147832, Note_on_c, 0, 74, 0
2, 147832, Note_on_c, 0, 58, 0
2, 147868, Note_on_c, 0, 50, 0
2, 147900, Note_on_c, 0, 58, 0
2, 147940, Note_on_c, 0, 34, 0
2, 147948, Note_on_c, 0, 72, 72
2, 147956, Note_on_c, 0, 65, 54
2, 147956, Note_on_c, 0, 62, 42
2, 147960, Note_on_c, 0, 58, 32
2, 147964, Note_on_c, 0, 50, 37
2, 147964, Note_on_c, 0, 53, 39
2, 147972, Note_on_c, 0, 62, 0
2, 147972, Note_on_c, 0, 65, 0
2, 147976, Note_on_c, 0, 72, 0
2, 147980, Note_on_c, 0, 50, 0
2, 147980, Note_on_c, 0, 53, 0
2, 147984, Note_on_c, 0, 58, 0
2, 148088, Note_on_c, 0, 71, 64
2, 148096, Note_on_c, 0, 65, 44
2, 148096, Note_on_c, 0, 62, 37
2, 148104, Note_on_c, 0, 53, 40
2, 148104, Note_on_c, 0, 58, 23
2, 148112, Note_on_c, 0, 65, 0
2, 148116, Note_on_c, 0, 62, 0
2, 148120, Note_on_c, 0, 71, 0
2, 148120, Note_on_c, 0, 53, 0
2, 148124, Note_on_c, 0, 58, 0
2, 148224, Note_on_c, 0, 70, 59
2, 148224, Note_on_c, 0, 65, 47
2, 148224, Note_on_c, 0, 62, 40
2, 148228, Note_on_c, 0, 58, 33
2, 148232, Note_on_c, 0, 50, 39
2, 148236, Note_on_c, 0, 53, 43
2, 148248, Note_on_c, 0, 53, 0
2, 148248, Note_on_c, 0, 65, 0
2, 148252, Note_on_c, 0, 50, 0
2, 148252, Note_on_c, 0, 62, 0
2, 148256, Note_on_c, 0, 58, 0
2, 148260, Note_on_c, 0, 70, 0
2, 148348, Note_on_c, 0, 74, 75
2, 148352, Note_on_c, 0, 65, 48
2, 148356, Note_on_c, 0, 50, 48
2, 148356, Note_on_c, 0, 62, 37
2, 148356, Note_on_c, 0, 58, 34
2, 148356, Note_on_c, 0, 53, 44
2, 148372, Note_on_c, 0, 53, 0
2, 148376, Note_on_c, 0, 50, 0
2, 148380, Note_on_c, 0, 58, 0
2, 148380, Note_on_c, 0, 74, 0
2, 148388, Note_on_c, 0, 65, 0
2, 148388, Note_on_c, 0, 62, 0
2, 148488, Note_on_c, 0, 50, 28
2, 148492, Note_on_c, 0, 72, 71
2, 148492, Note_on_c, 0, 58, 16
2, 148492, Note_on_c, 0, 53, 35
2, 148496, Note_on_c, 0, 62, 47
2, 148496, Note_on_c, 0, 65, 39
2, 148528, Control_c, 0, 64, 40
2, 148532, Control_c, 0, 64, 72
2, 148540, Control_c, 0, 64, 88
2, 148544, Control_c, 0, 64, 104
2, 148552, Control_c, 0, 64, 127
2, 148556, Note_on_c, 0, 72, 0
2, 148556, Note_on_c, 0, 71, 74
2, 148564, Note_on_c, 0, 65, 0
2, 148584, Control_c, 0, 64, 88
2, 148592, Control_c, 0, 64, 56
2, 148596, Control_c, 0, 64, 24
2, 148600, Control_c, 0, 64, 0
2, 148612, Control_c, 0, 64, 40
2, 148620, Note_on_c, 0, 71, 0
2, 148620, Note_on_c, 0, 70, 64
2, 148620, Control_c, 0, 64, 56
2, 148624, Control_c, 0, 64, 88
2, 148628, Control_c, 0, 64, 127
2, 148652, Note_on_c, 0, 53, 0
2, 148652, Note_on_c, 0, 62, 0
2, 148652, Note_on_c, 0, 58, 0
2, 148660, Note_on_c, 0, 50, 0
2, 148668, Note_on_c, 0, 70, 0
2, 148760, Control_c, 0, 64, 104
2, 148764, Note_on_c, 0, 32, 67
2, 148764, Control_c, 0, 64, 56
2, 148772, Control_c, 0, 64, 24
2, 148776, Control_c, 0, 64, 0
2, 148820, Note_on_c, 0, 32, 0
2, 148912, Note_on_c, 0, 77, 80
2, 148916, Note_on_c, 0, 70, 56
2, 148916, Note_on_c, 0, 65, 56
2, 148916, Note_on_c, 0, 58, 36
2, 148920, Note_on_c, 0, 62, 50
2, 148924, Note_on_c, 0, 53, 44
2, 148940, Note_on_c, 0, 53, 0
2, 148944, Note_on_c, 0, 77, 0
2, 148948, Note_on_c, 0, 58, 0
2, 148948, Note_on_c, 0, 62, 0
2, 148948, Note_on_c, 0, 65, 0
2, 148952, Note_on_c, 0, 70, 0
2, 149052, Note_on_c, 0, 76, 71
2, 149056, Note_on_c, 0, 70, 54
2, 149056, Note_on_c, 0, 53, 54
2, 149056, Note_on_c, 0, 58, 32
2, 149056, Note_on_c, 0, 65, 50
2, 149056, Note_on_c, 0, 62, 43
2, 149080, Note_on_c, 0, 53, 0
2, 149084, Note_on_c, 0, 58, 0
2, 149084, Note_on_c, 0, 62, 0
2, 149088, Note_on_c, 0, 70, 0
2, 149088, Note_on_c, 0, 65, 0
2, 149096, Note_on_c, 0, 76, 0
2, 149184, Note_on_c, 0, 75, 65
2, 149188, Note_on_c, 0, 70, 40
2, 149188, Note_on_c, 0, 65, 44
2, 149192, Note_on_c, 0, 53, 39
2, 149192, Note_on_c, 0, 62, 32
2, 149196, Note_on_c, 0, 58, 25
2, 149220, Note_on_c, 0, 58, 0
2, 149220, Note_on_c, 0, 53, 0
2, 149220, Note_on_c, 0, 62, 0
2, 149224, Note_on_c, 0, 70, 0
2, 149224, Note_on_c, 0, 65, 0
2, 149228, Note_on_c, 0, 75, 0
2, 149320, Note_on_c, 0, 74, 77
2, 149320, Note_on_c, 0, 65, 55
2, 149320, Note_on_c, 0, 70, 43
2, 149320, Note_on_c, 0, 58, 32
2, 149324, Note_on_c, 0, 53, 54
2, 149324, Note_on_c, 0, 62, 49
2, 149348, Note_on_c, 0, 62, 0
2, 149348, Note_on_c, 0, 58, 0
2, 149348, Note_on_c, 0, 65, 0
2, 149348, Note_on_c, 0, 53, 0
2, 149352, Note_on_c, 0, 70, 0
2, 149356, Note_on_c, 0, 74, 0
2, 149452, Note_on_c, 0, 77, 85
2, 149456, Note_on_c, 0, 53, 52
2, 149456, Note_on_c, 0, 65, 54
2, 149460, Note_on_c, 0, 62, 44
2, 149460, Note_on_c, 0, 58, 33
2, 149460, Note_on_c, 0, 70, 60
2, 149480, Note_on_c, 0, 53, 0
2, 149484, Note_on_c, 0, 62, 0
2, 149488, Note_on_c, 0, 58, 0
2, 149488, Note_on_c, 0, 77, 0
2, 149492, Note_on_c, 0, 65, 0
2, 149504, Note_on_c, 0, 70, 0
2, 149584, Note_on_c, 0, 62, 48
2, 149584, Note_on_c, 0, 76, 78
2, 149588, Note_on_c, 0, 58, 31
2, 149588, Note_on_c, 0, 65, 55
2, 149588, Note_on_c, 0, 70, 48
2, 149592, Note_on_c, 0, 53, 39
2, 149592, Control_c, 0, 64, 56
2, 149596, Control_c, 0, 64, 88
2, 149600, Control_c, 0, 64, 127
2, 149636, Note_on_c, 0, 76, 0
2, 149652, Note_on_c, 0, 75, 74
2, 149692, Note_on_c, 0, 70, 0
2, 149700, Note_on_c, 0, 75, 0
2, 149704, Control_c, 0, 64, 72
2, 149708, Control_c, 0, 64, 40
2, 149716, Note_on_c, 0, 74, 75
2, 149716, Control_c, 0, 64, 0
2, 149732, Note_on_c, 0, 62, 0
2, 149732, Control_c, 0, 64, 56
2, 149736, Note_on_c, 0, 65, 0
2, 149736, Control_c, 0, 64, 104
2, 149740, Note_on_c, 0, 58, 0
2, 149740, Note_on_c, 0, 53, 0
2, 149744, Control_c, 0, 64, 127
2, 149756, Note_on_c, 0, 74, 0
2, 149828, Control_c, 0, 64, 72
2, 149836, Control_c, 0, 64, 24
2, 149840, Control_c, 0, 64, 0
2, 149856, Note_on_c, 0, 30, 66
2, 149872, Control_c, 0, 64, 40
2, 149880, Note_on_c, 0, 30, 0
2, 149880, Control_c, 0, 64, 104
2, 149884, Control_c, 0, 64, 127
2, 150000, Note_on_c, 0, 82, 78
2, 150000, Control_c, 0, 64, 88
2, 150004, Note_on_c, 0, 70, 52
2, 150004, Control_c, 0, 64, 56
2, 150008, Note_on_c, 0, 73, 65
2, 150012, Note_on_c, 0, 54, 44
2, 150012, Note_on_c, 0, 64, 54
2, 150012, Note_on_c, 0, 61, 37
2, 150012, Control_c, 0, 64, 40
2, 150016, Control_c, 0, 64, 24
2, 150020, Control_c, 0, 64, 0
2, 150028, Note_on_c, 0, 61, 0
2, 150028, Note_on_c, 0, 54, 0
2, 150028, Note_on_c, 0, 64, 0
2, 150032, Note_on_c, 0, 70, 0
2, 150036, Note_on_c, 0, 73, 0
2, 150040, Note_on_c, 0, 82, 0
2, 150112, Control_c, 0, 64, 56
2, 150120, Control_c, 0, 64, 88
2, 150124, Control_c, 0, 64, 127
2, 150128, Note_on_c, 0, 80, 81
2, 150132, Note_on_c, 0, 73, 64
2, 150136, Note_on_c, 0, 54, 50
2, 150136, Note_on_c, 0, 70, 43
2, 150136, Note_on_c, 0, 64, 48
2, 150140, Note_on_c, 0, 61, 41
2, 150152, Note_on_c, 0, 61, 0
2, 150156, Note_on_c, 0, 70, 0
2, 150156, Note_on_c, 0, 54, 0
2, 150156, Note_on_c, 0, 64, 0
2, 150160, Control_c, 0, 64, 104
2, 150164, Note_on_c, 0, 80, 0
2, 150164, Note_on_c, 0, 73, 0
2, 150164, Control_c, 0, 64, 72
2, 150168, Control_c, 0, 64, 56
2, 150176, Control_c, 0, 64, 24
2, 150180, Control_c, 0, 64, 0
2, 150260, Note_on_c, 0, 79, 75
2, 150264, Note_on_c, 0, 70, 41
2, 150264, Note_on_c, 0, 54, 46
2, 150264, Note_on_c, 0, 64, 47
2, 150264, Note_on_c, 0, 61, 41
2, 150268, Note_on_c, 0, 73, 44
2, 150280, Note_on_c, 0, 73, 0
2, 150288, Note_on_c, 0, 64, 0
2, 150288, Note_on_c, 0, 70, 0
2, 150288, Note_on_c, 0, 61, 0
2, 150292, Note_on_c, 0, 54, 0
2, 150300, Note_on_c, 0, 79, 0
2, 150388, Note_on_c, 0, 78, 71
2, 150396, Note_on_c, 0, 70, 33
2, 150396, Note_on_c, 0, 73, 44
2, 150396, Note_on_c, 0, 54, 43
2, 150396, Note_on_c, 0, 64, 43
2, 150396, Note_on_c, 0, 61, 39
2, 150420, Note_on_c, 0, 61, 0
2, 150420, Note_on_c, 0, 54, 0
2, 150420, Note_on_c, 0, 64, 0
2, 150424, Note_on_c, 0, 73, 0
2, 150428, Note_on_c, 0, 70, 0
2, 150428, Note_on_c, 0, 78, 0
2, 150512, Note_on_c, 0, 82, 77
2, 150520, Note_on_c, 0, 70, 37
2, 150524, Note_on_c, 0, 73, 39
2, 150524, Note_on_c, 0, 54, 49
2, 150528, Note_on_c, 0, 64, 48
2, 150528, Note_on_c, 0, 61, 37
2, 150544, Note_on_c, 0, 61, 0
2, 150544, Note_on_c, 0, 64, 0
2, 150548, Note_on_c, 0, 73, 0
2, 150548, Note_on_c, 0, 54, 0
2, 150556, Note_on_c, 0, 70, 0
2, 150560, Note_on_c, 0, 82, 0
2, 150636, Note_on_c, 0, 80, 74
2, 150636, Control_c, 0, 64, 40
2, 150640, Control_c, 0, 64, 88
2, 150648, Note_on_c, 0, 54, 42
2, 150648, Note_on_c, 0, 70, 34
2, 150648, Note_on_c, 0, 64, 39
2, 150648, Control_c, 0, 64, 127
2, 150652, Note_on_c, 0, 61, 33
2, 150656, Note_on_c, 0, 73, 28
2, 150692, Note_on_c, 0, 80, 0
2, 150696, Note_on_c, 0, 73, 0
2, 150704, Note_on_c, 0, 79, 74
2, 150732, Note_on_c, 0, 64, 0
2, 150752, Note_on_c, 0, 61, 0
2, 150768, Note_on_c, 0, 79, 0
2, 150772, Note_on_c, 0, 54, 0
2, 150780, Note_on_c, 0, 78, 72
2, 150796, Note_on_c, 0, 70, 0
2, 150800, Note_on_c, 0, 78, 0
2, 150908, Control_c, 0, 64, 72
2, 150912, Control_c, 0, 64, 24
2, 150920, Note_on_c, 0, 29, 63
2, 150920, Control_c, 0, 64, 0
2, 150932, Note_on_c, 0, 29, 0
2, 150940, Control_c, 0, 64, 56
2, 150948, Control_c, 0, 64, 104
2, 150952, Control_c, 0, 64, 127
2, 151004, Control_c, 0, 64, 88
2, 151056, Control_c, 0, 64, 72
2, 151060, Note_on_c, 0, 78, 74
2, 151060, Control_c, 0, 64, 56
2, 151068, Note_on_c, 0, 66, 36
2, 151068, Control_c, 0, 64, 40
2, 151072, Note_on_c, 0, 72, 56
2, 151072, Note_on_c, 0, 63, 36
2, 151072, Note_on_c, 0, 69, 44
2, 151076, Note_on_c, 0, 57, 34
2, 151076, Control_c, 0, 64, 24
2, 151084, Control_c, 0, 64, 0
2, 151088, Note_on_c, 0, 72, 0
2, 151092, Note_on_c, 0, 69, 0
2, 151092, Note_on_c, 0, 63, 0
2, 151092, Note_on_c, 0, 57, 0
2, 151096, Note_on_c, 0, 66, 0
2, 151100, Note_on_c, 0, 78, 0
2, 151192, Note_on_c, 0, 77, 75
2, 151200, Note_on_c, 0, 72, 60
2, 151200, Note_on_c, 0, 65, 47
2, 151200, Note_on_c, 0, 69, 47
2, 151200, Note_on_c, 0, 57, 42
2, 151200, Note_on_c, 0, 63, 42
2, 151220, Note_on_c, 0, 72, 0
2, 151224, Note_on_c, 0, 57, 0
2, 151228, Note_on_c, 0, 65, 0
2, 151232, Note_on_c, 0, 63, 0
2, 151232, Note_on_c, 0, 69, 0
2, 151236, Note_on_c, 0, 77, 0
2, 151324, Note_on_c, 0, 76, 75
2, 151332, Note_on_c, 0, 65, 39
2, 151336, Note_on_c, 0, 69, 40
2, 151336, Note_on_c, 0, 63, 29
2, 151336, Note_on_c, 0, 57, 35
2, 151336, Note_on_c, 0, 72, 40
2, 151360, Note_on_c, 0, 57, 0
2, 151368, Note_on_c, 0, 63, 0
2, 151368, Note_on_c, 0, 65, 0
2, 151368, Note_on_c, 0, 72, 0
2, 151376, Note_on_c, 0, 69, 0
2, 151388, Note_on_c, 0, 76, 0
2, 151456, Note_on_c, 0, 75, 72
2, 151464, Note_on_c, 0, 63, 36
2, 151464, Note_on_c, 0, 57, 48
2, 151468, Note_on_c, 0, 65, 43
2, 151472, Note_on_c, 0, 72, 50
2, 151472, Note_on_c, 0, 69, 42
2, 151488, Note_on_c, 0, 72, 0
2, 151492, Note_on_c, 0, 69, 0
2, 151496, Note_on_c, 0, 57, 0
2, 151500, Note_on_c, 0, 65, 0
2, 151500, Note_on_c, 0, 63, 0
2, 151504, Note_on_c, 0, 75, 0
2, 151592, Note_on_c, 0, 72, 78
2, 151600, Note_on_c, 0, 60, 58
2, 151600, Note_on_c, 0, 69, 50
2, 151600, Note_on_c, 0, 65, 44
2, 151612, Note_on_c, 0, 63, 32
2, 151624, Note_on_c, 0, 63, 0
2, 151624, Note_on_c, 0, 69, 0
2, 151628, Note_on_c, 0, 60, 0
2, 151632, Note_on_c, 0, 65, 0
2, 151640, Note_on_c, 0, 72, 0
2, 151716, Control_c, 0, 64, 40
2, 151720, Control_c, 0, 64, 72
2, 151724, Control_c, 0, 64, 127
2, 151736, Note_on_c, 0, 79, 72
2, 151736, Note_on_c, 0, 72, 60
2, 151740, Note_on_c, 0, 63, 28
2, 151740, Note_on_c, 0, 65, 39
2, 151740, Note_on_c, 0, 69, 41
2, 151788, Note_on_c, 0, 79, 0
2, 151792, Note_on_c, 0, 72, 0
2, 151796, Note_on_c, 0, 78, 74
2, 151828, Note_on_c, 0, 69, 0
2, 151832, Note_on_c, 0, 65, 0
2, 151844, Note_on_c, 0, 63, 0
2, 151852, Note_on_c, 0, 78, 0
2, 151872, Note_on_c, 0, 77, 64
2, 151888, Note_on_c, 0, 77, 0
2, 151952, Control_c, 0, 64, 104
2, 151960, Control_c, 0, 64, 88
2, 151964, Control_c, 0, 64, 72
2, 151972, Control_c, 0, 64, 40
2, 151976, Control_c, 0, 64, 24
2, 151980, Control_c, 0, 64, 0
2, 152008, Note_on_c, 0, 34, 51
2, 152020, Control_c, 0, 64, 24
2, 152028, Control_c, 0, 64, 56
2, 152032, Control_c, 0, 64, 104
2, 152036, Note_on_c, 0, 34, 0
2, 152040, Control_c, 0, 64, 127
2, 152136, Control_c, 0, 64, 104
2, 152140, Control_c, 0, 64, 72
2, 152144, Control_c, 0, 64, 56
2, 152156, Note_on_c, 0, 62, 56
2, 152156, Note_on_c, 0, 58, 48
2, 152156, Note_on_c, 0, 74, 66
2, 152156, Note_on_c, 0, 65, 49
2, 152168, Control_c, 0, 64, 72
2, 152176, Control_c, 0, 64, 88
2, 152180, Note_on_c, 0, 65, 0
2, 152180, Control_c, 0, 64, 104
2, 152188, Note_on_c, 0, 74, 0
2, 152188, Note_on_c, 0, 58, 0
2, 152188, Control_c, 0, 64, 127
2, 152196, Note_on_c, 0, 62, 0
2, 152216, Note_on_c, 0, 66, 65
2, 152252, Note_on_c, 0, 66, 0
2, 152260, Control_c, 0, 64, 104
2, 152264, Control_c, 0, 64, 88
2, 152272, Control_c, 0, 64, 40
2, 152276, Control_c, 0, 64, 24
2, 152284, Note_on_c, 0, 62, 52
2, 152284, Note_on_c, 0, 65, 52
2, 152284, Control_c, 0, 64, 0
2, 152288, Note_on_c, 0, 72, 71
2, 152292, Note_on_c, 0, 53, 43
2, 152308, Note_on_c, 0, 53, 0
2, 152320, Note_on_c, 0, 62, 0
2, 152320, Note_on_c, 0, 65, 0
2, 152324, Note_on_c, 0, 72, 0
2, 152356, Note_on_c, 0, 67, 57
2, 152388, Note_on_c, 0, 67, 0
2, 152416, Note_on_c, 0, 70, 63
2, 152416, Note_on_c, 0, 65, 52
2, 152416, Note_on_c, 0, 62, 57
2, 152420, Note_on_c, 0, 58, 42
2, 152444, Note_on_c, 0, 58, 0
2, 152444, Note_on_c, 0, 65, 0
2, 152460, Note_on_c, 0, 62, 0
2, 152460, Note_on_c, 0, 70, 0
2, 152480, Note_on_c, 0, 66, 65
2, 152512, Note_on_c, 0, 66, 0
2, 152544, Note_on_c, 0, 70, 66
2, 152544, Note_on_c, 0, 62, 58
2, 152548, Note_on_c, 0, 65, 54
2, 152552, Note_on_c, 0, 53, 48
2, 152568, Note_on_c, 0, 53, 0
2, 152580, Note_on_c, 0, 65, 0
2, 152584, Note_on_c, 0, 70, 0
2, 152588, Note_on_c, 0, 62, 0
2, 152612, Note_on_c, 0, 67, 66
2, 152648, Note_on_c, 0, 67, 0
2, 152684, Note_on_c, 0, 74, 67
2, 152684, Note_on_c, 0, 62, 49
2, 152688, Note_on_c, 0, 58, 42
2, 152692, Note_on_c, 0, 65, 41
2, 152716, Note_on_c, 0, 65, 0
2, 152720, Note_on_c, 0, 58, 0
2, 152728, Note_on_c, 0, 74, 0
2, 152740, Note_on_c, 0, 62, 0
2, 152744, Note_on_c, 0, 66, 54
2, 152780, Note_on_c, 0, 66, 0
2, 152824, Note_on_c, 0, 72, 63
2, 152824, Note_on_c, 0, 65, 32
2, 152828, Note_on_c, 0, 62, 37
2, 152832, Note_on_c, 0, 53, 19
2, 152864, Control_c, 0, 64, 24
2, 152868, Note_on_c, 0, 72, 0
2, 152868, Control_c, 0, 64, 40
2, 152872, Control_c, 0, 64, 56
2, 152880, Control_c, 0, 64, 72
2, 152884, Control_c, 0, 64, 88
2, 152888, Note_on_c, 0, 71, 63
2, 152900, Control_c, 0, 64, 104
2, 152904, Note_on_c, 0, 65, 0
2, 152924, Note_on_c, 0, 53, 0
2, 152936, Note_on_c, 0, 71, 0
2, 152936, Control_c, 0, 64, 127
2, 152948, Note_on_c, 0, 62, 0
2, 152956, Note_on_c, 0, 70, 52
2, 152980, Note_on_c, 0, 70, 0
2, 153028, Control_c, 0, 64, 104
2, 153032, Control_c, 0, 64, 88
2, 153040, Control_c, 0, 64, 56
2, 153044, Control_c, 0, 64, 40
2, 153048, Control_c, 0, 64, 0
2, 153076, Note_on_c, 0, 32, 57
2, 153096, Control_c, 0, 64, 40
2, 153100, Note_on_c, 0, 32, 0
2, 153100, Control_c, 0, 64, 72
2, 153104, Control_c, 0, 64, 104
2, 153112, Control_c, 0, 64, 127
2, 153204, Control_c, 0, 64, 104
2, 153208, Control_c, 0, 64, 72
2, 153212, Control_c, 0, 64, 56
2, 153220, Control_c, 0, 64, 40
2, 153224, Note_on_c, 0, 77, 85
2, 153224, Control_c, 0, 64, 0
2, 153228, Note_on_c, 0, 70, 58
2, 153228, Note_on_c, 0, 65, 52
2, 153236, Note_on_c, 0, 62, 52
2, 153248, Note_on_c, 0, 62, 0
2, 153256, Note_on_c, 0, 70, 0
2, 153264, Note_on_c, 0, 77, 0
2, 153272, Note_on_c, 0, 65, 0
2, 153288, Note_on_c, 0, 71, 75
2, 153332, Note_on_c, 0, 71, 0
2, 153356, Note_on_c, 0, 56, 55
2, 153356, Note_on_c, 0, 76, 85
2, 153360, Note_on_c, 0, 70, 33
2, 153360, Note_on_c, 0, 65, 52
2, 153388, Note_on_c, 0, 56, 0
2, 153396, Note_on_c, 0, 70, 0
2, 153400, Note_on_c, 0, 76, 0
2, 153412, Note_on_c, 0, 65, 0
2, 153420, Note_on_c, 0, 72, 85
2, 153456, Note_on_c, 0, 72, 0
2, 153484, Note_on_c, 0, 75, 77
2, 153484, Note_on_c, 0, 70, 56
2, 153492, Note_on_c, 0, 65, 54
2, 153496, Note_on_c, 0, 62, 39
2, 153512, Note_on_c, 0, 62, 0
2, 153520, Note_on_c, 0, 70, 0
2, 153528, Note_on_c, 0, 75, 0
2, 153532, Note_on_c, 0, 65, 0
2, 153548, Note_on_c, 0, 71, 78
2, 153604, Note_on_c, 0, 71, 0
2, 153620, Note_on_c, 0, 74, 71
2, 153620, Note_on_c, 0, 56, 40
2, 153624, Note_on_c, 0, 65, 52
2, 153656, Note_on_c, 0, 56, 0
2, 153656, Note_on_c, 0, 74, 0
2, 153672, Note_on_c, 0, 65, 0
2, 153680, Note_on_c, 0, 72, 85
2, 153720, Note_on_c, 0, 72, 0
2, 153744, Note_on_c, 0, 70, 46
2, 153748, Note_on_c, 0, 77, 86
2, 153752, Note_on_c, 0, 62, 47
2, 153752, Note_on_c, 0, 65, 41
2, 153764, Note_on_c, 0, 62, 0
2, 153776, Note_on_c, 0, 70, 0
2, 153788, Note_on_c, 0, 77, 0
2, 153800, Note_on_c, 0, 65, 0
2, 153812, Note_on_c, 0, 71, 78
2, 153868, Note_on_c, 0, 71, 0
2, 153884, Note_on_c, 0, 56, 42
2, 153884, Note_on_c, 0, 76, 73
2, 153888, Note_on_c, 0, 65, 56
2, 153888, Note_on_c, 0, 70, 25
2, 153928, Note_on_c, 0, 76, 0
2, 153944, Note_on_c, 0, 75, 71
2, 153956, Note_on_c, 0, 70, 0
2, 153964, Control_c, 0, 64, 24
2, 153968, Note_on_c, 0, 56, 0
2, 153968, Control_c, 0, 64, 56
2, 153976, Control_c, 0, 64, 72
2, 153980, Control_c, 0, 64, 88
2, 153988, Control_c, 0, 64, 104
2, 153992, Note_on_c, 0, 75, 0
2, 154008, Control_c, 0, 64, 127
2, 154012, Note_on_c, 0, 65, 0
2, 154024, Note_on_c, 0, 74, 71
2, 154048, Note_on_c, 0, 74, 0
2, 154068, Control_c, 0, 64, 104
2, 154072, Control_c, 0, 64, 72
2, 154076, Control_c, 0, 64, 56
2, 154084, Control_c, 0, 64, 40
2, 154088, Control_c, 0, 64, 24
2, 154092, Control_c, 0, 64, 0
2, 154152, Note_on_c, 0, 30, 69
2, 154156, Control_c, 0, 64, 24
2, 154164, Control_c, 0, 64, 56
2, 154168, Control_c, 0, 64, 88
2, 154172, Control_c, 0, 64, 104
2, 154176, Note_on_c, 0, 30, 0
2, 154180, Control_c, 0, 64, 127
2, 154244, Control_c, 0, 64, 104
2, 154248, Control_c, 0, 64, 72
2, 154252, Control_c, 0, 64, 56
2, 154260, Control_c, 0, 64, 40
2, 154264, Control_c, 0, 64, 24
2, 154272, Control_c, 0, 64, 0
2, 154292, Note_on_c, 0, 82, 80
2, 154300, Note_on_c, 0, 70, 55
2, 154304, Note_on_c, 0, 73, 63
2, 154304, Note_on_c, 0, 64, 54
2, 154308, Note_on_c, 0, 54, 52
2, 154308, Note_on_c, 0, 61, 48
2, 154332, Note_on_c, 0, 54, 0
2, 154332, Note_on_c, 0, 70, 0
2, 154336, Note_on_c, 0, 64, 0
2, 154336, Note_on_c, 0, 73, 0
2, 154340, Note_on_c, 0, 82, 0
2, 154340, Note_on_c, 0, 61, 0
2, 154440, Note_on_c, 0, 80, 74
2, 154448, Note_on_c, 0, 70, 40
2, 154452, Note_on_c, 0, 73, 48
2, 154452, Control_c, 0, 64, 24
2, 154456, Note_on_c, 0, 64, 41
2, 154460, Note_on_c, 0, 61, 29
2, 154460, Control_c, 0, 64, 56
2, 154464, Note_on_c, 0, 58, 31
2, 154464, Control_c, 0, 64, 104
2, 154468, Control_c, 0, 64, 127
2, 154488, Note_on_c, 0, 80, 0
2, 154496, Note_on_c, 0, 73, 0
2, 154504, Note_on_c, 0, 64, 0
2, 154504, Note_on_c, 0, 79, 75
2, 154512, Note_on_c, 0, 61, 0
2, 154528, Note_on_c, 0, 58, 0
2, 154540, Note_on_c, 0, 70, 0
2, 154552, Note_on_c, 0, 79, 0
2, 154572, Note_on_c, 0, 78, 65
2, 154596, Note_on_c, 0, 78, 0
2, 154636, Control_c, 0, 64, 88
2, 154640, Control_c, 0, 64, 72
2, 154644, Control_c, 0, 64, 56
2, 154652, Control_c, 0, 64, 24
2, 154656, Control_c, 0, 64, 0
2, 154700, Note_on_c, 0, 35, 75
2, 154712, Control_c, 0, 64, 72
2, 154720, Control_c, 0, 64, 127
2, 154724, Note_on_c, 0, 35, 0
2, 154772, Control_c, 0, 64, 88
2, 154776, Control_c, 0, 64, 56
2, 154780, Control_c, 0, 64, 40
2, 154788, Control_c, 0, 64, 0
2, 154844, Note_on_c, 0, 87, 88
2, 154844, Control_c, 0, 64, 24
2, 154848, Note_on_c, 0, 75, 55
2, 154848, Note_on_c, 0, 78, 64
2, 154852, Note_on_c, 0, 59, 51
2, 154852, Note_on_c, 0, 69, 52
2, 154852, Note_on_c, 0, 66, 50
2, 154852, Control_c, 0, 64, 72
2, 154856, Control_c, 0, 64, 104
2, 154860, Control_c, 0, 64, 127
2, 154876, Note_on_c, 0, 66, 0
2, 154876, Note_on_c, 0, 59, 0
2, 154876, Note_on_c, 0, 75, 0
2, 154876, Note_on_c, 0, 69, 0
2, 154884, Note_on_c, 0, 78, 0
2, 154884, Control_c, 0, 64, 104
2, 154892, Note_on_c, 0, 87, 0
2, 154892, Control_c, 0, 64, 88
2, 154896, Control_c, 0, 64, 72
2, 154900, Control_c, 0, 64, 56
2, 154904, Control_c, 0, 64, 24
2, 154912, Control_c, 0, 64, 0
2, 154980, Control_c, 0, 64, 24
2, 154984, Note_on_c, 0, 85, 85
2, 154984, Note_on_c, 0, 75, 46
2, 154984, Note_on_c, 0, 78, 52
2, 154988, Note_on_c, 0, 69, 56
2, 154988, Note_on_c, 0, 66, 40
2, 154988, Control_c, 0, 64, 72
2, 154992, Control_c, 0, 64, 104
2, 154996, Note_on_c, 0, 63, 42
2, 155000, Control_c, 0, 64, 49
2, 155020, Note_on_c, 0, 85, 0
2, 155036, Note_on_c, 0, 78, 0
2, 155052, Note_on_c, 0, 84, 83
2, 155100, Note_on_c, 0, 84, 0
2, 155124, Note_on_c, 0, 83, 83
2, 155152, Note_on_c, 0, 75, 0
2, 155156, Note_on_c, 0, 83, 0
2, 155160, Note_on_c, 0, 63, 0
2, 155164, Note_on_c, 0, 69, 0
2, 155164, Note_on_c, 0, 66, 0
2, 155264, Note_on_c, 0, 41, 62
2, 155264, Note_on_c, 0, 29, 58
2, 155296, Note_on_c, 0, 29, 0
2, 155312, Note_on_c, 0, 41, 0
2, 155412, Note_on_c, 0, 93, 95
2, 155412, Note_on_c, 0, 87, 77
2, 155416, Note_on_c, 0, 84, 72
2, 155416, Note_on_c, 0, 53, 70
2, 155424, Note_on_c, 0, 84, 0
2, 155428, Note_on_c, 0, 87, 0
2, 155440, Note_on_c, 0, 93, 0
2, 155460, Note_on_c, 0, 53, 0
2, 155480, Note_on_c, 0, 52, 59
2, 155540, Note_on_c, 0, 54, 57
2, 155540, Note_on_c, 0, 92, 86
2, 155544, Note_on_c, 0, 87, 58
2, 155544, Note_on_c, 0, 84, 60
2, 155552, Note_on_c, 0, 52, 0
2, 155556, Note_on_c, 0, 87, 0
2, 155556, Note_on_c, 0, 84, 0
2, 155572, Note_on_c, 0, 92, 0
2, 155580, Note_on_c, 0, 54, 0
2, 155604, Note_on_c, 0, 53, 63
2, 155656, Note_on_c, 0, 53, 0
2, 155672, Note_on_c, 0, 91, 89
2, 155672, Note_on_c, 0, 87, 62
2, 155676, Note_on_c, 0, 84, 65
2, 155680, Note_on_c, 0, 55, 31
2, 155688, Note_on_c, 0, 84, 0
2, 155688, Note_on_c, 0, 87, 0
2, 155696, Note_on_c, 0, 91, 0
2, 155716, Note_on_c, 0, 55, 0
2, 155732, Note_on_c, 0, 54, 56
2, 155792, Note_on_c, 0, 54, 0
2, 155804, Note_on_c, 0, 90, 79
2, 155804, Note_on_c, 0, 56, 44
2, 155804, Note_on_c, 0, 87, 66
2, 155808, Note_on_c, 0, 84, 60
2, 155820, Note_on_c, 0, 84, 0
2, 155824, Note_on_c, 0, 87, 0
2, 155832, Note_on_c, 0, 90, 0
2, 155856, Note_on_c, 0, 56, 0
2, 155872, Note_on_c, 0, 55, 55
2, 155928, Note_on_c, 0, 55, 0
2, 155936, Note_on_c, 0, 89, 92
2, 155940, Note_on_c, 0, 81, 66
2, 155940, Note_on_c, 0, 84, 69
2, 155940, Note_on_c, 0, 57, 48
2, 155948, Note_on_c, 0, 84, 0
2, 155960, Note_on_c, 0, 89, 0
2, 155976, Note_on_c, 0, 57, 0
2, 156000, Note_on_c, 0, 56, 48
2, 156052, Note_on_c, 0, 56, 0
2, 156064, Note_on_c, 0, 88, 83
2, 156064, Note_on_c, 0, 58, 46
2, 156068, Note_on_c, 0, 84, 67
2, 156072, Note_on_c, 0, 81, 56
2, 156080, Note_on_c, 0, 84, 0
2, 156084, Note_on_c, 0, 81, 0
2, 156088, Note_on_c, 0, 88, 0
2, 156112, Note_on_c, 0, 58, 0
2, 156128, Note_on_c, 0, 57, 47
2, 156184, Note_on_c, 0, 57, 0
2, 156196, Note_on_c, 0, 87, 71
2, 156200, Note_on_c, 0, 84, 64
2, 156204, Note_on_c, 0, 59, 33
2, 156204, Note_on_c, 0, 81, 41
2, 156212, Note_on_c, 0, 84, 0
2, 156220, Note_on_c, 0, 81, 0
2, 156224, Note_on_c, 0, 87, 0
2, 156248, Note_on_c, 0, 59, 0
2, 156260, Note_on_c, 0, 58, 42
2, 156312, Note_on_c, 0, 58, 0
2, 156324, Note_on_c, 0, 86, 64
2, 156328, Note_on_c, 0, 78, 42
2, 156328, Note_on_c, 0, 60, 43
2, 156328, Note_on_c, 0, 81, 48
2, 156344, Note_on_c, 0, 81, 0
2, 156348, Note_on_c, 0, 86, 0
2, 156352, Note_on_c, 0, 78, 0
2, 156372, Note_on_c, 0, 60, 0
2, 156392, Note_on_c, 0, 59, 46
2, 156440, Note_on_c, 0, 59, 0
2, 156456, Note_on_c, 0, 85, 60
2, 156456, Note_on_c, 0, 81, 62
2, 156456, Note_on_c, 0, 61, 41
2, 156460, Note_on_c, 0, 78, 42
2, 156476, Note_on_c, 0, 78, 0
2, 156476, Note_on_c, 0, 81, 0
2, 156484, Note_on_c, 0, 85, 0
2, 156500, Note_on_c, 0, 61, 0
2, 156520, Note_on_c, 0, 60, 60
2, 156560, Note_on_c, 0, 60, 0
2, 156588, Note_on_c, 0, 84, 69
2, 156588, Note_on_c, 0, 81, 54
2, 156592, Note_on_c, 0, 62, 43
2, 156596, Note_on_c, 0, 78, 36
2, 156608, Note_on_c, 0, 78, 0
2, 156608, Note_on_c, 0, 81, 0
2, 156608, Note_on_c, 0, 84, 0
2, 156612, Note_on_c, 0, 62, 0
2, 156652, Note_on_c, 0, 61, 42
2, 156696, Note_on_c, 0, 61, 0
2, 156712, Note_on_c, 0, 63, 42
2, 156712, Note_on_c, 0, 83, 67
2, 156716, Note_on_c, 0, 78, 41
2, 156716, Note_on_c, 0, 75, 43
2, 156736, Note_on_c, 0, 75, 0
2, 156740, Note_on_c, 0, 83, 0
2, 156740, Note_on_c, 0, 78, 0
2, 156756, Note_on_c, 0, 63, 0
2, 156772, Note_on_c, 0, 62, 55
2, 156828, Note_on_c, 0, 62, 0
2, 156844, Note_on_c, 0, 78, 44
2, 156844, Note_on_c, 0, 82, 48
2, 156848, Note_on_c, 0, 75, 33
2, 156852, Note_on_c, 0, 64, 35
2, 156868, Note_on_c, 0, 75, 0
2, 156868, Note_on_c, 0, 82, 0
2, 156868, Note_on_c, 0, 78, 0
2, 156876, Note_on_c, 0, 64, 0
2, 156904, Note_on_c, 0, 63, 37
2, 156952, Note_on_c, 0, 63, 0
2, 156968, Note_on_c, 0, 81, 59
2, 156972, Note_on_c, 0, 75, 42
2, 156976, Note_on_c, 0, 65, 35
2, 156980, Note_on_c, 0, 72, 43
2, 156992, Note_on_c, 0, 72, 0
2, 156992, Note_on_c, 0, 81, 0
2, 156996, Note_on_c, 0, 75, 0
2, 157016, Note_on_c, 0, 65, 0
2, 157040, Note_on_c, 0, 64, 42
2, 157072, Note_on_c, 0, 64, 0
2, 157100, Note_on_c, 0, 66, 37
2, 157104, Note_on_c, 0, 75, 43
2, 157108, Note_on_c, 0, 80, 49
2, 157112, Note_on_c, 0, 72, 34
2, 157124, Note_on_c, 0, 72, 0
2, 157124, Note_on_c, 0, 80, 0
2, 157128, Note_on_c, 0, 75, 0
2, 157144, Note_on_c, 0, 66, 0
2, 157164, Note_on_c, 0, 65, 46
2, 157192, Note_on_c, 0, 65, 0
2, 157232, Note_on_c, 0, 79, 59
2, 157232, Note_on_c, 0, 75, 39
2, 157236, Note_on_c, 0, 67, 28
2, 157240, Note_on_c, 0, 72, 29
2, 157252, Note_on_c, 0, 72, 0
2, 157256, Note_on_c, 0, 75, 0
2, 157256, Note_on_c, 0, 67, 0
2, 157256, Note_on_c, 0, 79, 0
2, 157292, Note_on_c, 0, 66, 37
2, 157332, Note_on_c, 0, 66, 0
2, 157356, Note_on_c, 0, 68, 33
2, 157360, Note_on_c, 0, 78, 58
2, 157364, Note_on_c, 0, 72, 47
2, 157368, Note_on_c, 0, 75, 39
2, 157380, Note_on_c, 0, 75, 0
2, 157380, Note_on_c, 0, 72, 0
2, 157384, Note_on_c, 0, 78, 0
2, 157404, Note_on_c, 0, 68, 0
2, 157424, Note_on_c, 0, 66, 28
2, 157476, Note_on_c, 0, 66, 0
2, 157484, Note_on_c, 0, 77, 62
2, 157492, Note_on_c, 0, 75, 39
2, 157492, Note_on_c, 0, 69, 39
2, 157496, Note_on_c, 0, 72, 32
2, 157508, Note_on_c, 0, 72, 0
2, 157512, Note_on_c, 0, 75, 0
2, 157512, Note_on_c, 0, 77, 0
2, 157524, Note_on_c, 0, 81, 0
2, 157536, Note_on_c, 0, 69, 0
2, 157556, Note_on_c, 0, 68, 28
2, 157604, Note_on_c, 0, 68, 0
2, 157612, Note_on_c, 0, 79, 64
2, 157612, Note_on_c, 0, 75, 39
2, 157612, Note_on_c, 0, 70, 46
2, 157632, Note_on_c, 0, 75, 0
2, 157640, Note_on_c, 0, 79, 0
2, 157652, Note_on_c, 0, 70, 0
2, 157672, Note_on_c, 0, 69, 34
2, 157732, Note_on_c, 0, 69, 0
2, 157740, Note_on_c, 0, 77, 66
2, 157740, Note_on_c, 0, 72, 46
2, 157744, Note_on_c, 0, 75, 48
2, 157764, Note_on_c, 0, 75, 0
2, 157764, Note_on_c, 0, 77, 0
2, 157780, Note_on_c, 0, 72, 0
2, 157804, Note_on_c, 0, 69, 39
2, 157860, Note_on_c, 0, 69, 0
2, 157876, Note_on_c, 0, 78, 57
2, 157880, Note_on_c, 0, 75, 50
2, 157880, Note_on_c, 0, 68, 35
2, 157900, Note_on_c, 0, 75, 0
2, 157912, Note_on_c, 0, 78, 0
2, 157920, Note_on_c, 0, 68, 0
2, 157940, Note_on_c, 0, 71, 31
2, 157988, Note_on_c, 0, 71, 0
2, 158004, Note_on_c, 0, 77, 63
2, 158004, Note_on_c, 0, 69, 47
2, 158004, Note_on_c, 0, 75, 35
2, 158024, Note_on_c, 0, 69, 0
2, 158032, Note_on_c, 0, 75, 0
2, 158036, Note_on_c, 0, 77, 0
2, 158072, Note_on_c, 0, 72, 34
2, 158116, Note_on_c, 0, 72, 0
2, 158128, Note_on_c, 0, 75, 52
2, 158128, Note_on_c, 0, 79, 64
2, 158128, Note_on_c, 0, 67, 36
2, 158148, Note_on_c, 0, 79, 0
2, 158152, Note_on_c, 0, 75, 0
2, 158168, Note_on_c, 0, 67, 0
2, 158196, Note_on_c, 0, 70, 35
2, 158256, Note_on_c, 0, 70, 0
2, 158256, Note_on_c, 0, 77, 66
2, 158260, Note_on_c, 0, 75, 46
2, 158268, Note_on_c, 0, 69, 36
2, 158284, Note_on_c, 0, 75, 0
2, 158284, Note_on_c, 0, 77, 0
2, 158288, Note_on_c, 0, 69, 0
2, 158324, Note_on_c, 0, 72, 36
2, 158340, Note_on_c, 0, 72, 0
2, 158388, Note_on_c, 0, 78, 62
2, 158392, Note_on_c, 0, 75, 44
2, 158396, Note_on_c, 0, 68, 33
2, 158412, Note_on_c, 0, 75, 0
2, 158420, Note_on_c, 0, 78, 0
2, 158444, Note_on_c, 0, 68, 0
2, 158452, Note_on_c, 0, 71, 43
2, 158480, Note_on_c, 0, 71, 0
2, 158516, Note_on_c, 0, 77, 67
2, 158520, Note_on_c, 0, 75, 49
2, 158524, Note_on_c, 0, 69, 37
2, 158540, Note_on_c, 0, 77, 0
2, 158544, Note_on_c, 0, 75, 0
2, 158572, Note_on_c, 0, 69, 0
2, 158584, Note_on_c, 0, 72, 47
2, 158640, Note_on_c, 0, 72, 0
2, 158652, Note_on_c, 0, 75, 46
2, 158656, Note_on_c, 0, 79, 60
2, 158656, Note_on_c, 0, 68, 36
2, 158680, Note_on_c, 0, 79, 0
2, 158684, Note_on_c, 0, 75, 0
2, 158704, Note_on_c, 0, 68, 0
2, 158724, Note_on_c, 0, 71, 28
2, 158768, Note_on_c, 0, 71, 0
2, 158784, Note_on_c, 0, 77, 66
2, 158788, Note_on_c, 0, 75, 48
2, 158788, Note_on_c, 0, 69, 31
2, 158808, Note_on_c, 0, 77, 0
2, 158812, Note_on_c, 0, 75, 0
2, 158828, Note_on_c, 0, 69, 0
2, 158844, Note_on_c, 0, 72, 50
2, 158864, Note_on_c, 0, 72, 0
2, 158904, Note_on_c, 0, 78, 62
2, 158908, Note_on_c, 0, 75, 48
2, 158912, Note_on_c, 0, 68, 34
2, 158928, Note_on_c, 0, 75, 0
2, 158932, Note_on_c, 0, 78, 0
2, 158960, Note_on_c, 0, 68, 0
2, 158972, Note_on_c, 0, 71, 39
2, 159016, Note_on_c, 0, 71, 0
2, 159036, Note_on_c, 0, 77, 62
2, 159040, Note_on_c, 0, 75, 33
2, 159044, Note_on_c, 0, 69, 25
2, 159060, Note_on_c, 0, 75, 0
2, 159060, Note_on_c, 0, 77, 0
2, 159080, Note_on_c, 0, 69, 0
2, 159096, Note_on_c, 0, 72, 44
2, 159140, Note_on_c, 0, 72, 0
2, 159160, Note_on_c, 0, 75, 46
2, 159164, Note_on_c, 0, 79, 52
2, 159168, Note_on_c, 0, 68, 28
2, 159184, Note_on_c, 0, 79, 0
2, 159188, Note_on_c, 0, 75, 0
2, 159212, Note_on_c, 0, 68, 0
2, 159240, Note_on_c, 0, 71, 24
2, 159280, Note_on_c, 0, 71, 0
2, 159292, Note_on_c, 0, 77, 60
2, 159300, Note_on_c, 0, 75, 33
2, 159300, Note_on_c, 0, 69, 27
2, 159320, Note_on_c, 0, 75, 0
2, 159320, Note_on_c, 0, 77, 0
2, 159340, Note_on_c, 0, 69, 0
2, 159356, Note_on_c, 0, 72, 42
2, 159376, Note_on_c, 0, 72, 0
2, 159428, Note_on_c, 0, 77, 54
2, 159440, Note_on_c, 0, 70, 28
2, 159444, Note_on_c, 0, 74, 34
2, 159516, Note_on_c, 0, 70, 0
2, 159516, Note_on_c, 0, 74, 1
2, 159520, Note_on_c, 0, 74, 0
2, 159520, Note_on_c, 0, 77, 0
2, 159568, Note_on_c, 0, 74, 0
2, 159704, Note_on_c, 0, 62, 50
2, 159764, Note_on_c, 0, 62, 0
2, 159780, Note_on_c, 0, 63, 34
2, 159828, Note_on_c, 0, 63, 0
2, 159840, Note_on_c, 0, 62, 57
2, 159880, Note_on_c, 0, 62, 0
2, 159900, Note_on_c, 0, 64, 54
2, 159956, Note_on_c, 0, 64, 0
2, 159968, Note_on_c, 0, 65, 63
2, 159968, Note_on_c, 0, 59, 37
2, 159972, Note_on_c, 0, 56, 29
2, 159976, Note_on_c, 0, 50, 37
2, 160028, Note_on_c, 0, 65, 0
2, 160032, Note_on_c, 0, 66, 52
2, 160084, Note_on_c, 0, 66, 0
2, 160100, Note_on_c, 0, 65, 52
2, 160148, Note_on_c, 0, 65, 0
2, 160156, Note_on_c, 0, 67, 66
2, 160220, Note_on_c, 0, 67, 0
2, 160224, Note_on_c, 0, 68, 51
2, 160272, Note_on_c, 0, 68, 0
2, 160288, Note_on_c, 0, 69, 54
2, 160332, Note_on_c, 0, 69, 0
2, 160348, Note_on_c, 0, 68, 56
2, 160400, Note_on_c, 0, 68, 0
2, 160412, Note_on_c, 0, 70, 58
2, 160460, Note_on_c, 0, 70, 0
2, 160476, Note_on_c, 0, 71, 62
2, 160500, Note_on_c, 0, 59, 0
2, 160520, Note_on_c, 0, 71, 0
2, 160540, Note_on_c, 0, 72, 64
2, 160568, Note_on_c, 0, 50, 0
2, 160580, Note_on_c, 0, 72, 0
2, 160600, Note_on_c, 0, 56, 0
2, 160600, Note_on_c, 0, 71, 56
2, 160600, Note_on_c, 0, 62, 62
2, 160644, Note_on_c, 0, 71, 0
2, 160668, Note_on_c, 0, 73, 52
2, 160724, Note_on_c, 0, 73, 0
2, 160728, Note_on_c, 0, 62, 0
2, 160736, Note_on_c, 0, 61, 37
2, 160736, Note_on_c, 0, 74, 74
2, 160736, Note_on_c, 0, 56, 35
2, 160740, Note_on_c, 0, 53, 48
2, 160792, Note_on_c, 0, 74, 0
2, 160796, Note_on_c, 0, 75, 74
2, 160848, Note_on_c, 0, 75, 0
2, 160852, Note_on_c, 0, 61, 0
2, 160860, Note_on_c, 0, 74, 70
2, 160864, Note_on_c, 0, 60, 57
2, 160876, Note_on_c, 0, 56, 0
2, 160876, Note_on_c, 0, 53, 0
2, 160912, Note_on_c, 0, 74, 0
2, 160924, Note_on_c, 0, 76, 65
2, 160964, Note_on_c, 0, 60, 0
2, 160984, Note_on_c, 0, 76, 0
2, 160992, Note_on_c, 0, 77, 75
2, 160992, Note_on_c, 0, 59, 36
2, 160996, Note_on_c, 0, 56, 41
2, 161000, Note_on_c, 0, 50, 55
2, 161048, Note_on_c, 0, 77, 0
2, 161052, Note_on_c, 0, 78, 60
2, 161104, Note_on_c, 0, 78, 0
2, 161108, Note_on_c, 0, 50, 0
2, 161120, Note_on_c, 0, 56, 0
2, 161120, Note_on_c, 0, 77, 73
2, 161124, Note_on_c, 0, 59, 0
2, 161124, Note_on_c, 0, 62, 54
2, 161168, Note_on_c, 0, 77, 0
2, 161180, Note_on_c, 0, 79, 74
2, 161240, Note_on_c, 0, 62, 0
2, 161240, Note_on_c, 0, 61, 46
2, 161244, Note_on_c, 0, 79, 0
2, 161248, Note_on_c, 0, 80, 64
2, 161248, Note_on_c, 0, 56, 42
2, 161264, Note_on_c, 0, 53, 28
2, 161296, Note_on_c, 0, 80, 0
2, 161296, Note_on_c, 0, 61, 0
2, 161304, Note_on_c, 0, 81, 69
2, 161312, Note_on_c, 0, 60, 56
2, 161368, Note_on_c, 0, 60, 0
2, 161368, Note_on_c, 0, 53, 0
2, 161368, Note_on_c, 0, 80, 57
2, 161372, Note_on_c, 0, 56, 0
2, 161372, Note_on_c, 0, 59, 59
2, 161416, Note_on_c, 0, 80, 0
2, 161420, Note_on_c, 0, 59, 0
2, 161428, Note_on_c, 0, 83, 73
2, 161480, Note_on_c, 0, 83, 0
2, 161496, Note_on_c, 0, 86, 67
2, 161500, Note_on_c, 0, 62, 55
2, 161504, Note_on_c, 0, 57, 47
2, 161508, Note_on_c, 0, 54, 36
2, 161508, Note_on_c, 0, 50, 48
2, 161552, Note_on_c, 0, 86, 0
2, 161560, Note_on_c, 0, 81, 0
2, 161560, Note_on_c, 0, 87, 66
2, 161604, Note_on_c, 0, 87, 0
2, 161616, Note_on_c, 0, 86, 71
2, 161680, Note_on_c, 0, 86, 0
2, 161684, Note_on_c, 0, 89, 72
2, 161732, Note_on_c, 0, 57, 0
2, 161736, Note_on_c, 0, 50, 0
2, 161740, Note_on_c, 0, 89, 0
2, 161740, Note_on_c, 0, 54, 0
2, 161744, Note_on_c, 0, 62, 0
2, 161748, Note_on_c, 0, 90, 58
2, 161796, Note_on_c, 0, 90, 0
2, 161804, Note_on_c, 0, 91, 71
2, 161860, Note_on_c, 0, 91, 0
2, 161864, Note_on_c, 0, 90, 59
2, 161924, Note_on_c, 0, 90, 0
2, 161924, Note_on_c, 0, 92, 69
2, 161976, Note_on_c, 0, 92, 0
2, 161984, Note_on_c, 0, 93, 72
2, 162044, Note_on_c, 0, 93, 0
2, 162048, Note_on_c, 0, 94, 64
2, 162104, Note_on_c, 0, 94, 0
2, 162112, Note_on_c, 0, 93, 62
2, 162172, Note_on_c, 0, 93, 0
2, 162172, Note_on_c, 0, 97, 71
2, 162240, Note_on_c, 0, 97, 0
2, 162248, Note_on_c, 0, 98, 81
2, 162300, Note_on_c, 0, 98, 0
2, 162308, Note_on_c, 0, 97, 77
2, 162368, Note_on_c, 0, 97, 0
2, 162376, Note_on_c, 0, 98, 80
2, 162424, Note_on_c, 0, 98, 0
2, 162432, Note_on_c, 0, 97, 72
2, 162448, Note_on_c, 0, 97, 0
2, 162484, Note_on_c, 0, 48, 54
2, 162508, Note_on_c, 0, 99, 78
2, 162508, Note_on_c, 0, 55, 32
2, 162512, Note_on_c, 0, 96, 75
2, 162516, Control_c, 0, 64, 40
2, 162524, Note_on_c, 0, 63, 32
2, 162524, Control_c, 0, 64, 56
2, 162528, Control_c, 0, 64, 72
2, 162548, Control_c, 0, 64, 88
2, 162564, Note_on_c, 0, 96, 0
2, 162564, Note_on_c, 0, 99, 0
2, 162576, Note_on_c, 0, 95, 78
2, 162584, Control_c, 0, 64, 72
2, 162628, Note_on_c, 0, 95, 0
2, 162632, Control_c, 0, 64, 56
2, 162636, Control_c, 0, 64, 40
2, 162644, Note_on_c, 0, 96, 64
2, 162644, Control_c, 0, 64, 24
2, 162648, Control_c, 0, 64, 0
2, 162688, Note_on_c, 0, 96, 0
2, 162700, Note_on_c, 0, 94, 64
2, 162716, Note_on_c, 0, 48, 0
2, 162724, Note_on_c, 0, 55, 0
2, 162728, Note_on_c, 0, 63, 0
2, 162760, Note_on_c, 0, 94, 0
2, 162764, Note_on_c, 0, 93, 83
2, 162820, Note_on_c, 0, 93, 0
2, 162828, Note_on_c, 0, 91, 66
2, 162880, Note_on_c, 0, 91, 0
2, 162888, Note_on_c, 0, 92, 70
2, 162940, Note_on_c, 0, 92, 0
2, 162952, Note_on_c, 0, 90, 57
2, 162964, Note_on_c, 0, 90, 0
2, 162996, Note_on_c, 0, 41, 49
2, 163008, Note_on_c, 0, 41, 0
2, 163012, Note_on_c, 0, 48, 41
2, 163016, Control_c, 0, 64, 40
2, 163020, Control_c, 0, 64, 56
2, 163024, Note_on_c, 0, 51, 40
2, 163028, Note_on_c, 0, 101, 79
2, 163028, Control_c, 0, 64, 72
2, 163032, Control_c, 0, 64, 88
2, 163036, Note_on_c, 0, 89, 37
2, 163036, Note_on_c, 0, 57, 48
2, 163036, Control_c, 0, 64, 104
2, 163044, Control_c, 0, 64, 127
2, 163068, Note_on_c, 0, 48, 0
2, 163072, Note_on_c, 0, 101, 0
2, 163076, Note_on_c, 0, 89, 0
2, 163080, Note_on_c, 0, 57, 0
2, 163080, Note_on_c, 0, 51, 0
2, 163096, Note_on_c, 0, 88, 74
2, 163120, Note_on_c, 0, 88, 0
2, 163152, Note_on_c, 0, 89, 60
2, 163188, Control_c, 0, 64, 104
2, 163192, Note_on_c, 0, 89, 0
2, 163212, Note_on_c, 0, 87, 70
2, 163212, Control_c, 0, 64, 88
2, 163256, Control_c, 0, 64, 72
2, 163260, Note_on_c, 0, 87, 0
2, 163280, Note_on_c, 0, 86, 66
2, 163288, Control_c, 0, 64, 40
2, 163300, Control_c, 0, 64, 24
2, 163304, Control_c, 0, 64, 0
2, 163332, Note_on_c, 0, 86, 0
2, 163336, Note_on_c, 0, 85, 63
2, 163384, Note_on_c, 0, 85, 0
2, 163404, Note_on_c, 0, 84, 51
2, 163456, Note_on_c, 0, 84, 0
2, 163472, Note_on_c, 0, 83, 58
2, 163484, Note_on_c, 0, 83, 0
2, 163496, Note_on_c, 0, 46, 63
2, 163524, Control_c, 0, 64, 56
2, 163532, Control_c, 0, 64, 88
2, 163536, Note_on_c, 0, 82, 59
2, 163536, Note_on_c, 0, 53, 46
2, 163536, Control_c, 0, 64, 127
2, 163548, Note_on_c, 0, 46, 0
2, 163552, Note_on_c, 0, 82, 0
2, 163564, Note_on_c, 0, 62, 34
2, 163592, Note_on_c, 0, 101, 92
2, 163600, Note_on_c, 0, 53, 0
2, 163604, Note_on_c, 0, 101, 0
2, 163608, Note_on_c, 0, 62, 0
2, 163892, Control_c, 0, 64, 0
2, 163896, Note_on_c, 0, 38, 36
2, 163956, Note_on_c, 0, 38, 0
2, 163956, Note_on_c, 0, 39, 41
2, 164008, Note_on_c, 0, 39, 0
2, 164024, Note_on_c, 0, 38, 41
2, 164076, Note_on_c, 0, 38, 0
2, 164088, Note_on_c, 0, 40, 51
2, 164144, Note_on_c, 0, 40, 0
2, 164160, Note_on_c, 0, 41, 42
2, 164160, Note_on_c, 0, 62, 57
2, 164160, Note_on_c, 0, 59, 49
2, 164160, Note_on_c, 0, 56, 49
2, 164160, Note_on_c, 0, 53, 48
2, 164224, Note_on_c, 0, 42, 46
2, 164268, Note_on_c, 0, 41, 0
2, 164276, Note_on_c, 0, 42, 0
2, 164288, Note_on_c, 0, 41, 49
2, 164344, Note_on_c, 0, 41, 0
2, 164352, Note_on_c, 0, 43, 41
2, 164356, Note_on_c, 0, 43, 42
2, 164404, Note_on_c, 0, 43, 0
2, 164412, Note_on_c, 0, 43, 0
2, 164416, Note_on_c, 0, 44, 40
2, 164476, Note_on_c, 0, 44, 0
2, 164488, Note_on_c, 0, 45, 43
2, 164536, Note_on_c, 0, 45, 0
2, 164548, Note_on_c, 0, 44, 39
2, 164612, Note_on_c, 0, 44, 0
2, 164620, Note_on_c, 0, 46, 40
2, 164652, Note_on_c, 0, 62, 0
2, 164656, Note_on_c, 0, 59, 0
2, 164664, Note_on_c, 0, 56, 0
2, 164664, Note_on_c, 0, 53, 0
2, 164672, Note_on_c, 0, 46, 0
2, 164688, Note_on_c, 0, 47, 54
2, 164732, Note_on_c, 0, 47, 0
2, 164756, Note_on_c, 0, 48, 50
2, 164804, Note_on_c, 0, 48, 0
2, 164816, Note_on_c, 0, 86, 74
2, 164820, Note_on_c, 0, 77, 54
2, 164820, Note_on_c, 0, 80, 44
2, 164824, Note_on_c, 0, 47, 47
2, 164848, Note_on_c, 0, 77, 0
2, 164860, Note_on_c, 0, 80, 0
2, 164868, Note_on_c, 0, 86, 0
2, 164872, Note_on_c, 0, 47, 0
2, 164880, Note_on_c, 0, 49, 49
2, 164936, Note_on_c, 0, 49, 0
2, 164940, Note_on_c, 0, 85, 67
2, 164940, Note_on_c, 0, 50, 63
2, 164944, Note_on_c, 0, 77, 63
2, 164944, Note_on_c, 0, 80, 49
2, 164968, Note_on_c, 0, 77, 0
2, 164972, Note_on_c, 0, 80, 0
2, 164976, Note_on_c, 0, 85, 0
2, 165004, Note_on_c, 0, 50, 0
2, 165004, Note_on_c, 0, 51, 51
2, 165064, Note_on_c, 0, 51, 0
2, 165076, Note_on_c, 0, 84, 62
2, 165076, Note_on_c, 0, 50, 56
2, 165080, Note_on_c, 0, 80, 41
2, 165080, Note_on_c, 0, 77, 51
2, 165100, Note_on_c, 0, 77, 0
2, 165116, Note_on_c, 0, 80, 0
2, 165124, Note_on_c, 0, 84, 0
2, 165132, Note_on_c, 0, 50, 0
2, 165140, Note_on_c, 0, 52, 39
2, 165196, Note_on_c, 0, 52, 0
2, 165204, Note_on_c, 0, 83, 63
2, 165204, Note_on_c, 0, 77, 63
2, 165204, Note_on_c, 0, 80, 43
2, 165212, Note_on_c, 0, 53, 48
2, 165232, Note_on_c, 0, 80, 0
2, 165232, Note_on_c, 0, 77, 0
2, 165236, Note_on_c, 0, 83, 0
2, 165272, Note_on_c, 0, 53, 0
2, 165272, Note_on_c, 0, 54, 39
2, 165324, Note_on_c, 0, 54, 0
2, 165332, Note_on_c, 0, 86, 74
2, 165332, Note_on_c, 0, 53, 56
2, 165336, Note_on_c, 0, 80, 49
2, 165340, Note_on_c, 0, 77, 58
2, 165352, Note_on_c, 0, 77, 0
2, 165360, Note_on_c, 0, 80, 0
2, 165360, Note_on_c, 0, 86, 0
2, 165400, Note_on_c, 0, 53, 0
2, 165400, Note_on_c, 0, 55, 57
2, 165464, Note_on_c, 0, 55, 0
2, 165468, Note_on_c, 0, 85, 71
2, 165468, Note_on_c, 0, 56, 52
2, 165472, Note_on_c, 0, 80, 49
2, 165472, Note_on_c, 0, 77, 58
2, 165492, Note_on_c, 0, 77, 0
2, 165504, Note_on_c, 0, 80, 0
2, 165508, Note_on_c, 0, 85, 0
2, 165528, Note_on_c, 0, 56, 0
2, 165536, Note_on_c, 0, 84, 66
2, 165544, Note_on_c, 0, 80, 40
2, 165544, Note_on_c, 0, 77, 50
2, 165544, Note_on_c, 0, 57, 47
2, 165560, Note_on_c, 0, 77, 0
2, 165576, Note_on_c, 0, 80, 0
2, 165584, Note_on_c, 0, 84, 0
2, 165584, Note_on_c, 0, 57, 0
2, 165600, Note_on_c, 0, 83, 74
2, 165600, Note_on_c, 0, 56, 36
2, 165608, Note_on_c, 0, 77, 28
2, 165644, Note_on_c, 0, 77, 0
2, 165648, Note_on_c, 0, 56, 0
2, 165664, Note_on_c, 0, 59, 55
2, 165672, Note_on_c, 0, 83, 0
2, 165688, Note_on_c, 0, 59, 0
2, 165744, Note_on_c, 0, 78, 58
2, 165748, Note_on_c, 0, 50, 42
2, 165748, Control_c, 0, 64, 24
2, 165752, Note_on_c, 0, 62, 24
2, 165752, Control_c, 0, 64, 56
2, 165760, Control_c, 0, 64, 88
2, 165764, Control_c, 0, 64, 104
2, 165768, Note_on_c, 0, 78, 0
2, 165768, Note_on_c, 0, 86, 67
2, 165768, Control_c, 0, 64, 127
2, 165776, Note_on_c, 0, 50, 0
2, 165788, Note_on_c, 0, 86, 0
2, 165788, Note_on_c, 0, 93, 88
2, 165836, Note_on_c, 0, 63, 48
2, 165840, Note_on_c, 0, 62, 0
2, 165840, Control_c, 0, 64, 104
2, 165844, Control_c, 0, 64, 88
2, 165852, Control_c, 0, 64, 72
2, 165856, Control_c, 0, 64, 56
2, 165860, Control_c, 0, 64, 24
2, 165868, Control_c, 0, 64, 0
2, 165880, Note_on_c, 0, 63, 0
2, 165892, Note_on_c, 0, 62, 55
2, 165944, Note_on_c, 0, 62, 0
2, 165952, Note_on_c, 0, 65, 56
2, 165984, Note_on_c, 0, 93, 0
2, 166000, Note_on_c, 0, 65, 0
2, 166012, Note_on_c, 0, 66, 52
2, 166064, Note_on_c, 0, 66, 0
2, 166076, Note_on_c, 0, 67, 48
2, 166124, Note_on_c, 0, 67, 0
2, 166128, Note_on_c, 0, 66, 39
2, 166188, Note_on_c, 0, 66, 0
2, 166188, Note_on_c, 0, 68, 50
2, 166248, Note_on_c, 0, 68, 0
2, 166256, Note_on_c, 0, 69, 58
2, 166308, Note_on_c, 0, 69, 0
2, 166312, Note_on_c, 0, 70, 57
2, 166360, Note_on_c, 0, 70, 0
2, 166376, Note_on_c, 0, 69, 49
2, 166428, Note_on_c, 0, 69, 0
2, 166432, Note_on_c, 0, 73, 52
2, 166492, Note_on_c, 0, 73, 0
2, 166496, Note_on_c, 0, 74, 62
2, 166556, Note_on_c, 0, 74, 0
2, 166560, Note_on_c, 0, 73, 57
2, 166600, Control_c, 0, 64, 24
2, 166608, Note_on_c, 0, 73, 0
2, 166620, Note_on_c, 0, 74, 57
2, 166620, Control_c, 0, 64, 56
2, 166640, Control_c, 0, 64, 72
2, 166656, Control_c, 0, 64, 88
2, 166660, Note_on_c, 0, 74, 0
2, 166672, Note_on_c, 0, 73, 41
2, 166684, Note_on_c, 0, 73, 0
2, 166704, Control_c, 0, 64, 56
2, 166708, Control_c, 0, 64, 24
2, 166716, Control_c, 0, 64, 0
2, 166720, Note_on_c, 0, 79, 69
2, 166744, Control_c, 0, 64, 56
2, 166748, Note_on_c, 0, 79, 0
2, 166748, Note_on_c, 0, 87, 74
2, 166748, Control_c, 0, 64, 88
2, 166752, Note_on_c, 0, 60, 46
2, 166752, Control_c, 0, 64, 127
2, 166776, Note_on_c, 0, 87, 0
2, 166780, Note_on_c, 0, 72, 1
2, 166784, Note_on_c, 0, 96, 86
2, 166792, Note_on_c, 0, 60, 0
2, 166824, Note_on_c, 0, 72, 0
2, 166840, Note_on_c, 0, 71, 48
2, 166860, Control_c, 0, 64, 104
2, 166876, Note_on_c, 0, 71, 0
2, 166876, Control_c, 0, 64, 88
2, 166892, Control_c, 0, 64, 72
2, 166900, Note_on_c, 0, 72, 49
2, 166904, Control_c, 0, 64, 56
2, 166920, Control_c, 0, 64, 40
2, 166924, Control_c, 0, 64, 24
2, 166936, Control_c, 0, 64, 0
2, 166948, Note_on_c, 0, 72, 0
2, 166960, Note_on_c, 0, 70, 49
2, 167012, Note_on_c, 0, 70, 0
2, 167024, Note_on_c, 0, 69, 50
2, 167080, Note_on_c, 0, 69, 0
2, 167084, Note_on_c, 0, 67, 42
2, 167112, Note_on_c, 0, 67, 0
2, 167148, Note_on_c, 0, 68, 35
2, 167160, Control_c, 0, 64, 24
2, 167172, Control_c, 0, 64, 40
2, 167176, Control_c, 0, 64, 56
2, 167180, Control_c, 0, 64, 72
2, 167192, Control_c, 0, 64, 88
2, 167208, Note_on_c, 0, 68, 0
2, 167216, Note_on_c, 0, 66, 50
2, 167236, Note_on_c, 0, 87, 51
2, 167240, Control_c, 0, 64, 104
2, 167248, Note_on_c, 0, 66, 0
2, 167252, Note_on_c, 0, 96, 0
2, 167252, Control_c, 0, 64, 127
2, 167264, Note_on_c, 0, 93, 72
2, 167276, Note_on_c, 0, 87, 0
2, 167276, Control_c, 0, 64, 24
2, 167280, Note_on_c, 0, 65, 25
2, 167280, Note_on_c, 0, 53, 44
2, 167280, Control_c, 0, 64, 56
2, 167288, Control_c, 0, 64, 88
2, 167292, Note_on_c, 0, 101, 88
2, 167292, Control_c, 0, 64, 104
2, 167296, Control_c, 0, 64, 127
2, 167312, Note_on_c, 0, 53, 0
2, 167312, Note_on_c, 0, 93, 0
2, 167340, Note_on_c, 0, 65, 0
2, 167352, Note_on_c, 0, 64, 52
2, 167364, Note_on_c, 0, 101, 0
2, 167392, Note_on_c, 0, 64, 0
2, 167412, Note_on_c, 0, 65, 47
2, 167428, Control_c, 0, 64, 104
2, 167440, Control_c, 0, 64, 88
2, 167448, Control_c, 0, 64, 72
2, 167460, Control_c, 0, 64, 56
2, 167464, Note_on_c, 0, 65, 0
2, 167464, Control_c, 0, 64, 40
2, 167468, Control_c, 0, 64, 24
2, 167476, Note_on_c, 0, 63, 39
2, 167480, Control_c, 0, 64, 0
2, 167528, Note_on_c, 0, 63, 0
2, 167536, Note_on_c, 0, 62, 54
2, 167596, Note_on_c, 0, 62, 0
2, 167596, Note_on_c, 0, 61, 56
2, 167648, Note_on_c, 0, 61, 0
2, 167660, Note_on_c, 0, 60, 56
2, 167720, Note_on_c, 0, 60, 0
2, 167728, Note_on_c, 0, 59, 34
2, 167736, Note_on_c, 0, 59, 0
2, 167764, Note_on_c, 0, 86, 52
2, 167796, Note_on_c, 0, 86, 0
2, 167796, Note_on_c, 0, 94, 63
2, 167816, Note_on_c, 0, 58, 28
2, 167820, Control_c, 0, 64, 40
2, 167828, Note_on_c, 0, 46, 37
2, 167828, Control_c, 0, 64, 72
2, 167832, Note_on_c, 0, 94, 0
2, 167832, Control_c, 0, 64, 104
2, 167836, Note_on_c, 0, 101, 81
2, 167836, Control_c, 0, 64, 0
2, 167852, Note_on_c, 0, 101, 0
2, 167864, Note_on_c, 0, 46, 0
2, 167868, Note_on_c, 0, 58, 0
2, 167976, Note_on_c, 0, 50, 64
2, 167980, Note_on_c, 0, 53, 42
2, 167980, Note_on_c, 0, 58, 29
2, 168012, Note_on_c, 0, 50, 0
2, 168024, Note_on_c, 0, 58, 0
2, 168028, Note_on_c, 0, 53, 0
2, 168036, Note_on_c, 0, 62, 35
2, 168060, Note_on_c, 0, 62, 0
2, 168112, Note_on_c, 0, 48, 63
2, 168112, Note_on_c, 0, 58, 28
2, 168120, Note_on_c, 0, 54, 28
2, 168144, Note_on_c, 0, 48, 0
2, 168148, Note_on_c, 0, 54, 0
2, 168152, Note_on_c, 0, 58, 0
2, 168172, Note_on_c, 0, 62, 40
2, 168192, Note_on_c, 0, 62, 0
2, 168236, Note_on_c, 0, 47, 54
2, 168240, Note_on_c, 0, 58, 37
2, 168244, Note_on_c, 0, 55, 37
2, 168264, Note_on_c, 0, 47, 0
2, 168284, Note_on_c, 0, 55, 0
2, 168284, Note_on_c, 0, 58, 0
2, 168304, Note_on_c, 0, 62, 40
2, 168332, Note_on_c, 0, 62, 0
2, 168364, Note_on_c, 0, 46, 55
2, 168372, Note_on_c, 0, 54, 35
2, 168372, Note_on_c, 0, 58, 25
2, 168400, Note_on_c, 0, 46, 0
2, 168412, Note_on_c, 0, 58, 0
2, 168412, Note_on_c, 0, 54, 0
2, 168428, Note_on_c, 0, 62, 43
2, 168448, Note_on_c, 0, 62, 0
2, 168492, Note_on_c, 0, 50, 60
2, 168496, Note_on_c, 0, 58, 28
2, 168504, Note_on_c, 0, 53, 35
2, 168528, Note_on_c, 0, 50, 0
2, 168532, Note_on_c, 0, 58, 0
2, 168540, Note_on_c, 0, 53, 0
2, 168548, Note_on_c, 0, 62, 46
2, 168592, Note_on_c, 0, 62, 0
2, 168616, Note_on_c, 0, 58, 31
2, 168616, Note_on_c, 0, 48, 71
2, 168628, Note_on_c, 0, 54, 19
2, 168648, Note_on_c, 0, 54, 0
2, 168656, Note_on_c, 0, 48, 0
2, 168656, Note_on_c, 0, 58, 0
2, 168672, Note_on_c, 0, 47, 67
2, 168672, Note_on_c, 0, 62, 35
2, 168716, Note_on_c, 0, 47, 0
2, 168728, Note_on_c, 0, 62, 0
2, 168732, Note_on_c, 0, 46, 63
2, 168732, Note_on_c, 0, 58, 41
2, 168748, Note_on_c, 0, 55, 25
2, 168780, Note_on_c, 0, 55, 0
2, 168780, Note_on_c, 0, 58, 0
2, 168784, Note_on_c, 0, 46, 0
2, 168788, Note_on_c, 0, 62, 49
2, 168820, Note_on_c, 0, 62, 0
2, 168852, Note_on_c, 0, 57, 40
2, 168852, Note_on_c, 0, 54, 28
2, 168880, Note_on_c, 0, 63, 41
2, 168896, Note_on_c, 0, 54, 0
2, 168896, Note_on_c, 0, 57, 0
2, 168896, Control_c, 0, 64, 24
2, 168896, Control_c, 0, 64, 72
2, 168904, Control_c, 0, 64, 88
2, 168908, Note_on_c, 0, 63, 0
2, 168908, Control_c, 0, 64, 104
2, 168912, Control_c, 0, 64, 127
2, 168972, Control_c, 0, 64, 104
2, 168976, Control_c, 0, 64, 88
2, 168980, Control_c, 0, 64, 72
2, 168988, Control_c, 0, 64, 40
2, 168992, Control_c, 0, 64, 0
2, 169008, Note_on_c, 0, 87, 66
2, 169012, Note_on_c, 0, 78, 58
2, 169016, Note_on_c, 0, 81, 52
2, 169028, Note_on_c, 0, 81, 0
2, 169032, Note_on_c, 0, 78, 0
2, 169048, Note_on_c, 0, 87, 0
2, 169072, Note_on_c, 0, 84, 71
2, 169112, Note_on_c, 0, 84, 0
2, 169136, Note_on_c, 0, 80, 65
2, 169140, Note_on_c, 0, 71, 39
2, 169144, Note_on_c, 0, 74, 43
2, 169164, Note_on_c, 0, 74, 0
2, 169168, Note_on_c, 0, 71, 0
2, 169172, Note_on_c, 0, 80, 0
2, 169196, Note_on_c, 0, 77, 66
2, 169220, Note_on_c, 0, 77, 0
2, 169256, Note_on_c, 0, 81, 77
2, 169260, Note_on_c, 0, 75, 55
2, 169268, Note_on_c, 0, 72, 42
2, 169280, Note_on_c, 0, 72, 0
2, 169280, Note_on_c, 0, 75, 0
2, 169288, Note_on_c, 0, 81, 0
2, 169316, Note_on_c, 0, 78, 41
2, 169360, Note_on_c, 0, 78, 0
2, 169380, Note_on_c, 0, 68, 55
2, 169384, Note_on_c, 0, 74, 64
2, 169388, Note_on_c, 0, 65, 40
2, 169404, Note_on_c, 0, 65, 0
2, 169408, Note_on_c, 0, 68, 0
2, 169416, Note_on_c, 0, 74, 0
2, 169440, Note_on_c, 0, 71, 57
2, 169472, Note_on_c, 0, 71, 0
2, 169500, Note_on_c, 0, 75, 65
2, 169508, Note_on_c, 0, 66, 36
2, 169512, Note_on_c, 0, 69, 41
2, 169520, Note_on_c, 0, 66, 0
2, 169524, Note_on_c, 0, 69, 0
2, 169532, Note_on_c, 0, 75, 0
2, 169560, Note_on_c, 0, 72, 66
2, 169592, Note_on_c, 0, 72, 0
2, 169620, Note_on_c, 0, 68, 55
2, 169624, Note_on_c, 0, 62, 52
2, 169624, Note_on_c, 0, 59, 39
2, 169648, Note_on_c, 0, 62, 0
2, 169652, Note_on_c, 0, 59, 0
2, 169664, Note_on_c, 0, 68, 0
2, 169680, Note_on_c, 0, 65, 51
2, 169720, Note_on_c, 0, 65, 0
2, 169744, Note_on_c, 0, 63, 36
2, 169744, Note_on_c, 0, 69, 56
2, 169748, Note_on_c, 0, 60, 44
2, 169764, Note_on_c, 0, 60, 0
2, 169772, Note_on_c, 0, 69, 0
2, 169800, Note_on_c, 0, 78, 70
2, 169832, Note_on_c, 0, 78, 0
2, 169848, Note_on_c, 0, 63, 0
2, 169876, Note_on_c, 0, 77, 75
2, 169876, Note_on_c, 0, 70, 48
2, 169876, Note_on_c, 0, 62, 60
2, 169888, Note_on_c, 0, 62, 0
2, 169900, Note_on_c, 0, 77, 0
2, 169904, Note_on_c, 0, 70, 0
2, 169904, Control_c, 0, 64, 40
2, 169912, Control_c, 0, 64, 72
2, 169916, Control_c, 0, 64, 104
2, 169920, Control_c, 0, 64, 0
2, 170008, Note_on_c, 0, 50, 58
2, 170016, Note_on_c, 0, 58, 31
2, 170024, Note_on_c, 0, 53, 42
2, 170044, Note_on_c, 0, 50, 0
2, 170068, Note_on_c, 0, 53, 0
2, 170068, Note_on_c, 0, 58, 0
2, 170076, Note_on_c, 0, 62, 39
2, 170096, Note_on_c, 0, 62, 0
2, 170140, Note_on_c, 0, 48, 69
2, 170144, Note_on_c, 0, 58, 28
2, 170148, Note_on_c, 0, 54, 33
2, 170172, Note_on_c, 0, 48, 0
2, 170180, Note_on_c, 0, 54, 0
2, 170184, Note_on_c, 0, 58, 0
2, 170200, Note_on_c, 0, 62, 46
2, 170220, Note_on_c, 0, 62, 0
2, 170264, Note_on_c, 0, 58, 34
2, 170264, Note_on_c, 0, 47, 62
2, 170272, Note_on_c, 0, 55, 48
2, 170292, Note_on_c, 0, 47, 0
2, 170300, Note_on_c, 0, 55, 0
2, 170316, Note_on_c, 0, 58, 0
2, 170328, Note_on_c, 0, 62, 39
2, 170364, Note_on_c, 0, 62, 0
2, 170392, Note_on_c, 0, 46, 69
2, 170396, Note_on_c, 0, 58, 41
2, 170404, Note_on_c, 0, 53, 36
2, 170420, Note_on_c, 0, 46, 0
2, 170424, Note_on_c, 0, 53, 0
2, 170444, Note_on_c, 0, 58, 0
2, 170460, Note_on_c, 0, 62, 49
2, 170476, Note_on_c, 0, 62, 0
2, 170520, Note_on_c, 0, 50, 58
2, 170524, Note_on_c, 0, 58, 36
2, 170532, Note_on_c, 0, 53, 46
2, 170548, Note_on_c, 0, 50, 0
2, 170564, Note_on_c, 0, 58, 0
2, 170568, Note_on_c, 0, 53, 0
2, 170584, Note_on_c, 0, 62, 40
2, 170608, Note_on_c, 0, 62, 0
2, 170640, Note_on_c, 0, 48, 71
2, 170644, Note_on_c, 0, 58, 34
2, 170644, Note_on_c, 0, 54, 39
2, 170680, Note_on_c, 0, 48, 0
2, 170688, Note_on_c, 0, 54, 0
2, 170692, Note_on_c, 0, 58, 0
2, 170704, Note_on_c, 0, 47, 60
2, 170704, Note_on_c, 0, 62, 48
2, 170740, Note_on_c, 0, 47, 0
2, 170748, Note_on_c, 0, 62, 0
2, 170760, Note_on_c, 0, 46, 64
2, 170764, Note_on_c, 0, 58, 44
2, 170768, Note_on_c, 0, 55, 41
2, 170788, Note_on_c, 0, 46, 0
2, 170808, Note_on_c, 0, 55, 0
2, 170812, Note_on_c, 0, 58, 0
2, 170824, Note_on_c, 0, 62, 44
2, 170864, Note_on_c, 0, 62, 0
2, 170892, Note_on_c, 0, 57, 41
2, 170896, Note_on_c, 0, 54, 36
2, 170916, Note_on_c, 0, 63, 49
2, 170920, Note_on_c, 0, 57, 0
2, 170924, Note_on_c, 0, 54, 0
2, 170928, Control_c, 0, 64, 24
2, 170936, Note_on_c, 0, 63, 0
2, 170936, Control_c, 0, 64, 56
2, 170940, Control_c, 0, 64, 88
2, 170944, Control_c, 0, 64, 104
2, 170952, Control_c, 0, 64, 127
2, 171032, Control_c, 0, 64, 88
2, 171040, Note_on_c, 0, 87, 67
2, 171040, Control_c, 0, 64, 56
2, 171044, Note_on_c, 0, 81, 55
2, 171044, Note_on_c, 0, 78, 51
2, 171044, Control_c, 0, 64, 40
2, 171048, Control_c, 0, 64, 0
2, 171056, Note_on_c, 0, 78, 0
2, 171060, Note_on_c, 0, 81, 0
2, 171076, Note_on_c, 0, 87, 0
2, 171104, Note_on_c, 0, 84, 71
2, 171136, Note_on_c, 0, 84, 0
2, 171160, Note_on_c, 0, 80, 63
2, 171168, Note_on_c, 0, 71, 36
2, 171172, Note_on_c, 0, 74, 37
2, 171188, Note_on_c, 0, 71, 0
2, 171192, Note_on_c, 0, 74, 0
2, 171196, Note_on_c, 0, 80, 0
2, 171228, Note_on_c, 0, 77, 51
2, 171248, Note_on_c, 0, 77, 0
2, 171292, Note_on_c, 0, 81, 67
2, 171296, Note_on_c, 0, 75, 48
2, 171316, Note_on_c, 0, 75, 0
2, 171320, Note_on_c, 0, 81, 0
2, 171352, Note_on_c, 0, 78, 51
2, 171392, Note_on_c, 0, 78, 0
2, 171416, Note_on_c, 0, 74, 69
2, 171416, Note_on_c, 0, 65, 42
2, 171420, Note_on_c, 0, 68, 31
2, 171436, Note_on_c, 0, 68, 0
2, 171436, Note_on_c, 0, 65, 0
2, 171452, Note_on_c, 0, 74, 0
2, 171480, Note_on_c, 0, 71, 46
2, 171508, Note_on_c, 0, 71, 0
2, 171540, Note_on_c, 0, 75, 60
2, 171548, Note_on_c, 0, 66, 37
2, 171552, Note_on_c, 0, 69, 37
2, 171564, Note_on_c, 0, 69, 0
2, 171564, Note_on_c, 0, 66, 0
2, 171576, Note_on_c, 0, 75, 0
2, 171604, Note_on_c, 0, 72, 59
2, 171632, Note_on_c, 0, 72, 0
2, 171668, Note_on_c, 0, 62, 56
2, 171668, Note_on_c, 0, 68, 57
2, 171672, Note_on_c, 0, 59, 35
2, 171688, Note_on_c, 0, 62, 0
2, 171692, Note_on_c, 0, 59, 0
2, 171704, Note_on_c, 0, 68, 0
2, 171732, Note_on_c, 0, 65, 56
2, 171796, Note_on_c, 0, 69, 33
2, 171800, Note_on_c, 0, 63, 42
2, 171812, Note_on_c, 0, 63, 0
2, 171812, Note_on_c, 0, 60, 28
2, 171820, Note_on_c, 0, 60, 0
2, 171820, Note_on_c, 0, 65, 0
2, 171820, Control_c, 0, 64, 24
2, 171824, Control_c, 0, 64, 56
2, 171828, Control_c, 0, 64, 72
2, 171832, Control_c, 0, 64, 88
2, 171840, Control_c, 0, 64, 104
2, 171852, Note_on_c, 0, 69, 0
2, 171860, Note_on_c, 0, 78, 71
2, 171860, Control_c, 0, 64, 127
2, 171872, Note_on_c, 0, 78, 0
2, 171924, Note_on_c, 0, 46, 36
2, 171928, Control_c, 0, 64, 104
2, 171932, Control_c, 0, 64, 72
2, 171936, Note_on_c, 0, 51, 37
2, 171936, Control_c, 0, 64, 40
2, 171944, Control_c, 0, 64, 0
2, 171948, Note_on_c, 0, 66, 67
2, 171956, Note_on_c, 0, 60, 60
2, 171964, Note_on_c, 0, 57, 51
2, 171972, Note_on_c, 0, 60, 0
2, 171984, Control_c, 0, 64, 40
2, 171988, Note_on_c, 0, 46, 0
2, 171988, Control_c, 0, 64, 104
2, 171992, Note_on_c, 0, 66, 0
2, 171992, Control_c, 0, 64, 127
2, 171996, Note_on_c, 0, 51, 0
2, 171996, Note_on_c, 0, 57, 0
2, 172104, Note_on_c, 0, 90, 69
2, 172112, Note_on_c, 0, 84, 60
2, 172112, Note_on_c, 0, 81, 29
2, 172124, Note_on_c, 0, 81, 0
2, 172132, Note_on_c, 0, 84, 0
2, 172136, Control_c, 0, 64, 104
2, 172144, Note_on_c, 0, 90, 0
2, 172144, Control_c, 0, 64, 72
2, 172148, Control_c, 0, 64, 56
2, 172152, Control_c, 0, 64, 24
2, 172160, Control_c, 0, 64, 0
2, 172164, Note_on_c, 0, 87, 72
2, 172204, Note_on_c, 0, 87, 0
2, 172236, Note_on_c, 0, 83, 71
2, 172240, Note_on_c, 0, 77, 40
2, 172240, Note_on_c, 0, 74, 47
2, 172276, Note_on_c, 0, 74, 0
2, 172276, Note_on_c, 0, 77, 0
2, 172276, Note_on_c, 0, 83, 0
2, 172300, Note_on_c, 0, 80, 56
2, 172316, Note_on_c, 0, 80, 0
2, 172368, Note_on_c, 0, 84, 67
2, 172368, Note_on_c, 0, 78, 49
2, 172372, Note_on_c, 0, 75, 37
2, 172384, Note_on_c, 0, 75, 0
2, 172392, Note_on_c, 0, 78, 0
2, 172404, Note_on_c, 0, 84, 0
2, 172428, Note_on_c, 0, 81, 60
2, 172468, Note_on_c, 0, 81, 0
2, 172496, Note_on_c, 0, 71, 48
2, 172496, Note_on_c, 0, 68, 36
2, 172504, Note_on_c, 0, 77, 75
2, 172524, Note_on_c, 0, 71, 0
2, 172528, Note_on_c, 0, 77, 0
2, 172528, Note_on_c, 0, 68, 0
2, 172564, Note_on_c, 0, 74, 47
2, 172580, Note_on_c, 0, 74, 0
2, 172624, Note_on_c, 0, 78, 62
2, 172624, Note_on_c, 0, 72, 46
2, 172632, Note_on_c, 0, 69, 27
2, 172640, Note_on_c, 0, 72, 0
2, 172644, Note_on_c, 0, 69, 0
2, 172660, Note_on_c, 0, 78, 0
2, 172684, Note_on_c, 0, 75, 46
2, 172696, Note_on_c, 0, 75, 0
2, 172752, Note_on_c, 0, 62, 39
2, 172756, Note_on_c, 0, 65, 39
2, 172756, Note_on_c, 0, 71, 46
2, 172772, Note_on_c, 0, 62, 0
2, 172776, Note_on_c, 0, 65, 0
2, 172796, Note_on_c, 0, 71, 0
2, 172812, Note_on_c, 0, 68, 42
2, 172840, Note_on_c, 0, 68, 0
2, 172880, Note_on_c, 0, 72, 64
2, 172880, Note_on_c, 0, 66, 33
2, 172892, Note_on_c, 0, 63, 26
2, 172904, Note_on_c, 0, 63, 0
2, 172904, Note_on_c, 0, 66, 0
2, 172904, Note_on_c, 0, 72, 0
2, 172948, Note_on_c, 0, 81, 56
2, 172976, Note_on_c, 0, 81, 0
2, 173020, Note_on_c, 0, 69, 66
2, 173024, Note_on_c, 0, 63, 41
2, 173024, Note_on_c, 0, 46, 46
2, 173036, Note_on_c, 0, 60, 28
2, 173036, Note_on_c, 0, 54, 33
2, 173040, Control_c, 0, 64, 56
2, 173044, Control_c, 0, 64, 104
2, 173048, Note_on_c, 0, 63, 0
2, 173048, Control_c, 0, 64, 127
2, 173052, Note_on_c, 0, 69, 0
2, 173056, Note_on_c, 0, 46, 0
2, 173064, Note_on_c, 0, 54, 0
2, 173072, Note_on_c, 0, 60, 0
2, 173176, Note_on_c, 0, 93, 74
2, 173184, Note_on_c, 0, 87, 44
2, 173188, Note_on_c, 0, 84, 35
2, 173200, Note_on_c, 0, 84, 0
2, 173204, Note_on_c, 0, 87, 0
2, 173204, Note_on_c, 0, 93, 0
2, 173220, Control_c, 0, 64, 88
2, 173224, Control_c, 0, 64, 56
2, 173232, Control_c, 0, 64, 40
2, 173236, Note_on_c, 0, 90, 58
2, 173236, Control_c, 0, 64, 24
2, 173240, Control_c, 0, 64, 0
2, 173280, Note_on_c, 0, 90, 0
2, 173300, Note_on_c, 0, 86, 70
2, 173304, Note_on_c, 0, 77, 49
2, 173320, Note_on_c, 0, 77, 0
2, 173336, Note_on_c, 0, 86, 0
2, 173360, Note_on_c, 0, 83, 62
2, 173396, Note_on_c, 0, 83, 0
2, 173420, Note_on_c, 0, 87, 65
2, 173428, Note_on_c, 0, 78, 43
2, 173428, Note_on_c, 0, 81, 44
2, 173440, Note_on_c, 0, 81, 0
2, 173440, Note_on_c, 0, 78, 0
2, 173472, Note_on_c, 0, 87, 0
2, 173484, Note_on_c, 0, 84, 74
2, 173492, Note_on_c, 0, 84, 0
2, 173548, Note_on_c, 0, 90, 46
2, 173552, Note_on_c, 0, 87, 46
2, 173552, Note_on_c, 0, 96, 63
2, 173576, Note_on_c, 0, 87, 0
2, 173576, Note_on_c, 0, 90, 0
2, 173584, Note_on_c, 0, 96, 0
2, 173616, Note_on_c, 0, 93, 64
2, 173652, Note_on_c, 0, 93, 0
2, 173676, Note_on_c, 0, 89, 67
2, 173680, Note_on_c, 0, 83, 44
2, 173684, Note_on_c, 0, 80, 29
2, 173692, Note_on_c, 0, 83, 0
2, 173696, Note_on_c, 0, 80, 0
2, 173712, Note_on_c, 0, 89, 0
2, 173736, Note_on_c, 0, 86, 54
2, 173792, Note_on_c, 0, 86, 0
2, 173796, Note_on_c, 0, 90, 65
2, 173800, Note_on_c, 0, 84, 59
2, 173800, Note_on_c, 0, 81, 42
2, 173808, Note_on_c, 0, 84, 0
2, 173812, Note_on_c, 0, 81, 0
2, 173836, Note_on_c, 0, 90, 0
2, 173856, Note_on_c, 0, 87, 71
2, 173868, Note_on_c, 0, 87, 0
2, 173920, Note_on_c, 0, 90, 52
2, 173920, Note_on_c, 0, 99, 72
2, 173928, Note_on_c, 0, 93, 56
2, 173940, Note_on_c, 0, 93, 0
2, 173944, Note_on_c, 0, 90, 0
2, 173956, Note_on_c, 0, 99, 0
2, 173980, Note_on_c, 0, 96, 81
2, 174020, Note_on_c, 0, 96, 0
2, 174040, Note_on_c, 0, 92, 70
2, 174040, Note_on_c, 0, 83, 62
2, 174040, Note_on_c, 0, 86, 58
2, 174052, Note_on_c, 0, 86, 0
2, 174052, Note_on_c, 0, 83, 0
2, 174076, Note_on_c, 0, 92, 0
2, 174100, Note_on_c, 0, 89, 67
2, 174132, Note_on_c, 0, 89, 0
2, 174164, Note_on_c, 0, 87, 57
2, 174168, Note_on_c, 0, 93, 70
2, 174176, Note_on_c, 0, 84, 46
2, 174184, Note_on_c, 0, 84, 0
2, 174192, Note_on_c, 0, 87, 0
2, 174208, Note_on_c, 0, 93, 0
2, 174224, Note_on_c, 0, 90, 50
2, 174280, Note_on_c, 0, 90, 0
2, 174292, Note_on_c, 0, 100, 70
2, 174292, Note_on_c, 0, 83, 47
2, 174300, Note_on_c, 0, 80, 34
2, 174312, Note_on_c, 0, 80, 0
2, 174316, Note_on_c, 0, 83, 0
2, 174328, Note_on_c, 0, 100, 0
2, 174352, Note_on_c, 0, 87, 58
2, 174376, Note_on_c, 0, 87, 0
2, 174408, Note_on_c, 0, 101, 80
2, 174416, Note_on_c, 0, 84, 55
2, 174424, Note_on_c, 0, 81, 37
2, 174436, Note_on_c, 0, 81, 0
2, 174436, Note_on_c, 0, 101, 0
2, 174440, Note_on_c, 0, 84, 0
2, 174472, Note_on_c, 0, 87, 56
2, 174516, Note_on_c, 0, 87, 0
2, 174536, Note_on_c, 0, 100, 87
2, 174540, Note_on_c, 0, 83, 64
2, 174544, Note_on_c, 0, 80, 36
2, 174556, Note_on_c, 0, 80, 0
2, 174564, Note_on_c, 0, 83, 0
2, 174572, Note_on_c, 0, 100, 0
2, 174596, Note_on_c, 0, 87, 52
2, 174624, Note_on_c, 0, 87, 0
2, 174656, Note_on_c, 0, 101, 80
2, 174660, Note_on_c, 0, 84, 66
2, 174680, Note_on_c, 0, 84, 0
2, 174684, Note_on_c, 0, 101, 0
2, 174724, Note_on_c, 0, 87, 56
2, 174756, Note_on_c, 0, 87, 0
2, 174780, Note_on_c, 0, 100, 75
2, 174784, Note_on_c, 0, 83, 51
2, 174784, Note_on_c, 0, 80, 43
2, 174800, Note_on_c, 0, 80, 0
2, 174808, Note_on_c, 0, 83, 0
2, 174812, Note_on_c, 0, 100, 0
2, 174840, Note_on_c, 0, 87, 40
2, 174864, Note_on_c, 0, 87, 0
2, 174896, Note_on_c, 0, 101, 73
2, 174896, Note_on_c, 0, 84, 65
2, 174908, Note_on_c, 0, 81, 24
2, 174920, Note_on_c, 0, 81, 0
2, 174924, Note_on_c, 0, 84, 0
2, 174928, Note_on_c, 0, 101, 0
2, 174952, Note_on_c, 0, 87, 40
2, 174972, Note_on_c, 0, 87, 0
2, 175024, Note_on_c, 0, 101, 72
2, 175036, Note_on_c, 0, 82, 36
2, 175036, Note_on_c, 0, 86, 28
2, 175048, Control_c, 0, 64, 56
2, 175052, Control_c, 0, 64, 88
2, 175056, Note_on_c, 0, 86, 0
2, 175056, Note_on_c, 0, 101, 0
2, 175056, Control_c, 0, 64, 127
2, 175064, Note_on_c, 0, 82, 0
2, 175152, Note_on_c, 0, 90, 55
2, 175156, Note_on_c, 0, 98, 66
2, 175180, Note_on_c, 0, 98, 0
2, 175192, Note_on_c, 0, 90, 0
2, 175208, Note_on_c, 0, 94, 64
2, 175208, Note_on_c, 0, 89, 57
2, 175240, Note_on_c, 0, 89, 0
2, 175240, Note_on_c, 0, 94, 0
2, 175268, Note_on_c, 0, 86, 55
2, 175268, Note_on_c, 0, 90, 49
2, 175308, Note_on_c, 0, 86, 0
2, 175324, Note_on_c, 0, 90, 0
2, 175332, Note_on_c, 0, 89, 70
2, 175332, Note_on_c, 0, 82, 31
2, 175340, Note_on_c, 0, 89, 0
2, 175380, Note_on_c, 0, 82, 0
2, 175388, Note_on_c, 0, 78, 52
2, 175392, Note_on_c, 0, 86, 28
2, 175408, Note_on_c, 0, 86, 0
2, 175424, Note_on_c, 0, 78, 0
2, 175444, Note_on_c, 0, 82, 49
2, 175444, Note_on_c, 0, 77, 56
2, 175460, Note_on_c, 0, 77, 0
2, 175476, Note_on_c, 0, 82, 0
2, 175500, Note_on_c, 0, 74, 62
2, 175500, Note_on_c, 0, 78, 52
2, 175524, Note_on_c, 0, 74, 0
2, 175544, Note_on_c, 0, 78, 0
2, 175552, Control_c, 0, 64, 88
2, 175556, Note_on_c, 0, 77, 57
2, 175556, Control_c, 0, 64, 56
2, 175560, Note_on_c, 0, 70, 32
2, 175560, Control_c, 0, 64, 24
2, 175568, Control_c, 0, 64, 0
2, 175596, Control_c, 0, 64, 40
2, 175600, Control_c, 0, 64, 88
2, 175604, Control_c, 0, 64, 127
2, 175608, Note_on_c, 0, 70, 0
2, 175612, Note_on_c, 0, 78, 62
2, 175616, Note_on_c, 0, 77, 0
2, 175624, Note_on_c, 0, 74, 29
2, 175664, Note_on_c, 0, 74, 0
2, 175664, Note_on_c, 0, 78, 0
2, 175676, Note_on_c, 0, 77, 50
2, 175696, Note_on_c, 0, 77, 0
2, 175728, Note_on_c, 0, 82, 57
2, 175728, Note_on_c, 0, 86, 67
2, 175752, Note_on_c, 0, 86, 0
2, 175768, Note_on_c, 0, 82, 0
2, 175784, Note_on_c, 0, 89, 65
2, 175784, Note_on_c, 0, 85, 44
2, 175808, Note_on_c, 0, 89, 0
2, 175828, Note_on_c, 0, 85, 0
2, 175844, Note_on_c, 0, 90, 58
2, 175844, Note_on_c, 0, 86, 60
2, 175876, Note_on_c, 0, 90, 0
2, 175880, Note_on_c, 0, 86, 0
2, 175896, Note_on_c, 0, 94, 71
2, 175904, Note_on_c, 0, 89, 56
2, 175936, Note_on_c, 0, 94, 0
2, 175948, Note_on_c, 0, 89, 0
2, 175972, Note_on_c, 0, 98, 60
2, 175972, Note_on_c, 0, 94, 46
2, 175988, Note_on_c, 0, 94, 0
2, 175992, Note_on_c, 0, 98, 0
2, 176088, Control_c, 0, 64, 104
2, 176092, Note_on_c, 0, 86, 60
2, 176092, Control_c, 0, 64, 56
2, 176096, Note_on_c, 0, 78, 58
2, 176096, Control_c, 0, 64, 24
2, 176100, Control_c, 0, 64, 0
2, 176136, Note_on_c, 0, 86, 0
2, 176136, Control_c, 0, 64, 24
2, 176140, Note_on_c, 0, 78, 0
2, 176140, Control_c, 0, 64, 72
2, 176144, Control_c, 0, 64, 127
2, 176152, Note_on_c, 0, 77, 70
2, 176156, Note_on_c, 0, 82, 60
2, 176188, Note_on_c, 0, 77, 0
2, 176200, Note_on_c, 0, 82, 0
2, 176216, Note_on_c, 0, 78, 50
2, 176224, Note_on_c, 0, 74, 44
2, 176256, Note_on_c, 0, 74, 0
2, 176268, Note_on_c, 0, 78, 0
2, 176276, Note_on_c, 0, 77, 75
2, 176280, Note_on_c, 0, 70, 32
2, 176288, Note_on_c, 0, 77, 0
2, 176328, Note_on_c, 0, 70, 0
2, 176332, Note_on_c, 0, 66, 49
2, 176340, Note_on_c, 0, 74, 43
2, 176372, Note_on_c, 0, 66, 0
2, 176380, Note_on_c, 0, 74, 0
2, 176392, Note_on_c, 0, 65, 59
2, 176392, Note_on_c, 0, 70, 52
2, 176420, Note_on_c, 0, 65, 0
2, 176432, Note_on_c, 0, 70, 0
2, 176452, Note_on_c, 0, 62, 50
2, 176456, Note_on_c, 0, 66, 35
2, 176464, Control_c, 0, 64, 88
2, 176468, Control_c, 0, 64, 56
2, 176476, Control_c, 0, 64, 40
2, 176480, Control_c, 0, 64, 0
2, 176500, Note_on_c, 0, 66, 0
2, 176508, Note_on_c, 0, 62, 0
2, 176508, Note_on_c, 0, 58, 42
2, 176512, Note_on_c, 0, 65, 49
2, 176548, Control_c, 0, 64, 56
2, 176552, Control_c, 0, 64, 88
2, 176560, Control_c, 0, 64, 127
2, 176564, Note_on_c, 0, 65, 0
2, 176564, Note_on_c, 0, 66, 62
2, 176568, Note_on_c, 0, 58, 0
2, 176580, Note_on_c, 0, 62, 27
2, 176616, Note_on_c, 0, 62, 0
2, 176616, Note_on_c, 0, 66, 0
2, 176620, Note_on_c, 0, 70, 64
2, 176628, Note_on_c, 0, 65, 49
2, 176640, Note_on_c, 0, 70, 0
2, 176656, Note_on_c, 0, 65, 0
2, 176680, Note_on_c, 0, 74, 70
2, 176684, Note_on_c, 0, 70, 42
2, 176700, Note_on_c, 0, 74, 0
2, 176728, Note_on_c, 0, 70, 0
2, 176732, Note_on_c, 0, 77, 71
2, 176740, Note_on_c, 0, 73, 52
2, 176764, Note_on_c, 0, 77, 0
2, 176784, Note_on_c, 0, 73, 0
2, 176788, Note_on_c, 0, 78, 66
2, 176796, Note_on_c, 0, 74, 63
2, 176820, Note_on_c, 0, 78, 0
2, 176828, Note_on_c, 0, 74, 0
2, 176848, Note_on_c, 0, 82, 63
2, 176852, Note_on_c, 0, 77, 47
2, 176884, Note_on_c, 0, 82, 0
2, 176896, Note_on_c, 0, 77, 0
2, 176908, Control_c, 0, 64, 88
2, 176912, Control_c, 0, 64, 24
2, 176916, Note_on_c, 0, 86, 74
2, 176916, Control_c, 0, 64, 0
2, 176920, Note_on_c, 0, 82, 43
2, 176936, Control_c, 0, 64, 56
2, 176940, Note_on_c, 0, 82, 0
2, 176940, Note_on_c, 0, 86, 0
2, 176940, Control_c, 0, 64, 104
2, 176944, Control_c, 0, 64, 127
2, 177028, Note_on_c, 0, 66, 39
2, 177028, Note_on_c, 0, 74, 54
2, 177036, Control_c, 0, 64, 56
2, 177040, Control_c, 0, 64, 88
2, 177044, Control_c, 0, 64, 104
2, 177048, Control_c, 0, 64, 127
2, 177068, Note_on_c, 0, 74, 0
2, 177080, Note_on_c, 0, 66, 0
2, 177092, Note_on_c, 0, 70, 50
2, 177092, Note_on_c, 0, 65, 50
2, 177120, Note_on_c, 0, 70, 0
2, 177132, Note_on_c, 0, 65, 0
2, 177148, Note_on_c, 0, 62, 50
2, 177152, Note_on_c, 0, 66, 41
2, 177184, Note_on_c, 0, 62, 0
2, 177196, Note_on_c, 0, 66, 0
2, 177212, Note_on_c, 0, 65, 60
2, 177212, Note_on_c, 0, 58, 41
2, 177232, Note_on_c, 0, 65, 0
2, 177256, Note_on_c, 0, 58, 0
2, 177272, Note_on_c, 0, 62, 63
2, 177280, Note_on_c, 0, 54, 26
2, 177308, Note_on_c, 0, 62, 0
2, 177320, Note_on_c, 0, 54, 0
2, 177324, Control_c, 0, 64, 88
2, 177328, Control_c, 0, 64, 40
2, 177332, Note_on_c, 0, 58, 42
2, 177332, Control_c, 0, 64, 0
2, 177336, Note_on_c, 0, 53, 51
2, 177380, Note_on_c, 0, 58, 0
2, 177388, Note_on_c, 0, 53, 0
2, 177392, Note_on_c, 0, 54, 48
2, 177396, Note_on_c, 0, 62, 43
2, 177428, Note_on_c, 0, 62, 0
2, 177444, Note_on_c, 0, 54, 0
2, 177452, Note_on_c, 0, 65, 58
2, 177456, Note_on_c, 0, 58, 29
2, 177456, Control_c, 0, 64, 24
2, 177460, Control_c, 0, 64, 40
2, 177464, Control_c, 0, 64, 56
2, 177468, Control_c, 0, 64, 72
2, 177492, Note_on_c, 0, 65, 0
2, 177508, Note_on_c, 0, 58, 0
2, 177508, Note_on_c, 0, 66, 51
2, 177508, Control_c, 0, 64, 104
2, 177512, Control_c, 0, 64, 127
2, 177516, Note_on_c, 0, 62, 44
2, 177528, Note_on_c, 0, 62, 0
2, 177548, Note_on_c, 0, 66, 0
2, 177568, Note_on_c, 0, 65, 54
2, 177568, Note_on_c, 0, 70, 66
2, 177588, Note_on_c, 0, 70, 0
2, 177608, Note_on_c, 0, 65, 0
2, 177624, Note_on_c, 0, 66, 36
2, 177624, Note_on_c, 0, 74, 66
2, 177636, Control_c, 0, 64, 88
2, 177640, Note_on_c, 0, 74, 0
2, 177640, Control_c, 0, 64, 40
2, 177644, Control_c, 0, 64, 0
2, 177664, Control_c, 0, 64, 40
2, 177668, Control_c, 0, 64, 72
2, 177672, Control_c, 0, 64, 104
2, 177676, Note_on_c, 0, 66, 0
2, 177676, Control_c, 0, 64, 127
2, 177680, Note_on_c, 0, 77, 64
2, 177680, Note_on_c, 0, 70, 43
2, 177696, Note_on_c, 0, 77, 0
2, 177736, Note_on_c, 0, 78, 58
2, 177744, Note_on_c, 0, 70, 0
2, 177748, Note_on_c, 0, 74, 43
2, 177760, Note_on_c, 0, 74, 0
2, 177780, Note_on_c, 0, 78, 0
2, 177792, Note_on_c, 0, 82, 56
2, 177800, Note_on_c, 0, 82, 0
2, 177804, Note_on_c, 0, 77, 41
2, 177824, Note_on_c, 0, 77, 0
2, 177852, Note_on_c, 0, 86, 62
2, 177852, Note_on_c, 0, 78, 50
2, 177868, Note_on_c, 0, 86, 0
2, 177904, Note_on_c, 0, 78, 0
2, 177908, Note_on_c, 0, 89, 73
2, 177912, Note_on_c, 0, 82, 41
2, 177940, Note_on_c, 0, 89, 0
2, 177964, Note_on_c, 0, 90, 77
2, 177964, Note_on_c, 0, 86, 46
2, 177968, Note_on_c, 0, 82, 0
2, 178004, Note_on_c, 0, 86, 0
2, 178008, Note_on_c, 0, 90, 0
2, 178028, Note_on_c, 0, 94, 66
2, 178028, Note_on_c, 0, 89, 72
2, 178056, Note_on_c, 0, 89, 0
2, 178064, Note_on_c, 0, 94, 0
2, 178088, Note_on_c, 0, 98, 66
2, 178100, Note_on_c, 0, 90, 26
2, 178132, Note_on_c, 0, 98, 0
2, 178136, Note_on_c, 0, 90, 0
2, 178144, Note_on_c, 0, 94, 57
2, 178152, Note_on_c, 0, 89, 50
2, 178180, Note_on_c, 0, 89, 0
2, 178192, Note_on_c, 0, 94, 0
2, 178200, Note_on_c, 0, 90, 54
2, 178208, Note_on_c, 0, 86, 33
2, 178228, Note_on_c, 0, 86, 0
2, 178244, Note_on_c, 0, 90, 0
2, 178256, Note_on_c, 0, 89, 59
2, 178260, Note_on_c, 0, 82, 31
2, 178264, Control_c, 0, 64, 56
2, 178292, Note_on_c, 0, 89, 0
2, 178308, Note_on_c, 0, 98, 67
2, 178312, Note_on_c, 0, 82, 0
2, 178312, Note_on_c, 0, 90, 40
2, 178320, Control_c, 0, 64, 88
2, 178324, Control_c, 0, 64, 104
2, 178328, Control_c, 0, 64, 127
2, 178344, Note_on_c, 0, 90, 0
2, 178352, Note_on_c, 0, 98, 0
2, 178364, Note_on_c, 0, 94, 52
2, 178368, Note_on_c, 0, 89, 44
2, 178396, Note_on_c, 0, 94, 0
2, 178400, Note_on_c, 0, 89, 0
2, 178416, Note_on_c, 0, 90, 56
2, 178424, Note_on_c, 0, 86, 36
2, 178440, Note_on_c, 0, 86, 0
2, 178448, Note_on_c, 0, 90, 0
2, 178468, Note_on_c, 0, 89, 59
2, 178468, Note_on_c, 0, 82, 37
2, 178492, Note_on_c, 0, 89, 0
2, 178516, Note_on_c, 0, 82, 0
2, 178524, Note_on_c, 0, 98, 70
2, 178524, Note_on_c, 0, 90, 40
2, 178556, Note_on_c, 0, 90, 0
2, 178560, Note_on_c, 0, 98, 0
2, 178580, Note_on_c, 0, 94, 49
2, 178580, Note_on_c, 0, 89, 41
2, 178608, Note_on_c, 0, 94, 0
2, 178616, Note_on_c, 0, 89, 0
2, 178636, Note_on_c, 0, 90, 39
2, 178640, Note_on_c, 0, 86, 29
2, 178660, Note_on_c, 0, 86, 0
2, 178668, Note_on_c, 0, 90, 0
2, 178688, Note_on_c, 0, 82, 40
2, 178692, Note_on_c, 0, 89, 49
2, 178716, Note_on_c, 0, 89, 0
2, 178728, Note_on_c, 0, 82, 0
2, 178744, Note_on_c, 0, 98, 72
2, 178744, Note_on_c, 0, 90, 43
2, 178776, Note_on_c, 0, 90, 0
2, 178780, Note_on_c, 0, 98, 0
2, 178796, Note_on_c, 0, 94, 50
2, 178800, Note_on_c, 0, 89, 46
2, 178828, Note_on_c, 0, 94, 0
2, 178832, Note_on_c, 0, 89, 0
2, 178848, Note_on_c, 0, 90, 48
2, 178856, Note_on_c, 0, 86, 42
2, 178872, Note_on_c, 0, 86, 0
2, 178884, Note_on_c, 0, 90, 0
2, 178900, Note_on_c, 0, 82, 42
2, 178900, Note_on_c, 0, 89, 56
2, 178928, Note_on_c, 0, 89, 0
2, 178936, Note_on_c, 0, 82, 0
2, 178960, Note_on_c, 0, 98, 70
2, 178960, Note_on_c, 0, 90, 42
2, 178992, Note_on_c, 0, 90, 0
2, 178996, Note_on_c, 0, 98, 0
2, 179016, Note_on_c, 0, 94, 57
2, 179016, Note_on_c, 0, 89, 48
2, 179044, Note_on_c, 0, 89, 0
2, 179048, Note_on_c, 0, 94, 0
2, 179076, Note_on_c, 0, 90, 50
2, 179080, Note_on_c, 0, 86, 42
2, 179092, Note_on_c, 0, 86, 0
2, 179112, Note_on_c, 0, 82, 49
2, 179120, Note_on_c, 0, 82, 0
2, 179120, Note_on_c, 0, 90, 0
2, 179136, Note_on_c, 0, 89, 59
2, 179148, Note_on_c, 0, 89, 0
2, 179184, Note_on_c, 0, 65, 33
2, 179188, Control_c, 0, 64, 88
2, 179192, Control_c, 0, 64, 40
2, 179196, Control_c, 0, 64, 0
2, 179200, Note_on_c, 0, 70, 55
2, 179212, Control_c, 0, 64, 56
2, 179216, Note_on_c, 0, 65, 0
2, 179216, Control_c, 0, 64, 104
2, 179220, Control_c, 0, 64, 127
2, 179228, Note_on_c, 0, 77, 51
2, 179232, Note_on_c, 0, 70, 0
2, 179236, Note_on_c, 0, 86, 51
2, 179240, Note_on_c, 0, 77, 0
2, 179260, Note_on_c, 0, 86, 0
2, 179264, Note_on_c, 0, 94, 63
2, 179308, Note_on_c, 0, 94, 0
2, 179316, Note_on_c, 0, 101, 80
2, 179336, Note_on_c, 0, 101, 0
2, 179704, Note_on_c, 0, 46, 34
2, 179708, Control_c, 0, 64, 88
2, 179712, Control_c, 0, 64, 40
2, 179716, Control_c, 0, 64, 0
2, 179732, Control_c, 0, 64, 72
2, 179736, Control_c, 0, 64, 127
2, 179748, Note_on_c, 0, 53, 43
2, 179752, Note_on_c, 0, 46, 0
2, 179764, Note_on_c, 0, 53, 0
2, 179800, Note_on_c, 0, 62, 48
2, 179836, Note_on_c, 0, 62, 0
2, 180120, Control_c, 0, 64, 104
2, 180124, Control_c, 0, 64, 88
2, 180128, Control_c, 0, 64, 56
2, 180132, Control_c, 0, 64, 24
2, 180140, Control_c, 0, 64, 0
2, 180140, End_track
0, 0, End_of_file
