0, 0, Header, 0, 1, 384
1, 0, Start_track
1, 0, Tempo, 512820
1, 0, Title_t, "Etudes d'executiWilde Jagd"
1, 0, Program_c, 0, 0
1, 0, Control_c, 0, 91, 127
1, 3, Program_c, 0, 0
1, 748, Note_on_c, 0, 24, 62
1, 748, Note_on_c, 0, 36, 73
1, 748, Control_c, 0, 91, 127
1, 751, Program_c, 0, 0
1, 776, Control_c, 0, 64, 127
1, 827, Note_on_c, 0, 48, 74
1, 905, Note_on_c, 0, 48, 0
1, 905, Note_on_c, 0, 36, 0
1, 905, Note_on_c, 0, 24, 0
1, 908, Note_on_c, 0, 31, 64
1, 908, Note_on_c, 0, 43, 76
1, 908, Control_c, 0, 64, 0
1, 951, Control_c, 0, 64, 127
1, 983, Note_on_c, 0, 55, 79
1, 1061, Note_on_c, 0, 55, 0
1, 1061, Note_on_c, 0, 43, 0
1, 1061, Note_on_c, 0, 31, 0
1, 1064, Note_on_c, 0, 29, 68
1, 1064, Note_on_c, 0, 41, 81
1, 1068, Control_c, 0, 64, 0
1, 1106, Control_c, 0, 64, 127
1, 1138, Note_on_c, 0, 53, 82
1, 1214, Note_on_c, 0, 53, 0
1, 1214, Note_on_c, 0, 41, 0
1, 1214, Note_on_c, 0, 29, 0
1, 1217, Note_on_c, 0, 27, 72
1, 1217, Note_on_c, 0, 39, 85
1, 1220, Control_c, 0, 64, 0
1, 1253, Control_c, 0, 64, 127
1, 1289, Note_on_c, 0, 51, 87
1, 1363, Note_on_c, 0, 51, 0
1, 1363, Note_on_c, 0, 39, 0
1, 1363, Note_on_c, 0, 27, 0
1, 1366, Note_on_c, 0, 26, 76
1, 1366, Note_on_c, 0, 38, 90
1, 1366, Control_c, 0, 64, 0
1, 1401, Control_c, 0, 64, 127
1, 1436, Note_on_c, 0, 50, 92
1, 1508, Note_on_c, 0, 50, 0
1, 1508, Note_on_c, 0, 38, 0
1, 1508, Note_on_c, 0, 26, 0
1, 1511, Note_on_c, 0, 24, 94
1, 1511, Note_on_c, 0, 36, 114
1, 1514, Control_c, 0, 64, 0
1, 1581, Control_c, 0, 64, 127
1, 1596, Note_on_c, 0, 48, 85
1, 1830, Note_on_c, 0, 84, 101
1, 1830, Note_on_c, 0, 75, 85
1, 1830, Note_on_c, 0, 72, 85
1, 1833, Note_on_c, 0, 48, 0
1, 1833, Note_on_c, 0, 36, 0
1, 1833, Note_on_c, 0, 24, 0
1, 1836, Note_on_c, 0, 60, 102
1, 1836, Note_on_c, 0, 55, 86
1, 1836, Note_on_c, 0, 51, 86
1, 1839, Note_on_c, 0, 48, 86
1, 1839, Control_c, 0, 64, 0
1, 1899, Control_c, 0, 64, 127
1, 1908, Note_on_c, 0, 72, 0
1, 1908, Note_on_c, 0, 75, 0
1, 1908, Note_on_c, 0, 84, 0
1, 1911, Note_on_c, 0, 48, 0
1, 1911, Note_on_c, 0, 60, 0
1, 1911, Note_on_c, 0, 55, 0
1, 1914, Note_on_c, 0, 51, 0
1, 2064, Note_on_c, 0, 79, 94
1, 2064, Note_on_c, 0, 75, 79
1, 2064, Note_on_c, 0, 72, 79
1, 2067, Note_on_c, 0, 67, 79
1, 2067, Note_on_c, 0, 60, 80
1, 2067, Note_on_c, 0, 55, 67
1, 2070, Note_on_c, 0, 51, 67
1, 2070, Note_on_c, 0, 48, 67
1, 2136, Note_on_c, 0, 67, 0
1, 2136, Note_on_c, 0, 79, 0
1, 2136, Note_on_c, 0, 75, 0
1, 2139, Note_on_c, 0, 72, 0
1, 2139, Note_on_c, 0, 67, 85
1, 2139, Note_on_c, 0, 72, 85
1, 2142, Note_on_c, 0, 75, 85
1, 2142, Note_on_c, 0, 79, 101
1, 2142, Note_on_c, 0, 48, 0
1, 2145, Note_on_c, 0, 60, 0
1, 2145, Note_on_c, 0, 55, 0
1, 2145, Note_on_c, 0, 51, 0
1, 2148, Note_on_c, 0, 60, 89
1, 2148, Note_on_c, 0, 55, 75
1, 2148, Note_on_c, 0, 51, 75
1, 2151, Note_on_c, 0, 48, 75
1, 2217, Note_on_c, 0, 79, 0
1, 2217, Note_on_c, 0, 67, 0
1, 2217, Note_on_c, 0, 72, 0
1, 2220, Note_on_c, 0, 75, 0
1, 2220, Note_on_c, 0, 48, 0
1, 2220, Note_on_c, 0, 60, 0
1, 2223, Note_on_c, 0, 55, 0
1, 2223, Note_on_c, 0, 51, 0
1, 2298, Control_c, 0, 64, 0
1, 2542, Note_on_c, 0, 63, 78
1, 2542, Note_on_c, 0, 67, 78
1, 2542, Note_on_c, 0, 75, 92
1, 2545, Note_on_c, 0, 48, 60
1, 2545, Note_on_c, 0, 51, 60
1, 2545, Note_on_c, 0, 60, 72
1, 2548, Note_on_c, 0, 55, 60
1, 2548, Control_c, 0, 64, 127
1, 2615, Note_on_c, 0, 75, 0
1, 2615, Note_on_c, 0, 67, 0
1, 2615, Note_on_c, 0, 63, 0
1, 2618, Note_on_c, 0, 63, 83
1, 2618, Note_on_c, 0, 67, 83
1, 2618, Note_on_c, 0, 75, 100
1, 2621, Note_on_c, 0, 55, 0
1, 2621, Note_on_c, 0, 48, 0
1, 2621, Note_on_c, 0, 51, 0
1, 2624, Note_on_c, 0, 60, 0
1, 2624, Note_on_c, 0, 60, 82
1, 2624, Note_on_c, 0, 55, 70
1, 2627, Note_on_c, 0, 51, 70
1, 2627, Note_on_c, 0, 48, 70
1, 2691, Control_c, 0, 64, 0
1, 2696, Note_on_c, 0, 75, 0
1, 2696, Note_on_c, 0, 67, 0
1, 2696, Note_on_c, 0, 63, 0
1, 2699, Note_on_c, 0, 48, 0
1, 2699, Note_on_c, 0, 60, 0
1, 2699, Note_on_c, 0, 55, 0
1, 2702, Note_on_c, 0, 51, 0
1, 2953, Control_c, 0, 64, 127
1, 3013, Note_on_c, 0, 63, 73
1, 3013, Note_on_c, 0, 67, 73
1, 3013, Note_on_c, 0, 72, 87
1, 3016, Note_on_c, 0, 48, 59
1, 3016, Note_on_c, 0, 51, 59
1, 3016, Note_on_c, 0, 55, 59
1, 3019, Note_on_c, 0, 60, 71
1, 3089, Note_on_c, 0, 72, 0
1, 3089, Note_on_c, 0, 67, 0
1, 3089, Note_on_c, 0, 63, 0
1, 3092, Note_on_c, 0, 63, 80
1, 3092, Note_on_c, 0, 67, 80
1, 3092, Note_on_c, 0, 72, 95
1, 3095, Note_on_c, 0, 60, 0
1, 3095, Note_on_c, 0, 48, 0
1, 3095, Note_on_c, 0, 51, 0
1, 3098, Note_on_c, 0, 55, 0
1, 3098, Note_on_c, 0, 60, 80
1, 3098, Note_on_c, 0, 55, 67
1, 3101, Note_on_c, 0, 51, 67
1, 3101, Note_on_c, 0, 48, 67
1, 3174, Note_on_c, 0, 72, 0
1, 3174, Note_on_c, 0, 67, 0
1, 3174, Note_on_c, 0, 63, 0
1, 3177, Note_on_c, 0, 48, 0
1, 3177, Note_on_c, 0, 60, 0
1, 3177, Note_on_c, 0, 55, 0
1, 3180, Note_on_c, 0, 51, 0
1, 3190, Control_c, 0, 64, 0
1, 3259, Note_on_c, 0, 63, 75
1, 3259, Note_on_c, 0, 67, 75
1, 3259, Note_on_c, 0, 71, 89
1, 3262, Note_on_c, 0, 48, 59
1, 3262, Note_on_c, 0, 51, 59
1, 3262, Note_on_c, 0, 55, 59
1, 3265, Note_on_c, 0, 59, 71
1, 3344, Note_on_c, 0, 71, 0
1, 3344, Note_on_c, 0, 67, 0
1, 3344, Note_on_c, 0, 63, 0
1, 3347, Note_on_c, 0, 59, 0
1, 3347, Note_on_c, 0, 48, 0
1, 3347, Note_on_c, 0, 51, 0
1, 3350, Note_on_c, 0, 55, 0
1, 3429, Note_on_c, 0, 63, 80
1, 3429, Note_on_c, 0, 67, 80
1, 3429, Note_on_c, 0, 72, 95
1, 3432, Note_on_c, 0, 60, 80
1, 3432, Note_on_c, 0, 55, 67
1, 3432, Note_on_c, 0, 51, 67
1, 3435, Note_on_c, 0, 48, 67
1, 3514, Note_on_c, 0, 72, 0
1, 3514, Note_on_c, 0, 67, 0
1, 3514, Note_on_c, 0, 63, 0
1, 3517, Note_on_c, 0, 48, 0
1, 3517, Note_on_c, 0, 60, 0
1, 3517, Note_on_c, 0, 55, 0
1, 3520, Note_on_c, 0, 51, 0
1, 3769, Control_c, 0, 91, 127
1, 3769, Note_on_c, 0, 35, 62
1, 3769, Note_on_c, 0, 38, 73
1, 3772, Control_c, 0, 91, 127
1, 3797, Control_c, 0, 64, 127
1, 3848, Note_on_c, 0, 47, 71
1, 3848, Note_on_c, 0, 50, 74
1, 3926, Note_on_c, 0, 50, 0
1, 3926, Note_on_c, 0, 35, 0
1, 3926, Note_on_c, 0, 38, 0
1, 3929, Note_on_c, 0, 47, 0
1, 3929, Note_on_c, 0, 44, 76
1, 3929, Control_c, 0, 64, 0
1, 3971, Control_c, 0, 64, 127
1, 4004, Note_on_c, 0, 56, 79
1, 4082, Note_on_c, 0, 56, 0
1, 4082, Note_on_c, 0, 44, 0
1, 4082, Note_on_c, 0, 43, 81
1, 4089, Control_c, 0, 64, 0
1, 4127, Control_c, 0, 64, 127
1, 4159, Note_on_c, 0, 55, 82
1, 4235, Note_on_c, 0, 55, 0
1, 4235, Note_on_c, 0, 43, 0
1, 4235, Note_on_c, 0, 41, 85
1, 4242, Control_c, 0, 64, 0
1, 4275, Control_c, 0, 64, 127
1, 4310, Note_on_c, 0, 53, 87
1, 4385, Note_on_c, 0, 53, 0
1, 4385, Note_on_c, 0, 41, 0
1, 4385, Note_on_c, 0, 39, 90
1, 4390, Control_c, 0, 64, 0
1, 4423, Control_c, 0, 64, 127
1, 4458, Note_on_c, 0, 51, 92
1, 4531, Note_on_c, 0, 51, 0
1, 4531, Note_on_c, 0, 39, 0
1, 4531, Note_on_c, 0, 38, 114
1, 4537, Control_c, 0, 64, 0
1, 4604, Control_c, 0, 64, 127
1, 4619, Note_on_c, 0, 50, 85
1, 4837, Note_on_c, 0, 50, 0
1, 4837, Note_on_c, 0, 38, 0
1, 4837, Note_on_c, 0, 47, 86
1, 4849, Note_on_c, 0, 53, 86
1, 4860, Note_on_c, 0, 56, 86
1, 4871, Note_on_c, 0, 86, 101
1, 4871, Note_on_c, 0, 77, 85
1, 4871, Note_on_c, 0, 74, 85
1, 4874, Note_on_c, 0, 62, 102
1, 4879, Control_c, 0, 64, 0
1, 4940, Control_c, 0, 64, 127
1, 4949, Note_on_c, 0, 74, 0
1, 4949, Note_on_c, 0, 77, 0
1, 4949, Note_on_c, 0, 86, 0
1, 4952, Note_on_c, 0, 62, 0
1, 4952, Note_on_c, 0, 47, 0
1, 4952, Note_on_c, 0, 53, 0
1, 4955, Note_on_c, 0, 56, 0
1, 5099, Note_on_c, 0, 80, 94
1, 5099, Note_on_c, 0, 74, 79
1, 5099, Note_on_c, 0, 68, 79
1, 5102, Note_on_c, 0, 56, 80
1, 5102, Note_on_c, 0, 53, 67
1, 5102, Note_on_c, 0, 47, 67
1, 5181, Note_on_c, 0, 68, 0
1, 5181, Note_on_c, 0, 74, 0
1, 5181, Note_on_c, 0, 80, 0
1, 5184, Note_on_c, 0, 68, 85
1, 5184, Note_on_c, 0, 74, 85
1, 5184, Note_on_c, 0, 80, 101
1, 5187, Note_on_c, 0, 47, 0
1, 5187, Note_on_c, 0, 53, 0
1, 5187, Note_on_c, 0, 56, 0
1, 5190, Note_on_c, 0, 56, 89
1, 5190, Note_on_c, 0, 53, 75
1, 5190, Note_on_c, 0, 47, 75
1, 5262, Note_on_c, 0, 80, 0
1, 5262, Note_on_c, 0, 74, 0
1, 5262, Note_on_c, 0, 68, 0
1, 5265, Note_on_c, 0, 47, 0
1, 5265, Note_on_c, 0, 53, 0
1, 5265, Note_on_c, 0, 56, 0
1, 5343, Control_c, 0, 64, 0
1, 5586, Note_on_c, 0, 65, 78
1, 5586, Note_on_c, 0, 68, 78
1, 5586, Note_on_c, 0, 77, 92
1, 5589, Note_on_c, 0, 53, 60
1, 5589, Note_on_c, 0, 62, 72
1, 5589, Note_on_c, 0, 56, 60
1, 5592, Control_c, 0, 64, 127
1, 5659, Note_on_c, 0, 77, 0
1, 5659, Note_on_c, 0, 68, 0
1, 5659, Note_on_c, 0, 65, 0
1, 5662, Note_on_c, 0, 65, 83
1, 5662, Note_on_c, 0, 68, 83
1, 5662, Note_on_c, 0, 77, 100
1, 5665, Note_on_c, 0, 56, 0
1, 5665, Note_on_c, 0, 62, 0
1, 5665, Note_on_c, 0, 53, 0
1, 5668, Note_on_c, 0, 62, 82
1, 5668, Note_on_c, 0, 56, 70
1, 5668, Note_on_c, 0, 53, 70
1, 5736, Control_c, 0, 64, 0
1, 5741, Note_on_c, 0, 77, 0
1, 5741, Note_on_c, 0, 68, 0
1, 5741, Note_on_c, 0, 65, 0
1, 5744, Note_on_c, 0, 53, 0
1, 5744, Note_on_c, 0, 56, 0
1, 5744, Note_on_c, 0, 62, 0
1, 5998, Control_c, 0, 64, 127
1, 6058, Note_on_c, 0, 62, 73
1, 6058, Note_on_c, 0, 68, 73
1, 6058, Note_on_c, 0, 74, 87
1, 6061, Note_on_c, 0, 47, 59
1, 6061, Note_on_c, 0, 53, 59
1, 6061, Note_on_c, 0, 56, 71
1, 6144, Note_on_c, 0, 74, 0
1, 6144, Note_on_c, 0, 68, 0
1, 6144, Note_on_c, 0, 62, 0
1, 6147, Note_on_c, 0, 62, 80
1, 6147, Note_on_c, 0, 68, 80
1, 6147, Note_on_c, 0, 74, 95
1, 6150, Note_on_c, 0, 56, 0
1, 6150, Note_on_c, 0, 53, 0
1, 6150, Note_on_c, 0, 47, 0
1, 6153, Note_on_c, 0, 56, 80
1, 6153, Note_on_c, 0, 53, 67
1, 6153, Note_on_c, 0, 47, 67
1, 6229, Note_on_c, 0, 74, 0
1, 6229, Note_on_c, 0, 68, 0
1, 6229, Note_on_c, 0, 62, 0
1, 6232, Note_on_c, 0, 47, 0
1, 6232, Note_on_c, 0, 53, 0
1, 6232, Note_on_c, 0, 56, 0
1, 6246, Control_c, 0, 64, 0
1, 6315, Note_on_c, 0, 61, 75
1, 6315, Note_on_c, 0, 68, 75
1, 6315, Note_on_c, 0, 73, 89
1, 6318, Note_on_c, 0, 47, 59
1, 6318, Note_on_c, 0, 52, 59
1, 6318, Note_on_c, 0, 56, 71
1, 6400, Note_on_c, 0, 73, 0
1, 6400, Note_on_c, 0, 68, 0
1, 6400, Note_on_c, 0, 61, 0
1, 6403, Note_on_c, 0, 56, 0
1, 6403, Note_on_c, 0, 52, 0
1, 6403, Note_on_c, 0, 47, 0
1, 6485, Note_on_c, 0, 62, 80
1, 6485, Note_on_c, 0, 68, 80
1, 6485, Note_on_c, 0, 74, 95
1, 6488, Note_on_c, 0, 56, 80
1, 6488, Note_on_c, 0, 53, 67
1, 6488, Note_on_c, 0, 47, 67
1, 6571, Note_on_c, 0, 74, 0
1, 6571, Note_on_c, 0, 68, 0
1, 6571, Note_on_c, 0, 62, 0
1, 6574, Note_on_c, 0, 47, 0
1, 6574, Note_on_c, 0, 53, 0
1, 6574, Note_on_c, 0, 56, 0
1, 6985, Note_on_c, 0, 63, 50
1, 6985, Note_on_c, 0, 67, 50
1, 6985, Note_on_c, 0, 75, 59
1, 6988, Note_on_c, 0, 36, 50
1, 6988, Note_on_c, 0, 43, 50
1, 6988, Note_on_c, 0, 48, 59
1, 7068, Note_on_c, 0, 75, 0
1, 7068, Note_on_c, 0, 67, 0
1, 7068, Note_on_c, 0, 63, 0
1, 7071, Note_on_c, 0, 48, 0
1, 7071, Note_on_c, 0, 43, 0
1, 7071, Note_on_c, 0, 36, 0
1, 7151, Note_on_c, 0, 60, 45
1, 7151, Note_on_c, 0, 48, 38
1, 7168, Control_c, 0, 64, 127
1, 7188, Note_on_c, 0, 60, 0
1, 7188, Note_on_c, 0, 62, 46
1, 7188, Note_on_c, 0, 48, 0
1, 7191, Note_on_c, 0, 50, 40
1, 7226, Note_on_c, 0, 62, 0
1, 7226, Note_on_c, 0, 63, 49
1, 7226, Note_on_c, 0, 50, 0
1, 7229, Note_on_c, 0, 51, 42
1, 7264, Note_on_c, 0, 63, 0
1, 7264, Note_on_c, 0, 65, 50
1, 7264, Note_on_c, 0, 51, 0
1, 7267, Note_on_c, 0, 53, 44
1, 7302, Note_on_c, 0, 65, 0
1, 7302, Note_on_c, 0, 67, 53
1, 7302, Note_on_c, 0, 53, 0
1, 7305, Note_on_c, 0, 55, 46
1, 7305, Control_c, 0, 64, 0
1, 7323, Control_c, 0, 64, 127
1, 7381, Note_on_c, 0, 67, 0
1, 7381, Note_on_c, 0, 55, 0
1, 7416, Control_c, 0, 64, 0
1, 7460, Note_on_c, 0, 65, 53
1, 7460, Note_on_c, 0, 72, 53
1, 7460, Note_on_c, 0, 77, 64
1, 7463, Note_on_c, 0, 32, 45
1, 7463, Note_on_c, 0, 41, 45
1, 7463, Note_on_c, 0, 44, 53
1, 7512, Note_on_c, 0, 77, 0
1, 7512, Note_on_c, 0, 72, 0
1, 7512, Note_on_c, 0, 65, 0
1, 7515, Note_on_c, 0, 44, 0
1, 7515, Note_on_c, 0, 41, 0
1, 7515, Note_on_c, 0, 32, 0
1, 7599, Note_on_c, 0, 84, 66
1, 7599, Note_on_c, 0, 72, 55
1, 7599, Note_on_c, 0, 75, 55
1, 7602, Note_on_c, 0, 32, 47
1, 7602, Note_on_c, 0, 41, 47
1, 7602, Note_on_c, 0, 44, 56
1, 7654, Note_on_c, 0, 75, 0
1, 7654, Note_on_c, 0, 72, 0
1, 7654, Note_on_c, 0, 84, 0
1, 7657, Note_on_c, 0, 44, 0
1, 7657, Note_on_c, 0, 41, 0
1, 7657, Note_on_c, 0, 32, 0
1, 7744, Note_on_c, 0, 74, 57
1, 7744, Note_on_c, 0, 72, 57
1, 7744, Note_on_c, 0, 84, 67
1, 7747, Note_on_c, 0, 34, 51
1, 7747, Note_on_c, 0, 41, 51
1, 7747, Note_on_c, 0, 46, 61
1, 7763, Control_c, 0, 64, 0
1, 7817, Note_on_c, 0, 84, 0
1, 7817, Note_on_c, 0, 72, 0
1, 7817, Note_on_c, 0, 74, 0
1, 7820, Note_on_c, 0, 46, 0
1, 7820, Note_on_c, 0, 41, 0
1, 7820, Note_on_c, 0, 34, 0
1, 7891, Note_on_c, 0, 65, 47
1, 7891, Note_on_c, 0, 53, 40
1, 7916, Control_c, 0, 64, 127
1, 7926, Note_on_c, 0, 65, 0
1, 7926, Note_on_c, 0, 63, 48
1, 7926, Note_on_c, 0, 53, 0
1, 7929, Note_on_c, 0, 51, 41
1, 7962, Note_on_c, 0, 63, 0
1, 7962, Note_on_c, 0, 62, 50
1, 7962, Note_on_c, 0, 51, 0
1, 7965, Note_on_c, 0, 50, 43
1, 7998, Note_on_c, 0, 62, 0
1, 7998, Note_on_c, 0, 60, 52
1, 7998, Note_on_c, 0, 50, 0
1, 8001, Note_on_c, 0, 48, 46
1, 8034, Note_on_c, 0, 60, 0
1, 8034, Note_on_c, 0, 58, 55
1, 8034, Note_on_c, 0, 48, 0
1, 8037, Note_on_c, 0, 46, 48
1, 8042, Control_c, 0, 64, 0
1, 8065, Control_c, 0, 64, 127
1, 8110, Note_on_c, 0, 58, 0
1, 8110, Note_on_c, 0, 46, 0
1, 8151, Control_c, 0, 64, 0
1, 8187, Note_on_c, 0, 70, 61
1, 8187, Note_on_c, 0, 74, 61
1, 8187, Note_on_c, 0, 82, 72
1, 8190, Note_on_c, 0, 31, 51
1, 8190, Note_on_c, 0, 39, 51
1, 8190, Note_on_c, 0, 43, 61
1, 8239, Note_on_c, 0, 82, 0
1, 8239, Note_on_c, 0, 74, 0
1, 8239, Note_on_c, 0, 70, 0
1, 8242, Note_on_c, 0, 43, 0
1, 8242, Note_on_c, 0, 39, 0
1, 8242, Note_on_c, 0, 31, 0
1, 8327, Note_on_c, 0, 87, 74
1, 8327, Note_on_c, 0, 74, 62
1, 8327, Note_on_c, 0, 82, 62
1, 8330, Note_on_c, 0, 31, 53
1, 8330, Note_on_c, 0, 39, 53
1, 8330, Note_on_c, 0, 43, 63
1, 8381, Note_on_c, 0, 82, 0
1, 8381, Note_on_c, 0, 74, 0
1, 8381, Note_on_c, 0, 87, 0
1, 8384, Note_on_c, 0, 43, 0
1, 8384, Note_on_c, 0, 39, 0
1, 8384, Note_on_c, 0, 31, 0
1, 8471, Note_on_c, 0, 80, 64
1, 8471, Note_on_c, 0, 72, 64
1, 8471, Note_on_c, 0, 87, 76
1, 8474, Note_on_c, 0, 32, 58
1, 8474, Note_on_c, 0, 39, 58
1, 8474, Note_on_c, 0, 44, 70
1, 8490, Control_c, 0, 64, 0
1, 8543, Note_on_c, 0, 87, 0
1, 8543, Note_on_c, 0, 72, 0
1, 8543, Note_on_c, 0, 80, 0
1, 8546, Note_on_c, 0, 44, 0
1, 8546, Note_on_c, 0, 39, 0
1, 8546, Note_on_c, 0, 32, 0
1, 8614, Note_on_c, 0, 56, 53
1, 8614, Note_on_c, 0, 44, 45
1, 8631, Control_c, 0, 64, 127
1, 8649, Note_on_c, 0, 56, 0
1, 8649, Note_on_c, 0, 58, 54
1, 8649, Note_on_c, 0, 44, 0
1, 8652, Note_on_c, 0, 46, 46
1, 8685, Note_on_c, 0, 58, 0
1, 8685, Note_on_c, 0, 60, 57
1, 8685, Note_on_c, 0, 46, 0
1, 8688, Note_on_c, 0, 48, 48
1, 8720, Note_on_c, 0, 60, 0
1, 8720, Note_on_c, 0, 62, 58
1, 8720, Note_on_c, 0, 48, 0
1, 8723, Note_on_c, 0, 50, 52
1, 8756, Note_on_c, 0, 62, 0
1, 8756, Note_on_c, 0, 63, 63
1, 8756, Note_on_c, 0, 50, 0
1, 8759, Note_on_c, 0, 51, 54
1, 8759, Control_c, 0, 64, 0
1, 8777, Control_c, 0, 64, 127
1, 8833, Note_on_c, 0, 63, 0
1, 8833, Note_on_c, 0, 51, 0
1, 8842, Control_c, 0, 64, 0
1, 8910, Note_on_c, 0, 80, 68
1, 8910, Note_on_c, 0, 74, 68
1, 8910, Note_on_c, 0, 84, 68
1, 8913, Note_on_c, 0, 86, 81
1, 8913, Note_on_c, 0, 29, 57
1, 8913, Note_on_c, 0, 38, 57
1, 8916, Note_on_c, 0, 41, 68
1, 8963, Note_on_c, 0, 86, 0
1, 8963, Note_on_c, 0, 80, 0
1, 8963, Note_on_c, 0, 74, 0
1, 8966, Note_on_c, 0, 84, 0
1, 8966, Note_on_c, 0, 41, 0
1, 8966, Note_on_c, 0, 38, 0
1, 8969, Note_on_c, 0, 29, 0
1, 9052, Note_on_c, 0, 92, 84
1, 9052, Note_on_c, 0, 80, 70
1, 9052, Note_on_c, 0, 84, 70
1, 9055, Note_on_c, 0, 29, 60
1, 9055, Note_on_c, 0, 38, 60
1, 9055, Note_on_c, 0, 41, 71
1, 9109, Note_on_c, 0, 84, 0
1, 9109, Note_on_c, 0, 80, 0
1, 9109, Note_on_c, 0, 92, 0
1, 9112, Note_on_c, 0, 41, 0
1, 9112, Note_on_c, 0, 38, 0
1, 9112, Note_on_c, 0, 29, 0
1, 9204, Note_on_c, 0, 83, 73
1, 9204, Note_on_c, 0, 80, 73
1, 9204, Note_on_c, 0, 92, 86
1, 9207, Note_on_c, 0, 31, 65
1, 9207, Note_on_c, 0, 38, 65
1, 9207, Note_on_c, 0, 43, 78
1, 9223, Control_c, 0, 64, 0
1, 9277, Note_on_c, 0, 92, 0
1, 9277, Note_on_c, 0, 80, 0
1, 9277, Note_on_c, 0, 83, 0
1, 9280, Note_on_c, 0, 43, 0
1, 9280, Note_on_c, 0, 38, 0
1, 9280, Note_on_c, 0, 31, 0
1, 9350, Note_on_c, 0, 62, 57
1, 9350, Note_on_c, 0, 50, 48
1, 9375, Control_c, 0, 64, 127
1, 9385, Note_on_c, 0, 62, 0
1, 9385, Note_on_c, 0, 60, 58
1, 9385, Note_on_c, 0, 50, 0
1, 9388, Note_on_c, 0, 48, 51
1, 9421, Note_on_c, 0, 60, 0
1, 9421, Note_on_c, 0, 59, 61
1, 9421, Note_on_c, 0, 48, 0
1, 9424, Note_on_c, 0, 47, 53
1, 9456, Note_on_c, 0, 59, 0
1, 9456, Note_on_c, 0, 56, 63
1, 9456, Note_on_c, 0, 47, 0
1, 9459, Note_on_c, 0, 44, 56
1, 9492, Note_on_c, 0, 56, 0
1, 9492, Note_on_c, 0, 55, 68
1, 9492, Note_on_c, 0, 44, 0
1, 9495, Note_on_c, 0, 43, 59
1, 9499, Control_c, 0, 64, 0
1, 9521, Control_c, 0, 64, 127
1, 9564, Note_on_c, 0, 55, 0
1, 9564, Note_on_c, 0, 43, 0
1, 9573, Control_c, 0, 64, 0
1, 9637, Note_on_c, 0, 79, 73
1, 9637, Note_on_c, 0, 82, 73
1, 9637, Note_on_c, 0, 85, 73
1, 9640, Note_on_c, 0, 91, 88
1, 9640, Note_on_c, 0, 40, 62
1, 9640, Note_on_c, 0, 49, 62
1, 9643, Note_on_c, 0, 52, 73
1, 9695, Note_on_c, 0, 91, 0
1, 9695, Note_on_c, 0, 79, 0
1, 9695, Note_on_c, 0, 82, 0
1, 9698, Note_on_c, 0, 85, 0
1, 9698, Note_on_c, 0, 52, 0
1, 9698, Note_on_c, 0, 49, 0
1, 9701, Note_on_c, 0, 40, 0
1, 9792, Note_on_c, 0, 94, 75
1, 9792, Note_on_c, 0, 96, 90
1, 9792, Note_on_c, 0, 84, 75
1, 9795, Note_on_c, 0, 91, 75
1, 9795, Note_on_c, 0, 40, 64
1, 9795, Note_on_c, 0, 48, 64
1, 9798, Note_on_c, 0, 52, 77
1, 9852, Note_on_c, 0, 91, 0
1, 9852, Note_on_c, 0, 94, 0
1, 9852, Note_on_c, 0, 96, 0
1, 9855, Note_on_c, 0, 84, 0
1, 9855, Note_on_c, 0, 52, 0
1, 9855, Note_on_c, 0, 48, 0
1, 9858, Note_on_c, 0, 40, 0
1, 9950, Note_on_c, 0, 92, 78
1, 9950, Note_on_c, 0, 84, 78
1, 9950, Note_on_c, 0, 96, 93
1, 9953, Note_on_c, 0, 41, 70
1, 9953, Note_on_c, 0, 48, 70
1, 9953, Note_on_c, 0, 53, 84
1, 9969, Control_c, 0, 64, 0
1, 10023, Note_on_c, 0, 96, 0
1, 10023, Note_on_c, 0, 84, 0
1, 10023, Note_on_c, 0, 92, 0
1, 10026, Note_on_c, 0, 53, 0
1, 10026, Note_on_c, 0, 48, 0
1, 10026, Note_on_c, 0, 41, 0
1, 10096, Note_on_c, 0, 59, 58
1, 10096, Note_on_c, 0, 47, 49
1, 10121, Control_c, 0, 64, 127
1, 10132, Note_on_c, 0, 59, 0
1, 10132, Note_on_c, 0, 60, 60
1, 10132, Note_on_c, 0, 47, 0
1, 10135, Note_on_c, 0, 48, 52
1, 10167, Note_on_c, 0, 60, 0
1, 10167, Note_on_c, 0, 62, 63
1, 10167, Note_on_c, 0, 48, 0
1, 10170, Note_on_c, 0, 50, 54
1, 10203, Note_on_c, 0, 62, 0
1, 10203, Note_on_c, 0, 64, 66
1, 10203, Note_on_c, 0, 50, 0
1, 10206, Note_on_c, 0, 52, 58
1, 10240, Note_on_c, 0, 64, 0
1, 10240, Note_on_c, 0, 65, 70
1, 10240, Note_on_c, 0, 52, 0
1, 10243, Note_on_c, 0, 53, 61
1, 10249, Control_c, 0, 64, 0
1, 10276, Control_c, 0, 64, 127
1, 10328, Note_on_c, 0, 65, 0
1, 10328, Note_on_c, 0, 53, 0
1, 10350, Control_c, 0, 64, 0
1, 10415, Note_on_c, 0, 92, 80
1, 10415, Note_on_c, 0, 89, 80
1, 10415, Note_on_c, 0, 101, 95
1, 10418, Note_on_c, 0, 37, 72
1, 10418, Note_on_c, 0, 44, 72
1, 10418, Note_on_c, 0, 49, 86
1, 10421, Control_c, 0, 64, 127
1, 10504, Control_c, 0, 64, 0
1, 10514, Note_on_c, 0, 101, 0
1, 10514, Note_on_c, 0, 89, 0
1, 10514, Note_on_c, 0, 92, 0
1, 10517, Note_on_c, 0, 49, 0
1, 10517, Note_on_c, 0, 44, 0
1, 10517, Note_on_c, 0, 37, 0
1, 10612, Note_on_c, 0, 61, 56
1, 10612, Note_on_c, 0, 49, 53
1, 10637, Control_c, 0, 64, 127
1, 10647, Note_on_c, 0, 61, 0
1, 10647, Note_on_c, 0, 63, 57
1, 10647, Note_on_c, 0, 49, 0
1, 10650, Note_on_c, 0, 51, 55
1, 10683, Note_on_c, 0, 63, 0
1, 10683, Note_on_c, 0, 65, 60
1, 10683, Note_on_c, 0, 51, 0
1, 10686, Note_on_c, 0, 53, 57
1, 10719, Note_on_c, 0, 65, 0
1, 10719, Note_on_c, 0, 66, 62
1, 10719, Note_on_c, 0, 53, 0
1, 10722, Note_on_c, 0, 54, 59
1, 10755, Note_on_c, 0, 66, 0
1, 10755, Note_on_c, 0, 68, 75
1, 10755, Note_on_c, 0, 54, 0
1, 10758, Note_on_c, 0, 56, 67
1, 10764, Control_c, 0, 64, 0
1, 10798, Control_c, 0, 64, 127
1, 10840, Note_on_c, 0, 68, 0
1, 10840, Note_on_c, 0, 56, 0
1, 10926, Note_on_c, 0, 73, 61
1, 10926, Note_on_c, 0, 61, 55
1, 10929, Control_c, 0, 64, 0
1, 10950, Control_c, 0, 64, 127
1, 10961, Note_on_c, 0, 73, 0
1, 10961, Note_on_c, 0, 75, 62
1, 10961, Note_on_c, 0, 61, 0
1, 10964, Note_on_c, 0, 63, 57
1, 10996, Note_on_c, 0, 75, 0
1, 10996, Note_on_c, 0, 77, 65
1, 10996, Note_on_c, 0, 63, 0
1, 10999, Note_on_c, 0, 65, 59
1, 11033, Note_on_c, 0, 77, 0
1, 11033, Note_on_c, 0, 78, 67
1, 11033, Note_on_c, 0, 65, 0
1, 11036, Note_on_c, 0, 66, 61
1, 11069, Note_on_c, 0, 78, 0
1, 11069, Note_on_c, 0, 80, 79
1, 11069, Note_on_c, 0, 66, 0
1, 11072, Note_on_c, 0, 68, 70
1, 11078, Control_c, 0, 64, 0
1, 11103, Control_c, 0, 64, 127
1, 11154, Note_on_c, 0, 80, 0
1, 11154, Note_on_c, 0, 68, 0
1, 11237, Note_on_c, 0, 85, 65
1, 11237, Note_on_c, 0, 73, 57
1, 11243, Control_c, 0, 64, 0
1, 11263, Control_c, 0, 64, 127
1, 11274, Note_on_c, 0, 85, 0
1, 11274, Note_on_c, 0, 87, 66
1, 11274, Note_on_c, 0, 73, 0
1, 11277, Note_on_c, 0, 75, 59
1, 11312, Note_on_c, 0, 87, 0
1, 11312, Note_on_c, 0, 89, 69
1, 11312, Note_on_c, 0, 75, 0
1, 11315, Note_on_c, 0, 77, 61
1, 11350, Note_on_c, 0, 89, 0
1, 11350, Note_on_c, 0, 90, 71
1, 11350, Note_on_c, 0, 77, 0
1, 11353, Note_on_c, 0, 78, 64
1, 11389, Note_on_c, 0, 90, 0
1, 11389, Note_on_c, 0, 92, 84
1, 11389, Note_on_c, 0, 78, 0
1, 11392, Note_on_c, 0, 80, 72
1, 11399, Control_c, 0, 64, 0
1, 11457, Control_c, 0, 64, 127
1, 11486, Note_on_c, 0, 92, 0
1, 11486, Note_on_c, 0, 80, 0
1, 11554, Control_c, 0, 64, 0
1, 11679, Note_on_c, 0, 85, 86
1, 11679, Note_on_c, 0, 89, 86
1, 11679, Note_on_c, 0, 97, 101
1, 11682, Note_on_c, 0, 41, 76
1, 11682, Note_on_c, 0, 49, 76
1, 11682, Note_on_c, 0, 53, 91
1, 11700, Control_c, 0, 64, 127
1, 11755, Note_on_c, 0, 97, 0
1, 11755, Note_on_c, 0, 89, 0
1, 11755, Note_on_c, 0, 85, 0
1, 11758, Note_on_c, 0, 97, 96
1, 11758, Note_on_c, 0, 89, 81
1, 11758, Note_on_c, 0, 85, 81
1, 11761, Note_on_c, 0, 53, 0
1, 11761, Note_on_c, 0, 49, 0
1, 11761, Note_on_c, 0, 41, 0
1, 11764, Note_on_c, 0, 41, 68
1, 11764, Note_on_c, 0, 49, 68
1, 11764, Note_on_c, 0, 53, 81
1, 11809, Control_c, 0, 64, 0
1, 11836, Note_on_c, 0, 85, 0
1, 11836, Note_on_c, 0, 89, 0
1, 11836, Note_on_c, 0, 97, 0
1, 11839, Note_on_c, 0, 53, 0
1, 11839, Note_on_c, 0, 49, 0
1, 11839, Note_on_c, 0, 41, 0
1, 11917, Note_on_c, 0, 80, 87
1, 11917, Note_on_c, 0, 85, 87
1, 11917, Note_on_c, 0, 92, 102
1, 11920, Note_on_c, 0, 44, 75
1, 11920, Note_on_c, 0, 53, 75
1, 11920, Note_on_c, 0, 56, 90
1, 11936, Control_c, 0, 64, 127
1, 11998, Note_on_c, 0, 92, 0
1, 11998, Note_on_c, 0, 85, 0
1, 11998, Note_on_c, 0, 80, 0
1, 12001, Note_on_c, 0, 56, 0
1, 12001, Note_on_c, 0, 53, 0
1, 12001, Note_on_c, 0, 44, 0
1, 12160, Note_on_c, 0, 77, 77
1, 12160, Note_on_c, 0, 80, 77
1, 12160, Note_on_c, 0, 89, 92
1, 12163, Note_on_c, 0, 49, 69
1, 12163, Note_on_c, 0, 56, 69
1, 12163, Note_on_c, 0, 61, 82
1, 12236, Note_on_c, 0, 89, 0
1, 12236, Note_on_c, 0, 80, 0
1, 12236, Note_on_c, 0, 77, 0
1, 12239, Note_on_c, 0, 77, 77
1, 12239, Note_on_c, 0, 80, 77
1, 12239, Note_on_c, 0, 89, 92
1, 12242, Note_on_c, 0, 61, 0
1, 12242, Note_on_c, 0, 56, 0
1, 12242, Note_on_c, 0, 49, 0
1, 12245, Note_on_c, 0, 49, 69
1, 12245, Note_on_c, 0, 56, 69
1, 12245, Note_on_c, 0, 61, 82
1, 12318, Note_on_c, 0, 89, 0
1, 12318, Note_on_c, 0, 80, 0
1, 12318, Note_on_c, 0, 77, 0
1, 12321, Note_on_c, 0, 61, 0
1, 12321, Note_on_c, 0, 56, 0
1, 12321, Note_on_c, 0, 49, 0
1, 12325, Control_c, 0, 64, 0
1, 12576, Control_c, 0, 64, 127
1, 12636, Note_on_c, 0, 73, 76
1, 12636, Note_on_c, 0, 77, 76
1, 12636, Note_on_c, 0, 80, 76
1, 12639, Note_on_c, 0, 85, 91
1, 12639, Note_on_c, 0, 53, 61
1, 12639, Note_on_c, 0, 56, 61
1, 12642, Note_on_c, 0, 61, 61
1, 12642, Note_on_c, 0, 65, 74
1, 12711, Note_on_c, 0, 85, 0
1, 12711, Note_on_c, 0, 73, 0
1, 12711, Note_on_c, 0, 77, 0
1, 12714, Note_on_c, 0, 80, 0
1, 12714, Note_on_c, 0, 73, 84
1, 12714, Note_on_c, 0, 77, 84
1, 12717, Note_on_c, 0, 80, 84
1, 12717, Note_on_c, 0, 85, 99
1, 12717, Note_on_c, 0, 65, 0
1, 12720, Note_on_c, 0, 53, 0
1, 12720, Note_on_c, 0, 56, 0
1, 12720, Note_on_c, 0, 61, 0
1, 12723, Note_on_c, 0, 65, 84
1, 12723, Note_on_c, 0, 61, 70
1, 12723, Note_on_c, 0, 56, 70
1, 12726, Note_on_c, 0, 53, 70
1, 12796, Note_on_c, 0, 85, 0
1, 12796, Note_on_c, 0, 73, 0
1, 12796, Note_on_c, 0, 77, 0
1, 12799, Note_on_c, 0, 80, 0
1, 12799, Note_on_c, 0, 53, 0
1, 12799, Note_on_c, 0, 65, 0
1, 12802, Note_on_c, 0, 61, 0
1, 12802, Note_on_c, 0, 56, 0
1, 12813, Control_c, 0, 64, 0
1, 12881, Note_on_c, 0, 72, 78
1, 12881, Note_on_c, 0, 76, 78
1, 12881, Note_on_c, 0, 80, 78
1, 12884, Note_on_c, 0, 84, 93
1, 12884, Note_on_c, 0, 52, 61
1, 12884, Note_on_c, 0, 56, 61
1, 12887, Note_on_c, 0, 60, 61
1, 12887, Note_on_c, 0, 64, 74
1, 12966, Note_on_c, 0, 84, 0
1, 12966, Note_on_c, 0, 72, 0
1, 12966, Note_on_c, 0, 76, 0
1, 12969, Note_on_c, 0, 80, 0
1, 12969, Note_on_c, 0, 64, 0
1, 12969, Note_on_c, 0, 52, 0
1, 12972, Note_on_c, 0, 56, 0
1, 12972, Note_on_c, 0, 60, 0
1, 13052, Note_on_c, 0, 73, 84
1, 13052, Note_on_c, 0, 77, 84
1, 13052, Note_on_c, 0, 80, 84
1, 13055, Note_on_c, 0, 85, 99
1, 13055, Note_on_c, 0, 65, 84
1, 13055, Note_on_c, 0, 61, 70
1, 13058, Note_on_c, 0, 56, 70
1, 13058, Note_on_c, 0, 53, 70
1, 13137, Note_on_c, 0, 85, 0
1, 13137, Note_on_c, 0, 73, 0
1, 13137, Note_on_c, 0, 77, 0
1, 13140, Note_on_c, 0, 80, 0
1, 13140, Note_on_c, 0, 53, 0
1, 13140, Note_on_c, 0, 65, 0
1, 13143, Note_on_c, 0, 61, 0
1, 13143, Note_on_c, 0, 56, 0
1, 13392, Note_on_c, 0, 77, 78
1, 13392, Note_on_c, 0, 80, 78
1, 13392, Note_on_c, 0, 86, 78
1, 13395, Note_on_c, 0, 89, 88
1, 13395, Note_on_c, 0, 47, 67
1, 13395, Note_on_c, 0, 53, 67
1, 13398, Note_on_c, 0, 56, 67
1, 13398, Note_on_c, 0, 59, 75
1, 13398, Control_c, 0, 64, 0
1, 13449, Control_c, 0, 64, 127
1, 13474, Note_on_c, 0, 89, 0
1, 13474, Note_on_c, 0, 77, 0
1, 13474, Note_on_c, 0, 80, 0
1, 13477, Note_on_c, 0, 86, 0
1, 13477, Note_on_c, 0, 59, 0
1, 13477, Note_on_c, 0, 47, 0
1, 13480, Note_on_c, 0, 53, 0
1, 13480, Note_on_c, 0, 56, 0
1, 13531, Control_c, 0, 64, 0
1, 13637, Note_on_c, 0, 73, 82
1, 13637, Note_on_c, 0, 85, 97
1, 13637, Note_on_c, 0, 49, 73
1, 13640, Note_on_c, 0, 61, 87
1, 13658, Control_c, 0, 64, 127
1, 13713, Note_on_c, 0, 85, 0
1, 13713, Note_on_c, 0, 73, 0
1, 13713, Note_on_c, 0, 86, 92
1, 13716, Note_on_c, 0, 74, 78
1, 13716, Note_on_c, 0, 61, 0
1, 13716, Note_on_c, 0, 49, 0
1, 13719, Note_on_c, 0, 50, 65
1, 13719, Note_on_c, 0, 62, 78
1, 13767, Control_c, 0, 64, 0
1, 13794, Note_on_c, 0, 74, 0
1, 13794, Note_on_c, 0, 86, 0
1, 13794, Note_on_c, 0, 62, 0
1, 13797, Note_on_c, 0, 50, 0
1, 13875, Note_on_c, 0, 75, 83
1, 13875, Note_on_c, 0, 78, 83
1, 13875, Note_on_c, 0, 81, 83
1, 13878, Note_on_c, 0, 87, 98
1, 13878, Note_on_c, 0, 51, 72
1, 13878, Note_on_c, 0, 54, 72
1, 13881, Note_on_c, 0, 60, 72
1, 13881, Note_on_c, 0, 63, 86
1, 13894, Control_c, 0, 64, 127
1, 13956, Note_on_c, 0, 87, 0
1, 13956, Note_on_c, 0, 75, 0
1, 13956, Note_on_c, 0, 78, 0
1, 13959, Note_on_c, 0, 81, 0
1, 13959, Note_on_c, 0, 63, 0
1, 13959, Note_on_c, 0, 51, 0
1, 13962, Note_on_c, 0, 54, 0
1, 13962, Note_on_c, 0, 60, 0
1, 13997, Control_c, 0, 64, 0
1, 14118, Note_on_c, 0, 71, 74
1, 14118, Note_on_c, 0, 83, 88
1, 14118, Note_on_c, 0, 47, 66
1, 14121, Note_on_c, 0, 59, 79
1, 14156, Control_c, 0, 64, 127
1, 14194, Note_on_c, 0, 83, 0
1, 14194, Note_on_c, 0, 71, 0
1, 14194, Note_on_c, 0, 72, 74
1, 14197, Note_on_c, 0, 84, 88
1, 14197, Note_on_c, 0, 59, 0
1, 14197, Note_on_c, 0, 47, 0
1, 14200, Note_on_c, 0, 48, 66
1, 14200, Note_on_c, 0, 60, 79
1, 14276, Note_on_c, 0, 84, 0
1, 14276, Note_on_c, 0, 72, 0
1, 14276, Note_on_c, 0, 60, 0
1, 14279, Note_on_c, 0, 48, 0
1, 14284, Control_c, 0, 64, 0
1, 14358, Note_on_c, 0, 79, 84
1, 14358, Note_on_c, 0, 83, 90
1, 14358, Note_on_c, 0, 91, 105
1, 14361, Note_on_c, 0, 55, 64
1, 14361, Note_on_c, 0, 59, 64
1, 14361, Note_on_c, 0, 62, 64
1, 14364, Note_on_c, 0, 67, 72
1, 14433, Note_on_c, 0, 91, 0
1, 14433, Note_on_c, 0, 83, 0
1, 14433, Note_on_c, 0, 79, 0
1, 14436, Note_on_c, 0, 67, 0
1, 14436, Note_on_c, 0, 55, 0
1, 14436, Note_on_c, 0, 59, 0
1, 14439, Note_on_c, 0, 62, 0
1, 14509, Note_on_c, 0, 38, 86
1, 14514, Control_c, 0, 64, 0
1, 14555, Control_c, 0, 64, 127
1, 14587, Note_on_c, 0, 50, 84
1, 14665, Note_on_c, 0, 50, 0
1, 14665, Note_on_c, 0, 38, 0
1, 14665, Note_on_c, 0, 36, 82
1, 14672, Control_c, 0, 64, 0
1, 14710, Control_c, 0, 64, 127
1, 14742, Note_on_c, 0, 48, 81
1, 14818, Note_on_c, 0, 48, 0
1, 14818, Note_on_c, 0, 36, 0
1, 14818, Note_on_c, 0, 35, 79
1, 14824, Control_c, 0, 64, 0
1, 14857, Control_c, 0, 64, 127
1, 14893, Note_on_c, 0, 47, 78
1, 14967, Note_on_c, 0, 47, 0
1, 14967, Note_on_c, 0, 35, 0
1, 14967, Note_on_c, 0, 32, 76
1, 14972, Control_c, 0, 64, 0
1, 15005, Control_c, 0, 64, 127
1, 15040, Note_on_c, 0, 44, 74
1, 15112, Note_on_c, 0, 44, 0
1, 15112, Note_on_c, 0, 32, 0
1, 15112, Note_on_c, 0, 31, 88
1, 15119, Control_c, 0, 64, 0
1, 15185, Control_c, 0, 64, 127
1, 15201, Note_on_c, 0, 43, 70
1, 15408, Note_on_c, 0, 87, 88
1, 15408, Note_on_c, 0, 78, 74
1, 15408, Note_on_c, 0, 75, 74
1, 15411, Note_on_c, 0, 43, 0
1, 15411, Note_on_c, 0, 31, 0
1, 15411, Note_on_c, 0, 48, 61
1, 15414, Note_on_c, 0, 54, 72
1, 15414, Note_on_c, 0, 51, 61
1, 15414, Note_on_c, 0, 45, 61
1, 15417, Note_on_c, 0, 43, 61
1, 15417, Control_c, 0, 64, 0
1, 15476, Control_c, 0, 64, 127
1, 15485, Note_on_c, 0, 75, 0
1, 15485, Note_on_c, 0, 78, 0
1, 15485, Note_on_c, 0, 87, 0
1, 15488, Note_on_c, 0, 43, 0
1, 15488, Note_on_c, 0, 51, 0
1, 15488, Note_on_c, 0, 48, 0
1, 15491, Note_on_c, 0, 54, 0
1, 15491, Note_on_c, 0, 45, 0
1, 15641, Note_on_c, 0, 84, 82
1, 15641, Note_on_c, 0, 75, 69
1, 15641, Note_on_c, 0, 72, 69
1, 15644, Note_on_c, 0, 48, 47
1, 15644, Note_on_c, 0, 54, 57
1, 15644, Note_on_c, 0, 51, 47
1, 15647, Note_on_c, 0, 45, 47
1, 15647, Note_on_c, 0, 43, 47
1, 15713, Note_on_c, 0, 72, 0
1, 15713, Note_on_c, 0, 75, 0
1, 15713, Note_on_c, 0, 84, 0
1, 15716, Note_on_c, 0, 72, 74
1, 15716, Note_on_c, 0, 75, 74
1, 15716, Note_on_c, 0, 84, 88
1, 15719, Note_on_c, 0, 43, 0
1, 15719, Note_on_c, 0, 51, 0
1, 15719, Note_on_c, 0, 48, 0
1, 15722, Note_on_c, 0, 54, 0
1, 15722, Note_on_c, 0, 45, 0
1, 15722, Note_on_c, 0, 48, 54
1, 15725, Note_on_c, 0, 54, 63
1, 15725, Note_on_c, 0, 51, 54
1, 15725, Note_on_c, 0, 45, 54
1, 15728, Note_on_c, 0, 43, 54
1, 15794, Note_on_c, 0, 84, 0
1, 15794, Note_on_c, 0, 75, 0
1, 15794, Note_on_c, 0, 72, 0
1, 15797, Note_on_c, 0, 43, 0
1, 15797, Note_on_c, 0, 51, 0
1, 15797, Note_on_c, 0, 48, 0
1, 15800, Note_on_c, 0, 54, 0
1, 15800, Note_on_c, 0, 45, 0
1, 15875, Control_c, 0, 64, 0
1, 16119, Note_on_c, 0, 69, 68
1, 16119, Note_on_c, 0, 72, 68
1, 16119, Note_on_c, 0, 81, 80
1, 16122, Note_on_c, 0, 48, 43
1, 16122, Note_on_c, 0, 43, 43
1, 16122, Note_on_c, 0, 45, 43
1, 16125, Note_on_c, 0, 54, 51
1, 16125, Note_on_c, 0, 51, 43
1, 16125, Control_c, 0, 64, 127
1, 16192, Note_on_c, 0, 81, 0
1, 16192, Note_on_c, 0, 72, 0
1, 16192, Note_on_c, 0, 69, 0
1, 16195, Note_on_c, 0, 69, 72
1, 16195, Note_on_c, 0, 72, 72
1, 16195, Note_on_c, 0, 81, 88
1, 16198, Note_on_c, 0, 51, 0
1, 16198, Note_on_c, 0, 45, 0
1, 16198, Note_on_c, 0, 48, 0
1, 16201, Note_on_c, 0, 43, 0
1, 16201, Note_on_c, 0, 54, 0
1, 16201, Note_on_c, 0, 48, 50
1, 16204, Note_on_c, 0, 54, 58
1, 16204, Note_on_c, 0, 51, 50
1, 16204, Note_on_c, 0, 45, 50
1, 16207, Note_on_c, 0, 43, 50
1, 16268, Control_c, 0, 64, 0
1, 16273, Note_on_c, 0, 81, 0
1, 16273, Note_on_c, 0, 72, 0
1, 16273, Note_on_c, 0, 69, 0
1, 16276, Note_on_c, 0, 43, 0
1, 16276, Note_on_c, 0, 51, 0
1, 16276, Note_on_c, 0, 48, 0
1, 16279, Note_on_c, 0, 54, 0
1, 16279, Note_on_c, 0, 45, 0
1, 16514, Note_on_c, 0, 66, 68
1, 16514, Note_on_c, 0, 78, 80
1, 16514, Note_on_c, 0, 43, 43
1, 16517, Note_on_c, 0, 45, 43
1, 16517, Note_on_c, 0, 48, 43
1, 16517, Note_on_c, 0, 51, 43
1, 16520, Note_on_c, 0, 54, 51
1, 16555, Note_on_c, 0, 78, 0
1, 16555, Note_on_c, 0, 66, 0
1, 16555, Note_on_c, 0, 54, 0
1, 16558, Note_on_c, 0, 48, 0
1, 16558, Note_on_c, 0, 43, 0
1, 16558, Note_on_c, 0, 45, 0
1, 16561, Note_on_c, 0, 51, 0
1, 16595, Note_on_c, 0, 63, 64
1, 16595, Note_on_c, 0, 75, 76
1, 16595, Note_on_c, 0, 43, 38
1, 16598, Note_on_c, 0, 45, 38
1, 16598, Note_on_c, 0, 48, 38
1, 16598, Note_on_c, 0, 51, 38
1, 16601, Note_on_c, 0, 54, 45
1, 16635, Note_on_c, 0, 75, 0
1, 16635, Note_on_c, 0, 63, 0
1, 16635, Note_on_c, 0, 54, 0
1, 16638, Note_on_c, 0, 48, 0
1, 16638, Note_on_c, 0, 43, 0
1, 16638, Note_on_c, 0, 45, 0
1, 16641, Note_on_c, 0, 51, 0
1, 16675, Note_on_c, 0, 62, 64
1, 16675, Note_on_c, 0, 74, 76
1, 16675, Note_on_c, 0, 43, 38
1, 16678, Note_on_c, 0, 45, 38
1, 16678, Note_on_c, 0, 48, 38
1, 16678, Note_on_c, 0, 51, 38
1, 16681, Note_on_c, 0, 54, 45
1, 16717, Note_on_c, 0, 74, 0
1, 16717, Note_on_c, 0, 62, 0
1, 16717, Note_on_c, 0, 54, 0
1, 16720, Note_on_c, 0, 48, 0
1, 16720, Note_on_c, 0, 43, 0
1, 16720, Note_on_c, 0, 45, 0
1, 16723, Note_on_c, 0, 51, 0
1, 16760, Note_on_c, 0, 60, 64
1, 16760, Note_on_c, 0, 72, 76
1, 16760, Note_on_c, 0, 43, 38
1, 16763, Note_on_c, 0, 45, 38
1, 16763, Note_on_c, 0, 48, 38
1, 16763, Note_on_c, 0, 51, 38
1, 16766, Note_on_c, 0, 54, 45
1, 16803, Note_on_c, 0, 72, 0
1, 16803, Note_on_c, 0, 60, 0
1, 16803, Note_on_c, 0, 54, 0
1, 16806, Note_on_c, 0, 48, 0
1, 16806, Note_on_c, 0, 43, 0
1, 16806, Note_on_c, 0, 45, 0
1, 16809, Note_on_c, 0, 51, 0
1, 16845, Note_on_c, 0, 67, 72
1, 16845, Note_on_c, 0, 71, 72
1, 16845, Note_on_c, 0, 79, 85
1, 16848, Note_on_c, 0, 43, 45
1, 16848, Note_on_c, 0, 47, 45
1, 16848, Note_on_c, 0, 50, 45
1, 16851, Note_on_c, 0, 55, 54
1, 16857, Control_c, 0, 64, 127
1, 16904, Control_c, 0, 64, 0
1, 16927, Note_on_c, 0, 79, 0
1, 16927, Note_on_c, 0, 71, 0
1, 16927, Note_on_c, 0, 67, 0
1, 16930, Note_on_c, 0, 55, 0
1, 16930, Note_on_c, 0, 43, 0
1, 16930, Note_on_c, 0, 47, 0
1, 16933, Note_on_c, 0, 50, 0
1, 17007, Note_on_c, 0, 38, 86
1, 17012, Control_c, 0, 64, 0
1, 17052, Control_c, 0, 64, 127
1, 17085, Note_on_c, 0, 50, 84
1, 17162, Note_on_c, 0, 50, 0
1, 17162, Note_on_c, 0, 38, 0
1, 17162, Note_on_c, 0, 36, 82
1, 17169, Control_c, 0, 64, 0
1, 17207, Control_c, 0, 64, 127
1, 17238, Note_on_c, 0, 48, 81
1, 17313, Note_on_c, 0, 48, 0
1, 17313, Note_on_c, 0, 36, 0
1, 17313, Note_on_c, 0, 35, 79
1, 17320, Control_c, 0, 64, 0
1, 17352, Control_c, 0, 64, 127
1, 17387, Note_on_c, 0, 47, 78
1, 17460, Note_on_c, 0, 47, 0
1, 17460, Note_on_c, 0, 35, 0
1, 17460, Note_on_c, 0, 32, 76
1, 17465, Control_c, 0, 64, 0
1, 17497, Control_c, 0, 64, 127
1, 17531, Note_on_c, 0, 44, 74
1, 17602, Note_on_c, 0, 44, 0
1, 17602, Note_on_c, 0, 32, 0
1, 17602, Note_on_c, 0, 31, 88
1, 17609, Control_c, 0, 64, 0
1, 17660, Control_c, 0, 64, 127
1, 17691, Note_on_c, 0, 43, 70
1, 17885, Note_on_c, 0, 87, 88
1, 17885, Note_on_c, 0, 78, 74
1, 17885, Note_on_c, 0, 75, 74
1, 17888, Note_on_c, 0, 43, 0
1, 17888, Note_on_c, 0, 31, 0
1, 17888, Note_on_c, 0, 48, 61
1, 17891, Note_on_c, 0, 54, 72
1, 17891, Note_on_c, 0, 51, 61
1, 17891, Note_on_c, 0, 45, 61
1, 17894, Note_on_c, 0, 43, 61
1, 17894, Control_c, 0, 64, 0
1, 17954, Control_c, 0, 64, 127
1, 17963, Note_on_c, 0, 75, 0
1, 17963, Note_on_c, 0, 78, 0
1, 17963, Note_on_c, 0, 87, 0
1, 17966, Note_on_c, 0, 43, 0
1, 17966, Note_on_c, 0, 51, 0
1, 17966, Note_on_c, 0, 48, 0
1, 17969, Note_on_c, 0, 54, 0
1, 17969, Note_on_c, 0, 45, 0
1, 18118, Note_on_c, 0, 84, 82
1, 18118, Note_on_c, 0, 75, 69
1, 18118, Note_on_c, 0, 72, 69
1, 18121, Note_on_c, 0, 48, 47
1, 18121, Note_on_c, 0, 54, 57
1, 18121, Note_on_c, 0, 51, 47
1, 18124, Note_on_c, 0, 45, 47
1, 18124, Note_on_c, 0, 43, 47
1, 18191, Note_on_c, 0, 72, 0
1, 18191, Note_on_c, 0, 75, 0
1, 18191, Note_on_c, 0, 84, 0
1, 18194, Note_on_c, 0, 72, 74
1, 18194, Note_on_c, 0, 75, 74
1, 18194, Note_on_c, 0, 84, 88
1, 18197, Note_on_c, 0, 43, 0
1, 18197, Note_on_c, 0, 51, 0
1, 18197, Note_on_c, 0, 48, 0
1, 18200, Note_on_c, 0, 54, 0
1, 18200, Note_on_c, 0, 45, 0
1, 18200, Note_on_c, 0, 48, 54
1, 18203, Note_on_c, 0, 54, 63
1, 18203, Note_on_c, 0, 51, 54
1, 18203, Note_on_c, 0, 45, 54
1, 18206, Note_on_c, 0, 43, 54
1, 18272, Note_on_c, 0, 84, 0
1, 18272, Note_on_c, 0, 75, 0
1, 18272, Note_on_c, 0, 72, 0
1, 18275, Note_on_c, 0, 43, 0
1, 18275, Note_on_c, 0, 51, 0
1, 18275, Note_on_c, 0, 48, 0
1, 18278, Note_on_c, 0, 54, 0
1, 18278, Note_on_c, 0, 45, 0
1, 18353, Control_c, 0, 64, 0
1, 18596, Note_on_c, 0, 69, 68
1, 18596, Note_on_c, 0, 72, 68
1, 18596, Note_on_c, 0, 81, 80
1, 18599, Note_on_c, 0, 48, 43
1, 18599, Note_on_c, 0, 43, 43
1, 18599, Note_on_c, 0, 45, 43
1, 18602, Note_on_c, 0, 54, 51
1, 18602, Note_on_c, 0, 51, 43
1, 18602, Control_c, 0, 64, 127
1, 18670, Note_on_c, 0, 81, 0
1, 18670, Note_on_c, 0, 72, 0
1, 18670, Note_on_c, 0, 69, 0
1, 18673, Note_on_c, 0, 69, 72
1, 18673, Note_on_c, 0, 72, 72
1, 18673, Note_on_c, 0, 81, 88
1, 18676, Note_on_c, 0, 51, 0
1, 18676, Note_on_c, 0, 45, 0
1, 18676, Note_on_c, 0, 48, 0
1, 18679, Note_on_c, 0, 43, 0
1, 18679, Note_on_c, 0, 54, 0
1, 18679, Note_on_c, 0, 48, 50
1, 18682, Note_on_c, 0, 54, 58
1, 18682, Note_on_c, 0, 51, 50
1, 18682, Note_on_c, 0, 45, 50
1, 18685, Note_on_c, 0, 43, 50
1, 18746, Control_c, 0, 64, 0
1, 18751, Note_on_c, 0, 81, 0
1, 18751, Note_on_c, 0, 72, 0
1, 18751, Note_on_c, 0, 69, 0
1, 18754, Note_on_c, 0, 43, 0
1, 18754, Note_on_c, 0, 51, 0
1, 18754, Note_on_c, 0, 48, 0
1, 18757, Note_on_c, 0, 54, 0
1, 18757, Note_on_c, 0, 45, 0
1, 18992, Note_on_c, 0, 66, 68
1, 18992, Note_on_c, 0, 78, 80
1, 18992, Note_on_c, 0, 43, 43
1, 18995, Note_on_c, 0, 45, 43
1, 18995, Note_on_c, 0, 48, 43
1, 18995, Note_on_c, 0, 51, 43
1, 18998, Note_on_c, 0, 54, 51
1, 19032, Note_on_c, 0, 78, 0
1, 19032, Note_on_c, 0, 66, 0
1, 19032, Note_on_c, 0, 54, 0
1, 19035, Note_on_c, 0, 48, 0
1, 19035, Note_on_c, 0, 43, 0
1, 19035, Note_on_c, 0, 45, 0
1, 19038, Note_on_c, 0, 51, 0
1, 19072, Note_on_c, 0, 63, 64
1, 19072, Note_on_c, 0, 75, 76
1, 19072, Note_on_c, 0, 43, 38
1, 19075, Note_on_c, 0, 45, 38
1, 19075, Note_on_c, 0, 48, 38
1, 19075, Note_on_c, 0, 51, 38
1, 19078, Note_on_c, 0, 54, 45
1, 19113, Note_on_c, 0, 75, 0
1, 19113, Note_on_c, 0, 63, 0
1, 19113, Note_on_c, 0, 54, 0
1, 19116, Note_on_c, 0, 48, 0
1, 19116, Note_on_c, 0, 43, 0
1, 19116, Note_on_c, 0, 45, 0
1, 19119, Note_on_c, 0, 51, 0
1, 19153, Note_on_c, 0, 62, 64
1, 19153, Note_on_c, 0, 74, 76
1, 19153, Note_on_c, 0, 43, 38
1, 19156, Note_on_c, 0, 45, 38
1, 19156, Note_on_c, 0, 48, 38
1, 19156, Note_on_c, 0, 51, 38
1, 19159, Note_on_c, 0, 54, 45
1, 19195, Note_on_c, 0, 74, 0
1, 19195, Note_on_c, 0, 62, 0
1, 19195, Note_on_c, 0, 54, 0
1, 19198, Note_on_c, 0, 48, 0
1, 19198, Note_on_c, 0, 43, 0
1, 19198, Note_on_c, 0, 45, 0
1, 19201, Note_on_c, 0, 51, 0
1, 19238, Note_on_c, 0, 60, 64
1, 19238, Note_on_c, 0, 72, 76
1, 19238, Note_on_c, 0, 43, 38
1, 19241, Note_on_c, 0, 45, 38
1, 19241, Note_on_c, 0, 48, 38
1, 19241, Note_on_c, 0, 51, 38
1, 19244, Note_on_c, 0, 54, 45
1, 19280, Note_on_c, 0, 72, 0
1, 19280, Note_on_c, 0, 60, 0
1, 19280, Note_on_c, 0, 54, 0
1, 19283, Note_on_c, 0, 48, 0
1, 19283, Note_on_c, 0, 43, 0
1, 19283, Note_on_c, 0, 45, 0
1, 19286, Note_on_c, 0, 51, 0
1, 19323, Note_on_c, 0, 67, 72
1, 19323, Note_on_c, 0, 71, 72
1, 19323, Note_on_c, 0, 79, 85
1, 19326, Note_on_c, 0, 43, 45
1, 19326, Note_on_c, 0, 47, 45
1, 19326, Note_on_c, 0, 50, 45
1, 19329, Note_on_c, 0, 55, 54
1, 19373, Control_c, 0, 64, 127
1, 19411, Note_on_c, 0, 79, 0
1, 19411, Note_on_c, 0, 71, 0
1, 19411, Note_on_c, 0, 67, 0
1, 19414, Note_on_c, 0, 55, 0
1, 19414, Note_on_c, 0, 43, 0
1, 19414, Note_on_c, 0, 47, 0
1, 19417, Note_on_c, 0, 50, 0
1, 19453, Control_c, 0, 64, 0
1, 19500, Note_on_c, 0, 50, 62
1, 19500, Note_on_c, 0, 38, 52
1, 19545, Control_c, 0, 64, 127
1, 19578, Note_on_c, 0, 62, 62
1, 19656, Note_on_c, 0, 62, 0
1, 19656, Note_on_c, 0, 38, 0
1, 19656, Note_on_c, 0, 50, 0
1, 19659, Note_on_c, 0, 48, 64
1, 19659, Note_on_c, 0, 36, 54
1, 19662, Control_c, 0, 64, 0
1, 19699, Control_c, 0, 64, 127
1, 19730, Note_on_c, 0, 60, 63
1, 19803, Note_on_c, 0, 60, 0
1, 19803, Note_on_c, 0, 36, 0
1, 19803, Note_on_c, 0, 48, 0
1, 19806, Note_on_c, 0, 47, 67
1, 19806, Note_on_c, 0, 35, 56
1, 19809, Control_c, 0, 64, 0
1, 19842, Control_c, 0, 64, 127
1, 19876, Note_on_c, 0, 59, 65
1, 19949, Note_on_c, 0, 59, 0
1, 19949, Note_on_c, 0, 35, 0
1, 19949, Note_on_c, 0, 47, 0
1, 19952, Note_on_c, 0, 45, 69
1, 19952, Note_on_c, 0, 33, 58
1, 19952, Control_c, 0, 64, 0
1, 19987, Control_c, 0, 64, 127
1, 20021, Note_on_c, 0, 57, 66
1, 20093, Note_on_c, 0, 57, 0
1, 20093, Note_on_c, 0, 33, 0
1, 20093, Note_on_c, 0, 45, 0
1, 20096, Note_on_c, 0, 43, 78
1, 20096, Note_on_c, 0, 31, 66
1, 20099, Control_c, 0, 64, 0
1, 20139, Control_c, 0, 64, 127
1, 20164, Note_on_c, 0, 55, 68
1, 20235, Note_on_c, 0, 55, 0
1, 20235, Note_on_c, 0, 31, 0
1, 20235, Note_on_c, 0, 43, 0
1, 20238, Note_on_c, 0, 56, 82
1, 20238, Note_on_c, 0, 44, 69
1, 20238, Control_c, 0, 64, 0
1, 20278, Control_c, 0, 64, 127
1, 20308, Note_on_c, 0, 68, 69
1, 20381, Note_on_c, 0, 68, 0
1, 20381, Note_on_c, 0, 44, 0
1, 20381, Note_on_c, 0, 56, 0
1, 20384, Note_on_c, 0, 54, 73
1, 20384, Note_on_c, 0, 42, 62
1, 20387, Control_c, 0, 64, 0
1, 20424, Control_c, 0, 64, 127
1, 20454, Note_on_c, 0, 66, 71
1, 20526, Note_on_c, 0, 66, 0
1, 20526, Note_on_c, 0, 42, 0
1, 20526, Note_on_c, 0, 54, 0
1, 20529, Note_on_c, 0, 53, 76
1, 20529, Note_on_c, 0, 41, 64
1, 20533, Control_c, 0, 64, 0
1, 20565, Control_c, 0, 64, 127
1, 20599, Note_on_c, 0, 65, 73
1, 20671, Note_on_c, 0, 65, 0
1, 20671, Note_on_c, 0, 41, 0
1, 20671, Note_on_c, 0, 53, 0
1, 20674, Note_on_c, 0, 51, 80
1, 20674, Note_on_c, 0, 39, 68
1, 20674, Control_c, 0, 64, 0
1, 20709, Control_c, 0, 64, 127
1, 20743, Note_on_c, 0, 63, 74
1, 20815, Note_on_c, 0, 63, 0
1, 20815, Note_on_c, 0, 39, 0
1, 20815, Note_on_c, 0, 51, 0
1, 20818, Note_on_c, 0, 49, 84
1, 20818, Note_on_c, 0, 37, 60
1, 20821, Control_c, 0, 64, 0
1, 20870, Control_c, 0, 64, 127
1, 20896, Note_on_c, 0, 61, 76
1, 21030, Note_on_c, 0, 61, 0
1, 21034, Note_on_c, 0, 80, 76
1, 21034, Note_on_c, 0, 77, 76
1, 21034, Note_on_c, 0, 85, 76
1, 21037, Note_on_c, 0, 89, 90
1, 21037, Note_on_c, 0, 37, 0
1, 21037, Note_on_c, 0, 49, 0
1, 21040, Note_on_c, 0, 49, 60
1, 21040, Note_on_c, 0, 53, 60
1, 21040, Note_on_c, 0, 56, 60
1, 21043, Note_on_c, 0, 61, 71
1, 21043, Control_c, 0, 64, 0
1, 21122, Note_on_c, 0, 89, 0
1, 21122, Note_on_c, 0, 80, 0
1, 21122, Note_on_c, 0, 77, 0
1, 21125, Note_on_c, 0, 85, 0
1, 21125, Note_on_c, 0, 61, 0
1, 21125, Note_on_c, 0, 49, 0
1, 21128, Note_on_c, 0, 53, 0
1, 21128, Note_on_c, 0, 56, 0
1, 21128, Control_c, 0, 64, 127
1, 21211, Note_on_c, 0, 86, 78
1, 21211, Note_on_c, 0, 83, 78
1, 21211, Note_on_c, 0, 79, 78
1, 21214, Note_on_c, 0, 91, 92
1, 21214, Note_on_c, 0, 43, 66
1, 21214, Note_on_c, 0, 47, 66
1, 21217, Note_on_c, 0, 50, 66
1, 21217, Note_on_c, 0, 55, 78
1, 21217, Control_c, 0, 64, 0
1, 21299, Note_on_c, 0, 91, 0
1, 21299, Note_on_c, 0, 86, 0
1, 21299, Note_on_c, 0, 83, 0
1, 21302, Note_on_c, 0, 79, 0
1, 21302, Note_on_c, 0, 55, 0
1, 21302, Note_on_c, 0, 43, 0
1, 21305, Note_on_c, 0, 47, 0
1, 21305, Note_on_c, 0, 50, 0
1, 21388, Note_on_c, 0, 50, 68
1, 21388, Note_on_c, 0, 38, 57
1, 21433, Control_c, 0, 64, 127
1, 21466, Note_on_c, 0, 62, 68
1, 21544, Note_on_c, 0, 62, 0
1, 21544, Note_on_c, 0, 38, 0
1, 21544, Note_on_c, 0, 50, 0
1, 21547, Note_on_c, 0, 48, 70
1, 21547, Note_on_c, 0, 36, 59
1, 21550, Control_c, 0, 64, 0
1, 21587, Control_c, 0, 64, 127
1, 21618, Note_on_c, 0, 60, 69
1, 21691, Note_on_c, 0, 60, 0
1, 21691, Note_on_c, 0, 36, 0
1, 21691, Note_on_c, 0, 48, 0
1, 21694, Note_on_c, 0, 47, 73
1, 21694, Note_on_c, 0, 35, 61
1, 21697, Control_c, 0, 64, 0
1, 21729, Control_c, 0, 64, 127
1, 21764, Note_on_c, 0, 59, 71
1, 21837, Note_on_c, 0, 59, 0
1, 21837, Note_on_c, 0, 35, 0
1, 21837, Note_on_c, 0, 47, 0
1, 21840, Note_on_c, 0, 45, 75
1, 21840, Note_on_c, 0, 33, 63
1, 21840, Control_c, 0, 64, 0
1, 21875, Control_c, 0, 64, 127
1, 21909, Note_on_c, 0, 57, 72
1, 21981, Note_on_c, 0, 57, 0
1, 21981, Note_on_c, 0, 33, 0
1, 21981, Note_on_c, 0, 45, 0
1, 21984, Note_on_c, 0, 43, 85
1, 21984, Note_on_c, 0, 31, 72
1, 21987, Control_c, 0, 64, 0
1, 22027, Control_c, 0, 64, 127
1, 22052, Note_on_c, 0, 55, 74
1, 22123, Note_on_c, 0, 55, 0
1, 22123, Note_on_c, 0, 31, 0
1, 22123, Note_on_c, 0, 43, 0
1, 22126, Note_on_c, 0, 56, 90
1, 22126, Note_on_c, 0, 44, 75
1, 22126, Control_c, 0, 64, 0
1, 22166, Control_c, 0, 64, 127
1, 22196, Note_on_c, 0, 68, 75
1, 22269, Note_on_c, 0, 68, 0
1, 22269, Note_on_c, 0, 44, 0
1, 22269, Note_on_c, 0, 56, 0
1, 22272, Note_on_c, 0, 54, 80
1, 22272, Note_on_c, 0, 42, 68
1, 22275, Control_c, 0, 64, 0
1, 22312, Control_c, 0, 64, 127
1, 22342, Note_on_c, 0, 66, 78
1, 22414, Note_on_c, 0, 66, 0
1, 22414, Note_on_c, 0, 42, 0
1, 22414, Note_on_c, 0, 54, 0
1, 22417, Note_on_c, 0, 53, 83
1, 22417, Note_on_c, 0, 41, 70
1, 22420, Control_c, 0, 64, 0
1, 22452, Control_c, 0, 64, 127
1, 22487, Note_on_c, 0, 65, 80
1, 22559, Note_on_c, 0, 65, 0
1, 22559, Note_on_c, 0, 41, 0
1, 22559, Note_on_c, 0, 53, 0
1, 22562, Note_on_c, 0, 51, 88
1, 22562, Note_on_c, 0, 39, 74
1, 22562, Control_c, 0, 64, 0
1, 22597, Control_c, 0, 64, 127
1, 22631, Note_on_c, 0, 63, 81
1, 22702, Note_on_c, 0, 63, 0
1, 22702, Note_on_c, 0, 39, 0
1, 22702, Note_on_c, 0, 51, 0
1, 22705, Note_on_c, 0, 49, 92
1, 22705, Note_on_c, 0, 37, 66
1, 22709, Control_c, 0, 64, 0
1, 22758, Control_c, 0, 64, 127
1, 22788, Note_on_c, 0, 61, 83
1, 22922, Note_on_c, 0, 61, 0
1, 22922, Note_on_c, 0, 80, 64
1, 22922, Note_on_c, 0, 77, 64
1, 22925, Note_on_c, 0, 85, 64
1, 22925, Note_on_c, 0, 89, 76
1, 22925, Note_on_c, 0, 37, 0
1, 22928, Note_on_c, 0, 49, 0
1, 22928, Note_on_c, 0, 49, 40
1, 22928, Note_on_c, 0, 53, 40
1, 22931, Note_on_c, 0, 56, 40
1, 22931, Note_on_c, 0, 61, 56
1, 22931, Control_c, 0, 64, 0
1, 23010, Note_on_c, 0, 89, 0
1, 23010, Note_on_c, 0, 80, 0
1, 23010, Note_on_c, 0, 77, 0
1, 23013, Note_on_c, 0, 85, 0
1, 23013, Note_on_c, 0, 61, 0
1, 23013, Note_on_c, 0, 49, 0
1, 23016, Note_on_c, 0, 53, 0
1, 23016, Note_on_c, 0, 56, 0
1, 23016, Control_c, 0, 64, 127
1, 23099, Note_on_c, 0, 91, 74
1, 23099, Note_on_c, 0, 86, 74
1, 23099, Note_on_c, 0, 83, 74
1, 23102, Note_on_c, 0, 95, 89
1, 23102, Note_on_c, 0, 43, 44
1, 23102, Note_on_c, 0, 47, 44
1, 23105, Note_on_c, 0, 50, 44
1, 23105, Note_on_c, 0, 55, 62
1, 23105, Control_c, 0, 64, 0
1, 23256, Control_c, 0, 64, 127
1, 23629, Note_on_c, 0, 95, 0
1, 23629, Note_on_c, 0, 91, 0
1, 23629, Note_on_c, 0, 86, 0
1, 23632, Note_on_c, 0, 83, 0
1, 23632, Note_on_c, 0, 84, 75
1, 23632, Note_on_c, 0, 89, 75
1, 23635, Note_on_c, 0, 92, 75
1, 23635, Note_on_c, 0, 96, 90
1, 23635, Note_on_c, 0, 55, 0
1, 23638, Note_on_c, 0, 43, 0
1, 23638, Note_on_c, 0, 47, 0
1, 23638, Note_on_c, 0, 50, 0
1, 23641, Note_on_c, 0, 41, 52
1, 23641, Note_on_c, 0, 44, 52
1, 23641, Note_on_c, 0, 48, 52
1, 23644, Note_on_c, 0, 53, 62
1, 23644, Control_c, 0, 64, 0
1, 23796, Control_c, 0, 64, 127
1, 24160, Note_on_c, 0, 96, 0
1, 24160, Note_on_c, 0, 84, 0
1, 24160, Note_on_c, 0, 89, 0
1, 24163, Note_on_c, 0, 92, 0
1, 24163, Note_on_c, 0, 85, 81
1, 24163, Note_on_c, 0, 89, 81
1, 24166, Note_on_c, 0, 92, 81
1, 24166, Note_on_c, 0, 97, 96
1, 24166, Note_on_c, 0, 53, 0
1, 24169, Note_on_c, 0, 41, 0
1, 24169, Note_on_c, 0, 44, 0
1, 24169, Note_on_c, 0, 48, 0
1, 24172, Note_on_c, 0, 37, 56
1, 24172, Note_on_c, 0, 41, 56
1, 24172, Note_on_c, 0, 44, 56
1, 24175, Note_on_c, 0, 49, 67
1, 24175, Control_c, 0, 64, 0
1, 24277, Control_c, 0, 64, 127
1, 24683, Note_on_c, 0, 97, 0
1, 24683, Note_on_c, 0, 85, 0
1, 24683, Note_on_c, 0, 89, 0
1, 24686, Note_on_c, 0, 92, 0
1, 24686, Note_on_c, 0, 86, 86
1, 24686, Note_on_c, 0, 89, 86
1, 24689, Note_on_c, 0, 92, 86
1, 24689, Note_on_c, 0, 98, 102
1, 24689, Note_on_c, 0, 49, 0
1, 24692, Note_on_c, 0, 37, 0
1, 24692, Note_on_c, 0, 41, 0
1, 24692, Note_on_c, 0, 44, 0
1, 24695, Note_on_c, 0, 36, 60
1, 24695, Note_on_c, 0, 41, 60
1, 24695, Note_on_c, 0, 44, 60
1, 24698, Note_on_c, 0, 48, 72
1, 24698, Control_c, 0, 64, 0
1, 24837, Control_c, 0, 64, 127
1, 25202, Note_on_c, 0, 98, 0
1, 25202, Note_on_c, 0, 86, 0
1, 25202, Note_on_c, 0, 89, 0
1, 25205, Note_on_c, 0, 92, 0
1, 25205, Note_on_c, 0, 101, 96
1, 25205, Note_on_c, 0, 98, 96
1, 25208, Note_on_c, 0, 96, 81
1, 25208, Note_on_c, 0, 89, 81
1, 25208, Note_on_c, 0, 48, 0
1, 25211, Note_on_c, 0, 36, 0
1, 25211, Note_on_c, 0, 41, 0
1, 25211, Note_on_c, 0, 44, 0
1, 25214, Note_on_c, 0, 32, 62
1, 25214, Note_on_c, 0, 36, 62
1, 25214, Note_on_c, 0, 38, 62
1, 25217, Note_on_c, 0, 44, 73
1, 25217, Control_c, 0, 64, 0
1, 25290, Control_c, 0, 64, 127
1, 25467, Note_on_c, 0, 89, 0
1, 25467, Note_on_c, 0, 101, 0
1, 25467, Note_on_c, 0, 98, 0
1, 25470, Note_on_c, 0, 96, 0
1, 25470, Note_on_c, 0, 89, 81
1, 25470, Note_on_c, 0, 96, 81
1, 25473, Note_on_c, 0, 98, 96
1, 25473, Note_on_c, 0, 101, 96
1, 25473, Note_on_c, 0, 44, 0
1, 25476, Note_on_c, 0, 32, 0
1, 25476, Note_on_c, 0, 36, 0
1, 25476, Note_on_c, 0, 38, 0
1, 25479, Note_on_c, 0, 32, 62
1, 25479, Note_on_c, 0, 36, 62
1, 25479, Note_on_c, 0, 38, 62
1, 25482, Note_on_c, 0, 44, 73
1, 25733, Note_on_c, 0, 101, 0
1, 25733, Note_on_c, 0, 89, 0
1, 25733, Note_on_c, 0, 96, 0
1, 25736, Note_on_c, 0, 98, 0
1, 25736, Note_on_c, 0, 89, 81
1, 25736, Note_on_c, 0, 96, 81
1, 25739, Note_on_c, 0, 98, 96
1, 25739, Note_on_c, 0, 101, 96
1, 25739, Note_on_c, 0, 44, 0
1, 25742, Note_on_c, 0, 32, 0
1, 25742, Note_on_c, 0, 36, 0
1, 25742, Note_on_c, 0, 38, 0
1, 25745, Note_on_c, 0, 32, 62
1, 25745, Note_on_c, 0, 36, 62
1, 25745, Note_on_c, 0, 38, 62
1, 25748, Note_on_c, 0, 44, 73
1, 26003, Note_on_c, 0, 101, 0
1, 26003, Note_on_c, 0, 89, 0
1, 26003, Note_on_c, 0, 96, 0
1, 26006, Note_on_c, 0, 98, 0
1, 26006, Note_on_c, 0, 89, 81
1, 26006, Note_on_c, 0, 96, 81
1, 26009, Note_on_c, 0, 98, 96
1, 26009, Note_on_c, 0, 101, 96
1, 26009, Note_on_c, 0, 44, 0
1, 26012, Note_on_c, 0, 32, 0
1, 26012, Note_on_c, 0, 36, 0
1, 26012, Note_on_c, 0, 38, 0
1, 26015, Note_on_c, 0, 32, 62
1, 26015, Note_on_c, 0, 36, 62
1, 26015, Note_on_c, 0, 38, 62
1, 26018, Note_on_c, 0, 44, 73
1, 26299, Note_on_c, 0, 101, 0
1, 26299, Note_on_c, 0, 89, 0
1, 26299, Note_on_c, 0, 96, 0
1, 26302, Note_on_c, 0, 98, 0
1, 26302, Note_on_c, 0, 50, 81
1, 26302, Note_on_c, 0, 53, 81
1, 26305, Note_on_c, 0, 59, 88
1, 26305, Note_on_c, 0, 44, 0
1, 26305, Note_on_c, 0, 32, 0
1, 26308, Note_on_c, 0, 36, 0
1, 26308, Note_on_c, 0, 38, 0
1, 26308, Note_on_c, 0, 31, 57
1, 26311, Note_on_c, 0, 35, 57
1, 26311, Note_on_c, 0, 38, 57
1, 26311, Note_on_c, 0, 43, 68
1, 26314, Control_c, 0, 64, 0
1, 26403, Note_on_c, 0, 59, 0
1, 26403, Note_on_c, 0, 53, 0
1, 26403, Note_on_c, 0, 50, 0
1, 26406, Note_on_c, 0, 43, 0
1, 26406, Note_on_c, 0, 31, 0
1, 26406, Note_on_c, 0, 35, 0
1, 26409, Note_on_c, 0, 38, 0
1, 26500, Control_c, 0, 64, 127
1, 26504, Note_on_c, 0, 92, 83
1, 26504, Note_on_c, 0, 80, 69
1, 26545, Note_on_c, 0, 92, 0
1, 26545, Note_on_c, 0, 91, 82
1, 26545, Note_on_c, 0, 80, 0
1, 26548, Note_on_c, 0, 79, 68
1, 26588, Note_on_c, 0, 91, 0
1, 26588, Note_on_c, 0, 90, 81
1, 26588, Note_on_c, 0, 79, 0
1, 26591, Note_on_c, 0, 78, 66
1, 26629, Note_on_c, 0, 89, 79
1, 26629, Note_on_c, 0, 90, 0
1, 26629, Note_on_c, 0, 77, 65
1, 26632, Note_on_c, 0, 78, 0
1, 26669, Note_on_c, 0, 89, 0
1, 26669, Note_on_c, 0, 88, 78
1, 26669, Note_on_c, 0, 77, 0
1, 26672, Note_on_c, 0, 76, 63
1, 26710, Note_on_c, 0, 88, 0
1, 26710, Note_on_c, 0, 87, 77
1, 26710, Note_on_c, 0, 76, 0
1, 26713, Note_on_c, 0, 75, 62
1, 26751, Note_on_c, 0, 87, 0
1, 26751, Note_on_c, 0, 86, 75
1, 26751, Note_on_c, 0, 75, 0
1, 26754, Note_on_c, 0, 74, 60
1, 26792, Note_on_c, 0, 86, 0
1, 26792, Note_on_c, 0, 85, 74
1, 26792, Note_on_c, 0, 74, 0
1, 26795, Note_on_c, 0, 73, 59
1, 26833, Note_on_c, 0, 84, 73
1, 26833, Note_on_c, 0, 85, 0
1, 26833, Note_on_c, 0, 72, 58
1, 26836, Note_on_c, 0, 73, 0
1, 26874, Note_on_c, 0, 83, 88
1, 26874, Note_on_c, 0, 84, 0
1, 26874, Note_on_c, 0, 71, 67
1, 26877, Note_on_c, 0, 72, 0
1, 26877, Control_c, 0, 64, 0
1, 26978, Note_on_c, 0, 83, 0
1, 26978, Note_on_c, 0, 71, 0
1, 27080, Note_on_c, 0, 80, 70
1, 27080, Note_on_c, 0, 68, 58
1, 27099, Control_c, 0, 64, 127
1, 27122, Note_on_c, 0, 80, 0
1, 27122, Note_on_c, 0, 79, 69
1, 27122, Note_on_c, 0, 68, 0
1, 27125, Note_on_c, 0, 67, 57
1, 27164, Note_on_c, 0, 79, 0
1, 27164, Note_on_c, 0, 78, 68
1, 27164, Note_on_c, 0, 67, 0
1, 27167, Note_on_c, 0, 66, 56
1, 27205, Note_on_c, 0, 78, 0
1, 27205, Note_on_c, 0, 77, 67
1, 27205, Note_on_c, 0, 66, 0
1, 27208, Note_on_c, 0, 65, 55
1, 27246, Note_on_c, 0, 76, 66
1, 27246, Note_on_c, 0, 77, 0
1, 27246, Note_on_c, 0, 64, 53
1, 27249, Note_on_c, 0, 65, 0
1, 27287, Note_on_c, 0, 76, 0
1, 27287, Note_on_c, 0, 64, 0
1, 27287, Note_on_c, 0, 75, 65
1, 27287, Note_on_c, 0, 63, 52
1, 27328, Note_on_c, 0, 75, 0
1, 27328, Note_on_c, 0, 74, 63
1, 27328, Note_on_c, 0, 63, 0
1, 27331, Note_on_c, 0, 62, 51
1, 27370, Note_on_c, 0, 74, 0
1, 27370, Note_on_c, 0, 73, 62
1, 27370, Note_on_c, 0, 62, 0
1, 27373, Note_on_c, 0, 61, 50
1, 27412, Note_on_c, 0, 73, 0
1, 27412, Note_on_c, 0, 72, 62
1, 27412, Note_on_c, 0, 61, 0
1, 27415, Note_on_c, 0, 60, 49
1, 27453, Note_on_c, 0, 71, 74
1, 27453, Note_on_c, 0, 72, 0
1, 27453, Note_on_c, 0, 59, 56
1, 27456, Note_on_c, 0, 60, 0
1, 27456, Control_c, 0, 64, 0
1, 27557, Note_on_c, 0, 71, 0
1, 27557, Note_on_c, 0, 59, 0
1, 27659, Note_on_c, 0, 68, 59
1, 27659, Note_on_c, 0, 56, 49
1, 27675, Control_c, 0, 64, 127
1, 27700, Note_on_c, 0, 68, 0
1, 27700, Note_on_c, 0, 67, 58
1, 27700, Note_on_c, 0, 56, 0
1, 27703, Note_on_c, 0, 55, 48
1, 27742, Note_on_c, 0, 67, 0
1, 27742, Note_on_c, 0, 66, 57
1, 27742, Note_on_c, 0, 55, 0
1, 27745, Note_on_c, 0, 54, 47
1, 27783, Note_on_c, 0, 66, 0
1, 27783, Note_on_c, 0, 65, 56
1, 27783, Note_on_c, 0, 54, 0
1, 27786, Note_on_c, 0, 53, 46
1, 27824, Note_on_c, 0, 64, 56
1, 27824, Note_on_c, 0, 65, 0
1, 27824, Note_on_c, 0, 52, 45
1, 27827, Note_on_c, 0, 53, 0
1, 27864, Note_on_c, 0, 64, 0
1, 27864, Note_on_c, 0, 52, 0
1, 27864, Note_on_c, 0, 63, 55
1, 27864, Note_on_c, 0, 51, 44
1, 27906, Note_on_c, 0, 63, 0
1, 27906, Note_on_c, 0, 62, 53
1, 27906, Note_on_c, 0, 51, 0
1, 27909, Note_on_c, 0, 50, 43
1, 27947, Note_on_c, 0, 62, 0
1, 27947, Note_on_c, 0, 61, 52
1, 27947, Note_on_c, 0, 50, 0
1, 27950, Note_on_c, 0, 49, 42
1, 27988, Note_on_c, 0, 61, 0
1, 27988, Note_on_c, 0, 60, 52
1, 27988, Note_on_c, 0, 49, 0
1, 27991, Note_on_c, 0, 48, 41
1, 28030, Note_on_c, 0, 59, 62
1, 28030, Note_on_c, 0, 60, 0
1, 28030, Note_on_c, 0, 47, 47
1, 28033, Note_on_c, 0, 48, 0
1, 28033, Control_c, 0, 64, 0
1, 28133, Note_on_c, 0, 59, 0
1, 28133, Note_on_c, 0, 47, 0
1, 28236, Note_on_c, 0, 56, 59
1, 28236, Note_on_c, 0, 44, 49
1, 28252, Control_c, 0, 64, 127
1, 28277, Note_on_c, 0, 56, 0
1, 28277, Note_on_c, 0, 55, 58
1, 28277, Note_on_c, 0, 44, 0
1, 28280, Note_on_c, 0, 43, 48
1, 28318, Note_on_c, 0, 55, 0
1, 28318, Note_on_c, 0, 43, 0
1, 28318, Note_on_c, 0, 54, 57
1, 28318, Note_on_c, 0, 42, 47
1, 28360, Note_on_c, 0, 54, 0
1, 28360, Note_on_c, 0, 53, 56
1, 28360, Note_on_c, 0, 42, 0
1, 28363, Note_on_c, 0, 41, 46
1, 28402, Note_on_c, 0, 53, 0
1, 28402, Note_on_c, 0, 52, 56
1, 28402, Note_on_c, 0, 41, 0
1, 28405, Note_on_c, 0, 40, 45
1, 28443, Note_on_c, 0, 52, 0
1, 28443, Note_on_c, 0, 40, 0
1, 28443, Note_on_c, 0, 51, 55
1, 28443, Note_on_c, 0, 39, 44
1, 28486, Note_on_c, 0, 51, 0
1, 28486, Note_on_c, 0, 50, 53
1, 28486, Note_on_c, 0, 39, 0
1, 28489, Note_on_c, 0, 38, 43
1, 28528, Note_on_c, 0, 50, 0
1, 28528, Note_on_c, 0, 38, 0
1, 28528, Note_on_c, 0, 49, 52
1, 28528, Note_on_c, 0, 37, 42
1, 28571, Note_on_c, 0, 49, 0
1, 28571, Note_on_c, 0, 48, 52
1, 28571, Note_on_c, 0, 37, 0
1, 28574, Note_on_c, 0, 36, 41
1, 28613, Note_on_c, 0, 48, 0
1, 28613, Note_on_c, 0, 47, 48
1, 28613, Note_on_c, 0, 36, 0
1, 28616, Note_on_c, 0, 35, 39
1, 28628, Control_c, 0, 64, 0
1, 28638, Control_c, 0, 64, 127
1, 28656, Note_on_c, 0, 47, 0
1, 28656, Note_on_c, 0, 48, 50
1, 28656, Note_on_c, 0, 35, 0
1, 28659, Note_on_c, 0, 36, 40
1, 28699, Note_on_c, 0, 48, 0
1, 28699, Note_on_c, 0, 49, 52
1, 28699, Note_on_c, 0, 36, 0
1, 28702, Note_on_c, 0, 37, 41
1, 28741, Note_on_c, 0, 49, 0
1, 28741, Note_on_c, 0, 50, 54
1, 28741, Note_on_c, 0, 37, 0
1, 28744, Note_on_c, 0, 38, 43
1, 28783, Note_on_c, 0, 50, 0
1, 28783, Note_on_c, 0, 51, 56
1, 28783, Note_on_c, 0, 38, 0
1, 28786, Note_on_c, 0, 39, 44
1, 28825, Note_on_c, 0, 51, 0
1, 28825, Note_on_c, 0, 39, 0
1, 28825, Note_on_c, 0, 52, 57
1, 28825, Note_on_c, 0, 40, 45
1, 28867, Note_on_c, 0, 52, 0
1, 28867, Note_on_c, 0, 53, 60
1, 28867, Note_on_c, 0, 40, 0
1, 28870, Note_on_c, 0, 41, 46
1, 28908, Note_on_c, 0, 53, 0
1, 28908, Note_on_c, 0, 41, 0
1, 28908, Note_on_c, 0, 54, 61
1, 28908, Note_on_c, 0, 42, 48
1, 28950, Note_on_c, 0, 54, 0
1, 28950, Note_on_c, 0, 55, 63
1, 28950, Note_on_c, 0, 42, 0
1, 28953, Note_on_c, 0, 43, 49
1, 28991, Note_on_c, 0, 55, 0
1, 28991, Note_on_c, 0, 56, 65
1, 28991, Note_on_c, 0, 43, 0
1, 28994, Note_on_c, 0, 44, 50
1, 29031, Note_on_c, 0, 56, 0
1, 29031, Note_on_c, 0, 44, 0
1, 29031, Note_on_c, 0, 55, 64
1, 29031, Note_on_c, 0, 43, 49
1, 29073, Note_on_c, 0, 55, 0
1, 29073, Note_on_c, 0, 54, 62
1, 29073, Note_on_c, 0, 43, 0
1, 29076, Note_on_c, 0, 42, 48
1, 29115, Note_on_c, 0, 54, 0
1, 29115, Note_on_c, 0, 42, 0
1, 29115, Note_on_c, 0, 53, 61
1, 29118, Note_on_c, 0, 41, 46
1, 29158, Note_on_c, 0, 53, 0
1, 29158, Note_on_c, 0, 52, 60
1, 29158, Note_on_c, 0, 41, 0
1, 29161, Note_on_c, 0, 40, 45
1, 29200, Note_on_c, 0, 52, 0
1, 29200, Note_on_c, 0, 51, 58
1, 29200, Note_on_c, 0, 40, 0
1, 29203, Note_on_c, 0, 39, 44
1, 29244, Note_on_c, 0, 51, 0
1, 29244, Note_on_c, 0, 39, 0
1, 29244, Note_on_c, 0, 50, 57
1, 29244, Note_on_c, 0, 38, 43
1, 29289, Note_on_c, 0, 50, 0
1, 29289, Note_on_c, 0, 49, 56
1, 29289, Note_on_c, 0, 38, 0
1, 29292, Note_on_c, 0, 37, 42
1, 29334, Note_on_c, 0, 49, 0
1, 29334, Note_on_c, 0, 37, 0
1, 29334, Note_on_c, 0, 48, 55
1, 29337, Note_on_c, 0, 36, 41
1, 29379, Note_on_c, 0, 47, 65
1, 29379, Note_on_c, 0, 35, 56
1, 29379, Note_on_c, 0, 48, 0
1, 29379, Note_on_c, 0, 36, 0
1, 29402, Control_c, 0, 64, 0
1, 29586, Note_on_c, 0, 47, 0
1, 29586, Note_on_c, 0, 35, 0
1, 29999, Note_on_c, 0, 55, 56
1, 29999, Note_on_c, 0, 43, 56
1, 30205, Note_on_c, 0, 55, 0
1, 30205, Note_on_c, 0, 43, 0
1, 31857, Control_c, 0, 91, 127
1, 31857, Note_on_c, 0, 36, 73
1, 31857, Control_c, 0, 91, 127
1, 31884, Control_c, 0, 64, 127
1, 31935, Note_on_c, 0, 48, 74
1, 32013, Note_on_c, 0, 48, 0
1, 32013, Note_on_c, 0, 36, 0
1, 32013, Note_on_c, 0, 43, 76
1, 32019, Control_c, 0, 64, 0
1, 32059, Control_c, 0, 64, 127
1, 32092, Note_on_c, 0, 55, 79
1, 32170, Note_on_c, 0, 55, 0
1, 32170, Note_on_c, 0, 43, 0
1, 32170, Note_on_c, 0, 41, 81
1, 32176, Control_c, 0, 64, 0
1, 32215, Control_c, 0, 64, 127
1, 32246, Note_on_c, 0, 53, 82
1, 32322, Note_on_c, 0, 53, 0
1, 32322, Note_on_c, 0, 41, 0
1, 32322, Note_on_c, 0, 39, 85
1, 32329, Control_c, 0, 64, 0
1, 32362, Control_c, 0, 64, 127
1, 32397, Note_on_c, 0, 51, 87
1, 32471, Note_on_c, 0, 51, 0
1, 32471, Note_on_c, 0, 39, 0
1, 32471, Note_on_c, 0, 38, 90
1, 32477, Control_c, 0, 64, 0
1, 32509, Control_c, 0, 64, 127
1, 32544, Note_on_c, 0, 50, 92
1, 32616, Note_on_c, 0, 50, 0
1, 32616, Note_on_c, 0, 38, 0
1, 32616, Note_on_c, 0, 36, 114
1, 32623, Control_c, 0, 64, 0
1, 32689, Control_c, 0, 64, 127
1, 32705, Note_on_c, 0, 48, 85
1, 32939, Note_on_c, 0, 84, 101
1, 32939, Note_on_c, 0, 75, 85
1, 32939, Note_on_c, 0, 72, 85
1, 32942, Note_on_c, 0, 48, 0
1, 32942, Note_on_c, 0, 36, 0
1, 32942, Note_on_c, 0, 60, 102
1, 32945, Note_on_c, 0, 55, 86
1, 32945, Note_on_c, 0, 51, 86
1, 32945, Note_on_c, 0, 48, 86
1, 32945, Control_c, 0, 64, 0
1, 33007, Control_c, 0, 64, 127
1, 33016, Note_on_c, 0, 72, 0
1, 33016, Note_on_c, 0, 75, 0
1, 33016, Note_on_c, 0, 84, 0
1, 33019, Note_on_c, 0, 48, 0
1, 33019, Note_on_c, 0, 60, 0
1, 33019, Note_on_c, 0, 55, 0
1, 33022, Note_on_c, 0, 51, 0
1, 33172, Note_on_c, 0, 79, 94
1, 33172, Note_on_c, 0, 75, 79
1, 33172, Note_on_c, 0, 72, 79
1, 33175, Note_on_c, 0, 67, 79
1, 33175, Note_on_c, 0, 60, 80
1, 33175, Note_on_c, 0, 55, 67
1, 33178, Note_on_c, 0, 51, 67
1, 33178, Note_on_c, 0, 48, 67
1, 33244, Note_on_c, 0, 67, 0
1, 33244, Note_on_c, 0, 79, 0
1, 33244, Note_on_c, 0, 75, 0
1, 33247, Note_on_c, 0, 72, 0
1, 33247, Note_on_c, 0, 67, 85
1, 33247, Note_on_c, 0, 72, 85
1, 33250, Note_on_c, 0, 75, 85
1, 33250, Note_on_c, 0, 79, 101
1, 33250, Note_on_c, 0, 48, 0
1, 33253, Note_on_c, 0, 60, 0
1, 33253, Note_on_c, 0, 55, 0
1, 33253, Note_on_c, 0, 51, 0
1, 33256, Note_on_c, 0, 60, 89
1, 33256, Note_on_c, 0, 55, 75
1, 33256, Note_on_c, 0, 51, 75
1, 33259, Note_on_c, 0, 48, 75
1, 33325, Note_on_c, 0, 79, 0
1, 33325, Note_on_c, 0, 67, 0
1, 33325, Note_on_c, 0, 72, 0
1, 33328, Note_on_c, 0, 75, 0
1, 33328, Note_on_c, 0, 48, 0
1, 33328, Note_on_c, 0, 60, 0
1, 33331, Note_on_c, 0, 55, 0
1, 33331, Note_on_c, 0, 51, 0
1, 33406, Control_c, 0, 64, 0
1, 33650, Note_on_c, 0, 63, 78
1, 33650, Note_on_c, 0, 67, 78
1, 33650, Note_on_c, 0, 75, 92
1, 33653, Note_on_c, 0, 48, 60
1, 33653, Note_on_c, 0, 51, 60
1, 33653, Note_on_c, 0, 60, 72
1, 33656, Note_on_c, 0, 55, 60
1, 33656, Control_c, 0, 64, 127
1, 33723, Note_on_c, 0, 75, 0
1, 33723, Note_on_c, 0, 67, 0
1, 33723, Note_on_c, 0, 63, 0
1, 33726, Note_on_c, 0, 63, 83
1, 33726, Note_on_c, 0, 67, 83
1, 33726, Note_on_c, 0, 75, 100
1, 33729, Note_on_c, 0, 55, 0
1, 33729, Note_on_c, 0, 48, 0
1, 33729, Note_on_c, 0, 51, 0
1, 33732, Note_on_c, 0, 60, 0
1, 33732, Note_on_c, 0, 60, 82
1, 33732, Note_on_c, 0, 55, 70
1, 33735, Note_on_c, 0, 51, 70
1, 33735, Note_on_c, 0, 48, 70
1, 33799, Control_c, 0, 64, 0
1, 33804, Note_on_c, 0, 75, 0
1, 33804, Note_on_c, 0, 67, 0
1, 33804, Note_on_c, 0, 63, 0
1, 33807, Note_on_c, 0, 48, 0
1, 33807, Note_on_c, 0, 60, 0
1, 33807, Note_on_c, 0, 55, 0
1, 33810, Note_on_c, 0, 51, 0
1, 34061, Control_c, 0, 64, 127
1, 34121, Note_on_c, 0, 63, 73
1, 34121, Note_on_c, 0, 67, 73
1, 34121, Note_on_c, 0, 72, 87
1, 34124, Note_on_c, 0, 48, 59
1, 34124, Note_on_c, 0, 51, 59
1, 34124, Note_on_c, 0, 55, 59
1, 34127, Note_on_c, 0, 60, 71
1, 34199, Note_on_c, 0, 72, 0
1, 34199, Note_on_c, 0, 67, 0
1, 34199, Note_on_c, 0, 63, 0
1, 34202, Note_on_c, 0, 63, 80
1, 34202, Note_on_c, 0, 67, 80
1, 34202, Note_on_c, 0, 72, 95
1, 34205, Note_on_c, 0, 60, 0
1, 34205, Note_on_c, 0, 48, 0
1, 34205, Note_on_c, 0, 51, 0
1, 34208, Note_on_c, 0, 55, 0
1, 34208, Note_on_c, 0, 60, 80
1, 34208, Note_on_c, 0, 55, 67
1, 34211, Note_on_c, 0, 51, 67
1, 34211, Note_on_c, 0, 48, 67
1, 34288, Note_on_c, 0, 72, 0
1, 34288, Note_on_c, 0, 67, 0
1, 34288, Note_on_c, 0, 63, 0
1, 34291, Note_on_c, 0, 48, 0
1, 34291, Note_on_c, 0, 60, 0
1, 34291, Note_on_c, 0, 55, 0
1, 34294, Note_on_c, 0, 51, 0
1, 34305, Control_c, 0, 64, 0
1, 34377, Note_on_c, 0, 63, 75
1, 34377, Note_on_c, 0, 67, 75
1, 34377, Note_on_c, 0, 71, 89
1, 34380, Note_on_c, 0, 48, 59
1, 34380, Note_on_c, 0, 51, 59
1, 34380, Note_on_c, 0, 55, 59
1, 34383, Note_on_c, 0, 59, 71
1, 34462, Note_on_c, 0, 71, 0
1, 34462, Note_on_c, 0, 67, 0
1, 34462, Note_on_c, 0, 63, 0
1, 34465, Note_on_c, 0, 59, 0
1, 34465, Note_on_c, 0, 48, 0
1, 34465, Note_on_c, 0, 51, 0
1, 34468, Note_on_c, 0, 55, 0
1, 34547, Note_on_c, 0, 63, 80
1, 34547, Note_on_c, 0, 67, 80
1, 34547, Note_on_c, 0, 72, 95
1, 34550, Note_on_c, 0, 60, 80
1, 34550, Note_on_c, 0, 55, 67
1, 34550, Note_on_c, 0, 51, 67
1, 34553, Note_on_c, 0, 48, 67
1, 34632, Note_on_c, 0, 72, 0
1, 34632, Note_on_c, 0, 67, 0
1, 34632, Note_on_c, 0, 63, 0
1, 34635, Note_on_c, 0, 48, 0
1, 34635, Note_on_c, 0, 60, 0
1, 34635, Note_on_c, 0, 55, 0
1, 34638, Note_on_c, 0, 51, 0
1, 34887, Control_c, 0, 91, 127
1, 34887, Note_on_c, 0, 35, 62
1, 34887, Note_on_c, 0, 37, 73
1, 34890, Control_c, 0, 91, 127
1, 34915, Control_c, 0, 64, 127
1, 34966, Note_on_c, 0, 49, 74
1, 35044, Note_on_c, 0, 49, 0
1, 35044, Note_on_c, 0, 37, 0
1, 35044, Note_on_c, 0, 35, 0
1, 35047, Note_on_c, 0, 44, 76
1, 35047, Control_c, 0, 64, 0
1, 35090, Control_c, 0, 64, 127
1, 35122, Note_on_c, 0, 56, 79
1, 35200, Note_on_c, 0, 56, 0
1, 35200, Note_on_c, 0, 44, 0
1, 35200, Note_on_c, 0, 42, 81
1, 35207, Control_c, 0, 64, 0
1, 35245, Control_c, 0, 64, 127
1, 35277, Note_on_c, 0, 54, 82
1, 35354, Note_on_c, 0, 54, 0
1, 35354, Note_on_c, 0, 42, 0
1, 35354, Note_on_c, 0, 41, 85
1, 35360, Control_c, 0, 64, 0
1, 35393, Control_c, 0, 64, 127
1, 35429, Note_on_c, 0, 53, 87
1, 35503, Note_on_c, 0, 53, 0
1, 35503, Note_on_c, 0, 41, 0
1, 35503, Note_on_c, 0, 39, 90
1, 35508, Control_c, 0, 64, 0
1, 35542, Control_c, 0, 64, 127
1, 35576, Note_on_c, 0, 51, 92
1, 35649, Note_on_c, 0, 51, 0
1, 35649, Note_on_c, 0, 39, 0
1, 35649, Note_on_c, 0, 37, 114
1, 35656, Control_c, 0, 64, 0
1, 35722, Control_c, 0, 64, 127
1, 35738, Note_on_c, 0, 49, 85
1, 35956, Note_on_c, 0, 49, 0
1, 35956, Note_on_c, 0, 37, 0
1, 35989, Note_on_c, 0, 85, 101
1, 35989, Note_on_c, 0, 77, 85
1, 35989, Note_on_c, 0, 73, 85
1, 35992, Note_on_c, 0, 47, 86
1, 35992, Note_on_c, 0, 53, 86
1, 35992, Note_on_c, 0, 56, 86
1, 35995, Note_on_c, 0, 61, 102
1, 35995, Control_c, 0, 64, 0
1, 36058, Control_c, 0, 64, 127
1, 36067, Note_on_c, 0, 73, 0
1, 36067, Note_on_c, 0, 77, 0
1, 36067, Note_on_c, 0, 85, 0
1, 36070, Note_on_c, 0, 61, 0
1, 36070, Note_on_c, 0, 47, 0
1, 36070, Note_on_c, 0, 53, 0
1, 36073, Note_on_c, 0, 56, 0
1, 36218, Note_on_c, 0, 80, 94
1, 36218, Note_on_c, 0, 73, 79
1, 36218, Note_on_c, 0, 68, 79
1, 36221, Note_on_c, 0, 56, 80
1, 36221, Note_on_c, 0, 53, 67
1, 36221, Note_on_c, 0, 47, 67
1, 36299, Note_on_c, 0, 68, 0
1, 36299, Note_on_c, 0, 73, 0
1, 36299, Note_on_c, 0, 80, 0
1, 36302, Note_on_c, 0, 68, 85
1, 36302, Note_on_c, 0, 73, 85
1, 36302, Note_on_c, 0, 80, 101
1, 36305, Note_on_c, 0, 47, 0
1, 36305, Note_on_c, 0, 53, 0
1, 36305, Note_on_c, 0, 56, 0
1, 36308, Note_on_c, 0, 56, 89
1, 36308, Note_on_c, 0, 53, 75
1, 36308, Note_on_c, 0, 47, 75
1, 36380, Note_on_c, 0, 80, 0
1, 36380, Note_on_c, 0, 73, 0
1, 36380, Note_on_c, 0, 68, 0
1, 36383, Note_on_c, 0, 47, 0
1, 36383, Note_on_c, 0, 53, 0
1, 36383, Note_on_c, 0, 56, 0
1, 36461, Control_c, 0, 64, 0
1, 36704, Note_on_c, 0, 65, 78
1, 36704, Note_on_c, 0, 68, 78
1, 36704, Note_on_c, 0, 77, 92
1, 36707, Note_on_c, 0, 53, 60
1, 36707, Note_on_c, 0, 61, 72
1, 36707, Note_on_c, 0, 56, 60
1, 36710, Control_c, 0, 64, 127
1, 36777, Note_on_c, 0, 77, 0
1, 36777, Note_on_c, 0, 68, 0
1, 36777, Note_on_c, 0, 65, 0
1, 36780, Note_on_c, 0, 65, 83
1, 36780, Note_on_c, 0, 68, 83
1, 36780, Note_on_c, 0, 77, 100
1, 36783, Note_on_c, 0, 56, 0
1, 36783, Note_on_c, 0, 61, 0
1, 36783, Note_on_c, 0, 53, 0
1, 36786, Note_on_c, 0, 61, 82
1, 36786, Note_on_c, 0, 56, 70
1, 36786, Note_on_c, 0, 53, 70
1, 36854, Control_c, 0, 64, 0
1, 36859, Note_on_c, 0, 77, 0
1, 36859, Note_on_c, 0, 68, 0
1, 36859, Note_on_c, 0, 65, 0
1, 36862, Note_on_c, 0, 53, 0
1, 36862, Note_on_c, 0, 56, 0
1, 36862, Note_on_c, 0, 61, 0
1, 37116, Control_c, 0, 64, 127
1, 37177, Note_on_c, 0, 61, 73
1, 37177, Note_on_c, 0, 68, 73
1, 37177, Note_on_c, 0, 73, 87
1, 37180, Note_on_c, 0, 47, 59
1, 37180, Note_on_c, 0, 53, 59
1, 37180, Note_on_c, 0, 56, 71
1, 37262, Note_on_c, 0, 73, 0
1, 37262, Note_on_c, 0, 68, 0
1, 37262, Note_on_c, 0, 61, 0
1, 37265, Note_on_c, 0, 61, 80
1, 37265, Note_on_c, 0, 68, 80
1, 37265, Note_on_c, 0, 73, 95
1, 37268, Note_on_c, 0, 56, 0
1, 37268, Note_on_c, 0, 53, 0
1, 37268, Note_on_c, 0, 47, 0
1, 37271, Note_on_c, 0, 56, 80
1, 37271, Note_on_c, 0, 53, 67
1, 37271, Note_on_c, 0, 47, 67
1, 37347, Note_on_c, 0, 73, 0
1, 37347, Note_on_c, 0, 68, 0
1, 37347, Note_on_c, 0, 61, 0
1, 37350, Note_on_c, 0, 47, 0
1, 37350, Note_on_c, 0, 53, 0
1, 37350, Note_on_c, 0, 56, 0
1, 37364, Control_c, 0, 64, 0
1, 37433, Note_on_c, 0, 60, 75
1, 37433, Note_on_c, 0, 68, 75
1, 37433, Note_on_c, 0, 72, 89
1, 37436, Note_on_c, 0, 47, 59
1, 37436, Note_on_c, 0, 52, 59
1, 37436, Note_on_c, 0, 56, 71
1, 37518, Note_on_c, 0, 72, 0
1, 37518, Note_on_c, 0, 68, 0
1, 37518, Note_on_c, 0, 60, 0
1, 37521, Note_on_c, 0, 56, 0
1, 37521, Note_on_c, 0, 52, 0
1, 37521, Note_on_c, 0, 47, 0
1, 37604, Note_on_c, 0, 61, 80
1, 37604, Note_on_c, 0, 68, 80
1, 37604, Note_on_c, 0, 73, 95
1, 37607, Note_on_c, 0, 56, 80
1, 37607, Note_on_c, 0, 53, 67
1, 37607, Note_on_c, 0, 47, 67
1, 37689, Note_on_c, 0, 73, 0
1, 37689, Note_on_c, 0, 68, 0
1, 37689, Note_on_c, 0, 61, 0
1, 37692, Note_on_c, 0, 47, 0
1, 37692, Note_on_c, 0, 53, 0
1, 37692, Note_on_c, 0, 56, 0
1, 38103, Note_on_c, 0, 62, 50
1, 38103, Note_on_c, 0, 67, 50
1, 38103, Note_on_c, 0, 74, 59
1, 38106, Note_on_c, 0, 34, 50
1, 38106, Note_on_c, 0, 41, 50
1, 38106, Note_on_c, 0, 46, 59
1, 38187, Note_on_c, 0, 74, 0
1, 38187, Note_on_c, 0, 67, 0
1, 38187, Note_on_c, 0, 62, 0
1, 38190, Note_on_c, 0, 46, 0
1, 38190, Note_on_c, 0, 41, 0
1, 38190, Note_on_c, 0, 34, 0
1, 38268, Note_on_c, 0, 58, 45
1, 38268, Note_on_c, 0, 46, 38
1, 38285, Control_c, 0, 64, 127
1, 38305, Note_on_c, 0, 58, 0
1, 38305, Note_on_c, 0, 60, 46
1, 38305, Note_on_c, 0, 46, 0
1, 38308, Note_on_c, 0, 48, 40
1, 38343, Note_on_c, 0, 60, 0
1, 38343, Note_on_c, 0, 62, 49
1, 38343, Note_on_c, 0, 48, 0
1, 38346, Note_on_c, 0, 50, 42
1, 38381, Note_on_c, 0, 62, 0
1, 38381, Note_on_c, 0, 63, 50
1, 38381, Note_on_c, 0, 50, 0
1, 38384, Note_on_c, 0, 51, 44
1, 38418, Note_on_c, 0, 63, 0
1, 38418, Note_on_c, 0, 65, 53
1, 38418, Note_on_c, 0, 51, 0
1, 38421, Note_on_c, 0, 53, 46
1, 38421, Control_c, 0, 64, 0
1, 38439, Control_c, 0, 64, 127
1, 38497, Note_on_c, 0, 65, 0
1, 38497, Note_on_c, 0, 53, 0
1, 38506, Control_c, 0, 64, 0
1, 38575, Note_on_c, 0, 63, 53
1, 38575, Note_on_c, 0, 66, 53
1, 38575, Note_on_c, 0, 75, 64
1, 38578, Note_on_c, 0, 34, 45
1, 38578, Note_on_c, 0, 42, 45
1, 38578, Note_on_c, 0, 46, 53
1, 38598, Control_c, 0, 64, 127
1, 38645, Note_on_c, 0, 75, 0
1, 38645, Note_on_c, 0, 66, 0
1, 38645, Note_on_c, 0, 63, 0
1, 38648, Note_on_c, 0, 46, 0
1, 38648, Note_on_c, 0, 42, 0
1, 38648, Note_on_c, 0, 34, 0
1, 38715, Note_on_c, 0, 78, 66
1, 38715, Note_on_c, 0, 66, 55
1, 38715, Note_on_c, 0, 70, 55
1, 38718, Note_on_c, 0, 34, 47
1, 38718, Note_on_c, 0, 39, 47
1, 38718, Note_on_c, 0, 46, 56
1, 38787, Note_on_c, 0, 70, 0
1, 38787, Note_on_c, 0, 66, 0
1, 38787, Note_on_c, 0, 78, 0
1, 38790, Note_on_c, 0, 46, 0
1, 38790, Note_on_c, 0, 39, 0
1, 38790, Note_on_c, 0, 34, 0
1, 38859, Note_on_c, 0, 74, 57
1, 38859, Note_on_c, 0, 70, 57
1, 38859, Note_on_c, 0, 82, 67
1, 38862, Note_on_c, 0, 34, 51
1, 38862, Note_on_c, 0, 41, 51
1, 38862, Note_on_c, 0, 46, 61
1, 38877, Control_c, 0, 64, 0
1, 38928, Note_on_c, 0, 82, 0
1, 38928, Note_on_c, 0, 70, 0
1, 38928, Note_on_c, 0, 74, 0
1, 38931, Note_on_c, 0, 46, 0
1, 38931, Note_on_c, 0, 41, 0
1, 38931, Note_on_c, 0, 34, 0
1, 38997, Note_on_c, 0, 65, 47
1, 38997, Note_on_c, 0, 53, 40
1, 39021, Control_c, 0, 64, 127
1, 39032, Note_on_c, 0, 65, 0
1, 39032, Note_on_c, 0, 63, 48
1, 39032, Note_on_c, 0, 53, 0
1, 39035, Note_on_c, 0, 51, 41
1, 39067, Note_on_c, 0, 63, 0
1, 39067, Note_on_c, 0, 62, 50
1, 39067, Note_on_c, 0, 51, 0
1, 39070, Note_on_c, 0, 50, 43
1, 39103, Note_on_c, 0, 62, 0
1, 39103, Note_on_c, 0, 60, 52
1, 39103, Note_on_c, 0, 50, 0
1, 39106, Note_on_c, 0, 48, 46
1, 39138, Note_on_c, 0, 60, 0
1, 39138, Note_on_c, 0, 58, 55
1, 39138, Note_on_c, 0, 48, 0
1, 39141, Note_on_c, 0, 46, 48
1, 39146, Control_c, 0, 64, 0
1, 39170, Control_c, 0, 64, 127
1, 39215, Note_on_c, 0, 58, 0
1, 39215, Note_on_c, 0, 46, 0
1, 39224, Control_c, 0, 64, 0
1, 39291, Note_on_c, 0, 71, 61
1, 39291, Note_on_c, 0, 75, 61
1, 39291, Note_on_c, 0, 83, 72
1, 39294, Note_on_c, 0, 33, 51
1, 39294, Note_on_c, 0, 42, 51
1, 39294, Note_on_c, 0, 45, 61
1, 39314, Control_c, 0, 64, 127
1, 39361, Note_on_c, 0, 83, 0
1, 39361, Note_on_c, 0, 75, 0
1, 39361, Note_on_c, 0, 71, 0
1, 39364, Note_on_c, 0, 45, 0
1, 39364, Note_on_c, 0, 42, 0
1, 39364, Note_on_c, 0, 33, 0
1, 39431, Note_on_c, 0, 87, 74
1, 39431, Note_on_c, 0, 75, 62
1, 39431, Note_on_c, 0, 83, 62
1, 39434, Note_on_c, 0, 33, 53
1, 39434, Note_on_c, 0, 42, 53
1, 39434, Note_on_c, 0, 45, 63
1, 39504, Note_on_c, 0, 83, 0
1, 39504, Note_on_c, 0, 75, 0
1, 39504, Note_on_c, 0, 87, 0
1, 39507, Note_on_c, 0, 45, 0
1, 39507, Note_on_c, 0, 42, 0
1, 39507, Note_on_c, 0, 33, 0
1, 39576, Note_on_c, 0, 83, 64
1, 39576, Note_on_c, 0, 76, 64
1, 39576, Note_on_c, 0, 88, 76
1, 39579, Note_on_c, 0, 32, 58
1, 39579, Note_on_c, 0, 40, 58
1, 39579, Note_on_c, 0, 44, 70
1, 39594, Control_c, 0, 64, 0
1, 39647, Note_on_c, 0, 88, 0
1, 39647, Note_on_c, 0, 76, 0
1, 39647, Note_on_c, 0, 83, 0
1, 39650, Note_on_c, 0, 44, 0
1, 39650, Note_on_c, 0, 40, 0
1, 39650, Note_on_c, 0, 32, 0
1, 39719, Note_on_c, 0, 64, 53
1, 39719, Note_on_c, 0, 52, 45
1, 39735, Control_c, 0, 64, 127
1, 39754, Note_on_c, 0, 64, 0
1, 39754, Note_on_c, 0, 66, 54
1, 39754, Note_on_c, 0, 52, 0
1, 39757, Note_on_c, 0, 54, 46
1, 39790, Note_on_c, 0, 66, 0
1, 39790, Note_on_c, 0, 68, 57
1, 39790, Note_on_c, 0, 54, 0
1, 39793, Note_on_c, 0, 56, 48
1, 39826, Note_on_c, 0, 68, 0
1, 39826, Note_on_c, 0, 69, 58
1, 39826, Note_on_c, 0, 56, 0
1, 39829, Note_on_c, 0, 57, 52
1, 39861, Note_on_c, 0, 69, 0
1, 39861, Note_on_c, 0, 71, 63
1, 39861, Note_on_c, 0, 57, 0
1, 39864, Note_on_c, 0, 59, 54
1, 39864, Control_c, 0, 64, 0
1, 39882, Control_c, 0, 64, 127
1, 39938, Note_on_c, 0, 71, 0
1, 39938, Note_on_c, 0, 59, 0
1, 39947, Control_c, 0, 64, 0
1, 40015, Note_on_c, 0, 75, 68
1, 40015, Note_on_c, 0, 84, 68
1, 40015, Note_on_c, 0, 87, 81
1, 40018, Note_on_c, 0, 33, 57
1, 40018, Note_on_c, 0, 42, 57
1, 40018, Note_on_c, 0, 45, 68
1, 40038, Control_c, 0, 64, 127
1, 40086, Note_on_c, 0, 87, 0
1, 40086, Note_on_c, 0, 84, 0
1, 40086, Note_on_c, 0, 75, 0
1, 40089, Note_on_c, 0, 45, 0
1, 40089, Note_on_c, 0, 42, 0
1, 40089, Note_on_c, 0, 33, 0
1, 40157, Note_on_c, 0, 96, 84
1, 40157, Note_on_c, 0, 84, 70
1, 40157, Note_on_c, 0, 87, 70
1, 40160, Note_on_c, 0, 33, 60
1, 40160, Note_on_c, 0, 42, 60
1, 40160, Note_on_c, 0, 45, 71
1, 40233, Note_on_c, 0, 87, 0
1, 40233, Note_on_c, 0, 84, 0
1, 40233, Note_on_c, 0, 96, 0
1, 40236, Note_on_c, 0, 45, 0
1, 40236, Note_on_c, 0, 42, 0
1, 40236, Note_on_c, 0, 33, 0
1, 40309, Note_on_c, 0, 88, 73
1, 40309, Note_on_c, 0, 83, 73
1, 40309, Note_on_c, 0, 95, 86
1, 40312, Note_on_c, 0, 32, 65
1, 40312, Note_on_c, 0, 40, 65
1, 40312, Note_on_c, 0, 44, 78
1, 40328, Control_c, 0, 64, 0
1, 40382, Note_on_c, 0, 95, 0
1, 40382, Note_on_c, 0, 83, 0
1, 40382, Note_on_c, 0, 88, 0
1, 40385, Note_on_c, 0, 44, 0
1, 40385, Note_on_c, 0, 40, 0
1, 40385, Note_on_c, 0, 32, 0
1, 40455, Note_on_c, 0, 71, 57
1, 40455, Note_on_c, 0, 59, 48
1, 40479, Control_c, 0, 64, 127
1, 40489, Note_on_c, 0, 71, 0
1, 40489, Note_on_c, 0, 69, 58
1, 40489, Note_on_c, 0, 59, 0
1, 40492, Note_on_c, 0, 57, 51
1, 40524, Note_on_c, 0, 69, 0
1, 40524, Note_on_c, 0, 68, 61
1, 40524, Note_on_c, 0, 57, 0
1, 40527, Note_on_c, 0, 56, 53
1, 40559, Note_on_c, 0, 68, 0
1, 40559, Note_on_c, 0, 66, 63
1, 40559, Note_on_c, 0, 56, 0
1, 40562, Note_on_c, 0, 54, 56
1, 40595, Note_on_c, 0, 66, 0
1, 40595, Note_on_c, 0, 64, 68
1, 40595, Note_on_c, 0, 54, 0
1, 40598, Note_on_c, 0, 52, 59
1, 40602, Control_c, 0, 64, 0
1, 40624, Control_c, 0, 64, 127
1, 40667, Note_on_c, 0, 64, 0
1, 40667, Note_on_c, 0, 52, 0
1, 40676, Control_c, 0, 64, 0
1, 40740, Note_on_c, 0, 82, 73
1, 40740, Note_on_c, 0, 85, 73
1, 40740, Note_on_c, 0, 94, 88
1, 40743, Note_on_c, 0, 31, 62
1, 40743, Note_on_c, 0, 40, 62
1, 40743, Note_on_c, 0, 43, 73
1, 40765, Control_c, 0, 64, 127
1, 40818, Note_on_c, 0, 94, 0
1, 40818, Note_on_c, 0, 85, 0
1, 40818, Note_on_c, 0, 82, 0
1, 40821, Note_on_c, 0, 43, 0
1, 40821, Note_on_c, 0, 40, 0
1, 40821, Note_on_c, 0, 31, 0
1, 40895, Note_on_c, 0, 97, 90
1, 40895, Note_on_c, 0, 85, 75
1, 40895, Note_on_c, 0, 94, 75
1, 40898, Note_on_c, 0, 31, 64
1, 40898, Note_on_c, 0, 40, 64
1, 40898, Note_on_c, 0, 43, 77
1, 40974, Note_on_c, 0, 94, 0
1, 40974, Note_on_c, 0, 85, 0
1, 40974, Note_on_c, 0, 97, 0
1, 40977, Note_on_c, 0, 43, 0
1, 40977, Note_on_c, 0, 40, 0
1, 40977, Note_on_c, 0, 31, 0
1, 41053, Note_on_c, 0, 93, 78
1, 41053, Note_on_c, 0, 86, 78
1, 41053, Note_on_c, 0, 98, 93
1, 41056, Note_on_c, 0, 30, 70
1, 41056, Note_on_c, 0, 38, 70
1, 41056, Note_on_c, 0, 42, 84
1, 41072, Control_c, 0, 64, 0
1, 41126, Note_on_c, 0, 98, 0
1, 41126, Note_on_c, 0, 86, 0
1, 41126, Note_on_c, 0, 93, 0
1, 41129, Note_on_c, 0, 42, 0
1, 41129, Note_on_c, 0, 38, 0
1, 41129, Note_on_c, 0, 30, 0
1, 41199, Note_on_c, 0, 62, 58
1, 41199, Note_on_c, 0, 50, 49
1, 41224, Control_c, 0, 64, 127
1, 41235, Note_on_c, 0, 62, 0
1, 41235, Note_on_c, 0, 64, 60
1, 41235, Note_on_c, 0, 50, 0
1, 41238, Note_on_c, 0, 52, 52
1, 41270, Note_on_c, 0, 64, 0
1, 41270, Note_on_c, 0, 66, 63
1, 41270, Note_on_c, 0, 52, 0
1, 41273, Note_on_c, 0, 54, 54
1, 41306, Note_on_c, 0, 66, 0
1, 41306, Note_on_c, 0, 67, 66
1, 41306, Note_on_c, 0, 54, 0
1, 41309, Note_on_c, 0, 55, 58
1, 41343, Note_on_c, 0, 67, 0
1, 41343, Note_on_c, 0, 69, 70
1, 41343, Note_on_c, 0, 55, 0
1, 41346, Note_on_c, 0, 57, 61
1, 41352, Control_c, 0, 64, 0
1, 41379, Control_c, 0, 64, 127
1, 41431, Note_on_c, 0, 69, 0
1, 41431, Note_on_c, 0, 57, 0
1, 41453, Control_c, 0, 64, 0
1, 41518, Note_on_c, 0, 95, 80
1, 41518, Note_on_c, 0, 92, 80
1, 41518, Note_on_c, 0, 86, 80
1, 41521, Note_on_c, 0, 98, 95
1, 41521, Note_on_c, 0, 29, 72
1, 41521, Note_on_c, 0, 38, 72
1, 41524, Note_on_c, 0, 41, 86
1, 41524, Control_c, 0, 64, 127
1, 41607, Control_c, 0, 64, 0
1, 41617, Note_on_c, 0, 98, 0
1, 41617, Note_on_c, 0, 95, 0
1, 41617, Note_on_c, 0, 92, 0
1, 41620, Note_on_c, 0, 86, 0
1, 41620, Note_on_c, 0, 41, 0
1, 41620, Note_on_c, 0, 38, 0
1, 41623, Note_on_c, 0, 29, 0
1, 41715, Note_on_c, 0, 62, 56
1, 41715, Note_on_c, 0, 50, 53
1, 41740, Control_c, 0, 64, 127
1, 41750, Note_on_c, 0, 62, 0
1, 41750, Note_on_c, 0, 65, 57
1, 41750, Note_on_c, 0, 50, 0
1, 41753, Note_on_c, 0, 53, 55
1, 41786, Note_on_c, 0, 65, 0
1, 41786, Note_on_c, 0, 68, 60
1, 41786, Note_on_c, 0, 53, 0
1, 41789, Note_on_c, 0, 56, 57
1, 41822, Note_on_c, 0, 68, 0
1, 41822, Note_on_c, 0, 70, 62
1, 41822, Note_on_c, 0, 56, 0
1, 41825, Note_on_c, 0, 58, 59
1, 41858, Note_on_c, 0, 70, 0
1, 41858, Note_on_c, 0, 71, 75
1, 41858, Note_on_c, 0, 58, 0
1, 41861, Note_on_c, 0, 59, 67
1, 41867, Control_c, 0, 64, 0
1, 41901, Control_c, 0, 64, 127
1, 41944, Note_on_c, 0, 71, 0
1, 41944, Note_on_c, 0, 59, 0
1, 42029, Note_on_c, 0, 74, 61
1, 42029, Note_on_c, 0, 62, 55
1, 42032, Control_c, 0, 64, 0
1, 42053, Control_c, 0, 64, 127
1, 42064, Note_on_c, 0, 74, 0
1, 42064, Note_on_c, 0, 77, 62
1, 42064, Note_on_c, 0, 62, 0
1, 42067, Note_on_c, 0, 65, 57
1, 42100, Note_on_c, 0, 77, 0
1, 42100, Note_on_c, 0, 80, 65
1, 42100, Note_on_c, 0, 65, 0
1, 42103, Note_on_c, 0, 68, 59
1, 42136, Note_on_c, 0, 80, 0
1, 42136, Note_on_c, 0, 82, 67
1, 42136, Note_on_c, 0, 68, 0
1, 42139, Note_on_c, 0, 70, 61
1, 42172, Note_on_c, 0, 82, 0
1, 42172, Note_on_c, 0, 83, 79
1, 42172, Note_on_c, 0, 70, 0
1, 42175, Note_on_c, 0, 71, 70
1, 42181, Control_c, 0, 64, 0
1, 42206, Control_c, 0, 64, 127
1, 42257, Note_on_c, 0, 83, 0
1, 42257, Note_on_c, 0, 71, 0
1, 42340, Note_on_c, 0, 86, 65
1, 42340, Note_on_c, 0, 74, 57
1, 42346, Control_c, 0, 64, 0
1, 42366, Control_c, 0, 64, 127
1, 42377, Note_on_c, 0, 86, 0
1, 42377, Note_on_c, 0, 89, 66
1, 42377, Note_on_c, 0, 74, 0
1, 42380, Note_on_c, 0, 77, 59
1, 42415, Note_on_c, 0, 89, 0
1, 42415, Note_on_c, 0, 92, 69
1, 42415, Note_on_c, 0, 77, 0
1, 42418, Note_on_c, 0, 80, 61
1, 42453, Note_on_c, 0, 92, 0
1, 42453, Note_on_c, 0, 94, 71
1, 42453, Note_on_c, 0, 80, 0
1, 42456, Note_on_c, 0, 82, 64
1, 42492, Note_on_c, 0, 94, 0
1, 42492, Note_on_c, 0, 95, 84
1, 42492, Note_on_c, 0, 82, 0
1, 42495, Note_on_c, 0, 83, 72
1, 42502, Control_c, 0, 64, 0
1, 42560, Control_c, 0, 64, 127
1, 42589, Note_on_c, 0, 95, 0
1, 42589, Note_on_c, 0, 83, 0
1, 42657, Control_c, 0, 64, 0
1, 42782, Note_on_c, 0, 87, 86
1, 42782, Note_on_c, 0, 95, 86
1, 42782, Note_on_c, 0, 99, 101
1, 42785, Note_on_c, 0, 30, 76
1, 42785, Note_on_c, 0, 39, 76
1, 42785, Note_on_c, 0, 42, 91
1, 42803, Control_c, 0, 64, 127
1, 42858, Note_on_c, 0, 99, 0
1, 42858, Note_on_c, 0, 95, 0
1, 42858, Note_on_c, 0, 87, 0
1, 42861, Note_on_c, 0, 99, 96
1, 42861, Note_on_c, 0, 95, 81
1, 42861, Note_on_c, 0, 87, 81
1, 42864, Note_on_c, 0, 42, 0
1, 42864, Note_on_c, 0, 39, 0
1, 42864, Note_on_c, 0, 30, 0
1, 42867, Note_on_c, 0, 30, 68
1, 42867, Note_on_c, 0, 39, 68
1, 42867, Note_on_c, 0, 42, 81
1, 42912, Control_c, 0, 64, 0
1, 42939, Note_on_c, 0, 87, 0
1, 42939, Note_on_c, 0, 95, 0
1, 42939, Note_on_c, 0, 99, 0
1, 42942, Note_on_c, 0, 42, 0
1, 42942, Note_on_c, 0, 39, 0
1, 42942, Note_on_c, 0, 30, 0
1, 43020, Note_on_c, 0, 83, 87
1, 43020, Note_on_c, 0, 87, 87
1, 43020, Note_on_c, 0, 95, 102
1, 43023, Note_on_c, 0, 35, 75
1, 43023, Note_on_c, 0, 42, 75
1, 43023, Note_on_c, 0, 47, 90
1, 43039, Control_c, 0, 64, 127
1, 43101, Note_on_c, 0, 95, 0
1, 43101, Note_on_c, 0, 87, 0
1, 43101, Note_on_c, 0, 83, 0
1, 43104, Note_on_c, 0, 47, 0
1, 43104, Note_on_c, 0, 42, 0
1, 43104, Note_on_c, 0, 35, 0
1, 43263, Note_on_c, 0, 78, 77
1, 43263, Note_on_c, 0, 83, 77
1, 43263, Note_on_c, 0, 90, 92
1, 43266, Note_on_c, 0, 39, 69
1, 43266, Note_on_c, 0, 47, 69
1, 43266, Note_on_c, 0, 51, 82
1, 43339, Note_on_c, 0, 90, 0
1, 43339, Note_on_c, 0, 83, 0
1, 43339, Note_on_c, 0, 78, 0
1, 43342, Note_on_c, 0, 78, 77
1, 43342, Note_on_c, 0, 83, 77
1, 43342, Note_on_c, 0, 90, 92
1, 43345, Note_on_c, 0, 51, 0
1, 43345, Note_on_c, 0, 47, 0
1, 43345, Note_on_c, 0, 39, 0
1, 43348, Note_on_c, 0, 39, 69
1, 43348, Note_on_c, 0, 47, 69
1, 43348, Note_on_c, 0, 51, 82
1, 43421, Note_on_c, 0, 90, 0
1, 43421, Note_on_c, 0, 83, 0
1, 43421, Note_on_c, 0, 78, 0
1, 43424, Note_on_c, 0, 51, 0
1, 43424, Note_on_c, 0, 47, 0
1, 43424, Note_on_c, 0, 39, 0
1, 43428, Control_c, 0, 64, 0
1, 43679, Control_c, 0, 64, 127
1, 43739, Note_on_c, 0, 75, 76
1, 43739, Note_on_c, 0, 83, 76
1, 43739, Note_on_c, 0, 87, 91
1, 43742, Note_on_c, 0, 42, 61
1, 43742, Note_on_c, 0, 47, 61
1, 43742, Note_on_c, 0, 54, 74
1, 43814, Note_on_c, 0, 87, 0
1, 43814, Note_on_c, 0, 83, 0
1, 43814, Note_on_c, 0, 75, 0
1, 43817, Note_on_c, 0, 75, 84
1, 43817, Note_on_c, 0, 83, 84
1, 43817, Note_on_c, 0, 87, 99
1, 43820, Note_on_c, 0, 54, 0
1, 43820, Note_on_c, 0, 47, 0
1, 43820, Note_on_c, 0, 42, 0
1, 43823, Note_on_c, 0, 54, 84
1, 43823, Note_on_c, 0, 47, 70
1, 43823, Note_on_c, 0, 42, 70
1, 43899, Note_on_c, 0, 87, 0
1, 43899, Note_on_c, 0, 83, 0
1, 43899, Note_on_c, 0, 75, 0
1, 43902, Note_on_c, 0, 42, 0
1, 43902, Note_on_c, 0, 47, 0
1, 43902, Note_on_c, 0, 54, 0
1, 43916, Control_c, 0, 64, 0
1, 43984, Note_on_c, 0, 74, 78
1, 43984, Note_on_c, 0, 83, 78
1, 43984, Note_on_c, 0, 86, 93
1, 43987, Note_on_c, 0, 41, 61
1, 43987, Note_on_c, 0, 47, 61
1, 43987, Note_on_c, 0, 53, 74
1, 44069, Note_on_c, 0, 86, 0
1, 44069, Note_on_c, 0, 83, 0
1, 44069, Note_on_c, 0, 74, 0
1, 44072, Note_on_c, 0, 53, 0
1, 44072, Note_on_c, 0, 47, 0
1, 44072, Note_on_c, 0, 41, 0
1, 44155, Note_on_c, 0, 75, 84
1, 44155, Note_on_c, 0, 83, 84
1, 44155, Note_on_c, 0, 87, 99
1, 44158, Note_on_c, 0, 54, 84
1, 44158, Note_on_c, 0, 47, 70
1, 44158, Note_on_c, 0, 42, 70
1, 44240, Note_on_c, 0, 87, 0
1, 44240, Note_on_c, 0, 83, 0
1, 44240, Note_on_c, 0, 75, 0
1, 44243, Note_on_c, 0, 42, 0
1, 44243, Note_on_c, 0, 47, 0
1, 44243, Note_on_c, 0, 54, 0
1, 44495, Note_on_c, 0, 78, 78
1, 44495, Note_on_c, 0, 83, 78
1, 44495, Note_on_c, 0, 90, 88
1, 44498, Note_on_c, 0, 44, 67
1, 44498, Note_on_c, 0, 51, 67
1, 44498, Note_on_c, 0, 56, 75
1, 44503, Control_c, 0, 64, 0
1, 44552, Control_c, 0, 64, 127
1, 44577, Note_on_c, 0, 90, 0
1, 44577, Note_on_c, 0, 83, 0
1, 44577, Note_on_c, 0, 78, 0
1, 44580, Note_on_c, 0, 56, 0
1, 44580, Note_on_c, 0, 51, 0
1, 44580, Note_on_c, 0, 44, 0
1, 44634, Control_c, 0, 64, 0
1, 44740, Note_on_c, 0, 74, 82
1, 44740, Note_on_c, 0, 86, 97
1, 44740, Note_on_c, 0, 50, 73
1, 44743, Note_on_c, 0, 62, 87
1, 44761, Control_c, 0, 64, 127
1, 44816, Note_on_c, 0, 86, 0
1, 44816, Note_on_c, 0, 74, 0
1, 44816, Note_on_c, 0, 87, 92
1, 44819, Note_on_c, 0, 75, 78
1, 44819, Note_on_c, 0, 62, 0
1, 44819, Note_on_c, 0, 50, 0
1, 44822, Note_on_c, 0, 51, 65
1, 44822, Note_on_c, 0, 63, 78
1, 44870, Control_c, 0, 64, 0
1, 44897, Note_on_c, 0, 75, 0
1, 44897, Note_on_c, 0, 87, 0
1, 44897, Note_on_c, 0, 63, 0
1, 44900, Note_on_c, 0, 51, 0
1, 44978, Note_on_c, 0, 78, 83
1, 44978, Note_on_c, 0, 84, 83
1, 44978, Note_on_c, 0, 90, 98
1, 44981, Note_on_c, 0, 45, 72
1, 44981, Note_on_c, 0, 51, 72
1, 44981, Note_on_c, 0, 54, 72
1, 44984, Note_on_c, 0, 57, 86
1, 44997, Control_c, 0, 64, 127
1, 45059, Note_on_c, 0, 90, 0
1, 45059, Note_on_c, 0, 84, 0
1, 45059, Note_on_c, 0, 78, 0
1, 45062, Note_on_c, 0, 57, 0
1, 45062, Note_on_c, 0, 45, 0
1, 45062, Note_on_c, 0, 51, 0
1, 45065, Note_on_c, 0, 54, 0
1, 45100, Control_c, 0, 64, 0
1, 45221, Note_on_c, 0, 74, 74
1, 45221, Note_on_c, 0, 86, 88
1, 45221, Note_on_c, 0, 50, 66
1, 45224, Note_on_c, 0, 62, 79
1, 45259, Control_c, 0, 64, 127
1, 45298, Note_on_c, 0, 86, 0
1, 45298, Note_on_c, 0, 74, 0
1, 45298, Note_on_c, 0, 75, 74
1, 45301, Note_on_c, 0, 87, 88
1, 45301, Note_on_c, 0, 62, 0
1, 45301, Note_on_c, 0, 50, 0
1, 45304, Note_on_c, 0, 51, 66
1, 45304, Note_on_c, 0, 63, 79
1, 45379, Note_on_c, 0, 87, 0
1, 45379, Note_on_c, 0, 75, 0
1, 45379, Note_on_c, 0, 63, 0
1, 45382, Note_on_c, 0, 51, 0
1, 45387, Control_c, 0, 64, 0
1, 45461, Note_on_c, 0, 82, 84
1, 45461, Note_on_c, 0, 86, 90
1, 45461, Note_on_c, 0, 94, 105
1, 45464, Note_on_c, 0, 46, 64
1, 45464, Note_on_c, 0, 53, 64
1, 45464, Note_on_c, 0, 58, 72
1, 45543, Note_on_c, 0, 94, 0
1, 45543, Note_on_c, 0, 86, 0
1, 45543, Note_on_c, 0, 82, 0
1, 45546, Note_on_c, 0, 58, 0
1, 45546, Note_on_c, 0, 53, 0
1, 45546, Note_on_c, 0, 46, 0
1, 45624, Note_on_c, 0, 41, 86
1, 45629, Control_c, 0, 64, 0
1, 45670, Control_c, 0, 64, 127
1, 45703, Note_on_c, 0, 53, 84
1, 45781, Note_on_c, 0, 53, 0
1, 45781, Note_on_c, 0, 41, 0
1, 45781, Note_on_c, 0, 39, 82
1, 45787, Control_c, 0, 64, 0
1, 45825, Control_c, 0, 64, 127
1, 45857, Note_on_c, 0, 51, 81
1, 45933, Note_on_c, 0, 51, 0
1, 45933, Note_on_c, 0, 39, 0
1, 45933, Note_on_c, 0, 38, 79
1, 45939, Control_c, 0, 64, 0
1, 45973, Control_c, 0, 64, 127
1, 46008, Note_on_c, 0, 50, 78
1, 46082, Note_on_c, 0, 50, 0
1, 46082, Note_on_c, 0, 38, 0
1, 46082, Note_on_c, 0, 35, 76
1, 46087, Control_c, 0, 64, 0
1, 46120, Control_c, 0, 64, 127
1, 46155, Note_on_c, 0, 47, 74
1, 46227, Note_on_c, 0, 47, 0
1, 46227, Note_on_c, 0, 35, 0
1, 46227, Note_on_c, 0, 34, 88
1, 46234, Control_c, 0, 64, 0
1, 46300, Control_c, 0, 64, 127
1, 46316, Note_on_c, 0, 46, 70
1, 46523, Note_on_c, 0, 90, 88
1, 46523, Note_on_c, 0, 81, 74
1, 46523, Note_on_c, 0, 78, 74
1, 46526, Note_on_c, 0, 46, 0
1, 46526, Note_on_c, 0, 34, 0
1, 46526, Note_on_c, 0, 51, 61
1, 46529, Note_on_c, 0, 57, 72
1, 46529, Note_on_c, 0, 54, 61
1, 46529, Note_on_c, 0, 48, 61
1, 46532, Note_on_c, 0, 46, 61
1, 46532, Control_c, 0, 64, 0
1, 46591, Control_c, 0, 64, 127
1, 46600, Note_on_c, 0, 78, 0
1, 46600, Note_on_c, 0, 81, 0
1, 46600, Note_on_c, 0, 90, 0
1, 46603, Note_on_c, 0, 46, 0
1, 46603, Note_on_c, 0, 54, 0
1, 46603, Note_on_c, 0, 51, 0
1, 46606, Note_on_c, 0, 57, 0
1, 46606, Note_on_c, 0, 48, 0
1, 46756, Note_on_c, 0, 87, 82
1, 46756, Note_on_c, 0, 78, 69
1, 46756, Note_on_c, 0, 75, 69
1, 46759, Note_on_c, 0, 51, 47
1, 46759, Note_on_c, 0, 57, 57
1, 46759, Note_on_c, 0, 54, 47
1, 46762, Note_on_c, 0, 48, 47
1, 46762, Note_on_c, 0, 46, 47
1, 46828, Note_on_c, 0, 75, 0
1, 46828, Note_on_c, 0, 78, 0
1, 46828, Note_on_c, 0, 87, 0
1, 46831, Note_on_c, 0, 75, 74
1, 46831, Note_on_c, 0, 78, 74
1, 46831, Note_on_c, 0, 87, 88
1, 46834, Note_on_c, 0, 46, 0
1, 46834, Note_on_c, 0, 54, 0
1, 46834, Note_on_c, 0, 51, 0
1, 46837, Note_on_c, 0, 57, 0
1, 46837, Note_on_c, 0, 48, 0
1, 46837, Note_on_c, 0, 51, 54
1, 46840, Note_on_c, 0, 57, 63
1, 46840, Note_on_c, 0, 54, 54
1, 46840, Note_on_c, 0, 48, 54
1, 46843, Note_on_c, 0, 46, 54
1, 46909, Note_on_c, 0, 87, 0
1, 46909, Note_on_c, 0, 78, 0
1, 46909, Note_on_c, 0, 75, 0
1, 46912, Note_on_c, 0, 46, 0
1, 46912, Note_on_c, 0, 54, 0
1, 46912, Note_on_c, 0, 51, 0
1, 46915, Note_on_c, 0, 57, 0
1, 46915, Note_on_c, 0, 48, 0
1, 46991, Control_c, 0, 64, 0
1, 47234, Note_on_c, 0, 72, 68
1, 47234, Note_on_c, 0, 75, 68
1, 47234, Note_on_c, 0, 84, 80
1, 47237, Note_on_c, 0, 51, 43
1, 47237, Note_on_c, 0, 46, 43
1, 47237, Note_on_c, 0, 48, 43
1, 47240, Note_on_c, 0, 57, 51
1, 47240, Note_on_c, 0, 54, 43
1, 47240, Control_c, 0, 64, 127
1, 47307, Note_on_c, 0, 84, 0
1, 47307, Note_on_c, 0, 75, 0
1, 47307, Note_on_c, 0, 72, 0
1, 47310, Note_on_c, 0, 72, 72
1, 47310, Note_on_c, 0, 75, 72
1, 47310, Note_on_c, 0, 84, 88
1, 47313, Note_on_c, 0, 54, 0
1, 47313, Note_on_c, 0, 48, 0
1, 47313, Note_on_c, 0, 51, 0
1, 47316, Note_on_c, 0, 46, 0
1, 47316, Note_on_c, 0, 57, 0
1, 47316, Note_on_c, 0, 51, 50
1, 47319, Note_on_c, 0, 57, 58
1, 47319, Note_on_c, 0, 54, 50
1, 47319, Note_on_c, 0, 48, 50
1, 47322, Note_on_c, 0, 46, 50
1, 47383, Control_c, 0, 64, 0
1, 47388, Note_on_c, 0, 84, 0
1, 47388, Note_on_c, 0, 75, 0
1, 47388, Note_on_c, 0, 72, 0
1, 47391, Note_on_c, 0, 46, 0
1, 47391, Note_on_c, 0, 54, 0
1, 47391, Note_on_c, 0, 51, 0
1, 47394, Note_on_c, 0, 57, 0
1, 47394, Note_on_c, 0, 48, 0
1, 47630, Note_on_c, 0, 72, 68
1, 47630, Note_on_c, 0, 69, 68
1, 47630, Note_on_c, 0, 81, 80
1, 47633, Note_on_c, 0, 46, 43
1, 47633, Note_on_c, 0, 48, 43
1, 47633, Note_on_c, 0, 51, 43
1, 47636, Note_on_c, 0, 54, 43
1, 47636, Note_on_c, 0, 57, 51
1, 47670, Note_on_c, 0, 81, 0
1, 47670, Note_on_c, 0, 69, 0
1, 47670, Note_on_c, 0, 72, 0
1, 47673, Note_on_c, 0, 57, 0
1, 47673, Note_on_c, 0, 51, 0
1, 47673, Note_on_c, 0, 46, 0
1, 47676, Note_on_c, 0, 48, 0
1, 47676, Note_on_c, 0, 54, 0
1, 47710, Note_on_c, 0, 66, 64
1, 47710, Note_on_c, 0, 78, 76
1, 47710, Note_on_c, 0, 46, 38
1, 47713, Note_on_c, 0, 48, 38
1, 47713, Note_on_c, 0, 51, 38
1, 47713, Note_on_c, 0, 54, 38
1, 47716, Note_on_c, 0, 57, 45
1, 47750, Note_on_c, 0, 78, 0
1, 47750, Note_on_c, 0, 66, 0
1, 47750, Note_on_c, 0, 57, 0
1, 47753, Note_on_c, 0, 51, 0
1, 47753, Note_on_c, 0, 46, 0
1, 47753, Note_on_c, 0, 48, 0
1, 47756, Note_on_c, 0, 54, 0
1, 47790, Note_on_c, 0, 65, 64
1, 47790, Note_on_c, 0, 77, 76
1, 47790, Note_on_c, 0, 46, 38
1, 47793, Note_on_c, 0, 48, 38
1, 47793, Note_on_c, 0, 51, 38
1, 47793, Note_on_c, 0, 54, 38
1, 47796, Note_on_c, 0, 57, 45
1, 47833, Note_on_c, 0, 77, 0
1, 47833, Note_on_c, 0, 65, 0
1, 47833, Note_on_c, 0, 57, 0
1, 47836, Note_on_c, 0, 51, 0
1, 47836, Note_on_c, 0, 46, 0
1, 47836, Note_on_c, 0, 48, 0
1, 47839, Note_on_c, 0, 54, 0
1, 47875, Note_on_c, 0, 63, 64
1, 47875, Note_on_c, 0, 75, 76
1, 47875, Note_on_c, 0, 46, 38
1, 47878, Note_on_c, 0, 48, 38
1, 47878, Note_on_c, 0, 51, 38
1, 47878, Note_on_c, 0, 54, 38
1, 47881, Note_on_c, 0, 57, 45
1, 47918, Note_on_c, 0, 75, 0
1, 47918, Note_on_c, 0, 63, 0
1, 47918, Note_on_c, 0, 57, 0
1, 47921, Note_on_c, 0, 51, 0
1, 47921, Note_on_c, 0, 46, 0
1, 47921, Note_on_c, 0, 48, 0
1, 47924, Note_on_c, 0, 54, 0
1, 47960, Note_on_c, 0, 70, 72
1, 47960, Note_on_c, 0, 74, 72
1, 47960, Note_on_c, 0, 82, 85
1, 47963, Note_on_c, 0, 46, 45
1, 47963, Note_on_c, 0, 50, 45
1, 47963, Note_on_c, 0, 53, 45
1, 47966, Note_on_c, 0, 58, 54
1, 47971, Control_c, 0, 64, 127
1, 48014, Control_c, 0, 64, 0
1, 48034, Note_on_c, 0, 82, 0
1, 48034, Note_on_c, 0, 74, 0
1, 48034, Note_on_c, 0, 70, 0
1, 48037, Note_on_c, 0, 58, 0
1, 48037, Note_on_c, 0, 46, 0
1, 48037, Note_on_c, 0, 50, 0
1, 48040, Note_on_c, 0, 53, 0
1, 48107, Note_on_c, 0, 41, 68
1, 48107, Note_on_c, 0, 53, 86
1, 48112, Control_c, 0, 64, 0
1, 48153, Control_c, 0, 64, 127
1, 48185, Note_on_c, 0, 65, 84
1, 48263, Note_on_c, 0, 65, 0
1, 48263, Note_on_c, 0, 53, 0
1, 48263, Note_on_c, 0, 41, 0
1, 48266, Note_on_c, 0, 39, 65
1, 48266, Note_on_c, 0, 51, 82
1, 48270, Control_c, 0, 64, 0
1, 48308, Control_c, 0, 64, 127
1, 48340, Note_on_c, 0, 63, 81
1, 48416, Note_on_c, 0, 63, 0
1, 48416, Note_on_c, 0, 51, 0
1, 48416, Note_on_c, 0, 39, 0
1, 48419, Note_on_c, 0, 38, 63
1, 48419, Note_on_c, 0, 50, 79
1, 48422, Control_c, 0, 64, 0
1, 48455, Control_c, 0, 64, 127
1, 48491, Note_on_c, 0, 62, 78
1, 48565, Note_on_c, 0, 62, 0
1, 48565, Note_on_c, 0, 50, 0
1, 48565, Note_on_c, 0, 38, 0
1, 48568, Note_on_c, 0, 35, 60
1, 48568, Note_on_c, 0, 47, 76
1, 48568, Control_c, 0, 64, 0
1, 48603, Control_c, 0, 64, 127
1, 48638, Note_on_c, 0, 59, 74
1, 48710, Note_on_c, 0, 59, 0
1, 48710, Note_on_c, 0, 47, 0
1, 48710, Note_on_c, 0, 35, 0
1, 48713, Note_on_c, 0, 34, 70
1, 48713, Note_on_c, 0, 46, 88
1, 48717, Control_c, 0, 64, 0
1, 48768, Control_c, 0, 64, 127
1, 48799, Note_on_c, 0, 58, 70
1, 48993, Note_on_c, 0, 58, 0
1, 48993, Note_on_c, 0, 99, 101
1, 48993, Note_on_c, 0, 90, 85
1, 48996, Note_on_c, 0, 87, 85
1, 48996, Note_on_c, 0, 46, 0
1, 48996, Note_on_c, 0, 34, 0
1, 48999, Note_on_c, 0, 51, 61
1, 48999, Note_on_c, 0, 57, 72
1, 48999, Note_on_c, 0, 54, 61
1, 49002, Note_on_c, 0, 48, 61
1, 49002, Note_on_c, 0, 46, 61
1, 49002, Control_c, 0, 64, 0
1, 49062, Control_c, 0, 64, 127
1, 49071, Note_on_c, 0, 87, 0
1, 49071, Note_on_c, 0, 90, 0
1, 49071, Note_on_c, 0, 99, 0
1, 49074, Note_on_c, 0, 46, 0
1, 49074, Note_on_c, 0, 54, 0
1, 49074, Note_on_c, 0, 51, 0
1, 49077, Note_on_c, 0, 57, 0
1, 49077, Note_on_c, 0, 48, 0
1, 49226, Note_on_c, 0, 96, 94
1, 49226, Note_on_c, 0, 87, 79
1, 49226, Note_on_c, 0, 84, 79
1, 49229, Note_on_c, 0, 51, 47
1, 49229, Note_on_c, 0, 57, 57
1, 49229, Note_on_c, 0, 54, 47
1, 49232, Note_on_c, 0, 48, 47
1, 49232, Note_on_c, 0, 46, 47
1, 49299, Note_on_c, 0, 84, 0
1, 49299, Note_on_c, 0, 87, 0
1, 49299, Note_on_c, 0, 96, 0
1, 49302, Note_on_c, 0, 84, 85
1, 49302, Note_on_c, 0, 87, 85
1, 49302, Note_on_c, 0, 96, 101
1, 49305, Note_on_c, 0, 46, 0
1, 49305, Note_on_c, 0, 54, 0
1, 49305, Note_on_c, 0, 51, 0
1, 49308, Note_on_c, 0, 57, 0
1, 49308, Note_on_c, 0, 48, 0
1, 49308, Note_on_c, 0, 51, 54
1, 49311, Note_on_c, 0, 57, 63
1, 49311, Note_on_c, 0, 54, 54
1, 49311, Note_on_c, 0, 48, 54
1, 49314, Note_on_c, 0, 46, 54
1, 49380, Note_on_c, 0, 96, 0
1, 49380, Note_on_c, 0, 87, 0
1, 49380, Note_on_c, 0, 84, 0
1, 49383, Note_on_c, 0, 46, 0
1, 49383, Note_on_c, 0, 54, 0
1, 49383, Note_on_c, 0, 51, 0
1, 49386, Note_on_c, 0, 57, 0
1, 49386, Note_on_c, 0, 48, 0
1, 49461, Control_c, 0, 64, 0
1, 49704, Note_on_c, 0, 81, 78
1, 49704, Note_on_c, 0, 84, 78
1, 49704, Note_on_c, 0, 93, 92
1, 49707, Note_on_c, 0, 51, 43
1, 49707, Note_on_c, 0, 46, 43
1, 49707, Note_on_c, 0, 48, 43
1, 49710, Note_on_c, 0, 57, 51
1, 49710, Note_on_c, 0, 54, 43
1, 49710, Control_c, 0, 64, 127
1, 49777, Note_on_c, 0, 93, 0
1, 49777, Note_on_c, 0, 84, 0
1, 49777, Note_on_c, 0, 81, 0
1, 49780, Note_on_c, 0, 81, 82
1, 49780, Note_on_c, 0, 84, 82
1, 49780, Note_on_c, 0, 93, 101
1, 49783, Note_on_c, 0, 54, 0
1, 49783, Note_on_c, 0, 48, 0
1, 49783, Note_on_c, 0, 51, 0
1, 49786, Note_on_c, 0, 46, 0
1, 49786, Note_on_c, 0, 57, 0
1, 49786, Note_on_c, 0, 51, 50
1, 49789, Note_on_c, 0, 57, 58
1, 49789, Note_on_c, 0, 54, 50
1, 49789, Note_on_c, 0, 48, 50
1, 49792, Note_on_c, 0, 46, 50
1, 49854, Control_c, 0, 64, 0
1, 49858, Note_on_c, 0, 93, 0
1, 49858, Note_on_c, 0, 84, 0
1, 49858, Note_on_c, 0, 81, 0
1, 49861, Note_on_c, 0, 46, 0
1, 49861, Note_on_c, 0, 54, 0
1, 49861, Note_on_c, 0, 51, 0
1, 49864, Note_on_c, 0, 57, 0
1, 49864, Note_on_c, 0, 48, 0
1, 50100, Note_on_c, 0, 78, 78
1, 50100, Note_on_c, 0, 81, 78
1, 50100, Note_on_c, 0, 90, 92
1, 50103, Note_on_c, 0, 46, 43
1, 50103, Note_on_c, 0, 48, 43
1, 50103, Note_on_c, 0, 51, 43
1, 50106, Note_on_c, 0, 54, 43
1, 50106, Note_on_c, 0, 57, 51
1, 50140, Note_on_c, 0, 90, 0
1, 50140, Note_on_c, 0, 81, 0
1, 50140, Note_on_c, 0, 78, 0
1, 50143, Note_on_c, 0, 57, 0
1, 50143, Note_on_c, 0, 51, 0
1, 50143, Note_on_c, 0, 46, 0
1, 50146, Note_on_c, 0, 48, 0
1, 50146, Note_on_c, 0, 54, 0
1, 50180, Note_on_c, 0, 77, 73
1, 50180, Note_on_c, 0, 89, 87
1, 50180, Note_on_c, 0, 46, 34
1, 50183, Note_on_c, 0, 48, 34
1, 50183, Note_on_c, 0, 51, 34
1, 50183, Note_on_c, 0, 54, 34
1, 50186, Note_on_c, 0, 57, 40
1, 50220, Note_on_c, 0, 89, 0
1, 50220, Note_on_c, 0, 77, 0
1, 50220, Note_on_c, 0, 57, 0
1, 50223, Note_on_c, 0, 51, 0
1, 50223, Note_on_c, 0, 46, 0
1, 50223, Note_on_c, 0, 48, 0
1, 50226, Note_on_c, 0, 54, 0
1, 50260, Note_on_c, 0, 76, 73
1, 50260, Note_on_c, 0, 88, 87
1, 50260, Note_on_c, 0, 46, 34
1, 50263, Note_on_c, 0, 48, 34
1, 50263, Note_on_c, 0, 51, 34
1, 50263, Note_on_c, 0, 54, 34
1, 50266, Note_on_c, 0, 57, 40
1, 50303, Note_on_c, 0, 88, 0
1, 50303, Note_on_c, 0, 76, 0
1, 50303, Note_on_c, 0, 57, 0
1, 50306, Note_on_c, 0, 51, 0
1, 50306, Note_on_c, 0, 46, 0
1, 50306, Note_on_c, 0, 48, 0
1, 50309, Note_on_c, 0, 54, 0
1, 50346, Note_on_c, 0, 75, 73
1, 50346, Note_on_c, 0, 87, 87
1, 50346, Note_on_c, 0, 46, 34
1, 50349, Note_on_c, 0, 48, 34
1, 50349, Note_on_c, 0, 51, 34
1, 50349, Note_on_c, 0, 54, 34
1, 50352, Note_on_c, 0, 57, 40
1, 50388, Note_on_c, 0, 87, 0
1, 50388, Note_on_c, 0, 75, 0
1, 50388, Note_on_c, 0, 57, 0
1, 50391, Note_on_c, 0, 51, 0
1, 50391, Note_on_c, 0, 46, 0
1, 50391, Note_on_c, 0, 48, 0
1, 50394, Note_on_c, 0, 54, 0
1, 50431, Note_on_c, 0, 82, 82
1, 50431, Note_on_c, 0, 86, 82
1, 50431, Note_on_c, 0, 94, 97
1, 50434, Note_on_c, 0, 46, 45
1, 50434, Note_on_c, 0, 50, 45
1, 50434, Note_on_c, 0, 53, 45
1, 50437, Note_on_c, 0, 58, 54
1, 50481, Control_c, 0, 64, 127
1, 50519, Note_on_c, 0, 94, 0
1, 50519, Note_on_c, 0, 86, 0
1, 50519, Note_on_c, 0, 82, 0
1, 50522, Note_on_c, 0, 58, 0
1, 50522, Note_on_c, 0, 46, 0
1, 50522, Note_on_c, 0, 50, 0
1, 50525, Note_on_c, 0, 53, 0
1, 50608, Note_on_c, 0, 65, 61
1, 50613, Control_c, 0, 64, 0
1, 50653, Control_c, 0, 64, 127
1, 50686, Note_on_c, 0, 68, 51
1, 50686, Note_on_c, 0, 70, 60
1, 50763, Note_on_c, 0, 70, 0
1, 50763, Note_on_c, 0, 68, 0
1, 50763, Note_on_c, 0, 65, 0
1, 50766, Note_on_c, 0, 63, 64
1, 50769, Control_c, 0, 64, 0
1, 50807, Control_c, 0, 64, 127
1, 50838, Note_on_c, 0, 68, 53
1, 50838, Note_on_c, 0, 70, 63
1, 50912, Note_on_c, 0, 70, 0
1, 50912, Note_on_c, 0, 68, 0
1, 50912, Note_on_c, 0, 63, 0
1, 50915, Note_on_c, 0, 62, 67
1, 50919, Control_c, 0, 64, 0
1, 50951, Control_c, 0, 64, 127
1, 50986, Note_on_c, 0, 68, 56
1, 50986, Note_on_c, 0, 70, 66
1, 51060, Note_on_c, 0, 70, 0
1, 51060, Note_on_c, 0, 68, 0
1, 51060, Note_on_c, 0, 62, 0
1, 51063, Note_on_c, 0, 60, 69
1, 51063, Control_c, 0, 64, 0
1, 51098, Control_c, 0, 64, 127
1, 51133, Note_on_c, 0, 68, 58
1, 51133, Note_on_c, 0, 70, 69
1, 51205, Note_on_c, 0, 70, 0
1, 51205, Note_on_c, 0, 68, 0
1, 51205, Note_on_c, 0, 60, 0
1, 51208, Note_on_c, 0, 58, 60
1, 51208, Control_c, 0, 64, 0
1, 51253, Control_c, 0, 64, 127
1, 51279, Note_on_c, 0, 68, 61
1, 51279, Note_on_c, 0, 70, 72
1, 51355, Note_on_c, 0, 70, 0
1, 51355, Note_on_c, 0, 68, 0
1, 51355, Note_on_c, 0, 59, 76
1, 51358, Note_on_c, 0, 71, 76
1, 51358, Note_on_c, 0, 58, 0
1, 51358, Note_on_c, 0, 44, 53
1, 51361, Note_on_c, 0, 52, 63
1, 51361, Note_on_c, 0, 56, 63
1, 51361, Control_c, 0, 64, 0
1, 51405, Control_c, 0, 64, 127
1, 51430, Note_on_c, 0, 71, 0
1, 51430, Note_on_c, 0, 59, 0
1, 51430, Note_on_c, 0, 64, 63
1, 51433, Note_on_c, 0, 56, 0
1, 51433, Note_on_c, 0, 52, 0
1, 51433, Note_on_c, 0, 44, 0
1, 51472, Control_c, 0, 64, 0
1, 51505, Note_on_c, 0, 64, 0
1, 51505, Note_on_c, 0, 68, 65
1, 51505, Note_on_c, 0, 42, 55
1, 51508, Note_on_c, 0, 54, 65
1, 51526, Control_c, 0, 64, 127
1, 51579, Note_on_c, 0, 68, 0
1, 51579, Note_on_c, 0, 71, 68
1, 51579, Note_on_c, 0, 54, 0
1, 51582, Note_on_c, 0, 42, 0
1, 51590, Control_c, 0, 64, 0
1, 51653, Note_on_c, 0, 71, 0
1, 51653, Note_on_c, 0, 76, 70
1, 51653, Note_on_c, 0, 40, 57
1, 51656, Note_on_c, 0, 52, 68
1, 51678, Control_c, 0, 64, 127
1, 51727, Note_on_c, 0, 76, 0
1, 51727, Note_on_c, 0, 80, 72
1, 51727, Note_on_c, 0, 52, 0
1, 51730, Note_on_c, 0, 40, 0
1, 51747, Control_c, 0, 64, 0
1, 51799, Note_on_c, 0, 80, 0
1, 51799, Note_on_c, 0, 83, 74
1, 51799, Note_on_c, 0, 37, 59
1, 51802, Note_on_c, 0, 49, 70
1, 51823, Control_c, 0, 64, 127
1, 51872, Note_on_c, 0, 83, 0
1, 51872, Note_on_c, 0, 88, 76
1, 51872, Note_on_c, 0, 49, 0
1, 51875, Note_on_c, 0, 37, 0
1, 51885, Control_c, 0, 64, 0
1, 51943, Note_on_c, 0, 88, 0
1, 51943, Note_on_c, 0, 92, 78
1, 51943, Note_on_c, 0, 35, 62
1, 51946, Note_on_c, 0, 47, 73
1, 51950, Control_c, 0, 64, 127
1, 52014, Note_on_c, 0, 92, 0
1, 52014, Note_on_c, 0, 94, 81
1, 52014, Note_on_c, 0, 47, 0
1, 52017, Note_on_c, 0, 35, 0
1, 52027, Control_c, 0, 64, 0
1, 52084, Note_on_c, 0, 94, 0
1, 52084, Note_on_c, 0, 95, 83
1, 52084, Note_on_c, 0, 88, 70
1, 52087, Note_on_c, 0, 83, 70
1, 52087, Note_on_c, 0, 32, 64
1, 52087, Note_on_c, 0, 44, 76
1, 52106, Control_c, 0, 64, 127
1, 52179, Note_on_c, 0, 83, 0
1, 52179, Note_on_c, 0, 88, 0
1, 52179, Note_on_c, 0, 95, 0
1, 52182, Note_on_c, 0, 44, 0
1, 52182, Note_on_c, 0, 32, 0
1, 52182, Control_c, 0, 64, 0
1, 52274, Note_on_c, 0, 86, 90
1, 52274, Note_on_c, 0, 89, 90
1, 52274, Note_on_c, 0, 98, 103
1, 52277, Note_on_c, 0, 34, 64
1, 52277, Note_on_c, 0, 41, 64
1, 52277, Note_on_c, 0, 46, 76
1, 52277, Control_c, 0, 64, 127
1, 52354, Note_on_c, 0, 98, 0
1, 52354, Note_on_c, 0, 89, 0
1, 52354, Note_on_c, 0, 86, 0
1, 52357, Note_on_c, 0, 46, 0
1, 52357, Note_on_c, 0, 41, 0
1, 52357, Note_on_c, 0, 34, 0
1, 52377, Control_c, 0, 64, 0
1, 52434, Note_on_c, 0, 65, 64
1, 52439, Control_c, 0, 64, 0
1, 52479, Control_c, 0, 64, 127
1, 52512, Note_on_c, 0, 68, 53
1, 52512, Note_on_c, 0, 70, 63
1, 52589, Note_on_c, 0, 70, 0
1, 52589, Note_on_c, 0, 68, 0
1, 52589, Note_on_c, 0, 65, 0
1, 52592, Note_on_c, 0, 63, 67
1, 52595, Control_c, 0, 64, 0
1, 52633, Control_c, 0, 64, 127
1, 52664, Note_on_c, 0, 68, 55
1, 52664, Note_on_c, 0, 70, 66
1, 52739, Note_on_c, 0, 70, 0
1, 52739, Note_on_c, 0, 68, 0
1, 52739, Note_on_c, 0, 63, 0
1, 52742, Note_on_c, 0, 62, 70
1, 52745, Control_c, 0, 64, 0
1, 52777, Control_c, 0, 64, 127
1, 52812, Note_on_c, 0, 68, 58
1, 52812, Note_on_c, 0, 70, 69
1, 52886, Note_on_c, 0, 70, 0
1, 52886, Note_on_c, 0, 68, 0
1, 52886, Note_on_c, 0, 62, 0
1, 52889, Note_on_c, 0, 60, 72
1, 52889, Control_c, 0, 64, 0
1, 52924, Control_c, 0, 64, 127
1, 52959, Note_on_c, 0, 68, 60
1, 52959, Note_on_c, 0, 70, 72
1, 53031, Note_on_c, 0, 70, 0
1, 53031, Note_on_c, 0, 68, 0
1, 53031, Note_on_c, 0, 60, 0
1, 53034, Note_on_c, 0, 58, 63
1, 53037, Control_c, 0, 64, 0
1, 53079, Control_c, 0, 64, 127
1, 53105, Note_on_c, 0, 68, 64
1, 53105, Note_on_c, 0, 70, 75
1, 53181, Note_on_c, 0, 70, 0
1, 53181, Note_on_c, 0, 68, 0
1, 53181, Note_on_c, 0, 59, 79
1, 53184, Note_on_c, 0, 71, 79
1, 53184, Note_on_c, 0, 58, 0
1, 53184, Note_on_c, 0, 44, 55
1, 53187, Note_on_c, 0, 52, 66
1, 53187, Note_on_c, 0, 56, 66
1, 53187, Control_c, 0, 64, 0
1, 53231, Control_c, 0, 64, 127
1, 53256, Note_on_c, 0, 71, 0
1, 53256, Note_on_c, 0, 59, 0
1, 53256, Note_on_c, 0, 64, 66
1, 53259, Note_on_c, 0, 56, 0
1, 53259, Note_on_c, 0, 52, 0
1, 53259, Note_on_c, 0, 44, 0
1, 53298, Control_c, 0, 64, 0
1, 53331, Note_on_c, 0, 64, 0
1, 53331, Note_on_c, 0, 68, 68
1, 53331, Note_on_c, 0, 42, 57
1, 53334, Note_on_c, 0, 54, 68
1, 53352, Control_c, 0, 64, 127
1, 53404, Note_on_c, 0, 68, 0
1, 53404, Note_on_c, 0, 71, 71
1, 53404, Note_on_c, 0, 54, 0
1, 53407, Note_on_c, 0, 42, 0
1, 53415, Control_c, 0, 64, 0
1, 53478, Note_on_c, 0, 71, 0
1, 53478, Note_on_c, 0, 76, 73
1, 53478, Note_on_c, 0, 40, 59
1, 53481, Note_on_c, 0, 52, 71
1, 53502, Control_c, 0, 64, 127
1, 53550, Note_on_c, 0, 76, 0
1, 53550, Note_on_c, 0, 80, 75
1, 53550, Note_on_c, 0, 52, 0
1, 53553, Note_on_c, 0, 40, 0
1, 53571, Control_c, 0, 64, 0
1, 53622, Note_on_c, 0, 80, 0
1, 53622, Note_on_c, 0, 83, 77
1, 53622, Note_on_c, 0, 37, 61
1, 53625, Note_on_c, 0, 49, 73
1, 53646, Control_c, 0, 64, 127
1, 53693, Note_on_c, 0, 83, 0
1, 53693, Note_on_c, 0, 88, 79
1, 53693, Note_on_c, 0, 49, 0
1, 53696, Note_on_c, 0, 37, 0
1, 53707, Control_c, 0, 64, 0
1, 53764, Note_on_c, 0, 88, 0
1, 53764, Note_on_c, 0, 92, 81
1, 53764, Note_on_c, 0, 35, 65
1, 53767, Note_on_c, 0, 47, 76
1, 53770, Control_c, 0, 64, 127
1, 53834, Note_on_c, 0, 92, 0
1, 53834, Note_on_c, 0, 94, 85
1, 53834, Note_on_c, 0, 47, 0
1, 53837, Note_on_c, 0, 35, 0
1, 53847, Control_c, 0, 64, 0
1, 53903, Note_on_c, 0, 94, 0
1, 53903, Note_on_c, 0, 95, 87
1, 53903, Note_on_c, 0, 88, 73
1, 53906, Note_on_c, 0, 83, 73
1, 53906, Note_on_c, 0, 32, 67
1, 53906, Note_on_c, 0, 44, 79
1, 53925, Control_c, 0, 64, 127
1, 53996, Note_on_c, 0, 83, 0
1, 53996, Note_on_c, 0, 88, 0
1, 53996, Note_on_c, 0, 95, 0
1, 53999, Note_on_c, 0, 44, 0
1, 53999, Note_on_c, 0, 32, 0
1, 53999, Control_c, 0, 64, 0
1, 54089, Note_on_c, 0, 86, 94
1, 54089, Note_on_c, 0, 89, 94
1, 54089, Note_on_c, 0, 98, 108
1, 54092, Note_on_c, 0, 34, 67
1, 54092, Note_on_c, 0, 41, 67
1, 54092, Note_on_c, 0, 46, 79
1, 54092, Control_c, 0, 64, 127
1, 54169, Note_on_c, 0, 98, 0
1, 54169, Note_on_c, 0, 89, 0
1, 54169, Note_on_c, 0, 86, 0
1, 54172, Note_on_c, 0, 46, 0
1, 54172, Note_on_c, 0, 41, 0
1, 54172, Note_on_c, 0, 34, 0
1, 54192, Control_c, 0, 64, 0
1, 54329, Note_on_c, 0, 82, 88
1, 54329, Note_on_c, 0, 74, 74
1, 54329, Note_on_c, 0, 70, 74
1, 54332, Note_on_c, 0, 58, 55
1, 54332, Note_on_c, 0, 68, 65
1, 54332, Note_on_c, 0, 65, 55
1, 54335, Control_c, 0, 64, 127
1, 54399, Note_on_c, 0, 70, 0
1, 54399, Note_on_c, 0, 74, 0
1, 54399, Note_on_c, 0, 82, 0
1, 54402, Note_on_c, 0, 70, 70
1, 54402, Note_on_c, 0, 74, 70
1, 54402, Note_on_c, 0, 82, 83
1, 54405, Note_on_c, 0, 65, 0
1, 54405, Note_on_c, 0, 68, 0
1, 54405, Note_on_c, 0, 58, 0
1, 54408, Note_on_c, 0, 58, 48
1, 54408, Note_on_c, 0, 68, 57
1, 54408, Note_on_c, 0, 65, 48
1, 54548, Note_on_c, 0, 82, 0
1, 54548, Note_on_c, 0, 74, 0
1, 54548, Note_on_c, 0, 70, 0
1, 54551, Note_on_c, 0, 70, 75
1, 54551, Note_on_c, 0, 74, 75
1, 54551, Note_on_c, 0, 82, 89
1, 54554, Note_on_c, 0, 65, 0
1, 54554, Note_on_c, 0, 68, 0
1, 54554, Note_on_c, 0, 58, 0
1, 54557, Note_on_c, 0, 58, 55
1, 54557, Note_on_c, 0, 65, 55
1, 54557, Note_on_c, 0, 68, 65
1, 54629, Note_on_c, 0, 82, 0
1, 54629, Note_on_c, 0, 74, 0
1, 54629, Note_on_c, 0, 70, 0
1, 54632, Note_on_c, 0, 68, 0
1, 54632, Note_on_c, 0, 65, 0
1, 54632, Note_on_c, 0, 58, 0
1, 54663, Control_c, 0, 64, 0
1, 54787, Control_c, 0, 64, 127
1, 54791, Note_on_c, 0, 71, 79
1, 54791, Note_on_c, 0, 75, 79
1, 54791, Note_on_c, 0, 83, 93
1, 54794, Note_on_c, 0, 57, 55
1, 54794, Note_on_c, 0, 66, 65
1, 54794, Note_on_c, 0, 63, 55
1, 54861, Note_on_c, 0, 83, 0
1, 54861, Note_on_c, 0, 75, 0
1, 54861, Note_on_c, 0, 71, 0
1, 54864, Note_on_c, 0, 71, 73
1, 54864, Note_on_c, 0, 75, 73
1, 54864, Note_on_c, 0, 83, 86
1, 54867, Note_on_c, 0, 63, 0
1, 54867, Note_on_c, 0, 66, 0
1, 54867, Note_on_c, 0, 57, 0
1, 54870, Note_on_c, 0, 57, 49
1, 54870, Note_on_c, 0, 66, 58
1, 54870, Note_on_c, 0, 63, 49
1, 55007, Note_on_c, 0, 83, 0
1, 55007, Note_on_c, 0, 75, 0
1, 55007, Note_on_c, 0, 71, 0
1, 55010, Note_on_c, 0, 71, 79
1, 55010, Note_on_c, 0, 75, 79
1, 55010, Note_on_c, 0, 83, 93
1, 55013, Note_on_c, 0, 63, 0
1, 55013, Note_on_c, 0, 66, 0
1, 55013, Note_on_c, 0, 57, 0
1, 55016, Note_on_c, 0, 57, 54
1, 55016, Note_on_c, 0, 63, 54
1, 55016, Note_on_c, 0, 66, 64
1, 55089, Note_on_c, 0, 83, 0
1, 55089, Note_on_c, 0, 75, 0
1, 55089, Note_on_c, 0, 71, 0
1, 55092, Note_on_c, 0, 66, 0
1, 55092, Note_on_c, 0, 63, 0
1, 55092, Note_on_c, 0, 57, 0
1, 55112, Control_c, 0, 64, 0
1, 55252, Note_on_c, 0, 84, 96
1, 55252, Note_on_c, 0, 76, 81
1, 55252, Note_on_c, 0, 72, 81
1, 55255, Note_on_c, 0, 55, 56
1, 55255, Note_on_c, 0, 64, 67
1, 55255, Note_on_c, 0, 58, 56
1, 55258, Control_c, 0, 64, 127
1, 55322, Note_on_c, 0, 72, 0
1, 55322, Note_on_c, 0, 76, 0
1, 55322, Note_on_c, 0, 84, 0
1, 55325, Note_on_c, 0, 72, 75
1, 55325, Note_on_c, 0, 76, 75
1, 55325, Note_on_c, 0, 84, 89
1, 55328, Note_on_c, 0, 58, 0
1, 55328, Note_on_c, 0, 64, 0
1, 55328, Note_on_c, 0, 55, 0
1, 55331, Note_on_c, 0, 55, 52
1, 55331, Note_on_c, 0, 64, 62
1, 55331, Note_on_c, 0, 58, 52
1, 55469, Note_on_c, 0, 84, 0
1, 55469, Note_on_c, 0, 76, 0
1, 55469, Note_on_c, 0, 72, 0
1, 55472, Note_on_c, 0, 72, 79
1, 55472, Note_on_c, 0, 76, 79
1, 55472, Note_on_c, 0, 84, 94
1, 55475, Note_on_c, 0, 58, 0
1, 55475, Note_on_c, 0, 64, 0
1, 55475, Note_on_c, 0, 55, 0
1, 55478, Note_on_c, 0, 55, 57
1, 55478, Note_on_c, 0, 58, 57
1, 55478, Note_on_c, 0, 64, 68
1, 55550, Note_on_c, 0, 84, 0
1, 55550, Note_on_c, 0, 76, 0
1, 55550, Note_on_c, 0, 72, 0
1, 55553, Note_on_c, 0, 64, 0
1, 55553, Note_on_c, 0, 58, 0
1, 55553, Note_on_c, 0, 55, 0
1, 55566, Control_c, 0, 64, 0
1, 55708, Control_c, 0, 64, 127
1, 55712, Note_on_c, 0, 73, 81
1, 55712, Note_on_c, 0, 77, 81
1, 55712, Note_on_c, 0, 85, 96
1, 55715, Note_on_c, 0, 53, 56
1, 55715, Note_on_c, 0, 61, 66
1, 55715, Note_on_c, 0, 56, 56
1, 55783, Note_on_c, 0, 85, 0
1, 55783, Note_on_c, 0, 77, 0
1, 55783, Note_on_c, 0, 73, 0
1, 55786, Note_on_c, 0, 73, 76
1, 55786, Note_on_c, 0, 77, 76
1, 55786, Note_on_c, 0, 85, 90
1, 55789, Note_on_c, 0, 56, 0
1, 55789, Note_on_c, 0, 61, 0
1, 55789, Note_on_c, 0, 53, 0
1, 55792, Note_on_c, 0, 53, 51
1, 55792, Note_on_c, 0, 61, 60
1, 55792, Note_on_c, 0, 56, 51
1, 55935, Note_on_c, 0, 85, 0
1, 55935, Note_on_c, 0, 77, 0
1, 55935, Note_on_c, 0, 73, 0
1, 55938, Note_on_c, 0, 73, 80
1, 55938, Note_on_c, 0, 77, 80
1, 55938, Note_on_c, 0, 85, 95
1, 55941, Note_on_c, 0, 56, 0
1, 55941, Note_on_c, 0, 61, 0
1, 55941, Note_on_c, 0, 53, 0
1, 55944, Note_on_c, 0, 53, 56
1, 55944, Note_on_c, 0, 56, 56
1, 55944, Note_on_c, 0, 61, 66
1, 56016, Note_on_c, 0, 85, 0
1, 56016, Note_on_c, 0, 77, 0
1, 56016, Note_on_c, 0, 73, 0
1, 56019, Note_on_c, 0, 61, 0
1, 56019, Note_on_c, 0, 56, 0
1, 56019, Note_on_c, 0, 53, 0
1, 56035, Control_c, 0, 64, 0
1, 56180, Note_on_c, 0, 77, 80
1, 56180, Note_on_c, 0, 89, 95
1, 56180, Note_on_c, 0, 85, 95
1, 56183, Note_on_c, 0, 80, 80
1, 56183, Note_on_c, 0, 47, 58
1, 56183, Note_on_c, 0, 59, 69
1, 56186, Note_on_c, 0, 53, 58
1, 56186, Control_c, 0, 64, 127
1, 56252, Note_on_c, 0, 80, 0
1, 56252, Note_on_c, 0, 77, 0
1, 56252, Note_on_c, 0, 89, 0
1, 56255, Note_on_c, 0, 85, 0
1, 56255, Note_on_c, 0, 77, 77
1, 56255, Note_on_c, 0, 80, 77
1, 56258, Note_on_c, 0, 85, 91
1, 56258, Note_on_c, 0, 89, 91
1, 56258, Note_on_c, 0, 53, 0
1, 56261, Note_on_c, 0, 59, 0
1, 56261, Note_on_c, 0, 47, 0
1, 56261, Note_on_c, 0, 47, 51
1, 56264, Note_on_c, 0, 59, 61
1, 56264, Note_on_c, 0, 53, 51
1, 56408, Note_on_c, 0, 89, 0
1, 56408, Note_on_c, 0, 77, 0
1, 56408, Note_on_c, 0, 80, 0
1, 56411, Note_on_c, 0, 85, 0
1, 56411, Note_on_c, 0, 77, 83
1, 56411, Note_on_c, 0, 80, 83
1, 56414, Note_on_c, 0, 85, 98
1, 56414, Note_on_c, 0, 89, 98
1, 56414, Note_on_c, 0, 53, 0
1, 56417, Note_on_c, 0, 59, 0
1, 56417, Note_on_c, 0, 47, 0
1, 56417, Note_on_c, 0, 47, 58
1, 56420, Note_on_c, 0, 53, 58
1, 56420, Note_on_c, 0, 59, 69
1, 56488, Note_on_c, 0, 89, 0
1, 56488, Note_on_c, 0, 77, 0
1, 56488, Note_on_c, 0, 80, 0
1, 56491, Note_on_c, 0, 85, 0
1, 56491, Note_on_c, 0, 59, 0
1, 56491, Note_on_c, 0, 53, 0
1, 56494, Note_on_c, 0, 47, 0
1, 56504, Control_c, 0, 64, 0
1, 56646, Control_c, 0, 64, 127
1, 56650, Note_on_c, 0, 80, 87
1, 56650, Note_on_c, 0, 86, 87
1, 56650, Note_on_c, 0, 94, 103
1, 56653, Note_on_c, 0, 46, 59
1, 56653, Note_on_c, 0, 58, 70
1, 56653, Note_on_c, 0, 53, 59
1, 56723, Note_on_c, 0, 94, 0
1, 56723, Note_on_c, 0, 86, 0
1, 56723, Note_on_c, 0, 80, 0
1, 56726, Note_on_c, 0, 80, 81
1, 56726, Note_on_c, 0, 86, 81
1, 56726, Note_on_c, 0, 94, 96
1, 56729, Note_on_c, 0, 53, 0
1, 56729, Note_on_c, 0, 58, 0
1, 56729, Note_on_c, 0, 46, 0
1, 56732, Note_on_c, 0, 46, 54
1, 56732, Note_on_c, 0, 58, 64
1, 56732, Note_on_c, 0, 53, 54
1, 56880, Note_on_c, 0, 94, 0
1, 56880, Note_on_c, 0, 86, 0
1, 56880, Note_on_c, 0, 80, 0
1, 56883, Note_on_c, 0, 80, 89
1, 56883, Note_on_c, 0, 86, 89
1, 56883, Note_on_c, 0, 94, 105
1, 56886, Note_on_c, 0, 53, 0
1, 56886, Note_on_c, 0, 58, 0
1, 56886, Note_on_c, 0, 46, 0
1, 56889, Note_on_c, 0, 46, 61
1, 56889, Note_on_c, 0, 53, 61
1, 56889, Note_on_c, 0, 58, 72
1, 56960, Note_on_c, 0, 94, 0
1, 56960, Note_on_c, 0, 86, 0
1, 56960, Note_on_c, 0, 80, 0
1, 56963, Note_on_c, 0, 58, 0
1, 56963, Note_on_c, 0, 53, 0
1, 56963, Note_on_c, 0, 46, 0
1, 56979, Control_c, 0, 64, 0
1, 57121, Note_on_c, 0, 70, 59
1, 57121, Note_on_c, 0, 58, 54
1, 57161, Note_on_c, 0, 70, 0
1, 57161, Note_on_c, 0, 58, 0
1, 57202, Note_on_c, 0, 70, 54
1, 57202, Note_on_c, 0, 58, 49
1, 57282, Note_on_c, 0, 70, 0
1, 57282, Note_on_c, 0, 58, 0
1, 57363, Note_on_c, 0, 70, 57
1, 57363, Note_on_c, 0, 58, 48
1, 57444, Note_on_c, 0, 70, 0
1, 57444, Note_on_c, 0, 58, 0
1, 57609, Note_on_c, 0, 70, 48
1, 57609, Note_on_c, 0, 58, 39
1, 57651, Note_on_c, 0, 70, 0
1, 57651, Note_on_c, 0, 58, 0
1, 57694, Note_on_c, 0, 70, 52
1, 57694, Note_on_c, 0, 58, 44
1, 57789, Note_on_c, 0, 70, 0
1, 57789, Note_on_c, 0, 58, 0
1, 57881, Note_on_c, 0, 67, 42
1, 57881, Note_on_c, 0, 70, 42
1, 57881, Note_on_c, 0, 79, 59
1, 57884, Note_on_c, 0, 51, 28
1, 57884, Note_on_c, 0, 58, 28
1, 57884, Note_on_c, 0, 63, 34
1, 58045, Note_on_c, 0, 79, 0
1, 58045, Note_on_c, 0, 70, 0
1, 58045, Note_on_c, 0, 67, 0
1, 58048, Note_on_c, 0, 63, 0
1, 58048, Note_on_c, 0, 58, 0
1, 58048, Note_on_c, 0, 51, 0
1, 58128, Note_on_c, 0, 70, 37
1, 58128, Note_on_c, 0, 75, 48
1, 58128, Note_on_c, 0, 67, 28
1, 58131, Note_on_c, 0, 63, 23
1, 58168, Note_on_c, 0, 75, 0
1, 58168, Note_on_c, 0, 70, 0
1, 58168, Note_on_c, 0, 63, 0
1, 58171, Note_on_c, 0, 67, 0
1, 58174, Control_c, 0, 64, 127
1, 58207, Note_on_c, 0, 70, 37
1, 58207, Note_on_c, 0, 75, 48
1, 58207, Note_on_c, 0, 63, 23
1, 58210, Note_on_c, 0, 67, 28
1, 58294, Note_on_c, 0, 75, 0
1, 58294, Note_on_c, 0, 70, 0
1, 58294, Note_on_c, 0, 67, 0
1, 58297, Note_on_c, 0, 63, 0
1, 58380, Note_on_c, 0, 70, 42
1, 58380, Note_on_c, 0, 75, 55
1, 58380, Note_on_c, 0, 63, 29
1, 58383, Note_on_c, 0, 67, 35
1, 58428, Control_c, 0, 64, 0
1, 58463, Note_on_c, 0, 75, 0
1, 58463, Note_on_c, 0, 70, 0
1, 58463, Note_on_c, 0, 67, 0
1, 58466, Note_on_c, 0, 63, 0
1, 58628, Note_on_c, 0, 67, 38
1, 58628, Note_on_c, 0, 70, 49
1, 58628, Note_on_c, 0, 63, 29
1, 58631, Note_on_c, 0, 58, 24
1, 58637, Control_c, 0, 64, 127
1, 58668, Note_on_c, 0, 70, 0
1, 58668, Note_on_c, 0, 67, 0
1, 58668, Note_on_c, 0, 58, 0
1, 58671, Note_on_c, 0, 63, 0
1, 58708, Note_on_c, 0, 67, 38
1, 58708, Note_on_c, 0, 70, 49
1, 58708, Note_on_c, 0, 58, 25
1, 58711, Note_on_c, 0, 63, 30
1, 58794, Note_on_c, 0, 70, 0
1, 58794, Note_on_c, 0, 67, 0
1, 58794, Note_on_c, 0, 63, 0
1, 58797, Note_on_c, 0, 58, 0
1, 58881, Note_on_c, 0, 63, 44
1, 58881, Note_on_c, 0, 67, 57
1, 58881, Note_on_c, 0, 60, 35
1, 58884, Control_c, 0, 64, 0
1, 58963, Note_on_c, 0, 67, 0
1, 58963, Note_on_c, 0, 63, 0
1, 58963, Note_on_c, 0, 60, 0
1, 59117, Control_c, 0, 64, 127
1, 59127, Note_on_c, 0, 60, 40
1, 59127, Note_on_c, 0, 63, 51
1, 59127, Note_on_c, 0, 48, 24
1, 59130, Note_on_c, 0, 55, 29
1, 59168, Note_on_c, 0, 63, 0
1, 59168, Note_on_c, 0, 60, 0
1, 59168, Note_on_c, 0, 55, 0
1, 59171, Note_on_c, 0, 48, 0
1, 59209, Note_on_c, 0, 60, 40
1, 59209, Note_on_c, 0, 63, 51
1, 59209, Note_on_c, 0, 48, 24
1, 59212, Note_on_c, 0, 55, 29
1, 59293, Note_on_c, 0, 63, 0
1, 59293, Note_on_c, 0, 60, 0
1, 59293, Note_on_c, 0, 55, 0
1, 59296, Note_on_c, 0, 48, 0
1, 59377, Note_on_c, 0, 60, 44
1, 59377, Note_on_c, 0, 63, 57
1, 59377, Note_on_c, 0, 48, 28
1, 59380, Note_on_c, 0, 55, 34
1, 59875, Note_on_c, 0, 63, 0
1, 59875, Note_on_c, 0, 60, 0
1, 59875, Note_on_c, 0, 58, 42
1, 59878, Note_on_c, 0, 62, 42
1, 59878, Note_on_c, 0, 70, 55
1, 59878, Note_on_c, 0, 55, 0
1, 59881, Note_on_c, 0, 48, 0
1, 59881, Note_on_c, 0, 46, 28
1, 59881, Note_on_c, 0, 53, 28
1, 59884, Note_on_c, 0, 56, 33
1, 59884, Control_c, 0, 64, 0
1, 60038, Note_on_c, 0, 70, 0
1, 60038, Note_on_c, 0, 62, 0
1, 60038, Note_on_c, 0, 58, 0
1, 60041, Note_on_c, 0, 56, 0
1, 60041, Note_on_c, 0, 53, 0
1, 60041, Note_on_c, 0, 46, 0
1, 60116, Control_c, 0, 64, 127
1, 60121, Note_on_c, 0, 58, 38
1, 60121, Note_on_c, 0, 65, 49
1, 60121, Note_on_c, 0, 46, 24
1, 60124, Note_on_c, 0, 50, 24
1, 60124, Note_on_c, 0, 56, 29
1, 60163, Note_on_c, 0, 65, 0
1, 60163, Note_on_c, 0, 58, 0
1, 60163, Note_on_c, 0, 56, 0
1, 60166, Note_on_c, 0, 50, 0
1, 60166, Note_on_c, 0, 46, 0
1, 60205, Note_on_c, 0, 58, 38
1, 60205, Note_on_c, 0, 65, 49
1, 60205, Note_on_c, 0, 46, 24
1, 60208, Note_on_c, 0, 50, 24
1, 60208, Note_on_c, 0, 56, 29
1, 60288, Note_on_c, 0, 65, 0
1, 60288, Note_on_c, 0, 58, 0
1, 60288, Note_on_c, 0, 56, 0
1, 60291, Note_on_c, 0, 50, 0
1, 60291, Note_on_c, 0, 46, 0
1, 60371, Note_on_c, 0, 58, 42
1, 60371, Note_on_c, 0, 64, 55
1, 60371, Note_on_c, 0, 49, 28
1, 60374, Note_on_c, 0, 46, 28
1, 60374, Note_on_c, 0, 56, 34
1, 60380, Control_c, 0, 64, 0
1, 60432, Control_c, 0, 64, 127
1, 60451, Note_on_c, 0, 64, 0
1, 60451, Note_on_c, 0, 58, 0
1, 60451, Note_on_c, 0, 56, 0
1, 60454, Note_on_c, 0, 46, 0
1, 60454, Note_on_c, 0, 49, 0
1, 60531, Note_on_c, 0, 58, 44
1, 60531, Note_on_c, 0, 65, 57
1, 60531, Note_on_c, 0, 46, 31
1, 60534, Note_on_c, 0, 50, 31
1, 60534, Note_on_c, 0, 56, 36
1, 60540, Control_c, 0, 64, 0
1, 60599, Control_c, 0, 64, 127
1, 60613, Note_on_c, 0, 65, 0
1, 60613, Note_on_c, 0, 58, 0
1, 60613, Note_on_c, 0, 56, 0
1, 60616, Note_on_c, 0, 50, 0
1, 60616, Note_on_c, 0, 46, 0
1, 60695, Note_on_c, 0, 58, 44
1, 60695, Note_on_c, 0, 66, 44
1, 60695, Note_on_c, 0, 70, 57
1, 60698, Note_on_c, 0, 46, 32
1, 60698, Note_on_c, 0, 50, 32
1, 60698, Note_on_c, 0, 56, 39
1, 60704, Control_c, 0, 64, 0
1, 60776, Control_c, 0, 64, 127
1, 60811, Note_on_c, 0, 70, 0
1, 60811, Note_on_c, 0, 66, 0
1, 60811, Note_on_c, 0, 58, 0
1, 60814, Note_on_c, 0, 56, 0
1, 60814, Note_on_c, 0, 50, 0
1, 60814, Note_on_c, 0, 46, 0
1, 60926, Note_on_c, 0, 58, 47
1, 60926, Note_on_c, 0, 67, 47
1, 60926, Note_on_c, 0, 70, 61
1, 60929, Note_on_c, 0, 51, 35
1, 60929, Note_on_c, 0, 55, 41
1, 60934, Control_c, 0, 64, 0
1, 61090, Control_c, 0, 64, 127
1, 61450, Note_on_c, 0, 70, 0
1, 61450, Note_on_c, 0, 67, 0
1, 61450, Note_on_c, 0, 58, 0
1, 61453, Note_on_c, 0, 63, 42
1, 61453, Note_on_c, 0, 67, 55
1, 61453, Note_on_c, 0, 55, 0
1, 61456, Note_on_c, 0, 51, 0
1, 61456, Note_on_c, 0, 51, 30
1, 61456, Note_on_c, 0, 58, 36
1, 61620, Note_on_c, 0, 67, 0
1, 61620, Note_on_c, 0, 63, 0
1, 61620, Note_on_c, 0, 58, 0
1, 61623, Note_on_c, 0, 51, 0
1, 61638, Control_c, 0, 64, 0
1, 61959, Note_on_c, 0, 70, 42
1, 61959, Note_on_c, 0, 75, 42
1, 61959, Note_on_c, 0, 79, 59
1, 61962, Note_on_c, 0, 63, 28
1, 61962, Note_on_c, 0, 67, 34
1, 62122, Note_on_c, 0, 79, 0
1, 62122, Note_on_c, 0, 75, 0
1, 62122, Note_on_c, 0, 70, 0
1, 62125, Note_on_c, 0, 67, 0
1, 62125, Note_on_c, 0, 63, 0
1, 62205, Note_on_c, 0, 67, 37
1, 62205, Note_on_c, 0, 70, 37
1, 62205, Note_on_c, 0, 75, 48
1, 62208, Note_on_c, 0, 63, 28
1, 62208, Note_on_c, 0, 58, 23
1, 62245, Note_on_c, 0, 75, 0
1, 62245, Note_on_c, 0, 70, 0
1, 62245, Note_on_c, 0, 67, 0
1, 62248, Note_on_c, 0, 58, 0
1, 62248, Note_on_c, 0, 63, 0
1, 62252, Control_c, 0, 64, 127
1, 62285, Note_on_c, 0, 67, 37
1, 62285, Note_on_c, 0, 70, 37
1, 62285, Note_on_c, 0, 75, 48
1, 62288, Note_on_c, 0, 58, 23
1, 62288, Note_on_c, 0, 63, 28
1, 62372, Note_on_c, 0, 75, 0
1, 62372, Note_on_c, 0, 70, 0
1, 62372, Note_on_c, 0, 67, 0
1, 62375, Note_on_c, 0, 63, 0
1, 62375, Note_on_c, 0, 58, 0
1, 62458, Note_on_c, 0, 67, 42
1, 62458, Note_on_c, 0, 70, 42
1, 62458, Note_on_c, 0, 75, 55
1, 62461, Note_on_c, 0, 58, 29
1, 62461, Note_on_c, 0, 63, 35
1, 62506, Control_c, 0, 64, 0
1, 62540, Note_on_c, 0, 75, 0
1, 62540, Note_on_c, 0, 70, 0
1, 62540, Note_on_c, 0, 67, 0
1, 62543, Note_on_c, 0, 63, 0
1, 62543, Note_on_c, 0, 58, 0
1, 62703, Note_on_c, 0, 63, 38
1, 62703, Note_on_c, 0, 67, 38
1, 62703, Note_on_c, 0, 70, 49
1, 62706, Note_on_c, 0, 58, 29
1, 62706, Note_on_c, 0, 55, 24
1, 62713, Control_c, 0, 64, 127
1, 62745, Note_on_c, 0, 70, 0
1, 62745, Note_on_c, 0, 67, 0
1, 62745, Note_on_c, 0, 63, 0
1, 62748, Note_on_c, 0, 55, 0
1, 62748, Note_on_c, 0, 58, 0
1, 62786, Note_on_c, 0, 63, 38
1, 62786, Note_on_c, 0, 67, 38
1, 62786, Note_on_c, 0, 70, 49
1, 62789, Note_on_c, 0, 55, 25
1, 62789, Note_on_c, 0, 58, 30
1, 62873, Note_on_c, 0, 70, 0
1, 62873, Note_on_c, 0, 67, 0
1, 62873, Note_on_c, 0, 63, 0
1, 62876, Note_on_c, 0, 58, 0
1, 62876, Note_on_c, 0, 55, 0
1, 62960, Note_on_c, 0, 63, 44
1, 62960, Note_on_c, 0, 67, 57
1, 62960, Note_on_c, 0, 55, 25
1, 62963, Note_on_c, 0, 60, 35
1, 62963, Control_c, 0, 64, 0
1, 63041, Note_on_c, 0, 67, 0
1, 63041, Note_on_c, 0, 63, 0
1, 63041, Note_on_c, 0, 60, 0
1, 63044, Note_on_c, 0, 55, 0
1, 63196, Control_c, 0, 64, 127
1, 63205, Note_on_c, 0, 60, 40
1, 63205, Note_on_c, 0, 63, 51
1, 63205, Note_on_c, 0, 48, 24
1, 63208, Note_on_c, 0, 55, 29
1, 63245, Note_on_c, 0, 63, 0
1, 63245, Note_on_c, 0, 60, 0
1, 63245, Note_on_c, 0, 55, 0
1, 63248, Note_on_c, 0, 48, 0
1, 63286, Note_on_c, 0, 60, 40
1, 63286, Note_on_c, 0, 63, 51
1, 63286, Note_on_c, 0, 48, 24
1, 63289, Note_on_c, 0, 55, 29
1, 63370, Note_on_c, 0, 63, 0
1, 63370, Note_on_c, 0, 60, 0
1, 63370, Note_on_c, 0, 55, 0
1, 63373, Note_on_c, 0, 48, 0
1, 63454, Note_on_c, 0, 60, 44
1, 63454, Note_on_c, 0, 63, 57
1, 63454, Note_on_c, 0, 48, 28
1, 63457, Note_on_c, 0, 55, 34
1, 63951, Note_on_c, 0, 63, 0
1, 63951, Note_on_c, 0, 60, 0
1, 63951, Note_on_c, 0, 59, 42
1, 63954, Note_on_c, 0, 62, 42
1, 63954, Note_on_c, 0, 71, 55
1, 63954, Note_on_c, 0, 55, 0
1, 63957, Note_on_c, 0, 48, 0
1, 63957, Note_on_c, 0, 43, 28
1, 63957, Note_on_c, 0, 50, 28
1, 63960, Note_on_c, 0, 55, 33
1, 63960, Control_c, 0, 64, 0
1, 64115, Note_on_c, 0, 71, 0
1, 64115, Note_on_c, 0, 62, 0
1, 64115, Note_on_c, 0, 59, 0
1, 64118, Note_on_c, 0, 55, 0
1, 64118, Note_on_c, 0, 50, 0
1, 64118, Note_on_c, 0, 43, 0
1, 64193, Control_c, 0, 64, 127
1, 64198, Note_on_c, 0, 59, 38
1, 64198, Note_on_c, 0, 62, 49
1, 64198, Note_on_c, 0, 43, 24
1, 64201, Note_on_c, 0, 50, 24
1, 64201, Note_on_c, 0, 55, 29
1, 64239, Note_on_c, 0, 62, 0
1, 64239, Note_on_c, 0, 59, 0
1, 64239, Note_on_c, 0, 55, 0
1, 64242, Note_on_c, 0, 50, 0
1, 64242, Note_on_c, 0, 43, 0
1, 64281, Note_on_c, 0, 59, 38
1, 64281, Note_on_c, 0, 62, 49
1, 64281, Note_on_c, 0, 43, 24
1, 64284, Note_on_c, 0, 50, 24
1, 64284, Note_on_c, 0, 55, 29
1, 64364, Note_on_c, 0, 62, 0
1, 64364, Note_on_c, 0, 59, 0
1, 64364, Note_on_c, 0, 55, 0
1, 64367, Note_on_c, 0, 50, 0
1, 64367, Note_on_c, 0, 43, 0
1, 64447, Note_on_c, 0, 59, 42
1, 64447, Note_on_c, 0, 61, 55
1, 64447, Note_on_c, 0, 50, 28
1, 64450, Note_on_c, 0, 43, 28
1, 64450, Note_on_c, 0, 55, 34
1, 64456, Control_c, 0, 64, 0
1, 64509, Control_c, 0, 64, 127
1, 64528, Note_on_c, 0, 61, 0
1, 64528, Note_on_c, 0, 59, 0
1, 64528, Note_on_c, 0, 55, 0
1, 64531, Note_on_c, 0, 43, 0
1, 64531, Note_on_c, 0, 50, 0
1, 64608, Note_on_c, 0, 59, 44
1, 64608, Note_on_c, 0, 62, 57
1, 64608, Note_on_c, 0, 43, 31
1, 64611, Note_on_c, 0, 50, 31
1, 64611, Note_on_c, 0, 55, 36
1, 64616, Control_c, 0, 64, 0
1, 64675, Control_c, 0, 64, 127
1, 64690, Note_on_c, 0, 62, 0
1, 64690, Note_on_c, 0, 59, 0
1, 64690, Note_on_c, 0, 55, 0
1, 64693, Note_on_c, 0, 50, 0
1, 64693, Note_on_c, 0, 43, 0
1, 64772, Note_on_c, 0, 59, 44
1, 64772, Note_on_c, 0, 62, 44
1, 64772, Note_on_c, 0, 67, 57
1, 64775, Note_on_c, 0, 43, 32
1, 64775, Note_on_c, 0, 50, 32
1, 64775, Note_on_c, 0, 55, 39
1, 64780, Control_c, 0, 64, 0
1, 64852, Control_c, 0, 64, 127
1, 64887, Note_on_c, 0, 67, 0
1, 64887, Note_on_c, 0, 62, 0
1, 64887, Note_on_c, 0, 59, 0
1, 64890, Note_on_c, 0, 55, 0
1, 64890, Note_on_c, 0, 50, 0
1, 64890, Note_on_c, 0, 43, 0
1, 65002, Note_on_c, 0, 59, 47
1, 65002, Note_on_c, 0, 67, 47
1, 65002, Note_on_c, 0, 71, 61
1, 65005, Note_on_c, 0, 43, 35
1, 65005, Note_on_c, 0, 50, 35
1, 65005, Note_on_c, 0, 55, 41
1, 65010, Control_c, 0, 64, 0
1, 65168, Control_c, 0, 64, 127
1, 65531, Note_on_c, 0, 71, 0
1, 65531, Note_on_c, 0, 67, 0
1, 65531, Note_on_c, 0, 59, 0
1, 65534, Note_on_c, 0, 58, 42
1, 65534, Note_on_c, 0, 62, 42
1, 65534, Note_on_c, 0, 70, 55
1, 65537, Note_on_c, 0, 55, 0
1, 65537, Note_on_c, 0, 50, 0
1, 65537, Note_on_c, 0, 43, 0
1, 65540, Note_on_c, 0, 46, 30
1, 65540, Note_on_c, 0, 53, 30
1, 65540, Note_on_c, 0, 56, 36
1, 65589, Control_c, 0, 64, 0
1, 65690, Control_c, 0, 64, 127
1, 66059, Note_on_c, 0, 70, 0
1, 66059, Note_on_c, 0, 62, 0
1, 66059, Note_on_c, 0, 58, 0
1, 66062, Note_on_c, 0, 79, 67
1, 66062, Note_on_c, 0, 82, 67
1, 66062, Note_on_c, 0, 91, 87
1, 66065, Note_on_c, 0, 56, 0
1, 66065, Note_on_c, 0, 53, 0
1, 66065, Note_on_c, 0, 46, 0
1, 66068, Note_on_c, 0, 39, 38
1, 66068, Note_on_c, 0, 46, 38
1, 66068, Note_on_c, 0, 51, 45
1, 66071, Control_c, 0, 64, 0
1, 66110, Control_c, 0, 64, 127
1, 66223, Note_on_c, 0, 91, 0
1, 66223, Note_on_c, 0, 82, 0
1, 66223, Note_on_c, 0, 79, 0
1, 66226, Note_on_c, 0, 51, 0
1, 66226, Note_on_c, 0, 46, 0
1, 66226, Note_on_c, 0, 39, 0
1, 66309, Note_on_c, 0, 75, 60
1, 66309, Note_on_c, 0, 79, 60
1, 66309, Note_on_c, 0, 87, 72
1, 66312, Note_on_c, 0, 43, 30
1, 66312, Note_on_c, 0, 55, 37
1, 66312, Note_on_c, 0, 51, 30
1, 66348, Note_on_c, 0, 87, 0
1, 66348, Note_on_c, 0, 79, 0
1, 66348, Note_on_c, 0, 75, 0
1, 66351, Note_on_c, 0, 51, 0
1, 66351, Note_on_c, 0, 55, 0
1, 66351, Note_on_c, 0, 43, 0
1, 66386, Note_on_c, 0, 75, 60
1, 66386, Note_on_c, 0, 79, 60
1, 66386, Note_on_c, 0, 87, 72
1, 66389, Note_on_c, 0, 43, 30
1, 66389, Note_on_c, 0, 51, 30
1, 66389, Note_on_c, 0, 55, 37
1, 66472, Note_on_c, 0, 87, 0
1, 66472, Note_on_c, 0, 79, 0
1, 66472, Note_on_c, 0, 75, 0
1, 66475, Note_on_c, 0, 55, 0
1, 66475, Note_on_c, 0, 51, 0
1, 66475, Note_on_c, 0, 43, 0
1, 66559, Note_on_c, 0, 75, 67
1, 66559, Note_on_c, 0, 79, 67
1, 66559, Note_on_c, 0, 87, 81
1, 66562, Note_on_c, 0, 43, 39
1, 66562, Note_on_c, 0, 51, 39
1, 66562, Note_on_c, 0, 55, 46
1, 66641, Note_on_c, 0, 87, 0
1, 66641, Note_on_c, 0, 79, 0
1, 66641, Note_on_c, 0, 75, 0
1, 66644, Note_on_c, 0, 55, 0
1, 66644, Note_on_c, 0, 51, 0
1, 66644, Note_on_c, 0, 43, 0
1, 66811, Note_on_c, 0, 70, 59
1, 66811, Note_on_c, 0, 75, 59
1, 66811, Note_on_c, 0, 82, 70
1, 66814, Note_on_c, 0, 46, 33
1, 66814, Note_on_c, 0, 58, 39
1, 66814, Note_on_c, 0, 55, 33
1, 66850, Note_on_c, 0, 82, 0
1, 66850, Note_on_c, 0, 75, 0
1, 66850, Note_on_c, 0, 70, 0
1, 66853, Note_on_c, 0, 55, 0
1, 66853, Note_on_c, 0, 58, 0
1, 66853, Note_on_c, 0, 46, 0
1, 66889, Note_on_c, 0, 70, 59
1, 66889, Note_on_c, 0, 75, 59
1, 66889, Note_on_c, 0, 82, 70
1, 66892, Note_on_c, 0, 46, 34
1, 66892, Note_on_c, 0, 55, 34
1, 66892, Note_on_c, 0, 58, 40
1, 66976, Note_on_c, 0, 82, 0
1, 66976, Note_on_c, 0, 75, 0
1, 66976, Note_on_c, 0, 70, 0
1, 66979, Note_on_c, 0, 58, 0
1, 66979, Note_on_c, 0, 55, 0
1, 66979, Note_on_c, 0, 46, 0
1, 67062, Note_on_c, 0, 67, 68
1, 67062, Note_on_c, 0, 75, 68
1, 67062, Note_on_c, 0, 79, 81
1, 67065, Note_on_c, 0, 48, 33
1, 67065, Note_on_c, 0, 55, 33
1, 67065, Note_on_c, 0, 60, 46
1, 67068, Control_c, 0, 64, 0
1, 67129, Control_c, 0, 64, 127
1, 67144, Note_on_c, 0, 79, 0
1, 67144, Note_on_c, 0, 75, 0
1, 67144, Note_on_c, 0, 67, 0
1, 67147, Note_on_c, 0, 60, 0
1, 67147, Note_on_c, 0, 55, 0
1, 67147, Note_on_c, 0, 48, 0
1, 67309, Note_on_c, 0, 67, 61
1, 67309, Note_on_c, 0, 72, 61
1, 67309, Note_on_c, 0, 75, 72
1, 67312, Note_on_c, 0, 60, 33
1, 67312, Note_on_c, 0, 55, 33
1, 67312, Note_on_c, 0, 63, 39
1, 67349, Note_on_c, 0, 75, 0
1, 67349, Note_on_c, 0, 72, 0
1, 67349, Note_on_c, 0, 67, 0
1, 67352, Note_on_c, 0, 63, 0
1, 67352, Note_on_c, 0, 55, 0
1, 67352, Note_on_c, 0, 60, 0
1, 67388, Note_on_c, 0, 67, 61
1, 67388, Note_on_c, 0, 72, 61
1, 67388, Note_on_c, 0, 75, 72
1, 67391, Note_on_c, 0, 60, 33
1, 67391, Note_on_c, 0, 55, 33
1, 67391, Note_on_c, 0, 63, 39
1, 67472, Note_on_c, 0, 75, 0
1, 67472, Note_on_c, 0, 72, 0
1, 67472, Note_on_c, 0, 67, 0
1, 67475, Note_on_c, 0, 63, 0
1, 67475, Note_on_c, 0, 55, 0
1, 67475, Note_on_c, 0, 60, 0
1, 67557, Note_on_c, 0, 67, 67
1, 67557, Note_on_c, 0, 72, 67
1, 67557, Note_on_c, 0, 75, 79
1, 67560, Note_on_c, 0, 60, 38
1, 67560, Note_on_c, 0, 55, 38
1, 67560, Note_on_c, 0, 63, 45
1, 68054, Note_on_c, 0, 75, 0
1, 68054, Note_on_c, 0, 72, 0
1, 68054, Note_on_c, 0, 67, 0
1, 68057, Note_on_c, 0, 68, 56
1, 68057, Note_on_c, 0, 70, 56
1, 68057, Note_on_c, 0, 74, 56
1, 68060, Note_on_c, 0, 82, 67
1, 68060, Note_on_c, 0, 63, 0
1, 68060, Note_on_c, 0, 55, 0
1, 68063, Note_on_c, 0, 60, 0
1, 68063, Note_on_c, 0, 46, 37
1, 68063, Note_on_c, 0, 53, 37
1, 68066, Note_on_c, 0, 58, 45
1, 68066, Control_c, 0, 64, 0
1, 68095, Control_c, 0, 64, 127
1, 68217, Note_on_c, 0, 82, 0
1, 68217, Note_on_c, 0, 68, 0
1, 68217, Note_on_c, 0, 70, 0
1, 68220, Note_on_c, 0, 74, 0
1, 68220, Note_on_c, 0, 58, 0
1, 68220, Note_on_c, 0, 53, 0
1, 68223, Note_on_c, 0, 46, 0
1, 68300, Note_on_c, 0, 68, 51
1, 68300, Note_on_c, 0, 70, 51
1, 68300, Note_on_c, 0, 77, 61
1, 68303, Note_on_c, 0, 58, 33
1, 68303, Note_on_c, 0, 62, 33
1, 68303, Note_on_c, 0, 65, 39
1, 68342, Note_on_c, 0, 77, 0
1, 68342, Note_on_c, 0, 70, 0
1, 68342, Note_on_c, 0, 68, 0
1, 68345, Note_on_c, 0, 65, 0
1, 68345, Note_on_c, 0, 62, 0
1, 68345, Note_on_c, 0, 58, 0
1, 68384, Note_on_c, 0, 68, 51
1, 68384, Note_on_c, 0, 70, 51
1, 68384, Note_on_c, 0, 77, 61
1, 68387, Note_on_c, 0, 58, 33
1, 68387, Note_on_c, 0, 62, 33
1, 68387, Note_on_c, 0, 65, 39
1, 68467, Note_on_c, 0, 77, 0
1, 68467, Note_on_c, 0, 70, 0
1, 68467, Note_on_c, 0, 68, 0
1, 68470, Note_on_c, 0, 65, 0
1, 68470, Note_on_c, 0, 62, 0
1, 68470, Note_on_c, 0, 58, 0
1, 68550, Note_on_c, 0, 68, 56
1, 68550, Note_on_c, 0, 70, 56
1, 68550, Note_on_c, 0, 76, 67
1, 68553, Note_on_c, 0, 61, 38
1, 68553, Note_on_c, 0, 58, 38
1, 68553, Note_on_c, 0, 64, 45
1, 68559, Control_c, 0, 64, 0
1, 68612, Control_c, 0, 64, 127
1, 68630, Note_on_c, 0, 76, 0
1, 68630, Note_on_c, 0, 70, 0
1, 68630, Note_on_c, 0, 68, 0
1, 68633, Note_on_c, 0, 64, 0
1, 68633, Note_on_c, 0, 58, 0
1, 68633, Note_on_c, 0, 61, 0
1, 68711, Note_on_c, 0, 68, 60
1, 68711, Note_on_c, 0, 70, 60
1, 68711, Note_on_c, 0, 77, 71
1, 68714, Note_on_c, 0, 58, 41
1, 68714, Note_on_c, 0, 62, 41
1, 68714, Note_on_c, 0, 65, 49
1, 68719, Control_c, 0, 64, 0
1, 68778, Control_c, 0, 64, 127
1, 68793, Note_on_c, 0, 77, 0
1, 68793, Note_on_c, 0, 70, 0
1, 68793, Note_on_c, 0, 68, 0
1, 68796, Note_on_c, 0, 65, 0
1, 68796, Note_on_c, 0, 62, 0
1, 68796, Note_on_c, 0, 58, 0
1, 68874, Note_on_c, 0, 68, 60
1, 68874, Note_on_c, 0, 70, 60
1, 68874, Note_on_c, 0, 78, 60
1, 68877, Note_on_c, 0, 82, 71
1, 68877, Note_on_c, 0, 58, 44
1, 68877, Note_on_c, 0, 62, 44
1, 68880, Note_on_c, 0, 66, 52
1, 68883, Control_c, 0, 64, 0
1, 68955, Control_c, 0, 64, 127
1, 68990, Note_on_c, 0, 82, 0
1, 68990, Note_on_c, 0, 68, 0
1, 68990, Note_on_c, 0, 70, 0
1, 68993, Note_on_c, 0, 78, 0
1, 68993, Note_on_c, 0, 66, 0
1, 68993, Note_on_c, 0, 62, 0
1, 68996, Note_on_c, 0, 58, 0
1, 69105, Note_on_c, 0, 70, 63
1, 69105, Note_on_c, 0, 79, 63
1, 69105, Note_on_c, 0, 82, 75
1, 69108, Note_on_c, 0, 58, 46
1, 69108, Note_on_c, 0, 51, 46
1, 69108, Note_on_c, 0, 67, 55
1, 69113, Control_c, 0, 64, 0
1, 69262, Control_c, 0, 64, 127
1, 69604, Note_on_c, 0, 82, 0
1, 69604, Note_on_c, 0, 79, 0
1, 69604, Note_on_c, 0, 70, 0
1, 69607, Note_on_c, 0, 67, 56
1, 69607, Note_on_c, 0, 70, 56
1, 69607, Note_on_c, 0, 79, 67
1, 69610, Note_on_c, 0, 67, 0
1, 69610, Note_on_c, 0, 51, 0
1, 69610, Note_on_c, 0, 58, 0
1, 69613, Note_on_c, 0, 58, 40
1, 69613, Note_on_c, 0, 51, 40
1, 69613, Note_on_c, 0, 63, 48
1, 69770, Note_on_c, 0, 79, 0
1, 69770, Note_on_c, 0, 70, 0
1, 69770, Note_on_c, 0, 67, 0
1, 69773, Note_on_c, 0, 63, 0
1, 69773, Note_on_c, 0, 51, 0
1, 69773, Note_on_c, 0, 58, 0
1, 69789, Control_c, 0, 64, 0
1, 70103, Note_on_c, 0, 87, 75
1, 70103, Note_on_c, 0, 91, 75
1, 70103, Note_on_c, 0, 99, 97
1, 70106, Note_on_c, 0, 39, 51
1, 70106, Note_on_c, 0, 46, 51
1, 70106, Note_on_c, 0, 51, 61
1, 70109, Control_c, 0, 64, 0
1, 70141, Control_c, 0, 64, 127
1, 70267, Note_on_c, 0, 99, 0
1, 70267, Note_on_c, 0, 91, 0
1, 70267, Note_on_c, 0, 87, 0
1, 70270, Note_on_c, 0, 51, 0
1, 70270, Note_on_c, 0, 46, 0
1, 70270, Note_on_c, 0, 39, 0
1, 70352, Note_on_c, 0, 82, 67
1, 70352, Note_on_c, 0, 87, 67
1, 70352, Note_on_c, 0, 94, 80
1, 70355, Note_on_c, 0, 43, 40
1, 70355, Note_on_c, 0, 55, 50
1, 70355, Note_on_c, 0, 51, 40
1, 70391, Note_on_c, 0, 94, 0
1, 70391, Note_on_c, 0, 87, 0
1, 70391, Note_on_c, 0, 82, 0
1, 70394, Note_on_c, 0, 51, 0
1, 70394, Note_on_c, 0, 55, 0
1, 70394, Note_on_c, 0, 43, 0
1, 70430, Note_on_c, 0, 82, 68
1, 70430, Note_on_c, 0, 87, 68
1, 70430, Note_on_c, 0, 94, 81
1, 70433, Note_on_c, 0, 43, 40
1, 70433, Note_on_c, 0, 51, 40
1, 70433, Note_on_c, 0, 55, 51
1, 70516, Note_on_c, 0, 94, 0
1, 70516, Note_on_c, 0, 87, 0
1, 70516, Note_on_c, 0, 82, 0
1, 70519, Note_on_c, 0, 55, 0
1, 70519, Note_on_c, 0, 51, 0
1, 70519, Note_on_c, 0, 43, 0
1, 70603, Note_on_c, 0, 82, 77
1, 70603, Note_on_c, 0, 87, 77
1, 70603, Note_on_c, 0, 94, 92
1, 70606, Note_on_c, 0, 43, 53
1, 70606, Note_on_c, 0, 51, 53
1, 70606, Note_on_c, 0, 55, 63
1, 70685, Note_on_c, 0, 94, 0
1, 70685, Note_on_c, 0, 87, 0
1, 70685, Note_on_c, 0, 82, 0
1, 70688, Note_on_c, 0, 55, 0
1, 70688, Note_on_c, 0, 51, 0
1, 70688, Note_on_c, 0, 43, 0
1, 70851, Note_on_c, 0, 79, 69
1, 70851, Note_on_c, 0, 87, 69
1, 70851, Note_on_c, 0, 91, 81
1, 70854, Note_on_c, 0, 46, 46
1, 70854, Note_on_c, 0, 58, 54
1, 70854, Note_on_c, 0, 55, 46
1, 70890, Note_on_c, 0, 91, 0
1, 70890, Note_on_c, 0, 87, 0
1, 70890, Note_on_c, 0, 79, 0
1, 70893, Note_on_c, 0, 55, 0
1, 70893, Note_on_c, 0, 58, 0
1, 70893, Note_on_c, 0, 46, 0
1, 70929, Note_on_c, 0, 79, 69
1, 70929, Note_on_c, 0, 87, 69
1, 70929, Note_on_c, 0, 91, 82
1, 70932, Note_on_c, 0, 46, 47
1, 70932, Note_on_c, 0, 55, 47
1, 70932, Note_on_c, 0, 58, 57
1, 71016, Note_on_c, 0, 91, 0
1, 71016, Note_on_c, 0, 87, 0
1, 71016, Note_on_c, 0, 79, 0
1, 71019, Note_on_c, 0, 58, 0
1, 71019, Note_on_c, 0, 55, 0
1, 71019, Note_on_c, 0, 46, 0
1, 71102, Note_on_c, 0, 79, 81
1, 71102, Note_on_c, 0, 87, 81
1, 71102, Note_on_c, 0, 91, 96
1, 71105, Note_on_c, 0, 48, 47
1, 71105, Note_on_c, 0, 55, 47
1, 71105, Note_on_c, 0, 60, 66
1, 71108, Control_c, 0, 64, 0
1, 71152, Control_c, 0, 64, 127
1, 71184, Note_on_c, 0, 91, 0
1, 71184, Note_on_c, 0, 87, 0
1, 71184, Note_on_c, 0, 79, 0
1, 71187, Note_on_c, 0, 60, 0
1, 71187, Note_on_c, 0, 55, 0
1, 71187, Note_on_c, 0, 48, 0
1, 71349, Note_on_c, 0, 75, 74
1, 71349, Note_on_c, 0, 84, 74
1, 71349, Note_on_c, 0, 87, 87
1, 71352, Note_on_c, 0, 60, 47
1, 71352, Note_on_c, 0, 55, 47
1, 71352, Note_on_c, 0, 63, 56
1, 71389, Note_on_c, 0, 87, 0
1, 71389, Note_on_c, 0, 84, 0
1, 71389, Note_on_c, 0, 75, 0
1, 71392, Note_on_c, 0, 63, 0
1, 71392, Note_on_c, 0, 55, 0
1, 71392, Note_on_c, 0, 60, 0
1, 71429, Note_on_c, 0, 75, 74
1, 71429, Note_on_c, 0, 84, 74
1, 71429, Note_on_c, 0, 87, 88
1, 71432, Note_on_c, 0, 60, 48
1, 71432, Note_on_c, 0, 55, 48
1, 71432, Note_on_c, 0, 63, 57
1, 71513, Note_on_c, 0, 87, 0
1, 71513, Note_on_c, 0, 84, 0
1, 71513, Note_on_c, 0, 75, 0
1, 71516, Note_on_c, 0, 63, 0
1, 71516, Note_on_c, 0, 55, 0
1, 71516, Note_on_c, 0, 60, 0
1, 71597, Note_on_c, 0, 75, 83
1, 71597, Note_on_c, 0, 84, 83
1, 71597, Note_on_c, 0, 87, 97
1, 71600, Note_on_c, 0, 60, 56
1, 71600, Note_on_c, 0, 55, 56
1, 71600, Note_on_c, 0, 63, 67
1, 72094, Note_on_c, 0, 87, 0
1, 72094, Note_on_c, 0, 84, 0
1, 72094, Note_on_c, 0, 75, 0
1, 72097, Note_on_c, 0, 83, 81
1, 72097, Note_on_c, 0, 86, 81
1, 72097, Note_on_c, 0, 95, 97
1, 72100, Note_on_c, 0, 63, 0
1, 72100, Note_on_c, 0, 55, 0
1, 72100, Note_on_c, 0, 60, 0
1, 72103, Note_on_c, 0, 43, 54
1, 72103, Note_on_c, 0, 50, 54
1, 72103, Note_on_c, 0, 55, 64
1, 72106, Control_c, 0, 64, 0
1, 72127, Control_c, 0, 64, 127
1, 72258, Note_on_c, 0, 95, 0
1, 72258, Note_on_c, 0, 86, 0
1, 72258, Note_on_c, 0, 83, 0
1, 72261, Note_on_c, 0, 55, 0
1, 72261, Note_on_c, 0, 50, 0
1, 72261, Note_on_c, 0, 43, 0
1, 72341, Note_on_c, 0, 74, 72
1, 72341, Note_on_c, 0, 83, 72
1, 72341, Note_on_c, 0, 86, 87
1, 72344, Note_on_c, 0, 55, 46
1, 72344, Note_on_c, 0, 59, 46
1, 72344, Note_on_c, 0, 62, 55
1, 72380, Note_on_c, 0, 86, 0
1, 72380, Note_on_c, 0, 83, 0
1, 72380, Note_on_c, 0, 74, 0
1, 72383, Note_on_c, 0, 62, 0
1, 72383, Note_on_c, 0, 59, 0
1, 72383, Note_on_c, 0, 55, 0
1, 72419, Note_on_c, 0, 74, 72
1, 72419, Note_on_c, 0, 83, 72
1, 72419, Note_on_c, 0, 86, 87
1, 72422, Note_on_c, 0, 55, 46
1, 72422, Note_on_c, 0, 59, 46
1, 72422, Note_on_c, 0, 62, 55
1, 72501, Note_on_c, 0, 86, 0
1, 72501, Note_on_c, 0, 83, 0
1, 72501, Note_on_c, 0, 74, 0
1, 72504, Note_on_c, 0, 62, 0
1, 72504, Note_on_c, 0, 59, 0
1, 72504, Note_on_c, 0, 55, 0
1, 72584, Note_on_c, 0, 73, 76
1, 72584, Note_on_c, 0, 82, 76
1, 72584, Note_on_c, 0, 85, 92
1, 72587, Note_on_c, 0, 58, 51
1, 72587, Note_on_c, 0, 55, 51
1, 72587, Note_on_c, 0, 61, 61
1, 72593, Control_c, 0, 64, 0
1, 72645, Control_c, 0, 64, 127
1, 72664, Note_on_c, 0, 85, 0
1, 72664, Note_on_c, 0, 82, 0
1, 72664, Note_on_c, 0, 73, 0
1, 72667, Note_on_c, 0, 61, 0
1, 72667, Note_on_c, 0, 55, 0
1, 72667, Note_on_c, 0, 58, 0
1, 72744, Note_on_c, 0, 74, 86
1, 72744, Note_on_c, 0, 83, 86
1, 72744, Note_on_c, 0, 86, 100
1, 72747, Note_on_c, 0, 55, 59
1, 72747, Note_on_c, 0, 59, 59
1, 72747, Note_on_c, 0, 62, 71
1, 72753, Control_c, 0, 64, 0
1, 72812, Control_c, 0, 64, 127
1, 72826, Note_on_c, 0, 86, 0
1, 72826, Note_on_c, 0, 83, 0
1, 72826, Note_on_c, 0, 74, 0
1, 72829, Note_on_c, 0, 62, 0
1, 72829, Note_on_c, 0, 59, 0
1, 72829, Note_on_c, 0, 55, 0
1, 72908, Note_on_c, 0, 79, 86
1, 72908, Note_on_c, 0, 83, 86
1, 72908, Note_on_c, 0, 91, 100
1, 72911, Note_on_c, 0, 55, 62
1, 72911, Note_on_c, 0, 62, 62
1, 72911, Note_on_c, 0, 67, 73
1, 72915, Control_c, 0, 64, 0
1, 72975, Control_c, 0, 64, 127
1, 73003, Note_on_c, 0, 91, 0
1, 73003, Note_on_c, 0, 83, 0
1, 73003, Note_on_c, 0, 79, 0
1, 73006, Note_on_c, 0, 67, 0
1, 73006, Note_on_c, 0, 62, 0
1, 73006, Note_on_c, 0, 55, 0
1, 73098, Note_on_c, 0, 86, 81
1, 73098, Note_on_c, 0, 95, 97
1, 73098, Note_on_c, 0, 83, 81
1, 73101, Note_on_c, 0, 54, 54
1, 73101, Note_on_c, 0, 59, 64
1, 73101, Note_on_c, 0, 47, 54
1, 73105, Control_c, 0, 64, 0
1, 73150, Control_c, 0, 64, 127
1, 73261, Note_on_c, 0, 83, 0
1, 73261, Note_on_c, 0, 95, 0
1, 73261, Note_on_c, 0, 86, 0
1, 73264, Note_on_c, 0, 47, 0
1, 73264, Note_on_c, 0, 59, 0
1, 73264, Note_on_c, 0, 54, 0
1, 73345, Note_on_c, 0, 78, 72
1, 73345, Note_on_c, 0, 90, 87
1, 73345, Note_on_c, 0, 86, 72
1, 73348, Note_on_c, 0, 59, 46
1, 73348, Note_on_c, 0, 66, 55
1, 73348, Note_on_c, 0, 62, 46
1, 73385, Note_on_c, 0, 86, 0
1, 73385, Note_on_c, 0, 90, 0
1, 73385, Note_on_c, 0, 78, 0
1, 73388, Note_on_c, 0, 62, 0
1, 73388, Note_on_c, 0, 66, 0
1, 73388, Note_on_c, 0, 59, 0
1, 73425, Note_on_c, 0, 86, 72
1, 73425, Note_on_c, 0, 78, 72
1, 73425, Note_on_c, 0, 90, 87
1, 73428, Note_on_c, 0, 66, 55
1, 73428, Note_on_c, 0, 62, 46
1, 73428, Note_on_c, 0, 59, 46
1, 73508, Note_on_c, 0, 90, 0
1, 73508, Note_on_c, 0, 78, 0
1, 73508, Note_on_c, 0, 86, 0
1, 73511, Note_on_c, 0, 59, 0
1, 73511, Note_on_c, 0, 62, 0
1, 73511, Note_on_c, 0, 66, 0
1, 73591, Note_on_c, 0, 78, 81
1, 73591, Note_on_c, 0, 90, 97
1, 73591, Note_on_c, 0, 86, 81
1, 73594, Note_on_c, 0, 62, 57
1, 73594, Note_on_c, 0, 59, 57
1, 73594, Note_on_c, 0, 66, 68
1, 74090, Note_on_c, 0, 86, 0
1, 74090, Note_on_c, 0, 90, 0
1, 74090, Note_on_c, 0, 78, 0
1, 74093, Note_on_c, 0, 82, 72
1, 74093, Note_on_c, 0, 85, 72
1, 74093, Note_on_c, 0, 94, 87
1, 74096, Note_on_c, 0, 66, 0
1, 74096, Note_on_c, 0, 59, 0
1, 74096, Note_on_c, 0, 62, 0
1, 74099, Note_on_c, 0, 42, 48
1, 74099, Note_on_c, 0, 49, 48
1, 74099, Note_on_c, 0, 54, 57
1, 74102, Control_c, 0, 64, 0
1, 74102, Control_c, 0, 64, 0
1, 74133, Control_c, 0, 64, 127
1, 74254, Note_on_c, 0, 94, 0
1, 74254, Note_on_c, 0, 85, 0
1, 74254, Note_on_c, 0, 82, 0
1, 74257, Note_on_c, 0, 54, 0
1, 74257, Note_on_c, 0, 49, 0
1, 74257, Note_on_c, 0, 42, 0
1, 74338, Note_on_c, 0, 73, 64
1, 74338, Note_on_c, 0, 82, 64
1, 74338, Note_on_c, 0, 85, 78
1, 74341, Note_on_c, 0, 54, 41
1, 74341, Note_on_c, 0, 58, 41
1, 74341, Note_on_c, 0, 61, 49
1, 74376, Note_on_c, 0, 85, 0
1, 74376, Note_on_c, 0, 82, 0
1, 74376, Note_on_c, 0, 73, 0
1, 74379, Note_on_c, 0, 61, 0
1, 74379, Note_on_c, 0, 58, 0
1, 74379, Note_on_c, 0, 54, 0
1, 74415, Note_on_c, 0, 73, 64
1, 74415, Note_on_c, 0, 82, 64
1, 74415, Note_on_c, 0, 85, 78
1, 74418, Note_on_c, 0, 54, 41
1, 74418, Note_on_c, 0, 58, 41
1, 74418, Note_on_c, 0, 61, 49
1, 74498, Note_on_c, 0, 85, 0
1, 74498, Note_on_c, 0, 82, 0
1, 74498, Note_on_c, 0, 73, 0
1, 74501, Note_on_c, 0, 61, 0
1, 74501, Note_on_c, 0, 58, 0
1, 74501, Note_on_c, 0, 54, 0
1, 74582, Note_on_c, 0, 72, 72
1, 74582, Note_on_c, 0, 81, 72
1, 74582, Note_on_c, 0, 84, 87
1, 74585, Note_on_c, 0, 57, 48
1, 74585, Note_on_c, 0, 54, 48
1, 74585, Note_on_c, 0, 60, 58
1, 74590, Control_c, 0, 64, 0
1, 74643, Control_c, 0, 64, 127
1, 74662, Note_on_c, 0, 84, 0
1, 74662, Note_on_c, 0, 81, 0
1, 74662, Note_on_c, 0, 72, 0
1, 74665, Note_on_c, 0, 60, 0
1, 74665, Note_on_c, 0, 54, 0
1, 74665, Note_on_c, 0, 57, 0
1, 74742, Note_on_c, 0, 73, 77
1, 74742, Note_on_c, 0, 82, 77
1, 74742, Note_on_c, 0, 85, 90
1, 74745, Note_on_c, 0, 54, 53
1, 74745, Note_on_c, 0, 58, 53
1, 74745, Note_on_c, 0, 61, 63
1, 74750, Control_c, 0, 64, 0
1, 74810, Control_c, 0, 64, 127
1, 74824, Note_on_c, 0, 85, 0
1, 74824, Note_on_c, 0, 82, 0
1, 74824, Note_on_c, 0, 73, 0
1, 74827, Note_on_c, 0, 61, 0
1, 74827, Note_on_c, 0, 58, 0
1, 74827, Note_on_c, 0, 54, 0
1, 74906, Note_on_c, 0, 78, 77
1, 74906, Note_on_c, 0, 82, 77
1, 74906, Note_on_c, 0, 90, 90
1, 74909, Note_on_c, 0, 54, 55
1, 74909, Note_on_c, 0, 61, 55
1, 74909, Note_on_c, 0, 66, 65
1, 74913, Control_c, 0, 64, 0
1, 74972, Control_c, 0, 64, 127
1, 75001, Note_on_c, 0, 90, 0
1, 75001, Note_on_c, 0, 82, 0
1, 75001, Note_on_c, 0, 78, 0
1, 75004, Note_on_c, 0, 66, 0
1, 75004, Note_on_c, 0, 61, 0
1, 75004, Note_on_c, 0, 54, 0
1, 75096, Note_on_c, 0, 85, 72
1, 75096, Note_on_c, 0, 94, 87
1, 75096, Note_on_c, 0, 82, 72
1, 75099, Note_on_c, 0, 53, 48
1, 75099, Note_on_c, 0, 58, 57
1, 75099, Note_on_c, 0, 46, 48
1, 75103, Control_c, 0, 64, 0
1, 75144, Control_c, 0, 64, 127
1, 75259, Note_on_c, 0, 82, 0
1, 75259, Note_on_c, 0, 94, 0
1, 75259, Note_on_c, 0, 85, 0
1, 75262, Note_on_c, 0, 46, 0
1, 75262, Note_on_c, 0, 58, 0
1, 75262, Note_on_c, 0, 53, 0
1, 75342, Note_on_c, 0, 77, 64
1, 75342, Note_on_c, 0, 89, 78
1, 75342, Note_on_c, 0, 85, 64
1, 75345, Note_on_c, 0, 58, 41
1, 75345, Note_on_c, 0, 65, 49
1, 75345, Note_on_c, 0, 61, 41
1, 75382, Note_on_c, 0, 85, 0
1, 75382, Note_on_c, 0, 89, 0
1, 75382, Note_on_c, 0, 77, 0
1, 75385, Note_on_c, 0, 61, 0
1, 75385, Note_on_c, 0, 65, 0
1, 75385, Note_on_c, 0, 58, 0
1, 75421, Note_on_c, 0, 85, 64
1, 75421, Note_on_c, 0, 77, 64
1, 75421, Note_on_c, 0, 89, 78
1, 75424, Note_on_c, 0, 65, 49
1, 75424, Note_on_c, 0, 61, 41
1, 75424, Note_on_c, 0, 58, 41
1, 75505, Note_on_c, 0, 89, 0
1, 75505, Note_on_c, 0, 77, 0
1, 75505, Note_on_c, 0, 85, 0
1, 75508, Note_on_c, 0, 58, 0
1, 75508, Note_on_c, 0, 61, 0
1, 75508, Note_on_c, 0, 65, 0
1, 75588, Note_on_c, 0, 77, 72
1, 75588, Note_on_c, 0, 89, 87
1, 75588, Note_on_c, 0, 85, 72
1, 75591, Note_on_c, 0, 61, 51
1, 75591, Note_on_c, 0, 58, 51
1, 75591, Note_on_c, 0, 65, 61
1, 76087, Note_on_c, 0, 85, 0
1, 76087, Note_on_c, 0, 89, 0
1, 76087, Note_on_c, 0, 77, 0
1, 76090, Note_on_c, 0, 81, 66
1, 76090, Note_on_c, 0, 84, 66
1, 76090, Note_on_c, 0, 93, 78
1, 76093, Note_on_c, 0, 65, 0
1, 76093, Note_on_c, 0, 58, 0
1, 76093, Note_on_c, 0, 61, 0
1, 76096, Note_on_c, 0, 41, 46
1, 76096, Note_on_c, 0, 48, 46
1, 76096, Note_on_c, 0, 53, 55
1, 76099, Control_c, 0, 64, 0
1, 76099, Control_c, 0, 64, 0
1, 76135, Control_c, 0, 64, 127
1, 76250, Note_on_c, 0, 93, 0
1, 76250, Note_on_c, 0, 84, 0
1, 76250, Note_on_c, 0, 81, 0
1, 76253, Note_on_c, 0, 53, 0
1, 76253, Note_on_c, 0, 48, 0
1, 76253, Note_on_c, 0, 41, 0
1, 76334, Note_on_c, 0, 72, 57
1, 76334, Note_on_c, 0, 81, 68
1, 76334, Note_on_c, 0, 84, 68
1, 76337, Note_on_c, 0, 57, 40
1, 76337, Note_on_c, 0, 60, 48
1, 76373, Note_on_c, 0, 84, 0
1, 76373, Note_on_c, 0, 81, 0
1, 76373, Note_on_c, 0, 72, 0
1, 76376, Note_on_c, 0, 60, 0
1, 76376, Note_on_c, 0, 57, 0
1, 76413, Note_on_c, 0, 72, 57
1, 76413, Note_on_c, 0, 81, 68
1, 76413, Note_on_c, 0, 84, 68
1, 76416, Note_on_c, 0, 57, 40
1, 76416, Note_on_c, 0, 60, 48
1, 76496, Note_on_c, 0, 84, 0
1, 76496, Note_on_c, 0, 81, 0
1, 76496, Note_on_c, 0, 72, 0
1, 76499, Note_on_c, 0, 60, 0
1, 76499, Note_on_c, 0, 57, 0
1, 76579, Note_on_c, 0, 76, 68
1, 76579, Note_on_c, 0, 84, 68
1, 76579, Note_on_c, 0, 88, 81
1, 76582, Note_on_c, 0, 45, 47
1, 76582, Note_on_c, 0, 52, 47
1, 76582, Note_on_c, 0, 57, 56
1, 76588, Control_c, 0, 64, 0
1, 76620, Control_c, 0, 64, 127
1, 76660, Note_on_c, 0, 88, 0
1, 76660, Note_on_c, 0, 84, 0
1, 76660, Note_on_c, 0, 76, 0
1, 76663, Note_on_c, 0, 57, 0
1, 76663, Note_on_c, 0, 52, 0
1, 76663, Note_on_c, 0, 45, 0
1, 76822, Note_on_c, 0, 75, 61
1, 76822, Note_on_c, 0, 83, 61
1, 76822, Note_on_c, 0, 87, 72
1, 76825, Note_on_c, 0, 57, 42
1, 76825, Note_on_c, 0, 59, 42
1, 76825, Note_on_c, 0, 63, 50
1, 76861, Note_on_c, 0, 87, 0
1, 76861, Note_on_c, 0, 83, 0
1, 76861, Note_on_c, 0, 75, 0
1, 76864, Note_on_c, 0, 63, 0
1, 76864, Note_on_c, 0, 59, 0
1, 76864, Note_on_c, 0, 57, 0
1, 76900, Note_on_c, 0, 76, 61
1, 76900, Note_on_c, 0, 84, 61
1, 76900, Note_on_c, 0, 88, 72
1, 76903, Note_on_c, 0, 57, 43
1, 76903, Note_on_c, 0, 60, 43
1, 76903, Note_on_c, 0, 64, 51
1, 76995, Note_on_c, 0, 88, 0
1, 76995, Note_on_c, 0, 84, 0
1, 76995, Note_on_c, 0, 76, 0
1, 76998, Note_on_c, 0, 64, 0
1, 76998, Note_on_c, 0, 60, 0
1, 76998, Note_on_c, 0, 57, 0
1, 77089, Note_on_c, 0, 80, 66
1, 77089, Note_on_c, 0, 83, 66
1, 77089, Note_on_c, 0, 92, 78
1, 77092, Note_on_c, 0, 40, 46
1, 77092, Note_on_c, 0, 47, 46
1, 77092, Note_on_c, 0, 52, 55
1, 77095, Control_c, 0, 64, 0
1, 77095, Control_c, 0, 64, 0
1, 77137, Control_c, 0, 64, 127
1, 77253, Note_on_c, 0, 92, 0
1, 77253, Note_on_c, 0, 83, 0
1, 77253, Note_on_c, 0, 80, 0
1, 77256, Note_on_c, 0, 52, 0
1, 77256, Note_on_c, 0, 47, 0
1, 77256, Note_on_c, 0, 40, 0
1, 77336, Note_on_c, 0, 71, 57
1, 77336, Note_on_c, 0, 80, 68
1, 77336, Note_on_c, 0, 83, 68
1, 77339, Note_on_c, 0, 56, 40
1, 77339, Note_on_c, 0, 59, 48
1, 77376, Note_on_c, 0, 83, 0
1, 77376, Note_on_c, 0, 80, 0
1, 77376, Note_on_c, 0, 71, 0
1, 77379, Note_on_c, 0, 59, 0
1, 77379, Note_on_c, 0, 56, 0
1, 77415, Note_on_c, 0, 71, 57
1, 77415, Note_on_c, 0, 80, 68
1, 77415, Note_on_c, 0, 83, 68
1, 77418, Note_on_c, 0, 56, 40
1, 77418, Note_on_c, 0, 59, 48
1, 77498, Note_on_c, 0, 83, 0
1, 77498, Note_on_c, 0, 80, 0
1, 77498, Note_on_c, 0, 71, 0
1, 77501, Note_on_c, 0, 59, 0
1, 77501, Note_on_c, 0, 56, 0
1, 77581, Note_on_c, 0, 75, 68
1, 77581, Note_on_c, 0, 83, 68
1, 77581, Note_on_c, 0, 87, 81
1, 77584, Note_on_c, 0, 44, 47
1, 77584, Note_on_c, 0, 51, 47
1, 77584, Note_on_c, 0, 56, 56
1, 77590, Control_c, 0, 64, 0
1, 77621, Control_c, 0, 64, 127
1, 77661, Note_on_c, 0, 87, 0
1, 77661, Note_on_c, 0, 83, 0
1, 77661, Note_on_c, 0, 75, 0
1, 77664, Note_on_c, 0, 56, 0
1, 77664, Note_on_c, 0, 51, 0
1, 77664, Note_on_c, 0, 44, 0
1, 77823, Note_on_c, 0, 74, 61
1, 77823, Note_on_c, 0, 83, 61
1, 77823, Note_on_c, 0, 86, 72
1, 77826, Note_on_c, 0, 56, 42
1, 77826, Note_on_c, 0, 59, 42
1, 77826, Note_on_c, 0, 62, 50
1, 77863, Note_on_c, 0, 86, 0
1, 77863, Note_on_c, 0, 83, 0
1, 77863, Note_on_c, 0, 74, 0
1, 77866, Note_on_c, 0, 62, 0
1, 77866, Note_on_c, 0, 59, 0
1, 77866, Note_on_c, 0, 56, 0
1, 77902, Note_on_c, 0, 75, 61
1, 77902, Note_on_c, 0, 83, 61
1, 77902, Note_on_c, 0, 87, 72
1, 77905, Note_on_c, 0, 56, 43
1, 77905, Note_on_c, 0, 59, 43
1, 77905, Note_on_c, 0, 63, 51
1, 77997, Note_on_c, 0, 87, 0
1, 77997, Note_on_c, 0, 83, 0
1, 77997, Note_on_c, 0, 75, 0
1, 78000, Note_on_c, 0, 63, 0
1, 78000, Note_on_c, 0, 59, 0
1, 78000, Note_on_c, 0, 56, 0
1, 78092, Note_on_c, 0, 79, 66
1, 78092, Note_on_c, 0, 82, 66
1, 78092, Note_on_c, 0, 91, 78
1, 78095, Note_on_c, 0, 39, 46
1, 78095, Note_on_c, 0, 51, 55
1, 78095, Control_c, 0, 64, 0
1, 78098, Control_c, 0, 64, 0
1, 78139, Control_c, 0, 64, 127
1, 78255, Note_on_c, 0, 91, 0
1, 78255, Note_on_c, 0, 82, 0
1, 78255, Note_on_c, 0, 79, 0
1, 78258, Note_on_c, 0, 51, 0
1, 78258, Note_on_c, 0, 39, 0
1, 78338, Note_on_c, 0, 70, 56
1, 78338, Note_on_c, 0, 75, 67
1, 78338, Note_on_c, 0, 79, 67
1, 78341, Note_on_c, 0, 58, 39
1, 78341, Note_on_c, 0, 63, 39
1, 78341, Note_on_c, 0, 67, 47
1, 78377, Note_on_c, 0, 79, 0
1, 78377, Note_on_c, 0, 75, 0
1, 78377, Note_on_c, 0, 70, 0
1, 78380, Note_on_c, 0, 67, 0
1, 78380, Note_on_c, 0, 63, 0
1, 78380, Note_on_c, 0, 58, 0
1, 78416, Note_on_c, 0, 70, 56
1, 78416, Note_on_c, 0, 75, 67
1, 78416, Note_on_c, 0, 79, 67
1, 78419, Note_on_c, 0, 58, 39
1, 78419, Note_on_c, 0, 63, 39
1, 78419, Note_on_c, 0, 67, 47
1, 78499, Note_on_c, 0, 79, 0
1, 78499, Note_on_c, 0, 75, 0
1, 78499, Note_on_c, 0, 70, 0
1, 78502, Note_on_c, 0, 67, 0
1, 78502, Note_on_c, 0, 63, 0
1, 78502, Note_on_c, 0, 58, 0
1, 78582, Note_on_c, 0, 78, 66
1, 78582, Note_on_c, 0, 82, 66
1, 78582, Note_on_c, 0, 90, 79
1, 78585, Note_on_c, 0, 39, 46
1, 78585, Note_on_c, 0, 51, 54
1, 78591, Control_c, 0, 64, 0
1, 78623, Control_c, 0, 64, 127
1, 78663, Note_on_c, 0, 90, 0
1, 78663, Note_on_c, 0, 82, 0
1, 78663, Note_on_c, 0, 78, 0
1, 78666, Note_on_c, 0, 51, 0
1, 78666, Note_on_c, 0, 39, 0
1, 78825, Note_on_c, 0, 70, 59
1, 78825, Note_on_c, 0, 75, 59
1, 78825, Note_on_c, 0, 78, 69
1, 78828, Note_on_c, 0, 58, 40
1, 78828, Note_on_c, 0, 63, 40
1, 78828, Note_on_c, 0, 66, 48
1, 78864, Note_on_c, 0, 78, 0
1, 78864, Note_on_c, 0, 75, 0
1, 78864, Note_on_c, 0, 70, 0
1, 78867, Note_on_c, 0, 66, 0
1, 78867, Note_on_c, 0, 63, 0
1, 78867, Note_on_c, 0, 58, 0
1, 78903, Note_on_c, 0, 70, 58
1, 78903, Note_on_c, 0, 75, 58
1, 78903, Note_on_c, 0, 78, 69
1, 78906, Note_on_c, 0, 58, 41
1, 78906, Note_on_c, 0, 63, 41
1, 78906, Note_on_c, 0, 66, 48
1, 78997, Note_on_c, 0, 78, 0
1, 78997, Note_on_c, 0, 75, 0
1, 78997, Note_on_c, 0, 70, 0
1, 79000, Note_on_c, 0, 66, 0
1, 79000, Note_on_c, 0, 63, 0
1, 79000, Note_on_c, 0, 58, 0
1, 79092, Note_on_c, 0, 76, 62
1, 79092, Note_on_c, 0, 80, 62
1, 79092, Note_on_c, 0, 88, 74
1, 79095, Note_on_c, 0, 35, 43
1, 79095, Note_on_c, 0, 47, 52
1, 79095, Control_c, 0, 64, 0
1, 79098, Control_c, 0, 64, 0
1, 79140, Control_c, 0, 64, 127
1, 79256, Note_on_c, 0, 88, 0
1, 79256, Note_on_c, 0, 80, 0
1, 79256, Note_on_c, 0, 76, 0
1, 79259, Note_on_c, 0, 47, 0
1, 79259, Note_on_c, 0, 35, 0
1, 79339, Note_on_c, 0, 68, 53
1, 79339, Note_on_c, 0, 71, 63
1, 79339, Note_on_c, 0, 76, 63
1, 79342, Note_on_c, 0, 56, 37
1, 79342, Note_on_c, 0, 59, 37
1, 79342, Note_on_c, 0, 64, 45
1, 79377, Note_on_c, 0, 76, 0
1, 79377, Note_on_c, 0, 71, 0
1, 79377, Note_on_c, 0, 68, 0
1, 79380, Note_on_c, 0, 64, 0
1, 79380, Note_on_c, 0, 59, 0
1, 79380, Note_on_c, 0, 56, 0
1, 79416, Note_on_c, 0, 68, 53
1, 79416, Note_on_c, 0, 71, 63
1, 79416, Note_on_c, 0, 76, 63
1, 79419, Note_on_c, 0, 56, 37
1, 79419, Note_on_c, 0, 59, 37
1, 79419, Note_on_c, 0, 64, 45
1, 79499, Note_on_c, 0, 76, 0
1, 79499, Note_on_c, 0, 71, 0
1, 79499, Note_on_c, 0, 68, 0
1, 79502, Note_on_c, 0, 64, 0
1, 79502, Note_on_c, 0, 59, 0
1, 79502, Note_on_c, 0, 56, 0
1, 79582, Note_on_c, 0, 75, 63
1, 79582, Note_on_c, 0, 78, 63
1, 79582, Note_on_c, 0, 87, 75
1, 79585, Note_on_c, 0, 36, 43
1, 79585, Note_on_c, 0, 48, 52
1, 79591, Control_c, 0, 64, 0
1, 79622, Control_c, 0, 64, 127
1, 79662, Note_on_c, 0, 87, 0
1, 79662, Note_on_c, 0, 78, 0
1, 79662, Note_on_c, 0, 75, 0
1, 79665, Note_on_c, 0, 48, 0
1, 79665, Note_on_c, 0, 36, 0
1, 79825, Note_on_c, 0, 66, 56
1, 79825, Note_on_c, 0, 69, 56
1, 79825, Note_on_c, 0, 75, 66
1, 79828, Note_on_c, 0, 54, 38
1, 79828, Note_on_c, 0, 57, 38
1, 79828, Note_on_c, 0, 63, 46
1, 79863, Note_on_c, 0, 75, 0
1, 79863, Note_on_c, 0, 69, 0
1, 79863, Note_on_c, 0, 66, 0
1, 79866, Note_on_c, 0, 63, 0
1, 79866, Note_on_c, 0, 57, 0
1, 79866, Note_on_c, 0, 54, 0
1, 79902, Note_on_c, 0, 66, 55
1, 79902, Note_on_c, 0, 69, 55
1, 79902, Note_on_c, 0, 75, 65
1, 79905, Note_on_c, 0, 54, 39
1, 79905, Note_on_c, 0, 57, 39
1, 79905, Note_on_c, 0, 63, 46
1, 79997, Note_on_c, 0, 75, 0
1, 79997, Note_on_c, 0, 69, 0
1, 79997, Note_on_c, 0, 66, 0
1, 80000, Note_on_c, 0, 63, 0
1, 80000, Note_on_c, 0, 57, 0
1, 80000, Note_on_c, 0, 54, 0
1, 80044, Note_on_c, 0, 87, 85
1, 80092, Note_on_c, 0, 87, 0
1, 80092, Note_on_c, 0, 73, 78
1, 80092, Note_on_c, 0, 85, 92
1, 80095, Note_on_c, 0, 37, 51
1, 80095, Note_on_c, 0, 49, 62
1, 80095, Control_c, 0, 64, 0
1, 80098, Control_c, 0, 64, 0
1, 80139, Control_c, 0, 64, 127
1, 80255, Note_on_c, 0, 85, 0
1, 80255, Note_on_c, 0, 73, 0
1, 80255, Note_on_c, 0, 49, 0
1, 80258, Note_on_c, 0, 37, 0
1, 80338, Note_on_c, 0, 66, 53
1, 80338, Note_on_c, 0, 70, 63
1, 80338, Note_on_c, 0, 73, 63
1, 80341, Note_on_c, 0, 54, 37
1, 80341, Note_on_c, 0, 58, 37
1, 80341, Note_on_c, 0, 61, 45
1, 80377, Note_on_c, 0, 73, 0
1, 80377, Note_on_c, 0, 70, 0
1, 80377, Note_on_c, 0, 66, 0
1, 80380, Note_on_c, 0, 61, 0
1, 80380, Note_on_c, 0, 58, 0
1, 80380, Note_on_c, 0, 54, 0
1, 80416, Note_on_c, 0, 67, 53
1, 80416, Note_on_c, 0, 70, 63
1, 80416, Note_on_c, 0, 73, 63
1, 80419, Note_on_c, 0, 55, 37
1, 80419, Note_on_c, 0, 58, 37
1, 80419, Note_on_c, 0, 61, 45
1, 80499, Note_on_c, 0, 73, 0
1, 80499, Note_on_c, 0, 70, 0
1, 80499, Note_on_c, 0, 67, 0
1, 80502, Note_on_c, 0, 61, 0
1, 80502, Note_on_c, 0, 58, 0
1, 80502, Note_on_c, 0, 55, 0
1, 80582, Note_on_c, 0, 67, 63
1, 80582, Note_on_c, 0, 70, 63
1, 80582, Note_on_c, 0, 73, 75
1, 80585, Note_on_c, 0, 55, 43
1, 80585, Note_on_c, 0, 58, 43
1, 80585, Note_on_c, 0, 61, 52
1, 80591, Control_c, 0, 64, 0
1, 80622, Control_c, 0, 64, 127
1, 80662, Note_on_c, 0, 73, 0
1, 80662, Note_on_c, 0, 70, 0
1, 80662, Note_on_c, 0, 67, 0
1, 80665, Note_on_c, 0, 61, 0
1, 80665, Note_on_c, 0, 58, 0
1, 80665, Note_on_c, 0, 55, 0
1, 80826, Note_on_c, 0, 68, 56
1, 80826, Note_on_c, 0, 71, 56
1, 80826, Note_on_c, 0, 73, 66
1, 80829, Note_on_c, 0, 56, 38
1, 80829, Note_on_c, 0, 59, 38
1, 80829, Note_on_c, 0, 61, 46
1, 80864, Note_on_c, 0, 73, 0
1, 80864, Note_on_c, 0, 71, 0
1, 80864, Note_on_c, 0, 68, 0
1, 80867, Note_on_c, 0, 61, 0
1, 80867, Note_on_c, 0, 59, 0
1, 80867, Note_on_c, 0, 56, 0
1, 80903, Note_on_c, 0, 65, 55
1, 80903, Note_on_c, 0, 68, 55
1, 80903, Note_on_c, 0, 73, 65
1, 80906, Note_on_c, 0, 53, 39
1, 80906, Note_on_c, 0, 56, 39
1, 80906, Note_on_c, 0, 61, 46
1, 80998, Note_on_c, 0, 73, 0
1, 80998, Note_on_c, 0, 68, 0
1, 80998, Note_on_c, 0, 65, 0
1, 81001, Note_on_c, 0, 61, 0
1, 81001, Note_on_c, 0, 56, 0
1, 81001, Note_on_c, 0, 53, 0
1, 81045, Note_on_c, 0, 87, 85
1, 81092, Note_on_c, 0, 87, 0
1, 81092, Note_on_c, 0, 73, 78
1, 81092, Note_on_c, 0, 85, 92
1, 81095, Note_on_c, 0, 37, 51
1, 81095, Note_on_c, 0, 49, 62
1, 81095, Control_c, 0, 64, 0
1, 81098, Control_c, 0, 64, 0
1, 81140, Control_c, 0, 64, 127
1, 81256, Note_on_c, 0, 85, 0
1, 81256, Note_on_c, 0, 73, 0
1, 81256, Note_on_c, 0, 49, 0
1, 81259, Note_on_c, 0, 37, 0
1, 81339, Note_on_c, 0, 66, 53
1, 81339, Note_on_c, 0, 70, 63
1, 81339, Note_on_c, 0, 73, 63
1, 81342, Note_on_c, 0, 54, 37
1, 81342, Note_on_c, 0, 58, 37
1, 81342, Note_on_c, 0, 61, 45
1, 81378, Note_on_c, 0, 73, 0
1, 81378, Note_on_c, 0, 70, 0
1, 81378, Note_on_c, 0, 66, 0
1, 81381, Note_on_c, 0, 61, 0
1, 81381, Note_on_c, 0, 58, 0
1, 81381, Note_on_c, 0, 54, 0
1, 81416, Note_on_c, 0, 67, 53
1, 81416, Note_on_c, 0, 70, 63
1, 81416, Note_on_c, 0, 73, 63
1, 81419, Note_on_c, 0, 55, 37
1, 81419, Note_on_c, 0, 58, 37
1, 81419, Note_on_c, 0, 61, 45
1, 81499, Note_on_c, 0, 73, 0
1, 81499, Note_on_c, 0, 70, 0
1, 81499, Note_on_c, 0, 67, 0
1, 81502, Note_on_c, 0, 61, 0
1, 81502, Note_on_c, 0, 58, 0
1, 81502, Note_on_c, 0, 55, 0
1, 81583, Note_on_c, 0, 67, 63
1, 81583, Note_on_c, 0, 70, 63
1, 81583, Note_on_c, 0, 73, 75
1, 81586, Note_on_c, 0, 55, 43
1, 81586, Note_on_c, 0, 58, 43
1, 81586, Note_on_c, 0, 61, 52
1, 81591, Control_c, 0, 64, 0
1, 81623, Control_c, 0, 64, 127
1, 81663, Note_on_c, 0, 73, 0
1, 81663, Note_on_c, 0, 70, 0
1, 81663, Note_on_c, 0, 67, 0
1, 81666, Note_on_c, 0, 61, 0
1, 81666, Note_on_c, 0, 58, 0
1, 81666, Note_on_c, 0, 55, 0
1, 81826, Note_on_c, 0, 68, 56
1, 81826, Note_on_c, 0, 71, 56
1, 81826, Note_on_c, 0, 73, 66
1, 81829, Note_on_c, 0, 56, 38
1, 81829, Note_on_c, 0, 59, 38
1, 81829, Note_on_c, 0, 61, 46
1, 81865, Note_on_c, 0, 73, 0
1, 81865, Note_on_c, 0, 71, 0
1, 81865, Note_on_c, 0, 68, 0
1, 81868, Note_on_c, 0, 61, 0
1, 81868, Note_on_c, 0, 59, 0
1, 81868, Note_on_c, 0, 56, 0
1, 81903, Note_on_c, 0, 65, 55
1, 81903, Note_on_c, 0, 68, 55
1, 81903, Note_on_c, 0, 73, 65
1, 81906, Note_on_c, 0, 53, 39
1, 81906, Note_on_c, 0, 56, 39
1, 81906, Note_on_c, 0, 61, 46
1, 81998, Note_on_c, 0, 73, 0
1, 81998, Note_on_c, 0, 68, 0
1, 81998, Note_on_c, 0, 65, 0
1, 82001, Note_on_c, 0, 61, 0
1, 82001, Note_on_c, 0, 56, 0
1, 82001, Note_on_c, 0, 53, 0
1, 82046, Note_on_c, 0, 83, 85
1, 82093, Note_on_c, 0, 83, 0
1, 82093, Note_on_c, 0, 70, 78
1, 82093, Note_on_c, 0, 82, 92
1, 82096, Note_on_c, 0, 34, 51
1, 82096, Note_on_c, 0, 46, 62
1, 82096, Control_c, 0, 64, 0
1, 82099, Control_c, 0, 64, 0
1, 82141, Control_c, 0, 64, 127
1, 82256, Note_on_c, 0, 82, 0
1, 82256, Note_on_c, 0, 70, 0
1, 82256, Note_on_c, 0, 46, 0
1, 82259, Note_on_c, 0, 34, 0
1, 82340, Note_on_c, 0, 63, 53
1, 82340, Note_on_c, 0, 66, 63
1, 82340, Note_on_c, 0, 70, 63
1, 82343, Note_on_c, 0, 51, 37
1, 82343, Note_on_c, 0, 54, 37
1, 82343, Note_on_c, 0, 58, 45
1, 82379, Note_on_c, 0, 70, 0
1, 82379, Note_on_c, 0, 66, 0
1, 82379, Note_on_c, 0, 63, 0
1, 82382, Note_on_c, 0, 58, 0
1, 82382, Note_on_c, 0, 54, 0
1, 82382, Note_on_c, 0, 51, 0
1, 82418, Note_on_c, 0, 64, 53
1, 82418, Note_on_c, 0, 67, 63
1, 82418, Note_on_c, 0, 70, 63
1, 82421, Note_on_c, 0, 52, 37
1, 82421, Note_on_c, 0, 55, 37
1, 82421, Note_on_c, 0, 58, 45
1, 82501, Note_on_c, 0, 70, 0
1, 82501, Note_on_c, 0, 67, 0
1, 82501, Note_on_c, 0, 64, 0
1, 82504, Note_on_c, 0, 58, 0
1, 82504, Note_on_c, 0, 55, 0
1, 82504, Note_on_c, 0, 52, 0
1, 82585, Note_on_c, 0, 64, 63
1, 82585, Note_on_c, 0, 67, 63
1, 82585, Note_on_c, 0, 70, 75
1, 82588, Note_on_c, 0, 52, 43
1, 82588, Note_on_c, 0, 55, 43
1, 82588, Note_on_c, 0, 58, 52
1, 82593, Control_c, 0, 64, 0
1, 82625, Control_c, 0, 64, 127
1, 82665, Note_on_c, 0, 70, 0
1, 82665, Note_on_c, 0, 67, 0
1, 82665, Note_on_c, 0, 64, 0
1, 82668, Note_on_c, 0, 58, 0
1, 82668, Note_on_c, 0, 55, 0
1, 82668, Note_on_c, 0, 52, 0
1, 82828, Note_on_c, 0, 65, 56
1, 82828, Note_on_c, 0, 68, 56
1, 82828, Note_on_c, 0, 70, 66
1, 82831, Note_on_c, 0, 53, 38
1, 82831, Note_on_c, 0, 56, 38
1, 82831, Note_on_c, 0, 58, 46
1, 82867, Note_on_c, 0, 70, 0
1, 82867, Note_on_c, 0, 68, 0
1, 82867, Note_on_c, 0, 65, 0
1, 82870, Note_on_c, 0, 58, 0
1, 82870, Note_on_c, 0, 56, 0
1, 82870, Note_on_c, 0, 53, 0
1, 82905, Note_on_c, 0, 62, 55
1, 82905, Note_on_c, 0, 65, 55
1, 82905, Note_on_c, 0, 70, 65
1, 82908, Note_on_c, 0, 50, 39
1, 82908, Note_on_c, 0, 53, 39
1, 82908, Note_on_c, 0, 58, 46
1, 83000, Note_on_c, 0, 70, 0
1, 83000, Note_on_c, 0, 65, 0
1, 83000, Note_on_c, 0, 62, 0
1, 83003, Note_on_c, 0, 58, 0
1, 83003, Note_on_c, 0, 53, 0
1, 83003, Note_on_c, 0, 50, 0
1, 83048, Note_on_c, 0, 83, 85
1, 83095, Note_on_c, 0, 83, 0
1, 83095, Note_on_c, 0, 70, 74
1, 83095, Note_on_c, 0, 82, 87
1, 83098, Note_on_c, 0, 34, 48
1, 83098, Note_on_c, 0, 46, 58
1, 83098, Control_c, 0, 64, 0
1, 83101, Control_c, 0, 64, 0
1, 83144, Control_c, 0, 64, 127
1, 83263, Note_on_c, 0, 82, 0
1, 83263, Note_on_c, 0, 70, 0
1, 83263, Note_on_c, 0, 46, 0
1, 83266, Note_on_c, 0, 34, 0
1, 83350, Note_on_c, 0, 63, 47
1, 83350, Note_on_c, 0, 66, 56
1, 83350, Note_on_c, 0, 70, 56
1, 83353, Note_on_c, 0, 51, 32
1, 83353, Note_on_c, 0, 54, 32
1, 83353, Note_on_c, 0, 58, 40
1, 83392, Note_on_c, 0, 70, 0
1, 83392, Note_on_c, 0, 66, 0
1, 83392, Note_on_c, 0, 63, 0
1, 83395, Note_on_c, 0, 58, 0
1, 83395, Note_on_c, 0, 54, 0
1, 83395, Note_on_c, 0, 51, 0
1, 83434, Note_on_c, 0, 64, 46
1, 83434, Note_on_c, 0, 67, 54
1, 83434, Note_on_c, 0, 70, 54
1, 83437, Note_on_c, 0, 52, 32
1, 83437, Note_on_c, 0, 55, 32
1, 83437, Note_on_c, 0, 58, 39
1, 83532, Note_on_c, 0, 70, 0
1, 83532, Note_on_c, 0, 67, 0
1, 83532, Note_on_c, 0, 64, 0
1, 83535, Note_on_c, 0, 58, 0
1, 83535, Note_on_c, 0, 55, 0
1, 83535, Note_on_c, 0, 52, 0
1, 83630, Note_on_c, 0, 64, 52
1, 83630, Note_on_c, 0, 67, 52
1, 83630, Note_on_c, 0, 70, 62
1, 83633, Note_on_c, 0, 52, 35
1, 83633, Note_on_c, 0, 55, 35
1, 83633, Note_on_c, 0, 58, 43
1, 83641, Control_c, 0, 64, 0
1, 83678, Control_c, 0, 64, 127
1, 83725, Note_on_c, 0, 70, 0
1, 83725, Note_on_c, 0, 67, 0
1, 83725, Note_on_c, 0, 64, 0
1, 83728, Note_on_c, 0, 58, 0
1, 83728, Note_on_c, 0, 55, 0
1, 83728, Note_on_c, 0, 52, 0
1, 83924, Note_on_c, 0, 65, 43
1, 83924, Note_on_c, 0, 68, 43
1, 83924, Note_on_c, 0, 70, 50
1, 83927, Note_on_c, 0, 53, 29
1, 83927, Note_on_c, 0, 56, 29
1, 83927, Note_on_c, 0, 58, 35
1, 83976, Note_on_c, 0, 70, 0
1, 83976, Note_on_c, 0, 68, 0
1, 83976, Note_on_c, 0, 65, 0
1, 83979, Note_on_c, 0, 58, 0
1, 83979, Note_on_c, 0, 56, 0
1, 83979, Note_on_c, 0, 53, 0
1, 84028, Note_on_c, 0, 62, 41
1, 84028, Note_on_c, 0, 65, 41
1, 84028, Note_on_c, 0, 70, 48
1, 84031, Note_on_c, 0, 50, 29
1, 84031, Note_on_c, 0, 53, 29
1, 84031, Note_on_c, 0, 58, 34
1, 84139, Note_on_c, 0, 70, 0
1, 84139, Note_on_c, 0, 65, 0
1, 84139, Note_on_c, 0, 62, 0
1, 84142, Note_on_c, 0, 58, 0
1, 84142, Note_on_c, 0, 53, 0
1, 84142, Note_on_c, 0, 50, 0
1, 84210, Control_c, 0, 64, 0
1, 84249, Note_on_c, 0, 67, 55
1, 84249, Note_on_c, 0, 39, 29
1, 84249, Note_on_c, 0, 46, 29
1, 84252, Note_on_c, 0, 51, 35
1, 84293, Control_c, 0, 64, 127
1, 84342, Note_on_c, 0, 55, 32
1, 84342, Note_on_c, 0, 51, 0
1, 84342, Note_on_c, 0, 46, 0
1, 84345, Note_on_c, 0, 39, 0
1, 84435, Note_on_c, 0, 55, 0
1, 84435, Note_on_c, 0, 58, 32
1, 84528, Note_on_c, 0, 58, 0
1, 84528, Note_on_c, 0, 65, 51
1, 84528, Note_on_c, 0, 39, 21
1, 84531, Note_on_c, 0, 46, 21
1, 84531, Note_on_c, 0, 51, 25
1, 84531, Control_c, 0, 64, 0
1, 84555, Control_c, 0, 64, 127
1, 84574, Note_on_c, 0, 51, 0
1, 84574, Note_on_c, 0, 46, 0
1, 84574, Note_on_c, 0, 39, 0
1, 84621, Note_on_c, 0, 55, 29
1, 84621, Note_on_c, 0, 39, 29
1, 84621, Note_on_c, 0, 46, 29
1, 84624, Note_on_c, 0, 51, 35
1, 84714, Note_on_c, 0, 55, 0
1, 84714, Note_on_c, 0, 58, 29
1, 84714, Note_on_c, 0, 51, 0
1, 84717, Note_on_c, 0, 46, 0
1, 84717, Note_on_c, 0, 39, 0
1, 84806, Note_on_c, 0, 58, 0
1, 84806, Note_on_c, 0, 65, 0
1, 84806, Note_on_c, 0, 63, 50
1, 84814, Control_c, 0, 64, 0
1, 84857, Control_c, 0, 64, 127
1, 84898, Note_on_c, 0, 55, 28
1, 84989, Note_on_c, 0, 55, 0
1, 84989, Note_on_c, 0, 58, 29
1, 85080, Note_on_c, 0, 58, 0
1, 85080, Note_on_c, 0, 63, 0
1, 85080, Note_on_c, 0, 62, 50
1, 85172, Note_on_c, 0, 55, 29
1, 85268, Note_on_c, 0, 55, 0
1, 85268, Note_on_c, 0, 58, 29
1, 85364, Note_on_c, 0, 58, 0
1, 85364, Note_on_c, 0, 62, 0
1, 85364, Note_on_c, 0, 67, 0
1, 85367, Note_on_c, 0, 67, 59
1, 85367, Note_on_c, 0, 39, 29
1, 85367, Note_on_c, 0, 46, 29
1, 85370, Note_on_c, 0, 51, 35
1, 85370, Control_c, 0, 64, 0
1, 85410, Control_c, 0, 64, 127
1, 85456, Note_on_c, 0, 55, 32
1, 85456, Note_on_c, 0, 51, 0
1, 85456, Note_on_c, 0, 46, 0
1, 85459, Note_on_c, 0, 39, 0
1, 85549, Note_on_c, 0, 55, 0
1, 85549, Note_on_c, 0, 58, 32
1, 85641, Note_on_c, 0, 58, 0
1, 85641, Note_on_c, 0, 60, 52
1, 85641, Note_on_c, 0, 39, 21
1, 85644, Note_on_c, 0, 46, 21
1, 85644, Note_on_c, 0, 51, 25
1, 85648, Control_c, 0, 64, 0
1, 85687, Note_on_c, 0, 51, 0
1, 85687, Note_on_c, 0, 46, 0
1, 85687, Note_on_c, 0, 39, 0
1, 85693, Control_c, 0, 64, 127
1, 85733, Note_on_c, 0, 55, 28
1, 85733, Note_on_c, 0, 39, 29
1, 85733, Note_on_c, 0, 46, 29
1, 85736, Note_on_c, 0, 51, 35
1, 85828, Note_on_c, 0, 55, 0
1, 85828, Note_on_c, 0, 57, 28
1, 85828, Note_on_c, 0, 51, 0
1, 85831, Note_on_c, 0, 46, 0
1, 85831, Note_on_c, 0, 39, 0
1, 85923, Note_on_c, 0, 57, 0
1, 85923, Note_on_c, 0, 60, 0
1, 85923, Note_on_c, 0, 67, 0
1, 85926, Note_on_c, 0, 67, 55
1, 85931, Control_c, 0, 64, 0
1, 85977, Control_c, 0, 64, 127
1, 86015, Note_on_c, 0, 55, 31
1, 86108, Note_on_c, 0, 55, 0
1, 86108, Note_on_c, 0, 58, 31
1, 86200, Note_on_c, 0, 58, 0
1, 86200, Note_on_c, 0, 63, 42
1, 86293, Note_on_c, 0, 63, 0
1, 86293, Note_on_c, 0, 55, 28
1, 86391, Note_on_c, 0, 55, 0
1, 86391, Note_on_c, 0, 58, 28
1, 86489, Note_on_c, 0, 58, 0
1, 86489, Note_on_c, 0, 67, 0
1, 86489, Note_on_c, 0, 67, 55
1, 86492, Note_on_c, 0, 39, 29
1, 86492, Note_on_c, 0, 47, 29
1, 86492, Note_on_c, 0, 50, 35
1, 86495, Control_c, 0, 64, 0
1, 86545, Control_c, 0, 64, 127
1, 86582, Note_on_c, 0, 56, 32
1, 86582, Note_on_c, 0, 50, 0
1, 86582, Note_on_c, 0, 47, 0
1, 86585, Note_on_c, 0, 39, 0
1, 86675, Note_on_c, 0, 56, 0
1, 86675, Note_on_c, 0, 59, 32
1, 86767, Note_on_c, 0, 59, 0
1, 86767, Note_on_c, 0, 67, 0
1, 86767, Note_on_c, 0, 64, 51
1, 86770, Note_on_c, 0, 39, 21
1, 86770, Note_on_c, 0, 47, 21
1, 86770, Note_on_c, 0, 50, 25
1, 86774, Control_c, 0, 64, 0
1, 86814, Note_on_c, 0, 50, 0
1, 86814, Note_on_c, 0, 47, 0
1, 86814, Note_on_c, 0, 39, 0
1, 86819, Control_c, 0, 64, 127
1, 86860, Note_on_c, 0, 56, 30
1, 86860, Note_on_c, 0, 39, 29
1, 86860, Note_on_c, 0, 47, 29
1, 86863, Note_on_c, 0, 50, 35
1, 86951, Note_on_c, 0, 56, 0
1, 86951, Note_on_c, 0, 59, 30
1, 86951, Note_on_c, 0, 50, 0
1, 86954, Note_on_c, 0, 47, 0
1, 86954, Note_on_c, 0, 39, 0
1, 87042, Note_on_c, 0, 59, 0
1, 87042, Note_on_c, 0, 64, 0
1, 87042, Note_on_c, 0, 65, 58
1, 87050, Control_c, 0, 64, 0
1, 87085, Control_c, 0, 64, 127
1, 87133, Note_on_c, 0, 56, 30
1, 87223, Note_on_c, 0, 56, 0
1, 87223, Note_on_c, 0, 59, 30
1, 87314, Note_on_c, 0, 59, 0
1, 87314, Note_on_c, 0, 65, 0
1, 87314, Note_on_c, 0, 67, 65
1, 87405, Note_on_c, 0, 56, 33
1, 87501, Note_on_c, 0, 56, 0
1, 87501, Note_on_c, 0, 59, 34
1, 87597, Note_on_c, 0, 59, 0
1, 87597, Note_on_c, 0, 67, 0
1, 87597, Note_on_c, 0, 68, 68
1, 87600, Note_on_c, 0, 39, 31
1, 87600, Note_on_c, 0, 46, 31
1, 87600, Note_on_c, 0, 50, 38
1, 87603, Control_c, 0, 64, 0
1, 87639, Control_c, 0, 64, 127
1, 87687, Note_on_c, 0, 56, 37
1, 87687, Note_on_c, 0, 50, 0
1, 87687, Note_on_c, 0, 46, 0
1, 87690, Note_on_c, 0, 39, 0
1, 87777, Note_on_c, 0, 56, 0
1, 87777, Note_on_c, 0, 62, 37
1, 87871, Note_on_c, 0, 62, 0
1, 87871, Note_on_c, 0, 68, 0
1, 87871, Note_on_c, 0, 69, 68
1, 87874, Note_on_c, 0, 39, 23
1, 87874, Note_on_c, 0, 46, 23
1, 87874, Note_on_c, 0, 50, 27
1, 87879, Control_c, 0, 64, 0
1, 87919, Note_on_c, 0, 50, 0
1, 87919, Note_on_c, 0, 46, 0
1, 87919, Note_on_c, 0, 39, 0
1, 87919, Control_c, 0, 64, 127
1, 87966, Note_on_c, 0, 56, 36
1, 87966, Note_on_c, 0, 39, 31
1, 87966, Note_on_c, 0, 46, 31
1, 87969, Note_on_c, 0, 50, 38
1, 88079, Note_on_c, 0, 56, 0
1, 88079, Note_on_c, 0, 62, 40
1, 88079, Note_on_c, 0, 50, 0
1, 88082, Note_on_c, 0, 46, 0
1, 88082, Note_on_c, 0, 39, 0
1, 88191, Note_on_c, 0, 62, 0
1, 88191, Note_on_c, 0, 69, 0
1, 88191, Note_on_c, 0, 72, 73
1, 88199, Control_c, 0, 64, 0
1, 88245, Control_c, 0, 64, 127
1, 88284, Note_on_c, 0, 56, 39
1, 88376, Note_on_c, 0, 56, 0
1, 88376, Note_on_c, 0, 62, 37
1, 88469, Note_on_c, 0, 62, 0
1, 88469, Note_on_c, 0, 72, 0
1, 88469, Note_on_c, 0, 70, 58
1, 88561, Note_on_c, 0, 56, 31
1, 88657, Note_on_c, 0, 56, 0
1, 88657, Note_on_c, 0, 62, 31
1, 88752, Note_on_c, 0, 62, 0
1, 88752, Note_on_c, 0, 70, 0
1, 88752, Note_on_c, 0, 67, 55
1, 88755, Note_on_c, 0, 39, 29
1, 88755, Note_on_c, 0, 46, 29
1, 88755, Note_on_c, 0, 51, 35
1, 88763, Control_c, 0, 64, 0
1, 88796, Control_c, 0, 64, 127
1, 88845, Note_on_c, 0, 55, 32
1, 88845, Note_on_c, 0, 51, 0
1, 88845, Note_on_c, 0, 46, 0
1, 88848, Note_on_c, 0, 39, 0
1, 88938, Note_on_c, 0, 55, 0
1, 88938, Note_on_c, 0, 58, 32
1, 89031, Note_on_c, 0, 58, 0
1, 89031, Note_on_c, 0, 65, 51
1, 89031, Note_on_c, 0, 39, 21
1, 89034, Note_on_c, 0, 46, 21
1, 89034, Note_on_c, 0, 51, 25
1, 89034, Control_c, 0, 64, 0
1, 89058, Control_c, 0, 64, 127
1, 89077, Note_on_c, 0, 51, 0
1, 89077, Note_on_c, 0, 46, 0
1, 89077, Note_on_c, 0, 39, 0
1, 89124, Note_on_c, 0, 55, 29
1, 89124, Note_on_c, 0, 39, 29
1, 89124, Note_on_c, 0, 46, 29
1, 89127, Note_on_c, 0, 51, 35
1, 89217, Note_on_c, 0, 55, 0
1, 89217, Note_on_c, 0, 58, 29
1, 89217, Note_on_c, 0, 51, 0
1, 89220, Note_on_c, 0, 46, 0
1, 89220, Note_on_c, 0, 39, 0
1, 89309, Note_on_c, 0, 58, 0
1, 89309, Note_on_c, 0, 65, 0
1, 89309, Note_on_c, 0, 63, 50
1, 89317, Control_c, 0, 64, 0
1, 89360, Control_c, 0, 64, 127
1, 89401, Note_on_c, 0, 55, 28
1, 89492, Note_on_c, 0, 55, 0
1, 89492, Note_on_c, 0, 58, 29
1, 89583, Note_on_c, 0, 58, 0
1, 89583, Note_on_c, 0, 63, 0
1, 89583, Note_on_c, 0, 62, 50
1, 89675, Note_on_c, 0, 55, 29
1, 89771, Note_on_c, 0, 55, 0
1, 89771, Note_on_c, 0, 58, 29
1, 89867, Note_on_c, 0, 58, 0
1, 89867, Note_on_c, 0, 62, 0
1, 89867, Note_on_c, 0, 67, 0
1, 89870, Note_on_c, 0, 67, 59
1, 89870, Note_on_c, 0, 39, 29
1, 89870, Note_on_c, 0, 46, 29
1, 89873, Note_on_c, 0, 51, 35
1, 89873, Control_c, 0, 64, 0
1, 89913, Control_c, 0, 64, 127
1, 89959, Note_on_c, 0, 55, 32
1, 89959, Note_on_c, 0, 51, 0
1, 89959, Note_on_c, 0, 46, 0
1, 89962, Note_on_c, 0, 39, 0
1, 90052, Note_on_c, 0, 55, 0
1, 90052, Note_on_c, 0, 58, 32
1, 90144, Note_on_c, 0, 58, 0
1, 90144, Note_on_c, 0, 60, 49
1, 90144, Note_on_c, 0, 39, 21
1, 90147, Note_on_c, 0, 46, 21
1, 90147, Note_on_c, 0, 51, 25
1, 90151, Control_c, 0, 64, 0
1, 90190, Note_on_c, 0, 51, 0
1, 90190, Note_on_c, 0, 46, 0
1, 90190, Note_on_c, 0, 39, 0
1, 90196, Control_c, 0, 64, 127
1, 90236, Note_on_c, 0, 55, 28
1, 90236, Note_on_c, 0, 39, 29
1, 90236, Note_on_c, 0, 46, 29
1, 90239, Note_on_c, 0, 51, 35
1, 90331, Note_on_c, 0, 55, 0
1, 90331, Note_on_c, 0, 57, 28
1, 90331, Note_on_c, 0, 51, 0
1, 90334, Note_on_c, 0, 46, 0
1, 90334, Note_on_c, 0, 39, 0
1, 90426, Note_on_c, 0, 57, 0
1, 90426, Note_on_c, 0, 60, 0
1, 90426, Note_on_c, 0, 67, 0
1, 90429, Note_on_c, 0, 67, 55
1, 90434, Control_c, 0, 64, 0
1, 90479, Control_c, 0, 64, 127
1, 90517, Note_on_c, 0, 55, 31
1, 90609, Note_on_c, 0, 55, 0
1, 90609, Note_on_c, 0, 58, 31
1, 90700, Note_on_c, 0, 58, 0
1, 90700, Note_on_c, 0, 63, 42
1, 90791, Note_on_c, 0, 63, 0
1, 90791, Note_on_c, 0, 55, 28
1, 90889, Note_on_c, 0, 55, 0
1, 90889, Note_on_c, 0, 58, 28
1, 90987, Note_on_c, 0, 58, 0
1, 90987, Note_on_c, 0, 67, 0
1, 90987, Note_on_c, 0, 67, 63
1, 90990, Note_on_c, 0, 38, 29
1, 90990, Note_on_c, 0, 48, 29
1, 90990, Note_on_c, 0, 50, 35
1, 90993, Control_c, 0, 64, 0
1, 91043, Control_c, 0, 64, 127
1, 91080, Note_on_c, 0, 57, 32
1, 91080, Note_on_c, 0, 50, 0
1, 91080, Note_on_c, 0, 48, 0
1, 91083, Note_on_c, 0, 38, 0
1, 91173, Note_on_c, 0, 57, 0
1, 91173, Note_on_c, 0, 60, 32
1, 91266, Note_on_c, 0, 60, 0
1, 91266, Note_on_c, 0, 67, 0
1, 91266, Note_on_c, 0, 66, 63
1, 91269, Note_on_c, 0, 38, 21
1, 91269, Note_on_c, 0, 48, 21
1, 91269, Note_on_c, 0, 50, 25
1, 91273, Control_c, 0, 64, 0
1, 91312, Note_on_c, 0, 50, 0
1, 91312, Note_on_c, 0, 48, 0
1, 91312, Note_on_c, 0, 38, 0
1, 91317, Control_c, 0, 64, 127
1, 91359, Note_on_c, 0, 57, 36
1, 91359, Note_on_c, 0, 38, 29
1, 91359, Note_on_c, 0, 48, 29
1, 91362, Note_on_c, 0, 50, 35
1, 91450, Note_on_c, 0, 57, 0
1, 91450, Note_on_c, 0, 60, 36
1, 91450, Note_on_c, 0, 50, 0
1, 91453, Note_on_c, 0, 48, 0
1, 91453, Note_on_c, 0, 38, 0
1, 91541, Note_on_c, 0, 60, 0
1, 91541, Note_on_c, 0, 66, 0
1, 91541, Note_on_c, 0, 70, 71
1, 91549, Control_c, 0, 64, 0
1, 91584, Control_c, 0, 64, 127
1, 91631, Note_on_c, 0, 60, 34
1, 91721, Note_on_c, 0, 60, 0
1, 91721, Note_on_c, 0, 62, 37
1, 91811, Note_on_c, 0, 62, 0
1, 91811, Note_on_c, 0, 70, 0
1, 91811, Note_on_c, 0, 69, 69
1, 91814, Note_on_c, 0, 50, 21
1, 91814, Note_on_c, 0, 54, 25
1, 91902, Note_on_c, 0, 60, 39
1, 91902, Note_on_c, 0, 54, 0
1, 91902, Note_on_c, 0, 50, 0
1, 91905, Note_on_c, 0, 50, 29
1, 91905, Note_on_c, 0, 54, 35
1, 91999, Note_on_c, 0, 60, 0
1, 91999, Note_on_c, 0, 62, 39
1, 92096, Note_on_c, 0, 62, 0
1, 92096, Note_on_c, 0, 69, 0
1, 92096, Note_on_c, 0, 72, 76
1, 92099, Note_on_c, 0, 54, 0
1, 92099, Note_on_c, 0, 50, 0
1, 92099, Control_c, 0, 64, 0
1, 92138, Control_c, 0, 64, 127
1, 92187, Note_on_c, 0, 58, 44
1, 92277, Note_on_c, 0, 58, 0
1, 92277, Note_on_c, 0, 62, 45
1, 92372, Note_on_c, 0, 62, 0
1, 92372, Note_on_c, 0, 72, 0
1, 92372, Note_on_c, 0, 70, 75
1, 92375, Note_on_c, 0, 43, 25
1, 92375, Note_on_c, 0, 50, 25
1, 92375, Note_on_c, 0, 55, 29
1, 92379, Control_c, 0, 64, 0
1, 92419, Note_on_c, 0, 55, 0
1, 92419, Note_on_c, 0, 50, 0
1, 92419, Note_on_c, 0, 43, 0
1, 92419, Control_c, 0, 64, 127
1, 92466, Note_on_c, 0, 58, 40
1, 92466, Note_on_c, 0, 43, 34
1, 92466, Note_on_c, 0, 50, 34
1, 92469, Note_on_c, 0, 55, 41
1, 92579, Note_on_c, 0, 58, 0
1, 92579, Note_on_c, 0, 62, 45
1, 92579, Note_on_c, 0, 55, 0
1, 92582, Note_on_c, 0, 50, 0
1, 92582, Note_on_c, 0, 43, 0
1, 92692, Note_on_c, 0, 62, 0
1, 92692, Note_on_c, 0, 70, 0
1, 92692, Note_on_c, 0, 74, 81
1, 92699, Control_c, 0, 64, 0
1, 92746, Control_c, 0, 64, 127
1, 92784, Note_on_c, 0, 62, 46
1, 92877, Note_on_c, 0, 62, 0
1, 92877, Note_on_c, 0, 65, 43
1, 92877, Note_on_c, 0, 46, 31
1, 92880, Note_on_c, 0, 56, 31
1, 92880, Note_on_c, 0, 58, 38
1, 92969, Note_on_c, 0, 65, 0
1, 92969, Note_on_c, 0, 74, 0
1, 92969, Note_on_c, 0, 72, 67
1, 93062, Note_on_c, 0, 62, 37
1, 93062, Note_on_c, 0, 58, 0
1, 93062, Note_on_c, 0, 56, 0
1, 93065, Note_on_c, 0, 46, 0
1, 93065, Note_on_c, 0, 46, 31
1, 93065, Note_on_c, 0, 56, 31
1, 93068, Note_on_c, 0, 58, 38
1, 93157, Note_on_c, 0, 62, 0
1, 93157, Note_on_c, 0, 70, 37
1, 93253, Note_on_c, 0, 70, 0
1, 93253, Note_on_c, 0, 72, 0
1, 93253, Note_on_c, 0, 79, 70
1, 93256, Note_on_c, 0, 58, 0
1, 93256, Note_on_c, 0, 56, 0
1, 93256, Note_on_c, 0, 46, 0
1, 93259, Note_on_c, 0, 39, 43
1, 93259, Control_c, 0, 64, 0
1, 93346, Note_on_c, 0, 67, 53
1, 93351, Control_c, 0, 64, 127
1, 93438, Note_on_c, 0, 67, 0
1, 93438, Note_on_c, 0, 70, 53
1, 93438, Note_on_c, 0, 39, 0
1, 93441, Note_on_c, 0, 55, 25
1, 93441, Note_on_c, 0, 58, 25
1, 93441, Note_on_c, 0, 65, 32
1, 93531, Note_on_c, 0, 70, 0
1, 93531, Note_on_c, 0, 77, 65
1, 93534, Control_c, 0, 64, 0
1, 93575, Control_c, 0, 64, 127
1, 93624, Note_on_c, 0, 67, 49
1, 93624, Note_on_c, 0, 65, 0
1, 93624, Note_on_c, 0, 58, 0
1, 93627, Note_on_c, 0, 55, 0
1, 93627, Note_on_c, 0, 43, 36
1, 93717, Note_on_c, 0, 67, 0
1, 93717, Note_on_c, 0, 70, 49
1, 93810, Note_on_c, 0, 70, 0
1, 93810, Note_on_c, 0, 77, 0
1, 93810, Note_on_c, 0, 75, 64
1, 93813, Note_on_c, 0, 43, 0
1, 93813, Note_on_c, 0, 63, 43
1, 93813, Note_on_c, 0, 58, 34
1, 93816, Note_on_c, 0, 55, 34
1, 93816, Control_c, 0, 64, 0
1, 93861, Control_c, 0, 64, 127
1, 93901, Note_on_c, 0, 67, 47
1, 93992, Note_on_c, 0, 67, 0
1, 93992, Note_on_c, 0, 70, 49
1, 93992, Note_on_c, 0, 55, 0
1, 93995, Note_on_c, 0, 58, 0
1, 93995, Note_on_c, 0, 63, 0
1, 93995, Note_on_c, 0, 46, 38
1, 94084, Note_on_c, 0, 70, 0
1, 94084, Note_on_c, 0, 75, 0
1, 94084, Note_on_c, 0, 74, 64
1, 94175, Note_on_c, 0, 67, 49
1, 94175, Note_on_c, 0, 46, 0
1, 94175, Note_on_c, 0, 62, 38
1, 94178, Note_on_c, 0, 58, 30
1, 94178, Note_on_c, 0, 55, 30
1, 94271, Note_on_c, 0, 67, 0
1, 94271, Note_on_c, 0, 70, 49
1, 94367, Note_on_c, 0, 70, 0
1, 94367, Note_on_c, 0, 74, 0
1, 94367, Note_on_c, 0, 79, 0
1, 94370, Note_on_c, 0, 79, 75
1, 94370, Note_on_c, 0, 55, 0
1, 94370, Note_on_c, 0, 58, 0
1, 94373, Note_on_c, 0, 62, 0
1, 94373, Note_on_c, 0, 51, 43
1, 94373, Control_c, 0, 64, 0
1, 94413, Control_c, 0, 64, 127
1, 94459, Note_on_c, 0, 67, 53
1, 94551, Note_on_c, 0, 67, 0
1, 94551, Note_on_c, 0, 70, 53
1, 94551, Note_on_c, 0, 51, 0
1, 94554, Note_on_c, 0, 60, 32
1, 94554, Note_on_c, 0, 55, 27
1, 94643, Note_on_c, 0, 70, 0
1, 94643, Note_on_c, 0, 72, 63
1, 94650, Control_c, 0, 64, 0
1, 94695, Control_c, 0, 64, 127
1, 94735, Note_on_c, 0, 67, 47
1, 94735, Note_on_c, 0, 55, 0
1, 94735, Note_on_c, 0, 60, 0
1, 94738, Note_on_c, 0, 46, 39
1, 94830, Note_on_c, 0, 67, 0
1, 94830, Note_on_c, 0, 69, 47
1, 94925, Note_on_c, 0, 69, 0
1, 94925, Note_on_c, 0, 72, 0
1, 94925, Note_on_c, 0, 79, 0
1, 94928, Note_on_c, 0, 79, 70
1, 94928, Note_on_c, 0, 46, 0
1, 94928, Note_on_c, 0, 58, 37
1, 94931, Note_on_c, 0, 55, 31
1, 94931, Control_c, 0, 64, 0
1, 94978, Control_c, 0, 64, 127
1, 95016, Note_on_c, 0, 67, 51
1, 95108, Note_on_c, 0, 67, 0
1, 95108, Note_on_c, 0, 70, 51
1, 95108, Note_on_c, 0, 55, 0
1, 95111, Note_on_c, 0, 58, 0
1, 95111, Note_on_c, 0, 43, 37
1, 95200, Note_on_c, 0, 70, 0
1, 95200, Note_on_c, 0, 75, 64
1, 95292, Note_on_c, 0, 75, 0
1, 95292, Note_on_c, 0, 67, 47
1, 95292, Note_on_c, 0, 43, 0
1, 95295, Note_on_c, 0, 58, 37
1, 95295, Note_on_c, 0, 55, 31
1, 95390, Note_on_c, 0, 67, 0
1, 95390, Note_on_c, 0, 70, 47
1, 95488, Note_on_c, 0, 70, 0
1, 95488, Note_on_c, 0, 79, 0
1, 95488, Note_on_c, 0, 67, 53
1, 95491, Note_on_c, 0, 79, 70
1, 95491, Note_on_c, 0, 55, 0
1, 95491, Note_on_c, 0, 58, 0
1, 95494, Note_on_c, 0, 39, 43
1, 95494, Control_c, 0, 64, 0
1, 95543, Control_c, 0, 64, 127
1, 95581, Note_on_c, 0, 67, 0
1, 95581, Note_on_c, 0, 68, 53
1, 95673, Note_on_c, 0, 68, 0
1, 95673, Note_on_c, 0, 71, 53
1, 95673, Note_on_c, 0, 39, 0
1, 95676, Note_on_c, 0, 62, 39
1, 95676, Note_on_c, 0, 59, 31
1, 95676, Note_on_c, 0, 56, 31
1, 95766, Note_on_c, 0, 71, 0
1, 95766, Note_on_c, 0, 79, 0
1, 95766, Note_on_c, 0, 64, 50
1, 95769, Note_on_c, 0, 76, 65
1, 95773, Control_c, 0, 64, 0
1, 95817, Control_c, 0, 64, 127
1, 95859, Note_on_c, 0, 64, 0
1, 95859, Note_on_c, 0, 68, 50
1, 95859, Note_on_c, 0, 56, 0
1, 95862, Note_on_c, 0, 59, 0
1, 95862, Note_on_c, 0, 62, 0
1, 95862, Note_on_c, 0, 44, 41
1, 95950, Note_on_c, 0, 68, 0
1, 95950, Note_on_c, 0, 71, 50
1, 96041, Note_on_c, 0, 71, 0
1, 96041, Note_on_c, 0, 76, 0
1, 96041, Note_on_c, 0, 65, 50
1, 96044, Note_on_c, 0, 77, 74
1, 96044, Note_on_c, 0, 44, 0
1, 96044, Note_on_c, 0, 59, 33
1, 96047, Note_on_c, 0, 62, 42
1, 96047, Note_on_c, 0, 56, 33
1, 96047, Control_c, 0, 64, 0
1, 96084, Control_c, 0, 64, 127
1, 96131, Note_on_c, 0, 65, 0
1, 96131, Note_on_c, 0, 68, 50
1, 96221, Note_on_c, 0, 68, 0
1, 96221, Note_on_c, 0, 71, 50
1, 96221, Note_on_c, 0, 56, 0
1, 96224, Note_on_c, 0, 62, 0
1, 96224, Note_on_c, 0, 59, 0
1, 96224, Note_on_c, 0, 47, 43
1, 96312, Note_on_c, 0, 71, 0
1, 96312, Note_on_c, 0, 77, 0
1, 96312, Note_on_c, 0, 67, 54
1, 96315, Note_on_c, 0, 79, 79
1, 96402, Note_on_c, 0, 67, 0
1, 96402, Note_on_c, 0, 68, 54
1, 96402, Note_on_c, 0, 47, 0
1, 96405, Note_on_c, 0, 62, 44
1, 96405, Note_on_c, 0, 59, 35
1, 96405, Note_on_c, 0, 56, 35
1, 96499, Note_on_c, 0, 68, 0
1, 96499, Note_on_c, 0, 74, 56
1, 96596, Note_on_c, 0, 74, 0
1, 96596, Note_on_c, 0, 79, 0
1, 96596, Note_on_c, 0, 68, 61
1, 96599, Note_on_c, 0, 80, 84
1, 96599, Note_on_c, 0, 56, 0
1, 96599, Note_on_c, 0, 59, 0
1, 96602, Note_on_c, 0, 62, 0
1, 96602, Note_on_c, 0, 39, 45
1, 96602, Control_c, 0, 64, 0
1, 96639, Control_c, 0, 64, 127
1, 96687, Note_on_c, 0, 68, 0
1, 96687, Note_on_c, 0, 74, 61
1, 96778, Note_on_c, 0, 74, 0
1, 96778, Note_on_c, 0, 77, 61
1, 96778, Note_on_c, 0, 39, 0
1, 96781, Note_on_c, 0, 65, 38
1, 96781, Note_on_c, 0, 58, 30
1, 96781, Note_on_c, 0, 56, 30
1, 96873, Note_on_c, 0, 77, 0
1, 96873, Note_on_c, 0, 80, 0
1, 96873, Note_on_c, 0, 69, 60
1, 96876, Note_on_c, 0, 81, 84
1, 96880, Control_c, 0, 64, 0
1, 96922, Control_c, 0, 64, 127
1, 96967, Note_on_c, 0, 69, 0
1, 96967, Note_on_c, 0, 74, 60
1, 96967, Note_on_c, 0, 56, 0
1, 96970, Note_on_c, 0, 58, 0
1, 96970, Note_on_c, 0, 65, 0
1, 96970, Note_on_c, 0, 46, 47
1, 97080, Note_on_c, 0, 74, 0
1, 97080, Note_on_c, 0, 77, 67
1, 97193, Note_on_c, 0, 77, 0
1, 97193, Note_on_c, 0, 81, 0
1, 97193, Note_on_c, 0, 72, 64
1, 97196, Note_on_c, 0, 84, 89
1, 97196, Note_on_c, 0, 46, 0
1, 97196, Note_on_c, 0, 65, 55
1, 97199, Note_on_c, 0, 58, 44
1, 97199, Note_on_c, 0, 56, 44
1, 97199, Control_c, 0, 64, 0
1, 97249, Control_c, 0, 64, 127
1, 97290, Note_on_c, 0, 72, 0
1, 97290, Note_on_c, 0, 74, 64
1, 97387, Note_on_c, 0, 74, 0
1, 97387, Note_on_c, 0, 77, 61
1, 97387, Note_on_c, 0, 56, 0
1, 97390, Note_on_c, 0, 58, 0
1, 97390, Note_on_c, 0, 65, 0
1, 97390, Note_on_c, 0, 50, 36
1, 97479, Note_on_c, 0, 77, 0
1, 97479, Note_on_c, 0, 84, 0
1, 97479, Note_on_c, 0, 70, 51
1, 97482, Note_on_c, 0, 82, 70
1, 97571, Note_on_c, 0, 70, 0
1, 97571, Note_on_c, 0, 74, 51
1, 97571, Note_on_c, 0, 50, 0
1, 97574, Note_on_c, 0, 65, 37
1, 97574, Note_on_c, 0, 58, 29
1, 97574, Note_on_c, 0, 56, 29
1, 97667, Note_on_c, 0, 74, 0
1, 97667, Note_on_c, 0, 77, 51
1, 97763, Note_on_c, 0, 77, 0
1, 97763, Note_on_c, 0, 82, 0
1, 97763, Note_on_c, 0, 79, 70
1, 97766, Note_on_c, 0, 56, 0
1, 97766, Note_on_c, 0, 58, 0
1, 97766, Note_on_c, 0, 65, 0
1, 97769, Note_on_c, 0, 39, 43
1, 97773, Control_c, 0, 64, 0
1, 97806, Control_c, 0, 64, 127
1, 97855, Note_on_c, 0, 67, 53
1, 97948, Note_on_c, 0, 67, 0
1, 97948, Note_on_c, 0, 70, 53
1, 97948, Note_on_c, 0, 39, 0
1, 97951, Note_on_c, 0, 65, 33
1, 97951, Note_on_c, 0, 58, 26
1, 97951, Note_on_c, 0, 55, 26
1, 98041, Note_on_c, 0, 70, 0
1, 98041, Note_on_c, 0, 77, 65
1, 98044, Control_c, 0, 64, 0
1, 98068, Control_c, 0, 64, 127
1, 98134, Note_on_c, 0, 67, 49
1, 98134, Note_on_c, 0, 55, 0
1, 98134, Note_on_c, 0, 58, 0
1, 98137, Note_on_c, 0, 65, 0
1, 98137, Note_on_c, 0, 43, 38
1, 98227, Note_on_c, 0, 67, 0
1, 98227, Note_on_c, 0, 70, 49
1, 98319, Note_on_c, 0, 70, 0
1, 98319, Note_on_c, 0, 77, 0
1, 98319, Note_on_c, 0, 75, 64
1, 98322, Note_on_c, 0, 43, 0
1, 98322, Note_on_c, 0, 63, 38
1, 98322, Note_on_c, 0, 58, 30
1, 98325, Note_on_c, 0, 55, 30
1, 98325, Control_c, 0, 64, 0
1, 98370, Control_c, 0, 64, 127
1, 98411, Note_on_c, 0, 67, 47
1, 98502, Note_on_c, 0, 67, 0
1, 98502, Note_on_c, 0, 70, 49
1, 98502, Note_on_c, 0, 55, 0
1, 98505, Note_on_c, 0, 58, 0
1, 98505, Note_on_c, 0, 63, 0
1, 98505, Note_on_c, 0, 46, 38
1, 98593, Note_on_c, 0, 70, 0
1, 98593, Note_on_c, 0, 75, 0
1, 98593, Note_on_c, 0, 74, 64
1, 98685, Note_on_c, 0, 67, 49
1, 98685, Note_on_c, 0, 46, 0
1, 98685, Note_on_c, 0, 62, 38
1, 98688, Note_on_c, 0, 58, 30
1, 98688, Note_on_c, 0, 55, 30
1, 98781, Note_on_c, 0, 67, 0
1, 98781, Note_on_c, 0, 70, 49
1, 98877, Note_on_c, 0, 70, 0
1, 98877, Note_on_c, 0, 74, 0
1, 98877, Note_on_c, 0, 79, 0
1, 98880, Note_on_c, 0, 79, 75
1, 98880, Note_on_c, 0, 55, 0
1, 98880, Note_on_c, 0, 58, 0
1, 98883, Note_on_c, 0, 62, 0
1, 98883, Note_on_c, 0, 51, 43
1, 98883, Control_c, 0, 64, 0
1, 98923, Control_c, 0, 64, 127
1, 98969, Note_on_c, 0, 67, 53
1, 99062, Note_on_c, 0, 67, 0
1, 99062, Note_on_c, 0, 70, 53
1, 99062, Note_on_c, 0, 51, 0
1, 99065, Note_on_c, 0, 60, 34
1, 99065, Note_on_c, 0, 55, 28
1, 99154, Note_on_c, 0, 70, 0
1, 99154, Note_on_c, 0, 72, 63
1, 99161, Control_c, 0, 64, 0
1, 99206, Control_c, 0, 64, 127
1, 99247, Note_on_c, 0, 67, 47
1, 99247, Note_on_c, 0, 55, 0
1, 99247, Note_on_c, 0, 60, 0
1, 99250, Note_on_c, 0, 46, 41
1, 99341, Note_on_c, 0, 67, 0
1, 99341, Note_on_c, 0, 69, 47
1, 99436, Note_on_c, 0, 69, 0
1, 99436, Note_on_c, 0, 72, 0
1, 99436, Note_on_c, 0, 79, 0
1, 99439, Note_on_c, 0, 79, 70
1, 99439, Note_on_c, 0, 46, 0
1, 99439, Note_on_c, 0, 58, 41
1, 99442, Note_on_c, 0, 55, 34
1, 99445, Control_c, 0, 64, 0
1, 99490, Control_c, 0, 64, 127
1, 99529, Note_on_c, 0, 67, 51
1, 99621, Note_on_c, 0, 67, 0
1, 99621, Note_on_c, 0, 70, 51
1, 99621, Note_on_c, 0, 55, 0
1, 99624, Note_on_c, 0, 58, 0
1, 99624, Note_on_c, 0, 43, 41
1, 99712, Note_on_c, 0, 70, 0
1, 99712, Note_on_c, 0, 75, 64
1, 99804, Note_on_c, 0, 75, 0
1, 99804, Note_on_c, 0, 67, 47
1, 99804, Note_on_c, 0, 43, 0
1, 99807, Note_on_c, 0, 58, 40
1, 99807, Note_on_c, 0, 55, 34
1, 99902, Note_on_c, 0, 67, 0
1, 99902, Note_on_c, 0, 70, 47
1, 100000, Note_on_c, 0, 70, 0
1, 100000, Note_on_c, 0, 79, 0
1, 100000, Note_on_c, 0, 67, 53
1, 100003, Note_on_c, 0, 79, 81
1, 100003, Note_on_c, 0, 55, 0
1, 100003, Note_on_c, 0, 58, 0
1, 100006, Note_on_c, 0, 38, 43
1, 100006, Control_c, 0, 64, 0
1, 100056, Control_c, 0, 64, 127
1, 100093, Note_on_c, 0, 67, 0
1, 100093, Note_on_c, 0, 69, 53
1, 100185, Note_on_c, 0, 69, 0
1, 100185, Note_on_c, 0, 72, 53
1, 100185, Note_on_c, 0, 38, 0
1, 100188, Note_on_c, 0, 62, 39
1, 100188, Note_on_c, 0, 60, 31
1, 100188, Note_on_c, 0, 57, 31
1, 100278, Note_on_c, 0, 72, 0
1, 100278, Note_on_c, 0, 79, 0
1, 100278, Note_on_c, 0, 66, 60
1, 100281, Note_on_c, 0, 78, 79
1, 100285, Control_c, 0, 64, 0
1, 100329, Control_c, 0, 64, 127
1, 100371, Note_on_c, 0, 66, 0
1, 100371, Note_on_c, 0, 69, 60
1, 100371, Note_on_c, 0, 57, 0
1, 100374, Note_on_c, 0, 60, 0
1, 100374, Note_on_c, 0, 62, 0
1, 100374, Note_on_c, 0, 45, 41
1, 100472, Note_on_c, 0, 69, 0
1, 100472, Note_on_c, 0, 72, 60
1, 100573, Note_on_c, 0, 72, 0
1, 100573, Note_on_c, 0, 78, 0
1, 100573, Note_on_c, 0, 75, 58
1, 100576, Note_on_c, 0, 87, 92
1, 100576, Note_on_c, 0, 45, 0
1, 100576, Note_on_c, 0, 63, 43
1, 100579, Note_on_c, 0, 60, 34
1, 100579, Note_on_c, 0, 54, 34
1, 100579, Control_c, 0, 64, 0
1, 100616, Control_c, 0, 64, 127
1, 100664, Note_on_c, 0, 75, 0
1, 100664, Note_on_c, 0, 78, 57
1, 100754, Note_on_c, 0, 78, 0
1, 100754, Note_on_c, 0, 81, 61
1, 100754, Note_on_c, 0, 54, 0
1, 100757, Note_on_c, 0, 60, 0
1, 100757, Note_on_c, 0, 63, 0
1, 100757, Note_on_c, 0, 50, 47
1, 100845, Note_on_c, 0, 81, 0
1, 100845, Note_on_c, 0, 87, 0
1, 100845, Note_on_c, 0, 74, 56
1, 100848, Note_on_c, 0, 86, 90
1, 100936, Note_on_c, 0, 74, 0
1, 100936, Note_on_c, 0, 78, 64
1, 100936, Note_on_c, 0, 50, 0
1, 100939, Note_on_c, 0, 62, 50
1, 100939, Note_on_c, 0, 60, 40
1, 100939, Note_on_c, 0, 57, 40
1, 101034, Note_on_c, 0, 78, 0
1, 101034, Note_on_c, 0, 81, 65
1, 101131, Note_on_c, 0, 81, 0
1, 101131, Note_on_c, 0, 86, 0
1, 101131, Note_on_c, 0, 74, 56
1, 101134, Note_on_c, 0, 86, 93
1, 101134, Note_on_c, 0, 57, 0
1, 101134, Note_on_c, 0, 60, 0
1, 101137, Note_on_c, 0, 62, 0
1, 101137, Note_on_c, 0, 43, 43
1, 101137, Control_c, 0, 64, 0
1, 101173, Control_c, 0, 64, 127
1, 101222, Note_on_c, 0, 74, 0
1, 101222, Note_on_c, 0, 79, 71
1, 101313, Note_on_c, 0, 79, 0
1, 101313, Note_on_c, 0, 83, 69
1, 101313, Note_on_c, 0, 43, 0
1, 101316, Note_on_c, 0, 59, 33
1, 101316, Note_on_c, 0, 62, 39
1, 101407, Note_on_c, 0, 83, 0
1, 101407, Note_on_c, 0, 86, 0
1, 101407, Note_on_c, 0, 71, 54
1, 101410, Note_on_c, 0, 83, 78
1, 101415, Control_c, 0, 64, 0
1, 101457, Control_c, 0, 64, 127
1, 101502, Note_on_c, 0, 71, 0
1, 101502, Note_on_c, 0, 74, 67
1, 101502, Note_on_c, 0, 62, 0
1, 101505, Note_on_c, 0, 59, 0
1, 101505, Note_on_c, 0, 50, 43
1, 101600, Note_on_c, 0, 74, 0
1, 101600, Note_on_c, 0, 79, 68
1, 101698, Note_on_c, 0, 79, 0
1, 101698, Note_on_c, 0, 83, 0
1, 101698, Note_on_c, 0, 67, 53
1, 101701, Note_on_c, 0, 79, 74
1, 101701, Note_on_c, 0, 50, 0
1, 101701, Note_on_c, 0, 62, 33
1, 101704, Note_on_c, 0, 59, 28
1, 101704, Control_c, 0, 64, 0
1, 101752, Control_c, 0, 64, 127
1, 101790, Note_on_c, 0, 67, 0
1, 101790, Note_on_c, 0, 71, 60
1, 101883, Note_on_c, 0, 71, 0
1, 101883, Note_on_c, 0, 74, 60
1, 101883, Note_on_c, 0, 59, 0
1, 101886, Note_on_c, 0, 62, 0
1, 101886, Note_on_c, 0, 55, 38
1, 101975, Note_on_c, 0, 74, 0
1, 101975, Note_on_c, 0, 79, 0
1, 101975, Note_on_c, 0, 67, 52
1, 101978, Note_on_c, 0, 79, 74
1, 102068, Note_on_c, 0, 67, 0
1, 102068, Note_on_c, 0, 71, 60
1, 102068, Note_on_c, 0, 55, 0
1, 102071, Note_on_c, 0, 62, 38
1, 102071, Note_on_c, 0, 59, 32
1, 102163, Note_on_c, 0, 71, 0
1, 102163, Note_on_c, 0, 74, 56
1, 102259, Note_on_c, 0, 74, 0
1, 102259, Note_on_c, 0, 79, 0
1, 102259, Note_on_c, 0, 79, 70
1, 102262, Note_on_c, 0, 59, 0
1, 102262, Note_on_c, 0, 62, 0
1, 102262, Note_on_c, 0, 40, 43
1, 102265, Control_c, 0, 64, 0
1, 102352, Note_on_c, 0, 67, 53
1, 102357, Control_c, 0, 64, 127
1, 102444, Note_on_c, 0, 67, 0
1, 102444, Note_on_c, 0, 71, 53
1, 102444, Note_on_c, 0, 40, 0
1, 102447, Note_on_c, 0, 55, 19
1, 102447, Note_on_c, 0, 59, 25
1, 102447, Note_on_c, 0, 66, 32
1, 102537, Note_on_c, 0, 71, 0
1, 102537, Note_on_c, 0, 78, 65
1, 102540, Control_c, 0, 64, 0
1, 102580, Control_c, 0, 64, 127
1, 102630, Note_on_c, 0, 67, 49
1, 102630, Note_on_c, 0, 66, 0
1, 102630, Note_on_c, 0, 59, 0
1, 102633, Note_on_c, 0, 55, 0
1, 102633, Note_on_c, 0, 43, 36
1, 102723, Note_on_c, 0, 67, 0
1, 102723, Note_on_c, 0, 71, 49
1, 102816, Note_on_c, 0, 71, 0
1, 102816, Note_on_c, 0, 78, 0
1, 102816, Note_on_c, 0, 76, 64
1, 102819, Note_on_c, 0, 43, 0
1, 102819, Note_on_c, 0, 64, 43
1, 102819, Note_on_c, 0, 59, 34
1, 102822, Note_on_c, 0, 55, 34
1, 102822, Control_c, 0, 64, 0
1, 102867, Control_c, 0, 64, 127
1, 102907, Note_on_c, 0, 67, 47
1, 102998, Note_on_c, 0, 67, 0
1, 102998, Note_on_c, 0, 71, 49
1, 102998, Note_on_c, 0, 55, 0
1, 103001, Note_on_c, 0, 59, 0
1, 103001, Note_on_c, 0, 64, 0
1, 103001, Note_on_c, 0, 47, 38
1, 103090, Note_on_c, 0, 71, 0
1, 103090, Note_on_c, 0, 76, 0
1, 103090, Note_on_c, 0, 74, 64
1, 103181, Note_on_c, 0, 67, 49
1, 103181, Note_on_c, 0, 47, 0
1, 103181, Note_on_c, 0, 62, 38
1, 103184, Note_on_c, 0, 59, 30
1, 103184, Note_on_c, 0, 55, 30
1, 103277, Note_on_c, 0, 67, 0
1, 103277, Note_on_c, 0, 71, 49
1, 103373, Note_on_c, 0, 71, 0
1, 103373, Note_on_c, 0, 74, 0
1, 103373, Note_on_c, 0, 79, 0
1, 103376, Note_on_c, 0, 79, 75
1, 103376, Note_on_c, 0, 55, 0
1, 103376, Note_on_c, 0, 59, 0
1, 103379, Note_on_c, 0, 62, 0
1, 103379, Note_on_c, 0, 52, 43
1, 103379, Control_c, 0, 64, 0
1, 103419, Control_c, 0, 64, 127
1, 103465, Note_on_c, 0, 67, 53
1, 103558, Note_on_c, 0, 67, 0
1, 103558, Note_on_c, 0, 71, 53
1, 103558, Note_on_c, 0, 52, 0
1, 103561, Note_on_c, 0, 60, 32
1, 103561, Note_on_c, 0, 55, 27
1, 103649, Note_on_c, 0, 71, 0
1, 103649, Note_on_c, 0, 72, 63
1, 103656, Control_c, 0, 64, 0
1, 103700, Control_c, 0, 64, 127
1, 103740, Note_on_c, 0, 67, 47
1, 103740, Note_on_c, 0, 55, 0
1, 103740, Note_on_c, 0, 60, 0
1, 103743, Note_on_c, 0, 47, 39
1, 103834, Note_on_c, 0, 67, 0
1, 103834, Note_on_c, 0, 71, 47
1, 103929, Note_on_c, 0, 71, 0
1, 103929, Note_on_c, 0, 72, 0
1, 103929, Note_on_c, 0, 79, 0
1, 103932, Note_on_c, 0, 79, 70
1, 103932, Note_on_c, 0, 47, 0
1, 103932, Note_on_c, 0, 59, 37
1, 103935, Note_on_c, 0, 55, 31
1, 103938, Control_c, 0, 64, 0
1, 103983, Control_c, 0, 64, 127
1, 104021, Note_on_c, 0, 67, 51
1, 104113, Note_on_c, 0, 67, 0
1, 104113, Note_on_c, 0, 71, 51
1, 104113, Note_on_c, 0, 55, 0
1, 104116, Note_on_c, 0, 59, 0
1, 104116, Note_on_c, 0, 40, 37
1, 104204, Note_on_c, 0, 71, 0
1, 104204, Note_on_c, 0, 76, 64
1, 104296, Note_on_c, 0, 76, 0
1, 104296, Note_on_c, 0, 67, 47
1, 104296, Note_on_c, 0, 40, 0
1, 104299, Note_on_c, 0, 59, 37
1, 104299, Note_on_c, 0, 55, 31
1, 104394, Note_on_c, 0, 67, 0
1, 104394, Note_on_c, 0, 71, 47
1, 104492, Note_on_c, 0, 71, 0
1, 104492, Note_on_c, 0, 79, 0
1, 104492, Note_on_c, 0, 67, 53
1, 104495, Note_on_c, 0, 79, 70
1, 104495, Note_on_c, 0, 55, 0
1, 104495, Note_on_c, 0, 59, 0
1, 104498, Note_on_c, 0, 36, 43
1, 104498, Control_c, 0, 64, 0
1, 104548, Control_c, 0, 64, 127
1, 104585, Note_on_c, 0, 67, 0
1, 104585, Note_on_c, 0, 69, 53
1, 104678, Note_on_c, 0, 69, 0
1, 104678, Note_on_c, 0, 75, 53
1, 104678, Note_on_c, 0, 36, 0
1, 104681, Note_on_c, 0, 63, 39
1, 104681, Note_on_c, 0, 57, 31
1, 104681, Note_on_c, 0, 55, 31
1, 104771, Note_on_c, 0, 75, 0
1, 104771, Note_on_c, 0, 79, 0
1, 104771, Note_on_c, 0, 65, 50
1, 104774, Note_on_c, 0, 77, 65
1, 104778, Control_c, 0, 64, 0
1, 104822, Control_c, 0, 64, 127
1, 104864, Note_on_c, 0, 65, 0
1, 104864, Note_on_c, 0, 69, 50
1, 104864, Note_on_c, 0, 55, 0
1, 104867, Note_on_c, 0, 57, 0
1, 104867, Note_on_c, 0, 63, 0
1, 104867, Note_on_c, 0, 45, 41
1, 104954, Note_on_c, 0, 69, 0
1, 104954, Note_on_c, 0, 75, 50
1, 105045, Note_on_c, 0, 75, 0
1, 105045, Note_on_c, 0, 77, 0
1, 105045, Note_on_c, 0, 66, 50
1, 105048, Note_on_c, 0, 78, 74
1, 105048, Note_on_c, 0, 45, 0
1, 105048, Note_on_c, 0, 57, 33
1, 105051, Note_on_c, 0, 63, 42
1, 105051, Note_on_c, 0, 54, 33
1, 105054, Control_c, 0, 64, 0
1, 105088, Control_c, 0, 64, 127
1, 105135, Note_on_c, 0, 66, 0
1, 105135, Note_on_c, 0, 69, 50
1, 105225, Note_on_c, 0, 69, 0
1, 105225, Note_on_c, 0, 75, 50
1, 105225, Note_on_c, 0, 54, 0
1, 105228, Note_on_c, 0, 63, 0
1, 105228, Note_on_c, 0, 57, 0
1, 105228, Note_on_c, 0, 48, 43
1, 105315, Note_on_c, 0, 75, 0
1, 105315, Note_on_c, 0, 78, 0
1, 105315, Note_on_c, 0, 67, 54
1, 105318, Note_on_c, 0, 79, 81
1, 105405, Note_on_c, 0, 67, 0
1, 105405, Note_on_c, 0, 69, 54
1, 105405, Note_on_c, 0, 48, 0
1, 105408, Note_on_c, 0, 63, 44
1, 105408, Note_on_c, 0, 57, 35
1, 105408, Note_on_c, 0, 54, 35
1, 105502, Note_on_c, 0, 69, 0
1, 105502, Note_on_c, 0, 75, 56
1, 105599, Note_on_c, 0, 75, 0
1, 105599, Note_on_c, 0, 79, 0
1, 105599, Note_on_c, 0, 68, 61
1, 105602, Note_on_c, 0, 80, 84
1, 105602, Note_on_c, 0, 54, 0
1, 105602, Note_on_c, 0, 57, 0
1, 105605, Note_on_c, 0, 63, 0
1, 105605, Note_on_c, 0, 35, 45
1, 105605, Control_c, 0, 64, 0
1, 105641, Control_c, 0, 64, 127
1, 105690, Note_on_c, 0, 68, 0
1, 105690, Note_on_c, 0, 75, 61
1, 105780, Note_on_c, 0, 75, 0
1, 105780, Note_on_c, 0, 78, 61
1, 105780, Note_on_c, 0, 35, 0
1, 105783, Note_on_c, 0, 63, 38
1, 105783, Note_on_c, 0, 57, 30
1, 105783, Note_on_c, 0, 54, 30
1, 105874, Note_on_c, 0, 78, 0
1, 105874, Note_on_c, 0, 80, 0
1, 105874, Note_on_c, 0, 69, 60
1, 105877, Note_on_c, 0, 81, 84
1, 105882, Control_c, 0, 64, 0
1, 105924, Control_c, 0, 64, 127
1, 105969, Note_on_c, 0, 69, 0
1, 105969, Note_on_c, 0, 75, 60
1, 105969, Note_on_c, 0, 54, 0
1, 105972, Note_on_c, 0, 57, 0
1, 105972, Note_on_c, 0, 63, 0
1, 105972, Note_on_c, 0, 47, 47
1, 106081, Note_on_c, 0, 75, 0
1, 106081, Note_on_c, 0, 78, 67
1, 106194, Note_on_c, 0, 78, 0
1, 106194, Note_on_c, 0, 81, 0
1, 106194, Note_on_c, 0, 72, 64
1, 106197, Note_on_c, 0, 84, 89
1, 106197, Note_on_c, 0, 47, 0
1, 106197, Note_on_c, 0, 66, 55
1, 106200, Note_on_c, 0, 60, 44
1, 106200, Note_on_c, 0, 57, 44
1, 106200, Control_c, 0, 64, 0
1, 106251, Control_c, 0, 64, 127
1, 106292, Note_on_c, 0, 72, 0
1, 106292, Note_on_c, 0, 75, 64
1, 106389, Note_on_c, 0, 75, 0
1, 106389, Note_on_c, 0, 78, 61
1, 106389, Note_on_c, 0, 57, 0
1, 106392, Note_on_c, 0, 60, 0
1, 106392, Note_on_c, 0, 66, 0
1, 106392, Note_on_c, 0, 51, 36
1, 106481, Note_on_c, 0, 78, 0
1, 106481, Note_on_c, 0, 84, 0
1, 106481, Note_on_c, 0, 71, 51
1, 106484, Note_on_c, 0, 83, 70
1, 106573, Note_on_c, 0, 71, 0
1, 106573, Note_on_c, 0, 75, 51
1, 106573, Note_on_c, 0, 51, 0
1, 106576, Note_on_c, 0, 66, 37
1, 106576, Note_on_c, 0, 59, 29
1, 106576, Note_on_c, 0, 57, 29
1, 106669, Note_on_c, 0, 75, 0
1, 106669, Note_on_c, 0, 78, 51
1, 106764, Note_on_c, 0, 78, 0
1, 106764, Note_on_c, 0, 83, 0
1, 106764, Note_on_c, 0, 79, 70
1, 106767, Note_on_c, 0, 57, 0
1, 106767, Note_on_c, 0, 59, 0
1, 106767, Note_on_c, 0, 66, 0
1, 106770, Note_on_c, 0, 40, 43
1, 106774, Control_c, 0, 64, 0
1, 106807, Control_c, 0, 64, 127
1, 106857, Note_on_c, 0, 67, 53
1, 106950, Note_on_c, 0, 67, 0
1, 106950, Note_on_c, 0, 71, 53
1, 106950, Note_on_c, 0, 40, 0
1, 106953, Note_on_c, 0, 66, 33
1, 106953, Note_on_c, 0, 59, 26
1, 106953, Note_on_c, 0, 55, 22
1, 107043, Note_on_c, 0, 71, 0
1, 107043, Note_on_c, 0, 78, 65
1, 107046, Control_c, 0, 64, 0
1, 107070, Control_c, 0, 64, 127
1, 107135, Note_on_c, 0, 67, 49
1, 107135, Note_on_c, 0, 55, 0
1, 107135, Note_on_c, 0, 59, 0
1, 107138, Note_on_c, 0, 66, 0
1, 107138, Note_on_c, 0, 43, 38
1, 107228, Note_on_c, 0, 67, 0
1, 107228, Note_on_c, 0, 71, 49
1, 107321, Note_on_c, 0, 71, 0
1, 107321, Note_on_c, 0, 78, 0
1, 107321, Note_on_c, 0, 76, 64
1, 107324, Note_on_c, 0, 43, 0
1, 107324, Note_on_c, 0, 64, 38
1, 107324, Note_on_c, 0, 59, 30
1, 107327, Note_on_c, 0, 55, 30
1, 107327, Control_c, 0, 64, 0
1, 107372, Control_c, 0, 64, 127
1, 107412, Note_on_c, 0, 67, 47
1, 107504, Note_on_c, 0, 67, 0
1, 107504, Note_on_c, 0, 71, 49
1, 107504, Note_on_c, 0, 55, 0
1, 107507, Note_on_c, 0, 59, 0
1, 107507, Note_on_c, 0, 64, 0
1, 107507, Note_on_c, 0, 47, 38
1, 107595, Note_on_c, 0, 71, 0
1, 107595, Note_on_c, 0, 76, 0
1, 107595, Note_on_c, 0, 74, 64
1, 107686, Note_on_c, 0, 67, 49
1, 107686, Note_on_c, 0, 47, 0
1, 107686, Note_on_c, 0, 62, 38
1, 107689, Note_on_c, 0, 59, 30
1, 107689, Note_on_c, 0, 55, 30
1, 107782, Note_on_c, 0, 67, 0
1, 107782, Note_on_c, 0, 71, 49
1, 107878, Note_on_c, 0, 71, 0
1, 107878, Note_on_c, 0, 74, 0
1, 107878, Note_on_c, 0, 79, 0
1, 107881, Note_on_c, 0, 79, 75
1, 107881, Note_on_c, 0, 55, 0
1, 107881, Note_on_c, 0, 59, 0
1, 107884, Note_on_c, 0, 62, 0
1, 107884, Note_on_c, 0, 52, 43
1, 107884, Control_c, 0, 64, 0
1, 107925, Control_c, 0, 64, 127
1, 107971, Note_on_c, 0, 67, 53
1, 108063, Note_on_c, 0, 67, 0
1, 108063, Note_on_c, 0, 71, 53
1, 108063, Note_on_c, 0, 52, 0
1, 108066, Note_on_c, 0, 60, 34
1, 108066, Note_on_c, 0, 55, 28
1, 108156, Note_on_c, 0, 71, 0
1, 108156, Note_on_c, 0, 72, 63
1, 108163, Control_c, 0, 64, 0
1, 108207, Control_c, 0, 64, 127
1, 108248, Note_on_c, 0, 67, 47
1, 108248, Note_on_c, 0, 55, 0
1, 108248, Note_on_c, 0, 60, 0
1, 108251, Note_on_c, 0, 47, 41
1, 108343, Note_on_c, 0, 67, 0
1, 108343, Note_on_c, 0, 71, 47
1, 108438, Note_on_c, 0, 71, 0
1, 108438, Note_on_c, 0, 72, 0
1, 108438, Note_on_c, 0, 79, 0
1, 108441, Note_on_c, 0, 79, 70
1, 108441, Note_on_c, 0, 47, 0
1, 108441, Note_on_c, 0, 59, 41
1, 108444, Note_on_c, 0, 55, 34
1, 108444, Control_c, 0, 64, 0
1, 108491, Control_c, 0, 64, 127
1, 108529, Note_on_c, 0, 67, 51
1, 108621, Note_on_c, 0, 67, 0
1, 108621, Note_on_c, 0, 71, 51
1, 108621, Note_on_c, 0, 55, 0
1, 108624, Note_on_c, 0, 59, 0
1, 108624, Note_on_c, 0, 40, 41
1, 108713, Note_on_c, 0, 71, 0
1, 108713, Note_on_c, 0, 76, 64
1, 108804, Note_on_c, 0, 76, 0
1, 108804, Note_on_c, 0, 67, 47
1, 108804, Note_on_c, 0, 40, 0
1, 108807, Note_on_c, 0, 59, 40
1, 108807, Note_on_c, 0, 55, 34
1, 108903, Note_on_c, 0, 67, 0
1, 108903, Note_on_c, 0, 71, 47
1, 109001, Note_on_c, 0, 71, 0
1, 109001, Note_on_c, 0, 79, 0
1, 109001, Note_on_c, 0, 67, 53
1, 109004, Note_on_c, 0, 79, 81
1, 109004, Note_on_c, 0, 55, 0
1, 109004, Note_on_c, 0, 59, 0
1, 109007, Note_on_c, 0, 39, 43
1, 109007, Control_c, 0, 64, 0
1, 109056, Control_c, 0, 64, 127
1, 109093, Note_on_c, 0, 67, 0
1, 109093, Note_on_c, 0, 69, 53
1, 109186, Note_on_c, 0, 69, 0
1, 109186, Note_on_c, 0, 72, 53
1, 109186, Note_on_c, 0, 39, 0
1, 109189, Note_on_c, 0, 60, 39
1, 109189, Note_on_c, 0, 57, 31
1, 109189, Note_on_c, 0, 55, 31
1, 109279, Note_on_c, 0, 72, 0
1, 109279, Note_on_c, 0, 79, 0
1, 109279, Note_on_c, 0, 65, 72
1, 109282, Note_on_c, 0, 77, 72
1, 109286, Control_c, 0, 64, 0
1, 109330, Control_c, 0, 64, 127
1, 109372, Note_on_c, 0, 65, 0
1, 109372, Note_on_c, 0, 69, 60
1, 109372, Note_on_c, 0, 55, 0
1, 109375, Note_on_c, 0, 57, 0
1, 109375, Note_on_c, 0, 60, 0
1, 109375, Note_on_c, 0, 45, 41
1, 109468, Note_on_c, 0, 69, 0
1, 109468, Note_on_c, 0, 72, 60
1, 109563, Note_on_c, 0, 72, 0
1, 109563, Note_on_c, 0, 77, 0
1, 109563, Note_on_c, 0, 66, 76
1, 109566, Note_on_c, 0, 78, 76
1, 109566, Note_on_c, 0, 45, 0
1, 109566, Note_on_c, 0, 60, 43
1, 109569, Note_on_c, 0, 57, 34
1, 109569, Note_on_c, 0, 54, 34
1, 109569, Control_c, 0, 64, 0
1, 109606, Control_c, 0, 64, 127
1, 109653, Note_on_c, 0, 66, 0
1, 109653, Note_on_c, 0, 69, 57
1, 109744, Note_on_c, 0, 69, 0
1, 109744, Note_on_c, 0, 72, 61
1, 109744, Note_on_c, 0, 54, 0
1, 109747, Note_on_c, 0, 57, 0
1, 109747, Note_on_c, 0, 60, 0
1, 109747, Note_on_c, 0, 48, 47
1, 109834, Note_on_c, 0, 72, 0
1, 109834, Note_on_c, 0, 78, 0
1, 109834, Note_on_c, 0, 67, 80
1, 109837, Note_on_c, 0, 79, 80
1, 109924, Note_on_c, 0, 67, 0
1, 109924, Note_on_c, 0, 69, 64
1, 109924, Note_on_c, 0, 48, 0
1, 109927, Note_on_c, 0, 63, 50
1, 109927, Note_on_c, 0, 57, 40
1, 109927, Note_on_c, 0, 53, 40
1, 110021, Note_on_c, 0, 69, 0
1, 110021, Note_on_c, 0, 72, 65
1, 110119, Note_on_c, 0, 72, 0
1, 110119, Note_on_c, 0, 79, 0
1, 110119, Note_on_c, 0, 68, 86
1, 110122, Note_on_c, 0, 80, 86
1, 110122, Note_on_c, 0, 53, 0
1, 110122, Note_on_c, 0, 57, 0
1, 110125, Note_on_c, 0, 63, 0
1, 110125, Note_on_c, 0, 38, 47
1, 110125, Control_c, 0, 64, 0
1, 110160, Control_c, 0, 64, 127
1, 110208, Note_on_c, 0, 68, 0
1, 110208, Note_on_c, 0, 72, 67
1, 110298, Note_on_c, 0, 72, 0
1, 110298, Note_on_c, 0, 78, 67
1, 110298, Note_on_c, 0, 38, 0
1, 110301, Note_on_c, 0, 54, 37
1, 110301, Note_on_c, 0, 60, 37
1, 110301, Note_on_c, 0, 63, 47
1, 110392, Note_on_c, 0, 78, 0
1, 110392, Note_on_c, 0, 80, 0
1, 110392, Note_on_c, 0, 69, 81
1, 110395, Note_on_c, 0, 81, 81
1, 110400, Control_c, 0, 64, 0
1, 110441, Control_c, 0, 64, 127
1, 110486, Note_on_c, 0, 69, 0
1, 110486, Note_on_c, 0, 72, 67
1, 110486, Note_on_c, 0, 63, 0
1, 110489, Note_on_c, 0, 60, 0
1, 110489, Note_on_c, 0, 54, 0
1, 110489, Note_on_c, 0, 45, 53
1, 110591, Note_on_c, 0, 72, 0
1, 110591, Note_on_c, 0, 78, 64
1, 110696, Note_on_c, 0, 78, 0
1, 110696, Note_on_c, 0, 81, 0
1, 110696, Note_on_c, 0, 75, 88
1, 110699, Note_on_c, 0, 87, 88
1, 110699, Note_on_c, 0, 45, 0
1, 110699, Note_on_c, 0, 54, 34
1, 110702, Note_on_c, 0, 63, 43
1, 110702, Note_on_c, 0, 60, 34
1, 110702, Control_c, 0, 64, 0
1, 110750, Control_c, 0, 64, 127
1, 110789, Note_on_c, 0, 75, 0
1, 110789, Note_on_c, 0, 78, 60
1, 110881, Note_on_c, 0, 78, 0
1, 110881, Note_on_c, 0, 81, 60
1, 110881, Note_on_c, 0, 60, 0
1, 110884, Note_on_c, 0, 63, 0
1, 110884, Note_on_c, 0, 54, 0
1, 110884, Note_on_c, 0, 50, 38
1, 110974, Note_on_c, 0, 81, 0
1, 110974, Note_on_c, 0, 87, 0
1, 110974, Note_on_c, 0, 74, 52
1, 110977, Note_on_c, 0, 86, 74
1, 111066, Note_on_c, 0, 74, 0
1, 111066, Note_on_c, 0, 78, 60
1, 111066, Note_on_c, 0, 50, 0
1, 111069, Note_on_c, 0, 57, 32
1, 111069, Note_on_c, 0, 62, 38
1, 111069, Note_on_c, 0, 60, 32
1, 111162, Note_on_c, 0, 78, 0
1, 111162, Note_on_c, 0, 81, 56
1, 111257, Note_on_c, 0, 81, 0
1, 111257, Note_on_c, 0, 86, 0
1, 111257, Note_on_c, 0, 82, 70
1, 111260, Note_on_c, 0, 60, 0
1, 111260, Note_on_c, 0, 62, 0
1, 111260, Note_on_c, 0, 57, 0
1, 111263, Note_on_c, 0, 43, 43
1, 111263, Control_c, 0, 64, 0
1, 111350, Note_on_c, 0, 70, 53
1, 111355, Control_c, 0, 64, 127
1, 111443, Note_on_c, 0, 70, 0
1, 111443, Note_on_c, 0, 74, 53
1, 111443, Note_on_c, 0, 43, 0
1, 111446, Note_on_c, 0, 69, 32
1, 111446, Note_on_c, 0, 58, 25
1, 111446, Note_on_c, 0, 62, 25
1, 111536, Note_on_c, 0, 74, 0
1, 111536, Note_on_c, 0, 81, 67
1, 111539, Control_c, 0, 64, 0
1, 111579, Control_c, 0, 64, 127
1, 111628, Note_on_c, 0, 70, 56
1, 111628, Note_on_c, 0, 62, 0
1, 111628, Note_on_c, 0, 58, 0
1, 111631, Note_on_c, 0, 69, 0
1, 111631, Note_on_c, 0, 46, 36
1, 111721, Note_on_c, 0, 70, 0
1, 111721, Note_on_c, 0, 74, 56
1, 111814, Note_on_c, 0, 74, 0
1, 111814, Note_on_c, 0, 81, 0
1, 111814, Note_on_c, 0, 79, 69
1, 111817, Note_on_c, 0, 46, 0
1, 111817, Note_on_c, 0, 67, 43
1, 111817, Note_on_c, 0, 62, 34
1, 111820, Note_on_c, 0, 58, 34
1, 111820, Control_c, 0, 64, 0
1, 111865, Control_c, 0, 64, 127
1, 111905, Note_on_c, 0, 70, 57
1, 111997, Note_on_c, 0, 70, 0
1, 111997, Note_on_c, 0, 74, 60
1, 111997, Note_on_c, 0, 58, 0
1, 112000, Note_on_c, 0, 62, 0
1, 112000, Note_on_c, 0, 67, 0
1, 112000, Note_on_c, 0, 50, 38
1, 112088, Note_on_c, 0, 74, 0
1, 112088, Note_on_c, 0, 79, 0
1, 112088, Note_on_c, 0, 77, 70
1, 112179, Note_on_c, 0, 70, 59
1, 112179, Note_on_c, 0, 50, 0
1, 112179, Note_on_c, 0, 63, 38
1, 112182, Note_on_c, 0, 58, 30
1, 112182, Note_on_c, 0, 55, 30
1, 112275, Note_on_c, 0, 70, 0
1, 112275, Note_on_c, 0, 75, 62
1, 112371, Note_on_c, 0, 75, 0
1, 112371, Note_on_c, 0, 77, 0
1, 112371, Note_on_c, 0, 82, 0
1, 112374, Note_on_c, 0, 84, 80
1, 112374, Note_on_c, 0, 55, 0
1, 112374, Note_on_c, 0, 58, 0
1, 112377, Note_on_c, 0, 63, 0
1, 112377, Note_on_c, 0, 42, 43
1, 112377, Control_c, 0, 64, 0
1, 112418, Control_c, 0, 64, 127
1, 112464, Note_on_c, 0, 72, 60
1, 112556, Note_on_c, 0, 72, 0
1, 112556, Note_on_c, 0, 75, 63
1, 112556, Note_on_c, 0, 42, 0
1, 112559, Note_on_c, 0, 63, 27
1, 112559, Note_on_c, 0, 70, 32
1, 112559, Note_on_c, 0, 60, 27
1, 112649, Note_on_c, 0, 75, 0
1, 112649, Note_on_c, 0, 82, 74
1, 112656, Control_c, 0, 64, 0
1, 112700, Control_c, 0, 64, 127
1, 112741, Note_on_c, 0, 72, 58
1, 112741, Note_on_c, 0, 60, 0
1, 112741, Note_on_c, 0, 70, 0
1, 112744, Note_on_c, 0, 63, 0
1, 112744, Note_on_c, 0, 41, 39
1, 112836, Note_on_c, 0, 72, 0
1, 112836, Note_on_c, 0, 75, 59
1, 112931, Note_on_c, 0, 75, 0
1, 112931, Note_on_c, 0, 82, 0
1, 112931, Note_on_c, 0, 84, 0
1, 112934, Note_on_c, 0, 81, 56
1, 112934, Note_on_c, 0, 84, 73
1, 112934, Note_on_c, 0, 41, 0
1, 112937, Note_on_c, 0, 63, 31
1, 112937, Note_on_c, 0, 69, 37
1, 112937, Note_on_c, 0, 60, 31
1, 112937, Control_c, 0, 64, 0
1, 112984, Control_c, 0, 64, 127
1, 113023, Note_on_c, 0, 81, 0
1, 113023, Note_on_c, 0, 72, 54
1, 113115, Note_on_c, 0, 72, 0
1, 113115, Note_on_c, 0, 75, 54
1, 113115, Note_on_c, 0, 60, 0
1, 113118, Note_on_c, 0, 69, 0
1, 113118, Note_on_c, 0, 63, 0
1, 113118, Note_on_c, 0, 45, 37
1, 113207, Note_on_c, 0, 75, 0
1, 113207, Note_on_c, 0, 78, 71
1, 113299, Note_on_c, 0, 72, 52
1, 113299, Note_on_c, 0, 45, 0
1, 113299, Note_on_c, 0, 60, 31
1, 113302, Note_on_c, 0, 66, 37
1, 113302, Note_on_c, 0, 63, 31
1, 113397, Note_on_c, 0, 72, 0
1, 113397, Note_on_c, 0, 75, 52
1, 113495, Note_on_c, 0, 75, 0
1, 113495, Note_on_c, 0, 78, 0
1, 113495, Note_on_c, 0, 84, 0
1, 113498, Note_on_c, 0, 85, 80
1, 113498, Note_on_c, 0, 63, 0
1, 113498, Note_on_c, 0, 66, 0
1, 113501, Note_on_c, 0, 60, 0
1, 113501, Note_on_c, 0, 46, 49
1, 113501, Control_c, 0, 64, 0
1, 113504, Control_c, 0, 64, 0
1, 113551, Control_c, 0, 64, 127
1, 113588, Note_on_c, 0, 73, 60
1, 113681, Note_on_c, 0, 73, 0
1, 113681, Note_on_c, 0, 77, 60
1, 113681, Note_on_c, 0, 46, 0
1, 113684, Note_on_c, 0, 72, 36
1, 113684, Note_on_c, 0, 61, 28
1, 113684, Note_on_c, 0, 65, 28
1, 113774, Note_on_c, 0, 77, 0
1, 113774, Note_on_c, 0, 84, 77
1, 113777, Control_c, 0, 64, 0
1, 113781, Control_c, 0, 64, 0
1, 113853, Control_c, 0, 64, 127
1, 113867, Note_on_c, 0, 73, 64
1, 113867, Note_on_c, 0, 65, 0
1, 113867, Note_on_c, 0, 61, 0
1, 113870, Note_on_c, 0, 72, 0
1, 113870, Note_on_c, 0, 49, 41
1, 113959, Note_on_c, 0, 73, 0
1, 113959, Note_on_c, 0, 77, 64
1, 114052, Note_on_c, 0, 77, 0
1, 114052, Note_on_c, 0, 84, 0
1, 114052, Note_on_c, 0, 82, 79
1, 114055, Note_on_c, 0, 49, 0
1, 114055, Note_on_c, 0, 70, 49
1, 114055, Note_on_c, 0, 65, 39
1, 114058, Note_on_c, 0, 61, 39
1, 114058, Control_c, 0, 64, 0
1, 114061, Control_c, 0, 64, 0
1, 114103, Control_c, 0, 64, 127
1, 114143, Note_on_c, 0, 73, 65
1, 114235, Note_on_c, 0, 73, 0
1, 114235, Note_on_c, 0, 77, 69
1, 114235, Note_on_c, 0, 61, 0
1, 114238, Note_on_c, 0, 65, 0
1, 114238, Note_on_c, 0, 70, 0
1, 114238, Note_on_c, 0, 53, 43
1, 114326, Note_on_c, 0, 77, 0
1, 114326, Note_on_c, 0, 82, 0
1, 114326, Note_on_c, 0, 80, 80
1, 114417, Note_on_c, 0, 73, 67
1, 114417, Note_on_c, 0, 53, 0
1, 114417, Note_on_c, 0, 66, 43
1, 114420, Note_on_c, 0, 61, 34
1, 114420, Note_on_c, 0, 58, 34
1, 114513, Note_on_c, 0, 73, 0
1, 114513, Note_on_c, 0, 78, 71
1, 114609, Note_on_c, 0, 78, 0
1, 114609, Note_on_c, 0, 80, 0
1, 114609, Note_on_c, 0, 85, 0
1, 114612, Note_on_c, 0, 87, 92
1, 114612, Note_on_c, 0, 58, 0
1, 114612, Note_on_c, 0, 61, 0
1, 114615, Note_on_c, 0, 66, 0
1, 114615, Note_on_c, 0, 45, 49
1, 114615, Control_c, 0, 64, 0
1, 114618, Control_c, 0, 64, 0
1, 114656, Control_c, 0, 64, 127
1, 114702, Note_on_c, 0, 75, 69
1, 114794, Note_on_c, 0, 75, 0
1, 114794, Note_on_c, 0, 78, 72
1, 114794, Note_on_c, 0, 45, 0
1, 114797, Note_on_c, 0, 66, 31
1, 114797, Note_on_c, 0, 73, 36
1, 114797, Note_on_c, 0, 63, 31
1, 114887, Note_on_c, 0, 78, 0
1, 114887, Note_on_c, 0, 85, 85
1, 114894, Control_c, 0, 64, 0
1, 114894, Control_c, 0, 64, 0
1, 114938, Control_c, 0, 64, 127
1, 114979, Note_on_c, 0, 75, 66
1, 114979, Note_on_c, 0, 63, 0
1, 114979, Note_on_c, 0, 73, 0
1, 114982, Note_on_c, 0, 66, 0
1, 114982, Note_on_c, 0, 44, 44
1, 115074, Note_on_c, 0, 75, 0
1, 115074, Note_on_c, 0, 78, 67
1, 115169, Note_on_c, 0, 78, 0
1, 115169, Note_on_c, 0, 85, 0
1, 115169, Note_on_c, 0, 87, 0
1, 115172, Note_on_c, 0, 84, 64
1, 115172, Note_on_c, 0, 87, 83
1, 115172, Note_on_c, 0, 44, 0
1, 115175, Note_on_c, 0, 66, 35
1, 115175, Note_on_c, 0, 72, 42
1, 115175, Note_on_c, 0, 63, 35
1, 115175, Control_c, 0, 64, 0
1, 115175, Control_c, 0, 64, 0
1, 115223, Control_c, 0, 64, 127
1, 115223, Control_c, 0, 64, 127
1, 115261, Note_on_c, 0, 84, 0
1, 115261, Note_on_c, 0, 75, 62
1, 115354, Note_on_c, 0, 75, 0
1, 115354, Note_on_c, 0, 78, 62
1, 115354, Note_on_c, 0, 63, 0
1, 115357, Note_on_c, 0, 72, 0
1, 115357, Note_on_c, 0, 66, 0
1, 115357, Note_on_c, 0, 48, 42
1, 115445, Note_on_c, 0, 78, 0
1, 115445, Note_on_c, 0, 81, 81
1, 115537, Note_on_c, 0, 75, 59
1, 115537, Note_on_c, 0, 48, 0
1, 115537, Note_on_c, 0, 63, 35
1, 115540, Note_on_c, 0, 68, 42
1, 115540, Note_on_c, 0, 66, 35
1, 115635, Note_on_c, 0, 75, 0
1, 115635, Note_on_c, 0, 80, 59
1, 115733, Note_on_c, 0, 80, 0
1, 115733, Note_on_c, 0, 81, 0
1, 115733, Note_on_c, 0, 87, 0
1, 115736, Note_on_c, 0, 89, 88
1, 115736, Note_on_c, 0, 66, 0
1, 115736, Note_on_c, 0, 68, 0
1, 115739, Note_on_c, 0, 63, 0
1, 115739, Note_on_c, 0, 49, 53
1, 115739, Control_c, 0, 64, 0
1, 115742, Control_c, 0, 64, 0
1, 115789, Control_c, 0, 64, 127
1, 115826, Note_on_c, 0, 77, 66
1, 115919, Note_on_c, 0, 77, 0
1, 115919, Note_on_c, 0, 80, 66
1, 115919, Note_on_c, 0, 49, 0
1, 115922, Note_on_c, 0, 75, 39
1, 115922, Note_on_c, 0, 65, 30
1, 115922, Note_on_c, 0, 68, 30
1, 116012, Note_on_c, 0, 80, 0
1, 116012, Note_on_c, 0, 87, 84
1, 116015, Control_c, 0, 64, 0
1, 116019, Control_c, 0, 64, 0
1, 116091, Control_c, 0, 64, 127
1, 116105, Note_on_c, 0, 77, 70
1, 116105, Note_on_c, 0, 68, 0
1, 116105, Note_on_c, 0, 65, 0
1, 116108, Note_on_c, 0, 75, 0
1, 116108, Note_on_c, 0, 53, 45
1, 116197, Note_on_c, 0, 77, 0
1, 116197, Note_on_c, 0, 80, 70
1, 116290, Note_on_c, 0, 80, 0
1, 116290, Note_on_c, 0, 87, 0
1, 116290, Note_on_c, 0, 85, 86
1, 116293, Note_on_c, 0, 53, 0
1, 116293, Note_on_c, 0, 73, 53
1, 116293, Note_on_c, 0, 68, 42
1, 116296, Note_on_c, 0, 65, 42
1, 116296, Control_c, 0, 64, 0
1, 116299, Control_c, 0, 64, 0
1, 116341, Control_c, 0, 64, 127
1, 116382, Note_on_c, 0, 77, 71
1, 116473, Note_on_c, 0, 77, 0
1, 116473, Note_on_c, 0, 80, 75
1, 116473, Note_on_c, 0, 65, 0
1, 116476, Note_on_c, 0, 68, 0
1, 116476, Note_on_c, 0, 73, 0
1, 116476, Note_on_c, 0, 56, 47
1, 116564, Note_on_c, 0, 80, 0
1, 116564, Note_on_c, 0, 85, 0
1, 116564, Note_on_c, 0, 84, 88
1, 116655, Note_on_c, 0, 77, 73
1, 116655, Note_on_c, 0, 56, 0
1, 116655, Note_on_c, 0, 72, 47
1, 116658, Note_on_c, 0, 68, 37
1, 116658, Note_on_c, 0, 65, 37
1, 116751, Note_on_c, 0, 77, 0
1, 116751, Note_on_c, 0, 80, 78
1, 116847, Note_on_c, 0, 80, 0
1, 116847, Note_on_c, 0, 84, 0
1, 116847, Note_on_c, 0, 89, 0
1, 116850, Note_on_c, 0, 89, 101
1, 116850, Note_on_c, 0, 65, 0
1, 116850, Note_on_c, 0, 68, 0
1, 116853, Note_on_c, 0, 72, 0
1, 116853, Note_on_c, 0, 47, 53
1, 116853, Control_c, 0, 64, 0
1, 116856, Control_c, 0, 64, 0
1, 116894, Control_c, 0, 64, 127
1, 116940, Note_on_c, 0, 75, 75
1, 117032, Note_on_c, 0, 75, 0
1, 117032, Note_on_c, 0, 80, 79
1, 117032, Note_on_c, 0, 47, 0
1, 117035, Note_on_c, 0, 65, 34
1, 117035, Note_on_c, 0, 68, 34
1, 117035, Note_on_c, 0, 71, 39
1, 117038, Note_on_c, 0, 63, 34
1, 117125, Note_on_c, 0, 80, 0
1, 117125, Note_on_c, 0, 83, 93
1, 117132, Control_c, 0, 64, 0
1, 117132, Control_c, 0, 64, 0
1, 117176, Control_c, 0, 64, 127
1, 117217, Note_on_c, 0, 75, 72
1, 117217, Note_on_c, 0, 63, 0
1, 117217, Note_on_c, 0, 65, 0
1, 117220, Note_on_c, 0, 68, 0
1, 117220, Note_on_c, 0, 71, 0
1, 117220, Note_on_c, 0, 53, 48
1, 117312, Note_on_c, 0, 75, 0
1, 117312, Note_on_c, 0, 80, 73
1, 117407, Note_on_c, 0, 80, 0
1, 117407, Note_on_c, 0, 83, 0
1, 117407, Note_on_c, 0, 89, 0
1, 117410, Note_on_c, 0, 89, 91
1, 117410, Note_on_c, 0, 53, 0
1, 117410, Note_on_c, 0, 65, 38
1, 117413, Note_on_c, 0, 68, 38
1, 117413, Note_on_c, 0, 71, 46
1, 117413, Note_on_c, 0, 63, 38
1, 117413, Control_c, 0, 64, 0
1, 117413, Control_c, 0, 64, 0
1, 117460, Control_c, 0, 64, 127
1, 117460, Control_c, 0, 64, 127
1, 117499, Note_on_c, 0, 75, 68
1, 117590, Note_on_c, 0, 75, 0
1, 117590, Note_on_c, 0, 80, 68
1, 117590, Note_on_c, 0, 63, 0
1, 117593, Note_on_c, 0, 65, 0
1, 117593, Note_on_c, 0, 68, 0
1, 117593, Note_on_c, 0, 71, 0
1, 117596, Note_on_c, 0, 39, 46
1, 117682, Note_on_c, 0, 80, 0
1, 117682, Note_on_c, 0, 83, 89
1, 117774, Note_on_c, 0, 75, 64
1, 117774, Note_on_c, 0, 39, 0
1, 117774, Note_on_c, 0, 65, 38
1, 117777, Note_on_c, 0, 63, 38
1, 117777, Note_on_c, 0, 71, 46
1, 117777, Note_on_c, 0, 68, 38
1, 117872, Note_on_c, 0, 75, 0
1, 117872, Note_on_c, 0, 80, 64
1, 117970, Note_on_c, 0, 80, 0
1, 117970, Note_on_c, 0, 83, 0
1, 117970, Note_on_c, 0, 89, 0
1, 117973, Note_on_c, 0, 89, 101
1, 117973, Note_on_c, 0, 68, 0
1, 117973, Note_on_c, 0, 65, 0
1, 117976, Note_on_c, 0, 63, 0
1, 117976, Note_on_c, 0, 71, 0
1, 117976, Note_on_c, 0, 46, 53
1, 117979, Control_c, 0, 64, 0
1, 117979, Control_c, 0, 64, 0
1, 118016, Control_c, 0, 64, 127
1, 118061, Note_on_c, 0, 74, 75
1, 118153, Note_on_c, 0, 74, 0
1, 118153, Note_on_c, 0, 82, 79
1, 118153, Note_on_c, 0, 80, 60
1, 118156, Note_on_c, 0, 46, 0
1, 118156, Note_on_c, 0, 65, 34
1, 118156, Note_on_c, 0, 68, 34
1, 118159, Note_on_c, 0, 70, 39
1, 118159, Note_on_c, 0, 62, 34
1, 118245, Note_on_c, 0, 80, 0
1, 118245, Note_on_c, 0, 82, 0
1, 118245, Note_on_c, 0, 89, 0
1, 118248, Note_on_c, 0, 89, 94
1, 118252, Control_c, 0, 64, 0
1, 118252, Control_c, 0, 64, 0
1, 118296, Control_c, 0, 64, 127
1, 118337, Note_on_c, 0, 74, 74
1, 118337, Note_on_c, 0, 62, 0
1, 118337, Note_on_c, 0, 65, 0
1, 118340, Note_on_c, 0, 68, 0
1, 118340, Note_on_c, 0, 70, 0
1, 118340, Note_on_c, 0, 46, 49
1, 118431, Note_on_c, 0, 74, 0
1, 118431, Note_on_c, 0, 82, 75
1, 118431, Note_on_c, 0, 80, 60
1, 118526, Note_on_c, 0, 80, 0
1, 118526, Note_on_c, 0, 82, 0
1, 118526, Note_on_c, 0, 89, 0
1, 118529, Note_on_c, 0, 90, 95
1, 118529, Note_on_c, 0, 46, 0
1, 118529, Note_on_c, 0, 66, 39
1, 118532, Note_on_c, 0, 68, 39
1, 118532, Note_on_c, 0, 70, 48
1, 118532, Note_on_c, 0, 62, 39
1, 118532, Control_c, 0, 64, 0
1, 118535, Control_c, 0, 64, 0
1, 118582, Control_c, 0, 64, 127
1, 118582, Control_c, 0, 64, 127
1, 118622, Note_on_c, 0, 74, 71
1, 118718, Note_on_c, 0, 74, 0
1, 118718, Note_on_c, 0, 82, 72
1, 118718, Note_on_c, 0, 80, 60
1, 118721, Note_on_c, 0, 62, 0
1, 118721, Note_on_c, 0, 66, 0
1, 118721, Note_on_c, 0, 68, 0
1, 118724, Note_on_c, 0, 70, 0
1, 118724, Note_on_c, 0, 46, 48
1, 118818, Note_on_c, 0, 80, 0
1, 118818, Note_on_c, 0, 82, 0
1, 118818, Note_on_c, 0, 90, 0
1, 118821, Note_on_c, 0, 90, 95
1, 118919, Note_on_c, 0, 90, 0
1, 118919, Note_on_c, 0, 74, 69
1, 118919, Note_on_c, 0, 46, 0
1, 118922, Note_on_c, 0, 66, 41
1, 118922, Note_on_c, 0, 62, 41
1, 118922, Note_on_c, 0, 70, 49
1, 118925, Note_on_c, 0, 68, 41
1, 119026, Note_on_c, 0, 74, 0
1, 119026, Note_on_c, 0, 82, 69
1, 119026, Note_on_c, 0, 80, 60
1, 119133, Note_on_c, 0, 80, 0
1, 119133, Note_on_c, 0, 82, 0
1, 119133, Note_on_c, 0, 79, 84
1, 119136, Note_on_c, 0, 91, 100
1, 119136, Note_on_c, 0, 68, 0
1, 119136, Note_on_c, 0, 66, 0
1, 119139, Note_on_c, 0, 62, 0
1, 119139, Note_on_c, 0, 70, 0
1, 119139, Note_on_c, 0, 51, 53
1, 119142, Note_on_c, 0, 39, 53
1, 119142, Control_c, 0, 64, 0
1, 119227, Note_on_c, 0, 91, 0
1, 119227, Note_on_c, 0, 82, 66
1, 119233, Control_c, 0, 64, 127
1, 119274, Note_on_c, 0, 55, 35
1, 119274, Note_on_c, 0, 58, 35
1, 119274, Note_on_c, 0, 67, 51
1, 119321, Note_on_c, 0, 82, 0
1, 119321, Note_on_c, 0, 87, 66
1, 119416, Note_on_c, 0, 87, 0
1, 119416, Note_on_c, 0, 79, 0
1, 119416, Note_on_c, 0, 77, 75
1, 119419, Note_on_c, 0, 89, 90
1, 119419, Note_on_c, 0, 39, 0
1, 119419, Note_on_c, 0, 51, 0
1, 119422, Control_c, 0, 64, 0
1, 119460, Control_c, 0, 64, 127
1, 119510, Note_on_c, 0, 89, 0
1, 119510, Note_on_c, 0, 79, 61
1, 119557, Note_on_c, 0, 58, 0
1, 119557, Note_on_c, 0, 55, 0
1, 119557, Note_on_c, 0, 67, 0
1, 119560, Note_on_c, 0, 55, 48
1, 119560, Note_on_c, 0, 58, 48
1, 119560, Note_on_c, 0, 65, 70
1, 119605, Note_on_c, 0, 79, 0
1, 119605, Note_on_c, 0, 82, 61
1, 119699, Note_on_c, 0, 82, 0
1, 119699, Note_on_c, 0, 77, 0
1, 119699, Note_on_c, 0, 75, 74
1, 119702, Note_on_c, 0, 87, 89
1, 119707, Control_c, 0, 64, 0
1, 119750, Control_c, 0, 64, 127
1, 119791, Note_on_c, 0, 87, 0
1, 119791, Note_on_c, 0, 79, 59
1, 119837, Note_on_c, 0, 65, 0
1, 119837, Note_on_c, 0, 58, 0
1, 119837, Note_on_c, 0, 55, 0
1, 119840, Note_on_c, 0, 55, 42
1, 119840, Note_on_c, 0, 58, 42
1, 119840, Note_on_c, 0, 63, 61
1, 119883, Note_on_c, 0, 79, 0
1, 119883, Note_on_c, 0, 82, 61
1, 119975, Note_on_c, 0, 82, 0
1, 119975, Note_on_c, 0, 75, 0
1, 119975, Note_on_c, 0, 74, 75
1, 119978, Note_on_c, 0, 86, 90
1, 120067, Note_on_c, 0, 86, 0
1, 120067, Note_on_c, 0, 79, 61
1, 120115, Note_on_c, 0, 63, 0
1, 120115, Note_on_c, 0, 55, 0
1, 120115, Note_on_c, 0, 55, 42
1, 120118, Note_on_c, 0, 58, 42
1, 120118, Note_on_c, 0, 62, 61
1, 120122, Note_on_c, 0, 58, 0
1, 120163, Note_on_c, 0, 79, 0
1, 120163, Note_on_c, 0, 82, 61
1, 120259, Note_on_c, 0, 82, 0
1, 120259, Note_on_c, 0, 74, 0
1, 120259, Note_on_c, 0, 72, 74
1, 120262, Note_on_c, 0, 84, 94
1, 120262, Note_on_c, 0, 55, 0
1, 120262, Note_on_c, 0, 58, 0
1, 120265, Note_on_c, 0, 62, 0
1, 120265, Note_on_c, 0, 39, 53
1, 120265, Note_on_c, 0, 51, 53
1, 120268, Control_c, 0, 64, 0
1, 120305, Control_c, 0, 64, 127
1, 120352, Note_on_c, 0, 84, 0
1, 120352, Note_on_c, 0, 75, 66
1, 120398, Note_on_c, 0, 51, 38
1, 120398, Note_on_c, 0, 55, 38
1, 120398, Note_on_c, 0, 60, 51
1, 120444, Note_on_c, 0, 75, 0
1, 120444, Note_on_c, 0, 79, 66
1, 120537, Note_on_c, 0, 79, 0
1, 120537, Note_on_c, 0, 72, 0
1, 120537, Note_on_c, 0, 69, 74
1, 120540, Note_on_c, 0, 81, 88
1, 120540, Note_on_c, 0, 51, 0
1, 120540, Note_on_c, 0, 39, 0
1, 120543, Control_c, 0, 64, 0
1, 120588, Control_c, 0, 64, 127
1, 120629, Note_on_c, 0, 81, 0
1, 120629, Note_on_c, 0, 75, 59
1, 120676, Note_on_c, 0, 55, 0
1, 120676, Note_on_c, 0, 51, 0
1, 120676, Note_on_c, 0, 60, 0
1, 120679, Note_on_c, 0, 51, 44
1, 120679, Note_on_c, 0, 55, 44
1, 120679, Note_on_c, 0, 57, 60
1, 120724, Note_on_c, 0, 75, 0
1, 120724, Note_on_c, 0, 79, 59
1, 120819, Note_on_c, 0, 79, 0
1, 120819, Note_on_c, 0, 69, 0
1, 120819, Note_on_c, 0, 70, 78
1, 120822, Note_on_c, 0, 82, 92
1, 120827, Control_c, 0, 64, 0
1, 120872, Control_c, 0, 64, 127
1, 120911, Note_on_c, 0, 82, 0
1, 120911, Note_on_c, 0, 75, 63
1, 120957, Note_on_c, 0, 57, 0
1, 120957, Note_on_c, 0, 55, 0
1, 120957, Note_on_c, 0, 51, 0
1, 120960, Note_on_c, 0, 51, 44
1, 120960, Note_on_c, 0, 55, 44
1, 120960, Note_on_c, 0, 58, 60
1, 121003, Note_on_c, 0, 75, 0
1, 121003, Note_on_c, 0, 79, 63
1, 121095, Note_on_c, 0, 79, 0
1, 121095, Note_on_c, 0, 70, 0
1, 121095, Note_on_c, 0, 79, 82
1, 121098, Note_on_c, 0, 91, 97
1, 121188, Note_on_c, 0, 79, 0
1, 121188, Note_on_c, 0, 82, 59
1, 121237, Note_on_c, 0, 58, 0
1, 121237, Note_on_c, 0, 55, 0
1, 121237, Note_on_c, 0, 51, 0
1, 121240, Note_on_c, 0, 55, 48
1, 121240, Note_on_c, 0, 58, 48
1, 121240, Note_on_c, 0, 63, 48
1, 121243, Note_on_c, 0, 67, 61
1, 121286, Note_on_c, 0, 82, 0
1, 121286, Note_on_c, 0, 87, 59
1, 121384, Note_on_c, 0, 87, 0
1, 121384, Note_on_c, 0, 91, 0
1, 121384, Note_on_c, 0, 79, 82
1, 121387, Note_on_c, 0, 91, 97
1, 121387, Note_on_c, 0, 67, 0
1, 121387, Note_on_c, 0, 55, 0
1, 121390, Note_on_c, 0, 58, 0
1, 121390, Note_on_c, 0, 63, 0
1, 121390, Note_on_c, 0, 51, 53
1, 121393, Note_on_c, 0, 39, 53
1, 121393, Control_c, 0, 64, 0
1, 121439, Control_c, 0, 64, 127
1, 121477, Note_on_c, 0, 79, 0
1, 121477, Note_on_c, 0, 83, 66
1, 121523, Note_on_c, 0, 62, 35
1, 121523, Note_on_c, 0, 56, 35
1, 121523, Note_on_c, 0, 59, 35
1, 121526, Note_on_c, 0, 67, 51
1, 121569, Note_on_c, 0, 83, 0
1, 121569, Note_on_c, 0, 86, 66
1, 121662, Note_on_c, 0, 86, 0
1, 121662, Note_on_c, 0, 91, 0
1, 121662, Note_on_c, 0, 76, 77
1, 121665, Note_on_c, 0, 88, 91
1, 121665, Note_on_c, 0, 39, 0
1, 121665, Note_on_c, 0, 51, 0
1, 121669, Control_c, 0, 64, 0
1, 121713, Control_c, 0, 64, 127
1, 121755, Note_on_c, 0, 76, 0
1, 121755, Note_on_c, 0, 83, 62
1, 121800, Note_on_c, 0, 59, 0
1, 121800, Note_on_c, 0, 56, 0
1, 121800, Note_on_c, 0, 67, 0
1, 121803, Note_on_c, 0, 62, 0
1, 121803, Note_on_c, 0, 62, 48
1, 121803, Note_on_c, 0, 56, 48
1, 121806, Note_on_c, 0, 59, 48
1, 121806, Note_on_c, 0, 64, 70
1, 121845, Note_on_c, 0, 83, 0
1, 121845, Note_on_c, 0, 86, 62
1, 121935, Note_on_c, 0, 86, 0
1, 121935, Note_on_c, 0, 88, 0
1, 121935, Note_on_c, 0, 77, 84
1, 121938, Note_on_c, 0, 89, 100
1, 121944, Control_c, 0, 64, 0
1, 121978, Control_c, 0, 64, 127
1, 122026, Note_on_c, 0, 77, 0
1, 122026, Note_on_c, 0, 83, 62
1, 122071, Note_on_c, 0, 64, 0
1, 122071, Note_on_c, 0, 62, 0
1, 122071, Note_on_c, 0, 56, 0
1, 122074, Note_on_c, 0, 59, 0
1, 122074, Note_on_c, 0, 62, 42
1, 122074, Note_on_c, 0, 56, 42
1, 122077, Note_on_c, 0, 59, 42
1, 122077, Note_on_c, 0, 65, 61
1, 122116, Note_on_c, 0, 83, 0
1, 122116, Note_on_c, 0, 86, 62
1, 122206, Note_on_c, 0, 86, 0
1, 122206, Note_on_c, 0, 89, 0
1, 122206, Note_on_c, 0, 79, 89
1, 122209, Note_on_c, 0, 91, 105
1, 122296, Note_on_c, 0, 79, 0
1, 122296, Note_on_c, 0, 83, 68
1, 122345, Note_on_c, 0, 65, 0
1, 122345, Note_on_c, 0, 62, 0
1, 122345, Note_on_c, 0, 56, 0
1, 122348, Note_on_c, 0, 62, 42
1, 122348, Note_on_c, 0, 56, 42
1, 122348, Note_on_c, 0, 59, 42
1, 122351, Note_on_c, 0, 67, 61
1, 122351, Note_on_c, 0, 59, 0
1, 122394, Note_on_c, 0, 83, 0
1, 122394, Note_on_c, 0, 86, 70
1, 122491, Note_on_c, 0, 86, 0
1, 122491, Note_on_c, 0, 91, 0
1, 122491, Note_on_c, 0, 80, 91
1, 122494, Note_on_c, 0, 92, 107
1, 122494, Note_on_c, 0, 59, 0
1, 122494, Note_on_c, 0, 62, 0
1, 122497, Note_on_c, 0, 56, 0
1, 122497, Note_on_c, 0, 67, 0
1, 122497, Note_on_c, 0, 39, 53
1, 122500, Note_on_c, 0, 51, 53
1, 122500, Control_c, 0, 64, 0
1, 122533, Control_c, 0, 64, 127
1, 122581, Note_on_c, 0, 80, 0
1, 122581, Note_on_c, 0, 86, 77
1, 122626, Note_on_c, 0, 59, 38
1, 122626, Note_on_c, 0, 62, 38
1, 122626, Note_on_c, 0, 65, 38
1, 122629, Note_on_c, 0, 68, 51
1, 122671, Note_on_c, 0, 86, 0
1, 122671, Note_on_c, 0, 89, 77
1, 122766, Note_on_c, 0, 89, 0
1, 122766, Note_on_c, 0, 92, 0
1, 122766, Note_on_c, 0, 81, 92
1, 122769, Note_on_c, 0, 93, 105
1, 122769, Note_on_c, 0, 51, 0
1, 122769, Note_on_c, 0, 39, 0
1, 122774, Control_c, 0, 64, 0
1, 122815, Control_c, 0, 64, 127
1, 122860, Note_on_c, 0, 81, 0
1, 122860, Note_on_c, 0, 86, 75
1, 122915, Note_on_c, 0, 65, 0
1, 122915, Note_on_c, 0, 62, 0
1, 122915, Note_on_c, 0, 68, 0
1, 122918, Note_on_c, 0, 59, 0
1, 122918, Note_on_c, 0, 59, 44
1, 122918, Note_on_c, 0, 62, 44
1, 122921, Note_on_c, 0, 65, 44
1, 122921, Note_on_c, 0, 69, 60
1, 122971, Note_on_c, 0, 86, 0
1, 122971, Note_on_c, 0, 89, 84
1, 123081, Note_on_c, 0, 89, 0
1, 123081, Note_on_c, 0, 93, 0
1, 123081, Note_on_c, 0, 84, 99
1, 123084, Note_on_c, 0, 96, 111
1, 123089, Control_c, 0, 64, 0
1, 123138, Control_c, 0, 64, 127
1, 123179, Note_on_c, 0, 84, 0
1, 123179, Note_on_c, 0, 86, 80
1, 123227, Note_on_c, 0, 69, 0
1, 123227, Note_on_c, 0, 59, 0
1, 123227, Note_on_c, 0, 62, 0
1, 123230, Note_on_c, 0, 65, 0
1, 123230, Note_on_c, 0, 58, 44
1, 123230, Note_on_c, 0, 62, 44
1, 123233, Note_on_c, 0, 65, 44
1, 123233, Note_on_c, 0, 68, 44
1, 123233, Note_on_c, 0, 72, 60
1, 123276, Note_on_c, 0, 86, 0
1, 123276, Note_on_c, 0, 89, 77
1, 123368, Note_on_c, 0, 89, 0
1, 123368, Note_on_c, 0, 96, 0
1, 123368, Note_on_c, 0, 82, 85
1, 123371, Note_on_c, 0, 94, 101
1, 123376, Control_c, 0, 64, 0
1, 123399, Control_c, 0, 64, 127
1, 123460, Note_on_c, 0, 82, 0
1, 123460, Note_on_c, 0, 86, 63
1, 123508, Note_on_c, 0, 72, 0
1, 123508, Note_on_c, 0, 65, 0
1, 123508, Note_on_c, 0, 58, 0
1, 123511, Note_on_c, 0, 62, 0
1, 123511, Note_on_c, 0, 68, 0
1, 123511, Note_on_c, 0, 62, 48
1, 123514, Note_on_c, 0, 58, 48
1, 123514, Note_on_c, 0, 65, 48
1, 123514, Note_on_c, 0, 68, 48
1, 123517, Note_on_c, 0, 70, 61
1, 123556, Note_on_c, 0, 86, 0
1, 123556, Note_on_c, 0, 89, 63
1, 123651, Note_on_c, 0, 89, 0
1, 123651, Note_on_c, 0, 94, 0
1, 123651, Note_on_c, 0, 79, 84
1, 123654, Note_on_c, 0, 91, 100
1, 123654, Note_on_c, 0, 70, 0
1, 123654, Note_on_c, 0, 65, 0
1, 123657, Note_on_c, 0, 62, 0
1, 123657, Note_on_c, 0, 58, 0
1, 123657, Note_on_c, 0, 68, 0
1, 123660, Note_on_c, 0, 51, 53
1, 123660, Note_on_c, 0, 39, 53
1, 123660, Control_c, 0, 64, 0
1, 123744, Note_on_c, 0, 91, 0
1, 123744, Note_on_c, 0, 82, 66
1, 123749, Control_c, 0, 64, 127
1, 123790, Note_on_c, 0, 55, 35
1, 123790, Note_on_c, 0, 58, 35
1, 123790, Note_on_c, 0, 67, 51
1, 123837, Note_on_c, 0, 82, 0
1, 123837, Note_on_c, 0, 87, 66
1, 123930, Note_on_c, 0, 87, 0
1, 123930, Note_on_c, 0, 79, 0
1, 123930, Note_on_c, 0, 77, 75
1, 123933, Note_on_c, 0, 89, 90
1, 123933, Note_on_c, 0, 39, 0
1, 123933, Note_on_c, 0, 51, 0
1, 123936, Control_c, 0, 64, 0
1, 123973, Control_c, 0, 64, 127
1, 124022, Note_on_c, 0, 89, 0
1, 124022, Note_on_c, 0, 79, 61
1, 124069, Note_on_c, 0, 58, 0
1, 124069, Note_on_c, 0, 55, 0
1, 124069, Note_on_c, 0, 67, 0
1, 124072, Note_on_c, 0, 55, 48
1, 124072, Note_on_c, 0, 58, 48
1, 124072, Note_on_c, 0, 65, 70
1, 124115, Note_on_c, 0, 79, 0
1, 124115, Note_on_c, 0, 82, 61
1, 124208, Note_on_c, 0, 82, 0
1, 124208, Note_on_c, 0, 77, 0
1, 124208, Note_on_c, 0, 75, 74
1, 124211, Note_on_c, 0, 87, 89
1, 124216, Control_c, 0, 64, 0
1, 124259, Control_c, 0, 64, 127
1, 124299, Note_on_c, 0, 87, 0
1, 124299, Note_on_c, 0, 79, 59
1, 124345, Note_on_c, 0, 65, 0
1, 124345, Note_on_c, 0, 58, 0
1, 124345, Note_on_c, 0, 55, 0
1, 124348, Note_on_c, 0, 55, 42
1, 124348, Note_on_c, 0, 58, 42
1, 124348, Note_on_c, 0, 63, 61
1, 124391, Note_on_c, 0, 79, 0
1, 124391, Note_on_c, 0, 82, 61
1, 124481, Note_on_c, 0, 82, 0
1, 124481, Note_on_c, 0, 75, 0
1, 124481, Note_on_c, 0, 74, 75
1, 124484, Note_on_c, 0, 86, 90
1, 124571, Note_on_c, 0, 86, 0
1, 124571, Note_on_c, 0, 79, 61
1, 124619, Note_on_c, 0, 63, 0
1, 124619, Note_on_c, 0, 55, 0
1, 124619, Note_on_c, 0, 55, 42
1, 124622, Note_on_c, 0, 58, 42
1, 124622, Note_on_c, 0, 62, 61
1, 124626, Note_on_c, 0, 58, 0
1, 124667, Note_on_c, 0, 79, 0
1, 124667, Note_on_c, 0, 82, 61
1, 124763, Note_on_c, 0, 82, 0
1, 124763, Note_on_c, 0, 74, 0
1, 124763, Note_on_c, 0, 72, 74
1, 124766, Note_on_c, 0, 84, 94
1, 124766, Note_on_c, 0, 55, 0
1, 124766, Note_on_c, 0, 58, 0
1, 124769, Note_on_c, 0, 62, 0
1, 124769, Note_on_c, 0, 39, 53
1, 124769, Note_on_c, 0, 51, 53
1, 124772, Control_c, 0, 64, 0
1, 124809, Control_c, 0, 64, 127
1, 124856, Note_on_c, 0, 84, 0
1, 124856, Note_on_c, 0, 75, 66
1, 124902, Note_on_c, 0, 51, 38
1, 124902, Note_on_c, 0, 55, 38
1, 124902, Note_on_c, 0, 60, 51
1, 124948, Note_on_c, 0, 75, 0
1, 124948, Note_on_c, 0, 79, 66
1, 125041, Note_on_c, 0, 79, 0
1, 125041, Note_on_c, 0, 72, 0
1, 125041, Note_on_c, 0, 69, 74
1, 125044, Note_on_c, 0, 81, 88
1, 125044, Note_on_c, 0, 51, 0
1, 125044, Note_on_c, 0, 39, 0
1, 125047, Control_c, 0, 64, 0
1, 125092, Control_c, 0, 64, 127
1, 125133, Note_on_c, 0, 81, 0
1, 125133, Note_on_c, 0, 75, 59
1, 125180, Note_on_c, 0, 55, 0
1, 125180, Note_on_c, 0, 51, 0
1, 125180, Note_on_c, 0, 60, 0
1, 125183, Note_on_c, 0, 51, 44
1, 125183, Note_on_c, 0, 55, 44
1, 125183, Note_on_c, 0, 57, 60
1, 125228, Note_on_c, 0, 75, 0
1, 125228, Note_on_c, 0, 79, 59
1, 125323, Note_on_c, 0, 79, 0
1, 125323, Note_on_c, 0, 69, 0
1, 125323, Note_on_c, 0, 70, 78
1, 125326, Note_on_c, 0, 82, 92
1, 125331, Control_c, 0, 64, 0
1, 125376, Control_c, 0, 64, 127
1, 125414, Note_on_c, 0, 82, 0
1, 125414, Note_on_c, 0, 75, 63
1, 125460, Note_on_c, 0, 57, 0
1, 125460, Note_on_c, 0, 55, 0
1, 125460, Note_on_c, 0, 51, 0
1, 125463, Note_on_c, 0, 51, 44
1, 125463, Note_on_c, 0, 55, 44
1, 125463, Note_on_c, 0, 58, 60
1, 125506, Note_on_c, 0, 75, 0
1, 125506, Note_on_c, 0, 79, 63
1, 125598, Note_on_c, 0, 79, 0
1, 125598, Note_on_c, 0, 70, 0
1, 125598, Note_on_c, 0, 79, 82
1, 125601, Note_on_c, 0, 91, 97
1, 125689, Note_on_c, 0, 91, 0
1, 125689, Note_on_c, 0, 79, 0
1, 125689, Note_on_c, 0, 82, 59
1, 125738, Note_on_c, 0, 58, 0
1, 125738, Note_on_c, 0, 55, 0
1, 125738, Note_on_c, 0, 51, 0
1, 125741, Note_on_c, 0, 55, 48
1, 125741, Note_on_c, 0, 58, 48
1, 125741, Note_on_c, 0, 63, 48
1, 125744, Note_on_c, 0, 67, 61
1, 125787, Note_on_c, 0, 82, 0
1, 125787, Note_on_c, 0, 87, 59
1, 125886, Note_on_c, 0, 87, 0
1, 125886, Note_on_c, 0, 79, 82
1, 125886, Note_on_c, 0, 91, 97
1, 125889, Note_on_c, 0, 67, 0
1, 125889, Note_on_c, 0, 55, 0
1, 125889, Note_on_c, 0, 58, 0
1, 125892, Note_on_c, 0, 63, 0
1, 125892, Note_on_c, 0, 50, 53
1, 125892, Note_on_c, 0, 38, 53
1, 125895, Control_c, 0, 64, 0
1, 125941, Control_c, 0, 64, 127
1, 125978, Note_on_c, 0, 79, 0
1, 125978, Note_on_c, 0, 81, 66
1, 126025, Note_on_c, 0, 57, 35
1, 126025, Note_on_c, 0, 60, 35
1, 126025, Note_on_c, 0, 67, 51
1, 126071, Note_on_c, 0, 81, 0
1, 126071, Note_on_c, 0, 84, 66
1, 126164, Note_on_c, 0, 84, 0
1, 126164, Note_on_c, 0, 91, 0
1, 126164, Note_on_c, 0, 78, 77
1, 126167, Note_on_c, 0, 90, 91
1, 126167, Note_on_c, 0, 38, 0
1, 126167, Note_on_c, 0, 50, 0
1, 126171, Control_c, 0, 64, 0
1, 126215, Control_c, 0, 64, 127
1, 126257, Note_on_c, 0, 78, 0
1, 126257, Note_on_c, 0, 81, 71
1, 126308, Note_on_c, 0, 60, 0
1, 126308, Note_on_c, 0, 57, 0
1, 126308, Note_on_c, 0, 67, 0
1, 126311, Note_on_c, 0, 57, 48
1, 126311, Note_on_c, 0, 60, 48
1, 126311, Note_on_c, 0, 66, 70
1, 126360, Note_on_c, 0, 81, 0
1, 126360, Note_on_c, 0, 84, 72
1, 126463, Note_on_c, 0, 84, 0
1, 126463, Note_on_c, 0, 90, 0
1, 126463, Note_on_c, 0, 87, 99
1, 126466, Note_on_c, 0, 99, 112
1, 126471, Control_c, 0, 64, 0
1, 126506, Control_c, 0, 64, 127
1, 126554, Note_on_c, 0, 87, 0
1, 126554, Note_on_c, 0, 90, 75
1, 126600, Note_on_c, 0, 66, 0
1, 126600, Note_on_c, 0, 60, 0
1, 126600, Note_on_c, 0, 57, 0
1, 126603, Note_on_c, 0, 66, 42
1, 126603, Note_on_c, 0, 69, 42
1, 126603, Note_on_c, 0, 75, 61
1, 126646, Note_on_c, 0, 90, 0
1, 126646, Note_on_c, 0, 93, 75
1, 126737, Note_on_c, 0, 93, 0
1, 126737, Note_on_c, 0, 99, 0
1, 126737, Note_on_c, 0, 86, 92
1, 126740, Note_on_c, 0, 98, 107
1, 126828, Note_on_c, 0, 86, 0
1, 126828, Note_on_c, 0, 90, 75
1, 126877, Note_on_c, 0, 75, 0
1, 126877, Note_on_c, 0, 66, 0
1, 126877, Note_on_c, 0, 66, 42
1, 126880, Note_on_c, 0, 69, 42
1, 126880, Note_on_c, 0, 74, 61
1, 126884, Note_on_c, 0, 69, 0
1, 126925, Note_on_c, 0, 90, 0
1, 126925, Note_on_c, 0, 93, 75
1, 127023, Note_on_c, 0, 93, 0
1, 127023, Note_on_c, 0, 98, 0
1, 127023, Note_on_c, 0, 86, 91
1, 127026, Note_on_c, 0, 98, 106
1, 127026, Note_on_c, 0, 66, 0
1, 127026, Note_on_c, 0, 69, 0
1, 127029, Note_on_c, 0, 74, 0
1, 127029, Note_on_c, 0, 43, 53
1, 127029, Note_on_c, 0, 55, 53
1, 127032, Control_c, 0, 64, 0
1, 127065, Control_c, 0, 64, 127
1, 127114, Note_on_c, 0, 86, 0
1, 127114, Note_on_c, 0, 91, 77
1, 127159, Note_on_c, 0, 67, 38
1, 127159, Note_on_c, 0, 71, 38
1, 127159, Note_on_c, 0, 74, 51
1, 127205, Note_on_c, 0, 91, 0
1, 127205, Note_on_c, 0, 95, 77
1, 127299, Note_on_c, 0, 95, 0
1, 127299, Note_on_c, 0, 98, 0
1, 127299, Note_on_c, 0, 83, 88
1, 127302, Note_on_c, 0, 95, 102
1, 127302, Note_on_c, 0, 55, 0
1, 127302, Note_on_c, 0, 43, 0
1, 127307, Control_c, 0, 64, 0
1, 127349, Control_c, 0, 64, 127
1, 127393, Note_on_c, 0, 83, 0
1, 127393, Note_on_c, 0, 86, 75
1, 127441, Note_on_c, 0, 71, 0
1, 127441, Note_on_c, 0, 67, 0
1, 127441, Note_on_c, 0, 74, 0
1, 127444, Note_on_c, 0, 62, 44
1, 127444, Note_on_c, 0, 67, 44
1, 127444, Note_on_c, 0, 71, 60
1, 127489, Note_on_c, 0, 86, 0
1, 127489, Note_on_c, 0, 91, 73
1, 127585, Note_on_c, 0, 91, 0
1, 127585, Note_on_c, 0, 95, 0
1, 127585, Note_on_c, 0, 79, 78
1, 127588, Note_on_c, 0, 91, 93
1, 127593, Control_c, 0, 64, 0
1, 127642, Control_c, 0, 64, 127
1, 127683, Note_on_c, 0, 79, 0
1, 127683, Note_on_c, 0, 83, 71
1, 127731, Note_on_c, 0, 71, 0
1, 127731, Note_on_c, 0, 67, 0
1, 127731, Note_on_c, 0, 62, 0
1, 127734, Note_on_c, 0, 59, 42
1, 127734, Note_on_c, 0, 62, 42
1, 127734, Note_on_c, 0, 67, 57
1, 127780, Note_on_c, 0, 83, 0
1, 127780, Note_on_c, 0, 86, 70
1, 127872, Note_on_c, 0, 86, 0
1, 127872, Note_on_c, 0, 91, 0
1, 127872, Note_on_c, 0, 79, 72
1, 127875, Note_on_c, 0, 91, 100
1, 127880, Control_c, 0, 64, 0
1, 127903, Control_c, 0, 64, 127
1, 127964, Note_on_c, 0, 79, 0
1, 127964, Note_on_c, 0, 83, 65
1, 128012, Note_on_c, 0, 67, 0
1, 128012, Note_on_c, 0, 62, 0
1, 128012, Note_on_c, 0, 59, 0
1, 128015, Note_on_c, 0, 55, 46
1, 128015, Note_on_c, 0, 59, 46
1, 128015, Note_on_c, 0, 62, 46
1, 128018, Note_on_c, 0, 67, 58
1, 128060, Note_on_c, 0, 83, 0
1, 128060, Note_on_c, 0, 86, 66
1, 128155, Note_on_c, 0, 86, 0
1, 128155, Note_on_c, 0, 91, 0
1, 128155, Note_on_c, 0, 80, 83
1, 128158, Note_on_c, 0, 92, 98
1, 128158, Note_on_c, 0, 67, 0
1, 128158, Note_on_c, 0, 55, 0
1, 128161, Note_on_c, 0, 59, 0
1, 128161, Note_on_c, 0, 62, 0
1, 128161, Note_on_c, 0, 43, 49
1, 128164, Control_c, 0, 64, 0
1, 128198, Control_c, 0, 64, 127
1, 128246, Note_on_c, 0, 80, 0
1, 128246, Note_on_c, 0, 84, 70
1, 128292, Note_on_c, 0, 60, 35
1, 128292, Note_on_c, 0, 63, 35
1, 128292, Note_on_c, 0, 68, 47
1, 128337, Note_on_c, 0, 84, 0
1, 128337, Note_on_c, 0, 87, 70
1, 128430, Note_on_c, 0, 87, 0
1, 128430, Note_on_c, 0, 92, 0
1, 128430, Note_on_c, 0, 79, 80
1, 128433, Note_on_c, 0, 91, 95
1, 128433, Note_on_c, 0, 43, 0
1, 128438, Control_c, 0, 64, 0
1, 128479, Control_c, 0, 64, 127
1, 128523, Note_on_c, 0, 79, 0
1, 128523, Note_on_c, 0, 84, 69
1, 128571, Note_on_c, 0, 60, 0
1, 128571, Note_on_c, 0, 63, 0
1, 128571, Note_on_c, 0, 68, 0
1, 128574, Note_on_c, 0, 60, 40
1, 128574, Note_on_c, 0, 63, 40
1, 128574, Note_on_c, 0, 67, 55
1, 128619, Note_on_c, 0, 84, 0
1, 128619, Note_on_c, 0, 87, 67
1, 128715, Note_on_c, 0, 87, 0
1, 128715, Note_on_c, 0, 91, 0
1, 128715, Note_on_c, 0, 77, 75
1, 128718, Note_on_c, 0, 89, 89
1, 128723, Control_c, 0, 64, 0
1, 128771, Control_c, 0, 64, 127
1, 128812, Note_on_c, 0, 77, 0
1, 128812, Note_on_c, 0, 79, 67
1, 128861, Note_on_c, 0, 67, 0
1, 128861, Note_on_c, 0, 63, 0
1, 128861, Note_on_c, 0, 60, 0
1, 128864, Note_on_c, 0, 55, 40
1, 128864, Note_on_c, 0, 60, 40
1, 128864, Note_on_c, 0, 65, 55
1, 128909, Note_on_c, 0, 79, 0
1, 128909, Note_on_c, 0, 84, 65
1, 129001, Note_on_c, 0, 84, 0
1, 129001, Note_on_c, 0, 89, 0
1, 129001, Note_on_c, 0, 75, 66
1, 129004, Note_on_c, 0, 87, 92
1, 129009, Control_c, 0, 64, 0
1, 129032, Control_c, 0, 64, 127
1, 129093, Note_on_c, 0, 75, 0
1, 129093, Note_on_c, 0, 79, 58
1, 129141, Note_on_c, 0, 65, 0
1, 129141, Note_on_c, 0, 60, 0
1, 129141, Note_on_c, 0, 55, 0
1, 129144, Note_on_c, 0, 55, 44
1, 129144, Note_on_c, 0, 60, 44
1, 129144, Note_on_c, 0, 63, 56
1, 129189, Note_on_c, 0, 79, 0
1, 129189, Note_on_c, 0, 84, 58
1, 129285, Note_on_c, 0, 84, 0
1, 129285, Note_on_c, 0, 87, 0
1, 129285, Note_on_c, 0, 75, 74
1, 129288, Note_on_c, 0, 87, 88
1, 129288, Note_on_c, 0, 63, 0
1, 129288, Note_on_c, 0, 60, 0
1, 129291, Note_on_c, 0, 55, 0
1, 129291, Note_on_c, 0, 41, 44
1, 129291, Control_c, 0, 64, 0
1, 129327, Control_c, 0, 64, 127
1, 129375, Note_on_c, 0, 75, 0
1, 129375, Note_on_c, 0, 80, 63
1, 129421, Note_on_c, 0, 53, 31
1, 129421, Note_on_c, 0, 56, 31
1, 129421, Note_on_c, 0, 60, 31
1, 129424, Note_on_c, 0, 63, 42
1, 129466, Note_on_c, 0, 80, 0
1, 129466, Note_on_c, 0, 84, 63
1, 129561, Note_on_c, 0, 84, 0
1, 129561, Note_on_c, 0, 87, 0
1, 129561, Note_on_c, 0, 74, 72
1, 129564, Note_on_c, 0, 86, 85
1, 129564, Note_on_c, 0, 41, 0
1, 129569, Control_c, 0, 64, 0
1, 129610, Control_c, 0, 64, 127
1, 129655, Note_on_c, 0, 74, 0
1, 129655, Note_on_c, 0, 80, 62
1, 129703, Note_on_c, 0, 60, 0
1, 129703, Note_on_c, 0, 53, 0
1, 129703, Note_on_c, 0, 56, 0
1, 129706, Note_on_c, 0, 63, 0
1, 129706, Note_on_c, 0, 60, 36
1, 129706, Note_on_c, 0, 53, 36
1, 129709, Note_on_c, 0, 56, 36
1, 129709, Note_on_c, 0, 62, 49
1, 129751, Note_on_c, 0, 80, 0
1, 129751, Note_on_c, 0, 84, 60
1, 129847, Note_on_c, 0, 84, 0
1, 129847, Note_on_c, 0, 86, 0
1, 129847, Note_on_c, 0, 74, 67
1, 129850, Note_on_c, 0, 86, 80
1, 129855, Control_c, 0, 64, 0
1, 129904, Control_c, 0, 64, 127
1, 129944, Note_on_c, 0, 74, 0
1, 129944, Note_on_c, 0, 80, 60
1, 129993, Note_on_c, 0, 62, 0
1, 129993, Note_on_c, 0, 60, 0
1, 129993, Note_on_c, 0, 53, 0
1, 129996, Note_on_c, 0, 56, 0
1, 129996, Note_on_c, 0, 56, 36
1, 129996, Note_on_c, 0, 60, 36
1, 129999, Note_on_c, 0, 62, 49
1, 130042, Note_on_c, 0, 80, 0
1, 130042, Note_on_c, 0, 84, 58
1, 130134, Note_on_c, 0, 84, 0
1, 130134, Note_on_c, 0, 86, 0
1, 130134, Note_on_c, 0, 74, 59
1, 130137, Note_on_c, 0, 86, 82
1, 130141, Control_c, 0, 64, 0
1, 130164, Control_c, 0, 64, 127
1, 130226, Note_on_c, 0, 74, 0
1, 130226, Note_on_c, 0, 80, 52
1, 130274, Note_on_c, 0, 62, 0
1, 130274, Note_on_c, 0, 60, 0
1, 130274, Note_on_c, 0, 56, 0
1, 130277, Note_on_c, 0, 56, 39
1, 130277, Note_on_c, 0, 53, 39
1, 130277, Note_on_c, 0, 60, 39
1, 130280, Note_on_c, 0, 62, 50
1, 130321, Note_on_c, 0, 80, 0
1, 130321, Note_on_c, 0, 84, 52
1, 130417, Note_on_c, 0, 84, 0
1, 130417, Note_on_c, 0, 86, 0
1, 130417, Note_on_c, 0, 75, 66
1, 130420, Note_on_c, 0, 87, 79
1, 130420, Note_on_c, 0, 62, 0
1, 130420, Note_on_c, 0, 56, 0
1, 130423, Note_on_c, 0, 53, 0
1, 130423, Note_on_c, 0, 60, 0
1, 130423, Note_on_c, 0, 43, 39
1, 130426, Control_c, 0, 64, 0
1, 130459, Control_c, 0, 64, 127
1, 130508, Note_on_c, 0, 75, 0
1, 130508, Note_on_c, 0, 79, 56
1, 130553, Note_on_c, 0, 55, 27
1, 130553, Note_on_c, 0, 59, 27
1, 130553, Note_on_c, 0, 63, 37
1, 130599, Note_on_c, 0, 79, 0
1, 130599, Note_on_c, 0, 83, 56
1, 130693, Note_on_c, 0, 83, 0
1, 130693, Note_on_c, 0, 87, 0
1, 130693, Note_on_c, 0, 74, 64
1, 130696, Note_on_c, 0, 86, 76
1, 130696, Note_on_c, 0, 43, 0
1, 130701, Control_c, 0, 64, 0
1, 130743, Control_c, 0, 64, 127
1, 130788, Note_on_c, 0, 74, 0
1, 130788, Note_on_c, 0, 79, 55
1, 130836, Note_on_c, 0, 55, 0
1, 130836, Note_on_c, 0, 59, 0
1, 130836, Note_on_c, 0, 63, 0
1, 130839, Note_on_c, 0, 59, 32
1, 130839, Note_on_c, 0, 55, 32
1, 130839, Note_on_c, 0, 62, 44
1, 130884, Note_on_c, 0, 79, 0
1, 130884, Note_on_c, 0, 83, 54
1, 130980, Note_on_c, 0, 83, 0
1, 130980, Note_on_c, 0, 86, 0
1, 130980, Note_on_c, 0, 72, 60
1, 130983, Note_on_c, 0, 84, 72
1, 130988, Control_c, 0, 64, 0
1, 131037, Control_c, 0, 64, 127
1, 131078, Note_on_c, 0, 72, 0
1, 131078, Note_on_c, 0, 74, 54
1, 131127, Note_on_c, 0, 62, 0
1, 131127, Note_on_c, 0, 55, 0
1, 131127, Note_on_c, 0, 59, 0
1, 131130, Note_on_c, 0, 50, 32
1, 131130, Note_on_c, 0, 55, 32
1, 131130, Note_on_c, 0, 60, 44
1, 131176, Note_on_c, 0, 74, 0
1, 131176, Note_on_c, 0, 79, 52
1, 131268, Note_on_c, 0, 79, 0
1, 131268, Note_on_c, 0, 84, 0
1, 131268, Note_on_c, 0, 71, 53
1, 131271, Note_on_c, 0, 83, 73
1, 131276, Control_c, 0, 64, 0
1, 131299, Control_c, 0, 64, 127
1, 131360, Note_on_c, 0, 71, 0
1, 131360, Note_on_c, 0, 74, 46
1, 131408, Note_on_c, 0, 60, 0
1, 131408, Note_on_c, 0, 55, 0
1, 131408, Note_on_c, 0, 50, 0
1, 131411, Note_on_c, 0, 55, 35
1, 131411, Note_on_c, 0, 50, 35
1, 131411, Note_on_c, 0, 59, 45
1, 131456, Note_on_c, 0, 74, 0
1, 131456, Note_on_c, 0, 79, 46
1, 131551, Note_on_c, 0, 79, 0
1, 131551, Note_on_c, 0, 83, 0
1, 131551, Note_on_c, 0, 68, 62
1, 131554, Note_on_c, 0, 80, 75
1, 131554, Note_on_c, 0, 59, 0
1, 131554, Note_on_c, 0, 50, 0
1, 131557, Note_on_c, 0, 55, 0
1, 131557, Control_c, 0, 64, 0
1, 131594, Control_c, 0, 64, 127
1, 131642, Note_on_c, 0, 68, 0
1, 131642, Note_on_c, 0, 71, 53
1, 131688, Note_on_c, 0, 47, 25
1, 131688, Note_on_c, 0, 50, 25
1, 131688, Note_on_c, 0, 56, 35
1, 131733, Note_on_c, 0, 71, 0
1, 131733, Note_on_c, 0, 74, 53
1, 131827, Note_on_c, 0, 74, 0
1, 131827, Note_on_c, 0, 80, 0
1, 131827, Note_on_c, 0, 67, 60
1, 131830, Note_on_c, 0, 79, 72
1, 131835, Control_c, 0, 64, 0
1, 131877, Control_c, 0, 64, 127
1, 131922, Note_on_c, 0, 67, 0
1, 131922, Note_on_c, 0, 71, 52
1, 131970, Note_on_c, 0, 56, 0
1, 131970, Note_on_c, 0, 50, 0
1, 131970, Note_on_c, 0, 47, 0
1, 131973, Note_on_c, 0, 50, 29
1, 131973, Note_on_c, 0, 47, 29
1, 131973, Note_on_c, 0, 55, 40
1, 132018, Note_on_c, 0, 71, 0
1, 132018, Note_on_c, 0, 74, 51
1, 132114, Note_on_c, 0, 74, 0
1, 132114, Note_on_c, 0, 79, 0
1, 132114, Note_on_c, 0, 67, 57
1, 132117, Note_on_c, 0, 79, 68
1, 132122, Control_c, 0, 64, 0
1, 132171, Control_c, 0, 64, 127
1, 132211, Note_on_c, 0, 67, 0
1, 132211, Note_on_c, 0, 71, 51
1, 132260, Note_on_c, 0, 55, 0
1, 132260, Note_on_c, 0, 47, 0
1, 132260, Note_on_c, 0, 50, 0
1, 132263, Note_on_c, 0, 47, 28
1, 132263, Note_on_c, 0, 50, 28
1, 132263, Note_on_c, 0, 55, 39
1, 132308, Note_on_c, 0, 71, 0
1, 132308, Note_on_c, 0, 74, 49
1, 132400, Note_on_c, 0, 74, 0
1, 132400, Note_on_c, 0, 79, 0
1, 132400, Note_on_c, 0, 67, 50
1, 132403, Note_on_c, 0, 79, 69
1, 132408, Control_c, 0, 64, 0
1, 132431, Control_c, 0, 64, 127
1, 132492, Note_on_c, 0, 67, 0
1, 132492, Note_on_c, 0, 71, 43
1, 132540, Note_on_c, 0, 55, 0
1, 132540, Note_on_c, 0, 50, 0
1, 132540, Note_on_c, 0, 47, 0
1, 132543, Note_on_c, 0, 50, 30
1, 132543, Note_on_c, 0, 47, 30
1, 132543, Note_on_c, 0, 55, 39
1, 132588, Note_on_c, 0, 71, 0
1, 132588, Note_on_c, 0, 74, 43
1, 132684, Note_on_c, 0, 74, 0
1, 132684, Note_on_c, 0, 79, 0
1, 132684, Note_on_c, 0, 70, 58
1, 132687, Note_on_c, 0, 82, 71
1, 132687, Note_on_c, 0, 55, 0
1, 132687, Note_on_c, 0, 47, 0
1, 132690, Note_on_c, 0, 50, 0
1, 132690, Note_on_c, 0, 31, 35
1, 132690, Control_c, 0, 64, 0
1, 132726, Control_c, 0, 64, 127
1, 132775, Note_on_c, 0, 70, 0
1, 132775, Note_on_c, 0, 72, 50
1, 132820, Note_on_c, 0, 48, 23
1, 132820, Note_on_c, 0, 51, 23
1, 132820, Note_on_c, 0, 58, 33
1, 132866, Note_on_c, 0, 72, 0
1, 132866, Note_on_c, 0, 75, 50
1, 132960, Note_on_c, 0, 75, 0
1, 132960, Note_on_c, 0, 82, 0
1, 132960, Note_on_c, 0, 68, 57
1, 132963, Note_on_c, 0, 80, 68
1, 132963, Note_on_c, 0, 31, 0
1, 132968, Control_c, 0, 64, 0
1, 133009, Control_c, 0, 64, 127
1, 133054, Note_on_c, 0, 68, 0
1, 133054, Note_on_c, 0, 72, 49
1, 133102, Note_on_c, 0, 48, 0
1, 133102, Note_on_c, 0, 51, 0
1, 133102, Note_on_c, 0, 58, 0
1, 133105, Note_on_c, 0, 51, 27
1, 133105, Note_on_c, 0, 48, 27
1, 133105, Note_on_c, 0, 56, 38
1, 133150, Note_on_c, 0, 72, 0
1, 133150, Note_on_c, 0, 75, 48
1, 133246, Note_on_c, 0, 75, 0
1, 133246, Note_on_c, 0, 80, 0
1, 133246, Note_on_c, 0, 67, 54
1, 133249, Note_on_c, 0, 79, 64
1, 133254, Control_c, 0, 64, 0
1, 133303, Control_c, 0, 64, 127
1, 133344, Note_on_c, 0, 67, 0
1, 133344, Note_on_c, 0, 72, 48
1, 133392, Note_on_c, 0, 56, 0
1, 133392, Note_on_c, 0, 48, 0
1, 133392, Note_on_c, 0, 51, 0
1, 133395, Note_on_c, 0, 43, 26
1, 133395, Note_on_c, 0, 48, 26
1, 133395, Note_on_c, 0, 51, 26
1, 133398, Note_on_c, 0, 55, 37
1, 133441, Note_on_c, 0, 72, 0
1, 133441, Note_on_c, 0, 75, 46
1, 133533, Note_on_c, 0, 75, 0
1, 133533, Note_on_c, 0, 79, 0
1, 133533, Note_on_c, 0, 65, 47
1, 133536, Note_on_c, 0, 77, 65
1, 133541, Control_c, 0, 64, 0
1, 133564, Control_c, 0, 64, 127
1, 133625, Note_on_c, 0, 65, 0
1, 133625, Note_on_c, 0, 67, 40
1, 133673, Note_on_c, 0, 55, 0
1, 133673, Note_on_c, 0, 43, 0
1, 133673, Note_on_c, 0, 48, 0
1, 133676, Note_on_c, 0, 51, 0
1, 133676, Note_on_c, 0, 48, 28
1, 133676, Note_on_c, 0, 43, 28
1, 133679, Note_on_c, 0, 53, 37
1, 133721, Note_on_c, 0, 67, 0
1, 133721, Note_on_c, 0, 72, 40
1, 133816, Note_on_c, 0, 72, 0
1, 133816, Note_on_c, 0, 77, 0
1, 133816, Note_on_c, 0, 63, 55
1, 133819, Note_on_c, 0, 75, 67
1, 133819, Note_on_c, 0, 53, 0
1, 133819, Note_on_c, 0, 43, 0
1, 133822, Note_on_c, 0, 48, 0
1, 133822, Note_on_c, 0, 29, 33
1, 133822, Control_c, 0, 64, 0
1, 133859, Control_c, 0, 64, 127
1, 133907, Note_on_c, 0, 63, 0
1, 133907, Note_on_c, 0, 68, 47
1, 133953, Note_on_c, 0, 41, 21
1, 133953, Note_on_c, 0, 44, 21
1, 133953, Note_on_c, 0, 48, 21
1, 133956, Note_on_c, 0, 51, 31
1, 133998, Note_on_c, 0, 68, 0
1, 133998, Note_on_c, 0, 72, 47
1, 134092, Note_on_c, 0, 72, 0
1, 134092, Note_on_c, 0, 75, 0
1, 134092, Note_on_c, 0, 62, 54
1, 134095, Note_on_c, 0, 74, 64
1, 134095, Note_on_c, 0, 29, 0
1, 134100, Control_c, 0, 64, 0
1, 134142, Control_c, 0, 64, 127
1, 134187, Note_on_c, 0, 62, 0
1, 134187, Note_on_c, 0, 68, 46
1, 134235, Note_on_c, 0, 48, 0
1, 134235, Note_on_c, 0, 41, 0
1, 134235, Note_on_c, 0, 44, 0
1, 134238, Note_on_c, 0, 51, 0
1, 134238, Note_on_c, 0, 44, 25
1, 134238, Note_on_c, 0, 48, 25
1, 134241, Note_on_c, 0, 41, 25
1, 134241, Note_on_c, 0, 50, 36
1, 134283, Note_on_c, 0, 68, 0
1, 134283, Note_on_c, 0, 72, 45
1, 134379, Note_on_c, 0, 72, 0
1, 134379, Note_on_c, 0, 74, 0
1, 134379, Note_on_c, 0, 62, 51
1, 134382, Note_on_c, 0, 74, 60
1, 134387, Control_c, 0, 64, 0
1, 134436, Control_c, 0, 64, 127
1, 134476, Note_on_c, 0, 62, 0
1, 134476, Note_on_c, 0, 68, 45
1, 134525, Note_on_c, 0, 50, 0
1, 134525, Note_on_c, 0, 44, 0
1, 134525, Note_on_c, 0, 48, 0
1, 134528, Note_on_c, 0, 41, 0
1, 134528, Note_on_c, 0, 44, 24
1, 134528, Note_on_c, 0, 48, 24
1, 134531, Note_on_c, 0, 50, 35
1, 134573, Note_on_c, 0, 68, 0
1, 134573, Note_on_c, 0, 72, 43
1, 134665, Note_on_c, 0, 72, 0
1, 134665, Note_on_c, 0, 74, 0
1, 134665, Note_on_c, 0, 62, 44
1, 134668, Note_on_c, 0, 74, 61
1, 134673, Control_c, 0, 64, 0
1, 134696, Control_c, 0, 64, 127
1, 134757, Note_on_c, 0, 62, 0
1, 134757, Note_on_c, 0, 68, 38
1, 134804, Note_on_c, 0, 50, 0
1, 134804, Note_on_c, 0, 48, 0
1, 134804, Note_on_c, 0, 44, 0
1, 134807, Note_on_c, 0, 44, 26
1, 134807, Note_on_c, 0, 48, 26
1, 134807, Note_on_c, 0, 41, 26
1, 134810, Note_on_c, 0, 50, 35
1, 134851, Note_on_c, 0, 68, 0
1, 134851, Note_on_c, 0, 72, 38
1, 134944, Note_on_c, 0, 72, 0
1, 134944, Note_on_c, 0, 74, 0
1, 134944, Note_on_c, 0, 63, 55
1, 134947, Note_on_c, 0, 75, 67
1, 134947, Note_on_c, 0, 50, 0
1, 134947, Note_on_c, 0, 44, 0
1, 134950, Note_on_c, 0, 48, 0
1, 134950, Note_on_c, 0, 41, 0
1, 134950, Note_on_c, 0, 31, 33
1, 134953, Control_c, 0, 64, 0
1, 134986, Control_c, 0, 64, 127
1, 135035, Note_on_c, 0, 63, 0
1, 135035, Note_on_c, 0, 67, 47
1, 135080, Note_on_c, 0, 43, 21
1, 135080, Note_on_c, 0, 47, 21
1, 135080, Note_on_c, 0, 51, 31
1, 135126, Note_on_c, 0, 67, 0
1, 135126, Note_on_c, 0, 71, 47
1, 135219, Note_on_c, 0, 71, 0
1, 135219, Note_on_c, 0, 75, 0
1, 135219, Note_on_c, 0, 62, 54
1, 135222, Note_on_c, 0, 74, 64
1, 135222, Note_on_c, 0, 31, 0
1, 135226, Control_c, 0, 64, 0
1, 135267, Control_c, 0, 64, 127
1, 135311, Note_on_c, 0, 62, 0
1, 135311, Note_on_c, 0, 67, 46
1, 135359, Note_on_c, 0, 43, 0
1, 135359, Note_on_c, 0, 47, 0
1, 135359, Note_on_c, 0, 51, 0
1, 135362, Note_on_c, 0, 43, 25
1, 135362, Note_on_c, 0, 47, 25
1, 135362, Note_on_c, 0, 50, 36
1, 135407, Note_on_c, 0, 67, 0
1, 135407, Note_on_c, 0, 71, 45
1, 135503, Note_on_c, 0, 71, 0
1, 135503, Note_on_c, 0, 74, 0
1, 135503, Note_on_c, 0, 60, 51
1, 135506, Note_on_c, 0, 72, 60
1, 135511, Control_c, 0, 64, 0
1, 135560, Control_c, 0, 64, 127
1, 135601, Note_on_c, 0, 60, 0
1, 135601, Note_on_c, 0, 63, 45
1, 135649, Note_on_c, 0, 50, 0
1, 135649, Note_on_c, 0, 47, 0
1, 135649, Note_on_c, 0, 43, 0
1, 135652, Note_on_c, 0, 51, 24
1, 135652, Note_on_c, 0, 55, 35
1, 135698, Note_on_c, 0, 63, 0
1, 135698, Note_on_c, 0, 67, 43
1, 135790, Note_on_c, 0, 67, 0
1, 135790, Note_on_c, 0, 72, 0
1, 135790, Note_on_c, 0, 59, 44
1, 135793, Note_on_c, 0, 71, 61
1, 135798, Control_c, 0, 64, 0
1, 135821, Control_c, 0, 64, 127
1, 135882, Note_on_c, 0, 59, 0
1, 135882, Note_on_c, 0, 62, 38
1, 135930, Note_on_c, 0, 55, 0
1, 135930, Note_on_c, 0, 51, 0
1, 135930, Note_on_c, 0, 50, 26
1, 135933, Note_on_c, 0, 55, 35
1, 135978, Note_on_c, 0, 62, 0
1, 135978, Note_on_c, 0, 67, 38
1, 136073, Note_on_c, 0, 67, 0
1, 136073, Note_on_c, 0, 71, 0
1, 136073, Note_on_c, 0, 58, 49
1, 136076, Note_on_c, 0, 70, 60
1, 136076, Note_on_c, 0, 55, 0
1, 136076, Note_on_c, 0, 50, 0
1, 136079, Note_on_c, 0, 37, 29
1, 136079, Control_c, 0, 64, 0
1, 136116, Control_c, 0, 64, 127
1, 136164, Note_on_c, 0, 58, 0
1, 136164, Note_on_c, 0, 61, 42
1, 136210, Note_on_c, 0, 49, 18
1, 136210, Note_on_c, 0, 53, 27
1, 136255, Note_on_c, 0, 61, 0
1, 136255, Note_on_c, 0, 65, 42
1, 136349, Note_on_c, 0, 65, 0
1, 136349, Note_on_c, 0, 70, 0
1, 136349, Note_on_c, 0, 56, 48
1, 136352, Note_on_c, 0, 68, 57
1, 136352, Note_on_c, 0, 37, 0
1, 136357, Control_c, 0, 64, 0
1, 136399, Control_c, 0, 64, 127
1, 136444, Note_on_c, 0, 56, 0
1, 136444, Note_on_c, 0, 61, 41
1, 136492, Note_on_c, 0, 53, 0
1, 136492, Note_on_c, 0, 49, 0
1, 136492, Note_on_c, 0, 49, 22
1, 136495, Note_on_c, 0, 53, 32
1, 136540, Note_on_c, 0, 61, 0
1, 136540, Note_on_c, 0, 65, 40
1, 136636, Note_on_c, 0, 65, 0
1, 136636, Note_on_c, 0, 68, 0
1, 136636, Note_on_c, 0, 55, 45
1, 136639, Note_on_c, 0, 67, 54
1, 136639, Note_on_c, 0, 53, 0
1, 136639, Note_on_c, 0, 49, 0
1, 136644, Control_c, 0, 64, 0
1, 136693, Control_c, 0, 64, 127
1, 136733, Note_on_c, 0, 55, 0
1, 136733, Note_on_c, 0, 56, 40
1, 136782, Note_on_c, 0, 44, 21
1, 136782, Note_on_c, 0, 40, 21
1, 136782, Note_on_c, 0, 49, 31
1, 136830, Note_on_c, 0, 56, 0
1, 136830, Note_on_c, 0, 61, 38
1, 136929, Note_on_c, 0, 61, 0
1, 136929, Note_on_c, 0, 67, 0
1, 136929, Note_on_c, 0, 53, 39
1, 136932, Note_on_c, 0, 65, 54
1, 136938, Control_c, 0, 64, 0
1, 136962, Control_c, 0, 64, 127
1, 137028, Note_on_c, 0, 53, 0
1, 137028, Note_on_c, 0, 56, 34
1, 137086, Note_on_c, 0, 49, 0
1, 137086, Note_on_c, 0, 40, 0
1, 137086, Note_on_c, 0, 44, 0
1, 137089, Note_on_c, 0, 41, 23
1, 137089, Note_on_c, 0, 44, 23
1, 137089, Note_on_c, 0, 49, 31
1, 137143, Note_on_c, 0, 56, 0
1, 137143, Note_on_c, 0, 61, 34
1, 137257, Note_on_c, 0, 61, 0
1, 137257, Note_on_c, 0, 65, 0
1, 137257, Note_on_c, 0, 63, 39
1, 137260, Note_on_c, 0, 75, 47
1, 137260, Note_on_c, 0, 49, 0
1, 137260, Note_on_c, 0, 44, 0
1, 137263, Note_on_c, 0, 41, 0
1, 137263, Note_on_c, 0, 31, 23
1, 137263, Control_c, 0, 64, 0
1, 137301, Control_c, 0, 64, 127
1, 137351, Note_on_c, 0, 63, 0
1, 137351, Note_on_c, 0, 67, 33
1, 137398, Note_on_c, 0, 43, 14
1, 137398, Note_on_c, 0, 47, 14
1, 137398, Note_on_c, 0, 51, 22
1, 137445, Note_on_c, 0, 67, 0
1, 137445, Note_on_c, 0, 71, 33
1, 137542, Note_on_c, 0, 71, 0
1, 137542, Note_on_c, 0, 75, 0
1, 137542, Note_on_c, 0, 62, 38
1, 137545, Note_on_c, 0, 74, 45
1, 137545, Note_on_c, 0, 31, 0
1, 137550, Control_c, 0, 64, 0
1, 137593, Control_c, 0, 64, 127
1, 137639, Note_on_c, 0, 62, 0
1, 137639, Note_on_c, 0, 67, 33
1, 137689, Note_on_c, 0, 43, 0
1, 137689, Note_on_c, 0, 47, 0
1, 137689, Note_on_c, 0, 51, 0
1, 137692, Note_on_c, 0, 43, 17
1, 137692, Note_on_c, 0, 47, 17
1, 137692, Note_on_c, 0, 50, 25
1, 137739, Note_on_c, 0, 67, 0
1, 137739, Note_on_c, 0, 71, 32
1, 137838, Note_on_c, 0, 71, 0
1, 137838, Note_on_c, 0, 74, 0
1, 137838, Note_on_c, 0, 60, 36
1, 137841, Note_on_c, 0, 72, 43
1, 137846, Control_c, 0, 64, 0
1, 137897, Control_c, 0, 64, 127
1, 137940, Note_on_c, 0, 60, 0
1, 137940, Note_on_c, 0, 63, 32
1, 137991, Note_on_c, 0, 50, 0
1, 137991, Note_on_c, 0, 47, 0
1, 137991, Note_on_c, 0, 43, 0
1, 137994, Note_on_c, 0, 51, 17
1, 137994, Note_on_c, 0, 55, 24
1, 138042, Note_on_c, 0, 63, 0
1, 138042, Note_on_c, 0, 67, 30
1, 138141, Note_on_c, 0, 67, 0
1, 138141, Note_on_c, 0, 72, 0
1, 138141, Note_on_c, 0, 59, 31
1, 138144, Note_on_c, 0, 71, 43
1, 138149, Control_c, 0, 64, 0
1, 138174, Control_c, 0, 64, 127
1, 138240, Note_on_c, 0, 59, 0
1, 138240, Note_on_c, 0, 62, 27
1, 138294, Note_on_c, 0, 55, 0
1, 138294, Note_on_c, 0, 51, 0
1, 138294, Note_on_c, 0, 50, 18
1, 138297, Note_on_c, 0, 55, 24
1, 138348, Note_on_c, 0, 62, 0
1, 138348, Note_on_c, 0, 67, 27
1, 138456, Note_on_c, 0, 67, 0
1, 138456, Note_on_c, 0, 71, 0
1, 138456, Note_on_c, 0, 58, 34
1, 138459, Note_on_c, 0, 70, 43
1, 138459, Note_on_c, 0, 55, 0
1, 138459, Note_on_c, 0, 50, 0
1, 138462, Note_on_c, 0, 37, 20
1, 138462, Control_c, 0, 64, 0
1, 138504, Control_c, 0, 64, 127
1, 138558, Note_on_c, 0, 58, 0
1, 138558, Note_on_c, 0, 61, 29
1, 138609, Note_on_c, 0, 49, 12
1, 138609, Note_on_c, 0, 53, 18
1, 138660, Note_on_c, 0, 61, 0
1, 138660, Note_on_c, 0, 65, 29
1, 138766, Note_on_c, 0, 65, 0
1, 138766, Note_on_c, 0, 70, 0
1, 138766, Note_on_c, 0, 56, 34
1, 138769, Note_on_c, 0, 68, 40
1, 138769, Note_on_c, 0, 37, 0
1, 138775, Control_c, 0, 64, 0
1, 138821, Control_c, 0, 64, 127
1, 138871, Note_on_c, 0, 56, 0
1, 138871, Note_on_c, 0, 61, 28
1, 138926, Note_on_c, 0, 53, 0
1, 138926, Note_on_c, 0, 49, 0
1, 138926, Note_on_c, 0, 49, 15
1, 138929, Note_on_c, 0, 53, 22
1, 138981, Note_on_c, 0, 61, 0
1, 138981, Note_on_c, 0, 65, 28
1, 139091, Note_on_c, 0, 65, 0
1, 139091, Note_on_c, 0, 68, 0
1, 139091, Note_on_c, 0, 55, 32
1, 139094, Note_on_c, 0, 67, 38
1, 139094, Note_on_c, 0, 53, 0
1, 139094, Note_on_c, 0, 49, 0
1, 139101, Control_c, 0, 64, 0
1, 139160, Control_c, 0, 64, 127
1, 139209, Note_on_c, 0, 55, 0
1, 139209, Note_on_c, 0, 56, 28
1, 139268, Note_on_c, 0, 44, 14
1, 139268, Note_on_c, 0, 40, 14
1, 139268, Note_on_c, 0, 49, 22
1, 139327, Note_on_c, 0, 56, 0
1, 139327, Note_on_c, 0, 61, 27
1, 139438, Note_on_c, 0, 61, 0
1, 139438, Note_on_c, 0, 67, 0
1, 139438, Note_on_c, 0, 53, 28
1, 139441, Note_on_c, 0, 65, 38
1, 139447, Control_c, 0, 64, 0
1, 139475, Control_c, 0, 64, 127
1, 139549, Note_on_c, 0, 53, 0
1, 139549, Note_on_c, 0, 56, 23
1, 139615, Note_on_c, 0, 49, 0
1, 139615, Note_on_c, 0, 40, 0
1, 139615, Note_on_c, 0, 44, 0
1, 139618, Note_on_c, 0, 41, 16
1, 139618, Note_on_c, 0, 44, 16
1, 139618, Note_on_c, 0, 49, 22
1, 139680, Note_on_c, 0, 56, 0
1, 139680, Note_on_c, 0, 61, 23
1, 139812, Note_on_c, 0, 61, 0
1, 139812, Note_on_c, 0, 65, 0
1, 139812, Note_on_c, 0, 59, 45
1, 139815, Note_on_c, 0, 62, 53
1, 139815, Note_on_c, 0, 49, 0
1, 139815, Note_on_c, 0, 44, 0
1, 139818, Note_on_c, 0, 41, 0
1, 139818, Note_on_c, 0, 43, 27
1, 139818, Note_on_c, 0, 50, 33
1, 139821, Control_c, 0, 64, 0
1, 139862, Control_c, 0, 64, 127
1, 139900, Note_on_c, 0, 62, 0
1, 139900, Note_on_c, 0, 59, 0
1, 139900, Note_on_c, 0, 50, 0
1, 139903, Note_on_c, 0, 43, 0
1, 139942, Control_c, 0, 64, 0
1, 139989, Note_on_c, 0, 38, 38
1, 140034, Control_c, 0, 64, 127
1, 140067, Note_on_c, 0, 50, 38
1, 140145, Note_on_c, 0, 50, 0
1, 140145, Note_on_c, 0, 38, 0
1, 140145, Note_on_c, 0, 36, 39
1, 140151, Control_c, 0, 64, 0
1, 140188, Control_c, 0, 64, 127
1, 140219, Note_on_c, 0, 48, 39
1, 140292, Note_on_c, 0, 48, 0
1, 140292, Note_on_c, 0, 36, 0
1, 140292, Note_on_c, 0, 35, 41
1, 140298, Control_c, 0, 64, 0
1, 140331, Control_c, 0, 64, 127
1, 140365, Note_on_c, 0, 47, 40
1, 140438, Note_on_c, 0, 47, 0
1, 140438, Note_on_c, 0, 35, 0
1, 140438, Note_on_c, 0, 32, 43
1, 140443, Control_c, 0, 64, 0
1, 140476, Control_c, 0, 64, 127
1, 140510, Note_on_c, 0, 44, 41
1, 140582, Note_on_c, 0, 44, 0
1, 140582, Note_on_c, 0, 32, 0
1, 140582, Note_on_c, 0, 31, 48
1, 140588, Control_c, 0, 64, 0
1, 140628, Control_c, 0, 64, 127
1, 140653, Note_on_c, 0, 43, 42
1, 140724, Note_on_c, 0, 43, 0
1, 140724, Note_on_c, 0, 31, 0
1, 140724, Note_on_c, 0, 44, 51
1, 140727, Control_c, 0, 64, 0
1, 140767, Control_c, 0, 64, 127
1, 140797, Note_on_c, 0, 56, 43
1, 140870, Note_on_c, 0, 56, 0
1, 140870, Note_on_c, 0, 44, 0
1, 140870, Note_on_c, 0, 43, 45
1, 140876, Control_c, 0, 64, 0
1, 140913, Control_c, 0, 64, 127
1, 140943, Note_on_c, 0, 55, 44
1, 141015, Note_on_c, 0, 55, 0
1, 141015, Note_on_c, 0, 43, 0
1, 141015, Note_on_c, 0, 41, 47
1, 141022, Control_c, 0, 64, 0
1, 141054, Control_c, 0, 64, 127
1, 141088, Note_on_c, 0, 53, 45
1, 141160, Note_on_c, 0, 53, 0
1, 141160, Note_on_c, 0, 41, 0
1, 141160, Note_on_c, 0, 39, 50
1, 141165, Control_c, 0, 64, 0
1, 141198, Control_c, 0, 64, 127
1, 141232, Note_on_c, 0, 51, 45
1, 141304, Note_on_c, 0, 51, 0
1, 141304, Note_on_c, 0, 39, 0
1, 141304, Note_on_c, 0, 37, 52
1, 141309, Control_c, 0, 64, 0
1, 141355, Control_c, 0, 64, 127
1, 141382, Note_on_c, 0, 49, 47
1, 141478, Note_on_c, 0, 49, 0
1, 141478, Note_on_c, 0, 56, 47
1, 141478, Note_on_c, 0, 61, 47
1, 141481, Note_on_c, 0, 65, 56
1, 141481, Note_on_c, 0, 37, 0
1, 141481, Note_on_c, 0, 49, 37
1, 141484, Note_on_c, 0, 53, 44
1, 141484, Control_c, 0, 64, 0
1, 141556, Note_on_c, 0, 65, 0
1, 141556, Note_on_c, 0, 61, 0
1, 141556, Note_on_c, 0, 56, 0
1, 141559, Note_on_c, 0, 53, 0
1, 141559, Note_on_c, 0, 49, 0
1, 141559, Control_c, 0, 64, 127
1, 141634, Note_on_c, 0, 59, 48
1, 141634, Note_on_c, 0, 55, 48
1, 141634, Note_on_c, 0, 67, 57
1, 141637, Note_on_c, 0, 43, 41
1, 141637, Note_on_c, 0, 50, 48
1, 141637, Control_c, 0, 64, 0
1, 141712, Note_on_c, 0, 67, 0
1, 141712, Note_on_c, 0, 55, 0
1, 141712, Note_on_c, 0, 59, 0
1, 141715, Note_on_c, 0, 50, 0
1, 141715, Note_on_c, 0, 43, 0
1, 141790, Note_on_c, 0, 38, 38
1, 141836, Control_c, 0, 64, 127
1, 141868, Note_on_c, 0, 50, 38
1, 141946, Note_on_c, 0, 50, 0
1, 141946, Note_on_c, 0, 38, 0
1, 141946, Note_on_c, 0, 36, 39
1, 141952, Control_c, 0, 64, 0
1, 141989, Control_c, 0, 64, 127
1, 142020, Note_on_c, 0, 48, 39
1, 142093, Note_on_c, 0, 48, 0
1, 142093, Note_on_c, 0, 36, 0
1, 142093, Note_on_c, 0, 35, 41
1, 142100, Control_c, 0, 64, 0
1, 142132, Control_c, 0, 64, 127
1, 142166, Note_on_c, 0, 47, 40
1, 142239, Note_on_c, 0, 47, 0
1, 142239, Note_on_c, 0, 35, 0
1, 142239, Note_on_c, 0, 32, 43
1, 142245, Control_c, 0, 64, 0
1, 142277, Control_c, 0, 64, 127
1, 142312, Note_on_c, 0, 44, 41
1, 142384, Note_on_c, 0, 44, 0
1, 142384, Note_on_c, 0, 32, 0
1, 142384, Note_on_c, 0, 31, 48
1, 142389, Control_c, 0, 64, 0
1, 142430, Control_c, 0, 64, 127
1, 142455, Note_on_c, 0, 43, 42
1, 142527, Note_on_c, 0, 43, 0
1, 142527, Note_on_c, 0, 31, 0
1, 142527, Note_on_c, 0, 44, 51
1, 142530, Control_c, 0, 64, 0
1, 142569, Control_c, 0, 64, 127
1, 142600, Note_on_c, 0, 56, 43
1, 142673, Note_on_c, 0, 56, 0
1, 142673, Note_on_c, 0, 44, 0
1, 142673, Note_on_c, 0, 43, 45
1, 142679, Control_c, 0, 64, 0
1, 142715, Control_c, 0, 64, 127
1, 142746, Note_on_c, 0, 55, 44
1, 142818, Note_on_c, 0, 55, 0
1, 142818, Note_on_c, 0, 43, 0
1, 142818, Note_on_c, 0, 41, 47
1, 142824, Control_c, 0, 64, 0
1, 142856, Control_c, 0, 64, 127
1, 142890, Note_on_c, 0, 53, 45
1, 142963, Note_on_c, 0, 53, 0
1, 142963, Note_on_c, 0, 41, 0
1, 142963, Note_on_c, 0, 39, 50
1, 142968, Control_c, 0, 64, 0
1, 143000, Control_c, 0, 64, 127
1, 143034, Note_on_c, 0, 51, 45
1, 143106, Note_on_c, 0, 51, 0
1, 143106, Note_on_c, 0, 39, 0
1, 143106, Note_on_c, 0, 37, 52
1, 143112, Control_c, 0, 64, 0
1, 143156, Control_c, 0, 64, 127
1, 143183, Note_on_c, 0, 49, 47
1, 143279, Note_on_c, 0, 49, 0
1, 143279, Note_on_c, 0, 56, 47
1, 143279, Note_on_c, 0, 61, 47
1, 143282, Note_on_c, 0, 65, 56
1, 143282, Note_on_c, 0, 37, 0
1, 143282, Note_on_c, 0, 49, 37
1, 143285, Note_on_c, 0, 53, 44
1, 143285, Control_c, 0, 64, 0
1, 143357, Note_on_c, 0, 65, 0
1, 143357, Note_on_c, 0, 61, 0
1, 143357, Note_on_c, 0, 56, 0
1, 143360, Note_on_c, 0, 53, 0
1, 143360, Note_on_c, 0, 49, 0
1, 143360, Control_c, 0, 64, 127
1, 143434, Note_on_c, 0, 60, 48
1, 143434, Note_on_c, 0, 56, 48
1, 143434, Note_on_c, 0, 68, 57
1, 143437, Note_on_c, 0, 44, 41
1, 143437, Note_on_c, 0, 51, 48
1, 143437, Control_c, 0, 64, 0
1, 143512, Note_on_c, 0, 68, 0
1, 143512, Note_on_c, 0, 56, 0
1, 143512, Note_on_c, 0, 60, 0
1, 143515, Note_on_c, 0, 51, 0
1, 143515, Note_on_c, 0, 44, 0
1, 143589, Note_on_c, 0, 39, 38
1, 143635, Control_c, 0, 64, 127
1, 143668, Note_on_c, 0, 51, 38
1, 143746, Note_on_c, 0, 51, 0
1, 143746, Note_on_c, 0, 39, 0
1, 143746, Note_on_c, 0, 37, 39
1, 143752, Control_c, 0, 64, 0
1, 143789, Control_c, 0, 64, 127
1, 143819, Note_on_c, 0, 49, 39
1, 143893, Note_on_c, 0, 49, 0
1, 143893, Note_on_c, 0, 37, 0
1, 143893, Note_on_c, 0, 36, 41
1, 143899, Control_c, 0, 64, 0
1, 143931, Control_c, 0, 64, 127
1, 143966, Note_on_c, 0, 48, 40
1, 144039, Note_on_c, 0, 48, 0
1, 144039, Note_on_c, 0, 36, 0
1, 144039, Note_on_c, 0, 34, 43
1, 144044, Control_c, 0, 64, 0
1, 144077, Control_c, 0, 64, 127
1, 144111, Note_on_c, 0, 46, 41
1, 144183, Note_on_c, 0, 46, 0
1, 144183, Note_on_c, 0, 34, 0
1, 144183, Note_on_c, 0, 32, 48
1, 144188, Control_c, 0, 64, 0
1, 144229, Control_c, 0, 64, 127
1, 144254, Note_on_c, 0, 44, 42
1, 144324, Note_on_c, 0, 44, 0
1, 144324, Note_on_c, 0, 32, 0
1, 144324, Note_on_c, 0, 44, 51
1, 144328, Control_c, 0, 64, 0
1, 144367, Control_c, 0, 64, 127
1, 144398, Note_on_c, 0, 56, 43
1, 144471, Note_on_c, 0, 56, 0
1, 144471, Note_on_c, 0, 44, 0
1, 144471, Note_on_c, 0, 42, 45
1, 144477, Control_c, 0, 64, 0
1, 144513, Control_c, 0, 64, 127
1, 144544, Note_on_c, 0, 54, 44
1, 144616, Note_on_c, 0, 54, 0
1, 144616, Note_on_c, 0, 42, 0
1, 144616, Note_on_c, 0, 40, 47
1, 144622, Control_c, 0, 64, 0
1, 144654, Control_c, 0, 64, 127
1, 144689, Note_on_c, 0, 52, 45
1, 144761, Note_on_c, 0, 52, 0
1, 144761, Note_on_c, 0, 40, 0
1, 144761, Note_on_c, 0, 39, 50
1, 144766, Control_c, 0, 64, 0
1, 144799, Control_c, 0, 64, 127
1, 144833, Note_on_c, 0, 51, 45
1, 144904, Note_on_c, 0, 51, 0
1, 144904, Note_on_c, 0, 39, 0
1, 144904, Note_on_c, 0, 37, 52
1, 144910, Control_c, 0, 64, 0
1, 144954, Control_c, 0, 64, 127
1, 144981, Note_on_c, 0, 49, 47
1, 145075, Note_on_c, 0, 49, 0
1, 145075, Note_on_c, 0, 56, 47
1, 145075, Note_on_c, 0, 61, 47
1, 145078, Note_on_c, 0, 64, 56
1, 145078, Note_on_c, 0, 37, 0
1, 145078, Note_on_c, 0, 49, 37
1, 145081, Note_on_c, 0, 52, 44
1, 145081, Control_c, 0, 64, 0
1, 145153, Note_on_c, 0, 64, 0
1, 145153, Note_on_c, 0, 61, 0
1, 145153, Note_on_c, 0, 56, 0
1, 145156, Note_on_c, 0, 52, 0
1, 145156, Note_on_c, 0, 49, 0
1, 145156, Control_c, 0, 64, 127
1, 145230, Note_on_c, 0, 61, 48
1, 145230, Note_on_c, 0, 57, 48
1, 145230, Note_on_c, 0, 69, 57
1, 145233, Note_on_c, 0, 45, 41
1, 145233, Note_on_c, 0, 52, 48
1, 145233, Control_c, 0, 64, 0
1, 145308, Note_on_c, 0, 69, 0
1, 145308, Note_on_c, 0, 57, 0
1, 145308, Note_on_c, 0, 61, 0
1, 145311, Note_on_c, 0, 52, 0
1, 145311, Note_on_c, 0, 45, 0
1, 145385, Note_on_c, 0, 40, 38
1, 145431, Control_c, 0, 64, 127
1, 145464, Note_on_c, 0, 52, 38
1, 145542, Note_on_c, 0, 52, 0
1, 145542, Note_on_c, 0, 40, 0
1, 145542, Note_on_c, 0, 38, 39
1, 145548, Control_c, 0, 64, 0
1, 145585, Control_c, 0, 64, 127
1, 145615, Note_on_c, 0, 50, 39
1, 145689, Note_on_c, 0, 50, 0
1, 145689, Note_on_c, 0, 38, 0
1, 145689, Note_on_c, 0, 37, 41
1, 145695, Control_c, 0, 64, 0
1, 145727, Control_c, 0, 64, 127
1, 145762, Note_on_c, 0, 49, 40
1, 145835, Note_on_c, 0, 49, 0
1, 145835, Note_on_c, 0, 37, 0
1, 145835, Note_on_c, 0, 34, 43
1, 145840, Control_c, 0, 64, 0
1, 145873, Control_c, 0, 64, 127
1, 145907, Note_on_c, 0, 46, 41
1, 145979, Note_on_c, 0, 46, 0
1, 145979, Note_on_c, 0, 34, 0
1, 145979, Note_on_c, 0, 33, 48
1, 145984, Control_c, 0, 64, 0
1, 146025, Control_c, 0, 64, 127
1, 146050, Note_on_c, 0, 45, 42
1, 146120, Note_on_c, 0, 45, 0
1, 146120, Note_on_c, 0, 33, 0
1, 146120, Note_on_c, 0, 45, 51
1, 146124, Control_c, 0, 64, 0
1, 146164, Control_c, 0, 64, 127
1, 146194, Note_on_c, 0, 57, 43
1, 146267, Note_on_c, 0, 57, 0
1, 146267, Note_on_c, 0, 45, 0
1, 146267, Note_on_c, 0, 43, 45
1, 146273, Control_c, 0, 64, 0
1, 146310, Control_c, 0, 64, 127
1, 146340, Note_on_c, 0, 55, 44
1, 146413, Note_on_c, 0, 55, 0
1, 146413, Note_on_c, 0, 43, 0
1, 146413, Note_on_c, 0, 41, 47
1, 146419, Control_c, 0, 64, 0
1, 146451, Control_c, 0, 64, 127
1, 146485, Note_on_c, 0, 53, 45
1, 146557, Note_on_c, 0, 53, 0
1, 146557, Note_on_c, 0, 41, 0
1, 146557, Note_on_c, 0, 40, 50
1, 146563, Control_c, 0, 64, 0
1, 146595, Control_c, 0, 64, 127
1, 146629, Note_on_c, 0, 52, 45
1, 146701, Note_on_c, 0, 52, 0
1, 146701, Note_on_c, 0, 40, 0
1, 146701, Note_on_c, 0, 38, 52
1, 146706, Control_c, 0, 64, 0
1, 146751, Control_c, 0, 64, 127
1, 146777, Note_on_c, 0, 50, 47
1, 146875, Note_on_c, 0, 50, 0
1, 146875, Note_on_c, 0, 57, 47
1, 146875, Note_on_c, 0, 62, 47
1, 146878, Note_on_c, 0, 65, 56
1, 146878, Note_on_c, 0, 38, 0
1, 146878, Note_on_c, 0, 50, 37
1, 146881, Note_on_c, 0, 53, 44
1, 146881, Control_c, 0, 64, 0
1, 146953, Note_on_c, 0, 65, 0
1, 146953, Note_on_c, 0, 62, 0
1, 146953, Note_on_c, 0, 57, 0
1, 146956, Note_on_c, 0, 53, 0
1, 146956, Note_on_c, 0, 50, 0
1, 146956, Control_c, 0, 64, 127
1, 147031, Note_on_c, 0, 62, 48
1, 147031, Note_on_c, 0, 58, 48
1, 147031, Note_on_c, 0, 70, 57
1, 147034, Note_on_c, 0, 46, 41
1, 147034, Note_on_c, 0, 53, 48
1, 147034, Control_c, 0, 64, 0
1, 147109, Note_on_c, 0, 70, 0
1, 147109, Note_on_c, 0, 58, 0
1, 147109, Note_on_c, 0, 62, 0
1, 147112, Note_on_c, 0, 53, 0
1, 147112, Note_on_c, 0, 46, 0
1, 147187, Note_on_c, 0, 41, 38
1, 147233, Control_c, 0, 64, 127
1, 147265, Note_on_c, 0, 53, 38
1, 147343, Note_on_c, 0, 53, 0
1, 147343, Note_on_c, 0, 41, 0
1, 147343, Note_on_c, 0, 39, 39
1, 147350, Control_c, 0, 64, 0
1, 147387, Control_c, 0, 64, 127
1, 147417, Note_on_c, 0, 51, 39
1, 147491, Note_on_c, 0, 51, 0
1, 147491, Note_on_c, 0, 39, 0
1, 147491, Note_on_c, 0, 38, 41
1, 147497, Control_c, 0, 64, 0
1, 147529, Control_c, 0, 64, 127
1, 147564, Note_on_c, 0, 50, 40
1, 147636, Note_on_c, 0, 50, 0
1, 147636, Note_on_c, 0, 38, 0
1, 147636, Note_on_c, 0, 35, 43
1, 147642, Control_c, 0, 64, 0
1, 147674, Control_c, 0, 64, 127
1, 147709, Note_on_c, 0, 47, 41
1, 147781, Note_on_c, 0, 47, 0
1, 147781, Note_on_c, 0, 35, 0
1, 147781, Note_on_c, 0, 34, 48
1, 147786, Control_c, 0, 64, 0
1, 147827, Control_c, 0, 64, 127
1, 147852, Note_on_c, 0, 46, 42
1, 147942, Note_on_c, 0, 46, 0
1, 147942, Note_on_c, 0, 63, 48
1, 147942, Note_on_c, 0, 58, 48
1, 147945, Note_on_c, 0, 70, 58
1, 147945, Note_on_c, 0, 34, 0
1, 147945, Note_on_c, 0, 46, 41
1, 147948, Note_on_c, 0, 54, 48
1, 147948, Control_c, 0, 64, 0
1, 148015, Note_on_c, 0, 70, 0
1, 148015, Note_on_c, 0, 58, 0
1, 148015, Note_on_c, 0, 63, 0
1, 148018, Note_on_c, 0, 54, 0
1, 148018, Note_on_c, 0, 46, 0
1, 148088, Note_on_c, 0, 42, 38
1, 148134, Control_c, 0, 64, 127
1, 148167, Note_on_c, 0, 54, 39
1, 148245, Note_on_c, 0, 54, 0
1, 148245, Note_on_c, 0, 42, 0
1, 148245, Note_on_c, 0, 41, 40
1, 148251, Control_c, 0, 64, 0
1, 148288, Control_c, 0, 64, 127
1, 148318, Note_on_c, 0, 53, 40
1, 148392, Note_on_c, 0, 53, 0
1, 148392, Note_on_c, 0, 41, 0
1, 148392, Note_on_c, 0, 39, 42
1, 148398, Control_c, 0, 64, 0
1, 148430, Control_c, 0, 64, 127
1, 148465, Note_on_c, 0, 51, 41
1, 148538, Note_on_c, 0, 51, 0
1, 148538, Note_on_c, 0, 39, 0
1, 148538, Note_on_c, 0, 35, 44
1, 148543, Control_c, 0, 64, 0
1, 148576, Control_c, 0, 64, 127
1, 148610, Note_on_c, 0, 47, 42
1, 148682, Note_on_c, 0, 47, 0
1, 148682, Note_on_c, 0, 35, 0
1, 148682, Note_on_c, 0, 34, 49
1, 148687, Control_c, 0, 64, 0
1, 148728, Control_c, 0, 64, 127
1, 148753, Note_on_c, 0, 46, 43
1, 148841, Note_on_c, 0, 46, 0
1, 148841, Note_on_c, 0, 65, 50
1, 148841, Note_on_c, 0, 62, 50
1, 148844, Note_on_c, 0, 74, 59
1, 148844, Note_on_c, 0, 34, 0
1, 148844, Note_on_c, 0, 56, 43
1, 148847, Note_on_c, 0, 47, 43
1, 148847, Note_on_c, 0, 59, 50
1, 148847, Control_c, 0, 64, 0
1, 148914, Note_on_c, 0, 74, 0
1, 148914, Note_on_c, 0, 62, 0
1, 148914, Note_on_c, 0, 65, 0
1, 148917, Note_on_c, 0, 59, 0
1, 148917, Note_on_c, 0, 47, 0
1, 148917, Note_on_c, 0, 56, 0
1, 148988, Note_on_c, 0, 44, 39
1, 149033, Control_c, 0, 64, 127
1, 149066, Note_on_c, 0, 56, 39
1, 149144, Note_on_c, 0, 56, 0
1, 149144, Note_on_c, 0, 44, 0
1, 149144, Note_on_c, 0, 41, 40
1, 149150, Control_c, 0, 64, 0
1, 149187, Control_c, 0, 64, 127
1, 149218, Note_on_c, 0, 53, 41
1, 149291, Note_on_c, 0, 53, 0
1, 149291, Note_on_c, 0, 41, 0
1, 149291, Note_on_c, 0, 38, 43
1, 149297, Control_c, 0, 64, 0
1, 149330, Control_c, 0, 64, 127
1, 149364, Note_on_c, 0, 50, 42
1, 149437, Note_on_c, 0, 50, 0
1, 149437, Note_on_c, 0, 38, 0
1, 149437, Note_on_c, 0, 37, 45
1, 149442, Control_c, 0, 64, 0
1, 149475, Control_c, 0, 64, 127
1, 149509, Note_on_c, 0, 49, 43
1, 149581, Note_on_c, 0, 49, 0
1, 149581, Note_on_c, 0, 37, 0
1, 149581, Note_on_c, 0, 35, 51
1, 149587, Control_c, 0, 64, 0
1, 149627, Control_c, 0, 64, 127
1, 149652, Note_on_c, 0, 47, 44
1, 149739, Note_on_c, 0, 47, 0
1, 149739, Note_on_c, 0, 69, 51
1, 149739, Note_on_c, 0, 66, 51
1, 149742, Note_on_c, 0, 78, 60
1, 149742, Note_on_c, 0, 35, 0
1, 149742, Note_on_c, 0, 60, 43
1, 149745, Note_on_c, 0, 51, 43
1, 149745, Note_on_c, 0, 63, 51
1, 149745, Control_c, 0, 64, 0
1, 149812, Note_on_c, 0, 78, 0
1, 149812, Note_on_c, 0, 66, 0
1, 149812, Note_on_c, 0, 69, 0
1, 149815, Note_on_c, 0, 63, 0
1, 149815, Note_on_c, 0, 51, 0
1, 149815, Note_on_c, 0, 60, 0
1, 149885, Note_on_c, 0, 45, 40
1, 149931, Control_c, 0, 64, 127
1, 149964, Note_on_c, 0, 57, 41
1, 150042, Note_on_c, 0, 57, 0
1, 150042, Note_on_c, 0, 45, 0
1, 150042, Note_on_c, 0, 44, 42
1, 150048, Control_c, 0, 64, 0
1, 150085, Control_c, 0, 64, 127
1, 150115, Note_on_c, 0, 56, 42
1, 150189, Note_on_c, 0, 56, 0
1, 150189, Note_on_c, 0, 44, 0
1, 150189, Note_on_c, 0, 42, 44
1, 150195, Control_c, 0, 64, 0
1, 150227, Control_c, 0, 64, 127
1, 150262, Note_on_c, 0, 54, 43
1, 150335, Note_on_c, 0, 54, 0
1, 150335, Note_on_c, 0, 42, 0
1, 150335, Note_on_c, 0, 39, 46
1, 150340, Control_c, 0, 64, 0
1, 150373, Control_c, 0, 64, 127
1, 150407, Note_on_c, 0, 51, 44
1, 150479, Note_on_c, 0, 51, 0
1, 150479, Note_on_c, 0, 39, 0
1, 150479, Note_on_c, 0, 36, 52
1, 150484, Control_c, 0, 64, 0
1, 150525, Control_c, 0, 64, 127
1, 150550, Note_on_c, 0, 48, 45
1, 150674, Note_on_c, 0, 48, 0
1, 150674, Note_on_c, 0, 73, 42
1, 150674, Note_on_c, 0, 78, 42
1, 150677, Note_on_c, 0, 81, 59
1, 150677, Note_on_c, 0, 36, 0
1, 150677, Note_on_c, 0, 61, 28
1, 150680, Note_on_c, 0, 69, 34
1, 150680, Note_on_c, 0, 66, 28
1, 150680, Control_c, 0, 64, 0
1, 150713, Control_c, 0, 64, 127
1, 150820, Note_on_c, 0, 81, 0
1, 150820, Note_on_c, 0, 78, 0
1, 150820, Note_on_c, 0, 73, 0
1, 150823, Note_on_c, 0, 66, 0
1, 150823, Note_on_c, 0, 69, 0
1, 150823, Note_on_c, 0, 61, 0
1, 150897, Note_on_c, 0, 69, 37
1, 150897, Note_on_c, 0, 78, 48
1, 150897, Note_on_c, 0, 73, 37
1, 150900, Note_on_c, 0, 57, 23
1, 150900, Note_on_c, 0, 61, 23
1, 150900, Note_on_c, 0, 66, 28
1, 150936, Note_on_c, 0, 73, 0
1, 150936, Note_on_c, 0, 78, 0
1, 150936, Note_on_c, 0, 69, 0
1, 150939, Note_on_c, 0, 66, 0
1, 150939, Note_on_c, 0, 61, 0
1, 150939, Note_on_c, 0, 57, 0
1, 150974, Note_on_c, 0, 69, 37
1, 150974, Note_on_c, 0, 73, 37
1, 150974, Note_on_c, 0, 78, 48
1, 150977, Note_on_c, 0, 57, 23
1, 150977, Note_on_c, 0, 61, 23
1, 150977, Note_on_c, 0, 66, 28
1, 151057, Note_on_c, 0, 78, 0
1, 151057, Note_on_c, 0, 73, 0
1, 151057, Note_on_c, 0, 69, 0
1, 151060, Note_on_c, 0, 66, 0
1, 151060, Note_on_c, 0, 61, 0
1, 151060, Note_on_c, 0, 57, 0
1, 151140, Note_on_c, 0, 66, 42
1, 151140, Note_on_c, 0, 69, 42
1, 151140, Note_on_c, 0, 73, 55
1, 151143, Note_on_c, 0, 57, 29
1, 151143, Note_on_c, 0, 54, 29
1, 151143, Note_on_c, 0, 61, 35
1, 151149, Control_c, 0, 64, 0
1, 151169, Control_c, 0, 64, 127
1, 151218, Note_on_c, 0, 73, 0
1, 151218, Note_on_c, 0, 69, 0
1, 151218, Note_on_c, 0, 66, 0
1, 151221, Note_on_c, 0, 61, 0
1, 151221, Note_on_c, 0, 54, 0
1, 151221, Note_on_c, 0, 57, 0
1, 151376, Note_on_c, 0, 61, 38
1, 151376, Note_on_c, 0, 69, 49
1, 151376, Note_on_c, 0, 66, 38
1, 151379, Note_on_c, 0, 49, 24
1, 151379, Note_on_c, 0, 54, 24
1, 151379, Note_on_c, 0, 57, 29
1, 151416, Note_on_c, 0, 66, 0
1, 151416, Note_on_c, 0, 69, 0
1, 151416, Note_on_c, 0, 61, 0
1, 151419, Note_on_c, 0, 57, 0
1, 151419, Note_on_c, 0, 54, 0
1, 151419, Note_on_c, 0, 49, 0
1, 151457, Note_on_c, 0, 61, 38
1, 151457, Note_on_c, 0, 69, 49
1, 151457, Note_on_c, 0, 66, 38
1, 151460, Note_on_c, 0, 49, 25
1, 151460, Note_on_c, 0, 57, 30
1, 151460, Note_on_c, 0, 54, 25
1, 151538, Note_on_c, 0, 66, 0
1, 151538, Note_on_c, 0, 69, 0
1, 151538, Note_on_c, 0, 61, 0
1, 151541, Note_on_c, 0, 54, 0
1, 151541, Note_on_c, 0, 57, 0
1, 151541, Note_on_c, 0, 49, 0
1, 151620, Note_on_c, 0, 38, 48
1, 151620, Control_c, 0, 64, 0
1, 151696, Note_on_c, 0, 50, 43
1, 151772, Note_on_c, 0, 50, 0
1, 151772, Note_on_c, 0, 38, 0
1, 151772, Note_on_c, 0, 45, 44
1, 151816, Control_c, 0, 64, 127
1, 151848, Note_on_c, 0, 57, 48
1, 151924, Note_on_c, 0, 57, 0
1, 151924, Note_on_c, 0, 45, 0
1, 151924, Note_on_c, 0, 43, 50
1, 151930, Control_c, 0, 64, 0
1, 151967, Control_c, 0, 64, 127
1, 151998, Note_on_c, 0, 55, 50
1, 152071, Note_on_c, 0, 55, 0
1, 152071, Note_on_c, 0, 43, 0
1, 152071, Note_on_c, 0, 42, 47
1, 152078, Control_c, 0, 64, 0
1, 152110, Control_c, 0, 64, 127
1, 152145, Note_on_c, 0, 54, 47
1, 152217, Note_on_c, 0, 54, 0
1, 152217, Note_on_c, 0, 42, 0
1, 152217, Note_on_c, 0, 40, 43
1, 152223, Control_c, 0, 64, 0
1, 152255, Control_c, 0, 64, 127
1, 152290, Note_on_c, 0, 52, 44
1, 152362, Note_on_c, 0, 52, 0
1, 152362, Note_on_c, 0, 40, 0
1, 152362, Note_on_c, 0, 38, 41
1, 152367, Control_c, 0, 64, 0
1, 152408, Control_c, 0, 64, 127
1, 152432, Note_on_c, 0, 50, 41
1, 152537, Note_on_c, 0, 50, 0
1, 152537, Note_on_c, 0, 74, 42
1, 152537, Note_on_c, 0, 79, 42
1, 152540, Note_on_c, 0, 82, 59
1, 152540, Note_on_c, 0, 38, 0
1, 152540, Note_on_c, 0, 62, 28
1, 152543, Note_on_c, 0, 70, 34
1, 152543, Note_on_c, 0, 67, 28
1, 152543, Control_c, 0, 64, 0
1, 152574, Control_c, 0, 64, 127
1, 152677, Note_on_c, 0, 82, 0
1, 152677, Note_on_c, 0, 79, 0
1, 152677, Note_on_c, 0, 74, 0
1, 152680, Note_on_c, 0, 67, 0
1, 152680, Note_on_c, 0, 70, 0
1, 152680, Note_on_c, 0, 62, 0
1, 152754, Note_on_c, 0, 70, 37
1, 152754, Note_on_c, 0, 79, 48
1, 152754, Note_on_c, 0, 74, 37
1, 152757, Note_on_c, 0, 58, 23
1, 152757, Note_on_c, 0, 62, 23
1, 152757, Note_on_c, 0, 67, 28
1, 152792, Note_on_c, 0, 74, 0
1, 152792, Note_on_c, 0, 79, 0
1, 152792, Note_on_c, 0, 70, 0
1, 152795, Note_on_c, 0, 67, 0
1, 152795, Note_on_c, 0, 62, 0
1, 152795, Note_on_c, 0, 58, 0
1, 152830, Note_on_c, 0, 70, 37
1, 152830, Note_on_c, 0, 74, 37
1, 152830, Note_on_c, 0, 79, 48
1, 152833, Note_on_c, 0, 58, 23
1, 152833, Note_on_c, 0, 62, 23
1, 152833, Note_on_c, 0, 67, 28
1, 152911, Note_on_c, 0, 79, 0
1, 152911, Note_on_c, 0, 74, 0
1, 152911, Note_on_c, 0, 70, 0
1, 152914, Note_on_c, 0, 67, 0
1, 152914, Note_on_c, 0, 62, 0
1, 152914, Note_on_c, 0, 58, 0
1, 152992, Note_on_c, 0, 67, 42
1, 152992, Note_on_c, 0, 70, 42
1, 152992, Note_on_c, 0, 74, 55
1, 152995, Note_on_c, 0, 58, 29
1, 152995, Note_on_c, 0, 55, 29
1, 152995, Note_on_c, 0, 62, 35
1, 153001, Control_c, 0, 64, 0
1, 153021, Control_c, 0, 64, 127
1, 153069, Note_on_c, 0, 74, 0
1, 153069, Note_on_c, 0, 70, 0
1, 153069, Note_on_c, 0, 67, 0
1, 153072, Note_on_c, 0, 62, 0
1, 153072, Note_on_c, 0, 55, 0
1, 153072, Note_on_c, 0, 58, 0
1, 153225, Note_on_c, 0, 62, 38
1, 153225, Note_on_c, 0, 70, 49
1, 153225, Note_on_c, 0, 67, 38
1, 153228, Note_on_c, 0, 50, 24
1, 153228, Note_on_c, 0, 55, 24
1, 153228, Note_on_c, 0, 58, 29
1, 153265, Note_on_c, 0, 67, 0
1, 153265, Note_on_c, 0, 70, 0
1, 153265, Note_on_c, 0, 62, 0
1, 153268, Note_on_c, 0, 58, 0
1, 153268, Note_on_c, 0, 55, 0
1, 153268, Note_on_c, 0, 50, 0
1, 153305, Note_on_c, 0, 62, 38
1, 153305, Note_on_c, 0, 70, 49
1, 153305, Note_on_c, 0, 67, 38
1, 153308, Note_on_c, 0, 50, 25
1, 153308, Note_on_c, 0, 58, 30
1, 153308, Note_on_c, 0, 55, 25
1, 153387, Note_on_c, 0, 67, 0
1, 153387, Note_on_c, 0, 70, 0
1, 153387, Note_on_c, 0, 62, 0
1, 153390, Note_on_c, 0, 55, 0
1, 153390, Note_on_c, 0, 58, 0
1, 153390, Note_on_c, 0, 50, 0
1, 153470, Note_on_c, 0, 39, 48
1, 153470, Control_c, 0, 64, 0
1, 153545, Note_on_c, 0, 51, 43
1, 153621, Note_on_c, 0, 51, 0
1, 153621, Note_on_c, 0, 39, 0
1, 153621, Note_on_c, 0, 46, 44
1, 153666, Control_c, 0, 64, 127
1, 153697, Note_on_c, 0, 58, 48
1, 153774, Note_on_c, 0, 58, 0
1, 153774, Note_on_c, 0, 46, 0
1, 153774, Note_on_c, 0, 44, 50
1, 153780, Control_c, 0, 64, 0
1, 153817, Control_c, 0, 64, 127
1, 153847, Note_on_c, 0, 56, 50
1, 153921, Note_on_c, 0, 56, 0
1, 153921, Note_on_c, 0, 44, 0
1, 153921, Note_on_c, 0, 43, 47
1, 153927, Control_c, 0, 64, 0
1, 153959, Control_c, 0, 64, 127
1, 153994, Note_on_c, 0, 55, 47
1, 154067, Note_on_c, 0, 55, 0
1, 154067, Note_on_c, 0, 43, 0
1, 154067, Note_on_c, 0, 41, 43
1, 154072, Control_c, 0, 64, 0
1, 154105, Control_c, 0, 64, 127
1, 154139, Note_on_c, 0, 53, 44
1, 154211, Note_on_c, 0, 53, 0
1, 154211, Note_on_c, 0, 41, 0
1, 154211, Note_on_c, 0, 39, 41
1, 154216, Control_c, 0, 64, 0
1, 154257, Control_c, 0, 64, 127
1, 154282, Note_on_c, 0, 51, 41
1, 154386, Note_on_c, 0, 51, 0
1, 154386, Note_on_c, 0, 75, 46
1, 154386, Note_on_c, 0, 80, 46
1, 154389, Note_on_c, 0, 83, 64
1, 154389, Note_on_c, 0, 39, 0
1, 154389, Note_on_c, 0, 63, 30
1, 154392, Note_on_c, 0, 71, 37
1, 154392, Note_on_c, 0, 68, 30
1, 154392, Control_c, 0, 64, 0
1, 154423, Control_c, 0, 64, 127
1, 154527, Note_on_c, 0, 83, 0
1, 154527, Note_on_c, 0, 80, 0
1, 154527, Note_on_c, 0, 75, 0
1, 154530, Note_on_c, 0, 68, 0
1, 154530, Note_on_c, 0, 71, 0
1, 154530, Note_on_c, 0, 63, 0
1, 154602, Note_on_c, 0, 71, 40
1, 154602, Note_on_c, 0, 80, 52
1, 154602, Note_on_c, 0, 75, 40
1, 154605, Note_on_c, 0, 59, 25
1, 154605, Note_on_c, 0, 63, 25
1, 154605, Note_on_c, 0, 68, 30
1, 154640, Note_on_c, 0, 75, 0
1, 154640, Note_on_c, 0, 80, 0
1, 154640, Note_on_c, 0, 71, 0
1, 154643, Note_on_c, 0, 68, 0
1, 154643, Note_on_c, 0, 63, 0
1, 154643, Note_on_c, 0, 59, 0
1, 154678, Note_on_c, 0, 71, 40
1, 154678, Note_on_c, 0, 75, 40
1, 154678, Note_on_c, 0, 80, 52
1, 154681, Note_on_c, 0, 59, 25
1, 154681, Note_on_c, 0, 63, 25
1, 154681, Note_on_c, 0, 68, 30
1, 154756, Note_on_c, 0, 80, 0
1, 154756, Note_on_c, 0, 75, 0
1, 154756, Note_on_c, 0, 71, 0
1, 154759, Note_on_c, 0, 68, 0
1, 154759, Note_on_c, 0, 63, 0
1, 154759, Note_on_c, 0, 59, 0
1, 154835, Note_on_c, 0, 68, 46
1, 154835, Note_on_c, 0, 71, 46
1, 154835, Note_on_c, 0, 75, 60
1, 154838, Note_on_c, 0, 59, 31
1, 154838, Note_on_c, 0, 56, 31
1, 154838, Note_on_c, 0, 63, 38
1, 154844, Control_c, 0, 64, 0
1, 154863, Control_c, 0, 64, 127
1, 154911, Note_on_c, 0, 75, 0
1, 154911, Note_on_c, 0, 71, 0
1, 154911, Note_on_c, 0, 68, 0
1, 154914, Note_on_c, 0, 63, 0
1, 154914, Note_on_c, 0, 56, 0
1, 154914, Note_on_c, 0, 59, 0
1, 155067, Note_on_c, 0, 63, 41
1, 155067, Note_on_c, 0, 71, 53
1, 155067, Note_on_c, 0, 68, 41
1, 155070, Note_on_c, 0, 51, 26
1, 155070, Note_on_c, 0, 56, 26
1, 155070, Note_on_c, 0, 59, 31
1, 155107, Note_on_c, 0, 68, 0
1, 155107, Note_on_c, 0, 71, 0
1, 155107, Note_on_c, 0, 63, 0
1, 155110, Note_on_c, 0, 59, 0
1, 155110, Note_on_c, 0, 56, 0
1, 155110, Note_on_c, 0, 51, 0
1, 155147, Note_on_c, 0, 63, 41
1, 155147, Note_on_c, 0, 71, 53
1, 155147, Note_on_c, 0, 68, 41
1, 155150, Note_on_c, 0, 51, 27
1, 155150, Note_on_c, 0, 59, 33
1, 155150, Note_on_c, 0, 56, 27
1, 155231, Note_on_c, 0, 68, 0
1, 155231, Note_on_c, 0, 71, 0
1, 155231, Note_on_c, 0, 63, 0
1, 155234, Note_on_c, 0, 56, 0
1, 155234, Note_on_c, 0, 59, 0
1, 155234, Note_on_c, 0, 51, 0
1, 155315, Note_on_c, 0, 76, 50
1, 155315, Note_on_c, 0, 80, 50
1, 155315, Note_on_c, 0, 88, 70
1, 155318, Note_on_c, 0, 52, 33
1, 155318, Note_on_c, 0, 64, 40
1, 155318, Note_on_c, 0, 59, 33
1, 155321, Control_c, 0, 64, 0
1, 155390, Control_c, 0, 64, 127
1, 155455, Note_on_c, 0, 88, 0
1, 155455, Note_on_c, 0, 80, 0
1, 155455, Note_on_c, 0, 76, 0
1, 155458, Note_on_c, 0, 59, 0
1, 155458, Note_on_c, 0, 64, 0
1, 155458, Note_on_c, 0, 52, 0
1, 155531, Note_on_c, 0, 71, 44
1, 155531, Note_on_c, 0, 83, 58
1, 155531, Note_on_c, 0, 76, 44
1, 155534, Note_on_c, 0, 56, 27
1, 155534, Note_on_c, 0, 59, 33
1, 155568, Note_on_c, 0, 76, 0
1, 155568, Note_on_c, 0, 83, 0
1, 155568, Note_on_c, 0, 71, 0
1, 155571, Note_on_c, 0, 59, 0
1, 155571, Note_on_c, 0, 56, 0
1, 155606, Note_on_c, 0, 71, 44
1, 155606, Note_on_c, 0, 76, 44
1, 155606, Note_on_c, 0, 83, 58
1, 155609, Note_on_c, 0, 56, 27
1, 155609, Note_on_c, 0, 59, 33
1, 155684, Note_on_c, 0, 83, 0
1, 155684, Note_on_c, 0, 76, 0
1, 155684, Note_on_c, 0, 71, 0
1, 155687, Note_on_c, 0, 59, 0
1, 155687, Note_on_c, 0, 56, 0
1, 155763, Note_on_c, 0, 68, 51
1, 155763, Note_on_c, 0, 71, 51
1, 155763, Note_on_c, 0, 80, 67
1, 155766, Note_on_c, 0, 59, 34
1, 155766, Note_on_c, 0, 64, 41
1, 155771, Control_c, 0, 64, 0
1, 155791, Control_c, 0, 64, 127
1, 155839, Note_on_c, 0, 80, 0
1, 155839, Note_on_c, 0, 71, 0
1, 155839, Note_on_c, 0, 68, 0
1, 155842, Note_on_c, 0, 64, 0
1, 155842, Note_on_c, 0, 59, 0
1, 155995, Note_on_c, 0, 64, 45
1, 155995, Note_on_c, 0, 76, 59
1, 155995, Note_on_c, 0, 68, 45
1, 155998, Note_on_c, 0, 56, 28
1, 155998, Note_on_c, 0, 59, 34
1, 156035, Note_on_c, 0, 68, 0
1, 156035, Note_on_c, 0, 76, 0
1, 156035, Note_on_c, 0, 64, 0
1, 156038, Note_on_c, 0, 59, 0
1, 156038, Note_on_c, 0, 56, 0
1, 156075, Note_on_c, 0, 64, 46
1, 156075, Note_on_c, 0, 76, 59
1, 156075, Note_on_c, 0, 68, 46
1, 156078, Note_on_c, 0, 59, 37
1, 156078, Note_on_c, 0, 56, 29
1, 156159, Note_on_c, 0, 68, 0
1, 156159, Note_on_c, 0, 76, 0
1, 156159, Note_on_c, 0, 64, 0
1, 156162, Note_on_c, 0, 56, 0
1, 156162, Note_on_c, 0, 59, 0
1, 156242, Note_on_c, 0, 76, 53
1, 156242, Note_on_c, 0, 81, 53
1, 156242, Note_on_c, 0, 88, 75
1, 156245, Note_on_c, 0, 45, 35
1, 156245, Note_on_c, 0, 60, 43
1, 156245, Note_on_c, 0, 52, 35
1, 156248, Control_c, 0, 64, 0
1, 156317, Control_c, 0, 64, 127
1, 156383, Note_on_c, 0, 88, 0
1, 156383, Note_on_c, 0, 81, 0
1, 156383, Note_on_c, 0, 76, 0
1, 156386, Note_on_c, 0, 52, 0
1, 156386, Note_on_c, 0, 60, 0
1, 156386, Note_on_c, 0, 45, 0
1, 156458, Note_on_c, 0, 72, 47
1, 156458, Note_on_c, 0, 84, 60
1, 156458, Note_on_c, 0, 76, 47
1, 156461, Note_on_c, 0, 60, 35
1, 156461, Note_on_c, 0, 57, 28
1, 156496, Note_on_c, 0, 76, 0
1, 156496, Note_on_c, 0, 84, 0
1, 156496, Note_on_c, 0, 72, 0
1, 156499, Note_on_c, 0, 57, 0
1, 156499, Note_on_c, 0, 60, 0
1, 156533, Note_on_c, 0, 72, 47
1, 156533, Note_on_c, 0, 76, 47
1, 156533, Note_on_c, 0, 84, 60
1, 156536, Note_on_c, 0, 57, 28
1, 156536, Note_on_c, 0, 60, 35
1, 156612, Note_on_c, 0, 84, 0
1, 156612, Note_on_c, 0, 76, 0
1, 156612, Note_on_c, 0, 72, 0
1, 156615, Note_on_c, 0, 60, 0
1, 156615, Note_on_c, 0, 57, 0
1, 156691, Note_on_c, 0, 69, 54
1, 156691, Note_on_c, 0, 72, 54
1, 156691, Note_on_c, 0, 81, 71
1, 156694, Note_on_c, 0, 60, 36
1, 156694, Note_on_c, 0, 64, 44
1, 156700, Control_c, 0, 64, 0
1, 156719, Control_c, 0, 64, 127
1, 156766, Note_on_c, 0, 81, 0
1, 156766, Note_on_c, 0, 72, 0
1, 156766, Note_on_c, 0, 69, 0
1, 156769, Note_on_c, 0, 64, 0
1, 156769, Note_on_c, 0, 60, 0
1, 156920, Note_on_c, 0, 64, 48
1, 156920, Note_on_c, 0, 76, 62
1, 156920, Note_on_c, 0, 69, 48
1, 156923, Note_on_c, 0, 57, 30
1, 156923, Note_on_c, 0, 60, 36
1, 156959, Note_on_c, 0, 69, 0
1, 156959, Note_on_c, 0, 76, 0
1, 156959, Note_on_c, 0, 64, 0
1, 156962, Note_on_c, 0, 60, 0
1, 156962, Note_on_c, 0, 57, 0
1, 156999, Note_on_c, 0, 64, 48
1, 156999, Note_on_c, 0, 76, 62
1, 156999, Note_on_c, 0, 69, 48
1, 157002, Note_on_c, 0, 60, 38
1, 157002, Note_on_c, 0, 57, 31
1, 157081, Note_on_c, 0, 69, 0
1, 157081, Note_on_c, 0, 76, 0
1, 157081, Note_on_c, 0, 64, 0
1, 157084, Note_on_c, 0, 57, 0
1, 157084, Note_on_c, 0, 60, 0
1, 157164, Note_on_c, 0, 77, 57
1, 157164, Note_on_c, 0, 81, 57
1, 157164, Note_on_c, 0, 89, 80
1, 157167, Note_on_c, 0, 41, 37
1, 157167, Note_on_c, 0, 57, 46
1, 157167, Note_on_c, 0, 48, 37
1, 157170, Control_c, 0, 64, 0
1, 157240, Control_c, 0, 64, 127
1, 157306, Note_on_c, 0, 89, 0
1, 157306, Note_on_c, 0, 81, 0
1, 157306, Note_on_c, 0, 77, 0
1, 157309, Note_on_c, 0, 48, 0
1, 157309, Note_on_c, 0, 57, 0
1, 157309, Note_on_c, 0, 41, 0
1, 157380, Note_on_c, 0, 72, 50
1, 157380, Note_on_c, 0, 84, 65
1, 157380, Note_on_c, 0, 77, 50
1, 157383, Note_on_c, 0, 53, 30
1, 157383, Note_on_c, 0, 60, 37
1, 157383, Note_on_c, 0, 57, 30
1, 157417, Note_on_c, 0, 77, 0
1, 157417, Note_on_c, 0, 84, 0
1, 157417, Note_on_c, 0, 72, 0
1, 157420, Note_on_c, 0, 57, 0
1, 157420, Note_on_c, 0, 60, 0
1, 157420, Note_on_c, 0, 53, 0
1, 157455, Note_on_c, 0, 72, 50
1, 157455, Note_on_c, 0, 77, 50
1, 157455, Note_on_c, 0, 84, 65
1, 157458, Note_on_c, 0, 53, 30
1, 157458, Note_on_c, 0, 57, 30
1, 157458, Note_on_c, 0, 60, 37
1, 157533, Note_on_c, 0, 84, 0
1, 157533, Note_on_c, 0, 77, 0
1, 157533, Note_on_c, 0, 72, 0
1, 157536, Note_on_c, 0, 60, 0
1, 157536, Note_on_c, 0, 57, 0
1, 157536, Note_on_c, 0, 53, 0
1, 157611, Note_on_c, 0, 69, 57
1, 157611, Note_on_c, 0, 72, 57
1, 157611, Note_on_c, 0, 81, 75
1, 157614, Note_on_c, 0, 57, 38
1, 157614, Note_on_c, 0, 60, 38
1, 157614, Note_on_c, 0, 65, 47
1, 157620, Control_c, 0, 64, 0
1, 157639, Control_c, 0, 64, 127
1, 157686, Note_on_c, 0, 81, 0
1, 157686, Note_on_c, 0, 72, 0
1, 157686, Note_on_c, 0, 69, 0
1, 157689, Note_on_c, 0, 65, 0
1, 157689, Note_on_c, 0, 60, 0
1, 157689, Note_on_c, 0, 57, 0
1, 157840, Note_on_c, 0, 65, 51
1, 157840, Note_on_c, 0, 77, 66
1, 157840, Note_on_c, 0, 69, 51
1, 157843, Note_on_c, 0, 53, 31
1, 157843, Note_on_c, 0, 57, 31
1, 157843, Note_on_c, 0, 60, 39
1, 157880, Note_on_c, 0, 69, 0
1, 157880, Note_on_c, 0, 77, 0
1, 157880, Note_on_c, 0, 65, 0
1, 157883, Note_on_c, 0, 60, 0
1, 157883, Note_on_c, 0, 57, 0
1, 157883, Note_on_c, 0, 53, 0
1, 157919, Note_on_c, 0, 65, 51
1, 157919, Note_on_c, 0, 77, 66
1, 157919, Note_on_c, 0, 69, 51
1, 157922, Note_on_c, 0, 53, 32
1, 157922, Note_on_c, 0, 60, 41
1, 157922, Note_on_c, 0, 57, 32
1, 158000, Note_on_c, 0, 69, 0
1, 158000, Note_on_c, 0, 77, 0
1, 158000, Note_on_c, 0, 65, 0
1, 158003, Note_on_c, 0, 57, 0
1, 158003, Note_on_c, 0, 60, 0
1, 158003, Note_on_c, 0, 53, 0
1, 158082, Note_on_c, 0, 77, 58
1, 158082, Note_on_c, 0, 80, 58
1, 158082, Note_on_c, 0, 89, 81
1, 158085, Note_on_c, 0, 49, 38
1, 158085, Note_on_c, 0, 61, 46
1, 158085, Note_on_c, 0, 56, 38
1, 158088, Control_c, 0, 64, 0
1, 158157, Control_c, 0, 64, 127
1, 158222, Note_on_c, 0, 89, 0
1, 158222, Note_on_c, 0, 80, 0
1, 158222, Note_on_c, 0, 77, 0
1, 158225, Note_on_c, 0, 56, 0
1, 158225, Note_on_c, 0, 61, 0
1, 158225, Note_on_c, 0, 49, 0
1, 158297, Note_on_c, 0, 73, 51
1, 158297, Note_on_c, 0, 85, 66
1, 158297, Note_on_c, 0, 53, 31
1, 158300, Note_on_c, 0, 65, 38
1, 158334, Note_on_c, 0, 85, 0
1, 158334, Note_on_c, 0, 73, 0
1, 158334, Note_on_c, 0, 65, 0
1, 158337, Note_on_c, 0, 53, 0
1, 158372, Note_on_c, 0, 73, 51
1, 158372, Note_on_c, 0, 85, 66
1, 158372, Note_on_c, 0, 53, 31
1, 158375, Note_on_c, 0, 65, 38
1, 158451, Note_on_c, 0, 85, 0
1, 158451, Note_on_c, 0, 73, 0
1, 158451, Note_on_c, 0, 65, 0
1, 158454, Note_on_c, 0, 53, 0
1, 158530, Note_on_c, 0, 82, 58
1, 158530, Note_on_c, 0, 77, 58
1, 158530, Note_on_c, 0, 85, 58
1, 158533, Note_on_c, 0, 89, 77
1, 158533, Note_on_c, 0, 46, 39
1, 158533, Note_on_c, 0, 58, 48
1, 158538, Control_c, 0, 64, 0
1, 158558, Control_c, 0, 64, 127
1, 158605, Note_on_c, 0, 89, 0
1, 158605, Note_on_c, 0, 82, 0
1, 158605, Note_on_c, 0, 77, 0
1, 158608, Note_on_c, 0, 85, 0
1, 158608, Note_on_c, 0, 58, 0
1, 158608, Note_on_c, 0, 46, 0
1, 158758, Note_on_c, 0, 85, 67
1, 158758, Note_on_c, 0, 73, 52
1, 158758, Note_on_c, 0, 49, 32
1, 158761, Note_on_c, 0, 61, 39
1, 158796, Note_on_c, 0, 73, 0
1, 158796, Note_on_c, 0, 85, 0
1, 158796, Note_on_c, 0, 61, 0
1, 158799, Note_on_c, 0, 49, 0
1, 158835, Note_on_c, 0, 85, 68
1, 158835, Note_on_c, 0, 73, 52
1, 158835, Note_on_c, 0, 49, 33
1, 158838, Note_on_c, 0, 61, 42
1, 158916, Note_on_c, 0, 73, 0
1, 158916, Note_on_c, 0, 85, 0
1, 158916, Note_on_c, 0, 61, 0
1, 158919, Note_on_c, 0, 49, 0
1, 158997, Note_on_c, 0, 85, 59
1, 158997, Note_on_c, 0, 78, 59
1, 158997, Note_on_c, 0, 82, 59
1, 159000, Note_on_c, 0, 90, 83
1, 159000, Note_on_c, 0, 42, 38
1, 159000, Note_on_c, 0, 54, 47
1, 159003, Control_c, 0, 64, 0
1, 159072, Control_c, 0, 64, 127
1, 159138, Note_on_c, 0, 90, 0
1, 159138, Note_on_c, 0, 85, 0
1, 159138, Note_on_c, 0, 78, 0
1, 159141, Note_on_c, 0, 82, 0
1, 159141, Note_on_c, 0, 54, 0
1, 159141, Note_on_c, 0, 42, 0
1, 159212, Note_on_c, 0, 73, 51
1, 159212, Note_on_c, 0, 85, 66
1, 159212, Note_on_c, 0, 46, 31
1, 159215, Note_on_c, 0, 58, 38
1, 159249, Note_on_c, 0, 85, 0
1, 159249, Note_on_c, 0, 73, 0
1, 159249, Note_on_c, 0, 58, 0
1, 159252, Note_on_c, 0, 46, 0
1, 159286, Note_on_c, 0, 73, 51
1, 159286, Note_on_c, 0, 85, 66
1, 159286, Note_on_c, 0, 46, 31
1, 159289, Note_on_c, 0, 58, 38
1, 159363, Note_on_c, 0, 85, 0
1, 159363, Note_on_c, 0, 73, 0
1, 159363, Note_on_c, 0, 58, 0
1, 159366, Note_on_c, 0, 46, 0
1, 159441, Note_on_c, 0, 82, 59
1, 159441, Note_on_c, 0, 78, 59
1, 159441, Note_on_c, 0, 87, 59
1, 159444, Note_on_c, 0, 90, 78
1, 159444, Note_on_c, 0, 39, 40
1, 159444, Note_on_c, 0, 51, 49
1, 159449, Control_c, 0, 64, 0
1, 159469, Control_c, 0, 64, 127
1, 159515, Note_on_c, 0, 90, 0
1, 159515, Note_on_c, 0, 82, 0
1, 159515, Note_on_c, 0, 78, 0
1, 159518, Note_on_c, 0, 87, 0
1, 159518, Note_on_c, 0, 51, 0
1, 159518, Note_on_c, 0, 39, 0
1, 159668, Note_on_c, 0, 87, 68
1, 159668, Note_on_c, 0, 75, 53
1, 159668, Note_on_c, 0, 42, 32
1, 159671, Note_on_c, 0, 54, 40
1, 159707, Note_on_c, 0, 75, 0
1, 159707, Note_on_c, 0, 87, 0
1, 159707, Note_on_c, 0, 54, 0
1, 159710, Note_on_c, 0, 42, 0
1, 159746, Note_on_c, 0, 87, 68
1, 159746, Note_on_c, 0, 75, 53
1, 159746, Note_on_c, 0, 42, 33
1, 159749, Note_on_c, 0, 54, 42
1, 159828, Note_on_c, 0, 75, 0
1, 159828, Note_on_c, 0, 87, 0
1, 159828, Note_on_c, 0, 54, 0
1, 159831, Note_on_c, 0, 42, 0
1, 159910, Note_on_c, 0, 78, 53
1, 159910, Note_on_c, 0, 87, 63
1, 159910, Note_on_c, 0, 35, 37
1, 159913, Note_on_c, 0, 47, 37
1, 159938, Control_c, 0, 64, 0
1, 159986, Note_on_c, 0, 87, 0
1, 159986, Note_on_c, 0, 78, 0
1, 159986, Note_on_c, 0, 90, 56
1, 159989, Control_c, 0, 64, 127
1, 160062, Note_on_c, 0, 90, 0
1, 160062, Note_on_c, 0, 78, 53
1, 160062, Note_on_c, 0, 87, 63
1, 160065, Note_on_c, 0, 47, 0
1, 160065, Note_on_c, 0, 35, 0
1, 160065, Note_on_c, 0, 54, 48
1, 160137, Note_on_c, 0, 87, 0
1, 160137, Note_on_c, 0, 78, 0
1, 160137, Note_on_c, 0, 90, 56
1, 160213, Note_on_c, 0, 90, 0
1, 160213, Note_on_c, 0, 78, 54
1, 160213, Note_on_c, 0, 87, 64
1, 160216, Note_on_c, 0, 54, 0
1, 160216, Note_on_c, 0, 52, 45
1, 160288, Note_on_c, 0, 87, 0
1, 160288, Note_on_c, 0, 78, 0
1, 160288, Note_on_c, 0, 90, 57
1, 160362, Note_on_c, 0, 90, 0
1, 160362, Note_on_c, 0, 78, 54
1, 160362, Note_on_c, 0, 87, 64
1, 160365, Note_on_c, 0, 52, 0
1, 160365, Note_on_c, 0, 51, 45
1, 160365, Control_c, 0, 64, 0
1, 160433, Control_c, 0, 64, 127
1, 160436, Note_on_c, 0, 87, 0
1, 160436, Note_on_c, 0, 78, 0
1, 160436, Note_on_c, 0, 90, 57
1, 160510, Note_on_c, 0, 90, 0
1, 160510, Note_on_c, 0, 78, 55
1, 160510, Note_on_c, 0, 87, 65
1, 160513, Note_on_c, 0, 51, 0
1, 160513, Note_on_c, 0, 49, 43
1, 160584, Note_on_c, 0, 87, 0
1, 160584, Note_on_c, 0, 78, 0
1, 160584, Note_on_c, 0, 90, 59
1, 160658, Note_on_c, 0, 90, 0
1, 160658, Note_on_c, 0, 78, 55
1, 160658, Note_on_c, 0, 87, 66
1, 160661, Note_on_c, 0, 49, 0
1, 160661, Note_on_c, 0, 47, 43
1, 160733, Note_on_c, 0, 87, 0
1, 160733, Note_on_c, 0, 78, 0
1, 160733, Note_on_c, 0, 90, 59
1, 160808, Note_on_c, 0, 90, 0
1, 160808, Note_on_c, 0, 80, 56
1, 160808, Note_on_c, 0, 87, 66
1, 160811, Note_on_c, 0, 47, 0
1, 160811, Note_on_c, 0, 63, 38
1, 160811, Note_on_c, 0, 71, 46
1, 160814, Control_c, 0, 64, 0
1, 160840, Control_c, 0, 64, 127
1, 160879, Note_on_c, 0, 87, 0
1, 160879, Note_on_c, 0, 80, 0
1, 160879, Note_on_c, 0, 92, 59
1, 160950, Note_on_c, 0, 92, 0
1, 160950, Note_on_c, 0, 80, 56
1, 160950, Note_on_c, 0, 87, 67
1, 160953, Note_on_c, 0, 71, 0
1, 160953, Note_on_c, 0, 63, 0
1, 161024, Note_on_c, 0, 87, 0
1, 161024, Note_on_c, 0, 80, 0
1, 161024, Note_on_c, 0, 92, 59
1, 161027, Note_on_c, 0, 59, 31
1, 161027, Note_on_c, 0, 68, 38
1, 161062, Note_on_c, 0, 68, 0
1, 161062, Note_on_c, 0, 59, 0
1, 161099, Note_on_c, 0, 92, 0
1, 161099, Note_on_c, 0, 80, 57
1, 161099, Note_on_c, 0, 87, 68
1, 161102, Note_on_c, 0, 59, 31
1, 161102, Note_on_c, 0, 68, 38
1, 161178, Note_on_c, 0, 87, 0
1, 161178, Note_on_c, 0, 80, 0
1, 161178, Note_on_c, 0, 92, 58
1, 161181, Note_on_c, 0, 68, 0
1, 161181, Note_on_c, 0, 59, 0
1, 161258, Note_on_c, 0, 92, 0
1, 161258, Note_on_c, 0, 80, 57
1, 161258, Note_on_c, 0, 87, 68
1, 161261, Note_on_c, 0, 56, 40
1, 161261, Note_on_c, 0, 63, 49
1, 161261, Control_c, 0, 64, 0
1, 161285, Control_c, 0, 64, 127
1, 161334, Note_on_c, 0, 87, 0
1, 161334, Note_on_c, 0, 80, 0
1, 161334, Note_on_c, 0, 92, 59
1, 161337, Note_on_c, 0, 63, 0
1, 161337, Note_on_c, 0, 56, 0
1, 161410, Note_on_c, 0, 92, 0
1, 161410, Note_on_c, 0, 80, 58
1, 161410, Note_on_c, 0, 87, 69
1, 161489, Note_on_c, 0, 87, 0
1, 161489, Note_on_c, 0, 80, 0
1, 161489, Note_on_c, 0, 92, 60
1, 161492, Note_on_c, 0, 51, 33
1, 161492, Note_on_c, 0, 59, 40
1, 161528, Note_on_c, 0, 59, 0
1, 161528, Note_on_c, 0, 51, 0
1, 161568, Note_on_c, 0, 92, 0
1, 161568, Note_on_c, 0, 80, 58
1, 161568, Note_on_c, 0, 87, 69
1, 161571, Note_on_c, 0, 51, 34
1, 161571, Note_on_c, 0, 59, 43
1, 161651, Note_on_c, 0, 87, 0
1, 161651, Note_on_c, 0, 80, 0
1, 161651, Note_on_c, 0, 92, 61
1, 161654, Note_on_c, 0, 59, 0
1, 161654, Note_on_c, 0, 51, 0
1, 161734, Note_on_c, 0, 92, 0
1, 161734, Note_on_c, 0, 83, 59
1, 161734, Note_on_c, 0, 87, 70
1, 161737, Note_on_c, 0, 32, 41
1, 161737, Note_on_c, 0, 44, 41
1, 161762, Control_c, 0, 64, 0
1, 161809, Note_on_c, 0, 87, 0
1, 161809, Note_on_c, 0, 83, 0
1, 161809, Note_on_c, 0, 95, 63
1, 161813, Control_c, 0, 64, 127
1, 161884, Note_on_c, 0, 95, 0
1, 161884, Note_on_c, 0, 83, 59
1, 161884, Note_on_c, 0, 87, 71
1, 161887, Note_on_c, 0, 44, 0
1, 161887, Note_on_c, 0, 32, 0
1, 161887, Note_on_c, 0, 51, 54
1, 161959, Note_on_c, 0, 87, 0
1, 161959, Note_on_c, 0, 83, 0
1, 161959, Note_on_c, 0, 95, 63
1, 162033, Note_on_c, 0, 95, 0
1, 162033, Note_on_c, 0, 83, 60
1, 162033, Note_on_c, 0, 87, 71
1, 162036, Note_on_c, 0, 51, 0
1, 162036, Note_on_c, 0, 49, 51
1, 162106, Note_on_c, 0, 87, 0
1, 162106, Note_on_c, 0, 83, 0
1, 162106, Note_on_c, 0, 95, 64
1, 162180, Note_on_c, 0, 95, 0
1, 162180, Note_on_c, 0, 83, 60
1, 162180, Note_on_c, 0, 87, 72
1, 162183, Note_on_c, 0, 49, 0
1, 162183, Note_on_c, 0, 47, 50
1, 162183, Control_c, 0, 64, 0
1, 162249, Control_c, 0, 64, 127
1, 162252, Note_on_c, 0, 87, 0
1, 162252, Note_on_c, 0, 83, 0
1, 162252, Note_on_c, 0, 95, 64
1, 162325, Note_on_c, 0, 95, 0
1, 162325, Note_on_c, 0, 83, 61
1, 162325, Note_on_c, 0, 87, 73
1, 162328, Note_on_c, 0, 47, 0
1, 162328, Note_on_c, 0, 46, 48
1, 162397, Note_on_c, 0, 87, 0
1, 162397, Note_on_c, 0, 83, 0
1, 162397, Note_on_c, 0, 95, 66
1, 162470, Note_on_c, 0, 95, 0
1, 162470, Note_on_c, 0, 83, 62
1, 162470, Note_on_c, 0, 87, 73
1, 162473, Note_on_c, 0, 46, 0
1, 162473, Note_on_c, 0, 44, 47
1, 162544, Note_on_c, 0, 87, 0
1, 162544, Note_on_c, 0, 83, 0
1, 162544, Note_on_c, 0, 95, 67
1, 162618, Note_on_c, 0, 95, 0
1, 162618, Note_on_c, 0, 83, 62
1, 162618, Note_on_c, 0, 86, 74
1, 162621, Note_on_c, 0, 44, 0
1, 162621, Note_on_c, 0, 62, 42
1, 162621, Note_on_c, 0, 71, 51
1, 162624, Control_c, 0, 64, 0
1, 162650, Control_c, 0, 64, 127
1, 162688, Note_on_c, 0, 86, 0
1, 162688, Note_on_c, 0, 83, 0
1, 162688, Note_on_c, 0, 95, 66
1, 162759, Note_on_c, 0, 95, 0
1, 162759, Note_on_c, 0, 83, 63
1, 162759, Note_on_c, 0, 86, 74
1, 162762, Note_on_c, 0, 71, 0
1, 162762, Note_on_c, 0, 62, 0
1, 162835, Note_on_c, 0, 86, 0
1, 162835, Note_on_c, 0, 83, 0
1, 162835, Note_on_c, 0, 95, 67
1, 162838, Note_on_c, 0, 59, 34
1, 162838, Note_on_c, 0, 65, 43
1, 162873, Note_on_c, 0, 65, 0
1, 162873, Note_on_c, 0, 59, 0
1, 162911, Note_on_c, 0, 95, 0
1, 162911, Note_on_c, 0, 83, 63
1, 162911, Note_on_c, 0, 86, 75
1, 162914, Note_on_c, 0, 59, 34
1, 162914, Note_on_c, 0, 65, 43
1, 162990, Note_on_c, 0, 86, 0
1, 162990, Note_on_c, 0, 83, 0
1, 162990, Note_on_c, 0, 95, 65
1, 162993, Note_on_c, 0, 65, 0
1, 162993, Note_on_c, 0, 59, 0
1, 163070, Note_on_c, 0, 95, 0
1, 163070, Note_on_c, 0, 83, 64
1, 163070, Note_on_c, 0, 86, 76
1, 163073, Note_on_c, 0, 53, 44
1, 163073, Note_on_c, 0, 62, 54
1, 163073, Control_c, 0, 64, 0
1, 163097, Control_c, 0, 64, 127
1, 163146, Note_on_c, 0, 86, 0
1, 163146, Note_on_c, 0, 83, 0
1, 163146, Note_on_c, 0, 95, 67
1, 163149, Note_on_c, 0, 62, 0
1, 163149, Note_on_c, 0, 53, 0
1, 163223, Note_on_c, 0, 95, 0
1, 163223, Note_on_c, 0, 83, 64
1, 163223, Note_on_c, 0, 86, 76
1, 163301, Note_on_c, 0, 86, 0
1, 163301, Note_on_c, 0, 83, 0
1, 163301, Note_on_c, 0, 95, 67
1, 163304, Note_on_c, 0, 50, 36
1, 163304, Note_on_c, 0, 59, 45
1, 163340, Note_on_c, 0, 59, 0
1, 163340, Note_on_c, 0, 50, 0
1, 163379, Note_on_c, 0, 95, 0
1, 163379, Note_on_c, 0, 83, 65
1, 163379, Note_on_c, 0, 86, 77
1, 163382, Note_on_c, 0, 50, 38
1, 163382, Note_on_c, 0, 59, 47
1, 163460, Note_on_c, 0, 86, 0
1, 163460, Note_on_c, 0, 83, 0
1, 163460, Note_on_c, 0, 95, 68
1, 163463, Note_on_c, 0, 59, 0
1, 163463, Note_on_c, 0, 50, 0
1, 163540, Note_on_c, 0, 95, 0
1, 163540, Note_on_c, 0, 84, 66
1, 163540, Note_on_c, 0, 87, 78
1, 163543, Note_on_c, 0, 44, 49
1, 163543, Note_on_c, 0, 56, 60
1, 163543, Control_c, 0, 64, 0
1, 163572, Control_c, 0, 64, 127
1, 163610, Note_on_c, 0, 87, 0
1, 163610, Note_on_c, 0, 84, 0
1, 163610, Note_on_c, 0, 96, 70
1, 163680, Note_on_c, 0, 96, 0
1, 163680, Note_on_c, 0, 84, 66
1, 163680, Note_on_c, 0, 87, 79
1, 163683, Note_on_c, 0, 56, 0
1, 163683, Note_on_c, 0, 44, 0
1, 163755, Note_on_c, 0, 87, 0
1, 163755, Note_on_c, 0, 84, 0
1, 163755, Note_on_c, 0, 96, 70
1, 163758, Note_on_c, 0, 39, 39
1, 163758, Note_on_c, 0, 51, 49
1, 163792, Note_on_c, 0, 51, 0
1, 163792, Note_on_c, 0, 39, 0
1, 163829, Note_on_c, 0, 96, 0
1, 163829, Note_on_c, 0, 84, 67
1, 163829, Note_on_c, 0, 87, 80
1, 163832, Note_on_c, 0, 39, 40
1, 163832, Note_on_c, 0, 51, 50
1, 163905, Note_on_c, 0, 87, 0
1, 163905, Note_on_c, 0, 84, 0
1, 163905, Note_on_c, 0, 96, 68
1, 163908, Note_on_c, 0, 51, 0
1, 163908, Note_on_c, 0, 39, 0
1, 163982, Note_on_c, 0, 96, 0
1, 163982, Note_on_c, 0, 85, 67
1, 163982, Note_on_c, 0, 88, 80
1, 163985, Note_on_c, 0, 44, 53
1, 163985, Note_on_c, 0, 56, 64
1, 163985, Control_c, 0, 64, 0
1, 164008, Control_c, 0, 64, 127
1, 164055, Note_on_c, 0, 88, 0
1, 164055, Note_on_c, 0, 85, 0
1, 164055, Note_on_c, 0, 97, 71
1, 164058, Note_on_c, 0, 56, 0
1, 164058, Note_on_c, 0, 44, 0
1, 164129, Note_on_c, 0, 97, 0
1, 164129, Note_on_c, 0, 85, 69
1, 164129, Note_on_c, 0, 88, 82
1, 164205, Note_on_c, 0, 88, 0
1, 164205, Note_on_c, 0, 85, 0
1, 164205, Note_on_c, 0, 97, 71
1, 164208, Note_on_c, 0, 37, 43
1, 164208, Note_on_c, 0, 49, 53
1, 164244, Note_on_c, 0, 49, 0
1, 164244, Note_on_c, 0, 37, 0
1, 164282, Note_on_c, 0, 97, 0
1, 164282, Note_on_c, 0, 85, 70
1, 164282, Note_on_c, 0, 88, 83
1, 164285, Note_on_c, 0, 37, 46
1, 164285, Note_on_c, 0, 49, 57
1, 164363, Note_on_c, 0, 88, 0
1, 164363, Note_on_c, 0, 85, 0
1, 164363, Note_on_c, 0, 97, 73
1, 164366, Note_on_c, 0, 49, 0
1, 164366, Note_on_c, 0, 37, 0
1, 164443, Note_on_c, 0, 97, 0
1, 164443, Note_on_c, 0, 86, 71
1, 164443, Note_on_c, 0, 89, 84
1, 164446, Note_on_c, 0, 44, 54
1, 164446, Note_on_c, 0, 56, 66
1, 164446, Control_c, 0, 64, 0
1, 164475, Control_c, 0, 64, 127
1, 164513, Note_on_c, 0, 89, 0
1, 164513, Note_on_c, 0, 86, 0
1, 164513, Note_on_c, 0, 98, 75
1, 164583, Note_on_c, 0, 98, 0
1, 164583, Note_on_c, 0, 86, 71
1, 164583, Note_on_c, 0, 89, 86
1, 164586, Note_on_c, 0, 56, 0
1, 164586, Note_on_c, 0, 44, 0
1, 164655, Note_on_c, 0, 89, 0
1, 164655, Note_on_c, 0, 86, 0
1, 164655, Note_on_c, 0, 98, 75
1, 164658, Note_on_c, 0, 35, 44
1, 164658, Note_on_c, 0, 47, 54
1, 164691, Note_on_c, 0, 47, 0
1, 164691, Note_on_c, 0, 35, 0
1, 164727, Note_on_c, 0, 98, 0
1, 164727, Note_on_c, 0, 86, 72
1, 164727, Note_on_c, 0, 89, 86
1, 164730, Note_on_c, 0, 35, 44
1, 164730, Note_on_c, 0, 47, 55
1, 164803, Note_on_c, 0, 89, 0
1, 164803, Note_on_c, 0, 86, 0
1, 164803, Note_on_c, 0, 98, 74
1, 164806, Note_on_c, 0, 47, 0
1, 164806, Note_on_c, 0, 35, 0
1, 164880, Note_on_c, 0, 98, 0
1, 164880, Note_on_c, 0, 86, 74
1, 164880, Note_on_c, 0, 89, 88
1, 164883, Note_on_c, 0, 44, 58
1, 164883, Note_on_c, 0, 56, 71
1, 164883, Control_c, 0, 64, 0
1, 164906, Control_c, 0, 64, 127
1, 164953, Note_on_c, 0, 89, 0
1, 164953, Note_on_c, 0, 86, 0
1, 164953, Note_on_c, 0, 98, 76
1, 164956, Note_on_c, 0, 56, 0
1, 164956, Note_on_c, 0, 44, 0
1, 165027, Note_on_c, 0, 98, 0
1, 165027, Note_on_c, 0, 86, 75
1, 165027, Note_on_c, 0, 89, 90
1, 165103, Note_on_c, 0, 89, 0
1, 165103, Note_on_c, 0, 86, 0
1, 165103, Note_on_c, 0, 98, 78
1, 165106, Note_on_c, 0, 34, 48
1, 165106, Note_on_c, 0, 46, 58
1, 165141, Note_on_c, 0, 46, 0
1, 165141, Note_on_c, 0, 34, 0
1, 165179, Note_on_c, 0, 98, 0
1, 165179, Note_on_c, 0, 86, 76
1, 165179, Note_on_c, 0, 89, 90
1, 165182, Note_on_c, 0, 34, 50
1, 165182, Note_on_c, 0, 46, 64
1, 165259, Note_on_c, 0, 89, 0
1, 165259, Note_on_c, 0, 86, 0
1, 165259, Note_on_c, 0, 98, 79
1, 165262, Note_on_c, 0, 46, 0
1, 165262, Note_on_c, 0, 34, 0
1, 165339, Note_on_c, 0, 98, 0
1, 165339, Note_on_c, 0, 86, 77
1, 165339, Note_on_c, 0, 89, 92
1, 165342, Note_on_c, 0, 45, 59
1, 165342, Note_on_c, 0, 57, 73
1, 165342, Control_c, 0, 64, 0
1, 165370, Control_c, 0, 64, 127
1, 165408, Note_on_c, 0, 89, 0
1, 165408, Note_on_c, 0, 86, 0
1, 165408, Note_on_c, 0, 98, 82
1, 165477, Note_on_c, 0, 98, 0
1, 165477, Note_on_c, 0, 86, 78
1, 165477, Note_on_c, 0, 89, 92
1, 165480, Note_on_c, 0, 57, 0
1, 165480, Note_on_c, 0, 45, 0
1, 165549, Note_on_c, 0, 89, 0
1, 165549, Note_on_c, 0, 86, 0
1, 165549, Note_on_c, 0, 98, 83
1, 165552, Note_on_c, 0, 33, 49
1, 165552, Note_on_c, 0, 45, 61
1, 165586, Note_on_c, 0, 45, 0
1, 165586, Note_on_c, 0, 33, 0
1, 165622, Note_on_c, 0, 98, 0
1, 165622, Note_on_c, 0, 86, 78
1, 165622, Note_on_c, 0, 89, 93
1, 165625, Note_on_c, 0, 33, 49
1, 165625, Note_on_c, 0, 45, 62
1, 165699, Note_on_c, 0, 89, 0
1, 165699, Note_on_c, 0, 86, 0
1, 165699, Note_on_c, 0, 98, 81
1, 165702, Note_on_c, 0, 45, 0
1, 165702, Note_on_c, 0, 33, 0
1, 165777, Note_on_c, 0, 98, 0
1, 165777, Note_on_c, 0, 86, 80
1, 165777, Note_on_c, 0, 89, 95
1, 165780, Note_on_c, 0, 46, 63
1, 165780, Note_on_c, 0, 58, 78
1, 165780, Control_c, 0, 64, 0
1, 165803, Control_c, 0, 64, 127
1, 165851, Note_on_c, 0, 89, 0
1, 165851, Note_on_c, 0, 86, 0
1, 165851, Note_on_c, 0, 98, 83
1, 165854, Note_on_c, 0, 58, 0
1, 165854, Note_on_c, 0, 46, 0
1, 165928, Note_on_c, 0, 98, 0
1, 165928, Note_on_c, 0, 86, 80
1, 165928, Note_on_c, 0, 89, 95
1, 166004, Note_on_c, 0, 89, 0
1, 166004, Note_on_c, 0, 86, 0
1, 166004, Note_on_c, 0, 98, 85
1, 166007, Note_on_c, 0, 32, 52
1, 166007, Note_on_c, 0, 44, 65
1, 166042, Note_on_c, 0, 44, 0
1, 166042, Note_on_c, 0, 32, 0
1, 166080, Note_on_c, 0, 98, 0
1, 166080, Note_on_c, 0, 86, 82
1, 166080, Note_on_c, 0, 89, 97
1, 166083, Note_on_c, 0, 32, 55
1, 166083, Note_on_c, 0, 44, 69
1, 166160, Note_on_c, 0, 89, 0
1, 166160, Note_on_c, 0, 86, 0
1, 166160, Note_on_c, 0, 98, 85
1, 166163, Note_on_c, 0, 44, 0
1, 166163, Note_on_c, 0, 32, 0
1, 166241, Note_on_c, 0, 98, 0
1, 166241, Note_on_c, 0, 86, 82
1, 166241, Note_on_c, 0, 89, 99
1, 166244, Note_on_c, 0, 47, 65
1, 166244, Note_on_c, 0, 59, 79
1, 166244, Control_c, 0, 64, 0
1, 166273, Control_c, 0, 64, 127
1, 166312, Note_on_c, 0, 89, 0
1, 166312, Note_on_c, 0, 86, 0
1, 166312, Note_on_c, 0, 98, 88
1, 166382, Note_on_c, 0, 98, 0
1, 166382, Note_on_c, 0, 86, 84
1, 166382, Note_on_c, 0, 89, 99
1, 166385, Note_on_c, 0, 59, 0
1, 166385, Note_on_c, 0, 47, 0
1, 166464, Note_on_c, 0, 89, 0
1, 166464, Note_on_c, 0, 86, 0
1, 166464, Note_on_c, 0, 98, 89
1, 166467, Note_on_c, 0, 32, 54
1, 166467, Note_on_c, 0, 44, 67
1, 166505, Note_on_c, 0, 44, 0
1, 166505, Note_on_c, 0, 32, 0
1, 166546, Note_on_c, 0, 98, 0
1, 166546, Note_on_c, 0, 86, 85
1, 166546, Note_on_c, 0, 89, 101
1, 166549, Note_on_c, 0, 32, 54
1, 166549, Note_on_c, 0, 44, 67
1, 166629, Note_on_c, 0, 89, 0
1, 166629, Note_on_c, 0, 86, 0
1, 166629, Note_on_c, 0, 98, 87
1, 166632, Note_on_c, 0, 44, 0
1, 166632, Note_on_c, 0, 32, 0
1, 166713, Note_on_c, 0, 98, 0
1, 166713, Note_on_c, 0, 87, 86
1, 166713, Note_on_c, 0, 90, 101
1, 166716, Note_on_c, 0, 47, 70
1, 166716, Note_on_c, 0, 59, 85
1, 166716, Control_c, 0, 64, 0
1, 166743, Control_c, 0, 64, 127
1, 166798, Note_on_c, 0, 90, 0
1, 166798, Note_on_c, 0, 87, 0
1, 166798, Note_on_c, 0, 99, 90
1, 166801, Note_on_c, 0, 59, 0
1, 166801, Note_on_c, 0, 47, 0
1, 166885, Note_on_c, 0, 99, 0
1, 166885, Note_on_c, 0, 87, 87
1, 166885, Note_on_c, 0, 90, 103
1, 166976, Note_on_c, 0, 90, 0
1, 166976, Note_on_c, 0, 87, 0
1, 166976, Note_on_c, 0, 99, 91
1, 166979, Note_on_c, 0, 31, 58
1, 166979, Note_on_c, 0, 43, 71
1, 167024, Note_on_c, 0, 43, 0
1, 167024, Note_on_c, 0, 31, 0
1, 167073, Note_on_c, 0, 99, 0
1, 167073, Note_on_c, 0, 87, 88
1, 167073, Note_on_c, 0, 90, 105
1, 167076, Note_on_c, 0, 31, 59
1, 167076, Note_on_c, 0, 43, 75
1, 167177, Note_on_c, 0, 90, 0
1, 167177, Note_on_c, 0, 87, 0
1, 167177, Note_on_c, 0, 99, 92
1, 167180, Note_on_c, 0, 43, 0
1, 167180, Note_on_c, 0, 31, 0
1, 167280, Note_on_c, 0, 99, 0
1, 167280, Note_on_c, 0, 96, 84
1, 167280, Note_on_c, 0, 88, 84
1, 167283, Note_on_c, 0, 91, 84
1, 167283, Note_on_c, 0, 100, 118
1, 167283, Note_on_c, 0, 36, 56
1, 167286, Note_on_c, 0, 40, 56
1, 167286, Note_on_c, 0, 43, 56
1, 167286, Note_on_c, 0, 48, 68
1, 167290, Control_c, 0, 64, 0
1, 167359, Control_c, 0, 64, 127
1, 167437, Note_on_c, 0, 100, 0
1, 167437, Note_on_c, 0, 96, 0
1, 167437, Note_on_c, 0, 88, 0
1, 167440, Note_on_c, 0, 91, 0
1, 167440, Note_on_c, 0, 48, 0
1, 167440, Note_on_c, 0, 36, 0
1, 167443, Note_on_c, 0, 40, 0
1, 167443, Note_on_c, 0, 43, 0
1, 167518, Note_on_c, 0, 84, 74
1, 167518, Note_on_c, 0, 88, 74
1, 167518, Note_on_c, 0, 91, 74
1, 167521, Note_on_c, 0, 96, 96
1, 167521, Note_on_c, 0, 40, 46
1, 167521, Note_on_c, 0, 43, 46
1, 167524, Note_on_c, 0, 52, 56
1, 167524, Note_on_c, 0, 48, 46
1, 167556, Note_on_c, 0, 96, 0
1, 167556, Note_on_c, 0, 84, 0
1, 167556, Note_on_c, 0, 88, 0
1, 167559, Note_on_c, 0, 91, 0
1, 167559, Note_on_c, 0, 48, 0
1, 167559, Note_on_c, 0, 40, 0
1, 167562, Note_on_c, 0, 43, 0
1, 167562, Note_on_c, 0, 52, 0
1, 167594, Note_on_c, 0, 88, 74
1, 167594, Note_on_c, 0, 84, 74
1, 167594, Note_on_c, 0, 91, 74
1, 167597, Note_on_c, 0, 96, 96
1, 167597, Note_on_c, 0, 40, 46
1, 167597, Note_on_c, 0, 43, 46
1, 167600, Note_on_c, 0, 48, 46
1, 167600, Note_on_c, 0, 52, 56
1, 167677, Note_on_c, 0, 96, 0
1, 167677, Note_on_c, 0, 88, 0
1, 167677, Note_on_c, 0, 84, 0
1, 167680, Note_on_c, 0, 91, 0
1, 167680, Note_on_c, 0, 52, 0
1, 167680, Note_on_c, 0, 40, 0
1, 167683, Note_on_c, 0, 43, 0
1, 167683, Note_on_c, 0, 48, 0
1, 167759, Note_on_c, 0, 96, 110
1, 167759, Note_on_c, 0, 88, 84
1, 167759, Note_on_c, 0, 84, 84
1, 167762, Note_on_c, 0, 91, 84
1, 167762, Note_on_c, 0, 40, 58
1, 167762, Note_on_c, 0, 43, 58
1, 167765, Note_on_c, 0, 48, 58
1, 167765, Note_on_c, 0, 52, 70
1, 167839, Note_on_c, 0, 91, 0
1, 167839, Note_on_c, 0, 96, 0
1, 167839, Note_on_c, 0, 88, 0
1, 167842, Note_on_c, 0, 84, 0
1, 167842, Note_on_c, 0, 52, 0
1, 167842, Note_on_c, 0, 40, 0
1, 167845, Note_on_c, 0, 43, 0
1, 167845, Note_on_c, 0, 48, 0
1, 168002, Note_on_c, 0, 79, 76
1, 168002, Note_on_c, 0, 84, 76
1, 168002, Note_on_c, 0, 88, 76
1, 168005, Note_on_c, 0, 91, 98
1, 168005, Note_on_c, 0, 43, 48
1, 168005, Note_on_c, 0, 48, 48
1, 168008, Note_on_c, 0, 55, 58
1, 168008, Note_on_c, 0, 52, 48
1, 168042, Note_on_c, 0, 91, 0
1, 168042, Note_on_c, 0, 79, 0
1, 168042, Note_on_c, 0, 84, 0
1, 168045, Note_on_c, 0, 88, 0
1, 168045, Note_on_c, 0, 52, 0
1, 168045, Note_on_c, 0, 43, 0
1, 168048, Note_on_c, 0, 48, 0
1, 168048, Note_on_c, 0, 55, 0
1, 168083, Note_on_c, 0, 79, 76
1, 168083, Note_on_c, 0, 84, 76
1, 168083, Note_on_c, 0, 88, 76
1, 168086, Note_on_c, 0, 91, 98
1, 168086, Note_on_c, 0, 43, 50
1, 168086, Note_on_c, 0, 48, 50
1, 168089, Note_on_c, 0, 52, 50
1, 168089, Note_on_c, 0, 55, 60
1, 168169, Note_on_c, 0, 91, 0
1, 168169, Note_on_c, 0, 79, 0
1, 168169, Note_on_c, 0, 84, 0
1, 168172, Note_on_c, 0, 88, 0
1, 168172, Note_on_c, 0, 55, 0
1, 168172, Note_on_c, 0, 43, 0
1, 168175, Note_on_c, 0, 48, 0
1, 168175, Note_on_c, 0, 52, 0
1, 168256, Note_on_c, 0, 84, 88
1, 168256, Note_on_c, 0, 81, 88
1, 168256, Note_on_c, 0, 76, 88
1, 168259, Note_on_c, 0, 88, 114
1, 168259, Note_on_c, 0, 45, 58
1, 168259, Note_on_c, 0, 48, 58
1, 168262, Note_on_c, 0, 52, 58
1, 168262, Note_on_c, 0, 57, 70
1, 168262, Control_c, 0, 64, 0
1, 168295, Control_c, 0, 64, 127
1, 168335, Note_on_c, 0, 88, 0
1, 168335, Note_on_c, 0, 84, 0
1, 168335, Note_on_c, 0, 81, 0
1, 168338, Note_on_c, 0, 76, 0
1, 168338, Note_on_c, 0, 57, 0
1, 168338, Note_on_c, 0, 45, 0
1, 168341, Note_on_c, 0, 48, 0
1, 168341, Note_on_c, 0, 52, 0
1, 168496, Note_on_c, 0, 72, 80
1, 168496, Note_on_c, 0, 76, 80
1, 168496, Note_on_c, 0, 81, 80
1, 168499, Note_on_c, 0, 84, 102
1, 168499, Note_on_c, 0, 48, 48
1, 168499, Note_on_c, 0, 52, 48
1, 168502, Note_on_c, 0, 57, 48
1, 168502, Note_on_c, 0, 60, 58
1, 168534, Note_on_c, 0, 84, 0
1, 168534, Note_on_c, 0, 72, 0
1, 168534, Note_on_c, 0, 76, 0
1, 168537, Note_on_c, 0, 81, 0
1, 168537, Note_on_c, 0, 60, 0
1, 168537, Note_on_c, 0, 48, 0
1, 168540, Note_on_c, 0, 52, 0
1, 168540, Note_on_c, 0, 57, 0
1, 168573, Note_on_c, 0, 72, 80
1, 168573, Note_on_c, 0, 76, 80
1, 168573, Note_on_c, 0, 81, 80
1, 168576, Note_on_c, 0, 84, 102
1, 168576, Note_on_c, 0, 48, 48
1, 168576, Note_on_c, 0, 52, 48
1, 168579, Note_on_c, 0, 57, 48
1, 168579, Note_on_c, 0, 60, 58
1, 168656, Note_on_c, 0, 84, 0
1, 168656, Note_on_c, 0, 72, 0
1, 168656, Note_on_c, 0, 76, 0
1, 168659, Note_on_c, 0, 81, 0
1, 168659, Note_on_c, 0, 60, 0
1, 168659, Note_on_c, 0, 48, 0
1, 168662, Note_on_c, 0, 52, 0
1, 168662, Note_on_c, 0, 57, 0
1, 168740, Note_on_c, 0, 72, 88
1, 168740, Note_on_c, 0, 76, 88
1, 168740, Note_on_c, 0, 81, 88
1, 168743, Note_on_c, 0, 84, 114
1, 168743, Note_on_c, 0, 48, 56
1, 168743, Note_on_c, 0, 52, 56
1, 168746, Note_on_c, 0, 57, 56
1, 168746, Note_on_c, 0, 60, 68
1, 169230, Note_on_c, 0, 84, 0
1, 169230, Note_on_c, 0, 72, 0
1, 169230, Note_on_c, 0, 76, 0
1, 169233, Note_on_c, 0, 81, 0
1, 169233, Note_on_c, 0, 77, 84
1, 169233, Note_on_c, 0, 79, 84
1, 169236, Note_on_c, 0, 83, 84
1, 169236, Note_on_c, 0, 91, 110
1, 169236, Note_on_c, 0, 60, 0
1, 169239, Note_on_c, 0, 48, 0
1, 169239, Note_on_c, 0, 52, 0
1, 169239, Note_on_c, 0, 57, 0
1, 169242, Note_on_c, 0, 43, 56
1, 169242, Note_on_c, 0, 50, 56
1, 169242, Note_on_c, 0, 55, 66
1, 169245, Control_c, 0, 64, 0
1, 169270, Control_c, 0, 64, 127
1, 169390, Note_on_c, 0, 91, 0
1, 169390, Note_on_c, 0, 77, 0
1, 169390, Note_on_c, 0, 79, 0
1, 169393, Note_on_c, 0, 83, 0
1, 169393, Note_on_c, 0, 55, 0
1, 169393, Note_on_c, 0, 50, 0
1, 169396, Note_on_c, 0, 43, 0
1, 169472, Note_on_c, 0, 74, 76
1, 169472, Note_on_c, 0, 79, 76
1, 169472, Note_on_c, 0, 86, 98
1, 169475, Note_on_c, 0, 55, 48
1, 169475, Note_on_c, 0, 59, 48
1, 169475, Note_on_c, 0, 65, 58
1, 169511, Note_on_c, 0, 86, 0
1, 169511, Note_on_c, 0, 79, 0
1, 169511, Note_on_c, 0, 74, 0
1, 169514, Note_on_c, 0, 65, 0
1, 169514, Note_on_c, 0, 59, 0
1, 169514, Note_on_c, 0, 55, 0
1, 169550, Note_on_c, 0, 74, 76
1, 169550, Note_on_c, 0, 79, 76
1, 169550, Note_on_c, 0, 86, 98
1, 169553, Note_on_c, 0, 55, 48
1, 169553, Note_on_c, 0, 59, 48
1, 169553, Note_on_c, 0, 65, 58
1, 169631, Note_on_c, 0, 86, 0
1, 169631, Note_on_c, 0, 79, 0
1, 169631, Note_on_c, 0, 74, 0
1, 169634, Note_on_c, 0, 65, 0
1, 169634, Note_on_c, 0, 59, 0
1, 169634, Note_on_c, 0, 55, 0
1, 169712, Note_on_c, 0, 79, 84
1, 169712, Note_on_c, 0, 73, 84
1, 169712, Note_on_c, 0, 85, 110
1, 169715, Note_on_c, 0, 58, 56
1, 169715, Note_on_c, 0, 55, 56
1, 169715, Note_on_c, 0, 65, 68
1, 169721, Control_c, 0, 64, 0
1, 169771, Control_c, 0, 64, 127
1, 169789, Note_on_c, 0, 85, 0
1, 169789, Note_on_c, 0, 73, 0
1, 169789, Note_on_c, 0, 79, 0
1, 169792, Note_on_c, 0, 65, 0
1, 169792, Note_on_c, 0, 55, 0
1, 169792, Note_on_c, 0, 58, 0
1, 169865, Note_on_c, 0, 79, 88
1, 169865, Note_on_c, 0, 74, 88
1, 169865, Note_on_c, 0, 86, 114
1, 169868, Note_on_c, 0, 55, 62
1, 169868, Note_on_c, 0, 59, 62
1, 169868, Note_on_c, 0, 65, 72
1, 169873, Control_c, 0, 64, 0
1, 169930, Control_c, 0, 64, 127
1, 169944, Note_on_c, 0, 86, 0
1, 169944, Note_on_c, 0, 74, 0
1, 169944, Note_on_c, 0, 79, 0
1, 169947, Note_on_c, 0, 65, 0
1, 169947, Note_on_c, 0, 59, 0
1, 169947, Note_on_c, 0, 55, 0
1, 170023, Note_on_c, 0, 75, 88
1, 170023, Note_on_c, 0, 79, 88
1, 170023, Note_on_c, 0, 87, 114
1, 170026, Note_on_c, 0, 55, 64
1, 170026, Note_on_c, 0, 59, 64
1, 170026, Note_on_c, 0, 65, 78
1, 170032, Control_c, 0, 64, 0
1, 170106, Control_c, 0, 64, 127
1, 170142, Note_on_c, 0, 87, 0
1, 170142, Note_on_c, 0, 79, 0
1, 170142, Note_on_c, 0, 75, 0
1, 170145, Note_on_c, 0, 65, 0
1, 170145, Note_on_c, 0, 59, 0
1, 170145, Note_on_c, 0, 55, 0
1, 170260, Note_on_c, 0, 76, 94
1, 170260, Note_on_c, 0, 79, 94
1, 170260, Note_on_c, 0, 88, 122
1, 170263, Note_on_c, 0, 60, 70
1, 170263, Note_on_c, 0, 64, 82
1, 170267, Control_c, 0, 64, 0
1, 170416, Control_c, 0, 64, 127
1, 170759, Note_on_c, 0, 88, 0
1, 170759, Note_on_c, 0, 79, 0
1, 170759, Note_on_c, 0, 76, 0
1, 170762, Note_on_c, 0, 72, 84
1, 170762, Note_on_c, 0, 79, 84
1, 170762, Note_on_c, 0, 84, 110
1, 170765, Note_on_c, 0, 64, 0
1, 170765, Note_on_c, 0, 60, 0
1, 170765, Note_on_c, 0, 64, 60
1, 170768, Note_on_c, 0, 67, 72
1, 170937, Note_on_c, 0, 84, 0
1, 170937, Note_on_c, 0, 79, 0
1, 170937, Note_on_c, 0, 72, 0
1, 170940, Note_on_c, 0, 67, 0
1, 170940, Note_on_c, 0, 64, 0
1, 170956, Control_c, 0, 64, 0
1, 171292, Note_on_c, 0, 96, 84
1, 171292, Note_on_c, 0, 88, 84
1, 171292, Note_on_c, 0, 91, 84
1, 171295, Note_on_c, 0, 100, 118
1, 171295, Note_on_c, 0, 36, 56
1, 171295, Note_on_c, 0, 40, 56
1, 171298, Note_on_c, 0, 43, 56
1, 171298, Note_on_c, 0, 48, 68
1, 171301, Control_c, 0, 64, 0
1, 171371, Control_c, 0, 64, 127
1, 171450, Note_on_c, 0, 100, 0
1, 171450, Note_on_c, 0, 96, 0
1, 171450, Note_on_c, 0, 88, 0
1, 171453, Note_on_c, 0, 91, 0
1, 171453, Note_on_c, 0, 48, 0
1, 171453, Note_on_c, 0, 36, 0
1, 171456, Note_on_c, 0, 40, 0
1, 171456, Note_on_c, 0, 43, 0
1, 171532, Note_on_c, 0, 84, 74
1, 171532, Note_on_c, 0, 88, 74
1, 171532, Note_on_c, 0, 91, 74
1, 171535, Note_on_c, 0, 96, 96
1, 171535, Note_on_c, 0, 40, 46
1, 171535, Note_on_c, 0, 43, 46
1, 171538, Note_on_c, 0, 52, 56
1, 171538, Note_on_c, 0, 48, 46
1, 171570, Note_on_c, 0, 96, 0
1, 171570, Note_on_c, 0, 84, 0
1, 171570, Note_on_c, 0, 88, 0
1, 171573, Note_on_c, 0, 91, 0
1, 171573, Note_on_c, 0, 48, 0
1, 171573, Note_on_c, 0, 40, 0
1, 171576, Note_on_c, 0, 43, 0
1, 171576, Note_on_c, 0, 52, 0
1, 171609, Note_on_c, 0, 88, 74
1, 171609, Note_on_c, 0, 84, 74
1, 171609, Note_on_c, 0, 91, 74
1, 171612, Note_on_c, 0, 96, 96
1, 171612, Note_on_c, 0, 40, 46
1, 171612, Note_on_c, 0, 43, 46
1, 171615, Note_on_c, 0, 48, 46
1, 171615, Note_on_c, 0, 52, 56
1, 171693, Note_on_c, 0, 96, 0
1, 171693, Note_on_c, 0, 88, 0
1, 171693, Note_on_c, 0, 84, 0
1, 171696, Note_on_c, 0, 91, 0
1, 171696, Note_on_c, 0, 52, 0
1, 171696, Note_on_c, 0, 40, 0
1, 171699, Note_on_c, 0, 43, 0
1, 171699, Note_on_c, 0, 48, 0
1, 171777, Note_on_c, 0, 96, 110
1, 171777, Note_on_c, 0, 88, 84
1, 171777, Note_on_c, 0, 84, 84
1, 171780, Note_on_c, 0, 91, 84
1, 171780, Note_on_c, 0, 40, 58
1, 171780, Note_on_c, 0, 43, 58
1, 171783, Note_on_c, 0, 48, 58
1, 171783, Note_on_c, 0, 52, 70
1, 171857, Note_on_c, 0, 91, 0
1, 171857, Note_on_c, 0, 96, 0
1, 171857, Note_on_c, 0, 88, 0
1, 171860, Note_on_c, 0, 84, 0
1, 171860, Note_on_c, 0, 52, 0
1, 171860, Note_on_c, 0, 40, 0
1, 171863, Note_on_c, 0, 43, 0
1, 171863, Note_on_c, 0, 48, 0
1, 172020, Note_on_c, 0, 79, 76
1, 172020, Note_on_c, 0, 84, 76
1, 172020, Note_on_c, 0, 88, 76
1, 172023, Note_on_c, 0, 91, 98
1, 172023, Note_on_c, 0, 43, 48
1, 172023, Note_on_c, 0, 48, 48
1, 172026, Note_on_c, 0, 55, 58
1, 172026, Note_on_c, 0, 52, 48
1, 172059, Note_on_c, 0, 91, 0
1, 172059, Note_on_c, 0, 79, 0
1, 172059, Note_on_c, 0, 84, 0
1, 172062, Note_on_c, 0, 88, 0
1, 172062, Note_on_c, 0, 52, 0
1, 172062, Note_on_c, 0, 43, 0
1, 172065, Note_on_c, 0, 48, 0
1, 172065, Note_on_c, 0, 55, 0
1, 172098, Note_on_c, 0, 79, 76
1, 172098, Note_on_c, 0, 84, 76
1, 172098, Note_on_c, 0, 88, 76
1, 172101, Note_on_c, 0, 91, 98
1, 172101, Note_on_c, 0, 43, 50
1, 172101, Note_on_c, 0, 48, 50
1, 172104, Note_on_c, 0, 52, 50
1, 172104, Note_on_c, 0, 55, 60
1, 172182, Note_on_c, 0, 91, 0
1, 172182, Note_on_c, 0, 79, 0
1, 172182, Note_on_c, 0, 84, 0
1, 172185, Note_on_c, 0, 88, 0
1, 172185, Note_on_c, 0, 55, 0
1, 172185, Note_on_c, 0, 43, 0
1, 172188, Note_on_c, 0, 48, 0
1, 172188, Note_on_c, 0, 52, 0
1, 172267, Note_on_c, 0, 84, 88
1, 172267, Note_on_c, 0, 81, 88
1, 172267, Note_on_c, 0, 76, 88
1, 172270, Note_on_c, 0, 88, 114
1, 172270, Note_on_c, 0, 45, 58
1, 172270, Note_on_c, 0, 48, 58
1, 172273, Note_on_c, 0, 52, 58
1, 172273, Note_on_c, 0, 57, 70
1, 172273, Control_c, 0, 64, 0
1, 172276, Control_c, 0, 64, 0
1, 172307, Control_c, 0, 64, 127
1, 172348, Note_on_c, 0, 88, 0
1, 172348, Note_on_c, 0, 84, 0
1, 172348, Note_on_c, 0, 81, 0
1, 172351, Note_on_c, 0, 76, 0
1, 172351, Note_on_c, 0, 57, 0
1, 172351, Note_on_c, 0, 45, 0
1, 172354, Note_on_c, 0, 48, 0
1, 172354, Note_on_c, 0, 52, 0
1, 172511, Note_on_c, 0, 72, 80
1, 172511, Note_on_c, 0, 76, 80
1, 172511, Note_on_c, 0, 81, 80
1, 172514, Note_on_c, 0, 84, 102
1, 172514, Note_on_c, 0, 48, 48
1, 172514, Note_on_c, 0, 52, 48
1, 172517, Note_on_c, 0, 57, 48
1, 172517, Note_on_c, 0, 60, 58
1, 172550, Note_on_c, 0, 84, 0
1, 172550, Note_on_c, 0, 72, 0
1, 172550, Note_on_c, 0, 76, 0
1, 172553, Note_on_c, 0, 81, 0
1, 172553, Note_on_c, 0, 60, 0
1, 172553, Note_on_c, 0, 48, 0
1, 172556, Note_on_c, 0, 52, 0
1, 172556, Note_on_c, 0, 57, 0
1, 172589, Note_on_c, 0, 72, 80
1, 172589, Note_on_c, 0, 76, 80
1, 172589, Note_on_c, 0, 81, 80
1, 172592, Note_on_c, 0, 84, 102
1, 172592, Note_on_c, 0, 48, 48
1, 172592, Note_on_c, 0, 52, 48
1, 172595, Note_on_c, 0, 57, 48
1, 172595, Note_on_c, 0, 60, 58
1, 172673, Note_on_c, 0, 84, 0
1, 172673, Note_on_c, 0, 72, 0
1, 172673, Note_on_c, 0, 76, 0
1, 172676, Note_on_c, 0, 81, 0
1, 172676, Note_on_c, 0, 60, 0
1, 172676, Note_on_c, 0, 48, 0
1, 172679, Note_on_c, 0, 52, 0
1, 172679, Note_on_c, 0, 57, 0
1, 172757, Note_on_c, 0, 72, 88
1, 172757, Note_on_c, 0, 76, 88
1, 172757, Note_on_c, 0, 81, 88
1, 172760, Note_on_c, 0, 84, 114
1, 172760, Note_on_c, 0, 48, 56
1, 172760, Note_on_c, 0, 52, 56
1, 172763, Note_on_c, 0, 57, 56
1, 172763, Note_on_c, 0, 60, 68
1, 173254, Note_on_c, 0, 84, 0
1, 173254, Note_on_c, 0, 72, 0
1, 173254, Note_on_c, 0, 76, 0
1, 173257, Note_on_c, 0, 81, 0
1, 173257, Note_on_c, 0, 75, 84
1, 173257, Note_on_c, 0, 78, 84
1, 173260, Note_on_c, 0, 87, 110
1, 173260, Note_on_c, 0, 60, 0
1, 173260, Note_on_c, 0, 48, 0
1, 173263, Note_on_c, 0, 52, 0
1, 173263, Note_on_c, 0, 57, 0
1, 173263, Note_on_c, 0, 54, 56
1, 173266, Note_on_c, 0, 47, 56
1, 173266, Note_on_c, 0, 51, 56
1, 173266, Note_on_c, 0, 59, 66
1, 173269, Control_c, 0, 64, 0
1, 173269, Control_c, 0, 64, 0
1, 173292, Control_c, 0, 64, 127
1, 173422, Note_on_c, 0, 87, 0
1, 173422, Note_on_c, 0, 78, 0
1, 173422, Note_on_c, 0, 75, 0
1, 173425, Note_on_c, 0, 59, 0
1, 173425, Note_on_c, 0, 54, 0
1, 173425, Note_on_c, 0, 47, 0
1, 173428, Note_on_c, 0, 51, 0
1, 173504, Control_c, 0, 64, 127
1, 173509, Note_on_c, 0, 71, 76
1, 173509, Note_on_c, 0, 75, 76
1, 173509, Note_on_c, 0, 78, 98
1, 173512, Note_on_c, 0, 59, 48
1, 173512, Note_on_c, 0, 63, 48
1, 173512, Note_on_c, 0, 66, 58
1, 173553, Note_on_c, 0, 78, 0
1, 173553, Note_on_c, 0, 75, 0
1, 173553, Note_on_c, 0, 71, 0
1, 173556, Note_on_c, 0, 66, 0
1, 173556, Note_on_c, 0, 63, 0
1, 173556, Note_on_c, 0, 59, 0
1, 173596, Note_on_c, 0, 71, 76
1, 173596, Note_on_c, 0, 75, 76
1, 173596, Note_on_c, 0, 78, 98
1, 173599, Note_on_c, 0, 59, 48
1, 173599, Note_on_c, 0, 63, 48
1, 173599, Note_on_c, 0, 66, 58
1, 173683, Note_on_c, 0, 78, 0
1, 173683, Note_on_c, 0, 75, 0
1, 173683, Note_on_c, 0, 71, 0
1, 173686, Note_on_c, 0, 66, 0
1, 173686, Note_on_c, 0, 63, 0
1, 173686, Note_on_c, 0, 59, 0
1, 173770, Note_on_c, 0, 75, 75
1, 173770, Note_on_c, 0, 71, 75
1, 173770, Note_on_c, 0, 77, 99
1, 173773, Note_on_c, 0, 63, 50
1, 173773, Note_on_c, 0, 59, 50
1, 173773, Note_on_c, 0, 65, 61
1, 173779, Control_c, 0, 64, 0
1, 173779, Control_c, 0, 64, 0
1, 173835, Control_c, 0, 64, 127
1, 173835, Control_c, 0, 64, 127
1, 173855, Note_on_c, 0, 77, 0
1, 173855, Note_on_c, 0, 71, 0
1, 173855, Note_on_c, 0, 75, 0
1, 173858, Note_on_c, 0, 65, 0
1, 173858, Note_on_c, 0, 59, 0
1, 173858, Note_on_c, 0, 63, 0
1, 173939, Note_on_c, 0, 75, 79
1, 173939, Note_on_c, 0, 71, 79
1, 173939, Note_on_c, 0, 78, 102
1, 173942, Note_on_c, 0, 59, 55
1, 173942, Note_on_c, 0, 63, 55
1, 173942, Note_on_c, 0, 66, 64
1, 173949, Control_c, 0, 64, 0
1, 173949, Control_c, 0, 64, 0
1, 174018, Control_c, 0, 64, 127
1, 174018, Control_c, 0, 64, 127
1, 174034, Note_on_c, 0, 78, 0
1, 174034, Note_on_c, 0, 71, 0
1, 174034, Note_on_c, 0, 75, 0
1, 174037, Note_on_c, 0, 66, 0
1, 174037, Note_on_c, 0, 63, 0
1, 174037, Note_on_c, 0, 59, 0
1, 174129, Note_on_c, 0, 71, 79
1, 174129, Note_on_c, 0, 75, 79
1, 174129, Note_on_c, 0, 83, 102
1, 174132, Note_on_c, 0, 59, 57
1, 174132, Note_on_c, 0, 63, 57
1, 174132, Note_on_c, 0, 66, 70
1, 174139, Control_c, 0, 64, 0
1, 174139, Control_c, 0, 64, 0
1, 174223, Control_c, 0, 64, 127
1, 174223, Control_c, 0, 64, 127
1, 174262, Note_on_c, 0, 83, 0
1, 174262, Note_on_c, 0, 75, 0
1, 174262, Note_on_c, 0, 71, 0
1, 174265, Note_on_c, 0, 66, 0
1, 174265, Note_on_c, 0, 63, 0
1, 174265, Note_on_c, 0, 59, 0
1, 174395, Note_on_c, 0, 75, 94
1, 174395, Note_on_c, 0, 78, 94
1, 174395, Note_on_c, 0, 87, 122
1, 174398, Note_on_c, 0, 59, 70
1, 174398, Note_on_c, 0, 63, 70
1, 174398, Note_on_c, 0, 66, 70
1, 174401, Note_on_c, 0, 71, 82
1, 174404, Control_c, 0, 64, 0
1, 174404, Control_c, 0, 64, 0
1, 174582, Control_c, 0, 64, 127
1, 174582, Control_c, 0, 64, 127
1, 174989, Note_on_c, 0, 87, 0
1, 174989, Note_on_c, 0, 78, 0
1, 174989, Note_on_c, 0, 75, 0
1, 174992, Note_on_c, 0, 77, 84
1, 174992, Note_on_c, 0, 74, 84
1, 174992, Note_on_c, 0, 79, 84
1, 174995, Note_on_c, 0, 86, 110
1, 174995, Note_on_c, 0, 71, 0
1, 174995, Note_on_c, 0, 59, 0
1, 174998, Note_on_c, 0, 63, 0
1, 174998, Note_on_c, 0, 66, 0
1, 174998, Note_on_c, 0, 55, 60
1, 175001, Note_on_c, 0, 62, 60
1, 175001, Note_on_c, 0, 65, 60
1, 175001, Note_on_c, 0, 71, 72
1, 175055, Control_c, 0, 64, 0
1, 175168, Control_c, 0, 64, 127
1, 175187, Note_on_c, 0, 86, 0
1, 175187, Note_on_c, 0, 77, 0
1, 175187, Note_on_c, 0, 74, 0
1, 175190, Note_on_c, 0, 79, 0
1, 175190, Note_on_c, 0, 71, 0
1, 175190, Note_on_c, 0, 55, 0
1, 175193, Note_on_c, 0, 62, 0
1, 175193, Note_on_c, 0, 65, 0
1, 175208, Control_c, 0, 64, 0
1, 175583, Note_on_c, 0, 88, 80
1, 175583, Note_on_c, 0, 84, 80
1, 175583, Note_on_c, 0, 79, 68
1, 175586, Note_on_c, 0, 76, 68
1, 175586, Note_on_c, 0, 60, 54
1, 175586, Note_on_c, 0, 64, 54
1, 175589, Note_on_c, 0, 67, 54
1, 175589, Note_on_c, 0, 72, 64
1, 175589, Control_c, 0, 64, 127
1, 175685, Note_on_c, 0, 76, 0
1, 175685, Note_on_c, 0, 88, 0
1, 175685, Note_on_c, 0, 84, 0
1, 175688, Note_on_c, 0, 79, 0
1, 175736, Note_on_c, 0, 72, 0
1, 175736, Note_on_c, 0, 60, 0
1, 175736, Note_on_c, 0, 64, 0
1, 175739, Note_on_c, 0, 67, 0
1, 175739, Note_on_c, 0, 55, 46
1, 175739, Note_on_c, 0, 60, 46
1, 175742, Note_on_c, 0, 64, 46
1, 175742, Note_on_c, 0, 67, 55
1, 175787, Note_on_c, 0, 84, 80
1, 175787, Note_on_c, 0, 79, 68
1, 175787, Note_on_c, 0, 76, 68
1, 175790, Note_on_c, 0, 72, 68
1, 175790, Note_on_c, 0, 67, 0
1, 175790, Note_on_c, 0, 55, 0
1, 175793, Note_on_c, 0, 60, 0
1, 175793, Note_on_c, 0, 64, 0
1, 175793, Note_on_c, 0, 55, 55
1, 175796, Note_on_c, 0, 60, 55
1, 175796, Note_on_c, 0, 64, 55
1, 175796, Note_on_c, 0, 67, 65
1, 175840, Note_on_c, 0, 67, 0
1, 175840, Note_on_c, 0, 55, 0
1, 175840, Note_on_c, 0, 60, 0
1, 175843, Note_on_c, 0, 64, 0
1, 175946, Note_on_c, 0, 72, 0
1, 175946, Note_on_c, 0, 84, 0
1, 175946, Note_on_c, 0, 79, 0
1, 175949, Note_on_c, 0, 76, 0
1, 175949, Note_on_c, 0, 79, 70
1, 175949, Note_on_c, 0, 76, 59
1, 175952, Note_on_c, 0, 72, 59
1, 175952, Note_on_c, 0, 67, 59
1, 175999, Note_on_c, 0, 67, 0
1, 175999, Note_on_c, 0, 79, 0
1, 175999, Note_on_c, 0, 76, 0
1, 176002, Note_on_c, 0, 72, 0
1, 176002, Note_on_c, 0, 67, 68
1, 176002, Note_on_c, 0, 72, 68
1, 176005, Note_on_c, 0, 76, 68
1, 176005, Note_on_c, 0, 79, 80
1, 176005, Note_on_c, 0, 64, 65
1, 176008, Note_on_c, 0, 60, 55
1, 176008, Note_on_c, 0, 55, 55
1, 176008, Note_on_c, 0, 52, 55
1, 176050, Note_on_c, 0, 79, 0
1, 176050, Note_on_c, 0, 67, 0
1, 176050, Note_on_c, 0, 72, 0
1, 176053, Note_on_c, 0, 76, 0
1, 176153, Note_on_c, 0, 52, 0
1, 176153, Note_on_c, 0, 64, 0
1, 176153, Note_on_c, 0, 60, 0
1, 176156, Note_on_c, 0, 55, 0
1, 176156, Note_on_c, 0, 48, 48
1, 176156, Note_on_c, 0, 52, 48
1, 176159, Note_on_c, 0, 55, 48
1, 176159, Note_on_c, 0, 60, 57
1, 176204, Note_on_c, 0, 64, 68
1, 176204, Note_on_c, 0, 67, 68
1, 176204, Note_on_c, 0, 72, 68
1, 176207, Note_on_c, 0, 76, 80
1, 176207, Note_on_c, 0, 60, 0
1, 176207, Note_on_c, 0, 48, 0
1, 176210, Note_on_c, 0, 52, 0
1, 176210, Note_on_c, 0, 55, 0
1, 176210, Note_on_c, 0, 48, 56
1, 176213, Note_on_c, 0, 52, 56
1, 176213, Note_on_c, 0, 55, 56
1, 176213, Note_on_c, 0, 60, 66
1, 176259, Note_on_c, 0, 60, 0
1, 176259, Note_on_c, 0, 48, 0
1, 176259, Note_on_c, 0, 52, 0
1, 176262, Note_on_c, 0, 55, 0
1, 176350, Control_c, 0, 64, 0
1, 176369, Note_on_c, 0, 76, 0
1, 176369, Note_on_c, 0, 64, 0
1, 176369, Note_on_c, 0, 67, 0
1, 176372, Note_on_c, 0, 72, 0
1, 176372, Note_on_c, 0, 60, 60
1, 176372, Note_on_c, 0, 64, 60
1, 176375, Note_on_c, 0, 69, 60
1, 176375, Note_on_c, 0, 72, 71
1, 176378, Control_c, 0, 64, 127
1, 176424, Note_on_c, 0, 72, 0
1, 176424, Note_on_c, 0, 60, 0
1, 176424, Note_on_c, 0, 64, 0
1, 176427, Note_on_c, 0, 69, 0
1, 176427, Note_on_c, 0, 72, 80
1, 176427, Note_on_c, 0, 69, 80
1, 176430, Note_on_c, 0, 64, 68
1, 176430, Note_on_c, 0, 60, 68
1, 176430, Note_on_c, 0, 45, 54
1, 176433, Note_on_c, 0, 48, 54
1, 176433, Note_on_c, 0, 52, 54
1, 176433, Note_on_c, 0, 57, 64
1, 176476, Note_on_c, 0, 60, 0
1, 176476, Note_on_c, 0, 72, 0
1, 176476, Note_on_c, 0, 69, 0
1, 176479, Note_on_c, 0, 64, 0
1, 176578, Note_on_c, 0, 57, 0
1, 176578, Note_on_c, 0, 45, 0
1, 176578, Note_on_c, 0, 48, 0
1, 176581, Note_on_c, 0, 52, 0
1, 176581, Note_on_c, 0, 40, 46
1, 176581, Note_on_c, 0, 45, 46
1, 176584, Note_on_c, 0, 48, 46
1, 176584, Note_on_c, 0, 52, 55
1, 176630, Note_on_c, 0, 69, 80
1, 176630, Note_on_c, 0, 64, 68
1, 176630, Note_on_c, 0, 60, 68
1, 176633, Note_on_c, 0, 57, 68
1, 176633, Note_on_c, 0, 52, 0
1, 176633, Note_on_c, 0, 40, 0
1, 176636, Note_on_c, 0, 45, 0
1, 176636, Note_on_c, 0, 48, 0
1, 176636, Note_on_c, 0, 40, 55
1, 176639, Note_on_c, 0, 45, 55
1, 176639, Note_on_c, 0, 48, 55
1, 176639, Note_on_c, 0, 52, 65
1, 176683, Note_on_c, 0, 52, 0
1, 176683, Note_on_c, 0, 40, 0
1, 176683, Note_on_c, 0, 45, 0
1, 176686, Note_on_c, 0, 48, 0
1, 176789, Note_on_c, 0, 57, 0
1, 176789, Note_on_c, 0, 69, 0
1, 176789, Note_on_c, 0, 64, 0
1, 176792, Note_on_c, 0, 60, 0
1, 176792, Note_on_c, 0, 64, 70
1, 176792, Note_on_c, 0, 60, 59
1, 176795, Note_on_c, 0, 57, 59
1, 176795, Note_on_c, 0, 52, 59
1, 176842, Note_on_c, 0, 52, 0
1, 176842, Note_on_c, 0, 64, 0
1, 176842, Note_on_c, 0, 60, 0
1, 176845, Note_on_c, 0, 57, 0
1, 176845, Note_on_c, 0, 52, 68
1, 176845, Note_on_c, 0, 57, 68
1, 176848, Note_on_c, 0, 60, 68
1, 176848, Note_on_c, 0, 64, 80
1, 176848, Note_on_c, 0, 48, 65
1, 176851, Note_on_c, 0, 45, 55
1, 176851, Note_on_c, 0, 40, 55
1, 176851, Note_on_c, 0, 36, 55
1, 176896, Note_on_c, 0, 64, 0
1, 176896, Note_on_c, 0, 52, 0
1, 176896, Note_on_c, 0, 57, 0
1, 176899, Note_on_c, 0, 60, 0
1, 177002, Note_on_c, 0, 36, 0
1, 177002, Note_on_c, 0, 48, 0
1, 177002, Note_on_c, 0, 45, 0
1, 177005, Note_on_c, 0, 40, 0
1, 177005, Note_on_c, 0, 33, 48
1, 177005, Note_on_c, 0, 36, 48
1, 177008, Note_on_c, 0, 40, 48
1, 177008, Note_on_c, 0, 45, 57
1, 177055, Note_on_c, 0, 48, 68
1, 177055, Note_on_c, 0, 52, 68
1, 177055, Note_on_c, 0, 57, 68
1, 177058, Note_on_c, 0, 60, 80
1, 177058, Note_on_c, 0, 45, 0
1, 177058, Note_on_c, 0, 33, 0
1, 177061, Note_on_c, 0, 36, 0
1, 177061, Note_on_c, 0, 40, 0
1, 177061, Note_on_c, 0, 33, 56
1, 177064, Note_on_c, 0, 36, 56
1, 177064, Note_on_c, 0, 40, 56
1, 177064, Note_on_c, 0, 45, 66
1, 177114, Note_on_c, 0, 45, 0
1, 177114, Note_on_c, 0, 33, 0
1, 177114, Note_on_c, 0, 36, 0
1, 177117, Note_on_c, 0, 40, 0
1, 177182, Control_c, 0, 64, 0
1, 177231, Note_on_c, 0, 60, 0
1, 177231, Note_on_c, 0, 48, 0
1, 177231, Note_on_c, 0, 52, 0
1, 177234, Note_on_c, 0, 57, 0
1, 177234, Note_on_c, 0, 52, 60
1, 177234, Note_on_c, 0, 64, 71
1, 177289, Note_on_c, 0, 64, 0
1, 177289, Note_on_c, 0, 52, 0
1, 177289, Note_on_c, 0, 53, 67
1, 177292, Note_on_c, 0, 59, 67
1, 177292, Note_on_c, 0, 67, 88
1, 177292, Note_on_c, 0, 31, 56
1, 177295, Note_on_c, 0, 38, 56
1, 177295, Note_on_c, 0, 43, 66
1, 177295, Control_c, 0, 64, 0
1, 177329, Control_c, 0, 64, 127
1, 177446, Note_on_c, 0, 67, 0
1, 177446, Note_on_c, 0, 59, 0
1, 177446, Note_on_c, 0, 53, 0
1, 177449, Note_on_c, 0, 43, 0
1, 177449, Note_on_c, 0, 38, 0
1, 177449, Note_on_c, 0, 31, 0
1, 177528, Note_on_c, 0, 53, 60
1, 177528, Note_on_c, 0, 59, 60
1, 177528, Note_on_c, 0, 62, 78
1, 177531, Note_on_c, 0, 43, 48
1, 177531, Note_on_c, 0, 47, 48
1, 177531, Note_on_c, 0, 50, 58
1, 177569, Note_on_c, 0, 62, 0
1, 177569, Note_on_c, 0, 59, 0
1, 177569, Note_on_c, 0, 53, 0
1, 177572, Note_on_c, 0, 50, 0
1, 177572, Note_on_c, 0, 47, 0
1, 177572, Note_on_c, 0, 43, 0
1, 177609, Note_on_c, 0, 53, 60
1, 177609, Note_on_c, 0, 59, 60
1, 177609, Note_on_c, 0, 62, 78
1, 177612, Note_on_c, 0, 43, 48
1, 177612, Note_on_c, 0, 47, 48
1, 177612, Note_on_c, 0, 50, 58
1, 177691, Note_on_c, 0, 62, 0
1, 177691, Note_on_c, 0, 59, 0
1, 177691, Note_on_c, 0, 53, 0
1, 177694, Note_on_c, 0, 50, 0
1, 177694, Note_on_c, 0, 47, 0
1, 177694, Note_on_c, 0, 43, 0
1, 177772, Note_on_c, 0, 58, 67
1, 177772, Note_on_c, 0, 53, 67
1, 177772, Note_on_c, 0, 61, 88
1, 177775, Note_on_c, 0, 46, 56
1, 177775, Note_on_c, 0, 43, 56
1, 177775, Note_on_c, 0, 49, 68
1, 177781, Control_c, 0, 64, 0
1, 177832, Control_c, 0, 64, 127
1, 177851, Note_on_c, 0, 61, 0
1, 177851, Note_on_c, 0, 53, 0
1, 177851, Note_on_c, 0, 58, 0
1, 177854, Note_on_c, 0, 49, 0
1, 177854, Note_on_c, 0, 43, 0
1, 177854, Note_on_c, 0, 46, 0
1, 177929, Note_on_c, 0, 59, 70
1, 177929, Note_on_c, 0, 53, 70
1, 177929, Note_on_c, 0, 62, 91
1, 177932, Note_on_c, 0, 43, 62
1, 177932, Note_on_c, 0, 47, 62
1, 177932, Note_on_c, 0, 50, 72
1, 177937, Control_c, 0, 64, 0
1, 177997, Control_c, 0, 64, 127
1, 178011, Note_on_c, 0, 62, 0
1, 178011, Note_on_c, 0, 53, 0
1, 178011, Note_on_c, 0, 59, 0
1, 178014, Note_on_c, 0, 50, 0
1, 178014, Note_on_c, 0, 47, 0
1, 178014, Note_on_c, 0, 43, 0
1, 178093, Note_on_c, 0, 53, 70
1, 178093, Note_on_c, 0, 59, 70
1, 178093, Note_on_c, 0, 63, 91
1, 178096, Note_on_c, 0, 43, 64
1, 178096, Note_on_c, 0, 47, 64
1, 178096, Note_on_c, 0, 51, 78
1, 178102, Control_c, 0, 64, 0
1, 178174, Control_c, 0, 64, 127
1, 178208, Note_on_c, 0, 63, 0
1, 178208, Note_on_c, 0, 59, 0
1, 178208, Note_on_c, 0, 53, 0
1, 178211, Note_on_c, 0, 51, 0
1, 178211, Note_on_c, 0, 47, 0
1, 178211, Note_on_c, 0, 43, 0
1, 178324, Note_on_c, 0, 64, 93
1, 178324, Note_on_c, 0, 60, 93
1, 178324, Note_on_c, 0, 48, 70
1, 178327, Note_on_c, 0, 52, 82
1, 178330, Control_c, 0, 64, 0
1, 178382, Control_c, 0, 64, 127
1, 178391, Note_on_c, 0, 60, 0
1, 178391, Note_on_c, 0, 64, 0
1, 178391, Note_on_c, 0, 55, 78
1, 178459, Note_on_c, 0, 55, 0
1, 178459, Note_on_c, 0, 52, 79
1, 178525, Note_on_c, 0, 52, 0
1, 178525, Note_on_c, 0, 55, 80
1, 178591, Note_on_c, 0, 55, 0
1, 178591, Note_on_c, 0, 60, 82
1, 178657, Note_on_c, 0, 60, 0
1, 178657, Note_on_c, 0, 64, 83
1, 178721, Note_on_c, 0, 64, 0
1, 178721, Note_on_c, 0, 67, 84
1, 178789, Note_on_c, 0, 67, 0
1, 178789, Note_on_c, 0, 72, 85
1, 178789, Note_on_c, 0, 52, 0
1, 178792, Note_on_c, 0, 48, 0
1, 178792, Note_on_c, 0, 43, 60
1, 178792, Note_on_c, 0, 40, 60
1, 178795, Note_on_c, 0, 36, 60
1, 178795, Note_on_c, 0, 48, 72
1, 178853, Note_on_c, 0, 72, 0
1, 178853, Note_on_c, 0, 76, 87
1, 178916, Note_on_c, 0, 76, 0
1, 178916, Note_on_c, 0, 79, 88
1, 178938, Note_on_c, 0, 48, 0
1, 178938, Note_on_c, 0, 43, 0
1, 178938, Note_on_c, 0, 40, 0
1, 178941, Note_on_c, 0, 36, 0
1, 178978, Note_on_c, 0, 79, 0
1, 178978, Note_on_c, 0, 84, 89
1, 179040, Note_on_c, 0, 84, 0
1, 179040, Note_on_c, 0, 88, 91
1, 179105, Note_on_c, 0, 88, 0
1, 179105, Note_on_c, 0, 91, 92
1, 179176, Note_on_c, 0, 91, 0
1, 179176, Note_on_c, 0, 96, 93
1, 179259, Note_on_c, 0, 96, 0
1, 179259, Note_on_c, 0, 100, 88
1, 179259, Note_on_c, 0, 96, 88
1, 179262, Note_on_c, 0, 91, 74
1, 179262, Note_on_c, 0, 88, 74
1, 179262, Note_on_c, 0, 72, 59
1, 179265, Note_on_c, 0, 76, 59
1, 179265, Note_on_c, 0, 79, 59
1, 179265, Note_on_c, 0, 84, 70
1, 179268, Control_c, 0, 64, 0
1, 179325, Control_c, 0, 64, 127
1, 179412, Note_on_c, 0, 84, 0
1, 179412, Note_on_c, 0, 72, 0
1, 179412, Note_on_c, 0, 76, 0
1, 179415, Note_on_c, 0, 79, 0
1, 179415, Note_on_c, 0, 67, 50
1, 179415, Note_on_c, 0, 72, 50
1, 179418, Note_on_c, 0, 76, 50
1, 179418, Note_on_c, 0, 79, 60
1, 179463, Note_on_c, 0, 88, 0
1, 179463, Note_on_c, 0, 100, 0
1, 179463, Note_on_c, 0, 96, 0
1, 179466, Note_on_c, 0, 91, 0
1, 179466, Note_on_c, 0, 96, 88
1, 179466, Note_on_c, 0, 91, 74
1, 179469, Note_on_c, 0, 88, 74
1, 179469, Note_on_c, 0, 84, 74
1, 179469, Note_on_c, 0, 79, 0
1, 179472, Note_on_c, 0, 67, 0
1, 179472, Note_on_c, 0, 72, 0
1, 179472, Note_on_c, 0, 76, 0
1, 179475, Note_on_c, 0, 67, 60
1, 179475, Note_on_c, 0, 72, 60
1, 179475, Note_on_c, 0, 76, 60
1, 179478, Note_on_c, 0, 79, 71
1, 179569, Note_on_c, 0, 79, 0
1, 179569, Note_on_c, 0, 67, 0
1, 179569, Note_on_c, 0, 72, 0
1, 179572, Note_on_c, 0, 76, 0
1, 179622, Note_on_c, 0, 84, 0
1, 179622, Note_on_c, 0, 96, 0
1, 179622, Note_on_c, 0, 91, 0
1, 179625, Note_on_c, 0, 88, 0
1, 179625, Note_on_c, 0, 91, 77
1, 179625, Note_on_c, 0, 88, 64
1, 179628, Note_on_c, 0, 84, 64
1, 179628, Note_on_c, 0, 79, 64
1, 179676, Note_on_c, 0, 79, 0
1, 179676, Note_on_c, 0, 91, 0
1, 179676, Note_on_c, 0, 88, 0
1, 179679, Note_on_c, 0, 84, 0
1, 179679, Note_on_c, 0, 79, 74
1, 179679, Note_on_c, 0, 84, 74
1, 179682, Note_on_c, 0, 88, 74
1, 179682, Note_on_c, 0, 91, 88
1, 179682, Note_on_c, 0, 76, 71
1, 179685, Note_on_c, 0, 72, 60
1, 179685, Note_on_c, 0, 67, 60
1, 179685, Note_on_c, 0, 64, 60
1, 179779, Note_on_c, 0, 91, 0
1, 179779, Note_on_c, 0, 79, 0
1, 179779, Note_on_c, 0, 84, 0
1, 179782, Note_on_c, 0, 88, 0
1, 179830, Note_on_c, 0, 64, 0
1, 179830, Note_on_c, 0, 76, 0
1, 179830, Note_on_c, 0, 72, 0
1, 179833, Note_on_c, 0, 67, 0
1, 179833, Note_on_c, 0, 60, 52
1, 179833, Note_on_c, 0, 64, 52
1, 179836, Note_on_c, 0, 67, 52
1, 179836, Note_on_c, 0, 72, 62
1, 179882, Note_on_c, 0, 76, 74
1, 179882, Note_on_c, 0, 79, 74
1, 179882, Note_on_c, 0, 84, 74
1, 179885, Note_on_c, 0, 88, 88
1, 179885, Note_on_c, 0, 72, 0
1, 179885, Note_on_c, 0, 60, 0
1, 179888, Note_on_c, 0, 64, 0
1, 179888, Note_on_c, 0, 67, 0
1, 179888, Note_on_c, 0, 60, 61
1, 179891, Note_on_c, 0, 64, 61
1, 179891, Note_on_c, 0, 67, 61
1, 179891, Note_on_c, 0, 72, 72
1, 180025, Control_c, 0, 64, 0
1, 180044, Note_on_c, 0, 88, 0
1, 180044, Note_on_c, 0, 76, 0
1, 180044, Note_on_c, 0, 79, 0
1, 180047, Note_on_c, 0, 84, 0
1, 180047, Note_on_c, 0, 72, 66
1, 180047, Note_on_c, 0, 76, 66
1, 180050, Note_on_c, 0, 81, 66
1, 180050, Note_on_c, 0, 84, 78
1, 180053, Control_c, 0, 64, 127
1, 180098, Note_on_c, 0, 84, 0
1, 180098, Note_on_c, 0, 72, 0
1, 180098, Note_on_c, 0, 76, 0
1, 180101, Note_on_c, 0, 81, 0
1, 180101, Note_on_c, 0, 84, 88
1, 180101, Note_on_c, 0, 81, 88
1, 180104, Note_on_c, 0, 76, 74
1, 180104, Note_on_c, 0, 72, 74
1, 180104, Note_on_c, 0, 72, 0
1, 180107, Note_on_c, 0, 60, 0
1, 180107, Note_on_c, 0, 64, 0
1, 180107, Note_on_c, 0, 67, 0
1, 180110, Note_on_c, 0, 57, 59
1, 180110, Note_on_c, 0, 60, 59
1, 180110, Note_on_c, 0, 64, 59
1, 180113, Note_on_c, 0, 69, 70
1, 180201, Note_on_c, 0, 72, 0
1, 180201, Note_on_c, 0, 84, 0
1, 180201, Note_on_c, 0, 81, 0
1, 180204, Note_on_c, 0, 76, 0
1, 180252, Note_on_c, 0, 69, 0
1, 180252, Note_on_c, 0, 57, 0
1, 180252, Note_on_c, 0, 60, 0
1, 180255, Note_on_c, 0, 64, 0
1, 180255, Note_on_c, 0, 52, 50
1, 180255, Note_on_c, 0, 57, 50
1, 180258, Note_on_c, 0, 60, 50
1, 180258, Note_on_c, 0, 64, 60
1, 180304, Note_on_c, 0, 81, 88
1, 180304, Note_on_c, 0, 76, 74
1, 180304, Note_on_c, 0, 72, 74
1, 180307, Note_on_c, 0, 69, 74
1, 180307, Note_on_c, 0, 64, 0
1, 180307, Note_on_c, 0, 52, 0
1, 180310, Note_on_c, 0, 57, 0
1, 180310, Note_on_c, 0, 60, 0
1, 180310, Note_on_c, 0, 52, 60
1, 180313, Note_on_c, 0, 57, 60
1, 180313, Note_on_c, 0, 60, 60
1, 180313, Note_on_c, 0, 64, 71
1, 180410, Note_on_c, 0, 64, 0
1, 180410, Note_on_c, 0, 52, 0
1, 180410, Note_on_c, 0, 57, 0
1, 180413, Note_on_c, 0, 60, 0
1, 180463, Note_on_c, 0, 69, 0
1, 180463, Note_on_c, 0, 81, 0
1, 180463, Note_on_c, 0, 76, 0
1, 180466, Note_on_c, 0, 72, 0
1, 180466, Note_on_c, 0, 76, 77
1, 180466, Note_on_c, 0, 72, 64
1, 180469, Note_on_c, 0, 69, 64
1, 180469, Note_on_c, 0, 64, 64
1, 180517, Note_on_c, 0, 64, 0
1, 180517, Note_on_c, 0, 76, 0
1, 180517, Note_on_c, 0, 72, 0
1, 180520, Note_on_c, 0, 69, 0
1, 180520, Note_on_c, 0, 64, 74
1, 180520, Note_on_c, 0, 69, 74
1, 180523, Note_on_c, 0, 72, 74
1, 180523, Note_on_c, 0, 76, 88
1, 180523, Note_on_c, 0, 60, 71
1, 180526, Note_on_c, 0, 57, 60
1, 180526, Note_on_c, 0, 52, 60
1, 180526, Note_on_c, 0, 48, 60
1, 180623, Note_on_c, 0, 76, 0
1, 180623, Note_on_c, 0, 64, 0
1, 180623, Note_on_c, 0, 69, 0
1, 180626, Note_on_c, 0, 72, 0
1, 180676, Note_on_c, 0, 48, 0
1, 180676, Note_on_c, 0, 60, 0
1, 180676, Note_on_c, 0, 57, 0
1, 180679, Note_on_c, 0, 52, 0
1, 180679, Note_on_c, 0, 45, 52
1, 180679, Note_on_c, 0, 48, 52
1, 180682, Note_on_c, 0, 52, 52
1, 180682, Note_on_c, 0, 57, 62
1, 180730, Note_on_c, 0, 60, 74
1, 180730, Note_on_c, 0, 64, 74
1, 180730, Note_on_c, 0, 69, 74
1, 180733, Note_on_c, 0, 72, 88
1, 180733, Note_on_c, 0, 57, 0
1, 180733, Note_on_c, 0, 45, 0
1, 180736, Note_on_c, 0, 48, 0
1, 180736, Note_on_c, 0, 52, 0
1, 180736, Note_on_c, 0, 45, 61
1, 180739, Note_on_c, 0, 48, 61
1, 180739, Note_on_c, 0, 52, 61
1, 180739, Note_on_c, 0, 57, 72
1, 180830, Control_c, 0, 64, 0
1, 180847, Note_on_c, 0, 72, 0
1, 180847, Note_on_c, 0, 60, 0
1, 180847, Note_on_c, 0, 64, 0
1, 180850, Note_on_c, 0, 69, 0
1, 180850, Note_on_c, 0, 57, 0
1, 180850, Note_on_c, 0, 45, 0
1, 180853, Note_on_c, 0, 48, 0
1, 180853, Note_on_c, 0, 52, 0
1, 180876, Note_on_c, 0, 40, 56
1, 180905, Note_on_c, 0, 44, 56
1, 180934, Note_on_c, 0, 47, 56
1, 180964, Note_on_c, 0, 80, 81
1, 180964, Note_on_c, 0, 83, 82
1, 180964, Note_on_c, 0, 92, 101
1, 180967, Note_on_c, 0, 52, 66
1, 180999, Control_c, 0, 64, 127
1, 181008, Note_on_c, 0, 40, 0
1, 181017, Note_on_c, 0, 44, 0
1, 181026, Note_on_c, 0, 47, 0
1, 181035, Note_on_c, 0, 92, 0
1, 181035, Note_on_c, 0, 83, 0
1, 181035, Note_on_c, 0, 80, 0
1, 181038, Note_on_c, 0, 52, 0
1, 181182, Note_on_c, 0, 71, 60
1, 181182, Note_on_c, 0, 83, 78
1, 181182, Note_on_c, 0, 47, 48
1, 181185, Note_on_c, 0, 59, 58
1, 181216, Note_on_c, 0, 83, 0
1, 181216, Note_on_c, 0, 71, 0
1, 181216, Note_on_c, 0, 59, 0
1, 181219, Note_on_c, 0, 47, 0
1, 181250, Note_on_c, 0, 71, 60
1, 181250, Note_on_c, 0, 83, 78
1, 181250, Note_on_c, 0, 47, 48
1, 181253, Note_on_c, 0, 59, 58
1, 181325, Note_on_c, 0, 83, 0
1, 181325, Note_on_c, 0, 71, 0
1, 181325, Note_on_c, 0, 59, 0
1, 181328, Note_on_c, 0, 47, 0
1, 181401, Note_on_c, 0, 70, 67
1, 181401, Note_on_c, 0, 82, 88
1, 181401, Note_on_c, 0, 46, 56
1, 181404, Note_on_c, 0, 58, 68
1, 181408, Control_c, 0, 64, 0
1, 181454, Control_c, 0, 64, 127
1, 181471, Note_on_c, 0, 82, 0
1, 181471, Note_on_c, 0, 70, 0
1, 181471, Note_on_c, 0, 58, 0
1, 181474, Note_on_c, 0, 46, 0
1, 181541, Note_on_c, 0, 71, 70
1, 181541, Note_on_c, 0, 83, 91
1, 181541, Note_on_c, 0, 47, 62
1, 181544, Note_on_c, 0, 59, 72
1, 181548, Control_c, 0, 64, 0
1, 181601, Control_c, 0, 64, 127
1, 181614, Note_on_c, 0, 83, 0
1, 181614, Note_on_c, 0, 71, 0
1, 181614, Note_on_c, 0, 59, 0
1, 181617, Note_on_c, 0, 47, 0
1, 181683, Note_on_c, 0, 76, 76
1, 181683, Note_on_c, 0, 88, 98
1, 181683, Note_on_c, 0, 52, 64
1, 181686, Note_on_c, 0, 64, 78
1, 181686, Control_c, 0, 64, 0
1, 181736, Control_c, 0, 64, 127
1, 181759, Note_on_c, 0, 88, 0
1, 181759, Note_on_c, 0, 76, 0
1, 181759, Note_on_c, 0, 64, 0
1, 181762, Note_on_c, 0, 52, 0
1, 181797, Note_on_c, 0, 44, 56
1, 181816, Note_on_c, 0, 51, 56
1, 181835, Note_on_c, 0, 80, 81
1, 181835, Note_on_c, 0, 84, 82
1, 181835, Note_on_c, 0, 92, 101
1, 181838, Note_on_c, 0, 56, 66
1, 181838, Control_c, 0, 64, 0
1, 181870, Control_c, 0, 64, 127
1, 181888, Note_on_c, 0, 44, 0
1, 181894, Note_on_c, 0, 51, 0
1, 181905, Note_on_c, 0, 92, 0
1, 181905, Note_on_c, 0, 84, 0
1, 181905, Note_on_c, 0, 80, 0
1, 181908, Note_on_c, 0, 56, 0
1, 182049, Note_on_c, 0, 75, 60
1, 182049, Note_on_c, 0, 87, 78
1, 182049, Note_on_c, 0, 51, 48
1, 182052, Note_on_c, 0, 63, 58
1, 182084, Note_on_c, 0, 87, 0
1, 182084, Note_on_c, 0, 75, 0
1, 182084, Note_on_c, 0, 63, 0
1, 182087, Note_on_c, 0, 51, 0
1, 182118, Note_on_c, 0, 75, 60
1, 182118, Note_on_c, 0, 87, 78
1, 182118, Note_on_c, 0, 51, 48
1, 182121, Note_on_c, 0, 63, 58
1, 182191, Note_on_c, 0, 87, 0
1, 182191, Note_on_c, 0, 75, 0
1, 182191, Note_on_c, 0, 63, 0
1, 182194, Note_on_c, 0, 51, 0
1, 182264, Note_on_c, 0, 74, 67
1, 182264, Note_on_c, 0, 86, 88
1, 182264, Note_on_c, 0, 50, 56
1, 182267, Note_on_c, 0, 62, 68
1, 182272, Control_c, 0, 64, 0
1, 182318, Control_c, 0, 64, 127
1, 182335, Note_on_c, 0, 86, 0
1, 182335, Note_on_c, 0, 74, 0
1, 182335, Note_on_c, 0, 62, 0
1, 182338, Note_on_c, 0, 50, 0
1, 182406, Note_on_c, 0, 75, 70
1, 182406, Note_on_c, 0, 87, 91
1, 182406, Note_on_c, 0, 51, 62
1, 182409, Note_on_c, 0, 63, 72
1, 182413, Control_c, 0, 64, 0
1, 182466, Control_c, 0, 64, 127
1, 182478, Note_on_c, 0, 87, 0
1, 182478, Note_on_c, 0, 75, 0
1, 182478, Note_on_c, 0, 63, 0
1, 182481, Note_on_c, 0, 51, 0
1, 182547, Note_on_c, 0, 75, 76
1, 182547, Note_on_c, 0, 87, 98
1, 182547, Note_on_c, 0, 51, 64
1, 182550, Note_on_c, 0, 63, 78
1, 182553, Control_c, 0, 64, 0
1, 182601, Control_c, 0, 64, 127
1, 182624, Note_on_c, 0, 87, 0
1, 182624, Note_on_c, 0, 75, 0
1, 182624, Note_on_c, 0, 63, 0
1, 182627, Note_on_c, 0, 51, 0
1, 182644, Note_on_c, 0, 39, 56
1, 182663, Note_on_c, 0, 43, 56
1, 182682, Note_on_c, 0, 46, 56
1, 182701, Note_on_c, 0, 79, 81
1, 182701, Note_on_c, 0, 82, 82
1, 182701, Note_on_c, 0, 91, 101
1, 182704, Note_on_c, 0, 51, 66
1, 182704, Control_c, 0, 64, 0
1, 182736, Control_c, 0, 64, 127
1, 182745, Note_on_c, 0, 39, 0
1, 182754, Note_on_c, 0, 43, 0
1, 182763, Note_on_c, 0, 46, 0
1, 182772, Note_on_c, 0, 91, 0
1, 182772, Note_on_c, 0, 82, 0
1, 182772, Note_on_c, 0, 79, 0
1, 182775, Note_on_c, 0, 51, 0
1, 182915, Note_on_c, 0, 70, 60
1, 182915, Note_on_c, 0, 82, 78
1, 182915, Note_on_c, 0, 46, 48
1, 182918, Note_on_c, 0, 58, 58
1, 182949, Note_on_c, 0, 82, 0
1, 182949, Note_on_c, 0, 70, 0
1, 182949, Note_on_c, 0, 58, 0
1, 182952, Note_on_c, 0, 46, 0
1, 182984, Note_on_c, 0, 70, 60
1, 182984, Note_on_c, 0, 82, 78
1, 182984, Note_on_c, 0, 46, 48
1, 182987, Note_on_c, 0, 58, 58
1, 183057, Note_on_c, 0, 82, 0
1, 183057, Note_on_c, 0, 70, 0
1, 183057, Note_on_c, 0, 58, 0
1, 183060, Note_on_c, 0, 46, 0
1, 183131, Note_on_c, 0, 69, 67
1, 183131, Note_on_c, 0, 81, 88
1, 183131, Note_on_c, 0, 45, 56
1, 183134, Note_on_c, 0, 57, 68
1, 183138, Control_c, 0, 64, 0
1, 183184, Control_c, 0, 64, 127
1, 183201, Note_on_c, 0, 81, 0
1, 183201, Note_on_c, 0, 69, 0
1, 183201, Note_on_c, 0, 57, 0
1, 183204, Note_on_c, 0, 45, 0
1, 183271, Note_on_c, 0, 70, 70
1, 183271, Note_on_c, 0, 82, 91
1, 183271, Note_on_c, 0, 46, 62
1, 183274, Note_on_c, 0, 58, 72
1, 183278, Control_c, 0, 64, 0
1, 183331, Control_c, 0, 64, 127
1, 183344, Note_on_c, 0, 82, 0
1, 183344, Note_on_c, 0, 70, 0
1, 183344, Note_on_c, 0, 58, 0
1, 183347, Note_on_c, 0, 46, 0
1, 183413, Note_on_c, 0, 75, 76
1, 183413, Note_on_c, 0, 87, 98
1, 183413, Note_on_c, 0, 51, 64
1, 183416, Note_on_c, 0, 63, 78
1, 183419, Control_c, 0, 64, 0
1, 183467, Control_c, 0, 64, 127
1, 183490, Note_on_c, 0, 87, 0
1, 183490, Note_on_c, 0, 75, 0
1, 183490, Note_on_c, 0, 63, 0
1, 183493, Note_on_c, 0, 51, 0
1, 183529, Note_on_c, 0, 43, 56
1, 183548, Note_on_c, 0, 50, 56
1, 183567, Note_on_c, 0, 79, 81
1, 183567, Note_on_c, 0, 82, 82
1, 183567, Note_on_c, 0, 91, 101
1, 183570, Note_on_c, 0, 55, 66
1, 183570, Control_c, 0, 64, 0
1, 183602, Control_c, 0, 64, 127
1, 183619, Note_on_c, 0, 43, 0
1, 183628, Note_on_c, 0, 50, 0
1, 183637, Note_on_c, 0, 91, 0
1, 183637, Note_on_c, 0, 82, 0
1, 183637, Note_on_c, 0, 79, 0
1, 183640, Note_on_c, 0, 55, 0
1, 183778, Note_on_c, 0, 74, 60
1, 183778, Note_on_c, 0, 86, 78
1, 183778, Note_on_c, 0, 50, 48
1, 183781, Note_on_c, 0, 62, 58
1, 183813, Note_on_c, 0, 86, 0
1, 183813, Note_on_c, 0, 74, 0
1, 183813, Note_on_c, 0, 62, 0
1, 183816, Note_on_c, 0, 50, 0
1, 183847, Note_on_c, 0, 74, 60
1, 183847, Note_on_c, 0, 86, 78
1, 183847, Note_on_c, 0, 50, 48
1, 183850, Note_on_c, 0, 62, 58
1, 183919, Note_on_c, 0, 86, 0
1, 183919, Note_on_c, 0, 74, 0
1, 183919, Note_on_c, 0, 62, 0
1, 183922, Note_on_c, 0, 50, 0
1, 183990, Note_on_c, 0, 73, 67
1, 183990, Note_on_c, 0, 85, 88
1, 183990, Note_on_c, 0, 49, 56
1, 183993, Note_on_c, 0, 61, 68
1, 183998, Control_c, 0, 64, 0
1, 184045, Control_c, 0, 64, 127
1, 184061, Note_on_c, 0, 85, 0
1, 184061, Note_on_c, 0, 73, 0
1, 184061, Note_on_c, 0, 61, 0
1, 184064, Note_on_c, 0, 49, 0
1, 184132, Note_on_c, 0, 74, 70
1, 184132, Note_on_c, 0, 86, 91
1, 184132, Note_on_c, 0, 50, 62
1, 184135, Note_on_c, 0, 62, 72
1, 184140, Control_c, 0, 64, 0
1, 184193, Control_c, 0, 64, 127
1, 184206, Note_on_c, 0, 86, 0
1, 184206, Note_on_c, 0, 74, 0
1, 184206, Note_on_c, 0, 62, 0
1, 184209, Note_on_c, 0, 50, 0
1, 184280, Note_on_c, 0, 74, 76
1, 184280, Note_on_c, 0, 86, 98
1, 184280, Note_on_c, 0, 50, 64
1, 184283, Note_on_c, 0, 62, 78
1, 184286, Control_c, 0, 64, 0
1, 184334, Control_c, 0, 64, 127
1, 184358, Note_on_c, 0, 86, 0
1, 184358, Note_on_c, 0, 74, 0
1, 184358, Note_on_c, 0, 62, 0
1, 184361, Note_on_c, 0, 50, 0
1, 184435, Note_on_c, 0, 78, 81
1, 184435, Note_on_c, 0, 81, 82
1, 184435, Note_on_c, 0, 90, 101
1, 184438, Note_on_c, 0, 38, 56
1, 184438, Note_on_c, 0, 50, 66
1, 184438, Control_c, 0, 64, 0
1, 184470, Control_c, 0, 64, 127
1, 184505, Note_on_c, 0, 90, 0
1, 184505, Note_on_c, 0, 81, 0
1, 184505, Note_on_c, 0, 78, 0
1, 184508, Note_on_c, 0, 50, 0
1, 184508, Note_on_c, 0, 38, 0
1, 184575, Note_on_c, 0, 78, 60
1, 184575, Note_on_c, 0, 69, 60
1, 184575, Note_on_c, 0, 81, 78
1, 184578, Note_on_c, 0, 54, 48
1, 184578, Note_on_c, 0, 50, 48
1, 184578, Note_on_c, 0, 57, 58
1, 184602, Control_c, 0, 64, 0
1, 184640, Control_c, 0, 64, 127
1, 184648, Note_on_c, 0, 81, 0
1, 184648, Note_on_c, 0, 69, 0
1, 184648, Note_on_c, 0, 78, 0
1, 184651, Note_on_c, 0, 57, 0
1, 184651, Note_on_c, 0, 50, 0
1, 184651, Note_on_c, 0, 54, 0
1, 184713, Control_c, 0, 64, 0
1, 184721, Note_on_c, 0, 78, 60
1, 184721, Note_on_c, 0, 71, 60
1, 184721, Note_on_c, 0, 83, 78
1, 184724, Note_on_c, 0, 54, 48
1, 184724, Note_on_c, 0, 50, 48
1, 184724, Note_on_c, 0, 59, 58
1, 184751, Control_c, 0, 64, 127
1, 184794, Note_on_c, 0, 83, 0
1, 184794, Note_on_c, 0, 71, 0
1, 184794, Note_on_c, 0, 78, 0
1, 184797, Note_on_c, 0, 59, 0
1, 184797, Note_on_c, 0, 50, 0
1, 184797, Note_on_c, 0, 54, 0
1, 184822, Control_c, 0, 64, 0
1, 184867, Note_on_c, 0, 81, 73
1, 184867, Note_on_c, 0, 73, 73
1, 184867, Note_on_c, 0, 85, 96
1, 184870, Note_on_c, 0, 42, 61
1, 184870, Note_on_c, 0, 54, 74
1, 184894, Control_c, 0, 64, 127
1, 184937, Note_on_c, 0, 85, 0
1, 184937, Note_on_c, 0, 73, 0
1, 184937, Note_on_c, 0, 81, 0
1, 184940, Note_on_c, 0, 54, 0
1, 184940, Note_on_c, 0, 42, 0
1, 185008, Note_on_c, 0, 80, 70
1, 185008, Note_on_c, 0, 72, 70
1, 185008, Note_on_c, 0, 84, 91
1, 185011, Note_on_c, 0, 56, 62
1, 185011, Note_on_c, 0, 54, 62
1, 185011, Note_on_c, 0, 60, 72
1, 185038, Control_c, 0, 64, 0
1, 185074, Control_c, 0, 64, 127
1, 185082, Note_on_c, 0, 84, 0
1, 185082, Note_on_c, 0, 72, 0
1, 185082, Note_on_c, 0, 80, 0
1, 185085, Note_on_c, 0, 60, 0
1, 185085, Note_on_c, 0, 54, 0
1, 185085, Note_on_c, 0, 56, 0
1, 185141, Control_c, 0, 64, 0
1, 185156, Note_on_c, 0, 81, 76
1, 185156, Note_on_c, 0, 73, 76
1, 185156, Note_on_c, 0, 85, 98
1, 185159, Note_on_c, 0, 57, 64
1, 185159, Note_on_c, 0, 54, 64
1, 185159, Note_on_c, 0, 61, 78
1, 185216, Control_c, 0, 64, 127
1, 185235, Note_on_c, 0, 85, 0
1, 185235, Note_on_c, 0, 73, 0
1, 185235, Note_on_c, 0, 81, 0
1, 185238, Note_on_c, 0, 61, 0
1, 185238, Note_on_c, 0, 54, 0
1, 185238, Note_on_c, 0, 57, 0
1, 185273, Control_c, 0, 64, 0
1, 185314, Note_on_c, 0, 77, 81
1, 185314, Note_on_c, 0, 80, 82
1, 185314, Note_on_c, 0, 89, 101
1, 185317, Note_on_c, 0, 37, 56
1, 185317, Note_on_c, 0, 49, 66
1, 185349, Control_c, 0, 64, 127
1, 185385, Note_on_c, 0, 89, 0
1, 185385, Note_on_c, 0, 80, 0
1, 185385, Note_on_c, 0, 77, 0
1, 185388, Note_on_c, 0, 49, 0
1, 185388, Note_on_c, 0, 37, 0
1, 185455, Note_on_c, 0, 77, 60
1, 185455, Note_on_c, 0, 68, 60
1, 185455, Note_on_c, 0, 80, 78
1, 185458, Note_on_c, 0, 53, 48
1, 185458, Note_on_c, 0, 49, 48
1, 185458, Note_on_c, 0, 56, 58
1, 185483, Control_c, 0, 64, 0
1, 185520, Control_c, 0, 64, 127
1, 185528, Note_on_c, 0, 80, 0
1, 185528, Note_on_c, 0, 68, 0
1, 185528, Note_on_c, 0, 77, 0
1, 185531, Note_on_c, 0, 56, 0
1, 185531, Note_on_c, 0, 49, 0
1, 185531, Note_on_c, 0, 53, 0
1, 185594, Control_c, 0, 64, 0
1, 185602, Note_on_c, 0, 77, 60
1, 185602, Note_on_c, 0, 70, 60
1, 185602, Note_on_c, 0, 82, 78
1, 185605, Note_on_c, 0, 53, 48
1, 185605, Note_on_c, 0, 49, 48
1, 185605, Note_on_c, 0, 58, 58
1, 185632, Control_c, 0, 64, 127
1, 185675, Note_on_c, 0, 82, 0
1, 185675, Note_on_c, 0, 70, 0
1, 185675, Note_on_c, 0, 77, 0
1, 185678, Note_on_c, 0, 58, 0
1, 185678, Note_on_c, 0, 49, 0
1, 185678, Note_on_c, 0, 53, 0
1, 185702, Control_c, 0, 64, 0
1, 185748, Note_on_c, 0, 80, 73
1, 185748, Note_on_c, 0, 72, 73
1, 185748, Note_on_c, 0, 84, 96
1, 185751, Note_on_c, 0, 41, 61
1, 185751, Note_on_c, 0, 53, 74
1, 185775, Control_c, 0, 64, 127
1, 185819, Note_on_c, 0, 84, 0
1, 185819, Note_on_c, 0, 72, 0
1, 185819, Note_on_c, 0, 80, 0
1, 185822, Note_on_c, 0, 53, 0
1, 185822, Note_on_c, 0, 41, 0
1, 185890, Note_on_c, 0, 79, 70
1, 185890, Note_on_c, 0, 71, 70
1, 185890, Note_on_c, 0, 83, 91
1, 185893, Note_on_c, 0, 55, 62
1, 185893, Note_on_c, 0, 53, 62
1, 185893, Note_on_c, 0, 59, 72
1, 185920, Control_c, 0, 64, 0
1, 185957, Control_c, 0, 64, 127
1, 185965, Note_on_c, 0, 83, 0
1, 185965, Note_on_c, 0, 71, 0
1, 185965, Note_on_c, 0, 79, 0
1, 185968, Note_on_c, 0, 59, 0
1, 185968, Note_on_c, 0, 53, 0
1, 185968, Note_on_c, 0, 55, 0
1, 186024, Control_c, 0, 64, 0
1, 186040, Note_on_c, 0, 80, 76
1, 186040, Note_on_c, 0, 72, 76
1, 186040, Note_on_c, 0, 84, 98
1, 186043, Note_on_c, 0, 56, 64
1, 186043, Note_on_c, 0, 53, 64
1, 186043, Note_on_c, 0, 60, 78
1, 186106, Control_c, 0, 64, 127
1, 186128, Note_on_c, 0, 84, 0
1, 186128, Note_on_c, 0, 72, 0
1, 186128, Note_on_c, 0, 80, 0
1, 186131, Note_on_c, 0, 60, 0
1, 186131, Note_on_c, 0, 53, 0
1, 186131, Note_on_c, 0, 56, 0
1, 186170, Control_c, 0, 64, 0
1, 186215, Note_on_c, 0, 88, 79
1, 186215, Note_on_c, 0, 79, 66
1, 186215, Note_on_c, 0, 76, 66
1, 186218, Note_on_c, 0, 36, 53
1, 186218, Note_on_c, 0, 48, 63
1, 186228, Control_c, 0, 64, 0
1, 186252, Control_c, 0, 64, 127
1, 186308, Note_on_c, 0, 48, 0
1, 186308, Note_on_c, 0, 36, 0
1, 186354, Note_on_c, 0, 67, 57
1, 186354, Note_on_c, 0, 72, 57
1, 186354, Note_on_c, 0, 76, 69
1, 186357, Note_on_c, 0, 55, 45
1, 186357, Note_on_c, 0, 60, 45
1, 186357, Note_on_c, 0, 64, 54
1, 186401, Note_on_c, 0, 76, 0
1, 186401, Note_on_c, 0, 79, 0
1, 186401, Note_on_c, 0, 76, 0
1, 186404, Note_on_c, 0, 88, 0
1, 186404, Note_on_c, 0, 72, 0
1, 186404, Note_on_c, 0, 67, 0
1, 186407, Note_on_c, 0, 76, 79
1, 186407, Note_on_c, 0, 72, 66
1, 186407, Note_on_c, 0, 67, 66
1, 186410, Note_on_c, 0, 64, 0
1, 186410, Note_on_c, 0, 60, 0
1, 186410, Note_on_c, 0, 55, 0
1, 186413, Note_on_c, 0, 55, 54
1, 186413, Note_on_c, 0, 60, 54
1, 186413, Note_on_c, 0, 64, 63
1, 186599, Note_on_c, 0, 67, 0
1, 186599, Note_on_c, 0, 72, 0
1, 186599, Note_on_c, 0, 76, 0
1, 186602, Note_on_c, 0, 87, 79
1, 186602, Note_on_c, 0, 79, 66
1, 186602, Note_on_c, 0, 75, 66
1, 186605, Note_on_c, 0, 64, 0
1, 186605, Note_on_c, 0, 60, 0
1, 186605, Note_on_c, 0, 55, 0
1, 186608, Note_on_c, 0, 36, 53
1, 186608, Note_on_c, 0, 48, 63
1, 186613, Control_c, 0, 64, 0
1, 186641, Control_c, 0, 64, 127
1, 186693, Note_on_c, 0, 48, 0
1, 186693, Note_on_c, 0, 36, 0
1, 186740, Note_on_c, 0, 67, 57
1, 186740, Note_on_c, 0, 72, 57
1, 186740, Note_on_c, 0, 75, 69
1, 186743, Note_on_c, 0, 55, 45
1, 186743, Note_on_c, 0, 60, 45
1, 186743, Note_on_c, 0, 63, 54
1, 186787, Note_on_c, 0, 75, 0
1, 186787, Note_on_c, 0, 79, 0
1, 186787, Note_on_c, 0, 75, 0
1, 186790, Note_on_c, 0, 87, 0
1, 186790, Note_on_c, 0, 72, 0
1, 186790, Note_on_c, 0, 67, 0
1, 186793, Note_on_c, 0, 75, 79
1, 186793, Note_on_c, 0, 72, 66
1, 186793, Note_on_c, 0, 67, 66
1, 186796, Note_on_c, 0, 63, 0
1, 186796, Note_on_c, 0, 60, 0
1, 186796, Note_on_c, 0, 55, 0
1, 186799, Note_on_c, 0, 55, 54
1, 186799, Note_on_c, 0, 60, 54
1, 186799, Note_on_c, 0, 63, 63
1, 186985, Note_on_c, 0, 67, 0
1, 186985, Note_on_c, 0, 72, 0
1, 186985, Note_on_c, 0, 75, 0
1, 186988, Note_on_c, 0, 85, 79
1, 186988, Note_on_c, 0, 77, 66
1, 186988, Note_on_c, 0, 73, 66
1, 186991, Note_on_c, 0, 63, 0
1, 186991, Note_on_c, 0, 60, 0
1, 186991, Note_on_c, 0, 55, 0
1, 186994, Note_on_c, 0, 32, 53
1, 186994, Note_on_c, 0, 44, 63
1, 186999, Control_c, 0, 64, 0
1, 187023, Control_c, 0, 64, 127
1, 187079, Note_on_c, 0, 44, 0
1, 187079, Note_on_c, 0, 32, 0
1, 187126, Note_on_c, 0, 65, 57
1, 187126, Note_on_c, 0, 68, 57
1, 187126, Note_on_c, 0, 73, 69
1, 187129, Note_on_c, 0, 53, 45
1, 187129, Note_on_c, 0, 56, 45
1, 187129, Note_on_c, 0, 61, 54
1, 187173, Note_on_c, 0, 73, 0
1, 187173, Note_on_c, 0, 77, 0
1, 187173, Note_on_c, 0, 73, 0
1, 187176, Note_on_c, 0, 85, 0
1, 187176, Note_on_c, 0, 68, 0
1, 187176, Note_on_c, 0, 65, 0
1, 187179, Note_on_c, 0, 73, 79
1, 187179, Note_on_c, 0, 68, 66
1, 187179, Note_on_c, 0, 65, 66
1, 187182, Note_on_c, 0, 61, 0
1, 187182, Note_on_c, 0, 56, 0
1, 187182, Note_on_c, 0, 53, 0
1, 187185, Note_on_c, 0, 53, 54
1, 187185, Note_on_c, 0, 56, 54
1, 187185, Note_on_c, 0, 61, 63
1, 187370, Note_on_c, 0, 65, 0
1, 187370, Note_on_c, 0, 68, 0
1, 187370, Note_on_c, 0, 73, 0
1, 187373, Note_on_c, 0, 84, 79
1, 187373, Note_on_c, 0, 75, 66
1, 187373, Note_on_c, 0, 72, 66
1, 187376, Note_on_c, 0, 61, 0
1, 187376, Note_on_c, 0, 56, 0
1, 187376, Note_on_c, 0, 53, 0
1, 187379, Note_on_c, 0, 33, 53
1, 187379, Note_on_c, 0, 45, 63
1, 187384, Control_c, 0, 64, 0
1, 187413, Control_c, 0, 64, 127
1, 187466, Note_on_c, 0, 45, 0
1, 187466, Note_on_c, 0, 33, 0
1, 187514, Note_on_c, 0, 63, 57
1, 187514, Note_on_c, 0, 66, 57
1, 187514, Note_on_c, 0, 72, 69
1, 187517, Note_on_c, 0, 51, 45
1, 187517, Note_on_c, 0, 54, 45
1, 187517, Note_on_c, 0, 60, 54
1, 187562, Note_on_c, 0, 72, 0
1, 187562, Note_on_c, 0, 75, 0
1, 187562, Note_on_c, 0, 72, 0
1, 187565, Note_on_c, 0, 84, 0
1, 187565, Note_on_c, 0, 66, 0
1, 187565, Note_on_c, 0, 63, 0
1, 187568, Note_on_c, 0, 72, 79
1, 187568, Note_on_c, 0, 66, 66
1, 187568, Note_on_c, 0, 63, 66
1, 187571, Note_on_c, 0, 60, 0
1, 187571, Note_on_c, 0, 54, 0
1, 187571, Note_on_c, 0, 51, 0
1, 187574, Note_on_c, 0, 51, 54
1, 187574, Note_on_c, 0, 54, 54
1, 187574, Note_on_c, 0, 60, 63
1, 187768, Note_on_c, 0, 63, 0
1, 187768, Note_on_c, 0, 66, 0
1, 187768, Note_on_c, 0, 72, 0
1, 187771, Note_on_c, 0, 70, 61
1, 187771, Note_on_c, 0, 82, 73
1, 187771, Note_on_c, 0, 60, 0
1, 187774, Note_on_c, 0, 54, 0
1, 187774, Note_on_c, 0, 51, 0
1, 187774, Note_on_c, 0, 34, 48
1, 187777, Note_on_c, 0, 46, 57
1, 187777, Control_c, 0, 64, 0
1, 187777, Control_c, 0, 64, 0
1, 187803, Control_c, 0, 64, 127
1, 187839, Note_on_c, 0, 82, 0
1, 187839, Note_on_c, 0, 70, 0
1, 187839, Note_on_c, 0, 46, 0
1, 187842, Note_on_c, 0, 34, 0
1, 187911, Note_on_c, 0, 58, 50
1, 187911, Note_on_c, 0, 70, 59
1, 187983, Note_on_c, 0, 70, 0
1, 187983, Note_on_c, 0, 58, 0
1, 187983, Note_on_c, 0, 51, 40
1, 187986, Note_on_c, 0, 54, 48
1, 188019, Note_on_c, 0, 54, 0
1, 188019, Note_on_c, 0, 51, 0
1, 188056, Note_on_c, 0, 82, 63
1, 188056, Note_on_c, 0, 70, 53
1, 188056, Note_on_c, 0, 52, 41
1, 188059, Note_on_c, 0, 55, 49
1, 188059, Control_c, 0, 64, 0
1, 188130, Note_on_c, 0, 70, 0
1, 188130, Note_on_c, 0, 82, 0
1, 188130, Note_on_c, 0, 55, 0
1, 188133, Note_on_c, 0, 52, 0
1, 188203, Note_on_c, 0, 94, 77
1, 188203, Note_on_c, 0, 82, 64
1, 188203, Note_on_c, 0, 52, 51
1, 188206, Note_on_c, 0, 55, 60
1, 188231, Control_c, 0, 64, 127
1, 188276, Note_on_c, 0, 82, 0
1, 188276, Note_on_c, 0, 94, 0
1, 188276, Note_on_c, 0, 55, 0
1, 188279, Note_on_c, 0, 52, 0
1, 188348, Note_on_c, 0, 70, 52
1, 188348, Note_on_c, 0, 82, 62
1, 188423, Note_on_c, 0, 82, 0
1, 188423, Note_on_c, 0, 70, 0
1, 188423, Note_on_c, 0, 56, 48
1, 188426, Note_on_c, 0, 53, 40
1, 188461, Note_on_c, 0, 53, 0
1, 188461, Note_on_c, 0, 56, 0
1, 188498, Note_on_c, 0, 58, 52
1, 188498, Note_on_c, 0, 70, 62
1, 188498, Note_on_c, 0, 50, 42
1, 188501, Note_on_c, 0, 53, 50
1, 188517, Control_c, 0, 64, 0
1, 188577, Note_on_c, 0, 70, 0
1, 188577, Note_on_c, 0, 58, 0
1, 188577, Note_on_c, 0, 53, 0
1, 188580, Note_on_c, 0, 50, 0
1, 188655, Note_on_c, 0, 70, 61
1, 188655, Note_on_c, 0, 82, 73
1, 188655, Note_on_c, 0, 34, 48
1, 188658, Note_on_c, 0, 46, 57
1, 188658, Control_c, 0, 64, 0
1, 188658, Control_c, 0, 64, 0
1, 188690, Control_c, 0, 64, 127
1, 188726, Note_on_c, 0, 82, 0
1, 188726, Note_on_c, 0, 70, 0
1, 188726, Note_on_c, 0, 46, 0
1, 188729, Note_on_c, 0, 34, 0
1, 188797, Note_on_c, 0, 58, 50
1, 188797, Note_on_c, 0, 70, 59
1, 188869, Note_on_c, 0, 70, 0
1, 188869, Note_on_c, 0, 58, 0
1, 188869, Note_on_c, 0, 51, 40
1, 188872, Note_on_c, 0, 54, 48
1, 188905, Note_on_c, 0, 54, 0
1, 188905, Note_on_c, 0, 51, 0
1, 188941, Note_on_c, 0, 82, 63
1, 188941, Note_on_c, 0, 70, 53
1, 188941, Note_on_c, 0, 52, 41
1, 188944, Note_on_c, 0, 55, 49
1, 188944, Control_c, 0, 64, 0
1, 189014, Note_on_c, 0, 70, 0
1, 189014, Note_on_c, 0, 82, 0
1, 189014, Note_on_c, 0, 55, 0
1, 189017, Note_on_c, 0, 52, 0
1, 189087, Note_on_c, 0, 94, 77
1, 189087, Note_on_c, 0, 82, 64
1, 189087, Note_on_c, 0, 52, 51
1, 189090, Note_on_c, 0, 55, 60
1, 189114, Control_c, 0, 64, 127
1, 189159, Note_on_c, 0, 82, 0
1, 189159, Note_on_c, 0, 94, 0
1, 189159, Note_on_c, 0, 55, 0
1, 189162, Note_on_c, 0, 52, 0
1, 189231, Note_on_c, 0, 70, 52
1, 189231, Note_on_c, 0, 82, 62
1, 189304, Note_on_c, 0, 82, 0
1, 189304, Note_on_c, 0, 70, 0
1, 189304, Note_on_c, 0, 56, 48
1, 189307, Note_on_c, 0, 53, 40
1, 189341, Note_on_c, 0, 53, 0
1, 189341, Note_on_c, 0, 56, 0
1, 189377, Note_on_c, 0, 58, 52
1, 189377, Note_on_c, 0, 70, 62
1, 189377, Note_on_c, 0, 50, 42
1, 189380, Note_on_c, 0, 53, 50
1, 189395, Control_c, 0, 64, 0
1, 189455, Note_on_c, 0, 70, 0
1, 189455, Note_on_c, 0, 58, 0
1, 189455, Note_on_c, 0, 53, 0
1, 189458, Note_on_c, 0, 50, 0
1, 189532, Note_on_c, 0, 73, 67
1, 189532, Note_on_c, 0, 85, 80
1, 189532, Note_on_c, 0, 37, 52
1, 189535, Note_on_c, 0, 49, 62
1, 189535, Control_c, 0, 64, 0
1, 189535, Control_c, 0, 64, 0
1, 189567, Control_c, 0, 64, 127
1, 189603, Note_on_c, 0, 85, 0
1, 189603, Note_on_c, 0, 73, 0
1, 189603, Note_on_c, 0, 49, 0
1, 189606, Note_on_c, 0, 37, 0
1, 189674, Note_on_c, 0, 61, 55
1, 189674, Note_on_c, 0, 73, 64
1, 189746, Note_on_c, 0, 73, 0
1, 189746, Note_on_c, 0, 61, 0
1, 189746, Note_on_c, 0, 54, 44
1, 189749, Note_on_c, 0, 57, 52
1, 189782, Note_on_c, 0, 57, 0
1, 189782, Note_on_c, 0, 54, 0
1, 189818, Note_on_c, 0, 85, 69
1, 189818, Note_on_c, 0, 73, 58
1, 189818, Note_on_c, 0, 55, 45
1, 189821, Note_on_c, 0, 58, 53
1, 189821, Control_c, 0, 64, 0
1, 189891, Note_on_c, 0, 73, 0
1, 189891, Note_on_c, 0, 85, 0
1, 189891, Note_on_c, 0, 58, 0
1, 189894, Note_on_c, 0, 55, 0
1, 189964, Note_on_c, 0, 97, 84
1, 189964, Note_on_c, 0, 85, 70
1, 189964, Note_on_c, 0, 55, 56
1, 189967, Note_on_c, 0, 58, 66
1, 189990, Control_c, 0, 64, 127
1, 190035, Note_on_c, 0, 85, 0
1, 190035, Note_on_c, 0, 97, 0
1, 190035, Note_on_c, 0, 58, 0
1, 190038, Note_on_c, 0, 55, 0
1, 190107, Note_on_c, 0, 73, 57
1, 190107, Note_on_c, 0, 85, 68
1, 190180, Note_on_c, 0, 85, 0
1, 190180, Note_on_c, 0, 73, 0
1, 190180, Note_on_c, 0, 59, 52
1, 190183, Note_on_c, 0, 56, 44
1, 190216, Note_on_c, 0, 56, 0
1, 190216, Note_on_c, 0, 59, 0
1, 190252, Note_on_c, 0, 61, 57
1, 190252, Note_on_c, 0, 73, 68
1, 190252, Note_on_c, 0, 53, 46
1, 190255, Note_on_c, 0, 56, 55
1, 190270, Control_c, 0, 64, 0
1, 190327, Note_on_c, 0, 73, 0
1, 190327, Note_on_c, 0, 61, 0
1, 190327, Note_on_c, 0, 56, 0
1, 190330, Note_on_c, 0, 53, 0
1, 190402, Note_on_c, 0, 73, 67
1, 190402, Note_on_c, 0, 85, 80
1, 190402, Note_on_c, 0, 37, 52
1, 190405, Note_on_c, 0, 49, 62
1, 190405, Control_c, 0, 64, 0
1, 190405, Control_c, 0, 64, 0
1, 190438, Control_c, 0, 64, 127
1, 190473, Note_on_c, 0, 85, 0
1, 190473, Note_on_c, 0, 73, 0
1, 190473, Note_on_c, 0, 49, 0
1, 190476, Note_on_c, 0, 37, 0
1, 190544, Note_on_c, 0, 61, 55
1, 190544, Note_on_c, 0, 73, 64
1, 190616, Note_on_c, 0, 73, 0
1, 190616, Note_on_c, 0, 61, 0
1, 190616, Note_on_c, 0, 54, 44
1, 190619, Note_on_c, 0, 57, 52
1, 190652, Note_on_c, 0, 57, 0
1, 190652, Note_on_c, 0, 54, 0
1, 190688, Note_on_c, 0, 85, 69
1, 190688, Note_on_c, 0, 73, 58
1, 190688, Note_on_c, 0, 55, 45
1, 190691, Note_on_c, 0, 58, 53
1, 190691, Control_c, 0, 64, 0
1, 190760, Note_on_c, 0, 73, 0
1, 190760, Note_on_c, 0, 85, 0
1, 190760, Note_on_c, 0, 58, 0
1, 190763, Note_on_c, 0, 55, 0
1, 190833, Note_on_c, 0, 97, 84
1, 190833, Note_on_c, 0, 85, 70
1, 190833, Note_on_c, 0, 55, 56
1, 190836, Note_on_c, 0, 58, 66
1, 190860, Control_c, 0, 64, 127
1, 190905, Note_on_c, 0, 85, 0
1, 190905, Note_on_c, 0, 97, 0
1, 190905, Note_on_c, 0, 58, 0
1, 190908, Note_on_c, 0, 55, 0
1, 190976, Note_on_c, 0, 73, 57
1, 190976, Note_on_c, 0, 85, 68
1, 191049, Note_on_c, 0, 85, 0
1, 191049, Note_on_c, 0, 73, 0
1, 191049, Note_on_c, 0, 59, 52
1, 191052, Note_on_c, 0, 56, 44
1, 191086, Note_on_c, 0, 56, 0
1, 191086, Note_on_c, 0, 59, 0
1, 191122, Note_on_c, 0, 61, 57
1, 191122, Note_on_c, 0, 73, 68
1, 191122, Note_on_c, 0, 53, 46
1, 191125, Note_on_c, 0, 56, 55
1, 191140, Control_c, 0, 64, 0
1, 191199, Note_on_c, 0, 73, 0
1, 191199, Note_on_c, 0, 61, 0
1, 191199, Note_on_c, 0, 56, 0
1, 191202, Note_on_c, 0, 53, 0
1, 191276, Note_on_c, 0, 76, 67
1, 191276, Note_on_c, 0, 88, 80
1, 191276, Note_on_c, 0, 40, 52
1, 191279, Note_on_c, 0, 52, 62
1, 191279, Control_c, 0, 64, 0
1, 191279, Control_c, 0, 64, 0
1, 191311, Control_c, 0, 64, 127
1, 191347, Note_on_c, 0, 88, 0
1, 191347, Note_on_c, 0, 76, 0
1, 191347, Note_on_c, 0, 52, 0
1, 191350, Note_on_c, 0, 40, 0
1, 191418, Note_on_c, 0, 64, 55
1, 191418, Note_on_c, 0, 76, 64
1, 191489, Note_on_c, 0, 76, 0
1, 191489, Note_on_c, 0, 64, 0
1, 191489, Note_on_c, 0, 57, 44
1, 191492, Note_on_c, 0, 60, 53
1, 191525, Note_on_c, 0, 60, 0
1, 191525, Note_on_c, 0, 57, 0
1, 191561, Note_on_c, 0, 88, 69
1, 191561, Note_on_c, 0, 76, 58
1, 191561, Note_on_c, 0, 58, 45
1, 191564, Note_on_c, 0, 61, 54
1, 191564, Control_c, 0, 64, 0
1, 191634, Note_on_c, 0, 76, 0
1, 191634, Note_on_c, 0, 88, 0
1, 191634, Note_on_c, 0, 61, 0
1, 191637, Note_on_c, 0, 58, 0
1, 191707, Note_on_c, 0, 100, 86
1, 191707, Note_on_c, 0, 88, 71
1, 191707, Note_on_c, 0, 58, 57
1, 191710, Note_on_c, 0, 61, 67
1, 191734, Control_c, 0, 64, 127
1, 191779, Note_on_c, 0, 88, 0
1, 191779, Note_on_c, 0, 100, 0
1, 191779, Note_on_c, 0, 61, 0
1, 191782, Note_on_c, 0, 58, 0
1, 191850, Note_on_c, 0, 76, 58
1, 191850, Note_on_c, 0, 88, 70
1, 191924, Note_on_c, 0, 88, 0
1, 191924, Note_on_c, 0, 76, 0
1, 191924, Note_on_c, 0, 62, 54
1, 191927, Note_on_c, 0, 59, 45
1, 191960, Note_on_c, 0, 59, 0
1, 191960, Note_on_c, 0, 62, 0
1, 191997, Note_on_c, 0, 64, 59
1, 191997, Note_on_c, 0, 76, 70
1, 191997, Note_on_c, 0, 56, 47
1, 192000, Note_on_c, 0, 59, 57
1, 192015, Control_c, 0, 64, 0
1, 192073, Note_on_c, 0, 76, 0
1, 192073, Note_on_c, 0, 64, 0
1, 192073, Note_on_c, 0, 59, 0
1, 192076, Note_on_c, 0, 56, 0
1, 192148, Note_on_c, 0, 79, 70
1, 192148, Note_on_c, 0, 91, 83
1, 192148, Note_on_c, 0, 43, 55
1, 192151, Note_on_c, 0, 55, 65
1, 192151, Control_c, 0, 64, 0
1, 192151, Control_c, 0, 64, 0
1, 192184, Control_c, 0, 64, 127
1, 192219, Note_on_c, 0, 91, 0
1, 192219, Note_on_c, 0, 79, 0
1, 192219, Note_on_c, 0, 55, 0
1, 192222, Note_on_c, 0, 43, 0
1, 192289, Note_on_c, 0, 67, 57
1, 192289, Note_on_c, 0, 79, 67
1, 192361, Note_on_c, 0, 79, 0
1, 192361, Note_on_c, 0, 67, 0
1, 192361, Note_on_c, 0, 60, 46
1, 192364, Note_on_c, 0, 63, 55
1, 192397, Note_on_c, 0, 63, 0
1, 192397, Note_on_c, 0, 60, 0
1, 192433, Note_on_c, 0, 91, 73
1, 192433, Note_on_c, 0, 79, 61
1, 192433, Note_on_c, 0, 61, 47
1, 192436, Note_on_c, 0, 64, 56
1, 192436, Control_c, 0, 64, 0
1, 192506, Note_on_c, 0, 79, 0
1, 192506, Note_on_c, 0, 91, 0
1, 192506, Note_on_c, 0, 64, 0
1, 192509, Note_on_c, 0, 61, 0
1, 192579, Note_on_c, 0, 103, 90
1, 192579, Note_on_c, 0, 91, 74
1, 192579, Note_on_c, 0, 61, 59
1, 192582, Note_on_c, 0, 64, 70
1, 192606, Control_c, 0, 64, 127
1, 192650, Note_on_c, 0, 91, 0
1, 192650, Note_on_c, 0, 103, 0
1, 192650, Note_on_c, 0, 64, 0
1, 192653, Note_on_c, 0, 61, 0
1, 192722, Note_on_c, 0, 79, 61
1, 192722, Note_on_c, 0, 91, 73
1, 192794, Note_on_c, 0, 91, 0
1, 192794, Note_on_c, 0, 79, 0
1, 192794, Note_on_c, 0, 65, 56
1, 192797, Note_on_c, 0, 62, 47
1, 192830, Note_on_c, 0, 62, 0
1, 192830, Note_on_c, 0, 65, 0
1, 192866, Note_on_c, 0, 67, 61
1, 192866, Note_on_c, 0, 79, 73
1, 192866, Note_on_c, 0, 59, 49
1, 192869, Note_on_c, 0, 62, 59
1, 192884, Control_c, 0, 64, 0
1, 192943, Note_on_c, 0, 79, 0
1, 192943, Note_on_c, 0, 67, 0
1, 192943, Note_on_c, 0, 62, 0
1, 192946, Note_on_c, 0, 59, 0
1, 193019, Note_on_c, 0, 82, 73
1, 193019, Note_on_c, 0, 94, 87
1, 193019, Note_on_c, 0, 43, 57
1, 193022, Note_on_c, 0, 55, 68
1, 193022, Control_c, 0, 64, 0
1, 193022, Control_c, 0, 64, 0
1, 193054, Control_c, 0, 64, 127
1, 193090, Note_on_c, 0, 94, 0
1, 193090, Note_on_c, 0, 82, 0
1, 193090, Note_on_c, 0, 55, 0
1, 193093, Note_on_c, 0, 43, 0
1, 193161, Note_on_c, 0, 70, 60
1, 193161, Note_on_c, 0, 82, 70
1, 193232, Note_on_c, 0, 82, 0
1, 193232, Note_on_c, 0, 70, 0
1, 193232, Note_on_c, 0, 63, 48
1, 193235, Note_on_c, 0, 60, 48
1, 193235, Note_on_c, 0, 67, 58
1, 193268, Note_on_c, 0, 67, 0
1, 193268, Note_on_c, 0, 60, 0
1, 193268, Note_on_c, 0, 63, 0
1, 193304, Note_on_c, 0, 94, 76
1, 193304, Note_on_c, 0, 82, 64
1, 193304, Note_on_c, 0, 64, 49
1, 193307, Note_on_c, 0, 61, 49
1, 193307, Note_on_c, 0, 67, 59
1, 193307, Control_c, 0, 64, 0
1, 193377, Note_on_c, 0, 82, 0
1, 193377, Note_on_c, 0, 94, 0
1, 193377, Note_on_c, 0, 67, 0
1, 193380, Note_on_c, 0, 61, 0
1, 193380, Note_on_c, 0, 64, 0
1, 193449, Note_on_c, 0, 106, 93
1, 193449, Note_on_c, 0, 94, 78
1, 193449, Note_on_c, 0, 60, 62
1, 193452, Note_on_c, 0, 64, 62
1, 193452, Note_on_c, 0, 67, 73
1, 193476, Control_c, 0, 64, 127
1, 193521, Note_on_c, 0, 94, 0
1, 193521, Note_on_c, 0, 106, 0
1, 193521, Note_on_c, 0, 67, 0
1, 193524, Note_on_c, 0, 64, 0
1, 193524, Note_on_c, 0, 60, 0
1, 193593, Note_on_c, 0, 82, 63
1, 193593, Note_on_c, 0, 94, 76
1, 193666, Note_on_c, 0, 94, 0
1, 193666, Note_on_c, 0, 82, 0
1, 193666, Note_on_c, 0, 62, 49
1, 193669, Note_on_c, 0, 67, 59
1, 193669, Note_on_c, 0, 65, 49
1, 193702, Note_on_c, 0, 65, 0
1, 193702, Note_on_c, 0, 67, 0
1, 193702, Note_on_c, 0, 62, 0
1, 193739, Note_on_c, 0, 70, 64
1, 193739, Note_on_c, 0, 82, 76
1, 193739, Note_on_c, 0, 55, 52
1, 193742, Note_on_c, 0, 62, 52
1, 193742, Note_on_c, 0, 67, 62
1, 193756, Control_c, 0, 64, 0
1, 193814, Note_on_c, 0, 82, 0
1, 193814, Note_on_c, 0, 70, 0
1, 193814, Note_on_c, 0, 67, 0
1, 193817, Note_on_c, 0, 62, 0
1, 193817, Note_on_c, 0, 55, 0
1, 193889, Note_on_c, 0, 83, 76
1, 193889, Note_on_c, 0, 95, 91
1, 193889, Note_on_c, 0, 43, 60
1, 193892, Note_on_c, 0, 55, 71
1, 193892, Control_c, 0, 64, 0
1, 193892, Control_c, 0, 64, 0
1, 193925, Control_c, 0, 64, 127
1, 193962, Note_on_c, 0, 95, 0
1, 193962, Note_on_c, 0, 83, 0
1, 193962, Note_on_c, 0, 55, 0
1, 193965, Note_on_c, 0, 43, 0
1, 194034, Note_on_c, 0, 71, 62
1, 194034, Note_on_c, 0, 83, 73
1, 194108, Note_on_c, 0, 83, 0
1, 194108, Note_on_c, 0, 71, 0
1, 194108, Note_on_c, 0, 64, 50
1, 194111, Note_on_c, 0, 61, 50
1, 194111, Note_on_c, 0, 67, 60
1, 194145, Note_on_c, 0, 67, 0
1, 194145, Note_on_c, 0, 61, 0
1, 194145, Note_on_c, 0, 64, 0
1, 194182, Note_on_c, 0, 95, 79
1, 194182, Note_on_c, 0, 83, 66
1, 194182, Note_on_c, 0, 65, 51
1, 194185, Note_on_c, 0, 62, 51
1, 194185, Note_on_c, 0, 67, 61
1, 194185, Control_c, 0, 64, 0
1, 194258, Note_on_c, 0, 83, 0
1, 194258, Note_on_c, 0, 95, 0
1, 194258, Note_on_c, 0, 67, 0
1, 194261, Note_on_c, 0, 62, 0
1, 194261, Note_on_c, 0, 65, 0
1, 194334, Note_on_c, 0, 107, 97
1, 194334, Note_on_c, 0, 95, 81
1, 194334, Note_on_c, 0, 62, 64
1, 194337, Note_on_c, 0, 65, 64
1, 194337, Note_on_c, 0, 67, 76
1, 194362, Control_c, 0, 64, 127
1, 194408, Note_on_c, 0, 95, 0
1, 194408, Note_on_c, 0, 107, 0
1, 194408, Note_on_c, 0, 67, 0
1, 194411, Note_on_c, 0, 65, 0
1, 194411, Note_on_c, 0, 62, 0
1, 194483, Note_on_c, 0, 83, 66
1, 194483, Note_on_c, 0, 95, 79
1, 194561, Note_on_c, 0, 95, 0
1, 194561, Note_on_c, 0, 83, 0
1, 194561, Note_on_c, 0, 56, 51
1, 194564, Note_on_c, 0, 62, 51
1, 194564, Note_on_c, 0, 68, 61
1, 194564, Note_on_c, 0, 65, 51
1, 194601, Note_on_c, 0, 65, 0
1, 194601, Note_on_c, 0, 56, 0
1, 194601, Note_on_c, 0, 62, 0
1, 194604, Note_on_c, 0, 68, 0
1, 194640, Note_on_c, 0, 71, 67
1, 194640, Note_on_c, 0, 83, 79
1, 194640, Note_on_c, 0, 65, 54
1, 194643, Note_on_c, 0, 55, 54
1, 194643, Note_on_c, 0, 62, 54
1, 194643, Note_on_c, 0, 67, 64
1, 194664, Control_c, 0, 64, 0
1, 194745, Note_on_c, 0, 83, 0
1, 194745, Note_on_c, 0, 71, 0
1, 194745, Note_on_c, 0, 67, 0
1, 194748, Note_on_c, 0, 65, 0
1, 194748, Note_on_c, 0, 55, 0
1, 194748, Note_on_c, 0, 62, 0
1, 194850, Note_on_c, 0, 76, 58
1, 194850, Note_on_c, 0, 88, 77
1, 194850, Note_on_c, 0, 48, 37
1, 194853, Note_on_c, 0, 36, 37
1, 194853, Control_c, 0, 64, 0
1, 194935, Note_on_c, 0, 79, 46
1, 194935, Note_on_c, 0, 36, 0
1, 194935, Note_on_c, 0, 48, 0
1, 194940, Control_c, 0, 64, 127
1, 195021, Note_on_c, 0, 79, 0
1, 195021, Note_on_c, 0, 84, 46
1, 195021, Note_on_c, 0, 52, 24
1, 195024, Note_on_c, 0, 55, 24
1, 195024, Note_on_c, 0, 62, 35
1, 195106, Note_on_c, 0, 84, 0
1, 195106, Note_on_c, 0, 88, 0
1, 195106, Note_on_c, 0, 76, 0
1, 195109, Note_on_c, 0, 74, 52
1, 195109, Note_on_c, 0, 86, 69
1, 195109, Note_on_c, 0, 62, 0
1, 195112, Note_on_c, 0, 55, 0
1, 195112, Note_on_c, 0, 52, 0
1, 195112, Control_c, 0, 64, 0
1, 195146, Control_c, 0, 64, 127
1, 195191, Note_on_c, 0, 76, 42
1, 195191, Note_on_c, 0, 48, 37
1, 195277, Note_on_c, 0, 76, 0
1, 195277, Note_on_c, 0, 79, 42
1, 195277, Note_on_c, 0, 48, 0
1, 195362, Note_on_c, 0, 79, 0
1, 195362, Note_on_c, 0, 86, 0
1, 195362, Note_on_c, 0, 74, 0
1, 195365, Note_on_c, 0, 72, 51
1, 195365, Note_on_c, 0, 84, 68
1, 195365, Note_on_c, 0, 52, 33
1, 195368, Note_on_c, 0, 55, 33
1, 195368, Note_on_c, 0, 60, 49
1, 195368, Control_c, 0, 64, 0
1, 195409, Control_c, 0, 64, 127
1, 195445, Note_on_c, 0, 76, 41
1, 195445, Note_on_c, 0, 60, 0
1, 195445, Note_on_c, 0, 55, 0
1, 195448, Note_on_c, 0, 52, 0
1, 195529, Note_on_c, 0, 76, 0
1, 195529, Note_on_c, 0, 79, 42
1, 195529, Note_on_c, 0, 48, 37
1, 195612, Note_on_c, 0, 79, 0
1, 195612, Note_on_c, 0, 84, 0
1, 195612, Note_on_c, 0, 72, 0
1, 195615, Note_on_c, 0, 71, 52
1, 195615, Note_on_c, 0, 83, 69
1, 195615, Note_on_c, 0, 48, 0
1, 195695, Note_on_c, 0, 76, 42
1, 195695, Note_on_c, 0, 52, 29
1, 195695, Note_on_c, 0, 55, 29
1, 195698, Note_on_c, 0, 59, 42
1, 195782, Note_on_c, 0, 76, 0
1, 195782, Note_on_c, 0, 79, 42
1, 195782, Note_on_c, 0, 59, 0
1, 195785, Note_on_c, 0, 55, 0
1, 195785, Note_on_c, 0, 52, 0
1, 195869, Note_on_c, 0, 79, 0
1, 195869, Note_on_c, 0, 83, 0
1, 195869, Note_on_c, 0, 71, 0
1, 195872, Note_on_c, 0, 69, 51
1, 195872, Note_on_c, 0, 81, 71
1, 195872, Note_on_c, 0, 36, 37
1, 195875, Control_c, 0, 64, 0
1, 195911, Control_c, 0, 64, 127
1, 195953, Note_on_c, 0, 72, 46
1, 195953, Note_on_c, 0, 36, 0
1, 196037, Note_on_c, 0, 72, 0
1, 196037, Note_on_c, 0, 76, 46
1, 196037, Note_on_c, 0, 52, 24
1, 196040, Note_on_c, 0, 54, 24
1, 196040, Note_on_c, 0, 57, 35
1, 196122, Note_on_c, 0, 76, 0
1, 196122, Note_on_c, 0, 81, 0
1, 196122, Note_on_c, 0, 69, 0
1, 196125, Note_on_c, 0, 66, 51
1, 196125, Note_on_c, 0, 78, 67
1, 196125, Note_on_c, 0, 57, 0
1, 196128, Note_on_c, 0, 54, 0
1, 196128, Note_on_c, 0, 52, 0
1, 196128, Control_c, 0, 64, 0
1, 196169, Control_c, 0, 64, 127
1, 196206, Note_on_c, 0, 72, 41
1, 196206, Note_on_c, 0, 48, 37
1, 196293, Note_on_c, 0, 72, 0
1, 196293, Note_on_c, 0, 76, 41
1, 196293, Note_on_c, 0, 48, 0
1, 196380, Note_on_c, 0, 76, 0
1, 196380, Note_on_c, 0, 78, 0
1, 196380, Note_on_c, 0, 66, 0
1, 196383, Note_on_c, 0, 67, 54
1, 196383, Note_on_c, 0, 79, 70
1, 196383, Note_on_c, 0, 52, 33
1, 196386, Note_on_c, 0, 55, 49
1, 196386, Control_c, 0, 64, 0
1, 196429, Control_c, 0, 64, 127
1, 196464, Note_on_c, 0, 72, 44
1, 196464, Note_on_c, 0, 55, 0
1, 196464, Note_on_c, 0, 52, 0
1, 196548, Note_on_c, 0, 72, 0
1, 196548, Note_on_c, 0, 76, 44
1, 196548, Note_on_c, 0, 48, 37
1, 196631, Note_on_c, 0, 76, 0
1, 196631, Note_on_c, 0, 79, 0
1, 196631, Note_on_c, 0, 67, 0
1, 196634, Note_on_c, 0, 76, 57
1, 196634, Note_on_c, 0, 88, 73
1, 196634, Note_on_c, 0, 48, 0
1, 196715, Note_on_c, 0, 79, 41
1, 196715, Note_on_c, 0, 55, 29
1, 196715, Note_on_c, 0, 60, 29
1, 196718, Note_on_c, 0, 64, 42
1, 196801, Note_on_c, 0, 79, 0
1, 196801, Note_on_c, 0, 84, 41
1, 196801, Note_on_c, 0, 64, 0
1, 196804, Note_on_c, 0, 60, 0
1, 196804, Note_on_c, 0, 55, 0
1, 196888, Note_on_c, 0, 84, 0
1, 196888, Note_on_c, 0, 88, 0
1, 196888, Note_on_c, 0, 76, 0
1, 196891, Note_on_c, 0, 76, 58
1, 196891, Note_on_c, 0, 88, 77
1, 196891, Note_on_c, 0, 48, 37
1, 196894, Note_on_c, 0, 36, 37
1, 196894, Control_c, 0, 64, 0
1, 196972, Note_on_c, 0, 78, 46
1, 196972, Note_on_c, 0, 36, 0
1, 196972, Note_on_c, 0, 48, 0
1, 196977, Control_c, 0, 64, 127
1, 197057, Note_on_c, 0, 78, 0
1, 197057, Note_on_c, 0, 81, 46
1, 197057, Note_on_c, 0, 54, 24
1, 197060, Note_on_c, 0, 57, 24
1, 197060, Note_on_c, 0, 64, 35
1, 197141, Note_on_c, 0, 81, 0
1, 197141, Note_on_c, 0, 88, 0
1, 197141, Note_on_c, 0, 76, 0
1, 197144, Note_on_c, 0, 73, 68
1, 197144, Note_on_c, 0, 85, 74
1, 197144, Note_on_c, 0, 64, 0
1, 197147, Note_on_c, 0, 57, 0
1, 197147, Note_on_c, 0, 54, 0
1, 197147, Control_c, 0, 64, 0
1, 197181, Control_c, 0, 64, 127
1, 197226, Note_on_c, 0, 78, 42
1, 197226, Note_on_c, 0, 48, 37
1, 197310, Note_on_c, 0, 78, 0
1, 197310, Note_on_c, 0, 81, 42
1, 197310, Note_on_c, 0, 48, 0
1, 197395, Note_on_c, 0, 81, 0
1, 197395, Note_on_c, 0, 85, 0
1, 197395, Note_on_c, 0, 73, 0
1, 197398, Note_on_c, 0, 74, 56
1, 197398, Note_on_c, 0, 86, 73
1, 197398, Note_on_c, 0, 54, 33
1, 197401, Note_on_c, 0, 57, 33
1, 197401, Note_on_c, 0, 62, 49
1, 197401, Control_c, 0, 64, 0
1, 197441, Control_c, 0, 64, 127
1, 197478, Note_on_c, 0, 78, 41
1, 197478, Note_on_c, 0, 62, 0
1, 197478, Note_on_c, 0, 57, 0
1, 197481, Note_on_c, 0, 54, 0
1, 197561, Note_on_c, 0, 78, 0
1, 197561, Note_on_c, 0, 81, 42
1, 197561, Note_on_c, 0, 48, 37
1, 197644, Note_on_c, 0, 81, 0
1, 197644, Note_on_c, 0, 86, 0
1, 197644, Note_on_c, 0, 74, 0
1, 197647, Note_on_c, 0, 76, 60
1, 197647, Note_on_c, 0, 88, 78
1, 197647, Note_on_c, 0, 48, 0
1, 197727, Note_on_c, 0, 78, 42
1, 197727, Note_on_c, 0, 54, 29
1, 197727, Note_on_c, 0, 57, 29
1, 197730, Note_on_c, 0, 64, 42
1, 197814, Note_on_c, 0, 78, 0
1, 197814, Note_on_c, 0, 81, 42
1, 197814, Note_on_c, 0, 64, 0
1, 197817, Note_on_c, 0, 57, 0
1, 197817, Note_on_c, 0, 54, 0
1, 197900, Note_on_c, 0, 81, 0
1, 197900, Note_on_c, 0, 88, 0
1, 197900, Note_on_c, 0, 76, 0
1, 197903, Note_on_c, 0, 77, 63
1, 197903, Note_on_c, 0, 89, 82
1, 197903, Note_on_c, 0, 48, 46
1, 197906, Control_c, 0, 64, 0
1, 197943, Control_c, 0, 64, 127
1, 197986, Note_on_c, 0, 83, 49
1, 197986, Note_on_c, 0, 48, 0
1, 198071, Note_on_c, 0, 83, 0
1, 198071, Note_on_c, 0, 86, 51
1, 198071, Note_on_c, 0, 55, 32
1, 198074, Note_on_c, 0, 59, 32
1, 198074, Note_on_c, 0, 65, 38
1, 198157, Note_on_c, 0, 86, 0
1, 198157, Note_on_c, 0, 89, 0
1, 198157, Note_on_c, 0, 77, 0
1, 198160, Note_on_c, 0, 78, 59
1, 198160, Note_on_c, 0, 90, 77
1, 198160, Note_on_c, 0, 65, 0
1, 198163, Note_on_c, 0, 59, 0
1, 198163, Note_on_c, 0, 55, 0
1, 198163, Control_c, 0, 64, 0
1, 198204, Control_c, 0, 64, 127
1, 198242, Note_on_c, 0, 83, 50
1, 198242, Note_on_c, 0, 48, 48
1, 198330, Note_on_c, 0, 83, 0
1, 198330, Note_on_c, 0, 86, 51
1, 198330, Note_on_c, 0, 48, 0
1, 198444, Note_on_c, 0, 86, 0
1, 198444, Note_on_c, 0, 90, 0
1, 198444, Note_on_c, 0, 78, 0
1, 198447, Note_on_c, 0, 81, 65
1, 198447, Note_on_c, 0, 93, 84
1, 198447, Note_on_c, 0, 59, 32
1, 198450, Note_on_c, 0, 65, 32
1, 198450, Note_on_c, 0, 69, 38
1, 198450, Control_c, 0, 64, 0
1, 198494, Control_c, 0, 64, 127
1, 198529, Note_on_c, 0, 83, 54
1, 198529, Note_on_c, 0, 69, 0
1, 198529, Note_on_c, 0, 65, 0
1, 198532, Note_on_c, 0, 59, 0
1, 198615, Note_on_c, 0, 83, 0
1, 198615, Note_on_c, 0, 86, 55
1, 198615, Note_on_c, 0, 48, 50
1, 198700, Note_on_c, 0, 86, 0
1, 198700, Note_on_c, 0, 93, 0
1, 198700, Note_on_c, 0, 81, 0
1, 198703, Note_on_c, 0, 79, 60
1, 198703, Note_on_c, 0, 91, 78
1, 198703, Note_on_c, 0, 48, 0
1, 198786, Note_on_c, 0, 83, 53
1, 198786, Note_on_c, 0, 59, 37
1, 198786, Note_on_c, 0, 65, 37
1, 198789, Note_on_c, 0, 67, 44
1, 198875, Note_on_c, 0, 83, 0
1, 198875, Note_on_c, 0, 86, 52
1, 198875, Note_on_c, 0, 67, 0
1, 198878, Note_on_c, 0, 65, 0
1, 198878, Note_on_c, 0, 59, 0
1, 198965, Note_on_c, 0, 86, 0
1, 198965, Note_on_c, 0, 91, 0
1, 198965, Note_on_c, 0, 79, 0
1, 198968, Note_on_c, 0, 76, 58
1, 198968, Note_on_c, 0, 88, 77
1, 198968, Note_on_c, 0, 48, 37
1, 198971, Note_on_c, 0, 36, 37
1, 198971, Control_c, 0, 64, 0
1, 199050, Note_on_c, 0, 88, 0
1, 199050, Note_on_c, 0, 76, 0
1, 199050, Note_on_c, 0, 79, 46
1, 199053, Note_on_c, 0, 36, 0
1, 199053, Note_on_c, 0, 48, 0
1, 199053, Control_c, 0, 64, 127
1, 199135, Note_on_c, 0, 79, 0
1, 199135, Note_on_c, 0, 84, 46
1, 199135, Note_on_c, 0, 52, 24
1, 199138, Note_on_c, 0, 55, 24
1, 199138, Note_on_c, 0, 62, 35
1, 199221, Note_on_c, 0, 84, 0
1, 199221, Note_on_c, 0, 74, 52
1, 199221, Note_on_c, 0, 86, 69
1, 199224, Control_c, 0, 64, 0
1, 199261, Control_c, 0, 64, 127
1, 199306, Note_on_c, 0, 86, 0
1, 199306, Note_on_c, 0, 74, 0
1, 199306, Note_on_c, 0, 76, 42
1, 199309, Note_on_c, 0, 62, 0
1, 199309, Note_on_c, 0, 55, 0
1, 199309, Note_on_c, 0, 52, 0
1, 199312, Note_on_c, 0, 48, 37
1, 199392, Note_on_c, 0, 76, 0
1, 199392, Note_on_c, 0, 79, 42
1, 199477, Note_on_c, 0, 79, 0
1, 199477, Note_on_c, 0, 72, 51
1, 199477, Note_on_c, 0, 84, 68
1, 199480, Note_on_c, 0, 48, 0
1, 199480, Note_on_c, 0, 52, 33
1, 199480, Note_on_c, 0, 55, 33
1, 199483, Note_on_c, 0, 60, 49
1, 199483, Control_c, 0, 64, 0
1, 199523, Control_c, 0, 64, 127
1, 199560, Note_on_c, 0, 84, 0
1, 199560, Note_on_c, 0, 72, 0
1, 199560, Note_on_c, 0, 76, 41
1, 199642, Note_on_c, 0, 76, 0
1, 199642, Note_on_c, 0, 79, 42
1, 199642, Note_on_c, 0, 60, 0
1, 199645, Note_on_c, 0, 55, 0
1, 199645, Note_on_c, 0, 52, 0
1, 199645, Note_on_c, 0, 48, 37
1, 199725, Note_on_c, 0, 79, 0
1, 199725, Note_on_c, 0, 71, 52
1, 199725, Note_on_c, 0, 83, 69
1, 199807, Note_on_c, 0, 83, 0
1, 199807, Note_on_c, 0, 71, 0
1, 199807, Note_on_c, 0, 76, 42
1, 199810, Note_on_c, 0, 48, 0
1, 199810, Note_on_c, 0, 52, 29
1, 199810, Note_on_c, 0, 55, 29
1, 199813, Note_on_c, 0, 59, 42
1, 199891, Note_on_c, 0, 76, 0
1, 199891, Note_on_c, 0, 79, 42
1, 199976, Note_on_c, 0, 79, 0
1, 199976, Note_on_c, 0, 69, 51
1, 199976, Note_on_c, 0, 81, 71
1, 199979, Note_on_c, 0, 59, 0
1, 199979, Note_on_c, 0, 55, 0
1, 199979, Note_on_c, 0, 52, 0
1, 199982, Note_on_c, 0, 48, 37
1, 199982, Control_c, 0, 64, 0
1, 200018, Control_c, 0, 64, 127
1, 200060, Note_on_c, 0, 81, 0
1, 200060, Note_on_c, 0, 69, 0
1, 200060, Note_on_c, 0, 72, 46
1, 200145, Note_on_c, 0, 72, 0
1, 200145, Note_on_c, 0, 76, 46
1, 200145, Note_on_c, 0, 48, 0
1, 200148, Note_on_c, 0, 52, 24
1, 200148, Note_on_c, 0, 54, 24
1, 200148, Note_on_c, 0, 57, 35
1, 200230, Note_on_c, 0, 76, 0
1, 200230, Note_on_c, 0, 66, 51
1, 200230, Note_on_c, 0, 78, 67
1, 200236, Control_c, 0, 64, 0
1, 200277, Control_c, 0, 64, 127
1, 200315, Note_on_c, 0, 78, 0
1, 200315, Note_on_c, 0, 66, 0
1, 200315, Note_on_c, 0, 72, 41
1, 200318, Note_on_c, 0, 57, 0
1, 200318, Note_on_c, 0, 54, 0
1, 200318, Note_on_c, 0, 52, 0
1, 200321, Note_on_c, 0, 48, 37
1, 200403, Note_on_c, 0, 72, 0
1, 200403, Note_on_c, 0, 76, 41
1, 200491, Note_on_c, 0, 76, 0
1, 200491, Note_on_c, 0, 67, 54
1, 200491, Note_on_c, 0, 79, 70
1, 200494, Note_on_c, 0, 48, 0
1, 200494, Note_on_c, 0, 52, 33
1, 200494, Note_on_c, 0, 55, 49
1, 200499, Control_c, 0, 64, 0
1, 200540, Control_c, 0, 64, 127
1, 200575, Note_on_c, 0, 79, 0
1, 200575, Note_on_c, 0, 67, 0
1, 200575, Note_on_c, 0, 72, 44
1, 200659, Note_on_c, 0, 72, 0
1, 200659, Note_on_c, 0, 76, 44
1, 200659, Note_on_c, 0, 55, 0
1, 200662, Note_on_c, 0, 52, 0
1, 200662, Note_on_c, 0, 48, 37
1, 200743, Note_on_c, 0, 76, 0
1, 200743, Note_on_c, 0, 76, 57
1, 200743, Note_on_c, 0, 88, 73
1, 200827, Note_on_c, 0, 88, 0
1, 200827, Note_on_c, 0, 76, 0
1, 200827, Note_on_c, 0, 79, 41
1, 200830, Note_on_c, 0, 48, 0
1, 200830, Note_on_c, 0, 55, 29
1, 200830, Note_on_c, 0, 60, 29
1, 200833, Note_on_c, 0, 64, 42
1, 200914, Note_on_c, 0, 79, 0
1, 200914, Note_on_c, 0, 84, 41
1, 201001, Note_on_c, 0, 84, 0
1, 201001, Note_on_c, 0, 76, 51
1, 201001, Note_on_c, 0, 88, 73
1, 201004, Note_on_c, 0, 64, 0
1, 201004, Note_on_c, 0, 60, 0
1, 201004, Note_on_c, 0, 55, 0
1, 201007, Note_on_c, 0, 35, 46
1, 201007, Control_c, 0, 64, 0
1, 201085, Note_on_c, 0, 88, 0
1, 201085, Note_on_c, 0, 76, 0
1, 201085, Note_on_c, 0, 78, 48
1, 201090, Control_c, 0, 64, 127
1, 201169, Note_on_c, 0, 78, 0
1, 201169, Note_on_c, 0, 81, 48
1, 201169, Note_on_c, 0, 35, 0
1, 201172, Note_on_c, 0, 54, 32
1, 201172, Note_on_c, 0, 57, 32
1, 201172, Note_on_c, 0, 63, 39
1, 201253, Note_on_c, 0, 81, 0
1, 201253, Note_on_c, 0, 75, 59
1, 201253, Note_on_c, 0, 87, 71
1, 201256, Control_c, 0, 64, 0
1, 201293, Control_c, 0, 64, 127
1, 201337, Note_on_c, 0, 87, 0
1, 201337, Note_on_c, 0, 75, 0
1, 201337, Note_on_c, 0, 78, 54
1, 201340, Note_on_c, 0, 63, 0
1, 201340, Note_on_c, 0, 57, 0
1, 201340, Note_on_c, 0, 54, 0
1, 201343, Note_on_c, 0, 47, 54
1, 201422, Note_on_c, 0, 78, 0
1, 201422, Note_on_c, 0, 81, 55
1, 201506, Note_on_c, 0, 81, 0
1, 201506, Note_on_c, 0, 79, 66
1, 201506, Note_on_c, 0, 91, 78
1, 201509, Note_on_c, 0, 47, 0
1, 201509, Note_on_c, 0, 57, 41
1, 201509, Note_on_c, 0, 63, 41
1, 201512, Note_on_c, 0, 67, 48
1, 201512, Control_c, 0, 64, 0
1, 201553, Control_c, 0, 64, 127
1, 201591, Note_on_c, 0, 91, 0
1, 201591, Note_on_c, 0, 79, 0
1, 201591, Note_on_c, 0, 81, 55
1, 201677, Note_on_c, 0, 81, 0
1, 201677, Note_on_c, 0, 87, 57
1, 201677, Note_on_c, 0, 67, 0
1, 201680, Note_on_c, 0, 63, 0
1, 201680, Note_on_c, 0, 57, 0
1, 201680, Note_on_c, 0, 47, 61
1, 201762, Note_on_c, 0, 87, 0
1, 201762, Note_on_c, 0, 78, 72
1, 201762, Note_on_c, 0, 90, 85
1, 201847, Note_on_c, 0, 90, 0
1, 201847, Note_on_c, 0, 78, 0
1, 201847, Note_on_c, 0, 81, 58
1, 201850, Note_on_c, 0, 47, 0
1, 201850, Note_on_c, 0, 57, 44
1, 201850, Note_on_c, 0, 63, 53
1, 201853, Note_on_c, 0, 66, 53
1, 201934, Note_on_c, 0, 81, 0
1, 201934, Note_on_c, 0, 87, 61
1, 202021, Note_on_c, 0, 87, 0
1, 202021, Note_on_c, 0, 81, 77
1, 202021, Note_on_c, 0, 93, 91
1, 202024, Note_on_c, 0, 66, 0
1, 202024, Note_on_c, 0, 63, 0
1, 202024, Note_on_c, 0, 57, 0
1, 202027, Note_on_c, 0, 40, 64
1, 202027, Note_on_c, 0, 52, 64
1, 202027, Control_c, 0, 64, 0
1, 202068, Control_c, 0, 64, 127
1, 202114, Note_on_c, 0, 93, 0
1, 202114, Note_on_c, 0, 81, 0
1, 202114, Note_on_c, 0, 83, 65
1, 202206, Note_on_c, 0, 83, 0
1, 202206, Note_on_c, 0, 88, 66
1, 202206, Note_on_c, 0, 52, 0
1, 202209, Note_on_c, 0, 40, 0
1, 202209, Note_on_c, 0, 59, 42
1, 202209, Note_on_c, 0, 64, 42
1, 202212, Note_on_c, 0, 69, 50
1, 202299, Note_on_c, 0, 88, 0
1, 202299, Note_on_c, 0, 79, 77
1, 202299, Note_on_c, 0, 91, 92
1, 202306, Control_c, 0, 64, 0
1, 202350, Control_c, 0, 64, 127
1, 202391, Note_on_c, 0, 91, 0
1, 202391, Note_on_c, 0, 79, 0
1, 202391, Note_on_c, 0, 83, 67
1, 202394, Note_on_c, 0, 69, 0
1, 202394, Note_on_c, 0, 64, 0
1, 202394, Note_on_c, 0, 59, 0
1, 202397, Note_on_c, 0, 59, 51
1, 202397, Note_on_c, 0, 64, 51
1, 202397, Note_on_c, 0, 67, 62
1, 202486, Note_on_c, 0, 83, 0
1, 202486, Note_on_c, 0, 88, 71
1, 202607, Note_on_c, 0, 88, 0
1, 202607, Note_on_c, 0, 83, 89
1, 202607, Note_on_c, 0, 95, 105
1, 202610, Note_on_c, 0, 67, 0
1, 202610, Note_on_c, 0, 64, 0
1, 202610, Note_on_c, 0, 59, 0
1, 202613, Note_on_c, 0, 43, 49
1, 202613, Note_on_c, 0, 55, 49
1, 202613, Control_c, 0, 64, 0
1, 202661, Control_c, 0, 64, 127
1, 202699, Note_on_c, 0, 95, 0
1, 202699, Note_on_c, 0, 83, 0
1, 202699, Note_on_c, 0, 86, 71
1, 202792, Note_on_c, 0, 86, 0
1, 202792, Note_on_c, 0, 89, 72
1, 202792, Note_on_c, 0, 55, 0
1, 202795, Note_on_c, 0, 43, 0
1, 202795, Note_on_c, 0, 59, 45
1, 202795, Note_on_c, 0, 62, 45
1, 202798, Note_on_c, 0, 65, 45
1, 202798, Note_on_c, 0, 69, 53
1, 202884, Note_on_c, 0, 89, 0
1, 202884, Note_on_c, 0, 81, 82
1, 202884, Note_on_c, 0, 93, 97
1, 202977, Note_on_c, 0, 93, 0
1, 202977, Note_on_c, 0, 81, 0
1, 202977, Note_on_c, 0, 86, 55
1, 202980, Note_on_c, 0, 89, 66
1, 202980, Note_on_c, 0, 69, 0
1, 202980, Note_on_c, 0, 59, 0
1, 202983, Note_on_c, 0, 62, 0
1, 202983, Note_on_c, 0, 65, 0
1, 202983, Note_on_c, 0, 62, 40
1, 202986, Note_on_c, 0, 59, 40
1, 202986, Note_on_c, 0, 65, 40
1, 202986, Note_on_c, 0, 67, 47
1, 203075, Note_on_c, 0, 89, 0
1, 203075, Note_on_c, 0, 86, 0
1, 203075, Note_on_c, 0, 79, 66
1, 203078, Note_on_c, 0, 91, 66
1, 203173, Note_on_c, 0, 91, 0
1, 203173, Note_on_c, 0, 79, 0
1, 203173, Note_on_c, 0, 91, 88
1, 203176, Note_on_c, 0, 88, 88
1, 203176, Note_on_c, 0, 100, 105
1, 203176, Note_on_c, 0, 67, 0
1, 203179, Note_on_c, 0, 62, 0
1, 203179, Note_on_c, 0, 59, 0
1, 203179, Note_on_c, 0, 65, 0
1, 203182, Note_on_c, 0, 48, 55
1, 203182, Note_on_c, 0, 36, 55
1, 203182, Control_c, 0, 64, 0
1, 203274, Control_c, 0, 64, 127
1, 203313, Note_on_c, 0, 64, 36
1, 203313, Note_on_c, 0, 67, 36
1, 203313, Note_on_c, 0, 76, 53
1, 203439, Note_on_c, 0, 100, 0
1, 203439, Note_on_c, 0, 88, 0
1, 203439, Note_on_c, 0, 91, 0
1, 203442, Note_on_c, 0, 91, 78
1, 203442, Note_on_c, 0, 88, 78
1, 203442, Note_on_c, 0, 86, 78
1, 203445, Note_on_c, 0, 98, 94
1, 203445, Note_on_c, 0, 36, 0
1, 203445, Note_on_c, 0, 48, 0
1, 203448, Control_c, 0, 64, 0
1, 203480, Control_c, 0, 64, 127
1, 203569, Note_on_c, 0, 67, 0
1, 203569, Note_on_c, 0, 64, 0
1, 203569, Note_on_c, 0, 76, 0
1, 203572, Note_on_c, 0, 62, 50
1, 203572, Note_on_c, 0, 64, 50
1, 203572, Note_on_c, 0, 67, 50
1, 203575, Note_on_c, 0, 74, 73
1, 203699, Note_on_c, 0, 98, 0
1, 203699, Note_on_c, 0, 91, 0
1, 203699, Note_on_c, 0, 88, 0
1, 203702, Note_on_c, 0, 86, 0
1, 203702, Note_on_c, 0, 91, 77
1, 203702, Note_on_c, 0, 88, 77
1, 203705, Note_on_c, 0, 84, 77
1, 203705, Note_on_c, 0, 96, 93
1, 203705, Control_c, 0, 64, 0
1, 203745, Control_c, 0, 64, 127
1, 203824, Note_on_c, 0, 74, 0
1, 203824, Note_on_c, 0, 62, 0
1, 203824, Note_on_c, 0, 64, 0
1, 203827, Note_on_c, 0, 67, 0
1, 203827, Note_on_c, 0, 60, 44
1, 203827, Note_on_c, 0, 64, 44
1, 203830, Note_on_c, 0, 67, 44
1, 203830, Note_on_c, 0, 72, 64
1, 203949, Note_on_c, 0, 96, 0
1, 203949, Note_on_c, 0, 91, 0
1, 203949, Note_on_c, 0, 88, 0
1, 203952, Note_on_c, 0, 84, 0
1, 203952, Note_on_c, 0, 91, 78
1, 203952, Note_on_c, 0, 88, 78
1, 203955, Note_on_c, 0, 83, 78
1, 203955, Note_on_c, 0, 95, 94
1, 204076, Note_on_c, 0, 72, 0
1, 204076, Note_on_c, 0, 60, 0
1, 204076, Note_on_c, 0, 64, 0
1, 204079, Note_on_c, 0, 59, 44
1, 204079, Note_on_c, 0, 64, 44
1, 204079, Note_on_c, 0, 67, 44
1, 204082, Note_on_c, 0, 71, 64
1, 204082, Note_on_c, 0, 67, 0
1, 204208, Note_on_c, 0, 95, 0
1, 204208, Note_on_c, 0, 91, 0
1, 204208, Note_on_c, 0, 88, 0
1, 204211, Note_on_c, 0, 83, 0
1, 204211, Note_on_c, 0, 88, 77
1, 204211, Note_on_c, 0, 84, 77
1, 204214, Note_on_c, 0, 81, 77
1, 204214, Note_on_c, 0, 93, 98
1, 204214, Note_on_c, 0, 67, 0
1, 204217, Note_on_c, 0, 59, 0
1, 204217, Note_on_c, 0, 64, 0
1, 204217, Note_on_c, 0, 71, 0
1, 204220, Control_c, 0, 64, 0
1, 204250, Control_c, 0, 64, 127
1, 204334, Note_on_c, 0, 57, 39
1, 204334, Note_on_c, 0, 60, 39
1, 204334, Note_on_c, 0, 64, 39
1, 204337, Note_on_c, 0, 69, 53
1, 204461, Note_on_c, 0, 93, 0
1, 204461, Note_on_c, 0, 88, 0
1, 204461, Note_on_c, 0, 84, 0
1, 204464, Note_on_c, 0, 81, 0
1, 204464, Note_on_c, 0, 88, 77
1, 204464, Note_on_c, 0, 84, 77
1, 204467, Note_on_c, 0, 78, 77
1, 204467, Note_on_c, 0, 90, 92
1, 204467, Control_c, 0, 64, 0
1, 204508, Control_c, 0, 64, 127
1, 204590, Note_on_c, 0, 69, 0
1, 204590, Note_on_c, 0, 57, 0
1, 204590, Note_on_c, 0, 60, 0
1, 204593, Note_on_c, 0, 64, 0
1, 204593, Note_on_c, 0, 54, 46
1, 204593, Note_on_c, 0, 60, 46
1, 204596, Note_on_c, 0, 64, 46
1, 204596, Note_on_c, 0, 66, 63
1, 204723, Note_on_c, 0, 90, 0
1, 204723, Note_on_c, 0, 88, 0
1, 204723, Note_on_c, 0, 84, 0
1, 204726, Note_on_c, 0, 78, 0
1, 204726, Note_on_c, 0, 88, 81
1, 204726, Note_on_c, 0, 84, 81
1, 204729, Note_on_c, 0, 79, 81
1, 204729, Note_on_c, 0, 91, 96
1, 204729, Control_c, 0, 64, 0
1, 204772, Control_c, 0, 64, 127
1, 204848, Note_on_c, 0, 66, 0
1, 204848, Note_on_c, 0, 54, 0
1, 204848, Note_on_c, 0, 60, 0
1, 204851, Note_on_c, 0, 64, 0
1, 204851, Note_on_c, 0, 55, 46
1, 204851, Note_on_c, 0, 60, 46
1, 204854, Note_on_c, 0, 64, 46
1, 204854, Note_on_c, 0, 67, 63
1, 204974, Note_on_c, 0, 91, 0
1, 204974, Note_on_c, 0, 88, 0
1, 204974, Note_on_c, 0, 84, 0
1, 204977, Note_on_c, 0, 79, 0
1, 204977, Note_on_c, 0, 96, 86
1, 204977, Note_on_c, 0, 91, 86
1, 204980, Note_on_c, 0, 88, 86
1, 204980, Note_on_c, 0, 100, 101
1, 204980, Note_on_c, 0, 67, 0
1, 204983, Note_on_c, 0, 55, 0
1, 204983, Note_on_c, 0, 60, 0
1, 204983, Note_on_c, 0, 64, 0
1, 205102, Note_on_c, 0, 36, 55
1, 205236, Note_on_c, 0, 100, 0
1, 205236, Note_on_c, 0, 96, 0
1, 205236, Note_on_c, 0, 91, 0
1, 205239, Note_on_c, 0, 88, 0
1, 205239, Note_on_c, 0, 93, 86
1, 205239, Note_on_c, 0, 90, 86
1, 205242, Note_on_c, 0, 88, 86
1, 205242, Note_on_c, 0, 100, 101
1, 205242, Note_on_c, 0, 48, 55
1, 205245, Control_c, 0, 64, 0
1, 205287, Control_c, 0, 64, 127
1, 205364, Note_on_c, 0, 69, 36
1, 205364, Note_on_c, 0, 64, 36
1, 205364, Note_on_c, 0, 66, 36
1, 205367, Note_on_c, 0, 76, 53
1, 205492, Note_on_c, 0, 100, 0
1, 205492, Note_on_c, 0, 93, 0
1, 205492, Note_on_c, 0, 90, 0
1, 205495, Note_on_c, 0, 88, 0
1, 205495, Note_on_c, 0, 93, 80
1, 205495, Note_on_c, 0, 90, 80
1, 205498, Note_on_c, 0, 85, 80
1, 205498, Note_on_c, 0, 97, 95
1, 205498, Note_on_c, 0, 48, 0
1, 205501, Note_on_c, 0, 36, 0
1, 205501, Control_c, 0, 64, 0
1, 205540, Control_c, 0, 64, 127
1, 205579, Note_on_c, 0, 90, 0
1, 205579, Note_on_c, 0, 93, 0
1, 205621, Note_on_c, 0, 66, 0
1, 205621, Note_on_c, 0, 64, 0
1, 205621, Note_on_c, 0, 76, 0
1, 205624, Note_on_c, 0, 69, 0
1, 205624, Note_on_c, 0, 69, 50
1, 205624, Note_on_c, 0, 61, 50
1, 205627, Note_on_c, 0, 66, 50
1, 205627, Note_on_c, 0, 73, 73
1, 205747, Note_on_c, 0, 85, 0
1, 205747, Note_on_c, 0, 97, 0
1, 205747, Note_on_c, 0, 93, 88
1, 205750, Note_on_c, 0, 90, 88
1, 205750, Note_on_c, 0, 86, 88
1, 205750, Note_on_c, 0, 98, 105
1, 205755, Control_c, 0, 64, 0
1, 205788, Control_c, 0, 64, 127
1, 205874, Note_on_c, 0, 73, 0
1, 205874, Note_on_c, 0, 69, 0
1, 205874, Note_on_c, 0, 61, 0
1, 205877, Note_on_c, 0, 66, 0
1, 205877, Note_on_c, 0, 69, 44
1, 205877, Note_on_c, 0, 62, 44
1, 205880, Note_on_c, 0, 66, 44
1, 205880, Note_on_c, 0, 74, 64
1, 206001, Note_on_c, 0, 98, 0
1, 206001, Note_on_c, 0, 93, 0
1, 206001, Note_on_c, 0, 90, 0
1, 206004, Note_on_c, 0, 86, 0
1, 206004, Note_on_c, 0, 93, 93
1, 206004, Note_on_c, 0, 90, 93
1, 206007, Note_on_c, 0, 88, 93
1, 206007, Note_on_c, 0, 100, 110
1, 206130, Note_on_c, 0, 74, 0
1, 206130, Note_on_c, 0, 69, 0
1, 206130, Note_on_c, 0, 62, 0
1, 206133, Note_on_c, 0, 69, 44
1, 206133, Note_on_c, 0, 64, 44
1, 206133, Note_on_c, 0, 66, 44
1, 206136, Note_on_c, 0, 76, 64
1, 206136, Note_on_c, 0, 66, 0
1, 206263, Note_on_c, 0, 100, 0
1, 206263, Note_on_c, 0, 93, 0
1, 206263, Note_on_c, 0, 90, 0
1, 206266, Note_on_c, 0, 88, 0
1, 206266, Note_on_c, 0, 95, 95
1, 206266, Note_on_c, 0, 92, 95
1, 206269, Note_on_c, 0, 89, 95
1, 206269, Note_on_c, 0, 101, 110
1, 206269, Note_on_c, 0, 66, 0
1, 206272, Note_on_c, 0, 69, 0
1, 206272, Note_on_c, 0, 64, 0
1, 206272, Note_on_c, 0, 76, 0
1, 206275, Control_c, 0, 64, 0
1, 206290, Control_c, 0, 64, 127
1, 206389, Note_on_c, 0, 65, 39
1, 206389, Note_on_c, 0, 68, 39
1, 206389, Note_on_c, 0, 71, 39
1, 206392, Note_on_c, 0, 77, 53
1, 206520, Note_on_c, 0, 101, 0
1, 206520, Note_on_c, 0, 95, 0
1, 206520, Note_on_c, 0, 92, 0
1, 206523, Note_on_c, 0, 89, 0
1, 206523, Note_on_c, 0, 92, 96
1, 206523, Note_on_c, 0, 89, 96
1, 206526, Note_on_c, 0, 86, 96
1, 206526, Note_on_c, 0, 98, 109
1, 206526, Control_c, 0, 64, 0
1, 206567, Control_c, 0, 64, 127
1, 206657, Note_on_c, 0, 77, 0
1, 206657, Note_on_c, 0, 65, 0
1, 206657, Note_on_c, 0, 68, 0
1, 206660, Note_on_c, 0, 71, 0
1, 206660, Note_on_c, 0, 62, 46
1, 206660, Note_on_c, 0, 65, 46
1, 206663, Note_on_c, 0, 68, 46
1, 206663, Note_on_c, 0, 74, 63
1, 206801, Note_on_c, 0, 98, 0
1, 206801, Note_on_c, 0, 92, 0
1, 206801, Note_on_c, 0, 89, 0
1, 206804, Note_on_c, 0, 86, 0
1, 206804, Note_on_c, 0, 86, 88
1, 206804, Note_on_c, 0, 83, 88
1, 206807, Note_on_c, 0, 80, 88
1, 206807, Note_on_c, 0, 92, 102
1, 206807, Control_c, 0, 64, 0
1, 206855, Control_c, 0, 64, 127
1, 206940, Note_on_c, 0, 74, 0
1, 206940, Note_on_c, 0, 62, 0
1, 206940, Note_on_c, 0, 65, 0
1, 206943, Note_on_c, 0, 68, 0
1, 206943, Note_on_c, 0, 59, 40
1, 206943, Note_on_c, 0, 62, 40
1, 206946, Note_on_c, 0, 65, 40
1, 206946, Note_on_c, 0, 71, 56
1, 207074, Note_on_c, 0, 92, 0
1, 207074, Note_on_c, 0, 86, 0
1, 207074, Note_on_c, 0, 83, 0
1, 207077, Note_on_c, 0, 80, 0
1, 207077, Note_on_c, 0, 86, 75
1, 207077, Note_on_c, 0, 83, 75
1, 207080, Note_on_c, 0, 79, 75
1, 207080, Note_on_c, 0, 91, 89
1, 207080, Note_on_c, 0, 71, 0
1, 207083, Note_on_c, 0, 59, 0
1, 207083, Note_on_c, 0, 62, 0
1, 207083, Note_on_c, 0, 65, 0
1, 207086, Control_c, 0, 64, 0
1, 207103, Control_c, 0, 64, 127
1, 207210, Note_on_c, 0, 36, 40
1, 207353, Note_on_c, 0, 91, 0
1, 207353, Note_on_c, 0, 86, 0
1, 207353, Note_on_c, 0, 83, 0
1, 207356, Note_on_c, 0, 79, 0
1, 207356, Note_on_c, 0, 79, 66
1, 207356, Note_on_c, 0, 76, 66
1, 207359, Note_on_c, 0, 88, 78
1, 207359, Note_on_c, 0, 48, 40
1, 207359, Control_c, 0, 64, 0
1, 207452, Control_c, 0, 64, 127
1, 207491, Note_on_c, 0, 52, 27
1, 207491, Note_on_c, 0, 55, 27
1, 207491, Note_on_c, 0, 64, 39
1, 207618, Note_on_c, 0, 88, 0
1, 207618, Note_on_c, 0, 76, 0
1, 207618, Note_on_c, 0, 79, 0
1, 207621, Note_on_c, 0, 79, 58
1, 207621, Note_on_c, 0, 76, 58
1, 207621, Note_on_c, 0, 74, 58
1, 207624, Note_on_c, 0, 86, 70
1, 207624, Note_on_c, 0, 48, 0
1, 207624, Note_on_c, 0, 36, 0
1, 207627, Control_c, 0, 64, 0
1, 207658, Control_c, 0, 64, 127
1, 207748, Note_on_c, 0, 55, 0
1, 207748, Note_on_c, 0, 52, 0
1, 207748, Note_on_c, 0, 64, 0
1, 207751, Note_on_c, 0, 52, 37
1, 207751, Note_on_c, 0, 55, 37
1, 207751, Note_on_c, 0, 62, 54
1, 207877, Note_on_c, 0, 86, 0
1, 207877, Note_on_c, 0, 79, 0
1, 207877, Note_on_c, 0, 76, 0
1, 207880, Note_on_c, 0, 74, 0
1, 207880, Note_on_c, 0, 79, 57
1, 207880, Note_on_c, 0, 76, 57
1, 207883, Note_on_c, 0, 72, 57
1, 207883, Note_on_c, 0, 84, 69
1, 207883, Control_c, 0, 64, 0
1, 207924, Control_c, 0, 64, 127
1, 208003, Note_on_c, 0, 62, 0
1, 208003, Note_on_c, 0, 55, 0
1, 208003, Note_on_c, 0, 52, 0
1, 208006, Note_on_c, 0, 52, 32
1, 208006, Note_on_c, 0, 55, 32
1, 208006, Note_on_c, 0, 60, 47
1, 208129, Note_on_c, 0, 84, 0
1, 208129, Note_on_c, 0, 79, 0
1, 208129, Note_on_c, 0, 76, 0
1, 208132, Note_on_c, 0, 72, 0
1, 208132, Note_on_c, 0, 79, 58
1, 208132, Note_on_c, 0, 76, 58
1, 208135, Note_on_c, 0, 71, 58
1, 208135, Note_on_c, 0, 83, 70
1, 208257, Note_on_c, 0, 60, 0
1, 208257, Note_on_c, 0, 52, 0
1, 208257, Note_on_c, 0, 52, 32
1, 208260, Note_on_c, 0, 55, 32
1, 208260, Note_on_c, 0, 59, 47
1, 208263, Note_on_c, 0, 55, 0
1, 208390, Note_on_c, 0, 83, 0
1, 208390, Note_on_c, 0, 79, 0
1, 208390, Note_on_c, 0, 76, 0
1, 208393, Note_on_c, 0, 71, 0
1, 208393, Note_on_c, 0, 76, 57
1, 208393, Note_on_c, 0, 72, 57
1, 208396, Note_on_c, 0, 69, 57
1, 208396, Note_on_c, 0, 81, 73
1, 208396, Note_on_c, 0, 52, 0
1, 208399, Note_on_c, 0, 55, 0
1, 208399, Note_on_c, 0, 59, 0
1, 208399, Control_c, 0, 64, 0
1, 208432, Control_c, 0, 64, 127
1, 208517, Note_on_c, 0, 48, 29
1, 208517, Note_on_c, 0, 52, 29
1, 208517, Note_on_c, 0, 57, 39
1, 208645, Note_on_c, 0, 81, 0
1, 208645, Note_on_c, 0, 76, 0
1, 208645, Note_on_c, 0, 72, 0
1, 208648, Note_on_c, 0, 69, 0
1, 208648, Note_on_c, 0, 76, 57
1, 208648, Note_on_c, 0, 72, 57
1, 208651, Note_on_c, 0, 66, 57
1, 208651, Note_on_c, 0, 78, 69
1, 208651, Control_c, 0, 64, 0
1, 208692, Control_c, 0, 64, 127
1, 208774, Note_on_c, 0, 57, 0
1, 208774, Note_on_c, 0, 52, 0
1, 208774, Note_on_c, 0, 48, 0
1, 208777, Note_on_c, 0, 48, 34
1, 208777, Note_on_c, 0, 52, 34
1, 208777, Note_on_c, 0, 54, 47
1, 208907, Note_on_c, 0, 78, 0
1, 208907, Note_on_c, 0, 76, 0
1, 208907, Note_on_c, 0, 72, 0
1, 208910, Note_on_c, 0, 66, 0
1, 208910, Note_on_c, 0, 76, 60
1, 208910, Note_on_c, 0, 72, 60
1, 208913, Note_on_c, 0, 67, 60
1, 208913, Note_on_c, 0, 79, 72
1, 208913, Control_c, 0, 64, 0
1, 208956, Control_c, 0, 64, 127
1, 209032, Note_on_c, 0, 54, 0
1, 209032, Note_on_c, 0, 52, 0
1, 209032, Note_on_c, 0, 48, 0
1, 209035, Note_on_c, 0, 48, 34
1, 209035, Note_on_c, 0, 52, 34
1, 209035, Note_on_c, 0, 55, 47
1, 209157, Note_on_c, 0, 79, 0
1, 209157, Note_on_c, 0, 76, 0
1, 209157, Note_on_c, 0, 72, 0
1, 209160, Note_on_c, 0, 67, 0
1, 209160, Note_on_c, 0, 84, 64
1, 209160, Note_on_c, 0, 79, 64
1, 209163, Note_on_c, 0, 76, 64
1, 209163, Note_on_c, 0, 88, 75
1, 209163, Note_on_c, 0, 55, 0
1, 209166, Note_on_c, 0, 52, 0
1, 209166, Note_on_c, 0, 48, 0
1, 209288, Note_on_c, 0, 88, 0
1, 209288, Note_on_c, 0, 84, 0
1, 209288, Note_on_c, 0, 79, 0
1, 209291, Note_on_c, 0, 76, 0
1, 209291, Note_on_c, 0, 36, 40
1, 209431, Note_on_c, 0, 80, 72
1, 209431, Note_on_c, 0, 77, 72
1, 209431, Note_on_c, 0, 89, 86
1, 209434, Note_on_c, 0, 48, 44
1, 209434, Control_c, 0, 64, 0
1, 209434, Control_c, 0, 64, 0
1, 209486, Control_c, 0, 64, 127
1, 209565, Note_on_c, 0, 53, 29
1, 209565, Note_on_c, 0, 56, 29
1, 209565, Note_on_c, 0, 65, 43
1, 209693, Note_on_c, 0, 89, 0
1, 209693, Note_on_c, 0, 77, 0
1, 209693, Note_on_c, 0, 80, 0
1, 209696, Note_on_c, 0, 80, 64
1, 209696, Note_on_c, 0, 75, 64
1, 209696, Note_on_c, 0, 87, 76
1, 209699, Note_on_c, 0, 48, 0
1, 209699, Note_on_c, 0, 36, 0
1, 209699, Control_c, 0, 64, 0
1, 209733, Control_c, 0, 64, 127
1, 209823, Note_on_c, 0, 56, 0
1, 209823, Note_on_c, 0, 53, 0
1, 209823, Note_on_c, 0, 65, 0
1, 209826, Note_on_c, 0, 53, 40
1, 209826, Note_on_c, 0, 56, 40
1, 209826, Note_on_c, 0, 63, 59
1, 209952, Note_on_c, 0, 87, 0
1, 209952, Note_on_c, 0, 75, 0
1, 209952, Note_on_c, 0, 80, 0
1, 209955, Note_on_c, 0, 80, 63
1, 209955, Note_on_c, 0, 73, 63
1, 209955, Note_on_c, 0, 85, 75
1, 209960, Control_c, 0, 64, 0
1, 209992, Control_c, 0, 64, 127
1, 210078, Note_on_c, 0, 63, 0
1, 210078, Note_on_c, 0, 56, 0
1, 210078, Note_on_c, 0, 53, 0
1, 210081, Note_on_c, 0, 53, 35
1, 210081, Note_on_c, 0, 56, 35
1, 210081, Note_on_c, 0, 61, 51
1, 210205, Note_on_c, 0, 85, 0
1, 210205, Note_on_c, 0, 73, 0
1, 210205, Note_on_c, 0, 80, 0
1, 210208, Note_on_c, 0, 80, 64
1, 210208, Note_on_c, 0, 72, 64
1, 210208, Note_on_c, 0, 84, 76
1, 210333, Note_on_c, 0, 61, 0
1, 210333, Note_on_c, 0, 53, 0
1, 210333, Note_on_c, 0, 53, 35
1, 210336, Note_on_c, 0, 56, 35
1, 210336, Note_on_c, 0, 60, 51
1, 210340, Note_on_c, 0, 56, 0
1, 210467, Note_on_c, 0, 84, 0
1, 210467, Note_on_c, 0, 72, 0
1, 210467, Note_on_c, 0, 80, 0
1, 210470, Note_on_c, 0, 77, 63
1, 210470, Note_on_c, 0, 73, 63
1, 210470, Note_on_c, 0, 70, 63
1, 210473, Note_on_c, 0, 82, 80
1, 210473, Note_on_c, 0, 53, 0
1, 210473, Note_on_c, 0, 56, 0
1, 210476, Note_on_c, 0, 60, 0
1, 210476, Control_c, 0, 64, 0
1, 210476, Control_c, 0, 64, 0
1, 210495, Control_c, 0, 64, 127
1, 210595, Note_on_c, 0, 48, 31
1, 210595, Note_on_c, 0, 53, 31
1, 210595, Note_on_c, 0, 58, 43
1, 210723, Note_on_c, 0, 82, 0
1, 210723, Note_on_c, 0, 77, 0
1, 210723, Note_on_c, 0, 73, 0
1, 210726, Note_on_c, 0, 70, 0
1, 210726, Note_on_c, 0, 77, 63
1, 210726, Note_on_c, 0, 73, 63
1, 210729, Note_on_c, 0, 67, 63
1, 210729, Note_on_c, 0, 79, 75
1, 210729, Control_c, 0, 64, 0
1, 210729, Control_c, 0, 64, 0
1, 210768, Control_c, 0, 64, 127
1, 210854, Note_on_c, 0, 58, 0
1, 210854, Note_on_c, 0, 53, 0
1, 210854, Note_on_c, 0, 48, 0
1, 210857, Note_on_c, 0, 48, 37
1, 210857, Note_on_c, 0, 53, 37
1, 210857, Note_on_c, 0, 55, 51
1, 210987, Note_on_c, 0, 79, 0
1, 210987, Note_on_c, 0, 77, 0
1, 210987, Note_on_c, 0, 73, 0
1, 210990, Note_on_c, 0, 67, 0
1, 210990, Note_on_c, 0, 77, 66
1, 210990, Note_on_c, 0, 73, 66
1, 210993, Note_on_c, 0, 68, 66
1, 210993, Note_on_c, 0, 80, 78
1, 210993, Control_c, 0, 64, 0
1, 210993, Control_c, 0, 64, 0
1, 211036, Control_c, 0, 64, 127
1, 211036, Control_c, 0, 64, 127
1, 211114, Note_on_c, 0, 55, 0
1, 211114, Note_on_c, 0, 53, 0
1, 211114, Note_on_c, 0, 48, 0
1, 211117, Note_on_c, 0, 48, 37
1, 211117, Note_on_c, 0, 53, 37
1, 211117, Note_on_c, 0, 56, 51
1, 211240, Note_on_c, 0, 80, 0
1, 211240, Note_on_c, 0, 77, 0
1, 211240, Note_on_c, 0, 73, 0
1, 211243, Note_on_c, 0, 68, 0
1, 211243, Note_on_c, 0, 85, 70
1, 211243, Note_on_c, 0, 80, 70
1, 211246, Note_on_c, 0, 77, 70
1, 211246, Note_on_c, 0, 89, 82
1, 211246, Note_on_c, 0, 56, 0
1, 211249, Note_on_c, 0, 53, 0
1, 211249, Note_on_c, 0, 48, 0
1, 211249, Control_c, 0, 64, 0
1, 211269, Control_c, 0, 64, 127
1, 211371, Note_on_c, 0, 89, 0
1, 211371, Note_on_c, 0, 85, 0
1, 211371, Note_on_c, 0, 80, 0
1, 211374, Note_on_c, 0, 77, 0
1, 211374, Note_on_c, 0, 36, 40
1, 211511, Note_on_c, 0, 81, 76
1, 211511, Note_on_c, 0, 78, 76
1, 211511, Note_on_c, 0, 90, 91
1, 211514, Note_on_c, 0, 48, 53
1, 211514, Control_c, 0, 64, 0
1, 211514, Control_c, 0, 64, 0
1, 211565, Control_c, 0, 64, 127
1, 211644, Note_on_c, 0, 54, 49
1, 211644, Note_on_c, 0, 57, 49
1, 211644, Note_on_c, 0, 66, 58
1, 211770, Note_on_c, 0, 90, 0
1, 211770, Note_on_c, 0, 78, 0
1, 211770, Note_on_c, 0, 81, 0
1, 211773, Note_on_c, 0, 81, 72
1, 211773, Note_on_c, 0, 76, 72
1, 211773, Note_on_c, 0, 88, 86
1, 211776, Note_on_c, 0, 48, 0
1, 211776, Note_on_c, 0, 36, 0
1, 211776, Control_c, 0, 64, 0
1, 211810, Control_c, 0, 64, 127
1, 211898, Note_on_c, 0, 57, 0
1, 211898, Note_on_c, 0, 54, 0
1, 211898, Note_on_c, 0, 66, 0
1, 211901, Note_on_c, 0, 54, 46
1, 211901, Note_on_c, 0, 57, 46
1, 211901, Note_on_c, 0, 64, 54
1, 212025, Note_on_c, 0, 88, 0
1, 212025, Note_on_c, 0, 76, 0
1, 212025, Note_on_c, 0, 81, 0
1, 212028, Note_on_c, 0, 78, 71
1, 212028, Note_on_c, 0, 81, 71
1, 212028, Note_on_c, 0, 74, 71
1, 212031, Note_on_c, 0, 86, 84
1, 212031, Control_c, 0, 64, 0
1, 212065, Control_c, 0, 64, 127
1, 212150, Note_on_c, 0, 64, 0
1, 212150, Note_on_c, 0, 57, 0
1, 212150, Note_on_c, 0, 54, 0
1, 212153, Note_on_c, 0, 54, 42
1, 212153, Note_on_c, 0, 57, 42
1, 212153, Note_on_c, 0, 62, 50
1, 212278, Note_on_c, 0, 86, 0
1, 212278, Note_on_c, 0, 78, 0
1, 212278, Note_on_c, 0, 81, 0
1, 212281, Note_on_c, 0, 74, 0
1, 212281, Note_on_c, 0, 74, 69
1, 212281, Note_on_c, 0, 78, 69
1, 212284, Note_on_c, 0, 69, 69
1, 212284, Note_on_c, 0, 81, 81
1, 212408, Note_on_c, 0, 62, 0
1, 212408, Note_on_c, 0, 54, 0
1, 212408, Note_on_c, 0, 36, 45
1, 212415, Note_on_c, 0, 57, 0
1, 212552, Note_on_c, 0, 81, 0
1, 212552, Note_on_c, 0, 74, 0
1, 212552, Note_on_c, 0, 78, 0
1, 212555, Note_on_c, 0, 69, 0
1, 212555, Note_on_c, 0, 82, 82
1, 212555, Note_on_c, 0, 79, 82
1, 212558, Note_on_c, 0, 91, 97
1, 212558, Note_on_c, 0, 48, 54
1, 212558, Control_c, 0, 64, 0
1, 212561, Control_c, 0, 64, 0
1, 212606, Control_c, 0, 64, 127
1, 212686, Note_on_c, 0, 55, 53
1, 212686, Note_on_c, 0, 58, 53
1, 212686, Note_on_c, 0, 67, 63
1, 212811, Note_on_c, 0, 91, 0
1, 212811, Note_on_c, 0, 79, 0
1, 212811, Note_on_c, 0, 82, 0
1, 212814, Note_on_c, 0, 82, 76
1, 212814, Note_on_c, 0, 77, 76
1, 212814, Note_on_c, 0, 89, 91
1, 212817, Note_on_c, 0, 48, 0
1, 212817, Note_on_c, 0, 36, 0
1, 212817, Control_c, 0, 64, 0
1, 212851, Control_c, 0, 64, 127
1, 212938, Note_on_c, 0, 58, 0
1, 212938, Note_on_c, 0, 55, 0
1, 212938, Note_on_c, 0, 67, 0
1, 212941, Note_on_c, 0, 55, 48
1, 212941, Note_on_c, 0, 58, 48
1, 212941, Note_on_c, 0, 65, 57
1, 213066, Note_on_c, 0, 89, 0
1, 213066, Note_on_c, 0, 77, 0
1, 213066, Note_on_c, 0, 82, 0
1, 213069, Note_on_c, 0, 82, 74
1, 213069, Note_on_c, 0, 76, 74
1, 213069, Note_on_c, 0, 88, 88
1, 213073, Control_c, 0, 64, 0
1, 213105, Control_c, 0, 64, 127
1, 213190, Note_on_c, 0, 65, 0
1, 213190, Note_on_c, 0, 58, 0
1, 213190, Note_on_c, 0, 55, 0
1, 213193, Note_on_c, 0, 55, 44
1, 213193, Note_on_c, 0, 58, 44
1, 213193, Note_on_c, 0, 64, 52
1, 213314, Note_on_c, 0, 88, 0
1, 213314, Note_on_c, 0, 76, 0
1, 213314, Note_on_c, 0, 82, 0
1, 213317, Note_on_c, 0, 76, 72
1, 213317, Note_on_c, 0, 70, 72
1, 213317, Note_on_c, 0, 82, 86
1, 213442, Note_on_c, 0, 64, 0
1, 213442, Note_on_c, 0, 55, 0
1, 213442, Note_on_c, 0, 36, 48
1, 213449, Note_on_c, 0, 58, 0
1, 213582, Note_on_c, 0, 82, 0
1, 213582, Note_on_c, 0, 70, 0
1, 213582, Note_on_c, 0, 76, 0
1, 213585, Note_on_c, 0, 86, 87
1, 213585, Note_on_c, 0, 83, 87
1, 213585, Note_on_c, 0, 80, 87
1, 213588, Note_on_c, 0, 92, 102
1, 213588, Note_on_c, 0, 48, 61
1, 213588, Control_c, 0, 64, 0
1, 213591, Control_c, 0, 64, 0
1, 213636, Control_c, 0, 64, 127
1, 213715, Note_on_c, 0, 59, 55
1, 213715, Note_on_c, 0, 62, 55
1, 213715, Note_on_c, 0, 68, 66
1, 213841, Note_on_c, 0, 92, 0
1, 213841, Note_on_c, 0, 86, 0
1, 213841, Note_on_c, 0, 83, 0
1, 213844, Note_on_c, 0, 80, 0
1, 213844, Note_on_c, 0, 86, 81
1, 213844, Note_on_c, 0, 83, 81
1, 213847, Note_on_c, 0, 79, 81
1, 213847, Note_on_c, 0, 91, 96
1, 213847, Note_on_c, 0, 48, 0
1, 213850, Note_on_c, 0, 36, 0
1, 213850, Control_c, 0, 64, 0
1, 213880, Control_c, 0, 64, 127
1, 213968, Note_on_c, 0, 62, 0
1, 213968, Note_on_c, 0, 59, 0
1, 213968, Note_on_c, 0, 68, 0
1, 213971, Note_on_c, 0, 59, 52
1, 213971, Note_on_c, 0, 62, 52
1, 213971, Note_on_c, 0, 67, 61
1, 214095, Note_on_c, 0, 91, 0
1, 214095, Note_on_c, 0, 86, 0
1, 214095, Note_on_c, 0, 83, 0
1, 214098, Note_on_c, 0, 79, 0
1, 214098, Note_on_c, 0, 80, 77
1, 214098, Note_on_c, 0, 83, 77
1, 214101, Note_on_c, 0, 77, 77
1, 214101, Note_on_c, 0, 89, 92
1, 214101, Control_c, 0, 64, 0
1, 214134, Control_c, 0, 64, 127
1, 214219, Note_on_c, 0, 67, 0
1, 214219, Note_on_c, 0, 62, 0
1, 214219, Note_on_c, 0, 59, 0
1, 214222, Note_on_c, 0, 56, 47
1, 214222, Note_on_c, 0, 59, 47
1, 214222, Note_on_c, 0, 65, 56
1, 214344, Note_on_c, 0, 89, 0
1, 214344, Note_on_c, 0, 80, 0
1, 214344, Note_on_c, 0, 83, 0
1, 214347, Note_on_c, 0, 77, 0
1, 214347, Note_on_c, 0, 77, 75
1, 214347, Note_on_c, 0, 80, 75
1, 214350, Note_on_c, 0, 74, 75
1, 214350, Note_on_c, 0, 86, 89
1, 214471, Note_on_c, 0, 65, 0
1, 214471, Note_on_c, 0, 56, 0
1, 214471, Note_on_c, 0, 53, 44
1, 214474, Note_on_c, 0, 56, 44
1, 214474, Note_on_c, 0, 62, 52
1, 214478, Note_on_c, 0, 59, 0
1, 214606, Note_on_c, 0, 86, 0
1, 214606, Note_on_c, 0, 77, 0
1, 214606, Note_on_c, 0, 80, 0
1, 214609, Note_on_c, 0, 74, 0
1, 214609, Note_on_c, 0, 77, 75
1, 214609, Note_on_c, 0, 74, 75
1, 214612, Note_on_c, 0, 71, 75
1, 214612, Note_on_c, 0, 83, 89
1, 214612, Note_on_c, 0, 53, 0
1, 214615, Note_on_c, 0, 56, 0
1, 214615, Note_on_c, 0, 62, 0
1, 214615, Control_c, 0, 64, 0
1, 214618, Control_c, 0, 64, 0
1, 214657, Control_c, 0, 64, 127
1, 214735, Note_on_c, 0, 50, 57
1, 214735, Note_on_c, 0, 53, 57
1, 214735, Note_on_c, 0, 59, 68
1, 214860, Note_on_c, 0, 83, 0
1, 214860, Note_on_c, 0, 77, 0
1, 214860, Note_on_c, 0, 74, 0
1, 214863, Note_on_c, 0, 71, 0
1, 214863, Note_on_c, 0, 74, 71
1, 214863, Note_on_c, 0, 71, 71
1, 214866, Note_on_c, 0, 68, 71
1, 214866, Note_on_c, 0, 80, 84
1, 214866, Control_c, 0, 64, 0
1, 214899, Control_c, 0, 64, 127
1, 214986, Note_on_c, 0, 59, 0
1, 214986, Note_on_c, 0, 53, 0
1, 214986, Note_on_c, 0, 50, 0
1, 214989, Note_on_c, 0, 47, 53
1, 214989, Note_on_c, 0, 50, 53
1, 214989, Note_on_c, 0, 56, 64
1, 215112, Note_on_c, 0, 80, 0
1, 215112, Note_on_c, 0, 74, 0
1, 215112, Note_on_c, 0, 71, 0
1, 215115, Note_on_c, 0, 68, 0
1, 215115, Note_on_c, 0, 71, 71
1, 215115, Note_on_c, 0, 74, 71
1, 215118, Note_on_c, 0, 67, 71
1, 215118, Note_on_c, 0, 79, 84
1, 215118, Control_c, 0, 64, 0
1, 215151, Control_c, 0, 64, 127
1, 215236, Note_on_c, 0, 56, 0
1, 215236, Note_on_c, 0, 50, 0
1, 215236, Note_on_c, 0, 47, 0
1, 215239, Note_on_c, 0, 47, 50
1, 215239, Note_on_c, 0, 50, 50
1, 215239, Note_on_c, 0, 55, 59
1, 215360, Note_on_c, 0, 79, 0
1, 215360, Note_on_c, 0, 71, 0
1, 215360, Note_on_c, 0, 74, 0
1, 215363, Note_on_c, 0, 67, 0
1, 215363, Note_on_c, 0, 68, 72
1, 215363, Note_on_c, 0, 71, 72
1, 215366, Note_on_c, 0, 65, 72
1, 215366, Note_on_c, 0, 77, 86
1, 215487, Note_on_c, 0, 55, 0
1, 215487, Note_on_c, 0, 47, 0
1, 215487, Note_on_c, 0, 44, 47
1, 215490, Note_on_c, 0, 47, 47
1, 215490, Note_on_c, 0, 53, 55
1, 215493, Note_on_c, 0, 50, 0
1, 215619, Note_on_c, 0, 77, 0
1, 215619, Note_on_c, 0, 68, 0
1, 215619, Note_on_c, 0, 71, 0
1, 215622, Note_on_c, 0, 65, 0
1, 215622, Note_on_c, 0, 68, 76
1, 215622, Note_on_c, 0, 65, 76
1, 215625, Note_on_c, 0, 62, 76
1, 215625, Note_on_c, 0, 74, 91
1, 215625, Note_on_c, 0, 44, 0
1, 215628, Note_on_c, 0, 47, 0
1, 215628, Note_on_c, 0, 53, 0
1, 215628, Control_c, 0, 64, 0
1, 215631, Control_c, 0, 64, 0
1, 215669, Control_c, 0, 64, 127
1, 215746, Note_on_c, 0, 41, 58
1, 215746, Note_on_c, 0, 44, 58
1, 215746, Note_on_c, 0, 50, 69
1, 215872, Note_on_c, 0, 74, 0
1, 215872, Note_on_c, 0, 68, 0
1, 215872, Note_on_c, 0, 65, 0
1, 215875, Note_on_c, 0, 62, 0
1, 215875, Note_on_c, 0, 65, 70
1, 215875, Note_on_c, 0, 62, 70
1, 215878, Note_on_c, 0, 59, 70
1, 215878, Note_on_c, 0, 71, 84
1, 215878, Control_c, 0, 64, 0
1, 215911, Control_c, 0, 64, 127
1, 215999, Note_on_c, 0, 50, 0
1, 215999, Note_on_c, 0, 44, 0
1, 215999, Note_on_c, 0, 41, 0
1, 216002, Note_on_c, 0, 38, 55
1, 216002, Note_on_c, 0, 41, 55
1, 216002, Note_on_c, 0, 47, 66
1, 216126, Note_on_c, 0, 71, 0
1, 216126, Note_on_c, 0, 65, 0
1, 216126, Note_on_c, 0, 62, 0
1, 216129, Note_on_c, 0, 59, 0
1, 216129, Note_on_c, 0, 59, 73
1, 216129, Note_on_c, 0, 62, 73
1, 216132, Note_on_c, 0, 56, 73
1, 216132, Note_on_c, 0, 68, 87
1, 216132, Control_c, 0, 64, 0
1, 216165, Control_c, 0, 64, 127
1, 216250, Note_on_c, 0, 47, 0
1, 216250, Note_on_c, 0, 41, 0
1, 216250, Note_on_c, 0, 38, 0
1, 216253, Note_on_c, 0, 35, 54
1, 216253, Note_on_c, 0, 38, 54
1, 216253, Note_on_c, 0, 44, 64
1, 216374, Note_on_c, 0, 68, 0
1, 216374, Note_on_c, 0, 59, 0
1, 216374, Note_on_c, 0, 62, 0
1, 216377, Note_on_c, 0, 56, 0
1, 216377, Note_on_c, 0, 59, 76
1, 216377, Note_on_c, 0, 62, 76
1, 216380, Note_on_c, 0, 55, 76
1, 216380, Note_on_c, 0, 67, 91
1, 216501, Note_on_c, 0, 44, 0
1, 216501, Note_on_c, 0, 35, 0
1, 216501, Note_on_c, 0, 35, 52
1, 216504, Note_on_c, 0, 38, 52
1, 216504, Note_on_c, 0, 43, 61
1, 216508, Note_on_c, 0, 38, 0
1, 216635, Note_on_c, 0, 67, 0
1, 216635, Note_on_c, 0, 59, 0
1, 216635, Note_on_c, 0, 62, 0
1, 216638, Note_on_c, 0, 55, 0
1, 216638, Note_on_c, 0, 62, 82
1, 216638, Note_on_c, 0, 59, 82
1, 216641, Note_on_c, 0, 53, 82
1, 216641, Note_on_c, 0, 65, 98
1, 216641, Note_on_c, 0, 35, 0
1, 216644, Note_on_c, 0, 38, 0
1, 216644, Note_on_c, 0, 43, 0
1, 216644, Control_c, 0, 64, 0
1, 216647, Control_c, 0, 64, 0
1, 216687, Control_c, 0, 64, 127
1, 216764, Note_on_c, 0, 35, 67
1, 216764, Note_on_c, 0, 38, 67
1, 216764, Note_on_c, 0, 41, 67
1, 216894, Note_on_c, 0, 65, 0
1, 216894, Note_on_c, 0, 62, 0
1, 216894, Note_on_c, 0, 59, 0
1, 216897, Note_on_c, 0, 53, 0
1, 216897, Note_on_c, 0, 62, 82
1, 216897, Note_on_c, 0, 59, 82
1, 216900, Note_on_c, 0, 56, 82
1, 216900, Note_on_c, 0, 68, 98
1, 216900, Control_c, 0, 64, 0
1, 216934, Control_c, 0, 64, 127
1, 217024, Note_on_c, 0, 41, 0
1, 217024, Note_on_c, 0, 38, 0
1, 217024, Note_on_c, 0, 35, 0
1, 217027, Note_on_c, 0, 38, 64
1, 217027, Note_on_c, 0, 32, 64
1, 217027, Note_on_c, 0, 35, 64
1, 217030, Note_on_c, 0, 44, 77
1, 217153, Note_on_c, 0, 68, 0
1, 217153, Note_on_c, 0, 62, 0
1, 217153, Note_on_c, 0, 59, 0
1, 217156, Note_on_c, 0, 56, 0
1, 217156, Note_on_c, 0, 59, 85
1, 217156, Note_on_c, 0, 62, 85
1, 217159, Note_on_c, 0, 55, 85
1, 217159, Note_on_c, 0, 67, 102
1, 217159, Control_c, 0, 64, 0
1, 217194, Control_c, 0, 64, 127
1, 217281, Note_on_c, 0, 44, 0
1, 217281, Note_on_c, 0, 38, 0
1, 217281, Note_on_c, 0, 32, 0
1, 217284, Note_on_c, 0, 35, 0
1, 217284, Note_on_c, 0, 38, 63
1, 217284, Note_on_c, 0, 31, 63
1, 217287, Note_on_c, 0, 35, 63
1, 217287, Note_on_c, 0, 43, 76
1, 217409, Note_on_c, 0, 67, 0
1, 217409, Note_on_c, 0, 59, 0
1, 217409, Note_on_c, 0, 62, 0
1, 217412, Note_on_c, 0, 55, 0
1, 217412, Note_on_c, 0, 56, 88
1, 217412, Note_on_c, 0, 62, 88
1, 217415, Note_on_c, 0, 53, 88
1, 217415, Note_on_c, 0, 65, 105
1, 217545, Note_on_c, 0, 43, 0
1, 217545, Note_on_c, 0, 38, 0
1, 217545, Note_on_c, 0, 31, 0
1, 217548, Note_on_c, 0, 38, 62
1, 217548, Note_on_c, 0, 29, 62
1, 217548, Note_on_c, 0, 35, 62
1, 217551, Note_on_c, 0, 41, 74
1, 217551, Note_on_c, 0, 35, 0
1, 217698, Note_on_c, 0, 65, 0
1, 217698, Note_on_c, 0, 56, 0
1, 217698, Note_on_c, 0, 62, 0
1, 217701, Note_on_c, 0, 53, 0
1, 217701, Note_on_c, 0, 48, 78
1, 217701, Note_on_c, 0, 60, 92
1, 217704, Note_on_c, 0, 35, 0
1, 217704, Note_on_c, 0, 38, 0
1, 217704, Note_on_c, 0, 29, 0
1, 217707, Note_on_c, 0, 41, 0
1, 217707, Note_on_c, 0, 28, 62
1, 217707, Note_on_c, 0, 31, 62
1, 217710, Note_on_c, 0, 24, 62
1, 217710, Note_on_c, 0, 36, 73
1, 217710, Control_c, 0, 64, 0
1, 217757, Control_c, 0, 64, 127
1, 217770, Note_on_c, 0, 60, 0
1, 217770, Note_on_c, 0, 55, 79
1, 217770, Note_on_c, 0, 52, 67
1, 217843, Note_on_c, 0, 55, 0
1, 217843, Note_on_c, 0, 60, 81
1, 217843, Note_on_c, 0, 52, 0
1, 217916, Note_on_c, 0, 60, 0
1, 217916, Note_on_c, 0, 60, 82
1, 217988, Note_on_c, 0, 60, 0
1, 217988, Note_on_c, 0, 67, 84
1, 217988, Note_on_c, 0, 64, 71
1, 218060, Note_on_c, 0, 64, 0
1, 218060, Note_on_c, 0, 67, 0
1, 218060, Note_on_c, 0, 72, 86
1, 218131, Note_on_c, 0, 72, 0
1, 218131, Note_on_c, 0, 48, 0
1, 218131, Note_on_c, 0, 72, 87
1, 218134, Note_on_c, 0, 36, 0
1, 218134, Note_on_c, 0, 28, 0
1, 218134, Note_on_c, 0, 31, 0
1, 218137, Note_on_c, 0, 24, 0
1, 218137, Note_on_c, 0, 60, 75
1, 218137, Note_on_c, 0, 52, 63
1, 218140, Note_on_c, 0, 55, 63
1, 218201, Note_on_c, 0, 72, 0
1, 218201, Note_on_c, 0, 79, 89
1, 218201, Note_on_c, 0, 76, 75
1, 218204, Note_on_c, 0, 55, 0
1, 218204, Note_on_c, 0, 52, 0
1, 218204, Note_on_c, 0, 60, 0
1, 218271, Note_on_c, 0, 76, 0
1, 218271, Note_on_c, 0, 79, 0
1, 218271, Note_on_c, 0, 84, 91
1, 218340, Note_on_c, 0, 84, 0
1, 218340, Note_on_c, 0, 84, 92
1, 218340, Note_on_c, 0, 48, 55
1, 218343, Note_on_c, 0, 55, 65
1, 218343, Note_on_c, 0, 52, 55
1, 218374, Note_on_c, 0, 52, 0
1, 218374, Note_on_c, 0, 55, 0
1, 218374, Note_on_c, 0, 48, 0
1, 218386, Note_on_c, 0, 84, 0
1, 218386, Note_on_c, 0, 88, 98
1, 218397, Note_on_c, 0, 91, 102
1, 218408, Note_on_c, 0, 96, 106
1, 218408, Note_on_c, 0, 48, 62
1, 218408, Note_on_c, 0, 52, 62
1, 218411, Note_on_c, 0, 55, 74
1, 218516, Control_c, 0, 64, 0
1, 218535, Note_on_c, 0, 96, 0
1, 218535, Note_on_c, 0, 91, 0
1, 218535, Note_on_c, 0, 88, 0
1, 218538, Note_on_c, 0, 55, 0
1, 218538, Note_on_c, 0, 52, 0
1, 218538, Note_on_c, 0, 48, 0
1, 218661, Note_on_c, 0, 49, 78
1, 218661, Note_on_c, 0, 61, 92
1, 218661, Note_on_c, 0, 34, 62
1, 218664, Note_on_c, 0, 37, 62
1, 218664, Note_on_c, 0, 31, 62
1, 218664, Note_on_c, 0, 43, 73
1, 218667, Control_c, 0, 64, 0
1, 218721, Control_c, 0, 64, 127
1, 218733, Note_on_c, 0, 61, 0
1, 218733, Note_on_c, 0, 53, 79
1, 218807, Note_on_c, 0, 53, 0
1, 218807, Note_on_c, 0, 58, 75
1, 218807, Note_on_c, 0, 61, 81
1, 218881, Note_on_c, 0, 61, 0
1, 218881, Note_on_c, 0, 58, 0
1, 218881, Note_on_c, 0, 61, 82
1, 218955, Note_on_c, 0, 61, 0
1, 218955, Note_on_c, 0, 65, 84
1, 219027, Note_on_c, 0, 65, 0
1, 219027, Note_on_c, 0, 70, 79
1, 219027, Note_on_c, 0, 73, 86
1, 219099, Note_on_c, 0, 73, 0
1, 219099, Note_on_c, 0, 70, 0
1, 219099, Note_on_c, 0, 49, 0
1, 219102, Note_on_c, 0, 73, 87
1, 219102, Note_on_c, 0, 43, 0
1, 219102, Note_on_c, 0, 34, 0
1, 219105, Note_on_c, 0, 37, 0
1, 219105, Note_on_c, 0, 31, 0
1, 219105, Note_on_c, 0, 61, 75
1, 219108, Note_on_c, 0, 53, 63
1, 219108, Note_on_c, 0, 58, 63
1, 219170, Note_on_c, 0, 73, 0
1, 219170, Note_on_c, 0, 77, 89
1, 219170, Note_on_c, 0, 58, 0
1, 219173, Note_on_c, 0, 53, 0
1, 219173, Note_on_c, 0, 61, 0
1, 219240, Note_on_c, 0, 77, 0
1, 219240, Note_on_c, 0, 82, 86
1, 219240, Note_on_c, 0, 85, 91
1, 219309, Note_on_c, 0, 85, 0
1, 219309, Note_on_c, 0, 82, 0
1, 219309, Note_on_c, 0, 85, 92
1, 219312, Note_on_c, 0, 49, 55
1, 219312, Note_on_c, 0, 58, 65
1, 219312, Note_on_c, 0, 53, 55
1, 219344, Note_on_c, 0, 53, 0
1, 219344, Note_on_c, 0, 58, 0
1, 219344, Note_on_c, 0, 49, 0
1, 219355, Note_on_c, 0, 85, 0
1, 219355, Note_on_c, 0, 89, 98
1, 219367, Note_on_c, 0, 94, 102
1, 219378, Note_on_c, 0, 97, 106
1, 219378, Note_on_c, 0, 49, 62
1, 219378, Note_on_c, 0, 53, 62
1, 219381, Note_on_c, 0, 58, 74
1, 219483, Control_c, 0, 64, 0
1, 219501, Note_on_c, 0, 97, 0
1, 219501, Note_on_c, 0, 94, 0
1, 219501, Note_on_c, 0, 89, 0
1, 219504, Note_on_c, 0, 58, 0
1, 219504, Note_on_c, 0, 53, 0
1, 219504, Note_on_c, 0, 49, 0
1, 219625, Note_on_c, 0, 48, 78
1, 219625, Note_on_c, 0, 60, 92
1, 219625, Note_on_c, 0, 28, 62
1, 219628, Note_on_c, 0, 31, 62
1, 219628, Note_on_c, 0, 24, 62
1, 219628, Note_on_c, 0, 36, 73
1, 219631, Control_c, 0, 64, 0
1, 219686, Control_c, 0, 64, 127
1, 219692, Note_on_c, 0, 55, 79
1, 219692, Note_on_c, 0, 52, 67
1, 219699, Note_on_c, 0, 60, 0
1, 219766, Note_on_c, 0, 55, 0
1, 219766, Note_on_c, 0, 52, 0
1, 219772, Note_on_c, 0, 60, 81
1, 219845, Note_on_c, 0, 60, 0
1, 219845, Note_on_c, 0, 60, 82
1, 219916, Note_on_c, 0, 60, 0
1, 219916, Note_on_c, 0, 67, 84
1, 219916, Note_on_c, 0, 64, 71
1, 219987, Note_on_c, 0, 64, 0
1, 219987, Note_on_c, 0, 67, 0
1, 219987, Note_on_c, 0, 72, 86
1, 220057, Note_on_c, 0, 72, 0
1, 220057, Note_on_c, 0, 48, 0
1, 220057, Note_on_c, 0, 72, 87
1, 220060, Note_on_c, 0, 36, 0
1, 220060, Note_on_c, 0, 28, 0
1, 220060, Note_on_c, 0, 31, 0
1, 220063, Note_on_c, 0, 24, 0
1, 220063, Note_on_c, 0, 60, 75
1, 220063, Note_on_c, 0, 52, 63
1, 220066, Note_on_c, 0, 55, 63
1, 220127, Note_on_c, 0, 72, 0
1, 220127, Note_on_c, 0, 79, 89
1, 220127, Note_on_c, 0, 76, 75
1, 220130, Note_on_c, 0, 55, 0
1, 220130, Note_on_c, 0, 52, 0
1, 220130, Note_on_c, 0, 60, 0
1, 220196, Note_on_c, 0, 76, 0
1, 220196, Note_on_c, 0, 79, 0
1, 220196, Note_on_c, 0, 84, 91
1, 220265, Note_on_c, 0, 84, 0
1, 220265, Note_on_c, 0, 84, 92
1, 220265, Note_on_c, 0, 48, 55
1, 220268, Note_on_c, 0, 55, 65
1, 220268, Note_on_c, 0, 52, 55
1, 220299, Note_on_c, 0, 52, 0
1, 220299, Note_on_c, 0, 55, 0
1, 220299, Note_on_c, 0, 48, 0
1, 220310, Note_on_c, 0, 84, 0
1, 220310, Note_on_c, 0, 88, 98
1, 220321, Note_on_c, 0, 91, 102
1, 220333, Note_on_c, 0, 96, 106
1, 220333, Note_on_c, 0, 48, 62
1, 220333, Note_on_c, 0, 52, 62
1, 220336, Note_on_c, 0, 55, 74
1, 220434, Control_c, 0, 64, 0
1, 220452, Note_on_c, 0, 96, 0
1, 220452, Note_on_c, 0, 91, 0
1, 220452, Note_on_c, 0, 88, 0
1, 220455, Note_on_c, 0, 55, 0
1, 220455, Note_on_c, 0, 52, 0
1, 220455, Note_on_c, 0, 48, 0
1, 220572, Note_on_c, 0, 53, 78
1, 220572, Note_on_c, 0, 65, 92
1, 220572, Note_on_c, 0, 32, 62
1, 220575, Note_on_c, 0, 35, 62
1, 220575, Note_on_c, 0, 38, 62
1, 220575, Note_on_c, 0, 29, 62
1, 220578, Note_on_c, 0, 41, 73
1, 220578, Control_c, 0, 64, 0
1, 220632, Control_c, 0, 64, 127
1, 220645, Note_on_c, 0, 65, 0
1, 220645, Note_on_c, 0, 56, 72
1, 220645, Note_on_c, 0, 59, 79
1, 220719, Note_on_c, 0, 59, 0
1, 220719, Note_on_c, 0, 56, 0
1, 220719, Note_on_c, 0, 65, 81
1, 220791, Note_on_c, 0, 65, 0
1, 220791, Note_on_c, 0, 65, 82
1, 220864, Note_on_c, 0, 65, 0
1, 220864, Note_on_c, 0, 68, 74
1, 220864, Note_on_c, 0, 71, 84
1, 220935, Note_on_c, 0, 71, 0
1, 220935, Note_on_c, 0, 68, 0
1, 220935, Note_on_c, 0, 77, 86
1, 221006, Note_on_c, 0, 77, 0
1, 221006, Note_on_c, 0, 53, 0
1, 221006, Note_on_c, 0, 77, 87
1, 221009, Note_on_c, 0, 41, 0
1, 221009, Note_on_c, 0, 38, 0
1, 221009, Note_on_c, 0, 32, 0
1, 221012, Note_on_c, 0, 35, 0
1, 221012, Note_on_c, 0, 29, 0
1, 221012, Note_on_c, 0, 68, 75
1, 221015, Note_on_c, 0, 59, 63
1, 221015, Note_on_c, 0, 62, 63
1, 221076, Note_on_c, 0, 77, 0
1, 221076, Note_on_c, 0, 80, 79
1, 221076, Note_on_c, 0, 83, 89
1, 221079, Note_on_c, 0, 62, 0
1, 221079, Note_on_c, 0, 59, 0
1, 221079, Note_on_c, 0, 68, 0
1, 221146, Note_on_c, 0, 83, 0
1, 221146, Note_on_c, 0, 80, 0
1, 221146, Note_on_c, 0, 89, 91
1, 221215, Note_on_c, 0, 89, 0
1, 221215, Note_on_c, 0, 89, 92
1, 221215, Note_on_c, 0, 56, 55
1, 221218, Note_on_c, 0, 65, 65
1, 221218, Note_on_c, 0, 59, 55
1, 221250, Note_on_c, 0, 59, 0
1, 221250, Note_on_c, 0, 65, 0
1, 221250, Note_on_c, 0, 56, 0
1, 221261, Note_on_c, 0, 89, 0
1, 221261, Note_on_c, 0, 92, 98
1, 221273, Note_on_c, 0, 95, 102
1, 221284, Note_on_c, 0, 101, 106
1, 221284, Note_on_c, 0, 56, 62
1, 221284, Note_on_c, 0, 59, 62
1, 221287, Note_on_c, 0, 65, 74
1, 221386, Control_c, 0, 64, 0
1, 221404, Note_on_c, 0, 101, 0
1, 221404, Note_on_c, 0, 95, 0
1, 221404, Note_on_c, 0, 92, 0
1, 221407, Note_on_c, 0, 65, 0
1, 221407, Note_on_c, 0, 59, 0
1, 221407, Note_on_c, 0, 56, 0
1, 221519, Note_on_c, 0, 52, 78
1, 221519, Note_on_c, 0, 64, 92
1, 221519, Note_on_c, 0, 40, 62
1, 221522, Note_on_c, 0, 43, 62
1, 221522, Note_on_c, 0, 36, 62
1, 221522, Note_on_c, 0, 48, 73
1, 221525, Control_c, 0, 64, 0
1, 221582, Control_c, 0, 64, 127
1, 221588, Note_on_c, 0, 55, 79
1, 221595, Note_on_c, 0, 64, 0
1, 221595, Note_on_c, 0, 52, 0
1, 221663, Note_on_c, 0, 55, 0
1, 221669, Note_on_c, 0, 60, 81
1, 221743, Note_on_c, 0, 60, 0
1, 221743, Note_on_c, 0, 64, 82
1, 221816, Note_on_c, 0, 64, 0
1, 221816, Note_on_c, 0, 76, 86
1, 221816, Note_on_c, 0, 72, 84
1, 221819, Note_on_c, 0, 67, 71
1, 221819, Note_on_c, 0, 48, 0
1, 221819, Note_on_c, 0, 40, 0
1, 221822, Note_on_c, 0, 43, 0
1, 221822, Note_on_c, 0, 36, 0
1, 221822, Note_on_c, 0, 55, 62
1, 221825, Note_on_c, 0, 60, 74
1, 221889, Control_c, 0, 64, 0
1, 221892, Note_on_c, 0, 67, 0
1, 221892, Note_on_c, 0, 72, 0
1, 221892, Note_on_c, 0, 76, 0
1, 221895, Note_on_c, 0, 60, 0
1, 221895, Note_on_c, 0, 55, 0
1, 221969, Note_on_c, 0, 73, 95
1, 221969, Note_on_c, 0, 61, 80
1, 221969, Note_on_c, 0, 31, 62
1, 221972, Note_on_c, 0, 34, 62
1, 221972, Note_on_c, 0, 37, 62
1, 221972, Note_on_c, 0, 43, 73
1, 222014, Control_c, 0, 64, 127
1, 222046, Note_on_c, 0, 61, 0
1, 222046, Note_on_c, 0, 73, 0
1, 222046, Note_on_c, 0, 65, 83
1, 222121, Note_on_c, 0, 65, 0
1, 222121, Note_on_c, 0, 70, 72
1, 222121, Note_on_c, 0, 73, 85
1, 222195, Note_on_c, 0, 73, 0
1, 222195, Note_on_c, 0, 70, 0
1, 222195, Note_on_c, 0, 73, 87
1, 222267, Note_on_c, 0, 73, 0
1, 222267, Note_on_c, 0, 77, 75
1, 222267, Note_on_c, 0, 82, 75
1, 222270, Note_on_c, 0, 85, 89
1, 222270, Note_on_c, 0, 43, 0
1, 222270, Note_on_c, 0, 31, 0
1, 222273, Note_on_c, 0, 34, 0
1, 222273, Note_on_c, 0, 37, 0
1, 222273, Note_on_c, 0, 53, 62
1, 222276, Note_on_c, 0, 58, 62
1, 222276, Note_on_c, 0, 61, 74
1, 222339, Note_on_c, 0, 85, 0
1, 222339, Note_on_c, 0, 82, 0
1, 222339, Note_on_c, 0, 77, 0
1, 222342, Note_on_c, 0, 61, 0
1, 222342, Note_on_c, 0, 58, 0
1, 222342, Note_on_c, 0, 53, 0
1, 222354, Control_c, 0, 64, 0
1, 222413, Note_on_c, 0, 60, 78
1, 222413, Note_on_c, 0, 72, 92
1, 222413, Note_on_c, 0, 40, 62
1, 222416, Note_on_c, 0, 43, 62
1, 222416, Note_on_c, 0, 36, 62
1, 222416, Note_on_c, 0, 48, 73
1, 222419, Control_c, 0, 64, 0
1, 222474, Control_c, 0, 64, 127
1, 222487, Note_on_c, 0, 72, 0
1, 222487, Note_on_c, 0, 60, 0
1, 222487, Note_on_c, 0, 67, 79
1, 222490, Note_on_c, 0, 64, 71
1, 222561, Note_on_c, 0, 64, 0
1, 222561, Note_on_c, 0, 67, 0
1, 222561, Note_on_c, 0, 72, 81
1, 222633, Note_on_c, 0, 72, 0
1, 222633, Note_on_c, 0, 72, 82
1, 222705, Note_on_c, 0, 72, 0
1, 222705, Note_on_c, 0, 84, 86
1, 222705, Note_on_c, 0, 79, 84
1, 222708, Note_on_c, 0, 76, 71
1, 222708, Note_on_c, 0, 48, 0
1, 222708, Note_on_c, 0, 40, 0
1, 222711, Note_on_c, 0, 43, 0
1, 222711, Note_on_c, 0, 36, 0
1, 222711, Note_on_c, 0, 55, 62
1, 222714, Note_on_c, 0, 60, 74
1, 222774, Control_c, 0, 64, 0
1, 222774, Note_on_c, 0, 76, 0
1, 222774, Note_on_c, 0, 79, 0
1, 222774, Note_on_c, 0, 84, 0
1, 222774, Note_on_c, 0, 60, 0
1, 222774, Note_on_c, 0, 55, 0
1, 222849, Note_on_c, 0, 89, 95
1, 222849, Note_on_c, 0, 77, 80
1, 222849, Note_on_c, 0, 35, 62
1, 222852, Note_on_c, 0, 29, 62
1, 222852, Note_on_c, 0, 32, 62
1, 222852, Note_on_c, 0, 38, 62
1, 222855, Note_on_c, 0, 41, 73
1, 222893, Control_c, 0, 64, 127
1, 222924, Note_on_c, 0, 77, 0
1, 222924, Note_on_c, 0, 89, 0
1, 222924, Note_on_c, 0, 80, 77
1, 222927, Note_on_c, 0, 83, 83
1, 222998, Note_on_c, 0, 83, 0
1, 222998, Note_on_c, 0, 80, 0
1, 222998, Note_on_c, 0, 89, 87
1, 223070, Note_on_c, 0, 89, 0
1, 223070, Note_on_c, 0, 89, 91
1, 223142, Note_on_c, 0, 89, 0
1, 223142, Note_on_c, 0, 92, 80
1, 223142, Note_on_c, 0, 95, 80
1, 223145, Note_on_c, 0, 101, 95
1, 223145, Note_on_c, 0, 41, 0
1, 223145, Note_on_c, 0, 32, 0
1, 223148, Note_on_c, 0, 35, 0
1, 223148, Note_on_c, 0, 29, 0
1, 223148, Note_on_c, 0, 38, 0
1, 223151, Note_on_c, 0, 56, 62
1, 223151, Note_on_c, 0, 59, 62
1, 223151, Note_on_c, 0, 62, 62
1, 223154, Note_on_c, 0, 65, 74
1, 223226, Note_on_c, 0, 101, 0
1, 223226, Note_on_c, 0, 95, 0
1, 223226, Note_on_c, 0, 92, 0
1, 223229, Note_on_c, 0, 65, 0
1, 223229, Note_on_c, 0, 56, 0
1, 223229, Note_on_c, 0, 59, 0
1, 223232, Note_on_c, 0, 62, 0
1, 223243, Control_c, 0, 64, 0
1, 223308, Note_on_c, 0, 100, 84
1, 223308, Note_on_c, 0, 96, 71
1, 223308, Note_on_c, 0, 91, 71
1, 223311, Note_on_c, 0, 36, 57
1, 223311, Note_on_c, 0, 48, 68
1, 223371, Note_on_c, 0, 91, 0
1, 223371, Note_on_c, 0, 96, 0
1, 223371, Note_on_c, 0, 100, 0
1, 223374, Note_on_c, 0, 48, 0
1, 223374, Note_on_c, 0, 36, 0
1, 223435, Note_on_c, 0, 94, 61
1, 223435, Note_on_c, 0, 97, 73
1, 223435, Note_on_c, 0, 89, 61
1, 223438, Note_on_c, 0, 31, 50
1, 223438, Note_on_c, 0, 43, 59
1, 223498, Note_on_c, 0, 89, 0
1, 223498, Note_on_c, 0, 97, 0
1, 223498, Note_on_c, 0, 94, 0
1, 223501, Note_on_c, 0, 43, 0
1, 223501, Note_on_c, 0, 31, 0
1, 223563, Note_on_c, 0, 96, 82
1, 223563, Note_on_c, 0, 91, 69
1, 223563, Note_on_c, 0, 88, 69
1, 223566, Note_on_c, 0, 36, 57
1, 223566, Note_on_c, 0, 48, 68
1, 223627, Note_on_c, 0, 88, 0
1, 223627, Note_on_c, 0, 91, 0
1, 223627, Note_on_c, 0, 96, 0
1, 223630, Note_on_c, 0, 48, 0
1, 223630, Note_on_c, 0, 36, 0
1, 223693, Note_on_c, 0, 94, 73
1, 223693, Note_on_c, 0, 89, 61
1, 223693, Note_on_c, 0, 85, 61
1, 223696, Note_on_c, 0, 31, 49
1, 223696, Note_on_c, 0, 43, 58
1, 223757, Note_on_c, 0, 85, 0
1, 223757, Note_on_c, 0, 89, 0
1, 223757, Note_on_c, 0, 94, 0
1, 223760, Note_on_c, 0, 43, 0
1, 223760, Note_on_c, 0, 31, 0
1, 223823, Note_on_c, 0, 91, 84
1, 223823, Note_on_c, 0, 88, 71
1, 223823, Note_on_c, 0, 84, 71
1, 223826, Note_on_c, 0, 36, 57
1, 223826, Note_on_c, 0, 48, 68
1, 223887, Note_on_c, 0, 84, 0
1, 223887, Note_on_c, 0, 88, 0
1, 223887, Note_on_c, 0, 91, 0
1, 223890, Note_on_c, 0, 48, 0
1, 223890, Note_on_c, 0, 36, 0
1, 223952, Note_on_c, 0, 80, 59
1, 223952, Note_on_c, 0, 83, 59
1, 223952, Note_on_c, 0, 86, 59
1, 223955, Note_on_c, 0, 89, 70
1, 223955, Note_on_c, 0, 29, 48
1, 223955, Note_on_c, 0, 41, 57
1, 224015, Note_on_c, 0, 89, 0
1, 224015, Note_on_c, 0, 80, 0
1, 224015, Note_on_c, 0, 83, 0
1, 224018, Note_on_c, 0, 86, 0
1, 224018, Note_on_c, 0, 41, 0
1, 224018, Note_on_c, 0, 29, 0
1, 224081, Note_on_c, 0, 88, 77
1, 224081, Note_on_c, 0, 84, 65
1, 224081, Note_on_c, 0, 79, 65
1, 224084, Note_on_c, 0, 36, 57
1, 224084, Note_on_c, 0, 48, 68
1, 224144, Note_on_c, 0, 79, 0
1, 224144, Note_on_c, 0, 84, 0
1, 224144, Note_on_c, 0, 88, 0
1, 224147, Note_on_c, 0, 48, 0
1, 224147, Note_on_c, 0, 36, 0
1, 224210, Note_on_c, 0, 82, 56
1, 224210, Note_on_c, 0, 85, 67
1, 224210, Note_on_c, 0, 77, 56
1, 224213, Note_on_c, 0, 31, 50
1, 224213, Note_on_c, 0, 43, 59
1, 224274, Note_on_c, 0, 77, 0
1, 224274, Note_on_c, 0, 85, 0
1, 224274, Note_on_c, 0, 82, 0
1, 224277, Note_on_c, 0, 43, 0
1, 224277, Note_on_c, 0, 31, 0
1, 224341, Note_on_c, 0, 84, 75
1, 224341, Note_on_c, 0, 79, 63
1, 224341, Note_on_c, 0, 76, 63
1, 224344, Note_on_c, 0, 36, 57
1, 224344, Note_on_c, 0, 48, 68
1, 224404, Note_on_c, 0, 76, 0
1, 224404, Note_on_c, 0, 79, 0
1, 224404, Note_on_c, 0, 84, 0
1, 224407, Note_on_c, 0, 48, 0
1, 224407, Note_on_c, 0, 36, 0
1, 224470, Note_on_c, 0, 82, 67
1, 224470, Note_on_c, 0, 77, 56
1, 224470, Note_on_c, 0, 73, 56
1, 224473, Note_on_c, 0, 31, 49
1, 224473, Note_on_c, 0, 43, 58
1, 224534, Note_on_c, 0, 73, 0
1, 224534, Note_on_c, 0, 77, 0
1, 224534, Note_on_c, 0, 82, 0
1, 224537, Note_on_c, 0, 43, 0
1, 224537, Note_on_c, 0, 31, 0
1, 224599, Note_on_c, 0, 79, 77
1, 224599, Note_on_c, 0, 76, 65
1, 224599, Note_on_c, 0, 72, 65
1, 224602, Note_on_c, 0, 36, 57
1, 224602, Note_on_c, 0, 48, 68
1, 224663, Note_on_c, 0, 72, 0
1, 224663, Note_on_c, 0, 76, 0
1, 224663, Note_on_c, 0, 79, 0
1, 224666, Note_on_c, 0, 48, 0
1, 224666, Note_on_c, 0, 36, 0
1, 224728, Note_on_c, 0, 68, 54
1, 224728, Note_on_c, 0, 71, 54
1, 224728, Note_on_c, 0, 74, 54
1, 224731, Note_on_c, 0, 77, 64
1, 224731, Note_on_c, 0, 29, 48
1, 224731, Note_on_c, 0, 41, 57
1, 224792, Note_on_c, 0, 77, 0
1, 224792, Note_on_c, 0, 68, 0
1, 224792, Note_on_c, 0, 71, 0
1, 224795, Note_on_c, 0, 74, 0
1, 224795, Note_on_c, 0, 41, 0
1, 224795, Note_on_c, 0, 29, 0
1, 224857, Note_on_c, 0, 76, 77
1, 224857, Note_on_c, 0, 72, 65
1, 224857, Note_on_c, 0, 67, 65
1, 224860, Note_on_c, 0, 36, 57
1, 224860, Note_on_c, 0, 48, 68
1, 224922, Note_on_c, 0, 67, 0
1, 224922, Note_on_c, 0, 72, 0
1, 224922, Note_on_c, 0, 76, 0
1, 224925, Note_on_c, 0, 48, 0
1, 224925, Note_on_c, 0, 36, 0
1, 224986, Note_on_c, 0, 70, 58
1, 224986, Note_on_c, 0, 73, 68
1, 224986, Note_on_c, 0, 65, 58
1, 224989, Note_on_c, 0, 31, 51
1, 224989, Note_on_c, 0, 43, 60
1, 225050, Note_on_c, 0, 65, 0
1, 225050, Note_on_c, 0, 73, 0
1, 225050, Note_on_c, 0, 70, 0
1, 225053, Note_on_c, 0, 43, 0
1, 225053, Note_on_c, 0, 31, 0
1, 225114, Note_on_c, 0, 72, 79
1, 225114, Note_on_c, 0, 67, 66
1, 225114, Note_on_c, 0, 64, 66
1, 225117, Note_on_c, 0, 36, 60
1, 225117, Note_on_c, 0, 48, 71
1, 225178, Note_on_c, 0, 64, 0
1, 225178, Note_on_c, 0, 67, 0
1, 225178, Note_on_c, 0, 72, 0
1, 225181, Note_on_c, 0, 48, 0
1, 225181, Note_on_c, 0, 36, 0
1, 225242, Note_on_c, 0, 70, 72
1, 225242, Note_on_c, 0, 65, 61
1, 225242, Note_on_c, 0, 61, 61
1, 225245, Note_on_c, 0, 31, 53
1, 225245, Note_on_c, 0, 43, 63
1, 225306, Note_on_c, 0, 61, 0
1, 225306, Note_on_c, 0, 65, 0
1, 225306, Note_on_c, 0, 70, 0
1, 225309, Note_on_c, 0, 43, 0
1, 225309, Note_on_c, 0, 31, 0
1, 225369, Note_on_c, 0, 67, 85
1, 225369, Note_on_c, 0, 64, 72
1, 225369, Note_on_c, 0, 60, 72
1, 225372, Note_on_c, 0, 36, 63
1, 225372, Note_on_c, 0, 48, 75
1, 225432, Note_on_c, 0, 60, 0
1, 225432, Note_on_c, 0, 64, 0
1, 225432, Note_on_c, 0, 67, 0
1, 225435, Note_on_c, 0, 48, 0
1, 225435, Note_on_c, 0, 36, 0
1, 225495, Note_on_c, 0, 56, 61
1, 225495, Note_on_c, 0, 59, 61
1, 225495, Note_on_c, 0, 62, 61
1, 225498, Note_on_c, 0, 65, 72
1, 225498, Note_on_c, 0, 29, 54
1, 225498, Note_on_c, 0, 41, 65
1, 225558, Note_on_c, 0, 65, 0
1, 225558, Note_on_c, 0, 56, 0
1, 225558, Note_on_c, 0, 59, 0
1, 225561, Note_on_c, 0, 62, 0
1, 225561, Note_on_c, 0, 41, 0
1, 225561, Note_on_c, 0, 29, 0
1, 225621, Note_on_c, 0, 64, 90
1, 225621, Note_on_c, 0, 60, 76
1, 225621, Note_on_c, 0, 55, 76
1, 225624, Note_on_c, 0, 36, 67
1, 225624, Note_on_c, 0, 48, 79
1, 225683, Note_on_c, 0, 55, 0
1, 225683, Note_on_c, 0, 60, 0
1, 225683, Note_on_c, 0, 64, 0
1, 225686, Note_on_c, 0, 48, 0
1, 225686, Note_on_c, 0, 36, 0
1, 225746, Note_on_c, 0, 58, 67
1, 225746, Note_on_c, 0, 61, 79
1, 225746, Note_on_c, 0, 53, 67
1, 225749, Note_on_c, 0, 31, 59
1, 225749, Note_on_c, 0, 43, 70
1, 225809, Note_on_c, 0, 53, 0
1, 225809, Note_on_c, 0, 61, 0
1, 225809, Note_on_c, 0, 58, 0
1, 225812, Note_on_c, 0, 43, 0
1, 225812, Note_on_c, 0, 31, 0
1, 225872, Note_on_c, 0, 60, 92
1, 225872, Note_on_c, 0, 55, 78
1, 225872, Note_on_c, 0, 52, 78
1, 225875, Note_on_c, 0, 36, 70
1, 225875, Note_on_c, 0, 48, 83
1, 225935, Note_on_c, 0, 52, 0
1, 225935, Note_on_c, 0, 55, 0
1, 225935, Note_on_c, 0, 60, 0
1, 225938, Note_on_c, 0, 48, 0
1, 225938, Note_on_c, 0, 36, 0
1, 225998, Note_on_c, 0, 58, 83
1, 225998, Note_on_c, 0, 53, 71
1, 225998, Note_on_c, 0, 49, 71
1, 226001, Note_on_c, 0, 31, 61
1, 226001, Note_on_c, 0, 43, 73
1, 226061, Note_on_c, 0, 49, 0
1, 226061, Note_on_c, 0, 53, 0
1, 226061, Note_on_c, 0, 58, 0
1, 226064, Note_on_c, 0, 43, 0
1, 226064, Note_on_c, 0, 31, 0
1, 226124, Note_on_c, 0, 55, 98
1, 226124, Note_on_c, 0, 52, 83
1, 226124, Note_on_c, 0, 36, 73
1, 226127, Note_on_c, 0, 48, 86
1, 226186, Note_on_c, 0, 52, 0
1, 226186, Note_on_c, 0, 55, 0
1, 226186, Note_on_c, 0, 48, 0
1, 226189, Note_on_c, 0, 36, 0
1, 226248, Note_on_c, 0, 44, 83
1, 226248, Note_on_c, 0, 47, 83
1, 226248, Note_on_c, 0, 53, 100
1, 226251, Note_on_c, 0, 35, 62
1, 226251, Note_on_c, 0, 38, 74
1, 226251, Note_on_c, 0, 29, 62
1, 226254, Note_on_c, 0, 41, 89
1, 226254, Control_c, 0, 64, 127
1, 226311, Note_on_c, 0, 53, 0
1, 226311, Note_on_c, 0, 47, 0
1, 226311, Note_on_c, 0, 44, 0
1, 226314, Note_on_c, 0, 41, 0
1, 226314, Note_on_c, 0, 35, 0
1, 226314, Note_on_c, 0, 38, 0
1, 226317, Note_on_c, 0, 29, 0
1, 226332, Control_c, 0, 64, 0
1, 226656, Note_on_c, 0, 44, 83
1, 226656, Note_on_c, 0, 47, 83
1, 226656, Note_on_c, 0, 50, 100
1, 226659, Note_on_c, 0, 29, 62
1, 226659, Note_on_c, 0, 35, 62
1, 226659, Note_on_c, 0, 38, 74
1, 226662, Note_on_c, 0, 41, 89
1, 226672, Control_c, 0, 64, 127
1, 226727, Note_on_c, 0, 50, 0
1, 226727, Note_on_c, 0, 47, 0
1, 226727, Note_on_c, 0, 44, 0
1, 226730, Note_on_c, 0, 41, 0
1, 226730, Note_on_c, 0, 29, 0
1, 226730, Note_on_c, 0, 35, 0
1, 226733, Note_on_c, 0, 38, 0
1, 226774, Control_c, 0, 64, 0
1, 227093, Note_on_c, 0, 44, 83
1, 227093, Note_on_c, 0, 47, 100
1, 227093, Note_on_c, 0, 29, 62
1, 227096, Note_on_c, 0, 35, 62
1, 227096, Note_on_c, 0, 38, 74
1, 227096, Note_on_c, 0, 41, 89
1, 227114, Control_c, 0, 64, 127
1, 227163, Note_on_c, 0, 47, 0
1, 227163, Note_on_c, 0, 44, 0
1, 227163, Note_on_c, 0, 41, 0
1, 227166, Note_on_c, 0, 29, 0
1, 227166, Note_on_c, 0, 35, 0
1, 227166, Note_on_c, 0, 38, 0
1, 227192, Control_c, 0, 64, 0
1, 227234, Note_on_c, 0, 44, 91
1, 227234, Note_on_c, 0, 47, 91
1, 227234, Note_on_c, 0, 56, 110
1, 227237, Note_on_c, 0, 29, 68
1, 227237, Note_on_c, 0, 35, 68
1, 227237, Note_on_c, 0, 38, 81
1, 227240, Note_on_c, 0, 41, 97
1, 227256, Control_c, 0, 64, 127
1, 227304, Note_on_c, 0, 56, 0
1, 227304, Note_on_c, 0, 47, 0
1, 227304, Note_on_c, 0, 44, 0
1, 227307, Note_on_c, 0, 41, 0
1, 227307, Note_on_c, 0, 29, 0
1, 227307, Note_on_c, 0, 35, 0
1, 227310, Note_on_c, 0, 38, 0
1, 227323, Control_c, 0, 64, 0
1, 227374, Note_on_c, 0, 44, 83
1, 227374, Note_on_c, 0, 47, 83
1, 227374, Note_on_c, 0, 53, 100
1, 227377, Note_on_c, 0, 29, 62
1, 227377, Note_on_c, 0, 35, 62
1, 227377, Note_on_c, 0, 38, 74
1, 227380, Note_on_c, 0, 41, 89
1, 227406, Control_c, 0, 64, 127
1, 227444, Note_on_c, 0, 53, 0
1, 227444, Note_on_c, 0, 47, 0
1, 227444, Note_on_c, 0, 44, 0
1, 227447, Note_on_c, 0, 41, 0
1, 227447, Note_on_c, 0, 29, 0
1, 227447, Note_on_c, 0, 35, 0
1, 227450, Note_on_c, 0, 38, 0
1, 227501, Control_c, 0, 64, 0
1, 228322, Note_on_c, 0, 44, 88
1, 228322, Note_on_c, 0, 32, 91
1, 228378, Note_on_c, 0, 44, 0
1, 228378, Note_on_c, 0, 32, 0
1, 228397, Note_on_c, 0, 43, 91
1, 228397, Note_on_c, 0, 31, 93
1, 228455, Note_on_c, 0, 43, 0
1, 228455, Note_on_c, 0, 31, 0
1, 228475, Note_on_c, 0, 42, 93
1, 228475, Note_on_c, 0, 30, 95
1, 228539, Note_on_c, 0, 42, 0
1, 228539, Note_on_c, 0, 30, 0
1, 228561, Note_on_c, 0, 41, 96
1, 228561, Note_on_c, 0, 29, 97
1, 228629, Note_on_c, 0, 41, 0
1, 228629, Note_on_c, 0, 29, 0
1, 228652, Note_on_c, 0, 40, 83
1, 228652, Note_on_c, 0, 43, 83
1, 228652, Note_on_c, 0, 48, 99
1, 228655, Note_on_c, 0, 24, 71
1, 228655, Note_on_c, 0, 28, 71
1, 228655, Note_on_c, 0, 31, 84
1, 228658, Note_on_c, 0, 36, 100
1, 228771, Control_c, 0, 64, 127
1, 229643, Note_on_c, 0, 48, 0
1, 229643, Note_on_c, 0, 43, 0
1, 229643, Note_on_c, 0, 40, 0
1, 229646, Note_on_c, 0, 36, 0
1, 229646, Note_on_c, 0, 24, 0
1, 229646, Note_on_c, 0, 28, 0
1, 229649, Note_on_c, 0, 31, 0
1, 230441, Control_c, 0, 64, 0
1, 231939, End_track
0, 0, End_of_file
