0, 0, Header, 0, 1, 384
1, 0, Start_track
1, 0, Tempo, 512820
1, 0, Title_t, "Rhapsodie Nr. 15"
1, 0, Program_c, 0, 0
1, 0, Control_c, 0, 7, 100
1, 3, Control_c, 0, 10, 64
1, 3, Program_c, 0, 0
1, 3, Control_c, 0, 7, 100
1, 6, Control_c, 0, 10, 64
1, 6, Program_c, 0, 0
1, 748, Note_on_c, 0, 28, 27
1, 748, Control_c, 0, 64, 127
1, 814, Note_on_c, 0, 28, 0
1, 814, Note_on_c, 0, 39, 27
1, 880, Note_on_c, 0, 39, 0
1, 880, Note_on_c, 0, 40, 27
1, 946, Note_on_c, 0, 40, 0
1, 946, Note_on_c, 0, 52, 35
1, 979, Note_on_c, 0, 52, 0
1, 1012, Note_on_c, 0, 28, 28
1, 1078, Note_on_c, 0, 28, 0
1, 1078, Note_on_c, 0, 39, 28
1, 1143, Note_on_c, 0, 39, 0
1, 1143, Note_on_c, 0, 40, 28
1, 1208, Note_on_c, 0, 40, 0
1, 1208, Note_on_c, 0, 52, 35
1, 1240, Note_on_c, 0, 52, 0
1, 1272, Note_on_c, 0, 28, 27
1, 1337, Note_on_c, 0, 28, 0
1, 1337, Note_on_c, 0, 39, 27
1, 1401, Note_on_c, 0, 39, 0
1, 1401, Note_on_c, 0, 40, 27
1, 1465, Note_on_c, 0, 40, 0
1, 1465, Note_on_c, 0, 52, 35
1, 1497, Note_on_c, 0, 52, 0
1, 1529, Note_on_c, 0, 28, 27
1, 1593, Note_on_c, 0, 28, 0
1, 1593, Note_on_c, 0, 39, 27
1, 1656, Note_on_c, 0, 39, 0
1, 1656, Note_on_c, 0, 40, 27
1, 1719, Note_on_c, 0, 40, 0
1, 1719, Note_on_c, 0, 52, 35
1, 1750, Note_on_c, 0, 52, 0
1, 1782, Note_on_c, 0, 28, 28
1, 1844, Note_on_c, 0, 28, 0
1, 1844, Note_on_c, 0, 39, 28
1, 1907, Note_on_c, 0, 39, 0
1, 1907, Note_on_c, 0, 40, 28
1, 1969, Note_on_c, 0, 40, 0
1, 1969, Note_on_c, 0, 52, 35
1, 2001, Note_on_c, 0, 52, 0
1, 2032, Note_on_c, 0, 28, 27
1, 2095, Note_on_c, 0, 28, 0
1, 2095, Note_on_c, 0, 39, 27
1, 2158, Note_on_c, 0, 39, 0
1, 2158, Note_on_c, 0, 40, 27
1, 2221, Note_on_c, 0, 40, 0
1, 2221, Note_on_c, 0, 52, 35
1, 2253, Note_on_c, 0, 52, 0
1, 2285, Note_on_c, 0, 28, 28
1, 2349, Note_on_c, 0, 28, 0
1, 2349, Note_on_c, 0, 39, 28
1, 2413, Note_on_c, 0, 39, 0
1, 2413, Note_on_c, 0, 40, 28
1, 2477, Note_on_c, 0, 40, 0
1, 2477, Note_on_c, 0, 52, 35
1, 2510, Note_on_c, 0, 52, 0
1, 2542, Note_on_c, 0, 28, 27
1, 2606, Note_on_c, 0, 28, 0
1, 2606, Note_on_c, 0, 39, 27
1, 2670, Note_on_c, 0, 39, 0
1, 2670, Note_on_c, 0, 40, 27
1, 2701, Control_c, 0, 91, 127
1, 2734, Note_on_c, 0, 40, 0
1, 2734, Note_on_c, 0, 52, 35
1, 2766, Note_on_c, 0, 52, 0
1, 2798, Note_on_c, 0, 29, 28
1, 2881, Note_on_c, 0, 29, 0
1, 2881, Note_on_c, 0, 40, 28
1, 2902, Control_c, 0, 64, 0
1, 2927, Control_c, 0, 64, 127
1, 2947, Note_on_c, 0, 40, 0
1, 2947, Note_on_c, 0, 41, 28
1, 3013, Note_on_c, 0, 41, 0
1, 3013, Note_on_c, 0, 53, 35
1, 3046, Note_on_c, 0, 53, 0
1, 3079, Note_on_c, 0, 29, 27
1, 3145, Note_on_c, 0, 29, 0
1, 3145, Note_on_c, 0, 40, 27
1, 3210, Note_on_c, 0, 40, 0
1, 3210, Note_on_c, 0, 41, 27
1, 3275, Note_on_c, 0, 41, 0
1, 3275, Note_on_c, 0, 53, 35
1, 3308, Note_on_c, 0, 53, 0
1, 3340, Note_on_c, 0, 29, 28
1, 3405, Note_on_c, 0, 29, 0
1, 3405, Note_on_c, 0, 40, 28
1, 3469, Note_on_c, 0, 40, 0
1, 3469, Note_on_c, 0, 41, 28
1, 3532, Note_on_c, 0, 41, 0
1, 3532, Note_on_c, 0, 53, 35
1, 3563, Note_on_c, 0, 53, 0
1, 3595, Note_on_c, 0, 29, 27
1, 3657, Note_on_c, 0, 29, 0
1, 3657, Note_on_c, 0, 40, 28
1, 3719, Note_on_c, 0, 40, 0
1, 3719, Note_on_c, 0, 41, 28
1, 3782, Note_on_c, 0, 41, 0
1, 3782, Note_on_c, 0, 53, 35
1, 3813, Note_on_c, 0, 53, 0
1, 3845, Note_on_c, 0, 29, 27
1, 3908, Note_on_c, 0, 29, 0
1, 3908, Note_on_c, 0, 40, 27
1, 3971, Note_on_c, 0, 40, 0
1, 3971, Note_on_c, 0, 41, 27
1, 4033, Note_on_c, 0, 41, 0
1, 4033, Note_on_c, 0, 53, 36
1, 4065, Note_on_c, 0, 53, 0
1, 4096, Note_on_c, 0, 29, 29
1, 4158, Note_on_c, 0, 29, 0
1, 4158, Note_on_c, 0, 40, 29
1, 4220, Note_on_c, 0, 40, 0
1, 4220, Note_on_c, 0, 41, 29
1, 4283, Note_on_c, 0, 41, 0
1, 4283, Note_on_c, 0, 53, 38
1, 4314, Note_on_c, 0, 53, 0
1, 4345, Note_on_c, 0, 29, 29
1, 4408, Note_on_c, 0, 29, 0
1, 4408, Note_on_c, 0, 40, 30
1, 4471, Note_on_c, 0, 40, 0
1, 4471, Note_on_c, 0, 41, 31
1, 4534, Note_on_c, 0, 41, 0
1, 4534, Note_on_c, 0, 53, 39
1, 4565, Note_on_c, 0, 53, 0
1, 4597, Note_on_c, 0, 29, 30
1, 4662, Note_on_c, 0, 29, 0
1, 4662, Note_on_c, 0, 40, 32
1, 4726, Note_on_c, 0, 40, 0
1, 4726, Note_on_c, 0, 41, 32
1, 4791, Note_on_c, 0, 41, 0
1, 4791, Note_on_c, 0, 53, 41
1, 4823, Note_on_c, 0, 53, 0
1, 4856, Note_on_c, 0, 32, 32
1, 4934, Note_on_c, 0, 32, 0
1, 4934, Note_on_c, 0, 43, 32
1, 4951, Control_c, 0, 64, 0
1, 4978, Control_c, 0, 64, 127
1, 4999, Note_on_c, 0, 43, 0
1, 4999, Note_on_c, 0, 44, 32
1, 5064, Note_on_c, 0, 44, 0
1, 5064, Note_on_c, 0, 56, 43
1, 5096, Note_on_c, 0, 56, 0
1, 5128, Note_on_c, 0, 32, 34
1, 5191, Note_on_c, 0, 32, 0
1, 5191, Note_on_c, 0, 43, 34
1, 5255, Note_on_c, 0, 43, 0
1, 5255, Note_on_c, 0, 44, 34
1, 5318, Note_on_c, 0, 44, 0
1, 5318, Note_on_c, 0, 56, 44
1, 5349, Note_on_c, 0, 56, 0
1, 5381, Note_on_c, 0, 32, 34
1, 5444, Note_on_c, 0, 32, 0
1, 5444, Note_on_c, 0, 43, 35
1, 5508, Note_on_c, 0, 43, 0
1, 5508, Note_on_c, 0, 44, 36
1, 5570, Note_on_c, 0, 44, 0
1, 5570, Note_on_c, 0, 56, 46
1, 5601, Note_on_c, 0, 56, 0
1, 5631, Note_on_c, 0, 32, 35
1, 5694, Note_on_c, 0, 32, 0
1, 5694, Note_on_c, 0, 43, 37
1, 5757, Note_on_c, 0, 43, 0
1, 5757, Note_on_c, 0, 44, 37
1, 5820, Note_on_c, 0, 44, 0
1, 5820, Note_on_c, 0, 56, 48
1, 5851, Note_on_c, 0, 56, 0
1, 5883, Note_on_c, 0, 33, 37
1, 5962, Note_on_c, 0, 33, 0
1, 5962, Note_on_c, 0, 44, 37
1, 5968, Control_c, 0, 64, 0
1, 5988, Control_c, 0, 64, 127
1, 6026, Note_on_c, 0, 44, 0
1, 6026, Note_on_c, 0, 45, 37
1, 6089, Note_on_c, 0, 45, 0
1, 6089, Note_on_c, 0, 57, 49
1, 6121, Note_on_c, 0, 57, 0
1, 6153, Note_on_c, 0, 33, 39
1, 6216, Note_on_c, 0, 33, 0
1, 6216, Note_on_c, 0, 44, 39
1, 6278, Note_on_c, 0, 44, 0
1, 6278, Note_on_c, 0, 45, 40
1, 6340, Note_on_c, 0, 45, 0
1, 6340, Note_on_c, 0, 57, 51
1, 6370, Note_on_c, 0, 57, 0
1, 6401, Note_on_c, 0, 33, 39
1, 6462, Note_on_c, 0, 33, 0
1, 6462, Note_on_c, 0, 44, 41
1, 6523, Note_on_c, 0, 44, 0
1, 6523, Note_on_c, 0, 45, 41
1, 6584, Note_on_c, 0, 45, 0
1, 6584, Note_on_c, 0, 57, 53
1, 6615, Note_on_c, 0, 57, 0
1, 6646, Note_on_c, 0, 33, 40
1, 6707, Note_on_c, 0, 33, 0
1, 6707, Note_on_c, 0, 44, 42
1, 6769, Note_on_c, 0, 44, 0
1, 6769, Note_on_c, 0, 45, 42
1, 6831, Note_on_c, 0, 45, 0
1, 6831, Note_on_c, 0, 57, 55
1, 6862, Note_on_c, 0, 57, 0
1, 6893, Note_on_c, 0, 34, 42
1, 6973, Note_on_c, 0, 34, 0
1, 6973, Note_on_c, 0, 45, 42
1, 6981, Control_c, 0, 64, 0
1, 7004, Control_c, 0, 64, 127
1, 7035, Note_on_c, 0, 45, 0
1, 7035, Note_on_c, 0, 46, 43
1, 7096, Note_on_c, 0, 46, 0
1, 7096, Note_on_c, 0, 58, 57
1, 7127, Note_on_c, 0, 58, 0
1, 7158, Note_on_c, 0, 34, 45
1, 7219, Note_on_c, 0, 34, 0
1, 7219, Note_on_c, 0, 45, 45
1, 7281, Note_on_c, 0, 45, 0
1, 7281, Note_on_c, 0, 46, 45
1, 7341, Note_on_c, 0, 46, 0
1, 7341, Note_on_c, 0, 58, 58
1, 7372, Note_on_c, 0, 58, 0
1, 7402, Note_on_c, 0, 37, 45
1, 7463, Note_on_c, 0, 37, 0
1, 7463, Note_on_c, 0, 48, 46
1, 7470, Control_c, 0, 64, 0
1, 7487, Control_c, 0, 64, 127
1, 7523, Note_on_c, 0, 48, 0
1, 7523, Note_on_c, 0, 49, 47
1, 7584, Note_on_c, 0, 49, 0
1, 7584, Note_on_c, 0, 61, 60
1, 7615, Note_on_c, 0, 61, 0
1, 7645, Note_on_c, 0, 37, 46
1, 7706, Note_on_c, 0, 37, 0
1, 7706, Note_on_c, 0, 48, 48
1, 7767, Note_on_c, 0, 48, 0
1, 7767, Note_on_c, 0, 49, 48
1, 7827, Note_on_c, 0, 49, 0
1, 7827, Note_on_c, 0, 61, 62
1, 7857, Note_on_c, 0, 61, 0
1, 7887, Note_on_c, 0, 38, 47
1, 7947, Note_on_c, 0, 38, 0
1, 7947, Note_on_c, 0, 49, 48
1, 7951, Control_c, 0, 64, 0
1, 7965, Control_c, 0, 64, 127
1, 8007, Note_on_c, 0, 49, 0
1, 8007, Note_on_c, 0, 50, 48
1, 8066, Note_on_c, 0, 50, 0
1, 8066, Note_on_c, 0, 62, 63
1, 8096, Note_on_c, 0, 62, 0
1, 8125, Note_on_c, 0, 38, 50
1, 8186, Note_on_c, 0, 38, 0
1, 8186, Note_on_c, 0, 49, 50
1, 8246, Note_on_c, 0, 49, 0
1, 8246, Note_on_c, 0, 50, 51
1, 8306, Note_on_c, 0, 50, 0
1, 8306, Note_on_c, 0, 62, 65
1, 8336, Note_on_c, 0, 62, 0
1, 8366, Note_on_c, 0, 39, 50
1, 8426, Note_on_c, 0, 39, 0
1, 8426, Note_on_c, 0, 50, 52
1, 8446, Control_c, 0, 64, 0
1, 8459, Control_c, 0, 64, 127
1, 8485, Note_on_c, 0, 50, 0
1, 8485, Note_on_c, 0, 51, 52
1, 8545, Note_on_c, 0, 51, 0
1, 8545, Note_on_c, 0, 63, 67
1, 8575, Note_on_c, 0, 63, 0
1, 8605, Note_on_c, 0, 39, 51
1, 8665, Note_on_c, 0, 39, 0
1, 8665, Note_on_c, 0, 50, 53
1, 8726, Note_on_c, 0, 50, 0
1, 8726, Note_on_c, 0, 51, 53
1, 8786, Note_on_c, 0, 51, 0
1, 8786, Note_on_c, 0, 63, 68
1, 8816, Note_on_c, 0, 63, 0
1, 8847, Note_on_c, 0, 40, 52
1, 8907, Note_on_c, 0, 40, 0
1, 8907, Note_on_c, 0, 51, 53
1, 8921, Control_c, 0, 64, 0
1, 8934, Control_c, 0, 64, 127
1, 8967, Note_on_c, 0, 51, 0
1, 8967, Note_on_c, 0, 52, 53
1, 9027, Note_on_c, 0, 52, 0
1, 9027, Note_on_c, 0, 64, 70
1, 9056, Note_on_c, 0, 64, 0
1, 9086, Note_on_c, 0, 41, 55
1, 9146, Note_on_c, 0, 41, 0
1, 9146, Note_on_c, 0, 52, 56
1, 9205, Note_on_c, 0, 52, 0
1, 9205, Note_on_c, 0, 53, 56
1, 9264, Note_on_c, 0, 53, 0
1, 9264, Note_on_c, 0, 65, 72
1, 9294, Note_on_c, 0, 65, 0
1, 9323, Note_on_c, 0, 44, 55
1, 9382, Note_on_c, 0, 44, 0
1, 9382, Note_on_c, 0, 55, 57
1, 9441, Note_on_c, 0, 55, 0
1, 9441, Note_on_c, 0, 56, 57
1, 9500, Note_on_c, 0, 56, 0
1, 9500, Note_on_c, 0, 68, 73
1, 9530, Note_on_c, 0, 68, 0
1, 9559, Note_on_c, 0, 45, 56
1, 9618, Note_on_c, 0, 45, 0
1, 9618, Note_on_c, 0, 56, 58
1, 9677, Note_on_c, 0, 56, 0
1, 9677, Note_on_c, 0, 57, 59
1, 9737, Note_on_c, 0, 57, 0
1, 9737, Note_on_c, 0, 69, 75
1, 9766, Note_on_c, 0, 69, 0
1, 9796, Note_on_c, 0, 46, 58
1, 9855, Note_on_c, 0, 46, 0
1, 9855, Note_on_c, 0, 57, 58
1, 9863, Control_c, 0, 64, 0
1, 9878, Control_c, 0, 64, 127
1, 9913, Note_on_c, 0, 57, 0
1, 9913, Note_on_c, 0, 58, 58
1, 9971, Note_on_c, 0, 58, 0
1, 9971, Note_on_c, 0, 70, 77
1, 10000, Note_on_c, 0, 70, 0
1, 10029, Note_on_c, 0, 49, 61
1, 10088, Note_on_c, 0, 49, 0
1, 10088, Note_on_c, 0, 60, 61
1, 10146, Note_on_c, 0, 60, 0
1, 10146, Note_on_c, 0, 61, 62
1, 10204, Note_on_c, 0, 61, 0
1, 10204, Note_on_c, 0, 73, 79
1, 10233, Note_on_c, 0, 73, 0
1, 10261, Note_on_c, 0, 50, 60
1, 10319, Note_on_c, 0, 50, 0
1, 10319, Note_on_c, 0, 61, 63
1, 10378, Note_on_c, 0, 61, 0
1, 10378, Note_on_c, 0, 62, 63
1, 10435, Note_on_c, 0, 62, 0
1, 10435, Note_on_c, 0, 74, 81
1, 10464, Note_on_c, 0, 74, 0
1, 10493, Note_on_c, 0, 51, 62
1, 10550, Note_on_c, 0, 51, 0
1, 10550, Note_on_c, 0, 62, 64
1, 10607, Note_on_c, 0, 62, 0
1, 10607, Note_on_c, 0, 63, 64
1, 10665, Note_on_c, 0, 63, 0
1, 10665, Note_on_c, 0, 75, 82
1, 10694, Note_on_c, 0, 75, 0
1, 10723, Note_on_c, 0, 52, 63
1, 10781, Note_on_c, 0, 52, 0
1, 10781, Note_on_c, 0, 63, 65
1, 10838, Note_on_c, 0, 63, 0
1, 10838, Note_on_c, 0, 64, 66
1, 10896, Note_on_c, 0, 64, 0
1, 10896, Note_on_c, 0, 76, 84
1, 10934, Note_on_c, 0, 76, 0
1, 10937, Control_c, 0, 64, 0
1, 11046, Note_on_c, 0, 41, 56
1, 11046, Note_on_c, 0, 53, 56
1, 11051, Control_c, 0, 64, 127
1, 11108, Note_on_c, 0, 65, 64
1, 11108, Note_on_c, 0, 77, 64
1, 11108, Note_on_c, 0, 53, 0
1, 11111, Note_on_c, 0, 41, 0
1, 11169, Note_on_c, 0, 77, 0
1, 11169, Note_on_c, 0, 65, 0
1, 11169, Note_on_c, 0, 44, 58
1, 11172, Note_on_c, 0, 56, 58
1, 11231, Note_on_c, 0, 68, 65
1, 11231, Note_on_c, 0, 80, 65
1, 11231, Note_on_c, 0, 56, 0
1, 11234, Note_on_c, 0, 44, 0
1, 11292, Note_on_c, 0, 80, 0
1, 11292, Note_on_c, 0, 68, 0
1, 11292, Note_on_c, 0, 45, 59
1, 11295, Note_on_c, 0, 57, 59
1, 11353, Note_on_c, 0, 81, 66
1, 11353, Note_on_c, 0, 69, 66
1, 11353, Note_on_c, 0, 57, 0
1, 11356, Note_on_c, 0, 45, 0
1, 11414, Note_on_c, 0, 69, 0
1, 11414, Note_on_c, 0, 81, 0
1, 11414, Note_on_c, 0, 46, 61
1, 11417, Note_on_c, 0, 58, 61
1, 11474, Note_on_c, 0, 82, 67
1, 11474, Note_on_c, 0, 70, 67
1, 11474, Note_on_c, 0, 58, 0
1, 11477, Note_on_c, 0, 46, 0
1, 11534, Note_on_c, 0, 70, 0
1, 11534, Note_on_c, 0, 82, 0
1, 11534, Note_on_c, 0, 49, 63
1, 11537, Note_on_c, 0, 61, 63
1, 11594, Note_on_c, 0, 85, 68
1, 11594, Note_on_c, 0, 73, 68
1, 11594, Note_on_c, 0, 61, 0
1, 11597, Note_on_c, 0, 49, 0
1, 11654, Note_on_c, 0, 73, 0
1, 11654, Note_on_c, 0, 85, 0
1, 11654, Note_on_c, 0, 50, 64
1, 11657, Note_on_c, 0, 62, 64
1, 11713, Note_on_c, 0, 74, 69
1, 11713, Note_on_c, 0, 86, 69
1, 11713, Note_on_c, 0, 62, 0
1, 11716, Note_on_c, 0, 50, 0
1, 11772, Note_on_c, 0, 86, 0
1, 11772, Note_on_c, 0, 74, 0
1, 11772, Note_on_c, 0, 51, 66
1, 11775, Note_on_c, 0, 63, 66
1, 11831, Note_on_c, 0, 87, 71
1, 11831, Note_on_c, 0, 75, 71
1, 11831, Note_on_c, 0, 63, 0
1, 11834, Note_on_c, 0, 51, 0
1, 11889, Note_on_c, 0, 75, 0
1, 11889, Note_on_c, 0, 87, 0
1, 11889, Note_on_c, 0, 52, 68
1, 11892, Note_on_c, 0, 64, 68
1, 11948, Note_on_c, 0, 88, 72
1, 11948, Note_on_c, 0, 76, 72
1, 11948, Note_on_c, 0, 64, 0
1, 11951, Note_on_c, 0, 52, 0
1, 12006, Note_on_c, 0, 76, 0
1, 12006, Note_on_c, 0, 88, 0
1, 12006, Note_on_c, 0, 53, 69
1, 12009, Note_on_c, 0, 65, 69
1, 12064, Note_on_c, 0, 89, 73
1, 12064, Note_on_c, 0, 77, 73
1, 12064, Note_on_c, 0, 65, 0
1, 12067, Note_on_c, 0, 53, 0
1, 12121, Note_on_c, 0, 77, 0
1, 12121, Note_on_c, 0, 89, 0
1, 12121, Note_on_c, 0, 68, 71
1, 12124, Note_on_c, 0, 56, 71
1, 12179, Note_on_c, 0, 92, 74
1, 12179, Note_on_c, 0, 80, 74
1, 12179, Note_on_c, 0, 56, 0
1, 12182, Note_on_c, 0, 68, 0
1, 12236, Note_on_c, 0, 80, 0
1, 12236, Note_on_c, 0, 92, 0
1, 12236, Note_on_c, 0, 57, 73
1, 12239, Note_on_c, 0, 69, 73
1, 12293, Note_on_c, 0, 93, 75
1, 12293, Note_on_c, 0, 81, 75
1, 12293, Note_on_c, 0, 69, 0
1, 12296, Note_on_c, 0, 57, 0
1, 12349, Note_on_c, 0, 81, 0
1, 12349, Note_on_c, 0, 93, 0
1, 12349, Note_on_c, 0, 70, 74
1, 12352, Note_on_c, 0, 58, 74
1, 12406, Note_on_c, 0, 94, 76
1, 12406, Note_on_c, 0, 82, 76
1, 12406, Note_on_c, 0, 58, 0
1, 12409, Note_on_c, 0, 70, 0
1, 12463, Note_on_c, 0, 82, 0
1, 12463, Note_on_c, 0, 94, 0
1, 12463, Note_on_c, 0, 61, 76
1, 12466, Note_on_c, 0, 73, 76
1, 12520, Note_on_c, 0, 97, 77
1, 12520, Note_on_c, 0, 85, 77
1, 12520, Note_on_c, 0, 73, 0
1, 12523, Note_on_c, 0, 61, 0
1, 12577, Note_on_c, 0, 85, 0
1, 12577, Note_on_c, 0, 97, 0
1, 12577, Note_on_c, 0, 62, 78
1, 12580, Note_on_c, 0, 74, 78
1, 12634, Note_on_c, 0, 86, 78
1, 12634, Note_on_c, 0, 98, 78
1, 12634, Note_on_c, 0, 74, 0
1, 12637, Note_on_c, 0, 62, 0
1, 12691, Note_on_c, 0, 98, 0
1, 12691, Note_on_c, 0, 86, 0
1, 12691, Note_on_c, 0, 63, 79
1, 12694, Note_on_c, 0, 75, 79
1, 12748, Note_on_c, 0, 87, 80
1, 12748, Note_on_c, 0, 99, 80
1, 12748, Note_on_c, 0, 75, 0
1, 12751, Note_on_c, 0, 63, 0
1, 12804, Note_on_c, 0, 99, 0
1, 12804, Note_on_c, 0, 87, 0
1, 12804, Note_on_c, 0, 64, 81
1, 12807, Note_on_c, 0, 76, 81
1, 12861, Note_on_c, 0, 88, 81
1, 12861, Note_on_c, 0, 100, 81
1, 12861, Note_on_c, 0, 76, 0
1, 12864, Note_on_c, 0, 64, 0
1, 12918, Note_on_c, 0, 100, 0
1, 12918, Note_on_c, 0, 88, 0
1, 12918, Note_on_c, 0, 65, 83
1, 12921, Note_on_c, 0, 77, 83
1, 12975, Note_on_c, 0, 89, 82
1, 12975, Note_on_c, 0, 101, 82
1, 12975, Note_on_c, 0, 77, 0
1, 12978, Note_on_c, 0, 65, 0
1, 13032, Note_on_c, 0, 101, 0
1, 13032, Note_on_c, 0, 89, 0
1, 13104, Control_c, 0, 64, 0
1, 14405, Note_on_c, 0, 68, 82
1, 14405, Note_on_c, 0, 56, 69
1, 14405, Note_on_c, 0, 59, 69
1, 14408, Note_on_c, 0, 62, 69
1, 14408, Note_on_c, 0, 53, 65
1, 14408, Note_on_c, 0, 41, 55
1, 14411, Note_on_c, 0, 47, 55
1, 14411, Note_on_c, 0, 50, 55
1, 14411, Control_c, 0, 64, 0
1, 14554, Note_on_c, 0, 62, 0
1, 14554, Note_on_c, 0, 68, 0
1, 14554, Note_on_c, 0, 56, 0
1, 14557, Note_on_c, 0, 59, 0
1, 14557, Note_on_c, 0, 50, 0
1, 14557, Note_on_c, 0, 53, 0
1, 14560, Note_on_c, 0, 41, 0
1, 14560, Note_on_c, 0, 47, 0
1, 14704, Note_on_c, 0, 69, 90
1, 14704, Note_on_c, 0, 57, 76
1, 14704, Note_on_c, 0, 60, 76
1, 14707, Note_on_c, 0, 51, 70
1, 14707, Note_on_c, 0, 39, 59
1, 14707, Note_on_c, 0, 45, 59
1, 14710, Note_on_c, 0, 48, 59
1, 14852, Note_on_c, 0, 60, 0
1, 14852, Note_on_c, 0, 57, 0
1, 14852, Note_on_c, 0, 69, 0
1, 14855, Note_on_c, 0, 48, 0
1, 14855, Note_on_c, 0, 51, 0
1, 14855, Note_on_c, 0, 39, 0
1, 14858, Note_on_c, 0, 45, 0
1, 15000, Note_on_c, 0, 68, 83
1, 15000, Note_on_c, 0, 56, 70
1, 15072, Note_on_c, 0, 56, 0
1, 15072, Note_on_c, 0, 68, 0
1, 15144, Note_on_c, 0, 71, 76
1, 15144, Note_on_c, 0, 59, 64
1, 15219, Note_on_c, 0, 59, 0
1, 15219, Note_on_c, 0, 71, 0
1, 15295, Note_on_c, 0, 69, 84
1, 15295, Note_on_c, 0, 57, 71
1, 15295, Note_on_c, 0, 61, 71
1, 15298, Note_on_c, 0, 49, 69
1, 15298, Note_on_c, 0, 37, 58
1, 15298, Note_on_c, 0, 42, 58
1, 15301, Note_on_c, 0, 45, 58
1, 15441, Note_on_c, 0, 61, 0
1, 15441, Note_on_c, 0, 57, 0
1, 15441, Note_on_c, 0, 69, 0
1, 15444, Note_on_c, 0, 45, 0
1, 15444, Note_on_c, 0, 49, 0
1, 15444, Note_on_c, 0, 37, 0
1, 15447, Note_on_c, 0, 42, 0
1, 15588, Note_on_c, 0, 68, 81
1, 15588, Note_on_c, 0, 56, 68
1, 15732, Note_on_c, 0, 56, 0
1, 15732, Note_on_c, 0, 68, 0
1, 15732, Note_on_c, 0, 71, 75
1, 15735, Note_on_c, 0, 59, 63
1, 15808, Note_on_c, 0, 59, 0
1, 15808, Note_on_c, 0, 71, 0
1, 15884, Note_on_c, 0, 63, 71
1, 15884, Note_on_c, 0, 69, 84
1, 15884, Note_on_c, 0, 57, 71
1, 15887, Note_on_c, 0, 48, 69
1, 15887, Note_on_c, 0, 36, 58
1, 15887, Note_on_c, 0, 42, 58
1, 15890, Note_on_c, 0, 45, 58
1, 15958, Note_on_c, 0, 57, 0
1, 15958, Note_on_c, 0, 69, 0
1, 15958, Note_on_c, 0, 63, 0
1, 15961, Note_on_c, 0, 45, 0
1, 15961, Note_on_c, 0, 48, 0
1, 15961, Note_on_c, 0, 36, 0
1, 15964, Note_on_c, 0, 42, 0
1, 16183, Note_on_c, 0, 68, 75
1, 16183, Note_on_c, 0, 56, 63
1, 16257, Note_on_c, 0, 56, 0
1, 16257, Note_on_c, 0, 68, 0
1, 16480, Note_on_c, 0, 63, 70
1, 16480, Note_on_c, 0, 69, 83
1, 16480, Note_on_c, 0, 57, 70
1, 16483, Note_on_c, 0, 42, 69
1, 16483, Note_on_c, 0, 47, 69
1, 16483, Note_on_c, 0, 35, 58
1, 16486, Note_on_c, 0, 39, 58
1, 16626, Note_on_c, 0, 39, 0
1, 16626, Note_on_c, 0, 42, 0
1, 16626, Note_on_c, 0, 47, 0
1, 16629, Note_on_c, 0, 35, 0
1, 17064, Note_on_c, 0, 57, 0
1, 17064, Note_on_c, 0, 69, 0
1, 17064, Note_on_c, 0, 63, 0
1, 17067, Note_on_c, 0, 66, 70
1, 17067, Note_on_c, 0, 69, 70
1, 17067, Note_on_c, 0, 57, 59
1, 17070, Note_on_c, 0, 61, 59
1, 17070, Note_on_c, 0, 45, 59
1, 17070, Note_on_c, 0, 33, 50
1, 17073, Note_on_c, 0, 37, 50
1, 17073, Note_on_c, 0, 42, 50
1, 17073, Control_c, 0, 64, 127
1, 17209, Note_on_c, 0, 61, 0
1, 17209, Note_on_c, 0, 66, 0
1, 17209, Note_on_c, 0, 69, 0
1, 17212, Note_on_c, 0, 57, 0
1, 17212, Note_on_c, 0, 68, 65
1, 17212, Note_on_c, 0, 56, 55
1, 17215, Note_on_c, 0, 42, 0
1, 17215, Note_on_c, 0, 45, 0
1, 17215, Note_on_c, 0, 33, 0
1, 17218, Note_on_c, 0, 37, 0
1, 17351, Note_on_c, 0, 56, 0
1, 17351, Note_on_c, 0, 68, 0
1, 17351, Note_on_c, 0, 69, 71
1, 17354, Note_on_c, 0, 57, 60
1, 17361, Control_c, 0, 64, 0
1, 17438, Control_c, 0, 64, 127
1, 17492, Note_on_c, 0, 57, 0
1, 17492, Note_on_c, 0, 69, 0
1, 17492, Note_on_c, 0, 71, 77
1, 17495, Note_on_c, 0, 59, 65
1, 17645, Note_on_c, 0, 59, 0
1, 17645, Note_on_c, 0, 71, 0
1, 17645, Note_on_c, 0, 72, 81
1, 17648, Note_on_c, 0, 60, 68
1, 17648, Note_on_c, 0, 63, 68
1, 17648, Note_on_c, 0, 66, 68
1, 17651, Note_on_c, 0, 44, 64
1, 17651, Note_on_c, 0, 32, 54
1, 17651, Note_on_c, 0, 36, 54
1, 17654, Note_on_c, 0, 39, 54
1, 17654, Control_c, 0, 64, 0
1, 17747, Control_c, 0, 64, 127
1, 17798, Note_on_c, 0, 39, 0
1, 17798, Note_on_c, 0, 44, 0
1, 17798, Note_on_c, 0, 32, 0
1, 17801, Note_on_c, 0, 36, 0
1, 18258, Note_on_c, 0, 66, 0
1, 18258, Note_on_c, 0, 72, 0
1, 18258, Note_on_c, 0, 60, 0
1, 18261, Note_on_c, 0, 63, 0
1, 18261, Note_on_c, 0, 72, 75
1, 18261, Note_on_c, 0, 60, 63
1, 18264, Note_on_c, 0, 63, 63
1, 18264, Note_on_c, 0, 43, 62
1, 18264, Note_on_c, 0, 31, 52
1, 18267, Note_on_c, 0, 36, 52
1, 18267, Note_on_c, 0, 39, 52
1, 18267, Control_c, 0, 64, 0
1, 18327, Control_c, 0, 64, 127
1, 18403, Note_on_c, 0, 63, 0
1, 18403, Note_on_c, 0, 60, 0
1, 18403, Note_on_c, 0, 72, 0
1, 18406, Note_on_c, 0, 71, 72
1, 18406, Note_on_c, 0, 59, 61
1, 18406, Note_on_c, 0, 39, 0
1, 18409, Note_on_c, 0, 43, 0
1, 18409, Note_on_c, 0, 31, 0
1, 18409, Note_on_c, 0, 36, 0
1, 18545, Note_on_c, 0, 59, 0
1, 18545, Note_on_c, 0, 71, 0
1, 18545, Note_on_c, 0, 69, 73
1, 18548, Note_on_c, 0, 57, 62
1, 18554, Control_c, 0, 64, 0
1, 18650, Control_c, 0, 64, 127
1, 18692, Note_on_c, 0, 57, 0
1, 18692, Note_on_c, 0, 69, 0
1, 18692, Note_on_c, 0, 68, 75
1, 18695, Note_on_c, 0, 56, 63
1, 18845, Note_on_c, 0, 56, 0
1, 18845, Note_on_c, 0, 68, 0
1, 18845, Note_on_c, 0, 69, 83
1, 18848, Note_on_c, 0, 63, 70
1, 18848, Note_on_c, 0, 57, 70
1, 18848, Note_on_c, 0, 42, 66
1, 18851, Note_on_c, 0, 30, 55
1, 18851, Note_on_c, 0, 36, 55
1, 18851, Note_on_c, 0, 39, 55
1, 18888, Control_c, 0, 64, 0
1, 18961, Control_c, 0, 64, 127
1, 19253, Control_c, 0, 64, 0
1, 19303, Note_on_c, 0, 57, 0
1, 19303, Note_on_c, 0, 63, 0
1, 19303, Note_on_c, 0, 69, 0
1, 19306, Note_on_c, 0, 72, 71
1, 19306, Note_on_c, 0, 60, 59
1, 19306, Note_on_c, 0, 39, 0
1, 19309, Note_on_c, 0, 42, 0
1, 19309, Note_on_c, 0, 30, 0
1, 19309, Note_on_c, 0, 36, 0
1, 19312, Note_on_c, 0, 48, 51
1, 19312, Note_on_c, 0, 36, 46
1, 19376, Note_on_c, 0, 60, 0
1, 19376, Note_on_c, 0, 72, 0
1, 19376, Note_on_c, 0, 36, 0
1, 19379, Note_on_c, 0, 48, 0
1, 19449, Note_on_c, 0, 71, 85
1, 19449, Note_on_c, 0, 59, 71
1, 19449, Note_on_c, 0, 47, 58
1, 19452, Note_on_c, 0, 35, 48
1, 19452, Control_c, 0, 64, 127
1, 19586, Note_on_c, 0, 59, 0
1, 19586, Note_on_c, 0, 71, 0
1, 19586, Note_on_c, 0, 69, 71
1, 19589, Note_on_c, 0, 57, 59
1, 19589, Note_on_c, 0, 35, 0
1, 19589, Note_on_c, 0, 47, 0
1, 19592, Note_on_c, 0, 45, 49
1, 19592, Note_on_c, 0, 33, 40
1, 19612, Control_c, 0, 64, 0
1, 19696, Note_on_c, 0, 57, 0
1, 19696, Note_on_c, 0, 69, 0
1, 19696, Note_on_c, 0, 33, 0
1, 19699, Note_on_c, 0, 45, 0
1, 19723, Note_on_c, 0, 67, 71
1, 19723, Note_on_c, 0, 55, 59
1, 19723, Note_on_c, 0, 43, 49
1, 19726, Note_on_c, 0, 31, 40
1, 19792, Note_on_c, 0, 55, 0
1, 19792, Note_on_c, 0, 67, 0
1, 19792, Note_on_c, 0, 31, 0
1, 19795, Note_on_c, 0, 43, 0
1, 19861, Note_on_c, 0, 71, 71
1, 19861, Note_on_c, 0, 59, 59
1, 19861, Note_on_c, 0, 47, 49
1, 19864, Note_on_c, 0, 35, 40
1, 19934, Note_on_c, 0, 59, 0
1, 19934, Note_on_c, 0, 71, 0
1, 19934, Note_on_c, 0, 35, 0
1, 19937, Note_on_c, 0, 47, 0
1, 20006, Note_on_c, 0, 69, 85
1, 20006, Note_on_c, 0, 57, 71
1, 20006, Note_on_c, 0, 45, 58
1, 20009, Note_on_c, 0, 33, 48
1, 20012, Control_c, 0, 64, 127
1, 20143, Note_on_c, 0, 57, 0
1, 20143, Note_on_c, 0, 69, 0
1, 20143, Note_on_c, 0, 67, 72
1, 20146, Note_on_c, 0, 55, 60
1, 20146, Note_on_c, 0, 33, 0
1, 20146, Note_on_c, 0, 45, 0
1, 20149, Note_on_c, 0, 43, 50
1, 20149, Note_on_c, 0, 31, 42
1, 20175, Control_c, 0, 64, 0
1, 20253, Note_on_c, 0, 55, 0
1, 20253, Note_on_c, 0, 67, 0
1, 20253, Note_on_c, 0, 31, 0
1, 20256, Note_on_c, 0, 43, 0
1, 20280, Note_on_c, 0, 65, 72
1, 20280, Note_on_c, 0, 53, 60
1, 20280, Note_on_c, 0, 41, 50
1, 20283, Note_on_c, 0, 29, 42
1, 20350, Note_on_c, 0, 53, 0
1, 20350, Note_on_c, 0, 65, 0
1, 20350, Note_on_c, 0, 29, 0
1, 20353, Note_on_c, 0, 41, 0
1, 20419, Note_on_c, 0, 69, 73
1, 20419, Note_on_c, 0, 57, 61
1, 20419, Note_on_c, 0, 45, 50
1, 20422, Note_on_c, 0, 33, 42
1, 20491, Note_on_c, 0, 57, 0
1, 20491, Note_on_c, 0, 69, 0
1, 20491, Note_on_c, 0, 33, 0
1, 20494, Note_on_c, 0, 45, 0
1, 20563, Note_on_c, 0, 67, 89
1, 20563, Note_on_c, 0, 55, 75
1, 20563, Note_on_c, 0, 43, 60
1, 20566, Note_on_c, 0, 31, 52
1, 20569, Control_c, 0, 64, 127
1, 20699, Note_on_c, 0, 55, 0
1, 20699, Note_on_c, 0, 67, 0
1, 20699, Note_on_c, 0, 65, 73
1, 20702, Note_on_c, 0, 53, 61
1, 20702, Note_on_c, 0, 31, 0
1, 20702, Note_on_c, 0, 43, 0
1, 20705, Note_on_c, 0, 41, 50
1, 20705, Note_on_c, 0, 29, 42
1, 20747, Control_c, 0, 64, 0
1, 20808, Note_on_c, 0, 53, 0
1, 20808, Note_on_c, 0, 65, 0
1, 20808, Note_on_c, 0, 29, 0
1, 20811, Note_on_c, 0, 41, 0
1, 20835, Note_on_c, 0, 64, 73
1, 20835, Note_on_c, 0, 52, 61
1, 20835, Note_on_c, 0, 40, 50
1, 20838, Note_on_c, 0, 28, 42
1, 20904, Note_on_c, 0, 52, 0
1, 20904, Note_on_c, 0, 64, 0
1, 20904, Note_on_c, 0, 28, 0
1, 20907, Note_on_c, 0, 40, 0
1, 20972, Note_on_c, 0, 67, 73
1, 20972, Note_on_c, 0, 55, 61
1, 20972, Note_on_c, 0, 43, 50
1, 20975, Note_on_c, 0, 31, 42
1, 21044, Note_on_c, 0, 55, 0
1, 21044, Note_on_c, 0, 67, 0
1, 21044, Note_on_c, 0, 31, 0
1, 21047, Note_on_c, 0, 43, 0
1, 21116, Note_on_c, 0, 65, 90
1, 21116, Note_on_c, 0, 53, 76
1, 21116, Note_on_c, 0, 41, 63
1, 21119, Note_on_c, 0, 29, 52
1, 21124, Control_c, 0, 64, 127
1, 21252, Note_on_c, 0, 53, 0
1, 21252, Note_on_c, 0, 65, 0
1, 21252, Note_on_c, 0, 64, 73
1, 21255, Note_on_c, 0, 52, 61
1, 21255, Note_on_c, 0, 29, 0
1, 21255, Note_on_c, 0, 41, 0
1, 21258, Note_on_c, 0, 40, 50
1, 21258, Note_on_c, 0, 28, 42
1, 21284, Control_c, 0, 64, 0
1, 21361, Note_on_c, 0, 52, 0
1, 21361, Note_on_c, 0, 64, 0
1, 21361, Note_on_c, 0, 28, 0
1, 21364, Note_on_c, 0, 40, 0
1, 21388, Note_on_c, 0, 63, 73
1, 21388, Note_on_c, 0, 51, 61
1, 21388, Note_on_c, 0, 39, 50
1, 21391, Note_on_c, 0, 27, 42
1, 21457, Note_on_c, 0, 51, 0
1, 21457, Note_on_c, 0, 63, 0
1, 21457, Note_on_c, 0, 27, 0
1, 21460, Note_on_c, 0, 39, 0
1, 21526, Note_on_c, 0, 65, 73
1, 21526, Note_on_c, 0, 53, 61
1, 21526, Note_on_c, 0, 41, 50
1, 21529, Note_on_c, 0, 29, 42
1, 21598, Note_on_c, 0, 53, 0
1, 21598, Note_on_c, 0, 65, 0
1, 21598, Note_on_c, 0, 29, 0
1, 21601, Note_on_c, 0, 41, 0
1, 21670, Note_on_c, 0, 65, 89
1, 21670, Note_on_c, 0, 53, 75
1, 21670, Note_on_c, 0, 41, 60
1, 21673, Note_on_c, 0, 29, 52
1, 21680, Control_c, 0, 64, 127
1, 21810, Note_on_c, 0, 53, 0
1, 21810, Note_on_c, 0, 65, 0
1, 21810, Note_on_c, 0, 64, 73
1, 21813, Note_on_c, 0, 52, 61
1, 21813, Note_on_c, 0, 29, 0
1, 21813, Note_on_c, 0, 41, 0
1, 21816, Note_on_c, 0, 40, 50
1, 21816, Note_on_c, 0, 28, 42
1, 21842, Control_c, 0, 64, 0
1, 21922, Note_on_c, 0, 52, 0
1, 21922, Note_on_c, 0, 64, 0
1, 21922, Note_on_c, 0, 28, 0
1, 21925, Note_on_c, 0, 40, 0
1, 21950, Note_on_c, 0, 64, 73
1, 21950, Note_on_c, 0, 52, 61
1, 21950, Note_on_c, 0, 40, 50
1, 21953, Note_on_c, 0, 28, 42
1, 22020, Note_on_c, 0, 52, 0
1, 22020, Note_on_c, 0, 64, 0
1, 22020, Note_on_c, 0, 28, 0
1, 22023, Note_on_c, 0, 40, 0
1, 22091, Note_on_c, 0, 63, 73
1, 22091, Note_on_c, 0, 51, 61
1, 22091, Note_on_c, 0, 39, 50
1, 22094, Note_on_c, 0, 27, 42
1, 22167, Note_on_c, 0, 51, 0
1, 22167, Note_on_c, 0, 63, 0
1, 22167, Note_on_c, 0, 27, 0
1, 22170, Note_on_c, 0, 39, 0
1, 22242, Note_on_c, 0, 65, 92
1, 22242, Note_on_c, 0, 53, 77
1, 22242, Note_on_c, 0, 41, 64
1, 22245, Note_on_c, 0, 29, 53
1, 22257, Control_c, 0, 64, 127
1, 22387, Note_on_c, 0, 53, 0
1, 22387, Note_on_c, 0, 65, 0
1, 22387, Note_on_c, 0, 64, 73
1, 22390, Note_on_c, 0, 52, 61
1, 22390, Note_on_c, 0, 29, 0
1, 22390, Note_on_c, 0, 41, 0
1, 22393, Note_on_c, 0, 40, 50
1, 22393, Note_on_c, 0, 28, 42
1, 22429, Control_c, 0, 64, 0
1, 22502, Note_on_c, 0, 52, 0
1, 22502, Note_on_c, 0, 64, 0
1, 22502, Note_on_c, 0, 28, 0
1, 22505, Note_on_c, 0, 40, 0
1, 22531, Note_on_c, 0, 64, 73
1, 22531, Note_on_c, 0, 52, 61
1, 22531, Note_on_c, 0, 40, 50
1, 22534, Note_on_c, 0, 28, 42
1, 22603, Note_on_c, 0, 52, 0
1, 22603, Note_on_c, 0, 64, 0
1, 22603, Note_on_c, 0, 28, 0
1, 22606, Note_on_c, 0, 40, 0
1, 22676, Note_on_c, 0, 63, 73
1, 22676, Note_on_c, 0, 51, 61
1, 22676, Note_on_c, 0, 39, 50
1, 22679, Note_on_c, 0, 27, 42
1, 22754, Note_on_c, 0, 51, 0
1, 22754, Note_on_c, 0, 63, 0
1, 22754, Note_on_c, 0, 27, 0
1, 22757, Note_on_c, 0, 39, 0
1, 22833, Note_on_c, 0, 64, 89
1, 22833, Note_on_c, 0, 52, 75
1, 22833, Note_on_c, 0, 40, 61
1, 22836, Note_on_c, 0, 28, 52
1, 22923, Control_c, 0, 64, 127
1, 23414, Note_on_c, 0, 52, 0
1, 23414, Note_on_c, 0, 64, 0
1, 23414, Note_on_c, 0, 76, 86
1, 23417, Note_on_c, 0, 71, 72
1, 23417, Note_on_c, 0, 68, 72
1, 23417, Note_on_c, 0, 64, 72
1, 23420, Note_on_c, 0, 28, 0
1, 23420, Note_on_c, 0, 40, 0
1, 23420, Note_on_c, 0, 52, 59
1, 23423, Note_on_c, 0, 47, 50
1, 23423, Note_on_c, 0, 44, 50
1, 23423, Note_on_c, 0, 40, 50
1, 23559, Note_on_c, 0, 64, 0
1, 23559, Note_on_c, 0, 76, 0
1, 23559, Note_on_c, 0, 71, 0
1, 23562, Note_on_c, 0, 68, 0
1, 23562, Note_on_c, 0, 40, 0
1, 23562, Note_on_c, 0, 52, 0
1, 23565, Note_on_c, 0, 47, 0
1, 23565, Note_on_c, 0, 44, 0
1, 23614, Control_c, 0, 64, 0
1, 23704, Note_on_c, 0, 76, 78
1, 23704, Note_on_c, 0, 52, 70
1, 23801, Note_on_c, 0, 76, 0
1, 23801, Note_on_c, 0, 78, 81
1, 23801, Note_on_c, 0, 52, 0
1, 23804, Note_on_c, 0, 54, 74
1, 23898, Note_on_c, 0, 78, 0
1, 23898, Note_on_c, 0, 80, 84
1, 23898, Note_on_c, 0, 54, 0
1, 23901, Note_on_c, 0, 56, 78
1, 23994, Note_on_c, 0, 80, 0
1, 23994, Note_on_c, 0, 81, 94
1, 23994, Note_on_c, 0, 69, 79
1, 23997, Note_on_c, 0, 56, 0
1, 23997, Note_on_c, 0, 57, 73
1, 23997, Note_on_c, 0, 45, 61
1, 24137, Note_on_c, 0, 69, 0
1, 24137, Note_on_c, 0, 81, 0
1, 24137, Note_on_c, 0, 45, 0
1, 24140, Note_on_c, 0, 57, 0
1, 24280, Note_on_c, 0, 71, 66
1, 24280, Note_on_c, 0, 80, 77
1, 24280, Note_on_c, 0, 68, 66
1, 24283, Note_on_c, 0, 53, 58
1, 24283, Note_on_c, 0, 41, 49
1, 24350, Note_on_c, 0, 68, 0
1, 24350, Note_on_c, 0, 80, 0
1, 24350, Note_on_c, 0, 71, 0
1, 24353, Note_on_c, 0, 41, 0
1, 24353, Note_on_c, 0, 53, 0
1, 24420, Note_on_c, 0, 74, 59
1, 24420, Note_on_c, 0, 83, 71
1, 24420, Note_on_c, 0, 71, 59
1, 24493, Note_on_c, 0, 71, 0
1, 24493, Note_on_c, 0, 83, 0
1, 24493, Note_on_c, 0, 74, 0
1, 24566, Note_on_c, 0, 81, 88
1, 24566, Note_on_c, 0, 69, 74
1, 24566, Note_on_c, 0, 72, 74
1, 24569, Note_on_c, 0, 57, 73
1, 24569, Note_on_c, 0, 45, 61
1, 24709, Note_on_c, 0, 72, 0
1, 24709, Note_on_c, 0, 69, 0
1, 24709, Note_on_c, 0, 81, 0
1, 24712, Note_on_c, 0, 45, 0
1, 24712, Note_on_c, 0, 57, 0
1, 24852, Note_on_c, 0, 71, 64
1, 24852, Note_on_c, 0, 80, 75
1, 24852, Note_on_c, 0, 68, 64
1, 24855, Note_on_c, 0, 52, 58
1, 24855, Note_on_c, 0, 40, 49
1, 24922, Note_on_c, 0, 68, 0
1, 24922, Note_on_c, 0, 80, 0
1, 24922, Note_on_c, 0, 71, 0
1, 24925, Note_on_c, 0, 40, 0
1, 24925, Note_on_c, 0, 52, 0
1, 24991, Note_on_c, 0, 74, 58
1, 24991, Note_on_c, 0, 83, 70
1, 24991, Note_on_c, 0, 71, 58
1, 25065, Note_on_c, 0, 71, 0
1, 25065, Note_on_c, 0, 83, 0
1, 25065, Note_on_c, 0, 74, 0
1, 25139, Note_on_c, 0, 72, 74
1, 25139, Note_on_c, 0, 81, 88
1, 25139, Note_on_c, 0, 69, 74
1, 25142, Note_on_c, 0, 57, 73
1, 25142, Note_on_c, 0, 45, 61
1, 25215, Note_on_c, 0, 69, 0
1, 25215, Note_on_c, 0, 81, 0
1, 25215, Note_on_c, 0, 72, 0
1, 25218, Note_on_c, 0, 45, 0
1, 25218, Note_on_c, 0, 57, 0
1, 25441, Note_on_c, 0, 71, 60
1, 25441, Note_on_c, 0, 80, 73
1, 25441, Note_on_c, 0, 68, 60
1, 25444, Note_on_c, 0, 50, 60
1, 25444, Note_on_c, 0, 38, 51
1, 25444, Note_on_c, 0, 41, 51
1, 25515, Note_on_c, 0, 68, 0
1, 25515, Note_on_c, 0, 80, 0
1, 25515, Note_on_c, 0, 71, 0
1, 25518, Note_on_c, 0, 41, 0
1, 25518, Note_on_c, 0, 38, 0
1, 25518, Note_on_c, 0, 50, 0
1, 25736, Note_on_c, 0, 72, 73
1, 25736, Note_on_c, 0, 81, 87
1, 25736, Note_on_c, 0, 69, 73
1, 25739, Note_on_c, 0, 57, 73
1, 25739, Note_on_c, 0, 45, 61
1, 25739, Note_on_c, 0, 52, 61
1, 26246, Note_on_c, 0, 36, 55
1, 26283, Note_on_c, 0, 36, 0
1, 26283, Note_on_c, 0, 48, 65
1, 26319, Note_on_c, 0, 69, 0
1, 26319, Note_on_c, 0, 81, 0
1, 26319, Note_on_c, 0, 72, 0
1, 26322, Note_on_c, 0, 89, 70
1, 26322, Note_on_c, 0, 93, 70
1, 26322, Note_on_c, 0, 81, 59
1, 26325, Note_on_c, 0, 84, 59
1, 26325, Note_on_c, 0, 48, 0
1, 26325, Note_on_c, 0, 52, 0
1, 26328, Note_on_c, 0, 45, 0
1, 26328, Note_on_c, 0, 57, 0
1, 26328, Note_on_c, 0, 69, 65
1, 26331, Note_on_c, 0, 57, 55
1, 26331, Note_on_c, 0, 60, 55
1, 26331, Note_on_c, 0, 65, 55
1, 26336, Control_c, 0, 64, 127
1, 26462, Note_on_c, 0, 84, 0
1, 26462, Note_on_c, 0, 89, 0
1, 26462, Note_on_c, 0, 93, 0
1, 26465, Note_on_c, 0, 81, 0
1, 26465, Note_on_c, 0, 92, 65
1, 26465, Note_on_c, 0, 80, 55
1, 26603, Note_on_c, 0, 80, 0
1, 26603, Note_on_c, 0, 92, 0
1, 26603, Note_on_c, 0, 93, 72
1, 26606, Note_on_c, 0, 81, 60
1, 26741, Note_on_c, 0, 81, 0
1, 26741, Note_on_c, 0, 93, 0
1, 26741, Note_on_c, 0, 95, 77
1, 26744, Note_on_c, 0, 83, 65
1, 26815, Note_on_c, 0, 65, 0
1, 26815, Note_on_c, 0, 69, 0
1, 26815, Note_on_c, 0, 57, 0
1, 26818, Note_on_c, 0, 60, 0
1, 26818, Note_on_c, 0, 36, 60
1, 26853, Note_on_c, 0, 36, 0
1, 26853, Note_on_c, 0, 48, 61
1, 26890, Note_on_c, 0, 83, 0
1, 26890, Note_on_c, 0, 95, 0
1, 26890, Note_on_c, 0, 96, 82
1, 26893, Note_on_c, 0, 84, 69
1, 26893, Note_on_c, 0, 88, 69
1, 26893, Note_on_c, 0, 48, 0
1, 26896, Note_on_c, 0, 72, 75
1, 26896, Note_on_c, 0, 60, 63
1, 26896, Note_on_c, 0, 64, 63
1, 26899, Note_on_c, 0, 67, 63
1, 26905, Control_c, 0, 64, 0
1, 26947, Control_c, 0, 64, 127
1, 27413, Note_on_c, 0, 67, 0
1, 27413, Note_on_c, 0, 72, 0
1, 27413, Note_on_c, 0, 60, 0
1, 27416, Note_on_c, 0, 64, 0
1, 27416, Note_on_c, 0, 33, 58
1, 27451, Note_on_c, 0, 33, 0
1, 27451, Note_on_c, 0, 45, 58
1, 27488, Note_on_c, 0, 88, 0
1, 27488, Note_on_c, 0, 84, 0
1, 27488, Note_on_c, 0, 96, 0
1, 27491, Note_on_c, 0, 96, 75
1, 27491, Note_on_c, 0, 84, 63
1, 27491, Note_on_c, 0, 89, 63
1, 27494, Note_on_c, 0, 45, 0
1, 27494, Note_on_c, 0, 65, 62
1, 27494, Note_on_c, 0, 53, 52
1, 27497, Note_on_c, 0, 62, 52
1, 27497, Note_on_c, 0, 57, 52
1, 27509, Control_c, 0, 64, 0
1, 27534, Control_c, 0, 64, 127
1, 27631, Note_on_c, 0, 89, 0
1, 27631, Note_on_c, 0, 84, 0
1, 27631, Note_on_c, 0, 96, 0
1, 27634, Note_on_c, 0, 95, 72
1, 27634, Note_on_c, 0, 83, 61
1, 27768, Note_on_c, 0, 83, 0
1, 27768, Note_on_c, 0, 95, 0
1, 27768, Note_on_c, 0, 93, 74
1, 27771, Note_on_c, 0, 81, 63
1, 27912, Note_on_c, 0, 81, 0
1, 27912, Note_on_c, 0, 93, 0
1, 27912, Note_on_c, 0, 92, 75
1, 27915, Note_on_c, 0, 80, 64
1, 27987, Note_on_c, 0, 57, 0
1, 27987, Note_on_c, 0, 65, 0
1, 27987, Note_on_c, 0, 53, 0
1, 27990, Note_on_c, 0, 62, 0
1, 27990, Note_on_c, 0, 33, 60
1, 28024, Note_on_c, 0, 33, 0
1, 28024, Note_on_c, 0, 45, 61
1, 28062, Note_on_c, 0, 80, 0
1, 28062, Note_on_c, 0, 92, 0
1, 28062, Note_on_c, 0, 84, 71
1, 28065, Note_on_c, 0, 93, 84
1, 28065, Note_on_c, 0, 88, 71
1, 28065, Note_on_c, 0, 81, 71
1, 28068, Note_on_c, 0, 45, 0
1, 28068, Note_on_c, 0, 69, 68
1, 28068, Note_on_c, 0, 57, 57
1, 28071, Note_on_c, 0, 60, 57
1, 28071, Note_on_c, 0, 64, 57
1, 28092, Control_c, 0, 64, 0
1, 28121, Control_c, 0, 64, 127
1, 28488, Control_c, 0, 64, 0
1, 28510, Note_on_c, 0, 81, 0
1, 28510, Note_on_c, 0, 84, 0
1, 28510, Note_on_c, 0, 93, 0
1, 28513, Note_on_c, 0, 88, 0
1, 28513, Note_on_c, 0, 96, 71
1, 28513, Note_on_c, 0, 84, 59
1, 28653, Note_on_c, 0, 84, 0
1, 28653, Note_on_c, 0, 96, 0
1, 28653, Note_on_c, 0, 95, 77
1, 28656, Note_on_c, 0, 83, 65
1, 28656, Note_on_c, 0, 64, 0
1, 28656, Note_on_c, 0, 69, 0
1, 28659, Note_on_c, 0, 57, 0
1, 28659, Note_on_c, 0, 60, 0
1, 28659, Note_on_c, 0, 47, 69
1, 28662, Note_on_c, 0, 35, 58
1, 28662, Control_c, 0, 64, 127
1, 28792, Note_on_c, 0, 83, 0
1, 28792, Note_on_c, 0, 95, 0
1, 28792, Note_on_c, 0, 93, 71
1, 28795, Note_on_c, 0, 81, 59
1, 28795, Note_on_c, 0, 35, 0
1, 28795, Note_on_c, 0, 47, 0
1, 28806, Control_c, 0, 64, 0
1, 28901, Note_on_c, 0, 81, 0
1, 28901, Note_on_c, 0, 93, 0
1, 28928, Note_on_c, 0, 92, 71
1, 28928, Note_on_c, 0, 80, 59
1, 28928, Note_on_c, 0, 68, 59
1, 28931, Note_on_c, 0, 59, 50
1, 28931, Note_on_c, 0, 64, 50
1, 28993, Note_on_c, 0, 80, 0
1, 28993, Note_on_c, 0, 92, 0
1, 28993, Note_on_c, 0, 64, 0
1, 28996, Note_on_c, 0, 59, 0
1, 28996, Note_on_c, 0, 68, 0
1, 29059, Note_on_c, 0, 95, 71
1, 29059, Note_on_c, 0, 83, 59
1, 29128, Note_on_c, 0, 83, 0
1, 29128, Note_on_c, 0, 95, 0
1, 29197, Note_on_c, 0, 93, 77
1, 29197, Note_on_c, 0, 81, 65
1, 29197, Note_on_c, 0, 47, 66
1, 29200, Control_c, 0, 64, 127
1, 29336, Note_on_c, 0, 81, 0
1, 29336, Note_on_c, 0, 93, 0
1, 29336, Note_on_c, 0, 85, 72
1, 29339, Note_on_c, 0, 73, 60
1, 29339, Note_on_c, 0, 47, 0
1, 29352, Control_c, 0, 64, 0
1, 29443, Note_on_c, 0, 73, 0
1, 29443, Note_on_c, 0, 85, 0
1, 29470, Note_on_c, 0, 90, 72
1, 29470, Note_on_c, 0, 78, 60
1, 29470, Note_on_c, 0, 69, 61
1, 29473, Note_on_c, 0, 66, 52
1, 29473, Note_on_c, 0, 61, 52
1, 29535, Note_on_c, 0, 78, 0
1, 29535, Note_on_c, 0, 90, 0
1, 29535, Note_on_c, 0, 61, 0
1, 29538, Note_on_c, 0, 66, 0
1, 29538, Note_on_c, 0, 69, 0
1, 29600, Note_on_c, 0, 93, 73
1, 29600, Note_on_c, 0, 81, 61
1, 29669, Note_on_c, 0, 81, 0
1, 29669, Note_on_c, 0, 93, 0
1, 29738, Note_on_c, 0, 92, 81
1, 29738, Note_on_c, 0, 80, 69
1, 29738, Note_on_c, 0, 47, 66
1, 29741, Control_c, 0, 64, 127
1, 29873, Note_on_c, 0, 80, 0
1, 29873, Note_on_c, 0, 92, 0
1, 29873, Note_on_c, 0, 90, 73
1, 29876, Note_on_c, 0, 78, 61
1, 29876, Note_on_c, 0, 47, 0
1, 29918, Control_c, 0, 64, 0
1, 29980, Note_on_c, 0, 78, 0
1, 29980, Note_on_c, 0, 90, 0
1, 30007, Note_on_c, 0, 88, 73
1, 30007, Note_on_c, 0, 76, 61
1, 30007, Note_on_c, 0, 68, 58
1, 30010, Note_on_c, 0, 64, 49
1, 30010, Note_on_c, 0, 59, 49
1, 30073, Note_on_c, 0, 76, 0
1, 30073, Note_on_c, 0, 88, 0
1, 30073, Note_on_c, 0, 59, 0
1, 30076, Note_on_c, 0, 64, 0
1, 30076, Note_on_c, 0, 68, 0
1, 30138, Note_on_c, 0, 92, 73
1, 30138, Note_on_c, 0, 80, 61
1, 30209, Note_on_c, 0, 80, 0
1, 30209, Note_on_c, 0, 92, 0
1, 30280, Note_on_c, 0, 90, 82
1, 30280, Note_on_c, 0, 78, 70
1, 30280, Note_on_c, 0, 47, 66
1, 30284, Control_c, 0, 64, 127
1, 30415, Note_on_c, 0, 78, 0
1, 30415, Note_on_c, 0, 90, 0
1, 30415, Note_on_c, 0, 88, 73
1, 30418, Note_on_c, 0, 76, 61
1, 30418, Note_on_c, 0, 47, 0
1, 30454, Control_c, 0, 64, 0
1, 30523, Note_on_c, 0, 76, 0
1, 30523, Note_on_c, 0, 88, 0
1, 30550, Note_on_c, 0, 87, 73
1, 30550, Note_on_c, 0, 75, 61
1, 30550, Note_on_c, 0, 66, 56
1, 30553, Note_on_c, 0, 63, 47
1, 30553, Note_on_c, 0, 57, 47
1, 30616, Note_on_c, 0, 75, 0
1, 30616, Note_on_c, 0, 87, 0
1, 30616, Note_on_c, 0, 57, 0
1, 30619, Note_on_c, 0, 63, 0
1, 30619, Note_on_c, 0, 66, 0
1, 30683, Note_on_c, 0, 90, 73
1, 30683, Note_on_c, 0, 78, 61
1, 30753, Note_on_c, 0, 78, 0
1, 30753, Note_on_c, 0, 90, 0
1, 30823, Note_on_c, 0, 90, 81
1, 30823, Note_on_c, 0, 78, 69
1, 30823, Note_on_c, 0, 64, 66
1, 30826, Note_on_c, 0, 59, 55
1, 30826, Note_on_c, 0, 56, 55
1, 30826, Note_on_c, 0, 52, 55
1, 30829, Control_c, 0, 64, 127
1, 30959, Note_on_c, 0, 78, 0
1, 30959, Note_on_c, 0, 90, 0
1, 30959, Note_on_c, 0, 88, 73
1, 30962, Note_on_c, 0, 76, 61
1, 30962, Note_on_c, 0, 52, 0
1, 30962, Note_on_c, 0, 64, 0
1, 30965, Note_on_c, 0, 59, 0
1, 30965, Note_on_c, 0, 56, 0
1, 30980, Control_c, 0, 64, 0
1, 31065, Note_on_c, 0, 76, 0
1, 31065, Note_on_c, 0, 88, 0
1, 31091, Note_on_c, 0, 88, 73
1, 31091, Note_on_c, 0, 76, 61
1, 31091, Note_on_c, 0, 66, 56
1, 31094, Note_on_c, 0, 60, 47
1, 31094, Note_on_c, 0, 57, 47
1, 31161, Note_on_c, 0, 76, 0
1, 31161, Note_on_c, 0, 88, 0
1, 31161, Note_on_c, 0, 57, 0
1, 31164, Note_on_c, 0, 60, 0
1, 31164, Note_on_c, 0, 66, 0
1, 31230, Note_on_c, 0, 87, 73
1, 31230, Note_on_c, 0, 75, 61
1, 31303, Note_on_c, 0, 75, 0
1, 31303, Note_on_c, 0, 87, 0
1, 31375, Note_on_c, 0, 90, 84
1, 31375, Note_on_c, 0, 78, 71
1, 31375, Note_on_c, 0, 64, 65
1, 31378, Note_on_c, 0, 59, 54
1, 31378, Note_on_c, 0, 56, 54
1, 31378, Note_on_c, 0, 52, 54
1, 31381, Control_c, 0, 64, 127
1, 31513, Note_on_c, 0, 78, 0
1, 31513, Note_on_c, 0, 90, 0
1, 31513, Note_on_c, 0, 88, 73
1, 31516, Note_on_c, 0, 76, 61
1, 31516, Note_on_c, 0, 52, 0
1, 31516, Note_on_c, 0, 64, 0
1, 31519, Note_on_c, 0, 59, 0
1, 31519, Note_on_c, 0, 56, 0
1, 31519, Control_c, 0, 64, 0
1, 31624, Note_on_c, 0, 76, 0
1, 31624, Note_on_c, 0, 88, 0
1, 31652, Note_on_c, 0, 88, 73
1, 31652, Note_on_c, 0, 76, 61
1, 31652, Note_on_c, 0, 66, 58
1, 31655, Note_on_c, 0, 60, 49
1, 31655, Note_on_c, 0, 57, 49
1, 31723, Note_on_c, 0, 76, 0
1, 31723, Note_on_c, 0, 88, 0
1, 31723, Note_on_c, 0, 57, 0
1, 31726, Note_on_c, 0, 60, 0
1, 31726, Note_on_c, 0, 66, 0
1, 31793, Note_on_c, 0, 87, 73
1, 31793, Note_on_c, 0, 75, 61
1, 31869, Note_on_c, 0, 75, 0
1, 31869, Note_on_c, 0, 87, 0
1, 31945, Note_on_c, 0, 83, 75
1, 31945, Note_on_c, 0, 80, 75
1, 31945, Note_on_c, 0, 88, 89
1, 31948, Note_on_c, 0, 76, 75
1, 31948, Note_on_c, 0, 64, 69
1, 31948, Note_on_c, 0, 59, 58
1, 31951, Note_on_c, 0, 56, 58
1, 31951, Note_on_c, 0, 52, 58
1, 31951, Control_c, 0, 64, 127
1, 32525, Note_on_c, 0, 76, 0
1, 32525, Note_on_c, 0, 83, 0
1, 32525, Note_on_c, 0, 80, 0
1, 32528, Note_on_c, 0, 88, 0
1, 32528, Note_on_c, 0, 100, 86
1, 32528, Note_on_c, 0, 95, 72
1, 32531, Note_on_c, 0, 92, 72
1, 32531, Note_on_c, 0, 88, 72
1, 32531, Note_on_c, 0, 52, 0
1, 32534, Note_on_c, 0, 64, 0
1, 32534, Note_on_c, 0, 59, 0
1, 32534, Note_on_c, 0, 56, 0
1, 32537, Note_on_c, 0, 52, 67
1, 32537, Note_on_c, 0, 40, 56
1, 32537, Note_on_c, 0, 44, 56
1, 32540, Note_on_c, 0, 47, 56
1, 32670, Note_on_c, 0, 88, 0
1, 32670, Note_on_c, 0, 100, 0
1, 32670, Note_on_c, 0, 95, 0
1, 32673, Note_on_c, 0, 92, 0
1, 32673, Note_on_c, 0, 47, 0
1, 32673, Note_on_c, 0, 52, 0
1, 32676, Note_on_c, 0, 40, 0
1, 32676, Note_on_c, 0, 44, 0
1, 32698, Control_c, 0, 64, 0
1, 33033, Note_on_c, 0, 64, 81
1, 33106, Note_on_c, 0, 64, 0
1, 33106, Note_on_c, 0, 64, 88
1, 33248, Note_on_c, 0, 64, 0
1, 33673, Note_on_c, 0, 68, 81
1, 33673, Note_on_c, 0, 64, 68
1, 33673, Note_on_c, 0, 61, 69
1, 33818, Note_on_c, 0, 64, 0
1, 33818, Note_on_c, 0, 68, 0
1, 33818, Note_on_c, 0, 61, 0
1, 34253, Note_on_c, 0, 71, 88
1, 34253, Note_on_c, 0, 63, 74
1, 34253, Note_on_c, 0, 68, 74
1, 34256, Note_on_c, 0, 56, 69
1, 35325, Note_on_c, 0, 68, 0
1, 35325, Note_on_c, 0, 63, 0
1, 35325, Note_on_c, 0, 71, 0
1, 35328, Note_on_c, 0, 76, 81
1, 35328, Note_on_c, 0, 64, 68
1, 35328, Note_on_c, 0, 68, 68
1, 35331, Note_on_c, 0, 56, 0
1, 35331, Note_on_c, 0, 61, 60
1, 35331, Note_on_c, 0, 49, 49
1, 35396, Note_on_c, 0, 68, 0
1, 35396, Note_on_c, 0, 64, 0
1, 35396, Note_on_c, 0, 76, 0
1, 35399, Note_on_c, 0, 68, 74
1, 35399, Note_on_c, 0, 71, 88
1, 35399, Note_on_c, 0, 63, 74
1, 35402, Note_on_c, 0, 49, 0
1, 35402, Note_on_c, 0, 61, 0
1, 35402, Note_on_c, 0, 56, 67
1, 35887, Note_on_c, 0, 63, 0
1, 35887, Note_on_c, 0, 71, 0
1, 35887, Note_on_c, 0, 68, 0
1, 35890, Note_on_c, 0, 76, 82
1, 35890, Note_on_c, 0, 64, 69
1, 35890, Note_on_c, 0, 68, 69
1, 35893, Note_on_c, 0, 56, 0
1, 35893, Note_on_c, 0, 61, 61
1, 35893, Note_on_c, 0, 49, 50
1, 35957, Note_on_c, 0, 68, 0
1, 35957, Note_on_c, 0, 64, 0
1, 35957, Note_on_c, 0, 76, 0
1, 35960, Note_on_c, 0, 71, 88
1, 35960, Note_on_c, 0, 63, 74
1, 35960, Note_on_c, 0, 68, 74
1, 35963, Note_on_c, 0, 49, 0
1, 35963, Note_on_c, 0, 61, 0
1, 35963, Note_on_c, 0, 56, 68
1, 36449, Note_on_c, 0, 68, 0
1, 36449, Note_on_c, 0, 63, 0
1, 36449, Note_on_c, 0, 71, 0
1, 36452, Note_on_c, 0, 76, 81
1, 36452, Note_on_c, 0, 64, 68
1, 36452, Note_on_c, 0, 68, 68
1, 36455, Note_on_c, 0, 56, 0
1, 36455, Note_on_c, 0, 61, 61
1, 36455, Note_on_c, 0, 49, 51
1, 36519, Note_on_c, 0, 68, 0
1, 36519, Note_on_c, 0, 64, 0
1, 36519, Note_on_c, 0, 76, 0
1, 36522, Note_on_c, 0, 71, 88
1, 36522, Note_on_c, 0, 63, 74
1, 36522, Note_on_c, 0, 68, 74
1, 36525, Note_on_c, 0, 49, 0
1, 36525, Note_on_c, 0, 61, 0
1, 36525, Note_on_c, 0, 56, 85
1, 36528, Note_on_c, 0, 44, 70
1, 36661, Note_on_c, 0, 44, 0
1, 36661, Note_on_c, 0, 56, 0
1, 36804, Note_on_c, 0, 55, 85
1, 36804, Note_on_c, 0, 43, 70
1, 36947, Note_on_c, 0, 43, 0
1, 36947, Note_on_c, 0, 55, 0
1, 37089, Note_on_c, 0, 54, 85
1, 37089, Note_on_c, 0, 42, 70
1, 37235, Note_on_c, 0, 42, 0
1, 37235, Note_on_c, 0, 54, 0
1, 37385, Note_on_c, 0, 53, 85
1, 37385, Note_on_c, 0, 41, 70
1, 37541, Note_on_c, 0, 41, 0
1, 37541, Note_on_c, 0, 53, 0
1, 37701, Note_on_c, 0, 68, 0
1, 37701, Note_on_c, 0, 63, 0
1, 37701, Note_on_c, 0, 71, 0
1, 37704, Note_on_c, 0, 76, 90
1, 37704, Note_on_c, 0, 62, 74
1, 37704, Note_on_c, 0, 64, 74
1, 37707, Note_on_c, 0, 68, 74
1, 37707, Note_on_c, 0, 71, 74
1, 37707, Note_on_c, 0, 52, 89
1, 37710, Note_on_c, 0, 40, 73
1, 37816, Note_on_c, 0, 71, 0
1, 37816, Note_on_c, 0, 64, 0
1, 37816, Note_on_c, 0, 76, 0
1, 37819, Note_on_c, 0, 62, 0
1, 37819, Note_on_c, 0, 68, 0
1, 37819, Note_on_c, 0, 40, 0
1, 37822, Note_on_c, 0, 52, 0
1, 38616, Note_on_c, 0, 76, 50
1, 38886, Note_on_c, 0, 76, 0
1, 38886, Note_on_c, 0, 84, 57
1, 38886, Note_on_c, 0, 57, 40
1, 38934, Control_c, 0, 64, 127
1, 38970, Note_on_c, 0, 69, 29
1, 39012, Note_on_c, 0, 84, 0
1, 39012, Note_on_c, 0, 88, 50
1, 39012, Note_on_c, 0, 57, 0
1, 39053, Note_on_c, 0, 69, 0
1, 39053, Note_on_c, 0, 71, 31
1, 39137, Note_on_c, 0, 88, 0
1, 39137, Note_on_c, 0, 84, 55
1, 39137, Note_on_c, 0, 76, 40
1, 39140, Note_on_c, 0, 71, 0
1, 39140, Note_on_c, 0, 72, 32
1, 39145, Control_c, 0, 64, 0
1, 39190, Control_c, 0, 64, 127
1, 39222, Note_on_c, 0, 72, 0
1, 39222, Note_on_c, 0, 71, 33
1, 39265, Note_on_c, 0, 76, 0
1, 39265, Note_on_c, 0, 84, 0
1, 39265, Note_on_c, 0, 77, 40
1, 39306, Control_c, 0, 64, 0
1, 39312, Note_on_c, 0, 71, 0
1, 39312, Note_on_c, 0, 69, 32
1, 39335, Note_on_c, 0, 77, 0
1, 39405, Note_on_c, 0, 83, 55
1, 39405, Note_on_c, 0, 76, 40
1, 39405, Note_on_c, 0, 69, 0
1, 39408, Note_on_c, 0, 55, 40
1, 39449, Control_c, 0, 64, 127
1, 39489, Note_on_c, 0, 67, 32
1, 39530, Note_on_c, 0, 83, 0
1, 39530, Note_on_c, 0, 86, 50
1, 39530, Note_on_c, 0, 55, 0
1, 39572, Note_on_c, 0, 67, 0
1, 39572, Note_on_c, 0, 69, 33
1, 39656, Note_on_c, 0, 86, 0
1, 39656, Note_on_c, 0, 76, 0
1, 39656, Note_on_c, 0, 83, 53
1, 39659, Note_on_c, 0, 74, 40
1, 39659, Note_on_c, 0, 69, 0
1, 39659, Note_on_c, 0, 71, 34
1, 39659, Control_c, 0, 64, 0
1, 39724, Control_c, 0, 64, 127
1, 39742, Note_on_c, 0, 71, 0
1, 39742, Note_on_c, 0, 69, 34
1, 39784, Note_on_c, 0, 74, 0
1, 39784, Note_on_c, 0, 83, 0
1, 39784, Note_on_c, 0, 76, 40
1, 39825, Control_c, 0, 64, 0
1, 39831, Note_on_c, 0, 69, 0
1, 39831, Note_on_c, 0, 67, 31
1, 39854, Note_on_c, 0, 76, 0
1, 39924, Note_on_c, 0, 81, 54
1, 39924, Note_on_c, 0, 74, 40
1, 39924, Note_on_c, 0, 67, 0
1, 39927, Note_on_c, 0, 53, 40
1, 39960, Control_c, 0, 64, 127
1, 40008, Note_on_c, 0, 65, 31
1, 40050, Note_on_c, 0, 81, 0
1, 40050, Note_on_c, 0, 84, 50
1, 40050, Note_on_c, 0, 53, 0
1, 40092, Note_on_c, 0, 65, 0
1, 40092, Note_on_c, 0, 67, 33
1, 40176, Note_on_c, 0, 84, 0
1, 40176, Note_on_c, 0, 74, 0
1, 40176, Note_on_c, 0, 81, 57
1, 40179, Note_on_c, 0, 72, 40
1, 40179, Note_on_c, 0, 67, 0
1, 40179, Note_on_c, 0, 69, 34
1, 40185, Control_c, 0, 64, 0
1, 40222, Control_c, 0, 64, 127
1, 40263, Note_on_c, 0, 69, 0
1, 40263, Note_on_c, 0, 67, 34
1, 40306, Note_on_c, 0, 72, 0
1, 40306, Note_on_c, 0, 81, 0
1, 40306, Note_on_c, 0, 74, 40
1, 40346, Control_c, 0, 64, 0
1, 40353, Note_on_c, 0, 67, 0
1, 40353, Note_on_c, 0, 65, 32
1, 40376, Note_on_c, 0, 74, 0
1, 40445, Note_on_c, 0, 80, 55
1, 40445, Note_on_c, 0, 72, 40
1, 40445, Note_on_c, 0, 65, 0
1, 40448, Note_on_c, 0, 52, 40
1, 40484, Control_c, 0, 64, 127
1, 40529, Note_on_c, 0, 64, 31
1, 40571, Note_on_c, 0, 80, 0
1, 40571, Note_on_c, 0, 83, 50
1, 40571, Note_on_c, 0, 52, 0
1, 40614, Note_on_c, 0, 64, 0
1, 40614, Note_on_c, 0, 65, 32
1, 40698, Note_on_c, 0, 83, 0
1, 40698, Note_on_c, 0, 72, 0
1, 40698, Note_on_c, 0, 80, 55
1, 40701, Note_on_c, 0, 71, 40
1, 40701, Note_on_c, 0, 65, 0
1, 40701, Note_on_c, 0, 68, 33
1, 40704, Control_c, 0, 64, 0
1, 40741, Control_c, 0, 64, 127
1, 40784, Note_on_c, 0, 68, 0
1, 40784, Note_on_c, 0, 65, 32
1, 40828, Note_on_c, 0, 71, 0
1, 40828, Note_on_c, 0, 80, 0
1, 40828, Note_on_c, 0, 72, 40
1, 40861, Control_c, 0, 64, 0
1, 40874, Note_on_c, 0, 65, 0
1, 40874, Note_on_c, 0, 64, 30
1, 40897, Note_on_c, 0, 72, 0
1, 40966, Note_on_c, 0, 77, 54
1, 40966, Note_on_c, 0, 71, 40
1, 40966, Note_on_c, 0, 64, 0
1, 40969, Note_on_c, 0, 50, 40
1, 41018, Control_c, 0, 64, 127
1, 41050, Note_on_c, 0, 62, 30
1, 41092, Note_on_c, 0, 77, 0
1, 41092, Note_on_c, 0, 81, 50
1, 41092, Note_on_c, 0, 50, 0
1, 41134, Note_on_c, 0, 62, 0
1, 41134, Note_on_c, 0, 64, 31
1, 41219, Note_on_c, 0, 81, 0
1, 41219, Note_on_c, 0, 71, 0
1, 41219, Note_on_c, 0, 77, 54
1, 41222, Note_on_c, 0, 69, 40
1, 41222, Note_on_c, 0, 64, 0
1, 41222, Note_on_c, 0, 65, 32
1, 41225, Control_c, 0, 64, 0
1, 41265, Control_c, 0, 64, 127
1, 41306, Note_on_c, 0, 65, 0
1, 41306, Note_on_c, 0, 62, 32
1, 41350, Note_on_c, 0, 69, 0
1, 41350, Note_on_c, 0, 77, 0
1, 41350, Note_on_c, 0, 71, 40
1, 41388, Control_c, 0, 64, 0
1, 41398, Note_on_c, 0, 62, 0
1, 41398, Note_on_c, 0, 60, 30
1, 41422, Note_on_c, 0, 71, 0
1, 41494, Note_on_c, 0, 76, 63
1, 41494, Note_on_c, 0, 68, 48
1, 41494, Note_on_c, 0, 60, 0
1, 41497, Note_on_c, 0, 52, 43
1, 41497, Note_on_c, 0, 59, 43
1, 41542, Control_c, 0, 64, 127
1, 41619, Note_on_c, 0, 68, 0
1, 41619, Note_on_c, 0, 71, 45
1, 41619, Note_on_c, 0, 59, 0
1, 41622, Note_on_c, 0, 64, 40
1, 41745, Note_on_c, 0, 71, 0
1, 41745, Note_on_c, 0, 68, 50
1, 41745, Note_on_c, 0, 64, 0
1, 41748, Note_on_c, 0, 52, 0
1, 41748, Note_on_c, 0, 59, 45
1, 41874, Note_on_c, 0, 68, 0
1, 41874, Note_on_c, 0, 76, 0
1, 41874, Note_on_c, 0, 71, 45
1, 41877, Note_on_c, 0, 80, 60
1, 41877, Note_on_c, 0, 59, 0
1, 41877, Note_on_c, 0, 64, 40
1, 42007, Note_on_c, 0, 80, 0
1, 42007, Note_on_c, 0, 71, 0
1, 42007, Note_on_c, 0, 76, 66
1, 42010, Note_on_c, 0, 68, 48
1, 42010, Note_on_c, 0, 64, 0
1, 42010, Note_on_c, 0, 52, 43
1, 42013, Note_on_c, 0, 59, 43
1, 42133, Note_on_c, 0, 68, 0
1, 42133, Note_on_c, 0, 71, 45
1, 42133, Note_on_c, 0, 59, 0
1, 42136, Note_on_c, 0, 64, 40
1, 42258, Note_on_c, 0, 71, 0
1, 42258, Note_on_c, 0, 68, 50
1, 42258, Note_on_c, 0, 64, 0
1, 42261, Note_on_c, 0, 52, 0
1, 42261, Note_on_c, 0, 59, 45
1, 42390, Note_on_c, 0, 68, 0
1, 42390, Note_on_c, 0, 76, 0
1, 42390, Note_on_c, 0, 71, 45
1, 42393, Note_on_c, 0, 80, 57
1, 42393, Note_on_c, 0, 59, 0
1, 42393, Note_on_c, 0, 64, 40
1, 42525, Note_on_c, 0, 80, 0
1, 42525, Note_on_c, 0, 71, 0
1, 42525, Note_on_c, 0, 76, 67
1, 42528, Note_on_c, 0, 68, 56
1, 42528, Note_on_c, 0, 64, 0
1, 42528, Note_on_c, 0, 52, 43
1, 42531, Note_on_c, 0, 59, 43
1, 42650, Note_on_c, 0, 68, 0
1, 42650, Note_on_c, 0, 76, 0
1, 42650, Note_on_c, 0, 71, 60
1, 42653, Note_on_c, 0, 80, 60
1, 42653, Note_on_c, 0, 59, 0
1, 42653, Note_on_c, 0, 64, 40
1, 42713, Note_on_c, 0, 80, 0
1, 42713, Note_on_c, 0, 71, 0
1, 42713, Note_on_c, 0, 64, 0
1, 42776, Note_on_c, 0, 76, 68
1, 42776, Note_on_c, 0, 68, 57
1, 42776, Note_on_c, 0, 52, 0
1, 42779, Note_on_c, 0, 59, 45
1, 42906, Note_on_c, 0, 68, 0
1, 42906, Note_on_c, 0, 76, 0
1, 42906, Note_on_c, 0, 80, 62
1, 42909, Note_on_c, 0, 71, 52
1, 42909, Note_on_c, 0, 59, 0
1, 42909, Note_on_c, 0, 64, 40
1, 42972, Note_on_c, 0, 71, 0
1, 42972, Note_on_c, 0, 80, 0
1, 42972, Note_on_c, 0, 64, 0
1, 43039, Note_on_c, 0, 76, 71
1, 43039, Note_on_c, 0, 68, 60
1, 43039, Note_on_c, 0, 59, 56
1, 43042, Note_on_c, 0, 52, 47
1, 43052, Control_c, 0, 64, 0
1, 43106, Note_on_c, 0, 76, 0
1, 43106, Note_on_c, 0, 52, 0
1, 43106, Note_on_c, 0, 59, 0
1, 43173, Note_on_c, 0, 71, 62
1, 43237, Note_on_c, 0, 71, 0
1, 43301, Note_on_c, 0, 68, 0
1, 43301, Note_on_c, 0, 68, 63
1, 43301, Note_on_c, 0, 64, 60
1, 43304, Note_on_c, 0, 52, 51
1, 43304, Note_on_c, 0, 56, 51
1, 43304, Note_on_c, 0, 59, 51
1, 43364, Note_on_c, 0, 59, 0
1, 43364, Note_on_c, 0, 64, 0
1, 43364, Note_on_c, 0, 52, 0
1, 43367, Note_on_c, 0, 56, 0
1, 43427, Note_on_c, 0, 71, 64
1, 43491, Note_on_c, 0, 71, 0
1, 43555, Note_on_c, 0, 68, 0
1, 43555, Note_on_c, 0, 76, 67
1, 43555, Note_on_c, 0, 64, 63
1, 43558, Note_on_c, 0, 56, 68
1, 43558, Note_on_c, 0, 59, 68
1, 43558, Note_on_c, 0, 47, 57
1, 43561, Note_on_c, 0, 52, 57
1, 43617, Note_on_c, 0, 76, 0
1, 43617, Note_on_c, 0, 52, 0
1, 43617, Note_on_c, 0, 56, 0
1, 43620, Note_on_c, 0, 59, 0
1, 43620, Note_on_c, 0, 47, 0
1, 43679, Note_on_c, 0, 71, 72
1, 43743, Note_on_c, 0, 71, 0
1, 43807, Note_on_c, 0, 64, 0
1, 43807, Note_on_c, 0, 76, 79
1, 43807, Note_on_c, 0, 64, 67
1, 43810, Note_on_c, 0, 56, 75
1, 43810, Note_on_c, 0, 44, 63
1, 43810, Note_on_c, 0, 47, 63
1, 43813, Note_on_c, 0, 52, 63
1, 43874, Note_on_c, 0, 64, 0
1, 43874, Note_on_c, 0, 76, 0
1, 43874, Note_on_c, 0, 52, 0
1, 43877, Note_on_c, 0, 56, 0
1, 43877, Note_on_c, 0, 44, 0
1, 43877, Note_on_c, 0, 47, 0
1, 43940, Note_on_c, 0, 80, 80
1, 43940, Note_on_c, 0, 68, 68
1, 44006, Note_on_c, 0, 68, 0
1, 44006, Note_on_c, 0, 80, 0
1, 44072, Note_on_c, 0, 71, 79
1, 44072, Note_on_c, 0, 76, 79
1, 44072, Note_on_c, 0, 83, 93
1, 44075, Note_on_c, 0, 80, 79
1, 44075, Note_on_c, 0, 47, 60
1, 44075, Note_on_c, 0, 44, 60
1, 44078, Note_on_c, 0, 52, 70
1, 44078, Note_on_c, 0, 40, 60
1, 44155, Control_c, 0, 64, 127
1, 44609, Note_on_c, 0, 80, 0
1, 44609, Note_on_c, 0, 71, 0
1, 44609, Note_on_c, 0, 76, 0
1, 44612, Note_on_c, 0, 83, 0
1, 44612, Note_on_c, 0, 88, 99
1, 44612, Note_on_c, 0, 76, 82
1, 44615, Note_on_c, 0, 80, 82
1, 44615, Note_on_c, 0, 83, 82
1, 44615, Note_on_c, 0, 40, 0
1, 44618, Note_on_c, 0, 47, 0
1, 44618, Note_on_c, 0, 44, 0
1, 44618, Note_on_c, 0, 52, 0
1, 44621, Note_on_c, 0, 64, 74
1, 44621, Note_on_c, 0, 59, 62
1, 44621, Note_on_c, 0, 56, 62
1, 44624, Note_on_c, 0, 52, 62
1, 44743, Note_on_c, 0, 83, 0
1, 44743, Note_on_c, 0, 88, 0
1, 44743, Note_on_c, 0, 76, 0
1, 44746, Note_on_c, 0, 80, 0
1, 44746, Note_on_c, 0, 52, 0
1, 44746, Note_on_c, 0, 64, 0
1, 44749, Note_on_c, 0, 59, 0
1, 44749, Note_on_c, 0, 56, 0
1, 44794, Control_c, 0, 64, 0
1, 44877, Note_on_c, 0, 76, 75
1, 44877, Note_on_c, 0, 52, 67
1, 44960, Note_on_c, 0, 76, 0
1, 44960, Note_on_c, 0, 78, 78
1, 44960, Note_on_c, 0, 52, 0
1, 44963, Note_on_c, 0, 54, 71
1, 45044, Note_on_c, 0, 78, 0
1, 45044, Note_on_c, 0, 80, 80
1, 45044, Note_on_c, 0, 54, 0
1, 45047, Note_on_c, 0, 56, 75
1, 45127, Note_on_c, 0, 80, 0
1, 45127, Note_on_c, 0, 69, 76
1, 45127, Note_on_c, 0, 81, 90
1, 45130, Note_on_c, 0, 56, 0
1, 45130, Note_on_c, 0, 57, 70
1, 45130, Note_on_c, 0, 45, 59
1, 45133, Note_on_c, 0, 72, 76
1, 45258, Note_on_c, 0, 81, 0
1, 45258, Note_on_c, 0, 69, 0
1, 45258, Note_on_c, 0, 45, 0
1, 45261, Note_on_c, 0, 57, 0
1, 45261, Note_on_c, 0, 72, 0
1, 45388, Note_on_c, 0, 71, 63
1, 45388, Note_on_c, 0, 68, 63
1, 45388, Note_on_c, 0, 80, 74
1, 45391, Note_on_c, 0, 53, 56
1, 45391, Note_on_c, 0, 41, 47
1, 45450, Note_on_c, 0, 80, 0
1, 45450, Note_on_c, 0, 68, 0
1, 45450, Note_on_c, 0, 71, 0
1, 45453, Note_on_c, 0, 41, 0
1, 45453, Note_on_c, 0, 53, 0
1, 45512, Note_on_c, 0, 71, 57
1, 45512, Note_on_c, 0, 83, 68
1, 45512, Note_on_c, 0, 74, 57
1, 45577, Note_on_c, 0, 74, 0
1, 45577, Note_on_c, 0, 83, 0
1, 45577, Note_on_c, 0, 71, 0
1, 45642, Note_on_c, 0, 69, 71
1, 45642, Note_on_c, 0, 81, 84
1, 45642, Note_on_c, 0, 72, 71
1, 45645, Note_on_c, 0, 57, 70
1, 45645, Note_on_c, 0, 45, 59
1, 45769, Note_on_c, 0, 72, 0
1, 45769, Note_on_c, 0, 81, 0
1, 45769, Note_on_c, 0, 69, 0
1, 45772, Note_on_c, 0, 45, 0
1, 45772, Note_on_c, 0, 57, 0
1, 45897, Note_on_c, 0, 71, 61
1, 45897, Note_on_c, 0, 68, 61
1, 45897, Note_on_c, 0, 80, 72
1, 45900, Note_on_c, 0, 52, 56
1, 45900, Note_on_c, 0, 40, 47
1, 45958, Note_on_c, 0, 80, 0
1, 45958, Note_on_c, 0, 68, 0
1, 45958, Note_on_c, 0, 71, 0
1, 45961, Note_on_c, 0, 40, 0
1, 45961, Note_on_c, 0, 52, 0
1, 46019, Note_on_c, 0, 74, 56
1, 46019, Note_on_c, 0, 83, 67
1, 46019, Note_on_c, 0, 71, 56
1, 46083, Note_on_c, 0, 71, 0
1, 46083, Note_on_c, 0, 83, 0
1, 46083, Note_on_c, 0, 74, 0
1, 46148, Note_on_c, 0, 69, 71
1, 46148, Note_on_c, 0, 81, 84
1, 46148, Note_on_c, 0, 72, 71
1, 46151, Note_on_c, 0, 57, 70
1, 46151, Note_on_c, 0, 45, 59
1, 46217, Note_on_c, 0, 72, 0
1, 46217, Note_on_c, 0, 81, 0
1, 46217, Note_on_c, 0, 69, 0
1, 46220, Note_on_c, 0, 45, 0
1, 46220, Note_on_c, 0, 57, 0
1, 46422, Note_on_c, 0, 71, 61
1, 46422, Note_on_c, 0, 68, 61
1, 46422, Note_on_c, 0, 80, 73
1, 46425, Note_on_c, 0, 50, 61
1, 46425, Note_on_c, 0, 38, 51
1, 46425, Note_on_c, 0, 41, 51
1, 46489, Note_on_c, 0, 80, 0
1, 46489, Note_on_c, 0, 68, 0
1, 46489, Note_on_c, 0, 71, 0
1, 46492, Note_on_c, 0, 41, 0
1, 46492, Note_on_c, 0, 38, 0
1, 46492, Note_on_c, 0, 50, 0
1, 46689, Note_on_c, 0, 69, 70
1, 46689, Note_on_c, 0, 72, 70
1, 46689, Note_on_c, 0, 81, 83
1, 46692, Note_on_c, 0, 57, 70
1, 46692, Note_on_c, 0, 45, 59
1, 46692, Note_on_c, 0, 52, 59
1, 47236, Note_on_c, 0, 81, 0
1, 47236, Note_on_c, 0, 72, 0
1, 47236, Note_on_c, 0, 69, 0
1, 47239, Note_on_c, 0, 93, 75
1, 47239, Note_on_c, 0, 81, 63
1, 47239, Note_on_c, 0, 52, 0
1, 47242, Note_on_c, 0, 45, 0
1, 47242, Note_on_c, 0, 57, 0
1, 47298, Note_on_c, 0, 81, 0
1, 47298, Note_on_c, 0, 93, 0
1, 47360, Note_on_c, 0, 95, 79
1, 47360, Note_on_c, 0, 83, 67
1, 47422, Note_on_c, 0, 83, 0
1, 47422, Note_on_c, 0, 95, 0
1, 47484, Note_on_c, 0, 96, 86
1, 47484, Note_on_c, 0, 84, 72
1, 47484, Note_on_c, 0, 69, 75
1, 47487, Note_on_c, 0, 57, 63
1, 47548, Note_on_c, 0, 57, 0
1, 47548, Note_on_c, 0, 69, 0
1, 47612, Note_on_c, 0, 71, 79
1, 47612, Note_on_c, 0, 59, 67
1, 47677, Note_on_c, 0, 59, 0
1, 47677, Note_on_c, 0, 71, 0
1, 47742, Note_on_c, 0, 72, 86
1, 47742, Note_on_c, 0, 60, 72
1, 47867, Note_on_c, 0, 84, 0
1, 47867, Note_on_c, 0, 96, 0
1, 47867, Note_on_c, 0, 95, 74
1, 47870, Note_on_c, 0, 83, 62
1, 47927, Note_on_c, 0, 83, 0
1, 47927, Note_on_c, 0, 95, 0
1, 47986, Note_on_c, 0, 93, 87
1, 47986, Note_on_c, 0, 81, 73
1, 48108, Note_on_c, 0, 60, 0
1, 48108, Note_on_c, 0, 72, 0
1, 48108, Note_on_c, 0, 71, 74
1, 48111, Note_on_c, 0, 59, 62
1, 48171, Note_on_c, 0, 59, 0
1, 48171, Note_on_c, 0, 71, 0
1, 48234, Note_on_c, 0, 69, 87
1, 48234, Note_on_c, 0, 57, 73
1, 48362, Note_on_c, 0, 81, 0
1, 48362, Note_on_c, 0, 93, 0
1, 48362, Note_on_c, 0, 91, 75
1, 48365, Note_on_c, 0, 79, 63
1, 48422, Note_on_c, 0, 79, 0
1, 48422, Note_on_c, 0, 91, 0
1, 48482, Note_on_c, 0, 89, 88
1, 48482, Note_on_c, 0, 77, 74
1, 48609, Note_on_c, 0, 57, 0
1, 48609, Note_on_c, 0, 69, 0
1, 48609, Note_on_c, 0, 67, 75
1, 48612, Note_on_c, 0, 55, 63
1, 48672, Note_on_c, 0, 55, 0
1, 48672, Note_on_c, 0, 67, 0
1, 48735, Note_on_c, 0, 65, 88
1, 48735, Note_on_c, 0, 53, 74
1, 48861, Note_on_c, 0, 77, 0
1, 48861, Note_on_c, 0, 89, 0
1, 48861, Note_on_c, 0, 88, 81
1, 48864, Note_on_c, 0, 76, 68
1, 48921, Note_on_c, 0, 76, 0
1, 48921, Note_on_c, 0, 88, 0
1, 48981, Note_on_c, 0, 86, 81
1, 48981, Note_on_c, 0, 74, 68
1, 49044, Note_on_c, 0, 74, 0
1, 49044, Note_on_c, 0, 86, 0
1, 49106, Note_on_c, 0, 85, 81
1, 49106, Note_on_c, 0, 73, 68
1, 49106, Note_on_c, 0, 53, 0
1, 49109, Note_on_c, 0, 65, 0
1, 49109, Note_on_c, 0, 52, 75
1, 49109, Note_on_c, 0, 64, 75
1, 49172, Note_on_c, 0, 73, 0
1, 49172, Note_on_c, 0, 85, 0
1, 49172, Note_on_c, 0, 64, 0
1, 49175, Note_on_c, 0, 52, 0
1, 49237, Note_on_c, 0, 77, 76
1, 49237, Note_on_c, 0, 74, 76
1, 49237, Note_on_c, 0, 86, 90
1, 49240, Note_on_c, 0, 62, 70
1, 49240, Note_on_c, 0, 50, 59
1, 49363, Note_on_c, 0, 86, 0
1, 49363, Note_on_c, 0, 74, 0
1, 49363, Note_on_c, 0, 77, 0
1, 49366, Note_on_c, 0, 50, 0
1, 49366, Note_on_c, 0, 62, 0
1, 49489, Note_on_c, 0, 76, 63
1, 49489, Note_on_c, 0, 73, 63
1, 49489, Note_on_c, 0, 85, 74
1, 49492, Note_on_c, 0, 58, 56
1, 49492, Note_on_c, 0, 46, 47
1, 49550, Note_on_c, 0, 85, 0
1, 49550, Note_on_c, 0, 73, 0
1, 49550, Note_on_c, 0, 76, 0
1, 49553, Note_on_c, 0, 46, 0
1, 49553, Note_on_c, 0, 58, 0
1, 49610, Note_on_c, 0, 76, 57
1, 49610, Note_on_c, 0, 88, 68
1, 49610, Note_on_c, 0, 79, 57
1, 49675, Note_on_c, 0, 79, 0
1, 49675, Note_on_c, 0, 88, 0
1, 49675, Note_on_c, 0, 76, 0
1, 49740, Note_on_c, 0, 74, 71
1, 49740, Note_on_c, 0, 86, 84
1, 49740, Note_on_c, 0, 77, 71
1, 49743, Note_on_c, 0, 62, 70
1, 49743, Note_on_c, 0, 50, 59
1, 49867, Note_on_c, 0, 77, 0
1, 49867, Note_on_c, 0, 86, 0
1, 49867, Note_on_c, 0, 74, 0
1, 49870, Note_on_c, 0, 50, 0
1, 49870, Note_on_c, 0, 62, 0
1, 49993, Note_on_c, 0, 76, 61
1, 49993, Note_on_c, 0, 73, 61
1, 49993, Note_on_c, 0, 85, 72
1, 49996, Note_on_c, 0, 57, 56
1, 49996, Note_on_c, 0, 45, 47
1, 50054, Note_on_c, 0, 85, 0
1, 50054, Note_on_c, 0, 73, 0
1, 50054, Note_on_c, 0, 76, 0
1, 50057, Note_on_c, 0, 45, 0
1, 50057, Note_on_c, 0, 57, 0
1, 50114, Note_on_c, 0, 79, 56
1, 50114, Note_on_c, 0, 88, 67
1, 50114, Note_on_c, 0, 76, 56
1, 50182, Note_on_c, 0, 76, 0
1, 50182, Note_on_c, 0, 88, 0
1, 50182, Note_on_c, 0, 79, 0
1, 50250, Note_on_c, 0, 74, 71
1, 50250, Note_on_c, 0, 86, 84
1, 50250, Note_on_c, 0, 77, 71
1, 50253, Note_on_c, 0, 62, 70
1, 50253, Note_on_c, 0, 50, 59
1, 50316, Note_on_c, 0, 77, 0
1, 50316, Note_on_c, 0, 86, 0
1, 50316, Note_on_c, 0, 74, 0
1, 50319, Note_on_c, 0, 50, 0
1, 50319, Note_on_c, 0, 62, 0
1, 50514, Note_on_c, 0, 76, 61
1, 50514, Note_on_c, 0, 73, 61
1, 50514, Note_on_c, 0, 85, 73
1, 50517, Note_on_c, 0, 55, 61
1, 50517, Note_on_c, 0, 43, 51
1, 50517, Note_on_c, 0, 46, 51
1, 50581, Note_on_c, 0, 85, 0
1, 50581, Note_on_c, 0, 73, 0
1, 50581, Note_on_c, 0, 76, 0
1, 50584, Note_on_c, 0, 46, 0
1, 50584, Note_on_c, 0, 43, 0
1, 50584, Note_on_c, 0, 55, 0
1, 50782, Note_on_c, 0, 74, 73
1, 50782, Note_on_c, 0, 77, 73
1, 50782, Note_on_c, 0, 86, 87
1, 50785, Note_on_c, 0, 62, 73
1, 50785, Note_on_c, 0, 50, 61
1, 50785, Note_on_c, 0, 57, 61
1, 51333, Note_on_c, 0, 86, 0
1, 51333, Note_on_c, 0, 77, 0
1, 51333, Note_on_c, 0, 74, 0
1, 51336, Note_on_c, 0, 98, 75
1, 51336, Note_on_c, 0, 86, 63
1, 51336, Note_on_c, 0, 57, 0
1, 51339, Note_on_c, 0, 50, 0
1, 51339, Note_on_c, 0, 62, 0
1, 51395, Note_on_c, 0, 86, 0
1, 51395, Note_on_c, 0, 98, 0
1, 51458, Note_on_c, 0, 100, 79
1, 51458, Note_on_c, 0, 88, 67
1, 51520, Note_on_c, 0, 88, 0
1, 51520, Note_on_c, 0, 100, 0
1, 51583, Note_on_c, 0, 101, 82
1, 51583, Note_on_c, 0, 89, 69
1, 51583, Note_on_c, 0, 74, 75
1, 51586, Note_on_c, 0, 62, 63
1, 51648, Note_on_c, 0, 62, 0
1, 51648, Note_on_c, 0, 74, 0
1, 51712, Note_on_c, 0, 76, 79
1, 51712, Note_on_c, 0, 64, 67
1, 51777, Note_on_c, 0, 64, 0
1, 51777, Note_on_c, 0, 76, 0
1, 51841, Note_on_c, 0, 77, 82
1, 51841, Note_on_c, 0, 65, 69
1, 51966, Note_on_c, 0, 89, 0
1, 51966, Note_on_c, 0, 101, 0
1, 51966, Note_on_c, 0, 100, 74
1, 51969, Note_on_c, 0, 88, 62
1, 52026, Note_on_c, 0, 88, 0
1, 52026, Note_on_c, 0, 100, 0
1, 52087, Note_on_c, 0, 98, 83
1, 52087, Note_on_c, 0, 86, 70
1, 52211, Note_on_c, 0, 65, 0
1, 52211, Note_on_c, 0, 77, 0
1, 52211, Note_on_c, 0, 76, 74
1, 52214, Note_on_c, 0, 64, 62
1, 52276, Note_on_c, 0, 64, 0
1, 52276, Note_on_c, 0, 76, 0
1, 52341, Note_on_c, 0, 74, 83
1, 52341, Note_on_c, 0, 62, 70
1, 52467, Note_on_c, 0, 86, 0
1, 52467, Note_on_c, 0, 98, 0
1, 52467, Note_on_c, 0, 96, 75
1, 52470, Note_on_c, 0, 84, 63
1, 52528, Note_on_c, 0, 84, 0
1, 52528, Note_on_c, 0, 96, 0
1, 52588, Note_on_c, 0, 95, 84
1, 52588, Note_on_c, 0, 83, 71
1, 52716, Note_on_c, 0, 62, 0
1, 52716, Note_on_c, 0, 74, 0
1, 52716, Note_on_c, 0, 72, 75
1, 52719, Note_on_c, 0, 60, 63
1, 52780, Note_on_c, 0, 60, 0
1, 52780, Note_on_c, 0, 72, 0
1, 52844, Note_on_c, 0, 71, 84
1, 52844, Note_on_c, 0, 59, 71
1, 52972, Note_on_c, 0, 83, 0
1, 52972, Note_on_c, 0, 95, 0
1, 52972, Note_on_c, 0, 93, 77
1, 52975, Note_on_c, 0, 81, 65
1, 53033, Note_on_c, 0, 81, 0
1, 53033, Note_on_c, 0, 93, 0
1, 53094, Note_on_c, 0, 92, 77
1, 53094, Note_on_c, 0, 80, 65
1, 53157, Note_on_c, 0, 80, 0
1, 53157, Note_on_c, 0, 92, 0
1, 53220, Note_on_c, 0, 93, 77
1, 53220, Note_on_c, 0, 81, 65
1, 53220, Note_on_c, 0, 59, 0
1, 53223, Note_on_c, 0, 71, 0
1, 53223, Note_on_c, 0, 69, 70
1, 53223, Note_on_c, 0, 57, 59
1, 53285, Note_on_c, 0, 81, 0
1, 53285, Note_on_c, 0, 93, 0
1, 53285, Note_on_c, 0, 57, 0
1, 53288, Note_on_c, 0, 69, 0
1, 53350, Note_on_c, 0, 92, 79
1, 53350, Note_on_c, 0, 80, 67
1, 53350, Note_on_c, 0, 68, 72
1, 53353, Note_on_c, 0, 56, 61
1, 53412, Note_on_c, 0, 80, 0
1, 53412, Note_on_c, 0, 92, 0
1, 53412, Note_on_c, 0, 56, 0
1, 53415, Note_on_c, 0, 68, 0
1, 53474, Note_on_c, 0, 95, 84
1, 53474, Note_on_c, 0, 83, 71
1, 53474, Note_on_c, 0, 71, 77
1, 53477, Note_on_c, 0, 59, 65
1, 53536, Note_on_c, 0, 83, 0
1, 53536, Note_on_c, 0, 95, 0
1, 53536, Note_on_c, 0, 59, 0
1, 53539, Note_on_c, 0, 71, 0
1, 53598, Note_on_c, 0, 100, 88
1, 53598, Note_on_c, 0, 88, 74
1, 53598, Note_on_c, 0, 76, 81
1, 53601, Note_on_c, 0, 64, 68
1, 53719, Note_on_c, 0, 88, 0
1, 53719, Note_on_c, 0, 100, 0
1, 53719, Note_on_c, 0, 64, 0
1, 53722, Note_on_c, 0, 76, 0
1, 53849, Note_on_c, 0, 64, 86
1, 53849, Note_on_c, 0, 56, 73
1, 53849, Note_on_c, 0, 59, 73
1, 53852, Note_on_c, 0, 52, 70
1, 53852, Note_on_c, 0, 40, 59
1, 53852, Note_on_c, 0, 44, 59
1, 53855, Note_on_c, 0, 47, 59
1, 53883, Control_c, 0, 64, 127
1, 54369, Note_on_c, 0, 59, 0
1, 54369, Note_on_c, 0, 56, 0
1, 54369, Note_on_c, 0, 64, 0
1, 54372, Note_on_c, 0, 93, 82
1, 54372, Note_on_c, 0, 81, 70
1, 54372, Note_on_c, 0, 47, 0
1, 54375, Note_on_c, 0, 52, 0
1, 54375, Note_on_c, 0, 40, 0
1, 54375, Note_on_c, 0, 44, 0
1, 54378, Note_on_c, 0, 69, 75
1, 54378, Note_on_c, 0, 57, 64
1, 54402, Control_c, 0, 64, 0
1, 54431, Note_on_c, 0, 81, 0
1, 54431, Note_on_c, 0, 93, 0
1, 54431, Note_on_c, 0, 57, 0
1, 54434, Note_on_c, 0, 69, 0
1, 54493, Note_on_c, 0, 96, 88
1, 54493, Note_on_c, 0, 84, 74
1, 54493, Note_on_c, 0, 72, 80
1, 54496, Note_on_c, 0, 60, 68
1, 54556, Note_on_c, 0, 84, 0
1, 54556, Note_on_c, 0, 96, 0
1, 54556, Note_on_c, 0, 60, 0
1, 54559, Note_on_c, 0, 72, 0
1, 54618, Note_on_c, 0, 100, 92
1, 54618, Note_on_c, 0, 88, 77
1, 54618, Note_on_c, 0, 76, 85
1, 54621, Note_on_c, 0, 64, 71
1, 54738, Note_on_c, 0, 88, 0
1, 54738, Note_on_c, 0, 100, 0
1, 54738, Note_on_c, 0, 64, 0
1, 54741, Note_on_c, 0, 76, 0
1, 54869, Note_on_c, 0, 64, 86
1, 54869, Note_on_c, 0, 57, 73
1, 54869, Note_on_c, 0, 60, 73
1, 54872, Note_on_c, 0, 52, 70
1, 54872, Note_on_c, 0, 40, 59
1, 54872, Note_on_c, 0, 45, 59
1, 54875, Note_on_c, 0, 48, 59
1, 54903, Control_c, 0, 64, 127
1, 55391, Note_on_c, 0, 60, 0
1, 55391, Note_on_c, 0, 57, 0
1, 55391, Note_on_c, 0, 64, 0
1, 55394, Note_on_c, 0, 80, 73
1, 55394, Note_on_c, 0, 71, 62
1, 55394, Note_on_c, 0, 48, 0
1, 55397, Note_on_c, 0, 52, 0
1, 55397, Note_on_c, 0, 40, 0
1, 55397, Note_on_c, 0, 45, 0
1, 55400, Note_on_c, 0, 65, 85
1, 55400, Control_c, 0, 64, 0
1, 55416, Control_c, 0, 64, 127
1, 55449, Note_on_c, 0, 71, 0
1, 55449, Note_on_c, 0, 80, 0
1, 55507, Note_on_c, 0, 83, 65
1, 55507, Note_on_c, 0, 74, 55
1, 55565, Note_on_c, 0, 74, 0
1, 55565, Note_on_c, 0, 83, 0
1, 55623, Note_on_c, 0, 80, 73
1, 55623, Note_on_c, 0, 71, 62
1, 55623, Note_on_c, 0, 65, 0
1, 55626, Note_on_c, 0, 64, 73
1, 55652, Control_c, 0, 64, 0
1, 55684, Note_on_c, 0, 71, 0
1, 55684, Note_on_c, 0, 80, 0
1, 55684, Note_on_c, 0, 64, 0
1, 55744, Note_on_c, 0, 83, 67
1, 55744, Note_on_c, 0, 74, 56
1, 55813, Note_on_c, 0, 74, 0
1, 55813, Note_on_c, 0, 83, 0
1, 55868, Control_c, 0, 64, 127
1, 55881, Note_on_c, 0, 53, 84
1, 55881, Note_on_c, 0, 47, 73
1, 55881, Note_on_c, 0, 44, 62
1, 55944, Note_on_c, 0, 44, 0
1, 55944, Note_on_c, 0, 47, 0
1, 56007, Note_on_c, 0, 50, 66
1, 56070, Note_on_c, 0, 50, 0
1, 56133, Note_on_c, 0, 53, 0
1, 56133, Note_on_c, 0, 52, 74
1, 56133, Note_on_c, 0, 47, 73
1, 56136, Note_on_c, 0, 44, 62
1, 56145, Control_c, 0, 64, 0
1, 56196, Note_on_c, 0, 52, 0
1, 56196, Note_on_c, 0, 44, 0
1, 56196, Note_on_c, 0, 47, 0
1, 56258, Note_on_c, 0, 50, 64
1, 56325, Note_on_c, 0, 50, 0
1, 56391, Note_on_c, 0, 81, 73
1, 56391, Note_on_c, 0, 72, 62
1, 56391, Note_on_c, 0, 65, 85
1, 56416, Control_c, 0, 64, 127
1, 56449, Note_on_c, 0, 72, 0
1, 56449, Note_on_c, 0, 81, 0
1, 56507, Note_on_c, 0, 84, 65
1, 56507, Note_on_c, 0, 76, 55
1, 56565, Note_on_c, 0, 76, 0
1, 56565, Note_on_c, 0, 84, 0
1, 56623, Note_on_c, 0, 81, 73
1, 56623, Note_on_c, 0, 72, 62
1, 56623, Note_on_c, 0, 65, 0
1, 56626, Note_on_c, 0, 64, 73
1, 56651, Control_c, 0, 64, 0
1, 56682, Note_on_c, 0, 72, 0
1, 56682, Note_on_c, 0, 81, 0
1, 56682, Note_on_c, 0, 64, 0
1, 56741, Note_on_c, 0, 84, 67
1, 56741, Note_on_c, 0, 76, 56
1, 56808, Note_on_c, 0, 76, 0
1, 56808, Note_on_c, 0, 84, 0
1, 56863, Control_c, 0, 64, 127
1, 56876, Note_on_c, 0, 53, 84
1, 56876, Note_on_c, 0, 45, 73
1, 56937, Note_on_c, 0, 45, 0
1, 56999, Note_on_c, 0, 48, 66
1, 57061, Note_on_c, 0, 48, 0
1, 57123, Note_on_c, 0, 53, 0
1, 57123, Note_on_c, 0, 52, 74
1, 57123, Note_on_c, 0, 45, 73
1, 57135, Control_c, 0, 64, 0
1, 57185, Note_on_c, 0, 52, 0
1, 57185, Note_on_c, 0, 45, 0
1, 57246, Note_on_c, 0, 48, 64
1, 57313, Note_on_c, 0, 48, 0
1, 57378, Note_on_c, 0, 95, 87
1, 57378, Note_on_c, 0, 101, 87
1, 57378, Note_on_c, 0, 89, 73
1, 57381, Note_on_c, 0, 92, 73
1, 57381, Note_on_c, 0, 77, 60
1, 57381, Note_on_c, 0, 65, 51
1, 57384, Note_on_c, 0, 68, 51
1, 57384, Note_on_c, 0, 71, 51
1, 57384, Control_c, 0, 64, 127
1, 57499, Note_on_c, 0, 92, 0
1, 57499, Note_on_c, 0, 95, 0
1, 57499, Note_on_c, 0, 101, 0
1, 57502, Note_on_c, 0, 89, 0
1, 57502, Note_on_c, 0, 100, 86
1, 57502, Note_on_c, 0, 88, 73
1, 57505, Note_on_c, 0, 71, 0
1, 57505, Note_on_c, 0, 77, 0
1, 57505, Note_on_c, 0, 65, 0
1, 57508, Note_on_c, 0, 68, 0
1, 57508, Note_on_c, 0, 76, 60
1, 57508, Note_on_c, 0, 64, 51
1, 57621, Note_on_c, 0, 88, 0
1, 57621, Note_on_c, 0, 100, 0
1, 57621, Note_on_c, 0, 98, 84
1, 57624, Note_on_c, 0, 86, 71
1, 57624, Note_on_c, 0, 64, 0
1, 57624, Note_on_c, 0, 76, 0
1, 57627, Note_on_c, 0, 74, 58
1, 57627, Note_on_c, 0, 62, 49
1, 57744, Note_on_c, 0, 86, 0
1, 57744, Note_on_c, 0, 98, 0
1, 57744, Note_on_c, 0, 96, 83
1, 57747, Note_on_c, 0, 84, 70
1, 57747, Note_on_c, 0, 62, 0
1, 57747, Note_on_c, 0, 74, 0
1, 57750, Note_on_c, 0, 72, 58
1, 57750, Note_on_c, 0, 60, 49
1, 57868, Note_on_c, 0, 84, 0
1, 57868, Note_on_c, 0, 96, 0
1, 57868, Note_on_c, 0, 95, 81
1, 57871, Note_on_c, 0, 83, 68
1, 57871, Note_on_c, 0, 60, 0
1, 57871, Note_on_c, 0, 72, 0
1, 57874, Note_on_c, 0, 71, 56
1, 57874, Note_on_c, 0, 59, 47
1, 57874, Control_c, 0, 64, 0
1, 57932, Control_c, 0, 64, 127
1, 57992, Note_on_c, 0, 83, 0
1, 57992, Note_on_c, 0, 95, 0
1, 57992, Note_on_c, 0, 93, 80
1, 57995, Note_on_c, 0, 81, 68
1, 57995, Note_on_c, 0, 59, 0
1, 57995, Note_on_c, 0, 71, 0
1, 57998, Note_on_c, 0, 69, 56
1, 57998, Note_on_c, 0, 57, 47
1, 58117, Note_on_c, 0, 81, 0
1, 58117, Note_on_c, 0, 93, 0
1, 58117, Note_on_c, 0, 92, 79
1, 58120, Note_on_c, 0, 80, 67
1, 58120, Note_on_c, 0, 57, 0
1, 58120, Note_on_c, 0, 69, 0
1, 58123, Note_on_c, 0, 68, 55
1, 58123, Note_on_c, 0, 56, 46
1, 58243, Note_on_c, 0, 80, 0
1, 58243, Note_on_c, 0, 92, 0
1, 58243, Note_on_c, 0, 88, 77
1, 58246, Note_on_c, 0, 76, 65
1, 58246, Note_on_c, 0, 56, 0
1, 58246, Note_on_c, 0, 68, 0
1, 58249, Note_on_c, 0, 64, 53
1, 58249, Note_on_c, 0, 52, 45
1, 58369, Note_on_c, 0, 76, 0
1, 58369, Note_on_c, 0, 88, 0
1, 58369, Note_on_c, 0, 89, 80
1, 58372, Note_on_c, 0, 77, 68
1, 58372, Note_on_c, 0, 80, 68
1, 58372, Note_on_c, 0, 83, 68
1, 58375, Note_on_c, 0, 52, 0
1, 58375, Note_on_c, 0, 64, 0
1, 58375, Note_on_c, 0, 65, 59
1, 58378, Note_on_c, 0, 53, 50
1, 58378, Note_on_c, 0, 56, 50
1, 58378, Note_on_c, 0, 59, 50
1, 58381, Control_c, 0, 64, 0
1, 58407, Control_c, 0, 64, 127
1, 58493, Note_on_c, 0, 83, 0
1, 58493, Note_on_c, 0, 89, 0
1, 58493, Note_on_c, 0, 77, 0
1, 58496, Note_on_c, 0, 80, 0
1, 58496, Note_on_c, 0, 88, 77
1, 58496, Note_on_c, 0, 76, 65
1, 58499, Note_on_c, 0, 59, 0
1, 58499, Note_on_c, 0, 65, 0
1, 58499, Note_on_c, 0, 53, 0
1, 58502, Note_on_c, 0, 56, 0
1, 58502, Note_on_c, 0, 64, 58
1, 58502, Note_on_c, 0, 52, 49
1, 58617, Note_on_c, 0, 76, 0
1, 58617, Note_on_c, 0, 88, 0
1, 58617, Note_on_c, 0, 86, 75
1, 58620, Note_on_c, 0, 74, 63
1, 58620, Note_on_c, 0, 52, 0
1, 58620, Note_on_c, 0, 64, 0
1, 58623, Note_on_c, 0, 62, 56
1, 58623, Note_on_c, 0, 50, 47
1, 58743, Note_on_c, 0, 74, 0
1, 58743, Note_on_c, 0, 86, 0
1, 58743, Note_on_c, 0, 84, 73
1, 58746, Note_on_c, 0, 72, 62
1, 58746, Note_on_c, 0, 50, 0
1, 58746, Note_on_c, 0, 62, 0
1, 58749, Note_on_c, 0, 60, 55
1, 58749, Note_on_c, 0, 48, 46
1, 58869, Note_on_c, 0, 72, 0
1, 58869, Note_on_c, 0, 84, 0
1, 58869, Note_on_c, 0, 83, 72
1, 58872, Note_on_c, 0, 71, 61
1, 58872, Note_on_c, 0, 48, 0
1, 58872, Note_on_c, 0, 60, 0
1, 58875, Note_on_c, 0, 59, 53
1, 58875, Note_on_c, 0, 47, 45
1, 58875, Control_c, 0, 64, 0
1, 58913, Control_c, 0, 64, 127
1, 58996, Note_on_c, 0, 71, 0
1, 58996, Note_on_c, 0, 83, 0
1, 58996, Note_on_c, 0, 81, 70
1, 58999, Note_on_c, 0, 69, 59
1, 58999, Note_on_c, 0, 47, 0
1, 58999, Note_on_c, 0, 59, 0
1, 59002, Note_on_c, 0, 57, 51
1, 59002, Note_on_c, 0, 45, 43
1, 59124, Note_on_c, 0, 69, 0
1, 59124, Note_on_c, 0, 81, 0
1, 59124, Note_on_c, 0, 80, 68
1, 59127, Note_on_c, 0, 68, 57
1, 59127, Note_on_c, 0, 45, 0
1, 59127, Note_on_c, 0, 57, 0
1, 59130, Note_on_c, 0, 56, 50
1, 59130, Note_on_c, 0, 44, 42
1, 59255, Note_on_c, 0, 68, 0
1, 59255, Note_on_c, 0, 80, 0
1, 59255, Note_on_c, 0, 76, 67
1, 59258, Note_on_c, 0, 64, 56
1, 59258, Note_on_c, 0, 44, 0
1, 59258, Note_on_c, 0, 56, 0
1, 59261, Note_on_c, 0, 52, 48
1, 59261, Note_on_c, 0, 40, 40
1, 59387, Note_on_c, 0, 64, 0
1, 59387, Note_on_c, 0, 76, 0
1, 59387, Note_on_c, 0, 64, 67
1, 59390, Note_on_c, 0, 76, 67
1, 59390, Note_on_c, 0, 69, 72
1, 59390, Note_on_c, 0, 40, 0
1, 59393, Note_on_c, 0, 52, 0
1, 59393, Note_on_c, 0, 57, 65
1, 59393, Note_on_c, 0, 45, 55
1, 59396, Control_c, 0, 64, 0
1, 59439, Control_c, 0, 64, 127
1, 59516, Note_on_c, 0, 69, 0
1, 59516, Note_on_c, 0, 76, 0
1, 59516, Note_on_c, 0, 64, 0
1, 59519, Note_on_c, 0, 72, 66
1, 59519, Note_on_c, 0, 45, 0
1, 59519, Note_on_c, 0, 57, 0
1, 59522, Note_on_c, 0, 60, 59
1, 59522, Note_on_c, 0, 48, 50
1, 59543, Control_c, 0, 64, 0
1, 59580, Note_on_c, 0, 72, 0
1, 59580, Note_on_c, 0, 48, 0
1, 59580, Note_on_c, 0, 60, 0
1, 59644, Note_on_c, 0, 64, 67
1, 59644, Note_on_c, 0, 76, 67
1, 59644, Note_on_c, 0, 68, 73
1, 59647, Note_on_c, 0, 56, 66
1, 59647, Note_on_c, 0, 44, 56
1, 59689, Control_c, 0, 64, 127
1, 59763, Control_c, 0, 64, 0
1, 59772, Note_on_c, 0, 68, 0
1, 59772, Note_on_c, 0, 76, 0
1, 59772, Note_on_c, 0, 64, 0
1, 59775, Note_on_c, 0, 71, 72
1, 59775, Note_on_c, 0, 44, 0
1, 59775, Note_on_c, 0, 56, 0
1, 59778, Note_on_c, 0, 59, 60
1, 59778, Note_on_c, 0, 47, 51
1, 59839, Note_on_c, 0, 71, 0
1, 59839, Note_on_c, 0, 47, 0
1, 59839, Note_on_c, 0, 59, 0
1, 59905, Note_on_c, 0, 81, 72
1, 59905, Note_on_c, 0, 69, 61
1, 59905, Note_on_c, 0, 72, 61
1, 59908, Note_on_c, 0, 57, 65
1, 59908, Note_on_c, 0, 45, 55
1, 59908, Note_on_c, 0, 48, 55
1, 59911, Note_on_c, 0, 52, 55
1, 59938, Control_c, 0, 64, 127
1, 60033, Note_on_c, 0, 72, 0
1, 60033, Note_on_c, 0, 69, 0
1, 60033, Note_on_c, 0, 81, 0
1, 60036, Note_on_c, 0, 84, 66
1, 60036, Note_on_c, 0, 72, 56
1, 60036, Note_on_c, 0, 76, 56
1, 60039, Note_on_c, 0, 52, 0
1, 60039, Note_on_c, 0, 57, 0
1, 60039, Note_on_c, 0, 45, 0
1, 60042, Note_on_c, 0, 48, 0
1, 60081, Control_c, 0, 64, 0
1, 60096, Note_on_c, 0, 76, 0
1, 60096, Note_on_c, 0, 72, 0
1, 60096, Note_on_c, 0, 84, 0
1, 60160, Note_on_c, 0, 80, 73
1, 60160, Note_on_c, 0, 68, 62
1, 60160, Note_on_c, 0, 71, 62
1, 60163, Note_on_c, 0, 52, 65
1, 60163, Note_on_c, 0, 40, 55
1, 60163, Note_on_c, 0, 44, 55
1, 60166, Note_on_c, 0, 47, 55
1, 60197, Control_c, 0, 64, 127
1, 60288, Note_on_c, 0, 71, 0
1, 60288, Note_on_c, 0, 68, 0
1, 60288, Note_on_c, 0, 80, 0
1, 60291, Note_on_c, 0, 83, 72
1, 60291, Note_on_c, 0, 71, 61
1, 60291, Note_on_c, 0, 74, 61
1, 60294, Note_on_c, 0, 47, 0
1, 60294, Note_on_c, 0, 52, 0
1, 60294, Note_on_c, 0, 40, 0
1, 60297, Note_on_c, 0, 44, 0
1, 60313, Control_c, 0, 64, 0
1, 60355, Note_on_c, 0, 74, 0
1, 60355, Note_on_c, 0, 71, 0
1, 60355, Note_on_c, 0, 83, 0
1, 60421, Note_on_c, 0, 81, 85
1, 60421, Note_on_c, 0, 69, 71
1, 60421, Note_on_c, 0, 72, 71
1, 60424, Note_on_c, 0, 57, 73
1, 60424, Note_on_c, 0, 45, 61
1, 60424, Note_on_c, 0, 48, 61
1, 60427, Note_on_c, 0, 52, 61
1, 60437, Control_c, 0, 64, 127
1, 60555, Note_on_c, 0, 72, 0
1, 60555, Note_on_c, 0, 69, 0
1, 60555, Note_on_c, 0, 81, 0
1, 60558, Note_on_c, 0, 52, 0
1, 60558, Note_on_c, 0, 57, 0
1, 60558, Note_on_c, 0, 45, 0
1, 60561, Note_on_c, 0, 48, 0
1, 60721, Control_c, 0, 64, 0
1, 60958, Note_on_c, 0, 89, 91
1, 60958, Note_on_c, 0, 77, 76
1, 60958, Note_on_c, 0, 81, 76
1, 60961, Note_on_c, 0, 86, 76
1, 60961, Note_on_c, 0, 50, 74
1, 60961, Note_on_c, 0, 38, 61
1, 60964, Note_on_c, 0, 41, 61
1, 60964, Note_on_c, 0, 45, 61
1, 61092, Note_on_c, 0, 86, 0
1, 61092, Note_on_c, 0, 89, 0
1, 61092, Note_on_c, 0, 77, 0
1, 61095, Note_on_c, 0, 81, 0
1, 61095, Note_on_c, 0, 45, 0
1, 61095, Note_on_c, 0, 50, 0
1, 61098, Note_on_c, 0, 38, 0
1, 61098, Note_on_c, 0, 41, 0
1, 61098, Control_c, 0, 64, 127
1, 61265, Control_c, 0, 64, 0
1, 61494, Note_on_c, 0, 93, 98
1, 61494, Note_on_c, 0, 81, 82
1, 61494, Note_on_c, 0, 84, 82
1, 61497, Note_on_c, 0, 88, 82
1, 61497, Note_on_c, 0, 45, 76
1, 61497, Note_on_c, 0, 33, 64
1, 61500, Note_on_c, 0, 36, 64
1, 61500, Note_on_c, 0, 40, 64
1, 61508, Control_c, 0, 64, 127
1, 62030, Note_on_c, 0, 88, 0
1, 62030, Note_on_c, 0, 93, 0
1, 62030, Note_on_c, 0, 81, 0
1, 62033, Note_on_c, 0, 84, 0
1, 62033, Note_on_c, 0, 40, 0
1, 62033, Note_on_c, 0, 45, 0
1, 62036, Note_on_c, 0, 33, 0
1, 62036, Note_on_c, 0, 36, 0
1, 62045, Control_c, 0, 64, 0
1, 62516, Note_on_c, 0, 64, 80
1, 62589, Note_on_c, 0, 64, 0
1, 62589, Note_on_c, 0, 64, 88
1, 62731, Note_on_c, 0, 64, 0
1, 63156, Note_on_c, 0, 68, 80
1, 63156, Note_on_c, 0, 64, 68
1, 63156, Note_on_c, 0, 61, 69
1, 63301, Note_on_c, 0, 64, 0
1, 63301, Note_on_c, 0, 68, 0
1, 63301, Note_on_c, 0, 61, 0
1, 63737, Note_on_c, 0, 71, 88
1, 63737, Note_on_c, 0, 63, 74
1, 63737, Note_on_c, 0, 68, 74
1, 63740, Note_on_c, 0, 56, 69
1, 64809, Note_on_c, 0, 68, 0
1, 64809, Note_on_c, 0, 63, 0
1, 64809, Note_on_c, 0, 71, 0
1, 64812, Note_on_c, 0, 76, 80
1, 64812, Note_on_c, 0, 64, 68
1, 64812, Note_on_c, 0, 68, 68
1, 64815, Note_on_c, 0, 56, 0
1, 64815, Note_on_c, 0, 61, 59
1, 64815, Note_on_c, 0, 49, 49
1, 64879, Note_on_c, 0, 68, 0
1, 64879, Note_on_c, 0, 64, 0
1, 64879, Note_on_c, 0, 76, 0
1, 64882, Note_on_c, 0, 68, 74
1, 64882, Note_on_c, 0, 71, 88
1, 64882, Note_on_c, 0, 63, 74
1, 64885, Note_on_c, 0, 49, 0
1, 64885, Note_on_c, 0, 61, 0
1, 64885, Note_on_c, 0, 56, 66
1, 65370, Note_on_c, 0, 63, 0
1, 65370, Note_on_c, 0, 71, 0
1, 65370, Note_on_c, 0, 68, 0
1, 65373, Note_on_c, 0, 76, 82
1, 65373, Note_on_c, 0, 64, 69
1, 65373, Note_on_c, 0, 68, 69
1, 65376, Note_on_c, 0, 56, 0
1, 65376, Note_on_c, 0, 61, 60
1, 65376, Note_on_c, 0, 49, 50
1, 65440, Note_on_c, 0, 68, 0
1, 65440, Note_on_c, 0, 64, 0
1, 65440, Note_on_c, 0, 76, 0
1, 65443, Note_on_c, 0, 71, 88
1, 65443, Note_on_c, 0, 63, 74
1, 65443, Note_on_c, 0, 68, 74
1, 65446, Note_on_c, 0, 49, 0
1, 65446, Note_on_c, 0, 61, 0
1, 65446, Note_on_c, 0, 56, 68
1, 65932, Note_on_c, 0, 68, 0
1, 65932, Note_on_c, 0, 63, 0
1, 65932, Note_on_c, 0, 71, 0
1, 65935, Note_on_c, 0, 76, 81
1, 65935, Note_on_c, 0, 64, 68
1, 65935, Note_on_c, 0, 68, 68
1, 65938, Note_on_c, 0, 56, 0
1, 65938, Note_on_c, 0, 61, 61
1, 65938, Note_on_c, 0, 49, 51
1, 66002, Note_on_c, 0, 68, 0
1, 66002, Note_on_c, 0, 64, 0
1, 66002, Note_on_c, 0, 76, 0
1, 66005, Note_on_c, 0, 71, 88
1, 66005, Note_on_c, 0, 63, 74
1, 66005, Note_on_c, 0, 68, 74
1, 66008, Note_on_c, 0, 49, 0
1, 66008, Note_on_c, 0, 61, 0
1, 66008, Note_on_c, 0, 56, 83
1, 66011, Note_on_c, 0, 44, 70
1, 66144, Note_on_c, 0, 44, 0
1, 66144, Note_on_c, 0, 56, 0
1, 66287, Note_on_c, 0, 55, 83
1, 66287, Note_on_c, 0, 43, 70
1, 66430, Note_on_c, 0, 43, 0
1, 66430, Note_on_c, 0, 55, 0
1, 66573, Note_on_c, 0, 54, 83
1, 66573, Note_on_c, 0, 42, 70
1, 66718, Note_on_c, 0, 42, 0
1, 66718, Note_on_c, 0, 54, 0
1, 66868, Note_on_c, 0, 53, 83
1, 66868, Note_on_c, 0, 41, 70
1, 67024, Note_on_c, 0, 41, 0
1, 67024, Note_on_c, 0, 53, 0
1, 67184, Note_on_c, 0, 68, 0
1, 67184, Note_on_c, 0, 63, 0
1, 67184, Note_on_c, 0, 71, 0
1, 67187, Note_on_c, 0, 76, 89
1, 67187, Note_on_c, 0, 62, 74
1, 67187, Note_on_c, 0, 64, 74
1, 67190, Note_on_c, 0, 68, 74
1, 67190, Note_on_c, 0, 71, 74
1, 67190, Note_on_c, 0, 52, 77
1, 67193, Note_on_c, 0, 40, 64
1, 67299, Note_on_c, 0, 71, 0
1, 67299, Note_on_c, 0, 64, 0
1, 67299, Note_on_c, 0, 76, 0
1, 67302, Note_on_c, 0, 62, 0
1, 67302, Note_on_c, 0, 68, 0
1, 67302, Note_on_c, 0, 40, 0
1, 67305, Note_on_c, 0, 52, 0
1, 68100, Note_on_c, 0, 76, 50
1, 68369, Note_on_c, 0, 76, 0
1, 68369, Note_on_c, 0, 84, 57
1, 68369, Note_on_c, 0, 57, 40
1, 68417, Control_c, 0, 64, 127
1, 68453, Note_on_c, 0, 69, 29
1, 68495, Note_on_c, 0, 84, 0
1, 68495, Note_on_c, 0, 88, 50
1, 68495, Note_on_c, 0, 57, 0
1, 68537, Note_on_c, 0, 69, 0
1, 68537, Note_on_c, 0, 71, 31
1, 68620, Note_on_c, 0, 88, 0
1, 68620, Note_on_c, 0, 84, 55
1, 68620, Note_on_c, 0, 76, 40
1, 68623, Note_on_c, 0, 71, 0
1, 68623, Note_on_c, 0, 72, 32
1, 68628, Control_c, 0, 64, 0
1, 68673, Control_c, 0, 64, 127
1, 68706, Note_on_c, 0, 72, 0
1, 68706, Note_on_c, 0, 71, 33
1, 68748, Note_on_c, 0, 76, 0
1, 68748, Note_on_c, 0, 84, 0
1, 68748, Note_on_c, 0, 77, 40
1, 68789, Control_c, 0, 64, 0
1, 68795, Note_on_c, 0, 71, 0
1, 68795, Note_on_c, 0, 69, 32
1, 68818, Note_on_c, 0, 77, 0
1, 68888, Note_on_c, 0, 83, 55
1, 68888, Note_on_c, 0, 76, 40
1, 68888, Note_on_c, 0, 69, 0
1, 68891, Note_on_c, 0, 55, 40
1, 68932, Control_c, 0, 64, 127
1, 68972, Note_on_c, 0, 67, 32
1, 69014, Note_on_c, 0, 83, 0
1, 69014, Note_on_c, 0, 86, 50
1, 69014, Note_on_c, 0, 55, 0
1, 69056, Note_on_c, 0, 67, 0
1, 69056, Note_on_c, 0, 69, 33
1, 69139, Note_on_c, 0, 86, 0
1, 69139, Note_on_c, 0, 76, 0
1, 69139, Note_on_c, 0, 83, 53
1, 69142, Note_on_c, 0, 74, 40
1, 69142, Note_on_c, 0, 69, 0
1, 69142, Note_on_c, 0, 71, 34
1, 69145, Control_c, 0, 64, 0
1, 69207, Control_c, 0, 64, 127
1, 69225, Note_on_c, 0, 71, 0
1, 69225, Note_on_c, 0, 69, 34
1, 69268, Note_on_c, 0, 74, 0
1, 69268, Note_on_c, 0, 83, 0
1, 69268, Note_on_c, 0, 76, 40
1, 69308, Control_c, 0, 64, 0
1, 69314, Note_on_c, 0, 69, 0
1, 69314, Note_on_c, 0, 67, 31
1, 69338, Note_on_c, 0, 76, 0
1, 69407, Note_on_c, 0, 81, 54
1, 69407, Note_on_c, 0, 74, 40
1, 69407, Note_on_c, 0, 67, 0
1, 69410, Note_on_c, 0, 53, 40
1, 69443, Control_c, 0, 64, 127
1, 69491, Note_on_c, 0, 65, 31
1, 69533, Note_on_c, 0, 81, 0
1, 69533, Note_on_c, 0, 84, 50
1, 69533, Note_on_c, 0, 53, 0
1, 69575, Note_on_c, 0, 65, 0
1, 69575, Note_on_c, 0, 67, 33
1, 69659, Note_on_c, 0, 84, 0
1, 69659, Note_on_c, 0, 74, 0
1, 69659, Note_on_c, 0, 81, 57
1, 69662, Note_on_c, 0, 72, 40
1, 69662, Note_on_c, 0, 67, 0
1, 69662, Note_on_c, 0, 69, 34
1, 69668, Control_c, 0, 64, 0
1, 69705, Control_c, 0, 64, 127
1, 69746, Note_on_c, 0, 69, 0
1, 69746, Note_on_c, 0, 67, 34
1, 69789, Note_on_c, 0, 72, 0
1, 69789, Note_on_c, 0, 81, 0
1, 69789, Note_on_c, 0, 74, 40
1, 69829, Control_c, 0, 64, 0
1, 69836, Note_on_c, 0, 67, 0
1, 69836, Note_on_c, 0, 65, 32
1, 69859, Note_on_c, 0, 74, 0
1, 69928, Note_on_c, 0, 80, 55
1, 69928, Note_on_c, 0, 72, 40
1, 69928, Note_on_c, 0, 65, 0
1, 69931, Note_on_c, 0, 52, 40
1, 69967, Control_c, 0, 64, 127
1, 70013, Note_on_c, 0, 64, 31
1, 70055, Note_on_c, 0, 80, 0
1, 70055, Note_on_c, 0, 83, 50
1, 70055, Note_on_c, 0, 52, 0
1, 70097, Note_on_c, 0, 64, 0
1, 70097, Note_on_c, 0, 65, 32
1, 70181, Note_on_c, 0, 83, 0
1, 70181, Note_on_c, 0, 72, 0
1, 70181, Note_on_c, 0, 80, 55
1, 70184, Note_on_c, 0, 71, 40
1, 70184, Note_on_c, 0, 65, 0
1, 70184, Note_on_c, 0, 68, 33
1, 70187, Control_c, 0, 64, 0
1, 70224, Control_c, 0, 64, 127
1, 70268, Note_on_c, 0, 68, 0
1, 70268, Note_on_c, 0, 65, 32
1, 70311, Note_on_c, 0, 71, 0
1, 70311, Note_on_c, 0, 80, 0
1, 70311, Note_on_c, 0, 72, 40
1, 70344, Control_c, 0, 64, 0
1, 70357, Note_on_c, 0, 65, 0
1, 70357, Note_on_c, 0, 64, 30
1, 70380, Note_on_c, 0, 72, 0
1, 70449, Note_on_c, 0, 77, 54
1, 70449, Note_on_c, 0, 71, 40
1, 70449, Note_on_c, 0, 64, 0
1, 70452, Note_on_c, 0, 50, 40
1, 70501, Control_c, 0, 64, 127
1, 70533, Note_on_c, 0, 62, 30
1, 70576, Note_on_c, 0, 77, 0
1, 70576, Note_on_c, 0, 81, 50
1, 70576, Note_on_c, 0, 50, 0
1, 70618, Note_on_c, 0, 62, 0
1, 70618, Note_on_c, 0, 64, 31
1, 70702, Note_on_c, 0, 81, 0
1, 70702, Note_on_c, 0, 71, 0
1, 70702, Note_on_c, 0, 77, 54
1, 70705, Note_on_c, 0, 69, 40
1, 70705, Note_on_c, 0, 64, 0
1, 70705, Note_on_c, 0, 65, 32
1, 70708, Control_c, 0, 64, 0
1, 70748, Control_c, 0, 64, 127
1, 70789, Note_on_c, 0, 65, 0
1, 70789, Note_on_c, 0, 62, 32
1, 70833, Note_on_c, 0, 69, 0
1, 70833, Note_on_c, 0, 77, 0
1, 70833, Note_on_c, 0, 71, 40
1, 70871, Control_c, 0, 64, 0
1, 70881, Note_on_c, 0, 62, 0
1, 70881, Note_on_c, 0, 60, 30
1, 70905, Note_on_c, 0, 71, 0
1, 70977, Note_on_c, 0, 76, 63
1, 70977, Note_on_c, 0, 68, 48
1, 70977, Note_on_c, 0, 60, 0
1, 70980, Note_on_c, 0, 52, 43
1, 70980, Note_on_c, 0, 59, 43
1, 71025, Control_c, 0, 64, 127
1, 71103, Note_on_c, 0, 68, 0
1, 71103, Note_on_c, 0, 71, 45
1, 71103, Note_on_c, 0, 59, 0
1, 71106, Note_on_c, 0, 64, 40
1, 71228, Note_on_c, 0, 71, 0
1, 71228, Note_on_c, 0, 68, 50
1, 71228, Note_on_c, 0, 64, 0
1, 71231, Note_on_c, 0, 52, 0
1, 71231, Note_on_c, 0, 59, 45
1, 71357, Note_on_c, 0, 68, 0
1, 71357, Note_on_c, 0, 76, 0
1, 71357, Note_on_c, 0, 71, 45
1, 71360, Note_on_c, 0, 80, 60
1, 71360, Note_on_c, 0, 59, 0
1, 71360, Note_on_c, 0, 64, 40
1, 71490, Note_on_c, 0, 80, 0
1, 71490, Note_on_c, 0, 71, 0
1, 71490, Note_on_c, 0, 76, 66
1, 71493, Note_on_c, 0, 68, 48
1, 71493, Note_on_c, 0, 64, 0
1, 71493, Note_on_c, 0, 52, 43
1, 71496, Note_on_c, 0, 59, 43
1, 71616, Note_on_c, 0, 68, 0
1, 71616, Note_on_c, 0, 71, 45
1, 71616, Note_on_c, 0, 59, 0
1, 71619, Note_on_c, 0, 64, 40
1, 71741, Note_on_c, 0, 71, 0
1, 71741, Note_on_c, 0, 68, 50
1, 71741, Note_on_c, 0, 64, 0
1, 71744, Note_on_c, 0, 52, 0
1, 71744, Note_on_c, 0, 59, 45
1, 71873, Note_on_c, 0, 68, 0
1, 71873, Note_on_c, 0, 76, 0
1, 71873, Note_on_c, 0, 71, 45
1, 71876, Note_on_c, 0, 80, 57
1, 71876, Note_on_c, 0, 59, 0
1, 71876, Note_on_c, 0, 64, 40
1, 72008, Note_on_c, 0, 80, 0
1, 72008, Note_on_c, 0, 71, 0
1, 72008, Note_on_c, 0, 76, 67
1, 72011, Note_on_c, 0, 68, 56
1, 72011, Note_on_c, 0, 64, 0
1, 72011, Note_on_c, 0, 52, 43
1, 72014, Note_on_c, 0, 59, 43
1, 72134, Note_on_c, 0, 68, 0
1, 72134, Note_on_c, 0, 76, 0
1, 72134, Note_on_c, 0, 71, 60
1, 72137, Note_on_c, 0, 80, 60
1, 72137, Note_on_c, 0, 59, 0
1, 72137, Note_on_c, 0, 64, 40
1, 72196, Note_on_c, 0, 80, 0
1, 72196, Note_on_c, 0, 71, 0
1, 72196, Note_on_c, 0, 64, 0
1, 72259, Note_on_c, 0, 76, 68
1, 72259, Note_on_c, 0, 68, 57
1, 72259, Note_on_c, 0, 52, 0
1, 72262, Note_on_c, 0, 59, 45
1, 72389, Note_on_c, 0, 68, 0
1, 72389, Note_on_c, 0, 76, 0
1, 72389, Note_on_c, 0, 80, 62
1, 72392, Note_on_c, 0, 71, 52
1, 72392, Note_on_c, 0, 59, 0
1, 72392, Note_on_c, 0, 64, 40
1, 72455, Note_on_c, 0, 71, 0
1, 72455, Note_on_c, 0, 80, 0
1, 72455, Note_on_c, 0, 64, 0
1, 72522, Note_on_c, 0, 76, 71
1, 72522, Note_on_c, 0, 68, 60
1, 72522, Note_on_c, 0, 59, 56
1, 72525, Note_on_c, 0, 52, 47
1, 72535, Control_c, 0, 64, 0
1, 72589, Note_on_c, 0, 76, 0
1, 72589, Note_on_c, 0, 52, 0
1, 72589, Note_on_c, 0, 59, 0
1, 72656, Note_on_c, 0, 71, 62
1, 72720, Note_on_c, 0, 71, 0
1, 72784, Note_on_c, 0, 68, 0
1, 72784, Note_on_c, 0, 68, 63
1, 72784, Note_on_c, 0, 64, 60
1, 72787, Note_on_c, 0, 52, 51
1, 72787, Note_on_c, 0, 56, 51
1, 72787, Note_on_c, 0, 59, 51
1, 72847, Note_on_c, 0, 59, 0
1, 72847, Note_on_c, 0, 64, 0
1, 72847, Note_on_c, 0, 52, 0
1, 72850, Note_on_c, 0, 56, 0
1, 72910, Note_on_c, 0, 71, 64
1, 72974, Note_on_c, 0, 71, 0
1, 73038, Note_on_c, 0, 68, 0
1, 73038, Note_on_c, 0, 76, 67
1, 73038, Note_on_c, 0, 64, 63
1, 73041, Note_on_c, 0, 56, 68
1, 73041, Note_on_c, 0, 59, 68
1, 73041, Note_on_c, 0, 47, 57
1, 73044, Note_on_c, 0, 52, 57
1, 73100, Note_on_c, 0, 76, 0
1, 73100, Note_on_c, 0, 52, 0
1, 73100, Note_on_c, 0, 56, 0
1, 73103, Note_on_c, 0, 59, 0
1, 73103, Note_on_c, 0, 47, 0
1, 73162, Note_on_c, 0, 71, 72
1, 73226, Note_on_c, 0, 71, 0
1, 73291, Note_on_c, 0, 64, 0
1, 73291, Note_on_c, 0, 76, 79
1, 73291, Note_on_c, 0, 64, 67
1, 73294, Note_on_c, 0, 56, 75
1, 73294, Note_on_c, 0, 44, 63
1, 73294, Note_on_c, 0, 47, 63
1, 73297, Note_on_c, 0, 52, 63
1, 73357, Note_on_c, 0, 64, 0
1, 73357, Note_on_c, 0, 76, 0
1, 73357, Note_on_c, 0, 52, 0
1, 73360, Note_on_c, 0, 56, 0
1, 73360, Note_on_c, 0, 44, 0
1, 73360, Note_on_c, 0, 47, 0
1, 73423, Note_on_c, 0, 80, 80
1, 73423, Note_on_c, 0, 68, 68
1, 73489, Note_on_c, 0, 68, 0
1, 73489, Note_on_c, 0, 80, 0
1, 73555, Note_on_c, 0, 71, 79
1, 73555, Note_on_c, 0, 76, 79
1, 73555, Note_on_c, 0, 83, 93
1, 73558, Note_on_c, 0, 80, 79
1, 73558, Note_on_c, 0, 47, 60
1, 73558, Note_on_c, 0, 44, 60
1, 73561, Note_on_c, 0, 52, 70
1, 73561, Note_on_c, 0, 40, 60
1, 73638, Control_c, 0, 64, 127
1, 74092, Note_on_c, 0, 80, 0
1, 74092, Note_on_c, 0, 71, 0
1, 74092, Note_on_c, 0, 76, 0
1, 74095, Note_on_c, 0, 83, 0
1, 74095, Note_on_c, 0, 88, 99
1, 74095, Note_on_c, 0, 76, 82
1, 74098, Note_on_c, 0, 80, 82
1, 74098, Note_on_c, 0, 83, 82
1, 74098, Note_on_c, 0, 40, 0
1, 74101, Note_on_c, 0, 47, 0
1, 74101, Note_on_c, 0, 44, 0
1, 74101, Note_on_c, 0, 52, 0
1, 74104, Note_on_c, 0, 64, 74
1, 74104, Note_on_c, 0, 59, 62
1, 74104, Note_on_c, 0, 56, 62
1, 74107, Note_on_c, 0, 52, 62
1, 74226, Note_on_c, 0, 83, 0
1, 74226, Note_on_c, 0, 88, 0
1, 74226, Note_on_c, 0, 76, 0
1, 74229, Note_on_c, 0, 80, 0
1, 74229, Note_on_c, 0, 52, 0
1, 74229, Note_on_c, 0, 64, 0
1, 74232, Note_on_c, 0, 59, 0
1, 74232, Note_on_c, 0, 56, 0
1, 74277, Control_c, 0, 64, 0
1, 74360, Note_on_c, 0, 76, 75
1, 74360, Note_on_c, 0, 52, 67
1, 74443, Note_on_c, 0, 76, 0
1, 74443, Note_on_c, 0, 78, 78
1, 74443, Note_on_c, 0, 52, 0
1, 74446, Note_on_c, 0, 54, 71
1, 74527, Note_on_c, 0, 78, 0
1, 74527, Note_on_c, 0, 80, 80
1, 74527, Note_on_c, 0, 54, 0
1, 74530, Note_on_c, 0, 56, 75
1, 74610, Note_on_c, 0, 80, 0
1, 74610, Note_on_c, 0, 69, 76
1, 74610, Note_on_c, 0, 81, 90
1, 74613, Note_on_c, 0, 56, 0
1, 74613, Note_on_c, 0, 57, 70
1, 74613, Note_on_c, 0, 45, 59
1, 74616, Note_on_c, 0, 72, 76
1, 74741, Note_on_c, 0, 81, 0
1, 74741, Note_on_c, 0, 69, 0
1, 74741, Note_on_c, 0, 45, 0
1, 74744, Note_on_c, 0, 57, 0
1, 74744, Note_on_c, 0, 72, 0
1, 74872, Note_on_c, 0, 71, 63
1, 74872, Note_on_c, 0, 68, 63
1, 74872, Note_on_c, 0, 80, 74
1, 74875, Note_on_c, 0, 53, 56
1, 74875, Note_on_c, 0, 41, 47
1, 74933, Note_on_c, 0, 80, 0
1, 74933, Note_on_c, 0, 68, 0
1, 74933, Note_on_c, 0, 71, 0
1, 74936, Note_on_c, 0, 41, 0
1, 74936, Note_on_c, 0, 53, 0
1, 74995, Note_on_c, 0, 71, 57
1, 74995, Note_on_c, 0, 83, 68
1, 74995, Note_on_c, 0, 74, 57
1, 75060, Note_on_c, 0, 74, 0
1, 75060, Note_on_c, 0, 83, 0
1, 75060, Note_on_c, 0, 71, 0
1, 75125, Note_on_c, 0, 69, 71
1, 75125, Note_on_c, 0, 81, 84
1, 75125, Note_on_c, 0, 72, 71
1, 75128, Note_on_c, 0, 57, 70
1, 75128, Note_on_c, 0, 45, 59
1, 75252, Note_on_c, 0, 72, 0
1, 75252, Note_on_c, 0, 81, 0
1, 75252, Note_on_c, 0, 69, 0
1, 75255, Note_on_c, 0, 45, 0
1, 75255, Note_on_c, 0, 57, 0
1, 75380, Note_on_c, 0, 71, 61
1, 75380, Note_on_c, 0, 68, 61
1, 75380, Note_on_c, 0, 80, 72
1, 75383, Note_on_c, 0, 52, 56
1, 75383, Note_on_c, 0, 40, 47
1, 75441, Note_on_c, 0, 80, 0
1, 75441, Note_on_c, 0, 68, 0
1, 75441, Note_on_c, 0, 71, 0
1, 75444, Note_on_c, 0, 40, 0
1, 75444, Note_on_c, 0, 52, 0
1, 75502, Note_on_c, 0, 74, 56
1, 75502, Note_on_c, 0, 83, 67
1, 75502, Note_on_c, 0, 71, 56
1, 75567, Note_on_c, 0, 71, 0
1, 75567, Note_on_c, 0, 83, 0
1, 75567, Note_on_c, 0, 74, 0
1, 75631, Note_on_c, 0, 69, 71
1, 75631, Note_on_c, 0, 81, 84
1, 75631, Note_on_c, 0, 72, 71
1, 75634, Note_on_c, 0, 57, 70
1, 75634, Note_on_c, 0, 45, 59
1, 75700, Note_on_c, 0, 72, 0
1, 75700, Note_on_c, 0, 81, 0
1, 75700, Note_on_c, 0, 69, 0
1, 75703, Note_on_c, 0, 45, 0
1, 75703, Note_on_c, 0, 57, 0
1, 75906, Note_on_c, 0, 71, 61
1, 75906, Note_on_c, 0, 68, 61
1, 75906, Note_on_c, 0, 80, 73
1, 75909, Note_on_c, 0, 50, 61
1, 75909, Note_on_c, 0, 38, 51
1, 75909, Note_on_c, 0, 41, 51
1, 75972, Note_on_c, 0, 80, 0
1, 75972, Note_on_c, 0, 68, 0
1, 75972, Note_on_c, 0, 71, 0
1, 75975, Note_on_c, 0, 41, 0
1, 75975, Note_on_c, 0, 38, 0
1, 75975, Note_on_c, 0, 50, 0
1, 76173, Note_on_c, 0, 69, 70
1, 76173, Note_on_c, 0, 72, 70
1, 76173, Note_on_c, 0, 81, 83
1, 76176, Note_on_c, 0, 57, 70
1, 76176, Note_on_c, 0, 45, 59
1, 76176, Note_on_c, 0, 52, 59
1, 76719, Note_on_c, 0, 81, 0
1, 76719, Note_on_c, 0, 72, 0
1, 76719, Note_on_c, 0, 69, 0
1, 76722, Note_on_c, 0, 93, 75
1, 76722, Note_on_c, 0, 81, 63
1, 76722, Note_on_c, 0, 52, 0
1, 76725, Note_on_c, 0, 45, 0
1, 76725, Note_on_c, 0, 57, 0
1, 76781, Note_on_c, 0, 81, 0
1, 76781, Note_on_c, 0, 93, 0
1, 76843, Note_on_c, 0, 95, 79
1, 76843, Note_on_c, 0, 83, 67
1, 76905, Note_on_c, 0, 83, 0
1, 76905, Note_on_c, 0, 95, 0
1, 76967, Note_on_c, 0, 96, 86
1, 76967, Note_on_c, 0, 84, 72
1, 76967, Note_on_c, 0, 69, 75
1, 76970, Note_on_c, 0, 57, 63
1, 77031, Note_on_c, 0, 57, 0
1, 77031, Note_on_c, 0, 69, 0
1, 77095, Note_on_c, 0, 71, 79
1, 77095, Note_on_c, 0, 59, 67
1, 77160, Note_on_c, 0, 59, 0
1, 77160, Note_on_c, 0, 71, 0
1, 77225, Note_on_c, 0, 72, 86
1, 77225, Note_on_c, 0, 60, 72
1, 77351, Note_on_c, 0, 84, 0
1, 77351, Note_on_c, 0, 96, 0
1, 77351, Note_on_c, 0, 95, 74
1, 77354, Note_on_c, 0, 83, 62
1, 77410, Note_on_c, 0, 83, 0
1, 77410, Note_on_c, 0, 95, 0
1, 77469, Note_on_c, 0, 93, 87
1, 77469, Note_on_c, 0, 81, 73
1, 77591, Note_on_c, 0, 60, 0
1, 77591, Note_on_c, 0, 72, 0
1, 77591, Note_on_c, 0, 71, 74
1, 77594, Note_on_c, 0, 59, 62
1, 77654, Note_on_c, 0, 59, 0
1, 77654, Note_on_c, 0, 71, 0
1, 77717, Note_on_c, 0, 69, 87
1, 77717, Note_on_c, 0, 57, 73
1, 77845, Note_on_c, 0, 81, 0
1, 77845, Note_on_c, 0, 93, 0
1, 77845, Note_on_c, 0, 91, 75
1, 77848, Note_on_c, 0, 79, 63
1, 77906, Note_on_c, 0, 79, 0
1, 77906, Note_on_c, 0, 91, 0
1, 77966, Note_on_c, 0, 89, 88
1, 77966, Note_on_c, 0, 77, 74
1, 78092, Note_on_c, 0, 57, 0
1, 78092, Note_on_c, 0, 69, 0
1, 78092, Note_on_c, 0, 67, 75
1, 78095, Note_on_c, 0, 55, 63
1, 78155, Note_on_c, 0, 55, 0
1, 78155, Note_on_c, 0, 67, 0
1, 78218, Note_on_c, 0, 65, 88
1, 78218, Note_on_c, 0, 53, 74
1, 78344, Note_on_c, 0, 77, 0
1, 78344, Note_on_c, 0, 89, 0
1, 78344, Note_on_c, 0, 88, 81
1, 78347, Note_on_c, 0, 76, 68
1, 78404, Note_on_c, 0, 76, 0
1, 78404, Note_on_c, 0, 88, 0
1, 78464, Note_on_c, 0, 86, 81
1, 78464, Note_on_c, 0, 74, 68
1, 78527, Note_on_c, 0, 74, 0
1, 78527, Note_on_c, 0, 86, 0
1, 78590, Note_on_c, 0, 85, 81
1, 78590, Note_on_c, 0, 73, 68
1, 78590, Note_on_c, 0, 53, 0
1, 78593, Note_on_c, 0, 65, 0
1, 78593, Note_on_c, 0, 52, 75
1, 78593, Note_on_c, 0, 64, 75
1, 78655, Note_on_c, 0, 73, 0
1, 78655, Note_on_c, 0, 85, 0
1, 78655, Note_on_c, 0, 64, 0
1, 78658, Note_on_c, 0, 52, 0
1, 78720, Note_on_c, 0, 77, 76
1, 78720, Note_on_c, 0, 74, 76
1, 78720, Note_on_c, 0, 86, 90
1, 78723, Note_on_c, 0, 62, 70
1, 78723, Note_on_c, 0, 50, 59
1, 78846, Note_on_c, 0, 86, 0
1, 78846, Note_on_c, 0, 74, 0
1, 78846, Note_on_c, 0, 77, 0
1, 78849, Note_on_c, 0, 50, 0
1, 78849, Note_on_c, 0, 62, 0
1, 78973, Note_on_c, 0, 76, 63
1, 78973, Note_on_c, 0, 73, 63
1, 78973, Note_on_c, 0, 85, 74
1, 78976, Note_on_c, 0, 58, 56
1, 78976, Note_on_c, 0, 46, 47
1, 79033, Note_on_c, 0, 85, 0
1, 79033, Note_on_c, 0, 73, 0
1, 79033, Note_on_c, 0, 76, 0
1, 79036, Note_on_c, 0, 46, 0
1, 79036, Note_on_c, 0, 58, 0
1, 79094, Note_on_c, 0, 76, 57
1, 79094, Note_on_c, 0, 88, 68
1, 79094, Note_on_c, 0, 79, 57
1, 79159, Note_on_c, 0, 79, 0
1, 79159, Note_on_c, 0, 88, 0
1, 79159, Note_on_c, 0, 76, 0
1, 79224, Note_on_c, 0, 74, 71
1, 79224, Note_on_c, 0, 86, 84
1, 79224, Note_on_c, 0, 77, 71
1, 79227, Note_on_c, 0, 62, 70
1, 79227, Note_on_c, 0, 50, 59
1, 79350, Note_on_c, 0, 77, 0
1, 79350, Note_on_c, 0, 86, 0
1, 79350, Note_on_c, 0, 74, 0
1, 79353, Note_on_c, 0, 50, 0
1, 79353, Note_on_c, 0, 62, 0
1, 79476, Note_on_c, 0, 76, 61
1, 79476, Note_on_c, 0, 73, 61
1, 79476, Note_on_c, 0, 85, 72
1, 79479, Note_on_c, 0, 57, 56
1, 79479, Note_on_c, 0, 45, 47
1, 79537, Note_on_c, 0, 85, 0
1, 79537, Note_on_c, 0, 73, 0
1, 79537, Note_on_c, 0, 76, 0
1, 79540, Note_on_c, 0, 45, 0
1, 79540, Note_on_c, 0, 57, 0
1, 79598, Note_on_c, 0, 79, 56
1, 79598, Note_on_c, 0, 88, 67
1, 79598, Note_on_c, 0, 76, 56
1, 79665, Note_on_c, 0, 76, 0
1, 79665, Note_on_c, 0, 88, 0
1, 79665, Note_on_c, 0, 79, 0
1, 79733, Note_on_c, 0, 74, 71
1, 79733, Note_on_c, 0, 86, 84
1, 79733, Note_on_c, 0, 77, 71
1, 79736, Note_on_c, 0, 62, 70
1, 79736, Note_on_c, 0, 50, 59
1, 79799, Note_on_c, 0, 77, 0
1, 79799, Note_on_c, 0, 86, 0
1, 79799, Note_on_c, 0, 74, 0
1, 79802, Note_on_c, 0, 50, 0
1, 79802, Note_on_c, 0, 62, 0
1, 79998, Note_on_c, 0, 76, 56
1, 79998, Note_on_c, 0, 73, 56
1, 79998, Note_on_c, 0, 85, 67
1, 80001, Note_on_c, 0, 55, 56
1, 80001, Note_on_c, 0, 43, 47
1, 80001, Note_on_c, 0, 46, 47
1, 80064, Note_on_c, 0, 85, 0
1, 80064, Note_on_c, 0, 73, 0
1, 80064, Note_on_c, 0, 76, 0
1, 80067, Note_on_c, 0, 46, 0
1, 80067, Note_on_c, 0, 43, 0
1, 80067, Note_on_c, 0, 55, 0
1, 80265, Note_on_c, 0, 74, 73
1, 80265, Note_on_c, 0, 77, 73
1, 80265, Note_on_c, 0, 86, 87
1, 80268, Note_on_c, 0, 62, 73
1, 80268, Note_on_c, 0, 50, 61
1, 80268, Note_on_c, 0, 57, 61
1, 80816, Note_on_c, 0, 86, 0
1, 80816, Note_on_c, 0, 77, 0
1, 80816, Note_on_c, 0, 74, 0
1, 80819, Note_on_c, 0, 98, 75
1, 80819, Note_on_c, 0, 86, 63
1, 80819, Note_on_c, 0, 57, 0
1, 80822, Note_on_c, 0, 50, 0
1, 80822, Note_on_c, 0, 62, 0
1, 80879, Note_on_c, 0, 86, 0
1, 80879, Note_on_c, 0, 98, 0
1, 80941, Note_on_c, 0, 100, 79
1, 80941, Note_on_c, 0, 88, 67
1, 81004, Note_on_c, 0, 88, 0
1, 81004, Note_on_c, 0, 100, 0
1, 81066, Note_on_c, 0, 101, 82
1, 81066, Note_on_c, 0, 89, 69
1, 81066, Note_on_c, 0, 74, 75
1, 81069, Note_on_c, 0, 62, 63
1, 81131, Note_on_c, 0, 62, 0
1, 81131, Note_on_c, 0, 74, 0
1, 81195, Note_on_c, 0, 76, 79
1, 81195, Note_on_c, 0, 64, 67
1, 81260, Note_on_c, 0, 64, 0
1, 81260, Note_on_c, 0, 76, 0
1, 81325, Note_on_c, 0, 77, 82
1, 81325, Note_on_c, 0, 65, 69
1, 81449, Note_on_c, 0, 89, 0
1, 81449, Note_on_c, 0, 101, 0
1, 81449, Note_on_c, 0, 100, 74
1, 81452, Note_on_c, 0, 88, 62
1, 81510, Note_on_c, 0, 88, 0
1, 81510, Note_on_c, 0, 100, 0
1, 81570, Note_on_c, 0, 98, 83
1, 81570, Note_on_c, 0, 86, 70
1, 81694, Note_on_c, 0, 65, 0
1, 81694, Note_on_c, 0, 77, 0
1, 81694, Note_on_c, 0, 76, 74
1, 81697, Note_on_c, 0, 64, 62
1, 81759, Note_on_c, 0, 64, 0
1, 81759, Note_on_c, 0, 76, 0
1, 81824, Note_on_c, 0, 74, 83
1, 81824, Note_on_c, 0, 62, 70
1, 81950, Note_on_c, 0, 86, 0
1, 81950, Note_on_c, 0, 98, 0
1, 81950, Note_on_c, 0, 96, 75
1, 81953, Note_on_c, 0, 84, 63
1, 82011, Note_on_c, 0, 84, 0
1, 82011, Note_on_c, 0, 96, 0
1, 82071, Note_on_c, 0, 95, 84
1, 82071, Note_on_c, 0, 83, 71
1, 82199, Note_on_c, 0, 62, 0
1, 82199, Note_on_c, 0, 74, 0
1, 82199, Note_on_c, 0, 72, 75
1, 82202, Note_on_c, 0, 60, 63
1, 82263, Note_on_c, 0, 60, 0
1, 82263, Note_on_c, 0, 72, 0
1, 82327, Note_on_c, 0, 71, 84
1, 82327, Note_on_c, 0, 59, 71
1, 82455, Note_on_c, 0, 83, 0
1, 82455, Note_on_c, 0, 95, 0
1, 82455, Note_on_c, 0, 93, 77
1, 82458, Note_on_c, 0, 81, 65
1, 82516, Note_on_c, 0, 81, 0
1, 82516, Note_on_c, 0, 93, 0
1, 82577, Note_on_c, 0, 92, 77
1, 82577, Note_on_c, 0, 80, 65
1, 82640, Note_on_c, 0, 80, 0
1, 82640, Note_on_c, 0, 92, 0
1, 82704, Note_on_c, 0, 93, 77
1, 82704, Note_on_c, 0, 81, 65
1, 82704, Note_on_c, 0, 59, 0
1, 82707, Note_on_c, 0, 71, 0
1, 82707, Note_on_c, 0, 69, 70
1, 82707, Note_on_c, 0, 57, 59
1, 82768, Note_on_c, 0, 81, 0
1, 82768, Note_on_c, 0, 93, 0
1, 82768, Note_on_c, 0, 57, 0
1, 82771, Note_on_c, 0, 69, 0
1, 82833, Note_on_c, 0, 92, 79
1, 82833, Note_on_c, 0, 80, 67
1, 82833, Note_on_c, 0, 68, 72
1, 82836, Note_on_c, 0, 56, 61
1, 82895, Note_on_c, 0, 80, 0
1, 82895, Note_on_c, 0, 92, 0
1, 82895, Note_on_c, 0, 56, 0
1, 82898, Note_on_c, 0, 68, 0
1, 82957, Note_on_c, 0, 95, 84
1, 82957, Note_on_c, 0, 83, 71
1, 82957, Note_on_c, 0, 71, 77
1, 82960, Note_on_c, 0, 59, 65
1, 83019, Note_on_c, 0, 83, 0
1, 83019, Note_on_c, 0, 95, 0
1, 83019, Note_on_c, 0, 59, 0
1, 83022, Note_on_c, 0, 71, 0
1, 83081, Note_on_c, 0, 100, 88
1, 83081, Note_on_c, 0, 88, 74
1, 83081, Note_on_c, 0, 76, 81
1, 83084, Note_on_c, 0, 64, 68
1, 83202, Note_on_c, 0, 88, 0
1, 83202, Note_on_c, 0, 100, 0
1, 83202, Note_on_c, 0, 64, 0
1, 83205, Note_on_c, 0, 76, 0
1, 83332, Note_on_c, 0, 64, 86
1, 83332, Note_on_c, 0, 56, 73
1, 83332, Note_on_c, 0, 59, 73
1, 83335, Note_on_c, 0, 52, 70
1, 83335, Note_on_c, 0, 40, 59
1, 83335, Note_on_c, 0, 44, 59
1, 83338, Note_on_c, 0, 47, 59
1, 83366, Control_c, 0, 64, 127
1, 83852, Note_on_c, 0, 59, 0
1, 83852, Note_on_c, 0, 56, 0
1, 83852, Note_on_c, 0, 64, 0
1, 83855, Note_on_c, 0, 93, 79
1, 83855, Note_on_c, 0, 81, 67
1, 83855, Note_on_c, 0, 47, 0
1, 83858, Note_on_c, 0, 52, 0
1, 83858, Note_on_c, 0, 40, 0
1, 83858, Note_on_c, 0, 44, 0
1, 83861, Note_on_c, 0, 69, 72
1, 83861, Note_on_c, 0, 57, 61
1, 83885, Control_c, 0, 64, 0
1, 83915, Note_on_c, 0, 81, 0
1, 83915, Note_on_c, 0, 93, 0
1, 83915, Note_on_c, 0, 57, 0
1, 83918, Note_on_c, 0, 69, 0
1, 83977, Note_on_c, 0, 96, 84
1, 83977, Note_on_c, 0, 84, 71
1, 83977, Note_on_c, 0, 72, 77
1, 83980, Note_on_c, 0, 60, 65
1, 84039, Note_on_c, 0, 84, 0
1, 84039, Note_on_c, 0, 96, 0
1, 84039, Note_on_c, 0, 60, 0
1, 84042, Note_on_c, 0, 72, 0
1, 84101, Note_on_c, 0, 100, 88
1, 84101, Note_on_c, 0, 88, 74
1, 84101, Note_on_c, 0, 76, 81
1, 84104, Note_on_c, 0, 64, 68
1, 84221, Note_on_c, 0, 88, 0
1, 84221, Note_on_c, 0, 100, 0
1, 84221, Note_on_c, 0, 64, 0
1, 84224, Note_on_c, 0, 76, 0
1, 84352, Note_on_c, 0, 64, 86
1, 84352, Note_on_c, 0, 57, 73
1, 84352, Note_on_c, 0, 60, 73
1, 84355, Note_on_c, 0, 52, 70
1, 84355, Note_on_c, 0, 40, 59
1, 84355, Note_on_c, 0, 45, 59
1, 84358, Note_on_c, 0, 48, 59
1, 84386, Control_c, 0, 64, 127
1, 84874, Note_on_c, 0, 60, 0
1, 84874, Note_on_c, 0, 57, 0
1, 84874, Note_on_c, 0, 64, 0
1, 84877, Note_on_c, 0, 80, 73
1, 84877, Note_on_c, 0, 71, 62
1, 84877, Note_on_c, 0, 48, 0
1, 84880, Note_on_c, 0, 52, 0
1, 84880, Note_on_c, 0, 40, 0
1, 84880, Note_on_c, 0, 45, 0
1, 84883, Note_on_c, 0, 65, 85
1, 84883, Control_c, 0, 64, 0
1, 84899, Control_c, 0, 64, 127
1, 84932, Note_on_c, 0, 71, 0
1, 84932, Note_on_c, 0, 80, 0
1, 84990, Note_on_c, 0, 83, 65
1, 84990, Note_on_c, 0, 74, 55
1, 85048, Note_on_c, 0, 74, 0
1, 85048, Note_on_c, 0, 83, 0
1, 85106, Note_on_c, 0, 80, 73
1, 85106, Note_on_c, 0, 71, 62
1, 85106, Note_on_c, 0, 65, 0
1, 85109, Note_on_c, 0, 64, 73
1, 85135, Control_c, 0, 64, 0
1, 85167, Note_on_c, 0, 71, 0
1, 85167, Note_on_c, 0, 80, 0
1, 85167, Note_on_c, 0, 64, 0
1, 85227, Note_on_c, 0, 83, 67
1, 85227, Note_on_c, 0, 74, 56
1, 85296, Note_on_c, 0, 74, 0
1, 85296, Note_on_c, 0, 83, 0
1, 85351, Control_c, 0, 64, 127
1, 85365, Note_on_c, 0, 53, 84
1, 85365, Note_on_c, 0, 47, 73
1, 85365, Note_on_c, 0, 44, 62
1, 85427, Note_on_c, 0, 44, 0
1, 85427, Note_on_c, 0, 47, 0
1, 85490, Note_on_c, 0, 50, 66
1, 85553, Note_on_c, 0, 50, 0
1, 85616, Note_on_c, 0, 53, 0
1, 85616, Note_on_c, 0, 52, 74
1, 85616, Note_on_c, 0, 47, 73
1, 85619, Note_on_c, 0, 44, 62
1, 85628, Control_c, 0, 64, 0
1, 85679, Note_on_c, 0, 52, 0
1, 85679, Note_on_c, 0, 44, 0
1, 85679, Note_on_c, 0, 47, 0
1, 85742, Note_on_c, 0, 50, 64
1, 85808, Note_on_c, 0, 50, 0
1, 85874, Note_on_c, 0, 81, 73
1, 85874, Note_on_c, 0, 72, 62
1, 85874, Note_on_c, 0, 65, 85
1, 85899, Control_c, 0, 64, 127
1, 85932, Note_on_c, 0, 72, 0
1, 85932, Note_on_c, 0, 81, 0
1, 85990, Note_on_c, 0, 84, 65
1, 85990, Note_on_c, 0, 76, 55
1, 86048, Note_on_c, 0, 76, 0
1, 86048, Note_on_c, 0, 84, 0
1, 86106, Note_on_c, 0, 81, 73
1, 86106, Note_on_c, 0, 72, 62
1, 86106, Note_on_c, 0, 65, 0
1, 86109, Note_on_c, 0, 64, 73
1, 86134, Control_c, 0, 64, 0
1, 86165, Note_on_c, 0, 72, 0
1, 86165, Note_on_c, 0, 81, 0
1, 86165, Note_on_c, 0, 64, 0
1, 86225, Note_on_c, 0, 84, 67
1, 86225, Note_on_c, 0, 76, 56
1, 86292, Note_on_c, 0, 76, 0
1, 86292, Note_on_c, 0, 84, 0
1, 86346, Control_c, 0, 64, 127
1, 86359, Note_on_c, 0, 53, 84
1, 86359, Note_on_c, 0, 45, 73
1, 86420, Note_on_c, 0, 45, 0
1, 86482, Note_on_c, 0, 48, 66
1, 86544, Note_on_c, 0, 48, 0
1, 86606, Note_on_c, 0, 53, 0
1, 86606, Note_on_c, 0, 52, 74
1, 86606, Note_on_c, 0, 45, 73
1, 86618, Control_c, 0, 64, 0
1, 86668, Note_on_c, 0, 52, 0
1, 86668, Note_on_c, 0, 45, 0
1, 86729, Note_on_c, 0, 48, 64
1, 86796, Note_on_c, 0, 48, 0
1, 86861, Note_on_c, 0, 95, 87
1, 86861, Note_on_c, 0, 101, 87
1, 86861, Note_on_c, 0, 89, 73
1, 86864, Note_on_c, 0, 92, 73
1, 86864, Note_on_c, 0, 77, 60
1, 86864, Note_on_c, 0, 65, 51
1, 86867, Note_on_c, 0, 68, 51
1, 86867, Note_on_c, 0, 71, 51
1, 86867, Control_c, 0, 64, 127
1, 86983, Note_on_c, 0, 92, 0
1, 86983, Note_on_c, 0, 95, 0
1, 86983, Note_on_c, 0, 101, 0
1, 86986, Note_on_c, 0, 89, 0
1, 86986, Note_on_c, 0, 100, 86
1, 86986, Note_on_c, 0, 88, 73
1, 86989, Note_on_c, 0, 71, 0
1, 86989, Note_on_c, 0, 77, 0
1, 86989, Note_on_c, 0, 65, 0
1, 86992, Note_on_c, 0, 68, 0
1, 86992, Note_on_c, 0, 76, 60
1, 86992, Note_on_c, 0, 64, 51
1, 87105, Note_on_c, 0, 88, 0
1, 87105, Note_on_c, 0, 100, 0
1, 87105, Note_on_c, 0, 98, 84
1, 87108, Note_on_c, 0, 86, 71
1, 87108, Note_on_c, 0, 64, 0
1, 87108, Note_on_c, 0, 76, 0
1, 87111, Note_on_c, 0, 74, 58
1, 87111, Note_on_c, 0, 62, 49
1, 87227, Note_on_c, 0, 86, 0
1, 87227, Note_on_c, 0, 98, 0
1, 87227, Note_on_c, 0, 96, 83
1, 87230, Note_on_c, 0, 84, 70
1, 87230, Note_on_c, 0, 62, 0
1, 87230, Note_on_c, 0, 74, 0
1, 87233, Note_on_c, 0, 72, 58
1, 87233, Note_on_c, 0, 60, 49
1, 87351, Note_on_c, 0, 84, 0
1, 87351, Note_on_c, 0, 96, 0
1, 87351, Note_on_c, 0, 95, 81
1, 87354, Note_on_c, 0, 83, 68
1, 87354, Note_on_c, 0, 60, 0
1, 87354, Note_on_c, 0, 72, 0
1, 87357, Note_on_c, 0, 71, 56
1, 87357, Note_on_c, 0, 59, 47
1, 87357, Control_c, 0, 64, 0
1, 87415, Control_c, 0, 64, 127
1, 87475, Note_on_c, 0, 83, 0
1, 87475, Note_on_c, 0, 95, 0
1, 87475, Note_on_c, 0, 93, 80
1, 87478, Note_on_c, 0, 81, 68
1, 87478, Note_on_c, 0, 59, 0
1, 87478, Note_on_c, 0, 71, 0
1, 87481, Note_on_c, 0, 69, 56
1, 87481, Note_on_c, 0, 57, 47
1, 87600, Note_on_c, 0, 81, 0
1, 87600, Note_on_c, 0, 93, 0
1, 87600, Note_on_c, 0, 92, 79
1, 87603, Note_on_c, 0, 80, 67
1, 87603, Note_on_c, 0, 57, 0
1, 87603, Note_on_c, 0, 69, 0
1, 87606, Note_on_c, 0, 68, 55
1, 87606, Note_on_c, 0, 56, 46
1, 87726, Note_on_c, 0, 80, 0
1, 87726, Note_on_c, 0, 92, 0
1, 87726, Note_on_c, 0, 88, 77
1, 87729, Note_on_c, 0, 76, 65
1, 87729, Note_on_c, 0, 56, 0
1, 87729, Note_on_c, 0, 68, 0
1, 87732, Note_on_c, 0, 64, 53
1, 87732, Note_on_c, 0, 52, 45
1, 87852, Note_on_c, 0, 76, 0
1, 87852, Note_on_c, 0, 88, 0
1, 87852, Note_on_c, 0, 89, 80
1, 87855, Note_on_c, 0, 77, 68
1, 87855, Note_on_c, 0, 80, 68
1, 87855, Note_on_c, 0, 83, 68
1, 87858, Note_on_c, 0, 52, 0
1, 87858, Note_on_c, 0, 64, 0
1, 87858, Note_on_c, 0, 65, 59
1, 87861, Note_on_c, 0, 53, 50
1, 87861, Note_on_c, 0, 56, 50
1, 87861, Note_on_c, 0, 59, 50
1, 87864, Control_c, 0, 64, 0
1, 87890, Control_c, 0, 64, 127
1, 87976, Note_on_c, 0, 83, 0
1, 87976, Note_on_c, 0, 89, 0
1, 87976, Note_on_c, 0, 77, 0
1, 87979, Note_on_c, 0, 80, 0
1, 87979, Note_on_c, 0, 88, 77
1, 87979, Note_on_c, 0, 76, 65
1, 87982, Note_on_c, 0, 59, 0
1, 87982, Note_on_c, 0, 65, 0
1, 87982, Note_on_c, 0, 53, 0
1, 87985, Note_on_c, 0, 56, 0
1, 87985, Note_on_c, 0, 64, 58
1, 87985, Note_on_c, 0, 52, 49
1, 88100, Note_on_c, 0, 76, 0
1, 88100, Note_on_c, 0, 88, 0
1, 88100, Note_on_c, 0, 86, 75
1, 88103, Note_on_c, 0, 74, 63
1, 88103, Note_on_c, 0, 52, 0
1, 88103, Note_on_c, 0, 64, 0
1, 88106, Note_on_c, 0, 62, 56
1, 88106, Note_on_c, 0, 50, 47
1, 88226, Note_on_c, 0, 74, 0
1, 88226, Note_on_c, 0, 86, 0
1, 88226, Note_on_c, 0, 84, 73
1, 88229, Note_on_c, 0, 72, 62
1, 88229, Note_on_c, 0, 50, 0
1, 88229, Note_on_c, 0, 62, 0
1, 88232, Note_on_c, 0, 60, 55
1, 88232, Note_on_c, 0, 48, 46
1, 88352, Note_on_c, 0, 72, 0
1, 88352, Note_on_c, 0, 84, 0
1, 88352, Note_on_c, 0, 83, 72
1, 88355, Note_on_c, 0, 71, 61
1, 88355, Note_on_c, 0, 48, 0
1, 88355, Note_on_c, 0, 60, 0
1, 88358, Note_on_c, 0, 59, 53
1, 88358, Note_on_c, 0, 47, 45
1, 88358, Control_c, 0, 64, 0
1, 88396, Control_c, 0, 64, 127
1, 88479, Note_on_c, 0, 71, 0
1, 88479, Note_on_c, 0, 83, 0
1, 88479, Note_on_c, 0, 81, 70
1, 88482, Note_on_c, 0, 69, 59
1, 88482, Note_on_c, 0, 47, 0
1, 88482, Note_on_c, 0, 59, 0
1, 88485, Note_on_c, 0, 57, 51
1, 88485, Note_on_c, 0, 45, 43
1, 88607, Note_on_c, 0, 69, 0
1, 88607, Note_on_c, 0, 81, 0
1, 88607, Note_on_c, 0, 80, 68
1, 88610, Note_on_c, 0, 68, 57
1, 88610, Note_on_c, 0, 45, 0
1, 88610, Note_on_c, 0, 57, 0
1, 88613, Note_on_c, 0, 56, 50
1, 88613, Note_on_c, 0, 44, 42
1, 88738, Note_on_c, 0, 68, 0
1, 88738, Note_on_c, 0, 80, 0
1, 88738, Note_on_c, 0, 76, 67
1, 88741, Note_on_c, 0, 64, 56
1, 88741, Note_on_c, 0, 44, 0
1, 88741, Note_on_c, 0, 56, 0
1, 88744, Note_on_c, 0, 52, 48
1, 88744, Note_on_c, 0, 40, 40
1, 88870, Note_on_c, 0, 64, 0
1, 88870, Note_on_c, 0, 76, 0
1, 88870, Note_on_c, 0, 64, 67
1, 88873, Note_on_c, 0, 76, 67
1, 88873, Note_on_c, 0, 69, 72
1, 88873, Note_on_c, 0, 40, 0
1, 88876, Note_on_c, 0, 52, 0
1, 88876, Note_on_c, 0, 57, 65
1, 88876, Note_on_c, 0, 45, 55
1, 88879, Control_c, 0, 64, 0
1, 88922, Control_c, 0, 64, 127
1, 88999, Note_on_c, 0, 69, 0
1, 88999, Note_on_c, 0, 76, 0
1, 88999, Note_on_c, 0, 64, 0
1, 89002, Note_on_c, 0, 72, 66
1, 89002, Note_on_c, 0, 45, 0
1, 89002, Note_on_c, 0, 57, 0
1, 89005, Note_on_c, 0, 60, 59
1, 89005, Note_on_c, 0, 48, 50
1, 89026, Control_c, 0, 64, 0
1, 89063, Note_on_c, 0, 72, 0
1, 89063, Note_on_c, 0, 48, 0
1, 89063, Note_on_c, 0, 60, 0
1, 89127, Note_on_c, 0, 64, 67
1, 89127, Note_on_c, 0, 76, 67
1, 89127, Note_on_c, 0, 68, 73
1, 89130, Note_on_c, 0, 56, 66
1, 89130, Note_on_c, 0, 44, 56
1, 89173, Control_c, 0, 64, 127
1, 89246, Control_c, 0, 64, 0
1, 89256, Note_on_c, 0, 68, 0
1, 89256, Note_on_c, 0, 76, 0
1, 89256, Note_on_c, 0, 64, 0
1, 89259, Note_on_c, 0, 71, 72
1, 89259, Note_on_c, 0, 44, 0
1, 89259, Note_on_c, 0, 56, 0
1, 89262, Note_on_c, 0, 59, 60
1, 89262, Note_on_c, 0, 47, 51
1, 89322, Note_on_c, 0, 71, 0
1, 89322, Note_on_c, 0, 47, 0
1, 89322, Note_on_c, 0, 59, 0
1, 89388, Note_on_c, 0, 81, 72
1, 89388, Note_on_c, 0, 69, 61
1, 89388, Note_on_c, 0, 72, 61
1, 89391, Note_on_c, 0, 57, 65
1, 89391, Note_on_c, 0, 45, 55
1, 89391, Note_on_c, 0, 48, 55
1, 89394, Note_on_c, 0, 52, 55
1, 89421, Control_c, 0, 64, 127
1, 89516, Note_on_c, 0, 72, 0
1, 89516, Note_on_c, 0, 69, 0
1, 89516, Note_on_c, 0, 81, 0
1, 89519, Note_on_c, 0, 84, 66
1, 89519, Note_on_c, 0, 72, 56
1, 89519, Note_on_c, 0, 76, 56
1, 89522, Note_on_c, 0, 52, 0
1, 89522, Note_on_c, 0, 57, 0
1, 89522, Note_on_c, 0, 45, 0
1, 89525, Note_on_c, 0, 48, 0
1, 89564, Control_c, 0, 64, 0
1, 89580, Note_on_c, 0, 76, 0
1, 89580, Note_on_c, 0, 72, 0
1, 89580, Note_on_c, 0, 84, 0
1, 89643, Note_on_c, 0, 80, 73
1, 89643, Note_on_c, 0, 68, 62
1, 89643, Note_on_c, 0, 71, 62
1, 89646, Note_on_c, 0, 52, 65
1, 89646, Note_on_c, 0, 40, 55
1, 89646, Note_on_c, 0, 44, 55
1, 89649, Note_on_c, 0, 47, 55
1, 89680, Control_c, 0, 64, 127
1, 89771, Note_on_c, 0, 71, 0
1, 89771, Note_on_c, 0, 68, 0
1, 89771, Note_on_c, 0, 80, 0
1, 89774, Note_on_c, 0, 83, 72
1, 89774, Note_on_c, 0, 71, 61
1, 89774, Note_on_c, 0, 74, 61
1, 89777, Note_on_c, 0, 47, 0
1, 89777, Note_on_c, 0, 52, 0
1, 89777, Note_on_c, 0, 40, 0
1, 89780, Note_on_c, 0, 44, 0
1, 89796, Control_c, 0, 64, 0
1, 89838, Note_on_c, 0, 74, 0
1, 89838, Note_on_c, 0, 71, 0
1, 89838, Note_on_c, 0, 83, 0
1, 89904, Note_on_c, 0, 81, 85
1, 89904, Note_on_c, 0, 69, 71
1, 89904, Note_on_c, 0, 72, 71
1, 89907, Note_on_c, 0, 57, 73
1, 89907, Note_on_c, 0, 45, 61
1, 89907, Note_on_c, 0, 48, 61
1, 89910, Note_on_c, 0, 52, 61
1, 89920, Control_c, 0, 64, 127
1, 90038, Note_on_c, 0, 72, 0
1, 90038, Note_on_c, 0, 69, 0
1, 90038, Note_on_c, 0, 81, 0
1, 90041, Note_on_c, 0, 52, 0
1, 90041, Note_on_c, 0, 57, 0
1, 90041, Note_on_c, 0, 45, 0
1, 90044, Note_on_c, 0, 48, 0
1, 90204, Control_c, 0, 64, 0
1, 90441, Note_on_c, 0, 89, 91
1, 90441, Note_on_c, 0, 77, 76
1, 90441, Note_on_c, 0, 81, 76
1, 90444, Note_on_c, 0, 86, 76
1, 90444, Note_on_c, 0, 50, 74
1, 90444, Note_on_c, 0, 38, 61
1, 90447, Note_on_c, 0, 41, 61
1, 90447, Note_on_c, 0, 45, 61
1, 90575, Note_on_c, 0, 86, 0
1, 90575, Note_on_c, 0, 89, 0
1, 90575, Note_on_c, 0, 77, 0
1, 90578, Note_on_c, 0, 81, 0
1, 90578, Note_on_c, 0, 45, 0
1, 90578, Note_on_c, 0, 50, 0
1, 90581, Note_on_c, 0, 38, 0
1, 90581, Note_on_c, 0, 41, 0
1, 90581, Control_c, 0, 64, 127
1, 90748, Control_c, 0, 64, 0
1, 90977, Note_on_c, 0, 93, 98
1, 90977, Note_on_c, 0, 81, 82
1, 90977, Note_on_c, 0, 84, 82
1, 90980, Note_on_c, 0, 88, 82
1, 90980, Note_on_c, 0, 45, 76
1, 90980, Note_on_c, 0, 33, 64
1, 90983, Note_on_c, 0, 36, 64
1, 90983, Note_on_c, 0, 40, 64
1, 90992, Control_c, 0, 64, 127
1, 91514, Note_on_c, 0, 88, 0
1, 91514, Note_on_c, 0, 93, 0
1, 91514, Note_on_c, 0, 81, 0
1, 91517, Note_on_c, 0, 84, 0
1, 91517, Note_on_c, 0, 40, 0
1, 91517, Note_on_c, 0, 45, 0
1, 91520, Note_on_c, 0, 33, 0
1, 91520, Note_on_c, 0, 36, 0
1, 91528, Control_c, 0, 64, 0
1, 91782, Note_on_c, 0, 73, 42
1, 91844, Control_c, 0, 64, 127
1, 91913, Note_on_c, 0, 73, 0
1, 91913, Note_on_c, 0, 76, 41
1, 92051, Note_on_c, 0, 76, 0
1, 92051, Note_on_c, 0, 69, 47
1, 92121, Control_c, 0, 64, 0
1, 92298, Control_c, 0, 64, 127
1, 92318, Note_on_c, 0, 61, 34
1, 92318, Note_on_c, 0, 52, 34
1, 92450, Note_on_c, 0, 61, 0
1, 92450, Note_on_c, 0, 64, 34
1, 92588, Note_on_c, 0, 69, 0
1, 92588, Note_on_c, 0, 64, 0
1, 92588, Note_on_c, 0, 52, 0
1, 92591, Note_on_c, 0, 45, 41
1, 92655, Note_on_c, 0, 45, 0
1, 92671, Control_c, 0, 64, 0
1, 92856, Note_on_c, 0, 73, 50
1, 92887, Control_c, 0, 64, 127
1, 92989, Note_on_c, 0, 73, 0
1, 92989, Note_on_c, 0, 76, 49
1, 93127, Note_on_c, 0, 76, 0
1, 93127, Note_on_c, 0, 69, 56
1, 93268, Control_c, 0, 64, 0
1, 93393, Note_on_c, 0, 61, 41
1, 93393, Note_on_c, 0, 52, 41
1, 93431, Control_c, 0, 64, 127
1, 93525, Note_on_c, 0, 61, 0
1, 93525, Note_on_c, 0, 64, 41
1, 93663, Note_on_c, 0, 69, 0
1, 93663, Note_on_c, 0, 64, 0
1, 93663, Note_on_c, 0, 52, 0
1, 93666, Note_on_c, 0, 45, 49
1, 93730, Note_on_c, 0, 45, 0
1, 93789, Control_c, 0, 64, 0
1, 93931, Note_on_c, 0, 81, 50
1, 93931, Note_on_c, 0, 73, 42
1, 93931, Note_on_c, 0, 71, 34
1, 93934, Note_on_c, 0, 61, 28
1, 93934, Note_on_c, 0, 65, 28
1, 93934, Control_c, 0, 64, 127
1, 94058, Note_on_c, 0, 81, 0
1, 94058, Note_on_c, 0, 80, 45
1, 94058, Note_on_c, 0, 65, 0
1, 94061, Note_on_c, 0, 61, 0
1, 94061, Note_on_c, 0, 71, 0
1, 94088, Control_c, 0, 64, 0
1, 94123, Note_on_c, 0, 80, 0
1, 94188, Note_on_c, 0, 73, 0
1, 94188, Note_on_c, 0, 80, 50
1, 94188, Note_on_c, 0, 73, 42
1, 94191, Note_on_c, 0, 69, 39
1, 94191, Note_on_c, 0, 66, 33
1, 94191, Control_c, 0, 64, 127
1, 94314, Note_on_c, 0, 80, 0
1, 94314, Note_on_c, 0, 78, 45
1, 94314, Note_on_c, 0, 66, 0
1, 94317, Note_on_c, 0, 69, 0
1, 94339, Control_c, 0, 64, 0
1, 94380, Note_on_c, 0, 78, 0
1, 94446, Note_on_c, 0, 73, 0
1, 94446, Note_on_c, 0, 78, 50
1, 94446, Note_on_c, 0, 73, 42
1, 94449, Note_on_c, 0, 71, 36
1, 94449, Note_on_c, 0, 61, 30
1, 94449, Note_on_c, 0, 68, 30
1, 94531, Control_c, 0, 64, 127
1, 94574, Note_on_c, 0, 78, 0
1, 94574, Note_on_c, 0, 77, 47
1, 94574, Note_on_c, 0, 68, 0
1, 94577, Note_on_c, 0, 61, 0
1, 94577, Note_on_c, 0, 71, 0
1, 94625, Control_c, 0, 64, 0
1, 94641, Note_on_c, 0, 77, 0
1, 94707, Note_on_c, 0, 73, 0
1, 94707, Note_on_c, 0, 80, 50
1, 94707, Note_on_c, 0, 73, 42
1, 94710, Note_on_c, 0, 69, 41
1, 94710, Note_on_c, 0, 66, 34
1, 94763, Control_c, 0, 64, 127
1, 94836, Note_on_c, 0, 80, 0
1, 94836, Note_on_c, 0, 78, 46
1, 94836, Note_on_c, 0, 66, 0
1, 94839, Note_on_c, 0, 69, 0
1, 94880, Control_c, 0, 64, 0
1, 94903, Note_on_c, 0, 78, 0
1, 94969, Note_on_c, 0, 73, 0
1, 94969, Note_on_c, 0, 78, 50
1, 94969, Note_on_c, 0, 73, 42
1, 94972, Note_on_c, 0, 71, 37
1, 94972, Note_on_c, 0, 61, 31
1, 94972, Note_on_c, 0, 68, 31
1, 95061, Control_c, 0, 64, 127
1, 95098, Note_on_c, 0, 78, 0
1, 95098, Note_on_c, 0, 77, 46
1, 95098, Note_on_c, 0, 68, 0
1, 95101, Note_on_c, 0, 61, 0
1, 95101, Note_on_c, 0, 71, 0
1, 95148, Control_c, 0, 64, 0
1, 95164, Note_on_c, 0, 77, 0
1, 95230, Note_on_c, 0, 73, 0
1, 95230, Note_on_c, 0, 78, 50
1, 95230, Note_on_c, 0, 73, 42
1, 95233, Note_on_c, 0, 69, 40
1, 95233, Note_on_c, 0, 66, 34
1, 95233, Control_c, 0, 64, 127
1, 95360, Note_on_c, 0, 73, 0
1, 95360, Note_on_c, 0, 78, 0
1, 95360, Note_on_c, 0, 66, 0
1, 95363, Note_on_c, 0, 69, 0
1, 95490, Note_on_c, 0, 57, 41
1, 95622, Note_on_c, 0, 57, 0
1, 95622, Note_on_c, 0, 61, 41
1, 95760, Note_on_c, 0, 61, 0
1, 95760, Note_on_c, 0, 54, 49
1, 95827, Note_on_c, 0, 54, 0
1, 95827, Control_c, 0, 64, 0
1, 96028, Note_on_c, 0, 90, 50
1, 96028, Note_on_c, 0, 81, 42
1, 96028, Note_on_c, 0, 79, 34
1, 96031, Note_on_c, 0, 69, 28
1, 96031, Note_on_c, 0, 73, 28
1, 96031, Control_c, 0, 64, 127
1, 96155, Note_on_c, 0, 90, 0
1, 96155, Note_on_c, 0, 88, 45
1, 96155, Note_on_c, 0, 73, 0
1, 96158, Note_on_c, 0, 69, 0
1, 96158, Note_on_c, 0, 79, 0
1, 96186, Control_c, 0, 64, 0
1, 96220, Note_on_c, 0, 88, 0
1, 96286, Note_on_c, 0, 81, 0
1, 96286, Note_on_c, 0, 88, 50
1, 96286, Note_on_c, 0, 81, 42
1, 96289, Note_on_c, 0, 78, 39
1, 96289, Note_on_c, 0, 74, 33
1, 96289, Control_c, 0, 64, 127
1, 96413, Note_on_c, 0, 88, 0
1, 96413, Note_on_c, 0, 86, 45
1, 96413, Note_on_c, 0, 74, 0
1, 96416, Note_on_c, 0, 78, 0
1, 96437, Control_c, 0, 64, 0
1, 96478, Note_on_c, 0, 86, 0
1, 96544, Note_on_c, 0, 81, 0
1, 96544, Note_on_c, 0, 86, 50
1, 96544, Note_on_c, 0, 81, 42
1, 96547, Note_on_c, 0, 79, 36
1, 96547, Note_on_c, 0, 69, 30
1, 96547, Note_on_c, 0, 76, 30
1, 96630, Control_c, 0, 64, 127
1, 96673, Note_on_c, 0, 86, 0
1, 96673, Note_on_c, 0, 85, 47
1, 96673, Note_on_c, 0, 76, 0
1, 96676, Note_on_c, 0, 69, 0
1, 96676, Note_on_c, 0, 79, 0
1, 96724, Control_c, 0, 64, 0
1, 96740, Note_on_c, 0, 85, 0
1, 96807, Note_on_c, 0, 81, 0
1, 96807, Note_on_c, 0, 88, 50
1, 96807, Note_on_c, 0, 81, 42
1, 96810, Note_on_c, 0, 78, 41
1, 96810, Note_on_c, 0, 74, 34
1, 96862, Control_c, 0, 64, 127
1, 96936, Note_on_c, 0, 88, 0
1, 96936, Note_on_c, 0, 86, 46
1, 96936, Note_on_c, 0, 74, 0
1, 96939, Note_on_c, 0, 78, 0
1, 96980, Control_c, 0, 64, 0
1, 97002, Note_on_c, 0, 86, 0
1, 97068, Note_on_c, 0, 81, 0
1, 97068, Note_on_c, 0, 86, 50
1, 97068, Note_on_c, 0, 81, 42
1, 97071, Note_on_c, 0, 79, 37
1, 97071, Note_on_c, 0, 69, 31
1, 97071, Note_on_c, 0, 76, 31
1, 97160, Control_c, 0, 64, 127
1, 97197, Note_on_c, 0, 86, 0
1, 97197, Note_on_c, 0, 85, 46
1, 97197, Note_on_c, 0, 76, 0
1, 97200, Note_on_c, 0, 69, 0
1, 97200, Note_on_c, 0, 79, 0
1, 97247, Control_c, 0, 64, 0
1, 97263, Note_on_c, 0, 85, 0
1, 97329, Note_on_c, 0, 81, 0
1, 97329, Note_on_c, 0, 86, 50
1, 97329, Note_on_c, 0, 81, 42
1, 97332, Note_on_c, 0, 78, 40
1, 97332, Note_on_c, 0, 74, 34
1, 97332, Control_c, 0, 64, 127
1, 97459, Note_on_c, 0, 81, 0
1, 97459, Note_on_c, 0, 86, 0
1, 97459, Note_on_c, 0, 74, 0
1, 97462, Note_on_c, 0, 78, 0
1, 97589, Note_on_c, 0, 66, 41
1, 97721, Note_on_c, 0, 66, 0
1, 97721, Note_on_c, 0, 69, 41
1, 97859, Note_on_c, 0, 69, 0
1, 97859, Note_on_c, 0, 62, 49
1, 97927, Note_on_c, 0, 62, 0
1, 97927, Control_c, 0, 64, 0
1, 98128, Note_on_c, 0, 74, 42
1, 98190, Control_c, 0, 64, 127
1, 98259, Note_on_c, 0, 74, 0
1, 98259, Note_on_c, 0, 78, 41
1, 98397, Note_on_c, 0, 78, 0
1, 98397, Note_on_c, 0, 71, 47
1, 98467, Control_c, 0, 64, 0
1, 98644, Control_c, 0, 64, 127
1, 98664, Note_on_c, 0, 62, 34
1, 98664, Note_on_c, 0, 54, 34
1, 98795, Note_on_c, 0, 62, 0
1, 98795, Note_on_c, 0, 66, 34
1, 98934, Note_on_c, 0, 71, 0
1, 98934, Note_on_c, 0, 66, 0
1, 98934, Note_on_c, 0, 54, 0
1, 98937, Note_on_c, 0, 47, 41
1, 99001, Note_on_c, 0, 47, 0
1, 99017, Control_c, 0, 64, 0
1, 99202, Note_on_c, 0, 74, 50
1, 99233, Control_c, 0, 64, 127
1, 99334, Note_on_c, 0, 74, 0
1, 99334, Note_on_c, 0, 78, 49
1, 99473, Note_on_c, 0, 78, 0
1, 99473, Note_on_c, 0, 71, 56
1, 99614, Control_c, 0, 64, 0
1, 99739, Note_on_c, 0, 62, 41
1, 99739, Note_on_c, 0, 54, 41
1, 99777, Control_c, 0, 64, 127
1, 99871, Note_on_c, 0, 62, 0
1, 99871, Note_on_c, 0, 66, 41
1, 100009, Note_on_c, 0, 71, 0
1, 100009, Note_on_c, 0, 66, 0
1, 100009, Note_on_c, 0, 54, 0
1, 100012, Note_on_c, 0, 47, 49
1, 100076, Note_on_c, 0, 47, 0
1, 100135, Control_c, 0, 64, 0
1, 100277, Note_on_c, 0, 95, 54
1, 100277, Note_on_c, 0, 86, 45
1, 100344, Note_on_c, 0, 86, 0
1, 100344, Note_on_c, 0, 95, 0
1, 100411, Note_on_c, 0, 98, 50
1, 100411, Note_on_c, 0, 90, 42
1, 100477, Note_on_c, 0, 90, 0
1, 100477, Note_on_c, 0, 98, 0
1, 100542, Note_on_c, 0, 97, 55
1, 100542, Note_on_c, 0, 88, 46
1, 100542, Note_on_c, 0, 52, 41
1, 100606, Note_on_c, 0, 88, 0
1, 100606, Note_on_c, 0, 97, 0
1, 100670, Note_on_c, 0, 95, 52
1, 100670, Note_on_c, 0, 86, 44
1, 100735, Note_on_c, 0, 86, 0
1, 100735, Note_on_c, 0, 95, 0
1, 100800, Note_on_c, 0, 93, 56
1, 100800, Note_on_c, 0, 85, 47
1, 100800, Note_on_c, 0, 52, 0
1, 100803, Note_on_c, 0, 69, 36
1, 100803, Note_on_c, 0, 64, 30
1, 100803, Note_on_c, 0, 61, 30
1, 100865, Note_on_c, 0, 85, 0
1, 100865, Note_on_c, 0, 93, 0
1, 100865, Note_on_c, 0, 61, 0
1, 100868, Note_on_c, 0, 64, 0
1, 100868, Note_on_c, 0, 69, 0
1, 100930, Note_on_c, 0, 97, 50
1, 100930, Note_on_c, 0, 88, 42
1, 100998, Note_on_c, 0, 88, 0
1, 100998, Note_on_c, 0, 97, 0
1, 101067, Note_on_c, 0, 95, 58
1, 101067, Note_on_c, 0, 86, 49
1, 101067, Note_on_c, 0, 64, 41
1, 101132, Note_on_c, 0, 86, 0
1, 101132, Note_on_c, 0, 95, 0
1, 101196, Note_on_c, 0, 93, 50
1, 101196, Note_on_c, 0, 85, 42
1, 101262, Note_on_c, 0, 85, 0
1, 101262, Note_on_c, 0, 93, 0
1, 101328, Note_on_c, 0, 92, 54
1, 101328, Note_on_c, 0, 83, 45
1, 101328, Note_on_c, 0, 64, 0
1, 101331, Note_on_c, 0, 80, 36
1, 101331, Note_on_c, 0, 76, 30
1, 101331, Note_on_c, 0, 71, 30
1, 101394, Note_on_c, 0, 83, 0
1, 101394, Note_on_c, 0, 92, 0
1, 101394, Note_on_c, 0, 71, 0
1, 101397, Note_on_c, 0, 76, 0
1, 101397, Note_on_c, 0, 80, 0
1, 101460, Note_on_c, 0, 95, 50
1, 101460, Note_on_c, 0, 86, 42
1, 101528, Note_on_c, 0, 86, 0
1, 101528, Note_on_c, 0, 95, 0
1, 101597, Note_on_c, 0, 93, 60
1, 101597, Note_on_c, 0, 85, 51
1, 101597, Note_on_c, 0, 81, 41
1, 101600, Note_on_c, 0, 69, 34
1, 101600, Note_on_c, 0, 76, 34
1, 101662, Note_on_c, 0, 85, 0
1, 101662, Note_on_c, 0, 93, 0
1, 101662, Note_on_c, 0, 76, 0
1, 101665, Note_on_c, 0, 69, 0
1, 101665, Note_on_c, 0, 81, 0
1, 101728, Note_on_c, 0, 97, 50
1, 101728, Note_on_c, 0, 88, 42
1, 101793, Note_on_c, 0, 88, 0
1, 101793, Note_on_c, 0, 97, 0
1, 101859, Note_on_c, 0, 92, 55
1, 101859, Note_on_c, 0, 83, 46
1, 101859, Note_on_c, 0, 80, 37
1, 101862, Note_on_c, 0, 76, 31
1, 101924, Note_on_c, 0, 83, 0
1, 101924, Note_on_c, 0, 92, 0
1, 101924, Note_on_c, 0, 76, 0
1, 101927, Note_on_c, 0, 80, 0
1, 101990, Note_on_c, 0, 95, 50
1, 101990, Note_on_c, 0, 86, 42
1, 102056, Note_on_c, 0, 86, 0
1, 102056, Note_on_c, 0, 95, 0
1, 102121, Note_on_c, 0, 93, 56
1, 102121, Note_on_c, 0, 85, 47
1, 102121, Note_on_c, 0, 81, 41
1, 102124, Note_on_c, 0, 69, 34
1, 102124, Note_on_c, 0, 76, 34
1, 102187, Note_on_c, 0, 85, 0
1, 102187, Note_on_c, 0, 93, 0
1, 102187, Note_on_c, 0, 76, 0
1, 102190, Note_on_c, 0, 69, 0
1, 102190, Note_on_c, 0, 81, 0
1, 102384, Note_on_c, 0, 61, 41
1, 102482, Note_on_c, 0, 61, 0
1, 102515, Note_on_c, 0, 64, 41
1, 102618, Note_on_c, 0, 64, 0
1, 102653, Note_on_c, 0, 57, 41
1, 102920, Note_on_c, 0, 73, 49
1, 102920, Note_on_c, 0, 64, 35
1, 102920, Note_on_c, 0, 45, 22
1, 102923, Note_on_c, 0, 52, 30
1, 102923, Control_c, 0, 64, 127
1, 102984, Note_on_c, 0, 73, 0
1, 102984, Note_on_c, 0, 76, 42
1, 103048, Note_on_c, 0, 76, 0
1, 103048, Note_on_c, 0, 64, 0
1, 103048, Note_on_c, 0, 69, 49
1, 103051, Note_on_c, 0, 52, 0
1, 103051, Note_on_c, 0, 45, 0
1, 103117, Note_on_c, 0, 69, 0
1, 103186, Note_on_c, 0, 76, 35
1, 103186, Note_on_c, 0, 85, 49
1, 103186, Note_on_c, 0, 57, 0
1, 103189, Note_on_c, 0, 45, 22
1, 103189, Note_on_c, 0, 52, 30
1, 103254, Note_on_c, 0, 85, 0
1, 103254, Note_on_c, 0, 88, 43
1, 103321, Note_on_c, 0, 88, 0
1, 103321, Note_on_c, 0, 76, 0
1, 103321, Note_on_c, 0, 81, 49
1, 103324, Note_on_c, 0, 52, 0
1, 103324, Note_on_c, 0, 45, 0
1, 103380, Control_c, 0, 64, 0
1, 103388, Note_on_c, 0, 81, 0
1, 103455, Note_on_c, 0, 61, 41
1, 103553, Note_on_c, 0, 61, 0
1, 103586, Note_on_c, 0, 64, 41
1, 103689, Note_on_c, 0, 64, 0
1, 103724, Note_on_c, 0, 57, 41
1, 103991, Note_on_c, 0, 76, 35
1, 103991, Note_on_c, 0, 85, 49
1, 103991, Note_on_c, 0, 45, 22
1, 103994, Note_on_c, 0, 52, 30
1, 103994, Control_c, 0, 64, 127
1, 104055, Note_on_c, 0, 85, 0
1, 104055, Note_on_c, 0, 88, 42
1, 104119, Note_on_c, 0, 88, 0
1, 104119, Note_on_c, 0, 76, 0
1, 104119, Note_on_c, 0, 81, 49
1, 104122, Note_on_c, 0, 52, 0
1, 104122, Note_on_c, 0, 45, 0
1, 104188, Note_on_c, 0, 81, 0
1, 104257, Note_on_c, 0, 88, 35
1, 104257, Note_on_c, 0, 97, 49
1, 104257, Note_on_c, 0, 57, 0
1, 104260, Note_on_c, 0, 45, 22
1, 104260, Note_on_c, 0, 52, 30
1, 104324, Note_on_c, 0, 97, 0
1, 104324, Note_on_c, 0, 100, 43
1, 104391, Note_on_c, 0, 100, 0
1, 104391, Note_on_c, 0, 88, 0
1, 104391, Note_on_c, 0, 93, 49
1, 104394, Note_on_c, 0, 52, 0
1, 104394, Note_on_c, 0, 45, 0
1, 104450, Control_c, 0, 64, 0
1, 104458, Note_on_c, 0, 93, 0
1, 104525, Note_on_c, 0, 93, 54
1, 104525, Note_on_c, 0, 85, 34
1, 104525, Note_on_c, 0, 71, 34
1, 104528, Note_on_c, 0, 61, 28
1, 104528, Note_on_c, 0, 65, 28
1, 104528, Control_c, 0, 64, 127
1, 104613, Note_on_c, 0, 93, 0
1, 104613, Note_on_c, 0, 92, 47
1, 104658, Note_on_c, 0, 65, 0
1, 104658, Note_on_c, 0, 61, 0
1, 104658, Note_on_c, 0, 71, 0
1, 104701, Note_on_c, 0, 92, 0
1, 104701, Note_on_c, 0, 80, 47
1, 104711, Control_c, 0, 64, 0
1, 104745, Note_on_c, 0, 80, 0
1, 104788, Note_on_c, 0, 85, 0
1, 104788, Note_on_c, 0, 92, 52
1, 104788, Note_on_c, 0, 85, 32
1, 104791, Note_on_c, 0, 69, 39
1, 104791, Note_on_c, 0, 66, 33
1, 104791, Control_c, 0, 64, 127
1, 104874, Note_on_c, 0, 92, 0
1, 104874, Note_on_c, 0, 90, 46
1, 104917, Note_on_c, 0, 66, 0
1, 104917, Note_on_c, 0, 69, 0
1, 104960, Note_on_c, 0, 90, 0
1, 104960, Note_on_c, 0, 78, 46
1, 104982, Control_c, 0, 64, 0
1, 105004, Note_on_c, 0, 78, 0
1, 105048, Note_on_c, 0, 85, 0
1, 105048, Note_on_c, 0, 90, 50
1, 105048, Note_on_c, 0, 85, 26
1, 105051, Note_on_c, 0, 71, 36
1, 105051, Note_on_c, 0, 61, 30
1, 105051, Note_on_c, 0, 68, 30
1, 105134, Note_on_c, 0, 90, 0
1, 105134, Note_on_c, 0, 89, 46
1, 105134, Control_c, 0, 64, 127
1, 105177, Note_on_c, 0, 68, 0
1, 105177, Note_on_c, 0, 61, 0
1, 105177, Note_on_c, 0, 71, 0
1, 105222, Note_on_c, 0, 89, 0
1, 105222, Note_on_c, 0, 77, 46
1, 105246, Control_c, 0, 64, 0
1, 105266, Note_on_c, 0, 77, 0
1, 105311, Note_on_c, 0, 85, 0
1, 105311, Note_on_c, 0, 92, 50
1, 105311, Note_on_c, 0, 85, 26
1, 105314, Note_on_c, 0, 69, 41
1, 105314, Note_on_c, 0, 66, 34
1, 105366, Control_c, 0, 64, 127
1, 105397, Note_on_c, 0, 92, 0
1, 105397, Note_on_c, 0, 90, 46
1, 105440, Note_on_c, 0, 66, 0
1, 105440, Note_on_c, 0, 69, 0
1, 105484, Note_on_c, 0, 90, 0
1, 105484, Note_on_c, 0, 78, 46
1, 105519, Control_c, 0, 64, 0
1, 105528, Note_on_c, 0, 78, 0
1, 105572, Note_on_c, 0, 85, 0
1, 105572, Note_on_c, 0, 90, 50
1, 105572, Note_on_c, 0, 85, 26
1, 105575, Note_on_c, 0, 71, 37
1, 105575, Note_on_c, 0, 61, 31
1, 105575, Note_on_c, 0, 68, 31
1, 105658, Note_on_c, 0, 90, 0
1, 105658, Note_on_c, 0, 89, 48
1, 105664, Control_c, 0, 64, 127
1, 105701, Note_on_c, 0, 68, 0
1, 105701, Note_on_c, 0, 61, 0
1, 105701, Note_on_c, 0, 71, 0
1, 105745, Note_on_c, 0, 89, 0
1, 105745, Note_on_c, 0, 77, 48
1, 105783, Control_c, 0, 64, 0
1, 105789, Note_on_c, 0, 77, 0
1, 105833, Note_on_c, 0, 85, 0
1, 105833, Note_on_c, 0, 92, 56
1, 105833, Note_on_c, 0, 85, 44
1, 105836, Note_on_c, 0, 69, 40
1, 105836, Note_on_c, 0, 66, 34
1, 105836, Control_c, 0, 64, 127
1, 105898, Note_on_c, 0, 92, 0
1, 105898, Note_on_c, 0, 90, 55
1, 105898, Note_on_c, 0, 66, 0
1, 105901, Note_on_c, 0, 69, 0
1, 105963, Note_on_c, 0, 90, 0
1, 105963, Note_on_c, 0, 85, 0
1, 105963, Note_on_c, 0, 85, 53
1, 106028, Note_on_c, 0, 85, 0
1, 106028, Note_on_c, 0, 81, 52
1, 106093, Note_on_c, 0, 81, 0
1, 106093, Note_on_c, 0, 80, 51
1, 106159, Note_on_c, 0, 80, 0
1, 106159, Note_on_c, 0, 78, 49
1, 106225, Note_on_c, 0, 78, 0
1, 106225, Note_on_c, 0, 73, 48
1, 106294, Note_on_c, 0, 73, 0
1, 106294, Note_on_c, 0, 69, 46
1, 106363, Note_on_c, 0, 69, 0
1, 106363, Note_on_c, 0, 66, 45
1, 106431, Note_on_c, 0, 66, 0
1, 106533, Control_c, 0, 64, 0
1, 106632, Note_on_c, 0, 90, 54
1, 106632, Note_on_c, 0, 93, 43
1, 106632, Note_on_c, 0, 79, 34
1, 106635, Note_on_c, 0, 69, 28
1, 106635, Note_on_c, 0, 73, 28
1, 106635, Control_c, 0, 64, 127
1, 106720, Note_on_c, 0, 90, 0
1, 106720, Note_on_c, 0, 88, 47
1, 106764, Note_on_c, 0, 73, 0
1, 106764, Note_on_c, 0, 69, 0
1, 106764, Note_on_c, 0, 79, 0
1, 106794, Control_c, 0, 64, 0
1, 106808, Note_on_c, 0, 88, 0
1, 106808, Note_on_c, 0, 81, 47
1, 106851, Note_on_c, 0, 81, 0
1, 106895, Note_on_c, 0, 93, 0
1, 106895, Note_on_c, 0, 88, 52
1, 106895, Note_on_c, 0, 93, 41
1, 106898, Note_on_c, 0, 78, 39
1, 106898, Note_on_c, 0, 74, 33
1, 106898, Control_c, 0, 64, 127
1, 106980, Note_on_c, 0, 88, 0
1, 106980, Note_on_c, 0, 86, 46
1, 107023, Note_on_c, 0, 74, 0
1, 107023, Note_on_c, 0, 78, 0
1, 107064, Control_c, 0, 64, 0
1, 107067, Note_on_c, 0, 86, 0
1, 107067, Note_on_c, 0, 81, 46
1, 107111, Note_on_c, 0, 81, 0
1, 107155, Note_on_c, 0, 93, 0
1, 107155, Note_on_c, 0, 86, 50
1, 107155, Note_on_c, 0, 93, 33
1, 107158, Note_on_c, 0, 79, 36
1, 107158, Note_on_c, 0, 69, 30
1, 107158, Note_on_c, 0, 76, 30
1, 107241, Note_on_c, 0, 86, 0
1, 107241, Note_on_c, 0, 85, 46
1, 107241, Control_c, 0, 64, 127
1, 107284, Note_on_c, 0, 76, 0
1, 107284, Note_on_c, 0, 69, 0
1, 107284, Note_on_c, 0, 79, 0
1, 107328, Note_on_c, 0, 85, 0
1, 107328, Note_on_c, 0, 81, 46
1, 107347, Control_c, 0, 64, 0
1, 107373, Note_on_c, 0, 81, 0
1, 107417, Note_on_c, 0, 93, 0
1, 107417, Note_on_c, 0, 88, 50
1, 107417, Note_on_c, 0, 93, 33
1, 107420, Note_on_c, 0, 78, 41
1, 107420, Note_on_c, 0, 74, 34
1, 107473, Control_c, 0, 64, 127
1, 107503, Note_on_c, 0, 88, 0
1, 107503, Note_on_c, 0, 86, 46
1, 107546, Note_on_c, 0, 74, 0
1, 107546, Note_on_c, 0, 78, 0
1, 107590, Note_on_c, 0, 86, 0
1, 107590, Note_on_c, 0, 81, 46
1, 107625, Control_c, 0, 64, 0
1, 107634, Note_on_c, 0, 81, 0
1, 107678, Note_on_c, 0, 93, 0
1, 107678, Note_on_c, 0, 86, 50
1, 107678, Note_on_c, 0, 93, 33
1, 107681, Note_on_c, 0, 79, 37
1, 107681, Note_on_c, 0, 69, 31
1, 107681, Note_on_c, 0, 76, 31
1, 107765, Note_on_c, 0, 86, 0
1, 107765, Note_on_c, 0, 85, 48
1, 107771, Control_c, 0, 64, 127
1, 107808, Note_on_c, 0, 76, 0
1, 107808, Note_on_c, 0, 69, 0
1, 107808, Note_on_c, 0, 79, 0
1, 107852, Note_on_c, 0, 85, 0
1, 107852, Note_on_c, 0, 81, 48
1, 107889, Control_c, 0, 64, 0
1, 107896, Note_on_c, 0, 81, 0
1, 107940, Note_on_c, 0, 93, 0
1, 107940, Note_on_c, 0, 88, 56
1, 107940, Note_on_c, 0, 93, 50
1, 107943, Note_on_c, 0, 78, 40
1, 107943, Note_on_c, 0, 74, 34
1, 107943, Control_c, 0, 64, 127
1, 108005, Note_on_c, 0, 74, 0
1, 108005, Note_on_c, 0, 78, 0
1, 108026, Note_on_c, 0, 88, 0
1, 108026, Note_on_c, 0, 86, 55
1, 108070, Note_on_c, 0, 93, 0
1, 108113, Note_on_c, 0, 86, 0
1, 108113, Note_on_c, 0, 81, 53
1, 108200, Note_on_c, 0, 81, 0
1, 108200, Note_on_c, 0, 78, 51
1, 108266, Note_on_c, 0, 78, 0
1, 108266, Note_on_c, 0, 74, 49
1, 108331, Note_on_c, 0, 74, 0
1, 108331, Note_on_c, 0, 69, 48
1, 108401, Note_on_c, 0, 69, 0
1, 108401, Note_on_c, 0, 66, 46
1, 108470, Note_on_c, 0, 66, 0
1, 108470, Note_on_c, 0, 62, 45
1, 108478, Control_c, 0, 64, 0
1, 108537, Note_on_c, 0, 62, 0
1, 108738, Note_on_c, 0, 62, 41
1, 108837, Note_on_c, 0, 62, 0
1, 108869, Note_on_c, 0, 66, 41
1, 108973, Note_on_c, 0, 66, 0
1, 109007, Note_on_c, 0, 59, 41
1, 109274, Note_on_c, 0, 66, 36
1, 109274, Note_on_c, 0, 74, 49
1, 109274, Note_on_c, 0, 47, 22
1, 109277, Note_on_c, 0, 54, 30
1, 109277, Control_c, 0, 64, 127
1, 109338, Note_on_c, 0, 74, 0
1, 109338, Note_on_c, 0, 78, 42
1, 109403, Note_on_c, 0, 78, 0
1, 109403, Note_on_c, 0, 66, 0
1, 109403, Note_on_c, 0, 71, 49
1, 109406, Note_on_c, 0, 54, 0
1, 109406, Note_on_c, 0, 47, 0
1, 109472, Note_on_c, 0, 71, 0
1, 109541, Note_on_c, 0, 78, 35
1, 109541, Note_on_c, 0, 86, 49
1, 109541, Note_on_c, 0, 59, 0
1, 109544, Note_on_c, 0, 47, 22
1, 109544, Note_on_c, 0, 54, 30
1, 109608, Note_on_c, 0, 86, 0
1, 109608, Note_on_c, 0, 90, 43
1, 109675, Note_on_c, 0, 90, 0
1, 109675, Note_on_c, 0, 78, 0
1, 109675, Note_on_c, 0, 83, 49
1, 109678, Note_on_c, 0, 54, 0
1, 109678, Note_on_c, 0, 47, 0
1, 109734, Control_c, 0, 64, 0
1, 109742, Note_on_c, 0, 83, 0
1, 109809, Note_on_c, 0, 62, 41
1, 109908, Note_on_c, 0, 62, 0
1, 109940, Note_on_c, 0, 66, 41
1, 110044, Note_on_c, 0, 66, 0
1, 110078, Note_on_c, 0, 59, 41
1, 110345, Note_on_c, 0, 78, 34
1, 110345, Note_on_c, 0, 86, 49
1, 110345, Note_on_c, 0, 47, 22
1, 110348, Note_on_c, 0, 54, 30
1, 110348, Control_c, 0, 64, 127
1, 110410, Note_on_c, 0, 86, 0
1, 110410, Note_on_c, 0, 90, 42
1, 110474, Note_on_c, 0, 90, 0
1, 110474, Note_on_c, 0, 78, 0
1, 110474, Note_on_c, 0, 83, 49
1, 110477, Note_on_c, 0, 54, 0
1, 110477, Note_on_c, 0, 47, 0
1, 110543, Note_on_c, 0, 83, 0
1, 110613, Note_on_c, 0, 90, 36
1, 110613, Note_on_c, 0, 98, 49
1, 110613, Note_on_c, 0, 59, 0
1, 110616, Note_on_c, 0, 47, 22
1, 110616, Note_on_c, 0, 54, 30
1, 110680, Note_on_c, 0, 98, 0
1, 110680, Note_on_c, 0, 102, 43
1, 110747, Note_on_c, 0, 102, 0
1, 110747, Note_on_c, 0, 90, 0
1, 110747, Note_on_c, 0, 95, 49
1, 110750, Note_on_c, 0, 54, 0
1, 110750, Note_on_c, 0, 47, 0
1, 110806, Control_c, 0, 64, 0
1, 110814, Note_on_c, 0, 95, 0
1, 110881, Note_on_c, 0, 83, 45
1, 110881, Note_on_c, 0, 95, 54
1, 110881, Note_on_c, 0, 86, 45
1, 110948, Note_on_c, 0, 86, 0
1, 110948, Note_on_c, 0, 95, 0
1, 110948, Note_on_c, 0, 83, 0
1, 111015, Note_on_c, 0, 86, 42
1, 111015, Note_on_c, 0, 98, 50
1, 111015, Note_on_c, 0, 90, 42
1, 111080, Note_on_c, 0, 90, 0
1, 111080, Note_on_c, 0, 98, 0
1, 111080, Note_on_c, 0, 86, 0
1, 111146, Note_on_c, 0, 85, 46
1, 111146, Note_on_c, 0, 97, 55
1, 111146, Note_on_c, 0, 88, 46
1, 111149, Note_on_c, 0, 40, 36
1, 111149, Note_on_c, 0, 52, 41
1, 111211, Note_on_c, 0, 88, 0
1, 111211, Note_on_c, 0, 97, 0
1, 111211, Note_on_c, 0, 85, 0
1, 111214, Note_on_c, 0, 52, 0
1, 111214, Note_on_c, 0, 40, 0
1, 111276, Note_on_c, 0, 83, 44
1, 111276, Note_on_c, 0, 95, 52
1, 111276, Note_on_c, 0, 86, 44
1, 111341, Note_on_c, 0, 86, 0
1, 111341, Note_on_c, 0, 95, 0
1, 111341, Note_on_c, 0, 83, 0
1, 111407, Note_on_c, 0, 81, 47
1, 111407, Note_on_c, 0, 93, 56
1, 111407, Note_on_c, 0, 85, 47
1, 111410, Note_on_c, 0, 64, 36
1, 111410, Note_on_c, 0, 61, 30
1, 111410, Note_on_c, 0, 57, 30
1, 111472, Note_on_c, 0, 85, 0
1, 111472, Note_on_c, 0, 93, 0
1, 111472, Note_on_c, 0, 81, 0
1, 111475, Note_on_c, 0, 57, 0
1, 111475, Note_on_c, 0, 61, 0
1, 111475, Note_on_c, 0, 64, 0
1, 111537, Note_on_c, 0, 85, 42
1, 111537, Note_on_c, 0, 97, 50
1, 111537, Note_on_c, 0, 88, 42
1, 111606, Note_on_c, 0, 88, 0
1, 111606, Note_on_c, 0, 97, 0
1, 111606, Note_on_c, 0, 85, 0
1, 111675, Note_on_c, 0, 83, 49
1, 111675, Note_on_c, 0, 95, 58
1, 111675, Note_on_c, 0, 86, 49
1, 111678, Note_on_c, 0, 52, 41
1, 111740, Note_on_c, 0, 86, 0
1, 111740, Note_on_c, 0, 95, 0
1, 111740, Note_on_c, 0, 83, 0
1, 111743, Note_on_c, 0, 52, 0
1, 111806, Note_on_c, 0, 81, 42
1, 111806, Note_on_c, 0, 93, 50
1, 111806, Note_on_c, 0, 85, 42
1, 111872, Note_on_c, 0, 85, 0
1, 111872, Note_on_c, 0, 93, 0
1, 111872, Note_on_c, 0, 81, 0
1, 111938, Note_on_c, 0, 80, 45
1, 111938, Note_on_c, 0, 92, 54
1, 111938, Note_on_c, 0, 83, 45
1, 111941, Note_on_c, 0, 68, 36
1, 111941, Note_on_c, 0, 64, 30
1, 111941, Note_on_c, 0, 59, 30
1, 112004, Note_on_c, 0, 83, 0
1, 112004, Note_on_c, 0, 92, 0
1, 112004, Note_on_c, 0, 80, 0
1, 112007, Note_on_c, 0, 59, 0
1, 112007, Note_on_c, 0, 64, 0
1, 112007, Note_on_c, 0, 68, 0
1, 112070, Note_on_c, 0, 83, 42
1, 112070, Note_on_c, 0, 95, 50
1, 112070, Note_on_c, 0, 86, 42
1, 112138, Note_on_c, 0, 86, 0
1, 112138, Note_on_c, 0, 95, 0
1, 112138, Note_on_c, 0, 83, 0
1, 112206, Note_on_c, 0, 81, 51
1, 112206, Note_on_c, 0, 93, 60
1, 112206, Note_on_c, 0, 85, 51
1, 112209, Note_on_c, 0, 61, 34
1, 112209, Note_on_c, 0, 69, 41
1, 112209, Note_on_c, 0, 57, 34
1, 112212, Note_on_c, 0, 64, 34
1, 112272, Note_on_c, 0, 85, 0
1, 112272, Note_on_c, 0, 93, 0
1, 112272, Note_on_c, 0, 81, 0
1, 112275, Note_on_c, 0, 64, 0
1, 112275, Note_on_c, 0, 61, 0
1, 112275, Note_on_c, 0, 69, 0
1, 112278, Note_on_c, 0, 57, 0
1, 112338, Note_on_c, 0, 85, 42
1, 112338, Note_on_c, 0, 97, 50
1, 112338, Note_on_c, 0, 88, 42
1, 112403, Note_on_c, 0, 88, 0
1, 112403, Note_on_c, 0, 97, 0
1, 112403, Note_on_c, 0, 85, 0
1, 112469, Note_on_c, 0, 80, 46
1, 112469, Note_on_c, 0, 92, 55
1, 112469, Note_on_c, 0, 83, 46
1, 112472, Note_on_c, 0, 68, 37
1, 112472, Note_on_c, 0, 64, 31
1, 112534, Note_on_c, 0, 83, 0
1, 112534, Note_on_c, 0, 92, 0
1, 112534, Note_on_c, 0, 80, 0
1, 112537, Note_on_c, 0, 64, 0
1, 112537, Note_on_c, 0, 68, 0
1, 112600, Note_on_c, 0, 83, 42
1, 112600, Note_on_c, 0, 95, 50
1, 112600, Note_on_c, 0, 86, 42
1, 112666, Note_on_c, 0, 86, 0
1, 112666, Note_on_c, 0, 95, 0
1, 112666, Note_on_c, 0, 83, 0
1, 112731, Note_on_c, 0, 81, 47
1, 112731, Note_on_c, 0, 93, 56
1, 112731, Note_on_c, 0, 85, 47
1, 112734, Note_on_c, 0, 61, 34
1, 112734, Note_on_c, 0, 69, 41
1, 112734, Note_on_c, 0, 57, 34
1, 112737, Note_on_c, 0, 64, 34
1, 112801, Note_on_c, 0, 85, 0
1, 112801, Note_on_c, 0, 93, 0
1, 112801, Note_on_c, 0, 81, 0
1, 112804, Note_on_c, 0, 64, 0
1, 112804, Note_on_c, 0, 61, 0
1, 112804, Note_on_c, 0, 69, 0
1, 112807, Note_on_c, 0, 57, 0
1, 113009, Note_on_c, 0, 69, 89
1, 113009, Note_on_c, 0, 57, 74
1, 113009, Note_on_c, 0, 45, 60
1, 113012, Note_on_c, 0, 33, 51
1, 113143, Note_on_c, 0, 57, 0
1, 113143, Note_on_c, 0, 69, 0
1, 113143, Note_on_c, 0, 33, 0
1, 113146, Note_on_c, 0, 45, 0
1, 113278, Note_on_c, 0, 68, 94
1, 113278, Note_on_c, 0, 56, 79
1, 113278, Note_on_c, 0, 44, 65
1, 113281, Note_on_c, 0, 32, 54
1, 113412, Note_on_c, 0, 56, 0
1, 113412, Note_on_c, 0, 68, 0
1, 113412, Note_on_c, 0, 32, 0
1, 113415, Note_on_c, 0, 44, 0
1, 113546, Note_on_c, 0, 65, 89
1, 113546, Note_on_c, 0, 53, 74
1, 113546, Note_on_c, 0, 41, 60
1, 113549, Note_on_c, 0, 29, 51
1, 113680, Note_on_c, 0, 53, 0
1, 113680, Note_on_c, 0, 65, 0
1, 113680, Note_on_c, 0, 29, 0
1, 113683, Note_on_c, 0, 41, 0
1, 113814, Note_on_c, 0, 64, 94
1, 113814, Note_on_c, 0, 52, 79
1, 113814, Note_on_c, 0, 40, 65
1, 113817, Note_on_c, 0, 28, 54
1, 113948, Note_on_c, 0, 52, 0
1, 113948, Note_on_c, 0, 64, 0
1, 113948, Note_on_c, 0, 28, 0
1, 113951, Note_on_c, 0, 40, 0
1, 114082, Note_on_c, 0, 62, 89
1, 114082, Note_on_c, 0, 50, 74
1, 114082, Note_on_c, 0, 38, 60
1, 114085, Note_on_c, 0, 26, 51
1, 114221, Note_on_c, 0, 50, 0
1, 114221, Note_on_c, 0, 62, 0
1, 114221, Note_on_c, 0, 26, 0
1, 114224, Note_on_c, 0, 38, 0
1, 114360, Note_on_c, 0, 61, 99
1, 114360, Note_on_c, 0, 49, 84
1, 114360, Note_on_c, 0, 37, 69
1, 114363, Note_on_c, 0, 25, 57
1, 114765, Note_on_c, 0, 49, 0
1, 114765, Note_on_c, 0, 61, 0
1, 114765, Note_on_c, 0, 62, 88
1, 114768, Note_on_c, 0, 50, 74
1, 114768, Note_on_c, 0, 25, 0
1, 114768, Note_on_c, 0, 37, 0
1, 114771, Note_on_c, 0, 38, 60
1, 114771, Note_on_c, 0, 26, 51
1, 114899, Note_on_c, 0, 50, 0
1, 114899, Note_on_c, 0, 62, 0
1, 114899, Note_on_c, 0, 64, 100
1, 114902, Note_on_c, 0, 52, 85
1, 114902, Note_on_c, 0, 26, 0
1, 114902, Note_on_c, 0, 38, 0
1, 114905, Note_on_c, 0, 40, 70
1, 114905, Note_on_c, 0, 28, 58
1, 115038, Note_on_c, 0, 52, 0
1, 115038, Note_on_c, 0, 64, 0
1, 115038, Note_on_c, 0, 28, 0
1, 115041, Note_on_c, 0, 40, 0
1, 115311, Note_on_c, 0, 69, 92
1, 115311, Note_on_c, 0, 57, 77
1, 115311, Note_on_c, 0, 45, 64
1, 115314, Note_on_c, 0, 33, 53
1, 115378, Note_on_c, 0, 57, 0
1, 115378, Note_on_c, 0, 69, 0
1, 115378, Note_on_c, 0, 33, 0
1, 115381, Note_on_c, 0, 45, 0
1, 115446, Note_on_c, 0, 64, 100
1, 115446, Note_on_c, 0, 52, 85
1, 115446, Note_on_c, 0, 40, 70
1, 115449, Note_on_c, 0, 28, 58
1, 115453, Control_c, 0, 64, 127
1, 115850, Note_on_c, 0, 52, 0
1, 115850, Note_on_c, 0, 64, 0
1, 115850, Note_on_c, 0, 69, 87
1, 115853, Note_on_c, 0, 57, 73
1, 115853, Note_on_c, 0, 28, 0
1, 115853, Note_on_c, 0, 40, 0
1, 115856, Note_on_c, 0, 45, 60
1, 115856, Note_on_c, 0, 33, 51
1, 115873, Control_c, 0, 64, 0
1, 115917, Note_on_c, 0, 57, 0
1, 115917, Note_on_c, 0, 69, 0
1, 115917, Note_on_c, 0, 33, 0
1, 115920, Note_on_c, 0, 45, 0
1, 115984, Note_on_c, 0, 64, 97
1, 115984, Note_on_c, 0, 52, 82
1, 115984, Note_on_c, 0, 40, 68
1, 115987, Note_on_c, 0, 28, 57
1, 116024, Control_c, 0, 64, 127
1, 116392, Note_on_c, 0, 52, 0
1, 116392, Note_on_c, 0, 64, 0
1, 116392, Note_on_c, 0, 69, 81
1, 116395, Note_on_c, 0, 57, 69
1, 116395, Note_on_c, 0, 28, 0
1, 116395, Note_on_c, 0, 40, 0
1, 116398, Note_on_c, 0, 45, 56
1, 116398, Note_on_c, 0, 33, 47
1, 116404, Control_c, 0, 64, 0
1, 116461, Note_on_c, 0, 57, 0
1, 116461, Note_on_c, 0, 69, 0
1, 116461, Note_on_c, 0, 33, 0
1, 116464, Note_on_c, 0, 45, 0
1, 116530, Note_on_c, 0, 64, 87
1, 116530, Note_on_c, 0, 52, 73
1, 116530, Note_on_c, 0, 40, 60
1, 116533, Note_on_c, 0, 28, 51
1, 116598, Note_on_c, 0, 52, 0
1, 116598, Note_on_c, 0, 64, 0
1, 116598, Note_on_c, 0, 28, 0
1, 116601, Note_on_c, 0, 40, 0
1, 116667, Note_on_c, 0, 61, 76
1, 116667, Note_on_c, 0, 49, 65
1, 116667, Note_on_c, 0, 37, 53
1, 116670, Note_on_c, 0, 25, 45
1, 116734, Note_on_c, 0, 49, 0
1, 116734, Note_on_c, 0, 61, 0
1, 116734, Note_on_c, 0, 25, 0
1, 116737, Note_on_c, 0, 37, 0
1, 116800, Note_on_c, 0, 45, 65
1, 116800, Note_on_c, 0, 57, 65
1, 116800, Note_on_c, 0, 21, 45
1, 116803, Note_on_c, 0, 33, 45
1, 116867, Note_on_c, 0, 57, 0
1, 116867, Note_on_c, 0, 45, 0
1, 116867, Note_on_c, 0, 33, 0
1, 116870, Note_on_c, 0, 21, 0
1, 116933, Note_on_c, 0, 61, 76
1, 116933, Note_on_c, 0, 49, 65
1, 116933, Note_on_c, 0, 37, 53
1, 116936, Note_on_c, 0, 25, 45
1, 117000, Note_on_c, 0, 49, 0
1, 117000, Note_on_c, 0, 61, 0
1, 117000, Note_on_c, 0, 25, 0
1, 117003, Note_on_c, 0, 37, 0
1, 117066, Note_on_c, 0, 64, 72
1, 117066, Note_on_c, 0, 52, 60
1, 117066, Note_on_c, 0, 40, 50
1, 117069, Note_on_c, 0, 28, 42
1, 117133, Note_on_c, 0, 52, 0
1, 117133, Note_on_c, 0, 64, 0
1, 117133, Note_on_c, 0, 28, 0
1, 117136, Note_on_c, 0, 40, 0
1, 117199, Note_on_c, 0, 61, 76
1, 117199, Note_on_c, 0, 49, 65
1, 117199, Note_on_c, 0, 37, 53
1, 117202, Note_on_c, 0, 25, 45
1, 117266, Note_on_c, 0, 49, 0
1, 117266, Note_on_c, 0, 61, 0
1, 117266, Note_on_c, 0, 25, 0
1, 117269, Note_on_c, 0, 37, 0
1, 117332, Note_on_c, 0, 64, 81
1, 117332, Note_on_c, 0, 52, 69
1, 117332, Note_on_c, 0, 40, 56
1, 117335, Note_on_c, 0, 28, 47
1, 117400, Note_on_c, 0, 52, 0
1, 117400, Note_on_c, 0, 64, 0
1, 117400, Note_on_c, 0, 28, 0
1, 117403, Note_on_c, 0, 40, 0
1, 117469, Note_on_c, 0, 69, 86
1, 117469, Note_on_c, 0, 57, 72
1, 117469, Note_on_c, 0, 45, 59
1, 117472, Note_on_c, 0, 33, 50
1, 117539, Note_on_c, 0, 57, 0
1, 117539, Note_on_c, 0, 69, 0
1, 117539, Note_on_c, 0, 33, 0
1, 117542, Note_on_c, 0, 45, 0
1, 117610, Note_on_c, 0, 64, 90
1, 117610, Note_on_c, 0, 52, 76
1, 117610, Note_on_c, 0, 40, 63
1, 117613, Note_on_c, 0, 28, 53
1, 117613, Control_c, 0, 64, 127
1, 118177, Note_on_c, 0, 52, 0
1, 118177, Note_on_c, 0, 64, 0
1, 118177, Note_on_c, 0, 69, 84
1, 118180, Note_on_c, 0, 57, 71
1, 118180, Note_on_c, 0, 28, 0
1, 118180, Note_on_c, 0, 40, 0
1, 118183, Note_on_c, 0, 45, 58
1, 118183, Note_on_c, 0, 33, 49
1, 118183, Control_c, 0, 64, 0
1, 118250, Note_on_c, 0, 57, 0
1, 118250, Note_on_c, 0, 69, 0
1, 118250, Note_on_c, 0, 33, 0
1, 118253, Note_on_c, 0, 45, 0
1, 118417, Control_c, 0, 64, 127
1, 118431, Note_on_c, 0, 41, 47
1, 118449, Note_on_c, 0, 48, 51
1, 118467, Note_on_c, 0, 81, 75
1, 118467, Note_on_c, 0, 69, 59
1, 118467, Note_on_c, 0, 72, 64
1, 118470, Note_on_c, 0, 57, 58
1, 118599, Control_c, 0, 64, 0
1, 118611, Note_on_c, 0, 72, 0
1, 118611, Note_on_c, 0, 69, 0
1, 118611, Note_on_c, 0, 81, 0
1, 118614, Note_on_c, 0, 57, 0
1, 118614, Note_on_c, 0, 48, 0
1, 118614, Note_on_c, 0, 41, 0
1, 118718, Note_on_c, 0, 40, 46
1, 118736, Note_on_c, 0, 48, 48
1, 118754, Note_on_c, 0, 79, 70
1, 118754, Note_on_c, 0, 67, 59
1, 118754, Note_on_c, 0, 72, 59
1, 118757, Note_on_c, 0, 55, 58
1, 118757, Control_c, 0, 64, 127
1, 118894, Note_on_c, 0, 79, 0
1, 118894, Note_on_c, 0, 76, 65
1, 118894, Note_on_c, 0, 55, 0
1, 118897, Note_on_c, 0, 48, 0
1, 118897, Note_on_c, 0, 40, 0
1, 118909, Control_c, 0, 64, 0
1, 119002, Note_on_c, 0, 41, 47
1, 119020, Note_on_c, 0, 48, 51
1, 119039, Note_on_c, 0, 76, 0
1, 119039, Note_on_c, 0, 72, 0
1, 119039, Note_on_c, 0, 67, 0
1, 119042, Note_on_c, 0, 77, 70
1, 119042, Note_on_c, 0, 65, 59
1, 119042, Note_on_c, 0, 69, 59
1, 119045, Note_on_c, 0, 57, 54
1, 119067, Control_c, 0, 64, 127
1, 119180, Note_on_c, 0, 77, 0
1, 119180, Note_on_c, 0, 74, 64
1, 119180, Note_on_c, 0, 57, 0
1, 119183, Note_on_c, 0, 48, 0
1, 119183, Note_on_c, 0, 41, 0
1, 119188, Control_c, 0, 64, 0
1, 119287, Note_on_c, 0, 43, 52
1, 119305, Note_on_c, 0, 52, 55
1, 119323, Note_on_c, 0, 74, 0
1, 119323, Note_on_c, 0, 69, 0
1, 119323, Note_on_c, 0, 65, 0
1, 119326, Note_on_c, 0, 76, 70
1, 119326, Note_on_c, 0, 64, 59
1, 119326, Note_on_c, 0, 67, 59
1, 119329, Note_on_c, 0, 60, 56
1, 119347, Control_c, 0, 64, 127
1, 119465, Note_on_c, 0, 76, 0
1, 119465, Note_on_c, 0, 72, 62
1, 119465, Note_on_c, 0, 60, 0
1, 119468, Note_on_c, 0, 52, 0
1, 119468, Note_on_c, 0, 43, 0
1, 119489, Control_c, 0, 64, 0
1, 119574, Note_on_c, 0, 43, 45
1, 119592, Note_on_c, 0, 53, 47
1, 119610, Note_on_c, 0, 72, 0
1, 119610, Note_on_c, 0, 67, 0
1, 119610, Note_on_c, 0, 64, 0
1, 119613, Note_on_c, 0, 74, 66
1, 119613, Note_on_c, 0, 62, 56
1, 119613, Note_on_c, 0, 65, 56
1, 119616, Note_on_c, 0, 59, 51
1, 119629, Control_c, 0, 64, 127
1, 119752, Note_on_c, 0, 74, 0
1, 119752, Note_on_c, 0, 71, 60
1, 119752, Note_on_c, 0, 59, 0
1, 119755, Note_on_c, 0, 53, 0
1, 119755, Note_on_c, 0, 43, 0
1, 119786, Control_c, 0, 64, 0
1, 119860, Note_on_c, 0, 48, 45
1, 119878, Note_on_c, 0, 55, 1
1, 119896, Note_on_c, 0, 71, 0
1, 119896, Note_on_c, 0, 65, 0
1, 119896, Note_on_c, 0, 62, 0
1, 119899, Note_on_c, 0, 64, 40
1, 119899, Note_on_c, 0, 72, 57
1, 119899, Note_on_c, 0, 60, 59
1, 119902, Control_c, 0, 64, 127
1, 119969, Note_on_c, 0, 72, 0
1, 119969, Note_on_c, 0, 74, 53
1, 120041, Note_on_c, 0, 74, 0
1, 120041, Note_on_c, 0, 64, 0
1, 120041, Note_on_c, 0, 72, 57
1, 120044, Note_on_c, 0, 60, 0
1, 120044, Note_on_c, 0, 55, 0
1, 120044, Note_on_c, 0, 48, 0
1, 120113, Note_on_c, 0, 72, 0
1, 120113, Note_on_c, 0, 71, 53
1, 120184, Note_on_c, 0, 71, 0
1, 120184, Note_on_c, 0, 72, 54
1, 120184, Note_on_c, 0, 64, 45
1, 120255, Note_on_c, 0, 72, 0
1, 120255, Note_on_c, 0, 76, 55
1, 120255, Note_on_c, 0, 64, 0
1, 120258, Note_on_c, 0, 67, 46
1, 120325, Note_on_c, 0, 76, 0
1, 120325, Note_on_c, 0, 79, 56
1, 120325, Note_on_c, 0, 67, 0
1, 120328, Note_on_c, 0, 72, 47
1, 120395, Note_on_c, 0, 79, 0
1, 120395, Note_on_c, 0, 83, 58
1, 120395, Note_on_c, 0, 72, 0
1, 120398, Note_on_c, 0, 74, 49
1, 120442, Note_on_c, 0, 83, 0
1, 120442, Note_on_c, 0, 86, 53
1, 120465, Note_on_c, 0, 86, 0
1, 120465, Note_on_c, 0, 84, 61
1, 120465, Note_on_c, 0, 74, 0
1, 120468, Note_on_c, 0, 76, 49
1, 120534, Note_on_c, 0, 84, 0
1, 120534, Note_on_c, 0, 83, 57
1, 120534, Note_on_c, 0, 76, 0
1, 120603, Note_on_c, 0, 83, 0
1, 120603, Note_on_c, 0, 84, 57
1, 120672, Note_on_c, 0, 84, 0
1, 120672, Note_on_c, 0, 86, 61
1, 120707, Note_on_c, 0, 55, 47
1, 120724, Note_on_c, 0, 65, 51
1, 120742, Note_on_c, 0, 86, 0
1, 120742, Note_on_c, 0, 77, 40
1, 120742, Note_on_c, 0, 88, 63
1, 120745, Note_on_c, 0, 71, 59
1, 120776, Control_c, 0, 64, 0
1, 120811, Note_on_c, 0, 88, 0
1, 120880, Note_on_c, 0, 77, 0
1, 120880, Note_on_c, 0, 71, 0
1, 120880, Note_on_c, 0, 65, 0
1, 120883, Note_on_c, 0, 55, 0
1, 120949, Note_on_c, 0, 86, 60
1, 121020, Note_on_c, 0, 86, 0
1, 121020, Note_on_c, 0, 76, 40
1, 121020, Note_on_c, 0, 84, 57
1, 121023, Note_on_c, 0, 60, 45
1, 121023, Note_on_c, 0, 67, 1
1, 121023, Note_on_c, 0, 72, 59
1, 121042, Control_c, 0, 64, 127
1, 121089, Note_on_c, 0, 84, 0
1, 121089, Note_on_c, 0, 86, 53
1, 121158, Note_on_c, 0, 86, 0
1, 121158, Note_on_c, 0, 76, 0
1, 121158, Note_on_c, 0, 84, 57
1, 121161, Note_on_c, 0, 72, 0
1, 121161, Note_on_c, 0, 67, 0
1, 121161, Note_on_c, 0, 60, 0
1, 121226, Note_on_c, 0, 84, 0
1, 121226, Note_on_c, 0, 83, 53
1, 121294, Note_on_c, 0, 83, 0
1, 121294, Note_on_c, 0, 84, 54
1, 121294, Note_on_c, 0, 76, 45
1, 121361, Note_on_c, 0, 84, 0
1, 121361, Note_on_c, 0, 88, 55
1, 121361, Note_on_c, 0, 76, 0
1, 121364, Note_on_c, 0, 79, 46
1, 121429, Note_on_c, 0, 88, 0
1, 121429, Note_on_c, 0, 91, 56
1, 121429, Note_on_c, 0, 79, 0
1, 121432, Note_on_c, 0, 84, 47
1, 121495, Note_on_c, 0, 91, 0
1, 121495, Note_on_c, 0, 95, 58
1, 121495, Note_on_c, 0, 84, 0
1, 121498, Note_on_c, 0, 86, 49
1, 121539, Note_on_c, 0, 95, 0
1, 121539, Note_on_c, 0, 98, 53
1, 121561, Note_on_c, 0, 98, 0
1, 121561, Note_on_c, 0, 96, 61
1, 121561, Note_on_c, 0, 86, 0
1, 121564, Note_on_c, 0, 88, 49
1, 121627, Note_on_c, 0, 96, 0
1, 121627, Note_on_c, 0, 95, 57
1, 121627, Note_on_c, 0, 88, 0
1, 121693, Note_on_c, 0, 95, 0
1, 121693, Note_on_c, 0, 96, 57
1, 121759, Note_on_c, 0, 96, 0
1, 121759, Note_on_c, 0, 98, 61
1, 121792, Note_on_c, 0, 67, 47
1, 121809, Note_on_c, 0, 77, 51
1, 121825, Note_on_c, 0, 98, 0
1, 121825, Note_on_c, 0, 89, 40
1, 121825, Note_on_c, 0, 100, 63
1, 121828, Note_on_c, 0, 83, 59
1, 121864, Control_c, 0, 64, 0
1, 121891, Note_on_c, 0, 100, 0
1, 121957, Note_on_c, 0, 89, 0
1, 121957, Note_on_c, 0, 83, 0
1, 121957, Note_on_c, 0, 77, 0
1, 121960, Note_on_c, 0, 67, 0
1, 122024, Note_on_c, 0, 98, 60
1, 122090, Note_on_c, 0, 98, 0
1, 122090, Note_on_c, 0, 96, 61
1, 122090, Note_on_c, 0, 84, 50
1, 122093, Note_on_c, 0, 72, 42
1, 122093, Note_on_c, 0, 76, 42
1, 122155, Note_on_c, 0, 96, 0
1, 122155, Note_on_c, 0, 88, 58
1, 122155, Note_on_c, 0, 76, 0
1, 122158, Note_on_c, 0, 72, 0
1, 122158, Note_on_c, 0, 84, 0
1, 122220, Note_on_c, 0, 88, 0
1, 122220, Note_on_c, 0, 96, 58
1, 122285, Note_on_c, 0, 96, 0
1, 122285, Note_on_c, 0, 100, 58
1, 122350, Note_on_c, 0, 100, 0
1, 122350, Note_on_c, 0, 103, 64
1, 122350, Note_on_c, 0, 67, 50
1, 122414, Note_on_c, 0, 103, 0
1, 122414, Note_on_c, 0, 91, 58
1, 122414, Note_on_c, 0, 67, 0
1, 122478, Note_on_c, 0, 91, 0
1, 122478, Note_on_c, 0, 95, 58
1, 122478, Note_on_c, 0, 83, 46
1, 122481, Note_on_c, 0, 77, 39
1, 122481, Note_on_c, 0, 74, 39
1, 122542, Note_on_c, 0, 95, 0
1, 122542, Note_on_c, 0, 91, 58
1, 122542, Note_on_c, 0, 74, 0
1, 122545, Note_on_c, 0, 77, 0
1, 122545, Note_on_c, 0, 83, 0
1, 122607, Note_on_c, 0, 91, 0
1, 122607, Note_on_c, 0, 96, 65
1, 122607, Note_on_c, 0, 72, 50
1, 122671, Note_on_c, 0, 96, 0
1, 122671, Note_on_c, 0, 88, 59
1, 122671, Note_on_c, 0, 72, 0
1, 122735, Note_on_c, 0, 88, 0
1, 122735, Note_on_c, 0, 96, 59
1, 122735, Note_on_c, 0, 84, 46
1, 122738, Note_on_c, 0, 79, 39
1, 122738, Note_on_c, 0, 76, 39
1, 122799, Note_on_c, 0, 96, 0
1, 122799, Note_on_c, 0, 100, 59
1, 122799, Note_on_c, 0, 76, 0
1, 122802, Note_on_c, 0, 79, 0
1, 122802, Note_on_c, 0, 84, 0
1, 122863, Note_on_c, 0, 100, 0
1, 122863, Note_on_c, 0, 103, 65
1, 122863, Note_on_c, 0, 67, 50
1, 122927, Note_on_c, 0, 103, 0
1, 122927, Note_on_c, 0, 91, 60
1, 122927, Note_on_c, 0, 67, 0
1, 122992, Note_on_c, 0, 91, 0
1, 122992, Note_on_c, 0, 95, 60
1, 122992, Note_on_c, 0, 83, 46
1, 122995, Note_on_c, 0, 77, 39
1, 122995, Note_on_c, 0, 74, 39
1, 123057, Note_on_c, 0, 95, 0
1, 123057, Note_on_c, 0, 91, 60
1, 123057, Note_on_c, 0, 74, 0
1, 123060, Note_on_c, 0, 77, 0
1, 123060, Note_on_c, 0, 83, 0
1, 123123, Note_on_c, 0, 91, 0
1, 123123, Note_on_c, 0, 96, 61
1, 123123, Note_on_c, 0, 72, 50
1, 123188, Note_on_c, 0, 96, 0
1, 123188, Note_on_c, 0, 88, 58
1, 123188, Note_on_c, 0, 72, 0
1, 123253, Note_on_c, 0, 88, 0
1, 123253, Note_on_c, 0, 96, 58
1, 123253, Note_on_c, 0, 84, 46
1, 123256, Note_on_c, 0, 76, 39
1, 123256, Note_on_c, 0, 79, 39
1, 123318, Note_on_c, 0, 96, 0
1, 123318, Note_on_c, 0, 100, 58
1, 123318, Note_on_c, 0, 79, 0
1, 123321, Note_on_c, 0, 76, 0
1, 123321, Note_on_c, 0, 84, 0
1, 123383, Note_on_c, 0, 100, 0
1, 123383, Note_on_c, 0, 103, 64
1, 123383, Note_on_c, 0, 67, 50
1, 123447, Note_on_c, 0, 103, 0
1, 123447, Note_on_c, 0, 91, 58
1, 123447, Note_on_c, 0, 67, 0
1, 123511, Note_on_c, 0, 91, 0
1, 123511, Note_on_c, 0, 95, 58
1, 123511, Note_on_c, 0, 83, 46
1, 123514, Note_on_c, 0, 77, 39
1, 123514, Note_on_c, 0, 74, 39
1, 123575, Note_on_c, 0, 95, 0
1, 123575, Note_on_c, 0, 91, 58
1, 123575, Note_on_c, 0, 74, 0
1, 123578, Note_on_c, 0, 77, 0
1, 123578, Note_on_c, 0, 83, 0
1, 123640, Note_on_c, 0, 91, 0
1, 123640, Note_on_c, 0, 96, 65
1, 123640, Note_on_c, 0, 72, 50
1, 123704, Note_on_c, 0, 96, 0
1, 123704, Note_on_c, 0, 88, 59
1, 123704, Note_on_c, 0, 72, 0
1, 123768, Note_on_c, 0, 88, 0
1, 123768, Note_on_c, 0, 96, 59
1, 123768, Note_on_c, 0, 84, 46
1, 123771, Note_on_c, 0, 79, 39
1, 123771, Note_on_c, 0, 76, 39
1, 123832, Note_on_c, 0, 96, 0
1, 123832, Note_on_c, 0, 100, 59
1, 123832, Note_on_c, 0, 76, 0
1, 123835, Note_on_c, 0, 79, 0
1, 123835, Note_on_c, 0, 84, 0
1, 123896, Note_on_c, 0, 100, 0
1, 123896, Note_on_c, 0, 103, 65
1, 123896, Note_on_c, 0, 67, 50
1, 123961, Note_on_c, 0, 103, 0
1, 123961, Note_on_c, 0, 91, 60
1, 123961, Note_on_c, 0, 67, 0
1, 124025, Note_on_c, 0, 91, 0
1, 124025, Note_on_c, 0, 95, 60
1, 124025, Note_on_c, 0, 83, 46
1, 124028, Note_on_c, 0, 77, 39
1, 124028, Note_on_c, 0, 74, 39
1, 124090, Note_on_c, 0, 95, 0
1, 124090, Note_on_c, 0, 91, 60
1, 124090, Note_on_c, 0, 74, 0
1, 124093, Note_on_c, 0, 77, 0
1, 124093, Note_on_c, 0, 83, 0
1, 124131, Note_on_c, 0, 72, 45
1, 124139, Note_on_c, 0, 76, 46
1, 124148, Note_on_c, 0, 79, 48
1, 124156, Note_on_c, 0, 91, 0
1, 124156, Note_on_c, 0, 96, 64
1, 124156, Note_on_c, 0, 84, 50
1, 124221, Note_on_c, 0, 96, 0
1, 124221, Note_on_c, 0, 84, 0
1, 124221, Note_on_c, 0, 72, 0
1, 124224, Note_on_c, 0, 76, 0
1, 124224, Note_on_c, 0, 79, 0
1, 124418, Note_on_c, 0, 72, 46
1, 124418, Note_on_c, 0, 64, 27
1, 124428, Control_c, 0, 64, 127
1, 124484, Note_on_c, 0, 72, 0
1, 124484, Note_on_c, 0, 73, 46
1, 124484, Note_on_c, 0, 64, 0
1, 124487, Note_on_c, 0, 65, 28
1, 124549, Note_on_c, 0, 73, 0
1, 124549, Note_on_c, 0, 74, 47
1, 124549, Note_on_c, 0, 65, 0
1, 124552, Note_on_c, 0, 66, 29
1, 124614, Note_on_c, 0, 74, 0
1, 124614, Note_on_c, 0, 75, 48
1, 124614, Note_on_c, 0, 66, 0
1, 124617, Note_on_c, 0, 67, 30
1, 124678, Note_on_c, 0, 75, 0
1, 124678, Note_on_c, 0, 76, 49
1, 124678, Note_on_c, 0, 67, 0
1, 124681, Note_on_c, 0, 68, 31
1, 124743, Note_on_c, 0, 76, 0
1, 124743, Note_on_c, 0, 77, 49
1, 124743, Note_on_c, 0, 68, 0
1, 124746, Note_on_c, 0, 69, 32
1, 124807, Note_on_c, 0, 77, 0
1, 124807, Note_on_c, 0, 78, 50
1, 124807, Note_on_c, 0, 69, 0
1, 124810, Note_on_c, 0, 70, 33
1, 124871, Note_on_c, 0, 78, 0
1, 124871, Note_on_c, 0, 79, 51
1, 124871, Note_on_c, 0, 70, 0
1, 124874, Note_on_c, 0, 71, 34
1, 124934, Note_on_c, 0, 79, 0
1, 124934, Note_on_c, 0, 80, 52
1, 124934, Note_on_c, 0, 71, 0
1, 124937, Note_on_c, 0, 72, 35
1, 124998, Note_on_c, 0, 80, 0
1, 124998, Note_on_c, 0, 81, 52
1, 124998, Note_on_c, 0, 72, 0
1, 125001, Note_on_c, 0, 73, 36
1, 125061, Note_on_c, 0, 81, 0
1, 125061, Note_on_c, 0, 82, 53
1, 125061, Note_on_c, 0, 73, 0
1, 125064, Note_on_c, 0, 74, 37
1, 125124, Note_on_c, 0, 82, 0
1, 125124, Note_on_c, 0, 83, 54
1, 125124, Note_on_c, 0, 74, 0
1, 125127, Note_on_c, 0, 75, 38
1, 125186, Note_on_c, 0, 83, 0
1, 125186, Note_on_c, 0, 84, 55
1, 125186, Note_on_c, 0, 75, 0
1, 125189, Note_on_c, 0, 76, 40
1, 125248, Note_on_c, 0, 84, 0
1, 125248, Note_on_c, 0, 85, 55
1, 125248, Note_on_c, 0, 76, 0
1, 125251, Note_on_c, 0, 77, 41
1, 125311, Note_on_c, 0, 85, 0
1, 125311, Note_on_c, 0, 86, 56
1, 125311, Note_on_c, 0, 77, 0
1, 125314, Note_on_c, 0, 78, 42
1, 125373, Note_on_c, 0, 86, 0
1, 125373, Note_on_c, 0, 87, 57
1, 125373, Note_on_c, 0, 78, 0
1, 125376, Note_on_c, 0, 79, 43
1, 125435, Note_on_c, 0, 87, 0
1, 125435, Note_on_c, 0, 88, 57
1, 125435, Note_on_c, 0, 79, 0
1, 125438, Note_on_c, 0, 80, 44
1, 125498, Note_on_c, 0, 88, 0
1, 125498, Note_on_c, 0, 89, 58
1, 125498, Note_on_c, 0, 80, 0
1, 125501, Note_on_c, 0, 81, 45
1, 125560, Note_on_c, 0, 89, 0
1, 125560, Note_on_c, 0, 90, 59
1, 125560, Note_on_c, 0, 81, 0
1, 125563, Note_on_c, 0, 82, 46
1, 125622, Note_on_c, 0, 90, 0
1, 125622, Note_on_c, 0, 91, 60
1, 125622, Note_on_c, 0, 82, 0
1, 125625, Note_on_c, 0, 83, 47
1, 125685, Note_on_c, 0, 91, 0
1, 125685, Note_on_c, 0, 92, 60
1, 125685, Note_on_c, 0, 83, 0
1, 125688, Note_on_c, 0, 84, 48
1, 125735, Note_on_c, 0, 92, 0
1, 125735, Note_on_c, 0, 93, 61
1, 125735, Note_on_c, 0, 84, 0
1, 125738, Note_on_c, 0, 85, 49
1, 125785, Note_on_c, 0, 93, 0
1, 125785, Note_on_c, 0, 94, 62
1, 125785, Note_on_c, 0, 85, 0
1, 125788, Note_on_c, 0, 86, 50
1, 125835, Note_on_c, 0, 94, 0
1, 125835, Note_on_c, 0, 95, 62
1, 125835, Note_on_c, 0, 86, 0
1, 125838, Note_on_c, 0, 87, 51
1, 125890, Note_on_c, 0, 95, 0
1, 125890, Note_on_c, 0, 96, 66
1, 125890, Note_on_c, 0, 87, 0
1, 125893, Note_on_c, 0, 88, 52
1, 125957, Note_on_c, 0, 96, 0
1, 125957, Note_on_c, 0, 97, 64
1, 125957, Note_on_c, 0, 88, 0
1, 125992, Control_c, 0, 64, 0
1, 126021, Note_on_c, 0, 97, 0
1, 126021, Note_on_c, 0, 100, 45
1, 126084, Note_on_c, 0, 100, 0
1, 126084, Note_on_c, 0, 97, 51
1, 126148, Note_on_c, 0, 97, 0
1, 126148, Note_on_c, 0, 88, 44
1, 126212, Note_on_c, 0, 88, 0
1, 126212, Note_on_c, 0, 81, 46
1, 126241, Control_c, 0, 64, 127
1, 126274, Note_on_c, 0, 81, 0
1, 126274, Note_on_c, 0, 85, 43
1, 126336, Note_on_c, 0, 85, 0
1, 126336, Note_on_c, 0, 81, 46
1, 126399, Note_on_c, 0, 81, 0
1, 126399, Note_on_c, 0, 85, 44
1, 126461, Note_on_c, 0, 85, 0
1, 126461, Note_on_c, 0, 81, 46
1, 126461, Note_on_c, 0, 73, 49
1, 126523, Note_on_c, 0, 81, 0
1, 126523, Note_on_c, 0, 85, 44
1, 126523, Note_on_c, 0, 73, 0
1, 126586, Note_on_c, 0, 85, 0
1, 126586, Note_on_c, 0, 81, 46
1, 126586, Note_on_c, 0, 76, 44
1, 126648, Note_on_c, 0, 81, 0
1, 126648, Note_on_c, 0, 85, 43
1, 126648, Note_on_c, 0, 76, 0
1, 126710, Note_on_c, 0, 85, 0
1, 126710, Note_on_c, 0, 81, 41
1, 126710, Note_on_c, 0, 69, 49
1, 126713, Note_on_c, 0, 57, 41
1, 126713, Note_on_c, 0, 64, 41
1, 126774, Note_on_c, 0, 81, 0
1, 126774, Note_on_c, 0, 85, 43
1, 126774, Note_on_c, 0, 64, 0
1, 126777, Note_on_c, 0, 57, 0
1, 126777, Note_on_c, 0, 69, 0
1, 126777, Control_c, 0, 64, 0
1, 126837, Note_on_c, 0, 85, 0
1, 126837, Note_on_c, 0, 88, 44
1, 126901, Note_on_c, 0, 88, 0
1, 126901, Note_on_c, 0, 93, 48
1, 126965, Note_on_c, 0, 93, 0
1, 126965, Note_on_c, 0, 97, 50
1, 127028, Note_on_c, 0, 97, 0
1, 127028, Note_on_c, 0, 100, 57
1, 127092, Note_on_c, 0, 100, 0
1, 127092, Note_on_c, 0, 97, 55
1, 127156, Note_on_c, 0, 97, 0
1, 127156, Note_on_c, 0, 88, 46
1, 127219, Note_on_c, 0, 88, 0
1, 127219, Note_on_c, 0, 81, 46
1, 127248, Control_c, 0, 64, 127
1, 127282, Note_on_c, 0, 81, 0
1, 127282, Note_on_c, 0, 85, 43
1, 127344, Note_on_c, 0, 85, 0
1, 127344, Note_on_c, 0, 81, 46
1, 127406, Note_on_c, 0, 81, 0
1, 127406, Note_on_c, 0, 85, 44
1, 127469, Note_on_c, 0, 85, 0
1, 127469, Note_on_c, 0, 81, 46
1, 127469, Note_on_c, 0, 73, 49
1, 127531, Note_on_c, 0, 81, 0
1, 127531, Note_on_c, 0, 85, 44
1, 127531, Note_on_c, 0, 73, 0
1, 127593, Note_on_c, 0, 85, 0
1, 127593, Note_on_c, 0, 81, 46
1, 127593, Note_on_c, 0, 76, 44
1, 127655, Note_on_c, 0, 81, 0
1, 127655, Note_on_c, 0, 85, 43
1, 127655, Note_on_c, 0, 76, 0
1, 127718, Note_on_c, 0, 85, 0
1, 127718, Note_on_c, 0, 81, 41
1, 127718, Note_on_c, 0, 69, 49
1, 127721, Note_on_c, 0, 57, 41
1, 127721, Note_on_c, 0, 64, 41
1, 127781, Note_on_c, 0, 81, 0
1, 127781, Note_on_c, 0, 85, 43
1, 127781, Note_on_c, 0, 64, 0
1, 127784, Note_on_c, 0, 57, 0
1, 127784, Note_on_c, 0, 69, 0
1, 127784, Control_c, 0, 64, 0
1, 127845, Note_on_c, 0, 85, 0
1, 127845, Note_on_c, 0, 88, 45
1, 127909, Note_on_c, 0, 88, 0
1, 127909, Note_on_c, 0, 93, 49
1, 127981, Note_on_c, 0, 93, 0
1, 127981, Note_on_c, 0, 97, 54
1, 127981, Note_on_c, 0, 73, 51
1, 128043, Note_on_c, 0, 97, 0
1, 128043, Note_on_c, 0, 93, 58
1, 128043, Note_on_c, 0, 73, 0
1, 128105, Note_on_c, 0, 93, 0
1, 128105, Note_on_c, 0, 92, 55
1, 128105, Note_on_c, 0, 83, 45
1, 128108, Note_on_c, 0, 77, 38
1, 128168, Note_on_c, 0, 92, 0
1, 128168, Note_on_c, 0, 85, 46
1, 128168, Note_on_c, 0, 77, 0
1, 128171, Note_on_c, 0, 83, 0
1, 128231, Note_on_c, 0, 85, 0
1, 128231, Note_on_c, 0, 97, 52
1, 128231, Note_on_c, 0, 78, 50
1, 128293, Note_on_c, 0, 97, 0
1, 128293, Note_on_c, 0, 92, 45
1, 128293, Note_on_c, 0, 78, 0
1, 128355, Note_on_c, 0, 92, 0
1, 128355, Note_on_c, 0, 90, 45
1, 128355, Note_on_c, 0, 81, 44
1, 128418, Note_on_c, 0, 90, 0
1, 128418, Note_on_c, 0, 85, 45
1, 128418, Note_on_c, 0, 81, 0
1, 128482, Note_on_c, 0, 85, 0
1, 128482, Note_on_c, 0, 97, 50
1, 128482, Note_on_c, 0, 73, 49
1, 128543, Note_on_c, 0, 97, 0
1, 128543, Note_on_c, 0, 90, 44
1, 128543, Note_on_c, 0, 73, 0
1, 128605, Note_on_c, 0, 90, 0
1, 128605, Note_on_c, 0, 89, 44
1, 128605, Note_on_c, 0, 83, 44
1, 128608, Note_on_c, 0, 80, 44
1, 128668, Note_on_c, 0, 89, 0
1, 128668, Note_on_c, 0, 85, 44
1, 128668, Note_on_c, 0, 80, 0
1, 128671, Note_on_c, 0, 83, 0
1, 128731, Note_on_c, 0, 85, 0
1, 128731, Note_on_c, 0, 97, 50
1, 128731, Note_on_c, 0, 78, 49
1, 128793, Note_on_c, 0, 97, 0
1, 128793, Note_on_c, 0, 92, 44
1, 128793, Note_on_c, 0, 78, 0
1, 128855, Note_on_c, 0, 92, 0
1, 128855, Note_on_c, 0, 90, 44
1, 128855, Note_on_c, 0, 81, 44
1, 128918, Note_on_c, 0, 90, 0
1, 128918, Note_on_c, 0, 85, 44
1, 128918, Note_on_c, 0, 81, 0
1, 128982, Note_on_c, 0, 85, 0
1, 128982, Note_on_c, 0, 97, 47
1, 128982, Note_on_c, 0, 73, 49
1, 129044, Note_on_c, 0, 97, 0
1, 129044, Note_on_c, 0, 90, 43
1, 129044, Note_on_c, 0, 73, 0
1, 129105, Note_on_c, 0, 90, 0
1, 129105, Note_on_c, 0, 89, 43
1, 129105, Note_on_c, 0, 83, 45
1, 129108, Note_on_c, 0, 80, 45
1, 129169, Note_on_c, 0, 89, 0
1, 129169, Note_on_c, 0, 85, 43
1, 129169, Note_on_c, 0, 80, 0
1, 129172, Note_on_c, 0, 83, 0
1, 129232, Note_on_c, 0, 85, 0
1, 129232, Note_on_c, 0, 97, 58
1, 129232, Note_on_c, 0, 81, 49
1, 129235, Note_on_c, 0, 78, 49
1, 129253, Control_c, 0, 64, 127
1, 129293, Note_on_c, 0, 97, 0
1, 129293, Note_on_c, 0, 92, 55
1, 129293, Note_on_c, 0, 78, 0
1, 129296, Note_on_c, 0, 81, 0
1, 129354, Note_on_c, 0, 92, 0
1, 129354, Note_on_c, 0, 90, 54
1, 129416, Note_on_c, 0, 90, 0
1, 129416, Note_on_c, 0, 85, 52
1, 129477, Note_on_c, 0, 85, 0
1, 129477, Note_on_c, 0, 81, 49
1, 129539, Note_on_c, 0, 81, 0
1, 129539, Note_on_c, 0, 78, 49
1, 129601, Note_on_c, 0, 78, 0
1, 129601, Note_on_c, 0, 73, 47
1, 129664, Note_on_c, 0, 73, 0
1, 129664, Note_on_c, 0, 69, 45
1, 129726, Note_on_c, 0, 69, 0
1, 129726, Note_on_c, 0, 66, 42
1, 129793, Note_on_c, 0, 66, 0
1, 129800, Control_c, 0, 64, 0
1, 129991, Note_on_c, 0, 102, 48
1, 129991, Note_on_c, 0, 69, 51
1, 130053, Note_on_c, 0, 102, 0
1, 130053, Note_on_c, 0, 93, 50
1, 130053, Note_on_c, 0, 69, 0
1, 130115, Note_on_c, 0, 93, 0
1, 130115, Note_on_c, 0, 88, 49
1, 130115, Note_on_c, 0, 79, 45
1, 130118, Note_on_c, 0, 76, 38
1, 130178, Note_on_c, 0, 88, 0
1, 130178, Note_on_c, 0, 97, 46
1, 130178, Note_on_c, 0, 76, 0
1, 130181, Note_on_c, 0, 79, 0
1, 130241, Note_on_c, 0, 97, 0
1, 130241, Note_on_c, 0, 100, 52
1, 130241, Note_on_c, 0, 74, 50
1, 130303, Note_on_c, 0, 100, 0
1, 130303, Note_on_c, 0, 93, 45
1, 130303, Note_on_c, 0, 74, 0
1, 130365, Note_on_c, 0, 93, 0
1, 130365, Note_on_c, 0, 86, 45
1, 130365, Note_on_c, 0, 78, 44
1, 130368, Note_on_c, 0, 81, 44
1, 130429, Note_on_c, 0, 86, 0
1, 130429, Note_on_c, 0, 98, 45
1, 130429, Note_on_c, 0, 81, 0
1, 130432, Note_on_c, 0, 78, 0
1, 130492, Note_on_c, 0, 98, 0
1, 130492, Note_on_c, 0, 93, 50
1, 130492, Note_on_c, 0, 69, 49
1, 130553, Note_on_c, 0, 93, 0
1, 130553, Note_on_c, 0, 85, 44
1, 130553, Note_on_c, 0, 69, 0
1, 130615, Note_on_c, 0, 85, 0
1, 130615, Note_on_c, 0, 93, 44
1, 130615, Note_on_c, 0, 79, 44
1, 130618, Note_on_c, 0, 76, 44
1, 130678, Note_on_c, 0, 93, 0
1, 130678, Note_on_c, 0, 97, 44
1, 130678, Note_on_c, 0, 76, 0
1, 130681, Note_on_c, 0, 79, 0
1, 130741, Note_on_c, 0, 97, 0
1, 130741, Note_on_c, 0, 100, 50
1, 130741, Note_on_c, 0, 74, 49
1, 130803, Note_on_c, 0, 100, 0
1, 130803, Note_on_c, 0, 93, 44
1, 130803, Note_on_c, 0, 74, 0
1, 130865, Note_on_c, 0, 93, 0
1, 130865, Note_on_c, 0, 86, 44
1, 130865, Note_on_c, 0, 78, 44
1, 130868, Note_on_c, 0, 81, 44
1, 130928, Note_on_c, 0, 86, 0
1, 130928, Note_on_c, 0, 98, 44
1, 130928, Note_on_c, 0, 81, 0
1, 130931, Note_on_c, 0, 78, 0
1, 130992, Note_on_c, 0, 98, 0
1, 130992, Note_on_c, 0, 93, 47
1, 130992, Note_on_c, 0, 69, 49
1, 131054, Note_on_c, 0, 93, 0
1, 131054, Note_on_c, 0, 85, 43
1, 131054, Note_on_c, 0, 69, 0
1, 131115, Note_on_c, 0, 85, 0
1, 131115, Note_on_c, 0, 93, 43
1, 131115, Note_on_c, 0, 79, 45
1, 131118, Note_on_c, 0, 76, 45
1, 131179, Note_on_c, 0, 93, 0
1, 131179, Note_on_c, 0, 97, 43
1, 131179, Note_on_c, 0, 76, 0
1, 131182, Note_on_c, 0, 79, 0
1, 131242, Note_on_c, 0, 97, 0
1, 131242, Note_on_c, 0, 100, 58
1, 131242, Note_on_c, 0, 78, 49
1, 131245, Note_on_c, 0, 74, 49
1, 131263, Control_c, 0, 64, 127
1, 131303, Note_on_c, 0, 100, 0
1, 131303, Note_on_c, 0, 98, 56
1, 131303, Note_on_c, 0, 74, 0
1, 131306, Note_on_c, 0, 78, 0
1, 131364, Note_on_c, 0, 98, 0
1, 131364, Note_on_c, 0, 93, 54
1, 131426, Note_on_c, 0, 93, 0
1, 131426, Note_on_c, 0, 86, 51
1, 131488, Note_on_c, 0, 86, 0
1, 131488, Note_on_c, 0, 81, 49
1, 131549, Note_on_c, 0, 81, 0
1, 131549, Note_on_c, 0, 78, 49
1, 131612, Note_on_c, 0, 78, 0
1, 131612, Note_on_c, 0, 74, 47
1, 131674, Note_on_c, 0, 74, 0
1, 131674, Note_on_c, 0, 69, 45
1, 131736, Note_on_c, 0, 69, 0
1, 131736, Note_on_c, 0, 62, 42
1, 131803, Note_on_c, 0, 62, 0
1, 131810, Control_c, 0, 64, 0
1, 132001, Note_on_c, 0, 98, 57
1, 132064, Note_on_c, 0, 98, 0
1, 132064, Note_on_c, 0, 102, 50
1, 132128, Note_on_c, 0, 102, 0
1, 132128, Note_on_c, 0, 98, 57
1, 132192, Note_on_c, 0, 98, 0
1, 132192, Note_on_c, 0, 90, 46
1, 132255, Note_on_c, 0, 90, 0
1, 132255, Note_on_c, 0, 83, 55
1, 132284, Control_c, 0, 64, 127
1, 132318, Note_on_c, 0, 83, 0
1, 132318, Note_on_c, 0, 86, 48
1, 132380, Note_on_c, 0, 86, 0
1, 132380, Note_on_c, 0, 83, 46
1, 132442, Note_on_c, 0, 83, 0
1, 132442, Note_on_c, 0, 86, 44
1, 132505, Note_on_c, 0, 86, 0
1, 132505, Note_on_c, 0, 83, 46
1, 132505, Note_on_c, 0, 74, 49
1, 132567, Note_on_c, 0, 83, 0
1, 132567, Note_on_c, 0, 86, 44
1, 132567, Note_on_c, 0, 74, 0
1, 132629, Note_on_c, 0, 86, 0
1, 132629, Note_on_c, 0, 83, 46
1, 132629, Note_on_c, 0, 78, 44
1, 132692, Note_on_c, 0, 83, 0
1, 132692, Note_on_c, 0, 86, 43
1, 132692, Note_on_c, 0, 78, 0
1, 132754, Note_on_c, 0, 86, 0
1, 132754, Note_on_c, 0, 83, 41
1, 132754, Note_on_c, 0, 71, 49
1, 132757, Note_on_c, 0, 59, 41
1, 132757, Note_on_c, 0, 66, 41
1, 132818, Note_on_c, 0, 83, 0
1, 132818, Note_on_c, 0, 86, 43
1, 132818, Note_on_c, 0, 66, 0
1, 132821, Note_on_c, 0, 59, 0
1, 132821, Note_on_c, 0, 71, 0
1, 132821, Control_c, 0, 64, 0
1, 132881, Note_on_c, 0, 86, 0
1, 132881, Note_on_c, 0, 90, 46
1, 132945, Note_on_c, 0, 90, 0
1, 132945, Note_on_c, 0, 95, 49
1, 133008, Note_on_c, 0, 95, 0
1, 133008, Note_on_c, 0, 98, 53
1, 133072, Note_on_c, 0, 98, 0
1, 133072, Note_on_c, 0, 102, 56
1, 133136, Note_on_c, 0, 102, 0
1, 133136, Note_on_c, 0, 98, 55
1, 133199, Note_on_c, 0, 98, 0
1, 133199, Note_on_c, 0, 90, 50
1, 133263, Note_on_c, 0, 90, 0
1, 133263, Note_on_c, 0, 83, 46
1, 133292, Control_c, 0, 64, 127
1, 133325, Note_on_c, 0, 83, 0
1, 133325, Note_on_c, 0, 86, 43
1, 133388, Note_on_c, 0, 86, 0
1, 133388, Note_on_c, 0, 83, 46
1, 133450, Note_on_c, 0, 83, 0
1, 133450, Note_on_c, 0, 86, 44
1, 133512, Note_on_c, 0, 86, 0
1, 133512, Note_on_c, 0, 83, 46
1, 133512, Note_on_c, 0, 74, 49
1, 133575, Note_on_c, 0, 83, 0
1, 133575, Note_on_c, 0, 86, 44
1, 133575, Note_on_c, 0, 74, 0
1, 133637, Note_on_c, 0, 86, 0
1, 133637, Note_on_c, 0, 83, 46
1, 133637, Note_on_c, 0, 78, 44
1, 133699, Note_on_c, 0, 83, 0
1, 133699, Note_on_c, 0, 86, 43
1, 133699, Note_on_c, 0, 78, 0
1, 133761, Note_on_c, 0, 86, 0
1, 133761, Note_on_c, 0, 83, 41
1, 133761, Note_on_c, 0, 71, 49
1, 133764, Note_on_c, 0, 59, 41
1, 133764, Note_on_c, 0, 66, 41
1, 133825, Note_on_c, 0, 83, 0
1, 133825, Note_on_c, 0, 86, 43
1, 133825, Note_on_c, 0, 66, 0
1, 133828, Note_on_c, 0, 59, 0
1, 133828, Note_on_c, 0, 71, 0
1, 133828, Control_c, 0, 64, 0
1, 133889, Note_on_c, 0, 86, 0
1, 133889, Note_on_c, 0, 90, 46
1, 133952, Note_on_c, 0, 90, 0
1, 133952, Note_on_c, 0, 95, 49
1, 134025, Note_on_c, 0, 95, 0
1, 134025, Note_on_c, 0, 98, 53
1, 134025, Note_on_c, 0, 78, 58
1, 134028, Note_on_c, 0, 86, 58
1, 134089, Note_on_c, 0, 98, 0
1, 134089, Note_on_c, 0, 90, 56
1, 134154, Note_on_c, 0, 90, 0
1, 134154, Note_on_c, 0, 95, 54
1, 134217, Note_on_c, 0, 95, 0
1, 134217, Note_on_c, 0, 98, 50
1, 134280, Note_on_c, 0, 98, 0
1, 134280, Note_on_c, 0, 97, 52
1, 134280, Note_on_c, 0, 86, 0
1, 134283, Note_on_c, 0, 78, 0
1, 134283, Note_on_c, 0, 76, 56
1, 134283, Note_on_c, 0, 85, 56
1, 134342, Note_on_c, 0, 97, 0
1, 134342, Note_on_c, 0, 88, 45
1, 134342, Note_on_c, 0, 85, 0
1, 134345, Note_on_c, 0, 76, 0
1, 134404, Note_on_c, 0, 88, 0
1, 134404, Note_on_c, 0, 95, 45
1, 134404, Note_on_c, 0, 74, 46
1, 134407, Note_on_c, 0, 83, 46
1, 134467, Note_on_c, 0, 95, 0
1, 134467, Note_on_c, 0, 100, 45
1, 134467, Note_on_c, 0, 83, 0
1, 134470, Note_on_c, 0, 74, 0
1, 134531, Note_on_c, 0, 100, 0
1, 134531, Note_on_c, 0, 93, 50
1, 134531, Note_on_c, 0, 73, 57
1, 134534, Note_on_c, 0, 81, 57
1, 134592, Note_on_c, 0, 93, 0
1, 134592, Note_on_c, 0, 88, 44
1, 134654, Note_on_c, 0, 88, 0
1, 134654, Note_on_c, 0, 97, 44
1, 134717, Note_on_c, 0, 97, 0
1, 134717, Note_on_c, 0, 100, 44
1, 134780, Note_on_c, 0, 100, 0
1, 134780, Note_on_c, 0, 95, 50
1, 134780, Note_on_c, 0, 81, 0
1, 134783, Note_on_c, 0, 73, 0
1, 134783, Note_on_c, 0, 74, 58
1, 134783, Note_on_c, 0, 83, 58
1, 134842, Note_on_c, 0, 95, 0
1, 134842, Note_on_c, 0, 88, 44
1, 134842, Note_on_c, 0, 83, 0
1, 134845, Note_on_c, 0, 74, 0
1, 134904, Note_on_c, 0, 88, 0
1, 134904, Note_on_c, 0, 93, 44
1, 134904, Note_on_c, 0, 73, 46
1, 134907, Note_on_c, 0, 81, 46
1, 134969, Note_on_c, 0, 93, 0
1, 134969, Note_on_c, 0, 100, 44
1, 134969, Note_on_c, 0, 81, 0
1, 134972, Note_on_c, 0, 73, 0
1, 135035, Note_on_c, 0, 100, 0
1, 135035, Note_on_c, 0, 92, 47
1, 135035, Note_on_c, 0, 71, 55
1, 135038, Note_on_c, 0, 80, 55
1, 135099, Note_on_c, 0, 92, 0
1, 135099, Note_on_c, 0, 88, 43
1, 135162, Note_on_c, 0, 88, 0
1, 135162, Note_on_c, 0, 95, 43
1, 135228, Note_on_c, 0, 95, 0
1, 135228, Note_on_c, 0, 100, 43
1, 135294, Note_on_c, 0, 100, 0
1, 135294, Note_on_c, 0, 93, 49
1, 135294, Note_on_c, 0, 80, 0
1, 135297, Note_on_c, 0, 71, 0
1, 135297, Note_on_c, 0, 69, 53
1, 135297, Note_on_c, 0, 81, 53
1, 135300, Note_on_c, 0, 73, 53
1, 135362, Note_on_c, 0, 93, 0
1, 135362, Note_on_c, 0, 88, 47
1, 135362, Note_on_c, 0, 73, 0
1, 135365, Note_on_c, 0, 81, 0
1, 135365, Note_on_c, 0, 69, 0
1, 135431, Note_on_c, 0, 88, 0
1, 135431, Note_on_c, 0, 97, 47
1, 135499, Note_on_c, 0, 97, 0
1, 135499, Note_on_c, 0, 100, 47
1, 135567, Note_on_c, 0, 100, 0
1, 135567, Note_on_c, 0, 92, 49
1, 135567, Note_on_c, 0, 64, 51
1, 135570, Note_on_c, 0, 68, 51
1, 135570, Note_on_c, 0, 71, 51
1, 135570, Note_on_c, 0, 76, 51
1, 135638, Note_on_c, 0, 92, 0
1, 135638, Note_on_c, 0, 88, 49
1, 135638, Note_on_c, 0, 76, 0
1, 135641, Note_on_c, 0, 64, 0
1, 135641, Note_on_c, 0, 68, 0
1, 135641, Note_on_c, 0, 71, 0
1, 135709, Note_on_c, 0, 88, 0
1, 135709, Note_on_c, 0, 95, 47
1, 135782, Note_on_c, 0, 95, 0
1, 135782, Note_on_c, 0, 100, 45
1, 135855, Note_on_c, 0, 100, 0
1, 135855, Note_on_c, 0, 93, 42
1, 135855, Note_on_c, 0, 57, 52
1, 135858, Note_on_c, 0, 61, 52
1, 135858, Note_on_c, 0, 64, 52
1, 135858, Note_on_c, 0, 69, 52
1, 135930, Note_on_c, 0, 93, 0
1, 135930, Note_on_c, 0, 69, 0
1, 135930, Note_on_c, 0, 57, 0
1, 135933, Note_on_c, 0, 61, 0
1, 135933, Note_on_c, 0, 64, 0
1, 136153, Note_on_c, 0, 69, 89
1, 136153, Note_on_c, 0, 57, 74
1, 136153, Note_on_c, 0, 45, 60
1, 136156, Note_on_c, 0, 33, 51
1, 136287, Note_on_c, 0, 57, 0
1, 136287, Note_on_c, 0, 69, 0
1, 136287, Note_on_c, 0, 33, 0
1, 136290, Note_on_c, 0, 45, 0
1, 136421, Note_on_c, 0, 68, 94
1, 136421, Note_on_c, 0, 56, 79
1, 136421, Note_on_c, 0, 44, 65
1, 136424, Note_on_c, 0, 32, 54
1, 136555, Note_on_c, 0, 56, 0
1, 136555, Note_on_c, 0, 68, 0
1, 136555, Note_on_c, 0, 32, 0
1, 136558, Note_on_c, 0, 44, 0
1, 136689, Note_on_c, 0, 65, 89
1, 136689, Note_on_c, 0, 53, 74
1, 136689, Note_on_c, 0, 41, 60
1, 136692, Note_on_c, 0, 29, 51
1, 136824, Note_on_c, 0, 53, 0
1, 136824, Note_on_c, 0, 65, 0
1, 136824, Note_on_c, 0, 29, 0
1, 136827, Note_on_c, 0, 41, 0
1, 136958, Note_on_c, 0, 64, 94
1, 136958, Note_on_c, 0, 52, 79
1, 136958, Note_on_c, 0, 40, 65
1, 136961, Note_on_c, 0, 28, 54
1, 137092, Note_on_c, 0, 52, 0
1, 137092, Note_on_c, 0, 64, 0
1, 137092, Note_on_c, 0, 28, 0
1, 137095, Note_on_c, 0, 40, 0
1, 137226, Note_on_c, 0, 62, 89
1, 137226, Note_on_c, 0, 50, 74
1, 137226, Note_on_c, 0, 38, 60
1, 137229, Note_on_c, 0, 26, 51
1, 137365, Note_on_c, 0, 50, 0
1, 137365, Note_on_c, 0, 62, 0
1, 137365, Note_on_c, 0, 26, 0
1, 137368, Note_on_c, 0, 38, 0
1, 137504, Note_on_c, 0, 61, 99
1, 137504, Note_on_c, 0, 49, 84
1, 137504, Note_on_c, 0, 37, 69
1, 137507, Note_on_c, 0, 25, 57
1, 137908, Note_on_c, 0, 49, 0
1, 137908, Note_on_c, 0, 61, 0
1, 137908, Note_on_c, 0, 62, 88
1, 137911, Note_on_c, 0, 50, 74
1, 137911, Note_on_c, 0, 25, 0
1, 137911, Note_on_c, 0, 37, 0
1, 137914, Note_on_c, 0, 38, 60
1, 137914, Note_on_c, 0, 26, 51
1, 138043, Note_on_c, 0, 50, 0
1, 138043, Note_on_c, 0, 62, 0
1, 138043, Note_on_c, 0, 64, 100
1, 138046, Note_on_c, 0, 52, 85
1, 138046, Note_on_c, 0, 26, 0
1, 138046, Note_on_c, 0, 38, 0
1, 138049, Note_on_c, 0, 40, 70
1, 138049, Note_on_c, 0, 28, 58
1, 138181, Note_on_c, 0, 52, 0
1, 138181, Note_on_c, 0, 64, 0
1, 138181, Note_on_c, 0, 28, 0
1, 138184, Note_on_c, 0, 40, 0
1, 138455, Note_on_c, 0, 69, 92
1, 138455, Note_on_c, 0, 57, 77
1, 138455, Note_on_c, 0, 45, 64
1, 138458, Note_on_c, 0, 33, 53
1, 138522, Note_on_c, 0, 57, 0
1, 138522, Note_on_c, 0, 69, 0
1, 138522, Note_on_c, 0, 33, 0
1, 138525, Note_on_c, 0, 45, 0
1, 138589, Note_on_c, 0, 64, 100
1, 138589, Note_on_c, 0, 52, 85
1, 138589, Note_on_c, 0, 40, 70
1, 138592, Note_on_c, 0, 28, 58
1, 138597, Control_c, 0, 64, 127
1, 138993, Note_on_c, 0, 52, 0
1, 138993, Note_on_c, 0, 64, 0
1, 138993, Note_on_c, 0, 69, 87
1, 138996, Note_on_c, 0, 57, 73
1, 138996, Note_on_c, 0, 28, 0
1, 138996, Note_on_c, 0, 40, 0
1, 138999, Note_on_c, 0, 45, 60
1, 138999, Note_on_c, 0, 33, 51
1, 139017, Control_c, 0, 64, 0
1, 139061, Note_on_c, 0, 57, 0
1, 139061, Note_on_c, 0, 69, 0
1, 139061, Note_on_c, 0, 33, 0
1, 139064, Note_on_c, 0, 45, 0
1, 139128, Note_on_c, 0, 64, 97
1, 139128, Note_on_c, 0, 52, 82
1, 139128, Note_on_c, 0, 40, 68
1, 139131, Note_on_c, 0, 28, 57
1, 139167, Control_c, 0, 64, 127
1, 139535, Note_on_c, 0, 52, 0
1, 139535, Note_on_c, 0, 64, 0
1, 139535, Note_on_c, 0, 69, 81
1, 139538, Note_on_c, 0, 57, 69
1, 139538, Note_on_c, 0, 28, 0
1, 139538, Note_on_c, 0, 40, 0
1, 139541, Note_on_c, 0, 45, 56
1, 139541, Note_on_c, 0, 33, 47
1, 139547, Control_c, 0, 64, 0
1, 139604, Note_on_c, 0, 57, 0
1, 139604, Note_on_c, 0, 69, 0
1, 139604, Note_on_c, 0, 33, 0
1, 139607, Note_on_c, 0, 45, 0
1, 139673, Note_on_c, 0, 64, 87
1, 139673, Note_on_c, 0, 52, 73
1, 139673, Note_on_c, 0, 40, 60
1, 139676, Note_on_c, 0, 28, 51
1, 139742, Note_on_c, 0, 52, 0
1, 139742, Note_on_c, 0, 64, 0
1, 139742, Note_on_c, 0, 28, 0
1, 139745, Note_on_c, 0, 40, 0
1, 139811, Note_on_c, 0, 61, 76
1, 139811, Note_on_c, 0, 49, 65
1, 139811, Note_on_c, 0, 37, 53
1, 139814, Note_on_c, 0, 25, 45
1, 139878, Note_on_c, 0, 49, 0
1, 139878, Note_on_c, 0, 61, 0
1, 139878, Note_on_c, 0, 25, 0
1, 139881, Note_on_c, 0, 37, 0
1, 139944, Note_on_c, 0, 45, 65
1, 139944, Note_on_c, 0, 57, 65
1, 139944, Note_on_c, 0, 21, 45
1, 139947, Note_on_c, 0, 33, 45
1, 140010, Note_on_c, 0, 57, 0
1, 140010, Note_on_c, 0, 45, 0
1, 140010, Note_on_c, 0, 33, 0
1, 140013, Note_on_c, 0, 21, 0
1, 140077, Note_on_c, 0, 61, 76
1, 140077, Note_on_c, 0, 49, 65
1, 140077, Note_on_c, 0, 37, 53
1, 140080, Note_on_c, 0, 25, 45
1, 140143, Note_on_c, 0, 49, 0
1, 140143, Note_on_c, 0, 61, 0
1, 140143, Note_on_c, 0, 25, 0
1, 140146, Note_on_c, 0, 37, 0
1, 140210, Note_on_c, 0, 64, 72
1, 140210, Note_on_c, 0, 52, 60
1, 140210, Note_on_c, 0, 40, 50
1, 140213, Note_on_c, 0, 28, 42
1, 140276, Note_on_c, 0, 52, 0
1, 140276, Note_on_c, 0, 64, 0
1, 140276, Note_on_c, 0, 28, 0
1, 140279, Note_on_c, 0, 40, 0
1, 140343, Note_on_c, 0, 61, 76
1, 140343, Note_on_c, 0, 49, 65
1, 140343, Note_on_c, 0, 37, 53
1, 140346, Note_on_c, 0, 25, 45
1, 140409, Note_on_c, 0, 49, 0
1, 140409, Note_on_c, 0, 61, 0
1, 140409, Note_on_c, 0, 25, 0
1, 140412, Note_on_c, 0, 37, 0
1, 140476, Note_on_c, 0, 64, 81
1, 140476, Note_on_c, 0, 52, 69
1, 140476, Note_on_c, 0, 40, 56
1, 140479, Note_on_c, 0, 28, 47
1, 140544, Note_on_c, 0, 52, 0
1, 140544, Note_on_c, 0, 64, 0
1, 140544, Note_on_c, 0, 28, 0
1, 140547, Note_on_c, 0, 40, 0
1, 140612, Note_on_c, 0, 69, 86
1, 140612, Note_on_c, 0, 57, 72
1, 140612, Note_on_c, 0, 45, 59
1, 140615, Note_on_c, 0, 33, 50
1, 140683, Note_on_c, 0, 57, 0
1, 140683, Note_on_c, 0, 69, 0
1, 140683, Note_on_c, 0, 33, 0
1, 140686, Note_on_c, 0, 45, 0
1, 140754, Note_on_c, 0, 64, 90
1, 140754, Note_on_c, 0, 52, 76
1, 140754, Note_on_c, 0, 40, 63
1, 140757, Note_on_c, 0, 28, 53
1, 140757, Control_c, 0, 64, 127
1, 141321, Note_on_c, 0, 52, 0
1, 141321, Note_on_c, 0, 64, 0
1, 141321, Note_on_c, 0, 69, 84
1, 141324, Note_on_c, 0, 57, 71
1, 141324, Note_on_c, 0, 28, 0
1, 141324, Note_on_c, 0, 40, 0
1, 141327, Note_on_c, 0, 45, 58
1, 141327, Note_on_c, 0, 33, 49
1, 141327, Control_c, 0, 64, 0
1, 141393, Note_on_c, 0, 57, 0
1, 141393, Note_on_c, 0, 69, 0
1, 141393, Note_on_c, 0, 33, 0
1, 141396, Note_on_c, 0, 45, 0
1, 141561, Control_c, 0, 64, 127
1, 141575, Note_on_c, 0, 41, 47
1, 141593, Note_on_c, 0, 48, 51
1, 141611, Note_on_c, 0, 81, 75
1, 141611, Note_on_c, 0, 69, 59
1, 141611, Note_on_c, 0, 72, 64
1, 141614, Note_on_c, 0, 57, 58
1, 141742, Control_c, 0, 64, 0
1, 141754, Note_on_c, 0, 72, 0
1, 141754, Note_on_c, 0, 69, 0
1, 141754, Note_on_c, 0, 81, 0
1, 141757, Note_on_c, 0, 57, 0
1, 141757, Note_on_c, 0, 48, 0
1, 141757, Note_on_c, 0, 41, 0
1, 141862, Note_on_c, 0, 40, 46
1, 141879, Note_on_c, 0, 48, 48
1, 141897, Note_on_c, 0, 79, 70
1, 141897, Note_on_c, 0, 67, 59
1, 141897, Note_on_c, 0, 72, 59
1, 141900, Note_on_c, 0, 55, 58
1, 141900, Control_c, 0, 64, 127
1, 142038, Note_on_c, 0, 79, 0
1, 142038, Note_on_c, 0, 76, 65
1, 142038, Note_on_c, 0, 55, 0
1, 142041, Note_on_c, 0, 48, 0
1, 142041, Note_on_c, 0, 40, 0
1, 142053, Control_c, 0, 64, 0
1, 142146, Note_on_c, 0, 41, 47
1, 142164, Note_on_c, 0, 48, 51
1, 142182, Note_on_c, 0, 76, 0
1, 142182, Note_on_c, 0, 72, 0
1, 142182, Note_on_c, 0, 67, 0
1, 142185, Note_on_c, 0, 77, 70
1, 142185, Note_on_c, 0, 65, 59
1, 142185, Note_on_c, 0, 69, 59
1, 142188, Note_on_c, 0, 57, 54
1, 142210, Control_c, 0, 64, 127
1, 142323, Note_on_c, 0, 77, 0
1, 142323, Note_on_c, 0, 74, 64
1, 142323, Note_on_c, 0, 57, 0
1, 142326, Note_on_c, 0, 48, 0
1, 142326, Note_on_c, 0, 41, 0
1, 142332, Control_c, 0, 64, 0
1, 142431, Note_on_c, 0, 43, 52
1, 142449, Note_on_c, 0, 52, 55
1, 142467, Note_on_c, 0, 74, 0
1, 142467, Note_on_c, 0, 69, 0
1, 142467, Note_on_c, 0, 65, 0
1, 142470, Note_on_c, 0, 76, 70
1, 142470, Note_on_c, 0, 64, 59
1, 142470, Note_on_c, 0, 67, 59
1, 142473, Note_on_c, 0, 60, 56
1, 142491, Control_c, 0, 64, 127
1, 142609, Note_on_c, 0, 76, 0
1, 142609, Note_on_c, 0, 72, 62
1, 142609, Note_on_c, 0, 60, 0
1, 142612, Note_on_c, 0, 52, 0
1, 142612, Note_on_c, 0, 43, 0
1, 142633, Control_c, 0, 64, 0
1, 142718, Note_on_c, 0, 43, 45
1, 142736, Note_on_c, 0, 53, 47
1, 142754, Note_on_c, 0, 72, 0
1, 142754, Note_on_c, 0, 67, 0
1, 142754, Note_on_c, 0, 64, 0
1, 142757, Note_on_c, 0, 74, 66
1, 142757, Note_on_c, 0, 62, 56
1, 142757, Note_on_c, 0, 65, 56
1, 142760, Note_on_c, 0, 59, 51
1, 142772, Control_c, 0, 64, 127
1, 142896, Note_on_c, 0, 74, 0
1, 142896, Note_on_c, 0, 71, 60
1, 142896, Note_on_c, 0, 59, 0
1, 142899, Note_on_c, 0, 53, 0
1, 142899, Note_on_c, 0, 43, 0
1, 142930, Control_c, 0, 64, 0
1, 143004, Note_on_c, 0, 48, 45
1, 143022, Note_on_c, 0, 55, 1
1, 143040, Note_on_c, 0, 71, 0
1, 143040, Note_on_c, 0, 65, 0
1, 143040, Note_on_c, 0, 62, 0
1, 143043, Note_on_c, 0, 64, 40
1, 143043, Note_on_c, 0, 72, 57
1, 143043, Note_on_c, 0, 60, 59
1, 143046, Control_c, 0, 64, 127
1, 143113, Note_on_c, 0, 72, 0
1, 143113, Note_on_c, 0, 74, 53
1, 143185, Note_on_c, 0, 74, 0
1, 143185, Note_on_c, 0, 64, 0
1, 143185, Note_on_c, 0, 72, 57
1, 143188, Note_on_c, 0, 60, 0
1, 143188, Note_on_c, 0, 55, 0
1, 143188, Note_on_c, 0, 48, 0
1, 143256, Note_on_c, 0, 72, 0
1, 143256, Note_on_c, 0, 71, 53
1, 143328, Note_on_c, 0, 71, 0
1, 143328, Note_on_c, 0, 72, 54
1, 143328, Note_on_c, 0, 64, 45
1, 143398, Note_on_c, 0, 72, 0
1, 143398, Note_on_c, 0, 76, 55
1, 143398, Note_on_c, 0, 64, 0
1, 143401, Note_on_c, 0, 67, 46
1, 143469, Note_on_c, 0, 76, 0
1, 143469, Note_on_c, 0, 79, 56
1, 143469, Note_on_c, 0, 67, 0
1, 143472, Note_on_c, 0, 72, 47
1, 143539, Note_on_c, 0, 79, 0
1, 143539, Note_on_c, 0, 83, 58
1, 143539, Note_on_c, 0, 72, 0
1, 143542, Note_on_c, 0, 74, 49
1, 143585, Note_on_c, 0, 83, 0
1, 143585, Note_on_c, 0, 86, 53
1, 143608, Note_on_c, 0, 86, 0
1, 143608, Note_on_c, 0, 84, 61
1, 143608, Note_on_c, 0, 74, 0
1, 143611, Note_on_c, 0, 76, 49
1, 143678, Note_on_c, 0, 84, 0
1, 143678, Note_on_c, 0, 83, 57
1, 143678, Note_on_c, 0, 76, 0
1, 143747, Note_on_c, 0, 83, 0
1, 143747, Note_on_c, 0, 84, 57
1, 143816, Note_on_c, 0, 84, 0
1, 143816, Note_on_c, 0, 86, 61
1, 143851, Note_on_c, 0, 55, 47
1, 143868, Note_on_c, 0, 65, 51
1, 143885, Note_on_c, 0, 86, 0
1, 143885, Note_on_c, 0, 77, 40
1, 143885, Note_on_c, 0, 88, 63
1, 143888, Note_on_c, 0, 71, 59
1, 143920, Control_c, 0, 64, 0
1, 143955, Note_on_c, 0, 88, 0
1, 144024, Note_on_c, 0, 77, 0
1, 144024, Note_on_c, 0, 71, 0
1, 144024, Note_on_c, 0, 65, 0
1, 144027, Note_on_c, 0, 55, 0
1, 144093, Note_on_c, 0, 86, 60
1, 144164, Note_on_c, 0, 86, 0
1, 144164, Note_on_c, 0, 76, 40
1, 144164, Note_on_c, 0, 84, 57
1, 144167, Note_on_c, 0, 60, 45
1, 144167, Note_on_c, 0, 67, 1
1, 144167, Note_on_c, 0, 72, 59
1, 144186, Control_c, 0, 64, 127
1, 144233, Note_on_c, 0, 84, 0
1, 144233, Note_on_c, 0, 86, 53
1, 144301, Note_on_c, 0, 86, 0
1, 144301, Note_on_c, 0, 76, 0
1, 144301, Note_on_c, 0, 84, 57
1, 144304, Note_on_c, 0, 72, 0
1, 144304, Note_on_c, 0, 67, 0
1, 144304, Note_on_c, 0, 60, 0
1, 144370, Note_on_c, 0, 84, 0
1, 144370, Note_on_c, 0, 83, 53
1, 144438, Note_on_c, 0, 83, 0
1, 144438, Note_on_c, 0, 84, 54
1, 144438, Note_on_c, 0, 76, 45
1, 144505, Note_on_c, 0, 84, 0
1, 144505, Note_on_c, 0, 88, 55
1, 144505, Note_on_c, 0, 76, 0
1, 144508, Note_on_c, 0, 79, 46
1, 144572, Note_on_c, 0, 88, 0
1, 144572, Note_on_c, 0, 91, 56
1, 144572, Note_on_c, 0, 79, 0
1, 144575, Note_on_c, 0, 84, 47
1, 144639, Note_on_c, 0, 91, 0
1, 144639, Note_on_c, 0, 95, 58
1, 144639, Note_on_c, 0, 84, 0
1, 144642, Note_on_c, 0, 86, 49
1, 144683, Note_on_c, 0, 95, 0
1, 144683, Note_on_c, 0, 98, 53
1, 144705, Note_on_c, 0, 98, 0
1, 144705, Note_on_c, 0, 96, 61
1, 144705, Note_on_c, 0, 86, 0
1, 144708, Note_on_c, 0, 88, 49
1, 144771, Note_on_c, 0, 96, 0
1, 144771, Note_on_c, 0, 95, 57
1, 144771, Note_on_c, 0, 88, 0
1, 144837, Note_on_c, 0, 95, 0
1, 144837, Note_on_c, 0, 96, 57
1, 144903, Note_on_c, 0, 96, 0
1, 144903, Note_on_c, 0, 98, 61
1, 144936, Note_on_c, 0, 67, 47
1, 144952, Note_on_c, 0, 77, 51
1, 144969, Note_on_c, 0, 98, 0
1, 144969, Note_on_c, 0, 89, 40
1, 144969, Note_on_c, 0, 100, 63
1, 144972, Note_on_c, 0, 83, 59
1, 145007, Control_c, 0, 64, 0
1, 145035, Note_on_c, 0, 100, 0
1, 145101, Note_on_c, 0, 89, 0
1, 145101, Note_on_c, 0, 83, 0
1, 145101, Note_on_c, 0, 77, 0
1, 145104, Note_on_c, 0, 67, 0
1, 145167, Note_on_c, 0, 98, 60
1, 145233, Note_on_c, 0, 98, 0
1, 145233, Note_on_c, 0, 96, 61
1, 145233, Note_on_c, 0, 84, 50
1, 145236, Note_on_c, 0, 72, 42
1, 145236, Note_on_c, 0, 76, 42
1, 145298, Note_on_c, 0, 96, 0
1, 145298, Note_on_c, 0, 88, 58
1, 145298, Note_on_c, 0, 76, 0
1, 145301, Note_on_c, 0, 72, 0
1, 145301, Note_on_c, 0, 84, 0
1, 145363, Note_on_c, 0, 88, 0
1, 145363, Note_on_c, 0, 96, 58
1, 145428, Note_on_c, 0, 96, 0
1, 145428, Note_on_c, 0, 100, 58
1, 145493, Note_on_c, 0, 100, 0
1, 145493, Note_on_c, 0, 103, 64
1, 145493, Note_on_c, 0, 67, 50
1, 145558, Note_on_c, 0, 103, 0
1, 145558, Note_on_c, 0, 91, 58
1, 145558, Note_on_c, 0, 67, 0
1, 145622, Note_on_c, 0, 91, 0
1, 145622, Note_on_c, 0, 95, 58
1, 145622, Note_on_c, 0, 83, 46
1, 145625, Note_on_c, 0, 77, 39
1, 145625, Note_on_c, 0, 74, 39
1, 145686, Note_on_c, 0, 95, 0
1, 145686, Note_on_c, 0, 91, 58
1, 145686, Note_on_c, 0, 74, 0
1, 145689, Note_on_c, 0, 77, 0
1, 145689, Note_on_c, 0, 83, 0
1, 145750, Note_on_c, 0, 91, 0
1, 145750, Note_on_c, 0, 96, 65
1, 145750, Note_on_c, 0, 72, 50
1, 145814, Note_on_c, 0, 96, 0
1, 145814, Note_on_c, 0, 88, 59
1, 145814, Note_on_c, 0, 72, 0
1, 145879, Note_on_c, 0, 88, 0
1, 145879, Note_on_c, 0, 96, 59
1, 145879, Note_on_c, 0, 84, 46
1, 145882, Note_on_c, 0, 79, 39
1, 145882, Note_on_c, 0, 76, 39
1, 145943, Note_on_c, 0, 96, 0
1, 145943, Note_on_c, 0, 100, 59
1, 145943, Note_on_c, 0, 76, 0
1, 145946, Note_on_c, 0, 79, 0
1, 145946, Note_on_c, 0, 84, 0
1, 146007, Note_on_c, 0, 100, 0
1, 146007, Note_on_c, 0, 103, 65
1, 146007, Note_on_c, 0, 67, 50
1, 146071, Note_on_c, 0, 103, 0
1, 146071, Note_on_c, 0, 91, 60
1, 146071, Note_on_c, 0, 67, 0
1, 146135, Note_on_c, 0, 91, 0
1, 146135, Note_on_c, 0, 95, 60
1, 146135, Note_on_c, 0, 83, 46
1, 146138, Note_on_c, 0, 77, 39
1, 146138, Note_on_c, 0, 74, 39
1, 146201, Note_on_c, 0, 95, 0
1, 146201, Note_on_c, 0, 91, 60
1, 146201, Note_on_c, 0, 74, 0
1, 146204, Note_on_c, 0, 77, 0
1, 146204, Note_on_c, 0, 83, 0
1, 146267, Note_on_c, 0, 91, 0
1, 146267, Note_on_c, 0, 96, 61
1, 146267, Note_on_c, 0, 72, 50
1, 146332, Note_on_c, 0, 96, 0
1, 146332, Note_on_c, 0, 88, 58
1, 146332, Note_on_c, 0, 72, 0
1, 146397, Note_on_c, 0, 88, 0
1, 146397, Note_on_c, 0, 96, 58
1, 146397, Note_on_c, 0, 84, 46
1, 146400, Note_on_c, 0, 79, 39
1, 146400, Note_on_c, 0, 76, 39
1, 146462, Note_on_c, 0, 96, 0
1, 146462, Note_on_c, 0, 100, 58
1, 146462, Note_on_c, 0, 76, 0
1, 146465, Note_on_c, 0, 79, 0
1, 146465, Note_on_c, 0, 84, 0
1, 146527, Note_on_c, 0, 100, 0
1, 146527, Note_on_c, 0, 103, 64
1, 146527, Note_on_c, 0, 67, 50
1, 146591, Note_on_c, 0, 103, 0
1, 146591, Note_on_c, 0, 91, 58
1, 146591, Note_on_c, 0, 67, 0
1, 146655, Note_on_c, 0, 91, 0
1, 146655, Note_on_c, 0, 95, 58
1, 146655, Note_on_c, 0, 83, 46
1, 146658, Note_on_c, 0, 77, 39
1, 146658, Note_on_c, 0, 74, 39
1, 146719, Note_on_c, 0, 95, 0
1, 146719, Note_on_c, 0, 91, 58
1, 146719, Note_on_c, 0, 74, 0
1, 146722, Note_on_c, 0, 77, 0
1, 146722, Note_on_c, 0, 83, 0
1, 146783, Note_on_c, 0, 91, 0
1, 146783, Note_on_c, 0, 96, 65
1, 146783, Note_on_c, 0, 72, 50
1, 146847, Note_on_c, 0, 96, 0
1, 146847, Note_on_c, 0, 88, 59
1, 146847, Note_on_c, 0, 72, 0
1, 146912, Note_on_c, 0, 88, 0
1, 146912, Note_on_c, 0, 96, 59
1, 146912, Note_on_c, 0, 84, 46
1, 146915, Note_on_c, 0, 79, 39
1, 146915, Note_on_c, 0, 76, 39
1, 146976, Note_on_c, 0, 96, 0
1, 146976, Note_on_c, 0, 100, 59
1, 146976, Note_on_c, 0, 76, 0
1, 146979, Note_on_c, 0, 79, 0
1, 146979, Note_on_c, 0, 84, 0
1, 147040, Note_on_c, 0, 100, 0
1, 147040, Note_on_c, 0, 103, 65
1, 147040, Note_on_c, 0, 67, 50
1, 147104, Note_on_c, 0, 103, 0
1, 147104, Note_on_c, 0, 91, 60
1, 147104, Note_on_c, 0, 67, 0
1, 147168, Note_on_c, 0, 91, 0
1, 147168, Note_on_c, 0, 95, 60
1, 147168, Note_on_c, 0, 83, 46
1, 147171, Note_on_c, 0, 77, 39
1, 147171, Note_on_c, 0, 74, 39
1, 147234, Note_on_c, 0, 95, 0
1, 147234, Note_on_c, 0, 91, 60
1, 147234, Note_on_c, 0, 74, 0
1, 147237, Note_on_c, 0, 77, 0
1, 147237, Note_on_c, 0, 83, 0
1, 147275, Note_on_c, 0, 72, 45
1, 147283, Note_on_c, 0, 76, 46
1, 147291, Note_on_c, 0, 79, 48
1, 147300, Note_on_c, 0, 91, 0
1, 147300, Note_on_c, 0, 96, 64
1, 147300, Note_on_c, 0, 84, 50
1, 147365, Note_on_c, 0, 96, 0
1, 147365, Note_on_c, 0, 84, 0
1, 147365, Note_on_c, 0, 72, 0
1, 147368, Note_on_c, 0, 76, 0
1, 147368, Note_on_c, 0, 79, 0
1, 147562, Note_on_c, 0, 72, 46
1, 147562, Note_on_c, 0, 64, 27
1, 147571, Control_c, 0, 64, 127
1, 147627, Note_on_c, 0, 72, 0
1, 147627, Note_on_c, 0, 73, 46
1, 147627, Note_on_c, 0, 64, 0
1, 147630, Note_on_c, 0, 65, 28
1, 147693, Note_on_c, 0, 73, 0
1, 147693, Note_on_c, 0, 74, 47
1, 147693, Note_on_c, 0, 65, 0
1, 147696, Note_on_c, 0, 66, 29
1, 147757, Note_on_c, 0, 74, 0
1, 147757, Note_on_c, 0, 75, 48
1, 147757, Note_on_c, 0, 66, 0
1, 147760, Note_on_c, 0, 67, 30
1, 147822, Note_on_c, 0, 75, 0
1, 147822, Note_on_c, 0, 76, 49
1, 147822, Note_on_c, 0, 67, 0
1, 147825, Note_on_c, 0, 68, 31
1, 147887, Note_on_c, 0, 76, 0
1, 147887, Note_on_c, 0, 77, 49
1, 147887, Note_on_c, 0, 68, 0
1, 147890, Note_on_c, 0, 69, 32
1, 147951, Note_on_c, 0, 77, 0
1, 147951, Note_on_c, 0, 78, 50
1, 147951, Note_on_c, 0, 69, 0
1, 147954, Note_on_c, 0, 70, 33
1, 148014, Note_on_c, 0, 78, 0
1, 148014, Note_on_c, 0, 79, 51
1, 148014, Note_on_c, 0, 70, 0
1, 148017, Note_on_c, 0, 71, 34
1, 148078, Note_on_c, 0, 79, 0
1, 148078, Note_on_c, 0, 80, 52
1, 148078, Note_on_c, 0, 71, 0
1, 148081, Note_on_c, 0, 72, 35
1, 148141, Note_on_c, 0, 80, 0
1, 148141, Note_on_c, 0, 81, 52
1, 148141, Note_on_c, 0, 72, 0
1, 148144, Note_on_c, 0, 73, 36
1, 148204, Note_on_c, 0, 81, 0
1, 148204, Note_on_c, 0, 82, 53
1, 148204, Note_on_c, 0, 73, 0
1, 148207, Note_on_c, 0, 74, 37
1, 148267, Note_on_c, 0, 82, 0
1, 148267, Note_on_c, 0, 83, 54
1, 148267, Note_on_c, 0, 74, 0
1, 148270, Note_on_c, 0, 75, 38
1, 148330, Note_on_c, 0, 83, 0
1, 148330, Note_on_c, 0, 84, 55
1, 148330, Note_on_c, 0, 75, 0
1, 148333, Note_on_c, 0, 76, 40
1, 148392, Note_on_c, 0, 84, 0
1, 148392, Note_on_c, 0, 85, 55
1, 148392, Note_on_c, 0, 76, 0
1, 148395, Note_on_c, 0, 77, 41
1, 148454, Note_on_c, 0, 85, 0
1, 148454, Note_on_c, 0, 86, 56
1, 148454, Note_on_c, 0, 77, 0
1, 148457, Note_on_c, 0, 78, 42
1, 148517, Note_on_c, 0, 86, 0
1, 148517, Note_on_c, 0, 87, 57
1, 148517, Note_on_c, 0, 78, 0
1, 148520, Note_on_c, 0, 79, 43
1, 148579, Note_on_c, 0, 87, 0
1, 148579, Note_on_c, 0, 88, 57
1, 148579, Note_on_c, 0, 79, 0
1, 148582, Note_on_c, 0, 80, 44
1, 148641, Note_on_c, 0, 88, 0
1, 148641, Note_on_c, 0, 89, 58
1, 148641, Note_on_c, 0, 80, 0
1, 148644, Note_on_c, 0, 81, 45
1, 148704, Note_on_c, 0, 89, 0
1, 148704, Note_on_c, 0, 90, 59
1, 148704, Note_on_c, 0, 81, 0
1, 148707, Note_on_c, 0, 82, 46
1, 148766, Note_on_c, 0, 90, 0
1, 148766, Note_on_c, 0, 91, 60
1, 148766, Note_on_c, 0, 82, 0
1, 148769, Note_on_c, 0, 83, 47
1, 148828, Note_on_c, 0, 91, 0
1, 148828, Note_on_c, 0, 92, 60
1, 148828, Note_on_c, 0, 83, 0
1, 148831, Note_on_c, 0, 84, 48
1, 148878, Note_on_c, 0, 92, 0
1, 148878, Note_on_c, 0, 93, 61
1, 148878, Note_on_c, 0, 84, 0
1, 148881, Note_on_c, 0, 85, 49
1, 148929, Note_on_c, 0, 93, 0
1, 148929, Note_on_c, 0, 94, 62
1, 148929, Note_on_c, 0, 85, 0
1, 148932, Note_on_c, 0, 86, 50
1, 148979, Note_on_c, 0, 94, 0
1, 148979, Note_on_c, 0, 95, 62
1, 148979, Note_on_c, 0, 86, 0
1, 148982, Note_on_c, 0, 87, 51
1, 149034, Note_on_c, 0, 95, 0
1, 149034, Note_on_c, 0, 96, 66
1, 149034, Note_on_c, 0, 87, 0
1, 149037, Note_on_c, 0, 88, 52
1, 149101, Note_on_c, 0, 96, 0
1, 149101, Note_on_c, 0, 97, 64
1, 149101, Note_on_c, 0, 88, 0
1, 149135, Control_c, 0, 64, 0
1, 149164, Note_on_c, 0, 97, 0
1, 149164, Note_on_c, 0, 100, 45
1, 149228, Note_on_c, 0, 100, 0
1, 149228, Note_on_c, 0, 97, 51
1, 149292, Note_on_c, 0, 97, 0
1, 149292, Note_on_c, 0, 88, 44
1, 149355, Note_on_c, 0, 88, 0
1, 149355, Note_on_c, 0, 81, 46
1, 149384, Control_c, 0, 64, 127
1, 149418, Note_on_c, 0, 81, 0
1, 149418, Note_on_c, 0, 85, 43
1, 149480, Note_on_c, 0, 85, 0
1, 149480, Note_on_c, 0, 81, 46
1, 149542, Note_on_c, 0, 81, 0
1, 149542, Note_on_c, 0, 85, 44
1, 149605, Note_on_c, 0, 85, 0
1, 149605, Note_on_c, 0, 81, 46
1, 149605, Note_on_c, 0, 73, 49
1, 149667, Note_on_c, 0, 81, 0
1, 149667, Note_on_c, 0, 85, 44
1, 149667, Note_on_c, 0, 73, 0
1, 149729, Note_on_c, 0, 85, 0
1, 149729, Note_on_c, 0, 81, 46
1, 149729, Note_on_c, 0, 76, 44
1, 149792, Note_on_c, 0, 81, 0
1, 149792, Note_on_c, 0, 85, 43
1, 149792, Note_on_c, 0, 76, 0
1, 149854, Note_on_c, 0, 85, 0
1, 149854, Note_on_c, 0, 81, 41
1, 149854, Note_on_c, 0, 69, 49
1, 149857, Note_on_c, 0, 57, 41
1, 149857, Note_on_c, 0, 64, 41
1, 149918, Note_on_c, 0, 81, 0
1, 149918, Note_on_c, 0, 85, 43
1, 149918, Note_on_c, 0, 64, 0
1, 149921, Note_on_c, 0, 57, 0
1, 149921, Note_on_c, 0, 69, 0
1, 149921, Control_c, 0, 64, 0
1, 149981, Note_on_c, 0, 85, 0
1, 149981, Note_on_c, 0, 88, 44
1, 150045, Note_on_c, 0, 88, 0
1, 150045, Note_on_c, 0, 93, 48
1, 150108, Note_on_c, 0, 93, 0
1, 150108, Note_on_c, 0, 97, 50
1, 150172, Note_on_c, 0, 97, 0
1, 150172, Note_on_c, 0, 100, 57
1, 150236, Note_on_c, 0, 100, 0
1, 150236, Note_on_c, 0, 97, 55
1, 150299, Note_on_c, 0, 97, 0
1, 150299, Note_on_c, 0, 88, 46
1, 150363, Note_on_c, 0, 88, 0
1, 150363, Note_on_c, 0, 81, 46
1, 150392, Control_c, 0, 64, 127
1, 150425, Note_on_c, 0, 81, 0
1, 150425, Note_on_c, 0, 85, 43
1, 150488, Note_on_c, 0, 85, 0
1, 150488, Note_on_c, 0, 81, 46
1, 150550, Note_on_c, 0, 81, 0
1, 150550, Note_on_c, 0, 85, 44
1, 150612, Note_on_c, 0, 85, 0
1, 150612, Note_on_c, 0, 81, 46
1, 150612, Note_on_c, 0, 73, 49
1, 150675, Note_on_c, 0, 81, 0
1, 150675, Note_on_c, 0, 85, 44
1, 150675, Note_on_c, 0, 73, 0
1, 150737, Note_on_c, 0, 85, 0
1, 150737, Note_on_c, 0, 81, 46
1, 150737, Note_on_c, 0, 76, 44
1, 150799, Note_on_c, 0, 81, 0
1, 150799, Note_on_c, 0, 85, 43
1, 150799, Note_on_c, 0, 76, 0
1, 150861, Note_on_c, 0, 85, 0
1, 150861, Note_on_c, 0, 81, 41
1, 150861, Note_on_c, 0, 69, 49
1, 150864, Note_on_c, 0, 57, 41
1, 150864, Note_on_c, 0, 64, 41
1, 150925, Note_on_c, 0, 81, 0
1, 150925, Note_on_c, 0, 85, 43
1, 150925, Note_on_c, 0, 64, 0
1, 150928, Note_on_c, 0, 57, 0
1, 150928, Note_on_c, 0, 69, 0
1, 150928, Control_c, 0, 64, 0
1, 150989, Note_on_c, 0, 85, 0
1, 150989, Note_on_c, 0, 88, 45
1, 151052, Note_on_c, 0, 88, 0
1, 151052, Note_on_c, 0, 93, 49
1, 151125, Note_on_c, 0, 93, 0
1, 151125, Note_on_c, 0, 93, 50
1, 151125, Note_on_c, 0, 97, 54
1, 151128, Note_on_c, 0, 73, 51
1, 151186, Note_on_c, 0, 97, 0
1, 151186, Note_on_c, 0, 93, 0
1, 151186, Note_on_c, 0, 98, 58
1, 151189, Note_on_c, 0, 73, 0
1, 151248, Note_on_c, 0, 98, 0
1, 151248, Note_on_c, 0, 92, 44
1, 151248, Note_on_c, 0, 97, 55
1, 151251, Note_on_c, 0, 83, 45
1, 151251, Note_on_c, 0, 77, 38
1, 151312, Note_on_c, 0, 97, 0
1, 151312, Note_on_c, 0, 92, 0
1, 151312, Note_on_c, 0, 98, 46
1, 151315, Note_on_c, 0, 77, 0
1, 151315, Note_on_c, 0, 83, 0
1, 151375, Note_on_c, 0, 98, 0
1, 151375, Note_on_c, 0, 92, 50
1, 151375, Note_on_c, 0, 97, 52
1, 151378, Note_on_c, 0, 78, 50
1, 151437, Note_on_c, 0, 97, 0
1, 151437, Note_on_c, 0, 92, 0
1, 151437, Note_on_c, 0, 98, 45
1, 151440, Note_on_c, 0, 78, 0
1, 151499, Note_on_c, 0, 98, 0
1, 151499, Note_on_c, 0, 90, 44
1, 151499, Note_on_c, 0, 97, 45
1, 151502, Note_on_c, 0, 81, 44
1, 151562, Note_on_c, 0, 97, 0
1, 151562, Note_on_c, 0, 90, 0
1, 151562, Note_on_c, 0, 98, 45
1, 151565, Note_on_c, 0, 81, 0
1, 151625, Note_on_c, 0, 98, 0
1, 151625, Note_on_c, 0, 90, 49
1, 151625, Note_on_c, 0, 97, 50
1, 151628, Note_on_c, 0, 73, 49
1, 151687, Note_on_c, 0, 97, 0
1, 151687, Note_on_c, 0, 90, 0
1, 151687, Note_on_c, 0, 98, 44
1, 151690, Note_on_c, 0, 73, 0
1, 151749, Note_on_c, 0, 98, 0
1, 151749, Note_on_c, 0, 89, 44
1, 151749, Note_on_c, 0, 97, 44
1, 151752, Note_on_c, 0, 83, 44
1, 151752, Note_on_c, 0, 80, 44
1, 151812, Note_on_c, 0, 97, 0
1, 151812, Note_on_c, 0, 89, 0
1, 151812, Note_on_c, 0, 98, 44
1, 151815, Note_on_c, 0, 80, 0
1, 151815, Note_on_c, 0, 83, 0
1, 151875, Note_on_c, 0, 98, 0
1, 151875, Note_on_c, 0, 92, 49
1, 151875, Note_on_c, 0, 97, 50
1, 151878, Note_on_c, 0, 78, 49
1, 151937, Note_on_c, 0, 97, 0
1, 151937, Note_on_c, 0, 92, 0
1, 151937, Note_on_c, 0, 98, 44
1, 151940, Note_on_c, 0, 78, 0
1, 151999, Note_on_c, 0, 98, 0
1, 151999, Note_on_c, 0, 90, 44
1, 151999, Note_on_c, 0, 97, 44
1, 152002, Note_on_c, 0, 81, 44
1, 152062, Note_on_c, 0, 97, 0
1, 152062, Note_on_c, 0, 90, 0
1, 152062, Note_on_c, 0, 98, 44
1, 152065, Note_on_c, 0, 81, 0
1, 152125, Note_on_c, 0, 98, 0
1, 152125, Note_on_c, 0, 90, 49
1, 152125, Note_on_c, 0, 97, 47
1, 152128, Note_on_c, 0, 73, 49
1, 152187, Note_on_c, 0, 97, 0
1, 152187, Note_on_c, 0, 90, 0
1, 152187, Note_on_c, 0, 98, 43
1, 152190, Note_on_c, 0, 73, 0
1, 152249, Note_on_c, 0, 98, 0
1, 152249, Note_on_c, 0, 89, 45
1, 152249, Note_on_c, 0, 97, 43
1, 152252, Note_on_c, 0, 83, 45
1, 152252, Note_on_c, 0, 80, 45
1, 152312, Note_on_c, 0, 97, 0
1, 152312, Note_on_c, 0, 89, 0
1, 152312, Note_on_c, 0, 98, 43
1, 152315, Note_on_c, 0, 80, 0
1, 152315, Note_on_c, 0, 83, 0
1, 152376, Note_on_c, 0, 98, 0
1, 152376, Note_on_c, 0, 97, 58
1, 152376, Note_on_c, 0, 81, 49
1, 152379, Note_on_c, 0, 78, 49
1, 152397, Control_c, 0, 64, 127
1, 152437, Note_on_c, 0, 97, 0
1, 152437, Note_on_c, 0, 92, 55
1, 152437, Note_on_c, 0, 78, 0
1, 152440, Note_on_c, 0, 81, 0
1, 152498, Note_on_c, 0, 92, 0
1, 152498, Note_on_c, 0, 90, 54
1, 152559, Note_on_c, 0, 90, 0
1, 152559, Note_on_c, 0, 85, 52
1, 152621, Note_on_c, 0, 85, 0
1, 152621, Note_on_c, 0, 81, 49
1, 152683, Note_on_c, 0, 81, 0
1, 152683, Note_on_c, 0, 78, 49
1, 152745, Note_on_c, 0, 78, 0
1, 152745, Note_on_c, 0, 73, 47
1, 152807, Note_on_c, 0, 73, 0
1, 152807, Note_on_c, 0, 69, 45
1, 152870, Note_on_c, 0, 69, 0
1, 152870, Note_on_c, 0, 66, 42
1, 152936, Note_on_c, 0, 66, 0
1, 152944, Control_c, 0, 64, 0
1, 153135, Note_on_c, 0, 102, 48
1, 153135, Note_on_c, 0, 69, 51
1, 153197, Note_on_c, 0, 102, 0
1, 153197, Note_on_c, 0, 93, 50
1, 153197, Note_on_c, 0, 69, 0
1, 153258, Note_on_c, 0, 93, 0
1, 153258, Note_on_c, 0, 100, 49
1, 153258, Note_on_c, 0, 79, 45
1, 153261, Note_on_c, 0, 73, 38
1, 153322, Note_on_c, 0, 100, 0
1, 153322, Note_on_c, 0, 93, 46
1, 153322, Note_on_c, 0, 73, 0
1, 153325, Note_on_c, 0, 79, 0
1, 153385, Note_on_c, 0, 93, 0
1, 153385, Note_on_c, 0, 100, 52
1, 153385, Note_on_c, 0, 74, 50
1, 153447, Note_on_c, 0, 100, 0
1, 153447, Note_on_c, 0, 93, 45
1, 153447, Note_on_c, 0, 74, 0
1, 153509, Note_on_c, 0, 93, 0
1, 153509, Note_on_c, 0, 98, 45
1, 153509, Note_on_c, 0, 78, 44
1, 153512, Note_on_c, 0, 81, 44
1, 153572, Note_on_c, 0, 98, 0
1, 153572, Note_on_c, 0, 93, 45
1, 153572, Note_on_c, 0, 81, 0
1, 153575, Note_on_c, 0, 78, 0
1, 153635, Note_on_c, 0, 93, 0
1, 153635, Note_on_c, 0, 98, 50
1, 153635, Note_on_c, 0, 69, 49
1, 153697, Note_on_c, 0, 98, 0
1, 153697, Note_on_c, 0, 93, 44
1, 153697, Note_on_c, 0, 69, 0
1, 153759, Note_on_c, 0, 93, 0
1, 153759, Note_on_c, 0, 97, 44
1, 153759, Note_on_c, 0, 79, 44
1, 153762, Note_on_c, 0, 76, 44
1, 153822, Note_on_c, 0, 97, 0
1, 153822, Note_on_c, 0, 93, 44
1, 153822, Note_on_c, 0, 76, 0
1, 153825, Note_on_c, 0, 79, 0
1, 153885, Note_on_c, 0, 93, 0
1, 153885, Note_on_c, 0, 100, 50
1, 153885, Note_on_c, 0, 74, 49
1, 153947, Note_on_c, 0, 100, 0
1, 153947, Note_on_c, 0, 93, 44
1, 153947, Note_on_c, 0, 74, 0
1, 154009, Note_on_c, 0, 93, 0
1, 154009, Note_on_c, 0, 98, 44
1, 154009, Note_on_c, 0, 78, 44
1, 154012, Note_on_c, 0, 81, 44
1, 154072, Note_on_c, 0, 98, 0
1, 154072, Note_on_c, 0, 93, 44
1, 154072, Note_on_c, 0, 81, 0
1, 154075, Note_on_c, 0, 78, 0
1, 154136, Note_on_c, 0, 93, 0
1, 154136, Note_on_c, 0, 98, 47
1, 154136, Note_on_c, 0, 69, 49
1, 154197, Note_on_c, 0, 98, 0
1, 154197, Note_on_c, 0, 93, 43
1, 154197, Note_on_c, 0, 69, 0
1, 154259, Note_on_c, 0, 93, 0
1, 154259, Note_on_c, 0, 97, 43
1, 154259, Note_on_c, 0, 79, 45
1, 154262, Note_on_c, 0, 76, 45
1, 154322, Note_on_c, 0, 97, 0
1, 154322, Note_on_c, 0, 93, 43
1, 154322, Note_on_c, 0, 76, 0
1, 154325, Note_on_c, 0, 79, 0
1, 154386, Note_on_c, 0, 93, 0
1, 154386, Note_on_c, 0, 100, 58
1, 154386, Note_on_c, 0, 78, 49
1, 154389, Note_on_c, 0, 74, 49
1, 154407, Control_c, 0, 64, 127
1, 154447, Note_on_c, 0, 100, 0
1, 154447, Note_on_c, 0, 98, 56
1, 154447, Note_on_c, 0, 74, 0
1, 154450, Note_on_c, 0, 78, 0
1, 154508, Note_on_c, 0, 98, 0
1, 154508, Note_on_c, 0, 93, 54
1, 154570, Note_on_c, 0, 93, 0
1, 154570, Note_on_c, 0, 86, 51
1, 154631, Note_on_c, 0, 86, 0
1, 154631, Note_on_c, 0, 81, 49
1, 154693, Note_on_c, 0, 81, 0
1, 154693, Note_on_c, 0, 78, 49
1, 154755, Note_on_c, 0, 78, 0
1, 154755, Note_on_c, 0, 74, 47
1, 154818, Note_on_c, 0, 74, 0
1, 154818, Note_on_c, 0, 69, 45
1, 154880, Note_on_c, 0, 69, 0
1, 154880, Note_on_c, 0, 62, 42
1, 154946, Note_on_c, 0, 62, 0
1, 154954, Control_c, 0, 64, 0
1, 155145, Note_on_c, 0, 98, 57
1, 155179, Control_c, 0, 64, 0
1, 155208, Note_on_c, 0, 98, 0
1, 155208, Note_on_c, 0, 102, 50
1, 155272, Note_on_c, 0, 102, 0
1, 155272, Note_on_c, 0, 98, 57
1, 155335, Note_on_c, 0, 98, 0
1, 155335, Note_on_c, 0, 90, 46
1, 155399, Note_on_c, 0, 90, 0
1, 155399, Note_on_c, 0, 83, 55
1, 155428, Control_c, 0, 64, 127
1, 155461, Note_on_c, 0, 83, 0
1, 155461, Note_on_c, 0, 86, 48
1, 155524, Note_on_c, 0, 86, 0
1, 155524, Note_on_c, 0, 83, 46
1, 155586, Note_on_c, 0, 83, 0
1, 155586, Note_on_c, 0, 86, 44
1, 155648, Note_on_c, 0, 86, 0
1, 155648, Note_on_c, 0, 83, 46
1, 155648, Note_on_c, 0, 74, 49
1, 155711, Note_on_c, 0, 83, 0
1, 155711, Note_on_c, 0, 86, 44
1, 155711, Note_on_c, 0, 74, 0
1, 155773, Note_on_c, 0, 86, 0
1, 155773, Note_on_c, 0, 83, 46
1, 155773, Note_on_c, 0, 78, 44
1, 155835, Note_on_c, 0, 83, 0
1, 155835, Note_on_c, 0, 86, 43
1, 155835, Note_on_c, 0, 78, 0
1, 155898, Note_on_c, 0, 86, 0
1, 155898, Note_on_c, 0, 83, 41
1, 155898, Note_on_c, 0, 71, 49
1, 155901, Note_on_c, 0, 62, 41
1, 155901, Note_on_c, 0, 66, 41
1, 155961, Note_on_c, 0, 83, 0
1, 155961, Note_on_c, 0, 86, 43
1, 155961, Note_on_c, 0, 66, 0
1, 155964, Note_on_c, 0, 62, 0
1, 155964, Note_on_c, 0, 71, 0
1, 155964, Control_c, 0, 64, 0
1, 156025, Note_on_c, 0, 86, 0
1, 156025, Note_on_c, 0, 90, 46
1, 156088, Note_on_c, 0, 90, 0
1, 156088, Note_on_c, 0, 95, 49
1, 156152, Note_on_c, 0, 95, 0
1, 156152, Note_on_c, 0, 98, 53
1, 156216, Note_on_c, 0, 98, 0
1, 156216, Note_on_c, 0, 102, 56
1, 156279, Note_on_c, 0, 102, 0
1, 156279, Note_on_c, 0, 98, 55
1, 156343, Note_on_c, 0, 98, 0
1, 156343, Note_on_c, 0, 90, 50
1, 156407, Note_on_c, 0, 90, 0
1, 156407, Note_on_c, 0, 83, 46
1, 156436, Control_c, 0, 64, 127
1, 156469, Note_on_c, 0, 83, 0
1, 156469, Note_on_c, 0, 86, 43
1, 156531, Note_on_c, 0, 86, 0
1, 156531, Note_on_c, 0, 83, 46
1, 156594, Note_on_c, 0, 83, 0
1, 156594, Note_on_c, 0, 86, 44
1, 156656, Note_on_c, 0, 86, 0
1, 156656, Note_on_c, 0, 83, 46
1, 156656, Note_on_c, 0, 74, 49
1, 156718, Note_on_c, 0, 83, 0
1, 156718, Note_on_c, 0, 86, 44
1, 156718, Note_on_c, 0, 74, 0
1, 156781, Note_on_c, 0, 86, 0
1, 156781, Note_on_c, 0, 83, 46
1, 156781, Note_on_c, 0, 78, 44
1, 156843, Note_on_c, 0, 83, 0
1, 156843, Note_on_c, 0, 86, 43
1, 156843, Note_on_c, 0, 78, 0
1, 156905, Note_on_c, 0, 86, 0
1, 156905, Note_on_c, 0, 83, 41
1, 156905, Note_on_c, 0, 71, 49
1, 156908, Note_on_c, 0, 62, 41
1, 156908, Note_on_c, 0, 66, 41
1, 156969, Note_on_c, 0, 83, 0
1, 156969, Note_on_c, 0, 66, 0
1, 156969, Note_on_c, 0, 62, 0
1, 156972, Note_on_c, 0, 71, 0
1, 156972, Control_c, 0, 64, 0
1, 157160, Note_on_c, 0, 98, 53
1, 157223, Note_on_c, 0, 98, 0
1, 157223, Note_on_c, 0, 101, 56
1, 157287, Note_on_c, 0, 101, 0
1, 157287, Note_on_c, 0, 98, 55
1, 157351, Note_on_c, 0, 98, 0
1, 157351, Note_on_c, 0, 89, 50
1, 157414, Note_on_c, 0, 89, 0
1, 157414, Note_on_c, 0, 82, 46
1, 157443, Control_c, 0, 64, 127
1, 157477, Note_on_c, 0, 82, 0
1, 157477, Note_on_c, 0, 86, 43
1, 157539, Note_on_c, 0, 86, 0
1, 157539, Note_on_c, 0, 82, 46
1, 157601, Note_on_c, 0, 82, 0
1, 157601, Note_on_c, 0, 86, 44
1, 157664, Note_on_c, 0, 86, 0
1, 157664, Note_on_c, 0, 82, 46
1, 157664, Note_on_c, 0, 74, 49
1, 157727, Note_on_c, 0, 82, 0
1, 157727, Note_on_c, 0, 86, 44
1, 157727, Note_on_c, 0, 74, 0
1, 157791, Note_on_c, 0, 86, 0
1, 157791, Note_on_c, 0, 82, 46
1, 157791, Note_on_c, 0, 77, 44
1, 157855, Note_on_c, 0, 82, 0
1, 157855, Note_on_c, 0, 86, 43
1, 157855, Note_on_c, 0, 77, 0
1, 157919, Note_on_c, 0, 86, 0
1, 157919, Note_on_c, 0, 82, 44
1, 157919, Note_on_c, 0, 70, 49
1, 157922, Note_on_c, 0, 62, 41
1, 157922, Note_on_c, 0, 65, 41
1, 157984, Note_on_c, 0, 82, 0
1, 157984, Note_on_c, 0, 86, 47
1, 157984, Note_on_c, 0, 65, 0
1, 157987, Note_on_c, 0, 62, 0
1, 157987, Note_on_c, 0, 70, 0
1, 157987, Control_c, 0, 64, 0
1, 158050, Note_on_c, 0, 86, 0
1, 158050, Note_on_c, 0, 89, 50
1, 158115, Note_on_c, 0, 89, 0
1, 158115, Note_on_c, 0, 94, 52
1, 158180, Note_on_c, 0, 94, 0
1, 158180, Note_on_c, 0, 98, 53
1, 158244, Note_on_c, 0, 98, 0
1, 158244, Note_on_c, 0, 101, 56
1, 158308, Note_on_c, 0, 101, 0
1, 158308, Note_on_c, 0, 98, 55
1, 158372, Note_on_c, 0, 98, 0
1, 158372, Note_on_c, 0, 89, 50
1, 158436, Note_on_c, 0, 89, 0
1, 158436, Note_on_c, 0, 82, 46
1, 158466, Control_c, 0, 64, 127
1, 158501, Note_on_c, 0, 82, 0
1, 158501, Note_on_c, 0, 86, 43
1, 158567, Note_on_c, 0, 86, 0
1, 158567, Note_on_c, 0, 82, 46
1, 158632, Note_on_c, 0, 82, 0
1, 158632, Note_on_c, 0, 86, 44
1, 158697, Note_on_c, 0, 86, 0
1, 158697, Note_on_c, 0, 82, 46
1, 158697, Note_on_c, 0, 74, 49
1, 158767, Note_on_c, 0, 82, 0
1, 158767, Note_on_c, 0, 86, 44
1, 158767, Note_on_c, 0, 74, 0
1, 158836, Note_on_c, 0, 86, 0
1, 158836, Note_on_c, 0, 82, 46
1, 158836, Note_on_c, 0, 77, 44
1, 158910, Note_on_c, 0, 82, 0
1, 158910, Note_on_c, 0, 86, 43
1, 158910, Note_on_c, 0, 77, 0
1, 158983, Note_on_c, 0, 86, 0
1, 158983, Note_on_c, 0, 82, 41
1, 158983, Note_on_c, 0, 70, 49
1, 158986, Note_on_c, 0, 62, 41
1, 158986, Note_on_c, 0, 65, 41
1, 159016, Control_c, 0, 64, 0
1, 159052, Note_on_c, 0, 82, 0
1, 159052, Note_on_c, 0, 65, 0
1, 159052, Note_on_c, 0, 62, 0
1, 159055, Note_on_c, 0, 70, 0
1, 159259, Note_on_c, 0, 82, 41
1, 159308, Note_on_c, 0, 82, 0
1, 159325, Note_on_c, 0, 82, 39
1, 159375, Note_on_c, 0, 82, 0
1, 159391, Note_on_c, 0, 94, 46
1, 159441, Note_on_c, 0, 94, 0
1, 159458, Note_on_c, 0, 82, 39
1, 159508, Note_on_c, 0, 82, 0
1, 159524, Note_on_c, 0, 81, 41
1, 159573, Note_on_c, 0, 81, 0
1, 159589, Note_on_c, 0, 81, 38
1, 159637, Note_on_c, 0, 81, 0
1, 159653, Note_on_c, 0, 93, 46
1, 159701, Note_on_c, 0, 93, 0
1, 159717, Note_on_c, 0, 81, 37
1, 159765, Note_on_c, 0, 81, 0
1, 159781, Note_on_c, 0, 78, 41
1, 159829, Note_on_c, 0, 78, 0
1, 159845, Note_on_c, 0, 78, 38
1, 159892, Note_on_c, 0, 78, 0
1, 159908, Note_on_c, 0, 90, 47
1, 159956, Note_on_c, 0, 90, 0
1, 159972, Note_on_c, 0, 78, 38
1, 160020, Note_on_c, 0, 78, 0
1, 160036, Note_on_c, 0, 77, 41
1, 160083, Note_on_c, 0, 77, 0
1, 160099, Note_on_c, 0, 77, 36
1, 160147, Note_on_c, 0, 77, 0
1, 160163, Note_on_c, 0, 89, 46
1, 160211, Note_on_c, 0, 89, 0
1, 160227, Note_on_c, 0, 77, 41
1, 160274, Note_on_c, 0, 77, 0
1, 160290, Note_on_c, 0, 75, 41
1, 160338, Note_on_c, 0, 75, 0
1, 160354, Note_on_c, 0, 75, 38
1, 160402, Note_on_c, 0, 75, 0
1, 160417, Note_on_c, 0, 87, 44
1, 160466, Note_on_c, 0, 87, 0
1, 160483, Note_on_c, 0, 75, 41
1, 160531, Note_on_c, 0, 75, 0
1, 160548, Note_on_c, 0, 74, 41
1, 160595, Note_on_c, 0, 74, 0
1, 160611, Note_on_c, 0, 74, 36
1, 160658, Note_on_c, 0, 74, 0
1, 160674, Note_on_c, 0, 86, 47
1, 160721, Note_on_c, 0, 86, 0
1, 160737, Note_on_c, 0, 74, 39
1, 160784, Note_on_c, 0, 74, 0
1, 160800, Note_on_c, 0, 86, 48
1, 160884, Note_on_c, 0, 86, 0
1, 160884, Note_on_c, 0, 75, 42
1, 160968, Note_on_c, 0, 75, 0
1, 160968, Note_on_c, 0, 87, 46
1, 161052, Note_on_c, 0, 87, 0
1, 161052, Note_on_c, 0, 77, 46
1, 161115, Note_on_c, 0, 77, 0
1, 161115, Note_on_c, 0, 77, 41
1, 161179, Note_on_c, 0, 77, 0
1, 161179, Note_on_c, 0, 89, 51
1, 161242, Note_on_c, 0, 89, 0
1, 161242, Note_on_c, 0, 77, 41
1, 161305, Note_on_c, 0, 77, 0
1, 161305, Note_on_c, 0, 89, 49
1, 161384, Control_c, 0, 64, 127
1, 161390, Note_on_c, 0, 89, 0
1, 161390, Note_on_c, 0, 82, 41
1, 161433, Note_on_c, 0, 70, 38
1, 161474, Note_on_c, 0, 82, 0
1, 161474, Note_on_c, 0, 94, 49
1, 161556, Note_on_c, 0, 94, 0
1, 161556, Note_on_c, 0, 89, 41
1, 161556, Note_on_c, 0, 70, 0
1, 161559, Note_on_c, 0, 65, 41
1, 161559, Note_on_c, 0, 77, 41
1, 161640, Note_on_c, 0, 89, 0
1, 161640, Note_on_c, 0, 77, 36
1, 161724, Note_on_c, 0, 77, 0
1, 161724, Note_on_c, 0, 82, 36
1, 161808, Note_on_c, 0, 82, 0
1, 161808, Note_on_c, 0, 89, 41
1, 161894, Note_on_c, 0, 89, 0
1, 161894, Note_on_c, 0, 82, 41
1, 161937, Note_on_c, 0, 77, 0
1, 161937, Note_on_c, 0, 65, 0
1, 161937, Note_on_c, 0, 70, 38
1, 161978, Note_on_c, 0, 82, 0
1, 161978, Note_on_c, 0, 94, 44
1, 162060, Note_on_c, 0, 94, 0
1, 162060, Note_on_c, 0, 89, 41
1, 162060, Note_on_c, 0, 70, 0
1, 162063, Note_on_c, 0, 65, 41
1, 162063, Note_on_c, 0, 77, 41
1, 162144, Note_on_c, 0, 89, 0
1, 162144, Note_on_c, 0, 77, 37
1, 162228, Note_on_c, 0, 77, 0
1, 162228, Note_on_c, 0, 82, 41
1, 162313, Note_on_c, 0, 82, 0
1, 162313, Note_on_c, 0, 89, 43
1, 162397, Note_on_c, 0, 89, 0
1, 162397, Note_on_c, 0, 82, 41
1, 162439, Note_on_c, 0, 77, 0
1, 162439, Note_on_c, 0, 65, 0
1, 162439, Note_on_c, 0, 70, 39
1, 162480, Note_on_c, 0, 82, 0
1, 162480, Note_on_c, 0, 94, 45
1, 162562, Note_on_c, 0, 94, 0
1, 162562, Note_on_c, 0, 89, 45
1, 162562, Note_on_c, 0, 70, 0
1, 162565, Note_on_c, 0, 65, 41
1, 162565, Note_on_c, 0, 77, 41
1, 162646, Note_on_c, 0, 89, 0
1, 162646, Note_on_c, 0, 82, 41
1, 162687, Note_on_c, 0, 77, 0
1, 162687, Note_on_c, 0, 65, 0
1, 162687, Note_on_c, 0, 70, 37
1, 162729, Note_on_c, 0, 82, 0
1, 162729, Note_on_c, 0, 94, 41
1, 162813, Note_on_c, 0, 94, 0
1, 162813, Note_on_c, 0, 89, 44
1, 162813, Note_on_c, 0, 70, 0
1, 162816, Note_on_c, 0, 65, 41
1, 162816, Note_on_c, 0, 77, 41
1, 162897, Note_on_c, 0, 89, 0
1, 162897, Note_on_c, 0, 82, 41
1, 162940, Note_on_c, 0, 77, 0
1, 162940, Note_on_c, 0, 65, 0
1, 162940, Note_on_c, 0, 70, 36
1, 162982, Note_on_c, 0, 82, 0
1, 162982, Note_on_c, 0, 94, 41
1, 163067, Note_on_c, 0, 94, 0
1, 163067, Note_on_c, 0, 89, 44
1, 163067, Note_on_c, 0, 70, 0
1, 163070, Note_on_c, 0, 65, 41
1, 163070, Note_on_c, 0, 77, 41
1, 163152, Note_on_c, 0, 89, 0
1, 163152, Note_on_c, 0, 82, 40
1, 163194, Note_on_c, 0, 77, 0
1, 163194, Note_on_c, 0, 65, 0
1, 163194, Note_on_c, 0, 70, 37
1, 163237, Note_on_c, 0, 82, 0
1, 163237, Note_on_c, 0, 94, 40
1, 163322, Note_on_c, 0, 94, 0
1, 163322, Note_on_c, 0, 89, 44
1, 163322, Note_on_c, 0, 70, 0
1, 163325, Note_on_c, 0, 65, 41
1, 163325, Note_on_c, 0, 77, 41
1, 163408, Note_on_c, 0, 89, 0
1, 163408, Note_on_c, 0, 82, 42
1, 163451, Note_on_c, 0, 77, 0
1, 163451, Note_on_c, 0, 65, 0
1, 163451, Note_on_c, 0, 70, 37
1, 163494, Note_on_c, 0, 82, 0
1, 163494, Note_on_c, 0, 94, 42
1, 163580, Note_on_c, 0, 94, 0
1, 163580, Note_on_c, 0, 89, 47
1, 163580, Note_on_c, 0, 70, 0
1, 163583, Note_on_c, 0, 65, 41
1, 163583, Note_on_c, 0, 77, 41
1, 163598, Control_c, 0, 64, 0
1, 163645, Note_on_c, 0, 89, 0
1, 163645, Note_on_c, 0, 77, 0
1, 163645, Note_on_c, 0, 65, 0
1, 163817, Control_c, 0, 64, 127
1, 163839, Note_on_c, 0, 86, 40
1, 163839, Note_on_c, 0, 82, 34
1, 163904, Note_on_c, 0, 82, 0
1, 163904, Note_on_c, 0, 86, 0
1, 163904, Note_on_c, 0, 87, 41
1, 163907, Note_on_c, 0, 83, 34
1, 163970, Note_on_c, 0, 83, 0
1, 163970, Note_on_c, 0, 87, 0
1, 163970, Note_on_c, 0, 88, 42
1, 163973, Note_on_c, 0, 84, 35
1, 164035, Note_on_c, 0, 84, 0
1, 164035, Note_on_c, 0, 88, 0
1, 164035, Note_on_c, 0, 89, 43
1, 164038, Note_on_c, 0, 85, 36
1, 164101, Note_on_c, 0, 85, 0
1, 164101, Note_on_c, 0, 89, 0
1, 164101, Note_on_c, 0, 90, 44
1, 164104, Note_on_c, 0, 86, 37
1, 164166, Note_on_c, 0, 86, 0
1, 164166, Note_on_c, 0, 90, 0
1, 164166, Note_on_c, 0, 91, 45
1, 164169, Note_on_c, 0, 87, 38
1, 164231, Note_on_c, 0, 87, 0
1, 164231, Note_on_c, 0, 91, 0
1, 164231, Note_on_c, 0, 92, 46
1, 164234, Note_on_c, 0, 88, 39
1, 164295, Note_on_c, 0, 88, 0
1, 164295, Note_on_c, 0, 92, 0
1, 164295, Note_on_c, 0, 89, 47
1, 164298, Note_on_c, 0, 93, 47
1, 164360, Note_on_c, 0, 93, 0
1, 164360, Note_on_c, 0, 89, 0
1, 164360, Note_on_c, 0, 94, 48
1, 164363, Note_on_c, 0, 90, 40
1, 164425, Note_on_c, 0, 90, 0
1, 164425, Note_on_c, 0, 94, 0
1, 164425, Note_on_c, 0, 95, 49
1, 164428, Note_on_c, 0, 91, 41
1, 164489, Note_on_c, 0, 91, 0
1, 164489, Note_on_c, 0, 95, 0
1, 164489, Note_on_c, 0, 96, 50
1, 164492, Note_on_c, 0, 92, 42
1, 164553, Note_on_c, 0, 92, 0
1, 164553, Note_on_c, 0, 96, 0
1, 164553, Note_on_c, 0, 97, 51
1, 164556, Note_on_c, 0, 93, 43
1, 164617, Note_on_c, 0, 93, 0
1, 164617, Note_on_c, 0, 97, 0
1, 164617, Note_on_c, 0, 98, 52
1, 164620, Note_on_c, 0, 94, 44
1, 164627, Control_c, 0, 64, 0
1, 164644, Control_c, 0, 64, 127
1, 164681, Note_on_c, 0, 94, 0
1, 164681, Note_on_c, 0, 98, 0
1, 164681, Note_on_c, 0, 97, 52
1, 164684, Note_on_c, 0, 93, 44
1, 164745, Note_on_c, 0, 93, 0
1, 164745, Note_on_c, 0, 97, 0
1, 164745, Note_on_c, 0, 96, 51
1, 164748, Note_on_c, 0, 92, 43
1, 164808, Note_on_c, 0, 92, 0
1, 164808, Note_on_c, 0, 96, 0
1, 164808, Note_on_c, 0, 95, 50
1, 164811, Note_on_c, 0, 91, 42
1, 164872, Note_on_c, 0, 91, 0
1, 164872, Note_on_c, 0, 95, 0
1, 164872, Note_on_c, 0, 94, 49
1, 164875, Note_on_c, 0, 90, 41
1, 164936, Note_on_c, 0, 90, 0
1, 164936, Note_on_c, 0, 94, 0
1, 164936, Note_on_c, 0, 93, 49
1, 164939, Note_on_c, 0, 89, 41
1, 164999, Note_on_c, 0, 89, 0
1, 164999, Note_on_c, 0, 93, 0
1, 164999, Note_on_c, 0, 92, 48
1, 165002, Note_on_c, 0, 88, 40
1, 165063, Note_on_c, 0, 88, 0
1, 165063, Note_on_c, 0, 92, 0
1, 165063, Note_on_c, 0, 91, 47
1, 165066, Note_on_c, 0, 87, 39
1, 165126, Note_on_c, 0, 87, 0
1, 165126, Note_on_c, 0, 91, 0
1, 165126, Note_on_c, 0, 90, 46
1, 165129, Note_on_c, 0, 86, 39
1, 165190, Note_on_c, 0, 86, 0
1, 165190, Note_on_c, 0, 90, 0
1, 165190, Note_on_c, 0, 89, 46
1, 165193, Note_on_c, 0, 85, 39
1, 165254, Note_on_c, 0, 85, 0
1, 165254, Note_on_c, 0, 89, 0
1, 165254, Note_on_c, 0, 88, 45
1, 165257, Note_on_c, 0, 84, 38
1, 165317, Note_on_c, 0, 84, 0
1, 165317, Note_on_c, 0, 88, 0
1, 165317, Note_on_c, 0, 87, 44
1, 165320, Note_on_c, 0, 83, 37
1, 165381, Note_on_c, 0, 83, 0
1, 165381, Note_on_c, 0, 87, 0
1, 165381, Note_on_c, 0, 86, 43
1, 165384, Note_on_c, 0, 82, 36
1, 165392, Control_c, 0, 64, 0
1, 165420, Control_c, 0, 64, 127
1, 165445, Note_on_c, 0, 82, 0
1, 165445, Note_on_c, 0, 86, 0
1, 165445, Note_on_c, 0, 85, 43
1, 165448, Note_on_c, 0, 81, 36
1, 165509, Note_on_c, 0, 81, 0
1, 165509, Note_on_c, 0, 85, 0
1, 165509, Note_on_c, 0, 84, 44
1, 165512, Note_on_c, 0, 80, 37
1, 165573, Note_on_c, 0, 80, 0
1, 165573, Note_on_c, 0, 84, 0
1, 165573, Note_on_c, 0, 83, 44
1, 165576, Note_on_c, 0, 79, 37
1, 165638, Note_on_c, 0, 79, 0
1, 165638, Note_on_c, 0, 83, 0
1, 165638, Note_on_c, 0, 82, 45
1, 165641, Note_on_c, 0, 78, 38
1, 165703, Note_on_c, 0, 78, 0
1, 165703, Note_on_c, 0, 82, 0
1, 165703, Note_on_c, 0, 81, 45
1, 165706, Note_on_c, 0, 77, 38
1, 165768, Note_on_c, 0, 77, 0
1, 165768, Note_on_c, 0, 81, 0
1, 165768, Note_on_c, 0, 80, 46
1, 165771, Note_on_c, 0, 76, 39
1, 165833, Note_on_c, 0, 76, 0
1, 165833, Note_on_c, 0, 80, 0
1, 165833, Note_on_c, 0, 79, 46
1, 165836, Note_on_c, 0, 75, 39
1, 165898, Note_on_c, 0, 75, 0
1, 165898, Note_on_c, 0, 79, 0
1, 165898, Note_on_c, 0, 78, 47
1, 165901, Note_on_c, 0, 74, 39
1, 165963, Note_on_c, 0, 74, 0
1, 165963, Note_on_c, 0, 78, 0
1, 165963, Note_on_c, 0, 77, 47
1, 165966, Note_on_c, 0, 73, 39
1, 166028, Note_on_c, 0, 73, 0
1, 166028, Note_on_c, 0, 77, 0
1, 166028, Note_on_c, 0, 76, 48
1, 166031, Note_on_c, 0, 72, 40
1, 166093, Note_on_c, 0, 72, 0
1, 166093, Note_on_c, 0, 76, 0
1, 166093, Note_on_c, 0, 75, 48
1, 166096, Note_on_c, 0, 71, 40
1, 166159, Note_on_c, 0, 71, 0
1, 166159, Note_on_c, 0, 75, 0
1, 166159, Note_on_c, 0, 74, 49
1, 166162, Note_on_c, 0, 70, 41
1, 166183, Control_c, 0, 64, 0
1, 166218, Control_c, 0, 64, 127
1, 166224, Note_on_c, 0, 70, 0
1, 166224, Note_on_c, 0, 74, 0
1, 166224, Note_on_c, 0, 73, 49
1, 166227, Note_on_c, 0, 69, 41
1, 166289, Note_on_c, 0, 69, 0
1, 166289, Note_on_c, 0, 73, 0
1, 166289, Note_on_c, 0, 72, 50
1, 166292, Note_on_c, 0, 68, 42
1, 166355, Note_on_c, 0, 68, 0
1, 166355, Note_on_c, 0, 72, 0
1, 166355, Note_on_c, 0, 71, 50
1, 166358, Note_on_c, 0, 67, 42
1, 166420, Note_on_c, 0, 67, 0
1, 166420, Note_on_c, 0, 71, 0
1, 166420, Note_on_c, 0, 70, 51
1, 166423, Note_on_c, 0, 66, 51
1, 166486, Note_on_c, 0, 66, 0
1, 166486, Note_on_c, 0, 70, 0
1, 166486, Note_on_c, 0, 69, 51
1, 166489, Note_on_c, 0, 65, 51
1, 166551, Note_on_c, 0, 65, 0
1, 166551, Note_on_c, 0, 69, 0
1, 166551, Note_on_c, 0, 68, 52
1, 166554, Note_on_c, 0, 64, 44
1, 166617, Note_on_c, 0, 64, 0
1, 166617, Note_on_c, 0, 68, 0
1, 166617, Note_on_c, 0, 67, 52
1, 166620, Note_on_c, 0, 63, 44
1, 166683, Note_on_c, 0, 63, 0
1, 166683, Note_on_c, 0, 67, 0
1, 166683, Note_on_c, 0, 66, 53
1, 166686, Note_on_c, 0, 62, 45
1, 166748, Note_on_c, 0, 62, 0
1, 166748, Note_on_c, 0, 66, 0
1, 166748, Note_on_c, 0, 65, 53
1, 166751, Note_on_c, 0, 61, 45
1, 166814, Note_on_c, 0, 61, 0
1, 166814, Note_on_c, 0, 65, 0
1, 166814, Note_on_c, 0, 64, 54
1, 166817, Note_on_c, 0, 60, 45
1, 166879, Note_on_c, 0, 60, 0
1, 166879, Note_on_c, 0, 64, 0
1, 166879, Note_on_c, 0, 63, 54
1, 166882, Note_on_c, 0, 59, 45
1, 166945, Note_on_c, 0, 59, 0
1, 166945, Note_on_c, 0, 63, 0
1, 166945, Note_on_c, 0, 62, 52
1, 166948, Note_on_c, 0, 58, 37
1, 166956, Control_c, 0, 64, 0
1, 166973, Control_c, 0, 64, 127
1, 167011, Note_on_c, 0, 58, 0
1, 167011, Note_on_c, 0, 62, 0
1, 167011, Note_on_c, 0, 61, 55
1, 167014, Note_on_c, 0, 57, 46
1, 167076, Note_on_c, 0, 57, 0
1, 167076, Note_on_c, 0, 61, 0
1, 167076, Note_on_c, 0, 60, 55
1, 167079, Note_on_c, 0, 56, 46
1, 167142, Note_on_c, 0, 56, 0
1, 167142, Note_on_c, 0, 60, 0
1, 167142, Note_on_c, 0, 59, 56
1, 167145, Note_on_c, 0, 55, 47
1, 167208, Note_on_c, 0, 55, 0
1, 167208, Note_on_c, 0, 59, 0
1, 167208, Note_on_c, 0, 58, 56
1, 167211, Note_on_c, 0, 54, 47
1, 167274, Note_on_c, 0, 54, 0
1, 167274, Note_on_c, 0, 58, 0
1, 167274, Note_on_c, 0, 57, 56
1, 167277, Note_on_c, 0, 53, 47
1, 167340, Note_on_c, 0, 53, 0
1, 167340, Note_on_c, 0, 57, 0
1, 167340, Note_on_c, 0, 56, 57
1, 167343, Note_on_c, 0, 52, 48
1, 167406, Note_on_c, 0, 52, 0
1, 167406, Note_on_c, 0, 56, 0
1, 167406, Note_on_c, 0, 55, 57
1, 167409, Note_on_c, 0, 51, 48
1, 167472, Note_on_c, 0, 51, 0
1, 167472, Note_on_c, 0, 55, 0
1, 167472, Note_on_c, 0, 54, 57
1, 167475, Note_on_c, 0, 50, 48
1, 167538, Note_on_c, 0, 50, 0
1, 167538, Note_on_c, 0, 54, 0
1, 167538, Note_on_c, 0, 53, 58
1, 167541, Note_on_c, 0, 49, 49
1, 167604, Note_on_c, 0, 49, 0
1, 167604, Note_on_c, 0, 53, 0
1, 167604, Note_on_c, 0, 52, 58
1, 167607, Note_on_c, 0, 48, 49
1, 167671, Note_on_c, 0, 48, 0
1, 167671, Note_on_c, 0, 52, 0
1, 167671, Note_on_c, 0, 51, 58
1, 167674, Note_on_c, 0, 47, 49
1, 167737, Note_on_c, 0, 47, 0
1, 167737, Note_on_c, 0, 51, 0
1, 167737, Note_on_c, 0, 50, 59
1, 167740, Note_on_c, 0, 46, 50
1, 167748, Control_c, 0, 64, 0
1, 167768, Control_c, 0, 64, 127
1, 167803, Note_on_c, 0, 46, 0
1, 167803, Note_on_c, 0, 50, 0
1, 167803, Note_on_c, 0, 49, 59
1, 167806, Note_on_c, 0, 45, 50
1, 167871, Note_on_c, 0, 45, 0
1, 167871, Note_on_c, 0, 49, 0
1, 167871, Note_on_c, 0, 48, 60
1, 167874, Note_on_c, 0, 44, 51
1, 167938, Note_on_c, 0, 44, 0
1, 167938, Note_on_c, 0, 48, 0
1, 167938, Note_on_c, 0, 47, 61
1, 167941, Note_on_c, 0, 43, 51
1, 168006, Note_on_c, 0, 43, 0
1, 168006, Note_on_c, 0, 47, 0
1, 168006, Note_on_c, 0, 46, 58
1, 168009, Note_on_c, 0, 42, 49
1, 168075, Note_on_c, 0, 42, 0
1, 168075, Note_on_c, 0, 46, 0
1, 168075, Note_on_c, 0, 45, 55
1, 168078, Note_on_c, 0, 41, 46
1, 168144, Note_on_c, 0, 41, 0
1, 168144, Note_on_c, 0, 45, 0
1, 168144, Note_on_c, 0, 44, 52
1, 168147, Note_on_c, 0, 40, 44
1, 168214, Note_on_c, 0, 40, 0
1, 168214, Note_on_c, 0, 44, 0
1, 168214, Note_on_c, 0, 45, 48
1, 168217, Note_on_c, 0, 39, 40
1, 168285, Note_on_c, 0, 39, 0
1, 168285, Note_on_c, 0, 45, 0
1, 168285, Note_on_c, 0, 46, 46
1, 168288, Note_on_c, 0, 38, 39
1, 168355, Note_on_c, 0, 46, 0
1, 168355, Note_on_c, 0, 47, 46
1, 168426, Note_on_c, 0, 47, 0
1, 168426, Note_on_c, 0, 38, 0
1, 168426, Note_on_c, 0, 48, 45
1, 168429, Note_on_c, 0, 37, 38
1, 168497, Note_on_c, 0, 37, 0
1, 168497, Note_on_c, 0, 48, 0
1, 168497, Note_on_c, 0, 49, 44
1, 168500, Note_on_c, 0, 36, 37
1, 168568, Note_on_c, 0, 36, 0
1, 168568, Note_on_c, 0, 49, 0
1, 168568, Note_on_c, 0, 50, 44
1, 168571, Note_on_c, 0, 35, 37
1, 168662, Note_on_c, 0, 35, 0
1, 168662, Note_on_c, 0, 50, 0
1, 168662, Note_on_c, 0, 51, 43
1, 168665, Note_on_c, 0, 34, 36
1, 168757, Note_on_c, 0, 34, 0
1, 168757, Note_on_c, 0, 51, 0
1, 168757, Note_on_c, 0, 52, 42
1, 168760, Note_on_c, 0, 33, 35
1, 168851, Note_on_c, 0, 53, 49
1, 168851, Note_on_c, 0, 47, 41
1, 168851, Note_on_c, 0, 50, 41
1, 168854, Note_on_c, 0, 33, 0
1, 168854, Note_on_c, 0, 52, 0
1, 168854, Note_on_c, 0, 32, 35
1, 168907, Control_c, 0, 64, 0
1, 168947, Note_on_c, 0, 50, 0
1, 168947, Note_on_c, 0, 47, 0
1, 168947, Note_on_c, 0, 53, 0
1, 168947, Note_on_c, 0, 32, 0
1, 168947, Note_on_c, 0, 38, 31
1, 169046, Note_on_c, 0, 38, 0
1, 169046, Note_on_c, 0, 41, 31
1, 169143, Note_on_c, 0, 52, 40
1, 169143, Note_on_c, 0, 47, 34
1, 169143, Note_on_c, 0, 49, 34
1, 169146, Note_on_c, 0, 41, 0
1, 169146, Note_on_c, 0, 31, 35
1, 169235, Note_on_c, 0, 31, 0
1, 169235, Note_on_c, 0, 37, 32
1, 169281, Note_on_c, 0, 49, 0
1, 169281, Note_on_c, 0, 52, 0
1, 169281, Note_on_c, 0, 55, 40
1, 169329, Note_on_c, 0, 37, 0
1, 169329, Note_on_c, 0, 40, 32
1, 169426, Note_on_c, 0, 55, 0
1, 169426, Note_on_c, 0, 47, 0
1, 169426, Note_on_c, 0, 53, 47
1, 169429, Note_on_c, 0, 47, 39
1, 169429, Note_on_c, 0, 50, 39
1, 169429, Note_on_c, 0, 40, 0
1, 169432, Note_on_c, 0, 32, 35
1, 169519, Note_on_c, 0, 50, 0
1, 169519, Note_on_c, 0, 47, 0
1, 169519, Note_on_c, 0, 53, 0
1, 169519, Note_on_c, 0, 32, 0
1, 169519, Note_on_c, 0, 38, 31
1, 169613, Note_on_c, 0, 38, 0
1, 169613, Note_on_c, 0, 41, 31
1, 169707, Note_on_c, 0, 52, 45
1, 169707, Note_on_c, 0, 47, 38
1, 169707, Note_on_c, 0, 49, 38
1, 169710, Note_on_c, 0, 41, 0
1, 169710, Note_on_c, 0, 32, 35
1, 169797, Note_on_c, 0, 32, 0
1, 169797, Note_on_c, 0, 37, 32
1, 169842, Note_on_c, 0, 49, 0
1, 169842, Note_on_c, 0, 52, 0
1, 169842, Note_on_c, 0, 55, 40
1, 169890, Note_on_c, 0, 37, 0
1, 169890, Note_on_c, 0, 40, 32
1, 169987, Note_on_c, 0, 55, 0
1, 169987, Note_on_c, 0, 47, 0
1, 169987, Note_on_c, 0, 53, 40
1, 169990, Note_on_c, 0, 47, 34
1, 169990, Note_on_c, 0, 50, 34
1, 169990, Note_on_c, 0, 40, 0
1, 169993, Note_on_c, 0, 32, 35
1, 170084, Note_on_c, 0, 50, 0
1, 170084, Note_on_c, 0, 47, 0
1, 170084, Note_on_c, 0, 53, 0
1, 170084, Note_on_c, 0, 32, 0
1, 170084, Note_on_c, 0, 38, 31
1, 170183, Note_on_c, 0, 38, 0
1, 170183, Note_on_c, 0, 41, 31
1, 170281, Note_on_c, 0, 52, 38
1, 170281, Note_on_c, 0, 47, 32
1, 170281, Note_on_c, 0, 49, 32
1, 170284, Note_on_c, 0, 41, 0
1, 170284, Note_on_c, 0, 32, 35
1, 170381, Note_on_c, 0, 49, 0
1, 170381, Note_on_c, 0, 47, 0
1, 170381, Note_on_c, 0, 52, 0
1, 170381, Note_on_c, 0, 32, 0
1, 170381, Note_on_c, 0, 37, 32
1, 170484, Note_on_c, 0, 37, 0
1, 170484, Note_on_c, 0, 40, 32
1, 170585, Note_on_c, 0, 53, 40
1, 170585, Note_on_c, 0, 47, 34
1, 170585, Note_on_c, 0, 50, 34
1, 170588, Note_on_c, 0, 40, 0
1, 170588, Note_on_c, 0, 32, 35
1, 170685, Note_on_c, 0, 32, 0
1, 170685, Note_on_c, 0, 38, 31
1, 170785, Note_on_c, 0, 38, 0
1, 170785, Note_on_c, 0, 41, 31
1, 170885, Note_on_c, 0, 41, 0
1, 170885, Note_on_c, 0, 38, 35
1, 170986, Note_on_c, 0, 38, 0
1, 170986, Note_on_c, 0, 35, 32
1, 171086, Note_on_c, 0, 35, 0
1, 171086, Note_on_c, 0, 32, 32
1, 171186, Note_on_c, 0, 50, 0
1, 171186, Note_on_c, 0, 47, 0
1, 171186, Note_on_c, 0, 53, 0
1, 171189, Note_on_c, 0, 32, 0
1, 171189, Note_on_c, 0, 29, 23
1, 171239, Note_on_c, 0, 28, 27
1, 171266, Note_on_c, 0, 29, 0
1, 171292, Note_on_c, 0, 29, 29
1, 171317, Note_on_c, 0, 28, 0
1, 171343, Note_on_c, 0, 30, 32
1, 171369, Note_on_c, 0, 29, 0
1, 171394, Note_on_c, 0, 31, 34
1, 171420, Note_on_c, 0, 30, 0
1, 171445, Note_on_c, 0, 32, 36
1, 171470, Note_on_c, 0, 31, 0
1, 171495, Note_on_c, 0, 33, 39
1, 171521, Note_on_c, 0, 32, 0
1, 171546, Note_on_c, 0, 34, 41
1, 171571, Note_on_c, 0, 33, 0
1, 171595, Note_on_c, 0, 35, 43
1, 171620, Note_on_c, 0, 34, 0
1, 171644, Note_on_c, 0, 36, 46
1, 171669, Note_on_c, 0, 35, 0
1, 171693, Note_on_c, 0, 37, 48
1, 171717, Note_on_c, 0, 36, 0
1, 171742, Note_on_c, 0, 38, 50
1, 171768, Note_on_c, 0, 37, 0
1, 171792, Note_on_c, 0, 37, 49
1, 171817, Note_on_c, 0, 38, 0
1, 171842, Note_on_c, 0, 36, 47
1, 171868, Note_on_c, 0, 37, 0
1, 171893, Note_on_c, 0, 35, 44
1, 171919, Note_on_c, 0, 36, 0
1, 171944, Note_on_c, 0, 34, 42
1, 171970, Note_on_c, 0, 35, 0
1, 171996, Note_on_c, 0, 33, 40
1, 172022, Note_on_c, 0, 34, 0
1, 172048, Note_on_c, 0, 32, 38
1, 172073, Note_on_c, 0, 33, 0
1, 172099, Note_on_c, 0, 33, 35
1, 172125, Note_on_c, 0, 32, 0
1, 172150, Note_on_c, 0, 34, 33
1, 172176, Note_on_c, 0, 33, 0
1, 172201, Note_on_c, 0, 35, 35
1, 172227, Note_on_c, 0, 34, 0
1, 172252, Note_on_c, 0, 36, 37
1, 172278, Note_on_c, 0, 35, 0
1, 172303, Note_on_c, 0, 37, 40
1, 172329, Note_on_c, 0, 36, 0
1, 172354, Note_on_c, 0, 38, 42
1, 172380, Note_on_c, 0, 37, 0
1, 172404, Note_on_c, 0, 39, 44
1, 172430, Note_on_c, 0, 38, 0
1, 172454, Note_on_c, 0, 40, 47
1, 172479, Note_on_c, 0, 39, 0
1, 172504, Note_on_c, 0, 41, 47
1, 172529, Note_on_c, 0, 40, 0
1, 172553, Note_on_c, 0, 40, 45
1, 172578, Note_on_c, 0, 41, 0
1, 172602, Note_on_c, 0, 39, 43
1, 172628, Note_on_c, 0, 40, 0
1, 172652, Note_on_c, 0, 38, 42
1, 172678, Note_on_c, 0, 39, 0
1, 172703, Note_on_c, 0, 37, 40
1, 172728, Note_on_c, 0, 38, 0
1, 172753, Note_on_c, 0, 36, 38
1, 172780, Note_on_c, 0, 37, 0
1, 172805, Note_on_c, 0, 35, 36
1, 172831, Note_on_c, 0, 36, 0
1, 172857, Note_on_c, 0, 34, 35
1, 172884, Note_on_c, 0, 35, 0
1, 172912, Note_on_c, 0, 54, 49
1, 172912, Note_on_c, 0, 49, 41
1, 172912, Note_on_c, 0, 51, 41
1, 172915, Note_on_c, 0, 33, 35
1, 172927, Note_on_c, 0, 34, 0
1, 172967, Control_c, 0, 64, 0
1, 173008, Note_on_c, 0, 51, 0
1, 173008, Note_on_c, 0, 49, 0
1, 173008, Note_on_c, 0, 54, 0
1, 173008, Note_on_c, 0, 33, 0
1, 173008, Note_on_c, 0, 39, 31
1, 173106, Note_on_c, 0, 39, 0
1, 173106, Note_on_c, 0, 42, 31
1, 173203, Note_on_c, 0, 53, 40
1, 173203, Note_on_c, 0, 50, 34
1, 173203, Note_on_c, 0, 48, 34
1, 173206, Note_on_c, 0, 42, 0
1, 173206, Note_on_c, 0, 33, 35
1, 173295, Note_on_c, 0, 33, 0
1, 173295, Note_on_c, 0, 38, 32
1, 173341, Note_on_c, 0, 48, 0
1, 173341, Note_on_c, 0, 53, 0
1, 173341, Note_on_c, 0, 56, 40
1, 173389, Note_on_c, 0, 38, 0
1, 173389, Note_on_c, 0, 41, 32
1, 173486, Note_on_c, 0, 56, 0
1, 173486, Note_on_c, 0, 50, 0
1, 173486, Note_on_c, 0, 54, 47
1, 173489, Note_on_c, 0, 49, 39
1, 173489, Note_on_c, 0, 51, 39
1, 173489, Note_on_c, 0, 41, 0
1, 173492, Note_on_c, 0, 33, 35
1, 173579, Note_on_c, 0, 51, 0
1, 173579, Note_on_c, 0, 49, 0
1, 173579, Note_on_c, 0, 54, 0
1, 173579, Note_on_c, 0, 33, 0
1, 173579, Note_on_c, 0, 39, 31
1, 173673, Note_on_c, 0, 39, 0
1, 173673, Note_on_c, 0, 42, 31
1, 173767, Note_on_c, 0, 53, 45
1, 173767, Note_on_c, 0, 50, 38
1, 173767, Note_on_c, 0, 48, 38
1, 173770, Note_on_c, 0, 42, 0
1, 173770, Note_on_c, 0, 33, 35
1, 173857, Note_on_c, 0, 33, 0
1, 173857, Note_on_c, 0, 38, 32
1, 173902, Note_on_c, 0, 48, 0
1, 173902, Note_on_c, 0, 53, 0
1, 173902, Note_on_c, 0, 56, 40
1, 173951, Note_on_c, 0, 38, 0
1, 173951, Note_on_c, 0, 41, 32
1, 174047, Note_on_c, 0, 56, 0
1, 174047, Note_on_c, 0, 50, 0
1, 174047, Note_on_c, 0, 54, 40
1, 174050, Note_on_c, 0, 49, 34
1, 174050, Note_on_c, 0, 51, 34
1, 174050, Note_on_c, 0, 41, 0
1, 174053, Note_on_c, 0, 33, 35
1, 174144, Note_on_c, 0, 51, 0
1, 174144, Note_on_c, 0, 49, 0
1, 174144, Note_on_c, 0, 54, 0
1, 174144, Note_on_c, 0, 33, 0
1, 174144, Note_on_c, 0, 39, 31
1, 174243, Note_on_c, 0, 39, 0
1, 174243, Note_on_c, 0, 42, 31
1, 174341, Note_on_c, 0, 53, 38
1, 174341, Note_on_c, 0, 50, 32
1, 174341, Note_on_c, 0, 48, 32
1, 174344, Note_on_c, 0, 42, 0
1, 174344, Note_on_c, 0, 33, 35
1, 174441, Note_on_c, 0, 48, 0
1, 174441, Note_on_c, 0, 50, 0
1, 174441, Note_on_c, 0, 53, 0
1, 174441, Note_on_c, 0, 33, 0
1, 174441, Note_on_c, 0, 38, 32
1, 174544, Note_on_c, 0, 38, 0
1, 174544, Note_on_c, 0, 41, 32
1, 174645, Note_on_c, 0, 54, 40
1, 174645, Note_on_c, 0, 48, 34
1, 174645, Note_on_c, 0, 51, 34
1, 174648, Note_on_c, 0, 41, 0
1, 174648, Note_on_c, 0, 33, 35
1, 174745, Note_on_c, 0, 33, 0
1, 174745, Note_on_c, 0, 39, 31
1, 174845, Note_on_c, 0, 39, 0
1, 174845, Note_on_c, 0, 42, 31
1, 174946, Note_on_c, 0, 42, 0
1, 174946, Note_on_c, 0, 39, 35
1, 175046, Note_on_c, 0, 39, 0
1, 175046, Note_on_c, 0, 36, 32
1, 175146, Note_on_c, 0, 36, 0
1, 175146, Note_on_c, 0, 33, 32
1, 175246, Note_on_c, 0, 51, 0
1, 175246, Note_on_c, 0, 48, 0
1, 175246, Note_on_c, 0, 54, 0
1, 175249, Note_on_c, 0, 33, 0
1, 175249, Note_on_c, 0, 30, 30
1, 175298, Note_on_c, 0, 29, 35
1, 175325, Note_on_c, 0, 30, 0
1, 175351, Note_on_c, 0, 30, 37
1, 175377, Note_on_c, 0, 29, 0
1, 175402, Note_on_c, 0, 31, 38
1, 175429, Note_on_c, 0, 30, 0
1, 175453, Note_on_c, 0, 32, 40
1, 175480, Note_on_c, 0, 31, 0
1, 175505, Note_on_c, 0, 33, 42
1, 175530, Note_on_c, 0, 32, 0
1, 175555, Note_on_c, 0, 34, 44
1, 175580, Note_on_c, 0, 33, 0
1, 175605, Note_on_c, 0, 35, 45
1, 175630, Note_on_c, 0, 34, 0
1, 175654, Note_on_c, 0, 36, 47
1, 175680, Note_on_c, 0, 35, 0
1, 175703, Note_on_c, 0, 37, 48
1, 175728, Note_on_c, 0, 36, 0
1, 175752, Note_on_c, 0, 38, 50
1, 175777, Note_on_c, 0, 37, 0
1, 175801, Note_on_c, 0, 39, 52
1, 175827, Note_on_c, 0, 38, 0
1, 175852, Note_on_c, 0, 38, 54
1, 175877, Note_on_c, 0, 39, 0
1, 175902, Note_on_c, 0, 37, 52
1, 175928, Note_on_c, 0, 38, 0
1, 175952, Note_on_c, 0, 36, 50
1, 175978, Note_on_c, 0, 37, 0
1, 176004, Note_on_c, 0, 35, 48
1, 176029, Note_on_c, 0, 36, 0
1, 176055, Note_on_c, 0, 34, 47
1, 176082, Note_on_c, 0, 35, 0
1, 176107, Note_on_c, 0, 33, 45
1, 176133, Note_on_c, 0, 34, 0
1, 176158, Note_on_c, 0, 34, 42
1, 176184, Note_on_c, 0, 33, 0
1, 176209, Note_on_c, 0, 35, 44
1, 176235, Note_on_c, 0, 34, 0
1, 176261, Note_on_c, 0, 36, 46
1, 176286, Note_on_c, 0, 35, 0
1, 176311, Note_on_c, 0, 37, 48
1, 176337, Note_on_c, 0, 36, 0
1, 176363, Note_on_c, 0, 38, 50
1, 176388, Note_on_c, 0, 37, 0
1, 176413, Note_on_c, 0, 39, 52
1, 176439, Note_on_c, 0, 38, 0
1, 176463, Note_on_c, 0, 40, 55
1, 176489, Note_on_c, 0, 39, 0
1, 176514, Note_on_c, 0, 41, 57
1, 176538, Note_on_c, 0, 40, 0
1, 176563, Note_on_c, 0, 42, 59
1, 176588, Note_on_c, 0, 41, 0
1, 176612, Note_on_c, 0, 41, 58
1, 176637, Note_on_c, 0, 42, 0
1, 176662, Note_on_c, 0, 40, 56
1, 176687, Note_on_c, 0, 41, 0
1, 176711, Note_on_c, 0, 39, 53
1, 176737, Note_on_c, 0, 40, 0
1, 176762, Note_on_c, 0, 38, 51
1, 176787, Note_on_c, 0, 39, 0
1, 176813, Note_on_c, 0, 37, 48
1, 176839, Note_on_c, 0, 38, 0
1, 176865, Note_on_c, 0, 36, 46
1, 176890, Note_on_c, 0, 37, 0
1, 176916, Note_on_c, 0, 35, 43
1, 176943, Note_on_c, 0, 36, 0
1, 176971, Note_on_c, 0, 55, 58
1, 176971, Note_on_c, 0, 49, 49
1, 176971, Note_on_c, 0, 52, 49
1, 176974, Note_on_c, 0, 34, 42
1, 176974, Control_c, 0, 64, 127
1, 176986, Note_on_c, 0, 35, 0
1, 177068, Note_on_c, 0, 52, 0
1, 177068, Note_on_c, 0, 49, 0
1, 177068, Note_on_c, 0, 55, 0
1, 177068, Note_on_c, 0, 34, 0
1, 177068, Note_on_c, 0, 40, 37
1, 177073, Control_c, 0, 64, 0
1, 177167, Note_on_c, 0, 40, 0
1, 177167, Note_on_c, 0, 43, 37
1, 177265, Note_on_c, 0, 54, 48
1, 177265, Note_on_c, 0, 49, 40
1, 177265, Note_on_c, 0, 51, 40
1, 177268, Note_on_c, 0, 43, 0
1, 177268, Note_on_c, 0, 34, 42
1, 177301, Control_c, 0, 64, 127
1, 177367, Note_on_c, 0, 34, 0
1, 177367, Note_on_c, 0, 39, 38
1, 177417, Note_on_c, 0, 51, 0
1, 177417, Note_on_c, 0, 54, 0
1, 177417, Note_on_c, 0, 57, 48
1, 177420, Control_c, 0, 64, 0
1, 177468, Note_on_c, 0, 39, 0
1, 177468, Note_on_c, 0, 42, 38
1, 177569, Note_on_c, 0, 57, 0
1, 177569, Note_on_c, 0, 49, 0
1, 177569, Note_on_c, 0, 55, 56
1, 177572, Note_on_c, 0, 49, 46
1, 177572, Note_on_c, 0, 52, 46
1, 177572, Note_on_c, 0, 42, 0
1, 177575, Note_on_c, 0, 34, 42
1, 177615, Control_c, 0, 64, 127
1, 177668, Note_on_c, 0, 52, 0
1, 177668, Note_on_c, 0, 49, 0
1, 177668, Note_on_c, 0, 55, 0
1, 177668, Note_on_c, 0, 34, 0
1, 177668, Note_on_c, 0, 40, 37
1, 177769, Note_on_c, 0, 40, 0
1, 177769, Note_on_c, 0, 43, 37
1, 177870, Note_on_c, 0, 43, 0
1, 177870, Note_on_c, 0, 40, 42
1, 177883, Control_c, 0, 64, 0
1, 177931, Control_c, 0, 64, 127
1, 177970, Note_on_c, 0, 40, 0
1, 177970, Note_on_c, 0, 37, 38
1, 178070, Note_on_c, 0, 37, 0
1, 178070, Note_on_c, 0, 34, 38
1, 178170, Note_on_c, 0, 56, 61
1, 178170, Note_on_c, 0, 50, 51
1, 178170, Note_on_c, 0, 53, 51
1, 178173, Note_on_c, 0, 34, 0
1, 178173, Note_on_c, 0, 35, 43
1, 178173, Control_c, 0, 64, 0
1, 178196, Control_c, 0, 64, 127
1, 178267, Note_on_c, 0, 53, 0
1, 178267, Note_on_c, 0, 50, 0
1, 178267, Note_on_c, 0, 56, 0
1, 178267, Note_on_c, 0, 35, 0
1, 178267, Note_on_c, 0, 41, 38
1, 178267, Control_c, 0, 64, 0
1, 178366, Note_on_c, 0, 41, 0
1, 178366, Note_on_c, 0, 44, 38
1, 178465, Note_on_c, 0, 55, 50
1, 178465, Note_on_c, 0, 50, 42
1, 178465, Note_on_c, 0, 52, 42
1, 178468, Note_on_c, 0, 44, 0
1, 178468, Note_on_c, 0, 35, 43
1, 178471, Control_c, 0, 64, 127
1, 178566, Note_on_c, 0, 35, 0
1, 178566, Note_on_c, 0, 40, 40
1, 178616, Note_on_c, 0, 52, 0
1, 178616, Note_on_c, 0, 55, 0
1, 178616, Note_on_c, 0, 58, 50
1, 178619, Control_c, 0, 64, 0
1, 178667, Note_on_c, 0, 40, 0
1, 178667, Note_on_c, 0, 43, 40
1, 178766, Control_c, 0, 64, 127
1, 178766, Note_on_c, 0, 58, 0
1, 178766, Note_on_c, 0, 50, 0
1, 178766, Note_on_c, 0, 56, 58
1, 178766, Note_on_c, 0, 50, 48
1, 178766, Note_on_c, 0, 53, 48
1, 178766, Note_on_c, 0, 43, 0
1, 178766, Note_on_c, 0, 35, 43
1, 178867, Note_on_c, 0, 53, 0
1, 178867, Note_on_c, 0, 50, 0
1, 178867, Note_on_c, 0, 56, 0
1, 178867, Note_on_c, 0, 35, 0
1, 178867, Note_on_c, 0, 41, 38
1, 178969, Note_on_c, 0, 41, 0
1, 178969, Note_on_c, 0, 44, 38
1, 179069, Note_on_c, 0, 44, 0
1, 179069, Note_on_c, 0, 41, 43
1, 179075, Control_c, 0, 64, 0
1, 179108, Control_c, 0, 64, 127
1, 179169, Note_on_c, 0, 41, 0
1, 179169, Note_on_c, 0, 38, 40
1, 179269, Note_on_c, 0, 38, 0
1, 179269, Note_on_c, 0, 35, 40
1, 179369, Note_on_c, 0, 44, 53
1, 179369, Note_on_c, 0, 35, 0
1, 179369, Note_on_c, 0, 32, 44
1, 179372, Control_c, 0, 64, 0
1, 179409, Control_c, 0, 64, 127
1, 179444, Note_on_c, 0, 44, 0
1, 179444, Note_on_c, 0, 43, 55
1, 179444, Note_on_c, 0, 32, 0
1, 179447, Note_on_c, 0, 31, 45
1, 179519, Note_on_c, 0, 43, 0
1, 179519, Note_on_c, 0, 44, 56
1, 179519, Note_on_c, 0, 31, 0
1, 179522, Note_on_c, 0, 32, 46
1, 179594, Note_on_c, 0, 44, 0
1, 179594, Note_on_c, 0, 45, 58
1, 179594, Note_on_c, 0, 32, 0
1, 179597, Note_on_c, 0, 33, 47
1, 179668, Note_on_c, 0, 45, 0
1, 179668, Note_on_c, 0, 46, 60
1, 179668, Note_on_c, 0, 33, 0
1, 179671, Note_on_c, 0, 34, 48
1, 179742, Note_on_c, 0, 46, 0
1, 179742, Note_on_c, 0, 47, 61
1, 179742, Note_on_c, 0, 34, 0
1, 179745, Note_on_c, 0, 35, 49
1, 179816, Note_on_c, 0, 47, 0
1, 179816, Note_on_c, 0, 48, 63
1, 179816, Note_on_c, 0, 35, 0
1, 179819, Note_on_c, 0, 36, 51
1, 179889, Note_on_c, 0, 48, 0
1, 179889, Note_on_c, 0, 49, 65
1, 179889, Note_on_c, 0, 36, 0
1, 179892, Note_on_c, 0, 37, 52
1, 179962, Note_on_c, 0, 49, 0
1, 179962, Note_on_c, 0, 50, 66
1, 179962, Note_on_c, 0, 37, 0
1, 179965, Note_on_c, 0, 38, 53
1, 180035, Note_on_c, 0, 50, 0
1, 180035, Note_on_c, 0, 51, 68
1, 180035, Note_on_c, 0, 38, 0
1, 180038, Note_on_c, 0, 39, 54
1, 180108, Note_on_c, 0, 51, 0
1, 180108, Note_on_c, 0, 52, 70
1, 180108, Note_on_c, 0, 39, 0
1, 180111, Note_on_c, 0, 40, 55
1, 180180, Note_on_c, 0, 52, 0
1, 180180, Note_on_c, 0, 53, 71
1, 180180, Note_on_c, 0, 40, 0
1, 180183, Note_on_c, 0, 41, 56
1, 180252, Note_on_c, 0, 53, 0
1, 180252, Note_on_c, 0, 52, 73
1, 180252, Note_on_c, 0, 41, 0
1, 180255, Note_on_c, 0, 40, 58
1, 180324, Note_on_c, 0, 52, 0
1, 180324, Note_on_c, 0, 51, 71
1, 180324, Note_on_c, 0, 40, 0
1, 180327, Note_on_c, 0, 39, 57
1, 180397, Note_on_c, 0, 51, 0
1, 180397, Note_on_c, 0, 50, 69
1, 180397, Note_on_c, 0, 39, 0
1, 180400, Note_on_c, 0, 38, 56
1, 180470, Note_on_c, 0, 50, 0
1, 180470, Note_on_c, 0, 49, 66
1, 180470, Note_on_c, 0, 38, 0
1, 180473, Note_on_c, 0, 37, 55
1, 180544, Note_on_c, 0, 49, 0
1, 180544, Note_on_c, 0, 48, 64
1, 180544, Note_on_c, 0, 37, 0
1, 180547, Note_on_c, 0, 36, 54
1, 180619, Note_on_c, 0, 48, 0
1, 180619, Note_on_c, 0, 47, 62
1, 180619, Note_on_c, 0, 36, 0
1, 180622, Note_on_c, 0, 35, 52
1, 180664, Control_c, 0, 64, 0
1, 180693, Note_on_c, 0, 47, 0
1, 180693, Note_on_c, 0, 48, 59
1, 180693, Note_on_c, 0, 35, 0
1, 180696, Note_on_c, 0, 36, 50
1, 180710, Control_c, 0, 64, 127
1, 180767, Note_on_c, 0, 48, 0
1, 180767, Note_on_c, 0, 49, 58
1, 180767, Note_on_c, 0, 36, 0
1, 180770, Note_on_c, 0, 37, 48
1, 180840, Note_on_c, 0, 49, 0
1, 180840, Note_on_c, 0, 50, 60
1, 180840, Note_on_c, 0, 37, 0
1, 180843, Note_on_c, 0, 38, 51
1, 180914, Note_on_c, 0, 50, 0
1, 180914, Note_on_c, 0, 51, 63
1, 180914, Note_on_c, 0, 38, 0
1, 180917, Note_on_c, 0, 39, 53
1, 180987, Note_on_c, 0, 51, 0
1, 180987, Note_on_c, 0, 52, 65
1, 180987, Note_on_c, 0, 39, 0
1, 180990, Note_on_c, 0, 40, 55
1, 181060, Note_on_c, 0, 52, 0
1, 181060, Note_on_c, 0, 53, 68
1, 181060, Note_on_c, 0, 40, 0
1, 181063, Note_on_c, 0, 41, 57
1, 181132, Note_on_c, 0, 53, 0
1, 181132, Note_on_c, 0, 54, 70
1, 181132, Note_on_c, 0, 41, 0
1, 181135, Note_on_c, 0, 42, 59
1, 181205, Note_on_c, 0, 54, 0
1, 181205, Note_on_c, 0, 55, 73
1, 181205, Note_on_c, 0, 42, 0
1, 181208, Note_on_c, 0, 43, 60
1, 181277, Note_on_c, 0, 55, 0
1, 181277, Note_on_c, 0, 56, 76
1, 181277, Note_on_c, 0, 43, 0
1, 181280, Note_on_c, 0, 44, 62
1, 181349, Note_on_c, 0, 56, 0
1, 181349, Note_on_c, 0, 55, 73
1, 181349, Note_on_c, 0, 44, 0
1, 181352, Note_on_c, 0, 43, 61
1, 181421, Note_on_c, 0, 55, 0
1, 181421, Note_on_c, 0, 54, 70
1, 181421, Note_on_c, 0, 43, 0
1, 181424, Note_on_c, 0, 42, 57
1, 181494, Note_on_c, 0, 54, 0
1, 181494, Note_on_c, 0, 53, 67
1, 181494, Note_on_c, 0, 42, 0
1, 181497, Note_on_c, 0, 41, 54
1, 181566, Note_on_c, 0, 53, 0
1, 181566, Note_on_c, 0, 52, 64
1, 181566, Note_on_c, 0, 41, 0
1, 181569, Note_on_c, 0, 40, 51
1, 181639, Note_on_c, 0, 52, 0
1, 181639, Note_on_c, 0, 51, 60
1, 181639, Note_on_c, 0, 40, 0
1, 181642, Note_on_c, 0, 39, 47
1, 181713, Note_on_c, 0, 51, 0
1, 181713, Note_on_c, 0, 39, 0
1, 181713, Note_on_c, 0, 50, 59
1, 181716, Note_on_c, 0, 38, 59
1, 181719, Control_c, 0, 64, 0
1, 181786, Note_on_c, 0, 63, 64
1, 181786, Note_on_c, 0, 51, 64
1, 181786, Note_on_c, 0, 38, 0
1, 181789, Note_on_c, 0, 50, 0
1, 181796, Control_c, 0, 64, 127
1, 181859, Note_on_c, 0, 51, 0
1, 181859, Note_on_c, 0, 63, 0
1, 181859, Note_on_c, 0, 52, 61
1, 181862, Note_on_c, 0, 40, 61
1, 181931, Note_on_c, 0, 65, 67
1, 181931, Note_on_c, 0, 53, 67
1, 181931, Note_on_c, 0, 40, 0
1, 181934, Note_on_c, 0, 52, 0
1, 182004, Note_on_c, 0, 53, 0
1, 182004, Note_on_c, 0, 65, 0
1, 182004, Note_on_c, 0, 54, 64
1, 182007, Note_on_c, 0, 42, 64
1, 182076, Note_on_c, 0, 67, 70
1, 182076, Note_on_c, 0, 55, 70
1, 182076, Note_on_c, 0, 42, 0
1, 182079, Note_on_c, 0, 54, 0
1, 182147, Note_on_c, 0, 55, 0
1, 182147, Note_on_c, 0, 67, 0
1, 182147, Note_on_c, 0, 56, 67
1, 182150, Note_on_c, 0, 44, 67
1, 182219, Note_on_c, 0, 69, 74
1, 182219, Note_on_c, 0, 57, 74
1, 182219, Note_on_c, 0, 44, 0
1, 182222, Note_on_c, 0, 56, 0
1, 182289, Note_on_c, 0, 57, 0
1, 182289, Note_on_c, 0, 69, 0
1, 182289, Note_on_c, 0, 58, 70
1, 182292, Note_on_c, 0, 46, 70
1, 182360, Note_on_c, 0, 71, 77
1, 182360, Note_on_c, 0, 59, 77
1, 182360, Note_on_c, 0, 46, 0
1, 182363, Note_on_c, 0, 58, 0
1, 182430, Note_on_c, 0, 59, 0
1, 182430, Note_on_c, 0, 71, 0
1, 182430, Note_on_c, 0, 59, 72
1, 182433, Note_on_c, 0, 47, 72
1, 182501, Note_on_c, 0, 70, 73
1, 182501, Note_on_c, 0, 58, 73
1, 182501, Note_on_c, 0, 47, 0
1, 182504, Note_on_c, 0, 59, 0
1, 182572, Note_on_c, 0, 58, 0
1, 182572, Note_on_c, 0, 70, 0
1, 182572, Note_on_c, 0, 57, 71
1, 182575, Note_on_c, 0, 45, 71
1, 182644, Note_on_c, 0, 68, 68
1, 182644, Note_on_c, 0, 56, 68
1, 182644, Note_on_c, 0, 45, 0
1, 182647, Note_on_c, 0, 57, 0
1, 182716, Note_on_c, 0, 56, 0
1, 182716, Note_on_c, 0, 68, 0
1, 182716, Note_on_c, 0, 55, 67
1, 182719, Note_on_c, 0, 43, 67
1, 182789, Note_on_c, 0, 66, 64
1, 182789, Note_on_c, 0, 54, 64
1, 182789, Note_on_c, 0, 43, 0
1, 182792, Note_on_c, 0, 55, 0
1, 182862, Note_on_c, 0, 54, 0
1, 182862, Note_on_c, 0, 66, 0
1, 182862, Note_on_c, 0, 53, 64
1, 182865, Note_on_c, 0, 41, 64
1, 182865, Control_c, 0, 64, 0
1, 182904, Control_c, 0, 64, 127
1, 182935, Note_on_c, 0, 66, 60
1, 182935, Note_on_c, 0, 54, 48
1, 182935, Note_on_c, 0, 41, 0
1, 182938, Note_on_c, 0, 53, 0
1, 183008, Note_on_c, 0, 54, 0
1, 183008, Note_on_c, 0, 66, 0
1, 183008, Note_on_c, 0, 55, 63
1, 183011, Note_on_c, 0, 43, 63
1, 183081, Note_on_c, 0, 68, 65
1, 183081, Note_on_c, 0, 56, 65
1, 183081, Note_on_c, 0, 43, 0
1, 183084, Note_on_c, 0, 55, 0
1, 183154, Note_on_c, 0, 56, 0
1, 183154, Note_on_c, 0, 68, 0
1, 183154, Note_on_c, 0, 57, 66
1, 183157, Note_on_c, 0, 45, 66
1, 183226, Note_on_c, 0, 70, 69
1, 183226, Note_on_c, 0, 58, 69
1, 183226, Note_on_c, 0, 45, 0
1, 183229, Note_on_c, 0, 57, 0
1, 183298, Note_on_c, 0, 58, 0
1, 183298, Note_on_c, 0, 70, 0
1, 183298, Note_on_c, 0, 59, 69
1, 183301, Note_on_c, 0, 47, 69
1, 183369, Note_on_c, 0, 72, 73
1, 183369, Note_on_c, 0, 60, 73
1, 183369, Note_on_c, 0, 47, 0
1, 183372, Note_on_c, 0, 59, 0
1, 183441, Note_on_c, 0, 60, 0
1, 183441, Note_on_c, 0, 72, 0
1, 183441, Note_on_c, 0, 61, 76
1, 183444, Note_on_c, 0, 49, 76
1, 183512, Note_on_c, 0, 74, 78
1, 183512, Note_on_c, 0, 62, 78
1, 183512, Note_on_c, 0, 49, 0
1, 183515, Note_on_c, 0, 61, 0
1, 183583, Note_on_c, 0, 62, 0
1, 183583, Note_on_c, 0, 74, 0
1, 183583, Note_on_c, 0, 62, 72
1, 183586, Note_on_c, 0, 50, 72
1, 183653, Note_on_c, 0, 73, 74
1, 183653, Note_on_c, 0, 61, 74
1, 183653, Note_on_c, 0, 50, 0
1, 183656, Note_on_c, 0, 62, 0
1, 183724, Note_on_c, 0, 61, 0
1, 183724, Note_on_c, 0, 73, 0
1, 183724, Note_on_c, 0, 60, 68
1, 183727, Note_on_c, 0, 48, 68
1, 183796, Note_on_c, 0, 71, 70
1, 183796, Note_on_c, 0, 59, 70
1, 183796, Note_on_c, 0, 48, 0
1, 183799, Note_on_c, 0, 60, 0
1, 183867, Note_on_c, 0, 59, 0
1, 183867, Note_on_c, 0, 71, 0
1, 183867, Note_on_c, 0, 58, 63
1, 183870, Note_on_c, 0, 46, 63
1, 183940, Note_on_c, 0, 69, 65
1, 183940, Note_on_c, 0, 57, 65
1, 183940, Note_on_c, 0, 46, 0
1, 183943, Note_on_c, 0, 58, 0
1, 184012, Note_on_c, 0, 57, 0
1, 184012, Note_on_c, 0, 69, 0
1, 184012, Note_on_c, 0, 56, 63
1, 184015, Note_on_c, 0, 44, 63
1, 184015, Control_c, 0, 64, 0
1, 184053, Control_c, 0, 64, 127
1, 184085, Note_on_c, 0, 69, 66
1, 184085, Note_on_c, 0, 57, 66
1, 184085, Note_on_c, 0, 44, 0
1, 184088, Note_on_c, 0, 56, 0
1, 184157, Note_on_c, 0, 57, 0
1, 184157, Note_on_c, 0, 69, 0
1, 184157, Note_on_c, 0, 58, 67
1, 184160, Note_on_c, 0, 46, 67
1, 184230, Note_on_c, 0, 71, 70
1, 184230, Note_on_c, 0, 59, 70
1, 184230, Note_on_c, 0, 46, 0
1, 184233, Note_on_c, 0, 58, 0
1, 184302, Note_on_c, 0, 59, 0
1, 184302, Note_on_c, 0, 71, 0
1, 184302, Note_on_c, 0, 60, 70
1, 184305, Note_on_c, 0, 48, 70
1, 184374, Note_on_c, 0, 73, 74
1, 184374, Note_on_c, 0, 61, 74
1, 184374, Note_on_c, 0, 48, 0
1, 184377, Note_on_c, 0, 60, 0
1, 184446, Note_on_c, 0, 61, 0
1, 184446, Note_on_c, 0, 73, 0
1, 184446, Note_on_c, 0, 62, 74
1, 184449, Note_on_c, 0, 50, 74
1, 184517, Note_on_c, 0, 75, 79
1, 184517, Note_on_c, 0, 63, 79
1, 184517, Note_on_c, 0, 50, 0
1, 184520, Note_on_c, 0, 62, 0
1, 184589, Note_on_c, 0, 63, 0
1, 184589, Note_on_c, 0, 75, 0
1, 184589, Note_on_c, 0, 64, 78
1, 184592, Note_on_c, 0, 52, 78
1, 184660, Note_on_c, 0, 77, 83
1, 184660, Note_on_c, 0, 65, 83
1, 184660, Note_on_c, 0, 52, 0
1, 184663, Note_on_c, 0, 64, 0
1, 184731, Note_on_c, 0, 65, 0
1, 184731, Note_on_c, 0, 77, 0
1, 184731, Note_on_c, 0, 64, 74
1, 184734, Note_on_c, 0, 52, 74
1, 184802, Note_on_c, 0, 75, 77
1, 184802, Note_on_c, 0, 63, 77
1, 184802, Note_on_c, 0, 52, 0
1, 184805, Note_on_c, 0, 64, 0
1, 184873, Note_on_c, 0, 63, 0
1, 184873, Note_on_c, 0, 75, 0
1, 184873, Note_on_c, 0, 62, 70
1, 184876, Note_on_c, 0, 50, 70
1, 184945, Note_on_c, 0, 73, 72
1, 184945, Note_on_c, 0, 61, 72
1, 184945, Note_on_c, 0, 50, 0
1, 184948, Note_on_c, 0, 62, 0
1, 185017, Note_on_c, 0, 61, 0
1, 185017, Note_on_c, 0, 73, 0
1, 185017, Note_on_c, 0, 60, 66
1, 185020, Note_on_c, 0, 48, 66
1, 185089, Note_on_c, 0, 71, 63
1, 185089, Note_on_c, 0, 59, 50
1, 185089, Note_on_c, 0, 48, 0
1, 185092, Note_on_c, 0, 60, 0
1, 185162, Note_on_c, 0, 59, 0
1, 185162, Note_on_c, 0, 71, 0
1, 185162, Note_on_c, 0, 58, 64
1, 185165, Note_on_c, 0, 46, 51
1, 185165, Control_c, 0, 64, 0
1, 185203, Control_c, 0, 64, 127
1, 185234, Note_on_c, 0, 69, 69
1, 185234, Note_on_c, 0, 57, 69
1, 185234, Note_on_c, 0, 46, 0
1, 185237, Note_on_c, 0, 58, 0
1, 185307, Note_on_c, 0, 57, 0
1, 185307, Note_on_c, 0, 69, 0
1, 185307, Note_on_c, 0, 56, 69
1, 185310, Note_on_c, 0, 44, 69
1, 185379, Note_on_c, 0, 69, 73
1, 185379, Note_on_c, 0, 57, 73
1, 185379, Note_on_c, 0, 44, 0
1, 185382, Note_on_c, 0, 56, 0
1, 185451, Note_on_c, 0, 57, 0
1, 185451, Note_on_c, 0, 69, 0
1, 185451, Note_on_c, 0, 58, 72
1, 185454, Note_on_c, 0, 46, 72
1, 185523, Note_on_c, 0, 71, 76
1, 185523, Note_on_c, 0, 59, 76
1, 185523, Note_on_c, 0, 46, 0
1, 185526, Note_on_c, 0, 58, 0
1, 185595, Note_on_c, 0, 59, 0
1, 185595, Note_on_c, 0, 71, 0
1, 185595, Note_on_c, 0, 60, 76
1, 185598, Note_on_c, 0, 48, 76
1, 185666, Note_on_c, 0, 73, 79
1, 185666, Note_on_c, 0, 61, 79
1, 185666, Note_on_c, 0, 48, 0
1, 185669, Note_on_c, 0, 60, 0
1, 185737, Note_on_c, 0, 61, 0
1, 185737, Note_on_c, 0, 73, 0
1, 185737, Note_on_c, 0, 62, 79
1, 185740, Note_on_c, 0, 50, 79
1, 185808, Note_on_c, 0, 75, 83
1, 185808, Note_on_c, 0, 63, 83
1, 185808, Note_on_c, 0, 50, 0
1, 185811, Note_on_c, 0, 62, 0
1, 185878, Note_on_c, 0, 63, 0
1, 185878, Note_on_c, 0, 75, 0
1, 185878, Note_on_c, 0, 64, 80
1, 185881, Note_on_c, 0, 52, 80
1, 185948, Note_on_c, 0, 77, 84
1, 185948, Note_on_c, 0, 65, 84
1, 185948, Note_on_c, 0, 52, 0
1, 185951, Note_on_c, 0, 64, 0
1, 186018, Note_on_c, 0, 65, 0
1, 186018, Note_on_c, 0, 77, 0
1, 186018, Note_on_c, 0, 64, 75
1, 186021, Note_on_c, 0, 52, 75
1, 186089, Note_on_c, 0, 75, 79
1, 186089, Note_on_c, 0, 63, 79
1, 186089, Note_on_c, 0, 52, 0
1, 186092, Note_on_c, 0, 64, 0
1, 186160, Note_on_c, 0, 63, 0
1, 186160, Note_on_c, 0, 75, 0
1, 186160, Note_on_c, 0, 62, 70
1, 186163, Note_on_c, 0, 50, 70
1, 186232, Note_on_c, 0, 73, 74
1, 186232, Note_on_c, 0, 61, 74
1, 186232, Note_on_c, 0, 50, 0
1, 186235, Note_on_c, 0, 62, 0
1, 186305, Note_on_c, 0, 61, 0
1, 186305, Note_on_c, 0, 73, 0
1, 186305, Note_on_c, 0, 60, 72
1, 186308, Note_on_c, 0, 48, 57
1, 186308, Control_c, 0, 64, 0
1, 186353, Control_c, 0, 64, 127
1, 186377, Note_on_c, 0, 71, 67
1, 186377, Note_on_c, 0, 59, 67
1, 186377, Note_on_c, 0, 48, 0
1, 186380, Note_on_c, 0, 60, 0
1, 186450, Note_on_c, 0, 59, 0
1, 186450, Note_on_c, 0, 71, 0
1, 186450, Note_on_c, 0, 58, 68
1, 186453, Note_on_c, 0, 46, 68
1, 186523, Note_on_c, 0, 69, 69
1, 186523, Note_on_c, 0, 57, 69
1, 186523, Note_on_c, 0, 46, 0
1, 186526, Note_on_c, 0, 58, 0
1, 186596, Note_on_c, 0, 57, 0
1, 186596, Note_on_c, 0, 69, 0
1, 186596, Note_on_c, 0, 56, 68
1, 186599, Note_on_c, 0, 44, 68
1, 186668, Note_on_c, 0, 69, 71
1, 186668, Note_on_c, 0, 57, 71
1, 186668, Note_on_c, 0, 44, 0
1, 186671, Note_on_c, 0, 56, 0
1, 186741, Note_on_c, 0, 57, 0
1, 186741, Note_on_c, 0, 69, 0
1, 186741, Note_on_c, 0, 58, 69
1, 186744, Note_on_c, 0, 46, 69
1, 186813, Note_on_c, 0, 71, 73
1, 186813, Note_on_c, 0, 59, 73
1, 186813, Note_on_c, 0, 46, 0
1, 186816, Note_on_c, 0, 58, 0
1, 186885, Note_on_c, 0, 59, 0
1, 186885, Note_on_c, 0, 71, 0
1, 186885, Note_on_c, 0, 60, 70
1, 186888, Note_on_c, 0, 48, 70
1, 186957, Note_on_c, 0, 73, 75
1, 186957, Note_on_c, 0, 61, 75
1, 186957, Note_on_c, 0, 48, 0
1, 186960, Note_on_c, 0, 60, 0
1, 187029, Note_on_c, 0, 61, 0
1, 187029, Note_on_c, 0, 73, 0
1, 187029, Note_on_c, 0, 62, 71
1, 187032, Note_on_c, 0, 50, 71
1, 187100, Note_on_c, 0, 75, 77
1, 187100, Note_on_c, 0, 63, 77
1, 187100, Note_on_c, 0, 50, 0
1, 187103, Note_on_c, 0, 62, 0
1, 187172, Note_on_c, 0, 63, 0
1, 187172, Note_on_c, 0, 75, 0
1, 187172, Note_on_c, 0, 64, 72
1, 187175, Note_on_c, 0, 52, 72
1, 187244, Note_on_c, 0, 77, 79
1, 187244, Note_on_c, 0, 65, 79
1, 187244, Note_on_c, 0, 52, 0
1, 187247, Note_on_c, 0, 64, 0
1, 187315, Note_on_c, 0, 65, 0
1, 187315, Note_on_c, 0, 77, 0
1, 187315, Note_on_c, 0, 65, 72
1, 187318, Note_on_c, 0, 53, 72
1, 187386, Note_on_c, 0, 80, 81
1, 187386, Note_on_c, 0, 68, 81
1, 187386, Note_on_c, 0, 53, 0
1, 187389, Note_on_c, 0, 65, 0
1, 187457, Note_on_c, 0, 68, 0
1, 187457, Note_on_c, 0, 80, 0
1, 187457, Note_on_c, 0, 62, 74
1, 187460, Note_on_c, 0, 50, 74
1, 187467, Control_c, 0, 64, 0
1, 187501, Control_c, 0, 64, 127
1, 187528, Note_on_c, 0, 83, 69
1, 187528, Note_on_c, 0, 71, 69
1, 187528, Note_on_c, 0, 50, 0
1, 187531, Note_on_c, 0, 62, 0
1, 187599, Note_on_c, 0, 71, 0
1, 187599, Note_on_c, 0, 83, 0
1, 187599, Note_on_c, 0, 59, 76
1, 187602, Note_on_c, 0, 47, 76
1, 187670, Note_on_c, 0, 86, 75
1, 187670, Note_on_c, 0, 74, 75
1, 187670, Note_on_c, 0, 47, 0
1, 187673, Note_on_c, 0, 59, 0
1, 187741, Note_on_c, 0, 74, 0
1, 187741, Note_on_c, 0, 86, 0
1, 187741, Note_on_c, 0, 56, 79
1, 187744, Note_on_c, 0, 44, 79
1, 187812, Note_on_c, 0, 89, 78
1, 187812, Note_on_c, 0, 77, 78
1, 187812, Note_on_c, 0, 44, 0
1, 187815, Note_on_c, 0, 56, 0
1, 187882, Note_on_c, 0, 77, 0
1, 187882, Note_on_c, 0, 89, 0
1, 187882, Note_on_c, 0, 53, 82
1, 187885, Note_on_c, 0, 41, 82
1, 187953, Note_on_c, 0, 92, 80
1, 187953, Note_on_c, 0, 80, 80
1, 187953, Note_on_c, 0, 41, 0
1, 187956, Note_on_c, 0, 53, 0
1, 188024, Note_on_c, 0, 80, 0
1, 188024, Note_on_c, 0, 92, 0
1, 188024, Note_on_c, 0, 50, 85
1, 188027, Note_on_c, 0, 38, 85
1, 188095, Note_on_c, 0, 95, 83
1, 188095, Note_on_c, 0, 83, 83
1, 188095, Note_on_c, 0, 38, 0
1, 188098, Note_on_c, 0, 50, 0
1, 188166, Note_on_c, 0, 83, 0
1, 188166, Note_on_c, 0, 95, 0
1, 188166, Note_on_c, 0, 47, 88
1, 188169, Note_on_c, 0, 35, 88
1, 188238, Note_on_c, 0, 98, 86
1, 188238, Note_on_c, 0, 86, 86
1, 188238, Note_on_c, 0, 35, 0
1, 188241, Note_on_c, 0, 47, 0
1, 188310, Note_on_c, 0, 86, 0
1, 188310, Note_on_c, 0, 98, 0
1, 188310, Note_on_c, 0, 44, 91
1, 188313, Note_on_c, 0, 32, 91
1, 188383, Note_on_c, 0, 101, 89
1, 188383, Note_on_c, 0, 89, 89
1, 188383, Note_on_c, 0, 32, 0
1, 188386, Note_on_c, 0, 44, 0
1, 188456, Note_on_c, 0, 89, 0
1, 188456, Note_on_c, 0, 101, 0
1, 188533, Control_c, 0, 64, 0
1, 188984, Note_on_c, 0, 68, 97
1, 188984, Note_on_c, 0, 59, 84
1, 188984, Note_on_c, 0, 62, 84
1, 188987, Note_on_c, 0, 53, 74
1, 188987, Note_on_c, 0, 41, 63
1, 189126, Note_on_c, 0, 62, 0
1, 189126, Note_on_c, 0, 59, 0
1, 189126, Note_on_c, 0, 68, 0
1, 189129, Note_on_c, 0, 41, 0
1, 189129, Note_on_c, 0, 53, 0
1, 189268, Note_on_c, 0, 69, 103
1, 189268, Note_on_c, 0, 57, 87
1, 189268, Note_on_c, 0, 60, 86
1, 189271, Note_on_c, 0, 51, 80
1, 189271, Note_on_c, 0, 39, 67
1, 189271, Control_c, 0, 64, 127
1, 189407, Note_on_c, 0, 60, 0
1, 189407, Note_on_c, 0, 57, 0
1, 189407, Note_on_c, 0, 69, 0
1, 189410, Note_on_c, 0, 39, 0
1, 189410, Note_on_c, 0, 51, 0
1, 189410, Note_on_c, 0, 54, 75
1, 189413, Note_on_c, 0, 42, 64
1, 189421, Control_c, 0, 64, 0
1, 189547, Note_on_c, 0, 80, 95
1, 189547, Note_on_c, 0, 68, 80
1, 189547, Note_on_c, 0, 42, 0
1, 189550, Note_on_c, 0, 54, 0
1, 189550, Note_on_c, 0, 57, 75
1, 189550, Note_on_c, 0, 45, 64
1, 189619, Note_on_c, 0, 68, 0
1, 189619, Note_on_c, 0, 80, 0
1, 189691, Note_on_c, 0, 83, 87
1, 189691, Note_on_c, 0, 71, 73
1, 189691, Note_on_c, 0, 45, 0
1, 189694, Note_on_c, 0, 57, 0
1, 189765, Note_on_c, 0, 71, 0
1, 189765, Note_on_c, 0, 83, 0
1, 189820, Control_c, 0, 64, 127
1, 189838, Note_on_c, 0, 81, 96
1, 189838, Note_on_c, 0, 69, 81
1, 189838, Note_on_c, 0, 73, 81
1, 189841, Note_on_c, 0, 49, 78
1, 189841, Note_on_c, 0, 37, 66
1, 189979, Note_on_c, 0, 73, 0
1, 189979, Note_on_c, 0, 69, 0
1, 189979, Note_on_c, 0, 81, 0
1, 189982, Note_on_c, 0, 37, 0
1, 189982, Note_on_c, 0, 49, 0
1, 189982, Note_on_c, 0, 54, 73
1, 189985, Note_on_c, 0, 42, 61
1, 189995, Control_c, 0, 64, 0
1, 190119, Note_on_c, 0, 92, 93
1, 190119, Note_on_c, 0, 80, 77
1, 190119, Note_on_c, 0, 42, 0
1, 190122, Note_on_c, 0, 54, 0
1, 190122, Note_on_c, 0, 57, 73
1, 190122, Note_on_c, 0, 45, 61
1, 190191, Note_on_c, 0, 80, 0
1, 190191, Note_on_c, 0, 92, 0
1, 190263, Note_on_c, 0, 95, 86
1, 190263, Note_on_c, 0, 83, 72
1, 190263, Note_on_c, 0, 45, 0
1, 190266, Note_on_c, 0, 57, 0
1, 190336, Note_on_c, 0, 83, 0
1, 190336, Note_on_c, 0, 95, 0
1, 190409, Note_on_c, 0, 87, 81
1, 190409, Note_on_c, 0, 93, 96
1, 190409, Note_on_c, 0, 81, 81
1, 190412, Note_on_c, 0, 48, 78
1, 190412, Note_on_c, 0, 36, 66
1, 190412, Control_c, 0, 64, 127
1, 190548, Note_on_c, 0, 81, 0
1, 190548, Note_on_c, 0, 93, 0
1, 190548, Note_on_c, 0, 87, 0
1, 190551, Note_on_c, 0, 36, 0
1, 190551, Note_on_c, 0, 48, 0
1, 190551, Note_on_c, 0, 54, 73
1, 190554, Note_on_c, 0, 42, 61
1, 190594, Control_c, 0, 64, 0
1, 190686, Note_on_c, 0, 80, 86
1, 190686, Note_on_c, 0, 68, 72
1, 190686, Note_on_c, 0, 42, 0
1, 190689, Note_on_c, 0, 54, 0
1, 190689, Note_on_c, 0, 57, 73
1, 190689, Note_on_c, 0, 45, 61
1, 190827, Note_on_c, 0, 68, 0
1, 190827, Note_on_c, 0, 80, 0
1, 190827, Note_on_c, 0, 45, 0
1, 190830, Note_on_c, 0, 57, 0
1, 190967, Note_on_c, 0, 75, 80
1, 190967, Note_on_c, 0, 81, 95
1, 190967, Note_on_c, 0, 69, 80
1, 190970, Note_on_c, 0, 47, 78
1, 190970, Note_on_c, 0, 35, 66
1, 191040, Control_c, 0, 64, 127
1, 191107, Note_on_c, 0, 35, 0
1, 191107, Note_on_c, 0, 47, 0
1, 191107, Note_on_c, 0, 51, 76
1, 191110, Note_on_c, 0, 39, 65
1, 191173, Control_c, 0, 64, 0
1, 191247, Note_on_c, 0, 39, 0
1, 191247, Note_on_c, 0, 51, 0
1, 191247, Note_on_c, 0, 54, 76
1, 191250, Note_on_c, 0, 42, 65
1, 191386, Note_on_c, 0, 42, 0
1, 191386, Note_on_c, 0, 54, 0
1, 191526, Note_on_c, 0, 69, 0
1, 191526, Note_on_c, 0, 81, 0
1, 191526, Note_on_c, 0, 75, 0
1, 191529, Note_on_c, 0, 66, 80
1, 191529, Note_on_c, 0, 69, 80
1, 191529, Note_on_c, 0, 57, 67
1, 191532, Note_on_c, 0, 61, 67
1, 191532, Note_on_c, 0, 45, 67
1, 191532, Note_on_c, 0, 33, 57
1, 191535, Control_c, 0, 64, 127
1, 191666, Note_on_c, 0, 61, 0
1, 191666, Note_on_c, 0, 66, 0
1, 191666, Note_on_c, 0, 69, 0
1, 191669, Note_on_c, 0, 57, 0
1, 191669, Note_on_c, 0, 68, 73
1, 191669, Note_on_c, 0, 56, 61
1, 191672, Note_on_c, 0, 33, 0
1, 191672, Note_on_c, 0, 45, 0
1, 191672, Note_on_c, 0, 49, 64
1, 191675, Note_on_c, 0, 37, 53
1, 191808, Note_on_c, 0, 56, 0
1, 191808, Note_on_c, 0, 68, 0
1, 191808, Note_on_c, 0, 69, 78
1, 191811, Note_on_c, 0, 57, 66
1, 191811, Note_on_c, 0, 37, 0
1, 191811, Note_on_c, 0, 49, 0
1, 191814, Note_on_c, 0, 54, 64
1, 191814, Note_on_c, 0, 42, 53
1, 191818, Control_c, 0, 64, 0
1, 191895, Control_c, 0, 64, 127
1, 191949, Note_on_c, 0, 57, 0
1, 191949, Note_on_c, 0, 69, 0
1, 191949, Note_on_c, 0, 71, 82
1, 191952, Note_on_c, 0, 59, 70
1, 191952, Note_on_c, 0, 42, 0
1, 191952, Note_on_c, 0, 54, 0
1, 192095, Note_on_c, 0, 59, 0
1, 192095, Note_on_c, 0, 71, 0
1, 192095, Note_on_c, 0, 72, 86
1, 192098, Note_on_c, 0, 60, 72
1, 192098, Note_on_c, 0, 63, 72
1, 192098, Note_on_c, 0, 66, 72
1, 192101, Note_on_c, 0, 44, 67
1, 192101, Note_on_c, 0, 32, 57
1, 192101, Control_c, 0, 64, 0
1, 192192, Control_c, 0, 64, 127
1, 192241, Note_on_c, 0, 32, 0
1, 192241, Note_on_c, 0, 44, 0
1, 192241, Note_on_c, 0, 48, 64
1, 192244, Note_on_c, 0, 36, 53
1, 192387, Note_on_c, 0, 36, 0
1, 192387, Note_on_c, 0, 48, 0
1, 192387, Note_on_c, 0, 51, 63
1, 192390, Note_on_c, 0, 39, 53
1, 192533, Note_on_c, 0, 39, 0
1, 192533, Note_on_c, 0, 51, 0
1, 192679, Note_on_c, 0, 66, 0
1, 192679, Note_on_c, 0, 72, 0
1, 192679, Note_on_c, 0, 60, 0
1, 192682, Note_on_c, 0, 63, 0
1, 192682, Note_on_c, 0, 96, 90
1, 192682, Note_on_c, 0, 84, 75
1, 192685, Note_on_c, 0, 87, 75
1, 192685, Note_on_c, 0, 43, 71
1, 192685, Note_on_c, 0, 31, 59
1, 192688, Control_c, 0, 64, 0
1, 192745, Control_c, 0, 64, 127
1, 192819, Note_on_c, 0, 87, 0
1, 192819, Note_on_c, 0, 84, 0
1, 192819, Note_on_c, 0, 96, 0
1, 192822, Note_on_c, 0, 95, 85
1, 192822, Note_on_c, 0, 83, 72
1, 192822, Note_on_c, 0, 31, 0
1, 192825, Note_on_c, 0, 43, 0
1, 192825, Note_on_c, 0, 48, 69
1, 192825, Note_on_c, 0, 36, 58
1, 192957, Note_on_c, 0, 83, 0
1, 192957, Note_on_c, 0, 95, 0
1, 192957, Note_on_c, 0, 93, 85
1, 192960, Note_on_c, 0, 81, 72
1, 192960, Note_on_c, 0, 36, 0
1, 192960, Note_on_c, 0, 48, 0
1, 192963, Note_on_c, 0, 51, 68
1, 192963, Note_on_c, 0, 39, 57
1, 192963, Control_c, 0, 64, 0
1, 193059, Control_c, 0, 64, 127
1, 193100, Note_on_c, 0, 81, 0
1, 193100, Note_on_c, 0, 93, 0
1, 193100, Note_on_c, 0, 92, 85
1, 193103, Note_on_c, 0, 80, 72
1, 193103, Note_on_c, 0, 39, 0
1, 193103, Note_on_c, 0, 51, 0
1, 193249, Note_on_c, 0, 80, 0
1, 193249, Note_on_c, 0, 92, 0
1, 193249, Note_on_c, 0, 93, 92
1, 193252, Note_on_c, 0, 87, 77
1, 193252, Note_on_c, 0, 81, 77
1, 193252, Note_on_c, 0, 42, 70
1, 193255, Note_on_c, 0, 30, 58
1, 193292, Control_c, 0, 64, 0
1, 193363, Control_c, 0, 64, 127
1, 193399, Note_on_c, 0, 30, 0
1, 193399, Note_on_c, 0, 42, 0
1, 193399, Note_on_c, 0, 45, 61
1, 193402, Note_on_c, 0, 33, 52
1, 193548, Note_on_c, 0, 33, 0
1, 193548, Note_on_c, 0, 45, 0
1, 193548, Note_on_c, 0, 36, 50
1, 193551, Note_on_c, 0, 48, 55
1, 193649, Control_c, 0, 64, 0
1, 193698, Note_on_c, 0, 81, 0
1, 193698, Note_on_c, 0, 87, 0
1, 193698, Note_on_c, 0, 93, 0
1, 193701, Note_on_c, 0, 72, 77
1, 193701, Note_on_c, 0, 60, 65
1, 193771, Note_on_c, 0, 60, 0
1, 193771, Note_on_c, 0, 72, 0
1, 193844, Note_on_c, 0, 71, 85
1, 193844, Note_on_c, 0, 59, 71
1, 193844, Note_on_c, 0, 48, 0
1, 193847, Note_on_c, 0, 36, 0
1, 193847, Note_on_c, 0, 47, 58
1, 193847, Note_on_c, 0, 35, 48
1, 193847, Control_c, 0, 64, 127
1, 193977, Note_on_c, 0, 59, 0
1, 193977, Note_on_c, 0, 71, 0
1, 193977, Note_on_c, 0, 69, 77
1, 193980, Note_on_c, 0, 57, 65
1, 193980, Note_on_c, 0, 35, 0
1, 193980, Note_on_c, 0, 47, 0
1, 193983, Note_on_c, 0, 45, 53
1, 193983, Note_on_c, 0, 33, 44
1, 194002, Control_c, 0, 64, 0
1, 194084, Note_on_c, 0, 57, 0
1, 194084, Note_on_c, 0, 69, 0
1, 194084, Note_on_c, 0, 33, 0
1, 194087, Note_on_c, 0, 45, 0
1, 194110, Note_on_c, 0, 67, 77
1, 194110, Note_on_c, 0, 55, 65
1, 194110, Note_on_c, 0, 43, 53
1, 194113, Note_on_c, 0, 31, 44
1, 194178, Note_on_c, 0, 55, 0
1, 194178, Note_on_c, 0, 67, 0
1, 194178, Note_on_c, 0, 31, 0
1, 194181, Note_on_c, 0, 43, 0
1, 194246, Note_on_c, 0, 71, 77
1, 194246, Note_on_c, 0, 59, 65
1, 194246, Note_on_c, 0, 47, 53
1, 194249, Note_on_c, 0, 35, 44
1, 194317, Note_on_c, 0, 59, 0
1, 194317, Note_on_c, 0, 71, 0
1, 194317, Note_on_c, 0, 35, 0
1, 194320, Note_on_c, 0, 47, 0
1, 194388, Note_on_c, 0, 69, 85
1, 194388, Note_on_c, 0, 57, 71
1, 194388, Note_on_c, 0, 45, 58
1, 194391, Note_on_c, 0, 33, 48
1, 194391, Control_c, 0, 64, 127
1, 194522, Note_on_c, 0, 57, 0
1, 194522, Note_on_c, 0, 69, 0
1, 194522, Note_on_c, 0, 67, 78
1, 194525, Note_on_c, 0, 55, 66
1, 194525, Note_on_c, 0, 33, 0
1, 194525, Note_on_c, 0, 45, 0
1, 194528, Note_on_c, 0, 43, 54
1, 194528, Note_on_c, 0, 31, 46
1, 194553, Control_c, 0, 64, 0
1, 194629, Note_on_c, 0, 55, 0
1, 194629, Note_on_c, 0, 67, 0
1, 194629, Note_on_c, 0, 31, 0
1, 194632, Note_on_c, 0, 43, 0
1, 194656, Note_on_c, 0, 65, 78
1, 194656, Note_on_c, 0, 53, 66
1, 194656, Note_on_c, 0, 41, 54
1, 194659, Note_on_c, 0, 29, 46
1, 194725, Note_on_c, 0, 53, 0
1, 194725, Note_on_c, 0, 65, 0
1, 194725, Note_on_c, 0, 29, 0
1, 194728, Note_on_c, 0, 41, 0
1, 194793, Note_on_c, 0, 69, 80
1, 194793, Note_on_c, 0, 57, 67
1, 194793, Note_on_c, 0, 45, 54
1, 194796, Note_on_c, 0, 33, 46
1, 194864, Note_on_c, 0, 57, 0
1, 194864, Note_on_c, 0, 69, 0
1, 194864, Note_on_c, 0, 33, 0
1, 194867, Note_on_c, 0, 45, 0
1, 194935, Note_on_c, 0, 67, 89
1, 194935, Note_on_c, 0, 55, 75
1, 194935, Note_on_c, 0, 43, 60
1, 194938, Note_on_c, 0, 31, 52
1, 194941, Control_c, 0, 64, 127
1, 195069, Note_on_c, 0, 55, 0
1, 195069, Note_on_c, 0, 67, 0
1, 195069, Note_on_c, 0, 65, 80
1, 195072, Note_on_c, 0, 53, 67
1, 195072, Note_on_c, 0, 31, 0
1, 195072, Note_on_c, 0, 43, 0
1, 195075, Note_on_c, 0, 41, 54
1, 195075, Note_on_c, 0, 29, 46
1, 195115, Control_c, 0, 64, 0
1, 195175, Note_on_c, 0, 53, 0
1, 195175, Note_on_c, 0, 65, 0
1, 195175, Note_on_c, 0, 29, 0
1, 195178, Note_on_c, 0, 41, 0
1, 195202, Note_on_c, 0, 64, 80
1, 195202, Note_on_c, 0, 52, 67
1, 195202, Note_on_c, 0, 40, 54
1, 195205, Note_on_c, 0, 28, 46
1, 195270, Note_on_c, 0, 52, 0
1, 195270, Note_on_c, 0, 64, 0
1, 195270, Note_on_c, 0, 28, 0
1, 195273, Note_on_c, 0, 40, 0
1, 195338, Note_on_c, 0, 67, 80
1, 195338, Note_on_c, 0, 55, 67
1, 195338, Note_on_c, 0, 43, 54
1, 195341, Note_on_c, 0, 31, 46
1, 195409, Note_on_c, 0, 55, 0
1, 195409, Note_on_c, 0, 67, 0
1, 195409, Note_on_c, 0, 31, 0
1, 195412, Note_on_c, 0, 43, 0
1, 195480, Note_on_c, 0, 65, 90
1, 195480, Note_on_c, 0, 53, 76
1, 195480, Note_on_c, 0, 41, 63
1, 195483, Note_on_c, 0, 29, 52
1, 195488, Control_c, 0, 64, 127
1, 195613, Note_on_c, 0, 53, 0
1, 195613, Note_on_c, 0, 65, 0
1, 195613, Note_on_c, 0, 64, 80
1, 195616, Note_on_c, 0, 52, 67
1, 195616, Note_on_c, 0, 29, 0
1, 195616, Note_on_c, 0, 41, 0
1, 195619, Note_on_c, 0, 40, 54
1, 195619, Note_on_c, 0, 28, 46
1, 195644, Control_c, 0, 64, 0
1, 195720, Note_on_c, 0, 52, 0
1, 195720, Note_on_c, 0, 64, 0
1, 195720, Note_on_c, 0, 28, 0
1, 195723, Note_on_c, 0, 40, 0
1, 195747, Note_on_c, 0, 63, 80
1, 195747, Note_on_c, 0, 51, 67
1, 195747, Note_on_c, 0, 39, 54
1, 195750, Note_on_c, 0, 27, 46
1, 195815, Note_on_c, 0, 51, 0
1, 195815, Note_on_c, 0, 63, 0
1, 195815, Note_on_c, 0, 27, 0
1, 195818, Note_on_c, 0, 39, 0
1, 195883, Note_on_c, 0, 65, 80
1, 195883, Note_on_c, 0, 53, 67
1, 195883, Note_on_c, 0, 41, 54
1, 195886, Note_on_c, 0, 29, 46
1, 195955, Note_on_c, 0, 53, 0
1, 195955, Note_on_c, 0, 65, 0
1, 195955, Note_on_c, 0, 29, 0
1, 195958, Note_on_c, 0, 41, 0
1, 196026, Note_on_c, 0, 65, 89
1, 196026, Note_on_c, 0, 53, 75
1, 196026, Note_on_c, 0, 41, 60
1, 196029, Note_on_c, 0, 29, 52
1, 196036, Control_c, 0, 64, 127
1, 196164, Note_on_c, 0, 53, 0
1, 196164, Note_on_c, 0, 65, 0
1, 196164, Note_on_c, 0, 64, 80
1, 196167, Note_on_c, 0, 52, 67
1, 196167, Note_on_c, 0, 29, 0
1, 196167, Note_on_c, 0, 41, 0
1, 196170, Note_on_c, 0, 40, 54
1, 196170, Note_on_c, 0, 28, 46
1, 196196, Control_c, 0, 64, 0
1, 196274, Note_on_c, 0, 52, 0
1, 196274, Note_on_c, 0, 64, 0
1, 196274, Note_on_c, 0, 28, 0
1, 196277, Note_on_c, 0, 40, 0
1, 196301, Note_on_c, 0, 64, 80
1, 196301, Note_on_c, 0, 52, 67
1, 196301, Note_on_c, 0, 40, 54
1, 196304, Note_on_c, 0, 28, 46
1, 196372, Note_on_c, 0, 52, 0
1, 196372, Note_on_c, 0, 64, 0
1, 196372, Note_on_c, 0, 28, 0
1, 196375, Note_on_c, 0, 40, 0
1, 196443, Note_on_c, 0, 63, 80
1, 196443, Note_on_c, 0, 51, 67
1, 196443, Note_on_c, 0, 39, 54
1, 196446, Note_on_c, 0, 27, 46
1, 196517, Note_on_c, 0, 51, 0
1, 196517, Note_on_c, 0, 63, 0
1, 196517, Note_on_c, 0, 27, 0
1, 196520, Note_on_c, 0, 39, 0
1, 196591, Note_on_c, 0, 65, 92
1, 196591, Note_on_c, 0, 53, 77
1, 196591, Note_on_c, 0, 41, 64
1, 196594, Note_on_c, 0, 29, 53
1, 196605, Control_c, 0, 64, 127
1, 196734, Note_on_c, 0, 53, 0
1, 196734, Note_on_c, 0, 65, 0
1, 196734, Note_on_c, 0, 64, 80
1, 196737, Note_on_c, 0, 52, 67
1, 196737, Note_on_c, 0, 29, 0
1, 196737, Note_on_c, 0, 41, 0
1, 196740, Note_on_c, 0, 40, 54
1, 196740, Note_on_c, 0, 28, 46
1, 196776, Control_c, 0, 64, 0
1, 196849, Note_on_c, 0, 52, 0
1, 196849, Note_on_c, 0, 64, 0
1, 196849, Note_on_c, 0, 28, 0
1, 196852, Note_on_c, 0, 40, 0
1, 196877, Note_on_c, 0, 64, 80
1, 196877, Note_on_c, 0, 52, 67
1, 196877, Note_on_c, 0, 40, 54
1, 196880, Note_on_c, 0, 28, 46
1, 196949, Note_on_c, 0, 52, 0
1, 196949, Note_on_c, 0, 64, 0
1, 196949, Note_on_c, 0, 28, 0
1, 196952, Note_on_c, 0, 40, 0
1, 197020, Note_on_c, 0, 63, 80
1, 197020, Note_on_c, 0, 51, 67
1, 197020, Note_on_c, 0, 39, 54
1, 197023, Note_on_c, 0, 27, 46
1, 197097, Note_on_c, 0, 51, 0
1, 197097, Note_on_c, 0, 63, 0
1, 197097, Note_on_c, 0, 27, 0
1, 197100, Note_on_c, 0, 39, 0
1, 197174, Note_on_c, 0, 64, 97
1, 197174, Note_on_c, 0, 52, 82
1, 197174, Note_on_c, 0, 40, 67
1, 197177, Note_on_c, 0, 28, 57
1, 197262, Control_c, 0, 64, 127
1, 197746, Note_on_c, 0, 52, 0
1, 197746, Note_on_c, 0, 64, 0
1, 197746, Note_on_c, 0, 76, 94
1, 197749, Note_on_c, 0, 71, 78
1, 197749, Note_on_c, 0, 68, 78
1, 197749, Note_on_c, 0, 64, 78
1, 197752, Note_on_c, 0, 28, 0
1, 197752, Note_on_c, 0, 40, 0
1, 197752, Note_on_c, 0, 52, 65
1, 197755, Note_on_c, 0, 47, 54
1, 197755, Note_on_c, 0, 44, 54
1, 197755, Note_on_c, 0, 40, 54
1, 197889, Note_on_c, 0, 64, 0
1, 197889, Note_on_c, 0, 76, 0
1, 197889, Note_on_c, 0, 71, 0
1, 197892, Note_on_c, 0, 68, 0
1, 197892, Note_on_c, 0, 40, 0
1, 197892, Note_on_c, 0, 52, 0
1, 197895, Note_on_c, 0, 47, 0
1, 197895, Note_on_c, 0, 44, 0
1, 197943, Control_c, 0, 64, 0
1, 198032, Note_on_c, 0, 76, 86
1, 198032, Note_on_c, 0, 52, 76
1, 198126, Note_on_c, 0, 76, 0
1, 198126, Note_on_c, 0, 78, 89
1, 198126, Note_on_c, 0, 52, 0
1, 198129, Note_on_c, 0, 54, 81
1, 198220, Note_on_c, 0, 78, 0
1, 198220, Note_on_c, 0, 80, 92
1, 198220, Note_on_c, 0, 54, 0
1, 198223, Note_on_c, 0, 56, 86
1, 198314, Note_on_c, 0, 80, 0
1, 198314, Note_on_c, 0, 81, 103
1, 198314, Note_on_c, 0, 69, 87
1, 198317, Note_on_c, 0, 56, 0
1, 198317, Note_on_c, 0, 57, 80
1, 198317, Note_on_c, 0, 45, 67
1, 198455, Note_on_c, 0, 69, 0
1, 198455, Note_on_c, 0, 81, 0
1, 198455, Note_on_c, 0, 45, 0
1, 198458, Note_on_c, 0, 57, 0
1, 198595, Note_on_c, 0, 71, 72
1, 198595, Note_on_c, 0, 80, 85
1, 198595, Note_on_c, 0, 68, 72
1, 198598, Note_on_c, 0, 53, 64
1, 198598, Note_on_c, 0, 41, 53
1, 198663, Note_on_c, 0, 68, 0
1, 198663, Note_on_c, 0, 80, 0
1, 198663, Note_on_c, 0, 71, 0
1, 198730, Note_on_c, 0, 74, 65
1, 198730, Note_on_c, 0, 83, 77
1, 198730, Note_on_c, 0, 71, 65
1, 198733, Note_on_c, 0, 41, 0
1, 198733, Note_on_c, 0, 53, 0
1, 198804, Note_on_c, 0, 71, 0
1, 198804, Note_on_c, 0, 83, 0
1, 198804, Note_on_c, 0, 74, 0
1, 198877, Note_on_c, 0, 81, 96
1, 198877, Note_on_c, 0, 69, 81
1, 198877, Note_on_c, 0, 72, 81
1, 198880, Note_on_c, 0, 57, 80
1, 198880, Note_on_c, 0, 45, 67
1, 199017, Note_on_c, 0, 72, 0
1, 199017, Note_on_c, 0, 69, 0
1, 199017, Note_on_c, 0, 81, 0
1, 199020, Note_on_c, 0, 45, 0
1, 199020, Note_on_c, 0, 57, 0
1, 199158, Note_on_c, 0, 71, 70
1, 199158, Note_on_c, 0, 80, 82
1, 199158, Note_on_c, 0, 68, 70
1, 199161, Note_on_c, 0, 52, 64
1, 199161, Note_on_c, 0, 40, 53
1, 199226, Note_on_c, 0, 68, 0
1, 199226, Note_on_c, 0, 80, 0
1, 199226, Note_on_c, 0, 71, 0
1, 199293, Note_on_c, 0, 74, 64
1, 199293, Note_on_c, 0, 83, 76
1, 199293, Note_on_c, 0, 71, 64
1, 199296, Note_on_c, 0, 40, 0
1, 199296, Note_on_c, 0, 52, 0
1, 199367, Note_on_c, 0, 71, 0
1, 199367, Note_on_c, 0, 83, 0
1, 199367, Note_on_c, 0, 74, 0
1, 199441, Note_on_c, 0, 72, 81
1, 199441, Note_on_c, 0, 81, 96
1, 199441, Note_on_c, 0, 69, 81
1, 199444, Note_on_c, 0, 57, 80
1, 199444, Note_on_c, 0, 45, 67
1, 199513, Note_on_c, 0, 69, 0
1, 199513, Note_on_c, 0, 81, 0
1, 199513, Note_on_c, 0, 72, 0
1, 199516, Note_on_c, 0, 45, 0
1, 199516, Note_on_c, 0, 57, 0
1, 199729, Note_on_c, 0, 71, 64
1, 199729, Note_on_c, 0, 80, 76
1, 199729, Note_on_c, 0, 68, 64
1, 199732, Note_on_c, 0, 50, 64
1, 199732, Note_on_c, 0, 38, 53
1, 199732, Note_on_c, 0, 41, 53
1, 199801, Note_on_c, 0, 68, 0
1, 199801, Note_on_c, 0, 80, 0
1, 199801, Note_on_c, 0, 71, 0
1, 199804, Note_on_c, 0, 41, 0
1, 199804, Note_on_c, 0, 38, 0
1, 199804, Note_on_c, 0, 50, 0
1, 200019, Note_on_c, 0, 72, 80
1, 200019, Note_on_c, 0, 81, 95
1, 200019, Note_on_c, 0, 69, 80
1, 200022, Note_on_c, 0, 57, 80
1, 200022, Note_on_c, 0, 45, 67
1, 200022, Note_on_c, 0, 52, 67
1, 200522, Note_on_c, 0, 36, 63
1, 200558, Note_on_c, 0, 36, 0
1, 200558, Note_on_c, 0, 48, 74
1, 200594, Note_on_c, 0, 69, 0
1, 200594, Note_on_c, 0, 81, 0
1, 200594, Note_on_c, 0, 72, 0
1, 200597, Note_on_c, 0, 89, 80
1, 200597, Note_on_c, 0, 93, 86
1, 200597, Note_on_c, 0, 81, 67
1, 200600, Note_on_c, 0, 84, 67
1, 200600, Note_on_c, 0, 48, 0
1, 200600, Note_on_c, 0, 52, 0
1, 200603, Note_on_c, 0, 45, 0
1, 200603, Note_on_c, 0, 57, 0
1, 200603, Note_on_c, 0, 69, 74
1, 200606, Note_on_c, 0, 57, 63
1, 200606, Note_on_c, 0, 60, 63
1, 200606, Note_on_c, 0, 65, 63
1, 200611, Control_c, 0, 64, 127
1, 200736, Note_on_c, 0, 84, 0
1, 200736, Note_on_c, 0, 89, 0
1, 200736, Note_on_c, 0, 93, 0
1, 200739, Note_on_c, 0, 81, 0
1, 200739, Note_on_c, 0, 92, 73
1, 200739, Note_on_c, 0, 80, 61
1, 200874, Note_on_c, 0, 80, 0
1, 200874, Note_on_c, 0, 92, 0
1, 200874, Note_on_c, 0, 93, 78
1, 200877, Note_on_c, 0, 81, 66
1, 201012, Note_on_c, 0, 81, 0
1, 201012, Note_on_c, 0, 93, 0
1, 201012, Note_on_c, 0, 95, 82
1, 201015, Note_on_c, 0, 83, 70
1, 201085, Note_on_c, 0, 65, 0
1, 201085, Note_on_c, 0, 69, 0
1, 201085, Note_on_c, 0, 57, 0
1, 201088, Note_on_c, 0, 60, 0
1, 201088, Note_on_c, 0, 36, 64
1, 201122, Note_on_c, 0, 36, 0
1, 201122, Note_on_c, 0, 48, 64
1, 201159, Note_on_c, 0, 83, 0
1, 201159, Note_on_c, 0, 95, 0
1, 201159, Note_on_c, 0, 96, 91
1, 201162, Note_on_c, 0, 84, 72
1, 201162, Note_on_c, 0, 88, 72
1, 201162, Note_on_c, 0, 48, 0
1, 201165, Note_on_c, 0, 72, 78
1, 201165, Note_on_c, 0, 60, 66
1, 201165, Note_on_c, 0, 64, 66
1, 201168, Note_on_c, 0, 67, 66
1, 201174, Control_c, 0, 64, 0
1, 201215, Control_c, 0, 64, 127
1, 201674, Note_on_c, 0, 67, 0
1, 201674, Note_on_c, 0, 72, 0
1, 201674, Note_on_c, 0, 60, 0
1, 201677, Note_on_c, 0, 64, 0
1, 201677, Note_on_c, 0, 33, 66
1, 201711, Note_on_c, 0, 33, 0
1, 201711, Note_on_c, 0, 45, 66
1, 201748, Note_on_c, 0, 88, 0
1, 201748, Note_on_c, 0, 84, 0
1, 201748, Note_on_c, 0, 96, 0
1, 201751, Note_on_c, 0, 96, 91
1, 201751, Note_on_c, 0, 84, 72
1, 201751, Note_on_c, 0, 89, 72
1, 201754, Note_on_c, 0, 45, 0
1, 201754, Note_on_c, 0, 65, 71
1, 201754, Note_on_c, 0, 53, 59
1, 201757, Note_on_c, 0, 62, 59
1, 201757, Note_on_c, 0, 57, 59
1, 201769, Control_c, 0, 64, 0
1, 201794, Control_c, 0, 64, 127
1, 201890, Note_on_c, 0, 89, 0
1, 201890, Note_on_c, 0, 84, 0
1, 201890, Note_on_c, 0, 96, 0
1, 201893, Note_on_c, 0, 95, 81
1, 201893, Note_on_c, 0, 83, 69
1, 202028, Note_on_c, 0, 83, 0
1, 202028, Note_on_c, 0, 95, 0
1, 202028, Note_on_c, 0, 93, 81
1, 202031, Note_on_c, 0, 81, 69
1, 202170, Note_on_c, 0, 81, 0
1, 202170, Note_on_c, 0, 93, 0
1, 202170, Note_on_c, 0, 92, 81
1, 202173, Note_on_c, 0, 80, 69
1, 202244, Note_on_c, 0, 57, 0
1, 202244, Note_on_c, 0, 65, 0
1, 202244, Note_on_c, 0, 53, 0
1, 202247, Note_on_c, 0, 62, 0
1, 202247, Note_on_c, 0, 33, 64
1, 202280, Note_on_c, 0, 33, 0
1, 202280, Note_on_c, 0, 45, 64
1, 202317, Note_on_c, 0, 80, 0
1, 202317, Note_on_c, 0, 92, 0
1, 202317, Note_on_c, 0, 84, 74
1, 202320, Note_on_c, 0, 93, 93
1, 202320, Note_on_c, 0, 88, 74
1, 202320, Note_on_c, 0, 81, 74
1, 202323, Note_on_c, 0, 45, 0
1, 202323, Note_on_c, 0, 69, 71
1, 202323, Note_on_c, 0, 57, 59
1, 202326, Note_on_c, 0, 60, 59
1, 202326, Note_on_c, 0, 64, 59
1, 202347, Control_c, 0, 64, 0
1, 202376, Control_c, 0, 64, 127
1, 202737, Control_c, 0, 64, 0
1, 202759, Note_on_c, 0, 81, 0
1, 202759, Note_on_c, 0, 84, 0
1, 202759, Note_on_c, 0, 93, 0
1, 202762, Note_on_c, 0, 88, 0
1, 202762, Note_on_c, 0, 96, 77
1, 202762, Note_on_c, 0, 84, 65
1, 202831, Note_on_c, 0, 84, 0
1, 202831, Note_on_c, 0, 96, 0
1, 202902, Note_on_c, 0, 95, 85
1, 202902, Note_on_c, 0, 83, 71
1, 202902, Note_on_c, 0, 64, 0
1, 202905, Note_on_c, 0, 69, 0
1, 202905, Note_on_c, 0, 57, 0
1, 202905, Note_on_c, 0, 60, 0
1, 202908, Note_on_c, 0, 47, 75
1, 202908, Note_on_c, 0, 35, 64
1, 202908, Control_c, 0, 64, 127
1, 203041, Note_on_c, 0, 83, 0
1, 203041, Note_on_c, 0, 95, 0
1, 203041, Note_on_c, 0, 93, 77
1, 203044, Note_on_c, 0, 81, 65
1, 203044, Note_on_c, 0, 35, 0
1, 203044, Note_on_c, 0, 47, 0
1, 203055, Control_c, 0, 64, 0
1, 203150, Note_on_c, 0, 81, 0
1, 203150, Note_on_c, 0, 93, 0
1, 203177, Note_on_c, 0, 92, 77
1, 203177, Note_on_c, 0, 80, 65
1, 203177, Note_on_c, 0, 68, 65
1, 203180, Note_on_c, 0, 59, 54
1, 203180, Note_on_c, 0, 64, 54
1, 203243, Note_on_c, 0, 80, 0
1, 203243, Note_on_c, 0, 92, 0
1, 203309, Note_on_c, 0, 95, 77
1, 203309, Note_on_c, 0, 83, 65
1, 203309, Note_on_c, 0, 64, 0
1, 203312, Note_on_c, 0, 59, 0
1, 203312, Note_on_c, 0, 68, 0
1, 203378, Note_on_c, 0, 83, 0
1, 203378, Note_on_c, 0, 95, 0
1, 203447, Note_on_c, 0, 93, 85
1, 203447, Note_on_c, 0, 81, 71
1, 203447, Note_on_c, 0, 47, 72
1, 203450, Control_c, 0, 64, 127
1, 203587, Note_on_c, 0, 81, 0
1, 203587, Note_on_c, 0, 93, 0
1, 203587, Note_on_c, 0, 85, 78
1, 203590, Note_on_c, 0, 73, 66
1, 203590, Note_on_c, 0, 47, 0
1, 203602, Control_c, 0, 64, 0
1, 203693, Note_on_c, 0, 73, 0
1, 203693, Note_on_c, 0, 85, 0
1, 203720, Note_on_c, 0, 90, 78
1, 203720, Note_on_c, 0, 78, 66
1, 203720, Note_on_c, 0, 69, 67
1, 203723, Note_on_c, 0, 66, 57
1, 203723, Note_on_c, 0, 61, 57
1, 203786, Note_on_c, 0, 78, 0
1, 203786, Note_on_c, 0, 90, 0
1, 203851, Note_on_c, 0, 93, 80
1, 203851, Note_on_c, 0, 81, 67
1, 203851, Note_on_c, 0, 61, 0
1, 203854, Note_on_c, 0, 66, 0
1, 203854, Note_on_c, 0, 69, 0
1, 203920, Note_on_c, 0, 81, 0
1, 203920, Note_on_c, 0, 93, 0
1, 203990, Note_on_c, 0, 92, 89
1, 203990, Note_on_c, 0, 80, 75
1, 203990, Note_on_c, 0, 47, 72
1, 203993, Control_c, 0, 64, 127
1, 204123, Note_on_c, 0, 80, 0
1, 204123, Note_on_c, 0, 92, 0
1, 204123, Note_on_c, 0, 90, 80
1, 204126, Note_on_c, 0, 78, 67
1, 204126, Note_on_c, 0, 47, 0
1, 204168, Control_c, 0, 64, 0
1, 204231, Note_on_c, 0, 78, 0
1, 204231, Note_on_c, 0, 90, 0
1, 204257, Note_on_c, 0, 88, 80
1, 204257, Note_on_c, 0, 76, 67
1, 204257, Note_on_c, 0, 68, 64
1, 204260, Note_on_c, 0, 64, 53
1, 204260, Note_on_c, 0, 59, 53
1, 204324, Note_on_c, 0, 76, 0
1, 204324, Note_on_c, 0, 88, 0
1, 204391, Note_on_c, 0, 92, 80
1, 204391, Note_on_c, 0, 80, 67
1, 204391, Note_on_c, 0, 59, 0
1, 204394, Note_on_c, 0, 64, 0
1, 204394, Note_on_c, 0, 68, 0
1, 204462, Note_on_c, 0, 80, 0
1, 204462, Note_on_c, 0, 92, 0
1, 204533, Note_on_c, 0, 90, 90
1, 204533, Note_on_c, 0, 78, 76
1, 204533, Note_on_c, 0, 47, 72
1, 204537, Control_c, 0, 64, 127
1, 204667, Note_on_c, 0, 78, 0
1, 204667, Note_on_c, 0, 90, 0
1, 204667, Note_on_c, 0, 88, 80
1, 204670, Note_on_c, 0, 76, 67
1, 204670, Note_on_c, 0, 47, 0
1, 204706, Control_c, 0, 64, 0
1, 204774, Note_on_c, 0, 76, 0
1, 204774, Note_on_c, 0, 88, 0
1, 204801, Note_on_c, 0, 87, 80
1, 204801, Note_on_c, 0, 75, 67
1, 204801, Note_on_c, 0, 66, 61
1, 204804, Note_on_c, 0, 63, 51
1, 204804, Note_on_c, 0, 57, 51
1, 204869, Note_on_c, 0, 75, 0
1, 204869, Note_on_c, 0, 87, 0
1, 204936, Note_on_c, 0, 90, 80
1, 204936, Note_on_c, 0, 78, 67
1, 204936, Note_on_c, 0, 57, 0
1, 204939, Note_on_c, 0, 63, 0
1, 204939, Note_on_c, 0, 66, 0
1, 205006, Note_on_c, 0, 78, 0
1, 205006, Note_on_c, 0, 90, 0
1, 205077, Note_on_c, 0, 90, 89
1, 205077, Note_on_c, 0, 78, 75
1, 205077, Note_on_c, 0, 64, 72
1, 205080, Note_on_c, 0, 59, 60
1, 205080, Note_on_c, 0, 56, 60
1, 205080, Note_on_c, 0, 52, 60
1, 205080, Control_c, 0, 64, 127
1, 205211, Note_on_c, 0, 78, 0
1, 205211, Note_on_c, 0, 90, 0
1, 205211, Note_on_c, 0, 88, 80
1, 205214, Note_on_c, 0, 76, 67
1, 205214, Note_on_c, 0, 52, 0
1, 205214, Note_on_c, 0, 64, 0
1, 205217, Note_on_c, 0, 59, 0
1, 205217, Note_on_c, 0, 56, 0
1, 205233, Control_c, 0, 64, 0
1, 205320, Note_on_c, 0, 76, 0
1, 205320, Note_on_c, 0, 88, 0
1, 205348, Note_on_c, 0, 88, 80
1, 205348, Note_on_c, 0, 76, 67
1, 205348, Note_on_c, 0, 66, 61
1, 205351, Note_on_c, 0, 60, 51
1, 205351, Note_on_c, 0, 57, 51
1, 205417, Note_on_c, 0, 76, 0
1, 205417, Note_on_c, 0, 88, 0
1, 205487, Note_on_c, 0, 87, 80
1, 205487, Note_on_c, 0, 75, 67
1, 205487, Note_on_c, 0, 57, 0
1, 205490, Note_on_c, 0, 60, 0
1, 205490, Note_on_c, 0, 66, 0
1, 205559, Note_on_c, 0, 75, 0
1, 205559, Note_on_c, 0, 87, 0
1, 205632, Note_on_c, 0, 90, 92
1, 205632, Note_on_c, 0, 78, 77
1, 205632, Note_on_c, 0, 64, 71
1, 205635, Note_on_c, 0, 59, 59
1, 205635, Note_on_c, 0, 56, 59
1, 205635, Note_on_c, 0, 52, 59
1, 205638, Control_c, 0, 64, 127
1, 205771, Note_on_c, 0, 78, 0
1, 205771, Note_on_c, 0, 90, 0
1, 205771, Note_on_c, 0, 88, 80
1, 205774, Note_on_c, 0, 76, 67
1, 205774, Note_on_c, 0, 52, 0
1, 205774, Note_on_c, 0, 64, 0
1, 205777, Note_on_c, 0, 59, 0
1, 205777, Note_on_c, 0, 56, 0
1, 205777, Control_c, 0, 64, 0
1, 205884, Note_on_c, 0, 76, 0
1, 205884, Note_on_c, 0, 88, 0
1, 205912, Note_on_c, 0, 88, 80
1, 205912, Note_on_c, 0, 76, 67
1, 205912, Note_on_c, 0, 66, 64
1, 205915, Note_on_c, 0, 60, 53
1, 205915, Note_on_c, 0, 57, 53
1, 205983, Note_on_c, 0, 76, 0
1, 205983, Note_on_c, 0, 88, 0
1, 206053, Note_on_c, 0, 87, 80
1, 206053, Note_on_c, 0, 75, 67
1, 206053, Note_on_c, 0, 57, 0
1, 206056, Note_on_c, 0, 60, 0
1, 206056, Note_on_c, 0, 66, 0
1, 206129, Note_on_c, 0, 75, 0
1, 206129, Note_on_c, 0, 87, 0
1, 206204, Note_on_c, 0, 83, 82
1, 206204, Note_on_c, 0, 80, 82
1, 206204, Note_on_c, 0, 88, 97
1, 206207, Note_on_c, 0, 76, 82
1, 206207, Note_on_c, 0, 64, 75
1, 206207, Note_on_c, 0, 59, 64
1, 206210, Note_on_c, 0, 56, 64
1, 206210, Note_on_c, 0, 52, 64
1, 206210, Control_c, 0, 64, 127
1, 206785, Note_on_c, 0, 76, 0
1, 206785, Note_on_c, 0, 83, 0
1, 206785, Note_on_c, 0, 80, 0
1, 206788, Note_on_c, 0, 88, 0
1, 206788, Note_on_c, 0, 100, 94
1, 206788, Note_on_c, 0, 95, 78
1, 206791, Note_on_c, 0, 92, 78
1, 206791, Note_on_c, 0, 88, 78
1, 206791, Note_on_c, 0, 52, 0
1, 206794, Note_on_c, 0, 64, 0
1, 206794, Note_on_c, 0, 59, 0
1, 206794, Note_on_c, 0, 56, 0
1, 206797, Note_on_c, 0, 52, 73
1, 206797, Note_on_c, 0, 40, 61
1, 206797, Note_on_c, 0, 44, 61
1, 206800, Note_on_c, 0, 47, 61
1, 206930, Note_on_c, 0, 88, 0
1, 206930, Note_on_c, 0, 100, 0
1, 206930, Note_on_c, 0, 95, 0
1, 206933, Note_on_c, 0, 92, 0
1, 206933, Note_on_c, 0, 47, 0
1, 206933, Note_on_c, 0, 52, 0
1, 206936, Note_on_c, 0, 40, 0
1, 206936, Note_on_c, 0, 44, 0
1, 206957, Control_c, 0, 64, 0
1, 207293, Note_on_c, 0, 76, 87
1, 207293, Note_on_c, 0, 64, 73
1, 207293, Note_on_c, 0, 68, 73
1, 207296, Note_on_c, 0, 71, 73
1, 207296, Note_on_c, 0, 52, 50
1, 207296, Note_on_c, 0, 56, 50
1, 207299, Note_on_c, 0, 59, 59
1, 207366, Note_on_c, 0, 71, 0
1, 207366, Note_on_c, 0, 76, 0
1, 207366, Note_on_c, 0, 64, 0
1, 207369, Note_on_c, 0, 68, 0
1, 207369, Note_on_c, 0, 76, 95
1, 207369, Note_on_c, 0, 64, 79
1, 207372, Note_on_c, 0, 68, 79
1, 207372, Note_on_c, 0, 71, 79
1, 207372, Note_on_c, 0, 59, 0
1, 207375, Note_on_c, 0, 56, 0
1, 207375, Note_on_c, 0, 52, 0
1, 207375, Note_on_c, 0, 52, 55
1, 207378, Note_on_c, 0, 56, 55
1, 207378, Note_on_c, 0, 59, 66
1, 207503, Note_on_c, 0, 71, 0
1, 207503, Note_on_c, 0, 76, 0
1, 207503, Note_on_c, 0, 64, 0
1, 207506, Note_on_c, 0, 68, 0
1, 207506, Note_on_c, 0, 59, 0
1, 207506, Note_on_c, 0, 56, 0
1, 207509, Note_on_c, 0, 52, 0
1, 207917, Note_on_c, 0, 68, 73
1, 207917, Note_on_c, 0, 73, 73
1, 207917, Note_on_c, 0, 80, 87
1, 207920, Note_on_c, 0, 76, 73
1, 207920, Note_on_c, 0, 49, 74
1, 207920, Note_on_c, 0, 52, 74
1, 207923, Note_on_c, 0, 56, 74
1, 207923, Note_on_c, 0, 61, 74
1, 208059, Note_on_c, 0, 76, 0
1, 208059, Note_on_c, 0, 68, 0
1, 208059, Note_on_c, 0, 73, 0
1, 208062, Note_on_c, 0, 80, 0
1, 208062, Note_on_c, 0, 61, 0
1, 208062, Note_on_c, 0, 49, 0
1, 208065, Note_on_c, 0, 52, 0
1, 208065, Note_on_c, 0, 56, 0
1, 208486, Note_on_c, 0, 71, 79
1, 208486, Note_on_c, 0, 83, 95
1, 208486, Note_on_c, 0, 75, 79
1, 208489, Note_on_c, 0, 80, 79
1, 208489, Note_on_c, 0, 56, 74
1, 208489, Note_on_c, 0, 44, 61
1, 208492, Note_on_c, 0, 51, 61
1, 208500, Control_c, 0, 64, 127
1, 209316, Control_c, 0, 64, 0
1, 209337, Note_on_c, 0, 80, 0
1, 209337, Note_on_c, 0, 71, 0
1, 209337, Note_on_c, 0, 83, 0
1, 209340, Note_on_c, 0, 75, 0
1, 209340, Note_on_c, 0, 71, 79
1, 209340, Note_on_c, 0, 76, 79
1, 209343, Note_on_c, 0, 80, 79
1, 209343, Note_on_c, 0, 83, 95
1, 209343, Note_on_c, 0, 51, 0
1, 209346, Note_on_c, 0, 44, 0
1, 209346, Note_on_c, 0, 56, 0
1, 209346, Note_on_c, 0, 49, 63
1, 209349, Note_on_c, 0, 37, 52
1, 209381, Control_c, 0, 64, 127
1, 209403, Note_on_c, 0, 37, 0
1, 209403, Note_on_c, 0, 49, 0
1, 209535, Note_on_c, 0, 83, 0
1, 209535, Note_on_c, 0, 71, 0
1, 209535, Note_on_c, 0, 76, 0
1, 209538, Note_on_c, 0, 80, 0
1, 209538, Note_on_c, 0, 88, 87
1, 209538, Note_on_c, 0, 76, 73
1, 209598, Note_on_c, 0, 76, 0
1, 209598, Note_on_c, 0, 88, 0
1, 209598, Note_on_c, 0, 71, 79
1, 209601, Note_on_c, 0, 80, 95
1, 209601, Note_on_c, 0, 83, 95
1, 209601, Note_on_c, 0, 75, 79
1, 209604, Note_on_c, 0, 44, 71
1, 209604, Note_on_c, 0, 56, 71
1, 209604, Control_c, 0, 64, 0
1, 209738, Note_on_c, 0, 75, 0
1, 209738, Note_on_c, 0, 71, 0
1, 209738, Note_on_c, 0, 80, 0
1, 209741, Note_on_c, 0, 83, 0
1, 209741, Note_on_c, 0, 56, 0
1, 209741, Note_on_c, 0, 44, 0
1, 209879, Note_on_c, 0, 80, 79
1, 209879, Note_on_c, 0, 71, 79
1, 209879, Note_on_c, 0, 76, 79
1, 209882, Note_on_c, 0, 83, 95
1, 209882, Note_on_c, 0, 61, 63
1, 209882, Note_on_c, 0, 49, 52
1, 209903, Control_c, 0, 64, 127
1, 209944, Note_on_c, 0, 49, 0
1, 209944, Note_on_c, 0, 61, 0
1, 210074, Note_on_c, 0, 83, 0
1, 210074, Note_on_c, 0, 80, 0
1, 210074, Note_on_c, 0, 71, 0
1, 210077, Note_on_c, 0, 76, 0
1, 210077, Note_on_c, 0, 76, 73
1, 210077, Note_on_c, 0, 88, 87
1, 210135, Note_on_c, 0, 88, 0
1, 210135, Note_on_c, 0, 76, 0
1, 210135, Note_on_c, 0, 71, 79
1, 210138, Note_on_c, 0, 75, 79
1, 210138, Note_on_c, 0, 80, 95
1, 210138, Note_on_c, 0, 83, 95
1, 210141, Note_on_c, 0, 56, 71
1, 210141, Note_on_c, 0, 68, 71
1, 210141, Control_c, 0, 64, 0
1, 210276, Note_on_c, 0, 83, 0
1, 210276, Note_on_c, 0, 71, 0
1, 210276, Note_on_c, 0, 75, 0
1, 210279, Note_on_c, 0, 80, 0
1, 210279, Note_on_c, 0, 68, 0
1, 210279, Note_on_c, 0, 56, 0
1, 210416, Note_on_c, 0, 76, 79
1, 210416, Note_on_c, 0, 80, 79
1, 210416, Note_on_c, 0, 71, 79
1, 210419, Note_on_c, 0, 83, 95
1, 210419, Note_on_c, 0, 61, 63
1, 210419, Note_on_c, 0, 49, 52
1, 210434, Control_c, 0, 64, 127
1, 210481, Note_on_c, 0, 49, 0
1, 210481, Note_on_c, 0, 61, 0
1, 210611, Note_on_c, 0, 83, 0
1, 210611, Note_on_c, 0, 76, 0
1, 210611, Note_on_c, 0, 80, 0
1, 210614, Note_on_c, 0, 71, 0
1, 210614, Note_on_c, 0, 88, 87
1, 210614, Note_on_c, 0, 76, 73
1, 210673, Note_on_c, 0, 76, 0
1, 210673, Note_on_c, 0, 88, 0
1, 210673, Note_on_c, 0, 71, 79
1, 210676, Note_on_c, 0, 83, 95
1, 210676, Note_on_c, 0, 75, 79
1, 210676, Note_on_c, 0, 80, 79
1, 210679, Note_on_c, 0, 56, 89
1, 210679, Note_on_c, 0, 44, 73
1, 210679, Control_c, 0, 64, 0
1, 210813, Note_on_c, 0, 44, 0
1, 210813, Note_on_c, 0, 56, 0
1, 210954, Note_on_c, 0, 55, 89
1, 210954, Note_on_c, 0, 43, 73
1, 211096, Note_on_c, 0, 43, 0
1, 211096, Note_on_c, 0, 55, 0
1, 211238, Note_on_c, 0, 54, 89
1, 211238, Note_on_c, 0, 42, 73
1, 211384, Note_on_c, 0, 42, 0
1, 211384, Note_on_c, 0, 54, 0
1, 211534, Note_on_c, 0, 53, 89
1, 211534, Note_on_c, 0, 41, 73
1, 211690, Note_on_c, 0, 41, 0
1, 211690, Note_on_c, 0, 53, 0
1, 211850, Note_on_c, 0, 80, 0
1, 211850, Note_on_c, 0, 71, 0
1, 211850, Note_on_c, 0, 83, 0
1, 211853, Note_on_c, 0, 75, 0
1, 211853, Note_on_c, 0, 88, 99
1, 211853, Note_on_c, 0, 74, 84
1, 211856, Note_on_c, 0, 83, 84
1, 211856, Note_on_c, 0, 76, 84
1, 211856, Note_on_c, 0, 80, 84
1, 211859, Note_on_c, 0, 52, 93
1, 211859, Note_on_c, 0, 40, 76
1, 211964, Note_on_c, 0, 80, 0
1, 211964, Note_on_c, 0, 83, 0
1, 211964, Note_on_c, 0, 88, 0
1, 211967, Note_on_c, 0, 74, 0
1, 211967, Note_on_c, 0, 76, 0
1, 211967, Note_on_c, 0, 40, 0
1, 211970, Note_on_c, 0, 52, 0
1, 212765, Note_on_c, 0, 76, 58
1, 212765, Note_on_c, 0, 64, 58
1, 213035, Note_on_c, 0, 96, 79
1, 213035, Note_on_c, 0, 93, 79
1, 213035, Note_on_c, 0, 64, 0
1, 213038, Note_on_c, 0, 76, 0
1, 213038, Note_on_c, 0, 69, 70
1, 213038, Note_on_c, 0, 72, 70
1, 213056, Control_c, 0, 64, 127
1, 213128, Note_on_c, 0, 93, 0
1, 213128, Note_on_c, 0, 96, 0
1, 213128, Note_on_c, 0, 91, 60
1, 213131, Note_on_c, 0, 95, 60
1, 213159, Note_on_c, 0, 95, 0
1, 213159, Note_on_c, 0, 91, 0
1, 213159, Note_on_c, 0, 93, 59
1, 213162, Note_on_c, 0, 89, 59
1, 213162, Note_on_c, 0, 72, 0
1, 213162, Note_on_c, 0, 69, 0
1, 213165, Note_on_c, 0, 76, 61
1, 213221, Note_on_c, 0, 89, 0
1, 213221, Note_on_c, 0, 93, 0
1, 213221, Note_on_c, 0, 91, 58
1, 213224, Note_on_c, 0, 88, 58
1, 213282, Note_on_c, 0, 88, 0
1, 213282, Note_on_c, 0, 91, 0
1, 213282, Note_on_c, 0, 89, 57
1, 213285, Note_on_c, 0, 86, 57
1, 213285, Note_on_c, 0, 76, 0
1, 213285, Note_on_c, 0, 69, 65
1, 213288, Note_on_c, 0, 72, 65
1, 213344, Note_on_c, 0, 86, 0
1, 213344, Note_on_c, 0, 89, 0
1, 213344, Note_on_c, 0, 88, 56
1, 213347, Note_on_c, 0, 84, 56
1, 213406, Note_on_c, 0, 84, 0
1, 213406, Note_on_c, 0, 88, 0
1, 213406, Note_on_c, 0, 86, 54
1, 213409, Note_on_c, 0, 83, 54
1, 213409, Note_on_c, 0, 72, 0
1, 213409, Note_on_c, 0, 69, 0
1, 213471, Note_on_c, 0, 83, 0
1, 213471, Note_on_c, 0, 86, 0
1, 213471, Note_on_c, 0, 84, 53
1, 213474, Note_on_c, 0, 81, 53
1, 213542, Note_on_c, 0, 81, 0
1, 213542, Note_on_c, 0, 84, 0
1, 213542, Note_on_c, 0, 83, 51
1, 213545, Note_on_c, 0, 79, 51
1, 213545, Note_on_c, 0, 59, 65
1, 213545, Note_on_c, 0, 62, 65
1, 213548, Control_c, 0, 64, 0
1, 213569, Control_c, 0, 64, 127
1, 213577, Note_on_c, 0, 79, 0
1, 213577, Note_on_c, 0, 83, 0
1, 213577, Note_on_c, 0, 81, 51
1, 213580, Note_on_c, 0, 77, 51
1, 213613, Note_on_c, 0, 77, 0
1, 213613, Note_on_c, 0, 81, 0
1, 213613, Note_on_c, 0, 79, 50
1, 213616, Note_on_c, 0, 76, 50
1, 213648, Note_on_c, 0, 77, 50
1, 213648, Note_on_c, 0, 74, 50
1, 213648, Note_on_c, 0, 76, 0
1, 213651, Note_on_c, 0, 79, 0
1, 213666, Note_on_c, 0, 62, 0
1, 213666, Note_on_c, 0, 59, 0
1, 213666, Note_on_c, 0, 67, 59
1, 213683, Note_on_c, 0, 77, 0
1, 213683, Note_on_c, 0, 74, 0
1, 213683, Note_on_c, 0, 72, 49
1, 213686, Note_on_c, 0, 76, 49
1, 213719, Note_on_c, 0, 76, 0
1, 213719, Note_on_c, 0, 72, 0
1, 213719, Note_on_c, 0, 71, 48
1, 213722, Note_on_c, 0, 74, 48
1, 213754, Note_on_c, 0, 74, 0
1, 213754, Note_on_c, 0, 71, 0
1, 213754, Note_on_c, 0, 69, 47
1, 213757, Note_on_c, 0, 72, 47
1, 213790, Note_on_c, 0, 72, 0
1, 213790, Note_on_c, 0, 69, 0
1, 213790, Note_on_c, 0, 71, 47
1, 213790, Note_on_c, 0, 67, 47
1, 213790, Note_on_c, 0, 67, 0
1, 213790, Note_on_c, 0, 59, 55
1, 213790, Note_on_c, 0, 62, 55
1, 213825, Control_c, 0, 64, 0
1, 213920, Note_on_c, 0, 67, 0
1, 213920, Note_on_c, 0, 71, 0
1, 213920, Note_on_c, 0, 62, 0
1, 213923, Note_on_c, 0, 59, 0
1, 214060, Note_on_c, 0, 93, 79
1, 214060, Note_on_c, 0, 89, 79
1, 214060, Note_on_c, 0, 69, 70
1, 214063, Note_on_c, 0, 65, 70
1, 214082, Control_c, 0, 64, 127
1, 214155, Note_on_c, 0, 89, 0
1, 214155, Note_on_c, 0, 93, 0
1, 214155, Note_on_c, 0, 88, 60
1, 214158, Note_on_c, 0, 91, 60
1, 214187, Note_on_c, 0, 91, 0
1, 214187, Note_on_c, 0, 88, 0
1, 214187, Note_on_c, 0, 89, 59
1, 214190, Note_on_c, 0, 86, 59
1, 214190, Note_on_c, 0, 65, 0
1, 214190, Note_on_c, 0, 69, 0
1, 214193, Note_on_c, 0, 72, 61
1, 214250, Note_on_c, 0, 86, 0
1, 214250, Note_on_c, 0, 89, 0
1, 214250, Note_on_c, 0, 88, 58
1, 214253, Note_on_c, 0, 84, 58
1, 214312, Note_on_c, 0, 84, 0
1, 214312, Note_on_c, 0, 88, 0
1, 214312, Note_on_c, 0, 86, 57
1, 214315, Note_on_c, 0, 83, 57
1, 214315, Note_on_c, 0, 72, 0
1, 214315, Note_on_c, 0, 69, 65
1, 214318, Note_on_c, 0, 65, 65
1, 214375, Note_on_c, 0, 83, 0
1, 214375, Note_on_c, 0, 86, 0
1, 214375, Note_on_c, 0, 84, 55
1, 214378, Note_on_c, 0, 81, 55
1, 214438, Note_on_c, 0, 81, 0
1, 214438, Note_on_c, 0, 84, 0
1, 214438, Note_on_c, 0, 83, 54
1, 214441, Note_on_c, 0, 79, 54
1, 214441, Note_on_c, 0, 65, 0
1, 214441, Note_on_c, 0, 69, 0
1, 214503, Note_on_c, 0, 79, 0
1, 214503, Note_on_c, 0, 83, 0
1, 214503, Note_on_c, 0, 81, 52
1, 214506, Note_on_c, 0, 77, 52
1, 214573, Note_on_c, 0, 77, 0
1, 214573, Note_on_c, 0, 81, 0
1, 214573, Note_on_c, 0, 79, 50
1, 214576, Note_on_c, 0, 76, 50
1, 214576, Note_on_c, 0, 59, 65
1, 214576, Note_on_c, 0, 55, 65
1, 214576, Control_c, 0, 64, 0
1, 214601, Control_c, 0, 64, 127
1, 214609, Note_on_c, 0, 76, 0
1, 214609, Note_on_c, 0, 79, 0
1, 214609, Note_on_c, 0, 77, 49
1, 214612, Note_on_c, 0, 74, 49
1, 214645, Note_on_c, 0, 74, 0
1, 214645, Note_on_c, 0, 77, 0
1, 214645, Note_on_c, 0, 76, 48
1, 214648, Note_on_c, 0, 72, 48
1, 214681, Note_on_c, 0, 74, 47
1, 214681, Note_on_c, 0, 71, 47
1, 214681, Note_on_c, 0, 72, 0
1, 214684, Note_on_c, 0, 76, 0
1, 214699, Note_on_c, 0, 55, 0
1, 214699, Note_on_c, 0, 59, 0
1, 214699, Note_on_c, 0, 64, 59
1, 214717, Note_on_c, 0, 74, 0
1, 214717, Note_on_c, 0, 71, 0
1, 214717, Note_on_c, 0, 69, 46
1, 214720, Note_on_c, 0, 72, 46
1, 214753, Note_on_c, 0, 72, 0
1, 214753, Note_on_c, 0, 69, 0
1, 214753, Note_on_c, 0, 67, 45
1, 214756, Note_on_c, 0, 71, 45
1, 214789, Note_on_c, 0, 71, 0
1, 214789, Note_on_c, 0, 67, 0
1, 214789, Note_on_c, 0, 65, 43
1, 214792, Note_on_c, 0, 69, 43
1, 214825, Note_on_c, 0, 69, 0
1, 214825, Note_on_c, 0, 65, 0
1, 214825, Note_on_c, 0, 67, 42
1, 214828, Note_on_c, 0, 64, 42
1, 214828, Note_on_c, 0, 64, 0
1, 214828, Note_on_c, 0, 59, 55
1, 214831, Note_on_c, 0, 55, 55
1, 214859, Control_c, 0, 64, 0
1, 214955, Note_on_c, 0, 64, 0
1, 214955, Note_on_c, 0, 67, 0
1, 214955, Note_on_c, 0, 55, 0
1, 214958, Note_on_c, 0, 59, 0
1, 215082, Note_on_c, 0, 89, 79
1, 215082, Note_on_c, 0, 86, 79
1, 215082, Note_on_c, 0, 62, 70
1, 215085, Note_on_c, 0, 65, 70
1, 215105, Control_c, 0, 64, 127
1, 215177, Note_on_c, 0, 86, 0
1, 215177, Note_on_c, 0, 89, 0
1, 215177, Note_on_c, 0, 84, 61
1, 215180, Note_on_c, 0, 88, 61
1, 215209, Note_on_c, 0, 88, 0
1, 215209, Note_on_c, 0, 84, 0
1, 215209, Note_on_c, 0, 86, 60
1, 215212, Note_on_c, 0, 83, 60
1, 215212, Note_on_c, 0, 65, 0
1, 215212, Note_on_c, 0, 62, 0
1, 215215, Note_on_c, 0, 69, 61
1, 215272, Note_on_c, 0, 83, 0
1, 215272, Note_on_c, 0, 86, 0
1, 215272, Note_on_c, 0, 84, 59
1, 215275, Note_on_c, 0, 81, 59
1, 215335, Note_on_c, 0, 81, 0
1, 215335, Note_on_c, 0, 84, 0
1, 215335, Note_on_c, 0, 83, 58
1, 215338, Note_on_c, 0, 79, 58
1, 215338, Note_on_c, 0, 69, 0
1, 215338, Note_on_c, 0, 62, 65
1, 215341, Note_on_c, 0, 65, 65
1, 215400, Note_on_c, 0, 79, 0
1, 215400, Note_on_c, 0, 83, 0
1, 215400, Note_on_c, 0, 81, 57
1, 215403, Note_on_c, 0, 77, 57
1, 215464, Note_on_c, 0, 77, 0
1, 215464, Note_on_c, 0, 81, 0
1, 215464, Note_on_c, 0, 79, 55
1, 215467, Note_on_c, 0, 76, 55
1, 215467, Note_on_c, 0, 65, 0
1, 215467, Note_on_c, 0, 62, 0
1, 215530, Note_on_c, 0, 76, 0
1, 215530, Note_on_c, 0, 79, 0
1, 215530, Note_on_c, 0, 77, 54
1, 215533, Note_on_c, 0, 74, 54
1, 215600, Note_on_c, 0, 74, 0
1, 215600, Note_on_c, 0, 77, 0
1, 215600, Note_on_c, 0, 76, 53
1, 215603, Note_on_c, 0, 72, 53
1, 215603, Note_on_c, 0, 55, 65
1, 215603, Note_on_c, 0, 52, 65
1, 215603, Control_c, 0, 64, 0
1, 215628, Control_c, 0, 64, 127
1, 215635, Note_on_c, 0, 72, 0
1, 215635, Note_on_c, 0, 76, 0
1, 215635, Note_on_c, 0, 74, 52
1, 215638, Note_on_c, 0, 71, 52
1, 215672, Note_on_c, 0, 71, 0
1, 215672, Note_on_c, 0, 74, 0
1, 215672, Note_on_c, 0, 72, 51
1, 215675, Note_on_c, 0, 69, 51
1, 215707, Note_on_c, 0, 71, 50
1, 215707, Note_on_c, 0, 67, 50
1, 215707, Note_on_c, 0, 69, 0
1, 215710, Note_on_c, 0, 72, 0
1, 215726, Note_on_c, 0, 52, 0
1, 215726, Note_on_c, 0, 55, 0
1, 215726, Note_on_c, 0, 60, 59
1, 215743, Note_on_c, 0, 71, 0
1, 215743, Note_on_c, 0, 67, 0
1, 215743, Note_on_c, 0, 65, 49
1, 215746, Note_on_c, 0, 69, 49
1, 215779, Note_on_c, 0, 69, 0
1, 215779, Note_on_c, 0, 65, 0
1, 215779, Note_on_c, 0, 64, 47
1, 215782, Note_on_c, 0, 67, 47
1, 215815, Note_on_c, 0, 67, 0
1, 215815, Note_on_c, 0, 64, 0
1, 215815, Note_on_c, 0, 62, 46
1, 215818, Note_on_c, 0, 65, 46
1, 215851, Note_on_c, 0, 65, 0
1, 215851, Note_on_c, 0, 62, 0
1, 215851, Note_on_c, 0, 64, 45
1, 215854, Note_on_c, 0, 60, 45
1, 215854, Note_on_c, 0, 60, 0
1, 215854, Note_on_c, 0, 55, 55
1, 215857, Note_on_c, 0, 52, 55
1, 215885, Control_c, 0, 64, 0
1, 215980, Note_on_c, 0, 60, 0
1, 215980, Note_on_c, 0, 64, 0
1, 215980, Note_on_c, 0, 52, 0
1, 215983, Note_on_c, 0, 55, 0
1, 216109, Note_on_c, 0, 86, 79
1, 216109, Note_on_c, 0, 83, 79
1, 216109, Note_on_c, 0, 59, 70
1, 216112, Note_on_c, 0, 62, 70
1, 216132, Control_c, 0, 64, 127
1, 216205, Note_on_c, 0, 83, 0
1, 216205, Note_on_c, 0, 86, 0
1, 216205, Note_on_c, 0, 81, 59
1, 216208, Note_on_c, 0, 84, 59
1, 216237, Note_on_c, 0, 84, 0
1, 216237, Note_on_c, 0, 81, 0
1, 216237, Note_on_c, 0, 83, 58
1, 216240, Note_on_c, 0, 79, 58
1, 216240, Note_on_c, 0, 62, 0
1, 216240, Note_on_c, 0, 59, 0
1, 216243, Note_on_c, 0, 65, 61
1, 216300, Note_on_c, 0, 79, 0
1, 216300, Note_on_c, 0, 83, 0
1, 216300, Note_on_c, 0, 81, 57
1, 216303, Note_on_c, 0, 77, 57
1, 216363, Note_on_c, 0, 77, 0
1, 216363, Note_on_c, 0, 81, 0
1, 216363, Note_on_c, 0, 79, 56
1, 216366, Note_on_c, 0, 76, 56
1, 216366, Note_on_c, 0, 65, 0
1, 216366, Note_on_c, 0, 62, 65
1, 216369, Note_on_c, 0, 59, 65
1, 216426, Note_on_c, 0, 76, 0
1, 216426, Note_on_c, 0, 79, 0
1, 216426, Note_on_c, 0, 77, 54
1, 216429, Note_on_c, 0, 74, 54
1, 216489, Note_on_c, 0, 74, 0
1, 216489, Note_on_c, 0, 77, 0
1, 216489, Note_on_c, 0, 76, 53
1, 216492, Note_on_c, 0, 72, 53
1, 216492, Note_on_c, 0, 59, 0
1, 216492, Note_on_c, 0, 62, 0
1, 216554, Note_on_c, 0, 72, 0
1, 216554, Note_on_c, 0, 76, 0
1, 216554, Note_on_c, 0, 74, 52
1, 216557, Note_on_c, 0, 71, 52
1, 216624, Note_on_c, 0, 71, 0
1, 216624, Note_on_c, 0, 74, 0
1, 216624, Note_on_c, 0, 72, 51
1, 216627, Note_on_c, 0, 69, 51
1, 216627, Note_on_c, 0, 48, 65
1, 216627, Note_on_c, 0, 52, 65
1, 216627, Control_c, 0, 64, 0
1, 216652, Control_c, 0, 64, 127
1, 216660, Note_on_c, 0, 69, 0
1, 216660, Note_on_c, 0, 72, 0
1, 216660, Note_on_c, 0, 71, 50
1, 216663, Note_on_c, 0, 67, 50
1, 216696, Note_on_c, 0, 67, 0
1, 216696, Note_on_c, 0, 71, 0
1, 216696, Note_on_c, 0, 69, 49
1, 216699, Note_on_c, 0, 65, 49
1, 216732, Note_on_c, 0, 67, 49
1, 216732, Note_on_c, 0, 64, 49
1, 216732, Note_on_c, 0, 65, 0
1, 216735, Note_on_c, 0, 69, 0
1, 216750, Note_on_c, 0, 52, 0
1, 216750, Note_on_c, 0, 48, 0
1, 216750, Note_on_c, 0, 57, 59
1, 216767, Note_on_c, 0, 67, 0
1, 216767, Note_on_c, 0, 64, 0
1, 216767, Note_on_c, 0, 62, 48
1, 216770, Note_on_c, 0, 65, 48
1, 216803, Note_on_c, 0, 65, 0
1, 216803, Note_on_c, 0, 62, 0
1, 216803, Note_on_c, 0, 60, 47
1, 216806, Note_on_c, 0, 64, 47
1, 216839, Note_on_c, 0, 64, 0
1, 216839, Note_on_c, 0, 60, 0
1, 216839, Note_on_c, 0, 59, 45
1, 216842, Note_on_c, 0, 62, 45
1, 216875, Note_on_c, 0, 62, 0
1, 216875, Note_on_c, 0, 59, 0
1, 216875, Note_on_c, 0, 60, 44
1, 216875, Note_on_c, 0, 57, 44
1, 216875, Note_on_c, 0, 57, 0
1, 216875, Note_on_c, 0, 48, 55
1, 216875, Note_on_c, 0, 52, 55
1, 216910, Control_c, 0, 64, 0
1, 217005, Note_on_c, 0, 57, 0
1, 217005, Note_on_c, 0, 60, 0
1, 217005, Note_on_c, 0, 52, 0
1, 217008, Note_on_c, 0, 48, 0
1, 217135, Note_on_c, 0, 83, 79
1, 217135, Note_on_c, 0, 79, 79
1, 217135, Note_on_c, 0, 59, 70
1, 217138, Note_on_c, 0, 55, 70
1, 217157, Control_c, 0, 64, 127
1, 217230, Note_on_c, 0, 79, 0
1, 217230, Note_on_c, 0, 83, 0
1, 217230, Note_on_c, 0, 77, 62
1, 217233, Note_on_c, 0, 81, 62
1, 217262, Note_on_c, 0, 81, 0
1, 217262, Note_on_c, 0, 77, 0
1, 217262, Note_on_c, 0, 79, 61
1, 217265, Note_on_c, 0, 76, 61
1, 217265, Note_on_c, 0, 55, 0
1, 217265, Note_on_c, 0, 59, 0
1, 217268, Note_on_c, 0, 62, 61
1, 217324, Note_on_c, 0, 76, 0
1, 217324, Note_on_c, 0, 79, 0
1, 217324, Note_on_c, 0, 77, 59
1, 217327, Note_on_c, 0, 74, 59
1, 217387, Note_on_c, 0, 74, 0
1, 217387, Note_on_c, 0, 77, 0
1, 217387, Note_on_c, 0, 76, 57
1, 217390, Note_on_c, 0, 72, 57
1, 217390, Note_on_c, 0, 62, 0
1, 217390, Note_on_c, 0, 59, 65
1, 217393, Note_on_c, 0, 55, 65
1, 217450, Note_on_c, 0, 72, 0
1, 217450, Note_on_c, 0, 76, 0
1, 217450, Note_on_c, 0, 74, 56
1, 217453, Note_on_c, 0, 71, 56
1, 217512, Note_on_c, 0, 71, 0
1, 217512, Note_on_c, 0, 74, 0
1, 217512, Note_on_c, 0, 72, 54
1, 217515, Note_on_c, 0, 69, 54
1, 217515, Note_on_c, 0, 55, 0
1, 217515, Note_on_c, 0, 59, 0
1, 217577, Note_on_c, 0, 69, 0
1, 217577, Note_on_c, 0, 72, 0
1, 217577, Note_on_c, 0, 71, 53
1, 217580, Note_on_c, 0, 67, 53
1, 217648, Note_on_c, 0, 67, 0
1, 217648, Note_on_c, 0, 71, 0
1, 217648, Note_on_c, 0, 69, 50
1, 217651, Note_on_c, 0, 65, 50
1, 217651, Note_on_c, 0, 45, 65
1, 217651, Note_on_c, 0, 48, 65
1, 217654, Control_c, 0, 64, 0
1, 217676, Control_c, 0, 64, 127
1, 217684, Note_on_c, 0, 65, 0
1, 217684, Note_on_c, 0, 69, 0
1, 217684, Note_on_c, 0, 67, 49
1, 217687, Note_on_c, 0, 64, 49
1, 217721, Note_on_c, 0, 64, 0
1, 217721, Note_on_c, 0, 67, 0
1, 217721, Note_on_c, 0, 65, 48
1, 217724, Note_on_c, 0, 62, 48
1, 217757, Note_on_c, 0, 64, 47
1, 217757, Note_on_c, 0, 60, 47
1, 217757, Note_on_c, 0, 62, 0
1, 217760, Note_on_c, 0, 65, 0
1, 217775, Note_on_c, 0, 48, 0
1, 217775, Note_on_c, 0, 45, 0
1, 217775, Note_on_c, 0, 53, 59
1, 217793, Note_on_c, 0, 64, 0
1, 217793, Note_on_c, 0, 60, 0
1, 217793, Note_on_c, 0, 59, 46
1, 217796, Note_on_c, 0, 62, 46
1, 217830, Note_on_c, 0, 62, 0
1, 217830, Note_on_c, 0, 59, 0
1, 217830, Note_on_c, 0, 57, 45
1, 217833, Note_on_c, 0, 60, 45
1, 217866, Note_on_c, 0, 60, 0
1, 217866, Note_on_c, 0, 57, 0
1, 217866, Note_on_c, 0, 55, 44
1, 217869, Note_on_c, 0, 59, 44
1, 217903, Note_on_c, 0, 59, 0
1, 217903, Note_on_c, 0, 55, 0
1, 217903, Note_on_c, 0, 57, 43
1, 217906, Note_on_c, 0, 53, 43
1, 217906, Note_on_c, 0, 53, 0
1, 217906, Note_on_c, 0, 48, 55
1, 217909, Note_on_c, 0, 45, 55
1, 217937, Control_c, 0, 64, 0
1, 218033, Note_on_c, 0, 53, 0
1, 218033, Note_on_c, 0, 57, 0
1, 218033, Note_on_c, 0, 45, 0
1, 218036, Note_on_c, 0, 48, 0
1, 218162, Note_on_c, 0, 52, 77
1, 218162, Note_on_c, 0, 44, 65
1, 218162, Note_on_c, 0, 40, 65
1, 218165, Note_on_c, 0, 47, 65
1, 218189, Control_c, 0, 64, 127
1, 218246, Note_on_c, 0, 52, 73
1, 218329, Note_on_c, 0, 52, 0
1, 218329, Note_on_c, 0, 56, 75
1, 218413, Note_on_c, 0, 56, 0
1, 218413, Note_on_c, 0, 64, 77
1, 218413, Note_on_c, 0, 47, 0
1, 218416, Note_on_c, 0, 52, 0
1, 218416, Note_on_c, 0, 44, 0
1, 218416, Note_on_c, 0, 40, 0
1, 218496, Note_on_c, 0, 64, 0
1, 218496, Note_on_c, 0, 64, 72
1, 218538, Note_on_c, 0, 50, 56
1, 218538, Note_on_c, 0, 52, 56
1, 218538, Note_on_c, 0, 59, 67
1, 218578, Note_on_c, 0, 64, 0
1, 218578, Note_on_c, 0, 68, 72
1, 218658, Note_on_c, 0, 68, 0
1, 218658, Note_on_c, 0, 64, 77
1, 218658, Note_on_c, 0, 59, 0
1, 218661, Note_on_c, 0, 52, 0
1, 218661, Note_on_c, 0, 50, 0
1, 218661, Note_on_c, 0, 58, 71
1, 218664, Note_on_c, 0, 52, 60
1, 218664, Note_on_c, 0, 49, 60
1, 218664, Control_c, 0, 64, 0
1, 218719, Note_on_c, 0, 49, 0
1, 218719, Note_on_c, 0, 52, 0
1, 218719, Note_on_c, 0, 58, 0
1, 218739, Note_on_c, 0, 64, 0
1, 218739, Note_on_c, 0, 64, 74
1, 218820, Note_on_c, 0, 64, 0
1, 218820, Note_on_c, 0, 68, 74
1, 218902, Note_on_c, 0, 68, 0
1, 218902, Note_on_c, 0, 76, 77
1, 218902, Note_on_c, 0, 48, 56
1, 218905, Note_on_c, 0, 57, 67
1, 218905, Note_on_c, 0, 52, 56
1, 218964, Note_on_c, 0, 52, 0
1, 218964, Note_on_c, 0, 57, 0
1, 218964, Note_on_c, 0, 48, 0
1, 218985, Note_on_c, 0, 76, 0
1, 218985, Note_on_c, 0, 76, 74
1, 219067, Note_on_c, 0, 76, 0
1, 219067, Note_on_c, 0, 80, 74
1, 219150, Note_on_c, 0, 80, 0
1, 219150, Note_on_c, 0, 76, 77
1, 219150, Note_on_c, 0, 52, 65
1, 219153, Note_on_c, 0, 47, 65
1, 219153, Note_on_c, 0, 56, 77
1, 219176, Control_c, 0, 64, 127
1, 219233, Note_on_c, 0, 76, 0
1, 219233, Note_on_c, 0, 76, 73
1, 219317, Note_on_c, 0, 76, 0
1, 219317, Note_on_c, 0, 80, 75
1, 219400, Note_on_c, 0, 80, 0
1, 219400, Note_on_c, 0, 88, 77
1, 219400, Note_on_c, 0, 56, 0
1, 219403, Note_on_c, 0, 47, 0
1, 219403, Note_on_c, 0, 52, 0
1, 219483, Note_on_c, 0, 88, 0
1, 219483, Note_on_c, 0, 88, 72
1, 219525, Note_on_c, 0, 64, 56
1, 219525, Note_on_c, 0, 62, 56
1, 219525, Note_on_c, 0, 71, 67
1, 219566, Note_on_c, 0, 88, 0
1, 219566, Note_on_c, 0, 92, 72
1, 219647, Note_on_c, 0, 92, 0
1, 219647, Note_on_c, 0, 88, 77
1, 219647, Note_on_c, 0, 71, 0
1, 219650, Note_on_c, 0, 62, 0
1, 219650, Note_on_c, 0, 64, 0
1, 219650, Note_on_c, 0, 61, 60
1, 219653, Note_on_c, 0, 64, 60
1, 219653, Note_on_c, 0, 70, 71
1, 219653, Control_c, 0, 64, 0
1, 219708, Note_on_c, 0, 70, 0
1, 219708, Note_on_c, 0, 64, 0
1, 219708, Note_on_c, 0, 61, 0
1, 219729, Note_on_c, 0, 88, 0
1, 219729, Note_on_c, 0, 88, 74
1, 219811, Note_on_c, 0, 88, 0
1, 219811, Note_on_c, 0, 92, 74
1, 219894, Note_on_c, 0, 92, 0
1, 219894, Note_on_c, 0, 100, 77
1, 219894, Note_on_c, 0, 60, 56
1, 219897, Note_on_c, 0, 64, 56
1, 219897, Note_on_c, 0, 69, 67
1, 219956, Note_on_c, 0, 69, 0
1, 219956, Note_on_c, 0, 64, 0
1, 219956, Note_on_c, 0, 60, 0
1, 219977, Note_on_c, 0, 100, 0
1, 219977, Note_on_c, 0, 92, 74
1, 220060, Note_on_c, 0, 92, 0
1, 220060, Note_on_c, 0, 104, 74
1, 220143, Note_on_c, 0, 104, 0
1, 220143, Note_on_c, 0, 88, 77
1, 220143, Note_on_c, 0, 62, 65
1, 220146, Note_on_c, 0, 68, 65
1, 220146, Note_on_c, 0, 71, 77
1, 220146, Control_c, 0, 64, 127
1, 220223, Note_on_c, 0, 88, 0
1, 220223, Note_on_c, 0, 100, 73
1, 220228, Control_c, 0, 64, 0
1, 220302, Note_on_c, 0, 100, 0
1, 220302, Note_on_c, 0, 92, 75
1, 220382, Note_on_c, 0, 92, 0
1, 220382, Note_on_c, 0, 104, 78
1, 220382, Note_on_c, 0, 71, 0
1, 220385, Note_on_c, 0, 68, 0
1, 220385, Note_on_c, 0, 62, 0
1, 220385, Note_on_c, 0, 76, 69
1, 220388, Note_on_c, 0, 71, 58
1, 220388, Note_on_c, 0, 74, 58
1, 220388, Note_on_c, 0, 64, 58
1, 220399, Control_c, 0, 64, 127
1, 220442, Note_on_c, 0, 64, 0
1, 220442, Note_on_c, 0, 76, 0
1, 220442, Note_on_c, 0, 71, 0
1, 220445, Note_on_c, 0, 74, 0
1, 220463, Note_on_c, 0, 104, 0
1, 220463, Note_on_c, 0, 88, 74
1, 220474, Control_c, 0, 64, 0
1, 220544, Note_on_c, 0, 88, 0
1, 220544, Note_on_c, 0, 100, 74
1, 220625, Note_on_c, 0, 100, 0
1, 220625, Note_on_c, 0, 92, 84
1, 220625, Note_on_c, 0, 76, 74
1, 220628, Note_on_c, 0, 64, 62
1, 220628, Note_on_c, 0, 73, 62
1, 220628, Note_on_c, 0, 70, 62
1, 220628, Control_c, 0, 64, 127
1, 220684, Note_on_c, 0, 70, 0
1, 220684, Note_on_c, 0, 76, 0
1, 220684, Note_on_c, 0, 64, 0
1, 220687, Note_on_c, 0, 73, 0
1, 220704, Note_on_c, 0, 92, 0
1, 220704, Note_on_c, 0, 104, 79
1, 220709, Control_c, 0, 64, 0
1, 220784, Note_on_c, 0, 104, 0
1, 220784, Note_on_c, 0, 88, 79
1, 220863, Note_on_c, 0, 88, 0
1, 220863, Note_on_c, 0, 100, 87
1, 220863, Note_on_c, 0, 69, 61
1, 220866, Note_on_c, 0, 76, 72
1, 220866, Note_on_c, 0, 72, 61
1, 220866, Note_on_c, 0, 64, 61
1, 220900, Control_c, 0, 64, 127
1, 220924, Note_on_c, 0, 64, 0
1, 220924, Note_on_c, 0, 69, 0
1, 220924, Note_on_c, 0, 76, 0
1, 220927, Note_on_c, 0, 72, 0
1, 220944, Note_on_c, 0, 100, 0
1, 220944, Note_on_c, 0, 92, 83
1, 220949, Control_c, 0, 64, 0
1, 221025, Note_on_c, 0, 92, 0
1, 221025, Note_on_c, 0, 104, 83
1, 221105, Note_on_c, 0, 104, 0
1, 221105, Note_on_c, 0, 88, 91
1, 221105, Note_on_c, 0, 64, 62
1, 221108, Note_on_c, 0, 76, 73
1, 221108, Note_on_c, 0, 71, 62
1, 221108, Note_on_c, 0, 68, 62
1, 221114, Control_c, 0, 64, 127
1, 221355, Note_on_c, 0, 88, 0
1, 221355, Note_on_c, 0, 100, 98
1, 221355, Note_on_c, 0, 92, 83
1, 221358, Note_on_c, 0, 95, 83
1, 221358, Note_on_c, 0, 68, 0
1, 221358, Note_on_c, 0, 64, 0
1, 221361, Note_on_c, 0, 76, 0
1, 221361, Note_on_c, 0, 71, 0
1, 221361, Note_on_c, 0, 80, 73
1, 221364, Note_on_c, 0, 71, 62
1, 221364, Note_on_c, 0, 83, 73
1, 221364, Note_on_c, 0, 76, 62
1, 221417, Note_on_c, 0, 95, 0
1, 221417, Note_on_c, 0, 92, 0
1, 221417, Note_on_c, 0, 100, 0
1, 221420, Note_on_c, 0, 76, 0
1, 221420, Note_on_c, 0, 80, 0
1, 221420, Note_on_c, 0, 71, 0
1, 221423, Note_on_c, 0, 83, 0
1, 221494, Control_c, 0, 64, 0
1, 221728, Note_on_c, 0, 76, 81
1, 221728, Note_on_c, 0, 64, 68
1, 221728, Note_on_c, 0, 52, 70
1, 221731, Note_on_c, 0, 40, 59
1, 221853, Note_on_c, 0, 64, 0
1, 221853, Note_on_c, 0, 76, 0
1, 221853, Note_on_c, 0, 78, 86
1, 221856, Note_on_c, 0, 66, 73
1, 221856, Note_on_c, 0, 40, 0
1, 221856, Note_on_c, 0, 52, 0
1, 221859, Note_on_c, 0, 54, 74
1, 221859, Note_on_c, 0, 42, 62
1, 221979, Note_on_c, 0, 66, 0
1, 221979, Note_on_c, 0, 78, 0
1, 221979, Note_on_c, 0, 80, 90
1, 221982, Note_on_c, 0, 68, 76
1, 221982, Note_on_c, 0, 42, 0
1, 221982, Note_on_c, 0, 54, 0
1, 221985, Note_on_c, 0, 56, 79
1, 221985, Note_on_c, 0, 44, 67
1, 222104, Note_on_c, 0, 68, 0
1, 222104, Note_on_c, 0, 80, 0
1, 222104, Note_on_c, 0, 81, 93
1, 222107, Note_on_c, 0, 69, 79
1, 222107, Note_on_c, 0, 44, 0
1, 222107, Note_on_c, 0, 56, 0
1, 222110, Note_on_c, 0, 57, 83
1, 222110, Note_on_c, 0, 45, 70
1, 222235, Note_on_c, 0, 69, 0
1, 222235, Note_on_c, 0, 81, 0
1, 222235, Note_on_c, 0, 45, 0
1, 222238, Note_on_c, 0, 57, 0
1, 222366, Note_on_c, 0, 71, 63
1, 222366, Note_on_c, 0, 80, 74
1, 222366, Note_on_c, 0, 68, 63
1, 222369, Note_on_c, 0, 53, 56
1, 222369, Note_on_c, 0, 41, 47
1, 222427, Note_on_c, 0, 68, 0
1, 222427, Note_on_c, 0, 80, 0
1, 222427, Note_on_c, 0, 71, 0
1, 222489, Note_on_c, 0, 74, 57
1, 222489, Note_on_c, 0, 83, 68
1, 222489, Note_on_c, 0, 71, 57
1, 222492, Note_on_c, 0, 41, 0
1, 222492, Note_on_c, 0, 53, 0
1, 222554, Note_on_c, 0, 71, 0
1, 222554, Note_on_c, 0, 83, 0
1, 222554, Note_on_c, 0, 74, 0
1, 222619, Note_on_c, 0, 81, 84
1, 222619, Note_on_c, 0, 69, 71
1, 222619, Note_on_c, 0, 72, 71
1, 222622, Note_on_c, 0, 57, 70
1, 222622, Note_on_c, 0, 45, 59
1, 222746, Note_on_c, 0, 72, 0
1, 222746, Note_on_c, 0, 69, 0
1, 222746, Note_on_c, 0, 81, 0
1, 222749, Note_on_c, 0, 45, 0
1, 222749, Note_on_c, 0, 57, 0
1, 222874, Note_on_c, 0, 71, 61
1, 222874, Note_on_c, 0, 80, 72
1, 222874, Note_on_c, 0, 68, 61
1, 222877, Note_on_c, 0, 40, 47
1, 222877, Note_on_c, 0, 52, 56
1, 222935, Note_on_c, 0, 68, 0
1, 222935, Note_on_c, 0, 80, 0
1, 222935, Note_on_c, 0, 71, 0
1, 222996, Note_on_c, 0, 74, 56
1, 222996, Note_on_c, 0, 83, 67
1, 222996, Note_on_c, 0, 71, 56
1, 222999, Note_on_c, 0, 52, 0
1, 222999, Note_on_c, 0, 40, 0
1, 223061, Note_on_c, 0, 71, 0
1, 223061, Note_on_c, 0, 83, 0
1, 223061, Note_on_c, 0, 74, 0
1, 223125, Note_on_c, 0, 72, 71
1, 223125, Note_on_c, 0, 81, 84
1, 223125, Note_on_c, 0, 69, 71
1, 223128, Note_on_c, 0, 45, 59
1, 223128, Note_on_c, 0, 57, 70
1, 223194, Note_on_c, 0, 69, 0
1, 223194, Note_on_c, 0, 81, 0
1, 223194, Note_on_c, 0, 72, 0
1, 223197, Note_on_c, 0, 57, 0
1, 223197, Note_on_c, 0, 45, 0
1, 223400, Note_on_c, 0, 71, 56
1, 223400, Note_on_c, 0, 80, 67
1, 223400, Note_on_c, 0, 68, 56
1, 223403, Note_on_c, 0, 38, 47
1, 223403, Note_on_c, 0, 50, 56
1, 223403, Note_on_c, 0, 41, 47
1, 223466, Note_on_c, 0, 68, 0
1, 223466, Note_on_c, 0, 80, 0
1, 223466, Note_on_c, 0, 71, 0
1, 223469, Note_on_c, 0, 41, 0
1, 223469, Note_on_c, 0, 50, 0
1, 223469, Note_on_c, 0, 38, 0
1, 223667, Note_on_c, 0, 72, 70
1, 223667, Note_on_c, 0, 81, 83
1, 223667, Note_on_c, 0, 69, 70
1, 223670, Note_on_c, 0, 57, 70
1, 223670, Note_on_c, 0, 52, 59
1, 223670, Note_on_c, 0, 45, 59
1, 224213, Note_on_c, 0, 69, 0
1, 224213, Note_on_c, 0, 81, 0
1, 224213, Note_on_c, 0, 72, 0
1, 224216, Note_on_c, 0, 93, 75
1, 224216, Note_on_c, 0, 81, 63
1, 224216, Note_on_c, 0, 45, 0
1, 224219, Note_on_c, 0, 52, 0
1, 224219, Note_on_c, 0, 57, 0
1, 224275, Note_on_c, 0, 81, 0
1, 224275, Note_on_c, 0, 93, 0
1, 224337, Note_on_c, 0, 95, 79
1, 224337, Note_on_c, 0, 83, 67
1, 224399, Note_on_c, 0, 83, 0
1, 224399, Note_on_c, 0, 95, 0
1, 224461, Note_on_c, 0, 96, 82
1, 224461, Note_on_c, 0, 84, 69
1, 224461, Note_on_c, 0, 57, 63
1, 224464, Note_on_c, 0, 69, 75
1, 224525, Note_on_c, 0, 69, 0
1, 224525, Note_on_c, 0, 57, 0
1, 224590, Note_on_c, 0, 71, 79
1, 224590, Note_on_c, 0, 59, 67
1, 224654, Note_on_c, 0, 59, 0
1, 224654, Note_on_c, 0, 71, 0
1, 224719, Note_on_c, 0, 72, 82
1, 224719, Note_on_c, 0, 60, 69
1, 224845, Note_on_c, 0, 84, 0
1, 224845, Note_on_c, 0, 96, 0
1, 224845, Note_on_c, 0, 95, 74
1, 224848, Note_on_c, 0, 83, 62
1, 224904, Note_on_c, 0, 83, 0
1, 224904, Note_on_c, 0, 95, 0
1, 224963, Note_on_c, 0, 93, 83
1, 224963, Note_on_c, 0, 81, 70
1, 225085, Note_on_c, 0, 60, 0
1, 225085, Note_on_c, 0, 72, 0
1, 225085, Note_on_c, 0, 71, 74
1, 225088, Note_on_c, 0, 59, 62
1, 225148, Note_on_c, 0, 59, 0
1, 225148, Note_on_c, 0, 71, 0
1, 225211, Note_on_c, 0, 69, 83
1, 225211, Note_on_c, 0, 57, 70
1, 225340, Note_on_c, 0, 81, 0
1, 225340, Note_on_c, 0, 93, 0
1, 225340, Note_on_c, 0, 91, 75
1, 225343, Note_on_c, 0, 79, 63
1, 225400, Note_on_c, 0, 79, 0
1, 225400, Note_on_c, 0, 91, 0
1, 225460, Note_on_c, 0, 89, 84
1, 225460, Note_on_c, 0, 77, 71
1, 225586, Note_on_c, 0, 57, 0
1, 225586, Note_on_c, 0, 69, 0
1, 225586, Note_on_c, 0, 55, 63
1, 225589, Note_on_c, 0, 67, 75
1, 225649, Note_on_c, 0, 67, 0
1, 225649, Note_on_c, 0, 55, 0
1, 225712, Note_on_c, 0, 53, 71
1, 225712, Note_on_c, 0, 65, 84
1, 225838, Note_on_c, 0, 77, 0
1, 225838, Note_on_c, 0, 89, 0
1, 225838, Note_on_c, 0, 88, 81
1, 225841, Note_on_c, 0, 76, 68
1, 225898, Note_on_c, 0, 76, 0
1, 225898, Note_on_c, 0, 88, 0
1, 225958, Note_on_c, 0, 86, 81
1, 225958, Note_on_c, 0, 74, 68
1, 226021, Note_on_c, 0, 74, 0
1, 226021, Note_on_c, 0, 86, 0
1, 226084, Note_on_c, 0, 85, 81
1, 226084, Note_on_c, 0, 73, 68
1, 226084, Note_on_c, 0, 65, 0
1, 226087, Note_on_c, 0, 53, 0
1, 226087, Note_on_c, 0, 64, 75
1, 226087, Note_on_c, 0, 52, 75
1, 226149, Note_on_c, 0, 73, 0
1, 226149, Note_on_c, 0, 85, 0
1, 226149, Note_on_c, 0, 52, 0
1, 226152, Note_on_c, 0, 64, 0
1, 226214, Note_on_c, 0, 74, 76
1, 226214, Note_on_c, 0, 86, 90
1, 226214, Note_on_c, 0, 50, 59
1, 226217, Note_on_c, 0, 62, 70
1, 226217, Note_on_c, 0, 77, 76
1, 226340, Note_on_c, 0, 86, 0
1, 226340, Note_on_c, 0, 74, 0
1, 226340, Note_on_c, 0, 62, 0
1, 226343, Note_on_c, 0, 50, 0
1, 226343, Note_on_c, 0, 77, 0
1, 226467, Note_on_c, 0, 76, 63
1, 226467, Note_on_c, 0, 73, 63
1, 226467, Note_on_c, 0, 85, 74
1, 226470, Note_on_c, 0, 46, 47
1, 226470, Note_on_c, 0, 58, 56
1, 226527, Note_on_c, 0, 85, 0
1, 226527, Note_on_c, 0, 73, 0
1, 226527, Note_on_c, 0, 76, 0
1, 226530, Note_on_c, 0, 58, 0
1, 226530, Note_on_c, 0, 46, 0
1, 226588, Note_on_c, 0, 76, 57
1, 226588, Note_on_c, 0, 88, 68
1, 226588, Note_on_c, 0, 79, 57
1, 226653, Note_on_c, 0, 79, 0
1, 226653, Note_on_c, 0, 88, 0
1, 226653, Note_on_c, 0, 76, 0
1, 226718, Note_on_c, 0, 74, 71
1, 226718, Note_on_c, 0, 86, 84
1, 226718, Note_on_c, 0, 77, 71
1, 226721, Note_on_c, 0, 50, 59
1, 226721, Note_on_c, 0, 62, 70
1, 226844, Note_on_c, 0, 77, 0
1, 226844, Note_on_c, 0, 86, 0
1, 226844, Note_on_c, 0, 74, 0
1, 226847, Note_on_c, 0, 62, 0
1, 226847, Note_on_c, 0, 50, 0
1, 226970, Note_on_c, 0, 76, 61
1, 226970, Note_on_c, 0, 73, 61
1, 226970, Note_on_c, 0, 85, 72
1, 226973, Note_on_c, 0, 45, 47
1, 226973, Note_on_c, 0, 57, 56
1, 227031, Note_on_c, 0, 85, 0
1, 227031, Note_on_c, 0, 73, 0
1, 227031, Note_on_c, 0, 76, 0
1, 227034, Note_on_c, 0, 57, 0
1, 227034, Note_on_c, 0, 45, 0
1, 227092, Note_on_c, 0, 79, 56
1, 227092, Note_on_c, 0, 88, 67
1, 227092, Note_on_c, 0, 76, 56
1, 227159, Note_on_c, 0, 76, 0
1, 227159, Note_on_c, 0, 88, 0
1, 227159, Note_on_c, 0, 79, 0
1, 227227, Note_on_c, 0, 74, 71
1, 227227, Note_on_c, 0, 86, 84
1, 227227, Note_on_c, 0, 77, 71
1, 227230, Note_on_c, 0, 50, 59
1, 227230, Note_on_c, 0, 62, 70
1, 227293, Note_on_c, 0, 77, 0
1, 227293, Note_on_c, 0, 86, 0
1, 227293, Note_on_c, 0, 74, 0
1, 227296, Note_on_c, 0, 62, 0
1, 227296, Note_on_c, 0, 50, 0
1, 227492, Note_on_c, 0, 76, 56
1, 227492, Note_on_c, 0, 73, 56
1, 227492, Note_on_c, 0, 85, 67
1, 227495, Note_on_c, 0, 46, 47
1, 227495, Note_on_c, 0, 55, 56
1, 227495, Note_on_c, 0, 43, 47
1, 227558, Note_on_c, 0, 85, 0
1, 227558, Note_on_c, 0, 73, 0
1, 227558, Note_on_c, 0, 76, 0
1, 227561, Note_on_c, 0, 43, 0
1, 227561, Note_on_c, 0, 55, 0
1, 227561, Note_on_c, 0, 46, 0
1, 227759, Note_on_c, 0, 74, 70
1, 227759, Note_on_c, 0, 77, 70
1, 227759, Note_on_c, 0, 86, 83
1, 227762, Note_on_c, 0, 50, 59
1, 227762, Note_on_c, 0, 57, 59
1, 227762, Note_on_c, 0, 62, 70
1, 228310, Note_on_c, 0, 86, 0
1, 228310, Note_on_c, 0, 77, 0
1, 228310, Note_on_c, 0, 74, 0
1, 228313, Note_on_c, 0, 98, 75
1, 228313, Note_on_c, 0, 86, 63
1, 228313, Note_on_c, 0, 62, 0
1, 228316, Note_on_c, 0, 57, 0
1, 228316, Note_on_c, 0, 50, 0
1, 228373, Note_on_c, 0, 86, 0
1, 228373, Note_on_c, 0, 98, 0
1, 228435, Note_on_c, 0, 100, 79
1, 228435, Note_on_c, 0, 88, 67
1, 228498, Note_on_c, 0, 88, 0
1, 228498, Note_on_c, 0, 100, 0
1, 228560, Note_on_c, 0, 101, 82
1, 228560, Note_on_c, 0, 89, 69
1, 228560, Note_on_c, 0, 62, 63
1, 228563, Note_on_c, 0, 74, 75
1, 228625, Note_on_c, 0, 74, 0
1, 228625, Note_on_c, 0, 62, 0
1, 228689, Note_on_c, 0, 64, 67
1, 228689, Note_on_c, 0, 76, 79
1, 228754, Note_on_c, 0, 76, 0
1, 228754, Note_on_c, 0, 64, 0
1, 228819, Note_on_c, 0, 65, 69
1, 228819, Note_on_c, 0, 77, 82
1, 228943, Note_on_c, 0, 89, 0
1, 228943, Note_on_c, 0, 101, 0
1, 228943, Note_on_c, 0, 100, 74
1, 228946, Note_on_c, 0, 88, 62
1, 229004, Note_on_c, 0, 88, 0
1, 229004, Note_on_c, 0, 100, 0
1, 229064, Note_on_c, 0, 98, 83
1, 229064, Note_on_c, 0, 86, 70
1, 229189, Note_on_c, 0, 77, 0
1, 229189, Note_on_c, 0, 65, 0
1, 229189, Note_on_c, 0, 64, 62
1, 229192, Note_on_c, 0, 76, 74
1, 229253, Note_on_c, 0, 76, 0
1, 229253, Note_on_c, 0, 64, 0
1, 229318, Note_on_c, 0, 74, 83
1, 229318, Note_on_c, 0, 62, 70
1, 229444, Note_on_c, 0, 86, 0
1, 229444, Note_on_c, 0, 98, 0
1, 229444, Note_on_c, 0, 96, 75
1, 229447, Note_on_c, 0, 84, 63
1, 229505, Note_on_c, 0, 84, 0
1, 229505, Note_on_c, 0, 96, 0
1, 229565, Note_on_c, 0, 95, 84
1, 229565, Note_on_c, 0, 83, 71
1, 229693, Note_on_c, 0, 62, 0
1, 229693, Note_on_c, 0, 74, 0
1, 229693, Note_on_c, 0, 72, 75
1, 229696, Note_on_c, 0, 60, 63
1, 229757, Note_on_c, 0, 60, 0
1, 229757, Note_on_c, 0, 72, 0
1, 229821, Note_on_c, 0, 71, 84
1, 229821, Note_on_c, 0, 59, 71
1, 229949, Note_on_c, 0, 83, 0
1, 229949, Note_on_c, 0, 95, 0
1, 229949, Note_on_c, 0, 93, 77
1, 229952, Note_on_c, 0, 81, 65
1, 230010, Note_on_c, 0, 81, 0
1, 230010, Note_on_c, 0, 93, 0
1, 230071, Note_on_c, 0, 92, 77
1, 230071, Note_on_c, 0, 80, 65
1, 230134, Note_on_c, 0, 80, 0
1, 230134, Note_on_c, 0, 92, 0
1, 230198, Note_on_c, 0, 93, 77
1, 230198, Note_on_c, 0, 81, 65
1, 230198, Note_on_c, 0, 59, 0
1, 230201, Note_on_c, 0, 71, 0
1, 230201, Note_on_c, 0, 69, 70
1, 230201, Note_on_c, 0, 57, 59
1, 230262, Note_on_c, 0, 81, 0
1, 230262, Note_on_c, 0, 93, 0
1, 230262, Note_on_c, 0, 57, 0
1, 230265, Note_on_c, 0, 69, 0
1, 230327, Note_on_c, 0, 92, 79
1, 230327, Note_on_c, 0, 80, 67
1, 230327, Note_on_c, 0, 56, 61
1, 230330, Note_on_c, 0, 68, 72
1, 230389, Note_on_c, 0, 80, 0
1, 230389, Note_on_c, 0, 92, 0
1, 230389, Note_on_c, 0, 68, 0
1, 230392, Note_on_c, 0, 56, 0
1, 230451, Note_on_c, 0, 95, 84
1, 230451, Note_on_c, 0, 83, 71
1, 230451, Note_on_c, 0, 59, 65
1, 230454, Note_on_c, 0, 71, 77
1, 230513, Note_on_c, 0, 83, 0
1, 230513, Note_on_c, 0, 95, 0
1, 230513, Note_on_c, 0, 71, 0
1, 230516, Note_on_c, 0, 59, 0
1, 230575, Note_on_c, 0, 100, 88
1, 230575, Note_on_c, 0, 88, 74
1, 230575, Note_on_c, 0, 64, 68
1, 230578, Note_on_c, 0, 76, 81
1, 230696, Note_on_c, 0, 88, 0
1, 230696, Note_on_c, 0, 100, 0
1, 230696, Note_on_c, 0, 76, 0
1, 230699, Note_on_c, 0, 64, 0
1, 230826, Note_on_c, 0, 64, 86
1, 230826, Note_on_c, 0, 56, 73
1, 230826, Note_on_c, 0, 59, 73
1, 230829, Note_on_c, 0, 40, 59
1, 230829, Note_on_c, 0, 52, 70
1, 230829, Note_on_c, 0, 44, 59
1, 230832, Note_on_c, 0, 47, 59
1, 230861, Control_c, 0, 64, 127
1, 231347, Note_on_c, 0, 59, 0
1, 231347, Note_on_c, 0, 56, 0
1, 231347, Note_on_c, 0, 64, 0
1, 231350, Note_on_c, 0, 93, 79
1, 231350, Note_on_c, 0, 81, 67
1, 231350, Note_on_c, 0, 47, 0
1, 231353, Note_on_c, 0, 40, 0
1, 231353, Note_on_c, 0, 52, 0
1, 231353, Note_on_c, 0, 44, 0
1, 231356, Note_on_c, 0, 69, 72
1, 231356, Note_on_c, 0, 57, 61
1, 231379, Control_c, 0, 64, 0
1, 231409, Note_on_c, 0, 81, 0
1, 231409, Note_on_c, 0, 93, 0
1, 231409, Note_on_c, 0, 57, 0
1, 231412, Note_on_c, 0, 69, 0
1, 231471, Note_on_c, 0, 96, 84
1, 231471, Note_on_c, 0, 84, 71
1, 231471, Note_on_c, 0, 72, 77
1, 231474, Note_on_c, 0, 60, 65
1, 231533, Note_on_c, 0, 84, 0
1, 231533, Note_on_c, 0, 96, 0
1, 231533, Note_on_c, 0, 60, 0
1, 231536, Note_on_c, 0, 72, 0
1, 231595, Note_on_c, 0, 100, 88
1, 231595, Note_on_c, 0, 88, 74
1, 231595, Note_on_c, 0, 76, 81
1, 231598, Note_on_c, 0, 64, 68
1, 231715, Note_on_c, 0, 88, 0
1, 231715, Note_on_c, 0, 100, 0
1, 231715, Note_on_c, 0, 64, 0
1, 231718, Note_on_c, 0, 76, 0
1, 231846, Note_on_c, 0, 64, 86
1, 231846, Note_on_c, 0, 57, 73
1, 231846, Note_on_c, 0, 60, 73
1, 231849, Note_on_c, 0, 52, 70
1, 231849, Note_on_c, 0, 45, 59
1, 231849, Note_on_c, 0, 48, 59
1, 231852, Note_on_c, 0, 40, 59
1, 231880, Control_c, 0, 64, 127
1, 232368, Note_on_c, 0, 60, 0
1, 232368, Note_on_c, 0, 57, 0
1, 232368, Note_on_c, 0, 64, 0
1, 232371, Note_on_c, 0, 80, 73
1, 232371, Note_on_c, 0, 71, 62
1, 232371, Note_on_c, 0, 40, 0
1, 232374, Note_on_c, 0, 52, 0
1, 232374, Note_on_c, 0, 45, 0
1, 232374, Note_on_c, 0, 48, 0
1, 232377, Note_on_c, 0, 65, 85
1, 232377, Control_c, 0, 64, 0
1, 232393, Control_c, 0, 64, 127
1, 232426, Note_on_c, 0, 71, 0
1, 232426, Note_on_c, 0, 80, 0
1, 232484, Note_on_c, 0, 83, 65
1, 232484, Note_on_c, 0, 74, 55
1, 232542, Note_on_c, 0, 74, 0
1, 232542, Note_on_c, 0, 83, 0
1, 232600, Note_on_c, 0, 80, 73
1, 232600, Note_on_c, 0, 71, 62
1, 232600, Note_on_c, 0, 65, 0
1, 232603, Note_on_c, 0, 64, 73
1, 232629, Control_c, 0, 64, 0
1, 232661, Note_on_c, 0, 71, 0
1, 232661, Note_on_c, 0, 80, 0
1, 232661, Note_on_c, 0, 64, 0
1, 232721, Note_on_c, 0, 83, 67
1, 232721, Note_on_c, 0, 74, 56
1, 232790, Note_on_c, 0, 74, 0
1, 232790, Note_on_c, 0, 83, 0
1, 232845, Control_c, 0, 64, 127
1, 232859, Note_on_c, 0, 53, 84
1, 232859, Note_on_c, 0, 47, 73
1, 232859, Note_on_c, 0, 44, 62
1, 232921, Note_on_c, 0, 44, 0
1, 232921, Note_on_c, 0, 47, 0
1, 232984, Note_on_c, 0, 50, 66
1, 233047, Note_on_c, 0, 50, 0
1, 233110, Note_on_c, 0, 53, 0
1, 233110, Note_on_c, 0, 52, 74
1, 233110, Note_on_c, 0, 44, 62
1, 233113, Note_on_c, 0, 47, 73
1, 233122, Control_c, 0, 64, 0
1, 233173, Note_on_c, 0, 52, 0
1, 233173, Note_on_c, 0, 47, 0
1, 233173, Note_on_c, 0, 44, 0
1, 233236, Note_on_c, 0, 50, 64
1, 233302, Note_on_c, 0, 50, 0
1, 233369, Note_on_c, 0, 81, 73
1, 233369, Note_on_c, 0, 72, 62
1, 233369, Note_on_c, 0, 65, 85
1, 233393, Control_c, 0, 64, 127
1, 233426, Note_on_c, 0, 72, 0
1, 233426, Note_on_c, 0, 81, 0
1, 233484, Note_on_c, 0, 84, 65
1, 233484, Note_on_c, 0, 76, 55
1, 233542, Note_on_c, 0, 76, 0
1, 233542, Note_on_c, 0, 84, 0
1, 233600, Note_on_c, 0, 81, 73
1, 233600, Note_on_c, 0, 72, 62
1, 233600, Note_on_c, 0, 65, 0
1, 233603, Note_on_c, 0, 64, 73
1, 233628, Control_c, 0, 64, 0
1, 233660, Note_on_c, 0, 72, 0
1, 233660, Note_on_c, 0, 81, 0
1, 233660, Note_on_c, 0, 64, 0
1, 233719, Note_on_c, 0, 84, 67
1, 233719, Note_on_c, 0, 76, 56
1, 233786, Note_on_c, 0, 76, 0
1, 233786, Note_on_c, 0, 84, 0
1, 233840, Control_c, 0, 64, 127
1, 233853, Note_on_c, 0, 53, 84
1, 233853, Note_on_c, 0, 45, 73
1, 233915, Note_on_c, 0, 45, 0
1, 233976, Note_on_c, 0, 48, 66
1, 234038, Note_on_c, 0, 48, 0
1, 234100, Note_on_c, 0, 53, 0
1, 234100, Note_on_c, 0, 52, 74
1, 234100, Note_on_c, 0, 45, 73
1, 234112, Control_c, 0, 64, 0
1, 234162, Note_on_c, 0, 52, 0
1, 234162, Note_on_c, 0, 45, 0
1, 234224, Note_on_c, 0, 48, 64
1, 234290, Note_on_c, 0, 48, 0
1, 234355, Note_on_c, 0, 95, 87
1, 234355, Note_on_c, 0, 101, 87
1, 234355, Note_on_c, 0, 89, 73
1, 234358, Note_on_c, 0, 92, 73
1, 234358, Note_on_c, 0, 65, 51
1, 234358, Note_on_c, 0, 77, 60
1, 234361, Note_on_c, 0, 71, 51
1, 234361, Note_on_c, 0, 68, 51
1, 234361, Control_c, 0, 64, 127
1, 234477, Note_on_c, 0, 92, 0
1, 234477, Note_on_c, 0, 95, 0
1, 234477, Note_on_c, 0, 101, 0
1, 234480, Note_on_c, 0, 89, 0
1, 234480, Note_on_c, 0, 100, 86
1, 234480, Note_on_c, 0, 88, 73
1, 234483, Note_on_c, 0, 68, 0
1, 234483, Note_on_c, 0, 65, 0
1, 234483, Note_on_c, 0, 77, 0
1, 234486, Note_on_c, 0, 71, 0
1, 234486, Note_on_c, 0, 76, 60
1, 234486, Note_on_c, 0, 64, 51
1, 234599, Note_on_c, 0, 88, 0
1, 234599, Note_on_c, 0, 100, 0
1, 234599, Note_on_c, 0, 98, 84
1, 234602, Note_on_c, 0, 86, 71
1, 234602, Note_on_c, 0, 64, 0
1, 234602, Note_on_c, 0, 76, 0
1, 234605, Note_on_c, 0, 74, 58
1, 234605, Note_on_c, 0, 62, 49
1, 234721, Note_on_c, 0, 86, 0
1, 234721, Note_on_c, 0, 98, 0
1, 234721, Note_on_c, 0, 96, 83
1, 234724, Note_on_c, 0, 84, 70
1, 234724, Note_on_c, 0, 62, 0
1, 234724, Note_on_c, 0, 74, 0
1, 234727, Note_on_c, 0, 72, 58
1, 234727, Note_on_c, 0, 60, 49
1, 234845, Note_on_c, 0, 84, 0
1, 234845, Note_on_c, 0, 96, 0
1, 234845, Note_on_c, 0, 95, 81
1, 234848, Note_on_c, 0, 83, 68
1, 234848, Note_on_c, 0, 60, 0
1, 234848, Note_on_c, 0, 72, 0
1, 234851, Note_on_c, 0, 71, 56
1, 234851, Note_on_c, 0, 59, 47
1, 234851, Control_c, 0, 64, 0
1, 234909, Control_c, 0, 64, 127
1, 234969, Note_on_c, 0, 83, 0
1, 234969, Note_on_c, 0, 95, 0
1, 234969, Note_on_c, 0, 93, 80
1, 234972, Note_on_c, 0, 81, 68
1, 234972, Note_on_c, 0, 59, 0
1, 234972, Note_on_c, 0, 71, 0
1, 234975, Note_on_c, 0, 69, 56
1, 234975, Note_on_c, 0, 57, 47
1, 235094, Note_on_c, 0, 81, 0
1, 235094, Note_on_c, 0, 93, 0
1, 235094, Note_on_c, 0, 92, 79
1, 235097, Note_on_c, 0, 80, 67
1, 235097, Note_on_c, 0, 57, 0
1, 235097, Note_on_c, 0, 69, 0
1, 235100, Note_on_c, 0, 68, 55
1, 235100, Note_on_c, 0, 56, 46
1, 235220, Note_on_c, 0, 80, 0
1, 235220, Note_on_c, 0, 92, 0
1, 235220, Note_on_c, 0, 88, 77
1, 235223, Note_on_c, 0, 76, 65
1, 235223, Note_on_c, 0, 56, 0
1, 235223, Note_on_c, 0, 68, 0
1, 235226, Note_on_c, 0, 64, 53
1, 235226, Note_on_c, 0, 52, 45
1, 235346, Note_on_c, 0, 76, 0
1, 235346, Note_on_c, 0, 88, 0
1, 235346, Note_on_c, 0, 89, 80
1, 235349, Note_on_c, 0, 77, 68
1, 235349, Note_on_c, 0, 80, 68
1, 235349, Note_on_c, 0, 83, 68
1, 235352, Note_on_c, 0, 52, 0
1, 235352, Note_on_c, 0, 64, 0
1, 235352, Note_on_c, 0, 59, 50
1, 235355, Note_on_c, 0, 65, 59
1, 235355, Note_on_c, 0, 53, 50
1, 235355, Note_on_c, 0, 56, 50
1, 235358, Control_c, 0, 64, 0
1, 235384, Control_c, 0, 64, 127
1, 235470, Note_on_c, 0, 83, 0
1, 235470, Note_on_c, 0, 89, 0
1, 235470, Note_on_c, 0, 77, 0
1, 235473, Note_on_c, 0, 80, 0
1, 235473, Note_on_c, 0, 88, 77
1, 235473, Note_on_c, 0, 76, 65
1, 235476, Note_on_c, 0, 56, 0
1, 235476, Note_on_c, 0, 59, 0
1, 235476, Note_on_c, 0, 65, 0
1, 235479, Note_on_c, 0, 53, 0
1, 235479, Note_on_c, 0, 52, 49
1, 235479, Note_on_c, 0, 64, 58
1, 235594, Note_on_c, 0, 76, 0
1, 235594, Note_on_c, 0, 88, 0
1, 235594, Note_on_c, 0, 86, 75
1, 235597, Note_on_c, 0, 74, 63
1, 235597, Note_on_c, 0, 64, 0
1, 235597, Note_on_c, 0, 52, 0
1, 235600, Note_on_c, 0, 62, 56
1, 235600, Note_on_c, 0, 50, 47
1, 235720, Note_on_c, 0, 74, 0
1, 235720, Note_on_c, 0, 86, 0
1, 235720, Note_on_c, 0, 84, 73
1, 235723, Note_on_c, 0, 72, 62
1, 235723, Note_on_c, 0, 50, 0
1, 235723, Note_on_c, 0, 62, 0
1, 235726, Note_on_c, 0, 60, 55
1, 235726, Note_on_c, 0, 48, 46
1, 235846, Note_on_c, 0, 72, 0
1, 235846, Note_on_c, 0, 84, 0
1, 235846, Note_on_c, 0, 83, 72
1, 235849, Note_on_c, 0, 71, 61
1, 235849, Note_on_c, 0, 48, 0
1, 235849, Note_on_c, 0, 60, 0
1, 235852, Note_on_c, 0, 59, 53
1, 235852, Note_on_c, 0, 47, 45
1, 235852, Control_c, 0, 64, 0
1, 235890, Control_c, 0, 64, 127
1, 235973, Note_on_c, 0, 71, 0
1, 235973, Note_on_c, 0, 83, 0
1, 235973, Note_on_c, 0, 81, 70
1, 235976, Note_on_c, 0, 69, 59
1, 235976, Note_on_c, 0, 47, 0
1, 235976, Note_on_c, 0, 59, 0
1, 235979, Note_on_c, 0, 57, 51
1, 235979, Note_on_c, 0, 45, 43
1, 236101, Note_on_c, 0, 69, 0
1, 236101, Note_on_c, 0, 81, 0
1, 236101, Note_on_c, 0, 80, 68
1, 236104, Note_on_c, 0, 68, 57
1, 236104, Note_on_c, 0, 45, 0
1, 236104, Note_on_c, 0, 57, 0
1, 236107, Note_on_c, 0, 44, 42
1, 236107, Note_on_c, 0, 56, 50
1, 236232, Note_on_c, 0, 68, 0
1, 236232, Note_on_c, 0, 80, 0
1, 236232, Note_on_c, 0, 76, 67
1, 236235, Note_on_c, 0, 64, 56
1, 236235, Note_on_c, 0, 56, 0
1, 236235, Note_on_c, 0, 44, 0
1, 236238, Note_on_c, 0, 40, 40
1, 236238, Note_on_c, 0, 52, 48
1, 236364, Note_on_c, 0, 64, 0
1, 236364, Note_on_c, 0, 76, 0
1, 236364, Note_on_c, 0, 77, 71
1, 236367, Note_on_c, 0, 65, 60
1, 236367, Note_on_c, 0, 52, 0
1, 236367, Note_on_c, 0, 40, 0
1, 236370, Note_on_c, 0, 41, 45
1, 236370, Note_on_c, 0, 53, 53
1, 236370, Control_c, 0, 64, 0
1, 236434, Control_c, 0, 64, 127
1, 236497, Note_on_c, 0, 65, 0
1, 236497, Note_on_c, 0, 77, 0
1, 236497, Note_on_c, 0, 75, 64
1, 236500, Note_on_c, 0, 63, 54
1, 236500, Note_on_c, 0, 53, 0
1, 236500, Note_on_c, 0, 41, 0
1, 236503, Note_on_c, 0, 39, 40
1, 236503, Note_on_c, 0, 51, 48
1, 236630, Note_on_c, 0, 63, 0
1, 236630, Note_on_c, 0, 75, 0
1, 236630, Note_on_c, 0, 76, 69
1, 236633, Note_on_c, 0, 64, 58
1, 236633, Note_on_c, 0, 51, 0
1, 236633, Note_on_c, 0, 39, 0
1, 236636, Note_on_c, 0, 40, 43
1, 236636, Note_on_c, 0, 52, 51
1, 236639, Control_c, 0, 64, 0
1, 236700, Control_c, 0, 64, 127
1, 236763, Note_on_c, 0, 64, 0
1, 236763, Note_on_c, 0, 76, 0
1, 236763, Note_on_c, 0, 74, 65
1, 236766, Note_on_c, 0, 62, 55
1, 236766, Note_on_c, 0, 52, 0
1, 236766, Note_on_c, 0, 40, 0
1, 236769, Note_on_c, 0, 50, 48
1, 236769, Note_on_c, 0, 38, 41
1, 236896, Note_on_c, 0, 62, 0
1, 236896, Note_on_c, 0, 74, 0
1, 236896, Note_on_c, 0, 75, 69
1, 236899, Note_on_c, 0, 63, 58
1, 236899, Note_on_c, 0, 38, 0
1, 236899, Note_on_c, 0, 50, 0
1, 236902, Note_on_c, 0, 51, 51
1, 236902, Note_on_c, 0, 39, 43
1, 236905, Control_c, 0, 64, 0
1, 236934, Control_c, 0, 64, 127
1, 237030, Note_on_c, 0, 63, 0
1, 237030, Note_on_c, 0, 75, 0
1, 237030, Note_on_c, 0, 73, 66
1, 237033, Note_on_c, 0, 61, 56
1, 237033, Note_on_c, 0, 39, 0
1, 237033, Note_on_c, 0, 51, 0
1, 237036, Note_on_c, 0, 49, 49
1, 237036, Note_on_c, 0, 37, 42
1, 237163, Note_on_c, 0, 61, 0
1, 237163, Note_on_c, 0, 73, 0
1, 237163, Note_on_c, 0, 74, 73
1, 237166, Note_on_c, 0, 62, 62
1, 237166, Note_on_c, 0, 37, 0
1, 237166, Note_on_c, 0, 49, 0
1, 237169, Note_on_c, 0, 50, 55
1, 237169, Note_on_c, 0, 38, 45
1, 237169, Control_c, 0, 64, 0
1, 237239, Control_c, 0, 64, 127
1, 237297, Note_on_c, 0, 62, 0
1, 237297, Note_on_c, 0, 74, 0
1, 237297, Note_on_c, 0, 72, 69
1, 237300, Note_on_c, 0, 60, 58
1, 237300, Note_on_c, 0, 38, 0
1, 237300, Note_on_c, 0, 50, 0
1, 237303, Note_on_c, 0, 48, 52
1, 237303, Note_on_c, 0, 36, 42
1, 237430, Note_on_c, 0, 60, 0
1, 237430, Note_on_c, 0, 72, 0
1, 237430, Note_on_c, 0, 73, 77
1, 237433, Note_on_c, 0, 61, 64
1, 237433, Note_on_c, 0, 36, 0
1, 237433, Note_on_c, 0, 48, 0
1, 237436, Note_on_c, 0, 49, 57
1, 237436, Note_on_c, 0, 37, 48
1, 237436, Control_c, 0, 64, 0
1, 237482, Control_c, 0, 64, 127
1, 237567, Note_on_c, 0, 61, 0
1, 237567, Note_on_c, 0, 73, 0
1, 237567, Note_on_c, 0, 71, 72
1, 237570, Note_on_c, 0, 59, 60
1, 237570, Note_on_c, 0, 37, 0
1, 237570, Note_on_c, 0, 49, 0
1, 237573, Note_on_c, 0, 47, 53
1, 237573, Note_on_c, 0, 35, 45
1, 237706, Note_on_c, 0, 59, 0
1, 237706, Note_on_c, 0, 71, 0
1, 237706, Note_on_c, 0, 72, 81
1, 237709, Note_on_c, 0, 60, 69
1, 237709, Note_on_c, 0, 35, 0
1, 237709, Note_on_c, 0, 47, 0
1, 237712, Note_on_c, 0, 48, 60
1, 237712, Note_on_c, 0, 36, 51
1, 237712, Control_c, 0, 64, 0
1, 237813, Control_c, 0, 64, 127
1, 237846, Note_on_c, 0, 60, 0
1, 237846, Note_on_c, 0, 72, 0
1, 237846, Note_on_c, 0, 70, 75
1, 237849, Note_on_c, 0, 58, 64
1, 237849, Note_on_c, 0, 36, 0
1, 237849, Note_on_c, 0, 48, 0
1, 237852, Note_on_c, 0, 34, 47
1, 237852, Note_on_c, 0, 46, 56
1, 237989, Note_on_c, 0, 58, 0
1, 237989, Note_on_c, 0, 70, 0
1, 237989, Note_on_c, 0, 71, 84
1, 237992, Note_on_c, 0, 59, 70
1, 237992, Note_on_c, 0, 46, 0
1, 237992, Note_on_c, 0, 34, 0
1, 237995, Note_on_c, 0, 35, 53
1, 237995, Note_on_c, 0, 47, 62
1, 237995, Control_c, 0, 64, 0
1, 238051, Control_c, 0, 64, 127
1, 238135, Note_on_c, 0, 59, 0
1, 238135, Note_on_c, 0, 71, 0
1, 238135, Note_on_c, 0, 69, 80
1, 238138, Note_on_c, 0, 57, 68
1, 238138, Note_on_c, 0, 47, 0
1, 238138, Note_on_c, 0, 35, 0
1, 238141, Note_on_c, 0, 33, 50
1, 238141, Note_on_c, 0, 45, 59
1, 238287, Note_on_c, 0, 57, 0
1, 238287, Note_on_c, 0, 69, 0
1, 238287, Note_on_c, 0, 70, 88
1, 238290, Note_on_c, 0, 58, 74
1, 238290, Note_on_c, 0, 45, 0
1, 238290, Note_on_c, 0, 33, 0
1, 238293, Note_on_c, 0, 34, 55
1, 238293, Note_on_c, 0, 46, 66
1, 238293, Control_c, 0, 64, 0
1, 238363, Control_c, 0, 64, 127
1, 238452, Note_on_c, 0, 58, 0
1, 238452, Note_on_c, 0, 70, 0
1, 238452, Note_on_c, 0, 68, 84
1, 238455, Note_on_c, 0, 56, 71
1, 238455, Note_on_c, 0, 46, 0
1, 238455, Note_on_c, 0, 34, 0
1, 238458, Note_on_c, 0, 32, 53
1, 238458, Note_on_c, 0, 44, 63
1, 238669, Note_on_c, 0, 56, 0
1, 238669, Note_on_c, 0, 68, 0
1, 238669, Note_on_c, 0, 93, 96
1, 238672, Note_on_c, 0, 81, 81
1, 238672, Note_on_c, 0, 85, 81
1, 238672, Note_on_c, 0, 44, 0
1, 238675, Note_on_c, 0, 32, 0
1, 238675, Note_on_c, 0, 33, 59
1, 238675, Note_on_c, 0, 40, 59
1, 238678, Note_on_c, 0, 45, 71
1, 238678, Control_c, 0, 64, 0
1, 238767, Control_c, 0, 64, 127
1, 238953, Note_on_c, 0, 69, 80
1, 238953, Note_on_c, 0, 61, 68
1, 238953, Note_on_c, 0, 64, 68
1, 238956, Note_on_c, 0, 49, 52
1, 238956, Note_on_c, 0, 57, 61
1, 238956, Note_on_c, 0, 52, 52
1, 239078, Note_on_c, 0, 64, 0
1, 239078, Note_on_c, 0, 69, 0
1, 239078, Note_on_c, 0, 61, 0
1, 239081, Note_on_c, 0, 69, 80
1, 239081, Note_on_c, 0, 61, 68
1, 239081, Note_on_c, 0, 64, 68
1, 239084, Note_on_c, 0, 52, 0
1, 239084, Note_on_c, 0, 49, 0
1, 239084, Note_on_c, 0, 57, 0
1, 239087, Note_on_c, 0, 57, 61
1, 239087, Note_on_c, 0, 52, 52
1, 239087, Note_on_c, 0, 49, 52
1, 239222, Note_on_c, 0, 64, 0
1, 239222, Note_on_c, 0, 85, 0
1, 239222, Note_on_c, 0, 93, 0
1, 239225, Note_on_c, 0, 81, 0
1, 239225, Note_on_c, 0, 61, 0
1, 239225, Note_on_c, 0, 69, 0
1, 239228, Note_on_c, 0, 69, 89
1, 239228, Note_on_c, 0, 61, 75
1, 239228, Note_on_c, 0, 64, 75
1, 239231, Note_on_c, 0, 49, 0
1, 239231, Note_on_c, 0, 45, 0
1, 239231, Note_on_c, 0, 33, 0
1, 239234, Note_on_c, 0, 40, 0
1, 239234, Note_on_c, 0, 52, 0
1, 239234, Note_on_c, 0, 57, 0
1, 239237, Note_on_c, 0, 49, 56
1, 239237, Note_on_c, 0, 52, 56
1, 239237, Note_on_c, 0, 57, 67
1, 239361, Note_on_c, 0, 64, 0
1, 239361, Note_on_c, 0, 61, 0
1, 239361, Note_on_c, 0, 69, 0
1, 239364, Note_on_c, 0, 57, 0
1, 239364, Note_on_c, 0, 52, 0
1, 239364, Note_on_c, 0, 49, 0
1, 239434, Control_c, 0, 64, 0
1, 239501, Note_on_c, 0, 92, 92
1, 239501, Note_on_c, 0, 80, 77
1, 239501, Note_on_c, 0, 83, 77
1, 239504, Note_on_c, 0, 50, 51
1, 239504, Note_on_c, 0, 62, 60
1, 239504, Note_on_c, 0, 53, 51
1, 239515, Control_c, 0, 64, 127
1, 239633, Note_on_c, 0, 83, 0
1, 239633, Note_on_c, 0, 80, 0
1, 239633, Note_on_c, 0, 92, 0
1, 239636, Note_on_c, 0, 95, 92
1, 239636, Note_on_c, 0, 83, 77
1, 239636, Note_on_c, 0, 86, 77
1, 239639, Note_on_c, 0, 53, 0
1, 239639, Note_on_c, 0, 62, 0
1, 239639, Note_on_c, 0, 50, 0
1, 239774, Note_on_c, 0, 86, 0
1, 239774, Note_on_c, 0, 83, 0
1, 239774, Note_on_c, 0, 95, 0
1, 239777, Note_on_c, 0, 93, 99
1, 239777, Note_on_c, 0, 81, 84
1, 239777, Note_on_c, 0, 85, 84
1, 239780, Note_on_c, 0, 57, 73
1, 239780, Note_on_c, 0, 49, 61
1, 239780, Note_on_c, 0, 45, 61
1, 239783, Note_on_c, 0, 52, 61
1, 239783, Control_c, 0, 64, 0
1, 239827, Control_c, 0, 64, 127
1, 239914, Note_on_c, 0, 85, 0
1, 239914, Note_on_c, 0, 81, 0
1, 239914, Note_on_c, 0, 93, 0
1, 239917, Note_on_c, 0, 52, 0
1, 239917, Note_on_c, 0, 57, 0
1, 239917, Note_on_c, 0, 49, 0
1, 239920, Note_on_c, 0, 45, 0
1, 240054, Note_on_c, 0, 92, 92
1, 240054, Note_on_c, 0, 80, 77
1, 240054, Note_on_c, 0, 83, 77
1, 240057, Note_on_c, 0, 41, 53
1, 240057, Note_on_c, 0, 50, 63
1, 240057, Note_on_c, 0, 38, 53
1, 240060, Control_c, 0, 64, 0
1, 240121, Control_c, 0, 64, 127
1, 240184, Note_on_c, 0, 83, 0
1, 240184, Note_on_c, 0, 80, 0
1, 240184, Note_on_c, 0, 92, 0
1, 240187, Note_on_c, 0, 95, 92
1, 240187, Note_on_c, 0, 83, 77
1, 240187, Note_on_c, 0, 86, 77
1, 240190, Note_on_c, 0, 38, 0
1, 240190, Note_on_c, 0, 50, 0
1, 240190, Note_on_c, 0, 41, 0
1, 240321, Note_on_c, 0, 86, 0
1, 240321, Note_on_c, 0, 83, 0
1, 240321, Note_on_c, 0, 95, 0
1, 240324, Note_on_c, 0, 93, 99
1, 240324, Note_on_c, 0, 81, 84
1, 240324, Note_on_c, 0, 85, 84
1, 240327, Note_on_c, 0, 40, 53
1, 240327, Note_on_c, 0, 45, 63
1, 240327, Note_on_c, 0, 33, 53
1, 240330, Note_on_c, 0, 37, 53
1, 240340, Control_c, 0, 64, 0
1, 240410, Control_c, 0, 64, 127
1, 240457, Note_on_c, 0, 85, 0
1, 240457, Note_on_c, 0, 81, 0
1, 240457, Note_on_c, 0, 93, 0
1, 240460, Note_on_c, 0, 37, 0
1, 240460, Note_on_c, 0, 40, 0
1, 240460, Note_on_c, 0, 45, 0
1, 240463, Note_on_c, 0, 33, 0
1, 240594, Note_on_c, 0, 93, 94
1, 240594, Note_on_c, 0, 81, 79
1, 240594, Note_on_c, 0, 85, 79
1, 240597, Note_on_c, 0, 42, 54
1, 240597, Note_on_c, 0, 54, 65
1, 240743, Note_on_c, 0, 85, 0
1, 240743, Note_on_c, 0, 81, 0
1, 240743, Note_on_c, 0, 93, 0
1, 240746, Note_on_c, 0, 54, 0
1, 240746, Note_on_c, 0, 42, 0
1, 240893, Note_on_c, 0, 97, 96
1, 240893, Note_on_c, 0, 85, 81
1, 240893, Note_on_c, 0, 89, 81
1, 240896, Note_on_c, 0, 37, 59
1, 240896, Note_on_c, 0, 44, 59
1, 240896, Note_on_c, 0, 49, 71
1, 240899, Control_c, 0, 64, 0
1, 240993, Control_c, 0, 64, 127
1, 241183, Note_on_c, 0, 73, 80
1, 241183, Note_on_c, 0, 65, 68
1, 241183, Note_on_c, 0, 68, 68
1, 241186, Note_on_c, 0, 61, 61
1, 241186, Note_on_c, 0, 56, 52
1, 241186, Note_on_c, 0, 53, 52
1, 241307, Note_on_c, 0, 68, 0
1, 241307, Note_on_c, 0, 73, 0
1, 241307, Note_on_c, 0, 65, 0
1, 241310, Note_on_c, 0, 73, 80
1, 241310, Note_on_c, 0, 65, 68
1, 241310, Note_on_c, 0, 68, 68
1, 241313, Note_on_c, 0, 53, 0
1, 241313, Note_on_c, 0, 61, 0
1, 241313, Note_on_c, 0, 56, 0
1, 241316, Note_on_c, 0, 53, 52
1, 241316, Note_on_c, 0, 56, 52
1, 241316, Note_on_c, 0, 61, 61
1, 241452, Note_on_c, 0, 68, 0
1, 241452, Note_on_c, 0, 89, 0
1, 241452, Note_on_c, 0, 97, 0
1, 241455, Note_on_c, 0, 85, 0
1, 241455, Note_on_c, 0, 65, 0
1, 241455, Note_on_c, 0, 73, 0
1, 241458, Note_on_c, 0, 73, 89
1, 241458, Note_on_c, 0, 65, 75
1, 241458, Note_on_c, 0, 68, 75
1, 241461, Note_on_c, 0, 61, 0
1, 241461, Note_on_c, 0, 49, 0
1, 241461, Note_on_c, 0, 37, 0
1, 241464, Note_on_c, 0, 44, 0
1, 241464, Note_on_c, 0, 56, 0
1, 241464, Note_on_c, 0, 53, 0
1, 241467, Note_on_c, 0, 61, 67
1, 241467, Note_on_c, 0, 56, 56
1, 241467, Note_on_c, 0, 53, 56
1, 241591, Note_on_c, 0, 68, 0
1, 241591, Note_on_c, 0, 65, 0
1, 241591, Note_on_c, 0, 73, 0
1, 241594, Note_on_c, 0, 53, 0
1, 241594, Note_on_c, 0, 56, 0
1, 241594, Note_on_c, 0, 61, 0
1, 241664, Control_c, 0, 64, 0
1, 241731, Note_on_c, 0, 96, 92
1, 241731, Note_on_c, 0, 84, 77
1, 241731, Note_on_c, 0, 87, 77
1, 241734, Note_on_c, 0, 66, 60
1, 241734, Note_on_c, 0, 57, 51
1, 241734, Note_on_c, 0, 54, 51
1, 241745, Control_c, 0, 64, 127
1, 241863, Note_on_c, 0, 87, 0
1, 241863, Note_on_c, 0, 84, 0
1, 241863, Note_on_c, 0, 96, 0
1, 241866, Note_on_c, 0, 99, 92
1, 241866, Note_on_c, 0, 87, 77
1, 241866, Note_on_c, 0, 90, 77
1, 241869, Note_on_c, 0, 54, 0
1, 241869, Note_on_c, 0, 57, 0
1, 241869, Note_on_c, 0, 66, 0
1, 242004, Note_on_c, 0, 90, 0
1, 242004, Note_on_c, 0, 87, 0
1, 242004, Note_on_c, 0, 99, 0
1, 242007, Note_on_c, 0, 97, 99
1, 242007, Note_on_c, 0, 85, 84
1, 242007, Note_on_c, 0, 89, 84
1, 242010, Note_on_c, 0, 49, 61
1, 242010, Note_on_c, 0, 53, 61
1, 242010, Note_on_c, 0, 56, 61
1, 242013, Note_on_c, 0, 61, 73
1, 242013, Control_c, 0, 64, 0
1, 242057, Control_c, 0, 64, 127
1, 242144, Note_on_c, 0, 89, 0
1, 242144, Note_on_c, 0, 85, 0
1, 242144, Note_on_c, 0, 97, 0
1, 242147, Note_on_c, 0, 61, 0
1, 242147, Note_on_c, 0, 49, 0
1, 242147, Note_on_c, 0, 53, 0
1, 242150, Note_on_c, 0, 56, 0
1, 242284, Note_on_c, 0, 96, 92
1, 242284, Note_on_c, 0, 84, 77
1, 242284, Note_on_c, 0, 87, 77
1, 242287, Note_on_c, 0, 42, 53
1, 242287, Note_on_c, 0, 45, 53
1, 242287, Note_on_c, 0, 54, 63
1, 242290, Control_c, 0, 64, 0
1, 242351, Control_c, 0, 64, 127
1, 242413, Note_on_c, 0, 87, 0
1, 242413, Note_on_c, 0, 84, 0
1, 242413, Note_on_c, 0, 96, 0
1, 242416, Note_on_c, 0, 99, 92
1, 242416, Note_on_c, 0, 87, 77
1, 242416, Note_on_c, 0, 90, 77
1, 242419, Note_on_c, 0, 54, 0
1, 242419, Note_on_c, 0, 45, 0
1, 242419, Note_on_c, 0, 42, 0
1, 242550, Note_on_c, 0, 90, 0
1, 242550, Note_on_c, 0, 87, 0
1, 242550, Note_on_c, 0, 99, 0
1, 242553, Note_on_c, 0, 97, 99
1, 242553, Note_on_c, 0, 85, 84
1, 242553, Note_on_c, 0, 89, 84
1, 242556, Note_on_c, 0, 37, 53
1, 242556, Note_on_c, 0, 49, 63
1, 242556, Note_on_c, 0, 44, 53
1, 242559, Note_on_c, 0, 41, 53
1, 242569, Control_c, 0, 64, 0
1, 242643, Control_c, 0, 64, 127
1, 242692, Note_on_c, 0, 89, 0
1, 242692, Note_on_c, 0, 85, 0
1, 242692, Note_on_c, 0, 97, 0
1, 242695, Note_on_c, 0, 41, 0
1, 242695, Note_on_c, 0, 37, 0
1, 242695, Note_on_c, 0, 49, 0
1, 242698, Note_on_c, 0, 44, 0
1, 242833, Note_on_c, 0, 97, 94
1, 242833, Note_on_c, 0, 85, 79
1, 242833, Note_on_c, 0, 89, 79
1, 242836, Note_on_c, 0, 46, 54
1, 242836, Note_on_c, 0, 58, 65
1, 242980, Note_on_c, 0, 89, 0
1, 242980, Note_on_c, 0, 85, 0
1, 242980, Note_on_c, 0, 97, 0
1, 242983, Note_on_c, 0, 58, 0
1, 242983, Note_on_c, 0, 46, 0
1, 243127, Note_on_c, 0, 101, 96
1, 243127, Note_on_c, 0, 89, 81
1, 243127, Note_on_c, 0, 93, 81
1, 243130, Note_on_c, 0, 45, 59
1, 243130, Note_on_c, 0, 53, 71
1, 243130, Note_on_c, 0, 41, 59
1, 243133, Note_on_c, 0, 48, 59
1, 243133, Control_c, 0, 64, 0
1, 243226, Control_c, 0, 64, 127
1, 243417, Note_on_c, 0, 77, 80
1, 243417, Note_on_c, 0, 69, 68
1, 243417, Note_on_c, 0, 72, 68
1, 243420, Note_on_c, 0, 65, 61
1, 243420, Note_on_c, 0, 57, 52
1, 243420, Note_on_c, 0, 60, 52
1, 243541, Note_on_c, 0, 72, 0
1, 243541, Note_on_c, 0, 77, 0
1, 243541, Note_on_c, 0, 69, 0
1, 243544, Note_on_c, 0, 77, 80
1, 243544, Note_on_c, 0, 69, 68
1, 243544, Note_on_c, 0, 72, 68
1, 243547, Note_on_c, 0, 60, 0
1, 243547, Note_on_c, 0, 65, 0
1, 243547, Note_on_c, 0, 57, 0
1, 243550, Note_on_c, 0, 65, 61
1, 243550, Note_on_c, 0, 57, 52
1, 243550, Note_on_c, 0, 60, 52
1, 243679, Note_on_c, 0, 72, 0
1, 243679, Note_on_c, 0, 93, 0
1, 243679, Note_on_c, 0, 101, 0
1, 243682, Note_on_c, 0, 89, 0
1, 243682, Note_on_c, 0, 69, 0
1, 243682, Note_on_c, 0, 77, 0
1, 243685, Note_on_c, 0, 77, 89
1, 243685, Note_on_c, 0, 69, 75
1, 243685, Note_on_c, 0, 72, 75
1, 243688, Note_on_c, 0, 60, 0
1, 243688, Note_on_c, 0, 65, 0
1, 243688, Note_on_c, 0, 53, 0
1, 243691, Note_on_c, 0, 48, 0
1, 243691, Note_on_c, 0, 45, 0
1, 243691, Note_on_c, 0, 57, 0
1, 243694, Note_on_c, 0, 41, 0
1, 243694, Note_on_c, 0, 57, 56
1, 243694, Note_on_c, 0, 60, 56
1, 243697, Note_on_c, 0, 65, 67
1, 243818, Note_on_c, 0, 72, 0
1, 243818, Note_on_c, 0, 69, 0
1, 243818, Note_on_c, 0, 77, 0
1, 243821, Note_on_c, 0, 65, 0
1, 243821, Note_on_c, 0, 60, 0
1, 243821, Note_on_c, 0, 57, 0
1, 243890, Control_c, 0, 64, 0
1, 243958, Note_on_c, 0, 100, 92
1, 243958, Note_on_c, 0, 88, 77
1, 243958, Note_on_c, 0, 91, 77
1, 243961, Note_on_c, 0, 70, 60
1, 243961, Note_on_c, 0, 61, 51
1, 243961, Note_on_c, 0, 58, 51
1, 243972, Control_c, 0, 64, 127
1, 244091, Note_on_c, 0, 91, 0
1, 244091, Note_on_c, 0, 88, 0
1, 244091, Note_on_c, 0, 100, 0
1, 244094, Note_on_c, 0, 103, 92
1, 244094, Note_on_c, 0, 91, 77
1, 244094, Note_on_c, 0, 94, 77
1, 244097, Note_on_c, 0, 58, 0
1, 244097, Note_on_c, 0, 61, 0
1, 244097, Note_on_c, 0, 70, 0
1, 244232, Note_on_c, 0, 94, 0
1, 244232, Note_on_c, 0, 91, 0
1, 244232, Note_on_c, 0, 103, 0
1, 244235, Note_on_c, 0, 101, 99
1, 244235, Note_on_c, 0, 89, 84
1, 244235, Note_on_c, 0, 93, 84
1, 244238, Note_on_c, 0, 53, 61
1, 244238, Note_on_c, 0, 57, 61
1, 244238, Note_on_c, 0, 60, 61
1, 244241, Note_on_c, 0, 65, 73
1, 244241, Control_c, 0, 64, 0
1, 244285, Control_c, 0, 64, 127
1, 244372, Note_on_c, 0, 93, 0
1, 244372, Note_on_c, 0, 89, 0
1, 244372, Note_on_c, 0, 101, 0
1, 244375, Note_on_c, 0, 65, 0
1, 244375, Note_on_c, 0, 53, 0
1, 244375, Note_on_c, 0, 57, 0
1, 244378, Note_on_c, 0, 60, 0
1, 244512, Note_on_c, 0, 100, 92
1, 244512, Note_on_c, 0, 88, 77
1, 244512, Note_on_c, 0, 91, 77
1, 244515, Note_on_c, 0, 46, 53
1, 244515, Note_on_c, 0, 49, 53
1, 244515, Note_on_c, 0, 58, 63
1, 244518, Control_c, 0, 64, 0
1, 244579, Control_c, 0, 64, 127
1, 244642, Note_on_c, 0, 91, 0
1, 244642, Note_on_c, 0, 88, 0
1, 244642, Note_on_c, 0, 100, 0
1, 244645, Note_on_c, 0, 103, 92
1, 244645, Note_on_c, 0, 91, 77
1, 244645, Note_on_c, 0, 94, 77
1, 244648, Note_on_c, 0, 58, 0
1, 244648, Note_on_c, 0, 49, 0
1, 244648, Note_on_c, 0, 46, 0
1, 244778, Note_on_c, 0, 94, 0
1, 244778, Note_on_c, 0, 91, 0
1, 244778, Note_on_c, 0, 103, 0
1, 244781, Note_on_c, 0, 101, 99
1, 244781, Note_on_c, 0, 89, 84
1, 244781, Note_on_c, 0, 93, 84
1, 244784, Note_on_c, 0, 41, 53
1, 244784, Note_on_c, 0, 53, 63
1, 244784, Note_on_c, 0, 48, 53
1, 244787, Note_on_c, 0, 45, 53
1, 244797, Control_c, 0, 64, 0
1, 244868, Control_c, 0, 64, 127
1, 244915, Note_on_c, 0, 93, 0
1, 244915, Note_on_c, 0, 89, 0
1, 244915, Note_on_c, 0, 101, 0
1, 244918, Note_on_c, 0, 45, 0
1, 244918, Note_on_c, 0, 41, 0
1, 244918, Note_on_c, 0, 53, 0
1, 244921, Note_on_c, 0, 48, 0
1, 245052, Note_on_c, 0, 89, 94
1, 245052, Note_on_c, 0, 77, 79
1, 245052, Note_on_c, 0, 81, 79
1, 245055, Note_on_c, 0, 38, 54
1, 245055, Note_on_c, 0, 50, 65
1, 245196, Note_on_c, 0, 81, 0
1, 245196, Note_on_c, 0, 77, 0
1, 245196, Note_on_c, 0, 89, 0
1, 245199, Note_on_c, 0, 50, 0
1, 245199, Note_on_c, 0, 38, 0
1, 245341, Note_on_c, 0, 93, 82
1, 245341, Note_on_c, 0, 81, 70
1, 245341, Note_on_c, 0, 85, 70
1, 245344, Note_on_c, 0, 33, 65
1, 245344, Note_on_c, 0, 45, 76
1, 245344, Control_c, 0, 64, 0
1, 245419, Control_c, 0, 64, 127
1, 245475, Note_on_c, 0, 85, 0
1, 245475, Note_on_c, 0, 81, 0
1, 245475, Note_on_c, 0, 93, 0
1, 245478, Note_on_c, 0, 92, 76
1, 245478, Note_on_c, 0, 80, 65
1, 245608, Note_on_c, 0, 80, 0
1, 245608, Note_on_c, 0, 92, 0
1, 245608, Note_on_c, 0, 93, 82
1, 245611, Note_on_c, 0, 81, 70
1, 245611, Note_on_c, 0, 45, 0
1, 245611, Note_on_c, 0, 33, 0
1, 245614, Note_on_c, 0, 64, 71
1, 245614, Note_on_c, 0, 57, 61
1, 245614, Note_on_c, 0, 61, 61
1, 245617, Note_on_c, 0, 52, 61
1, 245738, Note_on_c, 0, 81, 0
1, 245738, Note_on_c, 0, 93, 0
1, 245738, Note_on_c, 0, 95, 76
1, 245741, Note_on_c, 0, 83, 65
1, 245873, Note_on_c, 0, 83, 0
1, 245873, Note_on_c, 0, 95, 0
1, 245873, Note_on_c, 0, 97, 82
1, 245876, Note_on_c, 0, 85, 70
1, 245876, Note_on_c, 0, 52, 0
1, 245876, Note_on_c, 0, 64, 0
1, 245879, Note_on_c, 0, 57, 0
1, 245879, Note_on_c, 0, 61, 0
1, 245879, Note_on_c, 0, 45, 78
1, 245882, Note_on_c, 0, 33, 66
1, 245904, Control_c, 0, 64, 0
1, 245980, Control_c, 0, 64, 127
1, 246133, Note_on_c, 0, 33, 0
1, 246133, Note_on_c, 0, 45, 0
1, 246133, Note_on_c, 0, 65, 74
1, 246136, Note_on_c, 0, 53, 62
1, 246136, Note_on_c, 0, 57, 62
1, 246136, Note_on_c, 0, 61, 62
1, 246265, Note_on_c, 0, 85, 0
1, 246265, Note_on_c, 0, 97, 0
1, 246265, Note_on_c, 0, 97, 80
1, 246268, Note_on_c, 0, 85, 68
1, 246401, Note_on_c, 0, 85, 0
1, 246401, Note_on_c, 0, 97, 0
1, 246401, Note_on_c, 0, 97, 82
1, 246404, Note_on_c, 0, 85, 70
1, 246404, Note_on_c, 0, 61, 0
1, 246404, Note_on_c, 0, 65, 0
1, 246407, Note_on_c, 0, 53, 0
1, 246407, Note_on_c, 0, 57, 0
1, 246407, Note_on_c, 0, 45, 76
1, 246410, Note_on_c, 0, 33, 65
1, 246410, Control_c, 0, 64, 0
1, 246481, Control_c, 0, 64, 127
1, 246537, Note_on_c, 0, 85, 0
1, 246537, Note_on_c, 0, 97, 0
1, 246537, Note_on_c, 0, 95, 76
1, 246540, Note_on_c, 0, 83, 65
1, 246667, Note_on_c, 0, 83, 0
1, 246667, Note_on_c, 0, 95, 0
1, 246667, Note_on_c, 0, 93, 82
1, 246670, Note_on_c, 0, 81, 70
1, 246670, Note_on_c, 0, 33, 0
1, 246670, Note_on_c, 0, 45, 0
1, 246673, Note_on_c, 0, 66, 71
1, 246673, Note_on_c, 0, 54, 61
1, 246673, Note_on_c, 0, 62, 61
1, 246798, Note_on_c, 0, 81, 0
1, 246798, Note_on_c, 0, 93, 0
1, 246798, Note_on_c, 0, 92, 76
1, 246801, Note_on_c, 0, 80, 65
1, 246934, Note_on_c, 0, 80, 0
1, 246934, Note_on_c, 0, 92, 0
1, 246934, Note_on_c, 0, 93, 82
1, 246937, Note_on_c, 0, 81, 70
1, 246937, Note_on_c, 0, 62, 0
1, 246937, Note_on_c, 0, 54, 0
1, 246940, Note_on_c, 0, 66, 0
1, 246940, Note_on_c, 0, 45, 78
1, 246940, Note_on_c, 0, 33, 66
1, 246964, Control_c, 0, 64, 0
1, 247040, Control_c, 0, 64, 127
1, 247194, Note_on_c, 0, 33, 0
1, 247194, Note_on_c, 0, 45, 0
1, 247194, Note_on_c, 0, 60, 62
1, 247197, Note_on_c, 0, 54, 62
1, 247197, Note_on_c, 0, 63, 74
1, 247326, Note_on_c, 0, 81, 0
1, 247326, Note_on_c, 0, 93, 0
1, 247326, Note_on_c, 0, 102, 80
1, 247329, Note_on_c, 0, 90, 68
1, 247463, Note_on_c, 0, 90, 0
1, 247463, Note_on_c, 0, 102, 0
1, 247463, Note_on_c, 0, 100, 82
1, 247466, Note_on_c, 0, 88, 70
1, 247466, Note_on_c, 0, 63, 0
1, 247466, Note_on_c, 0, 54, 0
1, 247469, Note_on_c, 0, 60, 0
1, 247469, Note_on_c, 0, 33, 65
1, 247469, Note_on_c, 0, 45, 76
1, 247472, Control_c, 0, 64, 0
1, 247536, Control_c, 0, 64, 127
1, 247587, Note_on_c, 0, 88, 0
1, 247587, Note_on_c, 0, 100, 0
1, 247587, Note_on_c, 0, 98, 76
1, 247590, Note_on_c, 0, 86, 65
1, 247719, Note_on_c, 0, 86, 0
1, 247719, Note_on_c, 0, 98, 0
1, 247719, Note_on_c, 0, 97, 82
1, 247722, Note_on_c, 0, 85, 70
1, 247722, Note_on_c, 0, 45, 0
1, 247722, Note_on_c, 0, 33, 0
1, 247725, Note_on_c, 0, 56, 61
1, 247725, Note_on_c, 0, 64, 71
1, 247725, Note_on_c, 0, 52, 61
1, 247847, Note_on_c, 0, 85, 0
1, 247847, Note_on_c, 0, 97, 0
1, 247847, Note_on_c, 0, 100, 76
1, 247850, Note_on_c, 0, 88, 65
1, 247986, Note_on_c, 0, 88, 0
1, 247986, Note_on_c, 0, 100, 0
1, 247986, Note_on_c, 0, 98, 82
1, 247989, Note_on_c, 0, 86, 70
1, 247989, Note_on_c, 0, 52, 0
1, 247989, Note_on_c, 0, 64, 0
1, 247992, Note_on_c, 0, 56, 0
1, 247992, Note_on_c, 0, 45, 76
1, 247992, Note_on_c, 0, 33, 65
1, 247995, Control_c, 0, 64, 0
1, 248061, Control_c, 0, 64, 127
1, 248113, Note_on_c, 0, 86, 0
1, 248113, Note_on_c, 0, 98, 0
1, 248113, Note_on_c, 0, 97, 76
1, 248116, Note_on_c, 0, 85, 65
1, 248246, Note_on_c, 0, 85, 0
1, 248246, Note_on_c, 0, 97, 0
1, 248246, Note_on_c, 0, 95, 82
1, 248249, Note_on_c, 0, 83, 70
1, 248249, Note_on_c, 0, 33, 0
1, 248249, Note_on_c, 0, 45, 0
1, 248252, Note_on_c, 0, 59, 61
1, 248252, Note_on_c, 0, 56, 61
1, 248252, Note_on_c, 0, 52, 61
1, 248255, Note_on_c, 0, 64, 71
1, 248377, Note_on_c, 0, 83, 0
1, 248377, Note_on_c, 0, 95, 0
1, 248377, Note_on_c, 0, 98, 76
1, 248380, Note_on_c, 0, 86, 65
1, 248513, Note_on_c, 0, 86, 0
1, 248513, Note_on_c, 0, 98, 0
1, 248513, Note_on_c, 0, 97, 82
1, 248516, Note_on_c, 0, 85, 70
1, 248516, Note_on_c, 0, 64, 0
1, 248516, Note_on_c, 0, 59, 0
1, 248519, Note_on_c, 0, 56, 0
1, 248519, Note_on_c, 0, 52, 0
1, 248519, Note_on_c, 0, 33, 65
1, 248522, Note_on_c, 0, 45, 76
1, 248522, Control_c, 0, 64, 0
1, 248591, Control_c, 0, 64, 127
1, 248645, Note_on_c, 0, 85, 0
1, 248645, Note_on_c, 0, 97, 0
1, 248645, Note_on_c, 0, 95, 76
1, 248648, Note_on_c, 0, 83, 65
1, 248780, Note_on_c, 0, 83, 0
1, 248780, Note_on_c, 0, 95, 0
1, 248780, Note_on_c, 0, 93, 82
1, 248783, Note_on_c, 0, 81, 70
1, 248783, Note_on_c, 0, 45, 0
1, 248783, Note_on_c, 0, 33, 0
1, 248786, Note_on_c, 0, 64, 71
1, 248786, Note_on_c, 0, 57, 61
1, 248786, Note_on_c, 0, 52, 61
1, 248789, Note_on_c, 0, 61, 61
1, 248910, Note_on_c, 0, 81, 0
1, 248910, Note_on_c, 0, 93, 0
1, 248910, Note_on_c, 0, 97, 76
1, 248913, Note_on_c, 0, 85, 65
1, 249045, Note_on_c, 0, 85, 0
1, 249045, Note_on_c, 0, 97, 0
1, 249045, Note_on_c, 0, 95, 82
1, 249048, Note_on_c, 0, 83, 70
1, 249048, Note_on_c, 0, 61, 0
1, 249048, Note_on_c, 0, 64, 0
1, 249051, Note_on_c, 0, 57, 0
1, 249051, Note_on_c, 0, 52, 0
1, 249051, Note_on_c, 0, 33, 65
1, 249054, Note_on_c, 0, 45, 76
1, 249054, Control_c, 0, 64, 0
1, 249123, Control_c, 0, 64, 127
1, 249179, Note_on_c, 0, 83, 0
1, 249179, Note_on_c, 0, 95, 0
1, 249179, Note_on_c, 0, 93, 76
1, 249182, Note_on_c, 0, 81, 65
1, 249312, Note_on_c, 0, 81, 0
1, 249312, Note_on_c, 0, 93, 0
1, 249312, Note_on_c, 0, 92, 82
1, 249315, Note_on_c, 0, 80, 70
1, 249315, Note_on_c, 0, 45, 0
1, 249315, Note_on_c, 0, 33, 0
1, 249318, Note_on_c, 0, 59, 61
1, 249318, Note_on_c, 0, 52, 61
1, 249318, Note_on_c, 0, 64, 71
1, 249581, Note_on_c, 0, 80, 0
1, 249581, Note_on_c, 0, 92, 0
1, 249581, Note_on_c, 0, 93, 82
1, 249584, Note_on_c, 0, 81, 70
1, 249584, Note_on_c, 0, 64, 0
1, 249584, Note_on_c, 0, 52, 0
1, 249587, Note_on_c, 0, 59, 0
1, 249587, Note_on_c, 0, 33, 65
1, 249587, Note_on_c, 0, 45, 76
1, 249590, Control_c, 0, 64, 0
1, 249660, Control_c, 0, 64, 127
1, 249716, Note_on_c, 0, 81, 0
1, 249716, Note_on_c, 0, 93, 0
1, 249716, Note_on_c, 0, 92, 76
1, 249719, Note_on_c, 0, 80, 65
1, 249850, Note_on_c, 0, 80, 0
1, 249850, Note_on_c, 0, 92, 0
1, 249850, Note_on_c, 0, 93, 82
1, 249853, Note_on_c, 0, 81, 70
1, 249853, Note_on_c, 0, 45, 0
1, 249853, Note_on_c, 0, 33, 0
1, 249856, Note_on_c, 0, 61, 61
1, 249856, Note_on_c, 0, 64, 71
1, 249856, Note_on_c, 0, 57, 61
1, 249859, Note_on_c, 0, 52, 61
1, 249980, Note_on_c, 0, 81, 0
1, 249980, Note_on_c, 0, 93, 0
1, 249980, Note_on_c, 0, 95, 76
1, 249983, Note_on_c, 0, 83, 65
1, 250115, Note_on_c, 0, 83, 0
1, 250115, Note_on_c, 0, 95, 0
1, 250115, Note_on_c, 0, 97, 82
1, 250118, Note_on_c, 0, 85, 70
1, 250118, Note_on_c, 0, 52, 0
1, 250118, Note_on_c, 0, 61, 0
1, 250121, Note_on_c, 0, 64, 0
1, 250121, Note_on_c, 0, 57, 0
1, 250121, Note_on_c, 0, 45, 78
1, 250124, Note_on_c, 0, 33, 66
1, 250145, Control_c, 0, 64, 0
1, 250222, Control_c, 0, 64, 127
1, 250377, Note_on_c, 0, 33, 0
1, 250377, Note_on_c, 0, 45, 0
1, 250377, Note_on_c, 0, 65, 74
1, 250380, Note_on_c, 0, 61, 62
1, 250380, Note_on_c, 0, 57, 62
1, 250380, Note_on_c, 0, 53, 62
1, 250509, Note_on_c, 0, 85, 0
1, 250509, Note_on_c, 0, 97, 0
1, 250509, Note_on_c, 0, 97, 80
1, 250512, Note_on_c, 0, 85, 68
1, 250642, Note_on_c, 0, 85, 0
1, 250642, Note_on_c, 0, 97, 0
1, 250642, Note_on_c, 0, 97, 82
1, 250645, Note_on_c, 0, 85, 70
1, 250645, Note_on_c, 0, 53, 0
1, 250645, Note_on_c, 0, 65, 0
1, 250648, Note_on_c, 0, 61, 0
1, 250648, Note_on_c, 0, 57, 0
1, 250648, Note_on_c, 0, 45, 76
1, 250651, Note_on_c, 0, 33, 65
1, 250651, Control_c, 0, 64, 0
1, 250723, Control_c, 0, 64, 127
1, 250779, Note_on_c, 0, 85, 0
1, 250779, Note_on_c, 0, 97, 0
1, 250779, Note_on_c, 0, 95, 76
1, 250782, Note_on_c, 0, 83, 65
1, 250910, Note_on_c, 0, 83, 0
1, 250910, Note_on_c, 0, 95, 0
1, 250910, Note_on_c, 0, 93, 82
1, 250913, Note_on_c, 0, 81, 70
1, 250913, Note_on_c, 0, 33, 0
1, 250913, Note_on_c, 0, 45, 0
1, 250916, Note_on_c, 0, 62, 61
1, 250916, Note_on_c, 0, 54, 61
1, 250916, Note_on_c, 0, 66, 71
1, 251043, Note_on_c, 0, 81, 0
1, 251043, Note_on_c, 0, 93, 0
1, 251043, Note_on_c, 0, 92, 76
1, 251046, Note_on_c, 0, 80, 65
1, 251179, Note_on_c, 0, 80, 0
1, 251179, Note_on_c, 0, 92, 0
1, 251179, Note_on_c, 0, 93, 82
1, 251182, Note_on_c, 0, 81, 70
1, 251182, Note_on_c, 0, 66, 0
1, 251182, Note_on_c, 0, 54, 0
1, 251185, Note_on_c, 0, 62, 0
1, 251185, Note_on_c, 0, 33, 66
1, 251185, Note_on_c, 0, 45, 78
1, 251209, Control_c, 0, 64, 0
1, 251286, Control_c, 0, 64, 127
1, 251441, Note_on_c, 0, 45, 0
1, 251441, Note_on_c, 0, 33, 0
1, 251441, Note_on_c, 0, 60, 62
1, 251444, Note_on_c, 0, 54, 62
1, 251444, Note_on_c, 0, 63, 74
1, 251574, Note_on_c, 0, 81, 0
1, 251574, Note_on_c, 0, 93, 0
1, 251574, Note_on_c, 0, 102, 80
1, 251577, Note_on_c, 0, 90, 68
1, 251710, Note_on_c, 0, 90, 0
1, 251710, Note_on_c, 0, 102, 0
1, 251710, Note_on_c, 0, 100, 82
1, 251713, Note_on_c, 0, 88, 70
1, 251713, Note_on_c, 0, 63, 0
1, 251713, Note_on_c, 0, 54, 0
1, 251716, Note_on_c, 0, 60, 0
1, 251716, Note_on_c, 0, 45, 76
1, 251716, Note_on_c, 0, 33, 65
1, 251719, Control_c, 0, 64, 0
1, 251786, Control_c, 0, 64, 127
1, 251840, Note_on_c, 0, 88, 0
1, 251840, Note_on_c, 0, 100, 0
1, 251840, Note_on_c, 0, 98, 76
1, 251843, Note_on_c, 0, 86, 65
1, 251973, Note_on_c, 0, 86, 0
1, 251973, Note_on_c, 0, 98, 0
1, 251973, Note_on_c, 0, 97, 82
1, 251976, Note_on_c, 0, 85, 70
1, 251976, Note_on_c, 0, 33, 0
1, 251976, Note_on_c, 0, 45, 0
1, 251979, Note_on_c, 0, 56, 61
1, 251979, Note_on_c, 0, 52, 61
1, 251979, Note_on_c, 0, 64, 71
1, 252104, Note_on_c, 0, 85, 0
1, 252104, Note_on_c, 0, 97, 0
1, 252104, Note_on_c, 0, 100, 76
1, 252107, Note_on_c, 0, 88, 65
1, 252240, Note_on_c, 0, 88, 0
1, 252240, Note_on_c, 0, 100, 0
1, 252240, Note_on_c, 0, 98, 82
1, 252243, Note_on_c, 0, 86, 70
1, 252243, Note_on_c, 0, 64, 0
1, 252243, Note_on_c, 0, 52, 0
1, 252246, Note_on_c, 0, 56, 0
1, 252246, Note_on_c, 0, 45, 76
1, 252246, Note_on_c, 0, 33, 65
1, 252249, Control_c, 0, 64, 0
1, 252319, Control_c, 0, 64, 127
1, 252374, Note_on_c, 0, 86, 0
1, 252374, Note_on_c, 0, 98, 0
1, 252374, Note_on_c, 0, 97, 76
1, 252377, Note_on_c, 0, 85, 65
1, 252509, Note_on_c, 0, 85, 0
1, 252509, Note_on_c, 0, 97, 0
1, 252509, Note_on_c, 0, 95, 82
1, 252512, Note_on_c, 0, 83, 70
1, 252512, Note_on_c, 0, 33, 0
1, 252512, Note_on_c, 0, 45, 0
1, 252515, Note_on_c, 0, 59, 61
1, 252515, Note_on_c, 0, 56, 61
1, 252515, Note_on_c, 0, 64, 71
1, 252518, Note_on_c, 0, 52, 61
1, 252641, Note_on_c, 0, 83, 0
1, 252641, Note_on_c, 0, 95, 0
1, 252641, Note_on_c, 0, 98, 76
1, 252644, Note_on_c, 0, 86, 65
1, 252779, Note_on_c, 0, 86, 0
1, 252779, Note_on_c, 0, 98, 0
1, 252779, Note_on_c, 0, 97, 82
1, 252782, Note_on_c, 0, 85, 70
1, 252782, Note_on_c, 0, 52, 0
1, 252782, Note_on_c, 0, 59, 0
1, 252785, Note_on_c, 0, 56, 0
1, 252785, Note_on_c, 0, 64, 0
1, 252785, Note_on_c, 0, 33, 65
1, 252788, Note_on_c, 0, 45, 76
1, 252788, Control_c, 0, 64, 0
1, 252859, Control_c, 0, 64, 127
1, 252914, Note_on_c, 0, 85, 0
1, 252914, Note_on_c, 0, 97, 0
1, 252914, Note_on_c, 0, 95, 76
1, 252917, Note_on_c, 0, 83, 65
1, 253049, Note_on_c, 0, 83, 0
1, 253049, Note_on_c, 0, 95, 0
1, 253049, Note_on_c, 0, 93, 82
1, 253052, Note_on_c, 0, 81, 70
1, 253052, Note_on_c, 0, 45, 0
1, 253052, Note_on_c, 0, 33, 0
1, 253055, Note_on_c, 0, 64, 71
1, 253055, Note_on_c, 0, 61, 61
1, 253055, Note_on_c, 0, 52, 61
1, 253058, Note_on_c, 0, 57, 61
1, 253181, Note_on_c, 0, 81, 0
1, 253181, Note_on_c, 0, 93, 0
1, 253181, Note_on_c, 0, 97, 76
1, 253184, Note_on_c, 0, 85, 65
1, 253318, Note_on_c, 0, 85, 0
1, 253318, Note_on_c, 0, 97, 0
1, 253318, Note_on_c, 0, 95, 82
1, 253321, Note_on_c, 0, 83, 70
1, 253321, Note_on_c, 0, 57, 0
1, 253321, Note_on_c, 0, 64, 0
1, 253324, Note_on_c, 0, 61, 0
1, 253324, Note_on_c, 0, 52, 0
1, 253324, Note_on_c, 0, 33, 65
1, 253327, Note_on_c, 0, 45, 76
1, 253327, Control_c, 0, 64, 0
1, 253399, Control_c, 0, 64, 127
1, 253456, Note_on_c, 0, 83, 0
1, 253456, Note_on_c, 0, 95, 0
1, 253456, Note_on_c, 0, 93, 76
1, 253459, Note_on_c, 0, 81, 65
1, 253594, Note_on_c, 0, 81, 0
1, 253594, Note_on_c, 0, 93, 0
1, 253594, Note_on_c, 0, 92, 82
1, 253597, Note_on_c, 0, 80, 70
1, 253597, Note_on_c, 0, 45, 0
1, 253597, Note_on_c, 0, 33, 0
1, 253600, Note_on_c, 0, 64, 71
1, 253600, Note_on_c, 0, 59, 61
1, 253600, Note_on_c, 0, 52, 61
1, 253863, Note_on_c, 0, 80, 0
1, 253863, Note_on_c, 0, 92, 0
1, 253863, Note_on_c, 0, 81, 69
1, 253866, Note_on_c, 0, 69, 58
1, 253866, Note_on_c, 0, 52, 0
1, 253866, Note_on_c, 0, 59, 0
1, 253869, Note_on_c, 0, 64, 0
1, 253869, Note_on_c, 0, 57, 48
1, 253869, Note_on_c, 0, 45, 40
1, 253872, Control_c, 0, 64, 0
1, 253938, Control_c, 0, 64, 127
1, 253994, Note_on_c, 0, 69, 0
1, 253994, Note_on_c, 0, 81, 0
1, 253994, Note_on_c, 0, 80, 60
1, 253997, Note_on_c, 0, 68, 51
1, 253997, Note_on_c, 0, 45, 0
1, 253997, Note_on_c, 0, 57, 0
1, 254000, Note_on_c, 0, 56, 42
1, 254000, Note_on_c, 0, 44, 35
1, 254125, Note_on_c, 0, 68, 0
1, 254125, Note_on_c, 0, 80, 0
1, 254125, Note_on_c, 0, 77, 71
1, 254128, Note_on_c, 0, 65, 60
1, 254128, Note_on_c, 0, 44, 0
1, 254128, Note_on_c, 0, 56, 0
1, 254131, Note_on_c, 0, 41, 42
1, 254131, Note_on_c, 0, 53, 49
1, 254254, Note_on_c, 0, 65, 0
1, 254254, Note_on_c, 0, 77, 0
1, 254254, Note_on_c, 0, 81, 64
1, 254257, Note_on_c, 0, 69, 54
1, 254257, Note_on_c, 0, 53, 0
1, 254257, Note_on_c, 0, 41, 0
1, 254260, Note_on_c, 0, 45, 37
1, 254260, Note_on_c, 0, 57, 44
1, 254382, Note_on_c, 0, 69, 0
1, 254382, Note_on_c, 0, 81, 0
1, 254382, Note_on_c, 0, 80, 75
1, 254385, Note_on_c, 0, 68, 63
1, 254385, Note_on_c, 0, 57, 0
1, 254385, Note_on_c, 0, 45, 0
1, 254388, Note_on_c, 0, 44, 44
1, 254388, Note_on_c, 0, 56, 52
1, 254425, Control_c, 0, 64, 0
1, 254492, Control_c, 0, 64, 127
1, 254510, Note_on_c, 0, 68, 0
1, 254510, Note_on_c, 0, 80, 0
1, 254510, Note_on_c, 0, 77, 71
1, 254513, Note_on_c, 0, 65, 60
1, 254513, Note_on_c, 0, 56, 0
1, 254513, Note_on_c, 0, 44, 0
1, 254516, Note_on_c, 0, 53, 49
1, 254516, Note_on_c, 0, 41, 42
1, 254638, Note_on_c, 0, 65, 0
1, 254638, Note_on_c, 0, 77, 0
1, 254638, Note_on_c, 0, 76, 77
1, 254641, Note_on_c, 0, 64, 65
1, 254641, Note_on_c, 0, 41, 0
1, 254641, Note_on_c, 0, 53, 0
1, 254644, Note_on_c, 0, 52, 53
1, 254644, Note_on_c, 0, 40, 45
1, 254766, Note_on_c, 0, 64, 0
1, 254766, Note_on_c, 0, 76, 0
1, 254766, Note_on_c, 0, 80, 73
1, 254769, Note_on_c, 0, 68, 62
1, 254769, Note_on_c, 0, 40, 0
1, 254769, Note_on_c, 0, 52, 0
1, 254772, Note_on_c, 0, 56, 51
1, 254772, Note_on_c, 0, 44, 43
1, 254894, Note_on_c, 0, 68, 0
1, 254894, Note_on_c, 0, 80, 0
1, 254894, Note_on_c, 0, 77, 81
1, 254897, Note_on_c, 0, 65, 69
1, 254897, Note_on_c, 0, 44, 0
1, 254897, Note_on_c, 0, 56, 0
1, 254900, Note_on_c, 0, 53, 56
1, 254900, Note_on_c, 0, 41, 48
1, 254900, Control_c, 0, 64, 0
1, 254967, Control_c, 0, 64, 127
1, 255022, Note_on_c, 0, 65, 0
1, 255022, Note_on_c, 0, 77, 0
1, 255022, Note_on_c, 0, 76, 72
1, 255025, Note_on_c, 0, 64, 61
1, 255025, Note_on_c, 0, 41, 0
1, 255025, Note_on_c, 0, 53, 0
1, 255028, Note_on_c, 0, 40, 42
1, 255028, Note_on_c, 0, 52, 50
1, 255149, Note_on_c, 0, 64, 0
1, 255149, Note_on_c, 0, 76, 0
1, 255149, Note_on_c, 0, 74, 84
1, 255152, Note_on_c, 0, 62, 71
1, 255152, Note_on_c, 0, 52, 0
1, 255152, Note_on_c, 0, 40, 0
1, 255155, Note_on_c, 0, 38, 49
1, 255155, Note_on_c, 0, 50, 58
1, 255276, Note_on_c, 0, 62, 0
1, 255276, Note_on_c, 0, 74, 0
1, 255276, Note_on_c, 0, 77, 75
1, 255279, Note_on_c, 0, 65, 63
1, 255279, Note_on_c, 0, 50, 0
1, 255279, Note_on_c, 0, 38, 0
1, 255282, Note_on_c, 0, 41, 44
1, 255282, Note_on_c, 0, 53, 52
1, 255402, Note_on_c, 0, 65, 0
1, 255402, Note_on_c, 0, 77, 0
1, 255402, Note_on_c, 0, 74, 88
1, 255405, Note_on_c, 0, 62, 74
1, 255405, Note_on_c, 0, 53, 0
1, 255405, Note_on_c, 0, 41, 0
1, 255408, Note_on_c, 0, 38, 51
1, 255408, Note_on_c, 0, 50, 61
1, 255445, Control_c, 0, 64, 0
1, 255510, Control_c, 0, 64, 127
1, 255529, Note_on_c, 0, 62, 0
1, 255529, Note_on_c, 0, 74, 0
1, 255529, Note_on_c, 0, 73, 83
1, 255532, Note_on_c, 0, 61, 70
1, 255532, Note_on_c, 0, 50, 0
1, 255532, Note_on_c, 0, 38, 0
1, 255535, Note_on_c, 0, 37, 49
1, 255535, Note_on_c, 0, 49, 58
1, 255655, Note_on_c, 0, 61, 0
1, 255655, Note_on_c, 0, 73, 0
1, 255655, Note_on_c, 0, 58, 76
1, 255658, Note_on_c, 0, 70, 90
1, 255658, Note_on_c, 0, 49, 0
1, 255658, Note_on_c, 0, 37, 0
1, 255661, Note_on_c, 0, 46, 62
1, 255661, Note_on_c, 0, 34, 52
1, 255772, Control_c, 0, 64, 0
1, 255792, Note_on_c, 0, 70, 0
1, 255792, Note_on_c, 0, 58, 0
1, 255792, Note_on_c, 0, 34, 0
1, 255795, Note_on_c, 0, 46, 0
1, 255929, Note_on_c, 0, 81, 69
1, 255929, Note_on_c, 0, 69, 58
1, 255929, Note_on_c, 0, 57, 48
1, 255932, Note_on_c, 0, 45, 40
1, 255932, Control_c, 0, 64, 0
1, 256003, Control_c, 0, 64, 127
1, 256059, Note_on_c, 0, 69, 0
1, 256059, Note_on_c, 0, 81, 0
1, 256059, Note_on_c, 0, 80, 60
1, 256062, Note_on_c, 0, 68, 51
1, 256062, Note_on_c, 0, 45, 0
1, 256062, Note_on_c, 0, 57, 0
1, 256065, Note_on_c, 0, 56, 42
1, 256065, Note_on_c, 0, 44, 35
1, 256189, Note_on_c, 0, 68, 0
1, 256189, Note_on_c, 0, 80, 0
1, 256189, Note_on_c, 0, 77, 71
1, 256192, Note_on_c, 0, 65, 60
1, 256192, Note_on_c, 0, 44, 0
1, 256192, Note_on_c, 0, 56, 0
1, 256195, Note_on_c, 0, 53, 49
1, 256195, Note_on_c, 0, 41, 42
1, 256317, Note_on_c, 0, 65, 0
1, 256317, Note_on_c, 0, 77, 0
1, 256317, Note_on_c, 0, 81, 64
1, 256320, Note_on_c, 0, 69, 54
1, 256320, Note_on_c, 0, 41, 0
1, 256320, Note_on_c, 0, 53, 0
1, 256323, Note_on_c, 0, 57, 44
1, 256323, Note_on_c, 0, 45, 37
1, 256445, Note_on_c, 0, 69, 0
1, 256445, Note_on_c, 0, 81, 0
1, 256445, Note_on_c, 0, 80, 75
1, 256448, Note_on_c, 0, 68, 63
1, 256448, Note_on_c, 0, 45, 0
1, 256448, Note_on_c, 0, 57, 0
1, 256451, Note_on_c, 0, 56, 52
1, 256451, Note_on_c, 0, 44, 44
1, 256488, Control_c, 0, 64, 0
1, 256554, Control_c, 0, 64, 127
1, 256573, Note_on_c, 0, 68, 0
1, 256573, Note_on_c, 0, 80, 0
1, 256573, Note_on_c, 0, 77, 71
1, 256576, Note_on_c, 0, 65, 60
1, 256576, Note_on_c, 0, 44, 0
1, 256576, Note_on_c, 0, 56, 0
1, 256579, Note_on_c, 0, 53, 49
1, 256579, Note_on_c, 0, 53, 42
1, 256700, Note_on_c, 0, 65, 0
1, 256700, Note_on_c, 0, 77, 0
1, 256700, Note_on_c, 0, 76, 77
1, 256703, Note_on_c, 0, 64, 65
1, 256703, Note_on_c, 0, 53, 0
1, 256703, Note_on_c, 0, 53, 0
1, 256706, Note_on_c, 0, 52, 53
1, 256706, Note_on_c, 0, 40, 45
1, 256826, Note_on_c, 0, 64, 0
1, 256826, Note_on_c, 0, 76, 0
1, 256826, Note_on_c, 0, 80, 73
1, 256829, Note_on_c, 0, 68, 62
1, 256829, Note_on_c, 0, 40, 0
1, 256829, Note_on_c, 0, 52, 0
1, 256832, Note_on_c, 0, 44, 43
1, 256832, Note_on_c, 0, 56, 51
1, 256952, Note_on_c, 0, 68, 0
1, 256952, Note_on_c, 0, 80, 0
1, 256952, Note_on_c, 0, 77, 81
1, 256955, Note_on_c, 0, 65, 69
1, 256955, Note_on_c, 0, 56, 0
1, 256955, Note_on_c, 0, 44, 0
1, 256958, Note_on_c, 0, 41, 48
1, 256958, Note_on_c, 0, 53, 56
1, 256958, Control_c, 0, 64, 0
1, 257024, Control_c, 0, 64, 127
1, 257079, Note_on_c, 0, 65, 0
1, 257079, Note_on_c, 0, 77, 0
1, 257079, Note_on_c, 0, 76, 72
1, 257082, Note_on_c, 0, 64, 61
1, 257082, Note_on_c, 0, 53, 0
1, 257082, Note_on_c, 0, 41, 0
1, 257085, Note_on_c, 0, 40, 42
1, 257085, Note_on_c, 0, 52, 50
1, 257206, Note_on_c, 0, 64, 0
1, 257206, Note_on_c, 0, 76, 0
1, 257206, Note_on_c, 0, 74, 84
1, 257209, Note_on_c, 0, 62, 71
1, 257209, Note_on_c, 0, 52, 0
1, 257209, Note_on_c, 0, 40, 0
1, 257212, Note_on_c, 0, 38, 49
1, 257212, Note_on_c, 0, 50, 58
1, 257330, Note_on_c, 0, 62, 0
1, 257330, Note_on_c, 0, 74, 0
1, 257330, Note_on_c, 0, 77, 75
1, 257333, Note_on_c, 0, 65, 63
1, 257333, Note_on_c, 0, 50, 0
1, 257333, Note_on_c, 0, 38, 0
1, 257336, Note_on_c, 0, 41, 44
1, 257336, Note_on_c, 0, 53, 52
1, 257454, Note_on_c, 0, 65, 0
1, 257454, Note_on_c, 0, 77, 0
1, 257454, Note_on_c, 0, 74, 88
1, 257457, Note_on_c, 0, 62, 74
1, 257457, Note_on_c, 0, 53, 0
1, 257457, Note_on_c, 0, 41, 0
1, 257460, Note_on_c, 0, 38, 51
1, 257460, Note_on_c, 0, 50, 61
1, 257495, Control_c, 0, 64, 0
1, 257559, Control_c, 0, 64, 127
1, 257577, Note_on_c, 0, 62, 0
1, 257577, Note_on_c, 0, 74, 0
1, 257577, Note_on_c, 0, 73, 83
1, 257580, Note_on_c, 0, 61, 70
1, 257580, Note_on_c, 0, 50, 0
1, 257580, Note_on_c, 0, 38, 0
1, 257583, Note_on_c, 0, 49, 58
1, 257583, Note_on_c, 0, 37, 49
1, 257702, Note_on_c, 0, 61, 0
1, 257702, Note_on_c, 0, 73, 0
1, 257702, Note_on_c, 0, 58, 76
1, 257705, Note_on_c, 0, 70, 90
1, 257705, Note_on_c, 0, 37, 0
1, 257705, Note_on_c, 0, 49, 0
1, 257708, Note_on_c, 0, 46, 62
1, 257708, Note_on_c, 0, 34, 52
1, 257818, Control_c, 0, 64, 0
1, 257837, Note_on_c, 0, 70, 0
1, 257837, Note_on_c, 0, 58, 0
1, 257837, Note_on_c, 0, 34, 0
1, 257840, Note_on_c, 0, 46, 0
1, 257973, Note_on_c, 0, 69, 64
1, 257973, Note_on_c, 0, 57, 54
1, 257973, Note_on_c, 0, 45, 48
1, 257976, Note_on_c, 0, 33, 40
1, 257976, Control_c, 0, 64, 127
1, 258103, Note_on_c, 0, 57, 0
1, 258103, Note_on_c, 0, 69, 0
1, 258103, Note_on_c, 0, 70, 64
1, 258106, Note_on_c, 0, 58, 54
1, 258106, Note_on_c, 0, 33, 0
1, 258106, Note_on_c, 0, 45, 0
1, 258109, Note_on_c, 0, 46, 48
1, 258109, Note_on_c, 0, 34, 40
1, 258228, Note_on_c, 0, 58, 0
1, 258228, Note_on_c, 0, 70, 0
1, 258228, Note_on_c, 0, 73, 65
1, 258231, Note_on_c, 0, 61, 55
1, 258231, Note_on_c, 0, 34, 0
1, 258231, Note_on_c, 0, 46, 0
1, 258234, Note_on_c, 0, 37, 41
1, 258234, Note_on_c, 0, 49, 48
1, 258352, Note_on_c, 0, 61, 0
1, 258352, Note_on_c, 0, 73, 0
1, 258352, Note_on_c, 0, 74, 66
1, 258355, Note_on_c, 0, 62, 56
1, 258355, Note_on_c, 0, 49, 0
1, 258355, Note_on_c, 0, 37, 0
1, 258358, Note_on_c, 0, 38, 42
1, 258358, Note_on_c, 0, 50, 49
1, 258476, Note_on_c, 0, 62, 0
1, 258476, Note_on_c, 0, 74, 0
1, 258476, Note_on_c, 0, 76, 67
1, 258479, Note_on_c, 0, 64, 56
1, 258479, Note_on_c, 0, 50, 0
1, 258479, Note_on_c, 0, 38, 0
1, 258482, Note_on_c, 0, 40, 42
1, 258482, Note_on_c, 0, 52, 50
1, 258600, Note_on_c, 0, 64, 0
1, 258600, Note_on_c, 0, 76, 0
1, 258600, Note_on_c, 0, 77, 68
1, 258603, Note_on_c, 0, 65, 57
1, 258603, Note_on_c, 0, 52, 0
1, 258603, Note_on_c, 0, 40, 0
1, 258606, Note_on_c, 0, 41, 42
1, 258606, Note_on_c, 0, 53, 51
1, 258723, Note_on_c, 0, 65, 0
1, 258723, Note_on_c, 0, 77, 0
1, 258723, Note_on_c, 0, 80, 69
1, 258726, Note_on_c, 0, 68, 58
1, 258726, Note_on_c, 0, 53, 0
1, 258726, Note_on_c, 0, 41, 0
1, 258729, Note_on_c, 0, 44, 43
1, 258729, Note_on_c, 0, 56, 51
1, 258846, Note_on_c, 0, 68, 0
1, 258846, Note_on_c, 0, 80, 0
1, 258846, Note_on_c, 0, 81, 70
1, 258849, Note_on_c, 0, 69, 59
1, 258849, Note_on_c, 0, 56, 0
1, 258849, Note_on_c, 0, 44, 0
1, 258852, Note_on_c, 0, 45, 44
1, 258852, Note_on_c, 0, 57, 52
1, 258968, Note_on_c, 0, 69, 0
1, 258968, Note_on_c, 0, 81, 0
1, 258968, Note_on_c, 0, 82, 71
1, 258971, Note_on_c, 0, 70, 60
1, 258971, Note_on_c, 0, 57, 0
1, 258971, Note_on_c, 0, 45, 0
1, 258974, Note_on_c, 0, 46, 45
1, 258974, Note_on_c, 0, 58, 53
1, 258974, Control_c, 0, 64, 0
1, 259050, Control_c, 0, 64, 127
1, 259091, Note_on_c, 0, 70, 0
1, 259091, Note_on_c, 0, 82, 0
1, 259091, Note_on_c, 0, 85, 72
1, 259094, Note_on_c, 0, 73, 61
1, 259094, Note_on_c, 0, 58, 0
1, 259094, Note_on_c, 0, 46, 0
1, 259097, Note_on_c, 0, 49, 45
1, 259097, Note_on_c, 0, 61, 54
1, 259212, Note_on_c, 0, 73, 0
1, 259212, Note_on_c, 0, 85, 0
1, 259212, Note_on_c, 0, 86, 73
1, 259215, Note_on_c, 0, 74, 62
1, 259215, Note_on_c, 0, 61, 0
1, 259215, Note_on_c, 0, 49, 0
1, 259218, Note_on_c, 0, 50, 46
1, 259218, Note_on_c, 0, 62, 54
1, 259333, Note_on_c, 0, 74, 0
1, 259333, Note_on_c, 0, 86, 0
1, 259333, Note_on_c, 0, 88, 74
1, 259336, Note_on_c, 0, 76, 62
1, 259336, Note_on_c, 0, 62, 0
1, 259336, Note_on_c, 0, 50, 0
1, 259339, Note_on_c, 0, 52, 46
1, 259339, Note_on_c, 0, 64, 55
1, 259454, Note_on_c, 0, 76, 0
1, 259454, Note_on_c, 0, 88, 0
1, 259454, Note_on_c, 0, 89, 74
1, 259457, Note_on_c, 0, 77, 62
1, 259457, Note_on_c, 0, 64, 0
1, 259457, Note_on_c, 0, 52, 0
1, 259460, Note_on_c, 0, 53, 46
1, 259460, Note_on_c, 0, 65, 55
1, 259575, Note_on_c, 0, 77, 0
1, 259575, Note_on_c, 0, 89, 0
1, 259575, Note_on_c, 0, 92, 75
1, 259578, Note_on_c, 0, 80, 63
1, 259578, Note_on_c, 0, 65, 0
1, 259578, Note_on_c, 0, 53, 0
1, 259581, Note_on_c, 0, 56, 47
1, 259581, Note_on_c, 0, 68, 56
1, 259696, Note_on_c, 0, 80, 0
1, 259696, Note_on_c, 0, 92, 0
1, 259696, Note_on_c, 0, 93, 76
1, 259699, Note_on_c, 0, 81, 64
1, 259699, Note_on_c, 0, 68, 0
1, 259699, Note_on_c, 0, 56, 0
1, 259702, Note_on_c, 0, 57, 48
1, 259702, Note_on_c, 0, 69, 57
1, 259823, Note_on_c, 0, 81, 0
1, 259823, Note_on_c, 0, 93, 0
1, 259823, Note_on_c, 0, 94, 77
1, 259826, Note_on_c, 0, 82, 65
1, 259826, Note_on_c, 0, 69, 0
1, 259826, Note_on_c, 0, 57, 0
1, 259829, Note_on_c, 0, 58, 48
1, 259829, Note_on_c, 0, 70, 57
1, 259955, Note_on_c, 0, 82, 0
1, 259955, Note_on_c, 0, 94, 0
1, 259955, Note_on_c, 0, 97, 78
1, 259958, Note_on_c, 0, 85, 66
1, 259958, Note_on_c, 0, 70, 0
1, 259958, Note_on_c, 0, 58, 0
1, 259961, Note_on_c, 0, 61, 49
1, 259961, Note_on_c, 0, 73, 58
1, 259961, Control_c, 0, 64, 0
1, 260048, Control_c, 0, 64, 127
1, 260077, Note_on_c, 0, 85, 0
1, 260077, Note_on_c, 0, 97, 0
1, 260077, Note_on_c, 0, 94, 77
1, 260080, Note_on_c, 0, 82, 65
1, 260080, Note_on_c, 0, 73, 0
1, 260080, Note_on_c, 0, 61, 0
1, 260083, Note_on_c, 0, 70, 57
1, 260083, Note_on_c, 0, 58, 48
1, 260199, Note_on_c, 0, 82, 0
1, 260199, Note_on_c, 0, 94, 0
1, 260199, Note_on_c, 0, 93, 75
1, 260202, Note_on_c, 0, 81, 63
1, 260202, Note_on_c, 0, 58, 0
1, 260202, Note_on_c, 0, 70, 0
1, 260205, Note_on_c, 0, 69, 56
1, 260205, Note_on_c, 0, 57, 47
1, 260323, Note_on_c, 0, 81, 0
1, 260323, Note_on_c, 0, 93, 0
1, 260323, Note_on_c, 0, 92, 74
1, 260326, Note_on_c, 0, 80, 62
1, 260326, Note_on_c, 0, 57, 0
1, 260326, Note_on_c, 0, 69, 0
1, 260329, Note_on_c, 0, 68, 55
1, 260329, Note_on_c, 0, 56, 46
1, 260446, Note_on_c, 0, 80, 0
1, 260446, Note_on_c, 0, 92, 0
1, 260446, Note_on_c, 0, 89, 72
1, 260449, Note_on_c, 0, 77, 61
1, 260449, Note_on_c, 0, 56, 0
1, 260449, Note_on_c, 0, 68, 0
1, 260452, Note_on_c, 0, 65, 54
1, 260452, Note_on_c, 0, 53, 45
1, 260571, Note_on_c, 0, 77, 0
1, 260571, Note_on_c, 0, 89, 0
1, 260571, Note_on_c, 0, 88, 70
1, 260574, Note_on_c, 0, 76, 59
1, 260574, Note_on_c, 0, 53, 0
1, 260574, Note_on_c, 0, 65, 0
1, 260577, Note_on_c, 0, 52, 44
1, 260577, Note_on_c, 0, 64, 52
1, 260696, Note_on_c, 0, 76, 0
1, 260696, Note_on_c, 0, 88, 0
1, 260696, Note_on_c, 0, 86, 69
1, 260699, Note_on_c, 0, 74, 58
1, 260699, Note_on_c, 0, 64, 0
1, 260699, Note_on_c, 0, 52, 0
1, 260702, Note_on_c, 0, 50, 43
1, 260702, Note_on_c, 0, 62, 51
1, 260821, Note_on_c, 0, 74, 0
1, 260821, Note_on_c, 0, 86, 0
1, 260821, Note_on_c, 0, 85, 67
1, 260824, Note_on_c, 0, 73, 56
1, 260824, Note_on_c, 0, 62, 0
1, 260824, Note_on_c, 0, 50, 0
1, 260827, Note_on_c, 0, 49, 42
1, 260827, Note_on_c, 0, 61, 50
1, 260947, Note_on_c, 0, 73, 0
1, 260947, Note_on_c, 0, 85, 0
1, 260947, Note_on_c, 0, 82, 67
1, 260950, Note_on_c, 0, 70, 56
1, 260950, Note_on_c, 0, 61, 0
1, 260950, Note_on_c, 0, 49, 0
1, 260953, Note_on_c, 0, 46, 42
1, 260953, Note_on_c, 0, 58, 50
1, 260953, Control_c, 0, 64, 0
1, 261026, Control_c, 0, 64, 127
1, 261074, Note_on_c, 0, 70, 0
1, 261074, Note_on_c, 0, 82, 0
1, 261074, Note_on_c, 0, 81, 69
1, 261077, Note_on_c, 0, 69, 58
1, 261077, Note_on_c, 0, 58, 0
1, 261077, Note_on_c, 0, 46, 0
1, 261080, Note_on_c, 0, 57, 51
1, 261080, Note_on_c, 0, 45, 43
1, 261201, Note_on_c, 0, 69, 0
1, 261201, Note_on_c, 0, 81, 0
1, 261201, Note_on_c, 0, 80, 71
1, 261204, Note_on_c, 0, 68, 60
1, 261204, Note_on_c, 0, 45, 0
1, 261204, Note_on_c, 0, 57, 0
1, 261207, Note_on_c, 0, 56, 53
1, 261207, Note_on_c, 0, 44, 45
1, 261328, Note_on_c, 0, 68, 0
1, 261328, Note_on_c, 0, 80, 0
1, 261328, Note_on_c, 0, 77, 73
1, 261331, Note_on_c, 0, 65, 62
1, 261331, Note_on_c, 0, 44, 0
1, 261331, Note_on_c, 0, 56, 0
1, 261334, Note_on_c, 0, 53, 54
1, 261334, Note_on_c, 0, 41, 46
1, 261454, Note_on_c, 0, 65, 0
1, 261454, Note_on_c, 0, 77, 0
1, 261454, Note_on_c, 0, 76, 75
1, 261457, Note_on_c, 0, 64, 63
1, 261457, Note_on_c, 0, 41, 0
1, 261457, Note_on_c, 0, 53, 0
1, 261460, Note_on_c, 0, 52, 56
1, 261460, Note_on_c, 0, 40, 47
1, 261579, Note_on_c, 0, 64, 0
1, 261579, Note_on_c, 0, 76, 0
1, 261579, Note_on_c, 0, 74, 77
1, 261582, Note_on_c, 0, 62, 65
1, 261582, Note_on_c, 0, 40, 0
1, 261582, Note_on_c, 0, 52, 0
1, 261585, Note_on_c, 0, 50, 57
1, 261585, Note_on_c, 0, 38, 48
1, 261704, Note_on_c, 0, 62, 0
1, 261704, Note_on_c, 0, 74, 0
1, 261704, Note_on_c, 0, 73, 79
1, 261707, Note_on_c, 0, 61, 67
1, 261707, Note_on_c, 0, 38, 0
1, 261707, Note_on_c, 0, 50, 0
1, 261710, Note_on_c, 0, 37, 50
1, 261710, Note_on_c, 0, 49, 59
1, 261828, Note_on_c, 0, 61, 0
1, 261828, Note_on_c, 0, 73, 0
1, 261828, Note_on_c, 0, 70, 81
1, 261831, Note_on_c, 0, 58, 68
1, 261831, Note_on_c, 0, 49, 0
1, 261831, Note_on_c, 0, 37, 0
1, 261834, Note_on_c, 0, 46, 60
1, 261834, Note_on_c, 0, 34, 51
1, 261951, Note_on_c, 0, 58, 0
1, 261951, Note_on_c, 0, 70, 0
1, 261951, Note_on_c, 0, 69, 64
1, 261954, Note_on_c, 0, 57, 54
1, 261954, Note_on_c, 0, 34, 0
1, 261954, Note_on_c, 0, 46, 0
1, 261957, Note_on_c, 0, 45, 48
1, 261957, Note_on_c, 0, 33, 40
1, 261994, Control_c, 0, 64, 0
1, 262068, Control_c, 0, 64, 127
1, 262080, Note_on_c, 0, 57, 0
1, 262080, Note_on_c, 0, 69, 0
1, 262080, Note_on_c, 0, 70, 64
1, 262083, Note_on_c, 0, 58, 54
1, 262083, Note_on_c, 0, 33, 0
1, 262083, Note_on_c, 0, 45, 0
1, 262086, Note_on_c, 0, 46, 48
1, 262086, Note_on_c, 0, 34, 40
1, 262205, Note_on_c, 0, 58, 0
1, 262205, Note_on_c, 0, 70, 0
1, 262205, Note_on_c, 0, 73, 65
1, 262208, Note_on_c, 0, 61, 55
1, 262208, Note_on_c, 0, 34, 0
1, 262208, Note_on_c, 0, 46, 0
1, 262211, Note_on_c, 0, 49, 48
1, 262211, Note_on_c, 0, 37, 41
1, 262329, Note_on_c, 0, 61, 0
1, 262329, Note_on_c, 0, 73, 0
1, 262329, Note_on_c, 0, 74, 66
1, 262332, Note_on_c, 0, 62, 56
1, 262332, Note_on_c, 0, 37, 0
1, 262332, Note_on_c, 0, 49, 0
1, 262335, Note_on_c, 0, 38, 42
1, 262335, Note_on_c, 0, 50, 49
1, 262452, Note_on_c, 0, 62, 0
1, 262452, Note_on_c, 0, 74, 0
1, 262452, Note_on_c, 0, 76, 67
1, 262455, Note_on_c, 0, 64, 56
1, 262455, Note_on_c, 0, 50, 0
1, 262455, Note_on_c, 0, 38, 0
1, 262458, Note_on_c, 0, 40, 42
1, 262458, Note_on_c, 0, 52, 50
1, 262575, Note_on_c, 0, 64, 0
1, 262575, Note_on_c, 0, 76, 0
1, 262575, Note_on_c, 0, 77, 68
1, 262578, Note_on_c, 0, 65, 57
1, 262578, Note_on_c, 0, 52, 0
1, 262578, Note_on_c, 0, 40, 0
1, 262581, Note_on_c, 0, 41, 42
1, 262581, Note_on_c, 0, 53, 51
1, 262698, Note_on_c, 0, 65, 0
1, 262698, Note_on_c, 0, 77, 0
1, 262698, Note_on_c, 0, 80, 69
1, 262701, Note_on_c, 0, 68, 58
1, 262701, Note_on_c, 0, 53, 0
1, 262701, Note_on_c, 0, 41, 0
1, 262704, Note_on_c, 0, 44, 43
1, 262704, Note_on_c, 0, 56, 51
1, 262820, Note_on_c, 0, 68, 0
1, 262820, Note_on_c, 0, 80, 0
1, 262820, Note_on_c, 0, 81, 70
1, 262823, Note_on_c, 0, 69, 59
1, 262823, Note_on_c, 0, 56, 0
1, 262823, Note_on_c, 0, 44, 0
1, 262826, Note_on_c, 0, 45, 44
1, 262826, Note_on_c, 0, 57, 52
1, 262942, Note_on_c, 0, 69, 0
1, 262942, Note_on_c, 0, 81, 0
1, 262942, Note_on_c, 0, 82, 71
1, 262945, Note_on_c, 0, 70, 60
1, 262945, Note_on_c, 0, 57, 0
1, 262945, Note_on_c, 0, 45, 0
1, 262948, Note_on_c, 0, 58, 53
1, 262948, Note_on_c, 0, 46, 45
1, 262948, Control_c, 0, 64, 0
1, 263023, Control_c, 0, 64, 127
1, 263063, Note_on_c, 0, 70, 0
1, 263063, Note_on_c, 0, 82, 0
1, 263063, Note_on_c, 0, 85, 72
1, 263066, Note_on_c, 0, 73, 61
1, 263066, Note_on_c, 0, 46, 0
1, 263066, Note_on_c, 0, 58, 0
1, 263069, Note_on_c, 0, 61, 54
1, 263069, Note_on_c, 0, 49, 45
1, 263184, Note_on_c, 0, 73, 0
1, 263184, Note_on_c, 0, 85, 0
1, 263184, Note_on_c, 0, 86, 73
1, 263187, Note_on_c, 0, 74, 62
1, 263187, Note_on_c, 0, 49, 0
1, 263187, Note_on_c, 0, 61, 0
1, 263190, Note_on_c, 0, 62, 54
1, 263190, Note_on_c, 0, 50, 46
1, 263304, Note_on_c, 0, 74, 0
1, 263304, Note_on_c, 0, 86, 0
1, 263304, Note_on_c, 0, 88, 74
1, 263307, Note_on_c, 0, 76, 62
1, 263307, Note_on_c, 0, 50, 0
1, 263307, Note_on_c, 0, 62, 0
1, 263310, Note_on_c, 0, 64, 55
1, 263310, Note_on_c, 0, 52, 46
1, 263425, Note_on_c, 0, 76, 0
1, 263425, Note_on_c, 0, 88, 0
1, 263425, Note_on_c, 0, 89, 74
1, 263428, Note_on_c, 0, 77, 62
1, 263428, Note_on_c, 0, 52, 0
1, 263428, Note_on_c, 0, 64, 0
1, 263431, Note_on_c, 0, 65, 55
1, 263431, Note_on_c, 0, 53, 46
1, 263547, Note_on_c, 0, 77, 0
1, 263547, Note_on_c, 0, 89, 0
1, 263547, Note_on_c, 0, 92, 75
1, 263550, Note_on_c, 0, 80, 63
1, 263550, Note_on_c, 0, 53, 0
1, 263550, Note_on_c, 0, 65, 0
1, 263553, Note_on_c, 0, 68, 56
1, 263553, Note_on_c, 0, 56, 47
1, 263668, Note_on_c, 0, 80, 0
1, 263668, Note_on_c, 0, 92, 0
1, 263668, Note_on_c, 0, 93, 76
1, 263671, Note_on_c, 0, 81, 64
1, 263671, Note_on_c, 0, 56, 0
1, 263671, Note_on_c, 0, 68, 0
1, 263674, Note_on_c, 0, 69, 57
1, 263674, Note_on_c, 0, 57, 48
1, 263794, Note_on_c, 0, 81, 0
1, 263794, Note_on_c, 0, 93, 0
1, 263794, Note_on_c, 0, 94, 77
1, 263797, Note_on_c, 0, 82, 65
1, 263797, Note_on_c, 0, 57, 0
1, 263797, Note_on_c, 0, 69, 0
1, 263800, Note_on_c, 0, 58, 48
1, 263800, Note_on_c, 0, 70, 57
1, 263926, Note_on_c, 0, 82, 0
1, 263926, Note_on_c, 0, 94, 0
1, 263926, Note_on_c, 0, 97, 86
1, 263929, Note_on_c, 0, 85, 86
1, 263929, Note_on_c, 0, 70, 0
1, 263929, Note_on_c, 0, 58, 0
1, 263932, Note_on_c, 0, 61, 65
1, 263932, Note_on_c, 0, 73, 65
1, 263932, Control_c, 0, 64, 0
1, 263994, Control_c, 0, 64, 127
1, 264049, Note_on_c, 0, 85, 0
1, 264049, Note_on_c, 0, 97, 0
1, 264049, Note_on_c, 0, 73, 0
1, 264052, Note_on_c, 0, 61, 0
1, 264415, Note_on_c, 0, 98, 86
1, 264415, Note_on_c, 0, 86, 73
1, 264415, Note_on_c, 0, 89, 73
1, 264418, Note_on_c, 0, 94, 73
1, 264418, Note_on_c, 0, 50, 51
1, 264418, Note_on_c, 0, 53, 51
1, 264421, Note_on_c, 0, 58, 51
1, 264421, Note_on_c, 0, 62, 61
1, 264421, Control_c, 0, 64, 0
1, 264525, Control_c, 0, 64, 127
1, 264537, Note_on_c, 0, 94, 0
1, 264537, Note_on_c, 0, 98, 0
1, 264537, Note_on_c, 0, 86, 0
1, 264540, Note_on_c, 0, 89, 0
1, 264540, Note_on_c, 0, 62, 0
1, 264540, Note_on_c, 0, 50, 0
1, 264543, Note_on_c, 0, 53, 0
1, 264543, Note_on_c, 0, 58, 0
1, 264903, Note_on_c, 0, 100, 89
1, 264903, Note_on_c, 0, 97, 75
1, 264903, Note_on_c, 0, 93, 75
1, 264906, Note_on_c, 0, 88, 75
1, 264906, Note_on_c, 0, 57, 62
1, 264906, Note_on_c, 0, 49, 52
1, 264909, Note_on_c, 0, 45, 52
1, 264909, Note_on_c, 0, 52, 52
1, 264909, Control_c, 0, 64, 0
1, 264974, Control_c, 0, 64, 127
1, 265025, Note_on_c, 0, 88, 0
1, 265025, Note_on_c, 0, 100, 0
1, 265025, Note_on_c, 0, 97, 0
1, 265028, Note_on_c, 0, 93, 0
1, 265028, Note_on_c, 0, 52, 0
1, 265028, Note_on_c, 0, 57, 0
1, 265031, Note_on_c, 0, 49, 0
1, 265031, Note_on_c, 0, 45, 0
1, 265392, Note_on_c, 0, 101, 101
1, 265392, Note_on_c, 0, 94, 85
1, 265392, Note_on_c, 0, 89, 85
1, 265395, Note_on_c, 0, 50, 71
1, 265395, Note_on_c, 0, 41, 60
1, 265395, Note_on_c, 0, 46, 60
1, 265398, Note_on_c, 0, 38, 60
1, 265401, Control_c, 0, 64, 0
1, 265463, Control_c, 0, 64, 127
1, 265514, Note_on_c, 0, 89, 0
1, 265514, Note_on_c, 0, 94, 0
1, 265514, Note_on_c, 0, 101, 0
1, 265517, Note_on_c, 0, 38, 0
1, 265517, Note_on_c, 0, 50, 0
1, 265517, Note_on_c, 0, 41, 0
1, 265520, Note_on_c, 0, 46, 0
1, 265880, Note_on_c, 0, 57, 37
1, 265880, Note_on_c, 0, 33, 30
1, 265880, Note_on_c, 0, 40, 36
1, 265883, Note_on_c, 0, 37, 30
1, 265883, Control_c, 0, 64, 0
1, 265883, Note_on_c, 0, 61, 44
1, 265883, Note_on_c, 0, 52, 37
1, 265939, Control_c, 0, 64, 127
1, 265943, Note_on_c, 0, 57, 0
1, 265943, Note_on_c, 0, 64, 45
1, 265943, Note_on_c, 0, 37, 0
1, 265946, Note_on_c, 0, 40, 0
1, 265946, Note_on_c, 0, 33, 0
1, 265946, Note_on_c, 0, 45, 37
1, 265949, Note_on_c, 0, 52, 0
1, 265949, Note_on_c, 0, 61, 0
1, 266005, Note_on_c, 0, 64, 0
1, 266005, Note_on_c, 0, 61, 47
1, 266005, Note_on_c, 0, 52, 39
1, 266008, Note_on_c, 0, 57, 39
1, 266008, Note_on_c, 0, 45, 0
1, 266008, Note_on_c, 0, 33, 32
1, 266011, Note_on_c, 0, 40, 38
1, 266011, Note_on_c, 0, 37, 32
1, 266066, Note_on_c, 0, 57, 0
1, 266066, Note_on_c, 0, 52, 0
1, 266066, Note_on_c, 0, 61, 0
1, 266069, Note_on_c, 0, 64, 48
1, 266069, Note_on_c, 0, 37, 0
1, 266069, Note_on_c, 0, 40, 0
1, 266072, Note_on_c, 0, 33, 0
1, 266072, Note_on_c, 0, 45, 39
1, 266128, Note_on_c, 0, 64, 0
1, 266128, Note_on_c, 0, 61, 49
1, 266128, Note_on_c, 0, 52, 41
1, 266131, Note_on_c, 0, 57, 41
1, 266131, Note_on_c, 0, 45, 0
1, 266131, Note_on_c, 0, 40, 41
1, 266134, Note_on_c, 0, 37, 34
1, 266134, Note_on_c, 0, 33, 34
1, 266189, Note_on_c, 0, 57, 0
1, 266189, Note_on_c, 0, 52, 0
1, 266189, Note_on_c, 0, 61, 0
1, 266192, Note_on_c, 0, 64, 50
1, 266192, Note_on_c, 0, 33, 0
1, 266192, Note_on_c, 0, 37, 0
1, 266195, Note_on_c, 0, 40, 0
1, 266195, Note_on_c, 0, 45, 42
1, 266250, Note_on_c, 0, 64, 0
1, 266250, Note_on_c, 0, 61, 52
1, 266250, Note_on_c, 0, 52, 44
1, 266253, Note_on_c, 0, 57, 44
1, 266253, Note_on_c, 0, 45, 0
1, 266253, Note_on_c, 0, 40, 43
1, 266256, Note_on_c, 0, 37, 36
1, 266256, Note_on_c, 0, 33, 36
1, 266311, Note_on_c, 0, 57, 0
1, 266311, Note_on_c, 0, 52, 0
1, 266311, Note_on_c, 0, 61, 0
1, 266314, Note_on_c, 0, 64, 53
1, 266314, Note_on_c, 0, 33, 0
1, 266314, Note_on_c, 0, 37, 0
1, 266317, Note_on_c, 0, 40, 0
1, 266317, Note_on_c, 0, 45, 44
1, 266371, Note_on_c, 0, 64, 0
1, 266371, Note_on_c, 0, 57, 45
1, 266371, Note_on_c, 0, 45, 0
1, 266374, Note_on_c, 0, 40, 45
1, 266374, Note_on_c, 0, 33, 38
1, 266374, Note_on_c, 0, 37, 38
1, 266374, Note_on_c, 0, 61, 54
1, 266374, Note_on_c, 0, 52, 45
1, 266432, Note_on_c, 0, 57, 0
1, 266432, Note_on_c, 0, 64, 56
1, 266432, Note_on_c, 0, 37, 0
1, 266435, Note_on_c, 0, 33, 0
1, 266435, Note_on_c, 0, 40, 0
1, 266435, Note_on_c, 0, 45, 46
1, 266438, Note_on_c, 0, 52, 0
1, 266438, Note_on_c, 0, 61, 0
1, 266492, Note_on_c, 0, 64, 0
1, 266492, Note_on_c, 0, 61, 55
1, 266492, Note_on_c, 0, 52, 46
1, 266495, Note_on_c, 0, 57, 46
1, 266495, Note_on_c, 0, 45, 0
1, 266495, Note_on_c, 0, 40, 44
1, 266498, Note_on_c, 0, 33, 37
1, 266498, Note_on_c, 0, 37, 37
1, 266553, Note_on_c, 0, 57, 0
1, 266553, Note_on_c, 0, 52, 0
1, 266553, Note_on_c, 0, 61, 0
1, 266556, Note_on_c, 0, 64, 53
1, 266556, Note_on_c, 0, 37, 0
1, 266556, Note_on_c, 0, 33, 0
1, 266559, Note_on_c, 0, 40, 0
1, 266559, Note_on_c, 0, 45, 43
1, 266615, Note_on_c, 0, 64, 0
1, 266615, Note_on_c, 0, 61, 52
1, 266615, Note_on_c, 0, 52, 44
1, 266618, Note_on_c, 0, 57, 44
1, 266618, Note_on_c, 0, 45, 0
1, 266618, Note_on_c, 0, 33, 35
1, 266621, Note_on_c, 0, 37, 35
1, 266621, Note_on_c, 0, 40, 42
1, 266676, Note_on_c, 0, 57, 0
1, 266676, Note_on_c, 0, 52, 0
1, 266676, Note_on_c, 0, 61, 0
1, 266679, Note_on_c, 0, 64, 50
1, 266679, Note_on_c, 0, 40, 0
1, 266679, Note_on_c, 0, 37, 0
1, 266682, Note_on_c, 0, 33, 0
1, 266682, Note_on_c, 0, 45, 40
1, 266738, Note_on_c, 0, 64, 0
1, 266738, Note_on_c, 0, 61, 49
1, 266738, Note_on_c, 0, 52, 41
1, 266741, Note_on_c, 0, 57, 41
1, 266741, Note_on_c, 0, 45, 0
1, 266741, Note_on_c, 0, 33, 33
1, 266744, Note_on_c, 0, 40, 39
1, 266744, Note_on_c, 0, 37, 33
1, 266800, Note_on_c, 0, 57, 0
1, 266800, Note_on_c, 0, 52, 0
1, 266800, Note_on_c, 0, 61, 0
1, 266803, Note_on_c, 0, 64, 47
1, 266803, Note_on_c, 0, 37, 0
1, 266803, Note_on_c, 0, 40, 0
1, 266806, Note_on_c, 0, 33, 0
1, 266806, Note_on_c, 0, 45, 38
1, 266862, Note_on_c, 0, 64, 0
1, 266862, Note_on_c, 0, 45, 0
1, 266862, Note_on_c, 0, 33, 50
1, 266870, Note_on_c, 0, 37, 53
1, 266878, Note_on_c, 0, 40, 56
1, 266886, Note_on_c, 0, 52, 78
1, 266886, Note_on_c, 0, 57, 78
1, 266886, Note_on_c, 0, 61, 78
1, 266889, Note_on_c, 0, 45, 60
1, 266990, Note_on_c, 0, 61, 0
1, 266990, Note_on_c, 0, 57, 0
1, 266990, Note_on_c, 0, 52, 0
1, 266993, Note_on_c, 0, 45, 0
1, 266993, Note_on_c, 0, 33, 0
1, 266993, Note_on_c, 0, 37, 0
1, 266996, Note_on_c, 0, 40, 0
1, 267310, Note_on_c, 0, 81, 85
1, 267310, Note_on_c, 0, 69, 72
1, 267310, Note_on_c, 0, 73, 72
1, 267313, Note_on_c, 0, 76, 72
1, 267313, Note_on_c, 0, 57, 68
1, 267313, Note_on_c, 0, 49, 57
1, 267316, Note_on_c, 0, 45, 57
1, 267316, Note_on_c, 0, 52, 57
1, 267374, Note_on_c, 0, 76, 0
1, 267374, Note_on_c, 0, 81, 0
1, 267374, Note_on_c, 0, 69, 0
1, 267377, Note_on_c, 0, 73, 0
1, 267377, Note_on_c, 0, 81, 101
1, 267377, Note_on_c, 0, 76, 85
1, 267380, Note_on_c, 0, 73, 85
1, 267380, Note_on_c, 0, 69, 85
1, 267380, Note_on_c, 0, 52, 0
1, 267383, Note_on_c, 0, 57, 0
1, 267383, Note_on_c, 0, 49, 0
1, 267383, Note_on_c, 0, 45, 0
1, 267386, Note_on_c, 0, 57, 74
1, 267386, Note_on_c, 0, 49, 62
1, 267386, Note_on_c, 0, 45, 62
1, 267389, Note_on_c, 0, 52, 62
1, 267501, Note_on_c, 0, 69, 0
1, 267501, Note_on_c, 0, 81, 0
1, 267501, Note_on_c, 0, 76, 0
1, 267504, Note_on_c, 0, 73, 0
1, 267504, Note_on_c, 0, 52, 0
1, 267504, Note_on_c, 0, 57, 0
1, 267507, Note_on_c, 0, 49, 0
1, 267507, Note_on_c, 0, 45, 0
1, 267821, Note_on_c, 0, 93, 85
1, 267821, Note_on_c, 0, 81, 72
1, 267821, Note_on_c, 0, 85, 72
1, 267824, Note_on_c, 0, 88, 72
1, 267824, Note_on_c, 0, 33, 57
1, 267824, Note_on_c, 0, 37, 57
1, 267827, Note_on_c, 0, 40, 57
1, 267827, Note_on_c, 0, 45, 68
1, 267885, Note_on_c, 0, 88, 0
1, 267885, Note_on_c, 0, 93, 0
1, 267885, Note_on_c, 0, 81, 0
1, 267888, Note_on_c, 0, 85, 0
1, 267888, Note_on_c, 0, 93, 101
1, 267888, Note_on_c, 0, 88, 85
1, 267891, Note_on_c, 0, 85, 85
1, 267891, Note_on_c, 0, 81, 85
1, 267891, Note_on_c, 0, 45, 0
1, 267894, Note_on_c, 0, 33, 0
1, 267894, Note_on_c, 0, 37, 0
1, 267894, Note_on_c, 0, 40, 0
1, 267897, Note_on_c, 0, 33, 62
1, 267897, Note_on_c, 0, 37, 62
1, 267897, Note_on_c, 0, 40, 62
1, 267900, Note_on_c, 0, 45, 74
1, 268013, Note_on_c, 0, 81, 0
1, 268013, Note_on_c, 0, 93, 0
1, 268013, Note_on_c, 0, 88, 0
1, 268016, Note_on_c, 0, 85, 0
1, 268016, Note_on_c, 0, 45, 0
1, 268016, Note_on_c, 0, 33, 0
1, 268019, Note_on_c, 0, 37, 0
1, 268019, Note_on_c, 0, 40, 0
1, 268276, Control_c, 0, 64, 0
1, 269774, End_track
0, 0, End_of_file
