0, 0, Header, 1, 4, 384
1, 0, Start_track
1, 0, Title_t, "untitled"
1, 0, Sequencer_specific, 3, 0, 0, 65
1, 0, Time_signature, 4, 2, 24, 8
1, 0, Key_signature, 0, "major"
1, 0, Tempo, 480000
1, 51308, Tempo, 444444
1, 61440, Tempo, 521739
1, 81240, Tempo, 500000
1, 103412, Tempo, 480000
1, 112668, Tempo, 444444
1, 128916, Tempo, 428571
1, 128916, End_track
2, 0, Start_track
2, 0, Title_t, "Liebestraume No 3"
2, 0, Control_c, 0, 7, 105
2, 0, Control_c, 0, 91, 127
2, 0, Control_c, 0, 93, 0
2, 1692, Note_on_c, 0, 51, 60
2, 1764, Control_c, 0, 64, 24
2, 1780, Control_c, 0, 64, 56
2, 1796, Control_c, 0, 64, 72
2, 1808, Control_c, 0, 64, 88
2, 1824, Control_c, 0, 64, 127
2, 2120, Note_on_c, 0, 60, 77
2, 2180, Note_on_c, 0, 44, 46
2, 2180, Control_c, 0, 64, 104
2, 2196, Control_c, 0, 64, 72
2, 2212, Control_c, 0, 64, 24
2, 2228, Control_c, 0, 64, 0
2, 2252, Note_on_c, 0, 51, 0
2, 2340, Note_on_c, 0, 63, 50
2, 2352, Control_c, 0, 64, 104
2, 2368, Control_c, 0, 64, 127
2, 2424, Note_on_c, 0, 60, 0
2, 2440, Note_on_c, 0, 44, 0
2, 2456, Note_on_c, 0, 63, 0
2, 2500, Note_on_c, 0, 68, 57
2, 2624, Note_on_c, 0, 68, 0
2, 2668, Note_on_c, 0, 72, 69
2, 2760, Note_on_c, 0, 72, 0
2, 2832, Note_on_c, 0, 68, 43
2, 2952, Note_on_c, 0, 68, 0
2, 2964, Note_on_c, 0, 63, 50
2, 3064, Note_on_c, 0, 63, 0
2, 3124, Note_on_c, 0, 60, 85
2, 3280, Note_on_c, 0, 63, 54
2, 3392, Note_on_c, 0, 63, 0
2, 3424, Note_on_c, 0, 60, 0
2, 3444, Note_on_c, 0, 68, 60
2, 3568, Note_on_c, 0, 68, 0
2, 3604, Note_on_c, 0, 72, 78
2, 3724, Note_on_c, 0, 72, 0
2, 3756, Note_on_c, 0, 68, 60
2, 3908, Note_on_c, 0, 68, 0
2, 3908, Note_on_c, 0, 63, 69
2, 4100, Note_on_c, 0, 63, 0
2, 4112, Note_on_c, 0, 60, 86
2, 4136, Note_on_c, 0, 43, 56
2, 4224, Control_c, 0, 64, 88
2, 4244, Control_c, 0, 64, 40
2, 4260, Control_c, 0, 64, 0
2, 4312, Note_on_c, 0, 64, 58
2, 4396, Control_c, 0, 64, 88
2, 4412, Control_c, 0, 64, 127
2, 4436, Note_on_c, 0, 64, 0
2, 4468, Note_on_c, 0, 70, 64
2, 4596, Note_on_c, 0, 70, 0
2, 4632, Note_on_c, 0, 72, 66
2, 4712, Note_on_c, 0, 72, 0
2, 4712, Note_on_c, 0, 43, 0
2, 4764, Note_on_c, 0, 70, 49
2, 4900, Note_on_c, 0, 70, 0
2, 4904, Note_on_c, 0, 60, 0
2, 4928, Note_on_c, 0, 64, 47
2, 5048, Note_on_c, 0, 64, 0
2, 5280, Note_on_c, 0, 64, 50
2, 5428, Note_on_c, 0, 64, 0
2, 5436, Note_on_c, 0, 70, 56
2, 5552, Note_on_c, 0, 70, 0
2, 5604, Note_on_c, 0, 72, 51
2, 5696, Note_on_c, 0, 72, 0
2, 5748, Note_on_c, 0, 60, 94
2, 5768, Note_on_c, 0, 70, 46
2, 5880, Note_on_c, 0, 70, 0
2, 5912, Note_on_c, 0, 60, 0
2, 5928, Note_on_c, 0, 64, 43
2, 6144, Note_on_c, 0, 64, 0
2, 6160, Note_on_c, 0, 60, 92
2, 6216, Note_on_c, 0, 41, 50
2, 6240, Control_c, 0, 64, 104
2, 6256, Control_c, 0, 64, 24
2, 6272, Control_c, 0, 64, 0
2, 6356, Note_on_c, 0, 63, 49
2, 6380, Control_c, 0, 64, 104
2, 6396, Control_c, 0, 64, 127
2, 6428, Note_on_c, 0, 41, 0
2, 6480, Note_on_c, 0, 63, 0
2, 6516, Note_on_c, 0, 69, 69
2, 6624, Note_on_c, 0, 69, 0
2, 6656, Note_on_c, 0, 72, 63
2, 6696, Note_on_c, 0, 60, 0
2, 6764, Note_on_c, 0, 72, 0
2, 6784, Note_on_c, 0, 60, 90
2, 6836, Note_on_c, 0, 69, 50
2, 6940, Note_on_c, 0, 69, 0
2, 6952, Note_on_c, 0, 63, 55
2, 6996, Note_on_c, 0, 60, 0
2, 7032, Note_on_c, 0, 63, 0
2, 7076, Note_on_c, 0, 53, 48
2, 7080, Note_on_c, 0, 57, 55
2, 7148, Note_on_c, 0, 61, 88
2, 7220, Control_c, 0, 64, 104
2, 7232, Control_c, 0, 64, 56
2, 7244, Control_c, 0, 64, 0
2, 7308, Note_on_c, 0, 63, 58
2, 7356, Control_c, 0, 64, 72
2, 7372, Control_c, 0, 64, 127
2, 7420, Note_on_c, 0, 63, 0
2, 7472, Note_on_c, 0, 69, 66
2, 7564, Note_on_c, 0, 69, 0
2, 7616, Note_on_c, 0, 72, 54
2, 7724, Note_on_c, 0, 72, 0
2, 7724, Note_on_c, 0, 61, 0
2, 7744, Note_on_c, 0, 69, 47
2, 7776, Note_on_c, 0, 60, 88
2, 7824, Control_c, 0, 64, 88
2, 7840, Control_c, 0, 64, 40
2, 7868, Note_on_c, 0, 69, 0
2, 7884, Control_c, 0, 64, 127
2, 7908, Note_on_c, 0, 63, 54
2, 7920, Note_on_c, 0, 60, 0
2, 7920, Note_on_c, 0, 57, 0
2, 7948, Note_on_c, 0, 53, 0
2, 8160, Note_on_c, 0, 63, 0
2, 8180, Note_on_c, 0, 60, 87
2, 8252, Note_on_c, 0, 34, 55
2, 8256, Control_c, 0, 64, 104
2, 8272, Control_c, 0, 64, 24
2, 8288, Control_c, 0, 64, 0
2, 8404, Note_on_c, 0, 62, 65
2, 8412, Control_c, 0, 64, 127
2, 8516, Note_on_c, 0, 62, 0
2, 8540, Note_on_c, 0, 34, 0
2, 8556, Note_on_c, 0, 68, 52
2, 8588, Note_on_c, 0, 60, 0
2, 8656, Note_on_c, 0, 68, 0
2, 8712, Note_on_c, 0, 72, 67
2, 8816, Note_on_c, 0, 72, 0
2, 8864, Note_on_c, 0, 68, 43
2, 8996, Note_on_c, 0, 68, 0
2, 9020, Note_on_c, 0, 62, 59
2, 9140, Note_on_c, 0, 62, 0
2, 9192, Note_on_c, 0, 53, 78
2, 9372, Note_on_c, 0, 62, 47
2, 9420, Control_c, 0, 64, 72
2, 9432, Control_c, 0, 64, 0
2, 9512, Control_c, 0, 64, 56
2, 9524, Control_c, 0, 64, 127
2, 9536, Note_on_c, 0, 68, 50
2, 9592, Note_on_c, 0, 62, 0
2, 9608, Note_on_c, 0, 53, 0
2, 9660, Note_on_c, 0, 68, 0
2, 9724, Note_on_c, 0, 72, 56
2, 9852, Note_on_c, 0, 72, 0
2, 9876, Note_on_c, 0, 53, 90
2, 9904, Note_on_c, 0, 68, 49
2, 9964, Note_on_c, 0, 53, 0
2, 10052, Note_on_c, 0, 68, 0
2, 10076, Note_on_c, 0, 62, 48
2, 10124, Note_on_c, 0, 39, 59
2, 10144, Note_on_c, 0, 62, 0
2, 10176, Control_c, 0, 64, 56
2, 10192, Control_c, 0, 64, 0
2, 10204, Note_on_c, 0, 39, 0
2, 10224, Note_on_c, 0, 53, 89
2, 10240, Control_c, 0, 64, 24
2, 10256, Control_c, 0, 64, 88
2, 10268, Control_c, 0, 64, 127
2, 10364, Note_on_c, 0, 61, 57
2, 10452, Note_on_c, 0, 53, 0
2, 10484, Note_on_c, 0, 61, 0
2, 10496, Note_on_c, 0, 63, 55
2, 10532, Note_on_c, 0, 55, 94
2, 10652, Note_on_c, 0, 63, 0
2, 10692, Note_on_c, 0, 72, 66
2, 10816, Note_on_c, 0, 72, 0
2, 10816, Note_on_c, 0, 55, 0
2, 10832, Note_on_c, 0, 56, 94
2, 10868, Note_on_c, 0, 63, 52
2, 11004, Note_on_c, 0, 63, 0
2, 11008, Note_on_c, 0, 61, 72
2, 11056, Note_on_c, 0, 56, 0
2, 11088, Note_on_c, 0, 61, 0
2, 11124, Note_on_c, 0, 51, 71
2, 11200, Note_on_c, 0, 60, 93
2, 11264, Control_c, 0, 64, 56
2, 11276, Control_c, 0, 64, 0
2, 11348, Note_on_c, 0, 61, 60
2, 11436, Control_c, 0, 64, 56
2, 11448, Control_c, 0, 64, 127
2, 11452, Note_on_c, 0, 61, 0
2, 11512, Note_on_c, 0, 63, 48
2, 11632, Note_on_c, 0, 63, 0
2, 11672, Note_on_c, 0, 67, 50
2, 11804, Note_on_c, 0, 67, 0
2, 11832, Note_on_c, 0, 58, 71
2, 11860, Note_on_c, 0, 60, 0
2, 11872, Note_on_c, 0, 63, 34
2, 11884, Control_c, 0, 64, 56
2, 11900, Control_c, 0, 64, 24
2, 11912, Control_c, 0, 64, 40
2, 11928, Control_c, 0, 64, 88
2, 11944, Control_c, 0, 64, 127
2, 11984, Note_on_c, 0, 58, 0
2, 11992, Note_on_c, 0, 51, 0
2, 12020, Note_on_c, 0, 61, 55
2, 12036, Note_on_c, 0, 63, 0
2, 12096, Note_on_c, 0, 61, 0
2, 12216, Note_on_c, 0, 56, 66
2, 12248, Note_on_c, 0, 44, 46
2, 12332, Control_c, 0, 64, 88
2, 12348, Control_c, 0, 64, 0
2, 12392, Note_on_c, 0, 60, 56
2, 12508, Note_on_c, 0, 60, 0
2, 12548, Note_on_c, 0, 63, 55
2, 12548, Control_c, 0, 64, 56
2, 12564, Control_c, 0, 64, 127
2, 12680, Note_on_c, 0, 63, 0
2, 12696, Note_on_c, 0, 68, 52
2, 12748, Note_on_c, 0, 56, 0
2, 12800, Note_on_c, 0, 44, 0
2, 12808, Note_on_c, 0, 68, 0
2, 12844, Note_on_c, 0, 63, 52
2, 12984, Note_on_c, 0, 63, 0
2, 13012, Note_on_c, 0, 60, 55
2, 13112, Note_on_c, 0, 60, 0
2, 13172, Note_on_c, 0, 32, 48
2, 13328, Note_on_c, 0, 32, 0
2, 13328, Note_on_c, 0, 56, 52
2, 13456, Note_on_c, 0, 56, 0
2, 13496, Note_on_c, 0, 60, 49
2, 13608, Note_on_c, 0, 60, 0
2, 13652, Note_on_c, 0, 68, 48
2, 13780, Note_on_c, 0, 68, 0
2, 13812, Note_on_c, 0, 51, 80
2, 13856, Note_on_c, 0, 63, 47
2, 13988, Note_on_c, 0, 60, 49
2, 14060, Note_on_c, 0, 60, 0
2, 14124, Note_on_c, 0, 51, 0
2, 14256, Note_on_c, 0, 60, 80
2, 14308, Note_on_c, 0, 44, 44
2, 14376, Control_c, 0, 64, 104
2, 14392, Control_c, 0, 64, 24
2, 14408, Control_c, 0, 64, 0
2, 14468, Note_on_c, 0, 63, 59
2, 14548, Control_c, 0, 64, 127
2, 14608, Note_on_c, 0, 63, 0
2, 14652, Note_on_c, 0, 68, 50
2, 14668, Note_on_c, 0, 44, 0
2, 14708, Note_on_c, 0, 60, 0
2, 14740, Note_on_c, 0, 63, 0
2, 14776, Note_on_c, 0, 68, 0
2, 14800, Note_on_c, 0, 72, 65
2, 14888, Note_on_c, 0, 72, 0
2, 14936, Note_on_c, 0, 68, 54
2, 15072, Note_on_c, 0, 68, 0
2, 15072, Note_on_c, 0, 63, 64
2, 15184, Note_on_c, 0, 63, 0
2, 15224, Note_on_c, 0, 60, 90
2, 15328, Note_on_c, 0, 60, 0
2, 15360, Note_on_c, 0, 63, 56
2, 15488, Note_on_c, 0, 63, 0
2, 15540, Note_on_c, 0, 68, 54
2, 15652, Note_on_c, 0, 68, 0
2, 15676, Note_on_c, 0, 72, 80
2, 15796, Note_on_c, 0, 72, 0
2, 15812, Note_on_c, 0, 68, 62
2, 15944, Note_on_c, 0, 68, 0
2, 15956, Note_on_c, 0, 63, 74
2, 16152, Note_on_c, 0, 63, 0
2, 16156, Note_on_c, 0, 60, 92
2, 16208, Note_on_c, 0, 43, 54
2, 16268, Control_c, 0, 64, 56
2, 16284, Control_c, 0, 64, 0
2, 16340, Note_on_c, 0, 64, 72
2, 16392, Control_c, 0, 64, 104
2, 16408, Control_c, 0, 64, 127
2, 16460, Note_on_c, 0, 64, 0
2, 16484, Note_on_c, 0, 70, 71
2, 16604, Note_on_c, 0, 70, 0
2, 16628, Note_on_c, 0, 72, 74
2, 16728, Note_on_c, 0, 72, 0
2, 16764, Note_on_c, 0, 70, 63
2, 16896, Note_on_c, 0, 70, 0
2, 16896, Note_on_c, 0, 43, 0
2, 16896, Note_on_c, 0, 64, 77
2, 17012, Note_on_c, 0, 64, 0
2, 17072, Note_on_c, 0, 42, 67
2, 17180, Control_c, 0, 64, 72
2, 17196, Control_c, 0, 64, 0
2, 17244, Note_on_c, 0, 64, 60
2, 17308, Control_c, 0, 64, 127
2, 17396, Note_on_c, 0, 64, 0
2, 17424, Note_on_c, 0, 70, 60
2, 17440, Note_on_c, 0, 42, 0
2, 17556, Note_on_c, 0, 70, 0
2, 17600, Note_on_c, 0, 72, 64
2, 17636, Note_on_c, 0, 60, 0
2, 17724, Note_on_c, 0, 72, 0
2, 17784, Note_on_c, 0, 60, 80
2, 17796, Note_on_c, 0, 70, 31
2, 17900, Note_on_c, 0, 60, 0
2, 17924, Note_on_c, 0, 70, 0
2, 17968, Note_on_c, 0, 64, 46
2, 18164, Note_on_c, 0, 64, 0
2, 18200, Note_on_c, 0, 60, 83
2, 18220, Note_on_c, 0, 41, 43
2, 18268, Control_c, 0, 64, 24
2, 18280, Control_c, 0, 64, 0
2, 18360, Control_c, 0, 64, 56
2, 18376, Control_c, 0, 64, 127
2, 18380, Note_on_c, 0, 63, 58
2, 18392, Note_on_c, 0, 41, 0
2, 18500, Note_on_c, 0, 63, 0
2, 18544, Note_on_c, 0, 60, 0
2, 18544, Note_on_c, 0, 69, 65
2, 18644, Note_on_c, 0, 69, 0
2, 18672, Note_on_c, 0, 72, 71
2, 18776, Note_on_c, 0, 72, 0
2, 18820, Note_on_c, 0, 60, 93
2, 18860, Note_on_c, 0, 69, 51
2, 18968, Note_on_c, 0, 69, 0
2, 18988, Note_on_c, 0, 63, 59
2, 19028, Note_on_c, 0, 60, 0
2, 19068, Note_on_c, 0, 63, 0
2, 19096, Note_on_c, 0, 53, 54
2, 19096, Note_on_c, 0, 57, 56
2, 19172, Note_on_c, 0, 61, 92
2, 19216, Control_c, 0, 64, 72
2, 19228, Control_c, 0, 64, 0
2, 19336, Control_c, 0, 64, 56
2, 19340, Note_on_c, 0, 63, 50
2, 19352, Control_c, 0, 64, 127
2, 19444, Note_on_c, 0, 63, 0
2, 19512, Note_on_c, 0, 65, 62
2, 19620, Note_on_c, 0, 65, 0
2, 19656, Note_on_c, 0, 72, 56
2, 19752, Note_on_c, 0, 61, 0
2, 19760, Note_on_c, 0, 72, 0
2, 19796, Note_on_c, 0, 60, 93
2, 19824, Note_on_c, 0, 69, 46
2, 19864, Control_c, 0, 64, 72
2, 19880, Control_c, 0, 64, 24
2, 19928, Control_c, 0, 64, 127
2, 19956, Note_on_c, 0, 69, 0
2, 19972, Note_on_c, 0, 60, 0
2, 19972, Note_on_c, 0, 57, 0
2, 19972, Note_on_c, 0, 63, 63
2, 20000, Note_on_c, 0, 53, 0
2, 20064, Note_on_c, 0, 63, 0
2, 20276, Note_on_c, 0, 65, 88
2, 20328, Note_on_c, 0, 46, 52
2, 20328, Control_c, 0, 64, 88
2, 20344, Control_c, 0, 64, 0
2, 20544, Control_c, 0, 64, 127
2, 20556, Note_on_c, 0, 62, 58
2, 20572, Note_on_c, 0, 65, 0
2, 20648, Note_on_c, 0, 62, 0
2, 20728, Note_on_c, 0, 68, 65
2, 20784, Note_on_c, 0, 46, 0
2, 20836, Note_on_c, 0, 68, 0
2, 20900, Note_on_c, 0, 77, 67
2, 20984, Note_on_c, 0, 77, 0
2, 21048, Note_on_c, 0, 72, 60
2, 21164, Note_on_c, 0, 72, 0
2, 21172, Note_on_c, 0, 68, 56
2, 21244, Note_on_c, 0, 68, 0
2, 21344, Note_on_c, 0, 34, 55
2, 21512, Note_on_c, 0, 56, 50
2, 21656, Note_on_c, 0, 56, 0
2, 21668, Note_on_c, 0, 58, 48
2, 21800, Note_on_c, 0, 58, 0
2, 21836, Note_on_c, 0, 65, 54
2, 21896, Note_on_c, 0, 34, 0
2, 21900, Note_on_c, 0, 65, 0
2, 22024, Note_on_c, 0, 53, 88
2, 22060, Note_on_c, 0, 62, 52
2, 22116, Note_on_c, 0, 53, 0
2, 22188, Note_on_c, 0, 62, 0
2, 22212, Note_on_c, 0, 58, 51
2, 22304, Note_on_c, 0, 39, 58
2, 22316, Note_on_c, 0, 58, 0
2, 22344, Control_c, 0, 64, 72
2, 22356, Control_c, 0, 64, 0
2, 22396, Note_on_c, 0, 39, 0
2, 22408, Note_on_c, 0, 53, 89
2, 22436, Control_c, 0, 64, 72
2, 22452, Control_c, 0, 64, 127
2, 22552, Note_on_c, 0, 58, 49
2, 22648, Note_on_c, 0, 53, 0
2, 22672, Note_on_c, 0, 58, 0
2, 22700, Note_on_c, 0, 61, 59
2, 22704, Note_on_c, 0, 55, 93
2, 22832, Note_on_c, 0, 61, 0
2, 22864, Note_on_c, 0, 67, 69
2, 22980, Note_on_c, 0, 67, 0
2, 22996, Note_on_c, 0, 55, 0
2, 22996, Note_on_c, 0, 56, 93
2, 23036, Note_on_c, 0, 63, 56
2, 23156, Note_on_c, 0, 63, 0
2, 23168, Note_on_c, 0, 61, 65
2, 23244, Note_on_c, 0, 61, 0
2, 23248, Note_on_c, 0, 56, 0
2, 23284, Note_on_c, 0, 51, 72
2, 23376, Note_on_c, 0, 60, 94
2, 23428, Control_c, 0, 64, 72
2, 23444, Control_c, 0, 64, 0
2, 23524, Note_on_c, 0, 61, 60
2, 23616, Control_c, 0, 64, 104
2, 23628, Control_c, 0, 64, 127
2, 23648, Note_on_c, 0, 61, 0
2, 23668, Note_on_c, 0, 63, 63
2, 23788, Note_on_c, 0, 63, 0
2, 23828, Note_on_c, 0, 67, 55
2, 24008, Note_on_c, 0, 58, 72
2, 24024, Note_on_c, 0, 67, 0
2, 24036, Note_on_c, 0, 63, 39
2, 24052, Note_on_c, 0, 60, 0
2, 24140, Note_on_c, 0, 58, 0
2, 24144, Note_on_c, 0, 51, 0
2, 24196, Note_on_c, 0, 63, 0
2, 24204, Note_on_c, 0, 61, 49
2, 24284, Note_on_c, 0, 61, 0
2, 24400, Note_on_c, 0, 56, 70
2, 24428, Note_on_c, 0, 44, 46
2, 24528, Control_c, 0, 64, 56
2, 24544, Control_c, 0, 64, 0
2, 24568, Note_on_c, 0, 60, 50
2, 24680, Note_on_c, 0, 60, 0
2, 24716, Control_c, 0, 64, 72
2, 24724, Note_on_c, 0, 63, 49
2, 24728, Control_c, 0, 64, 127
2, 24856, Note_on_c, 0, 63, 0
2, 24876, Note_on_c, 0, 68, 51
2, 24904, Note_on_c, 0, 56, 0
2, 24956, Note_on_c, 0, 44, 0
2, 24988, Note_on_c, 0, 68, 0
2, 25020, Note_on_c, 0, 63, 51
2, 25156, Note_on_c, 0, 63, 0
2, 25176, Note_on_c, 0, 60, 56
2, 25276, Note_on_c, 0, 60, 0
2, 25352, Note_on_c, 0, 32, 44
2, 25476, Note_on_c, 0, 32, 0
2, 25524, Note_on_c, 0, 60, 55
2, 25672, Note_on_c, 0, 60, 0
2, 25704, Note_on_c, 0, 68, 48
2, 25840, Note_on_c, 0, 68, 0
2, 25868, Note_on_c, 0, 63, 52
2, 26032, Note_on_c, 0, 63, 0
2, 26080, Note_on_c, 0, 60, 48
2, 26232, Note_on_c, 0, 60, 0
2, 26272, Note_on_c, 0, 56, 80
2, 26408, Note_on_c, 0, 56, 0
2, 26572, Note_on_c, 0, 56, 78
2, 26600, Note_on_c, 0, 40, 44
2, 26680, Control_c, 0, 64, 72
2, 26696, Control_c, 0, 64, 0
2, 26756, Note_on_c, 0, 61, 60
2, 26808, Control_c, 0, 64, 72
2, 26824, Control_c, 0, 64, 127
2, 26880, Note_on_c, 0, 61, 0
2, 26936, Note_on_c, 0, 64, 48
2, 27028, Note_on_c, 0, 64, 0
2, 27060, Note_on_c, 0, 68, 55
2, 27140, Note_on_c, 0, 40, 0
2, 27224, Note_on_c, 0, 68, 0
2, 27236, Note_on_c, 0, 61, 66
2, 27248, Note_on_c, 0, 56, 0
2, 27340, Note_on_c, 0, 61, 0
2, 27380, Note_on_c, 0, 55, 83
2, 27472, Note_on_c, 0, 55, 0
2, 27540, Note_on_c, 0, 37, 46
2, 27572, Note_on_c, 0, 56, 90
2, 27604, Note_on_c, 0, 52, 43
2, 27660, Control_c, 0, 64, 40
2, 27664, Note_on_c, 0, 37, 0
2, 27672, Control_c, 0, 64, 0
2, 27744, Note_on_c, 0, 61, 66
2, 27780, Control_c, 0, 64, 127
2, 27860, Note_on_c, 0, 56, 0
2, 27876, Note_on_c, 0, 61, 0
2, 27908, Note_on_c, 0, 64, 75
2, 28016, Note_on_c, 0, 64, 0
2, 28040, Note_on_c, 0, 68, 66
2, 28132, Note_on_c, 0, 52, 0
2, 28144, Note_on_c, 0, 68, 0
2, 28196, Note_on_c, 0, 64, 78
2, 28324, Note_on_c, 0, 64, 0
2, 28352, Note_on_c, 0, 58, 88
2, 28500, Note_on_c, 0, 58, 0
2, 28620, Note_on_c, 0, 60, 92
2, 28664, Note_on_c, 0, 56, 42
2, 28668, Note_on_c, 0, 44, 47
2, 28684, Note_on_c, 0, 51, 40
2, 28744, Control_c, 0, 64, 88
2, 28760, Control_c, 0, 64, 0
2, 28824, Note_on_c, 0, 63, 63
2, 28900, Control_c, 0, 64, 104
2, 28916, Control_c, 0, 64, 127
2, 28936, Note_on_c, 0, 63, 0
2, 28988, Note_on_c, 0, 68, 59
2, 29056, Note_on_c, 0, 56, 0
2, 29080, Note_on_c, 0, 51, 0
2, 29092, Note_on_c, 0, 68, 0
2, 29120, Note_on_c, 0, 44, 0
2, 29124, Note_on_c, 0, 72, 75
2, 29212, Note_on_c, 0, 72, 0
2, 29268, Note_on_c, 0, 68, 43
2, 29396, Note_on_c, 0, 68, 0
2, 29408, Note_on_c, 0, 63, 64
2, 29444, Note_on_c, 0, 60, 0
2, 29516, Note_on_c, 0, 63, 0
2, 29580, Note_on_c, 0, 32, 42
2, 29672, Note_on_c, 0, 32, 0
2, 29724, Note_on_c, 0, 63, 51
2, 29820, Note_on_c, 0, 63, 0
2, 29924, Note_on_c, 0, 72, 67
2, 30016, Note_on_c, 0, 72, 0
2, 30068, Note_on_c, 0, 68, 63
2, 30200, Note_on_c, 0, 68, 0
2, 30236, Note_on_c, 0, 63, 58
2, 30392, Note_on_c, 0, 60, 85
2, 30396, Note_on_c, 0, 63, 0
2, 30536, Note_on_c, 0, 60, 0
2, 30656, Note_on_c, 0, 60, 88
2, 30704, Note_on_c, 0, 44, 43
2, 30744, Control_c, 0, 64, 88
2, 30760, Control_c, 0, 64, 0
2, 30832, Note_on_c, 0, 65, 70
2, 30868, Control_c, 0, 64, 72
2, 30880, Control_c, 0, 64, 127
2, 30936, Note_on_c, 0, 65, 0
2, 30980, Note_on_c, 0, 68, 69
2, 31104, Note_on_c, 0, 68, 0
2, 31132, Note_on_c, 0, 72, 82
2, 31232, Note_on_c, 0, 72, 0
2, 31252, Note_on_c, 0, 60, 0
2, 31300, Note_on_c, 0, 65, 77
2, 31384, Note_on_c, 0, 44, 0
2, 31424, Note_on_c, 0, 65, 0
2, 31436, Note_on_c, 0, 59, 92
2, 31552, Note_on_c, 0, 59, 0
2, 31620, Note_on_c, 0, 60, 94
2, 31628, Note_on_c, 0, 41, 67
2, 31628, Note_on_c, 0, 56, 56
2, 31656, Control_c, 0, 64, 72
2, 31672, Control_c, 0, 64, 0
2, 31776, Note_on_c, 0, 65, 82
2, 31780, Control_c, 0, 64, 56
2, 31796, Control_c, 0, 64, 127
2, 31900, Note_on_c, 0, 65, 0
2, 31932, Note_on_c, 0, 68, 73
2, 32004, Note_on_c, 0, 60, 0
2, 32048, Note_on_c, 0, 68, 0
2, 32072, Note_on_c, 0, 72, 92
2, 32200, Note_on_c, 0, 56, 0
2, 32212, Note_on_c, 0, 72, 0
2, 32212, Note_on_c, 0, 65, 85
2, 32288, Note_on_c, 0, 41, 0
2, 32340, Note_on_c, 0, 65, 0
2, 32376, Note_on_c, 0, 62, 100
2, 32512, Note_on_c, 0, 62, 0
2, 32620, Note_on_c, 0, 64, 105
2, 32648, Control_c, 0, 64, 72
2, 32652, Note_on_c, 0, 36, 56
2, 32664, Control_c, 0, 64, 0
2, 32724, Note_on_c, 0, 36, 0
2, 32756, Control_c, 0, 64, 88
2, 32772, Control_c, 0, 64, 127
2, 32824, Note_on_c, 0, 67, 75
2, 32868, Note_on_c, 0, 64, 0
2, 32868, Note_on_c, 0, 55, 36
2, 32920, Note_on_c, 0, 55, 0
2, 32940, Note_on_c, 0, 67, 0
2, 32976, Note_on_c, 0, 72, 94
2, 33104, Note_on_c, 0, 72, 0
2, 33120, Note_on_c, 0, 76, 87
2, 33236, Note_on_c, 0, 76, 0
2, 33272, Note_on_c, 0, 72, 85
2, 33384, Note_on_c, 0, 72, 0
2, 33404, Note_on_c, 0, 67, 82
2, 33512, Note_on_c, 0, 67, 0
2, 33548, Note_on_c, 0, 64, 97
2, 33716, Note_on_c, 0, 67, 75
2, 33816, Note_on_c, 0, 67, 0
2, 33824, Note_on_c, 0, 64, 0
2, 33860, Note_on_c, 0, 72, 89
2, 33968, Note_on_c, 0, 72, 0
2, 33996, Note_on_c, 0, 76, 93
2, 34100, Note_on_c, 0, 76, 0
2, 34140, Note_on_c, 0, 72, 86
2, 34260, Note_on_c, 0, 72, 0
2, 34272, Note_on_c, 0, 67, 85
2, 34392, Note_on_c, 0, 45, 66
2, 34420, Note_on_c, 0, 67, 0
2, 34456, Note_on_c, 0, 52, 39
2, 34524, Note_on_c, 0, 64, 94
2, 34560, Note_on_c, 0, 60, 55
2, 34588, Control_c, 0, 64, 72
2, 34604, Control_c, 0, 64, 0
2, 34724, Control_c, 0, 64, 104
2, 34728, Note_on_c, 0, 69, 73
2, 34736, Control_c, 0, 64, 127
2, 34744, Note_on_c, 0, 64, 0
2, 34796, Note_on_c, 0, 45, 0
2, 34816, Note_on_c, 0, 60, 0
2, 34832, Note_on_c, 0, 69, 0
2, 34848, Note_on_c, 0, 52, 0
2, 34872, Note_on_c, 0, 72, 80
2, 34980, Note_on_c, 0, 72, 0
2, 35016, Note_on_c, 0, 76, 70
2, 35100, Note_on_c, 0, 76, 0
2, 35152, Note_on_c, 0, 72, 71
2, 35276, Note_on_c, 0, 72, 0
2, 35280, Note_on_c, 0, 69, 78
2, 35388, Note_on_c, 0, 69, 0
2, 35440, Note_on_c, 0, 64, 85
2, 35592, Note_on_c, 0, 69, 66
2, 35704, Note_on_c, 0, 69, 0
2, 35716, Note_on_c, 0, 64, 0
2, 35748, Note_on_c, 0, 72, 77
2, 35876, Note_on_c, 0, 72, 0
2, 35912, Note_on_c, 0, 76, 58
2, 36020, Note_on_c, 0, 76, 0
2, 36076, Note_on_c, 0, 72, 60
2, 36196, Note_on_c, 0, 72, 0
2, 36232, Note_on_c, 0, 69, 60
2, 36352, Note_on_c, 0, 69, 0
2, 36440, Note_on_c, 0, 40, 51
2, 36448, Control_c, 0, 64, 88
2, 36460, Control_c, 0, 64, 0
2, 36500, Note_on_c, 0, 47, 54
2, 36520, Note_on_c, 0, 40, 0
2, 36520, Note_on_c, 0, 64, 82
2, 36552, Control_c, 0, 64, 127
2, 36588, Note_on_c, 0, 47, 0
2, 36624, Note_on_c, 0, 56, 29
2, 36692, Note_on_c, 0, 68, 55
2, 36712, Note_on_c, 0, 56, 0
2, 36712, Note_on_c, 0, 64, 0
2, 36816, Note_on_c, 0, 68, 0
2, 36864, Note_on_c, 0, 71, 55
2, 36984, Note_on_c, 0, 71, 0
2, 37008, Note_on_c, 0, 76, 65
2, 37128, Note_on_c, 0, 76, 0
2, 37160, Note_on_c, 0, 71, 47
2, 37276, Note_on_c, 0, 71, 0
2, 37276, Note_on_c, 0, 68, 52
2, 37356, Note_on_c, 0, 68, 0
2, 37424, Note_on_c, 0, 59, 77
2, 37584, Note_on_c, 0, 64, 57
2, 37680, Note_on_c, 0, 64, 0
2, 37748, Note_on_c, 0, 59, 0
2, 37748, Note_on_c, 0, 68, 56
2, 37868, Note_on_c, 0, 68, 0
2, 37892, Note_on_c, 0, 71, 64
2, 38020, Note_on_c, 0, 71, 0
2, 38052, Note_on_c, 0, 68, 41
2, 38196, Note_on_c, 0, 68, 0
2, 38208, Note_on_c, 0, 64, 47
2, 38268, Note_on_c, 0, 64, 0
2, 38452, Note_on_c, 0, 61, 77
2, 38472, Note_on_c, 0, 56, 39
2, 38496, Note_on_c, 0, 40, 40
2, 38504, Control_c, 0, 64, 88
2, 38520, Control_c, 0, 64, 24
2, 38540, Control_c, 0, 64, 0
2, 38660, Note_on_c, 0, 64, 67
2, 38660, Control_c, 0, 64, 72
2, 38676, Note_on_c, 0, 61, 0
2, 38676, Control_c, 0, 64, 127
2, 38704, Note_on_c, 0, 56, 0
2, 38772, Note_on_c, 0, 64, 0
2, 38808, Note_on_c, 0, 68, 46
2, 38852, Note_on_c, 0, 68, 0
2, 38940, Note_on_c, 0, 73, 78
2, 39060, Note_on_c, 0, 73, 0
2, 39080, Note_on_c, 0, 68, 58
2, 39228, Note_on_c, 0, 40, 0
2, 39232, Note_on_c, 0, 68, 0
2, 39240, Note_on_c, 0, 64, 63
2, 39284, Note_on_c, 0, 64, 0
2, 39564, Note_on_c, 0, 61, 52
2, 39668, Note_on_c, 0, 61, 0
2, 39736, Note_on_c, 0, 64, 48
2, 39788, Note_on_c, 0, 64, 0
2, 39864, Note_on_c, 0, 68, 46
2, 39988, Note_on_c, 0, 68, 0
2, 40012, Note_on_c, 0, 56, 74
2, 40036, Note_on_c, 0, 64, 46
2, 40132, Note_on_c, 0, 64, 0
2, 40132, Note_on_c, 0, 56, 0
2, 40184, Note_on_c, 0, 61, 42
2, 40396, Note_on_c, 0, 61, 0
2, 40420, Note_on_c, 0, 39, 48
2, 40436, Note_on_c, 0, 58, 77
2, 40444, Control_c, 0, 64, 56
2, 40456, Control_c, 0, 64, 0
2, 40560, Note_on_c, 0, 39, 0
2, 40568, Control_c, 0, 64, 104
2, 40584, Control_c, 0, 64, 127
2, 40628, Note_on_c, 0, 63, 60
2, 40644, Note_on_c, 0, 55, 52
2, 40700, Note_on_c, 0, 55, 0
2, 40740, Note_on_c, 0, 63, 0
2, 40784, Note_on_c, 0, 67, 70
2, 40896, Note_on_c, 0, 67, 0
2, 40916, Note_on_c, 0, 70, 63
2, 41028, Note_on_c, 0, 70, 0
2, 41084, Note_on_c, 0, 67, 40
2, 41192, Note_on_c, 0, 63, 60
2, 41208, Note_on_c, 0, 67, 0
2, 41232, Note_on_c, 0, 58, 0
2, 41288, Note_on_c, 0, 63, 0
2, 41432, Note_on_c, 0, 61, 82
2, 41452, Control_c, 0, 64, 88
2, 41468, Note_on_c, 0, 56, 35
2, 41468, Control_c, 0, 64, 24
2, 41484, Control_c, 0, 64, 0
2, 41488, Note_on_c, 0, 40, 46
2, 41572, Control_c, 0, 64, 56
2, 41592, Control_c, 0, 64, 127
2, 41656, Note_on_c, 0, 64, 70
2, 41664, Note_on_c, 0, 56, 0
2, 41688, Note_on_c, 0, 40, 0
2, 41696, Note_on_c, 0, 61, 0
2, 41780, Note_on_c, 0, 64, 0
2, 41808, Note_on_c, 0, 68, 50
2, 41852, Note_on_c, 0, 68, 0
2, 41924, Note_on_c, 0, 73, 81
2, 42028, Note_on_c, 0, 73, 0
2, 42064, Note_on_c, 0, 59, 86
2, 42072, Note_on_c, 0, 68, 58
2, 42148, Note_on_c, 0, 59, 0
2, 42188, Note_on_c, 0, 68, 0
2, 42224, Note_on_c, 0, 64, 62
2, 42356, Note_on_c, 0, 39, 46
2, 42368, Note_on_c, 0, 64, 0
2, 42380, Control_c, 0, 64, 72
2, 42388, Note_on_c, 0, 58, 86
2, 42396, Control_c, 0, 64, 0
2, 42464, Note_on_c, 0, 55, 44
2, 42476, Control_c, 0, 64, 72
2, 42480, Note_on_c, 0, 39, 0
2, 42492, Control_c, 0, 64, 127
2, 42544, Note_on_c, 0, 63, 73
2, 42564, Note_on_c, 0, 55, 0
2, 42584, Note_on_c, 0, 58, 0
2, 42692, Note_on_c, 0, 63, 0
2, 42692, Note_on_c, 0, 57, 86
2, 42712, Note_on_c, 0, 67, 78
2, 42824, Note_on_c, 0, 67, 0
2, 42836, Note_on_c, 0, 70, 70
2, 42952, Note_on_c, 0, 57, 0
2, 42972, Note_on_c, 0, 58, 100
2, 42988, Note_on_c, 0, 70, 0
2, 43008, Note_on_c, 0, 67, 47
2, 43084, Note_on_c, 0, 58, 0
2, 43104, Note_on_c, 0, 67, 0
2, 43104, Note_on_c, 0, 63, 63
2, 43180, Note_on_c, 0, 63, 0
2, 43328, Note_on_c, 0, 61, 95
2, 43340, Control_c, 0, 64, 104
2, 43352, Note_on_c, 0, 56, 46
2, 43356, Control_c, 0, 64, 40
2, 43372, Note_on_c, 0, 40, 52
2, 43372, Control_c, 0, 64, 0
2, 43484, Control_c, 0, 64, 127
2, 43504, Note_on_c, 0, 56, 0
2, 43512, Note_on_c, 0, 64, 80
2, 43536, Note_on_c, 0, 61, 0
2, 43560, Note_on_c, 0, 40, 0
2, 43640, Note_on_c, 0, 64, 0
2, 43660, Note_on_c, 0, 68, 73
2, 43736, Note_on_c, 0, 68, 0
2, 43792, Note_on_c, 0, 73, 88
2, 43900, Note_on_c, 0, 73, 0
2, 43924, Note_on_c, 0, 68, 69
2, 43948, Note_on_c, 0, 59, 94
2, 44024, Note_on_c, 0, 59, 0
2, 44048, Note_on_c, 0, 68, 0
2, 44072, Note_on_c, 0, 64, 80
2, 44212, Note_on_c, 0, 39, 65
2, 44220, Note_on_c, 0, 64, 0
2, 44244, Control_c, 0, 64, 56
2, 44248, Note_on_c, 0, 58, 90
2, 44256, Control_c, 0, 64, 0
2, 44272, Note_on_c, 0, 39, 0
2, 44312, Note_on_c, 0, 55, 77
2, 44336, Control_c, 0, 64, 127
2, 44376, Note_on_c, 0, 55, 0
2, 44396, Note_on_c, 0, 63, 74
2, 44412, Note_on_c, 0, 58, 0
2, 44524, Note_on_c, 0, 63, 0
2, 44540, Note_on_c, 0, 57, 95
2, 44552, Note_on_c, 0, 67, 80
2, 44656, Note_on_c, 0, 67, 0
2, 44676, Note_on_c, 0, 70, 71
2, 44776, Note_on_c, 0, 57, 0
2, 44812, Note_on_c, 0, 67, 70
2, 44820, Note_on_c, 0, 70, 0
2, 44820, Note_on_c, 0, 58, 103
2, 44940, Note_on_c, 0, 58, 0
2, 44948, Note_on_c, 0, 63, 72
2, 44964, Note_on_c, 0, 67, 0
2, 45032, Note_on_c, 0, 63, 0
2, 45204, Note_on_c, 0, 64, 105
2, 45224, Note_on_c, 0, 37, 50
2, 45232, Control_c, 0, 64, 104
2, 45248, Control_c, 0, 64, 0
2, 45252, Note_on_c, 0, 49, 52
2, 45356, Control_c, 0, 64, 72
2, 45368, Control_c, 0, 64, 127
2, 45396, Note_on_c, 0, 37, 0
2, 45408, Note_on_c, 0, 68, 77
2, 45420, Note_on_c, 0, 49, 0
2, 45544, Note_on_c, 0, 68, 0
2, 45580, Note_on_c, 0, 64, 0
2, 45580, Note_on_c, 0, 70, 79
2, 45600, Note_on_c, 0, 56, 79
2, 45748, Note_on_c, 0, 70, 0
2, 45764, Note_on_c, 0, 76, 90
2, 45928, Note_on_c, 0, 56, 0
2, 45940, Note_on_c, 0, 76, 0
2, 45940, Note_on_c, 0, 58, 90
2, 45952, Note_on_c, 0, 70, 74
2, 46084, Note_on_c, 0, 70, 0
2, 46108, Note_on_c, 0, 68, 71
2, 46176, Note_on_c, 0, 68, 0
2, 46408, Note_on_c, 0, 64, 93
2, 46428, Note_on_c, 0, 58, 0
2, 46676, Control_c, 0, 64, 56
2, 46692, Control_c, 0, 64, 0
2, 46952, Control_c, 0, 64, 72
2, 47000, Control_c, 0, 64, 0
2, 47092, Control_c, 0, 64, 88
2, 47108, Control_c, 0, 64, 127
2, 47616, Note_on_c, 0, 63, 85
2, 47648, Note_on_c, 0, 64, 0
2, 47664, Control_c, 0, 64, 88
2, 47680, Control_c, 0, 64, 0
2, 47808, Control_c, 0, 64, 72
2, 47820, Control_c, 0, 64, 127
2, 48080, Note_on_c, 0, 61, 74
2, 48112, Note_on_c, 0, 63, 0
2, 48112, Control_c, 0, 64, 72
2, 48128, Control_c, 0, 64, 0
2, 48224, Control_c, 0, 64, 56
2, 48240, Control_c, 0, 64, 127
2, 48424, Control_c, 0, 64, 72
2, 48440, Control_c, 0, 64, 0
2, 48444, Note_on_c, 0, 61, 0
2, 48444, Note_on_c, 0, 59, 80
2, 48536, Control_c, 0, 64, 56
2, 48552, Control_c, 0, 64, 127
2, 48796, Note_on_c, 0, 58, 73
2, 48816, Note_on_c, 0, 59, 0
2, 48840, Control_c, 0, 64, 24
2, 48856, Control_c, 0, 64, 0
2, 48952, Control_c, 0, 64, 72
2, 48968, Control_c, 0, 64, 127
2, 49212, Note_on_c, 0, 56, 70
2, 49240, Note_on_c, 0, 58, 0
2, 49248, Control_c, 0, 64, 104
2, 49264, Control_c, 0, 64, 40
2, 49280, Control_c, 0, 64, 0
2, 49400, Control_c, 0, 64, 72
2, 49416, Control_c, 0, 64, 127
2, 49888, Note_on_c, 0, 56, 0
2, 49888, Note_on_c, 0, 55, 62
2, 49988, Control_c, 0, 64, 88
2, 50008, Control_c, 0, 64, 72
2, 50020, Control_c, 0, 64, 24
2, 50036, Control_c, 0, 64, 0
2, 50220, Control_c, 0, 64, 88
2, 50236, Control_c, 0, 64, 127
2, 50388, Note_on_c, 0, 55, 0
2, 51316, Note_on_c, 0, 39, 43
2, 51316, Control_c, 0, 64, 40
2, 51328, Control_c, 0, 64, 88
2, 51340, Control_c, 0, 64, 127
2, 51524, Note_on_c, 0, 39, 0
2, 51532, Note_on_c, 0, 46, 46
2, 51696, Note_on_c, 0, 46, 0
2, 51704, Note_on_c, 0, 49, 51
2, 51832, Note_on_c, 0, 49, 0
2, 51864, Note_on_c, 0, 55, 64
2, 52012, Note_on_c, 0, 58, 65
2, 52024, Note_on_c, 0, 55, 0
2, 52164, Note_on_c, 0, 58, 0
2, 52172, Note_on_c, 0, 61, 66
2, 52324, Note_on_c, 0, 61, 0
2, 52332, Note_on_c, 0, 64, 69
2, 52476, Note_on_c, 0, 64, 0
2, 52480, Note_on_c, 0, 63, 69
2, 52548, Note_on_c, 0, 63, 0
2, 52636, Note_on_c, 0, 68, 66
2, 52648, Note_on_c, 0, 64, 54
2, 52728, Note_on_c, 0, 64, 0
2, 52728, Note_on_c, 0, 68, 0
2, 52772, Note_on_c, 0, 63, 54
2, 52780, Note_on_c, 0, 67, 74
2, 52808, Note_on_c, 0, 63, 0
2, 52816, Note_on_c, 0, 67, 0
2, 52928, Note_on_c, 0, 68, 71
2, 52928, Note_on_c, 0, 73, 66
2, 52936, Note_on_c, 0, 64, 60
2, 53008, Note_on_c, 0, 68, 0
2, 53012, Note_on_c, 0, 73, 0
2, 53068, Note_on_c, 0, 64, 0
2, 53076, Note_on_c, 0, 67, 56
2, 53076, Note_on_c, 0, 70, 74
2, 53076, Note_on_c, 0, 63, 63
2, 53108, Note_on_c, 0, 67, 0
2, 53124, Note_on_c, 0, 70, 0
2, 53128, Note_on_c, 0, 63, 0
2, 53220, Note_on_c, 0, 76, 74
2, 53224, Note_on_c, 0, 73, 67
2, 53232, Note_on_c, 0, 68, 57
2, 53284, Note_on_c, 0, 76, 0
2, 53320, Note_on_c, 0, 73, 0
2, 53332, Note_on_c, 0, 68, 0
2, 53360, Note_on_c, 0, 75, 83
2, 53360, Note_on_c, 0, 70, 69
2, 53372, Note_on_c, 0, 67, 59
2, 53404, Note_on_c, 0, 67, 0
2, 53404, Note_on_c, 0, 70, 0
2, 53420, Note_on_c, 0, 75, 0
2, 53492, Note_on_c, 0, 80, 74
2, 53512, Note_on_c, 0, 76, 78
2, 53520, Note_on_c, 0, 71, 59
2, 53536, Control_c, 0, 64, 88
2, 53548, Control_c, 0, 64, 72
2, 53588, Control_c, 0, 64, 127
2, 53600, Note_on_c, 0, 76, 0
2, 53608, Note_on_c, 0, 80, 0
2, 53612, Note_on_c, 0, 71, 0
2, 53636, Note_on_c, 0, 75, 71
2, 53640, Note_on_c, 0, 70, 58
2, 53644, Note_on_c, 0, 79, 87
2, 53684, Note_on_c, 0, 75, 0
2, 53688, Note_on_c, 0, 70, 0
2, 53692, Note_on_c, 0, 79, 0
2, 53788, Note_on_c, 0, 85, 77
2, 53792, Note_on_c, 0, 80, 81
2, 53800, Note_on_c, 0, 76, 70
2, 53812, Control_c, 0, 64, 88
2, 53848, Control_c, 0, 64, 127
2, 53876, Note_on_c, 0, 80, 0
2, 53880, Note_on_c, 0, 76, 0
2, 53896, Note_on_c, 0, 85, 0
2, 53928, Note_on_c, 0, 75, 66
2, 53932, Note_on_c, 0, 82, 78
2, 53932, Note_on_c, 0, 79, 64
2, 53964, Note_on_c, 0, 79, 0
2, 53972, Note_on_c, 0, 75, 0
2, 53980, Note_on_c, 0, 82, 0
2, 54072, Note_on_c, 0, 88, 78
2, 54080, Note_on_c, 0, 85, 72
2, 54084, Note_on_c, 0, 80, 65
2, 54084, Control_c, 0, 64, 104
2, 54096, Control_c, 0, 64, 88
2, 54108, Control_c, 0, 64, 127
2, 54132, Note_on_c, 0, 88, 0
2, 54180, Note_on_c, 0, 80, 0
2, 54184, Note_on_c, 0, 85, 0
2, 54216, Note_on_c, 0, 87, 80
2, 54220, Note_on_c, 0, 82, 74
2, 54220, Note_on_c, 0, 79, 66
2, 54248, Note_on_c, 0, 79, 0
2, 54260, Note_on_c, 0, 82, 0
2, 54276, Note_on_c, 0, 87, 0
2, 54356, Note_on_c, 0, 92, 89
2, 54372, Note_on_c, 0, 88, 81
2, 54376, Note_on_c, 0, 83, 66
2, 54436, Note_on_c, 0, 88, 0
2, 54456, Note_on_c, 0, 92, 0
2, 54464, Note_on_c, 0, 83, 0
2, 54492, Note_on_c, 0, 87, 79
2, 54500, Note_on_c, 0, 91, 94
2, 54504, Note_on_c, 0, 82, 60
2, 54536, Note_on_c, 0, 87, 0
2, 54544, Note_on_c, 0, 91, 0
2, 54548, Note_on_c, 0, 82, 0
2, 54640, Note_on_c, 0, 97, 89
2, 54648, Note_on_c, 0, 92, 93
2, 54652, Note_on_c, 0, 88, 71
2, 54712, Note_on_c, 0, 92, 0
2, 54744, Note_on_c, 0, 88, 0
2, 54744, Note_on_c, 0, 97, 0
2, 54784, Note_on_c, 0, 87, 66
2, 54792, Note_on_c, 0, 94, 88
2, 54792, Note_on_c, 0, 91, 78
2, 54824, Note_on_c, 0, 91, 0
2, 54836, Note_on_c, 0, 87, 0
2, 54844, Note_on_c, 0, 94, 0
2, 54940, Note_on_c, 0, 100, 97
2, 54948, Note_on_c, 0, 97, 83
2, 54948, Note_on_c, 0, 92, 69
2, 54952, Control_c, 0, 64, 88
2, 54964, Control_c, 0, 64, 40
2, 55000, Control_c, 0, 64, 127
2, 55016, Note_on_c, 0, 100, 0
2, 55024, Note_on_c, 0, 97, 0
2, 55044, Note_on_c, 0, 92, 0
2, 55072, Note_on_c, 0, 99, 90
2, 55080, Note_on_c, 0, 91, 67
2, 55088, Note_on_c, 0, 94, 81
2, 55144, Note_on_c, 0, 94, 0
2, 55164, Note_on_c, 0, 99, 0
2, 55184, Note_on_c, 0, 91, 0
2, 55212, Note_on_c, 0, 92, 82
2, 55212, Note_on_c, 0, 100, 90
2, 55216, Note_on_c, 0, 97, 79
2, 55304, Note_on_c, 0, 97, 0
2, 55304, Note_on_c, 0, 100, 0
2, 55308, Note_on_c, 0, 92, 0
2, 55340, Note_on_c, 0, 99, 88
2, 55348, Note_on_c, 0, 91, 74
2, 55356, Note_on_c, 0, 94, 73
2, 55392, Note_on_c, 0, 94, 0
2, 55404, Note_on_c, 0, 99, 0
2, 55436, Note_on_c, 0, 91, 0
2, 55480, Note_on_c, 0, 97, 88
2, 55484, Note_on_c, 0, 92, 96
2, 55484, Note_on_c, 0, 88, 66
2, 55544, Note_on_c, 0, 92, 0
2, 55572, Note_on_c, 0, 97, 0
2, 55608, Note_on_c, 0, 88, 0
2, 55616, Note_on_c, 0, 94, 83
2, 55616, Note_on_c, 0, 87, 70
2, 55624, Note_on_c, 0, 91, 77
2, 55664, Note_on_c, 0, 87, 0
2, 55668, Note_on_c, 0, 94, 0
2, 55680, Note_on_c, 0, 91, 0
2, 55756, Note_on_c, 0, 92, 81
2, 55756, Note_on_c, 0, 88, 81
2, 55760, Note_on_c, 0, 85, 70
2, 55832, Note_on_c, 0, 88, 0
2, 55844, Note_on_c, 0, 92, 0
2, 55856, Note_on_c, 0, 85, 0
2, 55892, Note_on_c, 0, 91, 82
2, 55892, Note_on_c, 0, 87, 73
2, 55896, Note_on_c, 0, 82, 57
2, 55960, Note_on_c, 0, 87, 0
2, 55972, Note_on_c, 0, 91, 0
2, 55992, Note_on_c, 0, 82, 0
2, 56012, Note_on_c, 0, 92, 74
2, 56024, Note_on_c, 0, 85, 64
2, 56028, Note_on_c, 0, 88, 72
2, 56080, Note_on_c, 0, 88, 0
2, 56108, Note_on_c, 0, 92, 0
2, 56144, Note_on_c, 0, 85, 0
2, 56152, Note_on_c, 0, 91, 86
2, 56156, Note_on_c, 0, 82, 67
2, 56156, Note_on_c, 0, 87, 65
2, 56200, Note_on_c, 0, 91, 0
2, 56208, Note_on_c, 0, 87, 0
2, 56260, Note_on_c, 0, 82, 0
2, 56292, Note_on_c, 0, 80, 57
2, 56292, Note_on_c, 0, 85, 74
2, 56292, Note_on_c, 0, 88, 81
2, 56348, Note_on_c, 0, 88, 0
2, 56356, Note_on_c, 0, 85, 0
2, 56396, Note_on_c, 0, 80, 0
2, 56412, Note_on_c, 0, 87, 81
2, 56420, Note_on_c, 0, 82, 77
2, 56424, Note_on_c, 0, 79, 65
2, 56480, Note_on_c, 0, 87, 0
2, 56484, Note_on_c, 0, 82, 0
2, 56544, Note_on_c, 0, 79, 0
2, 56564, Note_on_c, 0, 85, 72
2, 56572, Note_on_c, 0, 80, 70
2, 56572, Note_on_c, 0, 76, 56
2, 56588, Control_c, 0, 64, 88
2, 56600, Control_c, 0, 64, 24
2, 56612, Control_c, 0, 64, 0
2, 56636, Control_c, 0, 64, 40
2, 56644, Note_on_c, 0, 80, 0
2, 56648, Control_c, 0, 64, 104
2, 56664, Note_on_c, 0, 85, 0
2, 56664, Control_c, 0, 64, 127
2, 56680, Note_on_c, 0, 76, 0
2, 56696, Note_on_c, 0, 82, 72
2, 56700, Note_on_c, 0, 75, 64
2, 56704, Note_on_c, 0, 79, 71
2, 56760, Note_on_c, 0, 79, 0
2, 56788, Note_on_c, 0, 82, 0
2, 56808, Note_on_c, 0, 75, 0
2, 56828, Note_on_c, 0, 85, 71
2, 56836, Note_on_c, 0, 80, 77
2, 56836, Note_on_c, 0, 76, 64
2, 56916, Note_on_c, 0, 80, 0
2, 56924, Note_on_c, 0, 85, 0
2, 56928, Note_on_c, 0, 76, 0
2, 56960, Note_on_c, 0, 75, 62
2, 56960, Note_on_c, 0, 82, 71
2, 56972, Note_on_c, 0, 79, 69
2, 57008, Note_on_c, 0, 79, 0
2, 57012, Note_on_c, 0, 82, 0
2, 57080, Note_on_c, 0, 75, 0
2, 57096, Note_on_c, 0, 73, 56
2, 57104, Note_on_c, 0, 80, 66
2, 57104, Note_on_c, 0, 76, 67
2, 57156, Note_on_c, 0, 76, 0
2, 57180, Note_on_c, 0, 80, 0
2, 57236, Note_on_c, 0, 79, 80
2, 57236, Note_on_c, 0, 75, 69
2, 57248, Note_on_c, 0, 70, 60
2, 57280, Note_on_c, 0, 73, 0
2, 57288, Note_on_c, 0, 79, 0
2, 57300, Note_on_c, 0, 75, 0
2, 57308, Note_on_c, 0, 70, 0
2, 57384, Note_on_c, 0, 73, 70
2, 57384, Note_on_c, 0, 76, 70
2, 57384, Note_on_c, 0, 68, 50
2, 57416, Note_on_c, 0, 76, 0
2, 57456, Note_on_c, 0, 73, 0
2, 57468, Note_on_c, 0, 68, 0
2, 57516, Note_on_c, 0, 75, 77
2, 57524, Note_on_c, 0, 70, 69
2, 57528, Note_on_c, 0, 67, 55
2, 57580, Note_on_c, 0, 70, 0
2, 57596, Note_on_c, 0, 75, 0
2, 57620, Note_on_c, 0, 67, 0
2, 57656, Note_on_c, 0, 73, 67
2, 57660, Note_on_c, 0, 76, 78
2, 57664, Note_on_c, 0, 68, 51
2, 57716, Note_on_c, 0, 76, 0
2, 57740, Note_on_c, 0, 73, 0
2, 57752, Note_on_c, 0, 68, 0
2, 57780, Note_on_c, 0, 75, 79
2, 57796, Note_on_c, 0, 70, 63
2, 57800, Note_on_c, 0, 67, 50
2, 57828, Note_on_c, 0, 70, 0
2, 57844, Note_on_c, 0, 75, 0
2, 57884, Note_on_c, 0, 67, 0
2, 57924, Note_on_c, 0, 73, 69
2, 57940, Control_c, 0, 64, 104
2, 57944, Note_on_c, 0, 64, 66
2, 57952, Control_c, 0, 64, 56
2, 57988, Control_c, 0, 64, 127
2, 58020, Note_on_c, 0, 73, 0
2, 58060, Note_on_c, 0, 64, 0
2, 58072, Note_on_c, 0, 70, 64
2, 58076, Note_on_c, 0, 67, 69
2, 58080, Note_on_c, 0, 63, 59
2, 58132, Note_on_c, 0, 67, 0
2, 58160, Note_on_c, 0, 70, 0
2, 58176, Note_on_c, 0, 63, 0
2, 58224, Note_on_c, 0, 73, 66
2, 58232, Note_on_c, 0, 68, 64
2, 58240, Note_on_c, 0, 64, 47
2, 58240, Control_c, 0, 64, 104
2, 58252, Control_c, 0, 64, 24
2, 58264, Control_c, 0, 64, 0
2, 58312, Control_c, 0, 64, 40
2, 58324, Note_on_c, 0, 68, 0
2, 58324, Control_c, 0, 64, 104
2, 58336, Note_on_c, 0, 64, 0
2, 58340, Control_c, 0, 64, 127
2, 58344, Note_on_c, 0, 73, 0
2, 58360, Note_on_c, 0, 70, 69
2, 58368, Note_on_c, 0, 63, 50
2, 58368, Note_on_c, 0, 67, 64
2, 58428, Note_on_c, 0, 67, 0
2, 58460, Note_on_c, 0, 70, 0
2, 58468, Note_on_c, 0, 63, 0
2, 58500, Note_on_c, 0, 73, 65
2, 58504, Note_on_c, 0, 68, 62
2, 58508, Note_on_c, 0, 64, 50
2, 58588, Note_on_c, 0, 68, 0
2, 58608, Note_on_c, 0, 73, 0
2, 58616, Note_on_c, 0, 64, 0
2, 58636, Note_on_c, 0, 70, 73
2, 58640, Note_on_c, 0, 63, 44
2, 58648, Note_on_c, 0, 67, 63
2, 58720, Note_on_c, 0, 67, 0
2, 58756, Note_on_c, 0, 70, 0
2, 58772, Note_on_c, 0, 63, 0
2, 58780, Note_on_c, 0, 73, 70
2, 58780, Note_on_c, 0, 68, 65
2, 58784, Control_c, 0, 64, 72
2, 58792, Note_on_c, 0, 64, 60
2, 58796, Control_c, 0, 64, 40
2, 58832, Control_c, 0, 64, 104
2, 58844, Control_c, 0, 64, 127
2, 58876, Note_on_c, 0, 68, 0
2, 58900, Note_on_c, 0, 64, 0
2, 58908, Note_on_c, 0, 70, 73
2, 58908, Note_on_c, 0, 63, 52
2, 58908, Control_c, 0, 64, 88
2, 58916, Note_on_c, 0, 73, 0
2, 58920, Note_on_c, 0, 67, 62
2, 58944, Control_c, 0, 64, 127
2, 58992, Note_on_c, 0, 67, 0
2, 59028, Note_on_c, 0, 70, 0
2, 59036, Note_on_c, 0, 63, 0
2, 59048, Note_on_c, 0, 68, 71
2, 59048, Note_on_c, 0, 73, 71
2, 59056, Note_on_c, 0, 64, 55
2, 59140, Note_on_c, 0, 68, 0
2, 59172, Note_on_c, 0, 64, 0
2, 59176, Note_on_c, 0, 73, 0
2, 59188, Note_on_c, 0, 70, 80
2, 59188, Note_on_c, 0, 63, 46
2, 59200, Note_on_c, 0, 67, 67
2, 59264, Note_on_c, 0, 67, 0
2, 59304, Note_on_c, 0, 70, 0
2, 59316, Note_on_c, 0, 63, 0
2, 59328, Note_on_c, 0, 73, 73
2, 59332, Note_on_c, 0, 68, 64
2, 59336, Note_on_c, 0, 64, 57
2, 59420, Note_on_c, 0, 68, 0
2, 59448, Note_on_c, 0, 73, 0
2, 59456, Note_on_c, 0, 64, 0
2, 59460, Note_on_c, 0, 70, 81
2, 59468, Note_on_c, 0, 63, 42
2, 59476, Note_on_c, 0, 67, 60
2, 59516, Note_on_c, 0, 67, 0
2, 59580, Note_on_c, 0, 70, 0
2, 59596, Note_on_c, 0, 63, 0
2, 59604, Note_on_c, 0, 73, 74
2, 59604, Control_c, 0, 64, 104
2, 59608, Note_on_c, 0, 68, 70
2, 59616, Note_on_c, 0, 64, 58
2, 59616, Control_c, 0, 64, 24
2, 59628, Control_c, 0, 64, 0
2, 59680, Control_c, 0, 64, 24
2, 59692, Control_c, 0, 64, 72
2, 59700, Note_on_c, 0, 68, 0
2, 59704, Control_c, 0, 64, 104
2, 59716, Control_c, 0, 64, 127
2, 59728, Note_on_c, 0, 73, 0
2, 59732, Note_on_c, 0, 64, 0
2, 59736, Note_on_c, 0, 70, 74
2, 59744, Note_on_c, 0, 63, 48
2, 59752, Note_on_c, 0, 67, 67
2, 59828, Note_on_c, 0, 67, 0
2, 59852, Note_on_c, 0, 70, 0
2, 59868, Note_on_c, 0, 63, 0
2, 59876, Control_c, 0, 64, 72
2, 59880, Note_on_c, 0, 73, 63
2, 59884, Note_on_c, 0, 68, 60
2, 59892, Control_c, 0, 64, 24
2, 59896, Note_on_c, 0, 64, 50
2, 59904, Control_c, 0, 64, 0
2, 59940, Control_c, 0, 64, 40
2, 59952, Control_c, 0, 64, 88
2, 59964, Control_c, 0, 64, 127
2, 59988, Note_on_c, 0, 68, 0
2, 60012, Note_on_c, 0, 64, 0
2, 60024, Note_on_c, 0, 63, 43
2, 60028, Note_on_c, 0, 73, 0
2, 60028, Note_on_c, 0, 70, 62
2, 60036, Note_on_c, 0, 67, 56
2, 60108, Note_on_c, 0, 67, 0
2, 60144, Note_on_c, 0, 70, 0
2, 60152, Control_c, 0, 64, 104
2, 60156, Note_on_c, 0, 63, 0
2, 60160, Control_c, 0, 64, 56
2, 60172, Note_on_c, 0, 68, 58
2, 60172, Note_on_c, 0, 73, 65
2, 60176, Note_on_c, 0, 64, 47
2, 60176, Control_c, 0, 64, 0
2, 60212, Control_c, 0, 64, 56
2, 60224, Control_c, 0, 64, 88
2, 60236, Control_c, 0, 64, 127
2, 60288, Note_on_c, 0, 68, 0
2, 60312, Note_on_c, 0, 64, 0
2, 60316, Note_on_c, 0, 73, 0
2, 60316, Note_on_c, 0, 70, 65
2, 60320, Note_on_c, 0, 63, 39
2, 60328, Note_on_c, 0, 67, 56
2, 60396, Note_on_c, 0, 67, 0
2, 60440, Note_on_c, 0, 70, 0
2, 60460, Note_on_c, 0, 63, 0
2, 60472, Note_on_c, 0, 73, 60
2, 60476, Note_on_c, 0, 68, 52
2, 60480, Note_on_c, 0, 64, 48
2, 60496, Control_c, 0, 64, 104
2, 60508, Control_c, 0, 64, 56
2, 60524, Control_c, 0, 64, 40
2, 60560, Note_on_c, 0, 68, 0
2, 60560, Control_c, 0, 64, 88
2, 60572, Control_c, 0, 64, 127
2, 60616, Note_on_c, 0, 73, 0
2, 60620, Control_c, 0, 64, 88
2, 60632, Note_on_c, 0, 64, 0
2, 60632, Note_on_c, 0, 70, 52
2, 60632, Control_c, 0, 64, 56
2, 60636, Note_on_c, 0, 63, 40
2, 60644, Note_on_c, 0, 67, 39
2, 60668, Control_c, 0, 64, 88
2, 60684, Control_c, 0, 64, 127
2, 60696, Note_on_c, 0, 67, 0
2, 60800, Note_on_c, 0, 63, 0
2, 60816, Note_on_c, 0, 70, 0
2, 60824, Note_on_c, 0, 68, 37
2, 60828, Note_on_c, 0, 73, 56
2, 60840, Note_on_c, 0, 64, 34
2, 60844, Control_c, 0, 64, 72
2, 60856, Control_c, 0, 64, 24
2, 60892, Control_c, 0, 64, 72
2, 60904, Control_c, 0, 64, 127
2, 61012, Note_on_c, 0, 68, 0
2, 61060, Note_on_c, 0, 73, 0
2, 61068, Note_on_c, 0, 64, 0
2, 61084, Note_on_c, 0, 70, 43
2, 61092, Note_on_c, 0, 63, 33
2, 61112, Note_on_c, 0, 67, 27
2, 61128, Control_c, 0, 64, 104
2, 61140, Control_c, 0, 64, 72
2, 61156, Control_c, 0, 64, 56
2, 61168, Control_c, 0, 64, 24
2, 61180, Control_c, 0, 64, 0
2, 61724, Note_on_c, 0, 67, 0
2, 61752, Note_on_c, 0, 70, 0
2, 61760, Note_on_c, 0, 63, 0
2, 62328, Note_on_c, 0, 74, 62
2, 62496, Control_c, 0, 64, 40
2, 62508, Control_c, 0, 64, 72
2, 62520, Control_c, 0, 64, 127
2, 62636, Note_on_c, 0, 74, 0
2, 62928, Note_on_c, 0, 75, 69
2, 62928, Control_c, 0, 64, 72
2, 62940, Control_c, 0, 64, 24
2, 62952, Control_c, 0, 64, 0
2, 62960, Note_on_c, 0, 47, 55
2, 63008, Control_c, 0, 64, 56
2, 63020, Control_c, 0, 64, 127
2, 63048, Note_on_c, 0, 47, 0
2, 63176, Note_on_c, 0, 54, 41
2, 63180, Note_on_c, 0, 63, 44
2, 63256, Note_on_c, 0, 63, 0
2, 63256, Note_on_c, 0, 54, 0
2, 63336, Note_on_c, 0, 59, 35
2, 63344, Note_on_c, 0, 75, 0
2, 63384, Note_on_c, 0, 59, 0
2, 63448, Note_on_c, 0, 63, 26
2, 63464, Note_on_c, 0, 71, 37
2, 63504, Note_on_c, 0, 63, 0
2, 63528, Note_on_c, 0, 71, 0
2, 63584, Note_on_c, 0, 66, 41
2, 63584, Note_on_c, 0, 59, 36
2, 63692, Note_on_c, 0, 66, 0
2, 63708, Note_on_c, 0, 59, 0
2, 63716, Note_on_c, 0, 54, 37
2, 63720, Note_on_c, 0, 63, 35
2, 63756, Note_on_c, 0, 54, 0
2, 63820, Note_on_c, 0, 63, 0
2, 63868, Note_on_c, 0, 75, 90
2, 64012, Note_on_c, 0, 63, 55
2, 64040, Note_on_c, 0, 54, 46
2, 64108, Note_on_c, 0, 63, 0
2, 64120, Note_on_c, 0, 54, 0
2, 64152, Note_on_c, 0, 66, 44
2, 64180, Note_on_c, 0, 59, 44
2, 64188, Note_on_c, 0, 75, 0
2, 64232, Note_on_c, 0, 66, 0
2, 64248, Note_on_c, 0, 59, 0
2, 64272, Note_on_c, 0, 71, 63
2, 64280, Note_on_c, 0, 63, 43
2, 64356, Note_on_c, 0, 63, 0
2, 64372, Note_on_c, 0, 71, 0
2, 64400, Note_on_c, 0, 66, 49
2, 64412, Note_on_c, 0, 59, 39
2, 64504, Note_on_c, 0, 59, 0
2, 64512, Note_on_c, 0, 66, 0
2, 64520, Note_on_c, 0, 54, 44
2, 64532, Note_on_c, 0, 63, 58
2, 64544, Note_on_c, 0, 54, 0
2, 64640, Note_on_c, 0, 63, 0
2, 64732, Control_c, 0, 64, 104
2, 64744, Note_on_c, 0, 75, 95
2, 64748, Control_c, 0, 64, 40
2, 64760, Control_c, 0, 64, 0
2, 64768, Note_on_c, 0, 46, 58
2, 64828, Control_c, 0, 64, 88
2, 64840, Control_c, 0, 64, 127
2, 64856, Note_on_c, 0, 46, 0
2, 64928, Note_on_c, 0, 63, 54
2, 64952, Note_on_c, 0, 55, 66
2, 64988, Note_on_c, 0, 55, 0
2, 65016, Note_on_c, 0, 63, 0
2, 65068, Note_on_c, 0, 67, 58
2, 65076, Note_on_c, 0, 61, 49
2, 65152, Note_on_c, 0, 61, 0
2, 65160, Note_on_c, 0, 75, 0
2, 65172, Note_on_c, 0, 67, 0
2, 65184, Note_on_c, 0, 63, 46
2, 65188, Note_on_c, 0, 73, 57
2, 65256, Note_on_c, 0, 63, 0
2, 65308, Note_on_c, 0, 61, 40
2, 65316, Note_on_c, 0, 73, 0
2, 65332, Note_on_c, 0, 67, 50
2, 65432, Note_on_c, 0, 61, 0
2, 65436, Note_on_c, 0, 67, 0
2, 65440, Note_on_c, 0, 63, 57
2, 65452, Note_on_c, 0, 55, 60
2, 65476, Note_on_c, 0, 55, 0
2, 65540, Note_on_c, 0, 63, 0
2, 65720, Note_on_c, 0, 63, 44
2, 65748, Note_on_c, 0, 55, 55
2, 65784, Note_on_c, 0, 55, 0
2, 65808, Note_on_c, 0, 63, 0
2, 65852, Note_on_c, 0, 67, 56
2, 65852, Note_on_c, 0, 61, 52
2, 65924, Note_on_c, 0, 67, 0
2, 65944, Note_on_c, 0, 61, 0
2, 65952, Note_on_c, 0, 73, 72
2, 65972, Note_on_c, 0, 63, 52
2, 66040, Note_on_c, 0, 63, 0
2, 66040, Note_on_c, 0, 73, 0
2, 66084, Note_on_c, 0, 75, 97
2, 66092, Note_on_c, 0, 61, 60
2, 66100, Note_on_c, 0, 67, 73
2, 66216, Note_on_c, 0, 61, 0
2, 66220, Note_on_c, 0, 63, 57
2, 66224, Note_on_c, 0, 55, 71
2, 66228, Note_on_c, 0, 67, 0
2, 66240, Note_on_c, 0, 75, 0
2, 66244, Note_on_c, 0, 55, 0
2, 66364, Note_on_c, 0, 63, 0
2, 66424, Note_on_c, 0, 75, 97
2, 66432, Control_c, 0, 64, 72
2, 66440, Note_on_c, 0, 45, 70
2, 66448, Control_c, 0, 64, 0
2, 66500, Control_c, 0, 64, 56
2, 66512, Control_c, 0, 64, 127
2, 66544, Note_on_c, 0, 45, 0
2, 66560, Note_on_c, 0, 63, 58
2, 66600, Note_on_c, 0, 54, 46
2, 66640, Note_on_c, 0, 63, 0
2, 66644, Note_on_c, 0, 54, 0
2, 66688, Note_on_c, 0, 66, 63
2, 66704, Note_on_c, 0, 75, 0
2, 66708, Note_on_c, 0, 61, 56
2, 66772, Note_on_c, 0, 61, 0
2, 66784, Note_on_c, 0, 66, 0
2, 66808, Note_on_c, 0, 73, 74
2, 66816, Note_on_c, 0, 63, 63
2, 66884, Note_on_c, 0, 63, 0
2, 66908, Note_on_c, 0, 73, 0
2, 66928, Note_on_c, 0, 75, 101
2, 66944, Note_on_c, 0, 61, 56
2, 66944, Note_on_c, 0, 66, 71
2, 67036, Note_on_c, 0, 66, 0
2, 67052, Note_on_c, 0, 61, 0
2, 67060, Note_on_c, 0, 63, 58
2, 67064, Note_on_c, 0, 54, 49
2, 67088, Note_on_c, 0, 54, 0
2, 67088, Note_on_c, 0, 75, 0
2, 67124, Note_on_c, 0, 63, 0
2, 67224, Control_c, 0, 64, 88
2, 67236, Note_on_c, 0, 76, 103
2, 67236, Control_c, 0, 64, 0
2, 67256, Note_on_c, 0, 44, 72
2, 67304, Control_c, 0, 64, 56
2, 67316, Control_c, 0, 64, 127
2, 67344, Note_on_c, 0, 44, 0
2, 67400, Note_on_c, 0, 63, 63
2, 67404, Note_on_c, 0, 76, 0
2, 67420, Note_on_c, 0, 54, 59
2, 67484, Note_on_c, 0, 54, 0
2, 67488, Note_on_c, 0, 63, 0
2, 67540, Note_on_c, 0, 66, 55
2, 67560, Note_on_c, 0, 60, 62
2, 67592, Note_on_c, 0, 60, 0
2, 67636, Note_on_c, 0, 66, 0
2, 67668, Note_on_c, 0, 72, 86
2, 67668, Note_on_c, 0, 63, 62
2, 67736, Note_on_c, 0, 63, 0
2, 67768, Note_on_c, 0, 72, 0
2, 67804, Note_on_c, 0, 75, 100
2, 67816, Note_on_c, 0, 66, 69
2, 67820, Note_on_c, 0, 60, 50
2, 67944, Note_on_c, 0, 63, 63
2, 67960, Note_on_c, 0, 66, 0
2, 67968, Note_on_c, 0, 75, 0
2, 67976, Note_on_c, 0, 60, 0
2, 67980, Note_on_c, 0, 54, 48
2, 68028, Note_on_c, 0, 54, 0
2, 68188, Note_on_c, 0, 63, 0
2, 68240, Note_on_c, 0, 75, 95
2, 68240, Control_c, 0, 64, 104
2, 68252, Note_on_c, 0, 37, 72
2, 68252, Control_c, 0, 64, 24
2, 68264, Control_c, 0, 64, 0
2, 68332, Control_c, 0, 64, 88
2, 68344, Control_c, 0, 64, 127
2, 68352, Note_on_c, 0, 37, 0
2, 68464, Note_on_c, 0, 63, 58
2, 68512, Note_on_c, 0, 53, 24
2, 68536, Note_on_c, 0, 75, 0
2, 68548, Note_on_c, 0, 63, 0
2, 68556, Note_on_c, 0, 53, 0
2, 68600, Note_on_c, 0, 65, 58
2, 68616, Note_on_c, 0, 59, 35
2, 68660, Note_on_c, 0, 59, 0
2, 68712, Note_on_c, 0, 63, 50
2, 68716, Note_on_c, 0, 65, 0
2, 68736, Note_on_c, 0, 71, 67
2, 68792, Note_on_c, 0, 63, 0
2, 68828, Note_on_c, 0, 71, 0
2, 68844, Note_on_c, 0, 59, 40
2, 68852, Note_on_c, 0, 65, 66
2, 68976, Note_on_c, 0, 65, 0
2, 68976, Note_on_c, 0, 63, 63
2, 68984, Note_on_c, 0, 53, 58
2, 69000, Note_on_c, 0, 59, 0
2, 69020, Note_on_c, 0, 53, 0
2, 69044, Note_on_c, 0, 63, 0
2, 69148, Note_on_c, 0, 68, 73
2, 69240, Control_c, 0, 64, 72
2, 69256, Control_c, 0, 64, 0
2, 69280, Note_on_c, 0, 59, 51
2, 69296, Note_on_c, 0, 49, 56
2, 69320, Control_c, 0, 64, 56
2, 69332, Control_c, 0, 64, 127
2, 69368, Note_on_c, 0, 59, 0
2, 69392, Note_on_c, 0, 49, 0
2, 69408, Note_on_c, 0, 61, 64
2, 69432, Note_on_c, 0, 53, 46
2, 69440, Note_on_c, 0, 68, 0
2, 69504, Note_on_c, 0, 61, 0
2, 69524, Note_on_c, 0, 53, 0
2, 69536, Note_on_c, 0, 65, 70
2, 69556, Note_on_c, 0, 59, 54
2, 69608, Note_on_c, 0, 59, 0
2, 69624, Note_on_c, 0, 65, 0
2, 69680, Note_on_c, 0, 68, 72
2, 69688, Note_on_c, 0, 53, 54
2, 69696, Note_on_c, 0, 61, 49
2, 69784, Note_on_c, 0, 61, 0
2, 69812, Note_on_c, 0, 59, 62
2, 69820, Note_on_c, 0, 68, 0
2, 69836, Note_on_c, 0, 53, 0
2, 69848, Note_on_c, 0, 49, 43
2, 69872, Note_on_c, 0, 49, 0
2, 69888, Note_on_c, 0, 59, 0
2, 70024, Note_on_c, 0, 68, 79
2, 70040, Note_on_c, 0, 42, 56
2, 70048, Control_c, 0, 64, 40
2, 70060, Control_c, 0, 64, 0
2, 70120, Note_on_c, 0, 42, 0
2, 70124, Control_c, 0, 64, 88
2, 70136, Control_c, 0, 64, 127
2, 70164, Note_on_c, 0, 61, 64
2, 70220, Note_on_c, 0, 52, 52
2, 70256, Note_on_c, 0, 68, 0
2, 70260, Note_on_c, 0, 61, 0
2, 70268, Note_on_c, 0, 52, 0
2, 70316, Note_on_c, 0, 70, 87
2, 70324, Note_on_c, 0, 64, 51
2, 70336, Note_on_c, 0, 54, 62
2, 70396, Note_on_c, 0, 64, 0
2, 70408, Note_on_c, 0, 54, 0
2, 70436, Note_on_c, 0, 58, 52
2, 70436, Note_on_c, 0, 66, 66
2, 70464, Note_on_c, 0, 70, 0
2, 70528, Note_on_c, 0, 58, 0
2, 70552, Note_on_c, 0, 66, 0
2, 70564, Note_on_c, 0, 54, 57
2, 70572, Note_on_c, 0, 71, 100
2, 70584, Note_on_c, 0, 64, 74
2, 70696, Note_on_c, 0, 61, 78
2, 70704, Note_on_c, 0, 64, 0
2, 70704, Note_on_c, 0, 54, 0
2, 70704, Note_on_c, 0, 52, 69
2, 70708, Note_on_c, 0, 71, 0
2, 70728, Note_on_c, 0, 52, 0
2, 70752, Note_on_c, 0, 61, 0
2, 70896, Note_on_c, 0, 75, 96
2, 71040, Note_on_c, 0, 64, 74
2, 71048, Control_c, 0, 64, 24
2, 71056, Note_on_c, 0, 54, 57
2, 71056, Control_c, 0, 64, 0
2, 71124, Control_c, 0, 64, 56
2, 71128, Note_on_c, 0, 64, 0
2, 71136, Control_c, 0, 64, 127
2, 71160, Note_on_c, 0, 54, 0
2, 71160, Note_on_c, 0, 66, 67
2, 71184, Note_on_c, 0, 58, 42
2, 71252, Note_on_c, 0, 66, 0
2, 71272, Note_on_c, 0, 58, 0
2, 71288, Note_on_c, 0, 70, 73
2, 71304, Note_on_c, 0, 64, 58
2, 71324, Note_on_c, 0, 75, 0
2, 71356, Note_on_c, 0, 64, 0
2, 71384, Note_on_c, 0, 70, 0
2, 71440, Note_on_c, 0, 73, 85
2, 71448, Note_on_c, 0, 58, 42
2, 71456, Note_on_c, 0, 66, 70
2, 71616, Note_on_c, 0, 73, 0
2, 71620, Note_on_c, 0, 64, 32
2, 71624, Note_on_c, 0, 54, 48
2, 71628, Note_on_c, 0, 58, 0
2, 71696, Note_on_c, 0, 54, 0
2, 71696, Note_on_c, 0, 64, 0
2, 71740, Note_on_c, 0, 66, 0
2, 71776, Note_on_c, 0, 73, 88
2, 71876, Control_c, 0, 64, 104
2, 71892, Control_c, 0, 64, 24
2, 71904, Control_c, 0, 64, 0
2, 71920, Note_on_c, 0, 63, 60
2, 71928, Note_on_c, 0, 47, 64
2, 71968, Control_c, 0, 64, 88
2, 71980, Control_c, 0, 64, 127
2, 72020, Note_on_c, 0, 73, 0
2, 72032, Note_on_c, 0, 63, 0
2, 72036, Note_on_c, 0, 47, 0
2, 72072, Note_on_c, 0, 71, 86
2, 72084, Note_on_c, 0, 54, 63
2, 72176, Note_on_c, 0, 63, 60
2, 72184, Note_on_c, 0, 54, 0
2, 72204, Note_on_c, 0, 59, 50
2, 72236, Note_on_c, 0, 59, 0
2, 72268, Note_on_c, 0, 63, 0
2, 72292, Note_on_c, 0, 71, 0
2, 72332, Note_on_c, 0, 68, 89
2, 72352, Control_c, 0, 64, 104
2, 72364, Control_c, 0, 64, 40
2, 72372, Note_on_c, 0, 53, 63
2, 72376, Control_c, 0, 64, 0
2, 72392, Control_c, 0, 64, 24
2, 72404, Control_c, 0, 64, 56
2, 72416, Note_on_c, 0, 53, 0
2, 72416, Control_c, 0, 64, 127
2, 72456, Note_on_c, 0, 62, 71
2, 72568, Note_on_c, 0, 62, 0
2, 72648, Note_on_c, 0, 68, 0
2, 72648, Note_on_c, 0, 66, 78
2, 72660, Note_on_c, 0, 63, 52
2, 72672, Note_on_c, 0, 54, 63
2, 72680, Control_c, 0, 64, 56
2, 72696, Control_c, 0, 64, 0
2, 72756, Note_on_c, 0, 63, 0
2, 72800, Note_on_c, 0, 54, 0
2, 72800, Control_c, 0, 64, 104
2, 72808, Note_on_c, 0, 63, 57
2, 72808, Control_c, 0, 64, 127
2, 72864, Note_on_c, 0, 66, 0
2, 72896, Note_on_c, 0, 63, 0
2, 72944, Note_on_c, 0, 61, 57
2, 73012, Note_on_c, 0, 61, 0
2, 73068, Note_on_c, 0, 59, 64
2, 73172, Note_on_c, 0, 59, 0
2, 73208, Note_on_c, 0, 56, 57
2, 73312, Note_on_c, 0, 56, 0
2, 73368, Note_on_c, 0, 66, 78
2, 73376, Note_on_c, 0, 54, 50
2, 73420, Note_on_c, 0, 54, 0
2, 73456, Note_on_c, 0, 66, 0
2, 73580, Note_on_c, 0, 75, 95
2, 73580, Note_on_c, 0, 47, 57
2, 73588, Control_c, 0, 64, 88
2, 73604, Control_c, 0, 64, 0
2, 73684, Control_c, 0, 64, 56
2, 73696, Control_c, 0, 64, 127
2, 73704, Note_on_c, 0, 47, 0
2, 73744, Note_on_c, 0, 63, 58
2, 73788, Note_on_c, 0, 54, 51
2, 73820, Note_on_c, 0, 63, 0
2, 73836, Note_on_c, 0, 54, 0
2, 73880, Note_on_c, 0, 66, 65
2, 73908, Note_on_c, 0, 59, 52
2, 73948, Note_on_c, 0, 75, 0
2, 73952, Note_on_c, 0, 59, 0
2, 73972, Note_on_c, 0, 66, 0
2, 74016, Note_on_c, 0, 71, 72
2, 74016, Note_on_c, 0, 63, 58
2, 74084, Note_on_c, 0, 63, 0
2, 74128, Note_on_c, 0, 71, 0
2, 74140, Note_on_c, 0, 66, 56
2, 74144, Note_on_c, 0, 59, 62
2, 74236, Note_on_c, 0, 59, 0
2, 74264, Note_on_c, 0, 63, 63
2, 74264, Note_on_c, 0, 54, 57
2, 74276, Note_on_c, 0, 66, 0
2, 74288, Note_on_c, 0, 54, 0
2, 74364, Note_on_c, 0, 63, 0
2, 74416, Note_on_c, 0, 75, 96
2, 74428, Note_on_c, 0, 46, 80
2, 74432, Control_c, 0, 64, 104
2, 74444, Control_c, 0, 64, 0
2, 74488, Note_on_c, 0, 46, 0
2, 74512, Control_c, 0, 64, 40
2, 74528, Control_c, 0, 64, 127
2, 74556, Note_on_c, 0, 63, 63
2, 74584, Note_on_c, 0, 55, 72
2, 74640, Note_on_c, 0, 63, 0
2, 74648, Note_on_c, 0, 55, 0
2, 74696, Note_on_c, 0, 67, 64
2, 74708, Note_on_c, 0, 61, 52
2, 74760, Note_on_c, 0, 67, 0
2, 74788, Note_on_c, 0, 61, 0
2, 74812, Note_on_c, 0, 73, 63
2, 74816, Note_on_c, 0, 63, 56
2, 74884, Note_on_c, 0, 63, 0
2, 74900, Note_on_c, 0, 73, 0
2, 74940, Note_on_c, 0, 67, 71
2, 74940, Note_on_c, 0, 61, 57
2, 74972, Note_on_c, 0, 75, 0
2, 75052, Note_on_c, 0, 61, 0
2, 75052, Note_on_c, 0, 67, 0
2, 75056, Note_on_c, 0, 55, 69
2, 75056, Note_on_c, 0, 63, 63
2, 75076, Note_on_c, 0, 55, 0
2, 75160, Note_on_c, 0, 63, 0
2, 75212, Note_on_c, 0, 75, 97
2, 75220, Control_c, 0, 64, 40
2, 75232, Note_on_c, 0, 45, 88
2, 75236, Control_c, 0, 64, 0
2, 75284, Note_on_c, 0, 45, 0
2, 75300, Control_c, 0, 64, 104
2, 75316, Control_c, 0, 64, 127
2, 75348, Note_on_c, 0, 63, 69
2, 75376, Note_on_c, 0, 54, 69
2, 75420, Note_on_c, 0, 63, 0
2, 75448, Note_on_c, 0, 54, 0
2, 75484, Note_on_c, 0, 66, 69
2, 75508, Note_on_c, 0, 60, 62
2, 75560, Note_on_c, 0, 60, 0
2, 75564, Note_on_c, 0, 66, 0
2, 75612, Note_on_c, 0, 63, 63
2, 75624, Note_on_c, 0, 72, 75
2, 75684, Note_on_c, 0, 63, 0
2, 75708, Note_on_c, 0, 72, 0
2, 75744, Note_on_c, 0, 66, 57
2, 75760, Note_on_c, 0, 60, 60
2, 75844, Note_on_c, 0, 66, 0
2, 75848, Note_on_c, 0, 60, 0
2, 75864, Note_on_c, 0, 63, 52
2, 75868, Note_on_c, 0, 54, 37
2, 75896, Note_on_c, 0, 54, 0
2, 75960, Note_on_c, 0, 63, 0
2, 76008, Note_on_c, 0, 44, 92
2, 76016, Control_c, 0, 64, 72
2, 76028, Control_c, 0, 64, 0
2, 76080, Note_on_c, 0, 44, 0
2, 76092, Control_c, 0, 64, 72
2, 76108, Control_c, 0, 64, 127
2, 76172, Note_on_c, 0, 63, 49
2, 76192, Note_on_c, 0, 54, 58
2, 76244, Note_on_c, 0, 63, 0
2, 76248, Note_on_c, 0, 54, 0
2, 76292, Note_on_c, 0, 66, 55
2, 76300, Note_on_c, 0, 60, 72
2, 76356, Note_on_c, 0, 60, 0
2, 76356, Note_on_c, 0, 75, 0
2, 76384, Note_on_c, 0, 66, 0
2, 76408, Note_on_c, 0, 72, 85
2, 76408, Note_on_c, 0, 63, 70
2, 76484, Note_on_c, 0, 63, 0
2, 76504, Note_on_c, 0, 72, 0
2, 76532, Note_on_c, 0, 75, 105
2, 76536, Note_on_c, 0, 60, 70
2, 76548, Note_on_c, 0, 66, 70
2, 76672, Note_on_c, 0, 60, 0
2, 76672, Note_on_c, 0, 54, 63
2, 76672, Note_on_c, 0, 63, 56
2, 76688, Note_on_c, 0, 66, 0
2, 76716, Note_on_c, 0, 75, 0
2, 76720, Note_on_c, 0, 54, 0
2, 76800, Note_on_c, 0, 63, 0
2, 76892, Note_on_c, 0, 75, 100
2, 76896, Control_c, 0, 64, 104
2, 76904, Note_on_c, 0, 43, 94
2, 76908, Control_c, 0, 64, 0
2, 76972, Note_on_c, 0, 43, 0
2, 76976, Control_c, 0, 64, 40
2, 76988, Control_c, 0, 64, 127
2, 77076, Note_on_c, 0, 64, 69
2, 77084, Note_on_c, 0, 55, 83
2, 77144, Note_on_c, 0, 75, 0
2, 77152, Note_on_c, 0, 64, 0
2, 77156, Note_on_c, 0, 55, 0
2, 77204, Note_on_c, 0, 60, 78
2, 77208, Note_on_c, 0, 67, 64
2, 77272, Note_on_c, 0, 60, 0
2, 77280, Note_on_c, 0, 67, 0
2, 77312, Note_on_c, 0, 64, 46
2, 77328, Note_on_c, 0, 72, 80
2, 77396, Note_on_c, 0, 64, 0
2, 77404, Note_on_c, 0, 72, 0
2, 77448, Note_on_c, 0, 60, 69
2, 77460, Note_on_c, 0, 76, 105
2, 77464, Note_on_c, 0, 67, 67
2, 77572, Note_on_c, 0, 67, 0
2, 77576, Note_on_c, 0, 55, 85
2, 77584, Note_on_c, 0, 60, 0
2, 77592, Note_on_c, 0, 76, 0
2, 77600, Note_on_c, 0, 64, 73
2, 77636, Note_on_c, 0, 55, 0
2, 77672, Note_on_c, 0, 64, 0
2, 77720, Note_on_c, 0, 75, 109
2, 77848, Note_on_c, 0, 64, 80
2, 77876, Note_on_c, 0, 55, 87
2, 77888, Note_on_c, 0, 75, 0
2, 77936, Note_on_c, 0, 64, 0
2, 77952, Note_on_c, 0, 55, 0
2, 77984, Note_on_c, 0, 67, 92
2, 77996, Note_on_c, 0, 60, 87
2, 78064, Note_on_c, 0, 67, 0
2, 78088, Note_on_c, 0, 60, 0
2, 78104, Note_on_c, 0, 72, 88
2, 78108, Note_on_c, 0, 64, 81
2, 78200, Note_on_c, 0, 64, 0
2, 78200, Note_on_c, 0, 72, 0
2, 78240, Note_on_c, 0, 76, 118
2, 78240, Note_on_c, 0, 60, 86
2, 78248, Note_on_c, 0, 67, 92
2, 78260, Note_on_c, 0, 72, 52
2, 78284, Note_on_c, 0, 72, 0
2, 78320, Note_on_c, 0, 67, 0
2, 78388, Note_on_c, 0, 64, 75
2, 78404, Note_on_c, 0, 60, 0
2, 78404, Note_on_c, 0, 55, 67
2, 78428, Note_on_c, 0, 55, 0
2, 78464, Note_on_c, 0, 76, 0
2, 78476, Note_on_c, 0, 64, 0
2, 78612, Control_c, 0, 64, 24
2, 78620, Note_on_c, 0, 77, 113
2, 78624, Control_c, 0, 64, 0
2, 78628, Note_on_c, 0, 43, 85
2, 78684, Note_on_c, 0, 43, 0
2, 78688, Control_c, 0, 64, 72
2, 78700, Control_c, 0, 64, 127
2, 78816, Note_on_c, 0, 65, 73
2, 78828, Note_on_c, 0, 57, 75
2, 78900, Note_on_c, 0, 57, 0
2, 78904, Note_on_c, 0, 65, 0
2, 78972, Note_on_c, 0, 69, 75
2, 78976, Note_on_c, 0, 62, 72
2, 78984, Note_on_c, 0, 60, 65
2, 79068, Note_on_c, 0, 62, 0
2, 79088, Note_on_c, 0, 69, 0
2, 79092, Note_on_c, 0, 60, 0
2, 79112, Note_on_c, 0, 65, 74
2, 79120, Note_on_c, 0, 72, 80
2, 79192, Note_on_c, 0, 65, 0
2, 79224, Note_on_c, 0, 72, 0
2, 79260, Note_on_c, 0, 62, 62
2, 79268, Note_on_c, 0, 60, 54
2, 79272, Note_on_c, 0, 69, 71
2, 79356, Note_on_c, 0, 62, 0
2, 79400, Note_on_c, 0, 69, 0
2, 79424, Note_on_c, 0, 57, 66
2, 79428, Note_on_c, 0, 65, 47
2, 79472, Note_on_c, 0, 60, 0
2, 79484, Note_on_c, 0, 57, 0
2, 79496, Note_on_c, 0, 65, 0
2, 79524, Note_on_c, 0, 77, 0
2, 80180, Note_on_c, 0, 69, 90
2, 80192, Note_on_c, 0, 57, 62
2, 80220, Control_c, 0, 64, 104
2, 80232, Control_c, 0, 64, 0
2, 80308, Control_c, 0, 64, 104
2, 80324, Control_c, 0, 64, 127
2, 80348, Note_on_c, 0, 57, 0
2, 80376, Note_on_c, 0, 69, 0
2, 80512, Note_on_c, 0, 69, 102
2, 80520, Note_on_c, 0, 57, 80
2, 80600, Control_c, 0, 64, 72
2, 80612, Control_c, 0, 64, 0
2, 80640, Note_on_c, 0, 57, 0
2, 80652, Control_c, 0, 64, 72
2, 80660, Note_on_c, 0, 43, 86
2, 80664, Control_c, 0, 64, 127
2, 80736, Note_on_c, 0, 43, 0
2, 80780, Note_on_c, 0, 69, 0
2, 80804, Note_on_c, 0, 71, 102
2, 80808, Note_on_c, 0, 59, 80
2, 80808, Note_on_c, 0, 50, 71
2, 80828, Note_on_c, 0, 53, 63
2, 80876, Note_on_c, 0, 59, 0
2, 80908, Note_on_c, 0, 53, 0
2, 80920, Note_on_c, 0, 71, 0
2, 80932, Note_on_c, 0, 50, 0
2, 80940, Note_on_c, 0, 57, 75
2, 81004, Note_on_c, 0, 57, 0
2, 81056, Note_on_c, 0, 53, 75
2, 81060, Note_on_c, 0, 72, 103
2, 81064, Note_on_c, 0, 60, 88
2, 81136, Note_on_c, 0, 53, 0
2, 81136, Note_on_c, 0, 50, 80
2, 81148, Note_on_c, 0, 60, 0
2, 81180, Control_c, 0, 64, 88
2, 81192, Control_c, 0, 64, 0
2, 81220, Note_on_c, 0, 72, 0
2, 81224, Note_on_c, 0, 50, 0
2, 81248, Control_c, 0, 64, 56
2, 81252, Note_on_c, 0, 43, 77
2, 81260, Control_c, 0, 64, 127
2, 81280, Note_on_c, 0, 53, 27
2, 81300, Note_on_c, 0, 43, 0
2, 81356, Note_on_c, 0, 53, 0
2, 81356, Note_on_c, 0, 59, 81
2, 81400, Note_on_c, 0, 59, 0
2, 81408, Note_on_c, 0, 64, 70
2, 81488, Note_on_c, 0, 76, 115
2, 81808, Note_on_c, 0, 76, 0
2, 81848, Note_on_c, 0, 64, 0
2, 82072, Note_on_c, 0, 74, 100
2, 82080, Note_on_c, 0, 62, 83
2, 82180, Note_on_c, 0, 74, 0
2, 82184, Note_on_c, 0, 62, 0
2, 82236, Note_on_c, 0, 36, 64
2, 82352, Control_c, 0, 64, 40
2, 82364, Control_c, 0, 64, 0
2, 82388, Note_on_c, 0, 72, 105
2, 82396, Note_on_c, 0, 52, 72
2, 82400, Note_on_c, 0, 60, 82
2, 82400, Note_on_c, 0, 67, 75
2, 82448, Control_c, 0, 64, 56
2, 82456, Control_c, 0, 64, 72
2, 82468, Control_c, 0, 64, 127
2, 82544, Note_on_c, 0, 67, 0
2, 82552, Note_on_c, 0, 60, 0
2, 82576, Note_on_c, 0, 72, 0
2, 82604, Note_on_c, 0, 36, 0
2, 82612, Note_on_c, 0, 52, 0
2, 82680, Control_c, 0, 64, 40
2, 82692, Control_c, 0, 64, 88
2, 82704, Note_on_c, 0, 72, 95
2, 82704, Control_c, 0, 64, 127
2, 82804, Note_on_c, 0, 72, 0
2, 82844, Note_on_c, 0, 64, 79
2, 82940, Note_on_c, 0, 64, 0
2, 82972, Note_on_c, 0, 67, 72
2, 83116, Note_on_c, 0, 60, 75
2, 83120, Note_on_c, 0, 67, 0
2, 83140, Note_on_c, 0, 60, 0
2, 83244, Note_on_c, 0, 64, 75
2, 83328, Note_on_c, 0, 64, 0
2, 83380, Note_on_c, 0, 55, 73
2, 83480, Note_on_c, 0, 55, 0
2, 83516, Note_on_c, 0, 60, 75
2, 83608, Note_on_c, 0, 60, 0
2, 83656, Note_on_c, 0, 52, 69
2, 83740, Note_on_c, 0, 52, 0
2, 83792, Note_on_c, 0, 55, 62
2, 83944, Note_on_c, 0, 55, 0
2, 83944, Note_on_c, 0, 84, 103
2, 83948, Note_on_c, 0, 72, 96
2, 83956, Note_on_c, 0, 48, 70
2, 83972, Note_on_c, 0, 48, 0
2, 83996, Note_on_c, 0, 72, 0
2, 84048, Note_on_c, 0, 84, 0
2, 84140, Note_on_c, 0, 84, 108
2, 84148, Note_on_c, 0, 72, 94
2, 84148, Note_on_c, 0, 80, 79
2, 84156, Note_on_c, 0, 77, 86
2, 84168, Control_c, 0, 64, 72
2, 84180, Control_c, 0, 64, 0
2, 84192, Note_on_c, 0, 53, 51
2, 84200, Note_on_c, 0, 41, 50
2, 84268, Control_c, 0, 64, 88
2, 84280, Control_c, 0, 64, 127
2, 84288, Note_on_c, 0, 41, 0
2, 84312, Note_on_c, 0, 53, 0
2, 84460, Note_on_c, 0, 68, 62
2, 84540, Note_on_c, 0, 68, 0
2, 84588, Note_on_c, 0, 60, 69
2, 84660, Note_on_c, 0, 72, 0
2, 84664, Note_on_c, 0, 60, 0
2, 84716, Note_on_c, 0, 65, 71
2, 84752, Note_on_c, 0, 84, 0
2, 84788, Note_on_c, 0, 65, 0
2, 84808, Note_on_c, 0, 77, 0
2, 84812, Note_on_c, 0, 80, 0
2, 84848, Note_on_c, 0, 83, 101
2, 84848, Note_on_c, 0, 56, 58
2, 84848, Note_on_c, 0, 80, 80
2, 84848, Note_on_c, 0, 77, 80
2, 84852, Note_on_c, 0, 71, 89
2, 84912, Note_on_c, 0, 71, 0
2, 84940, Note_on_c, 0, 56, 0
2, 84944, Note_on_c, 0, 83, 0
2, 84944, Note_on_c, 0, 80, 0
2, 84944, Note_on_c, 0, 77, 0
2, 84980, Note_on_c, 0, 60, 70
2, 84988, Note_on_c, 0, 80, 83
2, 84992, Note_on_c, 0, 84, 110
2, 84992, Note_on_c, 0, 72, 97
2, 84996, Note_on_c, 0, 77, 87
2, 85132, Note_on_c, 0, 60, 0
2, 85132, Note_on_c, 0, 53, 65
2, 85156, Note_on_c, 0, 53, 0
2, 85260, Note_on_c, 0, 56, 60
2, 85328, Note_on_c, 0, 56, 0
2, 85384, Note_on_c, 0, 48, 71
2, 85412, Note_on_c, 0, 72, 0
2, 85440, Note_on_c, 0, 84, 0
2, 85444, Note_on_c, 0, 48, 0
2, 85508, Note_on_c, 0, 53, 75
2, 85588, Note_on_c, 0, 53, 0
2, 85612, Note_on_c, 0, 77, 0
2, 85632, Note_on_c, 0, 80, 0
2, 85644, Note_on_c, 0, 44, 65
2, 85648, Note_on_c, 0, 86, 103
2, 85648, Note_on_c, 0, 77, 80
2, 85648, Note_on_c, 0, 80, 80
2, 85652, Note_on_c, 0, 74, 98
2, 85700, Note_on_c, 0, 74, 0
2, 85700, Note_on_c, 0, 44, 0
2, 85740, Note_on_c, 0, 86, 0
2, 85744, Note_on_c, 0, 77, 0
2, 85744, Note_on_c, 0, 80, 0
2, 85808, Note_on_c, 0, 36, 62
2, 85848, Control_c, 0, 64, 104
2, 85856, Control_c, 0, 64, 0
2, 85872, Note_on_c, 0, 88, 113
2, 85876, Note_on_c, 0, 76, 100
2, 85876, Note_on_c, 0, 79, 95
2, 85880, Note_on_c, 0, 84, 88
2, 85888, Note_on_c, 0, 48, 66
2, 85952, Note_on_c, 0, 36, 0
2, 85956, Control_c, 0, 64, 127
2, 85984, Note_on_c, 0, 48, 0
2, 86160, Note_on_c, 0, 72, 69
2, 86224, Note_on_c, 0, 72, 0
2, 86276, Note_on_c, 0, 64, 65
2, 86356, Note_on_c, 0, 64, 0
2, 86360, Note_on_c, 0, 88, 0
2, 86400, Note_on_c, 0, 67, 71
2, 86408, Note_on_c, 0, 76, 0
2, 86444, Note_on_c, 0, 84, 0
2, 86484, Note_on_c, 0, 79, 0
2, 86520, Note_on_c, 0, 86, 98
2, 86528, Note_on_c, 0, 74, 82
2, 86528, Note_on_c, 0, 79, 80
2, 86536, Note_on_c, 0, 67, 0
2, 86536, Note_on_c, 0, 60, 63
2, 86568, Note_on_c, 0, 60, 0
2, 86580, Note_on_c, 0, 74, 0
2, 86588, Note_on_c, 0, 86, 0
2, 86600, Note_on_c, 0, 79, 0
2, 86664, Note_on_c, 0, 84, 108
2, 86668, Note_on_c, 0, 79, 93
2, 86672, Note_on_c, 0, 72, 89
2, 86680, Note_on_c, 0, 64, 69
2, 86748, Note_on_c, 0, 64, 0
2, 86800, Note_on_c, 0, 55, 69
2, 86856, Note_on_c, 0, 55, 0
2, 86928, Note_on_c, 0, 60, 77
2, 86992, Note_on_c, 0, 60, 0
2, 87044, Note_on_c, 0, 72, 0
2, 87060, Note_on_c, 0, 52, 75
2, 87092, Note_on_c, 0, 84, 0
2, 87096, Note_on_c, 0, 79, 0
2, 87144, Note_on_c, 0, 52, 0
2, 87188, Note_on_c, 0, 55, 80
2, 87304, Note_on_c, 0, 55, 0
2, 87316, Note_on_c, 0, 88, 117
2, 87320, Note_on_c, 0, 76, 108
2, 87324, Note_on_c, 0, 48, 71
2, 87348, Note_on_c, 0, 48, 0
2, 87416, Note_on_c, 0, 76, 0
2, 87432, Note_on_c, 0, 88, 0
2, 87512, Note_on_c, 0, 88, 126
2, 87512, Note_on_c, 0, 76, 117
2, 87516, Note_on_c, 0, 84, 101
2, 87520, Note_on_c, 0, 81, 98
2, 87520, Control_c, 0, 64, 56
2, 87532, Control_c, 0, 64, 0
2, 87540, Note_on_c, 0, 33, 80
2, 87548, Note_on_c, 0, 45, 73
2, 87596, Note_on_c, 0, 33, 0
2, 87612, Control_c, 0, 64, 72
2, 87620, Note_on_c, 0, 45, 0
2, 87624, Control_c, 0, 64, 127
2, 87832, Note_on_c, 0, 72, 73
2, 87884, Note_on_c, 0, 72, 0
2, 87952, Note_on_c, 0, 64, 67
2, 87968, Note_on_c, 0, 76, 0
2, 88052, Note_on_c, 0, 64, 0
2, 88068, Note_on_c, 0, 88, 0
2, 88076, Note_on_c, 0, 69, 69
2, 88108, Note_on_c, 0, 84, 0
2, 88144, Note_on_c, 0, 81, 0
2, 88184, Note_on_c, 0, 87, 96
2, 88184, Note_on_c, 0, 84, 80
2, 88184, Note_on_c, 0, 81, 80
2, 88188, Note_on_c, 0, 75, 96
2, 88192, Note_on_c, 0, 69, 0
2, 88212, Note_on_c, 0, 60, 65
2, 88236, Note_on_c, 0, 60, 0
2, 88256, Note_on_c, 0, 75, 0
2, 88280, Note_on_c, 0, 87, 0
2, 88280, Note_on_c, 0, 84, 0
2, 88280, Note_on_c, 0, 81, 0
2, 88332, Note_on_c, 0, 88, 115
2, 88336, Note_on_c, 0, 76, 98
2, 88336, Note_on_c, 0, 84, 86
2, 88340, Note_on_c, 0, 81, 80
2, 88348, Note_on_c, 0, 64, 67
2, 88388, Control_c, 0, 64, 72
2, 88400, Control_c, 0, 64, 56
2, 88424, Control_c, 0, 64, 88
2, 88432, Control_c, 0, 64, 127
2, 88448, Note_on_c, 0, 64, 0
2, 88464, Note_on_c, 0, 57, 64
2, 88524, Note_on_c, 0, 57, 0
2, 88588, Note_on_c, 0, 60, 67
2, 88668, Note_on_c, 0, 60, 0
2, 88708, Note_on_c, 0, 76, 0
2, 88716, Note_on_c, 0, 52, 72
2, 88740, Note_on_c, 0, 88, 0
2, 88744, Note_on_c, 0, 81, 0
2, 88748, Note_on_c, 0, 84, 0
2, 88800, Note_on_c, 0, 52, 0
2, 88840, Note_on_c, 0, 57, 63
2, 88964, Note_on_c, 0, 57, 0
2, 88980, Note_on_c, 0, 90, 105
2, 88980, Note_on_c, 0, 78, 100
2, 88988, Note_on_c, 0, 48, 71
2, 89008, Note_on_c, 0, 48, 0
2, 89036, Note_on_c, 0, 78, 0
2, 89052, Note_on_c, 0, 90, 0
2, 89176, Control_c, 0, 64, 88
2, 89188, Note_on_c, 0, 92, 120
2, 89188, Note_on_c, 0, 80, 105
2, 89188, Control_c, 0, 64, 0
2, 89208, Note_on_c, 0, 40, 75
2, 89212, Note_on_c, 0, 52, 72
2, 89256, Note_on_c, 0, 40, 0
2, 89256, Note_on_c, 0, 92, 0
2, 89256, Control_c, 0, 64, 127
2, 89268, Note_on_c, 0, 80, 0
2, 89276, Note_on_c, 0, 52, 0
2, 89384, Note_on_c, 0, 71, 60
2, 89388, Note_on_c, 0, 59, 71
2, 89412, Note_on_c, 0, 59, 0
2, 89448, Note_on_c, 0, 71, 0
2, 89476, Note_on_c, 0, 76, 90
2, 89488, Note_on_c, 0, 56, 55
2, 89544, Note_on_c, 0, 76, 0
2, 89580, Note_on_c, 0, 56, 0
2, 89600, Note_on_c, 0, 68, 81
2, 89608, Note_on_c, 0, 64, 65
2, 89672, Note_on_c, 0, 64, 0
2, 89676, Note_on_c, 0, 68, 0
2, 89716, Note_on_c, 0, 71, 80
2, 89728, Note_on_c, 0, 59, 64
2, 89820, Note_on_c, 0, 59, 0
2, 89824, Note_on_c, 0, 71, 0
2, 89828, Note_on_c, 0, 56, 52
2, 89836, Note_on_c, 0, 76, 77
2, 89844, Note_on_c, 0, 56, 0
2, 89856, Note_on_c, 0, 76, 0
2, 89988, Control_c, 0, 64, 104
2, 90000, Control_c, 0, 64, 24
2, 90004, Note_on_c, 0, 92, 120
2, 90004, Note_on_c, 0, 80, 111
2, 90012, Control_c, 0, 64, 0
2, 90016, Note_on_c, 0, 40, 81
2, 90020, Note_on_c, 0, 52, 79
2, 90052, Note_on_c, 0, 92, 0
2, 90056, Control_c, 0, 64, 104
2, 90060, Note_on_c, 0, 80, 0
2, 90064, Control_c, 0, 64, 127
2, 90076, Note_on_c, 0, 52, 0
2, 90084, Note_on_c, 0, 40, 0
2, 90164, Note_on_c, 0, 71, 80
2, 90168, Note_on_c, 0, 59, 73
2, 90208, Note_on_c, 0, 59, 0
2, 90212, Note_on_c, 0, 71, 0
2, 90272, Note_on_c, 0, 76, 81
2, 90276, Note_on_c, 0, 56, 65
2, 90332, Note_on_c, 0, 76, 0
2, 90356, Note_on_c, 0, 56, 0
2, 90396, Note_on_c, 0, 68, 82
2, 90400, Note_on_c, 0, 64, 69
2, 90468, Note_on_c, 0, 64, 0
2, 90480, Note_on_c, 0, 68, 0
2, 90500, Note_on_c, 0, 71, 79
2, 90520, Note_on_c, 0, 59, 67
2, 90624, Note_on_c, 0, 71, 0
2, 90624, Note_on_c, 0, 56, 74
2, 90628, Note_on_c, 0, 59, 0
2, 90632, Note_on_c, 0, 76, 75
2, 90652, Note_on_c, 0, 76, 0
2, 90656, Note_on_c, 0, 56, 0
2, 90828, Note_on_c, 0, 92, 124
2, 90828, Control_c, 0, 64, 40
2, 90832, Note_on_c, 0, 80, 105
2, 90844, Control_c, 0, 64, 0
2, 90848, Note_on_c, 0, 51, 93
2, 90848, Note_on_c, 0, 39, 83
2, 90908, Control_c, 0, 64, 127
2, 90920, Note_on_c, 0, 39, 0
2, 90924, Note_on_c, 0, 92, 0
2, 90928, Note_on_c, 0, 51, 0
2, 90948, Note_on_c, 0, 80, 0
2, 91044, Note_on_c, 0, 72, 59
2, 91056, Note_on_c, 0, 60, 66
2, 91100, Note_on_c, 0, 72, 0
2, 91120, Note_on_c, 0, 60, 0
2, 91152, Note_on_c, 0, 78, 78
2, 91172, Note_on_c, 0, 56, 57
2, 91224, Note_on_c, 0, 78, 0
2, 91252, Note_on_c, 0, 56, 0
2, 91264, Note_on_c, 0, 68, 70
2, 91272, Note_on_c, 0, 66, 65
2, 91344, Note_on_c, 0, 66, 0
2, 91380, Note_on_c, 0, 72, 81
2, 91388, Note_on_c, 0, 60, 69
2, 91428, Note_on_c, 0, 68, 0
2, 91456, Note_on_c, 0, 60, 0
2, 91460, Note_on_c, 0, 72, 0
2, 91480, Note_on_c, 0, 78, 81
2, 91484, Note_on_c, 0, 56, 59
2, 91492, Note_on_c, 0, 68, 20
2, 91576, Note_on_c, 0, 78, 0
2, 91596, Note_on_c, 0, 56, 0
2, 91600, Note_on_c, 0, 80, 86
2, 91608, Note_on_c, 0, 51, 70
2, 91688, Note_on_c, 0, 68, 0
2, 91696, Note_on_c, 0, 51, 0
2, 91712, Note_on_c, 0, 72, 88
2, 91732, Note_on_c, 0, 60, 69
2, 91748, Note_on_c, 0, 80, 0
2, 91800, Note_on_c, 0, 60, 0
2, 91824, Note_on_c, 0, 78, 82
2, 91840, Note_on_c, 0, 56, 56
2, 91844, Note_on_c, 0, 72, 0
2, 91916, Note_on_c, 0, 78, 0
2, 91936, Note_on_c, 0, 68, 78
2, 91940, Note_on_c, 0, 56, 0
2, 91952, Note_on_c, 0, 66, 74
2, 91968, Note_on_c, 0, 68, 0
2, 92016, Note_on_c, 0, 66, 0
2, 92060, Note_on_c, 0, 60, 75
2, 92144, Note_on_c, 0, 56, 77
2, 92148, Note_on_c, 0, 92, 124
2, 92148, Note_on_c, 0, 80, 103
2, 92152, Note_on_c, 0, 60, 0
2, 92184, Note_on_c, 0, 56, 0
2, 92232, Note_on_c, 0, 92, 0
2, 92236, Note_on_c, 0, 80, 0
2, 92320, Control_c, 0, 64, 88
2, 92332, Control_c, 0, 64, 0
2, 92340, Note_on_c, 0, 92, 121
2, 92340, Note_on_c, 0, 80, 117
2, 92344, Note_on_c, 0, 90, 100
2, 92348, Note_on_c, 0, 83, 103
2, 92356, Note_on_c, 0, 38, 87
2, 92356, Note_on_c, 0, 50, 92
2, 92388, Control_c, 0, 64, 56
2, 92392, Note_on_c, 0, 83, 0
2, 92396, Note_on_c, 0, 38, 0
2, 92396, Control_c, 0, 64, 127
2, 92404, Note_on_c, 0, 92, 0
2, 92408, Note_on_c, 0, 50, 0
2, 92412, Note_on_c, 0, 90, 0
2, 92420, Note_on_c, 0, 80, 0
2, 92500, Note_on_c, 0, 71, 96
2, 92504, Note_on_c, 0, 59, 83
2, 92548, Note_on_c, 0, 71, 0
2, 92568, Note_on_c, 0, 59, 0
2, 92592, Note_on_c, 0, 78, 92
2, 92616, Note_on_c, 0, 56, 66
2, 92672, Note_on_c, 0, 78, 0
2, 92704, Note_on_c, 0, 56, 0
2, 92720, Note_on_c, 0, 68, 90
2, 92736, Note_on_c, 0, 66, 88
2, 92760, Note_on_c, 0, 68, 0
2, 92800, Note_on_c, 0, 66, 0
2, 92836, Note_on_c, 0, 59, 82
2, 92936, Note_on_c, 0, 56, 82
2, 92940, Note_on_c, 0, 80, 106
2, 92940, Note_on_c, 0, 92, 127
2, 92944, Note_on_c, 0, 59, 0
2, 92972, Note_on_c, 0, 56, 0
2, 93020, Note_on_c, 0, 80, 0
2, 93020, Note_on_c, 0, 92, 0
2, 93108, Control_c, 0, 64, 88
2, 93120, Control_c, 0, 64, 0
2, 93132, Note_on_c, 0, 93, 126
2, 93132, Note_on_c, 0, 81, 106
2, 93136, Note_on_c, 0, 89, 98
2, 93148, Note_on_c, 0, 49, 102
2, 93148, Note_on_c, 0, 37, 87
2, 93184, Control_c, 0, 64, 104
2, 93188, Note_on_c, 0, 37, 0
2, 93188, Note_on_c, 0, 49, 0
2, 93196, Control_c, 0, 64, 127
2, 93200, Note_on_c, 0, 93, 0
2, 93204, Note_on_c, 0, 89, 0
2, 93224, Note_on_c, 0, 81, 0
2, 93304, Note_on_c, 0, 71, 100
2, 93312, Note_on_c, 0, 59, 87
2, 93364, Note_on_c, 0, 71, 0
2, 93376, Note_on_c, 0, 59, 0
2, 93416, Note_on_c, 0, 77, 95
2, 93420, Note_on_c, 0, 56, 71
2, 93484, Note_on_c, 0, 77, 0
2, 93508, Note_on_c, 0, 56, 0
2, 93532, Note_on_c, 0, 68, 87
2, 93536, Note_on_c, 0, 65, 81
2, 93580, Note_on_c, 0, 68, 0
2, 93616, Note_on_c, 0, 65, 0
2, 93656, Note_on_c, 0, 59, 78
2, 93764, Note_on_c, 0, 92, 127
2, 93764, Note_on_c, 0, 80, 105
2, 93780, Note_on_c, 0, 56, 62
2, 93800, Note_on_c, 0, 59, 0
2, 93860, Note_on_c, 0, 56, 0
2, 93912, Note_on_c, 0, 92, 0
2, 93924, Note_on_c, 0, 80, 0
2, 94004, Note_on_c, 0, 92, 127
2, 94008, Note_on_c, 0, 80, 101
2, 94016, Note_on_c, 0, 88, 80
2, 94020, Note_on_c, 0, 85, 58
2, 94036, Note_on_c, 0, 88, 0
2, 94052, Note_on_c, 0, 42, 87
2, 94068, Note_on_c, 0, 88, 55
2, 94072, Control_c, 0, 64, 72
2, 94084, Control_c, 0, 64, 0
2, 94180, Note_on_c, 0, 42, 0
2, 94184, Control_c, 0, 64, 127
2, 94196, Note_on_c, 0, 52, 74
2, 94304, Note_on_c, 0, 52, 0
2, 94308, Note_on_c, 0, 58, 58
2, 94336, Note_on_c, 0, 58, 0
2, 94396, Note_on_c, 0, 88, 0
2, 94424, Note_on_c, 0, 58, 71
2, 94492, Note_on_c, 0, 58, 0
2, 94516, Note_on_c, 0, 92, 0
2, 94552, Note_on_c, 0, 64, 71
2, 94584, Note_on_c, 0, 80, 0
2, 94584, Note_on_c, 0, 85, 0
2, 94628, Note_on_c, 0, 64, 0
2, 94660, Note_on_c, 0, 70, 81
2, 94712, Note_on_c, 0, 70, 0
2, 94772, Note_on_c, 0, 85, 96
2, 94776, Note_on_c, 0, 73, 89
2, 94784, Note_on_c, 0, 70, 73
2, 94884, Note_on_c, 0, 70, 0
2, 94900, Note_on_c, 0, 64, 69
2, 95028, Note_on_c, 0, 64, 0
2, 95028, Note_on_c, 0, 58, 56
2, 95076, Note_on_c, 0, 58, 0
2, 95148, Note_on_c, 0, 58, 60
2, 95236, Note_on_c, 0, 58, 0
2, 95252, Note_on_c, 0, 85, 0
2, 95272, Note_on_c, 0, 52, 75
2, 95296, Note_on_c, 0, 73, 0
2, 95376, Note_on_c, 0, 52, 0
2, 95408, Note_on_c, 0, 42, 69
2, 95412, Note_on_c, 0, 73, 95
2, 95416, Note_on_c, 0, 85, 104
2, 95468, Note_on_c, 0, 42, 0
2, 95520, Note_on_c, 0, 73, 0
2, 95524, Note_on_c, 0, 85, 0
2, 95624, Note_on_c, 0, 85, 102
2, 95632, Note_on_c, 0, 73, 87
2, 95636, Note_on_c, 0, 78, 77
2, 95640, Note_on_c, 0, 81, 74
2, 95668, Note_on_c, 0, 35, 65
2, 95684, Control_c, 0, 64, 56
2, 95696, Control_c, 0, 64, 0
2, 95764, Control_c, 0, 64, 104
2, 95768, Note_on_c, 0, 73, 0
2, 95772, Note_on_c, 0, 85, 0
2, 95772, Control_c, 0, 64, 127
2, 95800, Note_on_c, 0, 47, 66
2, 95804, Note_on_c, 0, 35, 0
2, 95836, Note_on_c, 0, 47, 0
2, 95880, Note_on_c, 0, 78, 0
2, 95880, Note_on_c, 0, 81, 0
2, 95928, Note_on_c, 0, 87, 109
2, 95936, Note_on_c, 0, 75, 102
2, 95936, Note_on_c, 0, 78, 74
2, 95940, Note_on_c, 0, 83, 85
2, 95944, Note_on_c, 0, 57, 74
2, 96000, Note_on_c, 0, 83, 0
2, 96000, Note_on_c, 0, 78, 0
2, 96024, Note_on_c, 0, 75, 0
2, 96044, Note_on_c, 0, 87, 0
2, 96052, Note_on_c, 0, 57, 71
2, 96068, Note_on_c, 0, 57, 0
2, 96140, Note_on_c, 0, 57, 0
2, 96156, Note_on_c, 0, 88, 117
2, 96156, Note_on_c, 0, 61, 67
2, 96160, Note_on_c, 0, 76, 103
2, 96160, Note_on_c, 0, 83, 89
2, 96160, Note_on_c, 0, 81, 88
2, 96236, Note_on_c, 0, 76, 0
2, 96240, Note_on_c, 0, 81, 0
2, 96256, Note_on_c, 0, 88, 0
2, 96264, Note_on_c, 0, 83, 0
2, 96280, Note_on_c, 0, 64, 75
2, 96296, Note_on_c, 0, 61, 0
2, 96328, Note_on_c, 0, 64, 0
2, 96420, Note_on_c, 0, 92, 118
2, 96420, Note_on_c, 0, 80, 105
2, 96424, Note_on_c, 0, 83, 98
2, 96428, Note_on_c, 0, 87, 87
2, 96436, Note_on_c, 0, 68, 81
2, 96504, Control_c, 0, 64, 72
2, 96516, Control_c, 0, 64, 0
2, 96560, Note_on_c, 0, 63, 66
2, 96572, Note_on_c, 0, 68, 0
2, 96584, Control_c, 0, 64, 127
2, 96668, Note_on_c, 0, 63, 0
2, 96672, Note_on_c, 0, 59, 64
2, 96696, Note_on_c, 0, 92, 0
2, 96756, Note_on_c, 0, 80, 0
2, 96796, Note_on_c, 0, 57, 66
2, 96812, Note_on_c, 0, 59, 0
2, 96828, Note_on_c, 0, 57, 0
2, 96880, Note_on_c, 0, 87, 0
2, 96916, Note_on_c, 0, 83, 0
2, 96920, Note_on_c, 0, 90, 95
2, 96924, Note_on_c, 0, 78, 90
2, 96928, Note_on_c, 0, 51, 77
2, 97004, Note_on_c, 0, 51, 0
2, 97008, Note_on_c, 0, 78, 0
2, 97028, Note_on_c, 0, 90, 0
2, 97064, Note_on_c, 0, 47, 58
2, 97104, Note_on_c, 0, 78, 79
2, 97160, Note_on_c, 0, 47, 0
2, 97160, Note_on_c, 0, 80, 80
2, 97188, Note_on_c, 0, 83, 87
2, 97228, Control_c, 0, 64, 56
2, 97236, Control_c, 0, 64, 0
2, 97252, Note_on_c, 0, 90, 115
2, 97256, Note_on_c, 0, 40, 67
2, 97340, Control_c, 0, 64, 127
2, 97376, Note_on_c, 0, 90, 0
2, 97392, Note_on_c, 0, 78, 0
2, 97392, Note_on_c, 0, 47, 60
2, 97424, Note_on_c, 0, 40, 0
2, 97488, Note_on_c, 0, 47, 0
2, 97496, Note_on_c, 0, 88, 102
2, 97504, Note_on_c, 0, 76, 87
2, 97516, Note_on_c, 0, 52, 73
2, 97520, Note_on_c, 0, 83, 0
2, 97552, Note_on_c, 0, 80, 0
2, 97576, Note_on_c, 0, 88, 0
2, 97592, Note_on_c, 0, 76, 0
2, 97596, Note_on_c, 0, 52, 0
2, 97620, Note_on_c, 0, 56, 81
2, 97664, Note_on_c, 0, 56, 0
2, 97748, Note_on_c, 0, 85, 103
2, 97752, Note_on_c, 0, 58, 54
2, 97756, Note_on_c, 0, 73, 88
2, 97760, Note_on_c, 0, 76, 86
2, 97760, Note_on_c, 0, 79, 78
2, 97792, Control_c, 0, 64, 56
2, 97804, Control_c, 0, 64, 24
2, 97816, Control_c, 0, 64, 40
2, 97828, Control_c, 0, 64, 104
2, 97840, Control_c, 0, 64, 127
2, 97860, Note_on_c, 0, 58, 0
2, 97884, Note_on_c, 0, 64, 67
2, 97896, Note_on_c, 0, 85, 0
2, 97908, Note_on_c, 0, 73, 0
2, 97920, Note_on_c, 0, 79, 0
2, 97924, Note_on_c, 0, 76, 0
2, 97952, Note_on_c, 0, 64, 0
2, 98032, Note_on_c, 0, 83, 94
2, 98036, Note_on_c, 0, 80, 70
2, 98040, Note_on_c, 0, 71, 69
2, 98048, Note_on_c, 0, 59, 60
2, 98048, Note_on_c, 0, 76, 67
2, 98116, Control_c, 0, 64, 72
2, 98124, Note_on_c, 0, 59, 0
2, 98128, Control_c, 0, 64, 0
2, 98152, Note_on_c, 0, 68, 64
2, 98192, Control_c, 0, 64, 104
2, 98204, Control_c, 0, 64, 127
2, 98260, Note_on_c, 0, 68, 0
2, 98272, Note_on_c, 0, 83, 0
2, 98276, Note_on_c, 0, 80, 0
2, 98280, Note_on_c, 0, 64, 60
2, 98320, Note_on_c, 0, 71, 0
2, 98408, Note_on_c, 0, 64, 0
2, 98408, Note_on_c, 0, 59, 67
2, 98456, Note_on_c, 0, 59, 0
2, 98532, Note_on_c, 0, 76, 0
2, 98540, Note_on_c, 0, 83, 106
2, 98540, Note_on_c, 0, 71, 94
2, 98544, Note_on_c, 0, 56, 71
2, 98584, Note_on_c, 0, 71, 0
2, 98612, Note_on_c, 0, 83, 0
2, 98652, Note_on_c, 0, 56, 0
2, 98660, Note_on_c, 0, 47, 72
2, 98684, Note_on_c, 0, 47, 0
2, 98824, Control_c, 0, 64, 104
2, 98836, Control_c, 0, 64, 24
2, 98848, Note_on_c, 0, 92, 111
2, 98848, Control_c, 0, 64, 0
2, 98856, Note_on_c, 0, 80, 96
2, 98876, Note_on_c, 0, 52, 82
2, 98876, Note_on_c, 0, 40, 74
2, 98904, Control_c, 0, 64, 127
2, 98920, Note_on_c, 0, 92, 0
2, 98924, Note_on_c, 0, 40, 0
2, 98936, Note_on_c, 0, 80, 0
2, 98944, Note_on_c, 0, 52, 0
2, 99024, Note_on_c, 0, 71, 88
2, 99036, Note_on_c, 0, 59, 85
2, 99092, Note_on_c, 0, 59, 0
2, 99096, Note_on_c, 0, 71, 0
2, 99140, Note_on_c, 0, 76, 94
2, 99148, Note_on_c, 0, 56, 58
2, 99204, Note_on_c, 0, 76, 0
2, 99228, Note_on_c, 0, 56, 0
2, 99248, Note_on_c, 0, 68, 83
2, 99256, Note_on_c, 0, 64, 71
2, 99324, Note_on_c, 0, 68, 0
2, 99336, Note_on_c, 0, 64, 0
2, 99352, Note_on_c, 0, 71, 79
2, 99372, Note_on_c, 0, 59, 70
2, 99448, Note_on_c, 0, 59, 0
2, 99456, Note_on_c, 0, 71, 0
2, 99456, Note_on_c, 0, 76, 80
2, 99476, Note_on_c, 0, 76, 0
2, 99612, Control_c, 0, 64, 40
2, 99624, Note_on_c, 0, 92, 120
2, 99624, Note_on_c, 0, 80, 111
2, 99628, Control_c, 0, 64, 0
2, 99632, Note_on_c, 0, 39, 83
2, 99636, Note_on_c, 0, 51, 97
2, 99672, Note_on_c, 0, 92, 0
2, 99672, Control_c, 0, 64, 56
2, 99676, Note_on_c, 0, 39, 0
2, 99680, Note_on_c, 0, 51, 0
2, 99684, Control_c, 0, 64, 127
2, 99692, Note_on_c, 0, 80, 0
2, 99776, Note_on_c, 0, 58, 41
2, 99784, Note_on_c, 0, 72, 95
2, 99792, Note_on_c, 0, 58, 0
2, 99792, Note_on_c, 0, 60, 85
2, 99832, Note_on_c, 0, 72, 0
2, 99852, Note_on_c, 0, 60, 0
2, 99868, Note_on_c, 0, 78, 82
2, 99892, Note_on_c, 0, 56, 59
2, 99940, Note_on_c, 0, 78, 0
2, 99976, Note_on_c, 0, 56, 0
2, 99988, Note_on_c, 0, 68, 81
2, 99996, Note_on_c, 0, 66, 72
2, 100056, Note_on_c, 0, 66, 0
2, 100060, Note_on_c, 0, 68, 0
2, 100092, Note_on_c, 0, 72, 90
2, 100104, Note_on_c, 0, 60, 73
2, 100192, Note_on_c, 0, 60, 0
2, 100192, Note_on_c, 0, 56, 66
2, 100200, Note_on_c, 0, 72, 0
2, 100200, Note_on_c, 0, 78, 83
2, 100216, Note_on_c, 0, 56, 0
2, 100236, Note_on_c, 0, 78, 0
2, 100360, Control_c, 0, 64, 56
2, 100368, Control_c, 0, 64, 0
2, 100376, Note_on_c, 0, 92, 117
2, 100380, Note_on_c, 0, 80, 105
2, 100384, Note_on_c, 0, 38, 88
2, 100388, Note_on_c, 0, 50, 87
2, 100428, Note_on_c, 0, 38, 0
2, 100428, Control_c, 0, 64, 127
2, 100432, Note_on_c, 0, 92, 0
2, 100448, Note_on_c, 0, 50, 0
2, 100452, Note_on_c, 0, 80, 0
2, 100536, Note_on_c, 0, 71, 92
2, 100536, Note_on_c, 0, 59, 85
2, 100592, Note_on_c, 0, 59, 0
2, 100600, Note_on_c, 0, 71, 0
2, 100624, Note_on_c, 0, 77, 89
2, 100640, Note_on_c, 0, 56, 56
2, 100692, Note_on_c, 0, 77, 0
2, 100716, Note_on_c, 0, 56, 0
2, 100744, Note_on_c, 0, 68, 78
2, 100748, Note_on_c, 0, 65, 69
2, 100808, Note_on_c, 0, 65, 0
2, 100812, Note_on_c, 0, 68, 0
2, 100852, Note_on_c, 0, 71, 79
2, 100876, Note_on_c, 0, 59, 67
2, 100932, Note_on_c, 0, 71, 0
2, 100940, Note_on_c, 0, 59, 0
2, 100960, Note_on_c, 0, 77, 90
2, 100972, Note_on_c, 0, 56, 59
2, 100984, Note_on_c, 0, 68, 25
2, 101024, Note_on_c, 0, 68, 0
2, 101080, Note_on_c, 0, 77, 0
2, 101100, Note_on_c, 0, 80, 90
2, 101104, Note_on_c, 0, 68, 20
2, 101108, Note_on_c, 0, 49, 88
2, 101116, Note_on_c, 0, 56, 0
2, 101136, Control_c, 0, 64, 88
2, 101148, Control_c, 0, 64, 0
2, 101180, Control_c, 0, 64, 40
2, 101192, Control_c, 0, 64, 127
2, 101196, Note_on_c, 0, 68, 0
2, 101216, Note_on_c, 0, 49, 0
2, 101216, Note_on_c, 0, 71, 78
2, 101232, Note_on_c, 0, 59, 66
2, 101260, Note_on_c, 0, 80, 0
2, 101300, Note_on_c, 0, 71, 0
2, 101304, Note_on_c, 0, 59, 0
2, 101320, Note_on_c, 0, 77, 86
2, 101332, Note_on_c, 0, 56, 62
2, 101396, Note_on_c, 0, 77, 0
2, 101420, Note_on_c, 0, 56, 0
2, 101436, Note_on_c, 0, 68, 74
2, 101448, Note_on_c, 0, 65, 64
2, 101508, Note_on_c, 0, 65, 0
2, 101528, Note_on_c, 0, 68, 0
2, 101544, Note_on_c, 0, 71, 70
2, 101572, Note_on_c, 0, 59, 47
2, 101648, Note_on_c, 0, 71, 0
2, 101648, Note_on_c, 0, 56, 70
2, 101652, Note_on_c, 0, 59, 0
2, 101652, Note_on_c, 0, 77, 78
2, 101668, Note_on_c, 0, 77, 0
2, 101668, Note_on_c, 0, 56, 0
2, 101804, Control_c, 0, 64, 40
2, 101812, Control_c, 0, 64, 0
2, 101820, Note_on_c, 0, 92, 121
2, 101820, Note_on_c, 0, 80, 106
2, 101852, Note_on_c, 0, 36, 72
2, 101868, Control_c, 0, 64, 104
2, 101876, Note_on_c, 0, 92, 0
2, 101880, Control_c, 0, 64, 127
2, 101896, Note_on_c, 0, 80, 0
2, 101908, Note_on_c, 0, 36, 0
2, 101976, Note_on_c, 0, 72, 103
2, 102004, Note_on_c, 0, 60, 94
2, 102036, Note_on_c, 0, 72, 0
2, 102052, Note_on_c, 0, 60, 0
2, 102080, Note_on_c, 0, 77, 95
2, 102148, Note_on_c, 0, 77, 0
2, 102196, Note_on_c, 0, 68, 92
2, 102200, Note_on_c, 0, 65, 80
2, 102276, Note_on_c, 0, 65, 0
2, 102288, Note_on_c, 0, 68, 0
2, 102308, Note_on_c, 0, 72, 90
2, 102320, Note_on_c, 0, 60, 78
2, 102352, Note_on_c, 0, 56, 46
2, 102376, Note_on_c, 0, 60, 0
2, 102404, Note_on_c, 0, 56, 0
2, 102408, Note_on_c, 0, 72, 0
2, 102408, Note_on_c, 0, 77, 89
2, 102436, Note_on_c, 0, 77, 0
2, 102560, Control_c, 0, 64, 88
2, 102568, Control_c, 0, 64, 0
2, 102572, Note_on_c, 0, 92, 126
2, 102572, Note_on_c, 0, 80, 109
2, 102580, Note_on_c, 0, 35, 95
2, 102584, Note_on_c, 0, 47, 102
2, 102616, Note_on_c, 0, 35, 0
2, 102624, Control_c, 0, 64, 72
2, 102632, Note_on_c, 0, 92, 0
2, 102636, Control_c, 0, 64, 127
2, 102640, Note_on_c, 0, 47, 0
2, 102648, Note_on_c, 0, 80, 0
2, 102736, Note_on_c, 0, 73, 98
2, 102744, Note_on_c, 0, 61, 79
2, 102808, Note_on_c, 0, 61, 0
2, 102816, Note_on_c, 0, 73, 0
2, 102832, Note_on_c, 0, 77, 94
2, 102840, Note_on_c, 0, 56, 74
2, 102912, Note_on_c, 0, 77, 0
2, 102932, Note_on_c, 0, 56, 0
2, 102956, Note_on_c, 0, 68, 90
2, 102956, Note_on_c, 0, 65, 85
2, 103064, Note_on_c, 0, 73, 92
2, 103080, Note_on_c, 0, 61, 81
2, 103120, Note_on_c, 0, 65, 0
2, 103196, Note_on_c, 0, 77, 100
2, 103204, Note_on_c, 0, 56, 86
2, 103212, Note_on_c, 0, 73, 0
2, 103220, Note_on_c, 0, 68, 0
2, 103224, Note_on_c, 0, 61, 0
2, 103244, Note_on_c, 0, 77, 0
2, 103248, Note_on_c, 0, 56, 0
2, 103448, Note_on_c, 0, 92, 124
2, 103448, Note_on_c, 0, 80, 102
2, 103456, Note_on_c, 0, 86, 105
2, 103456, Control_c, 0, 64, 104
2, 103464, Note_on_c, 0, 46, 100
2, 103464, Note_on_c, 0, 34, 95
2, 103468, Control_c, 0, 64, 0
2, 103544, Control_c, 0, 64, 104
2, 103556, Control_c, 0, 64, 127
2, 103568, Note_on_c, 0, 46, 0
2, 103572, Note_on_c, 0, 34, 0
2, 103700, Note_on_c, 0, 56, 71
2, 103772, Note_on_c, 0, 56, 0
2, 103772, Note_on_c, 0, 80, 0
2, 103800, Note_on_c, 0, 92, 0
2, 103812, Note_on_c, 0, 62, 81
2, 103900, Note_on_c, 0, 62, 0
2, 103928, Note_on_c, 0, 65, 77
2, 104004, Note_on_c, 0, 65, 0
2, 104008, Note_on_c, 0, 86, 0
2, 104032, Note_on_c, 0, 91, 110
2, 104036, Note_on_c, 0, 79, 101
2, 104044, Note_on_c, 0, 62, 73
2, 104116, Note_on_c, 0, 79, 0
2, 104120, Note_on_c, 0, 91, 0
2, 104152, Note_on_c, 0, 56, 71
2, 104164, Note_on_c, 0, 62, 0
2, 104264, Note_on_c, 0, 89, 101
2, 104268, Note_on_c, 0, 56, 0
2, 104272, Note_on_c, 0, 77, 92
2, 104288, Note_on_c, 0, 53, 85
2, 104348, Note_on_c, 0, 89, 0
2, 104368, Note_on_c, 0, 77, 0
2, 104400, Note_on_c, 0, 56, 71
2, 104404, Note_on_c, 0, 53, 0
2, 104520, Note_on_c, 0, 56, 0
2, 104520, Note_on_c, 0, 79, 105
2, 104524, Note_on_c, 0, 67, 93
2, 104532, Note_on_c, 0, 62, 75
2, 104568, Note_on_c, 0, 67, 0
2, 104600, Note_on_c, 0, 79, 0
2, 104636, Note_on_c, 0, 62, 0
2, 104644, Note_on_c, 0, 65, 82
2, 104744, Note_on_c, 0, 65, 0
2, 104752, Note_on_c, 0, 80, 106
2, 104752, Note_on_c, 0, 68, 101
2, 104772, Note_on_c, 0, 62, 72
2, 104828, Note_on_c, 0, 68, 0
2, 104872, Note_on_c, 0, 56, 82
2, 104876, Note_on_c, 0, 80, 0
2, 104880, Note_on_c, 0, 62, 0
2, 104916, Note_on_c, 0, 56, 0
2, 105052, Note_on_c, 0, 84, 108
2, 105052, Note_on_c, 0, 80, 85
2, 105056, Note_on_c, 0, 72, 96
2, 105060, Note_on_c, 0, 77, 90
2, 105092, Note_on_c, 0, 39, 87
2, 105100, Control_c, 0, 64, 24
2, 105112, Control_c, 0, 64, 0
2, 105188, Control_c, 0, 64, 127
2, 105208, Note_on_c, 0, 49, 70
2, 105216, Note_on_c, 0, 39, 0
2, 105308, Note_on_c, 0, 49, 0
2, 105328, Note_on_c, 0, 53, 66
2, 105432, Note_on_c, 0, 56, 69
2, 105440, Note_on_c, 0, 53, 0
2, 105508, Note_on_c, 0, 72, 0
2, 105528, Note_on_c, 0, 56, 0
2, 105536, Note_on_c, 0, 58, 63
2, 105616, Note_on_c, 0, 58, 0
2, 105640, Note_on_c, 0, 84, 0
2, 105644, Note_on_c, 0, 61, 79
2, 105712, Note_on_c, 0, 77, 0
2, 105712, Note_on_c, 0, 80, 0
2, 105764, Note_on_c, 0, 61, 0
2, 105768, Note_on_c, 0, 82, 88
2, 105768, Note_on_c, 0, 70, 80
2, 105772, Note_on_c, 0, 80, 52
2, 105776, Note_on_c, 0, 65, 65
2, 105784, Note_on_c, 0, 77, 54
2, 105872, Note_on_c, 0, 65, 0
2, 105888, Note_on_c, 0, 61, 66
2, 105892, Note_on_c, 0, 70, 0
2, 105936, Note_on_c, 0, 82, 0
2, 105940, Note_on_c, 0, 77, 0
2, 105944, Note_on_c, 0, 80, 0
2, 106000, Note_on_c, 0, 58, 48
2, 106028, Note_on_c, 0, 61, 0
2, 106108, Note_on_c, 0, 56, 63
2, 106136, Note_on_c, 0, 58, 0
2, 106160, Note_on_c, 0, 56, 0
2, 106248, Note_on_c, 0, 92, 117
2, 106248, Note_on_c, 0, 80, 104
2, 106292, Note_on_c, 0, 53, 41
2, 106352, Note_on_c, 0, 49, 82
2, 106356, Note_on_c, 0, 53, 0
2, 106388, Note_on_c, 0, 49, 0
2, 106400, Note_on_c, 0, 80, 0
2, 106400, Note_on_c, 0, 92, 0
2, 106532, Note_on_c, 0, 92, 124
2, 106532, Control_c, 0, 64, 104
2, 106536, Note_on_c, 0, 80, 104
2, 106544, Note_on_c, 0, 86, 100
2, 106544, Control_c, 0, 64, 0
2, 106560, Note_on_c, 0, 34, 90
2, 106560, Note_on_c, 0, 46, 82
2, 106600, Note_on_c, 0, 34, 0
2, 106604, Note_on_c, 0, 46, 0
2, 106612, Control_c, 0, 64, 88
2, 106620, Control_c, 0, 64, 127
2, 106720, Note_on_c, 0, 56, 69
2, 106732, Note_on_c, 0, 61, 29
2, 106752, Note_on_c, 0, 61, 0
2, 106756, Note_on_c, 0, 80, 0
2, 106756, Note_on_c, 0, 92, 0
2, 106796, Note_on_c, 0, 56, 0
2, 106828, Note_on_c, 0, 62, 88
2, 106880, Note_on_c, 0, 86, 0
2, 106924, Note_on_c, 0, 62, 0
2, 106924, Note_on_c, 0, 91, 110
2, 106924, Note_on_c, 0, 79, 105
2, 106940, Note_on_c, 0, 65, 74
2, 106968, Note_on_c, 0, 79, 0
2, 106984, Note_on_c, 0, 91, 0
2, 107036, Note_on_c, 0, 94, 104
2, 107040, Note_on_c, 0, 82, 100
2, 107048, Note_on_c, 0, 65, 0
2, 107048, Note_on_c, 0, 62, 75
2, 107076, Note_on_c, 0, 82, 0
2, 107084, Note_on_c, 0, 94, 0
2, 107128, Note_on_c, 0, 92, 117
2, 107128, Note_on_c, 0, 80, 109
2, 107144, Note_on_c, 0, 56, 69
2, 107152, Note_on_c, 0, 62, 0
2, 107180, Note_on_c, 0, 80, 0
2, 107188, Note_on_c, 0, 92, 0
2, 107216, Note_on_c, 0, 91, 111
2, 107216, Note_on_c, 0, 79, 111
2, 107252, Note_on_c, 0, 79, 0
2, 107256, Note_on_c, 0, 91, 0
2, 107316, Note_on_c, 0, 56, 0
2, 107316, Note_on_c, 0, 89, 117
2, 107316, Note_on_c, 0, 77, 115
2, 107336, Note_on_c, 0, 53, 73
2, 107352, Note_on_c, 0, 77, 0
2, 107360, Note_on_c, 0, 89, 0
2, 107404, Note_on_c, 0, 53, 0
2, 107432, Note_on_c, 0, 56, 72
2, 107548, Note_on_c, 0, 56, 0
2, 107556, Note_on_c, 0, 79, 102
2, 107560, Note_on_c, 0, 67, 94
2, 107564, Note_on_c, 0, 62, 71
2, 107608, Note_on_c, 0, 67, 0
2, 107628, Note_on_c, 0, 79, 0
2, 107660, Note_on_c, 0, 62, 0
2, 107672, Note_on_c, 0, 65, 81
2, 107768, Note_on_c, 0, 80, 106
2, 107768, Note_on_c, 0, 68, 102
2, 107792, Note_on_c, 0, 65, 0
2, 107792, Note_on_c, 0, 62, 67
2, 107836, Note_on_c, 0, 68, 0
2, 107888, Note_on_c, 0, 56, 79
2, 107900, Note_on_c, 0, 62, 0
2, 107900, Note_on_c, 0, 80, 0
2, 107932, Note_on_c, 0, 56, 0
2, 108060, Note_on_c, 0, 84, 103
2, 108060, Note_on_c, 0, 80, 80
2, 108064, Note_on_c, 0, 72, 89
2, 108072, Note_on_c, 0, 77, 85
2, 108120, Control_c, 0, 64, 56
2, 108128, Control_c, 0, 64, 0
2, 108136, Note_on_c, 0, 39, 78
2, 108208, Control_c, 0, 64, 88
2, 108220, Control_c, 0, 64, 127
2, 108236, Note_on_c, 0, 49, 71
2, 108244, Note_on_c, 0, 39, 0
2, 108324, Note_on_c, 0, 49, 0
2, 108348, Note_on_c, 0, 53, 67
2, 108396, Note_on_c, 0, 72, 0
2, 108444, Note_on_c, 0, 56, 78
2, 108468, Note_on_c, 0, 53, 0
2, 108544, Note_on_c, 0, 56, 0
2, 108552, Note_on_c, 0, 58, 63
2, 108620, Note_on_c, 0, 84, 0
2, 108624, Note_on_c, 0, 58, 0
2, 108644, Note_on_c, 0, 80, 0
2, 108644, Note_on_c, 0, 61, 70
2, 108676, Note_on_c, 0, 77, 0
2, 108732, Note_on_c, 0, 82, 87
2, 108736, Note_on_c, 0, 70, 79
2, 108740, Note_on_c, 0, 80, 78
2, 108748, Note_on_c, 0, 77, 56
2, 108752, Note_on_c, 0, 61, 0
2, 108764, Note_on_c, 0, 65, 64
2, 108780, Note_on_c, 0, 77, 0
2, 108796, Note_on_c, 0, 70, 0
2, 108844, Note_on_c, 0, 80, 0
2, 108864, Note_on_c, 0, 61, 66
2, 108868, Note_on_c, 0, 82, 0
2, 108872, Note_on_c, 0, 65, 0
2, 108968, Note_on_c, 0, 58, 66
2, 108992, Note_on_c, 0, 61, 0
2, 109076, Note_on_c, 0, 56, 70
2, 109104, Note_on_c, 0, 58, 0
2, 109128, Note_on_c, 0, 56, 0
2, 109196, Note_on_c, 0, 92, 115
2, 109196, Note_on_c, 0, 80, 104
2, 109212, Note_on_c, 0, 53, 64
2, 109288, Note_on_c, 0, 49, 85
2, 109292, Note_on_c, 0, 53, 0
2, 109312, Note_on_c, 0, 92, 0
2, 109320, Note_on_c, 0, 49, 0
2, 109328, Note_on_c, 0, 80, 0
2, 109444, Control_c, 0, 64, 40
2, 109452, Control_c, 0, 64, 0
2, 109456, Note_on_c, 0, 80, 97
2, 109456, Note_on_c, 0, 92, 118
2, 109468, Note_on_c, 0, 86, 100
2, 109476, Note_on_c, 0, 35, 87
2, 109484, Note_on_c, 0, 47, 80
2, 109508, Control_c, 0, 64, 56
2, 109520, Control_c, 0, 64, 127
2, 109524, Note_on_c, 0, 47, 0
2, 109536, Note_on_c, 0, 35, 0
2, 109604, Note_on_c, 0, 53, 92
2, 109652, Note_on_c, 0, 80, 0
2, 109672, Note_on_c, 0, 92, 0
2, 109688, Note_on_c, 0, 53, 0
2, 109712, Note_on_c, 0, 56, 74
2, 109796, Note_on_c, 0, 86, 0
2, 109804, Note_on_c, 0, 56, 0
2, 109820, Note_on_c, 0, 91, 108
2, 109824, Note_on_c, 0, 79, 101
2, 109828, Note_on_c, 0, 62, 88
2, 109860, Note_on_c, 0, 79, 0
2, 109884, Note_on_c, 0, 91, 0
2, 109916, Note_on_c, 0, 62, 0
2, 109932, Note_on_c, 0, 56, 70
2, 109940, Note_on_c, 0, 94, 105
2, 109940, Note_on_c, 0, 82, 102
2, 109980, Note_on_c, 0, 82, 0
2, 110000, Note_on_c, 0, 94, 0
2, 110052, Note_on_c, 0, 53, 85
2, 110056, Note_on_c, 0, 80, 109
2, 110056, Note_on_c, 0, 92, 109
2, 110064, Note_on_c, 0, 56, 0
2, 110068, Note_on_c, 0, 53, 0
2, 110100, Note_on_c, 0, 80, 0
2, 110120, Note_on_c, 0, 92, 0
2, 110208, Control_c, 0, 64, 40
2, 110212, Note_on_c, 0, 95, 125
2, 110212, Note_on_c, 0, 83, 102
2, 110216, Control_c, 0, 64, 0
2, 110232, Note_on_c, 0, 34, 92
2, 110232, Note_on_c, 0, 46, 95
2, 110264, Control_c, 0, 64, 127
2, 110292, Note_on_c, 0, 34, 0
2, 110292, Note_on_c, 0, 83, 0
2, 110308, Note_on_c, 0, 46, 0
2, 110324, Note_on_c, 0, 95, 0
2, 110368, Note_on_c, 0, 94, 106
2, 110368, Note_on_c, 0, 82, 89
2, 110384, Note_on_c, 0, 53, 85
2, 110408, Note_on_c, 0, 82, 0
2, 110432, Note_on_c, 0, 94, 0
2, 110456, Note_on_c, 0, 53, 0
2, 110492, Note_on_c, 0, 56, 70
2, 110516, Note_on_c, 0, 103, 123
2, 110516, Note_on_c, 0, 91, 106
2, 110556, Note_on_c, 0, 91, 0
2, 110588, Note_on_c, 0, 91, 31
2, 110672, Note_on_c, 0, 62, 77
2, 110692, Note_on_c, 0, 56, 0
2, 110740, Note_on_c, 0, 103, 0
2, 110772, Note_on_c, 0, 62, 0
2, 110776, Note_on_c, 0, 91, 0
2, 110788, Note_on_c, 0, 56, 78
2, 110896, Note_on_c, 0, 56, 0
2, 110904, Note_on_c, 0, 101, 113
2, 110904, Note_on_c, 0, 89, 113
2, 110912, Note_on_c, 0, 53, 64
2, 110964, Note_on_c, 0, 89, 0
2, 110968, Note_on_c, 0, 53, 0
2, 110976, Note_on_c, 0, 101, 0
2, 111068, Note_on_c, 0, 99, 106
2, 111072, Note_on_c, 0, 87, 109
2, 111148, Note_on_c, 0, 87, 0
2, 111152, Note_on_c, 0, 99, 0
2, 111208, Note_on_c, 0, 98, 108
2, 111212, Note_on_c, 0, 86, 96
2, 111252, Note_on_c, 0, 86, 0
2, 111256, Note_on_c, 0, 98, 0
2, 111324, Note_on_c, 0, 96, 106
2, 111328, Note_on_c, 0, 84, 100
2, 111364, Note_on_c, 0, 96, 0
2, 111368, Note_on_c, 0, 84, 0
2, 111432, Note_on_c, 0, 94, 96
2, 111436, Note_on_c, 0, 82, 96
2, 111472, Note_on_c, 0, 82, 0
2, 111476, Note_on_c, 0, 94, 0
2, 111528, Note_on_c, 0, 92, 106
2, 111528, Note_on_c, 0, 80, 98
2, 111580, Note_on_c, 0, 80, 0
2, 111592, Note_on_c, 0, 92, 0
2, 111632, Note_on_c, 0, 91, 106
2, 111636, Note_on_c, 0, 79, 101
2, 111676, Note_on_c, 0, 79, 0
2, 111680, Note_on_c, 0, 91, 0
2, 111748, Note_on_c, 0, 89, 111
2, 111748, Note_on_c, 0, 77, 108
2, 111788, Note_on_c, 0, 77, 0
2, 111796, Note_on_c, 0, 89, 0
2, 112024, Note_on_c, 0, 79, 94
2, 112036, Note_on_c, 0, 67, 77
2, 112128, Note_on_c, 0, 67, 0
2, 112268, Note_on_c, 0, 79, 0
2, 112368, Note_on_c, 0, 80, 97
2, 112372, Note_on_c, 0, 68, 80
2, 112424, Note_on_c, 0, 68, 0
2, 112480, Note_on_c, 0, 80, 0
2, 112672, Note_on_c, 0, 84, 97
2, 112676, Note_on_c, 0, 72, 81
2, 112676, Note_on_c, 0, 80, 66
2, 112684, Note_on_c, 0, 77, 78
2, 112720, Note_on_c, 0, 39, 49
2, 112728, Control_c, 0, 64, 56
2, 112740, Control_c, 0, 64, 0
2, 112808, Control_c, 0, 64, 72
2, 112820, Control_c, 0, 64, 127
2, 112836, Note_on_c, 0, 39, 0
2, 112836, Note_on_c, 0, 49, 66
2, 112932, Note_on_c, 0, 49, 0
2, 112960, Note_on_c, 0, 53, 50
2, 112964, Note_on_c, 0, 72, 0
2, 113048, Note_on_c, 0, 84, 0
2, 113064, Note_on_c, 0, 56, 62
2, 113080, Note_on_c, 0, 53, 0
2, 113124, Note_on_c, 0, 77, 0
2, 113132, Note_on_c, 0, 80, 0
2, 113148, Note_on_c, 0, 56, 0
2, 113160, Note_on_c, 0, 82, 83
2, 113164, Note_on_c, 0, 70, 71
2, 113168, Note_on_c, 0, 58, 65
2, 113180, Note_on_c, 0, 80, 52
2, 113200, Note_on_c, 0, 80, 0
2, 113212, Note_on_c, 0, 70, 0
2, 113240, Note_on_c, 0, 58, 0
2, 113248, Note_on_c, 0, 82, 0
2, 113272, Note_on_c, 0, 61, 64
2, 113380, Note_on_c, 0, 61, 0
2, 113384, Note_on_c, 0, 87, 109
2, 113388, Note_on_c, 0, 75, 100
2, 113388, Note_on_c, 0, 77, 94
2, 113388, Note_on_c, 0, 80, 92
2, 113392, Note_on_c, 0, 65, 82
2, 113396, Note_on_c, 0, 82, 72
2, 113488, Note_on_c, 0, 65, 0
2, 113512, Note_on_c, 0, 61, 65
2, 113520, Note_on_c, 0, 82, 0
2, 113540, Note_on_c, 0, 87, 0
2, 113564, Note_on_c, 0, 75, 0
2, 113612, Note_on_c, 0, 58, 60
2, 113636, Note_on_c, 0, 61, 0
2, 113692, Note_on_c, 0, 80, 0
2, 113700, Note_on_c, 0, 56, 65
2, 113720, Note_on_c, 0, 58, 0
2, 113776, Note_on_c, 0, 56, 0
2, 113808, Note_on_c, 0, 77, 0
2, 113832, Note_on_c, 0, 73, 92
2, 113832, Note_on_c, 0, 85, 101
2, 113844, Note_on_c, 0, 53, 75
2, 113876, Note_on_c, 0, 73, 0
2, 113900, Note_on_c, 0, 85, 0
2, 113944, Note_on_c, 0, 53, 0
2, 113944, Note_on_c, 0, 49, 82
2, 114068, Note_on_c, 0, 91, 120
2, 114072, Note_on_c, 0, 79, 111
2, 114072, Note_on_c, 0, 85, 94
2, 114072, Note_on_c, 0, 82, 93
2, 114084, Note_on_c, 0, 49, 0
2, 114096, Note_on_c, 0, 39, 71
2, 114096, Control_c, 0, 64, 56
2, 114108, Control_c, 0, 64, 0
2, 114172, Control_c, 0, 64, 127
2, 114200, Note_on_c, 0, 49, 93
2, 114204, Note_on_c, 0, 39, 0
2, 114220, Note_on_c, 0, 91, 0
2, 114264, Note_on_c, 0, 79, 0
2, 114288, Note_on_c, 0, 49, 0
2, 114308, Note_on_c, 0, 53, 69
2, 114396, Note_on_c, 0, 85, 0
2, 114400, Note_on_c, 0, 56, 81
2, 114420, Note_on_c, 0, 53, 0
2, 114500, Note_on_c, 0, 58, 77
2, 114512, Note_on_c, 0, 56, 0
2, 114520, Note_on_c, 0, 89, 111
2, 114520, Note_on_c, 0, 77, 105
2, 114536, Note_on_c, 0, 85, 51
2, 114548, Note_on_c, 0, 82, 0
2, 114564, Note_on_c, 0, 77, 0
2, 114576, Note_on_c, 0, 85, 0
2, 114592, Note_on_c, 0, 89, 0
2, 114592, Note_on_c, 0, 58, 0
2, 114628, Note_on_c, 0, 61, 73
2, 114660, Note_on_c, 0, 61, 0
2, 114744, Note_on_c, 0, 96, 126
2, 114748, Note_on_c, 0, 84, 118
2, 114748, Note_on_c, 0, 92, 102
2, 114752, Note_on_c, 0, 89, 105
2, 114760, Note_on_c, 0, 68, 71
2, 114848, Note_on_c, 0, 68, 0
2, 114860, Note_on_c, 0, 65, 89
2, 114944, Note_on_c, 0, 84, 0
2, 114964, Note_on_c, 0, 61, 79
2, 114972, Note_on_c, 0, 65, 0
2, 115024, Note_on_c, 0, 96, 0
2, 115068, Note_on_c, 0, 56, 74
2, 115076, Note_on_c, 0, 89, 0
2, 115092, Note_on_c, 0, 61, 0
2, 115096, Note_on_c, 0, 92, 0
2, 115120, Note_on_c, 0, 56, 0
2, 115184, Note_on_c, 0, 94, 106
2, 115188, Note_on_c, 0, 82, 104
2, 115204, Note_on_c, 0, 53, 85
2, 115252, Note_on_c, 0, 82, 0
2, 115288, Note_on_c, 0, 94, 0
2, 115304, Note_on_c, 0, 49, 97
2, 115312, Note_on_c, 0, 53, 0
2, 115336, Note_on_c, 0, 49, 0
2, 115528, Note_on_c, 0, 101, 125
2, 115536, Note_on_c, 0, 89, 105
2, 115536, Note_on_c, 0, 91, 102
2, 115536, Note_on_c, 0, 94, 93
2, 115536, Note_on_c, 0, 97, 90
2, 115544, Note_on_c, 0, 27, 105
2, 115544, Note_on_c, 0, 39, 117
2, 115560, Control_c, 0, 64, 24
2, 115572, Control_c, 0, 64, 0
2, 115640, Control_c, 0, 64, 127
2, 115644, Note_on_c, 0, 27, 0
2, 115648, Note_on_c, 0, 39, 0
2, 115768, Note_on_c, 0, 46, 79
2, 115852, Note_on_c, 0, 46, 0
2, 115864, Note_on_c, 0, 49, 77
2, 115964, Note_on_c, 0, 49, 0
2, 115984, Note_on_c, 0, 55, 75
2, 116088, Note_on_c, 0, 55, 0
2, 116088, Note_on_c, 0, 58, 80
2, 116164, Note_on_c, 0, 58, 0
2, 116188, Note_on_c, 0, 61, 74
2, 116284, Note_on_c, 0, 61, 0
2, 116308, Note_on_c, 0, 67, 79
2, 116416, Note_on_c, 0, 70, 88
2, 116420, Note_on_c, 0, 67, 0
2, 116484, Note_on_c, 0, 70, 0
2, 116520, Note_on_c, 0, 73, 83
2, 116536, Note_on_c, 0, 97, 0
2, 116540, Note_on_c, 0, 89, 0
2, 116612, Note_on_c, 0, 94, 0
2, 116616, Note_on_c, 0, 73, 0
2, 116640, Note_on_c, 0, 79, 89
2, 116672, Note_on_c, 0, 91, 0
2, 116752, Note_on_c, 0, 82, 93
2, 116776, Note_on_c, 0, 79, 0
2, 116840, Note_on_c, 0, 82, 0
2, 116868, Note_on_c, 0, 85, 96
2, 116916, Note_on_c, 0, 85, 0
2, 117008, Note_on_c, 0, 101, 0
2, 117048, Note_on_c, 0, 100, 108
2, 117056, Note_on_c, 0, 91, 56
2, 117140, Note_on_c, 0, 91, 0
2, 117156, Note_on_c, 0, 100, 0
2, 117180, Note_on_c, 0, 94, 78
2, 117188, Note_on_c, 0, 96, 100
2, 117240, Note_on_c, 0, 94, 0
2, 117260, Note_on_c, 0, 96, 0
2, 117280, Note_on_c, 0, 99, 89
2, 117288, Note_on_c, 0, 90, 57
2, 117348, Note_on_c, 0, 99, 0
2, 117352, Note_on_c, 0, 90, 0
2, 117372, Note_on_c, 0, 95, 85
2, 117388, Note_on_c, 0, 93, 62
2, 117412, Note_on_c, 0, 93, 0
2, 117440, Note_on_c, 0, 95, 0
2, 117468, Note_on_c, 0, 98, 83
2, 117472, Note_on_c, 0, 89, 69
2, 117532, Note_on_c, 0, 89, 0
2, 117540, Note_on_c, 0, 98, 0
2, 117548, Note_on_c, 0, 94, 79
2, 117556, Note_on_c, 0, 92, 63
2, 117624, Note_on_c, 0, 92, 0
2, 117628, Note_on_c, 0, 94, 0
2, 117648, Note_on_c, 0, 97, 83
2, 117660, Note_on_c, 0, 88, 63
2, 117708, Note_on_c, 0, 88, 0
2, 117716, Note_on_c, 0, 97, 0
2, 117736, Note_on_c, 0, 93, 81
2, 117748, Note_on_c, 0, 91, 70
2, 117792, Note_on_c, 0, 91, 0
2, 117804, Note_on_c, 0, 93, 0
2, 117824, Note_on_c, 0, 96, 87
2, 117836, Note_on_c, 0, 87, 49
2, 117892, Note_on_c, 0, 87, 0
2, 117908, Note_on_c, 0, 96, 0
2, 117908, Note_on_c, 0, 90, 59
2, 117912, Note_on_c, 0, 92, 89
2, 117976, Note_on_c, 0, 90, 0
2, 117980, Note_on_c, 0, 92, 0
2, 118008, Note_on_c, 0, 95, 93
2, 118012, Note_on_c, 0, 86, 63
2, 118060, Note_on_c, 0, 86, 0
2, 118064, Note_on_c, 0, 95, 0
2, 118080, Note_on_c, 0, 91, 78
2, 118096, Note_on_c, 0, 89, 70
2, 118140, Note_on_c, 0, 89, 0
2, 118152, Note_on_c, 0, 91, 0
2, 118168, Note_on_c, 0, 94, 80
2, 118180, Note_on_c, 0, 85, 63
2, 118236, Note_on_c, 0, 85, 0
2, 118240, Note_on_c, 0, 94, 0
2, 118260, Note_on_c, 0, 90, 77
2, 118264, Note_on_c, 0, 88, 56
2, 118320, Note_on_c, 0, 88, 0
2, 118324, Note_on_c, 0, 90, 0
2, 118340, Note_on_c, 0, 93, 90
2, 118364, Note_on_c, 0, 84, 64
2, 118388, Note_on_c, 0, 84, 0
2, 118428, Note_on_c, 0, 93, 0
2, 118432, Note_on_c, 0, 89, 77
2, 118432, Note_on_c, 0, 87, 64
2, 118492, Note_on_c, 0, 87, 0
2, 118508, Note_on_c, 0, 89, 0
2, 118516, Note_on_c, 0, 92, 81
2, 118536, Note_on_c, 0, 83, 51
2, 118580, Note_on_c, 0, 83, 0
2, 118588, Note_on_c, 0, 92, 0
2, 118596, Note_on_c, 0, 88, 72
2, 118608, Note_on_c, 0, 86, 59
2, 118640, Note_on_c, 0, 86, 0
2, 118664, Note_on_c, 0, 88, 0
2, 118680, Note_on_c, 0, 91, 85
2, 118692, Note_on_c, 0, 82, 46
2, 118744, Note_on_c, 0, 82, 0
2, 118756, Note_on_c, 0, 85, 63
2, 118760, Note_on_c, 0, 91, 0
2, 118764, Note_on_c, 0, 87, 81
2, 118824, Note_on_c, 0, 85, 0
2, 118836, Note_on_c, 0, 87, 0
2, 118852, Note_on_c, 0, 90, 78
2, 118852, Note_on_c, 0, 81, 51
2, 118900, Note_on_c, 0, 81, 0
2, 118916, Note_on_c, 0, 90, 0
2, 118924, Note_on_c, 0, 86, 69
2, 118932, Note_on_c, 0, 84, 62
2, 118976, Note_on_c, 0, 84, 0
2, 118992, Note_on_c, 0, 86, 0
2, 119012, Note_on_c, 0, 89, 90
2, 119024, Note_on_c, 0, 80, 56
2, 119088, Note_on_c, 0, 80, 0
2, 119096, Note_on_c, 0, 85, 85
2, 119108, Note_on_c, 0, 83, 65
2, 119112, Note_on_c, 0, 89, 0
2, 119164, Note_on_c, 0, 83, 0
2, 119168, Note_on_c, 0, 85, 0
2, 119188, Note_on_c, 0, 88, 86
2, 119200, Note_on_c, 0, 79, 48
2, 119232, Note_on_c, 0, 79, 0
2, 119252, Note_on_c, 0, 88, 0
2, 119260, Note_on_c, 0, 84, 85
2, 119264, Note_on_c, 0, 82, 51
2, 119324, Note_on_c, 0, 82, 0
2, 119336, Note_on_c, 0, 84, 0
2, 119348, Note_on_c, 0, 87, 81
2, 119352, Note_on_c, 0, 78, 49
2, 119408, Note_on_c, 0, 78, 0
2, 119416, Note_on_c, 0, 87, 0
2, 119432, Note_on_c, 0, 83, 70
2, 119436, Note_on_c, 0, 81, 63
2, 119496, Note_on_c, 0, 81, 0
2, 119500, Note_on_c, 0, 83, 0
2, 119516, Note_on_c, 0, 86, 87
2, 119544, Note_on_c, 0, 77, 49
2, 119572, Note_on_c, 0, 77, 0
2, 119592, Note_on_c, 0, 86, 0
2, 119596, Note_on_c, 0, 80, 63
2, 119600, Note_on_c, 0, 82, 79
2, 119668, Note_on_c, 0, 80, 0
2, 119672, Note_on_c, 0, 82, 0
2, 119688, Note_on_c, 0, 85, 81
2, 119696, Note_on_c, 0, 76, 60
2, 119736, Note_on_c, 0, 76, 0
2, 119756, Note_on_c, 0, 85, 0
2, 119760, Note_on_c, 0, 81, 72
2, 119772, Note_on_c, 0, 79, 63
2, 119824, Note_on_c, 0, 79, 0
2, 119852, Note_on_c, 0, 81, 0
2, 119852, Note_on_c, 0, 84, 92
2, 119860, Note_on_c, 0, 75, 50
2, 119904, Note_on_c, 0, 75, 0
2, 119924, Note_on_c, 0, 78, 62
2, 119940, Note_on_c, 0, 80, 81
2, 119952, Note_on_c, 0, 84, 0
2, 119996, Note_on_c, 0, 78, 0
2, 120008, Note_on_c, 0, 80, 0
2, 120024, Note_on_c, 0, 74, 54
2, 120032, Note_on_c, 0, 83, 87
2, 120076, Note_on_c, 0, 74, 0
2, 120096, Note_on_c, 0, 83, 0
2, 120108, Note_on_c, 0, 79, 80
2, 120108, Note_on_c, 0, 77, 67
2, 120156, Note_on_c, 0, 77, 0
2, 120188, Note_on_c, 0, 79, 0
2, 120192, Note_on_c, 0, 82, 81
2, 120204, Note_on_c, 0, 73, 48
2, 120252, Note_on_c, 0, 73, 0
2, 120260, Note_on_c, 0, 82, 0
2, 120276, Note_on_c, 0, 76, 62
2, 120280, Note_on_c, 0, 78, 73
2, 120328, Note_on_c, 0, 76, 0
2, 120348, Note_on_c, 0, 78, 0
2, 120364, Note_on_c, 0, 81, 82
2, 120380, Note_on_c, 0, 72, 56
2, 120408, Note_on_c, 0, 72, 0
2, 120436, Note_on_c, 0, 75, 60
2, 120452, Note_on_c, 0, 81, 0
2, 120456, Note_on_c, 0, 77, 83
2, 120504, Note_on_c, 0, 75, 0
2, 120528, Note_on_c, 0, 77, 0
2, 120536, Note_on_c, 0, 80, 79
2, 120540, Note_on_c, 0, 71, 50
2, 120588, Note_on_c, 0, 71, 0
2, 120604, Note_on_c, 0, 80, 0
2, 120620, Note_on_c, 0, 76, 78
2, 120620, Note_on_c, 0, 74, 57
2, 120668, Note_on_c, 0, 74, 0
2, 120692, Note_on_c, 0, 76, 0
2, 120700, Note_on_c, 0, 79, 85
2, 120712, Note_on_c, 0, 70, 49
2, 120768, Note_on_c, 0, 70, 0
2, 120780, Note_on_c, 0, 73, 54
2, 120784, Note_on_c, 0, 75, 81
2, 120788, Note_on_c, 0, 79, 0
2, 120856, Note_on_c, 0, 73, 0
2, 120864, Note_on_c, 0, 75, 0
2, 120880, Note_on_c, 0, 78, 74
2, 120884, Note_on_c, 0, 69, 50
2, 120920, Note_on_c, 0, 69, 0
2, 120944, Note_on_c, 0, 78, 0
2, 120952, Note_on_c, 0, 74, 81
2, 120956, Note_on_c, 0, 72, 59
2, 121008, Note_on_c, 0, 72, 0
2, 121024, Note_on_c, 0, 74, 0
2, 121040, Note_on_c, 0, 68, 51
2, 121044, Note_on_c, 0, 77, 96
2, 121108, Note_on_c, 0, 68, 0
2, 121128, Note_on_c, 0, 77, 0
2, 121128, Note_on_c, 0, 73, 74
2, 121132, Note_on_c, 0, 70, 52
2, 121188, Note_on_c, 0, 70, 0
2, 121192, Note_on_c, 0, 73, 0
2, 121232, Note_on_c, 0, 67, 60
2, 121232, Note_on_c, 0, 77, 92
2, 121244, Control_c, 0, 64, 88
2, 121256, Note_on_c, 0, 73, 42
2, 121256, Control_c, 0, 64, 0
2, 121284, Note_on_c, 0, 70, 54
2, 121312, Note_on_c, 0, 77, 0
2, 121312, Control_c, 0, 64, 104
2, 121324, Control_c, 0, 64, 127
2, 121332, Note_on_c, 0, 73, 0
2, 121344, Note_on_c, 0, 70, 0
2, 121348, Note_on_c, 0, 75, 90
2, 121352, Note_on_c, 0, 67, 0
2, 121424, Note_on_c, 0, 75, 0
2, 121448, Note_on_c, 0, 73, 81
2, 121532, Note_on_c, 0, 73, 0
2, 121536, Note_on_c, 0, 70, 74
2, 121620, Note_on_c, 0, 70, 0
2, 121628, Note_on_c, 0, 67, 81
2, 121700, Note_on_c, 0, 67, 0
2, 121720, Note_on_c, 0, 62, 70
2, 121792, Note_on_c, 0, 62, 0
2, 121808, Note_on_c, 0, 63, 74
2, 121868, Control_c, 0, 64, 88
2, 121876, Control_c, 0, 64, 0
2, 121896, Note_on_c, 0, 67, 78
2, 121924, Control_c, 0, 64, 40
2, 121936, Control_c, 0, 64, 127
2, 121960, Note_on_c, 0, 67, 0
2, 121988, Note_on_c, 0, 63, 0
2, 121988, Note_on_c, 0, 70, 73
2, 122044, Note_on_c, 0, 70, 0
2, 122080, Note_on_c, 0, 73, 71
2, 122140, Note_on_c, 0, 73, 0
2, 122168, Note_on_c, 0, 74, 83
2, 122256, Note_on_c, 0, 77, 93
2, 122264, Note_on_c, 0, 74, 0
2, 122300, Note_on_c, 0, 77, 0
2, 122348, Note_on_c, 0, 75, 88
2, 122408, Note_on_c, 0, 75, 0
2, 122452, Note_on_c, 0, 79, 85
2, 122508, Note_on_c, 0, 79, 0
2, 122540, Note_on_c, 0, 82, 79
2, 122596, Note_on_c, 0, 82, 0
2, 122628, Note_on_c, 0, 85, 82
2, 122700, Note_on_c, 0, 85, 0
2, 122720, Note_on_c, 0, 86, 82
2, 122800, Note_on_c, 0, 89, 82
2, 122812, Note_on_c, 0, 86, 0
2, 122844, Note_on_c, 0, 89, 0
2, 122880, Note_on_c, 0, 87, 77
2, 122920, Note_on_c, 0, 87, 0
2, 122972, Note_on_c, 0, 91, 82
2, 123040, Note_on_c, 0, 91, 0
2, 123060, Note_on_c, 0, 94, 80
2, 123116, Note_on_c, 0, 94, 0
2, 123148, Note_on_c, 0, 97, 80
2, 123216, Note_on_c, 0, 97, 0
2, 123240, Note_on_c, 0, 98, 90
2, 123308, Note_on_c, 0, 98, 0
2, 123328, Note_on_c, 0, 101, 82
2, 123408, Note_on_c, 0, 101, 0
2, 123412, Note_on_c, 0, 99, 88
2, 123504, Note_on_c, 0, 96, 94
2, 123508, Note_on_c, 0, 99, 0
2, 123584, Note_on_c, 0, 96, 0
2, 123588, Note_on_c, 0, 97, 81
2, 123652, Note_on_c, 0, 97, 0
2, 123664, Note_on_c, 0, 93, 82
2, 123720, Note_on_c, 0, 93, 0
2, 123744, Note_on_c, 0, 94, 74
2, 123828, Note_on_c, 0, 94, 0
2, 123828, Note_on_c, 0, 90, 73
2, 123884, Note_on_c, 0, 90, 0
2, 123908, Note_on_c, 0, 91, 79
2, 123980, Note_on_c, 0, 91, 0
2, 123992, Note_on_c, 0, 86, 80
2, 124056, Note_on_c, 0, 86, 0
2, 124072, Note_on_c, 0, 87, 83
2, 124156, Note_on_c, 0, 87, 0
2, 124172, Note_on_c, 0, 84, 80
2, 124244, Note_on_c, 0, 84, 0
2, 124248, Note_on_c, 0, 85, 73
2, 124324, Note_on_c, 0, 85, 0
2, 124344, Note_on_c, 0, 81, 71
2, 124396, Note_on_c, 0, 81, 0
2, 124424, Note_on_c, 0, 82, 77
2, 124492, Note_on_c, 0, 82, 0
2, 124516, Note_on_c, 0, 78, 73
2, 124588, Note_on_c, 0, 78, 0
2, 124604, Note_on_c, 0, 79, 73
2, 124664, Note_on_c, 0, 79, 0
2, 124688, Note_on_c, 0, 74, 72
2, 124752, Note_on_c, 0, 74, 0
2, 124772, Note_on_c, 0, 75, 71
2, 124852, Note_on_c, 0, 75, 0
2, 124872, Note_on_c, 0, 72, 73
2, 124948, Note_on_c, 0, 72, 0
2, 124956, Note_on_c, 0, 73, 73
2, 125032, Note_on_c, 0, 73, 0
2, 125048, Note_on_c, 0, 69, 73
2, 125112, Note_on_c, 0, 69, 0
2, 125140, Note_on_c, 0, 70, 69
2, 125212, Note_on_c, 0, 70, 0
2, 125224, Note_on_c, 0, 66, 65
2, 125308, Note_on_c, 0, 66, 0
2, 125320, Note_on_c, 0, 67, 60
2, 125380, Note_on_c, 0, 67, 0
2, 125408, Note_on_c, 0, 62, 72
2, 125484, Control_c, 0, 64, 88
2, 125500, Note_on_c, 0, 63, 71
2, 125500, Control_c, 0, 64, 24
2, 125504, Note_on_c, 0, 62, 0
2, 125508, Control_c, 0, 64, 0
2, 125552, Control_c, 0, 64, 56
2, 125564, Control_c, 0, 64, 127
2, 125572, Note_on_c, 0, 63, 0
2, 125592, Note_on_c, 0, 64, 73
2, 125664, Note_on_c, 0, 64, 0
2, 125664, Control_c, 0, 64, 72
2, 125676, Control_c, 0, 64, 0
2, 125692, Note_on_c, 0, 63, 54
2, 125708, Control_c, 0, 64, 40
2, 125720, Control_c, 0, 64, 104
2, 125732, Control_c, 0, 64, 127
2, 125768, Note_on_c, 0, 63, 0
2, 125776, Note_on_c, 0, 65, 67
2, 125788, Control_c, 0, 64, 88
2, 125796, Control_c, 0, 64, 40
2, 125808, Control_c, 0, 64, 24
2, 125820, Control_c, 0, 64, 40
2, 125832, Control_c, 0, 64, 88
2, 125840, Control_c, 0, 64, 127
2, 125848, Note_on_c, 0, 65, 0
2, 125880, Note_on_c, 0, 63, 62
2, 125884, Control_c, 0, 64, 104
2, 125896, Control_c, 0, 64, 56
2, 125920, Control_c, 0, 64, 72
2, 125932, Control_c, 0, 64, 127
2, 125964, Note_on_c, 0, 63, 0
2, 125972, Note_on_c, 0, 66, 67
2, 125988, Control_c, 0, 64, 88
2, 125996, Control_c, 0, 64, 56
2, 126008, Control_c, 0, 64, 72
2, 126020, Control_c, 0, 64, 104
2, 126032, Control_c, 0, 64, 127
2, 126068, Note_on_c, 0, 66, 0
2, 126068, Note_on_c, 0, 63, 60
2, 126096, Control_c, 0, 64, 88
2, 126132, Control_c, 0, 64, 127
2, 126160, Note_on_c, 0, 63, 0
2, 126172, Note_on_c, 0, 67, 71
2, 126252, Note_on_c, 0, 67, 0
2, 126280, Note_on_c, 0, 63, 60
2, 126372, Note_on_c, 0, 63, 0
2, 126384, Control_c, 0, 64, 40
2, 126388, Note_on_c, 0, 68, 62
2, 126396, Control_c, 0, 64, 0
2, 126428, Control_c, 0, 64, 40
2, 126444, Control_c, 0, 64, 104
2, 126452, Control_c, 0, 64, 127
2, 126492, Note_on_c, 0, 68, 0
2, 126504, Note_on_c, 0, 63, 63
2, 126508, Control_c, 0, 64, 104
2, 126520, Control_c, 0, 64, 40
2, 126552, Control_c, 0, 64, 127
2, 126620, Note_on_c, 0, 63, 0
2, 126648, Note_on_c, 0, 69, 51
2, 126664, Control_c, 0, 64, 88
2, 126672, Control_c, 0, 64, 0
2, 126696, Control_c, 0, 64, 24
2, 126708, Control_c, 0, 64, 72
2, 126720, Control_c, 0, 64, 127
2, 126756, Note_on_c, 0, 69, 0
2, 126772, Note_on_c, 0, 63, 54
2, 126808, Control_c, 0, 64, 104
2, 126816, Control_c, 0, 64, 40
2, 126832, Control_c, 0, 64, 24
2, 126840, Control_c, 0, 64, 56
2, 126852, Control_c, 0, 64, 104
2, 126864, Control_c, 0, 64, 127
2, 126940, Note_on_c, 0, 63, 0
2, 126952, Note_on_c, 0, 70, 52
2, 126964, Control_c, 0, 64, 88
2, 126972, Control_c, 0, 64, 24
2, 126988, Control_c, 0, 64, 0
2, 127008, Control_c, 0, 64, 24
2, 127020, Control_c, 0, 64, 88
2, 127032, Control_c, 0, 64, 127
2, 127160, Note_on_c, 0, 70, 0
2, 127176, Note_on_c, 0, 63, 35
2, 127240, Control_c, 0, 64, 88
2, 127252, Control_c, 0, 64, 24
2, 127264, Control_c, 0, 64, 0
2, 127296, Control_c, 0, 64, 24
2, 127308, Control_c, 0, 64, 88
2, 127320, Control_c, 0, 64, 127
2, 127488, Note_on_c, 0, 63, 0
2, 127504, Note_on_c, 0, 71, 50
2, 127628, Control_c, 0, 64, 88
2, 127640, Control_c, 0, 64, 24
2, 127652, Control_c, 0, 64, 0
2, 127728, Control_c, 0, 64, 104
2, 127740, Control_c, 0, 64, 127
2, 127780, Note_on_c, 0, 71, 0
2, 128996, Note_on_c, 0, 63, 69
2, 129716, Note_on_c, 0, 72, 88
2, 129748, Note_on_c, 0, 63, 0
2, 129752, Note_on_c, 0, 44, 48
2, 129844, Control_c, 0, 64, 56
2, 129868, Control_c, 0, 64, 127
2, 129920, Note_on_c, 0, 44, 0
2, 130012, Note_on_c, 0, 60, 62
2, 130144, Note_on_c, 0, 60, 0
2, 130200, Note_on_c, 0, 63, 52
2, 130380, Note_on_c, 0, 72, 0
2, 130396, Note_on_c, 0, 63, 0
2, 130412, Note_on_c, 0, 68, 54
2, 130588, Note_on_c, 0, 75, 46
2, 130596, Note_on_c, 0, 84, 47
2, 130608, Note_on_c, 0, 80, 49
2, 130616, Note_on_c, 0, 63, 55
2, 130672, Note_on_c, 0, 68, 0
2, 130692, Note_on_c, 0, 75, 0
2, 130704, Note_on_c, 0, 84, 0
2, 130712, Note_on_c, 0, 80, 0
2, 130768, Note_on_c, 0, 63, 0
2, 130784, Note_on_c, 0, 60, 63
2, 130912, Note_on_c, 0, 60, 0
2, 130968, Note_on_c, 0, 72, 94
2, 130976, Note_on_c, 0, 75, 55
2, 130984, Note_on_c, 0, 84, 55
2, 130988, Note_on_c, 0, 80, 49
2, 131084, Note_on_c, 0, 84, 0
2, 131088, Note_on_c, 0, 75, 0
2, 131100, Note_on_c, 0, 80, 0
2, 131148, Note_on_c, 0, 60, 60
2, 131232, Note_on_c, 0, 72, 0
2, 131320, Note_on_c, 0, 63, 50
2, 131368, Note_on_c, 0, 60, 0
2, 131496, Note_on_c, 0, 63, 0
2, 131496, Note_on_c, 0, 68, 52
2, 131684, Note_on_c, 0, 63, 52
2, 131696, Note_on_c, 0, 68, 0
2, 131808, Note_on_c, 0, 63, 0
2, 131856, Note_on_c, 0, 60, 67
2, 132004, Note_on_c, 0, 60, 0
2, 132060, Control_c, 0, 64, 72
2, 132080, Control_c, 0, 64, 0
2, 132084, Note_on_c, 0, 72, 89
2, 132108, Note_on_c, 0, 43, 54
2, 132200, Control_c, 0, 64, 88
2, 132212, Note_on_c, 0, 43, 0
2, 132216, Control_c, 0, 64, 127
2, 132304, Note_on_c, 0, 60, 62
2, 132436, Note_on_c, 0, 60, 0
2, 132444, Note_on_c, 0, 72, 0
2, 132496, Note_on_c, 0, 64, 56
2, 132656, Note_on_c, 0, 64, 0
2, 132676, Note_on_c, 0, 70, 54
2, 132844, Note_on_c, 0, 70, 0
2, 132868, Note_on_c, 0, 64, 63
2, 132872, Note_on_c, 0, 76, 54
2, 132876, Note_on_c, 0, 82, 43
2, 132876, Note_on_c, 0, 84, 44
2, 132964, Note_on_c, 0, 76, 0
2, 132988, Note_on_c, 0, 84, 0
2, 132988, Note_on_c, 0, 82, 0
2, 133028, Note_on_c, 0, 64, 0
2, 133048, Note_on_c, 0, 60, 69
2, 133180, Note_on_c, 0, 60, 0
2, 133244, Note_on_c, 0, 76, 56
2, 133244, Note_on_c, 0, 84, 60
2, 133252, Note_on_c, 0, 82, 43
2, 133340, Note_on_c, 0, 84, 0
2, 133340, Note_on_c, 0, 76, 0
2, 133356, Note_on_c, 0, 82, 0
2, 133396, Note_on_c, 0, 60, 59
2, 133512, Note_on_c, 0, 60, 0
2, 133596, Note_on_c, 0, 64, 50
2, 133720, Note_on_c, 0, 64, 0
2, 133760, Note_on_c, 0, 70, 70
2, 133940, Note_on_c, 0, 70, 0
2, 133984, Note_on_c, 0, 72, 97
2, 134016, Note_on_c, 0, 64, 39
2, 134144, Note_on_c, 0, 64, 0
2, 134160, Note_on_c, 0, 60, 66
2, 134168, Note_on_c, 0, 72, 0
2, 134268, Note_on_c, 0, 60, 0
2, 134464, Note_on_c, 0, 72, 97
2, 134464, Note_on_c, 0, 41, 54
2, 134468, Control_c, 0, 64, 72
2, 134484, Control_c, 0, 64, 0
2, 134588, Control_c, 0, 64, 72
2, 134604, Control_c, 0, 64, 127
2, 134616, Note_on_c, 0, 41, 0
2, 134676, Note_on_c, 0, 63, 55
2, 134696, Note_on_c, 0, 72, 0
2, 134800, Note_on_c, 0, 63, 0
2, 134864, Note_on_c, 0, 65, 62
2, 135020, Note_on_c, 0, 65, 0
2, 135024, Note_on_c, 0, 69, 81
2, 135188, Note_on_c, 0, 69, 0
2, 135196, Note_on_c, 0, 84, 79
2, 135196, Note_on_c, 0, 72, 98
2, 135212, Note_on_c, 0, 81, 56
2, 135236, Note_on_c, 0, 75, 35
2, 135260, Note_on_c, 0, 81, 0
2, 135272, Note_on_c, 0, 75, 0
2, 135320, Note_on_c, 0, 84, 0
2, 135332, Note_on_c, 0, 72, 0
2, 135388, Note_on_c, 0, 63, 56
2, 135440, Note_on_c, 0, 75, 60
2, 135492, Note_on_c, 0, 81, 54
2, 135584, Note_on_c, 0, 63, 0
2, 135596, Note_on_c, 0, 85, 79
2, 135600, Note_on_c, 0, 73, 88
2, 135808, Note_on_c, 0, 63, 55
2, 135836, Note_on_c, 0, 73, 0
2, 135956, Note_on_c, 0, 63, 0
2, 135992, Note_on_c, 0, 81, 0
2, 136004, Note_on_c, 0, 85, 0
2, 136004, Note_on_c, 0, 65, 50
2, 136020, Note_on_c, 0, 75, 0
2, 136108, Note_on_c, 0, 65, 0
2, 136188, Note_on_c, 0, 69, 71
2, 136316, Note_on_c, 0, 69, 0
2, 136380, Note_on_c, 0, 72, 95
2, 136404, Note_on_c, 0, 65, 58
2, 136536, Note_on_c, 0, 72, 0
2, 136560, Note_on_c, 0, 65, 0
2, 136580, Note_on_c, 0, 63, 51
2, 136756, Note_on_c, 0, 63, 0
2, 136852, Control_c, 0, 64, 88
2, 136868, Control_c, 0, 64, 0
2, 136876, Note_on_c, 0, 72, 87
2, 136892, Note_on_c, 0, 34, 52
2, 136976, Control_c, 0, 64, 56
2, 136992, Note_on_c, 0, 72, 0
2, 136992, Control_c, 0, 64, 127
2, 137056, Note_on_c, 0, 34, 0
2, 137104, Note_on_c, 0, 56, 65
2, 137220, Note_on_c, 0, 56, 0
2, 137296, Note_on_c, 0, 62, 69
2, 137416, Note_on_c, 0, 62, 0
2, 137472, Note_on_c, 0, 65, 69
2, 137588, Note_on_c, 0, 74, 40
2, 137596, Note_on_c, 0, 77, 80
2, 137652, Note_on_c, 0, 65, 0
2, 137680, Note_on_c, 0, 62, 63
2, 137680, Note_on_c, 0, 84, 88
2, 137704, Note_on_c, 0, 74, 0
2, 137732, Note_on_c, 0, 77, 0
2, 137784, Note_on_c, 0, 62, 0
2, 137844, Note_on_c, 0, 56, 66
2, 137952, Note_on_c, 0, 84, 0
2, 138000, Note_on_c, 0, 56, 0
2, 138100, Note_on_c, 0, 65, 73
2, 138116, Note_on_c, 0, 77, 67
2, 138120, Note_on_c, 0, 74, 57
2, 138228, Note_on_c, 0, 74, 0
2, 138240, Note_on_c, 0, 77, 0
2, 138272, Note_on_c, 0, 65, 0
2, 138300, Note_on_c, 0, 56, 52
2, 138432, Note_on_c, 0, 56, 0
2, 138484, Note_on_c, 0, 58, 49
2, 138588, Note_on_c, 0, 58, 0
2, 138668, Note_on_c, 0, 62, 56
2, 138796, Note_on_c, 0, 62, 0
2, 138884, Note_on_c, 0, 65, 85
2, 138900, Note_on_c, 0, 58, 54
2, 139068, Note_on_c, 0, 58, 0
2, 139088, Note_on_c, 0, 65, 0
2, 139100, Note_on_c, 0, 56, 55
2, 139204, Note_on_c, 0, 56, 0
2, 139332, Note_on_c, 0, 65, 79
2, 139364, Note_on_c, 0, 51, 50
2, 139364, Note_on_c, 0, 39, 49
2, 139412, Control_c, 0, 64, 40
2, 139432, Control_c, 0, 64, 0
2, 139536, Note_on_c, 0, 58, 55
2, 139556, Control_c, 0, 64, 88
2, 139568, Note_on_c, 0, 65, 0
2, 139572, Control_c, 0, 64, 127
2, 139596, Note_on_c, 0, 39, 0
2, 139636, Note_on_c, 0, 51, 0
2, 139688, Note_on_c, 0, 58, 0
2, 139716, Note_on_c, 0, 67, 88
2, 139740, Note_on_c, 0, 61, 62
2, 139848, Note_on_c, 0, 67, 0
2, 139868, Note_on_c, 0, 61, 0
2, 139884, Note_on_c, 0, 58, 52
2, 140032, Note_on_c, 0, 58, 0
2, 140068, Note_on_c, 0, 70, 57
2, 140084, Note_on_c, 0, 68, 93
2, 140092, Note_on_c, 0, 73, 56
2, 140100, Note_on_c, 0, 80, 66
2, 140132, Note_on_c, 0, 73, 0
2, 140144, Note_on_c, 0, 70, 0
2, 140184, Note_on_c, 0, 80, 0
2, 140212, Note_on_c, 0, 68, 0
2, 140220, Note_on_c, 0, 58, 64
2, 140312, Note_on_c, 0, 58, 0
2, 140376, Note_on_c, 0, 73, 49
2, 140396, Note_on_c, 0, 75, 57
2, 140464, Note_on_c, 0, 79, 71
2, 140528, Note_on_c, 0, 84, 85
2, 140536, Note_on_c, 0, 72, 102
2, 140588, Control_c, 0, 64, 104
2, 140604, Control_c, 0, 64, 24
2, 140620, Control_c, 0, 64, 0
2, 140672, Control_c, 0, 64, 56
2, 140692, Control_c, 0, 64, 127
2, 140720, Note_on_c, 0, 61, 49
2, 140848, Note_on_c, 0, 72, 0
2, 140856, Note_on_c, 0, 61, 0
2, 140892, Note_on_c, 0, 63, 50
2, 141020, Note_on_c, 0, 63, 0
2, 141020, Note_on_c, 0, 84, 0
2, 141064, Note_on_c, 0, 67, 55
2, 141164, Note_on_c, 0, 67, 0
2, 141288, Note_on_c, 0, 70, 71
2, 141288, Note_on_c, 0, 82, 64
2, 141300, Note_on_c, 0, 63, 59
2, 141352, Note_on_c, 0, 79, 0
2, 141356, Note_on_c, 0, 82, 0
2, 141380, Note_on_c, 0, 75, 0
2, 141392, Note_on_c, 0, 73, 0
2, 141456, Note_on_c, 0, 63, 0
2, 141484, Note_on_c, 0, 61, 43
2, 141628, Note_on_c, 0, 70, 0
2, 141640, Note_on_c, 0, 61, 0
2, 141772, Note_on_c, 0, 68, 69
2, 141812, Note_on_c, 0, 44, 43
2, 141824, Note_on_c, 0, 32, 42
2, 141824, Control_c, 0, 64, 72
2, 141840, Control_c, 0, 64, 0
2, 141948, Control_c, 0, 64, 72
2, 141964, Control_c, 0, 64, 127
2, 141976, Note_on_c, 0, 32, 0
2, 141992, Note_on_c, 0, 60, 66
2, 142044, Note_on_c, 0, 44, 0
2, 142084, Note_on_c, 0, 68, 0
2, 142100, Note_on_c, 0, 60, 0
2, 142160, Note_on_c, 0, 63, 58
2, 142284, Note_on_c, 0, 63, 0
2, 142340, Note_on_c, 0, 65, 48
2, 142460, Note_on_c, 0, 65, 0
2, 142524, Note_on_c, 0, 63, 63
2, 142532, Note_on_c, 0, 80, 52
2, 142544, Note_on_c, 0, 72, 55
2, 142576, Note_on_c, 0, 75, 29
2, 142600, Note_on_c, 0, 72, 0
2, 142628, Note_on_c, 0, 75, 0
2, 142628, Note_on_c, 0, 80, 0
2, 142672, Note_on_c, 0, 63, 0
2, 142720, Note_on_c, 0, 60, 71
2, 142856, Note_on_c, 0, 60, 0
2, 142908, Note_on_c, 0, 80, 43
2, 142924, Note_on_c, 0, 56, 50
2, 142928, Note_on_c, 0, 72, 43
2, 142932, Note_on_c, 0, 75, 37
2, 142984, Note_on_c, 0, 72, 0
2, 143012, Note_on_c, 0, 56, 0
2, 143020, Note_on_c, 0, 80, 0
2, 143032, Note_on_c, 0, 75, 0
2, 143116, Note_on_c, 0, 60, 64
2, 143188, Note_on_c, 0, 60, 0
2, 143304, Note_on_c, 0, 63, 60
2, 143448, Note_on_c, 0, 63, 0
2, 143480, Note_on_c, 0, 65, 75
2, 143596, Note_on_c, 0, 65, 0
2, 143684, Note_on_c, 0, 63, 86
2, 143916, Note_on_c, 0, 63, 0
2, 143924, Note_on_c, 0, 68, 56
2, 144084, Note_on_c, 0, 44, 49
2, 144140, Control_c, 0, 64, 24
2, 144160, Control_c, 0, 64, 0
2, 144184, Note_on_c, 0, 44, 0
2, 144204, Note_on_c, 0, 68, 0
2, 144224, Note_on_c, 0, 72, 92
2, 144224, Note_on_c, 0, 51, 41
2, 144248, Control_c, 0, 64, 56
2, 144264, Control_c, 0, 64, 127
2, 144304, Note_on_c, 0, 60, 32
2, 144352, Note_on_c, 0, 51, 0
2, 144368, Note_on_c, 0, 60, 0
2, 144436, Note_on_c, 0, 62, 63
2, 144536, Note_on_c, 0, 62, 0
2, 144596, Note_on_c, 0, 72, 0
2, 144600, Note_on_c, 0, 63, 42
2, 144728, Note_on_c, 0, 63, 0
2, 144760, Note_on_c, 0, 68, 58
2, 144928, Note_on_c, 0, 68, 0
2, 144944, Note_on_c, 0, 63, 58
2, 144988, Note_on_c, 0, 80, 46
2, 144992, Note_on_c, 0, 84, 55
2, 144992, Note_on_c, 0, 75, 43
2, 145076, Note_on_c, 0, 84, 0
2, 145088, Note_on_c, 0, 63, 0
2, 145096, Note_on_c, 0, 80, 0
2, 145096, Note_on_c, 0, 75, 0
2, 145120, Note_on_c, 0, 60, 70
2, 145252, Note_on_c, 0, 60, 0
2, 145324, Note_on_c, 0, 72, 93
2, 145324, Note_on_c, 0, 75, 55
2, 145332, Note_on_c, 0, 84, 58
2, 145332, Note_on_c, 0, 80, 50
2, 145412, Note_on_c, 0, 84, 0
2, 145448, Note_on_c, 0, 80, 0
2, 145448, Note_on_c, 0, 75, 0
2, 145504, Note_on_c, 0, 60, 62
2, 145580, Note_on_c, 0, 72, 0
2, 145656, Note_on_c, 0, 60, 0
2, 145700, Note_on_c, 0, 63, 39
2, 145856, Note_on_c, 0, 63, 0
2, 145860, Note_on_c, 0, 68, 55
2, 146052, Note_on_c, 0, 63, 46
2, 146064, Note_on_c, 0, 68, 0
2, 146164, Note_on_c, 0, 63, 0
2, 146216, Note_on_c, 0, 60, 55
2, 146264, Note_on_c, 0, 43, 57
2, 146384, Note_on_c, 0, 60, 0
2, 146444, Control_c, 0, 64, 56
2, 146448, Note_on_c, 0, 52, 29
2, 146460, Control_c, 0, 64, 0
2, 146476, Note_on_c, 0, 72, 87
2, 146532, Note_on_c, 0, 58, 42
2, 146620, Control_c, 0, 64, 127
2, 146624, Note_on_c, 0, 43, 0
2, 146684, Note_on_c, 0, 52, 0
2, 146700, Note_on_c, 0, 60, 69
2, 146720, Note_on_c, 0, 58, 0
2, 146812, Note_on_c, 0, 60, 0
2, 146864, Note_on_c, 0, 72, 0
2, 146900, Note_on_c, 0, 64, 50
2, 147036, Note_on_c, 0, 64, 0
2, 147048, Note_on_c, 0, 70, 57
2, 147192, Note_on_c, 0, 70, 0
2, 147232, Note_on_c, 0, 64, 62
2, 147244, Note_on_c, 0, 84, 50
2, 147256, Note_on_c, 0, 82, 42
2, 147256, Note_on_c, 0, 76, 48
2, 147312, Note_on_c, 0, 76, 0
2, 147352, Note_on_c, 0, 84, 0
2, 147368, Note_on_c, 0, 82, 0
2, 147376, Note_on_c, 0, 64, 0
2, 147412, Note_on_c, 0, 60, 54
2, 147520, Note_on_c, 0, 60, 0
2, 147596, Note_on_c, 0, 84, 72
2, 147608, Note_on_c, 0, 76, 60
2, 147608, Note_on_c, 0, 82, 52
2, 147764, Note_on_c, 0, 60, 49
2, 147780, Note_on_c, 0, 76, 0
2, 147796, Note_on_c, 0, 84, 0
2, 147812, Note_on_c, 0, 82, 0
2, 147892, Note_on_c, 0, 60, 0
2, 147964, Note_on_c, 0, 64, 43
2, 148024, Note_on_c, 0, 64, 0
2, 148124, Note_on_c, 0, 70, 59
2, 148264, Note_on_c, 0, 70, 0
2, 148352, Note_on_c, 0, 72, 93
2, 148364, Note_on_c, 0, 64, 55
2, 148492, Note_on_c, 0, 64, 0
2, 148528, Note_on_c, 0, 72, 0
2, 148552, Note_on_c, 0, 60, 60
2, 148696, Note_on_c, 0, 41, 58
2, 148784, Note_on_c, 0, 60, 0
2, 148840, Note_on_c, 0, 72, 94
2, 148872, Note_on_c, 0, 57, 39
2, 148916, Control_c, 0, 64, 56
2, 148936, Control_c, 0, 64, 0
2, 149016, Note_on_c, 0, 60, 64
2, 149040, Control_c, 0, 64, 104
2, 149060, Control_c, 0, 64, 127
2, 149068, Note_on_c, 0, 72, 0
2, 149152, Note_on_c, 0, 60, 0
2, 149204, Note_on_c, 0, 65, 65
2, 149292, Note_on_c, 0, 65, 0
2, 149364, Note_on_c, 0, 57, 0
2, 149388, Note_on_c, 0, 41, 0
2, 149388, Note_on_c, 0, 69, 67
2, 149460, Note_on_c, 0, 69, 0
2, 149596, Note_on_c, 0, 72, 103
2, 149756, Note_on_c, 0, 72, 0
2, 149760, Note_on_c, 0, 60, 78
2, 149864, Note_on_c, 0, 60, 0
2, 149952, Note_on_c, 0, 39, 60
2, 149980, Control_c, 0, 64, 72
2, 149996, Note_on_c, 0, 73, 97
2, 149996, Control_c, 0, 64, 0
2, 150056, Note_on_c, 0, 39, 0
2, 150084, Control_c, 0, 64, 88
2, 150104, Control_c, 0, 64, 127
2, 150172, Note_on_c, 0, 57, 62
2, 150188, Note_on_c, 0, 60, 71
2, 150208, Note_on_c, 0, 73, 0
2, 150256, Note_on_c, 0, 57, 0
2, 150304, Note_on_c, 0, 60, 0
2, 150364, Note_on_c, 0, 66, 73
2, 150496, Note_on_c, 0, 66, 0
2, 150544, Note_on_c, 0, 69, 77
2, 150724, Note_on_c, 0, 69, 0
2, 150768, Note_on_c, 0, 72, 102
2, 150784, Note_on_c, 0, 66, 62
2, 150900, Note_on_c, 0, 66, 0
2, 150920, Note_on_c, 0, 60, 74
2, 151008, Note_on_c, 0, 60, 0
2, 151048, Note_on_c, 0, 72, 0
2, 151108, Note_on_c, 0, 38, 57
2, 151380, Note_on_c, 0, 77, 97
2, 151380, Note_on_c, 0, 53, 54
2, 151408, Control_c, 0, 64, 40
2, 151428, Control_c, 0, 64, 0
2, 151568, Control_c, 0, 64, 104
2, 151584, Control_c, 0, 64, 127
2, 151588, Note_on_c, 0, 38, 0
2, 151620, Note_on_c, 0, 65, 55
2, 151644, Note_on_c, 0, 53, 0
2, 151792, Note_on_c, 0, 68, 62
2, 151876, Note_on_c, 0, 65, 0
2, 151944, Note_on_c, 0, 68, 0
2, 151964, Note_on_c, 0, 72, 75
2, 152104, Note_on_c, 0, 72, 0
2, 152140, Note_on_c, 0, 89, 77
2, 152148, Note_on_c, 0, 84, 63
2, 152168, Note_on_c, 0, 68, 48
2, 152168, Note_on_c, 0, 80, 39
2, 152248, Note_on_c, 0, 84, 0
2, 152264, Note_on_c, 0, 89, 0
2, 152288, Note_on_c, 0, 80, 0
2, 152320, Note_on_c, 0, 68, 0
2, 152352, Note_on_c, 0, 65, 58
2, 152480, Note_on_c, 0, 65, 0
2, 152540, Note_on_c, 0, 89, 70
2, 152548, Note_on_c, 0, 80, 49
2, 152556, Note_on_c, 0, 83, 64
2, 152668, Note_on_c, 0, 77, 0
2, 152728, Note_on_c, 0, 89, 0
2, 152740, Note_on_c, 0, 65, 54
2, 152776, Note_on_c, 0, 83, 0
2, 152800, Note_on_c, 0, 80, 0
2, 152868, Note_on_c, 0, 65, 0
2, 152924, Note_on_c, 0, 68, 49
2, 153060, Note_on_c, 0, 68, 0
2, 153136, Note_on_c, 0, 71, 43
2, 153296, Note_on_c, 0, 68, 50
2, 153332, Note_on_c, 0, 71, 0
2, 153452, Note_on_c, 0, 68, 0
2, 153472, Note_on_c, 0, 65, 47
2, 153536, Note_on_c, 0, 65, 0
2, 153612, Note_on_c, 0, 37, 52
2, 153620, Control_c, 0, 64, 104
2, 153644, Control_c, 0, 64, 0
2, 153712, Control_c, 0, 64, 40
2, 153720, Note_on_c, 0, 37, 0
2, 153728, Control_c, 0, 64, 127
2, 153752, Note_on_c, 0, 52, 54
2, 153836, Note_on_c, 0, 52, 0
2, 153896, Note_on_c, 0, 58, 55
2, 154020, Note_on_c, 0, 58, 0
2, 154112, Note_on_c, 0, 64, 42
2, 154196, Note_on_c, 0, 64, 0
2, 154260, Note_on_c, 0, 68, 58
2, 154444, Note_on_c, 0, 64, 56
2, 154448, Note_on_c, 0, 68, 0
2, 154456, Note_on_c, 0, 82, 52
2, 154608, Note_on_c, 0, 58, 62
2, 154612, Note_on_c, 0, 82, 0
2, 154724, Note_on_c, 0, 64, 0
2, 154788, Note_on_c, 0, 58, 0
2, 154820, Note_on_c, 0, 70, 88
2, 154848, Note_on_c, 0, 82, 49
2, 154864, Note_on_c, 0, 79, 63
2, 154868, Note_on_c, 0, 76, 52
2, 155024, Note_on_c, 0, 58, 54
2, 155068, Note_on_c, 0, 79, 0
2, 155072, Note_on_c, 0, 82, 0
2, 155100, Note_on_c, 0, 76, 0
2, 155192, Note_on_c, 0, 58, 0
2, 155232, Note_on_c, 0, 64, 67
2, 155364, Note_on_c, 0, 64, 0
2, 155424, Note_on_c, 0, 67, 50
2, 155612, Note_on_c, 0, 64, 56
2, 155652, Note_on_c, 0, 67, 0
2, 155764, Note_on_c, 0, 64, 0
2, 155780, Note_on_c, 0, 58, 49
2, 155812, Note_on_c, 0, 70, 0
2, 155860, Note_on_c, 0, 58, 0
2, 155920, Note_on_c, 0, 36, 42
2, 156136, Note_on_c, 0, 75, 90
2, 156160, Note_on_c, 0, 51, 50
2, 156204, Control_c, 0, 64, 40
2, 156220, Control_c, 0, 64, 0
2, 156296, Note_on_c, 0, 36, 0
2, 156324, Control_c, 0, 64, 56
2, 156340, Control_c, 0, 64, 127
2, 156344, Note_on_c, 0, 63, 51
2, 156392, Note_on_c, 0, 51, 0
2, 156468, Note_on_c, 0, 63, 0
2, 156536, Note_on_c, 0, 66, 49
2, 156644, Note_on_c, 0, 66, 0
2, 156696, Note_on_c, 0, 70, 63
2, 156812, Note_on_c, 0, 70, 0
2, 156900, Note_on_c, 0, 66, 52
2, 156916, Note_on_c, 0, 87, 51
2, 156924, Note_on_c, 0, 82, 46
2, 156924, Note_on_c, 0, 78, 42
2, 157024, Note_on_c, 0, 78, 0
2, 157028, Note_on_c, 0, 87, 0
2, 157056, Note_on_c, 0, 66, 0
2, 157064, Note_on_c, 0, 82, 0
2, 157076, Note_on_c, 0, 63, 57
2, 157216, Note_on_c, 0, 63, 0
2, 157280, Note_on_c, 0, 87, 51
2, 157300, Note_on_c, 0, 78, 36
2, 157316, Note_on_c, 0, 81, 44
2, 157460, Note_on_c, 0, 63, 39
2, 157476, Note_on_c, 0, 87, 0
2, 157500, Note_on_c, 0, 81, 0
2, 157516, Note_on_c, 0, 78, 0
2, 157616, Note_on_c, 0, 75, 0
2, 157640, Note_on_c, 0, 66, 54
2, 157664, Note_on_c, 0, 63, 0
2, 157776, Note_on_c, 0, 66, 0
2, 157828, Note_on_c, 0, 69, 51
2, 157996, Note_on_c, 0, 66, 52
2, 158044, Note_on_c, 0, 69, 0
2, 158164, Note_on_c, 0, 66, 0
2, 158164, Note_on_c, 0, 63, 48
2, 158260, Note_on_c, 0, 63, 0
2, 158288, Note_on_c, 0, 35, 54
2, 158424, Note_on_c, 0, 50, 58
2, 158452, Control_c, 0, 64, 88
2, 158468, Control_c, 0, 64, 0
2, 158572, Note_on_c, 0, 35, 0
2, 158572, Control_c, 0, 64, 127
2, 158580, Note_on_c, 0, 50, 0
2, 158584, Note_on_c, 0, 56, 60
2, 158720, Note_on_c, 0, 56, 0
2, 158808, Note_on_c, 0, 62, 47
2, 158896, Note_on_c, 0, 62, 0
2, 158964, Note_on_c, 0, 66, 62
2, 159176, Note_on_c, 0, 78, 43
2, 159180, Note_on_c, 0, 66, 0
2, 159180, Note_on_c, 0, 80, 40
2, 159188, Note_on_c, 0, 62, 50
2, 159268, Note_on_c, 0, 80, 0
2, 159296, Note_on_c, 0, 78, 0
2, 159320, Note_on_c, 0, 62, 0
2, 159352, Note_on_c, 0, 56, 62
2, 159508, Note_on_c, 0, 56, 0
2, 159572, Note_on_c, 0, 68, 71
2, 159584, Note_on_c, 0, 80, 37
2, 159608, Note_on_c, 0, 77, 51
2, 159608, Note_on_c, 0, 74, 46
2, 159792, Note_on_c, 0, 56, 56
2, 159916, Note_on_c, 0, 77, 0
2, 159916, Note_on_c, 0, 80, 0
2, 159944, Note_on_c, 0, 74, 0
2, 159972, Note_on_c, 0, 56, 0
2, 160008, Note_on_c, 0, 62, 52
2, 160156, Note_on_c, 0, 62, 0
2, 160208, Note_on_c, 0, 65, 55
2, 160404, Note_on_c, 0, 62, 46
2, 160420, Note_on_c, 0, 65, 0
2, 160568, Note_on_c, 0, 56, 52
2, 160588, Note_on_c, 0, 62, 0
2, 160656, Note_on_c, 0, 56, 0
2, 160692, Note_on_c, 0, 68, 0
2, 160916, Note_on_c, 0, 73, 77
2, 160944, Note_on_c, 0, 49, 49
2, 160948, Note_on_c, 0, 34, 54
2, 161028, Control_c, 0, 64, 40
2, 161048, Control_c, 0, 64, 0
2, 161136, Note_on_c, 0, 61, 62
2, 161168, Control_c, 0, 64, 127
2, 161176, Note_on_c, 0, 34, 0
2, 161240, Note_on_c, 0, 49, 0
2, 161264, Note_on_c, 0, 61, 0
2, 161340, Note_on_c, 0, 65, 59
2, 161448, Note_on_c, 0, 65, 0
2, 161520, Note_on_c, 0, 68, 56
2, 161640, Note_on_c, 0, 68, 0
2, 161732, Note_on_c, 0, 65, 51
2, 161740, Note_on_c, 0, 85, 60
2, 161764, Note_on_c, 0, 80, 48
2, 161764, Note_on_c, 0, 77, 46
2, 161848, Note_on_c, 0, 77, 0
2, 161880, Note_on_c, 0, 85, 0
2, 161880, Note_on_c, 0, 65, 0
2, 161884, Note_on_c, 0, 80, 0
2, 161936, Note_on_c, 0, 61, 57
2, 162084, Note_on_c, 0, 61, 0
2, 162184, Note_on_c, 0, 85, 51
2, 162200, Note_on_c, 0, 76, 60
2, 162204, Note_on_c, 0, 80, 52
2, 162300, Control_c, 0, 64, 56
2, 162320, Control_c, 0, 64, 0
2, 162352, Control_c, 0, 64, 24
2, 162368, Control_c, 0, 64, 72
2, 162392, Control_c, 0, 64, 127
2, 162404, Note_on_c, 0, 61, 44
2, 162524, Note_on_c, 0, 76, 0
2, 162560, Note_on_c, 0, 80, 0
2, 162568, Note_on_c, 0, 85, 0
2, 162592, Note_on_c, 0, 61, 0
2, 162620, Note_on_c, 0, 64, 49
2, 162624, Note_on_c, 0, 73, 0
2, 162668, Note_on_c, 0, 64, 0
2, 162800, Note_on_c, 0, 68, 63
2, 162920, Note_on_c, 0, 68, 0
2, 163056, Note_on_c, 0, 72, 83
2, 163088, Note_on_c, 0, 64, 57
2, 163264, Note_on_c, 0, 72, 0
2, 163288, Note_on_c, 0, 64, 0
2, 163300, Note_on_c, 0, 61, 43
2, 163564, Note_on_c, 0, 61, 0
2, 163660, Note_on_c, 0, 72, 88
2, 163672, Note_on_c, 0, 39, 37
2, 163780, Control_c, 0, 64, 104
2, 163800, Control_c, 0, 64, 0
2, 163892, Note_on_c, 0, 61, 52
2, 163920, Control_c, 0, 64, 72
2, 163940, Control_c, 0, 64, 127
2, 164016, Note_on_c, 0, 72, 0
2, 164080, Note_on_c, 0, 61, 0
2, 164100, Note_on_c, 0, 64, 48
2, 164236, Note_on_c, 0, 64, 0
2, 164280, Note_on_c, 0, 67, 55
2, 164412, Note_on_c, 0, 67, 0
2, 164472, Note_on_c, 0, 70, 83
2, 164504, Note_on_c, 0, 64, 67
2, 164608, Note_on_c, 0, 39, 0
2, 164636, Note_on_c, 0, 64, 0
2, 164684, Note_on_c, 0, 61, 49
2, 164692, Note_on_c, 0, 70, 0
2, 164840, Note_on_c, 0, 61, 0
2, 164932, Note_on_c, 0, 72, 87
2, 164980, Note_on_c, 0, 55, 50
2, 165108, Control_c, 0, 64, 104
2, 165124, Control_c, 0, 64, 0
2, 165140, Note_on_c, 0, 61, 56
2, 165228, Control_c, 0, 64, 127
2, 165272, Note_on_c, 0, 72, 0
2, 165324, Note_on_c, 0, 63, 54
2, 165348, Note_on_c, 0, 61, 0
2, 165484, Note_on_c, 0, 63, 0
2, 165528, Note_on_c, 0, 67, 52
2, 165652, Note_on_c, 0, 67, 0
2, 165764, Note_on_c, 0, 63, 55
2, 165768, Note_on_c, 0, 70, 72
2, 165912, Note_on_c, 0, 55, 0
2, 165984, Note_on_c, 0, 63, 0
2, 165984, Note_on_c, 0, 61, 46
2, 166084, Note_on_c, 0, 61, 0
2, 166172, Note_on_c, 0, 70, 0
2, 166184, Note_on_c, 0, 60, 44
2, 166304, Note_on_c, 0, 63, 48
2, 166448, Note_on_c, 0, 68, 74
2, 166536, Control_c, 0, 64, 88
2, 166552, Control_c, 0, 64, 0
2, 166724, Control_c, 0, 64, 104
2, 166744, Control_c, 0, 64, 127
2, 166772, Note_on_c, 0, 32, 48
2, 167040, Note_on_c, 0, 44, 50
2, 167052, Note_on_c, 0, 32, 0
2, 167112, Note_on_c, 0, 44, 0
2, 167204, Note_on_c, 0, 60, 0
2, 167280, Note_on_c, 0, 51, 60
2, 167496, Note_on_c, 0, 56, 59
2, 167508, Note_on_c, 0, 68, 0
2, 167536, Note_on_c, 0, 63, 0
2, 167572, Note_on_c, 0, 51, 0
2, 167580, Note_on_c, 0, 56, 0
2, 167700, Note_on_c, 0, 60, 62
2, 167896, Note_on_c, 0, 63, 57
2, 167932, Note_on_c, 0, 60, 0
2, 168096, Note_on_c, 0, 68, 67
2, 168100, Note_on_c, 0, 63, 0
2, 168184, Note_on_c, 0, 68, 0
2, 168328, Note_on_c, 0, 72, 82
2, 168504, Note_on_c, 0, 72, 0
2, 168536, Note_on_c, 0, 75, 80
2, 168744, Note_on_c, 0, 75, 0
2, 168772, Note_on_c, 0, 80, 82
2, 169012, Note_on_c, 0, 80, 0
2, 169036, Note_on_c, 0, 82, 83
2, 169212, Note_on_c, 0, 82, 0
2, 169436, Note_on_c, 0, 84, 86
2, 169460, Note_on_c, 0, 75, 44
2, 169464, Note_on_c, 0, 68, 44
2, 169472, Note_on_c, 0, 72, 44
2, 169620, Control_c, 0, 64, 88
2, 169640, Control_c, 0, 64, 0
2, 169760, Control_c, 0, 64, 56
2, 169776, Control_c, 0, 64, 127
2, 169952, Note_on_c, 0, 84, 0
2, 169960, Note_on_c, 0, 72, 0
2, 169976, Note_on_c, 0, 75, 0
2, 169984, Note_on_c, 0, 68, 0
2, 170356, Note_on_c, 0, 84, 81
2, 170376, Note_on_c, 0, 70, 50
2, 170384, Note_on_c, 0, 76, 55
2, 170396, Note_on_c, 0, 67, 46
2, 170408, Control_c, 0, 64, 104
2, 170424, Control_c, 0, 64, 24
2, 170440, Control_c, 0, 64, 0
2, 170528, Control_c, 0, 64, 104
2, 170544, Control_c, 0, 64, 127
2, 170552, Note_on_c, 0, 76, 0
2, 170576, Note_on_c, 0, 67, 0
2, 170580, Note_on_c, 0, 70, 0
2, 170612, Note_on_c, 0, 84, 0
2, 170816, Note_on_c, 0, 84, 93
2, 170840, Note_on_c, 0, 77, 66
2, 170844, Note_on_c, 0, 65, 47
2, 170844, Note_on_c, 0, 69, 46
2, 170876, Control_c, 0, 64, 88
2, 170892, Control_c, 0, 64, 0
2, 170936, Note_on_c, 0, 77, 0
2, 170944, Control_c, 0, 64, 40
2, 170956, Note_on_c, 0, 65, 0
2, 170964, Control_c, 0, 64, 104
2, 170980, Control_c, 0, 64, 127
2, 171004, Note_on_c, 0, 84, 0
2, 171004, Note_on_c, 0, 69, 0
2, 171252, Note_on_c, 0, 85, 96
2, 171272, Note_on_c, 0, 78, 63
2, 171288, Note_on_c, 0, 63, 52
2, 171292, Note_on_c, 0, 69, 52
2, 171312, Control_c, 0, 64, 24
2, 171328, Control_c, 0, 64, 0
2, 171416, Control_c, 0, 64, 88
2, 171428, Control_c, 0, 64, 127
2, 171468, Note_on_c, 0, 69, 0
2, 171488, Note_on_c, 0, 63, 0
2, 171504, Note_on_c, 0, 85, 0
2, 171540, Note_on_c, 0, 78, 0
2, 171732, Note_on_c, 0, 84, 89
2, 171752, Note_on_c, 0, 78, 56
2, 171752, Note_on_c, 0, 69, 50
2, 171764, Note_on_c, 0, 63, 42
2, 171800, Control_c, 0, 64, 72
2, 171816, Control_c, 0, 64, 0
2, 171868, Control_c, 0, 64, 40
2, 171884, Control_c, 0, 64, 127
2, 171900, Note_on_c, 0, 78, 0
2, 171912, Note_on_c, 0, 69, 0
2, 171924, Note_on_c, 0, 63, 0
2, 171952, Note_on_c, 0, 84, 0
2, 172420, Note_on_c, 0, 89, 78
2, 172436, Note_on_c, 0, 80, 48
2, 172444, Note_on_c, 0, 71, 36
2, 172448, Note_on_c, 0, 62, 39
2, 172584, Control_c, 0, 64, 72
2, 172600, Control_c, 0, 64, 0
2, 172808, Control_c, 0, 64, 104
2, 172824, Control_c, 0, 64, 127
2, 172952, Note_on_c, 0, 62, 0
2, 172988, Note_on_c, 0, 71, 0
2, 173024, Note_on_c, 0, 80, 0
2, 173024, Note_on_c, 0, 89, 0
2, 174596, Note_on_c, 0, 82, 60
2, 174620, Note_on_c, 0, 73, 39
2, 174632, Note_on_c, 0, 66, 36
2, 174636, Note_on_c, 0, 70, 31
2, 174676, Control_c, 0, 64, 56
2, 174692, Control_c, 0, 64, 0
2, 174884, Control_c, 0, 64, 88
2, 174900, Control_c, 0, 64, 127
2, 175048, Note_on_c, 0, 70, 0
2, 175048, Note_on_c, 0, 66, 0
2, 175076, Note_on_c, 0, 73, 0
2, 175108, Note_on_c, 0, 82, 0
2, 175480, Note_on_c, 0, 82, 73
2, 175508, Note_on_c, 0, 74, 66
2, 175512, Note_on_c, 0, 68, 32
2, 175532, Note_on_c, 0, 64, 52
2, 175548, Control_c, 0, 64, 72
2, 175564, Control_c, 0, 64, 0
2, 175616, Note_on_c, 0, 74, 0
2, 175648, Control_c, 0, 64, 56
2, 175664, Control_c, 0, 64, 127
2, 175688, Note_on_c, 0, 64, 0
2, 175716, Note_on_c, 0, 82, 0
2, 175752, Note_on_c, 0, 68, 0
2, 175928, Note_on_c, 0, 82, 83
2, 175948, Note_on_c, 0, 75, 70
2, 175956, Note_on_c, 0, 63, 44
2, 175956, Note_on_c, 0, 67, 50
2, 175964, Control_c, 0, 64, 88
2, 175980, Control_c, 0, 64, 24
2, 176000, Control_c, 0, 64, 0
2, 176048, Control_c, 0, 64, 24
2, 176068, Control_c, 0, 64, 88
2, 176084, Control_c, 0, 64, 127
2, 176088, Note_on_c, 0, 75, 0
2, 176108, Note_on_c, 0, 67, 0
2, 176120, Note_on_c, 0, 63, 0
2, 176140, Note_on_c, 0, 82, 0
2, 176328, Note_on_c, 0, 84, 98
2, 176348, Note_on_c, 0, 61, 55
2, 176356, Note_on_c, 0, 76, 71
2, 176356, Note_on_c, 0, 67, 56
2, 176364, Control_c, 0, 64, 104
2, 176384, Control_c, 0, 64, 0
2, 176452, Control_c, 0, 64, 24
2, 176468, Control_c, 0, 64, 104
2, 176484, Control_c, 0, 64, 127
2, 176496, Note_on_c, 0, 67, 0
2, 176508, Note_on_c, 0, 76, 0
2, 176520, Note_on_c, 0, 61, 0
2, 176564, Note_on_c, 0, 84, 0
2, 176828, Note_on_c, 0, 82, 79
2, 176860, Note_on_c, 0, 61, 37
2, 176864, Note_on_c, 0, 76, 50
2, 176872, Note_on_c, 0, 67, 46
2, 176888, Control_c, 0, 64, 88
2, 176900, Control_c, 0, 64, 0
2, 176940, Control_c, 0, 64, 24
2, 176956, Control_c, 0, 64, 72
2, 176972, Control_c, 0, 64, 127
2, 177000, Note_on_c, 0, 76, 0
2, 177016, Note_on_c, 0, 61, 0
2, 177088, Note_on_c, 0, 67, 0
2, 177108, Note_on_c, 0, 82, 0
2, 177556, Note_on_c, 0, 87, 74
2, 177584, Note_on_c, 0, 78, 40
2, 177596, Note_on_c, 0, 69, 49
2, 177608, Note_on_c, 0, 60, 47
2, 177740, Control_c, 0, 64, 88
2, 177756, Control_c, 0, 64, 0
2, 177964, Control_c, 0, 64, 56
2, 177988, Control_c, 0, 64, 104
2, 178004, Control_c, 0, 64, 127
2, 178592, Note_on_c, 0, 60, 0
2, 178608, Note_on_c, 0, 69, 0
2, 178676, Note_on_c, 0, 78, 0
2, 178680, Note_on_c, 0, 87, 0
2, 179656, Control_c, 0, 64, 72
2, 179672, Control_c, 0, 64, 0
2, 179744, Control_c, 0, 64, 56
2, 179760, Note_on_c, 0, 37, 48
2, 179764, Control_c, 0, 64, 127
2, 179852, Note_on_c, 0, 37, 0
2, 180000, Note_on_c, 0, 57, 55
2, 180084, Note_on_c, 0, 57, 0
2, 180168, Note_on_c, 0, 61, 57
2, 180340, Note_on_c, 0, 64, 80
2, 180376, Note_on_c, 0, 61, 0
2, 180680, Note_on_c, 0, 61, 1
2, 180680, Note_on_c, 0, 73, 86
2, 181724, Note_on_c, 0, 73, 0
2, 181732, Note_on_c, 0, 61, 0
2, 181736, Note_on_c, 0, 64, 0
2, 182360, Control_c, 0, 64, 72
2, 182376, Control_c, 0, 64, 0
2, 182412, Note_on_c, 0, 39, 46
2, 182428, Control_c, 0, 64, 40
2, 182444, Control_c, 0, 64, 127
2, 182516, Note_on_c, 0, 39, 0
2, 182640, Note_on_c, 0, 56, 52
2, 182796, Note_on_c, 0, 61, 57
2, 182924, Note_on_c, 0, 65, 72
2, 183136, Note_on_c, 0, 70, 85
2, 183936, Note_on_c, 0, 65, 0
2, 184184, Note_on_c, 0, 56, 0
2, 184328, Note_on_c, 0, 55, 37
2, 184468, Control_c, 0, 64, 104
2, 184484, Control_c, 0, 64, 40
2, 184504, Control_c, 0, 64, 0
2, 184572, Control_c, 0, 64, 56
2, 184588, Control_c, 0, 64, 127
2, 184772, Note_on_c, 0, 70, 0
2, 184780, Note_on_c, 0, 63, 51
2, 185012, Note_on_c, 0, 61, 0
2, 185340, Note_on_c, 0, 72, 75
2, 185592, Note_on_c, 0, 72, 0
2, 185644, Note_on_c, 0, 55, 0
2, 185820, Note_on_c, 0, 63, 0
2, 186132, Note_on_c, 0, 68, 64
2, 186156, Note_on_c, 0, 60, 48
2, 186160, Note_on_c, 0, 44, 36
2, 186164, Note_on_c, 0, 51, 37
2, 186292, Control_c, 0, 64, 104
2, 186308, Control_c, 0, 64, 24
2, 186328, Control_c, 0, 64, 0
2, 186520, Control_c, 0, 64, 24
2, 186540, Control_c, 0, 64, 88
2, 186556, Control_c, 0, 64, 127
2, 187528, Note_on_c, 0, 51, 0
2, 187676, Note_on_c, 0, 60, 0
2, 187720, Note_on_c, 0, 59, 48
2, 187776, Note_on_c, 0, 50, 31
2, 188092, Note_on_c, 0, 59, 0
2, 188180, Note_on_c, 0, 50, 0
2, 188188, Note_on_c, 0, 60, 66
2, 188228, Note_on_c, 0, 51, 49
2, 188260, Note_on_c, 0, 44, 0
2, 188456, Note_on_c, 0, 51, 0
2, 188544, Note_on_c, 0, 44, 34
2, 188640, Note_on_c, 0, 68, 0
2, 188688, Note_on_c, 0, 55, 44
2, 188748, Note_on_c, 0, 60, 0
2, 188800, Control_c, 0, 64, 24
2, 188816, Note_on_c, 0, 56, 50
2, 188816, Control_c, 0, 64, 40
2, 188836, Control_c, 0, 64, 72
2, 188852, Control_c, 0, 64, 88
2, 188872, Control_c, 0, 64, 104
2, 188888, Control_c, 0, 64, 127
2, 188972, Note_on_c, 0, 63, 66
2, 189144, Note_on_c, 0, 68, 73
2, 189864, Note_on_c, 0, 63, 0
2, 189880, Note_on_c, 0, 55, 0
2, 189932, Note_on_c, 0, 61, 56
2, 189952, Note_on_c, 0, 53, 40
2, 190120, Control_c, 0, 64, 104
2, 190136, Control_c, 0, 64, 72
2, 190156, Control_c, 0, 64, 40
2, 190172, Control_c, 0, 64, 0
2, 190376, Control_c, 0, 64, 40
2, 190392, Control_c, 0, 64, 72
2, 190412, Control_c, 0, 64, 127
2, 190672, Note_on_c, 0, 61, 0
2, 191036, Note_on_c, 0, 53, 0
2, 191208, Note_on_c, 0, 60, 55
2, 191220, Note_on_c, 0, 51, 33
2, 191416, Note_on_c, 0, 51, 0
2, 191416, Note_on_c, 0, 60, 0
2, 191440, Note_on_c, 0, 44, 0
2, 191908, Note_on_c, 0, 60, 46
2, 191944, Note_on_c, 0, 32, 33
2, 192016, Control_c, 0, 64, 104
2, 192040, Control_c, 0, 64, 56
2, 192056, Control_c, 0, 64, 0
2, 192200, Control_c, 0, 64, 56
2, 192216, Control_c, 0, 64, 127
2, 192376, Note_on_c, 0, 32, 0
2, 192416, Note_on_c, 0, 44, 37
2, 192456, Note_on_c, 0, 56, 0
2, 192616, Note_on_c, 0, 44, 0
2, 192736, Note_on_c, 0, 51, 40
2, 192840, Note_on_c, 0, 60, 0
2, 193084, Note_on_c, 0, 56, 32
2, 193124, Note_on_c, 0, 68, 0
2, 193216, Note_on_c, 0, 51, 0
2, 193280, Note_on_c, 0, 56, 0
2, 193460, Note_on_c, 0, 60, 44
2, 193984, Note_on_c, 0, 60, 0
2, 194056, Note_on_c, 0, 68, 49
2, 194652, Note_on_c, 0, 68, 0
2, 195600, Control_c, 0, 64, 104
2, 195616, Control_c, 0, 64, 72
2, 195636, Control_c, 0, 64, 40
2, 195652, Control_c, 0, 64, 24
2, 195672, Control_c, 0, 64, 0
2, 196740, Control_c, 0, 64, 104
2, 196764, Control_c, 0, 64, 88
2, 196800, Control_c, 0, 64, 72
2, 196816, Control_c, 0, 64, 56
2, 196836, Control_c, 0, 64, 40
2, 196852, Control_c, 0, 64, 24
2, 196872, Control_c, 0, 64, 0
2, 196872, End_track
3, 0, Start_track
3, 0, Title_t, "Franz Liszt"
3, 0, End_track
4, 0, Start_track
4, 0, Title_t, "Robert Finley, Piano"
4, 0, End_track
0, 0, End_of_file
