0, 0, Header, 1, 4, 120
1, 0, Start_track
1, 0, Sequencer_specific, 3, 0, 0, 65
1, 0, Time_signature, 4, 2, 24, 8
1, 0, Key_signature, 0, "major"
1, 0, Tempo, 483871
1, 12058, Tempo, 500000
1, 15470, Tempo, 521739
1, 18560, Tempo, 480000
1, 22855, Tempo, 387097
1, 23467, Tempo, 480000
1, 27680, Tempo, 500000
1, 32081, Tempo, 521739
1, 41076, Tempo, 500000
1, 51755, Tempo, 458015
1, 62631, Tempo, 389610
1, 66485, Tempo, 458015
1, 66491, Tempo, 451128
1, 77760, Tempo, 480000
1, 79178, Tempo, 461538
1, 98726, Tempo, 500000
1, 102661, Tempo, 521739
1, 107177, Tempo, 468750
1, 110208, Tempo, 447761
1, 121621, Tempo, 491803
1, 122978, Tempo, 521739
1, 123156, Tempo, 451128
1, 127861, Tempo, 500000
1, 144503, Tempo, 413793
1, 144503, End_track
2, 0, Start_track
2, 0, MIDI_port, 0
2, 0, Title_t, "Mephisto Waltz No. 1"
2, 0, Control_c, 0, 0, 0
2, 0, Control_c, 0, 32, 0
2, 0, Program_c, 0, 0
2, 167, Control_c, 0, 91, 118
2, 167, Note_on_c, 0, 39, 61
2, 182, Note_on_c, 0, 40, 86
2, 185, Note_on_c, 0, 39, 0
2, 195, Note_on_c, 0, 40, 0
2, 218, Note_on_c, 0, 40, 72
2, 230, Note_on_c, 0, 40, 0
2, 255, Note_on_c, 0, 40, 63
2, 265, Note_on_c, 0, 40, 0
2, 290, Note_on_c, 0, 40, 67
2, 302, Note_on_c, 0, 40, 0
2, 325, Note_on_c, 0, 40, 68
2, 331, Note_on_c, 0, 40, 0
2, 361, Note_on_c, 0, 40, 65
2, 372, Note_on_c, 0, 40, 0
2, 392, Note_on_c, 0, 39, 70
2, 404, Note_on_c, 0, 39, 0
2, 405, Note_on_c, 0, 40, 80
2, 420, Note_on_c, 0, 40, 0
2, 441, Note_on_c, 0, 40, 74
2, 453, Note_on_c, 0, 40, 0
2, 476, Note_on_c, 0, 40, 69
2, 491, Note_on_c, 0, 40, 0
2, 506, Note_on_c, 0, 39, 56
2, 517, Note_on_c, 0, 40, 78
2, 518, Note_on_c, 0, 39, 0
2, 529, Note_on_c, 0, 40, 0
2, 553, Note_on_c, 0, 40, 69
2, 560, Note_on_c, 0, 40, 0
2, 588, Note_on_c, 0, 40, 68
2, 595, Note_on_c, 0, 40, 0
2, 622, Note_on_c, 0, 46, 83
2, 625, Note_on_c, 0, 40, 66
2, 633, Note_on_c, 0, 46, 0
2, 635, Note_on_c, 0, 47, 83
2, 645, Note_on_c, 0, 40, 0
2, 646, Note_on_c, 0, 47, 0
2, 668, Note_on_c, 0, 47, 74
2, 671, Note_on_c, 0, 40, 51
2, 678, Note_on_c, 0, 40, 0
2, 679, Note_on_c, 0, 47, 0
2, 710, Note_on_c, 0, 47, 63
2, 712, Note_on_c, 0, 40, 41
2, 716, Note_on_c, 0, 47, 0
2, 720, Note_on_c, 0, 40, 0
2, 746, Note_on_c, 0, 47, 63
2, 747, Note_on_c, 0, 40, 44
2, 753, Note_on_c, 0, 47, 0
2, 755, Note_on_c, 0, 40, 0
2, 783, Note_on_c, 0, 47, 63
2, 790, Note_on_c, 0, 47, 0
2, 790, Note_on_c, 0, 40, 34
2, 796, Note_on_c, 0, 40, 0
2, 822, Note_on_c, 0, 47, 65
2, 826, Note_on_c, 0, 40, 36
2, 829, Note_on_c, 0, 47, 0
2, 832, Note_on_c, 0, 40, 0
2, 856, Note_on_c, 0, 46, 78
2, 857, Note_on_c, 0, 40, 63
2, 861, Note_on_c, 0, 47, 80
2, 866, Note_on_c, 0, 46, 0
2, 870, Note_on_c, 0, 40, 0
2, 876, Note_on_c, 0, 47, 0
2, 900, Note_on_c, 0, 47, 74
2, 903, Note_on_c, 0, 40, 49
2, 907, Note_on_c, 0, 47, 0
2, 910, Note_on_c, 0, 40, 0
2, 938, Note_on_c, 0, 47, 69
2, 943, Note_on_c, 0, 40, 34
2, 946, Note_on_c, 0, 47, 0
2, 949, Note_on_c, 0, 40, 0
2, 968, Note_on_c, 0, 46, 83
2, 972, Note_on_c, 0, 40, 64
2, 978, Note_on_c, 0, 47, 79
2, 979, Note_on_c, 0, 46, 0
2, 988, Note_on_c, 0, 40, 0
2, 991, Note_on_c, 0, 47, 0
2, 1015, Note_on_c, 0, 47, 76
2, 1018, Note_on_c, 0, 40, 51
2, 1022, Note_on_c, 0, 47, 0
2, 1025, Note_on_c, 0, 40, 0
2, 1051, Note_on_c, 0, 47, 72
2, 1052, Note_on_c, 0, 40, 57
2, 1057, Note_on_c, 0, 47, 0
2, 1059, Note_on_c, 0, 40, 0
2, 1071, Note_on_c, 0, 53, 65
2, 1085, Note_on_c, 0, 54, 89
2, 1086, Note_on_c, 0, 53, 0
2, 1086, Note_on_c, 0, 47, 77
2, 1088, Note_on_c, 0, 40, 64
2, 1094, Note_on_c, 0, 47, 0
2, 1095, Note_on_c, 0, 40, 0
2, 1101, Note_on_c, 0, 54, 0
2, 1126, Note_on_c, 0, 54, 68
2, 1126, Note_on_c, 0, 47, 68
2, 1131, Note_on_c, 0, 40, 31
2, 1132, Note_on_c, 0, 47, 0
2, 1136, Note_on_c, 0, 40, 0
2, 1137, Note_on_c, 0, 54, 0
2, 1162, Note_on_c, 0, 54, 59
2, 1162, Note_on_c, 0, 47, 61
2, 1163, Note_on_c, 0, 40, 48
2, 1169, Note_on_c, 0, 47, 0
2, 1171, Note_on_c, 0, 40, 0
2, 1174, Note_on_c, 0, 54, 0
2, 1198, Note_on_c, 0, 54, 60
2, 1200, Note_on_c, 0, 47, 69
2, 1203, Note_on_c, 0, 40, 47
2, 1207, Note_on_c, 0, 47, 0
2, 1210, Note_on_c, 0, 40, 0
2, 1213, Note_on_c, 0, 54, 0
2, 1235, Note_on_c, 0, 54, 66
2, 1236, Note_on_c, 0, 47, 67
2, 1237, Note_on_c, 0, 40, 47
2, 1243, Note_on_c, 0, 47, 0
2, 1245, Note_on_c, 0, 40, 0
2, 1251, Note_on_c, 0, 54, 0
2, 1271, Note_on_c, 0, 54, 52
2, 1271, Note_on_c, 0, 47, 68
2, 1272, Note_on_c, 0, 40, 50
2, 1278, Note_on_c, 0, 47, 0
2, 1280, Note_on_c, 0, 40, 0
2, 1284, Note_on_c, 0, 54, 0
2, 1291, Note_on_c, 0, 53, 78
2, 1303, Note_on_c, 0, 54, 83
2, 1304, Note_on_c, 0, 53, 0
2, 1308, Note_on_c, 0, 47, 74
2, 1310, Note_on_c, 0, 61, 82
2, 1310, Note_on_c, 0, 40, 65
2, 1318, Note_on_c, 0, 40, 0
2, 1318, Note_on_c, 0, 54, 0
2, 1319, Note_on_c, 0, 47, 0
2, 1326, Note_on_c, 0, 61, 0
2, 1347, Note_on_c, 0, 61, 79
2, 1347, Note_on_c, 0, 47, 73
2, 1348, Note_on_c, 0, 54, 73
2, 1350, Note_on_c, 0, 40, 57
2, 1354, Note_on_c, 0, 47, 0
2, 1357, Note_on_c, 0, 40, 0
2, 1359, Note_on_c, 0, 54, 0
2, 1359, Note_on_c, 0, 61, 0
2, 1385, Note_on_c, 0, 61, 84
2, 1385, Note_on_c, 0, 47, 70
2, 1387, Note_on_c, 0, 54, 66
2, 1387, Note_on_c, 0, 40, 52
2, 1392, Note_on_c, 0, 47, 0
2, 1394, Note_on_c, 0, 40, 0
2, 1394, Note_on_c, 0, 54, 0
2, 1398, Note_on_c, 0, 61, 0
2, 1420, Note_on_c, 0, 61, 77
2, 1422, Note_on_c, 0, 47, 72
2, 1422, Note_on_c, 0, 54, 65
2, 1425, Note_on_c, 0, 40, 56
2, 1430, Note_on_c, 0, 47, 0
2, 1432, Note_on_c, 0, 40, 0
2, 1433, Note_on_c, 0, 54, 0
2, 1437, Note_on_c, 0, 61, 0
2, 1456, Note_on_c, 0, 61, 80
2, 1457, Note_on_c, 0, 54, 66
2, 1458, Note_on_c, 0, 47, 80
2, 1460, Note_on_c, 0, 40, 62
2, 1467, Note_on_c, 0, 40, 0
2, 1469, Note_on_c, 0, 47, 0
2, 1472, Note_on_c, 0, 61, 0
2, 1473, Note_on_c, 0, 54, 0
2, 1493, Note_on_c, 0, 61, 71
2, 1493, Note_on_c, 0, 40, 50
2, 1495, Note_on_c, 0, 54, 43
2, 1495, Note_on_c, 0, 47, 59
2, 1500, Note_on_c, 0, 54, 0
2, 1501, Note_on_c, 0, 47, 0
2, 1505, Note_on_c, 0, 61, 0
2, 1518, Note_on_c, 0, 60, 80
2, 1528, Note_on_c, 0, 61, 80
2, 1530, Note_on_c, 0, 47, 61
2, 1530, Note_on_c, 0, 69, 95
2, 1531, Note_on_c, 0, 60, 0
2, 1531, Note_on_c, 0, 54, 80
2, 1541, Note_on_c, 0, 61, 0
2, 1544, Note_on_c, 0, 40, 0
2, 1544, Note_on_c, 0, 54, 0
2, 1547, Note_on_c, 0, 69, 0
2, 1547, Note_on_c, 0, 47, 0
2, 1567, Note_on_c, 0, 69, 89
2, 1567, Note_on_c, 0, 54, 68
2, 1568, Note_on_c, 0, 61, 75
2, 1571, Note_on_c, 0, 47, 66
2, 1573, Note_on_c, 0, 40, 32
2, 1577, Note_on_c, 0, 47, 0
2, 1578, Note_on_c, 0, 40, 0
2, 1579, Note_on_c, 0, 61, 0
2, 1579, Note_on_c, 0, 69, 0
2, 1582, Note_on_c, 0, 54, 0
2, 1602, Note_on_c, 0, 54, 54
2, 1603, Note_on_c, 0, 69, 82
2, 1605, Note_on_c, 0, 61, 71
2, 1607, Note_on_c, 0, 40, 34
2, 1608, Note_on_c, 0, 47, 50
2, 1614, Note_on_c, 0, 40, 0
2, 1615, Note_on_c, 0, 54, 0
2, 1615, Note_on_c, 0, 47, 0
2, 1616, Note_on_c, 0, 69, 0
2, 1617, Note_on_c, 0, 61, 0
2, 1638, Note_on_c, 0, 69, 95
2, 1638, Note_on_c, 0, 61, 77
2, 1640, Note_on_c, 0, 54, 59
2, 1641, Note_on_c, 0, 47, 63
2, 1642, Note_on_c, 0, 40, 35
2, 1648, Note_on_c, 0, 40, 0
2, 1648, Note_on_c, 0, 47, 0
2, 1649, Note_on_c, 0, 61, 0
2, 1651, Note_on_c, 0, 54, 0
2, 1651, Note_on_c, 0, 69, 0
2, 1675, Note_on_c, 0, 69, 89
2, 1676, Note_on_c, 0, 54, 54
2, 1676, Note_on_c, 0, 61, 69
2, 1678, Note_on_c, 0, 47, 58
2, 1685, Note_on_c, 0, 47, 0
2, 1687, Note_on_c, 0, 61, 0
2, 1687, Note_on_c, 0, 54, 0
2, 1690, Note_on_c, 0, 69, 0
2, 1710, Note_on_c, 0, 69, 82
2, 1711, Note_on_c, 0, 54, 60
2, 1711, Note_on_c, 0, 61, 73
2, 1713, Note_on_c, 0, 47, 57
2, 1720, Note_on_c, 0, 47, 0
2, 1724, Note_on_c, 0, 54, 0
2, 1725, Note_on_c, 0, 69, 0
2, 1726, Note_on_c, 0, 61, 0
2, 1733, Note_on_c, 0, 61, 86
2, 1746, Note_on_c, 0, 61, 0
2, 1747, Note_on_c, 0, 62, 92
2, 1748, Note_on_c, 0, 69, 92
2, 1750, Note_on_c, 0, 54, 56
2, 1752, Note_on_c, 0, 47, 68
2, 1752, Note_on_c, 0, 40, 47
2, 1760, Note_on_c, 0, 40, 0
2, 1762, Note_on_c, 0, 62, 0
2, 1763, Note_on_c, 0, 47, 0
2, 1763, Note_on_c, 0, 54, 0
2, 1768, Note_on_c, 0, 69, 0
2, 1783, Note_on_c, 0, 69, 84
2, 1785, Note_on_c, 0, 62, 86
2, 1786, Note_on_c, 0, 54, 55
2, 1790, Note_on_c, 0, 47, 58
2, 1797, Note_on_c, 0, 47, 0
2, 1797, Note_on_c, 0, 62, 0
2, 1798, Note_on_c, 0, 54, 0
2, 1799, Note_on_c, 0, 69, 0
2, 1820, Note_on_c, 0, 69, 95
2, 1820, Note_on_c, 0, 62, 90
2, 1821, Note_on_c, 0, 54, 54
2, 1823, Note_on_c, 0, 40, 45
2, 1823, Note_on_c, 0, 47, 57
2, 1830, Note_on_c, 0, 47, 0
2, 1831, Note_on_c, 0, 40, 0
2, 1833, Note_on_c, 0, 62, 0
2, 1834, Note_on_c, 0, 54, 0
2, 1837, Note_on_c, 0, 69, 0
2, 1858, Note_on_c, 0, 69, 98
2, 1858, Note_on_c, 0, 54, 61
2, 1858, Note_on_c, 0, 62, 81
2, 1862, Note_on_c, 0, 47, 62
2, 1862, Note_on_c, 0, 40, 47
2, 1868, Note_on_c, 0, 47, 0
2, 1870, Note_on_c, 0, 62, 0
2, 1870, Note_on_c, 0, 40, 0
2, 1871, Note_on_c, 0, 54, 0
2, 1874, Note_on_c, 0, 69, 0
2, 1893, Note_on_c, 0, 62, 99
2, 1895, Note_on_c, 0, 54, 64
2, 1897, Note_on_c, 0, 47, 64
2, 1898, Note_on_c, 0, 40, 49
2, 1903, Note_on_c, 0, 47, 0
2, 1905, Note_on_c, 0, 40, 0
2, 1908, Note_on_c, 0, 54, 0
2, 1910, Note_on_c, 0, 62, 0
2, 1930, Note_on_c, 0, 69, 100
2, 1931, Note_on_c, 0, 54, 68
2, 1933, Note_on_c, 0, 47, 69
2, 1933, Note_on_c, 0, 40, 49
2, 1939, Note_on_c, 0, 47, 0
2, 1941, Note_on_c, 0, 40, 0
2, 1943, Note_on_c, 0, 54, 0
2, 1947, Note_on_c, 0, 69, 0
2, 1953, Note_on_c, 0, 62, 90
2, 1960, Note_on_c, 0, 69, 82
2, 1971, Note_on_c, 0, 54, 61
2, 1972, Note_on_c, 0, 76, 107
2, 1973, Note_on_c, 0, 40, 50
2, 1975, Note_on_c, 0, 47, 62
2, 1982, Note_on_c, 0, 47, 0
2, 1986, Note_on_c, 0, 40, 0
2, 1987, Note_on_c, 0, 54, 0
2, 1987, Control_c, 0, 64, 40
2, 1990, Control_c, 0, 64, 72
2, 1993, Control_c, 0, 64, 104
2, 1996, Control_c, 0, 64, 127
2, 2008, Note_on_c, 0, 54, 61
2, 2011, Note_on_c, 0, 69, 0
2, 2013, Note_on_c, 0, 47, 53
2, 2015, Note_on_c, 0, 40, 32
2, 2020, Note_on_c, 0, 47, 0
2, 2021, Note_on_c, 0, 62, 0
2, 2021, Note_on_c, 0, 54, 0
2, 2021, Note_on_c, 0, 40, 0
2, 2025, Note_on_c, 0, 76, 0
2, 2037, Control_c, 0, 64, 104
2, 2040, Control_c, 0, 64, 88
2, 2041, Note_on_c, 0, 62, 74
2, 2041, Note_on_c, 0, 69, 92
2, 2043, Control_c, 0, 64, 56
2, 2046, Note_on_c, 0, 54, 53
2, 2046, Control_c, 0, 64, 0
2, 2048, Note_on_c, 0, 47, 56
2, 2054, Note_on_c, 0, 47, 0
2, 2054, Note_on_c, 0, 62, 0
2, 2056, Note_on_c, 0, 54, 0
2, 2056, Note_on_c, 0, 69, 0
2, 2077, Note_on_c, 0, 54, 63
2, 2081, Note_on_c, 0, 40, 43
2, 2081, Note_on_c, 0, 47, 60
2, 2087, Note_on_c, 0, 47, 0
2, 2088, Note_on_c, 0, 40, 0
2, 2089, Note_on_c, 0, 54, 0
2, 2111, Note_on_c, 0, 62, 96
2, 2113, Note_on_c, 0, 54, 71
2, 2116, Note_on_c, 0, 40, 50
2, 2116, Note_on_c, 0, 47, 70
2, 2122, Note_on_c, 0, 47, 0
2, 2123, Note_on_c, 0, 40, 0
2, 2123, Note_on_c, 0, 54, 0
2, 2128, Note_on_c, 0, 62, 0
2, 2146, Note_on_c, 0, 54, 70
2, 2147, Note_on_c, 0, 69, 99
2, 2148, Note_on_c, 0, 40, 56
2, 2150, Note_on_c, 0, 47, 72
2, 2155, Note_on_c, 0, 47, 0
2, 2156, Note_on_c, 0, 40, 0
2, 2159, Note_on_c, 0, 54, 0
2, 2165, Note_on_c, 0, 69, 0
2, 2172, Note_on_c, 0, 62, 90
2, 2178, Note_on_c, 0, 69, 80
2, 2187, Note_on_c, 0, 54, 72
2, 2188, Note_on_c, 0, 76, 107
2, 2188, Control_c, 0, 64, 56
2, 2190, Note_on_c, 0, 40, 63
2, 2190, Note_on_c, 0, 47, 69
2, 2191, Control_c, 0, 64, 127
2, 2195, Note_on_c, 0, 62, 0
2, 2197, Note_on_c, 0, 47, 0
2, 2198, Note_on_c, 0, 69, 0
2, 2202, Note_on_c, 0, 40, 0
2, 2204, Note_on_c, 0, 54, 0
2, 2213, Note_on_c, 0, 76, 0
2, 2223, Note_on_c, 0, 54, 56
2, 2230, Note_on_c, 0, 47, 55
2, 2236, Note_on_c, 0, 47, 0
2, 2236, Note_on_c, 0, 54, 0
2, 2251, Control_c, 0, 64, 104
2, 2255, Control_c, 0, 64, 56
2, 2256, Note_on_c, 0, 69, 94
2, 2257, Note_on_c, 0, 62, 83
2, 2257, Control_c, 0, 64, 24
2, 2258, Note_on_c, 0, 54, 60
2, 2261, Note_on_c, 0, 47, 66
2, 2261, Control_c, 0, 64, 0
2, 2262, Note_on_c, 0, 40, 42
2, 2267, Note_on_c, 0, 47, 0
2, 2269, Note_on_c, 0, 54, 0
2, 2269, Note_on_c, 0, 40, 0
2, 2269, Note_on_c, 0, 62, 0
2, 2276, Note_on_c, 0, 69, 0
2, 2291, Note_on_c, 0, 62, 91
2, 2292, Note_on_c, 0, 69, 86
2, 2296, Note_on_c, 0, 54, 68
2, 2297, Note_on_c, 0, 76, 104
2, 2298, Note_on_c, 0, 47, 68
2, 2298, Control_c, 0, 64, 40
2, 2300, Note_on_c, 0, 40, 54
2, 2301, Control_c, 0, 64, 104
2, 2305, Control_c, 0, 64, 127
2, 2308, Note_on_c, 0, 40, 0
2, 2310, Note_on_c, 0, 47, 0
2, 2311, Note_on_c, 0, 54, 0
2, 2314, Note_on_c, 0, 62, 0
2, 2323, Note_on_c, 0, 69, 0
2, 2333, Note_on_c, 0, 54, 62
2, 2334, Note_on_c, 0, 76, 0
2, 2337, Note_on_c, 0, 40, 42
2, 2338, Note_on_c, 0, 47, 57
2, 2344, Note_on_c, 0, 47, 0
2, 2344, Note_on_c, 0, 40, 0
2, 2345, Note_on_c, 0, 54, 0
2, 2358, Control_c, 0, 64, 88
2, 2361, Control_c, 0, 64, 72
2, 2365, Control_c, 0, 64, 40
2, 2367, Control_c, 0, 64, 24
2, 2368, Note_on_c, 0, 69, 92
2, 2368, Note_on_c, 0, 54, 60
2, 2370, Note_on_c, 0, 62, 70
2, 2371, Note_on_c, 0, 47, 63
2, 2371, Note_on_c, 0, 40, 42
2, 2371, Control_c, 0, 64, 0
2, 2376, Note_on_c, 0, 62, 0
2, 2377, Note_on_c, 0, 47, 0
2, 2379, Note_on_c, 0, 40, 0
2, 2379, Note_on_c, 0, 54, 0
2, 2385, Note_on_c, 0, 69, 0
2, 2393, Note_on_c, 0, 62, 84
2, 2400, Note_on_c, 0, 69, 83
2, 2405, Note_on_c, 0, 54, 58
2, 2407, Note_on_c, 0, 47, 68
2, 2408, Note_on_c, 0, 40, 48
2, 2411, Note_on_c, 0, 76, 100
2, 2415, Note_on_c, 0, 62, 0
2, 2416, Note_on_c, 0, 40, 0
2, 2418, Note_on_c, 0, 54, 0
2, 2418, Control_c, 0, 64, 104
2, 2420, Note_on_c, 0, 69, 0
2, 2421, Control_c, 0, 64, 127
2, 2422, Note_on_c, 0, 47, 0
2, 2443, Note_on_c, 0, 54, 66
2, 2447, Note_on_c, 0, 47, 66
2, 2453, Note_on_c, 0, 47, 0
2, 2455, Note_on_c, 0, 54, 0
2, 2461, Note_on_c, 0, 76, 0
2, 2475, Control_c, 0, 64, 104
2, 2477, Note_on_c, 0, 69, 94
2, 2477, Note_on_c, 0, 62, 84
2, 2477, Control_c, 0, 64, 72
2, 2480, Note_on_c, 0, 54, 62
2, 2481, Control_c, 0, 64, 40
2, 2483, Note_on_c, 0, 47, 64
2, 2483, Control_c, 0, 64, 24
2, 2485, Note_on_c, 0, 40, 35
2, 2487, Control_c, 0, 64, 0
2, 2488, Note_on_c, 0, 69, 0
2, 2489, Note_on_c, 0, 47, 0
2, 2492, Note_on_c, 0, 62, 0
2, 2492, Note_on_c, 0, 54, 0
2, 2492, Note_on_c, 0, 40, 0
2, 2515, Note_on_c, 0, 69, 96
2, 2516, Note_on_c, 0, 62, 85
2, 2518, Note_on_c, 0, 40, 49
2, 2521, Note_on_c, 0, 47, 57
2, 2521, Note_on_c, 0, 54, 45
2, 2522, Control_c, 0, 64, 56
2, 2525, Control_c, 0, 64, 127
2, 2531, Note_on_c, 0, 54, 0
2, 2534, Note_on_c, 0, 40, 0
2, 2536, Note_on_c, 0, 47, 0
2, 2544, Note_on_c, 0, 62, 0
2, 2555, Note_on_c, 0, 54, 65
2, 2555, Note_on_c, 0, 47, 62
2, 2556, Note_on_c, 0, 40, 48
2, 2564, Note_on_c, 0, 40, 0
2, 2565, Note_on_c, 0, 69, 0
2, 2567, Note_on_c, 0, 54, 0
2, 2568, Note_on_c, 0, 47, 0
2, 2585, Control_c, 0, 64, 104
2, 2587, Control_c, 0, 64, 56
2, 2591, Note_on_c, 0, 55, 73
2, 2591, Control_c, 0, 64, 24
2, 2592, Note_on_c, 0, 62, 83
2, 2593, Note_on_c, 0, 47, 73
2, 2595, Note_on_c, 0, 40, 58
2, 2595, Control_c, 0, 64, 0
2, 2602, Note_on_c, 0, 40, 0
2, 2606, Note_on_c, 0, 55, 0
2, 2608, Note_on_c, 0, 47, 0
2, 2608, Note_on_c, 0, 62, 0
2, 2632, Note_on_c, 0, 54, 68
2, 2632, Note_on_c, 0, 69, 89
2, 2633, Note_on_c, 0, 62, 76
2, 2635, Note_on_c, 0, 47, 57
2, 2635, Control_c, 0, 64, 56
2, 2638, Control_c, 0, 64, 127
2, 2642, Note_on_c, 0, 47, 0
2, 2649, Note_on_c, 0, 54, 0
2, 2671, Note_on_c, 0, 54, 56
2, 2673, Note_on_c, 0, 47, 64
2, 2676, Control_c, 0, 64, 104
2, 2677, Note_on_c, 0, 40, 34
2, 2680, Note_on_c, 0, 47, 0
2, 2680, Control_c, 0, 64, 72
2, 2681, Note_on_c, 0, 62, 0
2, 2682, Control_c, 0, 64, 40
2, 2683, Note_on_c, 0, 40, 0
2, 2683, Note_on_c, 0, 54, 0
2, 2686, Control_c, 0, 64, 24
2, 2688, Control_c, 0, 64, 0
2, 2693, Note_on_c, 0, 69, 0
2, 2706, Note_on_c, 0, 62, 76
2, 2706, Note_on_c, 0, 55, 73
2, 2710, Note_on_c, 0, 47, 70
2, 2711, Note_on_c, 0, 40, 50
2, 2718, Note_on_c, 0, 40, 0
2, 2718, Note_on_c, 0, 47, 0
2, 2721, Note_on_c, 0, 55, 0
2, 2722, Note_on_c, 0, 62, 0
2, 2746, Note_on_c, 0, 69, 80
2, 2747, Note_on_c, 0, 54, 54
2, 2748, Note_on_c, 0, 62, 67
2, 2752, Note_on_c, 0, 47, 39
2, 2759, Note_on_c, 0, 54, 0
2, 2760, Note_on_c, 0, 47, 0
2, 2763, Control_c, 0, 64, 40
2, 2767, Control_c, 0, 64, 88
2, 2771, Control_c, 0, 64, 127
2, 2783, Note_on_c, 0, 54, 56
2, 2788, Note_on_c, 0, 47, 52
2, 2788, Note_on_c, 0, 40, 37
2, 2789, Note_on_c, 0, 62, 0
2, 2795, Note_on_c, 0, 47, 0
2, 2795, Note_on_c, 0, 40, 0
2, 2796, Note_on_c, 0, 54, 0
2, 2806, Note_on_c, 0, 69, 0
2, 2808, Control_c, 0, 64, 104
2, 2812, Control_c, 0, 64, 56
2, 2815, Control_c, 0, 64, 24
2, 2818, Note_on_c, 0, 62, 73
2, 2818, Note_on_c, 0, 55, 68
2, 2818, Control_c, 0, 64, 0
2, 2821, Note_on_c, 0, 40, 43
2, 2822, Note_on_c, 0, 47, 68
2, 2828, Note_on_c, 0, 47, 0
2, 2829, Note_on_c, 0, 40, 0
2, 2833, Note_on_c, 0, 55, 0
2, 2833, Note_on_c, 0, 62, 0
2, 2856, Note_on_c, 0, 62, 77
2, 2857, Note_on_c, 0, 47, 64
2, 2857, Note_on_c, 0, 40, 50
2, 2857, Note_on_c, 0, 55, 58
2, 2865, Note_on_c, 0, 40, 0
2, 2868, Note_on_c, 0, 47, 0
2, 2870, Note_on_c, 0, 55, 0
2, 2871, Note_on_c, 0, 62, 0
2, 2895, Note_on_c, 0, 47, 59
2, 2895, Note_on_c, 0, 40, 44
2, 2902, Note_on_c, 0, 47, 0
2, 2903, Note_on_c, 0, 40, 0
2, 2930, Note_on_c, 0, 47, 65
2, 2930, Note_on_c, 0, 40, 46
2, 2938, Note_on_c, 0, 40, 0
2, 2938, Note_on_c, 0, 47, 0
2, 2971, Note_on_c, 0, 62, 74
2, 2975, Note_on_c, 0, 40, 65
2, 2975, Note_on_c, 0, 55, 56
2, 2976, Note_on_c, 0, 47, 74
2, 2982, Note_on_c, 0, 47, 0
2, 2983, Note_on_c, 0, 55, 0
2, 2983, Note_on_c, 0, 40, 0
2, 2986, Note_on_c, 0, 62, 0
2, 3103, Note_on_c, 0, 55, 59
2, 3103, Note_on_c, 0, 48, 52
2, 3103, Note_on_c, 0, 40, 51
2, 3116, Note_on_c, 0, 40, 0
2, 3116, Note_on_c, 0, 48, 0
2, 3116, Note_on_c, 0, 55, 0
2, 3120, Control_c, 0, 64, 24
2, 3123, Control_c, 0, 64, 56
2, 3126, Control_c, 0, 64, 72
2, 3145, Control_c, 0, 64, 40
2, 3148, Control_c, 0, 64, 24
2, 3151, Control_c, 0, 64, 0
2, 3420, Note_on_c, 0, 55, 38
2, 3427, Note_on_c, 0, 31, 50
2, 3433, Note_on_c, 0, 57, 61
2, 3436, Note_on_c, 0, 55, 0
2, 3438, Note_on_c, 0, 33, 62
2, 3442, Note_on_c, 0, 31, 0
2, 3443, Note_on_c, 0, 59, 57
2, 3450, Note_on_c, 0, 35, 51
2, 3453, Note_on_c, 0, 57, 0
2, 3456, Note_on_c, 0, 33, 0
2, 3456, Note_on_c, 0, 59, 0
2, 3458, Note_on_c, 0, 36, 78
2, 3460, Note_on_c, 0, 35, 0
2, 3460, Note_on_c, 0, 60, 74
2, 3462, Note_on_c, 0, 48, 73
2, 3470, Note_on_c, 0, 36, 0
2, 3473, Note_on_c, 0, 48, 0
2, 3473, Note_on_c, 0, 60, 0
2, 3535, Note_on_c, 0, 55, 68
2, 3538, Note_on_c, 0, 31, 52
2, 3552, Note_on_c, 0, 57, 77
2, 3552, Note_on_c, 0, 33, 73
2, 3554, Note_on_c, 0, 31, 0
2, 3560, Note_on_c, 0, 55, 0
2, 3565, Note_on_c, 0, 59, 64
2, 3566, Note_on_c, 0, 35, 76
2, 3567, Note_on_c, 0, 33, 0
2, 3574, Note_on_c, 0, 57, 0
2, 3576, Note_on_c, 0, 60, 90
2, 3577, Note_on_c, 0, 59, 0
2, 3577, Note_on_c, 0, 35, 0
2, 3577, Note_on_c, 0, 36, 80
2, 3581, Note_on_c, 0, 48, 73
2, 3589, Note_on_c, 0, 48, 0
2, 3589, Note_on_c, 0, 36, 0
2, 3591, Note_on_c, 0, 60, 0
2, 3657, Note_on_c, 0, 33, 56
2, 3660, Note_on_c, 0, 57, 61
2, 3672, Note_on_c, 0, 35, 76
2, 3674, Note_on_c, 0, 33, 0
2, 3676, Note_on_c, 0, 59, 72
2, 3680, Note_on_c, 0, 57, 0
2, 3682, Note_on_c, 0, 60, 78
2, 3685, Note_on_c, 0, 35, 0
2, 3685, Note_on_c, 0, 36, 74
2, 3694, Note_on_c, 0, 59, 0
2, 3698, Note_on_c, 0, 38, 84
2, 3700, Note_on_c, 0, 60, 0
2, 3701, Note_on_c, 0, 36, 0
2, 3701, Note_on_c, 0, 50, 78
2, 3701, Note_on_c, 0, 62, 84
2, 3709, Note_on_c, 0, 38, 0
2, 3712, Note_on_c, 0, 50, 0
2, 3714, Note_on_c, 0, 62, 0
2, 3776, Note_on_c, 0, 59, 62
2, 3781, Note_on_c, 0, 35, 68
2, 3791, Note_on_c, 0, 60, 69
2, 3796, Note_on_c, 0, 59, 0
2, 3796, Note_on_c, 0, 36, 73
2, 3796, Note_on_c, 0, 62, 76
2, 3798, Note_on_c, 0, 35, 0
2, 3806, Note_on_c, 0, 38, 73
2, 3808, Note_on_c, 0, 36, 0
2, 3809, Note_on_c, 0, 60, 0
2, 3813, Note_on_c, 0, 62, 0
2, 3816, Note_on_c, 0, 64, 78
2, 3818, Note_on_c, 0, 52, 74
2, 3821, Note_on_c, 0, 40, 83
2, 3822, Note_on_c, 0, 38, 0
2, 3846, Control_c, 0, 64, 24
2, 3848, Note_on_c, 0, 40, 0
2, 3850, Control_c, 0, 64, 56
2, 3852, Note_on_c, 0, 64, 0
2, 3853, Control_c, 0, 64, 88
2, 3854, Note_on_c, 0, 52, 0
2, 3856, Control_c, 0, 64, 104
2, 3860, Control_c, 0, 64, 127
2, 3917, Note_on_c, 0, 39, 65
2, 3922, Control_c, 0, 64, 72
2, 3926, Control_c, 0, 64, 56
2, 3928, Control_c, 0, 64, 0
2, 3932, Note_on_c, 0, 40, 92
2, 3933, Note_on_c, 0, 39, 0
2, 3945, Note_on_c, 0, 40, 0
2, 3973, Note_on_c, 0, 40, 67
2, 3979, Note_on_c, 0, 40, 0
2, 4008, Note_on_c, 0, 40, 66
2, 4018, Note_on_c, 0, 40, 0
2, 4046, Note_on_c, 0, 40, 59
2, 4053, Note_on_c, 0, 40, 0
2, 4085, Note_on_c, 0, 40, 59
2, 4092, Note_on_c, 0, 40, 0
2, 4123, Note_on_c, 0, 40, 62
2, 4133, Note_on_c, 0, 40, 0
2, 4151, Note_on_c, 0, 39, 77
2, 4161, Note_on_c, 0, 40, 79
2, 4163, Note_on_c, 0, 39, 0
2, 4174, Note_on_c, 0, 40, 0
2, 4200, Note_on_c, 0, 40, 70
2, 4212, Note_on_c, 0, 40, 0
2, 4236, Note_on_c, 0, 40, 73
2, 4252, Note_on_c, 0, 40, 0
2, 4263, Note_on_c, 0, 39, 83
2, 4278, Note_on_c, 0, 39, 0
2, 4280, Note_on_c, 0, 40, 85
2, 4292, Note_on_c, 0, 40, 0
2, 4317, Note_on_c, 0, 40, 73
2, 4330, Note_on_c, 0, 40, 0
2, 4352, Note_on_c, 0, 40, 73
2, 4365, Note_on_c, 0, 40, 0
2, 4387, Note_on_c, 0, 46, 93
2, 4388, Note_on_c, 0, 40, 75
2, 4398, Note_on_c, 0, 46, 0
2, 4398, Note_on_c, 0, 47, 87
2, 4404, Note_on_c, 0, 40, 0
2, 4411, Note_on_c, 0, 47, 0
2, 4435, Note_on_c, 0, 47, 77
2, 4436, Note_on_c, 0, 40, 62
2, 4442, Note_on_c, 0, 40, 0
2, 4443, Note_on_c, 0, 47, 0
2, 4473, Note_on_c, 0, 47, 68
2, 4476, Note_on_c, 0, 40, 46
2, 4480, Note_on_c, 0, 47, 0
2, 4483, Note_on_c, 0, 40, 0
2, 4513, Note_on_c, 0, 47, 73
2, 4517, Note_on_c, 0, 40, 48
2, 4519, Note_on_c, 0, 47, 0
2, 4524, Note_on_c, 0, 40, 0
2, 4552, Note_on_c, 0, 47, 71
2, 4555, Note_on_c, 0, 40, 43
2, 4557, Note_on_c, 0, 47, 0
2, 4562, Note_on_c, 0, 40, 0
2, 4588, Note_on_c, 0, 47, 66
2, 4588, Note_on_c, 0, 40, 44
2, 4594, Note_on_c, 0, 47, 0
2, 4595, Note_on_c, 0, 40, 0
2, 4618, Note_on_c, 0, 46, 85
2, 4620, Note_on_c, 0, 40, 68
2, 4628, Note_on_c, 0, 47, 91
2, 4629, Note_on_c, 0, 46, 0
2, 4640, Note_on_c, 0, 47, 0
2, 4640, Note_on_c, 0, 40, 0
2, 4666, Note_on_c, 0, 47, 74
2, 4670, Note_on_c, 0, 40, 46
2, 4673, Note_on_c, 0, 47, 0
2, 4677, Note_on_c, 0, 40, 0
2, 4702, Note_on_c, 0, 47, 76
2, 4703, Note_on_c, 0, 40, 50
2, 4710, Note_on_c, 0, 40, 0
2, 4712, Note_on_c, 0, 47, 0
2, 4732, Note_on_c, 0, 46, 86
2, 4736, Note_on_c, 0, 40, 70
2, 4745, Note_on_c, 0, 46, 0
2, 4746, Note_on_c, 0, 47, 91
2, 4753, Note_on_c, 0, 40, 0
2, 4758, Note_on_c, 0, 47, 0
2, 4781, Note_on_c, 0, 47, 75
2, 4782, Note_on_c, 0, 40, 56
2, 4788, Note_on_c, 0, 47, 0
2, 4789, Note_on_c, 0, 40, 0
2, 4818, Note_on_c, 0, 47, 70
2, 4822, Note_on_c, 0, 40, 51
2, 4824, Note_on_c, 0, 47, 0
2, 4828, Note_on_c, 0, 40, 0
2, 4841, Note_on_c, 0, 53, 78
2, 4853, Note_on_c, 0, 47, 83
2, 4853, Note_on_c, 0, 40, 66
2, 4853, Note_on_c, 0, 54, 95
2, 4858, Note_on_c, 0, 53, 0
2, 4864, Note_on_c, 0, 47, 0
2, 4866, Note_on_c, 0, 40, 0
2, 4870, Note_on_c, 0, 54, 0
2, 4890, Note_on_c, 0, 54, 65
2, 4893, Note_on_c, 0, 47, 64
2, 4893, Note_on_c, 0, 40, 53
2, 4898, Note_on_c, 0, 47, 0
2, 4900, Note_on_c, 0, 40, 0
2, 4902, Note_on_c, 0, 54, 0
2, 4926, Note_on_c, 0, 54, 59
2, 4928, Note_on_c, 0, 47, 70
2, 4932, Note_on_c, 0, 40, 46
2, 4935, Note_on_c, 0, 47, 0
2, 4939, Note_on_c, 0, 40, 0
2, 4939, Note_on_c, 0, 54, 0
2, 4962, Note_on_c, 0, 54, 66
2, 4966, Note_on_c, 0, 47, 71
2, 4966, Note_on_c, 0, 40, 57
2, 4973, Note_on_c, 0, 47, 0
2, 4974, Note_on_c, 0, 40, 0
2, 4977, Note_on_c, 0, 54, 0
2, 5000, Note_on_c, 0, 54, 66
2, 5003, Note_on_c, 0, 47, 70
2, 5007, Note_on_c, 0, 40, 49
2, 5010, Note_on_c, 0, 47, 0
2, 5013, Note_on_c, 0, 40, 0
2, 5015, Note_on_c, 0, 54, 0
2, 5035, Note_on_c, 0, 54, 70
2, 5038, Note_on_c, 0, 47, 72
2, 5038, Note_on_c, 0, 40, 58
2, 5044, Note_on_c, 0, 47, 0
2, 5045, Note_on_c, 0, 40, 0
2, 5048, Note_on_c, 0, 54, 0
2, 5052, Note_on_c, 0, 53, 82
2, 5069, Note_on_c, 0, 53, 0
2, 5070, Note_on_c, 0, 54, 75
2, 5075, Note_on_c, 0, 61, 95
2, 5076, Note_on_c, 0, 47, 84
2, 5078, Note_on_c, 0, 40, 75
2, 5087, Note_on_c, 0, 54, 0
2, 5088, Note_on_c, 0, 47, 0
2, 5089, Note_on_c, 0, 40, 0
2, 5096, Note_on_c, 0, 61, 0
2, 5112, Note_on_c, 0, 61, 78
2, 5115, Note_on_c, 0, 47, 74
2, 5116, Note_on_c, 0, 54, 48
2, 5117, Note_on_c, 0, 40, 62
2, 5122, Note_on_c, 0, 54, 0
2, 5123, Note_on_c, 0, 40, 0
2, 5123, Note_on_c, 0, 47, 0
2, 5127, Note_on_c, 0, 61, 0
2, 5148, Note_on_c, 0, 61, 83
2, 5151, Note_on_c, 0, 54, 70
2, 5151, Note_on_c, 0, 47, 81
2, 5153, Note_on_c, 0, 40, 66
2, 5159, Note_on_c, 0, 40, 0
2, 5163, Note_on_c, 0, 61, 0
2, 5163, Note_on_c, 0, 54, 0
2, 5163, Note_on_c, 0, 47, 0
2, 5185, Note_on_c, 0, 61, 82
2, 5187, Note_on_c, 0, 54, 72
2, 5188, Note_on_c, 0, 47, 80
2, 5192, Note_on_c, 0, 40, 60
2, 5198, Note_on_c, 0, 40, 0
2, 5199, Note_on_c, 0, 47, 0
2, 5200, Note_on_c, 0, 54, 0
2, 5201, Note_on_c, 0, 61, 0
2, 5220, Note_on_c, 0, 61, 91
2, 5222, Note_on_c, 0, 54, 70
2, 5223, Note_on_c, 0, 47, 79
2, 5225, Note_on_c, 0, 40, 65
2, 5232, Note_on_c, 0, 40, 0
2, 5235, Note_on_c, 0, 54, 0
2, 5236, Note_on_c, 0, 47, 0
2, 5237, Note_on_c, 0, 61, 0
2, 5257, Note_on_c, 0, 61, 82
2, 5257, Note_on_c, 0, 54, 67
2, 5261, Note_on_c, 0, 40, 50
2, 5263, Note_on_c, 0, 47, 41
2, 5264, Note_on_c, 0, 54, 0
2, 5269, Note_on_c, 0, 61, 0
2, 5271, Note_on_c, 0, 47, 0
2, 5276, Note_on_c, 0, 40, 0
2, 5282, Note_on_c, 0, 60, 90
2, 5291, Note_on_c, 0, 47, 59
2, 5291, Note_on_c, 0, 61, 82
2, 5291, Note_on_c, 0, 40, 29
2, 5292, Note_on_c, 0, 69, 97
2, 5295, Note_on_c, 0, 60, 0
2, 5296, Note_on_c, 0, 54, 81
2, 5301, Control_c, 0, 64, 24
2, 5303, Control_c, 0, 64, 56
2, 5306, Note_on_c, 0, 61, 0
2, 5307, Control_c, 0, 64, 88
2, 5309, Note_on_c, 0, 69, 0
2, 5311, Note_on_c, 0, 54, 0
2, 5311, Note_on_c, 0, 40, 0
2, 5313, Note_on_c, 0, 47, 0
2, 5323, Control_c, 0, 64, 56
2, 5326, Control_c, 0, 64, 40
2, 5330, Control_c, 0, 64, 0
2, 5331, Note_on_c, 0, 69, 95
2, 5331, Note_on_c, 0, 47, 58
2, 5331, Note_on_c, 0, 61, 83
2, 5332, Note_on_c, 0, 54, 59
2, 5333, Note_on_c, 0, 40, 43
2, 5341, Note_on_c, 0, 40, 0
2, 5342, Note_on_c, 0, 54, 0
2, 5343, Note_on_c, 0, 61, 0
2, 5344, Note_on_c, 0, 69, 0
2, 5347, Note_on_c, 0, 47, 0
2, 5366, Note_on_c, 0, 69, 92
2, 5366, Note_on_c, 0, 61, 77
2, 5366, Note_on_c, 0, 47, 61
2, 5367, Note_on_c, 0, 54, 54
2, 5371, Note_on_c, 0, 40, 34
2, 5376, Note_on_c, 0, 40, 0
2, 5377, Note_on_c, 0, 54, 0
2, 5379, Note_on_c, 0, 69, 0
2, 5379, Note_on_c, 0, 61, 0
2, 5381, Note_on_c, 0, 47, 0
2, 5400, Note_on_c, 0, 69, 94
2, 5401, Note_on_c, 0, 61, 78
2, 5402, Note_on_c, 0, 47, 54
2, 5402, Note_on_c, 0, 54, 43
2, 5405, Note_on_c, 0, 40, 39
2, 5412, Note_on_c, 0, 40, 0
2, 5412, Note_on_c, 0, 54, 0
2, 5414, Note_on_c, 0, 61, 0
2, 5415, Note_on_c, 0, 47, 0
2, 5416, Note_on_c, 0, 69, 0
2, 5435, Note_on_c, 0, 69, 84
2, 5436, Note_on_c, 0, 61, 70
2, 5437, Note_on_c, 0, 54, 58
2, 5440, Note_on_c, 0, 47, 58
2, 5447, Note_on_c, 0, 47, 0
2, 5447, Note_on_c, 0, 54, 0
2, 5449, Note_on_c, 0, 61, 0
2, 5451, Note_on_c, 0, 69, 0
2, 5470, Note_on_c, 0, 69, 87
2, 5470, Note_on_c, 0, 61, 72
2, 5473, Note_on_c, 0, 54, 56
2, 5473, Note_on_c, 0, 40, 46
2, 5475, Note_on_c, 0, 47, 61
2, 5483, Note_on_c, 0, 47, 0
2, 5483, Note_on_c, 0, 54, 0
2, 5483, Note_on_c, 0, 40, 0
2, 5485, Note_on_c, 0, 61, 0
2, 5486, Note_on_c, 0, 69, 0
2, 5493, Note_on_c, 0, 61, 83
2, 5508, Note_on_c, 0, 54, 65
2, 5509, Note_on_c, 0, 61, 0
2, 5510, Note_on_c, 0, 69, 94
2, 5510, Note_on_c, 0, 62, 97
2, 5510, Note_on_c, 0, 47, 70
2, 5510, Note_on_c, 0, 40, 52
2, 5523, Note_on_c, 0, 40, 0
2, 5523, Note_on_c, 0, 54, 0
2, 5527, Note_on_c, 0, 47, 0
2, 5527, Note_on_c, 0, 62, 0
2, 5530, Note_on_c, 0, 69, 0
2, 5543, Note_on_c, 0, 69, 91
2, 5545, Note_on_c, 0, 54, 64
2, 5545, Note_on_c, 0, 62, 90
2, 5546, Note_on_c, 0, 47, 53
2, 5556, Note_on_c, 0, 62, 0
2, 5557, Note_on_c, 0, 54, 0
2, 5559, Note_on_c, 0, 47, 0
2, 5560, Note_on_c, 0, 69, 0
2, 5578, Note_on_c, 0, 69, 94
2, 5580, Note_on_c, 0, 62, 91
2, 5580, Note_on_c, 0, 54, 60
2, 5582, Note_on_c, 0, 47, 57
2, 5582, Note_on_c, 0, 40, 46
2, 5590, Note_on_c, 0, 40, 0
2, 5592, Note_on_c, 0, 47, 0
2, 5593, Note_on_c, 0, 54, 0
2, 5595, Note_on_c, 0, 62, 0
2, 5595, Note_on_c, 0, 69, 0
2, 5615, Note_on_c, 0, 69, 97
2, 5616, Note_on_c, 0, 54, 66
2, 5616, Note_on_c, 0, 62, 92
2, 5617, Note_on_c, 0, 47, 69
2, 5618, Note_on_c, 0, 40, 50
2, 5625, Note_on_c, 0, 40, 0
2, 5627, Note_on_c, 0, 54, 0
2, 5629, Note_on_c, 0, 47, 0
2, 5629, Note_on_c, 0, 62, 0
2, 5635, Note_on_c, 0, 69, 0
2, 5651, Note_on_c, 0, 62, 100
2, 5652, Note_on_c, 0, 54, 77
2, 5655, Note_on_c, 0, 47, 76
2, 5656, Note_on_c, 0, 40, 58
2, 5662, Note_on_c, 0, 47, 0
2, 5663, Note_on_c, 0, 40, 0
2, 5665, Note_on_c, 0, 54, 0
2, 5671, Note_on_c, 0, 62, 0
2, 5687, Note_on_c, 0, 69, 106
2, 5687, Note_on_c, 0, 54, 85
2, 5691, Note_on_c, 0, 40, 59
2, 5691, Note_on_c, 0, 47, 71
2, 5697, Note_on_c, 0, 47, 0
2, 5698, Note_on_c, 0, 40, 0
2, 5702, Note_on_c, 0, 54, 0
2, 5704, Note_on_c, 0, 69, 0
2, 5708, Note_on_c, 0, 62, 84
2, 5716, Note_on_c, 0, 69, 70
2, 5728, Note_on_c, 0, 54, 60
2, 5730, Note_on_c, 0, 76, 107
2, 5730, Note_on_c, 0, 47, 67
2, 5731, Note_on_c, 0, 40, 49
2, 5735, Note_on_c, 0, 62, 0
2, 5738, Control_c, 0, 64, 72
2, 5742, Control_c, 0, 64, 127
2, 5744, Note_on_c, 0, 54, 0
2, 5744, Note_on_c, 0, 40, 0
2, 5747, Note_on_c, 0, 47, 0
2, 5752, Note_on_c, 0, 69, 0
2, 5763, Note_on_c, 0, 54, 77
2, 5766, Note_on_c, 0, 47, 54
2, 5768, Note_on_c, 0, 40, 39
2, 5775, Note_on_c, 0, 40, 0
2, 5776, Note_on_c, 0, 47, 0
2, 5776, Note_on_c, 0, 54, 0
2, 5783, Note_on_c, 0, 76, 0
2, 5800, Note_on_c, 0, 62, 80
2, 5801, Note_on_c, 0, 54, 77
2, 5801, Note_on_c, 0, 69, 94
2, 5805, Note_on_c, 0, 47, 66
2, 5808, Control_c, 0, 64, 88
2, 5811, Note_on_c, 0, 47, 0
2, 5811, Control_c, 0, 64, 72
2, 5813, Note_on_c, 0, 54, 0
2, 5815, Note_on_c, 0, 62, 0
2, 5815, Control_c, 0, 64, 40
2, 5817, Control_c, 0, 64, 24
2, 5819, Note_on_c, 0, 69, 0
2, 5821, Control_c, 0, 64, 0
2, 5833, Note_on_c, 0, 54, 77
2, 5836, Note_on_c, 0, 47, 70
2, 5838, Note_on_c, 0, 40, 35
2, 5842, Note_on_c, 0, 47, 0
2, 5844, Note_on_c, 0, 40, 0
2, 5845, Note_on_c, 0, 54, 0
2, 5868, Note_on_c, 0, 62, 99
2, 5871, Note_on_c, 0, 54, 77
2, 5872, Note_on_c, 0, 47, 72
2, 5873, Note_on_c, 0, 40, 56
2, 5880, Note_on_c, 0, 40, 0
2, 5883, Note_on_c, 0, 54, 0
2, 5885, Note_on_c, 0, 47, 0
2, 5886, Note_on_c, 0, 62, 0
2, 5906, Note_on_c, 0, 69, 107
2, 5907, Note_on_c, 0, 62, 92
2, 5907, Note_on_c, 0, 54, 79
2, 5910, Note_on_c, 0, 40, 64
2, 5910, Note_on_c, 0, 47, 75
2, 5917, Note_on_c, 0, 47, 0
2, 5917, Note_on_c, 0, 40, 0
2, 5919, Note_on_c, 0, 54, 0
2, 5919, Note_on_c, 0, 62, 0
2, 5929, Note_on_c, 0, 69, 0
2, 5942, Note_on_c, 0, 62, 92
2, 5943, Note_on_c, 0, 69, 93
2, 5945, Note_on_c, 0, 54, 80
2, 5946, Note_on_c, 0, 76, 99
2, 5947, Note_on_c, 0, 47, 76
2, 5948, Note_on_c, 0, 40, 57
2, 5950, Control_c, 0, 64, 40
2, 5952, Control_c, 0, 64, 88
2, 5956, Control_c, 0, 64, 127
2, 5958, Note_on_c, 0, 40, 0
2, 5958, Note_on_c, 0, 62, 0
2, 5960, Note_on_c, 0, 54, 0
2, 5962, Note_on_c, 0, 47, 0
2, 5970, Note_on_c, 0, 69, 0
2, 5972, Note_on_c, 0, 76, 0
2, 5977, Control_c, 0, 64, 104
2, 5981, Control_c, 0, 64, 88
2, 5982, Note_on_c, 0, 54, 71
2, 5983, Control_c, 0, 64, 56
2, 5986, Note_on_c, 0, 47, 54
2, 5987, Control_c, 0, 64, 40
2, 5990, Control_c, 0, 64, 24
2, 5993, Note_on_c, 0, 47, 0
2, 5993, Note_on_c, 0, 54, 0
2, 5993, Control_c, 0, 64, 0
2, 6017, Note_on_c, 0, 69, 96
2, 6017, Note_on_c, 0, 62, 86
2, 6018, Note_on_c, 0, 54, 72
2, 6021, Note_on_c, 0, 47, 66
2, 6022, Note_on_c, 0, 40, 40
2, 6029, Note_on_c, 0, 40, 0
2, 6029, Note_on_c, 0, 47, 0
2, 6030, Note_on_c, 0, 54, 0
2, 6030, Note_on_c, 0, 62, 0
2, 6038, Note_on_c, 0, 69, 0
2, 6048, Note_on_c, 0, 62, 82
2, 6051, Note_on_c, 0, 69, 86
2, 6057, Note_on_c, 0, 54, 64
2, 6058, Note_on_c, 0, 47, 67
2, 6060, Note_on_c, 0, 76, 98
2, 6060, Control_c, 0, 64, 40
2, 6061, Note_on_c, 0, 40, 50
2, 6062, Control_c, 0, 64, 104
2, 6063, Note_on_c, 0, 62, 0
2, 6066, Control_c, 0, 64, 127
2, 6069, Note_on_c, 0, 40, 0
2, 6072, Note_on_c, 0, 54, 0
2, 6074, Note_on_c, 0, 47, 0
2, 6084, Note_on_c, 0, 69, 0
2, 6093, Note_on_c, 0, 54, 68
2, 6097, Note_on_c, 0, 76, 0
2, 6097, Note_on_c, 0, 47, 58
2, 6097, Control_c, 0, 64, 104
2, 6101, Control_c, 0, 64, 88
2, 6103, Note_on_c, 0, 47, 0
2, 6103, Control_c, 0, 64, 72
2, 6105, Note_on_c, 0, 54, 0
2, 6107, Control_c, 0, 64, 56
2, 6110, Control_c, 0, 64, 40
2, 6113, Control_c, 0, 64, 24
2, 6116, Control_c, 0, 64, 0
2, 6126, Note_on_c, 0, 69, 99
2, 6126, Note_on_c, 0, 62, 89
2, 6128, Note_on_c, 0, 54, 74
2, 6131, Note_on_c, 0, 47, 67
2, 6131, Note_on_c, 0, 40, 50
2, 6137, Note_on_c, 0, 47, 0
2, 6138, Note_on_c, 0, 62, 0
2, 6138, Note_on_c, 0, 40, 0
2, 6139, Note_on_c, 0, 54, 0
2, 6146, Note_on_c, 0, 69, 0
2, 6158, Note_on_c, 0, 62, 86
2, 6158, Note_on_c, 0, 69, 90
2, 6166, Note_on_c, 0, 54, 74
2, 6167, Note_on_c, 0, 47, 70
2, 6168, Note_on_c, 0, 40, 50
2, 6170, Note_on_c, 0, 76, 100
2, 6174, Note_on_c, 0, 62, 0
2, 6176, Control_c, 0, 64, 56
2, 6179, Note_on_c, 0, 40, 0
2, 6179, Note_on_c, 0, 54, 0
2, 6180, Control_c, 0, 64, 104
2, 6182, Control_c, 0, 64, 127
2, 6183, Note_on_c, 0, 47, 0
2, 6188, Note_on_c, 0, 69, 0
2, 6201, Note_on_c, 0, 54, 74
2, 6205, Note_on_c, 0, 47, 65
2, 6205, Note_on_c, 0, 40, 41
2, 6205, Control_c, 0, 64, 104
2, 6207, Control_c, 0, 64, 88
2, 6211, Note_on_c, 0, 47, 0
2, 6211, Control_c, 0, 64, 72
2, 6213, Note_on_c, 0, 40, 0
2, 6213, Note_on_c, 0, 54, 0
2, 6215, Control_c, 0, 64, 56
2, 6217, Control_c, 0, 64, 40
2, 6220, Control_c, 0, 64, 24
2, 6223, Control_c, 0, 64, 0
2, 6225, Note_on_c, 0, 76, 0
2, 6233, Note_on_c, 0, 69, 94
2, 6233, Note_on_c, 0, 62, 91
2, 6236, Note_on_c, 0, 54, 70
2, 6238, Note_on_c, 0, 40, 50
2, 6240, Note_on_c, 0, 47, 71
2, 6245, Note_on_c, 0, 47, 0
2, 6245, Note_on_c, 0, 69, 0
2, 6245, Note_on_c, 0, 40, 0
2, 6248, Note_on_c, 0, 54, 0
2, 6248, Note_on_c, 0, 62, 0
2, 6271, Note_on_c, 0, 69, 94
2, 6273, Note_on_c, 0, 62, 77
2, 6273, Note_on_c, 0, 54, 71
2, 6275, Note_on_c, 0, 40, 57
2, 6275, Note_on_c, 0, 47, 71
2, 6280, Control_c, 0, 64, 56
2, 6283, Note_on_c, 0, 40, 0
2, 6283, Control_c, 0, 64, 104
2, 6284, Note_on_c, 0, 54, 0
2, 6286, Control_c, 0, 64, 127
2, 6291, Note_on_c, 0, 47, 0
2, 6294, Note_on_c, 0, 62, 0
2, 6308, Note_on_c, 0, 54, 65
2, 6308, Note_on_c, 0, 47, 60
2, 6310, Note_on_c, 0, 40, 50
2, 6317, Note_on_c, 0, 40, 0
2, 6319, Note_on_c, 0, 54, 0
2, 6323, Note_on_c, 0, 47, 0
2, 6326, Note_on_c, 0, 69, 0
2, 6336, Control_c, 0, 64, 88
2, 6340, Control_c, 0, 64, 56
2, 6342, Note_on_c, 0, 62, 83
2, 6342, Control_c, 0, 64, 24
2, 6343, Note_on_c, 0, 55, 75
2, 6345, Note_on_c, 0, 47, 70
2, 6346, Control_c, 0, 64, 0
2, 6347, Note_on_c, 0, 40, 55
2, 6353, Note_on_c, 0, 40, 0
2, 6355, Note_on_c, 0, 55, 0
2, 6357, Note_on_c, 0, 62, 0
2, 6361, Note_on_c, 0, 47, 0
2, 6382, Note_on_c, 0, 69, 90
2, 6383, Note_on_c, 0, 54, 62
2, 6385, Note_on_c, 0, 62, 82
2, 6387, Control_c, 0, 64, 56
2, 6388, Note_on_c, 0, 47, 49
2, 6390, Control_c, 0, 64, 127
2, 6395, Note_on_c, 0, 47, 0
2, 6396, Note_on_c, 0, 54, 0
2, 6413, Note_on_c, 0, 62, 0
2, 6420, Note_on_c, 0, 54, 54
2, 6423, Note_on_c, 0, 47, 48
2, 6425, Note_on_c, 0, 40, 31
2, 6428, Note_on_c, 0, 69, 0
2, 6431, Note_on_c, 0, 40, 0
2, 6431, Note_on_c, 0, 47, 0
2, 6432, Note_on_c, 0, 54, 0
2, 6433, Control_c, 0, 64, 104
2, 6437, Control_c, 0, 64, 88
2, 6440, Control_c, 0, 64, 72
2, 6443, Control_c, 0, 64, 40
2, 6447, Control_c, 0, 64, 24
2, 6450, Control_c, 0, 64, 0
2, 6455, Note_on_c, 0, 62, 78
2, 6456, Note_on_c, 0, 55, 63
2, 6458, Note_on_c, 0, 40, 54
2, 6460, Note_on_c, 0, 47, 68
2, 6466, Note_on_c, 0, 40, 0
2, 6471, Note_on_c, 0, 62, 0
2, 6471, Note_on_c, 0, 55, 0
2, 6471, Note_on_c, 0, 47, 0
2, 6492, Note_on_c, 0, 54, 66
2, 6495, Note_on_c, 0, 62, 78
2, 6495, Note_on_c, 0, 69, 78
2, 6498, Note_on_c, 0, 47, 37
2, 6504, Note_on_c, 0, 54, 0
2, 6506, Note_on_c, 0, 47, 0
2, 6517, Note_on_c, 0, 62, 0
2, 6520, Note_on_c, 0, 69, 0
2, 6530, Note_on_c, 0, 54, 45
2, 6532, Note_on_c, 0, 40, 35
2, 6532, Note_on_c, 0, 47, 56
2, 6539, Note_on_c, 0, 47, 0
2, 6539, Note_on_c, 0, 40, 0
2, 6540, Note_on_c, 0, 54, 0
2, 6563, Note_on_c, 0, 62, 78
2, 6565, Note_on_c, 0, 55, 66
2, 6566, Note_on_c, 0, 40, 53
2, 6567, Note_on_c, 0, 47, 65
2, 6575, Note_on_c, 0, 47, 0
2, 6576, Note_on_c, 0, 40, 0
2, 6578, Note_on_c, 0, 55, 0
2, 6578, Note_on_c, 0, 62, 0
2, 6603, Note_on_c, 0, 40, 49
2, 6605, Note_on_c, 0, 47, 61
2, 6605, Note_on_c, 0, 62, 73
2, 6606, Note_on_c, 0, 55, 57
2, 6612, Note_on_c, 0, 47, 0
2, 6613, Note_on_c, 0, 40, 0
2, 6616, Note_on_c, 0, 55, 0
2, 6617, Note_on_c, 0, 62, 0
2, 6640, Note_on_c, 0, 40, 51
2, 6642, Note_on_c, 0, 47, 56
2, 6649, Note_on_c, 0, 47, 0
2, 6650, Note_on_c, 0, 40, 0
2, 6678, Note_on_c, 0, 47, 41
2, 6680, Note_on_c, 0, 40, 36
2, 6686, Note_on_c, 0, 47, 0
2, 6687, Note_on_c, 0, 40, 0
2, 6718, Note_on_c, 0, 62, 65
2, 6720, Note_on_c, 0, 40, 46
2, 6721, Note_on_c, 0, 55, 59
2, 6721, Note_on_c, 0, 47, 56
2, 6728, Note_on_c, 0, 47, 0
2, 6730, Note_on_c, 0, 40, 0
2, 6731, Note_on_c, 0, 55, 0
2, 6733, Note_on_c, 0, 62, 0
2, 6851, Note_on_c, 0, 55, 57
2, 6855, Note_on_c, 0, 40, 36
2, 6856, Note_on_c, 0, 48, 48
2, 6864, Note_on_c, 0, 48, 0
2, 6865, Note_on_c, 0, 40, 0
2, 6866, Note_on_c, 0, 55, 0
2, 7142, Note_on_c, 0, 55, 46
2, 7142, Note_on_c, 0, 31, 47
2, 7150, Note_on_c, 0, 31, 0
2, 7152, Note_on_c, 0, 33, 60
2, 7155, Note_on_c, 0, 57, 54
2, 7157, Note_on_c, 0, 55, 0
2, 7162, Note_on_c, 0, 59, 53
2, 7167, Note_on_c, 0, 35, 59
2, 7168, Note_on_c, 0, 33, 0
2, 7173, Note_on_c, 0, 57, 0
2, 7175, Note_on_c, 0, 59, 0
2, 7176, Note_on_c, 0, 36, 73
2, 7177, Note_on_c, 0, 35, 0
2, 7178, Note_on_c, 0, 60, 81
2, 7181, Note_on_c, 0, 48, 73
2, 7186, Note_on_c, 0, 36, 0
2, 7191, Note_on_c, 0, 48, 0
2, 7191, Note_on_c, 0, 60, 0
2, 7255, Note_on_c, 0, 55, 57
2, 7257, Note_on_c, 0, 31, 47
2, 7271, Note_on_c, 0, 57, 69
2, 7271, Note_on_c, 0, 33, 68
2, 7274, Note_on_c, 0, 31, 0
2, 7276, Note_on_c, 0, 55, 0
2, 7283, Note_on_c, 0, 59, 68
2, 7286, Note_on_c, 0, 35, 76
2, 7288, Note_on_c, 0, 33, 0
2, 7293, Note_on_c, 0, 57, 0
2, 7298, Note_on_c, 0, 36, 75
2, 7299, Note_on_c, 0, 59, 0
2, 7299, Note_on_c, 0, 35, 0
2, 7300, Note_on_c, 0, 60, 79
2, 7301, Note_on_c, 0, 48, 74
2, 7309, Note_on_c, 0, 36, 0
2, 7312, Note_on_c, 0, 48, 0
2, 7317, Note_on_c, 0, 60, 0
2, 7378, Note_on_c, 0, 33, 53
2, 7378, Note_on_c, 0, 57, 51
2, 7391, Note_on_c, 0, 35, 78
2, 7393, Note_on_c, 0, 59, 72
2, 7395, Note_on_c, 0, 33, 0
2, 7400, Note_on_c, 0, 57, 0
2, 7400, Note_on_c, 0, 60, 69
2, 7403, Note_on_c, 0, 36, 74
2, 7408, Note_on_c, 0, 35, 0
2, 7411, Note_on_c, 0, 59, 0
2, 7416, Note_on_c, 0, 38, 80
2, 7417, Note_on_c, 0, 60, 0
2, 7417, Note_on_c, 0, 62, 83
2, 7417, Note_on_c, 0, 50, 84
2, 7420, Note_on_c, 0, 36, 0
2, 7427, Note_on_c, 0, 38, 0
2, 7428, Note_on_c, 0, 50, 0
2, 7429, Note_on_c, 0, 62, 0
2, 7498, Note_on_c, 0, 35, 59
2, 7500, Note_on_c, 0, 59, 45
2, 7507, Note_on_c, 0, 60, 71
2, 7511, Note_on_c, 0, 36, 73
2, 7517, Note_on_c, 0, 62, 52
2, 7519, Note_on_c, 0, 35, 0
2, 7521, Note_on_c, 0, 59, 0
2, 7523, Note_on_c, 0, 36, 0
2, 7523, Note_on_c, 0, 38, 77
2, 7529, Note_on_c, 0, 60, 0
2, 7531, Note_on_c, 0, 64, 92
2, 7533, Note_on_c, 0, 62, 0
2, 7533, Note_on_c, 0, 40, 81
2, 7533, Note_on_c, 0, 52, 76
2, 7535, Note_on_c, 0, 38, 0
2, 7539, Note_on_c, 0, 52, 0
2, 7543, Note_on_c, 0, 64, 0
2, 7544, Note_on_c, 0, 40, 0
2, 7610, Note_on_c, 0, 59, 72
2, 7612, Note_on_c, 0, 35, 62
2, 7618, Note_on_c, 0, 35, 0
2, 7623, Note_on_c, 0, 59, 0
2, 7651, Note_on_c, 0, 40, 74
2, 7652, Note_on_c, 0, 64, 81
2, 7652, Note_on_c, 0, 52, 67
2, 7657, Note_on_c, 0, 40, 0
2, 7658, Note_on_c, 0, 52, 0
2, 7663, Note_on_c, 0, 64, 0
2, 7730, Note_on_c, 0, 60, 80
2, 7732, Note_on_c, 0, 48, 73
2, 7732, Note_on_c, 0, 36, 59
2, 7737, Note_on_c, 0, 48, 0
2, 7739, Note_on_c, 0, 36, 0
2, 7742, Note_on_c, 0, 60, 0
2, 7771, Note_on_c, 0, 41, 78
2, 7771, Note_on_c, 0, 53, 77
2, 7772, Note_on_c, 0, 65, 75
2, 7776, Note_on_c, 0, 41, 0
2, 7777, Note_on_c, 0, 65, 0
2, 7777, Note_on_c, 0, 53, 0
2, 7847, Note_on_c, 0, 60, 70
2, 7851, Note_on_c, 0, 48, 55
2, 7851, Note_on_c, 0, 36, 43
2, 7858, Note_on_c, 0, 36, 0
2, 7858, Note_on_c, 0, 48, 0
2, 7859, Note_on_c, 0, 60, 0
2, 7887, Note_on_c, 0, 65, 88
2, 7888, Note_on_c, 0, 41, 79
2, 7888, Note_on_c, 0, 53, 75
2, 7894, Note_on_c, 0, 53, 0
2, 7896, Note_on_c, 0, 41, 0
2, 7899, Note_on_c, 0, 65, 0
2, 7963, Note_on_c, 0, 61, 70
2, 7963, Note_on_c, 0, 49, 58
2, 7963, Note_on_c, 0, 37, 50
2, 7969, Note_on_c, 0, 49, 0
2, 7970, Note_on_c, 0, 37, 0
2, 7978, Note_on_c, 0, 61, 0
2, 8002, Note_on_c, 0, 42, 70
2, 8005, Note_on_c, 0, 54, 65
2, 8005, Note_on_c, 0, 66, 77
2, 8010, Note_on_c, 0, 42, 0
2, 8015, Note_on_c, 0, 54, 0
2, 8016, Note_on_c, 0, 66, 0
2, 8080, Note_on_c, 0, 62, 84
2, 8080, Note_on_c, 0, 38, 63
2, 8080, Note_on_c, 0, 50, 65
2, 8086, Note_on_c, 0, 38, 0
2, 8087, Note_on_c, 0, 50, 0
2, 8093, Note_on_c, 0, 62, 0
2, 8120, Note_on_c, 0, 67, 97
2, 8121, Note_on_c, 0, 55, 85
2, 8121, Note_on_c, 0, 43, 80
2, 8127, Note_on_c, 0, 55, 0
2, 8128, Note_on_c, 0, 43, 0
2, 8132, Note_on_c, 0, 67, 0
2, 8197, Note_on_c, 0, 63, 74
2, 8197, Note_on_c, 0, 39, 48
2, 8197, Note_on_c, 0, 51, 67
2, 8204, Note_on_c, 0, 39, 0
2, 8207, Note_on_c, 0, 51, 0
2, 8213, Note_on_c, 0, 63, 0
2, 8235, Note_on_c, 0, 68, 84
2, 8235, Note_on_c, 0, 56, 75
2, 8235, Note_on_c, 0, 44, 58
2, 8248, Note_on_c, 0, 44, 0
2, 8248, Note_on_c, 0, 56, 0
2, 8251, Note_on_c, 0, 68, 0
2, 8270, Note_on_c, 0, 64, 85
2, 8270, Note_on_c, 0, 52, 61
2, 8270, Note_on_c, 0, 40, 55
2, 8278, Note_on_c, 0, 40, 0
2, 8283, Note_on_c, 0, 52, 0
2, 8286, Note_on_c, 0, 64, 0
2, 8306, Note_on_c, 0, 69, 94
2, 8306, Note_on_c, 0, 57, 74
2, 8306, Note_on_c, 0, 45, 63
2, 8317, Note_on_c, 0, 45, 0
2, 8318, Note_on_c, 0, 57, 0
2, 8329, Note_on_c, 0, 69, 0
2, 8341, Note_on_c, 0, 65, 84
2, 8341, Note_on_c, 0, 53, 70
2, 8341, Note_on_c, 0, 41, 70
2, 8353, Note_on_c, 0, 41, 0
2, 8353, Note_on_c, 0, 53, 0
2, 8354, Note_on_c, 0, 65, 0
2, 8378, Note_on_c, 0, 66, 75
2, 8378, Note_on_c, 0, 54, 78
2, 8378, Note_on_c, 0, 42, 70
2, 8390, Note_on_c, 0, 42, 0
2, 8390, Note_on_c, 0, 54, 0
2, 8396, Note_on_c, 0, 66, 0
2, 8416, Note_on_c, 0, 71, 92
2, 8416, Note_on_c, 0, 59, 74
2, 8416, Note_on_c, 0, 47, 67
2, 8416, Note_on_c, 0, 35, 74
2, 8422, Note_on_c, 0, 47, 0
2, 8422, Note_on_c, 0, 59, 0
2, 8423, Note_on_c, 0, 35, 0
2, 8429, Note_on_c, 0, 71, 0
2, 8456, Note_on_c, 0, 76, 96
2, 8456, Note_on_c, 0, 64, 83
2, 8456, Note_on_c, 0, 52, 52
2, 8456, Note_on_c, 0, 40, 70
2, 8461, Control_c, 0, 64, 40
2, 8463, Control_c, 0, 64, 72
2, 8464, Note_on_c, 0, 52, 0
2, 8466, Note_on_c, 0, 76, 0
2, 8467, Note_on_c, 0, 64, 0
2, 8467, Control_c, 0, 64, 104
2, 8468, Note_on_c, 0, 40, 0
2, 8482, Control_c, 0, 64, 72
2, 8486, Control_c, 0, 64, 56
2, 8488, Control_c, 0, 64, 40
2, 8492, Control_c, 0, 64, 24
2, 8495, Control_c, 0, 64, 0
2, 8531, Note_on_c, 0, 71, 92
2, 8532, Note_on_c, 0, 59, 80
2, 8532, Note_on_c, 0, 35, 66
2, 8533, Note_on_c, 0, 47, 73
2, 8538, Note_on_c, 0, 35, 0
2, 8542, Note_on_c, 0, 59, 0
2, 8545, Note_on_c, 0, 47, 0
2, 8548, Note_on_c, 0, 71, 0
2, 8572, Note_on_c, 0, 76, 100
2, 8572, Note_on_c, 0, 64, 86
2, 8572, Note_on_c, 0, 52, 79
2, 8572, Note_on_c, 0, 40, 69
2, 8577, Note_on_c, 0, 40, 0
2, 8577, Note_on_c, 0, 52, 0
2, 8579, Note_on_c, 0, 64, 0
2, 8584, Note_on_c, 0, 76, 0
2, 8648, Note_on_c, 0, 72, 94
2, 8648, Note_on_c, 0, 60, 79
2, 8652, Note_on_c, 0, 48, 73
2, 8653, Note_on_c, 0, 36, 50
2, 8656, Note_on_c, 0, 60, 0
2, 8658, Note_on_c, 0, 48, 0
2, 8659, Note_on_c, 0, 36, 0
2, 8664, Note_on_c, 0, 72, 0
2, 8690, Note_on_c, 0, 77, 96
2, 8690, Note_on_c, 0, 53, 53
2, 8690, Note_on_c, 0, 65, 70
2, 8690, Note_on_c, 0, 41, 70
2, 8697, Note_on_c, 0, 53, 0
2, 8698, Note_on_c, 0, 65, 0
2, 8701, Note_on_c, 0, 77, 0
2, 8702, Note_on_c, 0, 41, 0
2, 8766, Note_on_c, 0, 72, 93
2, 8766, Note_on_c, 0, 60, 83
2, 8768, Note_on_c, 0, 48, 68
2, 8770, Note_on_c, 0, 36, 55
2, 8775, Note_on_c, 0, 48, 0
2, 8776, Note_on_c, 0, 36, 0
2, 8776, Note_on_c, 0, 60, 0
2, 8781, Note_on_c, 0, 72, 0
2, 8805, Note_on_c, 0, 77, 97
2, 8806, Note_on_c, 0, 53, 72
2, 8807, Note_on_c, 0, 65, 74
2, 8807, Note_on_c, 0, 41, 70
2, 8812, Note_on_c, 0, 53, 0
2, 8813, Note_on_c, 0, 41, 0
2, 8814, Note_on_c, 0, 65, 0
2, 8818, Note_on_c, 0, 77, 0
2, 8877, Note_on_c, 0, 61, 78
2, 8878, Note_on_c, 0, 73, 95
2, 8880, Note_on_c, 0, 49, 68
2, 8881, Note_on_c, 0, 37, 64
2, 8887, Note_on_c, 0, 49, 0
2, 8889, Note_on_c, 0, 61, 0
2, 8891, Note_on_c, 0, 37, 0
2, 8893, Note_on_c, 0, 73, 0
2, 8920, Note_on_c, 0, 78, 88
2, 8921, Note_on_c, 0, 54, 79
2, 8922, Note_on_c, 0, 66, 77
2, 8923, Note_on_c, 0, 42, 45
2, 8929, Note_on_c, 0, 54, 0
2, 8930, Note_on_c, 0, 42, 0
2, 8932, Note_on_c, 0, 66, 0
2, 8935, Note_on_c, 0, 78, 0
2, 8993, Note_on_c, 0, 74, 98
2, 8995, Note_on_c, 0, 62, 89
2, 8996, Note_on_c, 0, 50, 73
2, 8996, Note_on_c, 0, 38, 71
2, 9002, Note_on_c, 0, 38, 0
2, 9003, Note_on_c, 0, 50, 0
2, 9006, Note_on_c, 0, 62, 0
2, 9008, Note_on_c, 0, 74, 0
2, 9035, Note_on_c, 0, 79, 98
2, 9036, Note_on_c, 0, 67, 84
2, 9036, Note_on_c, 0, 55, 76
2, 9038, Note_on_c, 0, 43, 73
2, 9040, Control_c, 0, 64, 40
2, 9043, Note_on_c, 0, 43, 0
2, 9043, Note_on_c, 0, 55, 0
2, 9043, Control_c, 0, 64, 72
2, 9044, Note_on_c, 0, 67, 0
2, 9046, Note_on_c, 0, 79, 0
2, 9058, Control_c, 0, 64, 40
2, 9062, Control_c, 0, 64, 24
2, 9065, Control_c, 0, 64, 0
2, 9107, Note_on_c, 0, 63, 78
2, 9107, Note_on_c, 0, 51, 70
2, 9107, Note_on_c, 0, 39, 71
2, 9107, Note_on_c, 0, 75, 96
2, 9112, Note_on_c, 0, 51, 0
2, 9113, Note_on_c, 0, 39, 0
2, 9118, Note_on_c, 0, 63, 0
2, 9120, Note_on_c, 0, 75, 0
2, 9143, Note_on_c, 0, 80, 97
2, 9143, Note_on_c, 0, 44, 75
2, 9145, Note_on_c, 0, 56, 74
2, 9146, Note_on_c, 0, 68, 83
2, 9152, Note_on_c, 0, 56, 0
2, 9155, Note_on_c, 0, 80, 0
2, 9155, Note_on_c, 0, 44, 0
2, 9156, Note_on_c, 0, 68, 0
2, 9178, Note_on_c, 0, 76, 98
2, 9180, Note_on_c, 0, 52, 80
2, 9181, Note_on_c, 0, 64, 78
2, 9182, Note_on_c, 0, 40, 71
2, 9185, Note_on_c, 0, 52, 0
2, 9186, Note_on_c, 0, 64, 0
2, 9187, Note_on_c, 0, 40, 0
2, 9189, Note_on_c, 0, 76, 0
2, 9215, Note_on_c, 0, 57, 76
2, 9216, Note_on_c, 0, 81, 97
2, 9216, Note_on_c, 0, 45, 84
2, 9218, Note_on_c, 0, 69, 62
2, 9221, Note_on_c, 0, 57, 0
2, 9222, Note_on_c, 0, 45, 0
2, 9224, Note_on_c, 0, 69, 0
2, 9226, Note_on_c, 0, 81, 0
2, 9250, Note_on_c, 0, 77, 103
2, 9250, Note_on_c, 0, 65, 94
2, 9251, Note_on_c, 0, 53, 79
2, 9253, Note_on_c, 0, 41, 78
2, 9258, Note_on_c, 0, 41, 0
2, 9261, Note_on_c, 0, 53, 0
2, 9261, Note_on_c, 0, 65, 0
2, 9262, Note_on_c, 0, 77, 0
2, 9285, Note_on_c, 0, 78, 100
2, 9285, Note_on_c, 0, 42, 83
2, 9285, Note_on_c, 0, 66, 91
2, 9286, Note_on_c, 0, 54, 83
2, 9294, Note_on_c, 0, 54, 0
2, 9295, Note_on_c, 0, 66, 0
2, 9295, Note_on_c, 0, 42, 0
2, 9300, Note_on_c, 0, 78, 0
2, 9325, Note_on_c, 0, 47, 85
2, 9325, Note_on_c, 0, 59, 78
2, 9325, Note_on_c, 0, 71, 93
2, 9325, Note_on_c, 0, 83, 107
2, 9330, Note_on_c, 0, 47, 0
2, 9331, Note_on_c, 0, 59, 0
2, 9331, Note_on_c, 0, 71, 0
2, 9333, Note_on_c, 0, 83, 0
2, 9361, Control_c, 0, 64, 40
2, 9363, Control_c, 0, 64, 88
2, 9365, Note_on_c, 0, 88, 102
2, 9366, Note_on_c, 0, 76, 92
2, 9366, Note_on_c, 0, 64, 78
2, 9367, Control_c, 0, 64, 127
2, 9368, Note_on_c, 0, 52, 70
2, 9371, Note_on_c, 0, 64, 0
2, 9373, Note_on_c, 0, 52, 0
2, 9373, Note_on_c, 0, 76, 0
2, 9375, Note_on_c, 0, 88, 0
2, 9392, Control_c, 0, 64, 104
2, 9396, Control_c, 0, 64, 72
2, 9398, Control_c, 0, 64, 40
2, 9402, Control_c, 0, 64, 0
2, 9438, Note_on_c, 0, 83, 98
2, 9440, Note_on_c, 0, 71, 87
2, 9442, Note_on_c, 0, 59, 70
2, 9442, Note_on_c, 0, 47, 70
2, 9443, Control_c, 0, 64, 24
2, 9446, Control_c, 0, 64, 40
2, 9448, Note_on_c, 0, 47, 0
2, 9450, Note_on_c, 0, 59, 0
2, 9450, Note_on_c, 0, 71, 0
2, 9455, Note_on_c, 0, 83, 0
2, 9471, Control_c, 0, 64, 56
2, 9477, Control_c, 0, 64, 72
2, 9481, Note_on_c, 0, 88, 102
2, 9481, Note_on_c, 0, 76, 92
2, 9482, Note_on_c, 0, 64, 76
2, 9485, Note_on_c, 0, 52, 75
2, 9488, Note_on_c, 0, 64, 0
2, 9489, Note_on_c, 0, 88, 0
2, 9490, Note_on_c, 0, 52, 0
2, 9491, Note_on_c, 0, 76, 0
2, 9492, Control_c, 0, 64, 56
2, 9496, Control_c, 0, 64, 40
2, 9500, Control_c, 0, 64, 24
2, 9502, Control_c, 0, 64, 0
2, 9553, Note_on_c, 0, 83, 106
2, 9553, Note_on_c, 0, 71, 91
2, 9555, Note_on_c, 0, 47, 71
2, 9556, Note_on_c, 0, 59, 70
2, 9562, Note_on_c, 0, 47, 0
2, 9563, Note_on_c, 0, 71, 0
2, 9566, Note_on_c, 0, 59, 0
2, 9569, Note_on_c, 0, 83, 0
2, 9591, Control_c, 0, 64, 40
2, 9593, Control_c, 0, 64, 88
2, 9595, Note_on_c, 0, 88, 102
2, 9596, Note_on_c, 0, 76, 92
2, 9597, Note_on_c, 0, 64, 78
2, 9597, Control_c, 0, 64, 127
2, 9600, Note_on_c, 0, 52, 73
2, 9603, Note_on_c, 0, 64, 0
2, 9605, Note_on_c, 0, 88, 0
2, 9606, Note_on_c, 0, 76, 0
2, 9606, Note_on_c, 0, 52, 0
2, 9616, Control_c, 0, 64, 104
2, 9620, Control_c, 0, 64, 72
2, 9622, Control_c, 0, 64, 40
2, 9626, Control_c, 0, 64, 0
2, 9668, Note_on_c, 0, 84, 107
2, 9668, Note_on_c, 0, 72, 96
2, 9670, Note_on_c, 0, 48, 80
2, 9670, Note_on_c, 0, 60, 74
2, 9670, Control_c, 0, 64, 56
2, 9675, Note_on_c, 0, 48, 0
2, 9677, Note_on_c, 0, 60, 0
2, 9678, Note_on_c, 0, 72, 0
2, 9682, Control_c, 0, 64, 24
2, 9683, Note_on_c, 0, 84, 0
2, 9686, Control_c, 0, 64, 0
2, 9708, Note_on_c, 0, 88, 104
2, 9710, Note_on_c, 0, 64, 84
2, 9710, Note_on_c, 0, 76, 95
2, 9710, Control_c, 0, 64, 40
2, 9711, Note_on_c, 0, 52, 80
2, 9713, Control_c, 0, 64, 72
2, 9716, Note_on_c, 0, 64, 0
2, 9716, Control_c, 0, 64, 104
2, 9717, Note_on_c, 0, 52, 0
2, 9720, Control_c, 0, 64, 127
2, 9721, Note_on_c, 0, 76, 0
2, 9721, Note_on_c, 0, 88, 0
2, 9738, Control_c, 0, 64, 72
2, 9741, Control_c, 0, 64, 40
2, 9745, Control_c, 0, 64, 0
2, 9776, Control_c, 0, 64, 24
2, 9778, Control_c, 0, 64, 40
2, 9781, Note_on_c, 0, 84, 107
2, 9781, Note_on_c, 0, 72, 97
2, 9781, Note_on_c, 0, 60, 80
2, 9782, Note_on_c, 0, 48, 88
2, 9782, Control_c, 0, 64, 72
2, 9786, Control_c, 0, 64, 88
2, 9787, Note_on_c, 0, 48, 0
2, 9788, Control_c, 0, 64, 104
2, 9791, Note_on_c, 0, 60, 0
2, 9791, Note_on_c, 0, 72, 0
2, 9796, Note_on_c, 0, 84, 0
2, 9805, Control_c, 0, 64, 24
2, 9807, Control_c, 0, 64, 0
2, 9821, Note_on_c, 0, 64, 82
2, 9822, Note_on_c, 0, 88, 107
2, 9823, Note_on_c, 0, 76, 95
2, 9823, Note_on_c, 0, 52, 69
2, 9827, Note_on_c, 0, 64, 0
2, 9827, Control_c, 0, 64, 40
2, 9829, Note_on_c, 0, 52, 0
2, 9830, Control_c, 0, 64, 72
2, 9833, Note_on_c, 0, 76, 0
2, 9833, Control_c, 0, 64, 104
2, 9834, Note_on_c, 0, 88, 0
2, 9846, Control_c, 0, 64, 127
2, 9876, Note_on_c, 0, 88, 106
2, 9876, Note_on_c, 0, 76, 98
2, 9876, Note_on_c, 0, 61, 80
2, 9876, Note_on_c, 0, 85, 78
2, 9876, Note_on_c, 0, 80, 82
2, 9877, Note_on_c, 0, 49, 83
2, 9877, Note_on_c, 0, 56, 80
2, 9882, Note_on_c, 0, 56, 0
2, 9882, Note_on_c, 0, 85, 0
2, 9882, Note_on_c, 0, 76, 0
2, 9882, Note_on_c, 0, 80, 0
2, 9883, Note_on_c, 0, 61, 0
2, 9883, Note_on_c, 0, 49, 0
2, 9883, Control_c, 0, 64, 104
2, 9886, Note_on_c, 0, 88, 0
2, 9887, Control_c, 0, 64, 56
2, 9890, Control_c, 0, 64, 24
2, 9892, Note_on_c, 0, 88, 92
2, 9892, Note_on_c, 0, 76, 107
2, 9893, Note_on_c, 0, 80, 79
2, 9893, Note_on_c, 0, 85, 70
2, 9893, Control_c, 0, 64, 0
2, 9897, Note_on_c, 0, 61, 62
2, 9897, Note_on_c, 0, 49, 71
2, 9898, Note_on_c, 0, 56, 59
2, 9902, Control_c, 0, 64, 40
2, 9904, Note_on_c, 0, 80, 0
2, 9905, Note_on_c, 0, 56, 0
2, 9906, Control_c, 0, 64, 56
2, 9907, Note_on_c, 0, 76, 0
2, 9908, Note_on_c, 0, 49, 0
2, 9908, Control_c, 0, 64, 88
2, 9909, Note_on_c, 0, 61, 0
2, 9912, Note_on_c, 0, 88, 0
2, 9913, Note_on_c, 0, 85, 0
2, 9918, Control_c, 0, 64, 0
2, 9932, Note_on_c, 0, 88, 107
2, 9932, Note_on_c, 0, 85, 95
2, 9932, Note_on_c, 0, 76, 107
2, 9933, Note_on_c, 0, 80, 89
2, 9933, Note_on_c, 0, 56, 82
2, 9933, Control_c, 0, 64, 72
2, 9935, Note_on_c, 0, 61, 80
2, 9935, Note_on_c, 0, 49, 79
2, 9937, Control_c, 0, 64, 127
2, 9943, Note_on_c, 0, 61, 0
2, 9945, Note_on_c, 0, 80, 0
2, 9945, Note_on_c, 0, 56, 0
2, 9946, Note_on_c, 0, 49, 0
2, 9950, Note_on_c, 0, 76, 0
2, 9952, Note_on_c, 0, 88, 0
2, 9955, Note_on_c, 0, 85, 0
2, 9981, Note_on_c, 0, 76, 96
2, 9981, Note_on_c, 0, 88, 96
2, 9982, Note_on_c, 0, 85, 79
2, 9982, Note_on_c, 0, 56, 78
2, 9983, Note_on_c, 0, 80, 72
2, 9985, Note_on_c, 0, 52, 78
2, 9986, Note_on_c, 0, 44, 61
2, 9987, Note_on_c, 0, 85, 0
2, 9987, Note_on_c, 0, 88, 0
2, 9988, Note_on_c, 0, 80, 0
2, 9989, Note_on_c, 0, 76, 0
2, 9990, Note_on_c, 0, 52, 0
2, 9991, Note_on_c, 0, 44, 0
2, 9993, Note_on_c, 0, 56, 0
2, 9998, Note_on_c, 0, 88, 106
2, 9998, Note_on_c, 0, 85, 84
2, 10000, Note_on_c, 0, 76, 107
2, 10000, Note_on_c, 0, 80, 77
2, 10002, Note_on_c, 0, 44, 69
2, 10003, Note_on_c, 0, 56, 67
2, 10003, Note_on_c, 0, 52, 71
2, 10015, Note_on_c, 0, 56, 0
2, 10015, Note_on_c, 0, 44, 0
2, 10016, Note_on_c, 0, 80, 0
2, 10016, Note_on_c, 0, 76, 0
2, 10018, Note_on_c, 0, 88, 0
2, 10018, Note_on_c, 0, 52, 0
2, 10019, Note_on_c, 0, 85, 0
2, 10022, Control_c, 0, 64, 104
2, 10025, Control_c, 0, 64, 56
2, 10028, Control_c, 0, 64, 0
2, 10038, Note_on_c, 0, 88, 107
2, 10038, Note_on_c, 0, 85, 98
2, 10038, Control_c, 0, 64, 40
2, 10040, Note_on_c, 0, 76, 107
2, 10040, Note_on_c, 0, 80, 105
2, 10040, Note_on_c, 0, 56, 92
2, 10041, Note_on_c, 0, 52, 78
2, 10041, Note_on_c, 0, 44, 83
2, 10041, Control_c, 0, 64, 127
2, 10046, Note_on_c, 0, 52, 0
2, 10051, Note_on_c, 0, 56, 0
2, 10059, Note_on_c, 0, 44, 0
2, 10060, Note_on_c, 0, 88, 0
2, 10060, Note_on_c, 0, 80, 0
2, 10061, Note_on_c, 0, 76, 0
2, 10061, Note_on_c, 0, 85, 0
2, 10087, Note_on_c, 0, 52, 84
2, 10088, Note_on_c, 0, 88, 98
2, 10088, Note_on_c, 0, 76, 97
2, 10088, Note_on_c, 0, 49, 78
2, 10088, Note_on_c, 0, 85, 82
2, 10088, Note_on_c, 0, 80, 81
2, 10088, Note_on_c, 0, 40, 76
2, 10093, Note_on_c, 0, 85, 0
2, 10093, Note_on_c, 0, 49, 0
2, 10094, Note_on_c, 0, 88, 0
2, 10094, Note_on_c, 0, 80, 0
2, 10095, Note_on_c, 0, 52, 0
2, 10095, Note_on_c, 0, 40, 0
2, 10095, Note_on_c, 0, 76, 0
2, 10105, Note_on_c, 0, 88, 107
2, 10105, Note_on_c, 0, 85, 86
2, 10106, Note_on_c, 0, 76, 107
2, 10106, Note_on_c, 0, 80, 79
2, 10107, Control_c, 0, 64, 104
2, 10111, Note_on_c, 0, 52, 73
2, 10111, Note_on_c, 0, 40, 64
2, 10111, Note_on_c, 0, 49, 81
2, 10111, Control_c, 0, 64, 40
2, 10113, Control_c, 0, 64, 24
2, 10117, Control_c, 0, 64, 40
2, 10120, Control_c, 0, 64, 88
2, 10122, Note_on_c, 0, 40, 0
2, 10123, Note_on_c, 0, 52, 0
2, 10123, Note_on_c, 0, 49, 0
2, 10123, Control_c, 0, 64, 127
2, 10124, Note_on_c, 0, 76, 0
2, 10124, Note_on_c, 0, 80, 0
2, 10127, Note_on_c, 0, 88, 0
2, 10128, Note_on_c, 0, 85, 0
2, 10143, Note_on_c, 0, 88, 104
2, 10143, Note_on_c, 0, 76, 107
2, 10143, Note_on_c, 0, 85, 91
2, 10143, Note_on_c, 0, 80, 96
2, 10143, Note_on_c, 0, 49, 92
2, 10145, Note_on_c, 0, 52, 92
2, 10146, Note_on_c, 0, 40, 73
2, 10152, Note_on_c, 0, 40, 0
2, 10154, Note_on_c, 0, 49, 0
2, 10156, Note_on_c, 0, 52, 0
2, 10166, Note_on_c, 0, 80, 0
2, 10168, Note_on_c, 0, 88, 0
2, 10168, Note_on_c, 0, 76, 0
2, 10170, Note_on_c, 0, 85, 0
2, 10196, Note_on_c, 0, 88, 98
2, 10196, Note_on_c, 0, 76, 98
2, 10197, Note_on_c, 0, 85, 88
2, 10197, Note_on_c, 0, 80, 81
2, 10201, Note_on_c, 0, 49, 93
2, 10201, Note_on_c, 0, 37, 80
2, 10201, Note_on_c, 0, 44, 83
2, 10202, Note_on_c, 0, 80, 0
2, 10204, Note_on_c, 0, 85, 0
2, 10206, Note_on_c, 0, 76, 0
2, 10207, Note_on_c, 0, 44, 0
2, 10207, Note_on_c, 0, 88, 0
2, 10207, Note_on_c, 0, 37, 0
2, 10208, Note_on_c, 0, 49, 0
2, 10216, Note_on_c, 0, 88, 107
2, 10216, Note_on_c, 0, 76, 107
2, 10216, Note_on_c, 0, 85, 92
2, 10217, Note_on_c, 0, 80, 85
2, 10222, Note_on_c, 0, 49, 79
2, 10222, Note_on_c, 0, 37, 64
2, 10225, Note_on_c, 0, 44, 77
2, 10233, Note_on_c, 0, 49, 0
2, 10234, Note_on_c, 0, 80, 0
2, 10234, Note_on_c, 0, 76, 0
2, 10234, Note_on_c, 0, 37, 0
2, 10236, Note_on_c, 0, 88, 0
2, 10236, Note_on_c, 0, 44, 0
2, 10237, Note_on_c, 0, 85, 0
2, 10253, Note_on_c, 0, 49, 90
2, 10253, Note_on_c, 0, 37, 69
2, 10255, Note_on_c, 0, 88, 107
2, 10255, Note_on_c, 0, 85, 100
2, 10255, Note_on_c, 0, 76, 107
2, 10255, Note_on_c, 0, 44, 77
2, 10256, Note_on_c, 0, 80, 97
2, 10262, Note_on_c, 0, 44, 0
2, 10264, Note_on_c, 0, 37, 0
2, 10265, Note_on_c, 0, 49, 0
2, 10269, Note_on_c, 0, 80, 0
2, 10270, Note_on_c, 0, 76, 0
2, 10273, Note_on_c, 0, 88, 0
2, 10273, Note_on_c, 0, 85, 0
2, 10290, Note_on_c, 0, 88, 107
2, 10291, Note_on_c, 0, 85, 101
2, 10291, Note_on_c, 0, 76, 107
2, 10291, Note_on_c, 0, 80, 102
2, 10292, Note_on_c, 0, 44, 65
2, 10293, Note_on_c, 0, 40, 82
2, 10297, Note_on_c, 0, 32, 67
2, 10305, Note_on_c, 0, 32, 0
2, 10307, Note_on_c, 0, 76, 0
2, 10307, Note_on_c, 0, 80, 0
2, 10308, Note_on_c, 0, 44, 0
2, 10308, Note_on_c, 0, 40, 0
2, 10308, Note_on_c, 0, 88, 0
2, 10309, Note_on_c, 0, 85, 0
2, 10327, Note_on_c, 0, 76, 107
2, 10327, Note_on_c, 0, 85, 101
2, 10327, Note_on_c, 0, 80, 102
2, 10328, Note_on_c, 0, 88, 107
2, 10328, Note_on_c, 0, 44, 91
2, 10328, Note_on_c, 0, 40, 86
2, 10330, Note_on_c, 0, 32, 80
2, 10341, Note_on_c, 0, 32, 0
2, 10341, Note_on_c, 0, 44, 0
2, 10342, Note_on_c, 0, 76, 0
2, 10343, Note_on_c, 0, 88, 0
2, 10343, Note_on_c, 0, 80, 0
2, 10343, Note_on_c, 0, 40, 0
2, 10345, Note_on_c, 0, 85, 0
2, 10363, Note_on_c, 0, 88, 104
2, 10363, Note_on_c, 0, 80, 100
2, 10365, Note_on_c, 0, 76, 106
2, 10365, Note_on_c, 0, 85, 97
2, 10365, Note_on_c, 0, 44, 92
2, 10366, Note_on_c, 0, 40, 87
2, 10366, Note_on_c, 0, 32, 84
2, 10376, Note_on_c, 0, 44, 0
2, 10376, Note_on_c, 0, 76, 0
2, 10377, Note_on_c, 0, 32, 0
2, 10378, Note_on_c, 0, 40, 0
2, 10378, Note_on_c, 0, 80, 0
2, 10379, Note_on_c, 0, 88, 0
2, 10381, Note_on_c, 0, 85, 0
2, 10398, Note_on_c, 0, 88, 107
2, 10398, Note_on_c, 0, 85, 99
2, 10400, Note_on_c, 0, 80, 100
2, 10400, Note_on_c, 0, 76, 107
2, 10400, Note_on_c, 0, 40, 89
2, 10400, Note_on_c, 0, 44, 90
2, 10400, Note_on_c, 0, 32, 80
2, 10413, Note_on_c, 0, 44, 0
2, 10413, Note_on_c, 0, 76, 0
2, 10414, Note_on_c, 0, 88, 0
2, 10415, Note_on_c, 0, 40, 0
2, 10415, Note_on_c, 0, 85, 0
2, 10415, Note_on_c, 0, 32, 0
2, 10415, Note_on_c, 0, 80, 0
2, 10436, Note_on_c, 0, 40, 89
2, 10436, Note_on_c, 0, 88, 106
2, 10437, Note_on_c, 0, 85, 96
2, 10437, Note_on_c, 0, 76, 107
2, 10437, Note_on_c, 0, 80, 103
2, 10437, Note_on_c, 0, 44, 89
2, 10438, Note_on_c, 0, 32, 64
2, 10449, Note_on_c, 0, 76, 0
2, 10450, Note_on_c, 0, 44, 0
2, 10452, Note_on_c, 0, 80, 0
2, 10454, Note_on_c, 0, 85, 0
2, 10454, Note_on_c, 0, 88, 0
2, 10454, Note_on_c, 0, 32, 0
2, 10458, Note_on_c, 0, 40, 0
2, 10472, Note_on_c, 0, 40, 72
2, 10473, Note_on_c, 0, 88, 107
2, 10473, Note_on_c, 0, 44, 98
2, 10473, Note_on_c, 0, 76, 107
2, 10475, Note_on_c, 0, 80, 101
2, 10475, Note_on_c, 0, 85, 95
2, 10476, Note_on_c, 0, 32, 53
2, 10478, Note_on_c, 0, 40, 0
2, 10481, Note_on_c, 0, 88, 0
2, 10481, Note_on_c, 0, 32, 0
2, 10485, Note_on_c, 0, 44, 0
2, 10487, Note_on_c, 0, 85, 0
2, 10488, Note_on_c, 0, 80, 0
2, 10491, Note_on_c, 0, 76, 0
2, 10512, Note_on_c, 0, 52, 78
2, 10532, Note_on_c, 0, 52, 0
2, 10547, Note_on_c, 0, 56, 107
2, 10557, Note_on_c, 0, 56, 0
2, 10597, Note_on_c, 0, 64, 107
2, 10613, Control_c, 0, 64, 104
2, 10617, Control_c, 0, 64, 0
2, 10645, Control_c, 0, 64, 88
2, 10648, Control_c, 0, 64, 127
2, 10657, Control_c, 0, 64, 88
2, 10661, Control_c, 0, 64, 72
2, 10663, Control_c, 0, 64, 56
2, 10667, Control_c, 0, 64, 40
2, 10673, Control_c, 0, 64, 24
2, 10677, Control_c, 0, 64, 0
2, 10678, Note_on_c, 0, 61, 93
2, 10685, Note_on_c, 0, 64, 0
2, 10711, Control_c, 0, 64, 24
2, 10718, Note_on_c, 0, 61, 0
2, 10723, Control_c, 0, 64, 0
2, 10770, Note_on_c, 0, 52, 98
2, 10790, Control_c, 0, 64, 24
2, 10793, Control_c, 0, 64, 56
2, 10795, Note_on_c, 0, 52, 0
2, 10796, Control_c, 0, 64, 72
2, 10802, Note_on_c, 0, 56, 101
2, 10808, Control_c, 0, 64, 40
2, 10812, Control_c, 0, 64, 0
2, 10813, Note_on_c, 0, 56, 0
2, 10846, Note_on_c, 0, 64, 107
2, 10868, Control_c, 0, 64, 56
2, 10872, Control_c, 0, 64, 104
2, 10875, Control_c, 0, 64, 127
2, 10925, Note_on_c, 0, 61, 83
2, 10931, Note_on_c, 0, 64, 0
2, 10931, Control_c, 0, 64, 88
2, 10935, Control_c, 0, 64, 72
2, 10938, Control_c, 0, 64, 40
2, 10941, Note_on_c, 0, 61, 0
2, 10941, Control_c, 0, 64, 24
2, 10945, Control_c, 0, 64, 0
2, 10958, Note_on_c, 0, 63, 79
2, 10970, Note_on_c, 0, 64, 107
2, 10974, Note_on_c, 0, 63, 0
2, 11003, Control_c, 0, 64, 24
2, 11007, Control_c, 0, 64, 56
2, 11010, Control_c, 0, 64, 72
2, 11013, Control_c, 0, 64, 88
2, 11022, Control_c, 0, 64, 72
2, 11026, Control_c, 0, 64, 56
2, 11032, Control_c, 0, 64, 40
2, 11045, Note_on_c, 0, 61, 70
2, 11045, Control_c, 0, 64, 0
2, 11053, Note_on_c, 0, 64, 0
2, 11061, Note_on_c, 0, 61, 0
2, 11077, Note_on_c, 0, 63, 77
2, 11087, Note_on_c, 0, 64, 100
2, 11093, Note_on_c, 0, 63, 0
2, 11153, Note_on_c, 0, 61, 71
2, 11160, Note_on_c, 0, 64, 0
2, 11168, Note_on_c, 0, 61, 0
2, 11186, Note_on_c, 0, 63, 81
2, 11198, Note_on_c, 0, 64, 96
2, 11203, Note_on_c, 0, 63, 0
2, 11214, Note_on_c, 0, 64, 0
2, 11230, Note_on_c, 0, 64, 83
2, 11247, Note_on_c, 0, 64, 0
2, 11268, Note_on_c, 0, 64, 85
2, 11281, Note_on_c, 0, 64, 0
2, 11303, Note_on_c, 0, 64, 91
2, 11320, Note_on_c, 0, 64, 0
2, 11340, Note_on_c, 0, 64, 85
2, 11355, Note_on_c, 0, 64, 0
2, 11376, Note_on_c, 0, 64, 84
2, 11396, Note_on_c, 0, 64, 0
2, 11406, Note_on_c, 0, 63, 73
2, 11407, Note_on_c, 0, 59, 80
2, 11415, Note_on_c, 0, 64, 95
2, 11419, Note_on_c, 0, 63, 0
2, 11424, Note_on_c, 0, 59, 0
2, 11432, Note_on_c, 0, 64, 0
2, 11447, Note_on_c, 0, 64, 81
2, 11447, Note_on_c, 0, 59, 71
2, 11459, Note_on_c, 0, 59, 0
2, 11462, Note_on_c, 0, 64, 0
2, 11482, Note_on_c, 0, 64, 81
2, 11483, Note_on_c, 0, 59, 59
2, 11491, Note_on_c, 0, 59, 0
2, 11495, Note_on_c, 0, 64, 0
2, 11518, Note_on_c, 0, 64, 85
2, 11520, Note_on_c, 0, 59, 61
2, 11528, Note_on_c, 0, 59, 0
2, 11531, Note_on_c, 0, 64, 0
2, 11552, Note_on_c, 0, 64, 76
2, 11553, Note_on_c, 0, 59, 57
2, 11561, Note_on_c, 0, 59, 0
2, 11567, Note_on_c, 0, 64, 0
2, 11588, Note_on_c, 0, 64, 84
2, 11591, Note_on_c, 0, 59, 63
2, 11597, Note_on_c, 0, 59, 0
2, 11601, Note_on_c, 0, 64, 0
2, 11625, Note_on_c, 0, 64, 95
2, 11626, Note_on_c, 0, 52, 89
2, 11626, Note_on_c, 0, 59, 84
2, 11633, Control_c, 0, 64, 24
2, 11636, Control_c, 0, 64, 56
2, 11637, Note_on_c, 0, 59, 0
2, 11637, Note_on_c, 0, 52, 0
2, 11638, Note_on_c, 0, 64, 0
2, 11640, Control_c, 0, 64, 72
2, 11652, Control_c, 0, 64, 40
2, 11658, Control_c, 0, 64, 24
2, 11662, Control_c, 0, 64, 0
2, 11663, Note_on_c, 0, 64, 82
2, 11665, Note_on_c, 0, 52, 66
2, 11666, Note_on_c, 0, 59, 62
2, 11671, Note_on_c, 0, 64, 0
2, 11673, Note_on_c, 0, 59, 0
2, 11673, Note_on_c, 0, 52, 0
2, 11698, Note_on_c, 0, 64, 76
2, 11698, Note_on_c, 0, 52, 68
2, 11700, Note_on_c, 0, 59, 63
2, 11708, Note_on_c, 0, 52, 0
2, 11710, Note_on_c, 0, 59, 0
2, 11710, Note_on_c, 0, 64, 0
2, 11731, Control_c, 0, 64, 40
2, 11733, Note_on_c, 0, 45, 106
2, 11735, Control_c, 0, 64, 104
2, 11736, Note_on_c, 0, 64, 96
2, 11737, Note_on_c, 0, 52, 91
2, 11737, Note_on_c, 0, 59, 87
2, 11737, Control_c, 0, 64, 127
2, 11748, Note_on_c, 0, 52, 0
2, 11749, Note_on_c, 0, 45, 0
2, 11749, Note_on_c, 0, 64, 0
2, 11750, Note_on_c, 0, 59, 0
2, 11766, Control_c, 0, 64, 88
2, 11768, Control_c, 0, 64, 72
2, 11772, Note_on_c, 0, 45, 86
2, 11772, Note_on_c, 0, 64, 84
2, 11772, Control_c, 0, 64, 40
2, 11773, Note_on_c, 0, 52, 74
2, 11773, Note_on_c, 0, 59, 77
2, 11775, Control_c, 0, 64, 24
2, 11778, Control_c, 0, 64, 0
2, 11779, Note_on_c, 0, 59, 0
2, 11779, Note_on_c, 0, 52, 0
2, 11784, Note_on_c, 0, 64, 0
2, 11784, Note_on_c, 0, 45, 0
2, 11807, Note_on_c, 0, 64, 86
2, 11807, Note_on_c, 0, 45, 81
2, 11807, Note_on_c, 0, 52, 77
2, 11810, Note_on_c, 0, 59, 63
2, 11816, Note_on_c, 0, 59, 0
2, 11817, Note_on_c, 0, 52, 0
2, 11817, Note_on_c, 0, 45, 0
2, 11819, Note_on_c, 0, 64, 0
2, 11843, Note_on_c, 0, 40, 103
2, 11843, Note_on_c, 0, 45, 107
2, 11843, Note_on_c, 0, 64, 102
2, 11843, Control_c, 0, 64, 72
2, 11845, Note_on_c, 0, 52, 97
2, 11845, Note_on_c, 0, 59, 93
2, 11847, Control_c, 0, 64, 127
2, 11856, Note_on_c, 0, 52, 0
2, 11856, Note_on_c, 0, 45, 0
2, 11856, Note_on_c, 0, 40, 0
2, 11858, Note_on_c, 0, 59, 0
2, 11859, Note_on_c, 0, 64, 0
2, 11881, Note_on_c, 0, 40, 80
2, 11882, Note_on_c, 0, 64, 89
2, 11883, Note_on_c, 0, 59, 78
2, 11883, Note_on_c, 0, 52, 79
2, 11883, Note_on_c, 0, 45, 68
2, 11888, Note_on_c, 0, 45, 0
2, 11890, Note_on_c, 0, 59, 0
2, 11890, Note_on_c, 0, 52, 0
2, 11891, Note_on_c, 0, 40, 0
2, 11894, Note_on_c, 0, 64, 0
2, 11895, Control_c, 0, 64, 104
2, 11897, Control_c, 0, 64, 88
2, 11901, Control_c, 0, 64, 72
2, 11903, Control_c, 0, 64, 56
2, 11907, Control_c, 0, 64, 40
2, 11910, Control_c, 0, 64, 24
2, 11913, Note_on_c, 0, 40, 89
2, 11913, Control_c, 0, 64, 0
2, 11916, Note_on_c, 0, 45, 79
2, 11916, Note_on_c, 0, 64, 93
2, 11917, Note_on_c, 0, 52, 89
2, 11918, Note_on_c, 0, 59, 84
2, 11924, Note_on_c, 0, 40, 0
2, 11928, Note_on_c, 0, 45, 0
2, 11928, Note_on_c, 0, 64, 0
2, 11929, Note_on_c, 0, 52, 0
2, 11930, Note_on_c, 0, 59, 0
2, 11953, Note_on_c, 0, 64, 107
2, 11955, Note_on_c, 0, 52, 106
2, 11955, Note_on_c, 0, 40, 89
2, 11955, Note_on_c, 0, 45, 98
2, 11955, Note_on_c, 0, 59, 96
2, 11955, Note_on_c, 0, 33, 86
2, 11955, Control_c, 0, 64, 72
2, 11957, Control_c, 0, 64, 127
2, 11967, Note_on_c, 0, 33, 0
2, 11968, Note_on_c, 0, 52, 0
2, 11968, Note_on_c, 0, 40, 0
2, 11968, Note_on_c, 0, 59, 0
2, 11970, Note_on_c, 0, 64, 0
2, 11970, Note_on_c, 0, 45, 0
2, 11990, Note_on_c, 0, 52, 90
2, 11990, Note_on_c, 0, 64, 92
2, 11990, Note_on_c, 0, 59, 84
2, 11990, Note_on_c, 0, 40, 74
2, 11990, Note_on_c, 0, 45, 84
2, 11992, Note_on_c, 0, 33, 65
2, 11997, Note_on_c, 0, 45, 0
2, 11997, Note_on_c, 0, 40, 0
2, 11999, Note_on_c, 0, 33, 0
2, 12002, Note_on_c, 0, 52, 0
2, 12002, Note_on_c, 0, 64, 0
2, 12003, Note_on_c, 0, 59, 0
2, 12022, Note_on_c, 0, 64, 98
2, 12023, Note_on_c, 0, 52, 79
2, 12025, Note_on_c, 0, 59, 82
2, 12025, Note_on_c, 0, 45, 85
2, 12026, Note_on_c, 0, 40, 76
2, 12026, Note_on_c, 0, 33, 72
2, 12031, Note_on_c, 0, 40, 0
2, 12032, Note_on_c, 0, 45, 0
2, 12033, Note_on_c, 0, 33, 0
2, 12034, Note_on_c, 0, 52, 0
2, 12037, Note_on_c, 0, 59, 0
2, 12040, Note_on_c, 0, 64, 0
2, 12040, Control_c, 0, 64, 104
2, 12042, Control_c, 0, 64, 56
2, 12046, Control_c, 0, 64, 24
2, 12048, Control_c, 0, 64, 0
2, 12058, Note_on_c, 0, 52, 103
2, 12061, Note_on_c, 0, 45, 98
2, 12061, Control_c, 0, 64, 40
2, 12062, Note_on_c, 0, 40, 92
2, 12063, Note_on_c, 0, 33, 79
2, 12065, Control_c, 0, 64, 88
2, 12067, Control_c, 0, 64, 127
2, 12068, Note_on_c, 0, 40, 0
2, 12069, Note_on_c, 0, 33, 0
2, 12073, Note_on_c, 0, 45, 0
2, 12081, Note_on_c, 0, 59, 89
2, 12084, Note_on_c, 0, 52, 0
2, 12093, Note_on_c, 0, 64, 91
2, 12095, Note_on_c, 0, 45, 90
2, 12097, Note_on_c, 0, 59, 0
2, 12097, Note_on_c, 0, 33, 57
2, 12098, Note_on_c, 0, 40, 65
2, 12102, Note_on_c, 0, 45, 0
2, 12104, Note_on_c, 0, 40, 0
2, 12104, Note_on_c, 0, 33, 0
2, 12111, Note_on_c, 0, 59, 89
2, 12128, Note_on_c, 0, 59, 0
2, 12130, Note_on_c, 0, 52, 97
2, 12132, Note_on_c, 0, 45, 85
2, 12133, Note_on_c, 0, 33, 68
2, 12133, Note_on_c, 0, 40, 70
2, 12138, Note_on_c, 0, 45, 0
2, 12139, Note_on_c, 0, 33, 0
2, 12139, Note_on_c, 0, 40, 0
2, 12145, Note_on_c, 0, 59, 92
2, 12147, Note_on_c, 0, 52, 0
2, 12155, Note_on_c, 0, 59, 0
2, 12158, Note_on_c, 0, 64, 0
2, 12166, Note_on_c, 0, 45, 98
2, 12167, Note_on_c, 0, 40, 84
2, 12167, Note_on_c, 0, 33, 73
2, 12168, Note_on_c, 0, 64, 107
2, 12174, Note_on_c, 0, 40, 0
2, 12177, Note_on_c, 0, 45, 0
2, 12179, Note_on_c, 0, 33, 0
2, 12183, Note_on_c, 0, 71, 92
2, 12191, Note_on_c, 0, 64, 0
2, 12198, Note_on_c, 0, 76, 104
2, 12201, Note_on_c, 0, 71, 0
2, 12202, Note_on_c, 0, 45, 90
2, 12203, Note_on_c, 0, 40, 80
2, 12203, Note_on_c, 0, 33, 74
2, 12208, Note_on_c, 0, 40, 0
2, 12210, Note_on_c, 0, 33, 0
2, 12213, Note_on_c, 0, 45, 0
2, 12216, Note_on_c, 0, 71, 87
2, 12232, Note_on_c, 0, 64, 102
2, 12234, Note_on_c, 0, 71, 0
2, 12235, Note_on_c, 0, 45, 93
2, 12235, Note_on_c, 0, 40, 82
2, 12236, Note_on_c, 0, 33, 68
2, 12246, Note_on_c, 0, 40, 0
2, 12246, Note_on_c, 0, 45, 0
2, 12247, Note_on_c, 0, 33, 0
2, 12247, Note_on_c, 0, 71, 78
2, 12249, Note_on_c, 0, 64, 0
2, 12255, Note_on_c, 0, 71, 0
2, 12258, Note_on_c, 0, 76, 0
2, 12267, Note_on_c, 0, 76, 107
2, 12268, Note_on_c, 0, 45, 106
2, 12270, Note_on_c, 0, 40, 94
2, 12270, Note_on_c, 0, 33, 91
2, 12279, Note_on_c, 0, 45, 0
2, 12280, Note_on_c, 0, 40, 0
2, 12281, Note_on_c, 0, 33, 0
2, 12281, Note_on_c, 0, 83, 97
2, 12294, Note_on_c, 0, 76, 0
2, 12297, Note_on_c, 0, 83, 0
2, 12298, Note_on_c, 0, 88, 106
2, 12303, Note_on_c, 0, 45, 93
2, 12303, Note_on_c, 0, 40, 83
2, 12303, Note_on_c, 0, 33, 68
2, 12313, Note_on_c, 0, 83, 92
2, 12315, Note_on_c, 0, 40, 0
2, 12315, Note_on_c, 0, 45, 0
2, 12318, Note_on_c, 0, 33, 0
2, 12330, Note_on_c, 0, 76, 106
2, 12333, Note_on_c, 0, 83, 0
2, 12337, Note_on_c, 0, 45, 91
2, 12337, Note_on_c, 0, 40, 80
2, 12338, Note_on_c, 0, 33, 62
2, 12346, Note_on_c, 0, 33, 0
2, 12346, Note_on_c, 0, 83, 92
2, 12349, Note_on_c, 0, 40, 0
2, 12350, Note_on_c, 0, 45, 0
2, 12350, Note_on_c, 0, 76, 0
2, 12354, Note_on_c, 0, 83, 0
2, 12358, Note_on_c, 0, 88, 0
2, 12368, Note_on_c, 0, 88, 107
2, 12370, Note_on_c, 0, 45, 95
2, 12370, Note_on_c, 0, 40, 94
2, 12372, Note_on_c, 0, 33, 78
2, 12375, Note_on_c, 0, 89, 40
2, 12378, Note_on_c, 0, 89, 0
2, 12380, Note_on_c, 0, 33, 0
2, 12381, Note_on_c, 0, 40, 0
2, 12382, Note_on_c, 0, 45, 0
2, 12386, Note_on_c, 0, 95, 107
2, 12402, Note_on_c, 0, 40, 91
2, 12402, Note_on_c, 0, 45, 99
2, 12403, Note_on_c, 0, 33, 87
2, 12406, Note_on_c, 0, 95, 0
2, 12406, Note_on_c, 0, 100, 107
2, 12415, Note_on_c, 0, 88, 0
2, 12418, Note_on_c, 0, 40, 0
2, 12419, Note_on_c, 0, 33, 0
2, 12420, Note_on_c, 0, 45, 0
2, 12421, Note_on_c, 0, 100, 0
2, 12441, Note_on_c, 0, 40, 99
2, 12441, Note_on_c, 0, 45, 107
2, 12443, Note_on_c, 0, 33, 96
2, 12454, Note_on_c, 0, 33, 0
2, 12456, Note_on_c, 0, 40, 0
2, 12461, Note_on_c, 0, 45, 0
2, 12478, Note_on_c, 0, 40, 20
2, 12481, Note_on_c, 0, 45, 107
2, 12482, Note_on_c, 0, 33, 104
2, 12492, Note_on_c, 0, 33, 0
2, 12495, Note_on_c, 0, 40, 0
2, 12498, Note_on_c, 0, 45, 0
2, 12502, Note_on_c, 0, 57, 65
2, 12515, Note_on_c, 0, 57, 0
2, 12520, Note_on_c, 0, 49, 95
2, 12521, Note_on_c, 0, 52, 97
2, 12537, Note_on_c, 0, 49, 0
2, 12539, Note_on_c, 0, 52, 0
2, 12562, Note_on_c, 0, 57, 103
2, 12566, Note_on_c, 0, 49, 83
2, 12567, Note_on_c, 0, 52, 76
2, 12574, Note_on_c, 0, 52, 0
2, 12577, Note_on_c, 0, 49, 0
2, 12577, Note_on_c, 0, 57, 0
2, 12578, Control_c, 0, 64, 88
2, 12581, Control_c, 0, 64, 56
2, 12585, Control_c, 0, 64, 24
2, 12587, Control_c, 0, 64, 0
2, 12593, Note_on_c, 0, 57, 98
2, 12611, Note_on_c, 0, 49, 72
2, 12611, Note_on_c, 0, 52, 89
2, 12613, Note_on_c, 0, 64, 107
2, 12616, Note_on_c, 0, 49, 0
2, 12621, Note_on_c, 0, 52, 0
2, 12635, Control_c, 0, 64, 88
2, 12637, Control_c, 0, 64, 127
2, 12652, Note_on_c, 0, 49, 72
2, 12652, Note_on_c, 0, 52, 78
2, 12657, Note_on_c, 0, 49, 0
2, 12658, Note_on_c, 0, 52, 0
2, 12663, Control_c, 0, 64, 104
2, 12666, Control_c, 0, 64, 72
2, 12668, Control_c, 0, 64, 40
2, 12672, Control_c, 0, 64, 24
2, 12676, Control_c, 0, 64, 0
2, 12680, Note_on_c, 0, 64, 0
2, 12687, Note_on_c, 0, 61, 93
2, 12690, Note_on_c, 0, 49, 67
2, 12690, Note_on_c, 0, 52, 74
2, 12695, Note_on_c, 0, 49, 0
2, 12695, Note_on_c, 0, 57, 0
2, 12696, Note_on_c, 0, 52, 0
2, 12705, Note_on_c, 0, 61, 0
2, 12726, Note_on_c, 0, 59, 93
2, 12727, Note_on_c, 0, 49, 65
2, 12728, Note_on_c, 0, 52, 70
2, 12732, Note_on_c, 0, 49, 0
2, 12733, Note_on_c, 0, 52, 0
2, 12741, Note_on_c, 0, 59, 0
2, 12745, Note_on_c, 0, 61, 85
2, 12762, Note_on_c, 0, 49, 65
2, 12763, Note_on_c, 0, 52, 74
2, 12763, Note_on_c, 0, 59, 82
2, 12765, Note_on_c, 0, 61, 0
2, 12768, Note_on_c, 0, 49, 0
2, 12768, Note_on_c, 0, 52, 0
2, 12779, Note_on_c, 0, 59, 0
2, 12801, Note_on_c, 0, 57, 86
2, 12806, Note_on_c, 0, 52, 73
2, 12806, Note_on_c, 0, 49, 55
2, 12812, Note_on_c, 0, 49, 0
2, 12812, Note_on_c, 0, 52, 0
2, 12818, Note_on_c, 0, 57, 0
2, 12836, Note_on_c, 0, 56, 87
2, 12842, Note_on_c, 0, 52, 73
2, 12842, Note_on_c, 0, 49, 56
2, 12848, Note_on_c, 0, 49, 0
2, 12848, Note_on_c, 0, 52, 0
2, 12851, Note_on_c, 0, 56, 0
2, 12856, Note_on_c, 0, 57, 76
2, 12870, Note_on_c, 0, 56, 80
2, 12876, Note_on_c, 0, 49, 61
2, 12877, Note_on_c, 0, 57, 0
2, 12877, Note_on_c, 0, 52, 68
2, 12882, Note_on_c, 0, 49, 0
2, 12883, Note_on_c, 0, 52, 0
2, 12883, Note_on_c, 0, 56, 0
2, 12912, Note_on_c, 0, 54, 82
2, 12915, Note_on_c, 0, 52, 75
2, 12915, Note_on_c, 0, 49, 64
2, 12920, Note_on_c, 0, 49, 0
2, 12920, Note_on_c, 0, 52, 0
2, 12928, Note_on_c, 0, 54, 0
2, 12952, Note_on_c, 0, 53, 92
2, 12977, Note_on_c, 0, 53, 0
2, 12988, Note_on_c, 0, 54, 77
2, 12997, Note_on_c, 0, 61, 43
2, 13003, Note_on_c, 0, 54, 0
2, 13006, Note_on_c, 0, 56, 74
2, 13007, Note_on_c, 0, 61, 0
2, 13023, Note_on_c, 0, 54, 79
2, 13027, Note_on_c, 0, 56, 0
2, 13030, Note_on_c, 0, 61, 44
2, 13036, Note_on_c, 0, 61, 0
2, 13041, Note_on_c, 0, 54, 0
2, 13065, Note_on_c, 0, 51, 87
2, 13066, Note_on_c, 0, 61, 59
2, 13070, Note_on_c, 0, 57, 43
2, 13077, Note_on_c, 0, 57, 0
2, 13077, Note_on_c, 0, 61, 0
2, 13102, Note_on_c, 0, 61, 56
2, 13103, Note_on_c, 0, 51, 0
2, 13107, Note_on_c, 0, 52, 79
2, 13113, Note_on_c, 0, 61, 0
2, 13120, Note_on_c, 0, 52, 0
2, 13122, Note_on_c, 0, 54, 71
2, 13138, Note_on_c, 0, 61, 57
2, 13140, Note_on_c, 0, 52, 77
2, 13141, Note_on_c, 0, 57, 54
2, 13145, Note_on_c, 0, 54, 0
2, 13148, Note_on_c, 0, 57, 0
2, 13149, Note_on_c, 0, 61, 0
2, 13177, Note_on_c, 0, 61, 57
2, 13180, Note_on_c, 0, 57, 46
2, 13187, Note_on_c, 0, 57, 0
2, 13188, Note_on_c, 0, 61, 0
2, 13207, Note_on_c, 0, 52, 0
2, 13213, Note_on_c, 0, 49, 88
2, 13216, Note_on_c, 0, 61, 63
2, 13217, Note_on_c, 0, 57, 60
2, 13224, Note_on_c, 0, 57, 0
2, 13226, Note_on_c, 0, 61, 0
2, 13226, Note_on_c, 0, 49, 0
2, 13250, Note_on_c, 0, 50, 104
2, 13252, Note_on_c, 0, 61, 67
2, 13255, Note_on_c, 0, 57, 65
2, 13261, Note_on_c, 0, 57, 0
2, 13263, Note_on_c, 0, 61, 0
2, 13265, Note_on_c, 0, 50, 0
2, 13288, Note_on_c, 0, 51, 106
2, 13290, Note_on_c, 0, 61, 71
2, 13291, Note_on_c, 0, 57, 69
2, 13299, Note_on_c, 0, 57, 0
2, 13301, Note_on_c, 0, 61, 0
2, 13306, Note_on_c, 0, 51, 0
2, 13323, Note_on_c, 0, 54, 105
2, 13326, Note_on_c, 0, 61, 75
2, 13328, Note_on_c, 0, 57, 67
2, 13335, Note_on_c, 0, 57, 0
2, 13338, Note_on_c, 0, 61, 0
2, 13345, Note_on_c, 0, 54, 0
2, 13357, Note_on_c, 0, 61, 68
2, 13358, Note_on_c, 0, 57, 68
2, 13361, Note_on_c, 0, 52, 107
2, 13362, Note_on_c, 0, 61, 0
2, 13363, Note_on_c, 0, 57, 0
2, 13376, Note_on_c, 0, 52, 0
2, 13395, Note_on_c, 0, 40, 69
2, 13400, Note_on_c, 0, 33, 73
2, 13407, Note_on_c, 0, 45, 107
2, 13415, Note_on_c, 0, 33, 0
2, 13415, Control_c, 0, 64, 72
2, 13417, Note_on_c, 0, 40, 0
2, 13418, Control_c, 0, 64, 127
2, 13422, Note_on_c, 0, 45, 0
2, 13446, Note_on_c, 0, 52, 92
2, 13458, Note_on_c, 0, 52, 0
2, 13483, Note_on_c, 0, 57, 76
2, 13485, Control_c, 0, 64, 104
2, 13487, Control_c, 0, 64, 56
2, 13488, Note_on_c, 0, 52, 71
2, 13491, Control_c, 0, 64, 24
2, 13493, Control_c, 0, 64, 0
2, 13494, Note_on_c, 0, 52, 0
2, 13495, Note_on_c, 0, 49, 30
2, 13496, Note_on_c, 0, 57, 0
2, 13500, Note_on_c, 0, 49, 0
2, 13510, Note_on_c, 0, 57, 70
2, 13525, Note_on_c, 0, 49, 65
2, 13527, Note_on_c, 0, 52, 72
2, 13530, Note_on_c, 0, 64, 96
2, 13532, Note_on_c, 0, 49, 0
2, 13533, Note_on_c, 0, 52, 0
2, 13541, Note_on_c, 0, 57, 0
2, 13561, Note_on_c, 0, 49, 61
2, 13561, Note_on_c, 0, 52, 72
2, 13571, Note_on_c, 0, 52, 0
2, 13573, Note_on_c, 0, 49, 0
2, 13598, Note_on_c, 0, 61, 81
2, 13601, Note_on_c, 0, 49, 58
2, 13602, Note_on_c, 0, 52, 64
2, 13603, Note_on_c, 0, 64, 0
2, 13608, Note_on_c, 0, 52, 0
2, 13611, Note_on_c, 0, 49, 0
2, 13618, Note_on_c, 0, 61, 0
2, 13635, Note_on_c, 0, 59, 90
2, 13636, Note_on_c, 0, 49, 58
2, 13637, Note_on_c, 0, 52, 70
2, 13645, Note_on_c, 0, 52, 0
2, 13648, Note_on_c, 0, 49, 0
2, 13648, Note_on_c, 0, 61, 81
2, 13650, Note_on_c, 0, 59, 0
2, 13668, Note_on_c, 0, 59, 78
2, 13669, Note_on_c, 0, 61, 0
2, 13671, Note_on_c, 0, 49, 52
2, 13672, Note_on_c, 0, 52, 69
2, 13679, Note_on_c, 0, 52, 0
2, 13681, Note_on_c, 0, 49, 0
2, 13686, Note_on_c, 0, 59, 0
2, 13708, Note_on_c, 0, 57, 85
2, 13711, Note_on_c, 0, 49, 58
2, 13713, Note_on_c, 0, 52, 62
2, 13718, Note_on_c, 0, 49, 0
2, 13720, Note_on_c, 0, 52, 0
2, 13724, Note_on_c, 0, 57, 0
2, 13748, Note_on_c, 0, 49, 64
2, 13748, Note_on_c, 0, 52, 69
2, 13748, Note_on_c, 0, 56, 88
2, 13760, Note_on_c, 0, 56, 0
2, 13760, Note_on_c, 0, 52, 0
2, 13760, Note_on_c, 0, 49, 0
2, 13765, Note_on_c, 0, 57, 80
2, 13782, Note_on_c, 0, 57, 0
2, 13785, Note_on_c, 0, 56, 78
2, 13787, Note_on_c, 0, 49, 54
2, 13788, Note_on_c, 0, 52, 58
2, 13795, Note_on_c, 0, 52, 0
2, 13795, Note_on_c, 0, 49, 0
2, 13802, Note_on_c, 0, 56, 0
2, 13822, Note_on_c, 0, 54, 83
2, 13823, Note_on_c, 0, 49, 56
2, 13825, Note_on_c, 0, 52, 68
2, 13831, Note_on_c, 0, 52, 0
2, 13831, Note_on_c, 0, 49, 0
2, 13838, Note_on_c, 0, 54, 0
2, 13861, Note_on_c, 0, 53, 98
2, 13862, Note_on_c, 0, 49, 40
2, 13868, Note_on_c, 0, 49, 0
2, 13888, Note_on_c, 0, 53, 0
2, 13901, Note_on_c, 0, 54, 85
2, 13907, Note_on_c, 0, 61, 74
2, 13911, Note_on_c, 0, 57, 55
2, 13917, Note_on_c, 0, 54, 0
2, 13917, Note_on_c, 0, 56, 77
2, 13919, Note_on_c, 0, 61, 0
2, 13922, Note_on_c, 0, 57, 0
2, 13933, Note_on_c, 0, 54, 84
2, 13940, Note_on_c, 0, 56, 0
2, 13945, Note_on_c, 0, 61, 63
2, 13953, Note_on_c, 0, 61, 0
2, 13956, Note_on_c, 0, 54, 0
2, 13977, Note_on_c, 0, 51, 95
2, 13980, Note_on_c, 0, 61, 65
2, 13982, Note_on_c, 0, 57, 52
2, 13990, Note_on_c, 0, 57, 0
2, 13992, Note_on_c, 0, 61, 0
2, 14005, Note_on_c, 0, 51, 0
2, 14017, Note_on_c, 0, 52, 92
2, 14020, Note_on_c, 0, 61, 56
2, 14021, Note_on_c, 0, 57, 51
2, 14029, Note_on_c, 0, 57, 0
2, 14030, Note_on_c, 0, 61, 0
2, 14033, Note_on_c, 0, 52, 0
2, 14035, Note_on_c, 0, 54, 71
2, 14052, Note_on_c, 0, 52, 87
2, 14057, Note_on_c, 0, 61, 63
2, 14058, Note_on_c, 0, 54, 0
2, 14058, Note_on_c, 0, 57, 61
2, 14065, Note_on_c, 0, 57, 0
2, 14067, Note_on_c, 0, 61, 0
2, 14096, Note_on_c, 0, 61, 67
2, 14100, Note_on_c, 0, 57, 43
2, 14106, Note_on_c, 0, 57, 0
2, 14107, Note_on_c, 0, 61, 0
2, 14123, Note_on_c, 0, 52, 0
2, 14132, Note_on_c, 0, 49, 82
2, 14135, Note_on_c, 0, 61, 64
2, 14138, Note_on_c, 0, 57, 52
2, 14144, Note_on_c, 0, 57, 0
2, 14146, Note_on_c, 0, 61, 0
2, 14147, Note_on_c, 0, 49, 0
2, 14168, Note_on_c, 0, 50, 95
2, 14171, Note_on_c, 0, 61, 62
2, 14173, Note_on_c, 0, 57, 54
2, 14179, Note_on_c, 0, 61, 0
2, 14180, Note_on_c, 0, 57, 0
2, 14184, Note_on_c, 0, 50, 0
2, 14206, Note_on_c, 0, 51, 94
2, 14207, Note_on_c, 0, 61, 64
2, 14210, Note_on_c, 0, 57, 64
2, 14216, Note_on_c, 0, 57, 0
2, 14218, Note_on_c, 0, 61, 0
2, 14226, Note_on_c, 0, 51, 0
2, 14242, Note_on_c, 0, 54, 91
2, 14242, Note_on_c, 0, 61, 72
2, 14246, Note_on_c, 0, 57, 65
2, 14253, Note_on_c, 0, 57, 0
2, 14255, Note_on_c, 0, 61, 0
2, 14265, Note_on_c, 0, 54, 0
2, 14276, Note_on_c, 0, 61, 68
2, 14277, Note_on_c, 0, 57, 67
2, 14281, Note_on_c, 0, 61, 0
2, 14281, Note_on_c, 0, 52, 98
2, 14283, Note_on_c, 0, 57, 0
2, 14297, Note_on_c, 0, 52, 0
2, 14315, Note_on_c, 0, 40, 57
2, 14317, Note_on_c, 0, 33, 80
2, 14328, Note_on_c, 0, 45, 107
2, 14331, Control_c, 0, 64, 56
2, 14334, Note_on_c, 0, 33, 0
2, 14335, Control_c, 0, 64, 127
2, 14336, Note_on_c, 0, 40, 0
2, 14341, Note_on_c, 0, 45, 0
2, 14366, Note_on_c, 0, 52, 83
2, 14375, Control_c, 0, 64, 104
2, 14378, Control_c, 0, 64, 88
2, 14383, Note_on_c, 0, 52, 0
2, 14387, Control_c, 0, 64, 56
2, 14391, Control_c, 0, 64, 40
2, 14393, Control_c, 0, 64, 24
2, 14397, Control_c, 0, 64, 0
2, 14402, Note_on_c, 0, 52, 73
2, 14402, Note_on_c, 0, 57, 80
2, 14405, Note_on_c, 0, 49, 53
2, 14411, Note_on_c, 0, 49, 0
2, 14413, Note_on_c, 0, 52, 0
2, 14415, Note_on_c, 0, 57, 0
2, 14427, Note_on_c, 0, 57, 72
2, 14443, Note_on_c, 0, 49, 52
2, 14443, Note_on_c, 0, 52, 65
2, 14447, Note_on_c, 0, 64, 91
2, 14449, Note_on_c, 0, 49, 0
2, 14450, Note_on_c, 0, 52, 0
2, 14462, Note_on_c, 0, 57, 0
2, 14481, Note_on_c, 0, 49, 63
2, 14482, Note_on_c, 0, 52, 69
2, 14488, Note_on_c, 0, 52, 0
2, 14493, Note_on_c, 0, 49, 0
2, 14516, Note_on_c, 0, 49, 60
2, 14517, Note_on_c, 0, 64, 0
2, 14521, Note_on_c, 0, 61, 82
2, 14521, Note_on_c, 0, 52, 63
2, 14528, Note_on_c, 0, 52, 0
2, 14531, Note_on_c, 0, 49, 0
2, 14534, Note_on_c, 0, 61, 0
2, 14551, Note_on_c, 0, 61, 84
2, 14557, Note_on_c, 0, 54, 57
2, 14558, Note_on_c, 0, 48, 73
2, 14561, Note_on_c, 0, 64, 92
2, 14562, Note_on_c, 0, 57, 41
2, 14566, Note_on_c, 0, 61, 0
2, 14570, Note_on_c, 0, 57, 0
2, 14570, Note_on_c, 0, 48, 0
2, 14572, Note_on_c, 0, 54, 0
2, 14602, Note_on_c, 0, 48, 70
2, 14603, Note_on_c, 0, 54, 54
2, 14606, Note_on_c, 0, 57, 42
2, 14609, Note_on_c, 0, 48, 0
2, 14614, Note_on_c, 0, 57, 0
2, 14614, Note_on_c, 0, 54, 0
2, 14636, Note_on_c, 0, 63, 83
2, 14637, Note_on_c, 0, 64, 0
2, 14641, Note_on_c, 0, 48, 54
2, 14641, Note_on_c, 0, 54, 52
2, 14647, Note_on_c, 0, 48, 0
2, 14651, Note_on_c, 0, 63, 0
2, 14654, Note_on_c, 0, 54, 0
2, 14663, Note_on_c, 0, 63, 79
2, 14676, Note_on_c, 0, 64, 98
2, 14678, Note_on_c, 0, 52, 65
2, 14680, Note_on_c, 0, 63, 0
2, 14682, Note_on_c, 0, 57, 37
2, 14682, Note_on_c, 0, 49, 37
2, 14689, Note_on_c, 0, 49, 0
2, 14690, Note_on_c, 0, 57, 0
2, 14690, Note_on_c, 0, 52, 0
2, 14718, Note_on_c, 0, 49, 56
2, 14721, Note_on_c, 0, 57, 45
2, 14729, Note_on_c, 0, 57, 0
2, 14729, Note_on_c, 0, 49, 0
2, 14749, Note_on_c, 0, 64, 0
2, 14751, Note_on_c, 0, 61, 74
2, 14757, Note_on_c, 0, 52, 51
2, 14758, Note_on_c, 0, 49, 42
2, 14762, Note_on_c, 0, 57, 29
2, 14763, Note_on_c, 0, 49, 0
2, 14764, Note_on_c, 0, 61, 0
2, 14764, Note_on_c, 0, 52, 0
2, 14768, Note_on_c, 0, 57, 0
2, 14781, Note_on_c, 0, 61, 83
2, 14791, Note_on_c, 0, 64, 92
2, 14792, Note_on_c, 0, 54, 61
2, 14793, Note_on_c, 0, 48, 74
2, 14793, Note_on_c, 0, 57, 56
2, 14798, Note_on_c, 0, 61, 0
2, 14799, Note_on_c, 0, 48, 0
2, 14804, Note_on_c, 0, 57, 0
2, 14804, Note_on_c, 0, 54, 0
2, 14835, Note_on_c, 0, 48, 64
2, 14836, Note_on_c, 0, 54, 35
2, 14836, Note_on_c, 0, 57, 39
2, 14841, Note_on_c, 0, 48, 0
2, 14843, Note_on_c, 0, 54, 0
2, 14844, Note_on_c, 0, 57, 0
2, 14867, Note_on_c, 0, 63, 79
2, 14871, Note_on_c, 0, 54, 47
2, 14872, Note_on_c, 0, 48, 45
2, 14873, Note_on_c, 0, 64, 0
2, 14873, Note_on_c, 0, 57, 38
2, 14877, Note_on_c, 0, 48, 0
2, 14880, Note_on_c, 0, 63, 0
2, 14881, Note_on_c, 0, 57, 0
2, 14883, Note_on_c, 0, 54, 0
2, 14897, Note_on_c, 0, 63, 87
2, 14906, Note_on_c, 0, 64, 92
2, 14906, Note_on_c, 0, 52, 65
2, 14907, Note_on_c, 0, 57, 49
2, 14908, Note_on_c, 0, 49, 45
2, 14913, Note_on_c, 0, 63, 0
2, 14915, Note_on_c, 0, 49, 0
2, 14916, Note_on_c, 0, 52, 0
2, 14917, Note_on_c, 0, 57, 0
2, 14946, Note_on_c, 0, 49, 52
2, 14947, Note_on_c, 0, 52, 52
2, 14948, Note_on_c, 0, 57, 47
2, 14955, Note_on_c, 0, 57, 0
2, 14955, Note_on_c, 0, 52, 0
2, 14957, Note_on_c, 0, 49, 0
2, 14976, Note_on_c, 0, 61, 75
2, 14978, Control_c, 0, 64, 24
2, 14982, Note_on_c, 0, 64, 0
2, 14982, Note_on_c, 0, 49, 50
2, 14982, Control_c, 0, 64, 40
2, 14985, Note_on_c, 0, 57, 51
2, 14985, Note_on_c, 0, 52, 57
2, 14986, Note_on_c, 0, 61, 0
2, 14986, Control_c, 0, 64, 56
2, 14992, Note_on_c, 0, 52, 0
2, 14992, Note_on_c, 0, 57, 0
2, 14994, Note_on_c, 0, 49, 0
2, 14998, Control_c, 0, 64, 72
2, 15006, Note_on_c, 0, 64, 86
2, 15007, Control_c, 0, 64, 24
2, 15011, Note_on_c, 0, 69, 81
2, 15011, Control_c, 0, 64, 0
2, 15017, Note_on_c, 0, 69, 0
2, 15020, Note_on_c, 0, 49, 49
2, 15021, Note_on_c, 0, 76, 103
2, 15021, Note_on_c, 0, 69, 38
2, 15021, Note_on_c, 0, 57, 63
2, 15022, Note_on_c, 0, 52, 64
2, 15026, Control_c, 0, 64, 56
2, 15029, Note_on_c, 0, 52, 0
2, 15030, Control_c, 0, 64, 104
2, 15032, Note_on_c, 0, 49, 0
2, 15032, Note_on_c, 0, 57, 0
2, 15032, Control_c, 0, 64, 127
2, 15056, Note_on_c, 0, 49, 55
2, 15056, Note_on_c, 0, 57, 64
2, 15056, Note_on_c, 0, 52, 65
2, 15064, Note_on_c, 0, 52, 0
2, 15066, Note_on_c, 0, 49, 0
2, 15067, Note_on_c, 0, 57, 0
2, 15077, Note_on_c, 0, 76, 0
2, 15087, Note_on_c, 0, 73, 93
2, 15088, Note_on_c, 0, 64, 0
2, 15091, Note_on_c, 0, 69, 0
2, 15096, Note_on_c, 0, 49, 45
2, 15096, Note_on_c, 0, 57, 54
2, 15097, Note_on_c, 0, 52, 51
2, 15099, Note_on_c, 0, 73, 0
2, 15104, Note_on_c, 0, 49, 0
2, 15105, Note_on_c, 0, 52, 0
2, 15106, Note_on_c, 0, 57, 0
2, 15115, Note_on_c, 0, 76, 107
2, 15121, Note_on_c, 0, 81, 63
2, 15128, Note_on_c, 0, 81, 0
2, 15131, Note_on_c, 0, 52, 66
2, 15131, Note_on_c, 0, 49, 53
2, 15131, Note_on_c, 0, 88, 107
2, 15131, Note_on_c, 0, 57, 64
2, 15133, Note_on_c, 0, 81, 63
2, 15138, Note_on_c, 0, 81, 0
2, 15142, Note_on_c, 0, 49, 0
2, 15143, Note_on_c, 0, 57, 0
2, 15143, Note_on_c, 0, 52, 0
2, 15162, Note_on_c, 0, 81, 32
2, 15165, Note_on_c, 0, 52, 58
2, 15165, Note_on_c, 0, 49, 49
2, 15166, Note_on_c, 0, 57, 61
2, 15173, Note_on_c, 0, 57, 0
2, 15173, Note_on_c, 0, 52, 0
2, 15173, Note_on_c, 0, 49, 0
2, 15174, Note_on_c, 0, 81, 0
2, 15179, Note_on_c, 0, 88, 0
2, 15192, Note_on_c, 0, 76, 0
2, 15193, Note_on_c, 0, 85, 100
2, 15201, Note_on_c, 0, 57, 74
2, 15202, Note_on_c, 0, 52, 68
2, 15202, Note_on_c, 0, 49, 54
2, 15204, Note_on_c, 0, 85, 0
2, 15209, Note_on_c, 0, 52, 0
2, 15210, Note_on_c, 0, 49, 0
2, 15214, Note_on_c, 0, 57, 0
2, 15217, Note_on_c, 0, 88, 107
2, 15225, Note_on_c, 0, 93, 82
2, 15236, Note_on_c, 0, 49, 71
2, 15236, Note_on_c, 0, 57, 85
2, 15237, Note_on_c, 0, 52, 81
2, 15238, Note_on_c, 0, 100, 107
2, 15243, Note_on_c, 0, 88, 0
2, 15246, Note_on_c, 0, 57, 0
2, 15246, Note_on_c, 0, 93, 0
2, 15246, Note_on_c, 0, 49, 0
2, 15249, Note_on_c, 0, 100, 0
2, 15249, Note_on_c, 0, 52, 0
2, 15312, Control_c, 0, 64, 104
2, 15316, Control_c, 0, 64, 56
2, 15318, Control_c, 0, 64, 0
2, 15350, Note_on_c, 0, 66, 104
2, 15352, Note_on_c, 0, 57, 89
2, 15353, Note_on_c, 0, 49, 99
2, 15353, Note_on_c, 0, 61, 81
2, 15355, Note_on_c, 0, 45, 98
2, 15356, Note_on_c, 0, 37, 77
2, 15357, Control_c, 0, 64, 56
2, 15360, Control_c, 0, 64, 127
2, 15362, Note_on_c, 0, 37, 0
2, 15363, Note_on_c, 0, 57, 0
2, 15363, Note_on_c, 0, 61, 0
2, 15364, Note_on_c, 0, 49, 0
2, 15366, Note_on_c, 0, 45, 0
2, 15371, Note_on_c, 0, 66, 0
2, 15416, Control_c, 0, 64, 88
2, 15420, Control_c, 0, 64, 40
2, 15422, Control_c, 0, 64, 24
2, 15426, Control_c, 0, 64, 0
2, 15470, Note_on_c, 0, 68, 107
2, 15471, Note_on_c, 0, 56, 91
2, 15471, Note_on_c, 0, 63, 84
2, 15473, Control_c, 0, 64, 40
2, 15475, Note_on_c, 0, 44, 79
2, 15476, Note_on_c, 0, 48, 86
2, 15476, Note_on_c, 0, 36, 86
2, 15476, Control_c, 0, 64, 127
2, 15482, Note_on_c, 0, 36, 0
2, 15483, Note_on_c, 0, 56, 0
2, 15483, Note_on_c, 0, 63, 0
2, 15485, Control_c, 0, 64, 127
2, 15486, Note_on_c, 0, 48, 0
2, 15487, Note_on_c, 0, 44, 0
2, 15487, Note_on_c, 0, 68, 0
2, 15536, Note_on_c, 0, 55, 80
2, 15543, Note_on_c, 0, 56, 85
2, 15547, Note_on_c, 0, 55, 0
2, 15550, Control_c, 0, 64, 88
2, 15552, Control_c, 0, 64, 56
2, 15553, Note_on_c, 0, 56, 0
2, 15555, Control_c, 0, 64, 24
2, 15556, Control_c, 0, 64, 0
2, 15573, Note_on_c, 0, 59, 85
2, 15581, Note_on_c, 0, 60, 93
2, 15584, Note_on_c, 0, 59, 0
2, 15586, Note_on_c, 0, 60, 0
2, 15615, Note_on_c, 0, 62, 83
2, 15620, Note_on_c, 0, 63, 88
2, 15623, Note_on_c, 0, 62, 0
2, 15627, Note_on_c, 0, 63, 0
2, 15648, Note_on_c, 0, 68, 82
2, 15653, Note_on_c, 0, 72, 85
2, 15658, Note_on_c, 0, 72, 0
2, 15659, Note_on_c, 0, 68, 0
2, 15677, Note_on_c, 0, 61, 71
2, 15680, Note_on_c, 0, 51, 77
2, 15688, Note_on_c, 0, 51, 0
2, 15693, Note_on_c, 0, 89, 106
2, 15695, Note_on_c, 0, 77, 99
2, 15695, Note_on_c, 0, 58, 29
2, 15696, Note_on_c, 0, 67, 76
2, 15700, Note_on_c, 0, 58, 0
2, 15701, Control_c, 0, 64, 40
2, 15703, Note_on_c, 0, 67, 0
2, 15703, Control_c, 0, 64, 104
2, 15704, Note_on_c, 0, 61, 0
2, 15706, Control_c, 0, 64, 127
2, 15719, Note_on_c, 0, 89, 0
2, 15730, Note_on_c, 0, 77, 0
2, 15733, Note_on_c, 0, 61, 53
2, 15733, Note_on_c, 0, 67, 59
2, 15733, Note_on_c, 0, 87, 90
2, 15735, Note_on_c, 0, 58, 46
2, 15743, Note_on_c, 0, 67, 0
2, 15744, Note_on_c, 0, 61, 0
2, 15746, Note_on_c, 0, 58, 0
2, 15750, Note_on_c, 0, 87, 0
2, 15751, Note_on_c, 0, 85, 92
2, 15767, Note_on_c, 0, 82, 85
2, 15770, Note_on_c, 0, 61, 47
2, 15771, Note_on_c, 0, 58, 42
2, 15771, Note_on_c, 0, 67, 52
2, 15777, Note_on_c, 0, 85, 0
2, 15781, Note_on_c, 0, 67, 0
2, 15782, Note_on_c, 0, 61, 0
2, 15783, Note_on_c, 0, 82, 0
2, 15783, Note_on_c, 0, 58, 0
2, 15783, Note_on_c, 0, 77, 90
2, 15791, Note_on_c, 0, 77, 0
2, 15800, Note_on_c, 0, 75, 87
2, 15802, Note_on_c, 0, 67, 53
2, 15802, Note_on_c, 0, 61, 48
2, 15805, Note_on_c, 0, 58, 40
2, 15808, Note_on_c, 0, 67, 0
2, 15812, Note_on_c, 0, 58, 0
2, 15813, Note_on_c, 0, 61, 0
2, 15816, Note_on_c, 0, 75, 0
2, 15818, Note_on_c, 0, 73, 70
2, 15835, Note_on_c, 0, 73, 0
2, 15835, Note_on_c, 0, 70, 67
2, 15845, Note_on_c, 0, 70, 0
2, 15847, Note_on_c, 0, 65, 70
2, 15865, Note_on_c, 0, 65, 0
2, 15865, Note_on_c, 0, 63, 82
2, 15891, Note_on_c, 0, 63, 0
2, 15891, Control_c, 0, 64, 72
2, 15895, Control_c, 0, 64, 40
2, 15897, Control_c, 0, 64, 0
2, 15913, Note_on_c, 0, 80, 106
2, 15915, Note_on_c, 0, 68, 96
2, 15916, Note_on_c, 0, 75, 80
2, 15918, Note_on_c, 0, 56, 80
2, 15920, Note_on_c, 0, 48, 82
2, 15920, Note_on_c, 0, 60, 75
2, 15920, Control_c, 0, 64, 24
2, 15922, Control_c, 0, 64, 88
2, 15925, Control_c, 0, 64, 127
2, 15927, Note_on_c, 0, 68, 0
2, 15928, Note_on_c, 0, 75, 0
2, 15931, Note_on_c, 0, 80, 0
2, 15931, Note_on_c, 0, 48, 0
2, 15932, Note_on_c, 0, 60, 0
2, 15933, Note_on_c, 0, 56, 0
2, 15978, Note_on_c, 0, 67, 70
2, 15986, Note_on_c, 0, 68, 92
2, 15989, Note_on_c, 0, 67, 0
2, 15994, Note_on_c, 0, 68, 0
2, 15996, Control_c, 0, 64, 88
2, 15997, Control_c, 0, 64, 56
2, 16000, Control_c, 0, 64, 24
2, 16002, Control_c, 0, 64, 0
2, 16015, Note_on_c, 0, 71, 60
2, 16023, Note_on_c, 0, 72, 107
2, 16027, Note_on_c, 0, 71, 0
2, 16030, Note_on_c, 0, 72, 0
2, 16053, Note_on_c, 0, 74, 84
2, 16062, Note_on_c, 0, 75, 95
2, 16065, Note_on_c, 0, 74, 0
2, 16067, Note_on_c, 0, 75, 0
2, 16067, Note_on_c, 0, 78, 50
2, 16068, Note_on_c, 0, 76, 66
2, 16072, Note_on_c, 0, 78, 0
2, 16073, Note_on_c, 0, 76, 0
2, 16082, Note_on_c, 0, 80, 87
2, 16095, Note_on_c, 0, 84, 92
2, 16098, Note_on_c, 0, 80, 0
2, 16100, Note_on_c, 0, 84, 0
2, 16126, Note_on_c, 0, 89, 35
2, 16127, Note_on_c, 0, 63, 71
2, 16129, Note_on_c, 0, 89, 0
2, 16130, Note_on_c, 0, 63, 0
2, 16133, Note_on_c, 0, 73, 40
2, 16133, Note_on_c, 0, 70, 65
2, 16136, Note_on_c, 0, 101, 107
2, 16136, Note_on_c, 0, 94, 17
2, 16136, Note_on_c, 0, 89, 96
2, 16141, Note_on_c, 0, 79, 84
2, 16143, Note_on_c, 0, 70, 0
2, 16143, Note_on_c, 0, 77, 34
2, 16143, Control_c, 0, 64, 88
2, 16145, Note_on_c, 0, 77, 0
2, 16145, Control_c, 0, 64, 127
2, 16146, Note_on_c, 0, 94, 0
2, 16148, Note_on_c, 0, 73, 0
2, 16149, Note_on_c, 0, 79, 0
2, 16161, Note_on_c, 0, 101, 0
2, 16166, Note_on_c, 0, 89, 0
2, 16173, Note_on_c, 0, 99, 99
2, 16173, Note_on_c, 0, 73, 69
2, 16175, Note_on_c, 0, 79, 72
2, 16175, Note_on_c, 0, 70, 54
2, 16185, Note_on_c, 0, 70, 0
2, 16185, Note_on_c, 0, 79, 0
2, 16185, Note_on_c, 0, 73, 0
2, 16189, Note_on_c, 0, 99, 0
2, 16190, Note_on_c, 0, 97, 95
2, 16206, Note_on_c, 0, 94, 85
2, 16211, Note_on_c, 0, 73, 57
2, 16212, Note_on_c, 0, 70, 48
2, 16212, Note_on_c, 0, 79, 63
2, 16221, Note_on_c, 0, 97, 0
2, 16223, Note_on_c, 0, 89, 94
2, 16224, Note_on_c, 0, 94, 0
2, 16224, Note_on_c, 0, 79, 0
2, 16225, Note_on_c, 0, 70, 0
2, 16226, Note_on_c, 0, 73, 0
2, 16231, Note_on_c, 0, 89, 0
2, 16241, Note_on_c, 0, 73, 65
2, 16242, Note_on_c, 0, 79, 76
2, 16242, Note_on_c, 0, 70, 57
2, 16242, Note_on_c, 0, 87, 88
2, 16257, Note_on_c, 0, 87, 0
2, 16257, Note_on_c, 0, 79, 0
2, 16259, Note_on_c, 0, 70, 0
2, 16260, Note_on_c, 0, 85, 81
2, 16261, Note_on_c, 0, 73, 0
2, 16275, Note_on_c, 0, 82, 75
2, 16278, Note_on_c, 0, 85, 0
2, 16290, Note_on_c, 0, 82, 0
2, 16290, Note_on_c, 0, 77, 92
2, 16305, Note_on_c, 0, 77, 0
2, 16311, Note_on_c, 0, 75, 92
2, 16330, Control_c, 0, 64, 88
2, 16332, Control_c, 0, 64, 56
2, 16333, Control_c, 0, 64, 24
2, 16336, Control_c, 0, 64, 0
2, 16344, Note_on_c, 0, 75, 0
2, 16350, Note_on_c, 0, 80, 100
2, 16350, Note_on_c, 0, 68, 91
2, 16351, Note_on_c, 0, 75, 85
2, 16353, Note_on_c, 0, 36, 74
2, 16353, Note_on_c, 0, 48, 80
2, 16356, Note_on_c, 0, 36, 0
2, 16357, Control_c, 0, 64, 56
2, 16358, Control_c, 0, 64, 104
2, 16360, Note_on_c, 0, 48, 0
2, 16361, Control_c, 0, 64, 127
2, 16367, Note_on_c, 0, 75, 0
2, 16367, Note_on_c, 0, 68, 0
2, 16378, Note_on_c, 0, 80, 0
2, 16391, Note_on_c, 0, 68, 80
2, 16392, Note_on_c, 0, 51, 77
2, 16392, Note_on_c, 0, 39, 64
2, 16395, Note_on_c, 0, 39, 0
2, 16397, Note_on_c, 0, 51, 0
2, 16403, Note_on_c, 0, 68, 0
2, 16407, Note_on_c, 0, 80, 85
2, 16420, Note_on_c, 0, 56, 75
2, 16421, Note_on_c, 0, 68, 73
2, 16421, Note_on_c, 0, 44, 58
2, 16425, Note_on_c, 0, 80, 0
2, 16426, Note_on_c, 0, 44, 0
2, 16427, Note_on_c, 0, 56, 0
2, 16436, Note_on_c, 0, 68, 0
2, 16451, Control_c, 0, 64, 104
2, 16453, Control_c, 0, 64, 56
2, 16456, Control_c, 0, 64, 0
2, 16457, Note_on_c, 0, 81, 102
2, 16458, Note_on_c, 0, 75, 79
2, 16458, Note_on_c, 0, 69, 84
2, 16462, Note_on_c, 0, 60, 78
2, 16463, Note_on_c, 0, 48, 60
2, 16468, Note_on_c, 0, 48, 0
2, 16472, Note_on_c, 0, 60, 0
2, 16472, Control_c, 0, 64, 24
2, 16473, Note_on_c, 0, 69, 0
2, 16473, Control_c, 0, 64, 88
2, 16476, Control_c, 0, 64, 127
2, 16477, Note_on_c, 0, 81, 0
2, 16485, Note_on_c, 0, 75, 0
2, 16497, Note_on_c, 0, 80, 107
2, 16497, Note_on_c, 0, 63, 77
2, 16497, Control_c, 0, 64, 72
2, 16498, Note_on_c, 0, 51, 75
2, 16500, Control_c, 0, 64, 56
2, 16503, Note_on_c, 0, 51, 0
2, 16503, Control_c, 0, 64, 88
2, 16506, Control_c, 0, 64, 127
2, 16507, Note_on_c, 0, 63, 0
2, 16515, Note_on_c, 0, 75, 77
2, 16528, Note_on_c, 0, 68, 62
2, 16530, Note_on_c, 0, 75, 0
2, 16535, Note_on_c, 0, 80, 0
2, 16535, Note_on_c, 0, 60, 73
2, 16536, Note_on_c, 0, 48, 73
2, 16539, Note_on_c, 0, 48, 0
2, 16541, Note_on_c, 0, 60, 0
2, 16545, Note_on_c, 0, 68, 0
2, 16557, Control_c, 0, 64, 104
2, 16560, Control_c, 0, 64, 40
2, 16561, Control_c, 0, 64, 0
2, 16566, Note_on_c, 0, 78, 103
2, 16570, Note_on_c, 0, 68, 73
2, 16570, Note_on_c, 0, 73, 67
2, 16571, Note_on_c, 0, 61, 68
2, 16571, Note_on_c, 0, 49, 71
2, 16574, Note_on_c, 0, 49, 0
2, 16575, Note_on_c, 0, 73, 0
2, 16575, Control_c, 0, 64, 40
2, 16577, Control_c, 0, 64, 88
2, 16579, Note_on_c, 0, 61, 0
2, 16580, Note_on_c, 0, 68, 0
2, 16580, Control_c, 0, 64, 127
2, 16591, Note_on_c, 0, 78, 0
2, 16593, Control_c, 0, 64, 104
2, 16596, Control_c, 0, 64, 40
2, 16598, Control_c, 0, 64, 0
2, 16602, Note_on_c, 0, 76, 100
2, 16605, Note_on_c, 0, 52, 81
2, 16605, Note_on_c, 0, 64, 74
2, 16610, Note_on_c, 0, 52, 0
2, 16613, Note_on_c, 0, 64, 0
2, 16615, Control_c, 0, 64, 24
2, 16617, Control_c, 0, 64, 72
2, 16618, Control_c, 0, 64, 127
2, 16621, Note_on_c, 0, 73, 72
2, 16625, Note_on_c, 0, 76, 0
2, 16628, Note_on_c, 0, 68, 58
2, 16633, Note_on_c, 0, 73, 0
2, 16635, Note_on_c, 0, 61, 65
2, 16636, Note_on_c, 0, 49, 59
2, 16640, Note_on_c, 0, 68, 0
2, 16641, Note_on_c, 0, 49, 0
2, 16641, Note_on_c, 0, 61, 0
2, 16656, Control_c, 0, 64, 104
2, 16658, Control_c, 0, 64, 72
2, 16661, Control_c, 0, 64, 24
2, 16662, Control_c, 0, 64, 0
2, 16670, Note_on_c, 0, 75, 94
2, 16672, Note_on_c, 0, 64, 73
2, 16672, Note_on_c, 0, 70, 72
2, 16673, Note_on_c, 0, 42, 67
2, 16673, Note_on_c, 0, 54, 67
2, 16676, Note_on_c, 0, 42, 0
2, 16676, Control_c, 0, 64, 24
2, 16678, Control_c, 0, 64, 72
2, 16679, Note_on_c, 0, 54, 0
2, 16681, Control_c, 0, 64, 127
2, 16685, Note_on_c, 0, 70, 0
2, 16685, Note_on_c, 0, 64, 0
2, 16696, Note_on_c, 0, 75, 0
2, 16706, Note_on_c, 0, 73, 79
2, 16710, Note_on_c, 0, 58, 65
2, 16713, Note_on_c, 0, 46, 40
2, 16715, Note_on_c, 0, 58, 0
2, 16716, Note_on_c, 0, 46, 0
2, 16725, Note_on_c, 0, 70, 65
2, 16731, Note_on_c, 0, 73, 0
2, 16737, Note_on_c, 0, 70, 0
2, 16738, Note_on_c, 0, 54, 68
2, 16741, Note_on_c, 0, 54, 0
2, 16741, Note_on_c, 0, 42, 36
2, 16742, Note_on_c, 0, 64, 51
2, 16746, Note_on_c, 0, 42, 0
2, 16748, Note_on_c, 0, 64, 0
2, 16757, Control_c, 0, 64, 104
2, 16760, Control_c, 0, 64, 72
2, 16762, Control_c, 0, 64, 40
2, 16763, Control_c, 0, 64, 0
2, 16777, Note_on_c, 0, 68, 61
2, 16783, Note_on_c, 0, 66, 78
2, 16787, Note_on_c, 0, 68, 0
2, 16793, Note_on_c, 0, 66, 0
2, 16816, Note_on_c, 0, 66, 75
2, 16817, Note_on_c, 0, 47, 73
2, 16822, Note_on_c, 0, 47, 0
2, 16826, Note_on_c, 0, 66, 0
2, 16830, Note_on_c, 0, 63, 65
2, 16842, Note_on_c, 0, 63, 0
2, 16855, Note_on_c, 0, 68, 66
2, 16856, Note_on_c, 0, 54, 50
2, 16861, Note_on_c, 0, 66, 73
2, 16863, Note_on_c, 0, 68, 0
2, 16871, Note_on_c, 0, 54, 0
2, 16872, Note_on_c, 0, 66, 0
2, 16891, Note_on_c, 0, 71, 78
2, 16893, Note_on_c, 0, 63, 38
2, 16895, Note_on_c, 0, 59, 50
2, 16901, Note_on_c, 0, 69, 61
2, 16902, Note_on_c, 0, 71, 0
2, 16912, Note_on_c, 0, 69, 0
2, 16931, Note_on_c, 0, 69, 88
2, 16938, Note_on_c, 0, 69, 0
2, 16942, Note_on_c, 0, 66, 75
2, 16955, Note_on_c, 0, 66, 0
2, 16968, Note_on_c, 0, 71, 73
2, 16972, Note_on_c, 0, 54, 47
2, 16975, Note_on_c, 0, 63, 0
2, 16976, Note_on_c, 0, 59, 0
2, 16976, Note_on_c, 0, 69, 78
2, 16979, Note_on_c, 0, 71, 0
2, 16983, Note_on_c, 0, 54, 0
2, 16987, Note_on_c, 0, 69, 0
2, 17005, Note_on_c, 0, 73, 83
2, 17013, Note_on_c, 0, 71, 73
2, 17016, Note_on_c, 0, 73, 0
2, 17024, Note_on_c, 0, 71, 0
2, 17042, Note_on_c, 0, 71, 82
2, 17045, Note_on_c, 0, 47, 69
2, 17050, Note_on_c, 0, 47, 0
2, 17053, Note_on_c, 0, 71, 0
2, 17057, Note_on_c, 0, 68, 63
2, 17070, Note_on_c, 0, 68, 0
2, 17078, Note_on_c, 0, 56, 64
2, 17080, Note_on_c, 0, 73, 75
2, 17088, Note_on_c, 0, 71, 76
2, 17091, Note_on_c, 0, 73, 0
2, 17098, Note_on_c, 0, 71, 0
2, 17109, Note_on_c, 0, 56, 0
2, 17115, Note_on_c, 0, 78, 95
2, 17117, Note_on_c, 0, 59, 69
2, 17120, Note_on_c, 0, 64, 52
2, 17126, Note_on_c, 0, 76, 81
2, 17127, Note_on_c, 0, 78, 0
2, 17136, Note_on_c, 0, 76, 0
2, 17156, Note_on_c, 0, 76, 85
2, 17164, Note_on_c, 0, 76, 0
2, 17168, Note_on_c, 0, 71, 71
2, 17179, Note_on_c, 0, 71, 0
2, 17190, Note_on_c, 0, 56, 61
2, 17191, Note_on_c, 0, 78, 81
2, 17193, Note_on_c, 0, 64, 0
2, 17193, Note_on_c, 0, 59, 0
2, 17200, Note_on_c, 0, 56, 0
2, 17202, Note_on_c, 0, 76, 77
2, 17203, Note_on_c, 0, 78, 0
2, 17212, Note_on_c, 0, 76, 0
2, 17231, Note_on_c, 0, 80, 95
2, 17231, Note_on_c, 0, 75, 86
2, 17231, Note_on_c, 0, 68, 77
2, 17232, Note_on_c, 0, 48, 75
2, 17233, Note_on_c, 0, 60, 70
2, 17235, Note_on_c, 0, 48, 0
2, 17237, Note_on_c, 0, 68, 0
2, 17237, Control_c, 0, 64, 56
2, 17238, Note_on_c, 0, 60, 0
2, 17238, Note_on_c, 0, 75, 0
2, 17240, Control_c, 0, 64, 88
2, 17242, Control_c, 0, 64, 127
2, 17246, Note_on_c, 0, 80, 0
2, 17270, Note_on_c, 0, 80, 89
2, 17272, Note_on_c, 0, 63, 57
2, 17273, Note_on_c, 0, 51, 56
2, 17276, Note_on_c, 0, 51, 0
2, 17279, Note_on_c, 0, 63, 0
2, 17282, Note_on_c, 0, 80, 0
2, 17287, Note_on_c, 0, 92, 97
2, 17303, Note_on_c, 0, 68, 70
2, 17304, Note_on_c, 0, 92, 0
2, 17305, Note_on_c, 0, 80, 85
2, 17305, Note_on_c, 0, 56, 59
2, 17308, Note_on_c, 0, 56, 0
2, 17309, Note_on_c, 0, 68, 0
2, 17320, Note_on_c, 0, 80, 0
2, 17327, Control_c, 0, 64, 88
2, 17330, Control_c, 0, 64, 56
2, 17332, Control_c, 0, 64, 0
2, 17341, Note_on_c, 0, 93, 107
2, 17342, Note_on_c, 0, 81, 84
2, 17343, Note_on_c, 0, 87, 77
2, 17346, Note_on_c, 0, 60, 71
2, 17347, Note_on_c, 0, 72, 78
2, 17351, Note_on_c, 0, 60, 0
2, 17351, Control_c, 0, 64, 56
2, 17352, Note_on_c, 0, 81, 0
2, 17352, Control_c, 0, 64, 104
2, 17355, Control_c, 0, 64, 127
2, 17358, Note_on_c, 0, 72, 0
2, 17359, Note_on_c, 0, 93, 0
2, 17365, Note_on_c, 0, 87, 0
2, 17380, Note_on_c, 0, 92, 105
2, 17381, Note_on_c, 0, 75, 81
2, 17382, Note_on_c, 0, 63, 65
2, 17387, Note_on_c, 0, 63, 0
2, 17391, Note_on_c, 0, 75, 0
2, 17398, Note_on_c, 0, 87, 78
2, 17406, Note_on_c, 0, 92, 0
2, 17410, Note_on_c, 0, 87, 0
2, 17415, Note_on_c, 0, 80, 63
2, 17418, Note_on_c, 0, 60, 65
2, 17420, Note_on_c, 0, 72, 52
2, 17424, Note_on_c, 0, 60, 0
2, 17428, Note_on_c, 0, 72, 0
2, 17430, Note_on_c, 0, 80, 0
2, 17435, Control_c, 0, 64, 104
2, 17437, Control_c, 0, 64, 72
2, 17440, Control_c, 0, 64, 40
2, 17442, Control_c, 0, 64, 24
2, 17445, Control_c, 0, 64, 0
2, 17450, Note_on_c, 0, 90, 103
2, 17453, Note_on_c, 0, 80, 81
2, 17453, Note_on_c, 0, 85, 71
2, 17455, Note_on_c, 0, 73, 72
2, 17455, Note_on_c, 0, 61, 53
2, 17456, Control_c, 0, 64, 24
2, 17458, Control_c, 0, 64, 72
2, 17460, Note_on_c, 0, 61, 0
2, 17461, Note_on_c, 0, 73, 0
2, 17461, Control_c, 0, 64, 127
2, 17465, Note_on_c, 0, 80, 0
2, 17468, Note_on_c, 0, 85, 0
2, 17473, Note_on_c, 0, 90, 0
2, 17487, Note_on_c, 0, 88, 103
2, 17490, Note_on_c, 0, 76, 78
2, 17490, Note_on_c, 0, 64, 66
2, 17497, Note_on_c, 0, 64, 0
2, 17500, Note_on_c, 0, 76, 0
2, 17507, Note_on_c, 0, 85, 74
2, 17510, Note_on_c, 0, 88, 0
2, 17515, Note_on_c, 0, 80, 68
2, 17518, Note_on_c, 0, 85, 0
2, 17523, Note_on_c, 0, 73, 66
2, 17526, Note_on_c, 0, 73, 0
2, 17526, Note_on_c, 0, 61, 39
2, 17527, Note_on_c, 0, 80, 0
2, 17531, Note_on_c, 0, 61, 0
2, 17552, Control_c, 0, 64, 88
2, 17555, Control_c, 0, 64, 56
2, 17557, Note_on_c, 0, 87, 97
2, 17557, Control_c, 0, 64, 0
2, 17560, Note_on_c, 0, 66, 66
2, 17560, Note_on_c, 0, 76, 80
2, 17561, Note_on_c, 0, 54, 61
2, 17561, Note_on_c, 0, 82, 74
2, 17568, Note_on_c, 0, 54, 0
2, 17568, Note_on_c, 0, 66, 0
2, 17568, Control_c, 0, 64, 24
2, 17571, Control_c, 0, 64, 72
2, 17573, Control_c, 0, 64, 127
2, 17574, Note_on_c, 0, 82, 0
2, 17578, Note_on_c, 0, 76, 0
2, 17585, Note_on_c, 0, 87, 0
2, 17598, Note_on_c, 0, 85, 89
2, 17598, Note_on_c, 0, 70, 63
2, 17601, Note_on_c, 0, 70, 0
2, 17613, Note_on_c, 0, 82, 65
2, 17621, Note_on_c, 0, 85, 0
2, 17626, Note_on_c, 0, 82, 0
2, 17630, Note_on_c, 0, 66, 53
2, 17630, Note_on_c, 0, 76, 65
2, 17633, Note_on_c, 0, 66, 0
2, 17638, Note_on_c, 0, 76, 0
2, 17647, Control_c, 0, 64, 104
2, 17648, Control_c, 0, 64, 72
2, 17651, Control_c, 0, 64, 56
2, 17653, Control_c, 0, 64, 40
2, 17656, Control_c, 0, 64, 24
2, 17658, Control_c, 0, 64, 0
2, 17661, Note_on_c, 0, 80, 75
2, 17668, Note_on_c, 0, 78, 72
2, 17672, Note_on_c, 0, 80, 0
2, 17679, Note_on_c, 0, 78, 0
2, 17698, Note_on_c, 0, 78, 82
2, 17701, Note_on_c, 0, 59, 60
2, 17708, Note_on_c, 0, 78, 0
2, 17711, Note_on_c, 0, 59, 0
2, 17711, Note_on_c, 0, 75, 77
2, 17724, Note_on_c, 0, 75, 0
2, 17735, Note_on_c, 0, 80, 84
2, 17738, Note_on_c, 0, 66, 63
2, 17745, Note_on_c, 0, 78, 74
2, 17747, Note_on_c, 0, 80, 0
2, 17756, Note_on_c, 0, 78, 0
2, 17772, Note_on_c, 0, 83, 91
2, 17776, Note_on_c, 0, 75, 53
2, 17777, Note_on_c, 0, 71, 62
2, 17781, Note_on_c, 0, 66, 0
2, 17782, Note_on_c, 0, 81, 82
2, 17784, Note_on_c, 0, 83, 0
2, 17792, Note_on_c, 0, 81, 0
2, 17812, Note_on_c, 0, 81, 76
2, 17819, Note_on_c, 0, 81, 0
2, 17825, Note_on_c, 0, 78, 80
2, 17835, Note_on_c, 0, 78, 0
2, 17850, Note_on_c, 0, 83, 86
2, 17858, Note_on_c, 0, 66, 46
2, 17858, Note_on_c, 0, 81, 84
2, 17862, Note_on_c, 0, 83, 0
2, 17863, Note_on_c, 0, 71, 0
2, 17863, Note_on_c, 0, 75, 0
2, 17869, Note_on_c, 0, 66, 0
2, 17869, Note_on_c, 0, 81, 0
2, 17886, Note_on_c, 0, 85, 90
2, 17895, Note_on_c, 0, 83, 80
2, 17897, Note_on_c, 0, 85, 0
2, 17905, Note_on_c, 0, 83, 0
2, 17922, Note_on_c, 0, 83, 87
2, 17925, Note_on_c, 0, 59, 64
2, 17932, Note_on_c, 0, 59, 0
2, 17933, Note_on_c, 0, 83, 0
2, 17937, Note_on_c, 0, 80, 77
2, 17948, Note_on_c, 0, 80, 0
2, 17961, Note_on_c, 0, 85, 82
2, 17961, Note_on_c, 0, 68, 65
2, 17971, Note_on_c, 0, 83, 81
2, 17974, Note_on_c, 0, 85, 0
2, 17981, Note_on_c, 0, 83, 0
2, 17998, Note_on_c, 0, 90, 89
2, 18002, Note_on_c, 0, 76, 61
2, 18003, Note_on_c, 0, 71, 59
2, 18004, Note_on_c, 0, 68, 0
2, 18008, Note_on_c, 0, 88, 78
2, 18009, Note_on_c, 0, 90, 0
2, 18019, Note_on_c, 0, 88, 0
2, 18040, Note_on_c, 0, 88, 89
2, 18048, Note_on_c, 0, 88, 0
2, 18052, Note_on_c, 0, 83, 70
2, 18059, Note_on_c, 0, 83, 0
2, 18075, Note_on_c, 0, 90, 87
2, 18078, Note_on_c, 0, 68, 56
2, 18082, Note_on_c, 0, 76, 0
2, 18083, Note_on_c, 0, 71, 0
2, 18087, Note_on_c, 0, 90, 0
2, 18087, Note_on_c, 0, 88, 80
2, 18091, Note_on_c, 0, 68, 0
2, 18095, Note_on_c, 0, 88, 0
2, 18113, Note_on_c, 0, 92, 95
2, 18120, Note_on_c, 0, 90, 77
2, 18121, Note_on_c, 0, 92, 0
2, 18130, Note_on_c, 0, 90, 0
2, 18145, Note_on_c, 0, 90, 89
2, 18151, Note_on_c, 0, 59, 68
2, 18155, Note_on_c, 0, 90, 0
2, 18156, Note_on_c, 0, 59, 0
2, 18160, Note_on_c, 0, 87, 86
2, 18175, Note_on_c, 0, 87, 0
2, 18185, Note_on_c, 0, 92, 93
2, 18187, Note_on_c, 0, 66, 79
2, 18195, Note_on_c, 0, 92, 0
2, 18195, Note_on_c, 0, 90, 83
2, 18207, Note_on_c, 0, 90, 0
2, 18218, Note_on_c, 0, 66, 0
2, 18225, Note_on_c, 0, 95, 90
2, 18226, Note_on_c, 0, 75, 79
2, 18227, Note_on_c, 0, 69, 62
2, 18228, Note_on_c, 0, 78, 73
2, 18231, Note_on_c, 0, 93, 81
2, 18231, Control_c, 0, 64, 24
2, 18233, Control_c, 0, 64, 72
2, 18235, Note_on_c, 0, 95, 0
2, 18236, Control_c, 0, 64, 104
2, 18237, Control_c, 0, 64, 127
2, 18239, Note_on_c, 0, 93, 0
2, 18263, Note_on_c, 0, 93, 74
2, 18269, Note_on_c, 0, 93, 0
2, 18276, Note_on_c, 0, 90, 74
2, 18286, Note_on_c, 0, 90, 0
2, 18297, Note_on_c, 0, 95, 82
2, 18301, Note_on_c, 0, 71, 73
2, 18304, Note_on_c, 0, 69, 0
2, 18306, Note_on_c, 0, 75, 0
2, 18308, Note_on_c, 0, 78, 0
2, 18308, Note_on_c, 0, 93, 87
2, 18309, Note_on_c, 0, 95, 0
2, 18312, Note_on_c, 0, 71, 0
2, 18319, Note_on_c, 0, 93, 0
2, 18333, Control_c, 0, 64, 104
2, 18336, Note_on_c, 0, 97, 87
2, 18337, Control_c, 0, 64, 72
2, 18338, Control_c, 0, 64, 56
2, 18341, Control_c, 0, 64, 24
2, 18343, Note_on_c, 0, 95, 91
2, 18343, Control_c, 0, 64, 0
2, 18347, Note_on_c, 0, 97, 0
2, 18353, Note_on_c, 0, 95, 0
2, 18370, Note_on_c, 0, 95, 103
2, 18373, Note_on_c, 0, 59, 63
2, 18378, Note_on_c, 0, 59, 0
2, 18378, Control_c, 0, 64, 40
2, 18381, Note_on_c, 0, 95, 0
2, 18381, Control_c, 0, 64, 72
2, 18382, Control_c, 0, 64, 104
2, 18385, Control_c, 0, 64, 127
2, 18387, Note_on_c, 0, 92, 77
2, 18400, Note_on_c, 0, 92, 0
2, 18407, Note_on_c, 0, 97, 89
2, 18410, Note_on_c, 0, 68, 53
2, 18411, Note_on_c, 0, 71, 80
2, 18412, Note_on_c, 0, 94, 38
2, 18415, Note_on_c, 0, 95, 77
2, 18419, Note_on_c, 0, 94, 0
2, 18420, Note_on_c, 0, 97, 0
2, 18423, Note_on_c, 0, 95, 0
2, 18426, Note_on_c, 0, 71, 0
2, 18428, Note_on_c, 0, 68, 0
2, 18443, Note_on_c, 0, 102, 91
2, 18445, Note_on_c, 0, 76, 84
2, 18446, Note_on_c, 0, 80, 65
2, 18452, Note_on_c, 0, 100, 74
2, 18453, Note_on_c, 0, 71, 45
2, 18456, Note_on_c, 0, 102, 0
2, 18464, Note_on_c, 0, 100, 0
2, 18482, Note_on_c, 0, 100, 97
2, 18489, Note_on_c, 0, 100, 0
2, 18493, Note_on_c, 0, 95, 92
2, 18503, Note_on_c, 0, 95, 0
2, 18518, Note_on_c, 0, 102, 91
2, 18523, Note_on_c, 0, 68, 35
2, 18530, Note_on_c, 0, 102, 0
2, 18531, Note_on_c, 0, 80, 0
2, 18531, Note_on_c, 0, 100, 87
2, 18532, Note_on_c, 0, 76, 0
2, 18536, Note_on_c, 0, 71, 0
2, 18539, Note_on_c, 0, 68, 0
2, 18539, Note_on_c, 0, 100, 0
2, 18562, Note_on_c, 0, 92, 78
2, 18563, Note_on_c, 0, 59, 55
2, 18570, Control_c, 0, 64, 40
2, 18571, Control_c, 0, 64, 72
2, 18575, Control_c, 0, 64, 104
2, 18577, Control_c, 0, 64, 127
2, 18583, Note_on_c, 0, 90, 66
2, 18588, Note_on_c, 0, 92, 0
2, 18600, Note_on_c, 0, 90, 0
2, 18603, Note_on_c, 0, 89, 70
2, 18608, Note_on_c, 0, 69, 48
2, 18610, Note_on_c, 0, 66, 37
2, 18611, Control_c, 0, 64, 104
2, 18613, Note_on_c, 0, 63, 35
2, 18618, Note_on_c, 0, 69, 0
2, 18621, Note_on_c, 0, 63, 0
2, 18622, Note_on_c, 0, 90, 77
2, 18622, Control_c, 0, 64, 88
2, 18624, Note_on_c, 0, 89, 0
2, 18625, Note_on_c, 0, 66, 0
2, 18643, Note_on_c, 0, 90, 0
2, 18643, Note_on_c, 0, 92, 79
2, 18644, Note_on_c, 0, 59, 0
2, 18646, Note_on_c, 0, 66, 35
2, 18646, Note_on_c, 0, 63, 38
2, 18650, Note_on_c, 0, 69, 39
2, 18660, Note_on_c, 0, 92, 0
2, 18665, Note_on_c, 0, 93, 90
2, 18672, Note_on_c, 0, 69, 0
2, 18675, Control_c, 0, 64, 56
2, 18678, Control_c, 0, 64, 0
2, 18685, Note_on_c, 0, 94, 87
2, 18686, Note_on_c, 0, 58, 66
2, 18687, Note_on_c, 0, 93, 0
2, 18691, Note_on_c, 0, 63, 0
2, 18692, Note_on_c, 0, 66, 0
2, 18697, Control_c, 0, 64, 24
2, 18700, Control_c, 0, 64, 72
2, 18701, Note_on_c, 0, 94, 0
2, 18703, Control_c, 0, 64, 104
2, 18705, Note_on_c, 0, 95, 95
2, 18706, Control_c, 0, 64, 127
2, 18723, Note_on_c, 0, 95, 0
2, 18727, Note_on_c, 0, 96, 94
2, 18730, Note_on_c, 0, 70, 53
2, 18731, Note_on_c, 0, 66, 46
2, 18731, Note_on_c, 0, 63, 48
2, 18743, Note_on_c, 0, 70, 0
2, 18745, Note_on_c, 0, 96, 0
2, 18746, Note_on_c, 0, 66, 0
2, 18747, Note_on_c, 0, 97, 92
2, 18749, Note_on_c, 0, 63, 0
2, 18768, Note_on_c, 0, 99, 87
2, 18769, Note_on_c, 0, 58, 0
2, 18770, Note_on_c, 0, 63, 44
2, 18771, Note_on_c, 0, 70, 40
2, 18772, Note_on_c, 0, 66, 44
2, 18773, Note_on_c, 0, 97, 0
2, 18779, Note_on_c, 0, 99, 0
2, 18787, Note_on_c, 0, 70, 0
2, 18787, Note_on_c, 0, 100, 93
2, 18803, Control_c, 0, 64, 88
2, 18805, Note_on_c, 0, 100, 0
2, 18806, Control_c, 0, 64, 56
2, 18807, Note_on_c, 0, 66, 0
2, 18808, Note_on_c, 0, 101, 98
2, 18808, Control_c, 0, 64, 24
2, 18810, Note_on_c, 0, 63, 0
2, 18812, Control_c, 0, 64, 0
2, 18813, Note_on_c, 0, 57, 65
2, 18822, Control_c, 0, 64, 40
2, 18824, Note_on_c, 0, 101, 0
2, 18826, Control_c, 0, 64, 88
2, 18828, Note_on_c, 0, 102, 95
2, 18828, Control_c, 0, 64, 127
2, 18840, Note_on_c, 0, 57, 0
2, 18846, Note_on_c, 0, 102, 0
2, 18850, Note_on_c, 0, 103, 95
2, 18855, Note_on_c, 0, 66, 57
2, 18856, Note_on_c, 0, 63, 49
2, 18857, Note_on_c, 0, 71, 65
2, 18869, Note_on_c, 0, 71, 0
2, 18871, Note_on_c, 0, 102, 96
2, 18873, Note_on_c, 0, 66, 0
2, 18874, Note_on_c, 0, 63, 0
2, 18875, Note_on_c, 0, 103, 0
2, 18892, Note_on_c, 0, 101, 95
2, 18896, Note_on_c, 0, 102, 0
2, 18900, Note_on_c, 0, 66, 48
2, 18901, Note_on_c, 0, 71, 53
2, 18901, Note_on_c, 0, 63, 44
2, 18911, Note_on_c, 0, 71, 0
2, 18912, Note_on_c, 0, 101, 0
2, 18915, Note_on_c, 0, 100, 96
2, 18931, Control_c, 0, 64, 88
2, 18932, Note_on_c, 0, 66, 0
2, 18935, Control_c, 0, 64, 40
2, 18936, Note_on_c, 0, 99, 93
2, 18937, Control_c, 0, 64, 0
2, 18938, Note_on_c, 0, 56, 77
2, 18941, Note_on_c, 0, 100, 0
2, 18943, Note_on_c, 0, 63, 0
2, 18950, Control_c, 0, 64, 40
2, 18953, Control_c, 0, 64, 88
2, 18956, Note_on_c, 0, 56, 0
2, 18956, Control_c, 0, 64, 127
2, 18958, Note_on_c, 0, 97, 84
2, 18966, Note_on_c, 0, 99, 0
2, 18978, Note_on_c, 0, 96, 89
2, 18979, Note_on_c, 0, 97, 0
2, 18981, Note_on_c, 0, 66, 44
2, 18982, Note_on_c, 0, 63, 43
2, 18985, Note_on_c, 0, 72, 60
2, 18996, Note_on_c, 0, 72, 0
2, 18996, Note_on_c, 0, 96, 0
2, 18998, Note_on_c, 0, 63, 0
2, 18999, Note_on_c, 0, 66, 0
2, 19001, Note_on_c, 0, 95, 97
2, 19021, Note_on_c, 0, 95, 0
2, 19021, Note_on_c, 0, 63, 45
2, 19021, Note_on_c, 0, 94, 78
2, 19026, Note_on_c, 0, 72, 41
2, 19034, Note_on_c, 0, 63, 0
2, 19038, Note_on_c, 0, 94, 0
2, 19040, Note_on_c, 0, 93, 95
2, 19056, Note_on_c, 0, 72, 0
2, 19058, Note_on_c, 0, 93, 0
2, 19060, Note_on_c, 0, 62, 93
2, 19063, Note_on_c, 0, 92, 79
2, 19065, Control_c, 0, 64, 88
2, 19068, Control_c, 0, 64, 56
2, 19071, Control_c, 0, 64, 24
2, 19073, Control_c, 0, 64, 0
2, 19083, Note_on_c, 0, 90, 78
2, 19089, Note_on_c, 0, 92, 0
2, 19090, Control_c, 0, 64, 40
2, 19092, Control_c, 0, 64, 88
2, 19096, Control_c, 0, 64, 127
2, 19104, Note_on_c, 0, 90, 0
2, 19105, Note_on_c, 0, 89, 84
2, 19107, Note_on_c, 0, 66, 47
2, 19110, Note_on_c, 0, 69, 58
2, 19110, Note_on_c, 0, 72, 58
2, 19122, Note_on_c, 0, 72, 0
2, 19123, Note_on_c, 0, 89, 0
2, 19125, Note_on_c, 0, 90, 78
2, 19126, Note_on_c, 0, 69, 0
2, 19130, Note_on_c, 0, 66, 0
2, 19147, Note_on_c, 0, 90, 0
2, 19148, Note_on_c, 0, 92, 84
2, 19150, Note_on_c, 0, 66, 44
2, 19153, Note_on_c, 0, 69, 50
2, 19153, Note_on_c, 0, 72, 50
2, 19156, Note_on_c, 0, 62, 0
2, 19168, Note_on_c, 0, 92, 0
2, 19170, Note_on_c, 0, 93, 87
2, 19178, Note_on_c, 0, 72, 0
2, 19185, Control_c, 0, 64, 104
2, 19187, Note_on_c, 0, 93, 0
2, 19187, Control_c, 0, 64, 72
2, 19190, Note_on_c, 0, 61, 83
2, 19190, Note_on_c, 0, 94, 96
2, 19191, Control_c, 0, 64, 24
2, 19193, Control_c, 0, 64, 0
2, 19194, Note_on_c, 0, 69, 0
2, 19197, Note_on_c, 0, 66, 0
2, 19210, Note_on_c, 0, 94, 0
2, 19210, Note_on_c, 0, 95, 82
2, 19210, Control_c, 0, 64, 56
2, 19212, Control_c, 0, 64, 104
2, 19216, Control_c, 0, 64, 127
2, 19225, Note_on_c, 0, 95, 0
2, 19231, Note_on_c, 0, 96, 91
2, 19236, Note_on_c, 0, 66, 54
2, 19236, Note_on_c, 0, 69, 55
2, 19236, Note_on_c, 0, 73, 54
2, 19248, Note_on_c, 0, 96, 0
2, 19249, Note_on_c, 0, 73, 0
2, 19253, Note_on_c, 0, 69, 0
2, 19253, Note_on_c, 0, 97, 89
2, 19254, Note_on_c, 0, 66, 0
2, 19271, Note_on_c, 0, 97, 0
2, 19273, Note_on_c, 0, 99, 90
2, 19276, Note_on_c, 0, 66, 47
2, 19276, Note_on_c, 0, 73, 47
2, 19278, Note_on_c, 0, 69, 51
2, 19280, Note_on_c, 0, 61, 0
2, 19293, Note_on_c, 0, 73, 0
2, 19293, Note_on_c, 0, 100, 83
2, 19298, Note_on_c, 0, 99, 0
2, 19305, Note_on_c, 0, 100, 0
2, 19310, Note_on_c, 0, 69, 0
2, 19313, Note_on_c, 0, 101, 95
2, 19313, Control_c, 0, 64, 104
2, 19316, Note_on_c, 0, 66, 0
2, 19316, Control_c, 0, 64, 56
2, 19318, Note_on_c, 0, 60, 78
2, 19318, Control_c, 0, 64, 0
2, 19329, Note_on_c, 0, 101, 0
2, 19332, Control_c, 0, 64, 24
2, 19333, Note_on_c, 0, 102, 95
2, 19335, Control_c, 0, 64, 88
2, 19337, Control_c, 0, 64, 127
2, 19348, Note_on_c, 0, 60, 0
2, 19349, Note_on_c, 0, 102, 0
2, 19355, Note_on_c, 0, 103, 85
2, 19362, Note_on_c, 0, 66, 58
2, 19363, Note_on_c, 0, 74, 66
2, 19363, Note_on_c, 0, 69, 68
2, 19372, Note_on_c, 0, 103, 0
2, 19375, Note_on_c, 0, 102, 92
2, 19380, Note_on_c, 0, 74, 0
2, 19381, Note_on_c, 0, 69, 0
2, 19382, Note_on_c, 0, 66, 0
2, 19396, Note_on_c, 0, 101, 96
2, 19402, Note_on_c, 0, 102, 0
2, 19405, Note_on_c, 0, 66, 56
2, 19405, Note_on_c, 0, 69, 64
2, 19406, Note_on_c, 0, 74, 64
2, 19413, Note_on_c, 0, 74, 0
2, 19417, Note_on_c, 0, 100, 94
2, 19419, Note_on_c, 0, 101, 0
2, 19428, Note_on_c, 0, 69, 0
2, 19438, Control_c, 0, 64, 104
2, 19440, Note_on_c, 0, 100, 0
2, 19441, Control_c, 0, 64, 40
2, 19442, Note_on_c, 0, 66, 0
2, 19443, Note_on_c, 0, 99, 97
2, 19443, Control_c, 0, 64, 0
2, 19445, Note_on_c, 0, 59, 69
2, 19457, Control_c, 0, 64, 40
2, 19460, Note_on_c, 0, 59, 0
2, 19461, Control_c, 0, 64, 104
2, 19463, Note_on_c, 0, 99, 0
2, 19463, Control_c, 0, 64, 127
2, 19465, Note_on_c, 0, 97, 93
2, 19486, Note_on_c, 0, 96, 94
2, 19491, Note_on_c, 0, 69, 73
2, 19493, Note_on_c, 0, 66, 56
2, 19495, Note_on_c, 0, 97, 0
2, 19495, Note_on_c, 0, 75, 60
2, 19509, Note_on_c, 0, 66, 0
2, 19509, Note_on_c, 0, 69, 0
2, 19510, Note_on_c, 0, 75, 0
2, 19510, Note_on_c, 0, 95, 95
2, 19511, Note_on_c, 0, 96, 0
2, 19527, Note_on_c, 0, 95, 0
2, 19532, Note_on_c, 0, 94, 89
2, 19533, Note_on_c, 0, 75, 66
2, 19533, Note_on_c, 0, 66, 59
2, 19533, Note_on_c, 0, 69, 62
2, 19539, Note_on_c, 0, 69, 0
2, 19541, Note_on_c, 0, 75, 0
2, 19546, Note_on_c, 0, 66, 0
2, 19550, Note_on_c, 0, 94, 0
2, 19552, Note_on_c, 0, 93, 88
2, 19568, Note_on_c, 0, 93, 0
2, 19570, Control_c, 0, 64, 104
2, 19572, Control_c, 0, 64, 56
2, 19575, Control_c, 0, 64, 0
2, 19581, Note_on_c, 0, 92, 95
2, 19583, Note_on_c, 0, 56, 63
2, 19585, Note_on_c, 0, 52, 64
2, 19586, Note_on_c, 0, 64, 59
2, 19586, Note_on_c, 0, 62, 54
2, 19601, Note_on_c, 0, 52, 0
2, 19602, Note_on_c, 0, 64, 0
2, 19602, Note_on_c, 0, 62, 0
2, 19603, Note_on_c, 0, 104, 87
2, 19604, Note_on_c, 0, 56, 0
2, 19604, Note_on_c, 0, 92, 0
2, 19620, Note_on_c, 0, 104, 0
2, 19627, Note_on_c, 0, 90, 91
2, 19630, Note_on_c, 0, 56, 45
2, 19632, Note_on_c, 0, 52, 50
2, 19633, Note_on_c, 0, 62, 37
2, 19633, Note_on_c, 0, 64, 39
2, 19644, Note_on_c, 0, 64, 0
2, 19644, Note_on_c, 0, 62, 0
2, 19646, Note_on_c, 0, 56, 0
2, 19648, Note_on_c, 0, 52, 0
2, 19649, Note_on_c, 0, 90, 0
2, 19651, Note_on_c, 0, 102, 86
2, 19666, Note_on_c, 0, 102, 0
2, 19673, Note_on_c, 0, 88, 90
2, 19673, Note_on_c, 0, 52, 54
2, 19675, Note_on_c, 0, 56, 52
2, 19676, Note_on_c, 0, 64, 47
2, 19677, Note_on_c, 0, 62, 45
2, 19680, Note_on_c, 0, 52, 0
2, 19686, Note_on_c, 0, 56, 0
2, 19691, Note_on_c, 0, 88, 0
2, 19695, Note_on_c, 0, 100, 92
2, 19697, Note_on_c, 0, 62, 0
2, 19697, Note_on_c, 0, 64, 0
2, 19708, Note_on_c, 0, 100, 0
2, 19710, Control_c, 0, 64, 104
2, 19712, Control_c, 0, 64, 40
2, 19715, Control_c, 0, 64, 0
2, 19717, Note_on_c, 0, 86, 93
2, 19720, Note_on_c, 0, 64, 51
2, 19720, Note_on_c, 0, 62, 47
2, 19721, Note_on_c, 0, 54, 48
2, 19725, Note_on_c, 0, 57, 59
2, 19728, Control_c, 0, 64, 56
2, 19731, Control_c, 0, 64, 127
2, 19734, Note_on_c, 0, 54, 0
2, 19737, Note_on_c, 0, 62, 0
2, 19739, Note_on_c, 0, 86, 0
2, 19740, Note_on_c, 0, 64, 0
2, 19741, Note_on_c, 0, 57, 0
2, 19741, Note_on_c, 0, 98, 92
2, 19753, Note_on_c, 0, 98, 0
2, 19763, Note_on_c, 0, 82, 94
2, 19765, Note_on_c, 0, 54, 46
2, 19766, Note_on_c, 0, 57, 52
2, 19770, Note_on_c, 0, 64, 32
2, 19772, Note_on_c, 0, 62, 28
2, 19779, Note_on_c, 0, 62, 0
2, 19782, Note_on_c, 0, 64, 0
2, 19783, Note_on_c, 0, 82, 0
2, 19784, Note_on_c, 0, 57, 0
2, 19785, Note_on_c, 0, 54, 0
2, 19785, Note_on_c, 0, 94, 84
2, 19802, Note_on_c, 0, 94, 0
2, 19803, Note_on_c, 0, 54, 50
2, 19806, Note_on_c, 0, 83, 95
2, 19807, Note_on_c, 0, 57, 48
2, 19810, Note_on_c, 0, 64, 36
2, 19811, Note_on_c, 0, 62, 35
2, 19813, Note_on_c, 0, 57, 0
2, 19819, Note_on_c, 0, 54, 0
2, 19824, Note_on_c, 0, 62, 0
2, 19824, Note_on_c, 0, 83, 0
2, 19825, Note_on_c, 0, 64, 0
2, 19828, Note_on_c, 0, 95, 100
2, 19840, Note_on_c, 0, 95, 0
2, 19840, Control_c, 0, 64, 104
2, 19842, Control_c, 0, 64, 56
2, 19846, Control_c, 0, 64, 0
2, 19850, Note_on_c, 0, 85, 99
2, 19852, Note_on_c, 0, 64, 69
2, 19853, Note_on_c, 0, 56, 56
2, 19853, Note_on_c, 0, 62, 59
2, 19856, Note_on_c, 0, 59, 56
2, 19858, Control_c, 0, 64, 24
2, 19861, Control_c, 0, 64, 88
2, 19863, Control_c, 0, 64, 127
2, 19864, Note_on_c, 0, 59, 0
2, 19869, Note_on_c, 0, 56, 0
2, 19869, Note_on_c, 0, 62, 0
2, 19871, Note_on_c, 0, 85, 0
2, 19873, Note_on_c, 0, 97, 89
2, 19874, Note_on_c, 0, 64, 0
2, 19888, Note_on_c, 0, 97, 0
2, 19896, Note_on_c, 0, 83, 92
2, 19898, Note_on_c, 0, 56, 48
2, 19898, Note_on_c, 0, 64, 52
2, 19901, Note_on_c, 0, 62, 47
2, 19902, Note_on_c, 0, 59, 44
2, 19909, Note_on_c, 0, 62, 0
2, 19910, Note_on_c, 0, 59, 0
2, 19913, Note_on_c, 0, 64, 0
2, 19913, Note_on_c, 0, 83, 0
2, 19915, Note_on_c, 0, 56, 0
2, 19918, Note_on_c, 0, 95, 96
2, 19934, Note_on_c, 0, 95, 0
2, 19938, Note_on_c, 0, 56, 41
2, 19938, Note_on_c, 0, 82, 87
2, 19940, Note_on_c, 0, 64, 54
2, 19942, Note_on_c, 0, 59, 48
2, 19942, Note_on_c, 0, 62, 51
2, 19950, Note_on_c, 0, 62, 0
2, 19953, Note_on_c, 0, 59, 0
2, 19954, Note_on_c, 0, 56, 0
2, 19956, Note_on_c, 0, 64, 0
2, 19958, Note_on_c, 0, 82, 0
2, 19958, Note_on_c, 0, 94, 84
2, 19973, Note_on_c, 0, 94, 0
2, 19973, Control_c, 0, 64, 88
2, 19976, Control_c, 0, 64, 24
2, 19978, Control_c, 0, 64, 0
2, 19981, Note_on_c, 0, 81, 84
2, 19985, Note_on_c, 0, 64, 63
2, 19986, Note_on_c, 0, 62, 57
2, 19987, Note_on_c, 0, 57, 52
2, 19987, Note_on_c, 0, 54, 46
2, 19995, Control_c, 0, 64, 72
2, 19997, Control_c, 0, 64, 127
2, 20001, Note_on_c, 0, 62, 0
2, 20002, Note_on_c, 0, 54, 0
2, 20002, Note_on_c, 0, 64, 0
2, 20003, Note_on_c, 0, 57, 0
2, 20004, Note_on_c, 0, 81, 0
2, 20006, Note_on_c, 0, 93, 92
2, 20014, Note_on_c, 0, 93, 0
2, 20028, Note_on_c, 0, 64, 57
2, 20028, Note_on_c, 0, 54, 46
2, 20030, Note_on_c, 0, 77, 91
2, 20031, Note_on_c, 0, 62, 49
2, 20033, Note_on_c, 0, 57, 39
2, 20039, Note_on_c, 0, 62, 0
2, 20040, Note_on_c, 0, 64, 0
2, 20041, Note_on_c, 0, 57, 0
2, 20043, Note_on_c, 0, 77, 0
2, 20044, Note_on_c, 0, 54, 0
2, 20051, Note_on_c, 0, 89, 90
2, 20064, Note_on_c, 0, 89, 0
2, 20070, Note_on_c, 0, 54, 47
2, 20070, Note_on_c, 0, 78, 90
2, 20070, Note_on_c, 0, 62, 60
2, 20073, Note_on_c, 0, 64, 52
2, 20081, Note_on_c, 0, 54, 0
2, 20082, Note_on_c, 0, 62, 0
2, 20089, Note_on_c, 0, 64, 0
2, 20091, Note_on_c, 0, 78, 0
2, 20093, Note_on_c, 0, 90, 83
2, 20103, Control_c, 0, 64, 104
2, 20106, Control_c, 0, 64, 56
2, 20108, Control_c, 0, 64, 0
2, 20110, Note_on_c, 0, 90, 0
2, 20116, Note_on_c, 0, 80, 95
2, 20118, Note_on_c, 0, 56, 62
2, 20120, Note_on_c, 0, 52, 62
2, 20120, Note_on_c, 0, 64, 58
2, 20120, Note_on_c, 0, 62, 54
2, 20128, Note_on_c, 0, 52, 0
2, 20128, Control_c, 0, 64, 72
2, 20131, Control_c, 0, 64, 127
2, 20133, Note_on_c, 0, 62, 0
2, 20135, Note_on_c, 0, 64, 0
2, 20136, Note_on_c, 0, 56, 0
2, 20136, Note_on_c, 0, 80, 0
2, 20138, Note_on_c, 0, 92, 94
2, 20154, Note_on_c, 0, 92, 0
2, 20161, Note_on_c, 0, 78, 86
2, 20163, Note_on_c, 0, 56, 54
2, 20166, Note_on_c, 0, 52, 51
2, 20168, Note_on_c, 0, 64, 32
2, 20168, Note_on_c, 0, 62, 31
2, 20178, Note_on_c, 0, 62, 0
2, 20179, Note_on_c, 0, 64, 0
2, 20181, Note_on_c, 0, 52, 0
2, 20181, Note_on_c, 0, 56, 0
2, 20181, Note_on_c, 0, 90, 85
2, 20182, Note_on_c, 0, 78, 0
2, 20196, Note_on_c, 0, 90, 0
2, 20203, Note_on_c, 0, 76, 91
2, 20205, Note_on_c, 0, 56, 58
2, 20210, Note_on_c, 0, 52, 36
2, 20210, Note_on_c, 0, 64, 34
2, 20210, Note_on_c, 0, 62, 32
2, 20215, Note_on_c, 0, 52, 0
2, 20220, Note_on_c, 0, 76, 0
2, 20220, Note_on_c, 0, 56, 0
2, 20225, Note_on_c, 0, 62, 0
2, 20225, Note_on_c, 0, 88, 89
2, 20226, Note_on_c, 0, 64, 0
2, 20237, Note_on_c, 0, 88, 0
2, 20240, Control_c, 0, 64, 88
2, 20242, Control_c, 0, 64, 24
2, 20245, Control_c, 0, 64, 0
2, 20246, Note_on_c, 0, 74, 88
2, 20248, Note_on_c, 0, 54, 54
2, 20251, Note_on_c, 0, 64, 44
2, 20251, Note_on_c, 0, 57, 54
2, 20251, Note_on_c, 0, 62, 38
2, 20258, Control_c, 0, 64, 56
2, 20261, Control_c, 0, 64, 127
2, 20262, Note_on_c, 0, 62, 0
2, 20262, Note_on_c, 0, 64, 0
2, 20264, Note_on_c, 0, 54, 0
2, 20266, Note_on_c, 0, 74, 0
2, 20266, Note_on_c, 0, 57, 0
2, 20267, Note_on_c, 0, 86, 88
2, 20277, Note_on_c, 0, 86, 0
2, 20288, Note_on_c, 0, 70, 89
2, 20291, Note_on_c, 0, 54, 44
2, 20292, Note_on_c, 0, 57, 50
2, 20292, Note_on_c, 0, 64, 34
2, 20296, Note_on_c, 0, 62, 24
2, 20302, Note_on_c, 0, 62, 0
2, 20303, Note_on_c, 0, 64, 0
2, 20307, Note_on_c, 0, 57, 0
2, 20307, Note_on_c, 0, 54, 0
2, 20310, Note_on_c, 0, 70, 0
2, 20310, Note_on_c, 0, 82, 81
2, 20330, Note_on_c, 0, 82, 0
2, 20330, Note_on_c, 0, 54, 54
2, 20333, Note_on_c, 0, 71, 84
2, 20333, Note_on_c, 0, 57, 52
2, 20338, Note_on_c, 0, 64, 54
2, 20341, Note_on_c, 0, 57, 0
2, 20347, Note_on_c, 0, 54, 0
2, 20350, Note_on_c, 0, 71, 0
2, 20351, Note_on_c, 0, 64, 0
2, 20355, Note_on_c, 0, 83, 93
2, 20365, Note_on_c, 0, 83, 0
2, 20370, Control_c, 0, 64, 104
2, 20372, Control_c, 0, 64, 40
2, 20376, Control_c, 0, 64, 0
2, 20377, Note_on_c, 0, 73, 92
2, 20378, Note_on_c, 0, 64, 56
2, 20380, Note_on_c, 0, 56, 46
2, 20380, Note_on_c, 0, 62, 54
2, 20381, Note_on_c, 0, 59, 50
2, 20386, Control_c, 0, 64, 24
2, 20388, Control_c, 0, 64, 72
2, 20389, Note_on_c, 0, 59, 0
2, 20391, Control_c, 0, 64, 127
2, 20392, Note_on_c, 0, 62, 0
2, 20393, Note_on_c, 0, 73, 0
2, 20399, Note_on_c, 0, 64, 0
2, 20400, Note_on_c, 0, 85, 85
2, 20401, Note_on_c, 0, 56, 0
2, 20413, Note_on_c, 0, 85, 0
2, 20421, Note_on_c, 0, 71, 84
2, 20422, Note_on_c, 0, 56, 41
2, 20423, Note_on_c, 0, 64, 43
2, 20426, Note_on_c, 0, 62, 48
2, 20427, Note_on_c, 0, 59, 44
2, 20433, Note_on_c, 0, 62, 0
2, 20434, Note_on_c, 0, 59, 0
2, 20435, Note_on_c, 0, 64, 0
2, 20436, Note_on_c, 0, 71, 0
2, 20438, Note_on_c, 0, 56, 0
2, 20442, Note_on_c, 0, 83, 85
2, 20454, Note_on_c, 0, 83, 0
2, 20461, Note_on_c, 0, 70, 85
2, 20463, Note_on_c, 0, 59, 52
2, 20463, Note_on_c, 0, 56, 42
2, 20463, Note_on_c, 0, 64, 51
2, 20468, Note_on_c, 0, 62, 46
2, 20475, Note_on_c, 0, 62, 0
2, 20478, Note_on_c, 0, 56, 0
2, 20479, Note_on_c, 0, 59, 0
2, 20480, Note_on_c, 0, 64, 0
2, 20481, Note_on_c, 0, 70, 0
2, 20482, Note_on_c, 0, 82, 83
2, 20497, Note_on_c, 0, 82, 0
2, 20497, Control_c, 0, 64, 88
2, 20501, Control_c, 0, 64, 40
2, 20503, Control_c, 0, 64, 0
2, 20505, Note_on_c, 0, 69, 84
2, 20506, Note_on_c, 0, 64, 63
2, 20508, Note_on_c, 0, 62, 53
2, 20510, Note_on_c, 0, 54, 44
2, 20510, Note_on_c, 0, 57, 54
2, 20516, Control_c, 0, 64, 56
2, 20520, Control_c, 0, 64, 104
2, 20521, Note_on_c, 0, 62, 0
2, 20522, Note_on_c, 0, 64, 0
2, 20522, Control_c, 0, 64, 127
2, 20525, Note_on_c, 0, 69, 0
2, 20525, Note_on_c, 0, 54, 0
2, 20526, Note_on_c, 0, 57, 0
2, 20526, Note_on_c, 0, 81, 88
2, 20538, Note_on_c, 0, 81, 0
2, 20548, Note_on_c, 0, 54, 55
2, 20550, Note_on_c, 0, 64, 56
2, 20551, Note_on_c, 0, 65, 88
2, 20551, Note_on_c, 0, 62, 54
2, 20555, Note_on_c, 0, 57, 42
2, 20562, Note_on_c, 0, 62, 0
2, 20563, Note_on_c, 0, 64, 0
2, 20565, Note_on_c, 0, 57, 0
2, 20567, Note_on_c, 0, 65, 0
2, 20568, Note_on_c, 0, 54, 0
2, 20573, Note_on_c, 0, 77, 89
2, 20588, Note_on_c, 0, 77, 0
2, 20593, Note_on_c, 0, 54, 49
2, 20595, Note_on_c, 0, 62, 65
2, 20595, Note_on_c, 0, 66, 79
2, 20597, Note_on_c, 0, 64, 46
2, 20606, Note_on_c, 0, 62, 0
2, 20606, Note_on_c, 0, 54, 0
2, 20610, Note_on_c, 0, 64, 0
2, 20615, Note_on_c, 0, 66, 0
2, 20618, Note_on_c, 0, 78, 85
2, 20628, Control_c, 0, 64, 88
2, 20631, Control_c, 0, 64, 24
2, 20633, Control_c, 0, 64, 0
2, 20634, Note_on_c, 0, 78, 0
2, 20638, Note_on_c, 0, 68, 86
2, 20640, Note_on_c, 0, 56, 61
2, 20641, Note_on_c, 0, 64, 68
2, 20641, Note_on_c, 0, 62, 59
2, 20641, Note_on_c, 0, 52, 64
2, 20650, Control_c, 0, 64, 56
2, 20652, Control_c, 0, 64, 127
2, 20657, Note_on_c, 0, 52, 0
2, 20659, Note_on_c, 0, 62, 0
2, 20661, Note_on_c, 0, 64, 0
2, 20661, Note_on_c, 0, 68, 0
2, 20662, Note_on_c, 0, 56, 0
2, 20662, Note_on_c, 0, 80, 83
2, 20679, Note_on_c, 0, 80, 0
2, 20685, Note_on_c, 0, 66, 78
2, 20702, Note_on_c, 0, 78, 83
2, 20706, Note_on_c, 0, 66, 0
2, 20718, Note_on_c, 0, 78, 0
2, 20725, Note_on_c, 0, 64, 79
2, 20740, Note_on_c, 0, 64, 0
2, 20745, Note_on_c, 0, 76, 82
2, 20758, Note_on_c, 0, 76, 0
2, 20766, Note_on_c, 0, 62, 78
2, 20786, Note_on_c, 0, 62, 0
2, 20788, Note_on_c, 0, 74, 83
2, 20793, Note_on_c, 0, 74, 0
2, 20810, Note_on_c, 0, 46, 82
2, 20811, Note_on_c, 0, 34, 63
2, 20815, Control_c, 0, 64, 104
2, 20817, Control_c, 0, 64, 72
2, 20820, Control_c, 0, 64, 56
2, 20822, Control_c, 0, 64, 40
2, 20824, Note_on_c, 0, 34, 0
2, 20826, Control_c, 0, 64, 24
2, 20828, Control_c, 0, 64, 0
2, 20832, Note_on_c, 0, 58, 65
2, 20832, Note_on_c, 0, 70, 73
2, 20836, Note_on_c, 0, 46, 0
2, 20844, Note_on_c, 0, 70, 0
2, 20845, Note_on_c, 0, 58, 0
2, 20852, Note_on_c, 0, 47, 84
2, 20852, Note_on_c, 0, 35, 76
2, 20867, Note_on_c, 0, 35, 0
2, 20869, Note_on_c, 0, 47, 0
2, 20873, Note_on_c, 0, 59, 80
2, 20873, Note_on_c, 0, 71, 88
2, 20883, Note_on_c, 0, 71, 0
2, 20883, Note_on_c, 0, 59, 0
2, 20895, Note_on_c, 0, 49, 92
2, 20896, Note_on_c, 0, 37, 77
2, 20907, Note_on_c, 0, 37, 0
2, 20915, Note_on_c, 0, 49, 0
2, 20915, Note_on_c, 0, 61, 75
2, 20916, Note_on_c, 0, 73, 79
2, 20927, Note_on_c, 0, 61, 0
2, 20938, Note_on_c, 0, 73, 0
2, 20938, Note_on_c, 0, 50, 92
2, 20940, Note_on_c, 0, 38, 83
2, 20953, Note_on_c, 0, 38, 0
2, 20955, Note_on_c, 0, 50, 0
2, 20962, Note_on_c, 0, 62, 73
2, 20962, Note_on_c, 0, 74, 80
2, 20970, Note_on_c, 0, 62, 0
2, 20972, Note_on_c, 0, 74, 0
2, 20983, Note_on_c, 0, 51, 93
2, 20983, Note_on_c, 0, 39, 79
2, 20995, Note_on_c, 0, 39, 0
2, 20998, Note_on_c, 0, 51, 0
2, 21003, Note_on_c, 0, 63, 74
2, 21003, Note_on_c, 0, 75, 81
2, 21018, Note_on_c, 0, 75, 0
2, 21021, Note_on_c, 0, 63, 0
2, 21026, Note_on_c, 0, 52, 90
2, 21027, Note_on_c, 0, 40, 76
2, 21043, Note_on_c, 0, 40, 0
2, 21044, Note_on_c, 0, 52, 0
2, 21045, Note_on_c, 0, 64, 76
2, 21045, Note_on_c, 0, 76, 87
2, 21056, Note_on_c, 0, 64, 0
2, 21057, Note_on_c, 0, 76, 0
2, 21067, Note_on_c, 0, 54, 90
2, 21068, Note_on_c, 0, 42, 82
2, 21080, Note_on_c, 0, 42, 0
2, 21085, Note_on_c, 0, 54, 0
2, 21086, Note_on_c, 0, 66, 74
2, 21087, Note_on_c, 0, 78, 81
2, 21102, Note_on_c, 0, 66, 0
2, 21108, Note_on_c, 0, 78, 0
2, 21108, Note_on_c, 0, 55, 93
2, 21111, Note_on_c, 0, 43, 82
2, 21124, Note_on_c, 0, 55, 0
2, 21126, Note_on_c, 0, 43, 0
2, 21128, Note_on_c, 0, 67, 82
2, 21128, Note_on_c, 0, 79, 95
2, 21139, Note_on_c, 0, 67, 0
2, 21140, Note_on_c, 0, 79, 0
2, 21150, Note_on_c, 0, 56, 94
2, 21151, Note_on_c, 0, 44, 83
2, 21167, Note_on_c, 0, 44, 0
2, 21168, Note_on_c, 0, 56, 0
2, 21170, Note_on_c, 0, 68, 84
2, 21170, Note_on_c, 0, 80, 85
2, 21182, Note_on_c, 0, 68, 0
2, 21185, Note_on_c, 0, 80, 0
2, 21191, Note_on_c, 0, 58, 86
2, 21192, Note_on_c, 0, 46, 84
2, 21208, Note_on_c, 0, 46, 0
2, 21210, Note_on_c, 0, 82, 86
2, 21210, Note_on_c, 0, 70, 80
2, 21212, Note_on_c, 0, 58, 0
2, 21225, Note_on_c, 0, 70, 0
2, 21231, Note_on_c, 0, 82, 0
2, 21232, Note_on_c, 0, 59, 82
2, 21233, Note_on_c, 0, 47, 79
2, 21245, Note_on_c, 0, 47, 0
2, 21248, Note_on_c, 0, 59, 0
2, 21251, Note_on_c, 0, 71, 80
2, 21251, Note_on_c, 0, 83, 92
2, 21261, Note_on_c, 0, 71, 0
2, 21263, Note_on_c, 0, 83, 0
2, 21271, Note_on_c, 0, 61, 97
2, 21272, Note_on_c, 0, 49, 92
2, 21282, Note_on_c, 0, 49, 0
2, 21284, Note_on_c, 0, 61, 0
2, 21290, Note_on_c, 0, 73, 84
2, 21290, Note_on_c, 0, 85, 84
2, 21308, Note_on_c, 0, 73, 0
2, 21311, Note_on_c, 0, 85, 0
2, 21312, Note_on_c, 0, 62, 92
2, 21313, Note_on_c, 0, 50, 86
2, 21325, Note_on_c, 0, 50, 0
2, 21327, Note_on_c, 0, 62, 0
2, 21332, Note_on_c, 0, 86, 94
2, 21332, Note_on_c, 0, 74, 84
2, 21342, Note_on_c, 0, 74, 0
2, 21342, Note_on_c, 0, 86, 0
2, 21352, Note_on_c, 0, 63, 91
2, 21353, Note_on_c, 0, 51, 87
2, 21365, Note_on_c, 0, 51, 0
2, 21371, Note_on_c, 0, 87, 89
2, 21371, Note_on_c, 0, 75, 92
2, 21374, Note_on_c, 0, 63, 0
2, 21383, Note_on_c, 0, 75, 0
2, 21386, Note_on_c, 0, 87, 0
2, 21392, Note_on_c, 0, 64, 85
2, 21395, Note_on_c, 0, 52, 74
2, 21395, Note_on_c, 0, 88, 100
2, 21396, Note_on_c, 0, 76, 88
2, 21396, Control_c, 0, 64, 72
2, 21398, Control_c, 0, 64, 127
2, 21401, Note_on_c, 0, 76, 0
2, 21401, Note_on_c, 0, 52, 0
2, 21403, Note_on_c, 0, 64, 0
2, 21406, Note_on_c, 0, 88, 0
2, 21422, Control_c, 0, 64, 104
2, 21427, Control_c, 0, 64, 88
2, 21430, Control_c, 0, 64, 72
2, 21432, Control_c, 0, 64, 56
2, 21435, Note_on_c, 0, 90, 94
2, 21435, Note_on_c, 0, 78, 93
2, 21435, Note_on_c, 0, 66, 83
2, 21436, Control_c, 0, 64, 40
2, 21437, Note_on_c, 0, 54, 72
2, 21438, Control_c, 0, 64, 24
2, 21441, Control_c, 0, 64, 0
2, 21442, Note_on_c, 0, 54, 0
2, 21446, Note_on_c, 0, 66, 0
2, 21447, Note_on_c, 0, 78, 0
2, 21461, Note_on_c, 0, 90, 0
2, 21478, Note_on_c, 0, 91, 102
2, 21480, Note_on_c, 0, 79, 96
2, 21480, Note_on_c, 0, 55, 80
2, 21481, Note_on_c, 0, 67, 86
2, 21488, Control_c, 0, 64, 24
2, 21490, Note_on_c, 0, 79, 0
2, 21492, Note_on_c, 0, 55, 0
2, 21493, Note_on_c, 0, 67, 0
2, 21494, Note_on_c, 0, 91, 0
2, 21500, Control_c, 0, 64, 0
2, 21521, Note_on_c, 0, 92, 105
2, 21522, Note_on_c, 0, 80, 95
2, 21523, Note_on_c, 0, 68, 95
2, 21523, Note_on_c, 0, 56, 94
2, 21533, Note_on_c, 0, 56, 0
2, 21535, Note_on_c, 0, 68, 0
2, 21535, Note_on_c, 0, 80, 0
2, 21542, Note_on_c, 0, 92, 0
2, 21565, Note_on_c, 0, 94, 97
2, 21565, Note_on_c, 0, 70, 89
2, 21566, Note_on_c, 0, 82, 93
2, 21567, Note_on_c, 0, 58, 77
2, 21582, Note_on_c, 0, 58, 0
2, 21585, Note_on_c, 0, 70, 0
2, 21592, Note_on_c, 0, 82, 0
2, 21595, Note_on_c, 0, 94, 0
2, 21607, Note_on_c, 0, 95, 107
2, 21607, Note_on_c, 0, 83, 99
2, 21608, Note_on_c, 0, 71, 87
2, 21608, Note_on_c, 0, 59, 80
2, 21618, Note_on_c, 0, 83, 0
2, 21621, Note_on_c, 0, 59, 0
2, 21623, Note_on_c, 0, 71, 0
2, 21623, Note_on_c, 0, 95, 0
2, 21650, Note_on_c, 0, 97, 100
2, 21650, Note_on_c, 0, 85, 105
2, 21651, Note_on_c, 0, 73, 98
2, 21652, Note_on_c, 0, 61, 86
2, 21662, Note_on_c, 0, 61, 0
2, 21672, Note_on_c, 0, 73, 0
2, 21673, Note_on_c, 0, 85, 0
2, 21681, Note_on_c, 0, 97, 0
2, 21693, Note_on_c, 0, 98, 107
2, 21693, Note_on_c, 0, 86, 97
2, 21693, Note_on_c, 0, 62, 84
2, 21693, Note_on_c, 0, 74, 88
2, 21704, Note_on_c, 0, 86, 0
2, 21706, Note_on_c, 0, 74, 0
2, 21706, Note_on_c, 0, 62, 0
2, 21710, Note_on_c, 0, 98, 0
2, 21737, Note_on_c, 0, 87, 102
2, 21737, Note_on_c, 0, 75, 95
2, 21737, Note_on_c, 0, 99, 103
2, 21738, Note_on_c, 0, 63, 81
2, 21753, Note_on_c, 0, 63, 0
2, 21758, Note_on_c, 0, 75, 0
2, 21760, Note_on_c, 0, 99, 0
2, 21760, Note_on_c, 0, 87, 0
2, 21780, Note_on_c, 0, 100, 107
2, 21781, Note_on_c, 0, 88, 96
2, 21781, Note_on_c, 0, 76, 92
2, 21782, Note_on_c, 0, 64, 83
2, 21787, Control_c, 0, 64, 24
2, 21790, Control_c, 0, 64, 88
2, 21792, Control_c, 0, 64, 127
2, 21797, Note_on_c, 0, 64, 0
2, 21798, Note_on_c, 0, 76, 0
2, 21801, Note_on_c, 0, 88, 0
2, 21803, Note_on_c, 0, 100, 0
2, 21845, Note_on_c, 0, 76, 87
2, 21845, Note_on_c, 0, 100, 98
2, 21846, Note_on_c, 0, 64, 73
2, 21847, Note_on_c, 0, 88, 82
2, 21850, Note_on_c, 0, 88, 0
2, 21852, Note_on_c, 0, 64, 0
2, 21853, Note_on_c, 0, 100, 0
2, 21856, Note_on_c, 0, 76, 0
2, 21863, Note_on_c, 0, 76, 81
2, 21863, Note_on_c, 0, 100, 99
2, 21865, Note_on_c, 0, 64, 69
2, 21865, Note_on_c, 0, 88, 103
2, 21866, Note_on_c, 0, 76, 0
2, 21873, Note_on_c, 0, 64, 0
2, 21876, Note_on_c, 0, 88, 0
2, 21880, Note_on_c, 0, 100, 0
2, 21910, Control_c, 0, 64, 104
2, 21912, Control_c, 0, 64, 40
2, 21915, Control_c, 0, 64, 0
2, 21917, Note_on_c, 0, 89, 104
2, 21917, Note_on_c, 0, 101, 107
2, 21921, Note_on_c, 0, 44, 70
2, 21922, Note_on_c, 0, 56, 90
2, 21929, Note_on_c, 0, 44, 0
2, 21930, Note_on_c, 0, 56, 0
2, 21931, Control_c, 0, 64, 72
2, 21933, Control_c, 0, 64, 127
2, 21935, Note_on_c, 0, 89, 0
2, 21938, Note_on_c, 0, 101, 0
2, 21942, Note_on_c, 0, 96, 99
2, 21960, Note_on_c, 0, 92, 97
2, 21964, Note_on_c, 0, 96, 0
2, 21980, Note_on_c, 0, 89, 91
2, 21982, Note_on_c, 0, 65, 69
2, 21983, Note_on_c, 0, 92, 0
2, 21983, Note_on_c, 0, 60, 65
2, 21983, Note_on_c, 0, 56, 61
2, 21988, Note_on_c, 0, 65, 0
2, 21988, Note_on_c, 0, 89, 0
2, 21989, Note_on_c, 0, 60, 0
2, 21989, Note_on_c, 0, 56, 0
2, 22000, Note_on_c, 0, 65, 70
2, 22000, Note_on_c, 0, 56, 68
2, 22001, Note_on_c, 0, 60, 69
2, 22002, Note_on_c, 0, 84, 97
2, 22010, Note_on_c, 0, 84, 0
2, 22011, Note_on_c, 0, 65, 0
2, 22012, Note_on_c, 0, 56, 0
2, 22013, Note_on_c, 0, 60, 0
2, 22021, Note_on_c, 0, 80, 87
2, 22039, Note_on_c, 0, 80, 0
2, 22040, Control_c, 0, 64, 72
2, 22042, Control_c, 0, 64, 24
2, 22045, Control_c, 0, 64, 0
2, 22046, Note_on_c, 0, 76, 96
2, 22047, Note_on_c, 0, 88, 98
2, 22050, Note_on_c, 0, 64, 91
2, 22051, Note_on_c, 0, 52, 80
2, 22056, Control_c, 0, 64, 40
2, 22057, Note_on_c, 0, 76, 0
2, 22058, Control_c, 0, 64, 104
2, 22061, Note_on_c, 0, 64, 0
2, 22061, Control_c, 0, 64, 127
2, 22063, Note_on_c, 0, 52, 0
2, 22065, Note_on_c, 0, 88, 0
2, 22103, Control_c, 0, 64, 56
2, 22106, Control_c, 0, 64, 24
2, 22110, Control_c, 0, 64, 0
2, 22115, Note_on_c, 0, 100, 98
2, 22115, Note_on_c, 0, 88, 90
2, 22115, Control_c, 0, 64, 56
2, 22116, Note_on_c, 0, 64, 80
2, 22117, Control_c, 0, 64, 104
2, 22120, Note_on_c, 0, 52, 59
2, 22120, Control_c, 0, 64, 127
2, 22123, Note_on_c, 0, 64, 0
2, 22123, Note_on_c, 0, 88, 0
2, 22125, Note_on_c, 0, 100, 0
2, 22125, Note_on_c, 0, 52, 0
2, 22137, Note_on_c, 0, 64, 85
2, 22137, Note_on_c, 0, 100, 104
2, 22137, Note_on_c, 0, 88, 104
2, 22138, Note_on_c, 0, 52, 78
2, 22147, Note_on_c, 0, 64, 0
2, 22148, Note_on_c, 0, 52, 0
2, 22149, Note_on_c, 0, 88, 0
2, 22155, Note_on_c, 0, 100, 0
2, 22160, Control_c, 0, 64, 88
2, 22162, Control_c, 0, 64, 72
2, 22165, Control_c, 0, 64, 40
2, 22167, Control_c, 0, 64, 0
2, 22185, Note_on_c, 0, 56, 107
2, 22185, Note_on_c, 0, 101, 104
2, 22185, Note_on_c, 0, 89, 104
2, 22186, Note_on_c, 0, 44, 86
2, 22188, Control_c, 0, 64, 88
2, 22191, Note_on_c, 0, 44, 0
2, 22191, Control_c, 0, 64, 127
2, 22195, Note_on_c, 0, 56, 0
2, 22205, Note_on_c, 0, 89, 0
2, 22206, Note_on_c, 0, 101, 0
2, 22208, Note_on_c, 0, 96, 93
2, 22228, Note_on_c, 0, 92, 87
2, 22243, Note_on_c, 0, 96, 0
2, 22246, Note_on_c, 0, 89, 95
2, 22247, Note_on_c, 0, 60, 87
2, 22248, Note_on_c, 0, 65, 82
2, 22248, Note_on_c, 0, 56, 72
2, 22249, Note_on_c, 0, 92, 0
2, 22256, Note_on_c, 0, 89, 0
2, 22258, Note_on_c, 0, 65, 0
2, 22258, Note_on_c, 0, 60, 0
2, 22258, Note_on_c, 0, 56, 0
2, 22270, Note_on_c, 0, 84, 97
2, 22270, Note_on_c, 0, 65, 72
2, 22270, Note_on_c, 0, 56, 59
2, 22270, Note_on_c, 0, 60, 76
2, 22280, Note_on_c, 0, 60, 0
2, 22280, Note_on_c, 0, 84, 0
2, 22282, Note_on_c, 0, 65, 0
2, 22283, Note_on_c, 0, 56, 0
2, 22291, Note_on_c, 0, 80, 89
2, 22308, Control_c, 0, 64, 104
2, 22309, Note_on_c, 0, 80, 0
2, 22311, Control_c, 0, 64, 0
2, 22317, Note_on_c, 0, 76, 98
2, 22317, Note_on_c, 0, 88, 99
2, 22320, Note_on_c, 0, 64, 86
2, 22322, Note_on_c, 0, 52, 55
2, 22327, Note_on_c, 0, 76, 0
2, 22331, Control_c, 0, 64, 104
2, 22333, Note_on_c, 0, 88, 0
2, 22333, Note_on_c, 0, 64, 0
2, 22333, Control_c, 0, 64, 127
2, 22334, Note_on_c, 0, 52, 0
2, 22387, Note_on_c, 0, 100, 102
2, 22387, Note_on_c, 0, 88, 93
2, 22388, Note_on_c, 0, 64, 81
2, 22390, Note_on_c, 0, 52, 71
2, 22395, Note_on_c, 0, 52, 0
2, 22395, Note_on_c, 0, 64, 0
2, 22395, Note_on_c, 0, 88, 0
2, 22398, Note_on_c, 0, 100, 0
2, 22408, Note_on_c, 0, 64, 84
2, 22408, Note_on_c, 0, 100, 104
2, 22410, Note_on_c, 0, 88, 102
2, 22411, Note_on_c, 0, 52, 82
2, 22416, Note_on_c, 0, 52, 0
2, 22418, Note_on_c, 0, 64, 0
2, 22420, Note_on_c, 0, 88, 0
2, 22426, Note_on_c, 0, 100, 0
2, 22445, Control_c, 0, 64, 72
2, 22447, Control_c, 0, 64, 24
2, 22450, Control_c, 0, 64, 0
2, 22458, Note_on_c, 0, 56, 107
2, 22458, Note_on_c, 0, 101, 102
2, 22460, Note_on_c, 0, 44, 95
2, 22460, Note_on_c, 0, 89, 97
2, 22463, Control_c, 0, 64, 56
2, 22466, Note_on_c, 0, 56, 0
2, 22466, Control_c, 0, 64, 127
2, 22467, Note_on_c, 0, 44, 0
2, 22473, Note_on_c, 0, 89, 0
2, 22476, Note_on_c, 0, 101, 0
2, 22481, Note_on_c, 0, 96, 94
2, 22500, Note_on_c, 0, 92, 85
2, 22508, Note_on_c, 0, 96, 0
2, 22517, Note_on_c, 0, 89, 96
2, 22521, Note_on_c, 0, 92, 0
2, 22527, Note_on_c, 0, 89, 0
2, 22542, Note_on_c, 0, 65, 79
2, 22542, Note_on_c, 0, 84, 91
2, 22542, Note_on_c, 0, 56, 68
2, 22542, Note_on_c, 0, 60, 78
2, 22552, Note_on_c, 0, 84, 0
2, 22554, Note_on_c, 0, 65, 0
2, 22554, Note_on_c, 0, 60, 0
2, 22555, Note_on_c, 0, 56, 0
2, 22562, Note_on_c, 0, 80, 95
2, 22579, Note_on_c, 0, 80, 0
2, 22587, Note_on_c, 0, 77, 106
2, 22587, Note_on_c, 0, 89, 100
2, 22590, Note_on_c, 0, 56, 75
2, 22590, Note_on_c, 0, 65, 84
2, 22590, Note_on_c, 0, 60, 87
2, 22600, Note_on_c, 0, 77, 0
2, 22601, Note_on_c, 0, 65, 0
2, 22602, Note_on_c, 0, 60, 0
2, 22603, Note_on_c, 0, 89, 0
2, 22607, Note_on_c, 0, 56, 0
2, 22610, Note_on_c, 0, 84, 81
2, 22627, Note_on_c, 0, 80, 85
2, 22638, Note_on_c, 0, 84, 0
2, 22647, Note_on_c, 0, 77, 96
2, 22652, Note_on_c, 0, 80, 0
2, 22659, Note_on_c, 0, 77, 0
2, 22671, Note_on_c, 0, 72, 91
2, 22671, Note_on_c, 0, 53, 79
2, 22672, Note_on_c, 0, 48, 85
2, 22672, Note_on_c, 0, 44, 69
2, 22683, Note_on_c, 0, 72, 0
2, 22684, Note_on_c, 0, 53, 0
2, 22684, Note_on_c, 0, 48, 0
2, 22688, Note_on_c, 0, 44, 0
2, 22690, Note_on_c, 0, 68, 94
2, 22707, Note_on_c, 0, 68, 0
2, 22713, Note_on_c, 0, 77, 106
2, 22715, Note_on_c, 0, 65, 99
2, 22716, Note_on_c, 0, 48, 89
2, 22717, Note_on_c, 0, 53, 84
2, 22717, Note_on_c, 0, 44, 74
2, 22727, Note_on_c, 0, 53, 0
2, 22728, Note_on_c, 0, 48, 0
2, 22728, Note_on_c, 0, 65, 0
2, 22730, Note_on_c, 0, 77, 0
2, 22733, Note_on_c, 0, 44, 0
2, 22736, Note_on_c, 0, 72, 93
2, 22756, Note_on_c, 0, 68, 86
2, 22766, Note_on_c, 0, 72, 0
2, 22776, Note_on_c, 0, 65, 94
2, 22779, Note_on_c, 0, 68, 0
2, 22788, Note_on_c, 0, 65, 0
2, 22801, Note_on_c, 0, 60, 97
2, 22802, Note_on_c, 0, 32, 70
2, 22803, Note_on_c, 0, 36, 61
2, 22803, Note_on_c, 0, 41, 61
2, 22814, Note_on_c, 0, 36, 0
2, 22814, Note_on_c, 0, 60, 0
2, 22815, Note_on_c, 0, 41, 0
2, 22819, Note_on_c, 0, 32, 0
2, 22823, Note_on_c, 0, 56, 97
2, 22840, Note_on_c, 0, 56, 0
2, 22847, Control_c, 0, 64, 88
2, 22850, Control_c, 0, 64, 24
2, 22852, Note_on_c, 0, 53, 102
2, 22852, Note_on_c, 0, 65, 106
2, 22852, Control_c, 0, 64, 0
2, 22855, Note_on_c, 0, 32, 82
2, 22855, Note_on_c, 0, 41, 86
2, 22855, Note_on_c, 0, 36, 79
2, 22862, Control_c, 0, 64, 24
2, 22865, Control_c, 0, 64, 88
2, 22868, Note_on_c, 0, 36, 0
2, 22868, Note_on_c, 0, 32, 0
2, 22868, Note_on_c, 0, 41, 0
2, 22868, Note_on_c, 0, 53, 0
2, 22868, Control_c, 0, 64, 127
2, 22872, Note_on_c, 0, 65, 0
2, 23160, Control_c, 0, 64, 0
2, 23447, Control_c, 0, 64, 104
2, 23451, Control_c, 0, 64, 127
2, 23470, Note_on_c, 0, 35, 70
2, 23470, Note_on_c, 0, 23, 70
2, 23482, Note_on_c, 0, 36, 70
2, 23482, Note_on_c, 0, 24, 70
2, 23495, Note_on_c, 0, 38, 70
2, 23495, Note_on_c, 0, 26, 70
2, 23500, Note_on_c, 0, 23, 0
2, 23500, Note_on_c, 0, 35, 0
2, 23508, Note_on_c, 0, 24, 0
2, 23508, Note_on_c, 0, 36, 0
2, 23508, Note_on_c, 0, 40, 70
2, 23508, Note_on_c, 0, 28, 70
2, 23516, Note_on_c, 0, 38, 0
2, 23521, Note_on_c, 0, 26, 0
2, 23522, Note_on_c, 0, 41, 80
2, 23522, Note_on_c, 0, 29, 70
2, 23528, Note_on_c, 0, 40, 0
2, 23533, Note_on_c, 0, 43, 85
2, 23533, Note_on_c, 0, 31, 75
2, 23534, Note_on_c, 0, 28, 0
2, 23537, Note_on_c, 0, 41, 0
2, 23545, Note_on_c, 0, 45, 84
2, 23545, Note_on_c, 0, 33, 75
2, 23546, Note_on_c, 0, 43, 0
2, 23548, Note_on_c, 0, 29, 0
2, 23555, Note_on_c, 0, 47, 85
2, 23555, Note_on_c, 0, 35, 75
2, 23558, Note_on_c, 0, 45, 0
2, 23559, Note_on_c, 0, 31, 0
2, 23566, Note_on_c, 0, 48, 89
2, 23566, Note_on_c, 0, 36, 78
2, 23567, Note_on_c, 0, 47, 0
2, 23571, Note_on_c, 0, 33, 0
2, 23577, Note_on_c, 0, 48, 0
2, 23577, Note_on_c, 0, 50, 81
2, 23577, Note_on_c, 0, 38, 78
2, 23581, Note_on_c, 0, 35, 0
2, 23586, Note_on_c, 0, 52, 80
2, 23586, Note_on_c, 0, 40, 78
2, 23589, Note_on_c, 0, 50, 0
2, 23592, Note_on_c, 0, 36, 0
2, 23597, Note_on_c, 0, 53, 93
2, 23597, Note_on_c, 0, 41, 78
2, 23599, Note_on_c, 0, 52, 0
2, 23603, Note_on_c, 0, 38, 0
2, 23606, Note_on_c, 0, 55, 88
2, 23606, Note_on_c, 0, 43, 78
2, 23608, Note_on_c, 0, 53, 0
2, 23612, Note_on_c, 0, 40, 0
2, 23615, Note_on_c, 0, 57, 80
2, 23615, Note_on_c, 0, 45, 78
2, 23618, Note_on_c, 0, 55, 0
2, 23623, Note_on_c, 0, 41, 0
2, 23623, Note_on_c, 0, 59, 80
2, 23623, Note_on_c, 0, 47, 78
2, 23630, Note_on_c, 0, 57, 0
2, 23632, Note_on_c, 0, 43, 0
2, 23633, Note_on_c, 0, 60, 87
2, 23633, Note_on_c, 0, 48, 78
2, 23638, Note_on_c, 0, 59, 0
2, 23641, Note_on_c, 0, 45, 0
2, 23643, Note_on_c, 0, 62, 80
2, 23643, Note_on_c, 0, 50, 78
2, 23649, Note_on_c, 0, 47, 0
2, 23649, Note_on_c, 0, 60, 0
2, 23653, Note_on_c, 0, 64, 84
2, 23653, Note_on_c, 0, 52, 78
2, 23655, Control_c, 0, 64, 104
2, 23658, Control_c, 0, 64, 88
2, 23659, Note_on_c, 0, 62, 0
2, 23659, Note_on_c, 0, 48, 0
2, 23661, Control_c, 0, 64, 72
2, 23665, Note_on_c, 0, 65, 87
2, 23665, Note_on_c, 0, 53, 78
2, 23665, Control_c, 0, 64, 56
2, 23669, Note_on_c, 0, 50, 0
2, 23669, Note_on_c, 0, 64, 0
2, 23676, Note_on_c, 0, 67, 81
2, 23676, Note_on_c, 0, 55, 78
2, 23678, Control_c, 0, 64, 88
2, 23679, Note_on_c, 0, 52, 0
2, 23682, Note_on_c, 0, 65, 0
2, 23682, Control_c, 0, 64, 127
2, 23686, Note_on_c, 0, 69, 86
2, 23686, Note_on_c, 0, 57, 80
2, 23689, Note_on_c, 0, 67, 0
2, 23691, Note_on_c, 0, 53, 0
2, 23696, Note_on_c, 0, 71, 84
2, 23696, Note_on_c, 0, 59, 80
2, 23699, Note_on_c, 0, 69, 0
2, 23702, Note_on_c, 0, 55, 0
2, 23706, Note_on_c, 0, 72, 93
2, 23706, Note_on_c, 0, 60, 80
2, 23708, Note_on_c, 0, 71, 0
2, 23712, Note_on_c, 0, 57, 0
2, 23715, Note_on_c, 0, 74, 84
2, 23715, Note_on_c, 0, 62, 83
2, 23716, Note_on_c, 0, 72, 0
2, 23722, Note_on_c, 0, 59, 0
2, 23725, Note_on_c, 0, 74, 0
2, 23725, Note_on_c, 0, 76, 89
2, 23725, Note_on_c, 0, 64, 83
2, 23732, Note_on_c, 0, 60, 0
2, 23733, Note_on_c, 0, 76, 0
2, 23733, Note_on_c, 0, 77, 96
2, 23733, Note_on_c, 0, 65, 83
2, 23741, Note_on_c, 0, 77, 0
2, 23741, Note_on_c, 0, 62, 0
2, 23741, Note_on_c, 0, 79, 88
2, 23741, Note_on_c, 0, 67, 83
2, 23750, Note_on_c, 0, 81, 86
2, 23750, Note_on_c, 0, 69, 83
2, 23751, Note_on_c, 0, 79, 0
2, 23751, Note_on_c, 0, 64, 0
2, 23758, Note_on_c, 0, 83, 92
2, 23758, Note_on_c, 0, 71, 83
2, 23759, Note_on_c, 0, 65, 0
2, 23760, Note_on_c, 0, 81, 0
2, 23766, Note_on_c, 0, 83, 0
2, 23767, Note_on_c, 0, 67, 0
2, 23767, Note_on_c, 0, 84, 92
2, 23767, Note_on_c, 0, 72, 83
2, 23775, Note_on_c, 0, 86, 86
2, 23775, Note_on_c, 0, 74, 83
2, 23776, Note_on_c, 0, 69, 0
2, 23779, Note_on_c, 0, 84, 0
2, 23783, Note_on_c, 0, 88, 84
2, 23783, Note_on_c, 0, 76, 83
2, 23784, Note_on_c, 0, 71, 0
2, 23787, Note_on_c, 0, 86, 0
2, 23793, Note_on_c, 0, 72, 0
2, 23793, Note_on_c, 0, 89, 94
2, 23793, Note_on_c, 0, 77, 86
2, 23795, Note_on_c, 0, 88, 0
2, 23801, Note_on_c, 0, 74, 0
2, 23802, Note_on_c, 0, 91, 83
2, 23802, Note_on_c, 0, 79, 77
2, 23805, Note_on_c, 0, 77, 0
2, 23808, Note_on_c, 0, 89, 0
2, 23809, Note_on_c, 0, 76, 0
2, 23811, Note_on_c, 0, 93, 95
2, 23811, Note_on_c, 0, 81, 83
2, 23820, Note_on_c, 0, 95, 92
2, 23820, Note_on_c, 0, 83, 83
2, 23826, Note_on_c, 0, 93, 0
2, 23828, Note_on_c, 0, 91, 0
2, 23828, Note_on_c, 0, 79, 0
2, 23830, Note_on_c, 0, 96, 96
2, 23830, Note_on_c, 0, 84, 83
2, 23835, Note_on_c, 0, 95, 0
2, 23837, Note_on_c, 0, 81, 0
2, 23838, Note_on_c, 0, 98, 88
2, 23838, Note_on_c, 0, 86, 83
2, 23845, Note_on_c, 0, 98, 0
2, 23846, Note_on_c, 0, 96, 0
2, 23846, Note_on_c, 0, 83, 0
2, 23856, Note_on_c, 0, 84, 0
2, 23858, Note_on_c, 0, 100, 106
2, 23860, Note_on_c, 0, 88, 96
2, 23864, Note_on_c, 0, 86, 0
2, 23875, Note_on_c, 0, 88, 0
2, 23876, Note_on_c, 0, 100, 0
2, 23900, Note_on_c, 0, 100, 106
2, 23901, Note_on_c, 0, 88, 96
2, 23914, Note_on_c, 0, 88, 0
2, 23917, Note_on_c, 0, 100, 0
2, 23940, Note_on_c, 0, 100, 107
2, 23940, Note_on_c, 0, 64, 76
2, 23940, Note_on_c, 0, 76, 80
2, 23941, Note_on_c, 0, 88, 96
2, 23953, Note_on_c, 0, 88, 0
2, 23953, Note_on_c, 0, 76, 0
2, 23956, Note_on_c, 0, 64, 0
2, 23956, Note_on_c, 0, 100, 0
2, 23982, Note_on_c, 0, 76, 86
2, 23982, Note_on_c, 0, 64, 80
2, 23982, Note_on_c, 0, 100, 107
2, 23985, Note_on_c, 0, 88, 99
2, 23993, Note_on_c, 0, 76, 0
2, 23995, Note_on_c, 0, 64, 0
2, 23998, Note_on_c, 0, 88, 0
2, 23999, Note_on_c, 0, 100, 0
2, 24023, Note_on_c, 0, 100, 107
2, 24025, Note_on_c, 0, 88, 97
2, 24037, Note_on_c, 0, 88, 0
2, 24039, Note_on_c, 0, 100, 0
2, 24065, Note_on_c, 0, 64, 88
2, 24065, Note_on_c, 0, 100, 107
2, 24066, Note_on_c, 0, 52, 78
2, 24066, Note_on_c, 0, 88, 99
2, 24078, Note_on_c, 0, 64, 0
2, 24079, Note_on_c, 0, 88, 0
2, 24079, Note_on_c, 0, 52, 0
2, 24081, Note_on_c, 0, 100, 0
2, 24103, Note_on_c, 0, 64, 88
2, 24106, Note_on_c, 0, 100, 107
2, 24106, Note_on_c, 0, 52, 80
2, 24107, Note_on_c, 0, 88, 100
2, 24115, Note_on_c, 0, 64, 0
2, 24118, Note_on_c, 0, 52, 0
2, 24120, Note_on_c, 0, 88, 0
2, 24122, Note_on_c, 0, 100, 0
2, 24145, Note_on_c, 0, 100, 107
2, 24147, Note_on_c, 0, 88, 99
2, 24159, Note_on_c, 0, 88, 0
2, 24163, Note_on_c, 0, 100, 0
2, 24185, Note_on_c, 0, 40, 78
2, 24185, Note_on_c, 0, 52, 91
2, 24186, Note_on_c, 0, 100, 106
2, 24187, Note_on_c, 0, 88, 98
2, 24199, Note_on_c, 0, 88, 0
2, 24200, Note_on_c, 0, 40, 0
2, 24203, Note_on_c, 0, 100, 0
2, 24203, Note_on_c, 0, 52, 0
2, 24227, Note_on_c, 0, 52, 93
2, 24228, Note_on_c, 0, 100, 107
2, 24228, Note_on_c, 0, 40, 85
2, 24230, Note_on_c, 0, 88, 102
2, 24239, Note_on_c, 0, 52, 0
2, 24240, Note_on_c, 0, 40, 0
2, 24242, Note_on_c, 0, 88, 0
2, 24245, Note_on_c, 0, 100, 0
2, 24268, Note_on_c, 0, 100, 107
2, 24270, Note_on_c, 0, 88, 107
2, 24294, Note_on_c, 0, 100, 0
2, 24295, Note_on_c, 0, 88, 0
2, 24313, Note_on_c, 0, 45, 96
2, 24313, Note_on_c, 0, 100, 107
2, 24313, Note_on_c, 0, 88, 88
2, 24313, Note_on_c, 0, 97, 95
2, 24313, Note_on_c, 0, 40, 81
2, 24315, Note_on_c, 0, 33, 85
2, 24316, Note_on_c, 0, 93, 93
2, 24328, Note_on_c, 0, 33, 0
2, 24328, Note_on_c, 0, 40, 0
2, 24331, Note_on_c, 0, 93, 0
2, 24333, Note_on_c, 0, 45, 0
2, 24335, Note_on_c, 0, 88, 0
2, 24336, Note_on_c, 0, 97, 0
2, 24338, Note_on_c, 0, 100, 0
2, 24360, Control_c, 0, 64, 104
2, 24363, Control_c, 0, 64, 0
2, 24367, Note_on_c, 0, 100, 106
2, 24368, Note_on_c, 0, 40, 94
2, 24368, Note_on_c, 0, 97, 92
2, 24368, Note_on_c, 0, 33, 78
2, 24368, Note_on_c, 0, 88, 98
2, 24368, Note_on_c, 0, 45, 103
2, 24372, Note_on_c, 0, 93, 82
2, 24373, Note_on_c, 0, 33, 0
2, 24376, Note_on_c, 0, 97, 0
2, 24377, Note_on_c, 0, 100, 0
2, 24377, Note_on_c, 0, 93, 0
2, 24378, Note_on_c, 0, 40, 0
2, 24378, Control_c, 0, 64, 104
2, 24380, Note_on_c, 0, 45, 0
2, 24381, Note_on_c, 0, 88, 0
2, 24382, Control_c, 0, 64, 127
2, 24421, Note_on_c, 0, 88, 102
2, 24421, Note_on_c, 0, 76, 96
2, 24422, Note_on_c, 0, 40, 86
2, 24422, Note_on_c, 0, 81, 83
2, 24422, Note_on_c, 0, 85, 81
2, 24423, Note_on_c, 0, 52, 93
2, 24429, Note_on_c, 0, 81, 0
2, 24432, Note_on_c, 0, 76, 0
2, 24433, Note_on_c, 0, 52, 0
2, 24434, Note_on_c, 0, 40, 0
2, 24434, Note_on_c, 0, 85, 0
2, 24438, Note_on_c, 0, 88, 0
2, 24463, Note_on_c, 0, 57, 84
2, 24465, Note_on_c, 0, 88, 102
2, 24465, Note_on_c, 0, 76, 92
2, 24465, Note_on_c, 0, 85, 81
2, 24466, Note_on_c, 0, 45, 86
2, 24466, Note_on_c, 0, 81, 82
2, 24471, Note_on_c, 0, 45, 0
2, 24472, Note_on_c, 0, 81, 0
2, 24475, Note_on_c, 0, 57, 0
2, 24477, Note_on_c, 0, 76, 0
2, 24480, Note_on_c, 0, 85, 0
2, 24483, Note_on_c, 0, 88, 0
2, 24511, Note_on_c, 0, 88, 104
2, 24511, Note_on_c, 0, 85, 87
2, 24511, Control_c, 0, 64, 56
2, 24512, Note_on_c, 0, 76, 92
2, 24513, Note_on_c, 0, 81, 81
2, 24515, Note_on_c, 0, 64, 94
2, 24515, Control_c, 0, 64, 0
2, 24516, Note_on_c, 0, 52, 92
2, 24523, Control_c, 0, 64, 56
2, 24525, Note_on_c, 0, 81, 0
2, 24525, Note_on_c, 0, 76, 0
2, 24527, Control_c, 0, 64, 127
2, 24528, Note_on_c, 0, 85, 0
2, 24531, Note_on_c, 0, 88, 0
2, 24535, Note_on_c, 0, 64, 0
2, 24542, Note_on_c, 0, 52, 0
2, 24552, Note_on_c, 0, 88, 97
2, 24553, Note_on_c, 0, 76, 90
2, 24553, Note_on_c, 0, 85, 79
2, 24555, Note_on_c, 0, 81, 74
2, 24560, Note_on_c, 0, 81, 0
2, 24564, Note_on_c, 0, 76, 0
2, 24565, Note_on_c, 0, 85, 0
2, 24567, Note_on_c, 0, 88, 0
2, 24592, Note_on_c, 0, 61, 72
2, 24592, Note_on_c, 0, 88, 96
2, 24593, Note_on_c, 0, 76, 91
2, 24593, Note_on_c, 0, 85, 81
2, 24595, Note_on_c, 0, 81, 76
2, 24597, Note_on_c, 0, 49, 66
2, 24605, Note_on_c, 0, 49, 0
2, 24605, Note_on_c, 0, 76, 0
2, 24605, Note_on_c, 0, 85, 0
2, 24606, Note_on_c, 0, 81, 0
2, 24608, Note_on_c, 0, 88, 0
2, 24609, Note_on_c, 0, 61, 0
2, 24615, Control_c, 0, 64, 88
2, 24617, Control_c, 0, 64, 56
2, 24621, Control_c, 0, 64, 24
2, 24625, Control_c, 0, 64, 0
2, 24635, Note_on_c, 0, 88, 100
2, 24635, Note_on_c, 0, 85, 87
2, 24635, Note_on_c, 0, 76, 97
2, 24636, Note_on_c, 0, 81, 81
2, 24637, Note_on_c, 0, 59, 85
2, 24637, Note_on_c, 0, 47, 85
2, 24637, Control_c, 0, 64, 24
2, 24640, Control_c, 0, 64, 40
2, 24641, Note_on_c, 0, 81, 0
2, 24643, Control_c, 0, 64, 56
2, 24645, Note_on_c, 0, 54, 33
2, 24646, Control_c, 0, 64, 72
2, 24647, Note_on_c, 0, 76, 0
2, 24648, Note_on_c, 0, 47, 0
2, 24649, Note_on_c, 0, 59, 0
2, 24650, Note_on_c, 0, 54, 0
2, 24652, Note_on_c, 0, 88, 0
2, 24652, Note_on_c, 0, 85, 0
2, 24652, Control_c, 0, 64, 104
2, 24655, Control_c, 0, 64, 127
2, 24673, Note_on_c, 0, 61, 89
2, 24673, Note_on_c, 0, 85, 87
2, 24675, Note_on_c, 0, 88, 97
2, 24675, Note_on_c, 0, 76, 93
2, 24675, Note_on_c, 0, 49, 88
2, 24676, Note_on_c, 0, 81, 80
2, 24681, Note_on_c, 0, 81, 0
2, 24684, Note_on_c, 0, 61, 0
2, 24686, Note_on_c, 0, 76, 0
2, 24686, Note_on_c, 0, 49, 0
2, 24690, Note_on_c, 0, 85, 0
2, 24692, Note_on_c, 0, 88, 0
2, 24700, Control_c, 0, 64, 104
2, 24703, Control_c, 0, 64, 56
2, 24706, Control_c, 0, 64, 0
2, 24712, Control_c, 0, 64, 24
2, 24716, Note_on_c, 0, 88, 95
2, 24716, Note_on_c, 0, 57, 92
2, 24716, Note_on_c, 0, 76, 94
2, 24716, Note_on_c, 0, 85, 87
2, 24716, Control_c, 0, 64, 40
2, 24718, Note_on_c, 0, 45, 92
2, 24718, Note_on_c, 0, 81, 82
2, 24718, Control_c, 0, 64, 72
2, 24721, Control_c, 0, 64, 88
2, 24723, Note_on_c, 0, 81, 0
2, 24725, Control_c, 0, 64, 104
2, 24728, Note_on_c, 0, 76, 0
2, 24728, Control_c, 0, 64, 127
2, 24729, Note_on_c, 0, 45, 0
2, 24729, Note_on_c, 0, 57, 0
2, 24733, Note_on_c, 0, 88, 0
2, 24733, Note_on_c, 0, 85, 0
2, 24737, Control_c, 0, 64, 88
2, 24741, Control_c, 0, 64, 56
2, 24743, Control_c, 0, 64, 40
2, 24753, Control_c, 0, 64, 104
2, 24756, Note_on_c, 0, 56, 97
2, 24757, Note_on_c, 0, 44, 94
2, 24757, Control_c, 0, 64, 127
2, 24758, Note_on_c, 0, 88, 95
2, 24760, Note_on_c, 0, 85, 79
2, 24760, Note_on_c, 0, 76, 91
2, 24761, Note_on_c, 0, 81, 77
2, 24767, Note_on_c, 0, 81, 0
2, 24768, Note_on_c, 0, 56, 0
2, 24771, Note_on_c, 0, 88, 0
2, 24772, Note_on_c, 0, 76, 0
2, 24773, Note_on_c, 0, 44, 0
2, 24776, Note_on_c, 0, 85, 0
2, 24797, Note_on_c, 0, 57, 90
2, 24800, Note_on_c, 0, 88, 92
2, 24800, Note_on_c, 0, 85, 80
2, 24800, Note_on_c, 0, 45, 94
2, 24800, Note_on_c, 0, 76, 86
2, 24801, Note_on_c, 0, 81, 74
2, 24807, Note_on_c, 0, 81, 0
2, 24808, Note_on_c, 0, 57, 0
2, 24811, Note_on_c, 0, 45, 0
2, 24811, Note_on_c, 0, 88, 0
2, 24812, Note_on_c, 0, 76, 0
2, 24815, Note_on_c, 0, 85, 0
2, 24836, Note_on_c, 0, 54, 103
2, 24836, Note_on_c, 0, 42, 96
2, 24837, Note_on_c, 0, 88, 82
2, 24838, Note_on_c, 0, 85, 66
2, 24838, Note_on_c, 0, 76, 69
2, 24841, Note_on_c, 0, 81, 62
2, 24842, Note_on_c, 0, 88, 0
2, 24846, Note_on_c, 0, 81, 0
2, 24848, Note_on_c, 0, 76, 0
2, 24848, Note_on_c, 0, 54, 0
2, 24849, Note_on_c, 0, 85, 0
2, 24851, Note_on_c, 0, 42, 0
2, 24870, Control_c, 0, 64, 72
2, 24873, Control_c, 0, 64, 0
2, 24881, Note_on_c, 0, 53, 106
2, 24883, Note_on_c, 0, 41, 98
2, 24892, Control_c, 0, 64, 72
2, 24893, Note_on_c, 0, 41, 0
2, 24893, Note_on_c, 0, 53, 0
2, 24895, Control_c, 0, 64, 127
2, 24922, Note_on_c, 0, 56, 100
2, 24922, Note_on_c, 0, 61, 80
2, 24922, Note_on_c, 0, 44, 92
2, 24923, Note_on_c, 0, 73, 81
2, 24923, Control_c, 0, 64, 104
2, 24925, Note_on_c, 0, 69, 78
2, 24927, Control_c, 0, 64, 72
2, 24930, Control_c, 0, 64, 40
2, 24932, Note_on_c, 0, 69, 0
2, 24932, Note_on_c, 0, 44, 0
2, 24932, Note_on_c, 0, 56, 0
2, 24933, Control_c, 0, 64, 0
2, 24935, Note_on_c, 0, 61, 0
2, 24936, Note_on_c, 0, 73, 0
2, 24962, Note_on_c, 0, 54, 102
2, 24963, Note_on_c, 0, 73, 88
2, 24963, Note_on_c, 0, 42, 92
2, 24965, Note_on_c, 0, 61, 75
2, 24967, Note_on_c, 0, 69, 68
2, 24973, Note_on_c, 0, 42, 0
2, 24973, Note_on_c, 0, 54, 0
2, 24977, Note_on_c, 0, 69, 0
2, 24978, Note_on_c, 0, 61, 0
2, 24979, Note_on_c, 0, 73, 0
2, 25002, Control_c, 0, 64, 24
2, 25005, Note_on_c, 0, 51, 107
2, 25005, Note_on_c, 0, 39, 96
2, 25006, Note_on_c, 0, 73, 90
2, 25006, Note_on_c, 0, 61, 86
2, 25006, Control_c, 0, 64, 104
2, 25008, Note_on_c, 0, 69, 85
2, 25008, Control_c, 0, 64, 127
2, 25013, Note_on_c, 0, 51, 0
2, 25015, Note_on_c, 0, 39, 0
2, 25023, Note_on_c, 0, 61, 0
2, 25023, Note_on_c, 0, 73, 0
2, 25025, Note_on_c, 0, 69, 0
2, 25046, Note_on_c, 0, 61, 71
2, 25046, Note_on_c, 0, 54, 101
2, 25046, Note_on_c, 0, 42, 92
2, 25046, Control_c, 0, 64, 104
2, 25047, Note_on_c, 0, 73, 69
2, 25050, Note_on_c, 0, 69, 76
2, 25050, Control_c, 0, 64, 72
2, 25052, Control_c, 0, 64, 40
2, 25056, Note_on_c, 0, 54, 0
2, 25056, Control_c, 0, 64, 0
2, 25062, Note_on_c, 0, 73, 0
2, 25063, Note_on_c, 0, 61, 0
2, 25063, Note_on_c, 0, 69, 0
2, 25064, Note_on_c, 0, 42, 0
2, 25083, Note_on_c, 0, 52, 92
2, 25085, Note_on_c, 0, 40, 84
2, 25086, Note_on_c, 0, 61, 72
2, 25086, Note_on_c, 0, 73, 79
2, 25088, Note_on_c, 0, 69, 78
2, 25095, Note_on_c, 0, 52, 0
2, 25097, Note_on_c, 0, 40, 0
2, 25102, Note_on_c, 0, 73, 0
2, 25104, Note_on_c, 0, 61, 0
2, 25105, Note_on_c, 0, 69, 0
2, 25122, Control_c, 0, 64, 24
2, 25125, Control_c, 0, 64, 88
2, 25126, Note_on_c, 0, 73, 88
2, 25126, Note_on_c, 0, 61, 82
2, 25128, Note_on_c, 0, 69, 89
2, 25128, Control_c, 0, 64, 127
2, 25143, Note_on_c, 0, 61, 0
2, 25143, Note_on_c, 0, 73, 0
2, 25144, Note_on_c, 0, 69, 0
2, 25150, Control_c, 0, 64, 104
2, 25153, Control_c, 0, 64, 72
2, 25156, Control_c, 0, 64, 40
2, 25158, Control_c, 0, 64, 0
2, 25167, Note_on_c, 0, 61, 95
2, 25167, Note_on_c, 0, 37, 90
2, 25167, Note_on_c, 0, 49, 103
2, 25178, Note_on_c, 0, 49, 0
2, 25179, Note_on_c, 0, 37, 0
2, 25183, Note_on_c, 0, 61, 0
2, 25210, Note_on_c, 0, 62, 107
2, 25212, Note_on_c, 0, 50, 91
2, 25212, Note_on_c, 0, 38, 89
2, 25216, Note_on_c, 0, 48, 55
2, 25217, Note_on_c, 0, 39, 37
2, 25219, Note_on_c, 0, 38, 0
2, 25221, Note_on_c, 0, 48, 0
2, 25222, Note_on_c, 0, 39, 0
2, 25222, Note_on_c, 0, 50, 0
2, 25228, Note_on_c, 0, 62, 0
2, 25251, Note_on_c, 0, 63, 105
2, 25252, Note_on_c, 0, 51, 102
2, 25252, Note_on_c, 0, 39, 89
2, 25262, Note_on_c, 0, 51, 0
2, 25263, Note_on_c, 0, 39, 0
2, 25273, Note_on_c, 0, 63, 0
2, 25290, Note_on_c, 0, 66, 99
2, 25292, Note_on_c, 0, 54, 97
2, 25293, Note_on_c, 0, 42, 92
2, 25305, Note_on_c, 0, 54, 0
2, 25318, Note_on_c, 0, 42, 0
2, 25318, Note_on_c, 0, 66, 0
2, 25331, Note_on_c, 0, 64, 102
2, 25331, Note_on_c, 0, 52, 98
2, 25332, Note_on_c, 0, 40, 86
2, 25336, Control_c, 0, 64, 40
2, 25339, Note_on_c, 0, 52, 0
2, 25339, Note_on_c, 0, 64, 0
2, 25340, Control_c, 0, 64, 88
2, 25342, Control_c, 0, 64, 127
2, 25343, Note_on_c, 0, 40, 0
2, 25355, Control_c, 0, 64, 72
2, 25358, Control_c, 0, 64, 24
2, 25361, Control_c, 0, 64, 0
2, 25366, Note_on_c, 0, 80, 44
2, 25372, Note_on_c, 0, 80, 0
2, 25376, Note_on_c, 0, 45, 107
2, 25376, Note_on_c, 0, 33, 86
2, 25380, Control_c, 0, 64, 56
2, 25383, Control_c, 0, 64, 127
2, 25384, Note_on_c, 0, 33, 0
2, 25388, Note_on_c, 0, 45, 0
2, 25418, Note_on_c, 0, 88, 94
2, 25418, Note_on_c, 0, 52, 78
2, 25418, Note_on_c, 0, 85, 82
2, 25418, Note_on_c, 0, 76, 88
2, 25420, Note_on_c, 0, 40, 84
2, 25420, Note_on_c, 0, 81, 83
2, 25425, Note_on_c, 0, 40, 0
2, 25428, Note_on_c, 0, 52, 0
2, 25431, Note_on_c, 0, 76, 0
2, 25435, Note_on_c, 0, 88, 0
2, 25435, Note_on_c, 0, 81, 0
2, 25438, Note_on_c, 0, 85, 0
2, 25461, Note_on_c, 0, 57, 92
2, 25461, Note_on_c, 0, 76, 94
2, 25461, Note_on_c, 0, 88, 96
2, 25462, Note_on_c, 0, 85, 87
2, 25462, Note_on_c, 0, 81, 81
2, 25465, Note_on_c, 0, 45, 77
2, 25472, Note_on_c, 0, 57, 0
2, 25473, Note_on_c, 0, 76, 0
2, 25474, Note_on_c, 0, 81, 0
2, 25477, Note_on_c, 0, 45, 0
2, 25478, Note_on_c, 0, 88, 0
2, 25479, Note_on_c, 0, 85, 0
2, 25506, Note_on_c, 0, 88, 100
2, 25506, Note_on_c, 0, 64, 97
2, 25507, Note_on_c, 0, 85, 87
2, 25507, Note_on_c, 0, 76, 97
2, 25507, Note_on_c, 0, 52, 89
2, 25508, Note_on_c, 0, 81, 84
2, 25511, Control_c, 0, 64, 40
2, 25515, Control_c, 0, 64, 0
2, 25525, Note_on_c, 0, 81, 0
2, 25525, Note_on_c, 0, 76, 0
2, 25527, Note_on_c, 0, 88, 0
2, 25529, Note_on_c, 0, 85, 0
2, 25533, Control_c, 0, 64, 40
2, 25537, Control_c, 0, 64, 127
2, 25547, Note_on_c, 0, 85, 77
2, 25548, Note_on_c, 0, 76, 78
2, 25548, Note_on_c, 0, 88, 88
2, 25550, Note_on_c, 0, 81, 70
2, 25552, Note_on_c, 0, 64, 0
2, 25552, Note_on_c, 0, 52, 0
2, 25560, Note_on_c, 0, 76, 0
2, 25560, Note_on_c, 0, 81, 0
2, 25561, Note_on_c, 0, 88, 0
2, 25564, Note_on_c, 0, 85, 0
2, 25586, Note_on_c, 0, 61, 83
2, 25587, Control_c, 0, 64, 104
2, 25588, Note_on_c, 0, 49, 85
2, 25590, Note_on_c, 0, 85, 79
2, 25590, Note_on_c, 0, 88, 86
2, 25590, Note_on_c, 0, 76, 74
2, 25591, Note_on_c, 0, 81, 71
2, 25591, Control_c, 0, 64, 88
2, 25593, Control_c, 0, 64, 72
2, 25597, Control_c, 0, 64, 40
2, 25598, Note_on_c, 0, 81, 0
2, 25600, Control_c, 0, 64, 24
2, 25602, Note_on_c, 0, 76, 0
2, 25603, Note_on_c, 0, 88, 0
2, 25603, Control_c, 0, 64, 0
2, 25606, Note_on_c, 0, 85, 0
2, 25607, Note_on_c, 0, 61, 0
2, 25611, Note_on_c, 0, 49, 0
2, 25628, Note_on_c, 0, 59, 95
2, 25630, Note_on_c, 0, 47, 95
2, 25630, Note_on_c, 0, 88, 92
2, 25630, Note_on_c, 0, 76, 92
2, 25631, Note_on_c, 0, 85, 81
2, 25631, Note_on_c, 0, 81, 76
2, 25632, Control_c, 0, 64, 72
2, 25635, Control_c, 0, 64, 127
2, 25637, Note_on_c, 0, 81, 0
2, 25642, Note_on_c, 0, 76, 0
2, 25643, Note_on_c, 0, 88, 0
2, 25643, Note_on_c, 0, 59, 0
2, 25643, Note_on_c, 0, 47, 0
2, 25646, Note_on_c, 0, 85, 0
2, 25663, Control_c, 0, 64, 104
2, 25666, Control_c, 0, 64, 88
2, 25670, Control_c, 0, 64, 72
2, 25671, Note_on_c, 0, 61, 96
2, 25672, Note_on_c, 0, 76, 84
2, 25672, Note_on_c, 0, 49, 92
2, 25672, Note_on_c, 0, 85, 75
2, 25672, Note_on_c, 0, 88, 79
2, 25672, Control_c, 0, 64, 56
2, 25673, Note_on_c, 0, 81, 68
2, 25676, Control_c, 0, 64, 40
2, 25678, Control_c, 0, 64, 24
2, 25679, Note_on_c, 0, 81, 0
2, 25682, Control_c, 0, 64, 0
2, 25683, Note_on_c, 0, 61, 0
2, 25683, Note_on_c, 0, 76, 0
2, 25684, Note_on_c, 0, 85, 0
2, 25684, Note_on_c, 0, 88, 0
2, 25698, Note_on_c, 0, 49, 0
2, 25701, Control_c, 0, 64, 40
2, 25705, Control_c, 0, 64, 72
2, 25707, Control_c, 0, 64, 104
2, 25711, Control_c, 0, 64, 127
2, 25712, Note_on_c, 0, 57, 98
2, 25713, Note_on_c, 0, 45, 96
2, 25713, Note_on_c, 0, 85, 83
2, 25715, Note_on_c, 0, 76, 88
2, 25715, Note_on_c, 0, 88, 89
2, 25716, Note_on_c, 0, 81, 74
2, 25721, Note_on_c, 0, 81, 0
2, 25724, Note_on_c, 0, 57, 0
2, 25724, Note_on_c, 0, 45, 0
2, 25727, Note_on_c, 0, 76, 0
2, 25727, Note_on_c, 0, 88, 0
2, 25729, Note_on_c, 0, 85, 0
2, 25736, Control_c, 0, 64, 88
2, 25738, Control_c, 0, 64, 56
2, 25742, Control_c, 0, 64, 24
2, 25751, Note_on_c, 0, 56, 96
2, 25751, Control_c, 0, 64, 72
2, 25752, Note_on_c, 0, 44, 95
2, 25755, Control_c, 0, 64, 88
2, 25756, Note_on_c, 0, 85, 71
2, 25757, Note_on_c, 0, 76, 73
2, 25757, Note_on_c, 0, 88, 63
2, 25758, Note_on_c, 0, 81, 64
2, 25758, Control_c, 0, 64, 104
2, 25763, Note_on_c, 0, 56, 0
2, 25764, Note_on_c, 0, 81, 0
2, 25767, Note_on_c, 0, 44, 0
2, 25767, Note_on_c, 0, 88, 0
2, 25768, Note_on_c, 0, 76, 0
2, 25771, Note_on_c, 0, 85, 0
2, 25773, Control_c, 0, 64, 72
2, 25777, Control_c, 0, 64, 24
2, 25780, Control_c, 0, 64, 0
2, 25792, Note_on_c, 0, 57, 92
2, 25792, Control_c, 0, 64, 24
2, 25795, Note_on_c, 0, 45, 100
2, 25795, Control_c, 0, 64, 72
2, 25797, Note_on_c, 0, 85, 77
2, 25797, Note_on_c, 0, 76, 80
2, 25798, Note_on_c, 0, 88, 74
2, 25798, Control_c, 0, 64, 104
2, 25800, Note_on_c, 0, 81, 70
2, 25802, Control_c, 0, 64, 127
2, 25805, Note_on_c, 0, 57, 0
2, 25806, Note_on_c, 0, 45, 0
2, 25806, Note_on_c, 0, 81, 0
2, 25810, Note_on_c, 0, 76, 0
2, 25810, Note_on_c, 0, 88, 0
2, 25813, Note_on_c, 0, 85, 0
2, 25832, Note_on_c, 0, 54, 105
2, 25833, Note_on_c, 0, 42, 98
2, 25835, Note_on_c, 0, 85, 72
2, 25836, Note_on_c, 0, 88, 77
2, 25836, Note_on_c, 0, 76, 74
2, 25837, Note_on_c, 0, 81, 65
2, 25841, Note_on_c, 0, 88, 0
2, 25843, Note_on_c, 0, 81, 0
2, 25844, Note_on_c, 0, 54, 0
2, 25846, Note_on_c, 0, 76, 0
2, 25846, Note_on_c, 0, 85, 0
2, 25862, Control_c, 0, 64, 72
2, 25864, Note_on_c, 0, 42, 0
2, 25865, Control_c, 0, 64, 24
2, 25868, Control_c, 0, 64, 0
2, 25875, Note_on_c, 0, 53, 107
2, 25876, Note_on_c, 0, 41, 94
2, 25880, Control_c, 0, 64, 24
2, 25883, Control_c, 0, 64, 72
2, 25886, Control_c, 0, 64, 127
2, 25887, Note_on_c, 0, 41, 0
2, 25888, Note_on_c, 0, 53, 0
2, 25915, Note_on_c, 0, 56, 96
2, 25915, Note_on_c, 0, 61, 80
2, 25915, Control_c, 0, 64, 88
2, 25916, Note_on_c, 0, 73, 79
2, 25916, Note_on_c, 0, 44, 87
2, 25918, Note_on_c, 0, 69, 74
2, 25918, Control_c, 0, 64, 56
2, 25921, Control_c, 0, 64, 24
2, 25925, Note_on_c, 0, 69, 0
2, 25925, Control_c, 0, 64, 0
2, 25926, Note_on_c, 0, 56, 0
2, 25927, Note_on_c, 0, 61, 0
2, 25927, Note_on_c, 0, 73, 0
2, 25927, Note_on_c, 0, 44, 0
2, 25955, Note_on_c, 0, 54, 100
2, 25955, Note_on_c, 0, 73, 88
2, 25955, Note_on_c, 0, 61, 82
2, 25955, Note_on_c, 0, 42, 91
2, 25957, Note_on_c, 0, 69, 80
2, 25966, Note_on_c, 0, 42, 0
2, 25966, Note_on_c, 0, 54, 0
2, 25970, Note_on_c, 0, 73, 0
2, 25970, Note_on_c, 0, 61, 0
2, 25970, Note_on_c, 0, 69, 0
2, 25996, Note_on_c, 0, 61, 83
2, 25996, Note_on_c, 0, 51, 107
2, 25996, Note_on_c, 0, 39, 92
2, 25996, Note_on_c, 0, 73, 89
2, 25996, Control_c, 0, 64, 24
2, 25998, Note_on_c, 0, 69, 80
2, 26000, Control_c, 0, 64, 88
2, 26003, Control_c, 0, 64, 127
2, 26006, Note_on_c, 0, 39, 0
2, 26006, Note_on_c, 0, 51, 0
2, 26012, Note_on_c, 0, 61, 0
2, 26012, Note_on_c, 0, 73, 0
2, 26014, Note_on_c, 0, 69, 0
2, 26031, Control_c, 0, 64, 88
2, 26035, Note_on_c, 0, 61, 79
2, 26035, Control_c, 0, 64, 56
2, 26036, Note_on_c, 0, 54, 96
2, 26036, Note_on_c, 0, 42, 94
2, 26037, Note_on_c, 0, 73, 82
2, 26038, Note_on_c, 0, 69, 81
2, 26038, Control_c, 0, 64, 40
2, 26041, Control_c, 0, 64, 24
2, 26043, Control_c, 0, 64, 0
2, 26048, Note_on_c, 0, 54, 0
2, 26052, Note_on_c, 0, 73, 0
2, 26052, Note_on_c, 0, 42, 0
2, 26053, Note_on_c, 0, 61, 0
2, 26054, Note_on_c, 0, 69, 0
2, 26076, Note_on_c, 0, 52, 92
2, 26076, Note_on_c, 0, 61, 78
2, 26077, Note_on_c, 0, 40, 78
2, 26078, Note_on_c, 0, 73, 80
2, 26078, Note_on_c, 0, 69, 82
2, 26086, Note_on_c, 0, 52, 0
2, 26089, Note_on_c, 0, 40, 0
2, 26090, Note_on_c, 0, 73, 0
2, 26093, Note_on_c, 0, 61, 0
2, 26094, Note_on_c, 0, 69, 0
2, 26113, Control_c, 0, 64, 40
2, 26116, Control_c, 0, 64, 88
2, 26117, Note_on_c, 0, 61, 92
2, 26117, Note_on_c, 0, 73, 87
2, 26118, Note_on_c, 0, 69, 87
2, 26120, Control_c, 0, 64, 127
2, 26132, Note_on_c, 0, 61, 0
2, 26132, Control_c, 0, 64, 104
2, 26134, Note_on_c, 0, 69, 0
2, 26134, Note_on_c, 0, 73, 0
2, 26136, Control_c, 0, 64, 88
2, 26138, Control_c, 0, 64, 56
2, 26142, Control_c, 0, 64, 40
2, 26145, Control_c, 0, 64, 0
2, 26157, Note_on_c, 0, 61, 85
2, 26160, Note_on_c, 0, 49, 91
2, 26160, Note_on_c, 0, 37, 75
2, 26171, Note_on_c, 0, 49, 0
2, 26173, Note_on_c, 0, 37, 0
2, 26174, Note_on_c, 0, 61, 0
2, 26198, Note_on_c, 0, 62, 100
2, 26202, Note_on_c, 0, 50, 84
2, 26202, Note_on_c, 0, 38, 81
2, 26212, Note_on_c, 0, 38, 0
2, 26213, Note_on_c, 0, 50, 0
2, 26216, Note_on_c, 0, 62, 0
2, 26238, Note_on_c, 0, 63, 100
2, 26242, Note_on_c, 0, 51, 95
2, 26242, Note_on_c, 0, 39, 81
2, 26252, Note_on_c, 0, 51, 0
2, 26253, Note_on_c, 0, 39, 0
2, 26261, Note_on_c, 0, 63, 0
2, 26278, Note_on_c, 0, 66, 99
2, 26280, Note_on_c, 0, 54, 92
2, 26281, Note_on_c, 0, 42, 82
2, 26297, Note_on_c, 0, 54, 0
2, 26303, Note_on_c, 0, 66, 0
2, 26308, Note_on_c, 0, 42, 0
2, 26316, Note_on_c, 0, 64, 97
2, 26316, Note_on_c, 0, 52, 94
2, 26317, Note_on_c, 0, 40, 83
2, 26321, Control_c, 0, 64, 24
2, 26323, Control_c, 0, 64, 40
2, 26324, Note_on_c, 0, 64, 0
2, 26326, Note_on_c, 0, 52, 0
2, 26328, Note_on_c, 0, 40, 0
2, 26340, Control_c, 0, 64, 0
2, 26358, Control_c, 0, 64, 24
2, 26362, Note_on_c, 0, 33, 88
2, 26362, Note_on_c, 0, 45, 94
2, 26362, Control_c, 0, 64, 72
2, 26365, Control_c, 0, 64, 127
2, 26370, Note_on_c, 0, 33, 0
2, 26377, Note_on_c, 0, 45, 0
2, 26401, Note_on_c, 0, 52, 92
2, 26402, Note_on_c, 0, 85, 77
2, 26402, Note_on_c, 0, 76, 83
2, 26403, Note_on_c, 0, 88, 83
2, 26403, Note_on_c, 0, 40, 82
2, 26406, Note_on_c, 0, 81, 78
2, 26409, Note_on_c, 0, 40, 0
2, 26413, Note_on_c, 0, 52, 0
2, 26417, Note_on_c, 0, 76, 0
2, 26419, Note_on_c, 0, 81, 0
2, 26420, Note_on_c, 0, 85, 0
2, 26421, Note_on_c, 0, 88, 0
2, 26446, Note_on_c, 0, 88, 92
2, 26446, Note_on_c, 0, 85, 82
2, 26446, Note_on_c, 0, 76, 87
2, 26448, Note_on_c, 0, 81, 78
2, 26450, Note_on_c, 0, 57, 62
2, 26450, Note_on_c, 0, 45, 74
2, 26453, Note_on_c, 0, 81, 0
2, 26455, Note_on_c, 0, 45, 0
2, 26456, Note_on_c, 0, 57, 0
2, 26459, Note_on_c, 0, 76, 0
2, 26464, Note_on_c, 0, 88, 0
2, 26467, Note_on_c, 0, 85, 0
2, 26488, Control_c, 0, 64, 104
2, 26490, Note_on_c, 0, 88, 92
2, 26490, Note_on_c, 0, 64, 93
2, 26490, Note_on_c, 0, 85, 79
2, 26491, Note_on_c, 0, 76, 86
2, 26491, Note_on_c, 0, 81, 77
2, 26491, Note_on_c, 0, 52, 91
2, 26491, Control_c, 0, 64, 56
2, 26495, Control_c, 0, 64, 0
2, 26506, Note_on_c, 0, 76, 0
2, 26509, Note_on_c, 0, 81, 0
2, 26510, Note_on_c, 0, 88, 0
2, 26510, Control_c, 0, 64, 40
2, 26512, Note_on_c, 0, 85, 0
2, 26513, Control_c, 0, 64, 88
2, 26516, Control_c, 0, 64, 127
2, 26531, Note_on_c, 0, 64, 0
2, 26532, Note_on_c, 0, 85, 79
2, 26532, Note_on_c, 0, 88, 87
2, 26533, Note_on_c, 0, 76, 77
2, 26533, Note_on_c, 0, 81, 73
2, 26534, Note_on_c, 0, 52, 0
2, 26544, Note_on_c, 0, 76, 0
2, 26546, Note_on_c, 0, 81, 0
2, 26547, Note_on_c, 0, 88, 0
2, 26549, Note_on_c, 0, 85, 0
2, 26570, Note_on_c, 0, 61, 93
2, 26570, Note_on_c, 0, 49, 88
2, 26571, Note_on_c, 0, 88, 91
2, 26572, Note_on_c, 0, 76, 84
2, 26572, Note_on_c, 0, 85, 74
2, 26573, Note_on_c, 0, 81, 73
2, 26579, Note_on_c, 0, 76, 0
2, 26582, Note_on_c, 0, 49, 0
2, 26583, Note_on_c, 0, 61, 0
2, 26583, Note_on_c, 0, 88, 0
2, 26588, Note_on_c, 0, 85, 0
2, 26590, Note_on_c, 0, 81, 0
2, 26607, Control_c, 0, 64, 72
2, 26611, Control_c, 0, 64, 0
2, 26613, Note_on_c, 0, 90, 89
2, 26613, Note_on_c, 0, 81, 80
2, 26613, Note_on_c, 0, 64, 94
2, 26615, Note_on_c, 0, 78, 81
2, 26615, Note_on_c, 0, 85, 74
2, 26616, Note_on_c, 0, 52, 72
2, 26627, Note_on_c, 0, 78, 0
2, 26630, Note_on_c, 0, 90, 0
2, 26630, Control_c, 0, 64, 24
2, 26631, Note_on_c, 0, 81, 0
2, 26632, Note_on_c, 0, 85, 0
2, 26633, Control_c, 0, 64, 88
2, 26636, Control_c, 0, 64, 127
2, 26653, Note_on_c, 0, 90, 83
2, 26655, Note_on_c, 0, 78, 74
2, 26655, Note_on_c, 0, 81, 74
2, 26656, Note_on_c, 0, 85, 65
2, 26664, Note_on_c, 0, 64, 0
2, 26665, Note_on_c, 0, 78, 0
2, 26669, Note_on_c, 0, 52, 0
2, 26669, Note_on_c, 0, 90, 0
2, 26670, Note_on_c, 0, 81, 0
2, 26671, Note_on_c, 0, 85, 0
2, 26690, Note_on_c, 0, 90, 83
2, 26692, Note_on_c, 0, 78, 79
2, 26692, Note_on_c, 0, 85, 71
2, 26693, Note_on_c, 0, 81, 75
2, 26693, Note_on_c, 0, 51, 93
2, 26693, Note_on_c, 0, 63, 89
2, 26706, Note_on_c, 0, 81, 0
2, 26708, Note_on_c, 0, 78, 0
2, 26709, Note_on_c, 0, 63, 0
2, 26710, Note_on_c, 0, 90, 0
2, 26715, Note_on_c, 0, 51, 0
2, 26715, Note_on_c, 0, 85, 0
2, 26723, Control_c, 0, 64, 88
2, 26727, Control_c, 0, 64, 40
2, 26730, Control_c, 0, 64, 0
2, 26732, Note_on_c, 0, 85, 72
2, 26733, Note_on_c, 0, 88, 92
2, 26733, Note_on_c, 0, 76, 83
2, 26735, Note_on_c, 0, 52, 90
2, 26735, Note_on_c, 0, 64, 92
2, 26736, Note_on_c, 0, 81, 72
2, 26745, Note_on_c, 0, 76, 0
2, 26748, Control_c, 0, 64, 40
2, 26749, Note_on_c, 0, 81, 0
2, 26750, Note_on_c, 0, 85, 0
2, 26750, Note_on_c, 0, 88, 0
2, 26752, Control_c, 0, 64, 88
2, 26755, Control_c, 0, 64, 127
2, 26761, Note_on_c, 0, 64, 0
2, 26763, Note_on_c, 0, 52, 0
2, 26770, Note_on_c, 0, 85, 73
2, 26772, Note_on_c, 0, 88, 86
2, 26773, Note_on_c, 0, 76, 69
2, 26773, Note_on_c, 0, 81, 70
2, 26784, Note_on_c, 0, 76, 0
2, 26785, Note_on_c, 0, 88, 0
2, 26788, Note_on_c, 0, 81, 0
2, 26791, Note_on_c, 0, 85, 0
2, 26811, Note_on_c, 0, 49, 94
2, 26811, Note_on_c, 0, 61, 94
2, 26811, Note_on_c, 0, 88, 84
2, 26812, Note_on_c, 0, 85, 64
2, 26812, Note_on_c, 0, 81, 71
2, 26812, Note_on_c, 0, 76, 78
2, 26819, Note_on_c, 0, 76, 0
2, 26821, Note_on_c, 0, 49, 0
2, 26824, Note_on_c, 0, 88, 0
2, 26826, Note_on_c, 0, 61, 0
2, 26829, Note_on_c, 0, 85, 0
2, 26832, Note_on_c, 0, 81, 0
2, 26847, Control_c, 0, 64, 72
2, 26850, Control_c, 0, 64, 0
2, 26853, Note_on_c, 0, 64, 97
2, 26853, Note_on_c, 0, 90, 89
2, 26855, Note_on_c, 0, 78, 81
2, 26855, Note_on_c, 0, 52, 92
2, 26855, Note_on_c, 0, 85, 73
2, 26855, Note_on_c, 0, 81, 84
2, 26865, Note_on_c, 0, 78, 0
2, 26871, Note_on_c, 0, 90, 0
2, 26871, Note_on_c, 0, 81, 0
2, 26872, Note_on_c, 0, 85, 0
2, 26875, Control_c, 0, 64, 72
2, 26878, Control_c, 0, 64, 127
2, 26891, Note_on_c, 0, 90, 81
2, 26892, Note_on_c, 0, 78, 70
2, 26893, Note_on_c, 0, 81, 74
2, 26895, Note_on_c, 0, 85, 59
2, 26901, Note_on_c, 0, 64, 0
2, 26902, Note_on_c, 0, 52, 0
2, 26903, Note_on_c, 0, 78, 0
2, 26905, Note_on_c, 0, 81, 0
2, 26906, Note_on_c, 0, 85, 0
2, 26907, Note_on_c, 0, 90, 0
2, 26931, Note_on_c, 0, 90, 74
2, 26931, Note_on_c, 0, 78, 71
2, 26932, Note_on_c, 0, 63, 91
2, 26933, Note_on_c, 0, 51, 92
2, 26933, Note_on_c, 0, 81, 69
2, 26933, Note_on_c, 0, 85, 63
2, 26943, Note_on_c, 0, 78, 0
2, 26944, Note_on_c, 0, 90, 0
2, 26948, Note_on_c, 0, 81, 0
2, 26949, Note_on_c, 0, 63, 0
2, 26950, Note_on_c, 0, 85, 0
2, 26951, Note_on_c, 0, 51, 0
2, 26960, Control_c, 0, 64, 104
2, 26963, Control_c, 0, 64, 72
2, 26966, Control_c, 0, 64, 0
2, 26972, Note_on_c, 0, 85, 72
2, 26972, Note_on_c, 0, 88, 86
2, 26973, Note_on_c, 0, 76, 81
2, 26973, Note_on_c, 0, 64, 99
2, 26975, Note_on_c, 0, 52, 90
2, 26975, Note_on_c, 0, 81, 68
2, 26984, Note_on_c, 0, 76, 0
2, 26985, Note_on_c, 0, 88, 0
2, 26985, Note_on_c, 0, 85, 0
2, 26985, Note_on_c, 0, 81, 0
2, 26986, Control_c, 0, 64, 40
2, 26988, Control_c, 0, 64, 88
2, 26992, Control_c, 0, 64, 127
2, 26993, Note_on_c, 0, 64, 0
2, 26995, Note_on_c, 0, 52, 0
2, 27012, Note_on_c, 0, 88, 83
2, 27013, Note_on_c, 0, 85, 68
2, 27013, Note_on_c, 0, 76, 79
2, 27016, Note_on_c, 0, 81, 69
2, 27021, Note_on_c, 0, 76, 0
2, 27025, Note_on_c, 0, 88, 0
2, 27029, Note_on_c, 0, 85, 0
2, 27033, Note_on_c, 0, 81, 0
2, 27051, Note_on_c, 0, 49, 92
2, 27051, Note_on_c, 0, 90, 91
2, 27052, Note_on_c, 0, 61, 97
2, 27052, Note_on_c, 0, 78, 75
2, 27053, Note_on_c, 0, 81, 69
2, 27055, Note_on_c, 0, 85, 55
2, 27061, Note_on_c, 0, 85, 0
2, 27062, Note_on_c, 0, 49, 0
2, 27063, Note_on_c, 0, 81, 0
2, 27064, Note_on_c, 0, 61, 0
2, 27068, Note_on_c, 0, 90, 0
2, 27070, Note_on_c, 0, 78, 0
2, 27083, Control_c, 0, 64, 104
2, 27086, Control_c, 0, 64, 56
2, 27090, Control_c, 0, 64, 0
2, 27093, Note_on_c, 0, 88, 84
2, 27093, Note_on_c, 0, 64, 96
2, 27093, Note_on_c, 0, 76, 83
2, 27093, Note_on_c, 0, 85, 72
2, 27095, Note_on_c, 0, 52, 89
2, 27096, Note_on_c, 0, 81, 72
2, 27104, Note_on_c, 0, 81, 0
2, 27105, Note_on_c, 0, 88, 0
2, 27105, Note_on_c, 0, 76, 0
2, 27106, Note_on_c, 0, 85, 0
2, 27108, Control_c, 0, 64, 56
2, 27111, Control_c, 0, 64, 104
2, 27115, Control_c, 0, 64, 127
2, 27118, Note_on_c, 0, 52, 0
2, 27121, Note_on_c, 0, 64, 0
2, 27130, Note_on_c, 0, 88, 82
2, 27131, Note_on_c, 0, 85, 59
2, 27132, Note_on_c, 0, 76, 70
2, 27133, Note_on_c, 0, 81, 57
2, 27138, Note_on_c, 0, 76, 0
2, 27143, Note_on_c, 0, 88, 0
2, 27144, Note_on_c, 0, 85, 0
2, 27146, Note_on_c, 0, 81, 0
2, 27166, Note_on_c, 0, 90, 94
2, 27167, Note_on_c, 0, 78, 81
2, 27167, Note_on_c, 0, 61, 94
2, 27168, Note_on_c, 0, 81, 73
2, 27168, Note_on_c, 0, 49, 88
2, 27170, Note_on_c, 0, 85, 62
2, 27175, Note_on_c, 0, 85, 0
2, 27179, Note_on_c, 0, 49, 0
2, 27180, Note_on_c, 0, 61, 0
2, 27182, Note_on_c, 0, 78, 0
2, 27183, Note_on_c, 0, 81, 0
2, 27184, Note_on_c, 0, 90, 0
2, 27196, Control_c, 0, 64, 104
2, 27200, Control_c, 0, 64, 56
2, 27202, Control_c, 0, 64, 0
2, 27208, Note_on_c, 0, 88, 90
2, 27208, Note_on_c, 0, 85, 75
2, 27210, Note_on_c, 0, 76, 85
2, 27210, Note_on_c, 0, 81, 73
2, 27211, Note_on_c, 0, 64, 91
2, 27211, Control_c, 0, 64, 56
2, 27213, Note_on_c, 0, 52, 83
2, 27215, Control_c, 0, 64, 88
2, 27218, Control_c, 0, 64, 127
2, 27221, Note_on_c, 0, 76, 0
2, 27223, Note_on_c, 0, 88, 0
2, 27224, Note_on_c, 0, 64, 0
2, 27225, Note_on_c, 0, 85, 0
2, 27225, Note_on_c, 0, 52, 0
2, 27225, Note_on_c, 0, 81, 0
2, 27246, Note_on_c, 0, 88, 91
2, 27247, Note_on_c, 0, 85, 70
2, 27248, Note_on_c, 0, 76, 84
2, 27248, Note_on_c, 0, 81, 71
2, 27256, Note_on_c, 0, 76, 0
2, 27261, Note_on_c, 0, 88, 0
2, 27265, Note_on_c, 0, 81, 0
2, 27267, Note_on_c, 0, 85, 0
2, 27287, Note_on_c, 0, 90, 95
2, 27287, Note_on_c, 0, 78, 84
2, 27287, Note_on_c, 0, 85, 77
2, 27287, Note_on_c, 0, 81, 84
2, 27287, Note_on_c, 0, 49, 88
2, 27288, Note_on_c, 0, 61, 92
2, 27295, Note_on_c, 0, 49, 0
2, 27299, Note_on_c, 0, 61, 0
2, 27303, Control_c, 0, 64, 104
2, 27304, Note_on_c, 0, 90, 0
2, 27304, Note_on_c, 0, 81, 0
2, 27305, Note_on_c, 0, 78, 0
2, 27306, Control_c, 0, 64, 72
2, 27307, Note_on_c, 0, 85, 0
2, 27310, Control_c, 0, 64, 40
2, 27312, Control_c, 0, 64, 0
2, 27331, Note_on_c, 0, 88, 100
2, 27331, Note_on_c, 0, 64, 92
2, 27331, Note_on_c, 0, 85, 83
2, 27332, Note_on_c, 0, 76, 93
2, 27332, Note_on_c, 0, 81, 84
2, 27332, Control_c, 0, 64, 24
2, 27333, Note_on_c, 0, 52, 81
2, 27335, Control_c, 0, 64, 88
2, 27338, Control_c, 0, 64, 127
2, 27342, Note_on_c, 0, 76, 0
2, 27343, Note_on_c, 0, 52, 0
2, 27344, Note_on_c, 0, 64, 0
2, 27345, Note_on_c, 0, 81, 0
2, 27346, Note_on_c, 0, 88, 0
2, 27348, Note_on_c, 0, 85, 0
2, 27378, Control_c, 0, 64, 104
2, 27382, Control_c, 0, 64, 72
2, 27385, Control_c, 0, 64, 40
2, 27388, Control_c, 0, 64, 24
2, 27391, Control_c, 0, 64, 0
2, 27463, Control_c, 0, 64, 24
2, 27467, Note_on_c, 0, 90, 100
2, 27467, Note_on_c, 0, 78, 95
2, 27467, Control_c, 0, 64, 88
2, 27468, Note_on_c, 0, 85, 87
2, 27470, Note_on_c, 0, 81, 89
2, 27470, Note_on_c, 0, 57, 91
2, 27471, Note_on_c, 0, 45, 91
2, 27471, Note_on_c, 0, 49, 81
2, 27471, Note_on_c, 0, 54, 79
2, 27471, Control_c, 0, 64, 127
2, 27479, Note_on_c, 0, 78, 0
2, 27481, Note_on_c, 0, 81, 0
2, 27482, Note_on_c, 0, 54, 0
2, 27483, Note_on_c, 0, 45, 0
2, 27483, Note_on_c, 0, 57, 0
2, 27483, Note_on_c, 0, 49, 0
2, 27486, Note_on_c, 0, 85, 0
2, 27487, Note_on_c, 0, 90, 0
2, 27521, Control_c, 0, 64, 88
2, 27523, Control_c, 0, 64, 72
2, 27527, Control_c, 0, 64, 56
2, 27530, Control_c, 0, 64, 40
2, 27533, Control_c, 0, 64, 24
2, 27536, Control_c, 0, 64, 0
2, 27602, Note_on_c, 0, 92, 105
2, 27602, Note_on_c, 0, 80, 95
2, 27603, Note_on_c, 0, 85, 92
2, 27606, Note_on_c, 0, 49, 87
2, 27606, Note_on_c, 0, 53, 92
2, 27607, Note_on_c, 0, 41, 80
2, 27608, Control_c, 0, 64, 88
2, 27611, Control_c, 0, 64, 127
2, 27615, Note_on_c, 0, 80, 0
2, 27615, Note_on_c, 0, 92, 0
2, 27616, Note_on_c, 0, 85, 0
2, 27618, Note_on_c, 0, 41, 0
2, 27618, Note_on_c, 0, 53, 0
2, 27619, Note_on_c, 0, 49, 0
2, 27623, Control_c, 0, 64, 72
2, 27626, Control_c, 0, 64, 127
2, 27653, Control_c, 0, 64, 104
2, 27657, Control_c, 0, 64, 88
2, 27660, Control_c, 0, 64, 72
2, 27666, Control_c, 0, 64, 56
2, 27668, Control_c, 0, 64, 40
2, 27672, Control_c, 0, 64, 24
2, 27675, Control_c, 0, 64, 0
2, 27681, Note_on_c, 0, 60, 88
2, 27683, Note_on_c, 0, 61, 77
2, 27692, Note_on_c, 0, 60, 0
2, 27696, Note_on_c, 0, 61, 0
2, 27726, Note_on_c, 0, 64, 73
2, 27726, Note_on_c, 0, 65, 75
2, 27732, Note_on_c, 0, 65, 0
2, 27732, Note_on_c, 0, 64, 0
2, 27761, Note_on_c, 0, 68, 78
2, 27765, Note_on_c, 0, 67, 61
2, 27771, Note_on_c, 0, 67, 0
2, 27772, Note_on_c, 0, 68, 0
2, 27802, Note_on_c, 0, 73, 75
2, 27803, Note_on_c, 0, 77, 85
2, 27809, Note_on_c, 0, 77, 0
2, 27813, Note_on_c, 0, 73, 0
2, 27840, Note_on_c, 0, 56, 70
2, 27841, Note_on_c, 0, 66, 72
2, 27848, Note_on_c, 0, 94, 106
2, 27851, Note_on_c, 0, 82, 89
2, 27851, Note_on_c, 0, 87, 89
2, 27851, Control_c, 0, 64, 72
2, 27852, Note_on_c, 0, 56, 0
2, 27853, Control_c, 0, 64, 127
2, 27860, Note_on_c, 0, 63, 69
2, 27861, Note_on_c, 0, 72, 75
2, 27866, Note_on_c, 0, 63, 0
2, 27867, Note_on_c, 0, 72, 0
2, 27868, Note_on_c, 0, 66, 0
2, 27868, Note_on_c, 0, 82, 0
2, 27873, Note_on_c, 0, 87, 0
2, 27875, Note_on_c, 0, 94, 0
2, 27891, Note_on_c, 0, 92, 95
2, 27897, Note_on_c, 0, 63, 56
2, 27897, Note_on_c, 0, 66, 54
2, 27898, Note_on_c, 0, 72, 69
2, 27904, Note_on_c, 0, 72, 0
2, 27904, Note_on_c, 0, 66, 0
2, 27904, Note_on_c, 0, 63, 0
2, 27909, Note_on_c, 0, 92, 0
2, 27915, Note_on_c, 0, 90, 83
2, 27932, Note_on_c, 0, 66, 57
2, 27932, Note_on_c, 0, 72, 71
2, 27932, Note_on_c, 0, 63, 52
2, 27935, Note_on_c, 0, 87, 74
2, 27942, Note_on_c, 0, 72, 0
2, 27943, Note_on_c, 0, 63, 0
2, 27944, Note_on_c, 0, 66, 0
2, 27950, Note_on_c, 0, 90, 0
2, 27955, Note_on_c, 0, 87, 0
2, 27955, Note_on_c, 0, 84, 93
2, 27967, Note_on_c, 0, 84, 0
2, 27972, Note_on_c, 0, 66, 56
2, 27973, Note_on_c, 0, 72, 64
2, 27976, Note_on_c, 0, 80, 95
2, 27977, Note_on_c, 0, 63, 35
2, 27981, Note_on_c, 0, 72, 0
2, 27987, Note_on_c, 0, 63, 0
2, 27988, Note_on_c, 0, 66, 0
2, 27996, Note_on_c, 0, 80, 0
2, 27996, Note_on_c, 0, 78, 94
2, 28018, Note_on_c, 0, 75, 87
2, 28019, Note_on_c, 0, 78, 0
2, 28031, Note_on_c, 0, 75, 0
2, 28035, Note_on_c, 0, 72, 88
2, 28047, Note_on_c, 0, 72, 0
2, 28057, Note_on_c, 0, 68, 86
2, 28072, Note_on_c, 0, 68, 0
2, 28077, Control_c, 0, 64, 104
2, 28081, Control_c, 0, 64, 72
2, 28083, Control_c, 0, 64, 24
2, 28087, Control_c, 0, 64, 0
2, 28101, Note_on_c, 0, 61, 86
2, 28102, Note_on_c, 0, 73, 90
2, 28102, Note_on_c, 0, 68, 74
2, 28106, Note_on_c, 0, 41, 65
2, 28106, Note_on_c, 0, 49, 62
2, 28107, Note_on_c, 0, 53, 64
2, 28111, Control_c, 0, 64, 88
2, 28113, Note_on_c, 0, 68, 0
2, 28113, Note_on_c, 0, 61, 0
2, 28113, Control_c, 0, 64, 127
2, 28114, Note_on_c, 0, 73, 0
2, 28116, Note_on_c, 0, 41, 0
2, 28117, Note_on_c, 0, 53, 0
2, 28117, Note_on_c, 0, 49, 0
2, 28180, Note_on_c, 0, 60, 82
2, 28185, Note_on_c, 0, 61, 89
2, 28190, Note_on_c, 0, 60, 0
2, 28190, Control_c, 0, 64, 104
2, 28192, Note_on_c, 0, 61, 0
2, 28193, Control_c, 0, 64, 40
2, 28196, Control_c, 0, 64, 0
2, 28221, Note_on_c, 0, 64, 60
2, 28230, Note_on_c, 0, 65, 93
2, 28234, Note_on_c, 0, 64, 0
2, 28238, Note_on_c, 0, 65, 0
2, 28261, Note_on_c, 0, 67, 78
2, 28270, Note_on_c, 0, 68, 92
2, 28274, Note_on_c, 0, 67, 0
2, 28276, Note_on_c, 0, 68, 0
2, 28301, Note_on_c, 0, 73, 70
2, 28312, Note_on_c, 0, 77, 83
2, 28317, Note_on_c, 0, 77, 0
2, 28319, Note_on_c, 0, 73, 0
2, 28341, Note_on_c, 0, 66, 56
2, 28343, Note_on_c, 0, 56, 74
2, 28353, Note_on_c, 0, 63, 59
2, 28355, Note_on_c, 0, 56, 0
2, 28355, Note_on_c, 0, 94, 103
2, 28356, Note_on_c, 0, 82, 91
2, 28356, Note_on_c, 0, 87, 89
2, 28356, Control_c, 0, 64, 56
2, 28358, Control_c, 0, 64, 127
2, 28365, Note_on_c, 0, 72, 85
2, 28368, Note_on_c, 0, 82, 0
2, 28368, Note_on_c, 0, 66, 0
2, 28369, Note_on_c, 0, 63, 0
2, 28370, Note_on_c, 0, 72, 0
2, 28376, Note_on_c, 0, 87, 0
2, 28381, Note_on_c, 0, 94, 0
2, 28398, Note_on_c, 0, 92, 96
2, 28403, Note_on_c, 0, 66, 63
2, 28403, Note_on_c, 0, 72, 70
2, 28408, Note_on_c, 0, 66, 0
2, 28409, Note_on_c, 0, 72, 0
2, 28415, Note_on_c, 0, 92, 0
2, 28421, Note_on_c, 0, 90, 85
2, 28438, Note_on_c, 0, 72, 57
2, 28438, Note_on_c, 0, 66, 45
2, 28440, Note_on_c, 0, 87, 83
2, 28442, Note_on_c, 0, 63, 30
2, 28446, Note_on_c, 0, 72, 0
2, 28448, Note_on_c, 0, 63, 0
2, 28448, Note_on_c, 0, 66, 0
2, 28457, Note_on_c, 0, 90, 0
2, 28461, Note_on_c, 0, 87, 0
2, 28462, Note_on_c, 0, 84, 97
2, 28470, Note_on_c, 0, 84, 0
2, 28478, Note_on_c, 0, 66, 65
2, 28478, Note_on_c, 0, 72, 72
2, 28480, Note_on_c, 0, 63, 52
2, 28483, Note_on_c, 0, 80, 92
2, 28490, Note_on_c, 0, 72, 0
2, 28496, Note_on_c, 0, 66, 0
2, 28502, Note_on_c, 0, 78, 87
2, 28503, Note_on_c, 0, 80, 0
2, 28511, Note_on_c, 0, 63, 0
2, 28522, Note_on_c, 0, 75, 74
2, 28524, Note_on_c, 0, 78, 0
2, 28534, Note_on_c, 0, 75, 0
2, 28537, Note_on_c, 0, 72, 88
2, 28548, Note_on_c, 0, 72, 0
2, 28561, Note_on_c, 0, 68, 70
2, 28577, Note_on_c, 0, 68, 0
2, 28592, Control_c, 0, 64, 56
2, 28595, Control_c, 0, 64, 0
2, 28603, Note_on_c, 0, 61, 63
2, 28605, Note_on_c, 0, 68, 77
2, 28605, Note_on_c, 0, 73, 90
2, 28607, Note_on_c, 0, 41, 82
2, 28607, Note_on_c, 0, 53, 82
2, 28608, Note_on_c, 0, 61, 0
2, 28612, Note_on_c, 0, 41, 0
2, 28613, Note_on_c, 0, 53, 0
2, 28613, Control_c, 0, 64, 40
2, 28616, Note_on_c, 0, 68, 0
2, 28616, Control_c, 0, 64, 127
2, 28617, Note_on_c, 0, 73, 0
2, 28646, Note_on_c, 0, 73, 96
2, 28655, Note_on_c, 0, 56, 68
2, 28660, Note_on_c, 0, 44, 65
2, 28662, Note_on_c, 0, 73, 0
2, 28665, Note_on_c, 0, 44, 0
2, 28665, Note_on_c, 0, 56, 0
2, 28667, Note_on_c, 0, 85, 83
2, 28683, Note_on_c, 0, 73, 80
2, 28683, Note_on_c, 0, 61, 71
2, 28683, Note_on_c, 0, 49, 70
2, 28690, Note_on_c, 0, 85, 0
2, 28696, Note_on_c, 0, 73, 0
2, 28703, Note_on_c, 0, 61, 0
2, 28703, Note_on_c, 0, 49, 0
2, 28722, Control_c, 0, 64, 104
2, 28725, Note_on_c, 0, 86, 102
2, 28725, Control_c, 0, 64, 24
2, 28727, Note_on_c, 0, 80, 81
2, 28727, Note_on_c, 0, 74, 89
2, 28728, Control_c, 0, 64, 0
2, 28733, Note_on_c, 0, 65, 64
2, 28738, Note_on_c, 0, 74, 0
2, 28738, Note_on_c, 0, 53, 67
2, 28740, Control_c, 0, 64, 40
2, 28743, Note_on_c, 0, 65, 0
2, 28743, Control_c, 0, 64, 104
2, 28744, Note_on_c, 0, 53, 0
2, 28746, Control_c, 0, 64, 127
2, 28747, Note_on_c, 0, 86, 0
2, 28758, Note_on_c, 0, 80, 0
2, 28771, Note_on_c, 0, 85, 102
2, 28772, Note_on_c, 0, 68, 63
2, 28773, Note_on_c, 0, 56, 65
2, 28779, Note_on_c, 0, 56, 0
2, 28780, Note_on_c, 0, 68, 0
2, 28791, Note_on_c, 0, 80, 85
2, 28798, Note_on_c, 0, 85, 0
2, 28807, Note_on_c, 0, 80, 0
2, 28810, Note_on_c, 0, 73, 79
2, 28812, Note_on_c, 0, 53, 64
2, 28812, Note_on_c, 0, 65, 64
2, 28819, Note_on_c, 0, 53, 0
2, 28823, Note_on_c, 0, 65, 0
2, 28831, Note_on_c, 0, 73, 0
2, 28841, Control_c, 0, 64, 104
2, 28843, Control_c, 0, 64, 40
2, 28846, Control_c, 0, 64, 0
2, 28851, Note_on_c, 0, 83, 99
2, 28852, Note_on_c, 0, 78, 81
2, 28853, Note_on_c, 0, 73, 75
2, 28855, Note_on_c, 0, 54, 81
2, 28855, Note_on_c, 0, 66, 77
2, 28861, Control_c, 0, 64, 56
2, 28865, Note_on_c, 0, 66, 0
2, 28865, Note_on_c, 0, 54, 0
2, 28865, Control_c, 0, 64, 127
2, 28879, Note_on_c, 0, 83, 0
2, 28881, Note_on_c, 0, 73, 0
2, 28882, Note_on_c, 0, 78, 0
2, 28896, Note_on_c, 0, 81, 93
2, 28898, Note_on_c, 0, 69, 79
2, 28901, Note_on_c, 0, 57, 76
2, 28904, Note_on_c, 0, 57, 0
2, 28908, Note_on_c, 0, 69, 0
2, 28916, Note_on_c, 0, 78, 83
2, 28926, Note_on_c, 0, 81, 0
2, 28932, Note_on_c, 0, 66, 70
2, 28933, Note_on_c, 0, 54, 74
2, 28934, Note_on_c, 0, 78, 0
2, 28935, Note_on_c, 0, 73, 74
2, 28940, Note_on_c, 0, 66, 0
2, 28941, Note_on_c, 0, 54, 0
2, 28945, Note_on_c, 0, 73, 0
2, 28971, Control_c, 0, 64, 104
2, 28973, Control_c, 0, 64, 24
2, 28976, Control_c, 0, 64, 0
2, 28980, Note_on_c, 0, 80, 95
2, 28982, Note_on_c, 0, 59, 79
2, 28982, Note_on_c, 0, 69, 77
2, 28982, Note_on_c, 0, 75, 74
2, 28982, Note_on_c, 0, 47, 75
2, 28991, Control_c, 0, 64, 24
2, 28993, Note_on_c, 0, 47, 0
2, 28995, Note_on_c, 0, 59, 0
2, 28995, Control_c, 0, 64, 88
2, 28997, Control_c, 0, 64, 127
2, 29000, Note_on_c, 0, 69, 0
2, 29009, Note_on_c, 0, 75, 0
2, 29010, Note_on_c, 0, 80, 0
2, 29025, Note_on_c, 0, 78, 86
2, 29026, Note_on_c, 0, 63, 77
2, 29027, Note_on_c, 0, 51, 80
2, 29032, Note_on_c, 0, 51, 0
2, 29037, Note_on_c, 0, 63, 0
2, 29043, Note_on_c, 0, 75, 75
2, 29051, Note_on_c, 0, 75, 0
2, 29051, Note_on_c, 0, 78, 0
2, 29058, Note_on_c, 0, 69, 73
2, 29068, Note_on_c, 0, 59, 73
2, 29071, Note_on_c, 0, 47, 76
2, 29075, Note_on_c, 0, 59, 0
2, 29076, Note_on_c, 0, 47, 0
2, 29076, Note_on_c, 0, 69, 0
2, 29077, Control_c, 0, 64, 104
2, 29080, Control_c, 0, 64, 72
2, 29082, Control_c, 0, 64, 24
2, 29085, Control_c, 0, 64, 0
2, 29106, Note_on_c, 0, 73, 72
2, 29111, Note_on_c, 0, 71, 80
2, 29116, Note_on_c, 0, 73, 0
2, 29119, Note_on_c, 0, 71, 0
2, 29146, Note_on_c, 0, 71, 85
2, 29147, Note_on_c, 0, 52, 79
2, 29150, Note_on_c, 0, 52, 0
2, 29154, Note_on_c, 0, 71, 0
2, 29156, Note_on_c, 0, 68, 78
2, 29177, Note_on_c, 0, 68, 0
2, 29185, Note_on_c, 0, 73, 83
2, 29187, Note_on_c, 0, 59, 68
2, 29196, Note_on_c, 0, 71, 72
2, 29198, Note_on_c, 0, 73, 0
2, 29204, Note_on_c, 0, 71, 0
2, 29227, Note_on_c, 0, 76, 85
2, 29231, Note_on_c, 0, 68, 53
2, 29235, Note_on_c, 0, 64, 52
2, 29236, Note_on_c, 0, 62, 54
2, 29237, Note_on_c, 0, 74, 83
2, 29238, Note_on_c, 0, 76, 0
2, 29248, Note_on_c, 0, 74, 0
2, 29263, Note_on_c, 0, 59, 0
2, 29268, Note_on_c, 0, 74, 74
2, 29275, Note_on_c, 0, 74, 0
2, 29278, Note_on_c, 0, 71, 79
2, 29294, Note_on_c, 0, 71, 0
2, 29310, Note_on_c, 0, 76, 85
2, 29317, Note_on_c, 0, 59, 62
2, 29322, Note_on_c, 0, 76, 0
2, 29322, Note_on_c, 0, 74, 84
2, 29328, Note_on_c, 0, 62, 0
2, 29329, Note_on_c, 0, 74, 0
2, 29332, Note_on_c, 0, 64, 0
2, 29332, Note_on_c, 0, 59, 0
2, 29336, Note_on_c, 0, 68, 0
2, 29353, Note_on_c, 0, 78, 82
2, 29365, Note_on_c, 0, 78, 0
2, 29365, Note_on_c, 0, 76, 73
2, 29370, Note_on_c, 0, 76, 0
2, 29395, Note_on_c, 0, 76, 88
2, 29396, Note_on_c, 0, 52, 72
2, 29401, Note_on_c, 0, 52, 0
2, 29403, Note_on_c, 0, 76, 0
2, 29407, Note_on_c, 0, 73, 74
2, 29425, Note_on_c, 0, 73, 0
2, 29433, Note_on_c, 0, 78, 85
2, 29436, Note_on_c, 0, 61, 60
2, 29446, Note_on_c, 0, 78, 0
2, 29446, Note_on_c, 0, 76, 83
2, 29456, Note_on_c, 0, 76, 0
2, 29478, Note_on_c, 0, 83, 90
2, 29481, Note_on_c, 0, 64, 69
2, 29482, Note_on_c, 0, 69, 63
2, 29486, Note_on_c, 0, 81, 86
2, 29489, Note_on_c, 0, 83, 0
2, 29489, Note_on_c, 0, 61, 0
2, 29498, Note_on_c, 0, 81, 0
2, 29521, Note_on_c, 0, 81, 76
2, 29527, Note_on_c, 0, 81, 0
2, 29531, Note_on_c, 0, 76, 83
2, 29554, Note_on_c, 0, 76, 0
2, 29560, Note_on_c, 0, 83, 93
2, 29562, Note_on_c, 0, 61, 66
2, 29567, Note_on_c, 0, 69, 0
2, 29569, Note_on_c, 0, 64, 0
2, 29570, Note_on_c, 0, 81, 87
2, 29571, Note_on_c, 0, 83, 0
2, 29573, Note_on_c, 0, 61, 0
2, 29581, Note_on_c, 0, 81, 0
2, 29607, Note_on_c, 0, 73, 80
2, 29608, Note_on_c, 0, 80, 85
2, 29610, Note_on_c, 0, 85, 91
2, 29611, Note_on_c, 0, 41, 72
2, 29613, Note_on_c, 0, 73, 0
2, 29613, Note_on_c, 0, 53, 71
2, 29613, Control_c, 0, 64, 40
2, 29615, Note_on_c, 0, 80, 0
2, 29616, Control_c, 0, 64, 88
2, 29618, Control_c, 0, 64, 127
2, 29621, Note_on_c, 0, 85, 0
2, 29627, Note_on_c, 0, 41, 0
2, 29629, Note_on_c, 0, 53, 0
2, 29651, Note_on_c, 0, 85, 103
2, 29651, Note_on_c, 0, 56, 72
2, 29651, Note_on_c, 0, 44, 73
2, 29662, Note_on_c, 0, 44, 0
2, 29662, Note_on_c, 0, 56, 0
2, 29667, Note_on_c, 0, 85, 0
2, 29670, Note_on_c, 0, 97, 93
2, 29686, Note_on_c, 0, 85, 73
2, 29688, Note_on_c, 0, 97, 0
2, 29691, Note_on_c, 0, 61, 74
2, 29691, Note_on_c, 0, 49, 74
2, 29693, Note_on_c, 0, 85, 0
2, 29704, Note_on_c, 0, 61, 0
2, 29706, Note_on_c, 0, 49, 0
2, 29721, Control_c, 0, 64, 88
2, 29723, Control_c, 0, 64, 40
2, 29726, Control_c, 0, 64, 0
2, 29731, Note_on_c, 0, 74, 92
2, 29731, Note_on_c, 0, 86, 102
2, 29731, Note_on_c, 0, 80, 87
2, 29735, Note_on_c, 0, 65, 79
2, 29735, Note_on_c, 0, 53, 77
2, 29738, Note_on_c, 0, 74, 0
2, 29740, Note_on_c, 0, 53, 0
2, 29740, Control_c, 0, 64, 40
2, 29741, Note_on_c, 0, 80, 0
2, 29742, Control_c, 0, 64, 104
2, 29743, Note_on_c, 0, 86, 0
2, 29745, Control_c, 0, 64, 127
2, 29746, Note_on_c, 0, 65, 0
2, 29770, Note_on_c, 0, 85, 105
2, 29770, Note_on_c, 0, 68, 72
2, 29770, Note_on_c, 0, 56, 75
2, 29780, Note_on_c, 0, 68, 0
2, 29781, Note_on_c, 0, 56, 0
2, 29785, Note_on_c, 0, 85, 0
2, 29788, Note_on_c, 0, 97, 93
2, 29806, Note_on_c, 0, 97, 0
2, 29806, Note_on_c, 0, 85, 83
2, 29813, Note_on_c, 0, 85, 0
2, 29815, Note_on_c, 0, 65, 78
2, 29815, Note_on_c, 0, 53, 78
2, 29821, Note_on_c, 0, 53, 0
2, 29825, Note_on_c, 0, 65, 0
2, 29831, Control_c, 0, 64, 104
2, 29833, Control_c, 0, 64, 72
2, 29836, Control_c, 0, 64, 24
2, 29838, Control_c, 0, 64, 0
2, 29848, Note_on_c, 0, 73, 87
2, 29850, Note_on_c, 0, 83, 92
2, 29850, Note_on_c, 0, 78, 74
2, 29852, Note_on_c, 0, 66, 83
2, 29853, Note_on_c, 0, 54, 77
2, 29855, Control_c, 0, 64, 56
2, 29856, Note_on_c, 0, 73, 0
2, 29857, Control_c, 0, 64, 127
2, 29858, Note_on_c, 0, 78, 0
2, 29859, Note_on_c, 0, 54, 0
2, 29860, Note_on_c, 0, 66, 0
2, 29862, Note_on_c, 0, 83, 0
2, 29891, Note_on_c, 0, 81, 94
2, 29896, Note_on_c, 0, 69, 78
2, 29897, Note_on_c, 0, 57, 74
2, 29902, Note_on_c, 0, 57, 0
2, 29906, Note_on_c, 0, 69, 0
2, 29909, Note_on_c, 0, 81, 0
2, 29911, Note_on_c, 0, 93, 89
2, 29930, Note_on_c, 0, 81, 84
2, 29930, Note_on_c, 0, 66, 70
2, 29930, Note_on_c, 0, 54, 72
2, 29931, Note_on_c, 0, 93, 0
2, 29938, Note_on_c, 0, 81, 0
2, 29941, Note_on_c, 0, 66, 0
2, 29941, Note_on_c, 0, 54, 0
2, 29962, Control_c, 0, 64, 72
2, 29965, Control_c, 0, 64, 0
2, 29972, Note_on_c, 0, 80, 95
2, 29972, Note_on_c, 0, 75, 81
2, 29972, Note_on_c, 0, 69, 85
2, 29973, Note_on_c, 0, 47, 79
2, 29975, Note_on_c, 0, 59, 74
2, 29977, Note_on_c, 0, 69, 0
2, 29981, Note_on_c, 0, 47, 0
2, 29981, Control_c, 0, 64, 56
2, 29983, Note_on_c, 0, 75, 0
2, 29983, Control_c, 0, 64, 127
2, 29985, Note_on_c, 0, 80, 0
2, 29986, Note_on_c, 0, 59, 0
2, 30013, Note_on_c, 0, 78, 87
2, 30015, Note_on_c, 0, 63, 71
2, 30016, Note_on_c, 0, 51, 74
2, 30019, Note_on_c, 0, 51, 0
2, 30023, Note_on_c, 0, 63, 0
2, 30026, Note_on_c, 0, 78, 0
2, 30032, Note_on_c, 0, 90, 92
2, 30048, Note_on_c, 0, 78, 75
2, 30048, Note_on_c, 0, 59, 74
2, 30048, Note_on_c, 0, 47, 75
2, 30050, Note_on_c, 0, 90, 0
2, 30055, Note_on_c, 0, 78, 0
2, 30056, Note_on_c, 0, 59, 0
2, 30056, Note_on_c, 0, 47, 0
2, 30068, Control_c, 0, 64, 88
2, 30070, Control_c, 0, 64, 56
2, 30072, Control_c, 0, 64, 24
2, 30075, Control_c, 0, 64, 0
2, 30086, Note_on_c, 0, 73, 74
2, 30095, Note_on_c, 0, 71, 83
2, 30099, Note_on_c, 0, 73, 0
2, 30106, Note_on_c, 0, 71, 0
2, 30127, Note_on_c, 0, 52, 76
2, 30127, Note_on_c, 0, 71, 79
2, 30137, Note_on_c, 0, 52, 0
2, 30138, Note_on_c, 0, 71, 0
2, 30138, Note_on_c, 0, 68, 74
2, 30155, Note_on_c, 0, 68, 0
2, 30166, Note_on_c, 0, 73, 77
2, 30167, Note_on_c, 0, 59, 83
2, 30177, Note_on_c, 0, 71, 73
2, 30179, Note_on_c, 0, 73, 0
2, 30187, Note_on_c, 0, 71, 0
2, 30210, Note_on_c, 0, 76, 79
2, 30212, Note_on_c, 0, 68, 63
2, 30215, Note_on_c, 0, 64, 68
2, 30216, Note_on_c, 0, 62, 63
2, 30216, Note_on_c, 0, 74, 76
2, 30220, Note_on_c, 0, 76, 0
2, 30226, Note_on_c, 0, 74, 0
2, 30229, Note_on_c, 0, 59, 0
2, 30251, Note_on_c, 0, 74, 74
2, 30256, Note_on_c, 0, 74, 0
2, 30258, Note_on_c, 0, 71, 78
2, 30269, Note_on_c, 0, 71, 0
2, 30291, Note_on_c, 0, 76, 88
2, 30296, Note_on_c, 0, 59, 60
2, 30301, Note_on_c, 0, 76, 0
2, 30301, Note_on_c, 0, 74, 89
2, 30309, Note_on_c, 0, 74, 0
2, 30318, Note_on_c, 0, 59, 0
2, 30318, Note_on_c, 0, 64, 0
2, 30319, Note_on_c, 0, 62, 0
2, 30323, Note_on_c, 0, 68, 0
2, 30332, Note_on_c, 0, 78, 81
2, 30341, Note_on_c, 0, 76, 84
2, 30345, Note_on_c, 0, 78, 0
2, 30351, Note_on_c, 0, 76, 0
2, 30375, Note_on_c, 0, 76, 80
2, 30376, Note_on_c, 0, 52, 73
2, 30383, Note_on_c, 0, 76, 0
2, 30385, Note_on_c, 0, 73, 80
2, 30387, Note_on_c, 0, 52, 0
2, 30402, Note_on_c, 0, 73, 0
2, 30415, Note_on_c, 0, 78, 91
2, 30417, Note_on_c, 0, 61, 80
2, 30425, Note_on_c, 0, 76, 81
2, 30427, Note_on_c, 0, 78, 0
2, 30435, Note_on_c, 0, 76, 0
2, 30458, Note_on_c, 0, 83, 89
2, 30461, Note_on_c, 0, 64, 70
2, 30462, Note_on_c, 0, 69, 67
2, 30465, Note_on_c, 0, 81, 84
2, 30468, Note_on_c, 0, 83, 0
2, 30472, Note_on_c, 0, 61, 0
2, 30477, Note_on_c, 0, 81, 0
2, 30500, Note_on_c, 0, 81, 84
2, 30508, Note_on_c, 0, 81, 0
2, 30511, Note_on_c, 0, 76, 80
2, 30528, Note_on_c, 0, 76, 0
2, 30542, Note_on_c, 0, 83, 83
2, 30545, Note_on_c, 0, 61, 63
2, 30551, Note_on_c, 0, 81, 85
2, 30552, Note_on_c, 0, 83, 0
2, 30553, Note_on_c, 0, 69, 0
2, 30554, Note_on_c, 0, 64, 0
2, 30561, Note_on_c, 0, 81, 0
2, 30561, Note_on_c, 0, 61, 0
2, 30583, Note_on_c, 0, 85, 84
2, 30592, Note_on_c, 0, 83, 73
2, 30596, Note_on_c, 0, 85, 0
2, 30603, Note_on_c, 0, 83, 0
2, 30622, Note_on_c, 0, 83, 91
2, 30623, Note_on_c, 0, 52, 72
2, 30628, Note_on_c, 0, 52, 0
2, 30630, Note_on_c, 0, 83, 0
2, 30633, Note_on_c, 0, 80, 81
2, 30635, Control_c, 0, 64, 24
2, 30646, Control_c, 0, 64, 0
2, 30648, Note_on_c, 0, 80, 0
2, 30660, Note_on_c, 0, 85, 86
2, 30663, Note_on_c, 0, 62, 77
2, 30663, Note_on_c, 0, 59, 71
2, 30665, Control_c, 0, 64, 40
2, 30667, Control_c, 0, 64, 72
2, 30668, Note_on_c, 0, 59, 0
2, 30668, Note_on_c, 0, 62, 0
2, 30668, Control_c, 0, 64, 104
2, 30671, Control_c, 0, 64, 127
2, 30672, Note_on_c, 0, 85, 0
2, 30672, Note_on_c, 0, 83, 78
2, 30680, Note_on_c, 0, 83, 0
2, 30700, Control_c, 0, 64, 104
2, 30702, Control_c, 0, 64, 56
2, 30703, Note_on_c, 0, 88, 92
2, 30705, Control_c, 0, 64, 24
2, 30706, Note_on_c, 0, 68, 59
2, 30706, Note_on_c, 0, 62, 69
2, 30706, Note_on_c, 0, 71, 65
2, 30706, Control_c, 0, 64, 0
2, 30712, Note_on_c, 0, 86, 78
2, 30714, Note_on_c, 0, 88, 0
2, 30716, Control_c, 0, 64, 24
2, 30718, Control_c, 0, 64, 72
2, 30721, Control_c, 0, 64, 104
2, 30722, Control_c, 0, 64, 127
2, 30724, Note_on_c, 0, 86, 0
2, 30746, Note_on_c, 0, 86, 85
2, 30756, Note_on_c, 0, 86, 0
2, 30758, Note_on_c, 0, 83, 77
2, 30775, Note_on_c, 0, 83, 0
2, 30786, Note_on_c, 0, 88, 88
2, 30788, Note_on_c, 0, 64, 73
2, 30793, Note_on_c, 0, 62, 0
2, 30798, Note_on_c, 0, 88, 0
2, 30798, Note_on_c, 0, 71, 0
2, 30798, Note_on_c, 0, 86, 80
2, 30801, Note_on_c, 0, 68, 0
2, 30804, Note_on_c, 0, 64, 0
2, 30806, Note_on_c, 0, 86, 0
2, 30830, Note_on_c, 0, 90, 80
2, 30832, Control_c, 0, 64, 104
2, 30835, Control_c, 0, 64, 72
2, 30837, Control_c, 0, 64, 24
2, 30838, Note_on_c, 0, 88, 80
2, 30840, Control_c, 0, 64, 0
2, 30843, Note_on_c, 0, 90, 0
2, 30848, Note_on_c, 0, 88, 0
2, 30866, Note_on_c, 0, 88, 91
2, 30867, Note_on_c, 0, 52, 72
2, 30870, Control_c, 0, 64, 56
2, 30872, Note_on_c, 0, 52, 0
2, 30872, Control_c, 0, 64, 127
2, 30876, Note_on_c, 0, 88, 0
2, 30880, Note_on_c, 0, 85, 75
2, 30897, Note_on_c, 0, 85, 0
2, 30905, Note_on_c, 0, 90, 79
2, 30906, Note_on_c, 0, 61, 66
2, 30907, Note_on_c, 0, 64, 74
2, 30912, Note_on_c, 0, 64, 0
2, 30914, Note_on_c, 0, 61, 0
2, 30917, Note_on_c, 0, 90, 0
2, 30917, Note_on_c, 0, 88, 80
2, 30927, Note_on_c, 0, 88, 0
2, 30948, Note_on_c, 0, 95, 100
2, 30950, Note_on_c, 0, 69, 79
2, 30951, Note_on_c, 0, 61, 61
2, 30953, Note_on_c, 0, 73, 63
2, 30956, Note_on_c, 0, 95, 0
2, 30957, Note_on_c, 0, 93, 91
2, 30968, Note_on_c, 0, 93, 0
2, 30990, Note_on_c, 0, 93, 91
2, 30998, Note_on_c, 0, 93, 0
2, 31002, Note_on_c, 0, 88, 74
2, 31017, Note_on_c, 0, 88, 0
2, 31031, Note_on_c, 0, 61, 0
2, 31033, Note_on_c, 0, 95, 92
2, 31033, Note_on_c, 0, 64, 70
2, 31040, Note_on_c, 0, 93, 90
2, 31041, Note_on_c, 0, 95, 0
2, 31050, Note_on_c, 0, 93, 0
2, 31066, Note_on_c, 0, 64, 0
2, 31071, Note_on_c, 0, 69, 0
2, 31073, Note_on_c, 0, 73, 0
2, 31082, Note_on_c, 0, 97, 78
2, 31083, Note_on_c, 0, 64, 72
2, 31090, Control_c, 0, 64, 40
2, 31092, Control_c, 0, 64, 72
2, 31095, Control_c, 0, 64, 104
2, 31098, Control_c, 0, 64, 127
2, 31102, Note_on_c, 0, 97, 0
2, 31103, Note_on_c, 0, 95, 81
2, 31121, Note_on_c, 0, 95, 0
2, 31123, Note_on_c, 0, 94, 73
2, 31128, Note_on_c, 0, 74, 43
2, 31128, Note_on_c, 0, 71, 51
2, 31128, Note_on_c, 0, 68, 40
2, 31132, Control_c, 0, 64, 104
2, 31136, Note_on_c, 0, 74, 0
2, 31136, Note_on_c, 0, 94, 0
2, 31140, Note_on_c, 0, 95, 88
2, 31141, Note_on_c, 0, 71, 0
2, 31143, Note_on_c, 0, 68, 0
2, 31161, Note_on_c, 0, 95, 0
2, 31162, Note_on_c, 0, 96, 91
2, 31165, Note_on_c, 0, 74, 55
2, 31166, Note_on_c, 0, 68, 40
2, 31167, Note_on_c, 0, 71, 41
2, 31167, Control_c, 0, 64, 88
2, 31171, Note_on_c, 0, 64, 0
2, 31183, Note_on_c, 0, 96, 0
2, 31185, Note_on_c, 0, 71, 0
2, 31185, Note_on_c, 0, 97, 85
2, 31190, Note_on_c, 0, 74, 0
2, 31190, Control_c, 0, 64, 72
2, 31193, Control_c, 0, 64, 40
2, 31196, Control_c, 0, 64, 0
2, 31201, Note_on_c, 0, 97, 0
2, 31205, Note_on_c, 0, 63, 70
2, 31206, Note_on_c, 0, 98, 90
2, 31208, Note_on_c, 0, 68, 0
2, 31215, Control_c, 0, 64, 40
2, 31218, Control_c, 0, 64, 88
2, 31221, Control_c, 0, 64, 127
2, 31223, Note_on_c, 0, 98, 0
2, 31226, Note_on_c, 0, 99, 90
2, 31239, Note_on_c, 0, 99, 0
2, 31246, Note_on_c, 0, 100, 93
2, 31251, Note_on_c, 0, 75, 61
2, 31251, Note_on_c, 0, 71, 59
2, 31251, Note_on_c, 0, 68, 54
2, 31263, Note_on_c, 0, 75, 0
2, 31263, Note_on_c, 0, 100, 0
2, 31268, Note_on_c, 0, 101, 93
2, 31269, Note_on_c, 0, 71, 0
2, 31271, Note_on_c, 0, 68, 0
2, 31280, Note_on_c, 0, 101, 0
2, 31287, Note_on_c, 0, 102, 95
2, 31290, Note_on_c, 0, 75, 56
2, 31293, Note_on_c, 0, 68, 40
2, 31293, Note_on_c, 0, 71, 42
2, 31297, Note_on_c, 0, 63, 0
2, 31302, Note_on_c, 0, 102, 0
2, 31308, Note_on_c, 0, 75, 0
2, 31308, Note_on_c, 0, 103, 96
2, 31321, Control_c, 0, 64, 104
2, 31323, Control_c, 0, 64, 56
2, 31324, Note_on_c, 0, 103, 0
2, 31324, Note_on_c, 0, 71, 0
2, 31327, Control_c, 0, 64, 0
2, 31328, Note_on_c, 0, 104, 99
2, 31331, Note_on_c, 0, 68, 0
2, 31332, Note_on_c, 0, 62, 75
2, 31340, Control_c, 0, 64, 24
2, 31341, Note_on_c, 0, 104, 0
2, 31343, Control_c, 0, 64, 88
2, 31346, Control_c, 0, 64, 127
2, 31350, Note_on_c, 0, 103, 97
2, 31354, Note_on_c, 0, 62, 0
2, 31366, Note_on_c, 0, 103, 0
2, 31370, Note_on_c, 0, 102, 94
2, 31375, Note_on_c, 0, 68, 47
2, 31376, Note_on_c, 0, 71, 54
2, 31377, Note_on_c, 0, 76, 45
2, 31385, Note_on_c, 0, 76, 0
2, 31388, Note_on_c, 0, 102, 0
2, 31392, Note_on_c, 0, 71, 0
2, 31392, Note_on_c, 0, 68, 0
2, 31392, Note_on_c, 0, 101, 93
2, 31409, Note_on_c, 0, 101, 0
2, 31412, Note_on_c, 0, 100, 92
2, 31416, Note_on_c, 0, 71, 46
2, 31417, Note_on_c, 0, 68, 44
2, 31417, Note_on_c, 0, 76, 38
2, 31428, Note_on_c, 0, 76, 0
2, 31431, Note_on_c, 0, 99, 91
2, 31432, Note_on_c, 0, 100, 0
2, 31444, Note_on_c, 0, 71, 0
2, 31446, Control_c, 0, 64, 104
2, 31449, Note_on_c, 0, 99, 0
2, 31450, Control_c, 0, 64, 56
2, 31452, Note_on_c, 0, 98, 90
2, 31452, Note_on_c, 0, 61, 75
2, 31452, Control_c, 0, 64, 0
2, 31454, Note_on_c, 0, 68, 0
2, 31466, Control_c, 0, 64, 56
2, 31468, Note_on_c, 0, 61, 0
2, 31468, Control_c, 0, 64, 127
2, 31469, Note_on_c, 0, 98, 0
2, 31472, Note_on_c, 0, 97, 83
2, 31489, Note_on_c, 0, 97, 0
2, 31493, Note_on_c, 0, 96, 90
2, 31495, Note_on_c, 0, 68, 46
2, 31496, Note_on_c, 0, 71, 50
2, 31497, Note_on_c, 0, 77, 45
2, 31508, Note_on_c, 0, 77, 0
2, 31510, Note_on_c, 0, 96, 0
2, 31512, Note_on_c, 0, 71, 0
2, 31512, Note_on_c, 0, 68, 0
2, 31512, Note_on_c, 0, 95, 92
2, 31531, Note_on_c, 0, 77, 62
2, 31531, Note_on_c, 0, 68, 49
2, 31533, Note_on_c, 0, 95, 0
2, 31533, Note_on_c, 0, 94, 83
2, 31536, Note_on_c, 0, 77, 0
2, 31542, Note_on_c, 0, 68, 0
2, 31551, Note_on_c, 0, 94, 0
2, 31556, Note_on_c, 0, 95, 92
2, 31572, Control_c, 0, 64, 104
2, 31575, Note_on_c, 0, 55, 89
2, 31575, Control_c, 0, 64, 56
2, 31577, Control_c, 0, 64, 0
2, 31578, Note_on_c, 0, 95, 0
2, 31580, Note_on_c, 0, 97, 85
2, 31597, Control_c, 0, 64, 24
2, 31598, Note_on_c, 0, 97, 0
2, 31600, Note_on_c, 0, 95, 88
2, 31600, Control_c, 0, 64, 88
2, 31602, Control_c, 0, 64, 127
2, 31616, Note_on_c, 0, 95, 0
2, 31621, Note_on_c, 0, 94, 85
2, 31621, Note_on_c, 0, 62, 62
2, 31622, Note_on_c, 0, 65, 57
2, 31627, Note_on_c, 0, 59, 44
2, 31630, Note_on_c, 0, 65, 0
2, 31635, Note_on_c, 0, 59, 0
2, 31636, Note_on_c, 0, 62, 0
2, 31636, Note_on_c, 0, 94, 0
2, 31641, Note_on_c, 0, 95, 87
2, 31659, Note_on_c, 0, 95, 0
2, 31663, Note_on_c, 0, 65, 52
2, 31663, Note_on_c, 0, 96, 92
2, 31663, Note_on_c, 0, 59, 49
2, 31665, Note_on_c, 0, 55, 0
2, 31671, Note_on_c, 0, 62, 32
2, 31681, Note_on_c, 0, 65, 0
2, 31681, Note_on_c, 0, 96, 0
2, 31685, Note_on_c, 0, 97, 93
2, 31698, Note_on_c, 0, 62, 0
2, 31701, Note_on_c, 0, 97, 0
2, 31702, Note_on_c, 0, 54, 90
2, 31702, Control_c, 0, 64, 104
2, 31705, Note_on_c, 0, 98, 94
2, 31706, Control_c, 0, 64, 72
2, 31708, Control_c, 0, 64, 24
2, 31710, Note_on_c, 0, 59, 0
2, 31711, Control_c, 0, 64, 0
2, 31723, Note_on_c, 0, 98, 0
2, 31726, Note_on_c, 0, 99, 94
2, 31727, Control_c, 0, 64, 24
2, 31730, Control_c, 0, 64, 88
2, 31733, Control_c, 0, 64, 127
2, 31739, Note_on_c, 0, 99, 0
2, 31745, Note_on_c, 0, 100, 95
2, 31751, Note_on_c, 0, 66, 44
2, 31751, Note_on_c, 0, 62, 52
2, 31752, Note_on_c, 0, 59, 49
2, 31760, Note_on_c, 0, 100, 0
2, 31762, Note_on_c, 0, 59, 0
2, 31763, Note_on_c, 0, 66, 0
2, 31768, Note_on_c, 0, 62, 0
2, 31768, Note_on_c, 0, 101, 95
2, 31778, Note_on_c, 0, 54, 0
2, 31781, Note_on_c, 0, 101, 0
2, 31788, Note_on_c, 0, 102, 96
2, 31790, Note_on_c, 0, 66, 50
2, 31792, Note_on_c, 0, 59, 50
2, 31796, Note_on_c, 0, 62, 37
2, 31801, Note_on_c, 0, 102, 0
2, 31810, Note_on_c, 0, 103, 97
2, 31811, Note_on_c, 0, 66, 0
2, 31824, Note_on_c, 0, 62, 0
2, 31826, Note_on_c, 0, 103, 0
2, 31828, Control_c, 0, 64, 88
2, 31830, Note_on_c, 0, 59, 0
2, 31830, Note_on_c, 0, 53, 89
2, 31831, Note_on_c, 0, 104, 98
2, 31831, Control_c, 0, 64, 24
2, 31833, Control_c, 0, 64, 0
2, 31845, Control_c, 0, 64, 40
2, 31846, Note_on_c, 0, 104, 0
2, 31847, Control_c, 0, 64, 104
2, 31850, Control_c, 0, 64, 127
2, 31851, Note_on_c, 0, 53, 0
2, 31852, Note_on_c, 0, 103, 95
2, 31869, Note_on_c, 0, 103, 0
2, 31872, Note_on_c, 0, 102, 94
2, 31876, Note_on_c, 0, 68, 63
2, 31876, Note_on_c, 0, 62, 72
2, 31880, Note_on_c, 0, 59, 52
2, 31887, Note_on_c, 0, 59, 0
2, 31888, Note_on_c, 0, 68, 0
2, 31891, Note_on_c, 0, 62, 0
2, 31892, Note_on_c, 0, 102, 0
2, 31895, Note_on_c, 0, 101, 93
2, 31905, Note_on_c, 0, 68, 73
2, 31908, Note_on_c, 0, 62, 45
2, 31910, Note_on_c, 0, 59, 65
2, 31913, Note_on_c, 0, 62, 0
2, 31913, Note_on_c, 0, 101, 0
2, 31915, Note_on_c, 0, 59, 0
2, 31916, Note_on_c, 0, 100, 92
2, 31920, Note_on_c, 0, 68, 0
2, 31935, Note_on_c, 0, 99, 91
2, 31939, Note_on_c, 0, 100, 0
2, 31950, Control_c, 0, 64, 72
2, 31953, Note_on_c, 0, 99, 0
2, 31953, Note_on_c, 0, 52, 93
2, 31953, Control_c, 0, 64, 0
2, 31956, Note_on_c, 0, 98, 92
2, 31966, Note_on_c, 0, 52, 0
2, 31967, Control_c, 0, 64, 72
2, 31970, Control_c, 0, 64, 127
2, 31973, Note_on_c, 0, 98, 0
2, 31975, Note_on_c, 0, 97, 90
2, 31997, Note_on_c, 0, 96, 89
2, 32000, Note_on_c, 0, 68, 68
2, 32000, Note_on_c, 0, 62, 69
2, 32002, Note_on_c, 0, 97, 0
2, 32002, Note_on_c, 0, 59, 57
2, 32014, Note_on_c, 0, 96, 0
2, 32015, Note_on_c, 0, 68, 0
2, 32016, Note_on_c, 0, 95, 91
2, 32017, Note_on_c, 0, 59, 0
2, 32021, Note_on_c, 0, 62, 0
2, 32034, Note_on_c, 0, 95, 0
2, 32036, Note_on_c, 0, 68, 58
2, 32038, Note_on_c, 0, 62, 41
2, 32038, Note_on_c, 0, 59, 61
2, 32038, Note_on_c, 0, 94, 88
2, 32042, Note_on_c, 0, 68, 0
2, 32043, Note_on_c, 0, 62, 0
2, 32043, Note_on_c, 0, 59, 0
2, 32051, Note_on_c, 0, 94, 0
2, 32060, Note_on_c, 0, 95, 95
2, 32072, Control_c, 0, 64, 72
2, 32076, Control_c, 0, 64, 0
2, 32077, Note_on_c, 0, 95, 0
2, 32082, Note_on_c, 0, 86, 91
2, 32082, Note_on_c, 0, 47, 84
2, 32085, Note_on_c, 0, 59, 78
2, 32090, Note_on_c, 0, 47, 0
2, 32090, Control_c, 0, 64, 40
2, 32092, Control_c, 0, 64, 127
2, 32096, Note_on_c, 0, 59, 0
2, 32100, Note_on_c, 0, 86, 0
2, 32105, Note_on_c, 0, 98, 99
2, 32117, Note_on_c, 0, 98, 0
2, 32125, Note_on_c, 0, 84, 92
2, 32130, Note_on_c, 0, 65, 73
2, 32131, Note_on_c, 0, 61, 60
2, 32133, Note_on_c, 0, 56, 48
2, 32139, Note_on_c, 0, 61, 0
2, 32140, Note_on_c, 0, 56, 0
2, 32141, Note_on_c, 0, 65, 0
2, 32141, Note_on_c, 0, 84, 0
2, 32146, Note_on_c, 0, 96, 89
2, 32158, Note_on_c, 0, 96, 0
2, 32162, Note_on_c, 0, 85, 92
2, 32163, Note_on_c, 0, 65, 72
2, 32165, Note_on_c, 0, 61, 65
2, 32165, Note_on_c, 0, 56, 64
2, 32168, Note_on_c, 0, 61, 0
2, 32168, Note_on_c, 0, 65, 0
2, 32171, Note_on_c, 0, 56, 0
2, 32177, Note_on_c, 0, 85, 0
2, 32183, Note_on_c, 0, 97, 94
2, 32192, Control_c, 0, 64, 104
2, 32195, Control_c, 0, 64, 40
2, 32198, Control_c, 0, 64, 0
2, 32206, Note_on_c, 0, 86, 94
2, 32207, Note_on_c, 0, 45, 79
2, 32207, Note_on_c, 0, 57, 81
2, 32212, Control_c, 0, 64, 40
2, 32214, Note_on_c, 0, 45, 0
2, 32214, Note_on_c, 0, 97, 0
2, 32215, Control_c, 0, 64, 127
2, 32220, Note_on_c, 0, 57, 0
2, 32224, Note_on_c, 0, 86, 0
2, 32228, Note_on_c, 0, 98, 97
2, 32239, Note_on_c, 0, 98, 0
2, 32248, Note_on_c, 0, 84, 97
2, 32253, Note_on_c, 0, 57, 69
2, 32253, Note_on_c, 0, 66, 70
2, 32255, Note_on_c, 0, 61, 63
2, 32264, Note_on_c, 0, 84, 0
2, 32266, Note_on_c, 0, 66, 0
2, 32269, Note_on_c, 0, 57, 0
2, 32270, Note_on_c, 0, 61, 0
2, 32272, Note_on_c, 0, 96, 97
2, 32287, Note_on_c, 0, 96, 0
2, 32288, Note_on_c, 0, 85, 94
2, 32290, Note_on_c, 0, 61, 45
2, 32290, Note_on_c, 0, 66, 36
2, 32291, Note_on_c, 0, 57, 44
2, 32295, Note_on_c, 0, 66, 0
2, 32295, Note_on_c, 0, 61, 0
2, 32297, Note_on_c, 0, 57, 0
2, 32306, Note_on_c, 0, 85, 0
2, 32310, Note_on_c, 0, 97, 94
2, 32323, Control_c, 0, 64, 56
2, 32326, Control_c, 0, 64, 0
2, 32330, Note_on_c, 0, 43, 85
2, 32331, Note_on_c, 0, 86, 95
2, 32332, Note_on_c, 0, 55, 92
2, 32337, Note_on_c, 0, 43, 0
2, 32337, Control_c, 0, 64, 24
2, 32340, Note_on_c, 0, 97, 0
2, 32341, Control_c, 0, 64, 88
2, 32343, Control_c, 0, 64, 127
2, 32344, Note_on_c, 0, 55, 0
2, 32352, Note_on_c, 0, 86, 0
2, 32352, Note_on_c, 0, 98, 93
2, 32365, Note_on_c, 0, 98, 0
2, 32372, Note_on_c, 0, 84, 98
2, 32376, Note_on_c, 0, 64, 78
2, 32376, Note_on_c, 0, 69, 78
2, 32376, Note_on_c, 0, 61, 68
2, 32380, Note_on_c, 0, 57, 46
2, 32387, Note_on_c, 0, 69, 0
2, 32388, Note_on_c, 0, 57, 0
2, 32389, Note_on_c, 0, 84, 0
2, 32389, Note_on_c, 0, 64, 0
2, 32392, Note_on_c, 0, 61, 0
2, 32396, Note_on_c, 0, 96, 98
2, 32413, Note_on_c, 0, 96, 0
2, 32413, Note_on_c, 0, 85, 97
2, 32415, Note_on_c, 0, 61, 75
2, 32417, Note_on_c, 0, 64, 69
2, 32417, Note_on_c, 0, 69, 66
2, 32417, Note_on_c, 0, 57, 77
2, 32422, Note_on_c, 0, 69, 0
2, 32422, Note_on_c, 0, 64, 0
2, 32423, Note_on_c, 0, 57, 0
2, 32425, Note_on_c, 0, 61, 0
2, 32429, Note_on_c, 0, 85, 0
2, 32433, Note_on_c, 0, 97, 94
2, 32448, Control_c, 0, 64, 72
2, 32451, Control_c, 0, 64, 0
2, 32453, Note_on_c, 0, 86, 92
2, 32458, Note_on_c, 0, 41, 86
2, 32461, Note_on_c, 0, 53, 85
2, 32464, Note_on_c, 0, 41, 0
2, 32464, Note_on_c, 0, 97, 0
2, 32468, Control_c, 0, 64, 88
2, 32471, Note_on_c, 0, 53, 0
2, 32471, Control_c, 0, 64, 127
2, 32475, Note_on_c, 0, 86, 0
2, 32477, Note_on_c, 0, 98, 103
2, 32490, Note_on_c, 0, 98, 0
2, 32498, Note_on_c, 0, 87, 106
2, 32502, Note_on_c, 0, 69, 83
2, 32503, Note_on_c, 0, 63, 70
2, 32503, Note_on_c, 0, 57, 73
2, 32505, Note_on_c, 0, 60, 60
2, 32515, Note_on_c, 0, 69, 0
2, 32516, Note_on_c, 0, 87, 0
2, 32518, Note_on_c, 0, 60, 0
2, 32519, Note_on_c, 0, 57, 0
2, 32520, Note_on_c, 0, 63, 0
2, 32522, Note_on_c, 0, 99, 106
2, 32540, Note_on_c, 0, 99, 0
2, 32545, Note_on_c, 0, 87, 107
2, 32545, Note_on_c, 0, 63, 81
2, 32546, Note_on_c, 0, 69, 75
2, 32547, Note_on_c, 0, 60, 74
2, 32547, Note_on_c, 0, 71, 66
2, 32548, Note_on_c, 0, 57, 44
2, 32551, Note_on_c, 0, 69, 0
2, 32552, Note_on_c, 0, 71, 0
2, 32555, Note_on_c, 0, 63, 0
2, 32556, Note_on_c, 0, 57, 0
2, 32557, Note_on_c, 0, 60, 0
2, 32565, Note_on_c, 0, 87, 0
2, 32566, Note_on_c, 0, 99, 107
2, 32592, Note_on_c, 0, 99, 0
2, 32593, Control_c, 0, 64, 56
2, 32597, Control_c, 0, 64, 0
2, 32605, Note_on_c, 0, 100, 107
2, 32605, Note_on_c, 0, 97, 94
2, 32605, Note_on_c, 0, 88, 102
2, 32605, Note_on_c, 0, 40, 84
2, 32606, Note_on_c, 0, 52, 97
2, 32606, Note_on_c, 0, 93, 95
2, 32613, Control_c, 0, 64, 72
2, 32615, Note_on_c, 0, 40, 0
2, 32616, Control_c, 0, 64, 127
2, 32618, Note_on_c, 0, 52, 0
2, 32623, Note_on_c, 0, 88, 0
2, 32623, Note_on_c, 0, 93, 0
2, 32627, Note_on_c, 0, 100, 0
2, 32627, Note_on_c, 0, 97, 0
2, 32732, Note_on_c, 0, 101, 103
2, 32732, Control_c, 0, 64, 88
2, 32733, Note_on_c, 0, 89, 90
2, 32733, Note_on_c, 0, 96, 96
2, 32735, Note_on_c, 0, 39, 72
2, 32735, Note_on_c, 0, 93, 91
2, 32735, Control_c, 0, 64, 127
2, 32736, Note_on_c, 0, 51, 81
2, 32740, Note_on_c, 0, 93, 0
2, 32741, Note_on_c, 0, 96, 0
2, 32742, Note_on_c, 0, 101, 0
2, 32743, Note_on_c, 0, 39, 0
2, 32744, Note_on_c, 0, 51, 0
2, 32744, Note_on_c, 0, 89, 0
2, 32797, Note_on_c, 0, 89, 102
2, 32797, Note_on_c, 0, 84, 95
2, 32797, Note_on_c, 0, 77, 96
2, 32798, Note_on_c, 0, 81, 88
2, 32798, Note_on_c, 0, 65, 80
2, 32798, Note_on_c, 0, 57, 72
2, 32800, Note_on_c, 0, 60, 77
2, 32805, Note_on_c, 0, 65, 0
2, 32808, Note_on_c, 0, 81, 0
2, 32808, Note_on_c, 0, 77, 0
2, 32808, Note_on_c, 0, 60, 0
2, 32809, Note_on_c, 0, 84, 0
2, 32810, Note_on_c, 0, 57, 0
2, 32814, Note_on_c, 0, 89, 0
2, 32860, Note_on_c, 0, 89, 106
2, 32860, Control_c, 0, 64, 56
2, 32861, Note_on_c, 0, 82, 89
2, 32862, Note_on_c, 0, 77, 95
2, 32862, Note_on_c, 0, 38, 79
2, 32862, Control_c, 0, 64, 0
2, 32863, Note_on_c, 0, 50, 91
2, 32868, Note_on_c, 0, 38, 0
2, 32873, Note_on_c, 0, 77, 0
2, 32873, Note_on_c, 0, 89, 0
2, 32873, Control_c, 0, 64, 24
2, 32874, Note_on_c, 0, 82, 0
2, 32874, Note_on_c, 0, 50, 0
2, 32876, Control_c, 0, 64, 88
2, 32878, Control_c, 0, 64, 127
2, 32927, Note_on_c, 0, 70, 88
2, 32927, Note_on_c, 0, 65, 92
2, 32927, Note_on_c, 0, 77, 104
2, 32927, Note_on_c, 0, 58, 68
2, 32928, Note_on_c, 0, 62, 78
2, 32930, Note_on_c, 0, 53, 70
2, 32933, Note_on_c, 0, 62, 0
2, 32937, Note_on_c, 0, 53, 0
2, 32938, Note_on_c, 0, 65, 0
2, 32938, Note_on_c, 0, 58, 0
2, 32939, Note_on_c, 0, 70, 0
2, 32942, Note_on_c, 0, 77, 0
2, 32990, Control_c, 0, 64, 104
2, 32992, Control_c, 0, 64, 24
2, 32995, Note_on_c, 0, 77, 107
2, 32996, Note_on_c, 0, 71, 98
2, 32996, Note_on_c, 0, 65, 94
2, 32996, Note_on_c, 0, 37, 75
2, 32996, Note_on_c, 0, 49, 93
2, 32996, Control_c, 0, 64, 0
2, 33006, Note_on_c, 0, 49, 0
2, 33006, Note_on_c, 0, 65, 0
2, 33006, Note_on_c, 0, 37, 0
2, 33006, Note_on_c, 0, 77, 0
2, 33007, Note_on_c, 0, 71, 0
2, 33008, Control_c, 0, 64, 56
2, 33011, Control_c, 0, 64, 127
2, 33065, Note_on_c, 0, 65, 90
2, 33066, Note_on_c, 0, 59, 84
2, 33067, Note_on_c, 0, 56, 74
2, 33070, Note_on_c, 0, 49, 60
2, 33074, Note_on_c, 0, 56, 0
2, 33075, Note_on_c, 0, 49, 0
2, 33076, Note_on_c, 0, 59, 0
2, 33076, Note_on_c, 0, 65, 0
2, 33125, Note_on_c, 0, 49, 41
2, 33127, Note_on_c, 0, 38, 69
2, 33135, Note_on_c, 0, 49, 0
2, 33136, Note_on_c, 0, 50, 85
2, 33138, Control_c, 0, 64, 104
2, 33140, Note_on_c, 0, 40, 76
2, 33142, Control_c, 0, 64, 40
2, 33145, Note_on_c, 0, 38, 0
2, 33145, Note_on_c, 0, 52, 79
2, 33145, Control_c, 0, 64, 0
2, 33146, Note_on_c, 0, 53, 96
2, 33148, Note_on_c, 0, 41, 103
2, 33152, Note_on_c, 0, 40, 0
2, 33152, Note_on_c, 0, 50, 0
2, 33156, Note_on_c, 0, 52, 0
2, 33157, Note_on_c, 0, 53, 0
2, 33158, Control_c, 0, 64, 72
2, 33159, Note_on_c, 0, 41, 0
2, 33161, Control_c, 0, 64, 127
2, 33200, Note_on_c, 0, 65, 90
2, 33200, Note_on_c, 0, 53, 77
2, 33201, Note_on_c, 0, 44, 45
2, 33202, Note_on_c, 0, 47, 65
2, 33202, Note_on_c, 0, 50, 69
2, 33202, Note_on_c, 0, 41, 58
2, 33207, Note_on_c, 0, 47, 0
2, 33207, Note_on_c, 0, 53, 0
2, 33209, Note_on_c, 0, 50, 0
2, 33209, Note_on_c, 0, 41, 0
2, 33210, Note_on_c, 0, 65, 0
2, 33212, Note_on_c, 0, 44, 0
2, 33236, Note_on_c, 0, 68, 85
2, 33237, Note_on_c, 0, 56, 81
2, 33237, Note_on_c, 0, 41, 65
2, 33237, Note_on_c, 0, 44, 52
2, 33237, Note_on_c, 0, 50, 74
2, 33242, Note_on_c, 0, 56, 0
2, 33242, Note_on_c, 0, 47, 45
2, 33247, Note_on_c, 0, 47, 0
2, 33248, Note_on_c, 0, 68, 0
2, 33248, Note_on_c, 0, 41, 0
2, 33249, Note_on_c, 0, 44, 0
2, 33249, Note_on_c, 0, 50, 0
2, 33271, Note_on_c, 0, 71, 99
2, 33271, Note_on_c, 0, 59, 84
2, 33271, Note_on_c, 0, 50, 70
2, 33272, Note_on_c, 0, 41, 53
2, 33272, Note_on_c, 0, 44, 43
2, 33276, Note_on_c, 0, 47, 54
2, 33278, Note_on_c, 0, 59, 0
2, 33278, Note_on_c, 0, 71, 0
2, 33280, Note_on_c, 0, 41, 0
2, 33281, Note_on_c, 0, 47, 0
2, 33283, Note_on_c, 0, 50, 0
2, 33284, Note_on_c, 0, 44, 0
2, 33305, Note_on_c, 0, 61, 87
2, 33305, Note_on_c, 0, 73, 89
2, 33306, Note_on_c, 0, 50, 69
2, 33306, Note_on_c, 0, 44, 49
2, 33307, Note_on_c, 0, 41, 59
2, 33310, Note_on_c, 0, 47, 49
2, 33316, Note_on_c, 0, 47, 0
2, 33317, Note_on_c, 0, 41, 0
2, 33318, Note_on_c, 0, 61, 0
2, 33319, Note_on_c, 0, 44, 0
2, 33319, Note_on_c, 0, 50, 0
2, 33320, Note_on_c, 0, 73, 0
2, 33337, Note_on_c, 0, 74, 98
2, 33337, Note_on_c, 0, 62, 89
2, 33338, Note_on_c, 0, 44, 50
2, 33338, Note_on_c, 0, 50, 74
2, 33340, Note_on_c, 0, 41, 52
2, 33342, Note_on_c, 0, 47, 53
2, 33345, Note_on_c, 0, 62, 0
2, 33347, Note_on_c, 0, 74, 0
2, 33348, Note_on_c, 0, 41, 0
2, 33348, Note_on_c, 0, 47, 0
2, 33351, Note_on_c, 0, 50, 0
2, 33351, Note_on_c, 0, 44, 0
2, 33371, Note_on_c, 0, 77, 98
2, 33371, Note_on_c, 0, 65, 92
2, 33371, Note_on_c, 0, 50, 67
2, 33372, Note_on_c, 0, 44, 42
2, 33372, Note_on_c, 0, 41, 51
2, 33377, Note_on_c, 0, 47, 46
2, 33381, Note_on_c, 0, 65, 0
2, 33381, Note_on_c, 0, 77, 0
2, 33383, Note_on_c, 0, 47, 0
2, 33387, Note_on_c, 0, 41, 0
2, 33388, Note_on_c, 0, 44, 0
2, 33389, Note_on_c, 0, 50, 0
2, 33402, Note_on_c, 0, 68, 93
2, 33402, Note_on_c, 0, 80, 96
2, 33403, Note_on_c, 0, 50, 76
2, 33405, Note_on_c, 0, 41, 44
2, 33405, Note_on_c, 0, 44, 37
2, 33410, Note_on_c, 0, 47, 40
2, 33413, Note_on_c, 0, 68, 0
2, 33414, Note_on_c, 0, 80, 0
2, 33416, Note_on_c, 0, 47, 0
2, 33418, Note_on_c, 0, 50, 0
2, 33420, Note_on_c, 0, 41, 0
2, 33421, Note_on_c, 0, 44, 0
2, 33436, Note_on_c, 0, 44, 52
2, 33437, Note_on_c, 0, 71, 95
2, 33437, Note_on_c, 0, 83, 104
2, 33438, Note_on_c, 0, 52, 78
2, 33438, Note_on_c, 0, 47, 70
2, 33441, Note_on_c, 0, 40, 63
2, 33448, Note_on_c, 0, 71, 0
2, 33449, Note_on_c, 0, 52, 0
2, 33451, Note_on_c, 0, 47, 0
2, 33452, Note_on_c, 0, 44, 0
2, 33452, Note_on_c, 0, 40, 0
2, 33453, Note_on_c, 0, 83, 0
2, 33465, Control_c, 0, 64, 56
2, 33467, Control_c, 0, 64, 0
2, 33470, Note_on_c, 0, 86, 104
2, 33471, Note_on_c, 0, 74, 95
2, 33471, Note_on_c, 0, 44, 55
2, 33472, Note_on_c, 0, 52, 74
2, 33472, Note_on_c, 0, 40, 68
2, 33472, Note_on_c, 0, 47, 72
2, 33477, Control_c, 0, 64, 40
2, 33479, Note_on_c, 0, 74, 0
2, 33480, Control_c, 0, 64, 88
2, 33482, Control_c, 0, 64, 127
2, 33483, Note_on_c, 0, 86, 0
2, 33484, Note_on_c, 0, 52, 0
2, 33485, Note_on_c, 0, 40, 0
2, 33486, Note_on_c, 0, 44, 0
2, 33487, Note_on_c, 0, 47, 0
2, 33502, Note_on_c, 0, 87, 95
2, 33502, Note_on_c, 0, 75, 97
2, 33503, Note_on_c, 0, 44, 57
2, 33505, Note_on_c, 0, 52, 66
2, 33506, Note_on_c, 0, 40, 54
2, 33506, Note_on_c, 0, 47, 65
2, 33515, Note_on_c, 0, 75, 0
2, 33517, Note_on_c, 0, 40, 0
2, 33517, Note_on_c, 0, 52, 0
2, 33519, Note_on_c, 0, 44, 0
2, 33521, Note_on_c, 0, 47, 0
2, 33522, Note_on_c, 0, 87, 0
2, 33537, Note_on_c, 0, 44, 71
2, 33537, Note_on_c, 0, 88, 107
2, 33537, Note_on_c, 0, 76, 104
2, 33538, Note_on_c, 0, 52, 71
2, 33538, Note_on_c, 0, 40, 66
2, 33540, Note_on_c, 0, 47, 60
2, 33547, Note_on_c, 0, 47, 0
2, 33550, Note_on_c, 0, 76, 0
2, 33552, Note_on_c, 0, 44, 0
2, 33554, Note_on_c, 0, 40, 0
2, 33554, Note_on_c, 0, 52, 0
2, 33560, Note_on_c, 0, 88, 0
2, 33571, Control_c, 0, 64, 104
2, 33573, Control_c, 0, 64, 40
2, 33576, Control_c, 0, 64, 0
2, 33580, Note_on_c, 0, 88, 107
2, 33580, Note_on_c, 0, 76, 107
2, 33580, Note_on_c, 0, 85, 95
2, 33581, Note_on_c, 0, 81, 96
2, 33582, Note_on_c, 0, 49, 87
2, 33583, Note_on_c, 0, 52, 91
2, 33583, Note_on_c, 0, 40, 84
2, 33583, Note_on_c, 0, 45, 92
2, 33590, Control_c, 0, 64, 40
2, 33592, Control_c, 0, 64, 127
2, 33593, Note_on_c, 0, 76, 0
2, 33594, Note_on_c, 0, 81, 0
2, 33595, Note_on_c, 0, 52, 0
2, 33595, Note_on_c, 0, 40, 0
2, 33596, Note_on_c, 0, 45, 0
2, 33598, Note_on_c, 0, 49, 0
2, 33598, Note_on_c, 0, 85, 0
2, 33602, Note_on_c, 0, 88, 0
2, 33658, Control_c, 0, 64, 72
2, 33661, Control_c, 0, 64, 24
2, 33663, Control_c, 0, 64, 0
2, 33692, Note_on_c, 0, 101, 107
2, 33693, Note_on_c, 0, 89, 99
2, 33693, Note_on_c, 0, 96, 104
2, 33695, Note_on_c, 0, 93, 98
2, 33696, Note_on_c, 0, 51, 106
2, 33696, Control_c, 0, 64, 40
2, 33697, Note_on_c, 0, 39, 71
2, 33698, Control_c, 0, 64, 127
2, 33703, Note_on_c, 0, 51, 0
2, 33704, Note_on_c, 0, 39, 0
2, 33705, Note_on_c, 0, 101, 0
2, 33706, Note_on_c, 0, 96, 0
2, 33708, Note_on_c, 0, 93, 0
2, 33710, Note_on_c, 0, 89, 0
2, 33756, Note_on_c, 0, 89, 104
2, 33757, Note_on_c, 0, 77, 98
2, 33757, Note_on_c, 0, 81, 84
2, 33758, Note_on_c, 0, 65, 83
2, 33758, Note_on_c, 0, 84, 92
2, 33758, Note_on_c, 0, 60, 78
2, 33760, Note_on_c, 0, 57, 69
2, 33768, Note_on_c, 0, 65, 0
2, 33768, Note_on_c, 0, 81, 0
2, 33769, Note_on_c, 0, 77, 0
2, 33769, Note_on_c, 0, 84, 0
2, 33769, Note_on_c, 0, 60, 0
2, 33772, Note_on_c, 0, 57, 0
2, 33774, Note_on_c, 0, 89, 0
2, 33818, Control_c, 0, 64, 56
2, 33820, Note_on_c, 0, 89, 104
2, 33821, Note_on_c, 0, 77, 100
2, 33821, Note_on_c, 0, 82, 92
2, 33821, Control_c, 0, 64, 0
2, 33822, Note_on_c, 0, 38, 83
2, 33825, Note_on_c, 0, 50, 96
2, 33830, Note_on_c, 0, 44, 33
2, 33832, Note_on_c, 0, 38, 0
2, 33832, Note_on_c, 0, 77, 0
2, 33833, Note_on_c, 0, 89, 0
2, 33833, Note_on_c, 0, 44, 0
2, 33834, Note_on_c, 0, 82, 0
2, 33836, Note_on_c, 0, 50, 0
2, 33837, Control_c, 0, 64, 56
2, 33840, Control_c, 0, 64, 127
2, 33885, Note_on_c, 0, 77, 102
2, 33885, Note_on_c, 0, 65, 92
2, 33885, Note_on_c, 0, 70, 77
2, 33886, Note_on_c, 0, 58, 69
2, 33886, Note_on_c, 0, 62, 78
2, 33887, Note_on_c, 0, 53, 72
2, 33891, Note_on_c, 0, 62, 0
2, 33897, Note_on_c, 0, 70, 0
2, 33898, Note_on_c, 0, 58, 0
2, 33898, Note_on_c, 0, 65, 0
2, 33898, Note_on_c, 0, 53, 0
2, 33903, Note_on_c, 0, 77, 0
2, 33946, Note_on_c, 0, 77, 100
2, 33946, Control_c, 0, 64, 56
2, 33947, Note_on_c, 0, 65, 90
2, 33947, Note_on_c, 0, 71, 91
2, 33948, Note_on_c, 0, 49, 94
2, 33948, Note_on_c, 0, 37, 77
2, 33948, Control_c, 0, 64, 0
2, 33958, Note_on_c, 0, 37, 0
2, 33958, Note_on_c, 0, 65, 0
2, 33958, Note_on_c, 0, 49, 0
2, 33959, Note_on_c, 0, 71, 0
2, 33959, Note_on_c, 0, 77, 0
2, 33962, Control_c, 0, 64, 24
2, 33965, Control_c, 0, 64, 88
2, 33967, Control_c, 0, 64, 127
2, 34013, Note_on_c, 0, 65, 89
2, 34013, Note_on_c, 0, 59, 83
2, 34016, Note_on_c, 0, 56, 80
2, 34018, Note_on_c, 0, 49, 60
2, 34023, Note_on_c, 0, 49, 0
2, 34023, Note_on_c, 0, 56, 0
2, 34024, Note_on_c, 0, 59, 0
2, 34024, Note_on_c, 0, 65, 0
2, 34067, Note_on_c, 0, 49, 70
2, 34067, Note_on_c, 0, 37, 54
2, 34075, Note_on_c, 0, 38, 84
2, 34077, Note_on_c, 0, 50, 92
2, 34080, Note_on_c, 0, 37, 0
2, 34080, Control_c, 0, 64, 56
2, 34081, Note_on_c, 0, 52, 77
2, 34081, Control_c, 0, 64, 0
2, 34082, Note_on_c, 0, 40, 66
2, 34088, Note_on_c, 0, 53, 88
2, 34090, Note_on_c, 0, 38, 0
2, 34092, Note_on_c, 0, 49, 0
2, 34092, Note_on_c, 0, 41, 98
2, 34094, Note_on_c, 0, 40, 0
2, 34094, Note_on_c, 0, 50, 0
2, 34097, Note_on_c, 0, 52, 0
2, 34098, Control_c, 0, 64, 56
2, 34100, Note_on_c, 0, 41, 0
2, 34100, Note_on_c, 0, 53, 0
2, 34101, Control_c, 0, 64, 104
2, 34103, Control_c, 0, 64, 127
2, 34135, Control_c, 0, 64, 104
2, 34138, Note_on_c, 0, 53, 73
2, 34138, Note_on_c, 0, 65, 84
2, 34138, Control_c, 0, 64, 56
2, 34140, Note_on_c, 0, 50, 72
2, 34140, Note_on_c, 0, 41, 58
2, 34141, Note_on_c, 0, 53, 0
2, 34141, Control_c, 0, 64, 24
2, 34142, Note_on_c, 0, 47, 57
2, 34142, Note_on_c, 0, 44, 49
2, 34142, Control_c, 0, 64, 40
2, 34146, Control_c, 0, 64, 88
2, 34147, Note_on_c, 0, 47, 0
2, 34147, Note_on_c, 0, 41, 0
2, 34148, Note_on_c, 0, 65, 0
2, 34148, Note_on_c, 0, 44, 0
2, 34148, Control_c, 0, 64, 127
2, 34150, Note_on_c, 0, 50, 0
2, 34170, Note_on_c, 0, 68, 86
2, 34171, Note_on_c, 0, 56, 74
2, 34173, Note_on_c, 0, 41, 66
2, 34173, Note_on_c, 0, 50, 75
2, 34175, Note_on_c, 0, 44, 45
2, 34176, Note_on_c, 0, 47, 46
2, 34177, Note_on_c, 0, 56, 0
2, 34182, Note_on_c, 0, 47, 0
2, 34183, Note_on_c, 0, 41, 0
2, 34185, Note_on_c, 0, 68, 0
2, 34185, Note_on_c, 0, 50, 0
2, 34185, Note_on_c, 0, 44, 0
2, 34205, Note_on_c, 0, 71, 98
2, 34205, Note_on_c, 0, 59, 85
2, 34206, Note_on_c, 0, 50, 67
2, 34206, Note_on_c, 0, 41, 52
2, 34206, Note_on_c, 0, 44, 41
2, 34210, Note_on_c, 0, 47, 56
2, 34215, Note_on_c, 0, 47, 0
2, 34215, Note_on_c, 0, 71, 0
2, 34215, Note_on_c, 0, 59, 0
2, 34216, Note_on_c, 0, 41, 0
2, 34218, Note_on_c, 0, 44, 0
2, 34218, Note_on_c, 0, 50, 0
2, 34238, Note_on_c, 0, 44, 48
2, 34238, Note_on_c, 0, 50, 73
2, 34238, Note_on_c, 0, 73, 89
2, 34238, Note_on_c, 0, 61, 87
2, 34240, Note_on_c, 0, 41, 54
2, 34242, Note_on_c, 0, 47, 51
2, 34248, Note_on_c, 0, 47, 0
2, 34248, Note_on_c, 0, 41, 0
2, 34250, Note_on_c, 0, 50, 0
2, 34250, Note_on_c, 0, 61, 0
2, 34251, Note_on_c, 0, 73, 0
2, 34251, Note_on_c, 0, 44, 0
2, 34270, Note_on_c, 0, 44, 46
2, 34270, Note_on_c, 0, 74, 100
2, 34270, Note_on_c, 0, 62, 85
2, 34270, Note_on_c, 0, 50, 66
2, 34271, Note_on_c, 0, 41, 53
2, 34273, Note_on_c, 0, 47, 47
2, 34278, Note_on_c, 0, 62, 0
2, 34279, Note_on_c, 0, 47, 0
2, 34280, Note_on_c, 0, 74, 0
2, 34281, Note_on_c, 0, 41, 0
2, 34282, Note_on_c, 0, 50, 0
2, 34283, Note_on_c, 0, 44, 0
2, 34301, Note_on_c, 0, 50, 70
2, 34302, Note_on_c, 0, 44, 45
2, 34302, Note_on_c, 0, 41, 57
2, 34303, Note_on_c, 0, 77, 96
2, 34305, Note_on_c, 0, 65, 79
2, 34308, Note_on_c, 0, 77, 0
2, 34310, Note_on_c, 0, 41, 0
2, 34310, Note_on_c, 0, 65, 0
2, 34312, Note_on_c, 0, 50, 0
2, 34313, Note_on_c, 0, 44, 0
2, 34330, Control_c, 0, 64, 88
2, 34332, Control_c, 0, 64, 40
2, 34335, Note_on_c, 0, 78, 95
2, 34335, Note_on_c, 0, 66, 95
2, 34336, Note_on_c, 0, 40, 71
2, 34336, Note_on_c, 0, 46, 71
2, 34336, Note_on_c, 0, 49, 70
2, 34336, Control_c, 0, 64, 0
2, 34343, Control_c, 0, 64, 72
2, 34346, Control_c, 0, 64, 127
2, 34347, Note_on_c, 0, 66, 0
2, 34348, Note_on_c, 0, 46, 0
2, 34348, Note_on_c, 0, 49, 0
2, 34349, Note_on_c, 0, 40, 0
2, 34352, Note_on_c, 0, 78, 0
2, 34368, Note_on_c, 0, 81, 102
2, 34368, Note_on_c, 0, 69, 92
2, 34370, Note_on_c, 0, 49, 72
2, 34370, Note_on_c, 0, 40, 66
2, 34371, Note_on_c, 0, 46, 64
2, 34376, Note_on_c, 0, 69, 0
2, 34376, Note_on_c, 0, 81, 0
2, 34379, Note_on_c, 0, 46, 0
2, 34380, Note_on_c, 0, 49, 0
2, 34381, Note_on_c, 0, 40, 0
2, 34398, Note_on_c, 0, 82, 97
2, 34398, Note_on_c, 0, 70, 92
2, 34401, Note_on_c, 0, 49, 64
2, 34401, Note_on_c, 0, 40, 53
2, 34402, Note_on_c, 0, 46, 61
2, 34408, Note_on_c, 0, 70, 0
2, 34411, Note_on_c, 0, 82, 0
2, 34414, Note_on_c, 0, 40, 0
2, 34414, Note_on_c, 0, 49, 0
2, 34414, Note_on_c, 0, 46, 0
2, 34431, Note_on_c, 0, 85, 103
2, 34432, Note_on_c, 0, 49, 65
2, 34432, Note_on_c, 0, 73, 89
2, 34432, Note_on_c, 0, 46, 64
2, 34433, Note_on_c, 0, 40, 64
2, 34439, Note_on_c, 0, 73, 0
2, 34443, Note_on_c, 0, 85, 0
2, 34444, Note_on_c, 0, 46, 0
2, 34445, Note_on_c, 0, 49, 0
2, 34446, Note_on_c, 0, 40, 0
2, 34463, Note_on_c, 0, 77, 103
2, 34463, Note_on_c, 0, 89, 107
2, 34465, Note_on_c, 0, 40, 57
2, 34466, Note_on_c, 0, 49, 56
2, 34466, Note_on_c, 0, 46, 50
2, 34473, Note_on_c, 0, 89, 0
2, 34473, Note_on_c, 0, 77, 0
2, 34476, Note_on_c, 0, 49, 0
2, 34478, Note_on_c, 0, 40, 0
2, 34478, Note_on_c, 0, 46, 0
2, 34496, Note_on_c, 0, 90, 98
2, 34496, Note_on_c, 0, 78, 99
2, 34497, Note_on_c, 0, 40, 71
2, 34497, Note_on_c, 0, 46, 60
2, 34497, Note_on_c, 0, 49, 63
2, 34507, Note_on_c, 0, 49, 0
2, 34508, Note_on_c, 0, 40, 0
2, 34509, Note_on_c, 0, 46, 0
2, 34509, Note_on_c, 0, 78, 0
2, 34513, Note_on_c, 0, 90, 0
2, 34521, Control_c, 0, 64, 88
2, 34525, Control_c, 0, 64, 40
2, 34527, Note_on_c, 0, 79, 98
2, 34527, Note_on_c, 0, 91, 107
2, 34527, Note_on_c, 0, 39, 79
2, 34527, Control_c, 0, 64, 0
2, 34528, Note_on_c, 0, 49, 86
2, 34528, Note_on_c, 0, 46, 74
2, 34535, Control_c, 0, 64, 72
2, 34537, Control_c, 0, 64, 127
2, 34538, Note_on_c, 0, 79, 0
2, 34539, Note_on_c, 0, 49, 0
2, 34539, Note_on_c, 0, 46, 0
2, 34540, Note_on_c, 0, 39, 0
2, 34542, Note_on_c, 0, 91, 0
2, 34558, Note_on_c, 0, 93, 107
2, 34558, Note_on_c, 0, 81, 95
2, 34558, Note_on_c, 0, 39, 69
2, 34558, Note_on_c, 0, 49, 86
2, 34558, Note_on_c, 0, 46, 75
2, 34559, Note_on_c, 0, 81, 0
2, 34560, Note_on_c, 0, 46, 0
2, 34561, Note_on_c, 0, 93, 0
2, 34563, Note_on_c, 0, 49, 0
2, 34564, Note_on_c, 0, 39, 0
2, 34586, Note_on_c, 0, 49, 78
2, 34586, Note_on_c, 0, 46, 74
2, 34586, Note_on_c, 0, 39, 70
2, 34586, Note_on_c, 0, 94, 98
2, 34586, Note_on_c, 0, 82, 94
2, 34594, Note_on_c, 0, 49, 0
2, 34596, Note_on_c, 0, 46, 0
2, 34596, Note_on_c, 0, 82, 0
2, 34597, Note_on_c, 0, 94, 0
2, 34598, Note_on_c, 0, 39, 0
2, 34616, Note_on_c, 0, 46, 78
2, 34616, Note_on_c, 0, 97, 107
2, 34616, Note_on_c, 0, 49, 87
2, 34616, Note_on_c, 0, 39, 71
2, 34616, Note_on_c, 0, 85, 100
2, 34624, Note_on_c, 0, 85, 0
2, 34624, Note_on_c, 0, 46, 0
2, 34626, Note_on_c, 0, 49, 0
2, 34628, Note_on_c, 0, 97, 0
2, 34628, Note_on_c, 0, 39, 0
2, 34646, Note_on_c, 0, 102, 107
2, 34646, Note_on_c, 0, 90, 107
2, 34646, Note_on_c, 0, 49, 98
2, 34646, Note_on_c, 0, 39, 87
2, 34646, Note_on_c, 0, 46, 88
2, 34654, Note_on_c, 0, 49, 0
2, 34656, Note_on_c, 0, 39, 0
2, 34656, Note_on_c, 0, 46, 0
2, 34656, Note_on_c, 0, 90, 0
2, 34673, Note_on_c, 0, 102, 0
2, 34682, Note_on_c, 0, 103, 107
2, 34682, Note_on_c, 0, 91, 107
2, 34682, Note_on_c, 0, 39, 95
2, 34683, Note_on_c, 0, 49, 107
2, 34683, Note_on_c, 0, 46, 99
2, 34689, Note_on_c, 0, 46, 0
2, 34689, Note_on_c, 0, 49, 0
2, 34692, Note_on_c, 0, 39, 0
2, 34698, Note_on_c, 0, 91, 0
2, 34702, Note_on_c, 0, 103, 0
2, 34761, Control_c, 0, 64, 0
2, 34811, Note_on_c, 0, 103, 107
2, 34811, Note_on_c, 0, 94, 98
2, 34811, Note_on_c, 0, 91, 98
2, 34812, Note_on_c, 0, 98, 101
2, 34812, Note_on_c, 0, 50, 90
2, 34812, Note_on_c, 0, 38, 96
2, 34815, Note_on_c, 0, 38, 0
2, 34816, Control_c, 0, 64, 72
2, 34817, Note_on_c, 0, 103, 0
2, 34819, Note_on_c, 0, 98, 0
2, 34820, Control_c, 0, 64, 127
2, 34821, Note_on_c, 0, 94, 0
2, 34822, Note_on_c, 0, 50, 0
2, 34824, Note_on_c, 0, 91, 0
2, 34878, Note_on_c, 0, 91, 104
2, 34878, Note_on_c, 0, 86, 96
2, 34878, Note_on_c, 0, 82, 88
2, 34880, Note_on_c, 0, 79, 94
2, 34880, Note_on_c, 0, 62, 80
2, 34881, Note_on_c, 0, 67, 83
2, 34881, Note_on_c, 0, 58, 81
2, 34886, Note_on_c, 0, 67, 0
2, 34888, Note_on_c, 0, 79, 0
2, 34888, Note_on_c, 0, 62, 0
2, 34891, Note_on_c, 0, 82, 0
2, 34893, Note_on_c, 0, 58, 0
2, 34894, Note_on_c, 0, 86, 0
2, 34894, Note_on_c, 0, 91, 0
2, 34932, Control_c, 0, 64, 72
2, 34935, Control_c, 0, 64, 0
2, 34940, Note_on_c, 0, 91, 103
2, 34941, Note_on_c, 0, 82, 88
2, 34941, Note_on_c, 0, 79, 97
2, 34942, Note_on_c, 0, 88, 93
2, 34945, Note_on_c, 0, 49, 89
2, 34946, Note_on_c, 0, 37, 89
2, 34951, Control_c, 0, 64, 56
2, 34952, Note_on_c, 0, 49, 0
2, 34952, Note_on_c, 0, 88, 0
2, 34953, Note_on_c, 0, 79, 0
2, 34953, Note_on_c, 0, 91, 0
2, 34953, Note_on_c, 0, 37, 0
2, 34953, Control_c, 0, 64, 127
2, 34954, Note_on_c, 0, 82, 0
2, 35002, Note_on_c, 0, 79, 98
2, 35003, Note_on_c, 0, 67, 91
2, 35003, Note_on_c, 0, 70, 83
2, 35005, Note_on_c, 0, 76, 87
2, 35005, Note_on_c, 0, 58, 82
2, 35006, Note_on_c, 0, 64, 84
2, 35007, Note_on_c, 0, 55, 84
2, 35013, Note_on_c, 0, 64, 0
2, 35015, Note_on_c, 0, 67, 0
2, 35017, Note_on_c, 0, 76, 0
2, 35017, Note_on_c, 0, 55, 0
2, 35018, Note_on_c, 0, 70, 0
2, 35018, Note_on_c, 0, 58, 0
2, 35022, Note_on_c, 0, 79, 0
2, 35065, Control_c, 0, 64, 72
2, 35067, Control_c, 0, 64, 0
2, 35068, Note_on_c, 0, 79, 103
2, 35070, Note_on_c, 0, 70, 90
2, 35070, Note_on_c, 0, 67, 93
2, 35071, Note_on_c, 0, 76, 92
2, 35071, Note_on_c, 0, 36, 86
2, 35071, Note_on_c, 0, 48, 99
2, 35080, Control_c, 0, 64, 72
2, 35081, Note_on_c, 0, 48, 0
2, 35081, Note_on_c, 0, 79, 0
2, 35081, Note_on_c, 0, 36, 0
2, 35082, Note_on_c, 0, 67, 0
2, 35082, Note_on_c, 0, 76, 0
2, 35082, Control_c, 0, 64, 127
2, 35083, Note_on_c, 0, 70, 0
2, 35138, Control_c, 0, 64, 88
2, 35142, Control_c, 0, 64, 24
2, 35145, Note_on_c, 0, 67, 100
2, 35145, Control_c, 0, 64, 0
2, 35146, Note_on_c, 0, 58, 83
2, 35146, Note_on_c, 0, 55, 100
2, 35147, Note_on_c, 0, 64, 96
2, 35148, Note_on_c, 0, 36, 83
2, 35150, Note_on_c, 0, 48, 95
2, 35152, Control_c, 0, 64, 40
2, 35155, Control_c, 0, 64, 127
2, 35157, Note_on_c, 0, 55, 0
2, 35158, Note_on_c, 0, 58, 0
2, 35158, Note_on_c, 0, 36, 0
2, 35158, Note_on_c, 0, 48, 0
2, 35160, Note_on_c, 0, 64, 0
2, 35165, Note_on_c, 0, 67, 0
2, 35293, Control_c, 0, 64, 104
2, 35297, Control_c, 0, 64, 72
2, 35300, Control_c, 0, 64, 24
2, 35302, Control_c, 0, 64, 0
2, 35371, Note_on_c, 0, 92, 107
2, 35371, Note_on_c, 0, 80, 96
2, 35372, Note_on_c, 0, 86, 98
2, 35373, Note_on_c, 0, 83, 93
2, 35373, Note_on_c, 0, 52, 93
2, 35373, Note_on_c, 0, 40, 82
2, 35373, Note_on_c, 0, 44, 77
2, 35375, Note_on_c, 0, 47, 86
2, 35377, Control_c, 0, 64, 40
2, 35380, Control_c, 0, 64, 0
2, 35404, Note_on_c, 0, 40, 0
2, 35405, Note_on_c, 0, 86, 0
2, 35405, Note_on_c, 0, 52, 0
2, 35409, Note_on_c, 0, 92, 0
2, 35409, Note_on_c, 0, 44, 0
2, 35411, Note_on_c, 0, 80, 0
2, 35415, Note_on_c, 0, 83, 0
2, 35416, Note_on_c, 0, 47, 0
2, 35436, Control_c, 0, 64, 0
2, 35438, Control_c, 0, 64, 0
2, 35441, Control_c, 0, 64, 105
2, 35448, Note_on_c, 0, 93, 107
2, 35450, Note_on_c, 0, 81, 99
2, 35450, Note_on_c, 0, 85, 88
2, 35450, Note_on_c, 0, 88, 99
2, 35451, Note_on_c, 0, 33, 83
2, 35452, Note_on_c, 0, 45, 97
2, 35452, Note_on_c, 0, 37, 78
2, 35452, Note_on_c, 0, 40, 87
2, 35479, Note_on_c, 0, 93, 0
2, 35487, Note_on_c, 0, 88, 0
2, 35487, Note_on_c, 0, 81, 0
2, 35489, Note_on_c, 0, 45, 0
2, 35490, Note_on_c, 0, 40, 0
2, 35491, Note_on_c, 0, 33, 0
2, 35491, Note_on_c, 0, 85, 0
2, 35493, Note_on_c, 0, 64, 79
2, 35496, Note_on_c, 0, 61, 63
2, 35497, Note_on_c, 0, 37, 0
2, 35498, Note_on_c, 0, 52, 61
2, 35500, Note_on_c, 0, 57, 53
2, 35504, Note_on_c, 0, 52, 0
2, 35507, Note_on_c, 0, 57, 0
2, 35509, Note_on_c, 0, 61, 0
2, 35516, Note_on_c, 0, 64, 0
2, 35536, Note_on_c, 0, 69, 93
2, 35538, Note_on_c, 0, 64, 57
2, 35538, Note_on_c, 0, 61, 49
2, 35540, Note_on_c, 0, 52, 55
2, 35540, Note_on_c, 0, 57, 51
2, 35545, Note_on_c, 0, 64, 0
2, 35546, Note_on_c, 0, 52, 0
2, 35547, Note_on_c, 0, 57, 0
2, 35550, Note_on_c, 0, 61, 0
2, 35554, Note_on_c, 0, 69, 0
2, 35577, Note_on_c, 0, 76, 98
2, 35581, Note_on_c, 0, 69, 73
2, 35581, Note_on_c, 0, 64, 73
2, 35581, Note_on_c, 0, 52, 57
2, 35582, Note_on_c, 0, 61, 45
2, 35583, Note_on_c, 0, 57, 53
2, 35590, Note_on_c, 0, 57, 0
2, 35593, Note_on_c, 0, 52, 0
2, 35593, Note_on_c, 0, 61, 0
2, 35596, Control_c, 0, 64, 24
2, 35598, Control_c, 0, 64, 56
2, 35618, Note_on_c, 0, 52, 54
2, 35618, Note_on_c, 0, 61, 44
2, 35618, Control_c, 0, 64, 24
2, 35620, Note_on_c, 0, 57, 53
2, 35621, Control_c, 0, 64, 0
2, 35628, Note_on_c, 0, 52, 0
2, 35630, Note_on_c, 0, 57, 0
2, 35631, Note_on_c, 0, 61, 0
2, 35639, Note_on_c, 0, 76, 0
2, 35653, Note_on_c, 0, 52, 57
2, 35653, Note_on_c, 0, 73, 87
2, 35655, Note_on_c, 0, 61, 42
2, 35661, Note_on_c, 0, 52, 0
2, 35661, Note_on_c, 0, 69, 0
2, 35667, Note_on_c, 0, 64, 0
2, 35670, Note_on_c, 0, 61, 0
2, 35678, Note_on_c, 0, 73, 0
2, 35695, Note_on_c, 0, 71, 98
2, 35695, Note_on_c, 0, 61, 61
2, 35697, Note_on_c, 0, 59, 65
2, 35697, Note_on_c, 0, 64, 74
2, 35710, Note_on_c, 0, 61, 0
2, 35712, Note_on_c, 0, 64, 0
2, 35712, Note_on_c, 0, 59, 0
2, 35712, Note_on_c, 0, 73, 81
2, 35715, Note_on_c, 0, 71, 0
2, 35730, Note_on_c, 0, 71, 93
2, 35731, Note_on_c, 0, 59, 74
2, 35731, Note_on_c, 0, 61, 58
2, 35735, Note_on_c, 0, 73, 0
2, 35736, Note_on_c, 0, 64, 52
2, 35742, Note_on_c, 0, 64, 0
2, 35743, Note_on_c, 0, 61, 0
2, 35747, Note_on_c, 0, 59, 0
2, 35750, Note_on_c, 0, 71, 0
2, 35770, Note_on_c, 0, 69, 90
2, 35771, Note_on_c, 0, 61, 66
2, 35772, Note_on_c, 0, 64, 69
2, 35773, Note_on_c, 0, 57, 68
2, 35778, Note_on_c, 0, 57, 0
2, 35778, Note_on_c, 0, 64, 0
2, 35780, Note_on_c, 0, 69, 0
2, 35781, Note_on_c, 0, 61, 0
2, 35807, Note_on_c, 0, 68, 81
2, 35810, Note_on_c, 0, 56, 70
2, 35811, Note_on_c, 0, 61, 61
2, 35811, Note_on_c, 0, 57, 69
2, 35822, Note_on_c, 0, 57, 0
2, 35823, Note_on_c, 0, 56, 0
2, 35824, Note_on_c, 0, 61, 0
2, 35828, Note_on_c, 0, 68, 0
2, 35831, Note_on_c, 0, 69, 77
2, 35845, Note_on_c, 0, 56, 63
2, 35846, Note_on_c, 0, 68, 75
2, 35846, Note_on_c, 0, 57, 63
2, 35849, Note_on_c, 0, 69, 0
2, 35852, Note_on_c, 0, 57, 0
2, 35855, Note_on_c, 0, 56, 0
2, 35858, Note_on_c, 0, 68, 0
2, 35883, Note_on_c, 0, 54, 59
2, 35885, Note_on_c, 0, 66, 77
2, 35886, Note_on_c, 0, 61, 61
2, 35886, Note_on_c, 0, 57, 57
2, 35891, Note_on_c, 0, 54, 0
2, 35892, Note_on_c, 0, 57, 0
2, 35898, Note_on_c, 0, 61, 0
2, 35898, Note_on_c, 0, 66, 0
2, 35921, Note_on_c, 0, 65, 97
2, 35922, Note_on_c, 0, 61, 75
2, 35922, Note_on_c, 0, 53, 73
2, 35923, Note_on_c, 0, 57, 69
2, 35934, Note_on_c, 0, 57, 0
2, 35934, Note_on_c, 0, 53, 0
2, 35934, Note_on_c, 0, 61, 0
2, 35937, Note_on_c, 0, 65, 0
2, 35960, Note_on_c, 0, 68, 86
2, 35960, Note_on_c, 0, 56, 66
2, 35961, Note_on_c, 0, 57, 65
2, 35961, Note_on_c, 0, 61, 71
2, 35970, Note_on_c, 0, 56, 0
2, 35972, Note_on_c, 0, 57, 0
2, 35973, Note_on_c, 0, 61, 0
2, 35977, Note_on_c, 0, 68, 0
2, 35997, Note_on_c, 0, 54, 63
2, 35997, Note_on_c, 0, 66, 83
2, 35998, Note_on_c, 0, 61, 68
2, 36000, Note_on_c, 0, 57, 54
2, 36006, Note_on_c, 0, 57, 0
2, 36009, Note_on_c, 0, 54, 0
2, 36010, Note_on_c, 0, 61, 0
2, 36013, Note_on_c, 0, 66, 0
2, 36033, Note_on_c, 0, 63, 96
2, 36035, Note_on_c, 0, 61, 71
2, 36036, Note_on_c, 0, 51, 79
2, 36036, Note_on_c, 0, 57, 74
2, 36045, Note_on_c, 0, 61, 0
2, 36048, Note_on_c, 0, 63, 0
2, 36048, Note_on_c, 0, 51, 0
2, 36048, Note_on_c, 0, 57, 0
2, 36071, Note_on_c, 0, 54, 68
2, 36072, Note_on_c, 0, 66, 81
2, 36072, Note_on_c, 0, 61, 75
2, 36075, Note_on_c, 0, 57, 60
2, 36085, Note_on_c, 0, 61, 0
2, 36086, Note_on_c, 0, 57, 0
2, 36086, Note_on_c, 0, 54, 0
2, 36090, Note_on_c, 0, 66, 0
2, 36111, Note_on_c, 0, 64, 84
2, 36112, Note_on_c, 0, 61, 57
2, 36113, Note_on_c, 0, 57, 67
2, 36115, Note_on_c, 0, 52, 74
2, 36122, Control_c, 0, 64, 24
2, 36124, Note_on_c, 0, 57, 0
2, 36124, Note_on_c, 0, 64, 0
2, 36124, Note_on_c, 0, 61, 0
2, 36125, Control_c, 0, 64, 56
2, 36127, Note_on_c, 0, 52, 0
2, 36128, Control_c, 0, 64, 72
2, 36145, Control_c, 0, 64, 40
2, 36147, Control_c, 0, 64, 0
2, 36197, Note_on_c, 0, 61, 88
2, 36200, Note_on_c, 0, 57, 76
2, 36200, Note_on_c, 0, 49, 75
2, 36200, Note_on_c, 0, 45, 80
2, 36201, Note_on_c, 0, 37, 70
2, 36208, Note_on_c, 0, 45, 0
2, 36212, Note_on_c, 0, 49, 0
2, 36212, Note_on_c, 0, 57, 0
2, 36217, Note_on_c, 0, 61, 0
2, 36217, Note_on_c, 0, 37, 0
2, 36236, Note_on_c, 0, 62, 102
2, 36237, Note_on_c, 0, 57, 80
2, 36238, Note_on_c, 0, 45, 82
2, 36240, Note_on_c, 0, 38, 82
2, 36240, Note_on_c, 0, 50, 76
2, 36249, Note_on_c, 0, 57, 0
2, 36251, Note_on_c, 0, 50, 0
2, 36252, Note_on_c, 0, 38, 0
2, 36255, Note_on_c, 0, 45, 0
2, 36257, Note_on_c, 0, 62, 0
2, 36273, Note_on_c, 0, 45, 57
2, 36273, Note_on_c, 0, 63, 98
2, 36275, Note_on_c, 0, 61, 83
2, 36276, Note_on_c, 0, 57, 81
2, 36276, Note_on_c, 0, 44, 55
2, 36276, Note_on_c, 0, 51, 72
2, 36286, Note_on_c, 0, 51, 0
2, 36286, Note_on_c, 0, 44, 0
2, 36287, Note_on_c, 0, 57, 0
2, 36288, Note_on_c, 0, 61, 0
2, 36291, Note_on_c, 0, 45, 0
2, 36294, Note_on_c, 0, 63, 0
2, 36311, Note_on_c, 0, 54, 81
2, 36312, Note_on_c, 0, 66, 99
2, 36313, Note_on_c, 0, 57, 85
2, 36313, Note_on_c, 0, 61, 79
2, 36327, Note_on_c, 0, 54, 0
2, 36328, Note_on_c, 0, 57, 0
2, 36329, Note_on_c, 0, 66, 0
2, 36333, Note_on_c, 0, 61, 0
2, 36348, Note_on_c, 0, 52, 86
2, 36350, Note_on_c, 0, 64, 102
2, 36351, Note_on_c, 0, 57, 82
2, 36353, Note_on_c, 0, 40, 45
2, 36356, Note_on_c, 0, 52, 0
2, 36359, Note_on_c, 0, 40, 0
2, 36359, Note_on_c, 0, 57, 0
2, 36361, Control_c, 0, 64, 24
2, 36365, Control_c, 0, 64, 40
2, 36367, Control_c, 0, 64, 56
2, 36368, Note_on_c, 0, 64, 0
2, 36376, Control_c, 0, 64, 24
2, 36378, Control_c, 0, 64, 0
2, 36391, Note_on_c, 0, 45, 102
2, 36392, Note_on_c, 0, 33, 80
2, 36399, Note_on_c, 0, 33, 0
2, 36403, Note_on_c, 0, 45, 0
2, 36403, Control_c, 0, 64, 56
2, 36406, Control_c, 0, 64, 104
2, 36408, Control_c, 0, 64, 127
2, 36432, Note_on_c, 0, 64, 89
2, 36450, Note_on_c, 0, 64, 0
2, 36460, Control_c, 0, 64, 104
2, 36462, Control_c, 0, 64, 72
2, 36465, Control_c, 0, 64, 56
2, 36466, Note_on_c, 0, 69, 94
2, 36467, Control_c, 0, 64, 40
2, 36468, Note_on_c, 0, 52, 59
2, 36468, Note_on_c, 0, 61, 41
2, 36470, Note_on_c, 0, 57, 52
2, 36478, Note_on_c, 0, 57, 0
2, 36478, Note_on_c, 0, 52, 0
2, 36480, Note_on_c, 0, 61, 0
2, 36486, Note_on_c, 0, 69, 0
2, 36503, Control_c, 0, 64, 0
2, 36511, Note_on_c, 0, 76, 97
2, 36513, Note_on_c, 0, 52, 46
2, 36513, Note_on_c, 0, 64, 58
2, 36515, Note_on_c, 0, 69, 60
2, 36515, Note_on_c, 0, 61, 32
2, 36517, Note_on_c, 0, 57, 43
2, 36525, Note_on_c, 0, 57, 0
2, 36528, Note_on_c, 0, 52, 0
2, 36528, Note_on_c, 0, 61, 0
2, 36532, Control_c, 0, 64, 72
2, 36535, Control_c, 0, 64, 127
2, 36552, Note_on_c, 0, 52, 49
2, 36553, Note_on_c, 0, 61, 36
2, 36555, Note_on_c, 0, 57, 42
2, 36563, Note_on_c, 0, 57, 0
2, 36563, Note_on_c, 0, 52, 0
2, 36564, Note_on_c, 0, 61, 0
2, 36569, Note_on_c, 0, 76, 0
2, 36582, Note_on_c, 0, 69, 0
2, 36586, Note_on_c, 0, 64, 0
2, 36586, Note_on_c, 0, 73, 92
2, 36587, Note_on_c, 0, 61, 45
2, 36590, Note_on_c, 0, 52, 34
2, 36595, Note_on_c, 0, 52, 0
2, 36602, Note_on_c, 0, 61, 0
2, 36608, Note_on_c, 0, 73, 0
2, 36612, Control_c, 0, 64, 88
2, 36615, Control_c, 0, 64, 56
2, 36617, Control_c, 0, 64, 24
2, 36621, Control_c, 0, 64, 0
2, 36625, Note_on_c, 0, 71, 100
2, 36628, Note_on_c, 0, 61, 52
2, 36628, Note_on_c, 0, 59, 61
2, 36636, Note_on_c, 0, 73, 64
2, 36640, Note_on_c, 0, 59, 0
2, 36640, Note_on_c, 0, 61, 0
2, 36641, Note_on_c, 0, 71, 0
2, 36658, Note_on_c, 0, 71, 91
2, 36660, Note_on_c, 0, 61, 48
2, 36661, Note_on_c, 0, 59, 62
2, 36666, Note_on_c, 0, 73, 0
2, 36672, Note_on_c, 0, 61, 0
2, 36674, Note_on_c, 0, 59, 0
2, 36678, Note_on_c, 0, 71, 0
2, 36696, Note_on_c, 0, 69, 92
2, 36697, Note_on_c, 0, 61, 61
2, 36698, Note_on_c, 0, 64, 65
2, 36700, Note_on_c, 0, 57, 55
2, 36704, Note_on_c, 0, 64, 0
2, 36705, Note_on_c, 0, 57, 0
2, 36706, Note_on_c, 0, 69, 0
2, 36707, Note_on_c, 0, 61, 0
2, 36732, Note_on_c, 0, 68, 94
2, 36732, Note_on_c, 0, 56, 67
2, 36733, Note_on_c, 0, 61, 66
2, 36735, Note_on_c, 0, 57, 62
2, 36746, Note_on_c, 0, 57, 0
2, 36747, Note_on_c, 0, 56, 0
2, 36749, Note_on_c, 0, 68, 0
2, 36752, Note_on_c, 0, 69, 84
2, 36754, Note_on_c, 0, 61, 0
2, 36767, Note_on_c, 0, 56, 59
2, 36768, Note_on_c, 0, 57, 64
2, 36771, Note_on_c, 0, 68, 84
2, 36773, Note_on_c, 0, 69, 0
2, 36778, Note_on_c, 0, 57, 0
2, 36779, Note_on_c, 0, 56, 0
2, 36784, Note_on_c, 0, 68, 0
2, 36808, Note_on_c, 0, 66, 75
2, 36810, Note_on_c, 0, 61, 59
2, 36811, Note_on_c, 0, 57, 55
2, 36811, Note_on_c, 0, 54, 46
2, 36817, Note_on_c, 0, 54, 0
2, 36818, Note_on_c, 0, 57, 0
2, 36820, Note_on_c, 0, 61, 0
2, 36821, Note_on_c, 0, 66, 0
2, 36846, Note_on_c, 0, 65, 92
2, 36848, Note_on_c, 0, 61, 56
2, 36848, Note_on_c, 0, 57, 69
2, 36850, Note_on_c, 0, 53, 73
2, 36857, Note_on_c, 0, 53, 0
2, 36859, Note_on_c, 0, 57, 0
2, 36859, Note_on_c, 0, 61, 0
2, 36863, Note_on_c, 0, 65, 0
2, 36882, Note_on_c, 0, 68, 79
2, 36883, Note_on_c, 0, 61, 59
2, 36885, Note_on_c, 0, 56, 58
2, 36886, Note_on_c, 0, 57, 56
2, 36893, Note_on_c, 0, 57, 0
2, 36895, Note_on_c, 0, 61, 0
2, 36897, Note_on_c, 0, 56, 0
2, 36898, Note_on_c, 0, 68, 0
2, 36921, Note_on_c, 0, 66, 75
2, 36921, Note_on_c, 0, 61, 65
2, 36922, Note_on_c, 0, 54, 61
2, 36925, Note_on_c, 0, 57, 55
2, 36931, Note_on_c, 0, 57, 0
2, 36933, Note_on_c, 0, 54, 0
2, 36934, Note_on_c, 0, 61, 0
2, 36934, Note_on_c, 0, 66, 0
2, 36958, Note_on_c, 0, 63, 87
2, 36960, Note_on_c, 0, 61, 65
2, 36961, Note_on_c, 0, 51, 70
2, 36961, Note_on_c, 0, 57, 66
2, 36973, Note_on_c, 0, 57, 0
2, 36973, Note_on_c, 0, 51, 0
2, 36973, Note_on_c, 0, 61, 0
2, 36976, Note_on_c, 0, 63, 0
2, 36997, Note_on_c, 0, 66, 75
2, 36998, Note_on_c, 0, 61, 71
2, 37000, Note_on_c, 0, 54, 54
2, 37000, Note_on_c, 0, 57, 61
2, 37011, Note_on_c, 0, 61, 0
2, 37013, Note_on_c, 0, 57, 0
2, 37013, Note_on_c, 0, 54, 0
2, 37014, Note_on_c, 0, 66, 0
2, 37037, Note_on_c, 0, 64, 80
2, 37038, Note_on_c, 0, 61, 48
2, 37041, Note_on_c, 0, 57, 60
2, 37043, Note_on_c, 0, 52, 58
2, 37050, Note_on_c, 0, 52, 0
2, 37050, Control_c, 0, 64, 24
2, 37051, Note_on_c, 0, 61, 0
2, 37052, Note_on_c, 0, 64, 0
2, 37053, Note_on_c, 0, 57, 0
2, 37066, Control_c, 0, 64, 0
2, 37120, Note_on_c, 0, 61, 83
2, 37123, Note_on_c, 0, 49, 72
2, 37123, Note_on_c, 0, 57, 68
2, 37123, Note_on_c, 0, 45, 74
2, 37125, Note_on_c, 0, 37, 64
2, 37133, Note_on_c, 0, 57, 0
2, 37134, Note_on_c, 0, 45, 0
2, 37134, Note_on_c, 0, 49, 0
2, 37137, Note_on_c, 0, 37, 0
2, 37138, Note_on_c, 0, 61, 0
2, 37158, Note_on_c, 0, 62, 104
2, 37160, Note_on_c, 0, 57, 80
2, 37161, Note_on_c, 0, 45, 72
2, 37161, Note_on_c, 0, 61, 66
2, 37162, Note_on_c, 0, 38, 88
2, 37162, Note_on_c, 0, 50, 85
2, 37172, Note_on_c, 0, 50, 0
2, 37172, Note_on_c, 0, 57, 0
2, 37172, Note_on_c, 0, 61, 0
2, 37173, Note_on_c, 0, 38, 0
2, 37176, Note_on_c, 0, 45, 0
2, 37178, Note_on_c, 0, 62, 0
2, 37195, Note_on_c, 0, 45, 86
2, 37196, Note_on_c, 0, 63, 99
2, 37197, Note_on_c, 0, 61, 87
2, 37197, Note_on_c, 0, 57, 86
2, 37198, Note_on_c, 0, 51, 78
2, 37208, Note_on_c, 0, 51, 0
2, 37209, Note_on_c, 0, 57, 0
2, 37210, Note_on_c, 0, 61, 0
2, 37215, Note_on_c, 0, 45, 0
2, 37217, Note_on_c, 0, 63, 0
2, 37232, Note_on_c, 0, 42, 81
2, 37233, Note_on_c, 0, 54, 83
2, 37236, Note_on_c, 0, 66, 100
2, 37236, Note_on_c, 0, 61, 87
2, 37236, Note_on_c, 0, 57, 89
2, 37248, Note_on_c, 0, 54, 0
2, 37249, Note_on_c, 0, 42, 0
2, 37249, Note_on_c, 0, 57, 0
2, 37252, Note_on_c, 0, 61, 0
2, 37253, Note_on_c, 0, 66, 0
2, 37271, Note_on_c, 0, 52, 88
2, 37272, Note_on_c, 0, 40, 80
2, 37273, Note_on_c, 0, 64, 102
2, 37275, Note_on_c, 0, 57, 84
2, 37278, Control_c, 0, 64, 40
2, 37281, Note_on_c, 0, 52, 0
2, 37281, Control_c, 0, 64, 72
2, 37282, Note_on_c, 0, 40, 0
2, 37282, Note_on_c, 0, 57, 0
2, 37283, Control_c, 0, 64, 104
2, 37286, Control_c, 0, 64, 127
2, 37291, Note_on_c, 0, 64, 0
2, 37303, Control_c, 0, 64, 88
2, 37305, Control_c, 0, 64, 56
2, 37308, Control_c, 0, 64, 0
2, 37315, Note_on_c, 0, 33, 90
2, 37317, Note_on_c, 0, 45, 82
2, 37328, Control_c, 0, 64, 56
2, 37331, Control_c, 0, 64, 104
2, 37333, Note_on_c, 0, 33, 0
2, 37333, Control_c, 0, 64, 127
2, 37335, Note_on_c, 0, 45, 0
2, 37358, Note_on_c, 0, 64, 85
2, 37386, Note_on_c, 0, 64, 0
2, 37396, Note_on_c, 0, 69, 97
2, 37403, Note_on_c, 0, 52, 56
2, 37403, Note_on_c, 0, 61, 44
2, 37406, Note_on_c, 0, 57, 43
2, 37410, Note_on_c, 0, 52, 0
2, 37413, Note_on_c, 0, 57, 0
2, 37414, Note_on_c, 0, 61, 0
2, 37417, Note_on_c, 0, 69, 0
2, 37442, Note_on_c, 0, 76, 98
2, 37442, Control_c, 0, 64, 104
2, 37445, Note_on_c, 0, 61, 42
2, 37445, Note_on_c, 0, 64, 65
2, 37445, Control_c, 0, 64, 56
2, 37446, Note_on_c, 0, 69, 68
2, 37446, Note_on_c, 0, 52, 47
2, 37447, Note_on_c, 0, 57, 41
2, 37447, Control_c, 0, 64, 0
2, 37456, Note_on_c, 0, 52, 0
2, 37458, Note_on_c, 0, 57, 0
2, 37460, Note_on_c, 0, 61, 0
2, 37465, Control_c, 0, 64, 56
2, 37467, Control_c, 0, 64, 88
2, 37471, Control_c, 0, 64, 127
2, 37486, Note_on_c, 0, 61, 38
2, 37486, Note_on_c, 0, 52, 48
2, 37486, Note_on_c, 0, 57, 46
2, 37498, Note_on_c, 0, 57, 0
2, 37498, Note_on_c, 0, 52, 0
2, 37499, Note_on_c, 0, 61, 0
2, 37507, Note_on_c, 0, 69, 0
2, 37513, Note_on_c, 0, 76, 0
2, 37522, Note_on_c, 0, 64, 0
2, 37523, Note_on_c, 0, 73, 90
2, 37526, Note_on_c, 0, 61, 36
2, 37526, Note_on_c, 0, 52, 34
2, 37532, Note_on_c, 0, 52, 0
2, 37542, Note_on_c, 0, 61, 0
2, 37544, Note_on_c, 0, 73, 0
2, 37571, Note_on_c, 0, 73, 88
2, 37573, Note_on_c, 0, 64, 44
2, 37575, Note_on_c, 0, 54, 42
2, 37580, Note_on_c, 0, 57, 39
2, 37581, Control_c, 0, 64, 72
2, 37585, Control_c, 0, 64, 24
2, 37587, Control_c, 0, 64, 0
2, 37590, Note_on_c, 0, 64, 0
2, 37595, Note_on_c, 0, 57, 0
2, 37597, Note_on_c, 0, 54, 0
2, 37603, Control_c, 0, 64, 56
2, 37607, Control_c, 0, 64, 104
2, 37610, Control_c, 0, 64, 127
2, 37616, Note_on_c, 0, 64, 49
2, 37616, Note_on_c, 0, 54, 35
2, 37617, Note_on_c, 0, 57, 44
2, 37628, Note_on_c, 0, 57, 0
2, 37629, Note_on_c, 0, 64, 0
2, 37632, Note_on_c, 0, 54, 0
2, 37656, Note_on_c, 0, 64, 59
2, 37658, Note_on_c, 0, 54, 33
2, 37669, Note_on_c, 0, 64, 0
2, 37673, Note_on_c, 0, 54, 0
2, 37697, Note_on_c, 0, 73, 0
2, 37703, Note_on_c, 0, 72, 80
2, 37706, Note_on_c, 0, 63, 33
2, 37706, Note_on_c, 0, 54, 33
2, 37708, Note_on_c, 0, 57, 39
2, 37710, Control_c, 0, 64, 104
2, 37712, Control_c, 0, 64, 56
2, 37715, Control_c, 0, 64, 0
2, 37722, Note_on_c, 0, 54, 0
2, 37722, Note_on_c, 0, 63, 0
2, 37723, Note_on_c, 0, 57, 0
2, 37728, Control_c, 0, 64, 40
2, 37732, Control_c, 0, 64, 104
2, 37735, Control_c, 0, 64, 127
2, 37742, Note_on_c, 0, 54, 48
2, 37745, Note_on_c, 0, 57, 41
2, 37746, Note_on_c, 0, 63, 39
2, 37758, Note_on_c, 0, 63, 0
2, 37759, Note_on_c, 0, 54, 0
2, 37760, Note_on_c, 0, 57, 0
2, 37782, Note_on_c, 0, 63, 52
2, 37785, Note_on_c, 0, 54, 39
2, 37787, Note_on_c, 0, 63, 0
2, 37795, Note_on_c, 0, 54, 0
2, 37798, Note_on_c, 0, 72, 0
2, 37835, Control_c, 0, 64, 104
2, 37837, Control_c, 0, 64, 40
2, 37841, Note_on_c, 0, 33, 71
2, 37841, Control_c, 0, 64, 0
2, 37842, Note_on_c, 0, 45, 71
2, 37846, Note_on_c, 0, 33, 0
2, 37848, Control_c, 0, 64, 56
2, 37851, Control_c, 0, 64, 104
2, 37854, Note_on_c, 0, 45, 0
2, 37855, Control_c, 0, 64, 127
2, 37882, Note_on_c, 0, 61, 69
2, 37885, Note_on_c, 0, 57, 63
2, 37885, Note_on_c, 0, 52, 65
2, 37891, Note_on_c, 0, 57, 0
2, 37892, Note_on_c, 0, 52, 0
2, 37903, Note_on_c, 0, 61, 0
2, 37922, Note_on_c, 0, 64, 84
2, 37927, Note_on_c, 0, 57, 43
2, 37927, Note_on_c, 0, 52, 37
2, 37934, Note_on_c, 0, 52, 0
2, 37934, Note_on_c, 0, 57, 0
2, 37935, Note_on_c, 0, 64, 0
2, 37947, Note_on_c, 0, 64, 79
2, 37960, Note_on_c, 0, 52, 32
2, 37961, Note_on_c, 0, 57, 28
2, 37963, Note_on_c, 0, 61, 36
2, 37973, Note_on_c, 0, 73, 93
2, 37977, Control_c, 0, 64, 88
2, 37980, Note_on_c, 0, 61, 0
2, 37980, Control_c, 0, 64, 40
2, 37982, Control_c, 0, 64, 0
2, 37983, Note_on_c, 0, 52, 0
2, 37986, Note_on_c, 0, 57, 0
2, 37991, Control_c, 0, 64, 72
2, 37993, Control_c, 0, 64, 127
2, 38016, Note_on_c, 0, 61, 40
2, 38016, Note_on_c, 0, 52, 44
2, 38017, Note_on_c, 0, 57, 39
2, 38024, Note_on_c, 0, 73, 0
2, 38027, Note_on_c, 0, 52, 0
2, 38027, Note_on_c, 0, 57, 0
2, 38029, Note_on_c, 0, 61, 0
2, 38047, Note_on_c, 0, 64, 0
2, 38051, Note_on_c, 0, 52, 48
2, 38055, Note_on_c, 0, 61, 35
2, 38055, Note_on_c, 0, 69, 91
2, 38063, Note_on_c, 0, 52, 0
2, 38067, Note_on_c, 0, 69, 0
2, 38072, Note_on_c, 0, 61, 0
2, 38078, Note_on_c, 0, 69, 84
2, 38094, Note_on_c, 0, 69, 0
2, 38098, Note_on_c, 0, 68, 81
2, 38103, Note_on_c, 0, 64, 61
2, 38106, Note_on_c, 0, 60, 50
2, 38107, Note_on_c, 0, 54, 42
2, 38107, Note_on_c, 0, 57, 43
2, 38111, Control_c, 0, 64, 88
2, 38113, Control_c, 0, 64, 0
2, 38122, Note_on_c, 0, 60, 0
2, 38124, Note_on_c, 0, 54, 0
2, 38124, Note_on_c, 0, 57, 0
2, 38133, Control_c, 0, 64, 40
2, 38136, Control_c, 0, 64, 104
2, 38138, Control_c, 0, 64, 127
2, 38148, Note_on_c, 0, 57, 43
2, 38148, Note_on_c, 0, 60, 40
2, 38148, Note_on_c, 0, 54, 35
2, 38158, Note_on_c, 0, 57, 0
2, 38159, Note_on_c, 0, 60, 0
2, 38159, Note_on_c, 0, 54, 0
2, 38191, Note_on_c, 0, 60, 43
2, 38193, Note_on_c, 0, 54, 42
2, 38193, Note_on_c, 0, 57, 44
2, 38201, Note_on_c, 0, 57, 0
2, 38202, Note_on_c, 0, 60, 0
2, 38203, Note_on_c, 0, 54, 0
2, 38228, Note_on_c, 0, 66, 70
2, 38229, Note_on_c, 0, 64, 0
2, 38230, Note_on_c, 0, 63, 63
2, 38231, Note_on_c, 0, 68, 0
2, 38233, Note_on_c, 0, 60, 49
2, 38233, Note_on_c, 0, 57, 43
2, 38233, Control_c, 0, 64, 72
2, 38235, Note_on_c, 0, 54, 36
2, 38236, Control_c, 0, 64, 0
2, 38248, Note_on_c, 0, 57, 0
2, 38250, Note_on_c, 0, 60, 0
2, 38251, Note_on_c, 0, 54, 0
2, 38252, Control_c, 0, 64, 24
2, 38256, Control_c, 0, 64, 88
2, 38258, Control_c, 0, 64, 127
2, 38275, Note_on_c, 0, 57, 39
2, 38276, Note_on_c, 0, 54, 32
2, 38277, Note_on_c, 0, 60, 31
2, 38286, Note_on_c, 0, 57, 0
2, 38287, Note_on_c, 0, 60, 0
2, 38288, Note_on_c, 0, 54, 0
2, 38291, Note_on_c, 0, 63, 0
2, 38295, Note_on_c, 0, 66, 0
2, 38318, Note_on_c, 0, 60, 40
2, 38320, Note_on_c, 0, 54, 45
2, 38323, Note_on_c, 0, 60, 0
2, 38325, Note_on_c, 0, 54, 0
2, 38358, Control_c, 0, 64, 56
2, 38361, Control_c, 0, 64, 0
2, 38367, Note_on_c, 0, 45, 58
2, 38370, Control_c, 0, 64, 40
2, 38372, Control_c, 0, 64, 72
2, 38375, Control_c, 0, 64, 127
2, 38380, Note_on_c, 0, 45, 0
2, 38412, Note_on_c, 0, 52, 51
2, 38415, Note_on_c, 0, 57, 42
2, 38416, Note_on_c, 0, 61, 37
2, 38426, Note_on_c, 0, 57, 0
2, 38427, Note_on_c, 0, 52, 0
2, 38428, Note_on_c, 0, 61, 0
2, 38451, Note_on_c, 0, 61, 40
2, 38451, Note_on_c, 0, 52, 49
2, 38452, Note_on_c, 0, 57, 39
2, 38461, Note_on_c, 0, 52, 0
2, 38462, Note_on_c, 0, 57, 0
2, 38464, Note_on_c, 0, 61, 0
2, 38488, Note_on_c, 0, 64, 80
2, 38495, Note_on_c, 0, 61, 37
2, 38495, Note_on_c, 0, 52, 45
2, 38497, Note_on_c, 0, 57, 37
2, 38505, Note_on_c, 0, 52, 0
2, 38508, Note_on_c, 0, 57, 0
2, 38508, Note_on_c, 0, 61, 0
2, 38526, Note_on_c, 0, 64, 0
2, 38533, Note_on_c, 0, 61, 45
2, 38535, Note_on_c, 0, 52, 51
2, 38537, Note_on_c, 0, 57, 36
2, 38545, Note_on_c, 0, 57, 0
2, 38546, Note_on_c, 0, 52, 0
2, 38548, Note_on_c, 0, 61, 0
2, 38571, Note_on_c, 0, 52, 59
2, 38572, Note_on_c, 0, 61, 79
2, 38582, Note_on_c, 0, 52, 0
2, 38583, Note_on_c, 0, 61, 0
2, 38593, Note_on_c, 0, 61, 78
2, 38610, Note_on_c, 0, 61, 0
2, 38618, Note_on_c, 0, 64, 88
2, 38622, Control_c, 0, 64, 104
2, 38625, Note_on_c, 0, 57, 43
2, 38626, Note_on_c, 0, 60, 52
2, 38626, Note_on_c, 0, 54, 45
2, 38626, Control_c, 0, 64, 24
2, 38628, Control_c, 0, 64, 0
2, 38638, Note_on_c, 0, 60, 0
2, 38640, Note_on_c, 0, 57, 0
2, 38641, Note_on_c, 0, 54, 0
2, 38648, Control_c, 0, 64, 72
2, 38651, Control_c, 0, 64, 127
2, 38662, Note_on_c, 0, 60, 53
2, 38663, Note_on_c, 0, 57, 49
2, 38666, Note_on_c, 0, 54, 40
2, 38671, Note_on_c, 0, 57, 0
2, 38673, Note_on_c, 0, 54, 0
2, 38674, Note_on_c, 0, 60, 0
2, 38703, Note_on_c, 0, 60, 52
2, 38703, Note_on_c, 0, 54, 41
2, 38703, Note_on_c, 0, 57, 48
2, 38711, Note_on_c, 0, 57, 0
2, 38713, Note_on_c, 0, 54, 0
2, 38714, Note_on_c, 0, 60, 0
2, 38743, Note_on_c, 0, 64, 0
2, 38746, Note_on_c, 0, 63, 63
2, 38748, Note_on_c, 0, 54, 42
2, 38751, Note_on_c, 0, 57, 49
2, 38751, Note_on_c, 0, 60, 53
2, 38753, Control_c, 0, 64, 56
2, 38756, Control_c, 0, 64, 0
2, 38764, Note_on_c, 0, 60, 0
2, 38764, Note_on_c, 0, 57, 0
2, 38765, Note_on_c, 0, 54, 0
2, 38776, Control_c, 0, 64, 72
2, 38780, Control_c, 0, 64, 127
2, 38791, Note_on_c, 0, 57, 43
2, 38791, Note_on_c, 0, 60, 52
2, 38792, Note_on_c, 0, 54, 37
2, 38803, Note_on_c, 0, 60, 0
2, 38803, Note_on_c, 0, 57, 0
2, 38804, Note_on_c, 0, 54, 0
2, 38807, Note_on_c, 0, 63, 0
2, 38835, Note_on_c, 0, 60, 51
2, 38836, Note_on_c, 0, 54, 41
2, 38842, Note_on_c, 0, 60, 0
2, 38843, Note_on_c, 0, 54, 0
2, 38882, Control_c, 0, 64, 56
2, 38885, Control_c, 0, 64, 0
2, 38892, Note_on_c, 0, 33, 65
2, 38896, Note_on_c, 0, 45, 43
2, 38896, Control_c, 0, 64, 40
2, 38898, Control_c, 0, 64, 88
2, 38899, Note_on_c, 0, 33, 0
2, 38901, Control_c, 0, 64, 127
2, 38907, Note_on_c, 0, 45, 0
2, 38946, Note_on_c, 0, 61, 42
2, 38946, Note_on_c, 0, 52, 56
2, 38948, Note_on_c, 0, 57, 42
2, 38953, Note_on_c, 0, 52, 0
2, 38958, Note_on_c, 0, 57, 0
2, 38958, Note_on_c, 0, 61, 0
2, 38982, Note_on_c, 0, 61, 42
2, 38986, Note_on_c, 0, 57, 37
2, 38986, Note_on_c, 0, 52, 37
2, 38994, Note_on_c, 0, 52, 0
2, 38996, Note_on_c, 0, 57, 0
2, 38997, Note_on_c, 0, 61, 0
2, 39022, Note_on_c, 0, 64, 77
2, 39025, Note_on_c, 0, 61, 44
2, 39027, Note_on_c, 0, 52, 44
2, 39030, Note_on_c, 0, 57, 34
2, 39034, Note_on_c, 0, 52, 0
2, 39037, Note_on_c, 0, 57, 0
2, 39040, Note_on_c, 0, 61, 0
2, 39068, Note_on_c, 0, 52, 56
2, 39070, Note_on_c, 0, 61, 41
2, 39075, Note_on_c, 0, 57, 34
2, 39081, Note_on_c, 0, 52, 0
2, 39082, Note_on_c, 0, 64, 0
2, 39082, Note_on_c, 0, 61, 0
2, 39082, Note_on_c, 0, 57, 0
2, 39106, Note_on_c, 0, 61, 67
2, 39106, Note_on_c, 0, 52, 51
2, 39114, Note_on_c, 0, 52, 0
2, 39118, Note_on_c, 0, 61, 0
2, 39130, Note_on_c, 0, 61, 68
2, 39148, Note_on_c, 0, 61, 0
2, 39153, Note_on_c, 0, 64, 85
2, 39160, Note_on_c, 0, 57, 40
2, 39160, Control_c, 0, 64, 104
2, 39162, Note_on_c, 0, 54, 39
2, 39163, Note_on_c, 0, 60, 34
2, 39163, Control_c, 0, 64, 40
2, 39166, Control_c, 0, 64, 0
2, 39171, Note_on_c, 0, 60, 0
2, 39172, Note_on_c, 0, 57, 0
2, 39173, Note_on_c, 0, 54, 0
2, 39182, Control_c, 0, 64, 40
2, 39186, Control_c, 0, 64, 104
2, 39188, Control_c, 0, 64, 127
2, 39196, Note_on_c, 0, 60, 48
2, 39196, Note_on_c, 0, 57, 46
2, 39197, Note_on_c, 0, 54, 35
2, 39208, Note_on_c, 0, 54, 0
2, 39208, Note_on_c, 0, 57, 0
2, 39208, Note_on_c, 0, 60, 0
2, 39236, Note_on_c, 0, 54, 35
2, 39236, Note_on_c, 0, 57, 41
2, 39238, Note_on_c, 0, 60, 31
2, 39244, Note_on_c, 0, 57, 0
2, 39246, Note_on_c, 0, 60, 0
2, 39247, Note_on_c, 0, 54, 0
2, 39276, Note_on_c, 0, 64, 0
2, 39277, Control_c, 0, 64, 104
2, 39280, Control_c, 0, 64, 40
2, 39281, Note_on_c, 0, 63, 66
2, 39281, Note_on_c, 0, 54, 35
2, 39282, Note_on_c, 0, 57, 34
2, 39282, Control_c, 0, 64, 0
2, 39283, Note_on_c, 0, 60, 22
2, 39290, Note_on_c, 0, 57, 0
2, 39291, Note_on_c, 0, 60, 0
2, 39293, Note_on_c, 0, 54, 0
2, 39293, Control_c, 0, 64, 24
2, 39296, Control_c, 0, 64, 56
2, 39300, Control_c, 0, 64, 104
2, 39302, Control_c, 0, 64, 127
2, 39320, Note_on_c, 0, 54, 38
2, 39321, Note_on_c, 0, 57, 43
2, 39321, Note_on_c, 0, 60, 34
2, 39328, Note_on_c, 0, 57, 0
2, 39331, Note_on_c, 0, 60, 0
2, 39332, Note_on_c, 0, 54, 0
2, 39362, Note_on_c, 0, 54, 38
2, 39363, Note_on_c, 0, 60, 34
2, 39363, Note_on_c, 0, 57, 42
2, 39371, Note_on_c, 0, 57, 0
2, 39373, Note_on_c, 0, 60, 0
2, 39374, Note_on_c, 0, 54, 0
2, 39407, Note_on_c, 0, 54, 36
2, 39408, Note_on_c, 0, 60, 34
2, 39410, Note_on_c, 0, 57, 43
2, 39425, Note_on_c, 0, 57, 0
2, 39425, Note_on_c, 0, 54, 0
2, 39428, Note_on_c, 0, 60, 0
2, 39486, Control_c, 0, 64, 88
2, 39488, Control_c, 0, 64, 56
2, 39491, Control_c, 0, 64, 0
2, 39499, Note_on_c, 0, 63, 0
2, 39535, Note_on_c, 0, 64, 61
2, 39570, Control_c, 0, 64, 24
2, 39572, Control_c, 0, 64, 56
2, 39576, Control_c, 0, 64, 104
2, 39578, Control_c, 0, 64, 127
2, 39627, Note_on_c, 0, 64, 0
2, 39627, Note_on_c, 0, 63, 53
2, 39638, Control_c, 0, 64, 88
2, 39642, Control_c, 0, 64, 0
2, 39661, Control_c, 0, 64, 56
2, 39665, Control_c, 0, 64, 127
2, 39679, Note_on_c, 0, 63, 0
2, 39683, Note_on_c, 0, 54, 35
2, 39685, Note_on_c, 0, 57, 42
2, 39686, Note_on_c, 0, 60, 36
2, 39700, Note_on_c, 0, 54, 0
2, 39705, Note_on_c, 0, 57, 0
2, 39708, Note_on_c, 0, 60, 0
2, 39758, Control_c, 0, 64, 88
2, 39761, Control_c, 0, 64, 72
2, 39765, Control_c, 0, 64, 40
2, 39767, Control_c, 0, 64, 0
2, 39827, Note_on_c, 0, 64, 69
2, 39842, Control_c, 0, 64, 40
2, 39845, Control_c, 0, 64, 88
2, 39848, Control_c, 0, 64, 127
2, 39911, Note_on_c, 0, 63, 55
2, 39912, Control_c, 0, 64, 88
2, 39914, Note_on_c, 0, 64, 0
2, 39915, Control_c, 0, 64, 40
2, 39917, Control_c, 0, 64, 0
2, 39937, Control_c, 0, 64, 40
2, 39940, Control_c, 0, 64, 72
2, 39942, Control_c, 0, 64, 56
2, 39946, Control_c, 0, 64, 24
2, 39948, Control_c, 0, 64, 0
2, 39962, Note_on_c, 0, 54, 39
2, 39965, Note_on_c, 0, 57, 38
2, 39965, Note_on_c, 0, 60, 32
2, 39967, Control_c, 0, 64, 24
2, 39968, Note_on_c, 0, 63, 0
2, 39970, Control_c, 0, 64, 72
2, 39973, Control_c, 0, 64, 127
2, 39998, Note_on_c, 0, 54, 0
2, 40000, Note_on_c, 0, 57, 0
2, 40001, Note_on_c, 0, 60, 0
2, 40048, Control_c, 0, 64, 88
2, 40051, Control_c, 0, 64, 40
2, 40055, Control_c, 0, 64, 0
2, 40111, Note_on_c, 0, 64, 54
2, 40132, Control_c, 0, 64, 24
2, 40135, Control_c, 0, 64, 56
2, 40137, Control_c, 0, 64, 88
2, 40140, Control_c, 0, 64, 104
2, 40142, Control_c, 0, 64, 127
2, 40171, Control_c, 0, 64, 104
2, 40173, Control_c, 0, 64, 88
2, 40176, Control_c, 0, 64, 72
2, 40178, Control_c, 0, 64, 56
2, 40191, Control_c, 0, 64, 88
2, 40193, Control_c, 0, 64, 104
2, 40196, Control_c, 0, 64, 127
2, 40201, Control_c, 0, 64, 88
2, 40205, Control_c, 0, 64, 72
2, 40207, Control_c, 0, 64, 40
2, 40210, Control_c, 0, 64, 24
2, 40212, Control_c, 0, 64, 0
2, 40230, Control_c, 0, 64, 40
2, 40235, Control_c, 0, 64, 56
2, 40237, Control_c, 0, 64, 72
2, 40240, Control_c, 0, 64, 88
2, 40243, Control_c, 0, 64, 104
2, 40248, Control_c, 0, 64, 127
2, 40359, Note_on_c, 0, 64, 0
2, 40360, Note_on_c, 0, 63, 56
2, 40380, Control_c, 0, 64, 88
2, 40382, Control_c, 0, 64, 56
2, 40385, Control_c, 0, 64, 24
2, 40387, Control_c, 0, 64, 0
2, 40413, Control_c, 0, 64, 24
2, 40416, Control_c, 0, 64, 72
2, 40418, Control_c, 0, 64, 104
2, 40421, Control_c, 0, 64, 127
2, 40622, Note_on_c, 0, 64, 55
2, 40626, Note_on_c, 0, 63, 0
2, 40636, Control_c, 0, 64, 104
2, 40638, Control_c, 0, 64, 88
2, 40641, Control_c, 0, 64, 56
2, 40643, Control_c, 0, 64, 24
2, 40647, Control_c, 0, 64, 0
2, 40666, Control_c, 0, 64, 56
2, 40670, Control_c, 0, 64, 104
2, 40672, Control_c, 0, 64, 127
2, 40752, Note_on_c, 0, 64, 0
2, 40756, Note_on_c, 0, 63, 51
2, 40772, Control_c, 0, 64, 104
2, 40775, Control_c, 0, 64, 72
2, 40777, Control_c, 0, 64, 40
2, 40780, Control_c, 0, 64, 0
2, 40802, Control_c, 0, 64, 24
2, 40806, Control_c, 0, 64, 56
2, 40813, Control_c, 0, 64, 0
2, 40833, Control_c, 0, 64, 56
2, 40836, Control_c, 0, 64, 104
2, 40838, Control_c, 0, 64, 127
2, 40912, Note_on_c, 0, 63, 0
2, 40915, Note_on_c, 0, 64, 32
2, 40931, Control_c, 0, 64, 104
2, 40933, Control_c, 0, 64, 88
2, 40936, Control_c, 0, 64, 72
2, 40938, Control_c, 0, 64, 56
2, 40941, Control_c, 0, 64, 40
2, 40945, Control_c, 0, 64, 55
2, 40947, Control_c, 0, 64, 90
2, 41076, Note_on_c, 0, 44, 48
2, 41098, Note_on_c, 0, 64, 0
2, 41103, Note_on_c, 0, 44, 0
2, 41166, Note_on_c, 0, 54, 48
2, 41167, Note_on_c, 0, 56, 43
2, 41170, Note_on_c, 0, 60, 48
2, 41178, Note_on_c, 0, 56, 0
2, 41178, Note_on_c, 0, 54, 0
2, 41181, Note_on_c, 0, 60, 0
2, 41232, Note_on_c, 0, 64, 77
2, 41233, Note_on_c, 0, 60, 49
2, 41235, Note_on_c, 0, 54, 40
2, 41236, Note_on_c, 0, 56, 39
2, 41246, Note_on_c, 0, 56, 0
2, 41246, Note_on_c, 0, 60, 0
2, 41247, Note_on_c, 0, 54, 0
2, 41291, Note_on_c, 0, 60, 52
2, 41291, Note_on_c, 0, 54, 40
2, 41292, Note_on_c, 0, 56, 42
2, 41303, Note_on_c, 0, 56, 0
2, 41303, Note_on_c, 0, 60, 0
2, 41304, Note_on_c, 0, 54, 0
2, 41342, Note_on_c, 0, 54, 43
2, 41345, Note_on_c, 0, 60, 50
2, 41345, Note_on_c, 0, 56, 42
2, 41353, Note_on_c, 0, 56, 0
2, 41355, Note_on_c, 0, 60, 0
2, 41355, Note_on_c, 0, 54, 0
2, 41359, Note_on_c, 0, 64, 0
2, 41372, Control_c, 0, 67, 127
2, 41402, Note_on_c, 0, 60, 48
2, 41402, Note_on_c, 0, 54, 46
2, 41403, Note_on_c, 0, 65, 85
2, 41407, Note_on_c, 0, 56, 40
2, 41410, Note_on_c, 0, 60, 0
2, 41418, Note_on_c, 0, 54, 0
2, 41420, Note_on_c, 0, 56, 0
2, 41447, Control_c, 0, 64, 88
2, 41451, Control_c, 0, 64, 0
2, 41460, Note_on_c, 0, 44, 60
2, 41477, Control_c, 0, 64, 72
2, 41481, Note_on_c, 0, 44, 0
2, 41481, Control_c, 0, 64, 127
2, 41511, Note_on_c, 0, 65, 0
2, 41517, Control_c, 0, 67, 0
2, 41520, Note_on_c, 0, 60, 53
2, 41522, Note_on_c, 0, 54, 39
2, 41525, Note_on_c, 0, 56, 30
2, 41531, Note_on_c, 0, 60, 0
2, 41532, Note_on_c, 0, 56, 0
2, 41533, Note_on_c, 0, 54, 0
2, 41575, Note_on_c, 0, 70, 77
2, 41582, Note_on_c, 0, 54, 51
2, 41585, Note_on_c, 0, 60, 52
2, 41590, Note_on_c, 0, 56, 31
2, 41596, Note_on_c, 0, 60, 0
2, 41598, Note_on_c, 0, 56, 0
2, 41600, Note_on_c, 0, 54, 0
2, 41640, Note_on_c, 0, 54, 39
2, 41641, Note_on_c, 0, 60, 49
2, 41643, Note_on_c, 0, 56, 36
2, 41651, Note_on_c, 0, 56, 0
2, 41652, Note_on_c, 0, 60, 0
2, 41655, Note_on_c, 0, 54, 0
2, 41695, Note_on_c, 0, 54, 45
2, 41696, Note_on_c, 0, 60, 51
2, 41696, Note_on_c, 0, 56, 43
2, 41707, Note_on_c, 0, 60, 0
2, 41708, Note_on_c, 0, 56, 0
2, 41710, Note_on_c, 0, 54, 0
2, 41711, Note_on_c, 0, 70, 0
2, 41752, Note_on_c, 0, 64, 75
2, 41758, Note_on_c, 0, 54, 42
2, 41766, Note_on_c, 0, 54, 0
2, 41813, Control_c, 0, 64, 40
2, 41817, Note_on_c, 0, 37, 61
2, 41817, Control_c, 0, 64, 0
2, 41835, Control_c, 0, 64, 40
2, 41838, Note_on_c, 0, 37, 0
2, 41840, Control_c, 0, 64, 127
2, 41882, Note_on_c, 0, 61, 38
2, 41897, Note_on_c, 0, 53, 44
2, 41903, Note_on_c, 0, 61, 0
2, 41905, Note_on_c, 0, 53, 0
2, 41905, Note_on_c, 0, 64, 0
2, 41930, Note_on_c, 0, 65, 72
2, 41932, Note_on_c, 0, 61, 48
2, 41937, Note_on_c, 0, 53, 41
2, 41948, Note_on_c, 0, 53, 0
2, 41952, Note_on_c, 0, 61, 0
2, 41987, Note_on_c, 0, 65, 0
2, 41996, Note_on_c, 0, 57, 76
2, 42037, Note_on_c, 0, 57, 0
2, 42045, Note_on_c, 0, 61, 44
2, 42051, Note_on_c, 0, 53, 45
2, 42062, Note_on_c, 0, 53, 0
2, 42062, Note_on_c, 0, 61, 0
2, 42097, Note_on_c, 0, 57, 81
2, 42103, Note_on_c, 0, 61, 35
2, 42110, Note_on_c, 0, 53, 38
2, 42121, Note_on_c, 0, 53, 0
2, 42121, Note_on_c, 0, 61, 0
2, 42122, Note_on_c, 0, 57, 0
2, 42150, Note_on_c, 0, 57, 83
2, 42187, Note_on_c, 0, 57, 0
2, 42198, Note_on_c, 0, 61, 46
2, 42203, Note_on_c, 0, 53, 52
2, 42214, Note_on_c, 0, 53, 0
2, 42215, Note_on_c, 0, 61, 0
2, 42248, Note_on_c, 0, 56, 75
2, 42252, Note_on_c, 0, 61, 56
2, 42268, Note_on_c, 0, 61, 0
2, 42268, Note_on_c, 0, 56, 0
2, 42287, Note_on_c, 0, 56, 67
2, 42323, Control_c, 0, 64, 104
2, 42327, Note_on_c, 0, 49, 42
2, 42327, Note_on_c, 0, 65, 66
2, 42327, Control_c, 0, 64, 40
2, 42330, Note_on_c, 0, 56, 0
2, 42332, Control_c, 0, 64, 0
2, 42362, Note_on_c, 0, 49, 0
2, 42366, Control_c, 0, 64, 104
2, 42371, Control_c, 0, 64, 127
2, 42380, Note_on_c, 0, 61, 35
2, 42385, Note_on_c, 0, 56, 39
2, 42400, Note_on_c, 0, 56, 0
2, 42402, Note_on_c, 0, 61, 0
2, 42447, Note_on_c, 0, 61, 45
2, 42450, Note_on_c, 0, 56, 49
2, 42457, Note_on_c, 0, 53, 42
2, 42459, Note_on_c, 0, 61, 0
2, 42460, Note_on_c, 0, 56, 0
2, 42465, Note_on_c, 0, 53, 0
2, 42475, Note_on_c, 0, 65, 0
2, 42520, Control_c, 0, 64, 88
2, 42522, Note_on_c, 0, 44, 58
2, 42523, Control_c, 0, 64, 40
2, 42528, Control_c, 0, 64, 0
2, 42541, Control_c, 0, 64, 104
2, 42545, Note_on_c, 0, 44, 0
2, 42546, Control_c, 0, 64, 127
2, 42587, Note_on_c, 0, 54, 45
2, 42588, Note_on_c, 0, 56, 37
2, 42591, Note_on_c, 0, 60, 48
2, 42605, Note_on_c, 0, 56, 0
2, 42606, Note_on_c, 0, 60, 0
2, 42607, Note_on_c, 0, 54, 0
2, 42648, Note_on_c, 0, 64, 83
2, 42655, Note_on_c, 0, 54, 48
2, 42655, Note_on_c, 0, 56, 42
2, 42656, Note_on_c, 0, 60, 50
2, 42668, Note_on_c, 0, 60, 0
2, 42671, Note_on_c, 0, 56, 0
2, 42671, Note_on_c, 0, 54, 0
2, 42711, Note_on_c, 0, 60, 60
2, 42712, Note_on_c, 0, 54, 44
2, 42712, Note_on_c, 0, 56, 43
2, 42723, Note_on_c, 0, 54, 0
2, 42723, Note_on_c, 0, 60, 0
2, 42724, Note_on_c, 0, 56, 0
2, 42749, Note_on_c, 0, 64, 0
2, 42761, Note_on_c, 0, 60, 64
2, 42761, Note_on_c, 0, 56, 50
2, 42762, Note_on_c, 0, 54, 47
2, 42773, Note_on_c, 0, 54, 0
2, 42774, Note_on_c, 0, 56, 0
2, 42774, Note_on_c, 0, 60, 0
2, 42817, Note_on_c, 0, 65, 80
2, 42818, Note_on_c, 0, 60, 52
2, 42818, Note_on_c, 0, 54, 40
2, 42823, Note_on_c, 0, 56, 29
2, 42828, Note_on_c, 0, 60, 0
2, 42830, Note_on_c, 0, 56, 0
2, 42833, Note_on_c, 0, 54, 0
2, 42860, Control_c, 0, 64, 104
2, 42862, Control_c, 0, 64, 24
2, 42867, Control_c, 0, 64, 0
2, 42871, Note_on_c, 0, 44, 65
2, 42887, Note_on_c, 0, 44, 0
2, 42893, Control_c, 0, 64, 88
2, 42898, Control_c, 0, 64, 127
2, 42925, Note_on_c, 0, 54, 55
2, 42926, Note_on_c, 0, 60, 62
2, 42926, Note_on_c, 0, 56, 44
2, 42932, Note_on_c, 0, 65, 0
2, 42936, Note_on_c, 0, 56, 0
2, 42936, Note_on_c, 0, 60, 0
2, 42943, Note_on_c, 0, 54, 0
2, 42976, Note_on_c, 0, 70, 81
2, 42985, Note_on_c, 0, 54, 46
2, 42985, Note_on_c, 0, 60, 60
2, 42987, Note_on_c, 0, 56, 37
2, 42995, Note_on_c, 0, 56, 0
2, 42996, Note_on_c, 0, 60, 0
2, 42998, Note_on_c, 0, 54, 0
2, 43041, Note_on_c, 0, 60, 47
2, 43045, Note_on_c, 0, 56, 33
2, 43052, Note_on_c, 0, 60, 0
2, 43055, Note_on_c, 0, 56, 0
2, 43096, Note_on_c, 0, 60, 50
2, 43096, Note_on_c, 0, 56, 38
2, 43097, Note_on_c, 0, 54, 39
2, 43105, Note_on_c, 0, 54, 0
2, 43107, Note_on_c, 0, 56, 0
2, 43107, Note_on_c, 0, 60, 0
2, 43122, Note_on_c, 0, 70, 0
2, 43136, Note_on_c, 0, 64, 80
2, 43150, Note_on_c, 0, 56, 49
2, 43150, Note_on_c, 0, 54, 49
2, 43151, Note_on_c, 0, 60, 49
2, 43158, Note_on_c, 0, 54, 0
2, 43158, Note_on_c, 0, 56, 0
2, 43159, Note_on_c, 0, 60, 0
2, 43207, Control_c, 0, 64, 72
2, 43211, Note_on_c, 0, 37, 57
2, 43212, Control_c, 0, 64, 0
2, 43228, Control_c, 0, 64, 88
2, 43231, Note_on_c, 0, 37, 0
2, 43235, Control_c, 0, 64, 127
2, 43273, Note_on_c, 0, 61, 52
2, 43287, Note_on_c, 0, 53, 36
2, 43291, Note_on_c, 0, 61, 0
2, 43297, Note_on_c, 0, 53, 0
2, 43329, Note_on_c, 0, 64, 0
2, 43337, Note_on_c, 0, 61, 36
2, 43338, Note_on_c, 0, 65, 77
2, 43342, Note_on_c, 0, 53, 28
2, 43348, Note_on_c, 0, 61, 0
2, 43352, Note_on_c, 0, 53, 0
2, 43395, Note_on_c, 0, 65, 0
2, 43402, Note_on_c, 0, 57, 73
2, 43430, Control_c, 0, 64, 56
2, 43433, Control_c, 0, 64, 24
2, 43438, Control_c, 0, 64, 56
2, 43442, Control_c, 0, 64, 104
2, 43447, Control_c, 0, 64, 127
2, 43455, Note_on_c, 0, 61, 43
2, 43461, Note_on_c, 0, 53, 51
2, 43469, Note_on_c, 0, 53, 0
2, 43470, Note_on_c, 0, 57, 0
2, 43476, Note_on_c, 0, 61, 0
2, 43500, Note_on_c, 0, 57, 84
2, 43512, Note_on_c, 0, 61, 41
2, 43515, Note_on_c, 0, 53, 48
2, 43526, Note_on_c, 0, 53, 0
2, 43528, Note_on_c, 0, 61, 0
2, 43535, Note_on_c, 0, 57, 0
2, 43555, Note_on_c, 0, 57, 80
2, 43601, Note_on_c, 0, 61, 50
2, 43602, Note_on_c, 0, 57, 0
2, 43610, Note_on_c, 0, 53, 40
2, 43619, Note_on_c, 0, 61, 0
2, 43622, Note_on_c, 0, 53, 0
2, 43655, Note_on_c, 0, 56, 66
2, 43658, Note_on_c, 0, 53, 58
2, 43660, Note_on_c, 0, 61, 45
2, 43668, Note_on_c, 0, 53, 0
2, 43670, Note_on_c, 0, 61, 0
2, 43671, Note_on_c, 0, 56, 0
2, 43700, Note_on_c, 0, 56, 67
2, 43716, Note_on_c, 0, 56, 0
2, 43725, Note_on_c, 0, 49, 48
2, 43735, Control_c, 0, 64, 72
2, 43738, Control_c, 0, 64, 0
2, 43740, Note_on_c, 0, 65, 65
2, 43773, Control_c, 0, 64, 88
2, 43776, Note_on_c, 0, 49, 0
2, 43778, Control_c, 0, 64, 127
2, 43790, Note_on_c, 0, 61, 43
2, 43812, Note_on_c, 0, 61, 0
2, 43853, Note_on_c, 0, 61, 37
2, 43863, Note_on_c, 0, 56, 35
2, 43878, Note_on_c, 0, 61, 0
2, 43891, Note_on_c, 0, 65, 0
2, 43911, Note_on_c, 0, 56, 0
2, 43922, Note_on_c, 0, 47, 70
2, 43935, Control_c, 0, 64, 88
2, 43940, Control_c, 0, 64, 24
2, 43943, Control_c, 0, 64, 0
2, 43957, Control_c, 0, 64, 24
2, 43958, Note_on_c, 0, 47, 0
2, 43961, Control_c, 0, 64, 127
2, 43991, Note_on_c, 0, 56, 38
2, 43992, Note_on_c, 0, 62, 46
2, 43993, Note_on_c, 0, 53, 33
2, 44008, Note_on_c, 0, 62, 0
2, 44011, Note_on_c, 0, 53, 0
2, 44011, Note_on_c, 0, 56, 0
2, 44040, Note_on_c, 0, 64, 86
2, 44048, Note_on_c, 0, 62, 44
2, 44048, Note_on_c, 0, 56, 38
2, 44050, Note_on_c, 0, 53, 50
2, 44063, Note_on_c, 0, 62, 0
2, 44065, Note_on_c, 0, 53, 0
2, 44066, Note_on_c, 0, 56, 0
2, 44102, Note_on_c, 0, 56, 45
2, 44105, Note_on_c, 0, 62, 48
2, 44106, Note_on_c, 0, 53, 42
2, 44115, Note_on_c, 0, 62, 0
2, 44117, Note_on_c, 0, 53, 0
2, 44117, Note_on_c, 0, 56, 0
2, 44148, Note_on_c, 0, 56, 48
2, 44151, Note_on_c, 0, 62, 51
2, 44152, Note_on_c, 0, 53, 45
2, 44159, Note_on_c, 0, 56, 0
2, 44161, Note_on_c, 0, 62, 0
2, 44164, Note_on_c, 0, 53, 0
2, 44172, Note_on_c, 0, 64, 0
2, 44198, Note_on_c, 0, 65, 88
2, 44203, Note_on_c, 0, 53, 50
2, 44203, Note_on_c, 0, 62, 48
2, 44203, Note_on_c, 0, 56, 57
2, 44213, Note_on_c, 0, 62, 0
2, 44213, Note_on_c, 0, 53, 0
2, 44220, Note_on_c, 0, 56, 0
2, 44253, Control_c, 0, 64, 56
2, 44257, Control_c, 0, 64, 0
2, 44262, Note_on_c, 0, 46, 72
2, 44279, Note_on_c, 0, 46, 0
2, 44280, Control_c, 0, 64, 88
2, 44285, Control_c, 0, 64, 127
2, 44321, Note_on_c, 0, 62, 55
2, 44321, Note_on_c, 0, 56, 49
2, 44331, Note_on_c, 0, 53, 36
2, 44337, Note_on_c, 0, 56, 0
2, 44342, Note_on_c, 0, 53, 0
2, 44343, Note_on_c, 0, 62, 0
2, 44358, Note_on_c, 0, 65, 0
2, 44366, Note_on_c, 0, 71, 88
2, 44380, Note_on_c, 0, 62, 55
2, 44380, Note_on_c, 0, 56, 46
2, 44382, Note_on_c, 0, 53, 48
2, 44392, Note_on_c, 0, 62, 0
2, 44395, Note_on_c, 0, 56, 0
2, 44397, Note_on_c, 0, 53, 0
2, 44433, Note_on_c, 0, 56, 51
2, 44436, Note_on_c, 0, 53, 56
2, 44436, Note_on_c, 0, 62, 55
2, 44447, Note_on_c, 0, 62, 0
2, 44447, Note_on_c, 0, 53, 0
2, 44450, Note_on_c, 0, 56, 0
2, 44490, Note_on_c, 0, 62, 62
2, 44490, Note_on_c, 0, 56, 50
2, 44495, Note_on_c, 0, 53, 35
2, 44501, Note_on_c, 0, 62, 0
2, 44505, Note_on_c, 0, 56, 0
2, 44506, Note_on_c, 0, 53, 0
2, 44548, Note_on_c, 0, 71, 0
2, 44550, Note_on_c, 0, 62, 48
2, 44550, Note_on_c, 0, 56, 42
2, 44556, Note_on_c, 0, 65, 76
2, 44560, Note_on_c, 0, 56, 0
2, 44560, Note_on_c, 0, 62, 0
2, 44615, Control_c, 0, 64, 72
2, 44620, Control_c, 0, 64, 0
2, 44621, Note_on_c, 0, 39, 67
2, 44641, Control_c, 0, 64, 88
2, 44646, Control_c, 0, 64, 127
2, 44656, Note_on_c, 0, 39, 0
2, 44688, Note_on_c, 0, 63, 48
2, 44698, Note_on_c, 0, 63, 0
2, 44733, Note_on_c, 0, 65, 0
2, 44733, Note_on_c, 0, 66, 77
2, 44738, Note_on_c, 0, 63, 56
2, 44740, Note_on_c, 0, 54, 46
2, 44742, Note_on_c, 0, 58, 42
2, 44752, Note_on_c, 0, 58, 0
2, 44753, Note_on_c, 0, 63, 0
2, 44757, Note_on_c, 0, 54, 0
2, 44760, Note_on_c, 0, 66, 0
2, 44805, Note_on_c, 0, 59, 79
2, 44851, Note_on_c, 0, 63, 57
2, 44855, Note_on_c, 0, 54, 45
2, 44860, Note_on_c, 0, 57, 48
2, 44866, Note_on_c, 0, 59, 0
2, 44870, Note_on_c, 0, 57, 0
2, 44871, Note_on_c, 0, 54, 0
2, 44871, Note_on_c, 0, 63, 0
2, 44908, Note_on_c, 0, 63, 48
2, 44910, Note_on_c, 0, 54, 42
2, 44912, Note_on_c, 0, 59, 87
2, 44918, Note_on_c, 0, 57, 33
2, 44929, Note_on_c, 0, 57, 0
2, 44929, Note_on_c, 0, 63, 0
2, 44930, Note_on_c, 0, 54, 0
2, 44937, Note_on_c, 0, 59, 0
2, 44966, Note_on_c, 0, 59, 88
2, 44993, Note_on_c, 0, 59, 0
2, 45013, Note_on_c, 0, 63, 47
2, 45021, Note_on_c, 0, 54, 38
2, 45025, Note_on_c, 0, 57, 45
2, 45036, Note_on_c, 0, 57, 0
2, 45037, Note_on_c, 0, 54, 0
2, 45038, Note_on_c, 0, 63, 0
2, 45068, Note_on_c, 0, 58, 76
2, 45070, Note_on_c, 0, 63, 62
2, 45073, Note_on_c, 0, 54, 50
2, 45085, Note_on_c, 0, 54, 0
2, 45087, Note_on_c, 0, 63, 0
2, 45088, Note_on_c, 0, 58, 0
2, 45106, Note_on_c, 0, 58, 68
2, 45133, Note_on_c, 0, 66, 70
2, 45137, Note_on_c, 0, 51, 60
2, 45142, Control_c, 0, 64, 72
2, 45147, Control_c, 0, 64, 0
2, 45164, Note_on_c, 0, 58, 0
2, 45181, Control_c, 0, 64, 56
2, 45186, Control_c, 0, 64, 127
2, 45202, Note_on_c, 0, 58, 40
2, 45203, Note_on_c, 0, 63, 39
2, 45224, Note_on_c, 0, 63, 0
2, 45228, Note_on_c, 0, 58, 0
2, 45234, Note_on_c, 0, 51, 0
2, 45262, Note_on_c, 0, 63, 46
2, 45262, Note_on_c, 0, 58, 42
2, 45278, Note_on_c, 0, 63, 0
2, 45279, Note_on_c, 0, 58, 0
2, 45301, Note_on_c, 0, 66, 0
2, 45336, Note_on_c, 0, 47, 72
2, 45338, Control_c, 0, 64, 56
2, 45343, Control_c, 0, 64, 0
2, 45360, Control_c, 0, 64, 24
2, 45364, Note_on_c, 0, 47, 0
2, 45365, Control_c, 0, 64, 127
2, 45400, Note_on_c, 0, 62, 54
2, 45401, Note_on_c, 0, 56, 40
2, 45407, Note_on_c, 0, 53, 37
2, 45417, Note_on_c, 0, 53, 0
2, 45417, Note_on_c, 0, 62, 0
2, 45419, Note_on_c, 0, 56, 0
2, 45447, Note_on_c, 0, 64, 87
2, 45458, Note_on_c, 0, 56, 41
2, 45460, Note_on_c, 0, 53, 58
2, 45461, Note_on_c, 0, 62, 48
2, 45472, Note_on_c, 0, 62, 0
2, 45473, Note_on_c, 0, 53, 0
2, 45473, Note_on_c, 0, 56, 0
2, 45508, Note_on_c, 0, 62, 62
2, 45508, Note_on_c, 0, 56, 55
2, 45510, Note_on_c, 0, 53, 61
2, 45522, Note_on_c, 0, 53, 0
2, 45523, Note_on_c, 0, 62, 0
2, 45525, Note_on_c, 0, 56, 0
2, 45557, Note_on_c, 0, 56, 46
2, 45560, Note_on_c, 0, 62, 51
2, 45560, Note_on_c, 0, 53, 53
2, 45571, Note_on_c, 0, 53, 0
2, 45572, Note_on_c, 0, 62, 0
2, 45574, Note_on_c, 0, 56, 0
2, 45584, Note_on_c, 0, 64, 0
2, 45610, Note_on_c, 0, 65, 82
2, 45613, Note_on_c, 0, 56, 64
2, 45617, Note_on_c, 0, 62, 42
2, 45618, Note_on_c, 0, 53, 52
2, 45625, Note_on_c, 0, 62, 0
2, 45628, Note_on_c, 0, 53, 0
2, 45635, Note_on_c, 0, 56, 0
2, 45670, Control_c, 0, 64, 88
2, 45672, Note_on_c, 0, 46, 76
2, 45673, Control_c, 0, 64, 24
2, 45678, Control_c, 0, 64, 0
2, 45695, Note_on_c, 0, 46, 0
2, 45700, Control_c, 0, 64, 127
2, 45733, Note_on_c, 0, 56, 46
2, 45735, Note_on_c, 0, 53, 64
2, 45736, Note_on_c, 0, 62, 48
2, 45745, Note_on_c, 0, 53, 0
2, 45747, Note_on_c, 0, 62, 0
2, 45751, Note_on_c, 0, 56, 0
2, 45783, Note_on_c, 0, 65, 0
2, 45786, Note_on_c, 0, 71, 87
2, 45787, Note_on_c, 0, 56, 49
2, 45788, Note_on_c, 0, 62, 61
2, 45792, Note_on_c, 0, 53, 47
2, 45803, Note_on_c, 0, 53, 0
2, 45803, Note_on_c, 0, 62, 0
2, 45804, Note_on_c, 0, 56, 0
2, 45847, Note_on_c, 0, 62, 53
2, 45847, Note_on_c, 0, 56, 40
2, 45850, Note_on_c, 0, 53, 42
2, 45860, Note_on_c, 0, 62, 0
2, 45862, Note_on_c, 0, 56, 0
2, 45865, Note_on_c, 0, 53, 0
2, 45903, Note_on_c, 0, 56, 37
2, 45903, Note_on_c, 0, 62, 56
2, 45906, Note_on_c, 0, 53, 40
2, 45914, Note_on_c, 0, 62, 0
2, 45915, Note_on_c, 0, 56, 0
2, 45917, Note_on_c, 0, 53, 0
2, 45958, Note_on_c, 0, 62, 44
2, 45961, Note_on_c, 0, 71, 0
2, 45962, Note_on_c, 0, 53, 41
2, 45962, Note_on_c, 0, 56, 40
2, 45966, Note_on_c, 0, 62, 0
2, 45972, Note_on_c, 0, 56, 0
2, 45973, Note_on_c, 0, 65, 74
2, 45974, Note_on_c, 0, 53, 0
2, 46032, Note_on_c, 0, 39, 66
2, 46032, Control_c, 0, 64, 72
2, 46036, Control_c, 0, 64, 0
2, 46055, Note_on_c, 0, 39, 0
2, 46057, Control_c, 0, 64, 88
2, 46062, Control_c, 0, 64, 127
2, 46095, Note_on_c, 0, 54, 61
2, 46097, Note_on_c, 0, 63, 62
2, 46101, Note_on_c, 0, 58, 37
2, 46112, Note_on_c, 0, 58, 0
2, 46114, Note_on_c, 0, 63, 0
2, 46115, Note_on_c, 0, 54, 0
2, 46148, Note_on_c, 0, 65, 0
2, 46150, Note_on_c, 0, 66, 75
2, 46150, Note_on_c, 0, 63, 58
2, 46155, Note_on_c, 0, 54, 40
2, 46166, Note_on_c, 0, 54, 0
2, 46167, Note_on_c, 0, 63, 0
2, 46173, Note_on_c, 0, 66, 0
2, 46217, Note_on_c, 0, 59, 80
2, 46253, Note_on_c, 0, 59, 0
2, 46271, Note_on_c, 0, 63, 41
2, 46275, Note_on_c, 0, 54, 30
2, 46276, Note_on_c, 0, 57, 41
2, 46288, Note_on_c, 0, 57, 0
2, 46288, Note_on_c, 0, 54, 0
2, 46288, Note_on_c, 0, 63, 0
2, 46325, Note_on_c, 0, 63, 55
2, 46327, Note_on_c, 0, 59, 80
2, 46330, Note_on_c, 0, 54, 31
2, 46335, Note_on_c, 0, 57, 37
2, 46343, Note_on_c, 0, 54, 0
2, 46343, Note_on_c, 0, 63, 0
2, 46346, Note_on_c, 0, 57, 0
2, 46348, Note_on_c, 0, 59, 0
2, 46381, Note_on_c, 0, 59, 76
2, 46406, Note_on_c, 0, 59, 0
2, 46433, Note_on_c, 0, 63, 54
2, 46436, Note_on_c, 0, 54, 50
2, 46454, Note_on_c, 0, 63, 0
2, 46456, Note_on_c, 0, 54, 0
2, 46488, Note_on_c, 0, 58, 61
2, 46492, Note_on_c, 0, 54, 60
2, 46493, Note_on_c, 0, 63, 44
2, 46503, Note_on_c, 0, 58, 0
2, 46508, Note_on_c, 0, 63, 0
2, 46510, Note_on_c, 0, 54, 0
2, 46523, Note_on_c, 0, 58, 67
2, 46544, Note_on_c, 0, 58, 0
2, 46557, Note_on_c, 0, 58, 23
2, 46558, Note_on_c, 0, 66, 68
2, 46567, Note_on_c, 0, 51, 53
2, 46567, Control_c, 0, 64, 88
2, 46571, Control_c, 0, 64, 0
2, 46603, Note_on_c, 0, 58, 0
2, 46611, Control_c, 0, 64, 127
2, 46626, Note_on_c, 0, 58, 37
2, 46628, Note_on_c, 0, 63, 42
2, 46648, Note_on_c, 0, 51, 0
2, 46653, Note_on_c, 0, 58, 0
2, 46654, Note_on_c, 0, 63, 0
2, 46684, Note_on_c, 0, 66, 0
2, 46701, Note_on_c, 0, 63, 56
2, 46710, Note_on_c, 0, 58, 34
2, 46732, Note_on_c, 0, 63, 0
2, 46736, Note_on_c, 0, 58, 0
2, 46785, Note_on_c, 0, 48, 69
2, 46798, Control_c, 0, 64, 104
2, 46802, Control_c, 0, 64, 40
2, 46807, Control_c, 0, 64, 0
2, 46820, Note_on_c, 0, 48, 0
2, 46828, Control_c, 0, 64, 104
2, 46833, Control_c, 0, 64, 127
2, 46851, Note_on_c, 0, 63, 55
2, 46857, Note_on_c, 0, 58, 37
2, 46868, Note_on_c, 0, 58, 0
2, 46869, Note_on_c, 0, 63, 0
2, 46900, Note_on_c, 0, 66, 83
2, 46910, Note_on_c, 0, 63, 41
2, 46911, Note_on_c, 0, 58, 44
2, 46921, Note_on_c, 0, 58, 0
2, 46928, Note_on_c, 0, 63, 0
2, 46932, Note_on_c, 0, 66, 0
2, 46960, Note_on_c, 0, 58, 54
2, 46967, Note_on_c, 0, 63, 41
2, 46991, Note_on_c, 0, 73, 96
2, 46991, Note_on_c, 0, 66, 30
2, 46998, Note_on_c, 0, 58, 0
2, 47005, Note_on_c, 0, 63, 0
2, 47009, Note_on_c, 0, 66, 0
2, 47057, Note_on_c, 0, 73, 0
2, 47063, Note_on_c, 0, 66, 41
2, 47063, Note_on_c, 0, 63, 41
2, 47063, Note_on_c, 0, 58, 37
2, 47081, Note_on_c, 0, 66, 0
2, 47083, Note_on_c, 0, 63, 0
2, 47085, Note_on_c, 0, 58, 0
2, 47113, Note_on_c, 0, 66, 49
2, 47113, Note_on_c, 0, 63, 49
2, 47118, Note_on_c, 0, 58, 35
2, 47130, Note_on_c, 0, 63, 0
2, 47130, Note_on_c, 0, 66, 0
2, 47135, Note_on_c, 0, 58, 0
2, 47140, Note_on_c, 0, 73, 90
2, 47182, Note_on_c, 0, 73, 0
2, 47230, Note_on_c, 0, 73, 81
2, 47235, Note_on_c, 0, 41, 62
2, 47235, Control_c, 0, 64, 40
2, 47238, Control_c, 0, 64, 0
2, 47255, Note_on_c, 0, 41, 0
2, 47261, Control_c, 0, 64, 127
2, 47322, Note_on_c, 0, 66, 46
2, 47323, Note_on_c, 0, 63, 40
2, 47328, Note_on_c, 0, 57, 46
2, 47336, Note_on_c, 0, 63, 0
2, 47338, Note_on_c, 0, 66, 0
2, 47341, Note_on_c, 0, 57, 0
2, 47380, Note_on_c, 0, 57, 45
2, 47381, Note_on_c, 0, 66, 42
2, 47382, Note_on_c, 0, 63, 43
2, 47393, Note_on_c, 0, 63, 0
2, 47395, Note_on_c, 0, 57, 0
2, 47397, Note_on_c, 0, 66, 0
2, 47447, Note_on_c, 0, 57, 43
2, 47447, Note_on_c, 0, 66, 40
2, 47450, Note_on_c, 0, 63, 38
2, 47477, Note_on_c, 0, 66, 0
2, 47478, Note_on_c, 0, 57, 0
2, 47481, Note_on_c, 0, 63, 0
2, 47585, Note_on_c, 0, 73, 0
2, 47590, Note_on_c, 0, 72, 61
2, 47657, Control_c, 0, 64, 24
2, 47661, Control_c, 0, 64, 0
2, 47683, Note_on_c, 0, 46, 51
2, 47692, Control_c, 0, 64, 127
2, 47696, Note_on_c, 0, 72, 0
2, 47701, Note_on_c, 0, 46, 0
2, 47763, Note_on_c, 0, 56, 45
2, 47763, Note_on_c, 0, 63, 43
2, 47767, Note_on_c, 0, 65, 38
2, 47791, Note_on_c, 0, 56, 0
2, 47793, Note_on_c, 0, 65, 0
2, 47794, Note_on_c, 0, 63, 0
2, 47840, Note_on_c, 0, 84, 88
2, 47842, Note_on_c, 0, 65, 43
2, 47843, Note_on_c, 0, 63, 40
2, 47845, Note_on_c, 0, 72, 67
2, 47845, Note_on_c, 0, 56, 38
2, 47863, Note_on_c, 0, 63, 0
2, 47867, Note_on_c, 0, 65, 0
2, 47871, Note_on_c, 0, 56, 0
2, 47912, Note_on_c, 0, 77, 85
2, 47913, Note_on_c, 0, 56, 44
2, 47915, Note_on_c, 0, 65, 53
2, 47915, Note_on_c, 0, 63, 46
2, 47932, Note_on_c, 0, 63, 0
2, 47936, Note_on_c, 0, 56, 0
2, 47938, Note_on_c, 0, 65, 0
2, 47957, Note_on_c, 0, 72, 0
2, 47958, Note_on_c, 0, 84, 0
2, 47970, Note_on_c, 0, 63, 47
2, 47971, Note_on_c, 0, 65, 47
2, 47972, Note_on_c, 0, 56, 36
2, 47987, Note_on_c, 0, 65, 0
2, 47987, Note_on_c, 0, 63, 0
2, 47988, Note_on_c, 0, 56, 0
2, 48015, Note_on_c, 0, 77, 0
2, 48023, Note_on_c, 0, 71, 72
2, 48025, Note_on_c, 0, 83, 82
2, 48030, Note_on_c, 0, 56, 43
2, 48030, Note_on_c, 0, 63, 42
2, 48030, Note_on_c, 0, 65, 48
2, 48038, Note_on_c, 0, 63, 0
2, 48040, Note_on_c, 0, 71, 0
2, 48043, Note_on_c, 0, 65, 0
2, 48051, Note_on_c, 0, 56, 0
2, 48062, Note_on_c, 0, 83, 0
2, 48067, Note_on_c, 0, 71, 79
2, 48100, Note_on_c, 0, 65, 44
2, 48100, Note_on_c, 0, 56, 41
2, 48102, Note_on_c, 0, 62, 48
2, 48103, Note_on_c, 0, 83, 87
2, 48106, Control_c, 0, 64, 40
2, 48111, Control_c, 0, 64, 0
2, 48128, Note_on_c, 0, 65, 0
2, 48129, Note_on_c, 0, 62, 0
2, 48131, Note_on_c, 0, 56, 0
2, 48132, Control_c, 0, 64, 88
2, 48136, Control_c, 0, 64, 127
2, 48162, Note_on_c, 0, 56, 45
2, 48167, Note_on_c, 0, 65, 43
2, 48180, Note_on_c, 0, 65, 0
2, 48187, Note_on_c, 0, 56, 0
2, 48225, Note_on_c, 0, 65, 48
2, 48225, Note_on_c, 0, 56, 34
2, 48228, Note_on_c, 0, 62, 43
2, 48243, Note_on_c, 0, 62, 0
2, 48243, Note_on_c, 0, 71, 0
2, 48245, Note_on_c, 0, 65, 0
2, 48246, Note_on_c, 0, 56, 0
2, 48287, Note_on_c, 0, 56, 33
2, 48287, Note_on_c, 0, 65, 41
2, 48292, Note_on_c, 0, 62, 38
2, 48345, Note_on_c, 0, 62, 0
2, 48350, Note_on_c, 0, 65, 0
2, 48359, Note_on_c, 0, 56, 0
2, 48379, Note_on_c, 0, 83, 0
2, 48413, Note_on_c, 0, 70, 42
2, 48413, Note_on_c, 0, 82, 51
2, 48481, Control_c, 0, 64, 104
2, 48485, Control_c, 0, 64, 0
2, 48506, Note_on_c, 0, 46, 52
2, 48511, Control_c, 0, 64, 88
2, 48513, Note_on_c, 0, 82, 0
2, 48516, Control_c, 0, 64, 127
2, 48519, Note_on_c, 0, 70, 0
2, 48528, Note_on_c, 0, 46, 0
2, 48570, Note_on_c, 0, 61, 54
2, 48578, Note_on_c, 0, 56, 28
2, 48589, Note_on_c, 0, 56, 0
2, 48590, Note_on_c, 0, 61, 0
2, 48610, Note_on_c, 0, 64, 87
2, 48628, Note_on_c, 0, 56, 48
2, 48631, Note_on_c, 0, 61, 42
2, 48633, Note_on_c, 0, 64, 0
2, 48647, Note_on_c, 0, 61, 0
2, 48668, Note_on_c, 0, 64, 61
2, 48683, Note_on_c, 0, 64, 0
2, 48693, Note_on_c, 0, 56, 0
2, 48697, Note_on_c, 0, 71, 89
2, 48745, Note_on_c, 0, 71, 0
2, 48757, Note_on_c, 0, 56, 44
2, 48758, Note_on_c, 0, 64, 51
2, 48766, Note_on_c, 0, 61, 28
2, 48770, Note_on_c, 0, 64, 0
2, 48774, Note_on_c, 0, 61, 0
2, 48780, Note_on_c, 0, 56, 0
2, 48813, Note_on_c, 0, 56, 44
2, 48813, Note_on_c, 0, 64, 45
2, 48813, Note_on_c, 0, 61, 30
2, 48823, Note_on_c, 0, 64, 0
2, 48823, Note_on_c, 0, 71, 89
2, 48824, Note_on_c, 0, 61, 0
2, 48835, Note_on_c, 0, 56, 0
2, 48875, Note_on_c, 0, 71, 0
2, 48920, Note_on_c, 0, 39, 48
2, 48921, Control_c, 0, 64, 104
2, 48926, Note_on_c, 0, 71, 76
2, 48926, Control_c, 0, 64, 24
2, 48930, Control_c, 0, 64, 0
2, 48946, Note_on_c, 0, 39, 0
2, 48946, Control_c, 0, 64, 88
2, 48951, Control_c, 0, 64, 127
2, 48996, Note_on_c, 0, 55, 60
2, 48997, Note_on_c, 0, 61, 39
2, 49001, Note_on_c, 0, 64, 44
2, 49009, Note_on_c, 0, 55, 0
2, 49016, Note_on_c, 0, 64, 0
2, 49018, Note_on_c, 0, 61, 0
2, 49058, Note_on_c, 0, 61, 39
2, 49061, Note_on_c, 0, 64, 40
2, 49061, Note_on_c, 0, 55, 45
2, 49070, Note_on_c, 0, 61, 0
2, 49072, Note_on_c, 0, 55, 0
2, 49073, Note_on_c, 0, 64, 0
2, 49122, Note_on_c, 0, 64, 49
2, 49122, Note_on_c, 0, 55, 45
2, 49125, Note_on_c, 0, 61, 36
2, 49180, Note_on_c, 0, 55, 0
2, 49182, Note_on_c, 0, 64, 0
2, 49192, Note_on_c, 0, 61, 0
2, 49248, Note_on_c, 0, 71, 0
2, 49248, Note_on_c, 0, 70, 55
2, 49308, Control_c, 0, 64, 24
2, 49312, Control_c, 0, 64, 0
2, 49336, Note_on_c, 0, 44, 47
2, 49340, Control_c, 0, 64, 127
2, 49358, Note_on_c, 0, 70, 0
2, 49359, Note_on_c, 0, 44, 0
2, 49411, Note_on_c, 0, 63, 51
2, 49416, Note_on_c, 0, 54, 42
2, 49421, Note_on_c, 0, 61, 33
2, 49438, Note_on_c, 0, 61, 0
2, 49441, Note_on_c, 0, 63, 0
2, 49444, Note_on_c, 0, 54, 0
2, 49488, Note_on_c, 0, 82, 81
2, 49492, Note_on_c, 0, 70, 61
2, 49495, Note_on_c, 0, 54, 40
2, 49495, Note_on_c, 0, 63, 34
2, 49497, Note_on_c, 0, 61, 38
2, 49508, Note_on_c, 0, 61, 0
2, 49520, Note_on_c, 0, 63, 0
2, 49522, Note_on_c, 0, 54, 0
2, 49557, Note_on_c, 0, 75, 83
2, 49560, Note_on_c, 0, 54, 36
2, 49563, Note_on_c, 0, 61, 40
2, 49563, Note_on_c, 0, 63, 31
2, 49569, Note_on_c, 0, 70, 0
2, 49571, Note_on_c, 0, 82, 0
2, 49578, Note_on_c, 0, 61, 0
2, 49581, Note_on_c, 0, 63, 0
2, 49582, Note_on_c, 0, 54, 0
2, 49616, Note_on_c, 0, 54, 42
2, 49617, Note_on_c, 0, 63, 34
2, 49617, Note_on_c, 0, 61, 39
2, 49628, Note_on_c, 0, 61, 0
2, 49633, Note_on_c, 0, 63, 0
2, 49633, Note_on_c, 0, 54, 0
2, 49654, Note_on_c, 0, 75, 0
2, 49665, Note_on_c, 0, 69, 79
2, 49665, Note_on_c, 0, 81, 85
2, 49670, Note_on_c, 0, 61, 51
2, 49670, Note_on_c, 0, 54, 42
2, 49671, Note_on_c, 0, 63, 42
2, 49685, Note_on_c, 0, 61, 0
2, 49685, Note_on_c, 0, 69, 0
2, 49687, Note_on_c, 0, 63, 0
2, 49687, Note_on_c, 0, 54, 0
2, 49700, Note_on_c, 0, 81, 0
2, 49706, Note_on_c, 0, 69, 77
2, 49735, Note_on_c, 0, 54, 51
2, 49738, Note_on_c, 0, 81, 86
2, 49741, Note_on_c, 0, 63, 35
2, 49741, Control_c, 0, 64, 104
2, 49743, Note_on_c, 0, 60, 55
2, 49745, Control_c, 0, 64, 0
2, 49753, Note_on_c, 0, 60, 0
2, 49762, Control_c, 0, 64, 24
2, 49766, Note_on_c, 0, 54, 0
2, 49766, Note_on_c, 0, 63, 0
2, 49766, Control_c, 0, 64, 127
2, 49800, Note_on_c, 0, 54, 47
2, 49801, Note_on_c, 0, 63, 41
2, 49805, Note_on_c, 0, 60, 47
2, 49816, Note_on_c, 0, 60, 0
2, 49819, Note_on_c, 0, 63, 0
2, 49820, Note_on_c, 0, 54, 0
2, 49856, Note_on_c, 0, 54, 52
2, 49858, Note_on_c, 0, 63, 48
2, 49861, Note_on_c, 0, 60, 51
2, 49872, Note_on_c, 0, 60, 0
2, 49878, Note_on_c, 0, 54, 0
2, 49878, Note_on_c, 0, 63, 0
2, 49906, Note_on_c, 0, 69, 0
2, 49921, Note_on_c, 0, 54, 39
2, 49922, Note_on_c, 0, 63, 34
2, 49926, Note_on_c, 0, 60, 50
2, 49955, Note_on_c, 0, 63, 0
2, 49957, Note_on_c, 0, 60, 0
2, 49959, Note_on_c, 0, 54, 0
2, 49970, Note_on_c, 0, 81, 0
2, 50052, Note_on_c, 0, 80, 62
2, 50053, Note_on_c, 0, 68, 43
2, 50097, Control_c, 0, 64, 88
2, 50102, Control_c, 0, 64, 0
2, 50127, Note_on_c, 0, 44, 53
2, 50132, Control_c, 0, 64, 127
2, 50142, Note_on_c, 0, 80, 0
2, 50149, Note_on_c, 0, 44, 0
2, 50151, Note_on_c, 0, 68, 0
2, 50197, Note_on_c, 0, 53, 57
2, 50210, Note_on_c, 0, 53, 0
2, 50250, Note_on_c, 0, 62, 85
2, 50262, Note_on_c, 0, 59, 55
2, 50262, Note_on_c, 0, 53, 53
2, 50273, Note_on_c, 0, 53, 0
2, 50275, Note_on_c, 0, 59, 0
2, 50275, Note_on_c, 0, 62, 0
2, 50328, Note_on_c, 0, 53, 48
2, 50330, Note_on_c, 0, 69, 88
2, 50330, Note_on_c, 0, 59, 41
2, 50332, Note_on_c, 0, 62, 39
2, 50346, Note_on_c, 0, 53, 0
2, 50348, Note_on_c, 0, 62, 0
2, 50350, Note_on_c, 0, 59, 0
2, 50398, Note_on_c, 0, 53, 48
2, 50398, Note_on_c, 0, 59, 42
2, 50398, Note_on_c, 0, 62, 48
2, 50410, Note_on_c, 0, 53, 0
2, 50411, Note_on_c, 0, 62, 0
2, 50411, Note_on_c, 0, 59, 0
2, 50427, Note_on_c, 0, 69, 0
2, 50458, Note_on_c, 0, 69, 91
2, 50460, Note_on_c, 0, 62, 48
2, 50466, Note_on_c, 0, 53, 41
2, 50470, Note_on_c, 0, 62, 0
2, 50478, Note_on_c, 0, 53, 0
2, 50503, Note_on_c, 0, 69, 0
2, 50546, Note_on_c, 0, 69, 77
2, 50546, Control_c, 0, 64, 88
2, 50551, Control_c, 0, 64, 0
2, 50552, Note_on_c, 0, 37, 61
2, 50568, Control_c, 0, 64, 56
2, 50569, Note_on_c, 0, 37, 0
2, 50572, Control_c, 0, 64, 127
2, 50623, Note_on_c, 0, 59, 44
2, 50623, Note_on_c, 0, 53, 50
2, 50623, Note_on_c, 0, 62, 45
2, 50638, Note_on_c, 0, 62, 0
2, 50639, Note_on_c, 0, 59, 0
2, 50640, Note_on_c, 0, 53, 0
2, 50682, Note_on_c, 0, 53, 53
2, 50685, Note_on_c, 0, 62, 47
2, 50690, Note_on_c, 0, 59, 34
2, 50698, Note_on_c, 0, 62, 0
2, 50700, Note_on_c, 0, 53, 0
2, 50701, Note_on_c, 0, 59, 0
2, 50753, Note_on_c, 0, 53, 49
2, 50755, Note_on_c, 0, 62, 45
2, 50761, Note_on_c, 0, 59, 37
2, 50781, Note_on_c, 0, 53, 0
2, 50788, Note_on_c, 0, 62, 0
2, 50793, Note_on_c, 0, 59, 0
2, 50889, Note_on_c, 0, 69, 0
2, 50892, Note_on_c, 0, 68, 54
2, 50947, Control_c, 0, 64, 40
2, 50951, Control_c, 0, 64, 0
2, 50982, Note_on_c, 0, 42, 51
2, 50982, Control_c, 0, 64, 104
2, 50987, Control_c, 0, 64, 127
2, 50993, Note_on_c, 0, 42, 0
2, 50999, Note_on_c, 0, 68, 0
2, 51076, Note_on_c, 0, 54, 47
2, 51077, Note_on_c, 0, 80, 75
2, 51077, Note_on_c, 0, 62, 43
2, 51080, Note_on_c, 0, 57, 48
2, 51081, Note_on_c, 0, 68, 53
2, 51093, Note_on_c, 0, 62, 0
2, 51096, Note_on_c, 0, 57, 0
2, 51102, Note_on_c, 0, 54, 0
2, 51115, Note_on_c, 0, 80, 0
2, 51116, Note_on_c, 0, 68, 0
2, 51152, Note_on_c, 0, 54, 64
2, 51155, Note_on_c, 0, 62, 55
2, 51158, Note_on_c, 0, 78, 75
2, 51161, Note_on_c, 0, 66, 52
2, 51163, Note_on_c, 0, 62, 0
2, 51170, Note_on_c, 0, 54, 0
2, 51182, Note_on_c, 0, 66, 0
2, 51188, Note_on_c, 0, 78, 0
2, 51226, Note_on_c, 0, 45, 69
2, 51226, Control_c, 0, 64, 72
2, 51230, Control_c, 0, 64, 0
2, 51243, Control_c, 0, 64, 127
2, 51253, Note_on_c, 0, 45, 0
2, 51281, Note_on_c, 0, 78, 77
2, 51281, Note_on_c, 0, 54, 58
2, 51287, Note_on_c, 0, 66, 57
2, 51288, Note_on_c, 0, 57, 43
2, 51299, Note_on_c, 0, 57, 0
2, 51299, Note_on_c, 0, 54, 0
2, 51308, Note_on_c, 0, 66, 0
2, 51311, Note_on_c, 0, 78, 0
2, 51343, Note_on_c, 0, 76, 84
2, 51346, Note_on_c, 0, 64, 64
2, 51346, Note_on_c, 0, 54, 53
2, 51347, Note_on_c, 0, 57, 51
2, 51369, Note_on_c, 0, 57, 0
2, 51371, Note_on_c, 0, 54, 0
2, 51396, Control_c, 0, 64, 56
2, 51400, Note_on_c, 0, 50, 76
2, 51401, Control_c, 0, 64, 0
2, 51413, Control_c, 0, 64, 88
2, 51416, Note_on_c, 0, 64, 0
2, 51418, Control_c, 0, 64, 127
2, 51419, Note_on_c, 0, 76, 0
2, 51436, Note_on_c, 0, 50, 0
2, 51452, Note_on_c, 0, 76, 82
2, 51453, Note_on_c, 0, 64, 70
2, 51455, Note_on_c, 0, 54, 53
2, 51457, Note_on_c, 0, 57, 47
2, 51468, Note_on_c, 0, 57, 0
2, 51472, Note_on_c, 0, 54, 0
2, 51474, Note_on_c, 0, 64, 0
2, 51475, Note_on_c, 0, 76, 0
2, 51508, Note_on_c, 0, 54, 67
2, 51508, Note_on_c, 0, 74, 84
2, 51510, Note_on_c, 0, 62, 67
2, 51511, Note_on_c, 0, 57, 45
2, 51521, Note_on_c, 0, 57, 0
2, 51524, Note_on_c, 0, 54, 0
2, 51557, Control_c, 0, 64, 40
2, 51561, Note_on_c, 0, 42, 75
2, 51561, Control_c, 0, 64, 0
2, 51566, Control_c, 0, 64, 40
2, 51570, Control_c, 0, 64, 104
2, 51575, Control_c, 0, 64, 127
2, 51579, Note_on_c, 0, 42, 0
2, 51586, Note_on_c, 0, 62, 0
2, 51589, Note_on_c, 0, 74, 0
2, 51620, Note_on_c, 0, 74, 84
2, 51620, Note_on_c, 0, 54, 55
2, 51621, Note_on_c, 0, 62, 68
2, 51621, Note_on_c, 0, 57, 49
2, 51632, Note_on_c, 0, 57, 0
2, 51635, Note_on_c, 0, 54, 0
2, 51641, Note_on_c, 0, 62, 0
2, 51642, Note_on_c, 0, 74, 0
2, 51676, Note_on_c, 0, 54, 56
2, 51680, Note_on_c, 0, 57, 46
2, 51682, Note_on_c, 0, 73, 80
2, 51682, Note_on_c, 0, 61, 64
2, 51686, Note_on_c, 0, 54, 0
2, 51687, Note_on_c, 0, 57, 0
2, 51750, Control_c, 0, 64, 40
2, 51752, Note_on_c, 0, 41, 76
2, 51762, Control_c, 0, 64, 56
2, 51765, Control_c, 0, 64, 104
2, 51767, Control_c, 0, 64, 127
2, 51773, Note_on_c, 0, 41, 0
2, 51794, Note_on_c, 0, 73, 0
2, 51804, Note_on_c, 0, 61, 0
2, 51816, Note_on_c, 0, 51, 52
2, 51817, Note_on_c, 0, 54, 44
2, 51818, Note_on_c, 0, 57, 46
2, 51829, Note_on_c, 0, 54, 0
2, 51831, Note_on_c, 0, 57, 0
2, 51833, Note_on_c, 0, 51, 0
2, 51873, Note_on_c, 0, 61, 81
2, 51877, Note_on_c, 0, 51, 57
2, 51880, Note_on_c, 0, 54, 35
2, 51881, Note_on_c, 0, 57, 41
2, 51892, Note_on_c, 0, 57, 0
2, 51892, Note_on_c, 0, 54, 0
2, 51894, Note_on_c, 0, 51, 0
2, 51932, Note_on_c, 0, 51, 47
2, 51933, Note_on_c, 0, 54, 42
2, 51935, Note_on_c, 0, 57, 43
2, 51947, Note_on_c, 0, 57, 0
2, 51950, Note_on_c, 0, 54, 0
2, 51950, Note_on_c, 0, 51, 0
2, 51987, Note_on_c, 0, 51, 45
2, 51987, Note_on_c, 0, 54, 44
2, 51990, Note_on_c, 0, 57, 45
2, 52003, Note_on_c, 0, 54, 0
2, 52003, Note_on_c, 0, 51, 0
2, 52005, Note_on_c, 0, 57, 0
2, 52013, Note_on_c, 0, 61, 0
2, 52017, Note_on_c, 0, 60, 72
2, 52041, Note_on_c, 0, 51, 45
2, 52042, Note_on_c, 0, 60, 0
2, 52042, Note_on_c, 0, 54, 45
2, 52043, Note_on_c, 0, 57, 45
2, 52046, Note_on_c, 0, 61, 76
2, 52049, Note_on_c, 0, 51, 0
2, 52050, Note_on_c, 0, 54, 0
2, 52051, Note_on_c, 0, 57, 0
2, 52067, Note_on_c, 0, 61, 0
2, 52071, Note_on_c, 0, 60, 78
2, 52084, Note_on_c, 0, 60, 0
2, 52095, Note_on_c, 0, 54, 50
2, 52096, Note_on_c, 0, 57, 56
2, 52103, Control_c, 0, 64, 88
2, 52105, Note_on_c, 0, 68, 75
2, 52107, Control_c, 0, 64, 24
2, 52110, Note_on_c, 0, 63, 57
2, 52110, Control_c, 0, 64, 0
2, 52122, Note_on_c, 0, 68, 0
2, 52123, Control_c, 0, 64, 56
2, 52127, Control_c, 0, 64, 127
2, 52130, Note_on_c, 0, 66, 76
2, 52148, Note_on_c, 0, 66, 0
2, 52160, Note_on_c, 0, 73, 80
2, 52171, Note_on_c, 0, 73, 0
2, 52185, Note_on_c, 0, 72, 81
2, 52206, Note_on_c, 0, 72, 0
2, 52213, Note_on_c, 0, 80, 82
2, 52224, Note_on_c, 0, 80, 0
2, 52236, Note_on_c, 0, 78, 82
2, 52258, Note_on_c, 0, 78, 0
2, 52267, Note_on_c, 0, 85, 83
2, 52283, Note_on_c, 0, 85, 0
2, 52291, Note_on_c, 0, 84, 84
2, 52312, Note_on_c, 0, 84, 0
2, 52325, Note_on_c, 0, 92, 87
2, 52350, Note_on_c, 0, 92, 0
2, 52361, Note_on_c, 0, 54, 0
2, 52363, Note_on_c, 0, 57, 0
2, 52365, Note_on_c, 0, 63, 0
2, 52401, Note_on_c, 0, 90, 71
2, 52421, Note_on_c, 0, 90, 0
2, 52467, Control_c, 0, 64, 56
2, 52471, Control_c, 0, 64, 0
2, 52472, Note_on_c, 0, 42, 65
2, 52491, Control_c, 0, 64, 56
2, 52492, Note_on_c, 0, 42, 0
2, 52493, Control_c, 0, 64, 127
2, 52540, Note_on_c, 0, 80, 83
2, 52542, Note_on_c, 0, 68, 57
2, 52545, Note_on_c, 0, 62, 47
2, 52547, Note_on_c, 0, 54, 45
2, 52548, Note_on_c, 0, 57, 45
2, 52560, Note_on_c, 0, 57, 0
2, 52561, Note_on_c, 0, 62, 0
2, 52562, Note_on_c, 0, 54, 0
2, 52565, Note_on_c, 0, 68, 0
2, 52583, Note_on_c, 0, 80, 0
2, 52608, Note_on_c, 0, 78, 74
2, 52608, Note_on_c, 0, 66, 53
2, 52612, Note_on_c, 0, 62, 51
2, 52613, Note_on_c, 0, 54, 44
2, 52619, Note_on_c, 0, 66, 0
2, 52623, Note_on_c, 0, 78, 0
2, 52623, Note_on_c, 0, 62, 0
2, 52626, Note_on_c, 0, 54, 0
2, 52673, Note_on_c, 0, 45, 71
2, 52677, Control_c, 0, 64, 88
2, 52680, Control_c, 0, 64, 24
2, 52683, Control_c, 0, 64, 0
2, 52700, Control_c, 0, 64, 56
2, 52702, Control_c, 0, 64, 127
2, 52711, Note_on_c, 0, 45, 0
2, 52731, Note_on_c, 0, 78, 81
2, 52731, Note_on_c, 0, 66, 58
2, 52731, Note_on_c, 0, 54, 43
2, 52731, Note_on_c, 0, 57, 43
2, 52731, Note_on_c, 0, 62, 57
2, 52746, Note_on_c, 0, 57, 0
2, 52748, Note_on_c, 0, 66, 0
2, 52748, Note_on_c, 0, 62, 0
2, 52753, Note_on_c, 0, 54, 0
2, 52753, Note_on_c, 0, 78, 0
2, 52793, Note_on_c, 0, 76, 78
2, 52796, Note_on_c, 0, 64, 61
2, 52798, Note_on_c, 0, 54, 42
2, 52800, Note_on_c, 0, 57, 41
2, 52826, Note_on_c, 0, 64, 0
2, 52826, Note_on_c, 0, 76, 0
2, 52838, Note_on_c, 0, 54, 0
2, 52841, Note_on_c, 0, 57, 0
2, 52850, Note_on_c, 0, 50, 78
2, 52863, Control_c, 0, 64, 72
2, 52867, Control_c, 0, 64, 0
2, 52883, Control_c, 0, 64, 40
2, 52886, Control_c, 0, 64, 104
2, 52888, Control_c, 0, 64, 127
2, 52892, Note_on_c, 0, 50, 0
2, 52915, Note_on_c, 0, 76, 82
2, 52915, Note_on_c, 0, 54, 44
2, 52917, Note_on_c, 0, 57, 42
2, 52918, Note_on_c, 0, 64, 42
2, 52930, Note_on_c, 0, 64, 0
2, 52930, Note_on_c, 0, 57, 0
2, 52932, Note_on_c, 0, 54, 0
2, 52932, Note_on_c, 0, 76, 0
2, 52971, Note_on_c, 0, 74, 78
2, 52973, Note_on_c, 0, 62, 54
2, 52973, Note_on_c, 0, 54, 50
2, 52975, Note_on_c, 0, 57, 49
2, 52981, Note_on_c, 0, 54, 0
2, 52982, Note_on_c, 0, 57, 0
2, 53022, Control_c, 0, 64, 72
2, 53025, Control_c, 0, 64, 24
2, 53027, Control_c, 0, 64, 0
2, 53030, Note_on_c, 0, 42, 70
2, 53036, Control_c, 0, 64, 56
2, 53038, Control_c, 0, 64, 127
2, 53045, Note_on_c, 0, 42, 0
2, 53050, Note_on_c, 0, 62, 0
2, 53061, Note_on_c, 0, 74, 0
2, 53088, Note_on_c, 0, 74, 73
2, 53091, Note_on_c, 0, 54, 49
2, 53092, Note_on_c, 0, 57, 45
2, 53092, Note_on_c, 0, 62, 50
2, 53103, Note_on_c, 0, 62, 0
2, 53104, Note_on_c, 0, 74, 0
2, 53108, Note_on_c, 0, 57, 0
2, 53108, Note_on_c, 0, 54, 0
2, 53151, Note_on_c, 0, 73, 74
2, 53152, Note_on_c, 0, 54, 53
2, 53153, Note_on_c, 0, 61, 52
2, 53155, Note_on_c, 0, 57, 48
2, 53162, Note_on_c, 0, 57, 0
2, 53163, Note_on_c, 0, 54, 0
2, 53195, Note_on_c, 0, 61, 0
2, 53196, Note_on_c, 0, 73, 0
2, 53227, Note_on_c, 0, 41, 75
2, 53228, Control_c, 0, 64, 72
2, 53231, Control_c, 0, 64, 0
2, 53251, Control_c, 0, 64, 72
2, 53253, Note_on_c, 0, 41, 0
2, 53253, Control_c, 0, 64, 127
2, 53302, Note_on_c, 0, 51, 43
2, 53302, Note_on_c, 0, 54, 35
2, 53302, Note_on_c, 0, 57, 35
2, 53310, Note_on_c, 0, 54, 0
2, 53314, Note_on_c, 0, 57, 0
2, 53315, Note_on_c, 0, 51, 0
2, 53353, Note_on_c, 0, 61, 77
2, 53356, Note_on_c, 0, 51, 53
2, 53357, Note_on_c, 0, 57, 45
2, 53357, Note_on_c, 0, 54, 40
2, 53370, Note_on_c, 0, 57, 0
2, 53373, Note_on_c, 0, 54, 0
2, 53373, Note_on_c, 0, 51, 0
2, 53410, Note_on_c, 0, 51, 53
2, 53411, Note_on_c, 0, 54, 43
2, 53412, Note_on_c, 0, 57, 51
2, 53423, Note_on_c, 0, 61, 0
2, 53428, Note_on_c, 0, 51, 0
2, 53428, Note_on_c, 0, 54, 0
2, 53428, Note_on_c, 0, 57, 0
2, 53463, Note_on_c, 0, 54, 48
2, 53465, Note_on_c, 0, 51, 49
2, 53466, Note_on_c, 0, 57, 51
2, 53475, Note_on_c, 0, 54, 0
2, 53479, Note_on_c, 0, 57, 0
2, 53481, Note_on_c, 0, 51, 0
2, 53493, Note_on_c, 0, 60, 76
2, 53513, Note_on_c, 0, 60, 0
2, 53520, Note_on_c, 0, 54, 41
2, 53520, Note_on_c, 0, 51, 39
2, 53521, Note_on_c, 0, 61, 72
2, 53522, Note_on_c, 0, 57, 36
2, 53531, Note_on_c, 0, 51, 0
2, 53533, Note_on_c, 0, 54, 0
2, 53533, Note_on_c, 0, 57, 0
2, 53537, Note_on_c, 0, 61, 0
2, 53547, Note_on_c, 0, 60, 76
2, 53557, Note_on_c, 0, 60, 0
2, 53566, Note_on_c, 0, 56, 41
2, 53567, Note_on_c, 0, 54, 52
2, 53574, Note_on_c, 0, 56, 0
2, 53575, Note_on_c, 0, 57, 48
2, 53580, Note_on_c, 0, 68, 74
2, 53586, Note_on_c, 0, 63, 58
2, 53602, Note_on_c, 0, 68, 0
2, 53607, Note_on_c, 0, 66, 77
2, 53632, Note_on_c, 0, 66, 0
2, 53633, Note_on_c, 0, 73, 75
2, 53645, Note_on_c, 0, 73, 0
2, 53657, Note_on_c, 0, 72, 74
2, 53678, Note_on_c, 0, 72, 0
2, 53688, Note_on_c, 0, 80, 68
2, 53706, Note_on_c, 0, 80, 0
2, 53715, Note_on_c, 0, 78, 81
2, 53738, Note_on_c, 0, 78, 0
2, 53743, Note_on_c, 0, 85, 75
2, 53758, Note_on_c, 0, 85, 0
2, 53768, Note_on_c, 0, 84, 79
2, 53795, Note_on_c, 0, 84, 0
2, 53801, Note_on_c, 0, 92, 88
2, 53835, Note_on_c, 0, 54, 0
2, 53837, Note_on_c, 0, 57, 0
2, 53838, Note_on_c, 0, 63, 0
2, 53863, Note_on_c, 0, 92, 0
2, 53866, Note_on_c, 0, 90, 71
2, 53877, Note_on_c, 0, 90, 0
2, 53928, Control_c, 0, 64, 40
2, 53931, Control_c, 0, 64, 0
2, 53932, Note_on_c, 0, 42, 64
2, 53951, Control_c, 0, 64, 72
2, 53952, Note_on_c, 0, 42, 0
2, 53953, Control_c, 0, 64, 127
2, 53997, Note_on_c, 0, 62, 50
2, 53998, Note_on_c, 0, 54, 36
2, 54000, Note_on_c, 0, 57, 46
2, 54013, Note_on_c, 0, 62, 0
2, 54015, Note_on_c, 0, 54, 0
2, 54016, Note_on_c, 0, 57, 0
2, 54055, Note_on_c, 0, 77, 91
2, 54057, Note_on_c, 0, 65, 62
2, 54060, Note_on_c, 0, 62, 61
2, 54061, Note_on_c, 0, 54, 53
2, 54066, Note_on_c, 0, 62, 0
2, 54072, Note_on_c, 0, 65, 0
2, 54074, Note_on_c, 0, 54, 0
2, 54086, Note_on_c, 0, 77, 0
2, 54120, Note_on_c, 0, 78, 84
2, 54121, Note_on_c, 0, 66, 58
2, 54128, Control_c, 0, 64, 104
2, 54130, Note_on_c, 0, 45, 69
2, 54131, Control_c, 0, 64, 40
2, 54135, Control_c, 0, 64, 0
2, 54142, Note_on_c, 0, 45, 0
2, 54148, Control_c, 0, 64, 56
2, 54152, Control_c, 0, 64, 127
2, 54162, Note_on_c, 0, 66, 0
2, 54181, Note_on_c, 0, 54, 38
2, 54183, Note_on_c, 0, 62, 50
2, 54186, Note_on_c, 0, 57, 48
2, 54196, Note_on_c, 0, 57, 0
2, 54196, Note_on_c, 0, 62, 0
2, 54198, Note_on_c, 0, 54, 0
2, 54202, Note_on_c, 0, 78, 0
2, 54232, Note_on_c, 0, 80, 95
2, 54233, Note_on_c, 0, 68, 79
2, 54237, Note_on_c, 0, 62, 57
2, 54238, Note_on_c, 0, 54, 43
2, 54245, Note_on_c, 0, 57, 42
2, 54246, Note_on_c, 0, 68, 0
2, 54250, Note_on_c, 0, 80, 0
2, 54253, Note_on_c, 0, 57, 0
2, 54258, Note_on_c, 0, 62, 0
2, 54263, Note_on_c, 0, 54, 0
2, 54291, Note_on_c, 0, 50, 72
2, 54300, Note_on_c, 0, 83, 91
2, 54301, Note_on_c, 0, 71, 69
2, 54312, Control_c, 0, 64, 40
2, 54315, Control_c, 0, 64, 0
2, 54332, Control_c, 0, 64, 104
2, 54335, Control_c, 0, 64, 127
2, 54339, Note_on_c, 0, 50, 0
2, 54347, Note_on_c, 0, 83, 0
2, 54351, Note_on_c, 0, 71, 0
2, 54356, Note_on_c, 0, 62, 40
2, 54357, Note_on_c, 0, 54, 35
2, 54374, Note_on_c, 0, 54, 0
2, 54374, Note_on_c, 0, 62, 0
2, 54416, Note_on_c, 0, 62, 51
2, 54416, Note_on_c, 0, 81, 80
2, 54416, Note_on_c, 0, 54, 52
2, 54417, Note_on_c, 0, 69, 53
2, 54423, Note_on_c, 0, 62, 0
2, 54429, Note_on_c, 0, 54, 0
2, 54432, Note_on_c, 0, 69, 0
2, 54457, Note_on_c, 0, 81, 0
2, 54476, Control_c, 0, 64, 104
2, 54480, Note_on_c, 0, 45, 68
2, 54480, Note_on_c, 0, 68, 47
2, 54480, Note_on_c, 0, 80, 78
2, 54480, Control_c, 0, 64, 24
2, 54482, Control_c, 0, 64, 0
2, 54486, Note_on_c, 0, 45, 0
2, 54493, Control_c, 0, 64, 72
2, 54496, Control_c, 0, 64, 127
2, 54517, Note_on_c, 0, 68, 0
2, 54536, Note_on_c, 0, 62, 41
2, 54537, Note_on_c, 0, 54, 43
2, 54537, Note_on_c, 0, 57, 43
2, 54548, Note_on_c, 0, 57, 0
2, 54552, Note_on_c, 0, 62, 0
2, 54554, Note_on_c, 0, 54, 0
2, 54556, Note_on_c, 0, 80, 0
2, 54597, Note_on_c, 0, 78, 72
2, 54598, Note_on_c, 0, 54, 56
2, 54598, Note_on_c, 0, 62, 52
2, 54600, Note_on_c, 0, 66, 48
2, 54604, Note_on_c, 0, 62, 0
2, 54609, Note_on_c, 0, 54, 0
2, 54637, Control_c, 0, 64, 72
2, 54640, Control_c, 0, 64, 0
2, 54655, Note_on_c, 0, 45, 73
2, 54660, Control_c, 0, 64, 88
2, 54662, Control_c, 0, 64, 127
2, 54663, Note_on_c, 0, 45, 0
2, 54663, Note_on_c, 0, 66, 0
2, 54668, Note_on_c, 0, 78, 0
2, 54713, Note_on_c, 0, 62, 59
2, 54715, Note_on_c, 0, 57, 48
2, 54731, Note_on_c, 0, 62, 0
2, 54732, Note_on_c, 0, 57, 0
2, 54773, Note_on_c, 0, 66, 82
2, 54778, Note_on_c, 0, 62, 46
2, 54781, Note_on_c, 0, 57, 46
2, 54786, Note_on_c, 0, 62, 0
2, 54788, Note_on_c, 0, 57, 0
2, 54804, Note_on_c, 0, 66, 0
2, 54845, Note_on_c, 0, 66, 84
2, 54847, Note_on_c, 0, 46, 69
2, 54852, Control_c, 0, 64, 72
2, 54855, Control_c, 0, 64, 0
2, 54868, Note_on_c, 0, 46, 0
2, 54871, Control_c, 0, 64, 72
2, 54875, Control_c, 0, 64, 127
2, 54908, Note_on_c, 0, 62, 61
2, 54910, Note_on_c, 0, 56, 50
2, 54912, Note_on_c, 0, 58, 41
2, 54919, Note_on_c, 0, 58, 0
2, 54919, Note_on_c, 0, 62, 0
2, 54925, Note_on_c, 0, 56, 0
2, 54931, Note_on_c, 0, 66, 0
2, 54936, Note_on_c, 0, 65, 79
2, 54957, Note_on_c, 0, 65, 0
2, 54963, Note_on_c, 0, 56, 47
2, 54965, Note_on_c, 0, 71, 80
2, 54967, Note_on_c, 0, 62, 46
2, 54973, Note_on_c, 0, 71, 0
2, 54978, Note_on_c, 0, 56, 0
2, 54980, Note_on_c, 0, 62, 0
2, 54990, Note_on_c, 0, 70, 79
2, 55005, Note_on_c, 0, 70, 0
2, 55017, Note_on_c, 0, 78, 86
2, 55020, Note_on_c, 0, 62, 53
2, 55021, Note_on_c, 0, 56, 44
2, 55021, Note_on_c, 0, 58, 47
2, 55027, Note_on_c, 0, 58, 0
2, 55033, Note_on_c, 0, 56, 0
2, 55035, Note_on_c, 0, 62, 0
2, 55038, Note_on_c, 0, 78, 0
2, 55043, Note_on_c, 0, 77, 84
2, 55069, Note_on_c, 0, 77, 0
2, 55070, Note_on_c, 0, 83, 86
2, 55070, Note_on_c, 0, 56, 53
2, 55073, Note_on_c, 0, 62, 34
2, 55080, Note_on_c, 0, 83, 0
2, 55086, Note_on_c, 0, 65, 27
2, 55092, Note_on_c, 0, 82, 85
2, 55098, Note_on_c, 0, 62, 0
2, 55107, Note_on_c, 0, 56, 0
2, 55108, Note_on_c, 0, 65, 0
2, 55110, Note_on_c, 0, 82, 0
2, 55123, Note_on_c, 0, 90, 89
2, 55130, Note_on_c, 0, 65, 47
2, 55141, Note_on_c, 0, 90, 0
2, 55143, Note_on_c, 0, 65, 0
2, 55151, Note_on_c, 0, 89, 87
2, 55172, Note_on_c, 0, 83, 75
2, 55176, Note_on_c, 0, 89, 0
2, 55178, Note_on_c, 0, 56, 44
2, 55191, Note_on_c, 0, 65, 63
2, 55191, Note_on_c, 0, 62, 48
2, 55194, Note_on_c, 0, 56, 0
2, 55197, Note_on_c, 0, 95, 94
2, 55203, Note_on_c, 0, 83, 0
2, 55206, Note_on_c, 0, 65, 0
2, 55213, Note_on_c, 0, 62, 0
2, 55292, Note_on_c, 0, 95, 0
2, 55315, Note_on_c, 0, 82, 56
2, 55316, Note_on_c, 0, 94, 78
2, 55331, Note_on_c, 0, 94, 0
2, 55332, Note_on_c, 0, 82, 0
2, 55372, Control_c, 0, 64, 88
2, 55375, Control_c, 0, 64, 0
2, 55381, Note_on_c, 0, 44, 65
2, 55395, Control_c, 0, 64, 56
2, 55397, Control_c, 0, 64, 127
2, 55398, Note_on_c, 0, 44, 0
2, 55446, Note_on_c, 0, 64, 49
2, 55447, Note_on_c, 0, 56, 43
2, 55447, Note_on_c, 0, 59, 45
2, 55458, Note_on_c, 0, 59, 0
2, 55459, Note_on_c, 0, 64, 0
2, 55460, Note_on_c, 0, 56, 0
2, 55501, Note_on_c, 0, 79, 84
2, 55502, Note_on_c, 0, 67, 66
2, 55502, Note_on_c, 0, 56, 57
2, 55503, Note_on_c, 0, 64, 55
2, 55510, Note_on_c, 0, 64, 0
2, 55517, Note_on_c, 0, 56, 0
2, 55522, Note_on_c, 0, 67, 0
2, 55544, Note_on_c, 0, 79, 0
2, 55565, Note_on_c, 0, 80, 84
2, 55566, Note_on_c, 0, 68, 65
2, 55572, Note_on_c, 0, 47, 72
2, 55572, Control_c, 0, 64, 56
2, 55575, Control_c, 0, 64, 0
2, 55588, Control_c, 0, 64, 88
2, 55589, Note_on_c, 0, 47, 0
2, 55592, Control_c, 0, 64, 127
2, 55602, Note_on_c, 0, 68, 0
2, 55625, Note_on_c, 0, 64, 52
2, 55625, Note_on_c, 0, 59, 54
2, 55626, Note_on_c, 0, 56, 47
2, 55641, Note_on_c, 0, 56, 0
2, 55641, Note_on_c, 0, 59, 0
2, 55641, Note_on_c, 0, 64, 0
2, 55652, Note_on_c, 0, 80, 0
2, 55676, Note_on_c, 0, 82, 94
2, 55677, Note_on_c, 0, 70, 83
2, 55681, Note_on_c, 0, 56, 48
2, 55682, Note_on_c, 0, 64, 44
2, 55697, Note_on_c, 0, 70, 0
2, 55703, Note_on_c, 0, 64, 0
2, 55707, Note_on_c, 0, 82, 0
2, 55713, Note_on_c, 0, 56, 0
2, 55745, Note_on_c, 0, 85, 98
2, 55745, Note_on_c, 0, 52, 65
2, 55747, Note_on_c, 0, 73, 87
2, 55772, Control_c, 0, 64, 88
2, 55776, Note_on_c, 0, 52, 0
2, 55776, Control_c, 0, 64, 0
2, 55795, Control_c, 0, 64, 88
2, 55798, Control_c, 0, 64, 127
2, 55811, Note_on_c, 0, 56, 43
2, 55812, Note_on_c, 0, 59, 45
2, 55812, Note_on_c, 0, 64, 46
2, 55817, Note_on_c, 0, 85, 0
2, 55820, Note_on_c, 0, 73, 0
2, 55829, Note_on_c, 0, 64, 0
2, 55831, Note_on_c, 0, 56, 0
2, 55832, Note_on_c, 0, 59, 0
2, 55863, Note_on_c, 0, 83, 90
2, 55865, Note_on_c, 0, 71, 82
2, 55870, Note_on_c, 0, 64, 55
2, 55871, Note_on_c, 0, 56, 53
2, 55872, Note_on_c, 0, 59, 41
2, 55879, Note_on_c, 0, 59, 0
2, 55880, Note_on_c, 0, 64, 0
2, 55882, Note_on_c, 0, 71, 0
2, 55884, Note_on_c, 0, 56, 0
2, 55914, Note_on_c, 0, 83, 0
2, 55923, Note_on_c, 0, 82, 86
2, 55926, Note_on_c, 0, 70, 77
2, 55928, Control_c, 0, 64, 72
2, 55931, Note_on_c, 0, 47, 65
2, 55931, Control_c, 0, 64, 0
2, 55944, Note_on_c, 0, 47, 0
2, 55945, Control_c, 0, 64, 40
2, 55947, Control_c, 0, 64, 127
2, 55983, Note_on_c, 0, 70, 0
2, 55990, Note_on_c, 0, 59, 43
2, 55990, Note_on_c, 0, 56, 43
2, 55991, Note_on_c, 0, 64, 43
2, 56003, Note_on_c, 0, 64, 0
2, 56005, Note_on_c, 0, 59, 0
2, 56006, Note_on_c, 0, 56, 0
2, 56024, Note_on_c, 0, 82, 0
2, 56048, Note_on_c, 0, 80, 79
2, 56048, Note_on_c, 0, 68, 59
2, 56052, Note_on_c, 0, 56, 43
2, 56052, Note_on_c, 0, 64, 41
2, 56057, Note_on_c, 0, 64, 0
2, 56064, Note_on_c, 0, 56, 0
2, 56097, Control_c, 0, 64, 40
2, 56101, Control_c, 0, 64, 0
2, 56108, Note_on_c, 0, 47, 65
2, 56114, Note_on_c, 0, 47, 0
2, 56117, Control_c, 0, 64, 88
2, 56120, Control_c, 0, 64, 127
2, 56128, Note_on_c, 0, 80, 0
2, 56141, Note_on_c, 0, 68, 0
2, 56172, Note_on_c, 0, 64, 43
2, 56172, Note_on_c, 0, 59, 45
2, 56184, Note_on_c, 0, 59, 0
2, 56190, Note_on_c, 0, 64, 0
2, 56228, Note_on_c, 0, 68, 79
2, 56235, Note_on_c, 0, 64, 43
2, 56236, Note_on_c, 0, 59, 49
2, 56243, Note_on_c, 0, 59, 0
2, 56243, Note_on_c, 0, 64, 0
2, 56249, Note_on_c, 0, 68, 0
2, 56298, Note_on_c, 0, 68, 71
2, 56308, Control_c, 0, 64, 72
2, 56311, Note_on_c, 0, 48, 67
2, 56312, Control_c, 0, 64, 0
2, 56328, Note_on_c, 0, 48, 0
2, 56328, Control_c, 0, 64, 88
2, 56332, Control_c, 0, 64, 127
2, 56372, Note_on_c, 0, 64, 44
2, 56373, Note_on_c, 0, 58, 35
2, 56385, Note_on_c, 0, 68, 0
2, 56388, Note_on_c, 0, 64, 0
2, 56389, Note_on_c, 0, 58, 0
2, 56393, Note_on_c, 0, 67, 75
2, 56415, Note_on_c, 0, 67, 0
2, 56425, Note_on_c, 0, 73, 60
2, 56430, Note_on_c, 0, 58, 35
2, 56430, Note_on_c, 0, 64, 43
2, 56432, Note_on_c, 0, 60, 42
2, 56441, Note_on_c, 0, 73, 0
2, 56443, Note_on_c, 0, 60, 0
2, 56445, Note_on_c, 0, 64, 0
2, 56448, Note_on_c, 0, 58, 0
2, 56448, Note_on_c, 0, 72, 86
2, 56469, Note_on_c, 0, 72, 0
2, 56475, Note_on_c, 0, 80, 82
2, 56482, Note_on_c, 0, 64, 44
2, 56482, Note_on_c, 0, 58, 45
2, 56482, Note_on_c, 0, 60, 43
2, 56487, Note_on_c, 0, 80, 0
2, 56493, Note_on_c, 0, 60, 0
2, 56500, Note_on_c, 0, 79, 92
2, 56502, Note_on_c, 0, 64, 0
2, 56505, Note_on_c, 0, 58, 0
2, 56517, Note_on_c, 0, 79, 0
2, 56530, Note_on_c, 0, 85, 87
2, 56535, Note_on_c, 0, 60, 43
2, 56535, Note_on_c, 0, 64, 54
2, 56535, Note_on_c, 0, 58, 35
2, 56545, Note_on_c, 0, 60, 0
2, 56548, Note_on_c, 0, 64, 0
2, 56550, Note_on_c, 0, 58, 0
2, 56551, Note_on_c, 0, 85, 0
2, 56556, Note_on_c, 0, 84, 93
2, 56575, Note_on_c, 0, 58, 38
2, 56576, Note_on_c, 0, 84, 0
2, 56577, Note_on_c, 0, 64, 50
2, 56587, Note_on_c, 0, 58, 0
2, 56587, Note_on_c, 0, 92, 85
2, 56588, Note_on_c, 0, 90, 52
2, 56593, Note_on_c, 0, 90, 0
2, 56599, Note_on_c, 0, 64, 0
2, 56604, Note_on_c, 0, 92, 0
2, 56613, Note_on_c, 0, 91, 91
2, 56620, Note_on_c, 0, 58, 50
2, 56625, Note_on_c, 0, 64, 67
2, 56638, Note_on_c, 0, 67, 69
2, 56639, Note_on_c, 0, 91, 0
2, 56640, Note_on_c, 0, 85, 75
2, 56642, Note_on_c, 0, 64, 0
2, 56646, Note_on_c, 0, 67, 0
2, 56646, Note_on_c, 0, 58, 0
2, 56657, Note_on_c, 0, 97, 96
2, 56671, Note_on_c, 0, 85, 0
2, 56720, Note_on_c, 0, 97, 0
2, 56771, Note_on_c, 0, 84, 67
2, 56771, Note_on_c, 0, 96, 74
2, 56783, Note_on_c, 0, 96, 0
2, 56788, Note_on_c, 0, 84, 0
2, 56840, Note_on_c, 0, 46, 66
2, 56841, Control_c, 0, 64, 40
2, 56843, Control_c, 0, 64, 0
2, 56857, Control_c, 0, 64, 24
2, 56860, Note_on_c, 0, 46, 0
2, 56860, Control_c, 0, 64, 104
2, 56863, Control_c, 0, 64, 127
2, 56907, Note_on_c, 0, 66, 43
2, 56911, Note_on_c, 0, 58, 46
2, 56912, Note_on_c, 0, 61, 48
2, 56926, Note_on_c, 0, 58, 0
2, 56928, Note_on_c, 0, 61, 0
2, 56928, Note_on_c, 0, 66, 0
2, 56957, Note_on_c, 0, 81, 85
2, 56960, Note_on_c, 0, 69, 74
2, 56965, Note_on_c, 0, 66, 50
2, 56966, Note_on_c, 0, 58, 40
2, 56968, Note_on_c, 0, 61, 42
2, 56973, Note_on_c, 0, 61, 0
2, 56973, Note_on_c, 0, 66, 0
2, 56973, Note_on_c, 0, 69, 0
2, 56977, Note_on_c, 0, 58, 0
2, 56983, Note_on_c, 0, 81, 0
2, 57016, Note_on_c, 0, 82, 88
2, 57017, Note_on_c, 0, 70, 84
2, 57022, Note_on_c, 0, 49, 58
2, 57023, Control_c, 0, 64, 88
2, 57026, Control_c, 0, 64, 56
2, 57030, Control_c, 0, 64, 40
2, 57032, Control_c, 0, 64, 56
2, 57035, Control_c, 0, 64, 88
2, 57037, Note_on_c, 0, 49, 0
2, 57037, Control_c, 0, 64, 127
2, 57055, Note_on_c, 0, 70, 0
2, 57075, Note_on_c, 0, 66, 44
2, 57077, Note_on_c, 0, 61, 43
2, 57080, Note_on_c, 0, 58, 42
2, 57093, Note_on_c, 0, 58, 0
2, 57093, Note_on_c, 0, 66, 0
2, 57094, Note_on_c, 0, 61, 0
2, 57099, Note_on_c, 0, 82, 0
2, 57130, Note_on_c, 0, 84, 95
2, 57131, Note_on_c, 0, 72, 82
2, 57133, Note_on_c, 0, 66, 56
2, 57135, Note_on_c, 0, 61, 42
2, 57138, Note_on_c, 0, 58, 37
2, 57144, Note_on_c, 0, 72, 0
2, 57152, Note_on_c, 0, 84, 0
2, 57182, Note_on_c, 0, 54, 58
2, 57184, Note_on_c, 0, 58, 0
2, 57186, Note_on_c, 0, 61, 0
2, 57186, Note_on_c, 0, 66, 0
2, 57192, Note_on_c, 0, 87, 98
2, 57195, Note_on_c, 0, 75, 86
2, 57218, Control_c, 0, 64, 72
2, 57221, Control_c, 0, 64, 0
2, 57243, Control_c, 0, 64, 127
2, 57250, Note_on_c, 0, 66, 39
2, 57252, Note_on_c, 0, 61, 39
2, 57255, Note_on_c, 0, 58, 37
2, 57271, Note_on_c, 0, 66, 0
2, 57271, Note_on_c, 0, 75, 0
2, 57272, Note_on_c, 0, 54, 0
2, 57273, Note_on_c, 0, 58, 0
2, 57273, Note_on_c, 0, 61, 0
2, 57294, Note_on_c, 0, 87, 0
2, 57302, Note_on_c, 0, 85, 85
2, 57305, Note_on_c, 0, 73, 68
2, 57307, Note_on_c, 0, 61, 55
2, 57307, Note_on_c, 0, 66, 47
2, 57312, Note_on_c, 0, 58, 37
2, 57317, Note_on_c, 0, 66, 0
2, 57320, Note_on_c, 0, 61, 0
2, 57320, Note_on_c, 0, 58, 0
2, 57333, Note_on_c, 0, 85, 0
2, 57335, Note_on_c, 0, 73, 0
2, 57361, Note_on_c, 0, 84, 84
2, 57366, Note_on_c, 0, 72, 74
2, 57370, Note_on_c, 0, 49, 54
2, 57371, Control_c, 0, 64, 40
2, 57373, Control_c, 0, 64, 0
2, 57386, Control_c, 0, 64, 56
2, 57388, Control_c, 0, 64, 127
2, 57390, Note_on_c, 0, 49, 0
2, 57407, Note_on_c, 0, 72, 0
2, 57423, Note_on_c, 0, 66, 38
2, 57427, Note_on_c, 0, 58, 36
2, 57430, Note_on_c, 0, 61, 33
2, 57432, Note_on_c, 0, 84, 0
2, 57443, Note_on_c, 0, 66, 0
2, 57443, Note_on_c, 0, 58, 0
2, 57443, Note_on_c, 0, 61, 0
2, 57477, Note_on_c, 0, 82, 73
2, 57478, Note_on_c, 0, 70, 62
2, 57482, Note_on_c, 0, 66, 46
2, 57483, Note_on_c, 0, 61, 43
2, 57485, Note_on_c, 0, 58, 41
2, 57489, Note_on_c, 0, 66, 0
2, 57490, Note_on_c, 0, 61, 0
2, 57495, Note_on_c, 0, 58, 0
2, 57530, Control_c, 0, 64, 56
2, 57532, Control_c, 0, 64, 0
2, 57540, Note_on_c, 0, 49, 68
2, 57550, Control_c, 0, 64, 88
2, 57552, Control_c, 0, 64, 127
2, 57558, Note_on_c, 0, 49, 0
2, 57594, Note_on_c, 0, 82, 0
2, 57595, Note_on_c, 0, 66, 44
2, 57598, Note_on_c, 0, 61, 44
2, 57608, Note_on_c, 0, 70, 0
2, 57618, Note_on_c, 0, 66, 0
2, 57620, Note_on_c, 0, 61, 0
2, 57653, Note_on_c, 0, 70, 85
2, 57658, Note_on_c, 0, 66, 44
2, 57660, Note_on_c, 0, 61, 50
2, 57673, Note_on_c, 0, 61, 0
2, 57674, Note_on_c, 0, 66, 0
2, 57676, Note_on_c, 0, 70, 0
2, 57725, Note_on_c, 0, 70, 74
2, 57727, Control_c, 0, 64, 88
2, 57730, Note_on_c, 0, 50, 72
2, 57730, Control_c, 0, 64, 24
2, 57733, Control_c, 0, 64, 0
2, 57746, Note_on_c, 0, 50, 0
2, 57747, Control_c, 0, 64, 40
2, 57750, Control_c, 0, 64, 127
2, 57783, Note_on_c, 0, 66, 44
2, 57790, Note_on_c, 0, 70, 0
2, 57792, Note_on_c, 0, 60, 36
2, 57802, Note_on_c, 0, 60, 0
2, 57806, Note_on_c, 0, 66, 0
2, 57808, Note_on_c, 0, 69, 72
2, 57831, Note_on_c, 0, 69, 0
2, 57838, Note_on_c, 0, 75, 79
2, 57842, Note_on_c, 0, 66, 44
2, 57847, Note_on_c, 0, 60, 43
2, 57849, Note_on_c, 0, 75, 0
2, 57865, Note_on_c, 0, 60, 0
2, 57865, Note_on_c, 0, 74, 79
2, 57867, Note_on_c, 0, 66, 0
2, 57876, Note_on_c, 0, 74, 0
2, 57893, Note_on_c, 0, 82, 78
2, 57900, Note_on_c, 0, 66, 53
2, 57901, Note_on_c, 0, 60, 57
2, 57908, Note_on_c, 0, 82, 0
2, 57915, Note_on_c, 0, 66, 0
2, 57917, Note_on_c, 0, 60, 0
2, 57918, Note_on_c, 0, 81, 88
2, 57941, Note_on_c, 0, 81, 0
2, 57945, Note_on_c, 0, 87, 77
2, 57951, Note_on_c, 0, 66, 47
2, 57953, Note_on_c, 0, 60, 53
2, 57956, Note_on_c, 0, 87, 0
2, 57968, Note_on_c, 0, 86, 87
2, 57970, Note_on_c, 0, 60, 0
2, 57971, Note_on_c, 0, 66, 0
2, 57984, Note_on_c, 0, 86, 0
2, 57997, Note_on_c, 0, 94, 85
2, 58001, Note_on_c, 0, 66, 50
2, 58013, Note_on_c, 0, 94, 0
2, 58022, Note_on_c, 0, 93, 99
2, 58026, Note_on_c, 0, 66, 0
2, 58036, Note_on_c, 0, 60, 48
2, 58041, Note_on_c, 0, 66, 40
2, 58044, Note_on_c, 0, 93, 0
2, 58061, Note_on_c, 0, 69, 49
2, 58062, Note_on_c, 0, 66, 0
2, 58065, Note_on_c, 0, 99, 97
2, 58066, Note_on_c, 0, 87, 78
2, 58066, Note_on_c, 0, 50, 66
2, 58067, Note_on_c, 0, 60, 0
2, 58072, Note_on_c, 0, 69, 0
2, 58083, Note_on_c, 0, 50, 0
2, 58122, Note_on_c, 0, 60, 57
2, 58122, Note_on_c, 0, 66, 55
2, 58122, Note_on_c, 0, 69, 56
2, 58134, Note_on_c, 0, 69, 0
2, 58134, Note_on_c, 0, 60, 0
2, 58134, Note_on_c, 0, 66, 0
2, 58157, Note_on_c, 0, 87, 0
2, 58158, Note_on_c, 0, 99, 0
2, 58178, Note_on_c, 0, 98, 92
2, 58178, Note_on_c, 0, 86, 74
2, 58178, Note_on_c, 0, 69, 59
2, 58178, Note_on_c, 0, 66, 58
2, 58178, Note_on_c, 0, 60, 56
2, 58190, Note_on_c, 0, 60, 0
2, 58190, Note_on_c, 0, 69, 0
2, 58190, Note_on_c, 0, 66, 0
2, 58198, Note_on_c, 0, 86, 0
2, 58219, Note_on_c, 0, 98, 0
2, 58245, Note_on_c, 0, 97, 89
2, 58246, Note_on_c, 0, 85, 71
2, 58252, Note_on_c, 0, 51, 55
2, 58255, Control_c, 0, 64, 56
2, 58257, Control_c, 0, 64, 0
2, 58272, Control_c, 0, 64, 40
2, 58275, Control_c, 0, 64, 127
2, 58277, Note_on_c, 0, 51, 0
2, 58311, Note_on_c, 0, 66, 47
2, 58318, Note_on_c, 0, 57, 52
2, 58330, Note_on_c, 0, 57, 0
2, 58331, Note_on_c, 0, 66, 0
2, 58349, Note_on_c, 0, 85, 0
2, 58350, Note_on_c, 0, 97, 0
2, 58370, Note_on_c, 0, 96, 90
2, 58371, Note_on_c, 0, 84, 72
2, 58371, Note_on_c, 0, 66, 48
2, 58376, Note_on_c, 0, 57, 51
2, 58397, Note_on_c, 0, 57, 0
2, 58401, Note_on_c, 0, 96, 0
2, 58407, Note_on_c, 0, 84, 0
2, 58418, Note_on_c, 0, 66, 0
2, 58433, Note_on_c, 0, 95, 84
2, 58436, Note_on_c, 0, 83, 65
2, 58437, Note_on_c, 0, 51, 50
2, 58478, Control_c, 0, 64, 72
2, 58481, Control_c, 0, 64, 0
2, 58493, Note_on_c, 0, 58, 53
2, 58497, Note_on_c, 0, 66, 41
2, 58503, Control_c, 0, 64, 72
2, 58506, Control_c, 0, 64, 127
2, 58509, Note_on_c, 0, 83, 0
2, 58515, Note_on_c, 0, 58, 0
2, 58522, Note_on_c, 0, 66, 0
2, 58538, Note_on_c, 0, 95, 0
2, 58548, Note_on_c, 0, 94, 87
2, 58548, Note_on_c, 0, 82, 74
2, 58551, Note_on_c, 0, 58, 42
2, 58553, Note_on_c, 0, 66, 35
2, 58566, Note_on_c, 0, 82, 0
2, 58575, Note_on_c, 0, 94, 0
2, 58583, Note_on_c, 0, 58, 0
2, 58591, Note_on_c, 0, 66, 0
2, 58612, Note_on_c, 0, 82, 61
2, 58612, Note_on_c, 0, 94, 75
2, 58651, Control_c, 0, 64, 56
2, 58653, Control_c, 0, 64, 0
2, 58663, Note_on_c, 0, 59, 48
2, 58663, Note_on_c, 0, 66, 48
2, 58671, Control_c, 0, 64, 56
2, 58673, Control_c, 0, 64, 127
2, 58683, Note_on_c, 0, 59, 0
2, 58693, Note_on_c, 0, 66, 0
2, 58694, Note_on_c, 0, 94, 0
2, 58700, Note_on_c, 0, 82, 0
2, 58726, Note_on_c, 0, 81, 69
2, 58726, Note_on_c, 0, 93, 77
2, 58727, Note_on_c, 0, 66, 38
2, 58732, Note_on_c, 0, 60, 44
2, 58737, Note_on_c, 0, 81, 0
2, 58744, Note_on_c, 0, 93, 0
2, 58745, Note_on_c, 0, 66, 0
2, 58750, Note_on_c, 0, 51, 0
2, 58757, Note_on_c, 0, 60, 0
2, 58793, Note_on_c, 0, 99, 95
2, 58795, Note_on_c, 0, 87, 74
2, 58796, Note_on_c, 0, 50, 62
2, 58802, Control_c, 0, 64, 88
2, 58806, Control_c, 0, 64, 0
2, 58817, Note_on_c, 0, 50, 0
2, 58820, Control_c, 0, 64, 72
2, 58823, Control_c, 0, 64, 127
2, 58851, Note_on_c, 0, 66, 44
2, 58860, Note_on_c, 0, 57, 37
2, 58868, Note_on_c, 0, 99, 0
2, 58870, Note_on_c, 0, 87, 0
2, 58872, Note_on_c, 0, 57, 0
2, 58873, Note_on_c, 0, 66, 0
2, 58906, Note_on_c, 0, 98, 93
2, 58908, Note_on_c, 0, 66, 41
2, 58910, Note_on_c, 0, 86, 70
2, 58913, Note_on_c, 0, 57, 48
2, 58929, Note_on_c, 0, 57, 0
2, 58932, Note_on_c, 0, 86, 0
2, 58959, Note_on_c, 0, 66, 0
2, 58961, Note_on_c, 0, 98, 0
2, 58968, Note_on_c, 0, 97, 85
2, 58970, Note_on_c, 0, 85, 66
2, 58973, Note_on_c, 0, 51, 56
2, 58986, Control_c, 0, 64, 88
2, 58990, Control_c, 0, 64, 0
2, 59012, Control_c, 0, 64, 56
2, 59015, Control_c, 0, 64, 127
2, 59028, Note_on_c, 0, 66, 35
2, 59030, Note_on_c, 0, 57, 51
2, 59038, Note_on_c, 0, 97, 0
2, 59040, Note_on_c, 0, 85, 0
2, 59047, Note_on_c, 0, 57, 0
2, 59051, Note_on_c, 0, 66, 0
2, 59083, Note_on_c, 0, 96, 89
2, 59087, Note_on_c, 0, 84, 66
2, 59087, Note_on_c, 0, 66, 35
2, 59090, Note_on_c, 0, 57, 45
2, 59102, Note_on_c, 0, 84, 0
2, 59103, Note_on_c, 0, 96, 0
2, 59138, Note_on_c, 0, 57, 0
2, 59143, Note_on_c, 0, 95, 89
2, 59146, Note_on_c, 0, 83, 72
2, 59153, Note_on_c, 0, 66, 0
2, 59178, Note_on_c, 0, 83, 0
2, 59198, Note_on_c, 0, 58, 43
2, 59201, Note_on_c, 0, 66, 35
2, 59220, Note_on_c, 0, 58, 0
2, 59226, Note_on_c, 0, 66, 0
2, 59244, Note_on_c, 0, 95, 0
2, 59256, Note_on_c, 0, 94, 81
2, 59257, Note_on_c, 0, 82, 68
2, 59258, Note_on_c, 0, 58, 47
2, 59262, Note_on_c, 0, 66, 27
2, 59277, Note_on_c, 0, 82, 0
2, 59291, Note_on_c, 0, 94, 0
2, 59310, Note_on_c, 0, 58, 0
2, 59323, Note_on_c, 0, 94, 87
2, 59325, Note_on_c, 0, 82, 66
2, 59327, Note_on_c, 0, 66, 0
2, 59378, Note_on_c, 0, 59, 50
2, 59385, Note_on_c, 0, 66, 29
2, 59398, Note_on_c, 0, 82, 0
2, 59401, Note_on_c, 0, 94, 0
2, 59404, Note_on_c, 0, 59, 0
2, 59412, Note_on_c, 0, 66, 0
2, 59446, Note_on_c, 0, 93, 85
2, 59448, Note_on_c, 0, 66, 33
2, 59450, Note_on_c, 0, 81, 58
2, 59452, Note_on_c, 0, 60, 50
2, 59456, Control_c, 0, 64, 56
2, 59458, Control_c, 0, 64, 0
2, 59470, Control_c, 0, 64, 24
2, 59472, Note_on_c, 0, 81, 0
2, 59472, Control_c, 0, 64, 104
2, 59475, Note_on_c, 0, 66, 0
2, 59476, Control_c, 0, 64, 127
2, 59478, Note_on_c, 0, 93, 0
2, 59479, Note_on_c, 0, 60, 0
2, 59491, Note_on_c, 0, 51, 0
2, 59520, Note_on_c, 0, 50, 61
2, 59533, Note_on_c, 0, 99, 92
2, 59535, Note_on_c, 0, 87, 71
2, 59540, Control_c, 0, 64, 104
2, 59543, Control_c, 0, 64, 40
2, 59546, Control_c, 0, 64, 0
2, 59555, Control_c, 0, 64, 104
2, 59557, Note_on_c, 0, 50, 0
2, 59557, Control_c, 0, 64, 127
2, 59592, Note_on_c, 0, 66, 47
2, 59595, Note_on_c, 0, 60, 44
2, 59606, Note_on_c, 0, 99, 0
2, 59608, Note_on_c, 0, 87, 0
2, 59617, Note_on_c, 0, 66, 0
2, 59617, Note_on_c, 0, 60, 0
2, 59651, Note_on_c, 0, 98, 86
2, 59652, Note_on_c, 0, 66, 38
2, 59655, Note_on_c, 0, 86, 59
2, 59665, Note_on_c, 0, 57, 31
2, 59688, Note_on_c, 0, 57, 0
2, 59693, Note_on_c, 0, 66, 0
2, 59712, Note_on_c, 0, 51, 54
2, 59712, Control_c, 0, 64, 104
2, 59716, Control_c, 0, 64, 24
2, 59718, Control_c, 0, 64, 0
2, 59735, Control_c, 0, 64, 127
2, 59745, Note_on_c, 0, 86, 0
2, 59770, Note_on_c, 0, 66, 43
2, 59773, Note_on_c, 0, 57, 49
2, 59795, Note_on_c, 0, 57, 0
2, 59796, Note_on_c, 0, 66, 0
2, 59812, Note_on_c, 0, 98, 0
2, 59831, Note_on_c, 0, 97, 86
2, 59832, Note_on_c, 0, 85, 67
2, 59832, Note_on_c, 0, 66, 40
2, 59837, Note_on_c, 0, 57, 49
2, 59852, Note_on_c, 0, 66, 0
2, 59855, Note_on_c, 0, 57, 0
2, 59890, Note_on_c, 0, 66, 38
2, 59895, Note_on_c, 0, 57, 46
2, 59907, Note_on_c, 0, 66, 0
2, 59913, Note_on_c, 0, 57, 0
2, 59927, Note_on_c, 0, 85, 0
2, 59929, Note_on_c, 0, 97, 0
2, 59943, Note_on_c, 0, 66, 28
2, 59947, Note_on_c, 0, 57, 44
2, 59963, Note_on_c, 0, 66, 0
2, 59967, Note_on_c, 0, 57, 0
2, 60006, Note_on_c, 0, 66, 32
2, 60008, Note_on_c, 0, 96, 69
2, 60012, Note_on_c, 0, 84, 48
2, 60016, Note_on_c, 0, 57, 34
2, 60038, Note_on_c, 0, 51, 0
2, 60044, Note_on_c, 0, 57, 0
2, 60053, Note_on_c, 0, 66, 0
2, 60062, Control_c, 0, 64, 104
2, 60066, Control_c, 0, 64, 0
2, 60068, Note_on_c, 0, 51, 50
2, 60088, Control_c, 0, 64, 104
2, 60091, Control_c, 0, 64, 127
2, 60098, Note_on_c, 0, 96, 0
2, 60098, Note_on_c, 0, 84, 0
2, 60120, Note_on_c, 0, 66, 40
2, 60123, Note_on_c, 0, 58, 37
2, 60129, Note_on_c, 0, 58, 0
2, 60146, Note_on_c, 0, 66, 0
2, 60177, Note_on_c, 0, 95, 84
2, 60178, Note_on_c, 0, 83, 68
2, 60180, Note_on_c, 0, 66, 33
2, 60180, Note_on_c, 0, 58, 35
2, 60198, Note_on_c, 0, 58, 0
2, 60200, Note_on_c, 0, 66, 0
2, 60241, Note_on_c, 0, 66, 33
2, 60242, Note_on_c, 0, 58, 38
2, 60262, Note_on_c, 0, 58, 0
2, 60262, Note_on_c, 0, 66, 0
2, 60275, Note_on_c, 0, 83, 0
2, 60298, Note_on_c, 0, 58, 39
2, 60301, Note_on_c, 0, 66, 25
2, 60314, Note_on_c, 0, 66, 0
2, 60319, Note_on_c, 0, 58, 0
2, 60332, Note_on_c, 0, 95, 0
2, 60357, Note_on_c, 0, 94, 66
2, 60358, Note_on_c, 0, 82, 54
2, 60360, Note_on_c, 0, 58, 38
2, 60363, Note_on_c, 0, 66, 32
2, 60374, Note_on_c, 0, 51, 0
2, 60391, Note_on_c, 0, 58, 0
2, 60405, Note_on_c, 0, 66, 0
2, 60423, Note_on_c, 0, 51, 45
2, 60430, Control_c, 0, 64, 40
2, 60433, Control_c, 0, 64, 0
2, 60450, Control_c, 0, 64, 40
2, 60452, Control_c, 0, 64, 127
2, 60455, Note_on_c, 0, 82, 0
2, 60459, Note_on_c, 0, 94, 0
2, 60482, Note_on_c, 0, 66, 35
2, 60486, Note_on_c, 0, 59, 49
2, 60503, Note_on_c, 0, 59, 0
2, 60509, Note_on_c, 0, 66, 0
2, 60547, Note_on_c, 0, 66, 35
2, 60548, Note_on_c, 0, 60, 46
2, 60564, Note_on_c, 0, 66, 0
2, 60568, Note_on_c, 0, 60, 0
2, 60608, Note_on_c, 0, 94, 79
2, 60611, Note_on_c, 0, 82, 60
2, 60612, Note_on_c, 0, 66, 35
2, 60616, Note_on_c, 0, 60, 51
2, 60616, Control_c, 0, 64, 88
2, 60618, Control_c, 0, 64, 40
2, 60622, Control_c, 0, 64, 0
2, 60631, Control_c, 0, 64, 88
2, 60633, Control_c, 0, 64, 127
2, 60636, Note_on_c, 0, 60, 0
2, 60638, Note_on_c, 0, 66, 0
2, 60667, Note_on_c, 0, 66, 37
2, 60673, Note_on_c, 0, 60, 46
2, 60680, Note_on_c, 0, 51, 0
2, 60683, Note_on_c, 0, 60, 0
2, 60687, Note_on_c, 0, 66, 0
2, 60731, Note_on_c, 0, 66, 28
2, 60732, Note_on_c, 0, 60, 39
2, 60748, Note_on_c, 0, 66, 0
2, 60749, Note_on_c, 0, 60, 0
2, 60790, Note_on_c, 0, 66, 30
2, 60790, Note_on_c, 0, 60, 29
2, 60823, Note_on_c, 0, 60, 0
2, 60841, Note_on_c, 0, 66, 0
2, 60843, Note_on_c, 0, 82, 0
2, 60843, Note_on_c, 0, 94, 0
2, 60905, Note_on_c, 0, 93, 62
2, 60905, Note_on_c, 0, 81, 52
2, 60920, Note_on_c, 0, 81, 0
2, 60926, Note_on_c, 0, 93, 0
2, 60962, Note_on_c, 0, 94, 66
2, 60965, Note_on_c, 0, 82, 44
2, 61025, Note_on_c, 0, 94, 0
2, 61033, Note_on_c, 0, 82, 0
2, 61078, Note_on_c, 0, 93, 62
2, 61078, Note_on_c, 0, 81, 58
2, 61086, Note_on_c, 0, 81, 0
2, 61091, Note_on_c, 0, 93, 0
2, 61142, Note_on_c, 0, 97, 66
2, 61145, Note_on_c, 0, 85, 58
2, 61252, Note_on_c, 0, 97, 0
2, 61255, Note_on_c, 0, 85, 0
2, 61305, Note_on_c, 0, 96, 60
2, 61306, Note_on_c, 0, 84, 44
2, 61393, Note_on_c, 0, 84, 0
2, 61421, Note_on_c, 0, 96, 0
2, 61507, Note_on_c, 0, 104, 68
2, 61510, Note_on_c, 0, 92, 57
2, 61645, Note_on_c, 0, 92, 0
2, 61645, Note_on_c, 0, 104, 0
2, 61741, Note_on_c, 0, 90, 39
2, 61741, Note_on_c, 0, 102, 44
2, 61811, Note_on_c, 0, 102, 0
2, 61821, Note_on_c, 0, 90, 0
2, 61935, Control_c, 0, 64, 104
2, 61937, Control_c, 0, 64, 56
2, 61941, Control_c, 0, 64, 24
2, 61943, Control_c, 0, 64, 0
2, 62041, Control_c, 0, 64, 0
2, 62636, Note_on_c, 0, 90, 58
2, 62636, Note_on_c, 0, 87, 43
2, 62637, Note_on_c, 0, 81, 45
2, 62656, Note_on_c, 0, 87, 0
2, 62658, Note_on_c, 0, 90, 0
2, 62659, Note_on_c, 0, 81, 0
2, 62665, Note_on_c, 0, 92, 69
2, 62683, Note_on_c, 0, 92, 0
2, 62692, Note_on_c, 0, 90, 61
2, 62693, Note_on_c, 0, 87, 52
2, 62695, Note_on_c, 0, 81, 40
2, 62705, Note_on_c, 0, 87, 0
2, 62709, Note_on_c, 0, 90, 0
2, 62715, Note_on_c, 0, 81, 0
2, 62718, Note_on_c, 0, 92, 65
2, 62723, Note_on_c, 0, 84, 35
2, 62730, Note_on_c, 0, 84, 0
2, 62735, Note_on_c, 0, 92, 0
2, 62746, Note_on_c, 0, 90, 56
2, 62748, Note_on_c, 0, 87, 48
2, 62750, Note_on_c, 0, 81, 40
2, 62762, Note_on_c, 0, 90, 0
2, 62763, Note_on_c, 0, 87, 0
2, 62770, Note_on_c, 0, 81, 0
2, 62772, Note_on_c, 0, 92, 67
2, 62778, Note_on_c, 0, 84, 36
2, 62789, Note_on_c, 0, 84, 0
2, 62792, Note_on_c, 0, 92, 0
2, 62801, Note_on_c, 0, 90, 67
2, 62802, Note_on_c, 0, 81, 62
2, 62803, Note_on_c, 0, 87, 42
2, 62807, Note_on_c, 0, 81, 0
2, 62808, Note_on_c, 0, 87, 0
2, 62811, Note_on_c, 0, 90, 0
2, 62825, Control_c, 0, 64, 88
2, 62826, Control_c, 0, 64, 72
2, 62828, Control_c, 0, 64, 56
2, 62832, Control_c, 0, 64, 40
2, 62835, Control_c, 0, 64, 24
2, 62843, Control_c, 0, 64, 0
2, 62853, Control_c, 0, 64, 24
2, 62855, Note_on_c, 0, 87, 69
2, 62858, Note_on_c, 0, 78, 56
2, 62858, Note_on_c, 0, 84, 52
2, 62863, Note_on_c, 0, 84, 0
2, 62864, Note_on_c, 0, 78, 0
2, 62866, Control_c, 0, 64, 40
2, 62868, Note_on_c, 0, 87, 0
2, 62886, Control_c, 0, 64, 24
2, 62905, Note_on_c, 0, 87, 71
2, 62906, Note_on_c, 0, 90, 69
2, 62911, Note_on_c, 0, 81, 55
2, 62916, Note_on_c, 0, 81, 0
2, 62916, Note_on_c, 0, 87, 0
2, 62918, Note_on_c, 0, 90, 0
2, 62940, Control_c, 0, 64, 0
2, 62961, Note_on_c, 0, 85, 64
2, 62962, Note_on_c, 0, 82, 57
2, 62962, Note_on_c, 0, 89, 67
2, 62968, Note_on_c, 0, 89, 0
2, 62973, Note_on_c, 0, 82, 0
2, 62973, Note_on_c, 0, 85, 0
2, 63010, Note_on_c, 0, 82, 50
2, 63010, Note_on_c, 0, 85, 63
2, 63015, Note_on_c, 0, 77, 49
2, 63021, Note_on_c, 0, 77, 0
2, 63021, Note_on_c, 0, 82, 0
2, 63022, Note_on_c, 0, 85, 0
2, 63058, Note_on_c, 0, 89, 78
2, 63060, Note_on_c, 0, 85, 65
2, 63062, Note_on_c, 0, 82, 54
2, 63065, Note_on_c, 0, 89, 0
2, 63070, Note_on_c, 0, 85, 0
2, 63072, Note_on_c, 0, 82, 0
2, 63111, Note_on_c, 0, 82, 61
2, 63112, Note_on_c, 0, 85, 58
2, 63113, Note_on_c, 0, 77, 66
2, 63118, Note_on_c, 0, 77, 0
2, 63119, Note_on_c, 0, 85, 0
2, 63124, Note_on_c, 0, 82, 0
2, 63161, Note_on_c, 0, 82, 48
2, 63162, Note_on_c, 0, 77, 36
2, 63165, Note_on_c, 0, 73, 36
2, 63167, Note_on_c, 0, 77, 0
2, 63171, Note_on_c, 0, 73, 0
2, 63173, Note_on_c, 0, 82, 0
2, 63207, Note_on_c, 0, 82, 48
2, 63211, Note_on_c, 0, 85, 45
2, 63212, Note_on_c, 0, 77, 58
2, 63217, Note_on_c, 0, 85, 0
2, 63218, Note_on_c, 0, 77, 0
2, 63220, Note_on_c, 0, 82, 0
2, 63257, Control_c, 0, 64, 40
2, 63260, Control_c, 0, 64, 72
2, 63262, Note_on_c, 0, 82, 59
2, 63262, Note_on_c, 0, 78, 49
2, 63262, Control_c, 0, 64, 88
2, 63265, Control_c, 0, 64, 127
2, 63266, Note_on_c, 0, 73, 40
2, 63279, Note_on_c, 0, 78, 0
2, 63283, Note_on_c, 0, 73, 0
2, 63283, Note_on_c, 0, 82, 0
2, 63290, Note_on_c, 0, 84, 57
2, 63297, Note_on_c, 0, 84, 0
2, 63297, Note_on_c, 0, 76, 29
2, 63305, Note_on_c, 0, 76, 0
2, 63313, Note_on_c, 0, 82, 59
2, 63313, Control_c, 0, 64, 104
2, 63315, Note_on_c, 0, 78, 50
2, 63317, Note_on_c, 0, 73, 43
2, 63323, Control_c, 0, 64, 88
2, 63327, Note_on_c, 0, 78, 0
2, 63330, Note_on_c, 0, 82, 0
2, 63332, Note_on_c, 0, 73, 0
2, 63338, Note_on_c, 0, 84, 64
2, 63341, Note_on_c, 0, 76, 52
2, 63349, Note_on_c, 0, 84, 0
2, 63353, Note_on_c, 0, 76, 0
2, 63358, Control_c, 0, 64, 72
2, 63363, Note_on_c, 0, 82, 60
2, 63365, Note_on_c, 0, 78, 52
2, 63368, Note_on_c, 0, 73, 41
2, 63376, Note_on_c, 0, 78, 0
2, 63380, Note_on_c, 0, 73, 0
2, 63381, Note_on_c, 0, 82, 0
2, 63387, Note_on_c, 0, 84, 75
2, 63390, Note_on_c, 0, 76, 49
2, 63398, Note_on_c, 0, 76, 0
2, 63400, Note_on_c, 0, 84, 0
2, 63413, Note_on_c, 0, 82, 68
2, 63415, Note_on_c, 0, 78, 49
2, 63415, Note_on_c, 0, 73, 50
2, 63417, Control_c, 0, 64, 56
2, 63420, Control_c, 0, 64, 40
2, 63421, Note_on_c, 0, 73, 0
2, 63421, Note_on_c, 0, 78, 0
2, 63424, Note_on_c, 0, 82, 0
2, 63425, Control_c, 0, 64, 24
2, 63430, Control_c, 0, 64, 0
2, 63461, Note_on_c, 0, 78, 60
2, 63465, Note_on_c, 0, 76, 39
2, 63466, Note_on_c, 0, 70, 42
2, 63470, Note_on_c, 0, 76, 0
2, 63471, Note_on_c, 0, 70, 0
2, 63473, Note_on_c, 0, 78, 0
2, 63510, Note_on_c, 0, 82, 67
2, 63510, Note_on_c, 0, 78, 59
2, 63510, Note_on_c, 0, 73, 61
2, 63515, Note_on_c, 0, 78, 0
2, 63521, Note_on_c, 0, 73, 0
2, 63522, Note_on_c, 0, 82, 0
2, 63560, Note_on_c, 0, 85, 67
2, 63560, Note_on_c, 0, 77, 67
2, 63560, Note_on_c, 0, 82, 57
2, 63566, Note_on_c, 0, 77, 0
2, 63567, Note_on_c, 0, 82, 0
2, 63571, Note_on_c, 0, 85, 0
2, 63611, Note_on_c, 0, 82, 53
2, 63611, Note_on_c, 0, 73, 53
2, 63612, Note_on_c, 0, 77, 43
2, 63619, Note_on_c, 0, 77, 0
2, 63622, Note_on_c, 0, 82, 0
2, 63623, Note_on_c, 0, 73, 0
2, 63655, Note_on_c, 0, 85, 60
2, 63656, Note_on_c, 0, 82, 52
2, 63660, Note_on_c, 0, 77, 53
2, 63664, Note_on_c, 0, 82, 0
2, 63666, Note_on_c, 0, 85, 0
2, 63667, Note_on_c, 0, 77, 0
2, 63702, Note_on_c, 0, 82, 63
2, 63706, Note_on_c, 0, 73, 46
2, 63710, Note_on_c, 0, 77, 35
2, 63714, Note_on_c, 0, 73, 0
2, 63715, Note_on_c, 0, 82, 0
2, 63717, Note_on_c, 0, 77, 0
2, 63750, Note_on_c, 0, 70, 46
2, 63750, Note_on_c, 0, 77, 60
2, 63757, Note_on_c, 0, 77, 0
2, 63760, Note_on_c, 0, 70, 0
2, 63796, Note_on_c, 0, 82, 57
2, 63798, Note_on_c, 0, 73, 44
2, 63801, Note_on_c, 0, 77, 35
2, 63806, Note_on_c, 0, 77, 0
2, 63809, Note_on_c, 0, 82, 0
2, 63813, Note_on_c, 0, 73, 0
2, 63843, Control_c, 0, 64, 40
2, 63846, Control_c, 0, 64, 56
2, 63847, Note_on_c, 0, 75, 44
2, 63848, Control_c, 0, 64, 72
2, 63850, Note_on_c, 0, 78, 50
2, 63850, Note_on_c, 0, 69, 34
2, 63851, Control_c, 0, 64, 88
2, 63853, Control_c, 0, 64, 104
2, 63858, Control_c, 0, 64, 127
2, 63860, Note_on_c, 0, 75, 0
2, 63863, Note_on_c, 0, 78, 0
2, 63867, Note_on_c, 0, 69, 0
2, 63871, Note_on_c, 0, 80, 56
2, 63875, Note_on_c, 0, 72, 38
2, 63882, Note_on_c, 0, 72, 0
2, 63882, Control_c, 0, 64, 104
2, 63883, Note_on_c, 0, 80, 0
2, 63890, Control_c, 0, 64, 88
2, 63896, Note_on_c, 0, 69, 44
2, 63897, Note_on_c, 0, 75, 49
2, 63897, Control_c, 0, 64, 72
2, 63898, Note_on_c, 0, 78, 49
2, 63900, Control_c, 0, 64, 56
2, 63905, Control_c, 0, 64, 40
2, 63907, Control_c, 0, 64, 24
2, 63909, Note_on_c, 0, 75, 0
2, 63909, Note_on_c, 0, 69, 0
2, 63910, Note_on_c, 0, 78, 0
2, 63917, Control_c, 0, 64, 0
2, 63918, Note_on_c, 0, 80, 63
2, 63918, Note_on_c, 0, 72, 52
2, 63928, Note_on_c, 0, 72, 0
2, 63933, Note_on_c, 0, 80, 0
2, 63943, Note_on_c, 0, 69, 54
2, 63945, Note_on_c, 0, 78, 53
2, 63945, Note_on_c, 0, 75, 45
2, 63955, Note_on_c, 0, 69, 0
2, 63956, Note_on_c, 0, 75, 0
2, 63957, Note_on_c, 0, 78, 0
2, 63965, Note_on_c, 0, 80, 65
2, 63968, Note_on_c, 0, 72, 47
2, 63976, Note_on_c, 0, 72, 0
2, 63983, Note_on_c, 0, 80, 0
2, 63990, Note_on_c, 0, 75, 49
2, 63991, Note_on_c, 0, 78, 60
2, 63992, Note_on_c, 0, 69, 51
2, 63997, Note_on_c, 0, 69, 0
2, 63998, Note_on_c, 0, 75, 0
2, 63999, Note_on_c, 0, 78, 0
2, 64036, Note_on_c, 0, 66, 53
2, 64038, Note_on_c, 0, 75, 64
2, 64042, Note_on_c, 0, 72, 35
2, 64048, Note_on_c, 0, 72, 0
2, 64049, Note_on_c, 0, 66, 0
2, 64051, Note_on_c, 0, 75, 0
2, 64082, Note_on_c, 0, 78, 63
2, 64083, Note_on_c, 0, 75, 60
2, 64086, Note_on_c, 0, 69, 67
2, 64092, Note_on_c, 0, 69, 0
2, 64093, Note_on_c, 0, 75, 0
2, 64094, Note_on_c, 0, 78, 0
2, 64132, Note_on_c, 0, 73, 59
2, 64133, Note_on_c, 0, 77, 59
2, 64135, Note_on_c, 0, 70, 47
2, 64139, Note_on_c, 0, 77, 0
2, 64145, Note_on_c, 0, 73, 0
2, 64146, Note_on_c, 0, 70, 0
2, 64180, Note_on_c, 0, 73, 52
2, 64185, Note_on_c, 0, 65, 43
2, 64191, Note_on_c, 0, 65, 0
2, 64192, Note_on_c, 0, 73, 0
2, 64226, Note_on_c, 0, 70, 53
2, 64226, Note_on_c, 0, 73, 50
2, 64227, Note_on_c, 0, 77, 50
2, 64234, Note_on_c, 0, 77, 0
2, 64237, Note_on_c, 0, 73, 0
2, 64238, Note_on_c, 0, 70, 0
2, 64271, Note_on_c, 0, 73, 54
2, 64272, Note_on_c, 0, 70, 44
2, 64275, Note_on_c, 0, 65, 44
2, 64282, Note_on_c, 0, 65, 0
2, 64283, Note_on_c, 0, 70, 0
2, 64283, Note_on_c, 0, 73, 0
2, 64315, Note_on_c, 0, 70, 53
2, 64320, Note_on_c, 0, 61, 49
2, 64328, Note_on_c, 0, 70, 0
2, 64332, Note_on_c, 0, 61, 0
2, 64361, Note_on_c, 0, 73, 55
2, 64362, Note_on_c, 0, 70, 49
2, 64365, Note_on_c, 0, 65, 50
2, 64370, Note_on_c, 0, 65, 0
2, 64373, Note_on_c, 0, 70, 0
2, 64374, Note_on_c, 0, 73, 0
2, 64411, Note_on_c, 0, 66, 45
2, 64411, Note_on_c, 0, 61, 45
2, 64413, Note_on_c, 0, 70, 50
2, 64427, Note_on_c, 0, 66, 0
2, 64428, Note_on_c, 0, 61, 0
2, 64430, Note_on_c, 0, 70, 0
2, 64437, Note_on_c, 0, 64, 43
2, 64438, Note_on_c, 0, 72, 61
2, 64444, Note_on_c, 0, 72, 0
2, 64444, Note_on_c, 0, 64, 0
2, 64457, Note_on_c, 0, 61, 50
2, 64458, Note_on_c, 0, 66, 49
2, 64458, Note_on_c, 0, 70, 58
2, 64471, Note_on_c, 0, 66, 0
2, 64472, Note_on_c, 0, 61, 0
2, 64475, Note_on_c, 0, 70, 0
2, 64480, Note_on_c, 0, 64, 42
2, 64482, Note_on_c, 0, 72, 58
2, 64489, Note_on_c, 0, 72, 0
2, 64500, Note_on_c, 0, 64, 0
2, 64502, Note_on_c, 0, 66, 49
2, 64503, Note_on_c, 0, 61, 45
2, 64503, Note_on_c, 0, 70, 60
2, 64514, Note_on_c, 0, 66, 0
2, 64520, Note_on_c, 0, 70, 0
2, 64520, Note_on_c, 0, 61, 0
2, 64527, Note_on_c, 0, 72, 63
2, 64528, Note_on_c, 0, 64, 44
2, 64540, Note_on_c, 0, 72, 0
2, 64541, Note_on_c, 0, 64, 0
2, 64550, Note_on_c, 0, 66, 55
2, 64550, Note_on_c, 0, 61, 49
2, 64551, Note_on_c, 0, 70, 52
2, 64558, Note_on_c, 0, 70, 0
2, 64560, Note_on_c, 0, 61, 0
2, 64561, Note_on_c, 0, 66, 0
2, 64596, Note_on_c, 0, 66, 61
2, 64597, Note_on_c, 0, 64, 49
2, 64598, Note_on_c, 0, 58, 47
2, 64604, Note_on_c, 0, 64, 0
2, 64607, Note_on_c, 0, 66, 0
2, 64609, Note_on_c, 0, 58, 0
2, 64640, Note_on_c, 0, 66, 64
2, 64641, Note_on_c, 0, 70, 60
2, 64642, Note_on_c, 0, 61, 53
2, 64650, Note_on_c, 0, 66, 0
2, 64652, Note_on_c, 0, 70, 0
2, 64654, Note_on_c, 0, 61, 0
2, 64688, Note_on_c, 0, 70, 49
2, 64690, Note_on_c, 0, 73, 53
2, 64690, Note_on_c, 0, 65, 45
2, 64698, Note_on_c, 0, 65, 0
2, 64700, Note_on_c, 0, 70, 0
2, 64702, Note_on_c, 0, 73, 0
2, 64733, Note_on_c, 0, 65, 51
2, 64735, Note_on_c, 0, 70, 54
2, 64735, Note_on_c, 0, 58, 44
2, 64745, Note_on_c, 0, 70, 0
2, 64745, Note_on_c, 0, 65, 0
2, 64747, Note_on_c, 0, 58, 0
2, 64778, Note_on_c, 0, 73, 64
2, 64780, Note_on_c, 0, 70, 49
2, 64782, Note_on_c, 0, 65, 49
2, 64787, Note_on_c, 0, 70, 0
2, 64788, Note_on_c, 0, 65, 0
2, 64790, Note_on_c, 0, 73, 0
2, 64822, Note_on_c, 0, 70, 56
2, 64826, Note_on_c, 0, 65, 51
2, 64826, Note_on_c, 0, 61, 48
2, 64837, Note_on_c, 0, 61, 0
2, 64838, Note_on_c, 0, 65, 0
2, 64839, Note_on_c, 0, 70, 0
2, 64868, Note_on_c, 0, 61, 35
2, 64870, Note_on_c, 0, 58, 37
2, 64872, Note_on_c, 0, 65, 53
2, 64874, Note_on_c, 0, 61, 0
2, 64879, Note_on_c, 0, 65, 0
2, 64883, Note_on_c, 0, 58, 0
2, 64915, Note_on_c, 0, 61, 47
2, 64915, Note_on_c, 0, 70, 47
2, 64917, Note_on_c, 0, 65, 43
2, 64927, Note_on_c, 0, 65, 0
2, 64927, Note_on_c, 0, 61, 0
2, 64928, Note_on_c, 0, 70, 0
2, 64962, Note_on_c, 0, 63, 44
2, 64962, Note_on_c, 0, 66, 49
2, 64966, Note_on_c, 0, 57, 44
2, 64978, Note_on_c, 0, 57, 0
2, 64978, Note_on_c, 0, 63, 0
2, 64980, Note_on_c, 0, 66, 0
2, 64986, Note_on_c, 0, 68, 59
2, 64988, Note_on_c, 0, 60, 41
2, 64996, Note_on_c, 0, 60, 0
2, 65002, Note_on_c, 0, 68, 0
2, 65011, Note_on_c, 0, 63, 48
2, 65011, Note_on_c, 0, 57, 41
2, 65012, Note_on_c, 0, 66, 48
2, 65026, Note_on_c, 0, 57, 0
2, 65026, Note_on_c, 0, 63, 0
2, 65028, Note_on_c, 0, 66, 0
2, 65032, Note_on_c, 0, 68, 56
2, 65033, Note_on_c, 0, 60, 43
2, 65049, Note_on_c, 0, 68, 0
2, 65050, Note_on_c, 0, 60, 0
2, 65056, Note_on_c, 0, 63, 48
2, 65056, Note_on_c, 0, 66, 56
2, 65057, Note_on_c, 0, 57, 40
2, 65068, Note_on_c, 0, 63, 0
2, 65071, Note_on_c, 0, 66, 0
2, 65073, Note_on_c, 0, 57, 0
2, 65076, Note_on_c, 0, 68, 58
2, 65080, Note_on_c, 0, 60, 47
2, 65091, Note_on_c, 0, 60, 0
2, 65094, Note_on_c, 0, 68, 0
2, 65101, Note_on_c, 0, 63, 52
2, 65101, Note_on_c, 0, 66, 58
2, 65102, Note_on_c, 0, 57, 55
2, 65109, Note_on_c, 0, 57, 0
2, 65109, Note_on_c, 0, 63, 0
2, 65112, Note_on_c, 0, 66, 0
2, 65150, Note_on_c, 0, 63, 49
2, 65150, Note_on_c, 0, 54, 49
2, 65151, Note_on_c, 0, 60, 37
2, 65156, Note_on_c, 0, 60, 0
2, 65158, Note_on_c, 0, 54, 0
2, 65161, Note_on_c, 0, 63, 0
2, 65195, Note_on_c, 0, 63, 44
2, 65196, Note_on_c, 0, 66, 53
2, 65197, Note_on_c, 0, 57, 54
2, 65207, Note_on_c, 0, 57, 0
2, 65208, Note_on_c, 0, 63, 0
2, 65211, Note_on_c, 0, 66, 0
2, 65245, Note_on_c, 0, 66, 55
2, 65247, Note_on_c, 0, 63, 35
2, 65247, Control_c, 0, 64, 40
2, 65248, Note_on_c, 0, 57, 46
2, 65250, Control_c, 0, 64, 72
2, 65252, Control_c, 0, 64, 88
2, 65255, Control_c, 0, 64, 104
2, 65256, Control_c, 0, 64, 127
2, 65263, Note_on_c, 0, 63, 0
2, 65266, Note_on_c, 0, 57, 0
2, 65267, Note_on_c, 0, 66, 0
2, 65270, Note_on_c, 0, 68, 58
2, 65273, Note_on_c, 0, 60, 40
2, 65278, Control_c, 0, 64, 104
2, 65281, Control_c, 0, 64, 88
2, 65283, Note_on_c, 0, 60, 0
2, 65286, Control_c, 0, 64, 72
2, 65290, Note_on_c, 0, 68, 0
2, 65291, Control_c, 0, 64, 56
2, 65293, Note_on_c, 0, 57, 41
2, 65293, Note_on_c, 0, 66, 54
2, 65295, Note_on_c, 0, 63, 41
2, 65296, Control_c, 0, 64, 40
2, 65301, Control_c, 0, 64, 24
2, 65306, Note_on_c, 0, 63, 0
2, 65306, Control_c, 0, 64, 0
2, 65310, Note_on_c, 0, 66, 0
2, 65311, Note_on_c, 0, 57, 0
2, 65313, Note_on_c, 0, 68, 61
2, 65322, Note_on_c, 0, 60, 27
2, 65329, Note_on_c, 0, 60, 0
2, 65330, Note_on_c, 0, 68, 0
2, 65336, Note_on_c, 0, 66, 64
2, 65340, Note_on_c, 0, 57, 35
2, 65341, Note_on_c, 0, 63, 36
2, 65348, Note_on_c, 0, 63, 0
2, 65353, Note_on_c, 0, 57, 0
2, 65354, Note_on_c, 0, 66, 0
2, 65358, Note_on_c, 0, 68, 56
2, 65363, Note_on_c, 0, 60, 43
2, 65376, Note_on_c, 0, 60, 0
2, 65379, Note_on_c, 0, 68, 0
2, 65383, Note_on_c, 0, 57, 43
2, 65383, Note_on_c, 0, 66, 55
2, 65390, Note_on_c, 0, 57, 0
2, 65391, Note_on_c, 0, 66, 0
2, 65430, Note_on_c, 0, 54, 54
2, 65432, Note_on_c, 0, 63, 48
2, 65432, Note_on_c, 0, 60, 35
2, 65437, Note_on_c, 0, 60, 0
2, 65440, Note_on_c, 0, 54, 0
2, 65444, Note_on_c, 0, 63, 0
2, 65476, Note_on_c, 0, 66, 53
2, 65477, Note_on_c, 0, 63, 43
2, 65481, Note_on_c, 0, 57, 38
2, 65489, Note_on_c, 0, 63, 0
2, 65491, Note_on_c, 0, 57, 0
2, 65491, Control_c, 0, 64, 40
2, 65492, Note_on_c, 0, 66, 0
2, 65492, Control_c, 0, 64, 56
2, 65495, Control_c, 0, 64, 72
2, 65497, Control_c, 0, 64, 88
2, 65506, Control_c, 0, 64, 104
2, 65512, Control_c, 0, 64, 72
2, 65517, Control_c, 0, 64, 56
2, 65520, Control_c, 0, 64, 40
2, 65522, Control_c, 0, 64, 24
2, 65525, Control_c, 0, 64, 0
2, 65687, Control_c, 0, 64, 24
2, 65690, Control_c, 0, 64, 40
2, 65692, Control_c, 0, 64, 72
2, 65692, Control_c, 0, 67, 127
2, 65695, Note_on_c, 0, 75, 37
2, 65695, Control_c, 0, 64, 88
2, 65696, Note_on_c, 0, 78, 47
2, 65696, Note_on_c, 0, 69, 49
2, 65697, Control_c, 0, 64, 104
2, 65700, Control_c, 0, 64, 127
2, 65707, Note_on_c, 0, 75, 0
2, 65709, Note_on_c, 0, 78, 0
2, 65711, Note_on_c, 0, 69, 0
2, 65718, Note_on_c, 0, 80, 55
2, 65731, Note_on_c, 0, 80, 0
2, 65740, Note_on_c, 0, 78, 53
2, 65740, Note_on_c, 0, 75, 43
2, 65743, Note_on_c, 0, 69, 41
2, 65750, Note_on_c, 0, 75, 0
2, 65753, Note_on_c, 0, 69, 0
2, 65755, Note_on_c, 0, 78, 0
2, 65756, Control_c, 0, 64, 104
2, 65757, Note_on_c, 0, 80, 59
2, 65758, Note_on_c, 0, 72, 34
2, 65759, Note_on_c, 0, 72, 0
2, 65762, Note_on_c, 0, 80, 0
2, 65770, Note_on_c, 0, 75, 43
2, 65771, Note_on_c, 0, 78, 54
2, 65776, Note_on_c, 0, 75, 0
2, 65778, Note_on_c, 0, 78, 0
2, 65788, Control_c, 0, 64, 127
2, 65821, Note_on_c, 0, 87, 59
2, 65822, Note_on_c, 0, 90, 63
2, 65823, Note_on_c, 0, 81, 58
2, 65835, Note_on_c, 0, 81, 0
2, 65836, Note_on_c, 0, 87, 0
2, 65837, Note_on_c, 0, 90, 0
2, 65846, Note_on_c, 0, 92, 70
2, 65847, Note_on_c, 0, 84, 42
2, 65857, Note_on_c, 0, 84, 0
2, 65857, Note_on_c, 0, 92, 0
2, 65870, Note_on_c, 0, 81, 47
2, 65870, Note_on_c, 0, 90, 53
2, 65870, Note_on_c, 0, 87, 44
2, 65882, Note_on_c, 0, 87, 0
2, 65882, Note_on_c, 0, 90, 0
2, 65883, Note_on_c, 0, 81, 0
2, 65890, Note_on_c, 0, 92, 67
2, 65896, Note_on_c, 0, 84, 40
2, 65906, Note_on_c, 0, 84, 0
2, 65910, Note_on_c, 0, 92, 0
2, 65917, Note_on_c, 0, 90, 61
2, 65920, Note_on_c, 0, 81, 44
2, 65925, Note_on_c, 0, 90, 0
2, 65926, Note_on_c, 0, 81, 0
2, 65962, Note_on_c, 0, 75, 55
2, 65963, Note_on_c, 0, 78, 55
2, 65966, Note_on_c, 0, 69, 52
2, 65966, Control_c, 0, 64, 104
2, 65968, Note_on_c, 0, 78, 0
2, 65968, Control_c, 0, 64, 72
2, 65969, Note_on_c, 0, 75, 0
2, 65971, Control_c, 0, 64, 40
2, 65972, Control_c, 0, 64, 0
2, 65979, Note_on_c, 0, 69, 0
2, 65980, Control_c, 0, 64, 40
2, 65982, Control_c, 0, 64, 88
2, 65985, Control_c, 0, 64, 127
2, 65987, Note_on_c, 0, 80, 57
2, 65991, Note_on_c, 0, 72, 42
2, 65999, Note_on_c, 0, 72, 0
2, 65999, Note_on_c, 0, 80, 0
2, 66008, Note_on_c, 0, 75, 50
2, 66011, Note_on_c, 0, 78, 55
2, 66011, Note_on_c, 0, 69, 45
2, 66019, Note_on_c, 0, 75, 0
2, 66024, Note_on_c, 0, 69, 0
2, 66024, Note_on_c, 0, 78, 0
2, 66033, Note_on_c, 0, 80, 55
2, 66036, Note_on_c, 0, 72, 38
2, 66050, Note_on_c, 0, 80, 0
2, 66055, Note_on_c, 0, 78, 61
2, 66058, Note_on_c, 0, 72, 0
2, 66061, Note_on_c, 0, 78, 0
2, 66108, Note_on_c, 0, 87, 54
2, 66111, Note_on_c, 0, 90, 57
2, 66111, Note_on_c, 0, 81, 51
2, 66121, Note_on_c, 0, 87, 0
2, 66123, Note_on_c, 0, 81, 0
2, 66124, Note_on_c, 0, 90, 0
2, 66133, Note_on_c, 0, 92, 63
2, 66145, Note_on_c, 0, 92, 0
2, 66157, Note_on_c, 0, 87, 49
2, 66160, Note_on_c, 0, 90, 52
2, 66160, Note_on_c, 0, 81, 38
2, 66170, Note_on_c, 0, 87, 0
2, 66171, Note_on_c, 0, 81, 0
2, 66172, Note_on_c, 0, 90, 0
2, 66185, Note_on_c, 0, 92, 53
2, 66198, Note_on_c, 0, 92, 0
2, 66211, Note_on_c, 0, 90, 46
2, 66212, Note_on_c, 0, 87, 35
2, 66220, Note_on_c, 0, 87, 0
2, 66222, Note_on_c, 0, 90, 0
2, 66302, Control_c, 0, 64, 104
2, 66386, Control_c, 0, 64, 88
2, 66406, Control_c, 0, 64, 72
2, 66411, Control_c, 0, 64, 56
2, 66413, Control_c, 0, 64, 40
2, 66416, Control_c, 0, 64, 24
2, 66418, Control_c, 0, 64, 0
2, 66443, Control_c, 0, 64, 24
2, 66446, Control_c, 0, 64, 56
2, 66447, Control_c, 0, 64, 88
2, 66450, Control_c, 0, 64, 104
2, 66452, Control_c, 0, 64, 127
2, 66467, Control_c, 0, 67, 0
2, 66480, Note_on_c, 0, 78, 72
2, 66480, Control_c, 0, 64, 127
2, 66482, Note_on_c, 0, 66, 52
2, 66563, Control_c, 0, 64, 24
2, 66567, Control_c, 0, 64, 0
2, 66578, Note_on_c, 0, 45, 51
2, 66582, Control_c, 0, 64, 72
2, 66586, Control_c, 0, 64, 127
2, 66612, Note_on_c, 0, 78, 0
2, 66618, Note_on_c, 0, 45, 0
2, 66623, Note_on_c, 0, 66, 0
2, 66625, Note_on_c, 0, 51, 38
2, 66658, Note_on_c, 0, 51, 0
2, 66662, Note_on_c, 0, 77, 85
2, 66663, Note_on_c, 0, 65, 61
2, 66667, Note_on_c, 0, 54, 48
2, 66698, Note_on_c, 0, 54, 0
2, 66705, Note_on_c, 0, 59, 72
2, 66735, Note_on_c, 0, 59, 0
2, 66743, Note_on_c, 0, 63, 57
2, 66748, Note_on_c, 0, 77, 0
2, 66761, Note_on_c, 0, 63, 0
2, 66763, Note_on_c, 0, 65, 0
2, 66781, Note_on_c, 0, 59, 62
2, 66815, Note_on_c, 0, 78, 91
2, 66816, Note_on_c, 0, 59, 0
2, 66817, Note_on_c, 0, 66, 68
2, 66820, Note_on_c, 0, 54, 46
2, 66848, Note_on_c, 0, 54, 0
2, 66857, Note_on_c, 0, 51, 48
2, 66873, Control_c, 0, 64, 72
2, 66876, Control_c, 0, 64, 0
2, 66888, Note_on_c, 0, 51, 0
2, 66891, Control_c, 0, 64, 56
2, 66895, Control_c, 0, 64, 127
2, 66897, Note_on_c, 0, 45, 61
2, 66898, Note_on_c, 0, 66, 0
2, 66907, Note_on_c, 0, 78, 0
2, 66922, Note_on_c, 0, 45, 0
2, 66926, Note_on_c, 0, 51, 67
2, 66964, Note_on_c, 0, 51, 0
2, 66970, Note_on_c, 0, 85, 99
2, 66973, Note_on_c, 0, 73, 83
2, 66975, Note_on_c, 0, 54, 53
2, 67007, Note_on_c, 0, 54, 0
2, 67012, Note_on_c, 0, 59, 73
2, 67050, Note_on_c, 0, 59, 0
2, 67050, Note_on_c, 0, 63, 68
2, 67061, Note_on_c, 0, 85, 0
2, 67065, Note_on_c, 0, 73, 0
2, 67081, Note_on_c, 0, 63, 0
2, 67090, Note_on_c, 0, 61, 64
2, 67117, Note_on_c, 0, 61, 0
2, 67126, Note_on_c, 0, 79, 92
2, 67130, Note_on_c, 0, 67, 70
2, 67133, Note_on_c, 0, 59, 52
2, 67163, Note_on_c, 0, 59, 0
2, 67175, Note_on_c, 0, 51, 58
2, 67192, Note_on_c, 0, 51, 0
2, 67226, Note_on_c, 0, 44, 63
2, 67228, Control_c, 0, 64, 72
2, 67232, Control_c, 0, 64, 0
2, 67257, Note_on_c, 0, 67, 0
2, 67261, Note_on_c, 0, 79, 0
2, 67265, Control_c, 0, 64, 127
2, 67271, Note_on_c, 0, 52, 57
2, 67273, Note_on_c, 0, 44, 0
2, 67310, Note_on_c, 0, 80, 81
2, 67311, Note_on_c, 0, 68, 60
2, 67312, Note_on_c, 0, 52, 0
2, 67316, Note_on_c, 0, 56, 46
2, 67328, Note_on_c, 0, 56, 0
2, 67348, Note_on_c, 0, 68, 0
2, 67357, Note_on_c, 0, 59, 66
2, 67405, Note_on_c, 0, 80, 0
2, 67408, Note_on_c, 0, 59, 0
2, 67431, Note_on_c, 0, 68, 44
2, 67433, Note_on_c, 0, 72, 73
2, 67436, Note_on_c, 0, 64, 52
2, 67440, Control_c, 0, 64, 72
2, 67451, Control_c, 0, 64, 127
2, 67459, Note_on_c, 0, 72, 0
2, 67461, Note_on_c, 0, 74, 73
2, 67476, Note_on_c, 0, 64, 0
2, 67483, Note_on_c, 0, 74, 0
2, 67485, Note_on_c, 0, 72, 80
2, 67486, Note_on_c, 0, 68, 0
2, 67507, Note_on_c, 0, 72, 0
2, 67507, Note_on_c, 0, 74, 78
2, 67526, Note_on_c, 0, 72, 67
2, 67527, Note_on_c, 0, 74, 0
2, 67528, Note_on_c, 0, 64, 59
2, 67532, Note_on_c, 0, 68, 35
2, 67539, Note_on_c, 0, 64, 0
2, 67543, Note_on_c, 0, 74, 69
2, 67544, Note_on_c, 0, 72, 0
2, 67547, Note_on_c, 0, 68, 0
2, 67568, Note_on_c, 0, 74, 0
2, 67571, Note_on_c, 0, 72, 74
2, 67577, Note_on_c, 0, 68, 42
2, 67581, Note_on_c, 0, 64, 48
2, 67585, Control_c, 0, 64, 56
2, 67588, Control_c, 0, 64, 0
2, 67593, Note_on_c, 0, 72, 0
2, 67598, Control_c, 0, 64, 104
2, 67602, Control_c, 0, 64, 127
2, 67603, Note_on_c, 0, 71, 62
2, 67619, Note_on_c, 0, 71, 0
2, 67621, Note_on_c, 0, 70, 71
2, 67634, Note_on_c, 0, 70, 0
2, 67643, Note_on_c, 0, 71, 76
2, 67663, Note_on_c, 0, 71, 0
2, 67670, Note_on_c, 0, 76, 74
2, 67696, Note_on_c, 0, 78, 77
2, 67698, Note_on_c, 0, 76, 0
2, 67705, Control_c, 0, 64, 88
2, 67708, Control_c, 0, 64, 0
2, 67716, Note_on_c, 0, 59, 47
2, 67720, Control_c, 0, 64, 40
2, 67722, Note_on_c, 0, 80, 75
2, 67722, Control_c, 0, 64, 104
2, 67726, Control_c, 0, 64, 127
2, 67731, Note_on_c, 0, 78, 0
2, 67742, Note_on_c, 0, 80, 0
2, 67748, Note_on_c, 0, 83, 76
2, 67759, Note_on_c, 0, 59, 0
2, 67762, Note_on_c, 0, 64, 0
2, 67765, Note_on_c, 0, 83, 0
2, 67767, Note_on_c, 0, 68, 0
2, 67775, Note_on_c, 0, 88, 79
2, 67800, Note_on_c, 0, 88, 0
2, 67803, Note_on_c, 0, 90, 80
2, 67830, Note_on_c, 0, 92, 77
2, 67838, Note_on_c, 0, 90, 0
2, 67866, Note_on_c, 0, 92, 0
2, 67926, Control_c, 0, 64, 88
2, 67930, Control_c, 0, 64, 0
2, 67937, Note_on_c, 0, 45, 66
2, 67951, Control_c, 0, 64, 56
2, 67956, Control_c, 0, 64, 127
2, 67965, Note_on_c, 0, 45, 0
2, 67972, Note_on_c, 0, 51, 62
2, 68004, Note_on_c, 0, 51, 0
2, 68007, Note_on_c, 0, 89, 97
2, 68008, Note_on_c, 0, 77, 84
2, 68013, Note_on_c, 0, 54, 52
2, 68036, Note_on_c, 0, 54, 0
2, 68043, Note_on_c, 0, 59, 72
2, 68065, Note_on_c, 0, 59, 0
2, 68076, Note_on_c, 0, 63, 67
2, 68097, Note_on_c, 0, 63, 0
2, 68106, Note_on_c, 0, 66, 58
2, 68113, Note_on_c, 0, 77, 0
2, 68131, Note_on_c, 0, 63, 57
2, 68132, Note_on_c, 0, 66, 0
2, 68153, Note_on_c, 0, 63, 0
2, 68153, Note_on_c, 0, 89, 0
2, 68163, Note_on_c, 0, 59, 70
2, 68180, Note_on_c, 0, 90, 99
2, 68182, Note_on_c, 0, 78, 83
2, 68195, Note_on_c, 0, 59, 0
2, 68197, Note_on_c, 0, 54, 60
2, 68220, Note_on_c, 0, 54, 0
2, 68225, Note_on_c, 0, 51, 61
2, 68227, Control_c, 0, 64, 104
2, 68231, Control_c, 0, 64, 24
2, 68235, Control_c, 0, 64, 0
2, 68246, Control_c, 0, 64, 72
2, 68248, Control_c, 0, 64, 127
2, 68251, Note_on_c, 0, 51, 0
2, 68255, Note_on_c, 0, 78, 0
2, 68256, Note_on_c, 0, 45, 66
2, 68268, Note_on_c, 0, 90, 0
2, 68278, Note_on_c, 0, 45, 0
2, 68282, Note_on_c, 0, 51, 65
2, 68314, Note_on_c, 0, 51, 0
2, 68318, Note_on_c, 0, 54, 53
2, 68331, Note_on_c, 0, 97, 106
2, 68332, Note_on_c, 0, 85, 90
2, 68340, Note_on_c, 0, 54, 0
2, 68353, Note_on_c, 0, 59, 57
2, 68366, Note_on_c, 0, 59, 0
2, 68378, Note_on_c, 0, 63, 67
2, 68401, Note_on_c, 0, 63, 0
2, 68410, Note_on_c, 0, 66, 65
2, 68413, Note_on_c, 0, 97, 0
2, 68415, Note_on_c, 0, 85, 0
2, 68430, Note_on_c, 0, 66, 0
2, 68435, Note_on_c, 0, 63, 53
2, 68462, Note_on_c, 0, 63, 0
2, 68465, Note_on_c, 0, 59, 70
2, 68486, Note_on_c, 0, 91, 95
2, 68487, Note_on_c, 0, 79, 80
2, 68498, Note_on_c, 0, 63, 58
2, 68505, Note_on_c, 0, 59, 0
2, 68538, Note_on_c, 0, 67, 50
2, 68539, Note_on_c, 0, 63, 0
2, 68546, Note_on_c, 0, 67, 0
2, 68583, Control_c, 0, 64, 56
2, 68585, Note_on_c, 0, 44, 59
2, 68587, Control_c, 0, 64, 0
2, 68608, Control_c, 0, 64, 88
2, 68609, Note_on_c, 0, 79, 0
2, 68612, Control_c, 0, 64, 127
2, 68619, Note_on_c, 0, 91, 0
2, 68631, Note_on_c, 0, 52, 42
2, 68632, Note_on_c, 0, 44, 0
2, 68646, Note_on_c, 0, 52, 0
2, 68650, Note_on_c, 0, 56, 53
2, 68657, Note_on_c, 0, 56, 0
2, 68672, Note_on_c, 0, 92, 88
2, 68675, Note_on_c, 0, 80, 73
2, 68698, Note_on_c, 0, 59, 52
2, 68730, Note_on_c, 0, 59, 0
2, 68731, Note_on_c, 0, 80, 0
2, 68737, Note_on_c, 0, 64, 62
2, 68755, Note_on_c, 0, 92, 0
2, 68790, Note_on_c, 0, 64, 0
2, 68793, Note_on_c, 0, 72, 63
2, 68796, Note_on_c, 0, 68, 55
2, 68797, Control_c, 0, 64, 88
2, 68798, Note_on_c, 0, 84, 78
2, 68808, Control_c, 0, 64, 127
2, 68819, Note_on_c, 0, 68, 0
2, 68820, Note_on_c, 0, 72, 0
2, 68824, Note_on_c, 0, 84, 0
2, 68826, Note_on_c, 0, 86, 76
2, 68847, Note_on_c, 0, 86, 0
2, 68847, Note_on_c, 0, 84, 78
2, 68868, Note_on_c, 0, 84, 0
2, 68868, Note_on_c, 0, 86, 79
2, 68882, Note_on_c, 0, 72, 67
2, 68885, Note_on_c, 0, 68, 48
2, 68886, Note_on_c, 0, 84, 66
2, 68888, Note_on_c, 0, 86, 0
2, 68902, Note_on_c, 0, 68, 0
2, 68907, Note_on_c, 0, 84, 0
2, 68910, Note_on_c, 0, 86, 74
2, 68914, Note_on_c, 0, 72, 0
2, 68935, Note_on_c, 0, 84, 73
2, 68936, Note_on_c, 0, 68, 47
2, 68937, Note_on_c, 0, 86, 0
2, 68938, Note_on_c, 0, 64, 43
2, 68947, Control_c, 0, 64, 56
2, 68950, Control_c, 0, 64, 0
2, 68951, Note_on_c, 0, 72, 69
2, 68953, Control_c, 0, 64, 24
2, 68957, Control_c, 0, 64, 72
2, 68961, Control_c, 0, 64, 127
2, 68967, Note_on_c, 0, 84, 0
2, 68972, Note_on_c, 0, 83, 80
2, 68989, Note_on_c, 0, 83, 0
2, 68995, Note_on_c, 0, 82, 70
2, 69008, Note_on_c, 0, 82, 0
2, 69020, Note_on_c, 0, 83, 84
2, 69040, Note_on_c, 0, 83, 0
2, 69041, Control_c, 0, 64, 72
2, 69045, Control_c, 0, 64, 56
2, 69046, Note_on_c, 0, 71, 70
2, 69048, Note_on_c, 0, 64, 0
2, 69048, Control_c, 0, 64, 88
2, 69050, Note_on_c, 0, 88, 73
2, 69051, Note_on_c, 0, 72, 0
2, 69052, Control_c, 0, 64, 127
2, 69056, Note_on_c, 0, 71, 0
2, 69056, Note_on_c, 0, 68, 0
2, 69077, Note_on_c, 0, 88, 0
2, 69077, Note_on_c, 0, 90, 65
2, 69101, Note_on_c, 0, 92, 79
2, 69108, Note_on_c, 0, 90, 0
2, 69110, Note_on_c, 0, 80, 79
2, 69112, Note_on_c, 0, 92, 0
2, 69128, Note_on_c, 0, 80, 0
2, 69133, Note_on_c, 0, 95, 80
2, 69145, Note_on_c, 0, 95, 0
2, 69167, Note_on_c, 0, 100, 82
2, 69189, Note_on_c, 0, 100, 0
2, 69195, Note_on_c, 0, 102, 78
2, 69225, Note_on_c, 0, 102, 0
2, 69228, Note_on_c, 0, 104, 76
2, 69239, Note_on_c, 0, 104, 0
2, 69317, Control_c, 0, 64, 72
2, 69321, Control_c, 0, 64, 0
2, 69322, Note_on_c, 0, 47, 49
2, 69338, Control_c, 0, 64, 40
2, 69342, Control_c, 0, 64, 127
2, 69354, Note_on_c, 0, 47, 0
2, 69361, Note_on_c, 0, 53, 58
2, 69386, Note_on_c, 0, 53, 0
2, 69387, Note_on_c, 0, 79, 93
2, 69388, Note_on_c, 0, 67, 73
2, 69398, Note_on_c, 0, 56, 57
2, 69420, Note_on_c, 0, 56, 0
2, 69426, Note_on_c, 0, 61, 64
2, 69451, Note_on_c, 0, 61, 0
2, 69453, Note_on_c, 0, 67, 0
2, 69456, Note_on_c, 0, 65, 66
2, 69467, Note_on_c, 0, 79, 0
2, 69482, Note_on_c, 0, 65, 0
2, 69486, Note_on_c, 0, 61, 68
2, 69516, Note_on_c, 0, 61, 0
2, 69518, Note_on_c, 0, 56, 54
2, 69520, Note_on_c, 0, 80, 89
2, 69521, Note_on_c, 0, 68, 71
2, 69544, Note_on_c, 0, 56, 0
2, 69552, Note_on_c, 0, 53, 61
2, 69558, Note_on_c, 0, 68, 0
2, 69578, Note_on_c, 0, 80, 0
2, 69580, Note_on_c, 0, 53, 0
2, 69587, Note_on_c, 0, 47, 67
2, 69613, Note_on_c, 0, 47, 0
2, 69620, Note_on_c, 0, 53, 72
2, 69646, Note_on_c, 0, 53, 0
2, 69656, Note_on_c, 0, 86, 95
2, 69657, Note_on_c, 0, 74, 81
2, 69660, Note_on_c, 0, 56, 62
2, 69690, Note_on_c, 0, 56, 0
2, 69695, Note_on_c, 0, 61, 73
2, 69718, Note_on_c, 0, 61, 0
2, 69729, Note_on_c, 0, 86, 0
2, 69732, Note_on_c, 0, 65, 66
2, 69737, Note_on_c, 0, 74, 0
2, 69745, Note_on_c, 0, 65, 0
2, 69765, Note_on_c, 0, 61, 64
2, 69793, Note_on_c, 0, 61, 0
2, 69800, Note_on_c, 0, 80, 81
2, 69802, Note_on_c, 0, 68, 68
2, 69803, Note_on_c, 0, 56, 50
2, 69833, Note_on_c, 0, 56, 0
2, 69840, Note_on_c, 0, 53, 61
2, 69850, Note_on_c, 0, 53, 0
2, 69873, Note_on_c, 0, 68, 0
2, 69887, Note_on_c, 0, 45, 73
2, 69893, Note_on_c, 0, 80, 0
2, 69898, Control_c, 0, 64, 88
2, 69902, Control_c, 0, 64, 0
2, 69928, Note_on_c, 0, 54, 54
2, 69931, Control_c, 0, 64, 56
2, 69935, Control_c, 0, 64, 127
2, 69950, Note_on_c, 0, 45, 0
2, 69959, Note_on_c, 0, 54, 0
2, 69961, Note_on_c, 0, 81, 78
2, 69963, Note_on_c, 0, 69, 64
2, 69967, Note_on_c, 0, 57, 56
2, 69978, Note_on_c, 0, 57, 0
2, 69993, Note_on_c, 0, 81, 0
2, 70002, Note_on_c, 0, 61, 61
2, 70015, Note_on_c, 0, 69, 0
2, 70025, Note_on_c, 0, 61, 0
2, 70058, Control_c, 0, 64, 88
2, 70060, Note_on_c, 0, 74, 80
2, 70060, Note_on_c, 0, 69, 53
2, 70060, Note_on_c, 0, 66, 48
2, 70062, Control_c, 0, 64, 104
2, 70065, Control_c, 0, 64, 127
2, 70077, Note_on_c, 0, 74, 0
2, 70083, Note_on_c, 0, 76, 73
2, 70097, Note_on_c, 0, 66, 0
2, 70102, Note_on_c, 0, 69, 0
2, 70105, Note_on_c, 0, 74, 77
2, 70109, Note_on_c, 0, 76, 0
2, 70128, Note_on_c, 0, 74, 0
2, 70131, Note_on_c, 0, 76, 76
2, 70153, Note_on_c, 0, 76, 0
2, 70153, Note_on_c, 0, 74, 78
2, 70153, Note_on_c, 0, 60, 61
2, 70153, Note_on_c, 0, 69, 51
2, 70153, Note_on_c, 0, 66, 40
2, 70171, Note_on_c, 0, 60, 0
2, 70173, Note_on_c, 0, 74, 0
2, 70173, Note_on_c, 0, 76, 74
2, 70180, Note_on_c, 0, 66, 0
2, 70181, Note_on_c, 0, 69, 0
2, 70195, Note_on_c, 0, 66, 49
2, 70197, Note_on_c, 0, 69, 57
2, 70198, Note_on_c, 0, 76, 0
2, 70198, Note_on_c, 0, 74, 76
2, 70200, Note_on_c, 0, 60, 63
2, 70203, Control_c, 0, 64, 104
2, 70207, Control_c, 0, 64, 56
2, 70211, Control_c, 0, 64, 40
2, 70215, Control_c, 0, 64, 72
2, 70218, Note_on_c, 0, 74, 0
2, 70218, Control_c, 0, 64, 127
2, 70225, Note_on_c, 0, 73, 76
2, 70242, Note_on_c, 0, 73, 0
2, 70251, Note_on_c, 0, 74, 75
2, 70275, Note_on_c, 0, 78, 77
2, 70277, Note_on_c, 0, 74, 0
2, 70300, Note_on_c, 0, 80, 78
2, 70303, Note_on_c, 0, 78, 0
2, 70325, Note_on_c, 0, 83, 80
2, 70333, Note_on_c, 0, 60, 0
2, 70333, Note_on_c, 0, 80, 0
2, 70346, Note_on_c, 0, 83, 0
2, 70355, Note_on_c, 0, 81, 78
2, 70355, Note_on_c, 0, 61, 62
2, 70380, Note_on_c, 0, 81, 0
2, 70382, Control_c, 0, 64, 88
2, 70385, Note_on_c, 0, 85, 79
2, 70385, Control_c, 0, 64, 0
2, 70398, Control_c, 0, 64, 72
2, 70403, Control_c, 0, 64, 127
2, 70407, Note_on_c, 0, 85, 0
2, 70412, Note_on_c, 0, 90, 77
2, 70423, Note_on_c, 0, 69, 0
2, 70438, Note_on_c, 0, 66, 0
2, 70440, Note_on_c, 0, 90, 0
2, 70441, Note_on_c, 0, 92, 70
2, 70443, Note_on_c, 0, 61, 0
2, 70472, Note_on_c, 0, 92, 0
2, 70473, Note_on_c, 0, 93, 67
2, 70511, Note_on_c, 0, 93, 0
2, 70555, Note_on_c, 0, 47, 65
2, 70573, Control_c, 0, 64, 56
2, 70577, Control_c, 0, 64, 0
2, 70588, Control_c, 0, 64, 72
2, 70591, Note_on_c, 0, 47, 0
2, 70592, Control_c, 0, 64, 127
2, 70596, Note_on_c, 0, 53, 64
2, 70624, Note_on_c, 0, 53, 0
2, 70628, Note_on_c, 0, 56, 66
2, 70670, Note_on_c, 0, 56, 0
2, 70671, Note_on_c, 0, 61, 56
2, 70672, Note_on_c, 0, 91, 102
2, 70672, Note_on_c, 0, 79, 89
2, 70693, Note_on_c, 0, 61, 0
2, 70697, Note_on_c, 0, 79, 0
2, 70706, Note_on_c, 0, 65, 56
2, 70728, Note_on_c, 0, 65, 0
2, 70735, Note_on_c, 0, 68, 53
2, 70762, Note_on_c, 0, 91, 0
2, 70763, Note_on_c, 0, 68, 0
2, 70765, Note_on_c, 0, 65, 55
2, 70772, Note_on_c, 0, 65, 0
2, 70791, Note_on_c, 0, 61, 61
2, 70814, Note_on_c, 0, 61, 0
2, 70815, Note_on_c, 0, 92, 99
2, 70816, Note_on_c, 0, 80, 83
2, 70818, Note_on_c, 0, 56, 55
2, 70838, Note_on_c, 0, 56, 0
2, 70838, Note_on_c, 0, 53, 65
2, 70865, Note_on_c, 0, 53, 0
2, 70868, Note_on_c, 0, 80, 0
2, 70876, Note_on_c, 0, 47, 66
2, 70887, Note_on_c, 0, 92, 0
2, 70903, Note_on_c, 0, 47, 0
2, 70910, Note_on_c, 0, 53, 69
2, 70937, Note_on_c, 0, 53, 0
2, 70942, Note_on_c, 0, 56, 57
2, 70953, Note_on_c, 0, 98, 99
2, 70956, Note_on_c, 0, 86, 81
2, 70968, Note_on_c, 0, 56, 0
2, 70971, Note_on_c, 0, 61, 60
2, 70994, Note_on_c, 0, 61, 0
2, 71006, Note_on_c, 0, 65, 66
2, 71015, Note_on_c, 0, 98, 0
2, 71026, Note_on_c, 0, 86, 0
2, 71027, Note_on_c, 0, 65, 0
2, 71032, Note_on_c, 0, 68, 55
2, 71063, Note_on_c, 0, 68, 0
2, 71063, Note_on_c, 0, 65, 63
2, 71069, Note_on_c, 0, 65, 0
2, 71095, Note_on_c, 0, 61, 54
2, 71106, Note_on_c, 0, 92, 95
2, 71108, Note_on_c, 0, 80, 82
2, 71126, Note_on_c, 0, 61, 0
2, 71130, Note_on_c, 0, 56, 56
2, 71146, Note_on_c, 0, 53, 63
2, 71147, Note_on_c, 0, 56, 0
2, 71153, Note_on_c, 0, 53, 0
2, 71176, Note_on_c, 0, 80, 0
2, 71183, Note_on_c, 0, 45, 80
2, 71187, Note_on_c, 0, 92, 0
2, 71187, Control_c, 0, 64, 88
2, 71191, Control_c, 0, 64, 0
2, 71212, Control_c, 0, 64, 72
2, 71216, Control_c, 0, 64, 127
2, 71220, Note_on_c, 0, 54, 67
2, 71229, Note_on_c, 0, 45, 0
2, 71245, Note_on_c, 0, 54, 0
2, 71262, Note_on_c, 0, 93, 91
2, 71263, Note_on_c, 0, 81, 69
2, 71291, Note_on_c, 0, 61, 53
2, 71299, Note_on_c, 0, 93, 0
2, 71318, Note_on_c, 0, 66, 57
2, 71336, Note_on_c, 0, 61, 0
2, 71340, Note_on_c, 0, 66, 0
2, 71347, Note_on_c, 0, 69, 51
2, 71355, Note_on_c, 0, 69, 0
2, 71373, Note_on_c, 0, 81, 0
2, 71387, Control_c, 0, 64, 88
2, 71391, Control_c, 0, 64, 0
2, 71395, Note_on_c, 0, 69, 59
2, 71395, Note_on_c, 0, 66, 58
2, 71395, Note_on_c, 0, 86, 80
2, 71398, Note_on_c, 0, 74, 73
2, 71401, Control_c, 0, 64, 40
2, 71405, Control_c, 0, 64, 127
2, 71415, Note_on_c, 0, 86, 0
2, 71418, Note_on_c, 0, 69, 0
2, 71422, Note_on_c, 0, 88, 74
2, 71431, Note_on_c, 0, 66, 0
2, 71442, Note_on_c, 0, 86, 75
2, 71445, Note_on_c, 0, 88, 0
2, 71445, Note_on_c, 0, 74, 0
2, 71464, Note_on_c, 0, 86, 0
2, 71466, Note_on_c, 0, 88, 80
2, 71475, Note_on_c, 0, 74, 68
2, 71477, Note_on_c, 0, 69, 58
2, 71480, Note_on_c, 0, 66, 56
2, 71491, Note_on_c, 0, 86, 84
2, 71493, Note_on_c, 0, 88, 0
2, 71497, Note_on_c, 0, 74, 0
2, 71500, Note_on_c, 0, 66, 0
2, 71500, Note_on_c, 0, 69, 0
2, 71509, Note_on_c, 0, 86, 0
2, 71511, Note_on_c, 0, 88, 70
2, 71533, Note_on_c, 0, 86, 76
2, 71536, Note_on_c, 0, 88, 0
2, 71541, Note_on_c, 0, 69, 61
2, 71541, Note_on_c, 0, 74, 74
2, 71542, Note_on_c, 0, 66, 61
2, 71551, Control_c, 0, 64, 56
2, 71552, Note_on_c, 0, 69, 0
2, 71554, Note_on_c, 0, 86, 0
2, 71557, Note_on_c, 0, 66, 0
2, 71557, Control_c, 0, 64, 72
2, 71561, Note_on_c, 0, 74, 0
2, 71561, Control_c, 0, 64, 127
2, 71562, Note_on_c, 0, 85, 74
2, 71583, Note_on_c, 0, 85, 0
2, 71591, Note_on_c, 0, 84, 61
2, 71608, Note_on_c, 0, 85, 77
2, 71613, Note_on_c, 0, 84, 0
2, 71625, Note_on_c, 0, 85, 0
2, 71636, Note_on_c, 0, 90, 79
2, 71638, Note_on_c, 0, 73, 80
2, 71654, Note_on_c, 0, 73, 0
2, 71665, Note_on_c, 0, 92, 72
2, 71672, Note_on_c, 0, 90, 0
2, 71675, Note_on_c, 0, 92, 0
2, 71696, Note_on_c, 0, 81, 80
2, 71696, Note_on_c, 0, 93, 82
2, 71709, Note_on_c, 0, 81, 0
2, 71712, Note_on_c, 0, 93, 0
2, 71725, Note_on_c, 0, 97, 77
2, 71743, Note_on_c, 0, 97, 0
2, 71755, Note_on_c, 0, 102, 74
2, 71777, Note_on_c, 0, 102, 0
2, 71783, Note_on_c, 0, 104, 77
2, 71820, Note_on_c, 0, 104, 0
2, 71821, Note_on_c, 0, 105, 91
2, 71833, Note_on_c, 0, 105, 0
2, 71905, Note_on_c, 0, 49, 79
2, 71910, Control_c, 0, 64, 88
2, 71913, Control_c, 0, 64, 0
2, 71940, Control_c, 0, 64, 127
2, 71943, Note_on_c, 0, 49, 0
2, 71948, Note_on_c, 0, 55, 62
2, 71973, Note_on_c, 0, 55, 0
2, 71980, Note_on_c, 0, 81, 84
2, 71982, Note_on_c, 0, 69, 65
2, 71985, Note_on_c, 0, 58, 64
2, 72006, Note_on_c, 0, 58, 0
2, 72015, Note_on_c, 0, 64, 75
2, 72038, Note_on_c, 0, 64, 0
2, 72047, Note_on_c, 0, 67, 64
2, 72059, Note_on_c, 0, 69, 0
2, 72062, Note_on_c, 0, 67, 0
2, 72072, Note_on_c, 0, 81, 0
2, 72080, Note_on_c, 0, 64, 61
2, 72113, Note_on_c, 0, 82, 89
2, 72115, Note_on_c, 0, 64, 0
2, 72115, Note_on_c, 0, 70, 72
2, 72151, Note_on_c, 0, 55, 68
2, 72178, Control_c, 0, 64, 40
2, 72181, Note_on_c, 0, 55, 0
2, 72182, Control_c, 0, 64, 0
2, 72186, Note_on_c, 0, 70, 0
2, 72188, Note_on_c, 0, 48, 79
2, 72193, Control_c, 0, 64, 56
2, 72196, Note_on_c, 0, 82, 0
2, 72197, Control_c, 0, 64, 127
2, 72210, Note_on_c, 0, 48, 0
2, 72220, Note_on_c, 0, 55, 65
2, 72248, Note_on_c, 0, 55, 0
2, 72255, Note_on_c, 0, 88, 93
2, 72256, Note_on_c, 0, 76, 78
2, 72258, Note_on_c, 0, 58, 67
2, 72285, Note_on_c, 0, 58, 0
2, 72292, Note_on_c, 0, 64, 82
2, 72317, Note_on_c, 0, 64, 0
2, 72326, Note_on_c, 0, 67, 68
2, 72331, Note_on_c, 0, 88, 0
2, 72338, Note_on_c, 0, 67, 0
2, 72338, Note_on_c, 0, 76, 0
2, 72360, Note_on_c, 0, 64, 61
2, 72388, Note_on_c, 0, 64, 0
2, 72395, Note_on_c, 0, 58, 41
2, 72396, Note_on_c, 0, 82, 81
2, 72397, Note_on_c, 0, 70, 69
2, 72421, Note_on_c, 0, 58, 0
2, 72423, Note_on_c, 0, 55, 53
2, 72429, Note_on_c, 0, 55, 0
2, 72463, Note_on_c, 0, 70, 0
2, 72472, Note_on_c, 0, 47, 79
2, 72473, Note_on_c, 0, 82, 0
2, 72480, Control_c, 0, 64, 40
2, 72483, Control_c, 0, 64, 0
2, 72510, Control_c, 0, 64, 104
2, 72512, Note_on_c, 0, 55, 72
2, 72513, Control_c, 0, 64, 127
2, 72518, Note_on_c, 0, 47, 0
2, 72538, Note_on_c, 0, 55, 0
2, 72547, Note_on_c, 0, 82, 94
2, 72547, Note_on_c, 0, 59, 61
2, 72548, Note_on_c, 0, 70, 77
2, 72565, Note_on_c, 0, 70, 0
2, 72572, Note_on_c, 0, 59, 0
2, 72581, Note_on_c, 0, 64, 65
2, 72584, Note_on_c, 0, 82, 0
2, 72601, Note_on_c, 0, 64, 0
2, 72617, Note_on_c, 0, 67, 74
2, 72648, Note_on_c, 0, 67, 0
2, 72652, Note_on_c, 0, 64, 69
2, 72689, Note_on_c, 0, 64, 0
2, 72690, Note_on_c, 0, 83, 87
2, 72691, Note_on_c, 0, 71, 72
2, 72695, Note_on_c, 0, 59, 69
2, 72707, Note_on_c, 0, 71, 0
2, 72708, Note_on_c, 0, 59, 0
2, 72721, Note_on_c, 0, 83, 0
2, 72728, Note_on_c, 0, 55, 72
2, 72753, Note_on_c, 0, 55, 0
2, 72780, Note_on_c, 0, 46, 80
2, 72785, Control_c, 0, 64, 56
2, 72790, Control_c, 0, 64, 0
2, 72815, Control_c, 0, 64, 127
2, 72821, Note_on_c, 0, 55, 67
2, 72822, Note_on_c, 0, 46, 0
2, 72854, Note_on_c, 0, 55, 0
2, 72861, Note_on_c, 0, 88, 97
2, 72863, Note_on_c, 0, 76, 87
2, 72865, Note_on_c, 0, 60, 63
2, 72896, Note_on_c, 0, 60, 0
2, 72901, Note_on_c, 0, 64, 70
2, 72934, Note_on_c, 0, 64, 0
2, 72939, Note_on_c, 0, 88, 0
2, 72945, Note_on_c, 0, 76, 0
2, 72946, Note_on_c, 0, 67, 68
2, 72986, Note_on_c, 0, 67, 0
2, 72986, Note_on_c, 0, 64, 69
2, 73002, Note_on_c, 0, 64, 0
2, 73035, Note_on_c, 0, 60, 70
2, 73035, Note_on_c, 0, 84, 79
2, 73038, Note_on_c, 0, 72, 74
2, 73046, Note_on_c, 0, 72, 0
2, 73055, Note_on_c, 0, 84, 0
2, 73062, Note_on_c, 0, 60, 0
2, 73081, Note_on_c, 0, 55, 62
2, 73117, Control_c, 0, 64, 104
2, 73120, Control_c, 0, 64, 88
2, 73122, Control_c, 0, 64, 56
2, 73125, Control_c, 0, 64, 24
2, 73127, Control_c, 0, 64, 0
2, 73128, Note_on_c, 0, 55, 0
2, 73137, Note_on_c, 0, 46, 66
2, 73151, Control_c, 0, 64, 72
2, 73155, Control_c, 0, 64, 127
2, 73172, Note_on_c, 0, 46, 0
2, 73178, Note_on_c, 0, 55, 55
2, 73213, Note_on_c, 0, 61, 57
2, 73216, Note_on_c, 0, 55, 0
2, 73248, Note_on_c, 0, 64, 60
2, 73254, Note_on_c, 0, 61, 0
2, 73268, Note_on_c, 0, 64, 0
2, 73286, Note_on_c, 0, 63, 58
2, 73288, Note_on_c, 0, 66, 57
2, 73310, Note_on_c, 0, 66, 0
2, 73314, Note_on_c, 0, 63, 0
2, 73320, Note_on_c, 0, 73, 68
2, 73321, Note_on_c, 0, 64, 64
2, 73322, Note_on_c, 0, 67, 57
2, 73333, Note_on_c, 0, 73, 0
2, 73337, Note_on_c, 0, 67, 0
2, 73349, Note_on_c, 0, 64, 0
2, 73352, Note_on_c, 0, 69, 77
2, 73356, Note_on_c, 0, 66, 48
2, 73373, Note_on_c, 0, 69, 0
2, 73382, Note_on_c, 0, 66, 0
2, 73385, Note_on_c, 0, 70, 64
2, 73386, Note_on_c, 0, 76, 73
2, 73388, Note_on_c, 0, 67, 56
2, 73396, Note_on_c, 0, 70, 0
2, 73397, Note_on_c, 0, 76, 0
2, 73406, Note_on_c, 0, 67, 0
2, 73418, Note_on_c, 0, 72, 80
2, 73418, Note_on_c, 0, 69, 63
2, 73434, Note_on_c, 0, 72, 0
2, 73449, Note_on_c, 0, 69, 0
2, 73450, Note_on_c, 0, 70, 65
2, 73452, Note_on_c, 0, 79, 76
2, 73452, Note_on_c, 0, 73, 60
2, 73478, Note_on_c, 0, 79, 0
2, 73480, Note_on_c, 0, 73, 0
2, 73482, Note_on_c, 0, 70, 0
2, 73485, Note_on_c, 0, 75, 74
2, 73487, Note_on_c, 0, 72, 59
2, 73501, Note_on_c, 0, 75, 0
2, 73520, Note_on_c, 0, 82, 66
2, 73520, Note_on_c, 0, 73, 54
2, 73521, Note_on_c, 0, 76, 62
2, 73523, Note_on_c, 0, 72, 0
2, 73537, Note_on_c, 0, 76, 0
2, 73547, Note_on_c, 0, 82, 0
2, 73551, Note_on_c, 0, 73, 0
2, 73552, Note_on_c, 0, 78, 75
2, 73553, Note_on_c, 0, 75, 56
2, 73574, Note_on_c, 0, 78, 0
2, 73583, Note_on_c, 0, 75, 0
2, 73583, Note_on_c, 0, 85, 70
2, 73585, Note_on_c, 0, 79, 66
2, 73588, Note_on_c, 0, 76, 69
2, 73605, Note_on_c, 0, 79, 0
2, 73606, Note_on_c, 0, 85, 0
2, 73617, Note_on_c, 0, 78, 50
2, 73618, Note_on_c, 0, 81, 68
2, 73619, Note_on_c, 0, 76, 0
2, 73638, Note_on_c, 0, 81, 0
2, 73647, Note_on_c, 0, 78, 0
2, 73648, Note_on_c, 0, 82, 66
2, 73648, Note_on_c, 0, 88, 76
2, 73653, Note_on_c, 0, 79, 51
2, 73665, Note_on_c, 0, 82, 0
2, 73671, Note_on_c, 0, 88, 0
2, 73681, Note_on_c, 0, 84, 78
2, 73682, Note_on_c, 0, 81, 56
2, 73684, Note_on_c, 0, 79, 0
2, 73703, Note_on_c, 0, 84, 0
2, 73712, Note_on_c, 0, 85, 68
2, 73712, Note_on_c, 0, 91, 76
2, 73712, Note_on_c, 0, 82, 47
2, 73714, Note_on_c, 0, 81, 0
2, 73738, Note_on_c, 0, 82, 0
2, 73740, Note_on_c, 0, 91, 0
2, 73745, Note_on_c, 0, 85, 0
2, 73747, Note_on_c, 0, 87, 77
2, 73748, Note_on_c, 0, 84, 74
2, 73763, Note_on_c, 0, 87, 0
2, 73777, Note_on_c, 0, 94, 77
2, 73778, Note_on_c, 0, 88, 67
2, 73780, Note_on_c, 0, 85, 66
2, 73788, Note_on_c, 0, 84, 0
2, 73798, Note_on_c, 0, 88, 0
2, 73807, Note_on_c, 0, 94, 0
2, 73811, Note_on_c, 0, 90, 79
2, 73812, Note_on_c, 0, 85, 0
2, 73812, Note_on_c, 0, 87, 59
2, 73838, Note_on_c, 0, 90, 0
2, 73839, Note_on_c, 0, 87, 0
2, 73842, Note_on_c, 0, 97, 72
2, 73843, Note_on_c, 0, 91, 61
2, 73843, Note_on_c, 0, 88, 60
2, 73863, Note_on_c, 0, 88, 0
2, 73865, Note_on_c, 0, 97, 0
2, 73868, Note_on_c, 0, 91, 0
2, 73872, Note_on_c, 0, 90, 75
2, 73872, Note_on_c, 0, 87, 58
2, 73899, Note_on_c, 0, 87, 0
2, 73902, Note_on_c, 0, 90, 0
2, 73903, Note_on_c, 0, 97, 76
2, 73906, Note_on_c, 0, 88, 64
2, 73906, Note_on_c, 0, 91, 70
2, 73928, Note_on_c, 0, 97, 0
2, 73929, Note_on_c, 0, 91, 0
2, 73932, Note_on_c, 0, 88, 0
2, 73935, Note_on_c, 0, 90, 71
2, 73936, Note_on_c, 0, 87, 63
2, 73961, Note_on_c, 0, 87, 0
2, 73962, Note_on_c, 0, 90, 0
2, 73963, Note_on_c, 0, 97, 77
2, 73966, Note_on_c, 0, 88, 63
2, 73966, Note_on_c, 0, 91, 62
2, 73984, Note_on_c, 0, 88, 0
2, 73985, Note_on_c, 0, 97, 0
2, 73987, Note_on_c, 0, 91, 0
2, 73993, Note_on_c, 0, 90, 65
2, 73993, Note_on_c, 0, 87, 59
2, 74019, Note_on_c, 0, 87, 0
2, 74019, Note_on_c, 0, 90, 0
2, 74022, Note_on_c, 0, 97, 78
2, 74025, Note_on_c, 0, 91, 58
2, 74027, Note_on_c, 0, 88, 54
2, 74048, Note_on_c, 0, 97, 0
2, 74049, Note_on_c, 0, 88, 0
2, 74051, Note_on_c, 0, 91, 0
2, 74055, Note_on_c, 0, 90, 70
2, 74056, Note_on_c, 0, 87, 55
2, 74082, Note_on_c, 0, 90, 0
2, 74083, Note_on_c, 0, 87, 0
2, 74085, Note_on_c, 0, 97, 80
2, 74088, Note_on_c, 0, 91, 56
2, 74091, Note_on_c, 0, 88, 44
2, 74110, Note_on_c, 0, 97, 0
2, 74116, Note_on_c, 0, 91, 0
2, 74118, Note_on_c, 0, 88, 0
2, 74120, Note_on_c, 0, 90, 70
2, 74121, Note_on_c, 0, 87, 57
2, 74147, Note_on_c, 0, 90, 0
2, 74151, Note_on_c, 0, 87, 0
2, 74155, Note_on_c, 0, 97, 82
2, 74158, Note_on_c, 0, 91, 44
2, 74160, Note_on_c, 0, 88, 52
2, 74186, Note_on_c, 0, 91, 0
2, 74195, Note_on_c, 0, 88, 0
2, 74196, Note_on_c, 0, 97, 0
2, 74215, Note_on_c, 0, 97, 64
2, 74216, Control_c, 0, 64, 72
2, 74217, Note_on_c, 0, 91, 56
2, 74217, Note_on_c, 0, 82, 50
2, 74218, Control_c, 0, 64, 127
2, 74230, Note_on_c, 0, 91, 0
2, 74235, Note_on_c, 0, 82, 0
2, 74243, Note_on_c, 0, 97, 0
2, 74245, Note_on_c, 0, 88, 45
2, 74245, Note_on_c, 0, 99, 71
2, 74261, Note_on_c, 0, 88, 0
2, 74265, Note_on_c, 0, 99, 0
2, 74272, Note_on_c, 0, 97, 63
2, 74272, Note_on_c, 0, 82, 45
2, 74275, Note_on_c, 0, 91, 55
2, 74282, Note_on_c, 0, 91, 0
2, 74289, Note_on_c, 0, 82, 0
2, 74292, Note_on_c, 0, 97, 0
2, 74296, Note_on_c, 0, 99, 69
2, 74298, Note_on_c, 0, 88, 53
2, 74314, Note_on_c, 0, 88, 0
2, 74314, Note_on_c, 0, 99, 0
2, 74323, Note_on_c, 0, 97, 66
2, 74325, Note_on_c, 0, 82, 52
2, 74326, Note_on_c, 0, 91, 51
2, 74334, Note_on_c, 0, 91, 0
2, 74338, Note_on_c, 0, 82, 0
2, 74339, Note_on_c, 0, 97, 0
2, 74347, Note_on_c, 0, 99, 73
2, 74347, Note_on_c, 0, 88, 47
2, 74364, Note_on_c, 0, 99, 0
2, 74365, Note_on_c, 0, 88, 0
2, 74372, Note_on_c, 0, 82, 50
2, 74373, Note_on_c, 0, 97, 68
2, 74375, Note_on_c, 0, 91, 52
2, 74380, Note_on_c, 0, 82, 0
2, 74382, Note_on_c, 0, 91, 0
2, 74384, Note_on_c, 0, 97, 0
2, 74400, Control_c, 0, 64, 88
2, 74402, Control_c, 0, 64, 72
2, 74405, Control_c, 0, 64, 56
2, 74407, Control_c, 0, 64, 24
2, 74410, Control_c, 0, 64, 0
2, 74421, Note_on_c, 0, 94, 70
2, 74421, Note_on_c, 0, 85, 68
2, 74423, Note_on_c, 0, 91, 44
2, 74429, Note_on_c, 0, 91, 0
2, 74431, Note_on_c, 0, 85, 0
2, 74432, Note_on_c, 0, 94, 0
2, 74466, Note_on_c, 0, 94, 74
2, 74466, Note_on_c, 0, 97, 68
2, 74468, Note_on_c, 0, 88, 73
2, 74474, Note_on_c, 0, 88, 0
2, 74474, Note_on_c, 0, 94, 0
2, 74477, Note_on_c, 0, 97, 0
2, 74515, Note_on_c, 0, 96, 77
2, 74515, Note_on_c, 0, 92, 68
2, 74515, Note_on_c, 0, 89, 71
2, 74523, Note_on_c, 0, 89, 0
2, 74523, Note_on_c, 0, 92, 0
2, 74523, Note_on_c, 0, 96, 0
2, 74562, Note_on_c, 0, 92, 74
2, 74563, Note_on_c, 0, 89, 58
2, 74565, Note_on_c, 0, 84, 63
2, 74568, Note_on_c, 0, 84, 0
2, 74568, Note_on_c, 0, 89, 0
2, 74572, Note_on_c, 0, 92, 0
2, 74605, Note_on_c, 0, 92, 71
2, 74606, Note_on_c, 0, 96, 76
2, 74608, Note_on_c, 0, 89, 69
2, 74613, Note_on_c, 0, 89, 0
2, 74613, Note_on_c, 0, 92, 0
2, 74616, Note_on_c, 0, 96, 0
2, 74648, Note_on_c, 0, 92, 67
2, 74650, Note_on_c, 0, 89, 65
2, 74651, Note_on_c, 0, 84, 65
2, 74656, Note_on_c, 0, 84, 0
2, 74656, Note_on_c, 0, 89, 0
2, 74660, Note_on_c, 0, 92, 0
2, 74692, Note_on_c, 0, 89, 72
2, 74692, Note_on_c, 0, 80, 56
2, 74692, Note_on_c, 0, 84, 52
2, 74699, Note_on_c, 0, 84, 0
2, 74703, Note_on_c, 0, 89, 0
2, 74704, Note_on_c, 0, 80, 0
2, 74733, Note_on_c, 0, 92, 66
2, 74735, Note_on_c, 0, 89, 61
2, 74738, Note_on_c, 0, 84, 61
2, 74740, Note_on_c, 0, 89, 0
2, 74743, Note_on_c, 0, 84, 0
2, 74743, Note_on_c, 0, 92, 0
2, 74778, Control_c, 0, 64, 40
2, 74781, Note_on_c, 0, 80, 56
2, 74781, Note_on_c, 0, 85, 67
2, 74781, Control_c, 0, 64, 88
2, 74782, Note_on_c, 0, 89, 70
2, 74783, Control_c, 0, 64, 127
2, 74796, Note_on_c, 0, 85, 0
2, 74799, Note_on_c, 0, 89, 0
2, 74799, Note_on_c, 0, 80, 0
2, 74805, Note_on_c, 0, 91, 64
2, 74818, Note_on_c, 0, 91, 0
2, 74825, Note_on_c, 0, 89, 67
2, 74826, Note_on_c, 0, 85, 58
2, 74827, Note_on_c, 0, 80, 47
2, 74837, Note_on_c, 0, 85, 0
2, 74841, Note_on_c, 0, 89, 0
2, 74842, Note_on_c, 0, 80, 0
2, 74848, Note_on_c, 0, 91, 64
2, 74852, Note_on_c, 0, 83, 48
2, 74861, Note_on_c, 0, 91, 0
2, 74862, Note_on_c, 0, 83, 0
2, 74872, Note_on_c, 0, 89, 78
2, 74872, Note_on_c, 0, 85, 62
2, 74873, Note_on_c, 0, 80, 46
2, 74883, Note_on_c, 0, 85, 0
2, 74885, Note_on_c, 0, 89, 0
2, 74888, Note_on_c, 0, 80, 0
2, 74892, Note_on_c, 0, 91, 70
2, 74898, Note_on_c, 0, 83, 46
2, 74908, Note_on_c, 0, 91, 0
2, 74909, Note_on_c, 0, 83, 0
2, 74916, Note_on_c, 0, 85, 59
2, 74917, Note_on_c, 0, 89, 74
2, 74918, Note_on_c, 0, 80, 53
2, 74922, Control_c, 0, 64, 88
2, 74923, Note_on_c, 0, 89, 0
2, 74924, Note_on_c, 0, 80, 0
2, 74924, Note_on_c, 0, 85, 0
2, 74925, Control_c, 0, 64, 72
2, 74926, Control_c, 0, 64, 40
2, 74928, Control_c, 0, 64, 0
2, 74961, Note_on_c, 0, 85, 73
2, 74962, Note_on_c, 0, 77, 71
2, 74962, Note_on_c, 0, 83, 54
2, 74967, Note_on_c, 0, 83, 0
2, 74967, Note_on_c, 0, 77, 0
2, 74969, Note_on_c, 0, 85, 0
2, 75002, Note_on_c, 0, 85, 69
2, 75003, Note_on_c, 0, 89, 74
2, 75005, Note_on_c, 0, 80, 63
2, 75009, Note_on_c, 0, 85, 0
2, 75011, Note_on_c, 0, 89, 0
2, 75013, Note_on_c, 0, 80, 0
2, 75047, Note_on_c, 0, 92, 79
2, 75050, Note_on_c, 0, 89, 73
2, 75050, Note_on_c, 0, 84, 66
2, 75056, Note_on_c, 0, 84, 0
2, 75057, Note_on_c, 0, 89, 0
2, 75059, Note_on_c, 0, 92, 0
2, 75091, Note_on_c, 0, 89, 78
2, 75091, Note_on_c, 0, 84, 57
2, 75091, Note_on_c, 0, 80, 54
2, 75097, Note_on_c, 0, 84, 0
2, 75101, Note_on_c, 0, 89, 0
2, 75103, Note_on_c, 0, 80, 0
2, 75131, Note_on_c, 0, 92, 53
2, 75132, Note_on_c, 0, 89, 58
2, 75135, Note_on_c, 0, 84, 62
2, 75137, Note_on_c, 0, 89, 0
2, 75138, Note_on_c, 0, 92, 0
2, 75140, Note_on_c, 0, 84, 0
2, 75173, Note_on_c, 0, 89, 74
2, 75175, Note_on_c, 0, 80, 67
2, 75175, Note_on_c, 0, 84, 75
2, 75182, Note_on_c, 0, 84, 0
2, 75183, Note_on_c, 0, 80, 0
2, 75183, Note_on_c, 0, 89, 0
2, 75215, Note_on_c, 0, 84, 76
2, 75216, Note_on_c, 0, 77, 73
2, 75217, Note_on_c, 0, 80, 56
2, 75222, Note_on_c, 0, 84, 0
2, 75223, Note_on_c, 0, 80, 0
2, 75226, Note_on_c, 0, 77, 0
2, 75257, Note_on_c, 0, 80, 69
2, 75258, Note_on_c, 0, 72, 64
2, 75258, Note_on_c, 0, 77, 62
2, 75263, Note_on_c, 0, 77, 0
2, 75263, Note_on_c, 0, 72, 0
2, 75268, Note_on_c, 0, 80, 0
2, 75301, Control_c, 0, 64, 56
2, 75302, Note_on_c, 0, 70, 47
2, 75303, Note_on_c, 0, 85, 65
2, 75303, Control_c, 0, 64, 104
2, 75305, Note_on_c, 0, 79, 55
2, 75306, Control_c, 0, 64, 127
2, 75317, Note_on_c, 0, 70, 0
2, 75320, Note_on_c, 0, 79, 0
2, 75321, Note_on_c, 0, 85, 0
2, 75326, Note_on_c, 0, 87, 70
2, 75327, Note_on_c, 0, 76, 50
2, 75335, Note_on_c, 0, 76, 0
2, 75341, Note_on_c, 0, 87, 0
2, 75347, Note_on_c, 0, 85, 68
2, 75348, Note_on_c, 0, 70, 47
2, 75350, Note_on_c, 0, 79, 57
2, 75357, Note_on_c, 0, 79, 0
2, 75359, Note_on_c, 0, 70, 0
2, 75363, Note_on_c, 0, 85, 0
2, 75368, Note_on_c, 0, 87, 67
2, 75371, Note_on_c, 0, 76, 42
2, 75379, Note_on_c, 0, 76, 0
2, 75384, Note_on_c, 0, 87, 0
2, 75390, Note_on_c, 0, 70, 50
2, 75391, Note_on_c, 0, 85, 66
2, 75392, Note_on_c, 0, 79, 62
2, 75402, Note_on_c, 0, 79, 0
2, 75405, Note_on_c, 0, 70, 0
2, 75406, Note_on_c, 0, 85, 0
2, 75411, Note_on_c, 0, 87, 68
2, 75413, Note_on_c, 0, 76, 49
2, 75424, Note_on_c, 0, 76, 0
2, 75427, Note_on_c, 0, 87, 0
2, 75432, Note_on_c, 0, 70, 64
2, 75433, Note_on_c, 0, 85, 72
2, 75436, Note_on_c, 0, 79, 51
2, 75436, Control_c, 0, 64, 88
2, 75437, Note_on_c, 0, 70, 0
2, 75438, Control_c, 0, 64, 56
2, 75441, Note_on_c, 0, 79, 0
2, 75441, Control_c, 0, 64, 24
2, 75443, Note_on_c, 0, 85, 0
2, 75443, Control_c, 0, 64, 0
2, 75475, Note_on_c, 0, 82, 64
2, 75476, Note_on_c, 0, 79, 59
2, 75476, Note_on_c, 0, 73, 67
2, 75481, Note_on_c, 0, 79, 0
2, 75482, Note_on_c, 0, 73, 0
2, 75483, Note_on_c, 0, 82, 0
2, 75516, Note_on_c, 0, 82, 58
2, 75516, Note_on_c, 0, 85, 62
2, 75518, Note_on_c, 0, 76, 70
2, 75524, Note_on_c, 0, 76, 0
2, 75524, Note_on_c, 0, 85, 0
2, 75524, Note_on_c, 0, 82, 0
2, 75558, Note_on_c, 0, 80, 68
2, 75558, Note_on_c, 0, 84, 73
2, 75561, Note_on_c, 0, 77, 73
2, 75567, Note_on_c, 0, 77, 0
2, 75568, Note_on_c, 0, 84, 0
2, 75570, Note_on_c, 0, 80, 0
2, 75601, Note_on_c, 0, 80, 61
2, 75602, Note_on_c, 0, 72, 71
2, 75605, Note_on_c, 0, 77, 45
2, 75607, Note_on_c, 0, 72, 0
2, 75610, Note_on_c, 0, 77, 0
2, 75613, Note_on_c, 0, 80, 0
2, 75642, Note_on_c, 0, 84, 72
2, 75642, Note_on_c, 0, 80, 60
2, 75645, Note_on_c, 0, 77, 73
2, 75648, Note_on_c, 0, 84, 0
2, 75652, Note_on_c, 0, 77, 0
2, 75652, Note_on_c, 0, 80, 0
2, 75685, Note_on_c, 0, 80, 71
2, 75685, Note_on_c, 0, 72, 70
2, 75687, Note_on_c, 0, 77, 73
2, 75690, Note_on_c, 0, 72, 0
2, 75694, Note_on_c, 0, 77, 0
2, 75697, Note_on_c, 0, 80, 0
2, 75723, Note_on_c, 0, 72, 56
2, 75725, Note_on_c, 0, 68, 58
2, 75725, Note_on_c, 0, 77, 72
2, 75730, Note_on_c, 0, 68, 0
2, 75731, Note_on_c, 0, 72, 0
2, 75736, Note_on_c, 0, 77, 0
2, 75765, Note_on_c, 0, 77, 68
2, 75765, Note_on_c, 0, 80, 65
2, 75770, Note_on_c, 0, 72, 64
2, 75775, Note_on_c, 0, 77, 0
2, 75777, Note_on_c, 0, 72, 0
2, 75777, Note_on_c, 0, 80, 0
2, 75811, Note_on_c, 0, 68, 43
2, 75811, Note_on_c, 0, 73, 49
2, 75812, Note_on_c, 0, 77, 73
2, 75812, Control_c, 0, 64, 72
2, 75815, Control_c, 0, 64, 127
2, 75826, Note_on_c, 0, 73, 0
2, 75827, Note_on_c, 0, 77, 0
2, 75829, Note_on_c, 0, 68, 0
2, 75833, Note_on_c, 0, 79, 63
2, 75842, Note_on_c, 0, 71, 28
2, 75845, Note_on_c, 0, 79, 0
2, 75849, Note_on_c, 0, 71, 0
2, 75855, Note_on_c, 0, 77, 72
2, 75856, Note_on_c, 0, 73, 49
2, 75860, Note_on_c, 0, 68, 39
2, 75866, Note_on_c, 0, 73, 0
2, 75868, Note_on_c, 0, 77, 0
2, 75873, Note_on_c, 0, 68, 0
2, 75876, Note_on_c, 0, 79, 64
2, 75880, Note_on_c, 0, 71, 46
2, 75888, Note_on_c, 0, 79, 0
2, 75893, Note_on_c, 0, 71, 0
2, 75897, Note_on_c, 0, 73, 56
2, 75897, Note_on_c, 0, 77, 74
2, 75900, Note_on_c, 0, 68, 42
2, 75907, Note_on_c, 0, 73, 0
2, 75910, Note_on_c, 0, 77, 0
2, 75916, Note_on_c, 0, 68, 0
2, 75917, Note_on_c, 0, 79, 69
2, 75923, Note_on_c, 0, 71, 47
2, 75933, Note_on_c, 0, 79, 0
2, 75934, Note_on_c, 0, 71, 0
2, 75942, Note_on_c, 0, 77, 70
2, 75943, Note_on_c, 0, 68, 54
2, 75943, Note_on_c, 0, 73, 38
2, 75946, Control_c, 0, 64, 88
2, 75948, Note_on_c, 0, 77, 0
2, 75948, Control_c, 0, 64, 56
2, 75949, Note_on_c, 0, 73, 0
2, 75949, Note_on_c, 0, 68, 0
2, 75951, Control_c, 0, 64, 24
2, 75953, Control_c, 0, 64, 0
2, 75983, Note_on_c, 0, 73, 69
2, 75985, Note_on_c, 0, 65, 68
2, 75985, Note_on_c, 0, 71, 58
2, 75990, Note_on_c, 0, 71, 0
2, 75991, Note_on_c, 0, 65, 0
2, 75993, Note_on_c, 0, 73, 0
2, 76027, Note_on_c, 0, 77, 68
2, 76027, Note_on_c, 0, 68, 61
2, 76027, Note_on_c, 0, 73, 60
2, 76038, Note_on_c, 0, 73, 0
2, 76038, Note_on_c, 0, 77, 0
2, 76039, Note_on_c, 0, 68, 0
2, 76067, Note_on_c, 0, 80, 65
2, 76068, Note_on_c, 0, 77, 72
2, 76068, Note_on_c, 0, 72, 72
2, 76076, Note_on_c, 0, 72, 0
2, 76078, Note_on_c, 0, 77, 0
2, 76080, Note_on_c, 0, 80, 0
2, 76110, Note_on_c, 0, 77, 81
2, 76111, Note_on_c, 0, 72, 51
2, 76112, Note_on_c, 0, 68, 52
2, 76116, Note_on_c, 0, 72, 0
2, 76121, Note_on_c, 0, 77, 0
2, 76123, Note_on_c, 0, 68, 0
2, 76148, Note_on_c, 0, 80, 72
2, 76151, Note_on_c, 0, 77, 59
2, 76153, Note_on_c, 0, 72, 71
2, 76156, Note_on_c, 0, 77, 0
2, 76160, Note_on_c, 0, 80, 0
2, 76164, Note_on_c, 0, 72, 0
2, 76192, Note_on_c, 0, 68, 63
2, 76192, Note_on_c, 0, 77, 69
2, 76193, Note_on_c, 0, 72, 71
2, 76202, Note_on_c, 0, 77, 0
2, 76203, Note_on_c, 0, 72, 0
2, 76207, Note_on_c, 0, 68, 0
2, 76230, Note_on_c, 0, 72, 75
2, 76231, Note_on_c, 0, 68, 52
2, 76232, Note_on_c, 0, 65, 62
2, 76237, Note_on_c, 0, 72, 0
2, 76241, Note_on_c, 0, 68, 0
2, 76243, Note_on_c, 0, 65, 0
2, 76272, Note_on_c, 0, 68, 68
2, 76273, Note_on_c, 0, 65, 48
2, 76273, Note_on_c, 0, 60, 70
2, 76279, Note_on_c, 0, 65, 0
2, 76283, Note_on_c, 0, 68, 0
2, 76284, Note_on_c, 0, 60, 0
2, 76318, Note_on_c, 0, 70, 50
2, 76320, Note_on_c, 0, 73, 60
2, 76320, Control_c, 0, 64, 24
2, 76321, Note_on_c, 0, 64, 56
2, 76322, Control_c, 0, 64, 72
2, 76325, Control_c, 0, 64, 104
2, 76327, Control_c, 0, 64, 127
2, 76333, Note_on_c, 0, 70, 0
2, 76336, Note_on_c, 0, 64, 0
2, 76336, Note_on_c, 0, 73, 0
2, 76341, Note_on_c, 0, 75, 64
2, 76346, Note_on_c, 0, 67, 43
2, 76354, Note_on_c, 0, 67, 0
2, 76356, Note_on_c, 0, 75, 0
2, 76362, Note_on_c, 0, 73, 63
2, 76363, Note_on_c, 0, 70, 52
2, 76368, Note_on_c, 0, 64, 34
2, 76374, Note_on_c, 0, 70, 0
2, 76376, Note_on_c, 0, 64, 0
2, 76377, Note_on_c, 0, 73, 0
2, 76382, Note_on_c, 0, 75, 63
2, 76383, Note_on_c, 0, 67, 54
2, 76397, Note_on_c, 0, 75, 0
2, 76399, Note_on_c, 0, 67, 0
2, 76402, Note_on_c, 0, 73, 69
2, 76403, Note_on_c, 0, 70, 53
2, 76406, Note_on_c, 0, 64, 49
2, 76411, Note_on_c, 0, 70, 0
2, 76417, Note_on_c, 0, 73, 0
2, 76418, Note_on_c, 0, 64, 0
2, 76421, Note_on_c, 0, 75, 67
2, 76426, Note_on_c, 0, 67, 48
2, 76439, Note_on_c, 0, 67, 0
2, 76439, Note_on_c, 0, 75, 0
2, 76445, Note_on_c, 0, 70, 49
2, 76446, Note_on_c, 0, 73, 55
2, 76446, Control_c, 0, 64, 88
2, 76448, Control_c, 0, 64, 56
2, 76451, Control_c, 0, 64, 24
2, 76452, Note_on_c, 0, 73, 0
2, 76452, Note_on_c, 0, 70, 0
2, 76452, Control_c, 0, 64, 0
2, 76483, Note_on_c, 0, 61, 54
2, 76485, Note_on_c, 0, 70, 56
2, 76486, Note_on_c, 0, 67, 46
2, 76490, Note_on_c, 0, 61, 0
2, 76492, Note_on_c, 0, 67, 0
2, 76497, Note_on_c, 0, 70, 0
2, 76526, Note_on_c, 0, 73, 59
2, 76526, Note_on_c, 0, 70, 47
2, 76526, Note_on_c, 0, 64, 59
2, 76533, Note_on_c, 0, 64, 0
2, 76536, Note_on_c, 0, 70, 0
2, 76538, Note_on_c, 0, 73, 0
2, 76567, Note_on_c, 0, 73, 63
2, 76567, Note_on_c, 0, 70, 49
2, 76568, Control_c, 0, 64, 56
2, 76571, Note_on_c, 0, 64, 54
2, 76571, Control_c, 0, 64, 104
2, 76573, Control_c, 0, 64, 127
2, 76580, Note_on_c, 0, 70, 0
2, 76583, Note_on_c, 0, 64, 0
2, 76583, Note_on_c, 0, 73, 0
2, 76588, Note_on_c, 0, 75, 68
2, 76595, Note_on_c, 0, 67, 39
2, 76604, Note_on_c, 0, 75, 0
2, 76606, Note_on_c, 0, 67, 0
2, 76611, Note_on_c, 0, 70, 54
2, 76611, Note_on_c, 0, 73, 65
2, 76613, Note_on_c, 0, 64, 47
2, 76623, Note_on_c, 0, 70, 0
2, 76624, Note_on_c, 0, 64, 0
2, 76626, Note_on_c, 0, 73, 0
2, 76631, Note_on_c, 0, 75, 64
2, 76633, Note_on_c, 0, 67, 52
2, 76637, Control_c, 0, 64, 104
2, 76640, Control_c, 0, 64, 88
2, 76642, Control_c, 0, 64, 72
2, 76644, Note_on_c, 0, 75, 0
2, 76645, Control_c, 0, 64, 56
2, 76647, Control_c, 0, 64, 40
2, 76648, Note_on_c, 0, 67, 0
2, 76650, Control_c, 0, 64, 24
2, 76653, Note_on_c, 0, 73, 63
2, 76653, Note_on_c, 0, 70, 52
2, 76655, Control_c, 0, 64, 0
2, 76656, Note_on_c, 0, 64, 48
2, 76666, Note_on_c, 0, 70, 0
2, 76667, Note_on_c, 0, 64, 0
2, 76668, Note_on_c, 0, 73, 0
2, 76673, Note_on_c, 0, 75, 60
2, 76676, Note_on_c, 0, 67, 46
2, 76689, Note_on_c, 0, 67, 0
2, 76690, Note_on_c, 0, 75, 0
2, 76696, Note_on_c, 0, 73, 60
2, 76697, Note_on_c, 0, 70, 46
2, 76698, Note_on_c, 0, 64, 48
2, 76703, Note_on_c, 0, 70, 0
2, 76704, Note_on_c, 0, 64, 0
2, 76704, Note_on_c, 0, 73, 0
2, 76741, Note_on_c, 0, 70, 56
2, 76741, Note_on_c, 0, 61, 50
2, 76745, Note_on_c, 0, 67, 32
2, 76748, Note_on_c, 0, 67, 0
2, 76753, Note_on_c, 0, 61, 0
2, 76753, Note_on_c, 0, 70, 0
2, 76783, Note_on_c, 0, 73, 50
2, 76785, Note_on_c, 0, 70, 35
2, 76786, Note_on_c, 0, 64, 54
2, 76793, Note_on_c, 0, 64, 0
2, 76795, Note_on_c, 0, 73, 0
2, 76796, Note_on_c, 0, 70, 0
2, 76921, Control_c, 0, 64, 56
2, 76923, Control_c, 0, 64, 88
2, 76926, Control_c, 0, 64, 127
2, 76928, Note_on_c, 0, 85, 56
2, 76930, Note_on_c, 0, 82, 42
2, 76932, Note_on_c, 0, 76, 44
2, 76943, Note_on_c, 0, 76, 0
2, 76943, Note_on_c, 0, 82, 0
2, 76943, Note_on_c, 0, 85, 0
2, 76950, Note_on_c, 0, 87, 64
2, 76952, Note_on_c, 0, 79, 50
2, 76963, Note_on_c, 0, 79, 0
2, 76966, Note_on_c, 0, 87, 0
2, 76972, Note_on_c, 0, 85, 59
2, 76973, Note_on_c, 0, 82, 44
2, 76975, Note_on_c, 0, 76, 46
2, 76981, Note_on_c, 0, 82, 0
2, 76985, Note_on_c, 0, 76, 0
2, 76985, Note_on_c, 0, 85, 0
2, 76991, Note_on_c, 0, 87, 56
2, 76991, Note_on_c, 0, 79, 43
2, 77009, Note_on_c, 0, 87, 0
2, 77015, Note_on_c, 0, 85, 59
2, 77015, Note_on_c, 0, 82, 46
2, 77015, Note_on_c, 0, 76, 52
2, 77016, Note_on_c, 0, 79, 0
2, 77021, Note_on_c, 0, 82, 0
2, 77022, Note_on_c, 0, 85, 0
2, 77022, Note_on_c, 0, 76, 0
2, 77062, Note_on_c, 0, 94, 53
2, 77063, Note_on_c, 0, 97, 56
2, 77066, Note_on_c, 0, 88, 48
2, 77073, Note_on_c, 0, 94, 0
2, 77075, Note_on_c, 0, 97, 0
2, 77077, Note_on_c, 0, 88, 0
2, 77085, Note_on_c, 0, 99, 70
2, 77087, Note_on_c, 0, 91, 46
2, 77095, Note_on_c, 0, 91, 0
2, 77100, Note_on_c, 0, 99, 0
2, 77106, Note_on_c, 0, 88, 45
2, 77107, Note_on_c, 0, 97, 57
2, 77108, Note_on_c, 0, 94, 39
2, 77116, Note_on_c, 0, 94, 0
2, 77119, Note_on_c, 0, 97, 0
2, 77119, Note_on_c, 0, 88, 0
2, 77125, Note_on_c, 0, 99, 66
2, 77131, Note_on_c, 0, 91, 44
2, 77146, Note_on_c, 0, 91, 0
2, 77146, Note_on_c, 0, 99, 0
2, 77150, Note_on_c, 0, 97, 57
2, 77150, Note_on_c, 0, 94, 36
2, 77150, Note_on_c, 0, 88, 52
2, 77155, Note_on_c, 0, 94, 0
2, 77155, Note_on_c, 0, 97, 0
2, 77157, Note_on_c, 0, 88, 0
2, 77176, Control_c, 0, 64, 88
2, 77178, Control_c, 0, 64, 24
2, 77182, Control_c, 0, 64, 0
2, 77191, Note_on_c, 0, 85, 56
2, 77191, Note_on_c, 0, 82, 48
2, 77191, Control_c, 0, 64, 40
2, 77193, Control_c, 0, 64, 127
2, 77197, Note_on_c, 0, 76, 46
2, 77199, Note_on_c, 0, 82, 0
2, 77204, Note_on_c, 0, 85, 0
2, 77205, Note_on_c, 0, 76, 0
2, 77213, Note_on_c, 0, 79, 54
2, 77213, Note_on_c, 0, 87, 65
2, 77228, Note_on_c, 0, 87, 0
2, 77228, Note_on_c, 0, 79, 0
2, 77236, Note_on_c, 0, 85, 59
2, 77237, Note_on_c, 0, 82, 40
2, 77238, Note_on_c, 0, 76, 49
2, 77245, Note_on_c, 0, 82, 0
2, 77248, Note_on_c, 0, 85, 0
2, 77249, Note_on_c, 0, 76, 0
2, 77255, Note_on_c, 0, 87, 56
2, 77260, Note_on_c, 0, 79, 44
2, 77272, Note_on_c, 0, 87, 0
2, 77277, Note_on_c, 0, 79, 0
2, 77278, Note_on_c, 0, 85, 53
2, 77278, Note_on_c, 0, 76, 52
2, 77278, Note_on_c, 0, 82, 52
2, 77284, Note_on_c, 0, 85, 0
2, 77285, Note_on_c, 0, 82, 0
2, 77285, Note_on_c, 0, 76, 0
2, 77332, Note_on_c, 0, 97, 56
2, 77333, Note_on_c, 0, 94, 39
2, 77336, Note_on_c, 0, 88, 42
2, 77339, Note_on_c, 0, 94, 0
2, 77344, Note_on_c, 0, 97, 0
2, 77346, Note_on_c, 0, 88, 0
2, 77355, Note_on_c, 0, 99, 62
2, 77356, Note_on_c, 0, 91, 43
2, 77368, Note_on_c, 0, 91, 0
2, 77368, Note_on_c, 0, 99, 0
2, 77377, Note_on_c, 0, 97, 54
2, 77377, Note_on_c, 0, 94, 44
2, 77378, Note_on_c, 0, 88, 39
2, 77388, Note_on_c, 0, 94, 0
2, 77392, Note_on_c, 0, 97, 0
2, 77395, Note_on_c, 0, 88, 0
2, 77400, Note_on_c, 0, 99, 63
2, 77402, Note_on_c, 0, 91, 38
2, 77414, Note_on_c, 0, 91, 0
2, 77417, Note_on_c, 0, 99, 0
2, 77425, Note_on_c, 0, 94, 42
2, 77425, Note_on_c, 0, 97, 56
2, 77427, Note_on_c, 0, 88, 39
2, 77432, Note_on_c, 0, 94, 0
2, 77433, Note_on_c, 0, 88, 0
2, 77435, Note_on_c, 0, 97, 0
2, 77826, Note_on_c, 0, 64, 50
2, 77850, Control_c, 0, 64, 24
2, 77855, Control_c, 0, 64, 56
2, 77861, Control_c, 0, 64, 72
2, 77866, Control_c, 0, 64, 88
2, 77870, Control_c, 0, 64, 104
2, 77876, Control_c, 0, 64, 127
2, 77941, Control_c, 0, 67, 127
2, 77956, Note_on_c, 0, 46, 43
2, 77986, Note_on_c, 0, 46, 0
2, 78001, Note_on_c, 0, 55, 36
2, 78027, Note_on_c, 0, 55, 0
2, 78030, Note_on_c, 0, 61, 35
2, 78056, Note_on_c, 0, 61, 0
2, 78211, Note_on_c, 0, 76, 76
2, 78325, Control_c, 0, 64, 72
2, 78330, Control_c, 0, 64, 0
2, 78340, Note_on_c, 0, 45, 60
2, 78367, Note_on_c, 0, 45, 0
2, 78370, Control_c, 0, 64, 56
2, 78375, Control_c, 0, 64, 127
2, 78387, Note_on_c, 0, 55, 51
2, 78421, Note_on_c, 0, 64, 0
2, 78432, Note_on_c, 0, 61, 39
2, 78443, Note_on_c, 0, 55, 0
2, 78457, Note_on_c, 0, 61, 0
2, 78494, Note_on_c, 0, 76, 0
2, 78606, Note_on_c, 0, 76, 63
2, 78709, Note_on_c, 0, 76, 0
2, 78711, Note_on_c, 0, 88, 73
2, 78763, Note_on_c, 0, 88, 0
2, 79040, Control_c, 0, 64, 24
2, 79046, Control_c, 0, 64, 40
2, 79051, Control_c, 0, 64, 56
2, 79056, Control_c, 0, 64, 72
2, 79061, Control_c, 0, 64, 88
2, 79066, Control_c, 0, 64, 104
2, 79070, Control_c, 0, 64, 127
2, 79127, Control_c, 0, 64, 80
2, 79127, Control_c, 0, 67, 127
2, 79171, Note_on_c, 0, 44, 39
2, 79201, Note_on_c, 0, 44, 0
2, 79226, Note_on_c, 0, 76, 76
2, 79244, Note_on_c, 0, 76, 0
2, 79263, Note_on_c, 0, 76, 65
2, 79267, Note_on_c, 0, 64, 50
2, 79276, Note_on_c, 0, 76, 0
2, 79292, Note_on_c, 0, 76, 84
2, 79318, Note_on_c, 0, 76, 0
2, 79326, Note_on_c, 0, 88, 73
2, 79334, Note_on_c, 0, 64, 0
2, 79340, Note_on_c, 0, 60, 47
2, 79344, Note_on_c, 0, 88, 0
2, 79361, Note_on_c, 0, 76, 79
2, 79383, Note_on_c, 0, 60, 0
2, 79387, Note_on_c, 0, 76, 0
2, 79393, Note_on_c, 0, 56, 48
2, 79400, Note_on_c, 0, 54, 48
2, 79422, Note_on_c, 0, 77, 83
2, 79439, Note_on_c, 0, 77, 0
2, 79456, Note_on_c, 0, 54, 0
2, 79456, Note_on_c, 0, 77, 83
2, 79459, Note_on_c, 0, 56, 0
2, 79465, Note_on_c, 0, 65, 62
2, 79471, Note_on_c, 0, 77, 0
2, 79485, Note_on_c, 0, 77, 92
2, 79510, Note_on_c, 0, 77, 0
2, 79521, Note_on_c, 0, 89, 83
2, 79525, Note_on_c, 0, 65, 0
2, 79530, Note_on_c, 0, 60, 53
2, 79539, Note_on_c, 0, 89, 0
2, 79550, Note_on_c, 0, 77, 81
2, 79577, Note_on_c, 0, 56, 62
2, 79580, Note_on_c, 0, 77, 0
2, 79581, Note_on_c, 0, 60, 0
2, 79591, Note_on_c, 0, 54, 37
2, 79593, Control_c, 0, 64, 88
2, 79597, Control_c, 0, 64, 56
2, 79602, Control_c, 0, 64, 88
2, 79606, Control_c, 0, 64, 127
2, 79616, Note_on_c, 0, 82, 84
2, 79617, Note_on_c, 0, 54, 0
2, 79617, Note_on_c, 0, 56, 0
2, 79636, Note_on_c, 0, 82, 0
2, 79651, Note_on_c, 0, 82, 83
2, 79662, Note_on_c, 0, 70, 70
2, 79668, Note_on_c, 0, 82, 0
2, 79683, Note_on_c, 0, 82, 93
2, 79709, Note_on_c, 0, 82, 0
2, 79722, Note_on_c, 0, 70, 0
2, 79722, Note_on_c, 0, 94, 84
2, 79730, Note_on_c, 0, 60, 64
2, 79738, Note_on_c, 0, 60, 0
2, 79748, Note_on_c, 0, 94, 0
2, 79752, Note_on_c, 0, 82, 83
2, 79775, Note_on_c, 0, 82, 0
2, 79787, Note_on_c, 0, 56, 55
2, 79788, Note_on_c, 0, 54, 46
2, 79820, Note_on_c, 0, 76, 78
2, 79831, Note_on_c, 0, 76, 0
2, 79853, Note_on_c, 0, 76, 89
2, 79855, Note_on_c, 0, 64, 67
2, 79869, Note_on_c, 0, 76, 0
2, 79885, Note_on_c, 0, 76, 91
2, 79901, Note_on_c, 0, 64, 0
2, 79902, Note_on_c, 0, 60, 72
2, 79912, Note_on_c, 0, 76, 0
2, 79915, Note_on_c, 0, 60, 0
2, 79923, Note_on_c, 0, 88, 74
2, 79925, Note_on_c, 0, 56, 0
2, 79931, Note_on_c, 0, 54, 0
2, 79938, Note_on_c, 0, 88, 0
2, 79950, Note_on_c, 0, 76, 82
2, 79978, Note_on_c, 0, 76, 0
2, 79978, Note_on_c, 0, 37, 70
2, 79980, Control_c, 0, 64, 72
2, 79985, Control_c, 0, 64, 0
2, 80003, Note_on_c, 0, 37, 0
2, 80007, Control_c, 0, 64, 72
2, 80011, Control_c, 0, 64, 127
2, 80023, Note_on_c, 0, 77, 94
2, 80039, Note_on_c, 0, 77, 0
2, 80056, Note_on_c, 0, 77, 89
2, 80060, Note_on_c, 0, 65, 54
2, 80073, Note_on_c, 0, 77, 0
2, 80086, Note_on_c, 0, 77, 97
2, 80113, Note_on_c, 0, 77, 0
2, 80120, Note_on_c, 0, 89, 80
2, 80122, Note_on_c, 0, 65, 0
2, 80125, Note_on_c, 0, 61, 52
2, 80145, Note_on_c, 0, 89, 0
2, 80151, Note_on_c, 0, 77, 87
2, 80170, Note_on_c, 0, 61, 0
2, 80171, Note_on_c, 0, 77, 0
2, 80182, Note_on_c, 0, 57, 50
2, 80187, Note_on_c, 0, 53, 48
2, 80215, Note_on_c, 0, 69, 78
2, 80225, Note_on_c, 0, 69, 0
2, 80248, Note_on_c, 0, 69, 80
2, 80250, Note_on_c, 0, 65, 48
2, 80259, Note_on_c, 0, 69, 0
2, 80270, Note_on_c, 0, 53, 0
2, 80281, Note_on_c, 0, 69, 69
2, 80298, Note_on_c, 0, 69, 0
2, 80310, Note_on_c, 0, 57, 0
2, 80313, Note_on_c, 0, 81, 78
2, 80317, Note_on_c, 0, 61, 37
2, 80321, Note_on_c, 0, 81, 0
2, 80338, Note_on_c, 0, 69, 86
2, 80346, Note_on_c, 0, 65, 0
2, 80359, Note_on_c, 0, 69, 0
2, 80360, Note_on_c, 0, 61, 0
2, 80370, Control_c, 0, 64, 88
2, 80373, Control_c, 0, 64, 40
2, 80375, Note_on_c, 0, 69, 80
2, 80377, Control_c, 0, 64, 0
2, 80385, Note_on_c, 0, 53, 42
2, 80386, Note_on_c, 0, 57, 39
2, 80388, Note_on_c, 0, 69, 0
2, 80391, Control_c, 0, 64, 24
2, 80395, Control_c, 0, 64, 72
2, 80400, Control_c, 0, 64, 127
2, 80407, Note_on_c, 0, 69, 78
2, 80432, Note_on_c, 0, 69, 0
2, 80445, Note_on_c, 0, 81, 75
2, 80448, Note_on_c, 0, 65, 39
2, 80452, Note_on_c, 0, 57, 0
2, 80462, Note_on_c, 0, 81, 0
2, 80480, Note_on_c, 0, 69, 77
2, 80503, Note_on_c, 0, 69, 0
2, 80506, Note_on_c, 0, 61, 49
2, 80512, Note_on_c, 0, 53, 0
2, 80513, Note_on_c, 0, 68, 71
2, 80530, Note_on_c, 0, 68, 0
2, 80544, Note_on_c, 0, 65, 0
2, 80547, Note_on_c, 0, 68, 87
2, 80574, Note_on_c, 0, 68, 0
2, 80582, Note_on_c, 0, 56, 46
2, 80584, Note_on_c, 0, 61, 0
2, 80587, Note_on_c, 0, 80, 77
2, 80587, Control_c, 0, 64, 40
2, 80591, Note_on_c, 0, 53, 44
2, 80591, Control_c, 0, 64, 0
2, 80608, Control_c, 0, 64, 72
2, 80613, Control_c, 0, 64, 127
2, 80623, Note_on_c, 0, 68, 59
2, 80631, Note_on_c, 0, 68, 0
2, 80638, Note_on_c, 0, 80, 0
2, 80655, Note_on_c, 0, 65, 37
2, 80655, Note_on_c, 0, 77, 75
2, 80663, Note_on_c, 0, 77, 0
2, 80691, Note_on_c, 0, 77, 93
2, 80714, Note_on_c, 0, 77, 0
2, 80723, Note_on_c, 0, 61, 46
2, 80723, Note_on_c, 0, 89, 75
2, 80728, Note_on_c, 0, 65, 0
2, 80738, Note_on_c, 0, 53, 0
2, 80740, Note_on_c, 0, 89, 0
2, 80749, Note_on_c, 0, 61, 0
2, 80752, Note_on_c, 0, 56, 0
2, 80766, Note_on_c, 0, 77, 70
2, 80791, Note_on_c, 0, 77, 0
2, 80808, Control_c, 0, 64, 88
2, 80813, Control_c, 0, 64, 0
2, 80818, Note_on_c, 0, 44, 54
2, 80835, Control_c, 0, 64, 40
2, 80840, Control_c, 0, 64, 104
2, 80841, Note_on_c, 0, 44, 0
2, 80843, Control_c, 0, 64, 127
2, 80858, Note_on_c, 0, 76, 72
2, 80870, Note_on_c, 0, 76, 0
2, 80888, Note_on_c, 0, 64, 62
2, 80892, Note_on_c, 0, 76, 85
2, 80907, Note_on_c, 0, 76, 0
2, 80918, Note_on_c, 0, 76, 84
2, 80941, Note_on_c, 0, 76, 0
2, 80945, Note_on_c, 0, 88, 84
2, 80951, Note_on_c, 0, 64, 0
2, 80957, Note_on_c, 0, 60, 70
2, 80963, Note_on_c, 0, 88, 0
2, 80976, Note_on_c, 0, 76, 79
2, 81004, Note_on_c, 0, 60, 0
2, 81007, Note_on_c, 0, 76, 0
2, 81011, Note_on_c, 0, 56, 54
2, 81017, Note_on_c, 0, 54, 52
2, 81040, Note_on_c, 0, 77, 91
2, 81057, Note_on_c, 0, 77, 0
2, 81073, Note_on_c, 0, 77, 91
2, 81078, Note_on_c, 0, 65, 67
2, 81081, Note_on_c, 0, 56, 0
2, 81090, Note_on_c, 0, 77, 0
2, 81105, Note_on_c, 0, 77, 96
2, 81109, Note_on_c, 0, 54, 0
2, 81130, Note_on_c, 0, 77, 0
2, 81137, Note_on_c, 0, 89, 91
2, 81142, Note_on_c, 0, 60, 54
2, 81155, Note_on_c, 0, 89, 0
2, 81165, Note_on_c, 0, 77, 92
2, 81166, Note_on_c, 0, 65, 0
2, 81196, Note_on_c, 0, 56, 56
2, 81197, Note_on_c, 0, 77, 0
2, 81197, Control_c, 0, 64, 72
2, 81200, Note_on_c, 0, 54, 52
2, 81201, Control_c, 0, 64, 0
2, 81209, Note_on_c, 0, 60, 0
2, 81218, Control_c, 0, 64, 56
2, 81221, Note_on_c, 0, 54, 0
2, 81223, Control_c, 0, 64, 104
2, 81227, Control_c, 0, 64, 127
2, 81230, Note_on_c, 0, 82, 87
2, 81231, Note_on_c, 0, 56, 0
2, 81248, Note_on_c, 0, 82, 0
2, 81266, Note_on_c, 0, 82, 81
2, 81271, Note_on_c, 0, 70, 65
2, 81283, Note_on_c, 0, 82, 0
2, 81296, Note_on_c, 0, 82, 99
2, 81321, Note_on_c, 0, 70, 0
2, 81324, Note_on_c, 0, 82, 0
2, 81331, Note_on_c, 0, 94, 87
2, 81341, Note_on_c, 0, 60, 54
2, 81349, Note_on_c, 0, 60, 0
2, 81358, Note_on_c, 0, 94, 0
2, 81360, Note_on_c, 0, 82, 81
2, 81381, Note_on_c, 0, 82, 0
2, 81395, Note_on_c, 0, 54, 46
2, 81395, Note_on_c, 0, 56, 50
2, 81422, Note_on_c, 0, 76, 84
2, 81437, Note_on_c, 0, 76, 0
2, 81455, Note_on_c, 0, 64, 73
2, 81458, Note_on_c, 0, 76, 92
2, 81465, Note_on_c, 0, 54, 0
2, 81474, Note_on_c, 0, 76, 0
2, 81487, Note_on_c, 0, 76, 92
2, 81496, Note_on_c, 0, 64, 0
2, 81497, Note_on_c, 0, 60, 58
2, 81512, Note_on_c, 0, 54, 48
2, 81517, Note_on_c, 0, 76, 0
2, 81523, Note_on_c, 0, 60, 0
2, 81528, Note_on_c, 0, 88, 73
2, 81535, Note_on_c, 0, 56, 0
2, 81540, Note_on_c, 0, 54, 0
2, 81545, Note_on_c, 0, 88, 0
2, 81555, Note_on_c, 0, 76, 82
2, 81587, Note_on_c, 0, 76, 0
2, 81591, Note_on_c, 0, 37, 60
2, 81598, Control_c, 0, 64, 104
2, 81602, Control_c, 0, 64, 24
2, 81607, Control_c, 0, 64, 0
2, 81618, Note_on_c, 0, 37, 0
2, 81623, Control_c, 0, 64, 56
2, 81628, Control_c, 0, 64, 127
2, 81632, Note_on_c, 0, 77, 89
2, 81649, Note_on_c, 0, 77, 0
2, 81663, Note_on_c, 0, 77, 90
2, 81668, Note_on_c, 0, 65, 61
2, 81679, Note_on_c, 0, 77, 0
2, 81692, Note_on_c, 0, 77, 98
2, 81719, Note_on_c, 0, 77, 0
2, 81725, Note_on_c, 0, 89, 87
2, 81728, Note_on_c, 0, 65, 0
2, 81730, Note_on_c, 0, 61, 52
2, 81750, Note_on_c, 0, 89, 0
2, 81756, Note_on_c, 0, 77, 91
2, 81773, Note_on_c, 0, 77, 0
2, 81773, Note_on_c, 0, 61, 0
2, 81786, Note_on_c, 0, 57, 46
2, 81790, Note_on_c, 0, 53, 59
2, 81816, Note_on_c, 0, 69, 72
2, 81825, Note_on_c, 0, 53, 0
2, 81826, Note_on_c, 0, 69, 0
2, 81850, Note_on_c, 0, 69, 61
2, 81851, Note_on_c, 0, 65, 52
2, 81853, Note_on_c, 0, 57, 0
2, 81860, Note_on_c, 0, 69, 0
2, 81876, Note_on_c, 0, 69, 80
2, 81901, Note_on_c, 0, 69, 0
2, 81912, Note_on_c, 0, 61, 40
2, 81915, Note_on_c, 0, 81, 73
2, 81923, Note_on_c, 0, 81, 0
2, 81929, Note_on_c, 0, 65, 0
2, 81941, Note_on_c, 0, 69, 81
2, 81958, Note_on_c, 0, 61, 0
2, 81962, Note_on_c, 0, 69, 0
2, 81977, Note_on_c, 0, 69, 77
2, 81981, Note_on_c, 0, 53, 46
2, 81982, Control_c, 0, 64, 72
2, 81985, Note_on_c, 0, 57, 41
2, 81986, Control_c, 0, 64, 24
2, 81990, Control_c, 0, 64, 0
2, 81993, Note_on_c, 0, 69, 0
2, 82000, Control_c, 0, 64, 56
2, 82003, Control_c, 0, 64, 104
2, 82007, Control_c, 0, 64, 127
2, 82008, Note_on_c, 0, 69, 83
2, 82035, Note_on_c, 0, 69, 0
2, 82041, Note_on_c, 0, 53, 0
2, 82046, Note_on_c, 0, 65, 45
2, 82047, Note_on_c, 0, 81, 72
2, 82048, Note_on_c, 0, 57, 0
2, 82058, Note_on_c, 0, 81, 0
2, 82076, Note_on_c, 0, 69, 67
2, 82102, Note_on_c, 0, 69, 0
2, 82106, Note_on_c, 0, 68, 59
2, 82108, Note_on_c, 0, 61, 41
2, 82111, Note_on_c, 0, 65, 0
2, 82122, Note_on_c, 0, 68, 0
2, 82140, Note_on_c, 0, 68, 75
2, 82161, Note_on_c, 0, 61, 0
2, 82167, Note_on_c, 0, 68, 0
2, 82178, Note_on_c, 0, 56, 50
2, 82181, Note_on_c, 0, 80, 64
2, 82187, Note_on_c, 0, 53, 43
2, 82190, Control_c, 0, 64, 72
2, 82195, Control_c, 0, 64, 24
2, 82200, Control_c, 0, 64, 40
2, 82203, Control_c, 0, 64, 72
2, 82208, Note_on_c, 0, 68, 60
2, 82208, Control_c, 0, 64, 127
2, 82212, Note_on_c, 0, 80, 0
2, 82231, Note_on_c, 0, 68, 0
2, 82242, Note_on_c, 0, 65, 39
2, 82246, Note_on_c, 0, 77, 75
2, 82254, Note_on_c, 0, 77, 0
2, 82282, Note_on_c, 0, 77, 85
2, 82303, Note_on_c, 0, 77, 0
2, 82317, Note_on_c, 0, 65, 0
2, 82320, Note_on_c, 0, 53, 0
2, 82321, Note_on_c, 0, 61, 42
2, 82325, Note_on_c, 0, 89, 70
2, 82334, Note_on_c, 0, 61, 0
2, 82338, Note_on_c, 0, 89, 0
2, 82338, Note_on_c, 0, 56, 0
2, 82352, Note_on_c, 0, 77, 71
2, 82370, Note_on_c, 0, 77, 0
2, 82408, Control_c, 0, 64, 56
2, 82413, Control_c, 0, 64, 0
2, 82416, Note_on_c, 0, 47, 72
2, 82426, Control_c, 0, 64, 24
2, 82431, Control_c, 0, 64, 72
2, 82433, Note_on_c, 0, 47, 0
2, 82435, Control_c, 0, 64, 127
2, 82450, Note_on_c, 0, 76, 77
2, 82466, Note_on_c, 0, 76, 0
2, 82483, Note_on_c, 0, 76, 86
2, 82487, Note_on_c, 0, 64, 48
2, 82498, Note_on_c, 0, 76, 0
2, 82512, Note_on_c, 0, 76, 94
2, 82538, Note_on_c, 0, 76, 0
2, 82543, Note_on_c, 0, 88, 82
2, 82545, Note_on_c, 0, 64, 0
2, 82551, Note_on_c, 0, 62, 62
2, 82563, Note_on_c, 0, 88, 0
2, 82573, Note_on_c, 0, 76, 76
2, 82596, Note_on_c, 0, 62, 0
2, 82600, Note_on_c, 0, 56, 64
2, 82601, Note_on_c, 0, 76, 0
2, 82610, Note_on_c, 0, 53, 58
2, 82631, Note_on_c, 0, 77, 92
2, 82646, Note_on_c, 0, 77, 0
2, 82663, Note_on_c, 0, 77, 88
2, 82668, Note_on_c, 0, 65, 63
2, 82678, Note_on_c, 0, 77, 0
2, 82691, Note_on_c, 0, 77, 92
2, 82718, Note_on_c, 0, 77, 0
2, 82721, Note_on_c, 0, 62, 76
2, 82724, Note_on_c, 0, 65, 0
2, 82730, Note_on_c, 0, 89, 93
2, 82737, Note_on_c, 0, 53, 0
2, 82738, Note_on_c, 0, 62, 0
2, 82742, Note_on_c, 0, 56, 0
2, 82750, Note_on_c, 0, 89, 0
2, 82750, Note_on_c, 0, 77, 85
2, 82777, Note_on_c, 0, 77, 0
2, 82783, Control_c, 0, 64, 88
2, 82787, Control_c, 0, 64, 24
2, 82790, Note_on_c, 0, 46, 75
2, 82792, Control_c, 0, 64, 0
2, 82808, Note_on_c, 0, 46, 0
2, 82810, Control_c, 0, 64, 56
2, 82813, Control_c, 0, 64, 127
2, 82826, Note_on_c, 0, 83, 96
2, 82844, Note_on_c, 0, 83, 0
2, 82862, Note_on_c, 0, 83, 93
2, 82863, Note_on_c, 0, 71, 65
2, 82879, Note_on_c, 0, 83, 0
2, 82893, Note_on_c, 0, 83, 94
2, 82920, Note_on_c, 0, 83, 0
2, 82930, Note_on_c, 0, 95, 90
2, 82931, Note_on_c, 0, 71, 0
2, 82932, Note_on_c, 0, 62, 69
2, 82940, Note_on_c, 0, 62, 0
2, 82953, Note_on_c, 0, 95, 0
2, 82958, Note_on_c, 0, 83, 87
2, 82978, Note_on_c, 0, 83, 0
2, 82988, Note_on_c, 0, 56, 65
2, 82992, Note_on_c, 0, 53, 69
2, 83018, Note_on_c, 0, 77, 91
2, 83033, Note_on_c, 0, 77, 0
2, 83051, Note_on_c, 0, 65, 73
2, 83053, Note_on_c, 0, 77, 84
2, 83069, Note_on_c, 0, 77, 0
2, 83083, Note_on_c, 0, 77, 93
2, 83085, Note_on_c, 0, 53, 0
2, 83090, Note_on_c, 0, 56, 0
2, 83101, Note_on_c, 0, 65, 0
2, 83106, Note_on_c, 0, 62, 42
2, 83111, Note_on_c, 0, 77, 0
2, 83123, Note_on_c, 0, 89, 82
2, 83126, Note_on_c, 0, 56, 38
2, 83128, Note_on_c, 0, 53, 52
2, 83136, Note_on_c, 0, 62, 0
2, 83141, Note_on_c, 0, 89, 0
2, 83149, Note_on_c, 0, 56, 0
2, 83150, Note_on_c, 0, 53, 0
2, 83151, Note_on_c, 0, 77, 79
2, 83181, Note_on_c, 0, 77, 0
2, 83191, Note_on_c, 0, 39, 68
2, 83197, Control_c, 0, 64, 104
2, 83201, Control_c, 0, 64, 24
2, 83206, Control_c, 0, 64, 0
2, 83220, Control_c, 0, 64, 24
2, 83222, Note_on_c, 0, 39, 0
2, 83223, Control_c, 0, 64, 88
2, 83228, Note_on_c, 0, 78, 82
2, 83228, Control_c, 0, 64, 127
2, 83248, Note_on_c, 0, 78, 0
2, 83268, Note_on_c, 0, 78, 79
2, 83268, Note_on_c, 0, 66, 71
2, 83286, Note_on_c, 0, 78, 0
2, 83297, Note_on_c, 0, 78, 95
2, 83323, Note_on_c, 0, 78, 0
2, 83331, Note_on_c, 0, 90, 79
2, 83336, Note_on_c, 0, 63, 55
2, 83349, Note_on_c, 0, 66, 0
2, 83356, Note_on_c, 0, 78, 81
2, 83357, Note_on_c, 0, 90, 0
2, 83377, Note_on_c, 0, 78, 0
2, 83381, Note_on_c, 0, 63, 0
2, 83388, Note_on_c, 0, 57, 54
2, 83390, Note_on_c, 0, 54, 49
2, 83417, Note_on_c, 0, 71, 80
2, 83427, Note_on_c, 0, 71, 0
2, 83448, Note_on_c, 0, 57, 0
2, 83453, Note_on_c, 0, 71, 80
2, 83453, Note_on_c, 0, 66, 44
2, 83461, Note_on_c, 0, 71, 0
2, 83481, Note_on_c, 0, 71, 78
2, 83483, Note_on_c, 0, 54, 0
2, 83504, Note_on_c, 0, 71, 0
2, 83504, Note_on_c, 0, 66, 0
2, 83507, Note_on_c, 0, 63, 40
2, 83520, Note_on_c, 0, 83, 69
2, 83528, Note_on_c, 0, 83, 0
2, 83540, Note_on_c, 0, 71, 78
2, 83554, Note_on_c, 0, 63, 0
2, 83563, Note_on_c, 0, 71, 0
2, 83572, Note_on_c, 0, 54, 41
2, 83573, Note_on_c, 0, 71, 61
2, 83576, Note_on_c, 0, 57, 34
2, 83585, Note_on_c, 0, 71, 0
2, 83601, Note_on_c, 0, 71, 90
2, 83626, Note_on_c, 0, 71, 0
2, 83632, Note_on_c, 0, 66, 42
2, 83638, Note_on_c, 0, 57, 0
2, 83638, Note_on_c, 0, 83, 70
2, 83646, Note_on_c, 0, 83, 0
2, 83663, Note_on_c, 0, 71, 74
2, 83685, Note_on_c, 0, 71, 0
2, 83688, Note_on_c, 0, 70, 74
2, 83694, Note_on_c, 0, 66, 0
2, 83695, Note_on_c, 0, 63, 46
2, 83698, Note_on_c, 0, 54, 0
2, 83701, Note_on_c, 0, 70, 0
2, 83722, Note_on_c, 0, 70, 79
2, 83747, Note_on_c, 0, 70, 0
2, 83752, Note_on_c, 0, 63, 0
2, 83760, Note_on_c, 0, 82, 68
2, 83763, Note_on_c, 0, 54, 47
2, 83765, Note_on_c, 0, 58, 41
2, 83772, Control_c, 0, 64, 56
2, 83776, Control_c, 0, 64, 0
2, 83785, Control_c, 0, 64, 24
2, 83790, Note_on_c, 0, 70, 73
2, 83790, Control_c, 0, 64, 72
2, 83795, Control_c, 0, 64, 127
2, 83806, Note_on_c, 0, 82, 0
2, 83811, Note_on_c, 0, 70, 0
2, 83823, Note_on_c, 0, 78, 68
2, 83826, Note_on_c, 0, 66, 39
2, 83840, Note_on_c, 0, 78, 0
2, 83856, Note_on_c, 0, 78, 82
2, 83883, Note_on_c, 0, 78, 0
2, 83894, Note_on_c, 0, 66, 0
2, 83897, Note_on_c, 0, 90, 66
2, 83901, Note_on_c, 0, 58, 0
2, 83901, Note_on_c, 0, 63, 37
2, 83919, Note_on_c, 0, 63, 0
2, 83919, Note_on_c, 0, 54, 0
2, 83923, Note_on_c, 0, 90, 0
2, 83930, Note_on_c, 0, 78, 70
2, 83952, Note_on_c, 0, 78, 0
2, 83983, Note_on_c, 0, 47, 70
2, 83985, Control_c, 0, 64, 88
2, 83991, Control_c, 0, 64, 24
2, 83995, Control_c, 0, 64, 0
2, 83999, Note_on_c, 0, 47, 0
2, 84003, Control_c, 0, 64, 40
2, 84007, Control_c, 0, 64, 88
2, 84012, Control_c, 0, 64, 127
2, 84021, Note_on_c, 0, 76, 80
2, 84038, Note_on_c, 0, 76, 0
2, 84055, Note_on_c, 0, 76, 85
2, 84055, Note_on_c, 0, 64, 70
2, 84072, Note_on_c, 0, 76, 0
2, 84085, Note_on_c, 0, 76, 92
2, 84105, Note_on_c, 0, 64, 0
2, 84111, Note_on_c, 0, 76, 0
2, 84120, Note_on_c, 0, 88, 85
2, 84120, Note_on_c, 0, 62, 65
2, 84132, Note_on_c, 0, 88, 0
2, 84141, Note_on_c, 0, 76, 81
2, 84167, Note_on_c, 0, 62, 0
2, 84172, Note_on_c, 0, 76, 0
2, 84173, Note_on_c, 0, 56, 61
2, 84180, Note_on_c, 0, 53, 65
2, 84207, Note_on_c, 0, 77, 88
2, 84223, Note_on_c, 0, 77, 0
2, 84240, Note_on_c, 0, 65, 67
2, 84242, Note_on_c, 0, 77, 90
2, 84258, Note_on_c, 0, 77, 0
2, 84272, Note_on_c, 0, 77, 90
2, 84288, Note_on_c, 0, 65, 0
2, 84288, Note_on_c, 0, 62, 70
2, 84297, Note_on_c, 0, 77, 0
2, 84300, Note_on_c, 0, 53, 0
2, 84301, Note_on_c, 0, 62, 0
2, 84304, Note_on_c, 0, 56, 0
2, 84307, Note_on_c, 0, 89, 91
2, 84324, Note_on_c, 0, 89, 0
2, 84335, Note_on_c, 0, 77, 80
2, 84352, Control_c, 0, 64, 72
2, 84357, Control_c, 0, 64, 0
2, 84361, Note_on_c, 0, 77, 0
2, 84361, Note_on_c, 0, 46, 83
2, 84375, Control_c, 0, 64, 24
2, 84378, Control_c, 0, 64, 88
2, 84379, Note_on_c, 0, 46, 0
2, 84383, Control_c, 0, 64, 127
2, 84400, Note_on_c, 0, 83, 95
2, 84418, Note_on_c, 0, 83, 0
2, 84435, Note_on_c, 0, 71, 72
2, 84437, Note_on_c, 0, 83, 84
2, 84453, Note_on_c, 0, 83, 0
2, 84466, Note_on_c, 0, 83, 103
2, 84496, Note_on_c, 0, 83, 0
2, 84500, Note_on_c, 0, 71, 0
2, 84500, Note_on_c, 0, 95, 97
2, 84503, Note_on_c, 0, 62, 67
2, 84513, Note_on_c, 0, 62, 0
2, 84527, Note_on_c, 0, 95, 0
2, 84531, Note_on_c, 0, 83, 86
2, 84553, Note_on_c, 0, 83, 0
2, 84562, Note_on_c, 0, 56, 50
2, 84566, Note_on_c, 0, 53, 62
2, 84595, Note_on_c, 0, 77, 92
2, 84611, Note_on_c, 0, 77, 0
2, 84625, Note_on_c, 0, 65, 63
2, 84633, Note_on_c, 0, 77, 89
2, 84637, Note_on_c, 0, 56, 0
2, 84648, Note_on_c, 0, 77, 0
2, 84656, Note_on_c, 0, 53, 0
2, 84665, Note_on_c, 0, 77, 91
2, 84671, Note_on_c, 0, 62, 46
2, 84673, Note_on_c, 0, 65, 0
2, 84693, Note_on_c, 0, 77, 0
2, 84693, Note_on_c, 0, 56, 43
2, 84700, Note_on_c, 0, 53, 37
2, 84708, Note_on_c, 0, 89, 71
2, 84711, Note_on_c, 0, 62, 0
2, 84724, Note_on_c, 0, 89, 0
2, 84726, Note_on_c, 0, 56, 0
2, 84727, Note_on_c, 0, 53, 0
2, 84737, Note_on_c, 0, 77, 73
2, 84767, Note_on_c, 0, 77, 0
2, 84773, Note_on_c, 0, 39, 61
2, 84780, Control_c, 0, 64, 104
2, 84783, Control_c, 0, 64, 0
2, 84798, Note_on_c, 0, 39, 0
2, 84806, Control_c, 0, 64, 88
2, 84808, Note_on_c, 0, 78, 77
2, 84810, Control_c, 0, 64, 127
2, 84828, Note_on_c, 0, 78, 0
2, 84845, Note_on_c, 0, 78, 77
2, 84847, Note_on_c, 0, 66, 65
2, 84863, Note_on_c, 0, 78, 0
2, 84876, Note_on_c, 0, 78, 90
2, 84902, Note_on_c, 0, 78, 0
2, 84903, Note_on_c, 0, 90, 81
2, 84905, Note_on_c, 0, 66, 0
2, 84908, Note_on_c, 0, 63, 56
2, 84930, Note_on_c, 0, 90, 0
2, 84935, Note_on_c, 0, 78, 67
2, 84951, Note_on_c, 0, 78, 0
2, 84956, Note_on_c, 0, 63, 0
2, 84962, Note_on_c, 0, 54, 54
2, 84965, Note_on_c, 0, 57, 52
2, 84990, Note_on_c, 0, 71, 66
2, 85000, Note_on_c, 0, 71, 0
2, 85021, Note_on_c, 0, 71, 80
2, 85025, Note_on_c, 0, 57, 0
2, 85026, Note_on_c, 0, 66, 45
2, 85036, Note_on_c, 0, 71, 0
2, 85052, Note_on_c, 0, 71, 78
2, 85074, Note_on_c, 0, 71, 0
2, 85077, Note_on_c, 0, 54, 0
2, 85087, Note_on_c, 0, 83, 83
2, 85093, Note_on_c, 0, 63, 35
2, 85103, Note_on_c, 0, 83, 0
2, 85116, Note_on_c, 0, 71, 78
2, 85117, Note_on_c, 0, 66, 0
2, 85137, Note_on_c, 0, 71, 0
2, 85139, Note_on_c, 0, 63, 0
2, 85150, Control_c, 0, 64, 72
2, 85151, Note_on_c, 0, 71, 68
2, 85153, Control_c, 0, 64, 24
2, 85156, Note_on_c, 0, 54, 41
2, 85158, Note_on_c, 0, 57, 36
2, 85158, Control_c, 0, 64, 40
2, 85162, Control_c, 0, 64, 88
2, 85164, Note_on_c, 0, 71, 0
2, 85167, Control_c, 0, 64, 127
2, 85181, Note_on_c, 0, 71, 81
2, 85208, Note_on_c, 0, 71, 0
2, 85212, Note_on_c, 0, 66, 44
2, 85217, Note_on_c, 0, 83, 65
2, 85218, Note_on_c, 0, 57, 0
2, 85227, Note_on_c, 0, 83, 0
2, 85241, Note_on_c, 0, 71, 72
2, 85267, Note_on_c, 0, 71, 0
2, 85267, Note_on_c, 0, 70, 74
2, 85277, Note_on_c, 0, 63, 45
2, 85279, Note_on_c, 0, 66, 0
2, 85283, Note_on_c, 0, 70, 0
2, 85291, Note_on_c, 0, 54, 0
2, 85303, Note_on_c, 0, 70, 74
2, 85331, Note_on_c, 0, 70, 0
2, 85332, Control_c, 0, 64, 56
2, 85334, Note_on_c, 0, 63, 0
2, 85337, Control_c, 0, 64, 0
2, 85341, Control_c, 0, 64, 56
2, 85342, Note_on_c, 0, 82, 72
2, 85343, Note_on_c, 0, 58, 40
2, 85346, Note_on_c, 0, 54, 43
2, 85346, Control_c, 0, 64, 127
2, 85370, Note_on_c, 0, 70, 69
2, 85393, Note_on_c, 0, 70, 0
2, 85393, Note_on_c, 0, 82, 0
2, 85408, Note_on_c, 0, 78, 71
2, 85411, Note_on_c, 0, 66, 35
2, 85424, Note_on_c, 0, 78, 0
2, 85445, Note_on_c, 0, 78, 77
2, 85473, Note_on_c, 0, 78, 0
2, 85482, Note_on_c, 0, 66, 0
2, 85483, Note_on_c, 0, 90, 75
2, 85486, Note_on_c, 0, 63, 47
2, 85504, Note_on_c, 0, 54, 0
2, 85508, Note_on_c, 0, 58, 0
2, 85508, Note_on_c, 0, 63, 0
2, 85513, Note_on_c, 0, 90, 0
2, 85525, Note_on_c, 0, 78, 59
2, 85557, Note_on_c, 0, 78, 0
2, 85578, Note_on_c, 0, 48, 66
2, 85582, Control_c, 0, 64, 40
2, 85586, Control_c, 0, 64, 0
2, 85596, Note_on_c, 0, 48, 0
2, 85598, Control_c, 0, 64, 56
2, 85603, Control_c, 0, 64, 127
2, 85613, Note_on_c, 0, 78, 77
2, 85631, Note_on_c, 0, 78, 0
2, 85653, Note_on_c, 0, 78, 79
2, 85655, Note_on_c, 0, 66, 71
2, 85670, Note_on_c, 0, 78, 0
2, 85685, Note_on_c, 0, 78, 92
2, 85710, Note_on_c, 0, 78, 0
2, 85716, Note_on_c, 0, 90, 93
2, 85725, Note_on_c, 0, 63, 66
2, 85746, Note_on_c, 0, 78, 67
2, 85760, Note_on_c, 0, 66, 0
2, 85761, Note_on_c, 0, 78, 0
2, 85777, Note_on_c, 0, 90, 0
2, 85777, Note_on_c, 0, 58, 49
2, 85781, Note_on_c, 0, 63, 0
2, 85802, Note_on_c, 0, 58, 0
2, 85806, Note_on_c, 0, 85, 90
2, 85823, Note_on_c, 0, 85, 0
2, 85843, Note_on_c, 0, 85, 89
2, 85847, Note_on_c, 0, 73, 81
2, 85861, Note_on_c, 0, 85, 0
2, 85876, Note_on_c, 0, 85, 95
2, 85896, Control_c, 0, 67, 0
2, 85903, Note_on_c, 0, 85, 0
2, 85910, Note_on_c, 0, 73, 0
2, 85916, Note_on_c, 0, 97, 96
2, 85921, Note_on_c, 0, 63, 62
2, 85921, Note_on_c, 0, 66, 59
2, 85928, Note_on_c, 0, 66, 0
2, 85930, Control_c, 0, 67, 127
2, 85936, Note_on_c, 0, 63, 0
2, 85942, Note_on_c, 0, 97, 0
2, 85952, Note_on_c, 0, 85, 94
2, 85975, Note_on_c, 0, 85, 0
2, 85996, Note_on_c, 0, 85, 90
2, 86000, Control_c, 0, 64, 104
2, 86002, Note_on_c, 0, 41, 75
2, 86005, Control_c, 0, 64, 0
2, 86015, Note_on_c, 0, 41, 0
2, 86019, Note_on_c, 0, 85, 0
2, 86021, Control_c, 0, 64, 72
2, 86026, Control_c, 0, 64, 127
2, 86036, Note_on_c, 0, 85, 98
2, 86063, Note_on_c, 0, 85, 0
2, 86077, Note_on_c, 0, 97, 94
2, 86080, Note_on_c, 0, 73, 86
2, 86102, Note_on_c, 0, 97, 0
2, 86110, Note_on_c, 0, 85, 92
2, 86131, Note_on_c, 0, 85, 0
2, 86142, Note_on_c, 0, 85, 83
2, 86142, Note_on_c, 0, 66, 68
2, 86148, Note_on_c, 0, 73, 0
2, 86152, Note_on_c, 0, 63, 45
2, 86164, Note_on_c, 0, 85, 0
2, 86169, Note_on_c, 0, 63, 0
2, 86175, Note_on_c, 0, 66, 0
2, 86178, Note_on_c, 0, 85, 87
2, 86204, Note_on_c, 0, 85, 0
2, 86215, Note_on_c, 0, 97, 81
2, 86222, Note_on_c, 0, 57, 54
2, 86241, Note_on_c, 0, 97, 0
2, 86246, Note_on_c, 0, 85, 77
2, 86248, Note_on_c, 0, 57, 0
2, 86264, Note_on_c, 0, 85, 0
2, 86293, Note_on_c, 0, 72, 67
2, 86298, Note_on_c, 0, 84, 43
2, 86298, Note_on_c, 0, 83, 35
2, 86306, Note_on_c, 0, 83, 0
2, 86306, Note_on_c, 0, 84, 0
2, 86331, Note_on_c, 0, 84, 79
2, 86364, Note_on_c, 0, 84, 0
2, 86375, Note_on_c, 0, 66, 49
2, 86379, Note_on_c, 0, 72, 0
2, 86381, Note_on_c, 0, 96, 72
2, 86390, Note_on_c, 0, 63, 37
2, 86408, Note_on_c, 0, 66, 0
2, 86409, Note_on_c, 0, 96, 0
2, 86413, Note_on_c, 0, 63, 0
2, 86426, Note_on_c, 0, 84, 65
2, 86437, Note_on_c, 0, 84, 0
2, 86487, Control_c, 0, 64, 72
2, 86490, Note_on_c, 0, 46, 61
2, 86492, Control_c, 0, 64, 0
2, 86508, Control_c, 0, 64, 88
2, 86515, Control_c, 0, 64, 127
2, 86520, Note_on_c, 0, 46, 0
2, 86567, Note_on_c, 0, 84, 86
2, 86577, Note_on_c, 0, 72, 65
2, 86601, Note_on_c, 0, 89, 84
2, 86603, Note_on_c, 0, 84, 0
2, 86627, Note_on_c, 0, 96, 82
2, 86629, Note_on_c, 0, 89, 0
2, 86647, Note_on_c, 0, 65, 45
2, 86658, Note_on_c, 0, 95, 73
2, 86659, Note_on_c, 0, 96, 0
2, 86660, Note_on_c, 0, 63, 50
2, 86662, Note_on_c, 0, 72, 0
2, 86673, Note_on_c, 0, 94, 72
2, 86686, Note_on_c, 0, 95, 0
2, 86695, Note_on_c, 0, 94, 0
2, 86696, Note_on_c, 0, 93, 85
2, 86707, Note_on_c, 0, 65, 0
2, 86718, Note_on_c, 0, 93, 0
2, 86723, Note_on_c, 0, 63, 0
2, 86725, Note_on_c, 0, 92, 83
2, 86727, Note_on_c, 0, 56, 49
2, 86745, Note_on_c, 0, 92, 0
2, 86747, Note_on_c, 0, 91, 79
2, 86760, Note_on_c, 0, 56, 0
2, 86767, Note_on_c, 0, 90, 85
2, 86769, Note_on_c, 0, 91, 0
2, 86795, Note_on_c, 0, 89, 93
2, 86797, Note_on_c, 0, 71, 82
2, 86804, Note_on_c, 0, 90, 0
2, 86813, Note_on_c, 0, 89, 0
2, 86817, Note_on_c, 0, 88, 89
2, 86842, Note_on_c, 0, 88, 0
2, 86842, Note_on_c, 0, 87, 83
2, 86859, Note_on_c, 0, 87, 0
2, 86862, Note_on_c, 0, 86, 90
2, 86865, Note_on_c, 0, 65, 55
2, 86867, Note_on_c, 0, 63, 54
2, 86880, Note_on_c, 0, 71, 0
2, 86882, Note_on_c, 0, 85, 81
2, 86885, Note_on_c, 0, 86, 0
2, 86907, Note_on_c, 0, 84, 87
2, 86920, Note_on_c, 0, 84, 0
2, 86920, Note_on_c, 0, 85, 0
2, 86923, Note_on_c, 0, 63, 0
2, 86928, Note_on_c, 0, 83, 94
2, 86941, Note_on_c, 0, 56, 47
2, 86943, Note_on_c, 0, 65, 0
2, 86955, Note_on_c, 0, 83, 0
2, 86955, Note_on_c, 0, 82, 86
2, 86983, Note_on_c, 0, 82, 0
2, 86987, Note_on_c, 0, 81, 92
2, 87006, Note_on_c, 0, 56, 0
2, 87012, Note_on_c, 0, 81, 0
2, 87018, Note_on_c, 0, 80, 74
2, 87027, Note_on_c, 0, 71, 62
2, 87038, Note_on_c, 0, 80, 0
2, 87043, Note_on_c, 0, 79, 83
2, 87067, Note_on_c, 0, 78, 81
2, 87068, Note_on_c, 0, 79, 0
2, 87087, Note_on_c, 0, 65, 55
2, 87093, Note_on_c, 0, 78, 0
2, 87096, Note_on_c, 0, 77, 92
2, 87100, Note_on_c, 0, 62, 42
2, 87107, Note_on_c, 0, 71, 0
2, 87118, Note_on_c, 0, 77, 0
2, 87125, Note_on_c, 0, 78, 80
2, 87152, Note_on_c, 0, 78, 0
2, 87153, Note_on_c, 0, 77, 85
2, 87172, Note_on_c, 0, 70, 54
2, 87180, Note_on_c, 0, 77, 0
2, 87187, Note_on_c, 0, 76, 79
2, 87206, Control_c, 0, 64, 104
2, 87211, Control_c, 0, 64, 56
2, 87215, Control_c, 0, 64, 0
2, 87223, Note_on_c, 0, 77, 89
2, 87224, Note_on_c, 0, 76, 0
2, 87233, Control_c, 0, 64, 72
2, 87237, Control_c, 0, 64, 127
2, 87251, Note_on_c, 0, 77, 0
2, 87258, Note_on_c, 0, 78, 67
2, 87289, Note_on_c, 0, 78, 0
2, 87301, Note_on_c, 0, 77, 84
2, 87310, Note_on_c, 0, 70, 0
2, 87325, Note_on_c, 0, 65, 0
2, 87336, Note_on_c, 0, 62, 0
2, 87338, Note_on_c, 0, 77, 0
2, 87347, Note_on_c, 0, 83, 71
2, 87388, Note_on_c, 0, 83, 0
2, 87407, Note_on_c, 0, 82, 63
2, 87425, Note_on_c, 0, 82, 0
2, 87451, Control_c, 0, 64, 104
2, 87456, Note_on_c, 0, 46, 66
2, 87456, Control_c, 0, 64, 24
2, 87460, Control_c, 0, 64, 0
2, 87472, Control_c, 0, 64, 56
2, 87476, Control_c, 0, 64, 127
2, 87486, Note_on_c, 0, 46, 0
2, 87505, Note_on_c, 0, 76, 79
2, 87522, Note_on_c, 0, 76, 0
2, 87535, Note_on_c, 0, 64, 66
2, 87540, Note_on_c, 0, 76, 82
2, 87556, Note_on_c, 0, 76, 0
2, 87572, Note_on_c, 0, 76, 93
2, 87598, Note_on_c, 0, 76, 0
2, 87607, Note_on_c, 0, 88, 92
2, 87612, Note_on_c, 0, 61, 40
2, 87637, Note_on_c, 0, 88, 0
2, 87637, Note_on_c, 0, 64, 0
2, 87637, Note_on_c, 0, 76, 75
2, 87648, Note_on_c, 0, 56, 64
2, 87659, Note_on_c, 0, 76, 0
2, 87660, Note_on_c, 0, 61, 0
2, 87676, Note_on_c, 0, 56, 0
2, 87696, Note_on_c, 0, 83, 89
2, 87713, Note_on_c, 0, 83, 0
2, 87730, Note_on_c, 0, 71, 70
2, 87732, Note_on_c, 0, 83, 92
2, 87749, Note_on_c, 0, 83, 0
2, 87765, Note_on_c, 0, 83, 90
2, 87788, Note_on_c, 0, 83, 0
2, 87795, Note_on_c, 0, 71, 0
2, 87796, Note_on_c, 0, 95, 94
2, 87805, Note_on_c, 0, 64, 66
2, 87806, Note_on_c, 0, 61, 54
2, 87817, Note_on_c, 0, 95, 0
2, 87820, Note_on_c, 0, 64, 0
2, 87827, Note_on_c, 0, 61, 0
2, 87828, Note_on_c, 0, 83, 89
2, 87850, Note_on_c, 0, 83, 0
2, 87870, Note_on_c, 0, 83, 91
2, 87873, Note_on_c, 0, 39, 68
2, 87873, Control_c, 0, 64, 72
2, 87877, Control_c, 0, 64, 0
2, 87890, Note_on_c, 0, 83, 0
2, 87891, Note_on_c, 0, 39, 0
2, 87895, Control_c, 0, 64, 72
2, 87900, Control_c, 0, 64, 127
2, 87908, Note_on_c, 0, 83, 95
2, 87936, Note_on_c, 0, 83, 0
2, 87946, Note_on_c, 0, 95, 94
2, 87951, Note_on_c, 0, 71, 72
2, 87967, Note_on_c, 0, 95, 0
2, 87976, Note_on_c, 0, 83, 92
2, 87994, Note_on_c, 0, 71, 0
2, 87997, Note_on_c, 0, 83, 0
2, 88007, Note_on_c, 0, 64, 66
2, 88010, Note_on_c, 0, 83, 95
2, 88013, Note_on_c, 0, 61, 56
2, 88027, Note_on_c, 0, 83, 0
2, 88034, Note_on_c, 0, 64, 0
2, 88041, Note_on_c, 0, 83, 95
2, 88048, Note_on_c, 0, 61, 0
2, 88067, Note_on_c, 0, 83, 0
2, 88077, Note_on_c, 0, 95, 90
2, 88082, Note_on_c, 0, 55, 65
2, 88097, Note_on_c, 0, 95, 0
2, 88107, Note_on_c, 0, 83, 80
2, 88135, Note_on_c, 0, 83, 0
2, 88150, Note_on_c, 0, 82, 68
2, 88156, Note_on_c, 0, 70, 67
2, 88172, Note_on_c, 0, 82, 0
2, 88192, Note_on_c, 0, 82, 77
2, 88218, Note_on_c, 0, 70, 0
2, 88228, Note_on_c, 0, 82, 0
2, 88235, Note_on_c, 0, 55, 0
2, 88238, Note_on_c, 0, 64, 56
2, 88240, Note_on_c, 0, 94, 74
2, 88247, Note_on_c, 0, 61, 35
2, 88270, Note_on_c, 0, 64, 0
2, 88271, Note_on_c, 0, 94, 0
2, 88279, Note_on_c, 0, 61, 0
2, 88285, Note_on_c, 0, 82, 74
2, 88306, Note_on_c, 0, 82, 0
2, 88343, Control_c, 0, 64, 56
2, 88348, Note_on_c, 0, 44, 61
2, 88348, Control_c, 0, 64, 0
2, 88366, Control_c, 0, 64, 40
2, 88371, Control_c, 0, 64, 127
2, 88376, Note_on_c, 0, 44, 0
2, 88422, Note_on_c, 0, 82, 83
2, 88432, Note_on_c, 0, 70, 67
2, 88461, Note_on_c, 0, 87, 82
2, 88467, Note_on_c, 0, 82, 0
2, 88483, Note_on_c, 0, 94, 72
2, 88484, Note_on_c, 0, 87, 0
2, 88497, Note_on_c, 0, 63, 50
2, 88511, Note_on_c, 0, 94, 0
2, 88511, Note_on_c, 0, 93, 84
2, 88511, Note_on_c, 0, 61, 41
2, 88522, Note_on_c, 0, 70, 0
2, 88536, Note_on_c, 0, 92, 79
2, 88542, Note_on_c, 0, 93, 0
2, 88555, Note_on_c, 0, 91, 84
2, 88556, Note_on_c, 0, 92, 0
2, 88567, Note_on_c, 0, 61, 0
2, 88578, Note_on_c, 0, 90, 84
2, 88581, Note_on_c, 0, 91, 0
2, 88581, Note_on_c, 0, 54, 60
2, 88603, Note_on_c, 0, 89, 84
2, 88609, Note_on_c, 0, 90, 0
2, 88620, Note_on_c, 0, 89, 0
2, 88621, Note_on_c, 0, 54, 0
2, 88626, Note_on_c, 0, 88, 86
2, 88638, Note_on_c, 0, 63, 0
2, 88648, Note_on_c, 0, 88, 0
2, 88651, Note_on_c, 0, 87, 83
2, 88651, Note_on_c, 0, 69, 95
2, 88671, Note_on_c, 0, 87, 0
2, 88673, Note_on_c, 0, 86, 85
2, 88693, Note_on_c, 0, 85, 80
2, 88695, Note_on_c, 0, 86, 0
2, 88712, Note_on_c, 0, 63, 48
2, 88725, Note_on_c, 0, 61, 38
2, 88728, Note_on_c, 0, 85, 0
2, 88736, Note_on_c, 0, 83, 90
2, 88747, Note_on_c, 0, 69, 0
2, 88754, Note_on_c, 0, 83, 0
2, 88761, Note_on_c, 0, 82, 81
2, 88779, Note_on_c, 0, 82, 0
2, 88783, Note_on_c, 0, 81, 85
2, 88793, Note_on_c, 0, 61, 0
2, 88804, Note_on_c, 0, 81, 0
2, 88805, Note_on_c, 0, 80, 81
2, 88807, Note_on_c, 0, 54, 47
2, 88822, Note_on_c, 0, 80, 0
2, 88828, Note_on_c, 0, 79, 86
2, 88847, Note_on_c, 0, 78, 81
2, 88850, Note_on_c, 0, 79, 0
2, 88850, Note_on_c, 0, 54, 0
2, 88865, Note_on_c, 0, 63, 0
2, 88870, Note_on_c, 0, 69, 74
2, 88875, Note_on_c, 0, 77, 87
2, 88887, Note_on_c, 0, 78, 0
2, 88891, Note_on_c, 0, 77, 0
2, 88898, Note_on_c, 0, 76, 84
2, 88924, Note_on_c, 0, 76, 0
2, 88928, Note_on_c, 0, 75, 81
2, 88937, Note_on_c, 0, 63, 56
2, 88955, Note_on_c, 0, 75, 0
2, 88956, Note_on_c, 0, 60, 47
2, 88957, Note_on_c, 0, 69, 0
2, 88958, Note_on_c, 0, 76, 90
2, 88989, Note_on_c, 0, 76, 0
2, 88991, Note_on_c, 0, 75, 83
2, 89018, Note_on_c, 0, 75, 0
2, 89030, Note_on_c, 0, 74, 62
2, 89031, Note_on_c, 0, 68, 60
2, 89058, Control_c, 0, 64, 72
2, 89061, Note_on_c, 0, 74, 0
2, 89063, Control_c, 0, 64, 24
2, 89065, Note_on_c, 0, 75, 81
2, 89068, Control_c, 0, 64, 0
2, 89086, Control_c, 0, 64, 56
2, 89090, Control_c, 0, 64, 127
2, 89096, Note_on_c, 0, 75, 0
2, 89102, Note_on_c, 0, 76, 82
2, 89130, Note_on_c, 0, 76, 0
2, 89145, Note_on_c, 0, 75, 80
2, 89166, Note_on_c, 0, 68, 0
2, 89178, Note_on_c, 0, 75, 0
2, 89185, Note_on_c, 0, 63, 0
2, 89186, Note_on_c, 0, 60, 0
2, 89201, Note_on_c, 0, 81, 72
2, 89236, Note_on_c, 0, 81, 0
2, 89258, Note_on_c, 0, 80, 69
2, 89276, Note_on_c, 0, 80, 0
2, 89302, Control_c, 0, 64, 104
2, 89307, Control_c, 0, 64, 40
2, 89311, Note_on_c, 0, 44, 55
2, 89312, Control_c, 0, 64, 0
2, 89325, Control_c, 0, 64, 56
2, 89330, Control_c, 0, 64, 127
2, 89337, Note_on_c, 0, 44, 0
2, 89352, Note_on_c, 0, 74, 80
2, 89369, Note_on_c, 0, 74, 0
2, 89391, Note_on_c, 0, 74, 62
2, 89391, Note_on_c, 0, 62, 54
2, 89402, Note_on_c, 0, 74, 0
2, 89418, Note_on_c, 0, 74, 87
2, 89444, Note_on_c, 0, 74, 0
2, 89456, Note_on_c, 0, 86, 72
2, 89463, Note_on_c, 0, 59, 46
2, 89467, Note_on_c, 0, 62, 0
2, 89483, Note_on_c, 0, 74, 74
2, 89488, Note_on_c, 0, 86, 0
2, 89506, Note_on_c, 0, 74, 0
2, 89506, Note_on_c, 0, 53, 65
2, 89525, Note_on_c, 0, 59, 0
2, 89527, Note_on_c, 0, 53, 0
2, 89550, Note_on_c, 0, 81, 89
2, 89567, Note_on_c, 0, 81, 0
2, 89580, Note_on_c, 0, 69, 74
2, 89585, Note_on_c, 0, 81, 90
2, 89600, Note_on_c, 0, 81, 0
2, 89618, Note_on_c, 0, 81, 83
2, 89644, Note_on_c, 0, 81, 0
2, 89652, Note_on_c, 0, 93, 92
2, 89652, Note_on_c, 0, 62, 58
2, 89657, Note_on_c, 0, 69, 0
2, 89665, Note_on_c, 0, 59, 51
2, 89667, Note_on_c, 0, 62, 0
2, 89674, Note_on_c, 0, 93, 0
2, 89675, Note_on_c, 0, 59, 0
2, 89682, Note_on_c, 0, 81, 87
2, 89708, Note_on_c, 0, 81, 0
2, 89725, Note_on_c, 0, 81, 84
2, 89730, Control_c, 0, 64, 56
2, 89732, Note_on_c, 0, 37, 72
2, 89735, Control_c, 0, 64, 0
2, 89743, Note_on_c, 0, 81, 0
2, 89743, Control_c, 0, 64, 24
2, 89747, Control_c, 0, 64, 72
2, 89752, Note_on_c, 0, 37, 0
2, 89752, Control_c, 0, 64, 127
2, 89763, Note_on_c, 0, 81, 90
2, 89795, Note_on_c, 0, 81, 0
2, 89808, Note_on_c, 0, 93, 94
2, 89808, Note_on_c, 0, 69, 77
2, 89831, Note_on_c, 0, 93, 0
2, 89842, Note_on_c, 0, 81, 80
2, 89858, Note_on_c, 0, 69, 0
2, 89860, Note_on_c, 0, 81, 0
2, 89872, Note_on_c, 0, 81, 89
2, 89873, Note_on_c, 0, 59, 57
2, 89877, Note_on_c, 0, 62, 50
2, 89888, Note_on_c, 0, 81, 0
2, 89906, Note_on_c, 0, 81, 85
2, 89911, Note_on_c, 0, 59, 0
2, 89913, Note_on_c, 0, 62, 0
2, 89932, Note_on_c, 0, 81, 0
2, 89942, Note_on_c, 0, 53, 56
2, 89946, Note_on_c, 0, 93, 75
2, 89963, Note_on_c, 0, 93, 0
2, 89976, Note_on_c, 0, 81, 80
2, 90002, Note_on_c, 0, 81, 0
2, 90016, Note_on_c, 0, 68, 65
2, 90025, Note_on_c, 0, 80, 64
2, 90030, Control_c, 0, 64, 88
2, 90035, Control_c, 0, 64, 40
2, 90045, Note_on_c, 0, 80, 0
2, 90048, Control_c, 0, 64, 127
2, 90062, Note_on_c, 0, 80, 73
2, 90097, Note_on_c, 0, 80, 0
2, 90104, Note_on_c, 0, 68, 0
2, 90108, Note_on_c, 0, 53, 0
2, 90108, Note_on_c, 0, 62, 53
2, 90112, Note_on_c, 0, 92, 62
2, 90134, Note_on_c, 0, 62, 0
2, 90138, Note_on_c, 0, 92, 0
2, 90160, Note_on_c, 0, 80, 57
2, 90190, Note_on_c, 0, 80, 0
2, 90210, Control_c, 0, 64, 88
2, 90215, Control_c, 0, 64, 0
2, 90216, Note_on_c, 0, 42, 53
2, 90231, Control_c, 0, 64, 72
2, 90236, Control_c, 0, 64, 127
2, 90243, Note_on_c, 0, 42, 0
2, 90258, Note_on_c, 0, 80, 70
2, 90276, Note_on_c, 0, 80, 0
2, 90292, Note_on_c, 0, 80, 75
2, 90296, Note_on_c, 0, 68, 52
2, 90325, Note_on_c, 0, 92, 74
2, 90328, Note_on_c, 0, 80, 0
2, 90360, Note_on_c, 0, 92, 0
2, 90362, Note_on_c, 0, 90, 71
2, 90363, Note_on_c, 0, 62, 56
2, 90385, Note_on_c, 0, 90, 0
2, 90392, Note_on_c, 0, 78, 77
2, 90404, Note_on_c, 0, 68, 0
2, 90423, Note_on_c, 0, 57, 64
2, 90427, Note_on_c, 0, 78, 0
2, 90435, Note_on_c, 0, 62, 0
2, 90453, Note_on_c, 0, 78, 83
2, 90469, Note_on_c, 0, 78, 0
2, 90486, Note_on_c, 0, 66, 65
2, 90486, Note_on_c, 0, 78, 83
2, 90512, Note_on_c, 0, 78, 0
2, 90516, Note_on_c, 0, 90, 82
2, 90548, Note_on_c, 0, 90, 0
2, 90548, Note_on_c, 0, 88, 78
2, 90552, Note_on_c, 0, 62, 65
2, 90555, Note_on_c, 0, 57, 0
2, 90573, Note_on_c, 0, 88, 0
2, 90576, Note_on_c, 0, 66, 0
2, 90577, Note_on_c, 0, 78, 77
2, 90592, Note_on_c, 0, 78, 0
2, 90594, Note_on_c, 0, 62, 0
2, 90607, Note_on_c, 0, 54, 66
2, 90615, Control_c, 0, 64, 88
2, 90620, Control_c, 0, 64, 24
2, 90623, Control_c, 0, 64, 0
2, 90637, Control_c, 0, 64, 56
2, 90638, Note_on_c, 0, 76, 81
2, 90641, Control_c, 0, 64, 127
2, 90653, Note_on_c, 0, 76, 0
2, 90671, Note_on_c, 0, 76, 87
2, 90675, Note_on_c, 0, 64, 61
2, 90702, Note_on_c, 0, 76, 0
2, 90705, Note_on_c, 0, 88, 86
2, 90730, Note_on_c, 0, 88, 0
2, 90730, Note_on_c, 0, 54, 0
2, 90735, Note_on_c, 0, 86, 76
2, 90741, Note_on_c, 0, 57, 43
2, 90757, Note_on_c, 0, 86, 0
2, 90763, Note_on_c, 0, 74, 78
2, 90782, Note_on_c, 0, 64, 0
2, 90786, Note_on_c, 0, 74, 0
2, 90795, Note_on_c, 0, 54, 70
2, 90797, Control_c, 0, 64, 104
2, 90802, Note_on_c, 0, 57, 0
2, 90802, Control_c, 0, 64, 40
2, 90806, Control_c, 0, 64, 0
2, 90811, Control_c, 0, 64, 40
2, 90816, Control_c, 0, 64, 88
2, 90820, Control_c, 0, 64, 127
2, 90822, Note_on_c, 0, 74, 84
2, 90835, Note_on_c, 0, 74, 0
2, 90853, Note_on_c, 0, 74, 87
2, 90856, Note_on_c, 0, 62, 54
2, 90883, Note_on_c, 0, 74, 0
2, 90885, Note_on_c, 0, 86, 85
2, 90911, Note_on_c, 0, 86, 0
2, 90915, Note_on_c, 0, 57, 51
2, 90918, Note_on_c, 0, 62, 0
2, 90920, Note_on_c, 0, 85, 74
2, 90928, Note_on_c, 0, 57, 0
2, 90931, Note_on_c, 0, 54, 0
2, 90943, Note_on_c, 0, 85, 0
2, 90955, Note_on_c, 0, 73, 71
2, 90978, Note_on_c, 0, 73, 0
2, 91007, Control_c, 0, 64, 40
2, 91008, Note_on_c, 0, 41, 67
2, 91011, Control_c, 0, 64, 0
2, 91030, Control_c, 0, 64, 40
2, 91033, Control_c, 0, 64, 104
2, 91037, Control_c, 0, 64, 127
2, 91048, Note_on_c, 0, 41, 0
2, 91060, Note_on_c, 0, 73, 77
2, 91071, Note_on_c, 0, 51, 65
2, 91080, Note_on_c, 0, 73, 0
2, 91092, Note_on_c, 0, 73, 87
2, 91117, Note_on_c, 0, 51, 0
2, 91122, Note_on_c, 0, 73, 0
2, 91125, Note_on_c, 0, 57, 58
2, 91127, Note_on_c, 0, 85, 81
2, 91152, Note_on_c, 0, 85, 0
2, 91156, Note_on_c, 0, 73, 78
2, 91158, Note_on_c, 0, 57, 0
2, 91173, Note_on_c, 0, 73, 0
2, 91180, Note_on_c, 0, 63, 63
2, 91186, Note_on_c, 0, 71, 87
2, 91201, Note_on_c, 0, 71, 0
2, 91215, Note_on_c, 0, 71, 87
2, 91240, Note_on_c, 0, 63, 0
2, 91242, Note_on_c, 0, 71, 0
2, 91242, Note_on_c, 0, 66, 53
2, 91250, Note_on_c, 0, 83, 84
2, 91268, Note_on_c, 0, 83, 0
2, 91275, Note_on_c, 0, 71, 81
2, 91301, Note_on_c, 0, 71, 0
2, 91302, Note_on_c, 0, 63, 44
2, 91303, Note_on_c, 0, 66, 0
2, 91306, Note_on_c, 0, 72, 84
2, 91318, Note_on_c, 0, 63, 0
2, 91321, Note_on_c, 0, 72, 0
2, 91338, Note_on_c, 0, 72, 89
2, 91361, Note_on_c, 0, 72, 0
2, 91368, Note_on_c, 0, 84, 82
2, 91386, Note_on_c, 0, 84, 0
2, 91397, Note_on_c, 0, 72, 82
2, 91418, Note_on_c, 0, 72, 0
2, 91426, Note_on_c, 0, 75, 81
2, 91447, Note_on_c, 0, 75, 0
2, 91458, Note_on_c, 0, 75, 95
2, 91483, Note_on_c, 0, 75, 0
2, 91495, Note_on_c, 0, 87, 79
2, 91512, Note_on_c, 0, 87, 0
2, 91517, Note_on_c, 0, 75, 72
2, 91539, Note_on_c, 0, 75, 0
2, 91553, Note_on_c, 0, 76, 74
2, 91563, Note_on_c, 0, 76, 0
2, 91583, Note_on_c, 0, 76, 79
2, 91608, Note_on_c, 0, 76, 0
2, 91617, Note_on_c, 0, 88, 77
2, 91639, Note_on_c, 0, 88, 0
2, 91648, Note_on_c, 0, 76, 69
2, 91673, Note_on_c, 0, 76, 0
2, 91678, Note_on_c, 0, 77, 72
2, 91693, Note_on_c, 0, 77, 0
2, 91717, Note_on_c, 0, 77, 74
2, 91742, Note_on_c, 0, 77, 0
2, 91757, Note_on_c, 0, 89, 54
2, 91770, Note_on_c, 0, 89, 0
2, 91785, Note_on_c, 0, 77, 68
2, 91822, Control_c, 0, 64, 72
2, 91826, Note_on_c, 0, 77, 0
2, 91826, Control_c, 0, 64, 0
2, 91827, Note_on_c, 0, 42, 48
2, 91843, Control_c, 0, 64, 56
2, 91848, Control_c, 0, 64, 127
2, 91857, Note_on_c, 0, 42, 0
2, 91872, Note_on_c, 0, 80, 70
2, 91892, Note_on_c, 0, 80, 0
2, 91917, Note_on_c, 0, 80, 75
2, 91917, Note_on_c, 0, 68, 81
2, 91952, Note_on_c, 0, 80, 0
2, 91956, Note_on_c, 0, 92, 72
2, 91987, Note_on_c, 0, 92, 0
2, 91996, Note_on_c, 0, 62, 57
2, 91997, Note_on_c, 0, 90, 58
2, 92017, Note_on_c, 0, 90, 0
2, 92026, Note_on_c, 0, 78, 77
2, 92037, Note_on_c, 0, 68, 0
2, 92049, Note_on_c, 0, 62, 0
2, 92057, Note_on_c, 0, 78, 0
2, 92063, Note_on_c, 0, 57, 50
2, 92092, Note_on_c, 0, 78, 70
2, 92108, Note_on_c, 0, 78, 0
2, 92121, Note_on_c, 0, 66, 82
2, 92125, Note_on_c, 0, 78, 75
2, 92156, Note_on_c, 0, 78, 0
2, 92161, Note_on_c, 0, 90, 72
2, 92185, Note_on_c, 0, 57, 0
2, 92187, Note_on_c, 0, 62, 57
2, 92192, Note_on_c, 0, 90, 0
2, 92195, Note_on_c, 0, 88, 64
2, 92213, Note_on_c, 0, 88, 0
2, 92218, Note_on_c, 0, 78, 71
2, 92219, Note_on_c, 0, 66, 0
2, 92233, Note_on_c, 0, 78, 0
2, 92237, Note_on_c, 0, 62, 0
2, 92250, Note_on_c, 0, 54, 67
2, 92253, Control_c, 0, 64, 104
2, 92257, Control_c, 0, 64, 40
2, 92262, Control_c, 0, 64, 0
2, 92271, Control_c, 0, 64, 56
2, 92276, Note_on_c, 0, 76, 81
2, 92276, Control_c, 0, 64, 127
2, 92292, Note_on_c, 0, 76, 0
2, 92307, Note_on_c, 0, 76, 88
2, 92312, Note_on_c, 0, 64, 73
2, 92341, Note_on_c, 0, 88, 76
2, 92345, Note_on_c, 0, 76, 0
2, 92364, Note_on_c, 0, 88, 0
2, 92370, Note_on_c, 0, 54, 0
2, 92372, Note_on_c, 0, 86, 70
2, 92381, Note_on_c, 0, 57, 47
2, 92393, Note_on_c, 0, 86, 0
2, 92402, Note_on_c, 0, 74, 72
2, 92410, Note_on_c, 0, 64, 0
2, 92425, Note_on_c, 0, 74, 0
2, 92438, Note_on_c, 0, 54, 58
2, 92443, Note_on_c, 0, 57, 0
2, 92445, Control_c, 0, 64, 104
2, 92450, Control_c, 0, 64, 40
2, 92453, Control_c, 0, 64, 24
2, 92458, Control_c, 0, 64, 40
2, 92462, Control_c, 0, 64, 104
2, 92466, Control_c, 0, 64, 127
2, 92468, Note_on_c, 0, 74, 78
2, 92483, Note_on_c, 0, 74, 0
2, 92495, Note_on_c, 0, 62, 65
2, 92503, Note_on_c, 0, 74, 73
2, 92535, Note_on_c, 0, 74, 0
2, 92535, Note_on_c, 0, 86, 72
2, 92560, Note_on_c, 0, 86, 0
2, 92567, Note_on_c, 0, 57, 53
2, 92570, Note_on_c, 0, 85, 68
2, 92576, Note_on_c, 0, 62, 0
2, 92587, Note_on_c, 0, 57, 0
2, 92589, Note_on_c, 0, 54, 0
2, 92593, Note_on_c, 0, 85, 0
2, 92606, Note_on_c, 0, 73, 67
2, 92654, Note_on_c, 0, 73, 0
2, 92662, Control_c, 0, 64, 56
2, 92667, Control_c, 0, 64, 0
2, 92668, Note_on_c, 0, 41, 66
2, 92681, Control_c, 0, 64, 40
2, 92685, Control_c, 0, 64, 104
2, 92690, Control_c, 0, 64, 127
2, 92705, Note_on_c, 0, 41, 0
2, 92725, Note_on_c, 0, 73, 75
2, 92731, Note_on_c, 0, 51, 67
2, 92742, Note_on_c, 0, 73, 0
2, 92755, Note_on_c, 0, 73, 88
2, 92781, Note_on_c, 0, 51, 0
2, 92782, Note_on_c, 0, 73, 0
2, 92787, Note_on_c, 0, 85, 79
2, 92788, Note_on_c, 0, 57, 54
2, 92810, Note_on_c, 0, 85, 0
2, 92817, Note_on_c, 0, 73, 71
2, 92819, Note_on_c, 0, 57, 0
2, 92833, Note_on_c, 0, 73, 0
2, 92845, Note_on_c, 0, 63, 66
2, 92851, Note_on_c, 0, 71, 85
2, 92867, Note_on_c, 0, 71, 0
2, 92881, Note_on_c, 0, 71, 89
2, 92898, Note_on_c, 0, 63, 0
2, 92905, Note_on_c, 0, 66, 52
2, 92906, Note_on_c, 0, 71, 0
2, 92913, Note_on_c, 0, 83, 80
2, 92933, Note_on_c, 0, 83, 0
2, 92941, Note_on_c, 0, 71, 83
2, 92962, Note_on_c, 0, 63, 47
2, 92966, Note_on_c, 0, 71, 0
2, 92971, Note_on_c, 0, 66, 0
2, 92972, Note_on_c, 0, 72, 81
2, 92983, Note_on_c, 0, 63, 0
2, 92989, Note_on_c, 0, 72, 0
2, 93003, Note_on_c, 0, 72, 92
2, 93030, Note_on_c, 0, 72, 0
2, 93037, Note_on_c, 0, 84, 78
2, 93057, Note_on_c, 0, 84, 0
2, 93063, Note_on_c, 0, 72, 80
2, 93089, Note_on_c, 0, 72, 0
2, 93093, Note_on_c, 0, 75, 83
2, 93113, Note_on_c, 0, 75, 0
2, 93128, Note_on_c, 0, 75, 77
2, 93155, Note_on_c, 0, 75, 0
2, 93163, Note_on_c, 0, 87, 73
2, 93188, Note_on_c, 0, 87, 0
2, 93192, Note_on_c, 0, 75, 69
2, 93214, Note_on_c, 0, 75, 0
2, 93223, Note_on_c, 0, 76, 72
2, 93241, Note_on_c, 0, 76, 0
2, 93256, Note_on_c, 0, 76, 75
2, 93287, Note_on_c, 0, 76, 0
2, 93293, Note_on_c, 0, 88, 66
2, 93311, Note_on_c, 0, 88, 0
2, 93328, Note_on_c, 0, 76, 67
2, 93354, Note_on_c, 0, 76, 0
2, 93360, Note_on_c, 0, 77, 72
2, 93377, Note_on_c, 0, 77, 0
2, 93401, Note_on_c, 0, 77, 65
2, 93427, Note_on_c, 0, 77, 0
2, 93443, Note_on_c, 0, 89, 65
2, 93469, Note_on_c, 0, 89, 0
2, 93487, Note_on_c, 0, 77, 57
2, 93504, Note_on_c, 0, 77, 0
2, 93538, Note_on_c, 0, 42, 37
2, 93552, Control_c, 0, 64, 56
2, 93556, Control_c, 0, 64, 0
2, 93582, Control_c, 0, 64, 88
2, 93587, Control_c, 0, 64, 127
2, 93620, Note_on_c, 0, 42, 0
2, 93626, Note_on_c, 0, 77, 69
2, 93633, Note_on_c, 0, 50, 51
2, 93646, Note_on_c, 0, 77, 0
2, 93668, Note_on_c, 0, 77, 69
2, 93706, Note_on_c, 0, 77, 0
2, 93711, Note_on_c, 0, 50, 0
2, 93716, Note_on_c, 0, 89, 69
2, 93721, Note_on_c, 0, 57, 47
2, 93733, Note_on_c, 0, 57, 0
2, 93739, Note_on_c, 0, 89, 0
2, 93752, Note_on_c, 0, 77, 70
2, 93777, Note_on_c, 0, 77, 0
2, 93787, Note_on_c, 0, 78, 74
2, 93793, Note_on_c, 0, 62, 53
2, 93807, Note_on_c, 0, 78, 0
2, 93821, Note_on_c, 0, 78, 87
2, 93846, Note_on_c, 0, 78, 0
2, 93851, Note_on_c, 0, 62, 0
2, 93852, Note_on_c, 0, 90, 72
2, 93867, Note_on_c, 0, 69, 57
2, 93878, Note_on_c, 0, 90, 0
2, 93881, Note_on_c, 0, 78, 75
2, 93908, Note_on_c, 0, 78, 0
2, 93910, Note_on_c, 0, 69, 0
2, 93911, Note_on_c, 0, 80, 81
2, 93920, Note_on_c, 0, 74, 64
2, 93928, Note_on_c, 0, 80, 0
2, 93940, Note_on_c, 0, 80, 88
2, 93965, Note_on_c, 0, 74, 0
2, 93966, Note_on_c, 0, 80, 0
2, 93968, Note_on_c, 0, 92, 84
2, 93973, Note_on_c, 0, 69, 55
2, 93996, Note_on_c, 0, 92, 0
2, 94000, Note_on_c, 0, 80, 77
2, 94021, Note_on_c, 0, 80, 0
2, 94032, Note_on_c, 0, 83, 80
2, 94037, Note_on_c, 0, 62, 68
2, 94039, Note_on_c, 0, 69, 0
2, 94054, Note_on_c, 0, 62, 0
2, 94054, Note_on_c, 0, 83, 0
2, 94063, Note_on_c, 0, 83, 77
2, 94088, Note_on_c, 0, 83, 0
2, 94097, Note_on_c, 0, 95, 85
2, 94107, Note_on_c, 0, 57, 62
2, 94114, Note_on_c, 0, 95, 0
2, 94125, Note_on_c, 0, 83, 75
2, 94143, Note_on_c, 0, 57, 0
2, 94150, Note_on_c, 0, 83, 0
2, 94152, Note_on_c, 0, 81, 78
2, 94166, Note_on_c, 0, 50, 56
2, 94168, Note_on_c, 0, 81, 0
2, 94183, Note_on_c, 0, 81, 90
2, 94210, Note_on_c, 0, 81, 0
2, 94211, Note_on_c, 0, 50, 0
2, 94217, Note_on_c, 0, 93, 88
2, 94225, Note_on_c, 0, 42, 53
2, 94235, Note_on_c, 0, 93, 0
2, 94241, Note_on_c, 0, 81, 82
2, 94265, Note_on_c, 0, 42, 0
2, 94269, Note_on_c, 0, 81, 0
2, 94275, Note_on_c, 0, 80, 86
2, 94281, Note_on_c, 0, 50, 65
2, 94295, Note_on_c, 0, 80, 0
2, 94303, Note_on_c, 0, 80, 87
2, 94324, Note_on_c, 0, 50, 0
2, 94328, Note_on_c, 0, 80, 0
2, 94333, Note_on_c, 0, 92, 84
2, 94340, Note_on_c, 0, 57, 56
2, 94353, Note_on_c, 0, 92, 0
2, 94357, Note_on_c, 0, 80, 77
2, 94373, Note_on_c, 0, 57, 0
2, 94378, Note_on_c, 0, 80, 0
2, 94390, Note_on_c, 0, 78, 83
2, 94393, Control_c, 0, 64, 104
2, 94397, Control_c, 0, 64, 24
2, 94401, Note_on_c, 0, 45, 63
2, 94402, Control_c, 0, 64, 0
2, 94408, Note_on_c, 0, 78, 0
2, 94415, Control_c, 0, 64, 40
2, 94418, Control_c, 0, 64, 104
2, 94423, Note_on_c, 0, 78, 90
2, 94423, Control_c, 0, 64, 127
2, 94437, Note_on_c, 0, 45, 0
2, 94445, Note_on_c, 0, 78, 0
2, 94457, Note_on_c, 0, 90, 83
2, 94461, Note_on_c, 0, 54, 50
2, 94479, Note_on_c, 0, 90, 0
2, 94482, Note_on_c, 0, 78, 89
2, 94502, Note_on_c, 0, 54, 0
2, 94504, Note_on_c, 0, 78, 0
2, 94513, Note_on_c, 0, 62, 69
2, 94516, Note_on_c, 0, 78, 84
2, 94531, Note_on_c, 0, 62, 0
2, 94536, Note_on_c, 0, 78, 0
2, 94546, Note_on_c, 0, 78, 95
2, 94572, Note_on_c, 0, 78, 0
2, 94578, Note_on_c, 0, 90, 81
2, 94581, Note_on_c, 0, 46, 61
2, 94585, Control_c, 0, 64, 72
2, 94590, Control_c, 0, 64, 0
2, 94600, Note_on_c, 0, 90, 0
2, 94606, Control_c, 0, 64, 72
2, 94607, Note_on_c, 0, 78, 81
2, 94611, Control_c, 0, 64, 127
2, 94617, Note_on_c, 0, 46, 0
2, 94632, Note_on_c, 0, 78, 0
2, 94638, Note_on_c, 0, 56, 53
2, 94638, Note_on_c, 0, 78, 48
2, 94659, Note_on_c, 0, 78, 0
2, 94671, Note_on_c, 0, 78, 92
2, 94686, Note_on_c, 0, 56, 0
2, 94694, Note_on_c, 0, 78, 0
2, 94695, Note_on_c, 0, 62, 53
2, 94701, Note_on_c, 0, 90, 75
2, 94723, Note_on_c, 0, 90, 0
2, 94727, Note_on_c, 0, 78, 75
2, 94743, Note_on_c, 0, 62, 0
2, 94752, Note_on_c, 0, 78, 0
2, 94761, Note_on_c, 0, 78, 59
2, 94766, Note_on_c, 0, 66, 47
2, 94778, Note_on_c, 0, 78, 0
2, 94791, Note_on_c, 0, 78, 86
2, 94814, Note_on_c, 0, 78, 0
2, 94821, Note_on_c, 0, 66, 0
2, 94825, Note_on_c, 0, 65, 72
2, 94830, Note_on_c, 0, 89, 85
2, 94833, Note_on_c, 0, 65, 0
2, 94856, Note_on_c, 0, 89, 0
2, 94860, Note_on_c, 0, 77, 84
2, 94867, Note_on_c, 0, 89, 29
2, 94868, Control_c, 0, 64, 88
2, 94872, Control_c, 0, 64, 0
2, 94880, Note_on_c, 0, 56, 56
2, 94887, Note_on_c, 0, 77, 0
2, 94890, Control_c, 0, 64, 72
2, 94893, Control_c, 0, 64, 127
2, 94897, Note_on_c, 0, 65, 64
2, 94900, Note_on_c, 0, 56, 0
2, 94900, Note_on_c, 0, 62, 53
2, 94903, Note_on_c, 0, 89, 0
2, 94920, Note_on_c, 0, 71, 71
2, 94920, Note_on_c, 0, 83, 74
2, 94922, Note_on_c, 0, 62, 0
2, 94935, Note_on_c, 0, 83, 0
2, 94956, Note_on_c, 0, 83, 80
2, 94985, Note_on_c, 0, 62, 47
2, 94991, Note_on_c, 0, 83, 0
2, 94995, Note_on_c, 0, 95, 48
2, 95011, Note_on_c, 0, 71, 0
2, 95015, Note_on_c, 0, 95, 0
2, 95025, Note_on_c, 0, 83, 69
2, 95057, Note_on_c, 0, 83, 0
2, 95062, Note_on_c, 0, 70, 43
2, 95067, Note_on_c, 0, 94, 67
2, 95075, Note_on_c, 0, 65, 0
2, 95079, Note_on_c, 0, 70, 0
2, 95086, Note_on_c, 0, 62, 0
2, 95093, Note_on_c, 0, 94, 0
2, 95102, Note_on_c, 0, 82, 65
2, 95123, Note_on_c, 0, 82, 0
2, 95173, Note_on_c, 0, 44, 47
2, 95173, Control_c, 0, 64, 104
2, 95177, Control_c, 0, 64, 24
2, 95182, Control_c, 0, 64, 0
2, 95203, Control_c, 0, 64, 104
2, 95208, Control_c, 0, 64, 127
2, 95231, Note_on_c, 0, 79, 77
2, 95244, Note_on_c, 0, 44, 0
2, 95249, Note_on_c, 0, 79, 0
2, 95251, Note_on_c, 0, 52, 51
2, 95266, Note_on_c, 0, 79, 84
2, 95294, Note_on_c, 0, 79, 0
2, 95307, Note_on_c, 0, 91, 69
2, 95309, Note_on_c, 0, 52, 0
2, 95310, Note_on_c, 0, 59, 51
2, 95317, Note_on_c, 0, 91, 0
2, 95323, Note_on_c, 0, 59, 0
2, 95332, Note_on_c, 0, 79, 74
2, 95358, Note_on_c, 0, 79, 0
2, 95367, Note_on_c, 0, 80, 80
2, 95387, Note_on_c, 0, 80, 0
2, 95398, Note_on_c, 0, 80, 94
2, 95421, Note_on_c, 0, 80, 0
2, 95427, Note_on_c, 0, 92, 87
2, 95427, Note_on_c, 0, 71, 64
2, 95449, Note_on_c, 0, 92, 0
2, 95453, Note_on_c, 0, 80, 83
2, 95474, Note_on_c, 0, 71, 0
2, 95476, Note_on_c, 0, 80, 0
2, 95480, Note_on_c, 0, 76, 69
2, 95482, Note_on_c, 0, 82, 84
2, 95502, Note_on_c, 0, 82, 0
2, 95512, Note_on_c, 0, 82, 95
2, 95531, Note_on_c, 0, 76, 0
2, 95531, Note_on_c, 0, 71, 61
2, 95538, Note_on_c, 0, 82, 0
2, 95542, Note_on_c, 0, 94, 85
2, 95569, Note_on_c, 0, 94, 0
2, 95570, Note_on_c, 0, 82, 81
2, 95597, Note_on_c, 0, 82, 0
2, 95597, Note_on_c, 0, 71, 0
2, 95598, Note_on_c, 0, 64, 62
2, 95601, Note_on_c, 0, 85, 84
2, 95611, Note_on_c, 0, 64, 0
2, 95621, Note_on_c, 0, 85, 0
2, 95630, Note_on_c, 0, 85, 101
2, 95653, Note_on_c, 0, 85, 0
2, 95661, Note_on_c, 0, 97, 91
2, 95670, Note_on_c, 0, 59, 64
2, 95683, Note_on_c, 0, 85, 79
2, 95684, Note_on_c, 0, 97, 0
2, 95699, Note_on_c, 0, 85, 0
2, 95712, Note_on_c, 0, 59, 0
2, 95716, Note_on_c, 0, 83, 92
2, 95720, Note_on_c, 0, 52, 73
2, 95733, Note_on_c, 0, 83, 0
2, 95746, Note_on_c, 0, 83, 96
2, 95773, Note_on_c, 0, 83, 0
2, 95775, Note_on_c, 0, 52, 0
2, 95782, Note_on_c, 0, 95, 93
2, 95783, Note_on_c, 0, 44, 59
2, 95798, Note_on_c, 0, 95, 0
2, 95802, Note_on_c, 0, 83, 84
2, 95829, Note_on_c, 0, 83, 0
2, 95831, Note_on_c, 0, 44, 0
2, 95838, Note_on_c, 0, 52, 70
2, 95838, Note_on_c, 0, 83, 40
2, 95851, Note_on_c, 0, 83, 0
2, 95863, Note_on_c, 0, 82, 79
2, 95876, Note_on_c, 0, 52, 0
2, 95885, Note_on_c, 0, 82, 0
2, 95886, Note_on_c, 0, 59, 65
2, 95892, Note_on_c, 0, 94, 81
2, 95910, Note_on_c, 0, 94, 0
2, 95916, Note_on_c, 0, 82, 77
2, 95933, Note_on_c, 0, 59, 0
2, 95948, Note_on_c, 0, 80, 81
2, 95948, Control_c, 0, 64, 40
2, 95951, Note_on_c, 0, 82, 0
2, 95952, Note_on_c, 0, 47, 61
2, 95953, Control_c, 0, 64, 0
2, 95965, Note_on_c, 0, 80, 0
2, 95966, Control_c, 0, 64, 40
2, 95970, Control_c, 0, 64, 127
2, 95976, Note_on_c, 0, 80, 96
2, 95978, Note_on_c, 0, 47, 0
2, 96001, Note_on_c, 0, 80, 0
2, 96003, Note_on_c, 0, 56, 60
2, 96010, Note_on_c, 0, 92, 90
2, 96028, Note_on_c, 0, 92, 0
2, 96035, Note_on_c, 0, 80, 87
2, 96045, Note_on_c, 0, 56, 0
2, 96053, Note_on_c, 0, 80, 0
2, 96055, Note_on_c, 0, 64, 63
2, 96066, Note_on_c, 0, 80, 85
2, 96071, Note_on_c, 0, 64, 0
2, 96079, Note_on_c, 0, 80, 0
2, 96093, Note_on_c, 0, 80, 95
2, 96116, Note_on_c, 0, 80, 0
2, 96118, Control_c, 0, 64, 56
2, 96122, Control_c, 0, 64, 0
2, 96125, Note_on_c, 0, 48, 73
2, 96126, Note_on_c, 0, 92, 89
2, 96136, Control_c, 0, 64, 56
2, 96141, Control_c, 0, 64, 127
2, 96143, Note_on_c, 0, 92, 0
2, 96152, Note_on_c, 0, 80, 81
2, 96153, Note_on_c, 0, 48, 0
2, 96172, Note_on_c, 0, 80, 0
2, 96183, Note_on_c, 0, 58, 42
2, 96186, Note_on_c, 0, 80, 77
2, 96202, Note_on_c, 0, 80, 0
2, 96215, Note_on_c, 0, 80, 90
2, 96242, Note_on_c, 0, 80, 0
2, 96243, Note_on_c, 0, 58, 0
2, 96245, Note_on_c, 0, 64, 60
2, 96247, Note_on_c, 0, 92, 81
2, 96269, Note_on_c, 0, 92, 0
2, 96272, Note_on_c, 0, 80, 79
2, 96285, Note_on_c, 0, 64, 0
2, 96298, Note_on_c, 0, 80, 0
2, 96306, Note_on_c, 0, 68, 72
2, 96308, Note_on_c, 0, 80, 68
2, 96326, Note_on_c, 0, 80, 0
2, 96337, Note_on_c, 0, 80, 87
2, 96342, Note_on_c, 0, 68, 0
2, 96355, Note_on_c, 0, 80, 0
2, 96373, Note_on_c, 0, 67, 68
2, 96380, Note_on_c, 0, 91, 78
2, 96410, Note_on_c, 0, 67, 0
2, 96410, Note_on_c, 0, 79, 74
2, 96411, Control_c, 0, 64, 40
2, 96416, Control_c, 0, 64, 0
2, 96417, Note_on_c, 0, 58, 58
2, 96423, Control_c, 0, 64, 40
2, 96427, Control_c, 0, 64, 104
2, 96430, Note_on_c, 0, 79, 0
2, 96430, Note_on_c, 0, 64, 48
2, 96432, Control_c, 0, 64, 127
2, 96439, Note_on_c, 0, 58, 0
2, 96441, Note_on_c, 0, 67, 47
2, 96446, Note_on_c, 0, 91, 0
2, 96465, Note_on_c, 0, 73, 67
2, 96467, Note_on_c, 0, 85, 81
2, 96468, Note_on_c, 0, 64, 0
2, 96484, Note_on_c, 0, 67, 0
2, 96487, Note_on_c, 0, 85, 0
2, 96500, Note_on_c, 0, 85, 87
2, 96530, Note_on_c, 0, 85, 0
2, 96535, Note_on_c, 0, 97, 81
2, 96568, Note_on_c, 0, 97, 0
2, 96568, Note_on_c, 0, 85, 65
2, 96588, Note_on_c, 0, 85, 0
2, 96607, Note_on_c, 0, 73, 0
2, 96617, Note_on_c, 0, 72, 74
2, 96622, Note_on_c, 0, 96, 67
2, 96625, Note_on_c, 0, 72, 0
2, 96647, Note_on_c, 0, 96, 0
2, 96658, Note_on_c, 0, 84, 69
2, 96674, Note_on_c, 0, 84, 0
2, 96722, Note_on_c, 0, 46, 54
2, 96725, Control_c, 0, 64, 88
2, 96730, Control_c, 0, 64, 0
2, 96746, Control_c, 0, 64, 40
2, 96751, Control_c, 0, 64, 127
2, 96778, Note_on_c, 0, 81, 73
2, 96780, Note_on_c, 0, 46, 0
2, 96785, Note_on_c, 0, 54, 50
2, 96795, Note_on_c, 0, 81, 0
2, 96811, Note_on_c, 0, 81, 84
2, 96836, Note_on_c, 0, 81, 0
2, 96845, Note_on_c, 0, 93, 80
2, 96852, Note_on_c, 0, 61, 55
2, 96858, Note_on_c, 0, 54, 0
2, 96865, Note_on_c, 0, 93, 0
2, 96869, Note_on_c, 0, 61, 0
2, 96875, Note_on_c, 0, 81, 78
2, 96903, Note_on_c, 0, 81, 0
2, 96911, Note_on_c, 0, 82, 83
2, 96912, Note_on_c, 0, 66, 67
2, 96931, Note_on_c, 0, 82, 0
2, 96942, Note_on_c, 0, 82, 92
2, 96959, Note_on_c, 0, 66, 0
2, 96964, Note_on_c, 0, 82, 0
2, 96972, Note_on_c, 0, 94, 83
2, 96976, Note_on_c, 0, 73, 59
2, 96993, Note_on_c, 0, 94, 0
2, 96997, Note_on_c, 0, 82, 80
2, 97013, Note_on_c, 0, 82, 0
2, 97014, Note_on_c, 0, 73, 0
2, 97026, Note_on_c, 0, 78, 68
2, 97027, Note_on_c, 0, 84, 90
2, 97045, Note_on_c, 0, 84, 0
2, 97057, Note_on_c, 0, 84, 98
2, 97078, Note_on_c, 0, 84, 0
2, 97084, Note_on_c, 0, 78, 0
2, 97085, Note_on_c, 0, 73, 50
2, 97087, Note_on_c, 0, 96, 84
2, 97108, Note_on_c, 0, 96, 0
2, 97117, Note_on_c, 0, 84, 79
2, 97142, Note_on_c, 0, 84, 0
2, 97147, Note_on_c, 0, 87, 81
2, 97150, Note_on_c, 0, 73, 0
2, 97153, Note_on_c, 0, 66, 41
2, 97164, Note_on_c, 0, 66, 0
2, 97169, Note_on_c, 0, 87, 0
2, 97180, Note_on_c, 0, 87, 99
2, 97202, Note_on_c, 0, 87, 0
2, 97206, Note_on_c, 0, 99, 86
2, 97211, Note_on_c, 0, 61, 56
2, 97224, Note_on_c, 0, 99, 0
2, 97227, Note_on_c, 0, 87, 82
2, 97253, Note_on_c, 0, 87, 0
2, 97258, Note_on_c, 0, 85, 81
2, 97264, Note_on_c, 0, 61, 0
2, 97265, Note_on_c, 0, 54, 60
2, 97278, Note_on_c, 0, 85, 0
2, 97290, Note_on_c, 0, 85, 91
2, 97300, Note_on_c, 0, 54, 0
2, 97317, Note_on_c, 0, 85, 0
2, 97323, Note_on_c, 0, 97, 78
2, 97327, Note_on_c, 0, 46, 52
2, 97343, Note_on_c, 0, 97, 0
2, 97347, Note_on_c, 0, 85, 81
2, 97367, Note_on_c, 0, 85, 0
2, 97381, Note_on_c, 0, 84, 82
2, 97382, Note_on_c, 0, 54, 58
2, 97385, Note_on_c, 0, 46, 0
2, 97391, Note_on_c, 0, 84, 0
2, 97407, Note_on_c, 0, 84, 84
2, 97430, Note_on_c, 0, 84, 0
2, 97432, Note_on_c, 0, 54, 0
2, 97437, Note_on_c, 0, 61, 57
2, 97440, Note_on_c, 0, 96, 80
2, 97458, Note_on_c, 0, 96, 0
2, 97463, Note_on_c, 0, 84, 80
2, 97478, Note_on_c, 0, 61, 0
2, 97480, Note_on_c, 0, 84, 0
2, 97491, Note_on_c, 0, 66, 70
2, 97493, Note_on_c, 0, 81, 87
2, 97508, Note_on_c, 0, 66, 0
2, 97510, Note_on_c, 0, 81, 0
2, 97525, Note_on_c, 0, 81, 86
2, 97548, Note_on_c, 0, 81, 0
2, 97558, Note_on_c, 0, 93, 73
2, 97566, Note_on_c, 0, 93, 0
2, 97581, Note_on_c, 0, 81, 79
2, 97603, Note_on_c, 0, 81, 0
2, 97611, Note_on_c, 0, 82, 75
2, 97629, Note_on_c, 0, 82, 0
2, 97640, Note_on_c, 0, 82, 81
2, 97663, Note_on_c, 0, 82, 0
2, 97671, Note_on_c, 0, 94, 75
2, 97689, Note_on_c, 0, 94, 0
2, 97696, Note_on_c, 0, 82, 70
2, 97718, Note_on_c, 0, 82, 0
2, 97726, Note_on_c, 0, 84, 84
2, 97741, Note_on_c, 0, 84, 0
2, 97757, Note_on_c, 0, 84, 85
2, 97777, Note_on_c, 0, 84, 0
2, 97790, Note_on_c, 0, 96, 71
2, 97812, Note_on_c, 0, 96, 0
2, 97821, Note_on_c, 0, 84, 72
2, 97846, Note_on_c, 0, 84, 0
2, 97852, Note_on_c, 0, 85, 73
2, 97870, Note_on_c, 0, 85, 0
2, 97883, Note_on_c, 0, 85, 72
2, 97908, Note_on_c, 0, 85, 0
2, 97918, Note_on_c, 0, 97, 59
2, 97939, Note_on_c, 0, 97, 0
2, 97943, Note_on_c, 0, 85, 67
2, 97970, Note_on_c, 0, 85, 0
2, 97978, Note_on_c, 0, 87, 60
2, 97999, Note_on_c, 0, 87, 0
2, 98013, Note_on_c, 0, 87, 72
2, 98045, Note_on_c, 0, 87, 0
2, 98051, Note_on_c, 0, 99, 58
2, 98079, Note_on_c, 0, 99, 0
2, 98081, Note_on_c, 0, 87, 61
2, 98104, Note_on_c, 0, 87, 0
2, 98120, Note_on_c, 0, 88, 66
2, 98138, Note_on_c, 0, 88, 0
2, 98157, Note_on_c, 0, 88, 66
2, 98195, Note_on_c, 0, 88, 0
2, 98213, Note_on_c, 0, 100, 54
2, 98238, Note_on_c, 0, 100, 0
2, 98251, Note_on_c, 0, 88, 48
2, 98266, Note_on_c, 0, 88, 0
2, 98627, Control_c, 0, 67, 127
2, 98630, Control_c, 0, 64, 0
2, 98718, Note_on_c, 0, 29, 38
2, 98735, Note_on_c, 0, 29, 0
2, 98737, Note_on_c, 0, 34, 47
2, 98758, Note_on_c, 0, 34, 0
2, 98762, Note_on_c, 0, 41, 53
2, 98766, Note_on_c, 0, 29, 41
2, 98772, Note_on_c, 0, 41, 0
2, 98783, Note_on_c, 0, 29, 0
2, 98792, Note_on_c, 0, 34, 24
2, 98805, Note_on_c, 0, 34, 0
2, 98807, Note_on_c, 0, 46, 63
2, 98811, Note_on_c, 0, 29, 42
2, 98819, Note_on_c, 0, 46, 0
2, 98827, Note_on_c, 0, 29, 0
2, 98836, Note_on_c, 0, 34, 32
2, 98853, Note_on_c, 0, 34, 0
2, 98855, Note_on_c, 0, 53, 69
2, 98858, Note_on_c, 0, 29, 35
2, 98878, Note_on_c, 0, 29, 0
2, 98882, Note_on_c, 0, 34, 32
2, 98898, Note_on_c, 0, 34, 0
2, 98905, Note_on_c, 0, 29, 45
2, 98922, Note_on_c, 0, 29, 0
2, 98925, Note_on_c, 0, 34, 32
2, 98938, Note_on_c, 0, 53, 0
2, 98941, Note_on_c, 0, 50, 72
2, 98943, Note_on_c, 0, 34, 0
2, 98948, Note_on_c, 0, 50, 0
2, 98951, Note_on_c, 0, 29, 32
2, 98961, Note_on_c, 0, 29, 0
2, 98971, Note_on_c, 0, 34, 35
2, 98985, Note_on_c, 0, 48, 78
2, 98986, Note_on_c, 0, 34, 0
2, 98988, Note_on_c, 0, 29, 42
2, 99000, Note_on_c, 0, 48, 0
2, 99005, Note_on_c, 0, 50, 72
2, 99008, Note_on_c, 0, 29, 0
2, 99008, Note_on_c, 0, 34, 41
2, 99026, Note_on_c, 0, 34, 0
2, 99028, Note_on_c, 0, 50, 0
2, 99031, Note_on_c, 0, 48, 76
2, 99031, Note_on_c, 0, 29, 45
2, 99041, Note_on_c, 0, 48, 0
2, 99044, Note_on_c, 0, 29, 0
2, 99057, Note_on_c, 0, 34, 25
2, 99069, Note_on_c, 0, 34, 0
2, 99072, Note_on_c, 0, 46, 67
2, 99073, Note_on_c, 0, 29, 41
2, 99085, Note_on_c, 0, 29, 0
2, 99087, Note_on_c, 0, 46, 0
2, 99097, Note_on_c, 0, 34, 32
2, 99109, Note_on_c, 0, 34, 0
2, 99117, Note_on_c, 0, 45, 70
2, 99117, Note_on_c, 0, 29, 39
2, 99132, Note_on_c, 0, 29, 0
2, 99133, Note_on_c, 0, 45, 0
2, 99133, Note_on_c, 0, 34, 37
2, 99135, Note_on_c, 0, 46, 75
2, 99148, Note_on_c, 0, 46, 0
2, 99151, Note_on_c, 0, 34, 0
2, 99156, Note_on_c, 0, 29, 37
2, 99157, Note_on_c, 0, 45, 71
2, 99169, Note_on_c, 0, 45, 0
2, 99172, Note_on_c, 0, 29, 0
2, 99176, Note_on_c, 0, 34, 32
2, 99188, Note_on_c, 0, 34, 0
2, 99198, Note_on_c, 0, 29, 41
2, 99200, Note_on_c, 0, 43, 69
2, 99211, Note_on_c, 0, 29, 0
2, 99212, Note_on_c, 0, 43, 0
2, 99221, Note_on_c, 0, 34, 32
2, 99228, Note_on_c, 0, 34, 0
2, 99238, Note_on_c, 0, 29, 44
2, 99242, Note_on_c, 0, 42, 70
2, 99255, Note_on_c, 0, 29, 0
2, 99260, Note_on_c, 0, 34, 41
2, 99277, Note_on_c, 0, 34, 0
2, 99283, Note_on_c, 0, 42, 0
2, 99283, Note_on_c, 0, 29, 42
2, 99286, Note_on_c, 0, 45, 75
2, 99303, Note_on_c, 0, 45, 0
2, 99304, Note_on_c, 0, 29, 0
2, 99310, Note_on_c, 0, 34, 37
2, 99327, Note_on_c, 0, 34, 0
2, 99328, Note_on_c, 0, 43, 65
2, 99332, Note_on_c, 0, 29, 44
2, 99334, Note_on_c, 0, 43, 0
2, 99344, Note_on_c, 0, 29, 0
2, 99351, Note_on_c, 0, 34, 36
2, 99367, Note_on_c, 0, 34, 0
2, 99371, Note_on_c, 0, 40, 73
2, 99372, Note_on_c, 0, 29, 46
2, 99383, Note_on_c, 0, 40, 0
2, 99384, Note_on_c, 0, 29, 0
2, 99391, Note_on_c, 0, 34, 42
2, 99406, Note_on_c, 0, 34, 0
2, 99411, Note_on_c, 0, 29, 44
2, 99412, Note_on_c, 0, 43, 78
2, 99424, Note_on_c, 0, 29, 0
2, 99428, Note_on_c, 0, 43, 0
2, 99431, Note_on_c, 0, 34, 32
2, 99443, Note_on_c, 0, 34, 0
2, 99452, Note_on_c, 0, 29, 47
2, 99455, Note_on_c, 0, 41, 73
2, 99468, Note_on_c, 0, 29, 0
2, 99470, Note_on_c, 0, 41, 0
2, 99472, Note_on_c, 0, 34, 36
2, 99487, Note_on_c, 0, 34, 0
2, 99493, Note_on_c, 0, 29, 49
2, 99509, Note_on_c, 0, 29, 0
2, 99513, Note_on_c, 0, 34, 36
2, 99529, Note_on_c, 0, 34, 0
2, 99538, Note_on_c, 0, 29, 36
2, 99542, Note_on_c, 0, 38, 70
2, 99551, Note_on_c, 0, 29, 0
2, 99553, Note_on_c, 0, 34, 35
2, 99555, Note_on_c, 0, 38, 0
2, 99570, Note_on_c, 0, 34, 0
2, 99577, Note_on_c, 0, 29, 44
2, 99583, Note_on_c, 0, 39, 73
2, 99593, Note_on_c, 0, 29, 0
2, 99593, Note_on_c, 0, 34, 41
2, 99600, Note_on_c, 0, 39, 0
2, 99613, Note_on_c, 0, 34, 0
2, 99620, Note_on_c, 0, 29, 46
2, 99627, Note_on_c, 0, 40, 81
2, 99640, Note_on_c, 0, 29, 0
2, 99641, Note_on_c, 0, 34, 42
2, 99644, Note_on_c, 0, 40, 0
2, 99654, Note_on_c, 0, 34, 0
2, 99663, Note_on_c, 0, 29, 43
2, 99667, Note_on_c, 0, 43, 84
2, 99679, Note_on_c, 0, 29, 0
2, 99681, Note_on_c, 0, 34, 33
2, 99685, Note_on_c, 0, 43, 0
2, 99701, Note_on_c, 0, 34, 0
2, 99706, Note_on_c, 0, 29, 47
2, 99710, Note_on_c, 0, 41, 77
2, 99722, Note_on_c, 0, 41, 0
2, 99723, Note_on_c, 0, 29, 0
2, 99726, Note_on_c, 0, 34, 38
2, 99747, Note_on_c, 0, 34, 0
2, 99748, Note_on_c, 0, 29, 52
2, 99768, Note_on_c, 0, 29, 0
2, 99768, Note_on_c, 0, 34, 45
2, 99788, Note_on_c, 0, 34, 0
2, 99795, Note_on_c, 0, 29, 46
2, 99796, Note_on_c, 0, 53, 79
2, 99813, Note_on_c, 0, 29, 0
2, 99816, Note_on_c, 0, 53, 0
2, 99818, Note_on_c, 0, 34, 32
2, 99835, Note_on_c, 0, 58, 75
2, 99839, Note_on_c, 0, 34, 0
2, 99840, Note_on_c, 0, 29, 46
2, 99851, Note_on_c, 0, 58, 0
2, 99862, Note_on_c, 0, 29, 0
2, 99867, Note_on_c, 0, 34, 35
2, 99880, Note_on_c, 0, 65, 78
2, 99882, Note_on_c, 0, 58, 45
2, 99883, Note_on_c, 0, 53, 48
2, 99889, Note_on_c, 0, 34, 0
2, 99891, Note_on_c, 0, 29, 50
2, 99911, Note_on_c, 0, 29, 0
2, 99912, Note_on_c, 0, 34, 48
2, 99928, Note_on_c, 0, 34, 0
2, 99933, Note_on_c, 0, 29, 42
2, 99950, Note_on_c, 0, 29, 0
2, 99952, Note_on_c, 0, 34, 38
2, 99963, Note_on_c, 0, 65, 0
2, 99969, Note_on_c, 0, 34, 0
2, 99971, Note_on_c, 0, 62, 78
2, 99976, Note_on_c, 0, 29, 44
2, 99978, Note_on_c, 0, 58, 0
2, 99979, Note_on_c, 0, 53, 0
2, 99991, Note_on_c, 0, 62, 0
2, 99993, Note_on_c, 0, 29, 0
2, 100000, Note_on_c, 0, 34, 44
2, 100016, Note_on_c, 0, 34, 0
2, 100017, Note_on_c, 0, 60, 78
2, 100020, Note_on_c, 0, 29, 54
2, 100030, Note_on_c, 0, 60, 0
2, 100037, Note_on_c, 0, 29, 0
2, 100037, Note_on_c, 0, 62, 72
2, 100038, Note_on_c, 0, 34, 45
2, 100056, Note_on_c, 0, 34, 0
2, 100061, Note_on_c, 0, 60, 79
2, 100062, Note_on_c, 0, 62, 0
2, 100062, Note_on_c, 0, 29, 48
2, 100074, Note_on_c, 0, 60, 0
2, 100080, Note_on_c, 0, 29, 0
2, 100083, Note_on_c, 0, 34, 36
2, 100100, Note_on_c, 0, 34, 0
2, 100103, Note_on_c, 0, 58, 66
2, 100107, Note_on_c, 0, 29, 54
2, 100116, Note_on_c, 0, 58, 0
2, 100117, Note_on_c, 0, 29, 0
2, 100125, Note_on_c, 0, 34, 42
2, 100141, Note_on_c, 0, 34, 0
2, 100145, Note_on_c, 0, 57, 73
2, 100147, Note_on_c, 0, 29, 51
2, 100158, Note_on_c, 0, 57, 0
2, 100161, Note_on_c, 0, 58, 66
2, 100163, Note_on_c, 0, 29, 0
2, 100163, Note_on_c, 0, 34, 42
2, 100181, Note_on_c, 0, 34, 0
2, 100181, Note_on_c, 0, 57, 74
2, 100186, Note_on_c, 0, 58, 0
2, 100187, Note_on_c, 0, 29, 44
2, 100199, Note_on_c, 0, 57, 0
2, 100200, Note_on_c, 0, 29, 0
2, 100206, Note_on_c, 0, 34, 37
2, 100216, Note_on_c, 0, 34, 0
2, 100228, Note_on_c, 0, 29, 45
2, 100228, Note_on_c, 0, 55, 73
2, 100235, Note_on_c, 0, 55, 0
2, 100238, Note_on_c, 0, 29, 0
2, 100246, Note_on_c, 0, 34, 36
2, 100258, Note_on_c, 0, 34, 0
2, 100270, Note_on_c, 0, 29, 42
2, 100271, Note_on_c, 0, 54, 78
2, 100281, Note_on_c, 0, 29, 0
2, 100286, Note_on_c, 0, 34, 42
2, 100301, Note_on_c, 0, 34, 0
2, 100306, Note_on_c, 0, 29, 48
2, 100310, Note_on_c, 0, 57, 74
2, 100311, Note_on_c, 0, 54, 0
2, 100322, Note_on_c, 0, 29, 0
2, 100326, Note_on_c, 0, 34, 35
2, 100338, Note_on_c, 0, 57, 0
2, 100342, Note_on_c, 0, 34, 0
2, 100348, Note_on_c, 0, 29, 46
2, 100352, Note_on_c, 0, 55, 69
2, 100361, Note_on_c, 0, 29, 0
2, 100362, Note_on_c, 0, 55, 0
2, 100366, Note_on_c, 0, 34, 38
2, 100383, Note_on_c, 0, 34, 0
2, 100390, Note_on_c, 0, 29, 42
2, 100396, Note_on_c, 0, 52, 73
2, 100408, Note_on_c, 0, 29, 0
2, 100411, Note_on_c, 0, 34, 38
2, 100427, Note_on_c, 0, 34, 0
2, 100432, Note_on_c, 0, 29, 50
2, 100437, Note_on_c, 0, 52, 0
2, 100437, Note_on_c, 0, 55, 74
2, 100448, Note_on_c, 0, 29, 0
2, 100452, Note_on_c, 0, 34, 43
2, 100460, Note_on_c, 0, 55, 0
2, 100468, Note_on_c, 0, 34, 0
2, 100475, Note_on_c, 0, 29, 45
2, 100481, Note_on_c, 0, 53, 70
2, 100492, Note_on_c, 0, 53, 0
2, 100492, Note_on_c, 0, 29, 0
2, 100495, Note_on_c, 0, 34, 41
2, 100512, Note_on_c, 0, 34, 0
2, 100516, Note_on_c, 0, 29, 50
2, 100534, Note_on_c, 0, 29, 0
2, 100536, Note_on_c, 0, 34, 41
2, 100558, Note_on_c, 0, 34, 0
2, 100561, Note_on_c, 0, 29, 47
2, 100567, Note_on_c, 0, 50, 80
2, 100577, Note_on_c, 0, 50, 0
2, 100581, Note_on_c, 0, 29, 0
2, 100581, Note_on_c, 0, 34, 43
2, 100599, Note_on_c, 0, 34, 0
2, 100605, Note_on_c, 0, 29, 49
2, 100608, Note_on_c, 0, 51, 80
2, 100623, Note_on_c, 0, 51, 0
2, 100623, Note_on_c, 0, 29, 0
2, 100631, Note_on_c, 0, 34, 35
2, 100647, Note_on_c, 0, 34, 0
2, 100647, Note_on_c, 0, 29, 54
2, 100651, Note_on_c, 0, 52, 80
2, 100664, Note_on_c, 0, 52, 0
2, 100667, Note_on_c, 0, 29, 0
2, 100673, Note_on_c, 0, 34, 52
2, 100691, Note_on_c, 0, 34, 0
2, 100695, Note_on_c, 0, 29, 46
2, 100695, Note_on_c, 0, 55, 76
2, 100711, Note_on_c, 0, 55, 0
2, 100711, Note_on_c, 0, 29, 0
2, 100725, Note_on_c, 0, 34, 33
2, 100735, Note_on_c, 0, 34, 0
2, 100736, Note_on_c, 0, 53, 80
2, 100740, Note_on_c, 0, 29, 38
2, 100747, Note_on_c, 0, 53, 0
2, 100750, Note_on_c, 0, 29, 0
2, 100758, Note_on_c, 0, 34, 36
2, 100770, Note_on_c, 0, 34, 0
2, 100778, Note_on_c, 0, 29, 55
2, 100796, Control_c, 0, 64, 56
2, 100797, Control_c, 0, 64, 88
2, 100798, Control_c, 0, 64, 127
2, 100799, Note_on_c, 0, 29, 0
2, 100835, Note_on_c, 0, 53, 63
2, 100855, Note_on_c, 0, 58, 53
2, 100858, Note_on_c, 0, 53, 0
2, 100873, Note_on_c, 0, 58, 0
2, 100873, Note_on_c, 0, 62, 74
2, 100875, Control_c, 0, 64, 88
2, 100877, Control_c, 0, 64, 40
2, 100881, Control_c, 0, 64, 0
2, 100886, Note_on_c, 0, 58, 47
2, 100891, Note_on_c, 0, 50, 61
2, 100893, Note_on_c, 0, 62, 0
2, 100896, Note_on_c, 0, 65, 71
2, 100898, Note_on_c, 0, 50, 0
2, 100900, Control_c, 0, 64, 24
2, 100901, Note_on_c, 0, 58, 0
2, 100902, Control_c, 0, 64, 72
2, 100906, Control_c, 0, 64, 127
2, 100914, Note_on_c, 0, 65, 0
2, 100915, Note_on_c, 0, 62, 69
2, 100935, Note_on_c, 0, 62, 0
2, 100936, Note_on_c, 0, 58, 64
2, 100952, Note_on_c, 0, 58, 0
2, 100955, Note_on_c, 0, 53, 61
2, 100972, Note_on_c, 0, 58, 61
2, 100975, Note_on_c, 0, 53, 0
2, 100988, Note_on_c, 0, 62, 75
2, 100998, Note_on_c, 0, 58, 0
2, 101000, Control_c, 0, 64, 104
2, 101003, Control_c, 0, 64, 40
2, 101004, Note_on_c, 0, 62, 0
2, 101006, Control_c, 0, 64, 0
2, 101011, Note_on_c, 0, 58, 42
2, 101011, Note_on_c, 0, 65, 73
2, 101013, Note_on_c, 0, 49, 54
2, 101027, Note_on_c, 0, 65, 0
2, 101027, Note_on_c, 0, 58, 0
2, 101028, Note_on_c, 0, 64, 73
2, 101030, Note_on_c, 0, 49, 0
2, 101031, Control_c, 0, 64, 40
2, 101035, Control_c, 0, 64, 104
2, 101037, Control_c, 0, 64, 127
2, 101048, Note_on_c, 0, 64, 0
2, 101050, Note_on_c, 0, 58, 65
2, 101067, Note_on_c, 0, 58, 0
2, 101071, Note_on_c, 0, 55, 70
2, 101091, Note_on_c, 0, 55, 0
2, 101092, Note_on_c, 0, 58, 69
2, 101108, Note_on_c, 0, 64, 72
2, 101109, Note_on_c, 0, 58, 0
2, 101120, Note_on_c, 0, 64, 0
2, 101126, Control_c, 0, 64, 56
2, 101130, Control_c, 0, 64, 0
2, 101132, Note_on_c, 0, 65, 72
2, 101136, Note_on_c, 0, 70, 59
2, 101137, Note_on_c, 0, 62, 53
2, 101144, Note_on_c, 0, 62, 0
2, 101146, Note_on_c, 0, 70, 0
2, 101148, Control_c, 0, 64, 40
2, 101149, Note_on_c, 0, 65, 0
2, 101151, Control_c, 0, 64, 88
2, 101153, Control_c, 0, 64, 127
2, 101157, Note_on_c, 0, 77, 92
2, 101177, Note_on_c, 0, 77, 0
2, 101177, Note_on_c, 0, 74, 75
2, 101198, Note_on_c, 0, 74, 0
2, 101198, Note_on_c, 0, 70, 75
2, 101214, Note_on_c, 0, 70, 0
2, 101217, Note_on_c, 0, 65, 68
2, 101233, Note_on_c, 0, 70, 78
2, 101238, Note_on_c, 0, 65, 0
2, 101255, Control_c, 0, 64, 72
2, 101256, Note_on_c, 0, 77, 91
2, 101257, Note_on_c, 0, 61, 53
2, 101258, Control_c, 0, 64, 0
2, 101270, Note_on_c, 0, 70, 0
2, 101272, Note_on_c, 0, 61, 0
2, 101274, Note_on_c, 0, 77, 0
2, 101275, Note_on_c, 0, 76, 87
2, 101277, Control_c, 0, 64, 24
2, 101281, Control_c, 0, 64, 88
2, 101283, Control_c, 0, 64, 127
2, 101297, Note_on_c, 0, 70, 70
2, 101300, Note_on_c, 0, 76, 0
2, 101314, Note_on_c, 0, 70, 0
2, 101317, Note_on_c, 0, 67, 67
2, 101332, Note_on_c, 0, 70, 68
2, 101339, Note_on_c, 0, 67, 0
2, 101350, Note_on_c, 0, 70, 0
2, 101352, Note_on_c, 0, 76, 76
2, 101363, Note_on_c, 0, 76, 0
2, 101365, Control_c, 0, 64, 56
2, 101368, Control_c, 0, 64, 0
2, 101377, Note_on_c, 0, 82, 47
2, 101377, Note_on_c, 0, 74, 44
2, 101377, Note_on_c, 0, 77, 92
2, 101377, Control_c, 0, 64, 40
2, 101381, Control_c, 0, 64, 104
2, 101383, Note_on_c, 0, 74, 0
2, 101383, Note_on_c, 0, 82, 0
2, 101383, Control_c, 0, 64, 127
2, 101389, Note_on_c, 0, 77, 0
2, 101396, Note_on_c, 0, 89, 84
2, 101415, Note_on_c, 0, 86, 80
2, 101418, Note_on_c, 0, 89, 0
2, 101435, Note_on_c, 0, 82, 78
2, 101436, Note_on_c, 0, 86, 0
2, 101452, Note_on_c, 0, 82, 0
2, 101452, Note_on_c, 0, 77, 76
2, 101468, Note_on_c, 0, 82, 68
2, 101475, Note_on_c, 0, 77, 0
2, 101481, Control_c, 0, 64, 104
2, 101485, Control_c, 0, 64, 24
2, 101487, Control_c, 0, 64, 0
2, 101490, Note_on_c, 0, 89, 90
2, 101491, Note_on_c, 0, 73, 60
2, 101496, Note_on_c, 0, 73, 0
2, 101497, Control_c, 0, 64, 40
2, 101500, Note_on_c, 0, 82, 0
2, 101501, Control_c, 0, 64, 88
2, 101503, Control_c, 0, 64, 127
2, 101508, Note_on_c, 0, 88, 85
2, 101510, Note_on_c, 0, 89, 0
2, 101530, Note_on_c, 0, 82, 75
2, 101536, Note_on_c, 0, 88, 0
2, 101546, Note_on_c, 0, 82, 0
2, 101550, Note_on_c, 0, 79, 76
2, 101571, Note_on_c, 0, 82, 74
2, 101573, Note_on_c, 0, 79, 0
2, 101591, Note_on_c, 0, 82, 0
2, 101591, Note_on_c, 0, 88, 80
2, 101601, Control_c, 0, 64, 72
2, 101603, Control_c, 0, 64, 40
2, 101607, Control_c, 0, 64, 24
2, 101610, Note_on_c, 0, 82, 70
2, 101611, Note_on_c, 0, 88, 0
2, 101611, Control_c, 0, 64, 40
2, 101612, Note_on_c, 0, 89, 92
2, 101612, Note_on_c, 0, 73, 53
2, 101613, Control_c, 0, 64, 72
2, 101617, Control_c, 0, 64, 127
2, 101618, Note_on_c, 0, 73, 0
2, 101623, Note_on_c, 0, 82, 0
2, 101630, Note_on_c, 0, 88, 83
2, 101632, Note_on_c, 0, 89, 0
2, 101650, Note_on_c, 0, 82, 75
2, 101652, Note_on_c, 0, 88, 0
2, 101668, Note_on_c, 0, 82, 0
2, 101671, Note_on_c, 0, 79, 72
2, 101690, Note_on_c, 0, 82, 65
2, 101694, Note_on_c, 0, 79, 0
2, 101710, Note_on_c, 0, 88, 79
2, 101712, Note_on_c, 0, 82, 0
2, 101728, Note_on_c, 0, 88, 0
2, 101731, Note_on_c, 0, 82, 72
2, 101731, Note_on_c, 0, 89, 87
2, 101732, Note_on_c, 0, 73, 58
2, 101739, Note_on_c, 0, 73, 0
2, 101743, Note_on_c, 0, 82, 0
2, 101747, Note_on_c, 0, 88, 78
2, 101751, Note_on_c, 0, 89, 0
2, 101766, Note_on_c, 0, 82, 74
2, 101772, Note_on_c, 0, 88, 0
2, 101783, Note_on_c, 0, 82, 0
2, 101786, Note_on_c, 0, 79, 76
2, 101803, Note_on_c, 0, 82, 78
2, 101804, Note_on_c, 0, 79, 0
2, 101823, Note_on_c, 0, 82, 0
2, 101826, Note_on_c, 0, 85, 80
2, 101847, Note_on_c, 0, 88, 82
2, 101852, Note_on_c, 0, 85, 0
2, 101864, Note_on_c, 0, 88, 0
2, 101868, Note_on_c, 0, 89, 84
2, 101881, Note_on_c, 0, 89, 0
2, 101891, Note_on_c, 0, 91, 86
2, 101907, Note_on_c, 0, 91, 0
2, 101916, Note_on_c, 0, 94, 88
2, 101932, Note_on_c, 0, 94, 0
2, 101940, Note_on_c, 0, 97, 90
2, 101958, Note_on_c, 0, 100, 92
2, 101960, Note_on_c, 0, 97, 0
2, 101978, Note_on_c, 0, 100, 0
2, 101982, Note_on_c, 0, 101, 96
2, 102001, Note_on_c, 0, 100, 94
2, 102003, Note_on_c, 0, 101, 0
2, 102022, Note_on_c, 0, 97, 92
2, 102026, Note_on_c, 0, 100, 0
2, 102045, Note_on_c, 0, 94, 90
2, 102058, Note_on_c, 0, 97, 0
2, 102061, Note_on_c, 0, 94, 0
2, 102061, Note_on_c, 0, 91, 88
2, 102066, Note_on_c, 0, 91, 0
2, 102083, Note_on_c, 0, 89, 86
2, 102096, Note_on_c, 0, 89, 0
2, 102101, Note_on_c, 0, 88, 84
2, 102123, Note_on_c, 0, 85, 82
2, 102124, Note_on_c, 0, 88, 0
2, 102143, Note_on_c, 0, 82, 80
2, 102155, Note_on_c, 0, 85, 0
2, 102161, Note_on_c, 0, 82, 0
2, 102165, Note_on_c, 0, 79, 78
2, 102170, Note_on_c, 0, 79, 0
2, 102186, Note_on_c, 0, 77, 76
2, 102202, Note_on_c, 0, 77, 0
2, 102207, Note_on_c, 0, 76, 75
2, 102228, Note_on_c, 0, 73, 74
2, 102230, Note_on_c, 0, 76, 0
2, 102250, Note_on_c, 0, 70, 73
2, 102261, Note_on_c, 0, 73, 0
2, 102268, Note_on_c, 0, 70, 0
2, 102271, Note_on_c, 0, 67, 69
2, 102277, Note_on_c, 0, 67, 0
2, 102292, Note_on_c, 0, 65, 72
2, 102312, Note_on_c, 0, 65, 0
2, 102316, Note_on_c, 0, 64, 72
2, 102337, Note_on_c, 0, 61, 64
2, 102338, Note_on_c, 0, 64, 0
2, 102355, Note_on_c, 0, 58, 64
2, 102369, Note_on_c, 0, 61, 0
2, 102375, Note_on_c, 0, 58, 0
2, 102378, Note_on_c, 0, 55, 77
2, 102385, Note_on_c, 0, 55, 0
2, 102402, Note_on_c, 0, 53, 68
2, 102422, Note_on_c, 0, 53, 0
2, 102425, Note_on_c, 0, 52, 70
2, 102446, Note_on_c, 0, 52, 0
2, 102446, Note_on_c, 0, 49, 70
2, 102466, Note_on_c, 0, 49, 0
2, 102466, Note_on_c, 0, 46, 75
2, 102484, Note_on_c, 0, 46, 0
2, 102488, Note_on_c, 0, 43, 74
2, 102503, Control_c, 0, 64, 72
2, 102507, Control_c, 0, 64, 24
2, 102511, Note_on_c, 0, 43, 0
2, 102511, Note_on_c, 0, 42, 71
2, 102511, Control_c, 0, 64, 0
2, 102526, Control_c, 0, 64, 56
2, 102530, Control_c, 0, 64, 88
2, 102532, Control_c, 0, 64, 127
2, 102533, Note_on_c, 0, 41, 72
2, 102538, Note_on_c, 0, 42, 0
2, 102553, Note_on_c, 0, 41, 0
2, 102557, Note_on_c, 0, 40, 69
2, 102580, Note_on_c, 0, 40, 0
2, 102582, Note_on_c, 0, 39, 56
2, 102599, Note_on_c, 0, 39, 0
2, 102608, Note_on_c, 0, 38, 60
2, 102614, Note_on_c, 0, 38, 0
2, 102628, Control_c, 0, 67, 0
2, 102638, Note_on_c, 0, 49, 61
2, 102640, Note_on_c, 0, 37, 51
2, 102655, Control_c, 0, 64, 104
2, 102657, Control_c, 0, 64, 40
2, 102661, Control_c, 0, 64, 0
2, 102668, Note_on_c, 0, 52, 58
2, 102683, Control_c, 0, 64, 72
2, 102686, Note_on_c, 0, 52, 0
2, 102686, Control_c, 0, 64, 127
2, 102687, Note_on_c, 0, 56, 65
2, 102703, Note_on_c, 0, 37, 0
2, 102703, Note_on_c, 0, 49, 0
2, 102713, Note_on_c, 0, 56, 0
2, 102721, Note_on_c, 0, 64, 60
2, 102721, Note_on_c, 0, 62, 45
2, 102745, Note_on_c, 0, 56, 61
2, 102746, Note_on_c, 0, 64, 0
2, 102748, Note_on_c, 0, 62, 0
2, 102768, Note_on_c, 0, 56, 0
2, 102775, Note_on_c, 0, 52, 68
2, 102792, Note_on_c, 0, 52, 0
2, 102802, Note_on_c, 0, 46, 69
2, 102805, Note_on_c, 0, 34, 72
2, 102818, Control_c, 0, 64, 88
2, 102822, Control_c, 0, 64, 24
2, 102825, Note_on_c, 0, 52, 64
2, 102825, Control_c, 0, 64, 0
2, 102843, Control_c, 0, 64, 72
2, 102846, Note_on_c, 0, 52, 0
2, 102847, Control_c, 0, 64, 127
2, 102848, Note_on_c, 0, 56, 64
2, 102870, Note_on_c, 0, 56, 0
2, 102876, Note_on_c, 0, 62, 64
2, 102878, Note_on_c, 0, 34, 0
2, 102878, Note_on_c, 0, 46, 0
2, 102878, Note_on_c, 0, 64, 68
2, 102901, Note_on_c, 0, 56, 67
2, 102906, Note_on_c, 0, 64, 0
2, 102906, Note_on_c, 0, 62, 0
2, 102922, Note_on_c, 0, 52, 57
2, 102923, Note_on_c, 0, 56, 0
2, 102928, Note_on_c, 0, 52, 0
2, 102952, Note_on_c, 0, 47, 77
2, 102953, Note_on_c, 0, 35, 68
2, 102961, Control_c, 0, 64, 104
2, 102963, Control_c, 0, 64, 40
2, 102967, Control_c, 0, 64, 0
2, 102971, Note_on_c, 0, 64, 73
2, 102986, Control_c, 0, 64, 40
2, 102988, Control_c, 0, 64, 104
2, 102989, Note_on_c, 0, 64, 0
2, 102992, Control_c, 0, 64, 127
2, 102996, Note_on_c, 0, 35, 0
2, 102996, Note_on_c, 0, 68, 67
2, 102999, Note_on_c, 0, 47, 0
2, 103014, Note_on_c, 0, 68, 0
2, 103022, Note_on_c, 0, 76, 72
2, 103025, Note_on_c, 0, 74, 59
2, 103041, Note_on_c, 0, 68, 67
2, 103050, Note_on_c, 0, 74, 0
2, 103061, Note_on_c, 0, 64, 68
2, 103063, Note_on_c, 0, 68, 0
2, 103068, Note_on_c, 0, 64, 0
2, 103078, Note_on_c, 0, 76, 0
2, 103090, Note_on_c, 0, 54, 79
2, 103091, Note_on_c, 0, 42, 73
2, 103092, Control_c, 0, 64, 104
2, 103095, Control_c, 0, 64, 40
2, 103098, Control_c, 0, 64, 0
2, 103112, Note_on_c, 0, 76, 78
2, 103117, Control_c, 0, 64, 88
2, 103121, Control_c, 0, 64, 127
2, 103129, Note_on_c, 0, 76, 0
2, 103131, Note_on_c, 0, 80, 79
2, 103143, Note_on_c, 0, 54, 0
2, 103154, Note_on_c, 0, 80, 0
2, 103157, Note_on_c, 0, 88, 80
2, 103158, Note_on_c, 0, 42, 0
2, 103158, Note_on_c, 0, 86, 76
2, 103176, Note_on_c, 0, 80, 74
2, 103186, Note_on_c, 0, 86, 0
2, 103195, Note_on_c, 0, 76, 70
2, 103201, Note_on_c, 0, 80, 0
2, 103203, Note_on_c, 0, 76, 0
2, 103213, Note_on_c, 0, 88, 0
2, 103222, Note_on_c, 0, 47, 85
2, 103222, Control_c, 0, 64, 72
2, 103225, Control_c, 0, 64, 0
2, 103228, Note_on_c, 0, 35, 34
2, 103241, Control_c, 0, 64, 24
2, 103243, Note_on_c, 0, 88, 84
2, 103243, Control_c, 0, 64, 88
2, 103247, Control_c, 0, 64, 127
2, 103261, Note_on_c, 0, 88, 0
2, 103265, Note_on_c, 0, 92, 81
2, 103273, Note_on_c, 0, 35, 0
2, 103282, Note_on_c, 0, 92, 0
2, 103283, Note_on_c, 0, 100, 86
2, 103285, Note_on_c, 0, 98, 83
2, 103289, Note_on_c, 0, 47, 0
2, 103302, Note_on_c, 0, 92, 81
2, 103310, Note_on_c, 0, 100, 0
2, 103312, Note_on_c, 0, 98, 0
2, 103318, Note_on_c, 0, 88, 73
2, 103319, Note_on_c, 0, 92, 0
2, 103323, Note_on_c, 0, 88, 0
2, 103326, Note_on_c, 0, 48, 84
2, 103331, Note_on_c, 0, 36, 52
2, 103332, Note_on_c, 0, 48, 0
2, 103337, Note_on_c, 0, 36, 0
2, 103345, Control_c, 0, 64, 56
2, 103347, Control_c, 0, 64, 0
2, 103350, Note_on_c, 0, 48, 78
2, 103350, Note_on_c, 0, 36, 72
2, 103367, Control_c, 0, 64, 40
2, 103370, Control_c, 0, 64, 104
2, 103372, Note_on_c, 0, 52, 61
2, 103373, Control_c, 0, 64, 127
2, 103378, Note_on_c, 0, 52, 0
2, 103393, Note_on_c, 0, 48, 0
2, 103403, Note_on_c, 0, 57, 60
2, 103406, Note_on_c, 0, 36, 0
2, 103417, Control_c, 0, 64, 40
2, 103420, Control_c, 0, 64, 0
2, 103421, Note_on_c, 0, 49, 91
2, 103422, Note_on_c, 0, 37, 66
2, 103426, Note_on_c, 0, 57, 0
2, 103426, Note_on_c, 0, 61, 60
2, 103428, Note_on_c, 0, 64, 68
2, 103430, Control_c, 0, 64, 40
2, 103432, Control_c, 0, 64, 88
2, 103434, Note_on_c, 0, 64, 0
2, 103434, Note_on_c, 0, 61, 0
2, 103436, Control_c, 0, 64, 127
2, 103439, Note_on_c, 0, 49, 0
2, 103449, Note_on_c, 0, 37, 0
2, 103451, Note_on_c, 0, 64, 70
2, 103463, Note_on_c, 0, 64, 0
2, 103473, Note_on_c, 0, 69, 64
2, 103490, Note_on_c, 0, 69, 0
2, 103492, Note_on_c, 0, 73, 65
2, 103493, Note_on_c, 0, 76, 64
2, 103495, Control_c, 0, 64, 104
2, 103498, Note_on_c, 0, 73, 0
2, 103498, Control_c, 0, 64, 40
2, 103499, Note_on_c, 0, 76, 0
2, 103500, Note_on_c, 0, 41, 86
2, 103501, Note_on_c, 0, 29, 73
2, 103502, Control_c, 0, 64, 0
2, 103516, Note_on_c, 0, 76, 83
2, 103517, Control_c, 0, 64, 56
2, 103521, Control_c, 0, 64, 127
2, 103536, Note_on_c, 0, 76, 0
2, 103537, Note_on_c, 0, 81, 85
2, 103556, Note_on_c, 0, 29, 0
2, 103558, Note_on_c, 0, 85, 69
2, 103559, Note_on_c, 0, 81, 0
2, 103562, Note_on_c, 0, 88, 61
2, 103565, Note_on_c, 0, 41, 0
2, 103567, Note_on_c, 0, 88, 0
2, 103568, Note_on_c, 0, 85, 0
2, 103581, Note_on_c, 0, 88, 87
2, 103602, Note_on_c, 0, 88, 0
2, 103602, Note_on_c, 0, 93, 86
2, 103606, Control_c, 0, 64, 104
2, 103607, Note_on_c, 0, 41, 89
2, 103608, Control_c, 0, 64, 56
2, 103610, Note_on_c, 0, 29, 68
2, 103611, Control_c, 0, 64, 0
2, 103617, Note_on_c, 0, 29, 0
2, 103619, Note_on_c, 0, 41, 0
2, 103619, Note_on_c, 0, 93, 0
2, 103621, Control_c, 0, 64, 24
2, 103622, Note_on_c, 0, 100, 95
2, 103625, Note_on_c, 0, 97, 75
2, 103625, Control_c, 0, 64, 72
2, 103627, Control_c, 0, 64, 127
2, 103631, Note_on_c, 0, 41, 84
2, 103632, Note_on_c, 0, 29, 65
2, 103647, Note_on_c, 0, 93, 85
2, 103657, Note_on_c, 0, 29, 0
2, 103658, Note_on_c, 0, 41, 0
2, 103662, Note_on_c, 0, 100, 0
2, 103666, Note_on_c, 0, 97, 0
2, 103667, Note_on_c, 0, 93, 0
2, 103668, Note_on_c, 0, 88, 74
2, 103676, Note_on_c, 0, 88, 0
2, 103691, Note_on_c, 0, 40, 88
2, 103692, Note_on_c, 0, 28, 79
2, 103693, Control_c, 0, 64, 88
2, 103695, Note_on_c, 0, 88, 59
2, 103696, Note_on_c, 0, 85, 48
2, 103697, Control_c, 0, 64, 72
2, 103706, Control_c, 0, 64, 104
2, 103707, Note_on_c, 0, 28, 0
2, 103710, Control_c, 0, 64, 127
2, 103716, Note_on_c, 0, 40, 0
2, 103718, Note_on_c, 0, 81, 79
2, 103722, Note_on_c, 0, 88, 0
2, 103724, Note_on_c, 0, 85, 0
2, 103734, Note_on_c, 0, 81, 0
2, 103738, Note_on_c, 0, 76, 80
2, 103744, Note_on_c, 0, 76, 0
2, 103766, Note_on_c, 0, 49, 92
2, 103767, Note_on_c, 0, 76, 69
2, 103768, Note_on_c, 0, 37, 65
2, 103771, Note_on_c, 0, 73, 54
2, 103776, Control_c, 0, 64, 56
2, 103778, Control_c, 0, 64, 0
2, 103790, Note_on_c, 0, 76, 0
2, 103795, Note_on_c, 0, 69, 71
2, 103798, Control_c, 0, 64, 56
2, 103801, Control_c, 0, 64, 127
2, 103804, Note_on_c, 0, 73, 0
2, 103807, Note_on_c, 0, 69, 0
2, 103812, Note_on_c, 0, 64, 69
2, 103819, Note_on_c, 0, 64, 0
2, 103835, Note_on_c, 0, 64, 56
2, 103837, Note_on_c, 0, 61, 55
2, 103852, Note_on_c, 0, 49, 0
2, 103861, Note_on_c, 0, 57, 60
2, 103866, Note_on_c, 0, 37, 0
2, 103868, Note_on_c, 0, 64, 0
2, 103872, Note_on_c, 0, 61, 0
2, 103873, Note_on_c, 0, 57, 0
2, 103881, Note_on_c, 0, 52, 64
2, 103897, Note_on_c, 0, 52, 0
2, 103911, Note_on_c, 0, 46, 81
2, 103915, Note_on_c, 0, 34, 65
2, 103926, Control_c, 0, 64, 104
2, 103930, Control_c, 0, 64, 56
2, 103932, Control_c, 0, 64, 0
2, 103938, Note_on_c, 0, 52, 61
2, 103956, Note_on_c, 0, 52, 0
2, 103957, Note_on_c, 0, 56, 67
2, 103965, Control_c, 0, 64, 72
2, 103967, Control_c, 0, 64, 127
2, 103979, Note_on_c, 0, 56, 0
2, 103986, Note_on_c, 0, 64, 65
2, 103987, Note_on_c, 0, 62, 58
2, 104008, Note_on_c, 0, 56, 66
2, 104012, Note_on_c, 0, 64, 0
2, 104015, Note_on_c, 0, 62, 0
2, 104020, Note_on_c, 0, 34, 0
2, 104028, Note_on_c, 0, 52, 63
2, 104031, Note_on_c, 0, 56, 0
2, 104034, Note_on_c, 0, 52, 0
2, 104036, Note_on_c, 0, 46, 0
2, 104053, Note_on_c, 0, 47, 82
2, 104056, Note_on_c, 0, 35, 69
2, 104068, Control_c, 0, 64, 72
2, 104071, Control_c, 0, 64, 0
2, 104076, Note_on_c, 0, 64, 78
2, 104093, Note_on_c, 0, 64, 0
2, 104093, Control_c, 0, 64, 40
2, 104097, Note_on_c, 0, 68, 68
2, 104097, Control_c, 0, 64, 104
2, 104100, Control_c, 0, 64, 127
2, 104108, Note_on_c, 0, 35, 0
2, 104114, Note_on_c, 0, 47, 0
2, 104118, Note_on_c, 0, 68, 0
2, 104121, Note_on_c, 0, 76, 72
2, 104122, Note_on_c, 0, 74, 57
2, 104138, Note_on_c, 0, 68, 68
2, 104148, Note_on_c, 0, 74, 0
2, 104154, Note_on_c, 0, 76, 0
2, 104157, Note_on_c, 0, 64, 68
2, 104163, Note_on_c, 0, 68, 0
2, 104170, Note_on_c, 0, 64, 0
2, 104185, Note_on_c, 0, 54, 90
2, 104188, Note_on_c, 0, 42, 62
2, 104191, Control_c, 0, 64, 88
2, 104193, Control_c, 0, 64, 24
2, 104197, Control_c, 0, 64, 0
2, 104207, Note_on_c, 0, 76, 80
2, 104216, Control_c, 0, 64, 56
2, 104220, Control_c, 0, 64, 127
2, 104228, Note_on_c, 0, 80, 72
2, 104229, Note_on_c, 0, 76, 0
2, 104248, Note_on_c, 0, 80, 0
2, 104252, Note_on_c, 0, 88, 70
2, 104257, Note_on_c, 0, 86, 53
2, 104260, Note_on_c, 0, 42, 0
2, 104261, Note_on_c, 0, 54, 0
2, 104270, Note_on_c, 0, 80, 55
2, 104278, Note_on_c, 0, 88, 0
2, 104278, Note_on_c, 0, 86, 0
2, 104287, Note_on_c, 0, 80, 0
2, 104288, Note_on_c, 0, 76, 55
2, 104296, Note_on_c, 0, 76, 0
2, 104298, Control_c, 0, 64, 104
2, 104301, Control_c, 0, 64, 88
2, 104305, Control_c, 0, 64, 72
2, 104307, Control_c, 0, 64, 40
2, 104307, Control_c, 0, 67, 0
2, 104311, Control_c, 0, 64, 24
2, 104315, Control_c, 0, 64, 88
2, 104317, Control_c, 0, 64, 24
2, 104320, Note_on_c, 0, 47, 90
2, 104321, Note_on_c, 0, 35, 76
2, 104321, Control_c, 0, 64, 0
2, 104336, Control_c, 0, 64, 40
2, 104340, Control_c, 0, 64, 104
2, 104341, Note_on_c, 0, 88, 84
2, 104342, Control_c, 0, 64, 127
2, 104358, Note_on_c, 0, 88, 0
2, 104365, Note_on_c, 0, 92, 74
2, 104369, Note_on_c, 0, 35, 0
2, 104380, Note_on_c, 0, 92, 0
2, 104383, Note_on_c, 0, 100, 78
2, 104387, Note_on_c, 0, 98, 71
2, 104392, Note_on_c, 0, 47, 0
2, 104401, Note_on_c, 0, 92, 75
2, 104411, Note_on_c, 0, 100, 0
2, 104413, Note_on_c, 0, 98, 0
2, 104417, Note_on_c, 0, 88, 84
2, 104418, Note_on_c, 0, 92, 0
2, 104423, Note_on_c, 0, 88, 0
2, 104433, Note_on_c, 0, 48, 85
2, 104435, Note_on_c, 0, 36, 62
2, 104438, Note_on_c, 0, 48, 0
2, 104442, Note_on_c, 0, 36, 0
2, 104450, Control_c, 0, 64, 88
2, 104453, Control_c, 0, 64, 0
2, 104455, Note_on_c, 0, 48, 83
2, 104456, Note_on_c, 0, 36, 61
2, 104475, Control_c, 0, 64, 72
2, 104478, Control_c, 0, 64, 127
2, 104480, Note_on_c, 0, 52, 44
2, 104492, Note_on_c, 0, 52, 0
2, 104492, Note_on_c, 0, 48, 0
2, 104502, Note_on_c, 0, 57, 78
2, 104509, Note_on_c, 0, 36, 0
2, 104516, Control_c, 0, 64, 56
2, 104520, Control_c, 0, 64, 0
2, 104527, Note_on_c, 0, 57, 0
2, 104527, Note_on_c, 0, 49, 89
2, 104528, Note_on_c, 0, 37, 70
2, 104528, Control_c, 0, 64, 24
2, 104531, Note_on_c, 0, 61, 55
2, 104531, Control_c, 0, 64, 72
2, 104533, Note_on_c, 0, 64, 52
2, 104535, Control_c, 0, 64, 127
2, 104537, Note_on_c, 0, 49, 0
2, 104540, Note_on_c, 0, 64, 0
2, 104542, Note_on_c, 0, 61, 0
2, 104543, Note_on_c, 0, 37, 0
2, 104557, Note_on_c, 0, 64, 72
2, 104572, Note_on_c, 0, 64, 0
2, 104580, Note_on_c, 0, 69, 76
2, 104597, Control_c, 0, 64, 56
2, 104601, Control_c, 0, 64, 0
2, 104603, Note_on_c, 0, 41, 88
2, 104603, Note_on_c, 0, 73, 66
2, 104605, Note_on_c, 0, 69, 0
2, 104605, Note_on_c, 0, 76, 68
2, 104606, Note_on_c, 0, 29, 72
2, 104611, Note_on_c, 0, 76, 0
2, 104613, Note_on_c, 0, 73, 0
2, 104616, Control_c, 0, 64, 72
2, 104620, Control_c, 0, 64, 127
2, 104626, Note_on_c, 0, 76, 85
2, 104643, Note_on_c, 0, 76, 0
2, 104647, Note_on_c, 0, 81, 84
2, 104670, Note_on_c, 0, 81, 0
2, 104670, Note_on_c, 0, 85, 67
2, 104671, Note_on_c, 0, 88, 68
2, 104677, Note_on_c, 0, 88, 0
2, 104678, Note_on_c, 0, 85, 0
2, 104678, Note_on_c, 0, 29, 0
2, 104691, Note_on_c, 0, 88, 93
2, 104693, Note_on_c, 0, 41, 0
2, 104709, Note_on_c, 0, 88, 0
2, 104712, Note_on_c, 0, 93, 93
2, 104712, Note_on_c, 0, 41, 87
2, 104713, Note_on_c, 0, 29, 76
2, 104724, Note_on_c, 0, 41, 0
2, 104725, Note_on_c, 0, 29, 0
2, 104729, Note_on_c, 0, 93, 0
2, 104733, Control_c, 0, 64, 40
2, 104736, Note_on_c, 0, 41, 73
2, 104736, Control_c, 0, 64, 0
2, 104738, Note_on_c, 0, 100, 93
2, 104738, Note_on_c, 0, 97, 77
2, 104738, Note_on_c, 0, 29, 54
2, 104748, Control_c, 0, 64, 56
2, 104752, Control_c, 0, 64, 127
2, 104758, Note_on_c, 0, 29, 0
2, 104762, Note_on_c, 0, 41, 0
2, 104762, Note_on_c, 0, 93, 85
2, 104775, Note_on_c, 0, 100, 0
2, 104778, Note_on_c, 0, 97, 0
2, 104780, Note_on_c, 0, 93, 0
2, 104782, Note_on_c, 0, 88, 84
2, 104792, Note_on_c, 0, 88, 0
2, 104811, Note_on_c, 0, 88, 77
2, 104811, Note_on_c, 0, 85, 70
2, 104811, Note_on_c, 0, 28, 75
2, 104811, Note_on_c, 0, 40, 81
2, 104823, Note_on_c, 0, 28, 0
2, 104828, Note_on_c, 0, 88, 0
2, 104828, Note_on_c, 0, 85, 0
2, 104828, Note_on_c, 0, 40, 0
2, 104835, Note_on_c, 0, 81, 75
2, 104852, Note_on_c, 0, 81, 0
2, 104856, Note_on_c, 0, 76, 84
2, 104863, Note_on_c, 0, 76, 0
2, 104881, Note_on_c, 0, 49, 92
2, 104882, Note_on_c, 0, 37, 68
2, 104885, Note_on_c, 0, 73, 67
2, 104885, Note_on_c, 0, 76, 70
2, 104907, Note_on_c, 0, 76, 0
2, 104907, Note_on_c, 0, 69, 78
2, 104918, Note_on_c, 0, 73, 0
2, 104922, Note_on_c, 0, 69, 0
2, 104927, Note_on_c, 0, 64, 73
2, 104933, Note_on_c, 0, 64, 0
2, 104951, Note_on_c, 0, 64, 70
2, 104953, Note_on_c, 0, 61, 64
2, 104973, Note_on_c, 0, 57, 72
2, 104978, Note_on_c, 0, 64, 0
2, 104981, Note_on_c, 0, 61, 0
2, 104995, Note_on_c, 0, 57, 0
2, 104996, Note_on_c, 0, 52, 76
2, 104997, Note_on_c, 0, 49, 0
2, 105008, Note_on_c, 0, 52, 0
2, 105009, Note_on_c, 0, 37, 0
2, 105027, Note_on_c, 0, 48, 86
2, 105030, Note_on_c, 0, 36, 70
2, 105035, Control_c, 0, 64, 88
2, 105038, Control_c, 0, 64, 40
2, 105041, Control_c, 0, 64, 0
2, 105053, Note_on_c, 0, 55, 69
2, 105072, Note_on_c, 0, 58, 62
2, 105073, Note_on_c, 0, 55, 0
2, 105076, Control_c, 0, 64, 72
2, 105078, Control_c, 0, 64, 127
2, 105092, Note_on_c, 0, 58, 0
2, 105097, Note_on_c, 0, 64, 62
2, 105098, Note_on_c, 0, 67, 66
2, 105107, Note_on_c, 0, 36, 0
2, 105117, Note_on_c, 0, 58, 65
2, 105119, Note_on_c, 0, 48, 0
2, 105125, Note_on_c, 0, 64, 0
2, 105128, Note_on_c, 0, 67, 0
2, 105137, Note_on_c, 0, 55, 75
2, 105145, Note_on_c, 0, 58, 0
2, 105147, Note_on_c, 0, 55, 0
2, 105171, Note_on_c, 0, 49, 84
2, 105172, Note_on_c, 0, 37, 68
2, 105180, Control_c, 0, 64, 104
2, 105183, Control_c, 0, 64, 24
2, 105186, Control_c, 0, 64, 0
2, 105196, Note_on_c, 0, 67, 78
2, 105205, Control_c, 0, 64, 88
2, 105208, Control_c, 0, 64, 127
2, 105216, Note_on_c, 0, 70, 71
2, 105217, Note_on_c, 0, 67, 0
2, 105222, Note_on_c, 0, 37, 0
2, 105234, Note_on_c, 0, 70, 0
2, 105236, Note_on_c, 0, 49, 0
2, 105237, Note_on_c, 0, 79, 73
2, 105238, Note_on_c, 0, 76, 66
2, 105255, Note_on_c, 0, 70, 70
2, 105272, Note_on_c, 0, 79, 0
2, 105278, Note_on_c, 0, 67, 67
2, 105284, Note_on_c, 0, 67, 0
2, 105285, Note_on_c, 0, 70, 0
2, 105292, Note_on_c, 0, 79, 31
2, 105296, Note_on_c, 0, 76, 0
2, 105298, Note_on_c, 0, 79, 0
2, 105301, Note_on_c, 0, 55, 88
2, 105302, Note_on_c, 0, 43, 74
2, 105312, Control_c, 0, 64, 56
2, 105315, Control_c, 0, 64, 0
2, 105328, Note_on_c, 0, 79, 63
2, 105331, Control_c, 0, 64, 72
2, 105335, Note_on_c, 0, 79, 0
2, 105335, Control_c, 0, 64, 127
2, 105350, Note_on_c, 0, 82, 72
2, 105362, Note_on_c, 0, 82, 0
2, 105370, Note_on_c, 0, 91, 80
2, 105370, Note_on_c, 0, 88, 76
2, 105378, Note_on_c, 0, 55, 0
2, 105384, Note_on_c, 0, 43, 0
2, 105390, Note_on_c, 0, 82, 83
2, 105408, Note_on_c, 0, 79, 84
2, 105417, Note_on_c, 0, 82, 0
2, 105420, Note_on_c, 0, 79, 0
2, 105427, Note_on_c, 0, 88, 0
2, 105433, Note_on_c, 0, 91, 0
2, 105435, Note_on_c, 0, 48, 90
2, 105436, Note_on_c, 0, 36, 76
2, 105437, Control_c, 0, 64, 88
2, 105441, Control_c, 0, 64, 24
2, 105443, Control_c, 0, 64, 0
2, 105456, Note_on_c, 0, 91, 93
2, 105460, Control_c, 0, 64, 40
2, 105462, Control_c, 0, 64, 127
2, 105474, Note_on_c, 0, 91, 0
2, 105476, Note_on_c, 0, 94, 75
2, 105494, Note_on_c, 0, 94, 0
2, 105497, Note_on_c, 0, 103, 94
2, 105498, Note_on_c, 0, 100, 74
2, 105515, Note_on_c, 0, 94, 78
2, 105516, Note_on_c, 0, 48, 0
2, 105517, Note_on_c, 0, 36, 0
2, 105523, Note_on_c, 0, 103, 0
2, 105528, Note_on_c, 0, 100, 0
2, 105530, Note_on_c, 0, 94, 0
2, 105535, Note_on_c, 0, 91, 84
2, 105543, Note_on_c, 0, 91, 0
2, 105543, Note_on_c, 0, 49, 90
2, 105545, Note_on_c, 0, 37, 73
2, 105550, Note_on_c, 0, 37, 0
2, 105550, Note_on_c, 0, 49, 0
2, 105557, Control_c, 0, 64, 56
2, 105561, Control_c, 0, 64, 0
2, 105565, Note_on_c, 0, 49, 80
2, 105566, Note_on_c, 0, 37, 64
2, 105580, Control_c, 0, 64, 40
2, 105582, Control_c, 0, 64, 104
2, 105586, Control_c, 0, 64, 127
2, 105587, Note_on_c, 0, 53, 76
2, 105589, Note_on_c, 0, 37, 0
2, 105597, Note_on_c, 0, 53, 0
2, 105610, Note_on_c, 0, 49, 0
2, 105611, Note_on_c, 0, 58, 77
2, 105623, Control_c, 0, 64, 56
2, 105627, Control_c, 0, 64, 0
2, 105630, Note_on_c, 0, 50, 92
2, 105632, Note_on_c, 0, 38, 76
2, 105634, Note_on_c, 0, 58, 0
2, 105636, Note_on_c, 0, 65, 69
2, 105636, Control_c, 0, 64, 104
2, 105637, Note_on_c, 0, 62, 62
2, 105640, Control_c, 0, 64, 127
2, 105642, Note_on_c, 0, 62, 0
2, 105642, Note_on_c, 0, 65, 0
2, 105642, Note_on_c, 0, 50, 0
2, 105647, Note_on_c, 0, 38, 0
2, 105658, Note_on_c, 0, 65, 77
2, 105673, Note_on_c, 0, 65, 0
2, 105677, Note_on_c, 0, 70, 78
2, 105693, Control_c, 0, 64, 88
2, 105696, Control_c, 0, 64, 24
2, 105698, Note_on_c, 0, 77, 76
2, 105699, Note_on_c, 0, 70, 0
2, 105700, Control_c, 0, 64, 0
2, 105701, Note_on_c, 0, 74, 57
2, 105701, Note_on_c, 0, 42, 93
2, 105702, Note_on_c, 0, 30, 72
2, 105702, Control_c, 0, 64, 24
2, 105704, Note_on_c, 0, 77, 0
2, 105706, Note_on_c, 0, 74, 0
2, 105706, Control_c, 0, 64, 56
2, 105708, Control_c, 0, 64, 104
2, 105711, Control_c, 0, 64, 127
2, 105721, Note_on_c, 0, 77, 92
2, 105739, Note_on_c, 0, 77, 0
2, 105742, Note_on_c, 0, 82, 86
2, 105765, Note_on_c, 0, 82, 0
2, 105765, Note_on_c, 0, 86, 71
2, 105766, Note_on_c, 0, 42, 0
2, 105766, Note_on_c, 0, 89, 73
2, 105768, Note_on_c, 0, 30, 0
2, 105770, Note_on_c, 0, 86, 0
2, 105771, Note_on_c, 0, 89, 0
2, 105785, Note_on_c, 0, 89, 97
2, 105795, Note_on_c, 0, 42, 93
2, 105795, Note_on_c, 0, 30, 78
2, 105803, Note_on_c, 0, 42, 0
2, 105805, Note_on_c, 0, 30, 0
2, 105805, Note_on_c, 0, 94, 78
2, 105806, Note_on_c, 0, 89, 0
2, 105816, Control_c, 0, 64, 88
2, 105818, Control_c, 0, 64, 40
2, 105822, Control_c, 0, 64, 0
2, 105823, Note_on_c, 0, 94, 0
2, 105825, Note_on_c, 0, 42, 95
2, 105826, Note_on_c, 0, 30, 75
2, 105828, Note_on_c, 0, 101, 92
2, 105828, Note_on_c, 0, 98, 89
2, 105831, Control_c, 0, 64, 88
2, 105835, Control_c, 0, 64, 127
2, 105848, Note_on_c, 0, 94, 67
2, 105852, Note_on_c, 0, 30, 0
2, 105857, Note_on_c, 0, 42, 0
2, 105863, Note_on_c, 0, 101, 0
2, 105868, Note_on_c, 0, 98, 0
2, 105870, Note_on_c, 0, 89, 87
2, 105871, Note_on_c, 0, 94, 0
2, 105881, Note_on_c, 0, 89, 0
2, 105891, Note_on_c, 0, 41, 98
2, 105891, Note_on_c, 0, 29, 76
2, 105895, Note_on_c, 0, 89, 78
2, 105900, Note_on_c, 0, 86, 69
2, 105902, Note_on_c, 0, 29, 0
2, 105908, Note_on_c, 0, 41, 0
2, 105917, Note_on_c, 0, 82, 75
2, 105918, Note_on_c, 0, 89, 0
2, 105935, Note_on_c, 0, 86, 0
2, 105938, Note_on_c, 0, 77, 87
2, 105939, Note_on_c, 0, 82, 0
2, 105945, Note_on_c, 0, 77, 0
2, 105960, Control_c, 0, 64, 88
2, 105963, Control_c, 0, 64, 24
2, 105965, Note_on_c, 0, 50, 100
2, 105966, Note_on_c, 0, 38, 81
2, 105967, Note_on_c, 0, 77, 82
2, 105967, Control_c, 0, 64, 0
2, 105971, Note_on_c, 0, 74, 68
2, 105980, Control_c, 0, 64, 56
2, 105982, Control_c, 0, 64, 127
2, 105991, Note_on_c, 0, 70, 64
2, 105993, Note_on_c, 0, 77, 0
2, 105997, Note_on_c, 0, 74, 0
2, 106007, Note_on_c, 0, 70, 0
2, 106008, Note_on_c, 0, 65, 63
2, 106015, Note_on_c, 0, 65, 0
2, 106027, Note_on_c, 0, 65, 66
2, 106033, Note_on_c, 0, 62, 55
2, 106051, Note_on_c, 0, 62, 0
2, 106051, Note_on_c, 0, 58, 67
2, 106054, Note_on_c, 0, 65, 0
2, 106068, Note_on_c, 0, 50, 0
2, 106071, Note_on_c, 0, 58, 0
2, 106073, Note_on_c, 0, 38, 0
2, 106077, Note_on_c, 0, 53, 66
2, 106085, Note_on_c, 0, 53, 0
2, 106105, Note_on_c, 0, 48, 99
2, 106105, Note_on_c, 0, 36, 83
2, 106117, Control_c, 0, 64, 88
2, 106121, Control_c, 0, 64, 24
2, 106125, Control_c, 0, 64, 0
2, 106131, Note_on_c, 0, 55, 80
2, 106151, Note_on_c, 0, 55, 0
2, 106151, Note_on_c, 0, 58, 72
2, 106152, Control_c, 0, 64, 88
2, 106155, Control_c, 0, 64, 127
2, 106172, Note_on_c, 0, 36, 0
2, 106173, Note_on_c, 0, 58, 0
2, 106175, Note_on_c, 0, 64, 73
2, 106175, Note_on_c, 0, 67, 77
2, 106176, Note_on_c, 0, 48, 0
2, 106192, Note_on_c, 0, 58, 77
2, 106206, Note_on_c, 0, 67, 0
2, 106207, Note_on_c, 0, 64, 0
2, 106216, Note_on_c, 0, 55, 86
2, 106224, Note_on_c, 0, 58, 0
2, 106227, Note_on_c, 0, 55, 0
2, 106243, Note_on_c, 0, 49, 101
2, 106243, Note_on_c, 0, 37, 77
2, 106247, Control_c, 0, 64, 104
2, 106250, Control_c, 0, 64, 24
2, 106253, Control_c, 0, 64, 0
2, 106266, Note_on_c, 0, 67, 89
2, 106268, Control_c, 0, 64, 56
2, 106272, Control_c, 0, 64, 127
2, 106281, Note_on_c, 0, 67, 0
2, 106286, Note_on_c, 0, 70, 84
2, 106289, Note_on_c, 0, 37, 0
2, 106300, Note_on_c, 0, 49, 0
2, 106306, Note_on_c, 0, 70, 0
2, 106310, Note_on_c, 0, 79, 85
2, 106311, Note_on_c, 0, 76, 75
2, 106328, Note_on_c, 0, 70, 79
2, 106346, Note_on_c, 0, 79, 0
2, 106351, Note_on_c, 0, 67, 76
2, 106357, Note_on_c, 0, 67, 0
2, 106358, Note_on_c, 0, 70, 0
2, 106360, Note_on_c, 0, 79, 34
2, 106368, Note_on_c, 0, 79, 0
2, 106368, Note_on_c, 0, 76, 0
2, 106368, Note_on_c, 0, 55, 99
2, 106368, Note_on_c, 0, 43, 85
2, 106368, Control_c, 0, 64, 104
2, 106372, Control_c, 0, 64, 24
2, 106376, Control_c, 0, 64, 0
2, 106388, Control_c, 0, 64, 72
2, 106391, Control_c, 0, 64, 127
2, 106395, Note_on_c, 0, 79, 90
2, 106410, Note_on_c, 0, 82, 70
2, 106411, Note_on_c, 0, 79, 0
2, 106414, Note_on_c, 0, 55, 0
2, 106418, Note_on_c, 0, 43, 0
2, 106431, Note_on_c, 0, 82, 0
2, 106433, Note_on_c, 0, 91, 92
2, 106433, Note_on_c, 0, 88, 77
2, 106452, Note_on_c, 0, 82, 87
2, 106473, Note_on_c, 0, 79, 84
2, 106480, Note_on_c, 0, 79, 0
2, 106480, Note_on_c, 0, 82, 0
2, 106490, Note_on_c, 0, 88, 0
2, 106490, Control_c, 0, 64, 104
2, 106491, Note_on_c, 0, 48, 103
2, 106492, Note_on_c, 0, 36, 84
2, 106492, Control_c, 0, 64, 24
2, 106493, Note_on_c, 0, 91, 0
2, 106496, Control_c, 0, 64, 0
2, 106505, Control_c, 0, 64, 72
2, 106508, Control_c, 0, 64, 127
2, 106515, Note_on_c, 0, 91, 103
2, 106532, Note_on_c, 0, 91, 0
2, 106533, Note_on_c, 0, 94, 84
2, 106554, Note_on_c, 0, 94, 0
2, 106556, Note_on_c, 0, 100, 89
2, 106557, Note_on_c, 0, 103, 98
2, 106565, Note_on_c, 0, 36, 0
2, 106566, Note_on_c, 0, 48, 0
2, 106576, Note_on_c, 0, 94, 83
2, 106582, Note_on_c, 0, 103, 0
2, 106588, Note_on_c, 0, 100, 0
2, 106591, Note_on_c, 0, 91, 79
2, 106593, Note_on_c, 0, 94, 0
2, 106597, Note_on_c, 0, 91, 0
2, 106597, Note_on_c, 0, 49, 105
2, 106597, Note_on_c, 0, 37, 82
2, 106604, Note_on_c, 0, 37, 0
2, 106604, Note_on_c, 0, 49, 0
2, 106618, Control_c, 0, 64, 88
2, 106620, Note_on_c, 0, 49, 98
2, 106621, Note_on_c, 0, 37, 75
2, 106622, Control_c, 0, 64, 0
2, 106631, Control_c, 0, 64, 24
2, 106635, Control_c, 0, 64, 88
2, 106637, Control_c, 0, 64, 127
2, 106643, Note_on_c, 0, 53, 88
2, 106647, Note_on_c, 0, 37, 0
2, 106655, Note_on_c, 0, 53, 0
2, 106667, Note_on_c, 0, 58, 78
2, 106668, Note_on_c, 0, 49, 0
2, 106683, Control_c, 0, 64, 24
2, 106687, Note_on_c, 0, 50, 103
2, 106687, Control_c, 0, 64, 0
2, 106690, Note_on_c, 0, 58, 0
2, 106690, Note_on_c, 0, 65, 77
2, 106690, Note_on_c, 0, 38, 80
2, 106691, Note_on_c, 0, 62, 71
2, 106693, Control_c, 0, 64, 24
2, 106696, Note_on_c, 0, 62, 0
2, 106696, Control_c, 0, 64, 88
2, 106698, Note_on_c, 0, 65, 0
2, 106700, Note_on_c, 0, 50, 0
2, 106700, Control_c, 0, 64, 127
2, 106705, Note_on_c, 0, 38, 0
2, 106712, Note_on_c, 0, 65, 84
2, 106728, Note_on_c, 0, 65, 0
2, 106731, Note_on_c, 0, 70, 82
2, 106753, Note_on_c, 0, 77, 84
2, 106753, Control_c, 0, 64, 56
2, 106755, Note_on_c, 0, 74, 73
2, 106756, Note_on_c, 0, 42, 105
2, 106756, Note_on_c, 0, 30, 85
2, 106756, Control_c, 0, 64, 0
2, 106757, Note_on_c, 0, 70, 0
2, 106761, Note_on_c, 0, 74, 0
2, 106764, Note_on_c, 0, 77, 0
2, 106766, Control_c, 0, 64, 88
2, 106768, Control_c, 0, 64, 127
2, 106778, Note_on_c, 0, 77, 97
2, 106796, Note_on_c, 0, 77, 0
2, 106797, Note_on_c, 0, 82, 83
2, 106817, Note_on_c, 0, 86, 73
2, 106818, Note_on_c, 0, 82, 0
2, 106818, Note_on_c, 0, 89, 78
2, 106822, Note_on_c, 0, 86, 0
2, 106823, Note_on_c, 0, 89, 0
2, 106826, Note_on_c, 0, 42, 0
2, 106827, Note_on_c, 0, 30, 0
2, 106836, Note_on_c, 0, 89, 100
2, 106852, Note_on_c, 0, 30, 81
2, 106852, Note_on_c, 0, 42, 98
2, 106855, Note_on_c, 0, 94, 89
2, 106858, Note_on_c, 0, 89, 0
2, 106862, Note_on_c, 0, 30, 0
2, 106862, Note_on_c, 0, 42, 0
2, 106872, Control_c, 0, 64, 72
2, 106875, Note_on_c, 0, 94, 0
2, 106876, Control_c, 0, 64, 0
2, 106881, Note_on_c, 0, 42, 106
2, 106881, Note_on_c, 0, 30, 84
2, 106881, Note_on_c, 0, 98, 94
2, 106881, Note_on_c, 0, 101, 92
2, 106886, Control_c, 0, 64, 24
2, 106888, Control_c, 0, 64, 104
2, 106892, Control_c, 0, 64, 127
2, 106900, Note_on_c, 0, 94, 77
2, 106908, Note_on_c, 0, 30, 0
2, 106912, Note_on_c, 0, 101, 0
2, 106914, Note_on_c, 0, 42, 0
2, 106916, Note_on_c, 0, 98, 0
2, 106918, Note_on_c, 0, 89, 91
2, 106921, Note_on_c, 0, 94, 0
2, 106925, Note_on_c, 0, 89, 0
2, 106941, Note_on_c, 0, 41, 103
2, 106942, Note_on_c, 0, 29, 78
2, 106942, Control_c, 0, 64, 56
2, 106943, Note_on_c, 0, 89, 80
2, 106945, Control_c, 0, 64, 0
2, 106946, Note_on_c, 0, 86, 76
2, 106948, Control_c, 0, 64, 40
2, 106952, Control_c, 0, 64, 72
2, 106954, Note_on_c, 0, 29, 0
2, 106955, Control_c, 0, 64, 127
2, 106959, Note_on_c, 0, 41, 0
2, 106963, Note_on_c, 0, 82, 71
2, 106969, Note_on_c, 0, 89, 0
2, 106974, Note_on_c, 0, 86, 0
2, 106984, Note_on_c, 0, 82, 0
2, 106985, Note_on_c, 0, 77, 89
2, 106990, Note_on_c, 0, 77, 0
2, 107011, Note_on_c, 0, 50, 104
2, 107012, Note_on_c, 0, 38, 85
2, 107012, Note_on_c, 0, 77, 76
2, 107015, Note_on_c, 0, 74, 76
2, 107015, Control_c, 0, 64, 40
2, 107018, Control_c, 0, 64, 0
2, 107027, Control_c, 0, 64, 56
2, 107031, Control_c, 0, 64, 127
2, 107033, Note_on_c, 0, 70, 67
2, 107034, Note_on_c, 0, 77, 0
2, 107041, Note_on_c, 0, 74, 0
2, 107049, Note_on_c, 0, 70, 0
2, 107051, Note_on_c, 0, 65, 75
2, 107056, Note_on_c, 0, 65, 0
2, 107075, Note_on_c, 0, 65, 36
2, 107077, Note_on_c, 0, 62, 63
2, 107080, Note_on_c, 0, 38, 0
2, 107083, Note_on_c, 0, 50, 0
2, 107097, Note_on_c, 0, 58, 63
2, 107107, Note_on_c, 0, 65, 0
2, 107112, Note_on_c, 0, 62, 0
2, 107120, Note_on_c, 0, 53, 79
2, 107122, Note_on_c, 0, 58, 0
2, 107131, Note_on_c, 0, 53, 0
2, 107163, Control_c, 0, 64, 72
2, 107166, Control_c, 0, 64, 127
2, 107170, Note_on_c, 0, 37, 89
2, 107171, Note_on_c, 0, 49, 86
2, 107187, Note_on_c, 0, 37, 0
2, 107188, Note_on_c, 0, 49, 0
2, 107211, Note_on_c, 0, 83, 95
2, 107211, Note_on_c, 0, 71, 76
2, 107218, Note_on_c, 0, 71, 0
2, 107221, Note_on_c, 0, 83, 0
2, 107251, Note_on_c, 0, 74, 97
2, 107251, Note_on_c, 0, 86, 107
2, 107251, Note_on_c, 0, 59, 60
2, 107251, Note_on_c, 0, 69, 65
2, 107251, Note_on_c, 0, 62, 67
2, 107251, Note_on_c, 0, 65, 70
2, 107258, Note_on_c, 0, 62, 0
2, 107261, Note_on_c, 0, 69, 0
2, 107261, Note_on_c, 0, 86, 0
2, 107261, Note_on_c, 0, 74, 0
2, 107266, Note_on_c, 0, 59, 0
2, 107268, Note_on_c, 0, 65, 0
2, 107298, Note_on_c, 0, 93, 107
2, 107300, Note_on_c, 0, 81, 84
2, 107303, Note_on_c, 0, 65, 76
2, 107305, Note_on_c, 0, 59, 71
2, 107306, Note_on_c, 0, 69, 72
2, 107306, Note_on_c, 0, 62, 70
2, 107312, Note_on_c, 0, 81, 0
2, 107314, Note_on_c, 0, 69, 0
2, 107314, Note_on_c, 0, 62, 0
2, 107316, Note_on_c, 0, 65, 0
2, 107320, Note_on_c, 0, 59, 0
2, 107328, Note_on_c, 0, 81, 44
2, 107342, Note_on_c, 0, 69, 64
2, 107343, Note_on_c, 0, 65, 53
2, 107345, Note_on_c, 0, 62, 47
2, 107346, Note_on_c, 0, 59, 43
2, 107353, Note_on_c, 0, 93, 0
2, 107354, Note_on_c, 0, 81, 0
2, 107357, Note_on_c, 0, 62, 0
2, 107357, Note_on_c, 0, 69, 0
2, 107364, Note_on_c, 0, 65, 0
2, 107368, Note_on_c, 0, 59, 0
2, 107386, Note_on_c, 0, 68, 65
2, 107386, Note_on_c, 0, 92, 92
2, 107386, Note_on_c, 0, 80, 83
2, 107388, Note_on_c, 0, 59, 39
2, 107390, Note_on_c, 0, 65, 44
2, 107391, Note_on_c, 0, 62, 39
2, 107396, Note_on_c, 0, 65, 0
2, 107396, Note_on_c, 0, 59, 0
2, 107398, Note_on_c, 0, 68, 0
2, 107398, Note_on_c, 0, 62, 0
2, 107403, Note_on_c, 0, 80, 0
2, 107417, Note_on_c, 0, 92, 0
2, 107418, Control_c, 0, 64, 104
2, 107421, Control_c, 0, 64, 40
2, 107425, Control_c, 0, 64, 0
2, 107431, Note_on_c, 0, 78, 86
2, 107431, Note_on_c, 0, 66, 56
2, 107432, Note_on_c, 0, 62, 54
2, 107435, Note_on_c, 0, 56, 54
2, 107435, Note_on_c, 0, 59, 49
2, 107437, Control_c, 0, 64, 56
2, 107441, Control_c, 0, 64, 127
2, 107448, Note_on_c, 0, 59, 0
2, 107448, Note_on_c, 0, 66, 0
2, 107449, Note_on_c, 0, 78, 0
2, 107449, Note_on_c, 0, 62, 0
2, 107451, Note_on_c, 0, 56, 0
2, 107451, Note_on_c, 0, 92, 98
2, 107470, Note_on_c, 0, 90, 81
2, 107471, Note_on_c, 0, 66, 59
2, 107472, Note_on_c, 0, 56, 54
2, 107473, Note_on_c, 0, 78, 83
2, 107473, Note_on_c, 0, 62, 56
2, 107474, Note_on_c, 0, 92, 0
2, 107476, Note_on_c, 0, 59, 48
2, 107481, Note_on_c, 0, 62, 0
2, 107483, Note_on_c, 0, 59, 0
2, 107484, Note_on_c, 0, 66, 0
2, 107486, Note_on_c, 0, 78, 0
2, 107488, Note_on_c, 0, 90, 0
2, 107489, Note_on_c, 0, 56, 0
2, 107512, Note_on_c, 0, 77, 89
2, 107513, Note_on_c, 0, 89, 94
2, 107513, Note_on_c, 0, 65, 70
2, 107515, Note_on_c, 0, 62, 54
2, 107515, Note_on_c, 0, 56, 47
2, 107515, Note_on_c, 0, 59, 56
2, 107521, Note_on_c, 0, 59, 0
2, 107521, Note_on_c, 0, 62, 0
2, 107524, Note_on_c, 0, 65, 0
2, 107524, Note_on_c, 0, 77, 0
2, 107528, Note_on_c, 0, 89, 0
2, 107528, Note_on_c, 0, 56, 0
2, 107538, Control_c, 0, 64, 104
2, 107541, Control_c, 0, 64, 56
2, 107545, Control_c, 0, 64, 0
2, 107552, Note_on_c, 0, 56, 56
2, 107552, Note_on_c, 0, 62, 73
2, 107553, Note_on_c, 0, 74, 92
2, 107553, Control_c, 0, 64, 24
2, 107555, Note_on_c, 0, 59, 50
2, 107557, Note_on_c, 0, 53, 56
2, 107557, Control_c, 0, 64, 72
2, 107560, Control_c, 0, 64, 127
2, 107561, Note_on_c, 0, 85, 37
2, 107563, Note_on_c, 0, 59, 0
2, 107566, Note_on_c, 0, 85, 0
2, 107568, Note_on_c, 0, 62, 0
2, 107569, Note_on_c, 0, 56, 0
2, 107569, Note_on_c, 0, 53, 0
2, 107570, Note_on_c, 0, 74, 0
2, 107573, Note_on_c, 0, 88, 93
2, 107591, Note_on_c, 0, 86, 89
2, 107593, Note_on_c, 0, 88, 0
2, 107593, Note_on_c, 0, 56, 47
2, 107595, Note_on_c, 0, 62, 66
2, 107597, Note_on_c, 0, 59, 53
2, 107598, Note_on_c, 0, 53, 47
2, 107601, Note_on_c, 0, 74, 62
2, 107605, Note_on_c, 0, 59, 0
2, 107606, Note_on_c, 0, 53, 0
2, 107608, Note_on_c, 0, 86, 0
2, 107608, Note_on_c, 0, 74, 0
2, 107610, Note_on_c, 0, 56, 0
2, 107610, Note_on_c, 0, 62, 0
2, 107638, Note_on_c, 0, 61, 56
2, 107640, Note_on_c, 0, 85, 93
2, 107640, Note_on_c, 0, 53, 52
2, 107641, Note_on_c, 0, 56, 46
2, 107641, Note_on_c, 0, 73, 92
2, 107641, Note_on_c, 0, 59, 51
2, 107645, Note_on_c, 0, 61, 0
2, 107647, Note_on_c, 0, 56, 0
2, 107648, Note_on_c, 0, 59, 0
2, 107652, Note_on_c, 0, 85, 0
2, 107652, Note_on_c, 0, 73, 0
2, 107653, Note_on_c, 0, 53, 0
2, 107671, Control_c, 0, 64, 56
2, 107673, Control_c, 0, 64, 0
2, 107688, Note_on_c, 0, 54, 89
2, 107688, Note_on_c, 0, 42, 86
2, 107693, Note_on_c, 0, 42, 0
2, 107696, Note_on_c, 0, 54, 0
2, 107696, Control_c, 0, 64, 72
2, 107698, Control_c, 0, 64, 127
2, 107727, Note_on_c, 0, 83, 97
2, 107728, Note_on_c, 0, 71, 80
2, 107738, Note_on_c, 0, 71, 0
2, 107742, Note_on_c, 0, 83, 0
2, 107767, Note_on_c, 0, 85, 100
2, 107768, Note_on_c, 0, 73, 95
2, 107772, Note_on_c, 0, 68, 72
2, 107772, Note_on_c, 0, 61, 70
2, 107773, Note_on_c, 0, 59, 72
2, 107775, Note_on_c, 0, 64, 71
2, 107778, Note_on_c, 0, 73, 0
2, 107780, Note_on_c, 0, 59, 0
2, 107782, Note_on_c, 0, 85, 0
2, 107782, Note_on_c, 0, 64, 0
2, 107784, Note_on_c, 0, 68, 0
2, 107785, Note_on_c, 0, 61, 0
2, 107815, Note_on_c, 0, 92, 107
2, 107815, Note_on_c, 0, 80, 105
2, 107820, Note_on_c, 0, 68, 72
2, 107821, Note_on_c, 0, 61, 72
2, 107822, Note_on_c, 0, 59, 71
2, 107823, Note_on_c, 0, 64, 64
2, 107829, Note_on_c, 0, 59, 0
2, 107830, Note_on_c, 0, 64, 0
2, 107836, Note_on_c, 0, 68, 0
2, 107836, Note_on_c, 0, 61, 0
2, 107857, Note_on_c, 0, 68, 89
2, 107862, Note_on_c, 0, 92, 0
2, 107865, Note_on_c, 0, 80, 0
2, 107865, Note_on_c, 0, 64, 50
2, 107865, Note_on_c, 0, 59, 48
2, 107866, Note_on_c, 0, 61, 59
2, 107872, Note_on_c, 0, 64, 0
2, 107873, Note_on_c, 0, 59, 0
2, 107874, Note_on_c, 0, 61, 0
2, 107880, Note_on_c, 0, 68, 0
2, 107900, Note_on_c, 0, 91, 99
2, 107901, Note_on_c, 0, 61, 52
2, 107901, Note_on_c, 0, 79, 92
2, 107902, Note_on_c, 0, 67, 73
2, 107902, Note_on_c, 0, 59, 67
2, 107905, Note_on_c, 0, 64, 59
2, 107908, Note_on_c, 0, 67, 0
2, 107911, Note_on_c, 0, 64, 0
2, 107913, Note_on_c, 0, 79, 0
2, 107913, Note_on_c, 0, 91, 0
2, 107916, Note_on_c, 0, 61, 0
2, 107917, Note_on_c, 0, 59, 0
2, 107935, Control_c, 0, 64, 88
2, 107938, Control_c, 0, 64, 24
2, 107941, Control_c, 0, 64, 0
2, 107948, Note_on_c, 0, 54, 84
2, 107950, Note_on_c, 0, 42, 87
2, 107956, Note_on_c, 0, 54, 0
2, 107957, Control_c, 0, 64, 40
2, 107958, Note_on_c, 0, 42, 0
2, 107960, Control_c, 0, 64, 127
2, 107986, Note_on_c, 0, 70, 88
2, 107986, Note_on_c, 0, 82, 98
2, 107999, Note_on_c, 0, 70, 0
2, 108001, Note_on_c, 0, 82, 0
2, 108026, Note_on_c, 0, 61, 63
2, 108027, Note_on_c, 0, 73, 89
2, 108027, Note_on_c, 0, 85, 99
2, 108028, Note_on_c, 0, 64, 71
2, 108028, Note_on_c, 0, 58, 71
2, 108030, Note_on_c, 0, 67, 74
2, 108036, Note_on_c, 0, 64, 0
2, 108038, Note_on_c, 0, 67, 0
2, 108039, Note_on_c, 0, 73, 0
2, 108041, Note_on_c, 0, 61, 0
2, 108041, Note_on_c, 0, 58, 0
2, 108042, Note_on_c, 0, 85, 0
2, 108071, Note_on_c, 0, 91, 106
2, 108073, Note_on_c, 0, 79, 92
2, 108073, Note_on_c, 0, 58, 56
2, 108075, Note_on_c, 0, 67, 74
2, 108075, Note_on_c, 0, 64, 68
2, 108075, Note_on_c, 0, 61, 49
2, 108083, Note_on_c, 0, 64, 0
2, 108085, Note_on_c, 0, 61, 0
2, 108086, Note_on_c, 0, 58, 0
2, 108086, Note_on_c, 0, 67, 0
2, 108113, Note_on_c, 0, 67, 73
2, 108115, Note_on_c, 0, 61, 53
2, 108116, Note_on_c, 0, 64, 70
2, 108118, Note_on_c, 0, 58, 71
2, 108123, Note_on_c, 0, 91, 0
2, 108126, Note_on_c, 0, 64, 0
2, 108126, Note_on_c, 0, 79, 0
2, 108126, Note_on_c, 0, 58, 0
2, 108128, Note_on_c, 0, 61, 0
2, 108128, Note_on_c, 0, 67, 0
2, 108155, Note_on_c, 0, 66, 66
2, 108155, Note_on_c, 0, 58, 63
2, 108156, Note_on_c, 0, 78, 90
2, 108156, Note_on_c, 0, 90, 90
2, 108161, Note_on_c, 0, 66, 0
2, 108166, Note_on_c, 0, 58, 0
2, 108168, Note_on_c, 0, 78, 0
2, 108168, Note_on_c, 0, 90, 0
2, 108190, Control_c, 0, 64, 104
2, 108192, Control_c, 0, 64, 56
2, 108196, Control_c, 0, 64, 0
2, 108203, Note_on_c, 0, 35, 92
2, 108208, Note_on_c, 0, 47, 89
2, 108213, Note_on_c, 0, 35, 0
2, 108215, Control_c, 0, 64, 72
2, 108217, Control_c, 0, 64, 127
2, 108218, Note_on_c, 0, 47, 0
2, 108238, Note_on_c, 0, 69, 78
2, 108238, Note_on_c, 0, 81, 95
2, 108250, Note_on_c, 0, 69, 0
2, 108254, Note_on_c, 0, 81, 0
2, 108277, Note_on_c, 0, 84, 104
2, 108277, Note_on_c, 0, 72, 96
2, 108281, Note_on_c, 0, 68, 83
2, 108283, Note_on_c, 0, 63, 64
2, 108283, Note_on_c, 0, 57, 57
2, 108285, Note_on_c, 0, 60, 60
2, 108288, Note_on_c, 0, 72, 0
2, 108291, Note_on_c, 0, 57, 0
2, 108293, Note_on_c, 0, 84, 0
2, 108293, Note_on_c, 0, 60, 0
2, 108296, Note_on_c, 0, 63, 0
2, 108298, Note_on_c, 0, 68, 0
2, 108327, Note_on_c, 0, 92, 106
2, 108327, Note_on_c, 0, 80, 94
2, 108331, Note_on_c, 0, 68, 68
2, 108332, Note_on_c, 0, 63, 54
2, 108333, Note_on_c, 0, 57, 50
2, 108335, Note_on_c, 0, 60, 57
2, 108341, Note_on_c, 0, 57, 0
2, 108342, Note_on_c, 0, 60, 0
2, 108347, Note_on_c, 0, 68, 0
2, 108348, Note_on_c, 0, 63, 0
2, 108370, Note_on_c, 0, 68, 80
2, 108371, Note_on_c, 0, 63, 59
2, 108375, Note_on_c, 0, 57, 48
2, 108376, Note_on_c, 0, 60, 46
2, 108382, Note_on_c, 0, 80, 0
2, 108384, Note_on_c, 0, 60, 0
2, 108386, Note_on_c, 0, 68, 0
2, 108388, Note_on_c, 0, 57, 0
2, 108389, Note_on_c, 0, 63, 0
2, 108393, Note_on_c, 0, 92, 0
2, 108407, Note_on_c, 0, 66, 64
2, 108407, Note_on_c, 0, 90, 90
2, 108408, Note_on_c, 0, 78, 87
2, 108410, Note_on_c, 0, 63, 42
2, 108412, Note_on_c, 0, 60, 48
2, 108416, Note_on_c, 0, 63, 0
2, 108418, Note_on_c, 0, 60, 0
2, 108421, Note_on_c, 0, 78, 0
2, 108425, Note_on_c, 0, 66, 0
2, 108430, Note_on_c, 0, 90, 0
2, 108435, Control_c, 0, 64, 72
2, 108438, Control_c, 0, 64, 0
2, 108447, Note_on_c, 0, 76, 90
2, 108450, Note_on_c, 0, 64, 76
2, 108453, Note_on_c, 0, 60, 47
2, 108455, Note_on_c, 0, 54, 45
2, 108455, Control_c, 0, 64, 56
2, 108457, Control_c, 0, 64, 127
2, 108458, Note_on_c, 0, 57, 39
2, 108464, Note_on_c, 0, 76, 0
2, 108465, Note_on_c, 0, 60, 0
2, 108465, Note_on_c, 0, 90, 89
2, 108466, Note_on_c, 0, 57, 0
2, 108466, Note_on_c, 0, 64, 0
2, 108472, Note_on_c, 0, 54, 0
2, 108482, Note_on_c, 0, 88, 83
2, 108486, Note_on_c, 0, 90, 0
2, 108487, Note_on_c, 0, 64, 84
2, 108488, Note_on_c, 0, 60, 69
2, 108490, Note_on_c, 0, 57, 59
2, 108490, Note_on_c, 0, 54, 45
2, 108496, Note_on_c, 0, 60, 0
2, 108497, Note_on_c, 0, 88, 0
2, 108500, Note_on_c, 0, 64, 0
2, 108501, Note_on_c, 0, 54, 0
2, 108501, Note_on_c, 0, 57, 0
2, 108523, Note_on_c, 0, 87, 90
2, 108525, Note_on_c, 0, 75, 87
2, 108528, Note_on_c, 0, 54, 44
2, 108528, Note_on_c, 0, 63, 57
2, 108530, Note_on_c, 0, 57, 43
2, 108533, Note_on_c, 0, 60, 37
2, 108536, Note_on_c, 0, 87, 0
2, 108537, Note_on_c, 0, 75, 0
2, 108538, Note_on_c, 0, 57, 0
2, 108538, Note_on_c, 0, 63, 0
2, 108538, Note_on_c, 0, 60, 0
2, 108543, Note_on_c, 0, 54, 0
2, 108561, Control_c, 0, 64, 56
2, 108565, Control_c, 0, 64, 0
2, 108566, Note_on_c, 0, 54, 67
2, 108567, Note_on_c, 0, 72, 96
2, 108567, Note_on_c, 0, 60, 80
2, 108570, Note_on_c, 0, 57, 63
2, 108571, Note_on_c, 0, 51, 63
2, 108577, Control_c, 0, 64, 56
2, 108581, Note_on_c, 0, 57, 0
2, 108581, Control_c, 0, 64, 104
2, 108583, Control_c, 0, 64, 127
2, 108587, Note_on_c, 0, 60, 0
2, 108588, Note_on_c, 0, 54, 0
2, 108588, Note_on_c, 0, 72, 0
2, 108588, Note_on_c, 0, 51, 0
2, 108588, Note_on_c, 0, 86, 91
2, 108601, Note_on_c, 0, 84, 91
2, 108606, Note_on_c, 0, 86, 0
2, 108610, Note_on_c, 0, 60, 60
2, 108611, Note_on_c, 0, 54, 41
2, 108611, Note_on_c, 0, 51, 38
2, 108616, Note_on_c, 0, 84, 0
2, 108619, Note_on_c, 0, 51, 0
2, 108619, Note_on_c, 0, 54, 0
2, 108620, Note_on_c, 0, 60, 0
2, 108643, Note_on_c, 0, 83, 97
2, 108645, Note_on_c, 0, 59, 75
2, 108645, Note_on_c, 0, 71, 80
2, 108645, Note_on_c, 0, 54, 60
2, 108646, Note_on_c, 0, 51, 59
2, 108652, Note_on_c, 0, 59, 0
2, 108653, Note_on_c, 0, 71, 0
2, 108654, Note_on_c, 0, 83, 0
2, 108656, Note_on_c, 0, 54, 0
2, 108658, Note_on_c, 0, 51, 0
2, 108683, Control_c, 0, 64, 88
2, 108687, Control_c, 0, 64, 24
2, 108690, Control_c, 0, 64, 0
2, 108691, Note_on_c, 0, 40, 88
2, 108695, Note_on_c, 0, 52, 88
2, 108703, Note_on_c, 0, 40, 0
2, 108706, Control_c, 0, 64, 56
2, 108708, Control_c, 0, 64, 127
2, 108710, Note_on_c, 0, 52, 0
2, 108730, Note_on_c, 0, 81, 96
2, 108730, Note_on_c, 0, 69, 91
2, 108743, Note_on_c, 0, 69, 0
2, 108748, Note_on_c, 0, 81, 0
2, 108771, Note_on_c, 0, 71, 81
2, 108772, Note_on_c, 0, 83, 99
2, 108773, Note_on_c, 0, 66, 75
2, 108777, Note_on_c, 0, 62, 68
2, 108777, Note_on_c, 0, 57, 56
2, 108778, Note_on_c, 0, 59, 49
2, 108782, Note_on_c, 0, 71, 0
2, 108783, Note_on_c, 0, 62, 0
2, 108784, Note_on_c, 0, 57, 0
2, 108785, Note_on_c, 0, 59, 0
2, 108788, Note_on_c, 0, 83, 0
2, 108790, Note_on_c, 0, 66, 0
2, 108822, Control_c, 0, 64, 104
2, 108825, Note_on_c, 0, 90, 101
2, 108825, Note_on_c, 0, 78, 92
2, 108826, Note_on_c, 0, 66, 71
2, 108826, Control_c, 0, 64, 56
2, 108828, Note_on_c, 0, 62, 65
2, 108828, Note_on_c, 0, 57, 58
2, 108828, Note_on_c, 0, 59, 54
2, 108828, Control_c, 0, 64, 40
2, 108832, Control_c, 0, 64, 56
2, 108835, Control_c, 0, 64, 104
2, 108838, Note_on_c, 0, 57, 0
2, 108838, Control_c, 0, 64, 127
2, 108842, Note_on_c, 0, 66, 0
2, 108844, Note_on_c, 0, 62, 0
2, 108844, Note_on_c, 0, 59, 0
2, 108863, Note_on_c, 0, 66, 73
2, 108866, Note_on_c, 0, 62, 52
2, 108867, Note_on_c, 0, 57, 40
2, 108868, Note_on_c, 0, 59, 46
2, 108876, Note_on_c, 0, 78, 0
2, 108880, Note_on_c, 0, 57, 0
2, 108880, Note_on_c, 0, 59, 0
2, 108881, Note_on_c, 0, 66, 0
2, 108882, Note_on_c, 0, 90, 0
2, 108883, Note_on_c, 0, 62, 0
2, 108903, Note_on_c, 0, 89, 93
2, 108905, Note_on_c, 0, 65, 81
2, 108905, Note_on_c, 0, 57, 63
2, 108906, Note_on_c, 0, 77, 88
2, 108908, Note_on_c, 0, 62, 44
2, 108908, Note_on_c, 0, 59, 41
2, 108913, Note_on_c, 0, 65, 0
2, 108914, Note_on_c, 0, 59, 0
2, 108915, Note_on_c, 0, 89, 0
2, 108915, Note_on_c, 0, 62, 0
2, 108917, Note_on_c, 0, 77, 0
2, 108918, Note_on_c, 0, 57, 0
2, 108948, Control_c, 0, 64, 56
2, 108952, Control_c, 0, 64, 0
2, 108953, Note_on_c, 0, 40, 85
2, 108955, Note_on_c, 0, 52, 84
2, 108960, Note_on_c, 0, 40, 0
2, 108967, Control_c, 0, 64, 72
2, 108970, Note_on_c, 0, 52, 0
2, 108971, Control_c, 0, 64, 127
2, 108986, Note_on_c, 0, 68, 81
2, 108986, Note_on_c, 0, 80, 96
2, 108999, Note_on_c, 0, 68, 0
2, 109002, Note_on_c, 0, 80, 0
2, 109025, Note_on_c, 0, 83, 106
2, 109026, Note_on_c, 0, 71, 91
2, 109027, Note_on_c, 0, 65, 65
2, 109027, Note_on_c, 0, 56, 54
2, 109028, Note_on_c, 0, 62, 54
2, 109030, Note_on_c, 0, 59, 48
2, 109034, Note_on_c, 0, 71, 0
2, 109037, Note_on_c, 0, 83, 0
2, 109037, Note_on_c, 0, 59, 0
2, 109038, Note_on_c, 0, 62, 0
2, 109040, Note_on_c, 0, 65, 0
2, 109042, Note_on_c, 0, 56, 0
2, 109071, Note_on_c, 0, 56, 62
2, 109071, Note_on_c, 0, 65, 78
2, 109072, Note_on_c, 0, 62, 69
2, 109073, Note_on_c, 0, 59, 62
2, 109078, Note_on_c, 0, 89, 103
2, 109080, Note_on_c, 0, 77, 87
2, 109091, Note_on_c, 0, 77, 0
2, 109092, Note_on_c, 0, 56, 0
2, 109093, Note_on_c, 0, 59, 0
2, 109093, Note_on_c, 0, 65, 0
2, 109093, Note_on_c, 0, 62, 0
2, 109109, Note_on_c, 0, 89, 0
2, 109115, Note_on_c, 0, 65, 65
2, 109115, Note_on_c, 0, 56, 46
2, 109116, Note_on_c, 0, 62, 51
2, 109116, Note_on_c, 0, 59, 55
2, 109128, Note_on_c, 0, 65, 0
2, 109131, Note_on_c, 0, 62, 0
2, 109132, Note_on_c, 0, 56, 0
2, 109133, Note_on_c, 0, 59, 0
2, 109153, Note_on_c, 0, 64, 81
2, 109153, Note_on_c, 0, 88, 93
2, 109153, Note_on_c, 0, 56, 57
2, 109155, Note_on_c, 0, 76, 88
2, 109156, Note_on_c, 0, 62, 64
2, 109158, Note_on_c, 0, 59, 56
2, 109162, Note_on_c, 0, 62, 0
2, 109164, Note_on_c, 0, 59, 0
2, 109165, Note_on_c, 0, 64, 0
2, 109165, Note_on_c, 0, 88, 0
2, 109167, Note_on_c, 0, 76, 0
2, 109170, Note_on_c, 0, 56, 0
2, 109190, Control_c, 0, 64, 88
2, 109193, Control_c, 0, 64, 0
2, 109200, Note_on_c, 0, 46, 92
2, 109202, Note_on_c, 0, 34, 94
2, 109205, Note_on_c, 0, 46, 0
2, 109207, Note_on_c, 0, 34, 0
2, 109212, Control_c, 0, 64, 104
2, 109216, Control_c, 0, 64, 127
2, 109240, Note_on_c, 0, 79, 96
2, 109240, Note_on_c, 0, 67, 82
2, 109250, Note_on_c, 0, 67, 0
2, 109251, Note_on_c, 0, 79, 0
2, 109277, Note_on_c, 0, 82, 87
2, 109277, Note_on_c, 0, 70, 87
2, 109280, Note_on_c, 0, 65, 73
2, 109280, Note_on_c, 0, 58, 49
2, 109281, Note_on_c, 0, 61, 50
2, 109282, Note_on_c, 0, 55, 64
2, 109288, Note_on_c, 0, 61, 0
2, 109289, Note_on_c, 0, 70, 0
2, 109289, Note_on_c, 0, 55, 0
2, 109290, Note_on_c, 0, 65, 0
2, 109292, Note_on_c, 0, 58, 0
2, 109293, Note_on_c, 0, 82, 0
2, 109323, Note_on_c, 0, 89, 106
2, 109325, Note_on_c, 0, 77, 95
2, 109326, Note_on_c, 0, 65, 74
2, 109327, Note_on_c, 0, 58, 48
2, 109327, Note_on_c, 0, 55, 63
2, 109328, Note_on_c, 0, 61, 50
2, 109335, Note_on_c, 0, 55, 0
2, 109336, Note_on_c, 0, 77, 0
2, 109338, Note_on_c, 0, 61, 0
2, 109340, Note_on_c, 0, 58, 0
2, 109341, Note_on_c, 0, 65, 0
2, 109365, Note_on_c, 0, 65, 71
2, 109366, Note_on_c, 0, 58, 49
2, 109367, Note_on_c, 0, 61, 49
2, 109367, Note_on_c, 0, 55, 61
2, 109371, Note_on_c, 0, 89, 0
2, 109375, Note_on_c, 0, 55, 0
2, 109377, Note_on_c, 0, 61, 0
2, 109378, Note_on_c, 0, 65, 0
2, 109381, Note_on_c, 0, 58, 0
2, 109403, Note_on_c, 0, 88, 90
2, 109403, Note_on_c, 0, 58, 56
2, 109405, Note_on_c, 0, 76, 80
2, 109406, Note_on_c, 0, 64, 69
2, 109410, Note_on_c, 0, 55, 44
2, 109412, Note_on_c, 0, 64, 0
2, 109417, Note_on_c, 0, 76, 0
2, 109417, Note_on_c, 0, 55, 0
2, 109418, Note_on_c, 0, 88, 0
2, 109419, Note_on_c, 0, 58, 0
2, 109433, Control_c, 0, 64, 104
2, 109436, Control_c, 0, 64, 88
2, 109440, Control_c, 0, 64, 56
2, 109442, Control_c, 0, 64, 40
2, 109445, Note_on_c, 0, 63, 73
2, 109445, Note_on_c, 0, 87, 88
2, 109445, Note_on_c, 0, 58, 59
2, 109446, Note_on_c, 0, 75, 88
2, 109446, Control_c, 0, 64, 0
2, 109447, Note_on_c, 0, 55, 71
2, 109455, Note_on_c, 0, 55, 0
2, 109457, Note_on_c, 0, 63, 0
2, 109459, Note_on_c, 0, 75, 0
2, 109460, Note_on_c, 0, 58, 0
2, 109465, Note_on_c, 0, 87, 0
2, 109483, Note_on_c, 0, 58, 62
2, 109483, Note_on_c, 0, 62, 79
2, 109485, Note_on_c, 0, 86, 99
2, 109486, Note_on_c, 0, 55, 62
2, 109486, Note_on_c, 0, 74, 83
2, 109493, Note_on_c, 0, 55, 0
2, 109496, Note_on_c, 0, 62, 0
2, 109496, Note_on_c, 0, 58, 0
2, 109496, Note_on_c, 0, 74, 0
2, 109498, Note_on_c, 0, 86, 0
2, 109525, Note_on_c, 0, 85, 96
2, 109526, Note_on_c, 0, 73, 92
2, 109526, Note_on_c, 0, 58, 66
2, 109526, Note_on_c, 0, 61, 68
2, 109528, Note_on_c, 0, 55, 64
2, 109533, Note_on_c, 0, 73, 0
2, 109535, Note_on_c, 0, 55, 0
2, 109537, Note_on_c, 0, 85, 0
2, 109539, Note_on_c, 0, 61, 0
2, 109542, Note_on_c, 0, 58, 0
2, 109571, Note_on_c, 0, 89, 107
2, 109571, Note_on_c, 0, 77, 103
2, 109571, Control_c, 0, 64, 40
2, 109572, Note_on_c, 0, 85, 79
2, 109572, Note_on_c, 0, 65, 78
2, 109572, Note_on_c, 0, 82, 73
2, 109573, Note_on_c, 0, 58, 61
2, 109573, Note_on_c, 0, 61, 61
2, 109573, Note_on_c, 0, 55, 73
2, 109575, Control_c, 0, 64, 104
2, 109577, Control_c, 0, 64, 127
2, 109602, Note_on_c, 0, 65, 0
2, 109613, Note_on_c, 0, 89, 0
2, 109616, Note_on_c, 0, 77, 0
2, 109628, Note_on_c, 0, 55, 0
2, 109640, Note_on_c, 0, 85, 0
2, 109645, Note_on_c, 0, 82, 0
2, 109651, Note_on_c, 0, 88, 92
2, 109652, Note_on_c, 0, 64, 59
2, 109652, Note_on_c, 0, 55, 51
2, 109653, Note_on_c, 0, 76, 84
2, 109658, Note_on_c, 0, 64, 0
2, 109660, Note_on_c, 0, 61, 0
2, 109662, Note_on_c, 0, 55, 0
2, 109663, Note_on_c, 0, 58, 0
2, 109663, Note_on_c, 0, 88, 0
2, 109664, Note_on_c, 0, 76, 0
2, 109676, Control_c, 0, 64, 104
2, 109678, Control_c, 0, 64, 72
2, 109682, Control_c, 0, 64, 24
2, 109685, Control_c, 0, 64, 0
2, 109696, Note_on_c, 0, 46, 88
2, 109698, Note_on_c, 0, 34, 91
2, 109701, Control_c, 0, 64, 40
2, 109703, Note_on_c, 0, 46, 0
2, 109703, Control_c, 0, 64, 104
2, 109705, Note_on_c, 0, 34, 0
2, 109707, Control_c, 0, 64, 127
2, 109735, Note_on_c, 0, 79, 96
2, 109735, Note_on_c, 0, 67, 81
2, 109743, Note_on_c, 0, 67, 0
2, 109747, Note_on_c, 0, 79, 0
2, 109773, Note_on_c, 0, 70, 92
2, 109773, Note_on_c, 0, 82, 96
2, 109777, Note_on_c, 0, 65, 78
2, 109777, Note_on_c, 0, 58, 55
2, 109778, Note_on_c, 0, 61, 49
2, 109781, Note_on_c, 0, 55, 52
2, 109784, Note_on_c, 0, 70, 0
2, 109785, Note_on_c, 0, 61, 0
2, 109787, Note_on_c, 0, 55, 0
2, 109788, Note_on_c, 0, 65, 0
2, 109788, Note_on_c, 0, 82, 0
2, 109789, Note_on_c, 0, 58, 0
2, 109818, Note_on_c, 0, 89, 107
2, 109822, Note_on_c, 0, 58, 56
2, 109822, Note_on_c, 0, 65, 79
2, 109822, Note_on_c, 0, 79, 63
2, 109823, Note_on_c, 0, 61, 52
2, 109823, Note_on_c, 0, 55, 65
2, 109829, Note_on_c, 0, 79, 0
2, 109834, Note_on_c, 0, 61, 0
2, 109834, Note_on_c, 0, 55, 0
2, 109835, Note_on_c, 0, 65, 0
2, 109837, Note_on_c, 0, 58, 0
2, 109845, Note_on_c, 0, 77, 32
2, 109861, Note_on_c, 0, 65, 73
2, 109862, Note_on_c, 0, 58, 52
2, 109863, Note_on_c, 0, 89, 0
2, 109863, Note_on_c, 0, 55, 54
2, 109863, Note_on_c, 0, 61, 46
2, 109870, Note_on_c, 0, 61, 0
2, 109870, Note_on_c, 0, 77, 0
2, 109873, Note_on_c, 0, 55, 0
2, 109875, Note_on_c, 0, 58, 0
2, 109876, Note_on_c, 0, 65, 0
2, 109898, Note_on_c, 0, 88, 92
2, 109901, Note_on_c, 0, 76, 81
2, 109901, Note_on_c, 0, 58, 53
2, 109902, Note_on_c, 0, 64, 73
2, 109907, Note_on_c, 0, 55, 37
2, 109910, Note_on_c, 0, 64, 0
2, 109911, Note_on_c, 0, 76, 0
2, 109913, Note_on_c, 0, 55, 0
2, 109914, Note_on_c, 0, 88, 0
2, 109917, Note_on_c, 0, 58, 0
2, 109923, Control_c, 0, 64, 88
2, 109927, Control_c, 0, 64, 56
2, 109930, Control_c, 0, 64, 40
2, 109933, Control_c, 0, 64, 24
2, 109936, Control_c, 0, 64, 0
2, 109941, Note_on_c, 0, 58, 63
2, 109941, Note_on_c, 0, 63, 74
2, 109941, Note_on_c, 0, 87, 94
2, 109942, Note_on_c, 0, 75, 97
2, 109943, Note_on_c, 0, 55, 65
2, 109950, Note_on_c, 0, 55, 0
2, 109956, Note_on_c, 0, 63, 0
2, 109957, Note_on_c, 0, 58, 0
2, 109957, Note_on_c, 0, 75, 0
2, 109961, Note_on_c, 0, 87, 0
2, 109981, Note_on_c, 0, 58, 65
2, 109982, Note_on_c, 0, 62, 77
2, 109983, Note_on_c, 0, 86, 98
2, 109985, Note_on_c, 0, 74, 87
2, 109985, Note_on_c, 0, 55, 65
2, 109992, Note_on_c, 0, 55, 0
2, 109995, Note_on_c, 0, 62, 0
2, 109995, Note_on_c, 0, 74, 0
2, 109996, Note_on_c, 0, 86, 0
2, 109998, Note_on_c, 0, 58, 0
2, 110023, Note_on_c, 0, 73, 88
2, 110025, Note_on_c, 0, 85, 95
2, 110025, Note_on_c, 0, 58, 60
2, 110026, Note_on_c, 0, 61, 66
2, 110027, Note_on_c, 0, 55, 65
2, 110034, Note_on_c, 0, 55, 0
2, 110034, Note_on_c, 0, 73, 0
2, 110037, Note_on_c, 0, 85, 0
2, 110038, Note_on_c, 0, 61, 0
2, 110040, Note_on_c, 0, 58, 0
2, 110068, Note_on_c, 0, 89, 107
2, 110068, Control_c, 0, 64, 24
2, 110070, Note_on_c, 0, 77, 103
2, 110070, Note_on_c, 0, 85, 81
2, 110071, Note_on_c, 0, 58, 55
2, 110071, Note_on_c, 0, 65, 72
2, 110071, Note_on_c, 0, 82, 71
2, 110072, Note_on_c, 0, 61, 56
2, 110072, Control_c, 0, 64, 56
2, 110073, Note_on_c, 0, 55, 68
2, 110075, Control_c, 0, 64, 104
2, 110078, Control_c, 0, 64, 127
2, 110101, Note_on_c, 0, 65, 0
2, 110111, Note_on_c, 0, 89, 0
2, 110118, Note_on_c, 0, 77, 0
2, 110130, Note_on_c, 0, 55, 0
2, 110137, Note_on_c, 0, 61, 0
2, 110139, Note_on_c, 0, 82, 0
2, 110142, Note_on_c, 0, 85, 0
2, 110150, Note_on_c, 0, 88, 97
2, 110151, Note_on_c, 0, 76, 90
2, 110152, Note_on_c, 0, 64, 55
2, 110158, Note_on_c, 0, 64, 0
2, 110158, Note_on_c, 0, 58, 0
2, 110162, Note_on_c, 0, 76, 0
2, 110163, Control_c, 0, 64, 104
2, 110165, Note_on_c, 0, 88, 0
2, 110167, Control_c, 0, 64, 72
2, 110170, Control_c, 0, 64, 56
2, 110173, Control_c, 0, 64, 24
2, 110176, Control_c, 0, 64, 0
2, 110197, Note_on_c, 0, 89, 103
2, 110198, Note_on_c, 0, 77, 96
2, 110198, Control_c, 0, 64, 40
2, 110200, Note_on_c, 0, 49, 68
2, 110201, Control_c, 0, 64, 104
2, 110205, Control_c, 0, 64, 127
2, 110210, Note_on_c, 0, 77, 0
2, 110212, Note_on_c, 0, 49, 0
2, 110212, Note_on_c, 0, 89, 0
2, 110241, Note_on_c, 0, 85, 81
2, 110242, Note_on_c, 0, 73, 75
2, 110242, Control_c, 0, 64, 104
2, 110243, Note_on_c, 0, 58, 49
2, 110243, Note_on_c, 0, 65, 66
2, 110243, Note_on_c, 0, 82, 59
2, 110246, Control_c, 0, 64, 72
2, 110248, Control_c, 0, 64, 40
2, 110249, Note_on_c, 0, 82, 0
2, 110252, Note_on_c, 0, 73, 0
2, 110252, Control_c, 0, 64, 24
2, 110253, Note_on_c, 0, 85, 0
2, 110254, Note_on_c, 0, 65, 0
2, 110255, Control_c, 0, 64, 0
2, 110258, Note_on_c, 0, 58, 0
2, 110283, Note_on_c, 0, 85, 79
2, 110283, Note_on_c, 0, 73, 78
2, 110285, Note_on_c, 0, 65, 68
2, 110286, Note_on_c, 0, 82, 53
2, 110286, Note_on_c, 0, 58, 54
2, 110289, Note_on_c, 0, 73, 0
2, 110291, Note_on_c, 0, 82, 0
2, 110292, Note_on_c, 0, 65, 0
2, 110293, Note_on_c, 0, 58, 0
2, 110298, Note_on_c, 0, 85, 0
2, 110315, Control_c, 0, 64, 40
2, 110318, Control_c, 0, 64, 104
2, 110321, Note_on_c, 0, 89, 97
2, 110321, Control_c, 0, 64, 127
2, 110322, Note_on_c, 0, 49, 80
2, 110322, Note_on_c, 0, 77, 89
2, 110332, Note_on_c, 0, 49, 0
2, 110335, Note_on_c, 0, 77, 0
2, 110338, Note_on_c, 0, 89, 0
2, 110362, Note_on_c, 0, 55, 66
2, 110363, Note_on_c, 0, 88, 89
2, 110365, Note_on_c, 0, 64, 57
2, 110365, Note_on_c, 0, 82, 68
2, 110365, Control_c, 0, 64, 104
2, 110366, Note_on_c, 0, 76, 71
2, 110367, Note_on_c, 0, 58, 30
2, 110367, Control_c, 0, 64, 72
2, 110371, Control_c, 0, 64, 40
2, 110372, Note_on_c, 0, 58, 0
2, 110372, Note_on_c, 0, 64, 0
2, 110373, Note_on_c, 0, 76, 0
2, 110373, Note_on_c, 0, 55, 0
2, 110375, Note_on_c, 0, 88, 0
2, 110375, Control_c, 0, 64, 0
2, 110377, Note_on_c, 0, 82, 0
2, 110405, Note_on_c, 0, 58, 72
2, 110406, Note_on_c, 0, 88, 95
2, 110407, Note_on_c, 0, 64, 70
2, 110407, Note_on_c, 0, 76, 86
2, 110410, Note_on_c, 0, 82, 64
2, 110413, Note_on_c, 0, 64, 0
2, 110415, Note_on_c, 0, 76, 0
2, 110415, Note_on_c, 0, 82, 0
2, 110418, Note_on_c, 0, 88, 0
2, 110418, Note_on_c, 0, 58, 0
2, 110446, Control_c, 0, 64, 40
2, 110447, Note_on_c, 0, 89, 95
2, 110448, Note_on_c, 0, 49, 78
2, 110450, Control_c, 0, 64, 127
2, 110451, Note_on_c, 0, 77, 80
2, 110456, Note_on_c, 0, 49, 0
2, 110462, Note_on_c, 0, 77, 0
2, 110463, Note_on_c, 0, 89, 0
2, 110491, Note_on_c, 0, 85, 83
2, 110492, Note_on_c, 0, 58, 59
2, 110492, Note_on_c, 0, 65, 63
2, 110493, Control_c, 0, 64, 88
2, 110495, Note_on_c, 0, 73, 47
2, 110497, Control_c, 0, 64, 56
2, 110499, Note_on_c, 0, 65, 0
2, 110500, Note_on_c, 0, 58, 0
2, 110500, Control_c, 0, 64, 24
2, 110501, Note_on_c, 0, 73, 0
2, 110503, Note_on_c, 0, 85, 0
2, 110503, Control_c, 0, 64, 0
2, 110533, Note_on_c, 0, 85, 79
2, 110533, Note_on_c, 0, 73, 74
2, 110535, Note_on_c, 0, 65, 69
2, 110535, Note_on_c, 0, 61, 66
2, 110536, Note_on_c, 0, 82, 52
2, 110539, Note_on_c, 0, 73, 0
2, 110540, Note_on_c, 0, 61, 0
2, 110542, Note_on_c, 0, 82, 0
2, 110542, Note_on_c, 0, 65, 0
2, 110546, Note_on_c, 0, 85, 0
2, 110566, Control_c, 0, 64, 24
2, 110570, Control_c, 0, 64, 88
2, 110572, Control_c, 0, 64, 127
2, 110573, Note_on_c, 0, 89, 95
2, 110573, Note_on_c, 0, 49, 86
2, 110575, Note_on_c, 0, 77, 86
2, 110583, Note_on_c, 0, 49, 0
2, 110586, Note_on_c, 0, 89, 0
2, 110588, Note_on_c, 0, 77, 0
2, 110612, Note_on_c, 0, 55, 78
2, 110613, Note_on_c, 0, 88, 85
2, 110613, Note_on_c, 0, 64, 68
2, 110613, Control_c, 0, 64, 88
2, 110615, Note_on_c, 0, 76, 72
2, 110616, Note_on_c, 0, 82, 60
2, 110617, Control_c, 0, 64, 56
2, 110618, Note_on_c, 0, 55, 0
2, 110620, Note_on_c, 0, 64, 0
2, 110620, Control_c, 0, 64, 24
2, 110622, Control_c, 0, 64, 0
2, 110623, Note_on_c, 0, 82, 0
2, 110625, Note_on_c, 0, 76, 0
2, 110626, Note_on_c, 0, 88, 0
2, 110655, Note_on_c, 0, 88, 96
2, 110655, Note_on_c, 0, 58, 63
2, 110656, Note_on_c, 0, 64, 71
2, 110656, Note_on_c, 0, 76, 74
2, 110658, Note_on_c, 0, 82, 54
2, 110660, Note_on_c, 0, 58, 0
2, 110662, Note_on_c, 0, 76, 0
2, 110662, Note_on_c, 0, 64, 0
2, 110663, Note_on_c, 0, 82, 0
2, 110666, Note_on_c, 0, 88, 0
2, 110695, Note_on_c, 0, 92, 107
2, 110695, Control_c, 0, 64, 56
2, 110696, Note_on_c, 0, 80, 99
2, 110696, Note_on_c, 0, 52, 80
2, 110698, Control_c, 0, 64, 127
2, 110707, Note_on_c, 0, 80, 0
2, 110707, Note_on_c, 0, 92, 0
2, 110708, Note_on_c, 0, 52, 0
2, 110737, Note_on_c, 0, 61, 68
2, 110738, Note_on_c, 0, 68, 68
2, 110740, Note_on_c, 0, 88, 91
2, 110741, Note_on_c, 0, 76, 82
2, 110741, Note_on_c, 0, 85, 64
2, 110743, Control_c, 0, 64, 88
2, 110744, Note_on_c, 0, 68, 0
2, 110746, Note_on_c, 0, 76, 0
2, 110746, Note_on_c, 0, 85, 0
2, 110746, Control_c, 0, 64, 56
2, 110748, Control_c, 0, 64, 24
2, 110750, Note_on_c, 0, 88, 0
2, 110750, Note_on_c, 0, 61, 0
2, 110752, Control_c, 0, 64, 0
2, 110776, Note_on_c, 0, 68, 67
2, 110777, Note_on_c, 0, 64, 70
2, 110780, Note_on_c, 0, 88, 95
2, 110781, Note_on_c, 0, 76, 86
2, 110782, Note_on_c, 0, 85, 74
2, 110783, Note_on_c, 0, 64, 0
2, 110786, Note_on_c, 0, 76, 0
2, 110789, Note_on_c, 0, 68, 0
2, 110792, Note_on_c, 0, 88, 0
2, 110794, Note_on_c, 0, 85, 0
2, 110817, Note_on_c, 0, 52, 84
2, 110818, Control_c, 0, 64, 56
2, 110820, Note_on_c, 0, 92, 99
2, 110821, Note_on_c, 0, 80, 94
2, 110821, Control_c, 0, 64, 127
2, 110829, Note_on_c, 0, 52, 0
2, 110832, Note_on_c, 0, 80, 0
2, 110837, Note_on_c, 0, 92, 0
2, 110858, Note_on_c, 0, 67, 74
2, 110860, Note_on_c, 0, 91, 92
2, 110861, Note_on_c, 0, 85, 77
2, 110861, Note_on_c, 0, 58, 60
2, 110861, Note_on_c, 0, 79, 82
2, 110862, Control_c, 0, 64, 88
2, 110865, Control_c, 0, 64, 56
2, 110868, Control_c, 0, 64, 24
2, 110869, Note_on_c, 0, 79, 0
2, 110869, Note_on_c, 0, 67, 0
2, 110871, Note_on_c, 0, 91, 0
2, 110871, Control_c, 0, 64, 0
2, 110872, Note_on_c, 0, 85, 0
2, 110876, Note_on_c, 0, 58, 0
2, 110897, Note_on_c, 0, 64, 73
2, 110898, Note_on_c, 0, 67, 59
2, 110901, Note_on_c, 0, 91, 95
2, 110902, Note_on_c, 0, 64, 0
2, 110903, Note_on_c, 0, 79, 85
2, 110905, Note_on_c, 0, 67, 0
2, 110907, Note_on_c, 0, 85, 42
2, 110908, Note_on_c, 0, 79, 0
2, 110912, Note_on_c, 0, 91, 0
2, 110913, Note_on_c, 0, 85, 0
2, 110937, Control_c, 0, 64, 72
2, 110940, Note_on_c, 0, 52, 76
2, 110941, Note_on_c, 0, 92, 101
2, 110941, Control_c, 0, 64, 127
2, 110942, Note_on_c, 0, 80, 91
2, 110953, Note_on_c, 0, 52, 0
2, 110954, Note_on_c, 0, 80, 0
2, 110956, Note_on_c, 0, 92, 0
2, 110982, Note_on_c, 0, 88, 92
2, 110982, Note_on_c, 0, 76, 88
2, 110983, Note_on_c, 0, 61, 69
2, 110983, Note_on_c, 0, 68, 70
2, 110983, Note_on_c, 0, 85, 68
2, 110985, Control_c, 0, 64, 88
2, 110988, Note_on_c, 0, 85, 0
2, 110988, Note_on_c, 0, 76, 0
2, 110988, Control_c, 0, 64, 56
2, 110991, Note_on_c, 0, 68, 0
2, 110991, Control_c, 0, 64, 40
2, 110992, Note_on_c, 0, 88, 0
2, 110995, Note_on_c, 0, 61, 0
2, 110995, Control_c, 0, 64, 24
2, 110997, Control_c, 0, 64, 0
2, 111017, Note_on_c, 0, 68, 68
2, 111020, Note_on_c, 0, 64, 69
2, 111021, Note_on_c, 0, 88, 95
2, 111022, Note_on_c, 0, 76, 86
2, 111023, Note_on_c, 0, 85, 74
2, 111025, Note_on_c, 0, 64, 0
2, 111028, Note_on_c, 0, 76, 0
2, 111029, Note_on_c, 0, 68, 0
2, 111032, Note_on_c, 0, 88, 0
2, 111036, Note_on_c, 0, 85, 0
2, 111057, Control_c, 0, 64, 88
2, 111060, Note_on_c, 0, 52, 76
2, 111060, Note_on_c, 0, 92, 103
2, 111061, Control_c, 0, 64, 127
2, 111062, Note_on_c, 0, 80, 95
2, 111072, Note_on_c, 0, 80, 0
2, 111072, Note_on_c, 0, 52, 0
2, 111080, Note_on_c, 0, 92, 0
2, 111100, Note_on_c, 0, 67, 79
2, 111101, Note_on_c, 0, 85, 75
2, 111101, Control_c, 0, 64, 88
2, 111102, Note_on_c, 0, 91, 80
2, 111102, Note_on_c, 0, 79, 84
2, 111102, Note_on_c, 0, 58, 55
2, 111105, Control_c, 0, 64, 56
2, 111108, Control_c, 0, 64, 40
2, 111110, Note_on_c, 0, 58, 0
2, 111110, Note_on_c, 0, 67, 0
2, 111111, Control_c, 0, 64, 0
2, 111113, Note_on_c, 0, 79, 0
2, 111114, Note_on_c, 0, 91, 0
2, 111114, Note_on_c, 0, 85, 0
2, 111138, Note_on_c, 0, 64, 79
2, 111140, Note_on_c, 0, 67, 69
2, 111140, Note_on_c, 0, 91, 104
2, 111141, Note_on_c, 0, 79, 93
2, 111143, Note_on_c, 0, 85, 65
2, 111148, Note_on_c, 0, 79, 0
2, 111149, Note_on_c, 0, 85, 0
2, 111153, Note_on_c, 0, 91, 0
2, 111153, Note_on_c, 0, 64, 0
2, 111163, Note_on_c, 0, 67, 0
2, 111178, Note_on_c, 0, 55, 77
2, 111180, Note_on_c, 0, 95, 98
2, 111180, Control_c, 0, 64, 72
2, 111183, Note_on_c, 0, 83, 66
2, 111183, Control_c, 0, 64, 127
2, 111184, Note_on_c, 0, 55, 0
2, 111188, Note_on_c, 0, 83, 0
2, 111188, Note_on_c, 0, 95, 0
2, 111218, Note_on_c, 0, 88, 80
2, 111218, Note_on_c, 0, 79, 87
2, 111220, Note_on_c, 0, 91, 87
2, 111225, Note_on_c, 0, 64, 66
2, 111226, Note_on_c, 0, 71, 58
2, 111227, Control_c, 0, 64, 88
2, 111229, Note_on_c, 0, 79, 0
2, 111229, Note_on_c, 0, 88, 0
2, 111230, Control_c, 0, 64, 72
2, 111231, Note_on_c, 0, 91, 0
2, 111233, Note_on_c, 0, 71, 0
2, 111233, Control_c, 0, 64, 56
2, 111236, Control_c, 0, 64, 40
2, 111238, Note_on_c, 0, 64, 0
2, 111240, Control_c, 0, 64, 24
2, 111243, Control_c, 0, 64, 0
2, 111255, Note_on_c, 0, 67, 78
2, 111256, Note_on_c, 0, 71, 71
2, 111258, Note_on_c, 0, 91, 103
2, 111258, Note_on_c, 0, 79, 96
2, 111263, Note_on_c, 0, 71, 0
2, 111263, Note_on_c, 0, 88, 48
2, 111265, Note_on_c, 0, 67, 0
2, 111265, Note_on_c, 0, 79, 0
2, 111269, Note_on_c, 0, 91, 0
2, 111269, Note_on_c, 0, 88, 0
2, 111296, Note_on_c, 0, 55, 81
2, 111296, Control_c, 0, 64, 40
2, 111298, Note_on_c, 0, 95, 103
2, 111300, Control_c, 0, 64, 104
2, 111301, Note_on_c, 0, 83, 76
2, 111303, Control_c, 0, 64, 127
2, 111308, Note_on_c, 0, 83, 0
2, 111308, Note_on_c, 0, 55, 0
2, 111311, Note_on_c, 0, 95, 0
2, 111337, Note_on_c, 0, 70, 81
2, 111337, Note_on_c, 0, 94, 88
2, 111337, Note_on_c, 0, 82, 79
2, 111338, Note_on_c, 0, 61, 59
2, 111340, Note_on_c, 0, 88, 76
2, 111346, Note_on_c, 0, 88, 0
2, 111347, Control_c, 0, 64, 104
2, 111349, Note_on_c, 0, 82, 0
2, 111350, Control_c, 0, 64, 88
2, 111352, Note_on_c, 0, 70, 0
2, 111353, Note_on_c, 0, 94, 0
2, 111353, Control_c, 0, 64, 56
2, 111356, Control_c, 0, 64, 40
2, 111360, Note_on_c, 0, 61, 0
2, 111360, Control_c, 0, 64, 24
2, 111362, Control_c, 0, 64, 0
2, 111375, Note_on_c, 0, 94, 98
2, 111376, Note_on_c, 0, 82, 89
2, 111376, Note_on_c, 0, 67, 76
2, 111376, Note_on_c, 0, 70, 70
2, 111386, Note_on_c, 0, 82, 0
2, 111390, Note_on_c, 0, 94, 0
2, 111393, Note_on_c, 0, 67, 0
2, 111401, Note_on_c, 0, 70, 0
2, 111415, Note_on_c, 0, 58, 77
2, 111418, Note_on_c, 0, 86, 88
2, 111418, Note_on_c, 0, 98, 90
2, 111422, Control_c, 0, 64, 88
2, 111425, Note_on_c, 0, 86, 0
2, 111426, Note_on_c, 0, 58, 0
2, 111426, Control_c, 0, 64, 127
2, 111429, Note_on_c, 0, 98, 0
2, 111455, Note_on_c, 0, 94, 90
2, 111458, Note_on_c, 0, 82, 81
2, 111460, Note_on_c, 0, 67, 67
2, 111461, Note_on_c, 0, 74, 71
2, 111467, Control_c, 0, 64, 104
2, 111468, Note_on_c, 0, 74, 0
2, 111469, Note_on_c, 0, 82, 0
2, 111470, Note_on_c, 0, 94, 0
2, 111470, Control_c, 0, 64, 72
2, 111473, Control_c, 0, 64, 56
2, 111476, Note_on_c, 0, 67, 0
2, 111476, Control_c, 0, 64, 40
2, 111480, Control_c, 0, 64, 24
2, 111482, Control_c, 0, 64, 0
2, 111492, Note_on_c, 0, 94, 95
2, 111492, Note_on_c, 0, 82, 89
2, 111493, Note_on_c, 0, 70, 81
2, 111493, Note_on_c, 0, 74, 77
2, 111497, Note_on_c, 0, 91, 54
2, 111498, Note_on_c, 0, 74, 0
2, 111503, Note_on_c, 0, 70, 0
2, 111504, Note_on_c, 0, 91, 0
2, 111504, Note_on_c, 0, 82, 0
2, 111509, Note_on_c, 0, 94, 0
2, 111533, Note_on_c, 0, 58, 70
2, 111533, Note_on_c, 0, 98, 103
2, 111533, Control_c, 0, 64, 24
2, 111535, Note_on_c, 0, 86, 95
2, 111536, Control_c, 0, 64, 88
2, 111540, Control_c, 0, 64, 127
2, 111546, Note_on_c, 0, 86, 0
2, 111549, Note_on_c, 0, 98, 0
2, 111549, Note_on_c, 0, 58, 0
2, 111571, Note_on_c, 0, 97, 95
2, 111572, Note_on_c, 0, 73, 75
2, 111572, Note_on_c, 0, 64, 75
2, 111572, Note_on_c, 0, 85, 98
2, 111573, Note_on_c, 0, 91, 87
2, 111577, Control_c, 0, 64, 104
2, 111578, Note_on_c, 0, 91, 0
2, 111580, Control_c, 0, 64, 88
2, 111582, Note_on_c, 0, 85, 0
2, 111583, Note_on_c, 0, 73, 0
2, 111583, Control_c, 0, 64, 56
2, 111586, Note_on_c, 0, 97, 0
2, 111587, Control_c, 0, 64, 40
2, 111589, Note_on_c, 0, 64, 0
2, 111590, Control_c, 0, 64, 0
2, 111606, Note_on_c, 0, 97, 99
2, 111606, Note_on_c, 0, 67, 75
2, 111607, Note_on_c, 0, 85, 95
2, 111608, Note_on_c, 0, 73, 58
2, 111618, Note_on_c, 0, 85, 0
2, 111623, Note_on_c, 0, 97, 0
2, 111624, Note_on_c, 0, 67, 0
2, 111633, Note_on_c, 0, 73, 0
2, 111645, Note_on_c, 0, 61, 72
2, 111646, Note_on_c, 0, 101, 99
2, 111648, Note_on_c, 0, 89, 94
2, 111648, Control_c, 0, 64, 72
2, 111652, Control_c, 0, 64, 127
2, 111654, Note_on_c, 0, 89, 0
2, 111656, Note_on_c, 0, 61, 0
2, 111658, Note_on_c, 0, 101, 0
2, 111683, Note_on_c, 0, 97, 96
2, 111685, Note_on_c, 0, 70, 72
2, 111685, Note_on_c, 0, 85, 99
2, 111686, Note_on_c, 0, 77, 66
2, 111693, Note_on_c, 0, 77, 0
2, 111695, Note_on_c, 0, 85, 0
2, 111696, Note_on_c, 0, 70, 0
2, 111696, Note_on_c, 0, 97, 0
2, 111706, Control_c, 0, 64, 88
2, 111708, Control_c, 0, 64, 72
2, 111712, Control_c, 0, 64, 40
2, 111715, Control_c, 0, 64, 24
2, 111718, Control_c, 0, 64, 0
2, 111721, Note_on_c, 0, 77, 83
2, 111721, Note_on_c, 0, 85, 92
2, 111722, Note_on_c, 0, 97, 96
2, 111722, Note_on_c, 0, 73, 72
2, 111722, Note_on_c, 0, 94, 90
2, 111729, Note_on_c, 0, 85, 0
2, 111731, Note_on_c, 0, 77, 0
2, 111732, Note_on_c, 0, 73, 0
2, 111733, Note_on_c, 0, 97, 0
2, 111737, Note_on_c, 0, 94, 0
2, 111757, Note_on_c, 0, 61, 77
2, 111758, Note_on_c, 0, 101, 102
2, 111760, Note_on_c, 0, 89, 99
2, 111760, Control_c, 0, 64, 72
2, 111762, Control_c, 0, 64, 127
2, 111765, Note_on_c, 0, 61, 0
2, 111771, Note_on_c, 0, 89, 0
2, 111771, Note_on_c, 0, 101, 0
2, 111793, Note_on_c, 0, 67, 69
2, 111795, Note_on_c, 0, 76, 69
2, 111797, Note_on_c, 0, 100, 100
2, 111798, Note_on_c, 0, 88, 95
2, 111800, Note_on_c, 0, 67, 0
2, 111800, Note_on_c, 0, 94, 64
2, 111801, Note_on_c, 0, 76, 0
2, 111805, Note_on_c, 0, 94, 0
2, 111808, Note_on_c, 0, 100, 0
2, 111808, Note_on_c, 0, 88, 0
2, 111810, Control_c, 0, 64, 104
2, 111813, Control_c, 0, 64, 72
2, 111816, Control_c, 0, 64, 56
2, 111820, Control_c, 0, 64, 40
2, 111822, Control_c, 0, 64, 24
2, 111826, Control_c, 0, 64, 0
2, 111831, Note_on_c, 0, 70, 74
2, 111832, Note_on_c, 0, 76, 73
2, 111832, Note_on_c, 0, 100, 104
2, 111833, Note_on_c, 0, 88, 96
2, 111836, Note_on_c, 0, 94, 68
2, 111838, Note_on_c, 0, 76, 0
2, 111842, Note_on_c, 0, 94, 0
2, 111843, Note_on_c, 0, 70, 0
2, 111844, Note_on_c, 0, 88, 0
2, 111847, Note_on_c, 0, 100, 0
2, 111867, Note_on_c, 0, 61, 83
2, 111870, Note_on_c, 0, 101, 98
2, 111870, Control_c, 0, 64, 72
2, 111871, Note_on_c, 0, 89, 92
2, 111873, Control_c, 0, 64, 127
2, 111878, Note_on_c, 0, 61, 0
2, 111882, Note_on_c, 0, 89, 0
2, 111882, Note_on_c, 0, 101, 0
2, 111906, Note_on_c, 0, 97, 96
2, 111907, Note_on_c, 0, 77, 74
2, 111907, Note_on_c, 0, 70, 69
2, 111908, Note_on_c, 0, 85, 96
2, 111910, Note_on_c, 0, 94, 69
2, 111913, Note_on_c, 0, 70, 0
2, 111913, Note_on_c, 0, 77, 0
2, 111914, Note_on_c, 0, 85, 0
2, 111915, Note_on_c, 0, 94, 0
2, 111919, Note_on_c, 0, 97, 0
2, 111926, Control_c, 0, 64, 104
2, 111930, Control_c, 0, 64, 88
2, 111932, Control_c, 0, 64, 72
2, 111936, Control_c, 0, 64, 40
2, 111938, Control_c, 0, 64, 24
2, 111942, Note_on_c, 0, 97, 98
2, 111942, Note_on_c, 0, 85, 105
2, 111942, Note_on_c, 0, 77, 86
2, 111942, Note_on_c, 0, 70, 82
2, 111943, Note_on_c, 0, 94, 86
2, 111945, Control_c, 0, 64, 0
2, 111948, Note_on_c, 0, 77, 0
2, 111952, Note_on_c, 0, 85, 0
2, 111954, Note_on_c, 0, 70, 0
2, 111956, Note_on_c, 0, 94, 0
2, 111957, Note_on_c, 0, 97, 0
2, 111973, Note_on_c, 0, 61, 87
2, 111973, Control_c, 0, 64, 24
2, 111977, Note_on_c, 0, 101, 98
2, 111977, Control_c, 0, 64, 104
2, 111978, Note_on_c, 0, 89, 100
2, 111980, Control_c, 0, 64, 127
2, 111983, Note_on_c, 0, 61, 0
2, 111988, Note_on_c, 0, 89, 0
2, 111988, Note_on_c, 0, 101, 0
2, 112012, Note_on_c, 0, 76, 78
2, 112013, Note_on_c, 0, 70, 54
2, 112013, Note_on_c, 0, 100, 96
2, 112015, Note_on_c, 0, 88, 96
2, 112015, Note_on_c, 0, 67, 53
2, 112015, Note_on_c, 0, 94, 80
2, 112017, Note_on_c, 0, 76, 0
2, 112018, Note_on_c, 0, 70, 0
2, 112021, Note_on_c, 0, 67, 0
2, 112022, Note_on_c, 0, 94, 0
2, 112025, Note_on_c, 0, 88, 0
2, 112026, Note_on_c, 0, 100, 0
2, 112030, Control_c, 0, 64, 104
2, 112033, Control_c, 0, 64, 72
2, 112036, Control_c, 0, 64, 56
2, 112040, Control_c, 0, 64, 40
2, 112042, Control_c, 0, 64, 24
2, 112043, Note_on_c, 0, 67, 81
2, 112046, Control_c, 0, 64, 0
2, 112047, Note_on_c, 0, 100, 106
2, 112047, Note_on_c, 0, 76, 80
2, 112047, Note_on_c, 0, 88, 96
2, 112048, Note_on_c, 0, 70, 63
2, 112051, Note_on_c, 0, 94, 66
2, 112052, Note_on_c, 0, 76, 0
2, 112056, Note_on_c, 0, 94, 0
2, 112057, Note_on_c, 0, 88, 0
2, 112058, Note_on_c, 0, 70, 0
2, 112058, Note_on_c, 0, 67, 0
2, 112062, Note_on_c, 0, 100, 0
2, 112080, Control_c, 0, 64, 24
2, 112083, Note_on_c, 0, 61, 93
2, 112083, Control_c, 0, 64, 88
2, 112085, Note_on_c, 0, 101, 103
2, 112086, Note_on_c, 0, 89, 103
2, 112086, Control_c, 0, 64, 127
2, 112093, Note_on_c, 0, 61, 0
2, 112094, Note_on_c, 0, 89, 0
2, 112097, Note_on_c, 0, 101, 0
2, 112121, Note_on_c, 0, 100, 102
2, 112121, Note_on_c, 0, 76, 78
2, 112121, Note_on_c, 0, 67, 72
2, 112121, Note_on_c, 0, 70, 66
2, 112122, Note_on_c, 0, 88, 98
2, 112123, Note_on_c, 0, 94, 83
2, 112126, Note_on_c, 0, 76, 0
2, 112127, Note_on_c, 0, 70, 0
2, 112127, Note_on_c, 0, 67, 0
2, 112129, Note_on_c, 0, 94, 0
2, 112130, Note_on_c, 0, 88, 0
2, 112131, Control_c, 0, 64, 104
2, 112132, Note_on_c, 0, 100, 0
2, 112133, Control_c, 0, 64, 88
2, 112137, Control_c, 0, 64, 56
2, 112140, Control_c, 0, 64, 40
2, 112143, Control_c, 0, 64, 24
2, 112150, Control_c, 0, 64, 0
2, 112156, Note_on_c, 0, 100, 104
2, 112156, Note_on_c, 0, 67, 80
2, 112156, Note_on_c, 0, 76, 86
2, 112156, Note_on_c, 0, 70, 75
2, 112156, Note_on_c, 0, 88, 99
2, 112158, Note_on_c, 0, 94, 74
2, 112163, Note_on_c, 0, 76, 0
2, 112164, Note_on_c, 0, 94, 0
2, 112166, Note_on_c, 0, 88, 0
2, 112167, Note_on_c, 0, 70, 0
2, 112168, Note_on_c, 0, 67, 0
2, 112169, Note_on_c, 0, 100, 0
2, 112187, Control_c, 0, 64, 72
2, 112188, Note_on_c, 0, 61, 95
2, 112190, Control_c, 0, 64, 127
2, 112192, Note_on_c, 0, 101, 102
2, 112193, Note_on_c, 0, 89, 104
2, 112198, Note_on_c, 0, 61, 0
2, 112203, Note_on_c, 0, 89, 0
2, 112205, Note_on_c, 0, 101, 0
2, 112226, Note_on_c, 0, 76, 80
2, 112227, Note_on_c, 0, 67, 65
2, 112227, Note_on_c, 0, 70, 56
2, 112228, Note_on_c, 0, 100, 102
2, 112228, Note_on_c, 0, 88, 99
2, 112230, Note_on_c, 0, 94, 75
2, 112232, Note_on_c, 0, 76, 0
2, 112233, Note_on_c, 0, 67, 0
2, 112234, Note_on_c, 0, 70, 0
2, 112235, Note_on_c, 0, 94, 0
2, 112238, Note_on_c, 0, 88, 0
2, 112238, Note_on_c, 0, 100, 0
2, 112238, Control_c, 0, 64, 104
2, 112241, Control_c, 0, 64, 72
2, 112245, Control_c, 0, 64, 40
2, 112247, Control_c, 0, 64, 24
2, 112251, Control_c, 0, 64, 0
2, 112261, Note_on_c, 0, 70, 77
2, 112261, Note_on_c, 0, 100, 104
2, 112261, Note_on_c, 0, 76, 86
2, 112262, Note_on_c, 0, 88, 97
2, 112262, Note_on_c, 0, 67, 59
2, 112265, Note_on_c, 0, 94, 73
2, 112268, Note_on_c, 0, 76, 0
2, 112270, Note_on_c, 0, 67, 0
2, 112270, Note_on_c, 0, 94, 0
2, 112272, Note_on_c, 0, 70, 0
2, 112272, Note_on_c, 0, 88, 0
2, 112274, Note_on_c, 0, 100, 0
2, 112288, Control_c, 0, 64, 24
2, 112291, Control_c, 0, 64, 72
2, 112295, Note_on_c, 0, 61, 79
2, 112295, Control_c, 0, 64, 127
2, 112297, Note_on_c, 0, 101, 100
2, 112298, Note_on_c, 0, 89, 107
2, 112305, Note_on_c, 0, 61, 0
2, 112308, Note_on_c, 0, 89, 0
2, 112309, Note_on_c, 0, 101, 0
2, 112328, Note_on_c, 0, 76, 86
2, 112330, Note_on_c, 0, 70, 75
2, 112330, Note_on_c, 0, 100, 107
2, 112331, Note_on_c, 0, 88, 99
2, 112331, Note_on_c, 0, 67, 76
2, 112333, Note_on_c, 0, 94, 64
2, 112334, Note_on_c, 0, 76, 0
2, 112337, Note_on_c, 0, 67, 0
2, 112337, Note_on_c, 0, 70, 0
2, 112338, Control_c, 0, 64, 104
2, 112339, Note_on_c, 0, 94, 0
2, 112341, Note_on_c, 0, 88, 0
2, 112342, Control_c, 0, 64, 56
2, 112343, Note_on_c, 0, 100, 0
2, 112345, Control_c, 0, 64, 0
2, 112357, Control_c, 0, 64, 56
2, 112361, Control_c, 0, 64, 104
2, 112362, Note_on_c, 0, 70, 81
2, 112362, Note_on_c, 0, 100, 106
2, 112363, Note_on_c, 0, 76, 90
2, 112363, Note_on_c, 0, 88, 99
2, 112363, Note_on_c, 0, 67, 73
2, 112365, Note_on_c, 0, 94, 78
2, 112365, Control_c, 0, 64, 127
2, 112368, Note_on_c, 0, 76, 0
2, 112370, Note_on_c, 0, 67, 0
2, 112371, Note_on_c, 0, 94, 0
2, 112373, Note_on_c, 0, 88, 0
2, 112373, Control_c, 0, 64, 104
2, 112374, Note_on_c, 0, 70, 0
2, 112377, Note_on_c, 0, 100, 0
2, 112377, Control_c, 0, 64, 72
2, 112380, Control_c, 0, 64, 40
2, 112383, Control_c, 0, 64, 0
2, 112392, Control_c, 0, 64, 40
2, 112396, Control_c, 0, 64, 88
2, 112397, Note_on_c, 0, 61, 83
2, 112397, Note_on_c, 0, 101, 103
2, 112398, Note_on_c, 0, 89, 106
2, 112398, Control_c, 0, 64, 127
2, 112408, Note_on_c, 0, 89, 0
2, 112408, Note_on_c, 0, 61, 0
2, 112409, Note_on_c, 0, 101, 0
2, 112417, Control_c, 0, 64, 88
2, 112421, Control_c, 0, 64, 56
2, 112423, Control_c, 0, 64, 40
2, 112431, Note_on_c, 0, 100, 106
2, 112432, Note_on_c, 0, 88, 104
2, 112433, Note_on_c, 0, 94, 89
2, 112433, Note_on_c, 0, 70, 79
2, 112433, Note_on_c, 0, 76, 86
2, 112433, Note_on_c, 0, 67, 78
2, 112433, Control_c, 0, 64, 72
2, 112436, Control_c, 0, 64, 104
2, 112439, Note_on_c, 0, 67, 0
2, 112440, Control_c, 0, 64, 127
2, 112441, Note_on_c, 0, 94, 0
2, 112441, Note_on_c, 0, 76, 0
2, 112442, Note_on_c, 0, 88, 0
2, 112443, Note_on_c, 0, 70, 0
2, 112444, Note_on_c, 0, 100, 0
2, 112465, Note_on_c, 0, 100, 107
2, 112466, Note_on_c, 0, 88, 103
2, 112467, Note_on_c, 0, 70, 77
2, 112467, Note_on_c, 0, 67, 80
2, 112467, Note_on_c, 0, 76, 93
2, 112467, Note_on_c, 0, 94, 83
2, 112473, Note_on_c, 0, 94, 0
2, 112475, Note_on_c, 0, 76, 0
2, 112476, Note_on_c, 0, 88, 0
2, 112477, Note_on_c, 0, 67, 0
2, 112477, Note_on_c, 0, 70, 0
2, 112478, Note_on_c, 0, 100, 0
2, 112690, Note_on_c, 0, 77, 107
2, 112690, Note_on_c, 0, 65, 91
2, 112691, Control_c, 0, 64, 56
2, 112695, Control_c, 0, 64, 127
2, 112717, Note_on_c, 0, 77, 0
2, 112725, Note_on_c, 0, 65, 0
2, 112765, Note_on_c, 0, 76, 107
2, 112765, Note_on_c, 0, 64, 100
2, 112792, Control_c, 0, 64, 40
2, 112795, Control_c, 0, 64, 0
2, 112812, Control_c, 0, 64, 56
2, 112816, Control_c, 0, 64, 127
2, 112827, Note_on_c, 0, 76, 0
2, 112828, Note_on_c, 0, 64, 0
2, 112836, Note_on_c, 0, 38, 96
2, 112837, Note_on_c, 0, 26, 82
2, 112845, Note_on_c, 0, 26, 0
2, 112851, Note_on_c, 0, 38, 0
2, 112876, Note_on_c, 0, 76, 104
2, 112876, Note_on_c, 0, 64, 94
2, 112891, Note_on_c, 0, 64, 0
2, 112891, Note_on_c, 0, 76, 0
2, 112911, Note_on_c, 0, 74, 102
2, 112911, Note_on_c, 0, 62, 91
2, 112929, Note_on_c, 0, 62, 0
2, 112936, Note_on_c, 0, 74, 0
2, 112951, Note_on_c, 0, 58, 74
2, 112952, Note_on_c, 0, 62, 83
2, 112953, Note_on_c, 0, 53, 83
2, 112960, Note_on_c, 0, 62, 0
2, 112963, Note_on_c, 0, 58, 0
2, 112964, Note_on_c, 0, 53, 0
2, 112982, Note_on_c, 0, 74, 93
2, 112983, Note_on_c, 0, 62, 86
2, 112994, Note_on_c, 0, 74, 0
2, 112995, Note_on_c, 0, 62, 0
2, 113016, Note_on_c, 0, 72, 106
2, 113017, Note_on_c, 0, 60, 90
2, 113043, Control_c, 0, 64, 88
2, 113047, Control_c, 0, 64, 24
2, 113050, Note_on_c, 0, 38, 84
2, 113050, Control_c, 0, 64, 0
2, 113051, Note_on_c, 0, 50, 93
2, 113055, Note_on_c, 0, 60, 0
2, 113056, Note_on_c, 0, 72, 0
2, 113063, Note_on_c, 0, 38, 0
2, 113066, Note_on_c, 0, 50, 0
2, 113066, Control_c, 0, 64, 72
2, 113070, Control_c, 0, 64, 127
2, 113083, Note_on_c, 0, 72, 104
2, 113083, Note_on_c, 0, 60, 93
2, 113096, Note_on_c, 0, 60, 0
2, 113099, Note_on_c, 0, 72, 0
2, 113116, Note_on_c, 0, 70, 89
2, 113116, Note_on_c, 0, 58, 83
2, 113143, Control_c, 0, 64, 40
2, 113146, Note_on_c, 0, 70, 0
2, 113147, Control_c, 0, 64, 0
2, 113151, Note_on_c, 0, 58, 0
2, 113152, Note_on_c, 0, 50, 80
2, 113155, Note_on_c, 0, 53, 79
2, 113167, Note_on_c, 0, 50, 0
2, 113167, Control_c, 0, 64, 56
2, 113170, Note_on_c, 0, 53, 0
2, 113171, Control_c, 0, 64, 88
2, 113173, Control_c, 0, 64, 127
2, 113183, Note_on_c, 0, 70, 83
2, 113183, Note_on_c, 0, 58, 80
2, 113196, Note_on_c, 0, 58, 0
2, 113199, Note_on_c, 0, 70, 0
2, 113216, Note_on_c, 0, 69, 94
2, 113218, Note_on_c, 0, 57, 76
2, 113231, Note_on_c, 0, 57, 0
2, 113237, Note_on_c, 0, 69, 0
2, 113237, Control_c, 0, 64, 88
2, 113241, Control_c, 0, 64, 24
2, 113245, Control_c, 0, 64, 0
2, 113250, Note_on_c, 0, 49, 82
2, 113252, Note_on_c, 0, 37, 67
2, 113262, Note_on_c, 0, 49, 0
2, 113263, Note_on_c, 0, 37, 0
2, 113265, Control_c, 0, 64, 56
2, 113267, Control_c, 0, 64, 104
2, 113271, Control_c, 0, 64, 127
2, 113286, Note_on_c, 0, 69, 98
2, 113287, Note_on_c, 0, 57, 84
2, 113294, Note_on_c, 0, 57, 0
2, 113297, Note_on_c, 0, 69, 0
2, 113320, Note_on_c, 0, 56, 86
2, 113321, Note_on_c, 0, 68, 84
2, 113330, Note_on_c, 0, 56, 0
2, 113335, Control_c, 0, 64, 104
2, 113337, Note_on_c, 0, 68, 0
2, 113337, Control_c, 0, 64, 56
2, 113337, Control_c, 0, 64, 72
2, 113340, Control_c, 0, 64, 127
2, 113340, Control_c, 0, 64, 88
2, 113341, Control_c, 0, 64, 0
2, 113342, Control_c, 0, 64, 0
2, 113345, Control_c, 0, 64, 88
2, 113347, Control_c, 0, 64, 24
2, 113351, Note_on_c, 0, 49, 63
2, 113351, Control_c, 0, 64, 0
2, 113352, Note_on_c, 0, 53, 77
2, 113352, Note_on_c, 0, 59, 80
2, 113358, Control_c, 0, 64, 56
2, 113362, Note_on_c, 0, 59, 0
2, 113362, Control_c, 0, 64, 127
2, 113363, Note_on_c, 0, 53, 0
2, 113364, Note_on_c, 0, 49, 0
2, 113382, Note_on_c, 0, 74, 100
2, 113383, Note_on_c, 0, 62, 86
2, 113393, Note_on_c, 0, 62, 0
2, 113397, Note_on_c, 0, 74, 0
2, 113416, Note_on_c, 0, 73, 97
2, 113416, Note_on_c, 0, 61, 86
2, 113418, Note_on_c, 0, 70, 48
2, 113423, Note_on_c, 0, 70, 0
2, 113423, Note_on_c, 0, 61, 0
2, 113429, Note_on_c, 0, 73, 0
2, 113447, Note_on_c, 0, 37, 64
2, 113447, Note_on_c, 0, 49, 88
2, 113455, Note_on_c, 0, 49, 0
2, 113457, Note_on_c, 0, 37, 0
2, 113478, Note_on_c, 0, 81, 92
2, 113480, Note_on_c, 0, 69, 76
2, 113486, Note_on_c, 0, 69, 0
2, 113491, Note_on_c, 0, 81, 0
2, 113510, Note_on_c, 0, 80, 107
2, 113510, Note_on_c, 0, 68, 101
2, 113518, Note_on_c, 0, 68, 0
2, 113526, Note_on_c, 0, 80, 0
2, 113547, Note_on_c, 0, 59, 80
2, 113547, Note_on_c, 0, 65, 82
2, 113547, Note_on_c, 0, 53, 78
2, 113558, Note_on_c, 0, 65, 0
2, 113560, Note_on_c, 0, 59, 0
2, 113563, Note_on_c, 0, 53, 0
2, 113581, Note_on_c, 0, 89, 107
2, 113581, Note_on_c, 0, 77, 107
2, 113592, Note_on_c, 0, 77, 0
2, 113596, Note_on_c, 0, 89, 0
2, 113613, Note_on_c, 0, 88, 107
2, 113616, Note_on_c, 0, 76, 103
2, 113627, Control_c, 0, 64, 104
2, 113630, Control_c, 0, 64, 24
2, 113633, Control_c, 0, 64, 0
2, 113641, Note_on_c, 0, 38, 82
2, 113642, Note_on_c, 0, 50, 92
2, 113647, Control_c, 0, 64, 127
2, 113648, Note_on_c, 0, 38, 0
2, 113651, Note_on_c, 0, 76, 0
2, 113654, Note_on_c, 0, 88, 0
2, 113654, Note_on_c, 0, 50, 0
2, 113675, Note_on_c, 0, 88, 97
2, 113675, Note_on_c, 0, 76, 92
2, 113686, Note_on_c, 0, 76, 0
2, 113687, Note_on_c, 0, 88, 0
2, 113706, Note_on_c, 0, 86, 98
2, 113707, Note_on_c, 0, 74, 91
2, 113741, Note_on_c, 0, 65, 85
2, 113742, Note_on_c, 0, 58, 70
2, 113742, Note_on_c, 0, 53, 79
2, 113750, Note_on_c, 0, 74, 0
2, 113752, Note_on_c, 0, 65, 0
2, 113754, Note_on_c, 0, 86, 0
2, 113757, Note_on_c, 0, 53, 0
2, 113758, Note_on_c, 0, 58, 0
2, 113772, Note_on_c, 0, 86, 96
2, 113773, Note_on_c, 0, 74, 74
2, 113784, Note_on_c, 0, 74, 0
2, 113784, Note_on_c, 0, 86, 0
2, 113806, Note_on_c, 0, 84, 99
2, 113806, Note_on_c, 0, 72, 92
2, 113828, Control_c, 0, 64, 72
2, 113831, Control_c, 0, 64, 0
2, 113838, Note_on_c, 0, 50, 97
2, 113838, Note_on_c, 0, 38, 84
2, 113844, Note_on_c, 0, 72, 0
2, 113845, Control_c, 0, 64, 24
2, 113847, Control_c, 0, 64, 104
2, 113849, Note_on_c, 0, 38, 0
2, 113850, Control_c, 0, 64, 127
2, 113851, Note_on_c, 0, 84, 0
2, 113854, Note_on_c, 0, 50, 0
2, 113871, Note_on_c, 0, 84, 96
2, 113872, Note_on_c, 0, 72, 83
2, 113883, Note_on_c, 0, 72, 0
2, 113883, Note_on_c, 0, 84, 0
2, 113900, Note_on_c, 0, 82, 95
2, 113902, Note_on_c, 0, 70, 91
2, 113933, Note_on_c, 0, 65, 78
2, 113933, Note_on_c, 0, 58, 68
2, 113935, Note_on_c, 0, 82, 0
2, 113935, Note_on_c, 0, 53, 75
2, 113938, Note_on_c, 0, 70, 0
2, 113944, Note_on_c, 0, 65, 0
2, 113948, Note_on_c, 0, 58, 0
2, 113950, Note_on_c, 0, 53, 0
2, 113963, Note_on_c, 0, 82, 87
2, 113965, Note_on_c, 0, 70, 85
2, 113977, Note_on_c, 0, 70, 0
2, 113979, Note_on_c, 0, 82, 0
2, 113993, Note_on_c, 0, 81, 95
2, 113996, Note_on_c, 0, 69, 84
2, 114011, Note_on_c, 0, 69, 0
2, 114026, Note_on_c, 0, 81, 0
2, 114026, Control_c, 0, 64, 104
2, 114028, Control_c, 0, 64, 40
2, 114030, Note_on_c, 0, 49, 107
2, 114030, Note_on_c, 0, 37, 88
2, 114031, Control_c, 0, 64, 0
2, 114046, Note_on_c, 0, 49, 0
2, 114047, Note_on_c, 0, 37, 0
2, 114048, Control_c, 0, 64, 56
2, 114051, Control_c, 0, 64, 127
2, 114062, Note_on_c, 0, 81, 93
2, 114063, Note_on_c, 0, 69, 83
2, 114074, Note_on_c, 0, 69, 0
2, 114077, Note_on_c, 0, 81, 0
2, 114093, Note_on_c, 0, 80, 98
2, 114095, Note_on_c, 0, 68, 80
2, 114103, Note_on_c, 0, 68, 0
2, 114110, Note_on_c, 0, 80, 0
2, 114126, Note_on_c, 0, 65, 84
2, 114126, Note_on_c, 0, 59, 72
2, 114127, Note_on_c, 0, 53, 76
2, 114138, Note_on_c, 0, 65, 0
2, 114143, Note_on_c, 0, 59, 0
2, 114149, Note_on_c, 0, 53, 0
2, 114155, Note_on_c, 0, 86, 93
2, 114156, Note_on_c, 0, 74, 88
2, 114167, Note_on_c, 0, 74, 0
2, 114171, Note_on_c, 0, 86, 0
2, 114187, Note_on_c, 0, 85, 102
2, 114187, Note_on_c, 0, 73, 93
2, 114198, Note_on_c, 0, 73, 0
2, 114205, Note_on_c, 0, 85, 0
2, 114211, Control_c, 0, 64, 104
2, 114215, Control_c, 0, 64, 56
2, 114217, Control_c, 0, 64, 0
2, 114221, Note_on_c, 0, 49, 98
2, 114221, Note_on_c, 0, 37, 71
2, 114226, Control_c, 0, 64, 40
2, 114228, Control_c, 0, 64, 127
2, 114231, Note_on_c, 0, 49, 0
2, 114233, Note_on_c, 0, 37, 0
2, 114251, Note_on_c, 0, 93, 107
2, 114253, Note_on_c, 0, 81, 89
2, 114260, Note_on_c, 0, 81, 0
2, 114266, Note_on_c, 0, 93, 0
2, 114281, Note_on_c, 0, 92, 107
2, 114281, Note_on_c, 0, 80, 103
2, 114291, Note_on_c, 0, 80, 0
2, 114298, Note_on_c, 0, 92, 0
2, 114315, Note_on_c, 0, 59, 85
2, 114315, Note_on_c, 0, 65, 92
2, 114316, Note_on_c, 0, 53, 80
2, 114325, Note_on_c, 0, 65, 0
2, 114328, Note_on_c, 0, 59, 0
2, 114329, Note_on_c, 0, 53, 0
2, 114348, Note_on_c, 0, 101, 107
2, 114348, Note_on_c, 0, 89, 107
2, 114361, Note_on_c, 0, 89, 0
2, 114364, Note_on_c, 0, 101, 0
2, 114381, Note_on_c, 0, 100, 107
2, 114382, Note_on_c, 0, 88, 99
2, 114406, Control_c, 0, 64, 40
2, 114410, Control_c, 0, 64, 0
2, 114415, Note_on_c, 0, 50, 103
2, 114415, Note_on_c, 0, 38, 85
2, 114423, Note_on_c, 0, 38, 0
2, 114427, Note_on_c, 0, 88, 0
2, 114427, Control_c, 0, 64, 56
2, 114430, Control_c, 0, 64, 127
2, 114431, Note_on_c, 0, 100, 0
2, 114432, Note_on_c, 0, 50, 0
2, 114447, Note_on_c, 0, 100, 107
2, 114448, Note_on_c, 0, 88, 95
2, 114459, Note_on_c, 0, 88, 0
2, 114459, Note_on_c, 0, 100, 0
2, 114478, Note_on_c, 0, 98, 107
2, 114480, Note_on_c, 0, 86, 99
2, 114508, Note_on_c, 0, 58, 65
2, 114510, Note_on_c, 0, 65, 78
2, 114510, Note_on_c, 0, 53, 71
2, 114511, Note_on_c, 0, 62, 76
2, 114520, Note_on_c, 0, 86, 0
2, 114521, Note_on_c, 0, 62, 0
2, 114523, Note_on_c, 0, 65, 0
2, 114523, Note_on_c, 0, 98, 0
2, 114529, Note_on_c, 0, 58, 0
2, 114530, Note_on_c, 0, 53, 0
2, 114541, Note_on_c, 0, 98, 107
2, 114541, Note_on_c, 0, 86, 94
2, 114552, Note_on_c, 0, 86, 0
2, 114552, Note_on_c, 0, 98, 0
2, 114573, Note_on_c, 0, 96, 106
2, 114573, Note_on_c, 0, 84, 97
2, 114603, Note_on_c, 0, 38, 72
2, 114603, Note_on_c, 0, 50, 80
2, 114610, Note_on_c, 0, 38, 0
2, 114610, Note_on_c, 0, 84, 0
2, 114613, Note_on_c, 0, 96, 0
2, 114618, Note_on_c, 0, 50, 0
2, 114636, Note_on_c, 0, 96, 98
2, 114637, Note_on_c, 0, 84, 90
2, 114648, Note_on_c, 0, 84, 0
2, 114648, Note_on_c, 0, 96, 0
2, 114666, Note_on_c, 0, 94, 95
2, 114667, Note_on_c, 0, 82, 92
2, 114688, Note_on_c, 0, 82, 0
2, 114688, Note_on_c, 0, 94, 0
2, 114697, Note_on_c, 0, 70, 82
2, 114698, Note_on_c, 0, 65, 78
2, 114698, Note_on_c, 0, 58, 62
2, 114698, Note_on_c, 0, 62, 70
2, 114719, Note_on_c, 0, 62, 0
2, 114723, Note_on_c, 0, 93, 102
2, 114724, Note_on_c, 0, 65, 0
2, 114725, Note_on_c, 0, 81, 88
2, 114727, Note_on_c, 0, 70, 0
2, 114735, Note_on_c, 0, 81, 0
2, 114738, Note_on_c, 0, 58, 0
2, 114739, Note_on_c, 0, 93, 0
2, 114755, Note_on_c, 0, 94, 89
2, 114756, Note_on_c, 0, 82, 88
2, 114757, Note_on_c, 0, 92, 81
2, 114762, Note_on_c, 0, 94, 0
2, 114763, Note_on_c, 0, 92, 0
2, 114764, Note_on_c, 0, 82, 0
2, 114785, Control_c, 0, 64, 56
2, 114788, Control_c, 0, 64, 0
2, 114795, Note_on_c, 0, 54, 70
2, 114798, Note_on_c, 0, 42, 71
2, 114808, Control_c, 0, 64, 72
2, 114811, Control_c, 0, 64, 127
2, 114815, Note_on_c, 0, 54, 0
2, 114816, Note_on_c, 0, 42, 0
2, 114825, Note_on_c, 0, 82, 87
2, 114825, Note_on_c, 0, 70, 81
2, 114837, Note_on_c, 0, 70, 0
2, 114840, Note_on_c, 0, 82, 0
2, 114855, Note_on_c, 0, 83, 102
2, 114855, Note_on_c, 0, 71, 91
2, 114865, Note_on_c, 0, 71, 0
2, 114865, Note_on_c, 0, 83, 0
2, 114882, Note_on_c, 0, 84, 107
2, 114882, Note_on_c, 0, 72, 104
2, 114883, Note_on_c, 0, 58, 71
2, 114885, Note_on_c, 0, 64, 82
2, 114885, Note_on_c, 0, 54, 66
2, 114892, Note_on_c, 0, 72, 0
2, 114893, Note_on_c, 0, 64, 0
2, 114893, Note_on_c, 0, 84, 0
2, 114894, Note_on_c, 0, 58, 0
2, 114895, Note_on_c, 0, 54, 0
2, 114910, Note_on_c, 0, 73, 106
2, 114910, Note_on_c, 0, 85, 107
2, 114912, Note_on_c, 0, 58, 74
2, 114913, Note_on_c, 0, 54, 68
2, 114913, Note_on_c, 0, 64, 86
2, 114924, Note_on_c, 0, 64, 0
2, 114925, Note_on_c, 0, 58, 0
2, 114925, Note_on_c, 0, 54, 0
2, 114925, Note_on_c, 0, 73, 0
2, 114927, Note_on_c, 0, 85, 0
2, 114942, Note_on_c, 0, 86, 107
2, 114942, Note_on_c, 0, 74, 107
2, 114942, Note_on_c, 0, 58, 78
2, 114943, Note_on_c, 0, 64, 88
2, 114943, Note_on_c, 0, 54, 71
2, 114954, Note_on_c, 0, 64, 0
2, 114954, Note_on_c, 0, 74, 0
2, 114955, Note_on_c, 0, 54, 0
2, 114957, Note_on_c, 0, 58, 0
2, 114958, Note_on_c, 0, 86, 0
2, 114978, Note_on_c, 0, 86, 107
2, 114981, Note_on_c, 0, 74, 104
2, 114985, Note_on_c, 0, 58, 67
2, 114985, Note_on_c, 0, 54, 71
2, 114986, Note_on_c, 0, 64, 87
2, 115003, Note_on_c, 0, 74, 0
2, 115009, Note_on_c, 0, 64, 0
2, 115011, Note_on_c, 0, 86, 0
2, 115016, Note_on_c, 0, 58, 0
2, 115017, Note_on_c, 0, 54, 0
2, 115027, Note_on_c, 0, 85, 94
2, 115027, Note_on_c, 0, 73, 95
2, 115038, Note_on_c, 0, 73, 0
2, 115038, Note_on_c, 0, 85, 0
2, 115076, Note_on_c, 0, 67, 84
2, 115076, Note_on_c, 0, 55, 79
2, 115077, Note_on_c, 0, 43, 69
2, 115087, Note_on_c, 0, 55, 0
2, 115088, Note_on_c, 0, 67, 0
2, 115092, Note_on_c, 0, 43, 0
2, 115118, Note_on_c, 0, 66, 72
2, 115123, Note_on_c, 0, 66, 0
2, 115123, Note_on_c, 0, 54, 68
2, 115123, Note_on_c, 0, 42, 68
2, 115138, Note_on_c, 0, 54, 0
2, 115163, Note_on_c, 0, 42, 0
2, 115163, Control_c, 0, 64, 88
2, 115166, Control_c, 0, 64, 0
2, 115170, Note_on_c, 0, 52, 92
2, 115170, Note_on_c, 0, 40, 83
2, 115186, Note_on_c, 0, 40, 0
2, 115186, Control_c, 0, 64, 72
2, 115190, Control_c, 0, 64, 127
2, 115192, Note_on_c, 0, 52, 0
2, 115203, Note_on_c, 0, 102, 105
2, 115205, Note_on_c, 0, 90, 95
2, 115211, Note_on_c, 0, 103, 41
2, 115216, Note_on_c, 0, 103, 0
2, 115222, Note_on_c, 0, 90, 0
2, 115223, Note_on_c, 0, 102, 0
2, 115236, Note_on_c, 0, 100, 107
2, 115237, Note_on_c, 0, 88, 92
2, 115267, Note_on_c, 0, 67, 85
2, 115267, Note_on_c, 0, 64, 84
2, 115268, Note_on_c, 0, 55, 72
2, 115269, Note_on_c, 0, 88, 0
2, 115270, Note_on_c, 0, 60, 73
2, 115276, Note_on_c, 0, 100, 0
2, 115278, Note_on_c, 0, 64, 0
2, 115278, Note_on_c, 0, 67, 0
2, 115283, Note_on_c, 0, 60, 0
2, 115286, Note_on_c, 0, 55, 0
2, 115295, Note_on_c, 0, 100, 95
2, 115296, Note_on_c, 0, 88, 87
2, 115308, Note_on_c, 0, 88, 0
2, 115308, Note_on_c, 0, 100, 0
2, 115326, Note_on_c, 0, 98, 100
2, 115328, Note_on_c, 0, 86, 88
2, 115347, Control_c, 0, 64, 104
2, 115351, Control_c, 0, 64, 56
2, 115353, Control_c, 0, 64, 24
2, 115356, Note_on_c, 0, 40, 74
2, 115358, Note_on_c, 0, 52, 92
2, 115361, Note_on_c, 0, 86, 0
2, 115361, Control_c, 0, 64, 88
2, 115363, Control_c, 0, 64, 127
2, 115367, Note_on_c, 0, 40, 0
2, 115369, Note_on_c, 0, 98, 0
2, 115371, Note_on_c, 0, 52, 0
2, 115390, Note_on_c, 0, 98, 95
2, 115391, Note_on_c, 0, 86, 83
2, 115402, Note_on_c, 0, 86, 0
2, 115403, Note_on_c, 0, 98, 0
2, 115421, Note_on_c, 0, 96, 98
2, 115422, Note_on_c, 0, 84, 87
2, 115434, Note_on_c, 0, 84, 0
2, 115442, Note_on_c, 0, 96, 0
2, 115452, Note_on_c, 0, 72, 92
2, 115452, Note_on_c, 0, 67, 84
2, 115452, Note_on_c, 0, 64, 76
2, 115453, Note_on_c, 0, 60, 75
2, 115474, Note_on_c, 0, 72, 0
2, 115475, Note_on_c, 0, 64, 0
2, 115477, Note_on_c, 0, 67, 0
2, 115478, Note_on_c, 0, 95, 95
2, 115480, Note_on_c, 0, 83, 79
2, 115484, Note_on_c, 0, 60, 0
2, 115486, Note_on_c, 0, 83, 0
2, 115488, Note_on_c, 0, 95, 0
2, 115508, Note_on_c, 0, 96, 92
2, 115510, Note_on_c, 0, 84, 87
2, 115516, Note_on_c, 0, 84, 0
2, 115518, Note_on_c, 0, 96, 0
2, 115540, Control_c, 0, 64, 88
2, 115542, Control_c, 0, 64, 0
2, 115547, Note_on_c, 0, 56, 73
2, 115547, Note_on_c, 0, 44, 60
2, 115560, Control_c, 0, 64, 56
2, 115562, Control_c, 0, 64, 127
2, 115565, Note_on_c, 0, 44, 0
2, 115572, Note_on_c, 0, 56, 0
2, 115572, Note_on_c, 0, 84, 87
2, 115576, Note_on_c, 0, 72, 76
2, 115581, Note_on_c, 0, 72, 0
2, 115584, Note_on_c, 0, 84, 0
2, 115601, Note_on_c, 0, 85, 99
2, 115601, Note_on_c, 0, 73, 96
2, 115616, Note_on_c, 0, 73, 0
2, 115617, Note_on_c, 0, 85, 0
2, 115630, Note_on_c, 0, 66, 81
2, 115630, Note_on_c, 0, 86, 107
2, 115630, Note_on_c, 0, 56, 70
2, 115631, Note_on_c, 0, 74, 106
2, 115631, Note_on_c, 0, 60, 74
2, 115639, Note_on_c, 0, 60, 0
2, 115641, Note_on_c, 0, 66, 0
2, 115641, Note_on_c, 0, 74, 0
2, 115642, Note_on_c, 0, 56, 0
2, 115642, Note_on_c, 0, 86, 0
2, 115655, Note_on_c, 0, 87, 107
2, 115656, Note_on_c, 0, 75, 107
2, 115657, Note_on_c, 0, 66, 80
2, 115658, Note_on_c, 0, 56, 63
2, 115658, Note_on_c, 0, 60, 59
2, 115662, Note_on_c, 0, 85, 45
2, 115665, Note_on_c, 0, 85, 0
2, 115668, Note_on_c, 0, 75, 0
2, 115669, Note_on_c, 0, 66, 0
2, 115671, Note_on_c, 0, 56, 0
2, 115672, Note_on_c, 0, 87, 0
2, 115673, Note_on_c, 0, 60, 0
2, 115686, Note_on_c, 0, 88, 107
2, 115687, Note_on_c, 0, 76, 107
2, 115687, Note_on_c, 0, 66, 82
2, 115688, Note_on_c, 0, 56, 71
2, 115688, Note_on_c, 0, 60, 68
2, 115698, Note_on_c, 0, 76, 0
2, 115702, Note_on_c, 0, 88, 0
2, 115702, Note_on_c, 0, 66, 0
2, 115705, Note_on_c, 0, 56, 0
2, 115705, Note_on_c, 0, 60, 0
2, 115726, Note_on_c, 0, 88, 107
2, 115727, Note_on_c, 0, 76, 107
2, 115730, Note_on_c, 0, 56, 78
2, 115731, Note_on_c, 0, 66, 92
2, 115731, Note_on_c, 0, 60, 82
2, 115745, Note_on_c, 0, 76, 0
2, 115753, Note_on_c, 0, 66, 0
2, 115754, Note_on_c, 0, 88, 0
2, 115756, Note_on_c, 0, 60, 0
2, 115758, Note_on_c, 0, 56, 0
2, 115772, Note_on_c, 0, 87, 93
2, 115772, Note_on_c, 0, 75, 96
2, 115782, Note_on_c, 0, 87, 0
2, 115783, Note_on_c, 0, 75, 0
2, 115817, Note_on_c, 0, 69, 80
2, 115821, Note_on_c, 0, 45, 78
2, 115821, Note_on_c, 0, 57, 69
2, 115833, Note_on_c, 0, 57, 0
2, 115833, Note_on_c, 0, 45, 0
2, 115833, Note_on_c, 0, 69, 0
2, 115861, Note_on_c, 0, 68, 70
2, 115862, Note_on_c, 0, 56, 71
2, 115863, Note_on_c, 0, 44, 70
2, 115869, Note_on_c, 0, 44, 0
2, 115871, Note_on_c, 0, 68, 0
2, 115872, Note_on_c, 0, 56, 0
2, 115907, Control_c, 0, 64, 104
2, 115910, Control_c, 0, 64, 40
2, 115912, Note_on_c, 0, 42, 77
2, 115912, Control_c, 0, 64, 0
2, 115913, Note_on_c, 0, 54, 87
2, 115926, Control_c, 0, 64, 40
2, 115928, Note_on_c, 0, 42, 0
2, 115928, Control_c, 0, 64, 127
2, 115929, Note_on_c, 0, 54, 0
2, 115940, Note_on_c, 0, 104, 96
2, 115941, Note_on_c, 0, 92, 95
2, 115953, Note_on_c, 0, 92, 0
2, 115955, Note_on_c, 0, 104, 0
2, 115972, Note_on_c, 0, 102, 105
2, 115972, Note_on_c, 0, 90, 95
2, 116003, Note_on_c, 0, 90, 0
2, 116007, Note_on_c, 0, 62, 84
2, 116007, Note_on_c, 0, 66, 79
2, 116007, Note_on_c, 0, 69, 89
2, 116008, Note_on_c, 0, 57, 73
2, 116012, Note_on_c, 0, 102, 0
2, 116019, Note_on_c, 0, 69, 0
2, 116023, Note_on_c, 0, 66, 0
2, 116025, Note_on_c, 0, 62, 0
2, 116028, Note_on_c, 0, 57, 0
2, 116037, Note_on_c, 0, 102, 91
2, 116037, Note_on_c, 0, 90, 90
2, 116048, Note_on_c, 0, 90, 0
2, 116049, Note_on_c, 0, 102, 0
2, 116067, Note_on_c, 0, 100, 103
2, 116068, Note_on_c, 0, 88, 84
2, 116093, Control_c, 0, 64, 24
2, 116096, Control_c, 0, 64, 0
2, 116098, Note_on_c, 0, 54, 97
2, 116098, Note_on_c, 0, 42, 77
2, 116104, Note_on_c, 0, 88, 0
2, 116105, Control_c, 0, 64, 88
2, 116107, Control_c, 0, 64, 127
2, 116109, Note_on_c, 0, 100, 0
2, 116110, Note_on_c, 0, 42, 0
2, 116111, Note_on_c, 0, 54, 0
2, 116130, Note_on_c, 0, 100, 96
2, 116131, Note_on_c, 0, 88, 82
2, 116141, Note_on_c, 0, 88, 0
2, 116142, Note_on_c, 0, 100, 0
2, 116161, Note_on_c, 0, 98, 100
2, 116162, Note_on_c, 0, 86, 84
2, 116189, Note_on_c, 0, 86, 0
2, 116193, Note_on_c, 0, 62, 81
2, 116193, Note_on_c, 0, 74, 92
2, 116193, Note_on_c, 0, 66, 70
2, 116193, Note_on_c, 0, 69, 86
2, 116201, Note_on_c, 0, 98, 0
2, 116206, Note_on_c, 0, 74, 0
2, 116208, Note_on_c, 0, 69, 0
2, 116209, Note_on_c, 0, 62, 0
2, 116211, Note_on_c, 0, 66, 0
2, 116223, Note_on_c, 0, 97, 90
2, 116223, Note_on_c, 0, 85, 83
2, 116235, Note_on_c, 0, 85, 0
2, 116243, Note_on_c, 0, 97, 0
2, 116253, Note_on_c, 0, 98, 94
2, 116256, Note_on_c, 0, 86, 78
2, 116263, Note_on_c, 0, 98, 0
2, 116264, Note_on_c, 0, 86, 0
2, 116285, Control_c, 0, 64, 88
2, 116288, Control_c, 0, 64, 0
2, 116291, Note_on_c, 0, 58, 74
2, 116291, Note_on_c, 0, 46, 61
2, 116300, Control_c, 0, 64, 56
2, 116302, Control_c, 0, 64, 127
2, 116307, Note_on_c, 0, 46, 0
2, 116311, Note_on_c, 0, 58, 0
2, 116320, Note_on_c, 0, 86, 85
2, 116322, Note_on_c, 0, 74, 77
2, 116328, Note_on_c, 0, 74, 0
2, 116331, Note_on_c, 0, 86, 0
2, 116348, Note_on_c, 0, 75, 90
2, 116348, Note_on_c, 0, 87, 91
2, 116360, Note_on_c, 0, 75, 0
2, 116361, Note_on_c, 0, 87, 0
2, 116376, Note_on_c, 0, 76, 99
2, 116377, Note_on_c, 0, 88, 104
2, 116377, Note_on_c, 0, 68, 83
2, 116377, Note_on_c, 0, 58, 63
2, 116378, Note_on_c, 0, 62, 69
2, 116383, Note_on_c, 0, 62, 0
2, 116386, Note_on_c, 0, 76, 0
2, 116387, Note_on_c, 0, 68, 0
2, 116388, Note_on_c, 0, 88, 0
2, 116388, Note_on_c, 0, 58, 0
2, 116405, Note_on_c, 0, 89, 107
2, 116405, Note_on_c, 0, 77, 107
2, 116406, Note_on_c, 0, 58, 70
2, 116407, Note_on_c, 0, 68, 95
2, 116408, Note_on_c, 0, 62, 77
2, 116413, Note_on_c, 0, 62, 0
2, 116416, Note_on_c, 0, 77, 0
2, 116417, Note_on_c, 0, 89, 0
2, 116417, Note_on_c, 0, 68, 0
2, 116418, Note_on_c, 0, 58, 0
2, 116433, Note_on_c, 0, 78, 107
2, 116433, Note_on_c, 0, 90, 107
2, 116435, Note_on_c, 0, 68, 96
2, 116435, Note_on_c, 0, 62, 82
2, 116436, Note_on_c, 0, 58, 77
2, 116446, Note_on_c, 0, 78, 0
2, 116448, Note_on_c, 0, 58, 0
2, 116448, Note_on_c, 0, 68, 0
2, 116451, Note_on_c, 0, 90, 0
2, 116451, Note_on_c, 0, 62, 0
2, 116472, Note_on_c, 0, 90, 107
2, 116473, Note_on_c, 0, 78, 107
2, 116476, Note_on_c, 0, 68, 99
2, 116476, Note_on_c, 0, 62, 79
2, 116477, Note_on_c, 0, 58, 73
2, 116493, Note_on_c, 0, 68, 0
2, 116495, Note_on_c, 0, 78, 0
2, 116496, Note_on_c, 0, 62, 0
2, 116500, Note_on_c, 0, 58, 0
2, 116500, Note_on_c, 0, 90, 0
2, 116517, Note_on_c, 0, 89, 92
2, 116517, Note_on_c, 0, 77, 87
2, 116523, Note_on_c, 0, 89, 0
2, 116525, Note_on_c, 0, 77, 0
2, 116560, Note_on_c, 0, 34, 52
2, 116561, Note_on_c, 0, 58, 83
2, 116565, Note_on_c, 0, 34, 0
2, 116573, Note_on_c, 0, 58, 0
2, 116603, Note_on_c, 0, 35, 76
2, 116603, Note_on_c, 0, 59, 87
2, 116605, Note_on_c, 0, 47, 92
2, 116608, Note_on_c, 0, 35, 0
2, 116609, Note_on_c, 0, 59, 0
2, 116615, Note_on_c, 0, 47, 0
2, 116650, Control_c, 0, 64, 88
2, 116652, Note_on_c, 0, 47, 80
2, 116652, Note_on_c, 0, 59, 87
2, 116652, Control_c, 0, 64, 0
2, 116661, Control_c, 0, 64, 40
2, 116663, Control_c, 0, 64, 127
2, 116667, Note_on_c, 0, 47, 0
2, 116672, Note_on_c, 0, 59, 0
2, 116681, Note_on_c, 0, 86, 87
2, 116683, Note_on_c, 0, 74, 68
2, 116689, Note_on_c, 0, 74, 0
2, 116691, Note_on_c, 0, 86, 0
2, 116706, Note_on_c, 0, 87, 96
2, 116707, Note_on_c, 0, 75, 94
2, 116718, Note_on_c, 0, 75, 0
2, 116722, Note_on_c, 0, 87, 0
2, 116736, Note_on_c, 0, 88, 104
2, 116737, Note_on_c, 0, 76, 99
2, 116738, Note_on_c, 0, 68, 87
2, 116740, Note_on_c, 0, 59, 73
2, 116741, Note_on_c, 0, 62, 75
2, 116742, Note_on_c, 0, 87, 43
2, 116744, Note_on_c, 0, 62, 0
2, 116747, Note_on_c, 0, 76, 0
2, 116747, Note_on_c, 0, 87, 0
2, 116748, Note_on_c, 0, 59, 0
2, 116749, Note_on_c, 0, 68, 0
2, 116749, Note_on_c, 0, 88, 0
2, 116763, Note_on_c, 0, 89, 107
2, 116765, Note_on_c, 0, 77, 107
2, 116767, Note_on_c, 0, 62, 80
2, 116767, Note_on_c, 0, 68, 96
2, 116768, Note_on_c, 0, 59, 83
2, 116775, Note_on_c, 0, 77, 0
2, 116776, Note_on_c, 0, 89, 0
2, 116778, Note_on_c, 0, 68, 0
2, 116779, Note_on_c, 0, 59, 0
2, 116780, Note_on_c, 0, 62, 0
2, 116793, Note_on_c, 0, 90, 107
2, 116793, Note_on_c, 0, 78, 107
2, 116793, Note_on_c, 0, 62, 65
2, 116793, Note_on_c, 0, 68, 95
2, 116793, Note_on_c, 0, 59, 64
2, 116804, Note_on_c, 0, 78, 0
2, 116805, Note_on_c, 0, 90, 0
2, 116810, Note_on_c, 0, 68, 0
2, 116814, Note_on_c, 0, 62, 0
2, 116818, Note_on_c, 0, 59, 0
2, 116833, Note_on_c, 0, 90, 107
2, 116833, Note_on_c, 0, 78, 107
2, 116835, Note_on_c, 0, 59, 81
2, 116836, Note_on_c, 0, 68, 106
2, 116836, Note_on_c, 0, 62, 82
2, 116853, Note_on_c, 0, 68, 0
2, 116856, Note_on_c, 0, 59, 0
2, 116858, Note_on_c, 0, 62, 0
2, 116858, Note_on_c, 0, 78, 0
2, 116859, Note_on_c, 0, 90, 0
2, 116877, Note_on_c, 0, 89, 97
2, 116878, Note_on_c, 0, 77, 86
2, 116885, Note_on_c, 0, 89, 0
2, 116889, Note_on_c, 0, 77, 0
2, 116918, Note_on_c, 0, 35, 74
2, 116921, Note_on_c, 0, 47, 75
2, 116923, Note_on_c, 0, 60, 70
2, 116925, Note_on_c, 0, 35, 0
2, 116928, Note_on_c, 0, 59, 39
2, 116931, Note_on_c, 0, 47, 0
2, 116934, Note_on_c, 0, 59, 0
2, 116934, Note_on_c, 0, 60, 0
2, 116963, Note_on_c, 0, 60, 88
2, 116966, Note_on_c, 0, 48, 94
2, 116967, Note_on_c, 0, 36, 55
2, 116968, Note_on_c, 0, 60, 0
2, 116972, Note_on_c, 0, 36, 0
2, 116974, Note_on_c, 0, 48, 0
2, 117011, Control_c, 0, 64, 72
2, 117013, Note_on_c, 0, 48, 99
2, 117013, Note_on_c, 0, 60, 99
2, 117015, Control_c, 0, 64, 0
2, 117022, Control_c, 0, 64, 40
2, 117026, Note_on_c, 0, 48, 0
2, 117026, Control_c, 0, 64, 127
2, 117035, Note_on_c, 0, 60, 0
2, 117042, Note_on_c, 0, 86, 94
2, 117043, Note_on_c, 0, 74, 84
2, 117051, Note_on_c, 0, 74, 0
2, 117054, Note_on_c, 0, 86, 0
2, 117070, Note_on_c, 0, 87, 96
2, 117070, Note_on_c, 0, 75, 92
2, 117082, Note_on_c, 0, 75, 0
2, 117085, Note_on_c, 0, 87, 0
2, 117101, Note_on_c, 0, 88, 107
2, 117101, Note_on_c, 0, 76, 102
2, 117101, Note_on_c, 0, 63, 65
2, 117102, Note_on_c, 0, 69, 91
2, 117102, Note_on_c, 0, 60, 77
2, 117103, Note_on_c, 0, 66, 60
2, 117109, Note_on_c, 0, 66, 0
2, 117109, Note_on_c, 0, 60, 0
2, 117111, Note_on_c, 0, 76, 0
2, 117112, Note_on_c, 0, 88, 0
2, 117112, Note_on_c, 0, 63, 0
2, 117112, Note_on_c, 0, 69, 0
2, 117128, Note_on_c, 0, 89, 107
2, 117128, Note_on_c, 0, 77, 107
2, 117130, Note_on_c, 0, 69, 102
2, 117130, Note_on_c, 0, 63, 74
2, 117130, Note_on_c, 0, 60, 83
2, 117131, Note_on_c, 0, 66, 78
2, 117138, Note_on_c, 0, 77, 0
2, 117140, Note_on_c, 0, 89, 0
2, 117140, Note_on_c, 0, 69, 0
2, 117141, Note_on_c, 0, 66, 0
2, 117141, Note_on_c, 0, 60, 0
2, 117142, Note_on_c, 0, 63, 0
2, 117156, Note_on_c, 0, 90, 106
2, 117156, Note_on_c, 0, 78, 107
2, 117157, Note_on_c, 0, 63, 81
2, 117158, Note_on_c, 0, 69, 107
2, 117158, Note_on_c, 0, 66, 79
2, 117160, Note_on_c, 0, 60, 83
2, 117167, Note_on_c, 0, 78, 0
2, 117169, Note_on_c, 0, 66, 0
2, 117169, Note_on_c, 0, 69, 0
2, 117170, Note_on_c, 0, 63, 0
2, 117171, Note_on_c, 0, 60, 0
2, 117172, Note_on_c, 0, 90, 0
2, 117190, Note_on_c, 0, 92, 107
2, 117191, Note_on_c, 0, 80, 107
2, 117192, Note_on_c, 0, 69, 107
2, 117192, Note_on_c, 0, 60, 92
2, 117192, Note_on_c, 0, 63, 83
2, 117192, Note_on_c, 0, 66, 79
2, 117209, Note_on_c, 0, 69, 0
2, 117212, Note_on_c, 0, 80, 0
2, 117212, Note_on_c, 0, 60, 0
2, 117212, Note_on_c, 0, 66, 0
2, 117217, Note_on_c, 0, 63, 0
2, 117218, Note_on_c, 0, 92, 0
2, 117236, Note_on_c, 0, 93, 107
2, 117236, Note_on_c, 0, 81, 100
2, 117251, Note_on_c, 0, 81, 0
2, 117261, Note_on_c, 0, 93, 0
2, 117277, Control_c, 0, 64, 88
2, 117280, Control_c, 0, 64, 0
2, 117281, Note_on_c, 0, 92, 107
2, 117281, Note_on_c, 0, 80, 107
2, 117282, Note_on_c, 0, 87, 101
2, 117285, Note_on_c, 0, 65, 94
2, 117285, Note_on_c, 0, 53, 90
2, 117291, Control_c, 0, 64, 72
2, 117293, Control_c, 0, 64, 127
2, 117305, Note_on_c, 0, 65, 0
2, 117308, Note_on_c, 0, 87, 0
2, 117308, Note_on_c, 0, 53, 0
2, 117309, Note_on_c, 0, 80, 0
2, 117312, Note_on_c, 0, 92, 0
2, 117328, Note_on_c, 0, 66, 91
2, 117328, Note_on_c, 0, 93, 107
2, 117328, Note_on_c, 0, 54, 84
2, 117330, Note_on_c, 0, 81, 96
2, 117330, Note_on_c, 0, 87, 84
2, 117336, Note_on_c, 0, 66, 0
2, 117340, Note_on_c, 0, 54, 0
2, 117342, Note_on_c, 0, 81, 0
2, 117349, Note_on_c, 0, 93, 0
2, 117360, Note_on_c, 0, 87, 0
2, 117376, Control_c, 0, 64, 56
2, 117377, Note_on_c, 0, 92, 107
2, 117377, Note_on_c, 0, 80, 107
2, 117378, Note_on_c, 0, 87, 103
2, 117378, Note_on_c, 0, 59, 98
2, 117378, Note_on_c, 0, 47, 89
2, 117378, Control_c, 0, 64, 0
2, 117387, Control_c, 0, 64, 127
2, 117389, Note_on_c, 0, 47, 0
2, 117394, Note_on_c, 0, 59, 0
2, 117404, Note_on_c, 0, 80, 0
2, 117408, Note_on_c, 0, 87, 0
2, 117412, Note_on_c, 0, 92, 0
2, 117425, Note_on_c, 0, 93, 107
2, 117426, Note_on_c, 0, 60, 94
2, 117426, Note_on_c, 0, 81, 94
2, 117427, Note_on_c, 0, 48, 94
2, 117428, Note_on_c, 0, 87, 81
2, 117433, Note_on_c, 0, 87, 0
2, 117435, Note_on_c, 0, 48, 0
2, 117436, Note_on_c, 0, 60, 0
2, 117439, Note_on_c, 0, 81, 0
2, 117446, Note_on_c, 0, 93, 0
2, 117472, Note_on_c, 0, 80, 106
2, 117472, Note_on_c, 0, 92, 107
2, 117473, Note_on_c, 0, 87, 98
2, 117475, Note_on_c, 0, 53, 102
2, 117475, Control_c, 0, 64, 56
2, 117476, Note_on_c, 0, 41, 92
2, 117477, Control_c, 0, 64, 0
2, 117483, Control_c, 0, 64, 88
2, 117486, Control_c, 0, 64, 127
2, 117492, Note_on_c, 0, 53, 0
2, 117495, Note_on_c, 0, 80, 0
2, 117498, Note_on_c, 0, 87, 0
2, 117503, Note_on_c, 0, 41, 0
2, 117504, Note_on_c, 0, 92, 0
2, 117520, Note_on_c, 0, 54, 97
2, 117520, Note_on_c, 0, 93, 107
2, 117521, Note_on_c, 0, 42, 86
2, 117522, Note_on_c, 0, 81, 100
2, 117522, Note_on_c, 0, 87, 97
2, 117528, Note_on_c, 0, 54, 0
2, 117531, Note_on_c, 0, 42, 0
2, 117533, Note_on_c, 0, 81, 0
2, 117543, Note_on_c, 0, 93, 0
2, 117544, Note_on_c, 0, 87, 0
2, 117570, Note_on_c, 0, 92, 107
2, 117571, Note_on_c, 0, 80, 107
2, 117571, Control_c, 0, 64, 88
2, 117572, Note_on_c, 0, 87, 98
2, 117572, Note_on_c, 0, 35, 85
2, 117573, Note_on_c, 0, 47, 96
2, 117573, Control_c, 0, 64, 0
2, 117577, Note_on_c, 0, 90, 38
2, 117582, Note_on_c, 0, 90, 0
2, 117582, Control_c, 0, 64, 127
2, 117583, Note_on_c, 0, 35, 0
2, 117583, Note_on_c, 0, 47, 0
2, 117593, Note_on_c, 0, 80, 0
2, 117598, Note_on_c, 0, 87, 0
2, 117605, Note_on_c, 0, 92, 0
2, 117625, Note_on_c, 0, 93, 107
2, 117625, Note_on_c, 0, 48, 107
2, 117625, Note_on_c, 0, 81, 107
2, 117625, Note_on_c, 0, 36, 78
2, 117630, Note_on_c, 0, 36, 0
2, 117635, Note_on_c, 0, 48, 0
2, 117637, Note_on_c, 0, 81, 0
2, 117642, Note_on_c, 0, 93, 0
2, 117686, Control_c, 0, 64, 0
2, 117691, Note_on_c, 0, 93, 107
2, 117691, Note_on_c, 0, 81, 107
2, 117691, Note_on_c, 0, 87, 103
2, 117692, Note_on_c, 0, 53, 89
2, 117692, Note_on_c, 0, 60, 98
2, 117692, Note_on_c, 0, 65, 104
2, 117698, Control_c, 0, 64, 88
2, 117701, Control_c, 0, 64, 127
2, 117702, Note_on_c, 0, 53, 0
2, 117703, Note_on_c, 0, 60, 0
2, 117703, Note_on_c, 0, 81, 0
2, 117703, Note_on_c, 0, 65, 0
2, 117706, Note_on_c, 0, 87, 0
2, 117708, Note_on_c, 0, 93, 0
2, 117786, Control_c, 0, 64, 0
2, 117797, Note_on_c, 0, 37, 62
2, 117798, Note_on_c, 0, 49, 65
2, 117802, Note_on_c, 0, 37, 0
2, 117805, Note_on_c, 0, 49, 0
2, 117831, Note_on_c, 0, 69, 56
2, 117836, Note_on_c, 0, 69, 0
2, 117866, Note_on_c, 0, 59, 65
2, 117867, Note_on_c, 0, 81, 70
2, 117868, Note_on_c, 0, 93, 74
2, 117868, Note_on_c, 0, 65, 49
2, 117871, Note_on_c, 0, 93, 0
2, 117872, Note_on_c, 0, 81, 0
2, 117874, Note_on_c, 0, 59, 0
2, 117874, Note_on_c, 0, 65, 0
2, 117901, Note_on_c, 0, 53, 73
2, 117919, Note_on_c, 0, 53, 0
2, 117930, Note_on_c, 0, 70, 83
2, 117937, Note_on_c, 0, 70, 0
2, 117962, Note_on_c, 0, 82, 92
2, 117962, Note_on_c, 0, 94, 87
2, 117966, Note_on_c, 0, 65, 64
2, 117967, Note_on_c, 0, 94, 0
2, 117967, Note_on_c, 0, 59, 59
2, 117968, Note_on_c, 0, 61, 42
2, 117969, Note_on_c, 0, 82, 0
2, 117973, Note_on_c, 0, 65, 0
2, 117973, Note_on_c, 0, 59, 0
2, 117973, Note_on_c, 0, 61, 0
2, 117996, Note_on_c, 0, 49, 91
2, 118001, Note_on_c, 0, 49, 0
2, 118025, Note_on_c, 0, 75, 87
2, 118036, Note_on_c, 0, 75, 0
2, 118057, Note_on_c, 0, 99, 105
2, 118057, Note_on_c, 0, 87, 97
2, 118060, Note_on_c, 0, 65, 64
2, 118062, Note_on_c, 0, 59, 52
2, 118063, Note_on_c, 0, 87, 0
2, 118063, Note_on_c, 0, 99, 0
2, 118063, Note_on_c, 0, 61, 36
2, 118067, Note_on_c, 0, 65, 0
2, 118068, Note_on_c, 0, 61, 0
2, 118068, Note_on_c, 0, 59, 0
2, 118092, Note_on_c, 0, 53, 77
2, 118107, Note_on_c, 0, 53, 0
2, 118121, Note_on_c, 0, 69, 92
2, 118128, Note_on_c, 0, 69, 0
2, 118156, Note_on_c, 0, 93, 103
2, 118156, Note_on_c, 0, 81, 85
2, 118156, Note_on_c, 0, 65, 69
2, 118157, Note_on_c, 0, 61, 59
2, 118157, Note_on_c, 0, 59, 61
2, 118160, Note_on_c, 0, 61, 0
2, 118161, Note_on_c, 0, 81, 0
2, 118161, Note_on_c, 0, 93, 0
2, 118162, Note_on_c, 0, 65, 0
2, 118162, Note_on_c, 0, 59, 0
2, 118190, Note_on_c, 0, 37, 89
2, 118190, Note_on_c, 0, 49, 85
2, 118196, Note_on_c, 0, 37, 0
2, 118197, Note_on_c, 0, 49, 0
2, 118223, Note_on_c, 0, 69, 68
2, 118229, Note_on_c, 0, 69, 0
2, 118253, Note_on_c, 0, 66, 63
2, 118255, Note_on_c, 0, 58, 61
2, 118255, Note_on_c, 0, 93, 106
2, 118256, Note_on_c, 0, 81, 76
2, 118257, Note_on_c, 0, 61, 61
2, 118261, Note_on_c, 0, 93, 0
2, 118262, Note_on_c, 0, 81, 0
2, 118263, Note_on_c, 0, 61, 0
2, 118263, Note_on_c, 0, 58, 0
2, 118264, Note_on_c, 0, 66, 0
2, 118291, Note_on_c, 0, 54, 66
2, 118317, Note_on_c, 0, 54, 0
2, 118317, Note_on_c, 0, 70, 89
2, 118324, Note_on_c, 0, 70, 0
2, 118347, Note_on_c, 0, 58, 62
2, 118348, Note_on_c, 0, 66, 67
2, 118348, Note_on_c, 0, 94, 100
2, 118348, Note_on_c, 0, 82, 101
2, 118355, Note_on_c, 0, 82, 0
2, 118355, Note_on_c, 0, 94, 0
2, 118358, Note_on_c, 0, 66, 0
2, 118359, Note_on_c, 0, 58, 0
2, 118383, Note_on_c, 0, 62, 77
2, 118383, Control_c, 0, 64, 40
2, 118386, Note_on_c, 0, 50, 83
2, 118386, Control_c, 0, 64, 56
2, 118393, Note_on_c, 0, 62, 0
2, 118394, Note_on_c, 0, 50, 0
2, 118402, Control_c, 0, 64, 88
2, 118407, Note_on_c, 0, 86, 97
2, 118407, Note_on_c, 0, 74, 99
2, 118407, Note_on_c, 0, 78, 79
2, 118407, Note_on_c, 0, 82, 78
2, 118407, Control_c, 0, 64, 104
2, 118411, Control_c, 0, 64, 127
2, 118415, Note_on_c, 0, 74, 0
2, 118417, Note_on_c, 0, 86, 0
2, 118418, Note_on_c, 0, 78, 0
2, 118418, Note_on_c, 0, 82, 0
2, 118436, Note_on_c, 0, 86, 107
2, 118436, Note_on_c, 0, 74, 107
2, 118436, Note_on_c, 0, 62, 88
2, 118436, Note_on_c, 0, 78, 92
2, 118436, Note_on_c, 0, 82, 90
2, 118440, Note_on_c, 0, 54, 50
2, 118441, Note_on_c, 0, 58, 33
2, 118446, Note_on_c, 0, 58, 0
2, 118448, Note_on_c, 0, 74, 0
2, 118448, Note_on_c, 0, 62, 0
2, 118448, Note_on_c, 0, 78, 0
2, 118449, Note_on_c, 0, 86, 0
2, 118451, Note_on_c, 0, 82, 0
2, 118451, Note_on_c, 0, 54, 0
2, 118460, Control_c, 0, 64, 72
2, 118463, Control_c, 0, 64, 0
2, 118467, Note_on_c, 0, 86, 107
2, 118467, Note_on_c, 0, 74, 107
2, 118468, Note_on_c, 0, 78, 105
2, 118468, Note_on_c, 0, 82, 100
2, 118470, Note_on_c, 0, 62, 93
2, 118472, Note_on_c, 0, 49, 80
2, 118480, Control_c, 0, 64, 127
2, 118483, Note_on_c, 0, 74, 0
2, 118484, Note_on_c, 0, 86, 0
2, 118486, Note_on_c, 0, 78, 0
2, 118488, Note_on_c, 0, 82, 0
2, 118492, Note_on_c, 0, 62, 0
2, 118498, Note_on_c, 0, 85, 107
2, 118499, Note_on_c, 0, 49, 0
2, 118500, Note_on_c, 0, 73, 107
2, 118500, Note_on_c, 0, 82, 78
2, 118500, Note_on_c, 0, 78, 77
2, 118511, Note_on_c, 0, 78, 0
2, 118511, Note_on_c, 0, 85, 0
2, 118511, Note_on_c, 0, 73, 0
2, 118511, Note_on_c, 0, 82, 0
2, 118528, Note_on_c, 0, 85, 106
2, 118528, Note_on_c, 0, 73, 107
2, 118530, Note_on_c, 0, 82, 83
2, 118531, Note_on_c, 0, 78, 81
2, 118532, Note_on_c, 0, 61, 42
2, 118533, Note_on_c, 0, 49, 73
2, 118534, Note_on_c, 0, 78, 0
2, 118535, Note_on_c, 0, 82, 0
2, 118537, Note_on_c, 0, 61, 0
2, 118538, Note_on_c, 0, 49, 0
2, 118539, Note_on_c, 0, 73, 0
2, 118541, Note_on_c, 0, 85, 0
2, 118553, Control_c, 0, 64, 88
2, 118556, Control_c, 0, 64, 24
2, 118558, Control_c, 0, 64, 0
2, 118566, Note_on_c, 0, 49, 68
2, 118567, Note_on_c, 0, 37, 70
2, 118572, Note_on_c, 0, 37, 0
2, 118573, Note_on_c, 0, 49, 0
2, 118595, Note_on_c, 0, 69, 72
2, 118600, Note_on_c, 0, 69, 0
2, 118627, Note_on_c, 0, 93, 99
2, 118627, Note_on_c, 0, 81, 80
2, 118627, Note_on_c, 0, 65, 66
2, 118630, Note_on_c, 0, 59, 50
2, 118630, Note_on_c, 0, 61, 41
2, 118632, Note_on_c, 0, 81, 0
2, 118632, Note_on_c, 0, 93, 0
2, 118634, Note_on_c, 0, 65, 0
2, 118636, Note_on_c, 0, 61, 0
2, 118637, Note_on_c, 0, 59, 0
2, 118661, Note_on_c, 0, 53, 73
2, 118676, Note_on_c, 0, 53, 0
2, 118686, Note_on_c, 0, 70, 90
2, 118696, Note_on_c, 0, 70, 0
2, 118720, Note_on_c, 0, 82, 95
2, 118720, Note_on_c, 0, 94, 97
2, 118722, Note_on_c, 0, 65, 66
2, 118723, Note_on_c, 0, 59, 56
2, 118725, Note_on_c, 0, 61, 41
2, 118726, Note_on_c, 0, 94, 0
2, 118727, Note_on_c, 0, 82, 0
2, 118729, Note_on_c, 0, 59, 0
2, 118729, Note_on_c, 0, 65, 0
2, 118731, Note_on_c, 0, 61, 0
2, 118757, Note_on_c, 0, 49, 61
2, 118760, Note_on_c, 0, 49, 0
2, 118785, Note_on_c, 0, 75, 89
2, 118793, Note_on_c, 0, 75, 0
2, 118818, Note_on_c, 0, 99, 94
2, 118820, Note_on_c, 0, 87, 97
2, 118820, Note_on_c, 0, 65, 66
2, 118823, Note_on_c, 0, 59, 50
2, 118823, Note_on_c, 0, 61, 46
2, 118825, Note_on_c, 0, 99, 0
2, 118828, Note_on_c, 0, 87, 0
2, 118828, Note_on_c, 0, 61, 0
2, 118829, Note_on_c, 0, 59, 0
2, 118832, Note_on_c, 0, 65, 0
2, 118853, Note_on_c, 0, 53, 77
2, 118866, Note_on_c, 0, 53, 0
2, 118882, Note_on_c, 0, 69, 87
2, 118887, Note_on_c, 0, 69, 0
2, 118917, Note_on_c, 0, 93, 88
2, 118918, Note_on_c, 0, 65, 66
2, 118918, Note_on_c, 0, 81, 56
2, 118920, Note_on_c, 0, 59, 63
2, 118920, Note_on_c, 0, 61, 50
2, 118922, Note_on_c, 0, 93, 0
2, 118923, Note_on_c, 0, 65, 0
2, 118923, Note_on_c, 0, 81, 0
2, 118925, Note_on_c, 0, 59, 0
2, 118925, Note_on_c, 0, 61, 0
2, 118956, Note_on_c, 0, 49, 55
2, 118956, Note_on_c, 0, 37, 56
2, 118959, Note_on_c, 0, 37, 0
2, 118961, Note_on_c, 0, 49, 0
2, 118981, Note_on_c, 0, 69, 86
2, 118991, Note_on_c, 0, 69, 0
2, 119015, Note_on_c, 0, 93, 103
2, 119015, Note_on_c, 0, 81, 84
2, 119016, Note_on_c, 0, 66, 62
2, 119017, Note_on_c, 0, 58, 60
2, 119018, Note_on_c, 0, 61, 60
2, 119021, Note_on_c, 0, 81, 0
2, 119022, Note_on_c, 0, 93, 0
2, 119024, Note_on_c, 0, 58, 0
2, 119025, Note_on_c, 0, 61, 0
2, 119029, Note_on_c, 0, 66, 0
2, 119050, Note_on_c, 0, 54, 74
2, 119068, Control_c, 0, 64, 24
2, 119071, Control_c, 0, 64, 40
2, 119073, Control_c, 0, 64, 56
2, 119076, Control_c, 0, 64, 72
2, 119080, Control_c, 0, 64, 88
2, 119081, Note_on_c, 0, 70, 83
2, 119082, Control_c, 0, 64, 104
2, 119086, Note_on_c, 0, 70, 0
2, 119086, Note_on_c, 0, 54, 0
2, 119087, Control_c, 0, 64, 127
2, 119107, Note_on_c, 0, 58, 62
2, 119108, Note_on_c, 0, 82, 95
2, 119108, Note_on_c, 0, 94, 99
2, 119108, Note_on_c, 0, 66, 66
2, 119115, Note_on_c, 0, 94, 0
2, 119115, Note_on_c, 0, 82, 0
2, 119119, Note_on_c, 0, 58, 0
2, 119119, Note_on_c, 0, 66, 0
2, 119137, Control_c, 0, 64, 56
2, 119140, Control_c, 0, 64, 0
2, 119145, Note_on_c, 0, 62, 84
2, 119147, Note_on_c, 0, 50, 84
2, 119156, Control_c, 0, 64, 40
2, 119160, Control_c, 0, 64, 88
2, 119162, Control_c, 0, 64, 127
2, 119163, Note_on_c, 0, 62, 0
2, 119164, Note_on_c, 0, 50, 0
2, 119173, Note_on_c, 0, 86, 100
2, 119173, Note_on_c, 0, 74, 100
2, 119175, Note_on_c, 0, 82, 80
2, 119175, Note_on_c, 0, 78, 83
2, 119183, Note_on_c, 0, 74, 0
2, 119183, Note_on_c, 0, 86, 0
2, 119185, Note_on_c, 0, 82, 0
2, 119185, Note_on_c, 0, 78, 0
2, 119201, Note_on_c, 0, 86, 107
2, 119201, Note_on_c, 0, 62, 78
2, 119201, Note_on_c, 0, 74, 107
2, 119202, Note_on_c, 0, 78, 96
2, 119202, Note_on_c, 0, 82, 94
2, 119205, Note_on_c, 0, 54, 67
2, 119214, Note_on_c, 0, 74, 0
2, 119215, Note_on_c, 0, 78, 0
2, 119217, Note_on_c, 0, 54, 0
2, 119218, Note_on_c, 0, 86, 0
2, 119218, Note_on_c, 0, 82, 0
2, 119219, Note_on_c, 0, 62, 0
2, 119233, Note_on_c, 0, 86, 107
2, 119233, Note_on_c, 0, 74, 107
2, 119233, Control_c, 0, 64, 40
2, 119235, Note_on_c, 0, 82, 100
2, 119235, Note_on_c, 0, 78, 99
2, 119236, Control_c, 0, 64, 0
2, 119237, Note_on_c, 0, 62, 85
2, 119238, Note_on_c, 0, 54, 66
2, 119240, Note_on_c, 0, 58, 64
2, 119241, Note_on_c, 0, 49, 70
2, 119249, Note_on_c, 0, 74, 0
2, 119249, Note_on_c, 0, 86, 0
2, 119250, Control_c, 0, 64, 127
2, 119255, Note_on_c, 0, 78, 0
2, 119255, Note_on_c, 0, 62, 0
2, 119256, Note_on_c, 0, 82, 0
2, 119265, Note_on_c, 0, 85, 107
2, 119265, Note_on_c, 0, 73, 106
2, 119265, Note_on_c, 0, 78, 78
2, 119265, Note_on_c, 0, 82, 74
2, 119268, Note_on_c, 0, 49, 0
2, 119269, Note_on_c, 0, 54, 0
2, 119270, Note_on_c, 0, 58, 0
2, 119277, Note_on_c, 0, 82, 0
2, 119278, Note_on_c, 0, 85, 0
2, 119278, Note_on_c, 0, 73, 0
2, 119281, Note_on_c, 0, 78, 0
2, 119295, Note_on_c, 0, 85, 105
2, 119295, Note_on_c, 0, 73, 107
2, 119295, Note_on_c, 0, 61, 80
2, 119295, Note_on_c, 0, 49, 81
2, 119296, Note_on_c, 0, 82, 86
2, 119296, Note_on_c, 0, 78, 88
2, 119300, Note_on_c, 0, 61, 0
2, 119301, Note_on_c, 0, 78, 0
2, 119303, Note_on_c, 0, 49, 0
2, 119308, Note_on_c, 0, 85, 0
2, 119308, Note_on_c, 0, 73, 0
2, 119308, Note_on_c, 0, 82, 0
2, 119323, Control_c, 0, 64, 56
2, 119326, Control_c, 0, 64, 0
2, 119332, Note_on_c, 0, 51, 56
2, 119333, Note_on_c, 0, 39, 53
2, 119338, Note_on_c, 0, 39, 0
2, 119338, Note_on_c, 0, 51, 0
2, 119361, Note_on_c, 0, 69, 77
2, 119364, Note_on_c, 0, 69, 0
2, 119392, Note_on_c, 0, 81, 76
2, 119393, Note_on_c, 0, 93, 100
2, 119393, Note_on_c, 0, 67, 63
2, 119396, Note_on_c, 0, 61, 39
2, 119398, Note_on_c, 0, 81, 0
2, 119398, Note_on_c, 0, 63, 32
2, 119399, Note_on_c, 0, 93, 0
2, 119402, Note_on_c, 0, 61, 0
2, 119403, Note_on_c, 0, 67, 0
2, 119404, Note_on_c, 0, 63, 0
2, 119427, Note_on_c, 0, 55, 66
2, 119433, Note_on_c, 0, 55, 0
2, 119452, Note_on_c, 0, 70, 81
2, 119459, Note_on_c, 0, 70, 0
2, 119486, Note_on_c, 0, 94, 91
2, 119486, Note_on_c, 0, 82, 98
2, 119490, Note_on_c, 0, 67, 63
2, 119492, Note_on_c, 0, 61, 39
2, 119494, Note_on_c, 0, 94, 0
2, 119497, Note_on_c, 0, 82, 0
2, 119497, Note_on_c, 0, 67, 0
2, 119497, Note_on_c, 0, 61, 0
2, 119526, Note_on_c, 0, 51, 68
2, 119531, Note_on_c, 0, 51, 0
2, 119547, Note_on_c, 0, 76, 97
2, 119555, Note_on_c, 0, 76, 0
2, 119581, Note_on_c, 0, 67, 73
2, 119581, Control_c, 0, 64, 24
2, 119582, Note_on_c, 0, 100, 103
2, 119583, Note_on_c, 0, 88, 97
2, 119583, Note_on_c, 0, 61, 52
2, 119585, Note_on_c, 0, 63, 47
2, 119585, Control_c, 0, 64, 56
2, 119587, Control_c, 0, 64, 88
2, 119590, Control_c, 0, 64, 104
2, 119591, Note_on_c, 0, 88, 0
2, 119592, Note_on_c, 0, 63, 0
2, 119592, Control_c, 0, 64, 127
2, 119593, Note_on_c, 0, 100, 0
2, 119597, Note_on_c, 0, 67, 0
2, 119598, Note_on_c, 0, 61, 0
2, 119606, Control_c, 0, 64, 72
2, 119610, Control_c, 0, 64, 40
2, 119612, Control_c, 0, 64, 0
2, 119617, Note_on_c, 0, 55, 70
2, 119637, Note_on_c, 0, 55, 0
2, 119645, Note_on_c, 0, 70, 82
2, 119653, Note_on_c, 0, 70, 0
2, 119680, Note_on_c, 0, 61, 69
2, 119680, Note_on_c, 0, 67, 69
2, 119680, Note_on_c, 0, 82, 90
2, 119680, Note_on_c, 0, 94, 96
2, 119680, Control_c, 0, 64, 24
2, 119682, Note_on_c, 0, 63, 43
2, 119683, Control_c, 0, 64, 56
2, 119686, Note_on_c, 0, 67, 0
2, 119686, Note_on_c, 0, 61, 0
2, 119686, Control_c, 0, 64, 72
2, 119687, Note_on_c, 0, 94, 0
2, 119687, Note_on_c, 0, 82, 0
2, 119688, Note_on_c, 0, 63, 0
2, 119697, Control_c, 0, 64, 56
2, 119700, Control_c, 0, 64, 24
2, 119702, Control_c, 0, 64, 0
2, 119712, Note_on_c, 0, 39, 82
2, 119715, Note_on_c, 0, 51, 88
2, 119720, Note_on_c, 0, 51, 0
2, 119720, Note_on_c, 0, 39, 0
2, 119743, Note_on_c, 0, 70, 90
2, 119753, Note_on_c, 0, 70, 0
2, 119773, Note_on_c, 0, 68, 65
2, 119773, Note_on_c, 0, 59, 59
2, 119773, Note_on_c, 0, 63, 60
2, 119775, Note_on_c, 0, 94, 100
2, 119775, Note_on_c, 0, 82, 94
2, 119782, Note_on_c, 0, 82, 0
2, 119783, Note_on_c, 0, 94, 0
2, 119785, Note_on_c, 0, 68, 0
2, 119786, Note_on_c, 0, 63, 0
2, 119788, Note_on_c, 0, 59, 0
2, 119807, Note_on_c, 0, 56, 69
2, 119832, Note_on_c, 0, 71, 89
2, 119840, Note_on_c, 0, 71, 0
2, 119848, Note_on_c, 0, 56, 0
2, 119858, Control_c, 0, 64, 24
2, 119861, Note_on_c, 0, 68, 60
2, 119862, Control_c, 0, 64, 56
2, 119865, Note_on_c, 0, 95, 104
2, 119865, Note_on_c, 0, 83, 93
2, 119865, Note_on_c, 0, 59, 57
2, 119865, Note_on_c, 0, 63, 60
2, 119865, Note_on_c, 0, 68, 60
2, 119865, Control_c, 0, 64, 88
2, 119867, Note_on_c, 0, 68, 0
2, 119867, Control_c, 0, 64, 127
2, 119870, Note_on_c, 0, 83, 0
2, 119871, Note_on_c, 0, 59, 0
2, 119875, Note_on_c, 0, 95, 0
2, 119878, Note_on_c, 0, 68, 0
2, 119878, Note_on_c, 0, 63, 0
2, 119886, Control_c, 0, 64, 104
2, 119888, Control_c, 0, 64, 56
2, 119892, Control_c, 0, 64, 0
2, 119901, Note_on_c, 0, 52, 84
2, 119901, Note_on_c, 0, 64, 83
2, 119911, Control_c, 0, 64, 24
2, 119913, Control_c, 0, 64, 72
2, 119916, Control_c, 0, 64, 104
2, 119918, Note_on_c, 0, 64, 0
2, 119918, Note_on_c, 0, 52, 0
2, 119918, Control_c, 0, 64, 127
2, 119927, Note_on_c, 0, 88, 100
2, 119928, Note_on_c, 0, 76, 96
2, 119928, Note_on_c, 0, 80, 79
2, 119930, Note_on_c, 0, 83, 81
2, 119933, Note_on_c, 0, 83, 0
2, 119938, Note_on_c, 0, 80, 0
2, 119938, Note_on_c, 0, 76, 0
2, 119939, Note_on_c, 0, 88, 0
2, 119955, Note_on_c, 0, 56, 66
2, 119955, Note_on_c, 0, 64, 76
2, 119956, Note_on_c, 0, 88, 107
2, 119956, Note_on_c, 0, 76, 107
2, 119957, Note_on_c, 0, 80, 97
2, 119957, Note_on_c, 0, 83, 102
2, 119957, Note_on_c, 0, 59, 56
2, 119963, Note_on_c, 0, 59, 0
2, 119967, Note_on_c, 0, 64, 0
2, 119969, Note_on_c, 0, 76, 0
2, 119969, Note_on_c, 0, 83, 0
2, 119970, Note_on_c, 0, 80, 0
2, 119972, Note_on_c, 0, 88, 0
2, 119972, Note_on_c, 0, 56, 0
2, 119987, Note_on_c, 0, 88, 107
2, 119988, Note_on_c, 0, 83, 107
2, 119988, Note_on_c, 0, 76, 107
2, 119988, Note_on_c, 0, 80, 98
2, 119988, Control_c, 0, 64, 72
2, 119991, Control_c, 0, 64, 0
2, 119992, Note_on_c, 0, 64, 92
2, 119993, Note_on_c, 0, 56, 59
2, 119993, Note_on_c, 0, 59, 73
2, 119995, Note_on_c, 0, 51, 66
2, 120004, Note_on_c, 0, 76, 0
2, 120004, Note_on_c, 0, 88, 0
2, 120007, Control_c, 0, 64, 127
2, 120009, Note_on_c, 0, 64, 0
2, 120009, Note_on_c, 0, 80, 0
2, 120010, Note_on_c, 0, 83, 0
2, 120020, Note_on_c, 0, 87, 106
2, 120020, Note_on_c, 0, 75, 107
2, 120020, Note_on_c, 0, 83, 94
2, 120021, Note_on_c, 0, 59, 0
2, 120021, Note_on_c, 0, 56, 0
2, 120021, Note_on_c, 0, 80, 72
2, 120023, Note_on_c, 0, 51, 0
2, 120032, Note_on_c, 0, 75, 0
2, 120033, Note_on_c, 0, 87, 0
2, 120033, Note_on_c, 0, 80, 0
2, 120035, Note_on_c, 0, 83, 0
2, 120048, Note_on_c, 0, 87, 106
2, 120050, Note_on_c, 0, 75, 107
2, 120050, Note_on_c, 0, 63, 61
2, 120051, Note_on_c, 0, 80, 84
2, 120051, Note_on_c, 0, 51, 78
2, 120052, Note_on_c, 0, 83, 84
2, 120056, Note_on_c, 0, 51, 0
2, 120056, Note_on_c, 0, 63, 0
2, 120059, Note_on_c, 0, 83, 0
2, 120061, Note_on_c, 0, 87, 0
2, 120061, Note_on_c, 0, 80, 0
2, 120061, Note_on_c, 0, 75, 0
2, 120081, Control_c, 0, 64, 72
2, 120083, Control_c, 0, 64, 40
2, 120086, Control_c, 0, 64, 0
2, 120098, Note_on_c, 0, 51, 56
2, 120100, Note_on_c, 0, 39, 53
2, 120104, Note_on_c, 0, 51, 0
2, 120105, Note_on_c, 0, 39, 0
2, 120127, Note_on_c, 0, 69, 77
2, 120130, Note_on_c, 0, 69, 0
2, 120158, Note_on_c, 0, 81, 76
2, 120160, Note_on_c, 0, 93, 100
2, 120160, Note_on_c, 0, 67, 63
2, 120162, Note_on_c, 0, 61, 39
2, 120164, Note_on_c, 0, 81, 0
2, 120165, Note_on_c, 0, 63, 32
2, 120166, Note_on_c, 0, 93, 0
2, 120168, Note_on_c, 0, 61, 0
2, 120170, Note_on_c, 0, 67, 0
2, 120171, Note_on_c, 0, 63, 0
2, 120193, Note_on_c, 0, 55, 66
2, 120199, Note_on_c, 0, 55, 0
2, 120218, Note_on_c, 0, 70, 81
2, 120225, Note_on_c, 0, 70, 0
2, 120252, Note_on_c, 0, 94, 91
2, 120252, Note_on_c, 0, 82, 98
2, 120256, Note_on_c, 0, 67, 63
2, 120258, Note_on_c, 0, 61, 39
2, 120260, Note_on_c, 0, 94, 0
2, 120263, Note_on_c, 0, 82, 0
2, 120263, Note_on_c, 0, 67, 0
2, 120263, Note_on_c, 0, 61, 0
2, 120292, Note_on_c, 0, 51, 68
2, 120297, Note_on_c, 0, 51, 0
2, 120313, Note_on_c, 0, 76, 97
2, 120321, Note_on_c, 0, 76, 0
2, 120347, Note_on_c, 0, 67, 73
2, 120347, Control_c, 0, 64, 24
2, 120348, Note_on_c, 0, 100, 103
2, 120350, Note_on_c, 0, 88, 97
2, 120350, Note_on_c, 0, 61, 52
2, 120351, Note_on_c, 0, 63, 47
2, 120351, Control_c, 0, 64, 56
2, 120353, Control_c, 0, 64, 88
2, 120356, Control_c, 0, 64, 104
2, 120358, Note_on_c, 0, 63, 0
2, 120358, Note_on_c, 0, 88, 0
2, 120358, Control_c, 0, 64, 127
2, 120359, Note_on_c, 0, 100, 0
2, 120363, Note_on_c, 0, 67, 0
2, 120365, Note_on_c, 0, 61, 0
2, 120372, Control_c, 0, 64, 72
2, 120376, Control_c, 0, 64, 40
2, 120378, Control_c, 0, 64, 0
2, 120383, Note_on_c, 0, 55, 70
2, 120403, Note_on_c, 0, 55, 0
2, 120411, Note_on_c, 0, 70, 82
2, 120419, Note_on_c, 0, 70, 0
2, 120446, Note_on_c, 0, 61, 69
2, 120446, Note_on_c, 0, 67, 69
2, 120446, Note_on_c, 0, 82, 90
2, 120446, Note_on_c, 0, 94, 96
2, 120446, Control_c, 0, 64, 24
2, 120448, Note_on_c, 0, 63, 43
2, 120450, Control_c, 0, 64, 56
2, 120452, Note_on_c, 0, 67, 0
2, 120452, Note_on_c, 0, 61, 0
2, 120452, Control_c, 0, 64, 72
2, 120453, Note_on_c, 0, 94, 0
2, 120453, Note_on_c, 0, 82, 0
2, 120454, Note_on_c, 0, 63, 0
2, 120463, Control_c, 0, 64, 56
2, 120466, Control_c, 0, 64, 24
2, 120468, Control_c, 0, 64, 0
2, 120478, Note_on_c, 0, 39, 82
2, 120481, Note_on_c, 0, 51, 88
2, 120486, Note_on_c, 0, 51, 0
2, 120486, Note_on_c, 0, 39, 0
2, 120510, Note_on_c, 0, 70, 90
2, 120520, Note_on_c, 0, 70, 0
2, 120538, Note_on_c, 0, 59, 59
2, 120538, Note_on_c, 0, 63, 60
2, 120540, Note_on_c, 0, 68, 65
2, 120541, Note_on_c, 0, 94, 100
2, 120541, Note_on_c, 0, 82, 94
2, 120548, Note_on_c, 0, 82, 0
2, 120549, Note_on_c, 0, 94, 0
2, 120551, Note_on_c, 0, 63, 0
2, 120552, Note_on_c, 0, 68, 0
2, 120553, Note_on_c, 0, 59, 0
2, 120573, Note_on_c, 0, 56, 69
2, 120598, Note_on_c, 0, 71, 89
2, 120606, Note_on_c, 0, 71, 0
2, 120614, Note_on_c, 0, 56, 0
2, 120625, Control_c, 0, 64, 24
2, 120627, Note_on_c, 0, 68, 60
2, 120628, Note_on_c, 0, 59, 57
2, 120628, Control_c, 0, 64, 56
2, 120631, Note_on_c, 0, 95, 104
2, 120631, Control_c, 0, 64, 88
2, 120632, Note_on_c, 0, 83, 93
2, 120633, Note_on_c, 0, 68, 0
2, 120633, Control_c, 0, 64, 127
2, 120634, Note_on_c, 0, 59, 0
2, 120637, Note_on_c, 0, 83, 0
2, 120641, Note_on_c, 0, 95, 0
2, 120652, Control_c, 0, 64, 104
2, 120655, Control_c, 0, 64, 56
2, 120658, Control_c, 0, 64, 0
2, 120667, Note_on_c, 0, 52, 84
2, 120667, Note_on_c, 0, 64, 83
2, 120677, Control_c, 0, 64, 24
2, 120680, Control_c, 0, 64, 72
2, 120682, Control_c, 0, 64, 104
2, 120684, Note_on_c, 0, 64, 0
2, 120684, Note_on_c, 0, 52, 0
2, 120685, Control_c, 0, 64, 127
2, 120693, Note_on_c, 0, 88, 100
2, 120695, Note_on_c, 0, 76, 96
2, 120695, Note_on_c, 0, 80, 79
2, 120696, Note_on_c, 0, 83, 81
2, 120699, Note_on_c, 0, 83, 0
2, 120705, Note_on_c, 0, 88, 0
2, 120705, Note_on_c, 0, 76, 0
2, 120705, Note_on_c, 0, 80, 0
2, 120721, Note_on_c, 0, 56, 66
2, 120721, Note_on_c, 0, 64, 76
2, 120722, Note_on_c, 0, 88, 107
2, 120722, Note_on_c, 0, 76, 107
2, 120723, Note_on_c, 0, 80, 97
2, 120723, Note_on_c, 0, 83, 102
2, 120723, Note_on_c, 0, 59, 56
2, 120729, Note_on_c, 0, 59, 0
2, 120733, Note_on_c, 0, 64, 0
2, 120735, Note_on_c, 0, 76, 0
2, 120735, Note_on_c, 0, 83, 0
2, 120736, Note_on_c, 0, 80, 0
2, 120738, Note_on_c, 0, 88, 0
2, 120738, Note_on_c, 0, 56, 0
2, 120753, Note_on_c, 0, 88, 107
2, 120755, Note_on_c, 0, 83, 107
2, 120755, Note_on_c, 0, 76, 107
2, 120755, Note_on_c, 0, 80, 98
2, 120755, Control_c, 0, 64, 72
2, 120757, Control_c, 0, 64, 0
2, 120758, Note_on_c, 0, 64, 92
2, 120760, Note_on_c, 0, 56, 59
2, 120760, Note_on_c, 0, 59, 73
2, 120761, Note_on_c, 0, 51, 66
2, 120770, Note_on_c, 0, 88, 0
2, 120771, Note_on_c, 0, 76, 0
2, 120773, Control_c, 0, 64, 127
2, 120775, Note_on_c, 0, 64, 0
2, 120776, Note_on_c, 0, 80, 0
2, 120777, Note_on_c, 0, 83, 0
2, 120786, Note_on_c, 0, 87, 106
2, 120786, Note_on_c, 0, 75, 107
2, 120786, Note_on_c, 0, 83, 94
2, 120787, Note_on_c, 0, 80, 72
2, 120788, Note_on_c, 0, 59, 0
2, 120788, Note_on_c, 0, 56, 0
2, 120789, Note_on_c, 0, 51, 0
2, 120798, Note_on_c, 0, 75, 0
2, 120799, Note_on_c, 0, 87, 0
2, 120799, Note_on_c, 0, 80, 0
2, 120801, Note_on_c, 0, 83, 0
2, 120815, Note_on_c, 0, 87, 106
2, 120816, Note_on_c, 0, 75, 107
2, 120816, Note_on_c, 0, 63, 61
2, 120817, Note_on_c, 0, 80, 84
2, 120817, Note_on_c, 0, 51, 78
2, 120818, Note_on_c, 0, 83, 84
2, 120822, Note_on_c, 0, 51, 0
2, 120822, Note_on_c, 0, 63, 0
2, 120825, Note_on_c, 0, 83, 0
2, 120827, Note_on_c, 0, 75, 0
2, 120827, Note_on_c, 0, 80, 0
2, 120828, Note_on_c, 0, 87, 0
2, 120853, Note_on_c, 0, 42, 44
2, 120855, Note_on_c, 0, 54, 55
2, 120859, Note_on_c, 0, 42, 0
2, 120860, Control_c, 0, 64, 40
2, 120865, Note_on_c, 0, 54, 0
2, 120875, Control_c, 0, 64, 56
2, 120882, Note_on_c, 0, 71, 82
2, 120885, Note_on_c, 0, 71, 0
2, 120885, Control_c, 0, 64, 24
2, 120887, Control_c, 0, 64, 0
2, 120916, Note_on_c, 0, 59, 70
2, 120916, Note_on_c, 0, 95, 92
2, 120916, Note_on_c, 0, 83, 84
2, 120917, Note_on_c, 0, 63, 58
2, 120917, Note_on_c, 0, 69, 66
2, 120919, Note_on_c, 0, 83, 0
2, 120921, Note_on_c, 0, 95, 0
2, 120924, Note_on_c, 0, 69, 0
2, 120924, Note_on_c, 0, 63, 0
2, 120927, Note_on_c, 0, 59, 0
2, 120948, Note_on_c, 0, 57, 76
2, 120959, Note_on_c, 0, 57, 0
2, 120975, Note_on_c, 0, 72, 74
2, 120980, Note_on_c, 0, 72, 0
2, 121006, Note_on_c, 0, 69, 57
2, 121006, Note_on_c, 0, 63, 49
2, 121006, Note_on_c, 0, 60, 55
2, 121008, Note_on_c, 0, 96, 96
2, 121011, Note_on_c, 0, 60, 0
2, 121011, Note_on_c, 0, 69, 0
2, 121011, Note_on_c, 0, 63, 0
2, 121011, Note_on_c, 0, 84, 50
2, 121012, Control_c, 0, 64, 40
2, 121013, Note_on_c, 0, 96, 0
2, 121016, Note_on_c, 0, 84, 0
2, 121025, Control_c, 0, 64, 0
2, 121042, Note_on_c, 0, 41, 79
2, 121052, Note_on_c, 0, 41, 0
2, 121053, Control_c, 0, 64, 56
2, 121056, Control_c, 0, 64, 72
2, 121058, Control_c, 0, 64, 104
2, 121068, Note_on_c, 0, 78, 93
2, 121068, Control_c, 0, 64, 127
2, 121076, Note_on_c, 0, 78, 0
2, 121076, Control_c, 0, 64, 104
2, 121078, Control_c, 0, 64, 72
2, 121081, Control_c, 0, 64, 40
2, 121083, Control_c, 0, 64, 0
2, 121102, Note_on_c, 0, 69, 80
2, 121102, Note_on_c, 0, 63, 67
2, 121102, Note_on_c, 0, 90, 95
2, 121102, Note_on_c, 0, 102, 87
2, 121102, Note_on_c, 0, 60, 72
2, 121103, Note_on_c, 0, 104, 70
2, 121106, Note_on_c, 0, 104, 0
2, 121109, Note_on_c, 0, 90, 0
2, 121109, Note_on_c, 0, 102, 0
2, 121110, Note_on_c, 0, 69, 0
2, 121113, Note_on_c, 0, 63, 0
2, 121115, Note_on_c, 0, 60, 0
2, 121133, Note_on_c, 0, 57, 74
2, 121161, Note_on_c, 0, 72, 97
2, 121168, Note_on_c, 0, 72, 0
2, 121192, Note_on_c, 0, 69, 72
2, 121192, Note_on_c, 0, 63, 61
2, 121193, Note_on_c, 0, 60, 59
2, 121195, Note_on_c, 0, 69, 0
2, 121195, Note_on_c, 0, 84, 81
2, 121195, Note_on_c, 0, 96, 91
2, 121198, Note_on_c, 0, 96, 0
2, 121198, Note_on_c, 0, 57, 0
2, 121198, Note_on_c, 0, 84, 0
2, 121198, Note_on_c, 0, 63, 0
2, 121200, Note_on_c, 0, 60, 0
2, 121225, Note_on_c, 0, 42, 74
2, 121226, Note_on_c, 0, 51, 81
2, 121228, Note_on_c, 0, 42, 0
2, 121229, Note_on_c, 0, 51, 0
2, 121238, Control_c, 0, 64, 40
2, 121241, Control_c, 0, 64, 56
2, 121243, Control_c, 0, 64, 72
2, 121246, Control_c, 0, 64, 88
2, 121256, Note_on_c, 0, 71, 89
2, 121262, Control_c, 0, 64, 40
2, 121264, Note_on_c, 0, 71, 0
2, 121265, Control_c, 0, 64, 0
2, 121282, Note_on_c, 0, 63, 70
2, 121285, Note_on_c, 0, 69, 69
2, 121287, Note_on_c, 0, 95, 103
2, 121287, Note_on_c, 0, 83, 87
2, 121292, Note_on_c, 0, 83, 0
2, 121293, Note_on_c, 0, 95, 0
2, 121297, Note_on_c, 0, 63, 0
2, 121301, Note_on_c, 0, 69, 0
2, 121322, Note_on_c, 0, 57, 79
2, 121345, Control_c, 0, 64, 24
2, 121347, Control_c, 0, 64, 40
2, 121348, Note_on_c, 0, 72, 92
2, 121350, Control_c, 0, 64, 56
2, 121353, Note_on_c, 0, 72, 0
2, 121353, Control_c, 0, 64, 72
2, 121358, Control_c, 0, 64, 88
2, 121360, Note_on_c, 0, 57, 0
2, 121366, Control_c, 0, 64, 104
2, 121377, Note_on_c, 0, 69, 56
2, 121377, Note_on_c, 0, 63, 52
2, 121378, Note_on_c, 0, 60, 48
2, 121382, Note_on_c, 0, 63, 0
2, 121383, Note_on_c, 0, 69, 0
2, 121383, Note_on_c, 0, 84, 89
2, 121383, Note_on_c, 0, 96, 90
2, 121384, Note_on_c, 0, 60, 0
2, 121389, Note_on_c, 0, 96, 0
2, 121389, Note_on_c, 0, 84, 0
2, 121398, Control_c, 0, 64, 56
2, 121401, Control_c, 0, 64, 0
2, 121415, Note_on_c, 0, 41, 82
2, 121425, Note_on_c, 0, 41, 0
2, 121425, Control_c, 0, 64, 24
2, 121427, Control_c, 0, 64, 72
2, 121430, Control_c, 0, 64, 104
2, 121432, Control_c, 0, 64, 127
2, 121442, Note_on_c, 0, 78, 95
2, 121450, Note_on_c, 0, 78, 0
2, 121457, Control_c, 0, 64, 72
2, 121460, Control_c, 0, 64, 0
2, 121473, Note_on_c, 0, 90, 99
2, 121473, Note_on_c, 0, 102, 85
2, 121473, Note_on_c, 0, 60, 73
2, 121473, Note_on_c, 0, 69, 79
2, 121473, Note_on_c, 0, 63, 68
2, 121475, Control_c, 0, 64, 24
2, 121476, Note_on_c, 0, 104, 43
2, 121478, Control_c, 0, 64, 72
2, 121480, Note_on_c, 0, 102, 0
2, 121480, Note_on_c, 0, 90, 0
2, 121480, Control_c, 0, 64, 88
2, 121481, Note_on_c, 0, 104, 0
2, 121483, Control_c, 0, 64, 104
2, 121484, Note_on_c, 0, 69, 0
2, 121485, Note_on_c, 0, 63, 0
2, 121486, Note_on_c, 0, 60, 0
2, 121486, Control_c, 0, 64, 127
2, 121496, Control_c, 0, 64, 40
2, 121498, Control_c, 0, 64, 0
2, 121503, Note_on_c, 0, 57, 76
2, 121531, Control_c, 0, 64, 24
2, 121533, Control_c, 0, 64, 72
2, 121535, Note_on_c, 0, 78, 84
2, 121536, Control_c, 0, 64, 88
2, 121538, Control_c, 0, 64, 104
2, 121541, Control_c, 0, 64, 127
2, 121542, Note_on_c, 0, 78, 0
2, 121560, Note_on_c, 0, 57, 0
2, 121565, Note_on_c, 0, 63, 54
2, 121565, Note_on_c, 0, 60, 59
2, 121566, Note_on_c, 0, 69, 50
2, 121566, Note_on_c, 0, 90, 103
2, 121567, Note_on_c, 0, 102, 100
2, 121570, Note_on_c, 0, 63, 0
2, 121571, Note_on_c, 0, 60, 0
2, 121571, Note_on_c, 0, 69, 0
2, 121573, Note_on_c, 0, 90, 0
2, 121573, Note_on_c, 0, 102, 0
2, 121587, Control_c, 0, 64, 72
2, 121590, Control_c, 0, 64, 40
2, 121592, Control_c, 0, 64, 0
2, 121606, Note_on_c, 0, 40, 80
2, 121608, Note_on_c, 0, 52, 85
2, 121615, Control_c, 0, 64, 88
2, 121616, Note_on_c, 0, 40, 0
2, 121617, Control_c, 0, 64, 127
2, 121618, Note_on_c, 0, 52, 0
2, 121657, Note_on_c, 0, 84, 93
2, 121658, Note_on_c, 0, 96, 84
2, 121658, Note_on_c, 0, 72, 75
2, 121658, Note_on_c, 0, 90, 74
2, 121658, Note_on_c, 0, 62, 72
2, 121658, Note_on_c, 0, 92, 73
2, 121658, Note_on_c, 0, 66, 54
2, 121660, Note_on_c, 0, 68, 55
2, 121663, Note_on_c, 0, 66, 0
2, 121664, Note_on_c, 0, 92, 0
2, 121665, Note_on_c, 0, 68, 0
2, 121665, Note_on_c, 0, 96, 0
2, 121665, Note_on_c, 0, 62, 0
2, 121666, Note_on_c, 0, 72, 0
2, 121667, Note_on_c, 0, 84, 0
2, 121668, Note_on_c, 0, 90, 0
2, 121681, Note_on_c, 0, 96, 95
2, 121681, Note_on_c, 0, 84, 93
2, 121681, Note_on_c, 0, 92, 85
2, 121681, Note_on_c, 0, 68, 66
2, 121681, Note_on_c, 0, 66, 61
2, 121681, Note_on_c, 0, 90, 72
2, 121681, Note_on_c, 0, 72, 73
2, 121682, Note_on_c, 0, 62, 69
2, 121687, Note_on_c, 0, 62, 0
2, 121688, Note_on_c, 0, 72, 0
2, 121689, Note_on_c, 0, 84, 0
2, 121689, Note_on_c, 0, 92, 0
2, 121689, Note_on_c, 0, 96, 0
2, 121689, Note_on_c, 0, 66, 0
2, 121691, Note_on_c, 0, 68, 0
2, 121691, Note_on_c, 0, 90, 0
2, 121698, Control_c, 0, 64, 104
2, 121701, Control_c, 0, 64, 88
2, 121705, Note_on_c, 0, 66, 60
2, 121706, Note_on_c, 0, 96, 102
2, 121706, Note_on_c, 0, 62, 63
2, 121706, Note_on_c, 0, 84, 87
2, 121707, Note_on_c, 0, 72, 74
2, 121707, Note_on_c, 0, 90, 75
2, 121707, Note_on_c, 0, 68, 62
2, 121707, Note_on_c, 0, 92, 79
2, 121708, Control_c, 0, 64, 127
2, 121711, Note_on_c, 0, 62, 0
2, 121713, Note_on_c, 0, 68, 0
2, 121714, Note_on_c, 0, 84, 0
2, 121716, Note_on_c, 0, 66, 0
2, 121717, Note_on_c, 0, 90, 0
2, 121718, Note_on_c, 0, 92, 0
2, 121719, Note_on_c, 0, 72, 0
2, 121719, Note_on_c, 0, 96, 0
2, 121757, Note_on_c, 0, 78, 73
2, 121760, Note_on_c, 0, 90, 95
2, 121760, Note_on_c, 0, 102, 97
2, 121762, Note_on_c, 0, 78, 0
2, 121768, Note_on_c, 0, 90, 0
2, 121770, Note_on_c, 0, 102, 0
2, 121788, Control_c, 0, 64, 72
2, 121791, Control_c, 0, 64, 0
2, 121806, Note_on_c, 0, 40, 82
2, 121807, Note_on_c, 0, 52, 84
2, 121811, Note_on_c, 0, 40, 0
2, 121813, Control_c, 0, 64, 127
2, 121817, Note_on_c, 0, 52, 0
2, 121856, Note_on_c, 0, 102, 95
2, 121856, Note_on_c, 0, 69, 75
2, 121857, Note_on_c, 0, 90, 75
2, 121857, Note_on_c, 0, 61, 64
2, 121858, Note_on_c, 0, 97, 69
2, 121858, Note_on_c, 0, 93, 80
2, 121861, Note_on_c, 0, 93, 0
2, 121861, Note_on_c, 0, 97, 0
2, 121864, Note_on_c, 0, 90, 0
2, 121866, Note_on_c, 0, 69, 0
2, 121867, Note_on_c, 0, 102, 0
2, 121868, Note_on_c, 0, 61, 0
2, 121877, Note_on_c, 0, 102, 92
2, 121877, Note_on_c, 0, 61, 72
2, 121878, Note_on_c, 0, 69, 83
2, 121878, Note_on_c, 0, 90, 83
2, 121880, Note_on_c, 0, 73, 81
2, 121880, Note_on_c, 0, 97, 74
2, 121880, Note_on_c, 0, 93, 90
2, 121883, Note_on_c, 0, 97, 0
2, 121885, Note_on_c, 0, 93, 0
2, 121886, Note_on_c, 0, 90, 0
2, 121888, Note_on_c, 0, 69, 0
2, 121888, Note_on_c, 0, 73, 0
2, 121888, Note_on_c, 0, 61, 0
2, 121892, Note_on_c, 0, 102, 0
2, 121898, Note_on_c, 0, 73, 79
2, 121898, Note_on_c, 0, 61, 66
2, 121898, Note_on_c, 0, 69, 76
2, 121901, Note_on_c, 0, 101, 107
2, 121902, Note_on_c, 0, 97, 87
2, 121902, Note_on_c, 0, 89, 97
2, 121903, Note_on_c, 0, 93, 83
2, 121905, Note_on_c, 0, 94, 63
2, 121908, Note_on_c, 0, 69, 0
2, 121909, Note_on_c, 0, 73, 0
2, 121910, Note_on_c, 0, 94, 0
2, 121913, Note_on_c, 0, 61, 0
2, 121916, Note_on_c, 0, 101, 0
2, 121918, Note_on_c, 0, 89, 0
2, 121947, Note_on_c, 0, 97, 0
2, 121948, Note_on_c, 0, 93, 0
2, 121953, Note_on_c, 0, 64, 74
2, 121955, Note_on_c, 0, 100, 99
2, 121955, Note_on_c, 0, 52, 78
2, 121956, Note_on_c, 0, 88, 87
2, 121958, Note_on_c, 0, 64, 0
2, 121964, Note_on_c, 0, 88, 0
2, 121965, Note_on_c, 0, 52, 0
2, 121965, Note_on_c, 0, 100, 0
2, 121981, Control_c, 0, 64, 88
2, 121983, Control_c, 0, 64, 56
2, 121986, Control_c, 0, 64, 0
2, 122001, Note_on_c, 0, 40, 78
2, 122002, Note_on_c, 0, 52, 84
2, 122004, Note_on_c, 0, 40, 0
2, 122012, Note_on_c, 0, 52, 0
2, 122012, Control_c, 0, 64, 56
2, 122015, Control_c, 0, 64, 127
2, 122052, Note_on_c, 0, 72, 78
2, 122052, Note_on_c, 0, 68, 56
2, 122052, Note_on_c, 0, 66, 57
2, 122053, Note_on_c, 0, 96, 99
2, 122053, Note_on_c, 0, 84, 95
2, 122053, Note_on_c, 0, 90, 81
2, 122053, Note_on_c, 0, 92, 88
2, 122053, Note_on_c, 0, 62, 68
2, 122058, Note_on_c, 0, 62, 0
2, 122059, Note_on_c, 0, 66, 0
2, 122059, Note_on_c, 0, 68, 0
2, 122060, Note_on_c, 0, 96, 0
2, 122061, Note_on_c, 0, 84, 0
2, 122061, Note_on_c, 0, 90, 0
2, 122061, Note_on_c, 0, 92, 0
2, 122063, Note_on_c, 0, 72, 0
2, 122075, Note_on_c, 0, 96, 95
2, 122075, Note_on_c, 0, 84, 92
2, 122075, Note_on_c, 0, 72, 76
2, 122075, Note_on_c, 0, 66, 69
2, 122075, Note_on_c, 0, 92, 87
2, 122075, Note_on_c, 0, 90, 74
2, 122075, Note_on_c, 0, 68, 68
2, 122076, Note_on_c, 0, 62, 73
2, 122081, Note_on_c, 0, 62, 0
2, 122083, Note_on_c, 0, 68, 0
2, 122083, Note_on_c, 0, 66, 0
2, 122085, Note_on_c, 0, 92, 0
2, 122085, Note_on_c, 0, 72, 0
2, 122085, Note_on_c, 0, 84, 0
2, 122086, Note_on_c, 0, 96, 0
2, 122086, Note_on_c, 0, 90, 0
2, 122100, Note_on_c, 0, 66, 71
2, 122101, Note_on_c, 0, 96, 103
2, 122101, Note_on_c, 0, 68, 61
2, 122101, Note_on_c, 0, 84, 107
2, 122101, Note_on_c, 0, 90, 87
2, 122101, Note_on_c, 0, 92, 93
2, 122101, Note_on_c, 0, 62, 65
2, 122101, Note_on_c, 0, 72, 72
2, 122106, Note_on_c, 0, 62, 0
2, 122107, Note_on_c, 0, 68, 0
2, 122108, Note_on_c, 0, 66, 0
2, 122109, Note_on_c, 0, 84, 0
2, 122113, Note_on_c, 0, 72, 0
2, 122116, Note_on_c, 0, 90, 0
2, 122116, Note_on_c, 0, 96, 0
2, 122118, Note_on_c, 0, 92, 0
2, 122151, Note_on_c, 0, 78, 73
2, 122153, Note_on_c, 0, 102, 99
2, 122155, Note_on_c, 0, 90, 98
2, 122156, Note_on_c, 0, 78, 0
2, 122163, Note_on_c, 0, 90, 0
2, 122164, Note_on_c, 0, 102, 0
2, 122180, Control_c, 0, 64, 104
2, 122182, Control_c, 0, 64, 72
2, 122185, Control_c, 0, 64, 24
2, 122187, Control_c, 0, 64, 0
2, 122200, Note_on_c, 0, 40, 74
2, 122201, Note_on_c, 0, 52, 81
2, 122205, Note_on_c, 0, 40, 0
2, 122210, Control_c, 0, 64, 104
2, 122211, Note_on_c, 0, 52, 0
2, 122212, Control_c, 0, 64, 127
2, 122250, Note_on_c, 0, 102, 107
2, 122250, Note_on_c, 0, 90, 98
2, 122250, Note_on_c, 0, 73, 78
2, 122250, Note_on_c, 0, 69, 79
2, 122250, Note_on_c, 0, 61, 70
2, 122251, Note_on_c, 0, 93, 95
2, 122252, Note_on_c, 0, 97, 83
2, 122256, Note_on_c, 0, 93, 0
2, 122258, Note_on_c, 0, 97, 0
2, 122260, Note_on_c, 0, 90, 0
2, 122260, Note_on_c, 0, 73, 0
2, 122260, Note_on_c, 0, 69, 0
2, 122260, Note_on_c, 0, 61, 0
2, 122265, Note_on_c, 0, 102, 0
2, 122271, Note_on_c, 0, 102, 98
2, 122272, Note_on_c, 0, 90, 89
2, 122273, Note_on_c, 0, 73, 85
2, 122273, Note_on_c, 0, 61, 67
2, 122273, Note_on_c, 0, 93, 84
2, 122273, Note_on_c, 0, 97, 79
2, 122273, Note_on_c, 0, 69, 75
2, 122283, Note_on_c, 0, 61, 0
2, 122283, Note_on_c, 0, 73, 0
2, 122284, Note_on_c, 0, 69, 0
2, 122285, Note_on_c, 0, 90, 0
2, 122286, Note_on_c, 0, 93, 0
2, 122288, Note_on_c, 0, 97, 0
2, 122288, Note_on_c, 0, 102, 0
2, 122296, Note_on_c, 0, 69, 76
2, 122296, Note_on_c, 0, 73, 64
2, 122296, Note_on_c, 0, 61, 56
2, 122296, Note_on_c, 0, 101, 107
2, 122297, Note_on_c, 0, 97, 82
2, 122298, Note_on_c, 0, 89, 99
2, 122298, Note_on_c, 0, 93, 93
2, 122299, Note_on_c, 0, 69, 0
2, 122303, Note_on_c, 0, 73, 0
2, 122307, Note_on_c, 0, 61, 0
2, 122309, Note_on_c, 0, 93, 0
2, 122309, Note_on_c, 0, 89, 0
2, 122311, Note_on_c, 0, 101, 0
2, 122312, Note_on_c, 0, 97, 0
2, 122347, Note_on_c, 0, 64, 73
2, 122348, Note_on_c, 0, 100, 99
2, 122350, Note_on_c, 0, 88, 86
2, 122351, Note_on_c, 0, 52, 49
2, 122352, Note_on_c, 0, 64, 0
2, 122356, Note_on_c, 0, 52, 0
2, 122358, Note_on_c, 0, 88, 0
2, 122358, Note_on_c, 0, 100, 0
2, 122380, Control_c, 0, 64, 88
2, 122382, Control_c, 0, 64, 40
2, 122385, Control_c, 0, 64, 0
2, 122395, Note_on_c, 0, 52, 85
2, 122398, Note_on_c, 0, 40, 70
2, 122404, Note_on_c, 0, 40, 0
2, 122405, Note_on_c, 0, 52, 0
2, 122406, Control_c, 0, 64, 56
2, 122408, Control_c, 0, 64, 127
2, 122441, Note_on_c, 0, 97, 96
2, 122442, Note_on_c, 0, 85, 93
2, 122442, Note_on_c, 0, 73, 75
2, 122443, Note_on_c, 0, 94, 70
2, 122443, Note_on_c, 0, 67, 63
2, 122443, Note_on_c, 0, 64, 63
2, 122445, Note_on_c, 0, 91, 80
2, 122445, Note_on_c, 0, 70, 56
2, 122448, Note_on_c, 0, 91, 0
2, 122448, Note_on_c, 0, 94, 0
2, 122449, Note_on_c, 0, 67, 0
2, 122449, Note_on_c, 0, 64, 0
2, 122450, Note_on_c, 0, 85, 0
2, 122450, Note_on_c, 0, 70, 0
2, 122452, Note_on_c, 0, 73, 0
2, 122453, Note_on_c, 0, 97, 0
2, 122463, Note_on_c, 0, 97, 91
2, 122463, Note_on_c, 0, 64, 74
2, 122463, Note_on_c, 0, 73, 77
2, 122463, Note_on_c, 0, 85, 92
2, 122465, Note_on_c, 0, 94, 85
2, 122465, Note_on_c, 0, 70, 68
2, 122466, Note_on_c, 0, 67, 61
2, 122466, Note_on_c, 0, 91, 81
2, 122469, Note_on_c, 0, 91, 0
2, 122470, Note_on_c, 0, 70, 0
2, 122471, Note_on_c, 0, 85, 0
2, 122471, Note_on_c, 0, 64, 0
2, 122471, Note_on_c, 0, 73, 0
2, 122471, Note_on_c, 0, 67, 0
2, 122473, Note_on_c, 0, 94, 0
2, 122474, Note_on_c, 0, 97, 0
2, 122485, Note_on_c, 0, 64, 68
2, 122486, Note_on_c, 0, 97, 97
2, 122486, Note_on_c, 0, 85, 98
2, 122486, Note_on_c, 0, 94, 84
2, 122486, Note_on_c, 0, 73, 78
2, 122487, Note_on_c, 0, 67, 62
2, 122488, Note_on_c, 0, 70, 54
2, 122491, Note_on_c, 0, 70, 0
2, 122491, Note_on_c, 0, 64, 0
2, 122492, Note_on_c, 0, 67, 0
2, 122493, Note_on_c, 0, 85, 0
2, 122497, Note_on_c, 0, 97, 0
2, 122497, Note_on_c, 0, 94, 0
2, 122497, Note_on_c, 0, 73, 0
2, 122535, Note_on_c, 0, 79, 90
2, 122536, Note_on_c, 0, 103, 104
2, 122536, Note_on_c, 0, 91, 99
2, 122538, Note_on_c, 0, 79, 0
2, 122547, Note_on_c, 0, 91, 0
2, 122552, Note_on_c, 0, 103, 0
2, 122576, Control_c, 0, 64, 104
2, 122578, Control_c, 0, 64, 56
2, 122581, Control_c, 0, 64, 0
2, 122585, Note_on_c, 0, 41, 85
2, 122585, Note_on_c, 0, 53, 97
2, 122593, Note_on_c, 0, 41, 0
2, 122596, Note_on_c, 0, 53, 0
2, 122598, Control_c, 0, 64, 104
2, 122601, Control_c, 0, 64, 127
2, 122631, Note_on_c, 0, 70, 70
2, 122633, Note_on_c, 0, 74, 73
2, 122633, Note_on_c, 0, 62, 74
2, 122633, Note_on_c, 0, 103, 99
2, 122633, Note_on_c, 0, 94, 80
2, 122635, Note_on_c, 0, 91, 85
2, 122636, Note_on_c, 0, 98, 76
2, 122640, Note_on_c, 0, 62, 0
2, 122641, Note_on_c, 0, 70, 0
2, 122642, Note_on_c, 0, 98, 0
2, 122643, Note_on_c, 0, 74, 0
2, 122643, Note_on_c, 0, 94, 0
2, 122643, Note_on_c, 0, 91, 0
2, 122645, Note_on_c, 0, 103, 0
2, 122653, Note_on_c, 0, 103, 99
2, 122655, Note_on_c, 0, 70, 83
2, 122655, Note_on_c, 0, 91, 80
2, 122655, Note_on_c, 0, 74, 86
2, 122656, Note_on_c, 0, 62, 74
2, 122656, Note_on_c, 0, 94, 74
2, 122656, Note_on_c, 0, 98, 76
2, 122662, Note_on_c, 0, 62, 0
2, 122665, Note_on_c, 0, 74, 0
2, 122665, Note_on_c, 0, 70, 0
2, 122666, Note_on_c, 0, 91, 0
2, 122667, Note_on_c, 0, 94, 0
2, 122668, Note_on_c, 0, 103, 0
2, 122669, Note_on_c, 0, 98, 0
2, 122675, Note_on_c, 0, 70, 81
2, 122676, Note_on_c, 0, 74, 84
2, 122677, Note_on_c, 0, 62, 56
2, 122681, Note_on_c, 0, 102, 103
2, 122682, Note_on_c, 0, 90, 93
2, 122682, Note_on_c, 0, 98, 87
2, 122682, Note_on_c, 0, 94, 81
2, 122684, Note_on_c, 0, 74, 0
2, 122685, Note_on_c, 0, 70, 0
2, 122687, Note_on_c, 0, 62, 0
2, 122687, Note_on_c, 0, 94, 0
2, 122695, Note_on_c, 0, 98, 0
2, 122701, Note_on_c, 0, 102, 0
2, 122702, Note_on_c, 0, 90, 0
2, 122727, Note_on_c, 0, 101, 107
2, 122727, Note_on_c, 0, 65, 66
2, 122727, Note_on_c, 0, 89, 104
2, 122727, Note_on_c, 0, 94, 11
2, 122728, Note_on_c, 0, 53, 83
2, 122732, Note_on_c, 0, 65, 0
2, 122734, Note_on_c, 0, 94, 0
2, 122735, Note_on_c, 0, 53, 0
2, 122735, Note_on_c, 0, 89, 0
2, 122737, Note_on_c, 0, 101, 0
2, 122761, Control_c, 0, 64, 104
2, 122763, Control_c, 0, 64, 24
2, 122767, Control_c, 0, 64, 0
2, 122771, Note_on_c, 0, 40, 80
2, 122773, Note_on_c, 0, 52, 91
2, 122779, Note_on_c, 0, 40, 0
2, 122781, Note_on_c, 0, 52, 0
2, 122787, Control_c, 0, 64, 127
2, 122823, Note_on_c, 0, 64, 76
2, 122825, Note_on_c, 0, 73, 70
2, 122825, Note_on_c, 0, 85, 98
2, 122825, Note_on_c, 0, 97, 99
2, 122825, Note_on_c, 0, 70, 69
2, 122826, Note_on_c, 0, 67, 64
2, 122826, Note_on_c, 0, 94, 79
2, 122827, Note_on_c, 0, 91, 79
2, 122830, Note_on_c, 0, 91, 0
2, 122831, Note_on_c, 0, 67, 0
2, 122833, Note_on_c, 0, 64, 0
2, 122833, Note_on_c, 0, 73, 0
2, 122835, Note_on_c, 0, 70, 0
2, 122835, Note_on_c, 0, 97, 0
2, 122835, Note_on_c, 0, 85, 0
2, 122836, Note_on_c, 0, 94, 0
2, 122846, Note_on_c, 0, 64, 75
2, 122847, Note_on_c, 0, 97, 101
2, 122847, Note_on_c, 0, 73, 80
2, 122847, Note_on_c, 0, 70, 65
2, 122847, Note_on_c, 0, 85, 105
2, 122847, Note_on_c, 0, 67, 73
2, 122847, Note_on_c, 0, 94, 81
2, 122848, Note_on_c, 0, 91, 93
2, 122851, Note_on_c, 0, 91, 0
2, 122854, Note_on_c, 0, 67, 0
2, 122855, Note_on_c, 0, 73, 0
2, 122855, Note_on_c, 0, 85, 0
2, 122857, Note_on_c, 0, 70, 0
2, 122857, Note_on_c, 0, 64, 0
2, 122857, Note_on_c, 0, 97, 0
2, 122859, Note_on_c, 0, 94, 0
2, 122870, Note_on_c, 0, 64, 69
2, 122871, Note_on_c, 0, 85, 107
2, 122871, Note_on_c, 0, 67, 65
2, 122871, Note_on_c, 0, 97, 107
2, 122872, Note_on_c, 0, 73, 81
2, 122872, Note_on_c, 0, 94, 86
2, 122872, Note_on_c, 0, 91, 79
2, 122873, Note_on_c, 0, 70, 62
2, 122877, Note_on_c, 0, 91, 0
2, 122877, Note_on_c, 0, 67, 0
2, 122878, Note_on_c, 0, 70, 0
2, 122878, Note_on_c, 0, 64, 0
2, 122879, Note_on_c, 0, 85, 0
2, 122883, Note_on_c, 0, 97, 0
2, 122883, Note_on_c, 0, 94, 0
2, 122883, Note_on_c, 0, 73, 0
2, 122920, Note_on_c, 0, 79, 89
2, 122922, Note_on_c, 0, 103, 107
2, 122922, Note_on_c, 0, 91, 107
2, 122925, Note_on_c, 0, 79, 0
2, 122938, Note_on_c, 0, 91, 0
2, 122949, Note_on_c, 0, 103, 0
2, 122967, Control_c, 0, 64, 72
2, 122970, Control_c, 0, 64, 0
2, 122971, Note_on_c, 0, 41, 89
2, 122972, Note_on_c, 0, 53, 97
2, 122979, Note_on_c, 0, 41, 0
2, 122982, Note_on_c, 0, 53, 0
2, 122985, Control_c, 0, 64, 127
2, 123023, Note_on_c, 0, 70, 83
2, 123023, Note_on_c, 0, 74, 86
2, 123023, Note_on_c, 0, 103, 104
2, 123025, Note_on_c, 0, 94, 84
2, 123025, Note_on_c, 0, 62, 76
2, 123025, Note_on_c, 0, 98, 88
2, 123025, Note_on_c, 0, 91, 92
2, 123033, Note_on_c, 0, 62, 0
2, 123033, Note_on_c, 0, 70, 0
2, 123034, Note_on_c, 0, 74, 0
2, 123036, Note_on_c, 0, 94, 0
2, 123036, Note_on_c, 0, 91, 0
2, 123037, Note_on_c, 0, 98, 0
2, 123038, Note_on_c, 0, 103, 0
2, 123046, Note_on_c, 0, 70, 77
2, 123046, Note_on_c, 0, 74, 76
2, 123047, Note_on_c, 0, 62, 66
2, 123047, Note_on_c, 0, 103, 97
2, 123048, Note_on_c, 0, 91, 87
2, 123048, Note_on_c, 0, 94, 77
2, 123048, Note_on_c, 0, 98, 80
2, 123057, Note_on_c, 0, 74, 0
2, 123058, Note_on_c, 0, 91, 0
2, 123059, Note_on_c, 0, 70, 0
2, 123059, Note_on_c, 0, 62, 0
2, 123062, Note_on_c, 0, 103, 0
2, 123066, Note_on_c, 0, 94, 0
2, 123068, Note_on_c, 0, 98, 0
2, 123075, Note_on_c, 0, 70, 86
2, 123075, Note_on_c, 0, 74, 92
2, 123076, Note_on_c, 0, 62, 83
2, 123077, Note_on_c, 0, 102, 106
2, 123077, Note_on_c, 0, 98, 90
2, 123077, Note_on_c, 0, 90, 105
2, 123078, Note_on_c, 0, 94, 77
2, 123085, Note_on_c, 0, 74, 0
2, 123087, Note_on_c, 0, 70, 0
2, 123089, Note_on_c, 0, 62, 0
2, 123098, Note_on_c, 0, 102, 0
2, 123099, Note_on_c, 0, 90, 0
2, 123100, Note_on_c, 0, 98, 0
2, 123108, Note_on_c, 0, 98, 34
2, 123124, Note_on_c, 0, 98, 0
2, 123129, Note_on_c, 0, 94, 0
2, 123133, Note_on_c, 0, 101, 106
2, 123133, Note_on_c, 0, 89, 103
2, 123135, Note_on_c, 0, 94, 42
2, 123137, Note_on_c, 0, 41, 88
2, 123138, Note_on_c, 0, 53, 91
2, 123143, Note_on_c, 0, 94, 0
2, 123144, Note_on_c, 0, 89, 0
2, 123145, Note_on_c, 0, 101, 0
2, 123149, Note_on_c, 0, 53, 0
2, 123149, Note_on_c, 0, 41, 0
2, 123151, Control_c, 0, 64, 88
2, 123155, Control_c, 0, 64, 104
2, 123157, Control_c, 0, 64, 127
2, 123253, Note_on_c, 0, 38, 90
2, 123253, Note_on_c, 0, 50, 96
2, 123278, Note_on_c, 0, 38, 0
2, 123280, Note_on_c, 0, 50, 0
2, 123295, Note_on_c, 0, 49, 98
2, 123297, Note_on_c, 0, 37, 95
2, 123312, Note_on_c, 0, 59, 69
2, 123326, Control_c, 0, 64, 56
2, 123328, Control_c, 0, 64, 0
2, 123332, Note_on_c, 0, 62, 73
2, 123338, Note_on_c, 0, 59, 0
2, 123342, Control_c, 0, 64, 127
2, 123348, Note_on_c, 0, 65, 72
2, 123358, Note_on_c, 0, 62, 0
2, 123367, Note_on_c, 0, 37, 0
2, 123368, Note_on_c, 0, 69, 84
2, 123376, Note_on_c, 0, 49, 0
2, 123376, Note_on_c, 0, 65, 0
2, 123379, Note_on_c, 0, 69, 0
2, 123392, Note_on_c, 0, 71, 70
2, 123408, Note_on_c, 0, 74, 84
2, 123410, Note_on_c, 0, 71, 0
2, 123425, Note_on_c, 0, 77, 88
2, 123436, Note_on_c, 0, 74, 0
2, 123442, Note_on_c, 0, 81, 84
2, 123443, Note_on_c, 0, 69, 100
2, 123445, Note_on_c, 0, 59, 78
2, 123445, Note_on_c, 0, 65, 80
2, 123446, Note_on_c, 0, 62, 81
2, 123451, Note_on_c, 0, 77, 0
2, 123452, Note_on_c, 0, 81, 0
2, 123468, Note_on_c, 0, 83, 83
2, 123469, Note_on_c, 0, 62, 0
2, 123470, Note_on_c, 0, 59, 0
2, 123477, Note_on_c, 0, 65, 0
2, 123481, Note_on_c, 0, 69, 0
2, 123485, Note_on_c, 0, 86, 82
2, 123499, Note_on_c, 0, 83, 0
2, 123501, Note_on_c, 0, 89, 88
2, 123506, Note_on_c, 0, 69, 100
2, 123506, Note_on_c, 0, 65, 80
2, 123506, Note_on_c, 0, 59, 81
2, 123507, Note_on_c, 0, 62, 83
2, 123517, Note_on_c, 0, 86, 0
2, 123520, Note_on_c, 0, 93, 89
2, 123527, Note_on_c, 0, 62, 0
2, 123528, Note_on_c, 0, 89, 0
2, 123530, Note_on_c, 0, 93, 0
2, 123531, Note_on_c, 0, 59, 0
2, 123536, Note_on_c, 0, 65, 0
2, 123539, Note_on_c, 0, 69, 0
2, 123542, Note_on_c, 0, 95, 88
2, 123556, Note_on_c, 0, 69, 97
2, 123557, Note_on_c, 0, 65, 80
2, 123557, Note_on_c, 0, 59, 80
2, 123560, Note_on_c, 0, 98, 94
2, 123560, Note_on_c, 0, 62, 73
2, 123577, Note_on_c, 0, 101, 95
2, 123580, Note_on_c, 0, 62, 0
2, 123580, Note_on_c, 0, 59, 0
2, 123585, Note_on_c, 0, 98, 0
2, 123587, Note_on_c, 0, 65, 0
2, 123589, Note_on_c, 0, 69, 0
2, 123600, Note_on_c, 0, 101, 0
2, 123600, Note_on_c, 0, 105, 107
2, 123608, Note_on_c, 0, 69, 107
2, 123608, Note_on_c, 0, 65, 86
2, 123608, Note_on_c, 0, 59, 82
2, 123609, Note_on_c, 0, 95, 0
2, 123610, Note_on_c, 0, 62, 81
2, 123620, Note_on_c, 0, 101, 92
2, 123630, Note_on_c, 0, 105, 0
2, 123640, Note_on_c, 0, 98, 88
2, 123656, Note_on_c, 0, 101, 0
2, 123657, Note_on_c, 0, 95, 84
2, 123661, Note_on_c, 0, 98, 0
2, 123667, Note_on_c, 0, 95, 0
2, 123680, Note_on_c, 0, 93, 97
2, 123698, Note_on_c, 0, 89, 84
2, 123700, Note_on_c, 0, 93, 0
2, 123717, Note_on_c, 0, 86, 83
2, 123724, Note_on_c, 0, 89, 0
2, 123728, Note_on_c, 0, 69, 0
2, 123729, Note_on_c, 0, 86, 0
2, 123732, Note_on_c, 0, 83, 80
2, 123742, Note_on_c, 0, 83, 0
2, 123758, Note_on_c, 0, 68, 87
2, 123760, Note_on_c, 0, 80, 79
2, 123782, Note_on_c, 0, 77, 78
2, 123785, Note_on_c, 0, 80, 0
2, 123798, Note_on_c, 0, 68, 0
2, 123800, Note_on_c, 0, 74, 74
2, 123803, Note_on_c, 0, 77, 0
2, 123815, Note_on_c, 0, 74, 0
2, 123821, Note_on_c, 0, 71, 74
2, 123826, Note_on_c, 0, 71, 0
2, 123836, Note_on_c, 0, 65, 0
2, 123840, Note_on_c, 0, 68, 70
2, 123856, Note_on_c, 0, 62, 0
2, 123856, Note_on_c, 0, 59, 0
2, 123860, Note_on_c, 0, 65, 70
2, 123871, Note_on_c, 0, 68, 0
2, 123876, Note_on_c, 0, 62, 69
2, 123882, Note_on_c, 0, 65, 0
2, 123892, Note_on_c, 0, 62, 0
2, 123893, Note_on_c, 0, 59, 69
2, 123908, Note_on_c, 0, 59, 0
2, 123916, Note_on_c, 0, 49, 95
2, 123918, Note_on_c, 0, 37, 83
2, 123929, Note_on_c, 0, 49, 0
2, 123931, Note_on_c, 0, 37, 0
2, 123958, Note_on_c, 0, 42, 97
2, 123961, Note_on_c, 0, 30, 99
2, 123982, Note_on_c, 0, 59, 70
2, 123991, Control_c, 0, 64, 24
2, 123993, Control_c, 0, 64, 0
2, 123997, Note_on_c, 0, 61, 70
2, 124004, Note_on_c, 0, 59, 0
2, 124013, Control_c, 0, 64, 127
2, 124017, Note_on_c, 0, 64, 70
2, 124023, Note_on_c, 0, 61, 0
2, 124033, Note_on_c, 0, 68, 75
2, 124037, Note_on_c, 0, 64, 0
2, 124043, Note_on_c, 0, 30, 0
2, 124044, Note_on_c, 0, 68, 0
2, 124051, Note_on_c, 0, 42, 0
2, 124056, Note_on_c, 0, 71, 77
2, 124072, Note_on_c, 0, 73, 75
2, 124074, Note_on_c, 0, 71, 0
2, 124090, Note_on_c, 0, 76, 76
2, 124103, Note_on_c, 0, 73, 0
2, 124107, Note_on_c, 0, 80, 79
2, 124115, Note_on_c, 0, 76, 0
2, 124122, Note_on_c, 0, 80, 0
2, 124131, Note_on_c, 0, 68, 101
2, 124131, Note_on_c, 0, 61, 75
2, 124132, Note_on_c, 0, 59, 77
2, 124133, Note_on_c, 0, 64, 84
2, 124135, Note_on_c, 0, 83, 85
2, 124151, Note_on_c, 0, 85, 77
2, 124155, Note_on_c, 0, 83, 0
2, 124167, Note_on_c, 0, 88, 74
2, 124181, Note_on_c, 0, 85, 0
2, 124183, Note_on_c, 0, 92, 82
2, 124189, Note_on_c, 0, 88, 0
2, 124195, Note_on_c, 0, 92, 0
2, 124206, Note_on_c, 0, 95, 91
2, 124221, Note_on_c, 0, 97, 82
2, 124226, Note_on_c, 0, 95, 0
2, 124241, Note_on_c, 0, 100, 82
2, 124249, Note_on_c, 0, 97, 0
2, 124255, Note_on_c, 0, 104, 87
2, 124263, Note_on_c, 0, 64, 0
2, 124264, Note_on_c, 0, 100, 0
2, 124265, Note_on_c, 0, 59, 0
2, 124272, Note_on_c, 0, 61, 0
2, 124273, Note_on_c, 0, 68, 0
2, 124276, Note_on_c, 0, 104, 0
2, 124283, Note_on_c, 0, 103, 98
2, 124285, Note_on_c, 0, 67, 100
2, 124285, Note_on_c, 0, 61, 75
2, 124285, Note_on_c, 0, 91, 83
2, 124286, Note_on_c, 0, 64, 77
2, 124286, Note_on_c, 0, 59, 84
2, 124296, Control_c, 0, 64, 104
2, 124298, Control_c, 0, 64, 56
2, 124301, Control_c, 0, 64, 0
2, 124306, Note_on_c, 0, 103, 0
2, 124307, Note_on_c, 0, 100, 82
2, 124307, Control_c, 0, 64, 24
2, 124311, Control_c, 0, 64, 88
2, 124312, Note_on_c, 0, 91, 0
2, 124313, Control_c, 0, 64, 127
2, 124325, Note_on_c, 0, 97, 83
2, 124332, Note_on_c, 0, 100, 0
2, 124343, Note_on_c, 0, 95, 80
2, 124360, Note_on_c, 0, 97, 0
2, 124360, Note_on_c, 0, 91, 79
2, 124361, Note_on_c, 0, 95, 0
2, 124370, Note_on_c, 0, 91, 0
2, 124381, Note_on_c, 0, 88, 77
2, 124397, Note_on_c, 0, 88, 0
2, 124397, Note_on_c, 0, 85, 83
2, 124413, Note_on_c, 0, 59, 0
2, 124415, Note_on_c, 0, 83, 79
2, 124425, Note_on_c, 0, 67, 0
2, 124427, Note_on_c, 0, 85, 0
2, 124428, Note_on_c, 0, 83, 0
2, 124430, Note_on_c, 0, 79, 84
2, 124433, Note_on_c, 0, 64, 0
2, 124437, Note_on_c, 0, 61, 0
2, 124440, Note_on_c, 0, 79, 0
2, 124446, Note_on_c, 0, 64, 84
2, 124446, Note_on_c, 0, 61, 78
2, 124447, Note_on_c, 0, 66, 96
2, 124448, Note_on_c, 0, 58, 74
2, 124456, Note_on_c, 0, 78, 84
2, 124476, Note_on_c, 0, 78, 0
2, 124477, Note_on_c, 0, 76, 80
2, 124478, Control_c, 0, 64, 72
2, 124482, Control_c, 0, 64, 24
2, 124491, Control_c, 0, 64, 127
2, 124492, Note_on_c, 0, 73, 79
2, 124498, Note_on_c, 0, 76, 0
2, 124507, Note_on_c, 0, 66, 0
2, 124508, Note_on_c, 0, 73, 0
2, 124510, Note_on_c, 0, 70, 75
2, 124511, Note_on_c, 0, 64, 0
2, 124514, Note_on_c, 0, 58, 0
2, 124515, Note_on_c, 0, 70, 0
2, 124516, Note_on_c, 0, 61, 0
2, 124530, Note_on_c, 0, 66, 81
2, 124545, Note_on_c, 0, 64, 80
2, 124555, Note_on_c, 0, 66, 0
2, 124560, Note_on_c, 0, 61, 79
2, 124566, Note_on_c, 0, 64, 0
2, 124575, Note_on_c, 0, 58, 74
2, 124578, Note_on_c, 0, 61, 0
2, 124593, Note_on_c, 0, 58, 0
2, 124602, Note_on_c, 0, 48, 107
2, 124603, Note_on_c, 0, 36, 84
2, 124616, Note_on_c, 0, 36, 0
2, 124617, Note_on_c, 0, 48, 0
2, 124636, Note_on_c, 0, 47, 96
2, 124637, Note_on_c, 0, 35, 94
2, 124658, Note_on_c, 0, 57, 71
2, 124665, Control_c, 0, 64, 24
2, 124667, Control_c, 0, 64, 0
2, 124675, Note_on_c, 0, 60, 72
2, 124683, Note_on_c, 0, 57, 0
2, 124688, Control_c, 0, 64, 127
2, 124691, Note_on_c, 0, 63, 71
2, 124703, Note_on_c, 0, 60, 0
2, 124707, Note_on_c, 0, 68, 70
2, 124712, Note_on_c, 0, 35, 0
2, 124716, Note_on_c, 0, 63, 0
2, 124718, Note_on_c, 0, 68, 0
2, 124724, Note_on_c, 0, 47, 0
2, 124732, Note_on_c, 0, 69, 80
2, 124748, Note_on_c, 0, 72, 72
2, 124749, Note_on_c, 0, 69, 0
2, 124763, Note_on_c, 0, 75, 73
2, 124773, Note_on_c, 0, 72, 0
2, 124780, Note_on_c, 0, 80, 75
2, 124788, Note_on_c, 0, 75, 0
2, 124793, Note_on_c, 0, 80, 0
2, 124797, Note_on_c, 0, 68, 102
2, 124800, Note_on_c, 0, 63, 70
2, 124800, Note_on_c, 0, 57, 73
2, 124801, Note_on_c, 0, 60, 67
2, 124810, Note_on_c, 0, 81, 78
2, 124821, Note_on_c, 0, 57, 0
2, 124827, Note_on_c, 0, 84, 81
2, 124828, Note_on_c, 0, 60, 0
2, 124835, Note_on_c, 0, 81, 0
2, 124835, Note_on_c, 0, 63, 0
2, 124838, Note_on_c, 0, 68, 0
2, 124845, Note_on_c, 0, 87, 74
2, 124852, Note_on_c, 0, 84, 0
2, 124857, Note_on_c, 0, 92, 77
2, 124860, Note_on_c, 0, 68, 103
2, 124861, Note_on_c, 0, 63, 72
2, 124862, Note_on_c, 0, 57, 70
2, 124865, Note_on_c, 0, 87, 0
2, 124865, Note_on_c, 0, 60, 67
2, 124867, Note_on_c, 0, 92, 0
2, 124880, Note_on_c, 0, 93, 94
2, 124882, Note_on_c, 0, 57, 0
2, 124887, Note_on_c, 0, 60, 0
2, 124888, Note_on_c, 0, 63, 0
2, 124888, Note_on_c, 0, 68, 0
2, 124900, Note_on_c, 0, 96, 89
2, 124908, Note_on_c, 0, 68, 96
2, 124910, Note_on_c, 0, 63, 72
2, 124911, Note_on_c, 0, 57, 69
2, 124911, Note_on_c, 0, 60, 73
2, 124916, Note_on_c, 0, 99, 89
2, 124926, Note_on_c, 0, 93, 0
2, 124927, Note_on_c, 0, 96, 0
2, 124929, Note_on_c, 0, 57, 0
2, 124933, Note_on_c, 0, 60, 0
2, 124934, Note_on_c, 0, 68, 0
2, 124936, Note_on_c, 0, 63, 0
2, 124940, Note_on_c, 0, 104, 99
2, 124943, Note_on_c, 0, 99, 0
2, 124951, Note_on_c, 0, 68, 106
2, 124952, Note_on_c, 0, 63, 81
2, 124953, Note_on_c, 0, 60, 76
2, 124953, Note_on_c, 0, 57, 74
2, 124962, Note_on_c, 0, 99, 94
2, 124970, Note_on_c, 0, 104, 0
2, 124985, Note_on_c, 0, 96, 90
2, 125000, Note_on_c, 0, 99, 0
2, 125000, Note_on_c, 0, 93, 89
2, 125003, Note_on_c, 0, 96, 0
2, 125012, Note_on_c, 0, 93, 0
2, 125023, Note_on_c, 0, 92, 86
2, 125045, Note_on_c, 0, 92, 0
2, 125045, Note_on_c, 0, 87, 81
2, 125058, Note_on_c, 0, 84, 73
2, 125073, Note_on_c, 0, 87, 0
2, 125076, Note_on_c, 0, 84, 0
2, 125078, Note_on_c, 0, 81, 80
2, 125081, Note_on_c, 0, 68, 0
2, 125088, Note_on_c, 0, 81, 0
2, 125100, Note_on_c, 0, 66, 88
2, 125106, Note_on_c, 0, 78, 75
2, 125127, Note_on_c, 0, 75, 74
2, 125128, Note_on_c, 0, 78, 0
2, 125135, Note_on_c, 0, 66, 0
2, 125147, Note_on_c, 0, 72, 72
2, 125149, Note_on_c, 0, 75, 0
2, 125153, Note_on_c, 0, 63, 0
2, 125157, Note_on_c, 0, 72, 0
2, 125161, Note_on_c, 0, 69, 72
2, 125168, Note_on_c, 0, 69, 0
2, 125169, Note_on_c, 0, 60, 0
2, 125175, Note_on_c, 0, 57, 0
2, 125185, Note_on_c, 0, 66, 70
2, 125201, Note_on_c, 0, 63, 69
2, 125203, Note_on_c, 0, 66, 0
2, 125221, Note_on_c, 0, 60, 68
2, 125224, Note_on_c, 0, 63, 0
2, 125231, Note_on_c, 0, 60, 0
2, 125231, Note_on_c, 0, 57, 67
2, 125250, Note_on_c, 0, 47, 99
2, 125252, Note_on_c, 0, 57, 0
2, 125252, Note_on_c, 0, 35, 82
2, 125263, Note_on_c, 0, 47, 0
2, 125267, Note_on_c, 0, 35, 0
2, 125285, Note_on_c, 0, 40, 92
2, 125286, Note_on_c, 0, 28, 95
2, 125312, Note_on_c, 0, 57, 72
2, 125312, Control_c, 0, 64, 56
2, 125315, Control_c, 0, 64, 0
2, 125328, Note_on_c, 0, 59, 70
2, 125332, Note_on_c, 0, 57, 0
2, 125336, Control_c, 0, 64, 127
2, 125343, Note_on_c, 0, 62, 71
2, 125350, Note_on_c, 0, 59, 0
2, 125358, Note_on_c, 0, 66, 72
2, 125359, Note_on_c, 0, 28, 0
2, 125365, Note_on_c, 0, 62, 0
2, 125371, Note_on_c, 0, 40, 0
2, 125371, Note_on_c, 0, 66, 0
2, 125381, Note_on_c, 0, 69, 82
2, 125398, Note_on_c, 0, 69, 0
2, 125398, Note_on_c, 0, 71, 78
2, 125413, Note_on_c, 0, 74, 76
2, 125420, Note_on_c, 0, 71, 0
2, 125427, Note_on_c, 0, 78, 79
2, 125434, Note_on_c, 0, 74, 0
2, 125440, Note_on_c, 0, 78, 0
2, 125445, Note_on_c, 0, 66, 103
2, 125447, Note_on_c, 0, 62, 81
2, 125447, Note_on_c, 0, 57, 68
2, 125447, Note_on_c, 0, 59, 72
2, 125452, Note_on_c, 0, 81, 85
2, 125468, Note_on_c, 0, 83, 81
2, 125475, Note_on_c, 0, 81, 0
2, 125482, Note_on_c, 0, 86, 80
2, 125493, Note_on_c, 0, 83, 0
2, 125500, Note_on_c, 0, 90, 80
2, 125507, Note_on_c, 0, 86, 0
2, 125513, Note_on_c, 0, 90, 0
2, 125522, Note_on_c, 0, 93, 92
2, 125535, Note_on_c, 0, 95, 87
2, 125542, Note_on_c, 0, 93, 0
2, 125557, Note_on_c, 0, 98, 85
2, 125566, Note_on_c, 0, 95, 0
2, 125570, Note_on_c, 0, 57, 0
2, 125571, Note_on_c, 0, 102, 91
2, 125579, Note_on_c, 0, 62, 0
2, 125579, Note_on_c, 0, 98, 0
2, 125582, Note_on_c, 0, 59, 0
2, 125586, Note_on_c, 0, 66, 0
2, 125591, Note_on_c, 0, 102, 0
2, 125598, Note_on_c, 0, 89, 86
2, 125598, Note_on_c, 0, 101, 100
2, 125600, Note_on_c, 0, 62, 76
2, 125600, Note_on_c, 0, 65, 95
2, 125601, Note_on_c, 0, 57, 78
2, 125601, Note_on_c, 0, 59, 55
2, 125612, Control_c, 0, 64, 88
2, 125615, Control_c, 0, 64, 24
2, 125617, Control_c, 0, 64, 0
2, 125620, Note_on_c, 0, 98, 85
2, 125626, Control_c, 0, 64, 24
2, 125629, Note_on_c, 0, 101, 0
2, 125629, Note_on_c, 0, 89, 0
2, 125630, Control_c, 0, 64, 127
2, 125638, Note_on_c, 0, 95, 89
2, 125646, Note_on_c, 0, 98, 0
2, 125655, Note_on_c, 0, 93, 91
2, 125671, Note_on_c, 0, 95, 0
2, 125675, Note_on_c, 0, 89, 87
2, 125676, Note_on_c, 0, 93, 0
2, 125687, Note_on_c, 0, 89, 0
2, 125693, Note_on_c, 0, 59, 0
2, 125698, Note_on_c, 0, 86, 78
2, 125716, Note_on_c, 0, 83, 80
2, 125718, Note_on_c, 0, 86, 0
2, 125731, Note_on_c, 0, 81, 79
2, 125733, Note_on_c, 0, 57, 0
2, 125743, Note_on_c, 0, 83, 0
2, 125748, Note_on_c, 0, 81, 0
2, 125748, Note_on_c, 0, 77, 87
2, 125751, Note_on_c, 0, 65, 0
2, 125760, Note_on_c, 0, 62, 0
2, 125761, Note_on_c, 0, 77, 0
2, 125777, Note_on_c, 0, 76, 84
2, 125777, Note_on_c, 0, 59, 76
2, 125777, Note_on_c, 0, 56, 79
2, 125777, Note_on_c, 0, 64, 87
2, 125777, Note_on_c, 0, 62, 78
2, 125797, Note_on_c, 0, 74, 75
2, 125798, Control_c, 0, 64, 104
2, 125801, Control_c, 0, 64, 56
2, 125802, Note_on_c, 0, 76, 0
2, 125803, Control_c, 0, 64, 40
2, 125807, Control_c, 0, 64, 56
2, 125810, Control_c, 0, 64, 127
2, 125815, Note_on_c, 0, 74, 0
2, 125815, Note_on_c, 0, 71, 76
2, 125832, Note_on_c, 0, 59, 0
2, 125832, Note_on_c, 0, 56, 0
2, 125833, Note_on_c, 0, 71, 0
2, 125833, Note_on_c, 0, 68, 79
2, 125838, Note_on_c, 0, 68, 0
2, 125840, Note_on_c, 0, 64, 0
2, 125848, Note_on_c, 0, 62, 0
2, 125857, Note_on_c, 0, 64, 78
2, 125873, Note_on_c, 0, 62, 77
2, 125878, Note_on_c, 0, 64, 0
2, 125887, Note_on_c, 0, 59, 74
2, 125888, Note_on_c, 0, 62, 0
2, 125906, Note_on_c, 0, 56, 74
2, 125907, Note_on_c, 0, 59, 0
2, 125925, Note_on_c, 0, 46, 95
2, 125927, Note_on_c, 0, 34, 87
2, 125928, Note_on_c, 0, 56, 0
2, 125948, Note_on_c, 0, 46, 0
2, 125952, Note_on_c, 0, 34, 0
2, 125962, Note_on_c, 0, 45, 102
2, 125966, Note_on_c, 0, 33, 94
2, 125990, Note_on_c, 0, 55, 70
2, 125992, Control_c, 0, 64, 72
2, 125995, Control_c, 0, 64, 0
2, 126005, Note_on_c, 0, 58, 70
2, 126016, Control_c, 0, 64, 127
2, 126017, Note_on_c, 0, 55, 0
2, 126017, Note_on_c, 0, 61, 75
2, 126030, Note_on_c, 0, 58, 0
2, 126033, Note_on_c, 0, 33, 0
2, 126037, Note_on_c, 0, 65, 79
2, 126047, Note_on_c, 0, 45, 0
2, 126047, Note_on_c, 0, 61, 0
2, 126049, Note_on_c, 0, 65, 0
2, 126063, Note_on_c, 0, 67, 74
2, 126080, Note_on_c, 0, 70, 74
2, 126085, Note_on_c, 0, 67, 0
2, 126095, Note_on_c, 0, 73, 75
2, 126110, Note_on_c, 0, 70, 0
2, 126113, Note_on_c, 0, 77, 85
2, 126117, Note_on_c, 0, 65, 104
2, 126120, Note_on_c, 0, 61, 81
2, 126120, Note_on_c, 0, 55, 87
2, 126121, Note_on_c, 0, 58, 81
2, 126122, Note_on_c, 0, 73, 0
2, 126125, Note_on_c, 0, 77, 0
2, 126146, Note_on_c, 0, 79, 74
2, 126147, Note_on_c, 0, 55, 0
2, 126153, Note_on_c, 0, 58, 0
2, 126155, Note_on_c, 0, 61, 0
2, 126158, Note_on_c, 0, 65, 0
2, 126160, Note_on_c, 0, 82, 75
2, 126171, Note_on_c, 0, 79, 0
2, 126177, Note_on_c, 0, 85, 81
2, 126178, Note_on_c, 0, 65, 103
2, 126178, Note_on_c, 0, 61, 84
2, 126180, Note_on_c, 0, 58, 80
2, 126181, Note_on_c, 0, 55, 80
2, 126191, Note_on_c, 0, 82, 0
2, 126193, Note_on_c, 0, 89, 80
2, 126197, Note_on_c, 0, 55, 0
2, 126202, Note_on_c, 0, 58, 0
2, 126202, Note_on_c, 0, 85, 0
2, 126204, Note_on_c, 0, 61, 0
2, 126204, Note_on_c, 0, 89, 0
2, 126204, Note_on_c, 0, 65, 0
2, 126221, Note_on_c, 0, 91, 83
2, 126223, Note_on_c, 0, 65, 103
2, 126223, Note_on_c, 0, 61, 80
2, 126223, Note_on_c, 0, 58, 69
2, 126225, Note_on_c, 0, 55, 80
2, 126233, Note_on_c, 0, 94, 84
2, 126243, Note_on_c, 0, 55, 0
2, 126246, Note_on_c, 0, 58, 0
2, 126246, Note_on_c, 0, 91, 0
2, 126248, Note_on_c, 0, 97, 87
2, 126249, Note_on_c, 0, 65, 0
2, 126249, Note_on_c, 0, 61, 0
2, 126258, Note_on_c, 0, 94, 0
2, 126270, Note_on_c, 0, 65, 107
2, 126271, Note_on_c, 0, 61, 95
2, 126271, Note_on_c, 0, 58, 81
2, 126271, Note_on_c, 0, 55, 94
2, 126272, Note_on_c, 0, 101, 92
2, 126273, Note_on_c, 0, 97, 0
2, 126292, Note_on_c, 0, 97, 83
2, 126297, Note_on_c, 0, 101, 0
2, 126310, Note_on_c, 0, 94, 78
2, 126323, Note_on_c, 0, 97, 0
2, 126323, Note_on_c, 0, 91, 77
2, 126327, Note_on_c, 0, 94, 0
2, 126330, Note_on_c, 0, 91, 0
2, 126345, Note_on_c, 0, 89, 84
2, 126365, Note_on_c, 0, 85, 75
2, 126368, Note_on_c, 0, 89, 0
2, 126381, Note_on_c, 0, 82, 75
2, 126396, Note_on_c, 0, 85, 0
2, 126401, Note_on_c, 0, 82, 0
2, 126401, Note_on_c, 0, 79, 75
2, 126406, Note_on_c, 0, 79, 0
2, 126407, Note_on_c, 0, 65, 0
2, 126422, Note_on_c, 0, 64, 94
2, 126426, Note_on_c, 0, 76, 74
2, 126429, Note_on_c, 0, 61, 0
2, 126447, Note_on_c, 0, 73, 74
2, 126449, Note_on_c, 0, 76, 0
2, 126465, Note_on_c, 0, 70, 76
2, 126473, Note_on_c, 0, 73, 0
2, 126474, Note_on_c, 0, 64, 0
2, 126481, Note_on_c, 0, 70, 0
2, 126487, Note_on_c, 0, 58, 0
2, 126487, Note_on_c, 0, 67, 72
2, 126503, Note_on_c, 0, 67, 0
2, 126511, Note_on_c, 0, 64, 71
2, 126512, Note_on_c, 0, 55, 0
2, 126523, Note_on_c, 0, 64, 0
2, 126525, Note_on_c, 0, 61, 75
2, 126540, Note_on_c, 0, 58, 74
2, 126547, Note_on_c, 0, 61, 0
2, 126557, Note_on_c, 0, 55, 72
2, 126558, Note_on_c, 0, 58, 0
2, 126572, Note_on_c, 0, 55, 0
2, 126573, Note_on_c, 0, 46, 94
2, 126576, Note_on_c, 0, 34, 91
2, 126586, Note_on_c, 0, 46, 0
2, 126594, Note_on_c, 0, 34, 0
2, 126603, Note_on_c, 0, 45, 96
2, 126606, Note_on_c, 0, 33, 98
2, 126618, Note_on_c, 0, 53, 75
2, 126626, Control_c, 0, 64, 56
2, 126628, Control_c, 0, 64, 0
2, 126633, Note_on_c, 0, 58, 72
2, 126648, Control_c, 0, 64, 127
2, 126649, Note_on_c, 0, 53, 0
2, 126651, Note_on_c, 0, 61, 72
2, 126668, Note_on_c, 0, 64, 77
2, 126669, Note_on_c, 0, 58, 0
2, 126669, Note_on_c, 0, 33, 0
2, 126673, Note_on_c, 0, 45, 0
2, 126678, Note_on_c, 0, 61, 0
2, 126679, Note_on_c, 0, 64, 0
2, 126693, Note_on_c, 0, 65, 74
2, 126708, Note_on_c, 0, 70, 80
2, 126711, Note_on_c, 0, 65, 0
2, 126726, Note_on_c, 0, 73, 75
2, 126736, Note_on_c, 0, 70, 0
2, 126738, Note_on_c, 0, 76, 76
2, 126743, Note_on_c, 0, 64, 97
2, 126745, Note_on_c, 0, 61, 70
2, 126746, Note_on_c, 0, 76, 0
2, 126746, Note_on_c, 0, 53, 83
2, 126746, Note_on_c, 0, 58, 56
2, 126748, Note_on_c, 0, 73, 0
2, 126763, Note_on_c, 0, 77, 86
2, 126771, Note_on_c, 0, 53, 0
2, 126773, Note_on_c, 0, 58, 0
2, 126773, Note_on_c, 0, 61, 0
2, 126777, Note_on_c, 0, 82, 81
2, 126778, Note_on_c, 0, 64, 0
2, 126785, Note_on_c, 0, 77, 0
2, 126797, Note_on_c, 0, 85, 78
2, 126798, Note_on_c, 0, 64, 103
2, 126800, Note_on_c, 0, 58, 75
2, 126800, Note_on_c, 0, 61, 79
2, 126801, Note_on_c, 0, 53, 84
2, 126808, Note_on_c, 0, 82, 0
2, 126813, Note_on_c, 0, 88, 83
2, 126819, Note_on_c, 0, 88, 0
2, 126821, Note_on_c, 0, 53, 0
2, 126821, Note_on_c, 0, 61, 0
2, 126822, Note_on_c, 0, 85, 0
2, 126822, Note_on_c, 0, 58, 0
2, 126825, Note_on_c, 0, 64, 0
2, 126835, Note_on_c, 0, 89, 80
2, 126841, Note_on_c, 0, 64, 96
2, 126841, Note_on_c, 0, 58, 75
2, 126842, Note_on_c, 0, 53, 76
2, 126842, Note_on_c, 0, 61, 73
2, 126847, Note_on_c, 0, 94, 83
2, 126862, Note_on_c, 0, 53, 0
2, 126865, Note_on_c, 0, 61, 0
2, 126865, Note_on_c, 0, 97, 89
2, 126866, Note_on_c, 0, 58, 0
2, 126866, Note_on_c, 0, 64, 0
2, 126873, Note_on_c, 0, 94, 0
2, 126886, Note_on_c, 0, 64, 107
2, 126887, Note_on_c, 0, 97, 0
2, 126887, Note_on_c, 0, 58, 86
2, 126887, Note_on_c, 0, 61, 88
2, 126888, Note_on_c, 0, 53, 85
2, 126890, Note_on_c, 0, 100, 97
2, 126912, Note_on_c, 0, 97, 89
2, 126915, Note_on_c, 0, 89, 0
2, 126918, Note_on_c, 0, 100, 0
2, 126932, Note_on_c, 0, 94, 79
2, 126942, Note_on_c, 0, 97, 0
2, 126947, Note_on_c, 0, 89, 84
2, 126948, Note_on_c, 0, 94, 0
2, 126953, Note_on_c, 0, 89, 0
2, 126967, Note_on_c, 0, 88, 80
2, 126985, Note_on_c, 0, 88, 0
2, 126985, Note_on_c, 0, 85, 75
2, 126998, Note_on_c, 0, 82, 74
2, 127007, Note_on_c, 0, 85, 0
2, 127009, Note_on_c, 0, 64, 0
2, 127013, Note_on_c, 0, 82, 0
2, 127013, Note_on_c, 0, 77, 84
2, 127018, Note_on_c, 0, 77, 0
2, 127022, Note_on_c, 0, 61, 0
2, 127030, Note_on_c, 0, 62, 92
2, 127037, Note_on_c, 0, 76, 74
2, 127058, Control_c, 0, 64, 88
2, 127059, Note_on_c, 0, 76, 0
2, 127060, Note_on_c, 0, 74, 75
2, 127061, Control_c, 0, 64, 56
2, 127067, Control_c, 0, 64, 127
2, 127080, Note_on_c, 0, 70, 73
2, 127086, Note_on_c, 0, 74, 0
2, 127092, Note_on_c, 0, 65, 77
2, 127093, Note_on_c, 0, 70, 0
2, 127099, Note_on_c, 0, 65, 0
2, 127105, Note_on_c, 0, 62, 0
2, 127112, Note_on_c, 0, 58, 0
2, 127117, Note_on_c, 0, 64, 71
2, 127123, Note_on_c, 0, 53, 0
2, 127132, Note_on_c, 0, 62, 77
2, 127137, Note_on_c, 0, 64, 0
2, 127147, Note_on_c, 0, 58, 73
2, 127157, Note_on_c, 0, 62, 0
2, 127163, Note_on_c, 0, 53, 72
2, 127164, Note_on_c, 0, 58, 0
2, 127179, Note_on_c, 0, 53, 0
2, 127180, Note_on_c, 0, 46, 98
2, 127181, Note_on_c, 0, 34, 87
2, 127198, Note_on_c, 0, 46, 0
2, 127204, Note_on_c, 0, 34, 0
2, 127213, Note_on_c, 0, 45, 98
2, 127215, Note_on_c, 0, 33, 79
2, 127228, Note_on_c, 0, 50, 72
2, 127238, Control_c, 0, 64, 88
2, 127242, Control_c, 0, 64, 0
2, 127247, Note_on_c, 0, 53, 73
2, 127250, Note_on_c, 0, 50, 0
2, 127262, Control_c, 0, 64, 72
2, 127265, Control_c, 0, 64, 127
2, 127268, Note_on_c, 0, 57, 72
2, 127273, Note_on_c, 0, 53, 0
2, 127281, Note_on_c, 0, 33, 0
2, 127286, Note_on_c, 0, 60, 74
2, 127291, Note_on_c, 0, 57, 0
2, 127293, Note_on_c, 0, 45, 0
2, 127297, Note_on_c, 0, 60, 0
2, 127310, Note_on_c, 0, 62, 84
2, 127327, Note_on_c, 0, 62, 0
2, 127327, Note_on_c, 0, 65, 74
2, 127346, Note_on_c, 0, 69, 73
2, 127359, Note_on_c, 0, 65, 0
2, 127361, Note_on_c, 0, 72, 80
2, 127368, Note_on_c, 0, 69, 0
2, 127370, Note_on_c, 0, 60, 96
2, 127371, Note_on_c, 0, 50, 79
2, 127372, Note_on_c, 0, 72, 0
2, 127372, Note_on_c, 0, 57, 73
2, 127373, Note_on_c, 0, 53, 69
2, 127390, Note_on_c, 0, 74, 72
2, 127403, Note_on_c, 0, 53, 0
2, 127403, Note_on_c, 0, 50, 0
2, 127407, Note_on_c, 0, 57, 0
2, 127407, Note_on_c, 0, 77, 84
2, 127411, Note_on_c, 0, 60, 0
2, 127412, Note_on_c, 0, 74, 0
2, 127431, Note_on_c, 0, 60, 106
2, 127431, Note_on_c, 0, 81, 77
2, 127432, Note_on_c, 0, 57, 83
2, 127432, Note_on_c, 0, 50, 80
2, 127433, Note_on_c, 0, 53, 81
2, 127447, Note_on_c, 0, 77, 0
2, 127448, Note_on_c, 0, 84, 75
2, 127452, Note_on_c, 0, 50, 0
2, 127456, Note_on_c, 0, 81, 0
2, 127458, Note_on_c, 0, 53, 0
2, 127459, Note_on_c, 0, 57, 0
2, 127460, Note_on_c, 0, 84, 0
2, 127461, Note_on_c, 0, 60, 0
2, 127472, Note_on_c, 0, 86, 81
2, 127478, Note_on_c, 0, 60, 92
2, 127480, Note_on_c, 0, 53, 73
2, 127480, Note_on_c, 0, 50, 72
2, 127481, Note_on_c, 0, 57, 64
2, 127490, Note_on_c, 0, 89, 85
2, 127494, Note_on_c, 0, 86, 0
2, 127503, Note_on_c, 0, 50, 0
2, 127506, Note_on_c, 0, 60, 0
2, 127506, Note_on_c, 0, 53, 0
2, 127506, Note_on_c, 0, 93, 90
2, 127509, Note_on_c, 0, 57, 0
2, 127513, Note_on_c, 0, 89, 0
2, 127527, Note_on_c, 0, 93, 0
2, 127527, Note_on_c, 0, 96, 99
2, 127528, Note_on_c, 0, 60, 102
2, 127528, Note_on_c, 0, 57, 77
2, 127528, Note_on_c, 0, 53, 78
2, 127530, Note_on_c, 0, 50, 84
2, 127546, Note_on_c, 0, 93, 92
2, 127555, Note_on_c, 0, 96, 0
2, 127568, Note_on_c, 0, 89, 84
2, 127584, Note_on_c, 0, 93, 0
2, 127586, Note_on_c, 0, 89, 0
2, 127586, Note_on_c, 0, 86, 79
2, 127593, Note_on_c, 0, 86, 0
2, 127606, Note_on_c, 0, 84, 86
2, 127625, Note_on_c, 0, 81, 78
2, 127631, Note_on_c, 0, 84, 0
2, 127645, Note_on_c, 0, 77, 81
2, 127658, Note_on_c, 0, 81, 0
2, 127661, Note_on_c, 0, 74, 88
2, 127662, Note_on_c, 0, 77, 0
2, 127663, Note_on_c, 0, 60, 0
2, 127669, Note_on_c, 0, 74, 0
2, 127674, Note_on_c, 0, 57, 0
2, 127690, Note_on_c, 0, 58, 91
2, 127693, Note_on_c, 0, 72, 75
2, 127711, Note_on_c, 0, 72, 0
2, 127711, Note_on_c, 0, 70, 74
2, 127721, Control_c, 0, 64, 72
2, 127727, Control_c, 0, 64, 104
2, 127730, Control_c, 0, 64, 127
2, 127731, Note_on_c, 0, 65, 73
2, 127737, Note_on_c, 0, 58, 0
2, 127744, Note_on_c, 0, 70, 0
2, 127748, Note_on_c, 0, 53, 0
2, 127749, Note_on_c, 0, 65, 0
2, 127750, Note_on_c, 0, 62, 83
2, 127755, Note_on_c, 0, 62, 0
2, 127760, Note_on_c, 0, 50, 0
2, 127771, Note_on_c, 0, 60, 76
2, 127787, Note_on_c, 0, 58, 71
2, 127796, Note_on_c, 0, 60, 0
2, 127810, Note_on_c, 0, 53, 77
2, 127823, Note_on_c, 0, 58, 0
2, 127827, Note_on_c, 0, 53, 0
2, 127828, Note_on_c, 0, 50, 71
2, 127836, Note_on_c, 0, 50, 0
2, 127861, Note_on_c, 0, 33, 75
2, 127868, Note_on_c, 0, 41, 76
2, 127882, Note_on_c, 0, 46, 92
2, 127924, Note_on_c, 0, 41, 0
2, 127929, Note_on_c, 0, 33, 0
2, 127938, Note_on_c, 0, 46, 0
2, 127946, Note_on_c, 0, 49, 84
2, 127967, Note_on_c, 0, 49, 0
2, 127972, Note_on_c, 0, 52, 87
2, 127989, Note_on_c, 0, 52, 0
2, 127995, Note_on_c, 0, 50, 82
2, 128011, Note_on_c, 0, 50, 0
2, 128017, Note_on_c, 0, 52, 87
2, 128039, Note_on_c, 0, 52, 0
2, 128040, Note_on_c, 0, 55, 86
2, 128057, Note_on_c, 0, 55, 0
2, 128063, Note_on_c, 0, 53, 89
2, 128076, Note_on_c, 0, 53, 0
2, 128086, Note_on_c, 0, 50, 74
2, 128086, Note_on_c, 0, 53, 71
2, 128095, Control_c, 0, 64, 72
2, 128097, Control_c, 0, 64, 56
2, 128100, Control_c, 0, 64, 72
2, 128102, Control_c, 0, 64, 127
2, 128106, Note_on_c, 0, 56, 81
2, 128108, Note_on_c, 0, 50, 0
2, 128112, Note_on_c, 0, 53, 0
2, 128116, Note_on_c, 0, 56, 0
2, 128131, Note_on_c, 0, 60, 87
2, 128133, Note_on_c, 0, 57, 64
2, 128140, Note_on_c, 0, 57, 0
2, 128149, Note_on_c, 0, 60, 0
2, 128153, Note_on_c, 0, 58, 81
2, 128166, Note_on_c, 0, 58, 0
2, 128177, Note_on_c, 0, 56, 78
2, 128180, Note_on_c, 0, 53, 76
2, 128198, Note_on_c, 0, 58, 75
2, 128201, Note_on_c, 0, 53, 0
2, 128202, Note_on_c, 0, 56, 0
2, 128208, Note_on_c, 0, 58, 0
2, 128221, Note_on_c, 0, 61, 64
2, 128222, Note_on_c, 0, 64, 84
2, 128234, Note_on_c, 0, 61, 0
2, 128237, Note_on_c, 0, 64, 0
2, 128243, Note_on_c, 0, 62, 90
2, 128255, Note_on_c, 0, 62, 0
2, 128265, Note_on_c, 0, 58, 74
2, 128267, Note_on_c, 0, 56, 72
2, 128287, Note_on_c, 0, 58, 0
2, 128287, Note_on_c, 0, 62, 80
2, 128290, Note_on_c, 0, 56, 0
2, 128298, Note_on_c, 0, 62, 0
2, 128310, Note_on_c, 0, 67, 75
2, 128311, Note_on_c, 0, 64, 65
2, 128324, Note_on_c, 0, 64, 0
2, 128326, Note_on_c, 0, 67, 0
2, 128331, Note_on_c, 0, 65, 82
2, 128343, Note_on_c, 0, 65, 0
2, 128352, Note_on_c, 0, 65, 88
2, 128355, Note_on_c, 0, 62, 74
2, 128370, Note_on_c, 0, 65, 0
2, 128373, Note_on_c, 0, 68, 81
2, 128375, Note_on_c, 0, 62, 0
2, 128381, Note_on_c, 0, 68, 0
2, 128396, Note_on_c, 0, 72, 87
2, 128398, Note_on_c, 0, 69, 55
2, 128413, Note_on_c, 0, 72, 0
2, 128416, Note_on_c, 0, 70, 84
2, 128419, Note_on_c, 0, 69, 0
2, 128429, Note_on_c, 0, 70, 0
2, 128436, Note_on_c, 0, 68, 81
2, 128436, Note_on_c, 0, 65, 77
2, 128457, Note_on_c, 0, 65, 0
2, 128457, Note_on_c, 0, 68, 0
2, 128457, Note_on_c, 0, 70, 87
2, 128465, Note_on_c, 0, 70, 0
2, 128478, Note_on_c, 0, 76, 90
2, 128478, Note_on_c, 0, 73, 68
2, 128490, Note_on_c, 0, 76, 0
2, 128498, Note_on_c, 0, 74, 97
2, 128499, Note_on_c, 0, 73, 0
2, 128509, Note_on_c, 0, 74, 0
2, 128516, Note_on_c, 0, 70, 87
2, 128517, Note_on_c, 0, 68, 73
2, 128534, Note_on_c, 0, 70, 0
2, 128537, Note_on_c, 0, 74, 91
2, 128540, Note_on_c, 0, 68, 0
2, 128548, Note_on_c, 0, 74, 0
2, 128558, Note_on_c, 0, 79, 92
2, 128561, Note_on_c, 0, 76, 74
2, 128578, Note_on_c, 0, 79, 0
2, 128578, Note_on_c, 0, 77, 96
2, 128579, Note_on_c, 0, 76, 0
2, 128590, Note_on_c, 0, 77, 0
2, 128600, Note_on_c, 0, 77, 99
2, 128601, Note_on_c, 0, 74, 78
2, 128614, Note_on_c, 0, 74, 0
2, 128615, Note_on_c, 0, 77, 0
2, 128618, Note_on_c, 0, 80, 89
2, 128628, Note_on_c, 0, 80, 0
2, 128640, Note_on_c, 0, 84, 92
2, 128642, Note_on_c, 0, 81, 72
2, 128657, Note_on_c, 0, 81, 0
2, 128657, Note_on_c, 0, 84, 0
2, 128658, Note_on_c, 0, 82, 88
2, 128671, Note_on_c, 0, 82, 0
2, 128678, Note_on_c, 0, 80, 87
2, 128678, Note_on_c, 0, 77, 85
2, 128695, Note_on_c, 0, 77, 0
2, 128696, Note_on_c, 0, 80, 0
2, 128697, Note_on_c, 0, 82, 91
2, 128707, Note_on_c, 0, 82, 0
2, 128718, Note_on_c, 0, 88, 96
2, 128720, Note_on_c, 0, 85, 78
2, 128735, Note_on_c, 0, 88, 0
2, 128738, Note_on_c, 0, 86, 97
2, 128746, Note_on_c, 0, 86, 0
2, 128746, Note_on_c, 0, 85, 0
2, 128760, Note_on_c, 0, 82, 87
2, 128761, Note_on_c, 0, 80, 83
2, 128777, Note_on_c, 0, 82, 0
2, 128779, Note_on_c, 0, 80, 0
2, 128781, Note_on_c, 0, 86, 92
2, 128791, Note_on_c, 0, 86, 0
2, 128803, Note_on_c, 0, 91, 94
2, 128805, Note_on_c, 0, 88, 76
2, 128822, Note_on_c, 0, 89, 96
2, 128823, Note_on_c, 0, 88, 0
2, 128823, Note_on_c, 0, 91, 0
2, 128834, Note_on_c, 0, 89, 0
2, 128842, Note_on_c, 0, 89, 94
2, 128845, Note_on_c, 0, 86, 80
2, 128860, Note_on_c, 0, 89, 0
2, 128862, Note_on_c, 0, 86, 0
2, 128862, Note_on_c, 0, 92, 103
2, 128872, Note_on_c, 0, 92, 0
2, 128885, Note_on_c, 0, 96, 102
2, 128887, Note_on_c, 0, 93, 84
2, 128902, Note_on_c, 0, 94, 94
2, 128903, Note_on_c, 0, 96, 0
2, 128909, Note_on_c, 0, 93, 0
2, 128918, Note_on_c, 0, 94, 0
2, 128923, Note_on_c, 0, 89, 96
2, 128923, Note_on_c, 0, 92, 97
2, 128943, Note_on_c, 0, 89, 0
2, 128944, Note_on_c, 0, 92, 0
2, 128945, Note_on_c, 0, 94, 95
2, 128956, Note_on_c, 0, 94, 0
2, 128966, Note_on_c, 0, 100, 98
2, 128967, Note_on_c, 0, 97, 83
2, 128983, Note_on_c, 0, 98, 106
2, 128984, Note_on_c, 0, 100, 0
2, 128990, Note_on_c, 0, 97, 0
2, 128995, Note_on_c, 0, 98, 0
2, 129001, Note_on_c, 0, 94, 100
2, 129003, Note_on_c, 0, 92, 93
2, 129019, Note_on_c, 0, 94, 0
2, 129023, Note_on_c, 0, 98, 93
2, 129024, Note_on_c, 0, 92, 0
2, 129035, Note_on_c, 0, 98, 0
2, 129046, Note_on_c, 0, 103, 107
2, 129047, Note_on_c, 0, 100, 106
2, 129059, Note_on_c, 0, 100, 0
2, 129066, Note_on_c, 0, 101, 107
2, 129068, Note_on_c, 0, 103, 0
2, 129082, Note_on_c, 0, 101, 0
2, 129086, Note_on_c, 0, 92, 97
2, 129086, Note_on_c, 0, 89, 84
2, 129103, Note_on_c, 0, 92, 0
2, 129103, Note_on_c, 0, 94, 90
2, 129104, Note_on_c, 0, 89, 0
2, 129114, Note_on_c, 0, 94, 0
2, 129122, Note_on_c, 0, 100, 103
2, 129122, Note_on_c, 0, 97, 84
2, 129134, Note_on_c, 0, 97, 0
2, 129140, Note_on_c, 0, 100, 0
2, 129143, Note_on_c, 0, 98, 99
2, 129155, Note_on_c, 0, 98, 0
2, 129163, Note_on_c, 0, 89, 81
2, 129163, Note_on_c, 0, 86, 76
2, 129184, Note_on_c, 0, 86, 0
2, 129184, Note_on_c, 0, 89, 0
2, 129185, Note_on_c, 0, 92, 93
2, 129195, Note_on_c, 0, 92, 0
2, 129207, Note_on_c, 0, 96, 102
2, 129208, Note_on_c, 0, 93, 83
2, 129225, Note_on_c, 0, 94, 95
2, 129227, Note_on_c, 0, 96, 0
2, 129228, Note_on_c, 0, 93, 0
2, 129237, Note_on_c, 0, 94, 0
2, 129245, Note_on_c, 0, 89, 90
2, 129245, Note_on_c, 0, 92, 97
2, 129262, Note_on_c, 0, 89, 0
2, 129263, Note_on_c, 0, 94, 95
2, 129266, Note_on_c, 0, 92, 0
2, 129273, Note_on_c, 0, 94, 0
2, 129286, Note_on_c, 0, 100, 97
2, 129286, Note_on_c, 0, 97, 79
2, 129303, Note_on_c, 0, 98, 99
2, 129304, Note_on_c, 0, 100, 0
2, 129311, Note_on_c, 0, 97, 0
2, 129315, Note_on_c, 0, 98, 0
2, 129322, Note_on_c, 0, 94, 98
2, 129325, Note_on_c, 0, 92, 93
2, 129338, Note_on_c, 0, 94, 0
2, 129342, Note_on_c, 0, 92, 0
2, 129343, Note_on_c, 0, 98, 93
2, 129355, Note_on_c, 0, 98, 0
2, 129363, Note_on_c, 0, 103, 107
2, 129365, Note_on_c, 0, 100, 102
2, 129382, Note_on_c, 0, 101, 107
2, 129385, Note_on_c, 0, 103, 0
2, 129388, Note_on_c, 0, 100, 0
2, 129397, Note_on_c, 0, 101, 0
2, 129402, Note_on_c, 0, 92, 92
2, 129403, Note_on_c, 0, 89, 78
2, 129419, Note_on_c, 0, 89, 0
2, 129419, Note_on_c, 0, 92, 0
2, 129420, Note_on_c, 0, 94, 81
2, 129433, Note_on_c, 0, 94, 0
2, 129441, Note_on_c, 0, 100, 99
2, 129442, Note_on_c, 0, 97, 75
2, 129460, Note_on_c, 0, 97, 0
2, 129461, Note_on_c, 0, 98, 92
2, 129463, Note_on_c, 0, 100, 0
2, 129472, Note_on_c, 0, 98, 0
2, 129478, Note_on_c, 0, 89, 75
2, 129478, Note_on_c, 0, 86, 63
2, 129496, Note_on_c, 0, 89, 0
2, 129498, Note_on_c, 0, 92, 90
2, 129500, Note_on_c, 0, 86, 0
2, 129506, Note_on_c, 0, 92, 0
2, 129518, Note_on_c, 0, 96, 93
2, 129522, Note_on_c, 0, 93, 74
2, 129536, Note_on_c, 0, 94, 83
2, 129537, Note_on_c, 0, 93, 0
2, 129538, Note_on_c, 0, 96, 0
2, 129548, Note_on_c, 0, 94, 0
2, 129556, Note_on_c, 0, 92, 90
2, 129556, Note_on_c, 0, 89, 83
2, 129575, Note_on_c, 0, 94, 89
2, 129576, Note_on_c, 0, 89, 0
2, 129576, Note_on_c, 0, 92, 0
2, 129586, Note_on_c, 0, 94, 0
2, 129598, Note_on_c, 0, 100, 97
2, 129598, Note_on_c, 0, 97, 77
2, 129613, Note_on_c, 0, 98, 94
2, 129615, Note_on_c, 0, 100, 0
2, 129620, Note_on_c, 0, 97, 0
2, 129624, Note_on_c, 0, 98, 0
2, 129631, Note_on_c, 0, 94, 96
2, 129632, Note_on_c, 0, 92, 90
2, 129648, Note_on_c, 0, 94, 0
2, 129649, Note_on_c, 0, 92, 0
2, 129653, Note_on_c, 0, 98, 92
2, 129658, Note_on_c, 0, 96, 54
2, 129663, Note_on_c, 0, 96, 0
2, 129666, Note_on_c, 0, 98, 0
2, 129675, Note_on_c, 0, 103, 107
2, 129676, Note_on_c, 0, 100, 103
2, 129692, Note_on_c, 0, 101, 107
2, 129695, Note_on_c, 0, 103, 0
2, 129696, Note_on_c, 0, 100, 0
2, 129702, Note_on_c, 0, 101, 0
2, 129710, Note_on_c, 0, 92, 91
2, 129711, Note_on_c, 0, 89, 75
2, 129729, Note_on_c, 0, 89, 0
2, 129730, Note_on_c, 0, 92, 0
2, 129730, Note_on_c, 0, 94, 94
2, 129740, Note_on_c, 0, 94, 0
2, 129752, Note_on_c, 0, 100, 96
2, 129755, Note_on_c, 0, 97, 66
2, 129768, Note_on_c, 0, 98, 94
2, 129770, Note_on_c, 0, 100, 0
2, 129776, Note_on_c, 0, 97, 0
2, 129780, Note_on_c, 0, 98, 0
2, 129788, Note_on_c, 0, 94, 91
2, 129791, Note_on_c, 0, 92, 81
2, 129805, Note_on_c, 0, 94, 0
2, 129810, Note_on_c, 0, 98, 92
2, 129811, Note_on_c, 0, 92, 0
2, 129822, Note_on_c, 0, 98, 0
2, 129831, Note_on_c, 0, 103, 107
2, 129832, Note_on_c, 0, 100, 90
2, 129848, Note_on_c, 0, 101, 96
2, 129851, Note_on_c, 0, 103, 0
2, 129853, Note_on_c, 0, 100, 0
2, 129859, Note_on_c, 0, 101, 0
2, 129868, Note_on_c, 0, 92, 95
2, 129868, Note_on_c, 0, 89, 86
2, 129886, Note_on_c, 0, 89, 0
2, 129887, Note_on_c, 0, 94, 93
2, 129888, Note_on_c, 0, 92, 0
2, 129899, Note_on_c, 0, 94, 0
2, 129911, Note_on_c, 0, 100, 84
2, 129911, Note_on_c, 0, 97, 71
2, 129926, Note_on_c, 0, 100, 0
2, 129927, Note_on_c, 0, 98, 95
2, 129929, Note_on_c, 0, 97, 0
2, 129937, Note_on_c, 0, 98, 0
2, 129945, Note_on_c, 0, 94, 94
2, 129947, Note_on_c, 0, 92, 84
2, 129962, Note_on_c, 0, 94, 0
2, 129965, Note_on_c, 0, 92, 0
2, 129967, Note_on_c, 0, 98, 93
2, 129980, Note_on_c, 0, 98, 0
2, 129987, Note_on_c, 0, 103, 107
2, 129988, Note_on_c, 0, 100, 91
2, 130005, Note_on_c, 0, 103, 0
2, 130005, Note_on_c, 0, 101, 96
2, 130006, Note_on_c, 0, 100, 0
2, 130013, Note_on_c, 0, 101, 0
2, 130023, Note_on_c, 0, 92, 95
2, 130023, Note_on_c, 0, 89, 86
2, 130043, Note_on_c, 0, 94, 94
2, 130044, Note_on_c, 0, 89, 0
2, 130044, Note_on_c, 0, 92, 0
2, 130054, Note_on_c, 0, 94, 0
2, 130066, Note_on_c, 0, 100, 80
2, 130067, Note_on_c, 0, 97, 67
2, 130081, Note_on_c, 0, 98, 98
2, 130083, Note_on_c, 0, 100, 0
2, 130088, Note_on_c, 0, 97, 0
2, 130092, Note_on_c, 0, 98, 0
2, 130103, Note_on_c, 0, 94, 107
2, 130105, Note_on_c, 0, 92, 94
2, 130120, Note_on_c, 0, 94, 0
2, 130125, Note_on_c, 0, 92, 0
2, 130126, Note_on_c, 0, 98, 94
2, 130138, Note_on_c, 0, 98, 0
2, 130148, Note_on_c, 0, 103, 107
2, 130165, Note_on_c, 0, 103, 0
2, 130168, Note_on_c, 0, 100, 107
2, 130185, Note_on_c, 0, 100, 0
2, 130191, Note_on_c, 0, 101, 107
2, 130209, Note_on_c, 0, 101, 0
2, 130211, Note_on_c, 0, 98, 105
2, 130226, Note_on_c, 0, 98, 0
2, 130230, Note_on_c, 0, 100, 100
2, 130246, Note_on_c, 0, 100, 0
2, 130247, Note_on_c, 0, 97, 98
2, 130264, Note_on_c, 0, 97, 0
2, 130268, Note_on_c, 0, 98, 95
2, 130285, Note_on_c, 0, 98, 0
2, 130288, Note_on_c, 0, 94, 87
2, 130304, Note_on_c, 0, 94, 0
2, 130307, Note_on_c, 0, 97, 79
2, 130325, Note_on_c, 0, 93, 93
2, 130327, Note_on_c, 0, 97, 0
2, 130342, Note_on_c, 0, 93, 0
2, 130345, Note_on_c, 0, 94, 85
2, 130366, Note_on_c, 0, 94, 0
2, 130366, Note_on_c, 0, 92, 92
2, 130384, Note_on_c, 0, 92, 0
2, 130385, Note_on_c, 0, 93, 89
2, 130403, Note_on_c, 0, 93, 0
2, 130407, Note_on_c, 0, 89, 85
2, 130424, Note_on_c, 0, 89, 0
2, 130431, Note_on_c, 0, 92, 94
2, 130447, Note_on_c, 0, 92, 0
2, 130450, Note_on_c, 0, 88, 88
2, 130467, Note_on_c, 0, 88, 0
2, 130476, Note_on_c, 0, 89, 80
2, 130492, Note_on_c, 0, 89, 0
2, 130495, Note_on_c, 0, 86, 86
2, 130513, Note_on_c, 0, 86, 0
2, 130515, Note_on_c, 0, 88, 91
2, 130533, Note_on_c, 0, 88, 0
2, 130535, Note_on_c, 0, 85, 85
2, 130550, Note_on_c, 0, 85, 0
2, 130556, Note_on_c, 0, 86, 90
2, 130573, Note_on_c, 0, 86, 0
2, 130576, Note_on_c, 0, 82, 80
2, 130593, Note_on_c, 0, 82, 0
2, 130595, Note_on_c, 0, 85, 79
2, 130615, Note_on_c, 0, 81, 87
2, 130617, Note_on_c, 0, 85, 0
2, 130631, Note_on_c, 0, 81, 0
2, 130633, Note_on_c, 0, 82, 73
2, 130652, Note_on_c, 0, 80, 78
2, 130653, Note_on_c, 0, 82, 0
2, 130672, Note_on_c, 0, 80, 0
2, 130675, Note_on_c, 0, 81, 83
2, 130691, Note_on_c, 0, 81, 0
2, 130693, Note_on_c, 0, 77, 84
2, 130710, Note_on_c, 0, 77, 0
2, 130713, Note_on_c, 0, 80, 82
2, 130733, Note_on_c, 0, 76, 85
2, 130734, Note_on_c, 0, 80, 0
2, 130754, Note_on_c, 0, 76, 0
2, 130756, Note_on_c, 0, 77, 90
2, 130773, Note_on_c, 0, 77, 0
2, 130776, Note_on_c, 0, 74, 80
2, 130792, Note_on_c, 0, 74, 0
2, 130796, Note_on_c, 0, 76, 84
2, 130816, Note_on_c, 0, 76, 0
2, 130816, Note_on_c, 0, 73, 74
2, 130834, Note_on_c, 0, 73, 0
2, 130837, Note_on_c, 0, 74, 84
2, 130855, Note_on_c, 0, 74, 0
2, 130860, Note_on_c, 0, 70, 78
2, 130877, Note_on_c, 0, 70, 0
2, 130880, Note_on_c, 0, 73, 80
2, 130901, Note_on_c, 0, 73, 0
2, 130901, Note_on_c, 0, 69, 79
2, 130918, Note_on_c, 0, 69, 0
2, 130918, Note_on_c, 0, 70, 77
2, 130938, Note_on_c, 0, 70, 0
2, 130938, Note_on_c, 0, 68, 75
2, 130958, Note_on_c, 0, 68, 0
2, 130961, Note_on_c, 0, 69, 73
2, 130979, Note_on_c, 0, 69, 0
2, 130983, Note_on_c, 0, 65, 72
2, 131003, Note_on_c, 0, 65, 0
2, 131006, Note_on_c, 0, 68, 70
2, 131027, Note_on_c, 0, 68, 0
2, 131027, Note_on_c, 0, 64, 67
2, 131047, Note_on_c, 0, 64, 0
2, 131048, Note_on_c, 0, 65, 66
2, 131065, Note_on_c, 0, 65, 0
2, 131068, Note_on_c, 0, 62, 64
2, 131085, Note_on_c, 0, 62, 0
2, 131087, Note_on_c, 0, 64, 63
2, 131107, Note_on_c, 0, 64, 0
2, 131108, Note_on_c, 0, 61, 62
2, 131108, Control_c, 0, 64, 104
2, 131111, Control_c, 0, 64, 88
2, 131116, Control_c, 0, 64, 72
2, 131122, Control_c, 0, 64, 56
2, 131127, Note_on_c, 0, 62, 61
2, 131127, Control_c, 0, 64, 40
2, 131130, Note_on_c, 0, 61, 0
2, 131131, Control_c, 0, 64, 24
2, 131137, Control_c, 0, 64, 0
2, 131140, Note_on_c, 0, 62, 0
2, 131151, Note_on_c, 0, 57, 61
2, 131166, Note_on_c, 0, 57, 0
2, 131171, Control_c, 0, 64, 24
2, 131172, Control_c, 0, 64, 56
2, 131175, Control_c, 0, 64, 72
2, 131176, Control_c, 0, 64, 88
2, 131186, Note_on_c, 0, 56, 58
2, 131187, Control_c, 0, 64, 72
2, 131190, Control_c, 0, 64, 56
2, 131198, Control_c, 0, 64, 24
2, 131206, Note_on_c, 0, 56, 0
2, 131206, Note_on_c, 0, 58, 52
2, 131212, Control_c, 0, 64, 0
2, 131227, Note_on_c, 0, 58, 0
2, 131228, Note_on_c, 0, 56, 56
2, 131249, Note_on_c, 0, 56, 0
2, 131250, Note_on_c, 0, 58, 52
2, 131268, Note_on_c, 0, 58, 0
2, 131268, Note_on_c, 0, 56, 57
2, 131288, Note_on_c, 0, 56, 0
2, 131288, Note_on_c, 0, 58, 45
2, 131306, Note_on_c, 0, 58, 0
2, 131308, Note_on_c, 0, 56, 50
2, 131328, Note_on_c, 0, 56, 0
2, 131330, Note_on_c, 0, 58, 45
2, 131350, Note_on_c, 0, 58, 0
2, 131351, Note_on_c, 0, 56, 54
2, 131369, Note_on_c, 0, 56, 0
2, 131372, Note_on_c, 0, 58, 42
2, 131390, Note_on_c, 0, 58, 0
2, 131392, Note_on_c, 0, 56, 50
2, 131410, Note_on_c, 0, 56, 0
2, 131412, Note_on_c, 0, 58, 40
2, 131432, Note_on_c, 0, 58, 0
2, 131435, Note_on_c, 0, 56, 44
2, 131451, Note_on_c, 0, 56, 0
2, 131453, Note_on_c, 0, 58, 39
2, 131470, Note_on_c, 0, 58, 0
2, 131473, Note_on_c, 0, 56, 46
2, 131490, Note_on_c, 0, 56, 0
2, 131492, Note_on_c, 0, 58, 40
2, 131512, Note_on_c, 0, 58, 0
2, 131513, Note_on_c, 0, 56, 48
2, 131529, Note_on_c, 0, 56, 0
2, 131532, Note_on_c, 0, 58, 37
2, 131552, Note_on_c, 0, 58, 0
2, 131555, Note_on_c, 0, 56, 47
2, 131571, Note_on_c, 0, 56, 0
2, 131573, Note_on_c, 0, 58, 35
2, 131593, Note_on_c, 0, 58, 0
2, 131596, Note_on_c, 0, 56, 45
2, 131613, Note_on_c, 0, 56, 0
2, 131616, Note_on_c, 0, 58, 36
2, 131638, Note_on_c, 0, 58, 0
2, 131638, Control_c, 0, 64, 24
2, 131640, Note_on_c, 0, 56, 42
2, 131641, Control_c, 0, 64, 40
2, 131643, Control_c, 0, 64, 56
2, 131647, Control_c, 0, 64, 72
2, 131650, Control_c, 0, 64, 88
2, 131653, Control_c, 0, 64, 104
2, 131656, Control_c, 0, 64, 127
2, 131660, Note_on_c, 0, 56, 0
2, 131662, Note_on_c, 0, 58, 35
2, 131662, Note_on_c, 0, 89, 64
2, 131663, Note_on_c, 0, 86, 46
2, 131671, Note_on_c, 0, 86, 0
2, 131678, Note_on_c, 0, 89, 0
2, 131679, Note_on_c, 0, 58, 0
2, 131680, Control_c, 0, 64, 104
2, 131680, Control_c, 0, 67, 127
2, 131681, Note_on_c, 0, 56, 47
2, 131682, Note_on_c, 0, 91, 72
2, 131682, Control_c, 0, 64, 88
2, 131687, Control_c, 0, 64, 72
2, 131688, Control_c, 0, 64, 56
2, 131692, Control_c, 0, 64, 40
2, 131695, Note_on_c, 0, 91, 0
2, 131697, Note_on_c, 0, 56, 0
2, 131697, Control_c, 0, 64, 24
2, 131701, Note_on_c, 0, 58, 37
2, 131703, Note_on_c, 0, 89, 78
2, 131703, Note_on_c, 0, 86, 66
2, 131706, Control_c, 0, 64, 0
2, 131715, Note_on_c, 0, 86, 0
2, 131715, Note_on_c, 0, 89, 0
2, 131719, Note_on_c, 0, 58, 0
2, 131722, Note_on_c, 0, 91, 75
2, 131723, Note_on_c, 0, 56, 46
2, 131726, Control_c, 0, 67, 0
2, 131734, Note_on_c, 0, 56, 0
2, 131738, Note_on_c, 0, 58, 52
2, 131739, Note_on_c, 0, 91, 0
2, 131742, Note_on_c, 0, 89, 84
2, 131743, Note_on_c, 0, 86, 68
2, 131753, Note_on_c, 0, 86, 0
2, 131754, Note_on_c, 0, 58, 0
2, 131758, Note_on_c, 0, 89, 0
2, 131760, Note_on_c, 0, 91, 75
2, 131760, Note_on_c, 0, 56, 47
2, 131781, Note_on_c, 0, 56, 0
2, 131782, Note_on_c, 0, 89, 84
2, 131782, Note_on_c, 0, 58, 63
2, 131783, Note_on_c, 0, 86, 67
2, 131785, Note_on_c, 0, 91, 0
2, 131790, Note_on_c, 0, 89, 0
2, 131791, Note_on_c, 0, 86, 0
2, 131797, Note_on_c, 0, 58, 0
2, 131802, Note_on_c, 0, 57, 56
2, 131819, Note_on_c, 0, 57, 0
2, 131823, Note_on_c, 0, 88, 73
2, 131825, Note_on_c, 0, 85, 50
2, 131826, Note_on_c, 0, 58, 38
2, 131830, Note_on_c, 0, 85, 0
2, 131833, Note_on_c, 0, 88, 0
2, 131842, Note_on_c, 0, 58, 0
2, 131845, Note_on_c, 0, 57, 63
2, 131857, Note_on_c, 0, 57, 0
2, 131863, Note_on_c, 0, 58, 36
2, 131863, Note_on_c, 0, 86, 74
2, 131863, Note_on_c, 0, 89, 80
2, 131874, Note_on_c, 0, 86, 0
2, 131875, Note_on_c, 0, 89, 0
2, 131880, Note_on_c, 0, 58, 0
2, 131885, Note_on_c, 0, 57, 61
2, 131897, Note_on_c, 0, 57, 0
2, 131903, Note_on_c, 0, 58, 50
2, 131906, Note_on_c, 0, 86, 78
2, 131906, Note_on_c, 0, 80, 78
2, 131913, Note_on_c, 0, 80, 0
2, 131916, Note_on_c, 0, 86, 0
2, 131921, Note_on_c, 0, 58, 0
2, 131926, Note_on_c, 0, 59, 53
2, 131942, Note_on_c, 0, 59, 0
2, 131946, Note_on_c, 0, 58, 49
2, 131946, Note_on_c, 0, 80, 71
2, 131948, Note_on_c, 0, 77, 57
2, 131953, Note_on_c, 0, 77, 0
2, 131957, Note_on_c, 0, 80, 0
2, 131964, Note_on_c, 0, 58, 0
2, 131967, Note_on_c, 0, 59, 59
2, 131980, Note_on_c, 0, 59, 0
2, 131985, Note_on_c, 0, 80, 74
2, 131985, Note_on_c, 0, 58, 53
2, 131986, Note_on_c, 0, 86, 76
2, 131996, Note_on_c, 0, 80, 0
2, 131998, Note_on_c, 0, 86, 0
2, 132001, Note_on_c, 0, 58, 0
2, 132003, Note_on_c, 0, 59, 59
2, 132016, Note_on_c, 0, 59, 0
2, 132023, Note_on_c, 0, 58, 54
2, 132026, Note_on_c, 0, 89, 81
2, 132027, Note_on_c, 0, 86, 77
2, 132033, Note_on_c, 0, 86, 0
2, 132034, Note_on_c, 0, 89, 0
2, 132039, Note_on_c, 0, 58, 0
2, 132045, Note_on_c, 0, 57, 53
2, 132063, Note_on_c, 0, 57, 0
2, 132065, Note_on_c, 0, 86, 84
2, 132066, Note_on_c, 0, 58, 56
2, 132067, Note_on_c, 0, 81, 70
2, 132070, Note_on_c, 0, 81, 0
2, 132073, Note_on_c, 0, 86, 0
2, 132078, Note_on_c, 0, 58, 0
2, 132082, Note_on_c, 0, 57, 47
2, 132100, Note_on_c, 0, 57, 0
2, 132101, Note_on_c, 0, 58, 54
2, 132103, Note_on_c, 0, 81, 66
2, 132103, Note_on_c, 0, 77, 53
2, 132109, Note_on_c, 0, 77, 0
2, 132111, Note_on_c, 0, 81, 0
2, 132117, Note_on_c, 0, 58, 0
2, 132121, Note_on_c, 0, 57, 56
2, 132139, Note_on_c, 0, 57, 0
2, 132143, Note_on_c, 0, 56, 50
2, 132143, Note_on_c, 0, 82, 70
2, 132146, Note_on_c, 0, 77, 56
2, 132159, Note_on_c, 0, 56, 0
2, 132161, Note_on_c, 0, 77, 0
2, 132161, Note_on_c, 0, 82, 0
2, 132162, Note_on_c, 0, 57, 53
2, 132163, Note_on_c, 0, 86, 81
2, 132178, Note_on_c, 0, 86, 0
2, 132179, Note_on_c, 0, 57, 0
2, 132181, Note_on_c, 0, 56, 46
2, 132183, Note_on_c, 0, 82, 70
2, 132185, Note_on_c, 0, 77, 59
2, 132197, Note_on_c, 0, 56, 0
2, 132200, Note_on_c, 0, 77, 0
2, 132200, Note_on_c, 0, 82, 0
2, 132201, Note_on_c, 0, 57, 53
2, 132202, Note_on_c, 0, 86, 80
2, 132217, Note_on_c, 0, 86, 0
2, 132217, Note_on_c, 0, 57, 0
2, 132220, Note_on_c, 0, 56, 45
2, 132221, Note_on_c, 0, 82, 68
2, 132223, Note_on_c, 0, 77, 58
2, 132235, Note_on_c, 0, 56, 0
2, 132236, Note_on_c, 0, 77, 0
2, 132238, Note_on_c, 0, 82, 0
2, 132238, Note_on_c, 0, 57, 52
2, 132241, Note_on_c, 0, 86, 78
2, 132253, Note_on_c, 0, 86, 0
2, 132259, Note_on_c, 0, 57, 0
2, 132260, Note_on_c, 0, 58, 61
2, 132262, Note_on_c, 0, 81, 84
2, 132262, Note_on_c, 0, 77, 68
2, 132268, Note_on_c, 0, 77, 0
2, 132270, Note_on_c, 0, 81, 0
2, 132276, Note_on_c, 0, 58, 0
2, 132281, Note_on_c, 0, 57, 66
2, 132296, Note_on_c, 0, 57, 0
2, 132301, Note_on_c, 0, 80, 74
2, 132302, Note_on_c, 0, 58, 53
2, 132305, Note_on_c, 0, 76, 54
2, 132310, Note_on_c, 0, 76, 0
2, 132313, Note_on_c, 0, 80, 0
2, 132317, Note_on_c, 0, 58, 0
2, 132322, Note_on_c, 0, 57, 61
2, 132335, Note_on_c, 0, 57, 0
2, 132340, Note_on_c, 0, 77, 79
2, 132340, Note_on_c, 0, 81, 69
2, 132340, Note_on_c, 0, 58, 53
2, 132346, Note_on_c, 0, 81, 0
2, 132348, Note_on_c, 0, 77, 0
2, 132355, Note_on_c, 0, 58, 0
2, 132360, Note_on_c, 0, 57, 63
2, 132372, Note_on_c, 0, 57, 0
2, 132377, Note_on_c, 0, 58, 54
2, 132378, Note_on_c, 0, 77, 84
2, 132381, Note_on_c, 0, 74, 62
2, 132386, Note_on_c, 0, 74, 0
2, 132388, Note_on_c, 0, 77, 0
2, 132394, Note_on_c, 0, 58, 0
2, 132398, Note_on_c, 0, 59, 55
2, 132409, Note_on_c, 0, 59, 0
2, 132418, Note_on_c, 0, 80, 77
2, 132418, Note_on_c, 0, 58, 50
2, 132420, Note_on_c, 0, 77, 74
2, 132422, Note_on_c, 0, 77, 0
2, 132428, Note_on_c, 0, 80, 0
2, 132433, Note_on_c, 0, 58, 0
2, 132437, Note_on_c, 0, 59, 58
2, 132448, Note_on_c, 0, 59, 0
2, 132455, Note_on_c, 0, 58, 48
2, 132458, Note_on_c, 0, 85, 74
2, 132458, Note_on_c, 0, 76, 64
2, 132464, Note_on_c, 0, 76, 0
2, 132467, Note_on_c, 0, 58, 0
2, 132469, Note_on_c, 0, 85, 0
2, 132472, Note_on_c, 0, 59, 50
2, 132484, Note_on_c, 0, 59, 0
2, 132493, Note_on_c, 0, 58, 49
2, 132497, Note_on_c, 0, 86, 81
2, 132498, Note_on_c, 0, 77, 73
2, 132504, Note_on_c, 0, 77, 0
2, 132505, Note_on_c, 0, 86, 0
2, 132511, Note_on_c, 0, 58, 0
2, 132516, Note_on_c, 0, 57, 62
2, 132529, Note_on_c, 0, 57, 0
2, 132533, Note_on_c, 0, 58, 56
2, 132535, Note_on_c, 0, 81, 73
2, 132536, Note_on_c, 0, 77, 69
2, 132542, Note_on_c, 0, 77, 0
2, 132545, Note_on_c, 0, 81, 0
2, 132546, Note_on_c, 0, 58, 0
2, 132552, Note_on_c, 0, 57, 48
2, 132567, Note_on_c, 0, 57, 0
2, 132571, Note_on_c, 0, 77, 73
2, 132571, Note_on_c, 0, 58, 53
2, 132572, Note_on_c, 0, 74, 49
2, 132582, Note_on_c, 0, 77, 0
2, 132583, Note_on_c, 0, 74, 0
2, 132586, Note_on_c, 0, 58, 0
2, 132592, Note_on_c, 0, 57, 55
2, 132604, Note_on_c, 0, 57, 0
2, 132613, Note_on_c, 0, 56, 50
2, 132613, Note_on_c, 0, 77, 71
2, 132615, Note_on_c, 0, 74, 52
2, 132628, Note_on_c, 0, 56, 0
2, 132630, Note_on_c, 0, 77, 0
2, 132631, Note_on_c, 0, 74, 0
2, 132633, Note_on_c, 0, 79, 78
2, 132633, Note_on_c, 0, 57, 54
2, 132646, Note_on_c, 0, 57, 0
2, 132649, Note_on_c, 0, 79, 0
2, 132651, Note_on_c, 0, 56, 55
2, 132655, Note_on_c, 0, 77, 80
2, 132655, Note_on_c, 0, 74, 63
2, 132664, Note_on_c, 0, 56, 0
2, 132665, Note_on_c, 0, 74, 0
2, 132667, Note_on_c, 0, 77, 0
2, 132671, Note_on_c, 0, 79, 76
2, 132671, Note_on_c, 0, 57, 52
2, 132684, Note_on_c, 0, 57, 0
2, 132686, Note_on_c, 0, 79, 0
2, 132690, Note_on_c, 0, 56, 50
2, 132692, Note_on_c, 0, 77, 81
2, 132692, Note_on_c, 0, 74, 69
2, 132703, Note_on_c, 0, 74, 0
2, 132705, Note_on_c, 0, 77, 0
2, 132706, Note_on_c, 0, 56, 0
2, 132710, Note_on_c, 0, 79, 72
2, 132710, Note_on_c, 0, 57, 59
2, 132727, Note_on_c, 0, 79, 0
2, 132730, Note_on_c, 0, 57, 0
2, 132730, Note_on_c, 0, 58, 59
2, 132731, Note_on_c, 0, 77, 78
2, 132731, Note_on_c, 0, 74, 61
2, 132734, Note_on_c, 0, 77, 0
2, 132736, Note_on_c, 0, 74, 0
2, 132743, Note_on_c, 0, 58, 0
2, 132748, Note_on_c, 0, 57, 57
2, 132764, Note_on_c, 0, 57, 0
2, 132768, Note_on_c, 0, 73, 67
2, 132770, Note_on_c, 0, 76, 64
2, 132770, Note_on_c, 0, 58, 54
2, 132775, Note_on_c, 0, 76, 0
2, 132775, Note_on_c, 0, 73, 0
2, 132781, Note_on_c, 0, 58, 0
2, 132788, Note_on_c, 0, 57, 58
2, 132800, Note_on_c, 0, 57, 0
2, 132807, Note_on_c, 0, 58, 54
2, 132807, Note_on_c, 0, 77, 69
2, 132808, Note_on_c, 0, 74, 53
2, 132813, Note_on_c, 0, 74, 0
2, 132813, Note_on_c, 0, 77, 0
2, 132819, Note_on_c, 0, 58, 0
2, 132827, Note_on_c, 0, 57, 56
2, 132840, Note_on_c, 0, 57, 0
2, 132842, Note_on_c, 0, 58, 67
2, 132847, Note_on_c, 0, 74, 70
2, 132847, Note_on_c, 0, 68, 68
2, 132853, Note_on_c, 0, 74, 0
2, 132855, Note_on_c, 0, 68, 0
2, 132863, Note_on_c, 0, 58, 0
2, 132866, Note_on_c, 0, 59, 66
2, 132878, Note_on_c, 0, 59, 0
2, 132882, Note_on_c, 0, 68, 69
2, 132883, Note_on_c, 0, 65, 58
2, 132883, Note_on_c, 0, 58, 58
2, 132890, Note_on_c, 0, 65, 0
2, 132893, Note_on_c, 0, 68, 0
2, 132898, Note_on_c, 0, 58, 0
2, 132903, Note_on_c, 0, 59, 58
2, 132915, Note_on_c, 0, 59, 0
2, 132921, Note_on_c, 0, 68, 62
2, 132921, Note_on_c, 0, 58, 49
2, 132922, Note_on_c, 0, 74, 66
2, 132929, Note_on_c, 0, 68, 0
2, 132932, Note_on_c, 0, 74, 0
2, 132933, Note_on_c, 0, 58, 0
2, 132938, Note_on_c, 0, 59, 51
2, 132950, Note_on_c, 0, 59, 0
2, 132956, Note_on_c, 0, 58, 45
2, 132962, Note_on_c, 0, 74, 75
2, 132963, Note_on_c, 0, 77, 65
2, 132966, Note_on_c, 0, 77, 0
2, 132972, Note_on_c, 0, 74, 0
2, 132976, Note_on_c, 0, 58, 0
2, 132982, Note_on_c, 0, 57, 59
2, 132994, Note_on_c, 0, 57, 0
2, 133000, Note_on_c, 0, 58, 54
2, 133001, Note_on_c, 0, 74, 73
2, 133003, Note_on_c, 0, 69, 67
2, 133011, Note_on_c, 0, 69, 0
2, 133012, Note_on_c, 0, 74, 0
2, 133013, Note_on_c, 0, 58, 0
2, 133021, Note_on_c, 0, 57, 43
2, 133036, Note_on_c, 0, 57, 0
2, 133038, Note_on_c, 0, 58, 56
2, 133040, Note_on_c, 0, 69, 73
2, 133040, Note_on_c, 0, 65, 49
2, 133050, Note_on_c, 0, 65, 0
2, 133050, Note_on_c, 0, 69, 0
2, 133053, Note_on_c, 0, 58, 0
2, 133061, Note_on_c, 0, 57, 43
2, 133077, Note_on_c, 0, 57, 0
2, 133081, Note_on_c, 0, 56, 54
2, 133082, Note_on_c, 0, 70, 66
2, 133082, Note_on_c, 0, 65, 55
2, 133096, Note_on_c, 0, 56, 0
2, 133098, Note_on_c, 0, 70, 0
2, 133099, Note_on_c, 0, 65, 0
2, 133100, Note_on_c, 0, 57, 55
2, 133101, Note_on_c, 0, 74, 80
2, 133113, Note_on_c, 0, 74, 0
2, 133115, Note_on_c, 0, 57, 0
2, 133118, Note_on_c, 0, 56, 52
2, 133120, Note_on_c, 0, 70, 69
2, 133122, Note_on_c, 0, 65, 50
2, 133133, Note_on_c, 0, 56, 0
2, 133137, Note_on_c, 0, 70, 0
2, 133140, Note_on_c, 0, 57, 53
2, 133140, Note_on_c, 0, 74, 76
2, 133143, Note_on_c, 0, 65, 0
2, 133152, Note_on_c, 0, 74, 0
2, 133155, Note_on_c, 0, 57, 0
2, 133158, Note_on_c, 0, 56, 50
2, 133160, Note_on_c, 0, 70, 74
2, 133173, Note_on_c, 0, 56, 0
2, 133176, Note_on_c, 0, 70, 0
2, 133177, Note_on_c, 0, 57, 63
2, 133180, Note_on_c, 0, 74, 77
2, 133190, Note_on_c, 0, 74, 0
2, 133194, Note_on_c, 0, 57, 0
2, 133198, Note_on_c, 0, 58, 56
2, 133201, Note_on_c, 0, 69, 77
2, 133201, Note_on_c, 0, 65, 58
2, 133207, Note_on_c, 0, 65, 0
2, 133207, Note_on_c, 0, 69, 0
2, 133211, Note_on_c, 0, 58, 0
2, 133220, Note_on_c, 0, 57, 63
2, 133235, Note_on_c, 0, 57, 0
2, 133240, Note_on_c, 0, 68, 61
2, 133240, Note_on_c, 0, 58, 54
2, 133242, Note_on_c, 0, 64, 50
2, 133248, Note_on_c, 0, 64, 0
2, 133251, Note_on_c, 0, 68, 0
2, 133255, Note_on_c, 0, 58, 0
2, 133261, Note_on_c, 0, 57, 55
2, 133274, Note_on_c, 0, 57, 0
2, 133277, Note_on_c, 0, 69, 66
2, 133278, Note_on_c, 0, 65, 58
2, 133280, Note_on_c, 0, 58, 44
2, 133283, Note_on_c, 0, 65, 0
2, 133287, Note_on_c, 0, 69, 0
2, 133293, Note_on_c, 0, 58, 0
2, 133296, Note_on_c, 0, 57, 53
2, 133308, Note_on_c, 0, 57, 0
2, 133315, Note_on_c, 0, 58, 54
2, 133316, Note_on_c, 0, 65, 73
2, 133316, Note_on_c, 0, 62, 50
2, 133323, Note_on_c, 0, 62, 0
2, 133326, Note_on_c, 0, 65, 0
2, 133331, Note_on_c, 0, 58, 0
2, 133336, Note_on_c, 0, 59, 54
2, 133349, Note_on_c, 0, 59, 0
2, 133351, Note_on_c, 0, 68, 68
2, 133352, Note_on_c, 0, 65, 73
2, 133353, Note_on_c, 0, 58, 54
2, 133359, Note_on_c, 0, 65, 0
2, 133362, Note_on_c, 0, 68, 0
2, 133366, Note_on_c, 0, 58, 0
2, 133373, Note_on_c, 0, 59, 53
2, 133383, Note_on_c, 0, 59, 0
2, 133391, Note_on_c, 0, 73, 72
2, 133392, Note_on_c, 0, 58, 46
2, 133392, Note_on_c, 0, 64, 72
2, 133402, Note_on_c, 0, 64, 0
2, 133403, Note_on_c, 0, 73, 0
2, 133405, Note_on_c, 0, 58, 0
2, 133410, Note_on_c, 0, 59, 57
2, 133421, Note_on_c, 0, 59, 0
2, 133430, Note_on_c, 0, 58, 46
2, 133432, Note_on_c, 0, 74, 69
2, 133433, Note_on_c, 0, 65, 68
2, 133440, Note_on_c, 0, 74, 0
2, 133443, Note_on_c, 0, 65, 0
2, 133445, Note_on_c, 0, 58, 0
2, 133450, Note_on_c, 0, 57, 62
2, 133465, Note_on_c, 0, 57, 0
2, 133470, Note_on_c, 0, 58, 54
2, 133472, Note_on_c, 0, 69, 65
2, 133472, Note_on_c, 0, 65, 54
2, 133479, Note_on_c, 0, 65, 0
2, 133480, Note_on_c, 0, 69, 0
2, 133482, Note_on_c, 0, 58, 0
2, 133488, Note_on_c, 0, 57, 49
2, 133498, Note_on_c, 0, 57, 0
2, 133506, Note_on_c, 0, 58, 49
2, 133507, Note_on_c, 0, 65, 70
2, 133510, Note_on_c, 0, 62, 54
2, 133519, Note_on_c, 0, 65, 0
2, 133520, Note_on_c, 0, 62, 0
2, 133522, Note_on_c, 0, 58, 0
2, 133527, Note_on_c, 0, 57, 54
2, 133545, Note_on_c, 0, 57, 0
2, 133548, Note_on_c, 0, 65, 65
2, 133548, Note_on_c, 0, 56, 55
2, 133551, Note_on_c, 0, 62, 48
2, 133563, Note_on_c, 0, 56, 0
2, 133563, Note_on_c, 0, 65, 0
2, 133567, Note_on_c, 0, 62, 0
2, 133568, Note_on_c, 0, 57, 61
2, 133568, Note_on_c, 0, 67, 62
2, 133583, Note_on_c, 0, 67, 0
2, 133583, Note_on_c, 0, 57, 0
2, 133583, Note_on_c, 0, 58, 60
2, 133587, Note_on_c, 0, 65, 65
2, 133590, Note_on_c, 0, 62, 44
2, 133601, Note_on_c, 0, 62, 0
2, 133603, Note_on_c, 0, 65, 0
2, 133605, Note_on_c, 0, 58, 0
2, 133606, Note_on_c, 0, 67, 65
2, 133606, Note_on_c, 0, 59, 76
2, 133622, Note_on_c, 0, 59, 0
2, 133622, Note_on_c, 0, 67, 0
2, 133627, Note_on_c, 0, 65, 59
2, 133628, Note_on_c, 0, 62, 46
2, 133635, Note_on_c, 0, 62, 0
2, 133640, Note_on_c, 0, 65, 0
2, 133646, Note_on_c, 0, 67, 62
2, 133663, Note_on_c, 0, 67, 0
2, 133667, Note_on_c, 0, 60, 78
2, 133670, Note_on_c, 0, 65, 51
2, 133672, Note_on_c, 0, 62, 34
2, 133678, Control_c, 0, 67, 127
2, 133685, Note_on_c, 0, 62, 0
2, 133685, Note_on_c, 0, 65, 0
2, 133687, Note_on_c, 0, 67, 63
2, 133687, Note_on_c, 0, 59, 72
2, 133690, Note_on_c, 0, 60, 0
2, 133705, Note_on_c, 0, 67, 0
2, 133707, Note_on_c, 0, 59, 0
2, 133707, Note_on_c, 0, 58, 63
2, 133711, Note_on_c, 0, 65, 58
2, 133712, Note_on_c, 0, 62, 32
2, 133722, Note_on_c, 0, 62, 0
2, 133725, Note_on_c, 0, 58, 0
2, 133726, Note_on_c, 0, 65, 0
2, 133728, Note_on_c, 0, 57, 63
2, 133730, Note_on_c, 0, 67, 63
2, 133745, Note_on_c, 0, 67, 0
2, 133748, Note_on_c, 0, 57, 0
2, 133748, Note_on_c, 0, 56, 52
2, 133751, Note_on_c, 0, 65, 57
2, 133752, Note_on_c, 0, 62, 32
2, 133756, Note_on_c, 0, 56, 0
2, 133763, Note_on_c, 0, 62, 0
2, 133766, Note_on_c, 0, 65, 0
2, 133771, Note_on_c, 0, 67, 48
2, 133783, Note_on_c, 0, 67, 0
2, 133791, Note_on_c, 0, 56, 65
2, 133793, Note_on_c, 0, 65, 56
2, 133795, Note_on_c, 0, 62, 40
2, 133807, Note_on_c, 0, 62, 0
2, 133808, Note_on_c, 0, 65, 0
2, 133811, Note_on_c, 0, 56, 0
2, 133811, Note_on_c, 0, 67, 66
2, 133813, Note_on_c, 0, 57, 64
2, 133829, Note_on_c, 0, 67, 0
2, 133831, Note_on_c, 0, 57, 0
2, 133831, Note_on_c, 0, 58, 60
2, 133833, Note_on_c, 0, 65, 62
2, 133836, Note_on_c, 0, 62, 35
2, 133844, Note_on_c, 0, 62, 0
2, 133849, Note_on_c, 0, 65, 0
2, 133849, Note_on_c, 0, 58, 0
2, 133851, Note_on_c, 0, 59, 78
2, 133851, Note_on_c, 0, 67, 64
2, 133866, Note_on_c, 0, 59, 0
2, 133867, Note_on_c, 0, 67, 0
2, 133872, Note_on_c, 0, 65, 58
2, 133873, Note_on_c, 0, 62, 43
2, 133880, Note_on_c, 0, 62, 0
2, 133887, Note_on_c, 0, 65, 0
2, 133890, Note_on_c, 0, 67, 64
2, 133911, Note_on_c, 0, 67, 0
2, 133915, Note_on_c, 0, 65, 63
2, 133916, Note_on_c, 0, 60, 80
2, 133916, Note_on_c, 0, 62, 40
2, 133928, Note_on_c, 0, 62, 0
2, 133932, Note_on_c, 0, 65, 0
2, 133932, Note_on_c, 0, 67, 66
2, 133937, Note_on_c, 0, 59, 55
2, 133942, Note_on_c, 0, 60, 0
2, 133952, Note_on_c, 0, 67, 0
2, 133953, Note_on_c, 0, 59, 0
2, 133955, Note_on_c, 0, 65, 57
2, 133955, Note_on_c, 0, 58, 54
2, 133956, Note_on_c, 0, 62, 40
2, 133966, Note_on_c, 0, 62, 0
2, 133972, Note_on_c, 0, 65, 0
2, 133973, Note_on_c, 0, 58, 0
2, 133975, Note_on_c, 0, 67, 67
2, 133976, Note_on_c, 0, 57, 60
2, 133989, Note_on_c, 0, 57, 0
2, 133993, Note_on_c, 0, 67, 0
2, 133998, Note_on_c, 0, 65, 54
2, 134000, Note_on_c, 0, 62, 37
2, 134007, Note_on_c, 0, 62, 0
2, 134011, Note_on_c, 0, 65, 0
2, 134016, Note_on_c, 0, 67, 60
2, 134033, Note_on_c, 0, 67, 0
2, 134036, Note_on_c, 0, 56, 58
2, 134038, Note_on_c, 0, 65, 59
2, 134040, Note_on_c, 0, 62, 40
2, 134041, Control_c, 0, 64, 24
2, 134042, Control_c, 0, 64, 40
2, 134048, Note_on_c, 0, 62, 0
2, 134051, Control_c, 0, 64, 56
2, 134053, Note_on_c, 0, 56, 0
2, 134054, Note_on_c, 0, 65, 0
2, 134057, Note_on_c, 0, 67, 65
2, 134058, Note_on_c, 0, 59, 43
2, 134065, Control_c, 0, 64, 40
2, 134073, Note_on_c, 0, 67, 0
2, 134075, Note_on_c, 0, 59, 0
2, 134075, Control_c, 0, 64, 24
2, 134078, Note_on_c, 0, 56, 45
2, 134080, Note_on_c, 0, 62, 43
2, 134080, Note_on_c, 0, 65, 60
2, 134087, Note_on_c, 0, 62, 0
2, 134091, Note_on_c, 0, 65, 0
2, 134091, Control_c, 0, 64, 0
2, 134094, Note_on_c, 0, 56, 0
2, 134095, Note_on_c, 0, 67, 62
2, 134100, Note_on_c, 0, 59, 44
2, 134115, Note_on_c, 0, 67, 0
2, 134117, Note_on_c, 0, 56, 50
2, 134118, Note_on_c, 0, 59, 0
2, 134118, Note_on_c, 0, 62, 36
2, 134118, Note_on_c, 0, 65, 58
2, 134121, Control_c, 0, 64, 24
2, 134123, Note_on_c, 0, 62, 0
2, 134123, Control_c, 0, 64, 40
2, 134126, Note_on_c, 0, 65, 0
2, 134126, Control_c, 0, 64, 56
2, 134127, Note_on_c, 0, 56, 0
2, 134132, Control_c, 0, 64, 72
2, 134141, Control_c, 0, 64, 56
2, 134143, Control_c, 0, 64, 40
2, 134145, Control_c, 0, 64, 24
2, 134147, Control_c, 0, 64, 0
2, 134165, Note_on_c, 0, 77, 70
2, 134166, Note_on_c, 0, 74, 52
2, 134171, Control_c, 0, 64, 24
2, 134173, Control_c, 0, 64, 40
2, 134175, Note_on_c, 0, 77, 0
2, 134176, Note_on_c, 0, 74, 0
2, 134176, Control_c, 0, 64, 56
2, 134180, Note_on_c, 0, 79, 76
2, 134180, Note_on_c, 0, 71, 61
2, 134185, Control_c, 0, 64, 72
2, 134192, Note_on_c, 0, 71, 0
2, 134193, Note_on_c, 0, 79, 0
2, 134198, Note_on_c, 0, 68, 47
2, 134200, Note_on_c, 0, 77, 68
2, 134201, Note_on_c, 0, 74, 55
2, 134207, Note_on_c, 0, 74, 0
2, 134210, Note_on_c, 0, 68, 0
2, 134211, Note_on_c, 0, 77, 0
2, 134213, Control_c, 0, 64, 88
2, 134215, Note_on_c, 0, 79, 72
2, 134216, Note_on_c, 0, 71, 50
2, 134217, Control_c, 0, 64, 104
2, 134223, Control_c, 0, 64, 127
2, 134233, Note_on_c, 0, 79, 0
2, 134237, Note_on_c, 0, 71, 0
2, 134237, Note_on_c, 0, 68, 50
2, 134238, Note_on_c, 0, 77, 71
2, 134240, Note_on_c, 0, 74, 44
2, 134245, Note_on_c, 0, 74, 0
2, 134245, Note_on_c, 0, 68, 0
2, 134246, Note_on_c, 0, 77, 0
2, 134252, Control_c, 0, 64, 104
2, 134258, Control_c, 0, 64, 72
2, 134263, Control_c, 0, 64, 56
2, 134266, Control_c, 0, 64, 40
2, 134267, Control_c, 0, 64, 24
2, 134270, Control_c, 0, 64, 0
2, 134283, Note_on_c, 0, 89, 72
2, 134283, Note_on_c, 0, 80, 60
2, 134283, Note_on_c, 0, 86, 54
2, 134287, Control_c, 0, 64, 40
2, 134290, Note_on_c, 0, 86, 0
2, 134290, Control_c, 0, 64, 56
2, 134291, Control_c, 0, 64, 88
2, 134293, Control_c, 0, 64, 127
2, 134295, Note_on_c, 0, 80, 0
2, 134295, Note_on_c, 0, 89, 0
2, 134302, Note_on_c, 0, 91, 69
2, 134306, Note_on_c, 0, 83, 42
2, 134313, Note_on_c, 0, 83, 0
2, 134314, Note_on_c, 0, 91, 0
2, 134321, Note_on_c, 0, 89, 74
2, 134322, Note_on_c, 0, 80, 49
2, 134322, Note_on_c, 0, 86, 50
2, 134328, Note_on_c, 0, 86, 0
2, 134332, Note_on_c, 0, 89, 0
2, 134335, Note_on_c, 0, 80, 0
2, 134338, Note_on_c, 0, 91, 68
2, 134341, Note_on_c, 0, 83, 51
2, 134353, Note_on_c, 0, 91, 0
2, 134357, Note_on_c, 0, 83, 0
2, 134360, Note_on_c, 0, 89, 68
2, 134362, Note_on_c, 0, 86, 37
2, 134363, Note_on_c, 0, 80, 47
2, 134368, Note_on_c, 0, 80, 0
2, 134369, Note_on_c, 0, 86, 0
2, 134371, Note_on_c, 0, 89, 0
2, 134393, Control_c, 0, 64, 104
2, 134396, Control_c, 0, 64, 88
2, 134398, Control_c, 0, 64, 56
2, 134400, Control_c, 0, 64, 40
2, 134402, Control_c, 0, 64, 0
2, 134408, Note_on_c, 0, 74, 53
2, 134408, Note_on_c, 0, 77, 58
2, 134410, Note_on_c, 0, 68, 47
2, 134413, Control_c, 0, 64, 24
2, 134415, Note_on_c, 0, 74, 0
2, 134416, Control_c, 0, 64, 40
2, 134418, Control_c, 0, 64, 56
2, 134420, Note_on_c, 0, 77, 0
2, 134420, Control_c, 0, 64, 88
2, 134421, Note_on_c, 0, 68, 0
2, 134422, Control_c, 0, 64, 104
2, 134427, Note_on_c, 0, 71, 41
2, 134428, Note_on_c, 0, 79, 66
2, 134431, Control_c, 0, 64, 127
2, 134437, Note_on_c, 0, 71, 0
2, 134439, Note_on_c, 0, 79, 0
2, 134446, Note_on_c, 0, 68, 43
2, 134447, Note_on_c, 0, 77, 69
2, 134450, Note_on_c, 0, 74, 36
2, 134456, Note_on_c, 0, 74, 0
2, 134457, Note_on_c, 0, 77, 0
2, 134461, Note_on_c, 0, 68, 0
2, 134463, Note_on_c, 0, 79, 62
2, 134467, Note_on_c, 0, 71, 44
2, 134475, Note_on_c, 0, 71, 0
2, 134479, Note_on_c, 0, 79, 0
2, 134487, Note_on_c, 0, 77, 62
2, 134488, Note_on_c, 0, 68, 44
2, 134495, Note_on_c, 0, 68, 0
2, 134495, Note_on_c, 0, 77, 0
2, 134555, Note_on_c, 0, 65, 50
2, 134555, Note_on_c, 0, 56, 42
2, 134557, Note_on_c, 0, 62, 46
2, 134560, Control_c, 0, 64, 104
2, 134561, Control_c, 0, 64, 88
2, 134563, Control_c, 0, 64, 80
2, 134568, Control_c, 0, 64, 56
2, 134571, Control_c, 0, 64, 67
2, 134572, Control_c, 0, 64, 67
2, 134575, Control_c, 0, 64, 68
2, 134640, Note_on_c, 0, 56, 0
2, 134640, Note_on_c, 0, 65, 0
2, 134642, Note_on_c, 0, 62, 0
2, 134990, Note_on_c, 0, 57, 51
2, 135098, Control_c, 0, 64, 24
2, 135102, Control_c, 0, 64, 40
2, 135128, Control_c, 0, 64, 56
2, 135158, Note_on_c, 0, 58, 48
2, 135170, Note_on_c, 0, 57, 0
2, 135186, Control_c, 0, 64, 24
2, 135190, Control_c, 0, 64, 0
2, 135246, Control_c, 0, 64, 24
2, 135255, Control_c, 0, 64, 40
2, 135273, Control_c, 0, 64, 72
2, 135310, Note_on_c, 0, 59, 61
2, 135319, Note_on_c, 0, 58, 0
2, 135330, Control_c, 0, 64, 56
2, 135333, Control_c, 0, 64, 0
2, 135377, Control_c, 0, 64, 40
2, 135382, Control_c, 0, 64, 88
2, 135386, Control_c, 0, 64, 104
2, 135391, Control_c, 0, 64, 127
2, 135495, Note_on_c, 0, 59, 0
2, 135497, Note_on_c, 0, 60, 68
2, 135517, Control_c, 0, 64, 88
2, 135521, Control_c, 0, 64, 40
2, 135526, Control_c, 0, 64, 0
2, 135556, Control_c, 0, 64, 24
2, 135560, Control_c, 0, 64, 72
2, 135565, Control_c, 0, 64, 127
2, 135646, Note_on_c, 0, 61, 71
2, 135653, Note_on_c, 0, 60, 0
2, 135656, Control_c, 0, 64, 104
2, 135660, Control_c, 0, 64, 40
2, 135665, Control_c, 0, 64, 0
2, 135686, Control_c, 0, 64, 56
2, 135691, Control_c, 0, 64, 127
2, 135707, Note_on_c, 0, 61, 0
2, 135775, Note_on_c, 0, 61, 68
2, 135828, Note_on_c, 0, 61, 0
2, 135833, Note_on_c, 0, 66, 74
2, 135847, Control_c, 0, 64, 104
2, 135852, Control_c, 0, 64, 56
2, 135856, Control_c, 0, 64, 0
2, 135896, Control_c, 0, 64, 56
2, 135900, Control_c, 0, 64, 127
2, 135943, Note_on_c, 0, 45, 51
2, 135952, Control_c, 0, 67, 127
2, 135961, Note_on_c, 0, 45, 0
2, 135980, Note_on_c, 0, 52, 52
2, 136002, Note_on_c, 0, 52, 0
2, 136002, Note_on_c, 0, 56, 56
2, 136041, Note_on_c, 0, 62, 54
2, 136052, Note_on_c, 0, 56, 0
2, 136058, Note_on_c, 0, 62, 0
2, 136155, Note_on_c, 0, 66, 0
2, 136158, Note_on_c, 0, 60, 68
2, 136198, Note_on_c, 0, 60, 0
2, 136230, Note_on_c, 0, 60, 78
2, 136252, Control_c, 0, 64, 72
2, 136257, Control_c, 0, 64, 0
2, 136285, Control_c, 0, 64, 40
2, 136287, Control_c, 0, 64, 104
2, 136292, Control_c, 0, 64, 127
2, 136300, Note_on_c, 0, 60, 0
2, 136316, Note_on_c, 0, 45, 49
2, 136338, Note_on_c, 0, 52, 49
2, 136363, Note_on_c, 0, 57, 39
2, 136370, Note_on_c, 0, 61, 70
2, 136401, Control_c, 0, 64, 24
2, 136405, Control_c, 0, 64, 0
2, 136419, Note_on_c, 0, 45, 0
2, 136430, Note_on_c, 0, 52, 0
2, 136430, Note_on_c, 0, 57, 0
2, 136432, Control_c, 0, 64, 40
2, 136436, Control_c, 0, 64, 127
2, 136503, Note_on_c, 0, 61, 0
2, 136526, Note_on_c, 0, 65, 69
2, 136553, Control_c, 0, 64, 104
2, 136558, Control_c, 0, 64, 24
2, 136562, Control_c, 0, 64, 0
2, 136601, Control_c, 0, 64, 24
2, 136606, Control_c, 0, 64, 88
2, 136606, Control_c, 0, 67, 0
2, 136610, Control_c, 0, 64, 127
2, 136622, Note_on_c, 0, 65, 0
2, 136713, Note_on_c, 0, 65, 78
2, 136743, Note_on_c, 0, 65, 0
2, 136795, Note_on_c, 0, 65, 70
2, 136836, Control_c, 0, 64, 88
2, 136841, Control_c, 0, 64, 56
2, 136845, Control_c, 0, 64, 0
2, 136898, Control_c, 0, 64, 40
2, 136902, Control_c, 0, 64, 88
2, 136906, Control_c, 0, 64, 104
2, 136911, Control_c, 0, 64, 127
2, 137023, Note_on_c, 0, 65, 0
2, 137030, Note_on_c, 0, 64, 64
2, 137046, Control_c, 0, 64, 104
2, 137050, Control_c, 0, 64, 24
2, 137055, Control_c, 0, 64, 0
2, 137090, Control_c, 0, 64, 40
2, 137095, Control_c, 0, 64, 72
2, 137098, Control_c, 0, 64, 88
2, 137102, Control_c, 0, 64, 104
2, 137106, Control_c, 0, 64, 88
2, 137111, Control_c, 0, 64, 56
2, 137116, Control_c, 0, 64, 0
2, 137135, Note_on_c, 0, 63, 62
2, 137142, Note_on_c, 0, 64, 0
2, 137155, Control_c, 0, 64, 56
2, 137158, Control_c, 0, 64, 88
2, 137163, Control_c, 0, 64, 104
2, 137167, Control_c, 0, 64, 127
2, 137202, Note_on_c, 0, 63, 0
2, 137207, Note_on_c, 0, 64, 68
2, 137220, Control_c, 0, 64, 72
2, 137225, Control_c, 0, 64, 0
2, 137251, Control_c, 0, 64, 24
2, 137255, Control_c, 0, 64, 56
2, 137260, Note_on_c, 0, 68, 69
2, 137262, Note_on_c, 0, 64, 0
2, 137263, Control_c, 0, 64, 40
2, 137267, Control_c, 0, 64, 0
2, 137293, Control_c, 0, 64, 40
2, 137298, Control_c, 0, 64, 56
2, 137310, Note_on_c, 0, 69, 78
2, 137312, Control_c, 0, 64, 0
2, 137316, Note_on_c, 0, 68, 0
2, 137338, Control_c, 0, 64, 24
2, 137342, Control_c, 0, 64, 56
2, 137346, Control_c, 0, 64, 88
2, 137365, Control_c, 0, 64, 24
2, 137368, Note_on_c, 0, 69, 0
2, 137368, Control_c, 0, 64, 0
2, 137375, Note_on_c, 0, 72, 80
2, 137403, Control_c, 0, 64, 24
2, 137408, Control_c, 0, 64, 72
2, 137412, Control_c, 0, 64, 127
2, 137478, Note_on_c, 0, 72, 0
2, 137496, Note_on_c, 0, 73, 77
2, 137500, Control_c, 0, 64, 56
2, 137503, Control_c, 0, 64, 0
2, 137517, Control_c, 0, 64, 40
2, 137520, Control_c, 0, 64, 88
2, 137526, Control_c, 0, 64, 127
2, 137537, Note_on_c, 0, 73, 0
2, 137615, Note_on_c, 0, 73, 64
2, 137660, Note_on_c, 0, 73, 0
2, 137668, Note_on_c, 0, 78, 79
2, 137695, Control_c, 0, 64, 56
2, 137700, Control_c, 0, 64, 0
2, 137705, Control_c, 0, 67, 127
2, 137733, Control_c, 0, 64, 104
2, 137738, Control_c, 0, 64, 127
2, 137741, Note_on_c, 0, 57, 46
2, 137761, Note_on_c, 0, 57, 0
2, 137777, Note_on_c, 0, 64, 45
2, 137787, Note_on_c, 0, 68, 62
2, 137790, Note_on_c, 0, 64, 0
2, 137822, Note_on_c, 0, 68, 0
2, 137823, Note_on_c, 0, 74, 54
2, 137839, Note_on_c, 0, 74, 0
2, 137898, Note_on_c, 0, 72, 79
2, 137905, Note_on_c, 0, 78, 0
2, 137925, Note_on_c, 0, 72, 0
2, 137980, Note_on_c, 0, 72, 74
2, 138005, Control_c, 0, 64, 104
2, 138008, Control_c, 0, 64, 24
2, 138013, Control_c, 0, 64, 0
2, 138035, Control_c, 0, 64, 40
2, 138040, Control_c, 0, 64, 127
2, 138046, Note_on_c, 0, 57, 43
2, 138058, Note_on_c, 0, 72, 0
2, 138071, Note_on_c, 0, 64, 43
2, 138096, Note_on_c, 0, 69, 36
2, 138127, Note_on_c, 0, 73, 66
2, 138152, Control_c, 0, 64, 88
2, 138157, Control_c, 0, 64, 0
2, 138183, Note_on_c, 0, 57, 0
2, 138186, Note_on_c, 0, 64, 0
2, 138187, Control_c, 0, 64, 40
2, 138192, Note_on_c, 0, 69, 0
2, 138192, Control_c, 0, 64, 127
2, 138258, Note_on_c, 0, 73, 0
2, 138287, Note_on_c, 0, 77, 78
2, 138322, Control_c, 0, 64, 72
2, 138326, Control_c, 0, 64, 0
2, 138357, Control_c, 0, 64, 56
2, 138361, Control_c, 0, 64, 127
2, 138367, Note_on_c, 0, 77, 0
2, 138461, Note_on_c, 0, 77, 85
2, 138488, Note_on_c, 0, 77, 0
2, 138557, Note_on_c, 0, 77, 76
2, 138615, Control_c, 0, 64, 56
2, 138618, Control_c, 0, 64, 0
2, 138658, Control_c, 0, 64, 72
2, 138662, Control_c, 0, 64, 127
2, 138785, Note_on_c, 0, 77, 0
2, 138795, Note_on_c, 0, 76, 62
2, 138820, Control_c, 0, 64, 56
2, 138823, Control_c, 0, 64, 0
2, 138850, Control_c, 0, 64, 40
2, 138853, Control_c, 0, 64, 104
2, 138858, Control_c, 0, 64, 127
2, 138885, Control_c, 0, 64, 72
2, 138890, Control_c, 0, 64, 0
2, 138892, Note_on_c, 0, 76, 0
2, 138893, Note_on_c, 0, 75, 66
2, 138911, Control_c, 0, 64, 24
2, 138915, Control_c, 0, 64, 104
2, 138920, Control_c, 0, 64, 127
2, 138970, Note_on_c, 0, 75, 0
2, 138978, Note_on_c, 0, 76, 72
2, 139031, Note_on_c, 0, 76, 0
2, 139038, Note_on_c, 0, 80, 83
2, 139079, Note_on_c, 0, 80, 0
2, 139088, Note_on_c, 0, 81, 85
2, 139135, Note_on_c, 0, 81, 0
2, 139147, Note_on_c, 0, 84, 91
2, 139150, Control_c, 0, 64, 56
2, 139155, Control_c, 0, 64, 0
2, 139167, Control_c, 0, 64, 40
2, 139172, Control_c, 0, 64, 88
2, 139176, Control_c, 0, 64, 127
2, 139239, Note_on_c, 0, 84, 0
2, 139253, Note_on_c, 0, 85, 89
2, 139283, Note_on_c, 0, 85, 0
2, 139347, Note_on_c, 0, 85, 86
2, 139405, Note_on_c, 0, 90, 91
2, 139409, Note_on_c, 0, 85, 0
2, 139425, Control_c, 0, 64, 40
2, 139430, Control_c, 0, 64, 0
2, 139463, Control_c, 0, 64, 72
2, 139468, Control_c, 0, 64, 127
2, 139473, Note_on_c, 0, 68, 52
2, 139498, Note_on_c, 0, 68, 0
2, 139505, Note_on_c, 0, 72, 53
2, 139520, Note_on_c, 0, 72, 0
2, 139521, Note_on_c, 0, 75, 50
2, 139542, Note_on_c, 0, 78, 60
2, 139549, Note_on_c, 0, 75, 0
2, 139559, Note_on_c, 0, 78, 0
2, 139633, Note_on_c, 0, 84, 84
2, 139645, Note_on_c, 0, 90, 0
2, 139660, Note_on_c, 0, 84, 0
2, 139725, Note_on_c, 0, 84, 87
2, 139747, Note_on_c, 0, 84, 0
2, 139792, Note_on_c, 0, 84, 85
2, 139817, Note_on_c, 0, 84, 0
2, 139852, Note_on_c, 0, 84, 82
2, 139875, Note_on_c, 0, 84, 0
2, 139917, Note_on_c, 0, 84, 85
2, 139939, Note_on_c, 0, 84, 0
2, 139971, Note_on_c, 0, 84, 79
2, 139988, Note_on_c, 0, 84, 0
2, 140011, Note_on_c, 0, 84, 75
2, 140027, Note_on_c, 0, 84, 0
2, 140046, Note_on_c, 0, 84, 65
2, 140063, Note_on_c, 0, 84, 0
2, 140077, Note_on_c, 0, 84, 87
2, 140092, Note_on_c, 0, 84, 0
2, 140110, Note_on_c, 0, 84, 79
2, 140133, Note_on_c, 0, 84, 0
2, 140141, Note_on_c, 0, 83, 80
2, 140164, Note_on_c, 0, 83, 0
2, 140170, Note_on_c, 0, 84, 78
2, 140198, Note_on_c, 0, 84, 0
2, 140201, Note_on_c, 0, 86, 76
2, 140219, Note_on_c, 0, 86, 0
2, 140225, Note_on_c, 0, 84, 76
2, 140242, Note_on_c, 0, 84, 0
2, 140246, Note_on_c, 0, 86, 74
2, 140263, Note_on_c, 0, 84, 72
2, 140264, Note_on_c, 0, 86, 0
2, 140279, Note_on_c, 0, 84, 0
2, 140280, Note_on_c, 0, 86, 73
2, 140301, Note_on_c, 0, 86, 0
2, 140301, Note_on_c, 0, 84, 74
2, 140317, Note_on_c, 0, 84, 0
2, 140317, Note_on_c, 0, 86, 80
2, 140333, Note_on_c, 0, 84, 75
2, 140335, Note_on_c, 0, 86, 0
2, 140348, Note_on_c, 0, 84, 0
2, 140350, Note_on_c, 0, 86, 76
2, 140366, Note_on_c, 0, 86, 0
2, 140366, Note_on_c, 0, 84, 74
2, 140383, Note_on_c, 0, 84, 0
2, 140385, Note_on_c, 0, 86, 73
2, 140403, Note_on_c, 0, 86, 0
2, 140403, Note_on_c, 0, 84, 70
2, 140415, Note_on_c, 0, 84, 0
2, 140418, Note_on_c, 0, 86, 72
2, 140432, Note_on_c, 0, 84, 74
2, 140433, Note_on_c, 0, 86, 0
2, 140449, Note_on_c, 0, 84, 0
2, 140451, Note_on_c, 0, 86, 73
2, 140470, Note_on_c, 0, 84, 71
2, 140472, Note_on_c, 0, 86, 0
2, 140485, Note_on_c, 0, 84, 0
2, 140486, Note_on_c, 0, 86, 84
2, 140502, Note_on_c, 0, 86, 0
2, 140508, Note_on_c, 0, 84, 76
2, 140523, Note_on_c, 0, 84, 0
2, 140523, Note_on_c, 0, 86, 70
2, 140541, Note_on_c, 0, 86, 0
2, 140560, Note_on_c, 0, 86, 60
2, 140573, Note_on_c, 0, 84, 72
2, 140576, Note_on_c, 0, 86, 0
2, 140599, Note_on_c, 0, 84, 0
2, 140603, Note_on_c, 0, 83, 70
2, 140640, Note_on_c, 0, 83, 0
2, 140640, Note_on_c, 0, 84, 95
2, 140677, Note_on_c, 0, 87, 85
2, 140680, Note_on_c, 0, 84, 0
2, 140731, Note_on_c, 0, 83, 81
2, 140739, Note_on_c, 0, 87, 0
2, 140783, Note_on_c, 0, 83, 0
2, 140788, Note_on_c, 0, 84, 89
2, 140866, Note_on_c, 0, 84, 0
2, 140872, Note_on_c, 0, 90, 90
2, 140932, Note_on_c, 0, 67, 56
2, 140932, Control_c, 0, 64, 88
2, 140937, Control_c, 0, 64, 0
2, 140945, Note_on_c, 0, 67, 0
2, 140948, Note_on_c, 0, 72, 56
2, 140955, Control_c, 0, 64, 24
2, 140960, Control_c, 0, 64, 88
2, 140962, Note_on_c, 0, 75, 61
2, 140963, Control_c, 0, 64, 127
2, 140978, Note_on_c, 0, 72, 0
2, 140982, Note_on_c, 0, 79, 61
2, 140987, Note_on_c, 0, 75, 0
2, 140994, Note_on_c, 0, 79, 0
2, 141028, Note_on_c, 0, 91, 100
2, 141029, Note_on_c, 0, 90, 0
2, 141236, Note_on_c, 0, 84, 83
2, 141238, Note_on_c, 0, 91, 0
2, 141267, Note_on_c, 0, 84, 0
2, 141345, Note_on_c, 0, 84, 79
2, 141365, Note_on_c, 0, 84, 0
2, 141425, Note_on_c, 0, 84, 76
2, 141447, Note_on_c, 0, 84, 0
2, 141488, Note_on_c, 0, 84, 87
2, 141516, Note_on_c, 0, 84, 0
2, 141551, Note_on_c, 0, 84, 78
2, 141572, Note_on_c, 0, 84, 0
2, 141600, Note_on_c, 0, 84, 75
2, 141620, Note_on_c, 0, 84, 0
2, 141640, Note_on_c, 0, 84, 64
2, 141660, Note_on_c, 0, 84, 0
2, 141680, Note_on_c, 0, 84, 66
2, 141705, Note_on_c, 0, 84, 0
2, 141713, Note_on_c, 0, 83, 72
2, 141728, Note_on_c, 0, 83, 0
2, 141738, Note_on_c, 0, 84, 72
2, 141765, Note_on_c, 0, 84, 0
2, 141767, Note_on_c, 0, 86, 76
2, 141788, Note_on_c, 0, 86, 0
2, 141793, Note_on_c, 0, 84, 68
2, 141813, Note_on_c, 0, 84, 0
2, 141813, Note_on_c, 0, 86, 73
2, 141832, Note_on_c, 0, 84, 72
2, 141833, Note_on_c, 0, 86, 0
2, 141852, Note_on_c, 0, 84, 0
2, 141852, Note_on_c, 0, 86, 65
2, 141869, Note_on_c, 0, 86, 0
2, 141870, Note_on_c, 0, 84, 67
2, 141888, Note_on_c, 0, 84, 0
2, 141890, Note_on_c, 0, 86, 72
2, 141905, Note_on_c, 0, 84, 73
2, 141906, Note_on_c, 0, 86, 0
2, 141920, Note_on_c, 0, 84, 0
2, 141920, Note_on_c, 0, 86, 79
2, 141940, Note_on_c, 0, 86, 0
2, 141941, Note_on_c, 0, 84, 75
2, 141953, Note_on_c, 0, 86, 81
2, 141957, Note_on_c, 0, 84, 0
2, 141971, Note_on_c, 0, 86, 0
2, 141973, Note_on_c, 0, 84, 80
2, 141987, Note_on_c, 0, 86, 78
2, 141989, Note_on_c, 0, 84, 0
2, 142004, Note_on_c, 0, 86, 0
2, 142005, Note_on_c, 0, 84, 79
2, 142021, Note_on_c, 0, 84, 0
2, 142021, Note_on_c, 0, 86, 78
2, 142038, Note_on_c, 0, 86, 0
2, 142041, Note_on_c, 0, 84, 69
2, 142055, Note_on_c, 0, 86, 76
2, 142056, Note_on_c, 0, 84, 0
2, 142072, Note_on_c, 0, 86, 0
2, 142075, Note_on_c, 0, 84, 66
2, 142090, Note_on_c, 0, 84, 0
2, 142090, Note_on_c, 0, 86, 75
2, 142110, Note_on_c, 0, 86, 0
2, 142125, Note_on_c, 0, 86, 70
2, 142143, Note_on_c, 0, 84, 58
2, 142147, Note_on_c, 0, 86, 0
2, 142164, Note_on_c, 0, 84, 0
2, 142167, Note_on_c, 0, 83, 76
2, 142200, Note_on_c, 0, 83, 0
2, 142200, Note_on_c, 0, 84, 85
2, 142240, Note_on_c, 0, 84, 0
2, 142242, Note_on_c, 0, 87, 80
2, 142282, Note_on_c, 0, 87, 0
2, 142287, Note_on_c, 0, 83, 71
2, 142330, Note_on_c, 0, 83, 0
2, 142333, Note_on_c, 0, 84, 84
2, 142376, Note_on_c, 0, 84, 0
2, 142381, Note_on_c, 0, 90, 81
2, 142419, Note_on_c, 0, 90, 0
2, 142423, Note_on_c, 0, 91, 84
2, 142465, Note_on_c, 0, 90, 84
2, 142466, Note_on_c, 0, 91, 0
2, 142501, Note_on_c, 0, 90, 0
2, 142506, Note_on_c, 0, 91, 88
2, 142547, Note_on_c, 0, 90, 81
2, 142552, Note_on_c, 0, 91, 0
2, 142587, Note_on_c, 0, 90, 0
2, 142592, Note_on_c, 0, 91, 78
2, 142638, Note_on_c, 0, 91, 0
2, 142640, Note_on_c, 0, 90, 82
2, 142681, Note_on_c, 0, 90, 0
2, 142685, Note_on_c, 0, 91, 89
2, 142736, Note_on_c, 0, 90, 84
2, 142740, Note_on_c, 0, 91, 0
2, 142796, Note_on_c, 0, 91, 85
2, 142799, Note_on_c, 0, 90, 0
2, 142834, Note_on_c, 0, 91, 0
2, 142873, Note_on_c, 0, 91, 86
2, 143063, Control_c, 0, 64, 104
2, 143068, Control_c, 0, 64, 40
2, 143072, Control_c, 0, 64, 0
2, 143077, Note_on_c, 0, 65, 49
2, 143102, Control_c, 0, 64, 88
2, 143103, Note_on_c, 0, 68, 48
2, 143107, Control_c, 0, 64, 127
2, 143112, Note_on_c, 0, 65, 0
2, 143124, Note_on_c, 0, 91, 0
2, 143126, Note_on_c, 0, 72, 56
2, 143130, Note_on_c, 0, 68, 0
2, 143147, Note_on_c, 0, 75, 60
2, 143148, Note_on_c, 0, 72, 0
2, 143165, Note_on_c, 0, 75, 0
2, 143185, Note_on_c, 0, 80, 64
2, 143211, Note_on_c, 0, 84, 82
2, 143256, Note_on_c, 0, 92, 95
2, 143513, Note_on_c, 0, 84, 0
2, 143662, Note_on_c, 0, 80, 0
2, 143710, Note_on_c, 0, 80, 30
2, 143710, Note_on_c, 0, 83, 39
2, 143710, Note_on_c, 0, 75, 29
2, 143710, Note_on_c, 0, 68, 30
2, 143773, Control_c, 0, 64, 88
2, 143777, Control_c, 0, 64, 40
2, 143782, Control_c, 0, 64, 0
2, 143795, Control_c, 0, 64, 88
2, 143800, Control_c, 0, 64, 127
2, 143901, Note_on_c, 0, 75, 0
2, 144060, Note_on_c, 0, 74, 28
2, 144208, Note_on_c, 0, 80, 0
2, 144212, Note_on_c, 0, 92, 0
2, 144215, Note_on_c, 0, 83, 0
2, 144245, Note_on_c, 0, 68, 0
2, 144260, Note_on_c, 0, 74, 0
2, 144482, Control_c, 0, 64, 24
2, 144486, Control_c, 0, 64, 56
2, 144488, Control_c, 0, 64, 72
2, 144492, Control_c, 0, 64, 88
2, 144496, Control_c, 0, 64, 104
2, 144498, Control_c, 0, 64, 127
2, 144505, Note_on_c, 0, 41, 80
2, 144506, Note_on_c, 0, 29, 83
2, 144529, Note_on_c, 0, 29, 0
2, 144530, Note_on_c, 0, 41, 0
2, 144555, Note_on_c, 0, 56, 80
2, 144555, Note_on_c, 0, 47, 78
2, 144556, Note_on_c, 0, 50, 76
2, 144564, Note_on_c, 0, 50, 0
2, 144566, Note_on_c, 0, 47, 0
2, 144567, Note_on_c, 0, 56, 0
2, 144600, Note_on_c, 0, 56, 85
2, 144601, Note_on_c, 0, 41, 83
2, 144601, Note_on_c, 0, 29, 84
2, 144602, Note_on_c, 0, 50, 81
2, 144602, Note_on_c, 0, 47, 78
2, 144610, Note_on_c, 0, 47, 0
2, 144612, Note_on_c, 0, 50, 0
2, 144616, Note_on_c, 0, 41, 0
2, 144617, Note_on_c, 0, 29, 0
2, 144621, Note_on_c, 0, 56, 0
2, 144641, Control_c, 0, 64, 72
2, 144645, Control_c, 0, 64, 24
2, 144647, Note_on_c, 0, 41, 87
2, 144648, Note_on_c, 0, 29, 87
2, 144648, Control_c, 0, 64, 0
2, 144682, Control_c, 0, 64, 24
2, 144686, Control_c, 0, 64, 40
2, 144692, Note_on_c, 0, 57, 86
2, 144692, Note_on_c, 0, 51, 81
2, 144693, Note_on_c, 0, 48, 83
2, 144696, Control_c, 0, 64, 56
2, 144702, Control_c, 0, 64, 72
2, 144703, Note_on_c, 0, 48, 0
2, 144705, Note_on_c, 0, 51, 0
2, 144708, Note_on_c, 0, 57, 0
2, 144726, Control_c, 0, 64, 88
2, 144735, Note_on_c, 0, 57, 75
2, 144736, Note_on_c, 0, 51, 72
2, 144736, Note_on_c, 0, 48, 76
2, 144744, Note_on_c, 0, 48, 0
2, 144747, Note_on_c, 0, 51, 0
2, 144748, Note_on_c, 0, 29, 0
2, 144750, Note_on_c, 0, 57, 0
2, 144752, Note_on_c, 0, 41, 0
2, 144763, Control_c, 0, 64, 40
2, 144767, Control_c, 0, 64, 0
2, 144781, Note_on_c, 0, 41, 90
2, 144782, Note_on_c, 0, 29, 95
2, 144797, Control_c, 0, 64, 40
2, 144803, Control_c, 0, 64, 56
2, 144810, Note_on_c, 0, 29, 0
2, 144816, Note_on_c, 0, 41, 0
2, 144825, Note_on_c, 0, 59, 88
2, 144825, Note_on_c, 0, 50, 82
2, 144827, Note_on_c, 0, 56, 79
2, 144835, Note_on_c, 0, 56, 0
2, 144842, Note_on_c, 0, 50, 0
2, 144842, Note_on_c, 0, 59, 0
2, 144842, Control_c, 0, 64, 72
2, 144865, Control_c, 0, 64, 88
2, 144868, Note_on_c, 0, 59, 89
2, 144868, Note_on_c, 0, 40, 92
2, 144868, Note_on_c, 0, 50, 85
2, 144870, Note_on_c, 0, 28, 94
2, 144871, Note_on_c, 0, 56, 82
2, 144878, Note_on_c, 0, 56, 0
2, 144879, Note_on_c, 0, 50, 0
2, 144882, Note_on_c, 0, 28, 0
2, 144883, Note_on_c, 0, 59, 0
2, 144885, Note_on_c, 0, 40, 0
2, 144886, Control_c, 0, 64, 104
2, 144915, Note_on_c, 0, 45, 92
2, 144916, Control_c, 0, 64, 88
2, 144918, Note_on_c, 0, 33, 95
2, 144920, Control_c, 0, 64, 72
2, 144923, Control_c, 0, 64, 24
2, 144926, Control_c, 0, 64, 0
2, 144960, Control_c, 0, 64, 24
2, 144962, Note_on_c, 0, 61, 79
2, 144963, Note_on_c, 0, 52, 75
2, 144963, Note_on_c, 0, 57, 80
2, 144963, Control_c, 0, 64, 56
2, 144967, Note_on_c, 0, 45, 0
2, 144967, Control_c, 0, 64, 72
2, 144970, Control_c, 0, 64, 88
2, 144973, Note_on_c, 0, 33, 0
2, 144975, Control_c, 0, 64, 104
2, 144978, Note_on_c, 0, 52, 0
2, 144978, Note_on_c, 0, 61, 0
2, 144981, Note_on_c, 0, 57, 0
2, 144987, Control_c, 0, 64, 127
2, 145002, Note_on_c, 0, 61, 79
2, 145003, Note_on_c, 0, 52, 76
2, 145009, Note_on_c, 0, 52, 0
2, 145019, Note_on_c, 0, 61, 0
2, 145028, Control_c, 0, 64, 72
2, 145031, Control_c, 0, 64, 24
2, 145035, Control_c, 0, 64, 0
2, 145045, Note_on_c, 0, 41, 95
2, 145046, Note_on_c, 0, 29, 96
2, 145058, Control_c, 0, 64, 24
2, 145061, Control_c, 0, 64, 56
2, 145065, Control_c, 0, 64, 88
2, 145068, Control_c, 0, 64, 104
2, 145071, Note_on_c, 0, 29, 0
2, 145077, Note_on_c, 0, 41, 0
2, 145087, Note_on_c, 0, 68, 83
2, 145087, Note_on_c, 0, 56, 78
2, 145091, Note_on_c, 0, 59, 72
2, 145092, Note_on_c, 0, 62, 68
2, 145099, Note_on_c, 0, 62, 0
2, 145100, Note_on_c, 0, 56, 0
2, 145103, Note_on_c, 0, 59, 0
2, 145107, Note_on_c, 0, 68, 0
2, 145110, Control_c, 0, 64, 56
2, 145112, Control_c, 0, 64, 0
2, 145128, Note_on_c, 0, 68, 87
2, 145128, Note_on_c, 0, 56, 81
2, 145130, Note_on_c, 0, 62, 84
2, 145130, Note_on_c, 0, 59, 74
2, 145132, Note_on_c, 0, 41, 89
2, 145132, Control_c, 0, 64, 40
2, 145135, Note_on_c, 0, 29, 89
2, 145136, Control_c, 0, 64, 72
2, 145140, Control_c, 0, 64, 88
2, 145143, Control_c, 0, 64, 104
2, 145144, Note_on_c, 0, 56, 0
2, 145145, Note_on_c, 0, 59, 0
2, 145147, Note_on_c, 0, 41, 0
2, 145148, Note_on_c, 0, 62, 0
2, 145148, Note_on_c, 0, 29, 0
2, 145154, Note_on_c, 0, 68, 0
2, 145167, Control_c, 0, 64, 72
2, 145171, Control_c, 0, 64, 24
2, 145172, Note_on_c, 0, 41, 91
2, 145173, Note_on_c, 0, 29, 93
2, 145173, Control_c, 0, 64, 0
2, 145201, Control_c, 0, 64, 72
2, 145203, Control_c, 0, 64, 104
2, 145207, Control_c, 0, 64, 127
2, 145215, Note_on_c, 0, 69, 98
2, 145216, Note_on_c, 0, 63, 75
2, 145216, Note_on_c, 0, 57, 75
2, 145217, Note_on_c, 0, 60, 80
2, 145228, Note_on_c, 0, 60, 0
2, 145229, Note_on_c, 0, 63, 0
2, 145229, Note_on_c, 0, 57, 0
2, 145233, Note_on_c, 0, 69, 0
2, 145234, Note_on_c, 0, 29, 0
2, 145239, Note_on_c, 0, 41, 0
2, 145256, Note_on_c, 0, 63, 87
2, 145257, Note_on_c, 0, 57, 85
2, 145257, Note_on_c, 0, 69, 99
2, 145260, Note_on_c, 0, 60, 78
2, 145265, Note_on_c, 0, 60, 0
2, 145270, Note_on_c, 0, 57, 0
2, 145274, Note_on_c, 0, 63, 0
2, 145278, Note_on_c, 0, 69, 0
2, 145286, Control_c, 0, 64, 88
2, 145288, Control_c, 0, 64, 24
2, 145292, Control_c, 0, 64, 0
2, 145300, Note_on_c, 0, 41, 87
2, 145301, Note_on_c, 0, 29, 90
2, 145316, Control_c, 0, 64, 24
2, 145320, Control_c, 0, 64, 40
2, 145323, Control_c, 0, 64, 72
2, 145328, Control_c, 0, 64, 88
2, 145336, Note_on_c, 0, 29, 0
2, 145340, Note_on_c, 0, 62, 86
2, 145340, Note_on_c, 0, 71, 81
2, 145340, Note_on_c, 0, 59, 82
2, 145340, Note_on_c, 0, 68, 68
2, 145341, Note_on_c, 0, 41, 0
2, 145343, Control_c, 0, 64, 104
2, 145353, Note_on_c, 0, 59, 0
2, 145355, Note_on_c, 0, 62, 0
2, 145355, Note_on_c, 0, 71, 0
2, 145358, Note_on_c, 0, 68, 0
2, 145380, Note_on_c, 0, 68, 81
2, 145380, Note_on_c, 0, 40, 89
2, 145380, Note_on_c, 0, 71, 92
2, 145380, Note_on_c, 0, 62, 91
2, 145381, Note_on_c, 0, 59, 86
2, 145381, Note_on_c, 0, 28, 93
2, 145387, Control_c, 0, 64, 127
2, 145392, Note_on_c, 0, 59, 0
2, 145393, Note_on_c, 0, 62, 0
2, 145394, Note_on_c, 0, 28, 0
2, 145396, Note_on_c, 0, 40, 0
2, 145400, Note_on_c, 0, 71, 0
2, 145402, Note_on_c, 0, 68, 0
2, 145425, Control_c, 0, 64, 104
2, 145426, Note_on_c, 0, 45, 100
2, 145427, Note_on_c, 0, 33, 99
2, 145427, Control_c, 0, 64, 72
2, 145428, Control_c, 0, 64, 0
2, 145451, Control_c, 0, 64, 24
2, 145455, Control_c, 0, 64, 72
2, 145458, Control_c, 0, 64, 88
2, 145461, Control_c, 0, 64, 104
2, 145462, Note_on_c, 0, 73, 86
2, 145462, Note_on_c, 0, 61, 83
2, 145465, Control_c, 0, 64, 127
2, 145466, Note_on_c, 0, 64, 79
2, 145467, Note_on_c, 0, 69, 69
2, 145471, Note_on_c, 0, 45, 0
2, 145477, Note_on_c, 0, 61, 0
2, 145477, Note_on_c, 0, 33, 0
2, 145481, Note_on_c, 0, 64, 0
2, 145482, Note_on_c, 0, 73, 0
2, 145485, Note_on_c, 0, 69, 0
2, 145502, Note_on_c, 0, 73, 90
2, 145502, Note_on_c, 0, 61, 80
2, 145510, Note_on_c, 0, 61, 0
2, 145519, Note_on_c, 0, 73, 0
2, 145532, Control_c, 0, 64, 104
2, 145536, Control_c, 0, 64, 56
2, 145540, Control_c, 0, 64, 0
2, 145545, Note_on_c, 0, 41, 106
2, 145545, Note_on_c, 0, 29, 104
2, 145562, Control_c, 0, 64, 56
2, 145566, Control_c, 0, 64, 104
2, 145570, Control_c, 0, 64, 127
2, 145573, Note_on_c, 0, 29, 0
2, 145578, Note_on_c, 0, 41, 0
2, 145586, Note_on_c, 0, 80, 95
2, 145586, Note_on_c, 0, 68, 87
2, 145587, Note_on_c, 0, 71, 80
2, 145588, Note_on_c, 0, 74, 81
2, 145596, Note_on_c, 0, 74, 0
2, 145599, Note_on_c, 0, 68, 0
2, 145603, Note_on_c, 0, 71, 0
2, 145606, Note_on_c, 0, 80, 0
2, 145623, Note_on_c, 0, 80, 97
2, 145623, Note_on_c, 0, 68, 88
2, 145626, Note_on_c, 0, 74, 88
2, 145626, Note_on_c, 0, 41, 90
2, 145626, Note_on_c, 0, 71, 82
2, 145628, Note_on_c, 0, 29, 98
2, 145632, Note_on_c, 0, 71, 0
2, 145639, Note_on_c, 0, 68, 0
2, 145641, Note_on_c, 0, 74, 0
2, 145642, Note_on_c, 0, 41, 0
2, 145643, Note_on_c, 0, 29, 0
2, 145648, Note_on_c, 0, 80, 0
2, 145651, Control_c, 0, 64, 88
2, 145655, Control_c, 0, 64, 40
2, 145657, Control_c, 0, 64, 0
2, 145666, Note_on_c, 0, 41, 95
2, 145667, Note_on_c, 0, 29, 98
2, 145675, Control_c, 0, 64, 24
2, 145678, Control_c, 0, 64, 56
2, 145682, Control_c, 0, 64, 88
2, 145685, Control_c, 0, 64, 127
2, 145703, Note_on_c, 0, 69, 87
2, 145705, Note_on_c, 0, 81, 97
2, 145705, Note_on_c, 0, 75, 82
2, 145706, Note_on_c, 0, 72, 87
2, 145718, Note_on_c, 0, 69, 0
2, 145719, Note_on_c, 0, 72, 0
2, 145720, Note_on_c, 0, 75, 0
2, 145722, Note_on_c, 0, 81, 0
2, 145728, Note_on_c, 0, 29, 0
2, 145734, Note_on_c, 0, 41, 0
2, 145741, Note_on_c, 0, 75, 94
2, 145742, Note_on_c, 0, 72, 94
2, 145742, Note_on_c, 0, 81, 99
2, 145743, Note_on_c, 0, 69, 96
2, 145757, Note_on_c, 0, 72, 0
2, 145758, Note_on_c, 0, 69, 0
2, 145763, Note_on_c, 0, 75, 0
2, 145767, Note_on_c, 0, 81, 0
2, 145782, Note_on_c, 0, 41, 99
2, 145783, Note_on_c, 0, 29, 99
2, 145799, Note_on_c, 0, 29, 0
2, 145805, Note_on_c, 0, 41, 0
2, 145821, Note_on_c, 0, 83, 103
2, 145821, Note_on_c, 0, 74, 97
2, 145822, Note_on_c, 0, 71, 93
2, 145822, Note_on_c, 0, 80, 81
2, 145833, Note_on_c, 0, 71, 0
2, 145837, Note_on_c, 0, 74, 0
2, 145839, Note_on_c, 0, 83, 0
2, 145839, Note_on_c, 0, 80, 0
2, 145860, Note_on_c, 0, 40, 100
2, 145861, Note_on_c, 0, 71, 100
2, 145861, Note_on_c, 0, 74, 94
2, 145861, Note_on_c, 0, 83, 93
2, 145861, Note_on_c, 0, 80, 83
2, 145861, Note_on_c, 0, 28, 100
2, 145862, Note_on_c, 0, 84, 103
2, 145868, Note_on_c, 0, 84, 0
2, 145869, Note_on_c, 0, 28, 0
2, 145871, Note_on_c, 0, 74, 0
2, 145872, Note_on_c, 0, 71, 0
2, 145873, Note_on_c, 0, 40, 0
2, 145877, Note_on_c, 0, 80, 0
2, 145881, Note_on_c, 0, 83, 0
2, 145898, Control_c, 0, 64, 88
2, 145902, Control_c, 0, 64, 56
2, 145903, Note_on_c, 0, 45, 107
2, 145903, Note_on_c, 0, 33, 107
2, 145905, Control_c, 0, 64, 0
2, 145932, Control_c, 0, 64, 40
2, 145936, Control_c, 0, 64, 88
2, 145938, Note_on_c, 0, 33, 0
2, 145940, Control_c, 0, 64, 127
2, 145943, Note_on_c, 0, 45, 0
2, 145943, Note_on_c, 0, 85, 92
2, 145943, Note_on_c, 0, 73, 95
2, 145947, Note_on_c, 0, 76, 87
2, 145947, Note_on_c, 0, 81, 76
2, 145958, Note_on_c, 0, 73, 0
2, 145960, Note_on_c, 0, 76, 0
2, 145964, Note_on_c, 0, 85, 0
2, 145967, Note_on_c, 0, 81, 0
2, 145982, Note_on_c, 0, 85, 94
2, 145983, Note_on_c, 0, 73, 94
2, 145983, Note_on_c, 0, 76, 89
2, 145985, Note_on_c, 0, 81, 64
2, 145993, Note_on_c, 0, 81, 0
2, 145996, Note_on_c, 0, 76, 0
2, 145999, Note_on_c, 0, 85, 0
2, 146001, Note_on_c, 0, 73, 0
2, 146001, Control_c, 0, 64, 104
2, 146003, Control_c, 0, 64, 56
2, 146007, Control_c, 0, 64, 0
2, 146025, Note_on_c, 0, 53, 107
2, 146026, Note_on_c, 0, 41, 107
2, 146028, Note_on_c, 0, 73, 40
2, 146034, Note_on_c, 0, 73, 0
2, 146035, Control_c, 0, 64, 56
2, 146037, Control_c, 0, 64, 127
2, 146058, Note_on_c, 0, 41, 0
2, 146060, Note_on_c, 0, 80, 98
2, 146060, Note_on_c, 0, 68, 91
2, 146062, Note_on_c, 0, 71, 84
2, 146062, Note_on_c, 0, 74, 84
2, 146073, Note_on_c, 0, 68, 0
2, 146073, Note_on_c, 0, 53, 0
2, 146078, Note_on_c, 0, 80, 0
2, 146078, Note_on_c, 0, 71, 0
2, 146078, Note_on_c, 0, 74, 0
2, 146098, Note_on_c, 0, 80, 98
2, 146098, Note_on_c, 0, 68, 93
2, 146100, Note_on_c, 0, 74, 92
2, 146100, Note_on_c, 0, 71, 80
2, 146103, Note_on_c, 0, 53, 97
2, 146103, Note_on_c, 0, 41, 98
2, 146112, Note_on_c, 0, 71, 0
2, 146115, Note_on_c, 0, 68, 0
2, 146116, Note_on_c, 0, 74, 0
2, 146118, Note_on_c, 0, 41, 0
2, 146118, Note_on_c, 0, 53, 0
2, 146120, Note_on_c, 0, 80, 0
2, 146126, Control_c, 0, 64, 104
2, 146128, Control_c, 0, 64, 56
2, 146132, Control_c, 0, 64, 0
2, 146140, Note_on_c, 0, 53, 107
2, 146141, Note_on_c, 0, 41, 107
2, 146156, Control_c, 0, 64, 24
2, 146160, Control_c, 0, 64, 72
2, 146163, Control_c, 0, 64, 104
2, 146167, Control_c, 0, 64, 127
2, 146178, Note_on_c, 0, 75, 87
2, 146178, Note_on_c, 0, 81, 94
2, 146178, Note_on_c, 0, 69, 87
2, 146180, Note_on_c, 0, 72, 86
2, 146190, Note_on_c, 0, 69, 0
2, 146191, Note_on_c, 0, 81, 0
2, 146192, Note_on_c, 0, 72, 0
2, 146193, Note_on_c, 0, 75, 0
2, 146208, Note_on_c, 0, 41, 0
2, 146213, Note_on_c, 0, 75, 90
2, 146215, Note_on_c, 0, 81, 99
2, 146215, Note_on_c, 0, 69, 93
2, 146217, Note_on_c, 0, 72, 82
2, 146222, Note_on_c, 0, 72, 0
2, 146225, Note_on_c, 0, 53, 0
2, 146227, Note_on_c, 0, 69, 0
2, 146231, Note_on_c, 0, 75, 0
2, 146235, Control_c, 0, 64, 88
2, 146236, Note_on_c, 0, 81, 0
2, 146238, Control_c, 0, 64, 40
2, 146241, Control_c, 0, 64, 0
2, 146255, Note_on_c, 0, 53, 104
2, 146256, Note_on_c, 0, 41, 107
2, 146258, Control_c, 0, 64, 40
2, 146261, Control_c, 0, 64, 72
2, 146265, Control_c, 0, 64, 104
2, 146274, Note_on_c, 0, 41, 0
2, 146278, Control_c, 0, 64, 127
2, 146288, Note_on_c, 0, 53, 0
2, 146291, Note_on_c, 0, 83, 95
2, 146292, Note_on_c, 0, 80, 81
2, 146292, Note_on_c, 0, 74, 92
2, 146292, Note_on_c, 0, 71, 87
2, 146305, Note_on_c, 0, 71, 0
2, 146306, Control_c, 0, 64, 88
2, 146309, Note_on_c, 0, 83, 0
2, 146310, Note_on_c, 0, 74, 0
2, 146310, Control_c, 0, 64, 72
2, 146312, Note_on_c, 0, 80, 0
2, 146312, Control_c, 0, 64, 56
2, 146322, Control_c, 0, 64, 72
2, 146327, Note_on_c, 0, 52, 97
2, 146327, Note_on_c, 0, 40, 99
2, 146328, Note_on_c, 0, 83, 94
2, 146328, Note_on_c, 0, 74, 74
2, 146330, Note_on_c, 0, 71, 82
2, 146330, Note_on_c, 0, 80, 60
2, 146330, Control_c, 0, 64, 88
2, 146332, Control_c, 0, 64, 104
2, 146334, Note_on_c, 0, 74, 0
2, 146334, Note_on_c, 0, 40, 0
2, 146335, Note_on_c, 0, 80, 0
2, 146336, Note_on_c, 0, 71, 0
2, 146339, Note_on_c, 0, 52, 0
2, 146340, Note_on_c, 0, 83, 0
2, 146360, Control_c, 0, 64, 88
2, 146363, Control_c, 0, 64, 72
2, 146366, Control_c, 0, 64, 40
2, 146370, Control_c, 0, 64, 0
2, 146381, Note_on_c, 0, 85, 107
2, 146381, Note_on_c, 0, 73, 106
2, 146381, Note_on_c, 0, 81, 99
2, 146382, Note_on_c, 0, 57, 107
2, 146382, Note_on_c, 0, 45, 107
2, 146391, Note_on_c, 0, 73, 0
2, 146394, Note_on_c, 0, 45, 0
2, 146396, Note_on_c, 0, 81, 0
2, 146397, Control_c, 0, 64, 56
2, 146399, Note_on_c, 0, 85, 0
2, 146399, Note_on_c, 0, 57, 0
2, 146401, Control_c, 0, 64, 127
2, 146437, Control_c, 0, 64, 104
2, 146441, Control_c, 0, 64, 72
2, 146445, Control_c, 0, 64, 24
2, 146447, Control_c, 0, 64, 0
2, 146475, Note_on_c, 0, 96, 107
2, 146475, Note_on_c, 0, 84, 103
2, 146476, Note_on_c, 0, 92, 94
2, 146476, Note_on_c, 0, 56, 83
2, 146477, Note_on_c, 0, 64, 95
2, 146477, Note_on_c, 0, 52, 81
2, 146484, Note_on_c, 0, 92, 0
2, 146485, Note_on_c, 0, 96, 0
2, 146485, Control_c, 0, 64, 88
2, 146487, Note_on_c, 0, 56, 0
2, 146487, Note_on_c, 0, 84, 0
2, 146487, Note_on_c, 0, 52, 0
2, 146488, Note_on_c, 0, 64, 0
2, 146488, Control_c, 0, 64, 127
2, 146493, Note_on_c, 0, 96, 104
2, 146495, Note_on_c, 0, 84, 107
2, 146495, Note_on_c, 0, 92, 92
2, 146496, Note_on_c, 0, 56, 78
2, 146497, Note_on_c, 0, 64, 90
2, 146500, Note_on_c, 0, 52, 80
2, 146506, Note_on_c, 0, 52, 0
2, 146508, Note_on_c, 0, 84, 0
2, 146511, Note_on_c, 0, 56, 0
2, 146511, Note_on_c, 0, 96, 0
2, 146512, Note_on_c, 0, 64, 0
2, 146513, Note_on_c, 0, 92, 0
2, 146533, Control_c, 0, 64, 72
2, 146536, Control_c, 0, 64, 40
2, 146540, Control_c, 0, 64, 0
2, 146567, Note_on_c, 0, 85, 98
2, 146567, Note_on_c, 0, 97, 97
2, 146568, Note_on_c, 0, 93, 96
2, 146568, Note_on_c, 0, 69, 89
2, 146568, Note_on_c, 0, 61, 73
2, 146570, Note_on_c, 0, 57, 67
2, 146574, Note_on_c, 0, 93, 0
2, 146575, Note_on_c, 0, 97, 0
2, 146577, Note_on_c, 0, 85, 0
2, 146577, Note_on_c, 0, 57, 0
2, 146579, Note_on_c, 0, 69, 0
2, 146580, Note_on_c, 0, 61, 0
2, 146580, Control_c, 0, 64, 56
2, 146583, Control_c, 0, 64, 127
2, 146588, Note_on_c, 0, 97, 95
2, 146588, Note_on_c, 0, 85, 87
2, 146590, Note_on_c, 0, 93, 100
2, 146591, Note_on_c, 0, 69, 92
2, 146591, Note_on_c, 0, 61, 75
2, 146592, Note_on_c, 0, 57, 64
2, 146599, Note_on_c, 0, 85, 0
2, 146602, Note_on_c, 0, 93, 0
2, 146603, Note_on_c, 0, 69, 0
2, 146603, Note_on_c, 0, 61, 0
2, 146607, Note_on_c, 0, 57, 0
2, 146608, Note_on_c, 0, 97, 0
2, 146627, Control_c, 0, 64, 88
2, 146631, Control_c, 0, 64, 56
2, 146635, Note_on_c, 0, 94, 46
2, 146635, Control_c, 0, 64, 24
2, 146638, Control_c, 0, 64, 0
2, 146641, Note_on_c, 0, 94, 0
2, 146670, Note_on_c, 0, 101, 106
2, 146670, Note_on_c, 0, 93, 100
2, 146670, Note_on_c, 0, 89, 97
2, 146670, Note_on_c, 0, 97, 87
2, 146671, Note_on_c, 0, 53, 86
2, 146671, Note_on_c, 0, 65, 90
2, 146671, Note_on_c, 0, 61, 81
2, 146672, Note_on_c, 0, 57, 83
2, 146679, Note_on_c, 0, 57, 0
2, 146680, Note_on_c, 0, 97, 0
2, 146681, Note_on_c, 0, 101, 0
2, 146681, Note_on_c, 0, 89, 0
2, 146681, Note_on_c, 0, 93, 0
2, 146682, Note_on_c, 0, 61, 0
2, 146682, Note_on_c, 0, 65, 0
2, 146683, Note_on_c, 0, 53, 0
2, 146685, Control_c, 0, 64, 72
2, 146688, Control_c, 0, 64, 127
2, 146691, Note_on_c, 0, 101, 100
2, 146691, Note_on_c, 0, 89, 107
2, 146692, Note_on_c, 0, 93, 98
2, 146692, Note_on_c, 0, 97, 83
2, 146693, Note_on_c, 0, 65, 84
2, 146693, Note_on_c, 0, 61, 70
2, 146695, Note_on_c, 0, 53, 92
2, 146695, Note_on_c, 0, 57, 76
2, 146703, Note_on_c, 0, 61, 0
2, 146705, Note_on_c, 0, 65, 0
2, 146707, Note_on_c, 0, 57, 0
2, 146708, Note_on_c, 0, 97, 0
2, 146710, Note_on_c, 0, 93, 0
2, 146710, Note_on_c, 0, 53, 0
2, 146711, Note_on_c, 0, 101, 0
2, 146713, Note_on_c, 0, 89, 0
2, 146761, Note_on_c, 0, 57, 90
2, 146762, Note_on_c, 0, 52, 84
2, 146762, Note_on_c, 0, 49, 72
2, 146763, Note_on_c, 0, 100, 99
2, 146763, Note_on_c, 0, 97, 85
2, 146763, Note_on_c, 0, 45, 80
2, 146765, Note_on_c, 0, 93, 86
2, 146765, Note_on_c, 0, 88, 87
2, 146768, Note_on_c, 0, 97, 0
2, 146769, Note_on_c, 0, 52, 0
2, 146769, Note_on_c, 0, 45, 0
2, 146770, Note_on_c, 0, 93, 0
2, 146772, Note_on_c, 0, 88, 0
2, 146772, Note_on_c, 0, 49, 0
2, 146773, Note_on_c, 0, 57, 0
2, 146773, Note_on_c, 0, 100, 0
2, 146773, Control_c, 0, 64, 88
2, 146777, Control_c, 0, 64, 24
2, 146781, Control_c, 0, 64, 0
2, 146783, Note_on_c, 0, 100, 107
2, 146785, Note_on_c, 0, 88, 92
2, 146785, Note_on_c, 0, 93, 91
2, 146785, Note_on_c, 0, 97, 91
2, 146787, Note_on_c, 0, 49, 72
2, 146787, Note_on_c, 0, 52, 82
2, 146787, Note_on_c, 0, 45, 74
2, 146787, Note_on_c, 0, 57, 78
2, 146794, Note_on_c, 0, 45, 0
2, 146798, Note_on_c, 0, 49, 0
2, 146800, Note_on_c, 0, 97, 0
2, 146800, Note_on_c, 0, 100, 0
2, 146800, Note_on_c, 0, 52, 0
2, 146801, Note_on_c, 0, 93, 0
2, 146801, Control_c, 0, 64, 88
2, 146803, Note_on_c, 0, 57, 0
2, 146803, Control_c, 0, 64, 127
2, 146805, Note_on_c, 0, 88, 0
2, 146827, Control_c, 0, 64, 104
2, 146831, Control_c, 0, 64, 72
2, 146835, Control_c, 0, 64, 0
2, 146857, Note_on_c, 0, 92, 90
2, 146857, Note_on_c, 0, 64, 88
2, 146857, Note_on_c, 0, 96, 94
2, 146857, Note_on_c, 0, 84, 92
2, 146857, Note_on_c, 0, 56, 72
2, 146858, Note_on_c, 0, 52, 76
2, 146861, Control_c, 0, 64, 56
2, 146863, Note_on_c, 0, 56, 0
2, 146863, Note_on_c, 0, 84, 0
2, 146863, Note_on_c, 0, 96, 0
2, 146863, Note_on_c, 0, 92, 0
2, 146863, Note_on_c, 0, 64, 0
2, 146864, Note_on_c, 0, 52, 0
2, 146865, Control_c, 0, 64, 127
2, 146875, Note_on_c, 0, 96, 98
2, 146875, Note_on_c, 0, 92, 95
2, 146875, Note_on_c, 0, 84, 100
2, 146875, Control_c, 0, 64, 104
2, 146876, Note_on_c, 0, 52, 74
2, 146878, Note_on_c, 0, 56, 72
2, 146878, Note_on_c, 0, 64, 81
2, 146878, Control_c, 0, 64, 88
2, 146882, Control_c, 0, 64, 127
2, 146888, Note_on_c, 0, 52, 0
2, 146890, Note_on_c, 0, 56, 0
2, 146890, Note_on_c, 0, 84, 0
2, 146892, Note_on_c, 0, 96, 0
2, 146893, Note_on_c, 0, 64, 0
2, 146897, Note_on_c, 0, 92, 0
2, 146923, Control_c, 0, 64, 104
2, 146926, Control_c, 0, 64, 56
2, 146930, Control_c, 0, 64, 24
2, 146933, Control_c, 0, 64, 0
2, 146945, Note_on_c, 0, 97, 92
2, 146945, Note_on_c, 0, 85, 90
2, 146946, Note_on_c, 0, 61, 73
2, 146946, Note_on_c, 0, 93, 90
2, 146947, Note_on_c, 0, 69, 83
2, 146948, Note_on_c, 0, 57, 66
2, 146952, Note_on_c, 0, 93, 0
2, 146952, Note_on_c, 0, 97, 0
2, 146953, Note_on_c, 0, 69, 0
2, 146953, Note_on_c, 0, 85, 0
2, 146954, Note_on_c, 0, 57, 0
2, 146958, Note_on_c, 0, 61, 0
2, 146961, Note_on_c, 0, 97, 107
2, 146962, Note_on_c, 0, 85, 103
2, 146962, Note_on_c, 0, 93, 94
2, 146965, Note_on_c, 0, 69, 92
2, 146967, Note_on_c, 0, 61, 75
2, 146967, Note_on_c, 0, 57, 74
2, 146967, Control_c, 0, 64, 72
2, 146970, Control_c, 0, 64, 127
2, 146973, Note_on_c, 0, 57, 0
2, 146973, Note_on_c, 0, 85, 0
2, 146978, Note_on_c, 0, 69, 0
2, 146978, Note_on_c, 0, 61, 0
2, 146978, Note_on_c, 0, 93, 0
2, 146983, Note_on_c, 0, 97, 0
2, 147001, Control_c, 0, 64, 88
2, 147005, Control_c, 0, 64, 56
2, 147006, Note_on_c, 0, 92, 54
2, 147007, Control_c, 0, 64, 24
2, 147011, Control_c, 0, 64, 0
2, 147012, Note_on_c, 0, 92, 0
2, 147033, Note_on_c, 0, 65, 90
2, 147033, Note_on_c, 0, 97, 83
2, 147033, Note_on_c, 0, 61, 79
2, 147033, Note_on_c, 0, 101, 96
2, 147035, Note_on_c, 0, 93, 86
2, 147035, Note_on_c, 0, 89, 81
2, 147035, Note_on_c, 0, 53, 77
2, 147035, Note_on_c, 0, 57, 72
2, 147041, Note_on_c, 0, 53, 0
2, 147041, Note_on_c, 0, 89, 0
2, 147041, Note_on_c, 0, 93, 0
2, 147043, Note_on_c, 0, 57, 0
2, 147043, Note_on_c, 0, 97, 0
2, 147044, Note_on_c, 0, 101, 0
2, 147044, Note_on_c, 0, 61, 0
2, 147045, Note_on_c, 0, 65, 0
2, 147045, Control_c, 0, 64, 40
2, 147048, Control_c, 0, 64, 127
2, 147052, Note_on_c, 0, 97, 94
2, 147052, Note_on_c, 0, 89, 102
2, 147052, Note_on_c, 0, 101, 107
2, 147052, Note_on_c, 0, 93, 93
2, 147055, Note_on_c, 0, 65, 84
2, 147056, Note_on_c, 0, 61, 62
2, 147056, Note_on_c, 0, 53, 71
2, 147057, Note_on_c, 0, 57, 68
2, 147067, Note_on_c, 0, 61, 0
2, 147068, Note_on_c, 0, 57, 0
2, 147068, Note_on_c, 0, 65, 0
2, 147069, Note_on_c, 0, 101, 0
2, 147072, Note_on_c, 0, 93, 0
2, 147072, Note_on_c, 0, 97, 0
2, 147072, Note_on_c, 0, 53, 0
2, 147074, Note_on_c, 0, 89, 0
2, 147088, Control_c, 0, 64, 72
2, 147092, Control_c, 0, 64, 56
2, 147096, Control_c, 0, 64, 24
2, 147098, Control_c, 0, 64, 0
2, 147123, Note_on_c, 0, 57, 84
2, 147123, Note_on_c, 0, 52, 84
2, 147125, Note_on_c, 0, 49, 74
2, 147125, Note_on_c, 0, 100, 97
2, 147125, Note_on_c, 0, 97, 82
2, 147126, Note_on_c, 0, 45, 80
2, 147127, Note_on_c, 0, 88, 82
2, 147127, Note_on_c, 0, 93, 80
2, 147131, Note_on_c, 0, 97, 0
2, 147131, Note_on_c, 0, 52, 0
2, 147131, Note_on_c, 0, 57, 0
2, 147132, Note_on_c, 0, 93, 0
2, 147132, Note_on_c, 0, 100, 0
2, 147132, Note_on_c, 0, 45, 0
2, 147133, Note_on_c, 0, 88, 0
2, 147133, Note_on_c, 0, 49, 0
2, 147142, Note_on_c, 0, 88, 96
2, 147143, Note_on_c, 0, 100, 107
2, 147143, Note_on_c, 0, 93, 84
2, 147143, Note_on_c, 0, 97, 77
2, 147145, Note_on_c, 0, 45, 76
2, 147146, Note_on_c, 0, 49, 86
2, 147146, Note_on_c, 0, 52, 84
2, 147146, Note_on_c, 0, 57, 74
2, 147147, Control_c, 0, 64, 56
2, 147150, Control_c, 0, 64, 127
2, 147155, Note_on_c, 0, 45, 0
2, 147157, Note_on_c, 0, 49, 0
2, 147159, Note_on_c, 0, 97, 0
2, 147159, Note_on_c, 0, 93, 0
2, 147159, Note_on_c, 0, 52, 0
2, 147160, Note_on_c, 0, 88, 0
2, 147163, Note_on_c, 0, 100, 0
2, 147163, Note_on_c, 0, 57, 0
2, 147183, Control_c, 0, 64, 104
2, 147185, Note_on_c, 0, 56, 43
2, 147187, Control_c, 0, 64, 88
2, 147191, Note_on_c, 0, 56, 0
2, 147191, Control_c, 0, 64, 72
2, 147193, Control_c, 0, 64, 56
2, 147197, Control_c, 0, 64, 40
2, 147201, Control_c, 0, 64, 24
2, 147207, Control_c, 0, 64, 0
2, 147218, Note_on_c, 0, 101, 94
2, 147218, Note_on_c, 0, 89, 90
2, 147218, Note_on_c, 0, 97, 81
2, 147218, Note_on_c, 0, 93, 91
2, 147220, Note_on_c, 0, 65, 88
2, 147220, Note_on_c, 0, 61, 84
2, 147220, Note_on_c, 0, 53, 78
2, 147221, Note_on_c, 0, 57, 70
2, 147224, Note_on_c, 0, 93, 0
2, 147225, Note_on_c, 0, 97, 0
2, 147226, Note_on_c, 0, 89, 0
2, 147228, Note_on_c, 0, 57, 0
2, 147228, Note_on_c, 0, 65, 0
2, 147228, Note_on_c, 0, 53, 0
2, 147229, Note_on_c, 0, 101, 0
2, 147230, Note_on_c, 0, 61, 0
2, 147236, Note_on_c, 0, 89, 107
2, 147236, Note_on_c, 0, 97, 87
2, 147237, Note_on_c, 0, 101, 103
2, 147237, Note_on_c, 0, 93, 92
2, 147240, Note_on_c, 0, 61, 70
2, 147240, Note_on_c, 0, 65, 84
2, 147240, Note_on_c, 0, 57, 80
2, 147241, Note_on_c, 0, 53, 75
2, 147245, Control_c, 0, 64, 72
2, 147248, Control_c, 0, 64, 127
2, 147250, Note_on_c, 0, 65, 0
2, 147250, Note_on_c, 0, 61, 0
2, 147255, Note_on_c, 0, 101, 0
2, 147255, Note_on_c, 0, 57, 0
2, 147256, Note_on_c, 0, 53, 0
2, 147257, Note_on_c, 0, 97, 0
2, 147258, Note_on_c, 0, 93, 0
2, 147259, Note_on_c, 0, 89, 0
2, 147296, Control_c, 0, 64, 104
2, 147306, Control_c, 0, 64, 88
2, 147307, Note_on_c, 0, 52, 90
2, 147307, Note_on_c, 0, 100, 94
2, 147307, Note_on_c, 0, 49, 79
2, 147307, Note_on_c, 0, 97, 84
2, 147308, Note_on_c, 0, 57, 91
2, 147308, Note_on_c, 0, 88, 84
2, 147308, Note_on_c, 0, 45, 83
2, 147310, Note_on_c, 0, 93, 80
2, 147310, Control_c, 0, 64, 72
2, 147312, Control_c, 0, 64, 40
2, 147315, Note_on_c, 0, 88, 0
2, 147316, Note_on_c, 0, 93, 0
2, 147316, Note_on_c, 0, 45, 0
2, 147316, Control_c, 0, 64, 0
2, 147318, Note_on_c, 0, 52, 0
2, 147318, Note_on_c, 0, 49, 0
2, 147318, Note_on_c, 0, 97, 0
2, 147319, Note_on_c, 0, 100, 0
2, 147319, Note_on_c, 0, 57, 0
2, 147328, Note_on_c, 0, 100, 103
2, 147328, Note_on_c, 0, 97, 86
2, 147328, Note_on_c, 0, 88, 92
2, 147330, Note_on_c, 0, 49, 77
2, 147330, Note_on_c, 0, 93, 74
2, 147331, Note_on_c, 0, 52, 85
2, 147331, Note_on_c, 0, 57, 73
2, 147332, Note_on_c, 0, 45, 66
2, 147333, Control_c, 0, 64, 24
2, 147336, Control_c, 0, 64, 104
2, 147337, Note_on_c, 0, 52, 0
2, 147339, Note_on_c, 0, 57, 0
2, 147340, Control_c, 0, 64, 127
2, 147341, Note_on_c, 0, 49, 0
2, 147343, Note_on_c, 0, 45, 0
2, 147344, Note_on_c, 0, 88, 0
2, 147345, Note_on_c, 0, 97, 0
2, 147348, Note_on_c, 0, 93, 0
2, 147349, Note_on_c, 0, 100, 0
2, 147360, Control_c, 0, 64, 88
2, 147363, Control_c, 0, 64, 40
2, 147367, Control_c, 0, 64, 0
2, 147373, Note_on_c, 0, 97, 95
2, 147373, Note_on_c, 0, 101, 104
2, 147373, Note_on_c, 0, 93, 97
2, 147375, Note_on_c, 0, 89, 98
2, 147377, Note_on_c, 0, 41, 85
2, 147377, Note_on_c, 0, 53, 90
2, 147388, Note_on_c, 0, 41, 0
2, 147388, Note_on_c, 0, 89, 0
2, 147389, Note_on_c, 0, 53, 0
2, 147391, Note_on_c, 0, 101, 0
2, 147398, Note_on_c, 0, 93, 0
2, 147398, Note_on_c, 0, 97, 0
2, 147416, Note_on_c, 0, 57, 92
2, 147417, Note_on_c, 0, 100, 100
2, 147417, Note_on_c, 0, 97, 85
2, 147417, Control_c, 0, 64, 40
2, 147418, Note_on_c, 0, 88, 88
2, 147418, Note_on_c, 0, 45, 93
2, 147420, Note_on_c, 0, 93, 91
2, 147421, Control_c, 0, 64, 72
2, 147425, Control_c, 0, 64, 88
2, 147426, Note_on_c, 0, 45, 0
2, 147429, Note_on_c, 0, 57, 0
2, 147430, Note_on_c, 0, 88, 0
2, 147437, Note_on_c, 0, 97, 0
2, 147438, Note_on_c, 0, 93, 0
2, 147438, Control_c, 0, 64, 56
2, 147440, Note_on_c, 0, 100, 0
2, 147442, Control_c, 0, 64, 0
2, 147458, Note_on_c, 0, 101, 104
2, 147458, Control_c, 0, 64, 40
2, 147460, Note_on_c, 0, 97, 91
2, 147460, Note_on_c, 0, 93, 103
2, 147461, Note_on_c, 0, 89, 95
2, 147461, Note_on_c, 0, 53, 88
2, 147461, Note_on_c, 0, 41, 78
2, 147462, Control_c, 0, 64, 72
2, 147465, Control_c, 0, 64, 104
2, 147468, Control_c, 0, 64, 127
2, 147471, Note_on_c, 0, 41, 0
2, 147472, Note_on_c, 0, 53, 0
2, 147474, Note_on_c, 0, 89, 0
2, 147478, Note_on_c, 0, 101, 0
2, 147485, Note_on_c, 0, 93, 0
2, 147485, Note_on_c, 0, 97, 0
2, 147497, Note_on_c, 0, 97, 74
2, 147497, Note_on_c, 0, 57, 87
2, 147498, Note_on_c, 0, 100, 100
2, 147498, Note_on_c, 0, 93, 78
2, 147500, Note_on_c, 0, 88, 92
2, 147501, Note_on_c, 0, 45, 92
2, 147509, Note_on_c, 0, 45, 0
2, 147510, Note_on_c, 0, 57, 0
2, 147511, Note_on_c, 0, 88, 0
2, 147517, Note_on_c, 0, 97, 0
2, 147518, Note_on_c, 0, 100, 0
2, 147518, Note_on_c, 0, 93, 0
2, 147535, Note_on_c, 0, 93, 96
2, 147536, Note_on_c, 0, 101, 106
2, 147536, Note_on_c, 0, 53, 92
2, 147536, Note_on_c, 0, 97, 95
2, 147536, Note_on_c, 0, 89, 96
2, 147536, Note_on_c, 0, 41, 89
2, 147548, Note_on_c, 0, 41, 0
2, 147548, Note_on_c, 0, 53, 0
2, 147549, Note_on_c, 0, 89, 0
2, 147553, Note_on_c, 0, 101, 0
2, 147557, Note_on_c, 0, 97, 0
2, 147558, Note_on_c, 0, 93, 0
2, 147572, Note_on_c, 0, 97, 77
2, 147572, Note_on_c, 0, 100, 103
2, 147573, Note_on_c, 0, 57, 91
2, 147573, Note_on_c, 0, 88, 95
2, 147573, Note_on_c, 0, 93, 78
2, 147575, Note_on_c, 0, 45, 93
2, 147584, Note_on_c, 0, 88, 0
2, 147585, Note_on_c, 0, 57, 0
2, 147586, Note_on_c, 0, 45, 0
2, 147590, Note_on_c, 0, 93, 0
2, 147592, Note_on_c, 0, 100, 0
2, 147592, Note_on_c, 0, 97, 0
2, 147607, Note_on_c, 0, 93, 92
2, 147607, Note_on_c, 0, 101, 107
2, 147608, Note_on_c, 0, 97, 84
2, 147608, Note_on_c, 0, 89, 98
2, 147608, Note_on_c, 0, 41, 89
2, 147610, Note_on_c, 0, 53, 90
2, 147620, Note_on_c, 0, 41, 0
2, 147621, Note_on_c, 0, 89, 0
2, 147621, Note_on_c, 0, 53, 0
2, 147628, Note_on_c, 0, 101, 0
2, 147631, Control_c, 0, 64, 88
2, 147632, Note_on_c, 0, 93, 0
2, 147633, Note_on_c, 0, 97, 0
2, 147635, Control_c, 0, 64, 40
2, 147638, Control_c, 0, 64, 0
2, 147645, Note_on_c, 0, 97, 85
2, 147645, Note_on_c, 0, 100, 107
2, 147646, Note_on_c, 0, 93, 93
2, 147646, Note_on_c, 0, 88, 107
2, 147647, Note_on_c, 0, 57, 92
2, 147648, Control_c, 0, 64, 24
2, 147650, Note_on_c, 0, 45, 97
2, 147652, Control_c, 0, 64, 88
2, 147656, Control_c, 0, 64, 127
2, 147660, Note_on_c, 0, 45, 0
2, 147660, Note_on_c, 0, 57, 0
2, 147661, Note_on_c, 0, 93, 0
2, 147661, Note_on_c, 0, 88, 0
2, 147663, Note_on_c, 0, 97, 0
2, 147666, Note_on_c, 0, 100, 0
2, 147730, Control_c, 0, 64, 88
2, 147733, Control_c, 0, 64, 56
2, 147736, Control_c, 0, 64, 24
2, 147741, Control_c, 0, 64, 0
2, 147816, Note_on_c, 0, 101, 107
2, 147817, Note_on_c, 0, 89, 107
2, 147817, Note_on_c, 0, 97, 106
2, 147817, Note_on_c, 0, 93, 106
2, 147818, Note_on_c, 0, 41, 107
2, 147820, Note_on_c, 0, 53, 107
2, 147825, Control_c, 0, 64, 56
2, 147828, Control_c, 0, 64, 127
2, 147834, Note_on_c, 0, 41, 0
2, 147835, Note_on_c, 0, 89, 0
2, 147836, Note_on_c, 0, 53, 0
2, 147838, Note_on_c, 0, 101, 0
2, 147840, Note_on_c, 0, 97, 0
2, 147840, Note_on_c, 0, 93, 0
2, 147947, Control_c, 0, 64, 88
2, 147950, Control_c, 0, 64, 56
2, 147953, Control_c, 0, 64, 0
2, 147981, Note_on_c, 0, 46, 95
2, 147983, Note_on_c, 0, 37, 84
2, 147983, Note_on_c, 0, 41, 84
2, 147987, Control_c, 0, 64, 56
2, 147990, Note_on_c, 0, 41, 0
2, 147991, Control_c, 0, 64, 127
2, 148000, Note_on_c, 0, 37, 0
2, 148006, Note_on_c, 0, 46, 0
2, 148011, Note_on_c, 0, 53, 84
2, 148037, Note_on_c, 0, 58, 85
2, 148037, Note_on_c, 0, 46, 78
2, 148038, Note_on_c, 0, 53, 0
2, 148041, Note_on_c, 0, 41, 74
2, 148041, Note_on_c, 0, 37, 75
2, 148048, Note_on_c, 0, 37, 0
2, 148049, Note_on_c, 0, 41, 0
2, 148052, Note_on_c, 0, 46, 0
2, 148062, Note_on_c, 0, 65, 87
2, 148069, Note_on_c, 0, 58, 0
2, 148075, Note_on_c, 0, 65, 0
2, 148083, Note_on_c, 0, 46, 87
2, 148083, Note_on_c, 0, 41, 78
2, 148083, Note_on_c, 0, 37, 78
2, 148090, Note_on_c, 0, 65, 84
2, 148092, Note_on_c, 0, 67, 65
2, 148098, Note_on_c, 0, 67, 0
2, 148098, Note_on_c, 0, 41, 0
2, 148103, Note_on_c, 0, 46, 0
2, 148105, Note_on_c, 0, 37, 0
2, 148111, Note_on_c, 0, 70, 88
2, 148120, Note_on_c, 0, 65, 0
2, 148130, Note_on_c, 0, 77, 99
2, 148132, Note_on_c, 0, 46, 99
2, 148132, Note_on_c, 0, 37, 81
2, 148133, Note_on_c, 0, 41, 84
2, 148136, Note_on_c, 0, 70, 0
2, 148143, Note_on_c, 0, 77, 0
2, 148146, Note_on_c, 0, 41, 0
2, 148150, Note_on_c, 0, 37, 0
2, 148153, Note_on_c, 0, 46, 0
2, 148153, Note_on_c, 0, 77, 107
2, 148175, Note_on_c, 0, 46, 97
2, 148175, Note_on_c, 0, 82, 100
2, 148175, Note_on_c, 0, 41, 81
2, 148175, Note_on_c, 0, 37, 80
2, 148184, Note_on_c, 0, 77, 0
2, 148195, Note_on_c, 0, 37, 0
2, 148196, Note_on_c, 0, 46, 0
2, 148196, Note_on_c, 0, 41, 0
2, 148196, Note_on_c, 0, 89, 100
2, 148202, Note_on_c, 0, 82, 0
2, 148206, Note_on_c, 0, 89, 0
2, 148218, Note_on_c, 0, 89, 105
2, 148221, Note_on_c, 0, 46, 96
2, 148222, Note_on_c, 0, 37, 83
2, 148222, Note_on_c, 0, 41, 82
2, 148240, Note_on_c, 0, 94, 107
2, 148243, Note_on_c, 0, 37, 0
2, 148243, Note_on_c, 0, 46, 0
2, 148247, Note_on_c, 0, 41, 0
2, 148253, Note_on_c, 0, 89, 0
2, 148263, Note_on_c, 0, 94, 0
2, 148266, Note_on_c, 0, 101, 107
2, 148267, Note_on_c, 0, 37, 89
2, 148267, Note_on_c, 0, 46, 103
2, 148268, Note_on_c, 0, 41, 87
2, 148289, Note_on_c, 0, 37, 0
2, 148292, Note_on_c, 0, 46, 0
2, 148292, Note_on_c, 0, 94, 106
2, 148294, Note_on_c, 0, 41, 0
2, 148306, Note_on_c, 0, 101, 0
2, 148315, Note_on_c, 0, 94, 0
2, 148315, Note_on_c, 0, 89, 103
2, 148318, Note_on_c, 0, 37, 82
2, 148320, Note_on_c, 0, 46, 89
2, 148320, Note_on_c, 0, 41, 82
2, 148323, Note_on_c, 0, 89, 0
2, 148337, Note_on_c, 0, 89, 104
2, 148339, Note_on_c, 0, 37, 0
2, 148341, Note_on_c, 0, 46, 0
2, 148345, Note_on_c, 0, 41, 0
2, 148361, Note_on_c, 0, 82, 100
2, 148367, Note_on_c, 0, 46, 85
2, 148368, Note_on_c, 0, 37, 82
2, 148370, Note_on_c, 0, 41, 84
2, 148374, Note_on_c, 0, 89, 0
2, 148380, Note_on_c, 0, 41, 0
2, 148382, Note_on_c, 0, 77, 102
2, 148383, Note_on_c, 0, 46, 0
2, 148384, Note_on_c, 0, 37, 0
2, 148384, Note_on_c, 0, 82, 0
2, 148393, Note_on_c, 0, 77, 0
2, 148408, Note_on_c, 0, 77, 101
2, 148411, Note_on_c, 0, 46, 89
2, 148412, Note_on_c, 0, 37, 82
2, 148415, Note_on_c, 0, 41, 81
2, 148423, Note_on_c, 0, 41, 0
2, 148427, Note_on_c, 0, 46, 0
2, 148428, Note_on_c, 0, 37, 0
2, 148431, Note_on_c, 0, 70, 96
2, 148438, Note_on_c, 0, 77, 0
2, 148455, Note_on_c, 0, 65, 95
2, 148456, Note_on_c, 0, 70, 0
2, 148457, Note_on_c, 0, 46, 86
2, 148457, Note_on_c, 0, 37, 82
2, 148458, Note_on_c, 0, 41, 80
2, 148466, Note_on_c, 0, 65, 0
2, 148470, Note_on_c, 0, 46, 0
2, 148470, Note_on_c, 0, 41, 0
2, 148474, Note_on_c, 0, 37, 0
2, 148478, Note_on_c, 0, 65, 94
2, 148500, Note_on_c, 0, 58, 94
2, 148503, Note_on_c, 0, 65, 0
2, 148510, Note_on_c, 0, 46, 87
2, 148511, Note_on_c, 0, 37, 82
2, 148512, Note_on_c, 0, 41, 84
2, 148520, Note_on_c, 0, 53, 97
2, 148521, Note_on_c, 0, 58, 0
2, 148527, Note_on_c, 0, 46, 0
2, 148528, Note_on_c, 0, 41, 0
2, 148529, Note_on_c, 0, 37, 0
2, 148542, Note_on_c, 0, 53, 0
2, 148547, Control_c, 0, 64, 56
2, 148551, Control_c, 0, 64, 0
2, 148552, Note_on_c, 0, 65, 106
2, 148553, Note_on_c, 0, 53, 103
2, 148553, Note_on_c, 0, 58, 93
2, 148555, Note_on_c, 0, 46, 100
2, 148555, Note_on_c, 0, 37, 83
2, 148556, Note_on_c, 0, 41, 85
2, 148563, Note_on_c, 0, 53, 0
2, 148565, Note_on_c, 0, 58, 0
2, 148567, Control_c, 0, 64, 40
2, 148571, Control_c, 0, 64, 127
2, 148572, Note_on_c, 0, 46, 0
2, 148573, Note_on_c, 0, 37, 0
2, 148574, Note_on_c, 0, 41, 0
2, 148578, Note_on_c, 0, 65, 0
2, 148693, Control_c, 0, 64, 88
2, 148696, Control_c, 0, 64, 40
2, 148700, Control_c, 0, 64, 0
2, 148707, Note_on_c, 0, 89, 107
2, 148708, Note_on_c, 0, 77, 107
2, 148708, Note_on_c, 0, 85, 93
2, 148708, Note_on_c, 0, 82, 91
2, 148711, Note_on_c, 0, 65, 94
2, 148711, Note_on_c, 0, 53, 88
2, 148711, Note_on_c, 0, 61, 84
2, 148711, Note_on_c, 0, 58, 80
2, 148716, Control_c, 0, 64, 56
2, 148720, Control_c, 0, 64, 127
2, 148723, Note_on_c, 0, 85, 0
2, 148724, Note_on_c, 0, 65, 0
2, 148724, Note_on_c, 0, 82, 0
2, 148724, Note_on_c, 0, 53, 0
2, 148726, Note_on_c, 0, 61, 0
2, 148726, Note_on_c, 0, 77, 0
2, 148728, Note_on_c, 0, 58, 0
2, 148730, Note_on_c, 0, 89, 0
2, 148887, Note_on_c, 0, 45, 107
2, 148887, Note_on_c, 0, 33, 107
2, 148892, Control_c, 0, 64, 24
2, 148896, Control_c, 0, 64, 72
2, 148898, Control_c, 0, 64, 127
2, 148899, Note_on_c, 0, 33, 0
2, 148899, Note_on_c, 0, 45, 0
2, 148916, Note_on_c, 0, 46, 97
2, 148917, Note_on_c, 0, 58, 98
2, 148928, Note_on_c, 0, 46, 0
2, 148930, Note_on_c, 0, 58, 0
2, 148938, Control_c, 0, 64, 104
2, 148942, Control_c, 0, 64, 24
2, 148945, Control_c, 0, 64, 0
2, 148946, Note_on_c, 0, 46, 99
2, 148947, Note_on_c, 0, 34, 98
2, 148953, Control_c, 0, 64, 24
2, 148957, Note_on_c, 0, 46, 0
2, 148957, Control_c, 0, 64, 72
2, 148959, Note_on_c, 0, 34, 0
2, 148960, Control_c, 0, 64, 127
2, 148972, Note_on_c, 0, 49, 95
2, 148973, Note_on_c, 0, 61, 101
2, 148984, Note_on_c, 0, 49, 0
2, 148986, Note_on_c, 0, 61, 0
2, 148991, Control_c, 0, 64, 104
2, 148995, Control_c, 0, 64, 56
2, 148997, Control_c, 0, 64, 24
2, 149000, Note_on_c, 0, 49, 101
2, 149000, Note_on_c, 0, 37, 97
2, 149000, Control_c, 0, 64, 40
2, 149002, Control_c, 0, 64, 72
2, 149006, Control_c, 0, 64, 104
2, 149008, Control_c, 0, 64, 127
2, 149012, Note_on_c, 0, 37, 0
2, 149013, Note_on_c, 0, 49, 0
2, 149023, Note_on_c, 0, 64, 99
2, 149025, Note_on_c, 0, 52, 102
2, 149035, Note_on_c, 0, 52, 0
2, 149038, Note_on_c, 0, 64, 0
2, 149043, Control_c, 0, 64, 72
2, 149046, Control_c, 0, 64, 24
2, 149050, Control_c, 0, 64, 0
2, 149051, Note_on_c, 0, 40, 101
2, 149052, Note_on_c, 0, 52, 102
2, 149052, Control_c, 0, 64, 24
2, 149055, Control_c, 0, 64, 56
2, 149058, Control_c, 0, 64, 88
2, 149061, Control_c, 0, 64, 127
2, 149063, Note_on_c, 0, 52, 0
2, 149063, Note_on_c, 0, 40, 0
2, 149078, Note_on_c, 0, 53, 99
2, 149078, Note_on_c, 0, 65, 102
2, 149084, Note_on_c, 0, 53, 0
2, 149089, Note_on_c, 0, 65, 0
2, 149090, Control_c, 0, 64, 104
2, 149093, Control_c, 0, 64, 40
2, 149096, Control_c, 0, 64, 0
2, 149103, Note_on_c, 0, 53, 98
2, 149103, Note_on_c, 0, 41, 84
2, 149105, Control_c, 0, 64, 72
2, 149107, Control_c, 0, 64, 104
2, 149111, Control_c, 0, 64, 127
2, 149115, Note_on_c, 0, 41, 0
2, 149115, Note_on_c, 0, 53, 0
2, 149130, Note_on_c, 0, 69, 97
2, 149130, Note_on_c, 0, 57, 100
2, 149137, Note_on_c, 0, 57, 0
2, 149143, Note_on_c, 0, 69, 0
2, 149148, Control_c, 0, 64, 72
2, 149151, Control_c, 0, 64, 24
2, 149155, Note_on_c, 0, 57, 100
2, 149156, Note_on_c, 0, 45, 102
2, 149160, Control_c, 0, 64, 72
2, 149163, Control_c, 0, 64, 104
2, 149166, Control_c, 0, 64, 127
2, 149167, Note_on_c, 0, 45, 0
2, 149171, Note_on_c, 0, 57, 0
2, 149177, Note_on_c, 0, 58, 100
2, 149180, Note_on_c, 0, 70, 102
2, 149188, Note_on_c, 0, 58, 0
2, 149192, Note_on_c, 0, 70, 0
2, 149197, Control_c, 0, 64, 56
2, 149200, Control_c, 0, 64, 24
2, 149203, Control_c, 0, 64, 0
2, 149205, Note_on_c, 0, 58, 101
2, 149206, Note_on_c, 0, 46, 103
2, 149206, Control_c, 0, 64, 24
2, 149208, Control_c, 0, 64, 56
2, 149212, Control_c, 0, 64, 104
2, 149215, Control_c, 0, 64, 127
2, 149216, Note_on_c, 0, 46, 0
2, 149217, Note_on_c, 0, 58, 0
2, 149231, Note_on_c, 0, 61, 102
2, 149231, Note_on_c, 0, 73, 100
2, 149242, Note_on_c, 0, 61, 0
2, 149243, Note_on_c, 0, 73, 0
2, 149250, Control_c, 0, 64, 72
2, 149256, Note_on_c, 0, 61, 100
2, 149257, Note_on_c, 0, 49, 104
2, 149258, Control_c, 0, 64, 104
2, 149261, Control_c, 0, 64, 127
2, 149268, Note_on_c, 0, 49, 0
2, 149274, Note_on_c, 0, 61, 0
2, 149281, Note_on_c, 0, 76, 103
2, 149281, Note_on_c, 0, 64, 105
2, 149291, Note_on_c, 0, 64, 0
2, 149296, Note_on_c, 0, 76, 0
2, 149296, Control_c, 0, 64, 88
2, 149300, Control_c, 0, 64, 40
2, 149305, Note_on_c, 0, 52, 83
2, 149306, Note_on_c, 0, 64, 81
2, 149308, Control_c, 0, 64, 88
2, 149311, Note_on_c, 0, 62, 49
2, 149311, Control_c, 0, 64, 127
2, 149317, Note_on_c, 0, 62, 0
2, 149317, Note_on_c, 0, 52, 0
2, 149324, Note_on_c, 0, 64, 0
2, 149331, Note_on_c, 0, 65, 102
2, 149332, Note_on_c, 0, 77, 100
2, 149341, Note_on_c, 0, 65, 0
2, 149344, Note_on_c, 0, 77, 0
2, 149348, Control_c, 0, 64, 72
2, 149351, Control_c, 0, 64, 40
2, 149355, Note_on_c, 0, 65, 102
2, 149355, Note_on_c, 0, 53, 104
2, 149357, Control_c, 0, 64, 56
2, 149361, Control_c, 0, 64, 88
2, 149363, Control_c, 0, 64, 127
2, 149370, Note_on_c, 0, 53, 0
2, 149373, Note_on_c, 0, 65, 0
2, 149382, Note_on_c, 0, 81, 102
2, 149383, Note_on_c, 0, 69, 100
2, 149391, Note_on_c, 0, 69, 0
2, 149397, Note_on_c, 0, 81, 0
2, 149398, Control_c, 0, 64, 72
2, 149401, Control_c, 0, 64, 40
2, 149403, Control_c, 0, 64, 24
2, 149406, Note_on_c, 0, 64, 103
2, 149406, Control_c, 0, 64, 40
2, 149407, Note_on_c, 0, 52, 105
2, 149410, Control_c, 0, 64, 72
2, 149412, Control_c, 0, 64, 104
2, 149415, Control_c, 0, 64, 127
2, 149418, Note_on_c, 0, 64, 0
2, 149419, Note_on_c, 0, 52, 0
2, 149430, Note_on_c, 0, 70, 101
2, 149431, Note_on_c, 0, 82, 103
2, 149441, Note_on_c, 0, 70, 0
2, 149444, Note_on_c, 0, 82, 0
2, 149447, Control_c, 0, 64, 88
2, 149450, Control_c, 0, 64, 72
2, 149453, Control_c, 0, 64, 88
2, 149456, Control_c, 0, 64, 104
2, 149457, Note_on_c, 0, 61, 103
2, 149458, Note_on_c, 0, 49, 104
2, 149458, Control_c, 0, 64, 127
2, 149468, Note_on_c, 0, 49, 0
2, 149472, Note_on_c, 0, 61, 0
2, 149482, Note_on_c, 0, 73, 101
2, 149483, Note_on_c, 0, 85, 104
2, 149494, Note_on_c, 0, 73, 0
2, 149495, Note_on_c, 0, 85, 0
2, 149497, Control_c, 0, 64, 104
2, 149500, Control_c, 0, 64, 72
2, 149502, Control_c, 0, 64, 56
2, 149506, Note_on_c, 0, 58, 103
2, 149508, Note_on_c, 0, 46, 104
2, 149508, Control_c, 0, 64, 88
2, 149511, Control_c, 0, 64, 127
2, 149533, Note_on_c, 0, 46, 0
2, 149533, Note_on_c, 0, 88, 105
2, 149535, Note_on_c, 0, 76, 105
2, 149536, Note_on_c, 0, 58, 0
2, 149547, Note_on_c, 0, 76, 0
2, 149548, Control_c, 0, 64, 104
2, 149550, Note_on_c, 0, 88, 0
2, 149552, Control_c, 0, 64, 72
2, 149556, Note_on_c, 0, 57, 104
2, 149556, Note_on_c, 0, 45, 105
2, 149561, Control_c, 0, 64, 104
2, 149563, Control_c, 0, 64, 127
2, 149567, Note_on_c, 0, 45, 0
2, 149569, Note_on_c, 0, 57, 0
2, 149580, Note_on_c, 0, 89, 106
2, 149581, Note_on_c, 0, 77, 107
2, 149594, Note_on_c, 0, 77, 0
2, 149598, Note_on_c, 0, 89, 0
2, 149601, Control_c, 0, 64, 104
2, 149605, Note_on_c, 0, 53, 99
2, 149605, Control_c, 0, 64, 72
2, 149606, Note_on_c, 0, 41, 94
2, 149607, Control_c, 0, 64, 88
2, 149610, Control_c, 0, 64, 104
2, 149612, Control_c, 0, 64, 127
2, 149622, Note_on_c, 0, 41, 0
2, 149630, Note_on_c, 0, 53, 0
2, 149631, Note_on_c, 0, 81, 106
2, 149633, Note_on_c, 0, 93, 105
2, 149643, Note_on_c, 0, 81, 0
2, 149648, Note_on_c, 0, 93, 0
2, 149656, Control_c, 0, 64, 104
2, 149657, Note_on_c, 0, 52, 104
2, 149657, Note_on_c, 0, 40, 107
2, 149660, Control_c, 0, 64, 56
2, 149662, Control_c, 0, 64, 24
2, 149665, Control_c, 0, 64, 0
2, 149671, Control_c, 0, 64, 40
2, 149673, Control_c, 0, 64, 72
2, 149677, Control_c, 0, 64, 104
2, 149680, Note_on_c, 0, 40, 0
2, 149680, Control_c, 0, 64, 127
2, 149686, Note_on_c, 0, 82, 106
2, 149686, Note_on_c, 0, 94, 106
2, 149689, Note_on_c, 0, 52, 0
2, 149704, Note_on_c, 0, 94, 0
2, 149704, Note_on_c, 0, 82, 0
2, 149708, Note_on_c, 0, 53, 106
2, 149710, Note_on_c, 0, 41, 107
2, 149712, Control_c, 0, 64, 104
2, 149715, Control_c, 0, 64, 88
2, 149717, Control_c, 0, 64, 104
2, 149721, Control_c, 0, 64, 127
2, 149730, Note_on_c, 0, 41, 0
2, 149732, Note_on_c, 0, 97, 107
2, 149732, Note_on_c, 0, 85, 107
2, 149733, Note_on_c, 0, 53, 0
2, 149745, Note_on_c, 0, 85, 0
2, 149755, Note_on_c, 0, 97, 0
2, 149755, Control_c, 0, 64, 104
2, 149758, Control_c, 0, 64, 72
2, 149760, Note_on_c, 0, 52, 106
2, 149760, Note_on_c, 0, 40, 107
2, 149761, Control_c, 0, 64, 40
2, 149770, Control_c, 0, 64, 88
2, 149773, Control_c, 0, 64, 127
2, 149782, Note_on_c, 0, 98, 107
2, 149782, Note_on_c, 0, 86, 106
2, 149783, Note_on_c, 0, 40, 0
2, 149787, Note_on_c, 0, 52, 0
2, 149795, Note_on_c, 0, 86, 0
2, 149799, Note_on_c, 0, 98, 0
2, 149805, Control_c, 0, 64, 104
2, 149807, Control_c, 0, 64, 56
2, 149808, Note_on_c, 0, 51, 105
2, 149810, Note_on_c, 0, 39, 106
2, 149811, Control_c, 0, 64, 40
2, 149813, Control_c, 0, 64, 56
2, 149816, Control_c, 0, 64, 88
2, 149818, Control_c, 0, 64, 127
2, 149833, Note_on_c, 0, 39, 0
2, 149836, Note_on_c, 0, 99, 107
2, 149836, Note_on_c, 0, 87, 107
2, 149839, Note_on_c, 0, 51, 0
2, 149856, Note_on_c, 0, 87, 0
2, 149857, Control_c, 0, 64, 88
2, 149860, Note_on_c, 0, 50, 104
2, 149860, Control_c, 0, 64, 72
2, 149862, Note_on_c, 0, 99, 0
2, 149862, Note_on_c, 0, 38, 106
2, 149862, Control_c, 0, 64, 88
2, 149866, Control_c, 0, 64, 104
2, 149868, Control_c, 0, 64, 127
2, 149882, Note_on_c, 0, 50, 0
2, 149883, Note_on_c, 0, 100, 107
2, 149883, Note_on_c, 0, 88, 106
2, 149885, Note_on_c, 0, 38, 0
2, 149896, Note_on_c, 0, 88, 0
2, 149901, Control_c, 0, 64, 104
2, 149903, Control_c, 0, 64, 72
2, 149904, Note_on_c, 0, 100, 0
2, 149906, Note_on_c, 0, 49, 106
2, 149908, Note_on_c, 0, 37, 90
2, 149912, Control_c, 0, 64, 104
2, 149915, Control_c, 0, 64, 127
2, 149932, Note_on_c, 0, 101, 107
2, 149933, Note_on_c, 0, 89, 107
2, 149936, Note_on_c, 0, 37, 0
2, 149938, Note_on_c, 0, 49, 0
2, 149945, Note_on_c, 0, 89, 0
2, 149952, Note_on_c, 0, 101, 0
2, 149952, Control_c, 0, 64, 104
2, 149955, Note_on_c, 0, 48, 107
2, 149956, Control_c, 0, 64, 56
2, 149957, Note_on_c, 0, 36, 107
2, 149958, Control_c, 0, 64, 40
2, 149965, Control_c, 0, 64, 72
2, 149967, Control_c, 0, 64, 104
2, 149971, Control_c, 0, 64, 127
2, 149977, Note_on_c, 0, 36, 0
2, 149980, Note_on_c, 0, 90, 107
2, 149980, Note_on_c, 0, 102, 107
2, 149981, Note_on_c, 0, 48, 0
2, 150002, Control_c, 0, 64, 72
2, 150005, Note_on_c, 0, 90, 0
2, 150006, Note_on_c, 0, 47, 107
2, 150008, Note_on_c, 0, 35, 107
2, 150008, Control_c, 0, 64, 88
2, 150011, Note_on_c, 0, 102, 0
2, 150011, Control_c, 0, 64, 127
2, 150026, Note_on_c, 0, 35, 0
2, 150028, Note_on_c, 0, 47, 0
2, 150031, Note_on_c, 0, 103, 107
2, 150031, Note_on_c, 0, 91, 107
2, 150043, Note_on_c, 0, 91, 0
2, 150047, Note_on_c, 0, 103, 0
2, 150053, Note_on_c, 0, 46, 106
2, 150056, Note_on_c, 0, 34, 107
2, 150072, Note_on_c, 0, 34, 0
2, 150078, Note_on_c, 0, 104, 107
2, 150078, Note_on_c, 0, 92, 107
2, 150081, Note_on_c, 0, 46, 0
2, 150090, Note_on_c, 0, 92, 0
2, 150092, Control_c, 0, 64, 88
2, 150095, Control_c, 0, 64, 40
2, 150098, Control_c, 0, 64, 0
2, 150099, Note_on_c, 0, 104, 0
2, 150108, Note_on_c, 0, 105, 107
2, 150110, Note_on_c, 0, 93, 107
2, 150110, Note_on_c, 0, 45, 107
2, 150111, Note_on_c, 0, 33, 107
2, 150116, Control_c, 0, 64, 40
2, 150118, Control_c, 0, 64, 127
2, 150120, Note_on_c, 0, 93, 0
2, 150121, Note_on_c, 0, 33, 0
2, 150123, Note_on_c, 0, 45, 0
2, 150124, Note_on_c, 0, 105, 0
2, 150217, Control_c, 0, 64, 104
2, 150220, Control_c, 0, 64, 72
2, 150222, Control_c, 0, 64, 40
2, 150226, Control_c, 0, 64, 0
2, 150267, Note_on_c, 0, 81, 107
2, 150268, Note_on_c, 0, 69, 107
2, 150270, Note_on_c, 0, 76, 102
2, 150270, Note_on_c, 0, 61, 92
2, 150270, Note_on_c, 0, 64, 103
2, 150270, Note_on_c, 0, 73, 94
2, 150271, Note_on_c, 0, 52, 93
2, 150272, Note_on_c, 0, 57, 91
2, 150275, Control_c, 0, 64, 88
2, 150278, Control_c, 0, 64, 127
2, 150279, Note_on_c, 0, 52, 0
2, 150280, Note_on_c, 0, 57, 0
2, 150281, Note_on_c, 0, 64, 0
2, 150283, Note_on_c, 0, 61, 0
2, 150284, Note_on_c, 0, 69, 0
2, 150285, Note_on_c, 0, 73, 0
2, 150286, Note_on_c, 0, 76, 0
2, 150288, Note_on_c, 0, 81, 0
2, 150406, Control_c, 0, 64, 104
2, 150408, Control_c, 0, 64, 56
2, 150411, Control_c, 0, 64, 0
2, 150448, Note_on_c, 0, 57, 107
2, 150450, Note_on_c, 0, 45, 107
2, 150451, Note_on_c, 0, 33, 107
2, 150452, Control_c, 0, 64, 72
2, 150455, Control_c, 0, 64, 127
2, 150462, Note_on_c, 0, 33, 0
2, 150462, Note_on_c, 0, 45, 0
2, 150468, Note_on_c, 0, 57, 0
2, 150606, Control_c, 0, 64, 56
2, 150610, Control_c, 0, 64, 0
2, 151450, Control_c, 0, 64, 72
2, 151453, Control_c, 0, 64, 0
2, 151523, Control_c, 0, 64, 104
2, 151527, Control_c, 0, 64, 40
2, 151530, Control_c, 0, 64, 0
2, 151840, Control_c, 0, 64, 56
2, 151842, Control_c, 0, 64, 104
2, 151846, Control_c, 0, 64, 127
2, 151903, Control_c, 0, 64, 104
2, 151907, Control_c, 0, 64, 72
2, 151910, Control_c, 0, 64, 40
2, 151912, Control_c, 0, 64, 24
2, 151915, Control_c, 0, 64, 0
2, 151923, Control_c, 0, 64, 40
2, 151926, Control_c, 0, 64, 56
2, 151926, End_track
3, 0, Start_track
3, 0, MIDI_port, 0
3, 0, Title_t, "Franz Liszt"
3, 0, Program_c, 1, 0
3, 0, End_track
4, 0, Start_track
4, 0, MIDI_port, 0
4, 0, Title_t, "Robert Finley, piano"
4, 0, Program_c, 1, 0
4, 0, End_track
0, 0, End_of_file
