0, 0, Header, 0, 1, 384
1, 0, Start_track
1, 0, Tempo, 512820
1, 0, Title_t, ""
1, 0, Control_c, 0, 64, 127
1, 0, Control_c, 0, 64, 0
1, 0, Note_on_c, 0, 39, 84
1, 28, Note_on_c, 0, 40, 83
1, 77, Note_on_c, 0, 39, 0
1, 81, Note_on_c, 0, 40, 0
1, 133, Note_on_c, 0, 40, 95
1, 178, Note_on_c, 0, 40, 0
1, 244, Note_on_c, 0, 40, 89
1, 297, Note_on_c, 0, 40, 0
1, 364, Note_on_c, 0, 40, 105
1, 389, Note_on_c, 0, 40, 0
1, 484, Note_on_c, 0, 40, 85
1, 518, Note_on_c, 0, 40, 0
1, 615, Note_on_c, 0, 40, 78
1, 643, Note_on_c, 0, 40, 0
1, 740, Note_on_c, 0, 39, 90
1, 760, Note_on_c, 0, 40, 102
1, 785, Note_on_c, 0, 40, 0
1, 796, Note_on_c, 0, 39, 0
1, 858, Note_on_c, 0, 40, 78
1, 900, Note_on_c, 0, 40, 0
1, 983, Note_on_c, 0, 40, 74
1, 1017, Note_on_c, 0, 40, 0
1, 1119, Note_on_c, 0, 39, 86
1, 1133, Note_on_c, 0, 40, 94
1, 1147, Note_on_c, 0, 39, 0
1, 1156, Note_on_c, 0, 40, 0
1, 1239, Note_on_c, 0, 40, 60
1, 1276, Note_on_c, 0, 40, 0
1, 1361, Note_on_c, 0, 40, 68
1, 1395, Note_on_c, 0, 40, 0
1, 1496, Note_on_c, 0, 46, 88
1, 1510, Note_on_c, 0, 40, 83
1, 1537, Note_on_c, 0, 47, 42
1, 1537, Note_on_c, 0, 40, 0
1, 1551, Note_on_c, 0, 46, 0
1, 1584, Note_on_c, 0, 47, 0
1, 1620, Note_on_c, 0, 40, 57
1, 1640, Note_on_c, 0, 47, 65
1, 1665, Note_on_c, 0, 40, 0
1, 1674, Note_on_c, 0, 47, 0
1, 1732, Note_on_c, 0, 40, 76
1, 1732, Note_on_c, 0, 47, 41
1, 1779, Note_on_c, 0, 40, 0
1, 1785, Note_on_c, 0, 47, 0
1, 1852, Note_on_c, 0, 47, 54
1, 1852, Note_on_c, 0, 40, 76
1, 1905, Note_on_c, 0, 40, 0
1, 1905, Note_on_c, 0, 47, 0
1, 1974, Note_on_c, 0, 47, 55
1, 1981, Note_on_c, 0, 40, 73
1, 2016, Note_on_c, 0, 40, 0
1, 2020, Note_on_c, 0, 47, 0
1, 2086, Note_on_c, 0, 47, 53
1, 2092, Note_on_c, 0, 40, 63
1, 2128, Note_on_c, 0, 40, 0
1, 2155, Note_on_c, 0, 47, 0
1, 2205, Note_on_c, 0, 46, 79
1, 2236, Note_on_c, 0, 40, 32
1, 2239, Note_on_c, 0, 47, 73
1, 2242, Note_on_c, 0, 46, 0
1, 2272, Note_on_c, 0, 47, 0
1, 2286, Note_on_c, 0, 40, 0
1, 2334, Note_on_c, 0, 47, 44
1, 2342, Note_on_c, 0, 40, 85
1, 2378, Note_on_c, 0, 40, 0
1, 2387, Note_on_c, 0, 47, 0
1, 2451, Note_on_c, 0, 47, 59
1, 2459, Note_on_c, 0, 40, 70
1, 2493, Note_on_c, 0, 40, 0
1, 2513, Note_on_c, 0, 47, 0
1, 2570, Note_on_c, 0, 46, 75
1, 2573, Note_on_c, 0, 40, 85
1, 2601, Note_on_c, 0, 47, 64
1, 2609, Note_on_c, 0, 40, 0
1, 2615, Note_on_c, 0, 46, 0
1, 2637, Note_on_c, 0, 47, 0
1, 2682, Note_on_c, 0, 47, 68
1, 2691, Note_on_c, 0, 40, 73
1, 2724, Note_on_c, 0, 47, 0
1, 2729, Note_on_c, 0, 40, 0
1, 2799, Note_on_c, 0, 40, 76
1, 2808, Note_on_c, 0, 47, 66
1, 2827, Note_on_c, 0, 40, 0
1, 2836, Note_on_c, 0, 47, 0
1, 2953, Note_on_c, 0, 53, 91
1, 2953, Note_on_c, 0, 40, 96
1, 2956, Note_on_c, 0, 47, 87
1, 2963, Note_on_c, 0, 54, 83
1, 2971, Note_on_c, 0, 55, 51
1, 2981, Note_on_c, 0, 40, 0
1, 3000, Note_on_c, 0, 53, 0
1, 3000, Note_on_c, 0, 47, 0
1, 3006, Note_on_c, 0, 54, 0
1, 3013, Note_on_c, 0, 55, 0
1, 3050, Control_c, 0, 64, 127
1, 3066, Note_on_c, 0, 54, 77
1, 3073, Note_on_c, 0, 47, 62
1, 3094, Note_on_c, 0, 40, 51
1, 3133, Note_on_c, 0, 40, 0
1, 3133, Note_on_c, 0, 54, 0
1, 3133, Note_on_c, 0, 47, 0
1, 3189, Note_on_c, 0, 54, 78
1, 3195, Control_c, 0, 64, 0
1, 3198, Note_on_c, 0, 47, 68
1, 3198, Note_on_c, 0, 40, 62
1, 3242, Note_on_c, 0, 54, 0
1, 3251, Note_on_c, 0, 40, 0
1, 3261, Note_on_c, 0, 47, 0
1, 3312, Note_on_c, 0, 47, 71
1, 3315, Note_on_c, 0, 54, 66
1, 3315, Note_on_c, 0, 40, 68
1, 3371, Note_on_c, 0, 40, 0
1, 3389, Note_on_c, 0, 47, 0
1, 3389, Note_on_c, 0, 54, 0
1, 3435, Note_on_c, 0, 40, 76
1, 3435, Note_on_c, 0, 47, 76
1, 3440, Note_on_c, 0, 54, 83
1, 3471, Note_on_c, 0, 54, 0
1, 3485, Note_on_c, 0, 40, 0
1, 3496, Note_on_c, 0, 47, 0
1, 3543, Note_on_c, 0, 54, 58
1, 3554, Note_on_c, 0, 47, 74
1, 3563, Note_on_c, 0, 40, 81
1, 3595, Note_on_c, 0, 40, 0
1, 3598, Note_on_c, 0, 54, 0
1, 3612, Note_on_c, 0, 47, 0
1, 3657, Note_on_c, 0, 53, 108
1, 3665, Note_on_c, 0, 47, 91
1, 3671, Note_on_c, 0, 54, 91
1, 3671, Note_on_c, 0, 61, 96
1, 3677, Note_on_c, 0, 40, 88
1, 3704, Note_on_c, 0, 40, 0
1, 3724, Note_on_c, 0, 54, 0
1, 3733, Control_c, 0, 64, 127
1, 3733, Note_on_c, 0, 53, 0
1, 3733, Note_on_c, 0, 47, 0
1, 3749, Note_on_c, 0, 61, 0
1, 3758, Control_c, 0, 64, 0
1, 3785, Note_on_c, 0, 47, 78
1, 3785, Note_on_c, 0, 54, 83
1, 3785, Note_on_c, 0, 40, 83
1, 3790, Note_on_c, 0, 61, 79
1, 3818, Note_on_c, 0, 40, 0
1, 3838, Note_on_c, 0, 47, 0
1, 3838, Note_on_c, 0, 54, 0
1, 3844, Note_on_c, 0, 61, 0
1, 3896, Note_on_c, 0, 61, 72
1, 3896, Note_on_c, 0, 54, 66
1, 3900, Note_on_c, 0, 47, 71
1, 3903, Note_on_c, 0, 40, 78
1, 3944, Note_on_c, 0, 54, 0
1, 3955, Note_on_c, 0, 61, 0
1, 3955, Note_on_c, 0, 40, 0
1, 3960, Note_on_c, 0, 47, 0
1, 4017, Note_on_c, 0, 61, 75
1, 4020, Note_on_c, 0, 47, 71
1, 4020, Note_on_c, 0, 40, 87
1, 4024, Note_on_c, 0, 54, 72
1, 4064, Note_on_c, 0, 54, 0
1, 4075, Note_on_c, 0, 40, 0
1, 4084, Note_on_c, 0, 47, 0
1, 4091, Note_on_c, 0, 61, 0
1, 4131, Note_on_c, 0, 61, 84
1, 4136, Note_on_c, 0, 47, 79
1, 4136, Note_on_c, 0, 54, 72
1, 4136, Note_on_c, 0, 40, 89
1, 4173, Note_on_c, 0, 40, 0
1, 4176, Note_on_c, 0, 47, 0
1, 4181, Note_on_c, 0, 54, 0
1, 4203, Note_on_c, 0, 61, 0
1, 4243, Note_on_c, 0, 54, 76
1, 4243, Note_on_c, 0, 40, 91
1, 4243, Note_on_c, 0, 61, 87
1, 4250, Note_on_c, 0, 47, 64
1, 4273, Note_on_c, 0, 54, 0
1, 4318, Note_on_c, 0, 61, 0
1, 4321, Note_on_c, 0, 40, 0
1, 4329, Note_on_c, 0, 47, 0
1, 4360, Note_on_c, 0, 40, 23
1, 4375, Note_on_c, 0, 60, 95
1, 4375, Note_on_c, 0, 47, 79
1, 4381, Note_on_c, 0, 54, 98
1, 4387, Note_on_c, 0, 69, 93
1, 4387, Note_on_c, 0, 61, 84
1, 4423, Note_on_c, 0, 60, 0
1, 4434, Note_on_c, 0, 40, 0
1, 4442, Note_on_c, 0, 54, 0
1, 4442, Control_c, 0, 64, 127
1, 4442, Note_on_c, 0, 61, 0
1, 4465, Note_on_c, 0, 69, 0
1, 4465, Control_c, 0, 64, 0
1, 4470, Note_on_c, 0, 47, 0
1, 4490, Note_on_c, 0, 54, 92
1, 4501, Note_on_c, 0, 40, 63
1, 4506, Note_on_c, 0, 69, 85
1, 4510, Note_on_c, 0, 61, 78
1, 4526, Note_on_c, 0, 47, 57
1, 4526, Note_on_c, 0, 41, 47
1, 4543, Note_on_c, 0, 40, 0
1, 4552, Note_on_c, 0, 61, 0
1, 4555, Note_on_c, 0, 69, 0
1, 4562, Note_on_c, 0, 47, 0
1, 4568, Note_on_c, 0, 54, 0
1, 4577, Note_on_c, 0, 41, 0
1, 4609, Note_on_c, 0, 54, 90
1, 4609, Note_on_c, 0, 47, 67
1, 4609, Note_on_c, 0, 40, 85
1, 4614, Note_on_c, 0, 69, 66
1, 4614, Note_on_c, 0, 61, 72
1, 4649, Note_on_c, 0, 40, 0
1, 4663, Note_on_c, 0, 54, 0
1, 4663, Note_on_c, 0, 69, 0
1, 4676, Note_on_c, 0, 47, 0
1, 4683, Note_on_c, 0, 61, 0
1, 4727, Note_on_c, 0, 54, 81
1, 4727, Note_on_c, 0, 40, 89
1, 4727, Note_on_c, 0, 47, 73
1, 4733, Note_on_c, 0, 61, 81
1, 4736, Note_on_c, 0, 69, 67
1, 4761, Note_on_c, 0, 40, 0
1, 4775, Note_on_c, 0, 54, 0
1, 4775, Note_on_c, 0, 47, 0
1, 4778, Note_on_c, 0, 69, 0
1, 4807, Note_on_c, 0, 61, 0
1, 4843, Note_on_c, 0, 54, 83
1, 4846, Note_on_c, 0, 40, 84
1, 4849, Note_on_c, 0, 69, 69
1, 4849, Note_on_c, 0, 61, 89
1, 4852, Note_on_c, 0, 47, 56
1, 4878, Note_on_c, 0, 40, 0
1, 4888, Note_on_c, 0, 54, 0
1, 4894, Note_on_c, 0, 69, 0
1, 4894, Note_on_c, 0, 47, 0
1, 4906, Note_on_c, 0, 61, 0
1, 4960, Note_on_c, 0, 69, 74
1, 4960, Note_on_c, 0, 61, 83
1, 4964, Note_on_c, 0, 54, 86
1, 4967, Note_on_c, 0, 47, 55
1, 4975, Note_on_c, 0, 40, 57
1, 5011, Note_on_c, 0, 61, 0
1, 5011, Note_on_c, 0, 54, 0
1, 5011, Note_on_c, 0, 40, 0
1, 5015, Note_on_c, 0, 47, 0
1, 5025, Note_on_c, 0, 69, 0
1, 5075, Note_on_c, 0, 69, 88
1, 5075, Note_on_c, 0, 61, 88
1, 5075, Note_on_c, 0, 54, 97
1, 5078, Note_on_c, 0, 40, 89
1, 5083, Note_on_c, 0, 47, 65
1, 5087, Note_on_c, 0, 62, 93
1, 5100, Note_on_c, 0, 41, 54
1, 5136, Note_on_c, 0, 54, 0
1, 5136, Note_on_c, 0, 47, 0
1, 5144, Note_on_c, 0, 61, 0
1, 5144, Note_on_c, 0, 41, 0
1, 5144, Note_on_c, 0, 69, 0
1, 5144, Note_on_c, 0, 62, 0
1, 5153, Note_on_c, 0, 40, 0
1, 5159, Control_c, 0, 64, 127
1, 5192, Note_on_c, 0, 54, 79
1, 5200, Note_on_c, 0, 69, 71
1, 5200, Note_on_c, 0, 47, 64
1, 5200, Note_on_c, 0, 40, 90
1, 5200, Note_on_c, 0, 62, 87
1, 5229, Note_on_c, 0, 40, 0
1, 5229, Control_c, 0, 64, 0
1, 5245, Note_on_c, 0, 47, 0
1, 5245, Note_on_c, 0, 62, 0
1, 5253, Note_on_c, 0, 54, 0
1, 5276, Note_on_c, 0, 69, 0
1, 5303, Note_on_c, 0, 54, 83
1, 5307, Note_on_c, 0, 40, 74
1, 5312, Note_on_c, 0, 47, 54
1, 5312, Note_on_c, 0, 69, 89
1, 5312, Note_on_c, 0, 62, 74
1, 5345, Note_on_c, 0, 40, 0
1, 5359, Note_on_c, 0, 62, 0
1, 5365, Note_on_c, 0, 54, 0
1, 5368, Note_on_c, 0, 47, 0
1, 5390, Note_on_c, 0, 69, 0
1, 5421, Note_on_c, 0, 54, 87
1, 5429, Note_on_c, 0, 40, 74
1, 5429, Note_on_c, 0, 47, 61
1, 5434, Note_on_c, 0, 69, 83
1, 5438, Note_on_c, 0, 62, 89
1, 5465, Note_on_c, 0, 40, 0
1, 5477, Note_on_c, 0, 47, 0
1, 5477, Note_on_c, 0, 62, 0
1, 5504, Note_on_c, 0, 54, 0
1, 5521, Note_on_c, 0, 69, 0
1, 5541, Note_on_c, 0, 54, 94
1, 5549, Note_on_c, 0, 47, 54
1, 5549, Note_on_c, 0, 62, 90
1, 5554, Note_on_c, 0, 40, 42
1, 5593, Note_on_c, 0, 47, 0
1, 5597, Note_on_c, 0, 40, 0
1, 5602, Note_on_c, 0, 54, 0
1, 5610, Note_on_c, 0, 62, 0
1, 5649, Note_on_c, 0, 69, 85
1, 5663, Note_on_c, 0, 40, 75
1, 5663, Note_on_c, 0, 54, 70
1, 5668, Note_on_c, 0, 47, 47
1, 5691, Note_on_c, 0, 69, 0
1, 5699, Note_on_c, 0, 40, 0
1, 5722, Note_on_c, 0, 54, 0
1, 5725, Note_on_c, 0, 47, 0
1, 5740, Note_on_c, 0, 62, 68
1, 5771, Control_c, 0, 64, 127
1, 5782, Note_on_c, 0, 62, 0
1, 5786, Note_on_c, 0, 69, 76
1, 5789, Note_on_c, 0, 76, 104
1, 5804, Note_on_c, 0, 54, 73
1, 5814, Note_on_c, 0, 47, 42
1, 5817, Note_on_c, 0, 69, 0
1, 5817, Note_on_c, 0, 40, 72
1, 5847, Note_on_c, 0, 76, 0
1, 5850, Note_on_c, 0, 54, 0
1, 5850, Note_on_c, 0, 40, 0
1, 5861, Note_on_c, 0, 47, 0
1, 5942, Note_on_c, 0, 54, 60
1, 5942, Note_on_c, 0, 47, 29
1, 5950, Note_on_c, 0, 40, 51
1, 5992, Note_on_c, 0, 40, 0
1, 5995, Note_on_c, 0, 54, 0
1, 6006, Note_on_c, 0, 47, 0
1, 6045, Note_on_c, 0, 69, 70
1, 6050, Note_on_c, 0, 62, 73
1, 6073, Note_on_c, 0, 47, 43
1, 6073, Note_on_c, 0, 54, 54
1, 6081, Note_on_c, 0, 62, 0
1, 6081, Note_on_c, 0, 40, 34
1, 6086, Note_on_c, 0, 69, 0
1, 6112, Note_on_c, 0, 54, 0
1, 6123, Note_on_c, 0, 47, 0
1, 6130, Note_on_c, 0, 40, 0
1, 6155, Control_c, 0, 64, 0
1, 6189, Note_on_c, 0, 40, 83
1, 6193, Note_on_c, 0, 54, 62
1, 6201, Note_on_c, 0, 47, 39
1, 6225, Note_on_c, 0, 40, 0
1, 6239, Note_on_c, 0, 54, 0
1, 6247, Note_on_c, 0, 47, 0
1, 6306, Note_on_c, 0, 62, 80
1, 6321, Note_on_c, 0, 54, 61
1, 6321, Note_on_c, 0, 47, 36
1, 6329, Note_on_c, 0, 40, 59
1, 6339, Note_on_c, 0, 62, 0
1, 6362, Note_on_c, 0, 54, 0
1, 6362, Note_on_c, 0, 40, 0
1, 6371, Note_on_c, 0, 47, 0
1, 6410, Note_on_c, 0, 69, 66
1, 6429, Note_on_c, 0, 40, 55
1, 6434, Note_on_c, 0, 54, 50
1, 6434, Note_on_c, 0, 47, 37
1, 6445, Note_on_c, 0, 69, 0
1, 6466, Note_on_c, 0, 40, 0
1, 6476, Note_on_c, 0, 54, 0
1, 6487, Note_on_c, 0, 62, 63
1, 6487, Note_on_c, 0, 47, 0
1, 6529, Note_on_c, 0, 76, 106
1, 6537, Note_on_c, 0, 69, 52
1, 6552, Note_on_c, 0, 62, 0
1, 6552, Note_on_c, 0, 40, 56
1, 6552, Note_on_c, 0, 54, 51
1, 6555, Note_on_c, 0, 47, 38
1, 6562, Control_c, 0, 64, 127
1, 6576, Note_on_c, 0, 69, 0
1, 6582, Note_on_c, 0, 76, 0
1, 6591, Note_on_c, 0, 40, 0
1, 6598, Note_on_c, 0, 54, 0
1, 6612, Note_on_c, 0, 47, 0
1, 6683, Note_on_c, 0, 47, 36
1, 6686, Note_on_c, 0, 54, 47
1, 6694, Note_on_c, 0, 40, 44
1, 6730, Note_on_c, 0, 54, 0
1, 6736, Note_on_c, 0, 40, 0
1, 6766, Control_c, 0, 64, 0
1, 6766, Note_on_c, 0, 47, 0
1, 6778, Note_on_c, 0, 69, 77
1, 6793, Note_on_c, 0, 54, 54
1, 6796, Note_on_c, 0, 62, 50
1, 6807, Note_on_c, 0, 40, 74
1, 6811, Note_on_c, 0, 69, 0
1, 6825, Note_on_c, 0, 47, 20
1, 6838, Note_on_c, 0, 40, 0
1, 6841, Note_on_c, 0, 62, 0
1, 6844, Note_on_c, 0, 54, 0
1, 6876, Note_on_c, 0, 47, 0
1, 6876, Note_on_c, 0, 62, 50
1, 6922, Note_on_c, 0, 69, 80
1, 6922, Note_on_c, 0, 76, 101
1, 6928, Note_on_c, 0, 40, 53
1, 6928, Note_on_c, 0, 54, 62
1, 6931, Note_on_c, 0, 47, 49
1, 6936, Note_on_c, 0, 62, 0
1, 6950, Note_on_c, 0, 69, 0
1, 6967, Note_on_c, 0, 40, 0
1, 6967, Note_on_c, 0, 54, 0
1, 6980, Note_on_c, 0, 76, 0
1, 6980, Control_c, 0, 64, 127
1, 6983, Note_on_c, 0, 47, 0
1, 7080, Note_on_c, 0, 54, 49
1, 7080, Note_on_c, 0, 40, 37
1, 7087, Note_on_c, 0, 47, 18
1, 7123, Note_on_c, 0, 54, 0
1, 7129, Note_on_c, 0, 40, 0
1, 7137, Control_c, 0, 64, 0
1, 7144, Note_on_c, 0, 47, 0
1, 7179, Note_on_c, 0, 62, 73
1, 7186, Note_on_c, 0, 54, 43
1, 7193, Note_on_c, 0, 40, 65
1, 7198, Note_on_c, 0, 71, 34
1, 7209, Note_on_c, 0, 62, 0
1, 7212, Note_on_c, 0, 47, 49
1, 7228, Note_on_c, 0, 40, 0
1, 7253, Note_on_c, 0, 71, 0
1, 7253, Note_on_c, 0, 47, 0
1, 7259, Note_on_c, 0, 54, 0
1, 7328, Note_on_c, 0, 54, 59
1, 7335, Note_on_c, 0, 62, 16
1, 7343, Note_on_c, 0, 40, 50
1, 7343, Note_on_c, 0, 47, 19
1, 7346, Note_on_c, 0, 69, 59
1, 7349, Note_on_c, 0, 76, 96
1, 7370, Note_on_c, 0, 54, 0
1, 7379, Note_on_c, 0, 69, 0
1, 7379, Note_on_c, 0, 62, 0
1, 7382, Note_on_c, 0, 40, 0
1, 7388, Control_c, 0, 64, 127
1, 7396, Note_on_c, 0, 47, 0
1, 7459, Note_on_c, 0, 76, 0
1, 7470, Note_on_c, 0, 47, 28
1, 7470, Note_on_c, 0, 54, 50
1, 7515, Note_on_c, 0, 54, 0
1, 7537, Note_on_c, 0, 47, 0
1, 7569, Control_c, 0, 64, 0
1, 7591, Note_on_c, 0, 69, 71
1, 7596, Note_on_c, 0, 40, 68
1, 7599, Note_on_c, 0, 62, 57
1, 7607, Note_on_c, 0, 54, 51
1, 7607, Note_on_c, 0, 47, 38
1, 7622, Note_on_c, 0, 69, 0
1, 7632, Note_on_c, 0, 40, 0
1, 7632, Note_on_c, 0, 62, 0
1, 7649, Note_on_c, 0, 54, 0
1, 7660, Note_on_c, 0, 47, 0
1, 7732, Note_on_c, 0, 69, 98
1, 7732, Note_on_c, 0, 54, 62
1, 7735, Note_on_c, 0, 62, 85
1, 7741, Note_on_c, 0, 47, 33
1, 7747, Note_on_c, 0, 40, 65
1, 7769, Note_on_c, 0, 62, 0
1, 7778, Note_on_c, 0, 40, 0
1, 7778, Note_on_c, 0, 54, 0
1, 7796, Note_on_c, 0, 47, 0
1, 7816, Note_on_c, 0, 69, 0
1, 7831, Control_c, 0, 64, 127
1, 7855, Note_on_c, 0, 54, 66
1, 7858, Note_on_c, 0, 47, 53
1, 7861, Note_on_c, 0, 40, 54
1, 7895, Note_on_c, 0, 54, 0
1, 7906, Note_on_c, 0, 40, 0
1, 7913, Note_on_c, 0, 47, 0
1, 7928, Control_c, 0, 64, 0
1, 7975, Note_on_c, 0, 62, 73
1, 7975, Note_on_c, 0, 55, 70
1, 7991, Note_on_c, 0, 47, 52
1, 7991, Note_on_c, 0, 40, 73
1, 8011, Note_on_c, 0, 62, 0
1, 8011, Note_on_c, 0, 55, 0
1, 8025, Note_on_c, 0, 40, 0
1, 8047, Note_on_c, 0, 47, 0
1, 8114, Note_on_c, 0, 54, 92
1, 8120, Note_on_c, 0, 69, 75
1, 8125, Note_on_c, 0, 40, 52
1, 8131, Note_on_c, 0, 62, 68
1, 8131, Note_on_c, 0, 47, 29
1, 8151, Note_on_c, 0, 67, 34
1, 8154, Note_on_c, 0, 54, 0
1, 8165, Note_on_c, 0, 40, 0
1, 8181, Note_on_c, 0, 47, 0
1, 8200, Note_on_c, 0, 67, 0
1, 8206, Control_c, 0, 64, 127
1, 8214, Note_on_c, 0, 62, 0
1, 8228, Note_on_c, 0, 69, 0
1, 8242, Note_on_c, 0, 47, 48
1, 8242, Note_on_c, 0, 40, 61
1, 8242, Note_on_c, 0, 54, 68
1, 8282, Note_on_c, 0, 54, 0
1, 8285, Note_on_c, 0, 40, 0
1, 8299, Control_c, 0, 64, 0
1, 8312, Note_on_c, 0, 47, 0
1, 8374, Note_on_c, 0, 62, 64
1, 8379, Note_on_c, 0, 55, 68
1, 8379, Note_on_c, 0, 47, 50
1, 8387, Note_on_c, 0, 40, 64
1, 8410, Note_on_c, 0, 62, 0
1, 8415, Note_on_c, 0, 55, 0
1, 8421, Note_on_c, 0, 40, 0
1, 8429, Note_on_c, 0, 47, 0
1, 8501, Note_on_c, 0, 40, 61
1, 8501, Note_on_c, 0, 54, 83
1, 8501, Note_on_c, 0, 47, 39
1, 8509, Note_on_c, 0, 69, 68
1, 8509, Note_on_c, 0, 62, 61
1, 8551, Note_on_c, 0, 40, 0
1, 8551, Note_on_c, 0, 54, 0
1, 8565, Note_on_c, 0, 47, 0
1, 8599, Control_c, 0, 64, 127
1, 8629, Note_on_c, 0, 69, 0
1, 8638, Note_on_c, 0, 62, 0
1, 8643, Note_on_c, 0, 40, 65
1, 8643, Note_on_c, 0, 47, 37
1, 8649, Note_on_c, 0, 54, 59
1, 8686, Note_on_c, 0, 54, 0
1, 8691, Note_on_c, 0, 40, 0
1, 8696, Control_c, 0, 64, 0
1, 8700, Note_on_c, 0, 47, 0
1, 8755, Note_on_c, 0, 55, 60
1, 8759, Note_on_c, 0, 47, 68
1, 8763, Note_on_c, 0, 62, 49
1, 8788, Note_on_c, 0, 40, 13
1, 8791, Note_on_c, 0, 55, 0
1, 8791, Note_on_c, 0, 47, 0
1, 8806, Note_on_c, 0, 62, 0
1, 8827, Note_on_c, 0, 40, 0
1, 8877, Note_on_c, 0, 62, 65
1, 8877, Note_on_c, 0, 55, 63
1, 8877, Note_on_c, 0, 40, 95
1, 8883, Note_on_c, 0, 47, 47
1, 8908, Note_on_c, 0, 40, 0
1, 8916, Note_on_c, 0, 55, 0
1, 8923, Note_on_c, 0, 47, 0
1, 8931, Note_on_c, 0, 62, 0
1, 8986, Note_on_c, 0, 47, 57
1, 9006, Note_on_c, 0, 40, 60
1, 9019, Note_on_c, 0, 47, 0
1, 9044, Note_on_c, 0, 40, 0
1, 9114, Note_on_c, 0, 47, 44
1, 9129, Note_on_c, 0, 40, 50
1, 9154, Note_on_c, 0, 47, 0
1, 9172, Note_on_c, 0, 40, 0
1, 9251, Note_on_c, 0, 62, 61
1, 9260, Note_on_c, 0, 55, 58
1, 9267, Note_on_c, 0, 47, 59
1, 9278, Note_on_c, 0, 40, 41
1, 9293, Note_on_c, 0, 62, 0
1, 9301, Note_on_c, 0, 55, 0
1, 9301, Note_on_c, 0, 47, 0
1, 9321, Note_on_c, 0, 40, 0
1, 9650, Note_on_c, 0, 48, 45
1, 9650, Note_on_c, 0, 55, 54
1, 9660, Note_on_c, 0, 40, 61
1, 9693, Note_on_c, 0, 55, 0
1, 9699, Note_on_c, 0, 48, 0
1, 9699, Note_on_c, 0, 40, 0
1, 10641, Note_on_c, 0, 31, 36
1, 10654, Note_on_c, 0, 55, 30
1, 10685, Note_on_c, 0, 57, 43
1, 10694, Note_on_c, 0, 33, 49
1, 10694, Note_on_c, 0, 31, 0
1, 10703, Note_on_c, 0, 55, 0
1, 10735, Note_on_c, 0, 59, 21
1, 10744, Note_on_c, 0, 33, 0
1, 10753, Note_on_c, 0, 35, 48
1, 10788, Note_on_c, 0, 59, 0
1, 10788, Note_on_c, 0, 60, 71
1, 10788, Note_on_c, 0, 48, 60
1, 10792, Note_on_c, 0, 35, 0
1, 10792, Note_on_c, 0, 36, 52
1, 10805, Note_on_c, 0, 57, 0
1, 10828, Note_on_c, 0, 36, 0
1, 10828, Note_on_c, 0, 48, 0
1, 10838, Note_on_c, 0, 60, 0
1, 11050, Note_on_c, 0, 55, 60
1, 11050, Note_on_c, 0, 31, 51
1, 11095, Note_on_c, 0, 31, 0
1, 11098, Note_on_c, 0, 57, 48
1, 11098, Note_on_c, 0, 33, 46
1, 11115, Note_on_c, 0, 55, 0
1, 11137, Note_on_c, 0, 35, 71
1, 11137, Note_on_c, 0, 59, 41
1, 11146, Note_on_c, 0, 33, 0
1, 11176, Note_on_c, 0, 35, 0
1, 11181, Note_on_c, 0, 36, 57
1, 11181, Note_on_c, 0, 48, 62
1, 11189, Note_on_c, 0, 57, 0
1, 11189, Note_on_c, 0, 60, 74
1, 11203, Note_on_c, 0, 59, 0
1, 11217, Note_on_c, 0, 36, 0
1, 11223, Note_on_c, 0, 48, 0
1, 11239, Note_on_c, 0, 60, 0
1, 11423, Note_on_c, 0, 57, 58
1, 11430, Note_on_c, 0, 33, 61
1, 11482, Note_on_c, 0, 59, 50
1, 11482, Note_on_c, 0, 35, 55
1, 11487, Note_on_c, 0, 33, 0
1, 11494, Note_on_c, 0, 57, 0
1, 11494, Note_on_c, 0, 60, 70
1, 11526, Note_on_c, 0, 35, 0
1, 11529, Note_on_c, 0, 36, 61
1, 11551, Note_on_c, 0, 50, 75
1, 11551, Note_on_c, 0, 38, 78
1, 11557, Note_on_c, 0, 59, 0
1, 11557, Note_on_c, 0, 62, 89
1, 11561, Note_on_c, 0, 60, 0
1, 11561, Note_on_c, 0, 36, 0
1, 11586, Note_on_c, 0, 38, 0
1, 11589, Note_on_c, 0, 50, 0
1, 11600, Note_on_c, 0, 62, 0
1, 11774, Note_on_c, 0, 35, 76
1, 11777, Note_on_c, 0, 59, 64
1, 11802, Note_on_c, 0, 60, 65
1, 11820, Note_on_c, 0, 36, 74
1, 11831, Note_on_c, 0, 35, 0
1, 11855, Note_on_c, 0, 59, 0
1, 11867, Note_on_c, 0, 62, 63
1, 11873, Note_on_c, 0, 38, 69
1, 11889, Note_on_c, 0, 36, 0
1, 11909, Note_on_c, 0, 38, 0
1, 11919, Note_on_c, 0, 40, 101
1, 11919, Note_on_c, 0, 64, 107
1, 11928, Note_on_c, 0, 60, 0
1, 11928, Note_on_c, 0, 52, 94
1, 11959, Note_on_c, 0, 52, 0
1, 11964, Note_on_c, 0, 40, 0
1, 11969, Note_on_c, 0, 62, 0
1, 12000, Note_on_c, 0, 64, 0
1, 12309, Note_on_c, 0, 39, 66
1, 12338, Note_on_c, 0, 40, 109
1, 12382, Note_on_c, 0, 39, 0
1, 12405, Note_on_c, 0, 40, 0
1, 12452, Note_on_c, 0, 40, 100
1, 12487, Note_on_c, 0, 40, 0
1, 12579, Note_on_c, 0, 40, 89
1, 12608, Note_on_c, 0, 40, 0
1, 12703, Note_on_c, 0, 40, 98
1, 12728, Note_on_c, 0, 40, 0
1, 12802, Note_on_c, 0, 40, 78
1, 12842, Note_on_c, 0, 40, 0
1, 12936, Note_on_c, 0, 40, 83
1, 12965, Note_on_c, 0, 40, 0
1, 13045, Note_on_c, 0, 39, 82
1, 13065, Note_on_c, 0, 40, 103
1, 13081, Note_on_c, 0, 39, 0
1, 13103, Note_on_c, 0, 40, 0
1, 13171, Note_on_c, 0, 40, 92
1, 13204, Note_on_c, 0, 40, 0
1, 13309, Note_on_c, 0, 40, 77
1, 13340, Note_on_c, 0, 40, 0
1, 13416, Note_on_c, 0, 39, 74
1, 13443, Note_on_c, 0, 40, 94
1, 13462, Note_on_c, 0, 39, 0
1, 13469, Note_on_c, 0, 40, 0
1, 13561, Note_on_c, 0, 40, 70
1, 13594, Note_on_c, 0, 40, 0
1, 13692, Note_on_c, 0, 40, 49
1, 13730, Note_on_c, 0, 40, 0
1, 13800, Note_on_c, 0, 40, 69
1, 13805, Note_on_c, 0, 46, 60
1, 13841, Note_on_c, 0, 47, 75
1, 13855, Note_on_c, 0, 46, 0
1, 13870, Note_on_c, 0, 47, 0
1, 13870, Note_on_c, 0, 40, 0
1, 13926, Note_on_c, 0, 47, 47
1, 13933, Note_on_c, 0, 40, 78
1, 13973, Note_on_c, 0, 40, 0
1, 13987, Note_on_c, 0, 47, 0
1, 14068, Note_on_c, 0, 47, 32
1, 14078, Note_on_c, 0, 40, 56
1, 14114, Note_on_c, 0, 40, 0
1, 14125, Note_on_c, 0, 47, 0
1, 14184, Note_on_c, 0, 47, 57
1, 14188, Note_on_c, 0, 40, 54
1, 14229, Note_on_c, 0, 40, 0
1, 14229, Note_on_c, 0, 47, 0
1, 14302, Note_on_c, 0, 47, 44
1, 14305, Note_on_c, 0, 40, 63
1, 14345, Note_on_c, 0, 40, 0
1, 14355, Note_on_c, 0, 47, 0
1, 14422, Note_on_c, 0, 47, 45
1, 14427, Note_on_c, 0, 40, 67
1, 14468, Note_on_c, 0, 40, 0
1, 14474, Note_on_c, 0, 47, 0
1, 14530, Note_on_c, 0, 40, 75
1, 14530, Note_on_c, 0, 46, 64
1, 14563, Note_on_c, 0, 47, 72
1, 14585, Note_on_c, 0, 46, 0
1, 14596, Note_on_c, 0, 40, 0
1, 14596, Note_on_c, 0, 47, 0
1, 14628, Control_c, 0, 64, 127
1, 14652, Control_c, 0, 64, 0
1, 14664, Note_on_c, 0, 47, 36
1, 14671, Note_on_c, 0, 40, 67
1, 14710, Note_on_c, 0, 40, 0
1, 14720, Note_on_c, 0, 47, 0
1, 14789, Note_on_c, 0, 47, 49
1, 14800, Note_on_c, 0, 40, 58
1, 14837, Note_on_c, 0, 40, 0
1, 14842, Note_on_c, 0, 47, 0
1, 14909, Note_on_c, 0, 46, 75
1, 14917, Note_on_c, 0, 40, 73
1, 14942, Note_on_c, 0, 47, 69
1, 14950, Note_on_c, 0, 46, 0
1, 14956, Note_on_c, 0, 40, 0
1, 14975, Note_on_c, 0, 47, 0
1, 15025, Note_on_c, 0, 47, 62
1, 15039, Note_on_c, 0, 40, 68
1, 15075, Note_on_c, 0, 47, 0
1, 15075, Note_on_c, 0, 40, 0
1, 15155, Note_on_c, 0, 40, 63
1, 15168, Note_on_c, 0, 47, 36
1, 15187, Note_on_c, 0, 40, 0
1, 15217, Note_on_c, 0, 47, 0
1, 15298, Note_on_c, 0, 47, 63
1, 15298, Note_on_c, 0, 40, 97
1, 15302, Note_on_c, 0, 53, 98
1, 15309, Note_on_c, 0, 54, 78
1, 15326, Note_on_c, 0, 40, 0
1, 15335, Note_on_c, 0, 47, 0
1, 15335, Note_on_c, 0, 53, 0
1, 15346, Note_on_c, 0, 54, 0
1, 15421, Note_on_c, 0, 47, 60
1, 15430, Note_on_c, 0, 40, 66
1, 15433, Note_on_c, 0, 54, 68
1, 15471, Note_on_c, 0, 40, 0
1, 15475, Note_on_c, 0, 47, 0
1, 15475, Note_on_c, 0, 54, 0
1, 15543, Note_on_c, 0, 40, 65
1, 15543, Note_on_c, 0, 47, 53
1, 15550, Note_on_c, 0, 54, 60
1, 15594, Note_on_c, 0, 54, 0
1, 15594, Note_on_c, 0, 40, 0
1, 15607, Note_on_c, 0, 47, 0
1, 15663, Note_on_c, 0, 54, 56
1, 15663, Note_on_c, 0, 47, 58
1, 15667, Note_on_c, 0, 40, 54
1, 15719, Note_on_c, 0, 40, 0
1, 15731, Note_on_c, 0, 47, 0
1, 15741, Note_on_c, 0, 54, 0
1, 15790, Note_on_c, 0, 47, 54
1, 15794, Note_on_c, 0, 54, 67
1, 15797, Note_on_c, 0, 40, 63
1, 15833, Note_on_c, 0, 54, 0
1, 15845, Note_on_c, 0, 47, 0
1, 15845, Note_on_c, 0, 40, 0
1, 15911, Note_on_c, 0, 54, 52
1, 15926, Note_on_c, 0, 47, 46
1, 15936, Note_on_c, 0, 40, 57
1, 15962, Note_on_c, 0, 54, 0
1, 15972, Note_on_c, 0, 47, 0
1, 15972, Note_on_c, 0, 40, 0
1, 16045, Note_on_c, 0, 47, 70
1, 16045, Note_on_c, 0, 53, 97
1, 16045, Note_on_c, 0, 40, 84
1, 16045, Note_on_c, 0, 61, 87
1, 16051, Note_on_c, 0, 54, 75
1, 16081, Note_on_c, 0, 53, 0
1, 16089, Note_on_c, 0, 54, 0
1, 16089, Note_on_c, 0, 47, 0
1, 16096, Note_on_c, 0, 40, 0
1, 16110, Note_on_c, 0, 61, 0
1, 16137, Control_c, 0, 64, 127
1, 16163, Note_on_c, 0, 40, 73
1, 16171, Note_on_c, 0, 54, 64
1, 16177, Note_on_c, 0, 47, 42
1, 16177, Note_on_c, 0, 61, 46
1, 16206, Note_on_c, 0, 40, 0
1, 16218, Note_on_c, 0, 54, 0
1, 16218, Note_on_c, 0, 47, 0
1, 16221, Note_on_c, 0, 61, 0
1, 16293, Note_on_c, 0, 61, 42
1, 16293, Note_on_c, 0, 40, 71
1, 16293, Note_on_c, 0, 47, 38
1, 16298, Note_on_c, 0, 54, 49
1, 16334, Note_on_c, 0, 40, 0
1, 16341, Note_on_c, 0, 47, 0
1, 16341, Note_on_c, 0, 54, 0
1, 16344, Note_on_c, 0, 61, 0
1, 16401, Control_c, 0, 64, 0
1, 16415, Note_on_c, 0, 47, 52
1, 16419, Note_on_c, 0, 61, 48
1, 16419, Note_on_c, 0, 40, 71
1, 16429, Note_on_c, 0, 54, 47
1, 16455, Note_on_c, 0, 40, 0
1, 16460, Note_on_c, 0, 47, 0
1, 16469, Note_on_c, 0, 61, 0
1, 16469, Note_on_c, 0, 54, 0
1, 16530, Note_on_c, 0, 47, 59
1, 16530, Note_on_c, 0, 40, 76
1, 16530, Note_on_c, 0, 61, 62
1, 16536, Note_on_c, 0, 54, 61
1, 16569, Note_on_c, 0, 40, 0
1, 16578, Note_on_c, 0, 47, 0
1, 16583, Note_on_c, 0, 54, 0
1, 16603, Note_on_c, 0, 61, 0
1, 16650, Note_on_c, 0, 47, 63
1, 16650, Note_on_c, 0, 54, 67
1, 16653, Note_on_c, 0, 61, 72
1, 16660, Note_on_c, 0, 40, 71
1, 16683, Note_on_c, 0, 54, 0
1, 16686, Note_on_c, 0, 61, 0
1, 16691, Note_on_c, 0, 40, 0
1, 16717, Note_on_c, 0, 47, 0
1, 16756, Note_on_c, 0, 40, 77
1, 16770, Note_on_c, 0, 60, 89
1, 16775, Note_on_c, 0, 47, 69
1, 16775, Note_on_c, 0, 54, 87
1, 16784, Note_on_c, 0, 69, 84
1, 16787, Note_on_c, 0, 61, 81
1, 16822, Note_on_c, 0, 60, 0
1, 16833, Note_on_c, 0, 61, 0
1, 16837, Note_on_c, 0, 40, 0
1, 16845, Note_on_c, 0, 54, 0
1, 16850, Note_on_c, 0, 69, 0
1, 16864, Note_on_c, 0, 47, 0
1, 16890, Note_on_c, 0, 40, 93
1, 16893, Note_on_c, 0, 54, 72
1, 16903, Note_on_c, 0, 61, 69
1, 16903, Note_on_c, 0, 69, 67
1, 16923, Note_on_c, 0, 40, 0
1, 16923, Note_on_c, 0, 47, 61
1, 16953, Note_on_c, 0, 54, 0
1, 16957, Note_on_c, 0, 47, 0
1, 16957, Note_on_c, 0, 69, 0
1, 16970, Note_on_c, 0, 61, 0
1, 17014, Note_on_c, 0, 54, 69
1, 17014, Note_on_c, 0, 47, 52
1, 17020, Note_on_c, 0, 61, 69
1, 17020, Note_on_c, 0, 69, 54
1, 17025, Note_on_c, 0, 40, 66
1, 17057, Note_on_c, 0, 40, 0
1, 17060, Note_on_c, 0, 54, 0
1, 17070, Note_on_c, 0, 69, 0
1, 17084, Note_on_c, 0, 61, 0
1, 17084, Note_on_c, 0, 47, 0
1, 17138, Note_on_c, 0, 47, 67
1, 17138, Note_on_c, 0, 54, 64
1, 17142, Note_on_c, 0, 40, 67
1, 17142, Note_on_c, 0, 69, 57
1, 17142, Note_on_c, 0, 61, 68
1, 17174, Note_on_c, 0, 40, 0
1, 17179, Note_on_c, 0, 54, 0
1, 17195, Note_on_c, 0, 47, 0
1, 17198, Note_on_c, 0, 69, 0
1, 17204, Note_on_c, 0, 61, 0
1, 17255, Note_on_c, 0, 69, 66
1, 17260, Note_on_c, 0, 61, 74
1, 17260, Note_on_c, 0, 47, 61
1, 17260, Note_on_c, 0, 54, 69
1, 17265, Note_on_c, 0, 40, 60
1, 17298, Note_on_c, 0, 54, 0
1, 17298, Note_on_c, 0, 40, 0
1, 17310, Note_on_c, 0, 61, 0
1, 17310, Note_on_c, 0, 47, 0
1, 17330, Note_on_c, 0, 69, 0
1, 17369, Note_on_c, 0, 69, 88
1, 17372, Note_on_c, 0, 54, 81
1, 17372, Note_on_c, 0, 40, 73
1, 17372, Note_on_c, 0, 61, 84
1, 17372, Note_on_c, 0, 47, 62
1, 17408, Note_on_c, 0, 40, 0
1, 17411, Note_on_c, 0, 54, 0
1, 17425, Note_on_c, 0, 47, 0
1, 17440, Note_on_c, 0, 69, 0
1, 17440, Note_on_c, 0, 61, 0
1, 17482, Note_on_c, 0, 69, 94
1, 17482, Note_on_c, 0, 61, 96
1, 17482, Note_on_c, 0, 54, 90
1, 17486, Note_on_c, 0, 47, 71
1, 17486, Note_on_c, 0, 40, 87
1, 17493, Note_on_c, 0, 62, 98
1, 17521, Note_on_c, 0, 40, 0
1, 17541, Note_on_c, 0, 61, 0
1, 17550, Note_on_c, 0, 69, 0
1, 17558, Note_on_c, 0, 62, 0
1, 17564, Note_on_c, 0, 54, 0
1, 17564, Note_on_c, 0, 47, 0
1, 17603, Note_on_c, 0, 69, 75
1, 17603, Note_on_c, 0, 54, 93
1, 17606, Note_on_c, 0, 62, 96
1, 17611, Note_on_c, 0, 40, 73
1, 17611, Note_on_c, 0, 47, 79
1, 17639, Note_on_c, 0, 54, 0
1, 17642, Note_on_c, 0, 40, 0
1, 17650, Note_on_c, 0, 47, 0
1, 17672, Note_on_c, 0, 69, 0
1, 17677, Note_on_c, 0, 62, 0
1, 17717, Note_on_c, 0, 54, 75
1, 17720, Note_on_c, 0, 47, 54
1, 17720, Note_on_c, 0, 69, 74
1, 17720, Note_on_c, 0, 40, 66
1, 17723, Note_on_c, 0, 62, 92
1, 17755, Note_on_c, 0, 40, 0
1, 17759, Note_on_c, 0, 54, 0
1, 17767, Note_on_c, 0, 62, 0
1, 17783, Note_on_c, 0, 47, 0
1, 17806, Note_on_c, 0, 69, 0
1, 17831, Note_on_c, 0, 54, 76
1, 17836, Note_on_c, 0, 40, 66
1, 17836, Note_on_c, 0, 47, 71
1, 17845, Note_on_c, 0, 69, 87
1, 17862, Note_on_c, 0, 62, 65
1, 17872, Note_on_c, 0, 40, 0
1, 17872, Note_on_c, 0, 54, 0
1, 17884, Note_on_c, 0, 47, 0
1, 17898, Note_on_c, 0, 62, 0
1, 17934, Note_on_c, 0, 69, 0
1, 17950, Note_on_c, 0, 54, 79
1, 17957, Note_on_c, 0, 47, 54
1, 17962, Note_on_c, 0, 40, 48
1, 17975, Note_on_c, 0, 62, 76
1, 17990, Note_on_c, 0, 54, 0
1, 18001, Note_on_c, 0, 47, 0
1, 18001, Note_on_c, 0, 40, 0
1, 18034, Note_on_c, 0, 62, 0
1, 18068, Note_on_c, 0, 40, 76
1, 18071, Note_on_c, 0, 47, 50
1, 18071, Note_on_c, 0, 54, 64
1, 18074, Note_on_c, 0, 69, 84
1, 18101, Note_on_c, 0, 40, 0
1, 18110, Note_on_c, 0, 54, 0
1, 18110, Note_on_c, 0, 69, 0
1, 18115, Control_c, 0, 64, 127
1, 18131, Note_on_c, 0, 47, 0
1, 18157, Note_on_c, 0, 62, 77
1, 18210, Note_on_c, 0, 76, 105
1, 18213, Note_on_c, 0, 69, 63
1, 18218, Note_on_c, 0, 54, 72
1, 18229, Note_on_c, 0, 40, 60
1, 18237, Note_on_c, 0, 62, 0
1, 18237, Note_on_c, 0, 47, 35
1, 18248, Note_on_c, 0, 69, 0
1, 18257, Note_on_c, 0, 54, 0
1, 18262, Note_on_c, 0, 76, 0
1, 18262, Note_on_c, 0, 40, 0
1, 18282, Note_on_c, 0, 47, 0
1, 18354, Note_on_c, 0, 40, 42
1, 18358, Note_on_c, 0, 47, 23
1, 18368, Note_on_c, 0, 54, 46
1, 18396, Note_on_c, 0, 40, 0
1, 18415, Note_on_c, 0, 54, 0
1, 18430, Note_on_c, 0, 47, 0
1, 18471, Note_on_c, 0, 69, 71
1, 18477, Note_on_c, 0, 54, 49
1, 18477, Note_on_c, 0, 40, 49
1, 18477, Note_on_c, 0, 62, 70
1, 18494, Note_on_c, 0, 47, 57
1, 18513, Note_on_c, 0, 62, 0
1, 18517, Note_on_c, 0, 69, 0
1, 18517, Note_on_c, 0, 54, 0
1, 18521, Note_on_c, 0, 40, 0
1, 18533, Note_on_c, 0, 47, 0
1, 18602, Note_on_c, 0, 40, 71
1, 18602, Note_on_c, 0, 47, 39
1, 18602, Note_on_c, 0, 54, 64
1, 18636, Note_on_c, 0, 40, 0
1, 18642, Note_on_c, 0, 54, 0
1, 18655, Control_c, 0, 64, 0
1, 18669, Note_on_c, 0, 47, 0
1, 18728, Note_on_c, 0, 47, 56
1, 18728, Note_on_c, 0, 54, 66
1, 18731, Note_on_c, 0, 40, 64
1, 18731, Note_on_c, 0, 62, 87
1, 18764, Note_on_c, 0, 40, 0
1, 18764, Note_on_c, 0, 62, 0
1, 18764, Note_on_c, 0, 54, 0
1, 18784, Note_on_c, 0, 47, 0
1, 18845, Note_on_c, 0, 54, 65
1, 18845, Note_on_c, 0, 47, 61
1, 18845, Note_on_c, 0, 69, 70
1, 18856, Note_on_c, 0, 40, 39
1, 18881, Note_on_c, 0, 69, 0
1, 18889, Note_on_c, 0, 54, 0
1, 18892, Note_on_c, 0, 47, 0
1, 18901, Note_on_c, 0, 40, 0
1, 18925, Note_on_c, 0, 62, 66
1, 18929, Control_c, 0, 64, 127
1, 18967, Note_on_c, 0, 54, 72
1, 18967, Note_on_c, 0, 69, 46
1, 18967, Note_on_c, 0, 76, 103
1, 18971, Note_on_c, 0, 40, 62
1, 18981, Note_on_c, 0, 47, 39
1, 19000, Note_on_c, 0, 62, 0
1, 19000, Note_on_c, 0, 69, 0
1, 19010, Note_on_c, 0, 54, 0
1, 19010, Note_on_c, 0, 40, 0
1, 19025, Note_on_c, 0, 47, 0
1, 19034, Note_on_c, 0, 76, 0
1, 19107, Note_on_c, 0, 47, 26
1, 19107, Note_on_c, 0, 54, 57
1, 19148, Note_on_c, 0, 54, 0
1, 19166, Note_on_c, 0, 47, 0
1, 19221, Note_on_c, 0, 69, 70
1, 19227, Note_on_c, 0, 62, 61
1, 19230, Note_on_c, 0, 40, 66
1, 19235, Note_on_c, 0, 47, 42
1, 19235, Note_on_c, 0, 54, 50
1, 19254, Note_on_c, 0, 69, 0
1, 19254, Control_c, 0, 64, 0
1, 19263, Note_on_c, 0, 62, 0
1, 19263, Note_on_c, 0, 40, 0
1, 19277, Note_on_c, 0, 54, 0
1, 19285, Note_on_c, 0, 47, 0
1, 19318, Note_on_c, 0, 62, 60
1, 19343, Note_on_c, 0, 54, 64
1, 19346, Note_on_c, 0, 47, 54
1, 19354, Note_on_c, 0, 40, 61
1, 19354, Note_on_c, 0, 76, 100
1, 19360, Note_on_c, 0, 69, 69
1, 19385, Note_on_c, 0, 62, 0
1, 19385, Note_on_c, 0, 40, 0
1, 19393, Note_on_c, 0, 69, 0
1, 19399, Note_on_c, 0, 54, 0
1, 19405, Note_on_c, 0, 47, 0
1, 19421, Control_c, 0, 64, 127
1, 19444, Note_on_c, 0, 76, 0
1, 19485, Note_on_c, 0, 54, 52
1, 19494, Note_on_c, 0, 47, 28
1, 19525, Note_on_c, 0, 54, 0
1, 19544, Note_on_c, 0, 47, 0
1, 19602, Note_on_c, 0, 69, 68
1, 19605, Note_on_c, 0, 47, 51
1, 19605, Note_on_c, 0, 62, 65
1, 19605, Note_on_c, 0, 54, 57
1, 19613, Note_on_c, 0, 40, 51
1, 19625, Control_c, 0, 64, 0
1, 19634, Note_on_c, 0, 69, 0
1, 19638, Note_on_c, 0, 62, 0
1, 19644, Note_on_c, 0, 54, 0
1, 19652, Note_on_c, 0, 40, 0
1, 19661, Note_on_c, 0, 47, 0
1, 19689, Note_on_c, 0, 62, 70
1, 19727, Note_on_c, 0, 54, 68
1, 19727, Note_on_c, 0, 40, 59
1, 19727, Note_on_c, 0, 47, 49
1, 19736, Note_on_c, 0, 76, 98
1, 19741, Note_on_c, 0, 69, 57
1, 19762, Note_on_c, 0, 54, 0
1, 19762, Note_on_c, 0, 40, 0
1, 19765, Note_on_c, 0, 62, 0
1, 19781, Note_on_c, 0, 47, 0
1, 19790, Note_on_c, 0, 69, 0
1, 19794, Control_c, 0, 64, 127
1, 19829, Note_on_c, 0, 76, 0
1, 19858, Note_on_c, 0, 40, 60
1, 19864, Note_on_c, 0, 47, 28
1, 19884, Note_on_c, 0, 54, 20
1, 19893, Note_on_c, 0, 40, 0
1, 19921, Note_on_c, 0, 47, 0
1, 19931, Note_on_c, 0, 54, 0
1, 19961, Control_c, 0, 64, 0
1, 19971, Note_on_c, 0, 69, 71
1, 19971, Note_on_c, 0, 62, 74
1, 19981, Note_on_c, 0, 54, 72
1, 19987, Note_on_c, 0, 47, 44
1, 19987, Note_on_c, 0, 40, 38
1, 20004, Note_on_c, 0, 69, 0
1, 20012, Note_on_c, 0, 62, 0
1, 20032, Note_on_c, 0, 54, 0
1, 20032, Note_on_c, 0, 47, 0
1, 20032, Note_on_c, 0, 40, 0
1, 20097, Note_on_c, 0, 69, 74
1, 20097, Note_on_c, 0, 40, 81
1, 20100, Note_on_c, 0, 54, 78
1, 20100, Note_on_c, 0, 62, 88
1, 20106, Note_on_c, 0, 47, 46
1, 20137, Note_on_c, 0, 40, 0
1, 20163, Note_on_c, 0, 47, 0
1, 20166, Note_on_c, 0, 54, 0
1, 20201, Control_c, 0, 64, 127
1, 20226, Note_on_c, 0, 69, 0
1, 20226, Note_on_c, 0, 54, 71
1, 20233, Note_on_c, 0, 47, 49
1, 20246, Note_on_c, 0, 62, 0
1, 20254, Note_on_c, 0, 40, 34
1, 20277, Note_on_c, 0, 54, 0
1, 20280, Note_on_c, 0, 47, 0
1, 20302, Note_on_c, 0, 40, 0
1, 20321, Control_c, 0, 64, 0
1, 20349, Note_on_c, 0, 55, 75
1, 20357, Note_on_c, 0, 40, 84
1, 20357, Note_on_c, 0, 62, 62
1, 20369, Note_on_c, 0, 47, 42
1, 20383, Note_on_c, 0, 55, 0
1, 20389, Note_on_c, 0, 40, 0
1, 20393, Note_on_c, 0, 62, 0
1, 20413, Note_on_c, 0, 47, 0
1, 20482, Note_on_c, 0, 54, 86
1, 20482, Note_on_c, 0, 62, 60
1, 20485, Note_on_c, 0, 69, 76
1, 20485, Note_on_c, 0, 47, 38
1, 20485, Note_on_c, 0, 40, 67
1, 20522, Note_on_c, 0, 40, 0
1, 20539, Note_on_c, 0, 47, 0
1, 20539, Note_on_c, 0, 54, 0
1, 20584, Control_c, 0, 64, 127
1, 20606, Note_on_c, 0, 47, 44
1, 20614, Note_on_c, 0, 54, 50
1, 20619, Note_on_c, 0, 40, 45
1, 20623, Note_on_c, 0, 69, 0
1, 20636, Note_on_c, 0, 62, 0
1, 20659, Note_on_c, 0, 54, 0
1, 20663, Note_on_c, 0, 40, 0
1, 20680, Note_on_c, 0, 47, 0
1, 20703, Control_c, 0, 64, 0
1, 20742, Note_on_c, 0, 55, 70
1, 20742, Note_on_c, 0, 47, 56
1, 20750, Note_on_c, 0, 62, 54
1, 20756, Note_on_c, 0, 40, 55
1, 20778, Note_on_c, 0, 55, 0
1, 20786, Note_on_c, 0, 62, 0
1, 20790, Note_on_c, 0, 40, 0
1, 20790, Note_on_c, 0, 47, 0
1, 20868, Note_on_c, 0, 54, 81
1, 20868, Note_on_c, 0, 47, 41
1, 20872, Note_on_c, 0, 40, 36
1, 20872, Note_on_c, 0, 69, 68
1, 20872, Note_on_c, 0, 62, 47
1, 20923, Note_on_c, 0, 54, 0
1, 20923, Note_on_c, 0, 40, 0
1, 20927, Note_on_c, 0, 47, 0
1, 20979, Control_c, 0, 64, 127
1, 20992, Note_on_c, 0, 40, 64
1, 20992, Note_on_c, 0, 47, 44
1, 20999, Note_on_c, 0, 69, 0
1, 20999, Note_on_c, 0, 54, 49
1, 21032, Note_on_c, 0, 62, 0
1, 21045, Note_on_c, 0, 40, 0
1, 21045, Note_on_c, 0, 54, 0
1, 21051, Note_on_c, 0, 47, 0
1, 21076, Control_c, 0, 64, 0
1, 21121, Note_on_c, 0, 47, 49
1, 21121, Note_on_c, 0, 62, 44
1, 21121, Note_on_c, 0, 55, 60
1, 21129, Note_on_c, 0, 40, 63
1, 21159, Note_on_c, 0, 55, 0
1, 21159, Note_on_c, 0, 47, 0
1, 21159, Note_on_c, 0, 62, 0
1, 21165, Note_on_c, 0, 40, 0
1, 21232, Note_on_c, 0, 55, 59
1, 21237, Note_on_c, 0, 62, 55
1, 21243, Note_on_c, 0, 40, 78
1, 21243, Note_on_c, 0, 47, 51
1, 21274, Note_on_c, 0, 40, 0
1, 21277, Note_on_c, 0, 47, 0
1, 21288, Note_on_c, 0, 55, 0
1, 21310, Note_on_c, 0, 62, 0
1, 21344, Note_on_c, 0, 47, 46
1, 21352, Note_on_c, 0, 40, 63
1, 21385, Note_on_c, 0, 47, 0
1, 21385, Note_on_c, 0, 40, 0
1, 21471, Note_on_c, 0, 47, 49
1, 21485, Note_on_c, 0, 40, 54
1, 21505, Note_on_c, 0, 47, 0
1, 21520, Note_on_c, 0, 40, 0
1, 21611, Note_on_c, 0, 47, 52
1, 21611, Note_on_c, 0, 55, 49
1, 21611, Note_on_c, 0, 62, 46
1, 21622, Note_on_c, 0, 40, 46
1, 21647, Note_on_c, 0, 47, 0
1, 21661, Note_on_c, 0, 55, 0
1, 21661, Note_on_c, 0, 40, 0
1, 21664, Note_on_c, 0, 62, 0
1, 22020, Note_on_c, 0, 55, 37
1, 22020, Note_on_c, 0, 48, 28
1, 22024, Note_on_c, 0, 40, 50
1, 22076, Note_on_c, 0, 55, 0
1, 22085, Note_on_c, 0, 48, 0
1, 22121, Note_on_c, 0, 40, 0
1, 23085, Note_on_c, 0, 55, 39
1, 23107, Note_on_c, 0, 31, 16
1, 23120, Note_on_c, 0, 33, 49
1, 23127, Note_on_c, 0, 57, 43
1, 23135, Note_on_c, 0, 55, 0
1, 23154, Note_on_c, 0, 31, 0
1, 23166, Note_on_c, 0, 33, 0
1, 23173, Note_on_c, 0, 35, 44
1, 23173, Note_on_c, 0, 59, 40
1, 23213, Note_on_c, 0, 35, 0
1, 23218, Note_on_c, 0, 48, 54
1, 23218, Note_on_c, 0, 36, 57
1, 23224, Note_on_c, 0, 60, 63
1, 23235, Note_on_c, 0, 59, 0
1, 23235, Note_on_c, 0, 57, 0
1, 23252, Note_on_c, 0, 36, 0
1, 23252, Note_on_c, 0, 48, 0
1, 23269, Note_on_c, 0, 60, 0
1, 23481, Note_on_c, 0, 55, 48
1, 23492, Note_on_c, 0, 31, 35
1, 23525, Note_on_c, 0, 33, 51
1, 23541, Note_on_c, 0, 31, 0
1, 23541, Note_on_c, 0, 57, 48
1, 23552, Note_on_c, 0, 55, 0
1, 23578, Note_on_c, 0, 33, 0
1, 23578, Note_on_c, 0, 59, 26
1, 23589, Note_on_c, 0, 35, 39
1, 23612, Note_on_c, 0, 48, 57
1, 23623, Note_on_c, 0, 59, 0
1, 23623, Note_on_c, 0, 36, 53
1, 23623, Note_on_c, 0, 60, 73
1, 23631, Note_on_c, 0, 35, 0
1, 23631, Note_on_c, 0, 57, 0
1, 23650, Note_on_c, 0, 48, 0
1, 23659, Note_on_c, 0, 36, 0
1, 23669, Note_on_c, 0, 60, 0
1, 23845, Note_on_c, 0, 57, 52
1, 23854, Note_on_c, 0, 33, 46
1, 23899, Note_on_c, 0, 35, 57
1, 23899, Note_on_c, 0, 59, 41
1, 23907, Note_on_c, 0, 33, 0
1, 23914, Note_on_c, 0, 57, 0
1, 23928, Note_on_c, 0, 60, 54
1, 23949, Note_on_c, 0, 35, 0
1, 23962, Note_on_c, 0, 36, 46
1, 23974, Note_on_c, 0, 60, 0
1, 23979, Note_on_c, 0, 50, 74
1, 23987, Note_on_c, 0, 62, 75
1, 23995, Note_on_c, 0, 59, 0
1, 23995, Note_on_c, 0, 38, 54
1, 24001, Note_on_c, 0, 36, 0
1, 24016, Note_on_c, 0, 50, 0
1, 24024, Note_on_c, 0, 62, 0
1, 24032, Note_on_c, 0, 38, 0
1, 24197, Note_on_c, 0, 35, 58
1, 24211, Note_on_c, 0, 59, 54
1, 24243, Note_on_c, 0, 35, 0
1, 24249, Note_on_c, 0, 60, 53
1, 24249, Note_on_c, 0, 36, 53
1, 24279, Note_on_c, 0, 59, 0
1, 24294, Note_on_c, 0, 36, 0
1, 24294, Note_on_c, 0, 62, 50
1, 24300, Note_on_c, 0, 38, 57
1, 24350, Note_on_c, 0, 38, 0
1, 24350, Note_on_c, 0, 52, 86
1, 24353, Note_on_c, 0, 40, 100
1, 24357, Note_on_c, 0, 60, 0
1, 24357, Note_on_c, 0, 64, 82
1, 24378, Note_on_c, 0, 62, 0
1, 24378, Note_on_c, 0, 40, 0
1, 24385, Note_on_c, 0, 52, 0
1, 24402, Note_on_c, 0, 64, 0
1, 24605, Note_on_c, 0, 47, 69
1, 24608, Note_on_c, 0, 35, 78
1, 24617, Note_on_c, 0, 59, 61
1, 24641, Note_on_c, 0, 47, 0
1, 24641, Note_on_c, 0, 35, 0
1, 24658, Note_on_c, 0, 59, 0
1, 24737, Note_on_c, 0, 64, 80
1, 24740, Note_on_c, 0, 52, 70
1, 24745, Note_on_c, 0, 40, 89
1, 24773, Note_on_c, 0, 52, 0
1, 24773, Note_on_c, 0, 40, 0
1, 24781, Note_on_c, 0, 64, 0
1, 24984, Note_on_c, 0, 48, 51
1, 24992, Note_on_c, 0, 60, 66
1, 25001, Note_on_c, 0, 36, 32
1, 25026, Note_on_c, 0, 48, 0
1, 25034, Note_on_c, 0, 60, 0
1, 25049, Note_on_c, 0, 36, 0
1, 25121, Note_on_c, 0, 65, 63
1, 25121, Note_on_c, 0, 53, 83
1, 25133, Note_on_c, 0, 41, 52
1, 25155, Note_on_c, 0, 53, 0
1, 25155, Note_on_c, 0, 65, 0
1, 25172, Note_on_c, 0, 41, 0
1, 25372, Note_on_c, 0, 48, 60
1, 25375, Note_on_c, 0, 60, 67
1, 25388, Note_on_c, 0, 36, 44
1, 25410, Note_on_c, 0, 48, 0
1, 25419, Note_on_c, 0, 60, 0
1, 25433, Note_on_c, 0, 36, 0
1, 25505, Note_on_c, 0, 53, 79
1, 25505, Note_on_c, 0, 41, 59
1, 25514, Note_on_c, 0, 65, 37
1, 25539, Note_on_c, 0, 53, 0
1, 25544, Note_on_c, 0, 41, 0
1, 25558, Note_on_c, 0, 65, 0
1, 25747, Note_on_c, 0, 61, 62
1, 25747, Note_on_c, 0, 49, 60
1, 25756, Note_on_c, 0, 37, 49
1, 25787, Note_on_c, 0, 49, 0
1, 25792, Note_on_c, 0, 61, 0
1, 25800, Note_on_c, 0, 37, 0
1, 25870, Note_on_c, 0, 42, 48
1, 25881, Note_on_c, 0, 54, 59
1, 25884, Note_on_c, 0, 66, 50
1, 25907, Note_on_c, 0, 42, 0
1, 25920, Note_on_c, 0, 54, 0
1, 25928, Note_on_c, 0, 66, 0
1, 26122, Note_on_c, 0, 50, 59
1, 26122, Note_on_c, 0, 38, 53
1, 26125, Note_on_c, 0, 62, 63
1, 26166, Note_on_c, 0, 38, 0
1, 26166, Note_on_c, 0, 50, 0
1, 26169, Note_on_c, 0, 62, 0
1, 26255, Note_on_c, 0, 55, 55
1, 26258, Note_on_c, 0, 67, 54
1, 26268, Note_on_c, 0, 43, 61
1, 26297, Note_on_c, 0, 55, 0
1, 26310, Note_on_c, 0, 67, 0
1, 26310, Note_on_c, 0, 43, 0
1, 26486, Note_on_c, 0, 63, 69
1, 26491, Note_on_c, 0, 51, 57
1, 26495, Note_on_c, 0, 39, 44
1, 26531, Note_on_c, 0, 63, 0
1, 26534, Note_on_c, 0, 51, 0
1, 26545, Note_on_c, 0, 39, 0
1, 26598, Note_on_c, 0, 44, 72
1, 26598, Note_on_c, 0, 56, 68
1, 26603, Note_on_c, 0, 68, 68
1, 26637, Note_on_c, 0, 56, 0
1, 26640, Note_on_c, 0, 44, 0
1, 26640, Note_on_c, 0, 68, 0
1, 26715, Note_on_c, 0, 52, 83
1, 26718, Note_on_c, 0, 40, 88
1, 26718, Note_on_c, 0, 64, 70
1, 26743, Note_on_c, 0, 52, 0
1, 26747, Note_on_c, 0, 40, 0
1, 26756, Note_on_c, 0, 64, 0
1, 26812, Note_on_c, 0, 57, 67
1, 26812, Note_on_c, 0, 69, 65
1, 26820, Note_on_c, 0, 45, 71
1, 26848, Note_on_c, 0, 57, 0
1, 26856, Note_on_c, 0, 69, 0
1, 26856, Note_on_c, 0, 45, 0
1, 26932, Note_on_c, 0, 65, 76
1, 26938, Note_on_c, 0, 53, 100
1, 26941, Note_on_c, 0, 41, 79
1, 26966, Note_on_c, 0, 53, 0
1, 26973, Note_on_c, 0, 41, 0
1, 26988, Note_on_c, 0, 65, 0
1, 27043, Note_on_c, 0, 54, 62
1, 27046, Note_on_c, 0, 66, 75
1, 27046, Note_on_c, 0, 42, 70
1, 27076, Note_on_c, 0, 42, 0
1, 27082, Note_on_c, 0, 54, 0
1, 27082, Note_on_c, 0, 66, 0
1, 27165, Note_on_c, 0, 71, 75
1, 27168, Note_on_c, 0, 35, 84
1, 27174, Note_on_c, 0, 59, 41
1, 27177, Note_on_c, 0, 47, 51
1, 27196, Note_on_c, 0, 35, 0
1, 27196, Note_on_c, 0, 71, 0
1, 27219, Note_on_c, 0, 59, 0
1, 27219, Note_on_c, 0, 47, 0
1, 27283, Note_on_c, 0, 76, 91
1, 27289, Note_on_c, 0, 52, 98
1, 27289, Note_on_c, 0, 64, 79
1, 27293, Note_on_c, 0, 40, 97
1, 27311, Note_on_c, 0, 76, 0
1, 27314, Note_on_c, 0, 52, 0
1, 27324, Note_on_c, 0, 40, 0
1, 27333, Note_on_c, 0, 64, 0
1, 27536, Note_on_c, 0, 35, 85
1, 27540, Note_on_c, 0, 47, 67
1, 27548, Note_on_c, 0, 71, 75
1, 27555, Note_on_c, 0, 59, 45
1, 27564, Note_on_c, 0, 35, 0
1, 27576, Note_on_c, 0, 47, 0
1, 27581, Note_on_c, 0, 71, 0
1, 27598, Note_on_c, 0, 59, 0
1, 27667, Note_on_c, 0, 76, 87
1, 27676, Note_on_c, 0, 52, 87
1, 27679, Note_on_c, 0, 64, 68
1, 27679, Note_on_c, 0, 40, 92
1, 27701, Note_on_c, 0, 76, 0
1, 27706, Note_on_c, 0, 52, 0
1, 27709, Note_on_c, 0, 40, 0
1, 27725, Note_on_c, 0, 64, 0
1, 27934, Note_on_c, 0, 36, 71
1, 27934, Note_on_c, 0, 72, 72
1, 27937, Note_on_c, 0, 60, 60
1, 27937, Note_on_c, 0, 48, 55
1, 27963, Note_on_c, 0, 36, 0
1, 27966, Note_on_c, 0, 72, 0
1, 27977, Note_on_c, 0, 60, 0
1, 27977, Note_on_c, 0, 48, 0
1, 28058, Note_on_c, 0, 77, 94
1, 28065, Note_on_c, 0, 53, 96
1, 28065, Note_on_c, 0, 65, 68
1, 28068, Note_on_c, 0, 41, 84
1, 28091, Note_on_c, 0, 77, 0
1, 28094, Note_on_c, 0, 53, 0
1, 28102, Note_on_c, 0, 41, 0
1, 28111, Note_on_c, 0, 65, 0
1, 28313, Note_on_c, 0, 36, 72
1, 28313, Note_on_c, 0, 72, 67
1, 28317, Note_on_c, 0, 60, 57
1, 28317, Note_on_c, 0, 48, 59
1, 28342, Note_on_c, 0, 36, 0
1, 28349, Note_on_c, 0, 72, 0
1, 28358, Note_on_c, 0, 48, 0
1, 28358, Note_on_c, 0, 60, 0
1, 28439, Note_on_c, 0, 77, 85
1, 28456, Note_on_c, 0, 41, 68
1, 28456, Note_on_c, 0, 53, 67
1, 28466, Note_on_c, 0, 77, 0
1, 28469, Note_on_c, 0, 65, 19
1, 28495, Note_on_c, 0, 41, 0
1, 28495, Note_on_c, 0, 53, 0
1, 28519, Note_on_c, 0, 65, 0
1, 28684, Note_on_c, 0, 73, 70
1, 28689, Note_on_c, 0, 61, 68
1, 28692, Note_on_c, 0, 49, 59
1, 28692, Note_on_c, 0, 37, 63
1, 28715, Note_on_c, 0, 73, 0
1, 28723, Note_on_c, 0, 61, 0
1, 28723, Note_on_c, 0, 37, 0
1, 28723, Note_on_c, 0, 49, 0
1, 28813, Note_on_c, 0, 78, 85
1, 28817, Note_on_c, 0, 66, 68
1, 28820, Note_on_c, 0, 54, 79
1, 28826, Note_on_c, 0, 42, 66
1, 28849, Note_on_c, 0, 78, 0
1, 28856, Note_on_c, 0, 54, 0
1, 28859, Note_on_c, 0, 42, 0
1, 28859, Note_on_c, 0, 66, 0
1, 29060, Note_on_c, 0, 74, 72
1, 29065, Note_on_c, 0, 38, 64
1, 29065, Note_on_c, 0, 50, 68
1, 29071, Note_on_c, 0, 62, 37
1, 29090, Note_on_c, 0, 74, 0
1, 29099, Note_on_c, 0, 38, 0
1, 29104, Note_on_c, 0, 50, 0
1, 29122, Note_on_c, 0, 62, 0
1, 29179, Note_on_c, 0, 79, 103
1, 29183, Note_on_c, 0, 67, 80
1, 29193, Note_on_c, 0, 55, 81
1, 29199, Note_on_c, 0, 43, 76
1, 29218, Note_on_c, 0, 79, 0
1, 29222, Note_on_c, 0, 55, 0
1, 29222, Note_on_c, 0, 67, 0
1, 29230, Note_on_c, 0, 43, 0
1, 29425, Note_on_c, 0, 75, 73
1, 29428, Note_on_c, 0, 63, 68
1, 29431, Note_on_c, 0, 39, 50
1, 29453, Note_on_c, 0, 75, 0
1, 29456, Note_on_c, 0, 51, 12
1, 29459, Note_on_c, 0, 63, 0
1, 29469, Note_on_c, 0, 39, 0
1, 29497, Note_on_c, 0, 51, 0
1, 29540, Note_on_c, 0, 80, 88
1, 29540, Note_on_c, 0, 56, 65
1, 29544, Note_on_c, 0, 68, 79
1, 29548, Note_on_c, 0, 44, 72
1, 29565, Note_on_c, 0, 80, 0
1, 29576, Note_on_c, 0, 56, 0
1, 29576, Note_on_c, 0, 68, 0
1, 29579, Note_on_c, 0, 44, 0
1, 29659, Note_on_c, 0, 52, 78
1, 29664, Note_on_c, 0, 76, 66
1, 29670, Note_on_c, 0, 64, 57
1, 29678, Note_on_c, 0, 40, 17
1, 29693, Note_on_c, 0, 52, 0
1, 29696, Note_on_c, 0, 76, 0
1, 29706, Note_on_c, 0, 64, 0
1, 29717, Note_on_c, 0, 40, 0
1, 29770, Note_on_c, 0, 81, 101
1, 29776, Note_on_c, 0, 69, 62
1, 29776, Note_on_c, 0, 45, 78
1, 29790, Note_on_c, 0, 57, 33
1, 29790, Note_on_c, 0, 81, 0
1, 29809, Note_on_c, 0, 45, 0
1, 29817, Note_on_c, 0, 69, 0
1, 29846, Note_on_c, 0, 57, 0
1, 29887, Note_on_c, 0, 41, 97
1, 29887, Note_on_c, 0, 53, 105
1, 29887, Note_on_c, 0, 77, 98
1, 29890, Note_on_c, 0, 65, 96
1, 29912, Note_on_c, 0, 41, 0
1, 29912, Note_on_c, 0, 53, 0
1, 29912, Note_on_c, 0, 77, 0
1, 29918, Note_on_c, 0, 65, 0
1, 29998, Note_on_c, 0, 54, 92
1, 30001, Note_on_c, 0, 42, 85
1, 30004, Note_on_c, 0, 78, 94
1, 30004, Note_on_c, 0, 66, 76
1, 30024, Note_on_c, 0, 54, 0
1, 30024, Note_on_c, 0, 42, 0
1, 30024, Note_on_c, 0, 78, 0
1, 30032, Note_on_c, 0, 66, 0
1, 30122, Note_on_c, 0, 83, 107
1, 30122, Note_on_c, 0, 71, 83
1, 30135, Note_on_c, 0, 59, 74
1, 30149, Note_on_c, 0, 83, 0
1, 30155, Note_on_c, 0, 71, 0
1, 30163, Note_on_c, 0, 59, 0
1, 30255, Note_on_c, 0, 88, 106
1, 30255, Note_on_c, 0, 76, 91
1, 30264, Note_on_c, 0, 52, 78
1, 30264, Note_on_c, 0, 64, 95
1, 30289, Note_on_c, 0, 64, 0
1, 30299, Note_on_c, 0, 76, 0
1, 30308, Note_on_c, 0, 52, 0
1, 30334, Note_on_c, 0, 88, 0
1, 30497, Note_on_c, 0, 47, 76
1, 30500, Note_on_c, 0, 71, 86
1, 30500, Note_on_c, 0, 59, 81
1, 30500, Note_on_c, 0, 83, 93
1, 30528, Note_on_c, 0, 47, 0
1, 30528, Note_on_c, 0, 71, 0
1, 30544, Note_on_c, 0, 59, 0
1, 30550, Note_on_c, 0, 83, 0
1, 30632, Note_on_c, 0, 88, 102
1, 30632, Note_on_c, 0, 64, 104
1, 30637, Note_on_c, 0, 76, 83
1, 30637, Note_on_c, 0, 52, 103
1, 30673, Note_on_c, 0, 88, 0
1, 30685, Note_on_c, 0, 64, 0
1, 30685, Note_on_c, 0, 52, 0
1, 30696, Note_on_c, 0, 76, 0
1, 30885, Note_on_c, 0, 83, 110
1, 30885, Note_on_c, 0, 71, 91
1, 30891, Note_on_c, 0, 47, 84
1, 30891, Note_on_c, 0, 59, 89
1, 30918, Note_on_c, 0, 71, 0
1, 30921, Note_on_c, 0, 47, 0
1, 30943, Note_on_c, 0, 59, 0
1, 30943, Note_on_c, 0, 83, 0
1, 31022, Note_on_c, 0, 88, 106
1, 31026, Note_on_c, 0, 76, 95
1, 31033, Note_on_c, 0, 64, 103
1, 31038, Note_on_c, 0, 52, 105
1, 31047, Control_c, 0, 64, 127
1, 31074, Note_on_c, 0, 52, 0
1, 31094, Note_on_c, 0, 64, 0
1, 31104, Note_on_c, 0, 88, 0
1, 31122, Note_on_c, 0, 76, 0
1, 31130, Control_c, 0, 64, 0
1, 31283, Note_on_c, 0, 84, 98
1, 31283, Note_on_c, 0, 72, 91
1, 31288, Note_on_c, 0, 60, 89
1, 31288, Note_on_c, 0, 48, 85
1, 31314, Note_on_c, 0, 72, 0
1, 31314, Note_on_c, 0, 48, 0
1, 31336, Note_on_c, 0, 60, 0
1, 31361, Note_on_c, 0, 84, 0
1, 31394, Control_c, 0, 64, 127
1, 31417, Note_on_c, 0, 88, 101
1, 31422, Note_on_c, 0, 76, 91
1, 31422, Note_on_c, 0, 64, 102
1, 31422, Note_on_c, 0, 52, 98
1, 31484, Note_on_c, 0, 52, 0
1, 31490, Note_on_c, 0, 76, 0
1, 31490, Note_on_c, 0, 64, 0
1, 31490, Control_c, 0, 64, 0
1, 31508, Note_on_c, 0, 88, 0
1, 31654, Note_on_c, 0, 60, 88
1, 31654, Note_on_c, 0, 84, 98
1, 31657, Note_on_c, 0, 72, 85
1, 31657, Note_on_c, 0, 48, 67
1, 31687, Note_on_c, 0, 72, 0
1, 31693, Note_on_c, 0, 60, 0
1, 31696, Note_on_c, 0, 48, 0
1, 31714, Note_on_c, 0, 84, 0
1, 31718, Control_c, 0, 64, 127
1, 31742, Control_c, 0, 64, 0
1, 31796, Note_on_c, 0, 88, 105
1, 31801, Note_on_c, 0, 64, 100
1, 31801, Note_on_c, 0, 76, 101
1, 31809, Note_on_c, 0, 52, 99
1, 31834, Note_on_c, 0, 64, 0
1, 31834, Note_on_c, 0, 52, 0
1, 31846, Note_on_c, 0, 76, 0
1, 31859, Note_on_c, 0, 88, 0
1, 31910, Control_c, 0, 64, 127
1, 31957, Note_on_c, 0, 61, 95
1, 31965, Note_on_c, 0, 49, 78
1, 31969, Note_on_c, 0, 80, 85
1, 31972, Note_on_c, 0, 76, 91
1, 31972, Note_on_c, 0, 85, 71
1, 31979, Note_on_c, 0, 88, 69
1, 31983, Note_on_c, 0, 61, 0
1, 31987, Note_on_c, 0, 56, 22
1, 31994, Note_on_c, 0, 80, 0
1, 31994, Note_on_c, 0, 49, 0
1, 31999, Note_on_c, 0, 76, 0
1, 31999, Note_on_c, 0, 85, 0
1, 32013, Note_on_c, 0, 88, 0
1, 32030, Note_on_c, 0, 76, 93
1, 32030, Note_on_c, 0, 80, 77
1, 32033, Note_on_c, 0, 61, 81
1, 32033, Note_on_c, 0, 49, 86
1, 32036, Note_on_c, 0, 85, 90
1, 32040, Note_on_c, 0, 88, 83
1, 32100, Note_on_c, 0, 61, 0
1, 32108, Note_on_c, 0, 49, 0
1, 32118, Note_on_c, 0, 76, 0
1, 32125, Note_on_c, 0, 56, 0
1, 32132, Note_on_c, 0, 80, 0
1, 32132, Note_on_c, 0, 85, 0
1, 32136, Note_on_c, 0, 88, 0
1, 32200, Note_on_c, 0, 80, 77
1, 32200, Note_on_c, 0, 76, 101
1, 32200, Note_on_c, 0, 85, 75
1, 32203, Note_on_c, 0, 61, 99
1, 32203, Note_on_c, 0, 88, 75
1, 32210, Note_on_c, 0, 56, 66
1, 32210, Note_on_c, 0, 49, 84
1, 32231, Note_on_c, 0, 61, 0
1, 32241, Note_on_c, 0, 49, 0
1, 32241, Note_on_c, 0, 56, 0
1, 32250, Note_on_c, 0, 76, 0
1, 32270, Note_on_c, 0, 88, 0
1, 32273, Note_on_c, 0, 85, 0
1, 32289, Note_on_c, 0, 80, 0
1, 32359, Note_on_c, 0, 56, 75
1, 32363, Note_on_c, 0, 52, 87
1, 32366, Note_on_c, 0, 80, 69
1, 32366, Note_on_c, 0, 44, 88
1, 32366, Note_on_c, 0, 76, 95
1, 32366, Note_on_c, 0, 85, 72
1, 32375, Note_on_c, 0, 88, 66
1, 32391, Note_on_c, 0, 52, 0
1, 32391, Note_on_c, 0, 44, 0
1, 32391, Note_on_c, 0, 76, 0
1, 32391, Note_on_c, 0, 56, 0
1, 32391, Note_on_c, 0, 80, 0
1, 32397, Note_on_c, 0, 85, 0
1, 32409, Note_on_c, 0, 88, 0
1, 32426, Note_on_c, 0, 76, 84
1, 32426, Note_on_c, 0, 80, 88
1, 32430, Note_on_c, 0, 85, 90
1, 32430, Note_on_c, 0, 44, 85
1, 32430, Note_on_c, 0, 56, 81
1, 32434, Note_on_c, 0, 88, 96
1, 32439, Note_on_c, 0, 52, 91
1, 32508, Note_on_c, 0, 56, 0
1, 32508, Note_on_c, 0, 88, 0
1, 32508, Note_on_c, 0, 76, 0
1, 32523, Note_on_c, 0, 44, 0
1, 32529, Note_on_c, 0, 80, 0
1, 32529, Note_on_c, 0, 52, 0
1, 32539, Note_on_c, 0, 85, 0
1, 32582, Note_on_c, 0, 85, 91
1, 32582, Note_on_c, 0, 80, 82
1, 32585, Note_on_c, 0, 76, 99
1, 32585, Note_on_c, 0, 88, 85
1, 32585, Note_on_c, 0, 52, 93
1, 32585, Note_on_c, 0, 56, 88
1, 32589, Note_on_c, 0, 44, 85
1, 32646, Note_on_c, 0, 56, 0
1, 32649, Note_on_c, 0, 52, 0
1, 32656, Note_on_c, 0, 76, 0
1, 32662, Note_on_c, 0, 44, 0
1, 32662, Note_on_c, 0, 80, 0
1, 32671, Note_on_c, 0, 88, 0
1, 32676, Note_on_c, 0, 85, 0
1, 32754, Note_on_c, 0, 52, 103
1, 32754, Note_on_c, 0, 49, 90
1, 32759, Note_on_c, 0, 85, 66
1, 32759, Note_on_c, 0, 76, 95
1, 32759, Note_on_c, 0, 80, 84
1, 32759, Note_on_c, 0, 40, 103
1, 32763, Note_on_c, 0, 88, 69
1, 32777, Note_on_c, 0, 52, 0
1, 32777, Note_on_c, 0, 49, 0
1, 32782, Note_on_c, 0, 76, 0
1, 32782, Note_on_c, 0, 40, 0
1, 32785, Note_on_c, 0, 80, 0
1, 32785, Note_on_c, 0, 85, 0
1, 32795, Note_on_c, 0, 88, 0
1, 32820, Note_on_c, 0, 80, 86
1, 32820, Note_on_c, 0, 76, 80
1, 32824, Note_on_c, 0, 85, 88
1, 32824, Note_on_c, 0, 88, 108
1, 32824, Note_on_c, 0, 40, 106
1, 32831, Note_on_c, 0, 52, 88
1, 32831, Note_on_c, 0, 49, 50
1, 32894, Note_on_c, 0, 88, 0
1, 32894, Note_on_c, 0, 40, 0
1, 32894, Note_on_c, 0, 52, 0
1, 32910, Note_on_c, 0, 49, 0
1, 32915, Note_on_c, 0, 76, 0
1, 32919, Note_on_c, 0, 80, 0
1, 32924, Note_on_c, 0, 85, 0
1, 32977, Note_on_c, 0, 85, 84
1, 32977, Note_on_c, 0, 80, 83
1, 32977, Note_on_c, 0, 76, 97
1, 32977, Note_on_c, 0, 88, 99
1, 32982, Note_on_c, 0, 52, 103
1, 32985, Note_on_c, 0, 49, 76
1, 32990, Note_on_c, 0, 40, 89
1, 33015, Note_on_c, 0, 52, 0
1, 33022, Note_on_c, 0, 40, 0
1, 33030, Note_on_c, 0, 49, 0
1, 33047, Note_on_c, 0, 76, 0
1, 33057, Note_on_c, 0, 88, 0
1, 33066, Note_on_c, 0, 80, 0
1, 33071, Note_on_c, 0, 85, 0
1, 33149, Note_on_c, 0, 49, 95
1, 33153, Note_on_c, 0, 76, 104
1, 33153, Note_on_c, 0, 85, 81
1, 33153, Note_on_c, 0, 37, 91
1, 33156, Note_on_c, 0, 80, 85
1, 33163, Note_on_c, 0, 44, 65
1, 33163, Note_on_c, 0, 88, 81
1, 33172, Note_on_c, 0, 76, 0
1, 33177, Note_on_c, 0, 85, 0
1, 33177, Note_on_c, 0, 37, 0
1, 33177, Note_on_c, 0, 49, 0
1, 33177, Note_on_c, 0, 80, 0
1, 33192, Note_on_c, 0, 88, 0
1, 33197, Note_on_c, 0, 44, 0
1, 33222, Note_on_c, 0, 88, 105
1, 33222, Note_on_c, 0, 76, 41
1, 33222, Note_on_c, 0, 37, 70
1, 33222, Note_on_c, 0, 80, 66
1, 33222, Note_on_c, 0, 85, 78
1, 33227, Note_on_c, 0, 49, 81
1, 33233, Note_on_c, 0, 44, 90
1, 33288, Note_on_c, 0, 88, 0
1, 33288, Note_on_c, 0, 37, 0
1, 33292, Note_on_c, 0, 49, 0
1, 33299, Note_on_c, 0, 76, 0
1, 33303, Note_on_c, 0, 44, 0
1, 33309, Note_on_c, 0, 80, 0
1, 33313, Note_on_c, 0, 85, 0
1, 33353, Note_on_c, 0, 49, 76
1, 33353, Note_on_c, 0, 44, 79
1, 33359, Note_on_c, 0, 37, 73
1, 33359, Note_on_c, 0, 76, 92
1, 33359, Note_on_c, 0, 85, 86
1, 33362, Note_on_c, 0, 80, 84
1, 33362, Note_on_c, 0, 88, 89
1, 33398, Note_on_c, 0, 37, 0
1, 33405, Note_on_c, 0, 49, 0
1, 33417, Note_on_c, 0, 44, 0
1, 33439, Note_on_c, 0, 85, 0
1, 33439, Note_on_c, 0, 88, 0
1, 33445, Note_on_c, 0, 76, 0
1, 33450, Note_on_c, 0, 80, 0
1, 33481, Note_on_c, 0, 44, 86
1, 33484, Note_on_c, 0, 85, 89
1, 33487, Note_on_c, 0, 88, 87
1, 33487, Note_on_c, 0, 76, 95
1, 33487, Note_on_c, 0, 80, 95
1, 33490, Note_on_c, 0, 32, 89
1, 33504, Note_on_c, 0, 40, 76
1, 33525, Note_on_c, 0, 32, 0
1, 33534, Note_on_c, 0, 88, 0
1, 33534, Note_on_c, 0, 40, 0
1, 33554, Note_on_c, 0, 80, 0
1, 33561, Note_on_c, 0, 44, 0
1, 33561, Note_on_c, 0, 85, 0
1, 33571, Note_on_c, 0, 76, 0
1, 33596, Note_on_c, 0, 44, 97
1, 33596, Note_on_c, 0, 40, 103
1, 33599, Note_on_c, 0, 32, 83
1, 33604, Note_on_c, 0, 76, 104
1, 33604, Note_on_c, 0, 80, 83
1, 33604, Note_on_c, 0, 85, 90
1, 33607, Note_on_c, 0, 88, 92
1, 33651, Note_on_c, 0, 88, 0
1, 33659, Note_on_c, 0, 40, 0
1, 33667, Note_on_c, 0, 76, 0
1, 33671, Note_on_c, 0, 32, 0
1, 33678, Note_on_c, 0, 44, 0
1, 33690, Note_on_c, 0, 85, 0
1, 33690, Note_on_c, 0, 80, 0
1, 33720, Note_on_c, 0, 44, 92
1, 33724, Note_on_c, 0, 32, 79
1, 33724, Note_on_c, 0, 76, 84
1, 33724, Note_on_c, 0, 80, 98
1, 33727, Note_on_c, 0, 85, 97
1, 33727, Note_on_c, 0, 40, 79
1, 33731, Note_on_c, 0, 88, 95
1, 33759, Note_on_c, 0, 88, 0
1, 33791, Note_on_c, 0, 32, 0
1, 33799, Note_on_c, 0, 44, 0
1, 33805, Note_on_c, 0, 76, 0
1, 33805, Note_on_c, 0, 40, 0
1, 33810, Note_on_c, 0, 85, 0
1, 33813, Note_on_c, 0, 80, 0
1, 33844, Note_on_c, 0, 44, 88
1, 33849, Note_on_c, 0, 32, 75
1, 33849, Note_on_c, 0, 40, 108
1, 33849, Note_on_c, 0, 76, 98
1, 33852, Note_on_c, 0, 80, 96
1, 33852, Note_on_c, 0, 85, 92
1, 33855, Note_on_c, 0, 88, 100
1, 33882, Note_on_c, 0, 88, 0
1, 33901, Note_on_c, 0, 32, 0
1, 33905, Note_on_c, 0, 40, 0
1, 33912, Note_on_c, 0, 85, 0
1, 33918, Note_on_c, 0, 80, 0
1, 33922, Note_on_c, 0, 44, 0
1, 33937, Note_on_c, 0, 76, 0
1, 33966, Note_on_c, 0, 44, 90
1, 33972, Note_on_c, 0, 76, 108
1, 33972, Note_on_c, 0, 32, 76
1, 33975, Note_on_c, 0, 80, 84
1, 33975, Note_on_c, 0, 85, 79
1, 33975, Note_on_c, 0, 40, 92
1, 33979, Note_on_c, 0, 88, 99
1, 34004, Note_on_c, 0, 88, 0
1, 34030, Note_on_c, 0, 32, 0
1, 34035, Note_on_c, 0, 44, 0
1, 34044, Note_on_c, 0, 80, 0
1, 34047, Note_on_c, 0, 40, 0
1, 34050, Note_on_c, 0, 85, 0
1, 34063, Note_on_c, 0, 76, 0
1, 34094, Note_on_c, 0, 44, 83
1, 34100, Note_on_c, 0, 40, 100
1, 34103, Note_on_c, 0, 76, 100
1, 34103, Note_on_c, 0, 85, 89
1, 34103, Note_on_c, 0, 80, 83
1, 34107, Note_on_c, 0, 32, 54
1, 34111, Note_on_c, 0, 88, 87
1, 34125, Note_on_c, 0, 40, 0
1, 34138, Note_on_c, 0, 88, 0
1, 34142, Note_on_c, 0, 32, 0
1, 34147, Note_on_c, 0, 76, 0
1, 34164, Note_on_c, 0, 44, 0
1, 34167, Note_on_c, 0, 80, 0
1, 34181, Note_on_c, 0, 85, 0
1, 34253, Note_on_c, 0, 52, 117
1, 34308, Note_on_c, 0, 52, 0
1, 34390, Note_on_c, 0, 56, 105
1, 34454, Note_on_c, 0, 56, 0
1, 34573, Note_on_c, 0, 64, 117
1, 34606, Control_c, 0, 64, 0
1, 34879, Note_on_c, 0, 61, 91
1, 34921, Note_on_c, 0, 64, 0
1, 35085, Note_on_c, 0, 61, 0
1, 35183, Note_on_c, 0, 52, 113
1, 35256, Note_on_c, 0, 52, 0
1, 35317, Note_on_c, 0, 56, 104
1, 35400, Note_on_c, 0, 56, 0
1, 35456, Note_on_c, 0, 64, 110
1, 35685, Control_c, 0, 64, 127
1, 35713, Note_on_c, 0, 61, 95
1, 35732, Note_on_c, 0, 64, 0
1, 35791, Note_on_c, 0, 61, 0
1, 35791, Control_c, 0, 64, 0
1, 35852, Note_on_c, 0, 63, 97
1, 35865, Note_on_c, 0, 64, 101
1, 35950, Note_on_c, 0, 63, 0
1, 36069, Control_c, 0, 64, 127
1, 36116, Control_c, 0, 64, 0
1, 36116, Note_on_c, 0, 61, 79
1, 36122, Note_on_c, 0, 64, 0
1, 36166, Note_on_c, 0, 61, 0
1, 36261, Note_on_c, 0, 63, 71
1, 36295, Note_on_c, 0, 64, 50
1, 36342, Note_on_c, 0, 63, 0
1, 36451, Control_c, 0, 64, 127
1, 36512, Control_c, 0, 64, 0
1, 36526, Note_on_c, 0, 64, 0
1, 36526, Note_on_c, 0, 61, 57
1, 36570, Note_on_c, 0, 61, 0
1, 36670, Note_on_c, 0, 63, 62
1, 36677, Note_on_c, 0, 64, 63
1, 36715, Note_on_c, 0, 63, 0
1, 36743, Note_on_c, 0, 64, 0
1, 36751, Control_c, 0, 64, 127
1, 36798, Note_on_c, 0, 64, 72
1, 36838, Note_on_c, 0, 64, 0
1, 36916, Note_on_c, 0, 64, 44
1, 36961, Note_on_c, 0, 64, 0
1, 37046, Note_on_c, 0, 64, 51
1, 37091, Note_on_c, 0, 64, 0
1, 37169, Note_on_c, 0, 64, 57
1, 37208, Note_on_c, 0, 64, 0
1, 37283, Note_on_c, 0, 64, 63
1, 37326, Note_on_c, 0, 64, 0
1, 37417, Note_on_c, 0, 63, 75
1, 37423, Note_on_c, 0, 59, 66
1, 37423, Note_on_c, 0, 64, 64
1, 37456, Note_on_c, 0, 63, 0
1, 37461, Note_on_c, 0, 59, 0
1, 37470, Note_on_c, 0, 64, 0
1, 37548, Note_on_c, 0, 64, 60
1, 37554, Note_on_c, 0, 59, 48
1, 37592, Note_on_c, 0, 64, 0
1, 37596, Note_on_c, 0, 59, 0
1, 37682, Note_on_c, 0, 64, 50
1, 37682, Note_on_c, 0, 59, 44
1, 37724, Note_on_c, 0, 59, 0
1, 37735, Note_on_c, 0, 64, 0
1, 37802, Note_on_c, 0, 59, 52
1, 37815, Note_on_c, 0, 64, 39
1, 37849, Note_on_c, 0, 59, 0
1, 37858, Note_on_c, 0, 64, 0
1, 37933, Note_on_c, 0, 59, 47
1, 37943, Note_on_c, 0, 64, 42
1, 37980, Note_on_c, 0, 59, 0
1, 37980, Note_on_c, 0, 64, 0
1, 38050, Note_on_c, 0, 59, 61
1, 38058, Note_on_c, 0, 64, 39
1, 38086, Note_on_c, 0, 59, 0
1, 38103, Note_on_c, 0, 64, 0
1, 38195, Note_on_c, 0, 52, 81
1, 38199, Note_on_c, 0, 64, 39
1, 38203, Note_on_c, 0, 59, 61
1, 38231, Note_on_c, 0, 52, 0
1, 38247, Note_on_c, 0, 64, 0
1, 38250, Note_on_c, 0, 59, 0
1, 38317, Note_on_c, 0, 59, 49
1, 38317, Note_on_c, 0, 64, 36
1, 38325, Note_on_c, 0, 52, 41
1, 38365, Note_on_c, 0, 64, 0
1, 38370, Note_on_c, 0, 52, 0
1, 38387, Note_on_c, 0, 59, 0
1, 38451, Note_on_c, 0, 59, 52
1, 38456, Note_on_c, 0, 52, 38
1, 38462, Note_on_c, 0, 64, 16
1, 38501, Note_on_c, 0, 52, 0
1, 38501, Note_on_c, 0, 59, 0
1, 38510, Note_on_c, 0, 64, 0
1, 38581, Note_on_c, 0, 45, 61
1, 38581, Note_on_c, 0, 52, 48
1, 38581, Note_on_c, 0, 64, 44
1, 38584, Note_on_c, 0, 59, 40
1, 38626, Note_on_c, 0, 45, 0
1, 38626, Note_on_c, 0, 52, 0
1, 38626, Note_on_c, 0, 64, 0
1, 38640, Note_on_c, 0, 59, 0
1, 38712, Note_on_c, 0, 59, 43
1, 38712, Note_on_c, 0, 45, 34
1, 38721, Note_on_c, 0, 64, 24
1, 38721, Note_on_c, 0, 52, 37
1, 38763, Note_on_c, 0, 45, 0
1, 38766, Note_on_c, 0, 59, 0
1, 38766, Note_on_c, 0, 52, 0
1, 38773, Note_on_c, 0, 64, 0
1, 38830, Note_on_c, 0, 45, 29
1, 38840, Note_on_c, 0, 52, 42
1, 38844, Note_on_c, 0, 59, 37
1, 38858, Note_on_c, 0, 64, 12
1, 38882, Note_on_c, 0, 45, 0
1, 38882, Note_on_c, 0, 52, 0
1, 38894, Note_on_c, 0, 59, 0
1, 38900, Note_on_c, 0, 64, 0
1, 38963, Note_on_c, 0, 64, 59
1, 38963, Note_on_c, 0, 59, 42
1, 38963, Note_on_c, 0, 52, 54
1, 38975, Note_on_c, 0, 40, 79
1, 38975, Note_on_c, 0, 45, 24
1, 39008, Note_on_c, 0, 64, 0
1, 39008, Note_on_c, 0, 40, 0
1, 39014, Note_on_c, 0, 52, 0
1, 39025, Note_on_c, 0, 59, 0
1, 39032, Note_on_c, 0, 45, 0
1, 39091, Note_on_c, 0, 59, 51
1, 39091, Note_on_c, 0, 45, 37
1, 39095, Note_on_c, 0, 64, 48
1, 39103, Note_on_c, 0, 52, 38
1, 39109, Note_on_c, 0, 40, 63
1, 39134, Note_on_c, 0, 64, 0
1, 39147, Note_on_c, 0, 45, 0
1, 39147, Note_on_c, 0, 40, 0
1, 39147, Note_on_c, 0, 52, 0
1, 39152, Note_on_c, 0, 59, 0
1, 39216, Note_on_c, 0, 64, 43
1, 39216, Note_on_c, 0, 59, 59
1, 39216, Note_on_c, 0, 52, 52
1, 39225, Note_on_c, 0, 45, 26
1, 39237, Note_on_c, 0, 40, 50
1, 39258, Note_on_c, 0, 64, 0
1, 39267, Note_on_c, 0, 52, 0
1, 39275, Note_on_c, 0, 40, 0
1, 39278, Note_on_c, 0, 45, 0
1, 39286, Note_on_c, 0, 59, 0
1, 39337, Note_on_c, 0, 45, 52
1, 39337, Note_on_c, 0, 40, 74
1, 39342, Note_on_c, 0, 52, 70
1, 39345, Note_on_c, 0, 64, 61
1, 39345, Note_on_c, 0, 59, 70
1, 39345, Note_on_c, 0, 33, 74
1, 39398, Note_on_c, 0, 45, 0
1, 39411, Note_on_c, 0, 64, 0
1, 39411, Note_on_c, 0, 52, 0
1, 39418, Note_on_c, 0, 40, 0
1, 39418, Note_on_c, 0, 33, 0
1, 39432, Note_on_c, 0, 59, 0
1, 39478, Note_on_c, 0, 40, 84
1, 39478, Note_on_c, 0, 52, 59
1, 39478, Note_on_c, 0, 33, 65
1, 39489, Note_on_c, 0, 45, 37
1, 39492, Note_on_c, 0, 64, 34
1, 39492, Note_on_c, 0, 59, 71
1, 39518, Note_on_c, 0, 52, 0
1, 39524, Note_on_c, 0, 40, 0
1, 39524, Note_on_c, 0, 33, 0
1, 39527, Note_on_c, 0, 59, 0
1, 39535, Note_on_c, 0, 45, 0
1, 39540, Note_on_c, 0, 64, 0
1, 39592, Note_on_c, 0, 64, 78
1, 39604, Note_on_c, 0, 59, 43
1, 39604, Note_on_c, 0, 45, 46
1, 39610, Note_on_c, 0, 52, 42
1, 39617, Note_on_c, 0, 40, 75
1, 39617, Note_on_c, 0, 33, 65
1, 39659, Note_on_c, 0, 52, 0
1, 39659, Note_on_c, 0, 45, 0
1, 39659, Note_on_c, 0, 40, 0
1, 39663, Note_on_c, 0, 33, 0
1, 39713, Note_on_c, 0, 59, 0
1, 39729, Note_on_c, 0, 64, 0
1, 39741, Note_on_c, 0, 52, 85
1, 39741, Note_on_c, 0, 45, 67
1, 39751, Note_on_c, 0, 40, 78
1, 39751, Note_on_c, 0, 33, 60
1, 39797, Note_on_c, 0, 45, 0
1, 39804, Note_on_c, 0, 40, 0
1, 39804, Note_on_c, 0, 33, 0
1, 39826, Note_on_c, 0, 59, 68
1, 39841, Note_on_c, 0, 52, 0
1, 39871, Note_on_c, 0, 45, 45
1, 39871, Note_on_c, 0, 33, 55
1, 39874, Note_on_c, 0, 64, 74
1, 39874, Note_on_c, 0, 40, 81
1, 39877, Note_on_c, 0, 59, 0
1, 39927, Note_on_c, 0, 45, 0
1, 39927, Note_on_c, 0, 59, 80
1, 39932, Note_on_c, 0, 33, 0
1, 39938, Note_on_c, 0, 40, 0
1, 39963, Note_on_c, 0, 64, 0
1, 39989, Note_on_c, 0, 52, 84
1, 40000, Note_on_c, 0, 59, 0
1, 40005, Note_on_c, 0, 45, 48
1, 40017, Note_on_c, 0, 40, 67
1, 40020, Note_on_c, 0, 33, 59
1, 40024, Note_on_c, 0, 52, 0
1, 40060, Note_on_c, 0, 59, 71
1, 40070, Note_on_c, 0, 33, 0
1, 40085, Note_on_c, 0, 45, 0
1, 40085, Note_on_c, 0, 40, 0
1, 40094, Note_on_c, 0, 59, 0
1, 40158, Note_on_c, 0, 64, 95
1, 40158, Note_on_c, 0, 45, 57
1, 40172, Note_on_c, 0, 40, 69
1, 40172, Note_on_c, 0, 33, 70
1, 40217, Note_on_c, 0, 40, 0
1, 40223, Note_on_c, 0, 33, 0
1, 40230, Note_on_c, 0, 64, 0
1, 40237, Note_on_c, 0, 45, 0
1, 40237, Note_on_c, 0, 71, 83
1, 40270, Note_on_c, 0, 71, 0
1, 40287, Note_on_c, 0, 76, 70
1, 40295, Note_on_c, 0, 45, 54
1, 40304, Note_on_c, 0, 33, 53
1, 40315, Note_on_c, 0, 40, 66
1, 40334, Note_on_c, 0, 71, 70
1, 40351, Note_on_c, 0, 40, 0
1, 40359, Note_on_c, 0, 33, 0
1, 40370, Note_on_c, 0, 45, 0
1, 40373, Note_on_c, 0, 76, 0
1, 40406, Note_on_c, 0, 64, 83
1, 40410, Note_on_c, 0, 71, 0
1, 40426, Note_on_c, 0, 45, 58
1, 40437, Note_on_c, 0, 40, 66
1, 40437, Note_on_c, 0, 33, 53
1, 40437, Note_on_c, 0, 64, 0
1, 40460, Note_on_c, 0, 71, 85
1, 40485, Note_on_c, 0, 33, 0
1, 40485, Note_on_c, 0, 40, 0
1, 40490, Note_on_c, 0, 45, 0
1, 40499, Note_on_c, 0, 71, 0
1, 40553, Note_on_c, 0, 76, 97
1, 40556, Note_on_c, 0, 45, 49
1, 40559, Note_on_c, 0, 33, 57
1, 40559, Note_on_c, 0, 40, 76
1, 40612, Note_on_c, 0, 40, 0
1, 40612, Note_on_c, 0, 45, 0
1, 40621, Note_on_c, 0, 33, 0
1, 40627, Note_on_c, 0, 83, 108
1, 40641, Note_on_c, 0, 76, 0
1, 40679, Note_on_c, 0, 33, 57
1, 40679, Note_on_c, 0, 45, 41
1, 40679, Note_on_c, 0, 40, 80
1, 40682, Note_on_c, 0, 88, 91
1, 40694, Note_on_c, 0, 83, 0
1, 40729, Note_on_c, 0, 45, 0
1, 40737, Note_on_c, 0, 33, 0
1, 40740, Note_on_c, 0, 83, 107
1, 40749, Note_on_c, 0, 40, 0
1, 40765, Note_on_c, 0, 88, 0
1, 40797, Note_on_c, 0, 45, 42
1, 40797, Note_on_c, 0, 76, 82
1, 40805, Note_on_c, 0, 33, 48
1, 40818, Note_on_c, 0, 40, 94
1, 40825, Note_on_c, 0, 83, 0
1, 40841, Note_on_c, 0, 76, 0
1, 40847, Note_on_c, 0, 40, 0
1, 40852, Note_on_c, 0, 33, 0
1, 40866, Note_on_c, 0, 83, 115
1, 40874, Note_on_c, 0, 45, 0
1, 40891, Note_on_c, 0, 83, 0
1, 40924, Note_on_c, 0, 45, 57
1, 40932, Note_on_c, 0, 40, 73
1, 40949, Note_on_c, 0, 33, 41
1, 40955, Note_on_c, 0, 88, 99
1, 40997, Note_on_c, 0, 33, 0
1, 40997, Note_on_c, 0, 45, 0
1, 41006, Note_on_c, 0, 40, 0
1, 41039, Note_on_c, 0, 95, 101
1, 41081, Note_on_c, 0, 88, 0
1, 41081, Note_on_c, 0, 45, 47
1, 41086, Note_on_c, 0, 33, 56
1, 41086, Note_on_c, 0, 40, 66
1, 41112, Note_on_c, 0, 100, 95
1, 41119, Note_on_c, 0, 95, 0
1, 41133, Note_on_c, 0, 100, 0
1, 41145, Note_on_c, 0, 33, 0
1, 41164, Note_on_c, 0, 45, 0
1, 41170, Note_on_c, 0, 40, 0
1, 41250, Note_on_c, 0, 40, 85
1, 41250, Note_on_c, 0, 33, 91
1, 41250, Note_on_c, 0, 45, 75
1, 41329, Note_on_c, 0, 45, 0
1, 41342, Note_on_c, 0, 40, 0
1, 41345, Note_on_c, 0, 33, 0
1, 41431, Note_on_c, 0, 40, 99
1, 41431, Note_on_c, 0, 45, 101
1, 41437, Note_on_c, 0, 33, 107
1, 41437, Control_c, 0, 64, 0
1, 41590, Note_on_c, 0, 33, 0
1, 41593, Note_on_c, 0, 52, 115
1, 41598, Note_on_c, 0, 40, 0
1, 41606, Control_c, 0, 64, 127
1, 41626, Note_on_c, 0, 45, 0
1, 41746, Note_on_c, 0, 52, 0
1, 41749, Note_on_c, 0, 45, 64
1, 41749, Note_on_c, 0, 49, 72
1, 41757, Note_on_c, 0, 57, 95
1, 41819, Note_on_c, 0, 49, 0
1, 41819, Note_on_c, 0, 57, 0
1, 41882, Note_on_c, 0, 57, 68
1, 41989, Note_on_c, 0, 64, 112
1, 42008, Note_on_c, 0, 52, 91
1, 42011, Note_on_c, 0, 49, 66
1, 42049, Note_on_c, 0, 57, 0
1, 42072, Note_on_c, 0, 52, 0
1, 42072, Note_on_c, 0, 49, 0
1, 42169, Note_on_c, 0, 52, 76
1, 42176, Note_on_c, 0, 49, 59
1, 42220, Note_on_c, 0, 52, 0
1, 42220, Note_on_c, 0, 49, 0
1, 42290, Note_on_c, 0, 64, 0
1, 42308, Note_on_c, 0, 61, 101
1, 42320, Note_on_c, 0, 52, 75
1, 42325, Note_on_c, 0, 49, 57
1, 42340, Note_on_c, 0, 45, 0
1, 42357, Note_on_c, 0, 52, 0
1, 42362, Note_on_c, 0, 49, 0
1, 42387, Note_on_c, 0, 61, 0
1, 42474, Note_on_c, 0, 59, 103
1, 42474, Note_on_c, 0, 52, 81
1, 42478, Note_on_c, 0, 49, 65
1, 42507, Note_on_c, 0, 52, 0
1, 42512, Note_on_c, 0, 49, 0
1, 42531, Note_on_c, 0, 61, 94
1, 42540, Control_c, 0, 64, 0
1, 42556, Note_on_c, 0, 59, 0
1, 42595, Note_on_c, 0, 49, 62
1, 42595, Note_on_c, 0, 52, 65
1, 42599, Note_on_c, 0, 59, 97
1, 42646, Note_on_c, 0, 49, 0
1, 42646, Note_on_c, 0, 52, 0
1, 42657, Note_on_c, 0, 61, 0
1, 42676, Note_on_c, 0, 59, 0
1, 42729, Note_on_c, 0, 57, 90
1, 42732, Note_on_c, 0, 52, 79
1, 42735, Note_on_c, 0, 49, 68
1, 42768, Note_on_c, 0, 52, 0
1, 42768, Note_on_c, 0, 49, 0
1, 42797, Note_on_c, 0, 57, 0
1, 42855, Note_on_c, 0, 56, 85
1, 42863, Note_on_c, 0, 49, 70
1, 42869, Note_on_c, 0, 52, 72
1, 42899, Note_on_c, 0, 49, 0
1, 42902, Note_on_c, 0, 52, 0
1, 42910, Note_on_c, 0, 57, 85
1, 42938, Note_on_c, 0, 56, 0
1, 42978, Note_on_c, 0, 56, 90
1, 42992, Note_on_c, 0, 52, 68
1, 42999, Note_on_c, 0, 49, 73
1, 43019, Note_on_c, 0, 57, 0
1, 43030, Note_on_c, 0, 52, 0
1, 43030, Note_on_c, 0, 49, 0
1, 43061, Note_on_c, 0, 56, 0
1, 43120, Note_on_c, 0, 54, 102
1, 43156, Note_on_c, 0, 52, 64
1, 43175, Note_on_c, 0, 54, 0
1, 43190, Note_on_c, 0, 52, 0
1, 43272, Note_on_c, 0, 53, 121
1, 43426, Note_on_c, 0, 54, 79
1, 43429, Note_on_c, 0, 53, 0
1, 43473, Note_on_c, 0, 54, 0
1, 43476, Note_on_c, 0, 56, 72
1, 43520, Note_on_c, 0, 61, 82
1, 43527, Note_on_c, 0, 54, 85
1, 43541, Note_on_c, 0, 57, 67
1, 43577, Note_on_c, 0, 57, 0
1, 43585, Note_on_c, 0, 56, 0
1, 43588, Note_on_c, 0, 61, 0
1, 43643, Note_on_c, 0, 54, 0
1, 43660, Note_on_c, 0, 57, 28
1, 43668, Note_on_c, 0, 61, 57
1, 43680, Note_on_c, 0, 51, 99
1, 43732, Note_on_c, 0, 57, 0
1, 43732, Note_on_c, 0, 61, 0
1, 43808, Note_on_c, 0, 57, 44
1, 43811, Note_on_c, 0, 61, 53
1, 43821, Note_on_c, 0, 52, 84
1, 43825, Note_on_c, 0, 51, 0
1, 43860, Note_on_c, 0, 57, 0
1, 43860, Note_on_c, 0, 52, 0
1, 43865, Note_on_c, 0, 61, 0
1, 43865, Note_on_c, 0, 54, 78
1, 43922, Note_on_c, 0, 52, 88
1, 43936, Note_on_c, 0, 57, 37
1, 43936, Note_on_c, 0, 61, 55
1, 43984, Note_on_c, 0, 54, 0
1, 43994, Note_on_c, 0, 57, 0
1, 44016, Note_on_c, 0, 61, 0
1, 44048, Note_on_c, 0, 52, 0
1, 44081, Note_on_c, 0, 61, 64
1, 44092, Note_on_c, 0, 57, 49
1, 44137, Note_on_c, 0, 57, 0
1, 44159, Note_on_c, 0, 61, 0
1, 44220, Note_on_c, 0, 61, 65
1, 44223, Note_on_c, 0, 49, 76
1, 44259, Note_on_c, 0, 57, 17
1, 44259, Note_on_c, 0, 49, 0
1, 44270, Note_on_c, 0, 61, 0
1, 44306, Note_on_c, 0, 57, 0
1, 44350, Note_on_c, 0, 50, 91
1, 44356, Note_on_c, 0, 57, 66
1, 44356, Note_on_c, 0, 61, 68
1, 44401, Note_on_c, 0, 57, 0
1, 44407, Note_on_c, 0, 61, 0
1, 44428, Note_on_c, 0, 50, 0
1, 44481, Note_on_c, 0, 51, 101
1, 44487, Note_on_c, 0, 57, 56
1, 44487, Note_on_c, 0, 61, 77
1, 44545, Note_on_c, 0, 57, 0
1, 44562, Note_on_c, 0, 61, 0
1, 44588, Note_on_c, 0, 51, 0
1, 44604, Note_on_c, 0, 57, 60
1, 44615, Note_on_c, 0, 61, 77
1, 44615, Note_on_c, 0, 54, 91
1, 44676, Note_on_c, 0, 57, 0
1, 44676, Note_on_c, 0, 61, 0
1, 44708, Note_on_c, 0, 54, 0
1, 44740, Note_on_c, 0, 52, 97
1, 44744, Note_on_c, 0, 57, 56
1, 44749, Note_on_c, 0, 61, 73
1, 44779, Note_on_c, 0, 52, 0
1, 44779, Note_on_c, 0, 61, 0
1, 44789, Note_on_c, 0, 57, 0
1, 44947, Note_on_c, 0, 33, 109
1, 44947, Note_on_c, 0, 40, 112
1, 44947, Note_on_c, 0, 45, 108
1, 44967, Note_on_c, 0, 33, 0
1, 44967, Note_on_c, 0, 40, 0
1, 44978, Note_on_c, 0, 45, 0
1, 45020, Control_c, 0, 64, 127
1, 45092, Note_on_c, 0, 52, 101
1, 45159, Note_on_c, 0, 52, 0
1, 45226, Note_on_c, 0, 57, 84
1, 45229, Note_on_c, 0, 52, 66
1, 45229, Note_on_c, 0, 49, 62
1, 45256, Note_on_c, 0, 45, 17
1, 45268, Note_on_c, 0, 52, 0
1, 45276, Note_on_c, 0, 49, 0
1, 45309, Note_on_c, 0, 57, 0
1, 45317, Note_on_c, 0, 45, 0
1, 45351, Note_on_c, 0, 57, 92
1, 45392, Note_on_c, 0, 45, 47
1, 45399, Note_on_c, 0, 52, 72
1, 45404, Note_on_c, 0, 64, 109
1, 45409, Note_on_c, 0, 49, 54
1, 45421, Note_on_c, 0, 57, 0
1, 45449, Note_on_c, 0, 45, 0
1, 45452, Note_on_c, 0, 49, 0
1, 45452, Note_on_c, 0, 52, 0
1, 45556, Note_on_c, 0, 52, 72
1, 45562, Note_on_c, 0, 49, 53
1, 45599, Note_on_c, 0, 52, 0
1, 45599, Note_on_c, 0, 49, 0
1, 45683, Note_on_c, 0, 64, 0
1, 45683, Note_on_c, 0, 61, 93
1, 45713, Note_on_c, 0, 52, 70
1, 45719, Note_on_c, 0, 49, 40
1, 45746, Note_on_c, 0, 52, 0
1, 45754, Note_on_c, 0, 61, 0
1, 45763, Note_on_c, 0, 49, 0
1, 45849, Note_on_c, 0, 59, 92
1, 45853, Note_on_c, 0, 49, 50
1, 45861, Note_on_c, 0, 52, 66
1, 45895, Note_on_c, 0, 52, 0
1, 45895, Note_on_c, 0, 61, 86
1, 45899, Note_on_c, 0, 49, 0
1, 45902, Note_on_c, 0, 59, 0
1, 45944, Control_c, 0, 64, 0
1, 45958, Note_on_c, 0, 59, 88
1, 45967, Note_on_c, 0, 49, 59
1, 45967, Note_on_c, 0, 52, 60
1, 46014, Note_on_c, 0, 49, 0
1, 46014, Note_on_c, 0, 52, 0
1, 46023, Note_on_c, 0, 61, 0
1, 46047, Note_on_c, 0, 59, 0
1, 46101, Note_on_c, 0, 57, 77
1, 46115, Note_on_c, 0, 52, 64
1, 46119, Note_on_c, 0, 49, 58
1, 46151, Note_on_c, 0, 52, 0
1, 46154, Note_on_c, 0, 49, 0
1, 46162, Note_on_c, 0, 57, 0
1, 46242, Note_on_c, 0, 56, 81
1, 46248, Note_on_c, 0, 49, 58
1, 46253, Note_on_c, 0, 52, 59
1, 46286, Note_on_c, 0, 49, 0
1, 46286, Note_on_c, 0, 52, 0
1, 46298, Note_on_c, 0, 56, 0
1, 46298, Note_on_c, 0, 57, 71
1, 46356, Note_on_c, 0, 56, 76
1, 46379, Note_on_c, 0, 49, 52
1, 46379, Note_on_c, 0, 52, 57
1, 46399, Note_on_c, 0, 57, 0
1, 46417, Note_on_c, 0, 49, 0
1, 46417, Note_on_c, 0, 52, 0
1, 46432, Note_on_c, 0, 56, 0
1, 46510, Note_on_c, 0, 54, 90
1, 46532, Note_on_c, 0, 52, 62
1, 46541, Note_on_c, 0, 54, 0
1, 46541, Note_on_c, 0, 49, 29
1, 46568, Note_on_c, 0, 52, 0
1, 46594, Note_on_c, 0, 49, 0
1, 46660, Note_on_c, 0, 53, 115
1, 46805, Note_on_c, 0, 53, 0
1, 46805, Note_on_c, 0, 57, 50
1, 46808, Note_on_c, 0, 54, 79
1, 46808, Note_on_c, 0, 61, 50
1, 46847, Note_on_c, 0, 57, 0
1, 46847, Note_on_c, 0, 54, 0
1, 46847, Note_on_c, 0, 61, 0
1, 46852, Note_on_c, 0, 56, 68
1, 46909, Note_on_c, 0, 54, 75
1, 46912, Note_on_c, 0, 61, 57
1, 46916, Note_on_c, 0, 57, 42
1, 46958, Note_on_c, 0, 56, 0
1, 46969, Note_on_c, 0, 57, 0
1, 46986, Note_on_c, 0, 61, 0
1, 47005, Note_on_c, 0, 54, 0
1, 47065, Note_on_c, 0, 51, 95
1, 47072, Note_on_c, 0, 61, 57
1, 47072, Note_on_c, 0, 57, 47
1, 47119, Note_on_c, 0, 57, 0
1, 47129, Note_on_c, 0, 61, 0
1, 47167, Control_c, 0, 64, 127
1, 47203, Note_on_c, 0, 61, 48
1, 47209, Note_on_c, 0, 57, 23
1, 47209, Note_on_c, 0, 51, 0
1, 47217, Note_on_c, 0, 52, 74
1, 47250, Note_on_c, 0, 52, 0
1, 47257, Note_on_c, 0, 54, 81
1, 47260, Note_on_c, 0, 57, 0
1, 47270, Note_on_c, 0, 61, 0
1, 47285, Control_c, 0, 64, 0
1, 47314, Note_on_c, 0, 52, 74
1, 47332, Note_on_c, 0, 57, 34
1, 47337, Note_on_c, 0, 61, 59
1, 47382, Note_on_c, 0, 54, 0
1, 47382, Note_on_c, 0, 57, 0
1, 47398, Note_on_c, 0, 61, 0
1, 47474, Note_on_c, 0, 52, 0
1, 47474, Note_on_c, 0, 61, 59
1, 47487, Note_on_c, 0, 57, 41
1, 47532, Note_on_c, 0, 57, 0
1, 47548, Note_on_c, 0, 61, 0
1, 47615, Note_on_c, 0, 49, 76
1, 47615, Note_on_c, 0, 61, 56
1, 47624, Note_on_c, 0, 57, 32
1, 47658, Note_on_c, 0, 49, 0
1, 47663, Note_on_c, 0, 61, 0
1, 47668, Note_on_c, 0, 57, 0
1, 47744, Note_on_c, 0, 50, 83
1, 47750, Note_on_c, 0, 57, 36
1, 47753, Note_on_c, 0, 61, 59
1, 47792, Note_on_c, 0, 50, 0
1, 47792, Note_on_c, 0, 61, 0
1, 47802, Note_on_c, 0, 57, 0
1, 47875, Note_on_c, 0, 51, 88
1, 47878, Note_on_c, 0, 57, 54
1, 47884, Note_on_c, 0, 61, 75
1, 47942, Note_on_c, 0, 61, 0
1, 47948, Note_on_c, 0, 57, 0
1, 47980, Note_on_c, 0, 51, 0
1, 48019, Note_on_c, 0, 54, 78
1, 48022, Note_on_c, 0, 57, 50
1, 48022, Note_on_c, 0, 61, 73
1, 48069, Note_on_c, 0, 57, 0
1, 48069, Note_on_c, 0, 61, 0
1, 48109, Note_on_c, 0, 54, 0
1, 48151, Note_on_c, 0, 52, 87
1, 48159, Note_on_c, 0, 57, 67
1, 48162, Note_on_c, 0, 61, 79
1, 48179, Note_on_c, 0, 52, 0
1, 48189, Note_on_c, 0, 61, 0
1, 48196, Note_on_c, 0, 57, 0
1, 48320, Note_on_c, 0, 45, 92
1, 48324, Note_on_c, 0, 40, 97
1, 48338, Note_on_c, 0, 33, 52
1, 48348, Note_on_c, 0, 45, 0
1, 48348, Note_on_c, 0, 40, 0
1, 48365, Control_c, 0, 64, 127
1, 48387, Note_on_c, 0, 33, 0
1, 48448, Note_on_c, 0, 52, 78
1, 48488, Note_on_c, 0, 52, 0
1, 48577, Note_on_c, 0, 57, 71
1, 48577, Note_on_c, 0, 49, 49
1, 48582, Note_on_c, 0, 52, 44
1, 48613, Note_on_c, 0, 57, 0
1, 48621, Note_on_c, 0, 49, 0
1, 48621, Note_on_c, 0, 52, 0
1, 48685, Note_on_c, 0, 57, 43
1, 48722, Note_on_c, 0, 64, 97
1, 48725, Note_on_c, 0, 49, 61
1, 48725, Note_on_c, 0, 52, 64
1, 48764, Note_on_c, 0, 49, 0
1, 48767, Note_on_c, 0, 52, 0
1, 48772, Note_on_c, 0, 57, 0
1, 48856, Note_on_c, 0, 52, 70
1, 48860, Note_on_c, 0, 49, 56
1, 48892, Note_on_c, 0, 52, 0
1, 48903, Note_on_c, 0, 49, 0
1, 48961, Note_on_c, 0, 64, 0
1, 48984, Note_on_c, 0, 61, 77
1, 48991, Note_on_c, 0, 52, 67
1, 48997, Note_on_c, 0, 49, 59
1, 48997, Control_c, 0, 64, 0
1, 49020, Note_on_c, 0, 61, 0
1, 49020, Note_on_c, 0, 52, 0
1, 49030, Note_on_c, 0, 49, 0
1, 49097, Note_on_c, 0, 61, 68
1, 49120, Note_on_c, 0, 57, 76
1, 49123, Note_on_c, 0, 48, 75
1, 49134, Note_on_c, 0, 64, 96
1, 49134, Note_on_c, 0, 54, 71
1, 49165, Note_on_c, 0, 57, 0
1, 49170, Note_on_c, 0, 61, 0
1, 49170, Note_on_c, 0, 54, 0
1, 49175, Note_on_c, 0, 48, 0
1, 49264, Control_c, 0, 64, 127
1, 49264, Note_on_c, 0, 48, 52
1, 49267, Note_on_c, 0, 57, 52
1, 49267, Note_on_c, 0, 54, 53
1, 49309, Note_on_c, 0, 48, 0
1, 49309, Note_on_c, 0, 54, 0
1, 49317, Note_on_c, 0, 57, 0
1, 49343, Note_on_c, 0, 64, 0
1, 49359, Control_c, 0, 64, 0
1, 49395, Note_on_c, 0, 63, 79
1, 49401, Note_on_c, 0, 57, 42
1, 49410, Note_on_c, 0, 54, 52
1, 49413, Note_on_c, 0, 48, 40
1, 49429, Note_on_c, 0, 63, 0
1, 49445, Note_on_c, 0, 57, 0
1, 49451, Note_on_c, 0, 54, 0
1, 49460, Note_on_c, 0, 48, 0
1, 49496, Note_on_c, 0, 63, 61
1, 49518, Note_on_c, 0, 57, 41
1, 49527, Note_on_c, 0, 64, 89
1, 49530, Note_on_c, 0, 49, 62
1, 49530, Note_on_c, 0, 52, 68
1, 49579, Note_on_c, 0, 52, 0
1, 49579, Note_on_c, 0, 49, 0
1, 49583, Note_on_c, 0, 63, 0
1, 49594, Note_on_c, 0, 57, 0
1, 49622, Control_c, 0, 64, 127
1, 49647, Note_on_c, 0, 57, 61
1, 49658, Note_on_c, 0, 49, 49
1, 49664, Note_on_c, 0, 52, 57
1, 49705, Note_on_c, 0, 52, 0
1, 49719, Note_on_c, 0, 49, 0
1, 49730, Note_on_c, 0, 57, 0
1, 49760, Note_on_c, 0, 64, 0
1, 49767, Control_c, 0, 64, 0
1, 49770, Note_on_c, 0, 61, 71
1, 49777, Note_on_c, 0, 52, 66
1, 49777, Note_on_c, 0, 57, 72
1, 49777, Note_on_c, 0, 49, 55
1, 49810, Note_on_c, 0, 61, 0
1, 49819, Note_on_c, 0, 52, 0
1, 49838, Note_on_c, 0, 57, 0
1, 49847, Note_on_c, 0, 49, 0
1, 49869, Note_on_c, 0, 61, 64
1, 49903, Note_on_c, 0, 57, 63
1, 49911, Note_on_c, 0, 64, 100
1, 49911, Note_on_c, 0, 48, 76
1, 49916, Note_on_c, 0, 54, 87
1, 49956, Note_on_c, 0, 48, 0
1, 49964, Note_on_c, 0, 61, 0
1, 49970, Note_on_c, 0, 54, 0
1, 49987, Note_on_c, 0, 57, 0
1, 49994, Control_c, 0, 64, 127
1, 50039, Note_on_c, 0, 57, 65
1, 50039, Note_on_c, 0, 54, 63
1, 50045, Note_on_c, 0, 48, 45
1, 50090, Note_on_c, 0, 48, 0
1, 50104, Note_on_c, 0, 57, 0
1, 50104, Note_on_c, 0, 54, 0
1, 50115, Control_c, 0, 64, 0
1, 50129, Note_on_c, 0, 64, 0
1, 50170, Note_on_c, 0, 57, 50
1, 50170, Note_on_c, 0, 63, 75
1, 50173, Note_on_c, 0, 54, 59
1, 50173, Note_on_c, 0, 48, 40
1, 50207, Note_on_c, 0, 63, 0
1, 50218, Note_on_c, 0, 48, 0
1, 50218, Note_on_c, 0, 57, 0
1, 50231, Note_on_c, 0, 54, 0
1, 50281, Note_on_c, 0, 63, 64
1, 50299, Note_on_c, 0, 57, 48
1, 50312, Note_on_c, 0, 64, 84
1, 50317, Note_on_c, 0, 49, 56
1, 50334, Note_on_c, 0, 52, 47
1, 50360, Note_on_c, 0, 63, 0
1, 50360, Note_on_c, 0, 49, 0
1, 50368, Note_on_c, 0, 57, 0
1, 50373, Note_on_c, 0, 52, 0
1, 50402, Control_c, 0, 64, 127
1, 50440, Note_on_c, 0, 57, 38
1, 50440, Note_on_c, 0, 49, 42
1, 50440, Note_on_c, 0, 52, 53
1, 50487, Control_c, 0, 64, 0
1, 50491, Note_on_c, 0, 49, 0
1, 50495, Note_on_c, 0, 52, 0
1, 50504, Note_on_c, 0, 57, 0
1, 50512, Note_on_c, 0, 64, 0
1, 50543, Note_on_c, 0, 61, 70
1, 50558, Note_on_c, 0, 49, 48
1, 50561, Note_on_c, 0, 52, 66
1, 50561, Note_on_c, 0, 57, 65
1, 50574, Note_on_c, 0, 61, 0
1, 50615, Note_on_c, 0, 52, 0
1, 50618, Note_on_c, 0, 57, 0
1, 50636, Note_on_c, 0, 49, 0
1, 50660, Note_on_c, 0, 64, 74
1, 50683, Note_on_c, 0, 57, 54
1, 50691, Note_on_c, 0, 69, 72
1, 50691, Note_on_c, 0, 52, 68
1, 50691, Note_on_c, 0, 76, 91
1, 50694, Note_on_c, 0, 49, 57
1, 50714, Control_c, 0, 64, 127
1, 50744, Note_on_c, 0, 64, 0
1, 50744, Note_on_c, 0, 52, 0
1, 50744, Note_on_c, 0, 49, 0
1, 50752, Note_on_c, 0, 57, 0
1, 50816, Note_on_c, 0, 49, 49
1, 50816, Note_on_c, 0, 57, 46
1, 50824, Note_on_c, 0, 52, 54
1, 50869, Note_on_c, 0, 52, 0
1, 50880, Note_on_c, 0, 49, 0
1, 50889, Note_on_c, 0, 57, 0
1, 50893, Note_on_c, 0, 69, 0
1, 50922, Note_on_c, 0, 76, 0
1, 50942, Note_on_c, 0, 73, 68
1, 50947, Note_on_c, 0, 57, 55
1, 50950, Note_on_c, 0, 49, 49
1, 50966, Note_on_c, 0, 52, 47
1, 50972, Note_on_c, 0, 73, 0
1, 51006, Note_on_c, 0, 52, 0
1, 51015, Note_on_c, 0, 57, 0
1, 51020, Note_on_c, 0, 49, 0
1, 51037, Note_on_c, 0, 76, 70
1, 51078, Note_on_c, 0, 57, 57
1, 51083, Note_on_c, 0, 88, 102
1, 51087, Note_on_c, 0, 49, 55
1, 51087, Note_on_c, 0, 52, 68
1, 51095, Note_on_c, 0, 81, 70
1, 51132, Note_on_c, 0, 52, 0
1, 51143, Note_on_c, 0, 49, 0
1, 51154, Note_on_c, 0, 76, 0
1, 51154, Note_on_c, 0, 57, 0
1, 51214, Note_on_c, 0, 57, 49
1, 51220, Note_on_c, 0, 49, 44
1, 51228, Note_on_c, 0, 52, 53
1, 51232, Note_on_c, 0, 81, 0
1, 51265, Note_on_c, 0, 52, 0
1, 51268, Note_on_c, 0, 49, 0
1, 51274, Note_on_c, 0, 88, 0
1, 51283, Note_on_c, 0, 57, 0
1, 51318, Note_on_c, 0, 85, 68
1, 51345, Note_on_c, 0, 57, 42
1, 51345, Note_on_c, 0, 85, 0
1, 51359, Note_on_c, 0, 49, 41
1, 51359, Note_on_c, 0, 52, 42
1, 51405, Note_on_c, 0, 52, 0
1, 51408, Note_on_c, 0, 49, 0
1, 51416, Note_on_c, 0, 88, 67
1, 51419, Note_on_c, 0, 57, 0
1, 51477, Note_on_c, 0, 93, 68
1, 51480, Note_on_c, 0, 100, 103
1, 51483, Note_on_c, 0, 57, 57
1, 51488, Note_on_c, 0, 52, 83
1, 51488, Note_on_c, 0, 88, 0
1, 51504, Note_on_c, 0, 49, 61
1, 51504, Note_on_c, 0, 100, 0
1, 51511, Note_on_c, 0, 93, 0
1, 51515, Note_on_c, 0, 52, 0
1, 51521, Note_on_c, 0, 57, 0
1, 51538, Note_on_c, 0, 49, 0
1, 51577, Control_c, 0, 64, 0
1, 51866, Note_on_c, 0, 66, 92
1, 51866, Note_on_c, 0, 57, 91
1, 51870, Note_on_c, 0, 49, 88
1, 51873, Note_on_c, 0, 61, 78
1, 51877, Note_on_c, 0, 37, 78
1, 51877, Note_on_c, 0, 45, 73
1, 51906, Note_on_c, 0, 57, 0
1, 51906, Note_on_c, 0, 37, 0
1, 51911, Note_on_c, 0, 49, 0
1, 51911, Note_on_c, 0, 61, 0
1, 51911, Note_on_c, 0, 45, 0
1, 51956, Note_on_c, 0, 66, 0
1, 51961, Control_c, 0, 64, 127
1, 52020, Control_c, 0, 64, 0
1, 52263, Note_on_c, 0, 56, 91
1, 52267, Note_on_c, 0, 68, 88
1, 52267, Note_on_c, 0, 48, 72
1, 52271, Note_on_c, 0, 36, 78
1, 52271, Note_on_c, 0, 44, 80
1, 52271, Note_on_c, 0, 63, 89
1, 52299, Note_on_c, 0, 36, 0
1, 52302, Note_on_c, 0, 48, 0
1, 52302, Note_on_c, 0, 44, 0
1, 52302, Note_on_c, 0, 63, 0
1, 52332, Control_c, 0, 64, 127
1, 52332, Note_on_c, 0, 56, 0
1, 52346, Note_on_c, 0, 68, 0
1, 52535, Control_c, 0, 64, 0
1, 52540, Note_on_c, 0, 56, 52
1, 52543, Note_on_c, 0, 55, 61
1, 52575, Note_on_c, 0, 56, 0
1, 52580, Note_on_c, 0, 55, 0
1, 52681, Note_on_c, 0, 60, 66
1, 52716, Note_on_c, 0, 60, 0
1, 52802, Note_on_c, 0, 63, 85
1, 52808, Note_on_c, 0, 62, 55
1, 52823, Note_on_c, 0, 63, 0
1, 52847, Note_on_c, 0, 62, 0
1, 52914, Note_on_c, 0, 68, 73
1, 52919, Note_on_c, 0, 72, 68
1, 52940, Note_on_c, 0, 68, 0
1, 52953, Note_on_c, 0, 72, 0
1, 53031, Note_on_c, 0, 51, 83
1, 53057, Note_on_c, 0, 51, 0
1, 53086, Note_on_c, 0, 89, 98
1, 53089, Note_on_c, 0, 77, 91
1, 53092, Note_on_c, 0, 82, 76
1, 53110, Note_on_c, 0, 67, 84
1, 53123, Control_c, 0, 64, 127
1, 53128, Note_on_c, 0, 61, 55
1, 53131, Note_on_c, 0, 77, 0
1, 53131, Note_on_c, 0, 82, 0
1, 53137, Note_on_c, 0, 58, 25
1, 53137, Note_on_c, 0, 67, 0
1, 53154, Note_on_c, 0, 89, 0
1, 53167, Note_on_c, 0, 61, 0
1, 53196, Note_on_c, 0, 58, 0
1, 53231, Note_on_c, 0, 61, 42
1, 53237, Note_on_c, 0, 87, 73
1, 53248, Note_on_c, 0, 67, 26
1, 53257, Note_on_c, 0, 58, 28
1, 53276, Note_on_c, 0, 61, 0
1, 53293, Note_on_c, 0, 85, 78
1, 53309, Note_on_c, 0, 67, 0
1, 53315, Note_on_c, 0, 58, 0
1, 53320, Note_on_c, 0, 87, 0
1, 53351, Note_on_c, 0, 61, 47
1, 53351, Note_on_c, 0, 67, 76
1, 53360, Note_on_c, 0, 58, 58
1, 53368, Note_on_c, 0, 82, 59
1, 53388, Note_on_c, 0, 85, 0
1, 53393, Note_on_c, 0, 67, 0
1, 53402, Note_on_c, 0, 61, 0
1, 53402, Note_on_c, 0, 58, 0
1, 53402, Note_on_c, 0, 82, 0
1, 53408, Note_on_c, 0, 77, 68
1, 53440, Note_on_c, 0, 77, 0
1, 53476, Note_on_c, 0, 67, 58
1, 53476, Note_on_c, 0, 75, 80
1, 53479, Note_on_c, 0, 61, 62
1, 53493, Note_on_c, 0, 58, 36
1, 53513, Note_on_c, 0, 67, 0
1, 53541, Note_on_c, 0, 73, 69
1, 53541, Control_c, 0, 64, 0
1, 53560, Note_on_c, 0, 58, 0
1, 53577, Note_on_c, 0, 61, 0
1, 53591, Note_on_c, 0, 75, 0
1, 53602, Note_on_c, 0, 70, 67
1, 53638, Note_on_c, 0, 73, 0
1, 53638, Note_on_c, 0, 70, 0
1, 53655, Note_on_c, 0, 65, 57
1, 53692, Note_on_c, 0, 65, 0
1, 53716, Note_on_c, 0, 63, 89
1, 53739, Note_on_c, 0, 63, 0
1, 53878, Note_on_c, 0, 60, 97
1, 53881, Note_on_c, 0, 80, 89
1, 53881, Note_on_c, 0, 68, 95
1, 53886, Note_on_c, 0, 48, 76
1, 53886, Note_on_c, 0, 56, 77
1, 53895, Note_on_c, 0, 75, 58
1, 53906, Note_on_c, 0, 60, 0
1, 53910, Note_on_c, 0, 80, 0
1, 53910, Note_on_c, 0, 68, 0
1, 53915, Note_on_c, 0, 56, 0
1, 53915, Note_on_c, 0, 78, 24
1, 53915, Note_on_c, 0, 48, 0
1, 53931, Note_on_c, 0, 75, 0
1, 53937, Control_c, 0, 64, 127
1, 53967, Note_on_c, 0, 78, 0
1, 54128, Note_on_c, 0, 67, 77
1, 54140, Note_on_c, 0, 68, 77
1, 54160, Note_on_c, 0, 67, 0
1, 54170, Note_on_c, 0, 68, 0
1, 54178, Control_c, 0, 64, 0
1, 54263, Note_on_c, 0, 72, 84
1, 54263, Note_on_c, 0, 71, 83
1, 54293, Note_on_c, 0, 71, 0
1, 54293, Note_on_c, 0, 72, 0
1, 54383, Note_on_c, 0, 74, 76
1, 54388, Note_on_c, 0, 75, 78
1, 54410, Note_on_c, 0, 74, 0
1, 54410, Note_on_c, 0, 75, 0
1, 54519, Note_on_c, 0, 80, 87
1, 54519, Note_on_c, 0, 84, 96
1, 54541, Note_on_c, 0, 84, 0
1, 54541, Note_on_c, 0, 80, 0
1, 54655, Note_on_c, 0, 63, 83
1, 54683, Note_on_c, 0, 63, 0
1, 54705, Note_on_c, 0, 101, 100
1, 54705, Note_on_c, 0, 89, 97
1, 54705, Note_on_c, 0, 94, 85
1, 54736, Note_on_c, 0, 89, 0
1, 54736, Note_on_c, 0, 79, 89
1, 54741, Control_c, 0, 64, 127
1, 54741, Note_on_c, 0, 94, 0
1, 54758, Note_on_c, 0, 73, 38
1, 54766, Note_on_c, 0, 79, 0
1, 54794, Note_on_c, 0, 101, 0
1, 54806, Note_on_c, 0, 73, 0
1, 54858, Note_on_c, 0, 70, 66
1, 54858, Note_on_c, 0, 99, 86
1, 54858, Note_on_c, 0, 73, 52
1, 54865, Note_on_c, 0, 79, 58
1, 54895, Note_on_c, 0, 70, 0
1, 54903, Note_on_c, 0, 79, 0
1, 54911, Note_on_c, 0, 73, 0
1, 54925, Note_on_c, 0, 97, 74
1, 54962, Note_on_c, 0, 99, 0
1, 54981, Note_on_c, 0, 94, 67
1, 54998, Note_on_c, 0, 73, 43
1, 55007, Note_on_c, 0, 70, 41
1, 55031, Note_on_c, 0, 97, 0
1, 55040, Note_on_c, 0, 73, 0
1, 55050, Note_on_c, 0, 89, 61
1, 55050, Note_on_c, 0, 70, 0
1, 55054, Note_on_c, 0, 94, 0
1, 55087, Note_on_c, 0, 89, 0
1, 55110, Note_on_c, 0, 79, 87
1, 55117, Note_on_c, 0, 87, 85
1, 55117, Note_on_c, 0, 73, 57
1, 55126, Note_on_c, 0, 70, 30
1, 55173, Note_on_c, 0, 79, 0
1, 55182, Note_on_c, 0, 85, 75
1, 55187, Note_on_c, 0, 70, 0
1, 55221, Note_on_c, 0, 73, 0
1, 55240, Note_on_c, 0, 87, 0
1, 55255, Note_on_c, 0, 82, 63
1, 55290, Note_on_c, 0, 82, 0
1, 55290, Note_on_c, 0, 85, 0
1, 55293, Note_on_c, 0, 77, 79
1, 55324, Note_on_c, 0, 77, 0
1, 55340, Control_c, 0, 64, 0
1, 55363, Note_on_c, 0, 75, 95
1, 55443, Note_on_c, 0, 75, 0
1, 55524, Note_on_c, 0, 80, 99
1, 55524, Note_on_c, 0, 68, 104
1, 55535, Note_on_c, 0, 48, 88
1, 55535, Note_on_c, 0, 75, 67
1, 55535, Note_on_c, 0, 36, 91
1, 55552, Note_on_c, 0, 68, 0
1, 55561, Note_on_c, 0, 36, 0
1, 55561, Note_on_c, 0, 48, 0
1, 55564, Note_on_c, 0, 78, 16
1, 55567, Note_on_c, 0, 75, 0
1, 55591, Control_c, 0, 64, 127
1, 55606, Note_on_c, 0, 78, 0
1, 55650, Note_on_c, 0, 80, 0
1, 55672, Note_on_c, 0, 68, 87
1, 55672, Note_on_c, 0, 51, 92
1, 55680, Note_on_c, 0, 39, 80
1, 55699, Control_c, 0, 64, 0
1, 55702, Note_on_c, 0, 51, 0
1, 55705, Note_on_c, 0, 68, 0
1, 55705, Note_on_c, 0, 39, 0
1, 55738, Note_on_c, 0, 80, 75
1, 55784, Note_on_c, 0, 56, 86
1, 55787, Note_on_c, 0, 44, 84
1, 55787, Note_on_c, 0, 68, 81
1, 55814, Note_on_c, 0, 56, 0
1, 55819, Note_on_c, 0, 44, 0
1, 55847, Note_on_c, 0, 80, 0
1, 55870, Note_on_c, 0, 68, 0
1, 55928, Note_on_c, 0, 81, 106
1, 55934, Note_on_c, 0, 69, 97
1, 55934, Note_on_c, 0, 75, 84
1, 55943, Note_on_c, 0, 60, 95
1, 55943, Note_on_c, 0, 48, 84
1, 55970, Note_on_c, 0, 69, 0
1, 55970, Note_on_c, 0, 60, 0
1, 55973, Note_on_c, 0, 48, 0
1, 55987, Control_c, 0, 64, 127
1, 56001, Note_on_c, 0, 75, 0
1, 56012, Note_on_c, 0, 81, 0
1, 56068, Note_on_c, 0, 63, 89
1, 56071, Note_on_c, 0, 51, 86
1, 56071, Note_on_c, 0, 80, 71
1, 56095, Control_c, 0, 64, 0
1, 56095, Note_on_c, 0, 63, 0
1, 56104, Note_on_c, 0, 51, 0
1, 56134, Note_on_c, 0, 75, 76
1, 56162, Note_on_c, 0, 80, 0
1, 56184, Note_on_c, 0, 68, 81
1, 56204, Note_on_c, 0, 60, 78
1, 56204, Note_on_c, 0, 48, 73
1, 56213, Note_on_c, 0, 75, 0
1, 56224, Note_on_c, 0, 68, 0
1, 56238, Note_on_c, 0, 60, 0
1, 56238, Note_on_c, 0, 48, 0
1, 56318, Note_on_c, 0, 78, 97
1, 56318, Note_on_c, 0, 68, 92
1, 56326, Note_on_c, 0, 73, 78
1, 56326, Note_on_c, 0, 61, 100
1, 56330, Note_on_c, 0, 49, 92
1, 56358, Note_on_c, 0, 49, 0
1, 56362, Note_on_c, 0, 68, 0
1, 56362, Note_on_c, 0, 61, 0
1, 56375, Note_on_c, 0, 73, 0
1, 56394, Control_c, 0, 64, 127
1, 56397, Note_on_c, 0, 78, 0
1, 56463, Note_on_c, 0, 76, 73
1, 56466, Control_c, 0, 64, 0
1, 56469, Note_on_c, 0, 64, 82
1, 56469, Note_on_c, 0, 52, 95
1, 56494, Note_on_c, 0, 52, 0
1, 56497, Note_on_c, 0, 64, 0
1, 56516, Note_on_c, 0, 73, 62
1, 56560, Note_on_c, 0, 68, 75
1, 56560, Note_on_c, 0, 76, 0
1, 56578, Note_on_c, 0, 61, 78
1, 56589, Note_on_c, 0, 49, 74
1, 56603, Note_on_c, 0, 68, 0
1, 56610, Note_on_c, 0, 73, 0
1, 56610, Note_on_c, 0, 61, 0
1, 56619, Note_on_c, 0, 49, 0
1, 56694, Note_on_c, 0, 75, 96
1, 56702, Note_on_c, 0, 64, 96
1, 56702, Note_on_c, 0, 70, 77
1, 56711, Note_on_c, 0, 54, 93
1, 56711, Note_on_c, 0, 42, 87
1, 56730, Control_c, 0, 64, 127
1, 56734, Note_on_c, 0, 64, 0
1, 56739, Note_on_c, 0, 54, 0
1, 56739, Note_on_c, 0, 42, 0
1, 56750, Note_on_c, 0, 70, 0
1, 56766, Note_on_c, 0, 75, 0
1, 56834, Note_on_c, 0, 58, 68
1, 56851, Note_on_c, 0, 46, 60
1, 56854, Note_on_c, 0, 73, 57
1, 56862, Control_c, 0, 64, 0
1, 56867, Note_on_c, 0, 58, 0
1, 56887, Note_on_c, 0, 46, 0
1, 56895, Note_on_c, 0, 70, 60
1, 56934, Note_on_c, 0, 70, 0
1, 56937, Note_on_c, 0, 73, 0
1, 56948, Note_on_c, 0, 64, 71
1, 56954, Note_on_c, 0, 54, 84
1, 56959, Note_on_c, 0, 42, 72
1, 56981, Note_on_c, 0, 64, 0
1, 56987, Note_on_c, 0, 54, 0
1, 56987, Note_on_c, 0, 42, 0
1, 57084, Note_on_c, 0, 68, 75
1, 57112, Note_on_c, 0, 66, 67
1, 57140, Note_on_c, 0, 68, 0
1, 57151, Note_on_c, 0, 66, 0
1, 57227, Note_on_c, 0, 66, 51
1, 57227, Note_on_c, 0, 47, 44
1, 57234, Note_on_c, 0, 63, 72
1, 57269, Note_on_c, 0, 66, 0
1, 57273, Note_on_c, 0, 63, 0
1, 57276, Note_on_c, 0, 47, 0
1, 57341, Note_on_c, 0, 54, 63
1, 57349, Note_on_c, 0, 68, 71
1, 57354, Note_on_c, 0, 66, 49
1, 57377, Note_on_c, 0, 54, 0
1, 57388, Note_on_c, 0, 68, 0
1, 57388, Note_on_c, 0, 66, 0
1, 57472, Note_on_c, 0, 71, 95
1, 57475, Note_on_c, 0, 63, 76
1, 57488, Note_on_c, 0, 69, 80
1, 57488, Note_on_c, 0, 59, 62
1, 57528, Note_on_c, 0, 69, 0
1, 57544, Note_on_c, 0, 71, 0
1, 57610, Note_on_c, 0, 69, 67
1, 57624, Note_on_c, 0, 66, 56
1, 57653, Note_on_c, 0, 69, 0
1, 57664, Note_on_c, 0, 66, 0
1, 57727, Note_on_c, 0, 59, 0
1, 57731, Note_on_c, 0, 71, 88
1, 57742, Note_on_c, 0, 63, 0
1, 57747, Note_on_c, 0, 54, 54
1, 57761, Note_on_c, 0, 69, 54
1, 57770, Note_on_c, 0, 71, 0
1, 57786, Note_on_c, 0, 54, 0
1, 57803, Note_on_c, 0, 69, 0
1, 57861, Note_on_c, 0, 73, 77
1, 57879, Note_on_c, 0, 71, 83
1, 57909, Note_on_c, 0, 73, 0
1, 57909, Note_on_c, 0, 71, 0
1, 57990, Note_on_c, 0, 71, 69
1, 58000, Note_on_c, 0, 68, 62
1, 58007, Note_on_c, 0, 47, 40
1, 58035, Note_on_c, 0, 68, 0
1, 58040, Note_on_c, 0, 71, 0
1, 58060, Note_on_c, 0, 47, 0
1, 58113, Note_on_c, 0, 73, 73
1, 58121, Note_on_c, 0, 71, 56
1, 58121, Note_on_c, 0, 56, 63
1, 58154, Note_on_c, 0, 73, 0
1, 58154, Note_on_c, 0, 71, 0
1, 58160, Note_on_c, 0, 56, 0
1, 58246, Note_on_c, 0, 78, 92
1, 58258, Note_on_c, 0, 64, 79
1, 58265, Note_on_c, 0, 59, 69
1, 58265, Note_on_c, 0, 76, 58
1, 58302, Note_on_c, 0, 76, 0
1, 58335, Note_on_c, 0, 78, 0
1, 58372, Note_on_c, 0, 76, 38
1, 58390, Note_on_c, 0, 71, 81
1, 58433, Note_on_c, 0, 71, 0
1, 58452, Note_on_c, 0, 59, 0
1, 58468, Note_on_c, 0, 76, 0
1, 58468, Note_on_c, 0, 64, 0
1, 58503, Note_on_c, 0, 78, 84
1, 58508, Note_on_c, 0, 56, 71
1, 58513, Note_on_c, 0, 76, 75
1, 58539, Note_on_c, 0, 56, 0
1, 58572, Note_on_c, 0, 78, 0
1, 58577, Note_on_c, 0, 76, 0
1, 58670, Note_on_c, 0, 68, 97
1, 58670, Note_on_c, 0, 80, 100
1, 58677, Note_on_c, 0, 48, 98
1, 58677, Note_on_c, 0, 60, 95
1, 58677, Note_on_c, 0, 75, 70
1, 58691, Note_on_c, 0, 68, 0
1, 58700, Note_on_c, 0, 48, 0
1, 58703, Note_on_c, 0, 60, 0
1, 58711, Note_on_c, 0, 75, 0
1, 58744, Control_c, 0, 64, 127
1, 58764, Note_on_c, 0, 80, 0
1, 58808, Note_on_c, 0, 80, 88
1, 58814, Note_on_c, 0, 51, 91
1, 58814, Note_on_c, 0, 63, 92
1, 58840, Note_on_c, 0, 63, 0
1, 58840, Note_on_c, 0, 51, 0
1, 58870, Note_on_c, 0, 80, 0
1, 58886, Note_on_c, 0, 92, 75
1, 58911, Control_c, 0, 64, 0
1, 58940, Note_on_c, 0, 68, 83
1, 58940, Note_on_c, 0, 56, 78
1, 58940, Note_on_c, 0, 80, 74
1, 58968, Note_on_c, 0, 68, 0
1, 58971, Note_on_c, 0, 56, 0
1, 59006, Note_on_c, 0, 92, 0
1, 59020, Note_on_c, 0, 80, 0
1, 59090, Note_on_c, 0, 93, 108
1, 59096, Note_on_c, 0, 81, 98
1, 59099, Note_on_c, 0, 87, 78
1, 59110, Note_on_c, 0, 60, 71
1, 59118, Note_on_c, 0, 81, 0
1, 59118, Note_on_c, 0, 72, 43
1, 59127, Note_on_c, 0, 87, 0
1, 59138, Control_c, 0, 64, 127
1, 59148, Note_on_c, 0, 60, 0
1, 59165, Note_on_c, 0, 72, 0
1, 59190, Note_on_c, 0, 93, 0
1, 59238, Note_on_c, 0, 75, 83
1, 59241, Note_on_c, 0, 63, 88
1, 59244, Note_on_c, 0, 92, 87
1, 59266, Note_on_c, 0, 75, 0
1, 59266, Note_on_c, 0, 63, 0
1, 59271, Control_c, 0, 64, 0
1, 59301, Note_on_c, 0, 87, 66
1, 59333, Note_on_c, 0, 92, 0
1, 59350, Note_on_c, 0, 80, 90
1, 59371, Note_on_c, 0, 60, 89
1, 59371, Note_on_c, 0, 72, 78
1, 59386, Note_on_c, 0, 87, 0
1, 59399, Note_on_c, 0, 60, 0
1, 59399, Note_on_c, 0, 72, 0
1, 59419, Note_on_c, 0, 80, 0
1, 59488, Note_on_c, 0, 80, 92
1, 59488, Note_on_c, 0, 90, 97
1, 59496, Note_on_c, 0, 85, 90
1, 59496, Note_on_c, 0, 73, 98
1, 59502, Note_on_c, 0, 61, 95
1, 59530, Note_on_c, 0, 61, 0
1, 59536, Note_on_c, 0, 85, 0
1, 59539, Note_on_c, 0, 73, 0
1, 59545, Control_c, 0, 64, 127
1, 59562, Note_on_c, 0, 80, 0
1, 59592, Note_on_c, 0, 90, 0
1, 59636, Note_on_c, 0, 88, 76
1, 59648, Note_on_c, 0, 76, 70
1, 59655, Control_c, 0, 64, 0
1, 59659, Note_on_c, 0, 64, 57
1, 59680, Note_on_c, 0, 76, 0
1, 59691, Note_on_c, 0, 85, 69
1, 59694, Note_on_c, 0, 64, 0
1, 59736, Note_on_c, 0, 88, 0
1, 59736, Note_on_c, 0, 80, 84
1, 59750, Note_on_c, 0, 73, 73
1, 59761, Note_on_c, 0, 61, 80
1, 59781, Note_on_c, 0, 73, 0
1, 59787, Note_on_c, 0, 85, 0
1, 59787, Note_on_c, 0, 80, 0
1, 59790, Note_on_c, 0, 61, 0
1, 59872, Note_on_c, 0, 87, 92
1, 59876, Note_on_c, 0, 76, 100
1, 59879, Note_on_c, 0, 82, 83
1, 59890, Note_on_c, 0, 54, 95
1, 59890, Note_on_c, 0, 66, 79
1, 59909, Note_on_c, 0, 76, 0
1, 59909, Note_on_c, 0, 82, 0
1, 59917, Note_on_c, 0, 54, 0
1, 59917, Note_on_c, 0, 66, 0
1, 59931, Control_c, 0, 64, 127
1, 59948, Note_on_c, 0, 87, 0
1, 60009, Note_on_c, 0, 70, 73
1, 60028, Note_on_c, 0, 58, 50
1, 60032, Note_on_c, 0, 85, 72
1, 60042, Note_on_c, 0, 70, 0
1, 60067, Note_on_c, 0, 58, 0
1, 60067, Note_on_c, 0, 82, 66
1, 60098, Control_c, 0, 64, 0
1, 60098, Note_on_c, 0, 85, 0
1, 60112, Note_on_c, 0, 82, 0
1, 60134, Note_on_c, 0, 76, 48
1, 60145, Note_on_c, 0, 54, 78
1, 60145, Note_on_c, 0, 66, 51
1, 60174, Note_on_c, 0, 76, 0
1, 60177, Note_on_c, 0, 54, 0
1, 60190, Note_on_c, 0, 66, 0
1, 60274, Note_on_c, 0, 80, 75
1, 60319, Note_on_c, 0, 78, 32
1, 60326, Note_on_c, 0, 80, 0
1, 60375, Note_on_c, 0, 78, 0
1, 60419, Note_on_c, 0, 78, 68
1, 60428, Note_on_c, 0, 75, 48
1, 60438, Note_on_c, 0, 59, 38
1, 60458, Note_on_c, 0, 78, 0
1, 60466, Note_on_c, 0, 75, 0
1, 60486, Note_on_c, 0, 59, 0
1, 60549, Note_on_c, 0, 66, 32
1, 60553, Note_on_c, 0, 80, 62
1, 60556, Note_on_c, 0, 78, 51
1, 60588, Note_on_c, 0, 80, 0
1, 60591, Note_on_c, 0, 78, 0
1, 60608, Note_on_c, 0, 66, 0
1, 60673, Note_on_c, 0, 83, 99
1, 60680, Note_on_c, 0, 75, 62
1, 60691, Note_on_c, 0, 81, 76
1, 60700, Note_on_c, 0, 71, 62
1, 60705, Note_on_c, 0, 83, 0
1, 60730, Note_on_c, 0, 81, 0
1, 60745, Control_c, 0, 64, 127
1, 60798, Note_on_c, 0, 75, 0
1, 60808, Note_on_c, 0, 78, 67
1, 60817, Note_on_c, 0, 81, 49
1, 60850, Note_on_c, 0, 78, 0
1, 60854, Note_on_c, 0, 81, 0
1, 60881, Note_on_c, 0, 71, 0
1, 60939, Note_on_c, 0, 83, 100
1, 60951, Note_on_c, 0, 81, 57
1, 60951, Note_on_c, 0, 66, 30
1, 60978, Note_on_c, 0, 83, 0
1, 60984, Note_on_c, 0, 81, 0
1, 61006, Note_on_c, 0, 66, 0
1, 61045, Control_c, 0, 64, 0
1, 61071, Note_on_c, 0, 85, 83
1, 61082, Note_on_c, 0, 83, 101
1, 61109, Note_on_c, 0, 83, 0
1, 61135, Note_on_c, 0, 85, 0
1, 61201, Note_on_c, 0, 83, 91
1, 61212, Note_on_c, 0, 80, 68
1, 61212, Note_on_c, 0, 59, 46
1, 61249, Note_on_c, 0, 80, 0
1, 61258, Note_on_c, 0, 83, 0
1, 61258, Note_on_c, 0, 59, 0
1, 61324, Note_on_c, 0, 83, 94
1, 61327, Note_on_c, 0, 85, 73
1, 61336, Note_on_c, 0, 68, 47
1, 61352, Note_on_c, 0, 83, 0
1, 61374, Note_on_c, 0, 85, 0
1, 61374, Note_on_c, 0, 68, 0
1, 61393, Control_c, 0, 64, 127
1, 61460, Note_on_c, 0, 90, 84
1, 61477, Note_on_c, 0, 88, 75
1, 61481, Note_on_c, 0, 76, 67
1, 61481, Note_on_c, 0, 71, 79
1, 61514, Note_on_c, 0, 88, 0
1, 61547, Note_on_c, 0, 90, 0
1, 61563, Note_on_c, 0, 76, 0
1, 61589, Note_on_c, 0, 71, 0
1, 61609, Note_on_c, 0, 88, 73
1, 61619, Note_on_c, 0, 83, 78
1, 61647, Note_on_c, 0, 88, 0
1, 61653, Note_on_c, 0, 83, 0
1, 61730, Note_on_c, 0, 90, 78
1, 61740, Note_on_c, 0, 88, 65
1, 61756, Note_on_c, 0, 68, 35
1, 61770, Note_on_c, 0, 88, 0
1, 61809, Note_on_c, 0, 68, 0
1, 61815, Note_on_c, 0, 90, 0
1, 61823, Control_c, 0, 64, 0
1, 61859, Note_on_c, 0, 92, 86
1, 61868, Note_on_c, 0, 90, 63
1, 61915, Note_on_c, 0, 90, 0
1, 61939, Note_on_c, 0, 92, 0
1, 61993, Note_on_c, 0, 90, 66
1, 61999, Note_on_c, 0, 92, 38
1, 62002, Note_on_c, 0, 87, 66
1, 62006, Note_on_c, 0, 59, 49
1, 62034, Note_on_c, 0, 87, 0
1, 62045, Note_on_c, 0, 92, 0
1, 62051, Note_on_c, 0, 90, 0
1, 62054, Note_on_c, 0, 59, 0
1, 62116, Note_on_c, 0, 66, 50
1, 62121, Note_on_c, 0, 90, 72
1, 62126, Note_on_c, 0, 69, 28
1, 62132, Note_on_c, 0, 92, 44
1, 62157, Note_on_c, 0, 66, 0
1, 62171, Note_on_c, 0, 90, 0
1, 62171, Note_on_c, 0, 92, 0
1, 62183, Control_c, 0, 64, 127
1, 62183, Note_on_c, 0, 69, 0
1, 62260, Note_on_c, 0, 95, 84
1, 62268, Note_on_c, 0, 93, 81
1, 62282, Note_on_c, 0, 78, 72
1, 62299, Note_on_c, 0, 75, 48
1, 62307, Note_on_c, 0, 93, 0
1, 62313, Note_on_c, 0, 95, 0
1, 62318, Note_on_c, 0, 69, 18
1, 62369, Note_on_c, 0, 78, 0
1, 62399, Note_on_c, 0, 90, 65
1, 62399, Note_on_c, 0, 93, 63
1, 62430, Note_on_c, 0, 75, 0
1, 62438, Note_on_c, 0, 93, 0
1, 62442, Note_on_c, 0, 90, 0
1, 62458, Note_on_c, 0, 69, 0
1, 62525, Note_on_c, 0, 95, 76
1, 62539, Note_on_c, 0, 93, 68
1, 62539, Note_on_c, 0, 71, 54
1, 62572, Note_on_c, 0, 93, 0
1, 62578, Note_on_c, 0, 95, 0
1, 62578, Note_on_c, 0, 71, 0
1, 62626, Control_c, 0, 64, 0
1, 62662, Note_on_c, 0, 97, 72
1, 62669, Note_on_c, 0, 95, 70
1, 62703, Note_on_c, 0, 95, 0
1, 62709, Note_on_c, 0, 97, 0
1, 62795, Note_on_c, 0, 95, 54
1, 62795, Note_on_c, 0, 92, 65
1, 62809, Note_on_c, 0, 59, 42
1, 62832, Note_on_c, 0, 92, 0
1, 62832, Note_on_c, 0, 95, 0
1, 62857, Note_on_c, 0, 59, 0
1, 62910, Note_on_c, 0, 97, 69
1, 62910, Note_on_c, 0, 95, 53
1, 62920, Note_on_c, 0, 68, 52
1, 62924, Note_on_c, 0, 71, 32
1, 62942, Note_on_c, 0, 95, 0
1, 62949, Control_c, 0, 64, 127
1, 62956, Note_on_c, 0, 97, 0
1, 62956, Note_on_c, 0, 68, 0
1, 62981, Note_on_c, 0, 71, 0
1, 63079, Note_on_c, 0, 102, 77
1, 63098, Note_on_c, 0, 80, 71
1, 63102, Note_on_c, 0, 100, 49
1, 63116, Note_on_c, 0, 76, 51
1, 63126, Note_on_c, 0, 102, 0
1, 63141, Note_on_c, 0, 100, 0
1, 63169, Note_on_c, 0, 76, 0
1, 63211, Note_on_c, 0, 80, 0
1, 63243, Note_on_c, 0, 95, 53
1, 63251, Note_on_c, 0, 100, 28
1, 63294, Note_on_c, 0, 100, 0
1, 63297, Note_on_c, 0, 95, 0
1, 63358, Note_on_c, 0, 102, 70
1, 63371, Note_on_c, 0, 100, 29
1, 63378, Note_on_c, 0, 71, 45
1, 63389, Note_on_c, 0, 102, 0
1, 63414, Note_on_c, 0, 100, 0
1, 63430, Note_on_c, 0, 71, 0
1, 63575, Control_c, 0, 64, 0
1, 63605, Note_on_c, 0, 59, 35
1, 63611, Note_on_c, 0, 92, 43
1, 63669, Note_on_c, 0, 90, 50
1, 63669, Note_on_c, 0, 92, 0
1, 63708, Note_on_c, 0, 90, 0
1, 63729, Control_c, 0, 64, 127
1, 63736, Note_on_c, 0, 63, 36
1, 63751, Note_on_c, 0, 89, 32
1, 63751, Note_on_c, 0, 69, 29
1, 63754, Note_on_c, 0, 66, 28
1, 63773, Note_on_c, 0, 59, 0
1, 63793, Note_on_c, 0, 63, 0
1, 63800, Note_on_c, 0, 89, 0
1, 63804, Note_on_c, 0, 69, 0
1, 63804, Note_on_c, 0, 90, 33
1, 63817, Note_on_c, 0, 66, 0
1, 63857, Note_on_c, 0, 90, 0
1, 63871, Note_on_c, 0, 69, 24
1, 63871, Note_on_c, 0, 63, 43
1, 63881, Note_on_c, 0, 92, 50
1, 63893, Note_on_c, 0, 66, 25
1, 63913, Note_on_c, 0, 63, 0
1, 63923, Note_on_c, 0, 92, 0
1, 63940, Note_on_c, 0, 93, 47
1, 63948, Note_on_c, 0, 69, 0
1, 63954, Note_on_c, 0, 66, 0
1, 63984, Note_on_c, 0, 93, 0
1, 64016, Note_on_c, 0, 94, 48
1, 64016, Note_on_c, 0, 58, 48
1, 64054, Note_on_c, 0, 94, 0
1, 64093, Note_on_c, 0, 95, 57
1, 64124, Control_c, 0, 64, 0
1, 64138, Note_on_c, 0, 95, 0
1, 64138, Note_on_c, 0, 70, 40
1, 64144, Note_on_c, 0, 63, 52
1, 64157, Note_on_c, 0, 96, 57
1, 64166, Note_on_c, 0, 66, 30
1, 64185, Note_on_c, 0, 70, 0
1, 64185, Note_on_c, 0, 63, 0
1, 64205, Note_on_c, 0, 96, 0
1, 64219, Note_on_c, 0, 66, 0
1, 64225, Note_on_c, 0, 97, 53
1, 64257, Control_c, 0, 64, 127
1, 64283, Note_on_c, 0, 70, 29
1, 64283, Note_on_c, 0, 66, 34
1, 64286, Note_on_c, 0, 97, 0
1, 64291, Note_on_c, 0, 99, 49
1, 64291, Note_on_c, 0, 63, 41
1, 64327, Note_on_c, 0, 99, 0
1, 64332, Note_on_c, 0, 70, 0
1, 64332, Note_on_c, 0, 66, 0
1, 64332, Note_on_c, 0, 63, 0
1, 64349, Note_on_c, 0, 100, 44
1, 64349, Note_on_c, 0, 58, 0
1, 64394, Note_on_c, 0, 100, 0
1, 64414, Note_on_c, 0, 57, 64
1, 64414, Note_on_c, 0, 101, 56
1, 64425, Control_c, 0, 64, 0
1, 64458, Note_on_c, 0, 101, 0
1, 64489, Note_on_c, 0, 102, 46
1, 64531, Note_on_c, 0, 102, 0
1, 64531, Note_on_c, 0, 63, 64
1, 64538, Note_on_c, 0, 71, 54
1, 64544, Note_on_c, 0, 104, 50
1, 64544, Note_on_c, 0, 66, 41
1, 64567, Note_on_c, 0, 63, 0
1, 64587, Note_on_c, 0, 66, 0
1, 64594, Note_on_c, 0, 71, 0
1, 64594, Control_c, 0, 64, 127
1, 64639, Note_on_c, 0, 102, 28
1, 64639, Note_on_c, 0, 104, 0
1, 64655, Note_on_c, 0, 57, 0
1, 64661, Note_on_c, 0, 71, 50
1, 64670, Note_on_c, 0, 66, 25
1, 64670, Note_on_c, 0, 63, 46
1, 64683, Note_on_c, 0, 101, 53
1, 64690, Note_on_c, 0, 102, 0
1, 64704, Note_on_c, 0, 71, 0
1, 64715, Note_on_c, 0, 63, 0
1, 64715, Note_on_c, 0, 101, 0
1, 64729, Note_on_c, 0, 66, 0
1, 64736, Control_c, 0, 64, 0
1, 64748, Note_on_c, 0, 100, 49
1, 64800, Note_on_c, 0, 56, 81
1, 64820, Note_on_c, 0, 99, 69
1, 64842, Note_on_c, 0, 100, 0
1, 64842, Control_c, 0, 64, 127
1, 64879, Note_on_c, 0, 56, 0
1, 64889, Note_on_c, 0, 97, 47
1, 64903, Note_on_c, 0, 99, 0
1, 64934, Note_on_c, 0, 72, 57
1, 64938, Note_on_c, 0, 63, 64
1, 64941, Note_on_c, 0, 96, 52
1, 64948, Note_on_c, 0, 66, 42
1, 64973, Note_on_c, 0, 72, 0
1, 64977, Note_on_c, 0, 96, 0
1, 64977, Note_on_c, 0, 63, 0
1, 64984, Note_on_c, 0, 97, 0
1, 64995, Note_on_c, 0, 66, 0
1, 65004, Note_on_c, 0, 95, 51
1, 65049, Note_on_c, 0, 95, 0
1, 65074, Note_on_c, 0, 66, 37
1, 65082, Note_on_c, 0, 94, 52
1, 65082, Note_on_c, 0, 63, 57
1, 65090, Note_on_c, 0, 72, 39
1, 65115, Note_on_c, 0, 63, 0
1, 65115, Note_on_c, 0, 66, 0
1, 65126, Note_on_c, 0, 94, 0
1, 65140, Note_on_c, 0, 72, 0
1, 65144, Note_on_c, 0, 93, 50
1, 65218, Note_on_c, 0, 93, 0
1, 65236, Note_on_c, 0, 92, 56
1, 65247, Note_on_c, 0, 62, 91
1, 65307, Note_on_c, 0, 90, 56
1, 65324, Control_c, 0, 64, 0
1, 65342, Note_on_c, 0, 92, 0
1, 65360, Note_on_c, 0, 90, 0
1, 65371, Note_on_c, 0, 89, 61
1, 65383, Note_on_c, 0, 66, 46
1, 65391, Note_on_c, 0, 72, 59
1, 65400, Note_on_c, 0, 69, 45
1, 65424, Note_on_c, 0, 89, 0
1, 65433, Note_on_c, 0, 72, 0
1, 65433, Note_on_c, 0, 90, 46
1, 65450, Note_on_c, 0, 69, 0
1, 65467, Control_c, 0, 64, 127
1, 65477, Note_on_c, 0, 66, 0
1, 65503, Note_on_c, 0, 92, 54
1, 65511, Note_on_c, 0, 90, 0
1, 65530, Note_on_c, 0, 62, 0
1, 65537, Note_on_c, 0, 66, 42
1, 65540, Note_on_c, 0, 72, 34
1, 65543, Note_on_c, 0, 92, 0
1, 65553, Note_on_c, 0, 69, 24
1, 65553, Note_on_c, 0, 93, 68
1, 65580, Note_on_c, 0, 66, 0
1, 65587, Note_on_c, 0, 72, 0
1, 65598, Note_on_c, 0, 93, 0
1, 65606, Note_on_c, 0, 69, 0
1, 65631, Note_on_c, 0, 94, 66
1, 65640, Note_on_c, 0, 61, 91
1, 65662, Note_on_c, 0, 94, 0
1, 65693, Note_on_c, 0, 95, 80
1, 65708, Control_c, 0, 64, 0
1, 65739, Note_on_c, 0, 95, 0
1, 65761, Note_on_c, 0, 73, 64
1, 65764, Note_on_c, 0, 96, 78
1, 65773, Note_on_c, 0, 69, 42
1, 65779, Note_on_c, 0, 66, 45
1, 65814, Note_on_c, 0, 73, 0
1, 65818, Note_on_c, 0, 66, 0
1, 65826, Note_on_c, 0, 69, 0
1, 65829, Note_on_c, 0, 97, 73
1, 65837, Note_on_c, 0, 96, 0
1, 65857, Control_c, 0, 64, 127
1, 65892, Note_on_c, 0, 73, 42
1, 65899, Note_on_c, 0, 99, 70
1, 65907, Note_on_c, 0, 69, 31
1, 65913, Note_on_c, 0, 66, 46
1, 65929, Note_on_c, 0, 97, 0
1, 65935, Note_on_c, 0, 99, 0
1, 65938, Note_on_c, 0, 73, 0
1, 65946, Note_on_c, 0, 61, 0
1, 65957, Note_on_c, 0, 69, 0
1, 65957, Note_on_c, 0, 100, 68
1, 65965, Note_on_c, 0, 66, 0
1, 66018, Control_c, 0, 64, 0
1, 66027, Note_on_c, 0, 60, 98
1, 66027, Note_on_c, 0, 101, 76
1, 66037, Note_on_c, 0, 100, 0
1, 66102, Note_on_c, 0, 102, 74
1, 66124, Note_on_c, 0, 101, 0
1, 66149, Note_on_c, 0, 60, 0
1, 66155, Note_on_c, 0, 102, 0
1, 66158, Note_on_c, 0, 104, 68
1, 66161, Control_c, 0, 64, 127
1, 66174, Note_on_c, 0, 74, 81
1, 66177, Note_on_c, 0, 66, 64
1, 66191, Note_on_c, 0, 69, 36
1, 66213, Note_on_c, 0, 74, 0
1, 66232, Note_on_c, 0, 66, 0
1, 66232, Note_on_c, 0, 102, 55
1, 66244, Note_on_c, 0, 69, 0
1, 66277, Note_on_c, 0, 104, 0
1, 66294, Note_on_c, 0, 101, 69
1, 66302, Note_on_c, 0, 69, 49
1, 66302, Note_on_c, 0, 74, 56
1, 66314, Note_on_c, 0, 66, 54
1, 66322, Note_on_c, 0, 102, 0
1, 66336, Note_on_c, 0, 74, 0
1, 66347, Note_on_c, 0, 69, 0
1, 66358, Note_on_c, 0, 66, 0
1, 66364, Note_on_c, 0, 101, 0
1, 66369, Note_on_c, 0, 100, 60
1, 66378, Control_c, 0, 64, 0
1, 66427, Note_on_c, 0, 99, 83
1, 66430, Note_on_c, 0, 59, 85
1, 66452, Note_on_c, 0, 100, 0
1, 66459, Note_on_c, 0, 59, 0
1, 66486, Control_c, 0, 64, 127
1, 66497, Note_on_c, 0, 97, 58
1, 66547, Note_on_c, 0, 75, 90
1, 66561, Note_on_c, 0, 69, 42
1, 66561, Note_on_c, 0, 99, 0
1, 66561, Note_on_c, 0, 96, 65
1, 66572, Note_on_c, 0, 66, 37
1, 66590, Note_on_c, 0, 75, 0
1, 66598, Note_on_c, 0, 96, 0
1, 66609, Note_on_c, 0, 95, 67
1, 66609, Note_on_c, 0, 97, 0
1, 66617, Note_on_c, 0, 66, 0
1, 66628, Note_on_c, 0, 69, 0
1, 66678, Note_on_c, 0, 94, 67
1, 66681, Note_on_c, 0, 75, 64
1, 66684, Note_on_c, 0, 69, 58
1, 66684, Note_on_c, 0, 95, 0
1, 66704, Note_on_c, 0, 66, 32
1, 66711, Note_on_c, 0, 75, 0
1, 66723, Note_on_c, 0, 69, 0
1, 66748, Note_on_c, 0, 66, 0
1, 66748, Note_on_c, 0, 93, 76
1, 66789, Note_on_c, 0, 94, 0
1, 66796, Note_on_c, 0, 93, 0
1, 66848, Note_on_c, 0, 92, 80
1, 66857, Control_c, 0, 64, 0
1, 66857, Note_on_c, 0, 56, 91
1, 66857, Note_on_c, 0, 52, 113
1, 66862, Note_on_c, 0, 62, 89
1, 66866, Note_on_c, 0, 64, 89
1, 66884, Note_on_c, 0, 52, 0
1, 66898, Note_on_c, 0, 62, 0
1, 66898, Note_on_c, 0, 64, 0
1, 66898, Note_on_c, 0, 56, 0
1, 66920, Note_on_c, 0, 104, 76
1, 66931, Note_on_c, 0, 92, 0
1, 66965, Control_c, 0, 64, 127
1, 66976, Note_on_c, 0, 104, 0
1, 66993, Note_on_c, 0, 90, 78
1, 67002, Note_on_c, 0, 52, 87
1, 67007, Note_on_c, 0, 56, 57
1, 67015, Note_on_c, 0, 62, 35
1, 67018, Note_on_c, 0, 64, 53
1, 67033, Note_on_c, 0, 52, 0
1, 67046, Note_on_c, 0, 56, 0
1, 67055, Note_on_c, 0, 64, 0
1, 67058, Note_on_c, 0, 102, 83
1, 67065, Note_on_c, 0, 62, 0
1, 67071, Note_on_c, 0, 90, 0
1, 67126, Note_on_c, 0, 62, 54
1, 67126, Note_on_c, 0, 52, 87
1, 67132, Note_on_c, 0, 56, 48
1, 67132, Note_on_c, 0, 64, 57
1, 67138, Note_on_c, 0, 102, 0
1, 67138, Note_on_c, 0, 88, 86
1, 67155, Note_on_c, 0, 52, 0
1, 67169, Note_on_c, 0, 64, 0
1, 67174, Note_on_c, 0, 62, 0
1, 67174, Note_on_c, 0, 88, 0
1, 67177, Note_on_c, 0, 56, 0
1, 67193, Control_c, 0, 64, 0
1, 67204, Note_on_c, 0, 100, 67
1, 67232, Note_on_c, 0, 100, 0
1, 67257, Note_on_c, 0, 57, 84
1, 67261, Note_on_c, 0, 62, 63
1, 67264, Note_on_c, 0, 64, 73
1, 67264, Note_on_c, 0, 54, 85
1, 67264, Note_on_c, 0, 86, 88
1, 67300, Control_c, 0, 64, 127
1, 67300, Note_on_c, 0, 62, 0
1, 67306, Note_on_c, 0, 64, 0
1, 67321, Note_on_c, 0, 86, 0
1, 67327, Note_on_c, 0, 98, 59
1, 67335, Note_on_c, 0, 54, 0
1, 67335, Note_on_c, 0, 57, 0
1, 67369, Note_on_c, 0, 98, 0
1, 67391, Note_on_c, 0, 57, 68
1, 67395, Note_on_c, 0, 54, 79
1, 67402, Note_on_c, 0, 82, 91
1, 67413, Note_on_c, 0, 62, 49
1, 67413, Note_on_c, 0, 64, 50
1, 67450, Note_on_c, 0, 64, 0
1, 67453, Note_on_c, 0, 62, 0
1, 67463, Note_on_c, 0, 94, 55
1, 67463, Note_on_c, 0, 57, 0
1, 67467, Note_on_c, 0, 54, 0
1, 67478, Note_on_c, 0, 82, 0
1, 67492, Control_c, 0, 64, 0
1, 67523, Note_on_c, 0, 57, 63
1, 67526, Note_on_c, 0, 54, 81
1, 67526, Note_on_c, 0, 64, 55
1, 67526, Note_on_c, 0, 62, 52
1, 67536, Note_on_c, 0, 94, 0
1, 67540, Note_on_c, 0, 83, 101
1, 67558, Note_on_c, 0, 81, 38
1, 67570, Note_on_c, 0, 83, 0
1, 67570, Note_on_c, 0, 62, 0
1, 67575, Note_on_c, 0, 57, 0
1, 67580, Note_on_c, 0, 95, 87
1, 67597, Note_on_c, 0, 64, 0
1, 67604, Note_on_c, 0, 54, 0
1, 67607, Note_on_c, 0, 81, 0
1, 67612, Note_on_c, 0, 95, 0
1, 67648, Control_c, 0, 64, 127
1, 67654, Note_on_c, 0, 85, 100
1, 67659, Note_on_c, 0, 56, 78
1, 67659, Note_on_c, 0, 64, 63
1, 67662, Note_on_c, 0, 62, 78
1, 67665, Note_on_c, 0, 59, 78
1, 67701, Note_on_c, 0, 62, 0
1, 67707, Note_on_c, 0, 59, 0
1, 67712, Note_on_c, 0, 97, 82
1, 67717, Note_on_c, 0, 64, 0
1, 67728, Note_on_c, 0, 56, 0
1, 67742, Note_on_c, 0, 85, 0
1, 67742, Control_c, 0, 64, 0
1, 67774, Note_on_c, 0, 97, 0
1, 67782, Note_on_c, 0, 59, 55
1, 67785, Note_on_c, 0, 64, 56
1, 67785, Note_on_c, 0, 56, 58
1, 67789, Note_on_c, 0, 62, 66
1, 67799, Note_on_c, 0, 83, 103
1, 67823, Note_on_c, 0, 62, 0
1, 67831, Control_c, 0, 64, 127
1, 67842, Note_on_c, 0, 95, 77
1, 67842, Note_on_c, 0, 56, 0
1, 67846, Note_on_c, 0, 64, 0
1, 67857, Note_on_c, 0, 59, 0
1, 67857, Note_on_c, 0, 83, 0
1, 67884, Note_on_c, 0, 95, 0
1, 67912, Note_on_c, 0, 59, 72
1, 67916, Note_on_c, 0, 56, 55
1, 67920, Note_on_c, 0, 82, 82
1, 67923, Note_on_c, 0, 62, 53
1, 67923, Control_c, 0, 64, 0
1, 67923, Note_on_c, 0, 64, 49
1, 67960, Note_on_c, 0, 62, 0
1, 67960, Note_on_c, 0, 64, 0
1, 67969, Note_on_c, 0, 56, 0
1, 67969, Note_on_c, 0, 94, 73
1, 67969, Note_on_c, 0, 59, 0
1, 67999, Note_on_c, 0, 82, 0
1, 68032, Note_on_c, 0, 94, 0
1, 68048, Note_on_c, 0, 57, 76
1, 68051, Note_on_c, 0, 81, 86
1, 68051, Note_on_c, 0, 54, 72
1, 68051, Note_on_c, 0, 62, 51
1, 68051, Note_on_c, 0, 64, 54
1, 68055, Control_c, 0, 64, 127
1, 68088, Note_on_c, 0, 62, 0
1, 68088, Note_on_c, 0, 64, 0
1, 68088, Note_on_c, 0, 93, 71
1, 68099, Note_on_c, 0, 54, 0
1, 68104, Control_c, 0, 64, 0
1, 68121, Note_on_c, 0, 81, 0
1, 68124, Note_on_c, 0, 57, 0
1, 68129, Note_on_c, 0, 93, 0
1, 68169, Note_on_c, 0, 57, 71
1, 68172, Note_on_c, 0, 64, 51
1, 68172, Note_on_c, 0, 62, 54
1, 68175, Control_c, 0, 64, 127
1, 68175, Note_on_c, 0, 54, 70
1, 68175, Note_on_c, 0, 77, 90
1, 68210, Note_on_c, 0, 62, 0
1, 68219, Note_on_c, 0, 77, 0
1, 68222, Note_on_c, 0, 64, 0
1, 68225, Note_on_c, 0, 89, 51
1, 68236, Note_on_c, 0, 54, 0
1, 68236, Control_c, 0, 64, 0
1, 68249, Note_on_c, 0, 57, 0
1, 68263, Note_on_c, 0, 89, 0
1, 68297, Note_on_c, 0, 57, 72
1, 68297, Note_on_c, 0, 78, 100
1, 68303, Note_on_c, 0, 54, 69
1, 68303, Note_on_c, 0, 64, 51
1, 68311, Note_on_c, 0, 62, 61
1, 68331, Control_c, 0, 64, 127
1, 68344, Note_on_c, 0, 62, 0
1, 68356, Note_on_c, 0, 64, 0
1, 68364, Note_on_c, 0, 78, 0
1, 68374, Note_on_c, 0, 90, 69
1, 68378, Note_on_c, 0, 57, 0
1, 68378, Control_c, 0, 64, 0
1, 68386, Note_on_c, 0, 54, 0
1, 68441, Note_on_c, 0, 80, 102
1, 68441, Note_on_c, 0, 62, 66
1, 68445, Note_on_c, 0, 52, 88
1, 68445, Note_on_c, 0, 64, 66
1, 68448, Note_on_c, 0, 56, 67
1, 68476, Note_on_c, 0, 92, 80
1, 68487, Note_on_c, 0, 52, 0
1, 68487, Note_on_c, 0, 64, 0
1, 68492, Note_on_c, 0, 62, 0
1, 68495, Note_on_c, 0, 56, 0
1, 68498, Note_on_c, 0, 90, 0
1, 68505, Note_on_c, 0, 80, 0
1, 68523, Control_c, 0, 64, 127
1, 68559, Control_c, 0, 64, 0
1, 68562, Note_on_c, 0, 78, 95
1, 68562, Note_on_c, 0, 92, 0
1, 68573, Note_on_c, 0, 56, 55
1, 68573, Note_on_c, 0, 52, 77
1, 68579, Note_on_c, 0, 62, 43
1, 68584, Note_on_c, 0, 64, 58
1, 68608, Note_on_c, 0, 52, 0
1, 68617, Note_on_c, 0, 90, 72
1, 68622, Note_on_c, 0, 64, 0
1, 68625, Note_on_c, 0, 62, 0
1, 68631, Note_on_c, 0, 56, 0
1, 68642, Note_on_c, 0, 78, 0
1, 68654, Control_c, 0, 64, 127
1, 68667, Note_on_c, 0, 90, 0
1, 68690, Note_on_c, 0, 76, 80
1, 68698, Note_on_c, 0, 62, 50
1, 68698, Note_on_c, 0, 56, 53
1, 68703, Note_on_c, 0, 64, 56
1, 68706, Note_on_c, 0, 52, 70
1, 68715, Control_c, 0, 64, 0
1, 68737, Note_on_c, 0, 88, 74
1, 68740, Note_on_c, 0, 52, 0
1, 68746, Note_on_c, 0, 64, 0
1, 68746, Note_on_c, 0, 62, 0
1, 68754, Note_on_c, 0, 76, 0
1, 68759, Note_on_c, 0, 56, 0
1, 68776, Note_on_c, 0, 88, 0
1, 68823, Note_on_c, 0, 62, 61
1, 68823, Note_on_c, 0, 64, 68
1, 68829, Note_on_c, 0, 57, 67
1, 68829, Note_on_c, 0, 54, 80
1, 68835, Note_on_c, 0, 74, 71
1, 68835, Control_c, 0, 64, 127
1, 68862, Note_on_c, 0, 86, 83
1, 68873, Note_on_c, 0, 62, 0
1, 68873, Note_on_c, 0, 64, 0
1, 68873, Note_on_c, 0, 74, 0
1, 68882, Control_c, 0, 64, 0
1, 68890, Note_on_c, 0, 57, 0
1, 68890, Note_on_c, 0, 54, 0
1, 68890, Note_on_c, 0, 86, 0
1, 68955, Note_on_c, 0, 57, 52
1, 68955, Note_on_c, 0, 54, 69
1, 68963, Note_on_c, 0, 70, 86
1, 68963, Note_on_c, 0, 62, 52
1, 68966, Note_on_c, 0, 64, 50
1, 68979, Control_c, 0, 64, 127
1, 69001, Note_on_c, 0, 82, 69
1, 69004, Note_on_c, 0, 62, 0
1, 69004, Note_on_c, 0, 64, 0
1, 69026, Control_c, 0, 64, 0
1, 69041, Note_on_c, 0, 57, 0
1, 69044, Note_on_c, 0, 54, 0
1, 69047, Note_on_c, 0, 70, 0
1, 69077, Note_on_c, 0, 82, 0
1, 69080, Note_on_c, 0, 71, 97
1, 69083, Note_on_c, 0, 57, 85
1, 69086, Note_on_c, 0, 54, 89
1, 69089, Note_on_c, 0, 62, 61
1, 69089, Note_on_c, 0, 64, 57
1, 69129, Note_on_c, 0, 83, 93
1, 69129, Note_on_c, 0, 62, 0
1, 69133, Note_on_c, 0, 57, 0
1, 69147, Control_c, 0, 64, 127
1, 69147, Note_on_c, 0, 54, 0
1, 69152, Note_on_c, 0, 64, 0
1, 69158, Note_on_c, 0, 83, 0
1, 69161, Note_on_c, 0, 71, 0
1, 69194, Control_c, 0, 64, 0
1, 69210, Note_on_c, 0, 73, 97
1, 69227, Note_on_c, 0, 62, 58
1, 69227, Note_on_c, 0, 56, 71
1, 69232, Note_on_c, 0, 59, 74
1, 69232, Note_on_c, 0, 64, 60
1, 69247, Note_on_c, 0, 85, 82
1, 69269, Note_on_c, 0, 64, 0
1, 69272, Note_on_c, 0, 62, 0
1, 69272, Note_on_c, 0, 56, 0
1, 69272, Note_on_c, 0, 59, 0
1, 69291, Note_on_c, 0, 73, 0
1, 69302, Control_c, 0, 64, 127
1, 69324, Note_on_c, 0, 85, 0
1, 69338, Note_on_c, 0, 59, 70
1, 69345, Note_on_c, 0, 56, 61
1, 69345, Note_on_c, 0, 71, 94
1, 69345, Note_on_c, 0, 62, 47
1, 69348, Note_on_c, 0, 64, 63
1, 69361, Control_c, 0, 64, 0
1, 69373, Note_on_c, 0, 83, 100
1, 69389, Note_on_c, 0, 62, 0
1, 69389, Note_on_c, 0, 64, 0
1, 69394, Note_on_c, 0, 56, 0
1, 69400, Note_on_c, 0, 71, 0
1, 69408, Note_on_c, 0, 83, 0
1, 69408, Note_on_c, 0, 59, 0
1, 69458, Control_c, 0, 64, 127
1, 69462, Note_on_c, 0, 70, 88
1, 69470, Note_on_c, 0, 59, 72
1, 69470, Note_on_c, 0, 56, 60
1, 69473, Note_on_c, 0, 62, 44
1, 69478, Note_on_c, 0, 64, 68
1, 69506, Note_on_c, 0, 82, 80
1, 69512, Note_on_c, 0, 59, 0
1, 69512, Note_on_c, 0, 64, 0
1, 69517, Note_on_c, 0, 62, 0
1, 69528, Note_on_c, 0, 56, 0
1, 69528, Control_c, 0, 64, 0
1, 69550, Note_on_c, 0, 70, 0
1, 69597, Note_on_c, 0, 82, 0
1, 69597, Note_on_c, 0, 69, 85
1, 69601, Note_on_c, 0, 62, 54
1, 69601, Note_on_c, 0, 57, 76
1, 69601, Note_on_c, 0, 64, 66
1, 69604, Note_on_c, 0, 54, 78
1, 69617, Note_on_c, 0, 81, 90
1, 69626, Control_c, 0, 64, 127
1, 69637, Note_on_c, 0, 62, 0
1, 69637, Note_on_c, 0, 64, 0
1, 69661, Note_on_c, 0, 54, 0
1, 69661, Note_on_c, 0, 81, 0
1, 69661, Note_on_c, 0, 69, 0
1, 69667, Note_on_c, 0, 57, 0
1, 69698, Control_c, 0, 64, 0
1, 69720, Note_on_c, 0, 57, 72
1, 69720, Note_on_c, 0, 54, 76
1, 69728, Note_on_c, 0, 64, 54
1, 69728, Note_on_c, 0, 65, 87
1, 69728, Note_on_c, 0, 62, 61
1, 69757, Note_on_c, 0, 77, 78
1, 69765, Note_on_c, 0, 62, 0
1, 69770, Note_on_c, 0, 64, 0
1, 69774, Note_on_c, 0, 54, 0
1, 69782, Control_c, 0, 64, 127
1, 69790, Note_on_c, 0, 77, 0
1, 69790, Note_on_c, 0, 65, 0
1, 69806, Note_on_c, 0, 57, 0
1, 69841, Control_c, 0, 64, 0
1, 69849, Note_on_c, 0, 57, 75
1, 69849, Note_on_c, 0, 64, 56
1, 69852, Note_on_c, 0, 54, 68
1, 69856, Note_on_c, 0, 62, 61
1, 69859, Note_on_c, 0, 66, 97
1, 69888, Note_on_c, 0, 62, 0
1, 69902, Note_on_c, 0, 64, 0
1, 69905, Note_on_c, 0, 78, 76
1, 69923, Note_on_c, 0, 57, 0
1, 69935, Note_on_c, 0, 54, 0
1, 69935, Control_c, 0, 64, 127
1, 69941, Note_on_c, 0, 66, 0
1, 69973, Control_c, 0, 64, 0
1, 69988, Note_on_c, 0, 78, 0
1, 69996, Note_on_c, 0, 68, 95
1, 69996, Note_on_c, 0, 62, 97
1, 70002, Note_on_c, 0, 56, 83
1, 70002, Note_on_c, 0, 64, 108
1, 70005, Note_on_c, 0, 52, 102
1, 70055, Note_on_c, 0, 80, 75
1, 70085, Note_on_c, 0, 68, 0
1, 70102, Note_on_c, 0, 62, 0
1, 70107, Control_c, 0, 64, 127
1, 70111, Note_on_c, 0, 80, 0
1, 70121, Note_on_c, 0, 64, 0
1, 70135, Note_on_c, 0, 52, 0
1, 70139, Note_on_c, 0, 66, 84
1, 70139, Note_on_c, 0, 56, 0
1, 70194, Note_on_c, 0, 78, 68
1, 70239, Note_on_c, 0, 66, 0
1, 70242, Note_on_c, 0, 78, 0
1, 70285, Note_on_c, 0, 64, 77
1, 70317, Note_on_c, 0, 76, 80
1, 70352, Note_on_c, 0, 64, 0
1, 70352, Note_on_c, 0, 76, 0
1, 70419, Note_on_c, 0, 62, 69
1, 70434, Note_on_c, 0, 74, 76
1, 70455, Note_on_c, 0, 62, 0
1, 70464, Note_on_c, 0, 74, 0
1, 70476, Control_c, 0, 64, 0
1, 70534, Note_on_c, 0, 46, 81
1, 70534, Note_on_c, 0, 34, 86
1, 70562, Note_on_c, 0, 34, 0
1, 70565, Note_on_c, 0, 46, 0
1, 70587, Note_on_c, 0, 70, 71
1, 70593, Note_on_c, 0, 58, 67
1, 70626, Note_on_c, 0, 70, 0
1, 70645, Note_on_c, 0, 58, 0
1, 70660, Note_on_c, 0, 47, 88
1, 70665, Note_on_c, 0, 35, 99
1, 70689, Note_on_c, 0, 47, 0
1, 70689, Note_on_c, 0, 35, 0
1, 70701, Note_on_c, 0, 59, 59
1, 70706, Note_on_c, 0, 71, 56
1, 70737, Note_on_c, 0, 59, 0
1, 70748, Note_on_c, 0, 71, 0
1, 70784, Note_on_c, 0, 49, 90
1, 70788, Control_c, 0, 64, 127
1, 70788, Note_on_c, 0, 37, 89
1, 70812, Control_c, 0, 64, 0
1, 70824, Note_on_c, 0, 73, 75
1, 70827, Note_on_c, 0, 61, 80
1, 70852, Note_on_c, 0, 49, 0
1, 70852, Note_on_c, 0, 37, 0
1, 70866, Note_on_c, 0, 73, 0
1, 70874, Note_on_c, 0, 61, 0
1, 70910, Note_on_c, 0, 50, 95
1, 70913, Note_on_c, 0, 38, 83
1, 70919, Control_c, 0, 64, 127
1, 70941, Note_on_c, 0, 50, 0
1, 70944, Note_on_c, 0, 38, 0
1, 70971, Note_on_c, 0, 62, 71
1, 70971, Note_on_c, 0, 74, 74
1, 70991, Control_c, 0, 64, 0
1, 71002, Note_on_c, 0, 74, 0
1, 71002, Note_on_c, 0, 62, 0
1, 71030, Note_on_c, 0, 51, 95
1, 71035, Note_on_c, 0, 39, 88
1, 71052, Control_c, 0, 64, 127
1, 71082, Note_on_c, 0, 39, 0
1, 71082, Note_on_c, 0, 75, 80
1, 71086, Note_on_c, 0, 63, 84
1, 71108, Note_on_c, 0, 51, 0
1, 71114, Note_on_c, 0, 63, 0
1, 71122, Note_on_c, 0, 75, 0
1, 71125, Control_c, 0, 64, 0
1, 71161, Note_on_c, 0, 52, 111
1, 71164, Note_on_c, 0, 40, 113
1, 71185, Note_on_c, 0, 40, 0
1, 71213, Note_on_c, 0, 76, 78
1, 71213, Note_on_c, 0, 52, 0
1, 71213, Note_on_c, 0, 64, 87
1, 71241, Note_on_c, 0, 76, 0
1, 71241, Note_on_c, 0, 64, 0
1, 71244, Control_c, 0, 64, 127
1, 71281, Note_on_c, 0, 54, 106
1, 71286, Note_on_c, 0, 42, 98
1, 71303, Control_c, 0, 64, 0
1, 71327, Note_on_c, 0, 66, 84
1, 71327, Note_on_c, 0, 78, 90
1, 71330, Note_on_c, 0, 42, 0
1, 71364, Note_on_c, 0, 54, 0
1, 71364, Note_on_c, 0, 66, 0
1, 71375, Note_on_c, 0, 78, 0
1, 71408, Note_on_c, 0, 55, 104
1, 71408, Note_on_c, 0, 43, 103
1, 71408, Control_c, 0, 64, 127
1, 71433, Note_on_c, 0, 43, 0
1, 71439, Note_on_c, 0, 55, 0
1, 71453, Note_on_c, 0, 67, 90
1, 71453, Note_on_c, 0, 79, 92
1, 71459, Control_c, 0, 64, 0
1, 71483, Note_on_c, 0, 67, 0
1, 71483, Note_on_c, 0, 79, 0
1, 71528, Note_on_c, 0, 56, 101
1, 71534, Note_on_c, 0, 44, 98
1, 71561, Note_on_c, 0, 44, 0
1, 71567, Control_c, 0, 64, 127
1, 71567, Note_on_c, 0, 68, 87
1, 71573, Note_on_c, 0, 80, 86
1, 71584, Note_on_c, 0, 56, 0
1, 71611, Note_on_c, 0, 68, 0
1, 71611, Note_on_c, 0, 80, 0
1, 71626, Control_c, 0, 64, 0
1, 71650, Note_on_c, 0, 58, 92
1, 71657, Note_on_c, 0, 46, 88
1, 71695, Note_on_c, 0, 46, 0
1, 71701, Note_on_c, 0, 70, 83
1, 71704, Note_on_c, 0, 82, 80
1, 71729, Note_on_c, 0, 70, 0
1, 71732, Note_on_c, 0, 58, 0
1, 71732, Note_on_c, 0, 82, 0
1, 71735, Control_c, 0, 64, 127
1, 71774, Note_on_c, 0, 47, 101
1, 71774, Note_on_c, 0, 59, 105
1, 71795, Control_c, 0, 64, 0
1, 71804, Note_on_c, 0, 47, 0
1, 71810, Note_on_c, 0, 59, 0
1, 71832, Note_on_c, 0, 71, 97
1, 71840, Note_on_c, 0, 83, 94
1, 71859, Note_on_c, 0, 71, 0
1, 71868, Note_on_c, 0, 83, 0
1, 71891, Control_c, 0, 64, 127
1, 71901, Note_on_c, 0, 61, 106
1, 71907, Note_on_c, 0, 49, 96
1, 71938, Note_on_c, 0, 49, 0
1, 71944, Note_on_c, 0, 73, 86
1, 71944, Note_on_c, 0, 85, 92
1, 71962, Control_c, 0, 64, 0
1, 71972, Note_on_c, 0, 61, 0
1, 71977, Note_on_c, 0, 85, 0
1, 71980, Note_on_c, 0, 73, 0
1, 72027, Note_on_c, 0, 50, 104
1, 72027, Note_on_c, 0, 62, 95
1, 72054, Note_on_c, 0, 50, 0
1, 72058, Note_on_c, 0, 62, 0
1, 72068, Note_on_c, 0, 74, 96
1, 72068, Note_on_c, 0, 86, 95
1, 72068, Control_c, 0, 64, 127
1, 72089, Note_on_c, 0, 74, 0
1, 72089, Note_on_c, 0, 86, 0
1, 72155, Control_c, 0, 64, 0
1, 72155, Note_on_c, 0, 63, 103
1, 72164, Note_on_c, 0, 51, 93
1, 72185, Note_on_c, 0, 75, 93
1, 72188, Note_on_c, 0, 87, 90
1, 72194, Note_on_c, 0, 51, 0
1, 72205, Note_on_c, 0, 63, 0
1, 72224, Note_on_c, 0, 87, 0
1, 72231, Note_on_c, 0, 75, 0
1, 72285, Control_c, 0, 64, 127
1, 72302, Note_on_c, 0, 52, 108
1, 72302, Note_on_c, 0, 64, 105
1, 72316, Note_on_c, 0, 88, 95
1, 72320, Note_on_c, 0, 76, 79
1, 72323, Note_on_c, 0, 52, 0
1, 72327, Note_on_c, 0, 64, 0
1, 72341, Note_on_c, 0, 88, 0
1, 72348, Note_on_c, 0, 76, 0
1, 72358, Control_c, 0, 64, 0
1, 72431, Note_on_c, 0, 90, 98
1, 72431, Note_on_c, 0, 78, 98
1, 72437, Note_on_c, 0, 66, 88
1, 72442, Control_c, 0, 64, 127
1, 72442, Note_on_c, 0, 54, 99
1, 72473, Note_on_c, 0, 54, 0
1, 72484, Note_on_c, 0, 66, 0
1, 72501, Control_c, 0, 64, 0
1, 72506, Note_on_c, 0, 78, 0
1, 72506, Note_on_c, 0, 90, 0
1, 72561, Note_on_c, 0, 79, 107
1, 72561, Note_on_c, 0, 91, 104
1, 72567, Note_on_c, 0, 67, 92
1, 72570, Note_on_c, 0, 55, 92
1, 72592, Note_on_c, 0, 91, 0
1, 72595, Note_on_c, 0, 67, 0
1, 72595, Note_on_c, 0, 79, 0
1, 72595, Note_on_c, 0, 55, 0
1, 72621, Control_c, 0, 64, 127
1, 72657, Control_c, 0, 64, 0
1, 72687, Note_on_c, 0, 80, 103
1, 72690, Note_on_c, 0, 92, 98
1, 72690, Note_on_c, 0, 68, 92
1, 72698, Note_on_c, 0, 56, 86
1, 72726, Note_on_c, 0, 56, 0
1, 72735, Note_on_c, 0, 68, 0
1, 72762, Note_on_c, 0, 92, 0
1, 72762, Note_on_c, 0, 80, 0
1, 72790, Control_c, 0, 64, 127
1, 72816, Note_on_c, 0, 82, 99
1, 72816, Note_on_c, 0, 94, 95
1, 72816, Note_on_c, 0, 70, 87
1, 72826, Control_c, 0, 64, 0
1, 72826, Note_on_c, 0, 58, 75
1, 72851, Note_on_c, 0, 70, 0
1, 72860, Note_on_c, 0, 58, 0
1, 72899, Note_on_c, 0, 82, 0
1, 72899, Note_on_c, 0, 94, 0
1, 72944, Note_on_c, 0, 95, 107
1, 72944, Note_on_c, 0, 83, 119
1, 72944, Control_c, 0, 64, 127
1, 72952, Note_on_c, 0, 71, 96
1, 72952, Note_on_c, 0, 59, 89
1, 72977, Note_on_c, 0, 71, 0
1, 72977, Note_on_c, 0, 59, 0
1, 72980, Note_on_c, 0, 83, 0
1, 72994, Control_c, 0, 64, 0
1, 73021, Note_on_c, 0, 95, 0
1, 73080, Note_on_c, 0, 85, 104
1, 73083, Note_on_c, 0, 73, 86
1, 73083, Note_on_c, 0, 97, 100
1, 73089, Note_on_c, 0, 61, 86
1, 73111, Note_on_c, 0, 73, 0
1, 73117, Note_on_c, 0, 61, 0
1, 73125, Control_c, 0, 64, 127
1, 73152, Note_on_c, 0, 85, 0
1, 73152, Note_on_c, 0, 97, 0
1, 73161, Control_c, 0, 64, 0
1, 73214, Note_on_c, 0, 98, 113
1, 73214, Note_on_c, 0, 86, 102
1, 73214, Note_on_c, 0, 74, 94
1, 73222, Note_on_c, 0, 62, 85
1, 73241, Note_on_c, 0, 98, 0
1, 73241, Note_on_c, 0, 74, 0
1, 73244, Note_on_c, 0, 86, 0
1, 73250, Note_on_c, 0, 62, 0
1, 73269, Control_c, 0, 64, 127
1, 73355, Note_on_c, 0, 87, 100
1, 73355, Note_on_c, 0, 99, 101
1, 73366, Note_on_c, 0, 75, 88
1, 73370, Note_on_c, 0, 63, 88
1, 73390, Note_on_c, 0, 75, 0
1, 73395, Note_on_c, 0, 63, 0
1, 73426, Note_on_c, 0, 87, 0
1, 73436, Note_on_c, 0, 99, 0
1, 73497, Control_c, 0, 64, 0
1, 73536, Note_on_c, 0, 88, 116
1, 73536, Note_on_c, 0, 100, 112
1, 73536, Note_on_c, 0, 76, 103
1, 73542, Note_on_c, 0, 64, 101
1, 73559, Note_on_c, 0, 76, 0
1, 73564, Note_on_c, 0, 64, 0
1, 73593, Control_c, 0, 64, 127
1, 73632, Note_on_c, 0, 88, 0
1, 73656, Note_on_c, 0, 100, 0
1, 73712, Control_c, 0, 64, 0
1, 73795, Note_on_c, 0, 100, 101
1, 73795, Note_on_c, 0, 88, 104
1, 73815, Note_on_c, 0, 100, 0
1, 73819, Note_on_c, 0, 88, 0
1, 73819, Note_on_c, 0, 64, 43
1, 73844, Control_c, 0, 64, 127
1, 73868, Note_on_c, 0, 88, 58
1, 73868, Note_on_c, 0, 100, 83
1, 73880, Note_on_c, 0, 52, 97
1, 73904, Note_on_c, 0, 52, 0
1, 73912, Note_on_c, 0, 64, 0
1, 73974, Note_on_c, 0, 88, 0
1, 73999, Note_on_c, 0, 100, 0
1, 74036, Control_c, 0, 64, 0
1, 74063, Note_on_c, 0, 101, 101
1, 74063, Note_on_c, 0, 56, 105
1, 74069, Note_on_c, 0, 89, 98
1, 74072, Note_on_c, 0, 44, 105
1, 74096, Note_on_c, 0, 44, 0
1, 74133, Note_on_c, 0, 56, 0
1, 74138, Note_on_c, 0, 96, 83
1, 74144, Control_c, 0, 64, 127
1, 74167, Note_on_c, 0, 89, 0
1, 74189, Note_on_c, 0, 101, 0
1, 74209, Note_on_c, 0, 92, 67
1, 74264, Note_on_c, 0, 96, 0
1, 74273, Note_on_c, 0, 89, 73
1, 74287, Note_on_c, 0, 92, 0
1, 74291, Note_on_c, 0, 65, 74
1, 74291, Note_on_c, 0, 56, 72
1, 74300, Note_on_c, 0, 60, 55
1, 74308, Note_on_c, 0, 89, 0
1, 74325, Note_on_c, 0, 65, 0
1, 74337, Note_on_c, 0, 56, 0
1, 74342, Note_on_c, 0, 60, 0
1, 74353, Note_on_c, 0, 84, 101
1, 74384, Note_on_c, 0, 60, 86
1, 74387, Note_on_c, 0, 65, 72
1, 74394, Note_on_c, 0, 56, 70
1, 74429, Note_on_c, 0, 80, 81
1, 74464, Note_on_c, 0, 65, 0
1, 74468, Note_on_c, 0, 60, 0
1, 74468, Note_on_c, 0, 56, 0
1, 74473, Note_on_c, 0, 80, 0
1, 74478, Note_on_c, 0, 84, 0
1, 74503, Note_on_c, 0, 88, 106
1, 74503, Note_on_c, 0, 76, 95
1, 74506, Note_on_c, 0, 64, 104
1, 74512, Note_on_c, 0, 52, 101
1, 74531, Note_on_c, 0, 76, 0
1, 74570, Note_on_c, 0, 88, 0
1, 74603, Note_on_c, 0, 64, 0
1, 74631, Note_on_c, 0, 52, 0
1, 74635, Control_c, 0, 64, 0
1, 74768, Note_on_c, 0, 100, 95
1, 74768, Note_on_c, 0, 64, 89
1, 74773, Note_on_c, 0, 88, 92
1, 74780, Note_on_c, 0, 52, 56
1, 74791, Note_on_c, 0, 100, 0
1, 74796, Note_on_c, 0, 64, 0
1, 74801, Note_on_c, 0, 88, 0
1, 74819, Note_on_c, 0, 52, 0
1, 74840, Control_c, 0, 64, 127
1, 74840, Note_on_c, 0, 88, 92
1, 74840, Note_on_c, 0, 100, 95
1, 74852, Note_on_c, 0, 64, 83
1, 74860, Note_on_c, 0, 52, 106
1, 74887, Note_on_c, 0, 64, 0
1, 74887, Note_on_c, 0, 52, 0
1, 74983, Control_c, 0, 64, 0
1, 74986, Note_on_c, 0, 100, 0
1, 74989, Note_on_c, 0, 88, 0
1, 75039, Note_on_c, 0, 56, 106
1, 75044, Note_on_c, 0, 101, 107
1, 75044, Note_on_c, 0, 89, 106
1, 75050, Note_on_c, 0, 44, 98
1, 75072, Note_on_c, 0, 44, 0
1, 75113, Note_on_c, 0, 56, 0
1, 75127, Control_c, 0, 64, 127
1, 75142, Note_on_c, 0, 96, 79
1, 75167, Note_on_c, 0, 89, 0
1, 75180, Note_on_c, 0, 101, 0
1, 75214, Note_on_c, 0, 92, 69
1, 75258, Note_on_c, 0, 96, 0
1, 75269, Note_on_c, 0, 89, 74
1, 75278, Note_on_c, 0, 56, 75
1, 75278, Note_on_c, 0, 65, 81
1, 75295, Note_on_c, 0, 92, 0
1, 75295, Note_on_c, 0, 60, 55
1, 75302, Note_on_c, 0, 89, 0
1, 75311, Note_on_c, 0, 65, 0
1, 75320, Note_on_c, 0, 56, 0
1, 75334, Note_on_c, 0, 60, 0
1, 75353, Note_on_c, 0, 84, 103
1, 75372, Note_on_c, 0, 56, 70
1, 75372, Note_on_c, 0, 60, 94
1, 75372, Note_on_c, 0, 65, 69
1, 75425, Note_on_c, 0, 80, 85
1, 75443, Note_on_c, 0, 65, 0
1, 75464, Note_on_c, 0, 84, 0
1, 75472, Note_on_c, 0, 56, 0
1, 75479, Note_on_c, 0, 60, 0
1, 75493, Note_on_c, 0, 80, 0
1, 75507, Note_on_c, 0, 88, 107
1, 75507, Note_on_c, 0, 76, 96
1, 75512, Note_on_c, 0, 64, 100
1, 75512, Note_on_c, 0, 52, 101
1, 75532, Note_on_c, 0, 76, 0
1, 75571, Note_on_c, 0, 88, 0
1, 75631, Control_c, 0, 64, 0
1, 75637, Note_on_c, 0, 64, 0
1, 75645, Note_on_c, 0, 52, 0
1, 75734, Note_on_c, 0, 88, 103
1, 75738, Note_on_c, 0, 100, 96
1, 75741, Note_on_c, 0, 64, 94
1, 75741, Note_on_c, 0, 52, 95
1, 75755, Note_on_c, 0, 88, 0
1, 75759, Note_on_c, 0, 100, 0
1, 75765, Note_on_c, 0, 64, 0
1, 75765, Note_on_c, 0, 52, 0
1, 75802, Note_on_c, 0, 100, 78
1, 75802, Note_on_c, 0, 88, 68
1, 75815, Note_on_c, 0, 64, 89
1, 75819, Note_on_c, 0, 52, 92
1, 75869, Control_c, 0, 64, 127
1, 75887, Note_on_c, 0, 52, 0
1, 75887, Note_on_c, 0, 64, 0
1, 75919, Note_on_c, 0, 88, 0
1, 75983, Note_on_c, 0, 100, 0
1, 75989, Control_c, 0, 64, 0
1, 76047, Note_on_c, 0, 56, 106
1, 76047, Note_on_c, 0, 101, 106
1, 76052, Note_on_c, 0, 89, 108
1, 76052, Note_on_c, 0, 44, 105
1, 76078, Note_on_c, 0, 44, 0
1, 76119, Note_on_c, 0, 56, 0
1, 76133, Control_c, 0, 64, 127
1, 76139, Note_on_c, 0, 96, 72
1, 76161, Note_on_c, 0, 89, 0
1, 76178, Note_on_c, 0, 101, 0
1, 76205, Note_on_c, 0, 92, 67
1, 76264, Note_on_c, 0, 96, 0
1, 76273, Note_on_c, 0, 89, 74
1, 76301, Note_on_c, 0, 92, 0
1, 76308, Note_on_c, 0, 89, 0
1, 76351, Note_on_c, 0, 65, 71
1, 76351, Note_on_c, 0, 56, 68
1, 76358, Note_on_c, 0, 60, 68
1, 76381, Note_on_c, 0, 84, 71
1, 76398, Note_on_c, 0, 65, 0
1, 76414, Note_on_c, 0, 56, 0
1, 76429, Note_on_c, 0, 60, 0
1, 76439, Note_on_c, 0, 80, 86
1, 76473, Note_on_c, 0, 84, 0
1, 76495, Note_on_c, 0, 80, 0
1, 76501, Note_on_c, 0, 89, 101
1, 76501, Note_on_c, 0, 65, 89
1, 76501, Note_on_c, 0, 60, 85
1, 76507, Note_on_c, 0, 77, 76
1, 76514, Note_on_c, 0, 56, 81
1, 76531, Note_on_c, 0, 65, 0
1, 76548, Note_on_c, 0, 60, 0
1, 76557, Note_on_c, 0, 56, 0
1, 76592, Note_on_c, 0, 84, 80
1, 76598, Note_on_c, 0, 77, 0
1, 76645, Note_on_c, 0, 89, 0
1, 76651, Note_on_c, 0, 80, 75
1, 76684, Note_on_c, 0, 84, 0
1, 76709, Note_on_c, 0, 77, 80
1, 76724, Note_on_c, 0, 80, 0
1, 76738, Note_on_c, 0, 77, 0
1, 76794, Note_on_c, 0, 44, 84
1, 76794, Note_on_c, 0, 53, 98
1, 76794, Note_on_c, 0, 48, 74
1, 76805, Note_on_c, 0, 72, 84
1, 76852, Note_on_c, 0, 53, 0
1, 76865, Note_on_c, 0, 68, 63
1, 76877, Note_on_c, 0, 44, 0
1, 76882, Note_on_c, 0, 48, 0
1, 76900, Note_on_c, 0, 72, 0
1, 76922, Note_on_c, 0, 77, 97
1, 76927, Note_on_c, 0, 68, 0
1, 76930, Note_on_c, 0, 65, 65
1, 76930, Note_on_c, 0, 48, 85
1, 76930, Note_on_c, 0, 53, 103
1, 76938, Note_on_c, 0, 44, 83
1, 76997, Note_on_c, 0, 53, 0
1, 77000, Note_on_c, 0, 72, 54
1, 77013, Note_on_c, 0, 65, 0
1, 77028, Note_on_c, 0, 48, 0
1, 77046, Note_on_c, 0, 77, 0
1, 77057, Note_on_c, 0, 44, 0
1, 77066, Note_on_c, 0, 68, 73
1, 77094, Note_on_c, 0, 72, 0
1, 77120, Note_on_c, 0, 65, 74
1, 77150, Note_on_c, 0, 65, 0
1, 77150, Note_on_c, 0, 68, 0
1, 77247, Note_on_c, 0, 32, 90
1, 77247, Note_on_c, 0, 60, 63
1, 77251, Note_on_c, 0, 41, 96
1, 77251, Note_on_c, 0, 36, 93
1, 77291, Note_on_c, 0, 60, 0
1, 77319, Note_on_c, 0, 56, 60
1, 77323, Note_on_c, 0, 41, 0
1, 77337, Note_on_c, 0, 32, 0
1, 77348, Note_on_c, 0, 36, 0
1, 77358, Note_on_c, 0, 56, 0
1, 77406, Note_on_c, 0, 32, 88
1, 77406, Note_on_c, 0, 36, 91
1, 77406, Note_on_c, 0, 41, 96
1, 77412, Note_on_c, 0, 65, 103
1, 77423, Note_on_c, 0, 53, 91
1, 77510, Note_on_c, 0, 53, 0
1, 77521, Note_on_c, 0, 41, 0
1, 77534, Note_on_c, 0, 36, 0
1, 77559, Note_on_c, 0, 65, 0
1, 77573, Note_on_c, 0, 32, 0
1, 77666, Control_c, 0, 64, 0
1, 78559, Note_on_c, 0, 35, 121
1, 78563, Note_on_c, 0, 47, 94
1, 78579, Note_on_c, 0, 36, 84
1, 78592, Note_on_c, 0, 48, 63
1, 78602, Control_c, 0, 64, 127
1, 78610, Note_on_c, 0, 38, 91
1, 78610, Note_on_c, 0, 35, 0
1, 78624, Note_on_c, 0, 50, 85
1, 78631, Note_on_c, 0, 36, 0
1, 78631, Note_on_c, 0, 38, 0
1, 78631, Note_on_c, 0, 40, 105
1, 78654, Note_on_c, 0, 52, 90
1, 78654, Note_on_c, 0, 41, 96
1, 78657, Note_on_c, 0, 47, 0
1, 78671, Note_on_c, 0, 48, 0
1, 78680, Note_on_c, 0, 53, 103
1, 78683, Note_on_c, 0, 50, 0
1, 78683, Note_on_c, 0, 43, 87
1, 78688, Note_on_c, 0, 40, 0
1, 78688, Note_on_c, 0, 52, 0
1, 78709, Note_on_c, 0, 55, 92
1, 78709, Note_on_c, 0, 53, 0
1, 78713, Note_on_c, 0, 41, 0
1, 78713, Note_on_c, 0, 45, 93
1, 78733, Note_on_c, 0, 57, 82
1, 78740, Note_on_c, 0, 55, 0
1, 78740, Note_on_c, 0, 47, 86
1, 78749, Note_on_c, 0, 45, 0
1, 78755, Note_on_c, 0, 43, 0
1, 78762, Note_on_c, 0, 59, 86
1, 78768, Note_on_c, 0, 47, 0
1, 78768, Note_on_c, 0, 48, 89
1, 78779, Note_on_c, 0, 57, 0
1, 78788, Note_on_c, 0, 60, 83
1, 78793, Note_on_c, 0, 50, 95
1, 78793, Note_on_c, 0, 48, 0
1, 78802, Note_on_c, 0, 59, 0
1, 78818, Note_on_c, 0, 62, 87
1, 78818, Note_on_c, 0, 52, 96
1, 78822, Note_on_c, 0, 50, 0
1, 78832, Note_on_c, 0, 60, 0
1, 78844, Note_on_c, 0, 62, 0
1, 78844, Note_on_c, 0, 53, 105
1, 78847, Note_on_c, 0, 52, 0
1, 78847, Note_on_c, 0, 64, 95
1, 78871, Note_on_c, 0, 65, 87
1, 78874, Note_on_c, 0, 55, 90
1, 78874, Note_on_c, 0, 53, 0
1, 78874, Note_on_c, 0, 64, 0
1, 78899, Note_on_c, 0, 67, 81
1, 78899, Note_on_c, 0, 57, 85
1, 78908, Note_on_c, 0, 65, 0
1, 78913, Note_on_c, 0, 55, 0
1, 78925, Note_on_c, 0, 69, 78
1, 78930, Note_on_c, 0, 67, 0
1, 78933, Note_on_c, 0, 59, 85
1, 78952, Note_on_c, 0, 57, 0
1, 78952, Note_on_c, 0, 71, 90
1, 78955, Note_on_c, 0, 69, 0
1, 78964, Note_on_c, 0, 60, 83
1, 78967, Note_on_c, 0, 59, 0
1, 78977, Note_on_c, 0, 71, 0
1, 78982, Note_on_c, 0, 72, 86
1, 78994, Note_on_c, 0, 62, 80
1, 79005, Note_on_c, 0, 72, 0
1, 79008, Note_on_c, 0, 74, 98
1, 79011, Note_on_c, 0, 60, 0
1, 79028, Note_on_c, 0, 64, 86
1, 79028, Note_on_c, 0, 74, 0
1, 79036, Note_on_c, 0, 76, 81
1, 79036, Note_on_c, 0, 62, 0
1, 79060, Note_on_c, 0, 76, 0
1, 79060, Note_on_c, 0, 65, 80
1, 79060, Note_on_c, 0, 77, 94
1, 79075, Note_on_c, 0, 64, 0
1, 79084, Note_on_c, 0, 77, 0
1, 79091, Note_on_c, 0, 79, 92
1, 79091, Note_on_c, 0, 67, 83
1, 79111, Note_on_c, 0, 65, 0
1, 79111, Note_on_c, 0, 79, 0
1, 79116, Note_on_c, 0, 81, 94
1, 79123, Note_on_c, 0, 69, 72
1, 79139, Note_on_c, 0, 67, 0
1, 79139, Note_on_c, 0, 81, 0
1, 79145, Note_on_c, 0, 83, 100
1, 79156, Note_on_c, 0, 71, 85
1, 79166, Note_on_c, 0, 69, 0
1, 79166, Note_on_c, 0, 83, 0
1, 79177, Note_on_c, 0, 84, 94
1, 79189, Note_on_c, 0, 72, 74
1, 79197, Note_on_c, 0, 84, 0
1, 79201, Note_on_c, 0, 86, 94
1, 79211, Note_on_c, 0, 71, 0
1, 79222, Note_on_c, 0, 74, 85
1, 79222, Note_on_c, 0, 86, 0
1, 79231, Note_on_c, 0, 88, 86
1, 79240, Note_on_c, 0, 72, 0
1, 79250, Note_on_c, 0, 74, 0
1, 79250, Note_on_c, 0, 76, 79
1, 79255, Note_on_c, 0, 88, 0
1, 79259, Note_on_c, 0, 89, 89
1, 79280, Note_on_c, 0, 76, 0
1, 79280, Note_on_c, 0, 77, 83
1, 79283, Note_on_c, 0, 89, 0
1, 79289, Note_on_c, 0, 91, 88
1, 79303, Note_on_c, 0, 77, 0
1, 79309, Note_on_c, 0, 79, 96
1, 79312, Note_on_c, 0, 91, 0
1, 79315, Note_on_c, 0, 93, 94
1, 79336, Note_on_c, 0, 79, 0
1, 79336, Note_on_c, 0, 81, 67
1, 79340, Note_on_c, 0, 93, 0
1, 79348, Note_on_c, 0, 95, 85
1, 79361, Note_on_c, 0, 83, 68
1, 79370, Note_on_c, 0, 81, 0
1, 79373, Note_on_c, 0, 95, 0
1, 79379, Note_on_c, 0, 96, 87
1, 79400, Note_on_c, 0, 83, 0
1, 79400, Note_on_c, 0, 96, 0
1, 79400, Note_on_c, 0, 84, 39
1, 79420, Note_on_c, 0, 98, 51
1, 79448, Note_on_c, 0, 84, 0
1, 79468, Note_on_c, 0, 100, 101
1, 79468, Note_on_c, 0, 98, 0
1, 79471, Note_on_c, 0, 88, 121
1, 79478, Control_c, 0, 64, 0
1, 79577, Note_on_c, 0, 100, 0
1, 79620, Note_on_c, 0, 88, 0
1, 79620, Control_c, 0, 64, 127
1, 79632, Note_on_c, 0, 100, 88
1, 79733, Note_on_c, 0, 100, 0
1, 79769, Note_on_c, 0, 88, 95
1, 79774, Note_on_c, 0, 100, 97
1, 79774, Note_on_c, 0, 64, 101
1, 79777, Note_on_c, 0, 76, 97
1, 79852, Note_on_c, 0, 88, 0
1, 79860, Note_on_c, 0, 64, 0
1, 79860, Note_on_c, 0, 100, 0
1, 79869, Note_on_c, 0, 76, 0
1, 79921, Note_on_c, 0, 76, 92
1, 79921, Note_on_c, 0, 100, 87
1, 79921, Note_on_c, 0, 88, 98
1, 79928, Note_on_c, 0, 64, 94
1, 79978, Note_on_c, 0, 76, 0
1, 79986, Note_on_c, 0, 64, 0
1, 79997, Note_on_c, 0, 88, 0
1, 80016, Note_on_c, 0, 100, 0
1, 80066, Note_on_c, 0, 100, 79
1, 80066, Note_on_c, 0, 88, 77
1, 80142, Note_on_c, 0, 100, 0
1, 80142, Note_on_c, 0, 88, 0
1, 80184, Note_on_c, 0, 64, 98
1, 80184, Note_on_c, 0, 52, 105
1, 80198, Note_on_c, 0, 100, 78
1, 80201, Note_on_c, 0, 88, 82
1, 80219, Note_on_c, 0, 52, 0
1, 80254, Note_on_c, 0, 64, 0
1, 80265, Note_on_c, 0, 100, 0
1, 80265, Note_on_c, 0, 88, 0
1, 80329, Note_on_c, 0, 64, 105
1, 80332, Note_on_c, 0, 52, 113
1, 80332, Note_on_c, 0, 88, 87
1, 80332, Note_on_c, 0, 100, 84
1, 80389, Note_on_c, 0, 64, 0
1, 80398, Note_on_c, 0, 88, 0
1, 80398, Note_on_c, 0, 100, 0
1, 80404, Note_on_c, 0, 52, 0
1, 80468, Note_on_c, 0, 100, 80
1, 80468, Note_on_c, 0, 88, 78
1, 80542, Note_on_c, 0, 100, 0
1, 80542, Note_on_c, 0, 88, 0
1, 80605, Note_on_c, 0, 100, 79
1, 80605, Note_on_c, 0, 52, 111
1, 80605, Note_on_c, 0, 88, 83
1, 80605, Note_on_c, 0, 40, 111
1, 80637, Note_on_c, 0, 40, 0
1, 80671, Note_on_c, 0, 100, 0
1, 80680, Note_on_c, 0, 88, 0
1, 80687, Note_on_c, 0, 52, 0
1, 80743, Note_on_c, 0, 88, 89
1, 80743, Note_on_c, 0, 100, 80
1, 80747, Note_on_c, 0, 52, 105
1, 80752, Note_on_c, 0, 40, 110
1, 80783, Note_on_c, 0, 40, 0
1, 80815, Note_on_c, 0, 52, 0
1, 80825, Note_on_c, 0, 88, 0
1, 80825, Note_on_c, 0, 100, 0
1, 80888, Note_on_c, 0, 88, 88
1, 80888, Note_on_c, 0, 100, 80
1, 80980, Note_on_c, 0, 100, 0
1, 80980, Note_on_c, 0, 88, 0
1, 81037, Note_on_c, 0, 45, 105
1, 81037, Note_on_c, 0, 88, 89
1, 81037, Note_on_c, 0, 100, 83
1, 81041, Note_on_c, 0, 40, 113
1, 81041, Note_on_c, 0, 33, 110
1, 81047, Note_on_c, 0, 97, 77
1, 81047, Note_on_c, 0, 93, 73
1, 81072, Note_on_c, 0, 40, 0
1, 81147, Note_on_c, 0, 45, 0
1, 81152, Note_on_c, 0, 33, 0
1, 81155, Note_on_c, 0, 100, 0
1, 81166, Note_on_c, 0, 88, 0
1, 81180, Note_on_c, 0, 93, 0
1, 81195, Note_on_c, 0, 97, 0
1, 81226, Control_c, 0, 64, 0
1, 81264, Note_on_c, 0, 100, 100
1, 81264, Note_on_c, 0, 45, 113
1, 81264, Note_on_c, 0, 33, 110
1, 81269, Note_on_c, 0, 93, 72
1, 81269, Note_on_c, 0, 97, 71
1, 81269, Note_on_c, 0, 88, 103
1, 81272, Note_on_c, 0, 40, 104
1, 81284, Note_on_c, 0, 100, 0
1, 81290, Note_on_c, 0, 33, 0
1, 81293, Note_on_c, 0, 40, 0
1, 81297, Note_on_c, 0, 97, 0
1, 81304, Note_on_c, 0, 93, 0
1, 81320, Note_on_c, 0, 45, 0
1, 81334, Control_c, 0, 64, 127
1, 81340, Note_on_c, 0, 88, 0
1, 81488, Note_on_c, 0, 52, 113
1, 81493, Note_on_c, 0, 40, 98
1, 81498, Note_on_c, 0, 88, 95
1, 81498, Note_on_c, 0, 76, 83
1, 81518, Note_on_c, 0, 40, 0
1, 81545, Note_on_c, 0, 52, 0
1, 81545, Note_on_c, 0, 76, 0
1, 81556, Note_on_c, 0, 88, 0
1, 81640, Note_on_c, 0, 57, 103
1, 81649, Note_on_c, 0, 76, 80
1, 81649, Note_on_c, 0, 45, 83
1, 81655, Note_on_c, 0, 88, 74
1, 81665, Note_on_c, 0, 81, 47
1, 81665, Note_on_c, 0, 85, 44
1, 81677, Note_on_c, 0, 57, 0
1, 81682, Note_on_c, 0, 45, 0
1, 81697, Note_on_c, 0, 88, 0
1, 81702, Note_on_c, 0, 76, 0
1, 81705, Note_on_c, 0, 85, 0
1, 81708, Note_on_c, 0, 81, 0
1, 81802, Note_on_c, 0, 76, 90
1, 81802, Note_on_c, 0, 88, 86
1, 81805, Note_on_c, 0, 64, 118
1, 81811, Note_on_c, 0, 81, 70
1, 81811, Note_on_c, 0, 52, 112
1, 81814, Note_on_c, 0, 85, 78
1, 81830, Note_on_c, 0, 52, 0
1, 81855, Note_on_c, 0, 64, 0
1, 81868, Note_on_c, 0, 81, 0
1, 81874, Note_on_c, 0, 88, 0
1, 81883, Note_on_c, 0, 85, 0
1, 81883, Note_on_c, 0, 76, 0
1, 81942, Note_on_c, 0, 85, 64
1, 81942, Note_on_c, 0, 76, 64
1, 81946, Note_on_c, 0, 81, 54
1, 81955, Note_on_c, 0, 88, 39
1, 82005, Note_on_c, 0, 88, 0
1, 82025, Note_on_c, 0, 76, 0
1, 82028, Note_on_c, 0, 85, 0
1, 82033, Note_on_c, 0, 81, 0
1, 82064, Note_on_c, 0, 61, 106
1, 82070, Note_on_c, 0, 49, 101
1, 82083, Note_on_c, 0, 76, 67
1, 82083, Note_on_c, 0, 81, 79
1, 82083, Note_on_c, 0, 85, 61
1, 82088, Note_on_c, 0, 88, 70
1, 82131, Note_on_c, 0, 61, 0
1, 82137, Note_on_c, 0, 49, 0
1, 82141, Note_on_c, 0, 88, 0
1, 82164, Note_on_c, 0, 76, 0
1, 82164, Note_on_c, 0, 85, 0
1, 82170, Note_on_c, 0, 81, 0
1, 82215, Note_on_c, 0, 47, 105
1, 82215, Note_on_c, 0, 59, 104
1, 82215, Note_on_c, 0, 76, 79
1, 82218, Note_on_c, 0, 81, 81
1, 82218, Note_on_c, 0, 85, 65
1, 82222, Note_on_c, 0, 88, 76
1, 82253, Note_on_c, 0, 47, 0
1, 82272, Note_on_c, 0, 88, 0
1, 82276, Note_on_c, 0, 59, 0
1, 82286, Note_on_c, 0, 76, 0
1, 82295, Note_on_c, 0, 85, 0
1, 82303, Note_on_c, 0, 81, 0
1, 82340, Note_on_c, 0, 61, 99
1, 82348, Note_on_c, 0, 49, 92
1, 82348, Note_on_c, 0, 76, 67
1, 82348, Note_on_c, 0, 81, 81
1, 82354, Note_on_c, 0, 85, 55
1, 82357, Note_on_c, 0, 88, 64
1, 82403, Note_on_c, 0, 88, 0
1, 82412, Note_on_c, 0, 61, 0
1, 82428, Note_on_c, 0, 49, 0
1, 82428, Note_on_c, 0, 85, 0
1, 82434, Note_on_c, 0, 76, 0
1, 82445, Note_on_c, 0, 81, 0
1, 82476, Note_on_c, 0, 57, 93
1, 82476, Note_on_c, 0, 45, 96
1, 82481, Note_on_c, 0, 88, 78
1, 82481, Note_on_c, 0, 76, 75
1, 82484, Note_on_c, 0, 85, 66
1, 82488, Note_on_c, 0, 81, 91
1, 82512, Note_on_c, 0, 45, 0
1, 82518, Note_on_c, 0, 57, 0
1, 82529, Note_on_c, 0, 88, 0
1, 82552, Note_on_c, 0, 85, 0
1, 82552, Note_on_c, 0, 81, 0
1, 82560, Note_on_c, 0, 76, 0
1, 82602, Note_on_c, 0, 56, 94
1, 82609, Note_on_c, 0, 76, 87
1, 82609, Note_on_c, 0, 44, 96
1, 82609, Note_on_c, 0, 85, 68
1, 82609, Note_on_c, 0, 81, 83
1, 82613, Note_on_c, 0, 88, 85
1, 82649, Note_on_c, 0, 44, 0
1, 82662, Note_on_c, 0, 88, 0
1, 82679, Note_on_c, 0, 76, 0
1, 82679, Note_on_c, 0, 85, 0
1, 82682, Note_on_c, 0, 56, 0
1, 82704, Note_on_c, 0, 81, 0
1, 82730, Note_on_c, 0, 57, 88
1, 82730, Note_on_c, 0, 88, 79
1, 82730, Note_on_c, 0, 76, 72
1, 82733, Note_on_c, 0, 45, 94
1, 82736, Note_on_c, 0, 85, 62
1, 82747, Note_on_c, 0, 81, 81
1, 82765, Note_on_c, 0, 45, 0
1, 82774, Note_on_c, 0, 57, 0
1, 82780, Note_on_c, 0, 81, 0
1, 82791, Note_on_c, 0, 88, 0
1, 82805, Note_on_c, 0, 85, 0
1, 82813, Note_on_c, 0, 76, 0
1, 82855, Note_on_c, 0, 85, 79
1, 82855, Note_on_c, 0, 76, 83
1, 82858, Note_on_c, 0, 88, 64
1, 82858, Note_on_c, 0, 54, 103
1, 82861, Note_on_c, 0, 42, 100
1, 82861, Note_on_c, 0, 81, 61
1, 82892, Note_on_c, 0, 88, 0
1, 82895, Note_on_c, 0, 85, 0
1, 82895, Note_on_c, 0, 81, 0
1, 82905, Note_on_c, 0, 54, 0
1, 82905, Note_on_c, 0, 42, 0
1, 82924, Note_on_c, 0, 76, 0
1, 82964, Control_c, 0, 64, 0
1, 82992, Note_on_c, 0, 41, 112
1, 82992, Note_on_c, 0, 53, 115
1, 83028, Note_on_c, 0, 41, 0
1, 83033, Note_on_c, 0, 53, 0
1, 83097, Control_c, 0, 64, 127
1, 83116, Note_on_c, 0, 56, 85
1, 83120, Note_on_c, 0, 61, 84
1, 83120, Note_on_c, 0, 73, 69
1, 83128, Note_on_c, 0, 44, 84
1, 83134, Note_on_c, 0, 69, 57
1, 83155, Note_on_c, 0, 44, 0
1, 83159, Note_on_c, 0, 73, 0
1, 83162, Note_on_c, 0, 61, 0
1, 83162, Note_on_c, 0, 56, 0
1, 83172, Note_on_c, 0, 69, 0
1, 83228, Note_on_c, 0, 69, 44
1, 83228, Note_on_c, 0, 61, 79
1, 83234, Note_on_c, 0, 54, 102
1, 83234, Note_on_c, 0, 73, 59
1, 83240, Note_on_c, 0, 42, 88
1, 83290, Note_on_c, 0, 73, 0
1, 83290, Note_on_c, 0, 42, 0
1, 83301, Note_on_c, 0, 61, 0
1, 83312, Note_on_c, 0, 54, 0
1, 83318, Note_on_c, 0, 69, 0
1, 83362, Note_on_c, 0, 51, 101
1, 83362, Note_on_c, 0, 69, 73
1, 83362, Note_on_c, 0, 61, 86
1, 83370, Note_on_c, 0, 39, 94
1, 83375, Note_on_c, 0, 73, 70
1, 83396, Note_on_c, 0, 39, 0
1, 83396, Control_c, 0, 64, 0
1, 83418, Note_on_c, 0, 73, 0
1, 83431, Note_on_c, 0, 51, 0
1, 83431, Note_on_c, 0, 61, 0
1, 83445, Note_on_c, 0, 69, 0
1, 83467, Control_c, 0, 64, 127
1, 83485, Note_on_c, 0, 54, 100
1, 83490, Note_on_c, 0, 69, 71
1, 83490, Note_on_c, 0, 61, 83
1, 83493, Note_on_c, 0, 42, 84
1, 83499, Note_on_c, 0, 73, 62
1, 83538, Note_on_c, 0, 73, 0
1, 83548, Note_on_c, 0, 42, 0
1, 83557, Note_on_c, 0, 61, 0
1, 83566, Note_on_c, 0, 54, 0
1, 83573, Note_on_c, 0, 69, 0
1, 83609, Note_on_c, 0, 52, 111
1, 83609, Note_on_c, 0, 40, 112
1, 83618, Note_on_c, 0, 69, 74
1, 83618, Note_on_c, 0, 61, 85
1, 83624, Note_on_c, 0, 73, 69
1, 83669, Note_on_c, 0, 73, 0
1, 83680, Note_on_c, 0, 61, 0
1, 83705, Note_on_c, 0, 69, 0
1, 83719, Control_c, 0, 64, 0
1, 83733, Note_on_c, 0, 40, 0
1, 83737, Note_on_c, 0, 52, 0
1, 83743, Note_on_c, 0, 61, 82
1, 83743, Note_on_c, 0, 69, 79
1, 83749, Note_on_c, 0, 73, 72
1, 83802, Note_on_c, 0, 73, 0
1, 83808, Note_on_c, 0, 61, 0
1, 83825, Note_on_c, 0, 69, 0
1, 83860, Note_on_c, 0, 49, 96
1, 83864, Note_on_c, 0, 37, 92
1, 83874, Note_on_c, 0, 61, 77
1, 83891, Note_on_c, 0, 37, 0
1, 83891, Note_on_c, 0, 49, 0
1, 83955, Note_on_c, 0, 61, 0
1, 83986, Note_on_c, 0, 50, 99
1, 83989, Note_on_c, 0, 62, 96
1, 83989, Note_on_c, 0, 38, 88
1, 84019, Note_on_c, 0, 38, 0
1, 84022, Note_on_c, 0, 50, 0
1, 84075, Note_on_c, 0, 62, 0
1, 84109, Note_on_c, 0, 51, 105
1, 84114, Note_on_c, 0, 63, 106
1, 84119, Note_on_c, 0, 39, 94
1, 84142, Note_on_c, 0, 39, 0
1, 84175, Note_on_c, 0, 51, 0
1, 84206, Note_on_c, 0, 63, 0
1, 84240, Note_on_c, 0, 54, 96
1, 84245, Note_on_c, 0, 42, 86
1, 84245, Note_on_c, 0, 66, 78
1, 84270, Note_on_c, 0, 54, 0
1, 84279, Note_on_c, 0, 42, 0
1, 84356, Note_on_c, 0, 52, 114
1, 84359, Note_on_c, 0, 40, 113
1, 84368, Note_on_c, 0, 64, 92
1, 84381, Note_on_c, 0, 66, 0
1, 84395, Note_on_c, 0, 64, 0
1, 84417, Note_on_c, 0, 40, 0
1, 84426, Control_c, 0, 64, 127
1, 84431, Note_on_c, 0, 52, 0
1, 84462, Control_c, 0, 64, 0
1, 84523, Note_on_c, 0, 45, 116
1, 84523, Note_on_c, 0, 33, 115
1, 84554, Note_on_c, 0, 33, 0
1, 84580, Note_on_c, 0, 45, 0
1, 84618, Control_c, 0, 64, 127
1, 84693, Note_on_c, 0, 52, 107
1, 84693, Note_on_c, 0, 85, 53
1, 84693, Note_on_c, 0, 88, 86
1, 84693, Note_on_c, 0, 76, 85
1, 84700, Note_on_c, 0, 81, 51
1, 84700, Note_on_c, 0, 40, 102
1, 84718, Note_on_c, 0, 52, 0
1, 84722, Note_on_c, 0, 40, 0
1, 84733, Note_on_c, 0, 76, 0
1, 84736, Note_on_c, 0, 88, 0
1, 84739, Note_on_c, 0, 81, 0
1, 84760, Note_on_c, 0, 85, 0
1, 84827, Note_on_c, 0, 85, 53
1, 84827, Note_on_c, 0, 76, 76
1, 84827, Note_on_c, 0, 88, 62
1, 84827, Note_on_c, 0, 45, 84
1, 84832, Note_on_c, 0, 57, 84
1, 84835, Note_on_c, 0, 81, 51
1, 84861, Note_on_c, 0, 45, 0
1, 84861, Note_on_c, 0, 57, 0
1, 84874, Note_on_c, 0, 76, 0
1, 84874, Note_on_c, 0, 81, 0
1, 84894, Note_on_c, 0, 85, 0
1, 84894, Note_on_c, 0, 88, 0
1, 84988, Note_on_c, 0, 76, 88
1, 84988, Note_on_c, 0, 88, 83
1, 84991, Note_on_c, 0, 81, 78
1, 84991, Note_on_c, 0, 85, 74
1, 84997, Note_on_c, 0, 64, 122
1, 85002, Note_on_c, 0, 52, 119
1, 85022, Note_on_c, 0, 52, 0
1, 85042, Note_on_c, 0, 81, 0
1, 85042, Note_on_c, 0, 64, 0
1, 85050, Note_on_c, 0, 76, 0
1, 85067, Note_on_c, 0, 88, 0
1, 85070, Note_on_c, 0, 85, 0
1, 85117, Note_on_c, 0, 88, 60
1, 85117, Note_on_c, 0, 76, 72
1, 85117, Note_on_c, 0, 85, 78
1, 85120, Note_on_c, 0, 81, 63
1, 85172, Note_on_c, 0, 88, 0
1, 85176, Note_on_c, 0, 76, 0
1, 85190, Note_on_c, 0, 81, 0
1, 85201, Note_on_c, 0, 85, 0
1, 85239, Note_on_c, 0, 61, 100
1, 85245, Note_on_c, 0, 49, 96
1, 85251, Note_on_c, 0, 76, 78
1, 85251, Note_on_c, 0, 85, 67
1, 85254, Note_on_c, 0, 81, 70
1, 85254, Note_on_c, 0, 88, 72
1, 85285, Note_on_c, 0, 49, 0
1, 85309, Note_on_c, 0, 61, 0
1, 85315, Note_on_c, 0, 88, 0
1, 85328, Note_on_c, 0, 76, 0
1, 85332, Note_on_c, 0, 85, 0
1, 85343, Note_on_c, 0, 81, 0
1, 85382, Note_on_c, 0, 59, 101
1, 85382, Note_on_c, 0, 76, 76
1, 85385, Note_on_c, 0, 47, 101
1, 85385, Note_on_c, 0, 85, 73
1, 85385, Note_on_c, 0, 88, 73
1, 85385, Note_on_c, 0, 81, 89
1, 85410, Note_on_c, 0, 47, 0
1, 85410, Note_on_c, 0, 59, 0
1, 85437, Note_on_c, 0, 88, 0
1, 85456, Note_on_c, 0, 81, 0
1, 85460, Note_on_c, 0, 85, 0
1, 85466, Note_on_c, 0, 76, 0
1, 85501, Note_on_c, 0, 61, 93
1, 85509, Note_on_c, 0, 49, 89
1, 85509, Note_on_c, 0, 76, 82
1, 85512, Note_on_c, 0, 85, 73
1, 85512, Note_on_c, 0, 81, 74
1, 85521, Note_on_c, 0, 88, 64
1, 85530, Note_on_c, 0, 61, 0
1, 85554, Note_on_c, 0, 49, 0
1, 85557, Note_on_c, 0, 88, 0
1, 85588, Note_on_c, 0, 85, 0
1, 85598, Note_on_c, 0, 76, 0
1, 85607, Note_on_c, 0, 81, 0
1, 85629, Note_on_c, 0, 57, 96
1, 85629, Note_on_c, 0, 45, 98
1, 85635, Note_on_c, 0, 76, 89
1, 85635, Note_on_c, 0, 85, 70
1, 85638, Note_on_c, 0, 88, 63
1, 85651, Note_on_c, 0, 81, 80
1, 85666, Note_on_c, 0, 45, 0
1, 85683, Note_on_c, 0, 57, 0
1, 85686, Note_on_c, 0, 88, 0
1, 85691, Note_on_c, 0, 81, 0
1, 85708, Note_on_c, 0, 85, 0
1, 85721, Note_on_c, 0, 76, 0
1, 85760, Note_on_c, 0, 56, 100
1, 85766, Note_on_c, 0, 76, 93
1, 85766, Note_on_c, 0, 44, 99
1, 85766, Note_on_c, 0, 85, 72
1, 85771, Note_on_c, 0, 81, 84
1, 85771, Note_on_c, 0, 88, 84
1, 85808, Note_on_c, 0, 44, 0
1, 85814, Note_on_c, 0, 88, 0
1, 85830, Note_on_c, 0, 56, 0
1, 85838, Note_on_c, 0, 76, 0
1, 85844, Note_on_c, 0, 85, 0
1, 85864, Note_on_c, 0, 81, 0
1, 85881, Note_on_c, 0, 45, 88
1, 85891, Note_on_c, 0, 76, 74
1, 85891, Note_on_c, 0, 57, 69
1, 85891, Note_on_c, 0, 88, 78
1, 85894, Note_on_c, 0, 85, 74
1, 85908, Note_on_c, 0, 81, 83
1, 85917, Note_on_c, 0, 45, 0
1, 85924, Note_on_c, 0, 57, 0
1, 85938, Note_on_c, 0, 88, 0
1, 85938, Note_on_c, 0, 81, 0
1, 85967, Note_on_c, 0, 76, 0
1, 85967, Note_on_c, 0, 85, 0
1, 86003, Note_on_c, 0, 54, 101
1, 86008, Note_on_c, 0, 42, 97
1, 86012, Note_on_c, 0, 85, 79
1, 86015, Note_on_c, 0, 76, 74
1, 86023, Note_on_c, 0, 88, 50
1, 86028, Note_on_c, 0, 81, 48
1, 86051, Note_on_c, 0, 85, 0
1, 86061, Note_on_c, 0, 54, 0
1, 86061, Note_on_c, 0, 81, 0
1, 86066, Note_on_c, 0, 42, 0
1, 86066, Note_on_c, 0, 88, 0
1, 86090, Note_on_c, 0, 76, 0
1, 86093, Control_c, 0, 64, 0
1, 86140, Note_on_c, 0, 53, 121
1, 86143, Note_on_c, 0, 41, 111
1, 86179, Note_on_c, 0, 41, 0
1, 86209, Note_on_c, 0, 53, 0
1, 86248, Control_c, 0, 64, 127
1, 86267, Note_on_c, 0, 61, 88
1, 86267, Note_on_c, 0, 73, 68
1, 86270, Note_on_c, 0, 56, 95
1, 86276, Note_on_c, 0, 69, 64
1, 86276, Note_on_c, 0, 44, 95
1, 86312, Note_on_c, 0, 73, 0
1, 86312, Note_on_c, 0, 44, 0
1, 86312, Note_on_c, 0, 61, 0
1, 86321, Note_on_c, 0, 69, 0
1, 86345, Note_on_c, 0, 56, 0
1, 86390, Note_on_c, 0, 54, 100
1, 86395, Note_on_c, 0, 69, 61
1, 86395, Note_on_c, 0, 61, 85
1, 86398, Note_on_c, 0, 73, 61
1, 86398, Note_on_c, 0, 42, 84
1, 86441, Note_on_c, 0, 42, 0
1, 86446, Note_on_c, 0, 73, 0
1, 86471, Note_on_c, 0, 61, 0
1, 86471, Note_on_c, 0, 54, 0
1, 86488, Note_on_c, 0, 69, 0
1, 86518, Note_on_c, 0, 51, 106
1, 86518, Note_on_c, 0, 61, 92
1, 86524, Note_on_c, 0, 69, 88
1, 86524, Note_on_c, 0, 39, 97
1, 86524, Note_on_c, 0, 73, 68
1, 86560, Note_on_c, 0, 39, 0
1, 86579, Note_on_c, 0, 73, 0
1, 86587, Note_on_c, 0, 51, 0
1, 86587, Note_on_c, 0, 61, 0
1, 86602, Note_on_c, 0, 69, 0
1, 86644, Note_on_c, 0, 69, 75
1, 86644, Note_on_c, 0, 61, 83
1, 86647, Note_on_c, 0, 54, 98
1, 86647, Note_on_c, 0, 73, 66
1, 86651, Note_on_c, 0, 42, 84
1, 86689, Note_on_c, 0, 54, 0
1, 86696, Note_on_c, 0, 42, 0
1, 86708, Note_on_c, 0, 61, 0
1, 86714, Note_on_c, 0, 73, 0
1, 86724, Note_on_c, 0, 69, 0
1, 86768, Note_on_c, 0, 52, 106
1, 86771, Note_on_c, 0, 69, 75
1, 86771, Note_on_c, 0, 61, 84
1, 86771, Note_on_c, 0, 40, 104
1, 86774, Note_on_c, 0, 73, 67
1, 86816, Note_on_c, 0, 73, 0
1, 86833, Note_on_c, 0, 61, 0
1, 86833, Control_c, 0, 64, 0
1, 86855, Note_on_c, 0, 69, 0
1, 86863, Note_on_c, 0, 40, 0
1, 86878, Note_on_c, 0, 52, 0
1, 86899, Note_on_c, 0, 61, 85
1, 86899, Note_on_c, 0, 69, 69
1, 86902, Note_on_c, 0, 73, 76
1, 86942, Note_on_c, 0, 73, 0
1, 86973, Note_on_c, 0, 61, 0
1, 86980, Note_on_c, 0, 69, 0
1, 87016, Control_c, 0, 64, 127
1, 87020, Note_on_c, 0, 49, 98
1, 87023, Note_on_c, 0, 37, 96
1, 87031, Note_on_c, 0, 61, 79
1, 87058, Note_on_c, 0, 37, 0
1, 87070, Note_on_c, 0, 49, 0
1, 87087, Control_c, 0, 64, 0
1, 87139, Note_on_c, 0, 61, 0
1, 87148, Note_on_c, 0, 50, 101
1, 87148, Note_on_c, 0, 62, 88
1, 87151, Note_on_c, 0, 38, 98
1, 87179, Note_on_c, 0, 38, 0
1, 87182, Note_on_c, 0, 50, 0
1, 87195, Control_c, 0, 64, 127
1, 87218, Note_on_c, 0, 62, 0
1, 87274, Note_on_c, 0, 51, 103
1, 87274, Note_on_c, 0, 63, 100
1, 87281, Note_on_c, 0, 39, 95
1, 87307, Note_on_c, 0, 39, 0
1, 87334, Note_on_c, 0, 51, 0
1, 87384, Note_on_c, 0, 63, 0
1, 87387, Control_c, 0, 64, 0
1, 87404, Note_on_c, 0, 54, 98
1, 87404, Note_on_c, 0, 66, 76
1, 87404, Note_on_c, 0, 42, 89
1, 87445, Note_on_c, 0, 54, 0
1, 87448, Note_on_c, 0, 42, 0
1, 87523, Note_on_c, 0, 52, 109
1, 87523, Note_on_c, 0, 40, 104
1, 87532, Note_on_c, 0, 64, 95
1, 87549, Note_on_c, 0, 41, 52
1, 87554, Control_c, 0, 64, 127
1, 87554, Note_on_c, 0, 64, 0
1, 87579, Note_on_c, 0, 66, 0
1, 87587, Note_on_c, 0, 40, 0
1, 87587, Note_on_c, 0, 52, 0
1, 87591, Note_on_c, 0, 41, 0
1, 87661, Control_c, 0, 64, 0
1, 87711, Note_on_c, 0, 45, 111
1, 87711, Note_on_c, 0, 33, 116
1, 87767, Note_on_c, 0, 45, 0
1, 87767, Note_on_c, 0, 33, 0
1, 87819, Control_c, 0, 64, 127
1, 87884, Note_on_c, 0, 52, 106
1, 87894, Note_on_c, 0, 88, 78
1, 87894, Note_on_c, 0, 40, 106
1, 87894, Note_on_c, 0, 76, 75
1, 87900, Note_on_c, 0, 85, 58
1, 87913, Note_on_c, 0, 52, 0
1, 87913, Note_on_c, 0, 81, 49
1, 87913, Note_on_c, 0, 40, 0
1, 87934, Note_on_c, 0, 88, 0
1, 87937, Note_on_c, 0, 76, 0
1, 87942, Note_on_c, 0, 85, 0
1, 87955, Note_on_c, 0, 81, 0
1, 88023, Note_on_c, 0, 57, 98
1, 88031, Note_on_c, 0, 76, 69
1, 88031, Note_on_c, 0, 81, 46
1, 88034, Note_on_c, 0, 85, 53
1, 88034, Note_on_c, 0, 45, 76
1, 88040, Note_on_c, 0, 88, 63
1, 88062, Note_on_c, 0, 57, 0
1, 88070, Note_on_c, 0, 45, 0
1, 88087, Note_on_c, 0, 76, 0
1, 88087, Note_on_c, 0, 88, 0
1, 88101, Note_on_c, 0, 81, 0
1, 88114, Note_on_c, 0, 85, 0
1, 88179, Note_on_c, 0, 76, 84
1, 88179, Note_on_c, 0, 85, 53
1, 88186, Note_on_c, 0, 81, 58
1, 88186, Note_on_c, 0, 88, 78
1, 88195, Note_on_c, 0, 64, 109
1, 88201, Note_on_c, 0, 52, 108
1, 88246, Note_on_c, 0, 88, 0
1, 88264, Note_on_c, 0, 85, 0
1, 88264, Note_on_c, 0, 76, 0
1, 88264, Note_on_c, 0, 81, 0
1, 88310, Note_on_c, 0, 76, 82
1, 88310, Note_on_c, 0, 88, 68
1, 88313, Note_on_c, 0, 85, 68
1, 88317, Note_on_c, 0, 81, 74
1, 88317, Note_on_c, 0, 64, 0
1, 88332, Note_on_c, 0, 52, 0
1, 88363, Note_on_c, 0, 81, 0
1, 88370, Note_on_c, 0, 88, 0
1, 88390, Note_on_c, 0, 76, 0
1, 88396, Note_on_c, 0, 85, 0
1, 88423, Note_on_c, 0, 61, 89
1, 88430, Note_on_c, 0, 49, 88
1, 88440, Note_on_c, 0, 76, 84
1, 88443, Note_on_c, 0, 88, 67
1, 88443, Note_on_c, 0, 85, 74
1, 88452, Note_on_c, 0, 81, 59
1, 88463, Note_on_c, 0, 49, 0
1, 88477, Note_on_c, 0, 61, 0
1, 88487, Note_on_c, 0, 88, 0
1, 88487, Note_on_c, 0, 76, 0
1, 88493, Note_on_c, 0, 81, 0
1, 88521, Note_on_c, 0, 85, 0
1, 88537, Control_c, 0, 64, 0
1, 88571, Note_on_c, 0, 85, 70
1, 88571, Note_on_c, 0, 78, 92
1, 88571, Note_on_c, 0, 64, 108
1, 88571, Note_on_c, 0, 90, 92
1, 88571, Note_on_c, 0, 81, 71
1, 88576, Note_on_c, 0, 52, 110
1, 88643, Note_on_c, 0, 78, 0
1, 88646, Note_on_c, 0, 90, 0
1, 88663, Note_on_c, 0, 85, 0
1, 88669, Control_c, 0, 64, 127
1, 88675, Note_on_c, 0, 81, 0
1, 88689, Note_on_c, 0, 90, 69
1, 88692, Note_on_c, 0, 78, 67
1, 88702, Note_on_c, 0, 64, 0
1, 88710, Note_on_c, 0, 52, 0
1, 88714, Note_on_c, 0, 85, 66
1, 88721, Note_on_c, 0, 81, 53
1, 88738, Note_on_c, 0, 90, 0
1, 88747, Note_on_c, 0, 85, 0
1, 88758, Note_on_c, 0, 81, 0
1, 88763, Note_on_c, 0, 78, 0
1, 88811, Note_on_c, 0, 63, 88
1, 88820, Note_on_c, 0, 51, 81
1, 88820, Note_on_c, 0, 78, 71
1, 88831, Note_on_c, 0, 81, 45
1, 88831, Note_on_c, 0, 90, 66
1, 88850, Note_on_c, 0, 85, 68
1, 88863, Note_on_c, 0, 51, 0
1, 88863, Note_on_c, 0, 90, 0
1, 88883, Note_on_c, 0, 85, 0
1, 88891, Note_on_c, 0, 63, 0
1, 88891, Note_on_c, 0, 81, 0
1, 88897, Note_on_c, 0, 78, 0
1, 88908, Control_c, 0, 64, 0
1, 88948, Note_on_c, 0, 85, 62
1, 88951, Note_on_c, 0, 64, 101
1, 88951, Note_on_c, 0, 52, 110
1, 88956, Note_on_c, 0, 76, 88
1, 88956, Note_on_c, 0, 88, 82
1, 88956, Note_on_c, 0, 81, 67
1, 88986, Note_on_c, 0, 62, 29
1, 88994, Note_on_c, 0, 88, 0
1, 88994, Note_on_c, 0, 76, 0
1, 89019, Note_on_c, 0, 85, 0
1, 89019, Note_on_c, 0, 81, 0
1, 89040, Note_on_c, 0, 62, 0
1, 89040, Control_c, 0, 64, 127
1, 89072, Note_on_c, 0, 85, 65
1, 89078, Note_on_c, 0, 81, 63
1, 89078, Note_on_c, 0, 76, 72
1, 89078, Note_on_c, 0, 88, 69
1, 89087, Note_on_c, 0, 64, 0
1, 89100, Note_on_c, 0, 52, 0
1, 89117, Note_on_c, 0, 88, 0
1, 89122, Note_on_c, 0, 76, 0
1, 89142, Note_on_c, 0, 85, 0
1, 89153, Note_on_c, 0, 81, 0
1, 89195, Note_on_c, 0, 61, 86
1, 89198, Note_on_c, 0, 76, 80
1, 89198, Note_on_c, 0, 85, 59
1, 89201, Note_on_c, 0, 49, 85
1, 89201, Note_on_c, 0, 88, 75
1, 89204, Note_on_c, 0, 81, 63
1, 89232, Note_on_c, 0, 49, 0
1, 89239, Note_on_c, 0, 61, 0
1, 89254, Note_on_c, 0, 88, 0
1, 89268, Control_c, 0, 64, 0
1, 89271, Note_on_c, 0, 76, 0
1, 89293, Note_on_c, 0, 81, 0
1, 89293, Note_on_c, 0, 85, 0
1, 89326, Note_on_c, 0, 78, 100
1, 89326, Note_on_c, 0, 90, 96
1, 89332, Note_on_c, 0, 64, 106
1, 89332, Note_on_c, 0, 52, 108
1, 89332, Note_on_c, 0, 81, 97
1, 89337, Note_on_c, 0, 85, 83
1, 89390, Note_on_c, 0, 78, 0
1, 89404, Note_on_c, 0, 90, 0
1, 89419, Note_on_c, 0, 85, 0
1, 89435, Note_on_c, 0, 81, 0
1, 89435, Control_c, 0, 64, 127
1, 89444, Note_on_c, 0, 90, 80
1, 89449, Note_on_c, 0, 78, 74
1, 89468, Note_on_c, 0, 85, 75
1, 89468, Note_on_c, 0, 64, 0
1, 89471, Note_on_c, 0, 81, 50
1, 89482, Note_on_c, 0, 52, 0
1, 89502, Note_on_c, 0, 85, 0
1, 89516, Note_on_c, 0, 81, 0
1, 89526, Note_on_c, 0, 90, 0
1, 89526, Note_on_c, 0, 78, 0
1, 89577, Note_on_c, 0, 78, 69
1, 89577, Note_on_c, 0, 63, 80
1, 89577, Note_on_c, 0, 90, 58
1, 89585, Note_on_c, 0, 85, 59
1, 89585, Note_on_c, 0, 81, 54
1, 89588, Note_on_c, 0, 51, 74
1, 89616, Note_on_c, 0, 90, 0
1, 89616, Note_on_c, 0, 63, 0
1, 89622, Note_on_c, 0, 78, 0
1, 89627, Note_on_c, 0, 51, 0
1, 89646, Control_c, 0, 64, 0
1, 89650, Note_on_c, 0, 81, 0
1, 89664, Note_on_c, 0, 85, 0
1, 89705, Note_on_c, 0, 64, 94
1, 89705, Note_on_c, 0, 52, 102
1, 89705, Note_on_c, 0, 76, 94
1, 89705, Note_on_c, 0, 85, 84
1, 89710, Note_on_c, 0, 88, 74
1, 89710, Note_on_c, 0, 81, 68
1, 89736, Note_on_c, 0, 86, 41
1, 89739, Note_on_c, 0, 76, 0
1, 89750, Note_on_c, 0, 88, 0
1, 89766, Note_on_c, 0, 81, 0
1, 89785, Note_on_c, 0, 85, 0
1, 89792, Note_on_c, 0, 86, 0
1, 89795, Control_c, 0, 64, 127
1, 89820, Note_on_c, 0, 64, 0
1, 89827, Note_on_c, 0, 76, 75
1, 89827, Note_on_c, 0, 88, 61
1, 89830, Note_on_c, 0, 85, 83
1, 89830, Note_on_c, 0, 81, 51
1, 89834, Note_on_c, 0, 52, 0
1, 89861, Note_on_c, 0, 76, 0
1, 89864, Note_on_c, 0, 88, 0
1, 89889, Note_on_c, 0, 81, 0
1, 89906, Note_on_c, 0, 85, 0
1, 89948, Note_on_c, 0, 61, 66
1, 89956, Note_on_c, 0, 81, 62
1, 89956, Note_on_c, 0, 49, 65
1, 89956, Note_on_c, 0, 78, 79
1, 89959, Note_on_c, 0, 90, 76
1, 89959, Note_on_c, 0, 85, 50
1, 89964, Control_c, 0, 64, 0
1, 89984, Note_on_c, 0, 61, 0
1, 89988, Note_on_c, 0, 49, 0
1, 89988, Note_on_c, 0, 90, 0
1, 90009, Note_on_c, 0, 81, 0
1, 90014, Note_on_c, 0, 85, 0
1, 90019, Note_on_c, 0, 78, 0
1, 90086, Note_on_c, 0, 64, 89
1, 90089, Note_on_c, 0, 52, 94
1, 90092, Note_on_c, 0, 88, 80
1, 90092, Note_on_c, 0, 76, 87
1, 90092, Note_on_c, 0, 85, 71
1, 90103, Note_on_c, 0, 81, 55
1, 90126, Note_on_c, 0, 88, 0
1, 90126, Note_on_c, 0, 76, 0
1, 90131, Control_c, 0, 64, 127
1, 90143, Note_on_c, 0, 81, 0
1, 90151, Note_on_c, 0, 85, 0
1, 90175, Note_on_c, 0, 64, 0
1, 90195, Note_on_c, 0, 52, 0
1, 90210, Note_on_c, 0, 85, 66
1, 90210, Note_on_c, 0, 76, 67
1, 90221, Note_on_c, 0, 88, 51
1, 90221, Note_on_c, 0, 81, 35
1, 90245, Note_on_c, 0, 76, 0
1, 90260, Note_on_c, 0, 88, 0
1, 90271, Note_on_c, 0, 81, 0
1, 90296, Note_on_c, 0, 85, 0
1, 90335, Note_on_c, 0, 61, 66
1, 90335, Note_on_c, 0, 49, 71
1, 90335, Note_on_c, 0, 78, 82
1, 90335, Note_on_c, 0, 90, 78
1, 90338, Note_on_c, 0, 81, 57
1, 90345, Note_on_c, 0, 85, 62
1, 90366, Note_on_c, 0, 49, 0
1, 90371, Note_on_c, 0, 61, 0
1, 90371, Note_on_c, 0, 90, 0
1, 90390, Note_on_c, 0, 85, 0
1, 90393, Note_on_c, 0, 78, 0
1, 90393, Note_on_c, 0, 81, 0
1, 90455, Control_c, 0, 64, 0
1, 90466, Note_on_c, 0, 88, 89
1, 90466, Note_on_c, 0, 76, 97
1, 90471, Note_on_c, 0, 85, 79
1, 90471, Note_on_c, 0, 81, 69
1, 90471, Note_on_c, 0, 64, 101
1, 90471, Note_on_c, 0, 52, 105
1, 90505, Note_on_c, 0, 76, 0
1, 90508, Note_on_c, 0, 88, 0
1, 90529, Note_on_c, 0, 85, 0
1, 90533, Note_on_c, 0, 81, 0
1, 90563, Note_on_c, 0, 64, 0
1, 90586, Control_c, 0, 64, 127
1, 90586, Note_on_c, 0, 76, 81
1, 90586, Note_on_c, 0, 85, 73
1, 90591, Note_on_c, 0, 88, 74
1, 90591, Note_on_c, 0, 81, 64
1, 90604, Note_on_c, 0, 52, 0
1, 90619, Note_on_c, 0, 76, 0
1, 90619, Note_on_c, 0, 88, 0
1, 90652, Note_on_c, 0, 81, 0
1, 90658, Note_on_c, 0, 85, 0
1, 90714, Note_on_c, 0, 78, 92
1, 90714, Note_on_c, 0, 90, 92
1, 90714, Note_on_c, 0, 61, 79
1, 90717, Note_on_c, 0, 85, 57
1, 90717, Note_on_c, 0, 81, 66
1, 90722, Note_on_c, 0, 49, 76
1, 90755, Note_on_c, 0, 61, 0
1, 90755, Note_on_c, 0, 49, 0
1, 90786, Note_on_c, 0, 90, 0
1, 90805, Note_on_c, 0, 78, 0
1, 90814, Control_c, 0, 64, 0
1, 90834, Note_on_c, 0, 85, 0
1, 90839, Note_on_c, 0, 81, 0
1, 90881, Note_on_c, 0, 88, 106
1, 90881, Note_on_c, 0, 85, 84
1, 90884, Note_on_c, 0, 64, 106
1, 90884, Note_on_c, 0, 81, 84
1, 90887, Note_on_c, 0, 52, 107
1, 90887, Note_on_c, 0, 76, 103
1, 90916, Note_on_c, 0, 52, 0
1, 90930, Note_on_c, 0, 64, 0
1, 90947, Control_c, 0, 64, 127
1, 90970, Note_on_c, 0, 76, 0
1, 90994, Note_on_c, 0, 81, 0
1, 91004, Note_on_c, 0, 88, 0
1, 91042, Note_on_c, 0, 85, 0
1, 91126, Control_c, 0, 64, 0
1, 91366, Note_on_c, 0, 90, 101
1, 91369, Note_on_c, 0, 57, 98
1, 91369, Note_on_c, 0, 78, 97
1, 91369, Note_on_c, 0, 45, 96
1, 91373, Note_on_c, 0, 54, 97
1, 91373, Note_on_c, 0, 85, 88
1, 91377, Note_on_c, 0, 81, 86
1, 91387, Note_on_c, 0, 49, 71
1, 91415, Note_on_c, 0, 45, 0
1, 91424, Note_on_c, 0, 49, 0
1, 91438, Control_c, 0, 64, 127
1, 91455, Note_on_c, 0, 57, 0
1, 91468, Note_on_c, 0, 90, 0
1, 91472, Note_on_c, 0, 78, 0
1, 91472, Note_on_c, 0, 54, 0
1, 91480, Note_on_c, 0, 81, 0
1, 91533, Note_on_c, 0, 85, 0
1, 91641, Control_c, 0, 64, 0
1, 91867, Note_on_c, 0, 92, 98
1, 91867, Note_on_c, 0, 80, 103
1, 91872, Note_on_c, 0, 85, 97
1, 91872, Note_on_c, 0, 41, 103
1, 91872, Note_on_c, 0, 53, 118
1, 91878, Note_on_c, 0, 49, 93
1, 91889, Note_on_c, 0, 92, 0
1, 91897, Note_on_c, 0, 41, 0
1, 91900, Note_on_c, 0, 85, 0
1, 91916, Note_on_c, 0, 49, 0
1, 91916, Note_on_c, 0, 53, 0
1, 91916, Control_c, 0, 64, 127
1, 91925, Note_on_c, 0, 80, 0
1, 92120, Control_c, 0, 64, 0
1, 92159, Note_on_c, 0, 61, 73
1, 92159, Note_on_c, 0, 60, 72
1, 92195, Note_on_c, 0, 60, 0
1, 92212, Note_on_c, 0, 61, 0
1, 92287, Note_on_c, 0, 65, 62
1, 92290, Note_on_c, 0, 64, 66
1, 92318, Note_on_c, 0, 65, 0
1, 92318, Note_on_c, 0, 64, 0
1, 92404, Note_on_c, 0, 67, 79
1, 92412, Note_on_c, 0, 68, 68
1, 92433, Note_on_c, 0, 67, 0
1, 92444, Note_on_c, 0, 68, 0
1, 92521, Note_on_c, 0, 73, 68
1, 92521, Note_on_c, 0, 77, 69
1, 92552, Note_on_c, 0, 73, 0
1, 92552, Note_on_c, 0, 77, 0
1, 92649, Note_on_c, 0, 56, 75
1, 92677, Note_on_c, 0, 56, 0
1, 92700, Note_on_c, 0, 94, 95
1, 92700, Note_on_c, 0, 82, 99
1, 92706, Note_on_c, 0, 87, 86
1, 92728, Note_on_c, 0, 82, 0
1, 92731, Note_on_c, 0, 87, 0
1, 92731, Control_c, 0, 64, 127
1, 92731, Note_on_c, 0, 72, 87
1, 92741, Note_on_c, 0, 63, 49
1, 92741, Note_on_c, 0, 66, 62
1, 92763, Note_on_c, 0, 72, 0
1, 92777, Note_on_c, 0, 94, 0
1, 92777, Note_on_c, 0, 66, 0
1, 92777, Note_on_c, 0, 63, 0
1, 92852, Note_on_c, 0, 92, 77
1, 92858, Note_on_c, 0, 63, 62
1, 92864, Note_on_c, 0, 66, 49
1, 92864, Note_on_c, 0, 72, 69
1, 92901, Note_on_c, 0, 63, 0
1, 92901, Note_on_c, 0, 72, 0
1, 92906, Note_on_c, 0, 66, 0
1, 92906, Note_on_c, 0, 90, 71
1, 92965, Note_on_c, 0, 92, 0
1, 92968, Note_on_c, 0, 87, 71
1, 92979, Note_on_c, 0, 72, 56
1, 92986, Note_on_c, 0, 63, 60
1, 92986, Note_on_c, 0, 66, 47
1, 93017, Note_on_c, 0, 90, 0
1, 93029, Note_on_c, 0, 87, 0
1, 93029, Note_on_c, 0, 63, 0
1, 93034, Note_on_c, 0, 84, 65
1, 93034, Note_on_c, 0, 66, 0
1, 93046, Note_on_c, 0, 72, 0
1, 93068, Note_on_c, 0, 84, 0
1, 93095, Note_on_c, 0, 72, 80
1, 93101, Note_on_c, 0, 80, 84
1, 93107, Note_on_c, 0, 66, 54
1, 93134, Note_on_c, 0, 72, 0
1, 93142, Note_on_c, 0, 63, 26
1, 93159, Note_on_c, 0, 66, 0
1, 93163, Note_on_c, 0, 78, 62
1, 93192, Note_on_c, 0, 63, 0
1, 93210, Note_on_c, 0, 75, 78
1, 93217, Note_on_c, 0, 80, 0
1, 93248, Control_c, 0, 64, 0
1, 93257, Note_on_c, 0, 78, 0
1, 93271, Note_on_c, 0, 75, 0
1, 93279, Note_on_c, 0, 72, 36
1, 93334, Note_on_c, 0, 68, 95
1, 93337, Note_on_c, 0, 72, 0
1, 93408, Note_on_c, 0, 68, 0
1, 93514, Note_on_c, 0, 73, 90
1, 93514, Note_on_c, 0, 61, 102
1, 93521, Note_on_c, 0, 68, 71
1, 93521, Note_on_c, 0, 53, 103
1, 93525, Note_on_c, 0, 41, 81
1, 93529, Note_on_c, 0, 49, 75
1, 93547, Note_on_c, 0, 53, 0
1, 93552, Note_on_c, 0, 68, 0
1, 93557, Note_on_c, 0, 41, 0
1, 93557, Note_on_c, 0, 49, 0
1, 93557, Control_c, 0, 64, 127
1, 93583, Note_on_c, 0, 61, 0
1, 93591, Note_on_c, 0, 73, 0
1, 93758, Note_on_c, 0, 60, 83
1, 93763, Note_on_c, 0, 61, 86
1, 93789, Note_on_c, 0, 61, 0
1, 93789, Note_on_c, 0, 60, 0
1, 93834, Control_c, 0, 64, 0
1, 93908, Note_on_c, 0, 65, 84
1, 93908, Note_on_c, 0, 64, 82
1, 93942, Note_on_c, 0, 65, 0
1, 93942, Note_on_c, 0, 64, 0
1, 94034, Note_on_c, 0, 68, 81
1, 94034, Note_on_c, 0, 67, 72
1, 94056, Note_on_c, 0, 68, 0
1, 94068, Note_on_c, 0, 67, 0
1, 94160, Note_on_c, 0, 73, 82
1, 94163, Note_on_c, 0, 77, 82
1, 94187, Note_on_c, 0, 73, 0
1, 94190, Note_on_c, 0, 77, 0
1, 94294, Note_on_c, 0, 56, 76
1, 94323, Note_on_c, 0, 56, 0
1, 94346, Note_on_c, 0, 94, 99
1, 94352, Note_on_c, 0, 82, 81
1, 94357, Note_on_c, 0, 87, 49
1, 94376, Note_on_c, 0, 72, 95
1, 94385, Control_c, 0, 64, 127
1, 94385, Note_on_c, 0, 82, 0
1, 94388, Note_on_c, 0, 66, 62
1, 94393, Note_on_c, 0, 63, 65
1, 94399, Note_on_c, 0, 87, 0
1, 94405, Note_on_c, 0, 72, 0
1, 94422, Note_on_c, 0, 66, 0
1, 94426, Note_on_c, 0, 63, 0
1, 94461, Note_on_c, 0, 94, 0
1, 94507, Note_on_c, 0, 72, 85
1, 94507, Note_on_c, 0, 63, 60
1, 94507, Note_on_c, 0, 66, 55
1, 94507, Note_on_c, 0, 92, 83
1, 94541, Note_on_c, 0, 72, 0
1, 94557, Note_on_c, 0, 63, 0
1, 94557, Note_on_c, 0, 66, 0
1, 94564, Note_on_c, 0, 90, 73
1, 94613, Note_on_c, 0, 63, 80
1, 94613, Note_on_c, 0, 66, 62
1, 94613, Note_on_c, 0, 72, 63
1, 94613, Note_on_c, 0, 87, 72
1, 94621, Note_on_c, 0, 92, 0
1, 94669, Note_on_c, 0, 90, 0
1, 94677, Note_on_c, 0, 84, 84
1, 94689, Note_on_c, 0, 63, 0
1, 94689, Note_on_c, 0, 72, 0
1, 94694, Note_on_c, 0, 87, 0
1, 94703, Note_on_c, 0, 66, 0
1, 94703, Note_on_c, 0, 84, 0
1, 94748, Note_on_c, 0, 72, 78
1, 94748, Note_on_c, 0, 80, 90
1, 94753, Note_on_c, 0, 66, 68
1, 94753, Note_on_c, 0, 63, 68
1, 94812, Note_on_c, 0, 78, 70
1, 94825, Note_on_c, 0, 72, 0
1, 94872, Note_on_c, 0, 75, 78
1, 94878, Note_on_c, 0, 80, 0
1, 94878, Note_on_c, 0, 66, 0
1, 94889, Note_on_c, 0, 63, 0
1, 94925, Note_on_c, 0, 78, 0
1, 94934, Note_on_c, 0, 72, 76
1, 94948, Note_on_c, 0, 75, 0
1, 94965, Note_on_c, 0, 72, 0
1, 94998, Note_on_c, 0, 68, 93
1, 95057, Control_c, 0, 64, 0
1, 95075, Note_on_c, 0, 68, 0
1, 95154, Note_on_c, 0, 61, 104
1, 95159, Note_on_c, 0, 73, 86
1, 95162, Note_on_c, 0, 68, 70
1, 95167, Note_on_c, 0, 53, 107
1, 95171, Note_on_c, 0, 41, 89
1, 95181, Note_on_c, 0, 61, 0
1, 95190, Note_on_c, 0, 53, 0
1, 95190, Note_on_c, 0, 68, 0
1, 95198, Note_on_c, 0, 41, 0
1, 95229, Note_on_c, 0, 73, 0
1, 95237, Control_c, 0, 64, 127
1, 95299, Note_on_c, 0, 73, 70
1, 95299, Note_on_c, 0, 56, 81
1, 95307, Note_on_c, 0, 44, 83
1, 95330, Note_on_c, 0, 56, 0
1, 95337, Note_on_c, 0, 44, 0
1, 95369, Note_on_c, 0, 73, 0
1, 95369, Control_c, 0, 64, 0
1, 95383, Note_on_c, 0, 85, 72
1, 95416, Note_on_c, 0, 73, 78
1, 95424, Note_on_c, 0, 61, 92
1, 95430, Note_on_c, 0, 49, 77
1, 95450, Note_on_c, 0, 61, 0
1, 95463, Note_on_c, 0, 49, 0
1, 95488, Note_on_c, 0, 85, 0
1, 95496, Note_on_c, 0, 73, 0
1, 95578, Note_on_c, 0, 86, 106
1, 95583, Note_on_c, 0, 74, 104
1, 95583, Note_on_c, 0, 80, 87
1, 95588, Note_on_c, 0, 65, 91
1, 95591, Note_on_c, 0, 53, 101
1, 95606, Note_on_c, 0, 74, 0
1, 95611, Note_on_c, 0, 65, 0
1, 95617, Note_on_c, 0, 53, 0
1, 95622, Note_on_c, 0, 80, 0
1, 95631, Control_c, 0, 64, 127
1, 95677, Note_on_c, 0, 86, 0
1, 95708, Note_on_c, 0, 85, 72
1, 95714, Note_on_c, 0, 68, 76
1, 95720, Note_on_c, 0, 56, 76
1, 95744, Note_on_c, 0, 68, 0
1, 95753, Note_on_c, 0, 56, 0
1, 95764, Control_c, 0, 64, 0
1, 95778, Note_on_c, 0, 80, 75
1, 95803, Note_on_c, 0, 85, 0
1, 95823, Note_on_c, 0, 73, 79
1, 95847, Note_on_c, 0, 65, 79
1, 95851, Note_on_c, 0, 53, 100
1, 95861, Note_on_c, 0, 80, 0
1, 95876, Note_on_c, 0, 65, 0
1, 95876, Note_on_c, 0, 53, 0
1, 95900, Note_on_c, 0, 73, 0
1, 95975, Note_on_c, 0, 66, 95
1, 95975, Note_on_c, 0, 83, 111
1, 95975, Note_on_c, 0, 54, 101
1, 95975, Note_on_c, 0, 73, 75
1, 95981, Note_on_c, 0, 78, 75
1, 96006, Note_on_c, 0, 54, 0
1, 96021, Note_on_c, 0, 66, 0
1, 96040, Control_c, 0, 64, 127
1, 96060, Note_on_c, 0, 73, 0
1, 96060, Note_on_c, 0, 78, 0
1, 96090, Note_on_c, 0, 83, 0
1, 96124, Note_on_c, 0, 69, 71
1, 96128, Note_on_c, 0, 81, 72
1, 96156, Note_on_c, 0, 57, 16
1, 96159, Note_on_c, 0, 69, 0
1, 96159, Control_c, 0, 64, 0
1, 96190, Note_on_c, 0, 78, 60
1, 96199, Note_on_c, 0, 57, 0
1, 96220, Note_on_c, 0, 81, 0
1, 96230, Note_on_c, 0, 66, 76
1, 96233, Note_on_c, 0, 73, 80
1, 96245, Note_on_c, 0, 54, 78
1, 96262, Note_on_c, 0, 66, 0
1, 96276, Note_on_c, 0, 54, 0
1, 96288, Note_on_c, 0, 78, 0
1, 96315, Note_on_c, 0, 73, 0
1, 96365, Note_on_c, 0, 80, 88
1, 96372, Note_on_c, 0, 69, 85
1, 96377, Note_on_c, 0, 59, 83
1, 96377, Note_on_c, 0, 75, 73
1, 96382, Note_on_c, 0, 47, 78
1, 96404, Note_on_c, 0, 59, 0
1, 96407, Note_on_c, 0, 69, 0
1, 96411, Note_on_c, 0, 47, 0
1, 96415, Note_on_c, 0, 75, 0
1, 96424, Control_c, 0, 64, 127
1, 96460, Note_on_c, 0, 80, 0
1, 96507, Note_on_c, 0, 63, 79
1, 96517, Note_on_c, 0, 78, 67
1, 96520, Note_on_c, 0, 51, 62
1, 96535, Note_on_c, 0, 63, 0
1, 96555, Note_on_c, 0, 51, 0
1, 96567, Control_c, 0, 64, 0
1, 96578, Note_on_c, 0, 75, 54
1, 96606, Note_on_c, 0, 78, 0
1, 96617, Note_on_c, 0, 75, 0
1, 96620, Note_on_c, 0, 69, 55
1, 96642, Note_on_c, 0, 47, 68
1, 96642, Note_on_c, 0, 59, 55
1, 96675, Note_on_c, 0, 47, 0
1, 96675, Note_on_c, 0, 59, 0
1, 96683, Note_on_c, 0, 69, 0
1, 96776, Note_on_c, 0, 73, 53
1, 96798, Note_on_c, 0, 71, 59
1, 96826, Note_on_c, 0, 73, 0
1, 96839, Note_on_c, 0, 71, 0
1, 96901, Note_on_c, 0, 71, 50
1, 96914, Note_on_c, 0, 52, 41
1, 96925, Note_on_c, 0, 68, 58
1, 96959, Note_on_c, 0, 71, 0
1, 96959, Note_on_c, 0, 52, 0
1, 96967, Note_on_c, 0, 68, 0
1, 97034, Note_on_c, 0, 71, 64
1, 97043, Note_on_c, 0, 73, 43
1, 97053, Note_on_c, 0, 59, 19
1, 97073, Note_on_c, 0, 71, 0
1, 97085, Note_on_c, 0, 73, 0
1, 97099, Note_on_c, 0, 59, 0
1, 97166, Control_c, 0, 64, 127
1, 97185, Note_on_c, 0, 76, 55
1, 97198, Note_on_c, 0, 74, 63
1, 97219, Note_on_c, 0, 68, 42
1, 97230, Note_on_c, 0, 76, 0
1, 97237, Note_on_c, 0, 74, 0
1, 97248, Note_on_c, 0, 64, 37
1, 97266, Note_on_c, 0, 62, 11
1, 97326, Note_on_c, 0, 74, 52
1, 97335, Note_on_c, 0, 71, 56
1, 97340, Note_on_c, 0, 64, 0
1, 97346, Note_on_c, 0, 62, 0
1, 97361, Note_on_c, 0, 74, 0
1, 97375, Note_on_c, 0, 71, 0
1, 97422, Note_on_c, 0, 68, 0
1, 97443, Control_c, 0, 64, 0
1, 97460, Note_on_c, 0, 76, 59
1, 97469, Note_on_c, 0, 74, 53
1, 97480, Note_on_c, 0, 59, 47
1, 97500, Note_on_c, 0, 76, 0
1, 97503, Note_on_c, 0, 74, 0
1, 97517, Note_on_c, 0, 59, 0
1, 97586, Note_on_c, 0, 78, 83
1, 97602, Note_on_c, 0, 76, 57
1, 97634, Note_on_c, 0, 76, 0
1, 97661, Note_on_c, 0, 78, 0
1, 97706, Note_on_c, 0, 76, 30
1, 97745, Note_on_c, 0, 73, 50
1, 97759, Note_on_c, 0, 52, 23
1, 97786, Note_on_c, 0, 73, 0
1, 97790, Note_on_c, 0, 76, 0
1, 97804, Note_on_c, 0, 52, 0
1, 97839, Note_on_c, 0, 78, 73
1, 97843, Note_on_c, 0, 76, 63
1, 97847, Note_on_c, 0, 61, 61
1, 97883, Note_on_c, 0, 76, 0
1, 97886, Note_on_c, 0, 61, 0
1, 97886, Note_on_c, 0, 78, 0
1, 97989, Note_on_c, 0, 83, 104
1, 98012, Note_on_c, 0, 69, 53
1, 98012, Note_on_c, 0, 81, 73
1, 98026, Note_on_c, 0, 83, 0
1, 98049, Note_on_c, 0, 81, 0
1, 98060, Note_on_c, 0, 64, 22
1, 98135, Note_on_c, 0, 81, 74
1, 98148, Note_on_c, 0, 76, 57
1, 98170, Note_on_c, 0, 81, 0
1, 98185, Note_on_c, 0, 76, 0
1, 98232, Note_on_c, 0, 64, 0
1, 98249, Note_on_c, 0, 69, 0
1, 98266, Note_on_c, 0, 83, 105
1, 98279, Note_on_c, 0, 61, 48
1, 98279, Note_on_c, 0, 81, 81
1, 98310, Note_on_c, 0, 81, 0
1, 98322, Note_on_c, 0, 61, 0
1, 98340, Note_on_c, 0, 83, 0
1, 98433, Note_on_c, 0, 61, 97
1, 98436, Note_on_c, 0, 73, 81
1, 98439, Note_on_c, 0, 68, 73
1, 98439, Note_on_c, 0, 41, 96
1, 98439, Note_on_c, 0, 53, 110
1, 98468, Note_on_c, 0, 41, 0
1, 98474, Note_on_c, 0, 53, 0
1, 98497, Note_on_c, 0, 68, 0
1, 98497, Note_on_c, 0, 61, 0
1, 98510, Control_c, 0, 64, 127
1, 98533, Note_on_c, 0, 73, 0
1, 98600, Note_on_c, 0, 56, 81
1, 98600, Note_on_c, 0, 73, 62
1, 98600, Note_on_c, 0, 44, 88
1, 98630, Control_c, 0, 64, 0
1, 98630, Note_on_c, 0, 44, 0
1, 98633, Note_on_c, 0, 56, 0
1, 98652, Note_on_c, 0, 73, 0
1, 98678, Note_on_c, 0, 85, 76
1, 98706, Note_on_c, 0, 73, 73
1, 98722, Note_on_c, 0, 61, 81
1, 98722, Note_on_c, 0, 49, 80
1, 98750, Note_on_c, 0, 61, 0
1, 98753, Note_on_c, 0, 49, 0
1, 98781, Note_on_c, 0, 73, 0
1, 98781, Note_on_c, 0, 85, 0
1, 98857, Note_on_c, 0, 86, 106
1, 98860, Note_on_c, 0, 74, 106
1, 98864, Note_on_c, 0, 80, 84
1, 98875, Note_on_c, 0, 65, 87
1, 98886, Note_on_c, 0, 53, 75
1, 98889, Note_on_c, 0, 74, 0
1, 98900, Note_on_c, 0, 65, 0
1, 98900, Note_on_c, 0, 80, 0
1, 98917, Control_c, 0, 64, 127
1, 98921, Note_on_c, 0, 53, 0
1, 98987, Note_on_c, 0, 85, 80
1, 98998, Note_on_c, 0, 68, 64
1, 99001, Note_on_c, 0, 56, 71
1, 99007, Note_on_c, 0, 86, 0
1, 99013, Control_c, 0, 64, 0
1, 99029, Note_on_c, 0, 68, 0
1, 99032, Note_on_c, 0, 56, 0
1, 99054, Note_on_c, 0, 80, 69
1, 99087, Note_on_c, 0, 85, 0
1, 99098, Note_on_c, 0, 73, 81
1, 99123, Note_on_c, 0, 53, 101
1, 99123, Note_on_c, 0, 65, 68
1, 99127, Note_on_c, 0, 80, 0
1, 99149, Note_on_c, 0, 53, 0
1, 99154, Note_on_c, 0, 65, 0
1, 99174, Note_on_c, 0, 73, 0
1, 99247, Note_on_c, 0, 73, 86
1, 99247, Note_on_c, 0, 83, 114
1, 99254, Note_on_c, 0, 66, 89
1, 99254, Note_on_c, 0, 78, 80
1, 99258, Note_on_c, 0, 54, 99
1, 99283, Note_on_c, 0, 66, 0
1, 99283, Note_on_c, 0, 54, 0
1, 99324, Control_c, 0, 64, 127
1, 99336, Note_on_c, 0, 73, 0
1, 99371, Note_on_c, 0, 78, 0
1, 99382, Note_on_c, 0, 81, 80
1, 99382, Note_on_c, 0, 69, 80
1, 99393, Note_on_c, 0, 83, 0
1, 99397, Note_on_c, 0, 57, 59
1, 99408, Control_c, 0, 64, 0
1, 99408, Note_on_c, 0, 69, 0
1, 99436, Note_on_c, 0, 57, 0
1, 99449, Note_on_c, 0, 78, 52
1, 99480, Note_on_c, 0, 81, 0
1, 99499, Note_on_c, 0, 73, 84
1, 99503, Note_on_c, 0, 66, 67
1, 99513, Note_on_c, 0, 54, 81
1, 99533, Note_on_c, 0, 78, 0
1, 99536, Note_on_c, 0, 66, 0
1, 99542, Note_on_c, 0, 54, 0
1, 99589, Note_on_c, 0, 73, 0
1, 99641, Note_on_c, 0, 80, 92
1, 99647, Note_on_c, 0, 59, 75
1, 99647, Note_on_c, 0, 47, 78
1, 99647, Note_on_c, 0, 69, 87
1, 99656, Note_on_c, 0, 75, 72
1, 99675, Note_on_c, 0, 59, 0
1, 99675, Note_on_c, 0, 47, 0
1, 99684, Note_on_c, 0, 69, 0
1, 99691, Note_on_c, 0, 75, 0
1, 99720, Control_c, 0, 64, 127
1, 99742, Note_on_c, 0, 80, 0
1, 99776, Note_on_c, 0, 63, 81
1, 99776, Note_on_c, 0, 78, 65
1, 99789, Note_on_c, 0, 51, 69
1, 99804, Note_on_c, 0, 63, 0
1, 99821, Note_on_c, 0, 51, 0
1, 99834, Note_on_c, 0, 75, 64
1, 99853, Control_c, 0, 64, 0
1, 99859, Note_on_c, 0, 78, 0
1, 99868, Note_on_c, 0, 75, 0
1, 99881, Note_on_c, 0, 69, 62
1, 99906, Note_on_c, 0, 47, 61
1, 99906, Note_on_c, 0, 59, 59
1, 99940, Note_on_c, 0, 69, 0
1, 99940, Note_on_c, 0, 59, 0
1, 99940, Note_on_c, 0, 47, 0
1, 100023, Note_on_c, 0, 73, 68
1, 100043, Note_on_c, 0, 71, 85
1, 100079, Note_on_c, 0, 71, 0
1, 100106, Note_on_c, 0, 73, 0
1, 100148, Note_on_c, 0, 52, 73
1, 100160, Note_on_c, 0, 71, 62
1, 100169, Note_on_c, 0, 68, 56
1, 100183, Note_on_c, 0, 52, 0
1, 100204, Note_on_c, 0, 71, 0
1, 100208, Note_on_c, 0, 68, 0
1, 100272, Note_on_c, 0, 73, 72
1, 100276, Note_on_c, 0, 59, 78
1, 100290, Note_on_c, 0, 71, 48
1, 100305, Note_on_c, 0, 59, 0
1, 100332, Note_on_c, 0, 73, 0
1, 100332, Note_on_c, 0, 71, 0
1, 100410, Note_on_c, 0, 76, 75
1, 100430, Note_on_c, 0, 74, 82
1, 100430, Note_on_c, 0, 68, 86
1, 100439, Control_c, 0, 64, 127
1, 100452, Note_on_c, 0, 62, 67
1, 100469, Note_on_c, 0, 76, 0
1, 100469, Note_on_c, 0, 64, 46
1, 100485, Note_on_c, 0, 74, 0
1, 100542, Note_on_c, 0, 71, 71
1, 100542, Note_on_c, 0, 74, 71
1, 100581, Note_on_c, 0, 74, 0
1, 100581, Note_on_c, 0, 71, 0
1, 100591, Note_on_c, 0, 62, 0
1, 100597, Note_on_c, 0, 68, 0
1, 100611, Note_on_c, 0, 64, 0
1, 100655, Control_c, 0, 64, 0
1, 100672, Note_on_c, 0, 76, 79
1, 100681, Note_on_c, 0, 59, 59
1, 100686, Note_on_c, 0, 74, 72
1, 100714, Note_on_c, 0, 74, 0
1, 100717, Note_on_c, 0, 76, 0
1, 100717, Note_on_c, 0, 59, 0
1, 100808, Note_on_c, 0, 78, 81
1, 100812, Note_on_c, 0, 76, 80
1, 100846, Note_on_c, 0, 76, 0
1, 100890, Note_on_c, 0, 78, 0
1, 100932, Note_on_c, 0, 76, 60
1, 100936, Note_on_c, 0, 73, 67
1, 100954, Note_on_c, 0, 52, 66
1, 100987, Note_on_c, 0, 73, 0
1, 100992, Note_on_c, 0, 76, 0
1, 100992, Note_on_c, 0, 52, 0
1, 101057, Note_on_c, 0, 78, 87
1, 101062, Note_on_c, 0, 76, 65
1, 101071, Note_on_c, 0, 61, 73
1, 101095, Note_on_c, 0, 76, 0
1, 101107, Note_on_c, 0, 61, 0
1, 101146, Note_on_c, 0, 78, 0
1, 101201, Note_on_c, 0, 83, 102
1, 101207, Control_c, 0, 64, 127
1, 101207, Note_on_c, 0, 81, 89
1, 101224, Note_on_c, 0, 69, 68
1, 101224, Note_on_c, 0, 64, 80
1, 101282, Note_on_c, 0, 83, 0
1, 101294, Note_on_c, 0, 81, 0
1, 101332, Note_on_c, 0, 76, 65
1, 101339, Note_on_c, 0, 81, 81
1, 101369, Note_on_c, 0, 76, 0
1, 101369, Note_on_c, 0, 81, 0
1, 101372, Note_on_c, 0, 64, 0
1, 101399, Note_on_c, 0, 69, 0
1, 101435, Control_c, 0, 64, 0
1, 101458, Note_on_c, 0, 83, 105
1, 101466, Note_on_c, 0, 81, 72
1, 101478, Note_on_c, 0, 61, 61
1, 101497, Note_on_c, 0, 81, 0
1, 101513, Note_on_c, 0, 61, 0
1, 101520, Note_on_c, 0, 83, 0
1, 101589, Note_on_c, 0, 85, 91
1, 101602, Note_on_c, 0, 83, 101
1, 101636, Note_on_c, 0, 83, 0
1, 101664, Note_on_c, 0, 85, 0
1, 101720, Note_on_c, 0, 83, 95
1, 101725, Note_on_c, 0, 80, 76
1, 101738, Note_on_c, 0, 52, 60
1, 101775, Note_on_c, 0, 80, 0
1, 101778, Note_on_c, 0, 83, 0
1, 101781, Note_on_c, 0, 52, 0
1, 101842, Note_on_c, 0, 85, 87
1, 101842, Note_on_c, 0, 83, 94
1, 101846, Note_on_c, 0, 62, 54
1, 101851, Note_on_c, 0, 59, 50
1, 101875, Note_on_c, 0, 83, 0
1, 101884, Note_on_c, 0, 62, 0
1, 101889, Note_on_c, 0, 59, 0
1, 101914, Note_on_c, 0, 85, 0
1, 101971, Note_on_c, 0, 88, 83
1, 101984, Note_on_c, 0, 86, 84
1, 101999, Note_on_c, 0, 71, 89
1, 101999, Note_on_c, 0, 68, 76
1, 102040, Note_on_c, 0, 62, 26
1, 102052, Note_on_c, 0, 86, 0
1, 102065, Note_on_c, 0, 88, 0
1, 102070, Control_c, 0, 64, 127
1, 102104, Note_on_c, 0, 86, 83
1, 102127, Note_on_c, 0, 83, 89
1, 102162, Note_on_c, 0, 86, 0
1, 102177, Note_on_c, 0, 71, 0
1, 102177, Note_on_c, 0, 83, 0
1, 102190, Note_on_c, 0, 62, 0
1, 102240, Note_on_c, 0, 68, 0
1, 102240, Note_on_c, 0, 88, 79
1, 102249, Note_on_c, 0, 86, 76
1, 102272, Note_on_c, 0, 64, 40
1, 102272, Control_c, 0, 64, 0
1, 102282, Note_on_c, 0, 86, 0
1, 102296, Note_on_c, 0, 88, 0
1, 102313, Note_on_c, 0, 64, 0
1, 102380, Note_on_c, 0, 90, 76
1, 102397, Note_on_c, 0, 88, 75
1, 102427, Note_on_c, 0, 88, 0
1, 102442, Note_on_c, 0, 90, 0
1, 102500, Note_on_c, 0, 88, 32
1, 102517, Note_on_c, 0, 85, 60
1, 102520, Note_on_c, 0, 52, 71
1, 102553, Note_on_c, 0, 85, 0
1, 102553, Note_on_c, 0, 52, 0
1, 102578, Note_on_c, 0, 88, 0
1, 102628, Note_on_c, 0, 88, 71
1, 102634, Note_on_c, 0, 64, 69
1, 102634, Note_on_c, 0, 90, 73
1, 102665, Note_on_c, 0, 88, 0
1, 102665, Note_on_c, 0, 64, 0
1, 102686, Note_on_c, 0, 90, 0
1, 102800, Note_on_c, 0, 95, 81
1, 102815, Note_on_c, 0, 73, 67
1, 102818, Note_on_c, 0, 93, 57
1, 102837, Note_on_c, 0, 69, 37
1, 102845, Note_on_c, 0, 61, 27
1, 102860, Note_on_c, 0, 93, 0
1, 102895, Note_on_c, 0, 95, 0
1, 102907, Control_c, 0, 64, 127
1, 102932, Note_on_c, 0, 93, 44
1, 102948, Note_on_c, 0, 88, 56
1, 102993, Note_on_c, 0, 93, 0
1, 102993, Note_on_c, 0, 88, 0
1, 103024, Note_on_c, 0, 69, 0
1, 103027, Note_on_c, 0, 61, 0
1, 103037, Note_on_c, 0, 73, 0
1, 103101, Note_on_c, 0, 95, 58
1, 103101, Note_on_c, 0, 93, 61
1, 103107, Note_on_c, 0, 64, 42
1, 103132, Note_on_c, 0, 88, 33
1, 103138, Note_on_c, 0, 95, 0
1, 103138, Note_on_c, 0, 93, 0
1, 103146, Note_on_c, 0, 64, 0
1, 103186, Note_on_c, 0, 88, 0
1, 103255, Control_c, 0, 64, 0
1, 103288, Note_on_c, 0, 64, 59
1, 103299, Note_on_c, 0, 97, 55
1, 103385, Note_on_c, 0, 95, 39
1, 103399, Note_on_c, 0, 97, 0
1, 103411, Note_on_c, 0, 68, 37
1, 103419, Note_on_c, 0, 74, 43
1, 103425, Note_on_c, 0, 94, 42
1, 103433, Note_on_c, 0, 95, 0
1, 103433, Note_on_c, 0, 71, 39
1, 103433, Control_c, 0, 64, 127
1, 103458, Note_on_c, 0, 68, 0
1, 103464, Note_on_c, 0, 94, 0
1, 103470, Note_on_c, 0, 74, 0
1, 103484, Note_on_c, 0, 71, 0
1, 103484, Note_on_c, 0, 95, 66
1, 103525, Note_on_c, 0, 95, 0
1, 103548, Note_on_c, 0, 64, 0
1, 103548, Note_on_c, 0, 74, 35
1, 103553, Note_on_c, 0, 68, 24
1, 103561, Note_on_c, 0, 71, 36
1, 103561, Note_on_c, 0, 96, 61
1, 103603, Note_on_c, 0, 68, 0
1, 103603, Note_on_c, 0, 96, 0
1, 103609, Note_on_c, 0, 71, 0
1, 103616, Note_on_c, 0, 74, 0
1, 103626, Note_on_c, 0, 97, 46
1, 103664, Note_on_c, 0, 97, 0
1, 103683, Note_on_c, 0, 63, 65
1, 103687, Note_on_c, 0, 98, 66
1, 103723, Note_on_c, 0, 98, 0
1, 103751, Note_on_c, 0, 99, 47
1, 103787, Note_on_c, 0, 75, 55
1, 103792, Note_on_c, 0, 99, 0
1, 103795, Control_c, 0, 64, 0
1, 103806, Note_on_c, 0, 68, 38
1, 103815, Note_on_c, 0, 100, 61
1, 103831, Note_on_c, 0, 75, 0
1, 103834, Note_on_c, 0, 71, 38
1, 103851, Note_on_c, 0, 68, 0
1, 103851, Note_on_c, 0, 100, 0
1, 103879, Note_on_c, 0, 101, 52
1, 103879, Note_on_c, 0, 71, 0
1, 103932, Note_on_c, 0, 75, 41
1, 103942, Note_on_c, 0, 102, 53
1, 103951, Control_c, 0, 64, 127
1, 103951, Note_on_c, 0, 71, 24
1, 103951, Note_on_c, 0, 68, 17
1, 103957, Note_on_c, 0, 101, 0
1, 103974, Note_on_c, 0, 75, 0
1, 104001, Note_on_c, 0, 63, 0
1, 104021, Note_on_c, 0, 71, 0
1, 104021, Note_on_c, 0, 103, 37
1, 104027, Note_on_c, 0, 68, 0
1, 104032, Note_on_c, 0, 102, 0
1, 104059, Control_c, 0, 64, 0
1, 104062, Note_on_c, 0, 104, 59
1, 104062, Note_on_c, 0, 103, 0
1, 104074, Note_on_c, 0, 62, 71
1, 104121, Note_on_c, 0, 103, 42
1, 104165, Note_on_c, 0, 62, 0
1, 104174, Note_on_c, 0, 104, 0
1, 104179, Control_c, 0, 64, 127
1, 104186, Note_on_c, 0, 102, 38
1, 104210, Note_on_c, 0, 76, 33
1, 104215, Note_on_c, 0, 103, 0
1, 104221, Note_on_c, 0, 68, 24
1, 104243, Note_on_c, 0, 71, 24
1, 104249, Note_on_c, 0, 101, 48
1, 104264, Note_on_c, 0, 102, 0
1, 104269, Note_on_c, 0, 76, 0
1, 104280, Note_on_c, 0, 68, 0
1, 104286, Note_on_c, 0, 101, 0
1, 104328, Note_on_c, 0, 100, 54
1, 104332, Note_on_c, 0, 76, 38
1, 104338, Note_on_c, 0, 68, 40
1, 104371, Note_on_c, 0, 76, 0
1, 104395, Note_on_c, 0, 68, 0
1, 104402, Note_on_c, 0, 71, 0
1, 104402, Note_on_c, 0, 99, 55
1, 104419, Control_c, 0, 64, 0
1, 104441, Note_on_c, 0, 100, 0
1, 104450, Note_on_c, 0, 98, 76
1, 104469, Note_on_c, 0, 61, 81
1, 104502, Note_on_c, 0, 99, 0
1, 104514, Control_c, 0, 64, 127
1, 104519, Note_on_c, 0, 97, 57
1, 104519, Note_on_c, 0, 61, 0
1, 104555, Note_on_c, 0, 98, 0
1, 104555, Note_on_c, 0, 97, 0
1, 104572, Note_on_c, 0, 96, 49
1, 104590, Note_on_c, 0, 77, 76
1, 104590, Note_on_c, 0, 68, 68
1, 104615, Note_on_c, 0, 71, 43
1, 104625, Note_on_c, 0, 77, 0
1, 104629, Note_on_c, 0, 96, 0
1, 104640, Note_on_c, 0, 68, 0
1, 104643, Note_on_c, 0, 95, 64
1, 104664, Note_on_c, 0, 71, 0
1, 104692, Note_on_c, 0, 95, 0
1, 104711, Note_on_c, 0, 77, 49
1, 104717, Note_on_c, 0, 71, 74
1, 104734, Note_on_c, 0, 68, 53
1, 104743, Note_on_c, 0, 77, 0
1, 104750, Note_on_c, 0, 71, 0
1, 104770, Note_on_c, 0, 68, 0
1, 104776, Note_on_c, 0, 95, 56
1, 104884, Note_on_c, 0, 95, 0
1, 104884, Note_on_c, 0, 97, 69
1, 104884, Note_on_c, 0, 55, 98
1, 104956, Note_on_c, 0, 95, 59
1, 104982, Control_c, 0, 64, 0
1, 105001, Note_on_c, 0, 97, 0
1, 105010, Note_on_c, 0, 62, 61
1, 105016, Note_on_c, 0, 59, 62
1, 105016, Note_on_c, 0, 65, 49
1, 105027, Note_on_c, 0, 94, 56
1, 105041, Note_on_c, 0, 95, 0
1, 105055, Note_on_c, 0, 62, 0
1, 105055, Note_on_c, 0, 59, 0
1, 105058, Note_on_c, 0, 65, 0
1, 105076, Note_on_c, 0, 94, 0
1, 105076, Control_c, 0, 64, 127
1, 105087, Note_on_c, 0, 95, 81
1, 105094, Note_on_c, 0, 55, 0
1, 105135, Note_on_c, 0, 65, 49
1, 105146, Note_on_c, 0, 62, 36
1, 105151, Note_on_c, 0, 59, 57
1, 105161, Note_on_c, 0, 96, 78
1, 105174, Note_on_c, 0, 95, 0
1, 105180, Note_on_c, 0, 65, 0
1, 105183, Note_on_c, 0, 59, 0
1, 105190, Note_on_c, 0, 62, 0
1, 105214, Note_on_c, 0, 96, 0
1, 105219, Note_on_c, 0, 97, 62
1, 105263, Note_on_c, 0, 97, 0
1, 105274, Note_on_c, 0, 54, 99
1, 105282, Control_c, 0, 64, 0
1, 105282, Note_on_c, 0, 98, 87
1, 105316, Note_on_c, 0, 98, 0
1, 105342, Note_on_c, 0, 99, 76
1, 105374, Note_on_c, 0, 99, 0
1, 105378, Note_on_c, 0, 66, 57
1, 105392, Note_on_c, 0, 62, 52
1, 105392, Note_on_c, 0, 59, 54
1, 105400, Control_c, 0, 64, 127
1, 105406, Note_on_c, 0, 100, 74
1, 105427, Note_on_c, 0, 66, 0
1, 105427, Note_on_c, 0, 59, 0
1, 105431, Note_on_c, 0, 62, 0
1, 105439, Note_on_c, 0, 54, 0
1, 105470, Note_on_c, 0, 101, 83
1, 105484, Note_on_c, 0, 100, 0
1, 105508, Note_on_c, 0, 66, 61
1, 105519, Note_on_c, 0, 59, 42
1, 105523, Note_on_c, 0, 62, 31
1, 105537, Note_on_c, 0, 102, 66
1, 105548, Note_on_c, 0, 66, 0
1, 105569, Note_on_c, 0, 59, 0
1, 105569, Note_on_c, 0, 62, 0
1, 105569, Note_on_c, 0, 101, 0
1, 105594, Note_on_c, 0, 103, 68
1, 105617, Control_c, 0, 64, 0
1, 105640, Note_on_c, 0, 53, 119
1, 105651, Note_on_c, 0, 102, 0
1, 105665, Note_on_c, 0, 104, 84
1, 105687, Note_on_c, 0, 103, 0
1, 105726, Note_on_c, 0, 103, 84
1, 105754, Note_on_c, 0, 59, 74
1, 105759, Note_on_c, 0, 67, 68
1, 105759, Note_on_c, 0, 53, 0
1, 105770, Note_on_c, 0, 62, 59
1, 105770, Control_c, 0, 64, 127
1, 105785, Note_on_c, 0, 102, 69
1, 105793, Note_on_c, 0, 59, 0
1, 105804, Note_on_c, 0, 104, 0
1, 105812, Note_on_c, 0, 62, 0
1, 105821, Note_on_c, 0, 67, 0
1, 105840, Note_on_c, 0, 103, 0
1, 105848, Note_on_c, 0, 101, 73
1, 105881, Note_on_c, 0, 62, 65
1, 105881, Note_on_c, 0, 67, 71
1, 105896, Note_on_c, 0, 59, 76
1, 105902, Note_on_c, 0, 102, 0
1, 105916, Note_on_c, 0, 101, 0
1, 105924, Note_on_c, 0, 100, 72
1, 105927, Note_on_c, 0, 67, 0
1, 105934, Note_on_c, 0, 59, 0
1, 105938, Note_on_c, 0, 62, 0
1, 105988, Note_on_c, 0, 99, 82
1, 105988, Control_c, 0, 64, 0
1, 106013, Note_on_c, 0, 100, 0
1, 106029, Note_on_c, 0, 52, 108
1, 106040, Note_on_c, 0, 98, 94
1, 106052, Note_on_c, 0, 52, 0
1, 106096, Control_c, 0, 64, 127
1, 106104, Note_on_c, 0, 97, 63
1, 106116, Note_on_c, 0, 99, 0
1, 106150, Note_on_c, 0, 98, 0
1, 106150, Note_on_c, 0, 68, 73
1, 106157, Note_on_c, 0, 96, 81
1, 106163, Note_on_c, 0, 59, 63
1, 106172, Note_on_c, 0, 62, 49
1, 106183, Note_on_c, 0, 97, 0
1, 106196, Note_on_c, 0, 68, 0
1, 106200, Note_on_c, 0, 59, 0
1, 106214, Note_on_c, 0, 62, 0
1, 106222, Note_on_c, 0, 95, 81
1, 106249, Note_on_c, 0, 96, 0
1, 106285, Note_on_c, 0, 68, 57
1, 106285, Note_on_c, 0, 94, 83
1, 106294, Note_on_c, 0, 62, 29
1, 106294, Note_on_c, 0, 59, 58
1, 106308, Note_on_c, 0, 95, 0
1, 106321, Note_on_c, 0, 68, 0
1, 106335, Note_on_c, 0, 59, 0
1, 106344, Note_on_c, 0, 62, 0
1, 106352, Note_on_c, 0, 95, 86
1, 106384, Note_on_c, 0, 94, 0
1, 106491, Control_c, 0, 64, 0
1, 106501, Note_on_c, 0, 86, 74
1, 106516, Note_on_c, 0, 47, 99
1, 106523, Note_on_c, 0, 59, 88
1, 106539, Note_on_c, 0, 95, 0
1, 106545, Note_on_c, 0, 47, 0
1, 106567, Note_on_c, 0, 59, 0
1, 106570, Note_on_c, 0, 98, 88
1, 106600, Control_c, 0, 64, 127
1, 106612, Note_on_c, 0, 86, 0
1, 106645, Note_on_c, 0, 98, 0
1, 106665, Note_on_c, 0, 84, 91
1, 106676, Note_on_c, 0, 56, 73
1, 106684, Note_on_c, 0, 65, 75
1, 106693, Note_on_c, 0, 61, 54
1, 106715, Note_on_c, 0, 65, 0
1, 106720, Note_on_c, 0, 56, 0
1, 106728, Note_on_c, 0, 84, 0
1, 106732, Note_on_c, 0, 61, 0
1, 106732, Note_on_c, 0, 96, 63
1, 106781, Note_on_c, 0, 96, 0
1, 106792, Note_on_c, 0, 85, 83
1, 106804, Note_on_c, 0, 61, 53
1, 106804, Note_on_c, 0, 65, 47
1, 106815, Note_on_c, 0, 56, 63
1, 106842, Note_on_c, 0, 61, 0
1, 106842, Note_on_c, 0, 65, 0
1, 106852, Note_on_c, 0, 56, 0
1, 106852, Note_on_c, 0, 97, 70
1, 106882, Note_on_c, 0, 85, 0
1, 106887, Control_c, 0, 64, 0
1, 106943, Note_on_c, 0, 86, 94
1, 106951, Note_on_c, 0, 45, 91
1, 106955, Note_on_c, 0, 97, 0
1, 106955, Note_on_c, 0, 57, 93
1, 106977, Note_on_c, 0, 45, 0
1, 106984, Note_on_c, 0, 57, 0
1, 107007, Control_c, 0, 64, 127
1, 107015, Note_on_c, 0, 98, 82
1, 107018, Note_on_c, 0, 86, 0
1, 107074, Note_on_c, 0, 98, 0
1, 107079, Note_on_c, 0, 84, 97
1, 107082, Note_on_c, 0, 66, 82
1, 107082, Note_on_c, 0, 61, 75
1, 107086, Note_on_c, 0, 57, 30
1, 107115, Note_on_c, 0, 61, 0
1, 107115, Note_on_c, 0, 66, 0
1, 107130, Note_on_c, 0, 84, 0
1, 107138, Note_on_c, 0, 96, 57
1, 107138, Note_on_c, 0, 57, 0
1, 107197, Note_on_c, 0, 66, 65
1, 107202, Note_on_c, 0, 57, 77
1, 107205, Note_on_c, 0, 61, 75
1, 107211, Note_on_c, 0, 85, 91
1, 107211, Note_on_c, 0, 96, 0
1, 107227, Note_on_c, 0, 66, 0
1, 107238, Note_on_c, 0, 61, 0
1, 107249, Note_on_c, 0, 57, 0
1, 107271, Note_on_c, 0, 97, 74
1, 107283, Control_c, 0, 64, 0
1, 107294, Note_on_c, 0, 85, 0
1, 107350, Note_on_c, 0, 86, 88
1, 107350, Note_on_c, 0, 43, 102
1, 107360, Note_on_c, 0, 55, 101
1, 107374, Note_on_c, 0, 43, 0
1, 107378, Note_on_c, 0, 97, 0
1, 107394, Note_on_c, 0, 55, 0
1, 107402, Control_c, 0, 64, 127
1, 107402, Note_on_c, 0, 98, 95
1, 107423, Note_on_c, 0, 86, 0
1, 107475, Note_on_c, 0, 98, 0
1, 107492, Note_on_c, 0, 84, 94
1, 107498, Note_on_c, 0, 69, 85
1, 107503, Note_on_c, 0, 61, 73
1, 107503, Note_on_c, 0, 64, 77
1, 107506, Note_on_c, 0, 57, 59
1, 107531, Note_on_c, 0, 69, 0
1, 107539, Note_on_c, 0, 64, 0
1, 107545, Note_on_c, 0, 61, 0
1, 107545, Note_on_c, 0, 57, 0
1, 107561, Note_on_c, 0, 96, 89
1, 107564, Note_on_c, 0, 84, 0
1, 107615, Note_on_c, 0, 69, 53
1, 107615, Note_on_c, 0, 61, 68
1, 107623, Note_on_c, 0, 57, 38
1, 107626, Note_on_c, 0, 85, 100
1, 107634, Note_on_c, 0, 96, 0
1, 107653, Note_on_c, 0, 69, 0
1, 107653, Note_on_c, 0, 61, 0
1, 107676, Note_on_c, 0, 57, 0
1, 107701, Note_on_c, 0, 97, 76
1, 107726, Control_c, 0, 64, 0
1, 107734, Note_on_c, 0, 85, 0
1, 107792, Note_on_c, 0, 41, 113
1, 107796, Note_on_c, 0, 86, 102
1, 107799, Note_on_c, 0, 53, 113
1, 107818, Note_on_c, 0, 41, 0
1, 107818, Note_on_c, 0, 97, 0
1, 107824, Note_on_c, 0, 53, 0
1, 107866, Note_on_c, 0, 98, 96
1, 107869, Control_c, 0, 64, 127
1, 107873, Note_on_c, 0, 86, 0
1, 107945, Note_on_c, 0, 98, 0
1, 107955, Note_on_c, 0, 69, 89
1, 107958, Note_on_c, 0, 60, 86
1, 107958, Note_on_c, 0, 87, 85
1, 107966, Note_on_c, 0, 57, 55
1, 107976, Note_on_c, 0, 63, 60
1, 107983, Note_on_c, 0, 69, 0
1, 108007, Note_on_c, 0, 57, 0
1, 108012, Note_on_c, 0, 63, 0
1, 108027, Note_on_c, 0, 99, 90
1, 108040, Note_on_c, 0, 60, 0
1, 108046, Note_on_c, 0, 87, 0
1, 108100, Note_on_c, 0, 99, 0
1, 108107, Note_on_c, 0, 60, 63
1, 108107, Note_on_c, 0, 69, 66
1, 108115, Note_on_c, 0, 63, 69
1, 108115, Note_on_c, 0, 87, 79
1, 108125, Note_on_c, 0, 57, 57
1, 108144, Note_on_c, 0, 69, 0
1, 108144, Note_on_c, 0, 63, 0
1, 108152, Note_on_c, 0, 60, 0
1, 108164, Note_on_c, 0, 57, 0
1, 108182, Note_on_c, 0, 99, 72
1, 108239, Note_on_c, 0, 87, 0
1, 108288, Note_on_c, 0, 99, 0
1, 108325, Note_on_c, 0, 100, 108
1, 108325, Note_on_c, 0, 88, 109
1, 108325, Note_on_c, 0, 97, 90
1, 108325, Note_on_c, 0, 40, 113
1, 108330, Note_on_c, 0, 52, 111
1, 108330, Note_on_c, 0, 93, 88
1, 108349, Control_c, 0, 64, 0
1, 108470, Note_on_c, 0, 52, 0
1, 108478, Note_on_c, 0, 40, 0
1, 108478, Control_c, 0, 64, 127
1, 108553, Note_on_c, 0, 100, 0
1, 108556, Note_on_c, 0, 93, 0
1, 108562, Note_on_c, 0, 97, 0
1, 108572, Note_on_c, 0, 88, 0
1, 108684, Control_c, 0, 64, 0
1, 108871, Note_on_c, 0, 101, 104
1, 108871, Note_on_c, 0, 96, 101
1, 108871, Note_on_c, 0, 93, 89
1, 108871, Note_on_c, 0, 51, 103
1, 108871, Note_on_c, 0, 89, 106
1, 108882, Note_on_c, 0, 39, 90
1, 108905, Note_on_c, 0, 39, 0
1, 108912, Control_c, 0, 64, 127
1, 108937, Note_on_c, 0, 101, 0
1, 108943, Note_on_c, 0, 51, 0
1, 108958, Note_on_c, 0, 96, 0
1, 108971, Note_on_c, 0, 93, 0
1, 108994, Note_on_c, 0, 89, 0
1, 109175, Note_on_c, 0, 89, 105
1, 109175, Note_on_c, 0, 77, 106
1, 109180, Note_on_c, 0, 81, 92
1, 109180, Note_on_c, 0, 84, 98
1, 109186, Note_on_c, 0, 65, 84
1, 109191, Note_on_c, 0, 60, 80
1, 109191, Note_on_c, 0, 57, 75
1, 109211, Note_on_c, 0, 65, 0
1, 109227, Note_on_c, 0, 60, 0
1, 109233, Note_on_c, 0, 57, 0
1, 109261, Note_on_c, 0, 77, 0
1, 109274, Note_on_c, 0, 81, 0
1, 109274, Note_on_c, 0, 89, 0
1, 109297, Note_on_c, 0, 84, 0
1, 109380, Control_c, 0, 64, 0
1, 109439, Note_on_c, 0, 89, 107
1, 109439, Note_on_c, 0, 82, 90
1, 109439, Note_on_c, 0, 77, 105
1, 109455, Note_on_c, 0, 50, 104
1, 109455, Note_on_c, 0, 38, 94
1, 109480, Note_on_c, 0, 38, 0
1, 109503, Note_on_c, 0, 82, 0
1, 109508, Note_on_c, 0, 89, 0
1, 109511, Note_on_c, 0, 77, 0
1, 109511, Control_c, 0, 64, 127
1, 109536, Note_on_c, 0, 50, 0
1, 109665, Note_on_c, 0, 77, 96
1, 109665, Note_on_c, 0, 70, 84
1, 109668, Note_on_c, 0, 58, 84
1, 109668, Note_on_c, 0, 65, 78
1, 109676, Note_on_c, 0, 62, 87
1, 109681, Note_on_c, 0, 53, 85
1, 109701, Note_on_c, 0, 62, 0
1, 109709, Note_on_c, 0, 65, 0
1, 109714, Note_on_c, 0, 53, 0
1, 109729, Note_on_c, 0, 58, 0
1, 109749, Note_on_c, 0, 77, 0
1, 109823, Control_c, 0, 64, 0
1, 109831, Note_on_c, 0, 70, 0
1, 109871, Note_on_c, 0, 77, 101
1, 109876, Note_on_c, 0, 71, 103
1, 109876, Note_on_c, 0, 65, 98
1, 109876, Note_on_c, 0, 49, 100
1, 109880, Note_on_c, 0, 37, 97
1, 109909, Note_on_c, 0, 37, 0
1, 109938, Note_on_c, 0, 49, 0
1, 109949, Note_on_c, 0, 77, 0
1, 109949, Control_c, 0, 64, 127
1, 109949, Note_on_c, 0, 65, 0
1, 109954, Note_on_c, 0, 71, 0
1, 110060, Note_on_c, 0, 65, 95
1, 110060, Note_on_c, 0, 56, 84
1, 110063, Note_on_c, 0, 59, 101
1, 110069, Note_on_c, 0, 49, 65
1, 110093, Note_on_c, 0, 56, 0
1, 110093, Note_on_c, 0, 59, 0
1, 110102, Note_on_c, 0, 49, 0
1, 110102, Note_on_c, 0, 65, 0
1, 110228, Note_on_c, 0, 49, 89
1, 110236, Note_on_c, 0, 37, 66
1, 110264, Note_on_c, 0, 50, 84
1, 110270, Note_on_c, 0, 49, 0
1, 110283, Note_on_c, 0, 39, 14
1, 110292, Note_on_c, 0, 38, 73
1, 110306, Note_on_c, 0, 52, 92
1, 110323, Note_on_c, 0, 40, 78
1, 110326, Note_on_c, 0, 37, 0
1, 110334, Note_on_c, 0, 50, 0
1, 110339, Note_on_c, 0, 39, 0
1, 110339, Control_c, 0, 64, 0
1, 110345, Note_on_c, 0, 38, 0
1, 110369, Note_on_c, 0, 41, 4
1, 110383, Note_on_c, 0, 53, 120
1, 110394, Note_on_c, 0, 52, 0
1, 110406, Note_on_c, 0, 40, 0
1, 110473, Note_on_c, 0, 41, 0
1, 110512, Note_on_c, 0, 53, 0
1, 110531, Control_c, 0, 64, 127
1, 110572, Note_on_c, 0, 65, 78
1, 110572, Note_on_c, 0, 50, 78
1, 110576, Note_on_c, 0, 44, 63
1, 110581, Note_on_c, 0, 53, 58
1, 110581, Note_on_c, 0, 41, 52
1, 110600, Note_on_c, 0, 65, 0
1, 110600, Note_on_c, 0, 47, 37
1, 110612, Note_on_c, 0, 50, 0
1, 110623, Note_on_c, 0, 53, 0
1, 110623, Note_on_c, 0, 41, 0
1, 110632, Note_on_c, 0, 44, 0
1, 110642, Note_on_c, 0, 47, 0
1, 110698, Note_on_c, 0, 68, 88
1, 110701, Note_on_c, 0, 56, 69
1, 110701, Note_on_c, 0, 41, 73
1, 110709, Note_on_c, 0, 47, 39
1, 110713, Note_on_c, 0, 50, 73
1, 110717, Note_on_c, 0, 44, 52
1, 110729, Note_on_c, 0, 68, 0
1, 110737, Note_on_c, 0, 56, 0
1, 110754, Note_on_c, 0, 50, 0
1, 110759, Note_on_c, 0, 41, 0
1, 110759, Note_on_c, 0, 44, 0
1, 110763, Note_on_c, 0, 47, 0
1, 110824, Note_on_c, 0, 41, 83
1, 110827, Note_on_c, 0, 50, 70
1, 110832, Note_on_c, 0, 47, 53
1, 110832, Note_on_c, 0, 44, 55
1, 110832, Note_on_c, 0, 59, 83
1, 110837, Note_on_c, 0, 71, 79
1, 110860, Note_on_c, 0, 41, 0
1, 110860, Note_on_c, 0, 59, 0
1, 110871, Note_on_c, 0, 71, 0
1, 110874, Note_on_c, 0, 47, 0
1, 110877, Note_on_c, 0, 44, 0
1, 110882, Note_on_c, 0, 50, 0
1, 110932, Note_on_c, 0, 73, 89
1, 110932, Note_on_c, 0, 50, 85
1, 110932, Note_on_c, 0, 61, 90
1, 110940, Note_on_c, 0, 41, 72
1, 110940, Note_on_c, 0, 47, 56
1, 110943, Note_on_c, 0, 44, 55
1, 110977, Note_on_c, 0, 73, 0
1, 110982, Note_on_c, 0, 61, 0
1, 110985, Note_on_c, 0, 41, 0
1, 110991, Note_on_c, 0, 47, 0
1, 110994, Note_on_c, 0, 44, 0
1, 111008, Note_on_c, 0, 50, 0
1, 111052, Note_on_c, 0, 50, 91
1, 111052, Note_on_c, 0, 74, 102
1, 111056, Note_on_c, 0, 44, 62
1, 111056, Note_on_c, 0, 41, 59
1, 111056, Note_on_c, 0, 62, 89
1, 111063, Note_on_c, 0, 47, 49
1, 111085, Note_on_c, 0, 62, 0
1, 111085, Note_on_c, 0, 74, 0
1, 111100, Note_on_c, 0, 41, 0
1, 111107, Note_on_c, 0, 47, 0
1, 111127, Note_on_c, 0, 44, 0
1, 111132, Note_on_c, 0, 50, 0
1, 111172, Note_on_c, 0, 50, 100
1, 111172, Note_on_c, 0, 41, 63
1, 111172, Note_on_c, 0, 44, 76
1, 111172, Note_on_c, 0, 77, 99
1, 111180, Note_on_c, 0, 47, 58
1, 111180, Note_on_c, 0, 65, 85
1, 111205, Note_on_c, 0, 77, 0
1, 111213, Note_on_c, 0, 65, 0
1, 111219, Note_on_c, 0, 41, 0
1, 111225, Note_on_c, 0, 47, 0
1, 111228, Note_on_c, 0, 50, 0
1, 111235, Note_on_c, 0, 44, 0
1, 111292, Note_on_c, 0, 47, 70
1, 111292, Note_on_c, 0, 52, 101
1, 111295, Note_on_c, 0, 68, 85
1, 111295, Note_on_c, 0, 80, 96
1, 111300, Note_on_c, 0, 44, 68
1, 111306, Note_on_c, 0, 40, 85
1, 111319, Note_on_c, 0, 52, 0
1, 111319, Note_on_c, 0, 80, 0
1, 111327, Note_on_c, 0, 68, 0
1, 111333, Note_on_c, 0, 40, 0
1, 111336, Note_on_c, 0, 44, 0
1, 111345, Note_on_c, 0, 47, 0
1, 111395, Note_on_c, 0, 40, 88
1, 111398, Note_on_c, 0, 47, 83
1, 111398, Note_on_c, 0, 52, 87
1, 111408, Note_on_c, 0, 71, 95
1, 111408, Note_on_c, 0, 44, 57
1, 111408, Note_on_c, 0, 83, 100
1, 111425, Note_on_c, 0, 81, 56
1, 111433, Note_on_c, 0, 40, 0
1, 111433, Note_on_c, 0, 71, 0
1, 111433, Note_on_c, 0, 83, 0
1, 111437, Note_on_c, 0, 52, 0
1, 111444, Note_on_c, 0, 44, 0
1, 111462, Note_on_c, 0, 47, 0
1, 111462, Note_on_c, 0, 81, 0
1, 111504, Note_on_c, 0, 52, 97
1, 111504, Note_on_c, 0, 40, 99
1, 111512, Note_on_c, 0, 47, 81
1, 111512, Note_on_c, 0, 44, 66
1, 111512, Note_on_c, 0, 74, 101
1, 111515, Note_on_c, 0, 86, 106
1, 111532, Note_on_c, 0, 40, 0
1, 111540, Note_on_c, 0, 86, 0
1, 111545, Note_on_c, 0, 74, 0
1, 111562, Note_on_c, 0, 47, 0
1, 111562, Note_on_c, 0, 44, 0
1, 111579, Note_on_c, 0, 52, 0
1, 111623, Note_on_c, 0, 75, 93
1, 111623, Note_on_c, 0, 87, 96
1, 111628, Note_on_c, 0, 52, 97
1, 111634, Note_on_c, 0, 47, 61
1, 111637, Note_on_c, 0, 44, 66
1, 111648, Note_on_c, 0, 40, 70
1, 111659, Note_on_c, 0, 52, 0
1, 111670, Note_on_c, 0, 44, 0
1, 111674, Note_on_c, 0, 47, 0
1, 111681, Note_on_c, 0, 40, 0
1, 111692, Note_on_c, 0, 87, 0
1, 111699, Note_on_c, 0, 75, 0
1, 111745, Note_on_c, 0, 44, 72
1, 111745, Note_on_c, 0, 88, 98
1, 111745, Note_on_c, 0, 76, 92
1, 111749, Note_on_c, 0, 52, 96
1, 111760, Note_on_c, 0, 40, 52
1, 111785, Note_on_c, 0, 76, 0
1, 111798, Note_on_c, 0, 40, 0
1, 111804, Note_on_c, 0, 52, 0
1, 111813, Note_on_c, 0, 88, 0
1, 111832, Note_on_c, 0, 44, 0
1, 111837, Control_c, 0, 64, 0
1, 111887, Note_on_c, 0, 88, 105
1, 111887, Note_on_c, 0, 76, 112
1, 111887, Note_on_c, 0, 81, 103
1, 111891, Note_on_c, 0, 85, 97
1, 111891, Note_on_c, 0, 52, 112
1, 111899, Note_on_c, 0, 49, 89
1, 111899, Note_on_c, 0, 45, 83
1, 111899, Note_on_c, 0, 40, 108
1, 111957, Note_on_c, 0, 52, 0
1, 111961, Note_on_c, 0, 76, 0
1, 111980, Control_c, 0, 64, 127
1, 111980, Note_on_c, 0, 40, 0
1, 111994, Note_on_c, 0, 81, 0
1, 112000, Note_on_c, 0, 45, 0
1, 112003, Note_on_c, 0, 49, 0
1, 112027, Note_on_c, 0, 88, 0
1, 112050, Note_on_c, 0, 85, 0
1, 112195, Control_c, 0, 64, 0
1, 112412, Note_on_c, 0, 51, 108
1, 112412, Note_on_c, 0, 101, 104
1, 112412, Note_on_c, 0, 93, 92
1, 112415, Note_on_c, 0, 89, 108
1, 112415, Note_on_c, 0, 96, 98
1, 112420, Note_on_c, 0, 39, 93
1, 112447, Note_on_c, 0, 39, 0
1, 112464, Note_on_c, 0, 101, 0
1, 112479, Note_on_c, 0, 51, 0
1, 112484, Control_c, 0, 64, 127
1, 112495, Note_on_c, 0, 93, 0
1, 112500, Note_on_c, 0, 96, 0
1, 112522, Note_on_c, 0, 89, 0
1, 112715, Note_on_c, 0, 89, 100
1, 112715, Note_on_c, 0, 77, 107
1, 112720, Note_on_c, 0, 81, 93
1, 112720, Note_on_c, 0, 65, 85
1, 112723, Note_on_c, 0, 84, 98
1, 112723, Note_on_c, 0, 57, 80
1, 112731, Note_on_c, 0, 60, 71
1, 112748, Note_on_c, 0, 65, 0
1, 112765, Note_on_c, 0, 60, 0
1, 112774, Note_on_c, 0, 57, 0
1, 112799, Note_on_c, 0, 81, 0
1, 112802, Note_on_c, 0, 77, 0
1, 112819, Note_on_c, 0, 89, 0
1, 112840, Note_on_c, 0, 84, 0
1, 112916, Control_c, 0, 64, 0
1, 112974, Note_on_c, 0, 89, 108
1, 112980, Note_on_c, 0, 77, 104
1, 112980, Note_on_c, 0, 82, 90
1, 112986, Note_on_c, 0, 50, 104
1, 112989, Note_on_c, 0, 38, 93
1, 113013, Note_on_c, 0, 38, 0
1, 113032, Note_on_c, 0, 50, 0
1, 113036, Note_on_c, 0, 89, 0
1, 113047, Control_c, 0, 64, 127
1, 113050, Note_on_c, 0, 82, 0
1, 113064, Note_on_c, 0, 77, 0
1, 113224, Note_on_c, 0, 77, 101
1, 113224, Note_on_c, 0, 65, 102
1, 113228, Note_on_c, 0, 70, 80
1, 113233, Note_on_c, 0, 62, 85
1, 113236, Note_on_c, 0, 58, 65
1, 113239, Note_on_c, 0, 53, 90
1, 113253, Note_on_c, 0, 65, 0
1, 113261, Note_on_c, 0, 62, 0
1, 113266, Note_on_c, 0, 70, 0
1, 113277, Note_on_c, 0, 58, 0
1, 113283, Note_on_c, 0, 53, 0
1, 113302, Note_on_c, 0, 77, 0
1, 113383, Control_c, 0, 64, 0
1, 113437, Note_on_c, 0, 49, 100
1, 113440, Note_on_c, 0, 77, 103
1, 113440, Note_on_c, 0, 65, 96
1, 113440, Note_on_c, 0, 37, 94
1, 113444, Note_on_c, 0, 71, 100
1, 113473, Note_on_c, 0, 37, 0
1, 113503, Control_c, 0, 64, 127
1, 113507, Note_on_c, 0, 65, 0
1, 113515, Note_on_c, 0, 77, 0
1, 113515, Note_on_c, 0, 49, 0
1, 113523, Note_on_c, 0, 71, 0
1, 113626, Note_on_c, 0, 49, 80
1, 113626, Note_on_c, 0, 56, 89
1, 113631, Note_on_c, 0, 59, 89
1, 113634, Note_on_c, 0, 65, 63
1, 113655, Note_on_c, 0, 56, 0
1, 113655, Note_on_c, 0, 49, 0
1, 113662, Note_on_c, 0, 59, 0
1, 113665, Note_on_c, 0, 65, 0
1, 113785, Note_on_c, 0, 37, 73
1, 113796, Note_on_c, 0, 49, 84
1, 113821, Note_on_c, 0, 50, 58
1, 113832, Note_on_c, 0, 49, 0
1, 113832, Note_on_c, 0, 38, 76
1, 113865, Note_on_c, 0, 50, 0
1, 113872, Note_on_c, 0, 40, 90
1, 113872, Control_c, 0, 64, 0
1, 113877, Note_on_c, 0, 52, 91
1, 113880, Note_on_c, 0, 37, 0
1, 113924, Note_on_c, 0, 38, 0
1, 113929, Note_on_c, 0, 41, 106
1, 113936, Note_on_c, 0, 53, 121
1, 113969, Note_on_c, 0, 40, 0
1, 113969, Note_on_c, 0, 52, 0
1, 114029, Note_on_c, 0, 41, 0
1, 114052, Note_on_c, 0, 53, 0
1, 114078, Control_c, 0, 64, 127
1, 114119, Note_on_c, 0, 41, 64
1, 114119, Note_on_c, 0, 50, 75
1, 114119, Note_on_c, 0, 47, 27
1, 114122, Note_on_c, 0, 65, 87
1, 114131, Note_on_c, 0, 44, 53
1, 114136, Note_on_c, 0, 53, 49
1, 114147, Note_on_c, 0, 65, 0
1, 114160, Note_on_c, 0, 41, 0
1, 114160, Note_on_c, 0, 50, 0
1, 114173, Note_on_c, 0, 47, 0
1, 114177, Note_on_c, 0, 44, 0
1, 114184, Note_on_c, 0, 53, 0
1, 114247, Note_on_c, 0, 50, 68
1, 114247, Note_on_c, 0, 41, 71
1, 114247, Note_on_c, 0, 68, 88
1, 114247, Note_on_c, 0, 56, 65
1, 114259, Note_on_c, 0, 47, 59
1, 114259, Note_on_c, 0, 44, 47
1, 114277, Note_on_c, 0, 68, 0
1, 114284, Note_on_c, 0, 56, 0
1, 114287, Note_on_c, 0, 41, 0
1, 114291, Note_on_c, 0, 50, 0
1, 114300, Note_on_c, 0, 47, 0
1, 114300, Note_on_c, 0, 44, 0
1, 114373, Note_on_c, 0, 50, 85
1, 114373, Note_on_c, 0, 41, 79
1, 114376, Note_on_c, 0, 71, 101
1, 114380, Note_on_c, 0, 59, 89
1, 114383, Note_on_c, 0, 44, 47
1, 114386, Note_on_c, 0, 47, 42
1, 114403, Note_on_c, 0, 71, 0
1, 114403, Note_on_c, 0, 59, 0
1, 114409, Note_on_c, 0, 41, 0
1, 114420, Note_on_c, 0, 50, 0
1, 114423, Note_on_c, 0, 44, 0
1, 114423, Note_on_c, 0, 47, 0
1, 114486, Note_on_c, 0, 73, 88
1, 114486, Note_on_c, 0, 61, 92
1, 114486, Note_on_c, 0, 50, 82
1, 114492, Note_on_c, 0, 47, 48
1, 114492, Note_on_c, 0, 41, 64
1, 114497, Note_on_c, 0, 44, 50
1, 114520, Note_on_c, 0, 73, 0
1, 114520, Note_on_c, 0, 61, 0
1, 114531, Note_on_c, 0, 50, 0
1, 114531, Note_on_c, 0, 41, 0
1, 114531, Note_on_c, 0, 47, 0
1, 114537, Note_on_c, 0, 44, 0
1, 114598, Note_on_c, 0, 41, 70
1, 114598, Note_on_c, 0, 50, 79
1, 114603, Note_on_c, 0, 44, 55
1, 114603, Note_on_c, 0, 74, 100
1, 114603, Note_on_c, 0, 47, 47
1, 114610, Note_on_c, 0, 62, 79
1, 114631, Note_on_c, 0, 74, 0
1, 114640, Note_on_c, 0, 62, 0
1, 114649, Note_on_c, 0, 41, 0
1, 114657, Note_on_c, 0, 47, 0
1, 114667, Note_on_c, 0, 44, 0
1, 114679, Note_on_c, 0, 50, 0
1, 114720, Note_on_c, 0, 50, 101
1, 114724, Note_on_c, 0, 77, 105
1, 114724, Note_on_c, 0, 41, 82
1, 114724, Note_on_c, 0, 65, 100
1, 114727, Note_on_c, 0, 47, 67
1, 114731, Note_on_c, 0, 44, 65
1, 114749, Note_on_c, 0, 77, 0
1, 114762, Note_on_c, 0, 41, 0
1, 114766, Note_on_c, 0, 65, 0
1, 114776, Note_on_c, 0, 47, 0
1, 114793, Note_on_c, 0, 50, 0
1, 114796, Note_on_c, 0, 44, 0
1, 114844, Note_on_c, 0, 66, 85
1, 114847, Note_on_c, 0, 49, 90
1, 114847, Note_on_c, 0, 78, 89
1, 114847, Note_on_c, 0, 40, 104
1, 114851, Note_on_c, 0, 46, 78
1, 114869, Note_on_c, 0, 66, 0
1, 114872, Note_on_c, 0, 78, 0
1, 114872, Note_on_c, 0, 40, 0
1, 114876, Note_on_c, 0, 49, 0
1, 114890, Note_on_c, 0, 46, 0
1, 114946, Note_on_c, 0, 40, 96
1, 114946, Note_on_c, 0, 49, 68
1, 114950, Note_on_c, 0, 69, 89
1, 114950, Note_on_c, 0, 46, 56
1, 114954, Note_on_c, 0, 81, 83
1, 114974, Note_on_c, 0, 40, 0
1, 114980, Note_on_c, 0, 69, 0
1, 114980, Note_on_c, 0, 81, 0
1, 114988, Note_on_c, 0, 49, 0
1, 114991, Note_on_c, 0, 46, 0
1, 115052, Note_on_c, 0, 49, 79
1, 115055, Note_on_c, 0, 70, 92
1, 115060, Note_on_c, 0, 82, 90
1, 115063, Note_on_c, 0, 40, 94
1, 115063, Note_on_c, 0, 46, 52
1, 115088, Note_on_c, 0, 70, 0
1, 115088, Note_on_c, 0, 40, 0
1, 115092, Note_on_c, 0, 82, 0
1, 115096, Note_on_c, 0, 49, 0
1, 115100, Note_on_c, 0, 46, 0
1, 115163, Note_on_c, 0, 49, 81
1, 115167, Note_on_c, 0, 40, 88
1, 115172, Note_on_c, 0, 46, 48
1, 115177, Note_on_c, 0, 73, 79
1, 115177, Note_on_c, 0, 85, 92
1, 115197, Note_on_c, 0, 40, 0
1, 115197, Note_on_c, 0, 85, 0
1, 115203, Note_on_c, 0, 73, 0
1, 115209, Note_on_c, 0, 46, 0
1, 115219, Note_on_c, 0, 49, 0
1, 115266, Note_on_c, 0, 49, 83
1, 115266, Note_on_c, 0, 40, 95
1, 115278, Note_on_c, 0, 46, 47
1, 115283, Note_on_c, 0, 89, 105
1, 115283, Note_on_c, 0, 77, 95
1, 115303, Note_on_c, 0, 40, 0
1, 115311, Note_on_c, 0, 89, 0
1, 115311, Note_on_c, 0, 77, 0
1, 115331, Note_on_c, 0, 46, 0
1, 115331, Note_on_c, 0, 49, 0
1, 115393, Note_on_c, 0, 49, 81
1, 115397, Note_on_c, 0, 78, 102
1, 115397, Note_on_c, 0, 46, 69
1, 115397, Note_on_c, 0, 90, 100
1, 115403, Note_on_c, 0, 40, 101
1, 115408, Control_c, 0, 64, 0
1, 115426, Note_on_c, 0, 40, 0
1, 115434, Note_on_c, 0, 90, 0
1, 115442, Note_on_c, 0, 78, 0
1, 115462, Note_on_c, 0, 49, 0
1, 115482, Note_on_c, 0, 46, 0
1, 115503, Note_on_c, 0, 49, 92
1, 115514, Note_on_c, 0, 91, 101
1, 115514, Note_on_c, 0, 79, 98
1, 115521, Note_on_c, 0, 46, 80
1, 115528, Note_on_c, 0, 39, 78
1, 115540, Control_c, 0, 64, 127
1, 115543, Note_on_c, 0, 79, 0
1, 115543, Note_on_c, 0, 91, 0
1, 115553, Note_on_c, 0, 46, 0
1, 115553, Note_on_c, 0, 39, 0
1, 115571, Note_on_c, 0, 49, 0
1, 115609, Note_on_c, 0, 39, 58
1, 115612, Note_on_c, 0, 49, 86
1, 115618, Note_on_c, 0, 46, 48
1, 115623, Note_on_c, 0, 81, 102
1, 115626, Note_on_c, 0, 93, 100
1, 115652, Note_on_c, 0, 93, 0
1, 115662, Note_on_c, 0, 46, 0
1, 115662, Note_on_c, 0, 81, 0
1, 115671, Note_on_c, 0, 49, 0
1, 115676, Note_on_c, 0, 39, 0
1, 115729, Note_on_c, 0, 49, 73
1, 115729, Note_on_c, 0, 39, 71
1, 115732, Note_on_c, 0, 82, 100
1, 115732, Note_on_c, 0, 94, 96
1, 115737, Note_on_c, 0, 46, 56
1, 115763, Note_on_c, 0, 82, 0
1, 115769, Note_on_c, 0, 49, 0
1, 115769, Note_on_c, 0, 39, 0
1, 115774, Note_on_c, 0, 46, 0
1, 115790, Note_on_c, 0, 94, 0
1, 115846, Note_on_c, 0, 49, 76
1, 115849, Note_on_c, 0, 39, 77
1, 115849, Note_on_c, 0, 85, 95
1, 115849, Note_on_c, 0, 97, 92
1, 115860, Note_on_c, 0, 46, 46
1, 115872, Note_on_c, 0, 85, 0
1, 115880, Note_on_c, 0, 97, 0
1, 115886, Note_on_c, 0, 39, 0
1, 115891, Note_on_c, 0, 49, 0
1, 115896, Note_on_c, 0, 46, 0
1, 115983, Note_on_c, 0, 90, 98
1, 115983, Note_on_c, 0, 49, 72
1, 115983, Note_on_c, 0, 102, 101
1, 115986, Note_on_c, 0, 39, 80
1, 115994, Note_on_c, 0, 46, 36
1, 116014, Note_on_c, 0, 102, 0
1, 116014, Note_on_c, 0, 39, 0
1, 116018, Note_on_c, 0, 90, 0
1, 116027, Note_on_c, 0, 49, 0
1, 116038, Note_on_c, 0, 46, 0
1, 116145, Note_on_c, 0, 103, 110
1, 116148, Note_on_c, 0, 91, 111
1, 116148, Note_on_c, 0, 49, 106
1, 116151, Note_on_c, 0, 39, 101
1, 116156, Note_on_c, 0, 46, 76
1, 116173, Note_on_c, 0, 91, 0
1, 116173, Note_on_c, 0, 39, 0
1, 116183, Note_on_c, 0, 46, 0
1, 116195, Note_on_c, 0, 49, 0
1, 116200, Note_on_c, 0, 103, 0
1, 116595, Control_c, 0, 64, 0
1, 116760, Note_on_c, 0, 103, 101
1, 116765, Note_on_c, 0, 98, 106
1, 116765, Note_on_c, 0, 94, 97
1, 116765, Note_on_c, 0, 91, 108
1, 116768, Note_on_c, 0, 38, 99
1, 116768, Note_on_c, 0, 50, 113
1, 116774, Note_on_c, 0, 43, 90
1, 116774, Note_on_c, 0, 46, 83
1, 116793, Note_on_c, 0, 38, 0
1, 116802, Note_on_c, 0, 43, 0
1, 116810, Note_on_c, 0, 103, 0
1, 116815, Note_on_c, 0, 98, 0
1, 116827, Note_on_c, 0, 91, 0
1, 116843, Note_on_c, 0, 50, 0
1, 116846, Control_c, 0, 64, 127
1, 116850, Note_on_c, 0, 94, 0
1, 116850, Note_on_c, 0, 46, 0
1, 117106, Note_on_c, 0, 79, 113
1, 117106, Note_on_c, 0, 91, 96
1, 117106, Note_on_c, 0, 67, 95
1, 117113, Note_on_c, 0, 86, 97
1, 117113, Note_on_c, 0, 82, 85
1, 117117, Note_on_c, 0, 55, 80
1, 117117, Note_on_c, 0, 62, 89
1, 117125, Note_on_c, 0, 58, 58
1, 117136, Note_on_c, 0, 89, 49
1, 117136, Note_on_c, 0, 67, 0
1, 117152, Note_on_c, 0, 62, 0
1, 117175, Note_on_c, 0, 58, 0
1, 117181, Note_on_c, 0, 89, 0
1, 117184, Note_on_c, 0, 91, 0
1, 117191, Note_on_c, 0, 55, 0
1, 117195, Note_on_c, 0, 79, 0
1, 117216, Note_on_c, 0, 82, 0
1, 117228, Note_on_c, 0, 86, 0
1, 117289, Control_c, 0, 64, 0
1, 117362, Note_on_c, 0, 91, 107
1, 117362, Note_on_c, 0, 82, 95
1, 117365, Note_on_c, 0, 79, 112
1, 117365, Note_on_c, 0, 88, 92
1, 117368, Note_on_c, 0, 49, 107
1, 117373, Note_on_c, 0, 37, 100
1, 117387, Note_on_c, 0, 91, 0
1, 117393, Note_on_c, 0, 88, 0
1, 117397, Note_on_c, 0, 37, 0
1, 117426, Note_on_c, 0, 79, 0
1, 117434, Note_on_c, 0, 49, 0
1, 117434, Control_c, 0, 64, 127
1, 117446, Note_on_c, 0, 82, 0
1, 117610, Note_on_c, 0, 79, 103
1, 117613, Note_on_c, 0, 67, 97
1, 117613, Note_on_c, 0, 70, 84
1, 117613, Note_on_c, 0, 64, 100
1, 117620, Note_on_c, 0, 76, 63
1, 117620, Note_on_c, 0, 58, 77
1, 117629, Note_on_c, 0, 55, 74
1, 117638, Note_on_c, 0, 64, 0
1, 117662, Note_on_c, 0, 55, 0
1, 117665, Note_on_c, 0, 58, 0
1, 117691, Note_on_c, 0, 67, 0
1, 117713, Note_on_c, 0, 76, 0
1, 117713, Note_on_c, 0, 79, 0
1, 117718, Note_on_c, 0, 70, 0
1, 117793, Control_c, 0, 64, 0
1, 117879, Note_on_c, 0, 70, 90
1, 117879, Note_on_c, 0, 79, 104
1, 117879, Note_on_c, 0, 67, 105
1, 117882, Note_on_c, 0, 48, 86
1, 117882, Note_on_c, 0, 76, 85
1, 117882, Note_on_c, 0, 36, 85
1, 117908, Note_on_c, 0, 79, 0
1, 117916, Note_on_c, 0, 36, 0
1, 117916, Note_on_c, 0, 48, 0
1, 117953, Note_on_c, 0, 67, 0
1, 117957, Note_on_c, 0, 76, 0
1, 117961, Control_c, 0, 64, 127
1, 117967, Note_on_c, 0, 70, 0
1, 118197, Note_on_c, 0, 67, 102
1, 118197, Note_on_c, 0, 58, 88
1, 118200, Note_on_c, 0, 55, 108
1, 118200, Control_c, 0, 64, 0
1, 118200, Note_on_c, 0, 64, 98
1, 118206, Note_on_c, 0, 48, 94
1, 118211, Note_on_c, 0, 36, 97
1, 118211, Note_on_c, 0, 43, 92
1, 118289, Note_on_c, 0, 36, 0
1, 118289, Note_on_c, 0, 48, 0
1, 118300, Note_on_c, 0, 55, 0
1, 118309, Note_on_c, 0, 43, 0
1, 118312, Note_on_c, 0, 67, 0
1, 118333, Control_c, 0, 64, 127
1, 118350, Note_on_c, 0, 64, 0
1, 118350, Note_on_c, 0, 58, 0
1, 118621, Control_c, 0, 64, 0
1, 119187, Note_on_c, 0, 92, 101
1, 119190, Note_on_c, 0, 80, 103
1, 119197, Note_on_c, 0, 83, 113
1, 119197, Note_on_c, 0, 52, 105
1, 119197, Note_on_c, 0, 86, 91
1, 119200, Note_on_c, 0, 40, 103
1, 119200, Note_on_c, 0, 44, 88
1, 119200, Note_on_c, 0, 47, 89
1, 119256, Control_c, 0, 64, 127
1, 119275, Note_on_c, 0, 40, 0
1, 119286, Note_on_c, 0, 52, 0
1, 119297, Note_on_c, 0, 47, 0
1, 119297, Note_on_c, 0, 44, 0
1, 119312, Note_on_c, 0, 92, 0
1, 119317, Note_on_c, 0, 80, 0
1, 119345, Note_on_c, 0, 83, 0
1, 119365, Note_on_c, 0, 86, 0
1, 119495, Control_c, 0, 64, 0
1, 119615, Note_on_c, 0, 81, 114
1, 119615, Note_on_c, 0, 93, 98
1, 119615, Note_on_c, 0, 85, 93
1, 119621, Note_on_c, 0, 45, 105
1, 119621, Note_on_c, 0, 88, 81
1, 119621, Note_on_c, 0, 33, 97
1, 119626, Note_on_c, 0, 37, 95
1, 119629, Note_on_c, 0, 40, 98
1, 119640, Note_on_c, 0, 93, 0
1, 119646, Note_on_c, 0, 88, 0
1, 119646, Note_on_c, 0, 33, 0
1, 119650, Note_on_c, 0, 37, 0
1, 119650, Note_on_c, 0, 40, 0
1, 119663, Note_on_c, 0, 85, 0
1, 119677, Note_on_c, 0, 81, 0
1, 119683, Note_on_c, 0, 45, 0
1, 119699, Control_c, 0, 64, 127
1, 119800, Note_on_c, 0, 64, 85
1, 119800, Note_on_c, 0, 61, 83
1, 119825, Note_on_c, 0, 70, 13
1, 119857, Note_on_c, 0, 61, 0
1, 119860, Note_on_c, 0, 64, 0
1, 119885, Note_on_c, 0, 70, 0
1, 119914, Note_on_c, 0, 69, 83
1, 119924, Note_on_c, 0, 61, 61
1, 119936, Note_on_c, 0, 52, 65
1, 119975, Note_on_c, 0, 52, 0
1, 119992, Note_on_c, 0, 61, 0
1, 120000, Note_on_c, 0, 69, 0
1, 120061, Note_on_c, 0, 76, 111
1, 120061, Note_on_c, 0, 69, 63
1, 120067, Note_on_c, 0, 61, 83
1, 120067, Note_on_c, 0, 64, 109
1, 120078, Note_on_c, 0, 52, 78
1, 120088, Note_on_c, 0, 57, 58
1, 120095, Note_on_c, 0, 64, 0
1, 120114, Note_on_c, 0, 52, 0
1, 120128, Note_on_c, 0, 69, 0
1, 120128, Note_on_c, 0, 57, 0
1, 120153, Note_on_c, 0, 61, 0
1, 120200, Note_on_c, 0, 61, 70
1, 120214, Note_on_c, 0, 52, 32
1, 120219, Note_on_c, 0, 57, 19
1, 120256, Note_on_c, 0, 76, 0
1, 120262, Note_on_c, 0, 61, 0
1, 120262, Note_on_c, 0, 52, 0
1, 120272, Note_on_c, 0, 57, 0
1, 120323, Note_on_c, 0, 61, 66
1, 120323, Note_on_c, 0, 57, 57
1, 120323, Note_on_c, 0, 52, 72
1, 120331, Note_on_c, 0, 73, 84
1, 120339, Note_on_c, 0, 64, 71
1, 120357, Note_on_c, 0, 52, 0
1, 120368, Note_on_c, 0, 57, 0
1, 120371, Note_on_c, 0, 64, 0
1, 120381, Note_on_c, 0, 61, 0
1, 120385, Note_on_c, 0, 73, 0
1, 120487, Note_on_c, 0, 71, 97
1, 120487, Note_on_c, 0, 61, 83
1, 120487, Control_c, 0, 64, 0
1, 120492, Note_on_c, 0, 64, 81
1, 120498, Note_on_c, 0, 59, 76
1, 120526, Note_on_c, 0, 64, 0
1, 120529, Note_on_c, 0, 59, 0
1, 120537, Note_on_c, 0, 73, 74
1, 120543, Note_on_c, 0, 61, 0
1, 120549, Note_on_c, 0, 71, 0
1, 120595, Note_on_c, 0, 64, 49
1, 120595, Note_on_c, 0, 61, 64
1, 120595, Note_on_c, 0, 59, 54
1, 120598, Note_on_c, 0, 71, 87
1, 120641, Note_on_c, 0, 73, 0
1, 120646, Note_on_c, 0, 64, 0
1, 120676, Note_on_c, 0, 61, 0
1, 120676, Note_on_c, 0, 71, 0
1, 120688, Note_on_c, 0, 59, 0
1, 120722, Note_on_c, 0, 61, 71
1, 120727, Note_on_c, 0, 64, 67
1, 120727, Note_on_c, 0, 69, 72
1, 120733, Note_on_c, 0, 57, 67
1, 120761, Note_on_c, 0, 61, 0
1, 120761, Note_on_c, 0, 64, 0
1, 120761, Note_on_c, 0, 69, 0
1, 120768, Note_on_c, 0, 57, 0
1, 120861, Note_on_c, 0, 68, 83
1, 120868, Note_on_c, 0, 61, 79
1, 120868, Note_on_c, 0, 56, 78
1, 120875, Note_on_c, 0, 57, 51
1, 120899, Note_on_c, 0, 56, 0
1, 120911, Note_on_c, 0, 57, 0
1, 120911, Note_on_c, 0, 61, 0
1, 120924, Note_on_c, 0, 69, 69
1, 120930, Note_on_c, 0, 68, 0
1, 120969, Note_on_c, 0, 57, 53
1, 120974, Note_on_c, 0, 61, 66
1, 120977, Note_on_c, 0, 68, 80
1, 120980, Note_on_c, 0, 56, 54
1, 121009, Note_on_c, 0, 69, 0
1, 121020, Note_on_c, 0, 56, 0
1, 121030, Note_on_c, 0, 57, 0
1, 121038, Note_on_c, 0, 61, 0
1, 121059, Note_on_c, 0, 68, 0
1, 121108, Note_on_c, 0, 57, 49
1, 121108, Note_on_c, 0, 54, 79
1, 121114, Note_on_c, 0, 66, 69
1, 121117, Note_on_c, 0, 61, 46
1, 121142, Note_on_c, 0, 54, 0
1, 121148, Note_on_c, 0, 57, 0
1, 121162, Note_on_c, 0, 66, 0
1, 121162, Note_on_c, 0, 61, 0
1, 121234, Note_on_c, 0, 61, 70
1, 121234, Note_on_c, 0, 65, 91
1, 121237, Note_on_c, 0, 53, 110
1, 121237, Note_on_c, 0, 57, 73
1, 121295, Note_on_c, 0, 57, 0
1, 121304, Note_on_c, 0, 61, 0
1, 121311, Note_on_c, 0, 53, 0
1, 121321, Note_on_c, 0, 65, 0
1, 121351, Note_on_c, 0, 57, 60
1, 121360, Note_on_c, 0, 61, 58
1, 121360, Note_on_c, 0, 68, 76
1, 121364, Note_on_c, 0, 56, 75
1, 121412, Note_on_c, 0, 56, 0
1, 121415, Note_on_c, 0, 57, 0
1, 121423, Note_on_c, 0, 61, 0
1, 121451, Note_on_c, 0, 68, 0
1, 121495, Note_on_c, 0, 66, 75
1, 121502, Note_on_c, 0, 61, 55
1, 121502, Note_on_c, 0, 57, 52
1, 121505, Note_on_c, 0, 54, 80
1, 121538, Note_on_c, 0, 54, 0
1, 121546, Note_on_c, 0, 57, 0
1, 121552, Note_on_c, 0, 61, 0
1, 121557, Note_on_c, 0, 66, 0
1, 121632, Note_on_c, 0, 63, 92
1, 121632, Note_on_c, 0, 61, 64
1, 121632, Note_on_c, 0, 57, 55
1, 121640, Note_on_c, 0, 51, 84
1, 121694, Note_on_c, 0, 61, 0
1, 121701, Note_on_c, 0, 57, 0
1, 121722, Note_on_c, 0, 63, 0
1, 121747, Note_on_c, 0, 51, 0
1, 121758, Note_on_c, 0, 61, 54
1, 121761, Note_on_c, 0, 57, 55
1, 121765, Note_on_c, 0, 54, 84
1, 121769, Note_on_c, 0, 66, 58
1, 121807, Note_on_c, 0, 61, 0
1, 121811, Note_on_c, 0, 57, 0
1, 121830, Note_on_c, 0, 66, 0
1, 121830, Note_on_c, 0, 54, 0
1, 121910, Note_on_c, 0, 64, 70
1, 121919, Note_on_c, 0, 61, 50
1, 121919, Note_on_c, 0, 52, 70
1, 121919, Note_on_c, 0, 57, 39
1, 121955, Note_on_c, 0, 52, 0
1, 121967, Note_on_c, 0, 57, 0
1, 121975, Note_on_c, 0, 64, 0
1, 121989, Note_on_c, 0, 61, 0
1, 122011, Control_c, 0, 64, 127
1, 122072, Control_c, 0, 64, 0
1, 122172, Note_on_c, 0, 61, 74
1, 122172, Note_on_c, 0, 49, 64
1, 122178, Note_on_c, 0, 37, 59
1, 122184, Note_on_c, 0, 57, 50
1, 122222, Note_on_c, 0, 49, 0
1, 122222, Note_on_c, 0, 37, 0
1, 122222, Note_on_c, 0, 45, 7
1, 122228, Note_on_c, 0, 57, 0
1, 122262, Note_on_c, 0, 61, 0
1, 122265, Note_on_c, 0, 45, 0
1, 122293, Note_on_c, 0, 57, 56
1, 122293, Note_on_c, 0, 62, 90
1, 122296, Note_on_c, 0, 38, 89
1, 122296, Note_on_c, 0, 50, 87
1, 122309, Note_on_c, 0, 61, 73
1, 122332, Note_on_c, 0, 50, 0
1, 122332, Note_on_c, 0, 38, 0
1, 122348, Note_on_c, 0, 57, 0
1, 122348, Note_on_c, 0, 61, 0
1, 122374, Note_on_c, 0, 62, 0
1, 122417, Note_on_c, 0, 61, 69
1, 122417, Note_on_c, 0, 51, 95
1, 122420, Note_on_c, 0, 63, 95
1, 122420, Note_on_c, 0, 57, 63
1, 122426, Note_on_c, 0, 39, 76
1, 122440, Note_on_c, 0, 45, 42
1, 122463, Note_on_c, 0, 39, 0
1, 122482, Note_on_c, 0, 57, 0
1, 122482, Note_on_c, 0, 45, 0
1, 122495, Note_on_c, 0, 51, 0
1, 122501, Note_on_c, 0, 63, 0
1, 122509, Note_on_c, 0, 61, 0
1, 122546, Note_on_c, 0, 57, 61
1, 122546, Note_on_c, 0, 54, 91
1, 122546, Note_on_c, 0, 66, 80
1, 122551, Note_on_c, 0, 42, 73
1, 122560, Note_on_c, 0, 61, 61
1, 122584, Note_on_c, 0, 54, 0
1, 122601, Note_on_c, 0, 42, 0
1, 122604, Note_on_c, 0, 61, 0
1, 122610, Note_on_c, 0, 57, 0
1, 122626, Note_on_c, 0, 66, 0
1, 122668, Note_on_c, 0, 52, 97
1, 122668, Note_on_c, 0, 45, 55
1, 122680, Note_on_c, 0, 40, 93
1, 122680, Note_on_c, 0, 61, 60
1, 122685, Note_on_c, 0, 57, 63
1, 122685, Note_on_c, 0, 64, 89
1, 122694, Note_on_c, 0, 52, 0
1, 122711, Note_on_c, 0, 40, 0
1, 122711, Note_on_c, 0, 45, 0
1, 122719, Note_on_c, 0, 57, 0
1, 122747, Note_on_c, 0, 61, 0
1, 122771, Note_on_c, 0, 64, 0
1, 122835, Note_on_c, 0, 33, 108
1, 122835, Note_on_c, 0, 45, 89
1, 122858, Note_on_c, 0, 33, 0
1, 122864, Note_on_c, 0, 45, 0
1, 122875, Control_c, 0, 64, 127
1, 123002, Note_on_c, 0, 64, 90
1, 123006, Note_on_c, 0, 61, 81
1, 123045, Note_on_c, 0, 61, 0
1, 123092, Note_on_c, 0, 64, 0
1, 123136, Note_on_c, 0, 69, 79
1, 123140, Note_on_c, 0, 52, 74
1, 123145, Note_on_c, 0, 61, 66
1, 123179, Note_on_c, 0, 52, 0
1, 123190, Note_on_c, 0, 61, 0
1, 123208, Note_on_c, 0, 69, 0
1, 123303, Note_on_c, 0, 76, 105
1, 123307, Note_on_c, 0, 61, 73
1, 123310, Note_on_c, 0, 69, 70
1, 123315, Note_on_c, 0, 52, 72
1, 123326, Note_on_c, 0, 64, 59
1, 123326, Note_on_c, 0, 57, 37
1, 123348, Note_on_c, 0, 69, 0
1, 123353, Note_on_c, 0, 52, 0
1, 123359, Note_on_c, 0, 61, 0
1, 123362, Note_on_c, 0, 64, 0
1, 123375, Note_on_c, 0, 57, 0
1, 123445, Note_on_c, 0, 61, 57
1, 123445, Note_on_c, 0, 57, 25
1, 123470, Note_on_c, 0, 52, 26
1, 123490, Note_on_c, 0, 76, 0
1, 123501, Note_on_c, 0, 61, 0
1, 123509, Note_on_c, 0, 57, 0
1, 123520, Note_on_c, 0, 52, 0
1, 123574, Note_on_c, 0, 73, 75
1, 123574, Note_on_c, 0, 57, 36
1, 123577, Note_on_c, 0, 61, 36
1, 123582, Note_on_c, 0, 64, 52
1, 123585, Note_on_c, 0, 52, 52
1, 123610, Note_on_c, 0, 73, 0
1, 123621, Note_on_c, 0, 57, 0
1, 123621, Note_on_c, 0, 64, 0
1, 123621, Note_on_c, 0, 52, 0
1, 123635, Note_on_c, 0, 61, 0
1, 123719, Note_on_c, 0, 61, 60
1, 123719, Note_on_c, 0, 71, 95
1, 123732, Note_on_c, 0, 59, 59
1, 123732, Note_on_c, 0, 64, 72
1, 123761, Note_on_c, 0, 71, 0
1, 123764, Note_on_c, 0, 59, 0
1, 123764, Note_on_c, 0, 64, 0
1, 123767, Note_on_c, 0, 61, 0
1, 123774, Note_on_c, 0, 73, 73
1, 123810, Control_c, 0, 64, 0
1, 123819, Note_on_c, 0, 71, 81
1, 123824, Note_on_c, 0, 59, 57
1, 123827, Note_on_c, 0, 64, 53
1, 123827, Note_on_c, 0, 61, 57
1, 123878, Note_on_c, 0, 73, 0
1, 123878, Note_on_c, 0, 64, 0
1, 123888, Note_on_c, 0, 61, 0
1, 123910, Note_on_c, 0, 71, 0
1, 123910, Note_on_c, 0, 59, 0
1, 123955, Note_on_c, 0, 61, 62
1, 123958, Note_on_c, 0, 69, 79
1, 123963, Note_on_c, 0, 57, 68
1, 123963, Note_on_c, 0, 64, 64
1, 123995, Note_on_c, 0, 61, 0
1, 123995, Note_on_c, 0, 64, 0
1, 123998, Note_on_c, 0, 69, 0
1, 123998, Note_on_c, 0, 57, 0
1, 124103, Note_on_c, 0, 68, 78
1, 124103, Note_on_c, 0, 61, 81
1, 124106, Note_on_c, 0, 56, 73
1, 124114, Note_on_c, 0, 57, 61
1, 124140, Note_on_c, 0, 56, 0
1, 124148, Note_on_c, 0, 68, 0
1, 124148, Note_on_c, 0, 57, 0
1, 124151, Note_on_c, 0, 61, 0
1, 124162, Note_on_c, 0, 69, 53
1, 124200, Note_on_c, 0, 61, 76
1, 124214, Note_on_c, 0, 68, 69
1, 124217, Note_on_c, 0, 57, 32
1, 124217, Note_on_c, 0, 56, 52
1, 124245, Note_on_c, 0, 69, 0
1, 124265, Note_on_c, 0, 57, 0
1, 124265, Note_on_c, 0, 56, 0
1, 124284, Note_on_c, 0, 61, 0
1, 124314, Note_on_c, 0, 68, 0
1, 124356, Note_on_c, 0, 54, 75
1, 124359, Note_on_c, 0, 66, 56
1, 124359, Note_on_c, 0, 61, 36
1, 124368, Note_on_c, 0, 57, 31
1, 124388, Note_on_c, 0, 54, 0
1, 124404, Note_on_c, 0, 66, 0
1, 124409, Note_on_c, 0, 61, 0
1, 124418, Note_on_c, 0, 57, 0
1, 124484, Note_on_c, 0, 65, 84
1, 124484, Note_on_c, 0, 57, 57
1, 124487, Note_on_c, 0, 61, 61
1, 124490, Note_on_c, 0, 53, 102
1, 124534, Note_on_c, 0, 53, 0
1, 124546, Note_on_c, 0, 57, 0
1, 124546, Note_on_c, 0, 61, 0
1, 124577, Note_on_c, 0, 65, 0
1, 124612, Note_on_c, 0, 68, 74
1, 124612, Note_on_c, 0, 57, 56
1, 124612, Note_on_c, 0, 61, 52
1, 124626, Note_on_c, 0, 56, 61
1, 124661, Note_on_c, 0, 56, 0
1, 124666, Note_on_c, 0, 61, 0
1, 124666, Note_on_c, 0, 57, 0
1, 124690, Note_on_c, 0, 68, 0
1, 124746, Note_on_c, 0, 57, 44
1, 124752, Note_on_c, 0, 66, 66
1, 124752, Note_on_c, 0, 54, 77
1, 124764, Note_on_c, 0, 61, 41
1, 124786, Note_on_c, 0, 54, 0
1, 124789, Note_on_c, 0, 57, 0
1, 124800, Note_on_c, 0, 66, 0
1, 124810, Note_on_c, 0, 61, 0
1, 124885, Note_on_c, 0, 63, 86
1, 124891, Note_on_c, 0, 57, 67
1, 124894, Note_on_c, 0, 61, 45
1, 124894, Note_on_c, 0, 51, 76
1, 124930, Note_on_c, 0, 57, 0
1, 124941, Note_on_c, 0, 61, 0
1, 124944, Note_on_c, 0, 51, 0
1, 124969, Note_on_c, 0, 63, 0
1, 125020, Note_on_c, 0, 54, 72
1, 125028, Note_on_c, 0, 66, 55
1, 125033, Note_on_c, 0, 61, 35
1, 125033, Note_on_c, 0, 57, 33
1, 125062, Note_on_c, 0, 54, 0
1, 125076, Note_on_c, 0, 66, 0
1, 125076, Note_on_c, 0, 57, 0
1, 125081, Note_on_c, 0, 61, 0
1, 125181, Note_on_c, 0, 64, 50
1, 125181, Note_on_c, 0, 52, 60
1, 125184, Note_on_c, 0, 57, 9
1, 125184, Note_on_c, 0, 61, 38
1, 125220, Note_on_c, 0, 52, 0
1, 125239, Note_on_c, 0, 57, 0
1, 125246, Note_on_c, 0, 64, 0
1, 125292, Note_on_c, 0, 61, 0
1, 125320, Control_c, 0, 64, 127
1, 125392, Control_c, 0, 64, 0
1, 125440, Note_on_c, 0, 49, 66
1, 125440, Note_on_c, 0, 61, 78
1, 125452, Note_on_c, 0, 57, 59
1, 125452, Note_on_c, 0, 37, 54
1, 125470, Note_on_c, 0, 45, 35
1, 125490, Note_on_c, 0, 49, 0
1, 125495, Note_on_c, 0, 57, 0
1, 125495, Note_on_c, 0, 37, 0
1, 125523, Note_on_c, 0, 45, 0
1, 125533, Note_on_c, 0, 61, 0
1, 125562, Note_on_c, 0, 57, 55
1, 125566, Note_on_c, 0, 61, 69
1, 125566, Note_on_c, 0, 50, 81
1, 125566, Note_on_c, 0, 38, 82
1, 125571, Note_on_c, 0, 62, 85
1, 125576, Note_on_c, 0, 45, 56
1, 125612, Note_on_c, 0, 50, 0
1, 125612, Note_on_c, 0, 38, 0
1, 125626, Note_on_c, 0, 45, 0
1, 125626, Note_on_c, 0, 57, 0
1, 125638, Note_on_c, 0, 61, 0
1, 125668, Note_on_c, 0, 62, 0
1, 125689, Note_on_c, 0, 51, 90
1, 125693, Note_on_c, 0, 61, 76
1, 125697, Note_on_c, 0, 39, 79
1, 125697, Note_on_c, 0, 57, 60
1, 125697, Note_on_c, 0, 63, 94
1, 125705, Note_on_c, 0, 45, 31
1, 125753, Note_on_c, 0, 39, 0
1, 125757, Note_on_c, 0, 45, 0
1, 125763, Note_on_c, 0, 51, 0
1, 125771, Note_on_c, 0, 57, 0
1, 125778, Note_on_c, 0, 63, 0
1, 125786, Note_on_c, 0, 61, 0
1, 125824, Note_on_c, 0, 54, 84
1, 125830, Note_on_c, 0, 57, 53
1, 125830, Note_on_c, 0, 42, 62
1, 125834, Note_on_c, 0, 66, 72
1, 125834, Control_c, 0, 64, 127
1, 125838, Note_on_c, 0, 61, 62
1, 125867, Note_on_c, 0, 54, 0
1, 125870, Control_c, 0, 64, 0
1, 125891, Note_on_c, 0, 42, 0
1, 125891, Note_on_c, 0, 61, 0
1, 125897, Note_on_c, 0, 57, 0
1, 125917, Note_on_c, 0, 66, 0
1, 125972, Note_on_c, 0, 52, 81
1, 125972, Note_on_c, 0, 45, 55
1, 125981, Note_on_c, 0, 40, 80
1, 125981, Note_on_c, 0, 64, 83
1, 125984, Note_on_c, 0, 57, 50
1, 125984, Note_on_c, 0, 61, 44
1, 126001, Note_on_c, 0, 52, 0
1, 126017, Note_on_c, 0, 45, 0
1, 126025, Note_on_c, 0, 40, 0
1, 126036, Note_on_c, 0, 57, 0
1, 126072, Note_on_c, 0, 61, 0
1, 126098, Note_on_c, 0, 64, 0
1, 126165, Note_on_c, 0, 33, 83
1, 126165, Note_on_c, 0, 45, 65
1, 126182, Control_c, 0, 64, 127
1, 126197, Note_on_c, 0, 33, 0
1, 126203, Note_on_c, 0, 45, 0
1, 126368, Note_on_c, 0, 64, 89
1, 126373, Note_on_c, 0, 61, 70
1, 126423, Note_on_c, 0, 61, 0
1, 126521, Note_on_c, 0, 69, 80
1, 126535, Note_on_c, 0, 64, 0
1, 126540, Note_on_c, 0, 61, 44
1, 126548, Note_on_c, 0, 52, 39
1, 126554, Note_on_c, 0, 57, 29
1, 126590, Note_on_c, 0, 61, 0
1, 126594, Note_on_c, 0, 52, 0
1, 126599, Note_on_c, 0, 69, 0
1, 126607, Note_on_c, 0, 57, 0
1, 126702, Note_on_c, 0, 76, 83
1, 126722, Note_on_c, 0, 61, 38
1, 126750, Note_on_c, 0, 52, 25
1, 126755, Note_on_c, 0, 57, 2
1, 126789, Note_on_c, 0, 61, 0
1, 126794, Control_c, 0, 64, 0
1, 126805, Note_on_c, 0, 52, 0
1, 126805, Note_on_c, 0, 57, 0
1, 126866, Control_c, 0, 64, 127
1, 126903, Note_on_c, 0, 61, 42
1, 126903, Note_on_c, 0, 52, 26
1, 126906, Note_on_c, 0, 57, 33
1, 126961, Note_on_c, 0, 52, 0
1, 126967, Note_on_c, 0, 61, 0
1, 126976, Note_on_c, 0, 57, 0
1, 127067, Note_on_c, 0, 61, 31
1, 127076, Note_on_c, 0, 52, 28
1, 127076, Note_on_c, 0, 73, 73
1, 127090, Note_on_c, 0, 57, 4
1, 127131, Note_on_c, 0, 52, 0
1, 127147, Note_on_c, 0, 61, 0
1, 127150, Note_on_c, 0, 57, 0
1, 127167, Note_on_c, 0, 73, 0
1, 127285, Note_on_c, 0, 73, 56
1, 127285, Note_on_c, 0, 54, 37
1, 127290, Note_on_c, 0, 57, 17
1, 127298, Note_on_c, 0, 64, 13
1, 127309, Control_c, 0, 64, 0
1, 127359, Note_on_c, 0, 54, 0
1, 127359, Note_on_c, 0, 64, 0
1, 127363, Note_on_c, 0, 76, 0
1, 127370, Note_on_c, 0, 57, 0
1, 127429, Control_c, 0, 64, 127
1, 127494, Note_on_c, 0, 64, 31
1, 127497, Note_on_c, 0, 54, 33
1, 127513, Note_on_c, 0, 57, 18
1, 127558, Note_on_c, 0, 64, 0
1, 127571, Note_on_c, 0, 54, 0
1, 127571, Note_on_c, 0, 57, 0
1, 127699, Note_on_c, 0, 64, 28
1, 127721, Note_on_c, 0, 54, 25
1, 127721, Note_on_c, 0, 57, 20
1, 127769, Note_on_c, 0, 64, 0
1, 127774, Note_on_c, 0, 54, 0
1, 127778, Note_on_c, 0, 57, 0
1, 127919, Note_on_c, 0, 63, 41
1, 127919, Note_on_c, 0, 72, 48
1, 127936, Note_on_c, 0, 57, 20
1, 127944, Note_on_c, 0, 54, 19
1, 127944, Control_c, 0, 64, 0
1, 127955, Note_on_c, 0, 73, 0
1, 127987, Note_on_c, 0, 63, 0
1, 127998, Note_on_c, 0, 57, 0
1, 128006, Note_on_c, 0, 54, 0
1, 128064, Control_c, 0, 64, 127
1, 128072, Note_on_c, 0, 57, 30
1, 128078, Note_on_c, 0, 63, 48
1, 128078, Note_on_c, 0, 54, 50
1, 128128, Note_on_c, 0, 63, 0
1, 128128, Note_on_c, 0, 54, 0
1, 128139, Note_on_c, 0, 57, 0
1, 128232, Note_on_c, 0, 63, 48
1, 128239, Note_on_c, 0, 57, 13
1, 128239, Note_on_c, 0, 54, 46
1, 128281, Note_on_c, 0, 54, 0
1, 128281, Note_on_c, 0, 63, 0
1, 128281, Note_on_c, 0, 72, 0
1, 128287, Note_on_c, 0, 57, 0
1, 128412, Control_c, 0, 64, 0
1, 128432, Note_on_c, 0, 33, 74
1, 128435, Note_on_c, 0, 45, 55
1, 128491, Note_on_c, 0, 33, 0
1, 128508, Control_c, 0, 64, 127
1, 128519, Note_on_c, 0, 45, 0
1, 128632, Note_on_c, 0, 61, 86
1, 128753, Note_on_c, 0, 61, 0
1, 128791, Note_on_c, 0, 64, 97
1, 128791, Note_on_c, 0, 57, 33
1, 128799, Note_on_c, 0, 52, 54
1, 128839, Note_on_c, 0, 57, 0
1, 128839, Note_on_c, 0, 52, 0
1, 128859, Note_on_c, 0, 64, 0
1, 128936, Note_on_c, 0, 61, 34
1, 128941, Note_on_c, 0, 57, 9
1, 128947, Note_on_c, 0, 52, 23
1, 128975, Note_on_c, 0, 73, 77
1, 129014, Note_on_c, 0, 61, 0
1, 129028, Note_on_c, 0, 52, 0
1, 129040, Note_on_c, 0, 57, 0
1, 129082, Control_c, 0, 64, 0
1, 129150, Note_on_c, 0, 61, 47
1, 129165, Note_on_c, 0, 57, 37
1, 129165, Control_c, 0, 64, 127
1, 129171, Note_on_c, 0, 52, 24
1, 129223, Note_on_c, 0, 57, 0
1, 129223, Note_on_c, 0, 61, 0
1, 129223, Note_on_c, 0, 64, 2
1, 129231, Note_on_c, 0, 52, 0
1, 129293, Note_on_c, 0, 64, 0
1, 129331, Note_on_c, 0, 61, 36
1, 129331, Note_on_c, 0, 52, 38
1, 129340, Note_on_c, 0, 57, 6
1, 129358, Note_on_c, 0, 69, 67
1, 129358, Note_on_c, 0, 73, 0
1, 129387, Note_on_c, 0, 52, 0
1, 129401, Note_on_c, 0, 57, 0
1, 129404, Note_on_c, 0, 69, 0
1, 129419, Note_on_c, 0, 61, 0
1, 129468, Note_on_c, 0, 69, 58
1, 129549, Note_on_c, 0, 60, 35
1, 129554, Note_on_c, 0, 54, 35
1, 129554, Note_on_c, 0, 57, 14
1, 129554, Note_on_c, 0, 68, 73
1, 129565, Note_on_c, 0, 64, 67
1, 129572, Note_on_c, 0, 69, 0
1, 129635, Control_c, 0, 64, 0
1, 129639, Note_on_c, 0, 60, 0
1, 129639, Note_on_c, 0, 57, 0
1, 129644, Note_on_c, 0, 54, 0
1, 129749, Note_on_c, 0, 54, 42
1, 129749, Note_on_c, 0, 60, 42
1, 129755, Control_c, 0, 64, 127
1, 129767, Note_on_c, 0, 57, 29
1, 129817, Note_on_c, 0, 54, 0
1, 129817, Note_on_c, 0, 57, 0
1, 129820, Note_on_c, 0, 60, 0
1, 129909, Note_on_c, 0, 60, 36
1, 129914, Note_on_c, 0, 54, 36
1, 129914, Note_on_c, 0, 57, 20
1, 129967, Note_on_c, 0, 54, 0
1, 129967, Note_on_c, 0, 57, 0
1, 129979, Note_on_c, 0, 60, 0
1, 130047, Note_on_c, 0, 54, 32
1, 130047, Note_on_c, 0, 60, 45
1, 130050, Note_on_c, 0, 57, 23
1, 130058, Note_on_c, 0, 66, 56
1, 130062, Note_on_c, 0, 63, 64
1, 130072, Note_on_c, 0, 64, 0
1, 130087, Note_on_c, 0, 68, 0
1, 130101, Control_c, 0, 64, 0
1, 130109, Note_on_c, 0, 57, 0
1, 130112, Note_on_c, 0, 54, 0
1, 130120, Note_on_c, 0, 60, 0
1, 130185, Control_c, 0, 64, 127
1, 130189, Note_on_c, 0, 54, 45
1, 130189, Note_on_c, 0, 60, 38
1, 130199, Note_on_c, 0, 57, 31
1, 130254, Note_on_c, 0, 57, 0
1, 130267, Note_on_c, 0, 60, 0
1, 130276, Note_on_c, 0, 54, 0
1, 130313, Note_on_c, 0, 63, 0
1, 130355, Note_on_c, 0, 66, 0
1, 130369, Note_on_c, 0, 54, 42
1, 130410, Note_on_c, 0, 54, 0
1, 130580, Control_c, 0, 64, 0
1, 130588, Note_on_c, 0, 45, 34
1, 130588, Note_on_c, 0, 33, 54
1, 130685, Note_on_c, 0, 33, 0
1, 130700, Note_on_c, 0, 45, 0
1, 130725, Control_c, 0, 64, 127
1, 130766, Note_on_c, 0, 61, 45
1, 130769, Note_on_c, 0, 57, 31
1, 130769, Note_on_c, 0, 52, 36
1, 130817, Note_on_c, 0, 52, 0
1, 130855, Note_on_c, 0, 57, 0
1, 130887, Note_on_c, 0, 61, 0
1, 130934, Note_on_c, 0, 57, 25
1, 130940, Note_on_c, 0, 61, 46
1, 130940, Note_on_c, 0, 52, 22
1, 130986, Note_on_c, 0, 61, 0
1, 130995, Note_on_c, 0, 52, 0
1, 130998, Note_on_c, 0, 57, 0
1, 131095, Note_on_c, 0, 64, 88
1, 131104, Note_on_c, 0, 61, 45
1, 131104, Note_on_c, 0, 52, 39
1, 131154, Note_on_c, 0, 52, 0
1, 131154, Note_on_c, 0, 61, 0
1, 131259, Note_on_c, 0, 61, 45
1, 131265, Note_on_c, 0, 52, 47
1, 131270, Note_on_c, 0, 57, 20
1, 131285, Note_on_c, 0, 64, 0
1, 131312, Note_on_c, 0, 52, 0
1, 131312, Note_on_c, 0, 61, 0
1, 131323, Note_on_c, 0, 57, 0
1, 131405, Note_on_c, 0, 61, 79
1, 131438, Note_on_c, 0, 57, 7
1, 131443, Note_on_c, 0, 52, 10
1, 131455, Note_on_c, 0, 61, 0
1, 131486, Note_on_c, 0, 52, 0
1, 131491, Note_on_c, 0, 57, 0
1, 131508, Note_on_c, 0, 61, 66
1, 131527, Control_c, 0, 64, 0
1, 131563, Note_on_c, 0, 57, 27
1, 131575, Note_on_c, 0, 64, 78
1, 131582, Note_on_c, 0, 54, 47
1, 131582, Note_on_c, 0, 60, 46
1, 131600, Note_on_c, 0, 61, 0
1, 131635, Note_on_c, 0, 54, 0
1, 131641, Note_on_c, 0, 57, 0
1, 131641, Note_on_c, 0, 60, 0
1, 131697, Control_c, 0, 64, 127
1, 131730, Note_on_c, 0, 60, 43
1, 131733, Note_on_c, 0, 57, 17
1, 131739, Note_on_c, 0, 54, 34
1, 131794, Note_on_c, 0, 57, 0
1, 131794, Note_on_c, 0, 54, 0
1, 131802, Note_on_c, 0, 60, 0
1, 131886, Note_on_c, 0, 60, 35
1, 131908, Note_on_c, 0, 57, 16
1, 131912, Note_on_c, 0, 54, 24
1, 131959, Note_on_c, 0, 60, 0
1, 131965, Note_on_c, 0, 57, 0
1, 131970, Note_on_c, 0, 54, 0
1, 132048, Note_on_c, 0, 54, 33
1, 132048, Note_on_c, 0, 60, 33
1, 132054, Note_on_c, 0, 57, 17
1, 132084, Note_on_c, 0, 63, 57
1, 132114, Note_on_c, 0, 64, 0
1, 132114, Control_c, 0, 64, 0
1, 132129, Note_on_c, 0, 57, 0
1, 132139, Note_on_c, 0, 60, 0
1, 132159, Note_on_c, 0, 54, 0
1, 132212, Note_on_c, 0, 57, 44
1, 132215, Note_on_c, 0, 54, 33
1, 132215, Note_on_c, 0, 60, 48
1, 132223, Control_c, 0, 64, 127
1, 132274, Note_on_c, 0, 57, 0
1, 132284, Note_on_c, 0, 60, 0
1, 132316, Note_on_c, 0, 54, 0
1, 132383, Note_on_c, 0, 54, 49
1, 132396, Note_on_c, 0, 60, 19
1, 132436, Note_on_c, 0, 54, 0
1, 132446, Note_on_c, 0, 60, 0
1, 132552, Note_on_c, 0, 63, 0
1, 132619, Control_c, 0, 64, 0
1, 132633, Note_on_c, 0, 45, 38
1, 132644, Note_on_c, 0, 33, 39
1, 132741, Note_on_c, 0, 33, 0
1, 132745, Note_on_c, 0, 45, 0
1, 132763, Control_c, 0, 64, 127
1, 132822, Note_on_c, 0, 61, 40
1, 132822, Note_on_c, 0, 52, 39
1, 132844, Note_on_c, 0, 57, 22
1, 132866, Note_on_c, 0, 52, 0
1, 132912, Note_on_c, 0, 57, 0
1, 132950, Note_on_c, 0, 61, 0
1, 133007, Note_on_c, 0, 61, 53
1, 133026, Note_on_c, 0, 57, 9
1, 133032, Note_on_c, 0, 52, 25
1, 133051, Note_on_c, 0, 61, 0
1, 133084, Note_on_c, 0, 52, 0
1, 133084, Note_on_c, 0, 57, 0
1, 133156, Note_on_c, 0, 64, 83
1, 133156, Note_on_c, 0, 52, 49
1, 133156, Note_on_c, 0, 57, 23
1, 133176, Note_on_c, 0, 61, 33
1, 133204, Note_on_c, 0, 52, 0
1, 133221, Note_on_c, 0, 57, 0
1, 133226, Note_on_c, 0, 61, 0
1, 133307, Note_on_c, 0, 61, 36
1, 133315, Note_on_c, 0, 57, 23
1, 133335, Note_on_c, 0, 52, 32
1, 133352, Note_on_c, 0, 64, 0
1, 133362, Note_on_c, 0, 61, 0
1, 133372, Note_on_c, 0, 57, 0
1, 133383, Note_on_c, 0, 52, 0
1, 133444, Note_on_c, 0, 61, 76
1, 133451, Note_on_c, 0, 52, 55
1, 133480, Note_on_c, 0, 57, 10
1, 133489, Note_on_c, 0, 61, 0
1, 133494, Note_on_c, 0, 52, 0
1, 133536, Note_on_c, 0, 57, 0
1, 133557, Note_on_c, 0, 61, 63
1, 133614, Note_on_c, 0, 57, 22
1, 133636, Note_on_c, 0, 54, 38
1, 133636, Note_on_c, 0, 60, 46
1, 133661, Control_c, 0, 64, 0
1, 133703, Note_on_c, 0, 64, 68
1, 133758, Note_on_c, 0, 57, 0
1, 133762, Note_on_c, 0, 61, 0
1, 133767, Note_on_c, 0, 60, 0
1, 133767, Note_on_c, 0, 54, 0
1, 133840, Note_on_c, 0, 60, 43
1, 133840, Note_on_c, 0, 54, 48
1, 133840, Control_c, 0, 64, 127
1, 133855, Note_on_c, 0, 57, 21
1, 133909, Note_on_c, 0, 57, 0
1, 133920, Note_on_c, 0, 60, 0
1, 133920, Note_on_c, 0, 54, 0
1, 134007, Note_on_c, 0, 60, 37
1, 134010, Note_on_c, 0, 54, 31
1, 134020, Note_on_c, 0, 57, 35
1, 134068, Note_on_c, 0, 57, 0
1, 134068, Note_on_c, 0, 54, 0
1, 134084, Note_on_c, 0, 60, 0
1, 134181, Note_on_c, 0, 60, 28
1, 134188, Control_c, 0, 64, 0
1, 134201, Note_on_c, 0, 54, 28
1, 134209, Note_on_c, 0, 57, 30
1, 134212, Note_on_c, 0, 63, 57
1, 134254, Note_on_c, 0, 54, 0
1, 134257, Note_on_c, 0, 57, 0
1, 134263, Note_on_c, 0, 60, 0
1, 134271, Note_on_c, 0, 64, 0
1, 134338, Note_on_c, 0, 60, 40
1, 134338, Control_c, 0, 64, 127
1, 134344, Note_on_c, 0, 57, 14
1, 134344, Note_on_c, 0, 54, 26
1, 134405, Note_on_c, 0, 57, 0
1, 134405, Note_on_c, 0, 54, 0
1, 134418, Note_on_c, 0, 60, 0
1, 134518, Note_on_c, 0, 60, 25
1, 134538, Note_on_c, 0, 54, 30
1, 134538, Note_on_c, 0, 57, 18
1, 134589, Note_on_c, 0, 60, 0
1, 134589, Note_on_c, 0, 54, 0
1, 134594, Note_on_c, 0, 57, 0
1, 134728, Control_c, 0, 64, 0
1, 134753, Note_on_c, 0, 54, 26
1, 134753, Note_on_c, 0, 57, 18
1, 134766, Note_on_c, 0, 60, 32
1, 134862, Note_on_c, 0, 60, 0
1, 134883, Note_on_c, 0, 54, 0
1, 134893, Note_on_c, 0, 63, 0
1, 134896, Control_c, 0, 64, 127
1, 134923, Note_on_c, 0, 57, 0
1, 135226, Note_on_c, 0, 64, 65
1, 135351, Control_c, 0, 64, 0
1, 135517, Control_c, 0, 64, 127
1, 135634, Note_on_c, 0, 63, 36
1, 135645, Note_on_c, 0, 64, 0
1, 135758, Control_c, 0, 64, 0
1, 135819, Note_on_c, 0, 54, 27
1, 135826, Note_on_c, 0, 60, 27
1, 135839, Note_on_c, 0, 57, 20
1, 135851, Note_on_c, 0, 63, 0
1, 136060, Note_on_c, 0, 57, 0
1, 136068, Note_on_c, 0, 60, 0
1, 136093, Note_on_c, 0, 54, 0
1, 136390, Note_on_c, 0, 64, 47
1, 136549, Control_c, 0, 64, 127
1, 136992, Note_on_c, 0, 64, 0
1, 137031, Note_on_c, 0, 63, 28
1, 137268, Note_on_c, 0, 54, 26
1, 137272, Note_on_c, 0, 60, 16
1, 137287, Note_on_c, 0, 57, 14
1, 137296, Note_on_c, 0, 63, 0
1, 137340, Control_c, 0, 64, 0
1, 137482, Note_on_c, 0, 57, 0
1, 137508, Note_on_c, 0, 60, 0
1, 137514, Note_on_c, 0, 54, 0
1, 137879, Control_c, 0, 64, 127
1, 138091, Note_on_c, 0, 64, 59
1, 139527, Note_on_c, 0, 63, 34
1, 139531, Note_on_c, 0, 64, 0
1, 139761, Control_c, 0, 64, 0
1, 140144, Control_c, 0, 64, 127
1, 140804, Note_on_c, 0, 63, 0
1, 140828, Note_on_c, 0, 64, 18
1, 140984, Control_c, 0, 64, 0
1, 141187, Control_c, 0, 64, 127
1, 141419, Note_on_c, 0, 64, 0
1, 141477, Note_on_c, 0, 63, 19
1, 141642, Control_c, 0, 64, 0
1, 141906, Control_c, 0, 64, 127
1, 142388, Note_on_c, 0, 64, 21
1, 142433, Note_on_c, 0, 63, 0
1, 142888, Control_c, 0, 64, 0
1, 143069, Control_c, 0, 64, 127
1, 143102, Note_on_c, 0, 44, 26
1, 143197, Note_on_c, 0, 64, 0
1, 143252, Note_on_c, 0, 44, 0
1, 143525, Note_on_c, 0, 56, 17
1, 143525, Note_on_c, 0, 60, 22
1, 143539, Note_on_c, 0, 54, 22
1, 143639, Note_on_c, 0, 54, 0
1, 143651, Note_on_c, 0, 56, 0
1, 143656, Note_on_c, 0, 60, 0
1, 143823, Note_on_c, 0, 64, 52
1, 143839, Note_on_c, 0, 54, 26
1, 143854, Note_on_c, 0, 60, 7
1, 143864, Note_on_c, 0, 56, 14
1, 143898, Note_on_c, 0, 54, 0
1, 143924, Note_on_c, 0, 56, 0
1, 143935, Note_on_c, 0, 60, 0
1, 143998, Note_on_c, 0, 56, 25
1, 144007, Note_on_c, 0, 60, 42
1, 144038, Note_on_c, 0, 54, 13
1, 144079, Note_on_c, 0, 60, 0
1, 144091, Note_on_c, 0, 54, 0
1, 144094, Note_on_c, 0, 56, 0
1, 144160, Note_on_c, 0, 54, 50
1, 144160, Note_on_c, 0, 64, 0
1, 144166, Note_on_c, 0, 56, 35
1, 144171, Note_on_c, 0, 60, 29
1, 144210, Note_on_c, 0, 54, 0
1, 144228, Note_on_c, 0, 56, 0
1, 144241, Note_on_c, 0, 60, 0
1, 144327, Note_on_c, 0, 65, 69
1, 144411, Control_c, 0, 64, 0
1, 144473, Note_on_c, 0, 44, 62
1, 144528, Note_on_c, 0, 44, 0
1, 144555, Control_c, 0, 64, 127
1, 144622, Note_on_c, 0, 65, 0
1, 144640, Note_on_c, 0, 60, 48
1, 144640, Note_on_c, 0, 56, 38
1, 144662, Note_on_c, 0, 54, 16
1, 144692, Note_on_c, 0, 60, 0
1, 144692, Note_on_c, 0, 56, 0
1, 144714, Note_on_c, 0, 54, 0
1, 144801, Note_on_c, 0, 70, 50
1, 144828, Note_on_c, 0, 60, 36
1, 144828, Note_on_c, 0, 54, 25
1, 144843, Note_on_c, 0, 56, 13
1, 144887, Note_on_c, 0, 60, 0
1, 144890, Note_on_c, 0, 54, 0
1, 144913, Note_on_c, 0, 56, 0
1, 144951, Control_c, 0, 64, 0
1, 144970, Note_on_c, 0, 60, 28
1, 144970, Note_on_c, 0, 54, 30
1, 144982, Note_on_c, 0, 56, 46
1, 145040, Note_on_c, 0, 54, 0
1, 145058, Note_on_c, 0, 56, 0
1, 145066, Note_on_c, 0, 60, 0
1, 145069, Control_c, 0, 64, 127
1, 145122, Note_on_c, 0, 70, 0
1, 145147, Note_on_c, 0, 60, 36
1, 145179, Note_on_c, 0, 54, 28
1, 145185, Note_on_c, 0, 56, 19
1, 145235, Note_on_c, 0, 54, 0
1, 145238, Note_on_c, 0, 60, 0
1, 145244, Note_on_c, 0, 56, 0
1, 145386, Note_on_c, 0, 60, 27
1, 145399, Note_on_c, 0, 54, 22
1, 145403, Note_on_c, 0, 64, 42
1, 145413, Note_on_c, 0, 56, 8
1, 145441, Note_on_c, 0, 60, 0
1, 145455, Note_on_c, 0, 54, 0
1, 145469, Note_on_c, 0, 56, 0
1, 145622, Control_c, 0, 64, 0
1, 145681, Note_on_c, 0, 37, 35
1, 145774, Note_on_c, 0, 37, 0
1, 145782, Control_c, 0, 64, 127
1, 145896, Note_on_c, 0, 64, 0
1, 145941, Note_on_c, 0, 61, 24
1, 145957, Note_on_c, 0, 53, 43
1, 145963, Note_on_c, 0, 56, 17
1, 146008, Note_on_c, 0, 61, 0
1, 146008, Note_on_c, 0, 53, 0
1, 146026, Note_on_c, 0, 56, 0
1, 146097, Note_on_c, 0, 65, 70
1, 146136, Note_on_c, 0, 61, 34
1, 146186, Note_on_c, 0, 61, 0
1, 146324, Note_on_c, 0, 57, 69
1, 146347, Note_on_c, 0, 65, 0
1, 146448, Control_c, 0, 64, 0
1, 146497, Note_on_c, 0, 53, 50
1, 146508, Note_on_c, 0, 61, 48
1, 146548, Note_on_c, 0, 57, 0
1, 146556, Control_c, 0, 64, 127
1, 146575, Note_on_c, 0, 61, 0
1, 146632, Note_on_c, 0, 53, 0
1, 146643, Note_on_c, 0, 57, 52
1, 146700, Note_on_c, 0, 61, 32
1, 146723, Note_on_c, 0, 53, 18
1, 146748, Note_on_c, 0, 57, 0
1, 146770, Note_on_c, 0, 61, 0
1, 146792, Note_on_c, 0, 53, 0
1, 146868, Note_on_c, 0, 57, 41
1, 147021, Note_on_c, 0, 61, 16
1, 147026, Note_on_c, 0, 53, 18
1, 147095, Note_on_c, 0, 53, 0
1, 147095, Note_on_c, 0, 61, 0
1, 147246, Note_on_c, 0, 61, 27
1, 147262, Note_on_c, 0, 53, 21
1, 147327, Note_on_c, 0, 61, 0
1, 147331, Note_on_c, 0, 53, 0
1, 147338, Note_on_c, 0, 56, 56
1, 147353, Note_on_c, 0, 57, 0
1, 147380, Note_on_c, 0, 56, 0
1, 147441, Note_on_c, 0, 56, 38
1, 147526, Note_on_c, 0, 49, 28
1, 147646, Control_c, 0, 64, 0
1, 147659, Note_on_c, 0, 65, 46
1, 147679, Note_on_c, 0, 56, 0
1, 147838, Control_c, 0, 64, 127
1, 147851, Note_on_c, 0, 61, 29
1, 147860, Note_on_c, 0, 56, 19
1, 147913, Note_on_c, 0, 61, 0
1, 147934, Note_on_c, 0, 56, 0
1, 147966, Note_on_c, 0, 49, 0
1, 148074, Note_on_c, 0, 61, 27
1, 148074, Note_on_c, 0, 56, 26
1, 148139, Note_on_c, 0, 61, 0
1, 148155, Note_on_c, 0, 56, 0
1, 148324, Note_on_c, 0, 65, 0
1, 148330, Note_on_c, 0, 44, 41
1, 148356, Control_c, 0, 64, 0
1, 148486, Control_c, 0, 64, 127
1, 148506, Note_on_c, 0, 44, 0
1, 148626, Note_on_c, 0, 56, 30
1, 148626, Note_on_c, 0, 60, 24
1, 148631, Note_on_c, 0, 54, 27
1, 148681, Note_on_c, 0, 56, 0
1, 148685, Note_on_c, 0, 54, 0
1, 148685, Note_on_c, 0, 60, 0
1, 148831, Note_on_c, 0, 54, 35
1, 148838, Note_on_c, 0, 60, 32
1, 148838, Note_on_c, 0, 56, 13
1, 148857, Note_on_c, 0, 64, 77
1, 148887, Note_on_c, 0, 54, 0
1, 148901, Note_on_c, 0, 60, 0
1, 148905, Note_on_c, 0, 56, 0
1, 149002, Note_on_c, 0, 60, 29
1, 149011, Note_on_c, 0, 56, 37
1, 149024, Note_on_c, 0, 54, 28
1, 149080, Note_on_c, 0, 54, 0
1, 149080, Note_on_c, 0, 60, 0
1, 149112, Note_on_c, 0, 56, 0
1, 149152, Note_on_c, 0, 54, 44
1, 149157, Note_on_c, 0, 60, 46
1, 149161, Note_on_c, 0, 56, 36
1, 149191, Note_on_c, 0, 64, 0
1, 149227, Note_on_c, 0, 60, 0
1, 149227, Note_on_c, 0, 54, 0
1, 149231, Note_on_c, 0, 56, 0
1, 149320, Note_on_c, 0, 65, 79
1, 149339, Note_on_c, 0, 60, 18
1, 149339, Note_on_c, 0, 56, 36
1, 149339, Note_on_c, 0, 54, 32
1, 149386, Note_on_c, 0, 60, 0
1, 149392, Note_on_c, 0, 54, 0
1, 149409, Note_on_c, 0, 56, 0
1, 149433, Control_c, 0, 64, 0
1, 149489, Note_on_c, 0, 44, 61
1, 149553, Control_c, 0, 64, 127
1, 149579, Note_on_c, 0, 44, 0
1, 149654, Note_on_c, 0, 65, 0
1, 149670, Note_on_c, 0, 60, 27
1, 149685, Note_on_c, 0, 56, 21
1, 149689, Note_on_c, 0, 54, 25
1, 149728, Note_on_c, 0, 60, 0
1, 149743, Note_on_c, 0, 56, 0
1, 149743, Note_on_c, 0, 54, 0
1, 149835, Note_on_c, 0, 70, 69
1, 149852, Note_on_c, 0, 60, 28
1, 149852, Note_on_c, 0, 56, 15
1, 149855, Note_on_c, 0, 54, 14
1, 149907, Note_on_c, 0, 54, 0
1, 149907, Note_on_c, 0, 60, 0
1, 149915, Note_on_c, 0, 56, 0
1, 149993, Note_on_c, 0, 56, 24
1, 149996, Note_on_c, 0, 60, 29
1, 149996, Control_c, 0, 64, 0
1, 149996, Note_on_c, 0, 54, 26
1, 150063, Note_on_c, 0, 54, 0
1, 150094, Note_on_c, 0, 60, 0
1, 150094, Note_on_c, 0, 56, 0
1, 150103, Control_c, 0, 64, 127
1, 150161, Note_on_c, 0, 54, 37
1, 150161, Note_on_c, 0, 60, 48
1, 150169, Note_on_c, 0, 56, 40
1, 150188, Note_on_c, 0, 70, 0
1, 150217, Note_on_c, 0, 54, 0
1, 150225, Note_on_c, 0, 56, 0
1, 150233, Note_on_c, 0, 60, 0
1, 150372, Note_on_c, 0, 60, 25
1, 150376, Note_on_c, 0, 54, 25
1, 150383, Note_on_c, 0, 56, 15
1, 150426, Note_on_c, 0, 60, 0
1, 150426, Note_on_c, 0, 64, 50
1, 150442, Note_on_c, 0, 54, 0
1, 150448, Note_on_c, 0, 56, 0
1, 150607, Control_c, 0, 64, 0
1, 150653, Note_on_c, 0, 37, 40
1, 150763, Control_c, 0, 64, 127
1, 150770, Note_on_c, 0, 37, 0
1, 150915, Note_on_c, 0, 64, 0
1, 150924, Note_on_c, 0, 61, 26
1, 150938, Note_on_c, 0, 53, 51
1, 150944, Note_on_c, 0, 56, 23
1, 150994, Note_on_c, 0, 53, 0
1, 150994, Note_on_c, 0, 61, 0
1, 151007, Note_on_c, 0, 56, 0
1, 151108, Note_on_c, 0, 65, 74
1, 151116, Note_on_c, 0, 61, 52
1, 151129, Note_on_c, 0, 56, 24
1, 151129, Note_on_c, 0, 53, 25
1, 151174, Note_on_c, 0, 61, 0
1, 151195, Note_on_c, 0, 56, 0
1, 151195, Note_on_c, 0, 53, 0
1, 151336, Note_on_c, 0, 57, 75
1, 151375, Note_on_c, 0, 65, 0
1, 151458, Control_c, 0, 64, 0
1, 151522, Note_on_c, 0, 61, 42
1, 151525, Note_on_c, 0, 53, 70
1, 151567, Control_c, 0, 64, 127
1, 151593, Note_on_c, 0, 57, 0
1, 151603, Note_on_c, 0, 61, 0
1, 151664, Note_on_c, 0, 53, 0
1, 151682, Note_on_c, 0, 57, 51
1, 151723, Note_on_c, 0, 61, 26
1, 151743, Note_on_c, 0, 53, 23
1, 151799, Note_on_c, 0, 57, 0
1, 151802, Note_on_c, 0, 61, 0
1, 151815, Note_on_c, 0, 53, 0
1, 151879, Note_on_c, 0, 57, 41
1, 152021, Control_c, 0, 64, 0
1, 152027, Note_on_c, 0, 61, 20
1, 152047, Note_on_c, 0, 53, 41
1, 152100, Note_on_c, 0, 53, 0
1, 152105, Control_c, 0, 64, 127
1, 152125, Note_on_c, 0, 61, 0
1, 152261, Note_on_c, 0, 61, 22
1, 152286, Note_on_c, 0, 53, 39
1, 152348, Note_on_c, 0, 61, 0
1, 152351, Note_on_c, 0, 56, 47
1, 152365, Note_on_c, 0, 57, 0
1, 152369, Note_on_c, 0, 53, 0
1, 152398, Note_on_c, 0, 56, 0
1, 152451, Note_on_c, 0, 56, 52
1, 152546, Note_on_c, 0, 49, 38
1, 152553, Control_c, 0, 64, 0
1, 152677, Note_on_c, 0, 65, 44
1, 152695, Note_on_c, 0, 56, 0
1, 152801, Control_c, 0, 64, 127
1, 152824, Note_on_c, 0, 61, 31
1, 152835, Note_on_c, 0, 56, 19
1, 152880, Note_on_c, 0, 61, 0
1, 152893, Note_on_c, 0, 56, 0
1, 153043, Note_on_c, 0, 61, 30
1, 153047, Note_on_c, 0, 56, 7
1, 153061, Note_on_c, 0, 53, 10
1, 153110, Note_on_c, 0, 61, 0
1, 153125, Note_on_c, 0, 53, 0
1, 153163, Note_on_c, 0, 49, 0
1, 153177, Note_on_c, 0, 56, 0
1, 153222, Note_on_c, 0, 65, 0
1, 153292, Control_c, 0, 64, 0
1, 153292, Note_on_c, 0, 47, 52
1, 153418, Note_on_c, 0, 47, 0
1, 153423, Control_c, 0, 64, 127
1, 153517, Note_on_c, 0, 62, 39
1, 153528, Note_on_c, 0, 56, 30
1, 153532, Note_on_c, 0, 53, 52
1, 153581, Note_on_c, 0, 62, 0
1, 153587, Note_on_c, 0, 53, 0
1, 153590, Note_on_c, 0, 56, 0
1, 153693, Note_on_c, 0, 64, 85
1, 153696, Note_on_c, 0, 53, 42
1, 153699, Note_on_c, 0, 62, 40
1, 153699, Note_on_c, 0, 56, 29
1, 153751, Note_on_c, 0, 62, 0
1, 153751, Note_on_c, 0, 53, 0
1, 153759, Note_on_c, 0, 56, 0
1, 153862, Note_on_c, 0, 62, 32
1, 153866, Note_on_c, 0, 53, 33
1, 153869, Note_on_c, 0, 56, 20
1, 153924, Note_on_c, 0, 62, 0
1, 153924, Note_on_c, 0, 53, 0
1, 153927, Note_on_c, 0, 56, 0
1, 154008, Note_on_c, 0, 62, 42
1, 154011, Note_on_c, 0, 56, 23
1, 154016, Note_on_c, 0, 53, 45
1, 154052, Note_on_c, 0, 64, 0
1, 154061, Note_on_c, 0, 62, 0
1, 154072, Note_on_c, 0, 56, 0
1, 154075, Note_on_c, 0, 53, 0
1, 154155, Note_on_c, 0, 65, 85
1, 154183, Note_on_c, 0, 56, 23
1, 154183, Note_on_c, 0, 62, 44
1, 154195, Note_on_c, 0, 53, 24
1, 154227, Note_on_c, 0, 62, 0
1, 154234, Note_on_c, 0, 53, 0
1, 154245, Note_on_c, 0, 56, 0
1, 154286, Control_c, 0, 64, 0
1, 154331, Note_on_c, 0, 46, 69
1, 154418, Control_c, 0, 64, 127
1, 154450, Note_on_c, 0, 46, 0
1, 154529, Note_on_c, 0, 65, 0
1, 154534, Note_on_c, 0, 53, 41
1, 154534, Note_on_c, 0, 62, 38
1, 154540, Note_on_c, 0, 56, 39
1, 154588, Note_on_c, 0, 53, 0
1, 154588, Note_on_c, 0, 56, 0
1, 154591, Note_on_c, 0, 62, 0
1, 154702, Note_on_c, 0, 71, 95
1, 154718, Note_on_c, 0, 53, 41
1, 154723, Note_on_c, 0, 62, 37
1, 154734, Note_on_c, 0, 56, 26
1, 154773, Note_on_c, 0, 53, 0
1, 154773, Note_on_c, 0, 62, 0
1, 154787, Note_on_c, 0, 56, 0
1, 154862, Note_on_c, 0, 56, 27
1, 154862, Note_on_c, 0, 62, 39
1, 154872, Note_on_c, 0, 53, 41
1, 154922, Note_on_c, 0, 53, 0
1, 154922, Note_on_c, 0, 62, 0
1, 154930, Note_on_c, 0, 56, 0
1, 155039, Note_on_c, 0, 62, 39
1, 155056, Note_on_c, 0, 56, 19
1, 155067, Note_on_c, 0, 53, 22
1, 155097, Note_on_c, 0, 62, 0
1, 155116, Note_on_c, 0, 56, 0
1, 155120, Note_on_c, 0, 53, 0
1, 155233, Note_on_c, 0, 71, 0
1, 155236, Note_on_c, 0, 53, 29
1, 155250, Note_on_c, 0, 62, 27
1, 155250, Note_on_c, 0, 56, 12
1, 155298, Note_on_c, 0, 62, 0
1, 155309, Note_on_c, 0, 65, 59
1, 155315, Note_on_c, 0, 53, 0
1, 155315, Note_on_c, 0, 56, 0
1, 155450, Control_c, 0, 64, 0
1, 155489, Note_on_c, 0, 39, 53
1, 155617, Control_c, 0, 64, 127
1, 155617, Note_on_c, 0, 39, 0
1, 155735, Note_on_c, 0, 65, 0
1, 155741, Note_on_c, 0, 54, 52
1, 155746, Note_on_c, 0, 63, 39
1, 155760, Note_on_c, 0, 58, 24
1, 155794, Note_on_c, 0, 63, 0
1, 155804, Note_on_c, 0, 54, 0
1, 155815, Note_on_c, 0, 58, 0
1, 155902, Note_on_c, 0, 66, 72
1, 155921, Note_on_c, 0, 63, 55
1, 155946, Note_on_c, 0, 54, 27
1, 155949, Note_on_c, 0, 58, 22
1, 155957, Note_on_c, 0, 63, 0
1, 156008, Note_on_c, 0, 58, 0
1, 156016, Note_on_c, 0, 54, 0
1, 156097, Note_on_c, 0, 59, 70
1, 156131, Note_on_c, 0, 66, 0
1, 156180, Control_c, 0, 64, 0
1, 156267, Note_on_c, 0, 63, 45
1, 156272, Note_on_c, 0, 57, 37
1, 156280, Note_on_c, 0, 54, 28
1, 156287, Control_c, 0, 64, 127
1, 156336, Note_on_c, 0, 54, 0
1, 156336, Note_on_c, 0, 57, 0
1, 156340, Note_on_c, 0, 63, 0
1, 156347, Note_on_c, 0, 59, 0
1, 156440, Note_on_c, 0, 59, 60
1, 156453, Note_on_c, 0, 63, 35
1, 156467, Note_on_c, 0, 57, 8
1, 156490, Note_on_c, 0, 54, 29
1, 156514, Note_on_c, 0, 63, 0
1, 156537, Note_on_c, 0, 57, 0
1, 156545, Note_on_c, 0, 54, 0
1, 156549, Note_on_c, 0, 59, 0
1, 156626, Note_on_c, 0, 59, 50
1, 156805, Note_on_c, 0, 63, 29
1, 156836, Note_on_c, 0, 57, 4
1, 156843, Note_on_c, 0, 54, 21
1, 156883, Note_on_c, 0, 63, 0
1, 156883, Note_on_c, 0, 57, 0
1, 156905, Note_on_c, 0, 54, 0
1, 157017, Note_on_c, 0, 63, 35
1, 157063, Note_on_c, 0, 54, 20
1, 157063, Note_on_c, 0, 58, 41
1, 157070, Note_on_c, 0, 63, 0
1, 157109, Note_on_c, 0, 58, 0
1, 157120, Note_on_c, 0, 59, 0
1, 157123, Note_on_c, 0, 54, 0
1, 157181, Note_on_c, 0, 58, 48
1, 157239, Note_on_c, 0, 51, 29
1, 157295, Control_c, 0, 64, 0
1, 157382, Note_on_c, 0, 66, 28
1, 157414, Note_on_c, 0, 58, 0
1, 157515, Note_on_c, 0, 63, 40
1, 157521, Note_on_c, 0, 54, 42
1, 157546, Control_c, 0, 64, 127
1, 157553, Note_on_c, 0, 58, 16
1, 157591, Note_on_c, 0, 54, 0
1, 157609, Note_on_c, 0, 63, 0
1, 157623, Note_on_c, 0, 58, 0
1, 157699, Note_on_c, 0, 51, 0
1, 157738, Note_on_c, 0, 63, 44
1, 157744, Note_on_c, 0, 54, 49
1, 157774, Note_on_c, 0, 58, 7
1, 157779, Note_on_c, 0, 63, 0
1, 157785, Note_on_c, 0, 54, 0
1, 157815, Note_on_c, 0, 58, 0
1, 157894, Control_c, 0, 64, 0
1, 157904, Note_on_c, 0, 47, 70
1, 157938, Note_on_c, 0, 66, 0
1, 158016, Note_on_c, 0, 47, 0
1, 158025, Control_c, 0, 64, 127
1, 158097, Note_on_c, 0, 53, 75
1, 158097, Note_on_c, 0, 62, 51
1, 158105, Note_on_c, 0, 56, 42
1, 158141, Note_on_c, 0, 53, 0
1, 158141, Note_on_c, 0, 62, 0
1, 158153, Note_on_c, 0, 56, 0
1, 158242, Note_on_c, 0, 64, 89
1, 158278, Note_on_c, 0, 56, 27
1, 158278, Note_on_c, 0, 62, 37
1, 158282, Note_on_c, 0, 53, 69
1, 158325, Note_on_c, 0, 53, 0
1, 158328, Note_on_c, 0, 62, 0
1, 158334, Note_on_c, 0, 56, 0
1, 158406, Note_on_c, 0, 56, 31
1, 158406, Note_on_c, 0, 62, 35
1, 158423, Note_on_c, 0, 53, 69
1, 158467, Note_on_c, 0, 53, 0
1, 158474, Note_on_c, 0, 62, 0
1, 158485, Note_on_c, 0, 56, 0
1, 158606, Note_on_c, 0, 62, 37
1, 158613, Note_on_c, 0, 53, 69
1, 158624, Note_on_c, 0, 56, 19
1, 158654, Note_on_c, 0, 64, 0
1, 158654, Note_on_c, 0, 62, 0
1, 158657, Note_on_c, 0, 53, 0
1, 158685, Note_on_c, 0, 56, 0
1, 158754, Note_on_c, 0, 65, 79
1, 158761, Note_on_c, 0, 56, 21
1, 158765, Note_on_c, 0, 53, 70
1, 158768, Note_on_c, 0, 62, 38
1, 158807, Note_on_c, 0, 53, 0
1, 158813, Note_on_c, 0, 62, 0
1, 158818, Note_on_c, 0, 56, 0
1, 158864, Control_c, 0, 64, 0
1, 158919, Note_on_c, 0, 46, 64
1, 158964, Note_on_c, 0, 46, 0
1, 159008, Control_c, 0, 64, 127
1, 159083, Note_on_c, 0, 56, 41
1, 159088, Note_on_c, 0, 65, 0
1, 159088, Note_on_c, 0, 62, 34
1, 159092, Note_on_c, 0, 53, 61
1, 159134, Note_on_c, 0, 62, 0
1, 159134, Note_on_c, 0, 56, 0
1, 159137, Note_on_c, 0, 53, 0
1, 159253, Note_on_c, 0, 71, 96
1, 159273, Note_on_c, 0, 56, 32
1, 159279, Note_on_c, 0, 62, 17
1, 159282, Note_on_c, 0, 53, 22
1, 159325, Note_on_c, 0, 56, 0
1, 159334, Note_on_c, 0, 53, 0
1, 159339, Note_on_c, 0, 62, 0
1, 159414, Note_on_c, 0, 62, 42
1, 159423, Note_on_c, 0, 53, 37
1, 159435, Note_on_c, 0, 56, 24
1, 159485, Note_on_c, 0, 53, 0
1, 159490, Note_on_c, 0, 62, 0
1, 159493, Note_on_c, 0, 56, 0
1, 159621, Note_on_c, 0, 62, 35
1, 159621, Note_on_c, 0, 53, 69
1, 159635, Note_on_c, 0, 56, 23
1, 159667, Note_on_c, 0, 53, 0
1, 159674, Note_on_c, 0, 62, 0
1, 159694, Note_on_c, 0, 56, 0
1, 159810, Note_on_c, 0, 62, 32
1, 159814, Note_on_c, 0, 56, 16
1, 159824, Note_on_c, 0, 53, 35
1, 159863, Note_on_c, 0, 62, 0
1, 159871, Note_on_c, 0, 56, 0
1, 159871, Note_on_c, 0, 53, 0
1, 159875, Note_on_c, 0, 65, 52
1, 159908, Note_on_c, 0, 71, 0
1, 160003, Control_c, 0, 64, 0
1, 160042, Note_on_c, 0, 39, 54
1, 160167, Note_on_c, 0, 39, 0
1, 160172, Control_c, 0, 64, 127
1, 160247, Note_on_c, 0, 65, 0
1, 160286, Note_on_c, 0, 63, 53
1, 160293, Note_on_c, 0, 54, 47
1, 160309, Note_on_c, 0, 58, 23
1, 160329, Note_on_c, 0, 63, 0
1, 160368, Note_on_c, 0, 54, 0
1, 160368, Note_on_c, 0, 58, 0
1, 160473, Note_on_c, 0, 66, 69
1, 160488, Note_on_c, 0, 63, 44
1, 160495, Note_on_c, 0, 58, 32
1, 160518, Note_on_c, 0, 54, 28
1, 160527, Note_on_c, 0, 63, 0
1, 160565, Note_on_c, 0, 58, 0
1, 160582, Note_on_c, 0, 54, 0
1, 160687, Note_on_c, 0, 59, 78
1, 160726, Note_on_c, 0, 66, 0
1, 160771, Control_c, 0, 64, 0
1, 160857, Note_on_c, 0, 63, 47
1, 160863, Note_on_c, 0, 57, 36
1, 160869, Note_on_c, 0, 54, 26
1, 160878, Control_c, 0, 64, 127
1, 160921, Note_on_c, 0, 59, 0
1, 160924, Note_on_c, 0, 63, 0
1, 160928, Note_on_c, 0, 57, 0
1, 160931, Note_on_c, 0, 54, 0
1, 161033, Note_on_c, 0, 57, 27
1, 161045, Note_on_c, 0, 59, 62
1, 161048, Note_on_c, 0, 63, 26
1, 161059, Note_on_c, 0, 54, 31
1, 161100, Note_on_c, 0, 59, 0
1, 161108, Note_on_c, 0, 63, 0
1, 161120, Note_on_c, 0, 54, 0
1, 161142, Note_on_c, 0, 57, 0
1, 161284, Note_on_c, 0, 59, 56
1, 161449, Note_on_c, 0, 63, 29
1, 161470, Note_on_c, 0, 57, 13
1, 161477, Note_on_c, 0, 54, 23
1, 161520, Note_on_c, 0, 63, 0
1, 161538, Note_on_c, 0, 54, 0
1, 161538, Note_on_c, 0, 57, 0
1, 161635, Note_on_c, 0, 63, 37
1, 161649, Note_on_c, 0, 57, 10
1, 161662, Note_on_c, 0, 58, 39
1, 161669, Note_on_c, 0, 54, 14
1, 161696, Note_on_c, 0, 63, 0
1, 161705, Note_on_c, 0, 59, 0
1, 161715, Note_on_c, 0, 58, 0
1, 161715, Note_on_c, 0, 57, 0
1, 161752, Note_on_c, 0, 54, 0
1, 161796, Note_on_c, 0, 58, 38
1, 161892, Note_on_c, 0, 51, 32
1, 161897, Control_c, 0, 64, 0
1, 161995, Note_on_c, 0, 66, 33
1, 162017, Note_on_c, 0, 58, 0
1, 162137, Control_c, 0, 64, 127
1, 162176, Note_on_c, 0, 63, 30
1, 162198, Note_on_c, 0, 54, 29
1, 162206, Note_on_c, 0, 58, 10
1, 162228, Note_on_c, 0, 63, 0
1, 162254, Note_on_c, 0, 54, 0
1, 162273, Note_on_c, 0, 58, 0
1, 162381, Note_on_c, 0, 63, 36
1, 162381, Note_on_c, 0, 58, 8
1, 162387, Note_on_c, 0, 54, 43
1, 162398, Note_on_c, 0, 51, 0
1, 162429, Note_on_c, 0, 63, 0
1, 162429, Note_on_c, 0, 54, 0
1, 162446, Note_on_c, 0, 58, 0
1, 162532, Control_c, 0, 64, 0
1, 162541, Note_on_c, 0, 48, 50
1, 162663, Control_c, 0, 64, 127
1, 162668, Note_on_c, 0, 48, 0
1, 162741, Note_on_c, 0, 63, 61
1, 162746, Note_on_c, 0, 66, 0
1, 162775, Note_on_c, 0, 58, 18
1, 162791, Note_on_c, 0, 63, 0
1, 162838, Note_on_c, 0, 58, 0
1, 162917, Note_on_c, 0, 66, 79
1, 162950, Note_on_c, 0, 58, 20
1, 162950, Note_on_c, 0, 63, 43
1, 163000, Note_on_c, 0, 63, 0
1, 163009, Note_on_c, 0, 58, 0
1, 163128, Note_on_c, 0, 63, 43
1, 163144, Note_on_c, 0, 58, 24
1, 163178, Note_on_c, 0, 63, 0
1, 163197, Note_on_c, 0, 73, 79
1, 163217, Note_on_c, 0, 58, 0
1, 163222, Note_on_c, 0, 66, 0
1, 163362, Note_on_c, 0, 73, 0
1, 163390, Note_on_c, 0, 66, 38
1, 163406, Note_on_c, 0, 58, 26
1, 163413, Note_on_c, 0, 63, 35
1, 163459, Note_on_c, 0, 66, 0
1, 163471, Note_on_c, 0, 63, 0
1, 163477, Note_on_c, 0, 58, 0
1, 163624, Note_on_c, 0, 66, 31
1, 163632, Note_on_c, 0, 63, 38
1, 163638, Note_on_c, 0, 58, 14
1, 163674, Note_on_c, 0, 66, 0
1, 163691, Note_on_c, 0, 63, 0
1, 163702, Note_on_c, 0, 73, 64
1, 163716, Note_on_c, 0, 58, 0
1, 163945, Note_on_c, 0, 73, 0
1, 163970, Control_c, 0, 64, 0
1, 163988, Note_on_c, 0, 41, 41
1, 163988, Note_on_c, 0, 73, 76
1, 164070, Note_on_c, 0, 41, 0
1, 164090, Control_c, 0, 64, 127
1, 164315, Note_on_c, 0, 66, 19
1, 164315, Note_on_c, 0, 63, 47
1, 164315, Note_on_c, 0, 57, 9
1, 164359, Note_on_c, 0, 63, 0
1, 164373, Note_on_c, 0, 57, 0
1, 164379, Note_on_c, 0, 66, 0
1, 164526, Note_on_c, 0, 66, 19
1, 164554, Note_on_c, 0, 57, 9
1, 164574, Note_on_c, 0, 63, 13
1, 164591, Note_on_c, 0, 66, 0
1, 164611, Note_on_c, 0, 57, 0
1, 164629, Note_on_c, 0, 63, 0
1, 164766, Note_on_c, 0, 66, 25
1, 164772, Note_on_c, 0, 57, 25
1, 164792, Note_on_c, 0, 63, 25
1, 164855, Note_on_c, 0, 63, 0
1, 164880, Note_on_c, 0, 66, 0
1, 164994, Note_on_c, 0, 57, 0
1, 165170, Note_on_c, 0, 72, 29
1, 165253, Note_on_c, 0, 73, 0
1, 165324, Control_c, 0, 64, 0
1, 165352, Note_on_c, 0, 46, 30
1, 165468, Control_c, 0, 64, 127
1, 165468, Note_on_c, 0, 46, 0
1, 165672, Note_on_c, 0, 56, 26
1, 165679, Note_on_c, 0, 65, 22
1, 165694, Note_on_c, 0, 63, 30
1, 165743, Note_on_c, 0, 72, 0
1, 165747, Note_on_c, 0, 65, 0
1, 165760, Note_on_c, 0, 63, 0
1, 165780, Note_on_c, 0, 56, 0
1, 165987, Note_on_c, 0, 63, 27
1, 165992, Note_on_c, 0, 65, 21
1, 166005, Note_on_c, 0, 56, 14
1, 166025, Note_on_c, 0, 84, 59
1, 166047, Note_on_c, 0, 72, 21
1, 166062, Note_on_c, 0, 65, 0
1, 166075, Note_on_c, 0, 63, 0
1, 166075, Note_on_c, 0, 56, 0
1, 166142, Note_on_c, 0, 72, 0
1, 166256, Note_on_c, 0, 56, 24
1, 166259, Note_on_c, 0, 65, 25
1, 166262, Note_on_c, 0, 84, 0
1, 166262, Note_on_c, 0, 63, 22
1, 166315, Note_on_c, 0, 77, 45
1, 166318, Note_on_c, 0, 56, 0
1, 166318, Note_on_c, 0, 65, 0
1, 166337, Note_on_c, 0, 63, 0
1, 166421, Note_on_c, 0, 77, 0
1, 166477, Note_on_c, 0, 65, 22
1, 166487, Note_on_c, 0, 63, 35
1, 166498, Note_on_c, 0, 56, 11
1, 166535, Note_on_c, 0, 65, 0
1, 166535, Note_on_c, 0, 63, 0
1, 166560, Note_on_c, 0, 56, 0
1, 166647, Note_on_c, 0, 83, 76
1, 166647, Note_on_c, 0, 71, 41
1, 166647, Note_on_c, 0, 56, 14
1, 166671, Note_on_c, 0, 63, 15
1, 166675, Note_on_c, 0, 65, 10
1, 166700, Note_on_c, 0, 71, 0
1, 166716, Note_on_c, 0, 56, 0
1, 166730, Note_on_c, 0, 65, 0
1, 166738, Note_on_c, 0, 63, 0
1, 166753, Note_on_c, 0, 83, 0
1, 166791, Note_on_c, 0, 71, 46
1, 166870, Control_c, 0, 64, 0
1, 166880, Note_on_c, 0, 56, 22
1, 166891, Note_on_c, 0, 65, 21
1, 166898, Note_on_c, 0, 62, 30
1, 166955, Note_on_c, 0, 83, 72
1, 167009, Note_on_c, 0, 65, 0
1, 167009, Note_on_c, 0, 62, 0
1, 167026, Control_c, 0, 64, 127
1, 167029, Note_on_c, 0, 56, 0
1, 167140, Note_on_c, 0, 56, 19
1, 167162, Note_on_c, 0, 65, 19
1, 167184, Note_on_c, 0, 62, 18
1, 167221, Note_on_c, 0, 56, 0
1, 167225, Note_on_c, 0, 65, 0
1, 167240, Note_on_c, 0, 62, 0
1, 167332, Note_on_c, 0, 62, 12
1, 167340, Note_on_c, 0, 65, 21
1, 167346, Note_on_c, 0, 56, 26
1, 167404, Note_on_c, 0, 65, 0
1, 167404, Note_on_c, 0, 56, 0
1, 167404, Note_on_c, 0, 71, 0
1, 167409, Note_on_c, 0, 62, 0
1, 167569, Note_on_c, 0, 65, 18
1, 167583, Note_on_c, 0, 56, 17
1, 167583, Note_on_c, 0, 62, 10
1, 167682, Note_on_c, 0, 65, 0
1, 167777, Note_on_c, 0, 62, 0
1, 167914, Note_on_c, 0, 56, 0
1, 167975, Note_on_c, 0, 82, 31
1, 167975, Note_on_c, 0, 70, 13
1, 168087, Note_on_c, 0, 83, 0
1, 168117, Control_c, 0, 64, 0
1, 168145, Note_on_c, 0, 46, 33
1, 168224, Control_c, 0, 64, 127
1, 168224, Note_on_c, 0, 46, 0
1, 168246, Note_on_c, 0, 82, 0
1, 168331, Note_on_c, 0, 70, 0
1, 168351, Note_on_c, 0, 56, 36
1, 168351, Note_on_c, 0, 61, 39
1, 168411, Note_on_c, 0, 61, 0
1, 168415, Note_on_c, 0, 56, 0
1, 168557, Note_on_c, 0, 64, 87
1, 168577, Note_on_c, 0, 61, 39
1, 168577, Note_on_c, 0, 56, 25
1, 168636, Note_on_c, 0, 61, 0
1, 168639, Note_on_c, 0, 56, 0
1, 168770, Note_on_c, 0, 56, 42
1, 168778, Note_on_c, 0, 61, 34
1, 168839, Note_on_c, 0, 56, 0
1, 168839, Note_on_c, 0, 61, 0
1, 168850, Note_on_c, 0, 71, 97
1, 168850, Note_on_c, 0, 64, 0
1, 168984, Note_on_c, 0, 71, 0
1, 169014, Note_on_c, 0, 56, 38
1, 169031, Note_on_c, 0, 64, 36
1, 169031, Note_on_c, 0, 61, 43
1, 169081, Note_on_c, 0, 56, 0
1, 169084, Note_on_c, 0, 64, 0
1, 169087, Note_on_c, 0, 61, 0
1, 169223, Note_on_c, 0, 64, 43
1, 169234, Note_on_c, 0, 56, 32
1, 169234, Note_on_c, 0, 61, 26
1, 169253, Note_on_c, 0, 71, 91
1, 169262, Note_on_c, 0, 64, 0
1, 169291, Note_on_c, 0, 61, 0
1, 169316, Note_on_c, 0, 56, 0
1, 169421, Note_on_c, 0, 71, 0
1, 169494, Note_on_c, 0, 39, 55
1, 169507, Control_c, 0, 64, 0
1, 169544, Note_on_c, 0, 71, 76
1, 169624, Note_on_c, 0, 39, 0
1, 169635, Control_c, 0, 64, 127
1, 169798, Note_on_c, 0, 64, 36
1, 169808, Note_on_c, 0, 61, 25
1, 169811, Note_on_c, 0, 55, 28
1, 169861, Note_on_c, 0, 64, 0
1, 169865, Note_on_c, 0, 55, 0
1, 169873, Note_on_c, 0, 61, 0
1, 170001, Note_on_c, 0, 64, 40
1, 170008, Note_on_c, 0, 61, 26
1, 170012, Note_on_c, 0, 55, 28
1, 170053, Note_on_c, 0, 64, 0
1, 170070, Note_on_c, 0, 55, 0
1, 170076, Note_on_c, 0, 61, 0
1, 170227, Note_on_c, 0, 55, 28
1, 170235, Note_on_c, 0, 61, 18
1, 170240, Note_on_c, 0, 64, 33
1, 170349, Note_on_c, 0, 64, 0
1, 170433, Note_on_c, 0, 61, 0
1, 170658, Note_on_c, 0, 55, 0
1, 170716, Note_on_c, 0, 70, 32
1, 170831, Note_on_c, 0, 71, 0
1, 170897, Control_c, 0, 64, 0
1, 170917, Note_on_c, 0, 44, 46
1, 171042, Control_c, 0, 64, 127
1, 171078, Note_on_c, 0, 44, 0
1, 171218, Note_on_c, 0, 70, 0
1, 171234, Note_on_c, 0, 63, 38
1, 171246, Note_on_c, 0, 54, 42
1, 171263, Note_on_c, 0, 61, 35
1, 171299, Note_on_c, 0, 63, 0
1, 171318, Note_on_c, 0, 61, 0
1, 171318, Note_on_c, 0, 54, 0
1, 171449, Note_on_c, 0, 82, 64
1, 171466, Note_on_c, 0, 63, 44
1, 171476, Note_on_c, 0, 61, 23
1, 171480, Note_on_c, 0, 70, 13
1, 171511, Note_on_c, 0, 54, 11
1, 171519, Note_on_c, 0, 63, 0
1, 171535, Note_on_c, 0, 61, 0
1, 171543, Note_on_c, 0, 70, 0
1, 171558, Note_on_c, 0, 54, 0
1, 171669, Note_on_c, 0, 54, 24
1, 171669, Note_on_c, 0, 63, 28
1, 171680, Note_on_c, 0, 75, 51
1, 171680, Note_on_c, 0, 82, 0
1, 171685, Note_on_c, 0, 61, 35
1, 171724, Note_on_c, 0, 63, 0
1, 171730, Note_on_c, 0, 54, 0
1, 171734, Note_on_c, 0, 61, 0
1, 171758, Note_on_c, 0, 75, 0
1, 171865, Note_on_c, 0, 54, 42
1, 171872, Note_on_c, 0, 63, 34
1, 171881, Note_on_c, 0, 61, 34
1, 171922, Note_on_c, 0, 54, 0
1, 171922, Note_on_c, 0, 63, 0
1, 171931, Note_on_c, 0, 61, 0
1, 172045, Note_on_c, 0, 69, 39
1, 172050, Note_on_c, 0, 81, 63
1, 172054, Note_on_c, 0, 61, 25
1, 172062, Note_on_c, 0, 54, 32
1, 172073, Note_on_c, 0, 63, 17
1, 172093, Note_on_c, 0, 69, 0
1, 172114, Note_on_c, 0, 61, 0
1, 172114, Note_on_c, 0, 54, 0
1, 172126, Note_on_c, 0, 63, 0
1, 172163, Note_on_c, 0, 81, 0
1, 172195, Note_on_c, 0, 69, 37
1, 172227, Control_c, 0, 64, 0
1, 172235, Note_on_c, 0, 63, 16
1, 172257, Note_on_c, 0, 60, 30
1, 172257, Note_on_c, 0, 54, 40
1, 172296, Note_on_c, 0, 81, 51
1, 172340, Note_on_c, 0, 60, 0
1, 172366, Note_on_c, 0, 54, 0
1, 172371, Control_c, 0, 64, 127
1, 172371, Note_on_c, 0, 63, 0
1, 172463, Note_on_c, 0, 63, 38
1, 172477, Note_on_c, 0, 54, 16
1, 172491, Note_on_c, 0, 60, 40
1, 172547, Note_on_c, 0, 63, 0
1, 172552, Note_on_c, 0, 60, 0
1, 172552, Note_on_c, 0, 54, 0
1, 172653, Note_on_c, 0, 63, 26
1, 172660, Note_on_c, 0, 60, 29
1, 172669, Note_on_c, 0, 54, 12
1, 172716, Note_on_c, 0, 63, 0
1, 172734, Note_on_c, 0, 60, 0
1, 172734, Note_on_c, 0, 54, 0
1, 172825, Note_on_c, 0, 69, 0
1, 172903, Note_on_c, 0, 54, 19
1, 172908, Note_on_c, 0, 63, 21
1, 172920, Note_on_c, 0, 60, 16
1, 173021, Note_on_c, 0, 63, 0
1, 173167, Note_on_c, 0, 60, 0
1, 173348, Note_on_c, 0, 54, 0
1, 173372, Note_on_c, 0, 80, 33
1, 173401, Note_on_c, 0, 68, 11
1, 173503, Note_on_c, 0, 81, 0
1, 173571, Control_c, 0, 64, 0
1, 173596, Note_on_c, 0, 44, 24
1, 173714, Control_c, 0, 64, 127
1, 173752, Note_on_c, 0, 44, 0
1, 173769, Note_on_c, 0, 80, 0
1, 173781, Note_on_c, 0, 68, 0
1, 173854, Note_on_c, 0, 59, 24
1, 173865, Note_on_c, 0, 53, 44
1, 173911, Note_on_c, 0, 53, 0
1, 173915, Note_on_c, 0, 59, 0
1, 174082, Note_on_c, 0, 62, 66
1, 174096, Note_on_c, 0, 53, 43
1, 174107, Note_on_c, 0, 59, 31
1, 174151, Note_on_c, 0, 53, 0
1, 174157, Note_on_c, 0, 59, 0
1, 174308, Note_on_c, 0, 62, 0
1, 174322, Note_on_c, 0, 53, 47
1, 174326, Note_on_c, 0, 59, 29
1, 174379, Note_on_c, 0, 53, 0
1, 174383, Note_on_c, 0, 59, 0
1, 174388, Note_on_c, 0, 69, 57
1, 174544, Note_on_c, 0, 69, 0
1, 174553, Note_on_c, 0, 53, 34
1, 174553, Note_on_c, 0, 62, 35
1, 174572, Note_on_c, 0, 59, 7
1, 174610, Note_on_c, 0, 62, 0
1, 174617, Note_on_c, 0, 53, 0
1, 174627, Note_on_c, 0, 59, 0
1, 174776, Note_on_c, 0, 62, 19
1, 174790, Note_on_c, 0, 53, 27
1, 174790, Note_on_c, 0, 59, 18
1, 174826, Note_on_c, 0, 62, 0
1, 174847, Note_on_c, 0, 59, 0
1, 174851, Note_on_c, 0, 69, 46
1, 174859, Note_on_c, 0, 53, 0
1, 174978, Note_on_c, 0, 69, 0
1, 175120, Note_on_c, 0, 37, 29
1, 175163, Control_c, 0, 64, 0
1, 175218, Note_on_c, 0, 69, 42
1, 175304, Note_on_c, 0, 37, 0
1, 175319, Control_c, 0, 64, 127
1, 175550, Note_on_c, 0, 62, 26
1, 175553, Note_on_c, 0, 53, 34
1, 175560, Note_on_c, 0, 59, 9
1, 175609, Note_on_c, 0, 62, 0
1, 175616, Note_on_c, 0, 59, 0
1, 175616, Note_on_c, 0, 53, 0
1, 175762, Note_on_c, 0, 53, 34
1, 175765, Note_on_c, 0, 62, 23
1, 175776, Note_on_c, 0, 59, 23
1, 175825, Note_on_c, 0, 62, 0
1, 175825, Note_on_c, 0, 53, 0
1, 175839, Note_on_c, 0, 59, 0
1, 176056, Note_on_c, 0, 62, 17
1, 176071, Note_on_c, 0, 59, 27
1, 176084, Note_on_c, 0, 53, 12
1, 176182, Note_on_c, 0, 62, 0
1, 176188, Note_on_c, 0, 53, 0
1, 176229, Note_on_c, 0, 59, 0
1, 176624, Note_on_c, 0, 68, 26
1, 176680, Note_on_c, 0, 69, 0
1, 176914, Control_c, 0, 64, 0
1, 176914, Note_on_c, 0, 42, 39
1, 177034, Control_c, 0, 64, 127
1, 177048, Note_on_c, 0, 42, 0
1, 177060, Note_on_c, 0, 68, 0
1, 177252, Note_on_c, 0, 80, 46
1, 177262, Note_on_c, 0, 68, 32
1, 177262, Note_on_c, 0, 62, 29
1, 177277, Note_on_c, 0, 54, 32
1, 177282, Note_on_c, 0, 57, 16
1, 177329, Note_on_c, 0, 62, 0
1, 177336, Note_on_c, 0, 54, 0
1, 177350, Note_on_c, 0, 57, 0
1, 177382, Note_on_c, 0, 68, 0
1, 177413, Note_on_c, 0, 80, 0
1, 177470, Note_on_c, 0, 57, 16
1, 177470, Note_on_c, 0, 62, 30
1, 177480, Note_on_c, 0, 66, 23
1, 177480, Note_on_c, 0, 78, 42
1, 177485, Note_on_c, 0, 54, 40
1, 177517, Note_on_c, 0, 62, 0
1, 177528, Note_on_c, 0, 54, 0
1, 177538, Note_on_c, 0, 57, 0
1, 177645, Note_on_c, 0, 45, 57
1, 177681, Control_c, 0, 64, 0
1, 177708, Note_on_c, 0, 78, 0
1, 177726, Note_on_c, 0, 66, 0
1, 177765, Control_c, 0, 64, 127
1, 177822, Note_on_c, 0, 78, 68
1, 177828, Note_on_c, 0, 57, 34
1, 177832, Note_on_c, 0, 66, 37
1, 177847, Note_on_c, 0, 54, 33
1, 177881, Note_on_c, 0, 57, 0
1, 177881, Note_on_c, 0, 66, 0
1, 177900, Note_on_c, 0, 54, 0
1, 177907, Note_on_c, 0, 78, 0
1, 177998, Note_on_c, 0, 64, 47
1, 177998, Note_on_c, 0, 54, 32
1, 177998, Note_on_c, 0, 76, 43
1, 178004, Note_on_c, 0, 57, 22
1, 178054, Note_on_c, 0, 64, 0
1, 178059, Note_on_c, 0, 54, 0
1, 178059, Note_on_c, 0, 57, 0
1, 178084, Note_on_c, 0, 76, 0
1, 178098, Note_on_c, 0, 45, 0
1, 178146, Note_on_c, 0, 50, 68
1, 178160, Control_c, 0, 64, 0
1, 178268, Control_c, 0, 64, 127
1, 178294, Note_on_c, 0, 76, 68
1, 178305, Note_on_c, 0, 64, 64
1, 178311, Note_on_c, 0, 57, 46
1, 178327, Note_on_c, 0, 54, 35
1, 178358, Note_on_c, 0, 64, 0
1, 178358, Note_on_c, 0, 57, 0
1, 178375, Note_on_c, 0, 54, 0
1, 178389, Note_on_c, 0, 76, 0
1, 178441, Note_on_c, 0, 57, 32
1, 178441, Note_on_c, 0, 54, 45
1, 178453, Note_on_c, 0, 74, 66
1, 178461, Note_on_c, 0, 62, 45
1, 178485, Note_on_c, 0, 57, 0
1, 178485, Note_on_c, 0, 54, 0
1, 178497, Note_on_c, 0, 50, 0
1, 178567, Control_c, 0, 64, 0
1, 178591, Note_on_c, 0, 42, 69
1, 178597, Note_on_c, 0, 62, 0
1, 178636, Note_on_c, 0, 74, 0
1, 178664, Control_c, 0, 64, 127
1, 178695, Note_on_c, 0, 42, 0
1, 178759, Note_on_c, 0, 74, 75
1, 178759, Note_on_c, 0, 54, 58
1, 178759, Note_on_c, 0, 57, 37
1, 178759, Note_on_c, 0, 62, 79
1, 178803, Note_on_c, 0, 54, 0
1, 178807, Note_on_c, 0, 57, 0
1, 178831, Note_on_c, 0, 62, 0
1, 178918, Note_on_c, 0, 54, 51
1, 178921, Note_on_c, 0, 57, 15
1, 178948, Note_on_c, 0, 73, 57
1, 178953, Note_on_c, 0, 74, 0
1, 178953, Note_on_c, 0, 61, 58
1, 178957, Note_on_c, 0, 54, 0
1, 178970, Note_on_c, 0, 57, 0
1, 179012, Control_c, 0, 64, 0
1, 179041, Note_on_c, 0, 41, 82
1, 179162, Note_on_c, 0, 41, 0
1, 179162, Control_c, 0, 64, 127
1, 179201, Note_on_c, 0, 61, 0
1, 179213, Note_on_c, 0, 73, 0
1, 179243, Note_on_c, 0, 57, 52
1, 179247, Note_on_c, 0, 51, 46
1, 179257, Note_on_c, 0, 54, 52
1, 179307, Note_on_c, 0, 54, 0
1, 179313, Note_on_c, 0, 57, 0
1, 179313, Note_on_c, 0, 51, 0
1, 179438, Note_on_c, 0, 57, 49
1, 179438, Note_on_c, 0, 61, 93
1, 179452, Note_on_c, 0, 54, 35
1, 179455, Note_on_c, 0, 51, 31
1, 179495, Note_on_c, 0, 57, 0
1, 179506, Note_on_c, 0, 54, 0
1, 179513, Note_on_c, 0, 51, 0
1, 179619, Note_on_c, 0, 57, 52
1, 179630, Note_on_c, 0, 51, 23
1, 179634, Note_on_c, 0, 54, 38
1, 179678, Note_on_c, 0, 57, 0
1, 179683, Note_on_c, 0, 54, 0
1, 179689, Note_on_c, 0, 51, 0
1, 179723, Note_on_c, 0, 61, 0
1, 179751, Note_on_c, 0, 51, 42
1, 179751, Note_on_c, 0, 57, 40
1, 179754, Note_on_c, 0, 54, 42
1, 179823, Note_on_c, 0, 57, 0
1, 179832, Note_on_c, 0, 51, 0
1, 179839, Note_on_c, 0, 60, 71
1, 179845, Note_on_c, 0, 54, 0
1, 179879, Note_on_c, 0, 60, 0
1, 179890, Note_on_c, 0, 61, 79
1, 179951, Note_on_c, 0, 61, 0
1, 179954, Note_on_c, 0, 60, 68
1, 180004, Note_on_c, 0, 54, 42
1, 180027, Note_on_c, 0, 60, 0
1, 180030, Note_on_c, 0, 68, 70
1, 180068, Note_on_c, 0, 57, 14
1, 180090, Note_on_c, 0, 66, 72
1, 180101, Control_c, 0, 64, 0
1, 180149, Note_on_c, 0, 68, 0
1, 180149, Note_on_c, 0, 73, 64
1, 180169, Note_on_c, 0, 63, 56
1, 180182, Note_on_c, 0, 73, 0
1, 180187, Note_on_c, 0, 66, 0
1, 180221, Note_on_c, 0, 72, 80
1, 180221, Control_c, 0, 64, 127
1, 180258, Control_c, 0, 64, 0
1, 180261, Note_on_c, 0, 72, 0
1, 180296, Note_on_c, 0, 80, 68
1, 180305, Note_on_c, 0, 54, 0
1, 180316, Note_on_c, 0, 63, 0
1, 180335, Note_on_c, 0, 57, 0
1, 180347, Note_on_c, 0, 78, 77
1, 180353, Control_c, 0, 64, 127
1, 180402, Note_on_c, 0, 85, 58
1, 180408, Note_on_c, 0, 80, 0
1, 180425, Note_on_c, 0, 78, 0
1, 180433, Note_on_c, 0, 85, 0
1, 180470, Note_on_c, 0, 84, 83
1, 180500, Note_on_c, 0, 84, 0
1, 180548, Note_on_c, 0, 92, 62
1, 180640, Control_c, 0, 64, 0
1, 180796, Control_c, 0, 64, 127
1, 180836, Note_on_c, 0, 90, 32
1, 180854, Note_on_c, 0, 92, 0
1, 180926, Note_on_c, 0, 90, 0
1, 180973, Note_on_c, 0, 42, 41
1, 181010, Note_on_c, 0, 42, 0
1, 181233, Note_on_c, 0, 54, 42
1, 181240, Note_on_c, 0, 80, 49
1, 181246, Note_on_c, 0, 68, 34
1, 181249, Note_on_c, 0, 62, 20
1, 181252, Note_on_c, 0, 57, 22
1, 181285, Note_on_c, 0, 54, 0
1, 181311, Note_on_c, 0, 62, 0
1, 181322, Note_on_c, 0, 57, 0
1, 181336, Note_on_c, 0, 68, 0
1, 181413, Note_on_c, 0, 80, 0
1, 181453, Note_on_c, 0, 54, 55
1, 181453, Note_on_c, 0, 62, 37
1, 181459, Note_on_c, 0, 78, 44
1, 181466, Note_on_c, 0, 66, 22
1, 181495, Note_on_c, 0, 54, 0
1, 181498, Note_on_c, 0, 62, 0
1, 181606, Note_on_c, 0, 66, 0
1, 181619, Note_on_c, 0, 45, 65
1, 181628, Note_on_c, 0, 78, 0
1, 181659, Control_c, 0, 64, 0
1, 181731, Control_c, 0, 64, 127
1, 181786, Note_on_c, 0, 78, 78
1, 181786, Note_on_c, 0, 66, 58
1, 181792, Note_on_c, 0, 57, 38
1, 181810, Note_on_c, 0, 54, 39
1, 181846, Note_on_c, 0, 57, 0
1, 181859, Note_on_c, 0, 54, 0
1, 181873, Note_on_c, 0, 78, 0
1, 181876, Note_on_c, 0, 66, 0
1, 181945, Note_on_c, 0, 54, 44
1, 181949, Note_on_c, 0, 76, 63
1, 181957, Note_on_c, 0, 57, 32
1, 181957, Note_on_c, 0, 64, 50
1, 181999, Note_on_c, 0, 54, 0
1, 182004, Note_on_c, 0, 57, 0
1, 182004, Note_on_c, 0, 64, 0
1, 182032, Note_on_c, 0, 76, 0
1, 182105, Note_on_c, 0, 50, 84
1, 182127, Control_c, 0, 64, 0
1, 182207, Note_on_c, 0, 45, 0
1, 182235, Control_c, 0, 64, 127
1, 182255, Note_on_c, 0, 76, 80
1, 182260, Note_on_c, 0, 64, 73
1, 182271, Note_on_c, 0, 54, 55
1, 182278, Note_on_c, 0, 57, 31
1, 182314, Note_on_c, 0, 54, 0
1, 182325, Note_on_c, 0, 57, 0
1, 182339, Note_on_c, 0, 76, 0
1, 182339, Note_on_c, 0, 64, 0
1, 182414, Note_on_c, 0, 74, 81
1, 182430, Note_on_c, 0, 57, 19
1, 182433, Note_on_c, 0, 62, 55
1, 182470, Note_on_c, 0, 50, 0
1, 182483, Note_on_c, 0, 57, 0
1, 182498, Note_on_c, 0, 62, 0
1, 182537, Note_on_c, 0, 74, 0
1, 182555, Note_on_c, 0, 42, 79
1, 182559, Control_c, 0, 64, 0
1, 182636, Control_c, 0, 64, 127
1, 182656, Note_on_c, 0, 42, 0
1, 182726, Note_on_c, 0, 57, 47
1, 182726, Note_on_c, 0, 74, 82
1, 182731, Note_on_c, 0, 54, 52
1, 182731, Note_on_c, 0, 62, 65
1, 182775, Note_on_c, 0, 57, 0
1, 182775, Note_on_c, 0, 54, 0
1, 182793, Note_on_c, 0, 62, 0
1, 182899, Note_on_c, 0, 57, 45
1, 182906, Note_on_c, 0, 54, 60
1, 182932, Note_on_c, 0, 74, 0
1, 182932, Note_on_c, 0, 61, 51
1, 182932, Note_on_c, 0, 73, 52
1, 182942, Note_on_c, 0, 54, 0
1, 182942, Note_on_c, 0, 57, 0
1, 183026, Control_c, 0, 64, 0
1, 183059, Note_on_c, 0, 41, 84
1, 183135, Note_on_c, 0, 61, 0
1, 183182, Control_c, 0, 64, 127
1, 183182, Note_on_c, 0, 73, 0
1, 183188, Note_on_c, 0, 41, 0
1, 183274, Note_on_c, 0, 57, 51
1, 183282, Note_on_c, 0, 51, 42
1, 183294, Note_on_c, 0, 54, 45
1, 183331, Note_on_c, 0, 57, 0
1, 183346, Note_on_c, 0, 54, 0
1, 183378, Note_on_c, 0, 51, 0
1, 183456, Note_on_c, 0, 61, 95
1, 183464, Note_on_c, 0, 57, 49
1, 183478, Note_on_c, 0, 54, 47
1, 183483, Note_on_c, 0, 51, 28
1, 183522, Note_on_c, 0, 57, 0
1, 183531, Note_on_c, 0, 54, 0
1, 183545, Note_on_c, 0, 51, 0
1, 183628, Note_on_c, 0, 51, 44
1, 183637, Note_on_c, 0, 57, 43
1, 183637, Note_on_c, 0, 54, 36
1, 183692, Note_on_c, 0, 51, 0
1, 183698, Note_on_c, 0, 54, 0
1, 183698, Note_on_c, 0, 57, 0
1, 183818, Note_on_c, 0, 57, 57
1, 183828, Note_on_c, 0, 61, 0
1, 183831, Note_on_c, 0, 54, 28
1, 183835, Note_on_c, 0, 51, 37
1, 183874, Note_on_c, 0, 57, 0
1, 183892, Note_on_c, 0, 54, 0
1, 183892, Note_on_c, 0, 51, 0
1, 183937, Note_on_c, 0, 60, 50
1, 183974, Note_on_c, 0, 54, 36
1, 183985, Note_on_c, 0, 51, 26
1, 183985, Note_on_c, 0, 60, 0
1, 183985, Note_on_c, 0, 61, 71
1, 183990, Note_on_c, 0, 57, 43
1, 184021, Note_on_c, 0, 54, 0
1, 184041, Note_on_c, 0, 51, 0
1, 184046, Note_on_c, 0, 61, 0
1, 184052, Note_on_c, 0, 57, 0
1, 184055, Note_on_c, 0, 60, 62
1, 184113, Note_on_c, 0, 60, 0
1, 184130, Note_on_c, 0, 51, 19
1, 184130, Note_on_c, 0, 68, 69
1, 184158, Note_on_c, 0, 54, 45
1, 184185, Note_on_c, 0, 51, 0
1, 184200, Control_c, 0, 64, 0
1, 184205, Note_on_c, 0, 66, 62
1, 184225, Note_on_c, 0, 57, 25
1, 184239, Note_on_c, 0, 68, 0
1, 184271, Note_on_c, 0, 73, 63
1, 184296, Control_c, 0, 64, 127
1, 184299, Note_on_c, 0, 66, 0
1, 184308, Note_on_c, 0, 73, 0
1, 184308, Note_on_c, 0, 63, 45
1, 184344, Control_c, 0, 64, 0
1, 184350, Note_on_c, 0, 72, 78
1, 184414, Note_on_c, 0, 72, 0
1, 184441, Control_c, 0, 64, 127
1, 184441, Note_on_c, 0, 80, 57
1, 184464, Control_c, 0, 64, 0
1, 184508, Note_on_c, 0, 78, 68
1, 184544, Note_on_c, 0, 54, 0
1, 184555, Note_on_c, 0, 63, 0
1, 184576, Note_on_c, 0, 80, 0
1, 184581, Note_on_c, 0, 85, 65
1, 184584, Control_c, 0, 64, 127
1, 184587, Note_on_c, 0, 57, 0
1, 184600, Note_on_c, 0, 78, 0
1, 184614, Note_on_c, 0, 85, 0
1, 184659, Note_on_c, 0, 84, 76
1, 184706, Note_on_c, 0, 84, 0
1, 184765, Note_on_c, 0, 92, 53
1, 184871, Control_c, 0, 64, 0
1, 185063, Control_c, 0, 64, 127
1, 185093, Note_on_c, 0, 90, 40
1, 185108, Note_on_c, 0, 92, 0
1, 185154, Note_on_c, 0, 90, 0
1, 185186, Note_on_c, 0, 42, 30
1, 185232, Note_on_c, 0, 42, 0
1, 185430, Note_on_c, 0, 54, 38
1, 185441, Note_on_c, 0, 62, 24
1, 185447, Note_on_c, 0, 57, 18
1, 185489, Note_on_c, 0, 54, 0
1, 185497, Note_on_c, 0, 62, 0
1, 185505, Note_on_c, 0, 57, 0
1, 185597, Note_on_c, 0, 77, 77
1, 185609, Note_on_c, 0, 65, 48
1, 185623, Note_on_c, 0, 54, 42
1, 185623, Note_on_c, 0, 62, 29
1, 185637, Note_on_c, 0, 57, 7
1, 185665, Note_on_c, 0, 65, 0
1, 185668, Note_on_c, 0, 54, 0
1, 185678, Note_on_c, 0, 62, 0
1, 185682, Note_on_c, 0, 57, 0
1, 185801, Note_on_c, 0, 78, 87
1, 185809, Note_on_c, 0, 45, 55
1, 185809, Note_on_c, 0, 66, 57
1, 185842, Control_c, 0, 64, 0
1, 185870, Note_on_c, 0, 77, 0
1, 185913, Note_on_c, 0, 45, 0
1, 185913, Control_c, 0, 64, 127
1, 185985, Note_on_c, 0, 62, 61
1, 185991, Note_on_c, 0, 57, 46
1, 185991, Note_on_c, 0, 54, 51
1, 186002, Note_on_c, 0, 66, 0
1, 186022, Note_on_c, 0, 62, 0
1, 186038, Note_on_c, 0, 57, 0
1, 186038, Note_on_c, 0, 54, 0
1, 186119, Note_on_c, 0, 80, 95
1, 186124, Note_on_c, 0, 68, 78
1, 186138, Note_on_c, 0, 54, 46
1, 186138, Note_on_c, 0, 57, 14
1, 186157, Note_on_c, 0, 62, 26
1, 186168, Note_on_c, 0, 78, 0
1, 186194, Note_on_c, 0, 54, 0
1, 186202, Note_on_c, 0, 57, 0
1, 186202, Note_on_c, 0, 68, 0
1, 186213, Note_on_c, 0, 62, 0
1, 186242, Note_on_c, 0, 80, 0
1, 186302, Note_on_c, 0, 83, 113
1, 186310, Control_c, 0, 64, 0
1, 186316, Note_on_c, 0, 71, 80
1, 186333, Note_on_c, 0, 50, 49
1, 186453, Control_c, 0, 64, 127
1, 186458, Note_on_c, 0, 54, 66
1, 186458, Note_on_c, 0, 62, 54
1, 186472, Note_on_c, 0, 57, 46
1, 186497, Note_on_c, 0, 50, 0
1, 186511, Note_on_c, 0, 62, 0
1, 186515, Note_on_c, 0, 54, 0
1, 186518, Note_on_c, 0, 57, 0
1, 186537, Note_on_c, 0, 83, 0
1, 186550, Note_on_c, 0, 71, 0
1, 186604, Note_on_c, 0, 81, 87
1, 186609, Note_on_c, 0, 69, 70
1, 186625, Note_on_c, 0, 57, 22
1, 186632, Note_on_c, 0, 54, 47
1, 186632, Note_on_c, 0, 62, 22
1, 186667, Note_on_c, 0, 69, 0
1, 186673, Note_on_c, 0, 54, 0
1, 186682, Note_on_c, 0, 57, 0
1, 186682, Note_on_c, 0, 62, 0
1, 186753, Control_c, 0, 64, 0
1, 186774, Note_on_c, 0, 45, 55
1, 186795, Note_on_c, 0, 80, 75
1, 186795, Note_on_c, 0, 68, 58
1, 186834, Note_on_c, 0, 81, 0
1, 186870, Note_on_c, 0, 45, 0
1, 186873, Control_c, 0, 64, 127
1, 186966, Note_on_c, 0, 62, 43
1, 186982, Note_on_c, 0, 57, 27
1, 187015, Note_on_c, 0, 62, 0
1, 187030, Note_on_c, 0, 68, 0
1, 187033, Note_on_c, 0, 57, 0
1, 187108, Note_on_c, 0, 57, 24
1, 187122, Note_on_c, 0, 62, 28
1, 187139, Note_on_c, 0, 80, 0
1, 187157, Note_on_c, 0, 57, 0
1, 187174, Note_on_c, 0, 62, 0
1, 187174, Note_on_c, 0, 78, 44
1, 187192, Note_on_c, 0, 66, 11
1, 187246, Control_c, 0, 64, 0
1, 187294, Note_on_c, 0, 45, 54
1, 187377, Control_c, 0, 64, 127
1, 187406, Note_on_c, 0, 45, 0
1, 187436, Note_on_c, 0, 66, 0
1, 187489, Note_on_c, 0, 62, 44
1, 187497, Note_on_c, 0, 57, 36
1, 187536, Note_on_c, 0, 62, 0
1, 187550, Note_on_c, 0, 57, 0
1, 187628, Note_on_c, 0, 78, 0
1, 187632, Note_on_c, 0, 66, 64
1, 187675, Note_on_c, 0, 62, 19
1, 187675, Note_on_c, 0, 57, 22
1, 187720, Note_on_c, 0, 62, 0
1, 187732, Note_on_c, 0, 57, 0
1, 187779, Note_on_c, 0, 66, 0
1, 187840, Note_on_c, 0, 46, 41
1, 187868, Control_c, 0, 64, 0
1, 187894, Note_on_c, 0, 66, 55
1, 187988, Control_c, 0, 64, 127
1, 187999, Note_on_c, 0, 46, 0
1, 188040, Note_on_c, 0, 66, 0
1, 188091, Note_on_c, 0, 56, 35
1, 188091, Note_on_c, 0, 62, 39
1, 188091, Note_on_c, 0, 58, 31
1, 188139, Note_on_c, 0, 62, 0
1, 188142, Note_on_c, 0, 56, 0
1, 188149, Note_on_c, 0, 58, 0
1, 188158, Note_on_c, 0, 65, 60
1, 188210, Note_on_c, 0, 65, 0
1, 188239, Note_on_c, 0, 62, 46
1, 188247, Note_on_c, 0, 56, 33
1, 188247, Note_on_c, 0, 58, 19
1, 188264, Note_on_c, 0, 71, 81
1, 188286, Note_on_c, 0, 62, 0
1, 188297, Note_on_c, 0, 56, 0
1, 188306, Note_on_c, 0, 58, 0
1, 188356, Note_on_c, 0, 70, 60
1, 188375, Note_on_c, 0, 71, 0
1, 188411, Note_on_c, 0, 62, 54
1, 188431, Note_on_c, 0, 56, 28
1, 188436, Note_on_c, 0, 78, 72
1, 188436, Note_on_c, 0, 58, 15
1, 188451, Note_on_c, 0, 70, 0
1, 188458, Note_on_c, 0, 62, 0
1, 188476, Note_on_c, 0, 78, 0
1, 188486, Note_on_c, 0, 56, 0
1, 188498, Note_on_c, 0, 58, 0
1, 188545, Note_on_c, 0, 77, 68
1, 188576, Note_on_c, 0, 77, 0
1, 188590, Note_on_c, 0, 62, 49
1, 188601, Note_on_c, 0, 58, 10
1, 188620, Note_on_c, 0, 56, 16
1, 188625, Note_on_c, 0, 83, 80
1, 188653, Note_on_c, 0, 62, 0
1, 188653, Note_on_c, 0, 58, 0
1, 188657, Note_on_c, 0, 83, 0
1, 188670, Note_on_c, 0, 56, 0
1, 188696, Note_on_c, 0, 82, 82
1, 188751, Note_on_c, 0, 56, 30
1, 188757, Note_on_c, 0, 82, 0
1, 188779, Note_on_c, 0, 90, 62
1, 188830, Note_on_c, 0, 89, 74
1, 188846, Note_on_c, 0, 62, 43
1, 188871, Note_on_c, 0, 90, 0
1, 188898, Note_on_c, 0, 83, 90
1, 188915, Note_on_c, 0, 89, 0
1, 188929, Note_on_c, 0, 65, 32
1, 188946, Control_c, 0, 64, 0
1, 188983, Note_on_c, 0, 95, 72
1, 189102, Control_c, 0, 64, 127
1, 189125, Note_on_c, 0, 65, 0
1, 189189, Note_on_c, 0, 62, 0
1, 189189, Note_on_c, 0, 83, 0
1, 189278, Note_on_c, 0, 56, 0
1, 189445, Note_on_c, 0, 95, 0
1, 189456, Note_on_c, 0, 94, 28
1, 189467, Note_on_c, 0, 82, 21
1, 189525, Control_c, 0, 64, 0
1, 189578, Note_on_c, 0, 44, 41
1, 189629, Control_c, 0, 64, 127
1, 189629, Note_on_c, 0, 94, 0
1, 189643, Note_on_c, 0, 44, 0
1, 189682, Note_on_c, 0, 82, 0
1, 189781, Note_on_c, 0, 56, 40
1, 189795, Note_on_c, 0, 64, 45
1, 189801, Note_on_c, 0, 59, 47
1, 189846, Note_on_c, 0, 64, 0
1, 189851, Note_on_c, 0, 59, 0
1, 189868, Note_on_c, 0, 56, 0
1, 189985, Note_on_c, 0, 79, 93
1, 189991, Note_on_c, 0, 64, 47
1, 189991, Note_on_c, 0, 67, 68
1, 189991, Note_on_c, 0, 59, 47
1, 190000, Note_on_c, 0, 56, 38
1, 190030, Note_on_c, 0, 64, 0
1, 190043, Note_on_c, 0, 59, 0
1, 190047, Note_on_c, 0, 56, 0
1, 190077, Note_on_c, 0, 67, 0
1, 190178, Note_on_c, 0, 68, 80
1, 190178, Note_on_c, 0, 80, 90
1, 190181, Note_on_c, 0, 47, 66
1, 190217, Note_on_c, 0, 79, 0
1, 190234, Note_on_c, 0, 47, 0
1, 190347, Note_on_c, 0, 64, 59
1, 190347, Note_on_c, 0, 56, 47
1, 190359, Note_on_c, 0, 59, 40
1, 190364, Note_on_c, 0, 68, 0
1, 190392, Note_on_c, 0, 64, 0
1, 190405, Note_on_c, 0, 56, 0
1, 190405, Note_on_c, 0, 59, 0
1, 190495, Note_on_c, 0, 82, 90
1, 190501, Note_on_c, 0, 70, 83
1, 190517, Note_on_c, 0, 64, 58
1, 190526, Note_on_c, 0, 56, 47
1, 190526, Note_on_c, 0, 59, 25
1, 190539, Note_on_c, 0, 80, 0
1, 190568, Note_on_c, 0, 64, 0
1, 190579, Note_on_c, 0, 59, 0
1, 190589, Note_on_c, 0, 70, 0
1, 190593, Note_on_c, 0, 56, 0
1, 190628, Note_on_c, 0, 82, 0
1, 190702, Note_on_c, 0, 85, 90
1, 190707, Note_on_c, 0, 73, 72
1, 190721, Control_c, 0, 64, 0
1, 190741, Note_on_c, 0, 52, 61
1, 190852, Control_c, 0, 64, 127
1, 190890, Note_on_c, 0, 56, 50
1, 190890, Note_on_c, 0, 64, 50
1, 190898, Note_on_c, 0, 52, 0
1, 190921, Note_on_c, 0, 59, 32
1, 190938, Note_on_c, 0, 64, 0
1, 190946, Note_on_c, 0, 56, 0
1, 190966, Note_on_c, 0, 59, 0
1, 190982, Note_on_c, 0, 73, 0
1, 190982, Note_on_c, 0, 85, 0
1, 191043, Note_on_c, 0, 83, 111
1, 191049, Note_on_c, 0, 71, 88
1, 191063, Note_on_c, 0, 59, 25
1, 191063, Note_on_c, 0, 56, 42
1, 191066, Note_on_c, 0, 64, 46
1, 191107, Note_on_c, 0, 59, 0
1, 191107, Note_on_c, 0, 64, 0
1, 191110, Note_on_c, 0, 56, 0
1, 191128, Note_on_c, 0, 71, 0
1, 191147, Note_on_c, 0, 83, 0
1, 191224, Note_on_c, 0, 82, 83
1, 191230, Note_on_c, 0, 47, 70
1, 191230, Note_on_c, 0, 70, 71
1, 191261, Note_on_c, 0, 47, 0
1, 191383, Note_on_c, 0, 64, 64
1, 191390, Note_on_c, 0, 59, 47
1, 191398, Note_on_c, 0, 56, 37
1, 191431, Note_on_c, 0, 64, 0
1, 191440, Note_on_c, 0, 59, 0
1, 191443, Note_on_c, 0, 70, 0
1, 191446, Note_on_c, 0, 56, 0
1, 191492, Note_on_c, 0, 82, 0
1, 191540, Note_on_c, 0, 64, 48
1, 191540, Note_on_c, 0, 59, 47
1, 191543, Note_on_c, 0, 56, 54
1, 191560, Note_on_c, 0, 80, 66
1, 191565, Note_on_c, 0, 68, 52
1, 191578, Note_on_c, 0, 64, 0
1, 191578, Note_on_c, 0, 56, 0
1, 191591, Note_on_c, 0, 59, 0
1, 191667, Control_c, 0, 64, 0
1, 191693, Note_on_c, 0, 47, 84
1, 191774, Control_c, 0, 64, 127
1, 191790, Note_on_c, 0, 47, 0
1, 191862, Note_on_c, 0, 68, 0
1, 191872, Note_on_c, 0, 64, 69
1, 191875, Note_on_c, 0, 59, 63
1, 191891, Note_on_c, 0, 80, 0
1, 191910, Note_on_c, 0, 64, 0
1, 191916, Note_on_c, 0, 59, 0
1, 192013, Note_on_c, 0, 68, 83
1, 192036, Note_on_c, 0, 64, 50
1, 192044, Note_on_c, 0, 59, 49
1, 192074, Note_on_c, 0, 64, 0
1, 192080, Note_on_c, 0, 59, 0
1, 192121, Note_on_c, 0, 68, 0
1, 192186, Note_on_c, 0, 48, 75
1, 192206, Control_c, 0, 64, 0
1, 192234, Note_on_c, 0, 68, 73
1, 192333, Note_on_c, 0, 48, 0
1, 192339, Control_c, 0, 64, 127
1, 192355, Note_on_c, 0, 68, 0
1, 192420, Note_on_c, 0, 64, 54
1, 192425, Note_on_c, 0, 58, 38
1, 192461, Note_on_c, 0, 64, 0
1, 192478, Note_on_c, 0, 58, 0
1, 192486, Note_on_c, 0, 67, 75
1, 192567, Note_on_c, 0, 67, 0
1, 192585, Note_on_c, 0, 64, 54
1, 192592, Note_on_c, 0, 73, 70
1, 192596, Note_on_c, 0, 58, 36
1, 192628, Note_on_c, 0, 64, 0
1, 192646, Note_on_c, 0, 58, 0
1, 192685, Note_on_c, 0, 72, 71
1, 192737, Note_on_c, 0, 72, 0
1, 192745, Note_on_c, 0, 64, 60
1, 192745, Note_on_c, 0, 73, 0
1, 192751, Note_on_c, 0, 80, 80
1, 192759, Note_on_c, 0, 58, 22
1, 192784, Note_on_c, 0, 80, 0
1, 192790, Note_on_c, 0, 64, 0
1, 192812, Note_on_c, 0, 58, 0
1, 192840, Note_on_c, 0, 79, 97
1, 192868, Note_on_c, 0, 79, 0
1, 192894, Note_on_c, 0, 64, 43
1, 192894, Note_on_c, 0, 58, 36
1, 192915, Note_on_c, 0, 85, 73
1, 192940, Note_on_c, 0, 58, 0
1, 192943, Note_on_c, 0, 85, 0
1, 192952, Note_on_c, 0, 64, 0
1, 192979, Note_on_c, 0, 84, 91
1, 193007, Note_on_c, 0, 84, 0
1, 193032, Note_on_c, 0, 58, 32
1, 193041, Note_on_c, 0, 92, 73
1, 193097, Note_on_c, 0, 91, 89
1, 193097, Note_on_c, 0, 64, 58
1, 193116, Note_on_c, 0, 92, 0
1, 193155, Note_on_c, 0, 85, 75
1, 193175, Note_on_c, 0, 91, 0
1, 193181, Note_on_c, 0, 67, 50
1, 193248, Note_on_c, 0, 85, 0
1, 193261, Note_on_c, 0, 97, 80
1, 193272, Control_c, 0, 64, 0
1, 193330, Note_on_c, 0, 85, 8
1, 193403, Note_on_c, 0, 64, 0
1, 193403, Control_c, 0, 64, 127
1, 193422, Note_on_c, 0, 67, 0
1, 193609, Note_on_c, 0, 85, 0
1, 193640, Note_on_c, 0, 97, 0
1, 193645, Note_on_c, 0, 58, 0
1, 193666, Note_on_c, 0, 96, 63
1, 193681, Note_on_c, 0, 84, 43
1, 193830, Note_on_c, 0, 46, 61
1, 193847, Control_c, 0, 64, 0
1, 193905, Note_on_c, 0, 96, 0
1, 193932, Control_c, 0, 64, 127
1, 193957, Note_on_c, 0, 84, 0
1, 193960, Note_on_c, 0, 46, 0
1, 194053, Note_on_c, 0, 66, 52
1, 194058, Note_on_c, 0, 58, 35
1, 194086, Note_on_c, 0, 61, 32
1, 194119, Note_on_c, 0, 66, 0
1, 194136, Note_on_c, 0, 61, 0
1, 194142, Note_on_c, 0, 58, 0
1, 194225, Note_on_c, 0, 81, 96
1, 194234, Note_on_c, 0, 69, 70
1, 194234, Note_on_c, 0, 66, 52
1, 194264, Note_on_c, 0, 61, 35
1, 194273, Note_on_c, 0, 58, 28
1, 194276, Note_on_c, 0, 66, 0
1, 194286, Note_on_c, 0, 69, 0
1, 194308, Note_on_c, 0, 61, 0
1, 194325, Note_on_c, 0, 58, 0
1, 194423, Note_on_c, 0, 82, 95
1, 194429, Note_on_c, 0, 70, 75
1, 194436, Note_on_c, 0, 49, 72
1, 194465, Note_on_c, 0, 81, 0
1, 194486, Note_on_c, 0, 49, 0
1, 194545, Note_on_c, 0, 70, 0
1, 194581, Note_on_c, 0, 66, 70
1, 194595, Note_on_c, 0, 58, 51
1, 194595, Note_on_c, 0, 61, 60
1, 194642, Note_on_c, 0, 66, 0
1, 194642, Note_on_c, 0, 61, 0
1, 194659, Note_on_c, 0, 58, 0
1, 194729, Note_on_c, 0, 82, 0
1, 194729, Note_on_c, 0, 84, 109
1, 194735, Note_on_c, 0, 72, 95
1, 194741, Note_on_c, 0, 66, 72
1, 194762, Note_on_c, 0, 61, 52
1, 194776, Note_on_c, 0, 58, 32
1, 194787, Note_on_c, 0, 66, 0
1, 194791, Note_on_c, 0, 72, 0
1, 194812, Note_on_c, 0, 61, 0
1, 194830, Note_on_c, 0, 58, 0
1, 194835, Note_on_c, 0, 84, 0
1, 194927, Note_on_c, 0, 87, 99
1, 194932, Note_on_c, 0, 75, 91
1, 194939, Control_c, 0, 64, 0
1, 194939, Note_on_c, 0, 54, 72
1, 195070, Control_c, 0, 64, 127
1, 195089, Note_on_c, 0, 66, 55
1, 195100, Note_on_c, 0, 58, 42
1, 195105, Note_on_c, 0, 61, 51
1, 195144, Note_on_c, 0, 54, 0
1, 195153, Note_on_c, 0, 66, 0
1, 195153, Note_on_c, 0, 58, 0
1, 195153, Note_on_c, 0, 61, 0
1, 195167, Note_on_c, 0, 75, 0
1, 195173, Note_on_c, 0, 87, 0
1, 195251, Note_on_c, 0, 85, 93
1, 195256, Note_on_c, 0, 73, 82
1, 195262, Note_on_c, 0, 66, 54
1, 195272, Note_on_c, 0, 58, 42
1, 195276, Note_on_c, 0, 61, 52
1, 195301, Note_on_c, 0, 66, 0
1, 195319, Note_on_c, 0, 61, 0
1, 195328, Note_on_c, 0, 58, 0
1, 195389, Note_on_c, 0, 73, 0
1, 195412, Note_on_c, 0, 85, 0
1, 195440, Note_on_c, 0, 49, 74
1, 195451, Note_on_c, 0, 84, 92
1, 195451, Control_c, 0, 64, 0
1, 195461, Note_on_c, 0, 72, 69
1, 195531, Note_on_c, 0, 49, 0
1, 195538, Control_c, 0, 64, 127
1, 195609, Note_on_c, 0, 66, 66
1, 195623, Note_on_c, 0, 58, 41
1, 195635, Note_on_c, 0, 61, 43
1, 195652, Note_on_c, 0, 66, 0
1, 195652, Note_on_c, 0, 72, 0
1, 195677, Note_on_c, 0, 58, 0
1, 195680, Note_on_c, 0, 61, 0
1, 195687, Note_on_c, 0, 84, 0
1, 195757, Note_on_c, 0, 66, 62
1, 195765, Note_on_c, 0, 82, 69
1, 195765, Note_on_c, 0, 61, 47
1, 195769, Note_on_c, 0, 70, 62
1, 195790, Note_on_c, 0, 58, 32
1, 195790, Note_on_c, 0, 66, 0
1, 195808, Note_on_c, 0, 61, 0
1, 195838, Note_on_c, 0, 58, 0
1, 195897, Control_c, 0, 64, 0
1, 195907, Note_on_c, 0, 49, 88
1, 195994, Control_c, 0, 64, 127
1, 196014, Note_on_c, 0, 49, 0
1, 196075, Note_on_c, 0, 66, 69
1, 196080, Note_on_c, 0, 70, 0
1, 196089, Note_on_c, 0, 61, 55
1, 196117, Note_on_c, 0, 82, 0
1, 196139, Note_on_c, 0, 61, 0
1, 196139, Note_on_c, 0, 66, 0
1, 196226, Note_on_c, 0, 70, 90
1, 196247, Note_on_c, 0, 66, 57
1, 196255, Note_on_c, 0, 61, 62
1, 196300, Note_on_c, 0, 66, 0
1, 196300, Note_on_c, 0, 61, 0
1, 196375, Note_on_c, 0, 70, 0
1, 196429, Note_on_c, 0, 50, 89
1, 196473, Control_c, 0, 64, 0
1, 196481, Note_on_c, 0, 70, 76
1, 196588, Note_on_c, 0, 50, 0
1, 196604, Control_c, 0, 64, 127
1, 196635, Note_on_c, 0, 70, 0
1, 196690, Note_on_c, 0, 66, 58
1, 196690, Note_on_c, 0, 60, 60
1, 196730, Note_on_c, 0, 60, 0
1, 196738, Note_on_c, 0, 66, 0
1, 196752, Note_on_c, 0, 69, 77
1, 196846, Note_on_c, 0, 69, 0
1, 196854, Note_on_c, 0, 75, 81
1, 196861, Note_on_c, 0, 66, 55
1, 196861, Note_on_c, 0, 60, 55
1, 196911, Note_on_c, 0, 60, 0
1, 196930, Note_on_c, 0, 66, 0
1, 196952, Note_on_c, 0, 74, 78
1, 197017, Note_on_c, 0, 82, 76
1, 197022, Note_on_c, 0, 75, 0
1, 197027, Note_on_c, 0, 74, 0
1, 197035, Note_on_c, 0, 60, 56
1, 197038, Note_on_c, 0, 66, 61
1, 197074, Note_on_c, 0, 82, 0
1, 197105, Note_on_c, 0, 60, 0
1, 197120, Note_on_c, 0, 81, 94
1, 197141, Note_on_c, 0, 66, 0
1, 197191, Note_on_c, 0, 81, 0
1, 197198, Note_on_c, 0, 69, 57
1, 197206, Note_on_c, 0, 87, 79
1, 197206, Note_on_c, 0, 66, 31
1, 197230, Note_on_c, 0, 60, 31
1, 197236, Note_on_c, 0, 87, 0
1, 197250, Note_on_c, 0, 69, 0
1, 197272, Note_on_c, 0, 66, 0
1, 197283, Note_on_c, 0, 86, 91
1, 197286, Note_on_c, 0, 60, 0
1, 197336, Note_on_c, 0, 86, 0
1, 197354, Note_on_c, 0, 69, 64
1, 197357, Note_on_c, 0, 94, 83
1, 197373, Note_on_c, 0, 66, 46
1, 197378, Note_on_c, 0, 60, 26
1, 197390, Note_on_c, 0, 69, 0
1, 197412, Note_on_c, 0, 66, 0
1, 197426, Note_on_c, 0, 94, 0
1, 197426, Note_on_c, 0, 60, 0
1, 197426, Note_on_c, 0, 93, 92
1, 197515, Note_on_c, 0, 87, 95
1, 197543, Note_on_c, 0, 93, 0
1, 197618, Note_on_c, 0, 50, 93
1, 197623, Control_c, 0, 64, 0
1, 197677, Note_on_c, 0, 99, 97
1, 197737, Control_c, 0, 64, 127
1, 197737, Note_on_c, 0, 50, 0
1, 197864, Note_on_c, 0, 66, 47
1, 197885, Note_on_c, 0, 60, 55
1, 197888, Note_on_c, 0, 57, 40
1, 197935, Note_on_c, 0, 57, 0
1, 197941, Note_on_c, 0, 60, 0
1, 197946, Note_on_c, 0, 66, 0
1, 197971, Note_on_c, 0, 87, 0
1, 197971, Note_on_c, 0, 99, 0
1, 198030, Note_on_c, 0, 98, 111
1, 198035, Note_on_c, 0, 66, 55
1, 198038, Note_on_c, 0, 86, 94
1, 198049, Note_on_c, 0, 57, 41
1, 198073, Note_on_c, 0, 60, 34
1, 198105, Note_on_c, 0, 66, 0
1, 198108, Note_on_c, 0, 57, 0
1, 198119, Note_on_c, 0, 86, 0
1, 198122, Note_on_c, 0, 98, 0
1, 198122, Note_on_c, 0, 60, 0
1, 198258, Note_on_c, 0, 51, 73
1, 198272, Note_on_c, 0, 97, 99
1, 198275, Note_on_c, 0, 85, 88
1, 198318, Control_c, 0, 64, 0
1, 198462, Control_c, 0, 64, 127
1, 198462, Note_on_c, 0, 51, 0
1, 198484, Note_on_c, 0, 57, 54
1, 198484, Note_on_c, 0, 66, 59
1, 198537, Note_on_c, 0, 57, 0
1, 198546, Note_on_c, 0, 66, 0
1, 198596, Note_on_c, 0, 85, 0
1, 198612, Note_on_c, 0, 97, 0
1, 198658, Note_on_c, 0, 96, 95
1, 198665, Note_on_c, 0, 84, 83
1, 198665, Note_on_c, 0, 66, 54
1, 198685, Note_on_c, 0, 57, 46
1, 198729, Note_on_c, 0, 66, 0
1, 198733, Note_on_c, 0, 57, 0
1, 198747, Note_on_c, 0, 84, 0
1, 198755, Note_on_c, 0, 96, 0
1, 198825, Note_on_c, 0, 95, 98
1, 198830, Note_on_c, 0, 83, 106
1, 198839, Note_on_c, 0, 51, 56
1, 198858, Control_c, 0, 64, 0
1, 198966, Control_c, 0, 64, 127
1, 198977, Note_on_c, 0, 66, 62
1, 198992, Note_on_c, 0, 58, 48
1, 199022, Note_on_c, 0, 83, 0
1, 199031, Note_on_c, 0, 95, 0
1, 199039, Note_on_c, 0, 51, 0
1, 199044, Note_on_c, 0, 66, 0
1, 199044, Note_on_c, 0, 58, 0
1, 199125, Note_on_c, 0, 94, 89
1, 199125, Note_on_c, 0, 82, 77
1, 199142, Note_on_c, 0, 66, 51
1, 199153, Note_on_c, 0, 58, 45
1, 199187, Note_on_c, 0, 82, 0
1, 199187, Note_on_c, 0, 66, 0
1, 199211, Note_on_c, 0, 58, 0
1, 199228, Note_on_c, 0, 94, 0
1, 199292, Note_on_c, 0, 94, 81
1, 199292, Note_on_c, 0, 82, 88
1, 199428, Note_on_c, 0, 59, 62
1, 199431, Note_on_c, 0, 66, 42
1, 199468, Note_on_c, 0, 59, 0
1, 199492, Note_on_c, 0, 66, 0
1, 199510, Note_on_c, 0, 94, 0
1, 199513, Note_on_c, 0, 82, 0
1, 199587, Note_on_c, 0, 93, 94
1, 199593, Note_on_c, 0, 81, 84
1, 199593, Note_on_c, 0, 66, 48
1, 199607, Note_on_c, 0, 60, 44
1, 199618, Note_on_c, 0, 93, 0
1, 199635, Note_on_c, 0, 81, 0
1, 199640, Note_on_c, 0, 66, 0
1, 199655, Note_on_c, 0, 60, 0
1, 199757, Control_c, 0, 64, 0
1, 199772, Note_on_c, 0, 50, 70
1, 199794, Note_on_c, 0, 87, 92
1, 199798, Note_on_c, 0, 75, 84
1, 199864, Note_on_c, 0, 50, 0
1, 199864, Control_c, 0, 64, 127
1, 199969, Note_on_c, 0, 57, 51
1, 199974, Note_on_c, 0, 66, 51
1, 199974, Note_on_c, 0, 60, 52
1, 200019, Note_on_c, 0, 57, 0
1, 200019, Note_on_c, 0, 66, 0
1, 200028, Note_on_c, 0, 75, 0
1, 200031, Note_on_c, 0, 60, 0
1, 200041, Note_on_c, 0, 87, 0
1, 200114, Note_on_c, 0, 86, 103
1, 200120, Note_on_c, 0, 74, 94
1, 200120, Note_on_c, 0, 66, 47
1, 200131, Note_on_c, 0, 57, 39
1, 200148, Note_on_c, 0, 74, 0
1, 200164, Note_on_c, 0, 66, 0
1, 200189, Note_on_c, 0, 57, 0
1, 200194, Note_on_c, 0, 86, 0
1, 200273, Control_c, 0, 64, 0
1, 200282, Note_on_c, 0, 85, 97
1, 200287, Note_on_c, 0, 51, 65
1, 200287, Note_on_c, 0, 73, 83
1, 200392, Control_c, 0, 64, 127
1, 200406, Note_on_c, 0, 51, 0
1, 200432, Note_on_c, 0, 66, 58
1, 200446, Note_on_c, 0, 57, 48
1, 200487, Note_on_c, 0, 66, 0
1, 200499, Note_on_c, 0, 57, 0
1, 200512, Note_on_c, 0, 73, 0
1, 200516, Note_on_c, 0, 85, 0
1, 200579, Note_on_c, 0, 84, 101
1, 200585, Note_on_c, 0, 72, 79
1, 200585, Note_on_c, 0, 66, 54
1, 200598, Note_on_c, 0, 57, 31
1, 200630, Note_on_c, 0, 72, 0
1, 200638, Note_on_c, 0, 66, 0
1, 200638, Note_on_c, 0, 84, 0
1, 200657, Note_on_c, 0, 57, 0
1, 200750, Note_on_c, 0, 83, 112
1, 200750, Control_c, 0, 64, 0
1, 200750, Note_on_c, 0, 51, 50
1, 200757, Note_on_c, 0, 71, 83
1, 200883, Control_c, 0, 64, 127
1, 200892, Note_on_c, 0, 66, 51
1, 200899, Note_on_c, 0, 58, 40
1, 200903, Note_on_c, 0, 71, 0
1, 200919, Note_on_c, 0, 83, 0
1, 200936, Note_on_c, 0, 66, 0
1, 200953, Note_on_c, 0, 58, 0
1, 201027, Note_on_c, 0, 82, 80
1, 201033, Note_on_c, 0, 70, 72
1, 201045, Note_on_c, 0, 66, 48
1, 201061, Note_on_c, 0, 58, 34
1, 201070, Note_on_c, 0, 70, 0
1, 201092, Note_on_c, 0, 66, 0
1, 201109, Note_on_c, 0, 58, 0
1, 201126, Note_on_c, 0, 82, 0
1, 201194, Note_on_c, 0, 82, 58
1, 201211, Note_on_c, 0, 70, 61
1, 201267, Control_c, 0, 64, 0
1, 201323, Note_on_c, 0, 51, 0
1, 201329, Note_on_c, 0, 66, 42
1, 201348, Note_on_c, 0, 59, 45
1, 201362, Control_c, 0, 64, 127
1, 201390, Note_on_c, 0, 59, 0
1, 201393, Note_on_c, 0, 66, 0
1, 201432, Note_on_c, 0, 70, 0
1, 201448, Note_on_c, 0, 82, 0
1, 201512, Note_on_c, 0, 81, 70
1, 201512, Note_on_c, 0, 66, 36
1, 201518, Note_on_c, 0, 69, 50
1, 201532, Note_on_c, 0, 60, 47
1, 201566, Note_on_c, 0, 69, 0
1, 201580, Note_on_c, 0, 66, 0
1, 201583, Note_on_c, 0, 60, 0
1, 201621, Note_on_c, 0, 81, 0
1, 201733, Control_c, 0, 64, 0
1, 201752, Note_on_c, 0, 50, 55
1, 201775, Note_on_c, 0, 87, 86
1, 201782, Note_on_c, 0, 75, 66
1, 201853, Control_c, 0, 64, 127
1, 201863, Note_on_c, 0, 50, 0
1, 201978, Note_on_c, 0, 66, 49
1, 201994, Note_on_c, 0, 57, 32
1, 201994, Note_on_c, 0, 60, 47
1, 202039, Note_on_c, 0, 66, 0
1, 202047, Note_on_c, 0, 57, 0
1, 202058, Note_on_c, 0, 60, 0
1, 202083, Note_on_c, 0, 75, 0
1, 202089, Note_on_c, 0, 87, 0
1, 202144, Note_on_c, 0, 86, 80
1, 202154, Note_on_c, 0, 74, 64
1, 202154, Note_on_c, 0, 66, 51
1, 202186, Note_on_c, 0, 57, 29
1, 202198, Note_on_c, 0, 66, 0
1, 202206, Note_on_c, 0, 60, 9
1, 202240, Note_on_c, 0, 57, 0
1, 202253, Note_on_c, 0, 60, 0
1, 202298, Control_c, 0, 64, 0
1, 202306, Note_on_c, 0, 51, 76
1, 202378, Note_on_c, 0, 74, 0
1, 202388, Note_on_c, 0, 86, 0
1, 202406, Control_c, 0, 64, 127
1, 202427, Note_on_c, 0, 51, 0
1, 202468, Note_on_c, 0, 66, 48
1, 202479, Note_on_c, 0, 57, 39
1, 202523, Note_on_c, 0, 66, 0
1, 202529, Note_on_c, 0, 57, 0
1, 202610, Note_on_c, 0, 85, 88
1, 202618, Note_on_c, 0, 73, 65
1, 202636, Note_on_c, 0, 66, 42
1, 202660, Note_on_c, 0, 57, 20
1, 202685, Note_on_c, 0, 66, 0
1, 202716, Note_on_c, 0, 57, 0
1, 202774, Note_on_c, 0, 57, 48
1, 202783, Note_on_c, 0, 66, 35
1, 202858, Note_on_c, 0, 66, 0
1, 202878, Note_on_c, 0, 57, 0
1, 202939, Note_on_c, 0, 66, 32
1, 202939, Note_on_c, 0, 57, 52
1, 203005, Note_on_c, 0, 66, 0
1, 203020, Note_on_c, 0, 73, 0
1, 203030, Note_on_c, 0, 57, 0
1, 203053, Note_on_c, 0, 85, 0
1, 203100, Note_on_c, 0, 57, 37
1, 203106, Note_on_c, 0, 84, 67
1, 203106, Note_on_c, 0, 66, 29
1, 203119, Note_on_c, 0, 72, 41
1, 203165, Note_on_c, 0, 66, 0
1, 203181, Note_on_c, 0, 57, 0
1, 203220, Control_c, 0, 64, 0
1, 203257, Note_on_c, 0, 51, 60
1, 203376, Note_on_c, 0, 51, 0
1, 203376, Control_c, 0, 64, 127
1, 203396, Note_on_c, 0, 72, 0
1, 203406, Note_on_c, 0, 84, 0
1, 203427, Note_on_c, 0, 66, 41
1, 203430, Note_on_c, 0, 58, 37
1, 203484, Note_on_c, 0, 66, 0
1, 203488, Note_on_c, 0, 58, 0
1, 203607, Note_on_c, 0, 83, 95
1, 203619, Note_on_c, 0, 71, 48
1, 203622, Note_on_c, 0, 66, 30
1, 203622, Note_on_c, 0, 58, 22
1, 203675, Note_on_c, 0, 66, 0
1, 203683, Note_on_c, 0, 58, 0
1, 203796, Note_on_c, 0, 66, 28
1, 203796, Note_on_c, 0, 58, 13
1, 203860, Note_on_c, 0, 66, 0
1, 203866, Note_on_c, 0, 58, 0
1, 203874, Note_on_c, 0, 71, 0
1, 203975, Note_on_c, 0, 66, 33
1, 203981, Note_on_c, 0, 58, 20
1, 204045, Note_on_c, 0, 58, 0
1, 204048, Note_on_c, 0, 66, 0
1, 204179, Note_on_c, 0, 58, 28
1, 204186, Note_on_c, 0, 66, 24
1, 204220, Note_on_c, 0, 82, 37
1, 204240, Note_on_c, 0, 66, 0
1, 204240, Note_on_c, 0, 70, 20
1, 204254, Note_on_c, 0, 58, 0
1, 204254, Note_on_c, 0, 83, 0
1, 204335, Control_c, 0, 64, 0
1, 204363, Note_on_c, 0, 51, 48
1, 204466, Control_c, 0, 64, 127
1, 204482, Note_on_c, 0, 51, 0
1, 204543, Note_on_c, 0, 66, 38
1, 204565, Note_on_c, 0, 59, 44
1, 204594, Note_on_c, 0, 66, 0
1, 204602, Note_on_c, 0, 59, 0
1, 204697, Note_on_c, 0, 70, 0
1, 204704, Note_on_c, 0, 66, 36
1, 204722, Note_on_c, 0, 60, 46
1, 204725, Note_on_c, 0, 82, 0
1, 204769, Note_on_c, 0, 60, 0
1, 204769, Note_on_c, 0, 66, 0
1, 204894, Note_on_c, 0, 82, 64
1, 204898, Control_c, 0, 64, 0
1, 204901, Note_on_c, 0, 70, 49
1, 204911, Note_on_c, 0, 66, 28
1, 204911, Note_on_c, 0, 60, 40
1, 204969, Note_on_c, 0, 66, 0
1, 204978, Note_on_c, 0, 60, 0
1, 204994, Control_c, 0, 64, 127
1, 205072, Note_on_c, 0, 60, 31
1, 205072, Note_on_c, 0, 66, 22
1, 205140, Note_on_c, 0, 60, 0
1, 205147, Note_on_c, 0, 66, 0
1, 205273, Note_on_c, 0, 66, 15
1, 205289, Note_on_c, 0, 60, 29
1, 205348, Note_on_c, 0, 66, 0
1, 205352, Note_on_c, 0, 60, 0
1, 205533, Control_c, 0, 64, 0
1, 205560, Note_on_c, 0, 66, 10
1, 205565, Note_on_c, 0, 60, 28
1, 205664, Control_c, 0, 64, 127
1, 205672, Note_on_c, 0, 60, 0
1, 205696, Note_on_c, 0, 66, 0
1, 205950, Note_on_c, 0, 70, 0
1, 206005, Note_on_c, 0, 82, 0
1, 206029, Note_on_c, 0, 81, 48
1, 206053, Note_on_c, 0, 69, 8
1, 206109, Note_on_c, 0, 69, 0
1, 206237, Note_on_c, 0, 82, 55
1, 206249, Note_on_c, 0, 70, 22
1, 206262, Note_on_c, 0, 81, 0
1, 206335, Control_c, 0, 64, 0
1, 206444, Control_c, 0, 64, 127
1, 206473, Note_on_c, 0, 82, 0
1, 206494, Note_on_c, 0, 70, 0
1, 206571, Note_on_c, 0, 81, 55
1, 206583, Note_on_c, 0, 69, 22
1, 206639, Note_on_c, 0, 69, 0
1, 206661, Note_on_c, 0, 81, 0
1, 206764, Note_on_c, 0, 85, 55
1, 206772, Note_on_c, 0, 73, 33
1, 206864, Control_c, 0, 64, 0
1, 207044, Control_c, 0, 64, 127
1, 207123, Note_on_c, 0, 73, 0
1, 207150, Note_on_c, 0, 85, 0
1, 207248, Note_on_c, 0, 84, 40
1, 207259, Control_c, 0, 64, 0
1, 207263, Note_on_c, 0, 72, 15
1, 207451, Control_c, 0, 64, 127
1, 207462, Note_on_c, 0, 72, 0
1, 207526, Note_on_c, 0, 84, 0
1, 207816, Note_on_c, 0, 92, 29
1, 207838, Note_on_c, 0, 80, 20
1, 207942, Control_c, 0, 64, 0
1, 208121, Control_c, 0, 64, 127
1, 208190, Note_on_c, 0, 80, 0
1, 208337, Note_on_c, 0, 92, 0
1, 208708, Note_on_c, 0, 90, 13
1, 208725, Note_on_c, 0, 78, 19
1, 208948, Control_c, 0, 64, 0
1, 208951, Note_on_c, 0, 78, 0
1, 209104, Control_c, 0, 64, 127
1, 209377, Note_on_c, 0, 90, 0
1, 209440, Control_c, 0, 64, 0
1, 209872, Control_c, 0, 64, 127
1, 210413, Note_on_c, 0, 90, 45
1, 210421, Note_on_c, 0, 81, 37
1, 210433, Note_on_c, 0, 87, 14
1, 210443, Note_on_c, 0, 84, 34
1, 210455, Note_on_c, 0, 90, 0
1, 210469, Note_on_c, 0, 81, 0
1, 210474, Note_on_c, 0, 92, 36
1, 210480, Note_on_c, 0, 87, 0
1, 210497, Note_on_c, 0, 84, 0
1, 210516, Note_on_c, 0, 90, 35
1, 210522, Note_on_c, 0, 92, 0
1, 210538, Note_on_c, 0, 81, 23
1, 210554, Note_on_c, 0, 87, 20
1, 210564, Note_on_c, 0, 90, 0
1, 210572, Note_on_c, 0, 84, 60
1, 210583, Note_on_c, 0, 92, 45
1, 210591, Note_on_c, 0, 81, 0
1, 210608, Note_on_c, 0, 87, 0
1, 210624, Note_on_c, 0, 84, 0
1, 210630, Note_on_c, 0, 90, 38
1, 210635, Note_on_c, 0, 92, 0
1, 210644, Note_on_c, 0, 81, 26
1, 210677, Note_on_c, 0, 90, 0
1, 210694, Note_on_c, 0, 92, 52
1, 210694, Note_on_c, 0, 81, 0
1, 210700, Note_on_c, 0, 84, 58
1, 210711, Control_c, 0, 64, 0
1, 210720, Note_on_c, 0, 87, 2
1, 210725, Note_on_c, 0, 90, 62
1, 210736, Note_on_c, 0, 81, 66
1, 210741, Note_on_c, 0, 84, 0
1, 210763, Note_on_c, 0, 92, 0
1, 210763, Note_on_c, 0, 81, 0
1, 210769, Note_on_c, 0, 87, 0
1, 210784, Note_on_c, 0, 90, 0
1, 210847, Note_on_c, 0, 87, 34
1, 210847, Note_on_c, 0, 78, 67
1, 210850, Note_on_c, 0, 84, 65
1, 210880, Note_on_c, 0, 78, 0
1, 210890, Note_on_c, 0, 84, 0
1, 210893, Note_on_c, 0, 87, 0
1, 210958, Note_on_c, 0, 87, 49
1, 210958, Note_on_c, 0, 90, 66
1, 210965, Note_on_c, 0, 81, 41
1, 210993, Note_on_c, 0, 90, 0
1, 210997, Note_on_c, 0, 87, 0
1, 211011, Note_on_c, 0, 81, 0
1, 211078, Note_on_c, 0, 85, 80
1, 211081, Note_on_c, 0, 82, 64
1, 211081, Note_on_c, 0, 89, 64
1, 211115, Note_on_c, 0, 85, 0
1, 211115, Note_on_c, 0, 82, 0
1, 211120, Note_on_c, 0, 89, 0
1, 211187, Note_on_c, 0, 82, 45
1, 211193, Note_on_c, 0, 85, 54
1, 211193, Note_on_c, 0, 77, 52
1, 211227, Note_on_c, 0, 85, 0
1, 211230, Note_on_c, 0, 82, 0
1, 211230, Note_on_c, 0, 77, 0
1, 211304, Note_on_c, 0, 89, 73
1, 211304, Note_on_c, 0, 85, 44
1, 211310, Note_on_c, 0, 82, 48
1, 211340, Note_on_c, 0, 89, 0
1, 211340, Note_on_c, 0, 85, 0
1, 211344, Note_on_c, 0, 82, 0
1, 211427, Note_on_c, 0, 85, 51
1, 211427, Note_on_c, 0, 77, 66
1, 211432, Note_on_c, 0, 82, 50
1, 211458, Note_on_c, 0, 77, 0
1, 211466, Note_on_c, 0, 85, 0
1, 211471, Note_on_c, 0, 82, 0
1, 211532, Note_on_c, 0, 82, 52
1, 211543, Note_on_c, 0, 73, 47
1, 211549, Note_on_c, 0, 77, 10
1, 211571, Note_on_c, 0, 82, 0
1, 211582, Note_on_c, 0, 73, 0
1, 211599, Note_on_c, 0, 77, 0
1, 211647, Note_on_c, 0, 85, 71
1, 211658, Note_on_c, 0, 77, 54
1, 211658, Note_on_c, 0, 82, 28
1, 211678, Note_on_c, 0, 85, 0
1, 211694, Note_on_c, 0, 77, 0
1, 211716, Note_on_c, 0, 82, 0
1, 211769, Note_on_c, 0, 82, 62
1, 211769, Note_on_c, 0, 73, 47
1, 211773, Note_on_c, 0, 78, 78
1, 211800, Control_c, 0, 64, 127
1, 211806, Note_on_c, 0, 78, 0
1, 211806, Note_on_c, 0, 73, 0
1, 211806, Note_on_c, 0, 76, 62
1, 211825, Note_on_c, 0, 84, 67
1, 211825, Note_on_c, 0, 82, 0
1, 211848, Note_on_c, 0, 76, 0
1, 211859, Note_on_c, 0, 73, 44
1, 211869, Note_on_c, 0, 84, 0
1, 211873, Note_on_c, 0, 78, 44
1, 211876, Note_on_c, 0, 82, 58
1, 211912, Note_on_c, 0, 76, 43
1, 211912, Note_on_c, 0, 73, 0
1, 211918, Note_on_c, 0, 82, 0
1, 211921, Note_on_c, 0, 78, 0
1, 211936, Note_on_c, 0, 84, 55
1, 211972, Note_on_c, 0, 78, 60
1, 211972, Note_on_c, 0, 73, 51
1, 211972, Note_on_c, 0, 76, 0
1, 211976, Note_on_c, 0, 82, 50
1, 211996, Note_on_c, 0, 84, 0
1, 212021, Note_on_c, 0, 82, 0
1, 212029, Note_on_c, 0, 73, 0
1, 212039, Note_on_c, 0, 78, 0
1, 212046, Note_on_c, 0, 76, 35
1, 212053, Control_c, 0, 64, 0
1, 212056, Note_on_c, 0, 84, 62
1, 212087, Note_on_c, 0, 78, 75
1, 212093, Note_on_c, 0, 82, 61
1, 212106, Note_on_c, 0, 73, 57
1, 212123, Note_on_c, 0, 76, 0
1, 212128, Note_on_c, 0, 84, 0
1, 212145, Note_on_c, 0, 78, 0
1, 212151, Note_on_c, 0, 73, 0
1, 212156, Note_on_c, 0, 82, 0
1, 212210, Note_on_c, 0, 78, 60
1, 212218, Note_on_c, 0, 70, 49
1, 212218, Note_on_c, 0, 76, 48
1, 212246, Note_on_c, 0, 78, 0
1, 212259, Note_on_c, 0, 70, 0
1, 212259, Note_on_c, 0, 76, 0
1, 212327, Note_on_c, 0, 82, 73
1, 212327, Note_on_c, 0, 78, 49
1, 212340, Note_on_c, 0, 73, 55
1, 212362, Note_on_c, 0, 82, 0
1, 212362, Note_on_c, 0, 78, 0
1, 212376, Note_on_c, 0, 73, 0
1, 212450, Note_on_c, 0, 77, 61
1, 212450, Note_on_c, 0, 85, 73
1, 212454, Note_on_c, 0, 82, 57
1, 212483, Note_on_c, 0, 85, 0
1, 212483, Note_on_c, 0, 77, 0
1, 212486, Note_on_c, 0, 82, 0
1, 212549, Note_on_c, 0, 77, 49
1, 212553, Note_on_c, 0, 82, 36
1, 212564, Note_on_c, 0, 73, 55
1, 212594, Note_on_c, 0, 82, 0
1, 212602, Note_on_c, 0, 73, 0
1, 212605, Note_on_c, 0, 77, 0
1, 212666, Note_on_c, 0, 77, 60
1, 212677, Note_on_c, 0, 85, 67
1, 212694, Note_on_c, 0, 82, 22
1, 212700, Note_on_c, 0, 77, 0
1, 212706, Note_on_c, 0, 85, 0
1, 212750, Note_on_c, 0, 82, 0
1, 212792, Note_on_c, 0, 82, 72
1, 212792, Note_on_c, 0, 73, 56
1, 212805, Note_on_c, 0, 77, 56
1, 212831, Note_on_c, 0, 73, 0
1, 212837, Note_on_c, 0, 77, 0
1, 212850, Note_on_c, 0, 82, 0
1, 212883, Note_on_c, 0, 73, 52
1, 212887, Note_on_c, 0, 77, 69
1, 212901, Note_on_c, 0, 70, 40
1, 212925, Note_on_c, 0, 77, 0
1, 212929, Note_on_c, 0, 73, 0
1, 212951, Note_on_c, 0, 70, 0
1, 213006, Note_on_c, 0, 73, 46
1, 213006, Note_on_c, 0, 82, 69
1, 213014, Note_on_c, 0, 77, 53
1, 213043, Note_on_c, 0, 82, 0
1, 213043, Note_on_c, 0, 73, 0
1, 213046, Note_on_c, 0, 77, 0
1, 213126, Note_on_c, 0, 69, 61
1, 213126, Note_on_c, 0, 75, 80
1, 213138, Note_on_c, 0, 78, 75
1, 213165, Note_on_c, 0, 78, 0
1, 213168, Note_on_c, 0, 69, 0
1, 213168, Note_on_c, 0, 80, 67
1, 213171, Note_on_c, 0, 75, 0
1, 213181, Note_on_c, 0, 72, 74
1, 213191, Control_c, 0, 64, 127
1, 213209, Note_on_c, 0, 80, 0
1, 213216, Note_on_c, 0, 72, 0
1, 213230, Note_on_c, 0, 78, 26
1, 213241, Note_on_c, 0, 75, 54
1, 213249, Note_on_c, 0, 69, 33
1, 213271, Note_on_c, 0, 78, 0
1, 213276, Note_on_c, 0, 75, 0
1, 213294, Note_on_c, 0, 72, 57
1, 213298, Note_on_c, 0, 69, 0
1, 213316, Note_on_c, 0, 80, 55
1, 213341, Note_on_c, 0, 78, 58
1, 213351, Note_on_c, 0, 80, 0
1, 213351, Note_on_c, 0, 75, 44
1, 213351, Note_on_c, 0, 69, 43
1, 213369, Note_on_c, 0, 72, 0
1, 213388, Note_on_c, 0, 78, 0
1, 213388, Note_on_c, 0, 75, 0
1, 213404, Note_on_c, 0, 80, 51
1, 213411, Note_on_c, 0, 69, 0
1, 213441, Note_on_c, 0, 72, 57
1, 213450, Note_on_c, 0, 75, 55
1, 213468, Control_c, 0, 64, 0
1, 213468, Note_on_c, 0, 78, 66
1, 213486, Note_on_c, 0, 69, 52
1, 213491, Note_on_c, 0, 80, 0
1, 213507, Note_on_c, 0, 72, 0
1, 213507, Note_on_c, 0, 78, 0
1, 213522, Note_on_c, 0, 69, 0
1, 213535, Note_on_c, 0, 75, 0
1, 213580, Note_on_c, 0, 75, 73
1, 213594, Note_on_c, 0, 72, 43
1, 213616, Note_on_c, 0, 66, 17
1, 213620, Note_on_c, 0, 75, 0
1, 213634, Note_on_c, 0, 72, 0
1, 213664, Note_on_c, 0, 66, 0
1, 213695, Note_on_c, 0, 78, 78
1, 213698, Note_on_c, 0, 69, 55
1, 213698, Note_on_c, 0, 75, 61
1, 213733, Note_on_c, 0, 78, 0
1, 213733, Note_on_c, 0, 75, 0
1, 213736, Note_on_c, 0, 69, 0
1, 213819, Note_on_c, 0, 77, 75
1, 213822, Note_on_c, 0, 73, 79
1, 213828, Note_on_c, 0, 70, 65
1, 213859, Note_on_c, 0, 70, 0
1, 213859, Note_on_c, 0, 77, 0
1, 213875, Note_on_c, 0, 73, 0
1, 213925, Note_on_c, 0, 70, 35
1, 213932, Note_on_c, 0, 73, 60
1, 213943, Note_on_c, 0, 65, 59
1, 213968, Note_on_c, 0, 73, 0
1, 213982, Note_on_c, 0, 70, 0
1, 213982, Note_on_c, 0, 65, 0
1, 214053, Note_on_c, 0, 77, 70
1, 214057, Note_on_c, 0, 73, 54
1, 214060, Note_on_c, 0, 70, 53
1, 214087, Note_on_c, 0, 77, 0
1, 214095, Note_on_c, 0, 73, 0
1, 214095, Note_on_c, 0, 70, 0
1, 214166, Note_on_c, 0, 73, 55
1, 214173, Note_on_c, 0, 70, 39
1, 214181, Note_on_c, 0, 65, 61
1, 214212, Note_on_c, 0, 65, 0
1, 214218, Note_on_c, 0, 73, 0
1, 214218, Note_on_c, 0, 70, 0
1, 214276, Note_on_c, 0, 70, 57
1, 214280, Note_on_c, 0, 65, 37
1, 214280, Note_on_c, 0, 61, 67
1, 214315, Note_on_c, 0, 61, 0
1, 214315, Note_on_c, 0, 70, 0
1, 214322, Note_on_c, 0, 65, 0
1, 214393, Note_on_c, 0, 73, 72
1, 214393, Note_on_c, 0, 65, 49
1, 214397, Note_on_c, 0, 70, 41
1, 214425, Note_on_c, 0, 73, 0
1, 214433, Note_on_c, 0, 65, 0
1, 214436, Note_on_c, 0, 70, 0
1, 214511, Note_on_c, 0, 61, 66
1, 214516, Note_on_c, 0, 66, 82
1, 214519, Note_on_c, 0, 70, 50
1, 214556, Note_on_c, 0, 61, 0
1, 214567, Note_on_c, 0, 70, 0
1, 214567, Note_on_c, 0, 64, 75
1, 214570, Control_c, 0, 64, 127
1, 214573, Note_on_c, 0, 72, 65
1, 214577, Note_on_c, 0, 66, 0
1, 214614, Note_on_c, 0, 64, 0
1, 214625, Note_on_c, 0, 70, 53
1, 214625, Note_on_c, 0, 66, 56
1, 214628, Note_on_c, 0, 72, 0
1, 214628, Note_on_c, 0, 61, 60
1, 214672, Note_on_c, 0, 66, 0
1, 214672, Note_on_c, 0, 70, 0
1, 214677, Note_on_c, 0, 61, 0
1, 214691, Note_on_c, 0, 64, 56
1, 214698, Note_on_c, 0, 72, 49
1, 214726, Note_on_c, 0, 70, 57
1, 214733, Note_on_c, 0, 66, 41
1, 214745, Note_on_c, 0, 61, 57
1, 214745, Note_on_c, 0, 72, 0
1, 214748, Note_on_c, 0, 64, 0
1, 214790, Note_on_c, 0, 70, 0
1, 214797, Note_on_c, 0, 66, 0
1, 214803, Note_on_c, 0, 61, 0
1, 214808, Note_on_c, 0, 72, 53
1, 214819, Note_on_c, 0, 64, 66
1, 214833, Control_c, 0, 64, 0
1, 214845, Note_on_c, 0, 66, 71
1, 214845, Note_on_c, 0, 70, 66
1, 214858, Note_on_c, 0, 61, 72
1, 214878, Note_on_c, 0, 64, 0
1, 214889, Note_on_c, 0, 72, 0
1, 214923, Note_on_c, 0, 61, 0
1, 214928, Note_on_c, 0, 66, 0
1, 214946, Note_on_c, 0, 70, 0
1, 214964, Note_on_c, 0, 58, 62
1, 214973, Note_on_c, 0, 66, 67
1, 214978, Note_on_c, 0, 64, 57
1, 215006, Note_on_c, 0, 66, 0
1, 215012, Note_on_c, 0, 58, 0
1, 215015, Note_on_c, 0, 64, 0
1, 215084, Note_on_c, 0, 70, 73
1, 215084, Note_on_c, 0, 66, 48
1, 215099, Note_on_c, 0, 61, 67
1, 215120, Note_on_c, 0, 66, 0
1, 215129, Note_on_c, 0, 70, 0
1, 215137, Note_on_c, 0, 61, 0
1, 215205, Note_on_c, 0, 73, 72
1, 215209, Note_on_c, 0, 70, 63
1, 215209, Note_on_c, 0, 65, 66
1, 215243, Note_on_c, 0, 73, 0
1, 215243, Note_on_c, 0, 65, 0
1, 215249, Note_on_c, 0, 70, 0
1, 215310, Note_on_c, 0, 65, 42
1, 215318, Note_on_c, 0, 70, 42
1, 215318, Note_on_c, 0, 61, 68
1, 215358, Note_on_c, 0, 65, 0
1, 215358, Note_on_c, 0, 70, 0
1, 215358, Note_on_c, 0, 61, 0
1, 215428, Note_on_c, 0, 73, 67
1, 215428, Note_on_c, 0, 65, 48
1, 215436, Note_on_c, 0, 70, 33
1, 215461, Note_on_c, 0, 73, 0
1, 215466, Note_on_c, 0, 65, 0
1, 215477, Note_on_c, 0, 70, 0
1, 215542, Note_on_c, 0, 65, 59
1, 215542, Note_on_c, 0, 70, 45
1, 215556, Note_on_c, 0, 61, 69
1, 215588, Note_on_c, 0, 65, 0
1, 215588, Note_on_c, 0, 70, 0
1, 215588, Note_on_c, 0, 61, 0
1, 215644, Note_on_c, 0, 61, 59
1, 215655, Note_on_c, 0, 65, 55
1, 215666, Note_on_c, 0, 58, 50
1, 215691, Note_on_c, 0, 65, 0
1, 215691, Note_on_c, 0, 61, 0
1, 215709, Note_on_c, 0, 58, 0
1, 215762, Note_on_c, 0, 65, 50
1, 215762, Note_on_c, 0, 70, 65
1, 215773, Note_on_c, 0, 61, 57
1, 215797, Note_on_c, 0, 65, 0
1, 215801, Note_on_c, 0, 70, 0
1, 215814, Note_on_c, 0, 61, 0
1, 215895, Note_on_c, 0, 57, 60
1, 215898, Note_on_c, 0, 63, 83
1, 215904, Note_on_c, 0, 66, 66
1, 215934, Note_on_c, 0, 57, 0
1, 215934, Note_on_c, 0, 63, 0
1, 215939, Note_on_c, 0, 66, 0
1, 215951, Note_on_c, 0, 68, 59
1, 215951, Note_on_c, 0, 60, 67
1, 215984, Control_c, 0, 64, 127
1, 215993, Note_on_c, 0, 68, 0
1, 215993, Note_on_c, 0, 60, 0
1, 216004, Note_on_c, 0, 66, 45
1, 216013, Note_on_c, 0, 63, 49
1, 216020, Note_on_c, 0, 57, 38
1, 216048, Note_on_c, 0, 63, 0
1, 216051, Note_on_c, 0, 66, 0
1, 216074, Note_on_c, 0, 57, 0
1, 216087, Note_on_c, 0, 68, 46
1, 216087, Note_on_c, 0, 60, 45
1, 216124, Note_on_c, 0, 63, 44
1, 216129, Note_on_c, 0, 66, 45
1, 216134, Note_on_c, 0, 68, 0
1, 216137, Note_on_c, 0, 57, 44
1, 216160, Note_on_c, 0, 60, 0
1, 216165, Note_on_c, 0, 63, 0
1, 216171, Note_on_c, 0, 66, 0
1, 216188, Note_on_c, 0, 68, 49
1, 216193, Note_on_c, 0, 57, 0
1, 216212, Control_c, 0, 64, 0
1, 216216, Note_on_c, 0, 60, 64
1, 216233, Note_on_c, 0, 63, 65
1, 216243, Note_on_c, 0, 66, 44
1, 216246, Note_on_c, 0, 57, 63
1, 216285, Note_on_c, 0, 60, 0
1, 216285, Note_on_c, 0, 68, 0
1, 216285, Note_on_c, 0, 57, 0
1, 216290, Note_on_c, 0, 66, 0
1, 216307, Note_on_c, 0, 63, 0
1, 216360, Note_on_c, 0, 63, 76
1, 216366, Note_on_c, 0, 60, 53
1, 216374, Note_on_c, 0, 54, 78
1, 216404, Note_on_c, 0, 63, 0
1, 216407, Note_on_c, 0, 54, 0
1, 216407, Note_on_c, 0, 60, 0
1, 216483, Note_on_c, 0, 66, 65
1, 216483, Note_on_c, 0, 57, 62
1, 216496, Note_on_c, 0, 63, 45
1, 216522, Note_on_c, 0, 57, 0
1, 216533, Note_on_c, 0, 63, 0
1, 216538, Note_on_c, 0, 66, 0
1, 216627, Note_on_c, 0, 63, 67
1, 216627, Note_on_c, 0, 57, 66
1, 216638, Note_on_c, 0, 66, 62
1, 216669, Note_on_c, 0, 63, 0
1, 216669, Note_on_c, 0, 57, 0
1, 216669, Note_on_c, 0, 66, 0
1, 216676, Note_on_c, 0, 68, 64
1, 216686, Note_on_c, 0, 60, 65
1, 216714, Note_on_c, 0, 68, 0
1, 216726, Control_c, 0, 64, 127
1, 216742, Note_on_c, 0, 63, 55
1, 216746, Note_on_c, 0, 66, 36
1, 216751, Note_on_c, 0, 60, 0
1, 216754, Note_on_c, 0, 57, 44
1, 216783, Note_on_c, 0, 63, 0
1, 216790, Note_on_c, 0, 66, 0
1, 216809, Note_on_c, 0, 57, 0
1, 216823, Note_on_c, 0, 68, 49
1, 216823, Note_on_c, 0, 60, 51
1, 216861, Note_on_c, 0, 63, 50
1, 216865, Note_on_c, 0, 66, 34
1, 216868, Note_on_c, 0, 68, 0
1, 216868, Note_on_c, 0, 57, 41
1, 216872, Note_on_c, 0, 60, 0
1, 216904, Note_on_c, 0, 63, 0
1, 216909, Note_on_c, 0, 66, 0
1, 216923, Note_on_c, 0, 68, 48
1, 216923, Note_on_c, 0, 57, 0
1, 216942, Note_on_c, 0, 60, 54
1, 216942, Control_c, 0, 64, 0
1, 216964, Note_on_c, 0, 63, 71
1, 216964, Note_on_c, 0, 66, 47
1, 216978, Note_on_c, 0, 57, 63
1, 216995, Note_on_c, 0, 60, 0
1, 217010, Note_on_c, 0, 68, 0
1, 217013, Note_on_c, 0, 57, 0
1, 217023, Note_on_c, 0, 66, 0
1, 217038, Note_on_c, 0, 63, 0
1, 217095, Note_on_c, 0, 63, 66
1, 217095, Note_on_c, 0, 54, 72
1, 217106, Note_on_c, 0, 60, 60
1, 217137, Note_on_c, 0, 54, 0
1, 217137, Note_on_c, 0, 63, 0
1, 217146, Note_on_c, 0, 60, 0
1, 217223, Note_on_c, 0, 57, 51
1, 217223, Note_on_c, 0, 63, 60
1, 217227, Note_on_c, 0, 66, 56
1, 217260, Note_on_c, 0, 57, 0
1, 217268, Note_on_c, 0, 63, 0
1, 217321, Note_on_c, 0, 66, 0
1, 217622, Note_on_c, 0, 75, 62
1, 217622, Note_on_c, 0, 69, 43
1, 217628, Note_on_c, 0, 78, 59
1, 217642, Note_on_c, 0, 72, 51
1, 217661, Note_on_c, 0, 78, 0
1, 217664, Note_on_c, 0, 75, 0
1, 217667, Note_on_c, 0, 80, 59
1, 217672, Note_on_c, 0, 69, 0
1, 217709, Control_c, 0, 64, 127
1, 217715, Note_on_c, 0, 80, 0
1, 217722, Note_on_c, 0, 69, 50
1, 217722, Note_on_c, 0, 72, 0
1, 217729, Note_on_c, 0, 75, 49
1, 217729, Note_on_c, 0, 78, 31
1, 217772, Note_on_c, 0, 75, 0
1, 217772, Note_on_c, 0, 78, 0
1, 217772, Note_on_c, 0, 69, 0
1, 217781, Control_c, 0, 64, 0
1, 217792, Note_on_c, 0, 80, 59
1, 217801, Note_on_c, 0, 72, 43
1, 217840, Note_on_c, 0, 75, 45
1, 217848, Note_on_c, 0, 69, 48
1, 217848, Note_on_c, 0, 78, 33
1, 217859, Note_on_c, 0, 72, 0
1, 217878, Note_on_c, 0, 80, 0
1, 217878, Note_on_c, 0, 75, 0
1, 217887, Note_on_c, 0, 69, 0
1, 217891, Note_on_c, 0, 78, 0
1, 218024, Note_on_c, 0, 87, 54
1, 218024, Note_on_c, 0, 90, 62
1, 218027, Note_on_c, 0, 81, 65
1, 218060, Note_on_c, 0, 87, 0
1, 218063, Note_on_c, 0, 90, 0
1, 218066, Note_on_c, 0, 81, 0
1, 218085, Note_on_c, 0, 92, 54
1, 218098, Note_on_c, 0, 84, 49
1, 218134, Note_on_c, 0, 92, 0
1, 218134, Note_on_c, 0, 84, 0
1, 218134, Note_on_c, 0, 90, 38
1, 218140, Note_on_c, 0, 87, 23
1, 218148, Note_on_c, 0, 81, 42
1, 218177, Note_on_c, 0, 90, 0
1, 218187, Note_on_c, 0, 87, 0
1, 218194, Note_on_c, 0, 84, 48
1, 218212, Note_on_c, 0, 81, 0
1, 218215, Note_on_c, 0, 92, 36
1, 218247, Note_on_c, 0, 90, 36
1, 218252, Note_on_c, 0, 87, 34
1, 218261, Note_on_c, 0, 92, 0
1, 218265, Note_on_c, 0, 84, 0
1, 218276, Note_on_c, 0, 81, 48
1, 218294, Note_on_c, 0, 90, 0
1, 218297, Note_on_c, 0, 87, 0
1, 218319, Note_on_c, 0, 81, 0
1, 218442, Note_on_c, 0, 69, 54
1, 218445, Note_on_c, 0, 75, 61
1, 218445, Note_on_c, 0, 78, 64
1, 218480, Note_on_c, 0, 78, 0
1, 218485, Note_on_c, 0, 75, 0
1, 218485, Note_on_c, 0, 69, 0
1, 218494, Note_on_c, 0, 80, 54
1, 218494, Note_on_c, 0, 72, 47
1, 218545, Note_on_c, 0, 80, 0
1, 218545, Note_on_c, 0, 72, 0
1, 218545, Note_on_c, 0, 69, 39
1, 218548, Note_on_c, 0, 78, 32
1, 218548, Note_on_c, 0, 75, 41
1, 218591, Note_on_c, 0, 75, 0
1, 218591, Note_on_c, 0, 78, 0
1, 218603, Note_on_c, 0, 80, 56
1, 218608, Note_on_c, 0, 69, 0
1, 218623, Note_on_c, 0, 72, 27
1, 218644, Control_c, 0, 64, 127
1, 218655, Note_on_c, 0, 78, 39
1, 218665, Note_on_c, 0, 75, 31
1, 218670, Note_on_c, 0, 80, 0
1, 218670, Note_on_c, 0, 69, 43
1, 218673, Note_on_c, 0, 72, 0
1, 218704, Control_c, 0, 64, 0
1, 218709, Note_on_c, 0, 75, 0
1, 218714, Note_on_c, 0, 78, 0
1, 218714, Note_on_c, 0, 69, 0
1, 218873, Note_on_c, 0, 81, 45
1, 218881, Note_on_c, 0, 90, 46
1, 218881, Note_on_c, 0, 87, 36
1, 218923, Note_on_c, 0, 90, 0
1, 218923, Note_on_c, 0, 81, 0
1, 218923, Note_on_c, 0, 87, 0
1, 218923, Note_on_c, 0, 84, 52
1, 218932, Note_on_c, 0, 92, 43
1, 218956, Control_c, 0, 64, 127
1, 218963, Note_on_c, 0, 84, 0
1, 218978, Note_on_c, 0, 90, 37
1, 218981, Note_on_c, 0, 92, 0
1, 218988, Note_on_c, 0, 87, 24
1, 219024, Note_on_c, 0, 84, 46
1, 219035, Note_on_c, 0, 90, 0
1, 219048, Note_on_c, 0, 87, 0
1, 219059, Note_on_c, 0, 92, 22
1, 219063, Control_c, 0, 64, 0
1, 219101, Note_on_c, 0, 84, 0
1, 219101, Note_on_c, 0, 90, 32
1, 219113, Note_on_c, 0, 87, 37
1, 219119, Note_on_c, 0, 81, 40
1, 219126, Note_on_c, 0, 92, 0
1, 219166, Note_on_c, 0, 81, 0
1, 219229, Note_on_c, 0, 90, 0
1, 219233, Note_on_c, 0, 87, 0
1, 219987, Control_c, 0, 64, 127
1, 220185, Note_on_c, 0, 78, 45
1, 220215, Note_on_c, 0, 66, 10
1, 220541, Note_on_c, 0, 45, 16
1, 220630, Note_on_c, 0, 66, 0
1, 220697, Note_on_c, 0, 78, 0
1, 220723, Note_on_c, 0, 51, 26
1, 220764, Note_on_c, 0, 45, 0
1, 220871, Note_on_c, 0, 54, 45
1, 220895, Note_on_c, 0, 51, 0
1, 220903, Note_on_c, 0, 77, 58
1, 220920, Note_on_c, 0, 65, 40
1, 220956, Note_on_c, 0, 54, 0
1, 221021, Note_on_c, 0, 59, 39
1, 221088, Note_on_c, 0, 59, 0
1, 221093, Note_on_c, 0, 65, 0
1, 221116, Note_on_c, 0, 63, 69
1, 221158, Note_on_c, 0, 63, 0
1, 221197, Note_on_c, 0, 77, 0
1, 221221, Note_on_c, 0, 59, 47
1, 221275, Note_on_c, 0, 59, 0
1, 221307, Note_on_c, 0, 78, 92
1, 221310, Note_on_c, 0, 54, 51
1, 221319, Note_on_c, 0, 66, 63
1, 221360, Note_on_c, 0, 66, 0
1, 221364, Note_on_c, 0, 54, 0
1, 221394, Note_on_c, 0, 51, 40
1, 221444, Note_on_c, 0, 51, 0
1, 221463, Note_on_c, 0, 78, 0
1, 221483, Note_on_c, 0, 45, 46
1, 221594, Note_on_c, 0, 51, 27
1, 221700, Control_c, 0, 64, 0
1, 221715, Note_on_c, 0, 85, 86
1, 221719, Note_on_c, 0, 54, 55
1, 221734, Note_on_c, 0, 45, 0
1, 221734, Note_on_c, 0, 73, 40
1, 221786, Note_on_c, 0, 51, 0
1, 221826, Note_on_c, 0, 54, 0
1, 221832, Control_c, 0, 64, 127
1, 221856, Note_on_c, 0, 59, 42
1, 221985, Note_on_c, 0, 59, 0
1, 221985, Note_on_c, 0, 63, 60
1, 221999, Note_on_c, 0, 85, 0
1, 222065, Note_on_c, 0, 73, 0
1, 222102, Note_on_c, 0, 61, 57
1, 222112, Note_on_c, 0, 63, 0
1, 222144, Note_on_c, 0, 61, 0
1, 222205, Note_on_c, 0, 59, 39
1, 222222, Note_on_c, 0, 79, 85
1, 222236, Note_on_c, 0, 67, 34
1, 222327, Note_on_c, 0, 51, 44
1, 222327, Note_on_c, 0, 59, 0
1, 222366, Note_on_c, 0, 67, 0
1, 222378, Note_on_c, 0, 51, 0
1, 222425, Note_on_c, 0, 44, 72
1, 222492, Control_c, 0, 64, 0
1, 222512, Note_on_c, 0, 79, 0
1, 222550, Note_on_c, 0, 52, 76
1, 222611, Control_c, 0, 64, 127
1, 222667, Note_on_c, 0, 44, 0
1, 222673, Note_on_c, 0, 52, 0
1, 222687, Note_on_c, 0, 80, 86
1, 222692, Note_on_c, 0, 68, 63
1, 222700, Note_on_c, 0, 56, 51
1, 222740, Note_on_c, 0, 56, 0
1, 222743, Note_on_c, 0, 68, 0
1, 222826, Note_on_c, 0, 59, 71
1, 222874, Note_on_c, 0, 80, 0
1, 222918, Note_on_c, 0, 72, 86
1, 222952, Note_on_c, 0, 59, 0
1, 222971, Control_c, 0, 64, 0
1, 222977, Note_on_c, 0, 68, 57
1, 222994, Note_on_c, 0, 64, 37
1, 223102, Control_c, 0, 64, 127
1, 223116, Note_on_c, 0, 68, 0
1, 223122, Note_on_c, 0, 74, 74
1, 223130, Note_on_c, 0, 72, 0
1, 223140, Note_on_c, 0, 64, 0
1, 223154, Note_on_c, 0, 74, 0
1, 223185, Note_on_c, 0, 72, 70
1, 223235, Note_on_c, 0, 72, 0
1, 223246, Note_on_c, 0, 68, 47
1, 223250, Note_on_c, 0, 74, 66
1, 223285, Note_on_c, 0, 74, 0
1, 223285, Note_on_c, 0, 64, 30
1, 223299, Note_on_c, 0, 72, 71
1, 223302, Note_on_c, 0, 68, 0
1, 223330, Note_on_c, 0, 64, 0
1, 223335, Note_on_c, 0, 72, 0
1, 223344, Note_on_c, 0, 74, 67
1, 223391, Note_on_c, 0, 72, 54
1, 223391, Note_on_c, 0, 74, 0
1, 223430, Note_on_c, 0, 72, 0
1, 223442, Note_on_c, 0, 74, 91
1, 223466, Note_on_c, 0, 68, 48
1, 223481, Note_on_c, 0, 64, 41
1, 223486, Control_c, 0, 64, 0
1, 223500, Note_on_c, 0, 72, 62
1, 223514, Note_on_c, 0, 74, 0
1, 223579, Note_on_c, 0, 72, 0
1, 223583, Note_on_c, 0, 71, 79
1, 223634, Note_on_c, 0, 71, 0
1, 223647, Note_on_c, 0, 70, 72
1, 223696, Note_on_c, 0, 70, 0
1, 223718, Note_on_c, 0, 71, 75
1, 223762, Note_on_c, 0, 71, 0
1, 223789, Note_on_c, 0, 76, 69
1, 223849, Note_on_c, 0, 76, 0
1, 223870, Note_on_c, 0, 78, 63
1, 223906, Note_on_c, 0, 59, 25
1, 223943, Note_on_c, 0, 80, 68
1, 223948, Note_on_c, 0, 78, 0
1, 223971, Note_on_c, 0, 80, 0
1, 224015, Note_on_c, 0, 83, 72
1, 224049, Note_on_c, 0, 83, 0
1, 224097, Control_c, 0, 64, 127
1, 224104, Note_on_c, 0, 88, 56
1, 224144, Note_on_c, 0, 88, 0
1, 224196, Note_on_c, 0, 90, 56
1, 224202, Note_on_c, 0, 64, 0
1, 224221, Note_on_c, 0, 68, 0
1, 224236, Note_on_c, 0, 90, 0
1, 224271, Note_on_c, 0, 59, 0
1, 224285, Note_on_c, 0, 92, 61
1, 224448, Note_on_c, 0, 92, 0
1, 224515, Note_on_c, 0, 45, 46
1, 224564, Control_c, 0, 64, 0
1, 224656, Note_on_c, 0, 51, 42
1, 224709, Note_on_c, 0, 45, 0
1, 224720, Control_c, 0, 64, 127
1, 224753, Note_on_c, 0, 54, 55
1, 224767, Note_on_c, 0, 51, 0
1, 224815, Note_on_c, 0, 54, 0
1, 224857, Note_on_c, 0, 89, 79
1, 224865, Note_on_c, 0, 77, 53
1, 224865, Note_on_c, 0, 59, 45
1, 224913, Note_on_c, 0, 59, 0
1, 224965, Note_on_c, 0, 63, 66
1, 225002, Note_on_c, 0, 77, 0
1, 225010, Note_on_c, 0, 63, 0
1, 225060, Note_on_c, 0, 66, 58
1, 225090, Note_on_c, 0, 89, 0
1, 225143, Note_on_c, 0, 66, 0
1, 225150, Note_on_c, 0, 63, 68
1, 225182, Note_on_c, 0, 63, 0
1, 225258, Note_on_c, 0, 59, 30
1, 225269, Note_on_c, 0, 90, 89
1, 225281, Note_on_c, 0, 78, 60
1, 225310, Note_on_c, 0, 59, 0
1, 225317, Note_on_c, 0, 54, 69
1, 225320, Note_on_c, 0, 78, 0
1, 225359, Note_on_c, 0, 54, 0
1, 225386, Note_on_c, 0, 51, 41
1, 225430, Note_on_c, 0, 90, 0
1, 225430, Note_on_c, 0, 51, 0
1, 225455, Note_on_c, 0, 45, 67
1, 225556, Note_on_c, 0, 51, 65
1, 225576, Note_on_c, 0, 45, 0
1, 225632, Note_on_c, 0, 54, 75
1, 225648, Note_on_c, 0, 51, 0
1, 225698, Note_on_c, 0, 54, 0
1, 225749, Note_on_c, 0, 59, 61
1, 225756, Note_on_c, 0, 97, 86
1, 225765, Note_on_c, 0, 85, 68
1, 225793, Note_on_c, 0, 59, 0
1, 225860, Note_on_c, 0, 63, 65
1, 225876, Note_on_c, 0, 85, 0
1, 225907, Note_on_c, 0, 63, 0
1, 225934, Note_on_c, 0, 97, 0
1, 225951, Note_on_c, 0, 66, 61
1, 226012, Note_on_c, 0, 66, 0
1, 226029, Note_on_c, 0, 63, 62
1, 226068, Note_on_c, 0, 63, 0
1, 226105, Note_on_c, 0, 59, 57
1, 226153, Note_on_c, 0, 59, 0
1, 226188, Note_on_c, 0, 63, 61
1, 226236, Note_on_c, 0, 63, 0
1, 226252, Note_on_c, 0, 91, 64
1, 226256, Note_on_c, 0, 79, 55
1, 226297, Note_on_c, 0, 67, 30
1, 226353, Note_on_c, 0, 67, 0
1, 226420, Note_on_c, 0, 44, 80
1, 226434, Control_c, 0, 64, 0
1, 226506, Note_on_c, 0, 79, 0
1, 226536, Note_on_c, 0, 52, 71
1, 226553, Note_on_c, 0, 44, 0
1, 226553, Control_c, 0, 64, 127
1, 226570, Note_on_c, 0, 91, 0
1, 226579, Note_on_c, 0, 52, 0
1, 226609, Note_on_c, 0, 56, 58
1, 226645, Note_on_c, 0, 56, 0
1, 226718, Note_on_c, 0, 59, 74
1, 226749, Note_on_c, 0, 92, 76
1, 226756, Note_on_c, 0, 80, 60
1, 226805, Note_on_c, 0, 80, 0
1, 226838, Note_on_c, 0, 64, 73
1, 226863, Note_on_c, 0, 59, 0
1, 226877, Note_on_c, 0, 92, 0
1, 226944, Note_on_c, 0, 84, 92
1, 226985, Control_c, 0, 64, 0
1, 226994, Note_on_c, 0, 72, 65
1, 227013, Note_on_c, 0, 68, 47
1, 227021, Note_on_c, 0, 64, 0
1, 227105, Control_c, 0, 64, 127
1, 227119, Note_on_c, 0, 86, 81
1, 227122, Note_on_c, 0, 84, 0
1, 227147, Note_on_c, 0, 68, 0
1, 227157, Note_on_c, 0, 86, 0
1, 227163, Note_on_c, 0, 72, 0
1, 227200, Note_on_c, 0, 84, 64
1, 227245, Note_on_c, 0, 84, 0
1, 227263, Note_on_c, 0, 86, 78
1, 227295, Note_on_c, 0, 86, 0
1, 227306, Note_on_c, 0, 72, 67
1, 227323, Note_on_c, 0, 68, 30
1, 227323, Note_on_c, 0, 84, 70
1, 227364, Note_on_c, 0, 84, 0
1, 227380, Note_on_c, 0, 86, 54
1, 227380, Note_on_c, 0, 68, 0
1, 227391, Note_on_c, 0, 72, 0
1, 227422, Note_on_c, 0, 86, 0
1, 227436, Note_on_c, 0, 84, 64
1, 227476, Note_on_c, 0, 84, 0
1, 227495, Note_on_c, 0, 86, 68
1, 227534, Note_on_c, 0, 72, 71
1, 227548, Note_on_c, 0, 68, 38
1, 227559, Note_on_c, 0, 84, 72
1, 227575, Note_on_c, 0, 86, 0
1, 227584, Note_on_c, 0, 64, 33
1, 227642, Note_on_c, 0, 84, 0
1, 227668, Note_on_c, 0, 83, 83
1, 227709, Note_on_c, 0, 83, 0
1, 227728, Note_on_c, 0, 82, 63
1, 227773, Note_on_c, 0, 82, 0
1, 227812, Note_on_c, 0, 83, 85
1, 227812, Control_c, 0, 64, 0
1, 227848, Note_on_c, 0, 83, 0
1, 227871, Note_on_c, 0, 72, 0
1, 227891, Note_on_c, 0, 88, 50
1, 227898, Note_on_c, 0, 71, 41
1, 227944, Control_c, 0, 64, 127
1, 227947, Note_on_c, 0, 64, 0
1, 227960, Note_on_c, 0, 90, 56
1, 227969, Note_on_c, 0, 88, 0
1, 228050, Note_on_c, 0, 92, 60
1, 228066, Note_on_c, 0, 90, 0
1, 228085, Note_on_c, 0, 92, 0
1, 228085, Note_on_c, 0, 80, 49
1, 228139, Note_on_c, 0, 95, 42
1, 228188, Note_on_c, 0, 95, 0
1, 228221, Note_on_c, 0, 100, 59
1, 228255, Note_on_c, 0, 80, 0
1, 228266, Note_on_c, 0, 100, 0
1, 228313, Note_on_c, 0, 102, 51
1, 228334, Note_on_c, 0, 71, 0
1, 228364, Note_on_c, 0, 102, 0
1, 228423, Note_on_c, 0, 68, 0
1, 228445, Note_on_c, 0, 104, 45
1, 228584, Note_on_c, 0, 104, 0
1, 228690, Note_on_c, 0, 47, 28
1, 228724, Control_c, 0, 64, 0
1, 228846, Note_on_c, 0, 53, 61
1, 228868, Control_c, 0, 64, 127
1, 228874, Note_on_c, 0, 47, 0
1, 228954, Note_on_c, 0, 53, 0
1, 228976, Note_on_c, 0, 79, 77
1, 228982, Note_on_c, 0, 67, 42
1, 228996, Note_on_c, 0, 56, 17
1, 229054, Note_on_c, 0, 56, 0
1, 229094, Note_on_c, 0, 61, 42
1, 229108, Note_on_c, 0, 67, 0
1, 229180, Note_on_c, 0, 61, 0
1, 229202, Note_on_c, 0, 65, 29
1, 229234, Note_on_c, 0, 79, 0
1, 229253, Note_on_c, 0, 65, 0
1, 229278, Note_on_c, 0, 61, 54
1, 229344, Note_on_c, 0, 61, 0
1, 229398, Note_on_c, 0, 56, 52
1, 229472, Note_on_c, 0, 80, 88
1, 229481, Note_on_c, 0, 68, 63
1, 229509, Note_on_c, 0, 56, 0
1, 229532, Note_on_c, 0, 53, 68
1, 229565, Note_on_c, 0, 68, 0
1, 229581, Note_on_c, 0, 53, 0
1, 229645, Note_on_c, 0, 80, 0
1, 229653, Note_on_c, 0, 47, 51
1, 229751, Note_on_c, 0, 53, 76
1, 229757, Note_on_c, 0, 47, 0
1, 229855, Note_on_c, 0, 56, 48
1, 229859, Note_on_c, 0, 53, 0
1, 229915, Note_on_c, 0, 56, 0
1, 229915, Note_on_c, 0, 86, 103
1, 229926, Note_on_c, 0, 74, 78
1, 229990, Note_on_c, 0, 61, 53
1, 230030, Note_on_c, 0, 74, 0
1, 230082, Note_on_c, 0, 61, 0
1, 230105, Note_on_c, 0, 65, 56
1, 230117, Note_on_c, 0, 86, 0
1, 230150, Note_on_c, 0, 65, 0
1, 230194, Note_on_c, 0, 61, 72
1, 230308, Note_on_c, 0, 56, 48
1, 230316, Note_on_c, 0, 61, 0
1, 230428, Note_on_c, 0, 80, 70
1, 230428, Note_on_c, 0, 68, 51
1, 230434, Note_on_c, 0, 53, 76
1, 230447, Note_on_c, 0, 56, 0
1, 230467, Note_on_c, 0, 53, 0
1, 230562, Note_on_c, 0, 45, 67
1, 230581, Control_c, 0, 64, 0
1, 230651, Note_on_c, 0, 68, 0
1, 230676, Note_on_c, 0, 54, 81
1, 230701, Note_on_c, 0, 45, 0
1, 230701, Control_c, 0, 64, 127
1, 230727, Note_on_c, 0, 80, 0
1, 230760, Note_on_c, 0, 54, 0
1, 230771, Note_on_c, 0, 57, 68
1, 230823, Note_on_c, 0, 81, 88
1, 230823, Note_on_c, 0, 57, 0
1, 230830, Note_on_c, 0, 69, 57
1, 230866, Note_on_c, 0, 61, 74
1, 230872, Note_on_c, 0, 69, 0
1, 231019, Note_on_c, 0, 66, 67
1, 231019, Note_on_c, 0, 69, 61
1, 231022, Note_on_c, 0, 81, 0
1, 231022, Note_on_c, 0, 74, 92
1, 231036, Control_c, 0, 64, 0
1, 231043, Note_on_c, 0, 61, 0
1, 231174, Note_on_c, 0, 76, 77
1, 231174, Note_on_c, 0, 74, 0
1, 231174, Control_c, 0, 64, 127
1, 231206, Note_on_c, 0, 69, 0
1, 231213, Note_on_c, 0, 76, 0
1, 231227, Note_on_c, 0, 66, 0
1, 231227, Note_on_c, 0, 74, 70
1, 231294, Note_on_c, 0, 74, 0
1, 231314, Note_on_c, 0, 76, 81
1, 231345, Note_on_c, 0, 69, 55
1, 231345, Note_on_c, 0, 76, 0
1, 231348, Note_on_c, 0, 66, 49
1, 231348, Note_on_c, 0, 60, 64
1, 231369, Note_on_c, 0, 74, 67
1, 231389, Note_on_c, 0, 69, 0
1, 231389, Note_on_c, 0, 66, 0
1, 231389, Note_on_c, 0, 60, 0
1, 231423, Note_on_c, 0, 76, 50
1, 231428, Note_on_c, 0, 74, 0
1, 231459, Note_on_c, 0, 76, 0
1, 231486, Note_on_c, 0, 74, 72
1, 231517, Note_on_c, 0, 74, 0
1, 231517, Note_on_c, 0, 76, 66
1, 231551, Note_on_c, 0, 69, 57
1, 231559, Note_on_c, 0, 60, 64
1, 231564, Note_on_c, 0, 66, 41
1, 231581, Note_on_c, 0, 76, 0
1, 231589, Note_on_c, 0, 74, 67
1, 231665, Note_on_c, 0, 73, 75
1, 231670, Note_on_c, 0, 74, 0
1, 231720, Control_c, 0, 64, 0
1, 231745, Note_on_c, 0, 74, 67
1, 231755, Note_on_c, 0, 73, 0
1, 231824, Note_on_c, 0, 78, 79
1, 231851, Note_on_c, 0, 74, 0
1, 231888, Control_c, 0, 64, 127
1, 231905, Note_on_c, 0, 80, 71
1, 231929, Note_on_c, 0, 78, 0
1, 231979, Note_on_c, 0, 83, 91
1, 232003, Note_on_c, 0, 80, 0
1, 232007, Note_on_c, 0, 83, 0
1, 232042, Note_on_c, 0, 60, 0
1, 232047, Note_on_c, 0, 61, 48
1, 232058, Note_on_c, 0, 81, 82
1, 232067, Control_c, 0, 64, 0
1, 232103, Note_on_c, 0, 81, 0
1, 232141, Note_on_c, 0, 85, 65
1, 232216, Note_on_c, 0, 90, 64
1, 232219, Note_on_c, 0, 85, 0
1, 232283, Note_on_c, 0, 90, 0
1, 232305, Note_on_c, 0, 92, 52
1, 232308, Control_c, 0, 64, 127
1, 232320, Note_on_c, 0, 69, 0
1, 232350, Note_on_c, 0, 66, 0
1, 232359, Note_on_c, 0, 92, 0
1, 232395, Note_on_c, 0, 61, 0
1, 232415, Note_on_c, 0, 93, 59
1, 232571, Control_c, 0, 64, 0
1, 232579, Note_on_c, 0, 47, 54
1, 232629, Note_on_c, 0, 93, 0
1, 232687, Note_on_c, 0, 53, 78
1, 232698, Note_on_c, 0, 47, 0
1, 232702, Control_c, 0, 64, 127
1, 232780, Note_on_c, 0, 53, 0
1, 232784, Note_on_c, 0, 56, 46
1, 232857, Note_on_c, 0, 56, 0
1, 232886, Note_on_c, 0, 91, 84
1, 232891, Note_on_c, 0, 79, 76
1, 232891, Note_on_c, 0, 61, 61
1, 232932, Note_on_c, 0, 61, 0
1, 233000, Note_on_c, 0, 65, 38
1, 233074, Note_on_c, 0, 65, 0
1, 233094, Note_on_c, 0, 68, 65
1, 233094, Note_on_c, 0, 79, 0
1, 233164, Note_on_c, 0, 68, 0
1, 233172, Note_on_c, 0, 91, 0
1, 233191, Note_on_c, 0, 65, 53
1, 233225, Note_on_c, 0, 65, 0
1, 233278, Note_on_c, 0, 61, 62
1, 233297, Note_on_c, 0, 92, 90
1, 233297, Note_on_c, 0, 80, 85
1, 233320, Note_on_c, 0, 61, 0
1, 233359, Note_on_c, 0, 56, 58
1, 233384, Note_on_c, 0, 80, 0
1, 233403, Note_on_c, 0, 56, 0
1, 233437, Note_on_c, 0, 53, 61
1, 233462, Note_on_c, 0, 92, 0
1, 233481, Note_on_c, 0, 53, 0
1, 233504, Note_on_c, 0, 47, 76
1, 233587, Note_on_c, 0, 47, 0
1, 233610, Note_on_c, 0, 53, 68
1, 233657, Note_on_c, 0, 53, 0
1, 233657, Note_on_c, 0, 56, 72
1, 233701, Note_on_c, 0, 56, 0
1, 233785, Note_on_c, 0, 98, 109
1, 233785, Note_on_c, 0, 61, 64
1, 233791, Note_on_c, 0, 86, 86
1, 233833, Note_on_c, 0, 61, 0
1, 233904, Note_on_c, 0, 65, 48
1, 233943, Note_on_c, 0, 65, 0
1, 233969, Note_on_c, 0, 86, 0
1, 233983, Note_on_c, 0, 98, 0
1, 234027, Note_on_c, 0, 68, 64
1, 234113, Note_on_c, 0, 65, 61
1, 234130, Note_on_c, 0, 68, 0
1, 234144, Note_on_c, 0, 65, 0
1, 234205, Note_on_c, 0, 61, 74
1, 234272, Note_on_c, 0, 61, 0
1, 234290, Note_on_c, 0, 56, 58
1, 234290, Note_on_c, 0, 92, 79
1, 234295, Note_on_c, 0, 80, 72
1, 234350, Note_on_c, 0, 56, 0
1, 234370, Note_on_c, 0, 53, 73
1, 234404, Note_on_c, 0, 53, 0
1, 234414, Note_on_c, 0, 80, 0
1, 234465, Note_on_c, 0, 45, 70
1, 234476, Control_c, 0, 64, 0
1, 234535, Note_on_c, 0, 92, 0
1, 234549, Note_on_c, 0, 54, 86
1, 234581, Note_on_c, 0, 45, 0
1, 234613, Note_on_c, 0, 54, 0
1, 234620, Control_c, 0, 64, 127
1, 234624, Note_on_c, 0, 57, 66
1, 234660, Note_on_c, 0, 57, 0
1, 234702, Note_on_c, 0, 61, 82
1, 234749, Note_on_c, 0, 93, 85
1, 234757, Note_on_c, 0, 81, 76
1, 234787, Note_on_c, 0, 66, 68
1, 234794, Note_on_c, 0, 61, 0
1, 234829, Note_on_c, 0, 66, 0
1, 234838, Note_on_c, 0, 81, 0
1, 234838, Note_on_c, 0, 69, 56
1, 234899, Note_on_c, 0, 69, 0
1, 234899, Note_on_c, 0, 66, 50
1, 234950, Note_on_c, 0, 69, 60
1, 234969, Note_on_c, 0, 86, 78
1, 234986, Note_on_c, 0, 93, 0
1, 235016, Control_c, 0, 64, 0
1, 235016, Note_on_c, 0, 74, 86
1, 235083, Note_on_c, 0, 86, 0
1, 235102, Note_on_c, 0, 88, 74
1, 235141, Note_on_c, 0, 88, 0
1, 235147, Control_c, 0, 64, 127
1, 235172, Note_on_c, 0, 86, 74
1, 235217, Note_on_c, 0, 86, 0
1, 235241, Note_on_c, 0, 88, 83
1, 235241, Note_on_c, 0, 66, 0
1, 235245, Note_on_c, 0, 69, 0
1, 235259, Note_on_c, 0, 74, 0
1, 235272, Note_on_c, 0, 88, 0
1, 235303, Note_on_c, 0, 86, 78
1, 235337, Note_on_c, 0, 86, 0
1, 235351, Note_on_c, 0, 74, 76
1, 235358, Note_on_c, 0, 88, 54
1, 235376, Note_on_c, 0, 69, 30
1, 235387, Note_on_c, 0, 66, 36
1, 235395, Note_on_c, 0, 88, 0
1, 235421, Note_on_c, 0, 86, 70
1, 235453, Note_on_c, 0, 66, 0
1, 235459, Note_on_c, 0, 86, 0
1, 235459, Note_on_c, 0, 88, 55
1, 235465, Note_on_c, 0, 69, 0
1, 235485, Note_on_c, 0, 74, 0
1, 235507, Note_on_c, 0, 88, 0
1, 235537, Note_on_c, 0, 86, 66
1, 235574, Note_on_c, 0, 74, 56
1, 235596, Note_on_c, 0, 86, 0
1, 235596, Note_on_c, 0, 69, 32
1, 235601, Note_on_c, 0, 66, 24
1, 235629, Note_on_c, 0, 85, 70
1, 235726, Note_on_c, 0, 85, 0
1, 235730, Note_on_c, 0, 84, 84
1, 235807, Control_c, 0, 64, 0
1, 235811, Note_on_c, 0, 85, 50
1, 235830, Note_on_c, 0, 74, 0
1, 235830, Note_on_c, 0, 84, 0
1, 235888, Note_on_c, 0, 73, 45
1, 235903, Note_on_c, 0, 69, 0
1, 235903, Note_on_c, 0, 90, 52
1, 235918, Note_on_c, 0, 85, 0
1, 235950, Control_c, 0, 64, 127
1, 235983, Note_on_c, 0, 92, 59
1, 236002, Note_on_c, 0, 90, 0
1, 236002, Note_on_c, 0, 73, 0
1, 236016, Note_on_c, 0, 66, 0
1, 236016, Note_on_c, 0, 92, 0
1, 236067, Note_on_c, 0, 93, 55
1, 236111, Note_on_c, 0, 81, 57
1, 236123, Note_on_c, 0, 93, 0
1, 236159, Note_on_c, 0, 97, 45
1, 236166, Note_on_c, 0, 81, 0
1, 236209, Note_on_c, 0, 97, 0
1, 236251, Note_on_c, 0, 102, 52
1, 236308, Note_on_c, 0, 102, 0
1, 236362, Note_on_c, 0, 104, 28
1, 236474, Note_on_c, 0, 104, 0
1, 236503, Note_on_c, 0, 105, 52
1, 236615, Note_on_c, 0, 105, 0
1, 236769, Note_on_c, 0, 49, 39
1, 236813, Control_c, 0, 64, 0
1, 236914, Note_on_c, 0, 55, 48
1, 236944, Control_c, 0, 64, 127
1, 236988, Note_on_c, 0, 49, 0
1, 236996, Note_on_c, 0, 55, 0
1, 237019, Note_on_c, 0, 69, 42
1, 237030, Note_on_c, 0, 58, 18
1, 237030, Note_on_c, 0, 81, 52
1, 237086, Note_on_c, 0, 58, 0
1, 237122, Note_on_c, 0, 64, 49
1, 237169, Note_on_c, 0, 64, 0
1, 237228, Note_on_c, 0, 67, 52
1, 237239, Note_on_c, 0, 69, 0
1, 237270, Note_on_c, 0, 67, 0
1, 237276, Note_on_c, 0, 81, 0
1, 237328, Note_on_c, 0, 64, 61
1, 237392, Note_on_c, 0, 64, 0
1, 237418, Note_on_c, 0, 82, 70
1, 237421, Note_on_c, 0, 70, 57
1, 237432, Note_on_c, 0, 58, 40
1, 237521, Note_on_c, 0, 55, 52
1, 237526, Note_on_c, 0, 70, 0
1, 237541, Note_on_c, 0, 58, 0
1, 237574, Note_on_c, 0, 82, 0
1, 237581, Note_on_c, 0, 55, 0
1, 237605, Note_on_c, 0, 48, 70
1, 237616, Control_c, 0, 64, 0
1, 237721, Note_on_c, 0, 55, 55
1, 237735, Note_on_c, 0, 48, 0
1, 237735, Control_c, 0, 64, 127
1, 237791, Note_on_c, 0, 88, 84
1, 237791, Note_on_c, 0, 58, 58
1, 237791, Note_on_c, 0, 76, 72
1, 237804, Note_on_c, 0, 55, 0
1, 237853, Note_on_c, 0, 58, 0
1, 237889, Note_on_c, 0, 64, 59
1, 237916, Note_on_c, 0, 88, 0
1, 237939, Note_on_c, 0, 64, 0
1, 237952, Note_on_c, 0, 76, 0
1, 237969, Note_on_c, 0, 67, 39
1, 238027, Note_on_c, 0, 67, 0
1, 238050, Note_on_c, 0, 64, 78
1, 238092, Note_on_c, 0, 64, 0
1, 238123, Note_on_c, 0, 82, 75
1, 238128, Note_on_c, 0, 70, 68
1, 238133, Note_on_c, 0, 58, 55
1, 238208, Note_on_c, 0, 55, 77
1, 238208, Note_on_c, 0, 58, 0
1, 238240, Note_on_c, 0, 55, 0
1, 238243, Note_on_c, 0, 70, 0
1, 238287, Control_c, 0, 64, 0
1, 238293, Note_on_c, 0, 82, 0
1, 238293, Note_on_c, 0, 47, 84
1, 238371, Note_on_c, 0, 55, 83
1, 238404, Note_on_c, 0, 47, 0
1, 238420, Control_c, 0, 64, 127
1, 238454, Note_on_c, 0, 55, 0
1, 238474, Note_on_c, 0, 59, 75
1, 238481, Note_on_c, 0, 82, 90
1, 238481, Note_on_c, 0, 70, 84
1, 238518, Note_on_c, 0, 59, 0
1, 238566, Note_on_c, 0, 64, 74
1, 238605, Note_on_c, 0, 70, 0
1, 238649, Note_on_c, 0, 82, 0
1, 238658, Note_on_c, 0, 64, 0
1, 238672, Note_on_c, 0, 67, 79
1, 238754, Note_on_c, 0, 67, 0
1, 238772, Note_on_c, 0, 64, 81
1, 238800, Note_on_c, 0, 64, 0
1, 238833, Note_on_c, 0, 83, 112
1, 238838, Note_on_c, 0, 71, 91
1, 238866, Note_on_c, 0, 59, 74
1, 238914, Note_on_c, 0, 59, 0
1, 238924, Note_on_c, 0, 71, 0
1, 238939, Note_on_c, 0, 55, 73
1, 238969, Note_on_c, 0, 83, 0
1, 238999, Note_on_c, 0, 55, 0
1, 239027, Note_on_c, 0, 46, 72
1, 239055, Control_c, 0, 64, 0
1, 239136, Note_on_c, 0, 55, 78
1, 239186, Note_on_c, 0, 46, 0
1, 239208, Control_c, 0, 64, 127
1, 239223, Note_on_c, 0, 55, 0
1, 239248, Note_on_c, 0, 60, 55
1, 239264, Note_on_c, 0, 88, 80
1, 239270, Note_on_c, 0, 76, 52
1, 239323, Note_on_c, 0, 60, 0
1, 239368, Note_on_c, 0, 64, 42
1, 239451, Note_on_c, 0, 88, 0
1, 239454, Note_on_c, 0, 64, 0
1, 239479, Note_on_c, 0, 67, 54
1, 239541, Note_on_c, 0, 76, 0
1, 239588, Note_on_c, 0, 67, 0
1, 239605, Note_on_c, 0, 64, 68
1, 239635, Note_on_c, 0, 64, 0
1, 239729, Note_on_c, 0, 60, 59
1, 239789, Note_on_c, 0, 84, 64
1, 239797, Note_on_c, 0, 72, 32
1, 239807, Note_on_c, 0, 60, 0
1, 239844, Note_on_c, 0, 55, 49
1, 239889, Note_on_c, 0, 72, 0
1, 239908, Note_on_c, 0, 55, 0
1, 239916, Note_on_c, 0, 84, 0
1, 239930, Control_c, 0, 64, 0
1, 239930, Note_on_c, 0, 46, 62
1, 240025, Control_c, 0, 64, 127
1, 240039, Note_on_c, 0, 46, 0
1, 240039, Note_on_c, 0, 55, 56
1, 240084, Note_on_c, 0, 55, 0
1, 240114, Note_on_c, 0, 61, 70
1, 240159, Note_on_c, 0, 61, 0
1, 240218, Note_on_c, 0, 64, 64
1, 240251, Note_on_c, 0, 64, 0
1, 240251, Control_c, 0, 64, 0
1, 240278, Note_on_c, 0, 66, 53
1, 240284, Note_on_c, 0, 63, 88
1, 240346, Note_on_c, 0, 66, 0
1, 240349, Note_on_c, 0, 67, 69
1, 240368, Note_on_c, 0, 73, 40
1, 240378, Note_on_c, 0, 64, 74
1, 240382, Note_on_c, 0, 67, 0
1, 240406, Note_on_c, 0, 63, 0
1, 240406, Note_on_c, 0, 73, 0
1, 240432, Control_c, 0, 64, 127
1, 240445, Note_on_c, 0, 69, 63
1, 240452, Note_on_c, 0, 66, 69
1, 240468, Note_on_c, 0, 64, 0
1, 240481, Control_c, 0, 64, 0
1, 240490, Note_on_c, 0, 69, 0
1, 240504, Note_on_c, 0, 66, 0
1, 240516, Note_on_c, 0, 70, 64
1, 240524, Note_on_c, 0, 76, 59
1, 240532, Note_on_c, 0, 67, 61
1, 240555, Note_on_c, 0, 70, 0
1, 240562, Note_on_c, 0, 76, 0
1, 240568, Note_on_c, 0, 67, 0
1, 240593, Note_on_c, 0, 69, 72
1, 240608, Note_on_c, 0, 72, 71
1, 240647, Note_on_c, 0, 72, 0
1, 240672, Note_on_c, 0, 79, 81
1, 240672, Note_on_c, 0, 73, 67
1, 240679, Note_on_c, 0, 70, 70
1, 240700, Note_on_c, 0, 69, 0
1, 240700, Note_on_c, 0, 79, 0
1, 240704, Note_on_c, 0, 73, 0
1, 240752, Note_on_c, 0, 75, 81
1, 240758, Note_on_c, 0, 70, 0
1, 240758, Note_on_c, 0, 72, 68
1, 240819, Note_on_c, 0, 75, 0
1, 240819, Note_on_c, 0, 72, 0
1, 240824, Note_on_c, 0, 82, 70
1, 240835, Note_on_c, 0, 73, 68
1, 240844, Note_on_c, 0, 76, 27
1, 240877, Note_on_c, 0, 82, 0
1, 240900, Note_on_c, 0, 76, 0
1, 240908, Note_on_c, 0, 78, 92
1, 240908, Note_on_c, 0, 75, 67
1, 240925, Note_on_c, 0, 73, 0
1, 240961, Note_on_c, 0, 75, 0
1, 240969, Note_on_c, 0, 76, 56
1, 240974, Note_on_c, 0, 85, 78
1, 240978, Note_on_c, 0, 79, 62
1, 240983, Note_on_c, 0, 78, 0
1, 241012, Note_on_c, 0, 85, 0
1, 241019, Note_on_c, 0, 79, 0
1, 241025, Note_on_c, 0, 76, 0
1, 241048, Note_on_c, 0, 78, 59
1, 241051, Note_on_c, 0, 81, 82
1, 241092, Note_on_c, 0, 81, 0
1, 241117, Note_on_c, 0, 82, 82
1, 241122, Note_on_c, 0, 79, 79
1, 241126, Note_on_c, 0, 88, 81
1, 241137, Note_on_c, 0, 78, 0
1, 241151, Note_on_c, 0, 82, 0
1, 241151, Note_on_c, 0, 79, 0
1, 241158, Note_on_c, 0, 88, 0
1, 241183, Note_on_c, 0, 81, 79
1, 241204, Note_on_c, 0, 84, 95
1, 241231, Note_on_c, 0, 81, 0
1, 241248, Control_c, 0, 64, 127
1, 241248, Note_on_c, 0, 84, 0
1, 241261, Note_on_c, 0, 91, 86
1, 241261, Note_on_c, 0, 85, 82
1, 241270, Note_on_c, 0, 82, 65
1, 241290, Note_on_c, 0, 91, 0
1, 241290, Note_on_c, 0, 85, 0
1, 241307, Note_on_c, 0, 82, 0
1, 241331, Note_on_c, 0, 84, 74
1, 241353, Note_on_c, 0, 87, 78
1, 241379, Note_on_c, 0, 84, 0
1, 241409, Note_on_c, 0, 85, 79
1, 241415, Note_on_c, 0, 94, 73
1, 241435, Note_on_c, 0, 87, 0
1, 241438, Control_c, 0, 64, 0
1, 241459, Note_on_c, 0, 94, 0
1, 241480, Note_on_c, 0, 87, 79
1, 241499, Note_on_c, 0, 90, 92
1, 241499, Note_on_c, 0, 85, 0
1, 241554, Note_on_c, 0, 88, 75
1, 241560, Note_on_c, 0, 87, 0
1, 241565, Note_on_c, 0, 97, 73
1, 241571, Note_on_c, 0, 91, 52
1, 241579, Note_on_c, 0, 90, 0
1, 241601, Note_on_c, 0, 88, 0
1, 241618, Note_on_c, 0, 91, 0
1, 241618, Control_c, 0, 64, 127
1, 241633, Note_on_c, 0, 87, 58
1, 241641, Note_on_c, 0, 90, 57
1, 241655, Note_on_c, 0, 97, 0
1, 241699, Note_on_c, 0, 87, 0
1, 241704, Note_on_c, 0, 90, 0
1, 241713, Note_on_c, 0, 97, 53
1, 241713, Note_on_c, 0, 91, 63
1, 241716, Control_c, 0, 64, 0
1, 241724, Note_on_c, 0, 88, 59
1, 241750, Note_on_c, 0, 91, 0
1, 241764, Note_on_c, 0, 88, 0
1, 241802, Note_on_c, 0, 97, 0
1, 241802, Note_on_c, 0, 90, 61
1, 241808, Note_on_c, 0, 87, 55
1, 241842, Note_on_c, 0, 87, 0
1, 241846, Note_on_c, 0, 90, 0
1, 241878, Note_on_c, 0, 91, 49
1, 241878, Note_on_c, 0, 97, 35
1, 241886, Note_on_c, 0, 88, 58
1, 241924, Note_on_c, 0, 88, 0
1, 241930, Note_on_c, 0, 91, 0
1, 241939, Note_on_c, 0, 97, 0
1, 241961, Note_on_c, 0, 90, 47
1, 241961, Note_on_c, 0, 87, 52
1, 242000, Note_on_c, 0, 87, 0
1, 242011, Note_on_c, 0, 90, 0
1, 242039, Note_on_c, 0, 97, 31
1, 242045, Note_on_c, 0, 88, 50
1, 242078, Note_on_c, 0, 91, 10
1, 242090, Note_on_c, 0, 88, 0
1, 242097, Note_on_c, 0, 97, 0
1, 242125, Note_on_c, 0, 87, 47
1, 242125, Note_on_c, 0, 90, 48
1, 242128, Note_on_c, 0, 91, 0
1, 242170, Note_on_c, 0, 87, 0
1, 242182, Note_on_c, 0, 90, 0
1, 242218, Note_on_c, 0, 97, 30
1, 242218, Note_on_c, 0, 91, 24
1, 242242, Note_on_c, 0, 88, 38
1, 242278, Note_on_c, 0, 91, 0
1, 242289, Note_on_c, 0, 88, 0
1, 242296, Note_on_c, 0, 97, 0
1, 242309, Note_on_c, 0, 90, 43
1, 242328, Note_on_c, 0, 87, 39
1, 242373, Note_on_c, 0, 87, 0
1, 242373, Note_on_c, 0, 90, 0
1, 242416, Note_on_c, 0, 97, 51
1, 242416, Note_on_c, 0, 91, 42
1, 242424, Note_on_c, 0, 88, 45
1, 242460, Note_on_c, 0, 91, 0
1, 242468, Note_on_c, 0, 97, 0
1, 242471, Note_on_c, 0, 88, 0
1, 242505, Control_c, 0, 64, 127
1, 242569, Note_on_c, 0, 82, 35
1, 242576, Note_on_c, 0, 97, 62
1, 242576, Note_on_c, 0, 91, 61
1, 242605, Note_on_c, 0, 97, 0
1, 242616, Note_on_c, 0, 91, 0
1, 242621, Note_on_c, 0, 82, 0
1, 242632, Note_on_c, 0, 99, 63
1, 242632, Note_on_c, 0, 88, 54
1, 242666, Note_on_c, 0, 99, 0
1, 242669, Note_on_c, 0, 88, 0
1, 242683, Note_on_c, 0, 97, 34
1, 242683, Note_on_c, 0, 91, 40
1, 242683, Note_on_c, 0, 82, 44
1, 242727, Note_on_c, 0, 97, 0
1, 242732, Note_on_c, 0, 91, 0
1, 242732, Note_on_c, 0, 82, 0
1, 242766, Note_on_c, 0, 99, 20
1, 242772, Note_on_c, 0, 88, 16
1, 242794, Note_on_c, 0, 97, 53
1, 242808, Note_on_c, 0, 91, 38
1, 242816, Note_on_c, 0, 99, 0
1, 242825, Note_on_c, 0, 82, 30
1, 242836, Note_on_c, 0, 97, 0
1, 242841, Note_on_c, 0, 88, 0
1, 242853, Note_on_c, 0, 91, 0
1, 242866, Note_on_c, 0, 99, 70
1, 242883, Note_on_c, 0, 82, 0
1, 242899, Note_on_c, 0, 88, 55
1, 242909, Note_on_c, 0, 97, 49
1, 242913, Note_on_c, 0, 91, 50
1, 242938, Note_on_c, 0, 99, 0
1, 242938, Note_on_c, 0, 82, 43
1, 242938, Control_c, 0, 64, 0
1, 242950, Note_on_c, 0, 97, 0
1, 242950, Note_on_c, 0, 88, 0
1, 242955, Note_on_c, 0, 91, 0
1, 242983, Note_on_c, 0, 82, 0
1, 243017, Note_on_c, 0, 94, 60
1, 243023, Note_on_c, 0, 91, 38
1, 243047, Note_on_c, 0, 85, 47
1, 243055, Note_on_c, 0, 94, 0
1, 243080, Note_on_c, 0, 91, 0
1, 243087, Note_on_c, 0, 85, 0
1, 243134, Note_on_c, 0, 97, 68
1, 243139, Note_on_c, 0, 94, 36
1, 243142, Note_on_c, 0, 88, 54
1, 243168, Note_on_c, 0, 97, 0
1, 243178, Note_on_c, 0, 94, 0
1, 243178, Note_on_c, 0, 88, 0
1, 243248, Note_on_c, 0, 89, 58
1, 243251, Note_on_c, 0, 96, 75
1, 243254, Note_on_c, 0, 92, 65
1, 243287, Note_on_c, 0, 89, 0
1, 243287, Note_on_c, 0, 96, 0
1, 243287, Note_on_c, 0, 92, 0
1, 243354, Note_on_c, 0, 92, 37
1, 243360, Note_on_c, 0, 89, 35
1, 243368, Note_on_c, 0, 84, 55
1, 243402, Note_on_c, 0, 92, 0
1, 243402, Note_on_c, 0, 89, 0
1, 243402, Note_on_c, 0, 84, 0
1, 243462, Note_on_c, 0, 89, 49
1, 243473, Note_on_c, 0, 96, 72
1, 243482, Note_on_c, 0, 92, 35
1, 243501, Note_on_c, 0, 89, 0
1, 243505, Note_on_c, 0, 96, 0
1, 243535, Note_on_c, 0, 92, 0
1, 243580, Note_on_c, 0, 92, 74
1, 243594, Note_on_c, 0, 89, 67
1, 243610, Note_on_c, 0, 84, 52
1, 243625, Note_on_c, 0, 92, 0
1, 243629, Note_on_c, 0, 89, 0
1, 243649, Note_on_c, 0, 84, 0
1, 243691, Note_on_c, 0, 89, 51
1, 243705, Note_on_c, 0, 80, 41
1, 243714, Note_on_c, 0, 84, 32
1, 243733, Note_on_c, 0, 89, 0
1, 243749, Note_on_c, 0, 80, 0
1, 243767, Note_on_c, 0, 84, 0
1, 243802, Note_on_c, 0, 92, 69
1, 243806, Note_on_c, 0, 89, 42
1, 243814, Note_on_c, 0, 84, 32
1, 243836, Note_on_c, 0, 92, 0
1, 243850, Note_on_c, 0, 89, 0
1, 243858, Note_on_c, 0, 84, 0
1, 243920, Note_on_c, 0, 80, 59
1, 243928, Note_on_c, 0, 85, 87
1, 243934, Note_on_c, 0, 89, 55
1, 243956, Note_on_c, 0, 80, 0
1, 243961, Note_on_c, 0, 85, 0
1, 243964, Note_on_c, 0, 83, 97
1, 243967, Control_c, 0, 64, 127
1, 243973, Note_on_c, 0, 89, 0
1, 243985, Note_on_c, 0, 91, 55
1, 244003, Note_on_c, 0, 83, 0
1, 244026, Note_on_c, 0, 89, 57
1, 244031, Note_on_c, 0, 80, 40
1, 244031, Note_on_c, 0, 85, 53
1, 244031, Note_on_c, 0, 91, 0
1, 244078, Note_on_c, 0, 89, 0
1, 244078, Note_on_c, 0, 80, 0
1, 244083, Note_on_c, 0, 85, 0
1, 244086, Note_on_c, 0, 83, 66
1, 244104, Note_on_c, 0, 91, 38
1, 244139, Note_on_c, 0, 89, 57
1, 244139, Note_on_c, 0, 85, 54
1, 244139, Note_on_c, 0, 83, 0
1, 244145, Note_on_c, 0, 80, 48
1, 244150, Note_on_c, 0, 91, 0
1, 244181, Note_on_c, 0, 89, 0
1, 244203, Note_on_c, 0, 80, 0
1, 244212, Note_on_c, 0, 85, 0
1, 244223, Note_on_c, 0, 91, 33
1, 244229, Note_on_c, 0, 83, 68
1, 244253, Note_on_c, 0, 89, 58
1, 244264, Note_on_c, 0, 85, 61
1, 244268, Control_c, 0, 64, 0
1, 244278, Note_on_c, 0, 80, 60
1, 244284, Note_on_c, 0, 83, 0
1, 244299, Note_on_c, 0, 89, 0
1, 244313, Note_on_c, 0, 91, 0
1, 244313, Note_on_c, 0, 85, 0
1, 244321, Note_on_c, 0, 80, 0
1, 244376, Note_on_c, 0, 83, 71
1, 244384, Note_on_c, 0, 85, 38
1, 244384, Note_on_c, 0, 77, 52
1, 244421, Note_on_c, 0, 83, 0
1, 244421, Note_on_c, 0, 85, 0
1, 244421, Note_on_c, 0, 77, 0
1, 244479, Note_on_c, 0, 85, 55
1, 244488, Note_on_c, 0, 89, 74
1, 244496, Note_on_c, 0, 80, 68
1, 244516, Note_on_c, 0, 85, 0
1, 244516, Note_on_c, 0, 89, 0
1, 244533, Note_on_c, 0, 80, 0
1, 244599, Note_on_c, 0, 92, 80
1, 244608, Note_on_c, 0, 89, 39
1, 244615, Note_on_c, 0, 84, 62
1, 244635, Note_on_c, 0, 92, 0
1, 244647, Note_on_c, 0, 89, 0
1, 244647, Note_on_c, 0, 84, 0
1, 244700, Note_on_c, 0, 84, 61
1, 244700, Note_on_c, 0, 89, 52
1, 244719, Note_on_c, 0, 80, 54
1, 244747, Note_on_c, 0, 89, 0
1, 244760, Note_on_c, 0, 84, 0
1, 244764, Note_on_c, 0, 80, 0
1, 244813, Note_on_c, 0, 92, 74
1, 244816, Note_on_c, 0, 84, 69
1, 244824, Note_on_c, 0, 89, 41
1, 244844, Note_on_c, 0, 92, 0
1, 244859, Note_on_c, 0, 84, 0
1, 244867, Note_on_c, 0, 89, 0
1, 244930, Note_on_c, 0, 80, 52
1, 244934, Note_on_c, 0, 89, 44
1, 244934, Note_on_c, 0, 84, 70
1, 244967, Note_on_c, 0, 84, 0
1, 244967, Note_on_c, 0, 80, 0
1, 244983, Note_on_c, 0, 89, 0
1, 245025, Note_on_c, 0, 84, 49
1, 245025, Note_on_c, 0, 80, 52
1, 245025, Note_on_c, 0, 77, 52
1, 245061, Note_on_c, 0, 77, 0
1, 245064, Note_on_c, 0, 84, 0
1, 245073, Note_on_c, 0, 80, 0
1, 245120, Note_on_c, 0, 77, 49
1, 245120, Note_on_c, 0, 80, 66
1, 245126, Note_on_c, 0, 72, 54
1, 245162, Note_on_c, 0, 77, 0
1, 245162, Note_on_c, 0, 80, 0
1, 245167, Note_on_c, 0, 72, 0
1, 245242, Note_on_c, 0, 70, 59
1, 245249, Note_on_c, 0, 85, 86
1, 245249, Note_on_c, 0, 79, 91
1, 245278, Note_on_c, 0, 70, 0
1, 245285, Note_on_c, 0, 79, 0
1, 245285, Note_on_c, 0, 76, 40
1, 245288, Control_c, 0, 64, 127
1, 245288, Note_on_c, 0, 85, 0
1, 245304, Note_on_c, 0, 87, 53
1, 245326, Note_on_c, 0, 76, 0
1, 245343, Note_on_c, 0, 70, 42
1, 245351, Note_on_c, 0, 87, 0
1, 245356, Note_on_c, 0, 79, 62
1, 245356, Note_on_c, 0, 85, 63
1, 245395, Note_on_c, 0, 70, 0
1, 245395, Note_on_c, 0, 85, 0
1, 245402, Note_on_c, 0, 79, 0
1, 245426, Note_on_c, 0, 76, 15
1, 245426, Note_on_c, 0, 87, 47
1, 245463, Note_on_c, 0, 85, 66
1, 245468, Note_on_c, 0, 70, 55
1, 245477, Note_on_c, 0, 87, 0
1, 245477, Note_on_c, 0, 79, 67
1, 245496, Note_on_c, 0, 76, 0
1, 245518, Note_on_c, 0, 79, 0
1, 245526, Note_on_c, 0, 85, 0
1, 245532, Note_on_c, 0, 87, 46
1, 245546, Note_on_c, 0, 70, 0
1, 245558, Note_on_c, 0, 76, 43
1, 245582, Note_on_c, 0, 85, 76
1, 245594, Note_on_c, 0, 79, 70
1, 245597, Note_on_c, 0, 70, 57
1, 245597, Control_c, 0, 64, 0
1, 245619, Note_on_c, 0, 87, 0
1, 245630, Note_on_c, 0, 79, 0
1, 245639, Note_on_c, 0, 85, 0
1, 245649, Note_on_c, 0, 76, 0
1, 245669, Note_on_c, 0, 70, 0
1, 245694, Note_on_c, 0, 79, 60
1, 245697, Note_on_c, 0, 82, 75
1, 245716, Note_on_c, 0, 73, 43
1, 245733, Note_on_c, 0, 82, 0
1, 245750, Note_on_c, 0, 79, 0
1, 245761, Note_on_c, 0, 73, 0
1, 245808, Note_on_c, 0, 85, 83
1, 245813, Note_on_c, 0, 82, 58
1, 245813, Note_on_c, 0, 76, 50
1, 245845, Note_on_c, 0, 82, 0
1, 245845, Note_on_c, 0, 85, 0
1, 245853, Note_on_c, 0, 76, 0
1, 245917, Note_on_c, 0, 77, 68
1, 245928, Note_on_c, 0, 84, 78
1, 245928, Note_on_c, 0, 80, 78
1, 245953, Note_on_c, 0, 77, 0
1, 245961, Note_on_c, 0, 80, 0
1, 245970, Note_on_c, 0, 84, 0
1, 246029, Note_on_c, 0, 72, 67
1, 246037, Note_on_c, 0, 77, 59
1, 246048, Note_on_c, 0, 80, 33
1, 246065, Note_on_c, 0, 72, 0
1, 246068, Note_on_c, 0, 77, 0
1, 246090, Note_on_c, 0, 80, 0
1, 246132, Note_on_c, 0, 77, 44
1, 246146, Note_on_c, 0, 80, 58
1, 246150, Note_on_c, 0, 84, 75
1, 246168, Note_on_c, 0, 77, 0
1, 246182, Note_on_c, 0, 80, 0
1, 246182, Note_on_c, 0, 84, 0
1, 246262, Note_on_c, 0, 80, 50
1, 246271, Note_on_c, 0, 77, 46
1, 246271, Note_on_c, 0, 72, 53
1, 246306, Note_on_c, 0, 80, 0
1, 246306, Note_on_c, 0, 77, 0
1, 246312, Note_on_c, 0, 72, 0
1, 246360, Note_on_c, 0, 72, 59
1, 246365, Note_on_c, 0, 77, 44
1, 246365, Note_on_c, 0, 68, 48
1, 246398, Note_on_c, 0, 72, 0
1, 246405, Note_on_c, 0, 77, 0
1, 246408, Note_on_c, 0, 68, 0
1, 246460, Note_on_c, 0, 72, 47
1, 246466, Note_on_c, 0, 80, 79
1, 246469, Note_on_c, 0, 77, 48
1, 246502, Note_on_c, 0, 72, 0
1, 246502, Note_on_c, 0, 77, 0
1, 246502, Note_on_c, 0, 80, 0
1, 246583, Note_on_c, 0, 68, 58
1, 246586, Note_on_c, 0, 73, 84
1, 246596, Note_on_c, 0, 77, 57
1, 246622, Note_on_c, 0, 68, 0
1, 246628, Control_c, 0, 64, 127
1, 246632, Note_on_c, 0, 73, 0
1, 246632, Note_on_c, 0, 77, 0
1, 246636, Note_on_c, 0, 71, 84
1, 246639, Note_on_c, 0, 79, 72
1, 246672, Note_on_c, 0, 71, 0
1, 246688, Note_on_c, 0, 73, 56
1, 246688, Note_on_c, 0, 77, 57
1, 246694, Note_on_c, 0, 79, 0
1, 246707, Note_on_c, 0, 68, 43
1, 246738, Note_on_c, 0, 77, 0
1, 246756, Note_on_c, 0, 68, 0
1, 246756, Note_on_c, 0, 71, 68
1, 246759, Note_on_c, 0, 73, 0
1, 246763, Note_on_c, 0, 79, 59
1, 246802, Note_on_c, 0, 77, 56
1, 246808, Note_on_c, 0, 71, 0
1, 246808, Note_on_c, 0, 73, 57
1, 246813, Note_on_c, 0, 79, 0
1, 246817, Note_on_c, 0, 68, 47
1, 246842, Note_on_c, 0, 77, 0
1, 246867, Note_on_c, 0, 73, 0
1, 246867, Note_on_c, 0, 68, 0
1, 246889, Note_on_c, 0, 71, 63
1, 246889, Note_on_c, 0, 79, 68
1, 246906, Note_on_c, 0, 77, 75
1, 246917, Control_c, 0, 64, 0
1, 246917, Note_on_c, 0, 73, 60
1, 246933, Note_on_c, 0, 68, 54
1, 246945, Note_on_c, 0, 71, 0
1, 246972, Note_on_c, 0, 79, 0
1, 246972, Note_on_c, 0, 68, 0
1, 246978, Note_on_c, 0, 77, 0
1, 246978, Note_on_c, 0, 73, 0
1, 247031, Note_on_c, 0, 73, 58
1, 247031, Note_on_c, 0, 71, 58
1, 247037, Note_on_c, 0, 65, 59
1, 247072, Note_on_c, 0, 73, 0
1, 247072, Note_on_c, 0, 65, 0
1, 247089, Note_on_c, 0, 71, 0
1, 247139, Note_on_c, 0, 73, 53
1, 247139, Note_on_c, 0, 77, 79
1, 247146, Note_on_c, 0, 68, 71
1, 247167, Note_on_c, 0, 77, 0
1, 247175, Note_on_c, 0, 73, 0
1, 247189, Note_on_c, 0, 68, 0
1, 247249, Note_on_c, 0, 80, 82
1, 247259, Note_on_c, 0, 77, 42
1, 247265, Note_on_c, 0, 72, 62
1, 247287, Note_on_c, 0, 80, 0
1, 247292, Note_on_c, 0, 77, 0
1, 247302, Note_on_c, 0, 72, 0
1, 247349, Note_on_c, 0, 77, 55
1, 247349, Note_on_c, 0, 72, 62
1, 247363, Note_on_c, 0, 68, 62
1, 247394, Note_on_c, 0, 77, 0
1, 247399, Note_on_c, 0, 72, 0
1, 247419, Note_on_c, 0, 68, 0
1, 247463, Note_on_c, 0, 80, 79
1, 247466, Note_on_c, 0, 77, 61
1, 247466, Note_on_c, 0, 72, 59
1, 247493, Note_on_c, 0, 80, 0
1, 247496, Note_on_c, 0, 77, 0
1, 247510, Note_on_c, 0, 72, 0
1, 247579, Note_on_c, 0, 68, 50
1, 247579, Note_on_c, 0, 77, 41
1, 247579, Note_on_c, 0, 72, 70
1, 247619, Note_on_c, 0, 68, 0
1, 247619, Note_on_c, 0, 72, 0
1, 247627, Note_on_c, 0, 77, 0
1, 247678, Note_on_c, 0, 65, 62
1, 247681, Note_on_c, 0, 72, 41
1, 247689, Note_on_c, 0, 68, 41
1, 247708, Note_on_c, 0, 65, 0
1, 247728, Note_on_c, 0, 68, 0
1, 247728, Note_on_c, 0, 72, 0
1, 247770, Note_on_c, 0, 68, 68
1, 247770, Note_on_c, 0, 65, 42
1, 247797, Note_on_c, 0, 60, 35
1, 247807, Note_on_c, 0, 68, 0
1, 247807, Note_on_c, 0, 65, 0
1, 247855, Note_on_c, 0, 60, 0
1, 247903, Note_on_c, 0, 70, 74
1, 247908, Note_on_c, 0, 73, 66
1, 247926, Note_on_c, 0, 64, 21
1, 247942, Note_on_c, 0, 73, 0
1, 247945, Note_on_c, 0, 70, 0
1, 247951, Note_on_c, 0, 75, 62
1, 247959, Note_on_c, 0, 67, 65
1, 247978, Note_on_c, 0, 64, 0
1, 247983, Control_c, 0, 64, 127
1, 248001, Note_on_c, 0, 75, 0
1, 248004, Note_on_c, 0, 67, 0
1, 248011, Note_on_c, 0, 73, 45
1, 248015, Note_on_c, 0, 70, 37
1, 248032, Note_on_c, 0, 64, 54
1, 248053, Note_on_c, 0, 73, 0
1, 248057, Note_on_c, 0, 70, 0
1, 248075, Note_on_c, 0, 75, 57
1, 248075, Note_on_c, 0, 64, 0
1, 248086, Note_on_c, 0, 67, 50
1, 248121, Note_on_c, 0, 73, 48
1, 248129, Note_on_c, 0, 70, 27
1, 248135, Note_on_c, 0, 75, 0
1, 248151, Note_on_c, 0, 64, 33
1, 248156, Note_on_c, 0, 67, 0
1, 248164, Note_on_c, 0, 73, 0
1, 248185, Note_on_c, 0, 70, 0
1, 248190, Note_on_c, 0, 75, 60
1, 248203, Note_on_c, 0, 64, 0
1, 248215, Note_on_c, 0, 67, 63
1, 248223, Control_c, 0, 64, 0
1, 248229, Note_on_c, 0, 73, 52
1, 248232, Note_on_c, 0, 70, 64
1, 248257, Note_on_c, 0, 64, 73
1, 248266, Note_on_c, 0, 67, 0
1, 248282, Note_on_c, 0, 75, 0
1, 248282, Note_on_c, 0, 70, 0
1, 248288, Note_on_c, 0, 73, 0
1, 248288, Note_on_c, 0, 64, 0
1, 248340, Note_on_c, 0, 70, 52
1, 248348, Note_on_c, 0, 61, 75
1, 248348, Note_on_c, 0, 67, 54
1, 248383, Note_on_c, 0, 70, 0
1, 248383, Note_on_c, 0, 61, 0
1, 248391, Note_on_c, 0, 67, 0
1, 248447, Note_on_c, 0, 70, 52
1, 248450, Note_on_c, 0, 73, 72
1, 248465, Note_on_c, 0, 64, 62
1, 248486, Note_on_c, 0, 70, 0
1, 248497, Note_on_c, 0, 64, 0
1, 248511, Note_on_c, 0, 73, 0
1, 248583, Note_on_c, 0, 64, 71
1, 248591, Note_on_c, 0, 70, 78
1, 248597, Note_on_c, 0, 73, 70
1, 248624, Note_on_c, 0, 64, 0
1, 248630, Note_on_c, 0, 73, 0
1, 248633, Note_on_c, 0, 70, 0
1, 248641, Note_on_c, 0, 75, 65
1, 248646, Note_on_c, 0, 67, 66
1, 248653, Control_c, 0, 64, 127
1, 248683, Note_on_c, 0, 67, 0
1, 248696, Note_on_c, 0, 70, 39
1, 248696, Note_on_c, 0, 73, 47
1, 248706, Note_on_c, 0, 64, 59
1, 248710, Note_on_c, 0, 75, 0
1, 248747, Note_on_c, 0, 73, 0
1, 248747, Note_on_c, 0, 64, 0
1, 248747, Note_on_c, 0, 70, 0
1, 248756, Note_on_c, 0, 67, 49
1, 248763, Note_on_c, 0, 75, 69
1, 248803, Note_on_c, 0, 73, 61
1, 248813, Note_on_c, 0, 75, 0
1, 248813, Note_on_c, 0, 67, 0
1, 248817, Note_on_c, 0, 64, 61
1, 248825, Note_on_c, 0, 70, 30
1, 248859, Note_on_c, 0, 73, 0
1, 248875, Note_on_c, 0, 75, 60
1, 248875, Note_on_c, 0, 64, 0
1, 248880, Note_on_c, 0, 70, 0
1, 248894, Note_on_c, 0, 67, 49
1, 248906, Control_c, 0, 64, 0
1, 248919, Note_on_c, 0, 73, 74
1, 248925, Note_on_c, 0, 70, 63
1, 248942, Note_on_c, 0, 64, 80
1, 248961, Note_on_c, 0, 75, 0
1, 248973, Note_on_c, 0, 67, 0
1, 248979, Note_on_c, 0, 64, 0
1, 248993, Note_on_c, 0, 70, 0
1, 249006, Note_on_c, 0, 73, 0
1, 249037, Note_on_c, 0, 70, 67
1, 249045, Note_on_c, 0, 67, 58
1, 249051, Note_on_c, 0, 61, 65
1, 249073, Note_on_c, 0, 70, 0
1, 249085, Note_on_c, 0, 67, 0
1, 249085, Note_on_c, 0, 61, 0
1, 249153, Note_on_c, 0, 73, 72
1, 249159, Note_on_c, 0, 64, 75
1, 249162, Note_on_c, 0, 70, 49
1, 249187, Note_on_c, 0, 64, 0
1, 249199, Note_on_c, 0, 70, 0
1, 249232, Note_on_c, 0, 73, 0
1, 249469, Control_c, 0, 64, 127
1, 249491, Note_on_c, 0, 82, 60
1, 249496, Note_on_c, 0, 76, 19
1, 249496, Note_on_c, 0, 85, 58
1, 249529, Note_on_c, 0, 82, 0
1, 249529, Note_on_c, 0, 85, 0
1, 249533, Note_on_c, 0, 79, 62
1, 249533, Note_on_c, 0, 87, 43
1, 249541, Control_c, 0, 64, 0
1, 249547, Note_on_c, 0, 76, 0
1, 249574, Note_on_c, 0, 87, 0
1, 249580, Note_on_c, 0, 82, 51
1, 249580, Note_on_c, 0, 85, 50
1, 249587, Note_on_c, 0, 79, 0
1, 249587, Note_on_c, 0, 76, 48
1, 249621, Note_on_c, 0, 82, 0
1, 249621, Note_on_c, 0, 85, 0
1, 249628, Note_on_c, 0, 76, 0
1, 249633, Note_on_c, 0, 87, 41
1, 249644, Note_on_c, 0, 79, 72
1, 249695, Note_on_c, 0, 82, 37
1, 249695, Note_on_c, 0, 76, 55
1, 249699, Note_on_c, 0, 79, 0
1, 249699, Note_on_c, 0, 85, 46
1, 249722, Note_on_c, 0, 87, 0
1, 249731, Note_on_c, 0, 76, 0
1, 249731, Note_on_c, 0, 85, 0
1, 249741, Note_on_c, 0, 82, 0
1, 249887, Note_on_c, 0, 97, 71
1, 249890, Note_on_c, 0, 88, 31
1, 249895, Note_on_c, 0, 94, 48
1, 249919, Note_on_c, 0, 97, 0
1, 249933, Note_on_c, 0, 94, 0
1, 249939, Note_on_c, 0, 88, 0
1, 249943, Note_on_c, 0, 99, 47
1, 249943, Note_on_c, 0, 91, 63
1, 249978, Note_on_c, 0, 94, 52
1, 249983, Note_on_c, 0, 99, 0
1, 249983, Note_on_c, 0, 97, 43
1, 249983, Note_on_c, 0, 88, 50
1, 249995, Note_on_c, 0, 91, 0
1, 250015, Note_on_c, 0, 88, 0
1, 250025, Note_on_c, 0, 94, 0
1, 250029, Note_on_c, 0, 97, 0
1, 250056, Note_on_c, 0, 91, 36
1, 250056, Note_on_c, 0, 99, 56
1, 250109, Note_on_c, 0, 91, 0
1, 250112, Note_on_c, 0, 97, 50
1, 250112, Note_on_c, 0, 99, 0
1, 250117, Note_on_c, 0, 94, 49
1, 250126, Note_on_c, 0, 88, 50
1, 250143, Note_on_c, 0, 97, 0
1, 250149, Note_on_c, 0, 94, 0
1, 250159, Note_on_c, 0, 88, 0
1, 250296, Note_on_c, 0, 82, 60
1, 250305, Note_on_c, 0, 85, 55
1, 250310, Note_on_c, 0, 76, 41
1, 250337, Note_on_c, 0, 82, 0
1, 250341, Note_on_c, 0, 85, 0
1, 250352, Note_on_c, 0, 87, 41
1, 250352, Note_on_c, 0, 76, 0
1, 250355, Note_on_c, 0, 79, 61
1, 250391, Note_on_c, 0, 87, 0
1, 250391, Note_on_c, 0, 85, 55
1, 250396, Note_on_c, 0, 82, 42
1, 250396, Note_on_c, 0, 79, 0
1, 250399, Note_on_c, 0, 76, 64
1, 250438, Note_on_c, 0, 85, 0
1, 250438, Note_on_c, 0, 82, 0
1, 250452, Note_on_c, 0, 87, 35
1, 250452, Note_on_c, 0, 76, 0
1, 250472, Note_on_c, 0, 79, 41
1, 250507, Note_on_c, 0, 85, 44
1, 250514, Note_on_c, 0, 82, 31
1, 250524, Note_on_c, 0, 76, 49
1, 250530, Note_on_c, 0, 87, 0
1, 250530, Note_on_c, 0, 79, 0
1, 250558, Note_on_c, 0, 82, 0
1, 250563, Note_on_c, 0, 85, 0
1, 250563, Note_on_c, 0, 76, 0
1, 250709, Note_on_c, 0, 97, 51
1, 250712, Note_on_c, 0, 94, 35
1, 250725, Note_on_c, 0, 88, 58
1, 250747, Note_on_c, 0, 97, 0
1, 250758, Note_on_c, 0, 94, 0
1, 250769, Note_on_c, 0, 88, 0
1, 250777, Note_on_c, 0, 99, 57
1, 250781, Note_on_c, 0, 91, 66
1, 250811, Note_on_c, 0, 99, 0
1, 250819, Note_on_c, 0, 91, 0
1, 250833, Note_on_c, 0, 94, 25
1, 250837, Note_on_c, 0, 88, 58
1, 250840, Note_on_c, 0, 97, 21
1, 250880, Note_on_c, 0, 88, 0
1, 250883, Control_c, 0, 64, 127
1, 250883, Note_on_c, 0, 94, 0
1, 250887, Note_on_c, 0, 97, 0
1, 250904, Note_on_c, 0, 99, 33
1, 250909, Note_on_c, 0, 91, 33
1, 250951, Note_on_c, 0, 97, 42
1, 250954, Note_on_c, 0, 99, 0
1, 250964, Note_on_c, 0, 91, 0
1, 250970, Note_on_c, 0, 94, 25
1, 250978, Note_on_c, 0, 88, 40
1, 251032, Note_on_c, 0, 94, 0
1, 251043, Note_on_c, 0, 88, 0
1, 251051, Note_on_c, 0, 97, 0
1, 251148, Control_c, 0, 64, 0
1, 251709, Note_on_c, 0, 64, 58
1, 251937, Control_c, 0, 64, 127
1, 251989, Note_on_c, 0, 46, 31
1, 252062, Note_on_c, 0, 55, 33
1, 252067, Note_on_c, 0, 46, 0
1, 252140, Note_on_c, 0, 61, 56
1, 252238, Note_on_c, 0, 61, 0
1, 252277, Note_on_c, 0, 55, 0
1, 252575, Note_on_c, 0, 76, 57
1, 252909, Control_c, 0, 64, 0
1, 252965, Note_on_c, 0, 45, 37
1, 253088, Control_c, 0, 64, 127
1, 253096, Note_on_c, 0, 45, 0
1, 253127, Note_on_c, 0, 55, 41
1, 253180, Note_on_c, 0, 55, 0
1, 253210, Note_on_c, 0, 64, 0
1, 253326, Note_on_c, 0, 61, 38
1, 253357, Note_on_c, 0, 76, 0
1, 253594, Note_on_c, 0, 76, 36
1, 253839, Note_on_c, 0, 61, 0
1, 253918, Note_on_c, 0, 76, 0
1, 253985, Note_on_c, 0, 88, 38
1, 254505, Note_on_c, 0, 88, 0
1, 254658, Note_on_c, 0, 44, 36
1, 254706, Control_c, 0, 64, 0
1, 254839, Control_c, 0, 64, 127
1, 254884, Note_on_c, 0, 76, 43
1, 254889, Note_on_c, 0, 44, 0
1, 254925, Note_on_c, 0, 76, 0
1, 254984, Note_on_c, 0, 76, 41
1, 255015, Note_on_c, 0, 64, 39
1, 255035, Note_on_c, 0, 76, 0
1, 255090, Note_on_c, 0, 76, 53
1, 255151, Note_on_c, 0, 76, 0
1, 255173, Note_on_c, 0, 60, 29
1, 255193, Note_on_c, 0, 88, 56
1, 255233, Note_on_c, 0, 60, 0
1, 255233, Note_on_c, 0, 88, 0
1, 255294, Note_on_c, 0, 76, 32
1, 255340, Note_on_c, 0, 76, 0
1, 255340, Note_on_c, 0, 54, 41
1, 255343, Note_on_c, 0, 56, 28
1, 255343, Note_on_c, 0, 64, 0
1, 255405, Note_on_c, 0, 54, 0
1, 255411, Note_on_c, 0, 77, 65
1, 255442, Note_on_c, 0, 77, 0
1, 255485, Note_on_c, 0, 77, 79
1, 255496, Note_on_c, 0, 65, 72
1, 255513, Note_on_c, 0, 77, 0
1, 255516, Note_on_c, 0, 54, 14
1, 255552, Note_on_c, 0, 77, 80
1, 255599, Note_on_c, 0, 54, 0
1, 255609, Note_on_c, 0, 77, 0
1, 255617, Control_c, 0, 64, 0
1, 255644, Note_on_c, 0, 89, 71
1, 255669, Note_on_c, 0, 60, 41
1, 255673, Note_on_c, 0, 56, 0
1, 255686, Note_on_c, 0, 89, 0
1, 255725, Control_c, 0, 64, 127
1, 255731, Note_on_c, 0, 77, 47
1, 255770, Note_on_c, 0, 77, 0
1, 255786, Note_on_c, 0, 65, 0
1, 255803, Note_on_c, 0, 56, 32
1, 255806, Note_on_c, 0, 54, 29
1, 255809, Note_on_c, 0, 60, 0
1, 255851, Note_on_c, 0, 56, 0
1, 255859, Note_on_c, 0, 54, 0
1, 255859, Note_on_c, 0, 82, 52
1, 255900, Note_on_c, 0, 82, 0
1, 255940, Note_on_c, 0, 82, 63
1, 255995, Note_on_c, 0, 70, 61
1, 256001, Note_on_c, 0, 82, 0
1, 256054, Note_on_c, 0, 70, 0
1, 256054, Note_on_c, 0, 82, 47
1, 256101, Note_on_c, 0, 82, 0
1, 256141, Note_on_c, 0, 94, 56
1, 256180, Note_on_c, 0, 94, 0
1, 256208, Note_on_c, 0, 60, 37
1, 256216, Note_on_c, 0, 82, 60
1, 256257, Note_on_c, 0, 82, 0
1, 256271, Note_on_c, 0, 60, 0
1, 256361, Note_on_c, 0, 56, 46
1, 256383, Note_on_c, 0, 54, 36
1, 256418, Note_on_c, 0, 76, 55
1, 256453, Note_on_c, 0, 76, 0
1, 256503, Note_on_c, 0, 76, 45
1, 256516, Control_c, 0, 64, 0
1, 256525, Note_on_c, 0, 64, 60
1, 256555, Note_on_c, 0, 76, 0
1, 256588, Note_on_c, 0, 64, 0
1, 256588, Note_on_c, 0, 76, 27
1, 256600, Control_c, 0, 64, 127
1, 256630, Note_on_c, 0, 76, 0
1, 256642, Note_on_c, 0, 88, 72
1, 256664, Note_on_c, 0, 60, 54
1, 256680, Note_on_c, 0, 88, 0
1, 256701, Note_on_c, 0, 56, 0
1, 256706, Note_on_c, 0, 54, 0
1, 256706, Note_on_c, 0, 60, 0
1, 256737, Note_on_c, 0, 76, 22
1, 256801, Note_on_c, 0, 76, 0
1, 256804, Control_c, 0, 64, 0
1, 256828, Note_on_c, 0, 37, 72
1, 256873, Note_on_c, 0, 37, 0
1, 256886, Control_c, 0, 64, 127
1, 256895, Note_on_c, 0, 77, 66
1, 256924, Note_on_c, 0, 77, 0
1, 256968, Note_on_c, 0, 77, 72
1, 257009, Note_on_c, 0, 77, 0
1, 257020, Note_on_c, 0, 65, 58
1, 257056, Note_on_c, 0, 77, 83
1, 257060, Note_on_c, 0, 65, 0
1, 257095, Note_on_c, 0, 77, 0
1, 257138, Note_on_c, 0, 89, 75
1, 257146, Note_on_c, 0, 61, 70
1, 257188, Note_on_c, 0, 89, 0
1, 257188, Note_on_c, 0, 61, 0
1, 257215, Note_on_c, 0, 77, 44
1, 257257, Note_on_c, 0, 77, 0
1, 257272, Note_on_c, 0, 57, 65
1, 257290, Note_on_c, 0, 53, 68
1, 257347, Note_on_c, 0, 69, 60
1, 257380, Control_c, 0, 64, 0
1, 257380, Note_on_c, 0, 69, 0
1, 257421, Note_on_c, 0, 69, 71
1, 257425, Note_on_c, 0, 53, 0
1, 257444, Note_on_c, 0, 65, 49
1, 257456, Note_on_c, 0, 69, 0
1, 257475, Control_c, 0, 64, 127
1, 257508, Note_on_c, 0, 69, 55
1, 257550, Note_on_c, 0, 65, 0
1, 257556, Note_on_c, 0, 57, 0
1, 257559, Note_on_c, 0, 69, 0
1, 257586, Note_on_c, 0, 81, 86
1, 257594, Note_on_c, 0, 61, 56
1, 257636, Note_on_c, 0, 81, 0
1, 257655, Note_on_c, 0, 61, 0
1, 257661, Note_on_c, 0, 69, 67
1, 257719, Note_on_c, 0, 69, 0
1, 257754, Note_on_c, 0, 57, 39
1, 257773, Note_on_c, 0, 53, 51
1, 257786, Note_on_c, 0, 69, 55
1, 257811, Control_c, 0, 64, 0
1, 257851, Note_on_c, 0, 69, 0
1, 257893, Note_on_c, 0, 69, 43
1, 257893, Control_c, 0, 64, 127
1, 257907, Note_on_c, 0, 53, 0
1, 257943, Note_on_c, 0, 69, 0
1, 257979, Note_on_c, 0, 65, 32
1, 257985, Note_on_c, 0, 81, 68
1, 258018, Note_on_c, 0, 81, 0
1, 258041, Note_on_c, 0, 65, 0
1, 258049, Note_on_c, 0, 69, 57
1, 258090, Note_on_c, 0, 69, 0
1, 258107, Note_on_c, 0, 57, 0
1, 258123, Note_on_c, 0, 61, 43
1, 258123, Note_on_c, 0, 68, 69
1, 258155, Note_on_c, 0, 68, 0
1, 258187, Note_on_c, 0, 61, 0
1, 258187, Note_on_c, 0, 68, 75
1, 258241, Control_c, 0, 64, 0
1, 258246, Note_on_c, 0, 68, 0
1, 258265, Note_on_c, 0, 56, 40
1, 258272, Note_on_c, 0, 80, 74
1, 258275, Note_on_c, 0, 53, 57
1, 258316, Note_on_c, 0, 80, 0
1, 258332, Note_on_c, 0, 68, 48
1, 258350, Control_c, 0, 64, 127
1, 258369, Note_on_c, 0, 68, 0
1, 258416, Note_on_c, 0, 77, 61
1, 258424, Note_on_c, 0, 65, 34
1, 258447, Note_on_c, 0, 77, 0
1, 258453, Note_on_c, 0, 53, 0
1, 258480, Note_on_c, 0, 65, 0
1, 258489, Note_on_c, 0, 77, 79
1, 258534, Note_on_c, 0, 77, 0
1, 258597, Note_on_c, 0, 61, 42
1, 258597, Note_on_c, 0, 89, 57
1, 258642, Note_on_c, 0, 61, 0
1, 258651, Note_on_c, 0, 89, 0
1, 258667, Note_on_c, 0, 56, 0
1, 258695, Note_on_c, 0, 77, 54
1, 258745, Note_on_c, 0, 77, 0
1, 258809, Note_on_c, 0, 44, 66
1, 258817, Control_c, 0, 64, 0
1, 258920, Note_on_c, 0, 76, 57
1, 258937, Control_c, 0, 64, 127
1, 258951, Note_on_c, 0, 76, 0
1, 258951, Note_on_c, 0, 44, 0
1, 259006, Note_on_c, 0, 76, 46
1, 259055, Note_on_c, 0, 76, 0
1, 259074, Note_on_c, 0, 64, 67
1, 259110, Note_on_c, 0, 76, 51
1, 259166, Note_on_c, 0, 76, 0
1, 259201, Note_on_c, 0, 88, 71
1, 259230, Note_on_c, 0, 60, 44
1, 259244, Note_on_c, 0, 88, 0
1, 259286, Note_on_c, 0, 76, 45
1, 259293, Note_on_c, 0, 60, 0
1, 259314, Note_on_c, 0, 64, 0
1, 259335, Note_on_c, 0, 76, 0
1, 259363, Note_on_c, 0, 56, 50
1, 259366, Note_on_c, 0, 54, 64
1, 259420, Note_on_c, 0, 77, 74
1, 259447, Note_on_c, 0, 77, 0
1, 259488, Note_on_c, 0, 77, 82
1, 259519, Note_on_c, 0, 65, 76
1, 259527, Note_on_c, 0, 77, 0
1, 259575, Note_on_c, 0, 77, 77
1, 259626, Note_on_c, 0, 77, 0
1, 259645, Control_c, 0, 64, 0
1, 259651, Note_on_c, 0, 89, 84
1, 259676, Note_on_c, 0, 60, 55
1, 259686, Note_on_c, 0, 56, 0
1, 259686, Note_on_c, 0, 54, 0
1, 259698, Note_on_c, 0, 89, 0
1, 259728, Control_c, 0, 64, 127
1, 259728, Note_on_c, 0, 77, 54
1, 259756, Note_on_c, 0, 65, 0
1, 259779, Note_on_c, 0, 60, 0
1, 259779, Note_on_c, 0, 77, 0
1, 259787, Note_on_c, 0, 56, 46
1, 259790, Note_on_c, 0, 54, 50
1, 259835, Note_on_c, 0, 56, 0
1, 259835, Note_on_c, 0, 54, 0
1, 259860, Note_on_c, 0, 82, 67
1, 259901, Note_on_c, 0, 82, 0
1, 259949, Note_on_c, 0, 82, 66
1, 259970, Note_on_c, 0, 70, 76
1, 259984, Note_on_c, 0, 82, 0
1, 260027, Note_on_c, 0, 82, 69
1, 260046, Note_on_c, 0, 70, 0
1, 260110, Note_on_c, 0, 82, 0
1, 260141, Note_on_c, 0, 94, 55
1, 260180, Note_on_c, 0, 94, 0
1, 260185, Note_on_c, 0, 60, 50
1, 260222, Note_on_c, 0, 82, 40
1, 260252, Note_on_c, 0, 60, 0
1, 260269, Note_on_c, 0, 82, 0
1, 260336, Note_on_c, 0, 56, 41
1, 260350, Note_on_c, 0, 54, 43
1, 260400, Note_on_c, 0, 76, 58
1, 260434, Note_on_c, 0, 76, 0
1, 260478, Note_on_c, 0, 76, 64
1, 260511, Note_on_c, 0, 76, 0
1, 260539, Note_on_c, 0, 64, 56
1, 260555, Note_on_c, 0, 76, 69
1, 260609, Note_on_c, 0, 76, 0
1, 260644, Note_on_c, 0, 64, 0
1, 260661, Note_on_c, 0, 88, 53
1, 260706, Note_on_c, 0, 60, 33
1, 260723, Note_on_c, 0, 88, 0
1, 260729, Note_on_c, 0, 56, 0
1, 260739, Note_on_c, 0, 54, 0
1, 260762, Note_on_c, 0, 60, 0
1, 260762, Note_on_c, 0, 76, 47
1, 260840, Note_on_c, 0, 76, 0
1, 260840, Control_c, 0, 64, 0
1, 260865, Note_on_c, 0, 37, 73
1, 260951, Control_c, 0, 64, 127
1, 260954, Note_on_c, 0, 37, 0
1, 260971, Note_on_c, 0, 77, 60
1, 261004, Note_on_c, 0, 77, 0
1, 261054, Note_on_c, 0, 77, 65
1, 261101, Note_on_c, 0, 77, 0
1, 261104, Note_on_c, 0, 65, 57
1, 261152, Note_on_c, 0, 65, 0
1, 261155, Note_on_c, 0, 77, 64
1, 261202, Note_on_c, 0, 77, 0
1, 261241, Note_on_c, 0, 89, 71
1, 261266, Note_on_c, 0, 61, 52
1, 261286, Note_on_c, 0, 89, 0
1, 261317, Note_on_c, 0, 61, 0
1, 261328, Note_on_c, 0, 77, 46
1, 261366, Note_on_c, 0, 77, 0
1, 261391, Note_on_c, 0, 57, 54
1, 261403, Note_on_c, 0, 53, 68
1, 261491, Note_on_c, 0, 69, 55
1, 261509, Note_on_c, 0, 53, 0
1, 261530, Note_on_c, 0, 69, 0
1, 261578, Note_on_c, 0, 69, 46
1, 261584, Note_on_c, 0, 65, 41
1, 261598, Note_on_c, 0, 57, 0
1, 261625, Note_on_c, 0, 69, 0
1, 261667, Note_on_c, 0, 69, 65
1, 261700, Note_on_c, 0, 65, 0
1, 261720, Note_on_c, 0, 69, 0
1, 261760, Note_on_c, 0, 81, 81
1, 261760, Note_on_c, 0, 61, 49
1, 261809, Note_on_c, 0, 81, 0
1, 261846, Note_on_c, 0, 61, 0
1, 261849, Note_on_c, 0, 69, 57
1, 261902, Note_on_c, 0, 69, 0
1, 261915, Note_on_c, 0, 57, 50
1, 261937, Note_on_c, 0, 53, 56
1, 261976, Note_on_c, 0, 69, 54
1, 262037, Note_on_c, 0, 69, 0
1, 262060, Note_on_c, 0, 53, 0
1, 262090, Note_on_c, 0, 69, 52
1, 262133, Note_on_c, 0, 69, 0
1, 262161, Note_on_c, 0, 81, 75
1, 262169, Note_on_c, 0, 65, 33
1, 262193, Note_on_c, 0, 81, 0
1, 262224, Note_on_c, 0, 69, 44
1, 262230, Note_on_c, 0, 65, 0
1, 262268, Note_on_c, 0, 69, 0
1, 262282, Note_on_c, 0, 57, 0
1, 262289, Note_on_c, 0, 61, 54
1, 262302, Note_on_c, 0, 68, 72
1, 262333, Note_on_c, 0, 68, 0
1, 262345, Note_on_c, 0, 61, 0
1, 262375, Note_on_c, 0, 68, 72
1, 262400, Control_c, 0, 64, 0
1, 262428, Note_on_c, 0, 56, 42
1, 262434, Note_on_c, 0, 68, 0
1, 262450, Note_on_c, 0, 53, 56
1, 262450, Note_on_c, 0, 80, 76
1, 262506, Note_on_c, 0, 68, 54
1, 262509, Control_c, 0, 64, 127
1, 262544, Note_on_c, 0, 80, 0
1, 262558, Note_on_c, 0, 68, 0
1, 262603, Note_on_c, 0, 77, 52
1, 262603, Note_on_c, 0, 65, 27
1, 262640, Note_on_c, 0, 77, 0
1, 262667, Note_on_c, 0, 65, 0
1, 262682, Note_on_c, 0, 77, 81
1, 262725, Note_on_c, 0, 77, 0
1, 262771, Note_on_c, 0, 61, 26
1, 262789, Note_on_c, 0, 89, 61
1, 262798, Note_on_c, 0, 56, 0
1, 262820, Note_on_c, 0, 53, 0
1, 262826, Note_on_c, 0, 61, 0
1, 262838, Note_on_c, 0, 89, 0
1, 262877, Note_on_c, 0, 77, 53
1, 262963, Control_c, 0, 64, 0
1, 262984, Note_on_c, 0, 47, 74
1, 263005, Note_on_c, 0, 77, 0
1, 263085, Control_c, 0, 64, 127
1, 263085, Note_on_c, 0, 76, 57
1, 263115, Note_on_c, 0, 47, 0
1, 263121, Note_on_c, 0, 76, 0
1, 263172, Note_on_c, 0, 76, 50
1, 263216, Note_on_c, 0, 76, 0
1, 263232, Note_on_c, 0, 64, 76
1, 263266, Note_on_c, 0, 76, 60
1, 263316, Note_on_c, 0, 76, 0
1, 263367, Note_on_c, 0, 88, 67
1, 263389, Note_on_c, 0, 62, 50
1, 263405, Note_on_c, 0, 88, 0
1, 263433, Note_on_c, 0, 62, 0
1, 263439, Note_on_c, 0, 76, 47
1, 263486, Note_on_c, 0, 76, 0
1, 263515, Note_on_c, 0, 56, 47
1, 263526, Note_on_c, 0, 53, 74
1, 263570, Note_on_c, 0, 53, 0
1, 263575, Note_on_c, 0, 77, 79
1, 263575, Note_on_c, 0, 64, 0
1, 263601, Note_on_c, 0, 77, 0
1, 263642, Note_on_c, 0, 77, 84
1, 263661, Note_on_c, 0, 65, 78
1, 263684, Note_on_c, 0, 77, 0
1, 263725, Note_on_c, 0, 56, 0
1, 263737, Note_on_c, 0, 77, 78
1, 263764, Note_on_c, 0, 65, 0
1, 263790, Note_on_c, 0, 77, 0
1, 263809, Note_on_c, 0, 62, 63
1, 263829, Note_on_c, 0, 89, 76
1, 263843, Note_on_c, 0, 62, 0
1, 263871, Note_on_c, 0, 89, 0
1, 263907, Note_on_c, 0, 77, 64
1, 263946, Control_c, 0, 64, 0
1, 263955, Note_on_c, 0, 46, 81
1, 264029, Note_on_c, 0, 77, 0
1, 264029, Control_c, 0, 64, 127
1, 264051, Note_on_c, 0, 46, 0
1, 264051, Note_on_c, 0, 83, 97
1, 264090, Note_on_c, 0, 83, 0
1, 264141, Note_on_c, 0, 83, 97
1, 264180, Note_on_c, 0, 83, 0
1, 264200, Note_on_c, 0, 71, 69
1, 264236, Note_on_c, 0, 83, 89
1, 264239, Note_on_c, 0, 71, 0
1, 264286, Note_on_c, 0, 83, 0
1, 264328, Note_on_c, 0, 95, 83
1, 264355, Note_on_c, 0, 62, 61
1, 264364, Note_on_c, 0, 95, 0
1, 264398, Note_on_c, 0, 83, 97
1, 264430, Note_on_c, 0, 62, 0
1, 264430, Note_on_c, 0, 83, 0
1, 264472, Note_on_c, 0, 53, 75
1, 264475, Note_on_c, 0, 56, 50
1, 264512, Note_on_c, 0, 53, 0
1, 264534, Note_on_c, 0, 77, 64
1, 264565, Note_on_c, 0, 77, 0
1, 264581, Note_on_c, 0, 56, 0
1, 264609, Note_on_c, 0, 77, 78
1, 264622, Note_on_c, 0, 65, 51
1, 264637, Note_on_c, 0, 77, 0
1, 264682, Note_on_c, 0, 77, 69
1, 264685, Note_on_c, 0, 65, 0
1, 264721, Note_on_c, 0, 62, 55
1, 264724, Note_on_c, 0, 77, 0
1, 264748, Note_on_c, 0, 89, 78
1, 264760, Note_on_c, 0, 62, 0
1, 264781, Note_on_c, 0, 89, 0
1, 264817, Note_on_c, 0, 77, 42
1, 264857, Control_c, 0, 64, 0
1, 264863, Note_on_c, 0, 77, 0
1, 264873, Note_on_c, 0, 39, 88
1, 264965, Control_c, 0, 64, 127
1, 264987, Note_on_c, 0, 78, 69
1, 264996, Note_on_c, 0, 39, 0
1, 265041, Note_on_c, 0, 78, 0
1, 265083, Note_on_c, 0, 78, 75
1, 265113, Note_on_c, 0, 66, 53
1, 265113, Note_on_c, 0, 78, 0
1, 265160, Note_on_c, 0, 78, 69
1, 265185, Note_on_c, 0, 66, 0
1, 265231, Note_on_c, 0, 78, 0
1, 265263, Note_on_c, 0, 90, 63
1, 265277, Note_on_c, 0, 63, 48
1, 265299, Note_on_c, 0, 90, 0
1, 265322, Note_on_c, 0, 63, 0
1, 265322, Note_on_c, 0, 78, 62
1, 265358, Note_on_c, 0, 78, 0
1, 265420, Note_on_c, 0, 57, 39
1, 265437, Note_on_c, 0, 54, 45
1, 265495, Note_on_c, 0, 71, 73
1, 265506, Note_on_c, 0, 54, 0
1, 265531, Note_on_c, 0, 71, 0
1, 265568, Note_on_c, 0, 71, 90
1, 265598, Note_on_c, 0, 71, 0
1, 265604, Note_on_c, 0, 66, 41
1, 265622, Note_on_c, 0, 57, 0
1, 265648, Note_on_c, 0, 71, 69
1, 265675, Note_on_c, 0, 66, 0
1, 265709, Note_on_c, 0, 71, 0
1, 265742, Note_on_c, 0, 83, 105
1, 265751, Note_on_c, 0, 63, 59
1, 265773, Note_on_c, 0, 83, 0
1, 265793, Note_on_c, 0, 63, 0
1, 265820, Note_on_c, 0, 71, 72
1, 265862, Note_on_c, 0, 71, 0
1, 265905, Note_on_c, 0, 57, 39
1, 265929, Note_on_c, 0, 54, 32
1, 265944, Note_on_c, 0, 71, 75
1, 265993, Note_on_c, 0, 71, 0
1, 266043, Note_on_c, 0, 54, 0
1, 266043, Note_on_c, 0, 71, 74
1, 266099, Note_on_c, 0, 71, 0
1, 266136, Note_on_c, 0, 66, 42
1, 266141, Note_on_c, 0, 83, 94
1, 266171, Note_on_c, 0, 83, 0
1, 266188, Note_on_c, 0, 57, 0
1, 266205, Note_on_c, 0, 71, 74
1, 266231, Note_on_c, 0, 66, 0
1, 266246, Note_on_c, 0, 71, 0
1, 266286, Note_on_c, 0, 70, 72
1, 266286, Note_on_c, 0, 63, 53
1, 266322, Note_on_c, 0, 70, 0
1, 266339, Note_on_c, 0, 63, 0
1, 266358, Note_on_c, 0, 70, 73
1, 266391, Control_c, 0, 64, 0
1, 266403, Note_on_c, 0, 70, 0
1, 266425, Note_on_c, 0, 58, 38
1, 266425, Note_on_c, 0, 82, 69
1, 266436, Note_on_c, 0, 54, 40
1, 266465, Note_on_c, 0, 82, 0
1, 266473, Note_on_c, 0, 70, 48
1, 266500, Control_c, 0, 64, 127
1, 266529, Note_on_c, 0, 70, 0
1, 266568, Note_on_c, 0, 78, 56
1, 266578, Note_on_c, 0, 66, 48
1, 266597, Note_on_c, 0, 54, 0
1, 266604, Note_on_c, 0, 78, 0
1, 266643, Note_on_c, 0, 78, 72
1, 266651, Note_on_c, 0, 66, 0
1, 266685, Note_on_c, 0, 78, 0
1, 266712, Note_on_c, 0, 58, 0
1, 266712, Note_on_c, 0, 63, 41
1, 266732, Note_on_c, 0, 90, 50
1, 266757, Note_on_c, 0, 63, 0
1, 266774, Note_on_c, 0, 90, 0
1, 266795, Note_on_c, 0, 78, 57
1, 266885, Note_on_c, 0, 78, 0
1, 266894, Control_c, 0, 64, 0
1, 266904, Note_on_c, 0, 47, 73
1, 267002, Control_c, 0, 64, 127
1, 267005, Note_on_c, 0, 76, 39
1, 267040, Note_on_c, 0, 47, 0
1, 267050, Note_on_c, 0, 76, 0
1, 267110, Note_on_c, 0, 76, 38
1, 267152, Note_on_c, 0, 64, 74
1, 267167, Note_on_c, 0, 76, 0
1, 267209, Note_on_c, 0, 76, 38
1, 267266, Note_on_c, 0, 76, 0
1, 267280, Note_on_c, 0, 88, 65
1, 267311, Note_on_c, 0, 62, 42
1, 267319, Note_on_c, 0, 88, 0
1, 267359, Note_on_c, 0, 62, 0
1, 267369, Note_on_c, 0, 76, 40
1, 267412, Note_on_c, 0, 76, 0
1, 267436, Note_on_c, 0, 53, 60
1, 267456, Note_on_c, 0, 56, 25
1, 267487, Note_on_c, 0, 53, 0
1, 267490, Note_on_c, 0, 64, 0
1, 267493, Note_on_c, 0, 77, 60
1, 267527, Note_on_c, 0, 77, 0
1, 267570, Note_on_c, 0, 77, 46
1, 267604, Note_on_c, 0, 65, 36
1, 267608, Note_on_c, 0, 77, 0
1, 267668, Note_on_c, 0, 77, 43
1, 267698, Note_on_c, 0, 62, 58
1, 267710, Note_on_c, 0, 77, 0
1, 267715, Note_on_c, 0, 65, 0
1, 267732, Note_on_c, 0, 89, 55
1, 267732, Note_on_c, 0, 62, 0
1, 267757, Note_on_c, 0, 56, 0
1, 267774, Note_on_c, 0, 89, 0
1, 267798, Note_on_c, 0, 77, 33
1, 267829, Control_c, 0, 64, 0
1, 267855, Note_on_c, 0, 46, 51
1, 267913, Control_c, 0, 64, 127
1, 267937, Note_on_c, 0, 77, 0
1, 267955, Note_on_c, 0, 46, 0
1, 267972, Note_on_c, 0, 83, 76
1, 268005, Note_on_c, 0, 83, 0
1, 268060, Note_on_c, 0, 83, 80
1, 268080, Note_on_c, 0, 71, 71
1, 268124, Note_on_c, 0, 83, 0
1, 268150, Note_on_c, 0, 71, 0
1, 268192, Note_on_c, 0, 83, 76
1, 268224, Note_on_c, 0, 83, 0
1, 268261, Note_on_c, 0, 62, 46
1, 268270, Note_on_c, 0, 95, 55
1, 268308, Note_on_c, 0, 95, 0
1, 268308, Note_on_c, 0, 62, 0
1, 268336, Note_on_c, 0, 83, 73
1, 268373, Note_on_c, 0, 83, 0
1, 268415, Note_on_c, 0, 56, 33
1, 268437, Note_on_c, 0, 53, 27
1, 268479, Note_on_c, 0, 77, 59
1, 268493, Note_on_c, 0, 53, 0
1, 268511, Note_on_c, 0, 77, 0
1, 268551, Note_on_c, 0, 77, 83
1, 268578, Note_on_c, 0, 65, 34
1, 268596, Note_on_c, 0, 77, 0
1, 268640, Note_on_c, 0, 65, 0
1, 268653, Note_on_c, 0, 77, 60
1, 268703, Note_on_c, 0, 62, 46
1, 268703, Note_on_c, 0, 77, 0
1, 268741, Note_on_c, 0, 62, 0
1, 268741, Note_on_c, 0, 89, 54
1, 268765, Note_on_c, 0, 56, 0
1, 268785, Note_on_c, 0, 89, 0
1, 268829, Note_on_c, 0, 77, 46
1, 268891, Note_on_c, 0, 77, 0
1, 268938, Note_on_c, 0, 39, 59
1, 268944, Control_c, 0, 64, 0
1, 269064, Control_c, 0, 64, 127
1, 269067, Note_on_c, 0, 78, 45
1, 269088, Note_on_c, 0, 39, 0
1, 269117, Note_on_c, 0, 78, 0
1, 269167, Note_on_c, 0, 78, 58
1, 269209, Note_on_c, 0, 66, 50
1, 269220, Note_on_c, 0, 78, 0
1, 269267, Note_on_c, 0, 78, 69
1, 269320, Note_on_c, 0, 66, 0
1, 269320, Note_on_c, 0, 78, 0
1, 269373, Note_on_c, 0, 90, 48
1, 269387, Note_on_c, 0, 63, 44
1, 269412, Note_on_c, 0, 90, 0
1, 269433, Note_on_c, 0, 63, 0
1, 269443, Note_on_c, 0, 78, 44
1, 269487, Note_on_c, 0, 78, 0
1, 269554, Note_on_c, 0, 57, 32
1, 269557, Note_on_c, 0, 54, 31
1, 269626, Note_on_c, 0, 54, 0
1, 269687, Note_on_c, 0, 71, 68
1, 269724, Note_on_c, 0, 57, 0
1, 269727, Note_on_c, 0, 71, 0
1, 269731, Note_on_c, 0, 66, 37
1, 269774, Note_on_c, 0, 71, 83
1, 269810, Note_on_c, 0, 71, 0
1, 269837, Note_on_c, 0, 71, 83
1, 269866, Note_on_c, 0, 66, 0
1, 269873, Note_on_c, 0, 71, 0
1, 269873, Note_on_c, 0, 83, 76
1, 269901, Note_on_c, 0, 63, 46
1, 269908, Note_on_c, 0, 83, 0
1, 269940, Note_on_c, 0, 71, 61
1, 269949, Note_on_c, 0, 63, 0
1, 269982, Note_on_c, 0, 71, 0
1, 270028, Note_on_c, 0, 71, 80
1, 270055, Note_on_c, 0, 54, 34
1, 270061, Note_on_c, 0, 57, 27
1, 270064, Note_on_c, 0, 71, 0
1, 270114, Note_on_c, 0, 71, 62
1, 270163, Note_on_c, 0, 71, 0
1, 270186, Note_on_c, 0, 83, 101
1, 270206, Note_on_c, 0, 54, 0
1, 270214, Note_on_c, 0, 83, 0
1, 270222, Note_on_c, 0, 66, 40
1, 270231, Note_on_c, 0, 57, 0
1, 270248, Note_on_c, 0, 71, 55
1, 270292, Note_on_c, 0, 71, 0
1, 270316, Note_on_c, 0, 66, 0
1, 270337, Note_on_c, 0, 70, 58
1, 270361, Note_on_c, 0, 63, 43
1, 270373, Note_on_c, 0, 70, 0
1, 270409, Note_on_c, 0, 63, 0
1, 270409, Note_on_c, 0, 70, 69
1, 270459, Note_on_c, 0, 70, 0
1, 270501, Note_on_c, 0, 82, 60
1, 270501, Control_c, 0, 64, 0
1, 270512, Note_on_c, 0, 58, 26
1, 270521, Note_on_c, 0, 54, 38
1, 270576, Note_on_c, 0, 70, 38
1, 270610, Control_c, 0, 64, 127
1, 270613, Note_on_c, 0, 82, 0
1, 270624, Note_on_c, 0, 70, 0
1, 270681, Note_on_c, 0, 78, 50
1, 270681, Note_on_c, 0, 66, 32
1, 270718, Note_on_c, 0, 78, 0
1, 270757, Note_on_c, 0, 78, 70
1, 270771, Note_on_c, 0, 66, 0
1, 270811, Note_on_c, 0, 78, 0
1, 270836, Note_on_c, 0, 78, 70
1, 270847, Note_on_c, 0, 58, 0
1, 270863, Note_on_c, 0, 54, 0
1, 270880, Note_on_c, 0, 63, 40
1, 270890, Note_on_c, 0, 78, 0
1, 270890, Note_on_c, 0, 90, 38
1, 270921, Note_on_c, 0, 63, 0
1, 270954, Note_on_c, 0, 90, 0
1, 270989, Note_on_c, 0, 78, 39
1, 271110, Note_on_c, 0, 78, 0
1, 271116, Note_on_c, 0, 48, 51
1, 271223, Note_on_c, 0, 78, 61
1, 271228, Note_on_c, 0, 48, 0
1, 271256, Note_on_c, 0, 78, 0
1, 271309, Note_on_c, 0, 78, 51
1, 271358, Note_on_c, 0, 66, 79
1, 271367, Note_on_c, 0, 78, 0
1, 271418, Note_on_c, 0, 78, 59
1, 271459, Note_on_c, 0, 78, 0
1, 271501, Note_on_c, 0, 90, 70
1, 271529, Note_on_c, 0, 63, 59
1, 271548, Note_on_c, 0, 90, 0
1, 271571, Note_on_c, 0, 63, 0
1, 271574, Note_on_c, 0, 78, 66
1, 271620, Note_on_c, 0, 78, 0
1, 271657, Note_on_c, 0, 58, 50
1, 271696, Note_on_c, 0, 66, 0
1, 271710, Note_on_c, 0, 85, 73
1, 271723, Note_on_c, 0, 58, 0
1, 271740, Note_on_c, 0, 85, 0
1, 271788, Note_on_c, 0, 85, 70
1, 271808, Note_on_c, 0, 73, 81
1, 271837, Note_on_c, 0, 85, 0
1, 271877, Note_on_c, 0, 85, 84
1, 271896, Note_on_c, 0, 73, 0
1, 271966, Note_on_c, 0, 85, 0
1, 271983, Note_on_c, 0, 63, 67
1, 271983, Note_on_c, 0, 66, 52
1, 271988, Note_on_c, 0, 97, 81
1, 272011, Note_on_c, 0, 63, 0
1, 272022, Note_on_c, 0, 66, 0
1, 272069, Note_on_c, 0, 85, 75
1, 272081, Note_on_c, 0, 97, 0
1, 272152, Note_on_c, 0, 85, 0
1, 272195, Note_on_c, 0, 85, 86
1, 272208, Note_on_c, 0, 41, 84
1, 272241, Control_c, 0, 64, 0
1, 272255, Note_on_c, 0, 85, 0
1, 272315, Note_on_c, 0, 85, 80
1, 272330, Note_on_c, 0, 41, 0
1, 272336, Control_c, 0, 64, 127
1, 272403, Note_on_c, 0, 85, 0
1, 272443, Note_on_c, 0, 97, 75
1, 272492, Note_on_c, 0, 97, 0
1, 272498, Note_on_c, 0, 73, 78
1, 272531, Note_on_c, 0, 85, 68
1, 272588, Note_on_c, 0, 85, 0
1, 272615, Note_on_c, 0, 73, 0
1, 272641, Note_on_c, 0, 85, 72
1, 272676, Note_on_c, 0, 85, 0
1, 272698, Note_on_c, 0, 63, 47
1, 272707, Note_on_c, 0, 66, 32
1, 272738, Note_on_c, 0, 63, 0
1, 272743, Note_on_c, 0, 85, 43
1, 272758, Note_on_c, 0, 66, 0
1, 272785, Note_on_c, 0, 85, 0
1, 272835, Note_on_c, 0, 97, 47
1, 272857, Note_on_c, 0, 57, 34
1, 272871, Note_on_c, 0, 97, 0
1, 272902, Note_on_c, 0, 85, 55
1, 272950, Note_on_c, 0, 85, 0
1, 273033, Note_on_c, 0, 84, 42
1, 273058, Note_on_c, 0, 72, 49
1, 273072, Note_on_c, 0, 84, 0
1, 273091, Control_c, 0, 64, 0
1, 273134, Note_on_c, 0, 84, 41
1, 273187, Note_on_c, 0, 84, 0
1, 273187, Control_c, 0, 64, 127
1, 273233, Note_on_c, 0, 72, 0
1, 273236, Note_on_c, 0, 96, 46
1, 273244, Note_on_c, 0, 63, 45
1, 273276, Note_on_c, 0, 65, 10
1, 273301, Note_on_c, 0, 96, 0
1, 273306, Note_on_c, 0, 63, 0
1, 273329, Note_on_c, 0, 65, 0
1, 273334, Note_on_c, 0, 84, 55
1, 273337, Note_on_c, 0, 57, 0
1, 273487, Note_on_c, 0, 46, 50
1, 273487, Control_c, 0, 64, 0
1, 273531, Note_on_c, 0, 84, 0
1, 273559, Control_c, 0, 64, 127
1, 273615, Note_on_c, 0, 46, 0
1, 273687, Note_on_c, 0, 84, 43
1, 273748, Note_on_c, 0, 72, 40
1, 273763, Note_on_c, 0, 84, 0
1, 273860, Note_on_c, 0, 72, 0
1, 273860, Note_on_c, 0, 96, 36
1, 273935, Note_on_c, 0, 95, 48
1, 273935, Note_on_c, 0, 96, 0
1, 273958, Note_on_c, 0, 63, 17
1, 273966, Note_on_c, 0, 65, 18
1, 273988, Note_on_c, 0, 95, 0
1, 274003, Note_on_c, 0, 94, 45
1, 274017, Note_on_c, 0, 63, 0
1, 274024, Note_on_c, 0, 65, 0
1, 274049, Note_on_c, 0, 94, 0
1, 274067, Note_on_c, 0, 93, 42
1, 274117, Note_on_c, 0, 56, 38
1, 274128, Note_on_c, 0, 92, 57
1, 274161, Note_on_c, 0, 93, 0
1, 274178, Note_on_c, 0, 91, 51
1, 274194, Note_on_c, 0, 92, 0
1, 274202, Note_on_c, 0, 56, 0
1, 274244, Note_on_c, 0, 90, 59
1, 274278, Note_on_c, 0, 91, 0
1, 274283, Note_on_c, 0, 90, 0
1, 274301, Note_on_c, 0, 89, 54
1, 274308, Note_on_c, 0, 71, 65
1, 274350, Note_on_c, 0, 88, 71
1, 274359, Note_on_c, 0, 89, 0
1, 274409, Note_on_c, 0, 87, 60
1, 274437, Note_on_c, 0, 71, 0
1, 274448, Note_on_c, 0, 87, 0
1, 274448, Note_on_c, 0, 63, 41
1, 274456, Note_on_c, 0, 88, 0
1, 274470, Note_on_c, 0, 86, 64
1, 274489, Note_on_c, 0, 63, 0
1, 274509, Note_on_c, 0, 86, 0
1, 274515, Note_on_c, 0, 85, 70
1, 274571, Note_on_c, 0, 84, 79
1, 274606, Note_on_c, 0, 85, 0
1, 274606, Note_on_c, 0, 84, 0
1, 274606, Note_on_c, 0, 56, 41
1, 274629, Note_on_c, 0, 83, 88
1, 274680, Note_on_c, 0, 82, 71
1, 274693, Note_on_c, 0, 83, 0
1, 274726, Note_on_c, 0, 56, 0
1, 274735, Note_on_c, 0, 81, 67
1, 274783, Note_on_c, 0, 82, 0
1, 274786, Note_on_c, 0, 80, 75
1, 274808, Note_on_c, 0, 71, 72
1, 274825, Note_on_c, 0, 81, 0
1, 274825, Note_on_c, 0, 80, 0
1, 274850, Note_on_c, 0, 79, 72
1, 274888, Note_on_c, 0, 79, 0
1, 274896, Note_on_c, 0, 78, 73
1, 274918, Note_on_c, 0, 71, 0
1, 274949, Note_on_c, 0, 78, 0
1, 274963, Note_on_c, 0, 77, 68
1, 274971, Note_on_c, 0, 65, 36
1, 274985, Note_on_c, 0, 62, 11
1, 275000, Note_on_c, 0, 77, 0
1, 275000, Note_on_c, 0, 78, 74
1, 275061, Note_on_c, 0, 77, 64
1, 275097, Note_on_c, 0, 78, 0
1, 275147, Note_on_c, 0, 77, 0
1, 275152, Note_on_c, 0, 76, 66
1, 275175, Note_on_c, 0, 70, 34
1, 275212, Control_c, 0, 64, 0
1, 275219, Note_on_c, 0, 56, 2
1, 275270, Note_on_c, 0, 77, 70
1, 275293, Note_on_c, 0, 76, 0
1, 275345, Control_c, 0, 64, 127
1, 275400, Note_on_c, 0, 78, 65
1, 275400, Note_on_c, 0, 77, 0
1, 275537, Note_on_c, 0, 78, 0
1, 275537, Note_on_c, 0, 77, 61
1, 275571, Control_c, 0, 64, 0
1, 275715, Note_on_c, 0, 77, 0
1, 275715, Note_on_c, 0, 83, 59
1, 275752, Control_c, 0, 64, 127
1, 275796, Note_on_c, 0, 70, 0
1, 275810, Note_on_c, 0, 62, 0
1, 275829, Note_on_c, 0, 65, 0
1, 275916, Note_on_c, 0, 83, 0
1, 275925, Note_on_c, 0, 56, 0
1, 275949, Note_on_c, 0, 82, 34
1, 275999, Note_on_c, 0, 82, 0
1, 276066, Note_on_c, 0, 46, 46
1, 276173, Note_on_c, 0, 76, 51
1, 276183, Note_on_c, 0, 46, 0
1, 276208, Note_on_c, 0, 76, 0
1, 276253, Note_on_c, 0, 76, 62
1, 276276, Note_on_c, 0, 64, 73
1, 276306, Note_on_c, 0, 76, 0
1, 276357, Note_on_c, 0, 76, 59
1, 276421, Note_on_c, 0, 76, 0
1, 276448, Note_on_c, 0, 88, 74
1, 276456, Note_on_c, 0, 61, 35
1, 276512, Note_on_c, 0, 88, 0
1, 276537, Note_on_c, 0, 76, 51
1, 276549, Note_on_c, 0, 61, 0
1, 276598, Note_on_c, 0, 76, 0
1, 276634, Note_on_c, 0, 56, 51
1, 276696, Note_on_c, 0, 64, 0
1, 276730, Note_on_c, 0, 56, 0
1, 276746, Note_on_c, 0, 83, 94
1, 276776, Note_on_c, 0, 83, 0
1, 276829, Note_on_c, 0, 71, 88
1, 276832, Note_on_c, 0, 83, 95
1, 276869, Note_on_c, 0, 83, 0
1, 276891, Note_on_c, 0, 71, 0
1, 276926, Note_on_c, 0, 83, 87
1, 276981, Note_on_c, 0, 83, 0
1, 277008, Note_on_c, 0, 64, 63
1, 277014, Note_on_c, 0, 61, 58
1, 277027, Note_on_c, 0, 95, 80
1, 277042, Note_on_c, 0, 64, 0
1, 277048, Note_on_c, 0, 61, 0
1, 277095, Note_on_c, 0, 95, 0
1, 277119, Note_on_c, 0, 83, 84
1, 277159, Note_on_c, 0, 83, 0
1, 277220, Note_on_c, 0, 39, 45
1, 277220, Note_on_c, 0, 83, 86
1, 277278, Note_on_c, 0, 83, 0
1, 277323, Note_on_c, 0, 39, 0
1, 277336, Note_on_c, 0, 83, 95
1, 277431, Note_on_c, 0, 83, 0
1, 277467, Note_on_c, 0, 95, 74
1, 277487, Note_on_c, 0, 71, 84
1, 277535, Note_on_c, 0, 95, 0
1, 277577, Note_on_c, 0, 83, 76
1, 277615, Note_on_c, 0, 83, 0
1, 277655, Note_on_c, 0, 71, 0
1, 277658, Note_on_c, 0, 83, 100
1, 277663, Note_on_c, 0, 64, 51
1, 277666, Note_on_c, 0, 61, 43
1, 277687, Note_on_c, 0, 83, 0
1, 277704, Note_on_c, 0, 64, 0
1, 277708, Note_on_c, 0, 61, 0
1, 277738, Note_on_c, 0, 83, 87
1, 277783, Note_on_c, 0, 83, 0
1, 277829, Note_on_c, 0, 55, 52
1, 277829, Note_on_c, 0, 95, 73
1, 277864, Note_on_c, 0, 95, 0
1, 277913, Note_on_c, 0, 83, 63
1, 277950, Note_on_c, 0, 83, 0
1, 278000, Note_on_c, 0, 70, 44
1, 278011, Note_on_c, 0, 82, 56
1, 278028, Control_c, 0, 64, 0
1, 278048, Note_on_c, 0, 82, 0
1, 278086, Note_on_c, 0, 82, 72
1, 278094, Note_on_c, 0, 70, 0
1, 278100, Control_c, 0, 64, 127
1, 278151, Note_on_c, 0, 82, 0
1, 278176, Note_on_c, 0, 61, 40
1, 278176, Note_on_c, 0, 63, 40
1, 278206, Note_on_c, 0, 94, 44
1, 278228, Note_on_c, 0, 63, 0
1, 278236, Note_on_c, 0, 61, 0
1, 278247, Note_on_c, 0, 55, 0
1, 278314, Note_on_c, 0, 82, 42
1, 278317, Note_on_c, 0, 94, 0
1, 278424, Control_c, 0, 64, 0
1, 278449, Note_on_c, 0, 44, 48
1, 278520, Note_on_c, 0, 82, 0
1, 278532, Control_c, 0, 64, 127
1, 278573, Note_on_c, 0, 44, 0
1, 278637, Note_on_c, 0, 82, 41
1, 278705, Note_on_c, 0, 70, 47
1, 278724, Note_on_c, 0, 82, 0
1, 278743, Note_on_c, 0, 87, 34
1, 278761, Note_on_c, 0, 70, 0
1, 278791, Note_on_c, 0, 87, 0
1, 278830, Note_on_c, 0, 94, 24
1, 278880, Note_on_c, 0, 93, 41
1, 278888, Note_on_c, 0, 94, 0
1, 278914, Note_on_c, 0, 61, 35
1, 278924, Note_on_c, 0, 63, 28
1, 278927, Note_on_c, 0, 93, 0
1, 278935, Note_on_c, 0, 92, 42
1, 278963, Note_on_c, 0, 61, 0
1, 278980, Note_on_c, 0, 92, 0
1, 278984, Note_on_c, 0, 63, 0
1, 279009, Note_on_c, 0, 91, 48
1, 279055, Note_on_c, 0, 91, 0
1, 279067, Note_on_c, 0, 90, 59
1, 279080, Note_on_c, 0, 54, 48
1, 279126, Note_on_c, 0, 54, 0
1, 279131, Note_on_c, 0, 90, 0
1, 279147, Note_on_c, 0, 89, 35
1, 279195, Note_on_c, 0, 88, 48
1, 279204, Note_on_c, 0, 89, 0
1, 279239, Note_on_c, 0, 88, 0
1, 279248, Note_on_c, 0, 87, 54
1, 279261, Note_on_c, 0, 69, 50
1, 279301, Note_on_c, 0, 86, 60
1, 279325, Note_on_c, 0, 87, 0
1, 279360, Note_on_c, 0, 85, 57
1, 279384, Note_on_c, 0, 86, 0
1, 279390, Note_on_c, 0, 69, 0
1, 279395, Note_on_c, 0, 85, 0
1, 279407, Note_on_c, 0, 63, 44
1, 279407, Note_on_c, 0, 61, 45
1, 279424, Note_on_c, 0, 84, 49
1, 279449, Note_on_c, 0, 61, 0
1, 279449, Note_on_c, 0, 63, 0
1, 279457, Note_on_c, 0, 83, 98
1, 279460, Note_on_c, 0, 84, 0
1, 279521, Note_on_c, 0, 82, 52
1, 279538, Note_on_c, 0, 83, 0
1, 279565, Note_on_c, 0, 82, 0
1, 279574, Note_on_c, 0, 54, 56
1, 279574, Note_on_c, 0, 81, 62
1, 279613, Note_on_c, 0, 81, 0
1, 279647, Note_on_c, 0, 80, 59
1, 279661, Note_on_c, 0, 54, 0
1, 279690, Note_on_c, 0, 80, 0
1, 279707, Note_on_c, 0, 79, 61
1, 279739, Note_on_c, 0, 69, 49
1, 279744, Note_on_c, 0, 79, 0
1, 279769, Note_on_c, 0, 78, 64
1, 279810, Note_on_c, 0, 78, 0
1, 279830, Note_on_c, 0, 69, 0
1, 279830, Note_on_c, 0, 77, 68
1, 279872, Note_on_c, 0, 77, 0
1, 279899, Note_on_c, 0, 76, 51
1, 279903, Note_on_c, 0, 63, 42
1, 279916, Note_on_c, 0, 60, 20
1, 279944, Note_on_c, 0, 76, 0
1, 279955, Note_on_c, 0, 75, 66
1, 279998, Note_on_c, 0, 60, 0
1, 279998, Note_on_c, 0, 75, 0
1, 280003, Note_on_c, 0, 76, 52
1, 280076, Note_on_c, 0, 75, 56
1, 280095, Note_on_c, 0, 76, 0
1, 280111, Note_on_c, 0, 60, 11
1, 280154, Note_on_c, 0, 75, 0
1, 280179, Note_on_c, 0, 74, 63
1, 280179, Note_on_c, 0, 68, 27
1, 280215, Note_on_c, 0, 54, 2
1, 280306, Control_c, 0, 64, 0
1, 280317, Note_on_c, 0, 75, 53
1, 280335, Note_on_c, 0, 74, 0
1, 280426, Control_c, 0, 64, 127
1, 280445, Note_on_c, 0, 76, 56
1, 280452, Note_on_c, 0, 75, 0
1, 280474, Control_c, 0, 64, 0
1, 280577, Note_on_c, 0, 75, 55
1, 280587, Note_on_c, 0, 76, 0
1, 280593, Control_c, 0, 64, 127
1, 280665, Control_c, 0, 64, 0
1, 280774, Note_on_c, 0, 81, 43
1, 280774, Note_on_c, 0, 75, 0
1, 280822, Note_on_c, 0, 68, 0
1, 280833, Control_c, 0, 64, 127
1, 280864, Note_on_c, 0, 63, 0
1, 280871, Note_on_c, 0, 60, 0
1, 280972, Note_on_c, 0, 54, 0
1, 280981, Note_on_c, 0, 81, 0
1, 281012, Note_on_c, 0, 80, 29
1, 281064, Note_on_c, 0, 80, 0
1, 281161, Note_on_c, 0, 44, 48
1, 281217, Control_c, 0, 64, 0
1, 281289, Control_c, 0, 64, 127
1, 281307, Note_on_c, 0, 74, 50
1, 281318, Note_on_c, 0, 44, 0
1, 281343, Note_on_c, 0, 74, 0
1, 281396, Note_on_c, 0, 74, 63
1, 281441, Note_on_c, 0, 62, 38
1, 281451, Note_on_c, 0, 74, 0
1, 281512, Note_on_c, 0, 74, 64
1, 281554, Note_on_c, 0, 74, 0
1, 281608, Note_on_c, 0, 59, 17
1, 281608, Note_on_c, 0, 86, 61
1, 281652, Note_on_c, 0, 86, 0
1, 281661, Note_on_c, 0, 59, 0
1, 281685, Note_on_c, 0, 74, 53
1, 281732, Note_on_c, 0, 74, 0
1, 281732, Note_on_c, 0, 53, 74
1, 281757, Note_on_c, 0, 62, 0
1, 281774, Note_on_c, 0, 53, 0
1, 281841, Note_on_c, 0, 81, 61
1, 281875, Note_on_c, 0, 81, 0
1, 281916, Note_on_c, 0, 81, 76
1, 281920, Note_on_c, 0, 69, 18
1, 281953, Note_on_c, 0, 81, 0
1, 281986, Note_on_c, 0, 69, 0
1, 282001, Note_on_c, 0, 81, 64
1, 282055, Note_on_c, 0, 81, 0
1, 282062, Note_on_c, 0, 62, 35
1, 282076, Note_on_c, 0, 59, 41
1, 282100, Note_on_c, 0, 93, 69
1, 282104, Note_on_c, 0, 62, 0
1, 282114, Note_on_c, 0, 59, 0
1, 282150, Note_on_c, 0, 93, 0
1, 282187, Note_on_c, 0, 81, 52
1, 282262, Note_on_c, 0, 81, 0
1, 282318, Control_c, 0, 64, 0
1, 282345, Note_on_c, 0, 37, 60
1, 282359, Note_on_c, 0, 81, 57
1, 282426, Note_on_c, 0, 81, 0
1, 282438, Control_c, 0, 64, 127
1, 282457, Note_on_c, 0, 37, 0
1, 282480, Note_on_c, 0, 81, 69
1, 282557, Note_on_c, 0, 81, 0
1, 282624, Note_on_c, 0, 93, 58
1, 282643, Note_on_c, 0, 69, 23
1, 282677, Note_on_c, 0, 93, 0
1, 282727, Note_on_c, 0, 69, 0
1, 282741, Note_on_c, 0, 81, 40
1, 282783, Note_on_c, 0, 81, 0
1, 282825, Note_on_c, 0, 81, 78
1, 282831, Note_on_c, 0, 62, 24
1, 282839, Note_on_c, 0, 59, 21
1, 282864, Note_on_c, 0, 81, 0
1, 282891, Note_on_c, 0, 59, 0
1, 282913, Note_on_c, 0, 81, 71
1, 282917, Note_on_c, 0, 62, 0
1, 282956, Note_on_c, 0, 81, 0
1, 283005, Note_on_c, 0, 53, 53
1, 283025, Note_on_c, 0, 93, 56
1, 283064, Note_on_c, 0, 93, 0
1, 283114, Note_on_c, 0, 81, 29
1, 283167, Note_on_c, 0, 81, 0
1, 283217, Note_on_c, 0, 68, 45
1, 283217, Note_on_c, 0, 80, 42
1, 283259, Note_on_c, 0, 80, 0
1, 283309, Note_on_c, 0, 80, 58
1, 283313, Note_on_c, 0, 68, 0
1, 283366, Note_on_c, 0, 80, 0
1, 283446, Note_on_c, 0, 53, 0
1, 283454, Note_on_c, 0, 62, 32
1, 283460, Note_on_c, 0, 92, 32
1, 283468, Note_on_c, 0, 59, 32
1, 283504, Note_on_c, 0, 62, 0
1, 283521, Note_on_c, 0, 59, 0
1, 283529, Note_on_c, 0, 92, 0
1, 283590, Note_on_c, 0, 80, 39
1, 283769, Control_c, 0, 64, 0
1, 283772, Note_on_c, 0, 42, 28
1, 283792, Note_on_c, 0, 80, 0
1, 283877, Control_c, 0, 64, 127
1, 283916, Note_on_c, 0, 42, 0
1, 283928, Note_on_c, 0, 80, 45
1, 283972, Note_on_c, 0, 80, 0
1, 284045, Note_on_c, 0, 80, 34
1, 284086, Note_on_c, 0, 68, 57
1, 284153, Note_on_c, 0, 80, 0
1, 284184, Note_on_c, 0, 92, 33
1, 284223, Note_on_c, 0, 68, 0
1, 284292, Note_on_c, 0, 92, 0
1, 284292, Note_on_c, 0, 90, 33
1, 284292, Note_on_c, 0, 62, 32
1, 284338, Note_on_c, 0, 90, 0
1, 284348, Note_on_c, 0, 62, 0
1, 284357, Note_on_c, 0, 78, 52
1, 284402, Note_on_c, 0, 78, 0
1, 284438, Note_on_c, 0, 57, 35
1, 284488, Note_on_c, 0, 78, 43
1, 284527, Note_on_c, 0, 78, 0
1, 284572, Note_on_c, 0, 78, 69
1, 284591, Note_on_c, 0, 66, 55
1, 284615, Note_on_c, 0, 78, 0
1, 284650, Note_on_c, 0, 90, 43
1, 284749, Note_on_c, 0, 88, 32
1, 284755, Note_on_c, 0, 90, 0
1, 284755, Note_on_c, 0, 62, 35
1, 284808, Note_on_c, 0, 88, 0
1, 284811, Note_on_c, 0, 62, 0
1, 284833, Note_on_c, 0, 76, 34
1, 284855, Note_on_c, 0, 57, 0
1, 284870, Note_on_c, 0, 66, 0
1, 284880, Note_on_c, 0, 76, 0
1, 284906, Note_on_c, 0, 54, 44
1, 284942, Note_on_c, 0, 76, 40
1, 284961, Note_on_c, 0, 54, 0
1, 284981, Note_on_c, 0, 76, 0
1, 285026, Note_on_c, 0, 76, 67
1, 285061, Note_on_c, 0, 64, 73
1, 285061, Note_on_c, 0, 76, 0
1, 285111, Note_on_c, 0, 88, 59
1, 285182, Note_on_c, 0, 88, 0
1, 285190, Note_on_c, 0, 86, 51
1, 285224, Note_on_c, 0, 57, 35
1, 285234, Note_on_c, 0, 86, 0
1, 285262, Note_on_c, 0, 74, 51
1, 285282, Note_on_c, 0, 57, 0
1, 285309, Note_on_c, 0, 64, 0
1, 285312, Note_on_c, 0, 74, 0
1, 285341, Note_on_c, 0, 54, 43
1, 285413, Note_on_c, 0, 74, 47
1, 285451, Note_on_c, 0, 74, 0
1, 285499, Note_on_c, 0, 62, 55
1, 285511, Note_on_c, 0, 74, 46
1, 285555, Note_on_c, 0, 74, 0
1, 285575, Note_on_c, 0, 86, 73
1, 285616, Note_on_c, 0, 62, 0
1, 285675, Note_on_c, 0, 86, 0
1, 285691, Note_on_c, 0, 85, 44
1, 285700, Note_on_c, 0, 57, 32
1, 285736, Note_on_c, 0, 54, 0
1, 285749, Note_on_c, 0, 57, 0
1, 285749, Note_on_c, 0, 85, 0
1, 285756, Note_on_c, 0, 73, 41
1, 285897, Note_on_c, 0, 41, 54
1, 285959, Note_on_c, 0, 73, 0
1, 285975, Control_c, 0, 64, 0
1, 286043, Note_on_c, 0, 73, 50
1, 286056, Note_on_c, 0, 51, 56
1, 286064, Note_on_c, 0, 41, 0
1, 286070, Control_c, 0, 64, 127
1, 286079, Note_on_c, 0, 73, 0
1, 286121, Note_on_c, 0, 73, 62
1, 286134, Note_on_c, 0, 51, 0
1, 286173, Note_on_c, 0, 73, 0
1, 286210, Note_on_c, 0, 85, 64
1, 286213, Note_on_c, 0, 57, 41
1, 286248, Note_on_c, 0, 85, 0
1, 286259, Note_on_c, 0, 57, 0
1, 286279, Note_on_c, 0, 73, 43
1, 286318, Note_on_c, 0, 73, 0
1, 286363, Note_on_c, 0, 71, 70
1, 286366, Note_on_c, 0, 63, 36
1, 286399, Note_on_c, 0, 71, 0
1, 286447, Note_on_c, 0, 71, 71
1, 286485, Note_on_c, 0, 71, 0
1, 286497, Note_on_c, 0, 63, 0
1, 286515, Note_on_c, 0, 83, 105
1, 286524, Note_on_c, 0, 66, 32
1, 286546, Note_on_c, 0, 83, 0
1, 286593, Note_on_c, 0, 71, 65
1, 286628, Note_on_c, 0, 71, 0
1, 286666, Note_on_c, 0, 63, 44
1, 286669, Note_on_c, 0, 72, 79
1, 286699, Note_on_c, 0, 72, 0
1, 286736, Note_on_c, 0, 72, 78
1, 286786, Note_on_c, 0, 72, 0
1, 286817, Note_on_c, 0, 84, 83
1, 286848, Note_on_c, 0, 84, 0
1, 286873, Note_on_c, 0, 72, 68
1, 286912, Note_on_c, 0, 72, 0
1, 286928, Note_on_c, 0, 66, 0
1, 286953, Note_on_c, 0, 75, 76
1, 286983, Note_on_c, 0, 75, 0
1, 286993, Control_c, 0, 64, 0
1, 287020, Note_on_c, 0, 75, 76
1, 287040, Control_c, 0, 64, 127
1, 287050, Note_on_c, 0, 63, 0
1, 287075, Note_on_c, 0, 75, 0
1, 287092, Note_on_c, 0, 87, 67
1, 287126, Note_on_c, 0, 87, 0
1, 287153, Note_on_c, 0, 75, 48
1, 287187, Note_on_c, 0, 75, 0
1, 287226, Note_on_c, 0, 76, 71
1, 287257, Note_on_c, 0, 76, 0
1, 287281, Control_c, 0, 64, 0
1, 287296, Note_on_c, 0, 76, 73
1, 287335, Note_on_c, 0, 76, 0
1, 287371, Note_on_c, 0, 88, 75
1, 287376, Control_c, 0, 64, 127
1, 287405, Note_on_c, 0, 88, 0
1, 287426, Control_c, 0, 64, 0
1, 287452, Note_on_c, 0, 76, 46
1, 287493, Note_on_c, 0, 76, 0
1, 287508, Control_c, 0, 64, 127
1, 287532, Note_on_c, 0, 77, 63
1, 287564, Note_on_c, 0, 77, 0
1, 287613, Note_on_c, 0, 77, 70
1, 287652, Note_on_c, 0, 77, 0
1, 287705, Note_on_c, 0, 89, 54
1, 287752, Note_on_c, 0, 89, 0
1, 287798, Note_on_c, 0, 77, 37
1, 287851, Note_on_c, 0, 77, 0
1, 287869, Control_c, 0, 64, 0
1, 287883, Note_on_c, 0, 42, 38
1, 287964, Control_c, 0, 64, 127
1, 287992, Note_on_c, 0, 42, 0
1, 287995, Note_on_c, 0, 80, 50
1, 288039, Note_on_c, 0, 80, 0
1, 288118, Note_on_c, 0, 80, 35
1, 288160, Note_on_c, 0, 68, 60
1, 288176, Note_on_c, 0, 80, 0
1, 288240, Note_on_c, 0, 92, 37
1, 288287, Note_on_c, 0, 68, 0
1, 288349, Note_on_c, 0, 90, 45
1, 288349, Note_on_c, 0, 92, 0
1, 288366, Note_on_c, 0, 62, 38
1, 288413, Note_on_c, 0, 90, 0
1, 288416, Note_on_c, 0, 62, 0
1, 288438, Note_on_c, 0, 78, 46
1, 288485, Note_on_c, 0, 78, 0
1, 288527, Note_on_c, 0, 57, 32
1, 288572, Note_on_c, 0, 78, 39
1, 288616, Note_on_c, 0, 78, 0
1, 288664, Note_on_c, 0, 78, 58
1, 288675, Note_on_c, 0, 66, 67
1, 288720, Note_on_c, 0, 78, 0
1, 288742, Note_on_c, 0, 90, 44
1, 288853, Note_on_c, 0, 88, 45
1, 288859, Note_on_c, 0, 90, 0
1, 288895, Note_on_c, 0, 88, 0
1, 288895, Note_on_c, 0, 62, 27
1, 288950, Note_on_c, 0, 62, 0
1, 288968, Note_on_c, 0, 76, 27
1, 289018, Note_on_c, 0, 66, 0
1, 289018, Note_on_c, 0, 76, 0
1, 289028, Note_on_c, 0, 57, 0
1, 289051, Note_on_c, 0, 54, 49
1, 289124, Note_on_c, 0, 54, 0
1, 289146, Note_on_c, 0, 76, 44
1, 289184, Note_on_c, 0, 76, 0
1, 289237, Note_on_c, 0, 76, 47
1, 289249, Note_on_c, 0, 64, 63
1, 289282, Note_on_c, 0, 76, 0
1, 289318, Note_on_c, 0, 88, 63
1, 289369, Note_on_c, 0, 88, 0
1, 289426, Note_on_c, 0, 86, 42
1, 289426, Note_on_c, 0, 57, 38
1, 289471, Note_on_c, 0, 86, 0
1, 289485, Note_on_c, 0, 57, 0
1, 289504, Note_on_c, 0, 74, 50
1, 289535, Note_on_c, 0, 64, 0
1, 289550, Note_on_c, 0, 74, 0
1, 289569, Note_on_c, 0, 54, 53
1, 289646, Note_on_c, 0, 74, 34
1, 289691, Note_on_c, 0, 74, 0
1, 289742, Note_on_c, 0, 74, 54
1, 289745, Note_on_c, 0, 62, 44
1, 289778, Note_on_c, 0, 74, 0
1, 289817, Note_on_c, 0, 86, 66
1, 289842, Note_on_c, 0, 62, 0
1, 289929, Note_on_c, 0, 85, 47
1, 289932, Note_on_c, 0, 86, 0
1, 289940, Note_on_c, 0, 57, 11
1, 289943, Note_on_c, 0, 54, 0
1, 289982, Note_on_c, 0, 57, 0
1, 290015, Note_on_c, 0, 73, 42
1, 290034, Note_on_c, 0, 85, 0
1, 290140, Note_on_c, 0, 41, 56
1, 290170, Control_c, 0, 64, 0
1, 290223, Note_on_c, 0, 73, 0
1, 290260, Note_on_c, 0, 41, 0
1, 290265, Control_c, 0, 64, 127
1, 290313, Note_on_c, 0, 73, 37
1, 290316, Note_on_c, 0, 51, 27
1, 290355, Note_on_c, 0, 73, 0
1, 290410, Note_on_c, 0, 73, 46
1, 290413, Note_on_c, 0, 51, 0
1, 290452, Note_on_c, 0, 73, 0
1, 290477, Note_on_c, 0, 57, 34
1, 290483, Note_on_c, 0, 85, 62
1, 290522, Note_on_c, 0, 85, 0
1, 290530, Note_on_c, 0, 57, 0
1, 290547, Note_on_c, 0, 73, 29
1, 290594, Note_on_c, 0, 73, 0
1, 290652, Note_on_c, 0, 63, 41
1, 290652, Note_on_c, 0, 71, 67
1, 290691, Note_on_c, 0, 71, 0
1, 290742, Note_on_c, 0, 71, 63
1, 290791, Note_on_c, 0, 71, 0
1, 290798, Note_on_c, 0, 63, 0
1, 290837, Note_on_c, 0, 83, 91
1, 290864, Note_on_c, 0, 66, 19
1, 290879, Note_on_c, 0, 83, 0
1, 290933, Note_on_c, 0, 71, 60
1, 290971, Note_on_c, 0, 71, 0
1, 291017, Note_on_c, 0, 72, 62
1, 291032, Note_on_c, 0, 63, 34
1, 291037, Note_on_c, 0, 66, 0
1, 291051, Note_on_c, 0, 72, 0
1, 291096, Note_on_c, 0, 72, 68
1, 291132, Note_on_c, 0, 72, 0
1, 291135, Note_on_c, 0, 63, 0
1, 291170, Note_on_c, 0, 84, 70
1, 291201, Note_on_c, 0, 84, 0
1, 291235, Note_on_c, 0, 72, 54
1, 291273, Note_on_c, 0, 72, 0
1, 291312, Note_on_c, 0, 75, 64
1, 291343, Note_on_c, 0, 75, 0
1, 291385, Note_on_c, 0, 75, 64
1, 291435, Note_on_c, 0, 75, 0
1, 291458, Note_on_c, 0, 87, 60
1, 291502, Note_on_c, 0, 87, 0
1, 291538, Note_on_c, 0, 75, 40
1, 291580, Note_on_c, 0, 75, 0
1, 291613, Note_on_c, 0, 76, 55
1, 291647, Note_on_c, 0, 76, 0
1, 291691, Note_on_c, 0, 76, 67
1, 291730, Note_on_c, 0, 76, 0
1, 291766, Note_on_c, 0, 88, 70
1, 291806, Note_on_c, 0, 88, 0
1, 291854, Note_on_c, 0, 76, 36
1, 291903, Note_on_c, 0, 76, 0
1, 291928, Note_on_c, 0, 77, 59
1, 291961, Note_on_c, 0, 77, 0
1, 292007, Note_on_c, 0, 77, 71
1, 292042, Note_on_c, 0, 77, 0
1, 292103, Note_on_c, 0, 89, 52
1, 292149, Note_on_c, 0, 89, 0
1, 292187, Note_on_c, 0, 77, 37
1, 292255, Note_on_c, 0, 42, 48
1, 292301, Note_on_c, 0, 77, 0
1, 292363, Control_c, 0, 64, 0
1, 292418, Note_on_c, 0, 77, 65
1, 292430, Note_on_c, 0, 50, 39
1, 292433, Control_c, 0, 64, 127
1, 292450, Note_on_c, 0, 77, 0
1, 292469, Note_on_c, 0, 42, 0
1, 292497, Note_on_c, 0, 77, 68
1, 292528, Note_on_c, 0, 50, 0
1, 292541, Note_on_c, 0, 77, 0
1, 292602, Note_on_c, 0, 89, 63
1, 292611, Note_on_c, 0, 57, 48
1, 292647, Note_on_c, 0, 89, 0
1, 292650, Note_on_c, 0, 57, 0
1, 292684, Note_on_c, 0, 77, 54
1, 292723, Note_on_c, 0, 77, 0
1, 292790, Note_on_c, 0, 62, 43
1, 292790, Note_on_c, 0, 78, 70
1, 292820, Note_on_c, 0, 78, 0
1, 292847, Note_on_c, 0, 62, 0
1, 292861, Note_on_c, 0, 78, 72
1, 292912, Note_on_c, 0, 78, 0
1, 292945, Note_on_c, 0, 90, 76
1, 292954, Note_on_c, 0, 69, 35
1, 292981, Note_on_c, 0, 90, 0
1, 293014, Note_on_c, 0, 69, 0
1, 293014, Note_on_c, 0, 78, 60
1, 293049, Note_on_c, 0, 78, 0
1, 293090, Note_on_c, 0, 80, 78
1, 293101, Note_on_c, 0, 74, 53
1, 293118, Note_on_c, 0, 80, 0
1, 293145, Note_on_c, 0, 74, 0
1, 293160, Note_on_c, 0, 80, 70
1, 293210, Note_on_c, 0, 80, 0
1, 293238, Note_on_c, 0, 69, 40
1, 293238, Note_on_c, 0, 92, 73
1, 293276, Note_on_c, 0, 92, 0
1, 293296, Note_on_c, 0, 69, 0
1, 293316, Note_on_c, 0, 80, 59
1, 293354, Note_on_c, 0, 80, 0
1, 293422, Note_on_c, 0, 83, 87
1, 293444, Note_on_c, 0, 62, 43
1, 293450, Note_on_c, 0, 83, 0
1, 293496, Note_on_c, 0, 83, 98
1, 293500, Note_on_c, 0, 62, 0
1, 293533, Note_on_c, 0, 83, 0
1, 293609, Note_on_c, 0, 95, 77
1, 293616, Note_on_c, 0, 57, 31
1, 293701, Note_on_c, 0, 95, 0
1, 293705, Note_on_c, 0, 83, 86
1, 293714, Note_on_c, 0, 57, 0
1, 293737, Note_on_c, 0, 83, 0
1, 293786, Note_on_c, 0, 50, 43
1, 293804, Note_on_c, 0, 81, 63
1, 293839, Note_on_c, 0, 81, 0
1, 293845, Note_on_c, 0, 50, 0
1, 293896, Note_on_c, 0, 81, 35
1, 293942, Note_on_c, 0, 42, 43
1, 293950, Note_on_c, 0, 93, 86
1, 293950, Note_on_c, 0, 81, 0
1, 293982, Note_on_c, 0, 93, 0
1, 294013, Note_on_c, 0, 81, 50
1, 294054, Note_on_c, 0, 42, 0
1, 294054, Note_on_c, 0, 81, 0
1, 294098, Note_on_c, 0, 80, 76
1, 294101, Note_on_c, 0, 50, 50
1, 294130, Note_on_c, 0, 80, 0
1, 294146, Note_on_c, 0, 50, 0
1, 294168, Note_on_c, 0, 80, 83
1, 294227, Note_on_c, 0, 80, 0
1, 294251, Note_on_c, 0, 57, 44
1, 294254, Note_on_c, 0, 92, 76
1, 294285, Note_on_c, 0, 92, 0
1, 294316, Note_on_c, 0, 80, 65
1, 294316, Note_on_c, 0, 57, 0
1, 294352, Note_on_c, 0, 80, 0
1, 294411, Note_on_c, 0, 45, 54
1, 294416, Note_on_c, 0, 78, 75
1, 294446, Note_on_c, 0, 78, 0
1, 294481, Note_on_c, 0, 78, 81
1, 294547, Note_on_c, 0, 78, 0
1, 294560, Note_on_c, 0, 54, 64
1, 294567, Note_on_c, 0, 90, 76
1, 294578, Note_on_c, 0, 45, 0
1, 294602, Note_on_c, 0, 90, 0
1, 294639, Note_on_c, 0, 78, 62
1, 294673, Note_on_c, 0, 78, 0
1, 294714, Note_on_c, 0, 78, 75
1, 294714, Note_on_c, 0, 62, 63
1, 294754, Note_on_c, 0, 78, 0
1, 294754, Note_on_c, 0, 62, 0
1, 294792, Note_on_c, 0, 54, 0
1, 294798, Note_on_c, 0, 78, 75
1, 294840, Note_on_c, 0, 78, 0
1, 294868, Note_on_c, 0, 46, 79
1, 294878, Note_on_c, 0, 90, 73
1, 294903, Control_c, 0, 64, 0
1, 294917, Note_on_c, 0, 90, 0
1, 294949, Note_on_c, 0, 78, 65
1, 294985, Note_on_c, 0, 78, 0
1, 294999, Control_c, 0, 64, 127
1, 295020, Note_on_c, 0, 56, 68
1, 295020, Note_on_c, 0, 78, 84
1, 295059, Note_on_c, 0, 78, 0
1, 295066, Note_on_c, 0, 46, 0
1, 295104, Note_on_c, 0, 78, 79
1, 295157, Note_on_c, 0, 78, 0
1, 295157, Note_on_c, 0, 56, 0
1, 295179, Note_on_c, 0, 62, 79
1, 295190, Note_on_c, 0, 90, 75
1, 295229, Note_on_c, 0, 90, 0
1, 295252, Note_on_c, 0, 62, 0
1, 295266, Note_on_c, 0, 78, 65
1, 295302, Note_on_c, 0, 78, 0
1, 295341, Note_on_c, 0, 78, 80
1, 295352, Note_on_c, 0, 66, 86
1, 295380, Note_on_c, 0, 78, 0
1, 295432, Note_on_c, 0, 66, 0
1, 295432, Note_on_c, 0, 78, 61
1, 295483, Note_on_c, 0, 78, 0
1, 295497, Note_on_c, 0, 65, 71
1, 295533, Note_on_c, 0, 89, 84
1, 295572, Note_on_c, 0, 89, 0
1, 295602, Note_on_c, 0, 65, 0
1, 295602, Note_on_c, 0, 77, 63
1, 295609, Note_on_c, 0, 56, 61
1, 295655, Note_on_c, 0, 62, 42
1, 295694, Control_c, 0, 64, 0
1, 295725, Note_on_c, 0, 77, 0
1, 295733, Note_on_c, 0, 65, 62
1, 295775, Note_on_c, 0, 83, 91
1, 295801, Note_on_c, 0, 56, 0
1, 295801, Control_c, 0, 64, 127
1, 295804, Note_on_c, 0, 83, 0
1, 295850, Note_on_c, 0, 71, 85
1, 295882, Note_on_c, 0, 62, 0
1, 295921, Note_on_c, 0, 83, 36
1, 295996, Note_on_c, 0, 83, 0
1, 296026, Note_on_c, 0, 95, 63
1, 296037, Note_on_c, 0, 71, 0
1, 296118, Note_on_c, 0, 95, 0
1, 296123, Note_on_c, 0, 83, 77
1, 296171, Note_on_c, 0, 65, 0
1, 296174, Note_on_c, 0, 83, 0
1, 296261, Note_on_c, 0, 94, 48
1, 296269, Note_on_c, 0, 70, 56
1, 296307, Note_on_c, 0, 70, 0
1, 296343, Note_on_c, 0, 94, 0
1, 296352, Note_on_c, 0, 82, 62
1, 296452, Note_on_c, 0, 44, 76
1, 296470, Note_on_c, 0, 82, 0
1, 296575, Note_on_c, 0, 79, 83
1, 296602, Note_on_c, 0, 52, 68
1, 296605, Note_on_c, 0, 79, 0
1, 296605, Control_c, 0, 64, 0
1, 296644, Note_on_c, 0, 44, 0
1, 296644, Note_on_c, 0, 79, 78
1, 296676, Control_c, 0, 64, 127
1, 296728, Note_on_c, 0, 79, 0
1, 296739, Note_on_c, 0, 52, 0
1, 296742, Note_on_c, 0, 91, 84
1, 296764, Note_on_c, 0, 59, 60
1, 296797, Note_on_c, 0, 91, 0
1, 296797, Note_on_c, 0, 59, 0
1, 296832, Note_on_c, 0, 79, 74
1, 296873, Note_on_c, 0, 79, 0
1, 296914, Note_on_c, 0, 80, 77
1, 296929, Note_on_c, 0, 64, 72
1, 296948, Note_on_c, 0, 80, 0
1, 296984, Note_on_c, 0, 80, 88
1, 297013, Note_on_c, 0, 64, 0
1, 297065, Note_on_c, 0, 80, 0
1, 297071, Note_on_c, 0, 92, 83
1, 297091, Note_on_c, 0, 71, 70
1, 297134, Note_on_c, 0, 80, 72
1, 297141, Note_on_c, 0, 71, 0
1, 297157, Note_on_c, 0, 92, 0
1, 297205, Note_on_c, 0, 80, 0
1, 297233, Note_on_c, 0, 82, 83
1, 297243, Note_on_c, 0, 76, 48
1, 297265, Note_on_c, 0, 82, 0
1, 297285, Note_on_c, 0, 76, 0
1, 297308, Note_on_c, 0, 82, 81
1, 297385, Note_on_c, 0, 82, 0
1, 297394, Note_on_c, 0, 71, 54
1, 297403, Note_on_c, 0, 94, 76
1, 297470, Note_on_c, 0, 94, 0
1, 297480, Note_on_c, 0, 82, 70
1, 297531, Note_on_c, 0, 82, 0
1, 297553, Note_on_c, 0, 71, 0
1, 297584, Note_on_c, 0, 85, 79
1, 297600, Note_on_c, 0, 64, 44
1, 297623, Note_on_c, 0, 85, 0
1, 297639, Note_on_c, 0, 64, 0
1, 297676, Note_on_c, 0, 85, 72
1, 297753, Note_on_c, 0, 85, 0
1, 297784, Note_on_c, 0, 97, 62
1, 297793, Note_on_c, 0, 59, 51
1, 297839, Note_on_c, 0, 59, 0
1, 297846, Note_on_c, 0, 97, 0
1, 297862, Note_on_c, 0, 85, 61
1, 297899, Note_on_c, 0, 85, 0
1, 297953, Note_on_c, 0, 83, 95
1, 297967, Note_on_c, 0, 52, 53
1, 297982, Note_on_c, 0, 83, 0
1, 298009, Note_on_c, 0, 52, 0
1, 298027, Note_on_c, 0, 83, 99
1, 298066, Note_on_c, 0, 83, 0
1, 298104, Note_on_c, 0, 95, 86
1, 298104, Note_on_c, 0, 44, 54
1, 298163, Note_on_c, 0, 95, 0
1, 298183, Note_on_c, 0, 83, 92
1, 298218, Note_on_c, 0, 83, 0
1, 298230, Note_on_c, 0, 44, 0
1, 298258, Note_on_c, 0, 82, 77
1, 298264, Note_on_c, 0, 52, 56
1, 298299, Note_on_c, 0, 82, 0
1, 298307, Note_on_c, 0, 52, 0
1, 298336, Note_on_c, 0, 82, 81
1, 298403, Note_on_c, 0, 82, 0
1, 298419, Note_on_c, 0, 94, 78
1, 298424, Note_on_c, 0, 59, 49
1, 298459, Note_on_c, 0, 94, 0
1, 298481, Note_on_c, 0, 59, 0
1, 298488, Note_on_c, 0, 82, 69
1, 298523, Note_on_c, 0, 82, 0
1, 298563, Note_on_c, 0, 47, 58
1, 298587, Note_on_c, 0, 80, 76
1, 298606, Control_c, 0, 64, 0
1, 298619, Note_on_c, 0, 80, 0
1, 298661, Note_on_c, 0, 80, 79
1, 298678, Control_c, 0, 64, 127
1, 298686, Note_on_c, 0, 47, 0
1, 298695, Note_on_c, 0, 80, 0
1, 298715, Note_on_c, 0, 56, 47
1, 298737, Note_on_c, 0, 92, 75
1, 298767, Note_on_c, 0, 92, 0
1, 298807, Note_on_c, 0, 80, 69
1, 298837, Note_on_c, 0, 80, 0
1, 298871, Note_on_c, 0, 64, 54
1, 298878, Note_on_c, 0, 80, 78
1, 298920, Note_on_c, 0, 64, 0
1, 298920, Note_on_c, 0, 80, 0
1, 298932, Note_on_c, 0, 56, 0
1, 298962, Note_on_c, 0, 80, 79
1, 298998, Note_on_c, 0, 80, 0
1, 299038, Note_on_c, 0, 48, 57
1, 299041, Note_on_c, 0, 92, 73
1, 299076, Note_on_c, 0, 92, 0
1, 299098, Control_c, 0, 64, 0
1, 299105, Note_on_c, 0, 80, 74
1, 299143, Note_on_c, 0, 80, 0
1, 299169, Control_c, 0, 64, 127
1, 299180, Note_on_c, 0, 58, 54
1, 299183, Note_on_c, 0, 80, 81
1, 299198, Note_on_c, 0, 48, 0
1, 299219, Note_on_c, 0, 80, 0
1, 299263, Note_on_c, 0, 80, 81
1, 299300, Note_on_c, 0, 58, 0
1, 299307, Note_on_c, 0, 80, 0
1, 299347, Note_on_c, 0, 92, 73
1, 299350, Note_on_c, 0, 64, 78
1, 299380, Note_on_c, 0, 92, 0
1, 299386, Note_on_c, 0, 64, 0
1, 299417, Note_on_c, 0, 80, 68
1, 299459, Note_on_c, 0, 80, 0
1, 299502, Note_on_c, 0, 80, 80
1, 299509, Note_on_c, 0, 68, 82
1, 299539, Note_on_c, 0, 80, 0
1, 299548, Note_on_c, 0, 68, 0
1, 299587, Note_on_c, 0, 80, 75
1, 299628, Note_on_c, 0, 80, 0
1, 299644, Note_on_c, 0, 67, 84
1, 299683, Note_on_c, 0, 91, 81
1, 299718, Note_on_c, 0, 91, 0
1, 299737, Note_on_c, 0, 67, 0
1, 299743, Note_on_c, 0, 58, 59
1, 299746, Note_on_c, 0, 79, 74
1, 299812, Note_on_c, 0, 64, 57
1, 299870, Note_on_c, 0, 67, 47
1, 299898, Note_on_c, 0, 79, 0
1, 299932, Note_on_c, 0, 85, 58
1, 299976, Note_on_c, 0, 73, 75
1, 299984, Note_on_c, 0, 85, 0
1, 300068, Control_c, 0, 64, 0
1, 300093, Note_on_c, 0, 85, 62
1, 300188, Control_c, 0, 64, 127
1, 300188, Note_on_c, 0, 85, 0
1, 300218, Note_on_c, 0, 97, 61
1, 300253, Note_on_c, 0, 58, 0
1, 300297, Note_on_c, 0, 73, 0
1, 300313, Note_on_c, 0, 97, 0
1, 300313, Note_on_c, 0, 85, 43
1, 300325, Note_on_c, 0, 67, 0
1, 300335, Note_on_c, 0, 64, 0
1, 300353, Note_on_c, 0, 85, 0
1, 300389, Note_on_c, 0, 72, 44
1, 300430, Note_on_c, 0, 72, 0
1, 300430, Note_on_c, 0, 96, 50
1, 300481, Note_on_c, 0, 96, 0
1, 300512, Note_on_c, 0, 84, 63
1, 300587, Note_on_c, 0, 46, 63
1, 300665, Note_on_c, 0, 84, 0
1, 300692, Control_c, 0, 64, 0
1, 300728, Note_on_c, 0, 81, 70
1, 300742, Note_on_c, 0, 54, 64
1, 300761, Note_on_c, 0, 81, 0
1, 300782, Note_on_c, 0, 46, 0
1, 300787, Control_c, 0, 64, 127
1, 300806, Note_on_c, 0, 81, 71
1, 300842, Note_on_c, 0, 54, 0
1, 300876, Note_on_c, 0, 61, 62
1, 300881, Note_on_c, 0, 81, 0
1, 300892, Note_on_c, 0, 93, 82
1, 300910, Note_on_c, 0, 61, 0
1, 300948, Note_on_c, 0, 93, 0
1, 300984, Note_on_c, 0, 81, 42
1, 301026, Note_on_c, 0, 81, 0
1, 301033, Note_on_c, 0, 66, 63
1, 301044, Note_on_c, 0, 82, 80
1, 301093, Note_on_c, 0, 82, 0
1, 301124, Note_on_c, 0, 82, 79
1, 301133, Note_on_c, 0, 66, 0
1, 301197, Note_on_c, 0, 73, 56
1, 301202, Note_on_c, 0, 94, 81
1, 301208, Note_on_c, 0, 82, 0
1, 301253, Note_on_c, 0, 94, 0
1, 301261, Note_on_c, 0, 82, 65
1, 301283, Note_on_c, 0, 73, 0
1, 301299, Note_on_c, 0, 82, 0
1, 301350, Note_on_c, 0, 84, 93
1, 301350, Note_on_c, 0, 78, 75
1, 301380, Note_on_c, 0, 84, 0
1, 301395, Note_on_c, 0, 78, 0
1, 301423, Note_on_c, 0, 84, 96
1, 301478, Note_on_c, 0, 84, 0
1, 301500, Note_on_c, 0, 73, 41
1, 301506, Note_on_c, 0, 96, 95
1, 301570, Note_on_c, 0, 96, 0
1, 301583, Note_on_c, 0, 84, 85
1, 301620, Note_on_c, 0, 73, 0
1, 301639, Note_on_c, 0, 84, 0
1, 301661, Note_on_c, 0, 66, 36
1, 301686, Note_on_c, 0, 87, 77
1, 301715, Note_on_c, 0, 66, 0
1, 301721, Note_on_c, 0, 87, 0
1, 301774, Note_on_c, 0, 87, 73
1, 301856, Note_on_c, 0, 87, 0
1, 301870, Note_on_c, 0, 61, 34
1, 301873, Note_on_c, 0, 99, 79
1, 301945, Note_on_c, 0, 99, 0
1, 301945, Note_on_c, 0, 87, 58
1, 301965, Note_on_c, 0, 61, 0
1, 301991, Note_on_c, 0, 87, 0
1, 302040, Note_on_c, 0, 54, 46
1, 302057, Note_on_c, 0, 85, 64
1, 302088, Note_on_c, 0, 54, 0
1, 302088, Note_on_c, 0, 85, 0
1, 302127, Note_on_c, 0, 85, 79
1, 302169, Note_on_c, 0, 85, 0
1, 302199, Note_on_c, 0, 46, 30
1, 302221, Note_on_c, 0, 97, 65
1, 302255, Note_on_c, 0, 97, 0
1, 302280, Note_on_c, 0, 85, 62
1, 302306, Note_on_c, 0, 46, 0
1, 302325, Note_on_c, 0, 85, 0
1, 302370, Note_on_c, 0, 84, 78
1, 302381, Note_on_c, 0, 54, 28
1, 302403, Note_on_c, 0, 84, 0
1, 302442, Note_on_c, 0, 54, 0
1, 302448, Note_on_c, 0, 84, 78
1, 302501, Note_on_c, 0, 84, 0
1, 302517, Note_on_c, 0, 61, 36
1, 302544, Note_on_c, 0, 96, 74
1, 302564, Note_on_c, 0, 61, 0
1, 302578, Note_on_c, 0, 96, 0
1, 302623, Note_on_c, 0, 84, 43
1, 302664, Note_on_c, 0, 84, 0
1, 302707, Note_on_c, 0, 81, 53
1, 302745, Note_on_c, 0, 81, 0
1, 302801, Note_on_c, 0, 81, 49
1, 302842, Note_on_c, 0, 81, 0
1, 302879, Note_on_c, 0, 93, 50
1, 302926, Note_on_c, 0, 93, 0
1, 302955, Note_on_c, 0, 81, 41
1, 302998, Note_on_c, 0, 81, 0
1, 303040, Note_on_c, 0, 82, 52
1, 303077, Note_on_c, 0, 82, 0
1, 303133, Note_on_c, 0, 82, 37
1, 303183, Note_on_c, 0, 82, 0
1, 303197, Note_on_c, 0, 94, 58
1, 303233, Note_on_c, 0, 94, 0
1, 303253, Note_on_c, 0, 82, 42
1, 303303, Note_on_c, 0, 82, 0
1, 303355, Note_on_c, 0, 84, 81
1, 303386, Note_on_c, 0, 84, 0
1, 303430, Note_on_c, 0, 84, 80
1, 303480, Note_on_c, 0, 84, 0
1, 303523, Note_on_c, 0, 96, 73
1, 303556, Note_on_c, 0, 96, 0
1, 303607, Note_on_c, 0, 84, 47
1, 303648, Note_on_c, 0, 84, 0
1, 303678, Note_on_c, 0, 85, 63
1, 303715, Note_on_c, 0, 85, 0
1, 303762, Note_on_c, 0, 85, 73
1, 303801, Note_on_c, 0, 85, 0
1, 303840, Note_on_c, 0, 97, 58
1, 303879, Note_on_c, 0, 97, 0
1, 303916, Note_on_c, 0, 85, 57
1, 303963, Note_on_c, 0, 85, 0
1, 304018, Note_on_c, 0, 87, 47
1, 304054, Note_on_c, 0, 87, 0
1, 304091, Note_on_c, 0, 87, 68
1, 304138, Note_on_c, 0, 87, 0
1, 304200, Note_on_c, 0, 99, 47
1, 304238, Note_on_c, 0, 99, 0
1, 304285, Note_on_c, 0, 87, 29
1, 304344, Note_on_c, 0, 87, 0
1, 304389, Note_on_c, 0, 88, 34
1, 304441, Note_on_c, 0, 88, 0
1, 304506, Note_on_c, 0, 88, 30
1, 304564, Note_on_c, 0, 88, 0
1, 304629, Note_on_c, 0, 100, 35
1, 304646, Control_c, 0, 64, 0
1, 304838, Note_on_c, 0, 88, 19
1, 304846, Note_on_c, 0, 100, 0
1, 304874, Control_c, 0, 64, 127
1, 304976, Note_on_c, 0, 88, 0
1, 305330, Control_c, 0, 64, 0
1, 305990, Note_on_c, 0, 29, 42
1, 306047, Note_on_c, 0, 34, 35
1, 306093, Note_on_c, 0, 29, 0
1, 306155, Note_on_c, 0, 29, 52
1, 306155, Note_on_c, 0, 41, 57
1, 306158, Note_on_c, 0, 34, 0
1, 306200, Note_on_c, 0, 41, 0
1, 306210, Note_on_c, 0, 29, 0
1, 306219, Note_on_c, 0, 34, 41
1, 306289, Note_on_c, 0, 34, 0
1, 306313, Note_on_c, 0, 29, 14
1, 306313, Note_on_c, 0, 46, 66
1, 306347, Note_on_c, 0, 34, 38
1, 306362, Note_on_c, 0, 29, 0
1, 306362, Note_on_c, 0, 46, 0
1, 306406, Note_on_c, 0, 34, 0
1, 306451, Note_on_c, 0, 29, 16
1, 306470, Note_on_c, 0, 34, 38
1, 306508, Note_on_c, 0, 53, 103
1, 306512, Note_on_c, 0, 29, 0
1, 306547, Note_on_c, 0, 34, 0
1, 306556, Note_on_c, 0, 29, 14
1, 306595, Note_on_c, 0, 34, 33
1, 306600, Control_c, 0, 64, 127
1, 306617, Note_on_c, 0, 29, 0
1, 306659, Note_on_c, 0, 34, 0
1, 306682, Note_on_c, 0, 29, 34
1, 306717, Note_on_c, 0, 34, 47
1, 306743, Note_on_c, 0, 29, 0
1, 306777, Note_on_c, 0, 53, 0
1, 306782, Note_on_c, 0, 34, 0
1, 306823, Note_on_c, 0, 29, 34
1, 306827, Control_c, 0, 64, 0
1, 306835, Note_on_c, 0, 50, 77
1, 306848, Note_on_c, 0, 34, 39
1, 306871, Note_on_c, 0, 50, 0
1, 306871, Note_on_c, 0, 29, 0
1, 306932, Note_on_c, 0, 34, 0
1, 306949, Note_on_c, 0, 29, 31
1, 306986, Note_on_c, 0, 34, 52
1, 307007, Note_on_c, 0, 48, 68
1, 307024, Note_on_c, 0, 29, 0
1, 307061, Note_on_c, 0, 34, 0
1, 307064, Note_on_c, 0, 48, 0
1, 307064, Note_on_c, 0, 29, 14
1, 307067, Note_on_c, 0, 50, 58
1, 307122, Note_on_c, 0, 34, 49
1, 307128, Note_on_c, 0, 29, 0
1, 307133, Note_on_c, 0, 48, 51
1, 307169, Note_on_c, 0, 50, 0
1, 307180, Note_on_c, 0, 34, 0
1, 307191, Note_on_c, 0, 48, 0
1, 307211, Note_on_c, 0, 29, 39
1, 307244, Note_on_c, 0, 34, 41
1, 307267, Note_on_c, 0, 29, 0
1, 307295, Note_on_c, 0, 46, 52
1, 307331, Note_on_c, 0, 34, 0
1, 307339, Note_on_c, 0, 29, 34
1, 307348, Note_on_c, 0, 46, 0
1, 307386, Note_on_c, 0, 34, 49
1, 307386, Note_on_c, 0, 29, 0
1, 307450, Note_on_c, 0, 34, 0
1, 307459, Note_on_c, 0, 29, 33
1, 307467, Note_on_c, 0, 45, 52
1, 307514, Note_on_c, 0, 45, 0
1, 307514, Note_on_c, 0, 46, 55
1, 307514, Note_on_c, 0, 34, 43
1, 307532, Note_on_c, 0, 29, 0
1, 307575, Note_on_c, 0, 34, 0
1, 307587, Note_on_c, 0, 45, 45
1, 307593, Note_on_c, 0, 29, 26
1, 307620, Note_on_c, 0, 46, 0
1, 307649, Note_on_c, 0, 29, 0
1, 307652, Note_on_c, 0, 45, 0
1, 307660, Note_on_c, 0, 34, 43
1, 307718, Note_on_c, 0, 34, 0
1, 307721, Note_on_c, 0, 29, 43
1, 307757, Note_on_c, 0, 34, 37
1, 307774, Note_on_c, 0, 29, 0
1, 307774, Note_on_c, 0, 43, 52
1, 307815, Note_on_c, 0, 43, 0
1, 307829, Note_on_c, 0, 34, 0
1, 307846, Note_on_c, 0, 29, 27
1, 307885, Note_on_c, 0, 34, 59
1, 307894, Note_on_c, 0, 29, 0
1, 307933, Note_on_c, 0, 42, 67
1, 307949, Note_on_c, 0, 34, 0
1, 307974, Note_on_c, 0, 29, 36
1, 308004, Note_on_c, 0, 34, 57
1, 308029, Note_on_c, 0, 29, 0
1, 308074, Note_on_c, 0, 34, 0
1, 308091, Note_on_c, 0, 45, 62
1, 308100, Note_on_c, 0, 42, 0
1, 308114, Note_on_c, 0, 29, 9
1, 308132, Note_on_c, 0, 34, 49
1, 308153, Note_on_c, 0, 45, 0
1, 308156, Note_on_c, 0, 29, 0
1, 308206, Note_on_c, 0, 34, 0
1, 308224, Note_on_c, 0, 29, 48
1, 308249, Note_on_c, 0, 43, 72
1, 308263, Note_on_c, 0, 34, 54
1, 308283, Note_on_c, 0, 29, 0
1, 308287, Note_on_c, 0, 43, 0
1, 308336, Note_on_c, 0, 34, 0
1, 308367, Note_on_c, 0, 29, 45
1, 308406, Note_on_c, 0, 40, 95
1, 308406, Note_on_c, 0, 34, 44
1, 308436, Note_on_c, 0, 29, 0
1, 308501, Note_on_c, 0, 34, 0
1, 308504, Note_on_c, 0, 29, 48
1, 308540, Note_on_c, 0, 40, 0
1, 308556, Note_on_c, 0, 43, 59
1, 308560, Note_on_c, 0, 34, 48
1, 308576, Note_on_c, 0, 29, 0
1, 308623, Note_on_c, 0, 34, 0
1, 308645, Note_on_c, 0, 29, 45
1, 308651, Note_on_c, 0, 43, 0
1, 308687, Note_on_c, 0, 34, 43
1, 308698, Note_on_c, 0, 41, 55
1, 308713, Note_on_c, 0, 29, 0
1, 308763, Note_on_c, 0, 41, 0
1, 308773, Note_on_c, 0, 34, 0
1, 308780, Note_on_c, 0, 29, 49
1, 308829, Note_on_c, 0, 34, 53
1, 308841, Note_on_c, 0, 29, 0
1, 308891, Note_on_c, 0, 34, 0
1, 308916, Note_on_c, 0, 29, 55
1, 308951, Note_on_c, 0, 34, 48
1, 308971, Note_on_c, 0, 29, 0
1, 309002, Note_on_c, 0, 38, 67
1, 309036, Note_on_c, 0, 34, 0
1, 309036, Note_on_c, 0, 29, 50
1, 309050, Note_on_c, 0, 38, 0
1, 309091, Note_on_c, 0, 29, 0
1, 309094, Note_on_c, 0, 34, 48
1, 309144, Note_on_c, 0, 34, 0
1, 309149, Note_on_c, 0, 39, 67
1, 309174, Note_on_c, 0, 29, 39
1, 309208, Note_on_c, 0, 34, 50
1, 309220, Note_on_c, 0, 29, 0
1, 309231, Note_on_c, 0, 39, 0
1, 309287, Note_on_c, 0, 34, 0
1, 309291, Note_on_c, 0, 29, 47
1, 309297, Note_on_c, 0, 40, 92
1, 309340, Note_on_c, 0, 34, 52
1, 309340, Note_on_c, 0, 29, 0
1, 309392, Note_on_c, 0, 40, 0
1, 309415, Note_on_c, 0, 34, 0
1, 309425, Note_on_c, 0, 29, 42
1, 309451, Note_on_c, 0, 43, 59
1, 309468, Note_on_c, 0, 34, 57
1, 309468, Note_on_c, 0, 29, 0
1, 309498, Note_on_c, 0, 43, 0
1, 309525, Note_on_c, 0, 34, 0
1, 309546, Note_on_c, 0, 29, 37
1, 309593, Note_on_c, 0, 34, 41
1, 309596, Note_on_c, 0, 41, 72
1, 309606, Note_on_c, 0, 29, 0
1, 309629, Note_on_c, 0, 41, 0
1, 309656, Control_c, 0, 64, 127
1, 309674, Note_on_c, 0, 34, 0
1, 309696, Note_on_c, 0, 29, 39
1, 309729, Note_on_c, 0, 34, 57
1, 309741, Note_on_c, 0, 29, 0
1, 309804, Note_on_c, 0, 29, 56
1, 309816, Note_on_c, 0, 34, 0
1, 309868, Note_on_c, 0, 34, 58
1, 309874, Note_on_c, 0, 29, 0
1, 309877, Note_on_c, 0, 53, 84
1, 309913, Note_on_c, 0, 53, 0
1, 309919, Control_c, 0, 64, 0
1, 309938, Note_on_c, 0, 34, 0
1, 309949, Note_on_c, 0, 29, 47
1, 309994, Note_on_c, 0, 34, 48
1, 310010, Note_on_c, 0, 29, 0
1, 310018, Note_on_c, 0, 58, 65
1, 310057, Note_on_c, 0, 58, 0
1, 310072, Note_on_c, 0, 34, 0
1, 310083, Note_on_c, 0, 29, 48
1, 310127, Note_on_c, 0, 34, 46
1, 310142, Note_on_c, 0, 29, 0
1, 310191, Note_on_c, 0, 65, 88
1, 310203, Note_on_c, 0, 58, 43
1, 310203, Note_on_c, 0, 53, 70
1, 310206, Note_on_c, 0, 34, 0
1, 310222, Note_on_c, 0, 29, 38
1, 310264, Note_on_c, 0, 34, 46
1, 310264, Control_c, 0, 64, 127
1, 310272, Note_on_c, 0, 29, 0
1, 310340, Note_on_c, 0, 34, 0
1, 310355, Note_on_c, 0, 29, 40
1, 310398, Note_on_c, 0, 53, 0
1, 310403, Note_on_c, 0, 34, 43
1, 310408, Note_on_c, 0, 29, 0
1, 310457, Note_on_c, 0, 58, 0
1, 310479, Note_on_c, 0, 34, 0
1, 310496, Note_on_c, 0, 29, 39
1, 310500, Note_on_c, 0, 62, 72
1, 310507, Note_on_c, 0, 65, 0
1, 310539, Note_on_c, 0, 34, 43
1, 310539, Note_on_c, 0, 62, 0
1, 310543, Note_on_c, 0, 29, 0
1, 310609, Note_on_c, 0, 34, 0
1, 310638, Note_on_c, 0, 29, 47
1, 310684, Note_on_c, 0, 34, 41
1, 310684, Note_on_c, 0, 29, 0
1, 310684, Note_on_c, 0, 60, 77
1, 310727, Note_on_c, 0, 60, 0
1, 310735, Control_c, 0, 64, 0
1, 310740, Note_on_c, 0, 62, 69
1, 310759, Note_on_c, 0, 34, 0
1, 310776, Note_on_c, 0, 29, 47
1, 310793, Note_on_c, 0, 60, 51
1, 310815, Note_on_c, 0, 34, 49
1, 310827, Note_on_c, 0, 29, 0
1, 310833, Note_on_c, 0, 62, 0
1, 310846, Note_on_c, 0, 60, 0
1, 310900, Note_on_c, 0, 34, 0
1, 310910, Note_on_c, 0, 29, 43
1, 310960, Note_on_c, 0, 34, 46
1, 310964, Note_on_c, 0, 58, 48
1, 310969, Note_on_c, 0, 29, 0
1, 311005, Note_on_c, 0, 58, 0
1, 311032, Note_on_c, 0, 34, 0
1, 311053, Note_on_c, 0, 29, 36
1, 311092, Note_on_c, 0, 34, 43
1, 311110, Note_on_c, 0, 29, 0
1, 311117, Note_on_c, 0, 57, 60
1, 311158, Note_on_c, 0, 57, 0
1, 311169, Note_on_c, 0, 58, 45
1, 311174, Note_on_c, 0, 34, 0
1, 311181, Note_on_c, 0, 29, 39
1, 311223, Note_on_c, 0, 57, 40
1, 311227, Note_on_c, 0, 34, 55
1, 311231, Note_on_c, 0, 29, 0
1, 311270, Note_on_c, 0, 58, 0
1, 311273, Note_on_c, 0, 34, 0
1, 311308, Note_on_c, 0, 57, 0
1, 311312, Note_on_c, 0, 29, 36
1, 311350, Note_on_c, 0, 34, 47
1, 311370, Note_on_c, 0, 29, 0
1, 311406, Note_on_c, 0, 55, 54
1, 311425, Note_on_c, 0, 34, 0
1, 311437, Note_on_c, 0, 29, 56
1, 311446, Note_on_c, 0, 55, 0
1, 311481, Note_on_c, 0, 34, 53
1, 311481, Note_on_c, 0, 29, 0
1, 311553, Note_on_c, 0, 34, 0
1, 311559, Note_on_c, 0, 54, 80
1, 311574, Note_on_c, 0, 29, 49
1, 311609, Note_on_c, 0, 34, 52
1, 311623, Note_on_c, 0, 29, 0
1, 311679, Note_on_c, 0, 34, 0
1, 311699, Note_on_c, 0, 54, 0
1, 311702, Note_on_c, 0, 29, 38
1, 311702, Note_on_c, 0, 57, 69
1, 311748, Note_on_c, 0, 34, 39
1, 311757, Note_on_c, 0, 57, 0
1, 311762, Note_on_c, 0, 29, 0
1, 311819, Note_on_c, 0, 34, 0
1, 311846, Note_on_c, 0, 29, 41
1, 311857, Note_on_c, 0, 55, 70
1, 311885, Note_on_c, 0, 34, 35
1, 311893, Note_on_c, 0, 55, 0
1, 311904, Note_on_c, 0, 29, 0
1, 311961, Note_on_c, 0, 34, 0
1, 311980, Note_on_c, 0, 29, 40
1, 312002, Note_on_c, 0, 52, 91
1, 312035, Note_on_c, 0, 34, 28
1, 312052, Note_on_c, 0, 29, 0
1, 312114, Note_on_c, 0, 34, 0
1, 312120, Note_on_c, 0, 29, 45
1, 312138, Note_on_c, 0, 52, 0
1, 312148, Note_on_c, 0, 55, 69
1, 312187, Note_on_c, 0, 34, 32
1, 312191, Note_on_c, 0, 29, 0
1, 312198, Note_on_c, 0, 55, 0
1, 312256, Note_on_c, 0, 34, 0
1, 312276, Note_on_c, 0, 29, 34
1, 312287, Note_on_c, 0, 53, 86
1, 312325, Note_on_c, 0, 34, 33
1, 312328, Note_on_c, 0, 53, 0
1, 312333, Note_on_c, 0, 29, 0
1, 312401, Control_c, 0, 64, 127
1, 312407, Note_on_c, 0, 34, 0
1, 312412, Note_on_c, 0, 29, 51
1, 312467, Note_on_c, 0, 34, 45
1, 312478, Note_on_c, 0, 29, 0
1, 312545, Note_on_c, 0, 34, 0
1, 312545, Note_on_c, 0, 29, 57
1, 312556, Control_c, 0, 64, 0
1, 312573, Note_on_c, 0, 38, 89
1, 312601, Note_on_c, 0, 34, 47
1, 312621, Note_on_c, 0, 29, 0
1, 312662, Note_on_c, 0, 38, 0
1, 312685, Note_on_c, 0, 29, 60
1, 312685, Note_on_c, 0, 34, 0
1, 312702, Note_on_c, 0, 39, 86
1, 312743, Note_on_c, 0, 34, 54
1, 312765, Note_on_c, 0, 29, 0
1, 312797, Note_on_c, 0, 39, 0
1, 312832, Note_on_c, 0, 34, 0
1, 312832, Note_on_c, 0, 29, 56
1, 312844, Note_on_c, 0, 40, 111
1, 312896, Note_on_c, 0, 34, 50
1, 312916, Note_on_c, 0, 29, 0
1, 312935, Note_on_c, 0, 40, 0
1, 312983, Note_on_c, 0, 29, 54
1, 312988, Note_on_c, 0, 43, 86
1, 312997, Note_on_c, 0, 34, 0
1, 313052, Note_on_c, 0, 34, 56
1, 313072, Note_on_c, 0, 43, 0
1, 313072, Note_on_c, 0, 29, 0
1, 313138, Note_on_c, 0, 41, 79
1, 313152, Note_on_c, 0, 29, 50
1, 313167, Note_on_c, 0, 34, 0
1, 313167, Note_on_c, 0, 41, 0
1, 313180, Control_c, 0, 64, 127
1, 313217, Note_on_c, 0, 34, 62
1, 313244, Note_on_c, 0, 29, 0
1, 313300, Control_c, 0, 64, 0
1, 313300, Note_on_c, 0, 34, 0
1, 313312, Note_on_c, 0, 29, 84
1, 313372, Control_c, 0, 64, 127
1, 313387, Note_on_c, 0, 29, 0
1, 313506, Note_on_c, 0, 53, 69
1, 313563, Control_c, 0, 64, 0
1, 313563, Note_on_c, 0, 58, 48
1, 313573, Note_on_c, 0, 53, 0
1, 313632, Note_on_c, 0, 58, 0
1, 313638, Note_on_c, 0, 62, 59
1, 313688, Note_on_c, 0, 62, 0
1, 313704, Note_on_c, 0, 65, 63
1, 313715, Note_on_c, 0, 50, 73
1, 313715, Note_on_c, 0, 58, 59
1, 313748, Note_on_c, 0, 50, 0
1, 313748, Note_on_c, 0, 58, 0
1, 313769, Note_on_c, 0, 62, 62
1, 313791, Control_c, 0, 64, 127
1, 313811, Note_on_c, 0, 65, 0
1, 313824, Note_on_c, 0, 58, 15
1, 313868, Note_on_c, 0, 62, 0
1, 313888, Control_c, 0, 64, 0
1, 313902, Note_on_c, 0, 58, 0
1, 313911, Note_on_c, 0, 53, 86
1, 313955, Note_on_c, 0, 53, 0
1, 313982, Note_on_c, 0, 58, 40
1, 314056, Note_on_c, 0, 62, 58
1, 314056, Note_on_c, 0, 58, 0
1, 314092, Note_on_c, 0, 62, 0
1, 314106, Note_on_c, 0, 58, 68
1, 314111, Note_on_c, 0, 65, 63
1, 314119, Note_on_c, 0, 49, 53
1, 314137, Note_on_c, 0, 58, 0
1, 314159, Note_on_c, 0, 49, 0
1, 314169, Control_c, 0, 64, 127
1, 314180, Note_on_c, 0, 64, 75
1, 314205, Note_on_c, 0, 65, 0
1, 314235, Note_on_c, 0, 58, 67
1, 314251, Note_on_c, 0, 64, 0
1, 314259, Control_c, 0, 64, 0
1, 314299, Note_on_c, 0, 58, 0
1, 314299, Note_on_c, 0, 55, 66
1, 314351, Note_on_c, 0, 58, 67
1, 314370, Note_on_c, 0, 55, 0
1, 314415, Note_on_c, 0, 58, 0
1, 314434, Note_on_c, 0, 64, 69
1, 314464, Note_on_c, 0, 64, 0
1, 314510, Note_on_c, 0, 62, 62
1, 314510, Note_on_c, 0, 70, 65
1, 314523, Control_c, 0, 64, 127
1, 314523, Note_on_c, 0, 65, 55
1, 314543, Note_on_c, 0, 70, 0
1, 314543, Note_on_c, 0, 62, 0
1, 314559, Note_on_c, 0, 65, 0
1, 314577, Note_on_c, 0, 77, 83
1, 314657, Note_on_c, 0, 74, 67
1, 314666, Note_on_c, 0, 77, 0
1, 314666, Control_c, 0, 64, 0
1, 314699, Note_on_c, 0, 74, 0
1, 314707, Note_on_c, 0, 70, 59
1, 314747, Note_on_c, 0, 70, 0
1, 314774, Note_on_c, 0, 65, 70
1, 314836, Note_on_c, 0, 65, 0
1, 314846, Note_on_c, 0, 70, 67
1, 314900, Note_on_c, 0, 61, 68
1, 314911, Note_on_c, 0, 77, 79
1, 314930, Note_on_c, 0, 70, 0
1, 314930, Note_on_c, 0, 61, 0
1, 314941, Control_c, 0, 64, 127
1, 314975, Note_on_c, 0, 76, 72
1, 314999, Note_on_c, 0, 77, 0
1, 315022, Note_on_c, 0, 70, 58
1, 315022, Note_on_c, 0, 76, 0
1, 315061, Control_c, 0, 64, 0
1, 315073, Note_on_c, 0, 70, 0
1, 315086, Note_on_c, 0, 67, 69
1, 315141, Note_on_c, 0, 70, 57
1, 315155, Note_on_c, 0, 67, 0
1, 315184, Note_on_c, 0, 70, 0
1, 315203, Note_on_c, 0, 76, 57
1, 315236, Note_on_c, 0, 76, 0
1, 315279, Note_on_c, 0, 82, 74
1, 315279, Note_on_c, 0, 74, 65
1, 315279, Note_on_c, 0, 77, 83
1, 315307, Note_on_c, 0, 82, 0
1, 315310, Note_on_c, 0, 74, 0
1, 315310, Note_on_c, 0, 77, 0
1, 315313, Control_c, 0, 64, 127
1, 315351, Note_on_c, 0, 89, 74
1, 315423, Note_on_c, 0, 86, 69
1, 315428, Note_on_c, 0, 89, 0
1, 315445, Control_c, 0, 64, 0
1, 315476, Note_on_c, 0, 86, 0
1, 315476, Note_on_c, 0, 82, 64
1, 315513, Note_on_c, 0, 82, 0
1, 315537, Note_on_c, 0, 77, 72
1, 315601, Note_on_c, 0, 77, 0
1, 315601, Note_on_c, 0, 82, 58
1, 315654, Note_on_c, 0, 82, 0
1, 315673, Note_on_c, 0, 89, 84
1, 315687, Note_on_c, 0, 82, 71
1, 315694, Note_on_c, 0, 73, 54
1, 315714, Note_on_c, 0, 82, 0
1, 315729, Note_on_c, 0, 73, 0
1, 315729, Control_c, 0, 64, 127
1, 315772, Note_on_c, 0, 88, 70
1, 315782, Note_on_c, 0, 89, 0
1, 315819, Note_on_c, 0, 88, 0
1, 315836, Note_on_c, 0, 82, 68
1, 315877, Control_c, 0, 64, 0
1, 315908, Note_on_c, 0, 79, 83
1, 315919, Note_on_c, 0, 82, 0
1, 315964, Note_on_c, 0, 82, 73
1, 315999, Note_on_c, 0, 79, 0
1, 316033, Note_on_c, 0, 88, 74
1, 316061, Note_on_c, 0, 82, 0
1, 316083, Note_on_c, 0, 82, 48
1, 316091, Note_on_c, 0, 73, 55
1, 316097, Note_on_c, 0, 89, 91
1, 316111, Note_on_c, 0, 88, 0
1, 316111, Note_on_c, 0, 82, 0
1, 316123, Note_on_c, 0, 73, 0
1, 316141, Control_c, 0, 64, 127
1, 316162, Note_on_c, 0, 88, 73
1, 316200, Note_on_c, 0, 89, 0
1, 316231, Note_on_c, 0, 82, 70
1, 316248, Note_on_c, 0, 88, 0
1, 316272, Control_c, 0, 64, 0
1, 316284, Note_on_c, 0, 82, 0
1, 316290, Note_on_c, 0, 79, 82
1, 316345, Note_on_c, 0, 82, 69
1, 316365, Note_on_c, 0, 79, 0
1, 316420, Note_on_c, 0, 88, 84
1, 316429, Note_on_c, 0, 82, 0
1, 316488, Note_on_c, 0, 82, 76
1, 316496, Note_on_c, 0, 89, 81
1, 316499, Note_on_c, 0, 88, 0
1, 316509, Note_on_c, 0, 73, 46
1, 316513, Note_on_c, 0, 82, 0
1, 316524, Control_c, 0, 64, 127
1, 316551, Note_on_c, 0, 73, 0
1, 316559, Note_on_c, 0, 88, 57
1, 316613, Note_on_c, 0, 89, 0
1, 316627, Note_on_c, 0, 82, 50
1, 316646, Note_on_c, 0, 88, 0
1, 316683, Note_on_c, 0, 79, 83
1, 316687, Note_on_c, 0, 82, 0
1, 316738, Note_on_c, 0, 82, 69
1, 316757, Note_on_c, 0, 79, 0
1, 316808, Note_on_c, 0, 88, 78
1, 316832, Note_on_c, 0, 82, 0
1, 316871, Note_on_c, 0, 89, 81
1, 316883, Note_on_c, 0, 88, 0
1, 316928, Note_on_c, 0, 88, 79
1, 316964, Note_on_c, 0, 89, 0
1, 316967, Note_on_c, 0, 82, 78
1, 317024, Note_on_c, 0, 79, 84
1, 317024, Note_on_c, 0, 88, 0
1, 317047, Note_on_c, 0, 82, 0
1, 317091, Note_on_c, 0, 82, 66
1, 317098, Note_on_c, 0, 79, 0
1, 317114, Note_on_c, 0, 85, 90
1, 317139, Note_on_c, 0, 82, 0
1, 317181, Note_on_c, 0, 88, 72
1, 317223, Note_on_c, 0, 89, 68
1, 317229, Note_on_c, 0, 85, 0
1, 317253, Note_on_c, 0, 89, 0
1, 317273, Note_on_c, 0, 88, 0
1, 317289, Note_on_c, 0, 91, 94
1, 317342, Note_on_c, 0, 94, 83
1, 317371, Note_on_c, 0, 91, 0
1, 317404, Note_on_c, 0, 97, 76
1, 317452, Note_on_c, 0, 100, 85
1, 317452, Note_on_c, 0, 94, 0
1, 317513, Note_on_c, 0, 97, 0
1, 317513, Note_on_c, 0, 101, 92
1, 317535, Note_on_c, 0, 100, 0
1, 317580, Note_on_c, 0, 100, 84
1, 317621, Note_on_c, 0, 97, 80
1, 317643, Note_on_c, 0, 101, 0
1, 317691, Note_on_c, 0, 100, 0
1, 317704, Note_on_c, 0, 94, 73
1, 317757, Note_on_c, 0, 97, 0
1, 317768, Note_on_c, 0, 91, 85
1, 317779, Note_on_c, 0, 94, 0
1, 317796, Note_on_c, 0, 91, 0
1, 317839, Note_on_c, 0, 89, 76
1, 317913, Note_on_c, 0, 88, 64
1, 317933, Note_on_c, 0, 89, 0
1, 317961, Note_on_c, 0, 85, 75
1, 318006, Note_on_c, 0, 88, 0
1, 318034, Note_on_c, 0, 82, 68
1, 318070, Note_on_c, 0, 85, 0
1, 318097, Note_on_c, 0, 79, 78
1, 318112, Note_on_c, 0, 82, 0
1, 318131, Note_on_c, 0, 79, 0
1, 318159, Note_on_c, 0, 77, 75
1, 318225, Note_on_c, 0, 76, 69
1, 318234, Note_on_c, 0, 77, 0
1, 318276, Note_on_c, 0, 73, 71
1, 318315, Note_on_c, 0, 76, 0
1, 318335, Note_on_c, 0, 70, 66
1, 318373, Note_on_c, 0, 73, 0
1, 318393, Note_on_c, 0, 67, 66
1, 318404, Note_on_c, 0, 70, 0
1, 318432, Note_on_c, 0, 67, 0
1, 318452, Note_on_c, 0, 65, 80
1, 318518, Note_on_c, 0, 64, 77
1, 318545, Note_on_c, 0, 65, 0
1, 318562, Note_on_c, 0, 61, 83
1, 318613, Note_on_c, 0, 64, 0
1, 318621, Note_on_c, 0, 58, 72
1, 318672, Note_on_c, 0, 61, 0
1, 318679, Note_on_c, 0, 55, 84
1, 318693, Note_on_c, 0, 58, 0
1, 318708, Note_on_c, 0, 55, 0
1, 318741, Note_on_c, 0, 53, 105
1, 318785, Note_on_c, 0, 52, 95
1, 318824, Note_on_c, 0, 53, 0
1, 318832, Note_on_c, 0, 49, 90
1, 318864, Note_on_c, 0, 52, 0
1, 318899, Note_on_c, 0, 46, 83
1, 318947, Note_on_c, 0, 49, 0
1, 318961, Note_on_c, 0, 43, 96
1, 318988, Note_on_c, 0, 46, 0
1, 319036, Note_on_c, 0, 42, 87
1, 319064, Note_on_c, 0, 43, 0
1, 319108, Note_on_c, 0, 41, 100
1, 319164, Note_on_c, 0, 42, 0
1, 319183, Note_on_c, 0, 40, 101
1, 319197, Note_on_c, 0, 41, 0
1, 319248, Note_on_c, 0, 39, 86
1, 319264, Note_on_c, 0, 40, 0
1, 319326, Note_on_c, 0, 38, 94
1, 319356, Note_on_c, 0, 39, 0
1, 319374, Note_on_c, 0, 38, 0
1, 319420, Note_on_c, 0, 49, 106
1, 319420, Note_on_c, 0, 37, 99
1, 319555, Note_on_c, 0, 52, 80
1, 319627, Note_on_c, 0, 55, 71
1, 319663, Note_on_c, 0, 52, 0
1, 319699, Control_c, 0, 64, 0
1, 319722, Note_on_c, 0, 58, 57
1, 319722, Note_on_c, 0, 64, 63
1, 319739, Note_on_c, 0, 55, 0
1, 319803, Note_on_c, 0, 55, 53
1, 319835, Note_on_c, 0, 64, 0
1, 319842, Control_c, 0, 64, 127
1, 319891, Note_on_c, 0, 52, 91
1, 319903, Note_on_c, 0, 49, 0
1, 319909, Note_on_c, 0, 37, 0
1, 319931, Note_on_c, 0, 55, 0
1, 319952, Note_on_c, 0, 52, 0
1, 319984, Note_on_c, 0, 46, 95
1, 319989, Note_on_c, 0, 58, 0
1, 319989, Note_on_c, 0, 34, 88
1, 320066, Note_on_c, 0, 52, 92
1, 320165, Note_on_c, 0, 56, 75
1, 320179, Control_c, 0, 64, 0
1, 320204, Note_on_c, 0, 52, 0
1, 320259, Note_on_c, 0, 62, 73
1, 320259, Note_on_c, 0, 56, 0
1, 320264, Note_on_c, 0, 64, 67
1, 320318, Note_on_c, 0, 56, 60
1, 320323, Control_c, 0, 64, 127
1, 320382, Note_on_c, 0, 52, 96
1, 320393, Note_on_c, 0, 64, 0
1, 320412, Note_on_c, 0, 52, 0
1, 320434, Note_on_c, 0, 34, 0
1, 320434, Note_on_c, 0, 56, 0
1, 320438, Note_on_c, 0, 46, 0
1, 320463, Note_on_c, 0, 62, 0
1, 320468, Note_on_c, 0, 47, 104
1, 320468, Note_on_c, 0, 35, 103
1, 320538, Control_c, 0, 64, 0
1, 320554, Note_on_c, 0, 64, 84
1, 320619, Note_on_c, 0, 68, 76
1, 320654, Note_on_c, 0, 64, 0
1, 320689, Note_on_c, 0, 76, 67
1, 320692, Note_on_c, 0, 74, 75
1, 320700, Note_on_c, 0, 68, 0
1, 320707, Control_c, 0, 64, 127
1, 320749, Note_on_c, 0, 68, 60
1, 320774, Note_on_c, 0, 35, 0
1, 320785, Note_on_c, 0, 76, 0
1, 320796, Note_on_c, 0, 47, 0
1, 320806, Note_on_c, 0, 64, 81
1, 320838, Note_on_c, 0, 64, 0
1, 320838, Note_on_c, 0, 74, 0
1, 320855, Note_on_c, 0, 68, 0
1, 320895, Note_on_c, 0, 54, 106
1, 320899, Note_on_c, 0, 42, 86
1, 320980, Note_on_c, 0, 76, 76
1, 320980, Control_c, 0, 64, 0
1, 321045, Note_on_c, 0, 80, 81
1, 321089, Note_on_c, 0, 76, 0
1, 321101, Control_c, 0, 64, 127
1, 321112, Note_on_c, 0, 86, 78
1, 321115, Note_on_c, 0, 88, 75
1, 321120, Note_on_c, 0, 54, 0
1, 321126, Note_on_c, 0, 80, 0
1, 321145, Note_on_c, 0, 42, 0
1, 321173, Note_on_c, 0, 80, 66
1, 321237, Note_on_c, 0, 76, 76
1, 321248, Note_on_c, 0, 88, 0
1, 321271, Note_on_c, 0, 76, 0
1, 321287, Note_on_c, 0, 80, 0
1, 321299, Note_on_c, 0, 86, 0
1, 321326, Note_on_c, 0, 47, 101
1, 321329, Note_on_c, 0, 35, 104
1, 321407, Note_on_c, 0, 88, 78
1, 321479, Note_on_c, 0, 92, 76
1, 321508, Note_on_c, 0, 88, 0
1, 321540, Note_on_c, 0, 92, 0
1, 321540, Note_on_c, 0, 99, 20
1, 321546, Note_on_c, 0, 100, 55
1, 321552, Note_on_c, 0, 98, 74
1, 321563, Note_on_c, 0, 35, 0
1, 321593, Note_on_c, 0, 99, 0
1, 321611, Note_on_c, 0, 92, 52
1, 321619, Note_on_c, 0, 47, 0
1, 321672, Note_on_c, 0, 100, 0
1, 321677, Note_on_c, 0, 98, 0
1, 321682, Note_on_c, 0, 88, 89
1, 321704, Note_on_c, 0, 92, 0
1, 321708, Note_on_c, 0, 88, 0
1, 321724, Note_on_c, 0, 48, 85
1, 321730, Note_on_c, 0, 36, 83
1, 321771, Note_on_c, 0, 36, 0
1, 321781, Note_on_c, 0, 48, 0
1, 321831, Note_on_c, 0, 48, 82
1, 321835, Note_on_c, 0, 36, 82
1, 321925, Note_on_c, 0, 52, 91
1, 321994, Note_on_c, 0, 48, 0
1, 322011, Note_on_c, 0, 57, 76
1, 322015, Note_on_c, 0, 52, 0
1, 322022, Note_on_c, 0, 36, 0
1, 322061, Control_c, 0, 64, 0
1, 322070, Note_on_c, 0, 49, 95
1, 322070, Note_on_c, 0, 37, 88
1, 322078, Note_on_c, 0, 61, 75
1, 322083, Note_on_c, 0, 64, 72
1, 322095, Note_on_c, 0, 57, 0
1, 322115, Note_on_c, 0, 61, 0
1, 322115, Note_on_c, 0, 64, 0
1, 322156, Note_on_c, 0, 64, 93
1, 322156, Note_on_c, 0, 49, 0
1, 322181, Note_on_c, 0, 37, 0
1, 322181, Control_c, 0, 64, 127
1, 322232, Note_on_c, 0, 69, 80
1, 322242, Note_on_c, 0, 64, 0
1, 322310, Note_on_c, 0, 73, 66
1, 322310, Note_on_c, 0, 76, 54
1, 322313, Note_on_c, 0, 69, 0
1, 322327, Note_on_c, 0, 41, 99
1, 322327, Note_on_c, 0, 29, 94
1, 322342, Note_on_c, 0, 73, 0
1, 322346, Note_on_c, 0, 76, 0
1, 322382, Note_on_c, 0, 76, 88
1, 322451, Note_on_c, 0, 41, 0
1, 322465, Note_on_c, 0, 81, 83
1, 322488, Note_on_c, 0, 76, 0
1, 322498, Note_on_c, 0, 29, 0
1, 322505, Note_on_c, 0, 82, 31
1, 322527, Note_on_c, 0, 85, 69
1, 322540, Note_on_c, 0, 88, 50
1, 322544, Note_on_c, 0, 87, 28
1, 322558, Note_on_c, 0, 81, 0
1, 322561, Note_on_c, 0, 82, 0
1, 322561, Note_on_c, 0, 85, 0
1, 322576, Note_on_c, 0, 88, 0
1, 322600, Note_on_c, 0, 87, 0
1, 322608, Note_on_c, 0, 88, 96
1, 322643, Note_on_c, 0, 29, 92
1, 322647, Note_on_c, 0, 41, 95
1, 322674, Note_on_c, 0, 29, 0
1, 322686, Note_on_c, 0, 41, 0
1, 322689, Note_on_c, 0, 93, 79
1, 322700, Note_on_c, 0, 88, 0
1, 322730, Note_on_c, 0, 100, 83
1, 322730, Note_on_c, 0, 97, 75
1, 322735, Note_on_c, 0, 93, 0
1, 322735, Note_on_c, 0, 41, 94
1, 322746, Note_on_c, 0, 29, 92
1, 322810, Note_on_c, 0, 93, 72
1, 322844, Note_on_c, 0, 100, 0
1, 322866, Note_on_c, 0, 97, 0
1, 322875, Note_on_c, 0, 88, 79
1, 322881, Note_on_c, 0, 93, 0
1, 322898, Note_on_c, 0, 41, 0
1, 322905, Note_on_c, 0, 88, 0
1, 322911, Note_on_c, 0, 29, 0
1, 322953, Note_on_c, 0, 88, 60
1, 322964, Note_on_c, 0, 40, 110
1, 322964, Note_on_c, 0, 85, 78
1, 322969, Note_on_c, 0, 28, 95
1, 323044, Note_on_c, 0, 28, 0
1, 323044, Note_on_c, 0, 81, 73
1, 323047, Note_on_c, 0, 40, 0
1, 323070, Note_on_c, 0, 88, 0
1, 323097, Note_on_c, 0, 85, 0
1, 323097, Note_on_c, 0, 81, 0
1, 323101, Note_on_c, 0, 76, 74
1, 323131, Note_on_c, 0, 76, 0
1, 323187, Note_on_c, 0, 76, 37
1, 323200, Note_on_c, 0, 73, 64
1, 323221, Note_on_c, 0, 49, 93
1, 323221, Note_on_c, 0, 37, 88
1, 323274, Note_on_c, 0, 69, 62
1, 323290, Note_on_c, 0, 76, 0
1, 323318, Control_c, 0, 64, 0
1, 323318, Note_on_c, 0, 73, 0
1, 323332, Note_on_c, 0, 69, 0
1, 323349, Note_on_c, 0, 64, 60
1, 323385, Note_on_c, 0, 64, 0
1, 323427, Note_on_c, 0, 61, 69
1, 323437, Note_on_c, 0, 64, 57
1, 323451, Control_c, 0, 64, 127
1, 323479, Note_on_c, 0, 64, 0
1, 323494, Note_on_c, 0, 57, 74
1, 323501, Note_on_c, 0, 49, 0
1, 323541, Note_on_c, 0, 37, 0
1, 323558, Note_on_c, 0, 61, 0
1, 323577, Note_on_c, 0, 52, 80
1, 323613, Note_on_c, 0, 52, 0
1, 323636, Note_on_c, 0, 57, 0
1, 323672, Note_on_c, 0, 46, 86
1, 323677, Note_on_c, 0, 34, 83
1, 323727, Control_c, 0, 64, 0
1, 323742, Note_on_c, 0, 52, 82
1, 323827, Note_on_c, 0, 56, 72
1, 323864, Note_on_c, 0, 52, 0
1, 323906, Note_on_c, 0, 64, 74
1, 323912, Note_on_c, 0, 56, 0
1, 323917, Note_on_c, 0, 62, 63
1, 323917, Control_c, 0, 64, 127
1, 323970, Note_on_c, 0, 56, 52
1, 323994, Note_on_c, 0, 64, 0
1, 324017, Note_on_c, 0, 34, 0
1, 324031, Note_on_c, 0, 62, 0
1, 324036, Note_on_c, 0, 52, 92
1, 324068, Note_on_c, 0, 52, 0
1, 324086, Note_on_c, 0, 46, 0
1, 324090, Note_on_c, 0, 56, 0
1, 324164, Note_on_c, 0, 47, 102
1, 324168, Note_on_c, 0, 35, 106
1, 324206, Control_c, 0, 64, 0
1, 324237, Note_on_c, 0, 64, 73
1, 324313, Note_on_c, 0, 68, 74
1, 324349, Control_c, 0, 64, 127
1, 324349, Note_on_c, 0, 64, 0
1, 324382, Note_on_c, 0, 74, 76
1, 324382, Note_on_c, 0, 76, 64
1, 324391, Note_on_c, 0, 68, 0
1, 324427, Note_on_c, 0, 35, 0
1, 324449, Note_on_c, 0, 68, 54
1, 324458, Note_on_c, 0, 47, 0
1, 324477, Note_on_c, 0, 76, 0
1, 324497, Note_on_c, 0, 64, 86
1, 324529, Note_on_c, 0, 64, 0
1, 324552, Note_on_c, 0, 68, 0
1, 324558, Note_on_c, 0, 74, 0
1, 324574, Note_on_c, 0, 54, 106
1, 324579, Note_on_c, 0, 42, 92
1, 324649, Control_c, 0, 64, 0
1, 324667, Note_on_c, 0, 76, 76
1, 324739, Note_on_c, 0, 80, 81
1, 324769, Control_c, 0, 64, 127
1, 324772, Note_on_c, 0, 76, 0
1, 324783, Note_on_c, 0, 54, 0
1, 324802, Note_on_c, 0, 86, 71
1, 324802, Note_on_c, 0, 88, 72
1, 324811, Note_on_c, 0, 42, 0
1, 324811, Note_on_c, 0, 80, 0
1, 324861, Note_on_c, 0, 80, 73
1, 324912, Note_on_c, 0, 88, 0
1, 324915, Note_on_c, 0, 76, 75
1, 324948, Note_on_c, 0, 86, 0
1, 324948, Note_on_c, 0, 76, 0
1, 324955, Note_on_c, 0, 80, 0
1, 324984, Note_on_c, 0, 47, 98
1, 324987, Note_on_c, 0, 35, 106
1, 325017, Note_on_c, 0, 45, 36
1, 325073, Note_on_c, 0, 88, 84
1, 325081, Note_on_c, 0, 45, 0
1, 325137, Note_on_c, 0, 92, 82
1, 325168, Note_on_c, 0, 88, 0
1, 325198, Note_on_c, 0, 100, 70
1, 325206, Note_on_c, 0, 98, 84
1, 325228, Note_on_c, 0, 92, 0
1, 325268, Note_on_c, 0, 92, 74
1, 325284, Note_on_c, 0, 47, 0
1, 325290, Note_on_c, 0, 35, 0
1, 325298, Note_on_c, 0, 100, 0
1, 325298, Note_on_c, 0, 98, 0
1, 325315, Note_on_c, 0, 88, 73
1, 325331, Note_on_c, 0, 92, 0
1, 325348, Note_on_c, 0, 88, 0
1, 325388, Note_on_c, 0, 36, 94
1, 325388, Note_on_c, 0, 48, 91
1, 325448, Note_on_c, 0, 36, 0
1, 325460, Note_on_c, 0, 48, 0
1, 325494, Note_on_c, 0, 36, 99
1, 325501, Note_on_c, 0, 48, 88
1, 325569, Note_on_c, 0, 52, 89
1, 325630, Note_on_c, 0, 48, 0
1, 325630, Note_on_c, 0, 52, 0
1, 325650, Note_on_c, 0, 57, 75
1, 325660, Note_on_c, 0, 36, 0
1, 325716, Control_c, 0, 64, 0
1, 325722, Note_on_c, 0, 49, 97
1, 325722, Note_on_c, 0, 37, 92
1, 325722, Note_on_c, 0, 61, 77
1, 325730, Note_on_c, 0, 57, 0
1, 325730, Note_on_c, 0, 64, 77
1, 325763, Note_on_c, 0, 61, 0
1, 325763, Note_on_c, 0, 64, 0
1, 325792, Note_on_c, 0, 49, 0
1, 325800, Control_c, 0, 64, 127
1, 325806, Note_on_c, 0, 64, 94
1, 325814, Note_on_c, 0, 37, 0
1, 325887, Note_on_c, 0, 69, 80
1, 325895, Note_on_c, 0, 34, 25
1, 325903, Note_on_c, 0, 64, 0
1, 325954, Note_on_c, 0, 34, 0
1, 325957, Note_on_c, 0, 29, 103
1, 325957, Note_on_c, 0, 41, 102
1, 325960, Note_on_c, 0, 73, 66
1, 325960, Note_on_c, 0, 76, 61
1, 325969, Note_on_c, 0, 69, 0
1, 325997, Note_on_c, 0, 73, 0
1, 325997, Note_on_c, 0, 76, 0
1, 326042, Note_on_c, 0, 76, 78
1, 326115, Note_on_c, 0, 81, 88
1, 326128, Note_on_c, 0, 76, 0
1, 326159, Note_on_c, 0, 41, 0
1, 326176, Note_on_c, 0, 88, 68
1, 326176, Note_on_c, 0, 85, 66
1, 326192, Note_on_c, 0, 29, 0
1, 326192, Note_on_c, 0, 81, 0
1, 326207, Note_on_c, 0, 85, 0
1, 326207, Note_on_c, 0, 88, 0
1, 326265, Note_on_c, 0, 88, 59
1, 326287, Note_on_c, 0, 41, 98
1, 326290, Note_on_c, 0, 29, 98
1, 326321, Note_on_c, 0, 29, 0
1, 326321, Note_on_c, 0, 93, 74
1, 326329, Note_on_c, 0, 41, 0
1, 326352, Note_on_c, 0, 88, 0
1, 326380, Note_on_c, 0, 100, 81
1, 326380, Note_on_c, 0, 97, 76
1, 326388, Note_on_c, 0, 41, 100
1, 326388, Note_on_c, 0, 29, 94
1, 326399, Control_c, 0, 64, 0
1, 326408, Note_on_c, 0, 93, 0
1, 326451, Note_on_c, 0, 93, 85
1, 326471, Control_c, 0, 64, 127
1, 326483, Note_on_c, 0, 100, 0
1, 326501, Note_on_c, 0, 97, 0
1, 326505, Note_on_c, 0, 93, 0
1, 326513, Note_on_c, 0, 88, 68
1, 326516, Note_on_c, 0, 41, 0
1, 326527, Note_on_c, 0, 29, 0
1, 326546, Note_on_c, 0, 88, 0
1, 326588, Note_on_c, 0, 40, 109
1, 326588, Note_on_c, 0, 88, 58
1, 326588, Note_on_c, 0, 85, 81
1, 326588, Note_on_c, 0, 28, 95
1, 326603, Control_c, 0, 64, 0
1, 326619, Note_on_c, 0, 28, 0
1, 326660, Note_on_c, 0, 40, 0
1, 326667, Note_on_c, 0, 81, 74
1, 326675, Control_c, 0, 64, 127
1, 326713, Note_on_c, 0, 88, 0
1, 326722, Note_on_c, 0, 85, 0
1, 326735, Note_on_c, 0, 76, 71
1, 326749, Note_on_c, 0, 81, 0
1, 326766, Note_on_c, 0, 76, 0
1, 326809, Note_on_c, 0, 76, 69
1, 326820, Note_on_c, 0, 49, 101
1, 326825, Note_on_c, 0, 37, 92
1, 326825, Note_on_c, 0, 73, 68
1, 326886, Note_on_c, 0, 69, 54
1, 326919, Note_on_c, 0, 76, 0
1, 326942, Note_on_c, 0, 73, 0
1, 326954, Note_on_c, 0, 69, 0
1, 326957, Note_on_c, 0, 64, 76
1, 326987, Note_on_c, 0, 64, 0
1, 327040, Note_on_c, 0, 64, 33
1, 327043, Note_on_c, 0, 61, 70
1, 327086, Note_on_c, 0, 57, 69
1, 327090, Note_on_c, 0, 64, 0
1, 327143, Note_on_c, 0, 61, 0
1, 327156, Note_on_c, 0, 52, 74
1, 327173, Note_on_c, 0, 49, 0
1, 327184, Note_on_c, 0, 37, 0
1, 327193, Note_on_c, 0, 52, 0
1, 327212, Note_on_c, 0, 57, 0
1, 327246, Note_on_c, 0, 48, 101
1, 327246, Note_on_c, 0, 36, 105
1, 327251, Control_c, 0, 64, 0
1, 327302, Note_on_c, 0, 55, 86
1, 327357, Note_on_c, 0, 63, 18
1, 327366, Note_on_c, 0, 58, 76
1, 327402, Note_on_c, 0, 55, 0
1, 327410, Note_on_c, 0, 63, 0
1, 327418, Control_c, 0, 64, 127
1, 327444, Note_on_c, 0, 67, 72
1, 327444, Note_on_c, 0, 64, 79
1, 327469, Note_on_c, 0, 58, 0
1, 327513, Note_on_c, 0, 58, 67
1, 327529, Note_on_c, 0, 67, 0
1, 327557, Note_on_c, 0, 48, 0
1, 327557, Note_on_c, 0, 36, 0
1, 327561, Note_on_c, 0, 55, 90
1, 327577, Note_on_c, 0, 64, 0
1, 327599, Note_on_c, 0, 55, 0
1, 327614, Note_on_c, 0, 58, 0
1, 327646, Note_on_c, 0, 49, 104
1, 327649, Note_on_c, 0, 37, 95
1, 327669, Control_c, 0, 64, 0
1, 327727, Note_on_c, 0, 67, 86
1, 327789, Control_c, 0, 64, 127
1, 327789, Note_on_c, 0, 70, 73
1, 327825, Note_on_c, 0, 37, 0
1, 327825, Note_on_c, 0, 67, 0
1, 327847, Note_on_c, 0, 76, 80
1, 327847, Note_on_c, 0, 79, 87
1, 327862, Note_on_c, 0, 49, 0
1, 327869, Note_on_c, 0, 70, 0
1, 327915, Note_on_c, 0, 70, 69
1, 327926, Note_on_c, 0, 79, 0
1, 327967, Note_on_c, 0, 67, 83
1, 327975, Note_on_c, 0, 76, 0
1, 328000, Note_on_c, 0, 67, 0
1, 328018, Note_on_c, 0, 70, 0
1, 328036, Note_on_c, 0, 55, 104
1, 328039, Note_on_c, 0, 43, 94
1, 328076, Control_c, 0, 64, 0
1, 328109, Note_on_c, 0, 79, 94
1, 328168, Note_on_c, 0, 82, 80
1, 328185, Control_c, 0, 64, 127
1, 328188, Note_on_c, 0, 79, 0
1, 328206, Note_on_c, 0, 55, 0
1, 328226, Note_on_c, 0, 91, 75
1, 328226, Note_on_c, 0, 88, 68
1, 328237, Note_on_c, 0, 43, 0
1, 328254, Note_on_c, 0, 82, 0
1, 328299, Note_on_c, 0, 82, 76
1, 328330, Note_on_c, 0, 91, 0
1, 328344, Note_on_c, 0, 79, 92
1, 328362, Note_on_c, 0, 88, 0
1, 328377, Note_on_c, 0, 79, 0
1, 328394, Note_on_c, 0, 82, 0
1, 328407, Note_on_c, 0, 48, 104
1, 328411, Note_on_c, 0, 36, 102
1, 328486, Note_on_c, 0, 91, 92
1, 328543, Note_on_c, 0, 94, 75
1, 328561, Note_on_c, 0, 91, 0
1, 328594, Note_on_c, 0, 103, 71
1, 328597, Note_on_c, 0, 100, 66
1, 328619, Note_on_c, 0, 48, 0
1, 328619, Note_on_c, 0, 94, 0
1, 328639, Note_on_c, 0, 36, 0
1, 328663, Note_on_c, 0, 94, 82
1, 328683, Note_on_c, 0, 103, 0
1, 328699, Note_on_c, 0, 100, 0
1, 328706, Note_on_c, 0, 91, 94
1, 328727, Note_on_c, 0, 94, 0
1, 328731, Note_on_c, 0, 91, 0
1, 328767, Note_on_c, 0, 49, 92
1, 328767, Note_on_c, 0, 37, 93
1, 328831, Note_on_c, 0, 37, 0
1, 328844, Note_on_c, 0, 49, 0
1, 328873, Note_on_c, 0, 49, 99
1, 328876, Note_on_c, 0, 37, 98
1, 328945, Note_on_c, 0, 53, 101
1, 328964, Control_c, 0, 64, 0
1, 329001, Note_on_c, 0, 58, 63
1, 329018, Note_on_c, 0, 53, 0
1, 329046, Note_on_c, 0, 37, 0
1, 329057, Note_on_c, 0, 49, 0
1, 329081, Note_on_c, 0, 62, 72
1, 329081, Note_on_c, 0, 65, 76
1, 329084, Control_c, 0, 64, 127
1, 329089, Note_on_c, 0, 50, 106
1, 329089, Note_on_c, 0, 58, 0
1, 329089, Note_on_c, 0, 38, 99
1, 329110, Note_on_c, 0, 62, 0
1, 329115, Note_on_c, 0, 65, 0
1, 329159, Note_on_c, 0, 65, 83
1, 329187, Note_on_c, 0, 50, 0
1, 329213, Note_on_c, 0, 38, 0
1, 329230, Note_on_c, 0, 70, 76
1, 329249, Note_on_c, 0, 65, 0
1, 329284, Note_on_c, 0, 42, 102
1, 329284, Note_on_c, 0, 74, 74
1, 329290, Note_on_c, 0, 30, 101
1, 329290, Note_on_c, 0, 77, 76
1, 329298, Note_on_c, 0, 70, 0
1, 329316, Note_on_c, 0, 74, 0
1, 329316, Note_on_c, 0, 77, 0
1, 329352, Note_on_c, 0, 77, 96
1, 329435, Note_on_c, 0, 82, 79
1, 329435, Note_on_c, 0, 77, 0
1, 329457, Note_on_c, 0, 42, 0
1, 329477, Note_on_c, 0, 30, 0
1, 329483, Note_on_c, 0, 86, 75
1, 329483, Note_on_c, 0, 89, 78
1, 329499, Note_on_c, 0, 82, 0
1, 329513, Note_on_c, 0, 86, 0
1, 329513, Note_on_c, 0, 89, 0
1, 329572, Note_on_c, 0, 89, 55
1, 329578, Note_on_c, 0, 42, 91
1, 329583, Note_on_c, 0, 30, 90
1, 329583, Note_on_c, 0, 91, 70
1, 329635, Note_on_c, 0, 30, 0
1, 329635, Note_on_c, 0, 94, 76
1, 329635, Note_on_c, 0, 89, 0
1, 329639, Note_on_c, 0, 42, 0
1, 329658, Note_on_c, 0, 91, 0
1, 329663, Note_on_c, 0, 94, 0
1, 329681, Note_on_c, 0, 98, 99
1, 329681, Note_on_c, 0, 42, 103
1, 329684, Control_c, 0, 64, 0
1, 329684, Note_on_c, 0, 101, 85
1, 329691, Note_on_c, 0, 30, 92
1, 329762, Note_on_c, 0, 94, 78
1, 329798, Note_on_c, 0, 101, 0
1, 329811, Note_on_c, 0, 98, 0
1, 329811, Control_c, 0, 64, 127
1, 329817, Note_on_c, 0, 30, 0
1, 329817, Note_on_c, 0, 89, 88
1, 329825, Note_on_c, 0, 42, 0
1, 329834, Note_on_c, 0, 94, 0
1, 329848, Note_on_c, 0, 89, 0
1, 329887, Control_c, 0, 64, 0
1, 329906, Note_on_c, 0, 41, 111
1, 329906, Note_on_c, 0, 89, 64
1, 329906, Note_on_c, 0, 29, 98
1, 329906, Note_on_c, 0, 86, 91
1, 329934, Note_on_c, 0, 29, 0
1, 329971, Note_on_c, 0, 41, 0
1, 329978, Note_on_c, 0, 82, 75
1, 329982, Control_c, 0, 64, 127
1, 330012, Note_on_c, 0, 89, 0
1, 330040, Note_on_c, 0, 86, 0
1, 330049, Note_on_c, 0, 77, 85
1, 330071, Note_on_c, 0, 82, 0
1, 330078, Note_on_c, 0, 77, 0
1, 330134, Note_on_c, 0, 77, 62
1, 330140, Note_on_c, 0, 74, 88
1, 330149, Note_on_c, 0, 50, 108
1, 330149, Note_on_c, 0, 38, 94
1, 330205, Note_on_c, 0, 70, 76
1, 330230, Note_on_c, 0, 77, 0
1, 330257, Note_on_c, 0, 74, 0
1, 330273, Note_on_c, 0, 65, 52
1, 330290, Note_on_c, 0, 70, 0
1, 330313, Note_on_c, 0, 65, 0
1, 330343, Note_on_c, 0, 62, 78
1, 330347, Note_on_c, 0, 65, 36
1, 330388, Note_on_c, 0, 58, 73
1, 330393, Note_on_c, 0, 65, 0
1, 330419, Note_on_c, 0, 50, 0
1, 330439, Note_on_c, 0, 38, 0
1, 330449, Note_on_c, 0, 53, 89
1, 330483, Note_on_c, 0, 53, 0
1, 330493, Note_on_c, 0, 58, 0
1, 330521, Note_on_c, 0, 62, 0
1, 330530, Note_on_c, 0, 48, 107
1, 330533, Note_on_c, 0, 36, 108
1, 330533, Control_c, 0, 64, 0
1, 330589, Note_on_c, 0, 55, 91
1, 330650, Note_on_c, 0, 58, 79
1, 330680, Note_on_c, 0, 55, 0
1, 330689, Control_c, 0, 64, 127
1, 330714, Note_on_c, 0, 64, 80
1, 330714, Note_on_c, 0, 67, 78
1, 330747, Note_on_c, 0, 58, 0
1, 330780, Note_on_c, 0, 58, 60
1, 330803, Note_on_c, 0, 67, 0
1, 330812, Note_on_c, 0, 48, 0
1, 330820, Note_on_c, 0, 36, 0
1, 330828, Note_on_c, 0, 55, 93
1, 330862, Note_on_c, 0, 55, 0
1, 330883, Note_on_c, 0, 58, 0
1, 330887, Note_on_c, 0, 64, 0
1, 330900, Note_on_c, 0, 49, 106
1, 330904, Note_on_c, 0, 37, 102
1, 330929, Control_c, 0, 64, 0
1, 330973, Note_on_c, 0, 67, 91
1, 331035, Note_on_c, 0, 70, 82
1, 331049, Control_c, 0, 64, 127
1, 331064, Note_on_c, 0, 67, 0
1, 331078, Note_on_c, 0, 37, 0
1, 331093, Note_on_c, 0, 79, 88
1, 331096, Note_on_c, 0, 76, 66
1, 331115, Note_on_c, 0, 49, 0
1, 331127, Note_on_c, 0, 70, 0
1, 331166, Note_on_c, 0, 70, 48
1, 331198, Note_on_c, 0, 79, 0
1, 331209, Note_on_c, 0, 67, 82
1, 331235, Note_on_c, 0, 76, 0
1, 331241, Note_on_c, 0, 67, 0
1, 331249, Note_on_c, 0, 70, 0
1, 331273, Note_on_c, 0, 55, 111
1, 331273, Note_on_c, 0, 43, 102
1, 331349, Control_c, 0, 64, 0
1, 331349, Note_on_c, 0, 79, 94
1, 331410, Note_on_c, 0, 82, 79
1, 331432, Control_c, 0, 64, 127
1, 331444, Note_on_c, 0, 79, 0
1, 331452, Note_on_c, 0, 55, 0
1, 331460, Note_on_c, 0, 91, 87
1, 331460, Note_on_c, 0, 88, 71
1, 331474, Note_on_c, 0, 43, 0
1, 331474, Note_on_c, 0, 82, 0
1, 331527, Note_on_c, 0, 82, 76
1, 331570, Note_on_c, 0, 91, 0
1, 331581, Note_on_c, 0, 79, 91
1, 331600, Note_on_c, 0, 88, 0
1, 331611, Note_on_c, 0, 79, 0
1, 331625, Note_on_c, 0, 82, 0
1, 331630, Note_on_c, 0, 48, 107
1, 331634, Note_on_c, 0, 36, 109
1, 331711, Note_on_c, 0, 91, 96
1, 331761, Note_on_c, 0, 94, 74
1, 331789, Note_on_c, 0, 91, 0
1, 331809, Note_on_c, 0, 100, 75
1, 331809, Note_on_c, 0, 103, 82
1, 331843, Note_on_c, 0, 94, 0
1, 331843, Note_on_c, 0, 48, 0
1, 331890, Note_on_c, 0, 36, 0
1, 331890, Note_on_c, 0, 94, 84
1, 331906, Note_on_c, 0, 103, 0
1, 331928, Note_on_c, 0, 91, 95
1, 331931, Note_on_c, 0, 100, 0
1, 331953, Note_on_c, 0, 94, 0
1, 331953, Note_on_c, 0, 91, 0
1, 331995, Note_on_c, 0, 49, 105
1, 331995, Note_on_c, 0, 37, 95
1, 332032, Note_on_c, 0, 37, 0
1, 332048, Note_on_c, 0, 49, 0
1, 332090, Note_on_c, 0, 49, 101
1, 332090, Note_on_c, 0, 37, 91
1, 332149, Note_on_c, 0, 53, 107
1, 332205, Note_on_c, 0, 58, 30
1, 332237, Note_on_c, 0, 53, 0
1, 332237, Note_on_c, 0, 37, 0
1, 332254, Note_on_c, 0, 49, 0
1, 332283, Control_c, 0, 64, 0
1, 332290, Note_on_c, 0, 58, 0
1, 332290, Note_on_c, 0, 65, 87
1, 332290, Note_on_c, 0, 50, 112
1, 332293, Note_on_c, 0, 62, 73
1, 332293, Note_on_c, 0, 38, 102
1, 332319, Note_on_c, 0, 65, 0
1, 332322, Note_on_c, 0, 62, 0
1, 332361, Note_on_c, 0, 65, 87
1, 332379, Control_c, 0, 64, 127
1, 332396, Note_on_c, 0, 50, 0
1, 332424, Note_on_c, 0, 38, 0
1, 332438, Note_on_c, 0, 70, 77
1, 332444, Note_on_c, 0, 65, 0
1, 332469, Note_on_c, 0, 70, 0
1, 332478, Note_on_c, 0, 42, 109
1, 332485, Note_on_c, 0, 74, 87
1, 332485, Note_on_c, 0, 77, 89
1, 332485, Note_on_c, 0, 30, 102
1, 332508, Note_on_c, 0, 74, 0
1, 332513, Note_on_c, 0, 77, 0
1, 332556, Note_on_c, 0, 77, 91
1, 332625, Note_on_c, 0, 82, 86
1, 332645, Note_on_c, 0, 77, 0
1, 332672, Note_on_c, 0, 42, 0
1, 332672, Note_on_c, 0, 89, 85
1, 332681, Note_on_c, 0, 86, 57
1, 332700, Note_on_c, 0, 30, 0
1, 332700, Note_on_c, 0, 89, 0
1, 332711, Note_on_c, 0, 82, 0
1, 332719, Note_on_c, 0, 86, 0
1, 332748, Note_on_c, 0, 89, 72
1, 332784, Note_on_c, 0, 42, 96
1, 332792, Note_on_c, 0, 30, 94
1, 332819, Note_on_c, 0, 94, 78
1, 332836, Note_on_c, 0, 30, 0
1, 332845, Note_on_c, 0, 42, 0
1, 332850, Note_on_c, 0, 89, 0
1, 332864, Note_on_c, 0, 98, 100
1, 332864, Note_on_c, 0, 101, 92
1, 332879, Note_on_c, 0, 42, 106
1, 332886, Note_on_c, 0, 30, 100
1, 332893, Note_on_c, 0, 94, 0
1, 332942, Note_on_c, 0, 94, 75
1, 332985, Note_on_c, 0, 101, 0
1, 332998, Note_on_c, 0, 98, 0
1, 332998, Note_on_c, 0, 89, 87
1, 333012, Note_on_c, 0, 30, 0
1, 333017, Note_on_c, 0, 94, 0
1, 333028, Note_on_c, 0, 89, 0
1, 333032, Note_on_c, 0, 42, 0
1, 333077, Note_on_c, 0, 41, 113
1, 333081, Note_on_c, 0, 89, 76
1, 333081, Note_on_c, 0, 29, 109
1, 333081, Note_on_c, 0, 86, 98
1, 333123, Note_on_c, 0, 29, 0
1, 333157, Note_on_c, 0, 82, 85
1, 333163, Note_on_c, 0, 41, 0
1, 333194, Note_on_c, 0, 89, 0
1, 333218, Note_on_c, 0, 86, 0
1, 333221, Note_on_c, 0, 77, 83
1, 333247, Note_on_c, 0, 82, 0
1, 333247, Note_on_c, 0, 77, 0
1, 333293, Note_on_c, 0, 77, 85
1, 333299, Note_on_c, 0, 50, 111
1, 333299, Note_on_c, 0, 38, 101
1, 333305, Note_on_c, 0, 74, 96
1, 333364, Note_on_c, 0, 70, 75
1, 333402, Note_on_c, 0, 77, 0
1, 333418, Note_on_c, 0, 74, 0
1, 333432, Note_on_c, 0, 65, 78
1, 333438, Note_on_c, 0, 70, 0
1, 333458, Note_on_c, 0, 65, 0
1, 333494, Note_on_c, 0, 65, 80
1, 333503, Note_on_c, 0, 62, 92
1, 333553, Note_on_c, 0, 58, 76
1, 333580, Note_on_c, 0, 65, 0
1, 333591, Note_on_c, 0, 50, 0
1, 333608, Note_on_c, 0, 53, 115
1, 333631, Note_on_c, 0, 62, 0
1, 333631, Note_on_c, 0, 37, 88
1, 333636, Note_on_c, 0, 53, 0
1, 333642, Note_on_c, 0, 38, 0
1, 333669, Note_on_c, 0, 58, 0
1, 333673, Control_c, 0, 64, 0
1, 333706, Note_on_c, 0, 49, 118
1, 333806, Note_on_c, 0, 37, 0
1, 333842, Note_on_c, 0, 49, 0
1, 333842, Control_c, 0, 64, 127
1, 333854, Note_on_c, 0, 71, 111
1, 333854, Note_on_c, 0, 83, 120
1, 333876, Note_on_c, 0, 80, 28
1, 333912, Note_on_c, 0, 71, 0
1, 333929, Note_on_c, 0, 80, 0
1, 333932, Note_on_c, 0, 83, 0
1, 334038, Note_on_c, 0, 86, 115
1, 334043, Note_on_c, 0, 74, 113
1, 334046, Note_on_c, 0, 69, 100
1, 334054, Note_on_c, 0, 59, 89
1, 334054, Note_on_c, 0, 65, 85
1, 334066, Note_on_c, 0, 62, 55
1, 334066, Note_on_c, 0, 74, 0
1, 334085, Note_on_c, 0, 65, 0
1, 334088, Note_on_c, 0, 86, 0
1, 334102, Note_on_c, 0, 62, 0
1, 334116, Note_on_c, 0, 59, 0
1, 334121, Note_on_c, 0, 69, 0
1, 334285, Note_on_c, 0, 93, 113
1, 334291, Note_on_c, 0, 69, 92
1, 334291, Note_on_c, 0, 81, 106
1, 334299, Note_on_c, 0, 83, 111
1, 334299, Note_on_c, 0, 59, 76
1, 334308, Note_on_c, 0, 65, 68
1, 334316, Note_on_c, 0, 62, 64
1, 334319, Note_on_c, 0, 83, 0
1, 334354, Note_on_c, 0, 62, 0
1, 334369, Note_on_c, 0, 69, 0
1, 334382, Note_on_c, 0, 59, 0
1, 334386, Note_on_c, 0, 65, 0
1, 334438, Note_on_c, 0, 69, 75
1, 334442, Note_on_c, 0, 59, 74
1, 334452, Note_on_c, 0, 65, 44
1, 334460, Note_on_c, 0, 62, 54
1, 334500, Note_on_c, 0, 93, 0
1, 334503, Note_on_c, 0, 81, 0
1, 334506, Note_on_c, 0, 69, 0
1, 334510, Note_on_c, 0, 62, 0
1, 334524, Note_on_c, 0, 59, 0
1, 334544, Note_on_c, 0, 65, 0
1, 334574, Note_on_c, 0, 68, 90
1, 334583, Note_on_c, 0, 62, 57
1, 334583, Note_on_c, 0, 92, 95
1, 334583, Note_on_c, 0, 59, 54
1, 334583, Note_on_c, 0, 80, 103
1, 334598, Note_on_c, 0, 65, 68
1, 334631, Note_on_c, 0, 59, 0
1, 334631, Note_on_c, 0, 65, 0
1, 334637, Note_on_c, 0, 62, 0
1, 334642, Note_on_c, 0, 68, 0
1, 334662, Note_on_c, 0, 80, 0
1, 334709, Note_on_c, 0, 92, 0
1, 334717, Note_on_c, 0, 66, 100
1, 334717, Note_on_c, 0, 56, 91
1, 334717, Note_on_c, 0, 78, 96
1, 334734, Note_on_c, 0, 62, 63
1, 334740, Note_on_c, 0, 59, 63
1, 334761, Note_on_c, 0, 78, 0
1, 334761, Control_c, 0, 64, 0
1, 334770, Note_on_c, 0, 92, 62
1, 334770, Note_on_c, 0, 62, 0
1, 334775, Note_on_c, 0, 59, 0
1, 334804, Note_on_c, 0, 66, 0
1, 334814, Note_on_c, 0, 56, 0
1, 334822, Note_on_c, 0, 90, 77
1, 334828, Note_on_c, 0, 78, 83
1, 334836, Note_on_c, 0, 59, 60
1, 334836, Note_on_c, 0, 66, 88
1, 334836, Control_c, 0, 64, 127
1, 334842, Note_on_c, 0, 62, 53
1, 334846, Note_on_c, 0, 56, 50
1, 334884, Note_on_c, 0, 56, 0
1, 334889, Note_on_c, 0, 92, 0
1, 334896, Note_on_c, 0, 62, 0
1, 334904, Note_on_c, 0, 78, 0
1, 334909, Note_on_c, 0, 59, 0
1, 334914, Note_on_c, 0, 66, 0
1, 334925, Note_on_c, 0, 90, 0
1, 334959, Note_on_c, 0, 56, 67
1, 334959, Note_on_c, 0, 62, 65
1, 334959, Note_on_c, 0, 65, 95
1, 334959, Note_on_c, 0, 59, 71
1, 334967, Note_on_c, 0, 89, 98
1, 334970, Note_on_c, 0, 77, 94
1, 334998, Note_on_c, 0, 65, 0
1, 335001, Note_on_c, 0, 77, 0
1, 335004, Note_on_c, 0, 62, 0
1, 335004, Note_on_c, 0, 59, 0
1, 335018, Note_on_c, 0, 89, 0
1, 335037, Note_on_c, 0, 56, 0
1, 335095, Note_on_c, 0, 56, 64
1, 335095, Note_on_c, 0, 74, 91
1, 335099, Note_on_c, 0, 53, 103
1, 335102, Note_on_c, 0, 62, 79
1, 335105, Note_on_c, 0, 64, 76
1, 335129, Note_on_c, 0, 53, 0
1, 335129, Note_on_c, 0, 74, 0
1, 335129, Note_on_c, 0, 64, 0
1, 335129, Note_on_c, 0, 76, 28
1, 335134, Note_on_c, 0, 62, 0
1, 335138, Note_on_c, 0, 88, 55
1, 335154, Note_on_c, 0, 56, 0
1, 335190, Note_on_c, 0, 86, 6
1, 335201, Note_on_c, 0, 62, 82
1, 335204, Note_on_c, 0, 53, 97
1, 335204, Note_on_c, 0, 56, 69
1, 335210, Note_on_c, 0, 74, 59
1, 335224, Note_on_c, 0, 59, 80
1, 335236, Note_on_c, 0, 88, 0
1, 335244, Note_on_c, 0, 74, 0
1, 335247, Note_on_c, 0, 53, 0
1, 335260, Note_on_c, 0, 76, 0
1, 335260, Note_on_c, 0, 59, 0
1, 335263, Note_on_c, 0, 86, 0
1, 335279, Note_on_c, 0, 62, 0
1, 335285, Note_on_c, 0, 56, 0
1, 335324, Note_on_c, 0, 61, 100
1, 335324, Note_on_c, 0, 56, 76
1, 335332, Note_on_c, 0, 53, 96
1, 335332, Note_on_c, 0, 59, 61
1, 335338, Note_on_c, 0, 73, 79
1, 335341, Note_on_c, 0, 85, 92
1, 335358, Note_on_c, 0, 61, 0
1, 335363, Note_on_c, 0, 59, 0
1, 335374, Note_on_c, 0, 56, 0
1, 335396, Note_on_c, 0, 53, 0
1, 335396, Note_on_c, 0, 73, 0
1, 335424, Note_on_c, 0, 85, 0
1, 335424, Control_c, 0, 64, 0
1, 335470, Note_on_c, 0, 54, 108
1, 335475, Note_on_c, 0, 42, 101
1, 335499, Note_on_c, 0, 42, 0
1, 335534, Note_on_c, 0, 54, 0
1, 335555, Control_c, 0, 64, 127
1, 335578, Note_on_c, 0, 83, 108
1, 335583, Note_on_c, 0, 71, 92
1, 335602, Note_on_c, 0, 83, 0
1, 335612, Note_on_c, 0, 71, 0
1, 335697, Note_on_c, 0, 68, 84
1, 335697, Note_on_c, 0, 59, 66
1, 335708, Note_on_c, 0, 73, 97
1, 335708, Note_on_c, 0, 85, 100
1, 335725, Note_on_c, 0, 61, 60
1, 335734, Note_on_c, 0, 73, 0
1, 335734, Note_on_c, 0, 64, 42
1, 335745, Note_on_c, 0, 85, 0
1, 335749, Note_on_c, 0, 59, 0
1, 335761, Note_on_c, 0, 61, 0
1, 335773, Note_on_c, 0, 64, 0
1, 335781, Note_on_c, 0, 68, 0
1, 335868, Note_on_c, 0, 92, 104
1, 335868, Note_on_c, 0, 80, 107
1, 335871, Note_on_c, 0, 68, 85
1, 335871, Note_on_c, 0, 59, 73
1, 335881, Note_on_c, 0, 64, 62
1, 335881, Note_on_c, 0, 61, 70
1, 335921, Note_on_c, 0, 61, 0
1, 335921, Note_on_c, 0, 59, 0
1, 335935, Note_on_c, 0, 64, 0
1, 335945, Note_on_c, 0, 68, 0
1, 335988, Note_on_c, 0, 68, 78
1, 335995, Note_on_c, 0, 59, 74
1, 336006, Note_on_c, 0, 64, 60
1, 336006, Note_on_c, 0, 61, 52
1, 336057, Note_on_c, 0, 61, 0
1, 336063, Note_on_c, 0, 64, 0
1, 336071, Note_on_c, 0, 59, 0
1, 336076, Note_on_c, 0, 92, 0
1, 336076, Note_on_c, 0, 80, 0
1, 336085, Note_on_c, 0, 68, 0
1, 336133, Note_on_c, 0, 67, 92
1, 336141, Note_on_c, 0, 91, 94
1, 336141, Note_on_c, 0, 59, 64
1, 336144, Note_on_c, 0, 64, 67
1, 336144, Note_on_c, 0, 79, 100
1, 336144, Note_on_c, 0, 61, 65
1, 336158, Note_on_c, 0, 67, 0
1, 336171, Note_on_c, 0, 91, 0
1, 336176, Note_on_c, 0, 64, 0
1, 336185, Note_on_c, 0, 61, 0
1, 336201, Note_on_c, 0, 59, 0
1, 336224, Note_on_c, 0, 79, 0
1, 336299, Control_c, 0, 64, 0
1, 336307, Note_on_c, 0, 54, 106
1, 336311, Note_on_c, 0, 42, 93
1, 336339, Note_on_c, 0, 42, 0
1, 336382, Note_on_c, 0, 54, 0
1, 336406, Control_c, 0, 64, 127
1, 336411, Note_on_c, 0, 70, 84
1, 336411, Note_on_c, 0, 82, 88
1, 336442, Note_on_c, 0, 70, 0
1, 336469, Note_on_c, 0, 82, 0
1, 336533, Note_on_c, 0, 67, 92
1, 336539, Note_on_c, 0, 58, 61
1, 336544, Note_on_c, 0, 61, 75
1, 336544, Note_on_c, 0, 85, 84
1, 336553, Note_on_c, 0, 64, 61
1, 336561, Note_on_c, 0, 73, 17
1, 336566, Note_on_c, 0, 67, 0
1, 336570, Note_on_c, 0, 85, 0
1, 336581, Note_on_c, 0, 61, 0
1, 336581, Note_on_c, 0, 58, 0
1, 336587, Note_on_c, 0, 64, 0
1, 336611, Note_on_c, 0, 73, 0
1, 336670, Note_on_c, 0, 91, 113
1, 336676, Note_on_c, 0, 79, 110
1, 336676, Note_on_c, 0, 67, 93
1, 336683, Note_on_c, 0, 58, 70
1, 336687, Note_on_c, 0, 64, 62
1, 336690, Note_on_c, 0, 61, 69
1, 336731, Note_on_c, 0, 58, 0
1, 336731, Note_on_c, 0, 61, 0
1, 336742, Note_on_c, 0, 64, 0
1, 336742, Note_on_c, 0, 67, 0
1, 336806, Note_on_c, 0, 67, 83
1, 336818, Note_on_c, 0, 61, 57
1, 336818, Note_on_c, 0, 58, 50
1, 336826, Note_on_c, 0, 64, 56
1, 336845, Note_on_c, 0, 91, 0
1, 336848, Note_on_c, 0, 79, 0
1, 336870, Note_on_c, 0, 58, 0
1, 336885, Note_on_c, 0, 67, 0
1, 336890, Note_on_c, 0, 61, 0
1, 336890, Note_on_c, 0, 64, 0
1, 336940, Note_on_c, 0, 66, 82
1, 336945, Note_on_c, 0, 90, 88
1, 336945, Note_on_c, 0, 78, 95
1, 336952, Note_on_c, 0, 64, 67
1, 336952, Note_on_c, 0, 61, 55
1, 336957, Note_on_c, 0, 58, 43
1, 336970, Note_on_c, 0, 66, 0
1, 336984, Note_on_c, 0, 64, 0
1, 336990, Note_on_c, 0, 61, 0
1, 337015, Note_on_c, 0, 58, 0
1, 337027, Note_on_c, 0, 78, 0
1, 337035, Note_on_c, 0, 90, 0
1, 337185, Control_c, 0, 64, 0
1, 337191, Note_on_c, 0, 47, 108
1, 337191, Note_on_c, 0, 35, 117
1, 337300, Note_on_c, 0, 35, 0
1, 337324, Note_on_c, 0, 47, 0
1, 337341, Control_c, 0, 64, 127
1, 337369, Note_on_c, 0, 81, 99
1, 337369, Note_on_c, 0, 69, 88
1, 337413, Note_on_c, 0, 69, 0
1, 337430, Note_on_c, 0, 81, 0
1, 337516, Note_on_c, 0, 68, 83
1, 337525, Note_on_c, 0, 57, 56
1, 337525, Note_on_c, 0, 84, 106
1, 337525, Note_on_c, 0, 72, 87
1, 337531, Note_on_c, 0, 60, 54
1, 337541, Note_on_c, 0, 63, 59
1, 337548, Note_on_c, 0, 84, 0
1, 337558, Note_on_c, 0, 72, 0
1, 337572, Note_on_c, 0, 60, 0
1, 337572, Note_on_c, 0, 68, 0
1, 337575, Note_on_c, 0, 63, 0
1, 337581, Note_on_c, 0, 57, 0
1, 337731, Note_on_c, 0, 92, 106
1, 337731, Note_on_c, 0, 80, 106
1, 337736, Note_on_c, 0, 68, 98
1, 337740, Note_on_c, 0, 57, 78
1, 337748, Note_on_c, 0, 60, 70
1, 337756, Note_on_c, 0, 63, 81
1, 337812, Note_on_c, 0, 57, 0
1, 337823, Note_on_c, 0, 63, 0
1, 337831, Note_on_c, 0, 60, 0
1, 337834, Note_on_c, 0, 68, 0
1, 337882, Note_on_c, 0, 68, 79
1, 337888, Note_on_c, 0, 57, 49
1, 337891, Note_on_c, 0, 60, 55
1, 337898, Note_on_c, 0, 63, 60
1, 337934, Note_on_c, 0, 80, 0
1, 337937, Note_on_c, 0, 92, 0
1, 337956, Note_on_c, 0, 68, 0
1, 337956, Note_on_c, 0, 63, 0
1, 337963, Note_on_c, 0, 57, 0
1, 337981, Note_on_c, 0, 60, 0
1, 338018, Note_on_c, 0, 66, 84
1, 338023, Note_on_c, 0, 78, 100
1, 338023, Note_on_c, 0, 63, 67
1, 338027, Note_on_c, 0, 90, 95
1, 338027, Note_on_c, 0, 57, 56
1, 338030, Note_on_c, 0, 60, 71
1, 338068, Note_on_c, 0, 60, 0
1, 338071, Note_on_c, 0, 63, 0
1, 338077, Note_on_c, 0, 57, 0
1, 338088, Note_on_c, 0, 78, 0
1, 338088, Note_on_c, 0, 66, 0
1, 338129, Note_on_c, 0, 90, 0
1, 338160, Note_on_c, 0, 57, 83
1, 338160, Note_on_c, 0, 60, 81
1, 338166, Note_on_c, 0, 64, 100
1, 338166, Note_on_c, 0, 76, 79
1, 338169, Note_on_c, 0, 54, 90
1, 338191, Note_on_c, 0, 57, 0
1, 338191, Note_on_c, 0, 64, 0
1, 338199, Note_on_c, 0, 60, 0
1, 338207, Note_on_c, 0, 76, 0
1, 338207, Note_on_c, 0, 54, 0
1, 338230, Note_on_c, 0, 90, 86
1, 338286, Note_on_c, 0, 76, 80
1, 338289, Note_on_c, 0, 88, 95
1, 338289, Note_on_c, 0, 90, 0
1, 338289, Note_on_c, 0, 54, 75
1, 338293, Note_on_c, 0, 64, 92
1, 338293, Note_on_c, 0, 57, 52
1, 338297, Note_on_c, 0, 60, 34
1, 338360, Note_on_c, 0, 54, 0
1, 338363, Note_on_c, 0, 64, 0
1, 338367, Note_on_c, 0, 76, 0
1, 338371, Note_on_c, 0, 57, 0
1, 338380, Note_on_c, 0, 60, 0
1, 338413, Note_on_c, 0, 63, 92
1, 338413, Note_on_c, 0, 57, 83
1, 338422, Note_on_c, 0, 87, 91
1, 338422, Note_on_c, 0, 75, 91
1, 338428, Note_on_c, 0, 60, 81
1, 338428, Note_on_c, 0, 54, 54
1, 338461, Note_on_c, 0, 88, 0
1, 338466, Note_on_c, 0, 60, 0
1, 338473, Note_on_c, 0, 75, 0
1, 338477, Note_on_c, 0, 54, 0
1, 338481, Note_on_c, 0, 63, 0
1, 338489, Note_on_c, 0, 57, 0
1, 338494, Note_on_c, 0, 87, 0
1, 338555, Note_on_c, 0, 60, 97
1, 338555, Note_on_c, 0, 57, 63
1, 338559, Note_on_c, 0, 51, 88
1, 338562, Note_on_c, 0, 72, 77
1, 338569, Note_on_c, 0, 74, 84
1, 338569, Note_on_c, 0, 54, 62
1, 338586, Note_on_c, 0, 86, 69
1, 338594, Note_on_c, 0, 74, 0
1, 338598, Note_on_c, 0, 72, 0
1, 338598, Note_on_c, 0, 60, 0
1, 338611, Note_on_c, 0, 54, 0
1, 338620, Note_on_c, 0, 51, 0
1, 338620, Note_on_c, 0, 57, 0
1, 338625, Note_on_c, 0, 84, 15
1, 338665, Note_on_c, 0, 72, 76
1, 338676, Note_on_c, 0, 54, 65
1, 338676, Note_on_c, 0, 51, 81
1, 338679, Note_on_c, 0, 57, 57
1, 338686, Note_on_c, 0, 60, 45
1, 338698, Note_on_c, 0, 86, 0
1, 338701, Note_on_c, 0, 59, 44
1, 338723, Note_on_c, 0, 51, 0
1, 338728, Note_on_c, 0, 84, 0
1, 338728, Note_on_c, 0, 60, 0
1, 338732, Note_on_c, 0, 72, 0
1, 338743, Note_on_c, 0, 59, 0
1, 338750, Note_on_c, 0, 54, 0
1, 338767, Note_on_c, 0, 57, 0
1, 338804, Note_on_c, 0, 54, 78
1, 338807, Note_on_c, 0, 83, 117
1, 338807, Note_on_c, 0, 51, 73
1, 338807, Note_on_c, 0, 59, 49
1, 338807, Note_on_c, 0, 71, 102
1, 338810, Note_on_c, 0, 57, 83
1, 338842, Note_on_c, 0, 57, 0
1, 338842, Note_on_c, 0, 59, 0
1, 338876, Note_on_c, 0, 54, 0
1, 338876, Note_on_c, 0, 51, 0
1, 338885, Note_on_c, 0, 83, 0
1, 338935, Control_c, 0, 64, 0
1, 338951, Note_on_c, 0, 71, 0
1, 338963, Note_on_c, 0, 52, 115
1, 338966, Note_on_c, 0, 40, 117
1, 338991, Note_on_c, 0, 40, 0
1, 339024, Note_on_c, 0, 52, 0
1, 339066, Control_c, 0, 64, 127
1, 339079, Note_on_c, 0, 81, 91
1, 339079, Note_on_c, 0, 69, 88
1, 339116, Note_on_c, 0, 69, 0
1, 339140, Note_on_c, 0, 81, 0
1, 339200, Note_on_c, 0, 66, 79
1, 339210, Note_on_c, 0, 83, 117
1, 339210, Note_on_c, 0, 71, 100
1, 339214, Note_on_c, 0, 62, 57
1, 339214, Note_on_c, 0, 57, 52
1, 339230, Note_on_c, 0, 59, 37
1, 339230, Note_on_c, 0, 83, 0
1, 339236, Note_on_c, 0, 71, 0
1, 339254, Note_on_c, 0, 66, 0
1, 339254, Note_on_c, 0, 62, 0
1, 339260, Note_on_c, 0, 57, 0
1, 339271, Note_on_c, 0, 59, 0
1, 339356, Note_on_c, 0, 90, 103
1, 339356, Note_on_c, 0, 78, 106
1, 339359, Note_on_c, 0, 66, 84
1, 339369, Note_on_c, 0, 57, 57
1, 339369, Note_on_c, 0, 59, 39
1, 339375, Note_on_c, 0, 62, 71
1, 339414, Note_on_c, 0, 62, 0
1, 339420, Note_on_c, 0, 57, 0
1, 339420, Note_on_c, 0, 59, 0
1, 339444, Note_on_c, 0, 66, 0
1, 339486, Note_on_c, 0, 66, 83
1, 339498, Note_on_c, 0, 62, 57
1, 339498, Note_on_c, 0, 59, 53
1, 339498, Note_on_c, 0, 57, 45
1, 339539, Note_on_c, 0, 78, 0
1, 339547, Note_on_c, 0, 57, 0
1, 339553, Note_on_c, 0, 62, 0
1, 339559, Note_on_c, 0, 59, 0
1, 339559, Note_on_c, 0, 90, 0
1, 339575, Note_on_c, 0, 66, 0
1, 339626, Note_on_c, 0, 65, 84
1, 339626, Note_on_c, 0, 89, 95
1, 339626, Note_on_c, 0, 62, 69
1, 339629, Note_on_c, 0, 59, 66
1, 339629, Note_on_c, 0, 77, 100
1, 339640, Note_on_c, 0, 57, 51
1, 339653, Note_on_c, 0, 65, 0
1, 339665, Note_on_c, 0, 62, 0
1, 339675, Note_on_c, 0, 89, 0
1, 339675, Note_on_c, 0, 59, 0
1, 339690, Note_on_c, 0, 57, 0
1, 339701, Note_on_c, 0, 77, 0
1, 339821, Control_c, 0, 64, 0
1, 339839, Note_on_c, 0, 40, 118
1, 339839, Note_on_c, 0, 52, 115
1, 339859, Note_on_c, 0, 40, 0
1, 339896, Note_on_c, 0, 52, 0
1, 339941, Control_c, 0, 64, 127
1, 339951, Note_on_c, 0, 68, 86
1, 339955, Note_on_c, 0, 80, 92
1, 339984, Note_on_c, 0, 68, 0
1, 339988, Note_on_c, 0, 80, 0
1, 340080, Note_on_c, 0, 65, 81
1, 340080, Note_on_c, 0, 56, 70
1, 340091, Note_on_c, 0, 62, 64
1, 340091, Note_on_c, 0, 59, 59
1, 340091, Note_on_c, 0, 83, 100
1, 340104, Note_on_c, 0, 71, 48
1, 340115, Note_on_c, 0, 65, 0
1, 340115, Note_on_c, 0, 83, 0
1, 340127, Note_on_c, 0, 56, 0
1, 340127, Note_on_c, 0, 62, 0
1, 340127, Note_on_c, 0, 59, 0
1, 340154, Note_on_c, 0, 71, 0
1, 340227, Note_on_c, 0, 65, 96
1, 340230, Note_on_c, 0, 56, 76
1, 340233, Note_on_c, 0, 89, 112
1, 340233, Note_on_c, 0, 77, 111
1, 340243, Note_on_c, 0, 59, 71
1, 340246, Note_on_c, 0, 62, 78
1, 340275, Note_on_c, 0, 56, 0
1, 340275, Note_on_c, 0, 59, 0
1, 340282, Note_on_c, 0, 62, 0
1, 340292, Note_on_c, 0, 65, 0
1, 340347, Note_on_c, 0, 65, 87
1, 340353, Note_on_c, 0, 56, 68
1, 340363, Note_on_c, 0, 59, 51
1, 340363, Note_on_c, 0, 62, 49
1, 340408, Note_on_c, 0, 77, 0
1, 340408, Note_on_c, 0, 59, 0
1, 340414, Note_on_c, 0, 56, 0
1, 340414, Note_on_c, 0, 89, 0
1, 340419, Note_on_c, 0, 62, 0
1, 340419, Note_on_c, 0, 65, 0
1, 340489, Note_on_c, 0, 64, 92
1, 340492, Note_on_c, 0, 88, 92
1, 340497, Note_on_c, 0, 76, 94
1, 340497, Note_on_c, 0, 59, 60
1, 340497, Note_on_c, 0, 62, 52
1, 340505, Note_on_c, 0, 56, 54
1, 340520, Note_on_c, 0, 64, 0
1, 340532, Note_on_c, 0, 62, 0
1, 340542, Note_on_c, 0, 59, 0
1, 340573, Note_on_c, 0, 88, 0
1, 340581, Note_on_c, 0, 76, 0
1, 340589, Note_on_c, 0, 56, 0
1, 340707, Control_c, 0, 64, 0
1, 340711, Note_on_c, 0, 46, 103
1, 340714, Note_on_c, 0, 34, 106
1, 340828, Note_on_c, 0, 34, 0
1, 340840, Note_on_c, 0, 46, 0
1, 340840, Control_c, 0, 64, 127
1, 340851, Note_on_c, 0, 79, 98
1, 340851, Note_on_c, 0, 67, 83
1, 340877, Note_on_c, 0, 79, 0
1, 340884, Note_on_c, 0, 67, 0
1, 340973, Note_on_c, 0, 70, 82
1, 340973, Note_on_c, 0, 55, 83
1, 340973, Note_on_c, 0, 65, 93
1, 340973, Note_on_c, 0, 82, 92
1, 340982, Note_on_c, 0, 58, 52
1, 340982, Note_on_c, 0, 61, 64
1, 341001, Note_on_c, 0, 70, 0
1, 341001, Note_on_c, 0, 65, 0
1, 341009, Note_on_c, 0, 55, 0
1, 341021, Note_on_c, 0, 61, 0
1, 341021, Note_on_c, 0, 82, 0
1, 341024, Note_on_c, 0, 58, 0
1, 341110, Note_on_c, 0, 65, 94
1, 341110, Note_on_c, 0, 89, 110
1, 341116, Note_on_c, 0, 77, 99
1, 341124, Note_on_c, 0, 55, 74
1, 341124, Note_on_c, 0, 58, 45
1, 341124, Note_on_c, 0, 61, 66
1, 341154, Note_on_c, 0, 65, 0
1, 341161, Note_on_c, 0, 55, 0
1, 341164, Note_on_c, 0, 61, 0
1, 341172, Note_on_c, 0, 58, 0
1, 341232, Note_on_c, 0, 65, 74
1, 341232, Note_on_c, 0, 55, 61
1, 341238, Note_on_c, 0, 58, 38
1, 341246, Note_on_c, 0, 61, 46
1, 341271, Note_on_c, 0, 65, 0
1, 341277, Note_on_c, 0, 89, 0
1, 341277, Note_on_c, 0, 55, 0
1, 341277, Note_on_c, 0, 77, 0
1, 341289, Note_on_c, 0, 61, 0
1, 341294, Note_on_c, 0, 58, 0
1, 341347, Note_on_c, 0, 58, 60
1, 341347, Note_on_c, 0, 64, 100
1, 341353, Note_on_c, 0, 88, 92
1, 341353, Note_on_c, 0, 76, 96
1, 341356, Note_on_c, 0, 55, 57
1, 341381, Note_on_c, 0, 88, 0
1, 341386, Note_on_c, 0, 64, 0
1, 341392, Note_on_c, 0, 55, 0
1, 341402, Note_on_c, 0, 76, 0
1, 341428, Note_on_c, 0, 58, 0
1, 341472, Note_on_c, 0, 87, 88
1, 341472, Note_on_c, 0, 75, 97
1, 341477, Note_on_c, 0, 58, 58
1, 341477, Note_on_c, 0, 63, 90
1, 341481, Note_on_c, 0, 55, 51
1, 341508, Note_on_c, 0, 63, 0
1, 341517, Note_on_c, 0, 55, 0
1, 341522, Note_on_c, 0, 58, 0
1, 341551, Note_on_c, 0, 87, 0
1, 341551, Note_on_c, 0, 75, 0
1, 341576, Note_on_c, 0, 55, 64
1, 341579, Note_on_c, 0, 58, 55
1, 341586, Note_on_c, 0, 86, 100
1, 341586, Note_on_c, 0, 62, 63
1, 341586, Note_on_c, 0, 74, 100
1, 341606, Note_on_c, 0, 60, 52
1, 341617, Note_on_c, 0, 86, 0
1, 341620, Note_on_c, 0, 55, 0
1, 341620, Note_on_c, 0, 74, 0
1, 341620, Note_on_c, 0, 62, 0
1, 341642, Note_on_c, 0, 58, 0
1, 341653, Note_on_c, 0, 60, 0
1, 341700, Note_on_c, 0, 73, 99
1, 341703, Note_on_c, 0, 85, 99
1, 341706, Note_on_c, 0, 61, 92
1, 341714, Note_on_c, 0, 58, 41
1, 341720, Note_on_c, 0, 55, 48
1, 341734, Note_on_c, 0, 61, 0
1, 341756, Note_on_c, 0, 58, 0
1, 341756, Note_on_c, 0, 55, 0
1, 341765, Note_on_c, 0, 85, 0
1, 341776, Note_on_c, 0, 73, 0
1, 341837, Note_on_c, 0, 85, 81
1, 341837, Note_on_c, 0, 89, 111
1, 341837, Note_on_c, 0, 77, 115
1, 341843, Note_on_c, 0, 82, 90
1, 341848, Note_on_c, 0, 65, 104
1, 341848, Note_on_c, 0, 55, 76
1, 341852, Note_on_c, 0, 58, 69
1, 341855, Note_on_c, 0, 61, 73
1, 341896, Note_on_c, 0, 61, 0
1, 341924, Note_on_c, 0, 65, 0
1, 341945, Note_on_c, 0, 55, 0
1, 341973, Note_on_c, 0, 58, 0
1, 341977, Note_on_c, 0, 89, 0
1, 341980, Note_on_c, 0, 77, 0
1, 342004, Note_on_c, 0, 82, 0
1, 342049, Note_on_c, 0, 64, 85
1, 342049, Note_on_c, 0, 58, 45
1, 342057, Note_on_c, 0, 85, 0
1, 342057, Note_on_c, 0, 61, 65
1, 342062, Note_on_c, 0, 88, 91
1, 342062, Note_on_c, 0, 76, 97
1, 342062, Note_on_c, 0, 55, 64
1, 342076, Note_on_c, 0, 64, 0
1, 342088, Note_on_c, 0, 88, 0
1, 342093, Note_on_c, 0, 58, 0
1, 342093, Note_on_c, 0, 61, 0
1, 342100, Note_on_c, 0, 55, 0
1, 342135, Note_on_c, 0, 76, 0
1, 342171, Control_c, 0, 64, 0
1, 342202, Note_on_c, 0, 46, 111
1, 342207, Note_on_c, 0, 34, 104
1, 342225, Note_on_c, 0, 34, 0
1, 342267, Note_on_c, 0, 46, 0
1, 342302, Control_c, 0, 64, 127
1, 342313, Note_on_c, 0, 79, 97
1, 342313, Note_on_c, 0, 67, 89
1, 342339, Note_on_c, 0, 79, 0
1, 342349, Note_on_c, 0, 67, 0
1, 342428, Note_on_c, 0, 70, 84
1, 342428, Note_on_c, 0, 82, 93
1, 342436, Note_on_c, 0, 65, 93
1, 342436, Note_on_c, 0, 58, 55
1, 342444, Note_on_c, 0, 55, 51
1, 342448, Note_on_c, 0, 61, 54
1, 342462, Note_on_c, 0, 70, 0
1, 342467, Note_on_c, 0, 65, 0
1, 342484, Note_on_c, 0, 82, 0
1, 342487, Note_on_c, 0, 61, 0
1, 342492, Note_on_c, 0, 58, 0
1, 342492, Note_on_c, 0, 55, 0
1, 342562, Note_on_c, 0, 89, 111
1, 342567, Note_on_c, 0, 65, 96
1, 342567, Note_on_c, 0, 77, 96
1, 342567, Note_on_c, 0, 55, 59
1, 342570, Note_on_c, 0, 58, 57
1, 342573, Note_on_c, 0, 61, 65
1, 342618, Note_on_c, 0, 61, 0
1, 342618, Note_on_c, 0, 55, 0
1, 342632, Note_on_c, 0, 65, 0
1, 342637, Note_on_c, 0, 58, 0
1, 342682, Note_on_c, 0, 65, 86
1, 342690, Note_on_c, 0, 55, 63
1, 342690, Note_on_c, 0, 58, 49
1, 342696, Note_on_c, 0, 61, 61
1, 342710, Note_on_c, 0, 77, 0
1, 342715, Note_on_c, 0, 89, 0
1, 342737, Note_on_c, 0, 55, 0
1, 342751, Note_on_c, 0, 58, 0
1, 342751, Note_on_c, 0, 61, 0
1, 342771, Note_on_c, 0, 65, 0
1, 342798, Note_on_c, 0, 64, 97
1, 342798, Note_on_c, 0, 58, 62
1, 342798, Note_on_c, 0, 88, 95
1, 342803, Note_on_c, 0, 55, 64
1, 342806, Note_on_c, 0, 76, 95
1, 342831, Note_on_c, 0, 88, 0
1, 342837, Note_on_c, 0, 55, 0
1, 342845, Note_on_c, 0, 76, 0
1, 342849, Note_on_c, 0, 64, 0
1, 342873, Note_on_c, 0, 58, 0
1, 342913, Note_on_c, 0, 63, 103
1, 342918, Note_on_c, 0, 87, 88
1, 342918, Note_on_c, 0, 55, 56
1, 342918, Note_on_c, 0, 75, 94
1, 342926, Note_on_c, 0, 58, 45
1, 342948, Note_on_c, 0, 63, 0
1, 342958, Note_on_c, 0, 55, 0
1, 342968, Note_on_c, 0, 58, 0
1, 342985, Note_on_c, 0, 87, 0
1, 343001, Note_on_c, 0, 75, 0
1, 343022, Note_on_c, 0, 86, 102
1, 343026, Note_on_c, 0, 62, 96
1, 343026, Note_on_c, 0, 55, 63
1, 343026, Note_on_c, 0, 74, 99
1, 343030, Note_on_c, 0, 58, 47
1, 343061, Note_on_c, 0, 62, 0
1, 343069, Note_on_c, 0, 55, 0
1, 343069, Note_on_c, 0, 74, 0
1, 343072, Note_on_c, 0, 86, 0
1, 343083, Note_on_c, 0, 58, 0
1, 343144, Note_on_c, 0, 73, 94
1, 343144, Note_on_c, 0, 85, 96
1, 343152, Note_on_c, 0, 61, 90
1, 343155, Note_on_c, 0, 55, 67
1, 343163, Note_on_c, 0, 58, 28
1, 343197, Note_on_c, 0, 55, 0
1, 343197, Note_on_c, 0, 61, 0
1, 343200, Note_on_c, 0, 73, 0
1, 343214, Note_on_c, 0, 85, 0
1, 343214, Note_on_c, 0, 58, 0
1, 343306, Note_on_c, 0, 89, 109
1, 343306, Note_on_c, 0, 85, 87
1, 343309, Note_on_c, 0, 77, 108
1, 343309, Note_on_c, 0, 82, 81
1, 343314, Note_on_c, 0, 55, 85
1, 343317, Note_on_c, 0, 65, 96
1, 343323, Note_on_c, 0, 61, 29
1, 343323, Note_on_c, 0, 58, 58
1, 343358, Control_c, 0, 64, 0
1, 343441, Control_c, 0, 64, 127
1, 343448, Note_on_c, 0, 61, 0
1, 343453, Note_on_c, 0, 65, 0
1, 343462, Note_on_c, 0, 82, 0
1, 343478, Note_on_c, 0, 89, 0
1, 343481, Note_on_c, 0, 55, 0
1, 343486, Note_on_c, 0, 77, 0
1, 343525, Note_on_c, 0, 85, 0
1, 343539, Note_on_c, 0, 58, 0
1, 343556, Note_on_c, 0, 64, 74
1, 343567, Note_on_c, 0, 88, 69
1, 343572, Note_on_c, 0, 76, 61
1, 343587, Note_on_c, 0, 64, 0
1, 343600, Note_on_c, 0, 88, 0
1, 343606, Note_on_c, 0, 76, 0
1, 343645, Control_c, 0, 64, 0
1, 343693, Note_on_c, 0, 49, 86
1, 343696, Note_on_c, 0, 89, 78
1, 343704, Note_on_c, 0, 77, 59
1, 343726, Note_on_c, 0, 49, 0
1, 343726, Note_on_c, 0, 89, 0
1, 343738, Note_on_c, 0, 77, 0
1, 343793, Note_on_c, 0, 65, 75
1, 343798, Note_on_c, 0, 58, 61
1, 343798, Note_on_c, 0, 73, 73
1, 343801, Note_on_c, 0, 85, 62
1, 343812, Note_on_c, 0, 82, 47
1, 343824, Note_on_c, 0, 65, 0
1, 343835, Note_on_c, 0, 73, 0
1, 343835, Note_on_c, 0, 85, 0
1, 343838, Note_on_c, 0, 58, 0
1, 343851, Note_on_c, 0, 82, 0
1, 343898, Note_on_c, 0, 85, 46
1, 343898, Note_on_c, 0, 73, 61
1, 343902, Note_on_c, 0, 65, 51
1, 343905, Note_on_c, 0, 82, 44
1, 343916, Note_on_c, 0, 61, 68
1, 343934, Note_on_c, 0, 73, 0
1, 343934, Note_on_c, 0, 65, 0
1, 343938, Note_on_c, 0, 85, 0
1, 343946, Note_on_c, 0, 82, 0
1, 343949, Note_on_c, 0, 61, 0
1, 344016, Note_on_c, 0, 49, 87
1, 344021, Note_on_c, 0, 89, 94
1, 344030, Note_on_c, 0, 77, 72
1, 344044, Note_on_c, 0, 49, 0
1, 344047, Note_on_c, 0, 89, 0
1, 344061, Note_on_c, 0, 77, 0
1, 344124, Note_on_c, 0, 64, 59
1, 344128, Note_on_c, 0, 76, 79
1, 344128, Note_on_c, 0, 88, 81
1, 344132, Note_on_c, 0, 82, 72
1, 344132, Note_on_c, 0, 55, 48
1, 344161, Note_on_c, 0, 64, 0
1, 344161, Note_on_c, 0, 76, 0
1, 344166, Note_on_c, 0, 82, 0
1, 344169, Note_on_c, 0, 88, 0
1, 344191, Note_on_c, 0, 55, 0
1, 344233, Note_on_c, 0, 64, 55
1, 344239, Note_on_c, 0, 88, 78
1, 344245, Note_on_c, 0, 76, 47
1, 344245, Note_on_c, 0, 58, 62
1, 344270, Note_on_c, 0, 64, 0
1, 344275, Note_on_c, 0, 88, 0
1, 344278, Note_on_c, 0, 77, 17
1, 344285, Note_on_c, 0, 58, 0
1, 344285, Note_on_c, 0, 76, 0
1, 344319, Note_on_c, 0, 77, 0
1, 344361, Note_on_c, 0, 77, 87
1, 344361, Note_on_c, 0, 89, 78
1, 344361, Note_on_c, 0, 49, 68
1, 344386, Note_on_c, 0, 77, 0
1, 344391, Note_on_c, 0, 89, 0
1, 344394, Note_on_c, 0, 49, 0
1, 344458, Note_on_c, 0, 65, 68
1, 344462, Note_on_c, 0, 85, 62
1, 344470, Note_on_c, 0, 82, 55
1, 344470, Note_on_c, 0, 73, 52
1, 344483, Note_on_c, 0, 58, 13
1, 344494, Note_on_c, 0, 65, 0
1, 344497, Note_on_c, 0, 85, 0
1, 344504, Note_on_c, 0, 82, 0
1, 344509, Note_on_c, 0, 73, 0
1, 344528, Note_on_c, 0, 58, 0
1, 344554, Note_on_c, 0, 73, 65
1, 344554, Note_on_c, 0, 85, 53
1, 344564, Note_on_c, 0, 82, 39
1, 344564, Note_on_c, 0, 65, 49
1, 344570, Note_on_c, 0, 61, 68
1, 344590, Note_on_c, 0, 73, 0
1, 344596, Note_on_c, 0, 85, 0
1, 344600, Note_on_c, 0, 65, 0
1, 344603, Note_on_c, 0, 82, 0
1, 344603, Note_on_c, 0, 61, 0
1, 344676, Note_on_c, 0, 49, 88
1, 344685, Note_on_c, 0, 89, 77
1, 344703, Note_on_c, 0, 77, 38
1, 344703, Note_on_c, 0, 49, 0
1, 344715, Note_on_c, 0, 89, 0
1, 344748, Note_on_c, 0, 77, 0
1, 344773, Note_on_c, 0, 64, 73
1, 344788, Note_on_c, 0, 55, 57
1, 344788, Note_on_c, 0, 88, 73
1, 344793, Note_on_c, 0, 82, 66
1, 344793, Note_on_c, 0, 76, 53
1, 344807, Note_on_c, 0, 64, 0
1, 344823, Note_on_c, 0, 88, 0
1, 344826, Note_on_c, 0, 82, 0
1, 344832, Note_on_c, 0, 55, 0
1, 344832, Note_on_c, 0, 76, 0
1, 344885, Note_on_c, 0, 88, 48
1, 344888, Note_on_c, 0, 76, 55
1, 344902, Note_on_c, 0, 64, 59
1, 344905, Note_on_c, 0, 58, 64
1, 344916, Note_on_c, 0, 88, 0
1, 344924, Note_on_c, 0, 76, 0
1, 344941, Note_on_c, 0, 64, 0
1, 344944, Note_on_c, 0, 58, 0
1, 345004, Note_on_c, 0, 92, 94
1, 345004, Note_on_c, 0, 52, 90
1, 345008, Note_on_c, 0, 80, 92
1, 345029, Note_on_c, 0, 92, 0
1, 345029, Note_on_c, 0, 52, 0
1, 345035, Control_c, 0, 64, 127
1, 345040, Note_on_c, 0, 80, 0
1, 345083, Control_c, 0, 64, 0
1, 345111, Note_on_c, 0, 68, 86
1, 345122, Note_on_c, 0, 85, 79
1, 345127, Note_on_c, 0, 76, 75
1, 345127, Note_on_c, 0, 61, 57
1, 345127, Note_on_c, 0, 88, 69
1, 345139, Note_on_c, 0, 68, 0
1, 345152, Note_on_c, 0, 85, 0
1, 345157, Note_on_c, 0, 76, 0
1, 345160, Note_on_c, 0, 88, 0
1, 345167, Note_on_c, 0, 61, 0
1, 345214, Note_on_c, 0, 88, 52
1, 345214, Note_on_c, 0, 76, 45
1, 345214, Note_on_c, 0, 68, 46
1, 345222, Note_on_c, 0, 64, 83
1, 345222, Note_on_c, 0, 85, 48
1, 345249, Note_on_c, 0, 88, 0
1, 345249, Note_on_c, 0, 64, 0
1, 345249, Note_on_c, 0, 68, 0
1, 345255, Note_on_c, 0, 76, 0
1, 345255, Note_on_c, 0, 85, 0
1, 345327, Note_on_c, 0, 92, 94
1, 345333, Note_on_c, 0, 80, 84
1, 345333, Note_on_c, 0, 52, 94
1, 345359, Note_on_c, 0, 52, 0
1, 345370, Note_on_c, 0, 80, 0
1, 345370, Control_c, 0, 64, 127
1, 345395, Note_on_c, 0, 92, 0
1, 345419, Control_c, 0, 64, 0
1, 345426, Note_on_c, 0, 67, 82
1, 345431, Note_on_c, 0, 58, 65
1, 345444, Note_on_c, 0, 85, 73
1, 345444, Note_on_c, 0, 91, 79
1, 345444, Note_on_c, 0, 79, 79
1, 345464, Note_on_c, 0, 67, 0
1, 345475, Note_on_c, 0, 85, 0
1, 345475, Note_on_c, 0, 91, 0
1, 345475, Note_on_c, 0, 79, 0
1, 345500, Note_on_c, 0, 58, 0
1, 345540, Note_on_c, 0, 79, 71
1, 345543, Note_on_c, 0, 91, 58
1, 345557, Note_on_c, 0, 67, 68
1, 345564, Note_on_c, 0, 61, 73
1, 345575, Note_on_c, 0, 79, 0
1, 345575, Note_on_c, 0, 91, 0
1, 345590, Note_on_c, 0, 67, 0
1, 345598, Note_on_c, 0, 61, 0
1, 345656, Note_on_c, 0, 92, 83
1, 345660, Note_on_c, 0, 52, 91
1, 345660, Note_on_c, 0, 80, 82
1, 345682, Note_on_c, 0, 92, 0
1, 345685, Note_on_c, 0, 52, 0
1, 345693, Note_on_c, 0, 80, 0
1, 345693, Control_c, 0, 64, 127
1, 345757, Note_on_c, 0, 68, 83
1, 345763, Note_on_c, 0, 76, 81
1, 345766, Control_c, 0, 64, 0
1, 345770, Note_on_c, 0, 88, 69
1, 345770, Note_on_c, 0, 85, 62
1, 345770, Note_on_c, 0, 61, 54
1, 345791, Note_on_c, 0, 68, 0
1, 345791, Note_on_c, 0, 76, 0
1, 345801, Note_on_c, 0, 88, 0
1, 345801, Note_on_c, 0, 85, 0
1, 345816, Note_on_c, 0, 61, 0
1, 345852, Note_on_c, 0, 88, 67
1, 345855, Note_on_c, 0, 76, 42
1, 345855, Note_on_c, 0, 68, 52
1, 345859, Note_on_c, 0, 85, 51
1, 345869, Note_on_c, 0, 64, 77
1, 345891, Note_on_c, 0, 88, 0
1, 345891, Note_on_c, 0, 76, 0
1, 345896, Note_on_c, 0, 85, 0
1, 345896, Note_on_c, 0, 64, 0
1, 345896, Note_on_c, 0, 68, 0
1, 345971, Note_on_c, 0, 92, 97
1, 345974, Note_on_c, 0, 80, 95
1, 345979, Note_on_c, 0, 52, 100
1, 346002, Note_on_c, 0, 52, 0
1, 346018, Control_c, 0, 64, 127
1, 346018, Note_on_c, 0, 80, 0
1, 346050, Note_on_c, 0, 92, 0
1, 346074, Note_on_c, 0, 67, 81
1, 346074, Note_on_c, 0, 58, 62
1, 346086, Note_on_c, 0, 91, 85
1, 346089, Note_on_c, 0, 79, 84
1, 346089, Control_c, 0, 64, 0
1, 346089, Note_on_c, 0, 85, 68
1, 346108, Note_on_c, 0, 67, 0
1, 346116, Note_on_c, 0, 91, 0
1, 346119, Note_on_c, 0, 58, 0
1, 346119, Note_on_c, 0, 79, 0
1, 346124, Note_on_c, 0, 85, 0
1, 346177, Note_on_c, 0, 79, 74
1, 346177, Note_on_c, 0, 91, 70
1, 346183, Note_on_c, 0, 67, 60
1, 346183, Note_on_c, 0, 85, 55
1, 346195, Note_on_c, 0, 61, 76
1, 346210, Note_on_c, 0, 91, 0
1, 346213, Note_on_c, 0, 79, 0
1, 346217, Note_on_c, 0, 85, 0
1, 346236, Note_on_c, 0, 67, 0
1, 346236, Note_on_c, 0, 61, 0
1, 346298, Note_on_c, 0, 55, 89
1, 346303, Note_on_c, 0, 83, 111
1, 346306, Note_on_c, 0, 95, 88
1, 346325, Note_on_c, 0, 55, 0
1, 346325, Note_on_c, 0, 83, 0
1, 346330, Control_c, 0, 64, 127
1, 346330, Note_on_c, 0, 95, 0
1, 346398, Note_on_c, 0, 71, 82
1, 346398, Note_on_c, 0, 64, 79
1, 346403, Note_on_c, 0, 79, 101
1, 346412, Note_on_c, 0, 91, 51
1, 346412, Control_c, 0, 64, 0
1, 346419, Note_on_c, 0, 88, 53
1, 346429, Note_on_c, 0, 79, 0
1, 346433, Note_on_c, 0, 71, 0
1, 346437, Note_on_c, 0, 64, 0
1, 346459, Note_on_c, 0, 91, 0
1, 346459, Note_on_c, 0, 88, 0
1, 346498, Note_on_c, 0, 91, 89
1, 346506, Note_on_c, 0, 88, 74
1, 346506, Note_on_c, 0, 79, 52
1, 346512, Note_on_c, 0, 71, 57
1, 346515, Note_on_c, 0, 67, 77
1, 346532, Note_on_c, 0, 88, 0
1, 346537, Note_on_c, 0, 91, 0
1, 346545, Note_on_c, 0, 79, 0
1, 346545, Note_on_c, 0, 67, 0
1, 346554, Note_on_c, 0, 71, 0
1, 346615, Note_on_c, 0, 83, 106
1, 346615, Note_on_c, 0, 95, 98
1, 346618, Note_on_c, 0, 55, 98
1, 346639, Note_on_c, 0, 95, 0
1, 346642, Note_on_c, 0, 83, 0
1, 346642, Note_on_c, 0, 55, 0
1, 346642, Control_c, 0, 64, 127
1, 346712, Note_on_c, 0, 94, 85
1, 346712, Note_on_c, 0, 70, 86
1, 346712, Note_on_c, 0, 82, 90
1, 346721, Note_on_c, 0, 61, 67
1, 346724, Control_c, 0, 64, 0
1, 346731, Note_on_c, 0, 88, 65
1, 346746, Note_on_c, 0, 82, 0
1, 346752, Note_on_c, 0, 70, 0
1, 346760, Note_on_c, 0, 61, 0
1, 346763, Note_on_c, 0, 88, 0
1, 346785, Note_on_c, 0, 94, 0
1, 346821, Note_on_c, 0, 82, 73
1, 346821, Note_on_c, 0, 94, 91
1, 346824, Note_on_c, 0, 88, 49
1, 346829, Note_on_c, 0, 70, 54
1, 346829, Note_on_c, 0, 64, 80
1, 346854, Note_on_c, 0, 82, 0
1, 346854, Note_on_c, 0, 94, 0
1, 346859, Note_on_c, 0, 88, 0
1, 346868, Note_on_c, 0, 64, 0
1, 346887, Note_on_c, 0, 70, 0
1, 346912, Note_on_c, 0, 58, 87
1, 346936, Note_on_c, 0, 86, 90
1, 346936, Note_on_c, 0, 98, 97
1, 346952, Control_c, 0, 64, 127
1, 346961, Note_on_c, 0, 58, 0
1, 346961, Note_on_c, 0, 86, 0
1, 346961, Note_on_c, 0, 98, 0
1, 347027, Note_on_c, 0, 74, 92
1, 347036, Note_on_c, 0, 67, 77
1, 347039, Note_on_c, 0, 82, 90
1, 347044, Note_on_c, 0, 91, 84
1, 347044, Note_on_c, 0, 94, 56
1, 347057, Note_on_c, 0, 74, 0
1, 347068, Note_on_c, 0, 82, 0
1, 347071, Note_on_c, 0, 67, 0
1, 347071, Control_c, 0, 64, 0
1, 347077, Note_on_c, 0, 91, 0
1, 347082, Note_on_c, 0, 94, 0
1, 347124, Note_on_c, 0, 82, 67
1, 347124, Note_on_c, 0, 94, 64
1, 347127, Note_on_c, 0, 91, 71
1, 347131, Note_on_c, 0, 74, 75
1, 347138, Note_on_c, 0, 70, 84
1, 347161, Note_on_c, 0, 82, 0
1, 347161, Note_on_c, 0, 91, 0
1, 347166, Note_on_c, 0, 94, 0
1, 347166, Note_on_c, 0, 74, 0
1, 347170, Note_on_c, 0, 70, 0
1, 347247, Note_on_c, 0, 58, 84
1, 347258, Note_on_c, 0, 86, 63
1, 347275, Note_on_c, 0, 58, 0
1, 347275, Control_c, 0, 64, 127
1, 347294, Note_on_c, 0, 86, 0
1, 347334, Note_on_c, 0, 85, 79
1, 347344, Note_on_c, 0, 73, 59
1, 347358, Note_on_c, 0, 97, 28
1, 347367, Note_on_c, 0, 91, 49
1, 347378, Note_on_c, 0, 85, 0
1, 347378, Note_on_c, 0, 73, 0
1, 347384, Control_c, 0, 64, 0
1, 347411, Note_on_c, 0, 91, 0
1, 347411, Note_on_c, 0, 97, 0
1, 347428, Note_on_c, 0, 73, 64
1, 347434, Note_on_c, 0, 64, 73
1, 347437, Note_on_c, 0, 85, 75
1, 347450, Note_on_c, 0, 91, 68
1, 347450, Note_on_c, 0, 97, 58
1, 347467, Note_on_c, 0, 64, 0
1, 347467, Note_on_c, 0, 85, 0
1, 347479, Note_on_c, 0, 91, 0
1, 347479, Note_on_c, 0, 97, 0
1, 347501, Note_on_c, 0, 73, 0
1, 347557, Note_on_c, 0, 101, 85
1, 347557, Note_on_c, 0, 61, 88
1, 347557, Note_on_c, 0, 89, 79
1, 347582, Note_on_c, 0, 101, 0
1, 347582, Note_on_c, 0, 61, 0
1, 347587, Control_c, 0, 64, 127
1, 347587, Note_on_c, 0, 89, 0
1, 347665, Note_on_c, 0, 70, 55
1, 347665, Note_on_c, 0, 97, 68
1, 347665, Note_on_c, 0, 77, 61
1, 347673, Note_on_c, 0, 85, 86
1, 347673, Note_on_c, 0, 94, 67
1, 347696, Note_on_c, 0, 97, 0
1, 347699, Note_on_c, 0, 77, 0
1, 347704, Note_on_c, 0, 70, 0
1, 347704, Note_on_c, 0, 94, 0
1, 347709, Note_on_c, 0, 85, 0
1, 347755, Note_on_c, 0, 97, 55
1, 347759, Note_on_c, 0, 77, 60
1, 347759, Note_on_c, 0, 94, 51
1, 347759, Note_on_c, 0, 85, 74
1, 347768, Control_c, 0, 64, 0
1, 347773, Note_on_c, 0, 73, 73
1, 347787, Note_on_c, 0, 85, 0
1, 347793, Note_on_c, 0, 97, 0
1, 347793, Note_on_c, 0, 77, 0
1, 347805, Note_on_c, 0, 73, 0
1, 347829, Note_on_c, 0, 94, 0
1, 347868, Note_on_c, 0, 101, 98
1, 347868, Note_on_c, 0, 61, 91
1, 347872, Note_on_c, 0, 89, 75
1, 347893, Note_on_c, 0, 101, 0
1, 347893, Note_on_c, 0, 61, 0
1, 347905, Note_on_c, 0, 89, 0
1, 347912, Control_c, 0, 64, 127
1, 347969, Note_on_c, 0, 88, 92
1, 347969, Note_on_c, 0, 100, 92
1, 347975, Note_on_c, 0, 94, 72
1, 347979, Note_on_c, 0, 76, 54
1, 347989, Note_on_c, 0, 67, 42
1, 347997, Note_on_c, 0, 100, 0
1, 347997, Note_on_c, 0, 88, 0
1, 348004, Note_on_c, 0, 94, 0
1, 348013, Note_on_c, 0, 76, 0
1, 348055, Control_c, 0, 64, 0
1, 348058, Note_on_c, 0, 76, 78
1, 348069, Note_on_c, 0, 100, 88
1, 348069, Note_on_c, 0, 88, 65
1, 348082, Note_on_c, 0, 70, 50
1, 348103, Note_on_c, 0, 76, 0
1, 348113, Note_on_c, 0, 88, 0
1, 348116, Note_on_c, 0, 100, 0
1, 348119, Note_on_c, 0, 70, 0
1, 348135, Note_on_c, 0, 67, 0
1, 348175, Note_on_c, 0, 101, 92
1, 348175, Note_on_c, 0, 89, 83
1, 348186, Note_on_c, 0, 61, 84
1, 348199, Note_on_c, 0, 101, 0
1, 348205, Note_on_c, 0, 89, 0
1, 348213, Note_on_c, 0, 61, 0
1, 348223, Control_c, 0, 64, 127
1, 348280, Note_on_c, 0, 77, 64
1, 348280, Note_on_c, 0, 73, 81
1, 348284, Note_on_c, 0, 70, 47
1, 348287, Note_on_c, 0, 97, 64
1, 348287, Note_on_c, 0, 85, 77
1, 348300, Note_on_c, 0, 94, 44
1, 348312, Note_on_c, 0, 77, 0
1, 348317, Note_on_c, 0, 97, 0
1, 348317, Note_on_c, 0, 85, 0
1, 348328, Note_on_c, 0, 70, 0
1, 348337, Note_on_c, 0, 73, 0
1, 348340, Note_on_c, 0, 94, 0
1, 348364, Note_on_c, 0, 77, 69
1, 348369, Note_on_c, 0, 97, 68
1, 348369, Note_on_c, 0, 73, 81
1, 348369, Note_on_c, 0, 85, 60
1, 348381, Note_on_c, 0, 94, 72
1, 348390, Note_on_c, 0, 70, 20
1, 348390, Control_c, 0, 64, 0
1, 348397, Note_on_c, 0, 77, 0
1, 348411, Note_on_c, 0, 94, 0
1, 348423, Note_on_c, 0, 73, 0
1, 348423, Note_on_c, 0, 85, 0
1, 348429, Note_on_c, 0, 97, 0
1, 348442, Note_on_c, 0, 70, 0
1, 348482, Note_on_c, 0, 61, 95
1, 348487, Note_on_c, 0, 101, 95
1, 348487, Note_on_c, 0, 89, 85
1, 348507, Note_on_c, 0, 61, 0
1, 348510, Note_on_c, 0, 101, 0
1, 348517, Note_on_c, 0, 89, 0
1, 348523, Control_c, 0, 64, 127
1, 348581, Note_on_c, 0, 76, 61
1, 348581, Note_on_c, 0, 88, 89
1, 348581, Note_on_c, 0, 67, 74
1, 348585, Note_on_c, 0, 70, 51
1, 348589, Note_on_c, 0, 100, 76
1, 348589, Note_on_c, 0, 94, 70
1, 348610, Note_on_c, 0, 88, 0
1, 348615, Note_on_c, 0, 76, 0
1, 348615, Note_on_c, 0, 100, 0
1, 348615, Note_on_c, 0, 67, 0
1, 348620, Note_on_c, 0, 94, 0
1, 348624, Note_on_c, 0, 70, 0
1, 348660, Note_on_c, 0, 76, 68
1, 348672, Note_on_c, 0, 67, 58
1, 348672, Note_on_c, 0, 100, 70
1, 348677, Control_c, 0, 64, 0
1, 348677, Note_on_c, 0, 88, 55
1, 348684, Note_on_c, 0, 70, 34
1, 348698, Note_on_c, 0, 76, 0
1, 348718, Note_on_c, 0, 88, 0
1, 348727, Note_on_c, 0, 70, 0
1, 348727, Note_on_c, 0, 67, 0
1, 348745, Note_on_c, 0, 100, 0
1, 348787, Note_on_c, 0, 89, 87
1, 348787, Note_on_c, 0, 61, 90
1, 348787, Note_on_c, 0, 101, 94
1, 348810, Control_c, 0, 64, 127
1, 348810, Note_on_c, 0, 61, 0
1, 348810, Note_on_c, 0, 101, 0
1, 348818, Note_on_c, 0, 89, 0
1, 348818, Note_on_c, 0, 91, 26
1, 348868, Note_on_c, 0, 91, 0
1, 348880, Note_on_c, 0, 88, 97
1, 348886, Note_on_c, 0, 76, 68
1, 348886, Note_on_c, 0, 67, 74
1, 348886, Note_on_c, 0, 100, 84
1, 348891, Note_on_c, 0, 70, 47
1, 348899, Note_on_c, 0, 94, 53
1, 348907, Note_on_c, 0, 88, 0
1, 348913, Note_on_c, 0, 100, 0
1, 348921, Note_on_c, 0, 67, 0
1, 348924, Note_on_c, 0, 76, 0
1, 348936, Note_on_c, 0, 94, 0
1, 348939, Note_on_c, 0, 70, 0
1, 348975, Note_on_c, 0, 76, 70
1, 348978, Note_on_c, 0, 100, 70
1, 348983, Note_on_c, 0, 88, 70
1, 348983, Note_on_c, 0, 67, 74
1, 348986, Note_on_c, 0, 70, 56
1, 349007, Note_on_c, 0, 76, 0
1, 349013, Note_on_c, 0, 88, 0
1, 349016, Note_on_c, 0, 100, 0
1, 349016, Note_on_c, 0, 89, 19
1, 349016, Note_on_c, 0, 67, 0
1, 349022, Note_on_c, 0, 70, 0
1, 349027, Control_c, 0, 64, 0
1, 349060, Note_on_c, 0, 89, 0
1, 349085, Note_on_c, 0, 101, 102
1, 349085, Note_on_c, 0, 89, 95
1, 349085, Note_on_c, 0, 61, 90
1, 349099, Control_c, 0, 64, 127
1, 349110, Note_on_c, 0, 101, 0
1, 349113, Note_on_c, 0, 61, 0
1, 349116, Note_on_c, 0, 89, 0
1, 349177, Note_on_c, 0, 76, 78
1, 349183, Note_on_c, 0, 67, 74
1, 349183, Note_on_c, 0, 88, 94
1, 349186, Note_on_c, 0, 70, 51
1, 349189, Note_on_c, 0, 100, 87
1, 349192, Note_on_c, 0, 94, 69
1, 349206, Note_on_c, 0, 76, 0
1, 349211, Note_on_c, 0, 88, 0
1, 349211, Note_on_c, 0, 100, 0
1, 349217, Note_on_c, 0, 67, 0
1, 349222, Note_on_c, 0, 94, 0
1, 349225, Note_on_c, 0, 70, 0
1, 349270, Note_on_c, 0, 76, 45
1, 349273, Note_on_c, 0, 67, 58
1, 349284, Note_on_c, 0, 88, 78
1, 349284, Note_on_c, 0, 70, 34
1, 349287, Note_on_c, 0, 100, 79
1, 349306, Note_on_c, 0, 76, 0
1, 349317, Note_on_c, 0, 88, 0
1, 349320, Note_on_c, 0, 100, 0
1, 349328, Note_on_c, 0, 70, 0
1, 349328, Note_on_c, 0, 67, 0
1, 349393, Note_on_c, 0, 89, 107
1, 349396, Note_on_c, 0, 61, 93
1, 349396, Note_on_c, 0, 101, 100
1, 349420, Note_on_c, 0, 61, 0
1, 349424, Note_on_c, 0, 101, 0
1, 349439, Note_on_c, 0, 89, 0
1, 349496, Note_on_c, 0, 88, 97
1, 349496, Note_on_c, 0, 67, 81
1, 349500, Note_on_c, 0, 76, 68
1, 349500, Note_on_c, 0, 100, 89
1, 349503, Note_on_c, 0, 70, 59
1, 349506, Note_on_c, 0, 94, 75
1, 349525, Note_on_c, 0, 88, 0
1, 349525, Note_on_c, 0, 100, 0
1, 349531, Note_on_c, 0, 76, 0
1, 349531, Note_on_c, 0, 94, 0
1, 349534, Note_on_c, 0, 67, 0
1, 349537, Note_on_c, 0, 70, 0
1, 349593, Note_on_c, 0, 76, 42
1, 349598, Note_on_c, 0, 100, 85
1, 349598, Note_on_c, 0, 88, 100
1, 349601, Note_on_c, 0, 67, 64
1, 349604, Note_on_c, 0, 70, 39
1, 349626, Note_on_c, 0, 76, 0
1, 349635, Note_on_c, 0, 88, 0
1, 349635, Note_on_c, 0, 67, 0
1, 349645, Note_on_c, 0, 70, 0
1, 349671, Note_on_c, 0, 100, 0
1, 349715, Note_on_c, 0, 61, 92
1, 349718, Note_on_c, 0, 89, 105
1, 349721, Note_on_c, 0, 101, 101
1, 349741, Note_on_c, 0, 61, 0
1, 349755, Note_on_c, 0, 101, 0
1, 349787, Note_on_c, 0, 89, 0
1, 349835, Note_on_c, 0, 88, 107
1, 349840, Note_on_c, 0, 100, 101
1, 349840, Note_on_c, 0, 76, 80
1, 349840, Note_on_c, 0, 70, 64
1, 349840, Note_on_c, 0, 67, 63
1, 349844, Note_on_c, 0, 94, 79
1, 349866, Note_on_c, 0, 76, 0
1, 349869, Note_on_c, 0, 100, 0
1, 349869, Note_on_c, 0, 94, 0
1, 349876, Note_on_c, 0, 88, 0
1, 349880, Note_on_c, 0, 70, 0
1, 349880, Note_on_c, 0, 67, 0
1, 349947, Note_on_c, 0, 76, 5
1, 349947, Note_on_c, 0, 67, 66
1, 349950, Note_on_c, 0, 70, 62
1, 349950, Note_on_c, 0, 100, 107
1, 349950, Note_on_c, 0, 88, 110
1, 349955, Note_on_c, 0, 94, 50
1, 349999, Note_on_c, 0, 76, 0
1, 350039, Note_on_c, 0, 67, 0
1, 350039, Note_on_c, 0, 70, 0
1, 350060, Note_on_c, 0, 100, 0
1, 350078, Note_on_c, 0, 88, 0
1, 350078, Note_on_c, 0, 94, 0
1, 350200, Control_c, 0, 64, 0
1, 350835, Control_c, 0, 64, 127
1, 350907, Note_on_c, 0, 77, 108
1, 350907, Note_on_c, 0, 65, 109
1, 351011, Note_on_c, 0, 65, 0
1, 351016, Note_on_c, 0, 77, 0
1, 351091, Note_on_c, 0, 76, 98
1, 351095, Note_on_c, 0, 64, 96
1, 351242, Note_on_c, 0, 26, 115
1, 351242, Note_on_c, 0, 38, 117
1, 351328, Note_on_c, 0, 76, 0
1, 351328, Note_on_c, 0, 64, 0
1, 351386, Note_on_c, 0, 26, 0
1, 351398, Note_on_c, 0, 76, 91
1, 351398, Note_on_c, 0, 64, 101
1, 351418, Note_on_c, 0, 38, 0
1, 351457, Note_on_c, 0, 76, 0
1, 351460, Note_on_c, 0, 64, 0
1, 351531, Note_on_c, 0, 74, 101
1, 351531, Note_on_c, 0, 62, 105
1, 351612, Note_on_c, 0, 62, 0
1, 351624, Note_on_c, 0, 74, 0
1, 351651, Note_on_c, 0, 58, 89
1, 351656, Note_on_c, 0, 50, 84
1, 351656, Note_on_c, 0, 53, 94
1, 351721, Note_on_c, 0, 58, 0
1, 351735, Note_on_c, 0, 50, 0
1, 351735, Note_on_c, 0, 74, 98
1, 351735, Note_on_c, 0, 62, 94
1, 351740, Note_on_c, 0, 53, 0
1, 351757, Note_on_c, 0, 74, 0
1, 351768, Note_on_c, 0, 62, 0
1, 351838, Note_on_c, 0, 60, 97
1, 351838, Note_on_c, 0, 72, 91
1, 351904, Note_on_c, 0, 60, 0
1, 351921, Note_on_c, 0, 72, 0
1, 351936, Note_on_c, 0, 50, 113
1, 351941, Note_on_c, 0, 38, 106
1, 352008, Note_on_c, 0, 50, 0
1, 352014, Note_on_c, 0, 38, 0
1, 352014, Note_on_c, 0, 60, 98
1, 352027, Note_on_c, 0, 72, 76
1, 352044, Note_on_c, 0, 60, 0
1, 352058, Note_on_c, 0, 72, 0
1, 352122, Note_on_c, 0, 70, 82
1, 352122, Note_on_c, 0, 58, 88
1, 352245, Note_on_c, 0, 53, 100
1, 352256, Note_on_c, 0, 50, 68
1, 352294, Note_on_c, 0, 70, 0
1, 352331, Note_on_c, 0, 58, 0
1, 352339, Note_on_c, 0, 70, 82
1, 352339, Note_on_c, 0, 58, 89
1, 352348, Note_on_c, 0, 53, 0
1, 352358, Note_on_c, 0, 50, 0
1, 352415, Note_on_c, 0, 58, 0
1, 352426, Note_on_c, 0, 70, 0
1, 352450, Note_on_c, 0, 57, 98
1, 352450, Note_on_c, 0, 69, 75
1, 352499, Note_on_c, 0, 49, 105
1, 352504, Note_on_c, 0, 37, 103
1, 352510, Note_on_c, 0, 57, 0
1, 352526, Control_c, 0, 64, 0
1, 352538, Note_on_c, 0, 69, 0
1, 352607, Note_on_c, 0, 69, 76
1, 352610, Note_on_c, 0, 57, 90
1, 352635, Note_on_c, 0, 69, 0
1, 352643, Note_on_c, 0, 37, 0
1, 352651, Note_on_c, 0, 59, 18
1, 352655, Note_on_c, 0, 57, 0
1, 352660, Note_on_c, 0, 49, 0
1, 352669, Control_c, 0, 64, 127
1, 352696, Note_on_c, 0, 59, 0
1, 352699, Note_on_c, 0, 56, 102
1, 352713, Note_on_c, 0, 68, 79
1, 352755, Note_on_c, 0, 56, 0
1, 352762, Note_on_c, 0, 68, 0
1, 352804, Note_on_c, 0, 59, 100
1, 352804, Note_on_c, 0, 49, 83
1, 352808, Note_on_c, 0, 53, 105
1, 352889, Note_on_c, 0, 62, 106
1, 352889, Note_on_c, 0, 74, 101
1, 352911, Note_on_c, 0, 74, 0
1, 352914, Note_on_c, 0, 62, 0
1, 352921, Note_on_c, 0, 59, 0
1, 352935, Note_on_c, 0, 53, 0
1, 352966, Note_on_c, 0, 73, 85
1, 352969, Note_on_c, 0, 49, 0
1, 353002, Note_on_c, 0, 60, 68
1, 353042, Note_on_c, 0, 60, 0
1, 353056, Note_on_c, 0, 73, 0
1, 353067, Note_on_c, 0, 49, 107
1, 353075, Note_on_c, 0, 37, 97
1, 353109, Note_on_c, 0, 37, 0
1, 353137, Note_on_c, 0, 69, 96
1, 353144, Note_on_c, 0, 49, 0
1, 353144, Note_on_c, 0, 81, 97
1, 353166, Note_on_c, 0, 81, 0
1, 353166, Note_on_c, 0, 69, 0
1, 353233, Note_on_c, 0, 68, 97
1, 353233, Note_on_c, 0, 80, 98
1, 353269, Note_on_c, 0, 68, 0
1, 353315, Note_on_c, 0, 80, 0
1, 353336, Note_on_c, 0, 65, 108
1, 353339, Note_on_c, 0, 53, 111
1, 353339, Note_on_c, 0, 59, 98
1, 353445, Note_on_c, 0, 89, 105
1, 353445, Note_on_c, 0, 77, 105
1, 353468, Note_on_c, 0, 65, 0
1, 353468, Note_on_c, 0, 89, 0
1, 353471, Note_on_c, 0, 77, 0
1, 353495, Note_on_c, 0, 59, 0
1, 353520, Note_on_c, 0, 53, 0
1, 353552, Note_on_c, 0, 76, 102
1, 353552, Note_on_c, 0, 88, 99
1, 353645, Note_on_c, 0, 76, 0
1, 353676, Control_c, 0, 64, 0
1, 353680, Note_on_c, 0, 38, 111
1, 353680, Note_on_c, 0, 50, 114
1, 353688, Note_on_c, 0, 88, 0
1, 353780, Note_on_c, 0, 88, 97
1, 353780, Note_on_c, 0, 76, 99
1, 353783, Note_on_c, 0, 38, 0
1, 353808, Note_on_c, 0, 88, 0
1, 353818, Note_on_c, 0, 50, 0
1, 353818, Control_c, 0, 64, 127
1, 353823, Note_on_c, 0, 76, 0
1, 353889, Note_on_c, 0, 74, 99
1, 353893, Note_on_c, 0, 86, 94
1, 353952, Note_on_c, 0, 74, 0
1, 353960, Note_on_c, 0, 86, 0
1, 353989, Note_on_c, 0, 53, 108
1, 353989, Note_on_c, 0, 65, 94
1, 353992, Note_on_c, 0, 58, 76
1, 354061, Note_on_c, 0, 65, 0
1, 354067, Note_on_c, 0, 86, 95
1, 354067, Note_on_c, 0, 74, 96
1, 354091, Note_on_c, 0, 86, 0
1, 354094, Note_on_c, 0, 74, 0
1, 354105, Note_on_c, 0, 58, 0
1, 354113, Note_on_c, 0, 53, 0
1, 354158, Note_on_c, 0, 72, 89
1, 354162, Note_on_c, 0, 84, 91
1, 354222, Note_on_c, 0, 72, 0
1, 354233, Note_on_c, 0, 84, 0
1, 354267, Note_on_c, 0, 50, 110
1, 354267, Note_on_c, 0, 38, 103
1, 354287, Note_on_c, 0, 38, 0
1, 354326, Note_on_c, 0, 72, 98
1, 354331, Note_on_c, 0, 50, 0
1, 354336, Note_on_c, 0, 84, 90
1, 354351, Note_on_c, 0, 72, 0
1, 354359, Note_on_c, 0, 84, 0
1, 354431, Note_on_c, 0, 70, 90
1, 354431, Note_on_c, 0, 82, 84
1, 354471, Note_on_c, 0, 82, 0
1, 354482, Note_on_c, 0, 70, 0
1, 354517, Note_on_c, 0, 65, 99
1, 354520, Note_on_c, 0, 58, 83
1, 354526, Note_on_c, 0, 53, 101
1, 354599, Note_on_c, 0, 58, 0
1, 354602, Note_on_c, 0, 65, 0
1, 354602, Note_on_c, 0, 70, 92
1, 354602, Note_on_c, 0, 82, 87
1, 354616, Note_on_c, 0, 53, 0
1, 354663, Note_on_c, 0, 70, 0
1, 354673, Note_on_c, 0, 82, 0
1, 354683, Note_on_c, 0, 69, 77
1, 354687, Note_on_c, 0, 81, 91
1, 354755, Note_on_c, 0, 69, 0
1, 354755, Control_c, 0, 64, 0
1, 354763, Note_on_c, 0, 49, 108
1, 354771, Note_on_c, 0, 37, 102
1, 354777, Note_on_c, 0, 81, 0
1, 354822, Note_on_c, 0, 37, 0
1, 354841, Note_on_c, 0, 81, 78
1, 354841, Note_on_c, 0, 49, 0
1, 354841, Note_on_c, 0, 69, 86
1, 354866, Note_on_c, 0, 81, 0
1, 354872, Note_on_c, 0, 69, 0
1, 354872, Control_c, 0, 64, 127
1, 354930, Note_on_c, 0, 68, 91
1, 354933, Note_on_c, 0, 80, 81
1, 354953, Note_on_c, 0, 68, 0
1, 354966, Note_on_c, 0, 80, 0
1, 355016, Note_on_c, 0, 53, 106
1, 355016, Note_on_c, 0, 65, 97
1, 355024, Note_on_c, 0, 59, 85
1, 355087, Note_on_c, 0, 74, 101
1, 355091, Note_on_c, 0, 86, 98
1, 355094, Note_on_c, 0, 65, 0
1, 355111, Note_on_c, 0, 74, 0
1, 355116, Note_on_c, 0, 86, 0
1, 355130, Note_on_c, 0, 59, 0
1, 355142, Note_on_c, 0, 53, 0
1, 355176, Note_on_c, 0, 73, 97
1, 355176, Note_on_c, 0, 85, 93
1, 355233, Note_on_c, 0, 73, 0
1, 355239, Note_on_c, 0, 85, 0
1, 355253, Note_on_c, 0, 49, 108
1, 355264, Note_on_c, 0, 37, 98
1, 355286, Note_on_c, 0, 37, 0
1, 355326, Note_on_c, 0, 49, 0
1, 355340, Note_on_c, 0, 93, 107
1, 355343, Note_on_c, 0, 81, 101
1, 355360, Note_on_c, 0, 93, 0
1, 355365, Note_on_c, 0, 81, 0
1, 355443, Note_on_c, 0, 92, 98
1, 355443, Note_on_c, 0, 80, 100
1, 355485, Note_on_c, 0, 80, 0
1, 355504, Note_on_c, 0, 92, 0
1, 355535, Note_on_c, 0, 65, 104
1, 355538, Note_on_c, 0, 59, 95
1, 355538, Note_on_c, 0, 53, 110
1, 355593, Note_on_c, 0, 65, 0
1, 355632, Note_on_c, 0, 59, 0
1, 355644, Note_on_c, 0, 53, 0
1, 355713, Note_on_c, 0, 89, 106
1, 355713, Note_on_c, 0, 101, 98
1, 355743, Note_on_c, 0, 101, 0
1, 355760, Note_on_c, 0, 89, 0
1, 355810, Note_on_c, 0, 88, 106
1, 355810, Note_on_c, 0, 100, 92
1, 355872, Control_c, 0, 64, 0
1, 355899, Note_on_c, 0, 100, 0
1, 355906, Note_on_c, 0, 50, 114
1, 355910, Note_on_c, 0, 38, 109
1, 355919, Note_on_c, 0, 88, 0
1, 355978, Note_on_c, 0, 38, 0
1, 355989, Note_on_c, 0, 50, 0
1, 355989, Note_on_c, 0, 88, 96
1, 355989, Note_on_c, 0, 100, 97
1, 356000, Control_c, 0, 64, 127
1, 356017, Note_on_c, 0, 100, 0
1, 356030, Note_on_c, 0, 88, 0
1, 356092, Note_on_c, 0, 86, 98
1, 356092, Note_on_c, 0, 98, 106
1, 356167, Note_on_c, 0, 86, 0
1, 356172, Note_on_c, 0, 65, 103
1, 356172, Note_on_c, 0, 62, 95
1, 356176, Note_on_c, 0, 98, 0
1, 356176, Note_on_c, 0, 58, 79
1, 356181, Note_on_c, 0, 53, 104
1, 356250, Note_on_c, 0, 62, 0
1, 356254, Note_on_c, 0, 86, 99
1, 356259, Note_on_c, 0, 98, 89
1, 356265, Note_on_c, 0, 65, 0
1, 356281, Note_on_c, 0, 86, 0
1, 356287, Note_on_c, 0, 58, 0
1, 356287, Note_on_c, 0, 98, 0
1, 356296, Note_on_c, 0, 53, 0
1, 356350, Note_on_c, 0, 96, 77
1, 356350, Note_on_c, 0, 84, 99
1, 356426, Note_on_c, 0, 84, 0
1, 356426, Note_on_c, 0, 96, 0
1, 356440, Note_on_c, 0, 50, 114
1, 356443, Note_on_c, 0, 38, 108
1, 356460, Note_on_c, 0, 38, 0
1, 356487, Note_on_c, 0, 50, 0
1, 356523, Note_on_c, 0, 84, 101
1, 356526, Note_on_c, 0, 96, 94
1, 356549, Note_on_c, 0, 96, 0
1, 356552, Note_on_c, 0, 84, 0
1, 356626, Note_on_c, 0, 82, 92
1, 356630, Note_on_c, 0, 94, 79
1, 356699, Note_on_c, 0, 70, 89
1, 356702, Note_on_c, 0, 82, 0
1, 356705, Note_on_c, 0, 65, 66
1, 356710, Note_on_c, 0, 62, 73
1, 356710, Note_on_c, 0, 58, 50
1, 356710, Note_on_c, 0, 94, 0
1, 356783, Note_on_c, 0, 93, 88
1, 356783, Note_on_c, 0, 81, 98
1, 356799, Note_on_c, 0, 70, 0
1, 356808, Note_on_c, 0, 65, 0
1, 356808, Note_on_c, 0, 81, 0
1, 356811, Note_on_c, 0, 93, 0
1, 356814, Note_on_c, 0, 62, 0
1, 356857, Note_on_c, 0, 58, 0
1, 356857, Note_on_c, 0, 93, 60
1, 356864, Note_on_c, 0, 82, 95
1, 356894, Note_on_c, 0, 93, 0
1, 356936, Note_on_c, 0, 82, 0
1, 356936, Control_c, 0, 64, 0
1, 356947, Note_on_c, 0, 54, 103
1, 356955, Note_on_c, 0, 42, 92
1, 357070, Note_on_c, 0, 70, 83
1, 357070, Note_on_c, 0, 82, 78
1, 357092, Control_c, 0, 64, 127
1, 357100, Note_on_c, 0, 82, 0
1, 357100, Note_on_c, 0, 42, 0
1, 357100, Note_on_c, 0, 70, 0
1, 357115, Note_on_c, 0, 54, 0
1, 357169, Note_on_c, 0, 83, 105
1, 357181, Note_on_c, 0, 71, 57
1, 357195, Note_on_c, 0, 83, 0
1, 357223, Note_on_c, 0, 71, 0
1, 357281, Note_on_c, 0, 54, 89
1, 357284, Note_on_c, 0, 72, 96
1, 357284, Note_on_c, 0, 64, 92
1, 357287, Note_on_c, 0, 58, 58
1, 357295, Note_on_c, 0, 84, 74
1, 357309, Note_on_c, 0, 54, 0
1, 357309, Note_on_c, 0, 64, 0
1, 357314, Note_on_c, 0, 72, 0
1, 357325, Note_on_c, 0, 58, 0
1, 357325, Note_on_c, 0, 84, 0
1, 357373, Note_on_c, 0, 64, 66
1, 357373, Note_on_c, 0, 58, 60
1, 357376, Note_on_c, 0, 54, 60
1, 357376, Note_on_c, 0, 73, 97
1, 357379, Note_on_c, 0, 85, 100
1, 357418, Note_on_c, 0, 64, 0
1, 357429, Note_on_c, 0, 58, 0
1, 357437, Note_on_c, 0, 54, 0
1, 357442, Note_on_c, 0, 85, 0
1, 357446, Note_on_c, 0, 73, 0
1, 357473, Note_on_c, 0, 64, 92
1, 357477, Note_on_c, 0, 74, 101
1, 357477, Note_on_c, 0, 58, 70
1, 357481, Note_on_c, 0, 86, 89
1, 357481, Note_on_c, 0, 54, 92
1, 357506, Note_on_c, 0, 74, 0
1, 357513, Note_on_c, 0, 86, 0
1, 357513, Note_on_c, 0, 54, 0
1, 357529, Note_on_c, 0, 58, 0
1, 357529, Note_on_c, 0, 64, 0
1, 357574, Note_on_c, 0, 74, 108
1, 357574, Note_on_c, 0, 86, 93
1, 357579, Note_on_c, 0, 58, 79
1, 357579, Note_on_c, 0, 64, 106
1, 357579, Note_on_c, 0, 54, 88
1, 357640, Note_on_c, 0, 86, 0
1, 357661, Note_on_c, 0, 74, 0
1, 357676, Note_on_c, 0, 64, 0
1, 357716, Note_on_c, 0, 58, 0
1, 357716, Note_on_c, 0, 73, 102
1, 357722, Note_on_c, 0, 85, 86
1, 357730, Note_on_c, 0, 54, 0
1, 357750, Note_on_c, 0, 85, 0
1, 357799, Note_on_c, 0, 73, 0
1, 357860, Note_on_c, 0, 55, 105
1, 357860, Note_on_c, 0, 67, 110
1, 357860, Note_on_c, 0, 43, 98
1, 357900, Note_on_c, 0, 43, 0
1, 357906, Note_on_c, 0, 55, 0
1, 358012, Note_on_c, 0, 54, 101
1, 358012, Note_on_c, 0, 66, 97
1, 358015, Note_on_c, 0, 42, 93
1, 358027, Note_on_c, 0, 67, 0
1, 358069, Note_on_c, 0, 66, 0
1, 358094, Note_on_c, 0, 54, 0
1, 358164, Note_on_c, 0, 42, 0
1, 358206, Control_c, 0, 64, 0
1, 358226, Note_on_c, 0, 40, 120
1, 358226, Note_on_c, 0, 52, 118
1, 358332, Note_on_c, 0, 40, 0
1, 358349, Control_c, 0, 64, 127
1, 358363, Note_on_c, 0, 90, 91
1, 358363, Note_on_c, 0, 102, 95
1, 358366, Note_on_c, 0, 52, 0
1, 358395, Note_on_c, 0, 102, 0
1, 358407, Note_on_c, 0, 90, 0
1, 358476, Note_on_c, 0, 100, 96
1, 358476, Note_on_c, 0, 88, 94
1, 358529, Note_on_c, 0, 88, 0
1, 358560, Note_on_c, 0, 100, 0
1, 358590, Note_on_c, 0, 67, 102
1, 358593, Note_on_c, 0, 64, 85
1, 358593, Note_on_c, 0, 60, 83
1, 358605, Note_on_c, 0, 55, 89
1, 358654, Note_on_c, 0, 67, 0
1, 358672, Note_on_c, 0, 64, 0
1, 358679, Note_on_c, 0, 88, 97
1, 358679, Note_on_c, 0, 100, 95
1, 358686, Note_on_c, 0, 60, 0
1, 358700, Note_on_c, 0, 100, 0
1, 358705, Note_on_c, 0, 88, 0
1, 358711, Note_on_c, 0, 55, 0
1, 358777, Note_on_c, 0, 86, 100
1, 358777, Note_on_c, 0, 98, 101
1, 358853, Note_on_c, 0, 86, 0
1, 358864, Note_on_c, 0, 98, 0
1, 358886, Note_on_c, 0, 52, 113
1, 358886, Note_on_c, 0, 40, 115
1, 358922, Note_on_c, 0, 40, 0
1, 358947, Note_on_c, 0, 52, 0
1, 358956, Note_on_c, 0, 86, 101
1, 358959, Note_on_c, 0, 98, 104
1, 358981, Note_on_c, 0, 98, 0
1, 358986, Note_on_c, 0, 86, 0
1, 359062, Note_on_c, 0, 84, 104
1, 359070, Note_on_c, 0, 96, 100
1, 359131, Note_on_c, 0, 84, 0
1, 359150, Note_on_c, 0, 96, 0
1, 359184, Note_on_c, 0, 72, 97
1, 359193, Note_on_c, 0, 60, 70
1, 359193, Note_on_c, 0, 67, 75
1, 359193, Note_on_c, 0, 64, 80
1, 359251, Note_on_c, 0, 72, 0
1, 359264, Note_on_c, 0, 83, 112
1, 359264, Note_on_c, 0, 95, 91
1, 359271, Note_on_c, 0, 64, 0
1, 359281, Note_on_c, 0, 67, 0
1, 359289, Note_on_c, 0, 83, 0
1, 359289, Note_on_c, 0, 60, 0
1, 359289, Note_on_c, 0, 95, 0
1, 359351, Note_on_c, 0, 96, 103
1, 359351, Note_on_c, 0, 84, 105
1, 359378, Note_on_c, 0, 96, 0
1, 359404, Note_on_c, 0, 84, 0
1, 359465, Control_c, 0, 64, 0
1, 359479, Note_on_c, 0, 56, 84
1, 359501, Note_on_c, 0, 44, 64
1, 359587, Note_on_c, 0, 72, 91
1, 359587, Note_on_c, 0, 84, 94
1, 359618, Note_on_c, 0, 84, 0
1, 359626, Note_on_c, 0, 72, 0
1, 359657, Control_c, 0, 64, 127
1, 359687, Note_on_c, 0, 44, 0
1, 359707, Note_on_c, 0, 56, 0
1, 359707, Note_on_c, 0, 73, 83
1, 359707, Note_on_c, 0, 85, 83
1, 359738, Note_on_c, 0, 73, 0
1, 359738, Note_on_c, 0, 85, 0
1, 359808, Note_on_c, 0, 74, 98
1, 359808, Note_on_c, 0, 86, 89
1, 359817, Note_on_c, 0, 66, 81
1, 359824, Note_on_c, 0, 56, 64
1, 359836, Note_on_c, 0, 74, 0
1, 359839, Note_on_c, 0, 86, 0
1, 359839, Note_on_c, 0, 60, 54
1, 359858, Note_on_c, 0, 66, 0
1, 359874, Note_on_c, 0, 56, 0
1, 359881, Note_on_c, 0, 60, 0
1, 359911, Note_on_c, 0, 87, 91
1, 359911, Note_on_c, 0, 75, 91
1, 359922, Note_on_c, 0, 66, 62
1, 359922, Note_on_c, 0, 56, 63
1, 359927, Note_on_c, 0, 60, 71
1, 359948, Note_on_c, 0, 87, 0
1, 359952, Note_on_c, 0, 75, 0
1, 359977, Note_on_c, 0, 66, 0
1, 359998, Note_on_c, 0, 88, 96
1, 359998, Note_on_c, 0, 76, 81
1, 360023, Note_on_c, 0, 88, 0
1, 360030, Note_on_c, 0, 76, 0
1, 360042, Note_on_c, 0, 56, 0
1, 360047, Note_on_c, 0, 60, 0
1, 360089, Note_on_c, 0, 88, 61
1, 360089, Note_on_c, 0, 60, 82
1, 360089, Note_on_c, 0, 76, 73
1, 360095, Note_on_c, 0, 66, 88
1, 360095, Note_on_c, 0, 56, 74
1, 360145, Note_on_c, 0, 88, 0
1, 360151, Note_on_c, 0, 76, 0
1, 360179, Note_on_c, 0, 60, 0
1, 360187, Note_on_c, 0, 66, 0
1, 360214, Note_on_c, 0, 56, 0
1, 360229, Note_on_c, 0, 75, 101
1, 360243, Note_on_c, 0, 87, 55
1, 360279, Note_on_c, 0, 87, 0
1, 360303, Note_on_c, 0, 75, 0
1, 360367, Note_on_c, 0, 57, 90
1, 360370, Note_on_c, 0, 45, 82
1, 360370, Note_on_c, 0, 69, 103
1, 360437, Note_on_c, 0, 57, 0
1, 360437, Note_on_c, 0, 45, 0
1, 360519, Note_on_c, 0, 68, 92
1, 360519, Note_on_c, 0, 56, 95
1, 360522, Note_on_c, 0, 69, 0
1, 360527, Note_on_c, 0, 44, 92
1, 360576, Note_on_c, 0, 44, 0
1, 360594, Note_on_c, 0, 68, 0
1, 360594, Note_on_c, 0, 56, 0
1, 360738, Note_on_c, 0, 54, 116
1, 360746, Note_on_c, 0, 42, 106
1, 360746, Control_c, 0, 64, 0
1, 360844, Note_on_c, 0, 42, 0
1, 360864, Note_on_c, 0, 92, 93
1, 360867, Note_on_c, 0, 104, 95
1, 360875, Note_on_c, 0, 54, 0
1, 360880, Control_c, 0, 64, 127
1, 360911, Note_on_c, 0, 104, 0
1, 360927, Note_on_c, 0, 92, 0
1, 360987, Note_on_c, 0, 90, 90
1, 360987, Note_on_c, 0, 102, 90
1, 361087, Note_on_c, 0, 90, 0
1, 361087, Note_on_c, 0, 69, 98
1, 361092, Note_on_c, 0, 102, 0
1, 361097, Note_on_c, 0, 66, 79
1, 361097, Note_on_c, 0, 62, 79
1, 361097, Note_on_c, 0, 57, 83
1, 361190, Note_on_c, 0, 90, 87
1, 361193, Note_on_c, 0, 69, 0
1, 361196, Note_on_c, 0, 102, 81
1, 361206, Note_on_c, 0, 62, 0
1, 361215, Note_on_c, 0, 66, 0
1, 361221, Note_on_c, 0, 90, 0
1, 361221, Note_on_c, 0, 102, 0
1, 361243, Note_on_c, 0, 57, 0
1, 361278, Note_on_c, 0, 100, 87
1, 361281, Note_on_c, 0, 88, 83
1, 361326, Note_on_c, 0, 100, 0
1, 361338, Note_on_c, 0, 88, 0
1, 361359, Note_on_c, 0, 54, 108
1, 361363, Note_on_c, 0, 42, 98
1, 361390, Note_on_c, 0, 42, 0
1, 361426, Note_on_c, 0, 54, 0
1, 361443, Note_on_c, 0, 88, 94
1, 361446, Note_on_c, 0, 100, 95
1, 361468, Note_on_c, 0, 100, 0
1, 361473, Note_on_c, 0, 88, 0
1, 361541, Note_on_c, 0, 86, 94
1, 361541, Note_on_c, 0, 98, 96
1, 361583, Note_on_c, 0, 98, 0
1, 361621, Note_on_c, 0, 86, 0
1, 361625, Note_on_c, 0, 74, 105
1, 361628, Note_on_c, 0, 62, 83
1, 361628, Note_on_c, 0, 69, 79
1, 361635, Note_on_c, 0, 66, 78
1, 361691, Note_on_c, 0, 74, 0
1, 361708, Note_on_c, 0, 85, 87
1, 361714, Note_on_c, 0, 97, 77
1, 361719, Note_on_c, 0, 66, 0
1, 361724, Note_on_c, 0, 69, 0
1, 361727, Note_on_c, 0, 62, 0
1, 361741, Note_on_c, 0, 85, 0
1, 361741, Note_on_c, 0, 97, 0
1, 361792, Note_on_c, 0, 98, 102
1, 361799, Note_on_c, 0, 86, 76
1, 361819, Note_on_c, 0, 98, 0
1, 361844, Note_on_c, 0, 86, 0
1, 361928, Note_on_c, 0, 58, 104
1, 361928, Note_on_c, 0, 46, 100
1, 361934, Control_c, 0, 64, 0
1, 362054, Note_on_c, 0, 86, 85
1, 362054, Note_on_c, 0, 74, 91
1, 362065, Note_on_c, 0, 46, 0
1, 362076, Note_on_c, 0, 58, 0
1, 362076, Note_on_c, 0, 74, 0
1, 362076, Control_c, 0, 64, 127
1, 362083, Note_on_c, 0, 86, 0
1, 362162, Note_on_c, 0, 87, 83
1, 362162, Note_on_c, 0, 75, 80
1, 362196, Note_on_c, 0, 87, 0
1, 362204, Note_on_c, 0, 75, 0
1, 362257, Note_on_c, 0, 68, 61
1, 362260, Note_on_c, 0, 58, 46
1, 362281, Note_on_c, 0, 88, 79
1, 362281, Note_on_c, 0, 76, 63
1, 362285, Note_on_c, 0, 62, 29
1, 362296, Note_on_c, 0, 68, 0
1, 362304, Note_on_c, 0, 58, 0
1, 362309, Note_on_c, 0, 88, 0
1, 362317, Note_on_c, 0, 76, 0
1, 362341, Note_on_c, 0, 62, 0
1, 362352, Note_on_c, 0, 68, 61
1, 362355, Note_on_c, 0, 58, 51
1, 362373, Note_on_c, 0, 89, 81
1, 362373, Note_on_c, 0, 62, 29
1, 362376, Note_on_c, 0, 77, 71
1, 362402, Note_on_c, 0, 68, 0
1, 362402, Note_on_c, 0, 58, 0
1, 362402, Note_on_c, 0, 89, 0
1, 362407, Note_on_c, 0, 77, 0
1, 362413, Note_on_c, 0, 62, 0
1, 362451, Note_on_c, 0, 68, 80
1, 362457, Note_on_c, 0, 58, 57
1, 362457, Note_on_c, 0, 62, 81
1, 362465, Note_on_c, 0, 78, 96
1, 362468, Note_on_c, 0, 90, 92
1, 362497, Note_on_c, 0, 58, 0
1, 362497, Note_on_c, 0, 90, 0
1, 362500, Note_on_c, 0, 62, 0
1, 362522, Note_on_c, 0, 78, 0
1, 362529, Note_on_c, 0, 68, 0
1, 362557, Note_on_c, 0, 90, 72
1, 362557, Note_on_c, 0, 78, 103
1, 362560, Note_on_c, 0, 62, 85
1, 362560, Note_on_c, 0, 68, 98
1, 362560, Note_on_c, 0, 58, 53
1, 362635, Note_on_c, 0, 62, 0
1, 362646, Note_on_c, 0, 68, 0
1, 362668, Note_on_c, 0, 58, 0
1, 362678, Note_on_c, 0, 90, 0
1, 362681, Note_on_c, 0, 78, 0
1, 362719, Note_on_c, 0, 89, 91
1, 362725, Note_on_c, 0, 77, 87
1, 362744, Note_on_c, 0, 89, 0
1, 362766, Note_on_c, 0, 77, 0
1, 362926, Note_on_c, 0, 46, 80
1, 362929, Note_on_c, 0, 58, 99
1, 362929, Note_on_c, 0, 34, 83
1, 363022, Note_on_c, 0, 46, 0
1, 363028, Note_on_c, 0, 34, 0
1, 363061, Note_on_c, 0, 58, 0
1, 363090, Note_on_c, 0, 59, 97
1, 363093, Note_on_c, 0, 47, 98
1, 363093, Note_on_c, 0, 35, 93
1, 363120, Note_on_c, 0, 59, 0
1, 363120, Note_on_c, 0, 35, 0
1, 363128, Note_on_c, 0, 47, 0
1, 363312, Control_c, 0, 64, 0
1, 363338, Note_on_c, 0, 59, 114
1, 363341, Note_on_c, 0, 47, 110
1, 363398, Note_on_c, 0, 47, 0
1, 363446, Note_on_c, 0, 59, 0
1, 363454, Note_on_c, 0, 74, 95
1, 363454, Control_c, 0, 64, 127
1, 363462, Note_on_c, 0, 86, 71
1, 363477, Note_on_c, 0, 74, 0
1, 363497, Note_on_c, 0, 86, 0
1, 363552, Note_on_c, 0, 75, 89
1, 363552, Note_on_c, 0, 87, 86
1, 363583, Note_on_c, 0, 87, 0
1, 363604, Note_on_c, 0, 75, 0
1, 363638, Note_on_c, 0, 68, 61
1, 363643, Note_on_c, 0, 62, 51
1, 363653, Note_on_c, 0, 59, 42
1, 363661, Note_on_c, 0, 88, 95
1, 363666, Note_on_c, 0, 76, 71
1, 363675, Note_on_c, 0, 68, 0
1, 363680, Note_on_c, 0, 62, 0
1, 363689, Note_on_c, 0, 88, 0
1, 363692, Note_on_c, 0, 59, 0
1, 363699, Note_on_c, 0, 76, 0
1, 363744, Note_on_c, 0, 68, 48
1, 363749, Note_on_c, 0, 59, 65
1, 363749, Note_on_c, 0, 62, 54
1, 363760, Note_on_c, 0, 89, 94
1, 363760, Note_on_c, 0, 77, 81
1, 363784, Note_on_c, 0, 89, 0
1, 363789, Note_on_c, 0, 59, 0
1, 363792, Note_on_c, 0, 62, 0
1, 363792, Note_on_c, 0, 77, 0
1, 363802, Note_on_c, 0, 68, 0
1, 363845, Note_on_c, 0, 68, 77
1, 363853, Note_on_c, 0, 62, 69
1, 363856, Note_on_c, 0, 59, 61
1, 363856, Note_on_c, 0, 78, 100
1, 363862, Note_on_c, 0, 90, 95
1, 363894, Note_on_c, 0, 59, 0
1, 363900, Note_on_c, 0, 62, 0
1, 363914, Note_on_c, 0, 78, 0
1, 363914, Note_on_c, 0, 90, 0
1, 363922, Note_on_c, 0, 68, 0
1, 363955, Note_on_c, 0, 68, 98
1, 363958, Note_on_c, 0, 78, 102
1, 363958, Note_on_c, 0, 59, 74
1, 363958, Note_on_c, 0, 62, 83
1, 363958, Note_on_c, 0, 90, 95
1, 364017, Note_on_c, 0, 68, 0
1, 364043, Note_on_c, 0, 62, 0
1, 364048, Note_on_c, 0, 59, 0
1, 364093, Note_on_c, 0, 78, 0
1, 364096, Note_on_c, 0, 90, 0
1, 364135, Note_on_c, 0, 77, 86
1, 364135, Note_on_c, 0, 89, 81
1, 364164, Note_on_c, 0, 89, 0
1, 364179, Note_on_c, 0, 77, 0
1, 364313, Note_on_c, 0, 35, 105
1, 364313, Note_on_c, 0, 47, 101
1, 364313, Note_on_c, 0, 59, 108
1, 364376, Note_on_c, 0, 35, 0
1, 364396, Note_on_c, 0, 47, 0
1, 364455, Note_on_c, 0, 48, 101
1, 364455, Note_on_c, 0, 36, 101
1, 364458, Note_on_c, 0, 59, 0
1, 364458, Note_on_c, 0, 60, 103
1, 364486, Note_on_c, 0, 36, 0
1, 364513, Note_on_c, 0, 48, 0
1, 364530, Note_on_c, 0, 60, 0
1, 364688, Note_on_c, 0, 60, 115
1, 364691, Note_on_c, 0, 48, 110
1, 364702, Control_c, 0, 64, 0
1, 364841, Note_on_c, 0, 74, 105
1, 364841, Note_on_c, 0, 86, 102
1, 364870, Note_on_c, 0, 86, 0
1, 364870, Control_c, 0, 64, 127
1, 364880, Note_on_c, 0, 48, 0
1, 364880, Note_on_c, 0, 74, 0
1, 364909, Note_on_c, 0, 60, 0
1, 364967, Note_on_c, 0, 75, 98
1, 364967, Note_on_c, 0, 87, 94
1, 365050, Note_on_c, 0, 87, 0
1, 365050, Note_on_c, 0, 75, 0
1, 365101, Note_on_c, 0, 88, 101
1, 365101, Note_on_c, 0, 69, 84
1, 365101, Note_on_c, 0, 76, 96
1, 365109, Note_on_c, 0, 66, 70
1, 365109, Note_on_c, 0, 60, 73
1, 365115, Note_on_c, 0, 62, 63
1, 365128, Note_on_c, 0, 88, 0
1, 365128, Note_on_c, 0, 76, 0
1, 365128, Note_on_c, 0, 69, 0
1, 365140, Note_on_c, 0, 66, 0
1, 365148, Note_on_c, 0, 60, 0
1, 365148, Note_on_c, 0, 62, 0
1, 365196, Note_on_c, 0, 69, 45
1, 365199, Note_on_c, 0, 60, 67
1, 365199, Note_on_c, 0, 66, 44
1, 365204, Note_on_c, 0, 62, 67
1, 365210, Note_on_c, 0, 77, 103
1, 365213, Note_on_c, 0, 89, 98
1, 365240, Note_on_c, 0, 62, 0
1, 365240, Note_on_c, 0, 89, 0
1, 365240, Note_on_c, 0, 60, 0
1, 365246, Note_on_c, 0, 66, 0
1, 365254, Note_on_c, 0, 69, 0
1, 365259, Note_on_c, 0, 77, 0
1, 365299, Note_on_c, 0, 69, 84
1, 365299, Note_on_c, 0, 60, 62
1, 365302, Note_on_c, 0, 66, 57
1, 365305, Note_on_c, 0, 62, 56
1, 365312, Note_on_c, 0, 78, 103
1, 365316, Note_on_c, 0, 90, 93
1, 365341, Note_on_c, 0, 69, 0
1, 365341, Note_on_c, 0, 60, 0
1, 365344, Note_on_c, 0, 62, 0
1, 365344, Note_on_c, 0, 90, 0
1, 365352, Note_on_c, 0, 78, 0
1, 365355, Note_on_c, 0, 66, 0
1, 365415, Note_on_c, 0, 80, 111
1, 365415, Note_on_c, 0, 92, 104
1, 365415, Note_on_c, 0, 69, 94
1, 365421, Note_on_c, 0, 60, 78
1, 365421, Note_on_c, 0, 66, 70
1, 365426, Note_on_c, 0, 62, 68
1, 365477, Note_on_c, 0, 60, 0
1, 365496, Note_on_c, 0, 69, 0
1, 365500, Note_on_c, 0, 66, 0
1, 365503, Note_on_c, 0, 62, 0
1, 365538, Note_on_c, 0, 80, 0
1, 365547, Note_on_c, 0, 92, 0
1, 365603, Note_on_c, 0, 93, 103
1, 365603, Note_on_c, 0, 81, 103
1, 365678, Note_on_c, 0, 81, 0
1, 365685, Note_on_c, 0, 93, 0
1, 365772, Note_on_c, 0, 80, 105
1, 365772, Note_on_c, 0, 92, 94
1, 365777, Note_on_c, 0, 86, 94
1, 365777, Note_on_c, 0, 65, 103
1, 365781, Note_on_c, 0, 53, 120
1, 365805, Note_on_c, 0, 53, 0
1, 365850, Note_on_c, 0, 65, 0
1, 365873, Note_on_c, 0, 86, 0
1, 365886, Note_on_c, 0, 80, 0
1, 365898, Note_on_c, 0, 92, 0
1, 365934, Note_on_c, 0, 66, 84
1, 365940, Note_on_c, 0, 86, 73
1, 365943, Note_on_c, 0, 93, 97
1, 365943, Note_on_c, 0, 81, 101
1, 365943, Note_on_c, 0, 54, 95
1, 365964, Note_on_c, 0, 66, 0
1, 365968, Note_on_c, 0, 54, 0
1, 366009, Note_on_c, 0, 93, 0
1, 366023, Note_on_c, 0, 81, 0
1, 366040, Note_on_c, 0, 86, 0
1, 366084, Note_on_c, 0, 86, 84
1, 366087, Note_on_c, 0, 80, 99
1, 366087, Note_on_c, 0, 59, 104
1, 366091, Note_on_c, 0, 47, 100
1, 366091, Note_on_c, 0, 92, 90
1, 366114, Note_on_c, 0, 47, 0
1, 366149, Note_on_c, 0, 59, 0
1, 366182, Note_on_c, 0, 86, 0
1, 366185, Note_on_c, 0, 80, 0
1, 366195, Note_on_c, 0, 92, 0
1, 366227, Note_on_c, 0, 48, 79
1, 366227, Note_on_c, 0, 60, 91
1, 366232, Note_on_c, 0, 86, 77
1, 366232, Note_on_c, 0, 93, 95
1, 366232, Note_on_c, 0, 81, 99
1, 366257, Note_on_c, 0, 60, 0
1, 366274, Note_on_c, 0, 48, 0
1, 366285, Note_on_c, 0, 93, 0
1, 366324, Note_on_c, 0, 81, 0
1, 366334, Note_on_c, 0, 86, 0
1, 366369, Note_on_c, 0, 41, 108
1, 366369, Note_on_c, 0, 53, 116
1, 366372, Note_on_c, 0, 80, 102
1, 366376, Note_on_c, 0, 86, 91
1, 366376, Note_on_c, 0, 92, 90
1, 366415, Note_on_c, 0, 53, 0
1, 366421, Note_on_c, 0, 41, 0
1, 366468, Note_on_c, 0, 86, 0
1, 366479, Note_on_c, 0, 80, 0
1, 366483, Note_on_c, 0, 92, 0
1, 366510, Note_on_c, 0, 54, 106
1, 366518, Note_on_c, 0, 42, 95
1, 366529, Note_on_c, 0, 81, 90
1, 366529, Note_on_c, 0, 93, 94
1, 366532, Note_on_c, 0, 86, 51
1, 366558, Note_on_c, 0, 42, 0
1, 366578, Note_on_c, 0, 54, 0
1, 366621, Note_on_c, 0, 93, 0
1, 366630, Note_on_c, 0, 81, 0
1, 366647, Note_on_c, 0, 86, 0
1, 366691, Control_c, 0, 64, 0
1, 366702, Note_on_c, 0, 35, 116
1, 366705, Note_on_c, 0, 47, 108
1, 366705, Note_on_c, 0, 80, 105
1, 366708, Note_on_c, 0, 86, 81
1, 366708, Note_on_c, 0, 92, 88
1, 366811, Note_on_c, 0, 35, 0
1, 366811, Control_c, 0, 64, 127
1, 366816, Note_on_c, 0, 86, 0
1, 366826, Note_on_c, 0, 47, 0
1, 366844, Note_on_c, 0, 80, 0
1, 366855, Note_on_c, 0, 92, 0
1, 366911, Note_on_c, 0, 48, 99
1, 366911, Note_on_c, 0, 93, 95
1, 366911, Note_on_c, 0, 36, 104
1, 366914, Note_on_c, 0, 81, 106
1, 366922, Note_on_c, 0, 86, 73
1, 366934, Note_on_c, 0, 36, 0
1, 366934, Note_on_c, 0, 93, 0
1, 366951, Note_on_c, 0, 86, 0
1, 366968, Note_on_c, 0, 81, 0
1, 366983, Note_on_c, 0, 48, 0
1, 367157, Note_on_c, 0, 81, 105
1, 367157, Note_on_c, 0, 69, 98
1, 367162, Note_on_c, 0, 66, 97
1, 367162, Note_on_c, 0, 74, 97
1, 367165, Note_on_c, 0, 54, 99
1, 367173, Note_on_c, 0, 60, 87
1, 367184, Control_c, 0, 64, 0
1, 367270, Note_on_c, 0, 81, 0
1, 367270, Note_on_c, 0, 66, 0
1, 367270, Note_on_c, 0, 54, 0
1, 367274, Note_on_c, 0, 69, 0
1, 367277, Note_on_c, 0, 60, 0
1, 367302, Control_c, 0, 64, 127
1, 367312, Note_on_c, 0, 74, 0
1, 367446, Control_c, 0, 64, 0
1, 368071, Note_on_c, 0, 49, 75
1, 368076, Note_on_c, 0, 37, 68
1, 368107, Note_on_c, 0, 37, 0
1, 368110, Note_on_c, 0, 49, 0
1, 368170, Note_on_c, 0, 69, 59
1, 368209, Note_on_c, 0, 69, 0
1, 368310, Note_on_c, 0, 65, 57
1, 368310, Note_on_c, 0, 81, 90
1, 368319, Note_on_c, 0, 59, 54
1, 368319, Note_on_c, 0, 61, 42
1, 368324, Note_on_c, 0, 93, 33
1, 368343, Note_on_c, 0, 65, 0
1, 368343, Note_on_c, 0, 81, 0
1, 368357, Note_on_c, 0, 59, 0
1, 368366, Note_on_c, 0, 61, 0
1, 368382, Note_on_c, 0, 93, 0
1, 368446, Note_on_c, 0, 53, 85
1, 368482, Note_on_c, 0, 53, 0
1, 368539, Note_on_c, 0, 70, 67
1, 368571, Note_on_c, 0, 70, 0
1, 368659, Note_on_c, 0, 65, 52
1, 368670, Note_on_c, 0, 61, 53
1, 368670, Note_on_c, 0, 94, 67
1, 368678, Note_on_c, 0, 82, 69
1, 368695, Note_on_c, 0, 65, 0
1, 368702, Note_on_c, 0, 94, 0
1, 368708, Note_on_c, 0, 61, 0
1, 368708, Note_on_c, 0, 82, 0
1, 368789, Note_on_c, 0, 49, 62
1, 368823, Note_on_c, 0, 49, 0
1, 368876, Note_on_c, 0, 75, 70
1, 368904, Note_on_c, 0, 75, 0
1, 369001, Note_on_c, 0, 99, 70
1, 369001, Note_on_c, 0, 87, 61
1, 369010, Note_on_c, 0, 65, 46
1, 369017, Note_on_c, 0, 61, 36
1, 369029, Note_on_c, 0, 99, 0
1, 369029, Note_on_c, 0, 59, 27
1, 369039, Note_on_c, 0, 87, 0
1, 369051, Note_on_c, 0, 65, 0
1, 369071, Note_on_c, 0, 61, 0
1, 369078, Note_on_c, 0, 59, 0
1, 369118, Note_on_c, 0, 53, 79
1, 369156, Note_on_c, 0, 53, 0
1, 369216, Note_on_c, 0, 69, 76
1, 369244, Note_on_c, 0, 69, 0
1, 369287, Note_on_c, 0, 65, 27
1, 369293, Note_on_c, 0, 59, 44
1, 369293, Note_on_c, 0, 61, 40
1, 369335, Note_on_c, 0, 59, 0
1, 369335, Note_on_c, 0, 93, 83
1, 369341, Note_on_c, 0, 65, 0
1, 369344, Note_on_c, 0, 61, 0
1, 369344, Note_on_c, 0, 81, 67
1, 369366, Note_on_c, 0, 93, 0
1, 369380, Note_on_c, 0, 81, 0
1, 369433, Note_on_c, 0, 37, 92
1, 369449, Note_on_c, 0, 49, 52
1, 369466, Note_on_c, 0, 37, 0
1, 369488, Note_on_c, 0, 49, 0
1, 369535, Note_on_c, 0, 69, 70
1, 369564, Note_on_c, 0, 69, 0
1, 369656, Note_on_c, 0, 66, 65
1, 369664, Note_on_c, 0, 93, 52
1, 369664, Note_on_c, 0, 81, 54
1, 369669, Note_on_c, 0, 58, 44
1, 369684, Note_on_c, 0, 61, 43
1, 369695, Note_on_c, 0, 66, 0
1, 369709, Note_on_c, 0, 81, 0
1, 369709, Note_on_c, 0, 93, 0
1, 369723, Note_on_c, 0, 58, 0
1, 369728, Note_on_c, 0, 61, 0
1, 369789, Note_on_c, 0, 54, 75
1, 369834, Note_on_c, 0, 54, 0
1, 369850, Note_on_c, 0, 70, 77
1, 369878, Note_on_c, 0, 70, 0
1, 369962, Note_on_c, 0, 66, 77
1, 369979, Note_on_c, 0, 58, 47
1, 369979, Note_on_c, 0, 61, 62
1, 369985, Note_on_c, 0, 94, 76
1, 369985, Note_on_c, 0, 82, 77
1, 370001, Note_on_c, 0, 66, 0
1, 370014, Note_on_c, 0, 94, 0
1, 370014, Note_on_c, 0, 61, 0
1, 370014, Note_on_c, 0, 82, 0
1, 370021, Note_on_c, 0, 58, 0
1, 370084, Control_c, 0, 64, 127
1, 370099, Note_on_c, 0, 62, 113
1, 370102, Note_on_c, 0, 50, 110
1, 370185, Note_on_c, 0, 82, 97
1, 370185, Note_on_c, 0, 74, 117
1, 370185, Note_on_c, 0, 78, 98
1, 370188, Note_on_c, 0, 86, 101
1, 370205, Note_on_c, 0, 74, 0
1, 370208, Note_on_c, 0, 78, 0
1, 370208, Note_on_c, 0, 82, 0
1, 370208, Note_on_c, 0, 86, 0
1, 370226, Note_on_c, 0, 50, 0
1, 370229, Note_on_c, 0, 62, 0
1, 370270, Note_on_c, 0, 62, 111
1, 370273, Note_on_c, 0, 86, 62
1, 370273, Note_on_c, 0, 58, 70
1, 370273, Note_on_c, 0, 78, 19
1, 370276, Note_on_c, 0, 82, 81
1, 370276, Note_on_c, 0, 54, 84
1, 370276, Note_on_c, 0, 74, 75
1, 370310, Note_on_c, 0, 86, 0
1, 370324, Note_on_c, 0, 74, 0
1, 370339, Note_on_c, 0, 62, 0
1, 370343, Note_on_c, 0, 82, 0
1, 370346, Note_on_c, 0, 78, 0
1, 370354, Note_on_c, 0, 58, 0
1, 370369, Note_on_c, 0, 54, 0
1, 370377, Note_on_c, 0, 74, 108
1, 370382, Note_on_c, 0, 82, 97
1, 370382, Note_on_c, 0, 78, 94
1, 370385, Note_on_c, 0, 62, 111
1, 370394, Note_on_c, 0, 49, 88
1, 370394, Note_on_c, 0, 86, 61
1, 370414, Note_on_c, 0, 62, 0
1, 370418, Note_on_c, 0, 78, 0
1, 370421, Note_on_c, 0, 49, 0
1, 370435, Note_on_c, 0, 86, 0
1, 370446, Note_on_c, 0, 74, 0
1, 370452, Note_on_c, 0, 82, 0
1, 370486, Note_on_c, 0, 82, 85
1, 370489, Note_on_c, 0, 73, 95
1, 370494, Note_on_c, 0, 85, 73
1, 370494, Note_on_c, 0, 78, 63
1, 370505, Note_on_c, 0, 61, 87
1, 370519, Note_on_c, 0, 54, 72
1, 370519, Note_on_c, 0, 85, 0
1, 370519, Note_on_c, 0, 58, 32
1, 370524, Note_on_c, 0, 78, 0
1, 370531, Note_on_c, 0, 82, 0
1, 370538, Note_on_c, 0, 73, 0
1, 370542, Note_on_c, 0, 61, 0
1, 370563, Note_on_c, 0, 58, 0
1, 370570, Note_on_c, 0, 54, 0
1, 370583, Note_on_c, 0, 85, 48
1, 370589, Note_on_c, 0, 73, 78
1, 370589, Note_on_c, 0, 78, 63
1, 370594, Note_on_c, 0, 82, 59
1, 370614, Note_on_c, 0, 85, 0
1, 370617, Note_on_c, 0, 78, 0
1, 370624, Note_on_c, 0, 82, 0
1, 370634, Control_c, 0, 64, 0
1, 370666, Note_on_c, 0, 73, 0
1, 370703, Note_on_c, 0, 37, 86
1, 370703, Note_on_c, 0, 49, 86
1, 370730, Note_on_c, 0, 37, 0
1, 370736, Note_on_c, 0, 49, 0
1, 370787, Note_on_c, 0, 69, 66
1, 370819, Note_on_c, 0, 69, 0
1, 370904, Note_on_c, 0, 81, 82
1, 370904, Note_on_c, 0, 93, 83
1, 370915, Note_on_c, 0, 65, 50
1, 370926, Note_on_c, 0, 59, 49
1, 370932, Note_on_c, 0, 81, 0
1, 370937, Note_on_c, 0, 93, 0
1, 370951, Note_on_c, 0, 65, 0
1, 370964, Note_on_c, 0, 59, 0
1, 371054, Note_on_c, 0, 53, 81
1, 371092, Note_on_c, 0, 53, 0
1, 371123, Note_on_c, 0, 70, 71
1, 371152, Note_on_c, 0, 70, 0
1, 371241, Note_on_c, 0, 65, 55
1, 371246, Note_on_c, 0, 94, 75
1, 371252, Note_on_c, 0, 82, 79
1, 371252, Note_on_c, 0, 59, 43
1, 371255, Note_on_c, 0, 61, 49
1, 371274, Note_on_c, 0, 94, 0
1, 371274, Note_on_c, 0, 65, 0
1, 371282, Note_on_c, 0, 82, 0
1, 371296, Note_on_c, 0, 59, 0
1, 371296, Note_on_c, 0, 61, 0
1, 371368, Note_on_c, 0, 49, 81
1, 371408, Note_on_c, 0, 49, 0
1, 371449, Note_on_c, 0, 75, 68
1, 371477, Note_on_c, 0, 75, 0
1, 371569, Note_on_c, 0, 99, 79
1, 371578, Note_on_c, 0, 87, 63
1, 371584, Note_on_c, 0, 65, 58
1, 371592, Note_on_c, 0, 99, 0
1, 371592, Note_on_c, 0, 61, 46
1, 371600, Note_on_c, 0, 59, 43
1, 371611, Note_on_c, 0, 87, 0
1, 371623, Note_on_c, 0, 65, 0
1, 371642, Note_on_c, 0, 59, 0
1, 371642, Note_on_c, 0, 61, 0
1, 371716, Note_on_c, 0, 53, 83
1, 371753, Note_on_c, 0, 53, 0
1, 371776, Note_on_c, 0, 69, 63
1, 371811, Note_on_c, 0, 69, 0
1, 371876, Note_on_c, 0, 65, 38
1, 371884, Note_on_c, 0, 61, 52
1, 371892, Note_on_c, 0, 59, 34
1, 371897, Note_on_c, 0, 93, 91
1, 371904, Note_on_c, 0, 81, 71
1, 371923, Note_on_c, 0, 65, 0
1, 371923, Note_on_c, 0, 61, 0
1, 371923, Note_on_c, 0, 93, 0
1, 371937, Note_on_c, 0, 81, 0
1, 371940, Note_on_c, 0, 59, 0
1, 372018, Note_on_c, 0, 37, 96
1, 372026, Note_on_c, 0, 49, 73
1, 372045, Note_on_c, 0, 37, 0
1, 372057, Note_on_c, 0, 49, 0
1, 372109, Note_on_c, 0, 69, 74
1, 372138, Note_on_c, 0, 69, 0
1, 372224, Note_on_c, 0, 66, 70
1, 372230, Note_on_c, 0, 93, 93
1, 372235, Note_on_c, 0, 58, 49
1, 372244, Note_on_c, 0, 81, 73
1, 372254, Note_on_c, 0, 61, 49
1, 372254, Note_on_c, 0, 93, 0
1, 372269, Note_on_c, 0, 66, 0
1, 372276, Note_on_c, 0, 81, 0
1, 372290, Note_on_c, 0, 58, 0
1, 372294, Note_on_c, 0, 61, 0
1, 372357, Note_on_c, 0, 54, 76
1, 372422, Note_on_c, 0, 54, 0
1, 372439, Note_on_c, 0, 70, 77
1, 372466, Note_on_c, 0, 70, 0
1, 372555, Note_on_c, 0, 66, 77
1, 372570, Note_on_c, 0, 61, 67
1, 372570, Note_on_c, 0, 58, 48
1, 372581, Note_on_c, 0, 82, 88
1, 372581, Note_on_c, 0, 94, 86
1, 372603, Note_on_c, 0, 66, 0
1, 372606, Note_on_c, 0, 94, 0
1, 372606, Note_on_c, 0, 61, 0
1, 372611, Note_on_c, 0, 82, 0
1, 372617, Note_on_c, 0, 58, 0
1, 372698, Note_on_c, 0, 62, 113
1, 372701, Note_on_c, 0, 50, 111
1, 372720, Control_c, 0, 64, 127
1, 372786, Note_on_c, 0, 74, 111
1, 372789, Note_on_c, 0, 78, 91
1, 372789, Note_on_c, 0, 86, 89
1, 372789, Note_on_c, 0, 82, 79
1, 372806, Note_on_c, 0, 74, 0
1, 372812, Note_on_c, 0, 78, 0
1, 372817, Note_on_c, 0, 82, 0
1, 372817, Note_on_c, 0, 62, 0
1, 372817, Note_on_c, 0, 86, 0
1, 372823, Note_on_c, 0, 50, 0
1, 372850, Note_on_c, 0, 58, 76
1, 372854, Note_on_c, 0, 54, 91
1, 372859, Note_on_c, 0, 86, 79
1, 372862, Note_on_c, 0, 78, 48
1, 372862, Note_on_c, 0, 82, 69
1, 372862, Note_on_c, 0, 74, 74
1, 372895, Note_on_c, 0, 86, 0
1, 372914, Note_on_c, 0, 74, 0
1, 372914, Note_on_c, 0, 78, 0
1, 372926, Note_on_c, 0, 58, 0
1, 372937, Note_on_c, 0, 82, 0
1, 372940, Note_on_c, 0, 54, 0
1, 372961, Note_on_c, 0, 86, 79
1, 372967, Note_on_c, 0, 74, 105
1, 372970, Note_on_c, 0, 62, 111
1, 372973, Note_on_c, 0, 82, 95
1, 372973, Note_on_c, 0, 78, 82
1, 372976, Note_on_c, 0, 49, 97
1, 372997, Note_on_c, 0, 86, 0
1, 373004, Note_on_c, 0, 60, 36
1, 373009, Note_on_c, 0, 78, 0
1, 373013, Note_on_c, 0, 62, 0
1, 373026, Note_on_c, 0, 74, 0
1, 373026, Note_on_c, 0, 49, 0
1, 373051, Note_on_c, 0, 82, 0
1, 373062, Note_on_c, 0, 60, 0
1, 373073, Note_on_c, 0, 73, 106
1, 373079, Note_on_c, 0, 78, 63
1, 373079, Note_on_c, 0, 85, 79
1, 373079, Note_on_c, 0, 82, 69
1, 373109, Note_on_c, 0, 78, 0
1, 373109, Note_on_c, 0, 85, 0
1, 373113, Note_on_c, 0, 82, 0
1, 373129, Note_on_c, 0, 73, 0
1, 373146, Note_on_c, 0, 61, 93
1, 373157, Note_on_c, 0, 58, 62
1, 373163, Note_on_c, 0, 54, 84
1, 373169, Note_on_c, 0, 85, 49
1, 373169, Note_on_c, 0, 73, 95
1, 373173, Note_on_c, 0, 82, 57
1, 373184, Note_on_c, 0, 78, 29
1, 373184, Control_c, 0, 64, 0
1, 373188, Note_on_c, 0, 61, 0
1, 373188, Note_on_c, 0, 58, 0
1, 373194, Note_on_c, 0, 54, 0
1, 373202, Note_on_c, 0, 85, 0
1, 373208, Note_on_c, 0, 82, 0
1, 373224, Note_on_c, 0, 78, 0
1, 373257, Note_on_c, 0, 73, 0
1, 373307, Note_on_c, 0, 51, 96
1, 373307, Note_on_c, 0, 39, 86
1, 373333, Note_on_c, 0, 39, 0
1, 373336, Note_on_c, 0, 51, 0
1, 373386, Note_on_c, 0, 69, 58
1, 373425, Note_on_c, 0, 69, 0
1, 373508, Note_on_c, 0, 93, 78
1, 373508, Note_on_c, 0, 81, 76
1, 373524, Note_on_c, 0, 67, 55
1, 373530, Note_on_c, 0, 63, 34
1, 373535, Note_on_c, 0, 61, 28
1, 373539, Note_on_c, 0, 93, 0
1, 373539, Note_on_c, 0, 81, 0
1, 373567, Note_on_c, 0, 67, 0
1, 373586, Note_on_c, 0, 63, 0
1, 373586, Note_on_c, 0, 61, 0
1, 373653, Note_on_c, 0, 55, 68
1, 373703, Note_on_c, 0, 55, 0
1, 373750, Note_on_c, 0, 70, 72
1, 373778, Note_on_c, 0, 70, 0
1, 373875, Note_on_c, 0, 67, 54
1, 373887, Note_on_c, 0, 94, 60
1, 373887, Note_on_c, 0, 63, 52
1, 373887, Note_on_c, 0, 61, 41
1, 373904, Note_on_c, 0, 85, 25
1, 373915, Note_on_c, 0, 67, 0
1, 373921, Note_on_c, 0, 94, 0
1, 373924, Note_on_c, 0, 63, 0
1, 373937, Note_on_c, 0, 61, 0
1, 373957, Note_on_c, 0, 85, 0
1, 374004, Note_on_c, 0, 51, 79
1, 374049, Note_on_c, 0, 51, 0
1, 374095, Note_on_c, 0, 76, 65
1, 374126, Note_on_c, 0, 76, 0
1, 374230, Note_on_c, 0, 100, 74
1, 374238, Note_on_c, 0, 88, 65
1, 374251, Note_on_c, 0, 67, 49
1, 374251, Note_on_c, 0, 61, 47
1, 374258, Note_on_c, 0, 100, 0
1, 374274, Note_on_c, 0, 88, 0
1, 374274, Note_on_c, 0, 63, 26
1, 374299, Note_on_c, 0, 67, 0
1, 374299, Note_on_c, 0, 61, 0
1, 374322, Note_on_c, 0, 63, 0
1, 374388, Note_on_c, 0, 55, 68
1, 374433, Note_on_c, 0, 55, 0
1, 374455, Note_on_c, 0, 70, 63
1, 374488, Note_on_c, 0, 70, 0
1, 374558, Note_on_c, 0, 67, 60
1, 374572, Note_on_c, 0, 63, 52
1, 374572, Note_on_c, 0, 61, 52
1, 374581, Note_on_c, 0, 94, 78
1, 374591, Note_on_c, 0, 82, 66
1, 374597, Note_on_c, 0, 67, 0
1, 374609, Note_on_c, 0, 63, 0
1, 374609, Note_on_c, 0, 94, 0
1, 374612, Note_on_c, 0, 61, 0
1, 374623, Note_on_c, 0, 82, 0
1, 374705, Note_on_c, 0, 39, 83
1, 374712, Note_on_c, 0, 51, 60
1, 374736, Note_on_c, 0, 39, 0
1, 374750, Note_on_c, 0, 51, 0
1, 374793, Note_on_c, 0, 70, 68
1, 374820, Note_on_c, 0, 70, 0
1, 374928, Note_on_c, 0, 68, 71
1, 374940, Note_on_c, 0, 94, 74
1, 374943, Note_on_c, 0, 82, 67
1, 374949, Note_on_c, 0, 63, 56
1, 374957, Note_on_c, 0, 59, 41
1, 374971, Note_on_c, 0, 94, 0
1, 374976, Note_on_c, 0, 68, 0
1, 374976, Note_on_c, 0, 82, 0
1, 374984, Note_on_c, 0, 63, 0
1, 374999, Note_on_c, 0, 59, 0
1, 375082, Note_on_c, 0, 56, 76
1, 375174, Note_on_c, 0, 71, 73
1, 375174, Note_on_c, 0, 56, 0
1, 375210, Note_on_c, 0, 71, 0
1, 375247, Note_on_c, 0, 68, 76
1, 375268, Note_on_c, 0, 59, 66
1, 375274, Note_on_c, 0, 63, 62
1, 375294, Note_on_c, 0, 95, 87
1, 375299, Note_on_c, 0, 83, 100
1, 375305, Note_on_c, 0, 63, 0
1, 375305, Note_on_c, 0, 59, 0
1, 375310, Note_on_c, 0, 68, 0
1, 375322, Note_on_c, 0, 95, 0
1, 375325, Note_on_c, 0, 83, 0
1, 375414, Note_on_c, 0, 52, 113
1, 375414, Note_on_c, 0, 64, 106
1, 375477, Control_c, 0, 64, 127
1, 375494, Note_on_c, 0, 76, 110
1, 375494, Note_on_c, 0, 88, 103
1, 375499, Note_on_c, 0, 80, 89
1, 375499, Note_on_c, 0, 83, 108
1, 375503, Note_on_c, 0, 52, 0
1, 375511, Note_on_c, 0, 76, 0
1, 375520, Note_on_c, 0, 88, 0
1, 375520, Note_on_c, 0, 64, 0
1, 375520, Note_on_c, 0, 80, 0
1, 375525, Note_on_c, 0, 83, 0
1, 375558, Note_on_c, 0, 56, 76
1, 375558, Note_on_c, 0, 59, 78
1, 375562, Note_on_c, 0, 64, 117
1, 375578, Note_on_c, 0, 83, 97
1, 375578, Note_on_c, 0, 80, 51
1, 375578, Note_on_c, 0, 88, 72
1, 375584, Note_on_c, 0, 76, 44
1, 375609, Note_on_c, 0, 88, 0
1, 375622, Note_on_c, 0, 64, 0
1, 375622, Note_on_c, 0, 76, 0
1, 375637, Note_on_c, 0, 59, 0
1, 375645, Note_on_c, 0, 83, 0
1, 375651, Note_on_c, 0, 56, 0
1, 375654, Note_on_c, 0, 80, 0
1, 375672, Note_on_c, 0, 64, 117
1, 375678, Note_on_c, 0, 51, 100
1, 375678, Note_on_c, 0, 76, 91
1, 375681, Note_on_c, 0, 83, 123
1, 375687, Note_on_c, 0, 80, 102
1, 375690, Note_on_c, 0, 88, 61
1, 375725, Note_on_c, 0, 88, 0
1, 375731, Note_on_c, 0, 64, 0
1, 375742, Note_on_c, 0, 76, 0
1, 375758, Note_on_c, 0, 51, 0
1, 375758, Note_on_c, 0, 83, 0
1, 375767, Note_on_c, 0, 80, 0
1, 375786, Note_on_c, 0, 87, 85
1, 375789, Note_on_c, 0, 75, 95
1, 375792, Note_on_c, 0, 83, 101
1, 375795, Note_on_c, 0, 80, 45
1, 375814, Note_on_c, 0, 87, 0
1, 375823, Note_on_c, 0, 83, 0
1, 375828, Note_on_c, 0, 75, 0
1, 375828, Note_on_c, 0, 80, 0
1, 375839, Note_on_c, 0, 56, 50
1, 375842, Note_on_c, 0, 63, 86
1, 375846, Note_on_c, 0, 59, 54
1, 375870, Note_on_c, 0, 63, 0
1, 375879, Note_on_c, 0, 59, 0
1, 375884, Note_on_c, 0, 75, 81
1, 375884, Note_on_c, 0, 83, 94
1, 375884, Note_on_c, 0, 87, 52
1, 375903, Note_on_c, 0, 80, 25
1, 375903, Note_on_c, 0, 56, 0
1, 375918, Note_on_c, 0, 83, 0
1, 375921, Note_on_c, 0, 87, 0
1, 375943, Control_c, 0, 64, 0
1, 375954, Note_on_c, 0, 80, 0
1, 375973, Note_on_c, 0, 75, 0
1, 376012, Note_on_c, 0, 51, 84
1, 376012, Note_on_c, 0, 39, 86
1, 376037, Note_on_c, 0, 39, 0
1, 376043, Note_on_c, 0, 51, 0
1, 376099, Note_on_c, 0, 69, 73
1, 376129, Note_on_c, 0, 69, 0
1, 376232, Note_on_c, 0, 93, 83
1, 376232, Note_on_c, 0, 81, 84
1, 376243, Note_on_c, 0, 67, 48
1, 376243, Note_on_c, 0, 61, 44
1, 376243, Note_on_c, 0, 63, 38
1, 376260, Note_on_c, 0, 81, 0
1, 376260, Note_on_c, 0, 93, 0
1, 376289, Note_on_c, 0, 67, 0
1, 376297, Note_on_c, 0, 61, 0
1, 376300, Note_on_c, 0, 63, 0
1, 376381, Note_on_c, 0, 55, 63
1, 376424, Note_on_c, 0, 55, 0
1, 376469, Note_on_c, 0, 70, 67
1, 376498, Note_on_c, 0, 70, 0
1, 376586, Note_on_c, 0, 67, 63
1, 376597, Note_on_c, 0, 63, 60
1, 376597, Note_on_c, 0, 61, 60
1, 376600, Note_on_c, 0, 94, 68
1, 376603, Note_on_c, 0, 82, 76
1, 376622, Note_on_c, 0, 67, 0
1, 376631, Note_on_c, 0, 63, 0
1, 376631, Note_on_c, 0, 94, 0
1, 376631, Note_on_c, 0, 61, 0
1, 376631, Note_on_c, 0, 82, 0
1, 376728, Note_on_c, 0, 51, 84
1, 376818, Note_on_c, 0, 51, 0
1, 376829, Note_on_c, 0, 76, 64
1, 376860, Note_on_c, 0, 76, 0
1, 376948, Note_on_c, 0, 67, 58
1, 376951, Note_on_c, 0, 100, 85
1, 376956, Note_on_c, 0, 61, 49
1, 376963, Note_on_c, 0, 88, 54
1, 376963, Note_on_c, 0, 63, 40
1, 376974, Note_on_c, 0, 100, 0
1, 376990, Note_on_c, 0, 67, 0
1, 377001, Note_on_c, 0, 61, 0
1, 377005, Note_on_c, 0, 88, 0
1, 377009, Note_on_c, 0, 63, 0
1, 377083, Note_on_c, 0, 55, 59
1, 377122, Note_on_c, 0, 55, 0
1, 377155, Note_on_c, 0, 70, 69
1, 377186, Note_on_c, 0, 70, 0
1, 377252, Note_on_c, 0, 67, 48
1, 377257, Note_on_c, 0, 61, 56
1, 377261, Note_on_c, 0, 63, 50
1, 377279, Note_on_c, 0, 94, 84
1, 377283, Note_on_c, 0, 82, 77
1, 377293, Note_on_c, 0, 61, 0
1, 377297, Note_on_c, 0, 63, 0
1, 377297, Note_on_c, 0, 67, 0
1, 377302, Note_on_c, 0, 94, 0
1, 377319, Note_on_c, 0, 82, 0
1, 377392, Note_on_c, 0, 39, 86
1, 377408, Note_on_c, 0, 51, 42
1, 377416, Note_on_c, 0, 39, 0
1, 377456, Note_on_c, 0, 51, 0
1, 377470, Note_on_c, 0, 70, 79
1, 377498, Note_on_c, 0, 70, 0
1, 377606, Note_on_c, 0, 94, 84
1, 377609, Note_on_c, 0, 82, 82
1, 377612, Note_on_c, 0, 68, 67
1, 377630, Note_on_c, 0, 94, 0
1, 377630, Note_on_c, 0, 63, 57
1, 377637, Note_on_c, 0, 82, 0
1, 377637, Note_on_c, 0, 59, 49
1, 377661, Note_on_c, 0, 68, 0
1, 377670, Note_on_c, 0, 63, 0
1, 377681, Note_on_c, 0, 59, 0
1, 377753, Note_on_c, 0, 56, 78
1, 377846, Note_on_c, 0, 56, 0
1, 377849, Note_on_c, 0, 71, 88
1, 377876, Note_on_c, 0, 71, 0
1, 377920, Note_on_c, 0, 68, 83
1, 377943, Note_on_c, 0, 59, 63
1, 377946, Note_on_c, 0, 63, 65
1, 377981, Note_on_c, 0, 95, 84
1, 377981, Control_c, 0, 64, 127
1, 377984, Note_on_c, 0, 83, 25
1, 377984, Note_on_c, 0, 63, 0
1, 377987, Note_on_c, 0, 59, 0
1, 378004, Note_on_c, 0, 95, 0
1, 378009, Note_on_c, 0, 68, 0
1, 378026, Note_on_c, 0, 83, 0
1, 378079, Note_on_c, 0, 64, 108
1, 378090, Note_on_c, 0, 52, 102
1, 378154, Note_on_c, 0, 88, 102
1, 378154, Note_on_c, 0, 76, 101
1, 378157, Note_on_c, 0, 80, 86
1, 378172, Note_on_c, 0, 83, 82
1, 378175, Note_on_c, 0, 88, 0
1, 378175, Note_on_c, 0, 76, 0
1, 378182, Note_on_c, 0, 80, 0
1, 378188, Note_on_c, 0, 64, 0
1, 378205, Note_on_c, 0, 83, 0
1, 378230, Note_on_c, 0, 88, 70
1, 378235, Note_on_c, 0, 56, 75
1, 378235, Note_on_c, 0, 80, 54
1, 378235, Note_on_c, 0, 76, 50
1, 378238, Note_on_c, 0, 59, 87
1, 378238, Note_on_c, 0, 83, 121
1, 378242, Note_on_c, 0, 64, 108
1, 378249, Note_on_c, 0, 52, 0
1, 378303, Note_on_c, 0, 88, 0
1, 378306, Note_on_c, 0, 76, 0
1, 378311, Note_on_c, 0, 80, 0
1, 378314, Note_on_c, 0, 83, 0
1, 378318, Note_on_c, 0, 64, 0
1, 378321, Note_on_c, 0, 59, 0
1, 378327, Note_on_c, 0, 56, 0
1, 378341, Note_on_c, 0, 76, 101
1, 378347, Note_on_c, 0, 88, 79
1, 378347, Note_on_c, 0, 64, 108
1, 378350, Note_on_c, 0, 80, 92
1, 378350, Note_on_c, 0, 83, 103
1, 378360, Note_on_c, 0, 51, 90
1, 378377, Note_on_c, 0, 88, 0
1, 378391, Note_on_c, 0, 76, 0
1, 378399, Note_on_c, 0, 83, 0
1, 378413, Control_c, 0, 64, 0
1, 378425, Note_on_c, 0, 64, 0
1, 378429, Note_on_c, 0, 80, 0
1, 378449, Control_c, 0, 64, 127
1, 378449, Note_on_c, 0, 83, 105
1, 378452, Note_on_c, 0, 75, 100
1, 378455, Note_on_c, 0, 87, 83
1, 378455, Note_on_c, 0, 51, 0
1, 378463, Note_on_c, 0, 80, 53
1, 378489, Note_on_c, 0, 87, 0
1, 378489, Note_on_c, 0, 80, 0
1, 378503, Note_on_c, 0, 83, 0
1, 378531, Note_on_c, 0, 75, 0
1, 378536, Note_on_c, 0, 63, 89
1, 378545, Note_on_c, 0, 59, 51
1, 378545, Note_on_c, 0, 87, 62
1, 378551, Note_on_c, 0, 56, 60
1, 378556, Note_on_c, 0, 83, 101
1, 378556, Note_on_c, 0, 75, 56
1, 378562, Note_on_c, 0, 80, 20
1, 378562, Note_on_c, 0, 63, 0
1, 378581, Note_on_c, 0, 87, 0
1, 378581, Note_on_c, 0, 83, 0
1, 378584, Note_on_c, 0, 56, 0
1, 378592, Control_c, 0, 64, 0
1, 378606, Note_on_c, 0, 80, 0
1, 378622, Note_on_c, 0, 59, 0
1, 378651, Note_on_c, 0, 75, 0
1, 378717, Note_on_c, 0, 54, 86
1, 378720, Note_on_c, 0, 42, 78
1, 378751, Note_on_c, 0, 54, 0
1, 378751, Note_on_c, 0, 42, 0
1, 378807, Control_c, 0, 64, 127
1, 378831, Note_on_c, 0, 71, 83
1, 378862, Note_on_c, 0, 71, 0
1, 379005, Note_on_c, 0, 69, 46
1, 379013, Note_on_c, 0, 83, 89
1, 379016, Note_on_c, 0, 95, 56
1, 379016, Note_on_c, 0, 60, 45
1, 379024, Note_on_c, 0, 63, 29
1, 379043, Note_on_c, 0, 83, 0
1, 379054, Note_on_c, 0, 69, 0
1, 379054, Note_on_c, 0, 95, 0
1, 379072, Note_on_c, 0, 60, 0
1, 379072, Note_on_c, 0, 63, 0
1, 379140, Note_on_c, 0, 57, 68
1, 379207, Note_on_c, 0, 57, 0
1, 379216, Note_on_c, 0, 72, 80
1, 379244, Note_on_c, 0, 72, 0
1, 379296, Note_on_c, 0, 69, 51
1, 379300, Note_on_c, 0, 60, 69
1, 379317, Note_on_c, 0, 63, 32
1, 379336, Note_on_c, 0, 60, 0
1, 379341, Note_on_c, 0, 69, 0
1, 379341, Note_on_c, 0, 96, 97
1, 379352, Note_on_c, 0, 84, 65
1, 379363, Note_on_c, 0, 96, 0
1, 379367, Note_on_c, 0, 63, 0
1, 379385, Note_on_c, 0, 84, 0
1, 379480, Control_c, 0, 64, 0
1, 379511, Note_on_c, 0, 41, 101
1, 379511, Note_on_c, 0, 53, 111
1, 379539, Note_on_c, 0, 41, 0
1, 379575, Note_on_c, 0, 53, 0
1, 379594, Note_on_c, 0, 78, 83
1, 379611, Control_c, 0, 64, 127
1, 379620, Note_on_c, 0, 78, 0
1, 379731, Note_on_c, 0, 102, 91
1, 379734, Note_on_c, 0, 90, 88
1, 379746, Note_on_c, 0, 69, 58
1, 379753, Note_on_c, 0, 63, 58
1, 379753, Note_on_c, 0, 102, 0
1, 379762, Note_on_c, 0, 90, 0
1, 379762, Note_on_c, 0, 60, 54
1, 379785, Note_on_c, 0, 69, 0
1, 379798, Note_on_c, 0, 63, 0
1, 379818, Note_on_c, 0, 60, 0
1, 379881, Note_on_c, 0, 57, 69
1, 379941, Note_on_c, 0, 57, 0
1, 379949, Note_on_c, 0, 72, 81
1, 379977, Note_on_c, 0, 72, 0
1, 380051, Note_on_c, 0, 63, 70
1, 380051, Note_on_c, 0, 69, 49
1, 380066, Note_on_c, 0, 60, 42
1, 380080, Note_on_c, 0, 63, 0
1, 380097, Note_on_c, 0, 69, 0
1, 380097, Note_on_c, 0, 96, 97
1, 380104, Note_on_c, 0, 84, 32
1, 380116, Note_on_c, 0, 60, 0
1, 380120, Note_on_c, 0, 96, 0
1, 380150, Control_c, 0, 64, 0
1, 380158, Note_on_c, 0, 84, 0
1, 380204, Note_on_c, 0, 54, 99
1, 380204, Note_on_c, 0, 42, 95
1, 380233, Note_on_c, 0, 54, 0
1, 380233, Note_on_c, 0, 42, 0
1, 380294, Control_c, 0, 64, 127
1, 380311, Note_on_c, 0, 71, 92
1, 380338, Note_on_c, 0, 71, 0
1, 380447, Note_on_c, 0, 95, 96
1, 380455, Note_on_c, 0, 83, 104
1, 380455, Note_on_c, 0, 69, 62
1, 380467, Note_on_c, 0, 95, 0
1, 380467, Note_on_c, 0, 63, 53
1, 380481, Note_on_c, 0, 83, 0
1, 380481, Note_on_c, 0, 60, 36
1, 380495, Note_on_c, 0, 69, 0
1, 380508, Note_on_c, 0, 63, 0
1, 380536, Note_on_c, 0, 60, 0
1, 380592, Note_on_c, 0, 57, 69
1, 380650, Note_on_c, 0, 57, 0
1, 380693, Note_on_c, 0, 72, 14
1, 380735, Note_on_c, 0, 72, 0
1, 380787, Note_on_c, 0, 96, 94
1, 380802, Note_on_c, 0, 69, 63
1, 380806, Note_on_c, 0, 84, 44
1, 380810, Note_on_c, 0, 60, 72
1, 380810, Note_on_c, 0, 96, 0
1, 380817, Note_on_c, 0, 63, 49
1, 380839, Note_on_c, 0, 69, 0
1, 380845, Note_on_c, 0, 60, 0
1, 380851, Note_on_c, 0, 84, 0
1, 380856, Note_on_c, 0, 63, 0
1, 380906, Control_c, 0, 64, 0
1, 380975, Note_on_c, 0, 41, 40
1, 380979, Note_on_c, 0, 53, 80
1, 381010, Note_on_c, 0, 53, 0
1, 381026, Note_on_c, 0, 41, 0
1, 381040, Note_on_c, 0, 78, 81
1, 381049, Control_c, 0, 64, 127
1, 381066, Note_on_c, 0, 78, 0
1, 381178, Note_on_c, 0, 69, 69
1, 381182, Note_on_c, 0, 102, 35
1, 381182, Note_on_c, 0, 90, 65
1, 381185, Note_on_c, 0, 60, 59
1, 381188, Note_on_c, 0, 63, 69
1, 381219, Note_on_c, 0, 90, 0
1, 381235, Note_on_c, 0, 102, 0
1, 381241, Note_on_c, 0, 69, 0
1, 381263, Note_on_c, 0, 63, 0
1, 381288, Note_on_c, 0, 60, 0
1, 381316, Note_on_c, 0, 57, 78
1, 381372, Note_on_c, 0, 78, 81
1, 381405, Note_on_c, 0, 78, 0
1, 381409, Note_on_c, 0, 57, 0
1, 381514, Note_on_c, 0, 63, 73
1, 381514, Note_on_c, 0, 69, 55
1, 381522, Note_on_c, 0, 60, 64
1, 381536, Note_on_c, 0, 90, 73
1, 381539, Note_on_c, 0, 102, 35
1, 381542, Note_on_c, 0, 63, 0
1, 381558, Note_on_c, 0, 69, 0
1, 381558, Note_on_c, 0, 60, 0
1, 381565, Note_on_c, 0, 90, 0
1, 381592, Note_on_c, 0, 102, 0
1, 381648, Control_c, 0, 64, 0
1, 381729, Note_on_c, 0, 40, 118
1, 381737, Note_on_c, 0, 52, 98
1, 381749, Note_on_c, 0, 40, 0
1, 381762, Note_on_c, 0, 52, 0
1, 381829, Control_c, 0, 64, 127
1, 381937, Note_on_c, 0, 92, 86
1, 381937, Note_on_c, 0, 90, 79
1, 381941, Note_on_c, 0, 72, 61
1, 381941, Note_on_c, 0, 84, 103
1, 381941, Note_on_c, 0, 96, 91
1, 381941, Note_on_c, 0, 68, 64
1, 381949, Note_on_c, 0, 66, 48
1, 381959, Note_on_c, 0, 62, 33
1, 381959, Note_on_c, 0, 92, 0
1, 381962, Note_on_c, 0, 84, 0
1, 381966, Note_on_c, 0, 90, 0
1, 381966, Note_on_c, 0, 96, 0
1, 381976, Note_on_c, 0, 72, 0
1, 381991, Note_on_c, 0, 66, 0
1, 381996, Note_on_c, 0, 68, 0
1, 382002, Note_on_c, 0, 92, 59
1, 382007, Note_on_c, 0, 96, 92
1, 382007, Note_on_c, 0, 84, 75
1, 382007, Note_on_c, 0, 90, 64
1, 382010, Note_on_c, 0, 62, 0
1, 382016, Note_on_c, 0, 62, 84
1, 382019, Note_on_c, 0, 66, 72
1, 382019, Note_on_c, 0, 68, 24
1, 382019, Note_on_c, 0, 72, 28
1, 382038, Note_on_c, 0, 96, 0
1, 382047, Note_on_c, 0, 90, 0
1, 382047, Note_on_c, 0, 62, 0
1, 382050, Note_on_c, 0, 66, 0
1, 382050, Note_on_c, 0, 84, 0
1, 382061, Note_on_c, 0, 68, 0
1, 382061, Note_on_c, 0, 72, 0
1, 382080, Note_on_c, 0, 92, 0
1, 382104, Note_on_c, 0, 96, 83
1, 382108, Note_on_c, 0, 68, 64
1, 382108, Note_on_c, 0, 72, 69
1, 382108, Note_on_c, 0, 84, 73
1, 382113, Note_on_c, 0, 90, 48
1, 382113, Note_on_c, 0, 66, 48
1, 382116, Note_on_c, 0, 92, 84
1, 382124, Note_on_c, 0, 62, 33
1, 382124, Note_on_c, 0, 86, 56
1, 382143, Note_on_c, 0, 72, 0
1, 382149, Note_on_c, 0, 84, 0
1, 382153, Note_on_c, 0, 90, 0
1, 382157, Note_on_c, 0, 66, 0
1, 382157, Note_on_c, 0, 92, 0
1, 382161, Note_on_c, 0, 68, 0
1, 382168, Note_on_c, 0, 86, 0
1, 382175, Note_on_c, 0, 62, 0
1, 382186, Note_on_c, 0, 96, 0
1, 382305, Note_on_c, 0, 102, 88
1, 382305, Note_on_c, 0, 90, 76
1, 382313, Note_on_c, 0, 66, 42
1, 382350, Note_on_c, 0, 90, 0
1, 382361, Note_on_c, 0, 66, 0
1, 382378, Note_on_c, 0, 102, 0
1, 382403, Control_c, 0, 64, 0
1, 382553, Note_on_c, 0, 52, 96
1, 382553, Note_on_c, 0, 40, 103
1, 382575, Note_on_c, 0, 40, 0
1, 382575, Note_on_c, 0, 52, 0
1, 382618, Control_c, 0, 64, 127
1, 382737, Note_on_c, 0, 73, 75
1, 382737, Note_on_c, 0, 61, 81
1, 382743, Note_on_c, 0, 69, 48
1, 382746, Note_on_c, 0, 102, 95
1, 382746, Note_on_c, 0, 94, 88
1, 382753, Note_on_c, 0, 90, 81
1, 382767, Note_on_c, 0, 73, 0
1, 382767, Note_on_c, 0, 61, 0
1, 382767, Note_on_c, 0, 102, 0
1, 382778, Note_on_c, 0, 94, 0
1, 382781, Note_on_c, 0, 90, 0
1, 382787, Note_on_c, 0, 69, 0
1, 382810, Note_on_c, 0, 73, 73
1, 382813, Note_on_c, 0, 61, 65
1, 382821, Note_on_c, 0, 97, 68
1, 382824, Note_on_c, 0, 101, 72
1, 382824, Note_on_c, 0, 69, 90
1, 382838, Note_on_c, 0, 89, 27
1, 382843, Note_on_c, 0, 94, 25
1, 382852, Note_on_c, 0, 101, 0
1, 382852, Note_on_c, 0, 97, 0
1, 382855, Note_on_c, 0, 69, 0
1, 382855, Note_on_c, 0, 61, 0
1, 382877, Note_on_c, 0, 73, 0
1, 382891, Note_on_c, 0, 89, 0
1, 382898, Note_on_c, 0, 94, 0
1, 382909, Note_on_c, 0, 61, 81
1, 382909, Note_on_c, 0, 101, 55
1, 382909, Note_on_c, 0, 97, 71
1, 382909, Note_on_c, 0, 73, 92
1, 382913, Note_on_c, 0, 93, 71
1, 382921, Note_on_c, 0, 89, 78
1, 382921, Note_on_c, 0, 69, 41
1, 382951, Note_on_c, 0, 73, 0
1, 382957, Note_on_c, 0, 69, 0
1, 382996, Note_on_c, 0, 61, 0
1, 383008, Note_on_c, 0, 101, 0
1, 383015, Note_on_c, 0, 93, 0
1, 383026, Note_on_c, 0, 89, 0
1, 383035, Note_on_c, 0, 97, 0
1, 383050, Control_c, 0, 64, 0
1, 383080, Note_on_c, 0, 93, 55
1, 383080, Note_on_c, 0, 97, 73
1, 383088, Note_on_c, 0, 100, 79
1, 383093, Note_on_c, 0, 64, 75
1, 383093, Note_on_c, 0, 52, 99
1, 383093, Note_on_c, 0, 88, 67
1, 383118, Note_on_c, 0, 52, 0
1, 383122, Note_on_c, 0, 64, 0
1, 383171, Note_on_c, 0, 88, 0
1, 383183, Note_on_c, 0, 100, 0
1, 383189, Note_on_c, 0, 93, 0
1, 383238, Note_on_c, 0, 97, 0
1, 383274, Note_on_c, 0, 52, 111
1, 383274, Note_on_c, 0, 40, 109
1, 383295, Note_on_c, 0, 52, 0
1, 383295, Note_on_c, 0, 40, 0
1, 383327, Control_c, 0, 64, 127
1, 383462, Note_on_c, 0, 62, 79
1, 383462, Note_on_c, 0, 72, 85
1, 383462, Note_on_c, 0, 92, 79
1, 383465, Note_on_c, 0, 90, 84
1, 383465, Note_on_c, 0, 84, 107
1, 383465, Note_on_c, 0, 68, 55
1, 383465, Note_on_c, 0, 96, 84
1, 383472, Note_on_c, 0, 66, 35
1, 383487, Note_on_c, 0, 84, 0
1, 383487, Note_on_c, 0, 92, 0
1, 383492, Note_on_c, 0, 72, 0
1, 383492, Note_on_c, 0, 90, 0
1, 383492, Note_on_c, 0, 96, 0
1, 383500, Note_on_c, 0, 62, 0
1, 383500, Note_on_c, 0, 68, 0
1, 383508, Note_on_c, 0, 66, 0
1, 383533, Note_on_c, 0, 72, 75
1, 383533, Note_on_c, 0, 92, 66
1, 383533, Note_on_c, 0, 90, 67
1, 383533, Note_on_c, 0, 84, 78
1, 383533, Note_on_c, 0, 96, 92
1, 383540, Note_on_c, 0, 68, 75
1, 383557, Note_on_c, 0, 62, 41
1, 383567, Note_on_c, 0, 96, 0
1, 383567, Note_on_c, 0, 84, 0
1, 383573, Note_on_c, 0, 72, 0
1, 383581, Note_on_c, 0, 68, 0
1, 383590, Note_on_c, 0, 90, 0
1, 383603, Note_on_c, 0, 62, 0
1, 383607, Note_on_c, 0, 92, 0
1, 383625, Note_on_c, 0, 96, 91
1, 383629, Note_on_c, 0, 90, 88
1, 383632, Note_on_c, 0, 84, 77
1, 383632, Note_on_c, 0, 92, 82
1, 383635, Note_on_c, 0, 72, 85
1, 383646, Note_on_c, 0, 62, 85
1, 383646, Note_on_c, 0, 68, 60
1, 383649, Note_on_c, 0, 86, 62
1, 383667, Note_on_c, 0, 72, 0
1, 383673, Note_on_c, 0, 66, 27
1, 383673, Note_on_c, 0, 62, 0
1, 383689, Note_on_c, 0, 68, 0
1, 383689, Note_on_c, 0, 86, 0
1, 383695, Note_on_c, 0, 84, 0
1, 383704, Note_on_c, 0, 90, 0
1, 383729, Note_on_c, 0, 92, 0
1, 383729, Note_on_c, 0, 66, 0
1, 383729, Note_on_c, 0, 96, 0
1, 383802, Note_on_c, 0, 78, 87
1, 383815, Note_on_c, 0, 102, 98
1, 383815, Note_on_c, 0, 90, 92
1, 383827, Note_on_c, 0, 78, 0
1, 383841, Control_c, 0, 64, 0
1, 383982, Note_on_c, 0, 102, 0
1, 383986, Note_on_c, 0, 90, 0
1, 384050, Note_on_c, 0, 52, 96
1, 384058, Note_on_c, 0, 40, 100
1, 384074, Note_on_c, 0, 52, 0
1, 384079, Note_on_c, 0, 40, 0
1, 384103, Control_c, 0, 64, 127
1, 384235, Note_on_c, 0, 102, 98
1, 384235, Note_on_c, 0, 90, 92
1, 384244, Note_on_c, 0, 94, 51
1, 384244, Note_on_c, 0, 61, 70
1, 384244, Note_on_c, 0, 69, 50
1, 384244, Note_on_c, 0, 73, 61
1, 384253, Note_on_c, 0, 97, 43
1, 384256, Note_on_c, 0, 102, 0
1, 384267, Note_on_c, 0, 90, 0
1, 384278, Note_on_c, 0, 61, 0
1, 384283, Note_on_c, 0, 73, 0
1, 384283, Note_on_c, 0, 94, 0
1, 384286, Note_on_c, 0, 93, 11
1, 384291, Note_on_c, 0, 69, 0
1, 384316, Note_on_c, 0, 101, 62
1, 384322, Note_on_c, 0, 89, 46
1, 384336, Note_on_c, 0, 69, 49
1, 384348, Note_on_c, 0, 101, 0
1, 384353, Note_on_c, 0, 97, 0
1, 384367, Note_on_c, 0, 89, 0
1, 384373, Note_on_c, 0, 93, 0
1, 384380, Note_on_c, 0, 69, 0
1, 384397, Note_on_c, 0, 101, 78
1, 384403, Note_on_c, 0, 97, 72
1, 384403, Note_on_c, 0, 89, 87
1, 384409, Note_on_c, 0, 73, 57
1, 384409, Note_on_c, 0, 93, 84
1, 384426, Note_on_c, 0, 61, 60
1, 384440, Note_on_c, 0, 73, 0
1, 384440, Note_on_c, 0, 69, 40
1, 384465, Note_on_c, 0, 61, 0
1, 384495, Note_on_c, 0, 101, 0
1, 384495, Note_on_c, 0, 69, 0
1, 384501, Note_on_c, 0, 93, 0
1, 384515, Note_on_c, 0, 89, 0
1, 384534, Note_on_c, 0, 97, 0
1, 384579, Note_on_c, 0, 97, 68
1, 384579, Note_on_c, 0, 93, 57
1, 384582, Note_on_c, 0, 100, 77
1, 384582, Note_on_c, 0, 88, 89
1, 384586, Control_c, 0, 64, 0
1, 384590, Note_on_c, 0, 64, 82
1, 384593, Note_on_c, 0, 52, 87
1, 384618, Note_on_c, 0, 64, 0
1, 384621, Note_on_c, 0, 52, 0
1, 384685, Note_on_c, 0, 100, 0
1, 384695, Note_on_c, 0, 88, 0
1, 384718, Note_on_c, 0, 93, 0
1, 384752, Note_on_c, 0, 97, 0
1, 384793, Note_on_c, 0, 52, 116
1, 384796, Note_on_c, 0, 40, 117
1, 384818, Note_on_c, 0, 40, 0
1, 384848, Control_c, 0, 64, 127
1, 384863, Note_on_c, 0, 52, 0
1, 385007, Note_on_c, 0, 73, 100
1, 385007, Note_on_c, 0, 67, 69
1, 385016, Note_on_c, 0, 85, 103
1, 385016, Note_on_c, 0, 70, 50
1, 385016, Note_on_c, 0, 97, 86
1, 385016, Note_on_c, 0, 64, 68
1, 385022, Note_on_c, 0, 91, 89
1, 385022, Note_on_c, 0, 94, 69
1, 385032, Note_on_c, 0, 73, 0
1, 385038, Note_on_c, 0, 85, 0
1, 385043, Note_on_c, 0, 97, 0
1, 385043, Note_on_c, 0, 67, 0
1, 385047, Note_on_c, 0, 91, 0
1, 385047, Note_on_c, 0, 94, 0
1, 385054, Note_on_c, 0, 64, 0
1, 385054, Note_on_c, 0, 70, 0
1, 385086, Note_on_c, 0, 97, 72
1, 385086, Note_on_c, 0, 73, 68
1, 385091, Note_on_c, 0, 85, 64
1, 385091, Note_on_c, 0, 94, 63
1, 385091, Note_on_c, 0, 91, 63
1, 385097, Note_on_c, 0, 64, 83
1, 385102, Note_on_c, 0, 67, 69
1, 385111, Note_on_c, 0, 70, 50
1, 385125, Note_on_c, 0, 97, 0
1, 385125, Note_on_c, 0, 64, 0
1, 385128, Note_on_c, 0, 73, 0
1, 385128, Note_on_c, 0, 94, 0
1, 385132, Note_on_c, 0, 85, 0
1, 385136, Note_on_c, 0, 91, 0
1, 385139, Note_on_c, 0, 67, 0
1, 385149, Note_on_c, 0, 70, 0
1, 385181, Note_on_c, 0, 85, 83
1, 385181, Note_on_c, 0, 97, 82
1, 385181, Note_on_c, 0, 91, 84
1, 385186, Note_on_c, 0, 94, 72
1, 385191, Note_on_c, 0, 73, 76
1, 385195, Note_on_c, 0, 70, 55
1, 385195, Note_on_c, 0, 64, 61
1, 385203, Note_on_c, 0, 67, 44
1, 385230, Note_on_c, 0, 64, 0
1, 385241, Note_on_c, 0, 67, 0
1, 385259, Note_on_c, 0, 85, 0
1, 385266, Note_on_c, 0, 70, 0
1, 385270, Note_on_c, 0, 73, 0
1, 385284, Note_on_c, 0, 91, 0
1, 385298, Note_on_c, 0, 94, 0
1, 385306, Note_on_c, 0, 97, 0
1, 385389, Note_on_c, 0, 103, 100
1, 385389, Note_on_c, 0, 91, 76
1, 385394, Note_on_c, 0, 79, 81
1, 385428, Note_on_c, 0, 79, 0
1, 385509, Note_on_c, 0, 91, 0
1, 385556, Control_c, 0, 64, 0
1, 385565, Note_on_c, 0, 103, 0
1, 385639, Note_on_c, 0, 41, 109
1, 385639, Note_on_c, 0, 53, 123
1, 385657, Note_on_c, 0, 41, 0
1, 385699, Note_on_c, 0, 53, 0
1, 385723, Control_c, 0, 64, 127
1, 385827, Note_on_c, 0, 74, 106
1, 385834, Note_on_c, 0, 91, 108
1, 385834, Note_on_c, 0, 70, 73
1, 385839, Note_on_c, 0, 98, 89
1, 385842, Note_on_c, 0, 62, 69
1, 385848, Note_on_c, 0, 103, 63
1, 385848, Note_on_c, 0, 94, 51
1, 385852, Note_on_c, 0, 74, 0
1, 385857, Note_on_c, 0, 91, 0
1, 385865, Note_on_c, 0, 70, 0
1, 385865, Note_on_c, 0, 98, 0
1, 385877, Note_on_c, 0, 62, 0
1, 385883, Note_on_c, 0, 103, 0
1, 385888, Note_on_c, 0, 94, 0
1, 385908, Note_on_c, 0, 74, 79
1, 385908, Note_on_c, 0, 98, 98
1, 385911, Note_on_c, 0, 70, 52
1, 385918, Note_on_c, 0, 102, 83
1, 385921, Note_on_c, 0, 62, 86
1, 385924, Note_on_c, 0, 90, 78
1, 385924, Note_on_c, 0, 94, 70
1, 385944, Note_on_c, 0, 102, 0
1, 385951, Note_on_c, 0, 62, 0
1, 385958, Note_on_c, 0, 94, 0
1, 385958, Note_on_c, 0, 74, 0
1, 385963, Note_on_c, 0, 90, 0
1, 385985, Note_on_c, 0, 70, 0
1, 385985, Note_on_c, 0, 98, 0
1, 385991, Note_on_c, 0, 102, 76
1, 386004, Note_on_c, 0, 90, 89
1, 386004, Note_on_c, 0, 94, 58
1, 386011, Note_on_c, 0, 74, 94
1, 386011, Note_on_c, 0, 98, 67
1, 386011, Note_on_c, 0, 62, 68
1, 386021, Note_on_c, 0, 70, 88
1, 386043, Note_on_c, 0, 74, 0
1, 386049, Note_on_c, 0, 70, 0
1, 386068, Note_on_c, 0, 62, 0
1, 386130, Note_on_c, 0, 90, 0
1, 386135, Note_on_c, 0, 102, 0
1, 386139, Note_on_c, 0, 94, 0
1, 386149, Note_on_c, 0, 98, 0
1, 386185, Note_on_c, 0, 101, 85
1, 386185, Note_on_c, 0, 89, 87
1, 386185, Note_on_c, 0, 94, 60
1, 386194, Note_on_c, 0, 98, 75
1, 386200, Note_on_c, 0, 65, 43
1, 386205, Note_on_c, 0, 53, 74
1, 386241, Note_on_c, 0, 53, 0
1, 386241, Note_on_c, 0, 65, 0
1, 386295, Note_on_c, 0, 101, 0
1, 386295, Note_on_c, 0, 98, 0
1, 386333, Note_on_c, 0, 94, 0
1, 386333, Control_c, 0, 64, 0
1, 386362, Note_on_c, 0, 89, 0
1, 386406, Note_on_c, 0, 52, 113
1, 386406, Note_on_c, 0, 40, 121
1, 386464, Note_on_c, 0, 40, 0
1, 386464, Note_on_c, 0, 52, 0
1, 386503, Control_c, 0, 64, 127
1, 386628, Note_on_c, 0, 73, 92
1, 386628, Note_on_c, 0, 85, 103
1, 386628, Note_on_c, 0, 97, 85
1, 386631, Note_on_c, 0, 67, 75
1, 386631, Note_on_c, 0, 64, 61
1, 386634, Note_on_c, 0, 94, 70
1, 386634, Note_on_c, 0, 91, 88
1, 386637, Note_on_c, 0, 70, 47
1, 386649, Note_on_c, 0, 85, 0
1, 386652, Note_on_c, 0, 73, 0
1, 386652, Note_on_c, 0, 97, 0
1, 386662, Note_on_c, 0, 64, 0
1, 386662, Note_on_c, 0, 94, 0
1, 386662, Note_on_c, 0, 91, 0
1, 386670, Note_on_c, 0, 67, 0
1, 386677, Note_on_c, 0, 70, 0
1, 386698, Note_on_c, 0, 97, 65
1, 386698, Note_on_c, 0, 85, 50
1, 386704, Note_on_c, 0, 73, 51
1, 386704, Note_on_c, 0, 94, 67
1, 386704, Note_on_c, 0, 91, 75
1, 386715, Note_on_c, 0, 67, 75
1, 386715, Note_on_c, 0, 64, 71
1, 386721, Note_on_c, 0, 70, 47
1, 386745, Note_on_c, 0, 91, 0
1, 386749, Note_on_c, 0, 64, 0
1, 386754, Note_on_c, 0, 67, 0
1, 386759, Note_on_c, 0, 94, 0
1, 386759, Note_on_c, 0, 85, 0
1, 386762, Note_on_c, 0, 70, 0
1, 386774, Note_on_c, 0, 97, 0
1, 386780, Note_on_c, 0, 73, 0
1, 386798, Note_on_c, 0, 85, 97
1, 386798, Note_on_c, 0, 97, 81
1, 386798, Note_on_c, 0, 94, 82
1, 386804, Note_on_c, 0, 91, 72
1, 386807, Note_on_c, 0, 64, 71
1, 386807, Note_on_c, 0, 67, 62
1, 386807, Note_on_c, 0, 73, 50
1, 386810, Note_on_c, 0, 70, 72
1, 386840, Note_on_c, 0, 64, 0
1, 386844, Note_on_c, 0, 67, 0
1, 386869, Note_on_c, 0, 85, 0
1, 386869, Note_on_c, 0, 70, 0
1, 386877, Note_on_c, 0, 73, 0
1, 386877, Note_on_c, 0, 91, 0
1, 386901, Note_on_c, 0, 94, 0
1, 386916, Note_on_c, 0, 97, 0
1, 386983, Note_on_c, 0, 79, 100
1, 386983, Note_on_c, 0, 67, 95
1, 386986, Note_on_c, 0, 103, 91
1, 386991, Note_on_c, 0, 91, 66
1, 387007, Note_on_c, 0, 79, 0
1, 387011, Note_on_c, 0, 67, 0
1, 387011, Note_on_c, 0, 103, 0
1, 387011, Note_on_c, 0, 93, 30
1, 387025, Note_on_c, 0, 91, 0
1, 387066, Note_on_c, 0, 93, 0
1, 387174, Control_c, 0, 64, 0
1, 387242, Note_on_c, 0, 41, 114
1, 387242, Note_on_c, 0, 53, 121
1, 387262, Note_on_c, 0, 41, 0
1, 387297, Note_on_c, 0, 53, 0
1, 387317, Control_c, 0, 64, 127
1, 387437, Note_on_c, 0, 79, 115
1, 387442, Note_on_c, 0, 74, 96
1, 387442, Note_on_c, 0, 91, 100
1, 387442, Note_on_c, 0, 62, 91
1, 387447, Note_on_c, 0, 82, 78
1, 387453, Note_on_c, 0, 86, 75
1, 387453, Note_on_c, 0, 70, 52
1, 387461, Note_on_c, 0, 79, 0
1, 387464, Note_on_c, 0, 91, 0
1, 387467, Note_on_c, 0, 74, 0
1, 387470, Note_on_c, 0, 62, 0
1, 387475, Note_on_c, 0, 82, 0
1, 387484, Note_on_c, 0, 86, 0
1, 387493, Note_on_c, 0, 70, 0
1, 387520, Note_on_c, 0, 86, 97
1, 387520, Note_on_c, 0, 74, 56
1, 387525, Note_on_c, 0, 62, 74
1, 387525, Note_on_c, 0, 82, 51
1, 387525, Note_on_c, 0, 78, 99
1, 387529, Note_on_c, 0, 90, 75
1, 387529, Note_on_c, 0, 70, 82
1, 387557, Note_on_c, 0, 90, 0
1, 387562, Note_on_c, 0, 62, 0
1, 387568, Note_on_c, 0, 78, 0
1, 387568, Note_on_c, 0, 82, 0
1, 387573, Note_on_c, 0, 70, 0
1, 387585, Note_on_c, 0, 74, 0
1, 387606, Note_on_c, 0, 86, 0
1, 387620, Note_on_c, 0, 90, 29
1, 387624, Note_on_c, 0, 78, 95
1, 387628, Note_on_c, 0, 74, 95
1, 387628, Note_on_c, 0, 62, 71
1, 387628, Note_on_c, 0, 82, 67
1, 387634, Note_on_c, 0, 70, 70
1, 387634, Note_on_c, 0, 86, 82
1, 387659, Note_on_c, 0, 74, 0
1, 387676, Note_on_c, 0, 70, 0
1, 387684, Note_on_c, 0, 62, 0
1, 387755, Note_on_c, 0, 78, 0
1, 387763, Note_on_c, 0, 82, 0
1, 387779, Note_on_c, 0, 86, 0
1, 387798, Note_on_c, 0, 90, 0
1, 387854, Note_on_c, 0, 89, 102
1, 387854, Note_on_c, 0, 77, 106
1, 387858, Note_on_c, 0, 86, 89
1, 387863, Note_on_c, 0, 82, 76
1, 387868, Note_on_c, 0, 65, 53
1, 387876, Note_on_c, 0, 53, 72
1, 387904, Note_on_c, 0, 65, 0
1, 387911, Note_on_c, 0, 53, 0
1, 387916, Note_on_c, 0, 89, 0
1, 387916, Control_c, 0, 64, 0
1, 387935, Note_on_c, 0, 86, 0
1, 387952, Note_on_c, 0, 77, 0
1, 387974, Note_on_c, 0, 82, 0
1, 387988, Note_on_c, 0, 50, 111
1, 387988, Note_on_c, 0, 38, 106
1, 388053, Note_on_c, 0, 38, 0
1, 388060, Note_on_c, 0, 50, 0
1, 388078, Note_on_c, 0, 49, 112
1, 388081, Note_on_c, 0, 37, 103
1, 388117, Control_c, 0, 64, 0
1, 388130, Note_on_c, 0, 59, 83
1, 388186, Note_on_c, 0, 62, 85
1, 388213, Note_on_c, 0, 59, 0
1, 388241, Note_on_c, 0, 65, 73
1, 388261, Note_on_c, 0, 37, 0
1, 388273, Control_c, 0, 64, 127
1, 388289, Note_on_c, 0, 49, 0
1, 388295, Note_on_c, 0, 62, 0
1, 388319, Note_on_c, 0, 69, 69
1, 388347, Note_on_c, 0, 65, 0
1, 388353, Note_on_c, 0, 69, 0
1, 388395, Note_on_c, 0, 71, 52
1, 388459, Note_on_c, 0, 74, 90
1, 388471, Note_on_c, 0, 71, 0
1, 388521, Note_on_c, 0, 77, 84
1, 388543, Note_on_c, 0, 74, 0
1, 388573, Note_on_c, 0, 69, 90
1, 388573, Note_on_c, 0, 71, 89
1, 388578, Note_on_c, 0, 59, 74
1, 388578, Note_on_c, 0, 65, 72
1, 388578, Note_on_c, 0, 62, 77
1, 388587, Note_on_c, 0, 81, 73
1, 388609, Note_on_c, 0, 77, 0
1, 388617, Note_on_c, 0, 81, 0
1, 388638, Note_on_c, 0, 59, 0
1, 388654, Note_on_c, 0, 71, 0
1, 388657, Note_on_c, 0, 65, 0
1, 388665, Note_on_c, 0, 62, 0
1, 388671, Note_on_c, 0, 83, 102
1, 388677, Note_on_c, 0, 69, 0
1, 388713, Note_on_c, 0, 83, 0
1, 388743, Note_on_c, 0, 86, 84
1, 388757, Note_on_c, 0, 69, 98
1, 388768, Note_on_c, 0, 65, 69
1, 388768, Note_on_c, 0, 59, 80
1, 388773, Note_on_c, 0, 62, 75
1, 388810, Note_on_c, 0, 89, 79
1, 388810, Note_on_c, 0, 59, 0
1, 388815, Note_on_c, 0, 62, 0
1, 388832, Note_on_c, 0, 86, 0
1, 388854, Note_on_c, 0, 69, 0
1, 388854, Note_on_c, 0, 65, 0
1, 388874, Note_on_c, 0, 93, 50
1, 388882, Note_on_c, 0, 89, 0
1, 388905, Note_on_c, 0, 69, 82
1, 388915, Note_on_c, 0, 65, 53
1, 388915, Note_on_c, 0, 93, 0
1, 388925, Note_on_c, 0, 59, 80
1, 388936, Note_on_c, 0, 62, 69
1, 388947, Note_on_c, 0, 95, 81
1, 388975, Note_on_c, 0, 62, 0
1, 388988, Note_on_c, 0, 59, 0
1, 389010, Note_on_c, 0, 98, 79
1, 389013, Note_on_c, 0, 65, 0
1, 389030, Note_on_c, 0, 69, 0
1, 389047, Note_on_c, 0, 95, 0
1, 389085, Note_on_c, 0, 101, 61
1, 389108, Note_on_c, 0, 98, 0
1, 389120, Note_on_c, 0, 69, 113
1, 389123, Note_on_c, 0, 101, 0
1, 389128, Note_on_c, 0, 59, 97
1, 389128, Note_on_c, 0, 65, 74
1, 389131, Note_on_c, 0, 105, 92
1, 389139, Note_on_c, 0, 62, 85
1, 389189, Note_on_c, 0, 101, 34
1, 389248, Note_on_c, 0, 98, 84
1, 389262, Note_on_c, 0, 105, 0
1, 389280, Note_on_c, 0, 101, 0
1, 389289, Note_on_c, 0, 98, 0
1, 389320, Note_on_c, 0, 95, 45
1, 389383, Note_on_c, 0, 93, 62
1, 389428, Note_on_c, 0, 89, 72
1, 389439, Note_on_c, 0, 93, 0
1, 389454, Note_on_c, 0, 95, 0
1, 389490, Note_on_c, 0, 86, 74
1, 389523, Note_on_c, 0, 89, 0
1, 389528, Note_on_c, 0, 86, 0
1, 389549, Note_on_c, 0, 69, 0
1, 389553, Note_on_c, 0, 83, 91
1, 389570, Note_on_c, 0, 59, 0
1, 389582, Note_on_c, 0, 83, 0
1, 389598, Note_on_c, 0, 62, 0
1, 389627, Note_on_c, 0, 80, 82
1, 389634, Note_on_c, 0, 65, 0
1, 389673, Note_on_c, 0, 68, 97
1, 389690, Note_on_c, 0, 77, 74
1, 389724, Note_on_c, 0, 68, 0
1, 389752, Note_on_c, 0, 80, 0
1, 389752, Note_on_c, 0, 74, 87
1, 389785, Note_on_c, 0, 77, 0
1, 389793, Note_on_c, 0, 74, 0
1, 389824, Note_on_c, 0, 71, 48
1, 389874, Note_on_c, 0, 71, 0
1, 389888, Note_on_c, 0, 68, 72
1, 389927, Note_on_c, 0, 65, 70
1, 389991, Note_on_c, 0, 62, 76
1, 389996, Note_on_c, 0, 68, 0
1, 390033, Note_on_c, 0, 65, 0
1, 390050, Note_on_c, 0, 62, 0
1, 390066, Note_on_c, 0, 59, 42
1, 390072, Note_on_c, 0, 37, 95
1, 390072, Note_on_c, 0, 49, 103
1, 390103, Note_on_c, 0, 37, 0
1, 390103, Note_on_c, 0, 49, 0
1, 390113, Note_on_c, 0, 59, 0
1, 390149, Note_on_c, 0, 59, 64
1, 390175, Note_on_c, 0, 61, 85
1, 390191, Control_c, 0, 64, 0
1, 390203, Note_on_c, 0, 42, 96
1, 390203, Note_on_c, 0, 30, 106
1, 390220, Note_on_c, 0, 59, 0
1, 390248, Note_on_c, 0, 64, 72
1, 390283, Note_on_c, 0, 68, 70
1, 390290, Note_on_c, 0, 61, 0
1, 390306, Note_on_c, 0, 64, 0
1, 390306, Note_on_c, 0, 30, 0
1, 390325, Note_on_c, 0, 42, 0
1, 390325, Note_on_c, 0, 68, 0
1, 390334, Control_c, 0, 64, 127
1, 390387, Note_on_c, 0, 71, 89
1, 390423, Note_on_c, 0, 71, 0
1, 390439, Note_on_c, 0, 73, 75
1, 390504, Note_on_c, 0, 76, 63
1, 390537, Note_on_c, 0, 80, 72
1, 390546, Note_on_c, 0, 73, 0
1, 390576, Note_on_c, 0, 80, 0
1, 390576, Note_on_c, 0, 76, 0
1, 390618, Note_on_c, 0, 68, 104
1, 390626, Note_on_c, 0, 59, 79
1, 390635, Note_on_c, 0, 83, 108
1, 390638, Note_on_c, 0, 61, 72
1, 390638, Note_on_c, 0, 64, 74
1, 390676, Note_on_c, 0, 59, 0
1, 390696, Note_on_c, 0, 85, 80
1, 390707, Note_on_c, 0, 83, 0
1, 390752, Note_on_c, 0, 64, 0
1, 390762, Note_on_c, 0, 88, 55
1, 390779, Note_on_c, 0, 61, 0
1, 390787, Note_on_c, 0, 85, 0
1, 390796, Note_on_c, 0, 88, 0
1, 390802, Note_on_c, 0, 92, 41
1, 390816, Note_on_c, 0, 68, 0
1, 390852, Note_on_c, 0, 92, 0
1, 390871, Note_on_c, 0, 95, 86
1, 390921, Note_on_c, 0, 97, 76
1, 390979, Note_on_c, 0, 95, 0
1, 390989, Note_on_c, 0, 100, 69
1, 391014, Note_on_c, 0, 104, 69
1, 391031, Note_on_c, 0, 97, 0
1, 391050, Note_on_c, 0, 100, 0
1, 391081, Note_on_c, 0, 67, 109
1, 391081, Note_on_c, 0, 103, 88
1, 391091, Note_on_c, 0, 104, 0
1, 391091, Note_on_c, 0, 59, 79
1, 391097, Note_on_c, 0, 64, 85
1, 391102, Note_on_c, 0, 61, 65
1, 391119, Note_on_c, 0, 100, 82
1, 391125, Control_c, 0, 64, 0
1, 391145, Note_on_c, 0, 61, 0
1, 391167, Note_on_c, 0, 97, 80
1, 391191, Note_on_c, 0, 103, 0
1, 391220, Note_on_c, 0, 95, 83
1, 391233, Control_c, 0, 64, 127
1, 391245, Note_on_c, 0, 100, 0
1, 391262, Note_on_c, 0, 95, 0
1, 391270, Note_on_c, 0, 97, 0
1, 391273, Note_on_c, 0, 91, 72
1, 391278, Note_on_c, 0, 64, 0
1, 391308, Note_on_c, 0, 91, 0
1, 391343, Note_on_c, 0, 88, 85
1, 391351, Note_on_c, 0, 59, 0
1, 391393, Note_on_c, 0, 85, 65
1, 391437, Note_on_c, 0, 67, 0
1, 391437, Note_on_c, 0, 88, 0
1, 391450, Note_on_c, 0, 83, 97
1, 391476, Note_on_c, 0, 85, 0
1, 391485, Note_on_c, 0, 83, 0
1, 391506, Note_on_c, 0, 79, 70
1, 391543, Note_on_c, 0, 79, 0
1, 391584, Note_on_c, 0, 78, 87
1, 391584, Note_on_c, 0, 66, 99
1, 391593, Note_on_c, 0, 58, 66
1, 391601, Note_on_c, 0, 64, 74
1, 391606, Note_on_c, 0, 61, 64
1, 391634, Note_on_c, 0, 64, 0
1, 391645, Note_on_c, 0, 61, 0
1, 391651, Note_on_c, 0, 76, 48
1, 391654, Note_on_c, 0, 58, 0
1, 391671, Note_on_c, 0, 66, 0
1, 391705, Note_on_c, 0, 73, 69
1, 391716, Note_on_c, 0, 78, 0
1, 391749, Note_on_c, 0, 70, 64
1, 391760, Note_on_c, 0, 76, 0
1, 391776, Note_on_c, 0, 73, 0
1, 391790, Note_on_c, 0, 70, 0
1, 391796, Note_on_c, 0, 66, 76
1, 391825, Note_on_c, 0, 66, 0
1, 391872, Note_on_c, 0, 64, 84
1, 391913, Note_on_c, 0, 61, 53
1, 391957, Note_on_c, 0, 58, 75
1, 391996, Note_on_c, 0, 48, 98
1, 391999, Note_on_c, 0, 36, 100
1, 392003, Note_on_c, 0, 61, 0
1, 392033, Note_on_c, 0, 64, 0
1, 392036, Note_on_c, 0, 36, 0
1, 392045, Note_on_c, 0, 58, 0
1, 392058, Note_on_c, 0, 48, 0
1, 392089, Note_on_c, 0, 47, 103
1, 392095, Note_on_c, 0, 35, 110
1, 392108, Control_c, 0, 64, 0
1, 392139, Note_on_c, 0, 60, 74
1, 392189, Note_on_c, 0, 63, 55
1, 392242, Note_on_c, 0, 60, 0
1, 392250, Note_on_c, 0, 35, 0
1, 392256, Note_on_c, 0, 68, 72
1, 392276, Control_c, 0, 64, 127
1, 392279, Note_on_c, 0, 47, 0
1, 392292, Note_on_c, 0, 63, 0
1, 392292, Note_on_c, 0, 68, 0
1, 392337, Note_on_c, 0, 69, 81
1, 392393, Note_on_c, 0, 72, 80
1, 392407, Note_on_c, 0, 69, 0
1, 392443, Note_on_c, 0, 75, 86
1, 392474, Note_on_c, 0, 72, 0
1, 392495, Note_on_c, 0, 68, 103
1, 392499, Note_on_c, 0, 80, 48
1, 392509, Note_on_c, 0, 57, 61
1, 392521, Note_on_c, 0, 63, 62
1, 392521, Note_on_c, 0, 60, 46
1, 392526, Note_on_c, 0, 75, 0
1, 392542, Note_on_c, 0, 80, 0
1, 392560, Note_on_c, 0, 63, 0
1, 392565, Note_on_c, 0, 57, 0
1, 392568, Note_on_c, 0, 60, 0
1, 392576, Note_on_c, 0, 81, 91
1, 392615, Note_on_c, 0, 68, 0
1, 392651, Note_on_c, 0, 84, 89
1, 392665, Note_on_c, 0, 81, 0
1, 392704, Note_on_c, 0, 68, 104
1, 392712, Note_on_c, 0, 87, 78
1, 392718, Note_on_c, 0, 57, 73
1, 392732, Note_on_c, 0, 63, 60
1, 392732, Note_on_c, 0, 60, 56
1, 392752, Note_on_c, 0, 84, 0
1, 392771, Note_on_c, 0, 57, 0
1, 392771, Note_on_c, 0, 63, 0
1, 392771, Note_on_c, 0, 60, 0
1, 392804, Note_on_c, 0, 87, 0
1, 392816, Note_on_c, 0, 68, 0
1, 392855, Note_on_c, 0, 93, 83
1, 392860, Note_on_c, 0, 68, 93
1, 392880, Note_on_c, 0, 57, 73
1, 392889, Note_on_c, 0, 63, 66
1, 392894, Note_on_c, 0, 60, 41
1, 392922, Note_on_c, 0, 96, 78
1, 392922, Note_on_c, 0, 57, 0
1, 392932, Note_on_c, 0, 63, 0
1, 392938, Note_on_c, 0, 60, 0
1, 392949, Note_on_c, 0, 93, 0
1, 392967, Note_on_c, 0, 68, 0
1, 392974, Note_on_c, 0, 99, 72
1, 393010, Note_on_c, 0, 99, 0
1, 393016, Note_on_c, 0, 96, 0
1, 393022, Note_on_c, 0, 68, 98
1, 393033, Note_on_c, 0, 104, 79
1, 393033, Note_on_c, 0, 57, 84
1, 393058, Note_on_c, 0, 60, 52
1, 393061, Note_on_c, 0, 63, 39
1, 393074, Note_on_c, 0, 99, 67
1, 393128, Note_on_c, 0, 60, 0
1, 393128, Note_on_c, 0, 96, 79
1, 393151, Note_on_c, 0, 57, 0
1, 393151, Note_on_c, 0, 104, 0
1, 393166, Note_on_c, 0, 96, 0
1, 393176, Note_on_c, 0, 99, 0
1, 393176, Note_on_c, 0, 93, 81
1, 393206, Note_on_c, 0, 93, 0
1, 393250, Note_on_c, 0, 60, 2
1, 393267, Note_on_c, 0, 92, 66
1, 393267, Note_on_c, 0, 57, 2
1, 393301, Note_on_c, 0, 87, 75
1, 393373, Note_on_c, 0, 92, 0
1, 393378, Note_on_c, 0, 84, 83
1, 393384, Note_on_c, 0, 63, 0
1, 393396, Note_on_c, 0, 60, 0
1, 393420, Note_on_c, 0, 87, 0
1, 393443, Note_on_c, 0, 81, 69
1, 393448, Note_on_c, 0, 84, 0
1, 393453, Note_on_c, 0, 57, 0
1, 393467, Note_on_c, 0, 68, 0
1, 393474, Note_on_c, 0, 81, 0
1, 393512, Note_on_c, 0, 78, 81
1, 393565, Note_on_c, 0, 66, 91
1, 393577, Note_on_c, 0, 75, 70
1, 393623, Note_on_c, 0, 66, 0
1, 393634, Note_on_c, 0, 78, 0
1, 393641, Note_on_c, 0, 72, 86
1, 393688, Note_on_c, 0, 75, 0
1, 393712, Note_on_c, 0, 72, 0
1, 393715, Note_on_c, 0, 69, 54
1, 393757, Note_on_c, 0, 69, 0
1, 393785, Note_on_c, 0, 66, 65
1, 393838, Note_on_c, 0, 63, 82
1, 393885, Note_on_c, 0, 66, 0
1, 393888, Note_on_c, 0, 60, 86
1, 393919, Note_on_c, 0, 63, 0
1, 393955, Note_on_c, 0, 57, 66
1, 393974, Note_on_c, 0, 60, 0
1, 394010, Note_on_c, 0, 57, 0
1, 394014, Note_on_c, 0, 47, 106
1, 394014, Note_on_c, 0, 35, 107
1, 394077, Note_on_c, 0, 47, 0
1, 394077, Note_on_c, 0, 57, 58
1, 394098, Note_on_c, 0, 35, 0
1, 394123, Note_on_c, 0, 59, 77
1, 394180, Note_on_c, 0, 40, 116
1, 394184, Note_on_c, 0, 28, 104
1, 394195, Note_on_c, 0, 62, 65
1, 394203, Note_on_c, 0, 57, 0
1, 394226, Note_on_c, 0, 38, 13
1, 394240, Control_c, 0, 64, 0
1, 394247, Note_on_c, 0, 59, 0
1, 394265, Note_on_c, 0, 66, 70
1, 394265, Note_on_c, 0, 38, 0
1, 394300, Note_on_c, 0, 62, 0
1, 394336, Note_on_c, 0, 28, 0
1, 394353, Note_on_c, 0, 66, 0
1, 394362, Note_on_c, 0, 40, 0
1, 394362, Control_c, 0, 64, 127
1, 394371, Note_on_c, 0, 69, 81
1, 394445, Note_on_c, 0, 71, 88
1, 394473, Note_on_c, 0, 69, 0
1, 394510, Note_on_c, 0, 74, 68
1, 394552, Note_on_c, 0, 71, 0
1, 394557, Note_on_c, 0, 78, 74
1, 394595, Note_on_c, 0, 74, 0
1, 394629, Note_on_c, 0, 78, 0
1, 394660, Note_on_c, 0, 66, 105
1, 394674, Note_on_c, 0, 81, 86
1, 394679, Note_on_c, 0, 62, 68
1, 394682, Note_on_c, 0, 59, 69
1, 394682, Note_on_c, 0, 57, 70
1, 394735, Note_on_c, 0, 83, 106
1, 394768, Note_on_c, 0, 81, 0
1, 394786, Note_on_c, 0, 57, 0
1, 394796, Note_on_c, 0, 86, 64
1, 394811, Note_on_c, 0, 83, 0
1, 394832, Note_on_c, 0, 90, 65
1, 394850, Note_on_c, 0, 62, 0
1, 394869, Note_on_c, 0, 86, 0
1, 394869, Note_on_c, 0, 90, 0
1, 394869, Note_on_c, 0, 59, 0
1, 394931, Note_on_c, 0, 93, 76
1, 394977, Note_on_c, 0, 95, 80
1, 395002, Note_on_c, 0, 93, 0
1, 395002, Note_on_c, 0, 66, 0
1, 395038, Note_on_c, 0, 98, 72
1, 395066, Note_on_c, 0, 95, 0
1, 395066, Note_on_c, 0, 102, 69
1, 395105, Note_on_c, 0, 102, 0
1, 395125, Note_on_c, 0, 98, 0
1, 395151, Note_on_c, 0, 101, 95
1, 395151, Note_on_c, 0, 65, 108
1, 395164, Control_c, 0, 64, 0
1, 395164, Note_on_c, 0, 57, 76
1, 395178, Note_on_c, 0, 59, 64
1, 395178, Note_on_c, 0, 62, 59
1, 395201, Note_on_c, 0, 98, 72
1, 395264, Note_on_c, 0, 95, 74
1, 395279, Note_on_c, 0, 62, 0
1, 395282, Note_on_c, 0, 101, 0
1, 395282, Control_c, 0, 64, 127
1, 395317, Note_on_c, 0, 93, 76
1, 395346, Note_on_c, 0, 98, 0
1, 395365, Note_on_c, 0, 95, 0
1, 395365, Note_on_c, 0, 93, 0
1, 395370, Note_on_c, 0, 89, 78
1, 395378, Note_on_c, 0, 59, 0
1, 395399, Note_on_c, 0, 89, 0
1, 395448, Note_on_c, 0, 86, 80
1, 395504, Note_on_c, 0, 83, 91
1, 395549, Note_on_c, 0, 81, 76
1, 395562, Note_on_c, 0, 86, 0
1, 395569, Note_on_c, 0, 65, 0
1, 395588, Note_on_c, 0, 81, 0
1, 395593, Note_on_c, 0, 83, 0
1, 395608, Note_on_c, 0, 77, 70
1, 395608, Note_on_c, 0, 57, 0
1, 395638, Note_on_c, 0, 77, 0
1, 395690, Note_on_c, 0, 76, 80
1, 395690, Note_on_c, 0, 64, 106
1, 395695, Note_on_c, 0, 56, 78
1, 395707, Note_on_c, 0, 62, 78
1, 395716, Note_on_c, 0, 59, 53
1, 395736, Note_on_c, 0, 62, 0
1, 395740, Note_on_c, 0, 74, 56
1, 395750, Note_on_c, 0, 64, 0
1, 395753, Note_on_c, 0, 56, 0
1, 395753, Note_on_c, 0, 59, 0
1, 395796, Note_on_c, 0, 71, 79
1, 395816, Note_on_c, 0, 76, 0
1, 395852, Note_on_c, 0, 68, 70
1, 395874, Note_on_c, 0, 74, 0
1, 395910, Note_on_c, 0, 71, 0
1, 395930, Note_on_c, 0, 68, 0
1, 395933, Note_on_c, 0, 64, 65
1, 395966, Note_on_c, 0, 64, 0
1, 395988, Note_on_c, 0, 62, 89
1, 396041, Note_on_c, 0, 59, 79
1, 396091, Note_on_c, 0, 62, 0
1, 396091, Note_on_c, 0, 56, 83
1, 396101, Note_on_c, 0, 46, 90
1, 396101, Note_on_c, 0, 34, 92
1, 396120, Note_on_c, 0, 59, 0
1, 396130, Note_on_c, 0, 34, 0
1, 396139, Note_on_c, 0, 46, 0
1, 396172, Note_on_c, 0, 56, 0
1, 396183, Note_on_c, 0, 33, 110
1, 396183, Note_on_c, 0, 45, 108
1, 396206, Control_c, 0, 64, 0
1, 396217, Note_on_c, 0, 55, 87
1, 396278, Note_on_c, 0, 58, 74
1, 396326, Note_on_c, 0, 55, 0
1, 396337, Note_on_c, 0, 33, 0
1, 396337, Note_on_c, 0, 61, 82
1, 396350, Control_c, 0, 64, 127
1, 396371, Note_on_c, 0, 45, 0
1, 396376, Note_on_c, 0, 58, 0
1, 396401, Note_on_c, 0, 65, 66
1, 396417, Note_on_c, 0, 61, 0
1, 396431, Note_on_c, 0, 65, 0
1, 396470, Note_on_c, 0, 67, 24
1, 396530, Note_on_c, 0, 70, 79
1, 396563, Note_on_c, 0, 67, 0
1, 396585, Note_on_c, 0, 73, 77
1, 396598, Note_on_c, 0, 70, 0
1, 396610, Note_on_c, 0, 65, 106
1, 396616, Note_on_c, 0, 58, 72
1, 396616, Note_on_c, 0, 61, 83
1, 396619, Note_on_c, 0, 55, 81
1, 396640, Note_on_c, 0, 77, 61
1, 396668, Note_on_c, 0, 73, 0
1, 396680, Note_on_c, 0, 77, 0
1, 396706, Note_on_c, 0, 61, 0
1, 396710, Note_on_c, 0, 58, 0
1, 396715, Note_on_c, 0, 65, 0
1, 396715, Note_on_c, 0, 55, 0
1, 396733, Note_on_c, 0, 79, 66
1, 396788, Note_on_c, 0, 79, 0
1, 396797, Note_on_c, 0, 82, 74
1, 396803, Note_on_c, 0, 65, 91
1, 396808, Note_on_c, 0, 55, 69
1, 396814, Note_on_c, 0, 58, 62
1, 396814, Note_on_c, 0, 61, 68
1, 396850, Note_on_c, 0, 85, 73
1, 396880, Note_on_c, 0, 61, 0
1, 396885, Note_on_c, 0, 82, 0
1, 396892, Note_on_c, 0, 55, 0
1, 396895, Note_on_c, 0, 58, 0
1, 396902, Note_on_c, 0, 65, 0
1, 396917, Note_on_c, 0, 89, 58
1, 396947, Note_on_c, 0, 85, 0
1, 396953, Note_on_c, 0, 89, 0
1, 396975, Note_on_c, 0, 65, 92
1, 396983, Note_on_c, 0, 55, 84
1, 396989, Note_on_c, 0, 61, 73
1, 396995, Note_on_c, 0, 58, 66
1, 397000, Note_on_c, 0, 91, 80
1, 397055, Note_on_c, 0, 94, 70
1, 397055, Note_on_c, 0, 61, 0
1, 397066, Note_on_c, 0, 58, 0
1, 397072, Note_on_c, 0, 55, 0
1, 397081, Note_on_c, 0, 65, 0
1, 397095, Note_on_c, 0, 91, 0
1, 397112, Note_on_c, 0, 97, 69
1, 397147, Note_on_c, 0, 65, 105
1, 397147, Note_on_c, 0, 101, 94
1, 397147, Note_on_c, 0, 55, 97
1, 397153, Note_on_c, 0, 94, 0
1, 397156, Note_on_c, 0, 58, 78
1, 397160, Note_on_c, 0, 61, 81
1, 397187, Note_on_c, 0, 97, 0
1, 397226, Note_on_c, 0, 97, 85
1, 397265, Note_on_c, 0, 94, 66
1, 397292, Note_on_c, 0, 101, 0
1, 397312, Note_on_c, 0, 91, 88
1, 397321, Note_on_c, 0, 97, 0
1, 397334, Note_on_c, 0, 94, 0
1, 397341, Note_on_c, 0, 91, 0
1, 397392, Note_on_c, 0, 89, 92
1, 397432, Note_on_c, 0, 85, 73
1, 397476, Note_on_c, 0, 82, 78
1, 397504, Note_on_c, 0, 89, 0
1, 397513, Note_on_c, 0, 65, 0
1, 397530, Note_on_c, 0, 85, 0
1, 397530, Note_on_c, 0, 79, 91
1, 397549, Note_on_c, 0, 82, 0
1, 397558, Note_on_c, 0, 79, 0
1, 397576, Note_on_c, 0, 58, 0
1, 397585, Note_on_c, 0, 55, 0
1, 397588, Note_on_c, 0, 61, 0
1, 397596, Note_on_c, 0, 64, 106
1, 397607, Note_on_c, 0, 76, 72
1, 397622, Note_on_c, 0, 64, 0
1, 397649, Note_on_c, 0, 73, 72
1, 397696, Note_on_c, 0, 70, 70
1, 397718, Note_on_c, 0, 76, 0
1, 397754, Note_on_c, 0, 73, 0
1, 397754, Note_on_c, 0, 67, 88
1, 397764, Note_on_c, 0, 70, 0
1, 397783, Note_on_c, 0, 67, 0
1, 397830, Note_on_c, 0, 64, 87
1, 397858, Note_on_c, 0, 61, 69
1, 397902, Note_on_c, 0, 58, 68
1, 397942, Note_on_c, 0, 64, 0
1, 397958, Note_on_c, 0, 55, 84
1, 397970, Note_on_c, 0, 46, 91
1, 397973, Note_on_c, 0, 34, 90
1, 397992, Note_on_c, 0, 61, 0
1, 398002, Note_on_c, 0, 58, 0
1, 398002, Note_on_c, 0, 34, 0
1, 398009, Note_on_c, 0, 55, 0
1, 398014, Note_on_c, 0, 46, 0
1, 398045, Note_on_c, 0, 45, 107
1, 398045, Note_on_c, 0, 33, 108
1, 398053, Control_c, 0, 64, 0
1, 398086, Note_on_c, 0, 53, 111
1, 398153, Note_on_c, 0, 58, 66
1, 398178, Note_on_c, 0, 53, 0
1, 398195, Control_c, 0, 64, 127
1, 398203, Note_on_c, 0, 58, 0
1, 398207, Note_on_c, 0, 33, 0
1, 398207, Note_on_c, 0, 61, 69
1, 398236, Note_on_c, 0, 64, 74
1, 398239, Note_on_c, 0, 45, 0
1, 398246, Note_on_c, 0, 61, 0
1, 398273, Note_on_c, 0, 64, 0
1, 398320, Note_on_c, 0, 65, 85
1, 398387, Note_on_c, 0, 70, 78
1, 398410, Note_on_c, 0, 65, 0
1, 398432, Note_on_c, 0, 73, 83
1, 398480, Note_on_c, 0, 70, 0
1, 398480, Note_on_c, 0, 64, 111
1, 398488, Note_on_c, 0, 76, 60
1, 398488, Note_on_c, 0, 58, 68
1, 398491, Note_on_c, 0, 53, 103
1, 398491, Note_on_c, 0, 61, 79
1, 398519, Note_on_c, 0, 76, 0
1, 398527, Note_on_c, 0, 73, 0
1, 398533, Note_on_c, 0, 53, 0
1, 398533, Note_on_c, 0, 61, 0
1, 398551, Note_on_c, 0, 58, 0
1, 398566, Note_on_c, 0, 77, 83
1, 398593, Note_on_c, 0, 64, 0
1, 398633, Note_on_c, 0, 82, 81
1, 398652, Note_on_c, 0, 77, 0
1, 398668, Note_on_c, 0, 64, 96
1, 398680, Note_on_c, 0, 58, 66
1, 398680, Note_on_c, 0, 53, 103
1, 398685, Note_on_c, 0, 61, 67
1, 398688, Note_on_c, 0, 85, 81
1, 398714, Note_on_c, 0, 53, 0
1, 398725, Note_on_c, 0, 61, 0
1, 398735, Note_on_c, 0, 58, 0
1, 398743, Note_on_c, 0, 82, 0
1, 398749, Note_on_c, 0, 88, 66
1, 398763, Note_on_c, 0, 64, 0
1, 398778, Note_on_c, 0, 85, 0
1, 398778, Note_on_c, 0, 88, 0
1, 398814, Note_on_c, 0, 64, 100
1, 398825, Note_on_c, 0, 89, 52
1, 398828, Note_on_c, 0, 53, 108
1, 398835, Note_on_c, 0, 61, 76
1, 398839, Note_on_c, 0, 58, 57
1, 398870, Note_on_c, 0, 53, 0
1, 398878, Note_on_c, 0, 61, 0
1, 398878, Note_on_c, 0, 94, 73
1, 398883, Note_on_c, 0, 58, 0
1, 398902, Note_on_c, 0, 64, 0
1, 398942, Note_on_c, 0, 97, 66
1, 398947, Note_on_c, 0, 89, 0
1, 398959, Note_on_c, 0, 64, 108
1, 398973, Note_on_c, 0, 53, 110
1, 398973, Note_on_c, 0, 94, 0
1, 398981, Note_on_c, 0, 58, 61
1, 398981, Note_on_c, 0, 61, 70
1, 398984, Note_on_c, 0, 100, 89
1, 399009, Note_on_c, 0, 97, 0
1, 399056, Note_on_c, 0, 97, 80
1, 399081, Note_on_c, 0, 94, 66
1, 399112, Note_on_c, 0, 100, 0
1, 399125, Note_on_c, 0, 89, 77
1, 399125, Note_on_c, 0, 97, 0
1, 399133, Note_on_c, 0, 94, 0
1, 399156, Note_on_c, 0, 89, 0
1, 399195, Note_on_c, 0, 88, 88
1, 399215, Note_on_c, 0, 85, 75
1, 399290, Note_on_c, 0, 82, 83
1, 399310, Note_on_c, 0, 64, 0
1, 399320, Note_on_c, 0, 88, 0
1, 399334, Note_on_c, 0, 53, 0
1, 399337, Note_on_c, 0, 85, 0
1, 399337, Note_on_c, 0, 77, 96
1, 399360, Note_on_c, 0, 77, 0
1, 399363, Note_on_c, 0, 82, 0
1, 399381, Note_on_c, 0, 61, 0
1, 399384, Note_on_c, 0, 58, 0
1, 399387, Note_on_c, 0, 62, 105
1, 399413, Note_on_c, 0, 76, 80
1, 399421, Note_on_c, 0, 62, 0
1, 399459, Note_on_c, 0, 74, 78
1, 399499, Note_on_c, 0, 70, 75
1, 399515, Note_on_c, 0, 76, 0
1, 399549, Note_on_c, 0, 74, 0
1, 399555, Note_on_c, 0, 65, 85
1, 399576, Note_on_c, 0, 70, 0
1, 399586, Note_on_c, 0, 65, 0
1, 399630, Note_on_c, 0, 64, 94
1, 399650, Note_on_c, 0, 62, 101
1, 399655, Note_on_c, 0, 64, 0
1, 399705, Note_on_c, 0, 58, 86
1, 399758, Note_on_c, 0, 62, 0
1, 399764, Note_on_c, 0, 53, 97
1, 399778, Note_on_c, 0, 46, 102
1, 399785, Note_on_c, 0, 34, 96
1, 399799, Note_on_c, 0, 58, 0
1, 399803, Note_on_c, 0, 53, 0
1, 399810, Note_on_c, 0, 34, 0
1, 399853, Note_on_c, 0, 46, 0
1, 399858, Note_on_c, 0, 45, 110
1, 399858, Note_on_c, 0, 33, 110
1, 399886, Control_c, 0, 64, 0
1, 399902, Note_on_c, 0, 50, 93
1, 399933, Note_on_c, 0, 53, 105
1, 399964, Note_on_c, 0, 50, 0
1, 400005, Note_on_c, 0, 57, 76
1, 400009, Note_on_c, 0, 33, 0
1, 400037, Note_on_c, 0, 45, 0
1, 400037, Note_on_c, 0, 60, 84
1, 400042, Control_c, 0, 64, 127
1, 400047, Note_on_c, 0, 53, 0
1, 400070, Note_on_c, 0, 60, 0
1, 400075, Note_on_c, 0, 57, 0
1, 400109, Note_on_c, 0, 62, 78
1, 400159, Note_on_c, 0, 65, 91
1, 400192, Note_on_c, 0, 62, 0
1, 400218, Note_on_c, 0, 69, 73
1, 400235, Note_on_c, 0, 60, 104
1, 400239, Note_on_c, 0, 57, 59
1, 400242, Note_on_c, 0, 72, 86
1, 400248, Note_on_c, 0, 53, 80
1, 400248, Note_on_c, 0, 50, 63
1, 400264, Note_on_c, 0, 65, 0
1, 400285, Note_on_c, 0, 72, 0
1, 400296, Note_on_c, 0, 50, 0
1, 400306, Note_on_c, 0, 69, 0
1, 400318, Note_on_c, 0, 53, 0
1, 400331, Note_on_c, 0, 74, 96
1, 400366, Note_on_c, 0, 57, 0
1, 400376, Note_on_c, 0, 60, 0
1, 400390, Note_on_c, 0, 77, 83
1, 400418, Note_on_c, 0, 74, 0
1, 400424, Note_on_c, 0, 60, 96
1, 400424, Note_on_c, 0, 57, 64
1, 400438, Note_on_c, 0, 53, 105
1, 400438, Note_on_c, 0, 81, 78
1, 400445, Note_on_c, 0, 50, 70
1, 400476, Note_on_c, 0, 77, 0
1, 400483, Note_on_c, 0, 50, 0
1, 400502, Note_on_c, 0, 84, 71
1, 400518, Note_on_c, 0, 81, 0
1, 400521, Note_on_c, 0, 57, 0
1, 400526, Note_on_c, 0, 53, 0
1, 400533, Note_on_c, 0, 84, 0
1, 400543, Note_on_c, 0, 60, 0
1, 400574, Note_on_c, 0, 60, 113
1, 400577, Note_on_c, 0, 57, 68
1, 400580, Note_on_c, 0, 53, 97
1, 400588, Note_on_c, 0, 86, 51
1, 400593, Note_on_c, 0, 50, 86
1, 400613, Note_on_c, 0, 88, 37
1, 400627, Note_on_c, 0, 50, 0
1, 400633, Note_on_c, 0, 89, 85
1, 400654, Note_on_c, 0, 86, 0
1, 400664, Note_on_c, 0, 53, 0
1, 400664, Note_on_c, 0, 88, 0
1, 400679, Note_on_c, 0, 57, 0
1, 400686, Note_on_c, 0, 93, 76
1, 400691, Note_on_c, 0, 60, 0
1, 400711, Note_on_c, 0, 89, 0
1, 400711, Note_on_c, 0, 60, 115
1, 400716, Note_on_c, 0, 57, 92
1, 400719, Note_on_c, 0, 96, 95
1, 400719, Note_on_c, 0, 53, 91
1, 400723, Note_on_c, 0, 50, 98
1, 400728, Note_on_c, 0, 93, 0
1, 400772, Note_on_c, 0, 93, 77
1, 400827, Note_on_c, 0, 89, 84
1, 400863, Note_on_c, 0, 96, 0
1, 400883, Note_on_c, 0, 86, 81
1, 400883, Note_on_c, 0, 93, 0
1, 400898, Note_on_c, 0, 89, 0
1, 400917, Note_on_c, 0, 86, 0
1, 400961, Note_on_c, 0, 84, 97
1, 401005, Note_on_c, 0, 81, 82
1, 401075, Note_on_c, 0, 77, 88
1, 401098, Note_on_c, 0, 84, 0
1, 401120, Note_on_c, 0, 74, 91
1, 401120, Note_on_c, 0, 81, 0
1, 401131, Note_on_c, 0, 50, 0
1, 401131, Note_on_c, 0, 77, 0
1, 401148, Note_on_c, 0, 60, 0
1, 401148, Note_on_c, 0, 74, 0
1, 401170, Note_on_c, 0, 53, 0
1, 401209, Note_on_c, 0, 72, 94
1, 401224, Note_on_c, 0, 58, 105
1, 401232, Note_on_c, 0, 57, 0
1, 401260, Note_on_c, 0, 70, 70
1, 401309, Note_on_c, 0, 58, 0
1, 401345, Note_on_c, 0, 65, 78
1, 401365, Note_on_c, 0, 72, 0
1, 401395, Note_on_c, 0, 70, 0
1, 401416, Note_on_c, 0, 62, 86
1, 401421, Note_on_c, 0, 65, 0
1, 401444, Note_on_c, 0, 62, 0
1, 401488, Note_on_c, 0, 60, 67
1, 401540, Note_on_c, 0, 58, 74
1, 401599, Note_on_c, 0, 60, 0
1, 401615, Note_on_c, 0, 53, 101
1, 401663, Note_on_c, 0, 58, 0
1, 401689, Note_on_c, 0, 50, 89
1, 401732, Note_on_c, 0, 50, 0
1, 401744, Note_on_c, 0, 53, 0
1, 401844, Note_on_c, 0, 46, 101
1, 401849, Note_on_c, 0, 33, 118
1, 401849, Note_on_c, 0, 41, 119
1, 401852, Control_c, 0, 64, 0
1, 401970, Note_on_c, 0, 41, 0
1, 401978, Note_on_c, 0, 33, 0
1, 401983, Control_c, 0, 64, 127
1, 402075, Note_on_c, 0, 49, 68
1, 402097, Note_on_c, 0, 46, 0
1, 402157, Note_on_c, 0, 52, 83
1, 402181, Note_on_c, 0, 49, 0
1, 402196, Note_on_c, 0, 52, 0
1, 402235, Note_on_c, 0, 50, 85
1, 402265, Note_on_c, 0, 50, 0
1, 402306, Note_on_c, 0, 52, 90
1, 402359, Note_on_c, 0, 55, 70
1, 402390, Note_on_c, 0, 52, 0
1, 402413, Note_on_c, 0, 53, 106
1, 402449, Note_on_c, 0, 53, 0
1, 402458, Note_on_c, 0, 55, 0
1, 402472, Note_on_c, 0, 50, 88
1, 402472, Note_on_c, 0, 53, 77
1, 402501, Note_on_c, 0, 56, 81
1, 402566, Note_on_c, 0, 50, 0
1, 402566, Note_on_c, 0, 53, 0
1, 402572, Note_on_c, 0, 57, 76
1, 402575, Note_on_c, 0, 60, 83
1, 402591, Note_on_c, 0, 56, 0
1, 402630, Note_on_c, 0, 57, 0
1, 402630, Note_on_c, 0, 58, 76
1, 402666, Note_on_c, 0, 58, 0
1, 402675, Note_on_c, 0, 60, 0
1, 402691, Note_on_c, 0, 53, 103
1, 402706, Note_on_c, 0, 56, 68
1, 402727, Note_on_c, 0, 58, 55
1, 402775, Note_on_c, 0, 53, 0
1, 402786, Note_on_c, 0, 56, 0
1, 402786, Note_on_c, 0, 61, 62
1, 402791, Note_on_c, 0, 64, 73
1, 402803, Note_on_c, 0, 58, 0
1, 402839, Note_on_c, 0, 61, 0
1, 402839, Note_on_c, 0, 62, 90
1, 402881, Note_on_c, 0, 64, 0
1, 402881, Note_on_c, 0, 62, 0
1, 402892, Note_on_c, 0, 56, 74
1, 402892, Note_on_c, 0, 58, 73
1, 402934, Note_on_c, 0, 62, 81
1, 402969, Note_on_c, 0, 58, 0
1, 402986, Note_on_c, 0, 56, 0
1, 402990, Note_on_c, 0, 64, 90
1, 402993, Note_on_c, 0, 67, 80
1, 402993, Note_on_c, 0, 62, 0
1, 403036, Note_on_c, 0, 64, 0
1, 403043, Note_on_c, 0, 65, 69
1, 403075, Note_on_c, 0, 65, 0
1, 403095, Note_on_c, 0, 67, 0
1, 403095, Note_on_c, 0, 65, 35
1, 403101, Note_on_c, 0, 62, 60
1, 403134, Note_on_c, 0, 68, 73
1, 403139, Note_on_c, 0, 62, 0
1, 403168, Note_on_c, 0, 65, 0
1, 403178, Note_on_c, 0, 72, 77
1, 403178, Note_on_c, 0, 69, 68
1, 403189, Note_on_c, 0, 68, 0
1, 403224, Note_on_c, 0, 69, 0
1, 403224, Note_on_c, 0, 70, 73
1, 403265, Note_on_c, 0, 66, 44
1, 403273, Note_on_c, 0, 72, 0
1, 403276, Note_on_c, 0, 65, 85
1, 403279, Note_on_c, 0, 70, 0
1, 403279, Note_on_c, 0, 68, 73
1, 403310, Note_on_c, 0, 65, 0
1, 403316, Note_on_c, 0, 66, 0
1, 403323, Note_on_c, 0, 70, 70
1, 403334, Note_on_c, 0, 68, 0
1, 403355, Note_on_c, 0, 73, 73
1, 403359, Note_on_c, 0, 70, 0
1, 403359, Note_on_c, 0, 76, 74
1, 403410, Note_on_c, 0, 74, 85
1, 403432, Note_on_c, 0, 73, 0
1, 403443, Note_on_c, 0, 74, 0
1, 403449, Note_on_c, 0, 76, 0
1, 403452, Note_on_c, 0, 68, 78
1, 403452, Note_on_c, 0, 70, 79
1, 403493, Note_on_c, 0, 74, 83
1, 403508, Note_on_c, 0, 68, 0
1, 403538, Note_on_c, 0, 70, 0
1, 403543, Note_on_c, 0, 76, 60
1, 403550, Note_on_c, 0, 79, 61
1, 403553, Note_on_c, 0, 74, 0
1, 403561, Note_on_c, 0, 81, 44
1, 403586, Note_on_c, 0, 77, 74
1, 403596, Note_on_c, 0, 76, 0
1, 403602, Note_on_c, 0, 81, 0
1, 403619, Note_on_c, 0, 74, 78
1, 403633, Note_on_c, 0, 79, 0
1, 403674, Note_on_c, 0, 74, 0
1, 403674, Note_on_c, 0, 80, 75
1, 403697, Note_on_c, 0, 77, 0
1, 403708, Note_on_c, 0, 84, 88
1, 403708, Note_on_c, 0, 81, 85
1, 403739, Note_on_c, 0, 80, 0
1, 403756, Note_on_c, 0, 81, 0
1, 403759, Note_on_c, 0, 82, 72
1, 403791, Note_on_c, 0, 82, 0
1, 403791, Note_on_c, 0, 77, 78
1, 403795, Note_on_c, 0, 84, 0
1, 403798, Note_on_c, 0, 80, 70
1, 403834, Note_on_c, 0, 82, 68
1, 403856, Note_on_c, 0, 77, 0
1, 403870, Note_on_c, 0, 85, 86
1, 403870, Note_on_c, 0, 88, 88
1, 403880, Note_on_c, 0, 80, 0
1, 403905, Note_on_c, 0, 82, 0
1, 403926, Note_on_c, 0, 86, 82
1, 403948, Note_on_c, 0, 85, 0
1, 403956, Note_on_c, 0, 86, 0
1, 403956, Note_on_c, 0, 80, 75
1, 403956, Note_on_c, 0, 88, 0
1, 403956, Note_on_c, 0, 82, 73
1, 403998, Note_on_c, 0, 86, 82
1, 404034, Note_on_c, 0, 82, 0
1, 404042, Note_on_c, 0, 91, 92
1, 404042, Note_on_c, 0, 80, 0
1, 404042, Note_on_c, 0, 88, 81
1, 404076, Note_on_c, 0, 86, 0
1, 404089, Note_on_c, 0, 88, 0
1, 404098, Note_on_c, 0, 89, 66
1, 404110, Note_on_c, 0, 86, 94
1, 404123, Note_on_c, 0, 91, 0
1, 404182, Note_on_c, 0, 92, 73
1, 404206, Note_on_c, 0, 89, 0
1, 404206, Note_on_c, 0, 86, 0
1, 404218, Note_on_c, 0, 93, 84
1, 404218, Note_on_c, 0, 96, 93
1, 404223, Note_on_c, 0, 92, 0
1, 404273, Note_on_c, 0, 94, 78
1, 404279, Note_on_c, 0, 93, 0
1, 404298, Note_on_c, 0, 92, 61
1, 404298, Note_on_c, 0, 94, 0
1, 404306, Note_on_c, 0, 89, 78
1, 404318, Note_on_c, 0, 96, 0
1, 404334, Note_on_c, 0, 94, 78
1, 404365, Note_on_c, 0, 89, 0
1, 404387, Note_on_c, 0, 100, 93
1, 404390, Note_on_c, 0, 97, 81
1, 404394, Note_on_c, 0, 92, 0
1, 404419, Note_on_c, 0, 94, 0
1, 404440, Note_on_c, 0, 98, 87
1, 404452, Note_on_c, 0, 97, 0
1, 404469, Note_on_c, 0, 98, 0
1, 404477, Note_on_c, 0, 92, 83
1, 404477, Note_on_c, 0, 94, 65
1, 404488, Note_on_c, 0, 100, 0
1, 404538, Note_on_c, 0, 98, 61
1, 404550, Note_on_c, 0, 100, 44
1, 404558, Note_on_c, 0, 103, 90
1, 404569, Note_on_c, 0, 98, 0
1, 404582, Note_on_c, 0, 94, 0
1, 404582, Note_on_c, 0, 92, 0
1, 404617, Note_on_c, 0, 101, 71
1, 404635, Note_on_c, 0, 100, 0
1, 404644, Note_on_c, 0, 103, 0
1, 404649, Note_on_c, 0, 101, 0
1, 404649, Note_on_c, 0, 89, 75
1, 404655, Note_on_c, 0, 92, 61
1, 404699, Note_on_c, 0, 94, 65
1, 404728, Note_on_c, 0, 97, 72
1, 404738, Note_on_c, 0, 100, 58
1, 404742, Note_on_c, 0, 92, 0
1, 404749, Note_on_c, 0, 89, 0
1, 404780, Note_on_c, 0, 94, 0
1, 404795, Note_on_c, 0, 98, 97
1, 404814, Note_on_c, 0, 97, 0
1, 404823, Note_on_c, 0, 100, 0
1, 404823, Note_on_c, 0, 98, 0
1, 404840, Note_on_c, 0, 89, 67
1, 404840, Note_on_c, 0, 86, 81
1, 404862, Note_on_c, 0, 92, 76
1, 404876, Note_on_c, 0, 89, 0
1, 404876, Note_on_c, 0, 86, 0
1, 404900, Note_on_c, 0, 93, 85
1, 404906, Note_on_c, 0, 96, 72
1, 404931, Note_on_c, 0, 92, 0
1, 404948, Note_on_c, 0, 94, 73
1, 404983, Note_on_c, 0, 93, 0
1, 404989, Note_on_c, 0, 96, 0
1, 405001, Note_on_c, 0, 89, 91
1, 405018, Note_on_c, 0, 92, 50
1, 405021, Note_on_c, 0, 94, 0
1, 405050, Note_on_c, 0, 94, 72
1, 405078, Note_on_c, 0, 97, 78
1, 405078, Note_on_c, 0, 100, 80
1, 405090, Note_on_c, 0, 89, 0
1, 405107, Note_on_c, 0, 92, 0
1, 405118, Note_on_c, 0, 94, 0
1, 405131, Note_on_c, 0, 98, 93
1, 405154, Note_on_c, 0, 97, 0
1, 405159, Note_on_c, 0, 98, 0
1, 405163, Note_on_c, 0, 100, 0
1, 405182, Note_on_c, 0, 92, 72
1, 405185, Note_on_c, 0, 94, 57
1, 405234, Note_on_c, 0, 98, 68
1, 405259, Note_on_c, 0, 103, 80
1, 405259, Note_on_c, 0, 100, 79
1, 405274, Note_on_c, 0, 98, 0
1, 405293, Note_on_c, 0, 92, 0
1, 405296, Note_on_c, 0, 94, 0
1, 405319, Note_on_c, 0, 101, 70
1, 405334, Note_on_c, 0, 100, 0
1, 405346, Note_on_c, 0, 103, 0
1, 405346, Note_on_c, 0, 101, 0
1, 405366, Note_on_c, 0, 92, 54
1, 405371, Note_on_c, 0, 89, 70
1, 405402, Note_on_c, 0, 94, 69
1, 405436, Note_on_c, 0, 100, 66
1, 405440, Note_on_c, 0, 97, 64
1, 405455, Note_on_c, 0, 92, 0
1, 405466, Note_on_c, 0, 89, 0
1, 405474, Note_on_c, 0, 94, 0
1, 405500, Note_on_c, 0, 98, 94
1, 405525, Note_on_c, 0, 97, 0
1, 405529, Note_on_c, 0, 98, 0
1, 405536, Note_on_c, 0, 86, 85
1, 405539, Note_on_c, 0, 100, 0
1, 405543, Note_on_c, 0, 89, 39
1, 405587, Note_on_c, 0, 89, 0
1, 405587, Note_on_c, 0, 92, 58
1, 405600, Note_on_c, 0, 86, 0
1, 405611, Note_on_c, 0, 93, 71
1, 405614, Note_on_c, 0, 96, 70
1, 405656, Note_on_c, 0, 92, 0
1, 405661, Note_on_c, 0, 94, 71
1, 405670, Note_on_c, 0, 93, 0
1, 405699, Note_on_c, 0, 96, 0
1, 405714, Note_on_c, 0, 94, 0
1, 405728, Note_on_c, 0, 92, 48
1, 405728, Note_on_c, 0, 89, 84
1, 405766, Note_on_c, 0, 94, 56
1, 405781, Note_on_c, 0, 89, 0
1, 405792, Note_on_c, 0, 97, 72
1, 405792, Note_on_c, 0, 100, 76
1, 405806, Note_on_c, 0, 92, 0
1, 405839, Note_on_c, 0, 94, 0
1, 405848, Note_on_c, 0, 98, 84
1, 405851, Note_on_c, 0, 97, 0
1, 405878, Note_on_c, 0, 98, 0
1, 405878, Note_on_c, 0, 100, 0
1, 405900, Note_on_c, 0, 92, 75
1, 405908, Note_on_c, 0, 94, 47
1, 405950, Note_on_c, 0, 98, 61
1, 405989, Note_on_c, 0, 103, 74
1, 406001, Note_on_c, 0, 100, 46
1, 406001, Note_on_c, 0, 98, 0
1, 406020, Note_on_c, 0, 92, 0
1, 406029, Note_on_c, 0, 94, 0
1, 406045, Note_on_c, 0, 101, 65
1, 406062, Note_on_c, 0, 100, 0
1, 406078, Note_on_c, 0, 103, 0
1, 406084, Note_on_c, 0, 101, 0
1, 406106, Note_on_c, 0, 92, 43
1, 406110, Note_on_c, 0, 89, 41
1, 406151, Note_on_c, 0, 89, 0
1, 406151, Note_on_c, 0, 94, 60
1, 406172, Note_on_c, 0, 100, 71
1, 406175, Note_on_c, 0, 97, 62
1, 406198, Note_on_c, 0, 92, 0
1, 406227, Note_on_c, 0, 94, 0
1, 406227, Note_on_c, 0, 98, 94
1, 406255, Note_on_c, 0, 97, 0
1, 406260, Note_on_c, 0, 98, 0
1, 406273, Note_on_c, 0, 100, 0
1, 406290, Note_on_c, 0, 94, 42
1, 406290, Note_on_c, 0, 92, 64
1, 406344, Note_on_c, 0, 98, 75
1, 406371, Note_on_c, 0, 103, 67
1, 406374, Note_on_c, 0, 100, 69
1, 406374, Note_on_c, 0, 98, 0
1, 406396, Note_on_c, 0, 94, 0
1, 406406, Note_on_c, 0, 92, 0
1, 406426, Note_on_c, 0, 101, 65
1, 406432, Note_on_c, 0, 100, 0
1, 406454, Note_on_c, 0, 103, 0
1, 406458, Note_on_c, 0, 101, 0
1, 406475, Note_on_c, 0, 89, 70
1, 406475, Note_on_c, 0, 92, 53
1, 406532, Note_on_c, 0, 94, 66
1, 406536, Note_on_c, 0, 89, 0
1, 406549, Note_on_c, 0, 100, 60
1, 406555, Note_on_c, 0, 97, 58
1, 406564, Note_on_c, 0, 92, 0
1, 406606, Note_on_c, 0, 94, 0
1, 406606, Note_on_c, 0, 98, 92
1, 406630, Note_on_c, 0, 97, 0
1, 406636, Note_on_c, 0, 98, 0
1, 406644, Note_on_c, 0, 100, 0
1, 406652, Note_on_c, 0, 94, 64
1, 406656, Note_on_c, 0, 92, 57
1, 406717, Note_on_c, 0, 98, 69
1, 406727, Note_on_c, 0, 100, 14
1, 406741, Note_on_c, 0, 103, 83
1, 406752, Note_on_c, 0, 98, 0
1, 406752, Note_on_c, 0, 94, 0
1, 406761, Note_on_c, 0, 92, 0
1, 406808, Note_on_c, 0, 101, 72
1, 406834, Note_on_c, 0, 100, 0
1, 406834, Note_on_c, 0, 103, 0
1, 406839, Note_on_c, 0, 101, 0
1, 406845, Note_on_c, 0, 89, 67
1, 406845, Note_on_c, 0, 92, 52
1, 406901, Note_on_c, 0, 94, 65
1, 406926, Note_on_c, 0, 89, 0
1, 406936, Note_on_c, 0, 92, 0
1, 406936, Note_on_c, 0, 97, 67
1, 406936, Note_on_c, 0, 100, 67
1, 406978, Note_on_c, 0, 94, 0
1, 406998, Note_on_c, 0, 98, 91
1, 406998, Note_on_c, 0, 97, 0
1, 407026, Note_on_c, 0, 100, 0
1, 407026, Note_on_c, 0, 98, 0
1, 407026, Note_on_c, 0, 92, 63
1, 407029, Note_on_c, 0, 94, 55
1, 407096, Note_on_c, 0, 98, 70
1, 407149, Note_on_c, 0, 103, 74
1, 407167, Note_on_c, 0, 94, 0
1, 407171, Note_on_c, 0, 92, 0
1, 407174, Note_on_c, 0, 98, 0
1, 407204, Note_on_c, 0, 100, 61
1, 407245, Note_on_c, 0, 103, 0
1, 407266, Note_on_c, 0, 101, 69
1, 407287, Note_on_c, 0, 100, 0
1, 407296, Note_on_c, 0, 101, 0
1, 407308, Note_on_c, 0, 98, 72
1, 407351, Note_on_c, 0, 98, 0
1, 407366, Note_on_c, 0, 100, 54
1, 407424, Note_on_c, 0, 97, 88
1, 407480, Note_on_c, 0, 100, 0
1, 407486, Note_on_c, 0, 98, 53
1, 407493, Note_on_c, 0, 97, 0
1, 407519, Note_on_c, 0, 98, 0
1, 407519, Note_on_c, 0, 94, 55
1, 407574, Note_on_c, 0, 97, 53
1, 407603, Note_on_c, 0, 94, 0
1, 407607, Note_on_c, 0, 97, 0
1, 407625, Note_on_c, 0, 93, 51
1, 407672, Note_on_c, 0, 93, 0
1, 407683, Note_on_c, 0, 94, 47
1, 407727, Note_on_c, 0, 92, 58
1, 407778, Note_on_c, 0, 93, 78
1, 407812, Note_on_c, 0, 94, 0
1, 407820, Note_on_c, 0, 93, 0
1, 407825, Note_on_c, 0, 92, 0
1, 407840, Note_on_c, 0, 89, 43
1, 407886, Note_on_c, 0, 92, 59
1, 407901, Note_on_c, 0, 89, 0
1, 407936, Note_on_c, 0, 88, 69
1, 407989, Note_on_c, 0, 89, 68
1, 408009, Note_on_c, 0, 92, 0
1, 408029, Note_on_c, 0, 89, 0
1, 408034, Note_on_c, 0, 88, 0
1, 408040, Note_on_c, 0, 86, 73
1, 408074, Note_on_c, 0, 86, 0
1, 408104, Note_on_c, 0, 88, 53
1, 408151, Note_on_c, 0, 85, 51
1, 408207, Note_on_c, 0, 86, 78
1, 408227, Note_on_c, 0, 88, 0
1, 408243, Note_on_c, 0, 85, 0
1, 408243, Note_on_c, 0, 82, 56
1, 408302, Note_on_c, 0, 85, 61
1, 408318, Note_on_c, 0, 86, 0
1, 408341, Note_on_c, 0, 82, 0
1, 408357, Note_on_c, 0, 85, 0
1, 408357, Note_on_c, 0, 81, 61
1, 408399, Note_on_c, 0, 81, 0
1, 408416, Note_on_c, 0, 82, 55
1, 408458, Note_on_c, 0, 80, 70
1, 408519, Note_on_c, 0, 81, 72
1, 408527, Control_c, 0, 64, 0
1, 408547, Note_on_c, 0, 82, 0
1, 408547, Note_on_c, 0, 80, 0
1, 408551, Note_on_c, 0, 81, 0
1, 408566, Note_on_c, 0, 77, 68
1, 408616, Note_on_c, 0, 80, 58
1, 408635, Note_on_c, 0, 77, 0
1, 408673, Note_on_c, 0, 76, 57
1, 408725, Note_on_c, 0, 77, 56
1, 408744, Note_on_c, 0, 80, 0
1, 408759, Note_on_c, 0, 76, 0
1, 408775, Note_on_c, 0, 74, 70
1, 408781, Note_on_c, 0, 77, 0
1, 408850, Note_on_c, 0, 76, 38
1, 408855, Note_on_c, 0, 74, 0
1, 408892, Note_on_c, 0, 73, 42
1, 408898, Control_c, 0, 64, 127
1, 408934, Note_on_c, 0, 74, 75
1, 408961, Note_on_c, 0, 76, 0
1, 408970, Note_on_c, 0, 73, 0
1, 408986, Note_on_c, 0, 70, 55
1, 409042, Note_on_c, 0, 74, 0
1, 409042, Note_on_c, 0, 73, 53
1, 409076, Note_on_c, 0, 70, 0
1, 409087, Note_on_c, 0, 73, 0
1, 409090, Note_on_c, 0, 69, 49
1, 409151, Note_on_c, 0, 69, 0
1, 409151, Control_c, 0, 64, 0
1, 409157, Note_on_c, 0, 70, 46
1, 409201, Note_on_c, 0, 68, 52
1, 409252, Note_on_c, 0, 69, 68
1, 409283, Note_on_c, 0, 70, 0
1, 409294, Note_on_c, 0, 68, 0
1, 409308, Note_on_c, 0, 69, 0
1, 409308, Note_on_c, 0, 65, 57
1, 409357, Note_on_c, 0, 68, 48
1, 409368, Note_on_c, 0, 65, 0
1, 409421, Note_on_c, 0, 64, 65
1, 409472, Note_on_c, 0, 64, 0
1, 409472, Note_on_c, 0, 65, 61
1, 409494, Note_on_c, 0, 68, 0
1, 409526, Note_on_c, 0, 65, 0
1, 409526, Note_on_c, 0, 62, 66
1, 409572, Note_on_c, 0, 62, 0
1, 409597, Note_on_c, 0, 64, 59
1, 409641, Note_on_c, 0, 61, 55
1, 409705, Note_on_c, 0, 64, 0
1, 409711, Note_on_c, 0, 62, 76
1, 409733, Note_on_c, 0, 61, 0
1, 409767, Note_on_c, 0, 57, 60
1, 409801, Note_on_c, 0, 57, 0
1, 409806, Note_on_c, 0, 62, 0
1, 409834, Note_on_c, 0, 58, 76
1, 409892, Note_on_c, 0, 56, 78
1, 409915, Note_on_c, 0, 58, 0
1, 409964, Note_on_c, 0, 58, 58
1, 409976, Note_on_c, 0, 56, 0
1, 410026, Note_on_c, 0, 56, 60
1, 410045, Note_on_c, 0, 58, 0
1, 410092, Note_on_c, 0, 58, 57
1, 410115, Note_on_c, 0, 56, 0
1, 410166, Note_on_c, 0, 56, 56
1, 410170, Note_on_c, 0, 58, 0
1, 410210, Note_on_c, 0, 58, 70
1, 410218, Note_on_c, 0, 56, 0
1, 410271, Note_on_c, 0, 56, 55
1, 410288, Note_on_c, 0, 58, 0
1, 410335, Note_on_c, 0, 58, 55
1, 410347, Note_on_c, 0, 56, 0
1, 410399, Note_on_c, 0, 56, 61
1, 410414, Note_on_c, 0, 58, 0
1, 410463, Note_on_c, 0, 56, 0
1, 410463, Note_on_c, 0, 58, 48
1, 410522, Note_on_c, 0, 56, 46
1, 410530, Note_on_c, 0, 58, 0
1, 410581, Note_on_c, 0, 58, 49
1, 410586, Note_on_c, 0, 56, 0
1, 410647, Note_on_c, 0, 58, 0
1, 410647, Note_on_c, 0, 56, 48
1, 410703, Note_on_c, 0, 58, 38
1, 410703, Note_on_c, 0, 56, 0
1, 410758, Note_on_c, 0, 58, 0
1, 410775, Note_on_c, 0, 56, 31
1, 410814, Note_on_c, 0, 58, 41
1, 410831, Note_on_c, 0, 56, 0
1, 410884, Note_on_c, 0, 56, 50
1, 410890, Note_on_c, 0, 58, 0
1, 410939, Note_on_c, 0, 56, 0
1, 410943, Note_on_c, 0, 58, 43
1, 410993, Note_on_c, 0, 56, 49
1, 411010, Note_on_c, 0, 58, 0
1, 411052, Note_on_c, 0, 56, 0
1, 411062, Note_on_c, 0, 58, 38
1, 411113, Note_on_c, 0, 56, 46
1, 411137, Note_on_c, 0, 58, 0
1, 411174, Note_on_c, 0, 56, 0
1, 411184, Note_on_c, 0, 58, 28
1, 411238, Note_on_c, 0, 56, 48
1, 411257, Note_on_c, 0, 58, 0
1, 411296, Note_on_c, 0, 56, 0
1, 411301, Note_on_c, 0, 89, 83
1, 411301, Note_on_c, 0, 86, 71
1, 411307, Note_on_c, 0, 58, 47
1, 411343, Note_on_c, 0, 86, 0
1, 411346, Note_on_c, 0, 89, 0
1, 411364, Note_on_c, 0, 56, 57
1, 411372, Note_on_c, 0, 91, 51
1, 411377, Note_on_c, 0, 58, 0
1, 411419, Note_on_c, 0, 56, 0
1, 411424, Note_on_c, 0, 89, 39
1, 411430, Note_on_c, 0, 86, 44
1, 411435, Note_on_c, 0, 58, 38
1, 411443, Note_on_c, 0, 91, 0
1, 411471, Note_on_c, 0, 89, 0
1, 411475, Note_on_c, 0, 86, 0
1, 411492, Note_on_c, 0, 56, 48
1, 411497, Note_on_c, 0, 91, 43
1, 411520, Note_on_c, 0, 58, 0
1, 411541, Note_on_c, 0, 91, 0
1, 411558, Control_c, 0, 64, 127
1, 411558, Note_on_c, 0, 89, 71
1, 411558, Note_on_c, 0, 86, 19
1, 411561, Note_on_c, 0, 58, 39
1, 411564, Note_on_c, 0, 56, 0
1, 411593, Note_on_c, 0, 89, 0
1, 411603, Note_on_c, 0, 86, 0
1, 411606, Control_c, 0, 64, 0
1, 411616, Note_on_c, 0, 58, 0
1, 411628, Note_on_c, 0, 91, 45
1, 411632, Note_on_c, 0, 56, 33
1, 411688, Note_on_c, 0, 89, 57
1, 411688, Note_on_c, 0, 86, 19
1, 411699, Note_on_c, 0, 58, 42
1, 411708, Note_on_c, 0, 91, 0
1, 411719, Note_on_c, 0, 56, 0
1, 411732, Note_on_c, 0, 86, 0
1, 411746, Note_on_c, 0, 89, 0
1, 411762, Note_on_c, 0, 58, 0
1, 411762, Note_on_c, 0, 57, 53
1, 411801, Note_on_c, 0, 85, 73
1, 411801, Note_on_c, 0, 88, 72
1, 411809, Note_on_c, 0, 58, 42
1, 411820, Note_on_c, 0, 57, 0
1, 411836, Note_on_c, 0, 85, 0
1, 411844, Note_on_c, 0, 88, 0
1, 411848, Note_on_c, 0, 57, 41
1, 411871, Note_on_c, 0, 58, 0
1, 411898, Note_on_c, 0, 58, 43
1, 411909, Note_on_c, 0, 89, 57
1, 411909, Note_on_c, 0, 86, 74
1, 411916, Note_on_c, 0, 57, 0
1, 411942, Note_on_c, 0, 86, 0
1, 411957, Note_on_c, 0, 57, 41
1, 411967, Note_on_c, 0, 89, 0
1, 411981, Note_on_c, 0, 58, 0
1, 411987, Note_on_c, 0, 59, 68
1, 412010, Note_on_c, 0, 86, 49
1, 412010, Note_on_c, 0, 80, 74
1, 412024, Note_on_c, 0, 57, 0
1, 412035, Note_on_c, 0, 58, 42
1, 412046, Note_on_c, 0, 80, 0
1, 412057, Note_on_c, 0, 59, 0
1, 412062, Note_on_c, 0, 86, 0
1, 412116, Note_on_c, 0, 58, 0
1, 412119, Note_on_c, 0, 59, 56
1, 412126, Note_on_c, 0, 77, 51
1, 412126, Note_on_c, 0, 80, 42
1, 412163, Note_on_c, 0, 77, 0
1, 412163, Note_on_c, 0, 59, 0
1, 412167, Note_on_c, 0, 58, 41
1, 412167, Note_on_c, 0, 80, 0
1, 412227, Note_on_c, 0, 80, 55
1, 412232, Note_on_c, 0, 86, 68
1, 412240, Note_on_c, 0, 58, 0
1, 412247, Note_on_c, 0, 59, 50
1, 412277, Note_on_c, 0, 86, 0
1, 412283, Note_on_c, 0, 80, 0
1, 412286, Note_on_c, 0, 59, 0
1, 412291, Note_on_c, 0, 58, 46
1, 412350, Note_on_c, 0, 86, 58
1, 412350, Note_on_c, 0, 89, 64
1, 412379, Note_on_c, 0, 58, 0
1, 412379, Note_on_c, 0, 57, 65
1, 412382, Note_on_c, 0, 89, 0
1, 412388, Note_on_c, 0, 86, 0
1, 412425, Note_on_c, 0, 57, 0
1, 412435, Note_on_c, 0, 58, 41
1, 412467, Note_on_c, 0, 86, 30
1, 412471, Note_on_c, 0, 81, 73
1, 412502, Note_on_c, 0, 81, 0
1, 412510, Note_on_c, 0, 58, 0
1, 412510, Note_on_c, 0, 57, 35
1, 412520, Note_on_c, 0, 86, 0
1, 412564, Note_on_c, 0, 57, 0
1, 412572, Note_on_c, 0, 58, 37
1, 412586, Note_on_c, 0, 81, 36
1, 412586, Note_on_c, 0, 77, 49
1, 412627, Note_on_c, 0, 81, 0
1, 412627, Note_on_c, 0, 77, 0
1, 412641, Note_on_c, 0, 58, 0
1, 412651, Note_on_c, 0, 57, 39
1, 412715, Note_on_c, 0, 57, 0
1, 412715, Note_on_c, 0, 82, 81
1, 412715, Note_on_c, 0, 77, 50
1, 412725, Note_on_c, 0, 56, 58
1, 412754, Note_on_c, 0, 77, 0
1, 412759, Note_on_c, 0, 86, 63
1, 412762, Note_on_c, 0, 82, 0
1, 412773, Note_on_c, 0, 56, 0
1, 412781, Note_on_c, 0, 57, 43
1, 412825, Note_on_c, 0, 77, 43
1, 412829, Note_on_c, 0, 82, 52
1, 412836, Note_on_c, 0, 86, 0
1, 412840, Note_on_c, 0, 56, 35
1, 412843, Note_on_c, 0, 57, 0
1, 412868, Note_on_c, 0, 82, 0
1, 412882, Note_on_c, 0, 77, 0
1, 412890, Note_on_c, 0, 56, 0
1, 412895, Note_on_c, 0, 86, 52
1, 412902, Note_on_c, 0, 57, 45
1, 412947, Note_on_c, 0, 56, 36
1, 412947, Note_on_c, 0, 57, 0
1, 412947, Note_on_c, 0, 82, 36
1, 412947, Note_on_c, 0, 77, 48
1, 412962, Note_on_c, 0, 86, 0
1, 413001, Note_on_c, 0, 77, 0
1, 413006, Note_on_c, 0, 56, 0
1, 413006, Note_on_c, 0, 86, 45
1, 413006, Note_on_c, 0, 82, 0
1, 413011, Note_on_c, 0, 57, 40
1, 413046, Note_on_c, 0, 86, 0
1, 413070, Note_on_c, 0, 57, 0
1, 413075, Note_on_c, 0, 81, 42
1, 413075, Note_on_c, 0, 77, 65
1, 413083, Note_on_c, 0, 58, 56
1, 413112, Note_on_c, 0, 81, 0
1, 413112, Note_on_c, 0, 77, 0
1, 413132, Note_on_c, 0, 58, 0
1, 413141, Note_on_c, 0, 57, 38
1, 413186, Note_on_c, 0, 57, 0
1, 413189, Note_on_c, 0, 80, 63
1, 413194, Note_on_c, 0, 58, 40
1, 413194, Note_on_c, 0, 76, 62
1, 413228, Note_on_c, 0, 80, 0
1, 413228, Note_on_c, 0, 76, 0
1, 413244, Note_on_c, 0, 57, 54
1, 413244, Note_on_c, 0, 58, 0
1, 413286, Note_on_c, 0, 81, 63
1, 413293, Note_on_c, 0, 77, 62
1, 413293, Note_on_c, 0, 58, 35
1, 413313, Note_on_c, 0, 57, 0
1, 413325, Note_on_c, 0, 81, 0
1, 413325, Note_on_c, 0, 77, 0
1, 413368, Note_on_c, 0, 57, 38
1, 413376, Note_on_c, 0, 58, 0
1, 413414, Note_on_c, 0, 57, 0
1, 413430, Note_on_c, 0, 58, 57
1, 413430, Note_on_c, 0, 77, 39
1, 413433, Note_on_c, 0, 74, 59
1, 413472, Note_on_c, 0, 74, 0
1, 413472, Note_on_c, 0, 77, 0
1, 413478, Note_on_c, 0, 59, 39
1, 413478, Note_on_c, 0, 58, 0
1, 413552, Note_on_c, 0, 77, 41
1, 413552, Note_on_c, 0, 80, 64
1, 413563, Note_on_c, 0, 59, 0
1, 413563, Note_on_c, 0, 58, 45
1, 413592, Note_on_c, 0, 77, 0
1, 413592, Note_on_c, 0, 80, 0
1, 413616, Note_on_c, 0, 58, 0
1, 413628, Note_on_c, 0, 59, 28
1, 413680, Note_on_c, 0, 85, 69
1, 413680, Note_on_c, 0, 59, 0
1, 413680, Note_on_c, 0, 76, 43
1, 413689, Note_on_c, 0, 58, 48
1, 413714, Note_on_c, 0, 85, 0
1, 413722, Note_on_c, 0, 76, 0
1, 413726, Note_on_c, 0, 58, 0
1, 413736, Note_on_c, 0, 59, 37
1, 413788, Note_on_c, 0, 59, 0
1, 413788, Note_on_c, 0, 58, 48
1, 413788, Note_on_c, 0, 86, 76
1, 413788, Note_on_c, 0, 77, 67
1, 413825, Note_on_c, 0, 57, 57
1, 413825, Note_on_c, 0, 58, 0
1, 413828, Note_on_c, 0, 77, 0
1, 413839, Note_on_c, 0, 86, 0
1, 413870, Note_on_c, 0, 57, 0
1, 413882, Note_on_c, 0, 58, 47
1, 413892, Note_on_c, 0, 77, 37
1, 413892, Note_on_c, 0, 81, 60
1, 413928, Note_on_c, 0, 81, 0
1, 413939, Note_on_c, 0, 77, 0
1, 413963, Note_on_c, 0, 58, 0
1, 413966, Note_on_c, 0, 57, 29
1, 414008, Note_on_c, 0, 77, 49
1, 414008, Note_on_c, 0, 74, 50
1, 414008, Note_on_c, 0, 57, 0
1, 414013, Note_on_c, 0, 58, 52
1, 414044, Note_on_c, 0, 77, 0
1, 414044, Note_on_c, 0, 74, 0
1, 414068, Note_on_c, 0, 58, 0
1, 414082, Note_on_c, 0, 57, 34
1, 414134, Note_on_c, 0, 56, 60
1, 414138, Note_on_c, 0, 77, 65
1, 414138, Note_on_c, 0, 74, 54
1, 414151, Note_on_c, 0, 57, 0
1, 414176, Note_on_c, 0, 77, 0
1, 414180, Note_on_c, 0, 74, 0
1, 414183, Note_on_c, 0, 56, 0
1, 414183, Note_on_c, 0, 57, 56
1, 414189, Note_on_c, 0, 79, 75
1, 414228, Note_on_c, 0, 79, 0
1, 414246, Note_on_c, 0, 56, 32
1, 414251, Note_on_c, 0, 57, 0
1, 414251, Note_on_c, 0, 74, 48
1, 414254, Note_on_c, 0, 77, 60
1, 414288, Note_on_c, 0, 77, 0
1, 414288, Note_on_c, 0, 74, 0
1, 414302, Note_on_c, 0, 56, 0
1, 414313, Note_on_c, 0, 79, 72
1, 414316, Note_on_c, 0, 57, 50
1, 414364, Note_on_c, 0, 77, 44
1, 414367, Note_on_c, 0, 79, 0
1, 414367, Note_on_c, 0, 74, 44
1, 414367, Note_on_c, 0, 57, 0
1, 414371, Note_on_c, 0, 56, 29
1, 414403, Note_on_c, 0, 77, 0
1, 414406, Note_on_c, 0, 74, 0
1, 414421, Note_on_c, 0, 79, 77
1, 414421, Note_on_c, 0, 57, 49
1, 414439, Note_on_c, 0, 56, 0
1, 414477, Note_on_c, 0, 77, 55
1, 414477, Note_on_c, 0, 74, 43
1, 414482, Note_on_c, 0, 58, 50
1, 414485, Note_on_c, 0, 57, 0
1, 414494, Note_on_c, 0, 79, 0
1, 414509, Note_on_c, 0, 77, 0
1, 414525, Note_on_c, 0, 74, 0
1, 414529, Note_on_c, 0, 57, 42
1, 414552, Note_on_c, 0, 58, 0
1, 414574, Note_on_c, 0, 57, 0
1, 414594, Note_on_c, 0, 76, 59
1, 414594, Note_on_c, 0, 73, 67
1, 414594, Note_on_c, 0, 58, 44
1, 414636, Note_on_c, 0, 73, 0
1, 414636, Note_on_c, 0, 76, 0
1, 414655, Note_on_c, 0, 57, 42
1, 414665, Note_on_c, 0, 58, 0
1, 414701, Note_on_c, 0, 57, 0
1, 414706, Note_on_c, 0, 74, 79
1, 414706, Note_on_c, 0, 77, 64
1, 414706, Note_on_c, 0, 58, 44
1, 414734, Note_on_c, 0, 74, 0
1, 414737, Note_on_c, 0, 77, 0
1, 414749, Note_on_c, 0, 57, 42
1, 414767, Note_on_c, 0, 58, 0
1, 414785, Note_on_c, 0, 58, 44
1, 414790, Note_on_c, 0, 68, 72
1, 414790, Note_on_c, 0, 74, 31
1, 414794, Note_on_c, 0, 57, 0
1, 414829, Note_on_c, 0, 68, 0
1, 414842, Note_on_c, 0, 74, 0
1, 414862, Note_on_c, 0, 59, 66
1, 414862, Note_on_c, 0, 58, 0
1, 414910, Note_on_c, 0, 59, 0
1, 414923, Note_on_c, 0, 58, 41
1, 414927, Note_on_c, 0, 68, 46
1, 414927, Note_on_c, 0, 65, 51
1, 414965, Note_on_c, 0, 65, 0
1, 414965, Note_on_c, 0, 68, 0
1, 415002, Note_on_c, 0, 58, 0
1, 415012, Note_on_c, 0, 59, 42
1, 415057, Note_on_c, 0, 68, 46
1, 415057, Note_on_c, 0, 58, 36
1, 415057, Note_on_c, 0, 74, 66
1, 415066, Note_on_c, 0, 59, 0
1, 415098, Note_on_c, 0, 74, 0
1, 415104, Note_on_c, 0, 68, 0
1, 415113, Note_on_c, 0, 58, 0
1, 415118, Note_on_c, 0, 59, 36
1, 415165, Note_on_c, 0, 59, 0
1, 415165, Note_on_c, 0, 74, 51
1, 415165, Note_on_c, 0, 77, 75
1, 415177, Note_on_c, 0, 58, 45
1, 415200, Note_on_c, 0, 77, 0
1, 415204, Note_on_c, 0, 74, 0
1, 415254, Note_on_c, 0, 57, 54
1, 415264, Note_on_c, 0, 58, 0
1, 415300, Note_on_c, 0, 74, 40
1, 415300, Note_on_c, 0, 57, 0
1, 415300, Note_on_c, 0, 69, 58
1, 415307, Note_on_c, 0, 58, 28
1, 415339, Note_on_c, 0, 69, 0
1, 415352, Note_on_c, 0, 57, 54
1, 415371, Note_on_c, 0, 74, 0
1, 415371, Note_on_c, 0, 58, 0
1, 415399, Note_on_c, 0, 57, 0
1, 415403, Note_on_c, 0, 69, 39
1, 415403, Note_on_c, 0, 65, 56
1, 415403, Note_on_c, 0, 58, 28
1, 415439, Note_on_c, 0, 65, 0
1, 415446, Note_on_c, 0, 69, 0
1, 415452, Note_on_c, 0, 57, 36
1, 415468, Note_on_c, 0, 58, 0
1, 415513, Note_on_c, 0, 70, 71
1, 415513, Note_on_c, 0, 57, 0
1, 415520, Note_on_c, 0, 56, 62
1, 415520, Note_on_c, 0, 65, 46
1, 415562, Note_on_c, 0, 70, 0
1, 415569, Note_on_c, 0, 65, 0
1, 415569, Note_on_c, 0, 74, 60
1, 415574, Note_on_c, 0, 56, 0
1, 415584, Note_on_c, 0, 57, 39
1, 415626, Note_on_c, 0, 56, 49
1, 415630, Note_on_c, 0, 57, 0
1, 415630, Note_on_c, 0, 74, 0
1, 415637, Note_on_c, 0, 70, 53
1, 415637, Note_on_c, 0, 65, 50
1, 415645, Control_c, 0, 64, 127
1, 415686, Note_on_c, 0, 70, 0
1, 415689, Note_on_c, 0, 65, 0
1, 415695, Note_on_c, 0, 56, 0
1, 415701, Note_on_c, 0, 74, 47
1, 415714, Note_on_c, 0, 57, 25
1, 415748, Note_on_c, 0, 70, 46
1, 415762, Note_on_c, 0, 65, 47
1, 415767, Note_on_c, 0, 56, 33
1, 415773, Note_on_c, 0, 57, 0
1, 415801, Control_c, 0, 64, 0
1, 415801, Note_on_c, 0, 65, 0
1, 415820, Note_on_c, 0, 70, 0
1, 415828, Note_on_c, 0, 56, 0
1, 415839, Note_on_c, 0, 57, 53
1, 415853, Note_on_c, 0, 74, 0
1, 415857, Note_on_c, 0, 65, 73
1, 415871, Note_on_c, 0, 69, 73
1, 415901, Note_on_c, 0, 57, 0
1, 415901, Note_on_c, 0, 58, 57
1, 415917, Note_on_c, 0, 65, 0
1, 415924, Note_on_c, 0, 69, 0
1, 415977, Note_on_c, 0, 58, 0
1, 415982, Note_on_c, 0, 57, 35
1, 415995, Note_on_c, 0, 64, 58
1, 415998, Note_on_c, 0, 68, 51
1, 416030, Note_on_c, 0, 64, 0
1, 416037, Note_on_c, 0, 68, 0
1, 416037, Note_on_c, 0, 58, 33
1, 416043, Note_on_c, 0, 57, 0
1, 416096, Note_on_c, 0, 69, 63
1, 416102, Note_on_c, 0, 58, 0
1, 416102, Note_on_c, 0, 65, 59
1, 416110, Note_on_c, 0, 57, 59
1, 416141, Note_on_c, 0, 65, 0
1, 416152, Note_on_c, 0, 69, 0
1, 416165, Note_on_c, 0, 57, 0
1, 416165, Note_on_c, 0, 58, 34
1, 416221, Note_on_c, 0, 65, 54
1, 416221, Note_on_c, 0, 62, 71
1, 416247, Note_on_c, 0, 59, 63
1, 416247, Note_on_c, 0, 58, 0
1, 416266, Note_on_c, 0, 62, 0
1, 416266, Note_on_c, 0, 65, 0
1, 416289, Note_on_c, 0, 59, 0
1, 416299, Note_on_c, 0, 58, 50
1, 416328, Note_on_c, 0, 65, 54
1, 416331, Note_on_c, 0, 68, 59
1, 416369, Note_on_c, 0, 68, 0
1, 416377, Note_on_c, 0, 65, 0
1, 416386, Note_on_c, 0, 58, 0
1, 416395, Note_on_c, 0, 59, 43
1, 416441, Note_on_c, 0, 73, 71
1, 416447, Note_on_c, 0, 58, 34
1, 416453, Note_on_c, 0, 59, 0
1, 416453, Note_on_c, 0, 64, 54
1, 416478, Note_on_c, 0, 73, 0
1, 416491, Note_on_c, 0, 64, 0
1, 416542, Note_on_c, 0, 58, 0
1, 416556, Note_on_c, 0, 57, 56
1, 416559, Note_on_c, 0, 74, 59
1, 416562, Note_on_c, 0, 65, 54
1, 416600, Note_on_c, 0, 74, 0
1, 416603, Note_on_c, 0, 65, 0
1, 416615, Note_on_c, 0, 57, 0
1, 416636, Note_on_c, 0, 58, 29
1, 416668, Note_on_c, 0, 69, 49
1, 416673, Note_on_c, 0, 65, 42
1, 416698, Note_on_c, 0, 58, 0
1, 416711, Note_on_c, 0, 69, 0
1, 416717, Note_on_c, 0, 65, 0
1, 416720, Note_on_c, 0, 57, 41
1, 416781, Note_on_c, 0, 65, 50
1, 416787, Note_on_c, 0, 58, 38
1, 416792, Note_on_c, 0, 57, 0
1, 416792, Note_on_c, 0, 62, 52
1, 416817, Note_on_c, 0, 65, 0
1, 416832, Note_on_c, 0, 62, 0
1, 416854, Note_on_c, 0, 58, 0
1, 416887, Note_on_c, 0, 56, 55
1, 416902, Note_on_c, 0, 65, 48
1, 416902, Note_on_c, 0, 62, 49
1, 416931, Note_on_c, 0, 67, 54
1, 416940, Note_on_c, 0, 65, 0
1, 416940, Note_on_c, 0, 62, 0
1, 416948, Note_on_c, 0, 57, 58
1, 416974, Note_on_c, 0, 56, 0
1, 416977, Note_on_c, 0, 67, 0
1, 417004, Note_on_c, 0, 65, 58
1, 417008, Note_on_c, 0, 57, 0
1, 417008, Note_on_c, 0, 58, 41
1, 417016, Note_on_c, 0, 62, 49
1, 417060, Note_on_c, 0, 62, 0
1, 417073, Note_on_c, 0, 59, 43
1, 417077, Note_on_c, 0, 58, 0
1, 417080, Note_on_c, 0, 65, 0
1, 417080, Note_on_c, 0, 67, 53
1, 417115, Note_on_c, 0, 59, 0
1, 417130, Note_on_c, 0, 65, 72
1, 417133, Note_on_c, 0, 62, 52
1, 417138, Note_on_c, 0, 67, 0
1, 417183, Note_on_c, 0, 62, 0
1, 417197, Note_on_c, 0, 67, 58
1, 417205, Note_on_c, 0, 65, 0
1, 417250, Note_on_c, 0, 60, 77
1, 417257, Note_on_c, 0, 65, 74
1, 417263, Note_on_c, 0, 62, 50
1, 417286, Note_on_c, 0, 59, 78
1, 417289, Note_on_c, 0, 67, 0
1, 417310, Note_on_c, 0, 60, 0
1, 417314, Note_on_c, 0, 62, 0
1, 417335, Note_on_c, 0, 65, 0
1, 417335, Note_on_c, 0, 67, 78
1, 417347, Note_on_c, 0, 58, 60
1, 417383, Note_on_c, 0, 62, 49
1, 417383, Note_on_c, 0, 65, 73
1, 417383, Note_on_c, 0, 67, 0
1, 417394, Note_on_c, 0, 59, 0
1, 417436, Note_on_c, 0, 65, 0
1, 417436, Note_on_c, 0, 57, 52
1, 417444, Note_on_c, 0, 62, 0
1, 417459, Note_on_c, 0, 67, 63
1, 417463, Note_on_c, 0, 58, 0
1, 417509, Note_on_c, 0, 65, 37
1, 417509, Note_on_c, 0, 62, 50
1, 417512, Note_on_c, 0, 57, 0
1, 417528, Note_on_c, 0, 67, 0
1, 417570, Note_on_c, 0, 65, 0
1, 417570, Note_on_c, 0, 62, 0
1, 417581, Note_on_c, 0, 67, 71
1, 417619, Note_on_c, 0, 56, 78
1, 417631, Note_on_c, 0, 62, 56
1, 417631, Note_on_c, 0, 65, 54
1, 417648, Note_on_c, 0, 67, 0
1, 417678, Note_on_c, 0, 57, 78
1, 417690, Note_on_c, 0, 65, 0
1, 417695, Note_on_c, 0, 62, 0
1, 417701, Note_on_c, 0, 56, 0
1, 417706, Note_on_c, 0, 67, 68
1, 417737, Note_on_c, 0, 58, 55
1, 417759, Note_on_c, 0, 65, 45
1, 417759, Note_on_c, 0, 62, 55
1, 417759, Note_on_c, 0, 67, 0
1, 417768, Note_on_c, 0, 57, 0
1, 417804, Note_on_c, 0, 59, 59
1, 417809, Note_on_c, 0, 62, 0
1, 417815, Note_on_c, 0, 65, 0
1, 417821, Note_on_c, 0, 58, 0
1, 417835, Note_on_c, 0, 67, 56
1, 417843, Note_on_c, 0, 59, 0
1, 417874, Note_on_c, 0, 65, 58
1, 417877, Note_on_c, 0, 62, 49
1, 417895, Note_on_c, 0, 67, 0
1, 417934, Note_on_c, 0, 62, 0
1, 417946, Note_on_c, 0, 65, 0
1, 417952, Note_on_c, 0, 67, 60
1, 417985, Note_on_c, 0, 60, 65
1, 417998, Note_on_c, 0, 62, 54
1, 418002, Note_on_c, 0, 65, 59
1, 418009, Note_on_c, 0, 67, 0
1, 418041, Note_on_c, 0, 60, 0
1, 418041, Note_on_c, 0, 59, 50
1, 418057, Note_on_c, 0, 65, 0
1, 418060, Note_on_c, 0, 62, 0
1, 418076, Note_on_c, 0, 67, 52
1, 418093, Note_on_c, 0, 59, 0
1, 418093, Note_on_c, 0, 58, 42
1, 418121, Note_on_c, 0, 67, 0
1, 418121, Note_on_c, 0, 65, 52
1, 418121, Note_on_c, 0, 62, 50
1, 418171, Note_on_c, 0, 65, 0
1, 418171, Note_on_c, 0, 62, 0
1, 418193, Note_on_c, 0, 67, 37
1, 418204, Note_on_c, 0, 57, 35
1, 418210, Note_on_c, 0, 58, 0
1, 418236, Note_on_c, 0, 65, 48
1, 418236, Note_on_c, 0, 62, 58
1, 418247, Note_on_c, 0, 67, 0
1, 418253, Note_on_c, 0, 57, 0
1, 418283, Note_on_c, 0, 62, 0
1, 418286, Note_on_c, 0, 65, 0
1, 418346, Note_on_c, 0, 65, 59
1, 418349, Note_on_c, 0, 62, 64
1, 418358, Note_on_c, 0, 56, 56
1, 418391, Note_on_c, 0, 59, 66
1, 418397, Note_on_c, 0, 62, 0
1, 418397, Note_on_c, 0, 56, 0
1, 418397, Note_on_c, 0, 67, 66
1, 418403, Note_on_c, 0, 65, 0
1, 418438, Note_on_c, 0, 59, 0
1, 418438, Note_on_c, 0, 56, 72
1, 418466, Note_on_c, 0, 65, 55
1, 418466, Note_on_c, 0, 62, 37
1, 418483, Note_on_c, 0, 67, 0
1, 418506, Note_on_c, 0, 65, 0
1, 418519, Note_on_c, 0, 56, 0
1, 418519, Note_on_c, 0, 62, 0
1, 418522, Note_on_c, 0, 59, 48
1, 418525, Note_on_c, 0, 67, 39
1, 418564, Note_on_c, 0, 59, 0
1, 418564, Note_on_c, 0, 65, 55
1, 418572, Note_on_c, 0, 56, 46
1, 418575, Note_on_c, 0, 67, 0
1, 418575, Note_on_c, 0, 62, 23
1, 418600, Note_on_c, 0, 65, 0
1, 418620, Note_on_c, 0, 56, 0
1, 418629, Note_on_c, 0, 62, 0
1, 418726, Note_on_c, 0, 68, 64
1, 418735, Note_on_c, 0, 77, 63
1, 418748, Note_on_c, 0, 74, 36
1, 418765, Note_on_c, 0, 71, 66
1, 418765, Note_on_c, 0, 77, 0
1, 418770, Note_on_c, 0, 68, 0
1, 418792, Note_on_c, 0, 79, 46
1, 418795, Note_on_c, 0, 74, 0
1, 418818, Note_on_c, 0, 71, 0
1, 418823, Note_on_c, 0, 68, 51
1, 418834, Note_on_c, 0, 77, 48
1, 418845, Note_on_c, 0, 79, 0
1, 418845, Note_on_c, 0, 74, 69
1, 418868, Note_on_c, 0, 68, 0
1, 418876, Note_on_c, 0, 77, 0
1, 418876, Note_on_c, 0, 74, 0
1, 418887, Note_on_c, 0, 71, 56
1, 418898, Note_on_c, 0, 79, 72
1, 418934, Note_on_c, 0, 68, 52
1, 418937, Note_on_c, 0, 77, 63
1, 418945, Note_on_c, 0, 79, 0
1, 418945, Note_on_c, 0, 71, 0
1, 418945, Note_on_c, 0, 74, 31
1, 418968, Note_on_c, 0, 68, 0
1, 418968, Note_on_c, 0, 77, 0
1, 419001, Note_on_c, 0, 74, 0
1, 419107, Note_on_c, 0, 89, 65
1, 419111, Note_on_c, 0, 80, 42
1, 419111, Note_on_c, 0, 86, 54
1, 419143, Note_on_c, 0, 89, 0
1, 419147, Note_on_c, 0, 83, 83
1, 419150, Note_on_c, 0, 86, 0
1, 419150, Note_on_c, 0, 91, 79
1, 419157, Note_on_c, 0, 80, 0
1, 419182, Note_on_c, 0, 83, 0
1, 419213, Note_on_c, 0, 80, 36
1, 419216, Note_on_c, 0, 89, 42
1, 419221, Note_on_c, 0, 86, 34
1, 419221, Note_on_c, 0, 91, 0
1, 419257, Note_on_c, 0, 89, 0
1, 419263, Note_on_c, 0, 83, 67
1, 419263, Note_on_c, 0, 80, 0
1, 419266, Note_on_c, 0, 86, 0
1, 419283, Note_on_c, 0, 91, 55
1, 419306, Note_on_c, 0, 83, 0
1, 419313, Note_on_c, 0, 80, 62
1, 419317, Note_on_c, 0, 89, 66
1, 419328, Note_on_c, 0, 91, 0
1, 419336, Note_on_c, 0, 86, 27
1, 419345, Note_on_c, 0, 80, 0
1, 419353, Note_on_c, 0, 89, 0
1, 419391, Note_on_c, 0, 86, 0
1, 419489, Note_on_c, 0, 68, 48
1, 419511, Note_on_c, 0, 77, 55
1, 419517, Note_on_c, 0, 74, 54
1, 419531, Note_on_c, 0, 68, 0
1, 419547, Note_on_c, 0, 77, 0
1, 419547, Note_on_c, 0, 71, 59
1, 419553, Note_on_c, 0, 79, 68
1, 419556, Note_on_c, 0, 74, 0
1, 419589, Note_on_c, 0, 68, 47
1, 419593, Note_on_c, 0, 71, 0
1, 419612, Note_on_c, 0, 79, 0
1, 419612, Note_on_c, 0, 77, 32
1, 419626, Note_on_c, 0, 74, 38
1, 419659, Note_on_c, 0, 68, 0
1, 419659, Note_on_c, 0, 77, 0
1, 419671, Note_on_c, 0, 74, 0
1, 419679, Note_on_c, 0, 71, 39
1, 419686, Note_on_c, 0, 79, 51
1, 419729, Note_on_c, 0, 71, 0
1, 419732, Note_on_c, 0, 79, 0
1, 419732, Note_on_c, 0, 77, 39
1, 419739, Note_on_c, 0, 74, 43
1, 419739, Note_on_c, 0, 68, 32
1, 419807, Note_on_c, 0, 74, 0
1, 419807, Note_on_c, 0, 68, 0
1, 419810, Note_on_c, 0, 77, 0
1, 419876, Control_c, 0, 64, 127
1, 419979, Note_on_c, 0, 56, 62
1, 419999, Note_on_c, 0, 65, 30
1, 420022, Note_on_c, 0, 62, 14
1, 420199, Note_on_c, 0, 65, 0
1, 420372, Note_on_c, 0, 62, 0
1, 420508, Note_on_c, 0, 57, 57
1, 420559, Control_c, 0, 64, 0
1, 420570, Note_on_c, 0, 56, 0
1, 421038, Control_c, 0, 64, 127
1, 421100, Note_on_c, 0, 58, 35
1, 421146, Note_on_c, 0, 57, 0
1, 421291, Control_c, 0, 64, 0
1, 421662, Control_c, 0, 64, 127
1, 422077, Note_on_c, 0, 59, 17
1, 422136, Note_on_c, 0, 58, 0
1, 422250, Control_c, 0, 64, 0
1, 422645, Control_c, 0, 64, 127
1, 423556, Note_on_c, 0, 60, 44
1, 423643, Note_on_c, 0, 59, 0
1, 423807, Control_c, 0, 64, 0
1, 424070, Control_c, 0, 64, 127
1, 424261, Note_on_c, 0, 61, 64
1, 424345, Note_on_c, 0, 60, 0
1, 424568, Note_on_c, 0, 61, 0
1, 424607, Note_on_c, 0, 61, 82
1, 424876, Note_on_c, 0, 66, 63
1, 424930, Note_on_c, 0, 61, 0
1, 425053, Control_c, 0, 64, 0
1, 425450, Control_c, 0, 64, 127
1, 425539, Note_on_c, 0, 45, 23
1, 425621, Note_on_c, 0, 52, 35
1, 425709, Note_on_c, 0, 52, 0
1, 425712, Note_on_c, 0, 56, 26
1, 425809, Note_on_c, 0, 62, 45
1, 425809, Note_on_c, 0, 56, 0
1, 425874, Note_on_c, 0, 45, 0
1, 425957, Note_on_c, 0, 62, 0
1, 426503, Note_on_c, 0, 60, 67
1, 426642, Note_on_c, 0, 66, 0
1, 426793, Note_on_c, 0, 60, 0
1, 426846, Note_on_c, 0, 60, 65
1, 427067, Note_on_c, 0, 45, 14
1, 427163, Control_c, 0, 64, 0
1, 427167, Note_on_c, 0, 52, 30
1, 427270, Note_on_c, 0, 61, 70
1, 427312, Note_on_c, 0, 57, 30
1, 427315, Note_on_c, 0, 45, 0
1, 427319, Note_on_c, 0, 60, 0
1, 427370, Note_on_c, 0, 52, 0
1, 427375, Note_on_c, 0, 57, 0
1, 427403, Control_c, 0, 64, 127
1, 427542, Note_on_c, 0, 61, 0
1, 427581, Note_on_c, 0, 65, 41
1, 427715, Control_c, 0, 64, 0
1, 427943, Control_c, 0, 64, 127
1, 427989, Note_on_c, 0, 65, 0
1, 428294, Note_on_c, 0, 65, 36
1, 428481, Note_on_c, 0, 65, 0
1, 428623, Note_on_c, 0, 65, 42
1, 430033, Note_on_c, 0, 64, 29
1, 430061, Note_on_c, 0, 65, 0
1, 430147, Control_c, 0, 64, 0
1, 430351, Control_c, 0, 64, 127
1, 430429, Note_on_c, 0, 64, 0
1, 430434, Note_on_c, 0, 63, 49
1, 430567, Control_c, 0, 64, 0
1, 430733, Control_c, 0, 64, 127
1, 430758, Note_on_c, 0, 64, 58
1, 430811, Note_on_c, 0, 63, 0
1, 430819, Control_c, 0, 64, 0
1, 430986, Control_c, 0, 64, 127
1, 431008, Note_on_c, 0, 68, 57
1, 431055, Note_on_c, 0, 64, 0
1, 431070, Control_c, 0, 64, 0
1, 431223, Note_on_c, 0, 69, 59
1, 431237, Control_c, 0, 64, 127
1, 431289, Note_on_c, 0, 68, 0
1, 431298, Control_c, 0, 64, 0
1, 431454, Control_c, 0, 64, 127
1, 431503, Note_on_c, 0, 72, 65
1, 431543, Note_on_c, 0, 69, 0
1, 431634, Control_c, 0, 64, 0
1, 431921, Control_c, 0, 64, 127
1, 432211, Note_on_c, 0, 73, 62
1, 432236, Note_on_c, 0, 72, 0
1, 432292, Control_c, 0, 64, 0
1, 432437, Control_c, 0, 64, 127
1, 432529, Note_on_c, 0, 73, 0
1, 432627, Note_on_c, 0, 73, 74
1, 432900, Note_on_c, 0, 78, 70
1, 432944, Note_on_c, 0, 73, 0
1, 433036, Control_c, 0, 64, 0
1, 433298, Control_c, 0, 64, 127
1, 433414, Note_on_c, 0, 57, 11
1, 433506, Note_on_c, 0, 64, 19
1, 433590, Note_on_c, 0, 68, 26
1, 433602, Note_on_c, 0, 64, 0
1, 433610, Note_on_c, 0, 57, 0
1, 433685, Note_on_c, 0, 68, 0
1, 433750, Note_on_c, 0, 74, 22
1, 433922, Note_on_c, 0, 74, 0
1, 434605, Note_on_c, 0, 72, 58
1, 434718, Note_on_c, 0, 78, 0
1, 434864, Note_on_c, 0, 72, 0
1, 434956, Note_on_c, 0, 72, 49
1, 435148, Note_on_c, 0, 57, 13
1, 435229, Control_c, 0, 64, 0
1, 435284, Note_on_c, 0, 64, 17
1, 435401, Note_on_c, 0, 64, 0
1, 435417, Note_on_c, 0, 57, 0
1, 435417, Note_on_c, 0, 73, 41
1, 435443, Note_on_c, 0, 72, 0
1, 435443, Note_on_c, 0, 69, 22
1, 435443, Control_c, 0, 64, 127
1, 435509, Note_on_c, 0, 69, 0
1, 435738, Note_on_c, 0, 77, 47
1, 435816, Control_c, 0, 64, 0
1, 435872, Note_on_c, 0, 73, 0
1, 436115, Control_c, 0, 64, 127
1, 436154, Note_on_c, 0, 77, 0
1, 436524, Note_on_c, 0, 77, 22
1, 436718, Note_on_c, 0, 77, 0
1, 437041, Note_on_c, 0, 77, 31
1, 438558, Note_on_c, 0, 77, 0
1, 438572, Note_on_c, 0, 76, 19
1, 438728, Control_c, 0, 64, 0
1, 438920, Control_c, 0, 64, 127
1, 439037, Note_on_c, 0, 76, 0
1, 439037, Note_on_c, 0, 75, 31
1, 439220, Control_c, 0, 64, 0
1, 439388, Control_c, 0, 64, 127
1, 439391, Note_on_c, 0, 76, 43
1, 439463, Note_on_c, 0, 75, 0
1, 439519, Control_c, 0, 64, 0
1, 439654, Note_on_c, 0, 80, 62
1, 439663, Control_c, 0, 64, 127
1, 439735, Control_c, 0, 64, 0
1, 439744, Note_on_c, 0, 76, 0
1, 439891, Control_c, 0, 64, 127
1, 439919, Note_on_c, 0, 81, 66
1, 439978, Note_on_c, 0, 80, 0
1, 439987, Control_c, 0, 64, 0
1, 440142, Control_c, 0, 64, 127
1, 440257, Note_on_c, 0, 84, 85
1, 440317, Note_on_c, 0, 81, 0
1, 440454, Control_c, 0, 64, 0
1, 440694, Control_c, 0, 64, 127
1, 440794, Note_on_c, 0, 85, 71
1, 440841, Note_on_c, 0, 84, 0
1, 440861, Control_c, 0, 64, 0
1, 440994, Control_c, 0, 64, 127
1, 441054, Note_on_c, 0, 85, 0
1, 441140, Note_on_c, 0, 85, 85
1, 441522, Note_on_c, 0, 90, 69
1, 441597, Note_on_c, 0, 85, 0
1, 441653, Control_c, 0, 64, 0
1, 441928, Control_c, 0, 64, 127
1, 442728, Note_on_c, 0, 78, 34
1, 442736, Note_on_c, 0, 75, 20
1, 442745, Note_on_c, 0, 68, 22
1, 442753, Note_on_c, 0, 72, 20
1, 442933, Note_on_c, 0, 90, 0
1, 443923, Note_on_c, 0, 84, 41
1, 444081, Note_on_c, 0, 84, 0
1, 444280, Note_on_c, 0, 84, 76
1, 444404, Note_on_c, 0, 84, 0
1, 444500, Note_on_c, 0, 84, 66
1, 444589, Note_on_c, 0, 84, 0
1, 444655, Note_on_c, 0, 84, 65
1, 444769, Note_on_c, 0, 84, 0
1, 444814, Note_on_c, 0, 84, 89
1, 444892, Note_on_c, 0, 84, 0
1, 444939, Note_on_c, 0, 84, 86
1, 444986, Note_on_c, 0, 84, 0
1, 445053, Note_on_c, 0, 84, 73
1, 445092, Note_on_c, 0, 84, 0
1, 445153, Note_on_c, 0, 84, 75
1, 445238, Note_on_c, 0, 84, 0
1, 445268, Note_on_c, 0, 83, 94
1, 445304, Note_on_c, 0, 83, 0
1, 445358, Note_on_c, 0, 84, 80
1, 445447, Note_on_c, 0, 86, 78
1, 445452, Note_on_c, 0, 84, 0
1, 445465, Control_c, 0, 64, 0
1, 445543, Note_on_c, 0, 84, 72
1, 445547, Note_on_c, 0, 86, 0
1, 445619, Control_c, 0, 64, 127
1, 445633, Note_on_c, 0, 84, 0
1, 445642, Note_on_c, 0, 86, 70
1, 445699, Note_on_c, 0, 86, 0
1, 445733, Note_on_c, 0, 84, 69
1, 445797, Note_on_c, 0, 84, 0
1, 445816, Note_on_c, 0, 86, 65
1, 445862, Note_on_c, 0, 86, 0
1, 445894, Note_on_c, 0, 84, 60
1, 445931, Note_on_c, 0, 84, 0
1, 445967, Note_on_c, 0, 86, 47
1, 446011, Note_on_c, 0, 86, 0
1, 446014, Note_on_c, 0, 84, 53
1, 446054, Note_on_c, 0, 84, 0
1, 446065, Note_on_c, 0, 86, 60
1, 446107, Note_on_c, 0, 86, 0
1, 446128, Note_on_c, 0, 84, 59
1, 446163, Note_on_c, 0, 84, 0
1, 446176, Note_on_c, 0, 86, 58
1, 446215, Note_on_c, 0, 86, 0
1, 446234, Note_on_c, 0, 84, 63
1, 446266, Note_on_c, 0, 84, 0
1, 446276, Note_on_c, 0, 86, 62
1, 446316, Note_on_c, 0, 86, 0
1, 446329, Note_on_c, 0, 84, 61
1, 446363, Note_on_c, 0, 84, 0
1, 446372, Note_on_c, 0, 86, 67
1, 446416, Note_on_c, 0, 86, 0
1, 446430, Note_on_c, 0, 84, 60
1, 446466, Note_on_c, 0, 84, 0
1, 446474, Note_on_c, 0, 86, 60
1, 446513, Note_on_c, 0, 86, 0
1, 446519, Note_on_c, 0, 84, 66
1, 446557, Note_on_c, 0, 84, 0
1, 446563, Note_on_c, 0, 86, 65
1, 446563, Control_c, 0, 64, 0
1, 446625, Note_on_c, 0, 84, 59
1, 446652, Note_on_c, 0, 86, 0
1, 446758, Control_c, 0, 64, 127
1, 446982, Note_on_c, 0, 83, 84
1, 447011, Note_on_c, 0, 84, 0
1, 447057, Note_on_c, 0, 78, 0
1, 447060, Note_on_c, 0, 75, 0
1, 447087, Note_on_c, 0, 72, 0
1, 447134, Note_on_c, 0, 68, 0
1, 447187, Note_on_c, 0, 84, 85
1, 447220, Note_on_c, 0, 83, 0
1, 447382, Control_c, 0, 64, 0
1, 447382, Note_on_c, 0, 87, 66
1, 447430, Note_on_c, 0, 84, 0
1, 447549, Control_c, 0, 64, 127
1, 447591, Note_on_c, 0, 83, 81
1, 447620, Control_c, 0, 64, 0
1, 447631, Note_on_c, 0, 87, 0
1, 447766, Control_c, 0, 64, 127
1, 447844, Note_on_c, 0, 84, 73
1, 447858, Note_on_c, 0, 83, 0
1, 448029, Control_c, 0, 64, 0
1, 448160, Control_c, 0, 64, 127
1, 448190, Note_on_c, 0, 90, 50
1, 448209, Control_c, 0, 64, 0
1, 448238, Note_on_c, 0, 84, 0
1, 448447, Control_c, 0, 64, 127
1, 449073, Note_on_c, 0, 75, 17
1, 449076, Note_on_c, 0, 72, 20
1, 449076, Note_on_c, 0, 79, 36
1, 449076, Note_on_c, 0, 91, 53
1, 449076, Note_on_c, 0, 67, 20
1, 449101, Note_on_c, 0, 90, 0
1, 449263, Control_c, 0, 64, 0
1, 449539, Control_c, 0, 64, 127
1, 449797, Note_on_c, 0, 91, 0
1, 450784, Note_on_c, 0, 84, 31
1, 450925, Note_on_c, 0, 84, 0
1, 451106, Note_on_c, 0, 84, 49
1, 451210, Note_on_c, 0, 84, 0
1, 451308, Note_on_c, 0, 84, 55
1, 451391, Note_on_c, 0, 84, 0
1, 451452, Note_on_c, 0, 84, 64
1, 451563, Note_on_c, 0, 84, 0
1, 451612, Note_on_c, 0, 84, 81
1, 451667, Note_on_c, 0, 84, 0
1, 451719, Note_on_c, 0, 84, 80
1, 451773, Note_on_c, 0, 84, 0
1, 451825, Note_on_c, 0, 84, 79
1, 451861, Note_on_c, 0, 84, 0
1, 451912, Note_on_c, 0, 84, 83
1, 451954, Note_on_c, 0, 84, 0
1, 452001, Note_on_c, 0, 84, 85
1, 452065, Note_on_c, 0, 84, 0
1, 452091, Control_c, 0, 64, 0
1, 452098, Note_on_c, 0, 83, 92
1, 452163, Note_on_c, 0, 83, 0
1, 452193, Note_on_c, 0, 84, 78
1, 452271, Control_c, 0, 64, 127
1, 452276, Note_on_c, 0, 86, 73
1, 452282, Note_on_c, 0, 84, 0
1, 452327, Note_on_c, 0, 86, 0
1, 452360, Note_on_c, 0, 84, 57
1, 452438, Note_on_c, 0, 84, 0
1, 452452, Note_on_c, 0, 86, 69
1, 452502, Note_on_c, 0, 86, 0
1, 452530, Note_on_c, 0, 84, 59
1, 452594, Note_on_c, 0, 84, 0
1, 452611, Note_on_c, 0, 86, 67
1, 452661, Note_on_c, 0, 86, 0
1, 452692, Note_on_c, 0, 84, 55
1, 452739, Note_on_c, 0, 84, 0
1, 452770, Note_on_c, 0, 86, 62
1, 452809, Note_on_c, 0, 86, 0
1, 452842, Note_on_c, 0, 84, 64
1, 452876, Note_on_c, 0, 84, 0
1, 452906, Note_on_c, 0, 86, 44
1, 452929, Note_on_c, 0, 79, 0
1, 452948, Note_on_c, 0, 86, 0
1, 452948, Note_on_c, 0, 67, 0
1, 452948, Note_on_c, 0, 84, 50
1, 452953, Note_on_c, 0, 72, 0
1, 452956, Note_on_c, 0, 75, 0
1, 452988, Note_on_c, 0, 84, 0
1, 452998, Note_on_c, 0, 86, 59
1, 453046, Note_on_c, 0, 86, 0
1, 453057, Note_on_c, 0, 84, 54
1, 453095, Note_on_c, 0, 84, 0
1, 453095, Note_on_c, 0, 86, 65
1, 453141, Note_on_c, 0, 86, 0
1, 453151, Note_on_c, 0, 84, 61
1, 453190, Note_on_c, 0, 84, 0
1, 453205, Note_on_c, 0, 86, 56
1, 453246, Note_on_c, 0, 86, 0
1, 453257, Note_on_c, 0, 84, 68
1, 453291, Note_on_c, 0, 84, 0
1, 453308, Note_on_c, 0, 86, 53
1, 453349, Note_on_c, 0, 86, 0
1, 453358, Note_on_c, 0, 84, 70
1, 453391, Note_on_c, 0, 84, 0
1, 453399, Note_on_c, 0, 86, 62
1, 453450, Note_on_c, 0, 86, 0
1, 453456, Note_on_c, 0, 84, 56
1, 453491, Note_on_c, 0, 84, 0
1, 453499, Note_on_c, 0, 86, 71
1, 453536, Note_on_c, 0, 86, 0
1, 453541, Note_on_c, 0, 84, 70
1, 453600, Note_on_c, 0, 84, 0
1, 453600, Note_on_c, 0, 86, 58
1, 453644, Note_on_c, 0, 86, 0
1, 453659, Note_on_c, 0, 84, 60
1, 453694, Note_on_c, 0, 86, 70
1, 453694, Note_on_c, 0, 84, 0
1, 453748, Note_on_c, 0, 86, 0
1, 453757, Note_on_c, 0, 84, 46
1, 453797, Note_on_c, 0, 86, 71
1, 453801, Note_on_c, 0, 84, 0
1, 453832, Note_on_c, 0, 86, 0
1, 453859, Note_on_c, 0, 84, 19
1, 453893, Note_on_c, 0, 86, 59
1, 453912, Note_on_c, 0, 84, 0
1, 453940, Note_on_c, 0, 86, 0
1, 453985, Note_on_c, 0, 84, 12
1, 454016, Note_on_c, 0, 86, 49
1, 454029, Note_on_c, 0, 84, 0
1, 454059, Note_on_c, 0, 86, 0
1, 454066, Note_on_c, 0, 84, 27
1, 454115, Note_on_c, 0, 84, 0
1, 454115, Note_on_c, 0, 86, 46
1, 454165, Note_on_c, 0, 86, 0
1, 454191, Note_on_c, 0, 84, 38
1, 454285, Control_c, 0, 64, 0
1, 454452, Control_c, 0, 64, 127
1, 454537, Note_on_c, 0, 84, 0
1, 454561, Note_on_c, 0, 83, 70
1, 454645, Control_c, 0, 64, 0
1, 454776, Control_c, 0, 64, 127
1, 454789, Note_on_c, 0, 84, 78
1, 454800, Note_on_c, 0, 83, 0
1, 454871, Control_c, 0, 64, 0
1, 454981, Control_c, 0, 64, 127
1, 454981, Note_on_c, 0, 87, 67
1, 455004, Control_c, 0, 64, 0
1, 455009, Note_on_c, 0, 84, 0
1, 455171, Control_c, 0, 64, 127
1, 455190, Note_on_c, 0, 83, 86
1, 455243, Control_c, 0, 64, 0
1, 455256, Note_on_c, 0, 87, 0
1, 455375, Control_c, 0, 64, 127
1, 455411, Note_on_c, 0, 84, 88
1, 455427, Note_on_c, 0, 83, 0
1, 455519, Control_c, 0, 64, 0
1, 455662, Control_c, 0, 64, 127
1, 455670, Note_on_c, 0, 90, 65
1, 455728, Note_on_c, 0, 84, 0
1, 455782, Control_c, 0, 64, 0
1, 455974, Control_c, 0, 64, 127
1, 456026, Note_on_c, 0, 91, 62
1, 456055, Note_on_c, 0, 90, 0
1, 456130, Control_c, 0, 64, 0
1, 456227, Note_on_c, 0, 91, 0
1, 456263, Control_c, 0, 64, 127
1, 456313, Note_on_c, 0, 90, 56
1, 456576, Note_on_c, 0, 91, 55
1, 456594, Note_on_c, 0, 90, 0
1, 456681, Control_c, 0, 64, 0
1, 456801, Control_c, 0, 64, 127
1, 456804, Note_on_c, 0, 91, 0
1, 456807, Note_on_c, 0, 90, 47
1, 457018, Note_on_c, 0, 91, 62
1, 457029, Control_c, 0, 64, 0
1, 457035, Note_on_c, 0, 90, 0
1, 457124, Control_c, 0, 64, 127
1, 457194, Note_on_c, 0, 90, 67
1, 457213, Note_on_c, 0, 91, 0
1, 457411, Note_on_c, 0, 91, 75
1, 457439, Note_on_c, 0, 90, 0
1, 457604, Note_on_c, 0, 91, 0
1, 457745, Note_on_c, 0, 91, 83
1, 457952, Control_c, 0, 64, 0
1, 458107, Control_c, 0, 64, 127
1, 458235, Note_on_c, 0, 65, 24
1, 458405, Note_on_c, 0, 68, 30
1, 458523, Note_on_c, 0, 72, 41
1, 458545, Note_on_c, 0, 91, 0
1, 458639, Note_on_c, 0, 75, 41
1, 458645, Note_on_c, 0, 68, 0
1, 458743, Note_on_c, 0, 80, 37
1, 458876, Note_on_c, 0, 84, 57
1, 459161, Note_on_c, 0, 92, 53
1, 459951, Note_on_c, 0, 84, 0
1, 460049, Note_on_c, 0, 72, 0
1, 460419, Note_on_c, 0, 83, 42
1, 460434, Note_on_c, 0, 71, 23
1, 460985, Control_c, 0, 64, 0
1, 461164, Control_c, 0, 64, 127
1, 461470, Note_on_c, 0, 75, 0
1, 462317, Note_on_c, 0, 74, 10
1, 462637, Control_c, 0, 64, 0
1, 462793, Control_c, 0, 64, 127
1, 463601, Note_on_c, 0, 92, 0
1, 463635, Note_on_c, 0, 71, 0
1, 463657, Note_on_c, 0, 83, 0
1, 463660, Note_on_c, 0, 74, 0
1, 463667, Note_on_c, 0, 80, 0
1, 463734, Note_on_c, 0, 65, 0
1, 464795, Control_c, 0, 64, 0
1, 465301, Note_on_c, 0, 29, 43
1, 465311, Note_on_c, 0, 41, 42
1, 465367, Note_on_c, 0, 41, 0
1, 465375, Note_on_c, 0, 29, 0
1, 465380, Note_on_c, 0, 56, 43
1, 465380, Note_on_c, 0, 47, 42
1, 465383, Control_c, 0, 64, 127
1, 465392, Note_on_c, 0, 50, 41
1, 465429, Control_c, 0, 64, 0
1, 465433, Note_on_c, 0, 56, 0
1, 465437, Note_on_c, 0, 47, 0
1, 465442, Note_on_c, 0, 50, 0
1, 465489, Note_on_c, 0, 41, 69
1, 465493, Note_on_c, 0, 29, 65
1, 465498, Note_on_c, 0, 56, 42
1, 465504, Note_on_c, 0, 47, 30
1, 465512, Note_on_c, 0, 50, 53
1, 465526, Note_on_c, 0, 41, 0
1, 465529, Note_on_c, 0, 29, 0
1, 465553, Note_on_c, 0, 56, 0
1, 465553, Note_on_c, 0, 47, 0
1, 465556, Note_on_c, 0, 50, 0
1, 465590, Note_on_c, 0, 41, 50
1, 465603, Note_on_c, 0, 29, 49
1, 465679, Note_on_c, 0, 48, 58
1, 465679, Note_on_c, 0, 51, 56
1, 465679, Note_on_c, 0, 57, 52
1, 465724, Note_on_c, 0, 48, 0
1, 465724, Note_on_c, 0, 51, 0
1, 465724, Note_on_c, 0, 57, 0
1, 465727, Note_on_c, 0, 41, 0
1, 465743, Note_on_c, 0, 29, 0
1, 465782, Note_on_c, 0, 48, 55
1, 465787, Note_on_c, 0, 57, 43
1, 465787, Note_on_c, 0, 51, 51
1, 465846, Note_on_c, 0, 48, 0
1, 465854, Note_on_c, 0, 51, 0
1, 465858, Note_on_c, 0, 57, 0
1, 465890, Note_on_c, 0, 41, 80
1, 465894, Note_on_c, 0, 29, 80
1, 465971, Note_on_c, 0, 41, 0
1, 465974, Note_on_c, 0, 56, 59
1, 465977, Note_on_c, 0, 50, 67
1, 465982, Note_on_c, 0, 59, 51
1, 465994, Note_on_c, 0, 29, 0
1, 466014, Note_on_c, 0, 56, 0
1, 466014, Note_on_c, 0, 50, 0
1, 466019, Note_on_c, 0, 59, 0
1, 466053, Control_c, 0, 64, 127
1, 466072, Note_on_c, 0, 59, 61
1, 466072, Note_on_c, 0, 50, 63
1, 466080, Note_on_c, 0, 28, 67
1, 466080, Note_on_c, 0, 40, 86
1, 466080, Note_on_c, 0, 56, 35
1, 466110, Note_on_c, 0, 40, 0
1, 466110, Note_on_c, 0, 28, 0
1, 466135, Note_on_c, 0, 50, 0
1, 466135, Note_on_c, 0, 59, 0
1, 466174, Note_on_c, 0, 56, 0
1, 466174, Control_c, 0, 64, 0
1, 466197, Note_on_c, 0, 45, 75
1, 466202, Note_on_c, 0, 33, 76
1, 466264, Note_on_c, 0, 61, 67
1, 466270, Note_on_c, 0, 57, 55
1, 466275, Note_on_c, 0, 52, 68
1, 466303, Note_on_c, 0, 61, 0
1, 466308, Note_on_c, 0, 57, 0
1, 466311, Note_on_c, 0, 52, 0
1, 466348, Note_on_c, 0, 45, 0
1, 466361, Note_on_c, 0, 61, 50
1, 466365, Note_on_c, 0, 57, 43
1, 466365, Note_on_c, 0, 52, 72
1, 466397, Note_on_c, 0, 33, 0
1, 466397, Note_on_c, 0, 52, 0
1, 466403, Note_on_c, 0, 57, 0
1, 466409, Note_on_c, 0, 61, 0
1, 466482, Note_on_c, 0, 29, 80
1, 466487, Note_on_c, 0, 41, 82
1, 466557, Note_on_c, 0, 41, 0
1, 466572, Note_on_c, 0, 29, 0
1, 466575, Note_on_c, 0, 58, 57
1, 466579, Note_on_c, 0, 56, 55
1, 466579, Note_on_c, 0, 68, 58
1, 466593, Note_on_c, 0, 62, 48
1, 466604, Control_c, 0, 64, 127
1, 466617, Note_on_c, 0, 68, 0
1, 466623, Note_on_c, 0, 56, 0
1, 466623, Note_on_c, 0, 58, 0
1, 466635, Note_on_c, 0, 62, 0
1, 466667, Note_on_c, 0, 68, 49
1, 466676, Note_on_c, 0, 41, 79
1, 466676, Note_on_c, 0, 56, 56
1, 466685, Note_on_c, 0, 29, 76
1, 466695, Note_on_c, 0, 59, 49
1, 466701, Note_on_c, 0, 62, 54
1, 466707, Note_on_c, 0, 41, 0
1, 466712, Control_c, 0, 64, 0
1, 466716, Note_on_c, 0, 68, 0
1, 466716, Note_on_c, 0, 29, 0
1, 466720, Note_on_c, 0, 56, 0
1, 466737, Note_on_c, 0, 59, 0
1, 466737, Note_on_c, 0, 62, 0
1, 466759, Note_on_c, 0, 41, 68
1, 466768, Note_on_c, 0, 29, 69
1, 466847, Note_on_c, 0, 60, 65
1, 466847, Note_on_c, 0, 69, 60
1, 466860, Note_on_c, 0, 57, 42
1, 466860, Note_on_c, 0, 63, 47
1, 466890, Note_on_c, 0, 69, 0
1, 466894, Note_on_c, 0, 41, 0
1, 466894, Note_on_c, 0, 60, 0
1, 466901, Note_on_c, 0, 63, 0
1, 466907, Note_on_c, 0, 29, 0
1, 466910, Note_on_c, 0, 57, 0
1, 466916, Control_c, 0, 64, 127
1, 466936, Note_on_c, 0, 69, 50
1, 466957, Note_on_c, 0, 57, 56
1, 466961, Note_on_c, 0, 63, 61
1, 466964, Note_on_c, 0, 60, 30
1, 466996, Note_on_c, 0, 63, 0
1, 466996, Note_on_c, 0, 57, 0
1, 467019, Note_on_c, 0, 60, 0
1, 467024, Control_c, 0, 64, 0
1, 467028, Note_on_c, 0, 69, 0
1, 467049, Note_on_c, 0, 41, 95
1, 467049, Note_on_c, 0, 29, 92
1, 467124, Note_on_c, 0, 71, 75
1, 467127, Note_on_c, 0, 68, 67
1, 467127, Note_on_c, 0, 41, 0
1, 467127, Note_on_c, 0, 62, 78
1, 467127, Note_on_c, 0, 59, 73
1, 467150, Note_on_c, 0, 29, 0
1, 467158, Note_on_c, 0, 71, 0
1, 467158, Note_on_c, 0, 62, 0
1, 467161, Note_on_c, 0, 59, 0
1, 467167, Control_c, 0, 64, 127
1, 467170, Note_on_c, 0, 68, 0
1, 467209, Note_on_c, 0, 28, 88
1, 467209, Note_on_c, 0, 40, 97
1, 467214, Note_on_c, 0, 62, 59
1, 467217, Note_on_c, 0, 59, 59
1, 467217, Note_on_c, 0, 71, 48
1, 467228, Note_on_c, 0, 68, 67
1, 467236, Note_on_c, 0, 28, 0
1, 467247, Note_on_c, 0, 40, 0
1, 467259, Note_on_c, 0, 71, 0
1, 467266, Note_on_c, 0, 59, 0
1, 467266, Note_on_c, 0, 62, 0
1, 467287, Control_c, 0, 64, 0
1, 467322, Note_on_c, 0, 68, 0
1, 467326, Note_on_c, 0, 45, 97
1, 467326, Note_on_c, 0, 33, 98
1, 467383, Note_on_c, 0, 73, 77
1, 467387, Note_on_c, 0, 61, 84
1, 467392, Note_on_c, 0, 69, 56
1, 467398, Note_on_c, 0, 64, 58
1, 467409, Note_on_c, 0, 73, 0
1, 467425, Note_on_c, 0, 61, 0
1, 467432, Note_on_c, 0, 69, 0
1, 467432, Note_on_c, 0, 64, 0
1, 467456, Control_c, 0, 64, 127
1, 467461, Note_on_c, 0, 61, 45
1, 467470, Note_on_c, 0, 45, 0
1, 467473, Note_on_c, 0, 69, 68
1, 467478, Note_on_c, 0, 73, 32
1, 467486, Note_on_c, 0, 64, 61
1, 467500, Note_on_c, 0, 61, 0
1, 467510, Note_on_c, 0, 69, 0
1, 467520, Note_on_c, 0, 33, 0
1, 467520, Note_on_c, 0, 64, 0
1, 467551, Control_c, 0, 64, 0
1, 467551, Note_on_c, 0, 73, 0
1, 467613, Note_on_c, 0, 41, 107
1, 467613, Note_on_c, 0, 29, 105
1, 467704, Note_on_c, 0, 74, 80
1, 467704, Note_on_c, 0, 80, 73
1, 467707, Note_on_c, 0, 68, 77
1, 467714, Note_on_c, 0, 71, 21
1, 467726, Note_on_c, 0, 41, 0
1, 467730, Note_on_c, 0, 29, 0
1, 467730, Control_c, 0, 64, 127
1, 467733, Note_on_c, 0, 80, 0
1, 467733, Note_on_c, 0, 74, 0
1, 467748, Note_on_c, 0, 68, 0
1, 467771, Note_on_c, 0, 71, 0
1, 467780, Note_on_c, 0, 80, 65
1, 467793, Note_on_c, 0, 68, 68
1, 467793, Note_on_c, 0, 74, 54
1, 467793, Note_on_c, 0, 71, 21
1, 467813, Note_on_c, 0, 41, 93
1, 467813, Note_on_c, 0, 29, 89
1, 467846, Note_on_c, 0, 74, 0
1, 467851, Note_on_c, 0, 29, 0
1, 467851, Note_on_c, 0, 71, 0
1, 467857, Note_on_c, 0, 68, 0
1, 467861, Note_on_c, 0, 41, 0
1, 467868, Note_on_c, 0, 80, 0
1, 467899, Control_c, 0, 64, 0
1, 467913, Note_on_c, 0, 41, 96
1, 467916, Note_on_c, 0, 29, 94
1, 467975, Note_on_c, 0, 81, 89
1, 467975, Note_on_c, 0, 72, 76
1, 467978, Note_on_c, 0, 75, 67
1, 467982, Note_on_c, 0, 69, 67
1, 468000, Note_on_c, 0, 81, 0
1, 468008, Note_on_c, 0, 75, 0
1, 468011, Note_on_c, 0, 72, 0
1, 468021, Note_on_c, 0, 69, 0
1, 468039, Note_on_c, 0, 41, 0
1, 468044, Note_on_c, 0, 29, 0
1, 468047, Note_on_c, 0, 81, 72
1, 468050, Note_on_c, 0, 75, 68
1, 468056, Note_on_c, 0, 69, 75
1, 468056, Note_on_c, 0, 72, 54
1, 468078, Control_c, 0, 64, 127
1, 468114, Note_on_c, 0, 72, 0
1, 468145, Note_on_c, 0, 81, 0
1, 468145, Note_on_c, 0, 75, 0
1, 468148, Note_on_c, 0, 69, 0
1, 468155, Note_on_c, 0, 41, 104
1, 468155, Note_on_c, 0, 29, 102
1, 468163, Control_c, 0, 64, 0
1, 468241, Note_on_c, 0, 83, 97
1, 468241, Note_on_c, 0, 71, 91
1, 468241, Note_on_c, 0, 80, 71
1, 468245, Note_on_c, 0, 74, 79
1, 468255, Note_on_c, 0, 41, 0
1, 468262, Note_on_c, 0, 29, 0
1, 468265, Note_on_c, 0, 83, 0
1, 468270, Note_on_c, 0, 71, 0
1, 468270, Note_on_c, 0, 80, 0
1, 468273, Note_on_c, 0, 74, 0
1, 468295, Control_c, 0, 64, 127
1, 468315, Note_on_c, 0, 83, 84
1, 468319, Note_on_c, 0, 74, 72
1, 468319, Note_on_c, 0, 71, 81
1, 468319, Note_on_c, 0, 80, 51
1, 468329, Note_on_c, 0, 40, 108
1, 468329, Note_on_c, 0, 28, 95
1, 468358, Note_on_c, 0, 28, 0
1, 468365, Note_on_c, 0, 40, 0
1, 468397, Note_on_c, 0, 74, 0
1, 468397, Note_on_c, 0, 71, 0
1, 468400, Note_on_c, 0, 83, 0
1, 468426, Control_c, 0, 64, 0
1, 468440, Note_on_c, 0, 80, 0
1, 468440, Note_on_c, 0, 45, 109
1, 468440, Note_on_c, 0, 33, 109
1, 468514, Note_on_c, 0, 73, 89
1, 468517, Note_on_c, 0, 85, 84
1, 468520, Note_on_c, 0, 76, 39
1, 468526, Note_on_c, 0, 81, 30
1, 468540, Note_on_c, 0, 73, 0
1, 468540, Note_on_c, 0, 85, 0
1, 468566, Note_on_c, 0, 76, 0
1, 468570, Note_on_c, 0, 33, 0
1, 468570, Note_on_c, 0, 81, 0
1, 468593, Note_on_c, 0, 45, 0
1, 468593, Control_c, 0, 64, 127
1, 468602, Note_on_c, 0, 85, 30
1, 468602, Note_on_c, 0, 81, 30
1, 468602, Note_on_c, 0, 73, 75
1, 468616, Note_on_c, 0, 76, 38
1, 468648, Note_on_c, 0, 81, 0
1, 468651, Note_on_c, 0, 73, 0
1, 468660, Note_on_c, 0, 76, 0
1, 468698, Note_on_c, 0, 85, 0
1, 468758, Note_on_c, 0, 85, 32
1, 468768, Note_on_c, 0, 53, 123
1, 468768, Note_on_c, 0, 41, 110
1, 468797, Control_c, 0, 64, 0
1, 468807, Note_on_c, 0, 85, 0
1, 468872, Note_on_c, 0, 92, 76
1, 468872, Note_on_c, 0, 86, 85
1, 468875, Note_on_c, 0, 80, 86
1, 468882, Note_on_c, 0, 83, 92
1, 468900, Note_on_c, 0, 92, 0
1, 468900, Note_on_c, 0, 53, 0
1, 468905, Note_on_c, 0, 86, 0
1, 468905, Note_on_c, 0, 41, 0
1, 468905, Note_on_c, 0, 80, 0
1, 468908, Note_on_c, 0, 83, 0
1, 468941, Control_c, 0, 64, 127
1, 468949, Note_on_c, 0, 92, 52
1, 468952, Note_on_c, 0, 86, 70
1, 468957, Note_on_c, 0, 83, 90
1, 468957, Note_on_c, 0, 80, 59
1, 468978, Note_on_c, 0, 41, 92
1, 468978, Note_on_c, 0, 53, 107
1, 469030, Note_on_c, 0, 41, 0
1, 469042, Note_on_c, 0, 86, 0
1, 469045, Note_on_c, 0, 53, 0
1, 469045, Note_on_c, 0, 83, 0
1, 469055, Note_on_c, 0, 80, 0
1, 469061, Control_c, 0, 64, 0
1, 469066, Note_on_c, 0, 92, 0
1, 469070, Note_on_c, 0, 53, 111
1, 469070, Note_on_c, 0, 41, 113
1, 469156, Note_on_c, 0, 93, 98
1, 469159, Note_on_c, 0, 84, 89
1, 469159, Note_on_c, 0, 81, 92
1, 469162, Note_on_c, 0, 87, 68
1, 469181, Note_on_c, 0, 93, 0
1, 469186, Note_on_c, 0, 81, 0
1, 469191, Note_on_c, 0, 84, 0
1, 469191, Note_on_c, 0, 87, 0
1, 469194, Note_on_c, 0, 53, 0
1, 469200, Note_on_c, 0, 41, 0
1, 469205, Control_c, 0, 64, 127
1, 469231, Note_on_c, 0, 87, 75
1, 469237, Note_on_c, 0, 93, 22
1, 469244, Note_on_c, 0, 81, 59
1, 469250, Note_on_c, 0, 84, 51
1, 469312, Control_c, 0, 64, 0
1, 469318, Note_on_c, 0, 53, 122
1, 469321, Note_on_c, 0, 41, 111
1, 469331, Note_on_c, 0, 84, 0
1, 469331, Note_on_c, 0, 81, 0
1, 469340, Note_on_c, 0, 87, 0
1, 469343, Note_on_c, 0, 93, 0
1, 469428, Note_on_c, 0, 92, 84
1, 469428, Note_on_c, 0, 83, 108
1, 469428, Note_on_c, 0, 86, 85
1, 469432, Note_on_c, 0, 95, 87
1, 469440, Note_on_c, 0, 53, 0
1, 469445, Control_c, 0, 64, 127
1, 469451, Note_on_c, 0, 41, 0
1, 469451, Note_on_c, 0, 83, 0
1, 469457, Note_on_c, 0, 92, 0
1, 469457, Note_on_c, 0, 95, 0
1, 469470, Note_on_c, 0, 86, 0
1, 469506, Note_on_c, 0, 95, 62
1, 469506, Note_on_c, 0, 92, 59
1, 469510, Note_on_c, 0, 86, 81
1, 469510, Note_on_c, 0, 83, 91
1, 469520, Note_on_c, 0, 52, 113
1, 469520, Note_on_c, 0, 40, 110
1, 469540, Note_on_c, 0, 40, 0
1, 469587, Note_on_c, 0, 52, 0
1, 469609, Note_on_c, 0, 86, 0
1, 469618, Note_on_c, 0, 83, 0
1, 469646, Note_on_c, 0, 57, 116
1, 469646, Note_on_c, 0, 45, 111
1, 469684, Note_on_c, 0, 92, 0
1, 469702, Note_on_c, 0, 95, 0
1, 469766, Note_on_c, 0, 45, 0
1, 469785, Note_on_c, 0, 57, 0
1, 469858, Note_on_c, 0, 64, 105
1, 469858, Note_on_c, 0, 56, 86
1, 469858, Note_on_c, 0, 52, 92
1, 469866, Note_on_c, 0, 84, 108
1, 469866, Note_on_c, 0, 96, 96
1, 469866, Note_on_c, 0, 92, 83
1, 469880, Note_on_c, 0, 64, 0
1, 469885, Note_on_c, 0, 52, 0
1, 469885, Note_on_c, 0, 84, 0
1, 469889, Note_on_c, 0, 56, 0
1, 469889, Note_on_c, 0, 96, 0
1, 469892, Note_on_c, 0, 92, 0
1, 469913, Control_c, 0, 64, 0
1, 469928, Note_on_c, 0, 84, 97
1, 469928, Note_on_c, 0, 92, 76
1, 469928, Note_on_c, 0, 96, 89
1, 469935, Note_on_c, 0, 56, 79
1, 469935, Note_on_c, 0, 64, 81
1, 469935, Note_on_c, 0, 52, 92
1, 470031, Note_on_c, 0, 52, 0
1, 470031, Control_c, 0, 64, 127
1, 470039, Note_on_c, 0, 96, 0
1, 470039, Note_on_c, 0, 56, 0
1, 470047, Note_on_c, 0, 84, 0
1, 470053, Note_on_c, 0, 64, 0
1, 470069, Note_on_c, 0, 92, 0
1, 470116, Note_on_c, 0, 61, 97
1, 470116, Note_on_c, 0, 85, 102
1, 470116, Note_on_c, 0, 93, 92
1, 470119, Note_on_c, 0, 57, 76
1, 470119, Note_on_c, 0, 97, 79
1, 470123, Note_on_c, 0, 69, 74
1, 470141, Note_on_c, 0, 85, 0
1, 470141, Note_on_c, 0, 97, 0
1, 470141, Note_on_c, 0, 93, 0
1, 470147, Note_on_c, 0, 57, 0
1, 470147, Note_on_c, 0, 61, 0
1, 470158, Note_on_c, 0, 69, 0
1, 470183, Note_on_c, 0, 97, 76
1, 470187, Note_on_c, 0, 93, 76
1, 470190, Note_on_c, 0, 85, 88
1, 470190, Note_on_c, 0, 69, 89
1, 470190, Note_on_c, 0, 57, 81
1, 470195, Note_on_c, 0, 61, 87
1, 470261, Note_on_c, 0, 69, 0
1, 470284, Note_on_c, 0, 57, 0
1, 470290, Note_on_c, 0, 61, 0
1, 470290, Note_on_c, 0, 93, 0
1, 470290, Note_on_c, 0, 85, 0
1, 470314, Note_on_c, 0, 97, 0
1, 470359, Note_on_c, 0, 57, 55
1, 470362, Note_on_c, 0, 65, 92
1, 470362, Note_on_c, 0, 61, 64
1, 470370, Note_on_c, 0, 93, 92
1, 470370, Note_on_c, 0, 97, 50
1, 470378, Note_on_c, 0, 101, 62
1, 470378, Note_on_c, 0, 89, 27
1, 470387, Note_on_c, 0, 65, 0
1, 470396, Note_on_c, 0, 61, 0
1, 470404, Note_on_c, 0, 57, 0
1, 470407, Note_on_c, 0, 97, 0
1, 470412, Note_on_c, 0, 101, 0
1, 470420, Note_on_c, 0, 93, 0
1, 470425, Note_on_c, 0, 89, 0
1, 470439, Note_on_c, 0, 65, 60
1, 470442, Note_on_c, 0, 97, 92
1, 470442, Note_on_c, 0, 101, 106
1, 470442, Note_on_c, 0, 61, 84
1, 470446, Note_on_c, 0, 57, 88
1, 470453, Note_on_c, 0, 53, 90
1, 470456, Note_on_c, 0, 93, 73
1, 470456, Note_on_c, 0, 89, 27
1, 470509, Note_on_c, 0, 65, 0
1, 470518, Note_on_c, 0, 57, 0
1, 470524, Note_on_c, 0, 61, 0
1, 470527, Note_on_c, 0, 53, 0
1, 470538, Note_on_c, 0, 89, 0
1, 470538, Note_on_c, 0, 101, 0
1, 470556, Note_on_c, 0, 93, 0
1, 470560, Note_on_c, 0, 97, 0
1, 470629, Note_on_c, 0, 88, 100
1, 470629, Note_on_c, 0, 97, 67
1, 470629, Note_on_c, 0, 57, 80
1, 470629, Note_on_c, 0, 100, 89
1, 470632, Note_on_c, 0, 52, 91
1, 470632, Note_on_c, 0, 49, 81
1, 470632, Note_on_c, 0, 93, 70
1, 470632, Note_on_c, 0, 45, 73
1, 470652, Note_on_c, 0, 88, 0
1, 470652, Note_on_c, 0, 100, 0
1, 470655, Note_on_c, 0, 97, 0
1, 470659, Note_on_c, 0, 52, 0
1, 470663, Note_on_c, 0, 57, 0
1, 470663, Note_on_c, 0, 49, 0
1, 470663, Note_on_c, 0, 93, 0
1, 470666, Note_on_c, 0, 45, 0
1, 470696, Note_on_c, 0, 100, 84
1, 470696, Note_on_c, 0, 88, 73
1, 470701, Note_on_c, 0, 93, 92
1, 470701, Note_on_c, 0, 97, 72
1, 470701, Note_on_c, 0, 45, 92
1, 470701, Note_on_c, 0, 57, 87
1, 470706, Note_on_c, 0, 49, 86
1, 470706, Note_on_c, 0, 52, 92
1, 470737, Note_on_c, 0, 52, 0
1, 470768, Note_on_c, 0, 45, 0
1, 470782, Note_on_c, 0, 93, 0
1, 470785, Note_on_c, 0, 100, 0
1, 470785, Note_on_c, 0, 49, 0
1, 470788, Note_on_c, 0, 57, 0
1, 470802, Note_on_c, 0, 88, 0
1, 470811, Note_on_c, 0, 97, 0
1, 470874, Note_on_c, 0, 56, 83
1, 470874, Note_on_c, 0, 52, 100
1, 470874, Note_on_c, 0, 64, 102
1, 470874, Note_on_c, 0, 92, 86
1, 470882, Note_on_c, 0, 96, 78
1, 470882, Note_on_c, 0, 84, 101
1, 470897, Note_on_c, 0, 52, 0
1, 470897, Note_on_c, 0, 64, 0
1, 470900, Note_on_c, 0, 92, 0
1, 470900, Note_on_c, 0, 56, 0
1, 470904, Note_on_c, 0, 84, 0
1, 470910, Note_on_c, 0, 96, 0
1, 470919, Control_c, 0, 64, 0
1, 470939, Note_on_c, 0, 92, 60
1, 470939, Note_on_c, 0, 84, 101
1, 470939, Note_on_c, 0, 64, 92
1, 470942, Note_on_c, 0, 96, 106
1, 470942, Note_on_c, 0, 52, 95
1, 470942, Note_on_c, 0, 56, 78
1, 470986, Note_on_c, 0, 52, 0
1, 471002, Note_on_c, 0, 64, 0
1, 471014, Control_c, 0, 64, 127
1, 471027, Note_on_c, 0, 56, 0
1, 471033, Note_on_c, 0, 84, 0
1, 471044, Note_on_c, 0, 96, 0
1, 471059, Note_on_c, 0, 92, 0
1, 471091, Note_on_c, 0, 61, 86
1, 471091, Note_on_c, 0, 69, 92
1, 471097, Note_on_c, 0, 57, 57
1, 471097, Note_on_c, 0, 85, 97
1, 471097, Note_on_c, 0, 93, 85
1, 471103, Note_on_c, 0, 97, 77
1, 471120, Note_on_c, 0, 61, 0
1, 471120, Note_on_c, 0, 69, 0
1, 471123, Note_on_c, 0, 85, 0
1, 471127, Note_on_c, 0, 93, 0
1, 471127, Note_on_c, 0, 97, 0
1, 471137, Note_on_c, 0, 57, 0
1, 471169, Note_on_c, 0, 97, 85
1, 471169, Note_on_c, 0, 85, 86
1, 471169, Note_on_c, 0, 69, 55
1, 471172, Note_on_c, 0, 93, 77
1, 471175, Note_on_c, 0, 57, 98
1, 471175, Note_on_c, 0, 61, 84
1, 471240, Note_on_c, 0, 69, 0
1, 471247, Note_on_c, 0, 85, 0
1, 471256, Note_on_c, 0, 61, 0
1, 471256, Note_on_c, 0, 57, 0
1, 471265, Note_on_c, 0, 93, 0
1, 471279, Note_on_c, 0, 97, 0
1, 471323, Note_on_c, 0, 57, 70
1, 471323, Note_on_c, 0, 65, 101
1, 471329, Note_on_c, 0, 92, 94
1, 471334, Note_on_c, 0, 53, 101
1, 471334, Note_on_c, 0, 61, 53
1, 471340, Note_on_c, 0, 97, 62
1, 471343, Note_on_c, 0, 89, 95
1, 471347, Note_on_c, 0, 101, 78
1, 471347, Note_on_c, 0, 65, 0
1, 471357, Note_on_c, 0, 92, 0
1, 471360, Note_on_c, 0, 53, 0
1, 471364, Note_on_c, 0, 57, 0
1, 471367, Note_on_c, 0, 97, 0
1, 471370, Note_on_c, 0, 89, 0
1, 471375, Note_on_c, 0, 101, 0
1, 471375, Note_on_c, 0, 61, 0
1, 471404, Note_on_c, 0, 101, 104
1, 471407, Note_on_c, 0, 65, 59
1, 471407, Note_on_c, 0, 89, 93
1, 471407, Note_on_c, 0, 97, 79
1, 471407, Note_on_c, 0, 57, 86
1, 471407, Note_on_c, 0, 61, 102
1, 471411, Note_on_c, 0, 53, 101
1, 471421, Note_on_c, 0, 93, 88
1, 471449, Note_on_c, 0, 65, 0
1, 471471, Note_on_c, 0, 101, 0
1, 471476, Note_on_c, 0, 61, 0
1, 471476, Note_on_c, 0, 53, 0
1, 471492, Note_on_c, 0, 57, 0
1, 471501, Note_on_c, 0, 89, 0
1, 471501, Note_on_c, 0, 93, 0
1, 471504, Note_on_c, 0, 97, 0
1, 471565, Note_on_c, 0, 57, 85
1, 471568, Note_on_c, 0, 45, 96
1, 471568, Note_on_c, 0, 52, 101
1, 471568, Note_on_c, 0, 49, 90
1, 471571, Note_on_c, 0, 93, 80
1, 471571, Note_on_c, 0, 97, 66
1, 471571, Note_on_c, 0, 88, 106
1, 471571, Note_on_c, 0, 100, 91
1, 471591, Note_on_c, 0, 45, 0
1, 471591, Note_on_c, 0, 52, 0
1, 471591, Note_on_c, 0, 49, 0
1, 471595, Note_on_c, 0, 88, 0
1, 471595, Note_on_c, 0, 100, 0
1, 471595, Note_on_c, 0, 57, 0
1, 471598, Note_on_c, 0, 97, 0
1, 471604, Note_on_c, 0, 93, 0
1, 471613, Control_c, 0, 64, 0
1, 471640, Note_on_c, 0, 45, 59
1, 471640, Note_on_c, 0, 100, 80
1, 471643, Note_on_c, 0, 88, 73
1, 471643, Note_on_c, 0, 49, 66
1, 471643, Note_on_c, 0, 57, 79
1, 471643, Note_on_c, 0, 97, 72
1, 471648, Note_on_c, 0, 93, 79
1, 471652, Note_on_c, 0, 52, 61
1, 471683, Note_on_c, 0, 52, 0
1, 471710, Control_c, 0, 64, 127
1, 471716, Note_on_c, 0, 49, 0
1, 471716, Note_on_c, 0, 45, 0
1, 471721, Note_on_c, 0, 57, 0
1, 471724, Note_on_c, 0, 88, 0
1, 471736, Note_on_c, 0, 100, 0
1, 471736, Note_on_c, 0, 93, 0
1, 471757, Note_on_c, 0, 97, 0
1, 471799, Note_on_c, 0, 65, 103
1, 471799, Note_on_c, 0, 57, 55
1, 471799, Note_on_c, 0, 61, 87
1, 471808, Note_on_c, 0, 97, 75
1, 471808, Note_on_c, 0, 53, 87
1, 471813, Note_on_c, 0, 93, 77
1, 471816, Note_on_c, 0, 101, 83
1, 471821, Note_on_c, 0, 65, 0
1, 471830, Note_on_c, 0, 61, 0
1, 471839, Note_on_c, 0, 57, 0
1, 471839, Note_on_c, 0, 97, 0
1, 471839, Note_on_c, 0, 53, 0
1, 471842, Note_on_c, 0, 101, 0
1, 471850, Note_on_c, 0, 93, 0
1, 471877, Note_on_c, 0, 101, 97
1, 471877, Note_on_c, 0, 61, 81
1, 471877, Note_on_c, 0, 65, 71
1, 471877, Note_on_c, 0, 97, 88
1, 471883, Note_on_c, 0, 57, 84
1, 471883, Note_on_c, 0, 53, 111
1, 471889, Note_on_c, 0, 89, 97
1, 471889, Note_on_c, 0, 93, 76
1, 471938, Note_on_c, 0, 89, 0
1, 471942, Note_on_c, 0, 61, 0
1, 471956, Note_on_c, 0, 65, 0
1, 471960, Note_on_c, 0, 57, 0
1, 471960, Note_on_c, 0, 101, 0
1, 471964, Note_on_c, 0, 53, 0
1, 471994, Note_on_c, 0, 97, 0
1, 472003, Note_on_c, 0, 93, 0
1, 472045, Note_on_c, 0, 93, 87
1, 472050, Note_on_c, 0, 49, 92
1, 472050, Note_on_c, 0, 57, 88
1, 472053, Note_on_c, 0, 52, 101
1, 472053, Note_on_c, 0, 45, 91
1, 472053, Note_on_c, 0, 97, 62
1, 472056, Note_on_c, 0, 100, 84
1, 472061, Note_on_c, 0, 88, 85
1, 472077, Note_on_c, 0, 49, 0
1, 472077, Note_on_c, 0, 52, 0
1, 472080, Note_on_c, 0, 93, 0
1, 472080, Note_on_c, 0, 45, 0
1, 472080, Note_on_c, 0, 100, 0
1, 472080, Note_on_c, 0, 57, 0
1, 472080, Note_on_c, 0, 97, 0
1, 472091, Note_on_c, 0, 88, 0
1, 472106, Control_c, 0, 64, 0
1, 472116, Note_on_c, 0, 100, 98
1, 472116, Note_on_c, 0, 45, 85
1, 472119, Note_on_c, 0, 57, 92
1, 472119, Note_on_c, 0, 88, 101
1, 472123, Note_on_c, 0, 49, 74
1, 472123, Note_on_c, 0, 97, 84
1, 472123, Note_on_c, 0, 52, 81
1, 472128, Note_on_c, 0, 93, 79
1, 472155, Note_on_c, 0, 52, 0
1, 472186, Note_on_c, 0, 45, 0
1, 472197, Note_on_c, 0, 49, 0
1, 472208, Note_on_c, 0, 57, 0
1, 472214, Note_on_c, 0, 100, 0
1, 472214, Note_on_c, 0, 88, 0
1, 472214, Control_c, 0, 64, 127
1, 472239, Note_on_c, 0, 93, 0
1, 472248, Note_on_c, 0, 97, 0
1, 472290, Note_on_c, 0, 65, 100
1, 472290, Note_on_c, 0, 57, 67
1, 472299, Note_on_c, 0, 61, 72
1, 472299, Note_on_c, 0, 93, 65
1, 472299, Note_on_c, 0, 53, 94
1, 472303, Note_on_c, 0, 97, 60
1, 472306, Note_on_c, 0, 89, 85
1, 472306, Note_on_c, 0, 101, 84
1, 472312, Note_on_c, 0, 65, 0
1, 472326, Note_on_c, 0, 57, 0
1, 472329, Note_on_c, 0, 53, 0
1, 472332, Note_on_c, 0, 61, 0
1, 472332, Note_on_c, 0, 97, 0
1, 472332, Note_on_c, 0, 101, 0
1, 472335, Note_on_c, 0, 89, 0
1, 472343, Note_on_c, 0, 93, 0
1, 472362, Note_on_c, 0, 101, 103
1, 472365, Note_on_c, 0, 65, 48
1, 472365, Note_on_c, 0, 57, 94
1, 472368, Note_on_c, 0, 61, 99
1, 472368, Note_on_c, 0, 89, 98
1, 472368, Note_on_c, 0, 97, 86
1, 472371, Note_on_c, 0, 53, 103
1, 472379, Note_on_c, 0, 93, 98
1, 472435, Note_on_c, 0, 57, 0
1, 472438, Note_on_c, 0, 65, 0
1, 472445, Note_on_c, 0, 53, 0
1, 472445, Note_on_c, 0, 61, 0
1, 472465, Note_on_c, 0, 101, 0
1, 472482, Note_on_c, 0, 89, 0
1, 472493, Note_on_c, 0, 97, 0
1, 472493, Note_on_c, 0, 93, 0
1, 472531, Note_on_c, 0, 52, 103
1, 472531, Note_on_c, 0, 49, 90
1, 472531, Note_on_c, 0, 57, 87
1, 472531, Note_on_c, 0, 93, 86
1, 472531, Note_on_c, 0, 45, 86
1, 472535, Note_on_c, 0, 97, 71
1, 472538, Note_on_c, 0, 100, 78
1, 472538, Note_on_c, 0, 88, 93
1, 472552, Note_on_c, 0, 52, 0
1, 472555, Note_on_c, 0, 49, 0
1, 472560, Note_on_c, 0, 57, 0
1, 472560, Note_on_c, 0, 97, 0
1, 472563, Note_on_c, 0, 45, 0
1, 472563, Note_on_c, 0, 100, 0
1, 472566, Note_on_c, 0, 88, 0
1, 472569, Note_on_c, 0, 93, 0
1, 472593, Note_on_c, 0, 57, 95
1, 472593, Note_on_c, 0, 45, 98
1, 472598, Note_on_c, 0, 100, 100
1, 472598, Note_on_c, 0, 49, 80
1, 472598, Note_on_c, 0, 52, 85
1, 472598, Note_on_c, 0, 88, 100
1, 472604, Note_on_c, 0, 97, 75
1, 472607, Note_on_c, 0, 93, 88
1, 472624, Note_on_c, 0, 52, 0
1, 472666, Note_on_c, 0, 57, 0
1, 472666, Note_on_c, 0, 49, 0
1, 472666, Note_on_c, 0, 88, 0
1, 472680, Control_c, 0, 64, 0
1, 472680, Note_on_c, 0, 45, 0
1, 472687, Note_on_c, 0, 100, 0
1, 472690, Note_on_c, 0, 93, 0
1, 472693, Note_on_c, 0, 97, 0
1, 472722, Note_on_c, 0, 53, 118
1, 472726, Note_on_c, 0, 41, 111
1, 472733, Note_on_c, 0, 93, 82
1, 472733, Note_on_c, 0, 89, 88
1, 472733, Note_on_c, 0, 97, 82
1, 472736, Note_on_c, 0, 101, 97
1, 472754, Note_on_c, 0, 41, 0
1, 472763, Note_on_c, 0, 101, 0
1, 472786, Note_on_c, 0, 53, 0
1, 472794, Note_on_c, 0, 89, 0
1, 472800, Note_on_c, 0, 97, 0
1, 472808, Note_on_c, 0, 93, 0
1, 472846, Note_on_c, 0, 57, 99
1, 472846, Note_on_c, 0, 45, 99
1, 472852, Note_on_c, 0, 93, 85
1, 472852, Note_on_c, 0, 97, 77
1, 472852, Note_on_c, 0, 100, 91
1, 472852, Note_on_c, 0, 88, 101
1, 472883, Note_on_c, 0, 57, 0
1, 472897, Note_on_c, 0, 88, 0
1, 472910, Note_on_c, 0, 45, 0
1, 472921, Note_on_c, 0, 100, 0
1, 472925, Note_on_c, 0, 97, 0
1, 472938, Note_on_c, 0, 93, 0
1, 472974, Note_on_c, 0, 101, 99
1, 472974, Note_on_c, 0, 53, 115
1, 472974, Note_on_c, 0, 41, 107
1, 472974, Note_on_c, 0, 97, 64
1, 472979, Note_on_c, 0, 89, 94
1, 472979, Note_on_c, 0, 93, 85
1, 473003, Note_on_c, 0, 41, 0
1, 473047, Note_on_c, 0, 53, 0
1, 473059, Note_on_c, 0, 101, 0
1, 473059, Note_on_c, 0, 97, 0
1, 473059, Note_on_c, 0, 89, 0
1, 473072, Note_on_c, 0, 93, 0
1, 473105, Note_on_c, 0, 57, 105
1, 473105, Note_on_c, 0, 100, 100
1, 473105, Note_on_c, 0, 88, 106
1, 473105, Note_on_c, 0, 45, 102
1, 473105, Note_on_c, 0, 97, 81
1, 473105, Note_on_c, 0, 93, 98
1, 473164, Note_on_c, 0, 57, 0
1, 473167, Note_on_c, 0, 100, 0
1, 473181, Note_on_c, 0, 45, 0
1, 473189, Note_on_c, 0, 93, 0
1, 473192, Note_on_c, 0, 88, 0
1, 473200, Note_on_c, 0, 97, 0
1, 473228, Note_on_c, 0, 93, 83
1, 473231, Note_on_c, 0, 101, 95
1, 473231, Note_on_c, 0, 53, 111
1, 473231, Note_on_c, 0, 89, 98
1, 473234, Note_on_c, 0, 41, 92
1, 473239, Note_on_c, 0, 97, 87
1, 473262, Note_on_c, 0, 41, 0
1, 473267, Note_on_c, 0, 53, 0
1, 473267, Note_on_c, 0, 101, 0
1, 473301, Note_on_c, 0, 97, 0
1, 473301, Note_on_c, 0, 93, 0
1, 473314, Note_on_c, 0, 89, 0
1, 473346, Note_on_c, 0, 57, 95
1, 473349, Note_on_c, 0, 45, 94
1, 473354, Note_on_c, 0, 93, 68
1, 473354, Note_on_c, 0, 100, 88
1, 473354, Note_on_c, 0, 88, 92
1, 473354, Note_on_c, 0, 97, 75
1, 473379, Note_on_c, 0, 57, 0
1, 473389, Note_on_c, 0, 45, 0
1, 473392, Note_on_c, 0, 100, 0
1, 473392, Note_on_c, 0, 88, 0
1, 473435, Note_on_c, 0, 93, 0
1, 473443, Note_on_c, 0, 97, 0
1, 473470, Note_on_c, 0, 89, 88
1, 473470, Note_on_c, 0, 101, 91
1, 473476, Note_on_c, 0, 53, 112
1, 473476, Note_on_c, 0, 41, 105
1, 473481, Note_on_c, 0, 93, 72
1, 473484, Note_on_c, 0, 97, 81
1, 473506, Note_on_c, 0, 41, 0
1, 473524, Note_on_c, 0, 101, 0
1, 473529, Note_on_c, 0, 53, 0
1, 473551, Note_on_c, 0, 89, 0
1, 473565, Note_on_c, 0, 93, 0
1, 473571, Note_on_c, 0, 97, 0
1, 473623, Note_on_c, 0, 57, 108
1, 473623, Note_on_c, 0, 93, 92
1, 473623, Note_on_c, 0, 100, 105
1, 473626, Note_on_c, 0, 45, 105
1, 473626, Note_on_c, 0, 97, 89
1, 473626, Note_on_c, 0, 88, 115
1, 473663, Control_c, 0, 64, 127
1, 473679, Note_on_c, 0, 57, 0
1, 473707, Note_on_c, 0, 45, 0
1, 473743, Note_on_c, 0, 100, 0
1, 473807, Note_on_c, 0, 93, 0
1, 473860, Note_on_c, 0, 88, 0
1, 473860, Note_on_c, 0, 97, 0
1, 473867, Control_c, 0, 64, 0
1, 474072, Note_on_c, 0, 93, 97
1, 474072, Note_on_c, 0, 101, 105
1, 474072, Note_on_c, 0, 89, 109
1, 474072, Note_on_c, 0, 97, 93
1, 474076, Note_on_c, 0, 53, 119
1, 474080, Note_on_c, 0, 41, 107
1, 474114, Note_on_c, 0, 41, 0
1, 474142, Control_c, 0, 64, 127
1, 474148, Note_on_c, 0, 53, 0
1, 474158, Note_on_c, 0, 101, 0
1, 474158, Note_on_c, 0, 89, 0
1, 474189, Note_on_c, 0, 97, 0
1, 474189, Note_on_c, 0, 93, 0
1, 474466, Control_c, 0, 64, 0
1, 474515, Note_on_c, 0, 46, 112
1, 474515, Note_on_c, 0, 37, 111
1, 474529, Note_on_c, 0, 41, 92
1, 474540, Note_on_c, 0, 37, 0
1, 474555, Note_on_c, 0, 41, 0
1, 474562, Note_on_c, 0, 46, 0
1, 474576, Note_on_c, 0, 53, 68
1, 474594, Note_on_c, 0, 55, 52
1, 474599, Control_c, 0, 64, 127
1, 474605, Note_on_c, 0, 37, 84
1, 474610, Note_on_c, 0, 41, 56
1, 474610, Note_on_c, 0, 46, 67
1, 474624, Note_on_c, 0, 53, 0
1, 474630, Note_on_c, 0, 58, 70
1, 474637, Note_on_c, 0, 55, 0
1, 474677, Note_on_c, 0, 41, 0
1, 474693, Note_on_c, 0, 37, 0
1, 474693, Note_on_c, 0, 46, 0
1, 474693, Note_on_c, 0, 65, 67
1, 474696, Note_on_c, 0, 58, 0
1, 474724, Note_on_c, 0, 65, 0
1, 474733, Note_on_c, 0, 46, 73
1, 474736, Note_on_c, 0, 37, 88
1, 474740, Note_on_c, 0, 41, 75
1, 474761, Note_on_c, 0, 65, 84
1, 474782, Note_on_c, 0, 41, 0
1, 474807, Note_on_c, 0, 37, 0
1, 474813, Note_on_c, 0, 46, 0
1, 474826, Note_on_c, 0, 70, 75
1, 474836, Note_on_c, 0, 65, 0
1, 474852, Note_on_c, 0, 37, 83
1, 474852, Note_on_c, 0, 46, 75
1, 474852, Note_on_c, 0, 41, 63
1, 474883, Note_on_c, 0, 77, 81
1, 474895, Note_on_c, 0, 70, 0
1, 474903, Note_on_c, 0, 41, 0
1, 474910, Note_on_c, 0, 77, 0
1, 474924, Note_on_c, 0, 37, 0
1, 474928, Note_on_c, 0, 46, 0
1, 474950, Note_on_c, 0, 77, 87
1, 474964, Note_on_c, 0, 46, 83
1, 474964, Note_on_c, 0, 37, 92
1, 474964, Note_on_c, 0, 41, 79
1, 475008, Note_on_c, 0, 82, 83
1, 475008, Note_on_c, 0, 41, 0
1, 475027, Note_on_c, 0, 77, 0
1, 475036, Note_on_c, 0, 37, 0
1, 475044, Note_on_c, 0, 46, 0
1, 475051, Note_on_c, 0, 89, 85
1, 475067, Note_on_c, 0, 85, 15
1, 475080, Note_on_c, 0, 89, 0
1, 475080, Note_on_c, 0, 46, 78
1, 475080, Note_on_c, 0, 37, 86
1, 475089, Note_on_c, 0, 41, 71
1, 475089, Note_on_c, 0, 82, 0
1, 475115, Note_on_c, 0, 85, 0
1, 475122, Note_on_c, 0, 89, 83
1, 475151, Note_on_c, 0, 41, 0
1, 475159, Note_on_c, 0, 46, 0
1, 475170, Note_on_c, 0, 37, 0
1, 475179, Note_on_c, 0, 94, 83
1, 475206, Note_on_c, 0, 89, 0
1, 475234, Note_on_c, 0, 46, 88
1, 475234, Note_on_c, 0, 37, 89
1, 475237, Note_on_c, 0, 94, 0
1, 475240, Note_on_c, 0, 101, 103
1, 475244, Note_on_c, 0, 41, 88
1, 475289, Note_on_c, 0, 94, 78
1, 475295, Note_on_c, 0, 41, 0
1, 475307, Note_on_c, 0, 37, 0
1, 475318, Note_on_c, 0, 46, 0
1, 475351, Note_on_c, 0, 101, 0
1, 475356, Note_on_c, 0, 89, 79
1, 475365, Note_on_c, 0, 46, 72
1, 475371, Note_on_c, 0, 37, 77
1, 475374, Note_on_c, 0, 94, 0
1, 475378, Note_on_c, 0, 41, 74
1, 475387, Note_on_c, 0, 89, 0
1, 475417, Note_on_c, 0, 41, 0
1, 475429, Note_on_c, 0, 89, 63
1, 475437, Note_on_c, 0, 91, 75
1, 475442, Note_on_c, 0, 46, 0
1, 475452, Note_on_c, 0, 37, 0
1, 475477, Note_on_c, 0, 91, 0
1, 475480, Note_on_c, 0, 82, 62
1, 475484, Note_on_c, 0, 46, 68
1, 475490, Note_on_c, 0, 41, 68
1, 475502, Note_on_c, 0, 37, 78
1, 475537, Note_on_c, 0, 89, 0
1, 475541, Note_on_c, 0, 37, 0
1, 475548, Note_on_c, 0, 77, 79
1, 475552, Note_on_c, 0, 82, 0
1, 475555, Note_on_c, 0, 41, 0
1, 475562, Note_on_c, 0, 46, 0
1, 475576, Note_on_c, 0, 77, 0
1, 475604, Note_on_c, 0, 46, 72
1, 475604, Note_on_c, 0, 41, 92
1, 475610, Note_on_c, 0, 37, 77
1, 475610, Note_on_c, 0, 77, 83
1, 475676, Note_on_c, 0, 70, 68
1, 475686, Note_on_c, 0, 46, 0
1, 475696, Note_on_c, 0, 37, 0
1, 475696, Note_on_c, 0, 41, 0
1, 475708, Note_on_c, 0, 77, 0
1, 475725, Note_on_c, 0, 46, 77
1, 475735, Note_on_c, 0, 65, 74
1, 475743, Note_on_c, 0, 37, 80
1, 475752, Note_on_c, 0, 41, 63
1, 475757, Note_on_c, 0, 70, 0
1, 475764, Note_on_c, 0, 65, 0
1, 475789, Note_on_c, 0, 41, 0
1, 475803, Note_on_c, 0, 65, 83
1, 475810, Note_on_c, 0, 46, 0
1, 475817, Note_on_c, 0, 37, 0
1, 475860, Note_on_c, 0, 46, 66
1, 475860, Note_on_c, 0, 41, 68
1, 475864, Note_on_c, 0, 37, 84
1, 475869, Note_on_c, 0, 58, 67
1, 475895, Note_on_c, 0, 65, 0
1, 475924, Note_on_c, 0, 53, 108
1, 475941, Note_on_c, 0, 46, 0
1, 475944, Note_on_c, 0, 55, 76
1, 475947, Note_on_c, 0, 41, 0
1, 475953, Note_on_c, 0, 37, 0
1, 475959, Note_on_c, 0, 58, 0
1, 475981, Note_on_c, 0, 55, 0
1, 475994, Note_on_c, 0, 53, 0
1, 476002, Note_on_c, 0, 58, 92
1, 476002, Note_on_c, 0, 65, 106
1, 476002, Note_on_c, 0, 46, 92
1, 476009, Note_on_c, 0, 41, 89
1, 476009, Note_on_c, 0, 37, 93
1, 476034, Note_on_c, 0, 55, 41
1, 476058, Note_on_c, 0, 41, 0
1, 476078, Note_on_c, 0, 37, 0
1, 476084, Note_on_c, 0, 55, 0
1, 476089, Note_on_c, 0, 46, 0
1, 476112, Note_on_c, 0, 58, 0
1, 476144, Note_on_c, 0, 65, 0
1, 476396, Control_c, 0, 64, 0
1, 476566, Note_on_c, 0, 89, 112
1, 476566, Note_on_c, 0, 82, 100
1, 476566, Note_on_c, 0, 65, 111
1, 476566, Note_on_c, 0, 85, 102
1, 476566, Note_on_c, 0, 77, 112
1, 476571, Note_on_c, 0, 53, 116
1, 476571, Note_on_c, 0, 58, 87
1, 476571, Note_on_c, 0, 61, 100
1, 476683, Control_c, 0, 64, 127
1, 476694, Note_on_c, 0, 65, 0
1, 476729, Note_on_c, 0, 89, 0
1, 476743, Note_on_c, 0, 61, 0
1, 476746, Note_on_c, 0, 53, 0
1, 476750, Note_on_c, 0, 58, 0
1, 476780, Note_on_c, 0, 77, 0
1, 476808, Note_on_c, 0, 85, 0
1, 476816, Note_on_c, 0, 82, 0
1, 477103, Control_c, 0, 64, 0
1, 477273, Note_on_c, 0, 45, 115
1, 477273, Note_on_c, 0, 33, 115
1, 477335, Note_on_c, 0, 45, 0
1, 477343, Note_on_c, 0, 33, 0
1, 477352, Note_on_c, 0, 46, 90
1, 477352, Note_on_c, 0, 58, 70
1, 477356, Control_c, 0, 64, 127
1, 477441, Note_on_c, 0, 46, 0
1, 477459, Note_on_c, 0, 58, 0
1, 477473, Note_on_c, 0, 46, 100
1, 477480, Note_on_c, 0, 34, 97
1, 477512, Note_on_c, 0, 34, 0
1, 477538, Note_on_c, 0, 46, 0
1, 477541, Note_on_c, 0, 49, 88
1, 477546, Note_on_c, 0, 61, 88
1, 477572, Note_on_c, 0, 49, 0
1, 477594, Note_on_c, 0, 61, 0
1, 477627, Note_on_c, 0, 49, 93
1, 477633, Note_on_c, 0, 37, 104
1, 477700, Note_on_c, 0, 49, 0
1, 477705, Note_on_c, 0, 37, 0
1, 477708, Note_on_c, 0, 52, 105
1, 477711, Note_on_c, 0, 64, 101
1, 477733, Note_on_c, 0, 52, 0
1, 477738, Note_on_c, 0, 64, 0
1, 477794, Note_on_c, 0, 52, 110
1, 477794, Note_on_c, 0, 40, 117
1, 477849, Note_on_c, 0, 52, 0
1, 477872, Note_on_c, 0, 40, 0
1, 477872, Note_on_c, 0, 65, 93
1, 477880, Note_on_c, 0, 53, 103
1, 477905, Note_on_c, 0, 65, 0
1, 477905, Note_on_c, 0, 53, 0
1, 477948, Note_on_c, 0, 53, 121
1, 477953, Note_on_c, 0, 41, 111
1, 478006, Note_on_c, 0, 53, 0
1, 478009, Note_on_c, 0, 69, 92
1, 478016, Note_on_c, 0, 57, 79
1, 478030, Note_on_c, 0, 41, 0
1, 478034, Note_on_c, 0, 69, 0
1, 478048, Note_on_c, 0, 57, 0
1, 478086, Note_on_c, 0, 57, 84
1, 478086, Note_on_c, 0, 45, 99
1, 478126, Note_on_c, 0, 58, 89
1, 478129, Note_on_c, 0, 70, 84
1, 478134, Note_on_c, 0, 45, 0
1, 478157, Note_on_c, 0, 57, 0
1, 478161, Note_on_c, 0, 58, 0
1, 478161, Note_on_c, 0, 70, 0
1, 478212, Note_on_c, 0, 58, 88
1, 478212, Note_on_c, 0, 46, 97
1, 478256, Note_on_c, 0, 46, 0
1, 478267, Note_on_c, 0, 61, 87
1, 478267, Note_on_c, 0, 58, 0
1, 478267, Note_on_c, 0, 73, 86
1, 478296, Note_on_c, 0, 61, 0
1, 478296, Note_on_c, 0, 73, 0
1, 478332, Note_on_c, 0, 61, 106
1, 478338, Note_on_c, 0, 49, 101
1, 478396, Note_on_c, 0, 76, 89
1, 478401, Note_on_c, 0, 64, 94
1, 478412, Note_on_c, 0, 61, 0
1, 478416, Note_on_c, 0, 49, 0
1, 478424, Note_on_c, 0, 64, 0
1, 478427, Note_on_c, 0, 76, 0
1, 478430, Note_on_c, 0, 74, 36
1, 478460, Note_on_c, 0, 64, 106
1, 478465, Note_on_c, 0, 52, 111
1, 478482, Note_on_c, 0, 74, 0
1, 478494, Note_on_c, 0, 52, 0
1, 478513, Note_on_c, 0, 77, 97
1, 478518, Note_on_c, 0, 64, 0
1, 478518, Note_on_c, 0, 65, 87
1, 478540, Note_on_c, 0, 77, 0
1, 478544, Note_on_c, 0, 65, 0
1, 478583, Note_on_c, 0, 65, 101
1, 478588, Note_on_c, 0, 53, 123
1, 478636, Note_on_c, 0, 81, 105
1, 478639, Note_on_c, 0, 69, 91
1, 478647, Note_on_c, 0, 65, 0
1, 478658, Note_on_c, 0, 53, 0
1, 478661, Note_on_c, 0, 81, 0
1, 478671, Note_on_c, 0, 69, 0
1, 478700, Note_on_c, 0, 52, 115
1, 478700, Note_on_c, 0, 64, 103
1, 478736, Note_on_c, 0, 62, 35
1, 478739, Note_on_c, 0, 52, 0
1, 478739, Note_on_c, 0, 64, 0
1, 478749, Note_on_c, 0, 70, 94
1, 478749, Note_on_c, 0, 82, 91
1, 478788, Note_on_c, 0, 82, 0
1, 478788, Note_on_c, 0, 62, 0
1, 478791, Note_on_c, 0, 70, 0
1, 478819, Note_on_c, 0, 61, 101
1, 478827, Note_on_c, 0, 49, 89
1, 478855, Note_on_c, 0, 49, 0
1, 478866, Note_on_c, 0, 73, 98
1, 478866, Note_on_c, 0, 85, 99
1, 478902, Note_on_c, 0, 61, 0
1, 478916, Note_on_c, 0, 85, 0
1, 478941, Note_on_c, 0, 73, 0
1, 478941, Note_on_c, 0, 58, 98
1, 478941, Note_on_c, 0, 46, 106
1, 478998, Note_on_c, 0, 88, 94
1, 479001, Note_on_c, 0, 76, 85
1, 479001, Note_on_c, 0, 46, 0
1, 479005, Note_on_c, 0, 58, 0
1, 479028, Note_on_c, 0, 76, 0
1, 479047, Note_on_c, 0, 88, 0
1, 479064, Note_on_c, 0, 57, 97
1, 479069, Note_on_c, 0, 45, 104
1, 479109, Note_on_c, 0, 89, 106
1, 479114, Note_on_c, 0, 77, 95
1, 479117, Note_on_c, 0, 45, 0
1, 479140, Note_on_c, 0, 77, 0
1, 479145, Note_on_c, 0, 57, 0
1, 479175, Note_on_c, 0, 89, 0
1, 479187, Note_on_c, 0, 41, 115
1, 479187, Note_on_c, 0, 53, 105
1, 479232, Note_on_c, 0, 93, 103
1, 479232, Note_on_c, 0, 81, 89
1, 479248, Note_on_c, 0, 41, 0
1, 479248, Note_on_c, 0, 53, 0
1, 479257, Note_on_c, 0, 93, 0
1, 479262, Note_on_c, 0, 81, 0
1, 479298, Note_on_c, 0, 52, 91
1, 479303, Note_on_c, 0, 40, 119
1, 479345, Note_on_c, 0, 82, 97
1, 479345, Note_on_c, 0, 40, 0
1, 479348, Note_on_c, 0, 94, 91
1, 479357, Note_on_c, 0, 52, 0
1, 479374, Note_on_c, 0, 82, 0
1, 479377, Note_on_c, 0, 94, 0
1, 479409, Note_on_c, 0, 53, 117
1, 479409, Note_on_c, 0, 41, 106
1, 479457, Note_on_c, 0, 97, 95
1, 479457, Note_on_c, 0, 85, 90
1, 479465, Note_on_c, 0, 53, 0
1, 479471, Note_on_c, 0, 41, 0
1, 479491, Note_on_c, 0, 97, 0
1, 479505, Note_on_c, 0, 85, 0
1, 479522, Note_on_c, 0, 52, 105
1, 479527, Note_on_c, 0, 40, 117
1, 479561, Note_on_c, 0, 50, 24
1, 479574, Note_on_c, 0, 98, 110
1, 479579, Note_on_c, 0, 52, 0
1, 479579, Note_on_c, 0, 86, 93
1, 479599, Note_on_c, 0, 98, 0
1, 479605, Note_on_c, 0, 86, 0
1, 479608, Note_on_c, 0, 40, 0
1, 479608, Note_on_c, 0, 50, 0
1, 479641, Note_on_c, 0, 51, 109
1, 479646, Note_on_c, 0, 39, 104
1, 479696, Note_on_c, 0, 87, 88
1, 479696, Note_on_c, 0, 99, 96
1, 479711, Note_on_c, 0, 39, 0
1, 479725, Note_on_c, 0, 51, 0
1, 479725, Note_on_c, 0, 99, 0
1, 479730, Note_on_c, 0, 87, 0
1, 479752, Note_on_c, 0, 50, 112
1, 479752, Note_on_c, 0, 38, 106
1, 479806, Note_on_c, 0, 38, 0
1, 479813, Note_on_c, 0, 50, 0
1, 479813, Note_on_c, 0, 100, 89
1, 479820, Note_on_c, 0, 88, 59
1, 479836, Note_on_c, 0, 100, 0
1, 479858, Note_on_c, 0, 88, 0
1, 479866, Note_on_c, 0, 49, 110
1, 479870, Note_on_c, 0, 37, 107
1, 479912, Note_on_c, 0, 89, 91
1, 479912, Note_on_c, 0, 101, 95
1, 479934, Note_on_c, 0, 37, 0
1, 479944, Note_on_c, 0, 101, 0
1, 479944, Note_on_c, 0, 49, 0
1, 479956, Note_on_c, 0, 89, 0
1, 479967, Note_on_c, 0, 48, 104
1, 479967, Note_on_c, 0, 36, 111
1, 480026, Note_on_c, 0, 36, 0
1, 480029, Note_on_c, 0, 48, 0
1, 480033, Note_on_c, 0, 90, 79
1, 480033, Note_on_c, 0, 102, 93
1, 480059, Note_on_c, 0, 102, 0
1, 480081, Note_on_c, 0, 47, 106
1, 480086, Note_on_c, 0, 90, 0
1, 480086, Note_on_c, 0, 35, 115
1, 480137, Note_on_c, 0, 35, 0
1, 480153, Note_on_c, 0, 47, 0
1, 480153, Note_on_c, 0, 103, 92
1, 480157, Note_on_c, 0, 91, 84
1, 480179, Note_on_c, 0, 103, 0
1, 480187, Note_on_c, 0, 91, 0
1, 480212, Note_on_c, 0, 46, 104
1, 480218, Note_on_c, 0, 34, 102
1, 480282, Note_on_c, 0, 104, 92
1, 480285, Note_on_c, 0, 92, 75
1, 480304, Note_on_c, 0, 46, 0
1, 480312, Note_on_c, 0, 104, 0
1, 480315, Note_on_c, 0, 34, 0
1, 480323, Note_on_c, 0, 92, 0
1, 480327, Control_c, 0, 64, 0
1, 480377, Note_on_c, 0, 45, 111
1, 480377, Note_on_c, 0, 33, 119
1, 480387, Note_on_c, 0, 105, 115
1, 480387, Note_on_c, 0, 93, 110
1, 480435, Note_on_c, 0, 33, 0
1, 480440, Note_on_c, 0, 105, 0
1, 480440, Note_on_c, 0, 93, 0
1, 480451, Note_on_c, 0, 45, 0
1, 480458, Control_c, 0, 64, 127
1, 480675, Control_c, 0, 64, 0
1, 480834, Note_on_c, 0, 81, 109
1, 480834, Note_on_c, 0, 69, 105
1, 480834, Note_on_c, 0, 73, 96
1, 480834, Note_on_c, 0, 64, 111
1, 480841, Note_on_c, 0, 76, 99
1, 480841, Note_on_c, 0, 61, 93
1, 480841, Note_on_c, 0, 52, 101
1, 480847, Note_on_c, 0, 57, 79
1, 480889, Note_on_c, 0, 64, 0
1, 480914, Control_c, 0, 64, 127
1, 480914, Note_on_c, 0, 61, 0
1, 480914, Note_on_c, 0, 52, 0
1, 480920, Note_on_c, 0, 57, 0
1, 480920, Note_on_c, 0, 81, 0
1, 480920, Note_on_c, 0, 69, 0
1, 480956, Note_on_c, 0, 76, 0
1, 480965, Note_on_c, 0, 73, 0
1, 481435, Note_on_c, 0, 57, 110
1, 481438, Note_on_c, 0, 45, 103
1, 481443, Note_on_c, 0, 33, 111
1, 481624, Note_on_c, 0, 45, 0
1, 481667, Note_on_c, 0, 33, 0
1, 481685, Note_on_c, 0, 57, 0
1, 481909, Control_c, 0, 64, 0
1, 483407, End_track
0, 0, End_of_file
