0, 0, Header, 0, 1, 384
1, 0, Start_track
1, 0, Tempo, 512820
1, 0, Title_t, ""
1, 0, Control_c, 0, 64, 127
1, 0, Control_c, 0, 64, 0
1, 0, Control_c, 0, 64, 127
1, 3, Note_on_c, 0, 75, 20
1, 21, Note_on_c, 0, 63, 22
1, 71, Note_on_c, 0, 63, 0
1, 78, Note_on_c, 0, 75, 0
1, 250, Note_on_c, 0, 75, 32
1, 256, Note_on_c, 0, 63, 32
1, 303, Note_on_c, 0, 75, 0
1, 303, Note_on_c, 0, 63, 0
1, 498, Note_on_c, 0, 75, 40
1, 506, Note_on_c, 0, 63, 33
1, 546, Note_on_c, 0, 75, 0
1, 551, Note_on_c, 0, 63, 0
1, 729, Note_on_c, 0, 87, 34
1, 733, Note_on_c, 0, 99, 36
1, 780, Note_on_c, 0, 99, 0
1, 780, Note_on_c, 0, 87, 0
1, 972, Note_on_c, 0, 99, 44
1, 972, Note_on_c, 0, 87, 33
1, 1016, Note_on_c, 0, 99, 0
1, 1024, Note_on_c, 0, 87, 0
1, 1219, Note_on_c, 0, 87, 35
1, 1226, Note_on_c, 0, 99, 38
1, 1281, Note_on_c, 0, 87, 0
1, 1297, Note_on_c, 0, 99, 0
1, 1473, Note_on_c, 0, 75, 37
1, 1482, Note_on_c, 0, 63, 32
1, 1543, Note_on_c, 0, 63, 0
1, 1548, Note_on_c, 0, 75, 0
1, 1723, Note_on_c, 0, 75, 29
1, 1738, Note_on_c, 0, 63, 20
1, 1785, Note_on_c, 0, 75, 0
1, 1794, Note_on_c, 0, 63, 0
1, 1988, Note_on_c, 0, 75, 23
1, 1999, Note_on_c, 0, 63, 17
1, 2056, Note_on_c, 0, 63, 0
1, 2063, Note_on_c, 0, 75, 0
1, 2231, Note_on_c, 0, 99, 33
1, 2237, Note_on_c, 0, 87, 23
1, 2290, Note_on_c, 0, 99, 0
1, 2300, Note_on_c, 0, 87, 0
1, 2465, Note_on_c, 0, 87, 29
1, 2465, Note_on_c, 0, 99, 39
1, 2534, Note_on_c, 0, 99, 0
1, 2538, Note_on_c, 0, 87, 0
1, 2719, Note_on_c, 0, 87, 28
1, 2719, Note_on_c, 0, 99, 37
1, 2793, Note_on_c, 0, 99, 0
1, 2804, Note_on_c, 0, 87, 0
1, 2947, Note_on_c, 0, 75, 17
1, 2963, Note_on_c, 0, 63, 18
1, 3025, Note_on_c, 0, 63, 0
1, 3036, Note_on_c, 0, 75, 0
1, 3195, Note_on_c, 0, 99, 33
1, 3205, Note_on_c, 0, 87, 20
1, 3251, Note_on_c, 0, 99, 0
1, 3267, Note_on_c, 0, 87, 0
1, 3451, Note_on_c, 0, 87, 22
1, 3464, Note_on_c, 0, 99, 26
1, 3524, Note_on_c, 0, 87, 0
1, 3534, Note_on_c, 0, 99, 0
1, 3730, Note_on_c, 0, 75, 15
1, 3760, Note_on_c, 0, 63, 11
1, 3816, Note_on_c, 0, 63, 0
1, 3822, Note_on_c, 0, 75, 0
1, 4009, Note_on_c, 0, 99, 22
1, 4017, Note_on_c, 0, 87, 20
1, 4075, Note_on_c, 0, 99, 0
1, 4080, Note_on_c, 0, 87, 0
1, 4462, Note_on_c, 0, 99, 15
1, 4468, Note_on_c, 0, 87, 7
1, 4527, Note_on_c, 0, 87, 0
1, 4579, Note_on_c, 0, 99, 0
1, 5618, Control_c, 0, 64, 0
1, 6003, Note_on_c, 0, 75, 39
1, 6067, Note_on_c, 0, 75, 0
1, 6084, Control_c, 0, 64, 127
1, 6140, Note_on_c, 0, 87, 30
1, 6144, Control_c, 0, 64, 0
1, 6187, Note_on_c, 0, 87, 0
1, 6251, Note_on_c, 0, 87, 42
1, 6345, Note_on_c, 0, 87, 0
1, 6370, Note_on_c, 0, 99, 54
1, 6409, Note_on_c, 0, 99, 0
1, 6473, Note_on_c, 0, 87, 64
1, 6544, Note_on_c, 0, 87, 0
1, 6590, Note_on_c, 0, 99, 30
1, 6640, Note_on_c, 0, 99, 0
1, 6679, Note_on_c, 0, 85, 65
1, 6719, Note_on_c, 0, 85, 0
1, 6791, Note_on_c, 0, 99, 66
1, 6822, Note_on_c, 0, 99, 0
1, 6825, Note_on_c, 0, 56, 33
1, 6878, Note_on_c, 0, 56, 0
1, 6881, Note_on_c, 0, 63, 33
1, 6911, Control_c, 0, 64, 127
1, 6919, Note_on_c, 0, 83, 88
1, 6938, Note_on_c, 0, 63, 0
1, 6949, Note_on_c, 0, 83, 0
1, 6958, Note_on_c, 0, 71, 25
1, 7008, Control_c, 0, 64, 0
1, 7020, Note_on_c, 0, 99, 76
1, 7031, Note_on_c, 0, 71, 0
1, 7048, Note_on_c, 0, 99, 0
1, 7133, Note_on_c, 0, 83, 93
1, 7161, Note_on_c, 0, 83, 0
1, 7237, Note_on_c, 0, 99, 68
1, 7265, Note_on_c, 0, 99, 0
1, 7339, Note_on_c, 0, 82, 72
1, 7371, Note_on_c, 0, 82, 0
1, 7410, Note_on_c, 0, 59, 33
1, 7451, Note_on_c, 0, 99, 61
1, 7451, Control_c, 0, 64, 127
1, 7456, Note_on_c, 0, 59, 0
1, 7480, Note_on_c, 0, 99, 0
1, 7480, Note_on_c, 0, 68, 36
1, 7541, Note_on_c, 0, 68, 0
1, 7554, Note_on_c, 0, 80, 81
1, 7557, Note_on_c, 0, 75, 55
1, 7587, Note_on_c, 0, 80, 0
1, 7618, Note_on_c, 0, 75, 0
1, 7618, Control_c, 0, 64, 0
1, 7672, Note_on_c, 0, 99, 81
1, 7697, Note_on_c, 0, 99, 0
1, 7775, Note_on_c, 0, 79, 83
1, 7805, Note_on_c, 0, 79, 0
1, 7880, Note_on_c, 0, 99, 75
1, 7906, Note_on_c, 0, 99, 0
1, 7973, Note_on_c, 0, 80, 88
1, 8006, Note_on_c, 0, 80, 0
1, 8031, Note_on_c, 0, 63, 37
1, 8084, Note_on_c, 0, 70, 37
1, 8084, Note_on_c, 0, 63, 0
1, 8089, Note_on_c, 0, 99, 77
1, 8114, Note_on_c, 0, 99, 0
1, 8131, Note_on_c, 0, 70, 0
1, 8131, Control_c, 0, 64, 127
1, 8181, Note_on_c, 0, 79, 63
1, 8181, Note_on_c, 0, 82, 81
1, 8215, Note_on_c, 0, 82, 0
1, 8218, Note_on_c, 0, 79, 0
1, 8296, Note_on_c, 0, 99, 71
1, 8323, Note_on_c, 0, 99, 0
1, 8426, Note_on_c, 0, 75, 67
1, 8454, Note_on_c, 0, 75, 0
1, 8518, Control_c, 0, 64, 0
1, 8541, Note_on_c, 0, 99, 83
1, 8565, Note_on_c, 0, 99, 0
1, 8660, Note_on_c, 0, 75, 81
1, 8739, Note_on_c, 0, 75, 0
1, 8758, Note_on_c, 0, 87, 72
1, 8792, Note_on_c, 0, 87, 0
1, 8852, Note_on_c, 0, 67, 35
1, 8858, Note_on_c, 0, 70, 40
1, 8861, Note_on_c, 0, 76, 81
1, 8933, Note_on_c, 0, 76, 0
1, 8963, Note_on_c, 0, 87, 53
1, 8989, Note_on_c, 0, 70, 0
1, 9000, Note_on_c, 0, 67, 0
1, 9006, Note_on_c, 0, 87, 0
1, 9051, Note_on_c, 0, 75, 81
1, 9134, Note_on_c, 0, 75, 0
1, 9151, Note_on_c, 0, 87, 60
1, 9186, Note_on_c, 0, 87, 0
1, 9245, Note_on_c, 0, 73, 78
1, 9296, Note_on_c, 0, 73, 0
1, 9346, Note_on_c, 0, 87, 56
1, 9381, Note_on_c, 0, 87, 0
1, 9445, Note_on_c, 0, 71, 83
1, 9452, Note_on_c, 0, 68, 39
1, 9474, Note_on_c, 0, 71, 0
1, 9546, Note_on_c, 0, 87, 76
1, 9565, Note_on_c, 0, 68, 0
1, 9576, Note_on_c, 0, 87, 0
1, 9646, Note_on_c, 0, 71, 85
1, 9677, Note_on_c, 0, 71, 0
1, 9746, Note_on_c, 0, 87, 75
1, 9772, Note_on_c, 0, 87, 0
1, 9845, Note_on_c, 0, 70, 69
1, 9881, Note_on_c, 0, 70, 0
1, 9952, Note_on_c, 0, 87, 47
1, 9986, Note_on_c, 0, 59, 32
1, 9992, Note_on_c, 0, 87, 0
1, 10014, Note_on_c, 0, 62, 23
1, 10045, Note_on_c, 0, 68, 73
1, 10059, Note_on_c, 0, 65, 36
1, 10076, Note_on_c, 0, 68, 0
1, 10087, Control_c, 0, 64, 127
1, 10106, Note_on_c, 0, 65, 0
1, 10151, Note_on_c, 0, 59, 0
1, 10159, Note_on_c, 0, 87, 64
1, 10171, Note_on_c, 0, 62, 0
1, 10171, Control_c, 0, 64, 0
1, 10190, Note_on_c, 0, 87, 0
1, 10262, Note_on_c, 0, 67, 55
1, 10306, Note_on_c, 0, 67, 0
1, 10360, Note_on_c, 0, 87, 64
1, 10391, Note_on_c, 0, 87, 0
1, 10457, Note_on_c, 0, 68, 74
1, 10491, Note_on_c, 0, 68, 0
1, 10561, Note_on_c, 0, 51, 44
1, 10571, Note_on_c, 0, 87, 78
1, 10599, Note_on_c, 0, 87, 0
1, 10625, Note_on_c, 0, 51, 0
1, 10675, Control_c, 0, 64, 127
1, 10703, Note_on_c, 0, 70, 66
1, 10713, Note_on_c, 0, 67, 37
1, 10753, Note_on_c, 0, 70, 0
1, 10771, Note_on_c, 0, 67, 0
1, 10836, Note_on_c, 0, 87, 61
1, 10867, Note_on_c, 0, 87, 0
1, 10955, Note_on_c, 0, 63, 52
1, 10994, Note_on_c, 0, 63, 0
1, 11051, Note_on_c, 0, 75, 48
1, 11090, Note_on_c, 0, 75, 0
1, 11168, Note_on_c, 0, 75, 52
1, 11212, Note_on_c, 0, 75, 0
1, 11282, Note_on_c, 0, 87, 51
1, 11317, Note_on_c, 0, 87, 0
1, 11398, Note_on_c, 0, 87, 47
1, 11441, Control_c, 0, 64, 0
1, 11471, Note_on_c, 0, 87, 0
1, 11507, Note_on_c, 0, 99, 59
1, 11540, Note_on_c, 0, 99, 0
1, 11608, Note_on_c, 0, 87, 78
1, 11682, Note_on_c, 0, 87, 0
1, 11716, Note_on_c, 0, 99, 56
1, 11750, Note_on_c, 0, 99, 0
1, 11800, Note_on_c, 0, 85, 88
1, 11861, Note_on_c, 0, 85, 0
1, 11909, Note_on_c, 0, 99, 71
1, 11916, Note_on_c, 0, 56, 49
1, 11937, Note_on_c, 0, 99, 0
1, 11955, Note_on_c, 0, 56, 0
1, 11980, Note_on_c, 0, 63, 40
1, 12015, Note_on_c, 0, 83, 94
1, 12023, Note_on_c, 0, 63, 0
1, 12033, Note_on_c, 0, 71, 60
1, 12040, Control_c, 0, 64, 127
1, 12043, Note_on_c, 0, 83, 0
1, 12076, Note_on_c, 0, 71, 0
1, 12120, Note_on_c, 0, 99, 72
1, 12146, Note_on_c, 0, 99, 0
1, 12218, Note_on_c, 0, 83, 94
1, 12218, Control_c, 0, 64, 0
1, 12246, Note_on_c, 0, 83, 0
1, 12323, Note_on_c, 0, 99, 81
1, 12349, Note_on_c, 0, 99, 0
1, 12426, Note_on_c, 0, 82, 80
1, 12462, Note_on_c, 0, 82, 0
1, 12511, Note_on_c, 0, 59, 42
1, 12532, Note_on_c, 0, 99, 67
1, 12552, Note_on_c, 0, 59, 0
1, 12561, Note_on_c, 0, 99, 0
1, 12591, Note_on_c, 0, 68, 36
1, 12628, Control_c, 0, 64, 127
1, 12631, Note_on_c, 0, 80, 80
1, 12638, Note_on_c, 0, 68, 0
1, 12661, Note_on_c, 0, 80, 0
1, 12661, Note_on_c, 0, 75, 45
1, 12711, Note_on_c, 0, 75, 0
1, 12741, Note_on_c, 0, 99, 79
1, 12767, Note_on_c, 0, 99, 0
1, 12783, Control_c, 0, 64, 0
1, 12842, Note_on_c, 0, 79, 78
1, 12875, Note_on_c, 0, 79, 0
1, 12944, Note_on_c, 0, 99, 78
1, 12969, Note_on_c, 0, 99, 0
1, 13034, Note_on_c, 0, 80, 80
1, 13067, Note_on_c, 0, 80, 0
1, 13125, Note_on_c, 0, 63, 33
1, 13142, Note_on_c, 0, 99, 71
1, 13168, Note_on_c, 0, 99, 0
1, 13176, Note_on_c, 0, 63, 0
1, 13185, Note_on_c, 0, 70, 27
1, 13242, Note_on_c, 0, 70, 0
1, 13248, Note_on_c, 0, 82, 72
1, 13251, Control_c, 0, 64, 127
1, 13279, Note_on_c, 0, 82, 0
1, 13279, Note_on_c, 0, 79, 32
1, 13332, Note_on_c, 0, 79, 0
1, 13360, Note_on_c, 0, 99, 72
1, 13387, Note_on_c, 0, 99, 0
1, 13495, Note_on_c, 0, 75, 68
1, 13524, Note_on_c, 0, 75, 0
1, 13627, Note_on_c, 0, 99, 33
1, 13677, Note_on_c, 0, 99, 0
1, 13736, Note_on_c, 0, 75, 66
1, 13780, Note_on_c, 0, 75, 0
1, 13828, Note_on_c, 0, 87, 55
1, 13864, Note_on_c, 0, 87, 0
1, 13903, Note_on_c, 0, 67, 20
1, 13911, Control_c, 0, 64, 0
1, 13911, Note_on_c, 0, 70, 41
1, 13939, Note_on_c, 0, 76, 59
1, 13981, Note_on_c, 0, 76, 0
1, 14037, Note_on_c, 0, 70, 0
1, 14037, Note_on_c, 0, 87, 48
1, 14081, Note_on_c, 0, 87, 0
1, 14081, Note_on_c, 0, 67, 0
1, 14139, Note_on_c, 0, 75, 80
1, 14201, Note_on_c, 0, 75, 0
1, 14235, Note_on_c, 0, 87, 52
1, 14282, Note_on_c, 0, 87, 0
1, 14332, Note_on_c, 0, 73, 84
1, 14413, Note_on_c, 0, 73, 0
1, 14449, Note_on_c, 0, 87, 49
1, 14508, Note_on_c, 0, 87, 0
1, 14546, Note_on_c, 0, 75, 78
1, 14566, Note_on_c, 0, 71, 37
1, 14572, Note_on_c, 0, 68, 25
1, 14603, Note_on_c, 0, 75, 0
1, 14630, Note_on_c, 0, 71, 0
1, 14630, Note_on_c, 0, 68, 0
1, 14630, Control_c, 0, 64, 127
1, 14664, Note_on_c, 0, 87, 47
1, 14727, Note_on_c, 0, 87, 0
1, 14765, Note_on_c, 0, 80, 59
1, 14773, Control_c, 0, 64, 0
1, 14802, Note_on_c, 0, 80, 0
1, 14876, Note_on_c, 0, 83, 88
1, 14906, Note_on_c, 0, 83, 0
1, 14993, Note_on_c, 0, 87, 70
1, 15081, Note_on_c, 0, 87, 0
1, 15084, Control_c, 0, 64, 127
1, 15106, Note_on_c, 0, 99, 68
1, 15134, Note_on_c, 0, 99, 0
1, 15263, Note_on_c, 0, 75, 64
1, 15274, Note_on_c, 0, 73, 27
1, 15298, Note_on_c, 0, 63, 27
1, 15324, Note_on_c, 0, 67, 13
1, 15324, Note_on_c, 0, 75, 0
1, 15337, Note_on_c, 0, 73, 0
1, 15377, Note_on_c, 0, 87, 40
1, 15383, Note_on_c, 0, 63, 0
1, 15394, Note_on_c, 0, 67, 0
1, 15424, Note_on_c, 0, 87, 0
1, 15493, Note_on_c, 0, 79, 52
1, 15539, Note_on_c, 0, 79, 0
1, 15596, Note_on_c, 0, 82, 50
1, 15633, Note_on_c, 0, 82, 0
1, 15685, Control_c, 0, 64, 0
1, 15717, Note_on_c, 0, 87, 48
1, 15778, Note_on_c, 0, 87, 0
1, 15845, Note_on_c, 0, 99, 46
1, 15912, Note_on_c, 0, 99, 0
1, 15951, Note_on_c, 0, 56, 41
1, 15995, Control_c, 0, 64, 127
1, 16060, Note_on_c, 0, 56, 0
1, 16078, Note_on_c, 0, 63, 39
1, 16135, Note_on_c, 0, 63, 0
1, 16207, Note_on_c, 0, 71, 55
1, 16246, Note_on_c, 0, 71, 0
1, 16340, Note_on_c, 0, 80, 62
1, 16394, Note_on_c, 0, 80, 0
1, 16465, Note_on_c, 0, 75, 65
1, 16507, Note_on_c, 0, 75, 0
1, 16572, Note_on_c, 0, 87, 53
1, 16611, Note_on_c, 0, 87, 0
1, 16711, Note_on_c, 0, 99, 58
1, 16755, Note_on_c, 0, 99, 0
1, 16775, Control_c, 0, 64, 0
1, 16833, Note_on_c, 0, 87, 54
1, 16883, Note_on_c, 0, 87, 0
1, 16945, Note_on_c, 0, 99, 56
1, 16984, Note_on_c, 0, 99, 0
1, 17064, Note_on_c, 0, 87, 55
1, 17131, Note_on_c, 0, 87, 0
1, 17182, Control_c, 0, 64, 127
1, 17216, Note_on_c, 0, 99, 39
1, 17255, Note_on_c, 0, 99, 0
1, 17323, Note_on_c, 0, 85, 57
1, 17366, Note_on_c, 0, 85, 0
1, 17482, Control_c, 0, 64, 0
1, 17486, Note_on_c, 0, 85, 50
1, 17519, Note_on_c, 0, 83, 95
1, 17519, Note_on_c, 0, 44, 36
1, 17523, Note_on_c, 0, 85, 0
1, 17550, Note_on_c, 0, 83, 0
1, 17586, Note_on_c, 0, 44, 0
1, 17602, Control_c, 0, 64, 127
1, 17652, Note_on_c, 0, 99, 69
1, 17678, Note_on_c, 0, 99, 0
1, 17767, Note_on_c, 0, 83, 85
1, 17770, Control_c, 0, 64, 0
1, 17787, Note_on_c, 0, 59, 30
1, 17787, Note_on_c, 0, 51, 26
1, 17797, Note_on_c, 0, 83, 0
1, 17875, Note_on_c, 0, 99, 78
1, 17879, Note_on_c, 0, 59, 0
1, 17901, Note_on_c, 0, 99, 0
1, 17917, Note_on_c, 0, 51, 0
1, 17995, Note_on_c, 0, 82, 70
1, 18031, Note_on_c, 0, 82, 0
1, 18099, Note_on_c, 0, 99, 64
1, 18129, Note_on_c, 0, 99, 0
1, 18223, Note_on_c, 0, 82, 60
1, 18230, Note_on_c, 0, 80, 76
1, 18241, Note_on_c, 0, 47, 34
1, 18257, Note_on_c, 0, 82, 0
1, 18285, Control_c, 0, 64, 127
1, 18285, Note_on_c, 0, 47, 0
1, 18304, Note_on_c, 0, 80, 0
1, 18361, Note_on_c, 0, 99, 72
1, 18388, Note_on_c, 0, 99, 0
1, 18405, Control_c, 0, 64, 0
1, 18480, Note_on_c, 0, 79, 71
1, 18488, Note_on_c, 0, 63, 45
1, 18499, Note_on_c, 0, 56, 32
1, 18513, Note_on_c, 0, 79, 0
1, 18553, Note_on_c, 0, 56, 0
1, 18557, Note_on_c, 0, 63, 0
1, 18587, Note_on_c, 0, 99, 65
1, 18619, Note_on_c, 0, 99, 0
1, 18692, Note_on_c, 0, 80, 78
1, 18728, Note_on_c, 0, 80, 0
1, 18811, Note_on_c, 0, 99, 50
1, 18847, Note_on_c, 0, 99, 0
1, 18900, Note_on_c, 0, 79, 78
1, 18954, Note_on_c, 0, 79, 0
1, 18954, Note_on_c, 0, 80, 60
1, 18961, Note_on_c, 0, 51, 40
1, 18996, Note_on_c, 0, 82, 69
1, 19031, Note_on_c, 0, 51, 0
1, 19040, Note_on_c, 0, 80, 0
1, 19062, Note_on_c, 0, 82, 0
1, 19062, Control_c, 0, 64, 127
1, 19129, Note_on_c, 0, 99, 73
1, 19156, Note_on_c, 0, 99, 0
1, 19251, Note_on_c, 0, 58, 13
1, 19255, Note_on_c, 0, 67, 29
1, 19273, Note_on_c, 0, 75, 46
1, 19316, Note_on_c, 0, 75, 0
1, 19321, Note_on_c, 0, 58, 0
1, 19324, Note_on_c, 0, 67, 0
1, 19408, Note_on_c, 0, 99, 85
1, 19435, Note_on_c, 0, 99, 0
1, 19486, Note_on_c, 0, 75, 76
1, 19531, Note_on_c, 0, 75, 0
1, 19542, Control_c, 0, 64, 0
1, 19572, Note_on_c, 0, 87, 66
1, 19611, Note_on_c, 0, 87, 0
1, 19656, Note_on_c, 0, 70, 48
1, 19659, Note_on_c, 0, 78, 76
1, 19673, Note_on_c, 0, 76, 75
1, 19678, Note_on_c, 0, 67, 51
1, 19697, Note_on_c, 0, 78, 0
1, 19714, Note_on_c, 0, 70, 0
1, 19714, Note_on_c, 0, 76, 0
1, 19720, Note_on_c, 0, 67, 0
1, 19787, Note_on_c, 0, 87, 62
1, 19823, Note_on_c, 0, 87, 0
1, 19884, Note_on_c, 0, 75, 70
1, 19895, Note_on_c, 0, 70, 48
1, 19903, Note_on_c, 0, 67, 35
1, 19934, Note_on_c, 0, 75, 0
1, 19951, Note_on_c, 0, 70, 0
1, 19967, Note_on_c, 0, 67, 0
1, 19992, Note_on_c, 0, 87, 58
1, 20031, Note_on_c, 0, 87, 0
1, 20084, Note_on_c, 0, 73, 76
1, 20131, Note_on_c, 0, 73, 0
1, 20177, Note_on_c, 0, 87, 67
1, 20207, Note_on_c, 0, 87, 0
1, 20285, Note_on_c, 0, 73, 75
1, 20290, Note_on_c, 0, 71, 87
1, 20308, Note_on_c, 0, 68, 51
1, 20318, Note_on_c, 0, 73, 0
1, 20329, Note_on_c, 0, 71, 0
1, 20349, Note_on_c, 0, 68, 0
1, 20416, Note_on_c, 0, 87, 65
1, 20446, Note_on_c, 0, 87, 0
1, 20506, Note_on_c, 0, 71, 77
1, 20521, Note_on_c, 0, 68, 44
1, 20539, Note_on_c, 0, 71, 0
1, 20566, Note_on_c, 0, 68, 0
1, 20608, Note_on_c, 0, 87, 75
1, 20634, Note_on_c, 0, 87, 0
1, 20700, Note_on_c, 0, 70, 69
1, 20737, Note_on_c, 0, 70, 0
1, 20795, Note_on_c, 0, 87, 72
1, 20822, Note_on_c, 0, 87, 0
1, 20906, Note_on_c, 0, 68, 83
1, 20911, Note_on_c, 0, 70, 53
1, 20929, Note_on_c, 0, 65, 30
1, 20948, Note_on_c, 0, 70, 0
1, 20948, Note_on_c, 0, 62, 17
1, 20948, Note_on_c, 0, 59, 16
1, 20978, Note_on_c, 0, 65, 0
1, 20987, Note_on_c, 0, 68, 0
1, 21003, Note_on_c, 0, 62, 0
1, 21010, Note_on_c, 0, 59, 0
1, 21037, Note_on_c, 0, 87, 63
1, 21068, Note_on_c, 0, 87, 0
1, 21134, Note_on_c, 0, 67, 78
1, 21134, Note_on_c, 0, 65, 35
1, 21146, Note_on_c, 0, 62, 44
1, 21166, Note_on_c, 0, 67, 0
1, 21166, Note_on_c, 0, 59, 41
1, 21179, Note_on_c, 0, 65, 0
1, 21187, Note_on_c, 0, 62, 0
1, 21208, Note_on_c, 0, 59, 0
1, 21243, Note_on_c, 0, 87, 65
1, 21272, Note_on_c, 0, 87, 0
1, 21282, Note_on_c, 0, 85, 16
1, 21329, Note_on_c, 0, 85, 0
1, 21336, Note_on_c, 0, 68, 76
1, 21374, Note_on_c, 0, 68, 0
1, 21452, Note_on_c, 0, 87, 83
1, 21477, Note_on_c, 0, 51, 53
1, 21485, Note_on_c, 0, 87, 0
1, 21542, Note_on_c, 0, 51, 0
1, 21588, Note_on_c, 0, 70, 66
1, 21609, Note_on_c, 0, 67, 47
1, 21617, Control_c, 0, 64, 127
1, 21634, Note_on_c, 0, 70, 0
1, 21720, Note_on_c, 0, 87, 54
1, 21750, Note_on_c, 0, 67, 0
1, 21753, Note_on_c, 0, 87, 0
1, 21834, Note_on_c, 0, 63, 59
1, 21876, Note_on_c, 0, 63, 0
1, 21945, Note_on_c, 0, 75, 41
1, 21990, Note_on_c, 0, 75, 0
1, 22062, Note_on_c, 0, 75, 53
1, 22113, Note_on_c, 0, 75, 0
1, 22168, Note_on_c, 0, 87, 55
1, 22204, Note_on_c, 0, 87, 0
1, 22293, Note_on_c, 0, 87, 66
1, 22347, Control_c, 0, 64, 0
1, 22375, Note_on_c, 0, 87, 0
1, 22409, Note_on_c, 0, 99, 62
1, 22441, Note_on_c, 0, 99, 0
1, 22508, Note_on_c, 0, 87, 78
1, 22566, Note_on_c, 0, 87, 0
1, 22612, Note_on_c, 0, 99, 67
1, 22644, Note_on_c, 0, 99, 0
1, 22703, Note_on_c, 0, 85, 87
1, 22762, Note_on_c, 0, 85, 0
1, 22812, Note_on_c, 0, 99, 68
1, 22840, Note_on_c, 0, 99, 0
1, 22917, Note_on_c, 0, 85, 83
1, 22935, Note_on_c, 0, 83, 95
1, 22935, Note_on_c, 0, 44, 39
1, 22946, Note_on_c, 0, 85, 0
1, 22968, Note_on_c, 0, 83, 0
1, 22990, Note_on_c, 0, 44, 0
1, 23044, Control_c, 0, 64, 127
1, 23056, Note_on_c, 0, 99, 70
1, 23079, Control_c, 0, 64, 0
1, 23082, Note_on_c, 0, 99, 0
1, 23157, Note_on_c, 0, 51, 34
1, 23157, Note_on_c, 0, 83, 87
1, 23157, Note_on_c, 0, 59, 29
1, 23188, Note_on_c, 0, 83, 0
1, 23224, Note_on_c, 0, 51, 0
1, 23224, Note_on_c, 0, 59, 0
1, 23266, Note_on_c, 0, 99, 56
1, 23297, Note_on_c, 0, 99, 0
1, 23360, Note_on_c, 0, 82, 62
1, 23394, Note_on_c, 0, 82, 0
1, 23456, Note_on_c, 0, 99, 70
1, 23485, Note_on_c, 0, 99, 0
1, 23572, Note_on_c, 0, 82, 72
1, 23577, Note_on_c, 0, 80, 84
1, 23592, Note_on_c, 0, 47, 44
1, 23603, Note_on_c, 0, 82, 0
1, 23630, Control_c, 0, 64, 127
1, 23630, Note_on_c, 0, 47, 0
1, 23647, Note_on_c, 0, 80, 0
1, 23714, Note_on_c, 0, 99, 65
1, 23726, Control_c, 0, 64, 0
1, 23743, Note_on_c, 0, 99, 0
1, 23817, Note_on_c, 0, 79, 86
1, 23823, Note_on_c, 0, 63, 49
1, 23832, Note_on_c, 0, 56, 37
1, 23845, Note_on_c, 0, 79, 0
1, 23871, Note_on_c, 0, 63, 0
1, 23882, Note_on_c, 0, 56, 0
1, 23928, Note_on_c, 0, 99, 78
1, 23953, Note_on_c, 0, 99, 0
1, 24023, Note_on_c, 0, 80, 76
1, 24051, Note_on_c, 0, 80, 0
1, 24126, Note_on_c, 0, 99, 74
1, 24151, Note_on_c, 0, 99, 0
1, 24221, Note_on_c, 0, 79, 79
1, 24266, Note_on_c, 0, 79, 0
1, 24269, Note_on_c, 0, 80, 67
1, 24291, Note_on_c, 0, 51, 28
1, 24330, Note_on_c, 0, 82, 73
1, 24350, Note_on_c, 0, 80, 0
1, 24350, Note_on_c, 0, 51, 0
1, 24360, Note_on_c, 0, 82, 0
1, 24410, Control_c, 0, 64, 127
1, 24449, Note_on_c, 0, 99, 72
1, 24475, Note_on_c, 0, 99, 0
1, 24569, Note_on_c, 0, 67, 33
1, 24575, Note_on_c, 0, 58, 19
1, 24589, Note_on_c, 0, 75, 55
1, 24626, Note_on_c, 0, 75, 0
1, 24636, Note_on_c, 0, 67, 0
1, 24653, Note_on_c, 0, 58, 0
1, 24733, Note_on_c, 0, 99, 16
1, 24779, Note_on_c, 0, 99, 0
1, 24828, Note_on_c, 0, 75, 76
1, 24896, Note_on_c, 0, 75, 0
1, 24924, Note_on_c, 0, 87, 50
1, 24963, Note_on_c, 0, 87, 0
1, 24996, Control_c, 0, 64, 0
1, 25018, Note_on_c, 0, 70, 43
1, 25018, Note_on_c, 0, 78, 65
1, 25026, Note_on_c, 0, 68, 46
1, 25029, Note_on_c, 0, 61, 44
1, 25034, Note_on_c, 0, 76, 60
1, 25051, Note_on_c, 0, 78, 0
1, 25066, Note_on_c, 0, 70, 0
1, 25066, Note_on_c, 0, 68, 0
1, 25066, Note_on_c, 0, 76, 0
1, 25087, Note_on_c, 0, 61, 0
1, 25155, Note_on_c, 0, 92, 31
1, 25215, Note_on_c, 0, 92, 0
1, 25229, Note_on_c, 0, 70, 46
1, 25229, Note_on_c, 0, 75, 77
1, 25236, Note_on_c, 0, 68, 36
1, 25252, Note_on_c, 0, 63, 35
1, 25264, Note_on_c, 0, 75, 0
1, 25275, Note_on_c, 0, 70, 0
1, 25285, Note_on_c, 0, 68, 0
1, 25297, Note_on_c, 0, 63, 0
1, 25344, Note_on_c, 0, 92, 62
1, 25378, Note_on_c, 0, 92, 0
1, 25438, Note_on_c, 0, 70, 46
1, 25441, Note_on_c, 0, 73, 70
1, 25458, Note_on_c, 0, 68, 23
1, 25469, Note_on_c, 0, 64, 31
1, 25475, Note_on_c, 0, 73, 0
1, 25486, Note_on_c, 0, 70, 0
1, 25513, Note_on_c, 0, 64, 0
1, 25517, Note_on_c, 0, 68, 0
1, 25561, Note_on_c, 0, 92, 67
1, 25594, Note_on_c, 0, 92, 0
1, 25679, Note_on_c, 0, 75, 71
1, 25686, Note_on_c, 0, 71, 43
1, 25692, Note_on_c, 0, 68, 26
1, 25709, Note_on_c, 0, 63, 23
1, 25778, Note_on_c, 0, 75, 0
1, 25786, Note_on_c, 0, 63, 0
1, 25786, Control_c, 0, 64, 127
1, 25798, Note_on_c, 0, 87, 47
1, 25809, Note_on_c, 0, 71, 0
1, 25856, Note_on_c, 0, 68, 0
1, 25890, Note_on_c, 0, 80, 64
1, 25899, Note_on_c, 0, 87, 0
1, 25937, Note_on_c, 0, 80, 0
1, 25998, Note_on_c, 0, 83, 98
1, 26023, Note_on_c, 0, 83, 0
1, 26040, Control_c, 0, 64, 0
1, 26108, Note_on_c, 0, 87, 80
1, 26197, Note_on_c, 0, 87, 0
1, 26229, Note_on_c, 0, 99, 66
1, 26255, Control_c, 0, 64, 127
1, 26255, Note_on_c, 0, 51, 36
1, 26260, Note_on_c, 0, 99, 0
1, 26355, Note_on_c, 0, 51, 0
1, 26355, Note_on_c, 0, 61, 48
1, 26406, Note_on_c, 0, 61, 0
1, 26441, Note_on_c, 0, 75, 48
1, 26469, Note_on_c, 0, 67, 37
1, 26517, Note_on_c, 0, 75, 0
1, 26548, Note_on_c, 0, 67, 0
1, 26551, Note_on_c, 0, 87, 38
1, 26601, Note_on_c, 0, 87, 0
1, 26662, Note_on_c, 0, 79, 49
1, 26709, Note_on_c, 0, 79, 0
1, 26762, Note_on_c, 0, 82, 52
1, 26796, Note_on_c, 0, 82, 0
1, 26898, Note_on_c, 0, 87, 47
1, 26938, Control_c, 0, 64, 0
1, 26959, Note_on_c, 0, 87, 0
1, 27019, Note_on_c, 0, 99, 52
1, 27060, Note_on_c, 0, 99, 0
1, 27115, Note_on_c, 0, 44, 43
1, 27154, Control_c, 0, 64, 127
1, 27169, Note_on_c, 0, 44, 0
1, 27261, Note_on_c, 0, 59, 27
1, 27311, Note_on_c, 0, 59, 0
1, 27386, Note_on_c, 0, 63, 61
1, 27439, Note_on_c, 0, 63, 0
1, 27520, Note_on_c, 0, 68, 43
1, 27562, Note_on_c, 0, 68, 0
1, 27650, Note_on_c, 0, 75, 42
1, 27693, Note_on_c, 0, 75, 0
1, 27782, Note_on_c, 0, 80, 42
1, 27832, Note_on_c, 0, 80, 0
1, 27940, Note_on_c, 0, 83, 52
1, 27987, Note_on_c, 0, 83, 0
1, 28083, Note_on_c, 0, 87, 37
1, 28141, Note_on_c, 0, 87, 0
1, 28297, Note_on_c, 0, 92, 48
1, 28339, Note_on_c, 0, 92, 0
1, 28927, Control_c, 0, 64, 0
1, 29375, Note_on_c, 0, 71, 50
1, 29425, Note_on_c, 0, 71, 0
1, 29523, Note_on_c, 0, 70, 57
1, 29528, Note_on_c, 0, 67, 59
1, 29565, Note_on_c, 0, 67, 0
1, 29597, Note_on_c, 0, 70, 0
1, 29667, Note_on_c, 0, 71, 80
1, 29717, Note_on_c, 0, 71, 0
1, 29781, Note_on_c, 0, 66, 60
1, 29781, Note_on_c, 0, 69, 58
1, 29821, Note_on_c, 0, 69, 0
1, 29831, Note_on_c, 0, 66, 0
1, 29902, Note_on_c, 0, 71, 83
1, 29976, Note_on_c, 0, 71, 0
1, 30010, Note_on_c, 0, 68, 65
1, 30021, Note_on_c, 0, 65, 50
1, 30058, Note_on_c, 0, 65, 0
1, 30069, Note_on_c, 0, 68, 0
1, 30152, Note_on_c, 0, 71, 85
1, 30200, Note_on_c, 0, 71, 0
1, 30274, Note_on_c, 0, 67, 76
1, 30278, Note_on_c, 0, 64, 75
1, 30310, Note_on_c, 0, 64, 0
1, 30320, Note_on_c, 0, 67, 0
1, 30492, Note_on_c, 0, 73, 65
1, 30522, Note_on_c, 0, 71, 83
1, 30570, Note_on_c, 0, 73, 0
1, 30578, Note_on_c, 0, 71, 0
1, 30583, Note_on_c, 0, 70, 52
1, 30623, Note_on_c, 0, 70, 0
1, 30636, Note_on_c, 0, 71, 65
1, 30693, Note_on_c, 0, 71, 0
1, 30693, Note_on_c, 0, 66, 66
1, 30714, Note_on_c, 0, 63, 62
1, 30723, Note_on_c, 0, 59, 41
1, 30723, Note_on_c, 0, 66, 0
1, 30753, Note_on_c, 0, 63, 0
1, 30763, Note_on_c, 0, 59, 0
1, 30832, Note_on_c, 0, 90, 72
1, 30845, Control_c, 0, 64, 127
1, 30863, Note_on_c, 0, 90, 0
1, 30952, Control_c, 0, 64, 0
1, 30971, Note_on_c, 0, 66, 46
1, 30976, Note_on_c, 0, 71, 73
1, 30983, Note_on_c, 0, 54, 46
1, 30988, Note_on_c, 0, 63, 43
1, 31008, Note_on_c, 0, 71, 0
1, 31027, Note_on_c, 0, 66, 0
1, 31032, Note_on_c, 0, 63, 0
1, 31046, Note_on_c, 0, 54, 0
1, 31118, Note_on_c, 0, 90, 80
1, 31146, Note_on_c, 0, 90, 0
1, 31278, Note_on_c, 0, 75, 73
1, 31324, Note_on_c, 0, 73, 54
1, 31336, Note_on_c, 0, 75, 0
1, 31367, Note_on_c, 0, 73, 0
1, 31383, Note_on_c, 0, 72, 56
1, 31433, Note_on_c, 0, 73, 49
1, 31447, Note_on_c, 0, 72, 0
1, 31487, Note_on_c, 0, 66, 68
1, 31503, Note_on_c, 0, 64, 59
1, 31503, Note_on_c, 0, 58, 37
1, 31519, Note_on_c, 0, 66, 0
1, 31528, Note_on_c, 0, 73, 0
1, 31537, Note_on_c, 0, 64, 0
1, 31558, Note_on_c, 0, 58, 0
1, 31612, Note_on_c, 0, 90, 80
1, 31643, Note_on_c, 0, 90, 0
1, 31731, Note_on_c, 0, 73, 78
1, 31737, Note_on_c, 0, 66, 61
1, 31740, Note_on_c, 0, 54, 55
1, 31759, Note_on_c, 0, 64, 30
1, 31771, Note_on_c, 0, 73, 0
1, 31771, Note_on_c, 0, 66, 0
1, 31784, Note_on_c, 0, 54, 0
1, 31806, Note_on_c, 0, 64, 0
1, 31848, Note_on_c, 0, 90, 82
1, 31873, Note_on_c, 0, 90, 0
1, 31990, Note_on_c, 0, 76, 74
1, 32040, Note_on_c, 0, 75, 65
1, 32057, Note_on_c, 0, 76, 0
1, 32093, Note_on_c, 0, 74, 66
1, 32111, Note_on_c, 0, 75, 0
1, 32160, Note_on_c, 0, 74, 0
1, 32160, Note_on_c, 0, 75, 65
1, 32235, Note_on_c, 0, 66, 24
1, 32255, Note_on_c, 0, 75, 0
1, 32255, Note_on_c, 0, 63, 32
1, 32261, Note_on_c, 0, 71, 68
1, 32275, Note_on_c, 0, 59, 17
1, 32295, Note_on_c, 0, 71, 0
1, 32336, Note_on_c, 0, 59, 0
1, 32344, Control_c, 0, 64, 127
1, 32350, Note_on_c, 0, 66, 0
1, 32358, Note_on_c, 0, 63, 0
1, 32459, Note_on_c, 0, 90, 50
1, 32498, Note_on_c, 0, 90, 0
1, 32570, Control_c, 0, 64, 0
1, 32657, Note_on_c, 0, 75, 76
1, 32685, Note_on_c, 0, 75, 0
1, 32799, Note_on_c, 0, 74, 79
1, 32799, Note_on_c, 0, 71, 76
1, 32829, Note_on_c, 0, 74, 0
1, 32829, Note_on_c, 0, 71, 0
1, 32930, Note_on_c, 0, 75, 82
1, 32963, Note_on_c, 0, 75, 0
1, 33035, Note_on_c, 0, 70, 62
1, 33038, Note_on_c, 0, 73, 66
1, 33074, Note_on_c, 0, 70, 0
1, 33077, Note_on_c, 0, 73, 0
1, 33164, Note_on_c, 0, 75, 88
1, 33222, Note_on_c, 0, 75, 0
1, 33280, Note_on_c, 0, 69, 62
1, 33280, Note_on_c, 0, 72, 74
1, 33317, Note_on_c, 0, 69, 0
1, 33317, Note_on_c, 0, 72, 0
1, 33395, Note_on_c, 0, 75, 88
1, 33423, Note_on_c, 0, 75, 0
1, 33511, Note_on_c, 0, 68, 67
1, 33511, Note_on_c, 0, 71, 86
1, 33542, Note_on_c, 0, 68, 0
1, 33542, Note_on_c, 0, 71, 0
1, 33660, Note_on_c, 0, 77, 85
1, 33712, Note_on_c, 0, 75, 70
1, 33738, Note_on_c, 0, 77, 0
1, 33760, Note_on_c, 0, 75, 0
1, 33779, Note_on_c, 0, 74, 51
1, 33820, Note_on_c, 0, 74, 0
1, 33820, Note_on_c, 0, 75, 62
1, 33884, Note_on_c, 0, 70, 57
1, 33893, Note_on_c, 0, 66, 42
1, 33893, Note_on_c, 0, 75, 0
1, 33907, Note_on_c, 0, 63, 31
1, 33919, Note_on_c, 0, 70, 0
1, 33938, Note_on_c, 0, 66, 0
1, 33951, Note_on_c, 0, 63, 0
1, 34004, Note_on_c, 0, 94, 77
1, 34032, Note_on_c, 0, 94, 0
1, 34138, Note_on_c, 0, 75, 72
1, 34141, Note_on_c, 0, 70, 44
1, 34156, Note_on_c, 0, 66, 44
1, 34163, Note_on_c, 0, 58, 20
1, 34172, Note_on_c, 0, 75, 0
1, 34195, Note_on_c, 0, 70, 0
1, 34203, Note_on_c, 0, 66, 0
1, 34225, Note_on_c, 0, 58, 0
1, 34269, Note_on_c, 0, 94, 75
1, 34295, Note_on_c, 0, 94, 0
1, 34429, Note_on_c, 0, 78, 75
1, 34472, Note_on_c, 0, 77, 58
1, 34486, Note_on_c, 0, 78, 0
1, 34522, Note_on_c, 0, 77, 0
1, 34543, Note_on_c, 0, 76, 49
1, 34586, Note_on_c, 0, 76, 0
1, 34586, Note_on_c, 0, 77, 55
1, 34648, Note_on_c, 0, 77, 0
1, 34648, Note_on_c, 0, 70, 56
1, 34648, Note_on_c, 0, 68, 46
1, 34684, Note_on_c, 0, 70, 0
1, 34684, Note_on_c, 0, 62, 23
1, 34695, Note_on_c, 0, 68, 0
1, 34735, Note_on_c, 0, 62, 0
1, 34780, Note_on_c, 0, 94, 51
1, 34816, Note_on_c, 0, 94, 0
1, 34904, Note_on_c, 0, 70, 32
1, 34912, Note_on_c, 0, 77, 58
1, 34916, Note_on_c, 0, 68, 34
1, 34924, Note_on_c, 0, 58, 23
1, 34943, Note_on_c, 0, 77, 0
1, 34960, Note_on_c, 0, 70, 0
1, 34971, Note_on_c, 0, 68, 0
1, 34985, Note_on_c, 0, 58, 0
1, 35024, Note_on_c, 0, 94, 64
1, 35055, Note_on_c, 0, 94, 0
1, 35185, Note_on_c, 0, 80, 69
1, 35231, Note_on_c, 0, 80, 0
1, 35231, Note_on_c, 0, 78, 60
1, 35291, Note_on_c, 0, 78, 0
1, 35317, Note_on_c, 0, 77, 39
1, 35364, Note_on_c, 0, 77, 0
1, 35364, Note_on_c, 0, 78, 50
1, 35425, Note_on_c, 0, 78, 0
1, 35436, Note_on_c, 0, 70, 20
1, 35454, Note_on_c, 0, 75, 43
1, 35459, Note_on_c, 0, 66, 16
1, 35462, Note_on_c, 0, 63, 23
1, 35495, Note_on_c, 0, 75, 0
1, 35520, Note_on_c, 0, 63, 0
1, 35520, Control_c, 0, 64, 127
1, 35528, Note_on_c, 0, 70, 0
1, 35537, Note_on_c, 0, 66, 0
1, 35609, Note_on_c, 0, 94, 37
1, 35656, Note_on_c, 0, 94, 0
1, 35759, Control_c, 0, 64, 0
1, 35774, Note_on_c, 0, 78, 75
1, 35807, Note_on_c, 0, 78, 0
1, 35899, Note_on_c, 0, 77, 76
1, 35904, Note_on_c, 0, 74, 70
1, 35935, Note_on_c, 0, 77, 0
1, 35935, Note_on_c, 0, 74, 0
1, 36025, Note_on_c, 0, 78, 88
1, 36067, Note_on_c, 0, 78, 0
1, 36142, Note_on_c, 0, 73, 75
1, 36147, Note_on_c, 0, 76, 69
1, 36184, Note_on_c, 0, 76, 0
1, 36217, Note_on_c, 0, 73, 0
1, 36264, Note_on_c, 0, 78, 92
1, 36350, Note_on_c, 0, 78, 0
1, 36379, Note_on_c, 0, 75, 75
1, 36379, Note_on_c, 0, 72, 80
1, 36420, Note_on_c, 0, 72, 0
1, 36456, Note_on_c, 0, 75, 0
1, 36500, Note_on_c, 0, 78, 96
1, 36535, Note_on_c, 0, 78, 0
1, 36604, Note_on_c, 0, 74, 89
1, 36604, Note_on_c, 0, 71, 84
1, 36640, Note_on_c, 0, 71, 0
1, 36652, Note_on_c, 0, 74, 0
1, 36765, Note_on_c, 0, 80, 83
1, 36802, Note_on_c, 0, 78, 76
1, 36854, Note_on_c, 0, 80, 0
1, 36876, Note_on_c, 0, 77, 66
1, 36885, Note_on_c, 0, 78, 0
1, 36915, Note_on_c, 0, 77, 0
1, 36929, Note_on_c, 0, 78, 75
1, 36979, Note_on_c, 0, 66, 53
1, 36979, Note_on_c, 0, 70, 52
1, 36979, Note_on_c, 0, 73, 62
1, 37008, Note_on_c, 0, 78, 0
1, 37014, Note_on_c, 0, 73, 0
1, 37025, Note_on_c, 0, 70, 0
1, 37028, Note_on_c, 0, 66, 0
1, 37106, Note_on_c, 0, 97, 80
1, 37131, Note_on_c, 0, 97, 0
1, 37227, Note_on_c, 0, 78, 84
1, 37230, Note_on_c, 0, 73, 52
1, 37241, Note_on_c, 0, 70, 45
1, 37250, Note_on_c, 0, 61, 38
1, 37270, Note_on_c, 0, 78, 0
1, 37277, Note_on_c, 0, 73, 0
1, 37286, Note_on_c, 0, 70, 0
1, 37298, Note_on_c, 0, 61, 0
1, 37359, Note_on_c, 0, 97, 74
1, 37386, Note_on_c, 0, 97, 0
1, 37509, Note_on_c, 0, 82, 70
1, 37556, Note_on_c, 0, 80, 61
1, 37571, Note_on_c, 0, 82, 0
1, 37606, Note_on_c, 0, 80, 0
1, 37613, Note_on_c, 0, 79, 64
1, 37668, Note_on_c, 0, 79, 0
1, 37674, Note_on_c, 0, 80, 55
1, 37741, Note_on_c, 0, 73, 43
1, 37741, Note_on_c, 0, 71, 47
1, 37746, Note_on_c, 0, 65, 31
1, 37766, Note_on_c, 0, 80, 0
1, 37782, Note_on_c, 0, 73, 0
1, 37793, Note_on_c, 0, 71, 0
1, 37793, Control_c, 0, 64, 127
1, 37837, Note_on_c, 0, 65, 0
1, 37865, Note_on_c, 0, 97, 73
1, 37893, Note_on_c, 0, 97, 0
1, 37964, Control_c, 0, 64, 0
1, 37988, Note_on_c, 0, 80, 61
1, 37988, Note_on_c, 0, 73, 60
1, 37993, Note_on_c, 0, 61, 50
1, 38005, Note_on_c, 0, 71, 34
1, 38024, Note_on_c, 0, 80, 0
1, 38032, Note_on_c, 0, 61, 0
1, 38047, Note_on_c, 0, 73, 0
1, 38050, Note_on_c, 0, 71, 0
1, 38103, Note_on_c, 0, 97, 66
1, 38133, Note_on_c, 0, 97, 0
1, 38214, Note_on_c, 0, 82, 83
1, 38223, Note_on_c, 0, 78, 68
1, 38261, Note_on_c, 0, 78, 0
1, 38297, Note_on_c, 0, 82, 0
1, 38348, Note_on_c, 0, 80, 65
1, 38348, Note_on_c, 0, 83, 107
1, 38383, Note_on_c, 0, 80, 0
1, 38407, Note_on_c, 0, 83, 0
1, 38420, Control_c, 0, 64, 127
1, 38457, Note_on_c, 0, 66, 43
1, 38501, Note_on_c, 0, 66, 0
1, 38524, Note_on_c, 0, 85, 90
1, 38540, Note_on_c, 0, 82, 81
1, 38645, Note_on_c, 0, 97, 65
1, 38651, Note_on_c, 0, 90, 57
1, 38657, Note_on_c, 0, 85, 0
1, 38660, Note_on_c, 0, 82, 0
1, 38682, Note_on_c, 0, 97, 0
1, 38688, Note_on_c, 0, 90, 0
1, 38760, Note_on_c, 0, 83, 103
1, 38773, Note_on_c, 0, 80, 67
1, 38812, Note_on_c, 0, 80, 0
1, 38812, Control_c, 0, 64, 0
1, 38849, Note_on_c, 0, 83, 0
1, 38877, Note_on_c, 0, 78, 72
1, 38877, Note_on_c, 0, 82, 72
1, 38905, Note_on_c, 0, 78, 0
1, 38936, Note_on_c, 0, 82, 0
1, 39005, Note_on_c, 0, 71, 74
1, 39005, Note_on_c, 0, 80, 77
1, 39038, Note_on_c, 0, 71, 0
1, 39052, Note_on_c, 0, 80, 0
1, 39105, Note_on_c, 0, 73, 73
1, 39124, Note_on_c, 0, 82, 70
1, 39131, Note_on_c, 0, 73, 0
1, 39158, Note_on_c, 0, 82, 0
1, 39236, Note_on_c, 0, 59, 53
1, 39275, Note_on_c, 0, 59, 0
1, 39278, Note_on_c, 0, 83, 97
1, 39315, Note_on_c, 0, 75, 81
1, 39342, Control_c, 0, 64, 127
1, 39372, Note_on_c, 0, 75, 0
1, 39393, Note_on_c, 0, 83, 0
1, 39400, Note_on_c, 0, 87, 59
1, 39400, Note_on_c, 0, 95, 55
1, 39440, Note_on_c, 0, 95, 0
1, 39446, Note_on_c, 0, 87, 0
1, 39514, Note_on_c, 0, 82, 68
1, 39528, Note_on_c, 0, 73, 46
1, 39570, Note_on_c, 0, 73, 0
1, 39570, Control_c, 0, 64, 0
1, 39589, Note_on_c, 0, 82, 0
1, 39624, Note_on_c, 0, 80, 76
1, 39624, Note_on_c, 0, 71, 72
1, 39660, Note_on_c, 0, 71, 0
1, 39670, Note_on_c, 0, 80, 0
1, 39732, Note_on_c, 0, 70, 60
1, 39738, Note_on_c, 0, 78, 83
1, 39771, Note_on_c, 0, 70, 0
1, 39779, Note_on_c, 0, 78, 0
1, 39854, Note_on_c, 0, 71, 62
1, 39854, Note_on_c, 0, 80, 75
1, 39886, Note_on_c, 0, 80, 0
1, 39894, Note_on_c, 0, 71, 0
1, 39943, Note_on_c, 0, 61, 46
1, 39978, Note_on_c, 0, 82, 78
1, 39989, Note_on_c, 0, 73, 73
1, 40042, Note_on_c, 0, 73, 0
1, 40050, Note_on_c, 0, 61, 0
1, 40058, Note_on_c, 0, 82, 0
1, 40086, Control_c, 0, 64, 127
1, 40086, Note_on_c, 0, 94, 62
1, 40092, Note_on_c, 0, 85, 62
1, 40122, Note_on_c, 0, 94, 0
1, 40130, Note_on_c, 0, 85, 0
1, 40192, Control_c, 0, 64, 0
1, 40196, Note_on_c, 0, 80, 78
1, 40196, Note_on_c, 0, 71, 61
1, 40237, Note_on_c, 0, 71, 0
1, 40259, Note_on_c, 0, 80, 0
1, 40311, Note_on_c, 0, 70, 57
1, 40311, Note_on_c, 0, 78, 68
1, 40348, Note_on_c, 0, 78, 0
1, 40353, Note_on_c, 0, 70, 0
1, 40434, Note_on_c, 0, 68, 58
1, 40443, Note_on_c, 0, 77, 72
1, 40478, Note_on_c, 0, 68, 0
1, 40482, Note_on_c, 0, 77, 0
1, 40557, Note_on_c, 0, 70, 69
1, 40557, Note_on_c, 0, 78, 71
1, 40588, Note_on_c, 0, 78, 0
1, 40591, Note_on_c, 0, 70, 0
1, 40673, Note_on_c, 0, 61, 47
1, 40702, Note_on_c, 0, 80, 65
1, 40726, Note_on_c, 0, 71, 62
1, 40741, Note_on_c, 0, 61, 0
1, 40802, Note_on_c, 0, 80, 0
1, 40816, Note_on_c, 0, 71, 0
1, 40827, Note_on_c, 0, 83, 43
1, 40827, Note_on_c, 0, 92, 20
1, 40827, Control_c, 0, 64, 127
1, 40879, Note_on_c, 0, 83, 0
1, 40879, Note_on_c, 0, 92, 0
1, 40936, Control_c, 0, 64, 0
1, 40950, Note_on_c, 0, 75, 44
1, 40954, Note_on_c, 0, 66, 31
1, 40994, Note_on_c, 0, 75, 0
1, 41008, Note_on_c, 0, 66, 0
1, 41047, Note_on_c, 0, 68, 62
1, 41061, Note_on_c, 0, 77, 65
1, 41078, Note_on_c, 0, 68, 0
1, 41091, Note_on_c, 0, 77, 0
1, 41152, Note_on_c, 0, 54, 70
1, 41186, Note_on_c, 0, 54, 0
1, 41211, Note_on_c, 0, 78, 65
1, 41248, Control_c, 0, 64, 127
1, 41248, Note_on_c, 0, 70, 57
1, 41325, Note_on_c, 0, 78, 0
1, 41336, Note_on_c, 0, 70, 0
1, 41348, Note_on_c, 0, 82, 53
1, 41348, Note_on_c, 0, 90, 50
1, 41392, Note_on_c, 0, 82, 0
1, 41398, Note_on_c, 0, 90, 0
1, 41440, Note_on_c, 0, 66, 74
1, 41529, Note_on_c, 0, 66, 0
1, 41552, Note_on_c, 0, 78, 76
1, 41606, Note_on_c, 0, 78, 0
1, 41620, Control_c, 0, 64, 0
1, 41671, Note_on_c, 0, 67, 76
1, 41730, Note_on_c, 0, 67, 0
1, 41766, Note_on_c, 0, 79, 94
1, 41797, Note_on_c, 0, 79, 0
1, 41835, Control_c, 0, 64, 127
1, 41886, Note_on_c, 0, 68, 84
1, 41919, Control_c, 0, 64, 0
1, 41947, Note_on_c, 0, 68, 0
1, 41991, Note_on_c, 0, 80, 73
1, 42027, Note_on_c, 0, 80, 0
1, 42114, Note_on_c, 0, 92, 72
1, 42114, Note_on_c, 0, 68, 50
1, 42145, Note_on_c, 0, 64, 39
1, 42150, Note_on_c, 0, 92, 0
1, 42161, Note_on_c, 0, 68, 0
1, 42187, Note_on_c, 0, 64, 0
1, 42217, Note_on_c, 0, 80, 69
1, 42265, Note_on_c, 0, 80, 0
1, 42346, Note_on_c, 0, 68, 43
1, 42350, Note_on_c, 0, 92, 59
1, 42350, Note_on_c, 0, 63, 46
1, 42389, Note_on_c, 0, 92, 0
1, 42393, Note_on_c, 0, 63, 0
1, 42404, Note_on_c, 0, 68, 0
1, 42457, Note_on_c, 0, 78, 66
1, 42502, Note_on_c, 0, 78, 0
1, 42582, Note_on_c, 0, 92, 68
1, 42601, Note_on_c, 0, 61, 39
1, 42601, Note_on_c, 0, 68, 34
1, 42618, Note_on_c, 0, 92, 0
1, 42654, Note_on_c, 0, 61, 0
1, 42666, Note_on_c, 0, 68, 0
1, 42693, Note_on_c, 0, 76, 52
1, 42697, Control_c, 0, 64, 127
1, 42730, Note_on_c, 0, 76, 0
1, 42818, Control_c, 0, 64, 0
1, 42841, Note_on_c, 0, 102, 77
1, 42861, Note_on_c, 0, 75, 47
1, 42869, Note_on_c, 0, 102, 0
1, 42914, Note_on_c, 0, 75, 0
1, 42969, Note_on_c, 0, 80, 72
1, 42999, Note_on_c, 0, 80, 0
1, 43106, Note_on_c, 0, 100, 62
1, 43114, Note_on_c, 0, 73, 48
1, 43137, Note_on_c, 0, 100, 0
1, 43151, Note_on_c, 0, 73, 0
1, 43219, Note_on_c, 0, 80, 72
1, 43250, Note_on_c, 0, 80, 0
1, 43250, Control_c, 0, 64, 127
1, 43254, Note_on_c, 0, 56, 66
1, 43287, Note_on_c, 0, 56, 0
1, 43332, Control_c, 0, 64, 0
1, 43339, Note_on_c, 0, 99, 72
1, 43364, Note_on_c, 0, 99, 0
1, 43364, Note_on_c, 0, 97, 42
1, 43379, Note_on_c, 0, 72, 59
1, 43399, Note_on_c, 0, 97, 0
1, 43448, Note_on_c, 0, 72, 0
1, 43453, Note_on_c, 0, 80, 72
1, 43487, Note_on_c, 0, 80, 0
1, 43577, Note_on_c, 0, 97, 69
1, 43582, Note_on_c, 0, 70, 55
1, 43615, Note_on_c, 0, 97, 0
1, 43635, Note_on_c, 0, 70, 0
1, 43679, Note_on_c, 0, 80, 70
1, 43710, Note_on_c, 0, 80, 0
1, 43802, Note_on_c, 0, 99, 76
1, 43808, Note_on_c, 0, 72, 56
1, 43827, Note_on_c, 0, 99, 0
1, 43843, Note_on_c, 0, 72, 0
1, 43900, Note_on_c, 0, 80, 68
1, 43935, Note_on_c, 0, 80, 0
1, 43950, Note_on_c, 0, 61, 39
1, 44003, Note_on_c, 0, 61, 0
1, 44039, Note_on_c, 0, 100, 54
1, 44039, Note_on_c, 0, 73, 44
1, 44075, Note_on_c, 0, 100, 0
1, 44105, Note_on_c, 0, 73, 0
1, 44161, Note_on_c, 0, 80, 36
1, 44209, Note_on_c, 0, 80, 0
1, 44270, Note_on_c, 0, 97, 66
1, 44287, Note_on_c, 0, 76, 49
1, 44311, Note_on_c, 0, 97, 0
1, 44328, Note_on_c, 0, 76, 0
1, 44399, Note_on_c, 0, 80, 64
1, 44432, Note_on_c, 0, 80, 0
1, 44510, Note_on_c, 0, 67, 53
1, 44552, Note_on_c, 0, 67, 0
1, 44616, Note_on_c, 0, 79, 61
1, 44651, Note_on_c, 0, 79, 0
1, 44711, Control_c, 0, 64, 127
1, 44730, Note_on_c, 0, 66, 72
1, 44760, Note_on_c, 0, 66, 0
1, 44832, Control_c, 0, 64, 0
1, 44842, Note_on_c, 0, 78, 62
1, 44874, Note_on_c, 0, 78, 0
1, 44947, Note_on_c, 0, 66, 50
1, 44958, Note_on_c, 0, 63, 56
1, 44958, Note_on_c, 0, 90, 70
1, 44994, Note_on_c, 0, 66, 0
1, 45008, Note_on_c, 0, 90, 0
1, 45016, Note_on_c, 0, 63, 0
1, 45053, Note_on_c, 0, 78, 76
1, 45094, Note_on_c, 0, 78, 0
1, 45170, Note_on_c, 0, 61, 53
1, 45170, Note_on_c, 0, 66, 45
1, 45176, Note_on_c, 0, 90, 67
1, 45217, Note_on_c, 0, 61, 0
1, 45220, Note_on_c, 0, 66, 0
1, 45223, Note_on_c, 0, 90, 0
1, 45276, Note_on_c, 0, 76, 62
1, 45310, Note_on_c, 0, 76, 0
1, 45385, Note_on_c, 0, 90, 79
1, 45401, Note_on_c, 0, 66, 40
1, 45410, Note_on_c, 0, 59, 29
1, 45421, Note_on_c, 0, 90, 0
1, 45456, Note_on_c, 0, 66, 0
1, 45456, Note_on_c, 0, 59, 0
1, 45477, Note_on_c, 0, 75, 70
1, 45512, Note_on_c, 0, 75, 0
1, 45526, Control_c, 0, 64, 127
1, 45633, Control_c, 0, 64, 0
1, 45640, Note_on_c, 0, 100, 73
1, 45654, Note_on_c, 0, 73, 39
1, 45666, Note_on_c, 0, 100, 0
1, 45702, Note_on_c, 0, 73, 0
1, 45760, Note_on_c, 0, 78, 76
1, 45793, Note_on_c, 0, 78, 0
1, 45889, Note_on_c, 0, 71, 63
1, 45897, Note_on_c, 0, 99, 75
1, 45922, Note_on_c, 0, 99, 0
1, 45927, Note_on_c, 0, 71, 0
1, 46014, Note_on_c, 0, 78, 61
1, 46030, Note_on_c, 0, 54, 75
1, 46030, Control_c, 0, 64, 127
1, 46048, Note_on_c, 0, 78, 0
1, 46067, Note_on_c, 0, 54, 0
1, 46114, Control_c, 0, 64, 0
1, 46133, Note_on_c, 0, 97, 72
1, 46156, Note_on_c, 0, 70, 62
1, 46162, Note_on_c, 0, 97, 0
1, 46246, Note_on_c, 0, 70, 0
1, 46259, Note_on_c, 0, 78, 51
1, 46300, Note_on_c, 0, 78, 0
1, 46367, Note_on_c, 0, 68, 56
1, 46371, Note_on_c, 0, 95, 69
1, 46401, Note_on_c, 0, 95, 0
1, 46413, Note_on_c, 0, 68, 0
1, 46468, Note_on_c, 0, 78, 71
1, 46504, Note_on_c, 0, 78, 0
1, 46571, Note_on_c, 0, 70, 57
1, 46593, Note_on_c, 0, 97, 64
1, 46607, Note_on_c, 0, 70, 0
1, 46624, Note_on_c, 0, 97, 0
1, 46680, Note_on_c, 0, 78, 78
1, 46713, Note_on_c, 0, 78, 0
1, 46738, Note_on_c, 0, 59, 43
1, 46782, Note_on_c, 0, 59, 0
1, 46797, Control_c, 0, 64, 127
1, 46816, Note_on_c, 0, 99, 83
1, 46839, Note_on_c, 0, 99, 0
1, 46846, Note_on_c, 0, 71, 52
1, 46897, Note_on_c, 0, 71, 0
1, 46970, Note_on_c, 0, 78, 28
1, 47012, Control_c, 0, 64, 0
1, 47022, Note_on_c, 0, 78, 0
1, 47070, Note_on_c, 0, 75, 61
1, 47080, Note_on_c, 0, 95, 65
1, 47103, Note_on_c, 0, 75, 0
1, 47112, Note_on_c, 0, 95, 0
1, 47190, Note_on_c, 0, 78, 66
1, 47225, Note_on_c, 0, 78, 0
1, 47304, Note_on_c, 0, 62, 45
1, 47346, Note_on_c, 0, 62, 0
1, 47379, Note_on_c, 0, 74, 61
1, 47410, Note_on_c, 0, 74, 0
1, 47510, Note_on_c, 0, 63, 73
1, 47541, Note_on_c, 0, 63, 0
1, 47611, Note_on_c, 0, 75, 55
1, 47644, Note_on_c, 0, 75, 0
1, 47725, Note_on_c, 0, 63, 62
1, 47725, Note_on_c, 0, 55, 58
1, 47736, Note_on_c, 0, 87, 62
1, 47764, Note_on_c, 0, 63, 0
1, 47769, Note_on_c, 0, 87, 0
1, 47782, Note_on_c, 0, 55, 0
1, 47814, Note_on_c, 0, 75, 69
1, 47863, Note_on_c, 0, 75, 0
1, 47936, Note_on_c, 0, 56, 67
1, 47939, Note_on_c, 0, 87, 70
1, 47944, Note_on_c, 0, 65, 59
1, 47991, Note_on_c, 0, 65, 0
1, 48003, Note_on_c, 0, 87, 0
1, 48026, Note_on_c, 0, 56, 0
1, 48026, Note_on_c, 0, 74, 78
1, 48061, Note_on_c, 0, 74, 0
1, 48140, Note_on_c, 0, 87, 83
1, 48147, Note_on_c, 0, 67, 80
1, 48147, Note_on_c, 0, 58, 72
1, 48200, Note_on_c, 0, 67, 0
1, 48223, Note_on_c, 0, 87, 0
1, 48229, Note_on_c, 0, 58, 0
1, 48234, Note_on_c, 0, 73, 76
1, 48301, Note_on_c, 0, 73, 0
1, 48356, Note_on_c, 0, 87, 73
1, 48360, Note_on_c, 0, 67, 73
1, 48363, Note_on_c, 0, 58, 64
1, 48396, Note_on_c, 0, 67, 0
1, 48399, Note_on_c, 0, 58, 0
1, 48421, Note_on_c, 0, 87, 0
1, 48441, Note_on_c, 0, 73, 72
1, 48485, Note_on_c, 0, 73, 0
1, 48552, Note_on_c, 0, 68, 75
1, 48555, Note_on_c, 0, 87, 77
1, 48558, Note_on_c, 0, 59, 69
1, 48583, Note_on_c, 0, 87, 0
1, 48590, Note_on_c, 0, 68, 0
1, 48590, Note_on_c, 0, 59, 0
1, 48619, Note_on_c, 0, 85, 18
1, 48644, Note_on_c, 0, 71, 78
1, 48668, Note_on_c, 0, 85, 0
1, 48677, Note_on_c, 0, 71, 0
1, 48771, Note_on_c, 0, 88, 87
1, 48780, Note_on_c, 0, 70, 59
1, 48780, Note_on_c, 0, 76, 71
1, 48789, Note_on_c, 0, 61, 56
1, 48805, Note_on_c, 0, 88, 0
1, 48814, Note_on_c, 0, 76, 0
1, 48883, Note_on_c, 0, 87, 73
1, 48883, Note_on_c, 0, 82, 72
1, 48891, Note_on_c, 0, 70, 0
1, 48913, Note_on_c, 0, 87, 0
1, 48917, Note_on_c, 0, 82, 0
1, 48923, Note_on_c, 0, 61, 0
1, 48942, Control_c, 0, 64, 127
1, 48991, Control_c, 0, 64, 0
1, 49000, Note_on_c, 0, 73, 82
1, 49009, Note_on_c, 0, 85, 72
1, 49030, Note_on_c, 0, 73, 0
1, 49042, Note_on_c, 0, 85, 0
1, 49106, Note_on_c, 0, 83, 96
1, 49112, Note_on_c, 0, 76, 60
1, 49132, Note_on_c, 0, 83, 0
1, 49148, Note_on_c, 0, 76, 0
1, 49221, Note_on_c, 0, 62, 39
1, 49225, Note_on_c, 0, 65, 30
1, 49225, Note_on_c, 0, 71, 64
1, 49235, Note_on_c, 0, 82, 32
1, 49268, Note_on_c, 0, 71, 0
1, 49268, Note_on_c, 0, 62, 0
1, 49268, Note_on_c, 0, 65, 0
1, 49293, Note_on_c, 0, 82, 0
1, 49317, Note_on_c, 0, 80, 72
1, 49323, Note_on_c, 0, 77, 25
1, 49371, Note_on_c, 0, 77, 0
1, 49391, Note_on_c, 0, 80, 0
1, 49435, Note_on_c, 0, 70, 60
1, 49440, Note_on_c, 0, 79, 71
1, 49451, Note_on_c, 0, 67, 36
1, 49455, Note_on_c, 0, 63, 39
1, 49471, Note_on_c, 0, 70, 0
1, 49479, Note_on_c, 0, 79, 0
1, 49535, Note_on_c, 0, 82, 62
1, 49547, Note_on_c, 0, 75, 44
1, 49580, Note_on_c, 0, 82, 0
1, 49590, Note_on_c, 0, 75, 0
1, 49590, Note_on_c, 0, 63, 0
1, 49602, Note_on_c, 0, 67, 0
1, 49644, Note_on_c, 0, 79, 61
1, 49657, Note_on_c, 0, 83, 71
1, 49694, Note_on_c, 0, 83, 0
1, 49700, Note_on_c, 0, 79, 0
1, 49753, Note_on_c, 0, 75, 39
1, 49753, Note_on_c, 0, 82, 48
1, 49803, Note_on_c, 0, 75, 0
1, 49803, Note_on_c, 0, 82, 0
1, 49861, Note_on_c, 0, 74, 61
1, 49897, Note_on_c, 0, 74, 0
1, 49961, Note_on_c, 0, 86, 86
1, 49987, Note_on_c, 0, 86, 0
1, 50079, Note_on_c, 0, 75, 75
1, 50118, Note_on_c, 0, 75, 0
1, 50184, Note_on_c, 0, 87, 56
1, 50201, Control_c, 0, 64, 127
1, 50215, Note_on_c, 0, 87, 0
1, 50237, Control_c, 0, 64, 0
1, 50301, Note_on_c, 0, 99, 46
1, 50307, Note_on_c, 0, 75, 54
1, 50313, Note_on_c, 0, 67, 46
1, 50327, Note_on_c, 0, 97, 25
1, 50337, Note_on_c, 0, 99, 0
1, 50349, Note_on_c, 0, 75, 0
1, 50360, Note_on_c, 0, 67, 0
1, 50382, Note_on_c, 0, 97, 0
1, 50382, Note_on_c, 0, 87, 57
1, 50429, Note_on_c, 0, 87, 0
1, 50518, Note_on_c, 0, 99, 64
1, 50522, Note_on_c, 0, 77, 47
1, 50529, Note_on_c, 0, 68, 28
1, 50555, Note_on_c, 0, 99, 0
1, 50579, Note_on_c, 0, 77, 0
1, 50594, Note_on_c, 0, 68, 0
1, 50605, Note_on_c, 0, 86, 43
1, 50647, Note_on_c, 0, 86, 0
1, 50716, Note_on_c, 0, 79, 76
1, 50716, Note_on_c, 0, 99, 74
1, 50722, Note_on_c, 0, 70, 54
1, 50753, Note_on_c, 0, 99, 0
1, 50772, Note_on_c, 0, 79, 0
1, 50780, Note_on_c, 0, 70, 0
1, 50806, Note_on_c, 0, 85, 73
1, 50855, Note_on_c, 0, 85, 0
1, 50926, Note_on_c, 0, 99, 79
1, 50929, Note_on_c, 0, 79, 74
1, 50929, Note_on_c, 0, 70, 61
1, 50964, Note_on_c, 0, 99, 0
1, 50969, Note_on_c, 0, 70, 0
1, 50969, Note_on_c, 0, 79, 0
1, 51011, Note_on_c, 0, 85, 79
1, 51055, Note_on_c, 0, 85, 0
1, 51123, Note_on_c, 0, 80, 78
1, 51126, Note_on_c, 0, 99, 86
1, 51136, Note_on_c, 0, 71, 59
1, 51156, Note_on_c, 0, 80, 0
1, 51176, Note_on_c, 0, 99, 0
1, 51176, Note_on_c, 0, 71, 0
1, 51221, Note_on_c, 0, 83, 96
1, 51249, Note_on_c, 0, 83, 0
1, 51334, Note_on_c, 0, 100, 88
1, 51337, Note_on_c, 0, 88, 69
1, 51354, Note_on_c, 0, 81, 64
1, 51360, Note_on_c, 0, 100, 0
1, 51360, Note_on_c, 0, 73, 41
1, 51373, Note_on_c, 0, 88, 0
1, 51413, Note_on_c, 0, 81, 0
1, 51435, Note_on_c, 0, 99, 73
1, 51435, Note_on_c, 0, 93, 64
1, 51458, Note_on_c, 0, 73, 0
1, 51462, Note_on_c, 0, 99, 0
1, 51472, Note_on_c, 0, 93, 0
1, 51519, Control_c, 0, 64, 127
1, 51549, Note_on_c, 0, 85, 83
1, 51561, Note_on_c, 0, 97, 55
1, 51579, Note_on_c, 0, 85, 0
1, 51596, Note_on_c, 0, 97, 0
1, 51602, Control_c, 0, 64, 0
1, 51649, Note_on_c, 0, 88, 67
1, 51649, Note_on_c, 0, 95, 70
1, 51680, Note_on_c, 0, 95, 0
1, 51697, Note_on_c, 0, 88, 0
1, 51764, Note_on_c, 0, 83, 101
1, 51764, Note_on_c, 0, 93, 67
1, 51775, Note_on_c, 0, 77, 43
1, 51785, Note_on_c, 0, 74, 36
1, 51809, Note_on_c, 0, 83, 0
1, 51814, Note_on_c, 0, 77, 0
1, 51819, Note_on_c, 0, 93, 0
1, 51831, Note_on_c, 0, 74, 0
1, 51875, Note_on_c, 0, 92, 69
1, 51883, Note_on_c, 0, 89, 57
1, 51920, Note_on_c, 0, 89, 0
1, 51926, Note_on_c, 0, 92, 0
1, 51987, Note_on_c, 0, 82, 60
1, 51995, Note_on_c, 0, 91, 70
1, 52000, Note_on_c, 0, 79, 52
1, 52000, Note_on_c, 0, 75, 38
1, 52026, Note_on_c, 0, 82, 0
1, 52048, Note_on_c, 0, 75, 0
1, 52053, Note_on_c, 0, 91, 0
1, 52062, Note_on_c, 0, 79, 0
1, 52107, Note_on_c, 0, 94, 52
1, 52123, Note_on_c, 0, 87, 35
1, 52154, Control_c, 0, 64, 127
1, 52164, Note_on_c, 0, 87, 0
1, 52217, Note_on_c, 0, 94, 0
1, 52231, Note_on_c, 0, 74, 61
1, 52265, Note_on_c, 0, 74, 0
1, 52325, Note_on_c, 0, 86, 63
1, 52368, Note_on_c, 0, 86, 0
1, 52430, Note_on_c, 0, 75, 55
1, 52441, Control_c, 0, 64, 0
1, 52482, Note_on_c, 0, 75, 0
1, 52529, Note_on_c, 0, 87, 62
1, 52583, Note_on_c, 0, 87, 0
1, 52641, Note_on_c, 0, 99, 67
1, 52728, Note_on_c, 0, 99, 0
1, 52739, Note_on_c, 0, 87, 53
1, 52786, Note_on_c, 0, 87, 0
1, 52850, Note_on_c, 0, 75, 60
1, 52897, Note_on_c, 0, 75, 0
1, 52955, Note_on_c, 0, 87, 40
1, 53012, Note_on_c, 0, 87, 0
1, 53082, Note_on_c, 0, 76, 45
1, 53125, Note_on_c, 0, 76, 0
1, 53189, Note_on_c, 0, 88, 47
1, 53234, Note_on_c, 0, 88, 0
1, 53290, Note_on_c, 0, 99, 55
1, 53374, Note_on_c, 0, 99, 0
1, 53391, Note_on_c, 0, 87, 51
1, 53441, Note_on_c, 0, 87, 0
1, 53497, Note_on_c, 0, 76, 44
1, 53554, Note_on_c, 0, 76, 0
1, 53599, Note_on_c, 0, 88, 34
1, 53647, Note_on_c, 0, 88, 0
1, 53722, Note_on_c, 0, 77, 36
1, 53761, Note_on_c, 0, 77, 0
1, 53825, Note_on_c, 0, 89, 32
1, 53883, Note_on_c, 0, 89, 0
1, 53926, Note_on_c, 0, 99, 52
1, 53992, Note_on_c, 0, 99, 0
1, 54031, Note_on_c, 0, 87, 44
1, 54078, Note_on_c, 0, 87, 0
1, 54137, Note_on_c, 0, 78, 45
1, 54185, Note_on_c, 0, 78, 0
1, 54242, Note_on_c, 0, 90, 54
1, 54299, Note_on_c, 0, 90, 0
1, 54368, Note_on_c, 0, 99, 63
1, 54469, Note_on_c, 0, 99, 0
1, 54469, Note_on_c, 0, 87, 54
1, 54516, Note_on_c, 0, 87, 0
1, 54572, Note_on_c, 0, 79, 59
1, 54624, Note_on_c, 0, 79, 0
1, 54686, Note_on_c, 0, 91, 55
1, 54728, Note_on_c, 0, 91, 0
1, 54797, Note_on_c, 0, 99, 65
1, 54886, Note_on_c, 0, 99, 0
1, 54931, Note_on_c, 0, 87, 25
1, 54987, Note_on_c, 0, 87, 0
1, 54993, Note_on_c, 0, 80, 49
1, 55045, Note_on_c, 0, 80, 0
1, 55098, Note_on_c, 0, 92, 58
1, 55135, Note_on_c, 0, 92, 0
1, 55241, Note_on_c, 0, 99, 76
1, 55305, Control_c, 0, 64, 127
1, 55323, Note_on_c, 0, 99, 0
1, 55352, Note_on_c, 0, 81, 63
1, 55436, Note_on_c, 0, 81, 0
1, 55483, Note_on_c, 0, 99, 77
1, 55553, Note_on_c, 0, 99, 0
1, 55575, Note_on_c, 0, 82, 64
1, 55646, Note_on_c, 0, 82, 0
1, 55686, Note_on_c, 0, 99, 81
1, 55766, Note_on_c, 0, 99, 0
1, 55777, Note_on_c, 0, 83, 98
1, 55786, Control_c, 0, 64, 0
1, 55884, Note_on_c, 0, 99, 81
1, 55894, Note_on_c, 0, 83, 0
1, 55975, Note_on_c, 0, 99, 0
1, 55989, Control_c, 0, 64, 127
1, 55997, Note_on_c, 0, 84, 79
1, 56076, Note_on_c, 0, 84, 0
1, 56095, Note_on_c, 0, 99, 78
1, 56179, Note_on_c, 0, 99, 0
1, 56193, Control_c, 0, 64, 0
1, 56207, Note_on_c, 0, 85, 62
1, 56251, Note_on_c, 0, 85, 0
1, 56312, Note_on_c, 0, 99, 68
1, 56337, Control_c, 0, 64, 127
1, 56368, Note_on_c, 0, 99, 0
1, 56405, Note_on_c, 0, 86, 63
1, 56458, Note_on_c, 0, 86, 0
1, 56493, Control_c, 0, 64, 0
1, 56544, Note_on_c, 0, 99, 65
1, 56653, Note_on_c, 0, 87, 47
1, 56658, Note_on_c, 0, 99, 0
1, 56752, Note_on_c, 0, 87, 0
1, 56786, Note_on_c, 0, 99, 51
1, 56792, Control_c, 0, 64, 127
1, 56842, Note_on_c, 0, 99, 0
1, 56889, Note_on_c, 0, 87, 39
1, 56942, Note_on_c, 0, 87, 0
1, 57009, Note_on_c, 0, 99, 46
1, 57057, Note_on_c, 0, 99, 0
1, 57110, Note_on_c, 0, 87, 39
1, 57163, Note_on_c, 0, 87, 0
1, 57232, Note_on_c, 0, 99, 47
1, 57290, Note_on_c, 0, 99, 0
1, 57338, Note_on_c, 0, 87, 41
1, 57388, Note_on_c, 0, 87, 0
1, 57449, Note_on_c, 0, 99, 46
1, 57497, Note_on_c, 0, 99, 0
1, 57546, Note_on_c, 0, 87, 35
1, 57600, Note_on_c, 0, 87, 0
1, 57667, Note_on_c, 0, 99, 51
1, 57739, Note_on_c, 0, 99, 0
1, 57764, Control_c, 0, 64, 0
1, 57764, Note_on_c, 0, 87, 43
1, 57822, Note_on_c, 0, 87, 0
1, 57878, Note_on_c, 0, 99, 65
1, 57906, Note_on_c, 0, 99, 0
1, 57918, Control_c, 0, 64, 127
1, 58001, Note_on_c, 0, 87, 52
1, 58056, Note_on_c, 0, 87, 0
1, 58137, Note_on_c, 0, 75, 52
1, 58176, Note_on_c, 0, 75, 0
1, 58240, Note_on_c, 0, 87, 44
1, 58277, Note_on_c, 0, 87, 0
1, 58365, Note_on_c, 0, 99, 65
1, 58394, Note_on_c, 0, 99, 0
1, 58466, Note_on_c, 0, 87, 63
1, 58533, Note_on_c, 0, 87, 0
1, 58619, Note_on_c, 0, 75, 49
1, 58655, Note_on_c, 0, 75, 0
1, 58733, Note_on_c, 0, 87, 37
1, 58772, Note_on_c, 0, 87, 0
1, 58848, Note_on_c, 0, 99, 49
1, 58884, Note_on_c, 0, 99, 0
1, 58960, Note_on_c, 0, 87, 43
1, 59003, Note_on_c, 0, 87, 0
1, 59085, Note_on_c, 0, 75, 32
1, 59090, Note_on_c, 0, 63, 43
1, 59140, Note_on_c, 0, 75, 0
1, 59152, Note_on_c, 0, 63, 0
1, 59174, Note_on_c, 0, 87, 48
1, 59210, Note_on_c, 0, 87, 0
1, 59297, Control_c, 0, 64, 0
1, 59300, Note_on_c, 0, 75, 77
1, 59305, Note_on_c, 0, 99, 55
1, 59341, Note_on_c, 0, 99, 0
1, 59349, Note_on_c, 0, 75, 0
1, 59418, Note_on_c, 0, 87, 45
1, 59488, Note_on_c, 0, 87, 0
1, 59533, Note_on_c, 0, 75, 70
1, 59567, Note_on_c, 0, 75, 0
1, 59627, Note_on_c, 0, 87, 52
1, 59662, Note_on_c, 0, 87, 0
1, 59753, Note_on_c, 0, 73, 46
1, 59770, Note_on_c, 0, 99, 17
1, 59795, Note_on_c, 0, 73, 0
1, 59815, Note_on_c, 0, 99, 0
1, 59843, Note_on_c, 0, 87, 57
1, 59892, Note_on_c, 0, 56, 35
1, 59948, Note_on_c, 0, 56, 0
1, 59962, Note_on_c, 0, 87, 0
1, 59968, Note_on_c, 0, 71, 83
1, 59968, Note_on_c, 0, 75, 57
1, 60001, Note_on_c, 0, 75, 0
1, 60010, Note_on_c, 0, 71, 0
1, 60079, Note_on_c, 0, 87, 53
1, 60113, Note_on_c, 0, 87, 0
1, 60190, Note_on_c, 0, 99, 68
1, 60204, Note_on_c, 0, 71, 78
1, 60218, Note_on_c, 0, 99, 0
1, 60257, Note_on_c, 0, 71, 0
1, 60297, Note_on_c, 0, 87, 67
1, 60371, Note_on_c, 0, 87, 0
1, 60410, Note_on_c, 0, 75, 66
1, 60410, Note_on_c, 0, 70, 63
1, 60446, Note_on_c, 0, 75, 0
1, 60477, Note_on_c, 0, 70, 0
1, 60514, Note_on_c, 0, 87, 65
1, 60545, Note_on_c, 0, 87, 0
1, 60617, Note_on_c, 0, 68, 57
1, 60636, Note_on_c, 0, 59, 46
1, 60650, Note_on_c, 0, 99, 21
1, 60675, Note_on_c, 0, 68, 0
1, 60675, Note_on_c, 0, 59, 0
1, 60700, Note_on_c, 0, 99, 0
1, 60734, Note_on_c, 0, 87, 57
1, 60798, Note_on_c, 0, 87, 0
1, 60840, Note_on_c, 0, 67, 70
1, 60847, Note_on_c, 0, 75, 58
1, 60884, Note_on_c, 0, 67, 0
1, 60884, Note_on_c, 0, 75, 0
1, 60951, Note_on_c, 0, 87, 52
1, 60985, Note_on_c, 0, 87, 0
1, 61057, Note_on_c, 0, 68, 48
1, 61060, Note_on_c, 0, 99, 67
1, 61088, Note_on_c, 0, 99, 0
1, 61110, Note_on_c, 0, 68, 0
1, 61163, Note_on_c, 0, 87, 58
1, 61257, Note_on_c, 0, 87, 0
1, 61277, Note_on_c, 0, 75, 68
1, 61277, Note_on_c, 0, 70, 64
1, 61293, Note_on_c, 0, 67, 40
1, 61313, Note_on_c, 0, 75, 0
1, 61372, Note_on_c, 0, 87, 56
1, 61372, Note_on_c, 0, 67, 0
1, 61410, Note_on_c, 0, 87, 0
1, 61432, Note_on_c, 0, 70, 0
1, 61499, Note_on_c, 0, 99, 67
1, 61506, Note_on_c, 0, 63, 62
1, 61527, Note_on_c, 0, 99, 0
1, 61538, Note_on_c, 0, 63, 0
1, 61606, Note_on_c, 0, 87, 63
1, 61686, Note_on_c, 0, 87, 0
1, 61717, Note_on_c, 0, 63, 75
1, 61726, Note_on_c, 0, 75, 61
1, 61762, Note_on_c, 0, 75, 0
1, 61768, Note_on_c, 0, 63, 0
1, 61826, Note_on_c, 0, 87, 60
1, 61856, Note_on_c, 0, 87, 0
1, 61942, Note_on_c, 0, 64, 83
1, 61946, Note_on_c, 0, 99, 55
1, 61949, Note_on_c, 0, 55, 67
1, 61981, Note_on_c, 0, 99, 0
1, 61990, Note_on_c, 0, 55, 0
1, 62032, Note_on_c, 0, 64, 0
1, 62049, Note_on_c, 0, 87, 57
1, 62149, Note_on_c, 0, 87, 0
1, 62165, Note_on_c, 0, 75, 55
1, 62171, Note_on_c, 0, 63, 68
1, 62202, Note_on_c, 0, 75, 0
1, 62241, Note_on_c, 0, 63, 0
1, 62268, Note_on_c, 0, 87, 58
1, 62300, Note_on_c, 0, 87, 0
1, 62386, Note_on_c, 0, 99, 58
1, 62392, Note_on_c, 0, 61, 65
1, 62419, Note_on_c, 0, 99, 0
1, 62432, Note_on_c, 0, 61, 0
1, 62483, Note_on_c, 0, 87, 59
1, 62589, Note_on_c, 0, 87, 0
1, 62600, Note_on_c, 0, 59, 47
1, 62604, Note_on_c, 0, 75, 55
1, 62608, Note_on_c, 0, 56, 40
1, 62645, Note_on_c, 0, 75, 0
1, 62655, Note_on_c, 0, 59, 0
1, 62687, Note_on_c, 0, 56, 0
1, 62709, Note_on_c, 0, 87, 53
1, 62742, Note_on_c, 0, 87, 0
1, 62820, Note_on_c, 0, 99, 60
1, 62828, Note_on_c, 0, 59, 83
1, 62851, Note_on_c, 0, 99, 0
1, 62917, Note_on_c, 0, 59, 0
1, 62917, Note_on_c, 0, 87, 58
1, 63026, Note_on_c, 0, 87, 0
1, 63034, Note_on_c, 0, 58, 66
1, 63043, Note_on_c, 0, 75, 61
1, 63082, Note_on_c, 0, 75, 0
1, 63129, Note_on_c, 0, 58, 0
1, 63138, Note_on_c, 0, 87, 67
1, 63171, Note_on_c, 0, 87, 0
1, 63258, Note_on_c, 0, 56, 60
1, 63261, Note_on_c, 0, 99, 48
1, 63282, Note_on_c, 0, 52, 52
1, 63299, Note_on_c, 0, 99, 0
1, 63333, Note_on_c, 0, 52, 0
1, 63360, Note_on_c, 0, 56, 0
1, 63360, Note_on_c, 0, 87, 56
1, 63427, Note_on_c, 0, 87, 0
1, 63481, Note_on_c, 0, 75, 52
1, 63488, Note_on_c, 0, 55, 67
1, 63520, Note_on_c, 0, 75, 0
1, 63530, Note_on_c, 0, 55, 0
1, 63589, Note_on_c, 0, 87, 54
1, 63622, Note_on_c, 0, 87, 0
1, 63697, Note_on_c, 0, 56, 54
1, 63712, Note_on_c, 0, 99, 46
1, 63751, Note_on_c, 0, 99, 0
1, 63767, Note_on_c, 0, 56, 0
1, 63801, Note_on_c, 0, 87, 62
1, 63898, Note_on_c, 0, 87, 0
1, 63920, Note_on_c, 0, 58, 40
1, 63948, Note_on_c, 0, 75, 40
1, 63968, Note_on_c, 0, 55, 34
1, 63993, Note_on_c, 0, 75, 0
1, 64026, Note_on_c, 0, 55, 0
1, 64055, Control_c, 0, 64, 127
1, 64062, Note_on_c, 0, 87, 34
1, 64104, Note_on_c, 0, 87, 0
1, 64119, Note_on_c, 0, 58, 0
1, 64279, Note_on_c, 0, 51, 43
1, 64327, Note_on_c, 0, 51, 0
1, 64327, Note_on_c, 0, 87, 58
1, 64374, Note_on_c, 0, 87, 0
1, 64455, Note_on_c, 0, 75, 64
1, 64492, Note_on_c, 0, 75, 0
1, 64569, Note_on_c, 0, 87, 58
1, 64576, Note_on_c, 0, 63, 63
1, 64600, Note_on_c, 0, 87, 0
1, 64626, Note_on_c, 0, 63, 0
1, 64630, Control_c, 0, 64, 0
1, 64673, Note_on_c, 0, 99, 70
1, 64690, Note_on_c, 0, 75, 79
1, 64700, Note_on_c, 0, 99, 0
1, 64764, Note_on_c, 0, 75, 0
1, 64779, Note_on_c, 0, 87, 61
1, 64882, Note_on_c, 0, 87, 0
1, 64906, Note_on_c, 0, 75, 78
1, 64945, Note_on_c, 0, 75, 0
1, 65002, Note_on_c, 0, 87, 66
1, 65040, Note_on_c, 0, 87, 0
1, 65129, Note_on_c, 0, 73, 62
1, 65129, Note_on_c, 0, 99, 66
1, 65158, Note_on_c, 0, 99, 0
1, 65161, Note_on_c, 0, 73, 0
1, 65227, Note_on_c, 0, 87, 60
1, 65257, Note_on_c, 0, 56, 71
1, 65302, Control_c, 0, 64, 127
1, 65313, Note_on_c, 0, 56, 0
1, 65344, Note_on_c, 0, 87, 0
1, 65361, Note_on_c, 0, 71, 91
1, 65361, Note_on_c, 0, 75, 59
1, 65386, Control_c, 0, 64, 0
1, 65397, Note_on_c, 0, 75, 0
1, 65444, Note_on_c, 0, 71, 0
1, 65466, Note_on_c, 0, 87, 50
1, 65503, Note_on_c, 0, 87, 0
1, 65584, Note_on_c, 0, 99, 68
1, 65587, Note_on_c, 0, 71, 95
1, 65612, Note_on_c, 0, 99, 0
1, 65658, Note_on_c, 0, 71, 0
1, 65698, Note_on_c, 0, 87, 52
1, 65792, Note_on_c, 0, 87, 0
1, 65800, Note_on_c, 0, 70, 70
1, 65807, Note_on_c, 0, 75, 57
1, 65840, Note_on_c, 0, 75, 0
1, 65849, Note_on_c, 0, 70, 0
1, 65904, Note_on_c, 0, 87, 67
1, 65937, Note_on_c, 0, 87, 0
1, 66024, Note_on_c, 0, 68, 57
1, 66032, Note_on_c, 0, 99, 46
1, 66035, Note_on_c, 0, 59, 46
1, 66071, Note_on_c, 0, 99, 0
1, 66071, Note_on_c, 0, 59, 0
1, 66077, Note_on_c, 0, 68, 0
1, 66127, Note_on_c, 0, 87, 64
1, 66229, Note_on_c, 0, 87, 0
1, 66252, Note_on_c, 0, 67, 60
1, 66252, Note_on_c, 0, 75, 60
1, 66285, Note_on_c, 0, 75, 0
1, 66293, Note_on_c, 0, 67, 0
1, 66350, Note_on_c, 0, 87, 58
1, 66385, Note_on_c, 0, 87, 0
1, 66470, Note_on_c, 0, 68, 47
1, 66473, Note_on_c, 0, 99, 70
1, 66498, Note_on_c, 0, 99, 0
1, 66519, Note_on_c, 0, 68, 0
1, 66578, Note_on_c, 0, 87, 58
1, 66679, Note_on_c, 0, 87, 0
1, 66679, Note_on_c, 0, 70, 42
1, 66706, Note_on_c, 0, 75, 44
1, 66714, Note_on_c, 0, 67, 22
1, 66748, Note_on_c, 0, 75, 0
1, 66789, Note_on_c, 0, 67, 0
1, 66801, Note_on_c, 0, 87, 52
1, 66801, Control_c, 0, 64, 127
1, 66820, Note_on_c, 0, 70, 0
1, 66838, Note_on_c, 0, 87, 0
1, 66927, Note_on_c, 0, 63, 41
1, 66943, Note_on_c, 0, 99, 47
1, 66980, Note_on_c, 0, 99, 0
1, 66991, Note_on_c, 0, 63, 0
1, 67054, Note_on_c, 0, 87, 60
1, 67101, Note_on_c, 0, 87, 0
1, 67166, Note_on_c, 0, 75, 65
1, 67244, Note_on_c, 0, 75, 0
1, 67255, Control_c, 0, 64, 0
1, 67274, Note_on_c, 0, 87, 48
1, 67335, Note_on_c, 0, 87, 0
1, 67369, Note_on_c, 0, 70, 68
1, 67374, Note_on_c, 0, 61, 73
1, 67374, Note_on_c, 0, 76, 69
1, 67377, Note_on_c, 0, 68, 57
1, 67409, Note_on_c, 0, 70, 0
1, 67412, Note_on_c, 0, 68, 0
1, 67428, Note_on_c, 0, 61, 0
1, 67428, Note_on_c, 0, 76, 0
1, 67497, Note_on_c, 0, 87, 42
1, 67558, Note_on_c, 0, 87, 0
1, 67581, Note_on_c, 0, 75, 66
1, 67581, Note_on_c, 0, 70, 62
1, 67597, Note_on_c, 0, 68, 47
1, 67606, Note_on_c, 0, 63, 44
1, 67622, Note_on_c, 0, 70, 0
1, 67636, Note_on_c, 0, 68, 0
1, 67647, Note_on_c, 0, 63, 0
1, 67659, Note_on_c, 0, 75, 0
1, 67686, Note_on_c, 0, 87, 44
1, 67734, Note_on_c, 0, 87, 0
1, 67785, Note_on_c, 0, 73, 64
1, 67785, Note_on_c, 0, 70, 59
1, 67809, Note_on_c, 0, 64, 42
1, 67812, Note_on_c, 0, 68, 35
1, 67828, Note_on_c, 0, 73, 0
1, 67828, Note_on_c, 0, 70, 0
1, 67848, Note_on_c, 0, 64, 0
1, 67860, Note_on_c, 0, 68, 0
1, 67907, Note_on_c, 0, 87, 36
1, 67957, Note_on_c, 0, 87, 0
1, 68019, Note_on_c, 0, 75, 64
1, 68029, Note_on_c, 0, 71, 48
1, 68043, Note_on_c, 0, 63, 31
1, 68049, Note_on_c, 0, 68, 25
1, 68101, Note_on_c, 0, 75, 0
1, 68130, Control_c, 0, 64, 127
1, 68144, Note_on_c, 0, 63, 0
1, 68154, Note_on_c, 0, 87, 42
1, 68160, Note_on_c, 0, 71, 0
1, 68191, Note_on_c, 0, 68, 0
1, 68246, Note_on_c, 0, 87, 0
1, 68264, Note_on_c, 0, 80, 61
1, 68285, Control_c, 0, 64, 0
1, 68313, Note_on_c, 0, 80, 0
1, 68378, Note_on_c, 0, 83, 89
1, 68408, Note_on_c, 0, 83, 0
1, 68495, Note_on_c, 0, 87, 73
1, 68573, Note_on_c, 0, 87, 0
1, 68584, Control_c, 0, 64, 127
1, 68606, Note_on_c, 0, 99, 76
1, 68631, Note_on_c, 0, 99, 0
1, 68768, Note_on_c, 0, 75, 52
1, 68785, Note_on_c, 0, 73, 31
1, 68813, Control_c, 0, 64, 0
1, 68813, Note_on_c, 0, 63, 22
1, 68823, Note_on_c, 0, 67, 24
1, 68885, Note_on_c, 0, 75, 0
1, 68893, Note_on_c, 0, 87, 47
1, 68940, Note_on_c, 0, 87, 0
1, 68940, Note_on_c, 0, 73, 0
1, 68968, Note_on_c, 0, 67, 0
1, 68980, Control_c, 0, 64, 127
1, 69005, Note_on_c, 0, 63, 0
1, 69016, Note_on_c, 0, 79, 52
1, 69063, Note_on_c, 0, 79, 0
1, 69077, Control_c, 0, 64, 0
1, 69116, Note_on_c, 0, 82, 54
1, 69150, Note_on_c, 0, 82, 0
1, 69249, Note_on_c, 0, 87, 47
1, 69302, Note_on_c, 0, 87, 0
1, 69384, Note_on_c, 0, 99, 41
1, 69431, Note_on_c, 0, 99, 0
1, 69497, Note_on_c, 0, 56, 31
1, 69531, Control_c, 0, 64, 127
1, 69567, Note_on_c, 0, 56, 0
1, 69636, Note_on_c, 0, 63, 31
1, 69701, Note_on_c, 0, 63, 0
1, 69763, Note_on_c, 0, 71, 54
1, 69801, Note_on_c, 0, 71, 0
1, 69899, Note_on_c, 0, 80, 58
1, 69957, Note_on_c, 0, 80, 0
1, 70029, Note_on_c, 0, 75, 49
1, 70066, Note_on_c, 0, 75, 0
1, 70132, Note_on_c, 0, 87, 43
1, 70168, Note_on_c, 0, 87, 0
1, 70208, Note_on_c, 0, 87, 63
1, 70260, Note_on_c, 0, 87, 0
1, 70308, Note_on_c, 0, 87, 65
1, 70342, Note_on_c, 0, 87, 0
1, 70378, Note_on_c, 0, 87, 77
1, 70442, Note_on_c, 0, 87, 0
1, 70478, Note_on_c, 0, 99, 60
1, 70508, Note_on_c, 0, 99, 0
1, 70582, Note_on_c, 0, 87, 68
1, 70614, Note_on_c, 0, 87, 0
1, 70667, Note_on_c, 0, 87, 41
1, 70706, Control_c, 0, 64, 0
1, 70718, Note_on_c, 0, 87, 0
1, 70723, Note_on_c, 0, 99, 57
1, 70753, Note_on_c, 0, 99, 0
1, 70826, Note_on_c, 0, 85, 65
1, 70856, Note_on_c, 0, 85, 0
1, 70904, Note_on_c, 0, 85, 54
1, 70958, Note_on_c, 0, 85, 0
1, 71008, Note_on_c, 0, 97, 22
1, 71061, Note_on_c, 0, 97, 0
1, 71102, Note_on_c, 0, 83, 95
1, 71113, Control_c, 0, 64, 127
1, 71113, Note_on_c, 0, 44, 25
1, 71133, Note_on_c, 0, 83, 0
1, 71186, Note_on_c, 0, 83, 78
1, 71196, Note_on_c, 0, 44, 0
1, 71233, Note_on_c, 0, 83, 0
1, 71292, Note_on_c, 0, 95, 42
1, 71338, Note_on_c, 0, 95, 0
1, 71411, Note_on_c, 0, 83, 85
1, 71422, Note_on_c, 0, 59, 25
1, 71442, Note_on_c, 0, 83, 0
1, 71453, Note_on_c, 0, 51, 2
1, 71475, Note_on_c, 0, 59, 0
1, 71489, Note_on_c, 0, 83, 85
1, 71508, Note_on_c, 0, 51, 0
1, 71528, Note_on_c, 0, 83, 0
1, 71561, Note_on_c, 0, 95, 71
1, 71592, Note_on_c, 0, 95, 0
1, 71670, Note_on_c, 0, 82, 68
1, 71670, Note_on_c, 0, 51, 32
1, 71676, Note_on_c, 0, 59, 30
1, 71699, Note_on_c, 0, 82, 0
1, 71728, Note_on_c, 0, 59, 0
1, 71734, Note_on_c, 0, 51, 0
1, 71740, Note_on_c, 0, 82, 65
1, 71795, Note_on_c, 0, 82, 0
1, 71810, Note_on_c, 0, 94, 51
1, 71845, Control_c, 0, 64, 0
1, 71845, Note_on_c, 0, 94, 0
1, 71919, Note_on_c, 0, 80, 53
1, 71919, Note_on_c, 0, 47, 36
1, 71957, Note_on_c, 0, 80, 0
1, 71980, Note_on_c, 0, 47, 0
1, 72002, Note_on_c, 0, 80, 56
1, 72024, Control_c, 0, 64, 127
1, 72038, Note_on_c, 0, 80, 0
1, 72075, Note_on_c, 0, 92, 32
1, 72133, Note_on_c, 0, 92, 0
1, 72161, Note_on_c, 0, 63, 38
1, 72172, Note_on_c, 0, 56, 32
1, 72172, Note_on_c, 0, 79, 72
1, 72210, Note_on_c, 0, 79, 0
1, 72216, Note_on_c, 0, 63, 0
1, 72227, Note_on_c, 0, 56, 0
1, 72270, Note_on_c, 0, 79, 46
1, 72327, Note_on_c, 0, 79, 0
1, 72337, Note_on_c, 0, 91, 40
1, 72394, Note_on_c, 0, 91, 0
1, 72408, Note_on_c, 0, 63, 47
1, 72412, Note_on_c, 0, 80, 79
1, 72422, Note_on_c, 0, 56, 31
1, 72440, Note_on_c, 0, 80, 0
1, 72454, Note_on_c, 0, 63, 0
1, 72476, Note_on_c, 0, 56, 0
1, 72495, Note_on_c, 0, 80, 55
1, 72542, Note_on_c, 0, 80, 0
1, 72561, Note_on_c, 0, 92, 56
1, 72576, Control_c, 0, 64, 0
1, 72596, Note_on_c, 0, 92, 0
1, 72648, Note_on_c, 0, 51, 45
1, 72667, Note_on_c, 0, 82, 59
1, 72696, Note_on_c, 0, 51, 0
1, 72701, Note_on_c, 0, 82, 0
1, 72738, Note_on_c, 0, 82, 66
1, 72743, Control_c, 0, 64, 127
1, 72801, Note_on_c, 0, 82, 0
1, 72810, Note_on_c, 0, 94, 60
1, 72840, Note_on_c, 0, 94, 0
1, 72940, Note_on_c, 0, 58, 19
1, 72943, Note_on_c, 0, 75, 69
1, 72943, Note_on_c, 0, 67, 26
1, 72971, Note_on_c, 0, 75, 0
1, 73004, Note_on_c, 0, 67, 0
1, 73011, Note_on_c, 0, 75, 62
1, 73022, Note_on_c, 0, 58, 0
1, 73058, Note_on_c, 0, 75, 0
1, 73082, Note_on_c, 0, 87, 55
1, 73114, Note_on_c, 0, 87, 0
1, 73185, Note_on_c, 0, 75, 68
1, 73192, Note_on_c, 0, 58, 31
1, 73197, Note_on_c, 0, 67, 34
1, 73214, Note_on_c, 0, 75, 0
1, 73253, Note_on_c, 0, 67, 0
1, 73253, Note_on_c, 0, 58, 0
1, 73263, Note_on_c, 0, 75, 51
1, 73314, Note_on_c, 0, 75, 0
1, 73323, Note_on_c, 0, 87, 59
1, 73358, Note_on_c, 0, 87, 0
1, 73367, Control_c, 0, 64, 0
1, 73439, Note_on_c, 0, 76, 68
1, 73439, Note_on_c, 0, 55, 32
1, 73468, Note_on_c, 0, 76, 0
1, 73492, Note_on_c, 0, 55, 0
1, 73509, Note_on_c, 0, 76, 61
1, 73536, Control_c, 0, 64, 127
1, 73553, Note_on_c, 0, 76, 0
1, 73579, Note_on_c, 0, 88, 69
1, 73612, Note_on_c, 0, 88, 0
1, 73684, Note_on_c, 0, 75, 78
1, 73693, Note_on_c, 0, 70, 27
1, 73712, Note_on_c, 0, 75, 0
1, 73718, Note_on_c, 0, 63, 24
1, 73745, Note_on_c, 0, 70, 0
1, 73754, Note_on_c, 0, 75, 69
1, 73768, Note_on_c, 0, 63, 0
1, 73815, Note_on_c, 0, 87, 66
1, 73815, Note_on_c, 0, 75, 0
1, 73843, Note_on_c, 0, 87, 0
1, 73905, Note_on_c, 0, 70, 43
1, 73916, Note_on_c, 0, 73, 71
1, 73924, Note_on_c, 0, 63, 49
1, 73943, Note_on_c, 0, 73, 0
1, 73951, Note_on_c, 0, 70, 0
1, 73960, Note_on_c, 0, 63, 0
1, 73991, Note_on_c, 0, 73, 52
1, 74047, Note_on_c, 0, 73, 0
1, 74047, Note_on_c, 0, 85, 69
1, 74077, Note_on_c, 0, 85, 0
1, 74136, Control_c, 0, 64, 0
1, 74164, Note_on_c, 0, 71, 75
1, 74180, Note_on_c, 0, 56, 36
1, 74197, Note_on_c, 0, 71, 0
1, 74238, Note_on_c, 0, 71, 87
1, 74269, Note_on_c, 0, 56, 0
1, 74269, Note_on_c, 0, 71, 0
1, 74302, Control_c, 0, 64, 127
1, 74306, Note_on_c, 0, 83, 94
1, 74334, Note_on_c, 0, 83, 0
1, 74401, Note_on_c, 0, 71, 80
1, 74411, Note_on_c, 0, 68, 36
1, 74433, Note_on_c, 0, 71, 0
1, 74439, Note_on_c, 0, 63, 29
1, 74456, Note_on_c, 0, 68, 0
1, 74470, Note_on_c, 0, 71, 88
1, 74487, Note_on_c, 0, 63, 0
1, 74526, Note_on_c, 0, 71, 0
1, 74542, Note_on_c, 0, 83, 93
1, 74570, Note_on_c, 0, 83, 0
1, 74628, Note_on_c, 0, 68, 54
1, 74645, Note_on_c, 0, 70, 72
1, 74663, Note_on_c, 0, 68, 0
1, 74668, Note_on_c, 0, 63, 15
1, 74674, Note_on_c, 0, 70, 0
1, 74710, Note_on_c, 0, 70, 67
1, 74713, Note_on_c, 0, 63, 0
1, 74770, Note_on_c, 0, 70, 0
1, 74776, Note_on_c, 0, 82, 66
1, 74807, Note_on_c, 0, 82, 0
1, 74841, Control_c, 0, 64, 0
1, 74863, Note_on_c, 0, 59, 41
1, 74880, Note_on_c, 0, 68, 70
1, 74910, Note_on_c, 0, 68, 0
1, 74935, Note_on_c, 0, 59, 0
1, 74943, Note_on_c, 0, 68, 75
1, 74997, Control_c, 0, 64, 127
1, 75025, Note_on_c, 0, 80, 47
1, 75025, Note_on_c, 0, 68, 0
1, 75064, Note_on_c, 0, 80, 0
1, 75117, Note_on_c, 0, 65, 36
1, 75120, Note_on_c, 0, 67, 78
1, 75124, Note_on_c, 0, 62, 42
1, 75152, Note_on_c, 0, 67, 0
1, 75160, Note_on_c, 0, 65, 0
1, 75166, Note_on_c, 0, 62, 0
1, 75194, Note_on_c, 0, 67, 67
1, 75231, Note_on_c, 0, 67, 0
1, 75270, Note_on_c, 0, 79, 34
1, 75323, Note_on_c, 0, 79, 0
1, 75333, Note_on_c, 0, 65, 43
1, 75337, Note_on_c, 0, 62, 54
1, 75370, Note_on_c, 0, 65, 0
1, 75375, Note_on_c, 0, 62, 0
1, 75411, Note_on_c, 0, 68, 74
1, 75454, Note_on_c, 0, 68, 0
1, 75495, Note_on_c, 0, 80, 56
1, 75525, Control_c, 0, 64, 0
1, 75531, Note_on_c, 0, 80, 0
1, 75582, Note_on_c, 0, 70, 70
1, 75582, Note_on_c, 0, 51, 46
1, 75613, Note_on_c, 0, 70, 0
1, 75663, Note_on_c, 0, 70, 45
1, 75691, Note_on_c, 0, 51, 0
1, 75715, Control_c, 0, 64, 127
1, 75721, Note_on_c, 0, 70, 0
1, 75732, Note_on_c, 0, 82, 52
1, 75768, Note_on_c, 0, 82, 0
1, 75812, Note_on_c, 0, 58, 48
1, 75812, Note_on_c, 0, 63, 67
1, 75812, Note_on_c, 0, 67, 42
1, 75843, Note_on_c, 0, 63, 0
1, 75852, Note_on_c, 0, 58, 0
1, 75869, Note_on_c, 0, 67, 0
1, 75911, Note_on_c, 0, 63, 50
1, 75947, Note_on_c, 0, 63, 0
1, 76010, Note_on_c, 0, 75, 34
1, 76088, Control_c, 0, 64, 0
1, 76097, Note_on_c, 0, 75, 0
1, 76135, Note_on_c, 0, 75, 86
1, 76169, Note_on_c, 0, 75, 0
1, 76195, Control_c, 0, 64, 127
1, 76217, Note_on_c, 0, 87, 49
1, 76258, Note_on_c, 0, 87, 0
1, 76301, Note_on_c, 0, 87, 80
1, 76431, Note_on_c, 0, 87, 0
1, 76456, Note_on_c, 0, 99, 75
1, 76484, Note_on_c, 0, 99, 0
1, 76567, Note_on_c, 0, 87, 73
1, 76593, Note_on_c, 0, 87, 0
1, 76645, Note_on_c, 0, 87, 45
1, 76721, Note_on_c, 0, 87, 0
1, 76734, Note_on_c, 0, 99, 63
1, 76763, Note_on_c, 0, 99, 0
1, 76843, Note_on_c, 0, 85, 73
1, 76871, Note_on_c, 0, 85, 0
1, 76930, Note_on_c, 0, 85, 39
1, 76974, Note_on_c, 0, 85, 0
1, 77003, Note_on_c, 0, 97, 52
1, 77036, Note_on_c, 0, 97, 0
1, 77106, Control_c, 0, 64, 0
1, 77128, Note_on_c, 0, 44, 37
1, 77136, Note_on_c, 0, 83, 89
1, 77166, Note_on_c, 0, 83, 0
1, 77205, Note_on_c, 0, 44, 0
1, 77214, Note_on_c, 0, 83, 82
1, 77262, Control_c, 0, 64, 127
1, 77275, Note_on_c, 0, 83, 0
1, 77337, Note_on_c, 0, 95, 22
1, 77389, Note_on_c, 0, 95, 0
1, 77437, Note_on_c, 0, 83, 79
1, 77437, Note_on_c, 0, 59, 28
1, 77440, Note_on_c, 0, 51, 17
1, 77470, Note_on_c, 0, 83, 0
1, 77489, Note_on_c, 0, 59, 0
1, 77517, Note_on_c, 0, 51, 0
1, 77546, Note_on_c, 0, 83, 17
1, 77573, Note_on_c, 0, 95, 62
1, 77581, Note_on_c, 0, 83, 0
1, 77606, Note_on_c, 0, 95, 0
1, 77677, Note_on_c, 0, 82, 66
1, 77685, Note_on_c, 0, 51, 35
1, 77690, Note_on_c, 0, 59, 30
1, 77709, Note_on_c, 0, 82, 0
1, 77740, Note_on_c, 0, 59, 0
1, 77754, Note_on_c, 0, 51, 0
1, 77754, Note_on_c, 0, 82, 51
1, 77812, Note_on_c, 0, 82, 0
1, 77824, Note_on_c, 0, 94, 55
1, 77857, Note_on_c, 0, 94, 0
1, 77885, Control_c, 0, 64, 0
1, 77935, Note_on_c, 0, 47, 38
1, 77935, Note_on_c, 0, 80, 68
1, 77966, Note_on_c, 0, 80, 0
1, 78002, Note_on_c, 0, 80, 76
1, 78008, Note_on_c, 0, 47, 0
1, 78041, Control_c, 0, 64, 127
1, 78052, Note_on_c, 0, 80, 0
1, 78080, Note_on_c, 0, 92, 55
1, 78116, Note_on_c, 0, 92, 0
1, 78178, Note_on_c, 0, 63, 41
1, 78187, Note_on_c, 0, 79, 84
1, 78194, Note_on_c, 0, 56, 29
1, 78217, Note_on_c, 0, 79, 0
1, 78225, Note_on_c, 0, 63, 0
1, 78250, Note_on_c, 0, 56, 0
1, 78253, Note_on_c, 0, 79, 88
1, 78303, Note_on_c, 0, 79, 0
1, 78331, Note_on_c, 0, 91, 61
1, 78367, Note_on_c, 0, 91, 0
1, 78412, Note_on_c, 0, 63, 52
1, 78412, Note_on_c, 0, 80, 80
1, 78431, Note_on_c, 0, 56, 34
1, 78445, Note_on_c, 0, 80, 0
1, 78457, Note_on_c, 0, 63, 0
1, 78479, Note_on_c, 0, 56, 0
1, 78485, Note_on_c, 0, 80, 76
1, 78567, Note_on_c, 0, 80, 0
1, 78571, Note_on_c, 0, 92, 54
1, 78593, Control_c, 0, 64, 0
1, 78609, Note_on_c, 0, 92, 0
1, 78651, Note_on_c, 0, 51, 47
1, 78662, Note_on_c, 0, 82, 70
1, 78690, Note_on_c, 0, 82, 0
1, 78698, Note_on_c, 0, 51, 0
1, 78737, Note_on_c, 0, 82, 53
1, 78748, Control_c, 0, 64, 127
1, 78796, Note_on_c, 0, 82, 0
1, 78804, Note_on_c, 0, 94, 58
1, 78835, Note_on_c, 0, 94, 0
1, 78924, Note_on_c, 0, 67, 38
1, 78932, Note_on_c, 0, 58, 25
1, 78938, Note_on_c, 0, 75, 68
1, 78967, Note_on_c, 0, 75, 0
1, 78977, Note_on_c, 0, 67, 0
1, 78988, Note_on_c, 0, 58, 0
1, 79010, Note_on_c, 0, 75, 60
1, 79061, Note_on_c, 0, 75, 0
1, 79086, Note_on_c, 0, 87, 58
1, 79120, Note_on_c, 0, 87, 0
1, 79187, Note_on_c, 0, 75, 70
1, 79187, Note_on_c, 0, 70, 48
1, 79203, Note_on_c, 0, 67, 41
1, 79219, Note_on_c, 0, 75, 0
1, 79250, Note_on_c, 0, 70, 0
1, 79262, Note_on_c, 0, 75, 62
1, 79272, Note_on_c, 0, 67, 0
1, 79333, Note_on_c, 0, 75, 0
1, 79339, Note_on_c, 0, 87, 57
1, 79372, Note_on_c, 0, 87, 0
1, 79431, Control_c, 0, 64, 0
1, 79437, Note_on_c, 0, 68, 44
1, 79437, Note_on_c, 0, 71, 55
1, 79453, Note_on_c, 0, 76, 67
1, 79485, Note_on_c, 0, 76, 0
1, 79529, Note_on_c, 0, 76, 63
1, 79585, Note_on_c, 0, 76, 0
1, 79591, Control_c, 0, 64, 127
1, 79598, Note_on_c, 0, 71, 0
1, 79609, Note_on_c, 0, 68, 0
1, 79609, Note_on_c, 0, 88, 66
1, 79641, Note_on_c, 0, 88, 0
1, 79723, Note_on_c, 0, 75, 67
1, 79738, Note_on_c, 0, 70, 52
1, 79752, Note_on_c, 0, 75, 0
1, 79752, Note_on_c, 0, 66, 52
1, 79793, Note_on_c, 0, 75, 62
1, 79843, Note_on_c, 0, 75, 0
1, 79866, Note_on_c, 0, 70, 0
1, 79866, Note_on_c, 0, 87, 62
1, 79896, Note_on_c, 0, 87, 0
1, 79922, Note_on_c, 0, 66, 0
1, 79977, Note_on_c, 0, 73, 67
1, 79983, Note_on_c, 0, 68, 46
1, 79999, Note_on_c, 0, 64, 49
1, 80006, Note_on_c, 0, 73, 0
1, 80042, Note_on_c, 0, 73, 72
1, 80061, Note_on_c, 0, 68, 0
1, 80066, Note_on_c, 0, 64, 0
1, 80084, Note_on_c, 0, 73, 0
1, 80117, Note_on_c, 0, 85, 58
1, 80152, Note_on_c, 0, 85, 0
1, 80162, Control_c, 0, 64, 0
1, 80208, Note_on_c, 0, 71, 61
1, 80214, Note_on_c, 0, 63, 47
1, 80214, Note_on_c, 0, 68, 42
1, 80239, Note_on_c, 0, 75, 66
1, 80270, Note_on_c, 0, 75, 0
1, 80315, Note_on_c, 0, 75, 60
1, 80329, Control_c, 0, 64, 127
1, 80367, Note_on_c, 0, 75, 0
1, 80395, Note_on_c, 0, 87, 54
1, 80395, Note_on_c, 0, 71, 0
1, 80414, Note_on_c, 0, 68, 0
1, 80431, Note_on_c, 0, 87, 0
1, 80450, Note_on_c, 0, 63, 0
1, 80509, Note_on_c, 0, 76, 63
1, 80542, Note_on_c, 0, 76, 0
1, 80598, Note_on_c, 0, 76, 40
1, 80646, Note_on_c, 0, 76, 0
1, 80663, Note_on_c, 0, 87, 56
1, 80698, Note_on_c, 0, 87, 0
1, 80755, Note_on_c, 0, 77, 79
1, 80782, Note_on_c, 0, 77, 0
1, 80824, Note_on_c, 0, 77, 71
1, 80863, Note_on_c, 0, 77, 0
1, 80888, Note_on_c, 0, 87, 59
1, 80924, Note_on_c, 0, 87, 0
1, 80930, Control_c, 0, 64, 0
1, 80971, Note_on_c, 0, 78, 82
1, 80999, Note_on_c, 0, 78, 0
1, 81038, Note_on_c, 0, 78, 78
1, 81084, Control_c, 0, 64, 127
1, 81114, Note_on_c, 0, 87, 47
1, 81114, Note_on_c, 0, 78, 0
1, 81155, Note_on_c, 0, 87, 0
1, 81194, Control_c, 0, 64, 0
1, 81194, Note_on_c, 0, 79, 82
1, 81225, Note_on_c, 0, 79, 0
1, 81270, Note_on_c, 0, 79, 75
1, 81301, Control_c, 0, 64, 127
1, 81304, Note_on_c, 0, 79, 0
1, 81339, Note_on_c, 0, 87, 61
1, 81361, Control_c, 0, 64, 0
1, 81371, Note_on_c, 0, 87, 0
1, 81403, Note_on_c, 0, 80, 79
1, 81432, Note_on_c, 0, 80, 0
1, 81471, Note_on_c, 0, 80, 74
1, 81481, Control_c, 0, 64, 127
1, 81537, Note_on_c, 0, 80, 0
1, 81537, Control_c, 0, 64, 0
1, 81556, Note_on_c, 0, 87, 36
1, 81602, Note_on_c, 0, 87, 0
1, 81618, Note_on_c, 0, 81, 77
1, 81646, Note_on_c, 0, 51, 30
1, 81649, Note_on_c, 0, 81, 0
1, 81694, Note_on_c, 0, 81, 67
1, 81697, Control_c, 0, 64, 127
1, 81704, Note_on_c, 0, 51, 0
1, 81732, Note_on_c, 0, 81, 0
1, 81732, Note_on_c, 0, 61, 24
1, 81769, Note_on_c, 0, 87, 60
1, 81804, Note_on_c, 0, 61, 0
1, 81804, Note_on_c, 0, 87, 0
1, 81849, Note_on_c, 0, 67, 27
1, 81849, Note_on_c, 0, 82, 57
1, 81885, Note_on_c, 0, 82, 0
1, 81927, Note_on_c, 0, 82, 60
1, 81933, Note_on_c, 0, 67, 0
1, 81963, Note_on_c, 0, 82, 0
1, 82016, Note_on_c, 0, 87, 35
1, 82061, Note_on_c, 0, 87, 0
1, 82086, Note_on_c, 0, 83, 87
1, 82116, Note_on_c, 0, 83, 0
1, 82159, Note_on_c, 0, 83, 92
1, 82212, Note_on_c, 0, 83, 0
1, 82253, Note_on_c, 0, 87, 49
1, 82300, Note_on_c, 0, 87, 0
1, 82307, Control_c, 0, 64, 0
1, 82342, Note_on_c, 0, 84, 68
1, 82375, Note_on_c, 0, 84, 0
1, 82440, Note_on_c, 0, 84, 25
1, 82470, Control_c, 0, 64, 127
1, 82490, Note_on_c, 0, 84, 0
1, 82496, Note_on_c, 0, 87, 51
1, 82523, Control_c, 0, 64, 0
1, 82532, Note_on_c, 0, 87, 0
1, 82566, Note_on_c, 0, 85, 53
1, 82602, Note_on_c, 0, 85, 0
1, 82652, Note_on_c, 0, 85, 48
1, 82679, Control_c, 0, 64, 127
1, 82693, Note_on_c, 0, 85, 0
1, 82724, Note_on_c, 0, 87, 50
1, 82766, Note_on_c, 0, 87, 0
1, 82804, Note_on_c, 0, 86, 52
1, 82849, Note_on_c, 0, 86, 0
1, 82903, Note_on_c, 0, 86, 30
1, 82955, Note_on_c, 0, 87, 64
1, 82955, Note_on_c, 0, 86, 0
1, 82978, Control_c, 0, 64, 0
1, 82986, Note_on_c, 0, 87, 0
1, 83020, Note_on_c, 0, 44, 39
1, 83044, Note_on_c, 0, 87, 43
1, 83077, Note_on_c, 0, 44, 0
1, 83080, Note_on_c, 0, 87, 0
1, 83101, Note_on_c, 0, 51, 26
1, 83120, Note_on_c, 0, 87, 66
1, 83123, Control_c, 0, 64, 127
1, 83158, Note_on_c, 0, 87, 0
1, 83172, Note_on_c, 0, 51, 0
1, 83192, Note_on_c, 0, 59, 38
1, 83208, Note_on_c, 0, 99, 46
1, 83233, Note_on_c, 0, 59, 0
1, 83243, Note_on_c, 0, 99, 0
1, 83311, Note_on_c, 0, 88, 60
1, 83345, Note_on_c, 0, 88, 0
1, 83367, Note_on_c, 0, 68, 25
1, 83395, Note_on_c, 0, 88, 40
1, 83448, Note_on_c, 0, 88, 0
1, 83477, Note_on_c, 0, 99, 49
1, 83513, Note_on_c, 0, 99, 0
1, 83584, Note_on_c, 0, 89, 45
1, 83633, Note_on_c, 0, 89, 0
1, 83740, Note_on_c, 0, 99, 42
1, 83779, Note_on_c, 0, 99, 0
1, 83813, Note_on_c, 0, 90, 65
1, 83847, Note_on_c, 0, 90, 0
1, 83902, Note_on_c, 0, 90, 44
1, 83961, Note_on_c, 0, 90, 0
1, 83997, Note_on_c, 0, 99, 39
1, 84039, Note_on_c, 0, 99, 0
1, 84081, Note_on_c, 0, 91, 54
1, 84122, Note_on_c, 0, 91, 0
1, 84165, Note_on_c, 0, 91, 63
1, 84208, Note_on_c, 0, 91, 0
1, 84367, Note_on_c, 0, 92, 53
1, 84406, Note_on_c, 0, 92, 0
1, 84471, Note_on_c, 0, 92, 27
1, 84530, Note_on_c, 0, 92, 0
1, 84647, Note_on_c, 0, 99, 26
1, 84693, Note_on_c, 0, 99, 0
1, 84953, Note_on_c, 0, 68, 0
1, 85292, Control_c, 0, 64, 0
1, 85699, Note_on_c, 0, 71, 58
1, 85704, Note_on_c, 0, 68, 41
1, 85863, Note_on_c, 0, 68, 0
1, 85866, Note_on_c, 0, 71, 0
1, 85883, Note_on_c, 0, 70, 52
1, 85899, Note_on_c, 0, 67, 56
1, 85949, Note_on_c, 0, 67, 0
1, 85956, Note_on_c, 0, 70, 0
1, 86061, Note_on_c, 0, 69, 57
1, 86061, Note_on_c, 0, 71, 74
1, 86067, Note_on_c, 0, 66, 56
1, 86106, Note_on_c, 0, 69, 0
1, 86106, Note_on_c, 0, 66, 0
1, 86111, Note_on_c, 0, 71, 0
1, 86217, Note_on_c, 0, 68, 58
1, 86221, Note_on_c, 0, 71, 72
1, 86225, Note_on_c, 0, 65, 62
1, 86259, Note_on_c, 0, 65, 0
1, 86262, Note_on_c, 0, 71, 0
1, 86265, Note_on_c, 0, 68, 0
1, 86345, Note_on_c, 0, 71, 74
1, 86345, Note_on_c, 0, 67, 70
1, 86357, Note_on_c, 0, 64, 71
1, 86387, Note_on_c, 0, 67, 0
1, 86390, Note_on_c, 0, 64, 0
1, 86399, Note_on_c, 0, 71, 0
1, 86476, Note_on_c, 0, 71, 62
1, 86479, Note_on_c, 0, 66, 61
1, 86479, Note_on_c, 0, 63, 73
1, 86509, Note_on_c, 0, 63, 0
1, 86516, Note_on_c, 0, 66, 0
1, 86532, Note_on_c, 0, 71, 0
1, 86624, Note_on_c, 0, 65, 45
1, 86624, Note_on_c, 0, 62, 53
1, 86629, Note_on_c, 0, 71, 51
1, 86663, Note_on_c, 0, 62, 0
1, 86668, Note_on_c, 0, 65, 0
1, 86674, Note_on_c, 0, 71, 0
1, 86788, Note_on_c, 0, 61, 44
1, 86788, Note_on_c, 0, 71, 36
1, 86802, Note_on_c, 0, 64, 30
1, 86831, Note_on_c, 0, 61, 0
1, 86835, Note_on_c, 0, 71, 0
1, 86850, Note_on_c, 0, 64, 0
1, 86950, Note_on_c, 0, 73, 62
1, 87025, Note_on_c, 0, 71, 69
1, 87047, Note_on_c, 0, 73, 0
1, 87079, Note_on_c, 0, 71, 0
1, 87089, Note_on_c, 0, 70, 59
1, 87161, Note_on_c, 0, 70, 0
1, 87184, Note_on_c, 0, 71, 54
1, 87229, Note_on_c, 0, 71, 0
1, 87273, Note_on_c, 0, 63, 41
1, 87273, Note_on_c, 0, 66, 49
1, 87293, Control_c, 0, 64, 127
1, 87293, Note_on_c, 0, 59, 17
1, 87312, Note_on_c, 0, 66, 0
1, 87328, Note_on_c, 0, 63, 0
1, 87349, Note_on_c, 0, 59, 0
1, 87374, Note_on_c, 0, 78, 62
1, 87416, Note_on_c, 0, 78, 0
1, 87449, Note_on_c, 0, 78, 60
1, 87477, Note_on_c, 0, 78, 0
1, 87527, Note_on_c, 0, 78, 55
1, 87579, Note_on_c, 0, 78, 0
1, 87597, Note_on_c, 0, 66, 33
1, 87611, Note_on_c, 0, 54, 30
1, 87611, Note_on_c, 0, 71, 60
1, 87622, Note_on_c, 0, 63, 33
1, 87652, Note_on_c, 0, 71, 0
1, 87671, Note_on_c, 0, 54, 0
1, 87671, Note_on_c, 0, 63, 0
1, 87671, Note_on_c, 0, 66, 0
1, 87683, Note_on_c, 0, 83, 91
1, 87713, Note_on_c, 0, 83, 0
1, 87750, Note_on_c, 0, 83, 103
1, 87786, Note_on_c, 0, 83, 0
1, 87833, Note_on_c, 0, 83, 103
1, 87861, Note_on_c, 0, 83, 0
1, 87952, Note_on_c, 0, 73, 76
1, 87964, Control_c, 0, 64, 0
1, 87995, Note_on_c, 0, 73, 0
1, 88040, Note_on_c, 0, 85, 63
1, 88073, Note_on_c, 0, 85, 0
1, 88108, Note_on_c, 0, 85, 85
1, 88132, Control_c, 0, 64, 127
1, 88145, Note_on_c, 0, 85, 0
1, 88198, Note_on_c, 0, 85, 64
1, 88239, Note_on_c, 0, 85, 0
1, 88276, Note_on_c, 0, 78, 73
1, 88299, Note_on_c, 0, 58, 26
1, 88307, Note_on_c, 0, 64, 36
1, 88313, Note_on_c, 0, 78, 0
1, 88356, Note_on_c, 0, 64, 0
1, 88363, Note_on_c, 0, 58, 0
1, 88373, Note_on_c, 0, 90, 62
1, 88409, Note_on_c, 0, 90, 0
1, 88446, Note_on_c, 0, 90, 78
1, 88476, Note_on_c, 0, 90, 0
1, 88519, Note_on_c, 0, 90, 64
1, 88576, Note_on_c, 0, 90, 0
1, 88585, Note_on_c, 0, 66, 41
1, 88602, Note_on_c, 0, 58, 31
1, 88608, Note_on_c, 0, 85, 75
1, 88608, Note_on_c, 0, 54, 31
1, 88630, Note_on_c, 0, 66, 0
1, 88654, Note_on_c, 0, 58, 0
1, 88660, Note_on_c, 0, 54, 0
1, 88691, Note_on_c, 0, 85, 0
1, 88691, Note_on_c, 0, 90, 38
1, 88696, Note_on_c, 0, 97, 64
1, 88725, Note_on_c, 0, 97, 0
1, 88748, Note_on_c, 0, 90, 0
1, 88784, Note_on_c, 0, 90, 38
1, 88784, Note_on_c, 0, 97, 38
1, 88816, Control_c, 0, 64, 0
1, 88894, Note_on_c, 0, 90, 0
1, 88912, Note_on_c, 0, 87, 55
1, 88912, Note_on_c, 0, 97, 0
1, 88919, Note_on_c, 0, 47, 35
1, 88958, Note_on_c, 0, 87, 0
1, 88995, Control_c, 0, 64, 127
1, 89026, Note_on_c, 0, 90, 40
1, 89039, Note_on_c, 0, 99, 36
1, 89056, Note_on_c, 0, 47, 0
1, 89073, Note_on_c, 0, 90, 0
1, 89083, Note_on_c, 0, 99, 0
1, 89132, Note_on_c, 0, 90, 33
1, 89139, Note_on_c, 0, 99, 55
1, 89179, Note_on_c, 0, 99, 0
1, 89185, Note_on_c, 0, 90, 0
1, 89357, Note_on_c, 0, 83, 76
1, 89362, Note_on_c, 0, 63, 23
1, 89368, Note_on_c, 0, 54, 25
1, 89412, Note_on_c, 0, 83, 0
1, 89437, Note_on_c, 0, 54, 0
1, 89452, Note_on_c, 0, 63, 0
1, 89774, Control_c, 0, 64, 0
1, 89903, Note_on_c, 0, 75, 83
1, 89914, Note_on_c, 0, 71, 71
1, 90086, Control_c, 0, 64, 127
1, 90089, Note_on_c, 0, 74, 88
1, 90112, Note_on_c, 0, 71, 0
1, 90120, Note_on_c, 0, 75, 0
1, 90162, Note_on_c, 0, 74, 0
1, 90251, Note_on_c, 0, 70, 64
1, 90251, Note_on_c, 0, 73, 75
1, 90257, Note_on_c, 0, 75, 78
1, 90265, Control_c, 0, 64, 0
1, 90293, Note_on_c, 0, 70, 0
1, 90312, Note_on_c, 0, 73, 0
1, 90312, Note_on_c, 0, 75, 0
1, 90393, Note_on_c, 0, 75, 67
1, 90398, Note_on_c, 0, 72, 76
1, 90402, Note_on_c, 0, 69, 66
1, 90452, Note_on_c, 0, 69, 0
1, 90455, Note_on_c, 0, 72, 0
1, 90476, Note_on_c, 0, 75, 0
1, 90532, Note_on_c, 0, 75, 68
1, 90541, Note_on_c, 0, 68, 66
1, 90549, Note_on_c, 0, 71, 63
1, 90574, Note_on_c, 0, 68, 0
1, 90588, Note_on_c, 0, 71, 0
1, 90618, Note_on_c, 0, 75, 0
1, 90672, Note_on_c, 0, 75, 65
1, 90680, Note_on_c, 0, 70, 56
1, 90692, Note_on_c, 0, 67, 60
1, 90722, Note_on_c, 0, 70, 0
1, 90733, Note_on_c, 0, 67, 0
1, 90763, Note_on_c, 0, 75, 0
1, 90817, Note_on_c, 0, 75, 64
1, 90831, Note_on_c, 0, 69, 35
1, 90836, Note_on_c, 0, 66, 39
1, 90864, Note_on_c, 0, 75, 0
1, 90881, Note_on_c, 0, 66, 0
1, 90881, Note_on_c, 0, 69, 0
1, 91001, Note_on_c, 0, 75, 54
1, 91012, Note_on_c, 0, 68, 36
1, 91015, Note_on_c, 0, 65, 18
1, 91040, Note_on_c, 0, 75, 0
1, 91056, Note_on_c, 0, 68, 0
1, 91064, Note_on_c, 0, 65, 0
1, 91178, Note_on_c, 0, 77, 66
1, 91251, Note_on_c, 0, 75, 64
1, 91260, Note_on_c, 0, 77, 0
1, 91323, Note_on_c, 0, 75, 0
1, 91323, Note_on_c, 0, 74, 63
1, 91366, Note_on_c, 0, 74, 0
1, 91391, Note_on_c, 0, 75, 59
1, 91426, Note_on_c, 0, 75, 0
1, 91479, Note_on_c, 0, 70, 56
1, 91501, Note_on_c, 0, 63, 32
1, 91515, Note_on_c, 0, 70, 0
1, 91524, Control_c, 0, 64, 127
1, 91524, Note_on_c, 0, 66, 12
1, 91568, Note_on_c, 0, 63, 0
1, 91568, Note_on_c, 0, 82, 42
1, 91583, Note_on_c, 0, 66, 0
1, 91615, Note_on_c, 0, 82, 0
1, 91644, Note_on_c, 0, 82, 37
1, 91680, Note_on_c, 0, 82, 0
1, 91719, Note_on_c, 0, 82, 71
1, 91759, Note_on_c, 0, 82, 0
1, 91784, Note_on_c, 0, 70, 33
1, 91795, Note_on_c, 0, 58, 19
1, 91806, Note_on_c, 0, 66, 23
1, 91813, Note_on_c, 0, 75, 55
1, 91836, Note_on_c, 0, 70, 0
1, 91848, Note_on_c, 0, 75, 0
1, 91856, Note_on_c, 0, 58, 0
1, 91872, Note_on_c, 0, 66, 0
1, 91892, Note_on_c, 0, 87, 49
1, 91930, Note_on_c, 0, 87, 0
1, 91944, Control_c, 0, 64, 0
1, 91967, Note_on_c, 0, 87, 82
1, 91995, Note_on_c, 0, 87, 0
1, 92039, Note_on_c, 0, 87, 58
1, 92079, Note_on_c, 0, 87, 0
1, 92132, Note_on_c, 0, 77, 67
1, 92168, Note_on_c, 0, 77, 0
1, 92223, Note_on_c, 0, 89, 69
1, 92254, Control_c, 0, 64, 127
1, 92254, Note_on_c, 0, 89, 0
1, 92295, Note_on_c, 0, 89, 57
1, 92334, Note_on_c, 0, 89, 0
1, 92373, Note_on_c, 0, 89, 85
1, 92407, Note_on_c, 0, 89, 0
1, 92460, Note_on_c, 0, 68, 28
1, 92468, Note_on_c, 0, 82, 66
1, 92468, Note_on_c, 0, 62, 24
1, 92507, Note_on_c, 0, 82, 0
1, 92513, Note_on_c, 0, 68, 0
1, 92519, Note_on_c, 0, 62, 0
1, 92552, Note_on_c, 0, 94, 59
1, 92588, Note_on_c, 0, 94, 0
1, 92625, Note_on_c, 0, 94, 76
1, 92669, Note_on_c, 0, 94, 0
1, 92714, Note_on_c, 0, 94, 64
1, 92750, Note_on_c, 0, 94, 0
1, 92769, Note_on_c, 0, 70, 25
1, 92795, Note_on_c, 0, 58, 21
1, 92795, Note_on_c, 0, 62, 30
1, 92809, Note_on_c, 0, 89, 55
1, 92853, Note_on_c, 0, 89, 0
1, 92858, Note_on_c, 0, 62, 0
1, 92861, Note_on_c, 0, 70, 0
1, 92884, Note_on_c, 0, 101, 67
1, 92890, Note_on_c, 0, 94, 29
1, 92917, Note_on_c, 0, 101, 0
1, 92931, Note_on_c, 0, 58, 0
1, 92948, Note_on_c, 0, 94, 0
1, 92984, Note_on_c, 0, 94, 29
1, 92984, Note_on_c, 0, 101, 24
1, 93046, Control_c, 0, 64, 0
1, 93084, Note_on_c, 0, 51, 44
1, 93084, Note_on_c, 0, 101, 0
1, 93089, Note_on_c, 0, 94, 0
1, 93112, Note_on_c, 0, 90, 56
1, 93215, Note_on_c, 0, 102, 48
1, 93221, Note_on_c, 0, 94, 35
1, 93238, Control_c, 0, 64, 127
1, 93241, Note_on_c, 0, 90, 0
1, 93256, Note_on_c, 0, 102, 0
1, 93268, Note_on_c, 0, 94, 0
1, 93291, Note_on_c, 0, 51, 0
1, 93335, Note_on_c, 0, 94, 24
1, 93346, Note_on_c, 0, 102, 17
1, 93418, Note_on_c, 0, 102, 0
1, 93433, Note_on_c, 0, 58, 19
1, 93437, Note_on_c, 0, 94, 0
1, 93511, Note_on_c, 0, 87, 40
1, 93511, Note_on_c, 0, 66, 22
1, 93514, Note_on_c, 0, 58, 0
1, 93568, Note_on_c, 0, 66, 0
1, 93580, Note_on_c, 0, 87, 0
1, 93915, Note_on_c, 0, 78, 57
1, 93923, Note_on_c, 0, 75, 46
1, 94004, Control_c, 0, 64, 0
1, 94060, Note_on_c, 0, 75, 0
1, 94079, Note_on_c, 0, 77, 72
1, 94084, Note_on_c, 0, 78, 0
1, 94095, Note_on_c, 0, 74, 62
1, 94145, Note_on_c, 0, 74, 0
1, 94167, Note_on_c, 0, 77, 0
1, 94221, Note_on_c, 0, 78, 79
1, 94224, Note_on_c, 0, 76, 64
1, 94234, Note_on_c, 0, 73, 63
1, 94271, Note_on_c, 0, 78, 0
1, 94274, Note_on_c, 0, 73, 0
1, 94279, Note_on_c, 0, 76, 0
1, 94360, Note_on_c, 0, 75, 77
1, 94360, Note_on_c, 0, 78, 74
1, 94366, Note_on_c, 0, 72, 76
1, 94402, Note_on_c, 0, 72, 0
1, 94422, Note_on_c, 0, 75, 0
1, 94427, Note_on_c, 0, 78, 0
1, 94502, Note_on_c, 0, 74, 74
1, 94502, Note_on_c, 0, 78, 71
1, 94507, Note_on_c, 0, 71, 89
1, 94543, Note_on_c, 0, 71, 0
1, 94553, Note_on_c, 0, 74, 0
1, 94567, Note_on_c, 0, 78, 0
1, 94641, Note_on_c, 0, 73, 75
1, 94645, Note_on_c, 0, 78, 55
1, 94645, Note_on_c, 0, 70, 67
1, 94683, Note_on_c, 0, 70, 0
1, 94692, Note_on_c, 0, 73, 0
1, 94695, Note_on_c, 0, 78, 0
1, 94794, Note_on_c, 0, 78, 67
1, 94794, Note_on_c, 0, 72, 61
1, 94802, Note_on_c, 0, 69, 36
1, 94834, Note_on_c, 0, 78, 0
1, 94834, Note_on_c, 0, 72, 0
1, 94855, Note_on_c, 0, 69, 0
1, 94956, Note_on_c, 0, 68, 39
1, 94956, Note_on_c, 0, 78, 61
1, 94956, Note_on_c, 0, 71, 66
1, 94993, Note_on_c, 0, 78, 0
1, 94996, Note_on_c, 0, 71, 0
1, 95004, Note_on_c, 0, 68, 0
1, 95131, Note_on_c, 0, 80, 80
1, 95196, Note_on_c, 0, 78, 68
1, 95213, Note_on_c, 0, 80, 0
1, 95269, Note_on_c, 0, 77, 70
1, 95288, Note_on_c, 0, 78, 0
1, 95313, Note_on_c, 0, 77, 0
1, 95349, Note_on_c, 0, 78, 50
1, 95385, Note_on_c, 0, 78, 0
1, 95413, Note_on_c, 0, 73, 55
1, 95421, Note_on_c, 0, 70, 30
1, 95443, Note_on_c, 0, 66, 21
1, 95449, Note_on_c, 0, 73, 0
1, 95479, Control_c, 0, 64, 127
1, 95482, Note_on_c, 0, 70, 0
1, 95500, Note_on_c, 0, 66, 0
1, 95500, Note_on_c, 0, 85, 62
1, 95536, Note_on_c, 0, 85, 0
1, 95567, Note_on_c, 0, 85, 45
1, 95600, Note_on_c, 0, 85, 0
1, 95639, Note_on_c, 0, 85, 75
1, 95680, Note_on_c, 0, 85, 0
1, 95709, Note_on_c, 0, 73, 33
1, 95720, Note_on_c, 0, 70, 30
1, 95723, Note_on_c, 0, 78, 67
1, 95739, Note_on_c, 0, 61, 14
1, 95758, Note_on_c, 0, 78, 0
1, 95761, Note_on_c, 0, 73, 0
1, 95777, Note_on_c, 0, 70, 0
1, 95808, Note_on_c, 0, 61, 0
1, 95811, Note_on_c, 0, 90, 60
1, 95847, Note_on_c, 0, 90, 0
1, 95875, Control_c, 0, 64, 0
1, 95875, Note_on_c, 0, 90, 64
1, 95909, Note_on_c, 0, 90, 0
1, 95947, Note_on_c, 0, 90, 74
1, 95986, Note_on_c, 0, 90, 0
1, 96029, Note_on_c, 0, 80, 79
1, 96065, Note_on_c, 0, 80, 0
1, 96110, Note_on_c, 0, 92, 66
1, 96145, Note_on_c, 0, 92, 0
1, 96162, Control_c, 0, 64, 127
1, 96181, Note_on_c, 0, 92, 66
1, 96213, Note_on_c, 0, 92, 0
1, 96254, Note_on_c, 0, 92, 66
1, 96302, Note_on_c, 0, 92, 0
1, 96343, Note_on_c, 0, 85, 64
1, 96354, Note_on_c, 0, 71, 35
1, 96380, Note_on_c, 0, 85, 0
1, 96415, Note_on_c, 0, 71, 0
1, 96461, Note_on_c, 0, 92, 38
1, 96461, Note_on_c, 0, 97, 37
1, 96503, Note_on_c, 0, 97, 0
1, 96511, Note_on_c, 0, 92, 0
1, 96563, Note_on_c, 0, 97, 44
1, 96563, Note_on_c, 0, 92, 48
1, 96602, Note_on_c, 0, 92, 0
1, 96606, Note_on_c, 0, 97, 0
1, 96664, Note_on_c, 0, 73, 26
1, 96669, Note_on_c, 0, 97, 50
1, 96672, Note_on_c, 0, 92, 36
1, 96686, Note_on_c, 0, 65, 26
1, 96695, Note_on_c, 0, 61, 22
1, 96711, Note_on_c, 0, 92, 0
1, 96725, Note_on_c, 0, 97, 0
1, 96731, Note_on_c, 0, 65, 0
1, 96736, Note_on_c, 0, 73, 0
1, 96751, Note_on_c, 0, 61, 0
1, 96780, Note_on_c, 0, 92, 42
1, 96780, Note_on_c, 0, 97, 53
1, 96817, Note_on_c, 0, 92, 0
1, 96817, Note_on_c, 0, 97, 0
1, 96875, Note_on_c, 0, 97, 54
1, 96883, Note_on_c, 0, 92, 37
1, 96904, Control_c, 0, 64, 0
1, 96920, Note_on_c, 0, 92, 0
1, 96936, Note_on_c, 0, 97, 0
1, 96975, Note_on_c, 0, 66, 38
1, 96990, Note_on_c, 0, 94, 59
1, 96993, Note_on_c, 0, 97, 54
1, 97020, Note_on_c, 0, 66, 0
1, 97042, Note_on_c, 0, 94, 0
1, 97065, Note_on_c, 0, 97, 0
1, 97073, Note_on_c, 0, 99, 60
1, 97073, Control_c, 0, 64, 127
1, 97110, Note_on_c, 0, 99, 0
1, 97135, Note_on_c, 0, 97, 48
1, 97157, Note_on_c, 0, 93, 19
1, 97179, Note_on_c, 0, 97, 0
1, 97205, Note_on_c, 0, 93, 0
1, 97223, Note_on_c, 0, 99, 32
1, 97266, Note_on_c, 0, 97, 55
1, 97266, Note_on_c, 0, 78, 44
1, 97269, Note_on_c, 0, 99, 0
1, 97269, Note_on_c, 0, 82, 40
1, 97277, Note_on_c, 0, 92, 48
1, 97302, Note_on_c, 0, 97, 0
1, 97313, Note_on_c, 0, 78, 0
1, 97313, Note_on_c, 0, 82, 0
1, 97322, Note_on_c, 0, 99, 55
1, 97325, Note_on_c, 0, 92, 0
1, 97361, Control_c, 0, 64, 0
1, 97375, Note_on_c, 0, 99, 0
1, 97397, Note_on_c, 0, 97, 53
1, 97400, Note_on_c, 0, 80, 28
1, 97416, Note_on_c, 0, 91, 32
1, 97443, Note_on_c, 0, 97, 0
1, 97457, Note_on_c, 0, 80, 0
1, 97468, Note_on_c, 0, 99, 53
1, 97472, Note_on_c, 0, 91, 0
1, 97517, Note_on_c, 0, 99, 0
1, 97530, Note_on_c, 0, 90, 60
1, 97533, Note_on_c, 0, 85, 53
1, 97533, Note_on_c, 0, 97, 50
1, 97547, Note_on_c, 0, 82, 31
1, 97552, Control_c, 0, 64, 127
1, 97567, Note_on_c, 0, 85, 0
1, 97574, Note_on_c, 0, 97, 0
1, 97599, Note_on_c, 0, 99, 50
1, 97599, Note_on_c, 0, 82, 0
1, 97649, Note_on_c, 0, 99, 0
1, 97652, Note_on_c, 0, 97, 42
1, 97708, Note_on_c, 0, 97, 0
1, 97723, Note_on_c, 0, 99, 47
1, 97733, Control_c, 0, 64, 0
1, 97766, Note_on_c, 0, 90, 0
1, 97766, Note_on_c, 0, 99, 0
1, 97801, Note_on_c, 0, 92, 62
1, 97811, Note_on_c, 0, 95, 56
1, 97839, Note_on_c, 0, 59, 22
1, 97850, Note_on_c, 0, 92, 0
1, 97850, Note_on_c, 0, 95, 0
1, 97876, Control_c, 0, 64, 127
1, 97887, Note_on_c, 0, 59, 0
1, 97892, Note_on_c, 0, 97, 40
1, 97934, Note_on_c, 0, 97, 0
1, 97934, Note_on_c, 0, 91, 56
1, 97951, Note_on_c, 0, 95, 34
1, 97982, Note_on_c, 0, 91, 0
1, 98006, Note_on_c, 0, 95, 0
1, 98014, Note_on_c, 0, 97, 30
1, 98056, Control_c, 0, 64, 0
1, 98062, Note_on_c, 0, 95, 53
1, 98071, Note_on_c, 0, 90, 54
1, 98076, Note_on_c, 0, 97, 0
1, 98076, Note_on_c, 0, 80, 52
1, 98096, Note_on_c, 0, 71, 26
1, 98113, Note_on_c, 0, 90, 0
1, 98113, Note_on_c, 0, 95, 0
1, 98117, Note_on_c, 0, 80, 0
1, 98134, Note_on_c, 0, 97, 50
1, 98157, Note_on_c, 0, 71, 0
1, 98198, Note_on_c, 0, 82, 51
1, 98201, Note_on_c, 0, 89, 57
1, 98201, Note_on_c, 0, 95, 47
1, 98209, Note_on_c, 0, 73, 41
1, 98219, Note_on_c, 0, 97, 0
1, 98240, Note_on_c, 0, 82, 0
1, 98244, Note_on_c, 0, 89, 0
1, 98249, Note_on_c, 0, 95, 0
1, 98252, Note_on_c, 0, 73, 0
1, 98266, Note_on_c, 0, 97, 66
1, 98341, Note_on_c, 0, 95, 50
1, 98341, Note_on_c, 0, 87, 57
1, 98351, Note_on_c, 0, 97, 0
1, 98351, Note_on_c, 0, 83, 67
1, 98360, Note_on_c, 0, 75, 37
1, 98389, Note_on_c, 0, 83, 0
1, 98397, Note_on_c, 0, 95, 0
1, 98405, Note_on_c, 0, 87, 0
1, 98405, Note_on_c, 0, 75, 0
1, 98410, Note_on_c, 0, 97, 44
1, 98439, Control_c, 0, 64, 127
1, 98458, Note_on_c, 0, 95, 55
1, 98463, Note_on_c, 0, 97, 0
1, 98519, Note_on_c, 0, 97, 57
1, 98535, Control_c, 0, 64, 0
1, 98553, Note_on_c, 0, 95, 0
1, 98572, Note_on_c, 0, 97, 0
1, 98602, Note_on_c, 0, 90, 61
1, 98608, Note_on_c, 0, 94, 50
1, 98613, Note_on_c, 0, 61, 49
1, 98641, Note_on_c, 0, 90, 0
1, 98647, Note_on_c, 0, 94, 0
1, 98653, Note_on_c, 0, 61, 0
1, 98675, Note_on_c, 0, 95, 70
1, 98680, Control_c, 0, 64, 127
1, 98725, Note_on_c, 0, 95, 0
1, 98742, Note_on_c, 0, 89, 22
1, 98758, Note_on_c, 0, 94, 36
1, 98792, Note_on_c, 0, 89, 0
1, 98798, Note_on_c, 0, 95, 51
1, 98801, Note_on_c, 0, 94, 0
1, 98834, Control_c, 0, 64, 0
1, 98851, Note_on_c, 0, 94, 55
1, 98854, Note_on_c, 0, 95, 0
1, 98854, Note_on_c, 0, 87, 57
1, 98854, Note_on_c, 0, 70, 31
1, 98876, Note_on_c, 0, 78, 21
1, 98901, Note_on_c, 0, 87, 0
1, 98909, Note_on_c, 0, 70, 0
1, 98925, Note_on_c, 0, 94, 0
1, 98925, Note_on_c, 0, 78, 0
1, 98942, Note_on_c, 0, 95, 39
1, 98974, Note_on_c, 0, 80, 46
1, 98985, Note_on_c, 0, 94, 48
1, 98985, Note_on_c, 0, 86, 67
1, 98985, Note_on_c, 0, 71, 36
1, 98992, Note_on_c, 0, 95, 0
1, 99013, Note_on_c, 0, 80, 0
1, 99024, Note_on_c, 0, 86, 0
1, 99040, Note_on_c, 0, 71, 0
1, 99057, Note_on_c, 0, 95, 43
1, 99073, Note_on_c, 0, 94, 0
1, 99115, Note_on_c, 0, 85, 69
1, 99115, Note_on_c, 0, 82, 60
1, 99123, Note_on_c, 0, 94, 59
1, 99138, Note_on_c, 0, 95, 0
1, 99138, Note_on_c, 0, 73, 42
1, 99155, Note_on_c, 0, 82, 0
1, 99166, Note_on_c, 0, 94, 0
1, 99174, Note_on_c, 0, 85, 0
1, 99182, Note_on_c, 0, 73, 0
1, 99191, Note_on_c, 0, 95, 63
1, 99205, Control_c, 0, 64, 127
1, 99263, Note_on_c, 0, 95, 0
1, 99263, Note_on_c, 0, 94, 42
1, 99318, Note_on_c, 0, 95, 50
1, 99327, Note_on_c, 0, 94, 0
1, 99338, Control_c, 0, 64, 0
1, 99355, Note_on_c, 0, 95, 0
1, 99393, Note_on_c, 0, 89, 49
1, 99400, Note_on_c, 0, 92, 41
1, 99400, Note_on_c, 0, 61, 49
1, 99438, Note_on_c, 0, 89, 0
1, 99442, Note_on_c, 0, 61, 0
1, 99442, Note_on_c, 0, 92, 0
1, 99467, Note_on_c, 0, 94, 43
1, 99494, Control_c, 0, 64, 127
1, 99494, Note_on_c, 0, 87, 44
1, 99503, Note_on_c, 0, 92, 39
1, 99510, Note_on_c, 0, 94, 0
1, 99566, Note_on_c, 0, 92, 0
1, 99566, Note_on_c, 0, 87, 0
1, 99569, Note_on_c, 0, 94, 38
1, 99636, Note_on_c, 0, 94, 0
1, 99636, Control_c, 0, 64, 0
1, 99648, Note_on_c, 0, 92, 40
1, 99651, Note_on_c, 0, 86, 30
1, 99651, Note_on_c, 0, 68, 45
1, 99673, Note_on_c, 0, 77, 12
1, 99695, Note_on_c, 0, 92, 0
1, 99695, Note_on_c, 0, 94, 48
1, 99701, Note_on_c, 0, 68, 0
1, 99708, Note_on_c, 0, 86, 0
1, 99715, Note_on_c, 0, 77, 0
1, 99758, Note_on_c, 0, 94, 0
1, 99758, Note_on_c, 0, 92, 49
1, 99773, Note_on_c, 0, 85, 44
1, 99776, Note_on_c, 0, 78, 47
1, 99804, Note_on_c, 0, 70, 13
1, 99812, Note_on_c, 0, 92, 0
1, 99818, Note_on_c, 0, 78, 0
1, 99823, Note_on_c, 0, 85, 0
1, 99845, Note_on_c, 0, 94, 47
1, 99884, Note_on_c, 0, 70, 0
1, 99914, Note_on_c, 0, 92, 56
1, 99914, Note_on_c, 0, 80, 50
1, 99931, Note_on_c, 0, 94, 0
1, 99945, Note_on_c, 0, 83, 58
1, 99951, Note_on_c, 0, 92, 0
1, 99957, Note_on_c, 0, 71, 17
1, 99984, Note_on_c, 0, 80, 0
1, 99984, Control_c, 0, 64, 127
1, 100004, Note_on_c, 0, 87, 44
1, 100024, Note_on_c, 0, 83, 0
1, 100024, Note_on_c, 0, 71, 0
1, 100054, Note_on_c, 0, 87, 0
1, 100054, Control_c, 0, 64, 0
1, 100070, Note_on_c, 0, 88, 42
1, 100107, Note_on_c, 0, 66, 33
1, 100111, Note_on_c, 0, 88, 0
1, 100124, Note_on_c, 0, 89, 46
1, 100154, Note_on_c, 0, 66, 0
1, 100174, Note_on_c, 0, 89, 0
1, 100174, Note_on_c, 0, 73, 26
1, 100202, Note_on_c, 0, 90, 59
1, 100226, Control_c, 0, 64, 127
1, 100249, Note_on_c, 0, 82, 40
1, 100265, Note_on_c, 0, 90, 0
1, 100294, Note_on_c, 0, 92, 34
1, 100294, Note_on_c, 0, 73, 0
1, 100330, Note_on_c, 0, 90, 45
1, 100343, Note_on_c, 0, 92, 0
1, 100372, Note_on_c, 0, 82, 0
1, 100388, Note_on_c, 0, 90, 0
1, 100396, Note_on_c, 0, 92, 46
1, 100469, Note_on_c, 0, 90, 41
1, 100499, Note_on_c, 0, 92, 0
1, 100530, Note_on_c, 0, 90, 0
1, 100550, Note_on_c, 0, 78, 66
1, 100637, Note_on_c, 0, 90, 42
1, 100675, Note_on_c, 0, 78, 0
1, 100683, Note_on_c, 0, 90, 0
1, 100683, Note_on_c, 0, 92, 60
1, 100750, Note_on_c, 0, 90, 45
1, 100773, Note_on_c, 0, 92, 0
1, 100801, Note_on_c, 0, 90, 0
1, 100812, Control_c, 0, 64, 0
1, 100825, Note_on_c, 0, 79, 85
1, 100881, Note_on_c, 0, 91, 67
1, 100920, Note_on_c, 0, 91, 0
1, 100942, Note_on_c, 0, 79, 0
1, 100951, Note_on_c, 0, 92, 55
1, 100992, Control_c, 0, 64, 127
1, 101024, Note_on_c, 0, 92, 0
1, 101029, Note_on_c, 0, 91, 54
1, 101070, Note_on_c, 0, 91, 0
1, 101076, Control_c, 0, 64, 0
1, 101087, Note_on_c, 0, 80, 76
1, 101155, Note_on_c, 0, 92, 54
1, 101173, Control_c, 0, 64, 127
1, 101182, Note_on_c, 0, 80, 0
1, 101205, Note_on_c, 0, 92, 0
1, 101235, Note_on_c, 0, 93, 59
1, 101279, Note_on_c, 0, 93, 0
1, 101316, Note_on_c, 0, 64, 61
1, 101316, Note_on_c, 0, 92, 50
1, 101349, Note_on_c, 0, 64, 0
1, 101358, Note_on_c, 0, 92, 0
1, 101394, Note_on_c, 0, 93, 55
1, 101425, Note_on_c, 0, 80, 70
1, 101433, Note_on_c, 0, 93, 0
1, 101455, Note_on_c, 0, 92, 52
1, 101472, Note_on_c, 0, 80, 0
1, 101497, Note_on_c, 0, 92, 0
1, 101506, Note_on_c, 0, 93, 41
1, 101578, Note_on_c, 0, 93, 0
1, 101578, Control_c, 0, 64, 0
1, 101584, Note_on_c, 0, 92, 41
1, 101633, Note_on_c, 0, 92, 0
1, 101633, Note_on_c, 0, 63, 34
1, 101644, Note_on_c, 0, 93, 59
1, 101676, Note_on_c, 0, 63, 0
1, 101684, Note_on_c, 0, 78, 62
1, 101690, Note_on_c, 0, 93, 0
1, 101698, Control_c, 0, 64, 127
1, 101715, Note_on_c, 0, 92, 38
1, 101726, Note_on_c, 0, 78, 0
1, 101759, Note_on_c, 0, 92, 0
1, 101767, Note_on_c, 0, 93, 54
1, 101817, Note_on_c, 0, 93, 0
1, 101839, Note_on_c, 0, 92, 35
1, 101856, Control_c, 0, 64, 0
1, 101889, Note_on_c, 0, 92, 0
1, 101889, Note_on_c, 0, 61, 68
1, 101904, Note_on_c, 0, 93, 56
1, 101924, Note_on_c, 0, 61, 0
1, 101946, Note_on_c, 0, 93, 0
1, 101957, Note_on_c, 0, 92, 42
1, 101957, Note_on_c, 0, 76, 63
1, 101974, Control_c, 0, 64, 127
1, 101998, Note_on_c, 0, 76, 0
1, 102018, Note_on_c, 0, 93, 52
1, 102031, Note_on_c, 0, 92, 0
1, 102065, Note_on_c, 0, 93, 0
1, 102087, Note_on_c, 0, 92, 47
1, 102144, Note_on_c, 0, 93, 58
1, 102162, Note_on_c, 0, 92, 0
1, 102197, Note_on_c, 0, 93, 0
1, 102215, Control_c, 0, 64, 0
1, 102218, Note_on_c, 0, 92, 48
1, 102229, Note_on_c, 0, 87, 60
1, 102229, Note_on_c, 0, 102, 67
1, 102299, Note_on_c, 0, 93, 49
1, 102305, Note_on_c, 0, 92, 0
1, 102344, Note_on_c, 0, 93, 0
1, 102349, Note_on_c, 0, 87, 0
1, 102352, Note_on_c, 0, 92, 59
1, 102352, Note_on_c, 0, 102, 0
1, 102394, Control_c, 0, 64, 127
1, 102408, Note_on_c, 0, 93, 41
1, 102412, Note_on_c, 0, 92, 0
1, 102475, Note_on_c, 0, 93, 0
1, 102499, Note_on_c, 0, 92, 48
1, 102499, Note_on_c, 0, 85, 49
1, 102499, Note_on_c, 0, 100, 64
1, 102536, Note_on_c, 0, 85, 0
1, 102558, Note_on_c, 0, 92, 0
1, 102566, Note_on_c, 0, 93, 36
1, 102601, Note_on_c, 0, 100, 0
1, 102620, Note_on_c, 0, 92, 40
1, 102623, Note_on_c, 0, 93, 0
1, 102658, Control_c, 0, 64, 0
1, 102669, Note_on_c, 0, 68, 50
1, 102686, Note_on_c, 0, 92, 0
1, 102689, Note_on_c, 0, 93, 41
1, 102711, Note_on_c, 0, 68, 0
1, 102753, Control_c, 0, 64, 127
1, 102753, Note_on_c, 0, 93, 0
1, 102767, Note_on_c, 0, 99, 62
1, 102767, Note_on_c, 0, 92, 46
1, 102786, Note_on_c, 0, 84, 66
1, 102832, Note_on_c, 0, 92, 0
1, 102832, Note_on_c, 0, 93, 44
1, 102878, Note_on_c, 0, 99, 0
1, 102887, Note_on_c, 0, 93, 0
1, 102895, Note_on_c, 0, 92, 41
1, 102909, Note_on_c, 0, 84, 0
1, 102956, Note_on_c, 0, 92, 0
1, 102960, Control_c, 0, 64, 0
1, 102960, Note_on_c, 0, 93, 37
1, 103026, Note_on_c, 0, 93, 0
1, 103038, Note_on_c, 0, 92, 38
1, 103038, Note_on_c, 0, 97, 50
1, 103045, Note_on_c, 0, 82, 46
1, 103093, Note_on_c, 0, 93, 44
1, 103102, Note_on_c, 0, 92, 0
1, 103108, Note_on_c, 0, 82, 0
1, 103138, Note_on_c, 0, 97, 0
1, 103149, Control_c, 0, 64, 127
1, 103165, Note_on_c, 0, 93, 0
1, 103174, Note_on_c, 0, 92, 37
1, 103210, Control_c, 0, 64, 0
1, 103221, Note_on_c, 0, 93, 55
1, 103224, Note_on_c, 0, 92, 0
1, 103316, Note_on_c, 0, 93, 0
1, 103316, Note_on_c, 0, 92, 34
1, 103328, Note_on_c, 0, 99, 43
1, 103328, Note_on_c, 0, 84, 47
1, 103369, Note_on_c, 0, 92, 0
1, 103369, Note_on_c, 0, 84, 0
1, 103374, Note_on_c, 0, 93, 49
1, 103413, Control_c, 0, 64, 127
1, 103419, Note_on_c, 0, 99, 0
1, 103427, Note_on_c, 0, 93, 0
1, 103435, Note_on_c, 0, 92, 21
1, 103491, Note_on_c, 0, 93, 40
1, 103491, Note_on_c, 0, 92, 0
1, 103536, Note_on_c, 0, 73, 28
1, 103591, Note_on_c, 0, 93, 0
1, 103594, Note_on_c, 0, 73, 0
1, 103601, Note_on_c, 0, 100, 48
1, 103617, Note_on_c, 0, 85, 42
1, 103623, Note_on_c, 0, 92, 3
1, 103658, Note_on_c, 0, 93, 36
1, 103664, Note_on_c, 0, 92, 0
1, 103675, Note_on_c, 0, 85, 0
1, 103716, Note_on_c, 0, 93, 0
1, 103740, Note_on_c, 0, 92, 33
1, 103793, Note_on_c, 0, 92, 0
1, 103798, Note_on_c, 0, 93, 22
1, 103809, Note_on_c, 0, 100, 0
1, 103892, Note_on_c, 0, 93, 0
1, 103892, Note_on_c, 0, 92, 16
1, 103892, Note_on_c, 0, 88, 33
1, 103913, Note_on_c, 0, 97, 29
1, 103949, Note_on_c, 0, 88, 0
1, 103988, Note_on_c, 0, 97, 0
1, 104030, Note_on_c, 0, 92, 0
1, 104121, Control_c, 0, 64, 0
1, 104163, Note_on_c, 0, 79, 48
1, 104219, Note_on_c, 0, 91, 36
1, 104222, Note_on_c, 0, 79, 0
1, 104268, Note_on_c, 0, 91, 0
1, 104285, Note_on_c, 0, 93, 39
1, 104299, Control_c, 0, 64, 127
1, 104346, Note_on_c, 0, 91, 34
1, 104361, Note_on_c, 0, 93, 0
1, 104400, Note_on_c, 0, 91, 0
1, 104425, Note_on_c, 0, 78, 39
1, 104431, Control_c, 0, 64, 0
1, 104464, Note_on_c, 0, 78, 0
1, 104478, Note_on_c, 0, 90, 47
1, 104528, Note_on_c, 0, 90, 0
1, 104550, Note_on_c, 0, 92, 33
1, 104550, Control_c, 0, 64, 127
1, 104586, Note_on_c, 0, 90, 49
1, 104601, Note_on_c, 0, 92, 0
1, 104647, Note_on_c, 0, 90, 0
1, 104647, Control_c, 0, 64, 0
1, 104669, Note_on_c, 0, 63, 46
1, 104675, Note_on_c, 0, 92, 39
1, 104723, Note_on_c, 0, 63, 0
1, 104723, Note_on_c, 0, 78, 51
1, 104728, Note_on_c, 0, 92, 0
1, 104757, Note_on_c, 0, 90, 60
1, 104784, Note_on_c, 0, 78, 0
1, 104792, Control_c, 0, 64, 127
1, 104800, Note_on_c, 0, 90, 0
1, 104837, Note_on_c, 0, 92, 58
1, 104874, Note_on_c, 0, 92, 0
1, 104899, Control_c, 0, 64, 0
1, 104902, Note_on_c, 0, 90, 49
1, 104931, Note_on_c, 0, 61, 44
1, 104945, Note_on_c, 0, 90, 0
1, 104959, Note_on_c, 0, 92, 45
1, 104974, Note_on_c, 0, 61, 0
1, 105004, Note_on_c, 0, 92, 0
1, 105013, Note_on_c, 0, 76, 45
1, 105020, Control_c, 0, 64, 127
1, 105029, Note_on_c, 0, 90, 38
1, 105052, Note_on_c, 0, 76, 0
1, 105076, Note_on_c, 0, 90, 0
1, 105085, Note_on_c, 0, 92, 50
1, 105135, Note_on_c, 0, 92, 0
1, 105135, Control_c, 0, 64, 0
1, 105155, Note_on_c, 0, 90, 40
1, 105213, Note_on_c, 0, 90, 0
1, 105213, Note_on_c, 0, 59, 48
1, 105238, Note_on_c, 0, 92, 55
1, 105252, Note_on_c, 0, 59, 0
1, 105258, Control_c, 0, 64, 127
1, 105278, Note_on_c, 0, 92, 0
1, 105299, Note_on_c, 0, 90, 39
1, 105317, Note_on_c, 0, 75, 61
1, 105356, Note_on_c, 0, 90, 0
1, 105364, Note_on_c, 0, 92, 38
1, 105368, Note_on_c, 0, 75, 0
1, 105409, Note_on_c, 0, 92, 0
1, 105430, Note_on_c, 0, 90, 41
1, 105491, Note_on_c, 0, 92, 44
1, 105509, Note_on_c, 0, 90, 0
1, 105537, Note_on_c, 0, 92, 0
1, 105562, Note_on_c, 0, 90, 58
1, 105572, Note_on_c, 0, 100, 79
1, 105581, Control_c, 0, 64, 0
1, 105584, Note_on_c, 0, 85, 65
1, 105626, Note_on_c, 0, 90, 0
1, 105646, Note_on_c, 0, 92, 60
1, 105686, Note_on_c, 0, 92, 0
1, 105686, Note_on_c, 0, 100, 0
1, 105700, Note_on_c, 0, 90, 40
1, 105703, Note_on_c, 0, 85, 0
1, 105714, Control_c, 0, 64, 127
1, 105748, Note_on_c, 0, 92, 48
1, 105754, Note_on_c, 0, 90, 0
1, 105798, Control_c, 0, 64, 0
1, 105821, Note_on_c, 0, 92, 0
1, 105825, Note_on_c, 0, 90, 58
1, 105832, Note_on_c, 0, 99, 75
1, 105857, Note_on_c, 0, 83, 75
1, 105892, Note_on_c, 0, 83, 0
1, 105892, Note_on_c, 0, 90, 0
1, 105892, Note_on_c, 0, 92, 51
1, 105941, Note_on_c, 0, 99, 0
1, 105941, Control_c, 0, 64, 127
1, 105945, Note_on_c, 0, 92, 0
1, 105960, Note_on_c, 0, 90, 53
1, 106009, Note_on_c, 0, 66, 62
1, 106016, Note_on_c, 0, 90, 0
1, 106016, Note_on_c, 0, 92, 42
1, 106052, Note_on_c, 0, 66, 0
1, 106090, Note_on_c, 0, 90, 58
1, 106090, Note_on_c, 0, 92, 0
1, 106094, Note_on_c, 0, 97, 64
1, 106129, Note_on_c, 0, 82, 58
1, 106152, Note_on_c, 0, 92, 51
1, 106172, Note_on_c, 0, 90, 0
1, 106224, Note_on_c, 0, 97, 0
1, 106224, Note_on_c, 0, 90, 54
1, 106241, Note_on_c, 0, 82, 0
1, 106241, Control_c, 0, 64, 0
1, 106252, Note_on_c, 0, 92, 0
1, 106303, Note_on_c, 0, 90, 0
1, 106303, Note_on_c, 0, 92, 60
1, 106349, Note_on_c, 0, 92, 0
1, 106349, Note_on_c, 0, 90, 63
1, 106366, Note_on_c, 0, 95, 65
1, 106369, Note_on_c, 0, 80, 53
1, 106409, Control_c, 0, 64, 127
1, 106417, Note_on_c, 0, 80, 0
1, 106425, Note_on_c, 0, 92, 47
1, 106439, Note_on_c, 0, 90, 0
1, 106478, Note_on_c, 0, 92, 0
1, 106492, Note_on_c, 0, 90, 49
1, 106528, Control_c, 0, 64, 0
1, 106544, Note_on_c, 0, 92, 41
1, 106550, Note_on_c, 0, 90, 0
1, 106615, Note_on_c, 0, 95, 0
1, 106615, Note_on_c, 0, 92, 0
1, 106618, Note_on_c, 0, 90, 40
1, 106623, Note_on_c, 0, 97, 54
1, 106626, Note_on_c, 0, 82, 44
1, 106661, Control_c, 0, 64, 127
1, 106665, Note_on_c, 0, 82, 0
1, 106687, Note_on_c, 0, 90, 0
1, 106690, Note_on_c, 0, 92, 47
1, 106696, Control_c, 0, 64, 0
1, 106729, Note_on_c, 0, 97, 0
1, 106742, Note_on_c, 0, 92, 0
1, 106759, Note_on_c, 0, 90, 31
1, 106781, Control_c, 0, 64, 127
1, 106818, Note_on_c, 0, 90, 0
1, 106818, Note_on_c, 0, 92, 36
1, 106829, Control_c, 0, 64, 0
1, 106849, Note_on_c, 0, 71, 25
1, 106871, Note_on_c, 0, 92, 0
1, 106899, Note_on_c, 0, 99, 46
1, 106907, Note_on_c, 0, 90, 24
1, 106907, Note_on_c, 0, 71, 0
1, 106934, Note_on_c, 0, 83, 46
1, 106973, Control_c, 0, 64, 127
1, 106977, Note_on_c, 0, 90, 0
1, 106982, Note_on_c, 0, 92, 31
1, 107035, Note_on_c, 0, 92, 0
1, 107055, Note_on_c, 0, 90, 31
1, 107072, Note_on_c, 0, 83, 0
1, 107105, Note_on_c, 0, 92, 26
1, 107108, Note_on_c, 0, 90, 0
1, 107119, Note_on_c, 0, 99, 0
1, 107155, Note_on_c, 0, 95, 46
1, 107161, Note_on_c, 0, 92, 0
1, 107182, Note_on_c, 0, 87, 35
1, 107186, Note_on_c, 0, 90, 14
1, 107214, Note_on_c, 0, 95, 0
1, 107225, Note_on_c, 0, 87, 0
1, 107275, Note_on_c, 0, 90, 0
1, 107423, Note_on_c, 0, 74, 47
1, 107469, Note_on_c, 0, 74, 0
1, 107475, Note_on_c, 0, 86, 55
1, 107519, Note_on_c, 0, 86, 0
1, 107530, Note_on_c, 0, 87, 48
1, 107579, Note_on_c, 0, 87, 0
1, 107583, Note_on_c, 0, 86, 42
1, 107620, Control_c, 0, 64, 0
1, 107639, Note_on_c, 0, 86, 0
1, 107657, Note_on_c, 0, 75, 60
1, 107698, Note_on_c, 0, 87, 53
1, 107698, Note_on_c, 0, 75, 0
1, 107751, Note_on_c, 0, 87, 0
1, 107767, Note_on_c, 0, 88, 63
1, 107813, Note_on_c, 0, 88, 0
1, 107835, Note_on_c, 0, 87, 46
1, 107881, Note_on_c, 0, 87, 0
1, 107899, Note_on_c, 0, 75, 56
1, 107904, Note_on_c, 0, 88, 61
1, 107916, Note_on_c, 0, 63, 35
1, 107916, Note_on_c, 0, 67, 43
1, 107946, Note_on_c, 0, 88, 0
1, 107966, Note_on_c, 0, 67, 0
1, 107969, Note_on_c, 0, 75, 0
1, 107974, Note_on_c, 0, 63, 0
1, 107977, Note_on_c, 0, 87, 48
1, 108018, Note_on_c, 0, 87, 0
1, 108030, Note_on_c, 0, 88, 60
1, 108080, Note_on_c, 0, 88, 0
1, 108107, Note_on_c, 0, 87, 38
1, 108150, Note_on_c, 0, 87, 0
1, 108166, Note_on_c, 0, 88, 63
1, 108166, Note_on_c, 0, 74, 64
1, 108171, Note_on_c, 0, 68, 50
1, 108177, Note_on_c, 0, 65, 45
1, 108217, Note_on_c, 0, 88, 0
1, 108217, Note_on_c, 0, 74, 0
1, 108221, Note_on_c, 0, 65, 0
1, 108225, Note_on_c, 0, 87, 44
1, 108230, Note_on_c, 0, 68, 0
1, 108297, Note_on_c, 0, 87, 0
1, 108297, Note_on_c, 0, 88, 66
1, 108350, Note_on_c, 0, 87, 61
1, 108356, Note_on_c, 0, 88, 0
1, 108422, Control_c, 0, 64, 127
1, 108430, Note_on_c, 0, 87, 0
1, 108433, Note_on_c, 0, 88, 67
1, 108437, Note_on_c, 0, 73, 35
1, 108456, Note_on_c, 0, 67, 27
1, 108459, Note_on_c, 0, 70, 22
1, 108490, Note_on_c, 0, 87, 55
1, 108525, Note_on_c, 0, 88, 0
1, 108525, Note_on_c, 0, 73, 0
1, 108525, Note_on_c, 0, 67, 0
1, 108525, Note_on_c, 0, 70, 0
1, 108562, Note_on_c, 0, 86, 65
1, 108570, Note_on_c, 0, 87, 0
1, 108615, Note_on_c, 0, 86, 0
1, 108615, Note_on_c, 0, 87, 70
1, 108645, Note_on_c, 0, 87, 0
1, 108684, Note_on_c, 0, 88, 60
1, 108721, Note_on_c, 0, 88, 0
1, 108726, Note_on_c, 0, 89, 68
1, 108771, Note_on_c, 0, 90, 66
1, 108787, Note_on_c, 0, 89, 0
1, 108804, Note_on_c, 0, 90, 0
1, 108835, Note_on_c, 0, 91, 67
1, 108873, Note_on_c, 0, 91, 0
1, 108918, Note_on_c, 0, 93, 59
1, 108948, Note_on_c, 0, 91, 16
1, 108976, Note_on_c, 0, 94, 64
1, 108985, Control_c, 0, 64, 0
1, 108999, Note_on_c, 0, 91, 0
1, 109002, Note_on_c, 0, 93, 0
1, 109018, Note_on_c, 0, 94, 0
1, 109033, Note_on_c, 0, 95, 61
1, 109079, Note_on_c, 0, 95, 0
1, 109088, Note_on_c, 0, 96, 74
1, 109133, Note_on_c, 0, 96, 0
1, 109133, Note_on_c, 0, 97, 58
1, 109166, Note_on_c, 0, 97, 0
1, 109194, Note_on_c, 0, 98, 71
1, 109228, Note_on_c, 0, 98, 0
1, 109238, Note_on_c, 0, 99, 59
1, 109269, Note_on_c, 0, 68, 17
1, 109275, Note_on_c, 0, 76, 19
1, 109295, Note_on_c, 0, 99, 0
1, 109295, Note_on_c, 0, 100, 46
1, 109299, Note_on_c, 0, 71, 23
1, 109322, Control_c, 0, 64, 127
1, 109333, Note_on_c, 0, 100, 0
1, 109349, Note_on_c, 0, 102, 57
1, 109386, Note_on_c, 0, 71, 0
1, 109389, Note_on_c, 0, 76, 0
1, 109411, Note_on_c, 0, 100, 24
1, 109411, Note_on_c, 0, 102, 0
1, 109447, Note_on_c, 0, 68, 0
1, 109455, Note_on_c, 0, 99, 56
1, 109476, Note_on_c, 0, 100, 0
1, 109487, Note_on_c, 0, 99, 0
1, 109529, Note_on_c, 0, 98, 57
1, 109575, Note_on_c, 0, 98, 0
1, 109586, Note_on_c, 0, 97, 38
1, 109648, Note_on_c, 0, 96, 51
1, 109675, Note_on_c, 0, 97, 0
1, 109684, Note_on_c, 0, 96, 0
1, 109717, Note_on_c, 0, 95, 47
1, 109776, Note_on_c, 0, 94, 44
1, 109804, Note_on_c, 0, 95, 0
1, 109829, Note_on_c, 0, 93, 51
1, 109832, Note_on_c, 0, 94, 0
1, 109902, Note_on_c, 0, 92, 35
1, 109902, Note_on_c, 0, 93, 0
1, 109948, Note_on_c, 0, 92, 0
1, 109954, Note_on_c, 0, 91, 37
1, 110004, Note_on_c, 0, 91, 0
1, 110004, Note_on_c, 0, 90, 56
1, 110004, Control_c, 0, 64, 0
1, 110036, Note_on_c, 0, 63, 29
1, 110088, Note_on_c, 0, 70, 25
1, 110091, Note_on_c, 0, 63, 0
1, 110111, Note_on_c, 0, 90, 0
1, 110133, Note_on_c, 0, 88, 44
1, 110172, Control_c, 0, 64, 127
1, 110183, Note_on_c, 0, 79, 50
1, 110183, Note_on_c, 0, 87, 58
1, 110183, Note_on_c, 0, 88, 0
1, 110230, Note_on_c, 0, 79, 0
1, 110238, Note_on_c, 0, 70, 0
1, 110294, Note_on_c, 0, 87, 0
1, 110479, Note_on_c, 0, 70, 53
1, 110508, Control_c, 0, 64, 0
1, 110550, Note_on_c, 0, 82, 50
1, 110567, Note_on_c, 0, 70, 0
1, 110593, Note_on_c, 0, 82, 0
1, 110598, Note_on_c, 0, 83, 88
1, 110653, Note_on_c, 0, 83, 0
1, 110656, Note_on_c, 0, 82, 45
1, 110696, Note_on_c, 0, 82, 0
1, 110720, Note_on_c, 0, 74, 73
1, 110781, Note_on_c, 0, 86, 70
1, 110795, Note_on_c, 0, 74, 0
1, 110818, Note_on_c, 0, 86, 0
1, 110830, Note_on_c, 0, 87, 60
1, 110891, Note_on_c, 0, 87, 0
1, 110901, Note_on_c, 0, 86, 53
1, 110941, Note_on_c, 0, 86, 0
1, 110954, Note_on_c, 0, 75, 67
1, 111001, Note_on_c, 0, 75, 0
1, 111032, Note_on_c, 0, 87, 55
1, 111075, Note_on_c, 0, 87, 0
1, 111093, Note_on_c, 0, 88, 62
1, 111133, Note_on_c, 0, 88, 0
1, 111174, Note_on_c, 0, 87, 39
1, 111213, Note_on_c, 0, 87, 0
1, 111213, Note_on_c, 0, 75, 51
1, 111222, Note_on_c, 0, 63, 46
1, 111233, Note_on_c, 0, 67, 32
1, 111233, Note_on_c, 0, 88, 63
1, 111264, Note_on_c, 0, 75, 0
1, 111270, Note_on_c, 0, 88, 0
1, 111275, Note_on_c, 0, 63, 0
1, 111288, Note_on_c, 0, 67, 0
1, 111314, Note_on_c, 0, 87, 31
1, 111360, Note_on_c, 0, 87, 0
1, 111367, Note_on_c, 0, 88, 50
1, 111408, Note_on_c, 0, 88, 0
1, 111417, Note_on_c, 0, 87, 37
1, 111486, Note_on_c, 0, 74, 39
1, 111486, Note_on_c, 0, 68, 37
1, 111490, Note_on_c, 0, 88, 45
1, 111495, Note_on_c, 0, 65, 31
1, 111498, Note_on_c, 0, 87, 0
1, 111539, Note_on_c, 0, 65, 0
1, 111543, Note_on_c, 0, 88, 0
1, 111543, Note_on_c, 0, 74, 0
1, 111551, Note_on_c, 0, 68, 0
1, 111607, Note_on_c, 0, 88, 51
1, 111643, Note_on_c, 0, 87, 2
1, 111646, Note_on_c, 0, 88, 0
1, 111732, Note_on_c, 0, 87, 0
1, 111757, Note_on_c, 0, 88, 46
1, 111757, Note_on_c, 0, 73, 26
1, 111784, Note_on_c, 0, 70, 22
1, 111784, Note_on_c, 0, 67, 19
1, 111810, Note_on_c, 0, 88, 0
1, 111815, Control_c, 0, 64, 127
1, 111818, Note_on_c, 0, 87, 23
1, 111851, Note_on_c, 0, 73, 0
1, 111851, Note_on_c, 0, 67, 0
1, 111857, Note_on_c, 0, 70, 0
1, 111876, Note_on_c, 0, 87, 0
1, 111887, Note_on_c, 0, 86, 44
1, 111938, Note_on_c, 0, 86, 0
1, 111938, Note_on_c, 0, 87, 47
1, 111979, Note_on_c, 0, 87, 0
1, 112033, Note_on_c, 0, 88, 30
1, 112068, Note_on_c, 0, 89, 63
1, 112088, Note_on_c, 0, 88, 0
1, 112119, Note_on_c, 0, 90, 51
1, 112130, Note_on_c, 0, 89, 0
1, 112158, Note_on_c, 0, 90, 0
1, 112197, Note_on_c, 0, 91, 41
1, 112227, Note_on_c, 0, 92, 58
1, 112244, Note_on_c, 0, 91, 0
1, 112270, Note_on_c, 0, 93, 53
1, 112288, Note_on_c, 0, 92, 0
1, 112316, Control_c, 0, 64, 0
1, 112323, Note_on_c, 0, 94, 56
1, 112333, Note_on_c, 0, 93, 0
1, 112355, Note_on_c, 0, 94, 0
1, 112384, Note_on_c, 0, 95, 49
1, 112428, Note_on_c, 0, 95, 0
1, 112436, Note_on_c, 0, 96, 71
1, 112484, Note_on_c, 0, 96, 0
1, 112484, Note_on_c, 0, 97, 49
1, 112522, Note_on_c, 0, 97, 0
1, 112553, Note_on_c, 0, 98, 58
1, 112593, Note_on_c, 0, 98, 0
1, 112593, Note_on_c, 0, 99, 57
1, 112656, Note_on_c, 0, 99, 0
1, 112656, Note_on_c, 0, 68, 22
1, 112656, Note_on_c, 0, 100, 50
1, 112665, Note_on_c, 0, 76, 18
1, 112671, Note_on_c, 0, 71, 24
1, 112690, Control_c, 0, 64, 127
1, 112693, Note_on_c, 0, 100, 0
1, 112723, Note_on_c, 0, 102, 48
1, 112762, Note_on_c, 0, 76, 0
1, 112766, Note_on_c, 0, 100, 32
1, 112776, Note_on_c, 0, 71, 0
1, 112776, Note_on_c, 0, 102, 0
1, 112805, Note_on_c, 0, 68, 0
1, 112834, Note_on_c, 0, 99, 48
1, 112834, Note_on_c, 0, 100, 0
1, 112869, Note_on_c, 0, 99, 0
1, 112899, Note_on_c, 0, 98, 42
1, 112946, Note_on_c, 0, 98, 0
1, 112946, Note_on_c, 0, 97, 48
1, 113008, Note_on_c, 0, 96, 51
1, 113041, Note_on_c, 0, 97, 0
1, 113046, Note_on_c, 0, 96, 0
1, 113068, Note_on_c, 0, 95, 56
1, 113131, Note_on_c, 0, 94, 45
1, 113161, Note_on_c, 0, 95, 0
1, 113169, Control_c, 0, 64, 0
1, 113177, Note_on_c, 0, 93, 60
1, 113195, Note_on_c, 0, 94, 0
1, 113238, Note_on_c, 0, 92, 51
1, 113252, Note_on_c, 0, 93, 0
1, 113281, Note_on_c, 0, 92, 0
1, 113297, Note_on_c, 0, 91, 44
1, 113336, Note_on_c, 0, 90, 68
1, 113341, Note_on_c, 0, 91, 0
1, 113408, Control_c, 0, 64, 127
1, 113419, Note_on_c, 0, 89, 41
1, 113423, Note_on_c, 0, 63, 26
1, 113433, Note_on_c, 0, 90, 0
1, 113447, Note_on_c, 0, 70, 28
1, 113461, Note_on_c, 0, 88, 55
1, 113468, Note_on_c, 0, 89, 0
1, 113475, Note_on_c, 0, 63, 0
1, 113492, Note_on_c, 0, 70, 0
1, 113506, Note_on_c, 0, 88, 0
1, 113525, Note_on_c, 0, 79, 65
1, 113529, Note_on_c, 0, 87, 62
1, 113568, Note_on_c, 0, 79, 0
1, 113571, Note_on_c, 0, 87, 0
1, 113593, Note_on_c, 0, 88, 60
1, 113654, Note_on_c, 0, 88, 0
1, 113660, Note_on_c, 0, 87, 41
1, 113707, Note_on_c, 0, 87, 0
1, 113715, Note_on_c, 0, 86, 50
1, 113763, Note_on_c, 0, 87, 55
1, 113768, Note_on_c, 0, 86, 0
1, 113815, Note_on_c, 0, 87, 0
1, 113846, Note_on_c, 0, 88, 45
1, 113893, Note_on_c, 0, 88, 0
1, 113893, Note_on_c, 0, 89, 67
1, 113936, Control_c, 0, 64, 0
1, 113939, Note_on_c, 0, 90, 58
1, 113957, Note_on_c, 0, 89, 0
1, 113972, Note_on_c, 0, 90, 0
1, 114002, Note_on_c, 0, 91, 68
1, 114046, Note_on_c, 0, 91, 0
1, 114053, Note_on_c, 0, 92, 48
1, 114089, Note_on_c, 0, 93, 70
1, 114117, Note_on_c, 0, 92, 0
1, 114139, Note_on_c, 0, 94, 58
1, 114156, Note_on_c, 0, 93, 0
1, 114170, Note_on_c, 0, 94, 0
1, 114202, Note_on_c, 0, 95, 63
1, 114244, Note_on_c, 0, 95, 0
1, 114252, Note_on_c, 0, 96, 68
1, 114259, Control_c, 0, 64, 127
1, 114273, Note_on_c, 0, 56, 32
1, 114301, Note_on_c, 0, 97, 49
1, 114306, Note_on_c, 0, 96, 0
1, 114328, Note_on_c, 0, 63, 39
1, 114328, Note_on_c, 0, 56, 0
1, 114337, Note_on_c, 0, 97, 0
1, 114361, Note_on_c, 0, 98, 69
1, 114397, Note_on_c, 0, 98, 0
1, 114415, Note_on_c, 0, 99, 46
1, 114447, Note_on_c, 0, 71, 61
1, 114451, Note_on_c, 0, 100, 63
1, 114464, Note_on_c, 0, 99, 0
1, 114487, Note_on_c, 0, 100, 0
1, 114517, Note_on_c, 0, 63, 0
1, 114523, Note_on_c, 0, 102, 55
1, 114537, Note_on_c, 0, 71, 0
1, 114582, Note_on_c, 0, 102, 0
1, 114582, Note_on_c, 0, 100, 33
1, 114626, Note_on_c, 0, 99, 55
1, 114635, Note_on_c, 0, 100, 0
1, 114663, Note_on_c, 0, 99, 0
1, 114702, Note_on_c, 0, 98, 32
1, 114748, Note_on_c, 0, 97, 36
1, 114757, Note_on_c, 0, 98, 0
1, 114819, Note_on_c, 0, 96, 31
1, 114846, Note_on_c, 0, 97, 0
1, 114876, Note_on_c, 0, 96, 0
1, 114876, Note_on_c, 0, 95, 42
1, 114935, Note_on_c, 0, 94, 33
1, 114961, Note_on_c, 0, 95, 0
1, 114979, Control_c, 0, 64, 0
1, 114982, Note_on_c, 0, 93, 45
1, 115016, Note_on_c, 0, 94, 0
1, 115024, Note_on_c, 0, 92, 50
1, 115038, Note_on_c, 0, 93, 0
1, 115064, Note_on_c, 0, 92, 0
1, 115091, Note_on_c, 0, 91, 46
1, 115130, Note_on_c, 0, 90, 60
1, 115130, Note_on_c, 0, 91, 0
1, 115199, Note_on_c, 0, 89, 53
1, 115227, Note_on_c, 0, 51, 37
1, 115236, Note_on_c, 0, 90, 0
1, 115236, Note_on_c, 0, 89, 0
1, 115247, Note_on_c, 0, 88, 63
1, 115262, Note_on_c, 0, 58, 35
1, 115272, Note_on_c, 0, 51, 0
1, 115278, Control_c, 0, 64, 127
1, 115306, Note_on_c, 0, 88, 0
1, 115323, Note_on_c, 0, 87, 59
1, 115347, Note_on_c, 0, 67, 53
1, 115370, Note_on_c, 0, 87, 0
1, 115387, Note_on_c, 0, 88, 50
1, 115429, Note_on_c, 0, 67, 0
1, 115434, Note_on_c, 0, 58, 0
1, 115448, Note_on_c, 0, 88, 0
1, 115461, Note_on_c, 0, 87, 33
1, 115506, Note_on_c, 0, 87, 0
1, 115514, Note_on_c, 0, 86, 51
1, 115568, Note_on_c, 0, 86, 0
1, 115568, Note_on_c, 0, 87, 42
1, 115615, Note_on_c, 0, 87, 0
1, 115659, Note_on_c, 0, 88, 30
1, 115704, Note_on_c, 0, 89, 64
1, 115710, Note_on_c, 0, 88, 0
1, 115760, Note_on_c, 0, 90, 59
1, 115785, Note_on_c, 0, 89, 0
1, 115798, Note_on_c, 0, 90, 0
1, 115827, Note_on_c, 0, 91, 64
1, 115872, Note_on_c, 0, 91, 0
1, 115872, Note_on_c, 0, 92, 57
1, 115925, Note_on_c, 0, 93, 63
1, 115964, Note_on_c, 0, 92, 0
1, 115980, Note_on_c, 0, 94, 61
1, 115999, Note_on_c, 0, 93, 0
1, 116010, Note_on_c, 0, 94, 0
1, 116041, Note_on_c, 0, 95, 67
1, 116085, Note_on_c, 0, 95, 0
1, 116092, Control_c, 0, 64, 0
1, 116095, Note_on_c, 0, 96, 72
1, 116141, Note_on_c, 0, 97, 59
1, 116155, Note_on_c, 0, 96, 0
1, 116170, Note_on_c, 0, 97, 0
1, 116181, Note_on_c, 0, 44, 56
1, 116203, Note_on_c, 0, 98, 78
1, 116223, Note_on_c, 0, 44, 0
1, 116234, Note_on_c, 0, 98, 0
1, 116248, Control_c, 0, 64, 127
1, 116256, Note_on_c, 0, 99, 52
1, 116284, Note_on_c, 0, 59, 51
1, 116306, Note_on_c, 0, 100, 61
1, 116322, Note_on_c, 0, 99, 0
1, 116340, Note_on_c, 0, 59, 0
1, 116345, Note_on_c, 0, 100, 0
1, 116372, Note_on_c, 0, 102, 63
1, 116439, Note_on_c, 0, 100, 45
1, 116448, Note_on_c, 0, 102, 0
1, 116496, Note_on_c, 0, 99, 51
1, 116503, Note_on_c, 0, 100, 0
1, 116532, Note_on_c, 0, 99, 0
1, 116554, Note_on_c, 0, 98, 70
1, 116587, Note_on_c, 0, 98, 0
1, 116609, Note_on_c, 0, 99, 43
1, 116663, Note_on_c, 0, 98, 54
1, 116682, Note_on_c, 0, 99, 0
1, 116724, Note_on_c, 0, 97, 46
1, 116730, Note_on_c, 0, 98, 0
1, 116765, Note_on_c, 0, 97, 0
1, 116777, Note_on_c, 0, 96, 56
1, 116813, Note_on_c, 0, 96, 0
1, 116826, Note_on_c, 0, 97, 48
1, 116877, Note_on_c, 0, 96, 50
1, 116921, Note_on_c, 0, 97, 0
1, 116950, Note_on_c, 0, 95, 57
1, 116968, Note_on_c, 0, 96, 0
1, 116985, Note_on_c, 0, 95, 0
1, 116989, Note_on_c, 0, 94, 59
1, 117022, Note_on_c, 0, 94, 0
1, 117047, Note_on_c, 0, 95, 44
1, 117120, Note_on_c, 0, 94, 42
1, 117141, Note_on_c, 0, 95, 0
1, 117211, Note_on_c, 0, 94, 0
1, 117219, Note_on_c, 0, 92, 50
1, 117261, Note_on_c, 0, 92, 0
1, 117269, Note_on_c, 0, 93, 63
1, 117322, Note_on_c, 0, 92, 31
1, 117343, Note_on_c, 0, 93, 0
1, 117390, Note_on_c, 0, 91, 47
1, 117404, Note_on_c, 0, 92, 0
1, 117431, Note_on_c, 0, 91, 0
1, 117434, Note_on_c, 0, 90, 54
1, 117475, Note_on_c, 0, 90, 0
1, 117481, Note_on_c, 0, 91, 68
1, 117520, Control_c, 0, 64, 0
1, 117546, Note_on_c, 0, 90, 29
1, 117576, Note_on_c, 0, 91, 0
1, 117607, Note_on_c, 0, 89, 55
1, 117634, Note_on_c, 0, 90, 0
1, 117645, Note_on_c, 0, 89, 0
1, 117660, Note_on_c, 0, 88, 58
1, 117698, Note_on_c, 0, 88, 0
1, 117698, Control_c, 0, 64, 127
1, 117705, Note_on_c, 0, 90, 46
1, 117762, Note_on_c, 0, 88, 48
1, 117797, Note_on_c, 0, 90, 0
1, 117830, Note_on_c, 0, 87, 55
1, 117854, Note_on_c, 0, 88, 0
1, 117871, Note_on_c, 0, 87, 0
1, 117888, Note_on_c, 0, 86, 59
1, 117927, Note_on_c, 0, 86, 0
1, 117938, Note_on_c, 0, 87, 52
1, 117992, Note_on_c, 0, 86, 47
1, 118010, Control_c, 0, 64, 0
1, 118028, Note_on_c, 0, 87, 0
1, 118049, Note_on_c, 0, 85, 68
1, 118081, Note_on_c, 0, 86, 0
1, 118099, Note_on_c, 0, 85, 0
1, 118113, Note_on_c, 0, 84, 50
1, 118150, Note_on_c, 0, 84, 0
1, 118155, Note_on_c, 0, 85, 67
1, 118155, Control_c, 0, 64, 127
1, 118205, Note_on_c, 0, 84, 52
1, 118256, Note_on_c, 0, 85, 0
1, 118276, Note_on_c, 0, 83, 88
1, 118286, Note_on_c, 0, 84, 0
1, 118314, Note_on_c, 0, 83, 0
1, 118334, Note_on_c, 0, 82, 57
1, 118369, Note_on_c, 0, 82, 0
1, 118392, Note_on_c, 0, 83, 73
1, 118435, Note_on_c, 0, 82, 37
1, 118476, Note_on_c, 0, 83, 0
1, 118504, Note_on_c, 0, 81, 66
1, 118528, Note_on_c, 0, 82, 0
1, 118543, Note_on_c, 0, 81, 0
1, 118565, Note_on_c, 0, 80, 52
1, 118618, Note_on_c, 0, 81, 51
1, 118645, Note_on_c, 0, 80, 0
1, 118677, Note_on_c, 0, 80, 28
1, 118684, Note_on_c, 0, 81, 0
1, 118738, Note_on_c, 0, 79, 57
1, 118763, Note_on_c, 0, 80, 0
1, 118777, Note_on_c, 0, 79, 0
1, 118777, Note_on_c, 0, 78, 74
1, 118811, Note_on_c, 0, 78, 0
1, 118832, Note_on_c, 0, 79, 65
1, 118897, Note_on_c, 0, 78, 50
1, 118924, Note_on_c, 0, 79, 0
1, 118960, Note_on_c, 0, 77, 63
1, 118974, Note_on_c, 0, 78, 0
1, 118997, Note_on_c, 0, 77, 0
1, 119011, Note_on_c, 0, 76, 63
1, 119052, Note_on_c, 0, 76, 0
1, 119069, Note_on_c, 0, 78, 56
1, 119123, Note_on_c, 0, 76, 52
1, 119159, Note_on_c, 0, 78, 0
1, 119184, Note_on_c, 0, 75, 73
1, 119220, Note_on_c, 0, 76, 0
1, 119250, Note_on_c, 0, 74, 67
1, 119250, Note_on_c, 0, 75, 0
1, 119286, Note_on_c, 0, 74, 0
1, 119300, Note_on_c, 0, 75, 71
1, 119343, Note_on_c, 0, 74, 67
1, 119392, Note_on_c, 0, 75, 0
1, 119411, Note_on_c, 0, 73, 69
1, 119426, Note_on_c, 0, 74, 0
1, 119474, Note_on_c, 0, 72, 50
1, 119484, Note_on_c, 0, 73, 0
1, 119517, Note_on_c, 0, 72, 0
1, 119526, Note_on_c, 0, 73, 68
1, 119560, Note_on_c, 0, 72, 69
1, 119616, Note_on_c, 0, 73, 0
1, 119632, Note_on_c, 0, 71, 78
1, 119645, Note_on_c, 0, 72, 0
1, 119676, Note_on_c, 0, 71, 0
1, 119687, Note_on_c, 0, 70, 66
1, 119726, Note_on_c, 0, 70, 0
1, 119755, Note_on_c, 0, 71, 39
1, 119799, Note_on_c, 0, 70, 53
1, 119844, Note_on_c, 0, 71, 0
1, 119858, Note_on_c, 0, 69, 67
1, 119891, Note_on_c, 0, 70, 0
1, 119910, Note_on_c, 0, 69, 0
1, 119925, Note_on_c, 0, 68, 55
1, 119967, Note_on_c, 0, 68, 0
1, 119977, Note_on_c, 0, 69, 49
1, 120028, Note_on_c, 0, 68, 45
1, 120084, Note_on_c, 0, 69, 0
1, 120094, Note_on_c, 0, 67, 69
1, 120117, Note_on_c, 0, 68, 0
1, 120136, Note_on_c, 0, 67, 0
1, 120153, Note_on_c, 0, 66, 57
1, 120200, Note_on_c, 0, 66, 0
1, 120206, Note_on_c, 0, 67, 59
1, 120251, Note_on_c, 0, 43, 53
1, 120264, Control_c, 0, 64, 0
1, 120268, Note_on_c, 0, 66, 53
1, 120325, Note_on_c, 0, 67, 0
1, 120325, Note_on_c, 0, 43, 0
1, 120348, Note_on_c, 0, 65, 22
1, 120371, Control_c, 0, 64, 127
1, 120371, Note_on_c, 0, 58, 57
1, 120375, Note_on_c, 0, 64, 43
1, 120375, Note_on_c, 0, 66, 0
1, 120401, Note_on_c, 0, 65, 0
1, 120465, Note_on_c, 0, 64, 0
1, 120468, Note_on_c, 0, 62, 58
1, 120490, Note_on_c, 0, 58, 0
1, 120506, Note_on_c, 0, 62, 0
1, 120524, Note_on_c, 0, 61, 71
1, 120529, Note_on_c, 0, 64, 75
1, 120570, Note_on_c, 0, 61, 0
1, 120573, Note_on_c, 0, 64, 0
1, 120604, Note_on_c, 0, 63, 64
1, 120666, Note_on_c, 0, 65, 63
1, 120685, Note_on_c, 0, 63, 0
1, 120704, Note_on_c, 0, 65, 0
1, 120716, Note_on_c, 0, 64, 73
1, 120752, Note_on_c, 0, 64, 0
1, 120786, Note_on_c, 0, 66, 64
1, 120822, Note_on_c, 0, 66, 0
1, 120841, Note_on_c, 0, 65, 63
1, 120878, Note_on_c, 0, 67, 48
1, 120878, Note_on_c, 0, 65, 0
1, 120930, Note_on_c, 0, 66, 68
1, 120946, Note_on_c, 0, 67, 0
1, 120992, Note_on_c, 0, 68, 63
1, 121022, Note_on_c, 0, 66, 0
1, 121022, Note_on_c, 0, 68, 0
1, 121033, Note_on_c, 0, 67, 69
1, 121091, Note_on_c, 0, 69, 61
1, 121116, Note_on_c, 0, 67, 0
1, 121147, Note_on_c, 0, 68, 68
1, 121197, Note_on_c, 0, 70, 69
1, 121200, Note_on_c, 0, 69, 0
1, 121228, Note_on_c, 0, 68, 0
1, 121237, Note_on_c, 0, 70, 0
1, 121243, Note_on_c, 0, 69, 72
1, 121314, Note_on_c, 0, 71, 63
1, 121334, Note_on_c, 0, 69, 0
1, 121359, Note_on_c, 0, 70, 62
1, 121387, Note_on_c, 0, 71, 0
1, 121421, Note_on_c, 0, 72, 65
1, 121438, Note_on_c, 0, 70, 0
1, 121449, Note_on_c, 0, 71, 74
1, 121456, Note_on_c, 0, 72, 0
1, 121504, Note_on_c, 0, 71, 0
1, 121524, Note_on_c, 0, 73, 71
1, 121590, Note_on_c, 0, 72, 53
1, 121604, Note_on_c, 0, 73, 0
1, 121610, Note_on_c, 0, 74, 73
1, 121627, Note_on_c, 0, 72, 0
1, 121660, Note_on_c, 0, 73, 52
1, 121699, Note_on_c, 0, 74, 0
1, 121729, Note_on_c, 0, 75, 81
1, 121743, Note_on_c, 0, 73, 0
1, 121754, Note_on_c, 0, 75, 0
1, 121771, Note_on_c, 0, 74, 80
1, 121802, Note_on_c, 0, 74, 0
1, 121850, Note_on_c, 0, 76, 62
1, 121886, Note_on_c, 0, 76, 0
1, 121894, Note_on_c, 0, 75, 81
1, 121938, Note_on_c, 0, 75, 0
1, 121972, Note_on_c, 0, 77, 54
1, 122005, Note_on_c, 0, 76, 81
1, 122009, Note_on_c, 0, 77, 0
1, 122036, Note_on_c, 0, 76, 0
1, 122073, Note_on_c, 0, 78, 75
1, 122112, Note_on_c, 0, 78, 0
1, 122122, Note_on_c, 0, 77, 81
1, 122148, Note_on_c, 0, 77, 0
1, 122192, Note_on_c, 0, 79, 88
1, 122222, Note_on_c, 0, 79, 0
1, 122228, Note_on_c, 0, 78, 79
1, 122276, Note_on_c, 0, 78, 0
1, 122298, Note_on_c, 0, 80, 82
1, 122336, Note_on_c, 0, 80, 0
1, 122336, Note_on_c, 0, 79, 84
1, 122368, Note_on_c, 0, 79, 0
1, 122417, Note_on_c, 0, 81, 82
1, 122445, Note_on_c, 0, 81, 0
1, 122457, Note_on_c, 0, 80, 81
1, 122499, Note_on_c, 0, 80, 0
1, 122518, Note_on_c, 0, 82, 79
1, 122570, Note_on_c, 0, 81, 73
1, 122570, Note_on_c, 0, 82, 0
1, 122602, Note_on_c, 0, 81, 0
1, 122637, Note_on_c, 0, 83, 106
1, 122665, Note_on_c, 0, 83, 0
1, 122687, Note_on_c, 0, 82, 81
1, 122733, Note_on_c, 0, 82, 0
1, 122750, Note_on_c, 0, 84, 91
1, 122783, Note_on_c, 0, 84, 0
1, 122807, Note_on_c, 0, 83, 101
1, 122836, Note_on_c, 0, 83, 0
1, 122855, Note_on_c, 0, 85, 89
1, 122916, Note_on_c, 0, 84, 92
1, 122916, Note_on_c, 0, 85, 0
1, 122974, Note_on_c, 0, 84, 0
1, 122978, Note_on_c, 0, 86, 95
1, 123011, Note_on_c, 0, 86, 0
1, 123039, Note_on_c, 0, 85, 88
1, 123056, Control_c, 0, 64, 0
1, 123092, Note_on_c, 0, 87, 86
1, 123115, Note_on_c, 0, 85, 0
1, 123144, Note_on_c, 0, 86, 91
1, 123158, Note_on_c, 0, 87, 0
1, 123164, Control_c, 0, 64, 127
1, 123181, Note_on_c, 0, 86, 0
1, 123212, Note_on_c, 0, 88, 90
1, 123243, Note_on_c, 0, 88, 0
1, 123257, Note_on_c, 0, 87, 86
1, 123317, Note_on_c, 0, 89, 91
1, 123337, Note_on_c, 0, 87, 0
1, 123356, Note_on_c, 0, 89, 0
1, 123368, Note_on_c, 0, 88, 87
1, 123420, Note_on_c, 0, 88, 0
1, 123424, Note_on_c, 0, 90, 82
1, 123473, Note_on_c, 0, 90, 0
1, 123481, Note_on_c, 0, 89, 88
1, 123526, Note_on_c, 0, 89, 0
1, 123548, Note_on_c, 0, 91, 83
1, 123577, Note_on_c, 0, 91, 0
1, 123601, Note_on_c, 0, 90, 83
1, 123633, Note_on_c, 0, 90, 0
1, 123661, Note_on_c, 0, 92, 80
1, 123702, Note_on_c, 0, 92, 0
1, 123702, Note_on_c, 0, 91, 84
1, 123735, Note_on_c, 0, 91, 0
1, 123771, Note_on_c, 0, 93, 94
1, 123807, Note_on_c, 0, 93, 0
1, 123832, Note_on_c, 0, 92, 83
1, 123866, Note_on_c, 0, 92, 0
1, 123885, Note_on_c, 0, 94, 75
1, 123928, Note_on_c, 0, 94, 0
1, 123945, Note_on_c, 0, 93, 80
1, 123977, Note_on_c, 0, 93, 0
1, 123998, Note_on_c, 0, 95, 84
1, 124033, Note_on_c, 0, 95, 0
1, 124062, Note_on_c, 0, 94, 80
1, 124101, Note_on_c, 0, 94, 0
1, 124126, Note_on_c, 0, 96, 70
1, 124159, Note_on_c, 0, 96, 0
1, 124184, Note_on_c, 0, 95, 51
1, 124208, Note_on_c, 0, 96, 37
1, 124226, Note_on_c, 0, 95, 0
1, 124240, Note_on_c, 0, 97, 53
1, 124262, Note_on_c, 0, 96, 0
1, 124276, Note_on_c, 0, 97, 0
1, 124309, Note_on_c, 0, 96, 73
1, 124340, Note_on_c, 0, 96, 0
1, 124359, Note_on_c, 0, 98, 82
1, 124396, Note_on_c, 0, 98, 0
1, 124434, Note_on_c, 0, 97, 70
1, 124466, Note_on_c, 0, 97, 0
1, 124519, Note_on_c, 0, 99, 53
1, 124554, Note_on_c, 0, 99, 0
1, 124587, Note_on_c, 0, 98, 82
1, 124615, Control_c, 0, 64, 0
1, 124622, Note_on_c, 0, 98, 0
1, 124666, Note_on_c, 0, 100, 53
1, 124702, Note_on_c, 0, 100, 0
1, 124727, Note_on_c, 0, 98, 78
1, 124768, Note_on_c, 0, 98, 0
1, 124782, Control_c, 0, 64, 127
1, 124789, Note_on_c, 0, 99, 56
1, 124828, Note_on_c, 0, 99, 0
1, 124850, Note_on_c, 0, 98, 79
1, 124903, Note_on_c, 0, 98, 0
1, 124920, Note_on_c, 0, 100, 61
1, 124952, Note_on_c, 0, 100, 0
1, 124973, Note_on_c, 0, 98, 72
1, 125023, Note_on_c, 0, 98, 0
1, 125045, Note_on_c, 0, 99, 67
1, 125084, Note_on_c, 0, 99, 0
1, 125106, Note_on_c, 0, 98, 79
1, 125153, Note_on_c, 0, 98, 0
1, 125178, Note_on_c, 0, 100, 73
1, 125206, Note_on_c, 0, 100, 0
1, 125239, Note_on_c, 0, 98, 83
1, 125296, Note_on_c, 0, 98, 0
1, 125307, Note_on_c, 0, 99, 83
1, 125356, Note_on_c, 0, 99, 0
1, 125373, Note_on_c, 0, 98, 85
1, 125435, Note_on_c, 0, 98, 0
1, 125446, Note_on_c, 0, 100, 78
1, 125474, Note_on_c, 0, 100, 0
1, 125502, Note_on_c, 0, 98, 83
1, 125560, Note_on_c, 0, 98, 0
1, 125569, Note_on_c, 0, 99, 76
1, 125610, Note_on_c, 0, 99, 0
1, 125630, Note_on_c, 0, 98, 85
1, 125696, Note_on_c, 0, 98, 0
1, 125711, Note_on_c, 0, 100, 75
1, 125741, Note_on_c, 0, 100, 0
1, 125772, Note_on_c, 0, 98, 81
1, 125824, Note_on_c, 0, 98, 0
1, 125855, Note_on_c, 0, 99, 69
1, 125884, Note_on_c, 0, 99, 0
1, 125923, Note_on_c, 0, 98, 89
1, 125980, Note_on_c, 0, 98, 0
1, 126011, Note_on_c, 0, 100, 71
1, 126042, Note_on_c, 0, 100, 0
1, 126090, Note_on_c, 0, 98, 88
1, 126153, Note_on_c, 0, 98, 0
1, 126197, Note_on_c, 0, 99, 80
1, 126292, Control_c, 0, 64, 0
1, 126321, Note_on_c, 0, 100, 70
1, 126331, Note_on_c, 0, 99, 0
1, 126406, Note_on_c, 0, 99, 65
1, 126426, Note_on_c, 0, 100, 0
1, 126494, Note_on_c, 0, 100, 56
1, 126497, Note_on_c, 0, 99, 0
1, 126532, Control_c, 0, 64, 127
1, 126582, Note_on_c, 0, 99, 60
1, 126585, Note_on_c, 0, 100, 0
1, 126638, Note_on_c, 0, 99, 0
1, 126643, Note_on_c, 0, 100, 60
1, 126710, Note_on_c, 0, 100, 0
1, 126724, Note_on_c, 0, 99, 57
1, 126761, Note_on_c, 0, 99, 0
1, 126782, Note_on_c, 0, 100, 49
1, 126827, Note_on_c, 0, 100, 0
1, 126845, Note_on_c, 0, 99, 47
1, 126884, Note_on_c, 0, 99, 0
1, 126914, Note_on_c, 0, 100, 32
1, 126956, Note_on_c, 0, 100, 0
1, 126962, Note_on_c, 0, 99, 38
1, 127009, Note_on_c, 0, 99, 0
1, 127026, Note_on_c, 0, 100, 37
1, 127072, Control_c, 0, 64, 0
1, 127076, Note_on_c, 0, 100, 0
1, 127081, Note_on_c, 0, 99, 61
1, 127168, Note_on_c, 0, 99, 0
1, 127179, Control_c, 0, 64, 127
1, 127189, Note_on_c, 0, 100, 27
1, 127231, Note_on_c, 0, 99, 49
1, 127240, Note_on_c, 0, 100, 0
1, 127284, Note_on_c, 0, 99, 0
1, 127298, Note_on_c, 0, 100, 50
1, 127345, Note_on_c, 0, 100, 0
1, 127376, Note_on_c, 0, 99, 43
1, 127413, Note_on_c, 0, 99, 0
1, 127426, Note_on_c, 0, 100, 42
1, 127471, Note_on_c, 0, 100, 0
1, 127484, Note_on_c, 0, 99, 33
1, 127532, Note_on_c, 0, 99, 0
1, 127549, Note_on_c, 0, 100, 35
1, 127596, Note_on_c, 0, 100, 0
1, 127602, Note_on_c, 0, 99, 38
1, 127650, Note_on_c, 0, 99, 0
1, 127663, Note_on_c, 0, 100, 36
1, 127705, Note_on_c, 0, 100, 0
1, 127714, Note_on_c, 0, 99, 46
1, 127756, Note_on_c, 0, 99, 0
1, 127767, Note_on_c, 0, 100, 43
1, 127822, Note_on_c, 0, 100, 0
1, 127827, Control_c, 0, 64, 0
1, 127842, Note_on_c, 0, 99, 62
1, 127908, Note_on_c, 0, 99, 0
1, 127920, Note_on_c, 0, 100, 38
1, 127952, Control_c, 0, 64, 127
1, 127962, Note_on_c, 0, 100, 0
1, 127969, Note_on_c, 0, 99, 50
1, 128023, Note_on_c, 0, 99, 0
1, 128033, Note_on_c, 0, 100, 42
1, 128079, Note_on_c, 0, 100, 0
1, 128092, Note_on_c, 0, 99, 43
1, 128142, Note_on_c, 0, 99, 0
1, 128153, Note_on_c, 0, 100, 36
1, 128195, Note_on_c, 0, 100, 0
1, 128210, Note_on_c, 0, 99, 52
1, 128282, Note_on_c, 0, 100, 35
1, 128290, Note_on_c, 0, 99, 0
1, 128326, Note_on_c, 0, 100, 0
1, 128341, Note_on_c, 0, 75, 40
1, 128351, Note_on_c, 0, 99, 47
1, 128384, Note_on_c, 0, 75, 0
1, 128404, Note_on_c, 0, 100, 34
1, 128412, Note_on_c, 0, 99, 0
1, 128458, Note_on_c, 0, 100, 0
1, 128479, Note_on_c, 0, 99, 48
1, 128551, Note_on_c, 0, 99, 0
1, 128555, Note_on_c, 0, 100, 33
1, 128605, Note_on_c, 0, 100, 0
1, 128630, Note_on_c, 0, 99, 41
1, 128639, Note_on_c, 0, 87, 55
1, 128654, Control_c, 0, 64, 0
1, 128700, Note_on_c, 0, 100, 33
1, 128713, Note_on_c, 0, 99, 0
1, 128742, Note_on_c, 0, 87, 0
1, 128742, Note_on_c, 0, 100, 0
1, 128769, Note_on_c, 0, 99, 61
1, 128824, Note_on_c, 0, 99, 0
1, 128841, Note_on_c, 0, 100, 34
1, 128886, Note_on_c, 0, 100, 0
1, 128886, Note_on_c, 0, 99, 57
1, 128906, Note_on_c, 0, 87, 68
1, 128953, Note_on_c, 0, 100, 50
1, 128975, Note_on_c, 0, 87, 0
1, 128978, Note_on_c, 0, 99, 0
1, 129015, Note_on_c, 0, 100, 0
1, 129029, Note_on_c, 0, 99, 67
1, 129067, Note_on_c, 0, 99, 0
1, 129084, Note_on_c, 0, 100, 42
1, 129120, Control_c, 0, 64, 127
1, 129143, Note_on_c, 0, 100, 0
1, 129148, Note_on_c, 0, 99, 62
1, 129148, Note_on_c, 0, 85, 70
1, 129181, Note_on_c, 0, 85, 0
1, 129215, Note_on_c, 0, 100, 54
1, 129240, Note_on_c, 0, 99, 0
1, 129287, Note_on_c, 0, 100, 0
1, 129296, Note_on_c, 0, 99, 61
1, 129318, Note_on_c, 0, 68, 50
1, 129332, Note_on_c, 0, 99, 0
1, 129349, Note_on_c, 0, 100, 49
1, 129354, Note_on_c, 0, 68, 0
1, 129388, Note_on_c, 0, 100, 0
1, 129402, Note_on_c, 0, 99, 50
1, 129409, Note_on_c, 0, 83, 97
1, 129409, Note_on_c, 0, 87, 58
1, 129443, Note_on_c, 0, 87, 0
1, 129463, Note_on_c, 0, 83, 0
1, 129468, Note_on_c, 0, 100, 45
1, 129507, Note_on_c, 0, 100, 0
1, 129529, Control_c, 0, 64, 0
1, 129600, Note_on_c, 0, 100, 37
1, 129611, Note_on_c, 0, 99, 0
1, 129639, Note_on_c, 0, 100, 0
1, 129650, Note_on_c, 0, 87, 62
1, 129667, Note_on_c, 0, 99, 61
1, 129675, Note_on_c, 0, 83, 89
1, 129682, Note_on_c, 0, 87, 0
1, 129716, Note_on_c, 0, 99, 0
1, 129719, Note_on_c, 0, 83, 0
1, 129725, Note_on_c, 0, 100, 33
1, 129764, Note_on_c, 0, 100, 0
1, 129772, Note_on_c, 0, 99, 69
1, 129833, Note_on_c, 0, 100, 37
1, 129859, Note_on_c, 0, 99, 0
1, 129863, Control_c, 0, 64, 127
1, 129900, Note_on_c, 0, 100, 0
1, 129908, Note_on_c, 0, 87, 42
1, 129926, Note_on_c, 0, 99, 45
1, 129926, Note_on_c, 0, 82, 56
1, 129948, Note_on_c, 0, 87, 0
1, 129967, Note_on_c, 0, 99, 0
1, 129967, Note_on_c, 0, 100, 50
1, 129978, Note_on_c, 0, 82, 0
1, 130009, Note_on_c, 0, 100, 0
1, 130025, Note_on_c, 0, 99, 56
1, 130031, Control_c, 0, 64, 0
1, 130101, Note_on_c, 0, 100, 47
1, 130120, Note_on_c, 0, 99, 0
1, 130165, Note_on_c, 0, 80, 48
1, 130171, Note_on_c, 0, 99, 71
1, 130175, Note_on_c, 0, 100, 0
1, 130185, Note_on_c, 0, 87, 33
1, 130193, Note_on_c, 0, 71, 33
1, 130207, Note_on_c, 0, 99, 0
1, 130212, Note_on_c, 0, 80, 0
1, 130235, Note_on_c, 0, 87, 0
1, 130245, Note_on_c, 0, 100, 52
1, 130245, Note_on_c, 0, 71, 0
1, 130248, Control_c, 0, 64, 127
1, 130282, Note_on_c, 0, 100, 0
1, 130295, Note_on_c, 0, 99, 59
1, 130355, Note_on_c, 0, 100, 46
1, 130362, Note_on_c, 0, 99, 0
1, 130402, Note_on_c, 0, 100, 0
1, 130415, Control_c, 0, 64, 0
1, 130423, Note_on_c, 0, 99, 63
1, 130427, Note_on_c, 0, 87, 43
1, 130441, Note_on_c, 0, 79, 55
1, 130468, Note_on_c, 0, 87, 0
1, 130490, Note_on_c, 0, 99, 0
1, 130496, Note_on_c, 0, 79, 0
1, 130496, Note_on_c, 0, 100, 54
1, 130536, Note_on_c, 0, 100, 0
1, 130550, Note_on_c, 0, 99, 68
1, 130614, Note_on_c, 0, 100, 45
1, 130638, Note_on_c, 0, 99, 0
1, 130678, Note_on_c, 0, 100, 0
1, 130678, Note_on_c, 0, 80, 56
1, 130688, Note_on_c, 0, 87, 38
1, 130705, Note_on_c, 0, 99, 51
1, 130730, Note_on_c, 0, 87, 0
1, 130730, Note_on_c, 0, 80, 0
1, 130749, Note_on_c, 0, 99, 0
1, 130749, Note_on_c, 0, 100, 52
1, 130791, Note_on_c, 0, 100, 0
1, 130808, Note_on_c, 0, 99, 66
1, 130870, Note_on_c, 0, 100, 35
1, 130883, Note_on_c, 0, 99, 0
1, 130920, Note_on_c, 0, 82, 55
1, 130930, Note_on_c, 0, 87, 46
1, 130930, Control_c, 0, 64, 127
1, 130930, Note_on_c, 0, 100, 0
1, 130942, Note_on_c, 0, 79, 46
1, 130942, Note_on_c, 0, 99, 60
1, 130965, Note_on_c, 0, 87, 0
1, 130979, Note_on_c, 0, 82, 0
1, 130990, Note_on_c, 0, 100, 55
1, 130990, Note_on_c, 0, 99, 0
1, 131003, Note_on_c, 0, 79, 0
1, 131043, Note_on_c, 0, 100, 0
1, 131057, Note_on_c, 0, 99, 66
1, 131107, Note_on_c, 0, 100, 44
1, 131111, Note_on_c, 0, 99, 0
1, 131162, Note_on_c, 0, 100, 0
1, 131176, Note_on_c, 0, 99, 62
1, 131176, Note_on_c, 0, 87, 49
1, 131192, Note_on_c, 0, 75, 33
1, 131217, Note_on_c, 0, 87, 0
1, 131238, Note_on_c, 0, 75, 0
1, 131262, Note_on_c, 0, 100, 54
1, 131282, Note_on_c, 0, 99, 0
1, 131301, Note_on_c, 0, 100, 0
1, 131313, Note_on_c, 0, 99, 39
1, 131326, Control_c, 0, 64, 0
1, 131379, Note_on_c, 0, 100, 44
1, 131408, Note_on_c, 0, 99, 0
1, 131446, Note_on_c, 0, 100, 0
1, 131446, Note_on_c, 0, 87, 45
1, 131457, Note_on_c, 0, 75, 48
1, 131463, Note_on_c, 0, 99, 49
1, 131486, Note_on_c, 0, 87, 0
1, 131508, Note_on_c, 0, 75, 0
1, 131516, Note_on_c, 0, 99, 0
1, 131524, Note_on_c, 0, 100, 49
1, 131563, Note_on_c, 0, 100, 0
1, 131574, Note_on_c, 0, 99, 55
1, 131624, Note_on_c, 0, 100, 46
1, 131633, Note_on_c, 0, 99, 0
1, 131686, Note_on_c, 0, 100, 0
1, 131692, Note_on_c, 0, 87, 43
1, 131696, Note_on_c, 0, 99, 58
1, 131706, Note_on_c, 0, 76, 55
1, 131713, Note_on_c, 0, 70, 40
1, 131733, Control_c, 0, 64, 127
1, 131733, Note_on_c, 0, 87, 0
1, 131739, Note_on_c, 0, 67, 24
1, 131752, Note_on_c, 0, 76, 0
1, 131755, Note_on_c, 0, 100, 54
1, 131781, Note_on_c, 0, 70, 0
1, 131781, Note_on_c, 0, 99, 0
1, 131806, Note_on_c, 0, 67, 0
1, 131806, Note_on_c, 0, 100, 0
1, 131831, Note_on_c, 0, 99, 48
1, 131880, Note_on_c, 0, 100, 48
1, 131887, Note_on_c, 0, 99, 0
1, 131947, Note_on_c, 0, 100, 0
1, 131947, Note_on_c, 0, 99, 60
1, 131956, Note_on_c, 0, 87, 38
1, 131956, Note_on_c, 0, 75, 57
1, 131997, Note_on_c, 0, 87, 0
1, 131997, Control_c, 0, 64, 0
1, 132006, Note_on_c, 0, 75, 0
1, 132020, Note_on_c, 0, 100, 55
1, 132064, Note_on_c, 0, 100, 0
1, 132142, Note_on_c, 0, 100, 50
1, 132168, Note_on_c, 0, 99, 0
1, 132193, Note_on_c, 0, 87, 55
1, 132201, Note_on_c, 0, 100, 0
1, 132201, Note_on_c, 0, 73, 48
1, 132226, Note_on_c, 0, 99, 42
1, 132226, Note_on_c, 0, 87, 0
1, 132251, Note_on_c, 0, 73, 0
1, 132271, Note_on_c, 0, 99, 0
1, 132271, Note_on_c, 0, 100, 46
1, 132310, Note_on_c, 0, 100, 0
1, 132324, Note_on_c, 0, 99, 72
1, 132390, Note_on_c, 0, 100, 29
1, 132421, Note_on_c, 0, 99, 0
1, 132436, Note_on_c, 0, 87, 57
1, 132439, Note_on_c, 0, 100, 0
1, 132444, Note_on_c, 0, 71, 59
1, 132452, Control_c, 0, 64, 127
1, 132457, Note_on_c, 0, 68, 43
1, 132457, Note_on_c, 0, 99, 38
1, 132474, Note_on_c, 0, 87, 0
1, 132493, Note_on_c, 0, 71, 0
1, 132507, Note_on_c, 0, 68, 0
1, 132518, Note_on_c, 0, 100, 43
1, 132532, Note_on_c, 0, 99, 0
1, 132547, Control_c, 0, 64, 0
1, 132557, Note_on_c, 0, 100, 0
1, 132575, Note_on_c, 0, 99, 59
1, 132638, Note_on_c, 0, 100, 30
1, 132675, Note_on_c, 0, 99, 0
1, 132688, Note_on_c, 0, 87, 57
1, 132688, Note_on_c, 0, 100, 0
1, 132688, Note_on_c, 0, 71, 61
1, 132699, Note_on_c, 0, 68, 41
1, 132706, Note_on_c, 0, 99, 19
1, 132716, Control_c, 0, 64, 127
1, 132722, Note_on_c, 0, 87, 0
1, 132736, Note_on_c, 0, 71, 0
1, 132745, Note_on_c, 0, 68, 0
1, 132759, Note_on_c, 0, 100, 51
1, 132773, Note_on_c, 0, 99, 0
1, 132800, Note_on_c, 0, 100, 0
1, 132800, Control_c, 0, 64, 0
1, 132816, Note_on_c, 0, 99, 52
1, 132881, Note_on_c, 0, 100, 39
1, 132909, Note_on_c, 0, 99, 0
1, 132933, Note_on_c, 0, 100, 0
1, 132933, Note_on_c, 0, 70, 46
1, 132933, Note_on_c, 0, 87, 57
1, 132943, Note_on_c, 0, 66, 33
1, 132950, Note_on_c, 0, 99, 39
1, 132967, Note_on_c, 0, 87, 0
1, 132981, Note_on_c, 0, 70, 0
1, 132990, Control_c, 0, 64, 127
1, 133001, Note_on_c, 0, 66, 0
1, 133021, Note_on_c, 0, 99, 0
1, 133021, Note_on_c, 0, 100, 30
1, 133062, Note_on_c, 0, 99, 62
1, 133062, Note_on_c, 0, 100, 0
1, 133110, Control_c, 0, 64, 0
1, 133120, Note_on_c, 0, 100, 59
1, 133159, Note_on_c, 0, 99, 0
1, 133193, Note_on_c, 0, 87, 64
1, 133199, Note_on_c, 0, 100, 0
1, 133199, Note_on_c, 0, 99, 62
1, 133204, Note_on_c, 0, 68, 48
1, 133226, Note_on_c, 0, 87, 0
1, 133243, Note_on_c, 0, 64, 22
1, 133260, Note_on_c, 0, 68, 0
1, 133268, Note_on_c, 0, 100, 46
1, 133291, Control_c, 0, 64, 127
1, 133299, Note_on_c, 0, 64, 0
1, 133312, Note_on_c, 0, 100, 0
1, 133382, Note_on_c, 0, 100, 41
1, 133399, Note_on_c, 0, 99, 0
1, 133411, Control_c, 0, 64, 0
1, 133429, Note_on_c, 0, 87, 65
1, 133440, Note_on_c, 0, 100, 0
1, 133452, Note_on_c, 0, 99, 66
1, 133463, Note_on_c, 0, 87, 0
1, 133472, Note_on_c, 0, 67, 27
1, 133522, Note_on_c, 0, 100, 43
1, 133528, Note_on_c, 0, 99, 0
1, 133544, Note_on_c, 0, 67, 0
1, 133555, Control_c, 0, 64, 127
1, 133561, Note_on_c, 0, 100, 0
1, 133574, Note_on_c, 0, 99, 49
1, 133627, Note_on_c, 0, 100, 41
1, 133638, Control_c, 0, 64, 0
1, 133664, Note_on_c, 0, 99, 0
1, 133702, Note_on_c, 0, 100, 0
1, 133702, Note_on_c, 0, 87, 52
1, 133717, Note_on_c, 0, 68, 35
1, 133727, Note_on_c, 0, 99, 46
1, 133738, Note_on_c, 0, 87, 0
1, 133767, Note_on_c, 0, 100, 52
1, 133772, Note_on_c, 0, 99, 0
1, 133777, Note_on_c, 0, 68, 0
1, 133806, Control_c, 0, 64, 127
1, 133812, Note_on_c, 0, 100, 0
1, 133828, Note_on_c, 0, 99, 59
1, 133878, Control_c, 0, 64, 0
1, 133892, Note_on_c, 0, 100, 50
1, 133926, Note_on_c, 0, 99, 0
1, 133961, Note_on_c, 0, 70, 31
1, 133968, Note_on_c, 0, 87, 49
1, 133968, Note_on_c, 0, 67, 23
1, 133979, Note_on_c, 0, 100, 0
1, 133986, Note_on_c, 0, 99, 56
1, 134004, Note_on_c, 0, 87, 0
1, 134039, Note_on_c, 0, 67, 0
1, 134039, Note_on_c, 0, 100, 48
1, 134051, Note_on_c, 0, 99, 0
1, 134070, Control_c, 0, 64, 127
1, 134090, Note_on_c, 0, 100, 0
1, 134110, Note_on_c, 0, 99, 50
1, 134153, Note_on_c, 0, 70, 0
1, 134167, Note_on_c, 0, 100, 39
1, 134170, Note_on_c, 0, 99, 0
1, 134246, Note_on_c, 0, 100, 0
1, 134254, Note_on_c, 0, 99, 40
1, 134266, Note_on_c, 0, 87, 18
1, 134284, Note_on_c, 0, 63, 37
1, 134316, Note_on_c, 0, 87, 0
1, 134324, Note_on_c, 0, 100, 37
1, 134332, Note_on_c, 0, 63, 0
1, 134344, Note_on_c, 0, 99, 0
1, 134366, Note_on_c, 0, 100, 0
1, 134390, Note_on_c, 0, 99, 35
1, 134460, Note_on_c, 0, 100, 39
1, 134466, Note_on_c, 0, 99, 0
1, 134513, Note_on_c, 0, 100, 0
1, 134525, Note_on_c, 0, 99, 57
1, 134539, Note_on_c, 0, 87, 33
1, 134588, Note_on_c, 0, 87, 0
1, 134588, Note_on_c, 0, 99, 0
1, 134608, Note_on_c, 0, 100, 48
1, 134649, Note_on_c, 0, 100, 0
1, 134664, Note_on_c, 0, 99, 59
1, 134716, Note_on_c, 0, 63, 36
1, 134728, Control_c, 0, 64, 0
1, 134740, Note_on_c, 0, 100, 42
1, 134744, Note_on_c, 0, 99, 0
1, 134784, Note_on_c, 0, 63, 0
1, 134808, Note_on_c, 0, 100, 0
1, 134822, Note_on_c, 0, 87, 44
1, 134822, Note_on_c, 0, 99, 43
1, 134825, Control_c, 0, 64, 127
1, 134839, Note_on_c, 0, 75, 42
1, 134861, Note_on_c, 0, 87, 0
1, 134903, Note_on_c, 0, 100, 39
1, 134909, Note_on_c, 0, 99, 0
1, 134942, Note_on_c, 0, 100, 0
1, 134942, Note_on_c, 0, 75, 0
1, 134970, Note_on_c, 0, 99, 56
1, 135028, Note_on_c, 0, 100, 31
1, 135028, Note_on_c, 0, 99, 0
1, 135093, Note_on_c, 0, 100, 0
1, 135121, Note_on_c, 0, 87, 36
1, 135121, Note_on_c, 0, 99, 43
1, 135127, Note_on_c, 0, 75, 57
1, 135166, Note_on_c, 0, 87, 0
1, 135173, Note_on_c, 0, 75, 0
1, 135190, Note_on_c, 0, 100, 61
1, 135190, Note_on_c, 0, 99, 0
1, 135260, Note_on_c, 0, 99, 54
1, 135326, Note_on_c, 0, 99, 0
1, 135369, Note_on_c, 0, 100, 0
1, 135383, Note_on_c, 0, 87, 37
1, 135399, Note_on_c, 0, 73, 48
1, 135429, Note_on_c, 0, 99, 49
1, 135432, Note_on_c, 0, 87, 0
1, 135435, Note_on_c, 0, 73, 0
1, 135475, Note_on_c, 0, 99, 0
1, 135475, Note_on_c, 0, 100, 57
1, 135553, Note_on_c, 0, 100, 0
1, 135553, Note_on_c, 0, 99, 45
1, 135628, Control_c, 0, 64, 0
1, 135633, Note_on_c, 0, 56, 36
1, 135669, Note_on_c, 0, 100, 66
1, 135680, Note_on_c, 0, 99, 0
1, 135684, Note_on_c, 0, 56, 0
1, 135723, Control_c, 0, 64, 127
1, 135730, Note_on_c, 0, 71, 59
1, 135745, Note_on_c, 0, 99, 50
1, 135770, Note_on_c, 0, 100, 0
1, 135815, Note_on_c, 0, 71, 0
1, 135815, Note_on_c, 0, 87, 51
1, 135839, Note_on_c, 0, 99, 0
1, 135862, Note_on_c, 0, 87, 0
1, 135945, Note_on_c, 0, 87, 44
1, 135970, Note_on_c, 0, 71, 61
1, 136010, Note_on_c, 0, 87, 0
1, 136010, Note_on_c, 0, 88, 57
1, 136015, Note_on_c, 0, 71, 0
1, 136068, Note_on_c, 0, 87, 46
1, 136076, Note_on_c, 0, 88, 0
1, 136126, Note_on_c, 0, 87, 0
1, 136137, Note_on_c, 0, 75, 56
1, 136174, Note_on_c, 0, 75, 0
1, 136209, Note_on_c, 0, 70, 54
1, 136218, Note_on_c, 0, 87, 44
1, 136265, Note_on_c, 0, 88, 49
1, 136293, Note_on_c, 0, 70, 0
1, 136302, Note_on_c, 0, 88, 0
1, 136305, Note_on_c, 0, 87, 0
1, 136343, Note_on_c, 0, 87, 70
1, 136407, Control_c, 0, 64, 0
1, 136424, Note_on_c, 0, 87, 0
1, 136430, Note_on_c, 0, 99, 59
1, 136438, Note_on_c, 0, 68, 44
1, 136453, Note_on_c, 0, 59, 41
1, 136468, Note_on_c, 0, 99, 0
1, 136468, Note_on_c, 0, 100, 66
1, 136514, Note_on_c, 0, 59, 0
1, 136527, Control_c, 0, 64, 127
1, 136536, Note_on_c, 0, 99, 50
1, 136556, Note_on_c, 0, 68, 0
1, 136567, Note_on_c, 0, 100, 0
1, 136578, Note_on_c, 0, 99, 0
1, 136594, Note_on_c, 0, 87, 48
1, 136630, Note_on_c, 0, 87, 0
1, 136702, Note_on_c, 0, 67, 55
1, 136773, Note_on_c, 0, 88, 32
1, 136798, Note_on_c, 0, 67, 0
1, 136826, Note_on_c, 0, 87, 52
1, 136842, Note_on_c, 0, 88, 0
1, 136887, Note_on_c, 0, 87, 0
1, 136914, Note_on_c, 0, 75, 41
1, 136959, Note_on_c, 0, 75, 0
1, 136959, Note_on_c, 0, 68, 48
1, 136989, Note_on_c, 0, 87, 52
1, 137029, Note_on_c, 0, 68, 0
1, 137035, Note_on_c, 0, 88, 37
1, 137070, Note_on_c, 0, 87, 0
1, 137081, Note_on_c, 0, 88, 0
1, 137109, Note_on_c, 0, 87, 70
1, 137196, Note_on_c, 0, 87, 0
1, 137196, Control_c, 0, 64, 0
1, 137204, Note_on_c, 0, 70, 41
1, 137208, Note_on_c, 0, 99, 65
1, 137237, Note_on_c, 0, 67, 33
1, 137252, Note_on_c, 0, 99, 0
1, 137258, Note_on_c, 0, 100, 57
1, 137324, Note_on_c, 0, 67, 0
1, 137330, Note_on_c, 0, 99, 57
1, 137330, Control_c, 0, 64, 127
1, 137355, Note_on_c, 0, 100, 0
1, 137371, Note_on_c, 0, 99, 0
1, 137380, Note_on_c, 0, 70, 0
1, 137383, Note_on_c, 0, 87, 52
1, 137422, Note_on_c, 0, 87, 0
1, 137516, Note_on_c, 0, 63, 36
1, 137556, Note_on_c, 0, 63, 0
1, 137572, Note_on_c, 0, 88, 46
1, 137634, Note_on_c, 0, 88, 0
1, 137637, Note_on_c, 0, 87, 48
1, 137678, Note_on_c, 0, 87, 0
1, 137722, Note_on_c, 0, 75, 39
1, 137765, Note_on_c, 0, 75, 0
1, 137780, Note_on_c, 0, 63, 44
1, 137798, Note_on_c, 0, 87, 45
1, 137822, Note_on_c, 0, 63, 0
1, 137865, Note_on_c, 0, 88, 29
1, 137890, Note_on_c, 0, 87, 0
1, 137925, Note_on_c, 0, 88, 0
1, 137937, Note_on_c, 0, 87, 56
1, 138014, Control_c, 0, 64, 0
1, 138026, Note_on_c, 0, 87, 0
1, 138026, Note_on_c, 0, 68, 44
1, 138038, Note_on_c, 0, 99, 53
1, 138049, Note_on_c, 0, 59, 36
1, 138081, Note_on_c, 0, 99, 0
1, 138091, Note_on_c, 0, 100, 49
1, 138137, Note_on_c, 0, 68, 0
1, 138155, Note_on_c, 0, 100, 0
1, 138155, Control_c, 0, 64, 127
1, 138158, Note_on_c, 0, 99, 47
1, 138179, Note_on_c, 0, 59, 0
1, 138207, Note_on_c, 0, 99, 0
1, 138218, Note_on_c, 0, 87, 47
1, 138257, Note_on_c, 0, 87, 0
1, 138316, Note_on_c, 0, 66, 41
1, 138343, Note_on_c, 0, 60, 28
1, 138343, Note_on_c, 0, 87, 23
1, 138360, Control_c, 0, 64, 0
1, 138388, Note_on_c, 0, 87, 0
1, 138388, Note_on_c, 0, 88, 54
1, 138419, Note_on_c, 0, 66, 0
1, 138419, Control_c, 0, 64, 127
1, 138428, Note_on_c, 0, 88, 0
1, 138441, Note_on_c, 0, 60, 0
1, 138449, Note_on_c, 0, 87, 36
1, 138536, Note_on_c, 0, 87, 0
1, 138539, Note_on_c, 0, 75, 45
1, 138564, Control_c, 0, 64, 0
1, 138580, Note_on_c, 0, 75, 0
1, 138591, Note_on_c, 0, 61, 39
1, 138602, Note_on_c, 0, 64, 38
1, 138614, Note_on_c, 0, 87, 31
1, 138676, Note_on_c, 0, 64, 0
1, 138684, Control_c, 0, 64, 127
1, 138706, Note_on_c, 0, 61, 0
1, 138706, Note_on_c, 0, 88, 27
1, 138739, Note_on_c, 0, 87, 0
1, 138767, Note_on_c, 0, 88, 0
1, 138787, Note_on_c, 0, 87, 59
1, 138803, Control_c, 0, 64, 0
1, 138837, Note_on_c, 0, 87, 0
1, 138865, Note_on_c, 0, 63, 47
1, 138889, Note_on_c, 0, 99, 55
1, 138909, Note_on_c, 0, 63, 0
1, 138945, Note_on_c, 0, 99, 0
1, 138948, Control_c, 0, 64, 127
1, 138956, Note_on_c, 0, 100, 51
1, 139029, Note_on_c, 0, 99, 47
1, 139049, Note_on_c, 0, 100, 0
1, 139102, Note_on_c, 0, 87, 41
1, 139118, Note_on_c, 0, 99, 0
1, 139152, Note_on_c, 0, 87, 0
1, 139205, Note_on_c, 0, 80, 30
1, 139208, Note_on_c, 0, 71, 45
1, 139254, Note_on_c, 0, 80, 0
1, 139318, Note_on_c, 0, 83, 68
1, 139318, Note_on_c, 0, 71, 0
1, 139322, Note_on_c, 0, 75, 42
1, 139360, Note_on_c, 0, 83, 0
1, 139424, Note_on_c, 0, 75, 0
1, 139460, Note_on_c, 0, 87, 60
1, 139460, Note_on_c, 0, 80, 50
1, 139500, Note_on_c, 0, 80, 0
1, 139503, Note_on_c, 0, 87, 0
1, 139678, Control_c, 0, 64, 0
1, 139740, Note_on_c, 0, 63, 32
1, 139750, Note_on_c, 0, 99, 52
1, 139789, Note_on_c, 0, 99, 0
1, 139789, Note_on_c, 0, 63, 0
1, 139806, Note_on_c, 0, 100, 42
1, 139811, Control_c, 0, 64, 127
1, 139856, Note_on_c, 0, 100, 0
1, 139884, Note_on_c, 0, 99, 30
1, 139946, Note_on_c, 0, 99, 0
1, 139949, Note_on_c, 0, 87, 30
1, 139999, Note_on_c, 0, 87, 0
1, 140051, Note_on_c, 0, 70, 21
1, 140059, Note_on_c, 0, 79, 21
1, 140127, Note_on_c, 0, 79, 0
1, 140179, Note_on_c, 0, 82, 42
1, 140208, Note_on_c, 0, 73, 26
1, 140218, Note_on_c, 0, 70, 0
1, 140233, Note_on_c, 0, 82, 0
1, 140266, Note_on_c, 0, 73, 0
1, 140360, Note_on_c, 0, 87, 38
1, 140372, Note_on_c, 0, 79, 31
1, 140435, Note_on_c, 0, 79, 0
1, 140494, Note_on_c, 0, 87, 0
1, 140686, Control_c, 0, 64, 0
1, 140690, Note_on_c, 0, 56, 21
1, 140842, Control_c, 0, 64, 127
1, 140948, Note_on_c, 0, 63, 23
1, 140954, Note_on_c, 0, 56, 0
1, 141018, Note_on_c, 0, 71, 34
1, 141129, Note_on_c, 0, 80, 38
1, 141361, Note_on_c, 0, 63, 0
1, 141385, Note_on_c, 0, 71, 0
1, 141456, Note_on_c, 0, 80, 0
1, 141564, Note_on_c, 0, 75, 42
1, 141623, Note_on_c, 0, 75, 0
1, 141655, Note_on_c, 0, 87, 34
1, 141723, Note_on_c, 0, 87, 0
1, 141736, Note_on_c, 0, 88, 38
1, 141812, Note_on_c, 0, 87, 50
1, 141821, Note_on_c, 0, 88, 0
1, 141846, Note_on_c, 0, 87, 0
1, 141920, Control_c, 0, 64, 0
1, 141924, Note_on_c, 0, 87, 43
1, 142023, Note_on_c, 0, 87, 0
1, 142026, Note_on_c, 0, 99, 52
1, 142076, Control_c, 0, 64, 127
1, 142085, Note_on_c, 0, 99, 0
1, 142112, Note_on_c, 0, 100, 45
1, 142166, Note_on_c, 0, 100, 0
1, 142185, Note_on_c, 0, 99, 45
1, 142226, Note_on_c, 0, 99, 0
1, 142250, Note_on_c, 0, 87, 60
1, 142297, Note_on_c, 0, 87, 0
1, 142355, Note_on_c, 0, 99, 57
1, 142396, Note_on_c, 0, 99, 0
1, 142400, Note_on_c, 0, 100, 62
1, 142464, Note_on_c, 0, 99, 57
1, 142469, Note_on_c, 0, 100, 0
1, 142525, Note_on_c, 0, 99, 0
1, 142567, Note_on_c, 0, 85, 68
1, 142637, Note_on_c, 0, 97, 42
1, 142640, Note_on_c, 0, 85, 0
1, 142715, Note_on_c, 0, 99, 68
1, 142736, Note_on_c, 0, 97, 0
1, 142786, Note_on_c, 0, 97, 57
1, 142803, Note_on_c, 0, 99, 0
1, 142849, Note_on_c, 0, 97, 0
1, 142896, Note_on_c, 0, 44, 33
1, 142896, Note_on_c, 0, 32, 26
1, 142946, Note_on_c, 0, 32, 0
1, 142979, Note_on_c, 0, 44, 0
1, 143015, Note_on_c, 0, 95, 53
1, 143110, Note_on_c, 0, 95, 0
1, 143110, Note_on_c, 0, 97, 50
1, 143185, Note_on_c, 0, 95, 36
1, 143208, Note_on_c, 0, 97, 0
1, 143255, Note_on_c, 0, 95, 0
1, 143286, Note_on_c, 0, 63, 36
1, 143294, Note_on_c, 0, 83, 78
1, 143319, Note_on_c, 0, 51, 16
1, 143327, Note_on_c, 0, 83, 0
1, 143339, Note_on_c, 0, 63, 0
1, 143339, Note_on_c, 0, 59, 6
1, 143374, Note_on_c, 0, 95, 57
1, 143391, Note_on_c, 0, 59, 0
1, 143397, Note_on_c, 0, 51, 0
1, 143438, Note_on_c, 0, 95, 0
1, 143458, Note_on_c, 0, 97, 48
1, 143511, Note_on_c, 0, 95, 32
1, 143542, Note_on_c, 0, 97, 0
1, 143586, Note_on_c, 0, 95, 0
1, 143590, Note_on_c, 0, 63, 43
1, 143598, Note_on_c, 0, 59, 43
1, 143609, Note_on_c, 0, 56, 39
1, 143612, Note_on_c, 0, 82, 48
1, 143630, Note_on_c, 0, 63, 0
1, 143639, Note_on_c, 0, 59, 0
1, 143651, Note_on_c, 0, 56, 0
1, 143654, Note_on_c, 0, 82, 0
1, 143670, Note_on_c, 0, 94, 54
1, 143751, Note_on_c, 0, 95, 56
1, 143759, Note_on_c, 0, 94, 0
1, 143804, Note_on_c, 0, 94, 62
1, 143826, Note_on_c, 0, 95, 0
1, 143890, Note_on_c, 0, 94, 0
1, 143915, Note_on_c, 0, 80, 56
1, 143921, Control_c, 0, 64, 0
1, 143924, Note_on_c, 0, 35, 53
1, 143924, Note_on_c, 0, 47, 39
1, 143959, Note_on_c, 0, 80, 0
1, 143962, Note_on_c, 0, 35, 0
1, 143973, Note_on_c, 0, 92, 55
1, 143973, Note_on_c, 0, 47, 0
1, 144018, Control_c, 0, 64, 127
1, 144041, Note_on_c, 0, 94, 54
1, 144055, Note_on_c, 0, 92, 0
1, 144108, Note_on_c, 0, 92, 57
1, 144143, Note_on_c, 0, 94, 0
1, 144197, Note_on_c, 0, 63, 38
1, 144197, Note_on_c, 0, 79, 75
1, 144202, Note_on_c, 0, 51, 41
1, 144205, Note_on_c, 0, 92, 0
1, 144218, Note_on_c, 0, 59, 22
1, 144236, Note_on_c, 0, 79, 0
1, 144247, Note_on_c, 0, 63, 0
1, 144269, Note_on_c, 0, 91, 57
1, 144269, Note_on_c, 0, 59, 0
1, 144277, Note_on_c, 0, 51, 0
1, 144321, Note_on_c, 0, 91, 0
1, 144330, Note_on_c, 0, 92, 41
1, 144397, Note_on_c, 0, 91, 42
1, 144409, Note_on_c, 0, 92, 0
1, 144441, Note_on_c, 0, 91, 0
1, 144450, Note_on_c, 0, 63, 56
1, 144469, Note_on_c, 0, 59, 42
1, 144480, Note_on_c, 0, 56, 33
1, 144486, Note_on_c, 0, 80, 58
1, 144491, Note_on_c, 0, 63, 0
1, 144495, Note_on_c, 0, 82, 38
1, 144508, Note_on_c, 0, 59, 0
1, 144523, Note_on_c, 0, 56, 0
1, 144550, Note_on_c, 0, 92, 49
1, 144550, Note_on_c, 0, 80, 0
1, 144580, Note_on_c, 0, 82, 0
1, 144614, Note_on_c, 0, 94, 52
1, 144623, Note_on_c, 0, 92, 0
1, 144675, Note_on_c, 0, 92, 56
1, 144700, Control_c, 0, 64, 0
1, 144717, Note_on_c, 0, 94, 0
1, 144736, Note_on_c, 0, 39, 52
1, 144748, Note_on_c, 0, 51, 44
1, 144748, Note_on_c, 0, 82, 63
1, 144757, Note_on_c, 0, 92, 0
1, 144787, Note_on_c, 0, 39, 0
1, 144792, Note_on_c, 0, 82, 0
1, 144807, Note_on_c, 0, 51, 0
1, 144832, Control_c, 0, 64, 127
1, 144835, Note_on_c, 0, 94, 48
1, 144898, Note_on_c, 0, 95, 48
1, 144913, Note_on_c, 0, 94, 0
1, 144959, Note_on_c, 0, 94, 70
1, 144984, Note_on_c, 0, 95, 0
1, 144998, Note_on_c, 0, 94, 0
1, 145063, Note_on_c, 0, 67, 37
1, 145080, Note_on_c, 0, 55, 26
1, 145085, Note_on_c, 0, 63, 24
1, 145105, Note_on_c, 0, 75, 53
1, 145126, Note_on_c, 0, 67, 0
1, 145138, Note_on_c, 0, 63, 0
1, 145144, Note_on_c, 0, 75, 0
1, 145163, Note_on_c, 0, 87, 46
1, 145185, Note_on_c, 0, 55, 0
1, 145227, Note_on_c, 0, 88, 53
1, 145227, Note_on_c, 0, 87, 0
1, 145272, Note_on_c, 0, 88, 0
1, 145299, Note_on_c, 0, 87, 48
1, 145333, Note_on_c, 0, 67, 41
1, 145339, Note_on_c, 0, 58, 35
1, 145347, Note_on_c, 0, 63, 42
1, 145375, Note_on_c, 0, 75, 58
1, 145380, Note_on_c, 0, 87, 0
1, 145380, Note_on_c, 0, 67, 0
1, 145386, Note_on_c, 0, 63, 0
1, 145399, Note_on_c, 0, 58, 0
1, 145423, Note_on_c, 0, 75, 0
1, 145444, Note_on_c, 0, 87, 42
1, 145506, Note_on_c, 0, 88, 59
1, 145533, Note_on_c, 0, 87, 0
1, 145564, Note_on_c, 0, 88, 0
1, 145575, Control_c, 0, 64, 0
1, 145579, Note_on_c, 0, 87, 69
1, 145615, Note_on_c, 0, 43, 63
1, 145626, Note_on_c, 0, 55, 39
1, 145642, Note_on_c, 0, 87, 0
1, 145642, Note_on_c, 0, 76, 58
1, 145650, Note_on_c, 0, 43, 0
1, 145675, Note_on_c, 0, 55, 0
1, 145675, Note_on_c, 0, 76, 0
1, 145682, Control_c, 0, 64, 127
1, 145704, Note_on_c, 0, 88, 63
1, 145753, Note_on_c, 0, 88, 0
1, 145779, Note_on_c, 0, 90, 47
1, 145818, Note_on_c, 0, 88, 49
1, 145824, Note_on_c, 0, 90, 0
1, 145882, Note_on_c, 0, 70, 40
1, 145899, Note_on_c, 0, 88, 0
1, 145899, Note_on_c, 0, 75, 67
1, 145906, Note_on_c, 0, 61, 29
1, 145924, Note_on_c, 0, 63, 27
1, 145937, Note_on_c, 0, 70, 0
1, 145959, Note_on_c, 0, 61, 0
1, 145963, Note_on_c, 0, 87, 48
1, 145966, Note_on_c, 0, 75, 0
1, 145971, Note_on_c, 0, 63, 0
1, 146030, Note_on_c, 0, 88, 63
1, 146043, Note_on_c, 0, 87, 0
1, 146069, Note_on_c, 0, 88, 0
1, 146091, Note_on_c, 0, 87, 61
1, 146122, Note_on_c, 0, 87, 0
1, 146135, Note_on_c, 0, 70, 48
1, 146152, Note_on_c, 0, 85, 12
1, 146160, Note_on_c, 0, 63, 47
1, 146160, Note_on_c, 0, 73, 70
1, 146169, Note_on_c, 0, 58, 29
1, 146174, Note_on_c, 0, 70, 0
1, 146196, Note_on_c, 0, 63, 0
1, 146216, Note_on_c, 0, 58, 0
1, 146249, Note_on_c, 0, 73, 0
1, 146292, Note_on_c, 0, 87, 58
1, 146299, Note_on_c, 0, 85, 0
1, 146347, Note_on_c, 0, 85, 78
1, 146353, Note_on_c, 0, 87, 0
1, 146378, Control_c, 0, 64, 0
1, 146392, Note_on_c, 0, 85, 0
1, 146416, Note_on_c, 0, 56, 49
1, 146422, Note_on_c, 0, 44, 54
1, 146442, Note_on_c, 0, 71, 64
1, 146478, Note_on_c, 0, 71, 0
1, 146498, Control_c, 0, 64, 127
1, 146505, Note_on_c, 0, 56, 0
1, 146505, Note_on_c, 0, 83, 95
1, 146509, Note_on_c, 0, 44, 0
1, 146550, Note_on_c, 0, 83, 0
1, 146565, Note_on_c, 0, 85, 73
1, 146645, Note_on_c, 0, 83, 68
1, 146665, Note_on_c, 0, 85, 0
1, 146682, Note_on_c, 0, 83, 0
1, 146707, Note_on_c, 0, 71, 66
1, 146710, Note_on_c, 0, 68, 43
1, 146718, Note_on_c, 0, 63, 44
1, 146742, Note_on_c, 0, 71, 0
1, 146764, Note_on_c, 0, 63, 0
1, 146767, Note_on_c, 0, 68, 0
1, 146767, Note_on_c, 0, 83, 83
1, 146824, Note_on_c, 0, 83, 0
1, 146845, Note_on_c, 0, 85, 54
1, 146884, Note_on_c, 0, 83, 80
1, 146904, Note_on_c, 0, 85, 0
1, 146949, Note_on_c, 0, 83, 0
1, 146963, Note_on_c, 0, 63, 61
1, 146971, Note_on_c, 0, 70, 67
1, 146977, Note_on_c, 0, 59, 39
1, 146996, Note_on_c, 0, 63, 0
1, 147016, Note_on_c, 0, 59, 0
1, 147023, Note_on_c, 0, 70, 0
1, 147035, Note_on_c, 0, 82, 43
1, 147102, Note_on_c, 0, 83, 95
1, 147138, Note_on_c, 0, 83, 0
1, 147196, Note_on_c, 0, 82, 0
1, 147217, Control_c, 0, 64, 0
1, 147228, Note_on_c, 0, 68, 67
1, 147238, Note_on_c, 0, 52, 59
1, 147244, Note_on_c, 0, 40, 73
1, 147280, Note_on_c, 0, 80, 2
1, 147303, Note_on_c, 0, 40, 0
1, 147308, Note_on_c, 0, 68, 0
1, 147336, Note_on_c, 0, 52, 0
1, 147336, Control_c, 0, 64, 127
1, 147347, Note_on_c, 0, 82, 57
1, 147374, Note_on_c, 0, 80, 0
1, 147420, Note_on_c, 0, 80, 64
1, 147433, Note_on_c, 0, 82, 0
1, 147458, Note_on_c, 0, 80, 0
1, 147486, Note_on_c, 0, 67, 72
1, 147486, Note_on_c, 0, 59, 37
1, 147489, Note_on_c, 0, 62, 58
1, 147523, Note_on_c, 0, 67, 0
1, 147528, Note_on_c, 0, 62, 0
1, 147544, Note_on_c, 0, 79, 76
1, 147579, Note_on_c, 0, 79, 0
1, 147590, Note_on_c, 0, 59, 0
1, 147606, Note_on_c, 0, 80, 47
1, 147667, Note_on_c, 0, 79, 36
1, 147701, Note_on_c, 0, 80, 0
1, 147714, Note_on_c, 0, 79, 0
1, 147729, Note_on_c, 0, 68, 69
1, 147735, Note_on_c, 0, 58, 49
1, 147735, Note_on_c, 0, 62, 49
1, 147773, Note_on_c, 0, 62, 0
1, 147778, Note_on_c, 0, 68, 0
1, 147778, Note_on_c, 0, 58, 0
1, 147813, Note_on_c, 0, 80, 59
1, 147866, Note_on_c, 0, 80, 0
1, 147877, Note_on_c, 0, 82, 50
1, 147924, Note_on_c, 0, 80, 51
1, 147960, Note_on_c, 0, 82, 0
1, 147960, Control_c, 0, 64, 0
1, 147988, Note_on_c, 0, 70, 52
1, 148007, Note_on_c, 0, 39, 62
1, 148007, Note_on_c, 0, 51, 59
1, 148021, Note_on_c, 0, 80, 0
1, 148049, Note_on_c, 0, 70, 0
1, 148060, Note_on_c, 0, 39, 0
1, 148068, Control_c, 0, 64, 127
1, 148068, Note_on_c, 0, 51, 0
1, 148090, Note_on_c, 0, 82, 40
1, 148169, Note_on_c, 0, 82, 0
1, 148169, Note_on_c, 0, 83, 59
1, 148217, Note_on_c, 0, 82, 69
1, 148239, Note_on_c, 0, 83, 0
1, 148297, Note_on_c, 0, 82, 0
1, 148303, Note_on_c, 0, 63, 67
1, 148320, Note_on_c, 0, 58, 31
1, 148324, Note_on_c, 0, 55, 22
1, 148347, Note_on_c, 0, 63, 0
1, 148369, Note_on_c, 0, 75, 66
1, 148369, Note_on_c, 0, 55, 0
1, 148373, Note_on_c, 0, 58, 0
1, 148430, Note_on_c, 0, 76, 51
1, 148430, Note_on_c, 0, 75, 0
1, 148481, Note_on_c, 0, 75, 75
1, 148492, Note_on_c, 0, 76, 0
1, 148509, Note_on_c, 0, 75, 0
1, 148553, Note_on_c, 0, 75, 70
1, 148564, Note_on_c, 0, 67, 63
1, 148564, Note_on_c, 0, 70, 60
1, 148600, Note_on_c, 0, 67, 0
1, 148603, Note_on_c, 0, 70, 0
1, 148629, Note_on_c, 0, 87, 72
1, 148642, Note_on_c, 0, 75, 0
1, 148690, Note_on_c, 0, 87, 0
1, 148701, Note_on_c, 0, 88, 49
1, 148732, Note_on_c, 0, 87, 79
1, 148742, Note_on_c, 0, 88, 0
1, 148785, Note_on_c, 0, 87, 0
1, 148823, Note_on_c, 0, 87, 91
1, 148823, Note_on_c, 0, 79, 80
1, 148834, Note_on_c, 0, 82, 67
1, 148834, Control_c, 0, 64, 0
1, 148895, Note_on_c, 0, 99, 76
1, 148940, Note_on_c, 0, 87, 0
1, 148955, Control_c, 0, 64, 127
1, 148966, Note_on_c, 0, 79, 0
1, 148974, Note_on_c, 0, 82, 0
1, 148974, Note_on_c, 0, 100, 76
1, 148993, Note_on_c, 0, 99, 0
1, 149047, Note_on_c, 0, 99, 71
1, 149093, Note_on_c, 0, 100, 0
1, 149139, Note_on_c, 0, 87, 83
1, 149171, Note_on_c, 0, 99, 0
1, 149194, Control_c, 0, 64, 0
1, 149224, Note_on_c, 0, 99, 69
1, 149263, Note_on_c, 0, 87, 0
1, 149291, Control_c, 0, 64, 127
1, 149327, Note_on_c, 0, 100, 34
1, 149327, Note_on_c, 0, 99, 0
1, 149339, Note_on_c, 0, 101, 30
1, 149378, Note_on_c, 0, 99, 71
1, 149395, Note_on_c, 0, 100, 0
1, 149395, Note_on_c, 0, 101, 0
1, 149455, Note_on_c, 0, 99, 0
1, 149486, Note_on_c, 0, 85, 60
1, 149534, Note_on_c, 0, 85, 0
1, 149550, Note_on_c, 0, 97, 54
1, 149629, Note_on_c, 0, 99, 62
1, 149646, Note_on_c, 0, 97, 0
1, 149704, Note_on_c, 0, 97, 53
1, 149742, Note_on_c, 0, 99, 0
1, 149795, Note_on_c, 0, 97, 0
1, 149831, Control_c, 0, 64, 0
1, 149831, Note_on_c, 0, 84, 72
1, 149831, Note_on_c, 0, 44, 45
1, 149879, Note_on_c, 0, 84, 0
1, 149879, Note_on_c, 0, 44, 0
1, 149916, Note_on_c, 0, 96, 69
1, 149926, Control_c, 0, 64, 127
1, 149957, Note_on_c, 0, 96, 0
1, 150004, Note_on_c, 0, 97, 42
1, 150072, Note_on_c, 0, 96, 62
1, 150108, Note_on_c, 0, 97, 0
1, 150108, Note_on_c, 0, 96, 0
1, 150149, Note_on_c, 0, 66, 38
1, 150153, Note_on_c, 0, 84, 62
1, 150166, Note_on_c, 0, 63, 39
1, 150182, Note_on_c, 0, 57, 19
1, 150186, Note_on_c, 0, 84, 0
1, 150210, Note_on_c, 0, 66, 0
1, 150210, Note_on_c, 0, 96, 50
1, 150214, Note_on_c, 0, 63, 0
1, 150236, Note_on_c, 0, 57, 0
1, 150263, Note_on_c, 0, 96, 0
1, 150288, Note_on_c, 0, 97, 55
1, 150331, Note_on_c, 0, 96, 48
1, 150381, Note_on_c, 0, 96, 0
1, 150389, Note_on_c, 0, 97, 0
1, 150437, Note_on_c, 0, 66, 32
1, 150447, Note_on_c, 0, 81, 50
1, 150447, Note_on_c, 0, 57, 22
1, 150462, Note_on_c, 0, 63, 35
1, 150486, Note_on_c, 0, 66, 0
1, 150486, Note_on_c, 0, 81, 0
1, 150503, Note_on_c, 0, 57, 0
1, 150503, Note_on_c, 0, 63, 0
1, 150509, Note_on_c, 0, 93, 45
1, 150556, Note_on_c, 0, 93, 0
1, 150562, Note_on_c, 0, 95, 57
1, 150609, Note_on_c, 0, 93, 49
1, 150634, Note_on_c, 0, 95, 0
1, 150670, Note_on_c, 0, 93, 0
1, 150693, Control_c, 0, 64, 0
1, 150712, Note_on_c, 0, 80, 72
1, 150721, Note_on_c, 0, 48, 40
1, 150763, Note_on_c, 0, 48, 0
1, 150774, Note_on_c, 0, 80, 0
1, 150781, Note_on_c, 0, 92, 46
1, 150813, Control_c, 0, 64, 127
1, 150849, Note_on_c, 0, 93, 56
1, 150874, Note_on_c, 0, 92, 0
1, 150919, Note_on_c, 0, 92, 69
1, 150929, Note_on_c, 0, 93, 0
1, 150986, Note_on_c, 0, 92, 0
1, 150986, Note_on_c, 0, 80, 66
1, 150996, Note_on_c, 0, 63, 30
1, 150996, Note_on_c, 0, 57, 21
1, 151029, Note_on_c, 0, 80, 0
1, 151044, Note_on_c, 0, 63, 0
1, 151058, Note_on_c, 0, 57, 0
1, 151058, Note_on_c, 0, 92, 46
1, 151128, Note_on_c, 0, 93, 43
1, 151200, Note_on_c, 0, 93, 0
1, 151231, Note_on_c, 0, 92, 0
1, 151269, Note_on_c, 0, 66, 28
1, 151277, Note_on_c, 0, 78, 57
1, 151281, Note_on_c, 0, 63, 31
1, 151302, Note_on_c, 0, 57, 5
1, 151322, Note_on_c, 0, 66, 0
1, 151330, Note_on_c, 0, 78, 0
1, 151330, Note_on_c, 0, 63, 0
1, 151330, Note_on_c, 0, 90, 51
1, 151356, Note_on_c, 0, 57, 0
1, 151403, Note_on_c, 0, 92, 58
1, 151429, Note_on_c, 0, 90, 0
1, 151475, Note_on_c, 0, 90, 68
1, 151504, Note_on_c, 0, 92, 0
1, 151568, Note_on_c, 0, 90, 0
1, 151592, Control_c, 0, 64, 0
1, 151596, Note_on_c, 0, 49, 37
1, 151612, Note_on_c, 0, 76, 37
1, 151653, Note_on_c, 0, 76, 0
1, 151678, Note_on_c, 0, 88, 68
1, 151698, Note_on_c, 0, 49, 0
1, 151712, Control_c, 0, 64, 127
1, 151729, Note_on_c, 0, 88, 0
1, 151768, Note_on_c, 0, 90, 50
1, 151840, Note_on_c, 0, 88, 59
1, 151851, Note_on_c, 0, 90, 0
1, 151877, Note_on_c, 0, 88, 0
1, 151952, Note_on_c, 0, 69, 30
1, 151966, Note_on_c, 0, 73, 31
1, 151971, Note_on_c, 0, 64, 36
1, 152007, Note_on_c, 0, 85, 39
1, 152022, Note_on_c, 0, 69, 0
1, 152022, Note_on_c, 0, 73, 0
1, 152074, Note_on_c, 0, 87, 53
1, 152092, Note_on_c, 0, 85, 0
1, 152160, Note_on_c, 0, 64, 0
1, 152160, Note_on_c, 0, 85, 44
1, 152163, Note_on_c, 0, 87, 0
1, 152225, Note_on_c, 0, 85, 0
1, 152225, Note_on_c, 0, 69, 35
1, 152238, Note_on_c, 0, 75, 59
1, 152258, Note_on_c, 0, 60, 40
1, 152286, Note_on_c, 0, 75, 0
1, 152309, Note_on_c, 0, 87, 56
1, 152341, Note_on_c, 0, 69, 0
1, 152376, Note_on_c, 0, 88, 60
1, 152398, Note_on_c, 0, 87, 0
1, 152434, Note_on_c, 0, 87, 41
1, 152465, Note_on_c, 0, 60, 0
1, 152465, Note_on_c, 0, 88, 0
1, 152482, Note_on_c, 0, 61, 55
1, 152487, Note_on_c, 0, 69, 47
1, 152509, Note_on_c, 0, 76, 51
1, 152515, Note_on_c, 0, 87, 0
1, 152546, Note_on_c, 0, 76, 0
1, 152576, Note_on_c, 0, 88, 48
1, 152610, Note_on_c, 0, 69, 0
1, 152621, Note_on_c, 0, 88, 0
1, 152629, Note_on_c, 0, 90, 63
1, 152677, Note_on_c, 0, 88, 47
1, 152715, Note_on_c, 0, 90, 0
1, 152760, Note_on_c, 0, 66, 46
1, 152765, Note_on_c, 0, 88, 0
1, 152765, Note_on_c, 0, 69, 40
1, 152776, Note_on_c, 0, 75, 62
1, 152813, Control_c, 0, 64, 0
1, 152824, Note_on_c, 0, 61, 0
1, 152828, Note_on_c, 0, 75, 0
1, 152835, Note_on_c, 0, 87, 47
1, 152908, Note_on_c, 0, 88, 65
1, 152922, Note_on_c, 0, 69, 0
1, 152930, Note_on_c, 0, 87, 0
1, 152946, Control_c, 0, 64, 127
1, 152957, Note_on_c, 0, 88, 0
1, 152975, Note_on_c, 0, 87, 60
1, 153030, Note_on_c, 0, 87, 0
1, 153052, Note_on_c, 0, 69, 34
1, 153052, Note_on_c, 0, 64, 50
1, 153061, Note_on_c, 0, 66, 0
1, 153082, Note_on_c, 0, 73, 44
1, 153124, Note_on_c, 0, 73, 0
1, 153124, Control_c, 0, 64, 0
1, 153141, Note_on_c, 0, 85, 45
1, 153211, Note_on_c, 0, 69, 0
1, 153222, Note_on_c, 0, 87, 54
1, 153234, Control_c, 0, 64, 127
1, 153237, Note_on_c, 0, 85, 0
1, 153289, Note_on_c, 0, 63, 49
1, 153289, Note_on_c, 0, 64, 0
1, 153301, Note_on_c, 0, 87, 0
1, 153306, Note_on_c, 0, 85, 54
1, 153353, Control_c, 0, 64, 0
1, 153365, Note_on_c, 0, 75, 54
1, 153370, Note_on_c, 0, 85, 0
1, 153373, Note_on_c, 0, 68, 35
1, 153389, Note_on_c, 0, 71, 47
1, 153417, Note_on_c, 0, 75, 0
1, 153445, Note_on_c, 0, 87, 57
1, 153487, Note_on_c, 0, 87, 0
1, 153496, Control_c, 0, 64, 127
1, 153521, Note_on_c, 0, 76, 42
1, 153571, Note_on_c, 0, 76, 0
1, 153599, Note_on_c, 0, 77, 63
1, 153660, Note_on_c, 0, 77, 0
1, 153679, Note_on_c, 0, 78, 65
1, 153690, Note_on_c, 0, 68, 0
1, 153709, Note_on_c, 0, 78, 0
1, 153735, Note_on_c, 0, 79, 78
1, 153752, Note_on_c, 0, 71, 0
1, 153780, Note_on_c, 0, 79, 0
1, 153799, Note_on_c, 0, 80, 62
1, 153860, Note_on_c, 0, 81, 74
1, 153860, Note_on_c, 0, 63, 0
1, 153880, Note_on_c, 0, 80, 0
1, 153921, Note_on_c, 0, 82, 75
1, 153946, Note_on_c, 0, 81, 0
1, 153946, Note_on_c, 0, 82, 0
1, 153980, Note_on_c, 0, 83, 83
1, 154028, Note_on_c, 0, 83, 0
1, 154036, Note_on_c, 0, 84, 73
1, 154083, Note_on_c, 0, 84, 0
1, 154094, Note_on_c, 0, 85, 55
1, 154136, Note_on_c, 0, 85, 0
1, 154145, Note_on_c, 0, 86, 69
1, 154181, Note_on_c, 0, 86, 0
1, 154206, Note_on_c, 0, 87, 60
1, 154244, Note_on_c, 0, 87, 0
1, 154272, Note_on_c, 0, 88, 73
1, 154320, Note_on_c, 0, 88, 0
1, 154323, Note_on_c, 0, 89, 73
1, 154390, Note_on_c, 0, 90, 61
1, 154408, Note_on_c, 0, 89, 0
1, 154425, Note_on_c, 0, 90, 0
1, 154439, Note_on_c, 0, 91, 81
1, 154492, Note_on_c, 0, 91, 0
1, 154492, Note_on_c, 0, 92, 67
1, 154540, Control_c, 0, 64, 0
1, 154562, Note_on_c, 0, 93, 56
1, 154585, Note_on_c, 0, 92, 0
1, 154588, Control_c, 0, 64, 127
1, 154601, Note_on_c, 0, 94, 69
1, 154624, Note_on_c, 0, 93, 0
1, 154627, Note_on_c, 0, 94, 0
1, 154662, Note_on_c, 0, 95, 76
1, 154712, Note_on_c, 0, 95, 0
1, 154716, Note_on_c, 0, 96, 74
1, 154719, Control_c, 0, 64, 0
1, 154760, Note_on_c, 0, 96, 0
1, 154773, Note_on_c, 0, 97, 46
1, 154802, Note_on_c, 0, 51, 21
1, 154812, Note_on_c, 0, 97, 0
1, 154833, Note_on_c, 0, 98, 84
1, 154855, Note_on_c, 0, 61, 24
1, 154863, Control_c, 0, 64, 127
1, 154871, Note_on_c, 0, 98, 0
1, 154899, Note_on_c, 0, 51, 0
1, 154902, Note_on_c, 0, 99, 41
1, 154974, Note_on_c, 0, 102, 59
1, 154985, Note_on_c, 0, 99, 0
1, 155047, Note_on_c, 0, 100, 49
1, 155058, Note_on_c, 0, 67, 25
1, 155069, Note_on_c, 0, 102, 0
1, 155119, Note_on_c, 0, 100, 0
1, 155130, Note_on_c, 0, 97, 25
1, 155158, Note_on_c, 0, 94, 52
1, 155177, Note_on_c, 0, 97, 0
1, 155197, Note_on_c, 0, 94, 0
1, 155219, Note_on_c, 0, 91, 40
1, 155270, Note_on_c, 0, 91, 0
1, 155314, Note_on_c, 0, 86, 54
1, 155383, Note_on_c, 0, 86, 0
1, 155403, Note_on_c, 0, 87, 49
1, 155473, Note_on_c, 0, 90, 48
1, 155487, Note_on_c, 0, 87, 0
1, 155539, Note_on_c, 0, 88, 51
1, 155557, Note_on_c, 0, 90, 0
1, 155609, Note_on_c, 0, 85, 56
1, 155621, Note_on_c, 0, 88, 0
1, 155637, Note_on_c, 0, 67, 0
1, 155685, Note_on_c, 0, 82, 48
1, 155695, Note_on_c, 0, 85, 0
1, 155726, Note_on_c, 0, 82, 0
1, 155751, Note_on_c, 0, 79, 54
1, 155760, Note_on_c, 0, 61, 0
1, 155791, Note_on_c, 0, 79, 0
1, 155832, Note_on_c, 0, 76, 55
1, 155918, Note_on_c, 0, 73, 48
1, 155922, Note_on_c, 0, 76, 0
1, 155969, Note_on_c, 0, 73, 0
1, 155986, Note_on_c, 0, 70, 49
1, 156046, Note_on_c, 0, 70, 0
1, 156053, Note_on_c, 0, 67, 57
1, 156095, Note_on_c, 0, 67, 0
1, 156147, Note_on_c, 0, 64, 59
1, 156206, Note_on_c, 0, 61, 52
1, 156209, Note_on_c, 0, 64, 0
1, 156270, Note_on_c, 0, 58, 48
1, 156294, Note_on_c, 0, 61, 0
1, 156339, Note_on_c, 0, 55, 71
1, 156343, Note_on_c, 0, 58, 0
1, 156386, Note_on_c, 0, 55, 0
1, 156398, Note_on_c, 0, 44, 48
1, 156484, Note_on_c, 0, 51, 48
1, 156493, Control_c, 0, 64, 0
1, 156548, Note_on_c, 0, 56, 52
1, 156634, Note_on_c, 0, 59, 52
1, 156634, Note_on_c, 0, 44, 0
1, 156654, Note_on_c, 0, 51, 0
1, 156659, Note_on_c, 0, 56, 0
1, 156673, Control_c, 0, 64, 127
1, 156715, Note_on_c, 0, 63, 61
1, 156737, Note_on_c, 0, 59, 0
1, 156771, Note_on_c, 0, 63, 0
1, 156807, Note_on_c, 0, 68, 46
1, 156847, Note_on_c, 0, 68, 0
1, 156916, Note_on_c, 0, 71, 41
1, 156994, Note_on_c, 0, 75, 41
1, 157089, Note_on_c, 0, 80, 53
1, 157187, Note_on_c, 0, 83, 65
1, 157265, Note_on_c, 0, 83, 0
1, 157281, Note_on_c, 0, 87, 42
1, 157343, Note_on_c, 0, 87, 0
1, 157426, Note_on_c, 0, 95, 36
1, 157523, Note_on_c, 0, 95, 0
1, 157551, Note_on_c, 0, 92, 37
1, 158148, Note_on_c, 0, 80, 0
1, 158206, Note_on_c, 0, 71, 0
1, 158219, Note_on_c, 0, 92, 0
1, 158253, Note_on_c, 0, 75, 0
1, 158495, Control_c, 0, 64, 0
1, 158851, Note_on_c, 0, 83, 58
1, 158856, Note_on_c, 0, 71, 33
1, 158859, Note_on_c, 0, 68, 22
1, 158900, Note_on_c, 0, 83, 0
1, 158920, Note_on_c, 0, 71, 0
1, 158920, Note_on_c, 0, 68, 0
1, 159026, Note_on_c, 0, 83, 75
1, 159035, Note_on_c, 0, 71, 47
1, 159042, Note_on_c, 0, 70, 21
1, 159046, Note_on_c, 0, 67, 39
1, 159087, Note_on_c, 0, 83, 0
1, 159087, Note_on_c, 0, 71, 0
1, 159096, Note_on_c, 0, 67, 0
1, 159107, Note_on_c, 0, 70, 0
1, 159166, Note_on_c, 0, 83, 84
1, 159176, Note_on_c, 0, 71, 55
1, 159180, Note_on_c, 0, 69, 30
1, 159190, Note_on_c, 0, 66, 32
1, 159222, Note_on_c, 0, 71, 0
1, 159233, Note_on_c, 0, 83, 0
1, 159237, Note_on_c, 0, 69, 0
1, 159237, Note_on_c, 0, 66, 0
1, 159300, Note_on_c, 0, 83, 85
1, 159307, Note_on_c, 0, 68, 46
1, 159313, Note_on_c, 0, 71, 58
1, 159319, Note_on_c, 0, 65, 45
1, 159352, Note_on_c, 0, 68, 0
1, 159358, Note_on_c, 0, 65, 0
1, 159358, Note_on_c, 0, 71, 0
1, 159371, Note_on_c, 0, 83, 0
1, 159442, Note_on_c, 0, 83, 91
1, 159449, Note_on_c, 0, 67, 45
1, 159455, Note_on_c, 0, 71, 61
1, 159455, Note_on_c, 0, 64, 45
1, 159494, Note_on_c, 0, 64, 0
1, 159499, Note_on_c, 0, 67, 0
1, 159499, Note_on_c, 0, 71, 0
1, 159517, Note_on_c, 0, 83, 0
1, 159616, Note_on_c, 0, 83, 95
1, 159642, Note_on_c, 0, 48, 19
1, 159645, Note_on_c, 0, 83, 0
1, 159684, Control_c, 0, 64, 127
1, 159694, Note_on_c, 0, 48, 0
1, 159745, Note_on_c, 0, 63, 64
1, 159745, Note_on_c, 0, 66, 61
1, 159778, Note_on_c, 0, 63, 0
1, 159795, Note_on_c, 0, 66, 0
1, 159840, Note_on_c, 0, 78, 55
1, 159840, Control_c, 0, 64, 0
1, 159845, Note_on_c, 0, 54, 58
1, 159856, Note_on_c, 0, 59, 37
1, 159867, Note_on_c, 0, 71, 46
1, 159889, Note_on_c, 0, 78, 0
1, 159896, Note_on_c, 0, 59, 0
1, 159903, Note_on_c, 0, 54, 0
1, 159912, Note_on_c, 0, 71, 0
1, 159929, Note_on_c, 0, 66, 56
1, 159929, Note_on_c, 0, 63, 59
1, 159962, Note_on_c, 0, 63, 0
1, 159965, Note_on_c, 0, 66, 0
1, 160041, Note_on_c, 0, 83, 96
1, 160041, Note_on_c, 0, 47, 38
1, 160068, Note_on_c, 0, 83, 0
1, 160096, Note_on_c, 0, 47, 0
1, 160129, Note_on_c, 0, 63, 72
1, 160143, Note_on_c, 0, 66, 54
1, 160160, Note_on_c, 0, 63, 0
1, 160180, Note_on_c, 0, 66, 0
1, 160258, Note_on_c, 0, 85, 89
1, 160271, Note_on_c, 0, 42, 57
1, 160285, Note_on_c, 0, 85, 0
1, 160307, Note_on_c, 0, 42, 0
1, 160321, Control_c, 0, 64, 127
1, 160335, Note_on_c, 0, 82, 5
1, 160369, Note_on_c, 0, 82, 0
1, 160377, Note_on_c, 0, 66, 57
1, 160417, Note_on_c, 0, 66, 0
1, 160460, Note_on_c, 0, 78, 63
1, 160472, Note_on_c, 0, 54, 56
1, 160480, Note_on_c, 0, 73, 44
1, 160480, Note_on_c, 0, 58, 38
1, 160522, Note_on_c, 0, 54, 0
1, 160522, Note_on_c, 0, 73, 0
1, 160522, Control_c, 0, 64, 0
1, 160528, Note_on_c, 0, 78, 0
1, 160528, Note_on_c, 0, 58, 0
1, 160559, Note_on_c, 0, 66, 42
1, 160606, Note_on_c, 0, 66, 0
1, 160651, Note_on_c, 0, 42, 79
1, 160661, Note_on_c, 0, 85, 89
1, 160681, Note_on_c, 0, 42, 0
1, 160690, Note_on_c, 0, 85, 0
1, 160772, Note_on_c, 0, 66, 66
1, 160784, Note_on_c, 0, 64, 40
1, 160806, Note_on_c, 0, 66, 0
1, 160828, Note_on_c, 0, 64, 0
1, 160901, Note_on_c, 0, 87, 78
1, 160918, Note_on_c, 0, 47, 44
1, 160928, Note_on_c, 0, 87, 0
1, 160945, Note_on_c, 0, 85, 28
1, 160965, Note_on_c, 0, 47, 0
1, 160981, Control_c, 0, 64, 127
1, 161001, Note_on_c, 0, 85, 0
1, 161023, Note_on_c, 0, 63, 71
1, 161027, Note_on_c, 0, 66, 68
1, 161065, Note_on_c, 0, 66, 0
1, 161070, Note_on_c, 0, 63, 0
1, 161123, Note_on_c, 0, 75, 69
1, 161143, Note_on_c, 0, 54, 30
1, 161151, Note_on_c, 0, 75, 0
1, 161196, Note_on_c, 0, 54, 0
1, 161229, Note_on_c, 0, 83, 106
1, 161261, Note_on_c, 0, 83, 0
1, 161266, Note_on_c, 0, 47, 30
1, 161322, Note_on_c, 0, 47, 0
1, 161333, Note_on_c, 0, 42, 62
1, 161346, Note_on_c, 0, 87, 78
1, 161366, Note_on_c, 0, 42, 0
1, 161385, Note_on_c, 0, 87, 0
1, 161458, Note_on_c, 0, 95, 93
1, 161458, Note_on_c, 0, 35, 75
1, 161489, Note_on_c, 0, 35, 0
1, 161523, Note_on_c, 0, 95, 0
1, 161747, Control_c, 0, 64, 0
1, 161921, Note_on_c, 0, 87, 55
1, 161924, Note_on_c, 0, 75, 55
1, 161938, Note_on_c, 0, 71, 48
1, 161967, Note_on_c, 0, 87, 0
1, 161967, Note_on_c, 0, 75, 0
1, 161982, Note_on_c, 0, 71, 0
1, 162045, Note_on_c, 0, 74, 42
1, 162059, Note_on_c, 0, 87, 54
1, 162059, Note_on_c, 0, 75, 49
1, 162096, Note_on_c, 0, 87, 0
1, 162096, Note_on_c, 0, 74, 0
1, 162102, Note_on_c, 0, 75, 0
1, 162151, Note_on_c, 0, 70, 44
1, 162158, Note_on_c, 0, 73, 50
1, 162169, Note_on_c, 0, 87, 52
1, 162169, Note_on_c, 0, 75, 56
1, 162197, Note_on_c, 0, 70, 0
1, 162197, Note_on_c, 0, 73, 0
1, 162211, Note_on_c, 0, 87, 0
1, 162219, Note_on_c, 0, 75, 0
1, 162272, Note_on_c, 0, 87, 67
1, 162279, Note_on_c, 0, 72, 65
1, 162279, Note_on_c, 0, 75, 63
1, 162288, Note_on_c, 0, 69, 54
1, 162313, Note_on_c, 0, 72, 0
1, 162332, Note_on_c, 0, 69, 0
1, 162332, Note_on_c, 0, 75, 0
1, 162342, Note_on_c, 0, 87, 0
1, 162378, Note_on_c, 0, 68, 65
1, 162386, Note_on_c, 0, 87, 81
1, 162392, Note_on_c, 0, 75, 68
1, 162410, Note_on_c, 0, 68, 0
1, 162461, Note_on_c, 0, 87, 0
1, 162469, Note_on_c, 0, 75, 0
1, 162519, Note_on_c, 0, 87, 70
1, 162534, Note_on_c, 0, 51, 70
1, 162569, Note_on_c, 0, 51, 0
1, 162586, Control_c, 0, 64, 127
1, 162589, Note_on_c, 0, 87, 0
1, 162631, Note_on_c, 0, 66, 63
1, 162642, Note_on_c, 0, 70, 68
1, 162670, Note_on_c, 0, 66, 0
1, 162732, Note_on_c, 0, 70, 0
1, 162732, Note_on_c, 0, 82, 61
1, 162739, Note_on_c, 0, 63, 62
1, 162745, Note_on_c, 0, 58, 36
1, 162756, Note_on_c, 0, 75, 40
1, 162775, Note_on_c, 0, 63, 0
1, 162784, Note_on_c, 0, 82, 0
1, 162796, Note_on_c, 0, 75, 0
1, 162796, Note_on_c, 0, 58, 0
1, 162801, Control_c, 0, 64, 0
1, 162814, Note_on_c, 0, 66, 54
1, 162820, Note_on_c, 0, 70, 56
1, 162851, Note_on_c, 0, 66, 0
1, 162854, Note_on_c, 0, 70, 0
1, 162920, Note_on_c, 0, 87, 86
1, 162920, Note_on_c, 0, 51, 79
1, 162946, Note_on_c, 0, 87, 0
1, 162962, Note_on_c, 0, 51, 0
1, 163004, Note_on_c, 0, 70, 77
1, 163009, Note_on_c, 0, 66, 60
1, 163043, Note_on_c, 0, 66, 0
1, 163043, Note_on_c, 0, 70, 0
1, 163124, Note_on_c, 0, 46, 78
1, 163124, Note_on_c, 0, 89, 92
1, 163151, Note_on_c, 0, 89, 0
1, 163157, Note_on_c, 0, 46, 0
1, 163172, Control_c, 0, 64, 127
1, 163224, Note_on_c, 0, 70, 80
1, 163241, Note_on_c, 0, 68, 62
1, 163269, Note_on_c, 0, 70, 0
1, 163288, Note_on_c, 0, 68, 0
1, 163321, Note_on_c, 0, 82, 67
1, 163328, Note_on_c, 0, 58, 46
1, 163339, Note_on_c, 0, 77, 58
1, 163352, Note_on_c, 0, 62, 33
1, 163372, Note_on_c, 0, 77, 0
1, 163372, Note_on_c, 0, 82, 0
1, 163377, Control_c, 0, 64, 0
1, 163377, Note_on_c, 0, 58, 0
1, 163394, Note_on_c, 0, 68, 59
1, 163394, Note_on_c, 0, 62, 0
1, 163403, Note_on_c, 0, 70, 62
1, 163428, Note_on_c, 0, 68, 0
1, 163436, Note_on_c, 0, 70, 0
1, 163497, Note_on_c, 0, 46, 84
1, 163509, Note_on_c, 0, 89, 91
1, 163523, Note_on_c, 0, 46, 0
1, 163534, Note_on_c, 0, 89, 0
1, 163605, Note_on_c, 0, 68, 65
1, 163605, Note_on_c, 0, 70, 69
1, 163636, Note_on_c, 0, 68, 0
1, 163636, Note_on_c, 0, 70, 0
1, 163717, Note_on_c, 0, 90, 83
1, 163732, Note_on_c, 0, 51, 73
1, 163743, Note_on_c, 0, 90, 0
1, 163764, Note_on_c, 0, 51, 0
1, 163817, Note_on_c, 0, 70, 73
1, 163817, Control_c, 0, 64, 127
1, 163829, Note_on_c, 0, 66, 55
1, 163874, Note_on_c, 0, 70, 0
1, 163899, Note_on_c, 0, 66, 0
1, 163923, Note_on_c, 0, 78, 71
1, 163923, Note_on_c, 0, 58, 42
1, 163949, Note_on_c, 0, 78, 0
1, 163971, Note_on_c, 0, 58, 0
1, 164016, Note_on_c, 0, 87, 90
1, 164034, Note_on_c, 0, 51, 70
1, 164071, Note_on_c, 0, 51, 0
1, 164076, Note_on_c, 0, 87, 0
1, 164138, Note_on_c, 0, 90, 81
1, 164152, Note_on_c, 0, 46, 32
1, 164171, Note_on_c, 0, 90, 0
1, 164211, Note_on_c, 0, 46, 0
1, 164255, Note_on_c, 0, 39, 64
1, 164258, Note_on_c, 0, 99, 90
1, 164285, Note_on_c, 0, 39, 0
1, 164285, Note_on_c, 0, 99, 0
1, 164575, Control_c, 0, 64, 0
1, 164712, Note_on_c, 0, 75, 50
1, 164715, Note_on_c, 0, 90, 47
1, 164718, Note_on_c, 0, 78, 45
1, 164757, Note_on_c, 0, 90, 0
1, 164762, Note_on_c, 0, 78, 0
1, 164767, Note_on_c, 0, 75, 0
1, 164823, Note_on_c, 0, 90, 41
1, 164823, Note_on_c, 0, 77, 55
1, 164826, Note_on_c, 0, 74, 57
1, 164829, Note_on_c, 0, 78, 47
1, 164863, Note_on_c, 0, 77, 0
1, 164863, Note_on_c, 0, 74, 0
1, 164868, Note_on_c, 0, 90, 0
1, 164874, Note_on_c, 0, 78, 0
1, 164935, Note_on_c, 0, 90, 56
1, 164935, Note_on_c, 0, 73, 60
1, 164938, Note_on_c, 0, 78, 62
1, 164960, Note_on_c, 0, 76, 25
1, 164976, Note_on_c, 0, 73, 0
1, 164985, Note_on_c, 0, 90, 0
1, 164988, Note_on_c, 0, 78, 0
1, 165015, Note_on_c, 0, 76, 0
1, 165038, Note_on_c, 0, 90, 72
1, 165041, Note_on_c, 0, 75, 76
1, 165041, Note_on_c, 0, 78, 68
1, 165069, Note_on_c, 0, 72, 48
1, 165069, Note_on_c, 0, 75, 0
1, 165102, Note_on_c, 0, 90, 0
1, 165102, Note_on_c, 0, 78, 0
1, 165113, Note_on_c, 0, 72, 0
1, 165157, Note_on_c, 0, 90, 76
1, 165163, Note_on_c, 0, 74, 48
1, 165163, Note_on_c, 0, 71, 62
1, 165163, Note_on_c, 0, 78, 73
1, 165200, Note_on_c, 0, 71, 0
1, 165200, Note_on_c, 0, 74, 0
1, 165227, Note_on_c, 0, 90, 0
1, 165244, Note_on_c, 0, 78, 0
1, 165296, Note_on_c, 0, 90, 66
1, 165300, Note_on_c, 0, 54, 88
1, 165338, Note_on_c, 0, 54, 0
1, 165353, Control_c, 0, 64, 127
1, 165374, Note_on_c, 0, 90, 0
1, 165409, Note_on_c, 0, 70, 56
1, 165413, Note_on_c, 0, 73, 72
1, 165456, Note_on_c, 0, 70, 0
1, 165464, Note_on_c, 0, 73, 0
1, 165492, Note_on_c, 0, 85, 66
1, 165501, Note_on_c, 0, 61, 58
1, 165508, Note_on_c, 0, 78, 59
1, 165540, Note_on_c, 0, 61, 0
1, 165543, Note_on_c, 0, 78, 0
1, 165567, Note_on_c, 0, 85, 0
1, 165578, Note_on_c, 0, 70, 56
1, 165584, Note_on_c, 0, 73, 70
1, 165615, Note_on_c, 0, 70, 0
1, 165618, Note_on_c, 0, 73, 0
1, 165687, Note_on_c, 0, 90, 88
1, 165692, Note_on_c, 0, 54, 81
1, 165717, Note_on_c, 0, 90, 0
1, 165731, Note_on_c, 0, 54, 0
1, 165776, Note_on_c, 0, 73, 73
1, 165784, Note_on_c, 0, 70, 52
1, 165810, Note_on_c, 0, 73, 0
1, 165821, Note_on_c, 0, 70, 0
1, 165821, Control_c, 0, 64, 0
1, 165906, Note_on_c, 0, 92, 86
1, 165906, Note_on_c, 0, 49, 78
1, 165932, Note_on_c, 0, 92, 0
1, 165937, Note_on_c, 0, 49, 0
1, 165965, Control_c, 0, 64, 127
1, 166021, Note_on_c, 0, 73, 57
1, 166030, Note_on_c, 0, 71, 48
1, 166058, Note_on_c, 0, 73, 0
1, 166079, Note_on_c, 0, 71, 0
1, 166101, Note_on_c, 0, 85, 61
1, 166119, Note_on_c, 0, 61, 52
1, 166119, Note_on_c, 0, 80, 53
1, 166132, Note_on_c, 0, 65, 37
1, 166158, Note_on_c, 0, 80, 0
1, 166172, Note_on_c, 0, 85, 0
1, 166172, Note_on_c, 0, 65, 0
1, 166194, Note_on_c, 0, 61, 0
1, 166197, Note_on_c, 0, 73, 68
1, 166210, Note_on_c, 0, 71, 29
1, 166232, Note_on_c, 0, 73, 0
1, 166261, Note_on_c, 0, 71, 0
1, 166313, Note_on_c, 0, 92, 90
1, 166313, Note_on_c, 0, 49, 80
1, 166339, Note_on_c, 0, 92, 0
1, 166344, Note_on_c, 0, 49, 0
1, 166397, Note_on_c, 0, 75, 63
1, 166428, Note_on_c, 0, 71, 75
1, 166428, Note_on_c, 0, 75, 0
1, 166461, Note_on_c, 0, 71, 0
1, 166589, Control_c, 0, 64, 0
1, 166629, Note_on_c, 0, 94, 82
1, 166634, Note_on_c, 0, 85, 83
1, 166640, Note_on_c, 0, 90, 57
1, 166640, Note_on_c, 0, 54, 90
1, 166665, Note_on_c, 0, 85, 0
1, 166665, Note_on_c, 0, 94, 0
1, 166665, Note_on_c, 0, 54, 0
1, 166679, Note_on_c, 0, 90, 0
1, 166734, Note_on_c, 0, 85, 58
1, 166742, Note_on_c, 0, 92, 61
1, 166742, Note_on_c, 0, 95, 70
1, 166756, Control_c, 0, 64, 127
1, 166774, Note_on_c, 0, 85, 0
1, 166774, Note_on_c, 0, 95, 0
1, 166784, Note_on_c, 0, 92, 0
1, 166852, Note_on_c, 0, 61, 81
1, 166852, Note_on_c, 0, 97, 75
1, 166855, Note_on_c, 0, 85, 60
1, 166874, Note_on_c, 0, 94, 37
1, 166885, Note_on_c, 0, 97, 0
1, 166890, Note_on_c, 0, 85, 0
1, 166901, Note_on_c, 0, 61, 0
1, 166920, Note_on_c, 0, 94, 0
1, 166941, Note_on_c, 0, 97, 70
1, 166959, Note_on_c, 0, 70, 60
1, 166974, Note_on_c, 0, 92, 41
1, 166990, Note_on_c, 0, 97, 0
1, 166996, Note_on_c, 0, 70, 0
1, 167019, Note_on_c, 0, 92, 0
1, 167063, Note_on_c, 0, 95, 63
1, 167083, Note_on_c, 0, 78, 60
1, 167091, Note_on_c, 0, 85, 19
1, 167099, Note_on_c, 0, 95, 0
1, 167119, Note_on_c, 0, 78, 0
1, 167143, Note_on_c, 0, 85, 0
1, 167157, Note_on_c, 0, 82, 60
1, 167157, Note_on_c, 0, 94, 73
1, 167194, Note_on_c, 0, 82, 0
1, 167203, Note_on_c, 0, 85, 4
1, 167247, Control_c, 0, 64, 0
1, 167260, Note_on_c, 0, 85, 0
1, 167263, Note_on_c, 0, 94, 0
1, 167350, Note_on_c, 0, 92, 72
1, 167350, Note_on_c, 0, 83, 103
1, 167350, Note_on_c, 0, 47, 91
1, 167364, Note_on_c, 0, 87, 54
1, 167375, Note_on_c, 0, 47, 0
1, 167388, Note_on_c, 0, 83, 0
1, 167400, Note_on_c, 0, 87, 0
1, 167427, Control_c, 0, 64, 127
1, 167461, Note_on_c, 0, 94, 63
1, 167475, Note_on_c, 0, 85, 52
1, 167505, Note_on_c, 0, 94, 0
1, 167515, Note_on_c, 0, 92, 0
1, 167515, Note_on_c, 0, 85, 0
1, 167575, Note_on_c, 0, 95, 78
1, 167578, Note_on_c, 0, 59, 65
1, 167583, Note_on_c, 0, 87, 50
1, 167607, Note_on_c, 0, 95, 0
1, 167617, Note_on_c, 0, 59, 0
1, 167620, Note_on_c, 0, 87, 0
1, 167671, Note_on_c, 0, 95, 51
1, 167684, Note_on_c, 0, 85, 63
1, 167684, Note_on_c, 0, 68, 57
1, 167707, Note_on_c, 0, 95, 0
1, 167718, Note_on_c, 0, 85, 0
1, 167724, Note_on_c, 0, 68, 0
1, 167781, Note_on_c, 0, 85, 51
1, 167795, Note_on_c, 0, 75, 50
1, 167813, Note_on_c, 0, 85, 0
1, 167843, Note_on_c, 0, 75, 0
1, 167876, Note_on_c, 0, 92, 62
1, 167888, Note_on_c, 0, 83, 87
1, 167924, Note_on_c, 0, 83, 0
1, 167924, Note_on_c, 0, 92, 0
1, 167943, Control_c, 0, 64, 0
1, 168008, Note_on_c, 0, 85, 59
1, 168008, Note_on_c, 0, 90, 67
1, 168015, Note_on_c, 0, 82, 60
1, 168019, Note_on_c, 0, 49, 83
1, 168044, Note_on_c, 0, 85, 0
1, 168054, Note_on_c, 0, 90, 0
1, 168061, Note_on_c, 0, 49, 0
1, 168096, Note_on_c, 0, 82, 0
1, 168110, Note_on_c, 0, 92, 76
1, 168110, Control_c, 0, 64, 127
1, 168110, Note_on_c, 0, 85, 45
1, 168121, Note_on_c, 0, 83, 78
1, 168143, Note_on_c, 0, 92, 0
1, 168152, Note_on_c, 0, 85, 0
1, 168152, Note_on_c, 0, 83, 0
1, 168222, Note_on_c, 0, 85, 62
1, 168222, Note_on_c, 0, 94, 74
1, 168227, Note_on_c, 0, 58, 48
1, 168250, Note_on_c, 0, 94, 0
1, 168261, Note_on_c, 0, 85, 0
1, 168285, Note_on_c, 0, 58, 0
1, 168320, Note_on_c, 0, 85, 60
1, 168328, Note_on_c, 0, 94, 42
1, 168341, Note_on_c, 0, 66, 45
1, 168367, Note_on_c, 0, 94, 0
1, 168370, Note_on_c, 0, 85, 0
1, 168391, Note_on_c, 0, 66, 0
1, 168441, Note_on_c, 0, 83, 88
1, 168441, Note_on_c, 0, 92, 60
1, 168444, Note_on_c, 0, 73, 48
1, 168472, Note_on_c, 0, 83, 0
1, 168480, Note_on_c, 0, 92, 0
1, 168486, Note_on_c, 0, 73, 0
1, 168531, Note_on_c, 0, 82, 84
1, 168534, Note_on_c, 0, 78, 72
1, 168539, Note_on_c, 0, 90, 68
1, 168554, Note_on_c, 0, 85, 42
1, 168562, Note_on_c, 0, 78, 0
1, 168575, Note_on_c, 0, 82, 0
1, 168575, Note_on_c, 0, 90, 0
1, 168595, Note_on_c, 0, 85, 0
1, 168601, Control_c, 0, 64, 0
1, 168642, Note_on_c, 0, 85, 59
1, 168645, Note_on_c, 0, 89, 73
1, 168650, Note_on_c, 0, 80, 79
1, 168654, Note_on_c, 0, 61, 75
1, 168681, Note_on_c, 0, 85, 0
1, 168681, Note_on_c, 0, 89, 0
1, 168693, Note_on_c, 0, 80, 0
1, 168699, Note_on_c, 0, 61, 0
1, 168745, Note_on_c, 0, 80, 64
1, 168745, Control_c, 0, 64, 127
1, 168753, Note_on_c, 0, 90, 64
1, 168757, Note_on_c, 0, 85, 38
1, 168771, Note_on_c, 0, 82, 33
1, 168795, Note_on_c, 0, 90, 0
1, 168801, Note_on_c, 0, 85, 0
1, 168807, Note_on_c, 0, 80, 0
1, 168837, Note_on_c, 0, 82, 0
1, 168857, Note_on_c, 0, 77, 62
1, 168862, Note_on_c, 0, 85, 57
1, 168866, Note_on_c, 0, 92, 66
1, 168871, Note_on_c, 0, 83, 94
1, 168898, Note_on_c, 0, 77, 0
1, 168898, Note_on_c, 0, 85, 0
1, 168898, Note_on_c, 0, 92, 0
1, 168901, Note_on_c, 0, 83, 0
1, 168946, Note_on_c, 0, 92, 58
1, 168954, Note_on_c, 0, 83, 92
1, 168960, Note_on_c, 0, 85, 50
1, 168968, Note_on_c, 0, 68, 52
1, 168990, Note_on_c, 0, 83, 0
1, 168994, Note_on_c, 0, 85, 0
1, 169007, Note_on_c, 0, 92, 0
1, 169007, Note_on_c, 0, 68, 0
1, 169047, Note_on_c, 0, 83, 73
1, 169055, Note_on_c, 0, 82, 39
1, 169077, Note_on_c, 0, 90, 45
1, 169089, Note_on_c, 0, 61, 42
1, 169111, Note_on_c, 0, 83, 0
1, 169111, Note_on_c, 0, 82, 0
1, 169130, Note_on_c, 0, 90, 0
1, 169130, Note_on_c, 0, 61, 0
1, 169135, Note_on_c, 0, 71, 43
1, 169157, Note_on_c, 0, 89, 79
1, 169185, Note_on_c, 0, 71, 0
1, 169205, Note_on_c, 0, 89, 0
1, 169236, Control_c, 0, 64, 0
1, 169260, Note_on_c, 0, 70, 60
1, 169263, Note_on_c, 0, 90, 90
1, 169270, Note_on_c, 0, 78, 74
1, 169270, Note_on_c, 0, 66, 50
1, 169278, Note_on_c, 0, 85, 67
1, 169339, Note_on_c, 0, 70, 0
1, 169372, Note_on_c, 0, 66, 0
1, 169386, Note_on_c, 0, 78, 0
1, 169392, Control_c, 0, 64, 127
1, 169425, Note_on_c, 0, 85, 0
1, 169462, Note_on_c, 0, 90, 0
1, 169490, Note_on_c, 0, 54, 68
1, 169490, Note_on_c, 0, 42, 66
1, 169520, Note_on_c, 0, 42, 0
1, 169520, Note_on_c, 0, 54, 0
1, 169561, Control_c, 0, 64, 0
1, 169561, Note_on_c, 0, 42, 76
1, 169570, Note_on_c, 0, 54, 76
1, 169600, Note_on_c, 0, 42, 0
1, 169606, Note_on_c, 0, 54, 0
1, 169673, Note_on_c, 0, 43, 75
1, 169676, Note_on_c, 0, 55, 72
1, 169703, Note_on_c, 0, 43, 0
1, 169709, Note_on_c, 0, 55, 0
1, 169746, Note_on_c, 0, 43, 83
1, 169756, Note_on_c, 0, 55, 78
1, 169816, Note_on_c, 0, 43, 0
1, 169826, Note_on_c, 0, 55, 0
1, 169874, Note_on_c, 0, 44, 88
1, 169880, Note_on_c, 0, 56, 87
1, 169946, Note_on_c, 0, 56, 0
1, 169954, Note_on_c, 0, 44, 0
1, 169990, Note_on_c, 0, 56, 72
1, 169993, Note_on_c, 0, 44, 92
1, 170027, Note_on_c, 0, 56, 0
1, 170044, Note_on_c, 0, 44, 0
1, 170060, Note_on_c, 0, 68, 68
1, 170060, Note_on_c, 0, 56, 70
1, 170093, Note_on_c, 0, 68, 0
1, 170096, Note_on_c, 0, 56, 0
1, 170160, Note_on_c, 0, 68, 55
1, 170280, Note_on_c, 0, 80, 84
1, 170308, Note_on_c, 0, 80, 0
1, 170325, Note_on_c, 0, 68, 0
1, 170356, Note_on_c, 0, 80, 59
1, 170369, Note_on_c, 0, 68, 68
1, 170403, Note_on_c, 0, 68, 0
1, 170412, Note_on_c, 0, 80, 0
1, 170502, Control_c, 0, 64, 127
1, 170502, Note_on_c, 0, 80, 79
1, 170509, Note_on_c, 0, 92, 78
1, 170532, Note_on_c, 0, 80, 0
1, 170541, Note_on_c, 0, 92, 0
1, 170681, Control_c, 0, 64, 0
1, 170742, Note_on_c, 0, 90, 62
1, 170746, Note_on_c, 0, 102, 58
1, 170753, Note_on_c, 0, 75, 32
1, 170753, Note_on_c, 0, 80, 26
1, 170778, Note_on_c, 0, 90, 0
1, 170783, Note_on_c, 0, 102, 0
1, 170803, Note_on_c, 0, 75, 0
1, 170811, Note_on_c, 0, 80, 0
1, 170831, Note_on_c, 0, 102, 60
1, 170836, Note_on_c, 0, 90, 38
1, 170858, Note_on_c, 0, 80, 31
1, 170870, Note_on_c, 0, 102, 0
1, 170883, Note_on_c, 0, 90, 0
1, 170901, Note_on_c, 0, 80, 0
1, 170947, Note_on_c, 0, 80, 65
1, 170951, Note_on_c, 0, 73, 48
1, 170954, Note_on_c, 0, 88, 57
1, 170962, Note_on_c, 0, 100, 45
1, 170984, Note_on_c, 0, 80, 0
1, 170992, Note_on_c, 0, 88, 0
1, 170997, Note_on_c, 0, 73, 0
1, 171000, Note_on_c, 0, 100, 0
1, 171053, Note_on_c, 0, 88, 43
1, 171057, Note_on_c, 0, 100, 59
1, 171062, Note_on_c, 0, 80, 41
1, 171089, Note_on_c, 0, 100, 0
1, 171089, Note_on_c, 0, 88, 0
1, 171123, Note_on_c, 0, 80, 0
1, 171167, Note_on_c, 0, 87, 74
1, 171167, Note_on_c, 0, 99, 73
1, 171174, Note_on_c, 0, 80, 68
1, 171195, Note_on_c, 0, 72, 33
1, 171201, Note_on_c, 0, 99, 0
1, 171213, Note_on_c, 0, 87, 0
1, 171224, Note_on_c, 0, 80, 0
1, 171242, Note_on_c, 0, 72, 0
1, 171280, Note_on_c, 0, 80, 68
1, 171280, Note_on_c, 0, 87, 63
1, 171284, Note_on_c, 0, 99, 62
1, 171316, Note_on_c, 0, 99, 0
1, 171341, Note_on_c, 0, 87, 0
1, 171366, Note_on_c, 0, 80, 0
1, 171399, Note_on_c, 0, 70, 48
1, 171407, Note_on_c, 0, 85, 65
1, 171415, Note_on_c, 0, 97, 48
1, 171435, Note_on_c, 0, 80, 17
1, 171440, Note_on_c, 0, 85, 0
1, 171452, Note_on_c, 0, 97, 0
1, 171455, Note_on_c, 0, 70, 0
1, 171497, Note_on_c, 0, 85, 41
1, 171497, Note_on_c, 0, 97, 56
1, 171538, Note_on_c, 0, 97, 0
1, 171538, Note_on_c, 0, 85, 0
1, 171561, Note_on_c, 0, 80, 0
1, 171608, Note_on_c, 0, 99, 73
1, 171608, Note_on_c, 0, 87, 61
1, 171624, Note_on_c, 0, 72, 31
1, 171638, Note_on_c, 0, 99, 0
1, 171642, Note_on_c, 0, 80, 18
1, 171642, Note_on_c, 0, 87, 0
1, 171678, Note_on_c, 0, 72, 0
1, 171722, Note_on_c, 0, 87, 33
1, 171725, Note_on_c, 0, 99, 44
1, 171766, Note_on_c, 0, 80, 0
1, 171778, Note_on_c, 0, 99, 0
1, 171794, Note_on_c, 0, 87, 0
1, 171847, Note_on_c, 0, 80, 43
1, 171853, Note_on_c, 0, 88, 51
1, 171858, Note_on_c, 0, 100, 49
1, 171858, Note_on_c, 0, 73, 42
1, 171884, Note_on_c, 0, 80, 0
1, 171901, Note_on_c, 0, 73, 0
1, 171906, Note_on_c, 0, 100, 0
1, 171911, Note_on_c, 0, 88, 0
1, 171939, Control_c, 0, 64, 127
1, 172096, Note_on_c, 0, 44, 63
1, 172096, Note_on_c, 0, 56, 49
1, 172132, Note_on_c, 0, 44, 0
1, 172142, Note_on_c, 0, 56, 0
1, 172174, Note_on_c, 0, 44, 76
1, 172192, Control_c, 0, 64, 0
1, 172192, Note_on_c, 0, 56, 51
1, 172220, Note_on_c, 0, 44, 0
1, 172235, Note_on_c, 0, 56, 0
1, 172287, Note_on_c, 0, 43, 65
1, 172287, Note_on_c, 0, 55, 72
1, 172321, Note_on_c, 0, 43, 0
1, 172321, Note_on_c, 0, 55, 0
1, 172387, Note_on_c, 0, 55, 52
1, 172387, Note_on_c, 0, 43, 55
1, 172424, Note_on_c, 0, 55, 0
1, 172424, Note_on_c, 0, 43, 0
1, 172488, Note_on_c, 0, 54, 92
1, 172493, Note_on_c, 0, 42, 79
1, 172536, Note_on_c, 0, 42, 0
1, 172549, Note_on_c, 0, 54, 0
1, 172603, Note_on_c, 0, 54, 78
1, 172603, Note_on_c, 0, 42, 72
1, 172639, Note_on_c, 0, 42, 0
1, 172644, Note_on_c, 0, 54, 0
1, 172644, Control_c, 0, 64, 127
1, 172689, Note_on_c, 0, 54, 88
1, 172703, Note_on_c, 0, 66, 51
1, 172731, Note_on_c, 0, 54, 0
1, 172741, Note_on_c, 0, 66, 0
1, 172786, Note_on_c, 0, 54, 88
1, 172789, Note_on_c, 0, 66, 47
1, 172828, Note_on_c, 0, 54, 0
1, 172878, Note_on_c, 0, 66, 0
1, 172911, Note_on_c, 0, 78, 80
1, 172915, Note_on_c, 0, 66, 50
1, 172939, Note_on_c, 0, 78, 0
1, 172953, Note_on_c, 0, 66, 0
1, 172993, Note_on_c, 0, 78, 49
1, 173007, Note_on_c, 0, 66, 52
1, 173046, Note_on_c, 0, 66, 0
1, 173073, Note_on_c, 0, 78, 0
1, 173117, Note_on_c, 0, 78, 89
1, 173126, Note_on_c, 0, 90, 84
1, 173148, Note_on_c, 0, 78, 0
1, 173157, Note_on_c, 0, 90, 0
1, 173305, Control_c, 0, 64, 0
1, 173372, Note_on_c, 0, 78, 51
1, 173379, Note_on_c, 0, 73, 38
1, 173379, Note_on_c, 0, 100, 69
1, 173383, Note_on_c, 0, 88, 56
1, 173407, Note_on_c, 0, 100, 0
1, 173411, Note_on_c, 0, 78, 0
1, 173422, Note_on_c, 0, 88, 0
1, 173430, Note_on_c, 0, 73, 0
1, 173465, Note_on_c, 0, 78, 53
1, 173468, Note_on_c, 0, 100, 51
1, 173468, Note_on_c, 0, 88, 72
1, 173505, Note_on_c, 0, 88, 0
1, 173511, Note_on_c, 0, 100, 0
1, 173536, Note_on_c, 0, 78, 0
1, 173574, Note_on_c, 0, 99, 80
1, 173577, Note_on_c, 0, 87, 75
1, 173588, Note_on_c, 0, 71, 54
1, 173600, Note_on_c, 0, 99, 0
1, 173600, Note_on_c, 0, 78, 42
1, 173616, Note_on_c, 0, 87, 0
1, 173630, Note_on_c, 0, 71, 0
1, 173649, Note_on_c, 0, 78, 0
1, 173675, Note_on_c, 0, 87, 61
1, 173675, Note_on_c, 0, 99, 47
1, 173684, Note_on_c, 0, 78, 54
1, 173709, Note_on_c, 0, 87, 0
1, 173709, Note_on_c, 0, 99, 0
1, 173725, Note_on_c, 0, 78, 0
1, 173776, Note_on_c, 0, 78, 61
1, 173781, Note_on_c, 0, 85, 83
1, 173786, Note_on_c, 0, 70, 56
1, 173795, Note_on_c, 0, 97, 53
1, 173812, Note_on_c, 0, 85, 0
1, 173819, Note_on_c, 0, 78, 0
1, 173830, Note_on_c, 0, 97, 0
1, 173847, Note_on_c, 0, 70, 0
1, 173872, Note_on_c, 0, 97, 64
1, 173879, Note_on_c, 0, 85, 48
1, 173884, Note_on_c, 0, 78, 64
1, 173911, Note_on_c, 0, 97, 0
1, 173926, Note_on_c, 0, 85, 0
1, 173950, Note_on_c, 0, 78, 0
1, 173992, Note_on_c, 0, 83, 93
1, 173992, Note_on_c, 0, 95, 51
1, 173992, Note_on_c, 0, 68, 56
1, 174003, Note_on_c, 0, 78, 38
1, 174020, Note_on_c, 0, 83, 0
1, 174032, Note_on_c, 0, 95, 0
1, 174043, Note_on_c, 0, 78, 0
1, 174043, Note_on_c, 0, 68, 0
1, 174082, Note_on_c, 0, 95, 68
1, 174085, Note_on_c, 0, 78, 75
1, 174092, Note_on_c, 0, 83, 53
1, 174112, Note_on_c, 0, 95, 0
1, 174134, Note_on_c, 0, 83, 0
1, 174148, Note_on_c, 0, 78, 0
1, 174182, Note_on_c, 0, 85, 78
1, 174193, Note_on_c, 0, 97, 66
1, 174202, Note_on_c, 0, 78, 55
1, 174213, Note_on_c, 0, 70, 38
1, 174224, Note_on_c, 0, 85, 0
1, 174224, Note_on_c, 0, 97, 0
1, 174240, Note_on_c, 0, 78, 0
1, 174263, Note_on_c, 0, 70, 0
1, 174286, Note_on_c, 0, 78, 59
1, 174290, Note_on_c, 0, 97, 47
1, 174299, Note_on_c, 0, 85, 38
1, 174330, Note_on_c, 0, 97, 0
1, 174335, Note_on_c, 0, 78, 0
1, 174344, Note_on_c, 0, 85, 0
1, 174402, Note_on_c, 0, 78, 55
1, 174422, Note_on_c, 0, 87, 60
1, 174422, Note_on_c, 0, 99, 72
1, 174433, Note_on_c, 0, 78, 0
1, 174433, Note_on_c, 0, 71, 45
1, 174457, Control_c, 0, 64, 127
1, 174468, Note_on_c, 0, 99, 0
1, 174468, Note_on_c, 0, 87, 0
1, 174480, Note_on_c, 0, 71, 0
1, 174650, Note_on_c, 0, 53, 91
1, 174653, Note_on_c, 0, 41, 66
1, 174680, Note_on_c, 0, 53, 0
1, 174689, Note_on_c, 0, 41, 0
1, 174733, Note_on_c, 0, 41, 48
1, 174733, Note_on_c, 0, 53, 78
1, 174770, Note_on_c, 0, 53, 0
1, 174776, Note_on_c, 0, 41, 0
1, 174842, Note_on_c, 0, 52, 85
1, 174847, Note_on_c, 0, 40, 87
1, 174851, Control_c, 0, 64, 0
1, 174873, Note_on_c, 0, 52, 0
1, 174873, Note_on_c, 0, 40, 0
1, 174934, Note_on_c, 0, 52, 74
1, 174934, Note_on_c, 0, 40, 81
1, 174982, Note_on_c, 0, 52, 0
1, 174996, Control_c, 0, 64, 127
1, 174999, Note_on_c, 0, 40, 0
1, 175048, Note_on_c, 0, 39, 79
1, 175048, Note_on_c, 0, 51, 84
1, 175092, Control_c, 0, 64, 0
1, 175092, Note_on_c, 0, 39, 0
1, 175098, Note_on_c, 0, 51, 0
1, 175151, Note_on_c, 0, 51, 76
1, 175151, Note_on_c, 0, 39, 83
1, 175205, Note_on_c, 0, 51, 0
1, 175212, Note_on_c, 0, 39, 0
1, 175248, Control_c, 0, 64, 127
1, 175251, Note_on_c, 0, 51, 85
1, 175255, Note_on_c, 0, 63, 73
1, 175287, Note_on_c, 0, 63, 0
1, 175299, Note_on_c, 0, 51, 0
1, 175346, Note_on_c, 0, 63, 55
1, 175464, Note_on_c, 0, 75, 92
1, 175489, Note_on_c, 0, 75, 0
1, 175508, Note_on_c, 0, 63, 0
1, 175569, Note_on_c, 0, 75, 66
1, 175574, Note_on_c, 0, 63, 75
1, 175611, Note_on_c, 0, 63, 0
1, 175652, Note_on_c, 0, 75, 0
1, 175706, Note_on_c, 0, 75, 87
1, 175711, Note_on_c, 0, 87, 90
1, 175784, Note_on_c, 0, 75, 0
1, 175806, Note_on_c, 0, 87, 0
1, 175939, Note_on_c, 0, 67, 59
1, 175942, Note_on_c, 0, 75, 80
1, 175945, Note_on_c, 0, 87, 73
1, 175948, Note_on_c, 0, 63, 47
1, 175970, Note_on_c, 0, 75, 0
1, 175970, Note_on_c, 0, 87, 0
1, 175976, Note_on_c, 0, 67, 0
1, 175987, Note_on_c, 0, 63, 0
1, 176021, Note_on_c, 0, 67, 70
1, 176028, Note_on_c, 0, 87, 44
1, 176028, Note_on_c, 0, 75, 55
1, 176035, Note_on_c, 0, 63, 73
1, 176063, Note_on_c, 0, 63, 0
1, 176073, Note_on_c, 0, 67, 0
1, 176085, Note_on_c, 0, 87, 0
1, 176085, Note_on_c, 0, 75, 0
1, 176134, Control_c, 0, 64, 0
1, 176134, Note_on_c, 0, 75, 84
1, 176140, Note_on_c, 0, 87, 68
1, 176146, Note_on_c, 0, 65, 55
1, 176156, Note_on_c, 0, 68, 28
1, 176174, Note_on_c, 0, 87, 0
1, 176185, Note_on_c, 0, 65, 0
1, 176203, Note_on_c, 0, 75, 0
1, 176229, Note_on_c, 0, 65, 49
1, 176235, Note_on_c, 0, 87, 62
1, 176246, Note_on_c, 0, 75, 84
1, 176269, Note_on_c, 0, 65, 0
1, 176276, Note_on_c, 0, 68, 0
1, 176279, Control_c, 0, 64, 127
1, 176283, Note_on_c, 0, 75, 0
1, 176307, Note_on_c, 0, 87, 0
1, 176340, Note_on_c, 0, 69, 68
1, 176346, Note_on_c, 0, 88, 97
1, 176349, Note_on_c, 0, 76, 88
1, 176358, Note_on_c, 0, 66, 45
1, 176377, Note_on_c, 0, 69, 0
1, 176377, Note_on_c, 0, 88, 0
1, 176382, Note_on_c, 0, 76, 0
1, 176404, Note_on_c, 0, 66, 0
1, 176447, Note_on_c, 0, 69, 45
1, 176450, Note_on_c, 0, 75, 92
1, 176450, Note_on_c, 0, 66, 58
1, 176450, Note_on_c, 0, 87, 86
1, 176480, Note_on_c, 0, 87, 0
1, 176494, Note_on_c, 0, 75, 0
1, 176494, Note_on_c, 0, 69, 0
1, 176494, Note_on_c, 0, 66, 0
1, 176555, Note_on_c, 0, 73, 86
1, 176555, Note_on_c, 0, 85, 83
1, 176567, Note_on_c, 0, 67, 65
1, 176583, Note_on_c, 0, 64, 34
1, 176602, Note_on_c, 0, 85, 0
1, 176602, Note_on_c, 0, 67, 0
1, 176627, Note_on_c, 0, 64, 0
1, 176638, Note_on_c, 0, 73, 0
1, 176647, Note_on_c, 0, 67, 70
1, 176662, Note_on_c, 0, 83, 105
1, 176662, Note_on_c, 0, 71, 94
1, 176681, Note_on_c, 0, 64, 44
1, 176681, Note_on_c, 0, 67, 0
1, 176687, Note_on_c, 0, 83, 0
1, 176692, Note_on_c, 0, 71, 0
1, 176722, Note_on_c, 0, 64, 0
1, 176759, Note_on_c, 0, 70, 78
1, 176764, Note_on_c, 0, 82, 76
1, 176767, Note_on_c, 0, 62, 66
1, 176772, Note_on_c, 0, 65, 62
1, 176794, Note_on_c, 0, 82, 0
1, 176794, Note_on_c, 0, 70, 0
1, 176801, Note_on_c, 0, 62, 0
1, 176806, Note_on_c, 0, 65, 0
1, 176856, Note_on_c, 0, 65, 63
1, 176864, Note_on_c, 0, 68, 64
1, 176864, Note_on_c, 0, 80, 70
1, 176868, Note_on_c, 0, 62, 50
1, 176892, Note_on_c, 0, 80, 0
1, 176907, Note_on_c, 0, 68, 0
1, 176914, Control_c, 0, 64, 0
1, 176923, Note_on_c, 0, 62, 0
1, 176937, Note_on_c, 0, 65, 0
1, 176970, Note_on_c, 0, 79, 89
1, 176979, Note_on_c, 0, 67, 66
1, 176979, Note_on_c, 0, 63, 85
1, 177012, Note_on_c, 0, 63, 0
1, 177034, Note_on_c, 0, 67, 0
1, 177093, Control_c, 0, 64, 127
1, 177169, Note_on_c, 0, 79, 0
1, 177176, Note_on_c, 0, 34, 77
1, 177176, Note_on_c, 0, 46, 74
1, 177204, Note_on_c, 0, 34, 0
1, 177204, Note_on_c, 0, 46, 0
1, 177249, Note_on_c, 0, 46, 64
1, 177249, Note_on_c, 0, 34, 58
1, 177316, Note_on_c, 0, 34, 0
1, 177326, Note_on_c, 0, 46, 0
1, 177368, Note_on_c, 0, 50, 97
1, 177368, Note_on_c, 0, 38, 92
1, 177397, Note_on_c, 0, 50, 0
1, 177397, Note_on_c, 0, 38, 0
1, 177466, Note_on_c, 0, 38, 67
1, 177469, Note_on_c, 0, 50, 62
1, 177500, Note_on_c, 0, 38, 0
1, 177506, Note_on_c, 0, 50, 0
1, 177580, Note_on_c, 0, 51, 93
1, 177584, Note_on_c, 0, 39, 91
1, 177642, Note_on_c, 0, 39, 0
1, 177648, Note_on_c, 0, 51, 0
1, 177656, Control_c, 0, 64, 0
1, 177687, Note_on_c, 0, 51, 95
1, 177690, Note_on_c, 0, 39, 86
1, 177767, Note_on_c, 0, 51, 0
1, 177786, Note_on_c, 0, 63, 86
1, 177786, Note_on_c, 0, 51, 70
1, 177790, Note_on_c, 0, 39, 0
1, 177800, Control_c, 0, 64, 127
1, 177825, Note_on_c, 0, 63, 0
1, 177847, Note_on_c, 0, 51, 0
1, 177887, Note_on_c, 0, 63, 78
1, 177995, Note_on_c, 0, 63, 0
1, 178031, Note_on_c, 0, 75, 95
1, 178040, Note_on_c, 0, 63, 88
1, 178057, Note_on_c, 0, 75, 0
1, 178065, Note_on_c, 0, 63, 0
1, 178132, Note_on_c, 0, 75, 71
1, 178138, Note_on_c, 0, 63, 68
1, 178180, Note_on_c, 0, 63, 0
1, 178193, Note_on_c, 0, 75, 0
1, 178263, Note_on_c, 0, 75, 84
1, 178268, Note_on_c, 0, 87, 90
1, 178290, Note_on_c, 0, 75, 0
1, 178296, Note_on_c, 0, 87, 0
1, 178503, Note_on_c, 0, 75, 75
1, 178503, Note_on_c, 0, 87, 95
1, 178506, Note_on_c, 0, 99, 90
1, 178510, Note_on_c, 0, 67, 58
1, 178530, Note_on_c, 0, 87, 0
1, 178530, Note_on_c, 0, 99, 0
1, 178530, Note_on_c, 0, 75, 0
1, 178549, Note_on_c, 0, 67, 0
1, 178598, Note_on_c, 0, 67, 59
1, 178603, Note_on_c, 0, 99, 66
1, 178603, Note_on_c, 0, 87, 70
1, 178603, Note_on_c, 0, 75, 42
1, 178637, Note_on_c, 0, 67, 0
1, 178640, Note_on_c, 0, 75, 0
1, 178662, Note_on_c, 0, 87, 0
1, 178681, Note_on_c, 0, 99, 0
1, 178698, Control_c, 0, 64, 0
1, 178714, Note_on_c, 0, 87, 88
1, 178719, Note_on_c, 0, 99, 97
1, 178719, Note_on_c, 0, 77, 85
1, 178730, Note_on_c, 0, 68, 75
1, 178754, Note_on_c, 0, 77, 0
1, 178761, Note_on_c, 0, 68, 0
1, 178775, Note_on_c, 0, 87, 0
1, 178781, Note_on_c, 0, 99, 0
1, 178822, Note_on_c, 0, 68, 43
1, 178822, Note_on_c, 0, 87, 78
1, 178822, Note_on_c, 0, 99, 94
1, 178828, Note_on_c, 0, 77, 67
1, 178831, Control_c, 0, 64, 127
1, 178882, Note_on_c, 0, 77, 0
1, 178890, Note_on_c, 0, 87, 0
1, 178895, Note_on_c, 0, 68, 0
1, 178907, Note_on_c, 0, 99, 0
1, 178915, Control_c, 0, 64, 0
1, 178937, Note_on_c, 0, 100, 96
1, 178937, Note_on_c, 0, 69, 81
1, 178942, Note_on_c, 0, 88, 93
1, 178946, Note_on_c, 0, 78, 88
1, 178978, Note_on_c, 0, 78, 0
1, 178984, Note_on_c, 0, 69, 0
1, 178984, Note_on_c, 0, 88, 0
1, 179002, Note_on_c, 0, 100, 0
1, 179046, Control_c, 0, 64, 127
1, 179052, Note_on_c, 0, 69, 62
1, 179055, Note_on_c, 0, 87, 92
1, 179055, Note_on_c, 0, 99, 88
1, 179062, Note_on_c, 0, 78, 66
1, 179090, Note_on_c, 0, 69, 0
1, 179099, Note_on_c, 0, 99, 0
1, 179099, Note_on_c, 0, 78, 0
1, 179134, Note_on_c, 0, 87, 0
1, 179173, Note_on_c, 0, 85, 92
1, 179173, Note_on_c, 0, 97, 83
1, 179179, Note_on_c, 0, 79, 90
1, 179193, Note_on_c, 0, 70, 67
1, 179196, Note_on_c, 0, 97, 0
1, 179215, Note_on_c, 0, 79, 0
1, 179227, Note_on_c, 0, 70, 0
1, 179235, Note_on_c, 0, 85, 0
1, 179269, Note_on_c, 0, 70, 61
1, 179282, Note_on_c, 0, 79, 65
1, 179288, Note_on_c, 0, 95, 88
1, 179288, Note_on_c, 0, 83, 106
1, 179319, Note_on_c, 0, 83, 0
1, 179323, Note_on_c, 0, 95, 0
1, 179330, Note_on_c, 0, 79, 0
1, 179392, Note_on_c, 0, 82, 88
1, 179396, Note_on_c, 0, 94, 85
1, 179399, Note_on_c, 0, 74, 69
1, 179407, Note_on_c, 0, 77, 55
1, 179407, Note_on_c, 0, 70, 0
1, 179432, Note_on_c, 0, 74, 0
1, 179432, Note_on_c, 0, 94, 0
1, 179439, Note_on_c, 0, 77, 0
1, 179474, Note_on_c, 0, 82, 0
1, 179492, Note_on_c, 0, 77, 68
1, 179497, Note_on_c, 0, 74, 61
1, 179505, Note_on_c, 0, 92, 84
1, 179505, Note_on_c, 0, 80, 86
1, 179533, Note_on_c, 0, 74, 0
1, 179538, Control_c, 0, 64, 0
1, 179538, Note_on_c, 0, 82, 17
1, 179541, Note_on_c, 0, 92, 0
1, 179556, Note_on_c, 0, 77, 0
1, 179575, Note_on_c, 0, 80, 0
1, 179586, Note_on_c, 0, 82, 0
1, 179611, Note_on_c, 0, 75, 78
1, 179611, Note_on_c, 0, 91, 89
1, 179622, Note_on_c, 0, 79, 92
1, 179628, Note_on_c, 0, 70, 50
1, 179641, Note_on_c, 0, 75, 0
1, 179641, Note_on_c, 0, 91, 0
1, 179648, Note_on_c, 0, 79, 0
1, 179658, Control_c, 0, 64, 127
1, 179666, Note_on_c, 0, 70, 0
1, 179712, Note_on_c, 0, 75, 54
1, 179712, Note_on_c, 0, 70, 52
1, 179719, Note_on_c, 0, 90, 83
1, 179719, Note_on_c, 0, 78, 84
1, 179747, Note_on_c, 0, 75, 0
1, 179754, Note_on_c, 0, 90, 0
1, 179762, Note_on_c, 0, 70, 0
1, 179775, Note_on_c, 0, 78, 0
1, 179831, Note_on_c, 0, 71, 92
1, 179839, Note_on_c, 0, 89, 87
1, 179839, Note_on_c, 0, 77, 89
1, 179839, Note_on_c, 0, 68, 64
1, 179860, Note_on_c, 0, 71, 0
1, 179868, Note_on_c, 0, 89, 0
1, 179871, Note_on_c, 0, 68, 0
1, 179871, Note_on_c, 0, 77, 0
1, 179934, Note_on_c, 0, 71, 68
1, 179934, Note_on_c, 0, 68, 39
1, 179942, Note_on_c, 0, 88, 85
1, 179948, Note_on_c, 0, 76, 74
1, 179982, Note_on_c, 0, 68, 0
1, 179982, Note_on_c, 0, 88, 0
1, 179982, Note_on_c, 0, 76, 0
1, 179987, Note_on_c, 0, 71, 0
1, 180048, Note_on_c, 0, 66, 67
1, 180051, Note_on_c, 0, 86, 88
1, 180054, Note_on_c, 0, 69, 71
1, 180054, Note_on_c, 0, 74, 88
1, 180082, Note_on_c, 0, 86, 0
1, 180082, Note_on_c, 0, 74, 0
1, 180087, Note_on_c, 0, 66, 0
1, 180090, Note_on_c, 0, 69, 0
1, 180154, Note_on_c, 0, 69, 49
1, 180158, Note_on_c, 0, 66, 44
1, 180161, Note_on_c, 0, 87, 86
1, 180161, Note_on_c, 0, 75, 84
1, 180207, Note_on_c, 0, 87, 0
1, 180207, Note_on_c, 0, 75, 0
1, 180221, Note_on_c, 0, 69, 0
1, 180227, Note_on_c, 0, 66, 0
1, 180279, Note_on_c, 0, 70, 78
1, 180283, Note_on_c, 0, 88, 97
1, 180283, Note_on_c, 0, 76, 95
1, 180286, Note_on_c, 0, 67, 84
1, 180305, Control_c, 0, 64, 0
1, 180305, Note_on_c, 0, 88, 0
1, 180311, Note_on_c, 0, 76, 0
1, 180311, Note_on_c, 0, 70, 0
1, 180321, Note_on_c, 0, 67, 0
1, 180383, Note_on_c, 0, 70, 55
1, 180391, Note_on_c, 0, 75, 94
1, 180391, Note_on_c, 0, 67, 58
1, 180394, Note_on_c, 0, 87, 83
1, 180413, Control_c, 0, 64, 127
1, 180427, Note_on_c, 0, 87, 0
1, 180430, Note_on_c, 0, 67, 0
1, 180436, Note_on_c, 0, 70, 0
1, 180469, Note_on_c, 0, 75, 0
1, 180499, Note_on_c, 0, 67, 74
1, 180502, Note_on_c, 0, 85, 86
1, 180502, Note_on_c, 0, 73, 87
1, 180520, Note_on_c, 0, 64, 70
1, 180550, Note_on_c, 0, 64, 0
1, 180561, Note_on_c, 0, 85, 0
1, 180572, Note_on_c, 0, 67, 0
1, 180587, Note_on_c, 0, 73, 0
1, 180609, Note_on_c, 0, 64, 71
1, 180614, Note_on_c, 0, 83, 103
1, 180614, Note_on_c, 0, 71, 95
1, 180623, Note_on_c, 0, 67, 52
1, 180640, Note_on_c, 0, 64, 0
1, 180640, Note_on_c, 0, 83, 0
1, 180643, Note_on_c, 0, 71, 0
1, 180670, Note_on_c, 0, 67, 0
1, 180719, Note_on_c, 0, 65, 89
1, 180719, Note_on_c, 0, 62, 75
1, 180723, Note_on_c, 0, 70, 88
1, 180723, Note_on_c, 0, 82, 81
1, 180751, Note_on_c, 0, 82, 0
1, 180756, Note_on_c, 0, 62, 0
1, 180765, Note_on_c, 0, 70, 0
1, 180775, Note_on_c, 0, 65, 0
1, 180815, Note_on_c, 0, 65, 81
1, 180821, Note_on_c, 0, 80, 85
1, 180821, Note_on_c, 0, 68, 84
1, 180874, Note_on_c, 0, 80, 0
1, 180885, Note_on_c, 0, 68, 0
1, 180895, Note_on_c, 0, 65, 0
1, 180915, Note_on_c, 0, 63, 88
1, 180932, Note_on_c, 0, 58, 73
1, 180932, Note_on_c, 0, 79, 92
1, 180937, Note_on_c, 0, 67, 91
1, 180959, Note_on_c, 0, 79, 0
1, 180965, Note_on_c, 0, 67, 0
1, 180982, Note_on_c, 0, 58, 0
1, 180982, Note_on_c, 0, 63, 0
1, 181018, Note_on_c, 0, 66, 52
1, 181026, Note_on_c, 0, 58, 70
1, 181034, Note_on_c, 0, 78, 68
1, 181034, Note_on_c, 0, 63, 46
1, 181040, Note_on_c, 0, 68, 29
1, 181062, Note_on_c, 0, 58, 0
1, 181065, Note_on_c, 0, 66, 0
1, 181065, Note_on_c, 0, 78, 0
1, 181074, Note_on_c, 0, 63, 0
1, 181096, Note_on_c, 0, 68, 0
1, 181126, Note_on_c, 0, 77, 80
1, 181126, Note_on_c, 0, 59, 95
1, 181132, Note_on_c, 0, 65, 69
1, 181144, Note_on_c, 0, 56, 64
1, 181152, Note_on_c, 0, 77, 0
1, 181163, Note_on_c, 0, 59, 0
1, 181163, Note_on_c, 0, 65, 0
1, 181180, Note_on_c, 0, 56, 0
1, 181219, Note_on_c, 0, 56, 78
1, 181219, Note_on_c, 0, 59, 70
1, 181224, Note_on_c, 0, 64, 89
1, 181224, Note_on_c, 0, 76, 73
1, 181258, Note_on_c, 0, 64, 0
1, 181258, Note_on_c, 0, 76, 0
1, 181264, Note_on_c, 0, 59, 0
1, 181299, Note_on_c, 0, 56, 0
1, 181328, Note_on_c, 0, 74, 89
1, 181328, Note_on_c, 0, 62, 85
1, 181333, Note_on_c, 0, 54, 78
1, 181338, Note_on_c, 0, 57, 69
1, 181355, Note_on_c, 0, 74, 0
1, 181361, Note_on_c, 0, 62, 0
1, 181371, Note_on_c, 0, 57, 0
1, 181374, Note_on_c, 0, 54, 0
1, 181421, Note_on_c, 0, 54, 83
1, 181430, Note_on_c, 0, 63, 84
1, 181436, Note_on_c, 0, 57, 45
1, 181436, Note_on_c, 0, 75, 82
1, 181461, Note_on_c, 0, 63, 0
1, 181464, Note_on_c, 0, 54, 0
1, 181472, Note_on_c, 0, 57, 0
1, 181475, Note_on_c, 0, 75, 0
1, 181527, Control_c, 0, 64, 0
1, 181541, Note_on_c, 0, 58, 79
1, 181545, Note_on_c, 0, 55, 84
1, 181550, Note_on_c, 0, 64, 89
1, 181550, Note_on_c, 0, 76, 75
1, 181576, Note_on_c, 0, 55, 0
1, 181576, Note_on_c, 0, 64, 0
1, 181576, Note_on_c, 0, 58, 0
1, 181580, Note_on_c, 0, 76, 0
1, 181628, Note_on_c, 0, 58, 55
1, 181628, Control_c, 0, 64, 127
1, 181645, Note_on_c, 0, 55, 46
1, 181650, Note_on_c, 0, 63, 92
1, 181659, Note_on_c, 0, 75, 63
1, 181681, Note_on_c, 0, 55, 0
1, 181681, Note_on_c, 0, 63, 0
1, 181689, Note_on_c, 0, 58, 0
1, 181693, Note_on_c, 0, 75, 0
1, 181748, Note_on_c, 0, 55, 77
1, 181748, Note_on_c, 0, 61, 91
1, 181754, Note_on_c, 0, 73, 76
1, 181767, Note_on_c, 0, 52, 71
1, 181792, Note_on_c, 0, 73, 0
1, 181798, Note_on_c, 0, 52, 0
1, 181817, Note_on_c, 0, 61, 0
1, 181854, Note_on_c, 0, 52, 61
1, 181857, Note_on_c, 0, 50, 51
1, 181860, Note_on_c, 0, 71, 88
1, 181860, Note_on_c, 0, 59, 90
1, 181871, Note_on_c, 0, 55, 0
1, 181885, Note_on_c, 0, 52, 0
1, 181885, Note_on_c, 0, 59, 0
1, 181889, Note_on_c, 0, 71, 0
1, 181903, Note_on_c, 0, 50, 0
1, 181942, Note_on_c, 0, 50, 99
1, 181946, Note_on_c, 0, 53, 106
1, 181952, Note_on_c, 0, 58, 77
1, 181957, Note_on_c, 0, 70, 78
1, 181976, Note_on_c, 0, 53, 0
1, 181976, Note_on_c, 0, 50, 0
1, 181993, Note_on_c, 0, 70, 0
1, 182026, Note_on_c, 0, 58, 0
1, 182040, Note_on_c, 0, 53, 97
1, 182040, Note_on_c, 0, 50, 73
1, 182054, Control_c, 0, 64, 0
1, 182060, Note_on_c, 0, 68, 80
1, 182063, Note_on_c, 0, 56, 85
1, 182080, Note_on_c, 0, 50, 0
1, 182099, Note_on_c, 0, 53, 0
1, 182126, Control_c, 0, 64, 127
1, 182130, Note_on_c, 0, 56, 0
1, 182154, Note_on_c, 0, 67, 93
1, 182154, Note_on_c, 0, 51, 88
1, 182157, Note_on_c, 0, 49, 64
1, 182161, Note_on_c, 0, 68, 0
1, 182161, Note_on_c, 0, 55, 87
1, 182168, Note_on_c, 0, 46, 69
1, 182182, Note_on_c, 0, 51, 0
1, 182182, Note_on_c, 0, 67, 0
1, 182191, Note_on_c, 0, 49, 0
1, 182191, Note_on_c, 0, 55, 0
1, 182200, Note_on_c, 0, 46, 0
1, 182249, Note_on_c, 0, 46, 64
1, 182257, Note_on_c, 0, 54, 97
1, 182257, Note_on_c, 0, 51, 46
1, 182261, Note_on_c, 0, 66, 81
1, 182297, Note_on_c, 0, 66, 0
1, 182302, Note_on_c, 0, 51, 0
1, 182310, Note_on_c, 0, 54, 0
1, 182332, Note_on_c, 0, 46, 0
1, 182363, Note_on_c, 0, 65, 89
1, 182363, Note_on_c, 0, 47, 95
1, 182363, Note_on_c, 0, 53, 106
1, 182374, Note_on_c, 0, 44, 75
1, 182391, Note_on_c, 0, 65, 0
1, 182395, Note_on_c, 0, 47, 0
1, 182395, Note_on_c, 0, 53, 0
1, 182403, Note_on_c, 0, 44, 0
1, 182450, Note_on_c, 0, 47, 74
1, 182450, Note_on_c, 0, 44, 67
1, 182461, Note_on_c, 0, 64, 94
1, 182466, Note_on_c, 0, 52, 100
1, 182517, Note_on_c, 0, 52, 0
1, 182525, Note_on_c, 0, 47, 0
1, 182525, Note_on_c, 0, 44, 0
1, 182531, Note_on_c, 0, 64, 0
1, 182565, Note_on_c, 0, 45, 92
1, 182573, Note_on_c, 0, 62, 82
1, 182576, Note_on_c, 0, 50, 87
1, 182576, Note_on_c, 0, 42, 76
1, 182605, Note_on_c, 0, 62, 0
1, 182605, Note_on_c, 0, 52, 33
1, 182617, Note_on_c, 0, 42, 0
1, 182617, Note_on_c, 0, 50, 0
1, 182648, Note_on_c, 0, 45, 0
1, 182659, Note_on_c, 0, 52, 0
1, 182670, Note_on_c, 0, 42, 75
1, 182676, Note_on_c, 0, 46, 91
1, 182687, Note_on_c, 0, 51, 89
1, 182698, Note_on_c, 0, 63, 72
1, 182714, Note_on_c, 0, 51, 0
1, 182729, Note_on_c, 0, 63, 0
1, 182740, Note_on_c, 0, 46, 0
1, 182743, Note_on_c, 0, 42, 0
1, 182781, Note_on_c, 0, 46, 83
1, 182787, Note_on_c, 0, 43, 98
1, 182787, Note_on_c, 0, 64, 103
1, 182801, Note_on_c, 0, 52, 76
1, 182817, Note_on_c, 0, 53, 80
1, 182821, Control_c, 0, 64, 0
1, 182837, Note_on_c, 0, 52, 0
1, 182851, Note_on_c, 0, 53, 0
1, 182851, Note_on_c, 0, 43, 0
1, 182868, Note_on_c, 0, 46, 0
1, 182871, Note_on_c, 0, 64, 0
1, 182893, Control_c, 0, 64, 127
1, 182899, Note_on_c, 0, 43, 89
1, 182902, Note_on_c, 0, 46, 84
1, 182902, Note_on_c, 0, 52, 83
1, 182915, Note_on_c, 0, 61, 52
1, 182915, Note_on_c, 0, 62, 72
1, 182921, Note_on_c, 0, 53, 57
1, 182945, Note_on_c, 0, 52, 0
1, 182948, Note_on_c, 0, 62, 0
1, 182963, Note_on_c, 0, 61, 0
1, 182966, Note_on_c, 0, 43, 0
1, 182966, Note_on_c, 0, 53, 0
1, 182988, Note_on_c, 0, 46, 0
1, 183013, Note_on_c, 0, 43, 80
1, 183019, Note_on_c, 0, 46, 80
1, 183022, Note_on_c, 0, 52, 75
1, 183030, Note_on_c, 0, 61, 64
1, 183060, Note_on_c, 0, 52, 0
1, 183065, Note_on_c, 0, 43, 0
1, 183099, Note_on_c, 0, 46, 0
1, 183118, Note_on_c, 0, 46, 41
1, 183118, Note_on_c, 0, 52, 87
1, 183127, Note_on_c, 0, 43, 69
1, 183127, Note_on_c, 0, 59, 81
1, 183141, Note_on_c, 0, 61, 0
1, 183155, Note_on_c, 0, 52, 0
1, 183169, Note_on_c, 0, 43, 0
1, 183169, Note_on_c, 0, 59, 0
1, 183194, Note_on_c, 0, 46, 0
1, 183236, Note_on_c, 0, 47, 95
1, 183241, Note_on_c, 0, 53, 101
1, 183241, Note_on_c, 0, 58, 81
1, 183241, Note_on_c, 0, 38, 91
1, 183280, Note_on_c, 0, 38, 0
1, 183305, Note_on_c, 0, 53, 0
1, 183305, Note_on_c, 0, 47, 0
1, 183349, Note_on_c, 0, 58, 0
1, 183349, Note_on_c, 0, 47, 92
1, 183358, Note_on_c, 0, 53, 99
1, 183364, Note_on_c, 0, 38, 70
1, 183367, Note_on_c, 0, 56, 84
1, 183402, Note_on_c, 0, 38, 0
1, 183422, Note_on_c, 0, 47, 0
1, 183431, Note_on_c, 0, 53, 0
1, 183481, Note_on_c, 0, 56, 0
1, 183508, Note_on_c, 0, 46, 92
1, 183508, Note_on_c, 0, 55, 100
1, 183508, Note_on_c, 0, 39, 90
1, 183576, Control_c, 0, 64, 0
1, 183736, Note_on_c, 0, 55, 0
1, 183742, Note_on_c, 0, 62, 95
1, 183742, Note_on_c, 0, 39, 0
1, 183748, Note_on_c, 0, 50, 84
1, 183748, Note_on_c, 0, 46, 0
1, 183768, Control_c, 0, 64, 127
1, 183781, Note_on_c, 0, 50, 0
1, 183812, Note_on_c, 0, 62, 0
1, 183838, Note_on_c, 0, 50, 78
1, 183893, Note_on_c, 0, 50, 0
1, 183943, Note_on_c, 0, 63, 92
1, 183943, Note_on_c, 0, 51, 83
1, 183973, Note_on_c, 0, 51, 0
1, 183976, Note_on_c, 0, 63, 0
1, 184023, Note_on_c, 0, 51, 70
1, 184093, Note_on_c, 0, 51, 0
1, 184127, Note_on_c, 0, 69, 69
1, 184127, Note_on_c, 0, 57, 77
1, 184160, Note_on_c, 0, 57, 0
1, 184165, Note_on_c, 0, 69, 0
1, 184165, Note_on_c, 0, 67, 14
1, 184207, Note_on_c, 0, 67, 0
1, 184211, Note_on_c, 0, 57, 48
1, 184221, Note_on_c, 0, 55, 55
1, 184236, Note_on_c, 0, 45, 26
1, 184249, Note_on_c, 0, 57, 0
1, 184261, Note_on_c, 0, 55, 0
1, 184291, Note_on_c, 0, 45, 0
1, 184306, Note_on_c, 0, 70, 81
1, 184306, Note_on_c, 0, 58, 81
1, 184344, Control_c, 0, 64, 0
1, 184384, Note_on_c, 0, 70, 0
1, 184388, Note_on_c, 0, 46, 83
1, 184430, Note_on_c, 0, 46, 0
1, 184470, Note_on_c, 0, 58, 0
1, 184477, Control_c, 0, 64, 127
1, 184491, Note_on_c, 0, 74, 98
1, 184491, Note_on_c, 0, 62, 89
1, 184516, Note_on_c, 0, 74, 0
1, 184519, Note_on_c, 0, 62, 0
1, 184573, Note_on_c, 0, 62, 62
1, 184581, Note_on_c, 0, 50, 92
1, 184611, Note_on_c, 0, 50, 0
1, 184617, Note_on_c, 0, 62, 0
1, 184675, Note_on_c, 0, 63, 90
1, 184675, Note_on_c, 0, 75, 88
1, 184701, Note_on_c, 0, 63, 0
1, 184701, Note_on_c, 0, 75, 0
1, 184756, Note_on_c, 0, 63, 81
1, 184765, Note_on_c, 0, 51, 86
1, 184799, Note_on_c, 0, 51, 0
1, 184834, Note_on_c, 0, 63, 0
1, 184834, Control_c, 0, 64, 0
1, 184854, Note_on_c, 0, 81, 92
1, 184854, Note_on_c, 0, 69, 84
1, 184881, Note_on_c, 0, 81, 0
1, 184881, Note_on_c, 0, 69, 0
1, 184934, Note_on_c, 0, 69, 49
1, 184940, Note_on_c, 0, 57, 80
1, 184955, Control_c, 0, 64, 127
1, 184971, Note_on_c, 0, 57, 0
1, 184977, Note_on_c, 0, 69, 0
1, 185023, Note_on_c, 0, 70, 79
1, 185026, Note_on_c, 0, 82, 83
1, 185052, Note_on_c, 0, 82, 0
1, 185052, Note_on_c, 0, 70, 0
1, 185094, Note_on_c, 0, 70, 73
1, 185107, Note_on_c, 0, 58, 75
1, 185141, Note_on_c, 0, 58, 0
1, 185177, Note_on_c, 0, 70, 0
1, 185182, Note_on_c, 0, 86, 101
1, 185182, Note_on_c, 0, 74, 96
1, 185207, Control_c, 0, 64, 0
1, 185211, Note_on_c, 0, 74, 0
1, 185214, Note_on_c, 0, 86, 0
1, 185261, Note_on_c, 0, 74, 87
1, 185271, Note_on_c, 0, 62, 89
1, 185291, Control_c, 0, 64, 127
1, 185300, Note_on_c, 0, 62, 0
1, 185311, Note_on_c, 0, 74, 0
1, 185347, Note_on_c, 0, 75, 87
1, 185347, Note_on_c, 0, 87, 88
1, 185374, Note_on_c, 0, 75, 0
1, 185380, Note_on_c, 0, 87, 0
1, 185422, Note_on_c, 0, 75, 78
1, 185436, Note_on_c, 0, 63, 86
1, 185462, Note_on_c, 0, 63, 0
1, 185494, Note_on_c, 0, 75, 0
1, 185514, Note_on_c, 0, 93, 92
1, 185519, Note_on_c, 0, 81, 81
1, 185540, Note_on_c, 0, 93, 0
1, 185547, Note_on_c, 0, 81, 0
1, 185587, Note_on_c, 0, 81, 87
1, 185598, Note_on_c, 0, 69, 74
1, 185622, Note_on_c, 0, 81, 0
1, 185629, Note_on_c, 0, 69, 0
1, 185668, Note_on_c, 0, 82, 87
1, 185668, Note_on_c, 0, 94, 86
1, 185696, Note_on_c, 0, 82, 0
1, 185699, Note_on_c, 0, 94, 0
1, 185734, Control_c, 0, 64, 0
1, 185748, Note_on_c, 0, 82, 72
1, 185757, Note_on_c, 0, 70, 83
1, 185790, Note_on_c, 0, 70, 0
1, 185834, Note_on_c, 0, 86, 89
1, 185834, Note_on_c, 0, 82, 0
1, 185834, Note_on_c, 0, 98, 103
1, 185859, Note_on_c, 0, 98, 0
1, 185862, Note_on_c, 0, 86, 0
1, 185890, Control_c, 0, 64, 127
1, 185918, Note_on_c, 0, 86, 67
1, 185929, Note_on_c, 0, 74, 97
1, 185952, Note_on_c, 0, 74, 0
1, 185979, Note_on_c, 0, 86, 0
1, 185999, Note_on_c, 0, 87, 92
1, 186002, Note_on_c, 0, 99, 90
1, 186037, Note_on_c, 0, 99, 0
1, 186057, Note_on_c, 0, 87, 0
1, 186096, Note_on_c, 0, 87, 92
1, 186096, Note_on_c, 0, 75, 86
1, 186118, Note_on_c, 0, 87, 0
1, 186122, Note_on_c, 0, 75, 0
1, 186175, Note_on_c, 0, 86, 97
1, 186175, Note_on_c, 0, 98, 105
1, 186203, Note_on_c, 0, 86, 0
1, 186203, Note_on_c, 0, 98, 0
1, 186256, Note_on_c, 0, 86, 83
1, 186264, Note_on_c, 0, 74, 97
1, 186288, Note_on_c, 0, 74, 0
1, 186319, Note_on_c, 0, 86, 0
1, 186339, Note_on_c, 0, 87, 95
1, 186342, Note_on_c, 0, 99, 95
1, 186417, Note_on_c, 0, 99, 0
1, 186434, Note_on_c, 0, 75, 88
1, 186459, Note_on_c, 0, 75, 0
1, 186489, Note_on_c, 0, 87, 0
1, 186520, Note_on_c, 0, 86, 101
1, 186520, Note_on_c, 0, 98, 107
1, 186548, Note_on_c, 0, 86, 0
1, 186548, Note_on_c, 0, 98, 0
1, 186598, Note_on_c, 0, 86, 84
1, 186606, Note_on_c, 0, 74, 100
1, 186632, Note_on_c, 0, 74, 0
1, 186667, Note_on_c, 0, 86, 0
1, 186723, Note_on_c, 0, 99, 92
1, 186723, Note_on_c, 0, 87, 97
1, 186753, Control_c, 0, 64, 0
1, 186813, Note_on_c, 0, 85, 96
1, 186820, Note_on_c, 0, 73, 86
1, 186838, Note_on_c, 0, 87, 0
1, 186848, Note_on_c, 0, 99, 0
1, 186884, Note_on_c, 0, 85, 0
1, 186888, Note_on_c, 0, 73, 0
1, 186909, Control_c, 0, 64, 127
1, 186926, Note_on_c, 0, 99, 68
1, 186926, Note_on_c, 0, 87, 79
1, 187004, Note_on_c, 0, 99, 0
1, 187010, Note_on_c, 0, 87, 0
1, 187015, Note_on_c, 0, 82, 83
1, 187022, Note_on_c, 0, 70, 76
1, 187057, Note_on_c, 0, 82, 0
1, 187060, Note_on_c, 0, 70, 0
1, 187113, Note_on_c, 0, 87, 78
1, 187113, Note_on_c, 0, 99, 78
1, 187157, Note_on_c, 0, 87, 0
1, 187166, Note_on_c, 0, 99, 0
1, 187205, Note_on_c, 0, 79, 87
1, 187210, Note_on_c, 0, 67, 79
1, 187233, Note_on_c, 0, 79, 0
1, 187241, Note_on_c, 0, 67, 0
1, 187300, Note_on_c, 0, 87, 86
1, 187300, Note_on_c, 0, 99, 87
1, 187383, Note_on_c, 0, 87, 0
1, 187383, Note_on_c, 0, 99, 0
1, 187383, Note_on_c, 0, 75, 84
1, 187389, Note_on_c, 0, 63, 86
1, 187441, Note_on_c, 0, 63, 0
1, 187467, Note_on_c, 0, 75, 0
1, 187486, Note_on_c, 0, 99, 76
1, 187486, Note_on_c, 0, 87, 77
1, 187568, Note_on_c, 0, 99, 0
1, 187568, Note_on_c, 0, 87, 0
1, 187576, Note_on_c, 0, 73, 75
1, 187581, Note_on_c, 0, 61, 82
1, 187628, Note_on_c, 0, 61, 0
1, 187631, Note_on_c, 0, 73, 0
1, 187667, Note_on_c, 0, 87, 80
1, 187667, Note_on_c, 0, 99, 80
1, 187728, Note_on_c, 0, 87, 0
1, 187735, Note_on_c, 0, 99, 0
1, 187754, Note_on_c, 0, 70, 72
1, 187754, Note_on_c, 0, 58, 73
1, 187792, Note_on_c, 0, 70, 0
1, 187796, Note_on_c, 0, 58, 0
1, 187845, Note_on_c, 0, 99, 89
1, 187845, Note_on_c, 0, 87, 90
1, 187916, Note_on_c, 0, 87, 0
1, 187933, Note_on_c, 0, 99, 0
1, 187943, Note_on_c, 0, 67, 90
1, 187943, Note_on_c, 0, 55, 91
1, 188016, Note_on_c, 0, 67, 0
1, 188032, Note_on_c, 0, 87, 84
1, 188036, Note_on_c, 0, 55, 0
1, 188036, Note_on_c, 0, 99, 86
1, 188108, Note_on_c, 0, 87, 0
1, 188119, Note_on_c, 0, 99, 0
1, 188141, Note_on_c, 0, 63, 88
1, 188146, Note_on_c, 0, 51, 87
1, 188205, Note_on_c, 0, 63, 0
1, 188208, Note_on_c, 0, 51, 0
1, 188217, Note_on_c, 0, 87, 89
1, 188224, Note_on_c, 0, 99, 89
1, 188302, Note_on_c, 0, 87, 0
1, 188302, Note_on_c, 0, 99, 0
1, 188317, Note_on_c, 0, 61, 92
1, 188325, Note_on_c, 0, 49, 86
1, 188381, Note_on_c, 0, 49, 0
1, 188397, Note_on_c, 0, 61, 0
1, 188411, Note_on_c, 0, 99, 90
1, 188411, Note_on_c, 0, 87, 90
1, 188479, Note_on_c, 0, 87, 0
1, 188492, Note_on_c, 0, 99, 0
1, 188508, Note_on_c, 0, 58, 79
1, 188514, Note_on_c, 0, 46, 86
1, 188587, Note_on_c, 0, 58, 0
1, 188607, Note_on_c, 0, 87, 92
1, 188607, Note_on_c, 0, 99, 89
1, 188617, Note_on_c, 0, 46, 0
1, 188673, Note_on_c, 0, 87, 0
1, 188682, Note_on_c, 0, 99, 0
1, 188710, Note_on_c, 0, 43, 90
1, 188710, Note_on_c, 0, 55, 93
1, 188790, Note_on_c, 0, 43, 0
1, 188790, Note_on_c, 0, 55, 0
1, 188816, Note_on_c, 0, 87, 89
1, 188819, Note_on_c, 0, 99, 88
1, 188888, Note_on_c, 0, 99, 0
1, 188898, Note_on_c, 0, 87, 0
1, 188932, Note_on_c, 0, 51, 90
1, 188932, Note_on_c, 0, 39, 93
1, 189008, Note_on_c, 0, 51, 0
1, 189035, Note_on_c, 0, 39, 0
1, 189063, Note_on_c, 0, 87, 92
1, 189066, Note_on_c, 0, 99, 89
1, 189146, Note_on_c, 0, 87, 0
1, 189146, Note_on_c, 0, 99, 0
1, 189230, Note_on_c, 0, 87, 70
1, 189233, Note_on_c, 0, 99, 78
1, 189270, Note_on_c, 0, 99, 0
1, 189288, Note_on_c, 0, 87, 0
1, 189366, Note_on_c, 0, 87, 62
1, 189370, Note_on_c, 0, 99, 73
1, 189401, Note_on_c, 0, 99, 0
1, 189412, Note_on_c, 0, 87, 0
1, 189486, Note_on_c, 0, 87, 57
1, 189489, Note_on_c, 0, 99, 67
1, 189525, Note_on_c, 0, 99, 0
1, 189532, Note_on_c, 0, 87, 0
1, 189598, Note_on_c, 0, 87, 62
1, 189598, Note_on_c, 0, 99, 73
1, 189660, Note_on_c, 0, 87, 0
1, 189660, Note_on_c, 0, 99, 0
1, 189718, Note_on_c, 0, 99, 79
1, 189718, Note_on_c, 0, 87, 68
1, 189781, Note_on_c, 0, 87, 0
1, 189790, Note_on_c, 0, 99, 0
1, 189841, Note_on_c, 0, 99, 83
1, 189844, Note_on_c, 0, 87, 72
1, 189907, Note_on_c, 0, 99, 0
1, 189915, Note_on_c, 0, 87, 0
1, 189963, Note_on_c, 0, 99, 66
1, 189963, Note_on_c, 0, 87, 66
1, 190030, Note_on_c, 0, 87, 0
1, 190043, Note_on_c, 0, 99, 0
1, 190085, Note_on_c, 0, 87, 56
1, 190088, Note_on_c, 0, 99, 74
1, 190147, Note_on_c, 0, 87, 0
1, 190147, Note_on_c, 0, 99, 0
1, 190205, Note_on_c, 0, 99, 68
1, 190210, Note_on_c, 0, 87, 50
1, 190228, Control_c, 0, 64, 0
1, 190261, Note_on_c, 0, 87, 0
1, 190277, Note_on_c, 0, 99, 0
1, 190320, Note_on_c, 0, 87, 52
1, 190325, Note_on_c, 0, 99, 75
1, 190390, Note_on_c, 0, 99, 0
1, 190390, Note_on_c, 0, 87, 0
1, 190439, Note_on_c, 0, 99, 73
1, 190439, Note_on_c, 0, 87, 60
1, 190509, Note_on_c, 0, 87, 0
1, 190520, Note_on_c, 0, 99, 0
1, 190568, Note_on_c, 0, 99, 70
1, 190575, Note_on_c, 0, 87, 49
1, 190639, Note_on_c, 0, 99, 0
1, 190639, Note_on_c, 0, 87, 0
1, 190696, Note_on_c, 0, 99, 58
1, 190699, Note_on_c, 0, 87, 50
1, 190771, Note_on_c, 0, 87, 0
1, 190776, Note_on_c, 0, 99, 0
1, 190826, Note_on_c, 0, 99, 67
1, 190826, Note_on_c, 0, 87, 47
1, 190894, Note_on_c, 0, 87, 0
1, 190904, Note_on_c, 0, 99, 0
1, 190952, Note_on_c, 0, 87, 43
1, 190952, Note_on_c, 0, 99, 66
1, 191021, Note_on_c, 0, 87, 0
1, 191021, Note_on_c, 0, 99, 0
1, 191082, Note_on_c, 0, 99, 56
1, 191086, Note_on_c, 0, 87, 32
1, 191089, Note_on_c, 0, 63, 42
1, 191144, Note_on_c, 0, 87, 0
1, 191152, Note_on_c, 0, 99, 0
1, 191214, Note_on_c, 0, 63, 0
1, 191219, Note_on_c, 0, 99, 43
1, 191230, Note_on_c, 0, 87, 21
1, 191287, Note_on_c, 0, 99, 0
1, 191291, Note_on_c, 0, 87, 0
1, 191369, Note_on_c, 0, 99, 38
1, 191383, Note_on_c, 0, 87, 26
1, 191417, Note_on_c, 0, 75, 43
1, 191434, Note_on_c, 0, 99, 0
1, 191439, Note_on_c, 0, 87, 0
1, 191504, Note_on_c, 0, 75, 0
1, 191532, Note_on_c, 0, 99, 37
1, 191537, Note_on_c, 0, 87, 25
1, 191592, Note_on_c, 0, 99, 0
1, 191600, Note_on_c, 0, 87, 0
1, 191670, Note_on_c, 0, 99, 36
1, 191670, Note_on_c, 0, 87, 30
1, 191721, Note_on_c, 0, 99, 0
1, 191735, Note_on_c, 0, 87, 0
1, 191801, Note_on_c, 0, 87, 41
1, 191805, Note_on_c, 0, 99, 32
1, 191857, Note_on_c, 0, 99, 0
1, 191887, Note_on_c, 0, 87, 0
1, 191947, Note_on_c, 0, 97, 39
1, 191957, Note_on_c, 0, 85, 29
1, 191991, Note_on_c, 0, 97, 0
1, 192019, Note_on_c, 0, 85, 0
1, 192088, Note_on_c, 0, 85, 40
1, 192094, Note_on_c, 0, 97, 17
1, 192144, Note_on_c, 0, 85, 0
1, 192144, Note_on_c, 0, 97, 0
1, 192194, Control_c, 0, 64, 127
1, 192225, Note_on_c, 0, 32, 43
1, 192242, Note_on_c, 0, 44, 36
1, 192250, Note_on_c, 0, 83, 68
1, 192250, Note_on_c, 0, 95, 42
1, 192266, Note_on_c, 0, 32, 0
1, 192287, Note_on_c, 0, 83, 0
1, 192287, Note_on_c, 0, 44, 0
1, 192297, Note_on_c, 0, 95, 0
1, 192365, Note_on_c, 0, 95, 31
1, 192365, Note_on_c, 0, 83, 63
1, 192414, Note_on_c, 0, 83, 0
1, 192414, Note_on_c, 0, 95, 0
1, 192514, Note_on_c, 0, 95, 44
1, 192520, Note_on_c, 0, 83, 45
1, 192523, Note_on_c, 0, 63, 58
1, 192523, Note_on_c, 0, 51, 55
1, 192531, Note_on_c, 0, 59, 55
1, 192554, Note_on_c, 0, 95, 0
1, 192564, Note_on_c, 0, 63, 0
1, 192564, Note_on_c, 0, 51, 0
1, 192574, Note_on_c, 0, 83, 0
1, 192577, Note_on_c, 0, 59, 0
1, 192577, Control_c, 0, 64, 0
1, 192613, Note_on_c, 0, 95, 57
1, 192613, Note_on_c, 0, 51, 59
1, 192626, Note_on_c, 0, 83, 83
1, 192640, Note_on_c, 0, 63, 24
1, 192640, Note_on_c, 0, 59, 29
1, 192657, Note_on_c, 0, 83, 0
1, 192660, Note_on_c, 0, 51, 0
1, 192681, Note_on_c, 0, 95, 0
1, 192687, Note_on_c, 0, 59, 0
1, 192687, Note_on_c, 0, 63, 0
1, 192735, Note_on_c, 0, 82, 73
1, 192741, Note_on_c, 0, 94, 59
1, 192741, Note_on_c, 0, 63, 24
1, 192744, Note_on_c, 0, 59, 29
1, 192744, Note_on_c, 0, 56, 58
1, 192777, Note_on_c, 0, 94, 0
1, 192781, Note_on_c, 0, 56, 0
1, 192784, Note_on_c, 0, 82, 0
1, 192789, Note_on_c, 0, 59, 0
1, 192789, Note_on_c, 0, 63, 0
1, 192844, Note_on_c, 0, 94, 39
1, 192849, Note_on_c, 0, 82, 52
1, 192887, Note_on_c, 0, 94, 0
1, 192897, Note_on_c, 0, 82, 0
1, 192968, Note_on_c, 0, 35, 92
1, 192968, Note_on_c, 0, 80, 70
1, 192971, Note_on_c, 0, 47, 63
1, 192979, Note_on_c, 0, 92, 55
1, 192994, Note_on_c, 0, 35, 0
1, 193007, Note_on_c, 0, 47, 0
1, 193007, Note_on_c, 0, 80, 0
1, 193019, Note_on_c, 0, 92, 0
1, 193019, Control_c, 0, 64, 127
1, 193071, Note_on_c, 0, 92, 48
1, 193071, Note_on_c, 0, 80, 47
1, 193138, Note_on_c, 0, 80, 0
1, 193149, Note_on_c, 0, 92, 0
1, 193186, Note_on_c, 0, 63, 72
1, 193192, Note_on_c, 0, 51, 61
1, 193198, Note_on_c, 0, 59, 50
1, 193206, Note_on_c, 0, 79, 62
1, 193213, Note_on_c, 0, 91, 43
1, 193213, Note_on_c, 0, 63, 0
1, 193236, Note_on_c, 0, 59, 0
1, 193239, Note_on_c, 0, 51, 0
1, 193247, Note_on_c, 0, 79, 0
1, 193247, Control_c, 0, 64, 0
1, 193264, Note_on_c, 0, 91, 0
1, 193276, Note_on_c, 0, 63, 58
1, 193286, Note_on_c, 0, 59, 70
1, 193286, Note_on_c, 0, 79, 88
1, 193289, Note_on_c, 0, 51, 55
1, 193309, Note_on_c, 0, 91, 50
1, 193323, Note_on_c, 0, 79, 0
1, 193323, Note_on_c, 0, 63, 0
1, 193330, Note_on_c, 0, 59, 0
1, 193334, Note_on_c, 0, 51, 0
1, 193356, Note_on_c, 0, 91, 0
1, 193392, Note_on_c, 0, 63, 65
1, 193392, Note_on_c, 0, 80, 81
1, 193397, Note_on_c, 0, 59, 68
1, 193401, Note_on_c, 0, 92, 62
1, 193412, Note_on_c, 0, 56, 60
1, 193426, Note_on_c, 0, 80, 0
1, 193429, Note_on_c, 0, 63, 0
1, 193429, Note_on_c, 0, 59, 0
1, 193437, Note_on_c, 0, 92, 0
1, 193448, Note_on_c, 0, 56, 0
1, 193500, Note_on_c, 0, 92, 46
1, 193506, Note_on_c, 0, 80, 47
1, 193545, Note_on_c, 0, 80, 0
1, 193549, Note_on_c, 0, 92, 0
1, 193601, Note_on_c, 0, 39, 86
1, 193607, Note_on_c, 0, 82, 65
1, 193607, Note_on_c, 0, 51, 62
1, 193613, Note_on_c, 0, 94, 65
1, 193627, Note_on_c, 0, 39, 0
1, 193646, Note_on_c, 0, 51, 0
1, 193649, Note_on_c, 0, 94, 0
1, 193649, Note_on_c, 0, 82, 0
1, 193656, Control_c, 0, 64, 127
1, 193710, Note_on_c, 0, 94, 46
1, 193713, Note_on_c, 0, 82, 60
1, 193746, Note_on_c, 0, 94, 0
1, 193752, Note_on_c, 0, 82, 0
1, 193826, Note_on_c, 0, 67, 69
1, 193835, Note_on_c, 0, 55, 65
1, 193841, Note_on_c, 0, 75, 76
1, 193851, Note_on_c, 0, 87, 58
1, 193861, Note_on_c, 0, 67, 0
1, 193874, Note_on_c, 0, 55, 0
1, 193874, Note_on_c, 0, 75, 0
1, 193883, Note_on_c, 0, 87, 0
1, 193896, Control_c, 0, 64, 0
1, 193905, Note_on_c, 0, 67, 68
1, 193918, Note_on_c, 0, 55, 69
1, 193929, Note_on_c, 0, 75, 54
1, 193932, Note_on_c, 0, 87, 50
1, 193944, Note_on_c, 0, 63, 26
1, 193957, Note_on_c, 0, 67, 0
1, 193957, Note_on_c, 0, 55, 0
1, 193980, Note_on_c, 0, 87, 0
1, 193986, Note_on_c, 0, 75, 0
1, 193996, Note_on_c, 0, 63, 0
1, 194027, Note_on_c, 0, 67, 69
1, 194035, Note_on_c, 0, 58, 64
1, 194035, Note_on_c, 0, 87, 61
1, 194039, Note_on_c, 0, 75, 64
1, 194047, Note_on_c, 0, 63, 81
1, 194081, Note_on_c, 0, 87, 0
1, 194084, Note_on_c, 0, 63, 0
1, 194084, Note_on_c, 0, 67, 0
1, 194089, Note_on_c, 0, 75, 0
1, 194124, Note_on_c, 0, 58, 0
1, 194145, Note_on_c, 0, 87, 61
1, 194150, Note_on_c, 0, 75, 55
1, 194195, Note_on_c, 0, 75, 0
1, 194202, Note_on_c, 0, 87, 0
1, 194247, Note_on_c, 0, 43, 93
1, 194253, Note_on_c, 0, 55, 73
1, 194261, Note_on_c, 0, 88, 80
1, 194266, Note_on_c, 0, 76, 67
1, 194266, Control_c, 0, 64, 127
1, 194272, Note_on_c, 0, 43, 0
1, 194289, Note_on_c, 0, 55, 0
1, 194289, Note_on_c, 0, 88, 0
1, 194297, Note_on_c, 0, 76, 0
1, 194356, Note_on_c, 0, 88, 25
1, 194362, Note_on_c, 0, 76, 31
1, 194398, Note_on_c, 0, 88, 0
1, 194401, Note_on_c, 0, 76, 0
1, 194442, Note_on_c, 0, 70, 72
1, 194456, Note_on_c, 0, 61, 51
1, 194456, Note_on_c, 0, 75, 80
1, 194461, Note_on_c, 0, 87, 67
1, 194475, Note_on_c, 0, 70, 0
1, 194493, Note_on_c, 0, 87, 0
1, 194496, Note_on_c, 0, 61, 0
1, 194503, Note_on_c, 0, 75, 0
1, 194539, Note_on_c, 0, 70, 30
1, 194539, Note_on_c, 0, 61, 69
1, 194545, Note_on_c, 0, 87, 55
1, 194554, Control_c, 0, 64, 0
1, 194557, Note_on_c, 0, 75, 56
1, 194581, Note_on_c, 0, 87, 0
1, 194581, Note_on_c, 0, 61, 0
1, 194587, Note_on_c, 0, 70, 0
1, 194595, Note_on_c, 0, 75, 0
1, 194653, Note_on_c, 0, 70, 52
1, 194656, Note_on_c, 0, 73, 68
1, 194663, Note_on_c, 0, 85, 58
1, 194679, Note_on_c, 0, 58, 46
1, 194685, Note_on_c, 0, 70, 0
1, 194685, Note_on_c, 0, 63, 55
1, 194688, Note_on_c, 0, 73, 0
1, 194699, Note_on_c, 0, 85, 0
1, 194723, Note_on_c, 0, 58, 0
1, 194723, Note_on_c, 0, 63, 0
1, 194743, Note_on_c, 0, 73, 57
1, 194743, Note_on_c, 0, 85, 67
1, 194804, Note_on_c, 0, 85, 0
1, 194822, Note_on_c, 0, 73, 0
1, 194852, Note_on_c, 0, 44, 95
1, 194852, Note_on_c, 0, 56, 74
1, 194863, Note_on_c, 0, 71, 73
1, 194863, Note_on_c, 0, 83, 91
1, 194876, Note_on_c, 0, 44, 0
1, 194885, Note_on_c, 0, 56, 0
1, 194893, Note_on_c, 0, 83, 0
1, 194897, Note_on_c, 0, 71, 0
1, 194902, Control_c, 0, 64, 127
1, 194950, Note_on_c, 0, 71, 70
1, 194950, Note_on_c, 0, 83, 76
1, 194997, Note_on_c, 0, 71, 0
1, 195003, Note_on_c, 0, 83, 0
1, 195047, Note_on_c, 0, 63, 79
1, 195050, Note_on_c, 0, 68, 58
1, 195053, Note_on_c, 0, 83, 98
1, 195060, Note_on_c, 0, 71, 55
1, 195075, Note_on_c, 0, 63, 0
1, 195088, Note_on_c, 0, 68, 0
1, 195095, Note_on_c, 0, 83, 0
1, 195105, Note_on_c, 0, 71, 0
1, 195144, Note_on_c, 0, 68, 51
1, 195144, Note_on_c, 0, 63, 55
1, 195150, Note_on_c, 0, 83, 93
1, 195163, Note_on_c, 0, 71, 56
1, 195178, Note_on_c, 0, 83, 0
1, 195192, Note_on_c, 0, 63, 0
1, 195208, Note_on_c, 0, 71, 0
1, 195208, Note_on_c, 0, 68, 0
1, 195261, Note_on_c, 0, 70, 72
1, 195272, Note_on_c, 0, 82, 56
1, 195272, Note_on_c, 0, 63, 65
1, 195286, Note_on_c, 0, 59, 62
1, 195294, Note_on_c, 0, 70, 0
1, 195309, Note_on_c, 0, 82, 0
1, 195312, Note_on_c, 0, 63, 0
1, 195322, Note_on_c, 0, 59, 0
1, 195354, Note_on_c, 0, 82, 55
1, 195358, Note_on_c, 0, 70, 34
1, 195390, Note_on_c, 0, 82, 0
1, 195414, Note_on_c, 0, 70, 0
1, 195414, Control_c, 0, 64, 0
1, 195489, Note_on_c, 0, 52, 101
1, 195489, Note_on_c, 0, 68, 56
1, 195493, Note_on_c, 0, 80, 55
1, 195496, Note_on_c, 0, 40, 94
1, 195520, Note_on_c, 0, 40, 0
1, 195529, Note_on_c, 0, 52, 0
1, 195529, Note_on_c, 0, 68, 0
1, 195529, Note_on_c, 0, 80, 0
1, 195573, Control_c, 0, 64, 127
1, 195579, Note_on_c, 0, 80, 57
1, 195579, Note_on_c, 0, 68, 58
1, 195631, Note_on_c, 0, 80, 0
1, 195668, Note_on_c, 0, 68, 0
1, 195677, Note_on_c, 0, 79, 42
1, 195682, Note_on_c, 0, 62, 65
1, 195682, Note_on_c, 0, 59, 71
1, 195695, Note_on_c, 0, 67, 14
1, 195715, Note_on_c, 0, 59, 0
1, 195715, Note_on_c, 0, 62, 0
1, 195729, Note_on_c, 0, 79, 0
1, 195733, Note_on_c, 0, 67, 0
1, 195776, Note_on_c, 0, 59, 59
1, 195776, Note_on_c, 0, 62, 61
1, 195776, Note_on_c, 0, 79, 42
1, 195794, Note_on_c, 0, 67, 14
1, 195824, Note_on_c, 0, 62, 0
1, 195828, Note_on_c, 0, 79, 0
1, 195828, Note_on_c, 0, 59, 0
1, 195833, Note_on_c, 0, 67, 0
1, 195894, Note_on_c, 0, 68, 79
1, 195894, Note_on_c, 0, 62, 74
1, 195900, Note_on_c, 0, 58, 73
1, 195908, Note_on_c, 0, 80, 52
1, 195927, Note_on_c, 0, 62, 0
1, 195930, Note_on_c, 0, 68, 0
1, 195938, Note_on_c, 0, 58, 0
1, 195946, Note_on_c, 0, 80, 0
1, 195986, Note_on_c, 0, 80, 77
1, 195990, Note_on_c, 0, 68, 54
1, 196028, Note_on_c, 0, 68, 0
1, 196036, Note_on_c, 0, 80, 0
1, 196052, Control_c, 0, 64, 0
1, 196099, Note_on_c, 0, 70, 70
1, 196099, Note_on_c, 0, 82, 68
1, 196106, Note_on_c, 0, 51, 97
1, 196111, Note_on_c, 0, 39, 92
1, 196136, Note_on_c, 0, 82, 0
1, 196142, Note_on_c, 0, 39, 0
1, 196159, Note_on_c, 0, 70, 0
1, 196159, Note_on_c, 0, 51, 0
1, 196189, Note_on_c, 0, 82, 57
1, 196197, Control_c, 0, 64, 127
1, 196201, Note_on_c, 0, 70, 56
1, 196225, Note_on_c, 0, 82, 0
1, 196245, Note_on_c, 0, 70, 0
1, 196306, Note_on_c, 0, 55, 101
1, 196306, Note_on_c, 0, 58, 70
1, 196326, Note_on_c, 0, 63, 89
1, 196329, Note_on_c, 0, 75, 56
1, 196343, Note_on_c, 0, 58, 0
1, 196343, Note_on_c, 0, 55, 0
1, 196351, Note_on_c, 0, 63, 0
1, 196364, Note_on_c, 0, 75, 0
1, 196398, Note_on_c, 0, 55, 88
1, 196398, Note_on_c, 0, 58, 47
1, 196418, Note_on_c, 0, 75, 29
1, 196435, Note_on_c, 0, 55, 0
1, 196457, Note_on_c, 0, 58, 0
1, 196471, Note_on_c, 0, 75, 0
1, 196509, Note_on_c, 0, 63, 103
1, 196509, Note_on_c, 0, 58, 64
1, 196509, Note_on_c, 0, 55, 69
1, 196524, Note_on_c, 0, 75, 80
1, 196532, Note_on_c, 0, 87, 83
1, 196542, Note_on_c, 0, 55, 0
1, 196549, Note_on_c, 0, 58, 0
1, 196558, Note_on_c, 0, 87, 0
1, 196570, Note_on_c, 0, 63, 0
1, 196576, Note_on_c, 0, 75, 0
1, 196609, Note_on_c, 0, 87, 47
1, 196687, Note_on_c, 0, 87, 0
1, 196771, Note_on_c, 0, 87, 74
1, 196771, Note_on_c, 0, 99, 91
1, 196796, Note_on_c, 0, 99, 0
1, 196799, Note_on_c, 0, 75, 92
1, 196799, Note_on_c, 0, 87, 0
1, 196810, Note_on_c, 0, 67, 74
1, 196813, Note_on_c, 0, 70, 52
1, 196888, Note_on_c, 0, 87, 72
1, 196897, Note_on_c, 0, 99, 81
1, 196924, Note_on_c, 0, 75, 0
1, 196924, Note_on_c, 0, 99, 0
1, 196927, Note_on_c, 0, 70, 0
1, 196927, Note_on_c, 0, 87, 0
1, 196950, Note_on_c, 0, 67, 0
1, 196994, Note_on_c, 0, 99, 69
1, 196994, Note_on_c, 0, 87, 82
1, 197056, Note_on_c, 0, 99, 0
1, 197063, Note_on_c, 0, 87, 0
1, 197099, Note_on_c, 0, 87, 99
1, 197099, Note_on_c, 0, 99, 91
1, 197155, Note_on_c, 0, 99, 0
1, 197167, Note_on_c, 0, 87, 0
1, 197214, Note_on_c, 0, 85, 102
1, 197222, Note_on_c, 0, 97, 86
1, 197261, Note_on_c, 0, 97, 0
1, 197275, Note_on_c, 0, 85, 0
1, 197331, Note_on_c, 0, 85, 83
1, 197339, Note_on_c, 0, 97, 76
1, 197456, Note_on_c, 0, 85, 0
1, 197462, Note_on_c, 0, 97, 0
1, 197479, Control_c, 0, 64, 0
1, 197492, Note_on_c, 0, 44, 107
1, 197495, Note_on_c, 0, 32, 104
1, 197499, Note_on_c, 0, 96, 101
1, 197499, Note_on_c, 0, 84, 102
1, 197532, Note_on_c, 0, 32, 0
1, 197568, Note_on_c, 0, 44, 0
1, 197588, Note_on_c, 0, 96, 0
1, 197598, Note_on_c, 0, 84, 0
1, 197612, Control_c, 0, 64, 127
1, 197646, Note_on_c, 0, 96, 70
1, 197651, Note_on_c, 0, 84, 85
1, 197715, Note_on_c, 0, 96, 0
1, 197721, Note_on_c, 0, 84, 0
1, 197765, Note_on_c, 0, 63, 97
1, 197768, Note_on_c, 0, 96, 78
1, 197774, Note_on_c, 0, 84, 78
1, 197774, Note_on_c, 0, 54, 72
1, 197774, Note_on_c, 0, 57, 67
1, 197796, Note_on_c, 0, 63, 0
1, 197807, Note_on_c, 0, 54, 0
1, 197807, Note_on_c, 0, 57, 0
1, 197846, Note_on_c, 0, 84, 0
1, 197846, Note_on_c, 0, 96, 0
1, 197868, Note_on_c, 0, 57, 36
1, 197868, Note_on_c, 0, 63, 76
1, 197868, Note_on_c, 0, 54, 57
1, 197886, Note_on_c, 0, 96, 91
1, 197886, Note_on_c, 0, 84, 87
1, 197914, Note_on_c, 0, 96, 0
1, 197928, Note_on_c, 0, 54, 0
1, 197928, Note_on_c, 0, 84, 0
1, 197933, Note_on_c, 0, 63, 0
1, 197942, Note_on_c, 0, 57, 0
1, 198013, Note_on_c, 0, 63, 73
1, 198020, Note_on_c, 0, 93, 99
1, 198020, Note_on_c, 0, 81, 98
1, 198024, Note_on_c, 0, 57, 40
1, 198038, Note_on_c, 0, 63, 0
1, 198038, Note_on_c, 0, 54, 67
1, 198052, Note_on_c, 0, 93, 0
1, 198056, Note_on_c, 0, 81, 0
1, 198066, Note_on_c, 0, 57, 0
1, 198069, Note_on_c, 0, 54, 0
1, 198131, Note_on_c, 0, 81, 87
1, 198131, Note_on_c, 0, 93, 89
1, 198156, Note_on_c, 0, 42, 47
1, 198186, Note_on_c, 0, 93, 0
1, 198200, Note_on_c, 0, 42, 0
1, 198212, Note_on_c, 0, 81, 0
1, 198270, Control_c, 0, 64, 0
1, 198278, Note_on_c, 0, 48, 108
1, 198278, Note_on_c, 0, 36, 113
1, 198282, Note_on_c, 0, 80, 98
1, 198286, Note_on_c, 0, 92, 92
1, 198332, Note_on_c, 0, 36, 0
1, 198345, Note_on_c, 0, 80, 0
1, 198359, Note_on_c, 0, 92, 0
1, 198375, Note_on_c, 0, 48, 0
1, 198390, Control_c, 0, 64, 127
1, 198412, Note_on_c, 0, 80, 76
1, 198412, Note_on_c, 0, 92, 65
1, 198476, Note_on_c, 0, 80, 0
1, 198487, Note_on_c, 0, 92, 0
1, 198523, Note_on_c, 0, 69, 82
1, 198523, Note_on_c, 0, 80, 79
1, 198526, Note_on_c, 0, 63, 84
1, 198526, Note_on_c, 0, 57, 78
1, 198526, Note_on_c, 0, 92, 83
1, 198554, Note_on_c, 0, 69, 0
1, 198554, Note_on_c, 0, 63, 0
1, 198559, Note_on_c, 0, 57, 0
1, 198587, Note_on_c, 0, 80, 0
1, 198590, Note_on_c, 0, 92, 0
1, 198623, Note_on_c, 0, 57, 42
1, 198623, Note_on_c, 0, 63, 62
1, 198627, Note_on_c, 0, 69, 27
1, 198627, Note_on_c, 0, 80, 85
1, 198627, Note_on_c, 0, 92, 88
1, 198660, Note_on_c, 0, 63, 0
1, 198663, Note_on_c, 0, 57, 0
1, 198673, Note_on_c, 0, 69, 0
1, 198690, Note_on_c, 0, 80, 0
1, 198708, Note_on_c, 0, 92, 0
1, 198727, Note_on_c, 0, 69, 54
1, 198732, Note_on_c, 0, 63, 70
1, 198740, Note_on_c, 0, 90, 77
1, 198740, Note_on_c, 0, 78, 87
1, 198743, Note_on_c, 0, 57, 49
1, 198763, Note_on_c, 0, 69, 0
1, 198782, Note_on_c, 0, 63, 0
1, 198790, Note_on_c, 0, 90, 0
1, 198808, Note_on_c, 0, 57, 0
1, 198816, Note_on_c, 0, 78, 0
1, 198857, Note_on_c, 0, 90, 70
1, 198861, Note_on_c, 0, 78, 58
1, 198933, Note_on_c, 0, 78, 0
1, 198952, Note_on_c, 0, 90, 0
1, 198977, Control_c, 0, 64, 0
1, 199002, Note_on_c, 0, 49, 102
1, 199006, Note_on_c, 0, 37, 104
1, 199011, Note_on_c, 0, 88, 97
1, 199019, Note_on_c, 0, 76, 79
1, 199067, Note_on_c, 0, 76, 0
1, 199084, Note_on_c, 0, 88, 0
1, 199097, Note_on_c, 0, 37, 0
1, 199102, Note_on_c, 0, 49, 0
1, 199120, Control_c, 0, 64, 127
1, 199306, Note_on_c, 0, 61, 60
1, 199315, Note_on_c, 0, 73, 69
1, 199315, Note_on_c, 0, 57, 27
1, 199322, Note_on_c, 0, 64, 66
1, 199322, Note_on_c, 0, 52, 62
1, 199326, Note_on_c, 0, 69, 47
1, 199346, Note_on_c, 0, 61, 0
1, 199356, Note_on_c, 0, 64, 0
1, 199356, Note_on_c, 0, 52, 0
1, 199360, Note_on_c, 0, 73, 0
1, 199370, Note_on_c, 0, 57, 0
1, 199370, Note_on_c, 0, 69, 0
1, 199417, Note_on_c, 0, 52, 68
1, 199417, Note_on_c, 0, 61, 50
1, 199424, Note_on_c, 0, 69, 52
1, 199428, Note_on_c, 0, 73, 57
1, 199440, Note_on_c, 0, 64, 40
1, 199448, Note_on_c, 0, 57, 34
1, 199468, Note_on_c, 0, 52, 0
1, 199468, Note_on_c, 0, 61, 0
1, 199479, Note_on_c, 0, 64, 0
1, 199485, Note_on_c, 0, 73, 0
1, 199485, Note_on_c, 0, 69, 0
1, 199504, Note_on_c, 0, 57, 0
1, 199540, Note_on_c, 0, 61, 58
1, 199540, Note_on_c, 0, 51, 75
1, 199545, Note_on_c, 0, 75, 81
1, 199552, Note_on_c, 0, 69, 49
1, 199559, Note_on_c, 0, 64, 50
1, 199563, Note_on_c, 0, 57, 31
1, 199588, Note_on_c, 0, 61, 0
1, 199593, Note_on_c, 0, 51, 0
1, 199593, Note_on_c, 0, 75, 0
1, 199593, Note_on_c, 0, 64, 0
1, 199601, Note_on_c, 0, 69, 0
1, 199616, Note_on_c, 0, 57, 0
1, 199654, Note_on_c, 0, 61, 62
1, 199654, Note_on_c, 0, 51, 66
1, 199657, Note_on_c, 0, 75, 75
1, 199669, Note_on_c, 0, 57, 52
1, 199672, Note_on_c, 0, 64, 43
1, 199672, Note_on_c, 0, 69, 34
1, 199710, Note_on_c, 0, 57, 0
1, 199713, Note_on_c, 0, 64, 0
1, 199713, Note_on_c, 0, 51, 0
1, 199716, Note_on_c, 0, 61, 0
1, 199722, Note_on_c, 0, 69, 0
1, 199743, Note_on_c, 0, 75, 0
1, 199794, Note_on_c, 0, 76, 93
1, 199794, Note_on_c, 0, 61, 65
1, 199797, Note_on_c, 0, 69, 45
1, 199797, Note_on_c, 0, 49, 76
1, 199807, Note_on_c, 0, 64, 66
1, 199813, Note_on_c, 0, 57, 17
1, 199836, Note_on_c, 0, 49, 0
1, 199843, Note_on_c, 0, 64, 0
1, 199852, Note_on_c, 0, 61, 0
1, 199863, Note_on_c, 0, 57, 0
1, 199867, Note_on_c, 0, 69, 0
1, 199877, Note_on_c, 0, 76, 0
1, 199916, Note_on_c, 0, 61, 67
1, 199921, Note_on_c, 0, 49, 63
1, 199921, Note_on_c, 0, 76, 78
1, 199924, Note_on_c, 0, 69, 55
1, 199924, Note_on_c, 0, 57, 12
1, 199938, Note_on_c, 0, 64, 36
1, 199952, Note_on_c, 0, 76, 0
1, 199958, Note_on_c, 0, 49, 0
1, 199967, Note_on_c, 0, 61, 0
1, 199978, Note_on_c, 0, 57, 0
1, 199981, Note_on_c, 0, 64, 0
1, 199984, Note_on_c, 0, 69, 0
1, 200017, Note_on_c, 0, 61, 75
1, 200024, Note_on_c, 0, 51, 76
1, 200027, Note_on_c, 0, 57, 12
1, 200031, Note_on_c, 0, 75, 86
1, 200031, Note_on_c, 0, 64, 85
1, 200036, Note_on_c, 0, 69, 57
1, 200072, Note_on_c, 0, 51, 0
1, 200077, Note_on_c, 0, 69, 0
1, 200077, Note_on_c, 0, 64, 0
1, 200080, Note_on_c, 0, 57, 0
1, 200083, Note_on_c, 0, 75, 0
1, 200086, Note_on_c, 0, 61, 0
1, 200129, Note_on_c, 0, 57, 12
1, 200129, Note_on_c, 0, 61, 86
1, 200129, Note_on_c, 0, 64, 73
1, 200133, Note_on_c, 0, 69, 38
1, 200137, Note_on_c, 0, 75, 79
1, 200137, Note_on_c, 0, 52, 73
1, 200162, Note_on_c, 0, 64, 0
1, 200165, Note_on_c, 0, 61, 0
1, 200170, Note_on_c, 0, 52, 0
1, 200170, Note_on_c, 0, 69, 0
1, 200178, Note_on_c, 0, 75, 0
1, 200182, Note_on_c, 0, 57, 0
1, 200215, Note_on_c, 0, 52, 94
1, 200223, Note_on_c, 0, 61, 69
1, 200226, Note_on_c, 0, 69, 43
1, 200229, Note_on_c, 0, 64, 58
1, 200229, Note_on_c, 0, 73, 81
1, 200236, Note_on_c, 0, 57, 24
1, 200262, Note_on_c, 0, 73, 0
1, 200268, Note_on_c, 0, 64, 0
1, 200286, Note_on_c, 0, 69, 0
1, 200286, Note_on_c, 0, 57, 0
1, 200290, Note_on_c, 0, 61, 0
1, 200300, Note_on_c, 0, 52, 0
1, 200329, Note_on_c, 0, 73, 73
1, 200332, Note_on_c, 0, 57, 12
1, 200332, Note_on_c, 0, 61, 86
1, 200332, Note_on_c, 0, 69, 66
1, 200335, Note_on_c, 0, 52, 78
1, 200348, Note_on_c, 0, 64, 78
1, 200371, Note_on_c, 0, 69, 0
1, 200385, Note_on_c, 0, 57, 0
1, 200404, Note_on_c, 0, 61, 0
1, 200404, Note_on_c, 0, 64, 0
1, 200415, Note_on_c, 0, 52, 0
1, 200434, Note_on_c, 0, 73, 0
1, 200451, Control_c, 0, 64, 0
1, 200462, Note_on_c, 0, 75, 89
1, 200462, Note_on_c, 0, 71, 84
1, 200466, Note_on_c, 0, 63, 100
1, 200466, Note_on_c, 0, 68, 17
1, 200473, Note_on_c, 0, 56, 77
1, 200473, Note_on_c, 0, 51, 72
1, 200476, Note_on_c, 0, 59, 75
1, 200510, Note_on_c, 0, 59, 0
1, 200520, Note_on_c, 0, 68, 0
1, 200534, Note_on_c, 0, 51, 0
1, 200543, Note_on_c, 0, 63, 0
1, 200543, Note_on_c, 0, 56, 0
1, 200555, Note_on_c, 0, 71, 0
1, 200562, Control_c, 0, 64, 127
1, 200573, Note_on_c, 0, 75, 0
1, 200598, Note_on_c, 0, 62, 79
1, 200601, Note_on_c, 0, 50, 68
1, 200601, Note_on_c, 0, 76, 71
1, 200627, Note_on_c, 0, 62, 0
1, 200635, Note_on_c, 0, 76, 0
1, 200640, Note_on_c, 0, 50, 0
1, 200702, Note_on_c, 0, 61, 83
1, 200710, Note_on_c, 0, 49, 71
1, 200727, Note_on_c, 0, 77, 47
1, 200727, Note_on_c, 0, 65, 34
1, 200746, Note_on_c, 0, 49, 0
1, 200746, Note_on_c, 0, 61, 0
1, 200768, Note_on_c, 0, 77, 0
1, 200777, Note_on_c, 0, 65, 0
1, 200807, Note_on_c, 0, 48, 67
1, 200807, Note_on_c, 0, 60, 59
1, 200813, Note_on_c, 0, 78, 64
1, 200818, Note_on_c, 0, 66, 69
1, 200846, Note_on_c, 0, 60, 0
1, 200846, Note_on_c, 0, 66, 0
1, 200852, Note_on_c, 0, 48, 0
1, 200852, Note_on_c, 0, 78, 0
1, 200910, Note_on_c, 0, 59, 79
1, 200910, Note_on_c, 0, 47, 81
1, 200924, Note_on_c, 0, 79, 89
1, 200930, Note_on_c, 0, 67, 59
1, 200941, Note_on_c, 0, 59, 0
1, 200941, Note_on_c, 0, 47, 0
1, 200950, Note_on_c, 0, 79, 0
1, 200972, Note_on_c, 0, 67, 0
1, 201019, Note_on_c, 0, 58, 62
1, 201019, Note_on_c, 0, 46, 69
1, 201028, Note_on_c, 0, 80, 75
1, 201031, Note_on_c, 0, 68, 64
1, 201056, Note_on_c, 0, 80, 0
1, 201056, Note_on_c, 0, 58, 0
1, 201064, Note_on_c, 0, 46, 0
1, 201064, Note_on_c, 0, 68, 0
1, 201122, Note_on_c, 0, 57, 72
1, 201122, Note_on_c, 0, 45, 72
1, 201134, Note_on_c, 0, 81, 83
1, 201137, Note_on_c, 0, 69, 61
1, 201154, Note_on_c, 0, 57, 0
1, 201158, Note_on_c, 0, 45, 0
1, 201161, Note_on_c, 0, 81, 0
1, 201173, Note_on_c, 0, 69, 0
1, 201228, Note_on_c, 0, 56, 77
1, 201232, Note_on_c, 0, 44, 88
1, 201232, Note_on_c, 0, 70, 73
1, 201232, Note_on_c, 0, 82, 78
1, 201264, Note_on_c, 0, 44, 0
1, 201264, Note_on_c, 0, 56, 0
1, 201271, Note_on_c, 0, 82, 0
1, 201293, Note_on_c, 0, 70, 0
1, 201331, Note_on_c, 0, 55, 88
1, 201331, Note_on_c, 0, 43, 85
1, 201339, Note_on_c, 0, 83, 101
1, 201354, Note_on_c, 0, 71, 41
1, 201365, Note_on_c, 0, 55, 0
1, 201365, Note_on_c, 0, 83, 0
1, 201370, Note_on_c, 0, 43, 0
1, 201412, Note_on_c, 0, 71, 0
1, 201431, Note_on_c, 0, 54, 96
1, 201431, Note_on_c, 0, 42, 92
1, 201442, Note_on_c, 0, 72, 74
1, 201448, Note_on_c, 0, 84, 64
1, 201473, Note_on_c, 0, 72, 0
1, 201484, Note_on_c, 0, 84, 0
1, 201509, Note_on_c, 0, 42, 0
1, 201509, Note_on_c, 0, 54, 0
1, 201535, Note_on_c, 0, 41, 98
1, 201535, Note_on_c, 0, 53, 106
1, 201540, Note_on_c, 0, 85, 84
1, 201540, Note_on_c, 0, 73, 79
1, 201560, Note_on_c, 0, 53, 0
1, 201564, Note_on_c, 0, 41, 0
1, 201568, Note_on_c, 0, 85, 0
1, 201582, Note_on_c, 0, 73, 0
1, 201629, Note_on_c, 0, 40, 106
1, 201629, Note_on_c, 0, 86, 98
1, 201629, Note_on_c, 0, 74, 94
1, 201632, Note_on_c, 0, 52, 98
1, 201652, Note_on_c, 0, 40, 0
1, 201658, Note_on_c, 0, 86, 0
1, 201658, Note_on_c, 0, 52, 0
1, 201663, Note_on_c, 0, 74, 0
1, 201697, Control_c, 0, 64, 0
1, 201725, Note_on_c, 0, 51, 98
1, 201725, Note_on_c, 0, 87, 89
1, 201728, Note_on_c, 0, 75, 90
1, 201728, Note_on_c, 0, 43, 84
1, 201732, Note_on_c, 0, 79, 79
1, 201732, Note_on_c, 0, 82, 62
1, 201732, Note_on_c, 0, 39, 79
1, 201735, Note_on_c, 0, 46, 70
1, 201764, Note_on_c, 0, 79, 0
1, 201771, Note_on_c, 0, 43, 0
1, 201771, Note_on_c, 0, 82, 0
1, 201782, Note_on_c, 0, 39, 0
1, 201789, Note_on_c, 0, 87, 0
1, 201796, Note_on_c, 0, 46, 0
1, 201799, Note_on_c, 0, 75, 0
1, 201805, Control_c, 0, 64, 127
1, 201814, Note_on_c, 0, 51, 0
1, 201836, Note_on_c, 0, 38, 95
1, 201839, Note_on_c, 0, 50, 88
1, 201849, Note_on_c, 0, 88, 89
1, 201858, Note_on_c, 0, 76, 48
1, 201869, Note_on_c, 0, 38, 0
1, 201875, Note_on_c, 0, 88, 0
1, 201883, Note_on_c, 0, 50, 0
1, 201886, Note_on_c, 0, 77, 22
1, 201899, Note_on_c, 0, 76, 0
1, 201939, Note_on_c, 0, 89, 84
1, 201944, Note_on_c, 0, 49, 86
1, 201947, Note_on_c, 0, 37, 92
1, 201967, Note_on_c, 0, 89, 0
1, 201983, Note_on_c, 0, 37, 0
1, 201989, Note_on_c, 0, 77, 0
1, 201989, Note_on_c, 0, 49, 0
1, 202036, Note_on_c, 0, 36, 94
1, 202036, Note_on_c, 0, 48, 83
1, 202045, Note_on_c, 0, 90, 81
1, 202069, Note_on_c, 0, 48, 0
1, 202083, Note_on_c, 0, 90, 0
1, 202090, Note_on_c, 0, 36, 0
1, 202139, Note_on_c, 0, 91, 92
1, 202144, Note_on_c, 0, 47, 93
1, 202147, Note_on_c, 0, 35, 100
1, 202156, Note_on_c, 0, 79, 55
1, 202167, Note_on_c, 0, 91, 0
1, 202172, Note_on_c, 0, 35, 0
1, 202172, Note_on_c, 0, 47, 0
1, 202203, Note_on_c, 0, 79, 0
1, 202240, Note_on_c, 0, 80, 85
1, 202240, Note_on_c, 0, 46, 81
1, 202240, Note_on_c, 0, 92, 87
1, 202245, Note_on_c, 0, 34, 89
1, 202270, Note_on_c, 0, 92, 0
1, 202273, Note_on_c, 0, 80, 0
1, 202285, Note_on_c, 0, 46, 0
1, 202332, Note_on_c, 0, 45, 88
1, 202335, Note_on_c, 0, 33, 97
1, 202346, Note_on_c, 0, 93, 84
1, 202346, Note_on_c, 0, 81, 83
1, 202370, Note_on_c, 0, 34, 0
1, 202370, Note_on_c, 0, 33, 0
1, 202374, Note_on_c, 0, 93, 0
1, 202374, Note_on_c, 0, 81, 0
1, 202374, Note_on_c, 0, 45, 0
1, 202435, Note_on_c, 0, 44, 90
1, 202435, Note_on_c, 0, 94, 77
1, 202435, Note_on_c, 0, 32, 90
1, 202445, Note_on_c, 0, 82, 70
1, 202488, Note_on_c, 0, 82, 0
1, 202507, Note_on_c, 0, 94, 0
1, 202511, Note_on_c, 0, 44, 0
1, 202532, Note_on_c, 0, 43, 88
1, 202535, Note_on_c, 0, 31, 94
1, 202549, Note_on_c, 0, 95, 75
1, 202549, Note_on_c, 0, 83, 85
1, 202565, Note_on_c, 0, 32, 0
1, 202565, Note_on_c, 0, 31, 0
1, 202569, Note_on_c, 0, 43, 0
1, 202579, Note_on_c, 0, 95, 0
1, 202579, Note_on_c, 0, 83, 0
1, 202633, Note_on_c, 0, 42, 86
1, 202633, Note_on_c, 0, 30, 94
1, 202644, Note_on_c, 0, 97, 81
1, 202644, Note_on_c, 0, 85, 70
1, 202671, Note_on_c, 0, 97, 0
1, 202680, Note_on_c, 0, 85, 0
1, 202691, Note_on_c, 0, 42, 0
1, 202733, Note_on_c, 0, 30, 0
1, 202747, Note_on_c, 0, 28, 70
1, 202760, Note_on_c, 0, 98, 81
1, 202760, Note_on_c, 0, 86, 58
1, 202760, Note_on_c, 0, 40, 63
1, 202780, Note_on_c, 0, 28, 0
1, 202791, Note_on_c, 0, 98, 0
1, 202794, Note_on_c, 0, 40, 0
1, 202803, Note_on_c, 0, 86, 0
1, 202844, Note_on_c, 0, 39, 95
1, 202844, Note_on_c, 0, 27, 88
1, 202847, Note_on_c, 0, 87, 58
1, 202850, Note_on_c, 0, 99, 89
1, 202872, Note_on_c, 0, 99, 0
1, 202891, Note_on_c, 0, 87, 0
1, 202891, Note_on_c, 0, 27, 0
1, 202919, Note_on_c, 0, 39, 0
1, 203112, Control_c, 0, 64, 0
1, 203112, Note_on_c, 0, 44, 110
1, 203117, Note_on_c, 0, 32, 103
1, 203120, Note_on_c, 0, 68, 88
1, 203131, Note_on_c, 0, 59, 87
1, 203131, Note_on_c, 0, 63, 39
1, 203195, Note_on_c, 0, 63, 0
1, 203240, Note_on_c, 0, 32, 0
1, 203259, Note_on_c, 0, 44, 0
1, 203259, Note_on_c, 0, 59, 0
1, 203279, Control_c, 0, 64, 127
1, 203331, Note_on_c, 0, 68, 0
1, 203353, Note_on_c, 0, 51, 86
1, 203359, Note_on_c, 0, 39, 75
1, 203379, Note_on_c, 0, 51, 0
1, 203385, Note_on_c, 0, 39, 0
1, 203482, Note_on_c, 0, 56, 66
1, 203504, Note_on_c, 0, 44, 31
1, 203527, Note_on_c, 0, 56, 0
1, 203565, Note_on_c, 0, 44, 0
1, 203622, Note_on_c, 0, 83, 119
1, 203622, Note_on_c, 0, 71, 107
1, 203630, Note_on_c, 0, 63, 99
1, 203635, Note_on_c, 0, 75, 72
1, 203638, Note_on_c, 0, 51, 89
1, 203669, Note_on_c, 0, 63, 0
1, 203700, Note_on_c, 0, 51, 0
1, 203703, Note_on_c, 0, 71, 0
1, 203718, Note_on_c, 0, 83, 0
1, 203764, Note_on_c, 0, 75, 0
1, 203842, Control_c, 0, 64, 0
1, 203850, Note_on_c, 0, 82, 81
1, 203850, Note_on_c, 0, 70, 85
1, 203853, Note_on_c, 0, 44, 100
1, 203858, Note_on_c, 0, 32, 99
1, 203880, Note_on_c, 0, 75, 45
1, 203892, Note_on_c, 0, 32, 0
1, 203897, Note_on_c, 0, 82, 0
1, 203917, Note_on_c, 0, 75, 0
1, 203917, Note_on_c, 0, 44, 0
1, 203950, Note_on_c, 0, 71, 75
1, 203950, Control_c, 0, 64, 127
1, 203955, Note_on_c, 0, 70, 0
1, 203955, Note_on_c, 0, 83, 101
1, 203984, Note_on_c, 0, 71, 0
1, 203984, Note_on_c, 0, 83, 0
1, 204042, Note_on_c, 0, 51, 90
1, 204048, Note_on_c, 0, 39, 83
1, 204064, Note_on_c, 0, 85, 90
1, 204067, Note_on_c, 0, 73, 82
1, 204075, Note_on_c, 0, 51, 0
1, 204075, Note_on_c, 0, 39, 0
1, 204140, Note_on_c, 0, 85, 0
1, 204151, Note_on_c, 0, 73, 0
1, 204161, Note_on_c, 0, 56, 83
1, 204172, Note_on_c, 0, 44, 76
1, 204200, Note_on_c, 0, 56, 0
1, 204200, Note_on_c, 0, 44, 0
1, 204296, Note_on_c, 0, 71, 93
1, 204304, Note_on_c, 0, 83, 85
1, 204309, Note_on_c, 0, 75, 58
1, 204317, Note_on_c, 0, 63, 98
1, 204326, Note_on_c, 0, 71, 0
1, 204326, Note_on_c, 0, 51, 84
1, 204337, Note_on_c, 0, 83, 0
1, 204343, Note_on_c, 0, 75, 0
1, 204390, Note_on_c, 0, 63, 0
1, 204406, Note_on_c, 0, 82, 72
1, 204409, Note_on_c, 0, 70, 71
1, 204427, Note_on_c, 0, 51, 0
1, 204435, Note_on_c, 0, 82, 0
1, 204445, Note_on_c, 0, 70, 0
1, 204498, Note_on_c, 0, 83, 112
1, 204498, Note_on_c, 0, 71, 85
1, 204510, Note_on_c, 0, 75, 57
1, 204510, Control_c, 0, 64, 0
1, 204523, Note_on_c, 0, 83, 0
1, 204529, Note_on_c, 0, 71, 0
1, 204529, Note_on_c, 0, 44, 94
1, 204534, Note_on_c, 0, 32, 94
1, 204546, Note_on_c, 0, 75, 0
1, 204563, Note_on_c, 0, 32, 0
1, 204569, Note_on_c, 0, 44, 0
1, 204596, Note_on_c, 0, 85, 91
1, 204596, Note_on_c, 0, 73, 86
1, 204596, Control_c, 0, 64, 127
1, 204629, Note_on_c, 0, 85, 0
1, 204629, Note_on_c, 0, 73, 0
1, 204702, Note_on_c, 0, 51, 85
1, 204702, Note_on_c, 0, 39, 78
1, 204707, Note_on_c, 0, 75, 95
1, 204710, Note_on_c, 0, 87, 92
1, 204730, Note_on_c, 0, 51, 0
1, 204730, Note_on_c, 0, 39, 0
1, 204772, Note_on_c, 0, 75, 0
1, 204786, Note_on_c, 0, 87, 0
1, 204819, Note_on_c, 0, 56, 75
1, 204827, Note_on_c, 0, 44, 68
1, 204850, Note_on_c, 0, 56, 0
1, 204861, Note_on_c, 0, 44, 0
1, 204928, Note_on_c, 0, 73, 79
1, 204928, Note_on_c, 0, 85, 82
1, 204956, Note_on_c, 0, 85, 0
1, 204959, Note_on_c, 0, 73, 0
1, 204959, Note_on_c, 0, 63, 97
1, 204966, Note_on_c, 0, 51, 88
1, 204987, Note_on_c, 0, 63, 0
1, 205008, Note_on_c, 0, 51, 0
1, 205031, Note_on_c, 0, 83, 96
1, 205031, Note_on_c, 0, 71, 86
1, 205058, Note_on_c, 0, 83, 0
1, 205058, Note_on_c, 0, 71, 0
1, 205132, Note_on_c, 0, 82, 77
1, 205136, Note_on_c, 0, 70, 68
1, 205140, Note_on_c, 0, 75, 65
1, 205150, Control_c, 0, 64, 0
1, 205162, Note_on_c, 0, 44, 94
1, 205168, Note_on_c, 0, 32, 92
1, 205179, Note_on_c, 0, 75, 0
1, 205196, Note_on_c, 0, 32, 0
1, 205214, Note_on_c, 0, 71, 86
1, 205218, Note_on_c, 0, 70, 0
1, 205218, Note_on_c, 0, 44, 0
1, 205218, Note_on_c, 0, 83, 107
1, 205231, Note_on_c, 0, 82, 0
1, 205231, Control_c, 0, 64, 127
1, 205249, Note_on_c, 0, 71, 0
1, 205257, Note_on_c, 0, 83, 0
1, 205317, Note_on_c, 0, 51, 91
1, 205324, Note_on_c, 0, 39, 82
1, 205337, Note_on_c, 0, 85, 90
1, 205342, Note_on_c, 0, 73, 84
1, 205348, Note_on_c, 0, 51, 0
1, 205351, Note_on_c, 0, 39, 0
1, 205407, Note_on_c, 0, 85, 0
1, 205423, Note_on_c, 0, 73, 0
1, 205438, Note_on_c, 0, 56, 86
1, 205446, Note_on_c, 0, 44, 77
1, 205473, Note_on_c, 0, 56, 0
1, 205477, Note_on_c, 0, 44, 0
1, 205530, Note_on_c, 0, 71, 89
1, 205534, Note_on_c, 0, 83, 84
1, 205538, Note_on_c, 0, 75, 62
1, 205560, Note_on_c, 0, 71, 0
1, 205568, Note_on_c, 0, 83, 0
1, 205568, Note_on_c, 0, 75, 0
1, 205582, Note_on_c, 0, 63, 95
1, 205593, Note_on_c, 0, 51, 77
1, 205610, Note_on_c, 0, 63, 0
1, 205638, Note_on_c, 0, 51, 0
1, 205638, Note_on_c, 0, 70, 82
1, 205638, Note_on_c, 0, 82, 81
1, 205668, Note_on_c, 0, 82, 0
1, 205674, Note_on_c, 0, 70, 0
1, 205747, Note_on_c, 0, 83, 105
1, 205747, Control_c, 0, 64, 0
1, 205751, Note_on_c, 0, 71, 85
1, 205758, Note_on_c, 0, 75, 62
1, 205771, Note_on_c, 0, 44, 97
1, 205771, Note_on_c, 0, 83, 0
1, 205777, Note_on_c, 0, 32, 86
1, 205781, Note_on_c, 0, 71, 0
1, 205794, Note_on_c, 0, 75, 0
1, 205802, Note_on_c, 0, 44, 0
1, 205802, Note_on_c, 0, 32, 0
1, 205831, Control_c, 0, 64, 127
1, 205850, Note_on_c, 0, 82, 81
1, 205850, Note_on_c, 0, 70, 84
1, 205880, Note_on_c, 0, 82, 0
1, 205880, Note_on_c, 0, 70, 0
1, 205942, Note_on_c, 0, 51, 87
1, 205942, Note_on_c, 0, 39, 82
1, 205951, Note_on_c, 0, 68, 78
1, 205951, Note_on_c, 0, 80, 79
1, 205970, Note_on_c, 0, 51, 0
1, 205970, Note_on_c, 0, 39, 0
1, 205981, Note_on_c, 0, 68, 0
1, 205989, Note_on_c, 0, 80, 0
1, 206054, Note_on_c, 0, 56, 78
1, 206064, Note_on_c, 0, 44, 75
1, 206098, Note_on_c, 0, 56, 0
1, 206098, Note_on_c, 0, 44, 0
1, 206215, Note_on_c, 0, 95, 103
1, 206215, Note_on_c, 0, 83, 114
1, 206221, Note_on_c, 0, 63, 95
1, 206228, Note_on_c, 0, 87, 49
1, 206228, Note_on_c, 0, 51, 83
1, 206242, Note_on_c, 0, 83, 0
1, 206248, Note_on_c, 0, 95, 0
1, 206256, Note_on_c, 0, 63, 0
1, 206268, Note_on_c, 0, 87, 0
1, 206281, Note_on_c, 0, 51, 0
1, 206443, Control_c, 0, 64, 0
1, 206449, Note_on_c, 0, 94, 80
1, 206449, Note_on_c, 0, 82, 83
1, 206460, Note_on_c, 0, 87, 55
1, 206460, Note_on_c, 0, 44, 97
1, 206463, Note_on_c, 0, 32, 90
1, 206490, Note_on_c, 0, 32, 0
1, 206494, Note_on_c, 0, 87, 0
1, 206494, Note_on_c, 0, 44, 0
1, 206501, Note_on_c, 0, 82, 0
1, 206501, Note_on_c, 0, 94, 0
1, 206527, Control_c, 0, 64, 127
1, 206547, Note_on_c, 0, 95, 77
1, 206547, Note_on_c, 0, 83, 80
1, 206577, Note_on_c, 0, 95, 0
1, 206580, Note_on_c, 0, 83, 0
1, 206635, Note_on_c, 0, 39, 90
1, 206635, Note_on_c, 0, 51, 82
1, 206657, Note_on_c, 0, 85, 86
1, 206660, Note_on_c, 0, 97, 81
1, 206660, Note_on_c, 0, 39, 0
1, 206666, Note_on_c, 0, 51, 0
1, 206742, Note_on_c, 0, 97, 0
1, 206747, Note_on_c, 0, 85, 0
1, 206752, Note_on_c, 0, 56, 78
1, 206763, Note_on_c, 0, 44, 71
1, 206788, Note_on_c, 0, 56, 0
1, 206797, Note_on_c, 0, 44, 0
1, 206877, Note_on_c, 0, 83, 103
1, 206881, Note_on_c, 0, 95, 71
1, 206881, Note_on_c, 0, 87, 56
1, 206894, Note_on_c, 0, 63, 90
1, 206903, Note_on_c, 0, 83, 0
1, 206903, Note_on_c, 0, 51, 81
1, 206914, Note_on_c, 0, 95, 0
1, 206914, Note_on_c, 0, 87, 0
1, 206920, Note_on_c, 0, 63, 0
1, 206942, Note_on_c, 0, 51, 0
1, 206981, Note_on_c, 0, 94, 73
1, 206984, Note_on_c, 0, 82, 66
1, 207014, Note_on_c, 0, 94, 0
1, 207019, Note_on_c, 0, 82, 0
1, 207078, Control_c, 0, 64, 0
1, 207078, Note_on_c, 0, 95, 91
1, 207082, Note_on_c, 0, 83, 104
1, 207087, Note_on_c, 0, 87, 71
1, 207087, Note_on_c, 0, 44, 97
1, 207092, Note_on_c, 0, 32, 96
1, 207106, Note_on_c, 0, 83, 0
1, 207111, Note_on_c, 0, 95, 0
1, 207115, Note_on_c, 0, 87, 0
1, 207115, Note_on_c, 0, 32, 0
1, 207115, Note_on_c, 0, 44, 0
1, 207150, Control_c, 0, 64, 127
1, 207176, Note_on_c, 0, 97, 89
1, 207176, Note_on_c, 0, 85, 90
1, 207215, Note_on_c, 0, 85, 0
1, 207221, Note_on_c, 0, 97, 0
1, 207267, Note_on_c, 0, 51, 84
1, 207267, Note_on_c, 0, 39, 84
1, 207290, Note_on_c, 0, 87, 84
1, 207290, Note_on_c, 0, 39, 0
1, 207293, Note_on_c, 0, 99, 92
1, 207293, Note_on_c, 0, 51, 0
1, 207324, Note_on_c, 0, 99, 0
1, 207327, Note_on_c, 0, 87, 0
1, 207382, Note_on_c, 0, 56, 80
1, 207396, Note_on_c, 0, 44, 69
1, 207412, Note_on_c, 0, 56, 0
1, 207429, Note_on_c, 0, 44, 0
1, 207496, Note_on_c, 0, 85, 83
1, 207499, Note_on_c, 0, 97, 79
1, 207515, Note_on_c, 0, 63, 97
1, 207524, Note_on_c, 0, 85, 0
1, 207524, Note_on_c, 0, 97, 0
1, 207524, Note_on_c, 0, 51, 84
1, 207549, Note_on_c, 0, 63, 0
1, 207580, Note_on_c, 0, 51, 0
1, 207596, Note_on_c, 0, 95, 81
1, 207602, Note_on_c, 0, 83, 85
1, 207622, Note_on_c, 0, 95, 0
1, 207633, Note_on_c, 0, 83, 0
1, 207689, Control_c, 0, 64, 0
1, 207700, Note_on_c, 0, 82, 70
1, 207700, Note_on_c, 0, 94, 73
1, 207703, Note_on_c, 0, 44, 95
1, 207708, Note_on_c, 0, 32, 93
1, 207716, Note_on_c, 0, 87, 52
1, 207739, Note_on_c, 0, 32, 0
1, 207752, Note_on_c, 0, 82, 0
1, 207752, Note_on_c, 0, 44, 0
1, 207760, Note_on_c, 0, 87, 0
1, 207774, Control_c, 0, 64, 127
1, 207774, Note_on_c, 0, 94, 0
1, 207780, Note_on_c, 0, 83, 97
1, 207780, Note_on_c, 0, 95, 85
1, 207809, Note_on_c, 0, 83, 0
1, 207862, Note_on_c, 0, 95, 0
1, 207880, Note_on_c, 0, 39, 79
1, 207883, Note_on_c, 0, 51, 77
1, 207894, Note_on_c, 0, 97, 86
1, 207897, Note_on_c, 0, 85, 91
1, 207906, Note_on_c, 0, 39, 0
1, 207912, Note_on_c, 0, 51, 0
1, 207961, Note_on_c, 0, 97, 0
1, 207973, Note_on_c, 0, 85, 0
1, 207995, Note_on_c, 0, 56, 83
1, 208006, Note_on_c, 0, 44, 77
1, 208026, Note_on_c, 0, 56, 0
1, 208037, Note_on_c, 0, 44, 0
1, 208104, Note_on_c, 0, 83, 111
1, 208107, Note_on_c, 0, 95, 91
1, 208126, Note_on_c, 0, 83, 0
1, 208129, Note_on_c, 0, 95, 0
1, 208137, Note_on_c, 0, 63, 90
1, 208145, Note_on_c, 0, 51, 75
1, 208162, Note_on_c, 0, 63, 0
1, 208182, Note_on_c, 0, 51, 0
1, 208206, Note_on_c, 0, 82, 76
1, 208206, Note_on_c, 0, 94, 73
1, 208234, Note_on_c, 0, 82, 0
1, 208234, Note_on_c, 0, 94, 0
1, 208277, Control_c, 0, 64, 0
1, 208312, Note_on_c, 0, 95, 88
1, 208312, Note_on_c, 0, 83, 90
1, 208320, Note_on_c, 0, 87, 64
1, 208320, Note_on_c, 0, 44, 96
1, 208320, Note_on_c, 0, 32, 95
1, 208338, Note_on_c, 0, 95, 0
1, 208345, Note_on_c, 0, 83, 0
1, 208345, Note_on_c, 0, 32, 0
1, 208348, Note_on_c, 0, 44, 0
1, 208366, Note_on_c, 0, 87, 0
1, 208373, Control_c, 0, 64, 127
1, 208413, Note_on_c, 0, 82, 75
1, 208417, Note_on_c, 0, 94, 63
1, 208444, Note_on_c, 0, 82, 0
1, 208452, Note_on_c, 0, 94, 0
1, 208508, Note_on_c, 0, 92, 75
1, 208508, Note_on_c, 0, 80, 86
1, 208511, Note_on_c, 0, 39, 83
1, 208511, Note_on_c, 0, 51, 84
1, 208536, Note_on_c, 0, 92, 0
1, 208536, Note_on_c, 0, 39, 0
1, 208539, Note_on_c, 0, 51, 0
1, 208549, Note_on_c, 0, 80, 0
1, 208611, Note_on_c, 0, 56, 86
1, 208627, Note_on_c, 0, 44, 55
1, 208639, Note_on_c, 0, 56, 0
1, 208667, Note_on_c, 0, 44, 0
1, 208719, Note_on_c, 0, 71, 95
1, 208719, Note_on_c, 0, 75, 87
1, 208723, Note_on_c, 0, 63, 98
1, 208727, Note_on_c, 0, 59, 103
1, 208735, Note_on_c, 0, 47, 82
1, 208744, Note_on_c, 0, 51, 68
1, 208752, Note_on_c, 0, 59, 0
1, 208752, Note_on_c, 0, 75, 0
1, 208755, Note_on_c, 0, 63, 0
1, 208763, Note_on_c, 0, 47, 0
1, 208770, Note_on_c, 0, 71, 0
1, 208777, Note_on_c, 0, 51, 0
1, 208911, Note_on_c, 0, 58, 91
1, 208920, Note_on_c, 0, 46, 85
1, 208925, Note_on_c, 0, 70, 69
1, 208925, Note_on_c, 0, 63, 89
1, 208948, Note_on_c, 0, 46, 0
1, 208951, Note_on_c, 0, 75, 23
1, 208954, Note_on_c, 0, 63, 0
1, 208958, Note_on_c, 0, 70, 0
1, 208976, Note_on_c, 0, 58, 0
1, 209001, Note_on_c, 0, 63, 82
1, 209009, Note_on_c, 0, 47, 87
1, 209009, Note_on_c, 0, 71, 82
1, 209012, Note_on_c, 0, 59, 90
1, 209036, Note_on_c, 0, 47, 0
1, 209036, Note_on_c, 0, 51, 25
1, 209039, Note_on_c, 0, 59, 0
1, 209053, Note_on_c, 0, 63, 0
1, 209053, Note_on_c, 0, 71, 0
1, 209064, Note_on_c, 0, 75, 0
1, 209092, Note_on_c, 0, 51, 0
1, 209092, Control_c, 0, 64, 0
1, 209103, Note_on_c, 0, 63, 98
1, 209103, Note_on_c, 0, 75, 86
1, 209110, Note_on_c, 0, 61, 105
1, 209114, Note_on_c, 0, 73, 85
1, 209117, Note_on_c, 0, 49, 87
1, 209131, Note_on_c, 0, 51, 74
1, 209188, Control_c, 0, 64, 127
1, 209195, Note_on_c, 0, 75, 0
1, 209195, Note_on_c, 0, 61, 0
1, 209201, Note_on_c, 0, 63, 0
1, 209201, Note_on_c, 0, 51, 0
1, 209207, Note_on_c, 0, 49, 0
1, 209226, Note_on_c, 0, 73, 0
1, 209313, Note_on_c, 0, 51, 87
1, 209313, Note_on_c, 0, 59, 91
1, 209323, Note_on_c, 0, 63, 90
1, 209329, Note_on_c, 0, 71, 76
1, 209329, Note_on_c, 0, 75, 62
1, 209338, Note_on_c, 0, 59, 0
1, 209338, Note_on_c, 0, 51, 0
1, 209348, Note_on_c, 0, 63, 0
1, 209362, Note_on_c, 0, 71, 0
1, 209362, Note_on_c, 0, 75, 0
1, 209402, Note_on_c, 0, 58, 84
1, 209405, Note_on_c, 0, 63, 74
1, 209405, Note_on_c, 0, 75, 69
1, 209412, Note_on_c, 0, 46, 77
1, 209415, Note_on_c, 0, 51, 50
1, 209421, Note_on_c, 0, 70, 67
1, 209443, Note_on_c, 0, 46, 0
1, 209452, Note_on_c, 0, 51, 0
1, 209452, Note_on_c, 0, 70, 0
1, 209455, Note_on_c, 0, 75, 0
1, 209471, Note_on_c, 0, 58, 0
1, 209471, Note_on_c, 0, 63, 0
1, 209515, Note_on_c, 0, 59, 89
1, 209515, Note_on_c, 0, 63, 87
1, 209515, Note_on_c, 0, 75, 59
1, 209527, Note_on_c, 0, 47, 60
1, 209531, Note_on_c, 0, 71, 87
1, 209538, Note_on_c, 0, 51, 33
1, 209546, Note_on_c, 0, 59, 0
1, 209552, Note_on_c, 0, 75, 0
1, 209560, Note_on_c, 0, 63, 0
1, 209560, Note_on_c, 0, 71, 0
1, 209566, Note_on_c, 0, 47, 0
1, 209583, Note_on_c, 0, 51, 0
1, 209614, Note_on_c, 0, 63, 84
1, 209614, Note_on_c, 0, 75, 54
1, 209621, Note_on_c, 0, 58, 54
1, 209624, Note_on_c, 0, 51, 90
1, 209628, Note_on_c, 0, 70, 67
1, 209653, Note_on_c, 0, 75, 0
1, 209656, Note_on_c, 0, 51, 0
1, 209661, Note_on_c, 0, 58, 0
1, 209661, Note_on_c, 0, 70, 0
1, 209675, Note_on_c, 0, 63, 0
1, 209703, Control_c, 0, 64, 0
1, 209719, Note_on_c, 0, 51, 80
1, 209719, Note_on_c, 0, 75, 66
1, 209719, Note_on_c, 0, 56, 83
1, 209723, Note_on_c, 0, 63, 88
1, 209735, Note_on_c, 0, 68, 77
1, 209739, Note_on_c, 0, 44, 65
1, 209747, Note_on_c, 0, 63, 0
1, 209752, Note_on_c, 0, 56, 0
1, 209763, Note_on_c, 0, 68, 0
1, 209766, Note_on_c, 0, 51, 0
1, 209780, Note_on_c, 0, 44, 0
1, 209788, Control_c, 0, 64, 127
1, 209800, Note_on_c, 0, 75, 0
1, 210007, Note_on_c, 0, 75, 103
1, 210010, Note_on_c, 0, 44, 108
1, 210010, Note_on_c, 0, 87, 95
1, 210010, Note_on_c, 0, 32, 96
1, 210010, Note_on_c, 0, 80, 92
1, 210025, Note_on_c, 0, 39, 78
1, 210031, Note_on_c, 0, 87, 0
1, 210031, Note_on_c, 0, 32, 0
1, 210031, Note_on_c, 0, 80, 0
1, 210039, Note_on_c, 0, 75, 0
1, 210050, Note_on_c, 0, 39, 0
1, 210089, Note_on_c, 0, 44, 0
1, 210232, Note_on_c, 0, 58, 90
1, 210235, Note_on_c, 0, 46, 96
1, 210235, Note_on_c, 0, 63, 90
1, 210245, Note_on_c, 0, 75, 65
1, 210245, Note_on_c, 0, 70, 64
1, 210252, Note_on_c, 0, 51, 58
1, 210262, Note_on_c, 0, 46, 0
1, 210273, Note_on_c, 0, 58, 0
1, 210284, Note_on_c, 0, 75, 0
1, 210290, Note_on_c, 0, 70, 0
1, 210290, Note_on_c, 0, 51, 0
1, 210296, Note_on_c, 0, 63, 0
1, 210327, Note_on_c, 0, 59, 92
1, 210327, Note_on_c, 0, 47, 88
1, 210334, Note_on_c, 0, 71, 85
1, 210334, Note_on_c, 0, 75, 76
1, 210334, Note_on_c, 0, 63, 79
1, 210334, Note_on_c, 0, 51, 64
1, 210352, Note_on_c, 0, 59, 0
1, 210355, Note_on_c, 0, 47, 0
1, 210362, Note_on_c, 0, 75, 0
1, 210371, Note_on_c, 0, 51, 0
1, 210380, Note_on_c, 0, 63, 0
1, 210388, Note_on_c, 0, 71, 0
1, 210418, Note_on_c, 0, 75, 56
1, 210422, Note_on_c, 0, 61, 100
1, 210422, Control_c, 0, 64, 0
1, 210422, Note_on_c, 0, 63, 104
1, 210425, Note_on_c, 0, 51, 64
1, 210425, Note_on_c, 0, 49, 86
1, 210430, Note_on_c, 0, 73, 88
1, 210508, Note_on_c, 0, 61, 0
1, 210530, Note_on_c, 0, 63, 0
1, 210530, Note_on_c, 0, 49, 0
1, 210530, Control_c, 0, 64, 127
1, 210536, Note_on_c, 0, 75, 0
1, 210539, Note_on_c, 0, 51, 0
1, 210563, Note_on_c, 0, 73, 0
1, 210625, Note_on_c, 0, 63, 90
1, 210625, Note_on_c, 0, 51, 70
1, 210630, Note_on_c, 0, 59, 71
1, 210633, Note_on_c, 0, 71, 77
1, 210633, Note_on_c, 0, 75, 51
1, 210656, Note_on_c, 0, 63, 0
1, 210656, Note_on_c, 0, 51, 0
1, 210663, Note_on_c, 0, 59, 0
1, 210667, Note_on_c, 0, 71, 0
1, 210672, Note_on_c, 0, 75, 0
1, 210705, Note_on_c, 0, 58, 74
1, 210713, Note_on_c, 0, 51, 60
1, 210716, Note_on_c, 0, 63, 76
1, 210725, Note_on_c, 0, 70, 72
1, 210725, Note_on_c, 0, 75, 43
1, 210736, Note_on_c, 0, 46, 28
1, 210752, Note_on_c, 0, 58, 0
1, 210763, Note_on_c, 0, 63, 0
1, 210766, Note_on_c, 0, 51, 0
1, 210769, Note_on_c, 0, 75, 0
1, 210769, Note_on_c, 0, 70, 0
1, 210792, Note_on_c, 0, 46, 0
1, 210816, Note_on_c, 0, 75, 64
1, 210816, Note_on_c, 0, 59, 89
1, 210823, Note_on_c, 0, 47, 78
1, 210823, Note_on_c, 0, 63, 73
1, 210833, Note_on_c, 0, 71, 80
1, 210847, Note_on_c, 0, 51, 29
1, 210851, Note_on_c, 0, 59, 0
1, 210851, Note_on_c, 0, 47, 0
1, 210867, Note_on_c, 0, 71, 0
1, 210878, Note_on_c, 0, 75, 0
1, 210890, Note_on_c, 0, 63, 0
1, 210898, Note_on_c, 0, 51, 0
1, 210933, Note_on_c, 0, 63, 72
1, 210933, Note_on_c, 0, 58, 67
1, 210933, Note_on_c, 0, 70, 63
1, 210939, Note_on_c, 0, 51, 92
1, 210939, Note_on_c, 0, 75, 47
1, 210961, Note_on_c, 0, 56, 44
1, 210961, Control_c, 0, 64, 0
1, 210967, Note_on_c, 0, 51, 0
1, 210972, Note_on_c, 0, 58, 0
1, 210972, Note_on_c, 0, 70, 0
1, 210979, Note_on_c, 0, 75, 0
1, 211011, Note_on_c, 0, 56, 0
1, 211028, Note_on_c, 0, 75, 67
1, 211028, Note_on_c, 0, 51, 73
1, 211039, Note_on_c, 0, 56, 41
1, 211039, Note_on_c, 0, 68, 75
1, 211043, Note_on_c, 0, 44, 74
1, 211043, Control_c, 0, 64, 127
1, 211067, Note_on_c, 0, 63, 0
1, 211067, Note_on_c, 0, 51, 0
1, 211067, Note_on_c, 0, 68, 0
1, 211076, Note_on_c, 0, 56, 0
1, 211076, Note_on_c, 0, 44, 0
1, 211106, Note_on_c, 0, 75, 0
1, 211296, Note_on_c, 0, 44, 100
1, 211296, Note_on_c, 0, 75, 103
1, 211300, Note_on_c, 0, 87, 96
1, 211300, Note_on_c, 0, 32, 90
1, 211309, Note_on_c, 0, 80, 84
1, 211309, Note_on_c, 0, 39, 83
1, 211321, Note_on_c, 0, 87, 0
1, 211329, Note_on_c, 0, 75, 0
1, 211329, Note_on_c, 0, 32, 0
1, 211333, Note_on_c, 0, 80, 0
1, 211337, Note_on_c, 0, 39, 0
1, 211362, Note_on_c, 0, 44, 0
1, 211510, Note_on_c, 0, 47, 83
1, 211510, Note_on_c, 0, 75, 75
1, 211514, Note_on_c, 0, 63, 84
1, 211518, Note_on_c, 0, 71, 80
1, 211521, Note_on_c, 0, 59, 46
1, 211524, Note_on_c, 0, 60, 52
1, 211539, Note_on_c, 0, 47, 0
1, 211553, Note_on_c, 0, 71, 0
1, 211553, Note_on_c, 0, 75, 0
1, 211560, Note_on_c, 0, 63, 0
1, 211560, Note_on_c, 0, 59, 0
1, 211569, Note_on_c, 0, 60, 0
1, 211600, Note_on_c, 0, 58, 78
1, 211600, Note_on_c, 0, 63, 89
1, 211608, Note_on_c, 0, 75, 67
1, 211621, Note_on_c, 0, 70, 61
1, 211621, Note_on_c, 0, 51, 62
1, 211641, Note_on_c, 0, 58, 0
1, 211641, Note_on_c, 0, 75, 0
1, 211655, Note_on_c, 0, 70, 0
1, 211658, Note_on_c, 0, 51, 0
1, 211669, Control_c, 0, 64, 0
1, 211692, Note_on_c, 0, 63, 0
1, 211695, Note_on_c, 0, 56, 84
1, 211702, Note_on_c, 0, 75, 66
1, 211702, Note_on_c, 0, 51, 76
1, 211713, Note_on_c, 0, 44, 81
1, 211713, Note_on_c, 0, 68, 65
1, 211728, Note_on_c, 0, 56, 0
1, 211736, Note_on_c, 0, 51, 0
1, 211745, Note_on_c, 0, 68, 0
1, 211756, Note_on_c, 0, 44, 0
1, 211777, Control_c, 0, 64, 127
1, 211781, Note_on_c, 0, 75, 0
1, 211943, Note_on_c, 0, 44, 102
1, 211947, Note_on_c, 0, 80, 105
1, 211947, Note_on_c, 0, 32, 88
1, 211950, Note_on_c, 0, 92, 89
1, 211953, Note_on_c, 0, 87, 83
1, 211958, Note_on_c, 0, 39, 79
1, 211973, Note_on_c, 0, 92, 0
1, 211973, Note_on_c, 0, 80, 0
1, 211973, Note_on_c, 0, 32, 0
1, 211973, Note_on_c, 0, 87, 0
1, 211984, Note_on_c, 0, 39, 0
1, 212012, Note_on_c, 0, 44, 0
1, 212154, Note_on_c, 0, 59, 94
1, 212154, Note_on_c, 0, 47, 83
1, 212167, Note_on_c, 0, 63, 86
1, 212167, Note_on_c, 0, 71, 84
1, 212167, Note_on_c, 0, 75, 67
1, 212176, Note_on_c, 0, 59, 0
1, 212185, Note_on_c, 0, 47, 0
1, 212199, Note_on_c, 0, 63, 0
1, 212202, Note_on_c, 0, 75, 0
1, 212202, Note_on_c, 0, 71, 0
1, 212251, Note_on_c, 0, 63, 82
1, 212251, Note_on_c, 0, 58, 78
1, 212251, Note_on_c, 0, 75, 63
1, 212268, Note_on_c, 0, 51, 66
1, 212268, Note_on_c, 0, 70, 66
1, 212288, Note_on_c, 0, 58, 0
1, 212291, Note_on_c, 0, 75, 0
1, 212299, Note_on_c, 0, 51, 0
1, 212305, Note_on_c, 0, 70, 0
1, 212315, Control_c, 0, 64, 0
1, 212349, Note_on_c, 0, 56, 89
1, 212357, Note_on_c, 0, 51, 60
1, 212357, Note_on_c, 0, 75, 52
1, 212360, Note_on_c, 0, 68, 74
1, 212365, Note_on_c, 0, 63, 0
1, 212365, Note_on_c, 0, 44, 81
1, 212386, Note_on_c, 0, 56, 0
1, 212386, Note_on_c, 0, 68, 0
1, 212393, Note_on_c, 0, 51, 0
1, 212411, Control_c, 0, 64, 127
1, 212418, Note_on_c, 0, 75, 0
1, 212432, Note_on_c, 0, 44, 0
1, 212620, Note_on_c, 0, 83, 122
1, 212620, Note_on_c, 0, 87, 89
1, 212624, Note_on_c, 0, 44, 100
1, 212624, Note_on_c, 0, 95, 94
1, 212630, Note_on_c, 0, 32, 92
1, 212641, Note_on_c, 0, 39, 73
1, 212647, Note_on_c, 0, 87, 0
1, 212647, Note_on_c, 0, 83, 0
1, 212647, Note_on_c, 0, 95, 0
1, 212653, Note_on_c, 0, 32, 0
1, 212669, Note_on_c, 0, 39, 0
1, 212692, Note_on_c, 0, 44, 0
1, 212856, Note_on_c, 0, 59, 91
1, 212859, Note_on_c, 0, 47, 87
1, 212862, Note_on_c, 0, 75, 77
1, 212862, Note_on_c, 0, 63, 86
1, 212869, Note_on_c, 0, 71, 80
1, 212879, Note_on_c, 0, 59, 0
1, 212883, Note_on_c, 0, 51, 27
1, 212886, Note_on_c, 0, 47, 0
1, 212900, Note_on_c, 0, 75, 0
1, 212900, Note_on_c, 0, 63, 0
1, 212904, Note_on_c, 0, 71, 0
1, 212937, Note_on_c, 0, 51, 0
1, 212956, Note_on_c, 0, 63, 89
1, 212956, Note_on_c, 0, 58, 78
1, 212961, Note_on_c, 0, 75, 62
1, 212966, Note_on_c, 0, 70, 68
1, 213007, Note_on_c, 0, 75, 0
1, 213007, Note_on_c, 0, 70, 0
1, 213014, Note_on_c, 0, 58, 0
1, 213023, Control_c, 0, 64, 0
1, 213035, Note_on_c, 0, 63, 0
1, 213059, Note_on_c, 0, 56, 90
1, 213070, Note_on_c, 0, 51, 90
1, 213070, Note_on_c, 0, 75, 62
1, 213070, Note_on_c, 0, 68, 81
1, 213084, Note_on_c, 0, 44, 59
1, 213099, Note_on_c, 0, 51, 0
1, 213104, Note_on_c, 0, 68, 0
1, 213121, Note_on_c, 0, 44, 0
1, 213126, Note_on_c, 0, 56, 0
1, 213131, Control_c, 0, 64, 127
1, 213157, Note_on_c, 0, 75, 0
1, 213388, Note_on_c, 0, 87, 97
1, 213388, Note_on_c, 0, 44, 96
1, 213388, Note_on_c, 0, 32, 90
1, 213392, Note_on_c, 0, 99, 101
1, 213392, Note_on_c, 0, 92, 88
1, 213411, Note_on_c, 0, 39, 64
1, 213424, Note_on_c, 0, 32, 0
1, 213443, Note_on_c, 0, 39, 0
1, 213468, Note_on_c, 0, 44, 0
1, 213552, Note_on_c, 0, 87, 0
1, 213602, Note_on_c, 0, 92, 0
1, 213611, Note_on_c, 0, 99, 0
1, 213998, Note_on_c, 0, 56, 87
1, 213998, Note_on_c, 0, 99, 90
1, 214002, Note_on_c, 0, 87, 87
1, 214002, Note_on_c, 0, 44, 84
1, 214002, Note_on_c, 0, 92, 79
1, 214014, Note_on_c, 0, 51, 72
1, 214035, Note_on_c, 0, 44, 0
1, 214045, Note_on_c, 0, 51, 0
1, 214073, Note_on_c, 0, 56, 0
1, 214107, Note_on_c, 0, 87, 0
1, 214112, Note_on_c, 0, 99, 0
1, 214137, Note_on_c, 0, 92, 0
1, 214282, Note_on_c, 0, 99, 88
1, 214282, Note_on_c, 0, 68, 88
1, 214282, Note_on_c, 0, 87, 84
1, 214282, Note_on_c, 0, 92, 76
1, 214294, Note_on_c, 0, 56, 61
1, 214307, Note_on_c, 0, 68, 0
1, 214336, Note_on_c, 0, 56, 0
1, 214388, Note_on_c, 0, 87, 0
1, 214402, Note_on_c, 0, 92, 0
1, 214415, Note_on_c, 0, 99, 0
1, 214541, Note_on_c, 0, 99, 81
1, 214541, Note_on_c, 0, 92, 73
1, 214541, Note_on_c, 0, 80, 89
1, 214541, Note_on_c, 0, 87, 75
1, 214552, Note_on_c, 0, 75, 73
1, 214556, Note_on_c, 0, 68, 60
1, 214566, Note_on_c, 0, 80, 0
1, 214578, Note_on_c, 0, 75, 0
1, 214592, Note_on_c, 0, 68, 0
1, 214645, Note_on_c, 0, 87, 0
1, 214670, Note_on_c, 0, 92, 0
1, 214678, Note_on_c, 0, 99, 0
1, 214751, Note_on_c, 0, 68, 81
1, 214758, Note_on_c, 0, 56, 79
1, 214758, Note_on_c, 0, 99, 64
1, 214758, Note_on_c, 0, 87, 75
1, 214761, Note_on_c, 0, 92, 67
1, 214776, Note_on_c, 0, 68, 0
1, 214776, Note_on_c, 0, 63, 34
1, 214786, Note_on_c, 0, 56, 0
1, 214826, Note_on_c, 0, 63, 0
1, 214850, Note_on_c, 0, 87, 0
1, 214865, Note_on_c, 0, 92, 0
1, 214881, Note_on_c, 0, 99, 0
1, 214965, Note_on_c, 0, 56, 75
1, 214968, Note_on_c, 0, 44, 88
1, 214971, Note_on_c, 0, 92, 70
1, 214971, Note_on_c, 0, 51, 69
1, 214975, Note_on_c, 0, 87, 70
1, 214975, Note_on_c, 0, 99, 68
1, 214993, Note_on_c, 0, 44, 0
1, 214996, Note_on_c, 0, 56, 0
1, 215004, Note_on_c, 0, 51, 0
1, 215068, Note_on_c, 0, 87, 0
1, 215084, Note_on_c, 0, 92, 0
1, 215104, Note_on_c, 0, 99, 0
1, 215262, Note_on_c, 0, 99, 90
1, 215265, Note_on_c, 0, 87, 84
1, 215265, Note_on_c, 0, 32, 90
1, 215268, Note_on_c, 0, 44, 93
1, 215268, Note_on_c, 0, 92, 74
1, 215283, Note_on_c, 0, 39, 56
1, 215293, Note_on_c, 0, 32, 0
1, 215299, Note_on_c, 0, 44, 0
1, 215316, Note_on_c, 0, 39, 0
1, 215330, Note_on_c, 0, 99, 0
1, 215340, Note_on_c, 0, 87, 0
1, 215357, Note_on_c, 0, 92, 0
1, 215987, Note_on_c, 0, 68, 90
1, 215991, Note_on_c, 0, 56, 89
1, 215991, Note_on_c, 0, 63, 97
1, 215991, Note_on_c, 0, 59, 99
1, 215996, Note_on_c, 0, 44, 91
1, 216007, Note_on_c, 0, 51, 69
1, 216202, Note_on_c, 0, 56, 0
1, 216213, Note_on_c, 0, 59, 0
1, 216247, Note_on_c, 0, 51, 0
1, 216268, Note_on_c, 0, 44, 0
1, 216285, Note_on_c, 0, 63, 0
1, 216327, Note_on_c, 0, 68, 0
1, 216985, Note_on_c, 0, 92, 93
1, 216988, Note_on_c, 0, 71, 99
1, 216988, Note_on_c, 0, 80, 92
1, 216993, Note_on_c, 0, 87, 78
1, 216993, Note_on_c, 0, 83, 108
1, 216993, Note_on_c, 0, 68, 76
1, 216996, Note_on_c, 0, 59, 80
1, 217003, Note_on_c, 0, 63, 81
1, 219240, Note_on_c, 0, 83, 0
1, 219255, Note_on_c, 0, 59, 0
1, 219265, Note_on_c, 0, 92, 0
1, 219269, Note_on_c, 0, 80, 0
1, 219283, Note_on_c, 0, 87, 0
1, 219286, Note_on_c, 0, 71, 0
1, 219291, Note_on_c, 0, 63, 0
1, 219297, Note_on_c, 0, 68, 0
1, 219639, Control_c, 0, 64, 0
1, 221137, End_track
0, 0, End_of_file
