0, 0, Header, 1, 2, 384
1, 0, Start_track
1, 0, Title_t, "--------"
1, 0, Time_signature, 3, 2, 24, 8
1, 0, Key_signature, 0, "major"
1, 0, Tempo, 759494
1, 0, End_track
2, 0, Start_track
2, 0, Title_t, "piano"
2, 0, Program_c, 0, 0
2, 0, Control_c, 0, 7, 100
2, 1143, Control_c, 0, 67, 127
2, 1230, Control_c, 0, 64, 127
2, 1233, Note_on_c, 0, 55, 105
2, 1240, Note_on_c, 0, 31, 97
2, 1244, Note_on_c, 0, 55, 0
2, 1245, Note_on_c, 0, 43, 84
2, 1252, Note_on_c, 0, 31, 0
2, 1258, Note_on_c, 0, 43, 0
2, 1271, Note_on_c, 0, 55, 89
2, 1299, Note_on_c, 0, 55, 0
2, 1328, Note_on_c, 0, 55, 97
2, 1352, Control_c, 0, 67, 0
2, 1358, Note_on_c, 0, 55, 0
2, 1378, Note_on_c, 0, 64, 100
2, 1384, Note_on_c, 0, 40, 98
2, 1384, Note_on_c, 0, 52, 97
2, 1395, Note_on_c, 0, 40, 0
2, 1396, Note_on_c, 0, 52, 0
2, 1401, Control_c, 0, 64, 0
2, 1410, Note_on_c, 0, 64, 0
2, 1611, Note_on_c, 0, 57, 114
2, 1613, Note_on_c, 0, 33, 100
2, 1614, Note_on_c, 0, 45, 98
2, 1623, Note_on_c, 0, 33, 0
2, 1625, Note_on_c, 0, 45, 0
2, 1643, Note_on_c, 0, 57, 0
2, 1843, Control_c, 0, 64, 127
2, 1846, Note_on_c, 0, 64, 111
2, 1848, Note_on_c, 0, 40, 99
2, 1848, Note_on_c, 0, 52, 106
2, 1859, Note_on_c, 0, 52, 0
2, 1859, Note_on_c, 0, 40, 0
2, 1889, Note_on_c, 0, 64, 0
2, 2425, Control_c, 0, 64, 0
2, 2483, Note_on_c, 0, 57, 97
2, 2488, Note_on_c, 0, 33, 81
2, 2493, Note_on_c, 0, 45, 72
2, 2495, Note_on_c, 0, 57, 0
2, 2501, Note_on_c, 0, 33, 0
2, 2502, Control_c, 0, 64, 127
2, 2507, Note_on_c, 0, 45, 0
2, 2523, Note_on_c, 0, 57, 93
2, 2538, Note_on_c, 0, 57, 0
2, 2574, Note_on_c, 0, 57, 98
2, 2609, Note_on_c, 0, 57, 0
2, 2619, Note_on_c, 0, 52, 92
2, 2620, Note_on_c, 0, 64, 98
2, 2622, Control_c, 0, 64, 0
2, 2622, Note_on_c, 0, 40, 83
2, 2632, Note_on_c, 0, 52, 0
2, 2633, Note_on_c, 0, 64, 0
2, 2634, Note_on_c, 0, 40, 0
2, 2832, Note_on_c, 0, 58, 108
2, 2835, Note_on_c, 0, 34, 92
2, 2841, Note_on_c, 0, 46, 99
2, 2850, Note_on_c, 0, 34, 0
2, 2851, Note_on_c, 0, 46, 0
2, 2858, Note_on_c, 0, 58, 0
2, 3055, Note_on_c, 0, 40, 110
2, 3056, Note_on_c, 0, 52, 117
2, 3056, Note_on_c, 0, 64, 116
2, 3057, Control_c, 0, 64, 127
2, 3066, Note_on_c, 0, 52, 0
2, 3068, Note_on_c, 0, 40, 0
2, 3094, Note_on_c, 0, 64, 0
2, 3638, Control_c, 0, 64, 0
2, 3638, Control_c, 0, 67, 127
2, 3703, Note_on_c, 0, 58, 100
2, 3704, Note_on_c, 0, 34, 89
2, 3709, Note_on_c, 0, 46, 72
2, 3719, Note_on_c, 0, 34, 0
2, 3722, Note_on_c, 0, 46, 0
2, 3722, Control_c, 0, 64, 127
2, 3723, Note_on_c, 0, 58, 0
2, 3759, Note_on_c, 0, 58, 66
2, 3777, Note_on_c, 0, 58, 0
2, 3804, Note_on_c, 0, 58, 90
2, 3819, Control_c, 0, 64, 0
2, 3824, Control_c, 0, 67, 0
2, 3828, Note_on_c, 0, 58, 0
2, 3845, Control_c, 0, 64, 127
2, 3857, Note_on_c, 0, 40, 91
2, 3860, Note_on_c, 0, 64, 105
2, 3870, Note_on_c, 0, 40, 0
2, 3893, Note_on_c, 0, 64, 0
2, 4007, Control_c, 0, 64, 0
2, 4040, Note_on_c, 0, 59, 98
2, 4046, Note_on_c, 0, 47, 90
2, 4047, Note_on_c, 0, 35, 81
2, 4052, Note_on_c, 0, 59, 0
2, 4059, Note_on_c, 0, 47, 0
2, 4060, Control_c, 0, 64, 127
2, 4062, Note_on_c, 0, 35, 0
2, 4077, Note_on_c, 0, 59, 99
2, 4093, Note_on_c, 0, 59, 0
2, 4127, Note_on_c, 0, 59, 91
2, 4128, Control_c, 0, 64, 0
2, 4161, Note_on_c, 0, 59, 0
2, 4167, Control_c, 0, 64, 127
2, 4175, Note_on_c, 0, 68, 101
2, 4179, Note_on_c, 0, 44, 108
2, 4183, Note_on_c, 0, 56, 84
2, 4196, Note_on_c, 0, 56, 0
2, 4200, Note_on_c, 0, 68, 0
2, 4209, Note_on_c, 0, 44, 0
2, 4318, Control_c, 0, 64, 0
2, 4343, Note_on_c, 0, 64, 102
2, 4352, Note_on_c, 0, 52, 95
2, 4352, Note_on_c, 0, 40, 97
2, 4353, Note_on_c, 0, 64, 0
2, 4357, Control_c, 0, 64, 127
2, 4362, Note_on_c, 0, 40, 0
2, 4364, Note_on_c, 0, 52, 0
2, 4382, Note_on_c, 0, 64, 98
2, 4394, Note_on_c, 0, 64, 0
2, 4425, Note_on_c, 0, 64, 92
2, 4429, Control_c, 0, 64, 0
2, 4454, Note_on_c, 0, 64, 0
2, 4465, Control_c, 0, 64, 127
2, 4471, Note_on_c, 0, 59, 99
2, 4471, Note_on_c, 0, 47, 111
2, 4473, Note_on_c, 0, 71, 108
2, 4482, Note_on_c, 0, 47, 0
2, 4484, Note_on_c, 0, 59, 0
2, 4496, Note_on_c, 0, 71, 0
2, 4612, Control_c, 0, 64, 0
2, 4636, Note_on_c, 0, 68, 93
2, 4648, Note_on_c, 0, 44, 103
2, 4651, Control_c, 0, 64, 127
2, 4651, Note_on_c, 0, 56, 101
2, 4661, Note_on_c, 0, 44, 0
2, 4663, Note_on_c, 0, 56, 0
2, 4665, Note_on_c, 0, 68, 0
2, 4675, Note_on_c, 0, 68, 46
2, 4699, Note_on_c, 0, 68, 0
2, 4726, Note_on_c, 0, 68, 102
2, 4736, Control_c, 0, 64, 0
2, 4739, Note_on_c, 0, 68, 0
2, 4763, Control_c, 0, 64, 127
2, 4765, Note_on_c, 0, 52, 94
2, 4767, Note_on_c, 0, 76, 102
2, 4767, Note_on_c, 0, 64, 81
2, 4778, Note_on_c, 0, 52, 0
2, 4781, Note_on_c, 0, 64, 0
2, 4806, Note_on_c, 0, 76, 0
2, 4904, Control_c, 0, 64, 0
2, 4930, Note_on_c, 0, 71, 87
2, 4936, Note_on_c, 0, 47, 102
2, 4937, Note_on_c, 0, 59, 105
2, 4940, Control_c, 0, 64, 127
2, 4944, Note_on_c, 0, 71, 0
2, 4947, Note_on_c, 0, 59, 0
2, 4947, Note_on_c, 0, 47, 0
2, 4967, Note_on_c, 0, 71, 105
2, 4977, Note_on_c, 0, 71, 0
2, 5006, Note_on_c, 0, 71, 92
2, 5009, Control_c, 0, 64, 0
2, 5042, Note_on_c, 0, 71, 0
2, 5045, Control_c, 0, 64, 127
2, 5053, Note_on_c, 0, 80, 110
2, 5054, Note_on_c, 0, 68, 115
2, 5057, Note_on_c, 0, 56, 104
2, 5065, Note_on_c, 0, 68, 0
2, 5068, Note_on_c, 0, 56, 0
2, 5087, Note_on_c, 0, 80, 0
2, 5179, Control_c, 0, 64, 0
2, 5239, Control_c, 0, 64, 127
2, 5241, Note_on_c, 0, 76, 103
2, 5244, Note_on_c, 0, 52, 107
2, 5248, Note_on_c, 0, 64, 83
2, 5261, Note_on_c, 0, 64, 0
2, 5261, Note_on_c, 0, 52, 0
2, 5271, Note_on_c, 0, 76, 0
2, 5396, Control_c, 0, 64, 0
2, 5430, Note_on_c, 0, 71, 107
2, 5433, Note_on_c, 0, 47, 108
2, 5436, Note_on_c, 0, 59, 92
2, 5441, Control_c, 0, 64, 127
2, 5446, Note_on_c, 0, 47, 0
2, 5449, Note_on_c, 0, 59, 0
2, 5462, Note_on_c, 0, 71, 0
2, 5591, Control_c, 0, 64, 0
2, 5623, Note_on_c, 0, 68, 111
2, 5627, Note_on_c, 0, 44, 105
2, 5628, Note_on_c, 0, 56, 101
2, 5633, Control_c, 0, 64, 127
2, 5639, Note_on_c, 0, 56, 0
2, 5654, Note_on_c, 0, 44, 0
2, 5662, Note_on_c, 0, 68, 0
2, 5785, Control_c, 0, 64, 0
2, 5821, Note_on_c, 0, 64, 111
2, 5824, Note_on_c, 0, 40, 103
2, 5828, Note_on_c, 0, 52, 87
2, 5831, Control_c, 0, 64, 127
2, 5841, Note_on_c, 0, 52, 0
2, 5841, Note_on_c, 0, 40, 0
2, 5853, Note_on_c, 0, 64, 0
2, 5980, Control_c, 0, 64, 0
2, 6030, Note_on_c, 0, 59, 105
2, 6032, Note_on_c, 0, 35, 99
2, 6032, Note_on_c, 0, 47, 110
2, 6041, Control_c, 0, 64, 127
2, 6043, Note_on_c, 0, 47, 0
2, 6043, Note_on_c, 0, 35, 0
2, 6058, Note_on_c, 0, 59, 0
2, 6191, Control_c, 0, 64, 0
2, 6295, Note_on_c, 0, 80, 98
2, 6307, Note_on_c, 0, 40, 101
2, 6308, Note_on_c, 0, 52, 114
2, 6311, Note_on_c, 0, 68, 101
2, 6311, Control_c, 0, 64, 127
2, 6317, Note_on_c, 0, 52, 0
2, 6317, Note_on_c, 0, 40, 0
2, 6340, Note_on_c, 0, 68, 0
2, 6357, Note_on_c, 0, 80, 0
2, 6374, Note_on_c, 0, 71, 99
2, 6399, Note_on_c, 0, 71, 0
2, 6411, Note_on_c, 0, 76, 92
2, 6431, Note_on_c, 0, 76, 0
2, 6670, Note_on_c, 0, 85, 102
2, 6671, Note_on_c, 0, 73, 97
2, 6676, Note_on_c, 0, 58, 90
2, 6678, Note_on_c, 0, 64, 95
2, 6683, Control_c, 0, 64, 0
2, 6683, Note_on_c, 0, 55, 77
2, 6688, Note_on_c, 0, 58, 0
2, 6690, Note_on_c, 0, 64, 0
2, 6697, Note_on_c, 0, 55, 0
2, 6698, Note_on_c, 0, 73, 0
2, 6699, Note_on_c, 0, 85, 0
2, 6727, Note_on_c, 0, 85, 116
2, 6729, Note_on_c, 0, 73, 97
2, 6732, Note_on_c, 0, 64, 91
2, 6733, Note_on_c, 0, 58, 92
2, 6733, Note_on_c, 0, 55, 84
2, 6745, Note_on_c, 0, 55, 0
2, 6745, Note_on_c, 0, 64, 0
2, 6746, Control_c, 0, 64, 127
2, 6747, Note_on_c, 0, 58, 0
2, 6936, Note_on_c, 0, 58, 90
2, 6938, Note_on_c, 0, 64, 93
2, 6939, Note_on_c, 0, 55, 93
2, 6947, Note_on_c, 0, 58, 0
2, 6950, Note_on_c, 0, 64, 0
2, 6952, Note_on_c, 0, 55, 0
2, 7097, Note_on_c, 0, 85, 0
2, 7102, Note_on_c, 0, 56, 108
2, 7103, Note_on_c, 0, 64, 110
2, 7105, Control_c, 0, 64, 0
2, 7105, Note_on_c, 0, 59, 106
2, 7114, Note_on_c, 0, 64, 0
2, 7116, Note_on_c, 0, 59, 0
2, 7120, Note_on_c, 0, 73, 0
2, 7126, Note_on_c, 0, 56, 0
2, 7290, Note_on_c, 0, 83, 106
2, 7294, Note_on_c, 0, 71, 110
2, 7312, Note_on_c, 0, 71, 0
2, 7318, Note_on_c, 0, 83, 0
2, 7470, Note_on_c, 0, 80, 99
2, 7471, Note_on_c, 0, 52, 108
2, 7472, Note_on_c, 0, 68, 104
2, 7475, Control_c, 0, 64, 127
2, 7475, Note_on_c, 0, 40, 99
2, 7482, Note_on_c, 0, 52, 0
2, 7485, Note_on_c, 0, 40, 0
2, 7499, Note_on_c, 0, 68, 0
2, 7499, Note_on_c, 0, 80, 0
2, 7527, Note_on_c, 0, 71, 98
2, 7561, Note_on_c, 0, 71, 0
2, 7576, Note_on_c, 0, 76, 93
2, 7608, Note_on_c, 0, 76, 0
2, 7765, Note_on_c, 0, 85, 103
2, 7766, Note_on_c, 0, 73, 102
2, 7769, Note_on_c, 0, 58, 94
2, 7774, Note_on_c, 0, 55, 79
2, 7775, Note_on_c, 0, 64, 67
2, 7781, Note_on_c, 0, 58, 0
2, 7783, Control_c, 0, 64, 0
2, 7788, Note_on_c, 0, 55, 0
2, 7791, Note_on_c, 0, 64, 0
2, 7791, Note_on_c, 0, 73, 0
2, 7793, Note_on_c, 0, 85, 0
2, 7819, Note_on_c, 0, 73, 101
2, 7819, Note_on_c, 0, 85, 110
2, 7820, Note_on_c, 0, 64, 93
2, 7820, Note_on_c, 0, 58, 98
2, 7820, Note_on_c, 0, 55, 91
2, 7833, Note_on_c, 0, 55, 0
2, 7833, Note_on_c, 0, 64, 0
2, 7835, Note_on_c, 0, 58, 0
2, 7849, Control_c, 0, 64, 127
2, 8012, Note_on_c, 0, 58, 94
2, 8014, Note_on_c, 0, 64, 92
2, 8016, Note_on_c, 0, 55, 91
2, 8022, Note_on_c, 0, 58, 0
2, 8026, Note_on_c, 0, 64, 0
2, 8027, Note_on_c, 0, 55, 0
2, 8182, Note_on_c, 0, 56, 111
2, 8184, Note_on_c, 0, 64, 111
2, 8186, Note_on_c, 0, 59, 107
2, 8192, Control_c, 0, 64, 0
2, 8193, Note_on_c, 0, 64, 0
2, 8196, Note_on_c, 0, 85, 0
2, 8196, Note_on_c, 0, 59, 0
2, 8204, Note_on_c, 0, 56, 0
2, 8209, Note_on_c, 0, 73, 0
2, 8360, Note_on_c, 0, 83, 98
2, 8362, Note_on_c, 0, 71, 105
2, 8379, Note_on_c, 0, 83, 0
2, 8387, Note_on_c, 0, 71, 0
2, 8537, Note_on_c, 0, 52, 117
2, 8538, Control_c, 0, 64, 127
2, 8538, Note_on_c, 0, 40, 100
2, 8540, Note_on_c, 0, 80, 98
2, 8541, Note_on_c, 0, 68, 99
2, 8546, Note_on_c, 0, 52, 0
2, 8548, Note_on_c, 0, 40, 0
2, 8574, Note_on_c, 0, 68, 0
2, 8626, Note_on_c, 0, 80, 0
2, 8628, Note_on_c, 0, 71, 88
2, 8696, Note_on_c, 0, 71, 0
2, 8709, Note_on_c, 0, 76, 82
2, 8733, Note_on_c, 0, 76, 0
2, 8794, Note_on_c, 0, 58, 96
2, 8797, Note_on_c, 0, 64, 95
2, 8797, Note_on_c, 0, 85, 107
2, 8798, Note_on_c, 0, 55, 84
2, 8805, Note_on_c, 0, 58, 0
2, 8805, Note_on_c, 0, 73, 66
2, 8808, Note_on_c, 0, 64, 0
2, 8812, Note_on_c, 0, 55, 0
2, 8819, Note_on_c, 0, 73, 0
2, 8824, Note_on_c, 0, 85, 0
2, 8825, Control_c, 0, 64, 0
2, 8879, Note_on_c, 0, 83, 99
2, 8880, Note_on_c, 0, 56, 112
2, 8882, Note_on_c, 0, 64, 99
2, 8883, Note_on_c, 0, 59, 99
2, 8883, Note_on_c, 0, 71, 101
2, 8892, Note_on_c, 0, 56, 0
2, 8893, Note_on_c, 0, 64, 0
2, 8895, Note_on_c, 0, 59, 0
2, 8900, Note_on_c, 0, 71, 0
2, 8902, Control_c, 0, 64, 127
2, 8960, Note_on_c, 0, 76, 89
2, 8967, Note_on_c, 0, 83, 0
2, 9000, Note_on_c, 0, 76, 0
2, 9016, Note_on_c, 0, 80, 88
2, 9022, Note_on_c, 0, 56, 97
2, 9022, Note_on_c, 0, 64, 100
2, 9024, Note_on_c, 0, 59, 92
2, 9032, Note_on_c, 0, 80, 0
2, 9036, Note_on_c, 0, 56, 0
2, 9037, Note_on_c, 0, 64, 0
2, 9037, Note_on_c, 0, 59, 0
2, 9092, Note_on_c, 0, 90, 98
2, 9095, Note_on_c, 0, 78, 91
2, 9111, Note_on_c, 0, 78, 0
2, 9123, Note_on_c, 0, 90, 0
2, 9138, Control_c, 0, 64, 0
2, 9172, Note_on_c, 0, 52, 99
2, 9173, Note_on_c, 0, 59, 101
2, 9173, Note_on_c, 0, 88, 95
2, 9176, Note_on_c, 0, 76, 100
2, 9182, Note_on_c, 0, 56, 34
2, 9185, Note_on_c, 0, 59, 0
2, 9192, Note_on_c, 0, 56, 0
2, 9193, Note_on_c, 0, 76, 0
2, 9196, Note_on_c, 0, 52, 0
2, 9196, Control_c, 0, 64, 127
2, 9208, Note_on_c, 0, 88, 0
2, 9247, Note_on_c, 0, 80, 99
2, 9287, Note_on_c, 0, 80, 0
2, 9313, Note_on_c, 0, 83, 101
2, 9318, Note_on_c, 0, 56, 102
2, 9322, Note_on_c, 0, 64, 74
2, 9322, Note_on_c, 0, 59, 89
2, 9329, Note_on_c, 0, 83, 0
2, 9335, Note_on_c, 0, 56, 0
2, 9335, Note_on_c, 0, 59, 0
2, 9337, Note_on_c, 0, 64, 0
2, 9396, Note_on_c, 0, 93, 106
2, 9398, Note_on_c, 0, 81, 91
2, 9410, Note_on_c, 0, 93, 0
2, 9413, Note_on_c, 0, 81, 0
2, 9418, Control_c, 0, 64, 0
2, 9503, Note_on_c, 0, 80, 94
2, 9505, Note_on_c, 0, 87, 96
2, 9505, Note_on_c, 0, 36, 101
2, 9505, Note_on_c, 0, 48, 106
2, 9513, Control_c, 0, 64, 127
2, 9515, Note_on_c, 0, 48, 0
2, 9516, Note_on_c, 0, 36, 0
2, 9531, Note_on_c, 0, 80, 0
2, 9539, Note_on_c, 0, 87, 0
2, 9555, Note_on_c, 0, 93, 107
2, 9592, Note_on_c, 0, 93, 0
2, 9613, Note_on_c, 0, 80, 91
2, 9616, Note_on_c, 0, 87, 82
2, 9634, Note_on_c, 0, 87, 0
2, 9635, Note_on_c, 0, 80, 0
2, 9657, Note_on_c, 0, 93, 100
2, 9678, Note_on_c, 0, 93, 0
2, 9698, Note_on_c, 0, 87, 92
2, 9698, Note_on_c, 0, 80, 91
2, 9705, Note_on_c, 0, 68, 99
2, 9707, Note_on_c, 0, 63, 97
2, 9713, Note_on_c, 0, 56, 66
2, 9717, Note_on_c, 0, 68, 0
2, 9718, Note_on_c, 0, 63, 0
2, 9726, Note_on_c, 0, 87, 0
2, 9727, Note_on_c, 0, 80, 0
2, 9729, Note_on_c, 0, 56, 0
2, 9752, Note_on_c, 0, 93, 95
2, 9765, Note_on_c, 0, 93, 0
2, 9779, Note_on_c, 0, 87, 102
2, 9781, Note_on_c, 0, 80, 82
2, 9783, Note_on_c, 0, 68, 102
2, 9785, Note_on_c, 0, 63, 102
2, 9795, Note_on_c, 0, 68, 0
2, 9796, Note_on_c, 0, 63, 0
2, 9798, Note_on_c, 0, 56, 34
2, 9800, Note_on_c, 0, 80, 0
2, 9810, Note_on_c, 0, 56, 0
2, 9812, Note_on_c, 0, 87, 0
2, 9819, Control_c, 0, 64, 0
2, 9824, Note_on_c, 0, 93, 103
2, 9850, Note_on_c, 0, 92, 124
2, 9851, Note_on_c, 0, 56, 90
2, 9851, Note_on_c, 0, 87, 91
2, 9853, Note_on_c, 0, 80, 99
2, 9854, Note_on_c, 0, 68, 102
2, 9857, Note_on_c, 0, 63, 90
2, 9860, Note_on_c, 0, 93, 0
2, 9863, Note_on_c, 0, 56, 0
2, 9865, Note_on_c, 0, 68, 0
2, 9869, Note_on_c, 0, 63, 0
2, 9878, Control_c, 0, 64, 127
2, 10058, Note_on_c, 0, 68, 97
2, 10059, Note_on_c, 0, 63, 97
2, 10066, Note_on_c, 0, 56, 76
2, 10069, Note_on_c, 0, 63, 0
2, 10070, Note_on_c, 0, 68, 0
2, 10081, Note_on_c, 0, 56, 0
2, 10205, Note_on_c, 0, 92, 0
2, 10224, Note_on_c, 0, 87, 0
2, 10235, Note_on_c, 0, 80, 0
2, 10235, Note_on_c, 0, 68, 107
2, 10237, Note_on_c, 0, 63, 103
2, 10237, Note_on_c, 0, 56, 108
2, 10244, Note_on_c, 0, 68, 0
2, 10247, Note_on_c, 0, 56, 0
2, 10247, Note_on_c, 0, 63, 0
2, 10423, Note_on_c, 0, 78, 108
2, 10423, Note_on_c, 0, 90, 102
2, 10446, Note_on_c, 0, 78, 0
2, 10452, Note_on_c, 0, 90, 0
2, 10467, Control_c, 0, 64, 0
2, 10597, Note_on_c, 0, 88, 73
2, 10597, Note_on_c, 0, 76, 90
2, 10600, Note_on_c, 0, 37, 98
2, 10604, Note_on_c, 0, 49, 96
2, 10607, Control_c, 0, 64, 127
2, 10611, Note_on_c, 0, 37, 0
2, 10613, Note_on_c, 0, 88, 0
2, 10616, Note_on_c, 0, 49, 0
2, 10631, Note_on_c, 0, 76, 0
2, 10646, Note_on_c, 0, 78, 101
2, 10676, Note_on_c, 0, 78, 0
2, 10697, Note_on_c, 0, 76, 98
2, 10728, Note_on_c, 0, 76, 0
2, 10765, Note_on_c, 0, 64, 91
2, 10765, Note_on_c, 0, 58, 99
2, 10767, Note_on_c, 0, 87, 93
2, 10771, Note_on_c, 0, 75, 98
2, 10771, Note_on_c, 0, 55, 88
2, 10777, Note_on_c, 0, 58, 0
2, 10777, Note_on_c, 0, 64, 0
2, 10783, Note_on_c, 0, 75, 0
2, 10784, Note_on_c, 0, 87, 0
2, 10784, Note_on_c, 0, 55, 0
2, 10802, Control_c, 0, 64, 0
2, 10866, Note_on_c, 0, 85, 113
2, 10868, Note_on_c, 0, 73, 101
2, 10892, Note_on_c, 0, 73, 0
2, 10902, Note_on_c, 0, 85, 0
2, 10990, Note_on_c, 0, 39, 111
2, 10993, Note_on_c, 0, 83, 106
2, 10993, Note_on_c, 0, 51, 117
2, 10996, Note_on_c, 0, 71, 106
2, 11002, Note_on_c, 0, 51, 0
2, 11005, Note_on_c, 0, 39, 0
2, 11010, Control_c, 0, 64, 127
2, 11283, Note_on_c, 0, 66, 84
2, 11287, Note_on_c, 0, 59, 78
2, 11289, Note_on_c, 0, 57, 75
2, 11297, Note_on_c, 0, 66, 0
2, 11301, Note_on_c, 0, 59, 0
2, 11303, Note_on_c, 0, 57, 0
2, 11314, Control_c, 0, 64, 0
2, 11339, Note_on_c, 0, 66, 90
2, 11340, Note_on_c, 0, 71, 0
2, 11340, Note_on_c, 0, 59, 87
2, 11343, Note_on_c, 0, 57, 86
2, 11355, Note_on_c, 0, 57, 0
2, 11356, Note_on_c, 0, 59, 0
2, 11357, Note_on_c, 0, 83, 0
2, 11360, Note_on_c, 0, 66, 0
2, 11369, Control_c, 0, 64, 127
2, 11387, Note_on_c, 0, 66, 110
2, 11388, Note_on_c, 0, 59, 102
2, 11390, Note_on_c, 0, 57, 94
2, 11395, Note_on_c, 0, 66, 0
2, 11400, Note_on_c, 0, 59, 0
2, 11401, Note_on_c, 0, 57, 0
2, 11551, Note_on_c, 0, 90, 98
2, 11553, Note_on_c, 0, 78, 102
2, 11582, Note_on_c, 0, 78, 0
2, 11582, Note_on_c, 0, 90, 0
2, 11643, Control_c, 0, 64, 0
2, 11713, Note_on_c, 0, 37, 108
2, 11713, Note_on_c, 0, 76, 101
2, 11714, Note_on_c, 0, 88, 83
2, 11717, Note_on_c, 0, 49, 117
2, 11725, Note_on_c, 0, 37, 0
2, 11726, Note_on_c, 0, 49, 0
2, 11734, Control_c, 0, 64, 127
2, 11735, Note_on_c, 0, 88, 0
2, 11743, Note_on_c, 0, 76, 0
2, 11761, Note_on_c, 0, 78, 94
2, 11794, Note_on_c, 0, 78, 0
2, 11804, Note_on_c, 0, 76, 89
2, 11823, Note_on_c, 0, 76, 0
2, 11867, Note_on_c, 0, 75, 102
2, 11867, Note_on_c, 0, 87, 100
2, 11870, Note_on_c, 0, 58, 105
2, 11874, Note_on_c, 0, 55, 95
2, 11875, Note_on_c, 0, 64, 82
2, 11877, Control_c, 0, 64, 0
2, 11883, Note_on_c, 0, 58, 0
2, 11885, Note_on_c, 0, 55, 0
2, 11887, Note_on_c, 0, 64, 0
2, 11889, Note_on_c, 0, 75, 0
2, 11893, Note_on_c, 0, 87, 0
2, 11963, Note_on_c, 0, 85, 110
2, 11965, Note_on_c, 0, 73, 102
2, 11981, Note_on_c, 0, 73, 0
2, 11995, Note_on_c, 0, 85, 0
2, 12070, Note_on_c, 0, 39, 112
2, 12072, Note_on_c, 0, 71, 106
2, 12072, Note_on_c, 0, 51, 121
2, 12072, Note_on_c, 0, 83, 107
2, 12081, Note_on_c, 0, 51, 0
2, 12082, Note_on_c, 0, 39, 0
2, 12099, Control_c, 0, 64, 127
2, 12335, Note_on_c, 0, 66, 94
2, 12338, Note_on_c, 0, 59, 82
2, 12341, Note_on_c, 0, 57, 79
2, 12348, Note_on_c, 0, 66, 0
2, 12352, Note_on_c, 0, 59, 0
2, 12355, Note_on_c, 0, 57, 0
2, 12380, Control_c, 0, 64, 0
2, 12390, Note_on_c, 0, 59, 83
2, 12390, Note_on_c, 0, 66, 86
2, 12395, Note_on_c, 0, 57, 68
2, 12397, Note_on_c, 0, 83, 0
2, 12405, Note_on_c, 0, 66, 0
2, 12406, Note_on_c, 0, 59, 0
2, 12409, Note_on_c, 0, 57, 0
2, 12422, Control_c, 0, 64, 127
2, 12432, Note_on_c, 0, 66, 101
2, 12435, Note_on_c, 0, 71, 0
2, 12436, Note_on_c, 0, 59, 100
2, 12442, Note_on_c, 0, 57, 91
2, 12445, Note_on_c, 0, 66, 0
2, 12447, Note_on_c, 0, 59, 0
2, 12453, Note_on_c, 0, 57, 0
2, 12603, Note_on_c, 0, 78, 95
2, 12603, Note_on_c, 0, 81, 94
2, 12608, Note_on_c, 0, 71, 90
2, 12622, Note_on_c, 0, 71, 0
2, 12631, Control_c, 0, 64, 0
2, 12643, Note_on_c, 0, 81, 0
2, 12644, Note_on_c, 0, 78, 0
2, 12692, Note_on_c, 0, 41, 107
2, 12709, Note_on_c, 0, 41, 0
2, 12712, Note_on_c, 0, 53, 106
2, 12724, Note_on_c, 0, 53, 0
2, 12741, Note_on_c, 0, 80, 102
2, 12742, Note_on_c, 0, 71, 102
2, 12745, Note_on_c, 0, 74, 80
2, 12749, Control_c, 0, 64, 127
2, 12759, Note_on_c, 0, 74, 0
2, 12778, Note_on_c, 0, 80, 0
2, 12799, Note_on_c, 0, 81, 103
2, 12858, Note_on_c, 0, 80, 101
2, 12878, Note_on_c, 0, 81, 0
2, 12887, Note_on_c, 0, 68, 99
2, 12895, Note_on_c, 0, 59, 87
2, 12898, Note_on_c, 0, 68, 0
2, 12908, Note_on_c, 0, 59, 0
2, 12908, Note_on_c, 0, 80, 0
2, 12909, Note_on_c, 0, 71, 0
2, 12909, Note_on_c, 0, 79, 92
2, 12979, Note_on_c, 0, 79, 0
2, 12991, Note_on_c, 0, 80, 100
2, 13019, Control_c, 0, 64, 0
2, 13037, Note_on_c, 0, 80, 0
2, 13040, Note_on_c, 0, 69, 89
2, 13059, Note_on_c, 0, 73, 84
2, 13071, Note_on_c, 0, 73, 0
2, 13071, Note_on_c, 0, 69, 0
2, 13071, Note_on_c, 0, 78, 90
2, 13076, Note_on_c, 0, 42, 105
2, 13077, Note_on_c, 0, 54, 121
2, 13083, Control_c, 0, 64, 127
2, 13086, Note_on_c, 0, 54, 0
2, 13088, Note_on_c, 0, 42, 0
2, 13098, Note_on_c, 0, 83, 87
2, 13100, Note_on_c, 0, 78, 0
2, 13118, Note_on_c, 0, 83, 0
2, 13249, Note_on_c, 0, 66, 79
2, 13250, Note_on_c, 0, 61, 96
2, 13251, Note_on_c, 0, 81, 102
2, 13253, Note_on_c, 0, 57, 92
2, 13262, Note_on_c, 0, 66, 0
2, 13264, Note_on_c, 0, 61, 0
2, 13266, Note_on_c, 0, 57, 0
2, 13293, Note_on_c, 0, 81, 0
2, 13324, Note_on_c, 0, 78, 99
2, 13359, Note_on_c, 0, 78, 0
2, 13367, Control_c, 0, 64, 0
2, 13430, Note_on_c, 0, 36, 97
2, 13439, Note_on_c, 0, 48, 117
2, 13440, Note_on_c, 0, 70, 95
2, 13442, Note_on_c, 0, 36, 0
2, 13443, Note_on_c, 0, 76, 92
2, 13445, Note_on_c, 0, 67, 85
2, 13451, Note_on_c, 0, 48, 0
2, 13455, Control_c, 0, 64, 127
2, 13478, Note_on_c, 0, 76, 0
2, 13478, Note_on_c, 0, 78, 92
2, 13490, Note_on_c, 0, 70, 0
2, 13510, Note_on_c, 0, 67, 0
2, 13540, Note_on_c, 0, 76, 86
2, 13572, Note_on_c, 0, 78, 0
2, 13583, Note_on_c, 0, 76, 0
2, 13583, Note_on_c, 0, 55, 100
2, 13584, Note_on_c, 0, 58, 100
2, 13591, Note_on_c, 0, 75, 98
2, 13594, Note_on_c, 0, 55, 0
2, 13596, Note_on_c, 0, 58, 0
2, 13596, Note_on_c, 0, 64, 31
2, 13606, Note_on_c, 0, 64, 0
2, 13655, Note_on_c, 0, 75, 0
2, 13664, Control_c, 0, 64, 0
2, 13674, Note_on_c, 0, 76, 101
2, 13729, Note_on_c, 0, 76, 0
2, 13763, Note_on_c, 0, 35, 70
2, 13766, Note_on_c, 0, 47, 120
2, 13774, Note_on_c, 0, 80, 107
2, 13777, Note_on_c, 0, 69, 95
2, 13777, Note_on_c, 0, 75, 94
2, 13779, Note_on_c, 0, 35, 0
2, 13779, Control_c, 0, 64, 127
2, 13781, Note_on_c, 0, 47, 0
2, 13810, Note_on_c, 0, 69, 0
2, 13831, Note_on_c, 0, 80, 0
2, 13838, Note_on_c, 0, 75, 0
2, 13889, Note_on_c, 0, 78, 102
2, 13900, Note_on_c, 0, 69, 68
2, 13915, Note_on_c, 0, 69, 0
2, 13927, Note_on_c, 0, 78, 0
2, 13973, Note_on_c, 0, 78, 94
2, 13979, Note_on_c, 0, 63, 103
2, 13981, Note_on_c, 0, 54, 70
2, 13983, Note_on_c, 0, 69, 79
2, 13983, Note_on_c, 0, 57, 91
2, 13993, Note_on_c, 0, 63, 0
2, 13995, Note_on_c, 0, 57, 0
2, 13996, Note_on_c, 0, 54, 0
2, 13999, Note_on_c, 0, 69, 0
2, 14009, Note_on_c, 0, 78, 0
2, 14025, Control_c, 0, 64, 0
2, 14036, Note_on_c, 0, 75, 108
2, 14039, Note_on_c, 0, 63, 91
2, 14040, Note_on_c, 0, 54, 69
2, 14045, Note_on_c, 0, 57, 86
2, 14048, Note_on_c, 0, 69, 42
2, 14058, Note_on_c, 0, 57, 0
2, 14059, Note_on_c, 0, 63, 0
2, 14061, Note_on_c, 0, 54, 0
2, 14063, Note_on_c, 0, 69, 0
2, 14076, Control_c, 0, 64, 127
2, 14079, Note_on_c, 0, 75, 0
2, 14082, Note_on_c, 0, 54, 96
2, 14085, Note_on_c, 0, 63, 112
2, 14087, Note_on_c, 0, 73, 116
2, 14090, Note_on_c, 0, 75, 39
2, 14090, Note_on_c, 0, 57, 97
2, 14093, Note_on_c, 0, 69, 93
2, 14100, Note_on_c, 0, 57, 0
2, 14100, Note_on_c, 0, 63, 0
2, 14105, Note_on_c, 0, 75, 0
2, 14106, Note_on_c, 0, 69, 0
2, 14109, Note_on_c, 0, 54, 0
2, 14126, Note_on_c, 0, 73, 0
2, 14451, Note_on_c, 0, 71, 119
2, 14479, Note_on_c, 0, 71, 0
2, 14604, Control_c, 0, 64, 0
2, 14669, Note_on_c, 0, 71, 102
2, 14673, Note_on_c, 0, 54, 102
2, 14674, Note_on_c, 0, 51, 95
2, 14674, Note_on_c, 0, 57, 114
2, 14675, Note_on_c, 0, 47, 103
2, 14681, Control_c, 0, 64, 127
2, 14682, Note_on_c, 0, 54, 0
2, 14683, Note_on_c, 0, 57, 0
2, 14683, Note_on_c, 0, 59, 50
2, 14685, Note_on_c, 0, 51, 0
2, 14687, Note_on_c, 0, 47, 0
2, 14699, Note_on_c, 0, 59, 0
2, 14716, Note_on_c, 0, 63, 92
2, 14741, Note_on_c, 0, 71, 0
2, 14748, Note_on_c, 0, 63, 0
2, 14757, Note_on_c, 0, 66, 101
2, 14778, Note_on_c, 0, 66, 0
2, 14835, Control_c, 0, 64, 0
2, 14895, Note_on_c, 0, 80, 101
2, 14897, Note_on_c, 0, 68, 99
2, 14900, Note_on_c, 0, 52, 127
2, 14901, Note_on_c, 0, 40, 108
2, 14908, Note_on_c, 0, 52, 0
2, 14910, Note_on_c, 0, 40, 0
2, 14913, Control_c, 0, 64, 127
2, 14924, Note_on_c, 0, 68, 0
2, 14947, Note_on_c, 0, 80, 0
2, 14955, Note_on_c, 0, 71, 107
2, 14987, Note_on_c, 0, 71, 0
2, 15000, Note_on_c, 0, 76, 91
2, 15013, Note_on_c, 0, 76, 0
2, 15223, Note_on_c, 0, 58, 90
2, 15225, Note_on_c, 0, 85, 101
2, 15225, Note_on_c, 0, 64, 94
2, 15225, Note_on_c, 0, 73, 100
2, 15228, Control_c, 0, 64, 0
2, 15228, Note_on_c, 0, 55, 84
2, 15235, Note_on_c, 0, 58, 0
2, 15239, Note_on_c, 0, 85, 0
2, 15239, Note_on_c, 0, 64, 0
2, 15241, Note_on_c, 0, 55, 0
2, 15251, Note_on_c, 0, 73, 0
2, 15273, Note_on_c, 0, 55, 97
2, 15275, Note_on_c, 0, 85, 104
2, 15275, Note_on_c, 0, 64, 95
2, 15275, Note_on_c, 0, 58, 90
2, 15277, Note_on_c, 0, 73, 109
2, 15277, Control_c, 0, 64, 127
2, 15287, Note_on_c, 0, 55, 0
2, 15289, Note_on_c, 0, 64, 0
2, 15299, Note_on_c, 0, 58, 0
2, 15467, Note_on_c, 0, 58, 95
2, 15471, Note_on_c, 0, 64, 92
2, 15472, Note_on_c, 0, 55, 90
2, 15479, Note_on_c, 0, 58, 0
2, 15484, Note_on_c, 0, 64, 0
2, 15484, Note_on_c, 0, 55, 0
2, 15627, Control_c, 0, 64, 0
2, 15640, Note_on_c, 0, 85, 0
2, 15640, Note_on_c, 0, 56, 112
2, 15643, Note_on_c, 0, 59, 108
2, 15643, Note_on_c, 0, 64, 110
2, 15651, Note_on_c, 0, 64, 0
2, 15654, Note_on_c, 0, 59, 0
2, 15662, Note_on_c, 0, 56, 0
2, 15664, Note_on_c, 0, 73, 0
2, 15829, Note_on_c, 0, 83, 100
2, 15831, Note_on_c, 0, 71, 103
2, 15842, Note_on_c, 0, 83, 0
2, 15856, Note_on_c, 0, 71, 0
2, 16015, Note_on_c, 0, 68, 104
2, 16015, Note_on_c, 0, 80, 94
2, 16016, Note_on_c, 0, 40, 106
2, 16016, Note_on_c, 0, 52, 116
2, 16016, Control_c, 0, 64, 127
2, 16027, Note_on_c, 0, 40, 0
2, 16031, Note_on_c, 0, 52, 0
2, 16055, Note_on_c, 0, 68, 0
2, 16056, Note_on_c, 0, 80, 0
2, 16073, Note_on_c, 0, 71, 103
2, 16107, Note_on_c, 0, 71, 0
2, 16120, Note_on_c, 0, 76, 93
2, 16150, Note_on_c, 0, 76, 0
2, 16309, Note_on_c, 0, 58, 96
2, 16311, Note_on_c, 0, 64, 98
2, 16313, Note_on_c, 0, 85, 103
2, 16313, Note_on_c, 0, 55, 91
2, 16314, Note_on_c, 0, 73, 104
2, 16321, Note_on_c, 0, 58, 0
2, 16321, Control_c, 0, 64, 0
2, 16324, Note_on_c, 0, 64, 0
2, 16327, Note_on_c, 0, 55, 0
2, 16337, Note_on_c, 0, 85, 0
2, 16341, Note_on_c, 0, 73, 0
2, 16362, Note_on_c, 0, 73, 105
2, 16363, Note_on_c, 0, 55, 88
2, 16363, Note_on_c, 0, 85, 121
2, 16364, Note_on_c, 0, 58, 96
2, 16365, Note_on_c, 0, 64, 82
2, 16376, Note_on_c, 0, 55, 0
2, 16377, Control_c, 0, 64, 127
2, 16379, Note_on_c, 0, 64, 0
2, 16380, Note_on_c, 0, 58, 0
2, 16559, Note_on_c, 0, 64, 95
2, 16559, Note_on_c, 0, 58, 89
2, 16563, Note_on_c, 0, 55, 90
2, 16571, Note_on_c, 0, 58, 0
2, 16571, Note_on_c, 0, 64, 0
2, 16576, Note_on_c, 0, 55, 0
2, 16729, Note_on_c, 0, 56, 111
2, 16732, Note_on_c, 0, 64, 107
2, 16733, Note_on_c, 0, 59, 110
2, 16733, Control_c, 0, 64, 0
2, 16734, Note_on_c, 0, 85, 0
2, 16742, Note_on_c, 0, 64, 0
2, 16743, Note_on_c, 0, 59, 0
2, 16753, Note_on_c, 0, 56, 0
2, 16754, Note_on_c, 0, 73, 0
2, 16913, Note_on_c, 0, 83, 103
2, 16916, Note_on_c, 0, 71, 107
2, 16942, Note_on_c, 0, 83, 0
2, 16944, Note_on_c, 0, 71, 0
2, 17101, Note_on_c, 0, 40, 93
2, 17103, Note_on_c, 0, 80, 97
2, 17104, Note_on_c, 0, 68, 107
2, 17106, Note_on_c, 0, 52, 108
2, 17112, Control_c, 0, 64, 127
2, 17113, Note_on_c, 0, 40, 0
2, 17118, Note_on_c, 0, 52, 0
2, 17171, Note_on_c, 0, 68, 0
2, 17207, Note_on_c, 0, 71, 92
2, 17231, Note_on_c, 0, 80, 0
2, 17276, Note_on_c, 0, 71, 0
2, 17285, Note_on_c, 0, 76, 84
2, 17314, Note_on_c, 0, 76, 0
2, 17364, Control_c, 0, 64, 0
2, 17370, Note_on_c, 0, 58, 97
2, 17373, Note_on_c, 0, 85, 105
2, 17375, Note_on_c, 0, 64, 87
2, 17375, Note_on_c, 0, 55, 91
2, 17376, Note_on_c, 0, 73, 84
2, 17381, Note_on_c, 0, 58, 0
2, 17387, Note_on_c, 0, 55, 0
2, 17387, Note_on_c, 0, 64, 0
2, 17389, Note_on_c, 0, 85, 0
2, 17390, Note_on_c, 0, 73, 0
2, 17433, Control_c, 0, 64, 127
2, 17446, Note_on_c, 0, 83, 94
2, 17448, Note_on_c, 0, 71, 99
2, 17456, Note_on_c, 0, 56, 104
2, 17457, Note_on_c, 0, 64, 97
2, 17460, Note_on_c, 0, 59, 90
2, 17470, Note_on_c, 0, 56, 0
2, 17471, Note_on_c, 0, 64, 0
2, 17473, Note_on_c, 0, 59, 0
2, 17484, Note_on_c, 0, 71, 0
2, 17484, Note_on_c, 0, 83, 0
2, 17520, Note_on_c, 0, 76, 97
2, 17569, Note_on_c, 0, 76, 0
2, 17585, Note_on_c, 0, 80, 95
2, 17589, Note_on_c, 0, 56, 88
2, 17589, Note_on_c, 0, 64, 90
2, 17591, Note_on_c, 0, 59, 84
2, 17602, Note_on_c, 0, 64, 0
2, 17603, Note_on_c, 0, 56, 0
2, 17605, Note_on_c, 0, 59, 0
2, 17606, Note_on_c, 0, 80, 0
2, 17668, Note_on_c, 0, 90, 95
2, 17670, Note_on_c, 0, 78, 88
2, 17685, Note_on_c, 0, 78, 0
2, 17685, Control_c, 0, 64, 0
2, 17702, Note_on_c, 0, 90, 0
2, 17742, Note_on_c, 0, 52, 99
2, 17743, Note_on_c, 0, 88, 92
2, 17744, Note_on_c, 0, 76, 102
2, 17745, Note_on_c, 0, 59, 92
2, 17747, Control_c, 0, 64, 127
2, 17748, Note_on_c, 0, 56, 41
2, 17758, Note_on_c, 0, 59, 0
2, 17761, Note_on_c, 0, 56, 0
2, 17774, Note_on_c, 0, 52, 0
2, 17774, Note_on_c, 0, 88, 0
2, 17777, Note_on_c, 0, 76, 0
2, 17816, Note_on_c, 0, 80, 97
2, 17857, Note_on_c, 0, 80, 0
2, 17878, Note_on_c, 0, 83, 94
2, 17880, Note_on_c, 0, 59, 101
2, 17881, Note_on_c, 0, 56, 95
2, 17883, Note_on_c, 0, 64, 70
2, 17891, Note_on_c, 0, 83, 0
2, 17892, Note_on_c, 0, 59, 0
2, 17899, Note_on_c, 0, 64, 0
2, 17902, Note_on_c, 0, 56, 0
2, 17957, Note_on_c, 0, 93, 92
2, 17959, Note_on_c, 0, 81, 89
2, 17967, Control_c, 0, 64, 0
2, 17975, Note_on_c, 0, 81, 0
2, 17989, Note_on_c, 0, 93, 0
2, 18059, Note_on_c, 0, 80, 104
2, 18060, Note_on_c, 0, 36, 110
2, 18061, Note_on_c, 0, 48, 117
2, 18062, Note_on_c, 0, 87, 102
2, 18070, Note_on_c, 0, 36, 0
2, 18071, Control_c, 0, 64, 127
2, 18073, Note_on_c, 0, 48, 0
2, 18092, Note_on_c, 0, 80, 0
2, 18097, Note_on_c, 0, 87, 0
2, 18117, Note_on_c, 0, 93, 111
2, 18157, Note_on_c, 0, 93, 0
2, 18170, Note_on_c, 0, 87, 96
2, 18173, Note_on_c, 0, 80, 75
2, 18193, Note_on_c, 0, 80, 0
2, 18202, Note_on_c, 0, 87, 0
2, 18216, Note_on_c, 0, 93, 101
2, 18247, Note_on_c, 0, 93, 0
2, 18259, Note_on_c, 0, 80, 98
2, 18261, Note_on_c, 0, 87, 101
2, 18267, Note_on_c, 0, 68, 94
2, 18267, Note_on_c, 0, 63, 101
2, 18275, Note_on_c, 0, 56, 66
2, 18277, Note_on_c, 0, 63, 0
2, 18278, Note_on_c, 0, 68, 0
2, 18289, Note_on_c, 0, 80, 0
2, 18290, Note_on_c, 0, 56, 0
2, 18292, Note_on_c, 0, 87, 0
2, 18310, Note_on_c, 0, 93, 107
2, 18325, Note_on_c, 0, 93, 0
2, 18342, Note_on_c, 0, 87, 94
2, 18350, Note_on_c, 0, 80, 73
2, 18352, Note_on_c, 0, 63, 93
2, 18356, Note_on_c, 0, 68, 78
2, 18364, Note_on_c, 0, 63, 0
2, 18364, Note_on_c, 0, 80, 0
2, 18370, Note_on_c, 0, 68, 0
2, 18375, Note_on_c, 0, 87, 0
2, 18388, Control_c, 0, 64, 0
2, 18389, Note_on_c, 0, 93, 99
2, 18413, Note_on_c, 0, 56, 101
2, 18413, Note_on_c, 0, 68, 98
2, 18413, Note_on_c, 0, 92, 126
2, 18416, Note_on_c, 0, 63, 97
2, 18417, Note_on_c, 0, 80, 107
2, 18419, Note_on_c, 0, 87, 94
2, 18425, Note_on_c, 0, 63, 0
2, 18425, Note_on_c, 0, 68, 0
2, 18426, Note_on_c, 0, 56, 0
2, 18429, Note_on_c, 0, 93, 0
2, 18443, Control_c, 0, 64, 127
2, 18618, Note_on_c, 0, 68, 86
2, 18618, Note_on_c, 0, 63, 93
2, 18622, Note_on_c, 0, 56, 85
2, 18629, Note_on_c, 0, 63, 0
2, 18633, Note_on_c, 0, 68, 0
2, 18637, Note_on_c, 0, 56, 0
2, 18774, Note_on_c, 0, 92, 0
2, 18795, Control_c, 0, 64, 0
2, 18798, Note_on_c, 0, 87, 0
2, 18808, Note_on_c, 0, 68, 103
2, 18809, Note_on_c, 0, 56, 104
2, 18810, Note_on_c, 0, 63, 105
2, 18816, Control_c, 0, 64, 127
2, 18818, Note_on_c, 0, 68, 0
2, 18821, Note_on_c, 0, 63, 0
2, 18821, Note_on_c, 0, 56, 0
2, 18826, Note_on_c, 0, 80, 0
2, 18997, Note_on_c, 0, 90, 93
2, 19001, Note_on_c, 0, 78, 96
2, 19022, Note_on_c, 0, 78, 0
2, 19030, Note_on_c, 0, 90, 0
2, 19084, Control_c, 0, 64, 0
2, 19148, Control_c, 0, 67, 127
2, 19185, Note_on_c, 0, 88, 66
2, 19187, Note_on_c, 0, 37, 96
2, 19189, Note_on_c, 0, 76, 84
2, 19189, Note_on_c, 0, 49, 100
2, 19198, Note_on_c, 0, 37, 0
2, 19199, Control_c, 0, 64, 127
2, 19201, Note_on_c, 0, 49, 0
2, 19211, Note_on_c, 0, 88, 0
2, 19220, Note_on_c, 0, 76, 0
2, 19242, Note_on_c, 0, 78, 85
2, 19267, Note_on_c, 0, 78, 0
2, 19299, Note_on_c, 0, 76, 83
2, 19316, Note_on_c, 0, 76, 0
2, 19343, Control_c, 0, 67, 0
2, 19356, Note_on_c, 0, 58, 92
2, 19359, Note_on_c, 0, 55, 92
2, 19359, Note_on_c, 0, 64, 74
2, 19359, Note_on_c, 0, 87, 96
2, 19360, Note_on_c, 0, 75, 100
2, 19370, Note_on_c, 0, 58, 0
2, 19373, Note_on_c, 0, 55, 0
2, 19374, Note_on_c, 0, 64, 0
2, 19379, Note_on_c, 0, 75, 0
2, 19389, Note_on_c, 0, 87, 0
2, 19400, Control_c, 0, 64, 0
2, 19461, Note_on_c, 0, 85, 102
2, 19463, Note_on_c, 0, 73, 102
2, 19479, Note_on_c, 0, 85, 0
2, 19482, Note_on_c, 0, 73, 0
2, 19579, Note_on_c, 0, 39, 111
2, 19584, Note_on_c, 0, 51, 108
2, 19586, Note_on_c, 0, 83, 103
2, 19588, Note_on_c, 0, 71, 99
2, 19594, Note_on_c, 0, 51, 0
2, 19599, Control_c, 0, 64, 127
2, 19604, Note_on_c, 0, 39, 0
2, 19818, Note_on_c, 0, 71, 0
2, 19844, Note_on_c, 0, 54, 72
2, 19844, Note_on_c, 0, 66, 87
2, 19846, Note_on_c, 0, 59, 78
2, 19850, Note_on_c, 0, 83, 0
2, 19857, Note_on_c, 0, 54, 0
2, 19858, Note_on_c, 0, 66, 0
2, 19861, Note_on_c, 0, 59, 0
2, 19892, Note_on_c, 0, 54, 68
2, 19892, Note_on_c, 0, 66, 91
2, 19896, Note_on_c, 0, 59, 87
2, 19909, Note_on_c, 0, 59, 0
2, 19916, Note_on_c, 0, 54, 0
2, 19921, Note_on_c, 0, 66, 0
2, 19936, Note_on_c, 0, 66, 95
2, 19942, Note_on_c, 0, 54, 96
2, 19944, Note_on_c, 0, 59, 89
2, 19953, Note_on_c, 0, 66, 0
2, 19956, Note_on_c, 0, 59, 0
2, 19964, Note_on_c, 0, 54, 0
2, 20104, Note_on_c, 0, 90, 101
2, 20108, Note_on_c, 0, 78, 101
2, 20134, Note_on_c, 0, 78, 0
2, 20134, Note_on_c, 0, 90, 0
2, 20163, Control_c, 0, 64, 0
2, 20235, Note_on_c, 0, 37, 110
2, 20237, Note_on_c, 0, 49, 123
2, 20244, Note_on_c, 0, 37, 0
2, 20246, Note_on_c, 0, 49, 0
2, 20248, Note_on_c, 0, 76, 97
2, 20251, Note_on_c, 0, 88, 53
2, 20256, Control_c, 0, 64, 127
2, 20268, Note_on_c, 0, 88, 0
2, 20286, Note_on_c, 0, 76, 0
2, 20290, Note_on_c, 0, 78, 99
2, 20322, Note_on_c, 0, 78, 0
2, 20345, Note_on_c, 0, 76, 90
2, 20370, Note_on_c, 0, 76, 0
2, 20407, Note_on_c, 0, 58, 101
2, 20410, Note_on_c, 0, 55, 97
2, 20413, Note_on_c, 0, 64, 56
2, 20414, Note_on_c, 0, 75, 110
2, 20415, Note_on_c, 0, 87, 91
2, 20420, Note_on_c, 0, 58, 0
2, 20421, Note_on_c, 0, 55, 0
2, 20429, Note_on_c, 0, 64, 0
2, 20435, Note_on_c, 0, 75, 0
2, 20441, Note_on_c, 0, 87, 0
2, 20462, Control_c, 0, 64, 0
2, 20514, Note_on_c, 0, 85, 101
2, 20515, Note_on_c, 0, 73, 103
2, 20537, Note_on_c, 0, 73, 0
2, 20548, Note_on_c, 0, 85, 0
2, 20615, Note_on_c, 0, 39, 113
2, 20617, Note_on_c, 0, 51, 123
2, 20618, Note_on_c, 0, 83, 108
2, 20619, Note_on_c, 0, 71, 111
2, 20626, Note_on_c, 0, 51, 0
2, 20631, Note_on_c, 0, 39, 0
2, 20634, Control_c, 0, 64, 127
2, 20857, Note_on_c, 0, 66, 87
2, 20859, Note_on_c, 0, 59, 81
2, 20866, Note_on_c, 0, 54, 34
2, 20871, Note_on_c, 0, 66, 0
2, 20873, Note_on_c, 0, 59, 0
2, 20877, Note_on_c, 0, 54, 0
2, 20909, Note_on_c, 0, 54, 89
2, 20910, Note_on_c, 0, 66, 84
2, 20913, Note_on_c, 0, 59, 86
2, 20926, Note_on_c, 0, 59, 0
2, 20929, Note_on_c, 0, 66, 0
2, 20930, Note_on_c, 0, 54, 0
2, 20954, Note_on_c, 0, 66, 113
2, 20958, Note_on_c, 0, 54, 111
2, 20960, Note_on_c, 0, 83, 0
2, 20961, Note_on_c, 0, 59, 93
2, 20970, Note_on_c, 0, 71, 0
2, 20972, Note_on_c, 0, 59, 0
2, 20977, Note_on_c, 0, 66, 0
2, 20988, Note_on_c, 0, 54, 0
2, 21114, Note_on_c, 0, 83, 106
2, 21118, Note_on_c, 0, 71, 105
2, 21131, Note_on_c, 0, 71, 0
2, 21144, Note_on_c, 0, 83, 0
2, 21169, Control_c, 0, 64, 0
2, 21208, Note_on_c, 0, 41, 105
2, 21224, Note_on_c, 0, 53, 114
2, 21234, Note_on_c, 0, 41, 0
2, 21237, Note_on_c, 0, 53, 0
2, 21253, Note_on_c, 0, 75, 80
2, 21258, Note_on_c, 0, 87, 99
2, 21266, Control_c, 0, 64, 127
2, 21283, Note_on_c, 0, 75, 0
2, 21301, Note_on_c, 0, 87, 0
2, 21309, Note_on_c, 0, 89, 98
2, 21341, Note_on_c, 0, 87, 89
2, 21348, Note_on_c, 0, 89, 0
2, 21369, Note_on_c, 0, 87, 0
2, 21407, Note_on_c, 0, 61, 90
2, 21408, Note_on_c, 0, 68, 91
2, 21412, Note_on_c, 0, 83, 110
2, 21413, Note_on_c, 0, 73, 101
2, 21417, Note_on_c, 0, 59, 50
2, 21420, Note_on_c, 0, 68, 0
2, 21421, Note_on_c, 0, 61, 0
2, 21432, Note_on_c, 0, 73, 0
2, 21433, Note_on_c, 0, 59, 0
2, 21454, Note_on_c, 0, 83, 0
2, 21494, Note_on_c, 0, 80, 107
2, 21531, Note_on_c, 0, 80, 0
2, 21536, Control_c, 0, 64, 0
2, 21584, Note_on_c, 0, 80, 99
2, 21587, Note_on_c, 0, 54, 113
2, 21591, Note_on_c, 0, 71, 100
2, 21597, Note_on_c, 0, 54, 0
2, 21597, Control_c, 0, 64, 127
2, 21604, Note_on_c, 0, 71, 0
2, 21620, Note_on_c, 0, 80, 0
2, 21639, Note_on_c, 0, 82, 94
2, 21689, Note_on_c, 0, 80, 89
2, 21728, Note_on_c, 0, 82, 0
2, 21732, Note_on_c, 0, 66, 98
2, 21734, Note_on_c, 0, 59, 94
2, 21739, Note_on_c, 0, 78, 102
2, 21740, Note_on_c, 0, 63, 79
2, 21743, Note_on_c, 0, 66, 0
2, 21745, Note_on_c, 0, 71, 64
2, 21746, Note_on_c, 0, 59, 0
2, 21752, Note_on_c, 0, 63, 0
2, 21765, Note_on_c, 0, 80, 0
2, 21766, Note_on_c, 0, 71, 0
2, 21792, Note_on_c, 0, 78, 0
2, 21813, Note_on_c, 0, 75, 104
2, 21822, Note_on_c, 0, 71, 47
2, 21839, Note_on_c, 0, 71, 0
2, 21844, Note_on_c, 0, 75, 0
2, 21858, Control_c, 0, 64, 0
2, 21899, Note_on_c, 0, 44, 112
2, 21900, Note_on_c, 0, 56, 118
2, 21903, Control_c, 0, 64, 127
2, 21904, Note_on_c, 0, 71, 116
2, 21907, Note_on_c, 0, 65, 92
2, 21910, Note_on_c, 0, 44, 0
2, 21912, Note_on_c, 0, 56, 0
2, 21922, Note_on_c, 0, 65, 0
2, 21943, Note_on_c, 0, 71, 0
2, 21989, Note_on_c, 0, 72, 97
2, 22029, Note_on_c, 0, 72, 0
2, 22056, Note_on_c, 0, 61, 89
2, 22058, Note_on_c, 0, 56, 94
2, 22059, Note_on_c, 0, 59, 91
2, 22059, Note_on_c, 0, 73, 97
2, 22069, Note_on_c, 0, 61, 0
2, 22072, Note_on_c, 0, 59, 0
2, 22082, Note_on_c, 0, 56, 0
2, 22107, Note_on_c, 0, 73, 0
2, 22123, Note_on_c, 0, 75, 95
2, 22150, Control_c, 0, 64, 0
2, 22172, Note_on_c, 0, 75, 0
2, 22180, Note_on_c, 0, 64, 85
2, 22206, Note_on_c, 0, 70, 91
2, 22212, Note_on_c, 0, 64, 0
2, 22236, Note_on_c, 0, 70, 0
2, 22237, Control_c, 0, 64, 127
2, 22245, Note_on_c, 0, 42, 109
2, 22249, Note_on_c, 0, 54, 111
2, 22259, Note_on_c, 0, 54, 0
2, 22259, Note_on_c, 0, 42, 0
2, 22259, Note_on_c, 0, 80, 104
2, 22321, Note_on_c, 0, 80, 0
2, 22373, Note_on_c, 0, 78, 101
2, 22404, Note_on_c, 0, 78, 0
2, 22469, Note_on_c, 0, 76, 99
2, 22472, Note_on_c, 0, 66, 101
2, 22472, Note_on_c, 0, 61, 104
2, 22477, Note_on_c, 0, 64, 74
2, 22483, Note_on_c, 0, 61, 0
2, 22484, Note_on_c, 0, 54, 41
2, 22486, Note_on_c, 0, 66, 0
2, 22491, Note_on_c, 0, 64, 0
2, 22499, Note_on_c, 0, 54, 0
2, 22505, Note_on_c, 0, 76, 0
2, 22513, Control_c, 0, 64, 0
2, 22537, Note_on_c, 0, 70, 102
2, 22538, Note_on_c, 0, 54, 57
2, 22543, Note_on_c, 0, 61, 102
2, 22544, Note_on_c, 0, 64, 47
2, 22544, Note_on_c, 0, 66, 93
2, 22554, Note_on_c, 0, 54, 0
2, 22556, Note_on_c, 0, 61, 0
2, 22557, Note_on_c, 0, 66, 0
2, 22560, Note_on_c, 0, 64, 0
2, 22569, Note_on_c, 0, 70, 0
2, 22575, Control_c, 0, 64, 127
2, 22600, Note_on_c, 0, 73, 118
2, 22601, Note_on_c, 0, 64, 92
2, 22601, Note_on_c, 0, 66, 100
2, 22602, Note_on_c, 0, 54, 93
2, 22605, Note_on_c, 0, 58, 101
2, 22615, Note_on_c, 0, 66, 0
2, 22616, Note_on_c, 0, 58, 0
2, 22618, Note_on_c, 0, 54, 0
2, 22621, Note_on_c, 0, 64, 0
2, 22636, Note_on_c, 0, 73, 0
2, 22987, Control_c, 0, 64, 0
2, 23011, Note_on_c, 0, 71, 107
2, 23013, Note_on_c, 0, 47, 101
2, 23014, Note_on_c, 0, 59, 99
2, 23014, Note_on_c, 0, 54, 94
2, 23015, Note_on_c, 0, 63, 108
2, 23029, Note_on_c, 0, 59, 0
2, 23030, Note_on_c, 0, 47, 0
2, 23032, Note_on_c, 0, 54, 0
2, 23039, Control_c, 0, 64, 127
2, 23045, Note_on_c, 0, 63, 0
2, 23047, Note_on_c, 0, 71, 0
2, 23228, Control_c, 0, 64, 0
2, 23537, Control_c, 0, 64, 127
2, 23539, Note_on_c, 0, 60, 107
2, 23548, Note_on_c, 0, 60, 0
2, 23550, Note_on_c, 0, 36, 93
2, 23555, Note_on_c, 0, 48, 93
2, 23562, Note_on_c, 0, 36, 0
2, 23570, Note_on_c, 0, 48, 0
2, 23578, Note_on_c, 0, 60, 97
2, 23608, Note_on_c, 0, 60, 0
2, 23629, Note_on_c, 0, 60, 92
2, 23652, Note_on_c, 0, 60, 0
2, 23665, Note_on_c, 0, 60, 82
2, 23668, Note_on_c, 0, 48, 111
2, 23669, Note_on_c, 0, 36, 102
2, 23669, Control_c, 0, 64, 0
2, 23677, Note_on_c, 0, 48, 0
2, 23677, Note_on_c, 0, 60, 0
2, 23679, Note_on_c, 0, 36, 0
2, 23862, Note_on_c, 0, 40, 108
2, 23864, Note_on_c, 0, 52, 103
2, 23865, Note_on_c, 0, 64, 107
2, 23875, Note_on_c, 0, 52, 0
2, 23884, Note_on_c, 0, 40, 0
2, 23896, Note_on_c, 0, 64, 0
2, 24051, Note_on_c, 0, 47, 117
2, 24053, Note_on_c, 0, 35, 101
2, 24054, Note_on_c, 0, 59, 103
2, 24061, Note_on_c, 0, 47, 0
2, 24063, Note_on_c, 0, 35, 0
2, 24064, Control_c, 0, 64, 127
2, 24086, Note_on_c, 0, 59, 0
2, 24109, Control_c, 0, 64, 0
2, 24259, Note_on_c, 0, 40, 103
2, 24260, Note_on_c, 0, 64, 111
2, 24260, Note_on_c, 0, 52, 103
2, 24271, Note_on_c, 0, 52, 0
2, 24277, Control_c, 0, 64, 127
2, 24287, Control_c, 0, 64, 0
2, 24289, Note_on_c, 0, 40, 0
2, 24292, Note_on_c, 0, 64, 0
2, 24450, Note_on_c, 0, 33, 93
2, 24453, Note_on_c, 0, 45, 122
2, 24455, Note_on_c, 0, 57, 119
2, 24459, Control_c, 0, 64, 127
2, 24473, Note_on_c, 0, 33, 0
2, 24475, Note_on_c, 0, 45, 0
2, 24484, Note_on_c, 0, 57, 0
2, 24649, Control_c, 0, 64, 0
2, 24683, Note_on_c, 0, 57, 111
2, 24683, Note_on_c, 0, 66, 104
2, 24685, Note_on_c, 0, 76, 119
2, 24686, Note_on_c, 0, 64, 101
2, 24686, Note_on_c, 0, 72, 114
2, 24686, Note_on_c, 0, 84, 116
2, 24714, Control_c, 0, 64, 127
2, 24756, Note_on_c, 0, 84, 0
2, 24777, Note_on_c, 0, 66, 0
2, 24789, Note_on_c, 0, 64, 0
2, 24791, Note_on_c, 0, 76, 0
2, 24794, Note_on_c, 0, 57, 0
2, 24796, Note_on_c, 0, 72, 0
2, 24984, Control_c, 0, 64, 0
2, 25008, Note_on_c, 0, 66, 96
2, 25014, Note_on_c, 0, 83, 86
2, 25014, Note_on_c, 0, 59, 83
2, 25015, Note_on_c, 0, 71, 100
2, 25015, Note_on_c, 0, 64, 88
2, 25018, Note_on_c, 0, 76, 89
2, 25028, Note_on_c, 0, 64, 0
2, 25035, Note_on_c, 0, 66, 0
2, 25036, Note_on_c, 0, 71, 0
2, 25038, Note_on_c, 0, 83, 0
2, 25038, Note_on_c, 0, 76, 0
2, 25049, Note_on_c, 0, 59, 0
2, 25078, Note_on_c, 0, 66, 101
2, 25080, Note_on_c, 0, 81, 105
2, 25083, Note_on_c, 0, 60, 90
2, 25083, Note_on_c, 0, 76, 103
2, 25085, Note_on_c, 0, 64, 79
2, 25085, Note_on_c, 0, 69, 103
2, 25090, Control_c, 0, 64, 127
2, 25098, Note_on_c, 0, 60, 0
2, 25099, Note_on_c, 0, 64, 0
2, 25102, Note_on_c, 0, 69, 0
2, 25108, Note_on_c, 0, 66, 0
2, 25114, Note_on_c, 0, 76, 0
2, 25125, Note_on_c, 0, 81, 0
2, 25290, Note_on_c, 0, 88, 94
2, 25290, Note_on_c, 0, 66, 79
2, 25291, Note_on_c, 0, 76, 94
2, 25291, Note_on_c, 0, 69, 72
2, 25291, Note_on_c, 0, 60, 84
2, 25293, Note_on_c, 0, 64, 61
2, 25305, Note_on_c, 0, 66, 0
2, 25306, Note_on_c, 0, 69, 0
2, 25310, Note_on_c, 0, 60, 0
2, 25310, Note_on_c, 0, 76, 0
2, 25310, Note_on_c, 0, 64, 0
2, 25322, Note_on_c, 0, 88, 0
2, 25347, Note_on_c, 0, 60, 90
2, 25355, Note_on_c, 0, 88, 86
2, 25356, Note_on_c, 0, 76, 81
2, 25356, Note_on_c, 0, 81, 90
2, 25356, Note_on_c, 0, 69, 95
2, 25358, Note_on_c, 0, 64, 78
2, 25359, Control_c, 0, 64, 0
2, 25361, Note_on_c, 0, 66, 72
2, 25367, Note_on_c, 0, 69, 0
2, 25373, Note_on_c, 0, 64, 0
2, 25375, Note_on_c, 0, 66, 0
2, 25380, Note_on_c, 0, 88, 0
2, 25381, Note_on_c, 0, 60, 0
2, 25385, Note_on_c, 0, 76, 0
2, 25388, Note_on_c, 0, 81, 0
2, 25418, Control_c, 0, 64, 127
2, 25420, Note_on_c, 0, 71, 119
2, 25421, Note_on_c, 0, 88, 92
2, 25421, Note_on_c, 0, 64, 94
2, 25422, Note_on_c, 0, 76, 101
2, 25423, Note_on_c, 0, 83, 113
2, 25423, Note_on_c, 0, 59, 92
2, 25424, Note_on_c, 0, 66, 51
2, 25438, Note_on_c, 0, 59, 0
2, 25440, Note_on_c, 0, 66, 0
2, 25441, Note_on_c, 0, 71, 0
2, 25448, Note_on_c, 0, 64, 0
2, 25456, Note_on_c, 0, 76, 0
2, 25471, Note_on_c, 0, 88, 0
2, 25474, Note_on_c, 0, 83, 0
2, 25500, Note_on_c, 0, 64, 83
2, 25523, Note_on_c, 0, 64, 0
2, 25549, Control_c, 0, 64, 0
2, 25551, Note_on_c, 0, 57, 80
2, 25561, Note_on_c, 0, 64, 101
2, 25582, Note_on_c, 0, 57, 0
2, 25592, Note_on_c, 0, 66, 105
2, 25593, Note_on_c, 0, 64, 0
2, 25603, Note_on_c, 0, 88, 101
2, 25603, Note_on_c, 0, 72, 111
2, 25605, Note_on_c, 0, 76, 110
2, 25607, Note_on_c, 0, 66, 0
2, 25607, Note_on_c, 0, 84, 103
2, 25613, Note_on_c, 0, 72, 0
2, 25617, Control_c, 0, 64, 127
2, 25632, Note_on_c, 0, 88, 0
2, 25634, Note_on_c, 0, 76, 0
2, 25640, Note_on_c, 0, 84, 0
2, 25867, Control_c, 0, 64, 0
2, 25992, Note_on_c, 0, 60, 105
2, 26003, Note_on_c, 0, 60, 0
2, 26011, Note_on_c, 0, 36, 97
2, 26016, Note_on_c, 0, 48, 68
2, 26019, Control_c, 0, 64, 127
2, 26022, Note_on_c, 0, 36, 0
2, 26029, Note_on_c, 0, 60, 92
2, 26031, Note_on_c, 0, 48, 0
2, 26043, Note_on_c, 0, 60, 0
2, 26071, Note_on_c, 0, 60, 103
2, 26100, Control_c, 0, 64, 0
2, 26104, Note_on_c, 0, 60, 0
2, 26111, Note_on_c, 0, 60, 84
2, 26117, Note_on_c, 0, 48, 111
2, 26117, Note_on_c, 0, 36, 107
2, 26124, Note_on_c, 0, 60, 0
2, 26126, Note_on_c, 0, 36, 0
2, 26127, Note_on_c, 0, 48, 0
2, 26317, Note_on_c, 0, 63, 116
2, 26319, Note_on_c, 0, 39, 107
2, 26321, Note_on_c, 0, 51, 115
2, 26330, Note_on_c, 0, 51, 0
2, 26335, Note_on_c, 0, 39, 0
2, 26350, Note_on_c, 0, 63, 0
2, 26515, Note_on_c, 0, 58, 108
2, 26515, Note_on_c, 0, 34, 111
2, 26518, Control_c, 0, 64, 127
2, 26518, Note_on_c, 0, 46, 117
2, 26527, Note_on_c, 0, 46, 0
2, 26529, Note_on_c, 0, 34, 0
2, 26543, Note_on_c, 0, 58, 0
2, 26586, Control_c, 0, 64, 0
2, 26710, Note_on_c, 0, 39, 108
2, 26711, Note_on_c, 0, 51, 102
2, 26712, Note_on_c, 0, 63, 113
2, 26723, Note_on_c, 0, 51, 0
2, 26743, Note_on_c, 0, 39, 0
2, 26745, Note_on_c, 0, 63, 0
2, 26898, Note_on_c, 0, 33, 92
2, 26904, Note_on_c, 0, 45, 124
2, 26906, Note_on_c, 0, 57, 117
2, 26910, Control_c, 0, 64, 127
2, 26917, Note_on_c, 0, 33, 0
2, 26924, Note_on_c, 0, 45, 0
2, 26937, Note_on_c, 0, 57, 0
2, 27094, Control_c, 0, 64, 0
2, 27122, Note_on_c, 0, 78, 108
2, 27123, Note_on_c, 0, 66, 110
2, 27123, Note_on_c, 0, 75, 104
2, 27124, Note_on_c, 0, 84, 99
2, 27124, Note_on_c, 0, 57, 107
2, 27126, Note_on_c, 0, 72, 97
2, 27127, Note_on_c, 0, 63, 109
2, 27153, Control_c, 0, 64, 127
2, 27190, Note_on_c, 0, 66, 0
2, 27220, Note_on_c, 0, 57, 0
2, 27227, Note_on_c, 0, 84, 0
2, 27230, Note_on_c, 0, 63, 0
2, 27233, Note_on_c, 0, 72, 0
2, 27253, Note_on_c, 0, 75, 0
2, 27259, Note_on_c, 0, 78, 0
2, 27420, Control_c, 0, 64, 0
2, 27436, Note_on_c, 0, 82, 95
2, 27437, Note_on_c, 0, 70, 102
2, 27437, Note_on_c, 0, 58, 98
2, 27439, Note_on_c, 0, 78, 93
2, 27439, Note_on_c, 0, 66, 90
2, 27442, Note_on_c, 0, 63, 84
2, 27445, Note_on_c, 0, 75, 70
2, 27456, Note_on_c, 0, 63, 0
2, 27459, Note_on_c, 0, 75, 0
2, 27461, Note_on_c, 0, 66, 0
2, 27465, Note_on_c, 0, 70, 0
2, 27469, Note_on_c, 0, 82, 0
2, 27476, Note_on_c, 0, 58, 0
2, 27476, Note_on_c, 0, 78, 0
2, 27503, Note_on_c, 0, 66, 102
2, 27505, Note_on_c, 0, 63, 94
2, 27507, Note_on_c, 0, 75, 90
2, 27507, Note_on_c, 0, 69, 108
2, 27507, Note_on_c, 0, 60, 95
2, 27507, Note_on_c, 0, 81, 106
2, 27508, Note_on_c, 0, 58, 68
2, 27508, Note_on_c, 0, 78, 92
2, 27511, Control_c, 0, 64, 127
2, 27518, Note_on_c, 0, 63, 0
2, 27520, Note_on_c, 0, 60, 0
2, 27520, Note_on_c, 0, 69, 0
2, 27523, Note_on_c, 0, 58, 0
2, 27525, Note_on_c, 0, 66, 0
2, 27531, Note_on_c, 0, 75, 0
2, 27538, Note_on_c, 0, 78, 0
2, 27540, Note_on_c, 0, 81, 0
2, 27693, Note_on_c, 0, 78, 88
2, 27693, Note_on_c, 0, 75, 90
2, 27694, Note_on_c, 0, 63, 86
2, 27694, Note_on_c, 0, 60, 92
2, 27695, Note_on_c, 0, 87, 69
2, 27695, Note_on_c, 0, 66, 86
2, 27696, Note_on_c, 0, 81, 83
2, 27696, Note_on_c, 0, 69, 82
2, 27710, Note_on_c, 0, 63, 0
2, 27711, Note_on_c, 0, 69, 0
2, 27711, Note_on_c, 0, 66, 0
2, 27712, Note_on_c, 0, 87, 0
2, 27712, Note_on_c, 0, 75, 0
2, 27715, Note_on_c, 0, 81, 0
2, 27726, Note_on_c, 0, 60, 0
2, 27728, Note_on_c, 0, 78, 0
2, 27745, Control_c, 0, 64, 0
2, 27753, Note_on_c, 0, 60, 93
2, 27756, Note_on_c, 0, 78, 102
2, 27756, Note_on_c, 0, 75, 87
2, 27759, Note_on_c, 0, 63, 73
2, 27759, Note_on_c, 0, 69, 80
2, 27762, Note_on_c, 0, 66, 78
2, 27764, Note_on_c, 0, 87, 41
2, 27764, Note_on_c, 0, 81, 82
2, 27767, Note_on_c, 0, 60, 0
2, 27771, Note_on_c, 0, 69, 0
2, 27775, Note_on_c, 0, 63, 0
2, 27775, Note_on_c, 0, 66, 0
2, 27779, Note_on_c, 0, 81, 0
2, 27783, Note_on_c, 0, 75, 0
2, 27786, Note_on_c, 0, 87, 0
2, 27789, Note_on_c, 0, 78, 0
2, 27801, Control_c, 0, 64, 127
2, 27815, Note_on_c, 0, 75, 99
2, 27817, Note_on_c, 0, 78, 90
2, 27818, Note_on_c, 0, 82, 101
2, 27818, Note_on_c, 0, 66, 86
2, 27818, Note_on_c, 0, 70, 115
2, 27819, Note_on_c, 0, 87, 82
2, 27819, Note_on_c, 0, 63, 91
2, 27820, Note_on_c, 0, 58, 97
2, 27833, Note_on_c, 0, 63, 0
2, 27845, Note_on_c, 0, 70, 0
2, 27848, Note_on_c, 0, 66, 0
2, 27851, Note_on_c, 0, 75, 0
2, 27857, Note_on_c, 0, 78, 0
2, 27862, Note_on_c, 0, 58, 0
2, 27869, Note_on_c, 0, 82, 0
2, 27892, Note_on_c, 0, 87, 0
2, 27947, Control_c, 0, 64, 0
2, 27952, Note_on_c, 0, 57, 91
2, 27968, Note_on_c, 0, 63, 89
2, 27986, Note_on_c, 0, 57, 0
2, 28005, Note_on_c, 0, 66, 89
2, 28008, Note_on_c, 0, 84, 102
2, 28008, Note_on_c, 0, 75, 117
2, 28011, Note_on_c, 0, 87, 81
2, 28013, Note_on_c, 0, 72, 105
2, 28015, Note_on_c, 0, 63, 0
2, 28017, Note_on_c, 0, 66, 0
2, 28024, Control_c, 0, 64, 127
2, 28025, Note_on_c, 0, 87, 0
2, 28026, Note_on_c, 0, 72, 0
2, 28041, Note_on_c, 0, 84, 0
2, 28043, Note_on_c, 0, 75, 0
2, 28164, Control_c, 0, 64, 0
2, 28320, Note_on_c, 0, 38, 106
2, 28322, Note_on_c, 0, 71, 119
2, 28325, Note_on_c, 0, 67, 111
2, 28331, Note_on_c, 0, 38, 0
2, 28339, Control_c, 0, 64, 127
2, 28613, Note_on_c, 0, 59, 80
2, 28617, Note_on_c, 0, 55, 62
2, 28618, Note_on_c, 0, 50, 70
2, 28628, Note_on_c, 0, 59, 0
2, 28633, Note_on_c, 0, 55, 0
2, 28635, Note_on_c, 0, 50, 0
2, 28676, Note_on_c, 0, 59, 86
2, 28676, Note_on_c, 0, 50, 92
2, 28678, Note_on_c, 0, 55, 82
2, 28691, Note_on_c, 0, 55, 0
2, 28691, Note_on_c, 0, 59, 0
2, 28695, Note_on_c, 0, 50, 0
2, 28727, Note_on_c, 0, 59, 85
2, 28727, Note_on_c, 0, 50, 108
2, 28729, Note_on_c, 0, 55, 86
2, 28738, Note_on_c, 0, 50, 0
2, 28740, Note_on_c, 0, 59, 0
2, 28741, Note_on_c, 0, 55, 0
2, 28744, Note_on_c, 0, 71, 0
2, 28755, Control_c, 0, 64, 0
2, 28830, Note_on_c, 0, 67, 0
2, 28895, Note_on_c, 0, 70, 97
2, 28897, Note_on_c, 0, 66, 89
2, 28899, Note_on_c, 0, 50, 110
2, 28904, Note_on_c, 0, 59, 58
2, 28907, Note_on_c, 0, 55, 45
2, 28909, Note_on_c, 0, 50, 0
2, 28912, Note_on_c, 0, 66, 0
2, 28920, Note_on_c, 0, 59, 0
2, 28921, Note_on_c, 0, 55, 0
2, 28927, Note_on_c, 0, 70, 0
2, 28985, Note_on_c, 0, 71, 106
2, 28989, Note_on_c, 0, 67, 89
2, 29006, Note_on_c, 0, 67, 0
2, 29023, Note_on_c, 0, 71, 0
2, 29057, Note_on_c, 0, 38, 107
2, 29067, Note_on_c, 0, 38, 0
2, 29081, Note_on_c, 0, 74, 102
2, 29090, Note_on_c, 0, 71, 89
2, 29097, Control_c, 0, 64, 127
2, 29139, Note_on_c, 0, 71, 0
2, 29143, Note_on_c, 0, 74, 0
2, 29200, Note_on_c, 0, 72, 89
2, 29203, Note_on_c, 0, 69, 82
2, 29221, Note_on_c, 0, 69, 0
2, 29221, Note_on_c, 0, 72, 0
2, 29256, Note_on_c, 0, 60, 98
2, 29258, Note_on_c, 0, 50, 103
2, 29258, Note_on_c, 0, 54, 94
2, 29268, Note_on_c, 0, 60, 0
2, 29270, Note_on_c, 0, 54, 0
2, 29278, Control_c, 0, 64, 0
2, 29281, Note_on_c, 0, 50, 0
2, 29401, Note_on_c, 0, 71, 98
2, 29405, Note_on_c, 0, 67, 81
2, 29416, Note_on_c, 0, 71, 0
2, 29420, Note_on_c, 0, 67, 0
2, 29459, Note_on_c, 0, 43, 103
2, 29464, Note_on_c, 0, 71, 111
2, 29468, Note_on_c, 0, 43, 0
2, 29470, Note_on_c, 0, 67, 99
2, 29489, Control_c, 0, 64, 127
2, 29706, Note_on_c, 0, 59, 75
2, 29707, Note_on_c, 0, 55, 69
2, 29711, Note_on_c, 0, 50, 69
2, 29722, Note_on_c, 0, 59, 0
2, 29723, Note_on_c, 0, 55, 0
2, 29728, Note_on_c, 0, 50, 0
2, 29758, Note_on_c, 0, 71, 0
2, 29768, Note_on_c, 0, 59, 92
2, 29769, Note_on_c, 0, 50, 87
2, 29770, Note_on_c, 0, 55, 82
2, 29783, Note_on_c, 0, 55, 0
2, 29786, Note_on_c, 0, 50, 0
2, 29789, Note_on_c, 0, 59, 0
2, 29822, Note_on_c, 0, 50, 86
2, 29834, Note_on_c, 0, 59, 39
2, 29836, Note_on_c, 0, 50, 0
2, 29843, Note_on_c, 0, 67, 0
2, 29848, Note_on_c, 0, 59, 0
2, 29871, Control_c, 0, 64, 0
2, 29916, Note_on_c, 0, 66, 98
2, 29919, Note_on_c, 0, 70, 87
2, 29951, Note_on_c, 0, 66, 0
2, 29953, Note_on_c, 0, 70, 0
2, 29977, Note_on_c, 0, 55, 84
2, 29977, Note_on_c, 0, 50, 94
2, 29978, Note_on_c, 0, 59, 81
2, 29990, Note_on_c, 0, 50, 0
2, 29992, Note_on_c, 0, 55, 0
2, 29994, Note_on_c, 0, 59, 0
2, 30036, Note_on_c, 0, 71, 98
2, 30042, Note_on_c, 0, 67, 76
2, 30047, Control_c, 0, 64, 127
2, 30048, Note_on_c, 0, 71, 0
2, 30057, Note_on_c, 0, 67, 0
2, 30152, Note_on_c, 0, 50, 100
2, 30152, Note_on_c, 0, 59, 92
2, 30156, Note_on_c, 0, 55, 55
2, 30157, Note_on_c, 0, 73, 85
2, 30162, Note_on_c, 0, 70, 61
2, 30165, Note_on_c, 0, 50, 0
2, 30166, Note_on_c, 0, 59, 0
2, 30173, Note_on_c, 0, 55, 0
2, 30184, Control_c, 0, 64, 0
2, 30190, Note_on_c, 0, 70, 0
2, 30203, Note_on_c, 0, 73, 0
2, 30275, Note_on_c, 0, 74, 89
2, 30283, Note_on_c, 0, 71, 52
2, 30292, Note_on_c, 0, 74, 0
2, 30300, Note_on_c, 0, 71, 0
2, 30394, Note_on_c, 0, 76, 103
2, 30399, Note_on_c, 0, 67, 86
2, 30412, Note_on_c, 0, 67, 0
2, 30424, Note_on_c, 0, 76, 0
2, 30539, Note_on_c, 0, 37, 105
2, 30543, Note_on_c, 0, 78, 102
2, 30545, Note_on_c, 0, 49, 93
2, 30547, Note_on_c, 0, 69, 91
2, 30552, Control_c, 0, 64, 127
2, 30558, Note_on_c, 0, 49, 0
2, 30561, Note_on_c, 0, 69, 0
2, 30564, Note_on_c, 0, 37, 0
2, 30593, Note_on_c, 0, 78, 0
2, 30746, Note_on_c, 0, 66, 71
2, 30746, Note_on_c, 0, 61, 79
2, 30756, Note_on_c, 0, 57, 63
2, 30762, Note_on_c, 0, 61, 0
2, 30762, Note_on_c, 0, 66, 0
2, 30772, Note_on_c, 0, 57, 0
2, 30820, Note_on_c, 0, 57, 78
2, 30821, Note_on_c, 0, 61, 63
2, 30826, Note_on_c, 0, 80, 101
2, 30827, Note_on_c, 0, 66, 39
2, 30829, Note_on_c, 0, 71, 95
2, 30835, Note_on_c, 0, 57, 0
2, 30836, Note_on_c, 0, 61, 0
2, 30836, Control_c, 0, 64, 0
2, 30840, Note_on_c, 0, 66, 0
2, 30844, Note_on_c, 0, 71, 0
2, 30858, Note_on_c, 0, 80, 0
2, 30875, Note_on_c, 0, 61, 57
2, 30875, Note_on_c, 0, 66, 80
2, 30877, Note_on_c, 0, 57, 90
2, 30883, Note_on_c, 0, 81, 103
2, 30887, Control_c, 0, 64, 127
2, 30889, Note_on_c, 0, 73, 105
2, 30890, Note_on_c, 0, 57, 0
2, 30891, Note_on_c, 0, 61, 0
2, 30891, Note_on_c, 0, 66, 0
2, 31030, Note_on_c, 0, 81, 0
2, 31039, Note_on_c, 0, 73, 0
2, 31050, Note_on_c, 0, 66, 90
2, 31055, Note_on_c, 0, 61, 66
2, 31061, Note_on_c, 0, 66, 0
2, 31061, Note_on_c, 0, 57, 73
2, 31069, Note_on_c, 0, 61, 0
2, 31077, Note_on_c, 0, 57, 0
2, 31163, Control_c, 0, 64, 0
2, 31201, Note_on_c, 0, 49, 100
2, 31223, Note_on_c, 0, 49, 0
2, 31232, Note_on_c, 0, 74, 94
2, 31232, Note_on_c, 0, 83, 87
2, 31253, Control_c, 0, 64, 127
2, 31284, Note_on_c, 0, 83, 0
2, 31292, Note_on_c, 0, 74, 0
2, 31336, Note_on_c, 0, 80, 93
2, 31345, Note_on_c, 0, 71, 87
2, 31360, Note_on_c, 0, 71, 0
2, 31376, Note_on_c, 0, 80, 0
2, 31406, Note_on_c, 0, 65, 81
2, 31412, Note_on_c, 0, 59, 83
2, 31414, Note_on_c, 0, 62, 64
2, 31420, Note_on_c, 0, 65, 0
2, 31427, Note_on_c, 0, 59, 0
2, 31430, Note_on_c, 0, 62, 0
2, 31435, Control_c, 0, 64, 0
2, 31535, Note_on_c, 0, 81, 80
2, 31540, Note_on_c, 0, 73, 79
2, 31573, Note_on_c, 0, 81, 0
2, 31576, Note_on_c, 0, 73, 0
2, 31587, Note_on_c, 0, 42, 92
2, 31611, Note_on_c, 0, 42, 0
2, 31624, Note_on_c, 0, 80, 96
2, 31627, Note_on_c, 0, 71, 93
2, 31643, Control_c, 0, 64, 127
2, 31834, Note_on_c, 0, 65, 79
2, 31836, Note_on_c, 0, 59, 88
2, 31838, Note_on_c, 0, 62, 71
2, 31850, Note_on_c, 0, 65, 0
2, 31851, Note_on_c, 0, 59, 0
2, 31853, Note_on_c, 0, 62, 0
2, 31903, Note_on_c, 0, 59, 71
2, 31904, Note_on_c, 0, 65, 73
2, 31907, Note_on_c, 0, 71, 0
2, 31912, Note_on_c, 0, 62, 47
2, 31919, Note_on_c, 0, 65, 0
2, 31920, Note_on_c, 0, 59, 0
2, 31924, Note_on_c, 0, 80, 0
2, 31928, Control_c, 0, 64, 0
2, 31929, Note_on_c, 0, 62, 0
2, 31960, Note_on_c, 0, 61, 97
2, 31962, Note_on_c, 0, 54, 93
2, 31967, Note_on_c, 0, 66, 60
2, 31967, Note_on_c, 0, 78, 102
2, 31973, Note_on_c, 0, 69, 97
2, 31975, Note_on_c, 0, 61, 0
2, 31981, Note_on_c, 0, 66, 0
2, 31997, Note_on_c, 0, 54, 0
2, 32005, Control_c, 0, 64, 127
2, 32153, Note_on_c, 0, 66, 90
2, 32162, Note_on_c, 0, 61, 57
2, 32163, Note_on_c, 0, 69, 0
2, 32163, Note_on_c, 0, 57, 74
2, 32167, Note_on_c, 0, 78, 0
2, 32171, Note_on_c, 0, 66, 0
2, 32177, Note_on_c, 0, 61, 0
2, 32179, Note_on_c, 0, 57, 0
2, 32247, Note_on_c, 0, 77, 99
2, 32251, Note_on_c, 0, 73, 87
2, 32282, Control_c, 0, 64, 0
2, 32284, Note_on_c, 0, 73, 0
2, 32288, Note_on_c, 0, 77, 0
2, 32319, Note_on_c, 0, 61, 72
2, 32327, Note_on_c, 0, 66, 66
2, 32370, Note_on_c, 0, 76, 106
2, 32373, Note_on_c, 0, 66, 0
2, 32373, Control_c, 0, 64, 127
2, 32377, Note_on_c, 0, 73, 85
2, 32392, Note_on_c, 0, 73, 0
2, 32402, Note_on_c, 0, 61, 0
2, 32407, Note_on_c, 0, 76, 0
2, 32458, Note_on_c, 0, 75, 99
2, 32461, Note_on_c, 0, 72, 86
2, 32475, Note_on_c, 0, 72, 0
2, 32490, Note_on_c, 0, 75, 0
2, 32541, Control_c, 0, 64, 0
2, 32543, Note_on_c, 0, 71, 99
2, 32544, Note_on_c, 0, 74, 88
2, 32559, Note_on_c, 0, 74, 0
2, 32563, Note_on_c, 0, 71, 0
2, 32623, Note_on_c, 0, 73, 104
2, 32631, Note_on_c, 0, 69, 56
2, 32647, Note_on_c, 0, 69, 0
2, 32659, Note_on_c, 0, 73, 0
2, 32685, Note_on_c, 0, 40, 107
2, 32695, Note_on_c, 0, 40, 0
2, 32704, Note_on_c, 0, 72, 105
2, 32706, Note_on_c, 0, 69, 99
2, 32741, Control_c, 0, 64, 127
2, 32956, Note_on_c, 0, 60, 89
2, 32957, Note_on_c, 0, 57, 85
2, 32963, Note_on_c, 0, 52, 59
2, 32969, Note_on_c, 0, 60, 0
2, 32971, Note_on_c, 0, 57, 0
2, 32980, Note_on_c, 0, 52, 0
2, 32988, Control_c, 0, 64, 0
2, 33017, Note_on_c, 0, 57, 106
2, 33019, Note_on_c, 0, 52, 83
2, 33020, Note_on_c, 0, 60, 84
2, 33028, Note_on_c, 0, 57, 0
2, 33034, Note_on_c, 0, 52, 0
2, 33034, Note_on_c, 0, 60, 0
2, 33035, Control_c, 0, 64, 127
2, 33064, Note_on_c, 0, 52, 97
2, 33070, Note_on_c, 0, 57, 103
2, 33072, Note_on_c, 0, 60, 74
2, 33077, Note_on_c, 0, 52, 0
2, 33080, Note_on_c, 0, 57, 0
2, 33088, Note_on_c, 0, 60, 0
2, 33098, Note_on_c, 0, 72, 0
2, 33134, Note_on_c, 0, 69, 0
2, 33215, Control_c, 0, 64, 0
2, 33233, Note_on_c, 0, 71, 103
2, 33235, Note_on_c, 0, 68, 87
2, 33235, Note_on_c, 0, 60, 90
2, 33242, Note_on_c, 0, 52, 67
2, 33248, Note_on_c, 0, 60, 0
2, 33251, Note_on_c, 0, 68, 0
2, 33258, Note_on_c, 0, 52, 0
2, 33264, Note_on_c, 0, 71, 0
2, 33311, Note_on_c, 0, 72, 102
2, 33317, Note_on_c, 0, 69, 82
2, 33332, Note_on_c, 0, 69, 0
2, 33351, Note_on_c, 0, 72, 0
2, 33367, Note_on_c, 0, 40, 114
2, 33383, Note_on_c, 0, 40, 0
2, 33408, Note_on_c, 0, 76, 105
2, 33408, Control_c, 0, 64, 127
2, 33418, Note_on_c, 0, 72, 92
2, 33435, Note_on_c, 0, 72, 0
2, 33447, Note_on_c, 0, 76, 0
2, 33502, Note_on_c, 0, 74, 94
2, 33506, Note_on_c, 0, 71, 90
2, 33523, Note_on_c, 0, 71, 0
2, 33541, Note_on_c, 0, 74, 0
2, 33559, Note_on_c, 0, 56, 103
2, 33561, Note_on_c, 0, 52, 89
2, 33562, Note_on_c, 0, 62, 84
2, 33574, Note_on_c, 0, 52, 0
2, 33575, Note_on_c, 0, 62, 0
2, 33583, Note_on_c, 0, 56, 0
2, 33584, Control_c, 0, 64, 0
2, 33703, Note_on_c, 0, 72, 97
2, 33709, Note_on_c, 0, 69, 65
2, 33718, Note_on_c, 0, 72, 0
2, 33724, Note_on_c, 0, 69, 0
2, 33760, Note_on_c, 0, 45, 101
2, 33766, Note_on_c, 0, 72, 106
2, 33771, Note_on_c, 0, 45, 0
2, 33772, Note_on_c, 0, 69, 94
2, 33786, Control_c, 0, 64, 127
2, 34011, Note_on_c, 0, 60, 80
2, 34015, Note_on_c, 0, 52, 81
2, 34016, Note_on_c, 0, 57, 63
2, 34027, Note_on_c, 0, 60, 0
2, 34028, Note_on_c, 0, 52, 0
2, 34032, Note_on_c, 0, 57, 0
2, 34040, Note_on_c, 0, 72, 0
2, 34069, Note_on_c, 0, 57, 110
2, 34070, Note_on_c, 0, 60, 89
2, 34072, Note_on_c, 0, 52, 80
2, 34081, Note_on_c, 0, 57, 0
2, 34086, Note_on_c, 0, 60, 0
2, 34088, Note_on_c, 0, 52, 0
2, 34111, Note_on_c, 0, 69, 0
2, 34124, Note_on_c, 0, 60, 84
2, 34124, Note_on_c, 0, 52, 98
2, 34132, Note_on_c, 0, 57, 79
2, 34136, Note_on_c, 0, 52, 0
2, 34137, Note_on_c, 0, 60, 0
2, 34148, Note_on_c, 0, 57, 0
2, 34236, Note_on_c, 0, 68, 92
2, 34238, Note_on_c, 0, 71, 100
2, 34247, Control_c, 0, 64, 0
2, 34259, Note_on_c, 0, 68, 0
2, 34272, Note_on_c, 0, 71, 0
2, 34312, Note_on_c, 0, 60, 71
2, 34312, Note_on_c, 0, 52, 90
2, 34319, Note_on_c, 0, 57, 38
2, 34325, Note_on_c, 0, 52, 0
2, 34330, Note_on_c, 0, 60, 0
2, 34331, Note_on_c, 0, 57, 0
2, 34333, Control_c, 0, 64, 127
2, 34344, Note_on_c, 0, 72, 100
2, 34349, Note_on_c, 0, 69, 91
2, 34357, Note_on_c, 0, 72, 0
2, 34363, Note_on_c, 0, 69, 0
2, 34462, Note_on_c, 0, 60, 84
2, 34463, Note_on_c, 0, 52, 89
2, 34465, Note_on_c, 0, 57, 73
2, 34471, Note_on_c, 0, 75, 102
2, 34475, Note_on_c, 0, 71, 94
2, 34476, Note_on_c, 0, 52, 0
2, 34476, Note_on_c, 0, 60, 0
2, 34481, Note_on_c, 0, 57, 0
2, 34487, Control_c, 0, 64, 0
2, 34490, Note_on_c, 0, 71, 0
2, 34517, Note_on_c, 0, 75, 0
2, 34580, Note_on_c, 0, 76, 105
2, 34584, Note_on_c, 0, 72, 92
2, 34599, Note_on_c, 0, 72, 0
2, 34616, Note_on_c, 0, 76, 0
2, 34683, Note_on_c, 0, 77, 103
2, 34685, Note_on_c, 0, 74, 100
2, 34701, Note_on_c, 0, 74, 0
2, 34712, Note_on_c, 0, 77, 0
2, 34752, Note_on_c, 0, 43, 105
2, 34765, Note_on_c, 0, 43, 0
2, 34797, Control_c, 0, 64, 127
2, 34816, Note_on_c, 0, 76, 100
2, 34817, Note_on_c, 0, 79, 102
2, 34857, Note_on_c, 0, 76, 0
2, 34874, Note_on_c, 0, 79, 0
2, 34990, Note_on_c, 0, 60, 93
2, 34991, Note_on_c, 0, 64, 98
2, 34999, Note_on_c, 0, 55, 48
2, 35003, Note_on_c, 0, 64, 0
2, 35003, Note_on_c, 0, 60, 0
2, 35016, Note_on_c, 0, 55, 0
2, 35050, Control_c, 0, 64, 0
2, 35058, Note_on_c, 0, 81, 102
2, 35060, Note_on_c, 0, 77, 93
2, 35063, Note_on_c, 0, 60, 106
2, 35065, Note_on_c, 0, 55, 74
2, 35067, Note_on_c, 0, 64, 89
2, 35074, Note_on_c, 0, 60, 0
2, 35074, Note_on_c, 0, 81, 0
2, 35075, Note_on_c, 0, 77, 0
2, 35079, Note_on_c, 0, 64, 0
2, 35083, Note_on_c, 0, 55, 0
2, 35108, Control_c, 0, 64, 127
2, 35110, Note_on_c, 0, 55, 102
2, 35112, Note_on_c, 0, 84, 107
2, 35113, Note_on_c, 0, 64, 90
2, 35113, Note_on_c, 0, 60, 100
2, 35119, Note_on_c, 0, 76, 103
2, 35123, Note_on_c, 0, 55, 0
2, 35125, Note_on_c, 0, 64, 0
2, 35126, Note_on_c, 0, 60, 0
2, 35268, Note_on_c, 0, 76, 0
2, 35268, Note_on_c, 0, 84, 0
2, 35292, Note_on_c, 0, 64, 95
2, 35293, Note_on_c, 0, 55, 106
2, 35303, Note_on_c, 0, 64, 0
2, 35304, Note_on_c, 0, 55, 0
2, 35353, Control_c, 0, 64, 0
2, 35429, Note_on_c, 0, 43, 117
2, 35447, Note_on_c, 0, 43, 0
2, 35462, Note_on_c, 0, 88, 110
2, 35466, Note_on_c, 0, 76, 111
2, 35466, Note_on_c, 0, 84, 107
2, 35469, Control_c, 0, 64, 127
2, 35503, Note_on_c, 0, 76, 0
2, 35507, Note_on_c, 0, 88, 0
2, 35509, Note_on_c, 0, 84, 0
2, 35619, Note_on_c, 0, 65, 93
2, 35622, Note_on_c, 0, 59, 92
2, 35625, Note_on_c, 0, 62, 75
2, 35629, Note_on_c, 0, 55, 81
2, 35631, Note_on_c, 0, 65, 0
2, 35636, Note_on_c, 0, 59, 0
2, 35640, Note_on_c, 0, 62, 0
2, 35648, Note_on_c, 0, 55, 0
2, 35719, Control_c, 0, 64, 0
2, 35770, Note_on_c, 0, 86, 92
2, 35770, Note_on_c, 0, 83, 99
2, 35772, Note_on_c, 0, 74, 98
2, 35783, Note_on_c, 0, 83, 0
2, 35785, Note_on_c, 0, 74, 0
2, 35785, Note_on_c, 0, 86, 0
2, 35822, Note_on_c, 0, 42, 127
2, 35828, Note_on_c, 0, 86, 100
2, 35832, Note_on_c, 0, 74, 102
2, 35833, Note_on_c, 0, 42, 0
2, 35834, Note_on_c, 0, 83, 95
2, 35846, Control_c, 0, 64, 127
2, 36050, Note_on_c, 0, 66, 86
2, 36058, Note_on_c, 0, 62, 69
2, 36059, Note_on_c, 0, 54, 50
2, 36066, Note_on_c, 0, 66, 0
2, 36072, Note_on_c, 0, 62, 0
2, 36109, Control_c, 0, 64, 0
2, 36114, Note_on_c, 0, 66, 77
2, 36120, Note_on_c, 0, 62, 74
2, 36131, Note_on_c, 0, 66, 0
2, 36134, Note_on_c, 0, 62, 0
2, 36155, Note_on_c, 0, 54, 0
2, 36164, Note_on_c, 0, 66, 102
2, 36166, Control_c, 0, 64, 127
2, 36170, Note_on_c, 0, 62, 91
2, 36179, Note_on_c, 0, 59, 92
2, 36184, Note_on_c, 0, 86, 0
2, 36193, Note_on_c, 0, 59, 0
2, 36201, Note_on_c, 0, 66, 0
2, 36202, Note_on_c, 0, 83, 0
2, 36206, Note_on_c, 0, 62, 0
2, 36236, Note_on_c, 0, 74, 0
2, 36312, Note_on_c, 0, 54, 84
2, 36327, Note_on_c, 0, 54, 0
2, 36327, Note_on_c, 0, 62, 84
2, 36330, Note_on_c, 0, 85, 104
2, 36334, Note_on_c, 0, 66, 102
2, 36335, Note_on_c, 0, 73, 105
2, 36336, Note_on_c, 0, 82, 86
2, 36338, Note_on_c, 0, 62, 0
2, 36353, Note_on_c, 0, 73, 0
2, 36363, Note_on_c, 0, 82, 0
2, 36364, Note_on_c, 0, 85, 0
2, 36403, Note_on_c, 0, 86, 101
2, 36407, Note_on_c, 0, 74, 99
2, 36409, Note_on_c, 0, 83, 87
2, 36411, Note_on_c, 0, 66, 0
2, 36420, Note_on_c, 0, 74, 0
2, 36423, Note_on_c, 0, 83, 0
2, 36426, Note_on_c, 0, 86, 0
2, 36450, Note_on_c, 0, 58, 88
2, 36455, Control_c, 0, 64, 0
2, 36461, Note_on_c, 0, 64, 92
2, 36474, Note_on_c, 0, 66, 104
2, 36494, Note_on_c, 0, 64, 0
2, 36501, Control_c, 0, 64, 127
2, 36503, Note_on_c, 0, 66, 0
2, 36504, Note_on_c, 0, 58, 0
2, 36542, Note_on_c, 0, 86, 83
2, 36543, Note_on_c, 0, 90, 91
2, 36546, Note_on_c, 0, 78, 85
2, 36571, Note_on_c, 0, 78, 0
2, 36579, Note_on_c, 0, 86, 0
2, 36582, Note_on_c, 0, 90, 0
2, 36642, Note_on_c, 0, 85, 92
2, 36644, Note_on_c, 0, 88, 84
2, 36647, Note_on_c, 0, 76, 80
2, 36663, Note_on_c, 0, 76, 0
2, 36663, Note_on_c, 0, 88, 0
2, 36675, Note_on_c, 0, 85, 0
2, 36710, Note_on_c, 0, 55, 108
2, 36712, Note_on_c, 0, 43, 102
2, 36713, Control_c, 0, 64, 0
2, 36719, Note_on_c, 0, 55, 0
2, 36724, Note_on_c, 0, 43, 0
2, 36848, Note_on_c, 0, 86, 92
2, 36848, Note_on_c, 0, 83, 92
2, 36849, Note_on_c, 0, 74, 99
2, 36861, Note_on_c, 0, 83, 0
2, 36863, Note_on_c, 0, 74, 0
2, 36863, Note_on_c, 0, 86, 0
2, 36895, Note_on_c, 0, 54, 118
2, 36895, Note_on_c, 0, 42, 121
2, 36899, Note_on_c, 0, 86, 105
2, 36903, Control_c, 0, 64, 127
2, 36903, Note_on_c, 0, 83, 105
2, 36904, Note_on_c, 0, 74, 102
2, 36906, Note_on_c, 0, 54, 0
2, 36909, Note_on_c, 0, 42, 0
2, 37114, Note_on_c, 0, 66, 84
2, 37121, Note_on_c, 0, 62, 77
2, 37127, Note_on_c, 0, 54, 39
2, 37136, Note_on_c, 0, 62, 0
2, 37136, Note_on_c, 0, 66, 0
2, 37148, Note_on_c, 0, 54, 0
2, 37175, Note_on_c, 0, 66, 94
2, 37177, Note_on_c, 0, 54, 78
2, 37181, Note_on_c, 0, 62, 82
2, 37196, Note_on_c, 0, 62, 0
2, 37199, Control_c, 0, 64, 0
2, 37203, Note_on_c, 0, 66, 0
2, 37232, Note_on_c, 0, 66, 109
2, 37233, Note_on_c, 0, 83, 0
2, 37235, Note_on_c, 0, 62, 98
2, 37242, Control_c, 0, 64, 127
2, 37244, Note_on_c, 0, 59, 93
2, 37248, Note_on_c, 0, 86, 0
2, 37251, Note_on_c, 0, 54, 0
2, 37292, Note_on_c, 0, 74, 0
2, 37307, Note_on_c, 0, 66, 0
2, 37319, Note_on_c, 0, 62, 0
2, 37349, Note_on_c, 0, 54, 90
2, 37359, Note_on_c, 0, 59, 0
2, 37366, Note_on_c, 0, 62, 80
2, 37376, Note_on_c, 0, 85, 107
2, 37377, Note_on_c, 0, 66, 103
2, 37380, Note_on_c, 0, 62, 0
2, 37380, Note_on_c, 0, 54, 0
2, 37380, Note_on_c, 0, 73, 104
2, 37381, Note_on_c, 0, 82, 87
2, 37408, Note_on_c, 0, 73, 0
2, 37411, Note_on_c, 0, 82, 0
2, 37417, Note_on_c, 0, 85, 0
2, 37452, Note_on_c, 0, 86, 93
2, 37453, Note_on_c, 0, 66, 0
2, 37454, Note_on_c, 0, 74, 94
2, 37459, Note_on_c, 0, 83, 84
2, 37469, Note_on_c, 0, 74, 0
2, 37473, Note_on_c, 0, 83, 0
2, 37479, Note_on_c, 0, 86, 0
2, 37490, Control_c, 0, 64, 0
2, 37492, Note_on_c, 0, 58, 92
2, 37503, Note_on_c, 0, 64, 103
2, 37510, Note_on_c, 0, 66, 112
2, 37532, Note_on_c, 0, 64, 0
2, 37535, Note_on_c, 0, 66, 0
2, 37540, Control_c, 0, 64, 127
2, 37551, Note_on_c, 0, 58, 0
2, 37566, Note_on_c, 0, 90, 100
2, 37569, Note_on_c, 0, 78, 108
2, 37569, Note_on_c, 0, 86, 92
2, 37606, Note_on_c, 0, 78, 0
2, 37611, Note_on_c, 0, 86, 0
2, 37611, Note_on_c, 0, 90, 0
2, 37648, Note_on_c, 0, 85, 108
2, 37649, Note_on_c, 0, 88, 99
2, 37651, Note_on_c, 0, 76, 105
2, 37679, Note_on_c, 0, 76, 0
2, 37684, Note_on_c, 0, 88, 0
2, 37687, Control_c, 0, 64, 0
2, 37688, Note_on_c, 0, 85, 0
2, 37718, Note_on_c, 0, 55, 120
2, 37719, Note_on_c, 0, 43, 107
2, 37730, Note_on_c, 0, 43, 0
2, 37730, Note_on_c, 0, 55, 0
2, 37852, Note_on_c, 0, 75, 93
2, 37856, Note_on_c, 0, 87, 71
2, 37856, Note_on_c, 0, 83, 91
2, 37873, Note_on_c, 0, 83, 0
2, 37877, Note_on_c, 0, 87, 0
2, 37879, Note_on_c, 0, 75, 0
2, 37907, Note_on_c, 0, 87, 97
2, 37909, Note_on_c, 0, 75, 109
2, 37910, Note_on_c, 0, 42, 120
2, 37910, Note_on_c, 0, 83, 106
2, 37914, Note_on_c, 0, 54, 118
2, 37918, Control_c, 0, 64, 127
2, 37923, Note_on_c, 0, 54, 0
2, 37927, Note_on_c, 0, 42, 0
2, 37973, Note_on_c, 0, 87, 0
2, 37988, Note_on_c, 0, 83, 0
2, 38007, Note_on_c, 0, 75, 0
2, 38127, Note_on_c, 0, 63, 95
2, 38132, Note_on_c, 0, 54, 49
2, 38132, Note_on_c, 0, 66, 73
2, 38144, Note_on_c, 0, 63, 0
2, 38146, Note_on_c, 0, 66, 0
2, 38154, Note_on_c, 0, 54, 0
2, 38180, Note_on_c, 0, 66, 92
2, 38185, Note_on_c, 0, 63, 97
2, 38188, Note_on_c, 0, 54, 45
2, 38199, Note_on_c, 0, 63, 0
2, 38205, Note_on_c, 0, 54, 0
2, 38206, Note_on_c, 0, 66, 0
2, 38208, Control_c, 0, 64, 0
2, 38231, Control_c, 0, 64, 127
2, 38238, Note_on_c, 0, 66, 92
2, 38242, Note_on_c, 0, 63, 94
2, 38245, Note_on_c, 0, 59, 98
2, 38260, Note_on_c, 0, 66, 0
2, 38262, Note_on_c, 0, 59, 0
2, 38267, Note_on_c, 0, 63, 0
2, 38355, Note_on_c, 0, 83, 106
2, 38358, Note_on_c, 0, 71, 111
2, 38358, Note_on_c, 0, 78, 111
2, 38373, Note_on_c, 0, 71, 0
2, 38390, Note_on_c, 0, 83, 0
2, 38391, Note_on_c, 0, 78, 0
2, 38408, Note_on_c, 0, 51, 115
2, 38410, Note_on_c, 0, 63, 102
2, 38425, Note_on_c, 0, 63, 0
2, 38446, Note_on_c, 0, 51, 0
2, 38500, Note_on_c, 0, 85, 100
2, 38503, Note_on_c, 0, 82, 90
2, 38504, Note_on_c, 0, 73, 102
2, 38543, Note_on_c, 0, 73, 0
2, 38554, Control_c, 0, 64, 0
2, 38564, Note_on_c, 0, 85, 0
2, 38565, Note_on_c, 0, 82, 0
2, 38597, Note_on_c, 0, 47, 101
2, 38598, Note_on_c, 0, 59, 110
2, 38601, Note_on_c, 0, 75, 104
2, 38602, Note_on_c, 0, 83, 99
2, 38602, Note_on_c, 0, 87, 100
2, 38608, Control_c, 0, 64, 127
2, 38610, Note_on_c, 0, 59, 0
2, 38629, Note_on_c, 0, 47, 0
2, 38634, Note_on_c, 0, 75, 0
2, 38645, Note_on_c, 0, 83, 0
2, 38651, Note_on_c, 0, 87, 0
2, 38699, Note_on_c, 0, 88, 92
2, 38701, Note_on_c, 0, 85, 90
2, 38701, Note_on_c, 0, 76, 92
2, 38725, Note_on_c, 0, 76, 0
2, 38728, Note_on_c, 0, 85, 0
2, 38733, Note_on_c, 0, 88, 0
2, 38744, Note_on_c, 0, 46, 118
2, 38748, Note_on_c, 0, 58, 113
2, 38771, Note_on_c, 0, 58, 0
2, 38784, Note_on_c, 0, 46, 0
2, 38809, Note_on_c, 0, 90, 102
2, 38810, Note_on_c, 0, 78, 105
2, 38816, Note_on_c, 0, 87, 84
2, 38846, Note_on_c, 0, 78, 0
2, 38846, Control_c, 0, 64, 0
2, 38863, Note_on_c, 0, 87, 0
2, 38867, Note_on_c, 0, 90, 0
2, 38892, Control_c, 0, 64, 127
2, 38897, Note_on_c, 0, 44, 118
2, 38897, Note_on_c, 0, 80, 105
2, 38898, Note_on_c, 0, 92, 115
2, 38898, Note_on_c, 0, 88, 105
2, 38900, Note_on_c, 0, 56, 115
2, 38915, Note_on_c, 0, 56, 0
2, 38927, Note_on_c, 0, 44, 0
2, 38932, Note_on_c, 0, 80, 0
2, 38939, Note_on_c, 0, 88, 0
2, 38955, Note_on_c, 0, 92, 0
2, 39045, Control_c, 0, 64, 0
2, 39058, Note_on_c, 0, 42, 112
2, 39059, Note_on_c, 0, 54, 110
2, 39077, Control_c, 0, 64, 127
2, 39080, Note_on_c, 0, 54, 0
2, 39091, Note_on_c, 0, 42, 0
2, 39139, Note_on_c, 0, 94, 99
2, 39142, Note_on_c, 0, 82, 90
2, 39143, Note_on_c, 0, 90, 72
2, 39146, Control_c, 0, 64, 0
2, 39156, Note_on_c, 0, 94, 0
2, 39158, Note_on_c, 0, 82, 0
2, 39159, Note_on_c, 0, 90, 0
2, 39190, Note_on_c, 0, 52, 120
2, 39190, Note_on_c, 0, 95, 120
2, 39191, Note_on_c, 0, 40, 98
2, 39193, Note_on_c, 0, 92, 108
2, 39194, Note_on_c, 0, 83, 111
2, 39197, Control_c, 0, 64, 127
2, 39203, Note_on_c, 0, 40, 0
2, 39220, Note_on_c, 0, 52, 0
2, 39240, Note_on_c, 0, 83, 0
2, 39253, Note_on_c, 0, 95, 0
2, 39264, Note_on_c, 0, 92, 0
2, 39354, Note_on_c, 0, 56, 108
2, 39358, Note_on_c, 0, 59, 94
2, 39371, Note_on_c, 0, 59, 0
2, 39380, Note_on_c, 0, 56, 0
2, 39471, Control_c, 0, 64, 0
2, 39510, Note_on_c, 0, 40, 87
2, 39514, Note_on_c, 0, 52, 108
2, 39517, Note_on_c, 0, 97, 121
2, 39518, Note_on_c, 0, 92, 123
2, 39518, Note_on_c, 0, 85, 118
2, 39527, Control_c, 0, 64, 127
2, 39539, Note_on_c, 0, 40, 0
2, 39544, Note_on_c, 0, 52, 0
2, 39547, Note_on_c, 0, 85, 0
2, 39558, Note_on_c, 0, 92, 0
2, 39566, Note_on_c, 0, 97, 0
2, 39686, Note_on_c, 0, 61, 101
2, 39691, Note_on_c, 0, 56, 97
2, 39692, Note_on_c, 0, 52, 81
2, 39703, Note_on_c, 0, 61, 0
2, 39706, Note_on_c, 0, 52, 0
2, 39706, Note_on_c, 0, 56, 0
2, 39831, Control_c, 0, 64, 0
2, 39883, Note_on_c, 0, 99, 120
2, 39885, Note_on_c, 0, 51, 127
2, 39886, Note_on_c, 0, 87, 118
2, 39886, Note_on_c, 0, 39, 126
2, 39887, Note_on_c, 0, 91, 116
2, 39896, Control_c, 0, 64, 127
2, 39903, Note_on_c, 0, 51, 0
2, 39904, Note_on_c, 0, 39, 0
2, 39910, Note_on_c, 0, 99, 0
2, 39915, Note_on_c, 0, 91, 0
2, 39919, Note_on_c, 0, 87, 0
2, 40046, Control_c, 0, 64, 0
2, 40144, Note_on_c, 0, 63, 105
2, 40154, Note_on_c, 0, 63, 0
2, 40176, Control_c, 0, 64, 127
2, 40181, Note_on_c, 0, 63, 103
2, 40205, Note_on_c, 0, 63, 0
2, 40225, Note_on_c, 0, 63, 120
2, 40252, Note_on_c, 0, 63, 0
2, 40269, Note_on_c, 0, 70, 126
2, 40278, Control_c, 0, 64, 0
2, 40280, Note_on_c, 0, 70, 0
2, 40434, Note_on_c, 0, 63, 104
2, 40445, Note_on_c, 0, 63, 0
2, 40467, Note_on_c, 0, 63, 116
2, 40490, Note_on_c, 0, 63, 0
2, 40512, Note_on_c, 0, 63, 116
2, 40532, Control_c, 0, 64, 127
2, 40541, Note_on_c, 0, 63, 0
2, 40549, Note_on_c, 0, 70, 124
2, 40560, Note_on_c, 0, 70, 0
2, 40606, Control_c, 0, 64, 0
2, 40702, Note_on_c, 0, 63, 101
2, 40713, Note_on_c, 0, 63, 0
2, 40741, Note_on_c, 0, 63, 97
2, 40756, Note_on_c, 0, 63, 0
2, 40778, Note_on_c, 0, 63, 120
2, 40807, Note_on_c, 0, 63, 0
2, 40822, Note_on_c, 0, 73, 117
2, 40841, Control_c, 0, 64, 127
2, 40963, Control_c, 0, 64, 0
2, 41026, Note_on_c, 0, 70, 78
2, 41031, Note_on_c, 0, 91, 87
2, 41039, Note_on_c, 0, 67, 41
2, 41040, Note_on_c, 0, 64, 41
2, 41044, Note_on_c, 0, 70, 0
2, 41055, Note_on_c, 0, 67, 0
2, 41057, Note_on_c, 0, 64, 0
2, 41068, Note_on_c, 0, 91, 0
2, 41071, Note_on_c, 0, 92, 108
2, 41080, Note_on_c, 0, 70, 67
2, 41093, Note_on_c, 0, 67, 64
2, 41094, Note_on_c, 0, 64, 67
2, 41105, Note_on_c, 0, 94, 96
2, 41106, Note_on_c, 0, 70, 0
2, 41108, Note_on_c, 0, 67, 0
2, 41112, Note_on_c, 0, 64, 0
2, 41126, Note_on_c, 0, 92, 0
2, 41137, Note_on_c, 0, 94, 0
2, 41140, Note_on_c, 0, 70, 84
2, 41143, Note_on_c, 0, 67, 70
2, 41149, Control_c, 0, 64, 127
2, 41149, Note_on_c, 0, 64, 76
2, 41152, Note_on_c, 0, 99, 94
2, 41158, Note_on_c, 0, 70, 0
2, 41160, Note_on_c, 0, 67, 0
2, 41164, Note_on_c, 0, 64, 0
2, 41194, Note_on_c, 0, 97, 95
2, 41217, Note_on_c, 0, 99, 0
2, 41218, Note_on_c, 0, 97, 0
2, 41239, Note_on_c, 0, 95, 97
2, 41256, Note_on_c, 0, 95, 0
2, 41268, Control_c, 0, 64, 0
2, 41269, Note_on_c, 0, 70, 67
2, 41273, Note_on_c, 0, 67, 75
2, 41280, Note_on_c, 0, 64, 71
2, 41282, Note_on_c, 0, 94, 90
2, 41285, Note_on_c, 0, 70, 0
2, 41288, Note_on_c, 0, 67, 0
2, 41296, Note_on_c, 0, 64, 0
2, 41326, Note_on_c, 0, 92, 97
2, 41357, Note_on_c, 0, 94, 0
2, 41372, Note_on_c, 0, 90, 87
2, 41392, Note_on_c, 0, 92, 0
2, 41400, Note_on_c, 0, 88, 93
2, 41401, Note_on_c, 0, 70, 87
2, 41404, Note_on_c, 0, 90, 0
2, 41408, Note_on_c, 0, 67, 87
2, 41410, Note_on_c, 0, 64, 87
2, 41418, Note_on_c, 0, 70, 0
2, 41420, Note_on_c, 0, 88, 0
2, 41426, Note_on_c, 0, 67, 0
2, 41429, Note_on_c, 0, 64, 0
2, 41444, Control_c, 0, 64, 127
2, 41472, Note_on_c, 0, 87, 85
2, 41514, Note_on_c, 0, 85, 101
2, 41536, Note_on_c, 0, 70, 62
2, 41539, Note_on_c, 0, 87, 0
2, 41541, Note_on_c, 0, 85, 0
2, 41546, Note_on_c, 0, 64, 65
2, 41553, Note_on_c, 0, 70, 0
2, 41556, Note_on_c, 0, 73, 0
2, 41563, Note_on_c, 0, 64, 0
2, 41567, Note_on_c, 0, 83, 85
2, 41589, Note_on_c, 0, 83, 0
2, 41593, Note_on_c, 0, 67, 15
2, 41601, Note_on_c, 0, 82, 90
2, 41615, Control_c, 0, 64, 0
2, 41651, Note_on_c, 0, 80, 85
2, 41659, Note_on_c, 0, 67, 0
2, 41666, Note_on_c, 0, 82, 0
2, 41686, Note_on_c, 0, 80, 0
2, 41687, Note_on_c, 0, 75, 120
2, 41687, Note_on_c, 0, 87, 93
2, 41688, Note_on_c, 0, 63, 115
2, 41689, Note_on_c, 0, 70, 100
2, 41694, Note_on_c, 0, 79, 95
2, 41697, Note_on_c, 0, 63, 0
2, 41698, Note_on_c, 0, 75, 0
2, 41698, Control_c, 0, 64, 127
2, 41700, Note_on_c, 0, 87, 0
2, 41700, Note_on_c, 0, 70, 0
2, 41705, Note_on_c, 0, 79, 0
2, 41826, Control_c, 0, 64, 0
2, 41898, Note_on_c, 0, 63, 103
2, 41913, Note_on_c, 0, 63, 0
2, 41936, Note_on_c, 0, 63, 115
2, 41953, Note_on_c, 0, 63, 0
2, 41978, Note_on_c, 0, 63, 117
2, 42005, Note_on_c, 0, 63, 0
2, 42014, Control_c, 0, 64, 127
2, 42019, Note_on_c, 0, 70, 124
2, 42028, Note_on_c, 0, 70, 0
2, 42097, Control_c, 0, 64, 0
2, 42190, Note_on_c, 0, 63, 98
2, 42200, Note_on_c, 0, 63, 0
2, 42221, Note_on_c, 0, 63, 112
2, 42244, Note_on_c, 0, 63, 0
2, 42269, Note_on_c, 0, 63, 115
2, 42275, Control_c, 0, 64, 127
2, 42297, Note_on_c, 0, 63, 0
2, 42309, Note_on_c, 0, 70, 123
2, 42317, Note_on_c, 0, 70, 0
2, 42340, Control_c, 0, 64, 0
2, 42462, Note_on_c, 0, 63, 99
2, 42473, Note_on_c, 0, 63, 0
2, 42498, Note_on_c, 0, 63, 103
2, 42517, Note_on_c, 0, 63, 0
2, 42542, Note_on_c, 0, 63, 112
2, 42562, Note_on_c, 0, 63, 0
2, 42571, Control_c, 0, 64, 127
2, 42581, Note_on_c, 0, 73, 112
2, 42678, Control_c, 0, 64, 0
2, 42759, Note_on_c, 0, 70, 95
2, 42764, Note_on_c, 0, 91, 95
2, 42765, Note_on_c, 0, 67, 95
2, 42773, Note_on_c, 0, 64, 40
2, 42774, Note_on_c, 0, 70, 0
2, 42782, Note_on_c, 0, 67, 0
2, 42788, Note_on_c, 0, 64, 0
2, 42792, Control_c, 0, 64, 127
2, 42795, Note_on_c, 0, 91, 0
2, 42807, Note_on_c, 0, 92, 93
2, 42811, Note_on_c, 0, 70, 93
2, 42817, Note_on_c, 0, 67, 64
2, 42828, Note_on_c, 0, 64, 60
2, 42833, Note_on_c, 0, 94, 99
2, 42834, Note_on_c, 0, 67, 0
2, 42834, Note_on_c, 0, 70, 0
2, 42844, Note_on_c, 0, 64, 0
2, 42850, Note_on_c, 0, 92, 0
2, 42866, Note_on_c, 0, 94, 0
2, 42870, Note_on_c, 0, 70, 84
2, 42870, Control_c, 0, 64, 0
2, 42877, Note_on_c, 0, 64, 76
2, 42877, Note_on_c, 0, 99, 97
2, 42879, Note_on_c, 0, 67, 91
2, 42890, Note_on_c, 0, 70, 0
2, 42894, Note_on_c, 0, 67, 0
2, 42894, Note_on_c, 0, 64, 0
2, 42924, Note_on_c, 0, 97, 89
2, 42928, Control_c, 0, 64, 127
2, 42944, Note_on_c, 0, 97, 0
2, 42953, Note_on_c, 0, 99, 0
2, 42982, Control_c, 0, 64, 0
2, 42984, Note_on_c, 0, 95, 91
2, 43006, Note_on_c, 0, 70, 91
2, 43008, Note_on_c, 0, 95, 0
2, 43010, Note_on_c, 0, 94, 93
2, 43012, Note_on_c, 0, 67, 89
2, 43012, Note_on_c, 0, 64, 89
2, 43024, Note_on_c, 0, 70, 0
2, 43025, Control_c, 0, 64, 127
2, 43028, Note_on_c, 0, 67, 0
2, 43028, Note_on_c, 0, 64, 0
2, 43056, Note_on_c, 0, 92, 94
2, 43081, Control_c, 0, 64, 0
2, 43083, Note_on_c, 0, 94, 0
2, 43100, Note_on_c, 0, 90, 91
2, 43119, Note_on_c, 0, 92, 0
2, 43131, Note_on_c, 0, 90, 0
2, 43145, Note_on_c, 0, 70, 91
2, 43147, Note_on_c, 0, 88, 77
2, 43149, Note_on_c, 0, 64, 69
2, 43149, Note_on_c, 0, 67, 72
2, 43160, Control_c, 0, 64, 127
2, 43161, Note_on_c, 0, 70, 0
2, 43166, Note_on_c, 0, 67, 0
2, 43167, Note_on_c, 0, 64, 0
2, 43182, Note_on_c, 0, 88, 0
2, 43189, Note_on_c, 0, 87, 85
2, 43240, Note_on_c, 0, 85, 85
2, 43257, Note_on_c, 0, 87, 0
2, 43266, Note_on_c, 0, 85, 0
2, 43271, Note_on_c, 0, 70, 87
2, 43278, Note_on_c, 0, 64, 60
2, 43287, Note_on_c, 0, 67, 87
2, 43287, Note_on_c, 0, 83, 87
2, 43298, Note_on_c, 0, 70, 0
2, 43299, Note_on_c, 0, 64, 0
2, 43305, Note_on_c, 0, 67, 0
2, 43307, Note_on_c, 0, 73, 0
2, 43325, Note_on_c, 0, 82, 89
2, 43327, Note_on_c, 0, 83, 0
2, 43352, Control_c, 0, 64, 0
2, 43379, Note_on_c, 0, 82, 0
2, 43384, Note_on_c, 0, 80, 89
2, 43417, Note_on_c, 0, 80, 0
2, 43438, Note_on_c, 0, 73, 90
2, 43445, Control_c, 0, 64, 127
2, 43622, Note_on_c, 0, 70, 81
2, 43631, Note_on_c, 0, 79, 83
2, 43633, Note_on_c, 0, 64, 52
2, 43638, Note_on_c, 0, 70, 0
2, 43650, Note_on_c, 0, 64, 0
2, 43668, Note_on_c, 0, 79, 0
2, 43671, Control_c, 0, 64, 0
2, 43678, Note_on_c, 0, 82, 81
2, 43682, Note_on_c, 0, 70, 66
2, 43684, Note_on_c, 0, 64, 73
2, 43684, Note_on_c, 0, 67, 84
2, 43698, Note_on_c, 0, 67, 0
2, 43700, Note_on_c, 0, 70, 0
2, 43700, Note_on_c, 0, 64, 0
2, 43716, Note_on_c, 0, 85, 90
2, 43733, Note_on_c, 0, 82, 0
2, 43738, Note_on_c, 0, 70, 67
2, 43740, Note_on_c, 0, 85, 0
2, 43743, Note_on_c, 0, 64, 71
2, 43747, Note_on_c, 0, 67, 53
2, 43752, Note_on_c, 0, 90, 84
2, 43756, Note_on_c, 0, 70, 0
2, 43758, Note_on_c, 0, 64, 0
2, 43760, Control_c, 0, 64, 127
2, 43765, Note_on_c, 0, 67, 0
2, 43815, Note_on_c, 0, 88, 77
2, 43836, Note_on_c, 0, 90, 0
2, 43848, Note_on_c, 0, 87, 75
2, 43856, Note_on_c, 0, 88, 0
2, 43873, Control_c, 0, 64, 0
2, 43885, Note_on_c, 0, 85, 86
2, 43891, Note_on_c, 0, 67, 56
2, 43893, Note_on_c, 0, 70, 39
2, 43894, Note_on_c, 0, 73, 0
2, 43894, Note_on_c, 0, 64, 74
2, 43902, Note_on_c, 0, 85, 0
2, 43903, Note_on_c, 0, 87, 0
2, 43904, Control_c, 0, 64, 127
2, 43910, Note_on_c, 0, 70, 0
2, 43913, Note_on_c, 0, 64, 0
2, 43915, Note_on_c, 0, 67, 0
2, 43947, Note_on_c, 0, 83, 74
2, 43960, Note_on_c, 0, 83, 0
2, 43973, Note_on_c, 0, 82, 82
2, 43981, Control_c, 0, 64, 0
2, 43998, Note_on_c, 0, 82, 0
2, 44015, Note_on_c, 0, 81, 88
2, 44039, Note_on_c, 0, 72, 75
2, 44048, Control_c, 0, 64, 127
2, 44051, Note_on_c, 0, 81, 0
2, 44059, Note_on_c, 0, 80, 70
2, 44095, Note_on_c, 0, 80, 0
2, 44121, Note_on_c, 0, 79, 75
2, 44141, Note_on_c, 0, 79, 0
2, 44154, Control_c, 0, 64, 0
2, 44154, Note_on_c, 0, 78, 75
2, 44160, Note_on_c, 0, 64, 69
2, 44161, Note_on_c, 0, 70, 57
2, 44170, Note_on_c, 0, 67, 70
2, 44172, Control_c, 0, 64, 127
2, 44188, Note_on_c, 0, 78, 0
2, 44209, Note_on_c, 0, 77, 89
2, 44225, Note_on_c, 0, 70, 0
2, 44244, Note_on_c, 0, 77, 0
2, 44256, Control_c, 0, 64, 0
2, 44257, Note_on_c, 0, 64, 0
2, 44257, Note_on_c, 0, 76, 94
2, 44279, Note_on_c, 0, 76, 0
2, 44302, Note_on_c, 0, 72, 0
2, 44310, Note_on_c, 0, 67, 0
2, 44313, Control_c, 0, 64, 127
2, 44321, Note_on_c, 0, 75, 84
2, 44343, Note_on_c, 0, 75, 0
2, 44380, Note_on_c, 0, 81, 87
2, 44451, Note_on_c, 0, 81, 0
2, 44451, Note_on_c, 0, 83, 68
2, 44470, Note_on_c, 0, 83, 0
2, 44485, Control_c, 0, 64, 0
2, 44491, Note_on_c, 0, 66, 52
2, 44496, Note_on_c, 0, 84, 77
2, 44497, Note_on_c, 0, 69, 38
2, 44503, Note_on_c, 0, 72, 30
2, 44547, Note_on_c, 0, 84, 0
2, 44547, Note_on_c, 0, 83, 84
2, 44573, Control_c, 0, 64, 127
2, 44585, Note_on_c, 0, 81, 88
2, 44602, Note_on_c, 0, 72, 0
2, 44602, Note_on_c, 0, 69, 0
2, 44605, Note_on_c, 0, 66, 0
2, 44605, Note_on_c, 0, 83, 0
2, 44625, Note_on_c, 0, 81, 0
2, 44639, Note_on_c, 0, 76, 88
2, 44684, Note_on_c, 0, 76, 0
2, 44697, Note_on_c, 0, 81, 79
2, 44738, Note_on_c, 0, 83, 81
2, 44749, Note_on_c, 0, 81, 0
2, 44754, Control_c, 0, 64, 0
2, 44771, Note_on_c, 0, 83, 0
2, 44776, Note_on_c, 0, 72, 54
2, 44776, Note_on_c, 0, 64, 68
2, 44777, Note_on_c, 0, 69, 65
2, 44787, Note_on_c, 0, 84, 87
2, 44794, Note_on_c, 0, 64, 0
2, 44796, Note_on_c, 0, 69, 0
2, 44804, Note_on_c, 0, 72, 0
2, 44809, Control_c, 0, 64, 127
2, 44831, Note_on_c, 0, 83, 92
2, 44836, Note_on_c, 0, 84, 0
2, 44868, Note_on_c, 0, 81, 92
2, 44881, Note_on_c, 0, 83, 0
2, 44889, Control_c, 0, 64, 0
2, 44902, Note_on_c, 0, 81, 0
2, 44925, Control_c, 0, 64, 127
2, 44925, Note_on_c, 0, 78, 101
2, 44954, Note_on_c, 0, 78, 0
2, 44971, Note_on_c, 0, 81, 82
2, 45004, Note_on_c, 0, 83, 91
2, 45005, Control_c, 0, 64, 0
2, 45017, Note_on_c, 0, 81, 0
2, 45035, Note_on_c, 0, 83, 0
2, 45054, Control_c, 0, 64, 127
2, 45056, Note_on_c, 0, 84, 88
2, 45065, Note_on_c, 0, 69, 65
2, 45065, Note_on_c, 0, 63, 73
2, 45072, Note_on_c, 0, 72, 38
2, 45080, Note_on_c, 0, 69, 0
2, 45090, Note_on_c, 0, 72, 0
2, 45104, Note_on_c, 0, 63, 0
2, 45108, Note_on_c, 0, 83, 89
2, 45109, Note_on_c, 0, 84, 0
2, 45144, Note_on_c, 0, 81, 92
2, 45148, Note_on_c, 0, 83, 0
2, 45168, Note_on_c, 0, 81, 0
2, 45185, Control_c, 0, 64, 0
2, 45202, Note_on_c, 0, 81, 95
2, 45233, Control_c, 0, 64, 127
2, 45251, Note_on_c, 0, 84, 87
2, 45253, Note_on_c, 0, 81, 0
2, 45296, Note_on_c, 0, 84, 0
2, 45306, Note_on_c, 0, 90, 82
2, 45348, Note_on_c, 0, 90, 0
2, 45348, Control_c, 0, 64, 0
2, 45360, Note_on_c, 0, 92, 77
2, 45361, Note_on_c, 0, 69, 85
2, 45361, Note_on_c, 0, 62, 85
2, 45362, Note_on_c, 0, 72, 85
2, 45374, Note_on_c, 0, 92, 0
2, 45378, Note_on_c, 0, 69, 0
2, 45383, Note_on_c, 0, 72, 0
2, 45384, Note_on_c, 0, 62, 0
2, 45387, Control_c, 0, 64, 127
2, 45432, Note_on_c, 0, 90, 75
2, 45459, Note_on_c, 0, 84, 77
2, 45484, Control_c, 0, 64, 0
2, 45487, Note_on_c, 0, 84, 0
2, 45507, Note_on_c, 0, 81, 76
2, 45514, Note_on_c, 0, 90, 0
2, 45522, Control_c, 0, 64, 127
2, 45551, Note_on_c, 0, 81, 0
2, 45560, Note_on_c, 0, 85, 82
2, 45597, Note_on_c, 0, 90, 74
2, 45604, Note_on_c, 0, 85, 0
2, 45628, Control_c, 0, 64, 0
2, 45633, Note_on_c, 0, 90, 0
2, 45647, Note_on_c, 0, 73, 74
2, 45648, Control_c, 0, 64, 127
2, 45651, Note_on_c, 0, 61, 70
2, 45653, Note_on_c, 0, 92, 66
2, 45654, Note_on_c, 0, 69, 55
2, 45663, Note_on_c, 0, 73, 0
2, 45670, Note_on_c, 0, 69, 0
2, 45687, Note_on_c, 0, 61, 0
2, 45689, Note_on_c, 0, 90, 74
2, 45711, Note_on_c, 0, 92, 0
2, 45729, Note_on_c, 0, 85, 94
2, 45747, Note_on_c, 0, 90, 0
2, 45765, Note_on_c, 0, 85, 0
2, 45791, Note_on_c, 0, 81, 77
2, 45792, Control_c, 0, 64, 0
2, 45834, Note_on_c, 0, 81, 0
2, 45845, Note_on_c, 0, 87, 83
2, 45854, Control_c, 0, 64, 127
2, 45876, Note_on_c, 0, 59, 73
2, 45897, Note_on_c, 0, 90, 83
2, 45919, Note_on_c, 0, 87, 0
2, 45941, Note_on_c, 0, 59, 0
2, 45950, Note_on_c, 0, 90, 0
2, 45952, Note_on_c, 0, 92, 85
2, 45955, Note_on_c, 0, 66, 85
2, 45986, Note_on_c, 0, 92, 0
2, 46016, Note_on_c, 0, 93, 95
2, 46039, Note_on_c, 0, 69, 77
2, 46043, Control_c, 0, 64, 0
2, 46055, Note_on_c, 0, 93, 0
2, 46072, Note_on_c, 0, 94, 94
2, 46092, Control_c, 0, 64, 127
2, 46102, Note_on_c, 0, 75, 87
2, 46107, Note_on_c, 0, 94, 0
2, 46129, Note_on_c, 0, 95, 105
2, 46189, Note_on_c, 0, 96, 90
2, 46190, Note_on_c, 0, 95, 0
2, 46197, Note_on_c, 0, 69, 0
2, 46202, Note_on_c, 0, 75, 0
2, 46217, Note_on_c, 0, 66, 0
2, 46231, Note_on_c, 0, 96, 0
2, 46241, Note_on_c, 0, 99, 87
2, 46289, Note_on_c, 0, 97, 93
2, 46310, Note_on_c, 0, 99, 0
2, 46333, Note_on_c, 0, 97, 0
2, 46336, Note_on_c, 0, 93, 76
2, 46382, Note_on_c, 0, 94, 102
2, 46388, Note_on_c, 0, 93, 0
2, 46426, Note_on_c, 0, 97, 90
2, 46429, Note_on_c, 0, 94, 0
2, 46471, Note_on_c, 0, 95, 84
2, 46492, Note_on_c, 0, 97, 0
2, 46518, Note_on_c, 0, 95, 0
2, 46521, Note_on_c, 0, 91, 92
2, 46570, Note_on_c, 0, 92, 99
2, 46577, Note_on_c, 0, 91, 0
2, 46620, Note_on_c, 0, 92, 0
2, 46621, Note_on_c, 0, 95, 80
2, 46665, Note_on_c, 0, 93, 72
2, 46678, Note_on_c, 0, 95, 0
2, 46699, Note_on_c, 0, 89, 87
2, 46702, Note_on_c, 0, 93, 0
2, 46746, Note_on_c, 0, 90, 97
2, 46752, Note_on_c, 0, 89, 0
2, 46789, Note_on_c, 0, 93, 87
2, 46790, Note_on_c, 0, 90, 0
2, 46823, Note_on_c, 0, 92, 102
2, 46845, Note_on_c, 0, 93, 0
2, 46867, Note_on_c, 0, 92, 0
2, 46873, Note_on_c, 0, 86, 67
2, 46917, Note_on_c, 0, 87, 91
2, 46920, Note_on_c, 0, 86, 0
2, 46961, Note_on_c, 0, 92, 103
2, 46966, Note_on_c, 0, 87, 0
2, 46999, Note_on_c, 0, 90, 78
2, 47022, Note_on_c, 0, 92, 0
2, 47050, Note_on_c, 0, 90, 0
2, 47050, Note_on_c, 0, 84, 68
2, 47094, Note_on_c, 0, 87, 78
2, 47097, Note_on_c, 0, 84, 0
2, 47144, Note_on_c, 0, 92, 85
2, 47151, Note_on_c, 0, 87, 0
2, 47181, Note_on_c, 0, 90, 73
2, 47203, Note_on_c, 0, 92, 0
2, 47219, Note_on_c, 0, 90, 0
2, 47231, Note_on_c, 0, 83, 80
2, 47273, Note_on_c, 0, 84, 98
2, 47274, Note_on_c, 0, 83, 0
2, 47313, Note_on_c, 0, 84, 0
2, 47313, Note_on_c, 0, 87, 84
2, 47362, Note_on_c, 0, 85, 89
2, 47384, Note_on_c, 0, 87, 0
2, 47411, Note_on_c, 0, 81, 74
2, 47414, Note_on_c, 0, 85, 0
2, 47464, Note_on_c, 0, 81, 0
2, 47464, Note_on_c, 0, 82, 93
2, 47500, Note_on_c, 0, 85, 63
2, 47504, Control_c, 0, 64, 0
2, 47510, Note_on_c, 0, 82, 0
2, 47545, Note_on_c, 0, 83, 68
2, 47546, Control_c, 0, 64, 127
2, 47562, Note_on_c, 0, 85, 0
2, 47583, Note_on_c, 0, 83, 0
2, 47588, Note_on_c, 0, 79, 85
2, 47631, Note_on_c, 0, 79, 0
2, 47632, Note_on_c, 0, 80, 94
2, 47677, Note_on_c, 0, 83, 80
2, 47679, Note_on_c, 0, 80, 0
2, 47722, Note_on_c, 0, 81, 80
2, 47737, Note_on_c, 0, 83, 0
2, 47757, Note_on_c, 0, 81, 0
2, 47762, Note_on_c, 0, 77, 88
2, 47765, Control_c, 0, 64, 0
2, 47804, Note_on_c, 0, 78, 97
2, 47806, Note_on_c, 0, 77, 0
2, 47813, Control_c, 0, 64, 127
2, 47849, Note_on_c, 0, 78, 0
2, 47850, Note_on_c, 0, 81, 79
2, 47882, Note_on_c, 0, 80, 101
2, 47904, Note_on_c, 0, 81, 0
2, 47939, Note_on_c, 0, 80, 0
2, 47939, Note_on_c, 0, 74, 76
2, 47983, Note_on_c, 0, 74, 0
2, 47983, Note_on_c, 0, 75, 89
2, 48023, Note_on_c, 0, 80, 88
2, 48025, Note_on_c, 0, 75, 0
2, 48041, Control_c, 0, 64, 0
2, 48068, Note_on_c, 0, 78, 87
2, 48100, Note_on_c, 0, 80, 0
2, 48102, Control_c, 0, 64, 127
2, 48115, Note_on_c, 0, 78, 0
2, 48120, Note_on_c, 0, 72, 76
2, 48163, Note_on_c, 0, 75, 81
2, 48166, Note_on_c, 0, 72, 0
2, 48209, Note_on_c, 0, 80, 78
2, 48216, Note_on_c, 0, 75, 0
2, 48251, Note_on_c, 0, 78, 78
2, 48280, Note_on_c, 0, 80, 0
2, 48291, Note_on_c, 0, 78, 0
2, 48304, Control_c, 0, 64, 0
2, 48305, Note_on_c, 0, 71, 86
2, 48350, Note_on_c, 0, 71, 0
2, 48353, Control_c, 0, 64, 127
2, 48359, Note_on_c, 0, 73, 88
2, 48405, Note_on_c, 0, 73, 0
2, 48414, Note_on_c, 0, 75, 86
2, 48445, Note_on_c, 0, 75, 0
2, 48473, Note_on_c, 0, 76, 83
2, 48509, Note_on_c, 0, 76, 0
2, 48530, Note_on_c, 0, 78, 82
2, 48574, Note_on_c, 0, 78, 0
2, 48585, Control_c, 0, 64, 0
2, 48588, Note_on_c, 0, 80, 86
2, 48602, Note_on_c, 0, 71, 83
2, 48618, Note_on_c, 0, 80, 0
2, 48621, Control_c, 0, 64, 127
2, 48639, Note_on_c, 0, 71, 0
2, 48641, Note_on_c, 0, 73, 94
2, 48647, Note_on_c, 0, 81, 82
2, 48668, Note_on_c, 0, 81, 0
2, 48672, Note_on_c, 0, 73, 0
2, 48694, Note_on_c, 0, 75, 83
2, 48698, Note_on_c, 0, 83, 80
2, 48724, Note_on_c, 0, 75, 0
2, 48750, Note_on_c, 0, 76, 83
2, 48750, Note_on_c, 0, 85, 83
2, 48754, Note_on_c, 0, 83, 0
2, 48766, Note_on_c, 0, 76, 0
2, 48791, Note_on_c, 0, 85, 0
2, 48791, Note_on_c, 0, 78, 84
2, 48798, Note_on_c, 0, 87, 82
2, 48819, Note_on_c, 0, 87, 0
2, 48837, Note_on_c, 0, 80, 95
2, 48840, Note_on_c, 0, 78, 0
2, 48848, Note_on_c, 0, 88, 85
2, 48851, Note_on_c, 0, 80, 0
2, 48880, Note_on_c, 0, 81, 86
2, 48891, Note_on_c, 0, 88, 0
2, 48892, Note_on_c, 0, 90, 85
2, 48897, Note_on_c, 0, 81, 0
2, 48933, Note_on_c, 0, 83, 81
2, 48938, Note_on_c, 0, 92, 70
2, 48939, Note_on_c, 0, 90, 0
2, 48960, Note_on_c, 0, 83, 0
2, 48969, Note_on_c, 0, 92, 0
2, 48978, Note_on_c, 0, 85, 93
2, 48996, Note_on_c, 0, 85, 0
2, 48996, Note_on_c, 0, 93, 90
2, 49020, Note_on_c, 0, 87, 84
2, 49030, Note_on_c, 0, 95, 87
2, 49033, Note_on_c, 0, 93, 0
2, 49046, Note_on_c, 0, 87, 0
2, 49068, Note_on_c, 0, 88, 74
2, 49074, Note_on_c, 0, 97, 90
2, 49080, Note_on_c, 0, 95, 0
2, 49083, Note_on_c, 0, 88, 0
2, 49103, Note_on_c, 0, 99, 87
2, 49109, Note_on_c, 0, 97, 0
2, 49110, Note_on_c, 0, 90, 59
2, 49118, Note_on_c, 0, 99, 0
2, 49142, Note_on_c, 0, 91, 99
2, 49144, Note_on_c, 0, 90, 0
2, 49147, Note_on_c, 0, 100, 99
2, 49156, Control_c, 0, 64, 0
2, 49158, Note_on_c, 0, 91, 0
2, 49167, Note_on_c, 0, 92, 93
2, 49179, Note_on_c, 0, 100, 0
2, 49186, Control_c, 0, 64, 127
2, 49188, Note_on_c, 0, 102, 104
2, 49197, Note_on_c, 0, 92, 0
2, 49205, Note_on_c, 0, 93, 99
2, 49225, Note_on_c, 0, 93, 0
2, 49275, Note_on_c, 0, 102, 0
2, 49299, Note_on_c, 0, 100, 88
2, 49306, Note_on_c, 0, 92, 90
2, 49318, Note_on_c, 0, 100, 0
2, 49328, Note_on_c, 0, 92, 0
2, 49364, Note_on_c, 0, 90, 93
2, 49370, Note_on_c, 0, 99, 86
2, 49381, Note_on_c, 0, 90, 0
2, 49420, Note_on_c, 0, 97, 96
2, 49426, Note_on_c, 0, 88, 95
2, 49435, Note_on_c, 0, 99, 0
2, 49445, Note_on_c, 0, 88, 0
2, 49480, Note_on_c, 0, 95, 94
2, 49482, Note_on_c, 0, 87, 78
2, 49497, Note_on_c, 0, 87, 0
2, 49498, Note_on_c, 0, 97, 0
2, 49506, Note_on_c, 0, 95, 0
2, 49529, Note_on_c, 0, 93, 91
2, 49529, Note_on_c, 0, 85, 91
2, 49544, Note_on_c, 0, 85, 0
2, 49561, Note_on_c, 0, 93, 0
2, 49571, Note_on_c, 0, 92, 94
2, 49583, Note_on_c, 0, 83, 89
2, 49601, Note_on_c, 0, 83, 0
2, 49621, Note_on_c, 0, 90, 85
2, 49627, Note_on_c, 0, 81, 83
2, 49637, Note_on_c, 0, 92, 0
2, 49646, Note_on_c, 0, 81, 0
2, 49650, Note_on_c, 0, 90, 0
2, 49662, Note_on_c, 0, 80, 81
2, 49667, Note_on_c, 0, 88, 83
2, 49690, Note_on_c, 0, 88, 0
2, 49691, Note_on_c, 0, 80, 0
2, 49703, Note_on_c, 0, 78, 64
2, 49710, Note_on_c, 0, 87, 81
2, 49717, Note_on_c, 0, 78, 0
2, 49751, Note_on_c, 0, 76, 72
2, 49757, Note_on_c, 0, 85, 79
2, 49769, Note_on_c, 0, 76, 0
2, 49781, Note_on_c, 0, 87, 0
2, 49798, Note_on_c, 0, 75, 70
2, 49803, Note_on_c, 0, 83, 85
2, 49818, Note_on_c, 0, 75, 0
2, 49819, Note_on_c, 0, 85, 0
2, 49823, Note_on_c, 0, 83, 0
2, 49839, Note_on_c, 0, 73, 81
2, 49849, Note_on_c, 0, 81, 80
2, 49859, Note_on_c, 0, 73, 0
2, 49887, Note_on_c, 0, 81, 0
2, 49889, Note_on_c, 0, 80, 88
2, 49898, Note_on_c, 0, 71, 83
2, 49915, Note_on_c, 0, 71, 0
2, 49940, Note_on_c, 0, 78, 84
2, 49945, Note_on_c, 0, 69, 50
2, 49965, Note_on_c, 0, 80, 0
2, 49967, Note_on_c, 0, 69, 0
2, 49973, Note_on_c, 0, 78, 0
2, 49976, Note_on_c, 0, 68, 83
2, 49993, Note_on_c, 0, 76, 80
2, 50012, Note_on_c, 0, 76, 0
2, 50013, Note_on_c, 0, 68, 0
2, 50016, Note_on_c, 0, 66, 78
2, 50033, Note_on_c, 0, 66, 0
2, 50039, Note_on_c, 0, 75, 63
2, 50074, Note_on_c, 0, 64, 79
2, 50081, Note_on_c, 0, 73, 79
2, 50112, Note_on_c, 0, 64, 0
2, 50113, Note_on_c, 0, 75, 0
2, 50128, Note_on_c, 0, 63, 81
2, 50128, Note_on_c, 0, 71, 81
2, 50146, Note_on_c, 0, 73, 0
2, 50162, Note_on_c, 0, 71, 0
2, 50164, Note_on_c, 0, 63, 0
2, 50169, Note_on_c, 0, 61, 83
2, 50181, Note_on_c, 0, 61, 0
2, 50181, Note_on_c, 0, 69, 73
2, 50209, Control_c, 0, 64, 0
2, 50218, Note_on_c, 0, 68, 93
2, 50220, Note_on_c, 0, 69, 0
2, 50225, Note_on_c, 0, 59, 83
2, 50255, Control_c, 0, 64, 127
2, 50259, Note_on_c, 0, 59, 0
2, 50262, Note_on_c, 0, 68, 0
2, 50275, Note_on_c, 0, 66, 90
2, 50290, Note_on_c, 0, 63, 85
2, 50314, Note_on_c, 0, 63, 0
2, 50320, Note_on_c, 0, 66, 0
2, 50327, Note_on_c, 0, 68, 87
2, 50337, Note_on_c, 0, 61, 80
2, 50345, Note_on_c, 0, 68, 0
2, 50353, Note_on_c, 0, 61, 0
2, 50379, Note_on_c, 0, 69, 92
2, 50389, Note_on_c, 0, 59, 84
2, 50405, Note_on_c, 0, 59, 0
2, 50425, Note_on_c, 0, 69, 0
2, 50429, Note_on_c, 0, 71, 95
2, 50442, Note_on_c, 0, 57, 84
2, 50460, Note_on_c, 0, 57, 0
2, 50462, Note_on_c, 0, 56, 100
2, 50477, Note_on_c, 0, 73, 88
2, 50481, Note_on_c, 0, 71, 0
2, 50504, Note_on_c, 0, 56, 0
2, 50506, Note_on_c, 0, 54, 82
2, 50525, Note_on_c, 0, 54, 0
2, 50526, Note_on_c, 0, 75, 90
2, 50528, Note_on_c, 0, 73, 0
2, 50551, Note_on_c, 0, 75, 0
2, 50556, Note_on_c, 0, 52, 92
2, 50575, Note_on_c, 0, 76, 88
2, 50591, Note_on_c, 0, 52, 0
2, 50606, Note_on_c, 0, 51, 87
2, 50616, Note_on_c, 0, 78, 93
2, 50619, Note_on_c, 0, 76, 0
2, 50643, Note_on_c, 0, 51, 0
2, 50643, Note_on_c, 0, 49, 102
2, 50659, Note_on_c, 0, 80, 91
2, 50664, Note_on_c, 0, 78, 0
2, 50672, Note_on_c, 0, 49, 0
2, 50689, Note_on_c, 0, 80, 0
2, 50702, Note_on_c, 0, 47, 99
2, 50710, Note_on_c, 0, 81, 100
2, 50738, Note_on_c, 0, 47, 0
2, 50749, Note_on_c, 0, 45, 95
2, 50753, Note_on_c, 0, 83, 94
2, 50759, Note_on_c, 0, 81, 0
2, 50785, Note_on_c, 0, 44, 109
2, 50793, Note_on_c, 0, 45, 0
2, 50798, Note_on_c, 0, 85, 102
2, 50819, Note_on_c, 0, 83, 0
2, 50830, Note_on_c, 0, 44, 0
2, 50836, Note_on_c, 0, 42, 97
2, 50848, Note_on_c, 0, 87, 92
2, 50858, Note_on_c, 0, 42, 0
2, 50858, Note_on_c, 0, 85, 0
2, 50875, Note_on_c, 0, 87, 0
2, 50888, Note_on_c, 0, 40, 94
2, 50898, Note_on_c, 0, 88, 100
2, 50934, Note_on_c, 0, 39, 103
2, 50936, Note_on_c, 0, 40, 0
2, 50941, Note_on_c, 0, 90, 95
2, 50946, Note_on_c, 0, 88, 0
2, 50967, Note_on_c, 0, 37, 94
2, 50976, Note_on_c, 0, 39, 0
2, 50981, Note_on_c, 0, 92, 99
2, 50993, Note_on_c, 0, 90, 0
2, 50998, Note_on_c, 0, 35, 103
2, 51005, Note_on_c, 0, 92, 0
2, 51008, Note_on_c, 0, 37, 0
2, 51008, Note_on_c, 0, 93, 105
2, 51012, Control_c, 0, 64, 0
2, 51024, Note_on_c, 0, 95, 121
2, 51036, Note_on_c, 0, 47, 127
2, 51036, Note_on_c, 0, 83, 127
2, 51040, Note_on_c, 0, 35, 0
2, 51044, Note_on_c, 0, 93, 0
2, 51047, Control_c, 0, 64, 127
2, 51058, Note_on_c, 0, 95, 0
2, 51064, Note_on_c, 0, 47, 0
2, 51064, Note_on_c, 0, 83, 0
2, 51253, Control_c, 0, 64, 0
2, 51291, Note_on_c, 0, 59, 126
2, 51292, Note_on_c, 0, 47, 127
2, 51298, Control_c, 0, 64, 127
2, 51300, Note_on_c, 0, 47, 0
2, 51317, Note_on_c, 0, 59, 0
2, 51472, Control_c, 0, 64, 0
2, 51630, Note_on_c, 0, 80, 105
2, 51635, Note_on_c, 0, 52, 127
2, 51635, Control_c, 0, 64, 127
2, 51635, Note_on_c, 0, 68, 113
2, 51636, Note_on_c, 0, 40, 108
2, 51644, Note_on_c, 0, 52, 0
2, 51647, Note_on_c, 0, 40, 0
2, 51664, Note_on_c, 0, 68, 0
2, 51669, Note_on_c, 0, 80, 0
2, 51695, Note_on_c, 0, 71, 102
2, 51730, Note_on_c, 0, 71, 0
2, 51732, Note_on_c, 0, 76, 98
2, 51764, Note_on_c, 0, 76, 0
2, 51981, Note_on_c, 0, 85, 103
2, 51982, Control_c, 0, 64, 0
2, 51982, Note_on_c, 0, 73, 104
2, 51982, Note_on_c, 0, 58, 99
2, 51984, Note_on_c, 0, 64, 91
2, 51990, Note_on_c, 0, 55, 68
2, 51993, Note_on_c, 0, 58, 0
2, 51998, Note_on_c, 0, 64, 0
2, 52006, Note_on_c, 0, 55, 0
2, 52008, Note_on_c, 0, 73, 0
2, 52011, Note_on_c, 0, 85, 0
2, 52028, Note_on_c, 0, 64, 105
2, 52030, Note_on_c, 0, 58, 102
2, 52032, Note_on_c, 0, 55, 108
2, 52033, Note_on_c, 0, 85, 116
2, 52033, Note_on_c, 0, 73, 112
2, 52042, Note_on_c, 0, 55, 0
2, 52046, Control_c, 0, 64, 127
2, 52051, Note_on_c, 0, 64, 0
2, 52053, Note_on_c, 0, 58, 0
2, 52233, Note_on_c, 0, 58, 92
2, 52235, Note_on_c, 0, 64, 99
2, 52236, Note_on_c, 0, 55, 89
2, 52244, Note_on_c, 0, 58, 0
2, 52247, Note_on_c, 0, 64, 0
2, 52250, Note_on_c, 0, 55, 0
2, 52405, Note_on_c, 0, 56, 115
2, 52407, Note_on_c, 0, 64, 117
2, 52408, Note_on_c, 0, 85, 0
2, 52409, Note_on_c, 0, 59, 113
2, 52416, Note_on_c, 0, 64, 0
2, 52419, Note_on_c, 0, 59, 0
2, 52422, Note_on_c, 0, 73, 0
2, 52427, Note_on_c, 0, 56, 0
2, 52431, Control_c, 0, 64, 0
2, 52592, Note_on_c, 0, 83, 101
2, 52596, Note_on_c, 0, 71, 105
2, 52623, Note_on_c, 0, 83, 0
2, 52625, Note_on_c, 0, 71, 0
2, 52767, Note_on_c, 0, 80, 95
2, 52768, Note_on_c, 0, 68, 107
2, 52769, Note_on_c, 0, 52, 110
2, 52769, Note_on_c, 0, 40, 110
2, 52779, Note_on_c, 0, 40, 0
2, 52779, Control_c, 0, 64, 127
2, 52780, Note_on_c, 0, 52, 0
2, 52802, Note_on_c, 0, 80, 0
2, 52803, Note_on_c, 0, 68, 0
2, 52824, Note_on_c, 0, 71, 103
2, 52858, Note_on_c, 0, 71, 0
2, 52871, Note_on_c, 0, 76, 90
2, 52890, Note_on_c, 0, 76, 0
2, 53059, Note_on_c, 0, 58, 94
2, 53060, Note_on_c, 0, 85, 102
2, 53063, Note_on_c, 0, 73, 104
2, 53064, Note_on_c, 0, 55, 84
2, 53064, Note_on_c, 0, 64, 93
2, 53066, Control_c, 0, 64, 0
2, 53072, Note_on_c, 0, 58, 0
2, 53078, Note_on_c, 0, 64, 0
2, 53079, Note_on_c, 0, 55, 0
2, 53087, Note_on_c, 0, 85, 0
2, 53089, Note_on_c, 0, 73, 0
2, 53109, Note_on_c, 0, 64, 101
2, 53111, Note_on_c, 0, 55, 98
2, 53112, Note_on_c, 0, 73, 113
2, 53112, Note_on_c, 0, 85, 111
2, 53112, Note_on_c, 0, 58, 99
2, 53129, Note_on_c, 0, 55, 0
2, 53132, Control_c, 0, 64, 127
2, 53137, Note_on_c, 0, 64, 0
2, 53137, Note_on_c, 0, 58, 0
2, 53302, Note_on_c, 0, 58, 81
2, 53303, Note_on_c, 0, 64, 92
2, 53304, Note_on_c, 0, 55, 89
2, 53314, Note_on_c, 0, 58, 0
2, 53315, Note_on_c, 0, 64, 0
2, 53319, Note_on_c, 0, 55, 0
2, 53469, Note_on_c, 0, 56, 112
2, 53472, Note_on_c, 0, 64, 108
2, 53473, Note_on_c, 0, 59, 110
2, 53482, Note_on_c, 0, 64, 0
2, 53482, Note_on_c, 0, 85, 0
2, 53483, Note_on_c, 0, 59, 0
2, 53491, Note_on_c, 0, 56, 0
2, 53494, Note_on_c, 0, 73, 0
2, 53536, Control_c, 0, 64, 0
2, 53655, Note_on_c, 0, 83, 98
2, 53659, Note_on_c, 0, 71, 102
2, 53682, Note_on_c, 0, 71, 0
2, 53685, Note_on_c, 0, 83, 0
2, 53816, Note_on_c, 0, 40, 108
2, 53816, Note_on_c, 0, 52, 122
2, 53819, Note_on_c, 0, 80, 99
2, 53820, Note_on_c, 0, 68, 107
2, 53827, Note_on_c, 0, 52, 0
2, 53829, Note_on_c, 0, 40, 0
2, 53832, Control_c, 0, 64, 127
2, 53861, Note_on_c, 0, 68, 0
2, 53904, Note_on_c, 0, 80, 0
2, 53904, Note_on_c, 0, 71, 99
2, 53964, Note_on_c, 0, 71, 0
2, 53977, Note_on_c, 0, 76, 87
2, 53994, Note_on_c, 0, 76, 0
2, 54053, Note_on_c, 0, 58, 101
2, 54057, Note_on_c, 0, 64, 95
2, 54058, Note_on_c, 0, 55, 92
2, 54062, Note_on_c, 0, 85, 108
2, 54064, Note_on_c, 0, 58, 0
2, 54068, Note_on_c, 0, 64, 0
2, 54068, Note_on_c, 0, 73, 73
2, 54071, Note_on_c, 0, 55, 0
2, 54083, Note_on_c, 0, 73, 0
2, 54083, Control_c, 0, 64, 0
2, 54095, Note_on_c, 0, 85, 0
2, 54132, Note_on_c, 0, 56, 110
2, 54133, Note_on_c, 0, 83, 97
2, 54135, Note_on_c, 0, 64, 97
2, 54135, Note_on_c, 0, 59, 97
2, 54138, Note_on_c, 0, 71, 95
2, 54143, Note_on_c, 0, 56, 0
2, 54143, Control_c, 0, 64, 127
2, 54147, Note_on_c, 0, 59, 0
2, 54147, Note_on_c, 0, 64, 0
2, 54178, Note_on_c, 0, 71, 0
2, 54204, Note_on_c, 0, 76, 94
2, 54228, Note_on_c, 0, 83, 0
2, 54253, Note_on_c, 0, 76, 0
2, 54264, Note_on_c, 0, 80, 87
2, 54274, Note_on_c, 0, 64, 103
2, 54276, Note_on_c, 0, 59, 94
2, 54278, Note_on_c, 0, 56, 78
2, 54285, Note_on_c, 0, 80, 0
2, 54287, Note_on_c, 0, 64, 0
2, 54290, Note_on_c, 0, 59, 0
2, 54294, Note_on_c, 0, 56, 0
2, 54337, Note_on_c, 0, 90, 99
2, 54340, Note_on_c, 0, 78, 94
2, 54355, Note_on_c, 0, 78, 0
2, 54372, Note_on_c, 0, 90, 0
2, 54391, Control_c, 0, 64, 0
2, 54420, Note_on_c, 0, 59, 107
2, 54421, Note_on_c, 0, 88, 100
2, 54423, Note_on_c, 0, 76, 102
2, 54423, Note_on_c, 0, 52, 93
2, 54433, Note_on_c, 0, 59, 0
2, 54438, Control_c, 0, 64, 127
2, 54453, Note_on_c, 0, 52, 0
2, 54487, Note_on_c, 0, 88, 0
2, 54488, Note_on_c, 0, 80, 91
2, 54508, Note_on_c, 0, 76, 0
2, 54547, Note_on_c, 0, 83, 94
2, 54550, Note_on_c, 0, 80, 0
2, 54556, Note_on_c, 0, 56, 98
2, 54556, Note_on_c, 0, 59, 102
2, 54563, Note_on_c, 0, 64, 47
2, 54567, Note_on_c, 0, 59, 0
2, 54567, Note_on_c, 0, 83, 0
2, 54579, Note_on_c, 0, 64, 0
2, 54585, Note_on_c, 0, 56, 0
2, 54625, Note_on_c, 0, 81, 94
2, 54626, Note_on_c, 0, 93, 101
2, 54640, Control_c, 0, 64, 0
2, 54642, Note_on_c, 0, 81, 0
2, 54667, Note_on_c, 0, 93, 0
2, 54724, Note_on_c, 0, 48, 124
2, 54726, Note_on_c, 0, 36, 106
2, 54736, Note_on_c, 0, 36, 0
2, 54738, Note_on_c, 0, 80, 97
2, 54744, Note_on_c, 0, 48, 0
2, 54744, Note_on_c, 0, 87, 88
2, 54744, Control_c, 0, 64, 127
2, 54773, Note_on_c, 0, 80, 0
2, 54778, Note_on_c, 0, 87, 0
2, 54794, Note_on_c, 0, 93, 110
2, 54827, Note_on_c, 0, 93, 0
2, 54842, Note_on_c, 0, 80, 86
2, 54843, Note_on_c, 0, 87, 86
2, 54867, Note_on_c, 0, 87, 0
2, 54869, Note_on_c, 0, 80, 0
2, 54887, Note_on_c, 0, 93, 105
2, 54920, Note_on_c, 0, 93, 0
2, 54928, Note_on_c, 0, 87, 96
2, 54930, Note_on_c, 0, 80, 85
2, 54932, Note_on_c, 0, 63, 100
2, 54933, Note_on_c, 0, 68, 93
2, 54941, Note_on_c, 0, 56, 51
2, 54943, Note_on_c, 0, 63, 0
2, 54946, Note_on_c, 0, 68, 0
2, 54949, Note_on_c, 0, 80, 0
2, 54956, Note_on_c, 0, 87, 0
2, 54957, Note_on_c, 0, 56, 0
2, 54976, Note_on_c, 0, 93, 106
2, 54989, Note_on_c, 0, 93, 0
2, 55001, Note_on_c, 0, 87, 89
2, 55004, Note_on_c, 0, 63, 98
2, 55005, Note_on_c, 0, 68, 93
2, 55006, Note_on_c, 0, 80, 71
2, 55008, Note_on_c, 0, 56, 48
2, 55016, Note_on_c, 0, 63, 0
2, 55018, Note_on_c, 0, 68, 0
2, 55025, Note_on_c, 0, 80, 0
2, 55026, Note_on_c, 0, 56, 0
2, 55035, Note_on_c, 0, 87, 0
2, 55040, Control_c, 0, 64, 0
2, 55051, Note_on_c, 0, 93, 95
2, 55059, Note_on_c, 0, 56, 89
2, 55063, Note_on_c, 0, 68, 99
2, 55064, Note_on_c, 0, 63, 99
2, 55069, Note_on_c, 0, 92, 118
2, 55070, Note_on_c, 0, 87, 84
2, 55074, Note_on_c, 0, 80, 94
2, 55076, Note_on_c, 0, 63, 0
2, 55076, Note_on_c, 0, 68, 0
2, 55076, Note_on_c, 0, 56, 0
2, 55085, Note_on_c, 0, 93, 0
2, 55096, Control_c, 0, 64, 127
2, 55278, Note_on_c, 0, 63, 104
2, 55285, Note_on_c, 0, 56, 84
2, 55287, Note_on_c, 0, 68, 48
2, 55288, Note_on_c, 0, 63, 0
2, 55298, Note_on_c, 0, 56, 0
2, 55301, Note_on_c, 0, 68, 0
2, 55421, Note_on_c, 0, 92, 0
2, 55451, Note_on_c, 0, 87, 0
2, 55460, Note_on_c, 0, 80, 0
2, 55462, Note_on_c, 0, 68, 108
2, 55464, Note_on_c, 0, 63, 103
2, 55465, Note_on_c, 0, 56, 101
2, 55473, Note_on_c, 0, 68, 0
2, 55474, Note_on_c, 0, 63, 0
2, 55478, Note_on_c, 0, 56, 0
2, 55674, Note_on_c, 0, 90, 78
2, 55675, Note_on_c, 0, 78, 94
2, 55699, Note_on_c, 0, 90, 0
2, 55700, Note_on_c, 0, 78, 0
2, 55751, Control_c, 0, 64, 0
2, 55837, Note_on_c, 0, 88, 76
2, 55837, Note_on_c, 0, 76, 92
2, 55838, Note_on_c, 0, 37, 101
2, 55842, Note_on_c, 0, 49, 109
2, 55846, Control_c, 0, 64, 127
2, 55852, Note_on_c, 0, 49, 0
2, 55852, Note_on_c, 0, 37, 0
2, 55857, Note_on_c, 0, 88, 0
2, 55866, Note_on_c, 0, 76, 0
2, 55888, Note_on_c, 0, 78, 89
2, 55916, Note_on_c, 0, 78, 0
2, 55933, Note_on_c, 0, 76, 87
2, 55952, Note_on_c, 0, 76, 0
2, 55992, Note_on_c, 0, 87, 97
2, 55994, Note_on_c, 0, 75, 94
2, 55997, Note_on_c, 0, 58, 97
2, 55998, Note_on_c, 0, 55, 91
2, 55998, Note_on_c, 0, 64, 91
2, 56009, Note_on_c, 0, 64, 0
2, 56012, Note_on_c, 0, 55, 0
2, 56013, Note_on_c, 0, 58, 0
2, 56015, Note_on_c, 0, 75, 0
2, 56027, Note_on_c, 0, 87, 0
2, 56035, Control_c, 0, 64, 0
2, 56090, Note_on_c, 0, 85, 104
2, 56094, Note_on_c, 0, 73, 98
2, 56119, Note_on_c, 0, 73, 0
2, 56128, Note_on_c, 0, 85, 0
2, 56207, Note_on_c, 0, 39, 110
2, 56210, Note_on_c, 0, 83, 107
2, 56211, Note_on_c, 0, 51, 111
2, 56212, Note_on_c, 0, 71, 105
2, 56222, Note_on_c, 0, 51, 0
2, 56224, Control_c, 0, 64, 127
2, 56232, Note_on_c, 0, 39, 0
2, 56474, Note_on_c, 0, 66, 79
2, 56477, Note_on_c, 0, 59, 81
2, 56486, Note_on_c, 0, 57, 52
2, 56488, Note_on_c, 0, 66, 0
2, 56491, Note_on_c, 0, 59, 0
2, 56501, Note_on_c, 0, 57, 0
2, 56505, Note_on_c, 0, 71, 0
2, 56521, Note_on_c, 0, 66, 96
2, 56523, Note_on_c, 0, 59, 92
2, 56530, Note_on_c, 0, 57, 97
2, 56531, Note_on_c, 0, 83, 0
2, 56538, Note_on_c, 0, 59, 0
2, 56542, Note_on_c, 0, 57, 0
2, 56546, Note_on_c, 0, 66, 0
2, 56571, Note_on_c, 0, 66, 110
2, 56573, Note_on_c, 0, 57, 101
2, 56575, Note_on_c, 0, 59, 103
2, 56584, Note_on_c, 0, 57, 0
2, 56586, Note_on_c, 0, 59, 0
2, 56586, Note_on_c, 0, 66, 0
2, 56735, Note_on_c, 0, 90, 97
2, 56737, Note_on_c, 0, 78, 100
2, 56759, Note_on_c, 0, 78, 0
2, 56762, Control_c, 0, 64, 0
2, 56765, Note_on_c, 0, 90, 0
2, 56863, Note_on_c, 0, 37, 115
2, 56868, Note_on_c, 0, 49, 118
2, 56871, Note_on_c, 0, 88, 62
2, 56873, Note_on_c, 0, 76, 92
2, 56877, Note_on_c, 0, 49, 0
2, 56881, Control_c, 0, 64, 127
2, 56882, Note_on_c, 0, 37, 0
2, 56887, Note_on_c, 0, 88, 0
2, 56909, Note_on_c, 0, 76, 0
2, 56916, Note_on_c, 0, 78, 94
2, 56948, Note_on_c, 0, 78, 0
2, 56966, Note_on_c, 0, 76, 85
2, 56987, Note_on_c, 0, 76, 0
2, 57028, Note_on_c, 0, 58, 99
2, 57029, Note_on_c, 0, 55, 100
2, 57030, Note_on_c, 0, 87, 92
2, 57032, Note_on_c, 0, 75, 104
2, 57032, Note_on_c, 0, 64, 80
2, 57041, Note_on_c, 0, 58, 0
2, 57044, Note_on_c, 0, 55, 0
2, 57045, Note_on_c, 0, 64, 0
2, 57056, Note_on_c, 0, 75, 0
2, 57065, Note_on_c, 0, 87, 0
2, 57078, Control_c, 0, 64, 0
2, 57130, Note_on_c, 0, 85, 107
2, 57132, Note_on_c, 0, 73, 103
2, 57154, Note_on_c, 0, 73, 0
2, 57164, Note_on_c, 0, 85, 0
2, 57228, Note_on_c, 0, 39, 113
2, 57230, Note_on_c, 0, 51, 124
2, 57233, Note_on_c, 0, 83, 105
2, 57235, Note_on_c, 0, 71, 110
2, 57241, Note_on_c, 0, 51, 0
2, 57248, Note_on_c, 0, 39, 0
2, 57249, Control_c, 0, 64, 127
2, 57461, Note_on_c, 0, 66, 82
2, 57462, Note_on_c, 0, 59, 74
2, 57469, Note_on_c, 0, 57, 58
2, 57475, Note_on_c, 0, 66, 0
2, 57478, Note_on_c, 0, 59, 0
2, 57484, Note_on_c, 0, 57, 0
2, 57490, Note_on_c, 0, 83, 0
2, 57507, Note_on_c, 0, 66, 94
2, 57509, Note_on_c, 0, 59, 98
2, 57516, Note_on_c, 0, 57, 102
2, 57524, Note_on_c, 0, 59, 0
2, 57526, Note_on_c, 0, 57, 0
2, 57526, Note_on_c, 0, 71, 0
2, 57527, Note_on_c, 0, 66, 0
2, 57552, Note_on_c, 0, 66, 116
2, 57557, Note_on_c, 0, 59, 111
2, 57558, Note_on_c, 0, 57, 93
2, 57568, Note_on_c, 0, 59, 0
2, 57570, Note_on_c, 0, 57, 0
2, 57576, Note_on_c, 0, 66, 0
2, 57709, Note_on_c, 0, 78, 102
2, 57712, Note_on_c, 0, 81, 92
2, 57716, Note_on_c, 0, 71, 94
2, 57737, Control_c, 0, 64, 0
2, 57753, Note_on_c, 0, 71, 0
2, 57787, Note_on_c, 0, 81, 0
2, 57797, Note_on_c, 0, 78, 0
2, 57803, Note_on_c, 0, 41, 110
2, 57825, Note_on_c, 0, 53, 105
2, 57834, Note_on_c, 0, 41, 0
2, 57838, Note_on_c, 0, 53, 0
2, 57859, Note_on_c, 0, 80, 112
2, 57860, Note_on_c, 0, 71, 108
2, 57860, Control_c, 0, 64, 127
2, 57915, Note_on_c, 0, 80, 0
2, 57924, Note_on_c, 0, 81, 101
2, 57978, Note_on_c, 0, 80, 110
2, 57984, Note_on_c, 0, 71, 0
2, 58000, Note_on_c, 0, 81, 0
2, 58016, Note_on_c, 0, 68, 108
2, 58020, Note_on_c, 0, 80, 0
2, 58024, Note_on_c, 0, 79, 97
2, 58025, Note_on_c, 0, 62, 86
2, 58027, Note_on_c, 0, 68, 0
2, 58027, Note_on_c, 0, 59, 93
2, 58037, Note_on_c, 0, 62, 0
2, 58041, Note_on_c, 0, 59, 0
2, 58088, Note_on_c, 0, 80, 104
2, 58095, Note_on_c, 0, 79, 0
2, 58125, Control_c, 0, 64, 0
2, 58135, Note_on_c, 0, 80, 0
2, 58150, Note_on_c, 0, 69, 94
2, 58165, Note_on_c, 0, 73, 97
2, 58166, Note_on_c, 0, 69, 0
2, 58177, Note_on_c, 0, 73, 0
2, 58177, Note_on_c, 0, 78, 90
2, 58193, Note_on_c, 0, 42, 112
2, 58195, Control_c, 0, 64, 127
2, 58196, Note_on_c, 0, 54, 107
2, 58204, Note_on_c, 0, 42, 0
2, 58204, Note_on_c, 0, 83, 106
2, 58206, Note_on_c, 0, 54, 0
2, 58209, Note_on_c, 0, 78, 0
2, 58239, Note_on_c, 0, 83, 0
2, 58368, Note_on_c, 0, 66, 94
2, 58368, Note_on_c, 0, 61, 100
2, 58369, Note_on_c, 0, 81, 100
2, 58379, Note_on_c, 0, 66, 0
2, 58384, Note_on_c, 0, 57, 51
2, 58393, Note_on_c, 0, 61, 0
2, 58399, Note_on_c, 0, 57, 0
2, 58408, Note_on_c, 0, 81, 0
2, 58443, Note_on_c, 0, 78, 109
2, 58480, Note_on_c, 0, 78, 0
2, 58501, Control_c, 0, 64, 0
2, 58560, Note_on_c, 0, 36, 90
2, 58560, Note_on_c, 0, 48, 127
2, 58563, Note_on_c, 0, 70, 96
2, 58563, Note_on_c, 0, 76, 103
2, 58569, Note_on_c, 0, 67, 89
2, 58571, Note_on_c, 0, 36, 0
2, 58576, Note_on_c, 0, 75, 51
2, 58579, Control_c, 0, 64, 127
2, 58588, Note_on_c, 0, 48, 0
2, 58593, Note_on_c, 0, 75, 0
2, 58597, Note_on_c, 0, 76, 0
2, 58599, Note_on_c, 0, 78, 76
2, 58607, Note_on_c, 0, 70, 0
2, 58631, Note_on_c, 0, 67, 0
2, 58657, Note_on_c, 0, 76, 85
2, 58691, Note_on_c, 0, 78, 0
2, 58700, Note_on_c, 0, 76, 0
2, 58701, Note_on_c, 0, 75, 108
2, 58709, Note_on_c, 0, 55, 97
2, 58714, Note_on_c, 0, 58, 102
2, 58715, Note_on_c, 0, 64, 81
2, 58728, Note_on_c, 0, 64, 0
2, 58732, Note_on_c, 0, 58, 0
2, 58740, Note_on_c, 0, 55, 0
2, 58762, Note_on_c, 0, 75, 0
2, 58786, Note_on_c, 0, 76, 97
2, 58802, Control_c, 0, 64, 0
2, 58836, Note_on_c, 0, 76, 0
2, 58877, Note_on_c, 0, 80, 108
2, 58879, Note_on_c, 0, 47, 122
2, 58882, Note_on_c, 0, 69, 88
2, 58882, Note_on_c, 0, 35, 97
2, 58888, Note_on_c, 0, 75, 71
2, 58892, Note_on_c, 0, 35, 0
2, 58893, Control_c, 0, 64, 127
2, 58896, Note_on_c, 0, 47, 0
2, 58917, Note_on_c, 0, 69, 0
2, 58928, Note_on_c, 0, 75, 0
2, 58932, Note_on_c, 0, 80, 0
2, 58985, Note_on_c, 0, 78, 101
2, 58989, Note_on_c, 0, 69, 83
2, 59005, Note_on_c, 0, 69, 0
2, 59022, Note_on_c, 0, 78, 0
2, 59086, Note_on_c, 0, 78, 102
2, 59092, Note_on_c, 0, 69, 74
2, 59092, Note_on_c, 0, 63, 96
2, 59096, Note_on_c, 0, 57, 82
2, 59098, Note_on_c, 0, 54, 51
2, 59105, Note_on_c, 0, 63, 0
2, 59107, Note_on_c, 0, 69, 0
2, 59110, Note_on_c, 0, 57, 0
2, 59114, Note_on_c, 0, 54, 0
2, 59117, Note_on_c, 0, 78, 0
2, 59141, Note_on_c, 0, 75, 107
2, 59144, Note_on_c, 0, 54, 78
2, 59145, Control_c, 0, 64, 0
2, 59147, Note_on_c, 0, 63, 88
2, 59150, Note_on_c, 0, 57, 92
2, 59164, Note_on_c, 0, 57, 0
2, 59172, Note_on_c, 0, 63, 0
2, 59182, Control_c, 0, 64, 127
2, 59191, Note_on_c, 0, 73, 113
2, 59191, Note_on_c, 0, 63, 104
2, 59194, Note_on_c, 0, 69, 89
2, 59197, Note_on_c, 0, 57, 101
2, 59207, Note_on_c, 0, 57, 0
2, 59207, Note_on_c, 0, 63, 0
2, 59208, Note_on_c, 0, 75, 0
2, 59208, Note_on_c, 0, 69, 0
2, 59216, Note_on_c, 0, 54, 0
2, 59226, Note_on_c, 0, 73, 0
2, 59550, Note_on_c, 0, 71, 120
2, 59575, Note_on_c, 0, 71, 0
2, 59667, Control_c, 0, 64, 0
2, 59756, Note_on_c, 0, 71, 106
2, 59767, Note_on_c, 0, 54, 117
2, 59770, Note_on_c, 0, 57, 111
2, 59771, Note_on_c, 0, 51, 97
2, 59772, Note_on_c, 0, 47, 94
2, 59775, Note_on_c, 0, 54, 0
2, 59776, Control_c, 0, 64, 127
2, 59780, Note_on_c, 0, 57, 0
2, 59782, Note_on_c, 0, 51, 0
2, 59784, Note_on_c, 0, 47, 0
2, 59788, Note_on_c, 0, 59, 93
2, 59829, Note_on_c, 0, 59, 0
2, 59851, Note_on_c, 0, 71, 0
2, 59855, Note_on_c, 0, 63, 94
2, 59890, Note_on_c, 0, 63, 0
2, 59893, Note_on_c, 0, 66, 100
2, 59905, Note_on_c, 0, 66, 0
2, 59973, Control_c, 0, 64, 0
2, 60012, Note_on_c, 0, 80, 96
2, 60016, Note_on_c, 0, 40, 106
2, 60018, Note_on_c, 0, 52, 122
2, 60022, Note_on_c, 0, 68, 96
2, 60027, Note_on_c, 0, 52, 0
2, 60027, Note_on_c, 0, 40, 0
2, 60033, Control_c, 0, 64, 127
2, 60051, Note_on_c, 0, 68, 0
2, 60056, Note_on_c, 0, 80, 0
2, 60071, Note_on_c, 0, 71, 101
2, 60107, Note_on_c, 0, 71, 0
2, 60114, Note_on_c, 0, 76, 95
2, 60145, Note_on_c, 0, 76, 0
2, 60328, Note_on_c, 0, 58, 90
2, 60328, Control_c, 0, 64, 0
2, 60331, Note_on_c, 0, 85, 100
2, 60331, Note_on_c, 0, 55, 88
2, 60332, Note_on_c, 0, 73, 98
2, 60332, Note_on_c, 0, 64, 90
2, 60340, Note_on_c, 0, 58, 0
2, 60342, Note_on_c, 0, 85, 0
2, 60345, Note_on_c, 0, 55, 0
2, 60346, Note_on_c, 0, 64, 0
2, 60349, Note_on_c, 0, 73, 0
2, 60375, Note_on_c, 0, 58, 91
2, 60377, Note_on_c, 0, 73, 104
2, 60378, Note_on_c, 0, 64, 86
2, 60378, Note_on_c, 0, 85, 96
2, 60378, Note_on_c, 0, 55, 98
2, 60385, Control_c, 0, 64, 127
2, 60390, Note_on_c, 0, 55, 0
2, 60392, Note_on_c, 0, 64, 0
2, 60401, Note_on_c, 0, 58, 0
2, 60572, Note_on_c, 0, 64, 105
2, 60573, Note_on_c, 0, 55, 101
2, 60574, Note_on_c, 0, 58, 78
2, 60584, Note_on_c, 0, 55, 0
2, 60584, Note_on_c, 0, 64, 0
2, 60587, Note_on_c, 0, 58, 0
2, 60719, Control_c, 0, 64, 0
2, 60747, Note_on_c, 0, 56, 110
2, 60749, Note_on_c, 0, 64, 107
2, 60751, Note_on_c, 0, 59, 108
2, 60758, Note_on_c, 0, 64, 0
2, 60759, Note_on_c, 0, 85, 0
2, 60761, Note_on_c, 0, 59, 0
2, 60769, Control_c, 0, 64, 127
2, 60770, Note_on_c, 0, 56, 0
2, 60777, Note_on_c, 0, 73, 0
2, 60849, Control_c, 0, 64, 0
2, 60933, Note_on_c, 0, 83, 102
2, 60935, Note_on_c, 0, 71, 107
2, 60962, Note_on_c, 0, 71, 0
2, 60965, Note_on_c, 0, 83, 0
2, 61109, Note_on_c, 0, 80, 95
2, 61110, Note_on_c, 0, 52, 111
2, 61110, Note_on_c, 0, 40, 95
2, 61115, Control_c, 0, 64, 127
2, 61117, Note_on_c, 0, 68, 102
2, 61124, Note_on_c, 0, 40, 0
2, 61124, Note_on_c, 0, 52, 0
2, 61153, Note_on_c, 0, 68, 0
2, 61166, Note_on_c, 0, 80, 0
2, 61171, Note_on_c, 0, 71, 98
2, 61209, Note_on_c, 0, 71, 0
2, 61215, Note_on_c, 0, 76, 92
2, 61248, Note_on_c, 0, 76, 0
2, 61399, Note_on_c, 0, 58, 98
2, 61402, Note_on_c, 0, 85, 104
2, 61403, Control_c, 0, 64, 0
2, 61403, Note_on_c, 0, 73, 104
2, 61404, Note_on_c, 0, 55, 84
2, 61407, Note_on_c, 0, 64, 73
2, 61411, Note_on_c, 0, 58, 0
2, 61418, Note_on_c, 0, 55, 0
2, 61421, Note_on_c, 0, 64, 0
2, 61428, Note_on_c, 0, 73, 0
2, 61428, Note_on_c, 0, 85, 0
2, 61449, Note_on_c, 0, 73, 118
2, 61449, Note_on_c, 0, 55, 86
2, 61450, Note_on_c, 0, 64, 92
2, 61450, Note_on_c, 0, 85, 120
2, 61454, Note_on_c, 0, 58, 92
2, 61461, Note_on_c, 0, 64, 0
2, 61464, Note_on_c, 0, 55, 0
2, 61471, Note_on_c, 0, 58, 0
2, 61483, Control_c, 0, 64, 127
2, 61642, Note_on_c, 0, 58, 97
2, 61645, Note_on_c, 0, 64, 106
2, 61648, Note_on_c, 0, 55, 92
2, 61652, Note_on_c, 0, 58, 0
2, 61656, Note_on_c, 0, 64, 0
2, 61660, Note_on_c, 0, 55, 0
2, 61816, Note_on_c, 0, 56, 112
2, 61817, Note_on_c, 0, 64, 116
2, 61819, Note_on_c, 0, 85, 0
2, 61819, Note_on_c, 0, 59, 111
2, 61829, Control_c, 0, 64, 0
2, 61830, Note_on_c, 0, 59, 0
2, 61830, Note_on_c, 0, 73, 0
2, 61831, Note_on_c, 0, 64, 0
2, 61838, Note_on_c, 0, 56, 0
2, 61990, Note_on_c, 0, 83, 99
2, 61994, Note_on_c, 0, 71, 102
2, 62016, Note_on_c, 0, 71, 0
2, 62018, Note_on_c, 0, 83, 0
2, 62159, Note_on_c, 0, 40, 94
2, 62163, Note_on_c, 0, 80, 90
2, 62163, Note_on_c, 0, 52, 97
2, 62170, Control_c, 0, 64, 127
2, 62172, Note_on_c, 0, 40, 0
2, 62173, Note_on_c, 0, 68, 95
2, 62174, Note_on_c, 0, 52, 0
2, 62223, Note_on_c, 0, 68, 0
2, 62260, Note_on_c, 0, 71, 95
2, 62265, Note_on_c, 0, 80, 0
2, 62328, Note_on_c, 0, 71, 0
2, 62337, Note_on_c, 0, 76, 91
2, 62370, Note_on_c, 0, 76, 0
2, 62422, Note_on_c, 0, 58, 94
2, 62423, Control_c, 0, 64, 0
2, 62425, Note_on_c, 0, 85, 107
2, 62426, Note_on_c, 0, 64, 94
2, 62428, Note_on_c, 0, 55, 81
2, 62428, Note_on_c, 0, 73, 92
2, 62435, Note_on_c, 0, 58, 0
2, 62437, Note_on_c, 0, 64, 0
2, 62441, Note_on_c, 0, 55, 0
2, 62443, Note_on_c, 0, 73, 0
2, 62455, Note_on_c, 0, 85, 0
2, 62488, Control_c, 0, 64, 127
2, 62501, Note_on_c, 0, 83, 100
2, 62504, Note_on_c, 0, 71, 102
2, 62509, Note_on_c, 0, 56, 108
2, 62512, Note_on_c, 0, 59, 99
2, 62512, Note_on_c, 0, 64, 95
2, 62521, Note_on_c, 0, 56, 0
2, 62524, Note_on_c, 0, 59, 0
2, 62524, Note_on_c, 0, 64, 0
2, 62539, Note_on_c, 0, 71, 0
2, 62578, Note_on_c, 0, 76, 92
2, 62587, Note_on_c, 0, 83, 0
2, 62634, Note_on_c, 0, 76, 0
2, 62638, Note_on_c, 0, 80, 94
2, 62643, Note_on_c, 0, 56, 98
2, 62644, Note_on_c, 0, 64, 100
2, 62645, Note_on_c, 0, 59, 93
2, 62656, Note_on_c, 0, 64, 0
2, 62657, Note_on_c, 0, 56, 0
2, 62658, Note_on_c, 0, 59, 0
2, 62666, Note_on_c, 0, 80, 0
2, 62716, Note_on_c, 0, 90, 102
2, 62717, Note_on_c, 0, 78, 98
2, 62735, Note_on_c, 0, 78, 0
2, 62746, Note_on_c, 0, 90, 0
2, 62753, Control_c, 0, 64, 0
2, 62797, Note_on_c, 0, 88, 103
2, 62799, Note_on_c, 0, 59, 105
2, 62799, Note_on_c, 0, 76, 107
2, 62800, Note_on_c, 0, 52, 100
2, 62800, Note_on_c, 0, 56, 87
2, 62806, Control_c, 0, 64, 127
2, 62813, Note_on_c, 0, 59, 0
2, 62815, Note_on_c, 0, 56, 0
2, 62829, Note_on_c, 0, 88, 0
2, 62832, Note_on_c, 0, 76, 0
2, 62835, Note_on_c, 0, 52, 0
2, 62860, Note_on_c, 0, 76, 37
2, 62873, Note_on_c, 0, 80, 98
2, 62888, Note_on_c, 0, 76, 0
2, 62932, Note_on_c, 0, 80, 0
2, 62933, Note_on_c, 0, 83, 98
2, 62940, Note_on_c, 0, 56, 103
2, 62943, Note_on_c, 0, 64, 84
2, 62943, Note_on_c, 0, 59, 94
2, 62947, Note_on_c, 0, 83, 0
2, 62955, Note_on_c, 0, 59, 0
2, 62957, Note_on_c, 0, 64, 0
2, 62969, Note_on_c, 0, 56, 0
2, 63012, Note_on_c, 0, 81, 103
2, 63012, Note_on_c, 0, 93, 111
2, 63029, Control_c, 0, 64, 0
2, 63046, Note_on_c, 0, 81, 0
2, 63048, Note_on_c, 0, 93, 0
2, 63131, Note_on_c, 0, 35, 90
2, 63136, Note_on_c, 0, 47, 127
2, 63157, Note_on_c, 0, 35, 0
2, 63160, Note_on_c, 0, 47, 0
2, 63182, Note_on_c, 0, 79, 106
2, 63183, Control_c, 0, 64, 127
2, 63184, Note_on_c, 0, 86, 106
2, 63217, Note_on_c, 0, 79, 0
2, 63232, Note_on_c, 0, 86, 0
2, 63245, Note_on_c, 0, 93, 116
2, 63288, Note_on_c, 0, 93, 0
2, 63301, Note_on_c, 0, 86, 105
2, 63305, Note_on_c, 0, 79, 92
2, 63330, Note_on_c, 0, 79, 0
2, 63334, Note_on_c, 0, 86, 0
2, 63353, Note_on_c, 0, 93, 111
2, 63383, Note_on_c, 0, 93, 0
2, 63395, Note_on_c, 0, 86, 99
2, 63396, Note_on_c, 0, 59, 99
2, 63396, Note_on_c, 0, 79, 91
2, 63402, Note_on_c, 0, 67, 99
2, 63402, Note_on_c, 0, 62, 100
2, 63408, Note_on_c, 0, 79, 0
2, 63409, Note_on_c, 0, 55, 80
2, 63413, Note_on_c, 0, 62, 0
2, 63415, Note_on_c, 0, 67, 0
2, 63420, Note_on_c, 0, 59, 0
2, 63423, Note_on_c, 0, 55, 0
2, 63431, Note_on_c, 0, 86, 0
2, 63441, Note_on_c, 0, 93, 110
2, 63456, Note_on_c, 0, 93, 0
2, 63475, Note_on_c, 0, 86, 91
2, 63483, Note_on_c, 0, 67, 98
2, 63484, Note_on_c, 0, 62, 91
2, 63484, Note_on_c, 0, 79, 84
2, 63492, Note_on_c, 0, 59, 99
2, 63492, Note_on_c, 0, 55, 56
2, 63495, Note_on_c, 0, 67, 0
2, 63497, Note_on_c, 0, 62, 0
2, 63498, Note_on_c, 0, 79, 0
2, 63508, Note_on_c, 0, 86, 0
2, 63509, Note_on_c, 0, 55, 0
2, 63516, Note_on_c, 0, 59, 0
2, 63522, Note_on_c, 0, 93, 106
2, 63533, Control_c, 0, 64, 0
2, 63543, Note_on_c, 0, 55, 95
2, 63544, Note_on_c, 0, 67, 108
2, 63545, Note_on_c, 0, 62, 102
2, 63546, Note_on_c, 0, 86, 100
2, 63548, Note_on_c, 0, 91, 105
2, 63551, Note_on_c, 0, 79, 106
2, 63556, Note_on_c, 0, 62, 0
2, 63556, Note_on_c, 0, 67, 0
2, 63557, Note_on_c, 0, 55, 0
2, 63571, Note_on_c, 0, 93, 0
2, 63579, Control_c, 0, 64, 127
2, 63588, Note_on_c, 0, 59, 97
2, 63612, Note_on_c, 0, 59, 0
2, 63752, Note_on_c, 0, 67, 106
2, 63753, Note_on_c, 0, 62, 105
2, 63754, Note_on_c, 0, 55, 103
2, 63756, Note_on_c, 0, 59, 97
2, 63764, Note_on_c, 0, 62, 0
2, 63764, Note_on_c, 0, 67, 0
2, 63767, Note_on_c, 0, 55, 0
2, 63780, Note_on_c, 0, 59, 0
2, 63941, Note_on_c, 0, 91, 0
2, 63967, Note_on_c, 0, 86, 0
2, 63970, Note_on_c, 0, 67, 105
2, 63971, Note_on_c, 0, 62, 105
2, 63972, Note_on_c, 0, 79, 0
2, 63972, Note_on_c, 0, 59, 120
2, 63972, Note_on_c, 0, 55, 105
2, 63979, Note_on_c, 0, 67, 0
2, 63980, Note_on_c, 0, 62, 0
2, 63984, Note_on_c, 0, 55, 0
2, 63996, Note_on_c, 0, 59, 0
2, 64187, Control_c, 0, 64, 0
2, 64201, Note_on_c, 0, 89, 103
2, 64204, Note_on_c, 0, 77, 92
2, 64218, Note_on_c, 0, 77, 0
2, 64230, Note_on_c, 0, 89, 0
2, 64416, Note_on_c, 0, 36, 95
2, 64418, Note_on_c, 0, 88, 89
2, 64422, Control_c, 0, 64, 127
2, 64423, Note_on_c, 0, 48, 82
2, 64428, Note_on_c, 0, 76, 75
2, 64429, Note_on_c, 0, 36, 0
2, 64436, Note_on_c, 0, 48, 0
2, 64444, Note_on_c, 0, 76, 0
2, 64480, Note_on_c, 0, 88, 0
2, 64492, Note_on_c, 0, 79, 84
2, 64533, Note_on_c, 0, 79, 0
2, 64555, Note_on_c, 0, 84, 84
2, 64591, Note_on_c, 0, 84, 0
2, 64608, Note_on_c, 0, 60, 92
2, 64609, Note_on_c, 0, 86, 85
2, 64610, Note_on_c, 0, 64, 83
2, 64612, Note_on_c, 0, 55, 92
2, 64616, Note_on_c, 0, 74, 88
2, 64620, Note_on_c, 0, 60, 0
2, 64623, Note_on_c, 0, 64, 0
2, 64635, Note_on_c, 0, 74, 0
2, 64636, Note_on_c, 0, 55, 0
2, 64644, Note_on_c, 0, 86, 0
2, 64649, Control_c, 0, 64, 0
2, 64718, Note_on_c, 0, 84, 94
2, 64722, Note_on_c, 0, 72, 87
2, 64740, Note_on_c, 0, 72, 0
2, 64753, Note_on_c, 0, 84, 0
2, 64832, Note_on_c, 0, 83, 106
2, 64836, Note_on_c, 0, 51, 124
2, 64836, Note_on_c, 0, 71, 101
2, 64836, Note_on_c, 0, 39, 112
2, 64843, Note_on_c, 0, 78, 80
2, 64846, Note_on_c, 0, 51, 0
2, 64847, Note_on_c, 0, 39, 0
2, 64852, Control_c, 0, 64, 127
2, 65007, Note_on_c, 0, 71, 0
2, 65040, Note_on_c, 0, 78, 0
2, 65052, Note_on_c, 0, 83, 0
2, 65093, Note_on_c, 0, 66, 81
2, 65100, Note_on_c, 0, 57, 69
2, 65101, Note_on_c, 0, 59, 62
2, 65108, Note_on_c, 0, 66, 0
2, 65115, Note_on_c, 0, 57, 0
2, 65117, Note_on_c, 0, 59, 0
2, 65146, Note_on_c, 0, 66, 95
2, 65148, Note_on_c, 0, 59, 95
2, 65148, Note_on_c, 0, 57, 101
2, 65159, Note_on_c, 0, 57, 0
2, 65162, Note_on_c, 0, 59, 0
2, 65165, Note_on_c, 0, 66, 0
2, 65193, Note_on_c, 0, 66, 120
2, 65196, Note_on_c, 0, 59, 108
2, 65199, Note_on_c, 0, 57, 103
2, 65209, Note_on_c, 0, 57, 0
2, 65210, Note_on_c, 0, 59, 0
2, 65215, Note_on_c, 0, 66, 0
2, 65346, Note_on_c, 0, 93, 93
2, 65351, Note_on_c, 0, 81, 103
2, 65370, Note_on_c, 0, 93, 0
2, 65374, Control_c, 0, 64, 0
2, 65401, Note_on_c, 0, 81, 0
2, 65439, Note_on_c, 0, 40, 103
2, 65450, Note_on_c, 0, 52, 127
2, 65459, Note_on_c, 0, 40, 0
2, 65470, Note_on_c, 0, 92, 90
2, 65476, Note_on_c, 0, 52, 0
2, 65476, Note_on_c, 0, 80, 96
2, 65488, Control_c, 0, 64, 127
2, 65520, Note_on_c, 0, 92, 0
2, 65534, Note_on_c, 0, 83, 83
2, 65551, Note_on_c, 0, 80, 0
2, 65578, Note_on_c, 0, 85, 90
2, 65589, Note_on_c, 0, 83, 0
2, 65609, Note_on_c, 0, 68, 103
2, 65614, Note_on_c, 0, 59, 93
2, 65617, Note_on_c, 0, 90, 72
2, 65617, Note_on_c, 0, 64, 90
2, 65620, Note_on_c, 0, 85, 0
2, 65620, Note_on_c, 0, 78, 98
2, 65621, Note_on_c, 0, 68, 0
2, 65628, Note_on_c, 0, 64, 0
2, 65641, Note_on_c, 0, 59, 0
2, 65650, Note_on_c, 0, 78, 0
2, 65651, Note_on_c, 0, 90, 0
2, 65713, Note_on_c, 0, 88, 94
2, 65714, Note_on_c, 0, 76, 102
2, 65735, Control_c, 0, 64, 0
2, 65748, Note_on_c, 0, 76, 0
2, 65754, Note_on_c, 0, 88, 0
2, 65810, Note_on_c, 0, 43, 102
2, 65812, Note_on_c, 0, 55, 119
2, 65819, Note_on_c, 0, 43, 0
2, 65830, Note_on_c, 0, 55, 0
2, 65840, Note_on_c, 0, 87, 112
2, 65842, Note_on_c, 0, 75, 120
2, 65846, Note_on_c, 0, 82, 100
2, 65855, Control_c, 0, 64, 127
2, 65868, Note_on_c, 0, 75, 0
2, 65886, Note_on_c, 0, 82, 0
2, 65907, Note_on_c, 0, 87, 0
2, 66033, Note_on_c, 0, 63, 82
2, 66035, Note_on_c, 0, 61, 68
2, 66035, Note_on_c, 0, 70, 92
2, 66045, Note_on_c, 0, 63, 0
2, 66048, Note_on_c, 0, 70, 0
2, 66049, Note_on_c, 0, 61, 0
2, 66087, Note_on_c, 0, 63, 90
2, 66087, Note_on_c, 0, 61, 84
2, 66089, Note_on_c, 0, 70, 77
2, 66106, Note_on_c, 0, 70, 0
2, 66106, Note_on_c, 0, 63, 0
2, 66111, Note_on_c, 0, 61, 0
2, 66129, Note_on_c, 0, 70, 110
2, 66137, Note_on_c, 0, 63, 108
2, 66137, Note_on_c, 0, 61, 94
2, 66148, Note_on_c, 0, 63, 0
2, 66153, Note_on_c, 0, 70, 0
2, 66161, Note_on_c, 0, 61, 0
2, 66272, Note_on_c, 0, 97, 111
2, 66278, Note_on_c, 0, 85, 107
2, 66295, Note_on_c, 0, 97, 0
2, 66306, Note_on_c, 0, 85, 0
2, 66338, Control_c, 0, 64, 0
2, 66378, Note_on_c, 0, 44, 116
2, 66380, Note_on_c, 0, 56, 127
2, 66390, Note_on_c, 0, 44, 0
2, 66401, Note_on_c, 0, 56, 0
2, 66413, Note_on_c, 0, 95, 90
2, 66418, Note_on_c, 0, 83, 87
2, 66419, Control_c, 0, 64, 127
2, 66447, Note_on_c, 0, 95, 0
2, 66459, Note_on_c, 0, 83, 0
2, 66473, Note_on_c, 0, 86, 97
2, 66514, Note_on_c, 0, 86, 0
2, 66528, Note_on_c, 0, 89, 40
2, 66544, Note_on_c, 0, 89, 0
2, 66557, Note_on_c, 0, 93, 103
2, 66562, Note_on_c, 0, 81, 97
2, 66566, Note_on_c, 0, 62, 89
2, 66568, Note_on_c, 0, 71, 90
2, 66569, Note_on_c, 0, 65, 86
2, 66580, Note_on_c, 0, 62, 0
2, 66580, Note_on_c, 0, 81, 0
2, 66581, Note_on_c, 0, 71, 0
2, 66583, Note_on_c, 0, 65, 0
2, 66589, Note_on_c, 0, 93, 0
2, 66647, Note_on_c, 0, 92, 105
2, 66649, Note_on_c, 0, 80, 105
2, 66671, Note_on_c, 0, 80, 0
2, 66681, Note_on_c, 0, 92, 0
2, 66690, Control_c, 0, 64, 0
2, 66736, Note_on_c, 0, 45, 90
2, 66737, Note_on_c, 0, 57, 127
2, 66742, Note_on_c, 0, 78, 110
2, 66743, Note_on_c, 0, 90, 104
2, 66745, Note_on_c, 0, 45, 0
2, 66749, Control_c, 0, 64, 127
2, 66766, Note_on_c, 0, 57, 0
2, 66771, Note_on_c, 0, 78, 0
2, 66790, Note_on_c, 0, 90, 0
2, 66796, Note_on_c, 0, 81, 95
2, 66836, Note_on_c, 0, 85, 80
2, 66837, Note_on_c, 0, 81, 0
2, 66865, Note_on_c, 0, 85, 0
2, 66881, Note_on_c, 0, 61, 108
2, 66882, Note_on_c, 0, 66, 108
2, 66886, Note_on_c, 0, 69, 75
2, 66886, Note_on_c, 0, 89, 97
2, 66892, Note_on_c, 0, 77, 93
2, 66893, Note_on_c, 0, 66, 0
2, 66900, Note_on_c, 0, 69, 0
2, 66904, Note_on_c, 0, 61, 0
2, 66908, Note_on_c, 0, 77, 0
2, 66918, Note_on_c, 0, 89, 0
2, 66968, Control_c, 0, 64, 0
2, 66978, Note_on_c, 0, 88, 97
2, 66979, Note_on_c, 0, 76, 99
2, 66996, Note_on_c, 0, 88, 0
2, 67003, Note_on_c, 0, 76, 0
2, 67059, Note_on_c, 0, 48, 111
2, 67059, Note_on_c, 0, 60, 122
2, 67060, Note_on_c, 0, 87, 95
2, 67060, Note_on_c, 0, 75, 108
2, 67070, Note_on_c, 0, 48, 0
2, 67076, Control_c, 0, 64, 127
2, 67089, Note_on_c, 0, 75, 0
2, 67090, Note_on_c, 0, 60, 0
2, 67110, Note_on_c, 0, 87, 0
2, 67111, Note_on_c, 0, 79, 88
2, 67146, Note_on_c, 0, 82, 82
2, 67154, Note_on_c, 0, 79, 0
2, 67184, Note_on_c, 0, 82, 0
2, 67197, Note_on_c, 0, 88, 70
2, 67200, Note_on_c, 0, 64, 102
2, 67204, Note_on_c, 0, 67, 69
2, 67204, Note_on_c, 0, 86, 80
2, 67204, Note_on_c, 0, 58, 101
2, 67205, Note_on_c, 0, 76, 51
2, 67211, Note_on_c, 0, 64, 0
2, 67218, Note_on_c, 0, 86, 0
2, 67220, Note_on_c, 0, 67, 0
2, 67222, Note_on_c, 0, 76, 0
2, 67229, Note_on_c, 0, 88, 0
2, 67231, Note_on_c, 0, 58, 0
2, 67287, Note_on_c, 0, 89, 100
2, 67289, Note_on_c, 0, 77, 95
2, 67308, Note_on_c, 0, 77, 0
2, 67320, Note_on_c, 0, 89, 0
2, 67320, Control_c, 0, 64, 0
2, 67370, Note_on_c, 0, 47, 91
2, 67370, Note_on_c, 0, 59, 126
2, 67380, Note_on_c, 0, 80, 103
2, 67382, Note_on_c, 0, 47, 0
2, 67382, Note_on_c, 0, 92, 109
2, 67389, Control_c, 0, 64, 127
2, 67394, Note_on_c, 0, 59, 0
2, 67417, Note_on_c, 0, 80, 0
2, 67424, Note_on_c, 0, 92, 0
2, 67468, Note_on_c, 0, 90, 94
2, 67493, Note_on_c, 0, 90, 0
2, 67554, Note_on_c, 0, 75, 104
2, 67554, Note_on_c, 0, 87, 98
2, 67555, Note_on_c, 0, 66, 105
2, 67555, Note_on_c, 0, 69, 101
2, 67556, Note_on_c, 0, 59, 102
2, 67566, Note_on_c, 0, 66, 0
2, 67567, Note_on_c, 0, 69, 0
2, 67570, Note_on_c, 0, 59, 0
2, 67586, Note_on_c, 0, 75, 0
2, 67605, Note_on_c, 0, 87, 0
2, 67613, Control_c, 0, 64, 0
2, 67614, Note_on_c, 0, 59, 102
2, 67616, Note_on_c, 0, 69, 94
2, 67619, Note_on_c, 0, 66, 91
2, 67622, Note_on_c, 0, 81, 92
2, 67628, Note_on_c, 0, 59, 0
2, 67630, Note_on_c, 0, 69, 0
2, 67633, Note_on_c, 0, 66, 0
2, 67661, Control_c, 0, 64, 127
2, 67671, Note_on_c, 0, 81, 0
2, 67678, Note_on_c, 0, 59, 100
2, 67678, Note_on_c, 0, 69, 108
2, 67678, Note_on_c, 0, 66, 102
2, 67680, Note_on_c, 0, 85, 113
2, 67685, Note_on_c, 0, 75, 98
2, 67691, Note_on_c, 0, 69, 0
2, 67692, Note_on_c, 0, 87, 53
2, 67704, Note_on_c, 0, 66, 0
2, 67708, Note_on_c, 0, 87, 0
2, 67710, Note_on_c, 0, 75, 0
2, 67714, Note_on_c, 0, 59, 0
2, 67757, Note_on_c, 0, 83, 92
2, 67767, Note_on_c, 0, 85, 0
2, 67769, Note_on_c, 0, 83, 0
2, 67830, Note_on_c, 0, 66, 96
2, 67831, Note_on_c, 0, 59, 95
2, 67834, Note_on_c, 0, 71, 103
2, 67836, Note_on_c, 0, 69, 59
2, 67839, Note_on_c, 0, 81, 84
2, 67841, Note_on_c, 0, 83, 86
2, 67842, Note_on_c, 0, 66, 0
2, 67845, Note_on_c, 0, 59, 0
2, 67850, Note_on_c, 0, 69, 0
2, 67854, Note_on_c, 0, 83, 0
2, 67859, Note_on_c, 0, 71, 0
2, 67864, Note_on_c, 0, 81, 0
2, 67894, Note_on_c, 0, 59, 94
2, 67898, Note_on_c, 0, 69, 70
2, 67898, Note_on_c, 0, 66, 87
2, 67900, Note_on_c, 0, 75, 101
2, 67908, Note_on_c, 0, 59, 0
2, 67912, Note_on_c, 0, 69, 0
2, 67912, Note_on_c, 0, 66, 0
2, 67920, Control_c, 0, 64, 0
2, 67932, Note_on_c, 0, 75, 0
2, 67949, Note_on_c, 0, 59, 103
2, 67949, Note_on_c, 0, 69, 89
2, 67951, Note_on_c, 0, 66, 91
2, 67959, Note_on_c, 0, 80, 112
2, 67961, Note_on_c, 0, 69, 0
2, 67963, Control_c, 0, 64, 127
2, 67968, Note_on_c, 0, 71, 94
2, 67973, Note_on_c, 0, 66, 0
2, 67983, Note_on_c, 0, 59, 0
2, 67985, Note_on_c, 0, 71, 0
2, 68008, Note_on_c, 0, 80, 0
2, 68023, Note_on_c, 0, 78, 95
2, 68055, Note_on_c, 0, 78, 0
2, 68107, Note_on_c, 0, 75, 100
2, 68111, Note_on_c, 0, 63, 110
2, 68113, Note_on_c, 0, 57, 120
2, 68114, Note_on_c, 0, 47, 107
2, 68115, Note_on_c, 0, 54, 96
2, 68122, Note_on_c, 0, 57, 0
2, 68125, Note_on_c, 0, 47, 0
2, 68128, Note_on_c, 0, 54, 0
2, 68145, Note_on_c, 0, 63, 0
2, 68166, Note_on_c, 0, 75, 0
2, 68176, Note_on_c, 0, 69, 92
2, 68180, Note_on_c, 0, 47, 98
2, 68180, Note_on_c, 0, 57, 110
2, 68180, Note_on_c, 0, 54, 98
2, 68191, Note_on_c, 0, 57, 0
2, 68192, Note_on_c, 0, 54, 0
2, 68193, Note_on_c, 0, 47, 0
2, 68196, Control_c, 0, 64, 0
2, 68214, Note_on_c, 0, 69, 0
2, 68237, Control_c, 0, 64, 127
2, 68242, Note_on_c, 0, 57, 110
2, 68242, Note_on_c, 0, 73, 107
2, 68242, Note_on_c, 0, 47, 105
2, 68243, Note_on_c, 0, 54, 97
2, 68255, Note_on_c, 0, 57, 0
2, 68255, Note_on_c, 0, 63, 78
2, 68256, Note_on_c, 0, 54, 0
2, 68270, Note_on_c, 0, 47, 0
2, 68275, Note_on_c, 0, 63, 0
2, 68308, Note_on_c, 0, 71, 98
2, 68319, Note_on_c, 0, 73, 0
2, 68320, Note_on_c, 0, 71, 0
2, 68382, Note_on_c, 0, 57, 98
2, 68382, Note_on_c, 0, 47, 100
2, 68382, Note_on_c, 0, 54, 96
2, 68384, Note_on_c, 0, 59, 102
2, 68390, Note_on_c, 0, 69, 97
2, 68393, Note_on_c, 0, 54, 0
2, 68394, Note_on_c, 0, 57, 0
2, 68398, Note_on_c, 0, 47, 0
2, 68402, Note_on_c, 0, 69, 0
2, 68417, Note_on_c, 0, 59, 0
2, 68444, Note_on_c, 0, 54, 92
2, 68445, Note_on_c, 0, 47, 84
2, 68446, Note_on_c, 0, 57, 82
2, 68448, Note_on_c, 0, 63, 101
2, 68460, Note_on_c, 0, 57, 0
2, 68460, Note_on_c, 0, 47, 0
2, 68460, Control_c, 0, 64, 0
2, 68472, Note_on_c, 0, 54, 0
2, 68480, Note_on_c, 0, 63, 0
2, 68501, Note_on_c, 0, 47, 111
2, 68503, Note_on_c, 0, 57, 124
2, 68506, Note_on_c, 0, 51, 111
2, 68508, Note_on_c, 0, 59, 107
2, 68508, Control_c, 0, 64, 127
2, 68510, Note_on_c, 0, 57, 0
2, 68510, Note_on_c, 0, 66, 121
2, 68518, Note_on_c, 0, 51, 0
2, 68528, Note_on_c, 0, 47, 0
2, 68536, Note_on_c, 0, 59, 0
2, 68536, Note_on_c, 0, 66, 0
2, 68934, Control_c, 0, 64, 0
2, 68958, Note_on_c, 0, 64, 113
2, 68961, Note_on_c, 0, 40, 107
2, 68963, Note_on_c, 0, 59, 117
2, 68963, Note_on_c, 0, 56, 111
2, 68964, Note_on_c, 0, 52, 110
2, 68964, Note_on_c, 0, 47, 117
2, 68977, Note_on_c, 0, 47, 0
2, 68979, Note_on_c, 0, 52, 0
2, 68982, Control_c, 0, 64, 127
2, 68988, Note_on_c, 0, 64, 0
2, 68988, Note_on_c, 0, 56, 0
2, 68991, Note_on_c, 0, 59, 0
2, 68991, Note_on_c, 0, 40, 0
2, 69285, Control_c, 0, 64, 0
2, 69784, Note_on_c, 0, 64, 111
2, 69787, Control_c, 0, 64, 127
2, 69792, Note_on_c, 0, 64, 0
2, 69824, Note_on_c, 0, 64, 109
2, 69843, Note_on_c, 0, 64, 0
2, 69873, Note_on_c, 0, 64, 113
2, 69886, Control_c, 0, 64, 0
2, 69906, Note_on_c, 0, 64, 0
2, 69922, Note_on_c, 0, 64, 121
2, 69952, Note_on_c, 0, 64, 0
2, 70175, Note_on_c, 0, 64, 124
2, 70198, Note_on_c, 0, 64, 0
2, 70400, Note_on_c, 0, 33, 93
2, 70403, Note_on_c, 0, 45, 113
2, 70404, Note_on_c, 0, 64, 127
2, 70412, Note_on_c, 0, 33, 0
2, 70417, Control_c, 0, 64, 127
2, 70419, Note_on_c, 0, 45, 0
2, 70703, Note_on_c, 0, 57, 91
2, 70705, Note_on_c, 0, 60, 62
2, 70705, Note_on_c, 0, 52, 77
2, 70717, Note_on_c, 0, 57, 0
2, 70720, Note_on_c, 0, 52, 0
2, 70721, Note_on_c, 0, 60, 0
2, 70751, Note_on_c, 0, 52, 93
2, 70751, Note_on_c, 0, 60, 93
2, 70753, Note_on_c, 0, 57, 93
2, 70765, Note_on_c, 0, 57, 0
2, 70770, Note_on_c, 0, 52, 0
2, 70774, Note_on_c, 0, 60, 0
2, 70806, Note_on_c, 0, 52, 87
2, 70809, Note_on_c, 0, 60, 87
2, 70811, Note_on_c, 0, 57, 91
2, 70819, Note_on_c, 0, 52, 0
2, 70821, Note_on_c, 0, 60, 0
2, 70822, Note_on_c, 0, 57, 0
2, 70999, Note_on_c, 0, 57, 92
2, 70999, Note_on_c, 0, 60, 84
2, 71005, Note_on_c, 0, 52, 76
2, 71012, Note_on_c, 0, 60, 0
2, 71012, Note_on_c, 0, 57, 0
2, 71021, Note_on_c, 0, 52, 0
2, 71025, Note_on_c, 0, 64, 0
2, 71180, Note_on_c, 0, 60, 98
2, 71180, Note_on_c, 0, 57, 103
2, 71182, Note_on_c, 0, 52, 99
2, 71190, Note_on_c, 0, 57, 0
2, 71192, Note_on_c, 0, 60, 0
2, 71196, Note_on_c, 0, 52, 0
2, 71375, Control_c, 0, 64, 0
2, 71416, Note_on_c, 0, 57, 117
2, 71445, Note_on_c, 0, 57, 0
2, 71495, Note_on_c, 0, 59, 114
2, 71526, Note_on_c, 0, 59, 0
2, 71561, Note_on_c, 0, 33, 94
2, 71565, Note_on_c, 0, 45, 116
2, 71568, Note_on_c, 0, 60, 122
2, 71575, Note_on_c, 0, 45, 0
2, 71582, Note_on_c, 0, 33, 0
2, 71589, Control_c, 0, 64, 127
2, 71853, Note_on_c, 0, 63, 95
2, 71859, Note_on_c, 0, 57, 62
2, 71867, Note_on_c, 0, 63, 0
2, 71875, Note_on_c, 0, 57, 0
2, 71904, Note_on_c, 0, 63, 95
2, 71908, Note_on_c, 0, 57, 85
2, 71921, Note_on_c, 0, 57, 0
2, 71923, Note_on_c, 0, 63, 0
2, 71951, Note_on_c, 0, 63, 97
2, 71960, Note_on_c, 0, 57, 97
2, 71967, Note_on_c, 0, 63, 0
2, 71975, Note_on_c, 0, 57, 0
2, 72129, Note_on_c, 0, 63, 95
2, 72137, Note_on_c, 0, 53, 68
2, 72139, Note_on_c, 0, 57, 42
2, 72141, Note_on_c, 0, 63, 0
2, 72152, Note_on_c, 0, 57, 0
2, 72154, Note_on_c, 0, 53, 0
2, 72299, Note_on_c, 0, 63, 111
2, 72306, Note_on_c, 0, 60, 0
2, 72308, Note_on_c, 0, 63, 0
2, 72311, Note_on_c, 0, 53, 80
2, 72313, Note_on_c, 0, 57, 61
2, 72326, Note_on_c, 0, 53, 0
2, 72330, Note_on_c, 0, 57, 0
2, 72447, Control_c, 0, 64, 0
2, 72496, Note_on_c, 0, 59, 110
2, 72518, Note_on_c, 0, 59, 0
2, 72595, Note_on_c, 0, 57, 111
2, 72624, Note_on_c, 0, 57, 0
2, 72704, Note_on_c, 0, 52, 120
2, 72705, Note_on_c, 0, 33, 92
2, 72708, Note_on_c, 0, 45, 108
2, 72719, Note_on_c, 0, 45, 0
2, 72719, Note_on_c, 0, 33, 0
2, 72728, Control_c, 0, 64, 127
2, 72996, Note_on_c, 0, 60, 105
2, 72998, Note_on_c, 0, 57, 105
2, 73012, Note_on_c, 0, 60, 0
2, 73015, Note_on_c, 0, 57, 0
2, 73042, Note_on_c, 0, 60, 88
2, 73046, Note_on_c, 0, 64, 74
2, 73046, Note_on_c, 0, 57, 100
2, 73059, Note_on_c, 0, 57, 0
2, 73063, Note_on_c, 0, 64, 0
2, 73063, Note_on_c, 0, 60, 0
2, 73095, Note_on_c, 0, 64, 97
2, 73099, Note_on_c, 0, 60, 101
2, 73101, Note_on_c, 0, 57, 93
2, 73110, Note_on_c, 0, 60, 0
2, 73113, Note_on_c, 0, 57, 0
2, 73116, Note_on_c, 0, 64, 0
2, 73273, Note_on_c, 0, 60, 78
2, 73273, Note_on_c, 0, 57, 88
2, 73274, Note_on_c, 0, 64, 75
2, 73286, Note_on_c, 0, 57, 0
2, 73288, Note_on_c, 0, 64, 0
2, 73288, Note_on_c, 0, 60, 0
2, 73447, Note_on_c, 0, 64, 84
2, 73449, Note_on_c, 0, 60, 80
2, 73450, Note_on_c, 0, 57, 89
2, 73460, Note_on_c, 0, 64, 0
2, 73463, Note_on_c, 0, 52, 0
2, 73463, Note_on_c, 0, 57, 0
2, 73464, Note_on_c, 0, 60, 0
2, 73558, Control_c, 0, 67, 127
2, 73662, Note_on_c, 0, 51, 86
2, 73704, Control_c, 0, 64, 0
2, 73721, Note_on_c, 0, 52, 101
2, 73723, Note_on_c, 0, 51, 0
2, 73752, Note_on_c, 0, 52, 0
2, 73773, Note_on_c, 0, 55, 102
2, 73799, Note_on_c, 0, 53, 116
2, 73807, Control_c, 0, 67, 0
2, 73816, Note_on_c, 0, 55, 0
2, 73836, Control_c, 0, 64, 127
2, 73967, Note_on_c, 0, 64, 80
2, 73968, Note_on_c, 0, 59, 81
2, 73974, Note_on_c, 0, 62, 56
2, 73980, Note_on_c, 0, 57, 49
2, 73981, Note_on_c, 0, 64, 0
2, 73983, Note_on_c, 0, 59, 0
2, 73991, Note_on_c, 0, 62, 0
2, 73995, Note_on_c, 0, 57, 0
2, 74127, Control_c, 0, 64, 0
2, 74137, Note_on_c, 0, 53, 0
2, 74149, Note_on_c, 0, 52, 114
2, 74257, Control_c, 0, 64, 127
2, 74327, Note_on_c, 0, 64, 75
2, 74328, Note_on_c, 0, 56, 85
2, 74336, Note_on_c, 0, 62, 37
2, 74341, Note_on_c, 0, 56, 0
2, 74341, Note_on_c, 0, 64, 0
2, 74351, Note_on_c, 0, 62, 0
2, 74367, Note_on_c, 0, 52, 0
2, 74521, Control_c, 0, 64, 0
2, 74550, Note_on_c, 0, 52, 127
2, 74564, Control_c, 0, 64, 127
2, 74617, Note_on_c, 0, 52, 0
2, 74726, Note_on_c, 0, 64, 95
2, 74730, Note_on_c, 0, 56, 89
2, 74730, Note_on_c, 0, 62, 89
2, 74733, Note_on_c, 0, 59, 90
2, 74737, Note_on_c, 0, 64, 0
2, 74742, Note_on_c, 0, 62, 0
2, 74746, Note_on_c, 0, 59, 0
2, 74760, Note_on_c, 0, 56, 0
2, 74919, Control_c, 0, 64, 0
2, 74981, Note_on_c, 0, 33, 97
2, 74988, Note_on_c, 0, 45, 119
2, 74989, Note_on_c, 0, 64, 127
2, 74998, Note_on_c, 0, 45, 0
2, 75001, Note_on_c, 0, 33, 0
2, 75008, Control_c, 0, 64, 127
2, 75284, Note_on_c, 0, 60, 103
2, 75288, Note_on_c, 0, 57, 103
2, 75290, Note_on_c, 0, 52, 103
2, 75298, Note_on_c, 0, 60, 0
2, 75303, Note_on_c, 0, 57, 0
2, 75305, Note_on_c, 0, 52, 0
2, 75307, Control_c, 0, 64, 0
2, 75339, Note_on_c, 0, 60, 95
2, 75339, Note_on_c, 0, 52, 95
2, 75340, Note_on_c, 0, 57, 107
2, 75352, Note_on_c, 0, 57, 0
2, 75354, Note_on_c, 0, 52, 0
2, 75357, Note_on_c, 0, 60, 0
2, 75362, Control_c, 0, 64, 127
2, 75388, Note_on_c, 0, 52, 101
2, 75391, Note_on_c, 0, 60, 101
2, 75392, Note_on_c, 0, 57, 101
2, 75401, Note_on_c, 0, 52, 0
2, 75403, Note_on_c, 0, 60, 0
2, 75404, Note_on_c, 0, 57, 0
2, 75549, Control_c, 0, 64, 0
2, 75583, Note_on_c, 0, 60, 92
2, 75587, Note_on_c, 0, 52, 92
2, 75588, Control_c, 0, 64, 127
2, 75590, Note_on_c, 0, 57, 54
2, 75597, Note_on_c, 0, 60, 0
2, 75599, Note_on_c, 0, 52, 0
2, 75606, Note_on_c, 0, 57, 0
2, 75763, Note_on_c, 0, 57, 102
2, 75763, Note_on_c, 0, 60, 95
2, 75764, Note_on_c, 0, 52, 93
2, 75774, Note_on_c, 0, 64, 0
2, 75775, Note_on_c, 0, 57, 0
2, 75775, Note_on_c, 0, 60, 0
2, 75777, Note_on_c, 0, 52, 0
2, 75833, Control_c, 0, 64, 0
2, 75985, Note_on_c, 0, 57, 113
2, 75999, Note_on_c, 0, 57, 0
2, 76078, Note_on_c, 0, 59, 117
2, 76105, Note_on_c, 0, 59, 0
2, 76178, Note_on_c, 0, 33, 95
2, 76182, Note_on_c, 0, 45, 114
2, 76184, Note_on_c, 0, 60, 126
2, 76192, Note_on_c, 0, 45, 0
2, 76193, Note_on_c, 0, 33, 0
2, 76197, Control_c, 0, 64, 127
2, 76446, Note_on_c, 0, 63, 87
2, 76451, Note_on_c, 0, 57, 74
2, 76458, Note_on_c, 0, 53, 47
2, 76459, Note_on_c, 0, 63, 0
2, 76467, Note_on_c, 0, 57, 0
2, 76473, Note_on_c, 0, 53, 0
2, 76495, Note_on_c, 0, 63, 80
2, 76500, Note_on_c, 0, 57, 88
2, 76509, Note_on_c, 0, 53, 70
2, 76514, Note_on_c, 0, 57, 0
2, 76521, Note_on_c, 0, 63, 0
2, 76525, Note_on_c, 0, 53, 0
2, 76546, Note_on_c, 0, 63, 105
2, 76559, Note_on_c, 0, 53, 63
2, 76559, Note_on_c, 0, 57, 59
2, 76560, Note_on_c, 0, 63, 0
2, 76575, Note_on_c, 0, 57, 0
2, 76577, Note_on_c, 0, 53, 0
2, 76705, Note_on_c, 0, 63, 102
2, 76709, Note_on_c, 0, 57, 86
2, 76715, Note_on_c, 0, 53, 64
2, 76717, Note_on_c, 0, 63, 0
2, 76723, Note_on_c, 0, 57, 0
2, 76733, Note_on_c, 0, 53, 0
2, 76878, Note_on_c, 0, 63, 117
2, 76884, Note_on_c, 0, 53, 93
2, 76886, Note_on_c, 0, 57, 95
2, 76887, Note_on_c, 0, 63, 0
2, 76895, Note_on_c, 0, 60, 0
2, 76897, Note_on_c, 0, 53, 0
2, 76898, Note_on_c, 0, 57, 0
2, 76917, Control_c, 0, 64, 0
2, 77080, Note_on_c, 0, 59, 114
2, 77099, Note_on_c, 0, 59, 0
2, 77187, Note_on_c, 0, 57, 119
2, 77211, Note_on_c, 0, 57, 0
2, 77300, Note_on_c, 0, 52, 122
2, 77301, Note_on_c, 0, 33, 97
2, 77302, Note_on_c, 0, 45, 116
2, 77313, Note_on_c, 0, 45, 0
2, 77319, Control_c, 0, 64, 127
2, 77320, Note_on_c, 0, 33, 0
2, 77555, Note_on_c, 0, 64, 67
2, 77558, Note_on_c, 0, 60, 64
2, 77565, Note_on_c, 0, 57, 44
2, 77571, Note_on_c, 0, 64, 0
2, 77575, Note_on_c, 0, 60, 0
2, 77582, Note_on_c, 0, 57, 0
2, 77608, Note_on_c, 0, 64, 68
2, 77609, Note_on_c, 0, 60, 82
2, 77612, Note_on_c, 0, 57, 95
2, 77624, Note_on_c, 0, 64, 0
2, 77625, Note_on_c, 0, 57, 0
2, 77625, Note_on_c, 0, 60, 0
2, 77657, Note_on_c, 0, 64, 93
2, 77662, Note_on_c, 0, 57, 101
2, 77662, Note_on_c, 0, 60, 94
2, 77674, Note_on_c, 0, 60, 0
2, 77676, Note_on_c, 0, 57, 0
2, 77685, Note_on_c, 0, 64, 0
2, 77840, Note_on_c, 0, 60, 85
2, 77840, Note_on_c, 0, 64, 84
2, 77841, Note_on_c, 0, 57, 92
2, 77853, Note_on_c, 0, 60, 0
2, 77854, Note_on_c, 0, 57, 0
2, 77854, Note_on_c, 0, 64, 0
2, 78005, Note_on_c, 0, 64, 99
2, 78008, Note_on_c, 0, 57, 95
2, 78008, Note_on_c, 0, 60, 87
2, 78016, Note_on_c, 0, 64, 0
2, 78021, Note_on_c, 0, 60, 0
2, 78021, Note_on_c, 0, 57, 0
2, 78033, Note_on_c, 0, 52, 0
2, 78229, Control_c, 0, 64, 0
2, 78262, Note_on_c, 0, 51, 99
2, 78298, Note_on_c, 0, 51, 0
2, 78345, Note_on_c, 0, 52, 98
2, 78381, Control_c, 0, 67, 127
2, 78384, Note_on_c, 0, 52, 0
2, 78426, Note_on_c, 0, 32, 99
2, 78432, Note_on_c, 0, 44, 93
2, 78438, Note_on_c, 0, 53, 122
2, 78444, Note_on_c, 0, 44, 0
2, 78451, Note_on_c, 0, 32, 0
2, 78456, Control_c, 0, 64, 127
2, 78723, Note_on_c, 0, 56, 70
2, 78727, Note_on_c, 0, 53, 0
2, 78728, Note_on_c, 0, 65, 55
2, 78732, Note_on_c, 0, 60, 46
2, 78840, Note_on_c, 0, 56, 0
2, 78848, Note_on_c, 0, 60, 0
2, 78856, Note_on_c, 0, 65, 0
2, 78890, Note_on_c, 0, 53, 106
2, 78895, Control_c, 0, 67, 0
2, 79027, Note_on_c, 0, 53, 0
2, 79033, Note_on_c, 0, 56, 71
2, 79035, Note_on_c, 0, 65, 63
2, 79039, Note_on_c, 0, 60, 66
2, 79073, Note_on_c, 0, 65, 0
2, 79074, Note_on_c, 0, 60, 0
2, 79091, Note_on_c, 0, 56, 0
2, 79180, Note_on_c, 0, 53, 116
2, 79309, Note_on_c, 0, 53, 0
2, 79309, Note_on_c, 0, 65, 94
2, 79310, Note_on_c, 0, 56, 98
2, 79315, Note_on_c, 0, 60, 89
2, 79322, Note_on_c, 0, 65, 0
2, 79327, Note_on_c, 0, 60, 0
2, 79341, Note_on_c, 0, 56, 0
2, 79466, Note_on_c, 0, 53, 127
2, 79564, Control_c, 0, 64, 0
2, 79602, Note_on_c, 0, 44, 109
2, 79619, Note_on_c, 0, 44, 0
2, 79649, Control_c, 0, 64, 127
2, 79704, Note_on_c, 0, 53, 0
2, 79739, Note_on_c, 0, 54, 102
2, 79791, Note_on_c, 0, 54, 0
2, 79795, Control_c, 0, 64, 0
2, 79804, Note_on_c, 0, 65, 100
2, 79808, Note_on_c, 0, 61, 98
2, 79810, Note_on_c, 0, 56, 112
2, 79817, Note_on_c, 0, 65, 0
2, 79830, Note_on_c, 0, 61, 0
2, 79856, Control_c, 0, 64, 127
2, 79975, Control_c, 0, 64, 0
2, 79984, Note_on_c, 0, 44, 98
2, 79999, Control_c, 0, 64, 127
2, 80000, Note_on_c, 0, 44, 0
2, 80157, Control_c, 0, 64, 0
2, 80186, Note_on_c, 0, 66, 94
2, 80191, Note_on_c, 0, 53, 110
2, 80196, Note_on_c, 0, 60, 54
2, 80201, Note_on_c, 0, 66, 0
2, 80214, Note_on_c, 0, 60, 0
2, 80214, Control_c, 0, 64, 127
2, 80217, Note_on_c, 0, 56, 0
2, 80396, Note_on_c, 0, 44, 88
2, 80415, Control_c, 0, 64, 0
2, 80421, Note_on_c, 0, 44, 0
2, 80448, Control_c, 0, 64, 127
2, 80510, Note_on_c, 0, 53, 0
2, 80518, Note_on_c, 0, 51, 115
2, 80639, Control_c, 0, 64, 0
2, 80650, Note_on_c, 0, 49, 111
2, 80671, Note_on_c, 0, 51, 0
2, 80843, Control_c, 0, 67, 127
2, 80846, Note_on_c, 0, 37, 78
2, 80860, Control_c, 0, 64, 127
2, 80875, Note_on_c, 0, 37, 0
2, 81044, Note_on_c, 0, 49, 0
2, 81103, Note_on_c, 0, 56, 73
2, 81104, Note_on_c, 0, 65, 72
2, 81106, Note_on_c, 0, 61, 61
2, 81147, Note_on_c, 0, 56, 0
2, 81155, Note_on_c, 0, 61, 0
2, 81209, Note_on_c, 0, 65, 0
2, 81277, Note_on_c, 0, 56, 77
2, 81277, Note_on_c, 0, 61, 73
2, 81283, Note_on_c, 0, 53, 81
2, 81293, Note_on_c, 0, 61, 0
2, 81296, Note_on_c, 0, 56, 0
2, 81297, Note_on_c, 0, 53, 0
2, 81318, Control_c, 0, 67, 0
2, 81441, Note_on_c, 0, 56, 78
2, 81443, Note_on_c, 0, 49, 66
2, 81446, Note_on_c, 0, 53, 69
2, 81458, Note_on_c, 0, 56, 0
2, 81464, Note_on_c, 0, 53, 0
2, 81464, Note_on_c, 0, 49, 0
2, 81596, Note_on_c, 0, 49, 90
2, 81598, Note_on_c, 0, 57, 91
2, 81600, Note_on_c, 0, 53, 54
2, 81612, Note_on_c, 0, 57, 0
2, 81617, Note_on_c, 0, 53, 0
2, 81628, Note_on_c, 0, 49, 0
2, 81815, Control_c, 0, 64, 0
2, 81815, Note_on_c, 0, 48, 111
2, 81870, Control_c, 0, 67, 127
2, 81922, Control_c, 0, 64, 127
2, 81967, Note_on_c, 0, 40, 92
2, 81979, Note_on_c, 0, 40, 0
2, 82021, Control_c, 0, 67, 0
2, 82062, Control_c, 0, 67, 127
2, 82063, Note_on_c, 0, 48, 0
2, 82098, Note_on_c, 0, 50, 105
2, 82145, Note_on_c, 0, 50, 0
2, 82157, Control_c, 0, 64, 0
2, 82165, Note_on_c, 0, 64, 97
2, 82167, Note_on_c, 0, 52, 106
2, 82168, Note_on_c, 0, 60, 81
2, 82172, Note_on_c, 0, 57, 78
2, 82176, Note_on_c, 0, 64, 0
2, 82183, Note_on_c, 0, 60, 0
2, 82187, Note_on_c, 0, 57, 0
2, 82192, Control_c, 0, 67, 0
2, 82210, Control_c, 0, 64, 127
2, 82342, Control_c, 0, 64, 0
2, 82343, Note_on_c, 0, 40, 105
2, 82355, Note_on_c, 0, 40, 0
2, 82379, Control_c, 0, 64, 127
2, 82552, Control_c, 0, 64, 0
2, 82555, Note_on_c, 0, 52, 0
2, 82557, Note_on_c, 0, 48, 106
2, 82559, Note_on_c, 0, 64, 82
2, 82563, Note_on_c, 0, 56, 70
2, 82565, Note_on_c, 0, 59, 79
2, 82568, Note_on_c, 0, 62, 45
2, 82573, Note_on_c, 0, 64, 0
2, 82580, Note_on_c, 0, 59, 0
2, 82585, Note_on_c, 0, 62, 0
2, 82593, Note_on_c, 0, 56, 0
2, 82597, Control_c, 0, 64, 127
2, 82795, Note_on_c, 0, 40, 105
2, 82803, Control_c, 0, 64, 0
2, 82808, Note_on_c, 0, 40, 0
2, 82848, Note_on_c, 0, 48, 0
2, 82856, Control_c, 0, 64, 127
2, 82926, Note_on_c, 0, 47, 117
2, 82956, Note_on_c, 0, 47, 0
2, 83085, Control_c, 0, 64, 0
2, 83144, Note_on_c, 0, 33, 100
2, 83147, Note_on_c, 0, 76, 120
2, 83147, Note_on_c, 0, 88, 114
2, 83148, Note_on_c, 0, 45, 127
2, 83171, Note_on_c, 0, 45, 0
2, 83173, Note_on_c, 0, 33, 0
2, 83175, Control_c, 0, 64, 127
2, 83474, Note_on_c, 0, 64, 92
2, 83476, Note_on_c, 0, 60, 84
2, 83477, Note_on_c, 0, 52, 83
2, 83481, Note_on_c, 0, 57, 74
2, 83486, Note_on_c, 0, 64, 0
2, 83492, Note_on_c, 0, 60, 0
2, 83493, Note_on_c, 0, 52, 0
2, 83497, Note_on_c, 0, 57, 0
2, 83523, Note_on_c, 0, 64, 92
2, 83527, Note_on_c, 0, 60, 90
2, 83528, Note_on_c, 0, 57, 92
2, 83534, Note_on_c, 0, 52, 74
2, 83538, Note_on_c, 0, 64, 0
2, 83540, Note_on_c, 0, 60, 0
2, 83543, Note_on_c, 0, 57, 0
2, 83550, Note_on_c, 0, 52, 0
2, 83571, Note_on_c, 0, 64, 111
2, 83576, Note_on_c, 0, 60, 88
2, 83576, Note_on_c, 0, 52, 84
2, 83578, Note_on_c, 0, 57, 91
2, 83584, Note_on_c, 0, 64, 0
2, 83589, Note_on_c, 0, 60, 0
2, 83591, Note_on_c, 0, 57, 0
2, 83592, Note_on_c, 0, 52, 0
2, 83734, Note_on_c, 0, 88, 0
2, 83748, Note_on_c, 0, 64, 116
2, 83751, Note_on_c, 0, 76, 0
2, 83751, Note_on_c, 0, 57, 103
2, 83752, Note_on_c, 0, 52, 87
2, 83752, Note_on_c, 0, 60, 99
2, 83756, Note_on_c, 0, 64, 0
2, 83762, Note_on_c, 0, 57, 0
2, 83762, Note_on_c, 0, 60, 0
2, 83767, Note_on_c, 0, 52, 0
2, 83931, Note_on_c, 0, 52, 94
2, 83931, Note_on_c, 0, 64, 117
2, 83932, Note_on_c, 0, 57, 110
2, 83932, Note_on_c, 0, 60, 106
2, 83939, Note_on_c, 0, 64, 0
2, 83943, Note_on_c, 0, 60, 0
2, 83944, Note_on_c, 0, 57, 0
2, 83944, Note_on_c, 0, 52, 0
2, 84129, Control_c, 0, 64, 0
2, 84161, Note_on_c, 0, 81, 110
2, 84163, Note_on_c, 0, 69, 108
2, 84175, Note_on_c, 0, 69, 0
2, 84195, Note_on_c, 0, 81, 0
2, 84269, Note_on_c, 0, 71, 116
2, 84269, Note_on_c, 0, 83, 113
2, 84291, Note_on_c, 0, 71, 0
2, 84298, Note_on_c, 0, 83, 0
2, 84363, Note_on_c, 0, 33, 93
2, 84368, Note_on_c, 0, 45, 119
2, 84371, Note_on_c, 0, 72, 126
2, 84371, Note_on_c, 0, 84, 120
2, 84379, Control_c, 0, 64, 127
2, 84390, Note_on_c, 0, 45, 0
2, 84391, Note_on_c, 0, 33, 0
2, 84634, Note_on_c, 0, 63, 86
2, 84641, Note_on_c, 0, 60, 69
2, 84642, Note_on_c, 0, 57, 78
2, 84647, Note_on_c, 0, 53, 56
2, 84648, Note_on_c, 0, 63, 0
2, 84657, Note_on_c, 0, 57, 0
2, 84657, Note_on_c, 0, 60, 0
2, 84666, Note_on_c, 0, 53, 0
2, 84680, Note_on_c, 0, 63, 99
2, 84687, Note_on_c, 0, 60, 90
2, 84689, Note_on_c, 0, 57, 93
2, 84694, Note_on_c, 0, 53, 69
2, 84701, Note_on_c, 0, 60, 0
2, 84702, Note_on_c, 0, 57, 0
2, 84711, Note_on_c, 0, 63, 0
2, 84711, Note_on_c, 0, 53, 0
2, 84737, Note_on_c, 0, 63, 110
2, 84743, Note_on_c, 0, 57, 86
2, 84746, Note_on_c, 0, 60, 75
2, 84748, Note_on_c, 0, 53, 75
2, 84757, Note_on_c, 0, 57, 0
2, 84761, Note_on_c, 0, 60, 0
2, 84763, Note_on_c, 0, 63, 0
2, 84765, Note_on_c, 0, 53, 0
2, 84903, Note_on_c, 0, 63, 103
2, 84907, Note_on_c, 0, 57, 92
2, 84909, Note_on_c, 0, 60, 74
2, 84912, Note_on_c, 0, 53, 76
2, 84916, Note_on_c, 0, 63, 0
2, 84920, Note_on_c, 0, 57, 0
2, 84924, Note_on_c, 0, 60, 0
2, 84924, Note_on_c, 0, 84, 0
2, 84927, Note_on_c, 0, 53, 0
2, 84947, Note_on_c, 0, 72, 0
2, 85071, Note_on_c, 0, 63, 121
2, 85077, Note_on_c, 0, 60, 94
2, 85078, Note_on_c, 0, 57, 99
2, 85079, Note_on_c, 0, 53, 89
2, 85081, Note_on_c, 0, 63, 0
2, 85088, Note_on_c, 0, 60, 0
2, 85089, Note_on_c, 0, 57, 0
2, 85092, Note_on_c, 0, 53, 0
2, 85269, Note_on_c, 0, 83, 89
2, 85270, Note_on_c, 0, 71, 100
2, 85283, Note_on_c, 0, 71, 0
2, 85288, Note_on_c, 0, 83, 0
2, 85324, Control_c, 0, 64, 0
2, 85366, Note_on_c, 0, 81, 111
2, 85368, Note_on_c, 0, 69, 108
2, 85381, Note_on_c, 0, 69, 0
2, 85386, Note_on_c, 0, 81, 0
2, 85474, Note_on_c, 0, 33, 88
2, 85474, Note_on_c, 0, 45, 122
2, 85478, Note_on_c, 0, 76, 119
2, 85478, Note_on_c, 0, 64, 114
2, 85491, Note_on_c, 0, 45, 0
2, 85492, Note_on_c, 0, 33, 0
2, 85492, Control_c, 0, 64, 127
2, 85511, Note_on_c, 0, 64, 0
2, 85530, Note_on_c, 0, 64, 30
2, 85743, Note_on_c, 0, 57, 99
2, 85744, Note_on_c, 0, 60, 88
2, 85748, Note_on_c, 0, 52, 74
2, 85755, Note_on_c, 0, 57, 0
2, 85758, Note_on_c, 0, 60, 0
2, 85765, Note_on_c, 0, 52, 0
2, 85799, Note_on_c, 0, 60, 92
2, 85799, Note_on_c, 0, 52, 89
2, 85801, Note_on_c, 0, 57, 101
2, 85813, Note_on_c, 0, 57, 0
2, 85824, Note_on_c, 0, 60, 0
2, 85824, Note_on_c, 0, 52, 0
2, 85847, Note_on_c, 0, 60, 92
2, 85849, Note_on_c, 0, 57, 99
2, 85850, Note_on_c, 0, 52, 94
2, 85860, Note_on_c, 0, 57, 0
2, 85860, Note_on_c, 0, 60, 0
2, 85863, Note_on_c, 0, 52, 0
2, 86038, Note_on_c, 0, 60, 92
2, 86039, Note_on_c, 0, 52, 97
2, 86040, Note_on_c, 0, 57, 87
2, 86051, Note_on_c, 0, 52, 0
2, 86051, Note_on_c, 0, 60, 0
2, 86054, Note_on_c, 0, 57, 0
2, 86205, Note_on_c, 0, 57, 108
2, 86206, Note_on_c, 0, 60, 95
2, 86209, Note_on_c, 0, 52, 92
2, 86212, Note_on_c, 0, 76, 0
2, 86215, Note_on_c, 0, 64, 0
2, 86215, Note_on_c, 0, 57, 0
2, 86218, Note_on_c, 0, 60, 0
2, 86221, Note_on_c, 0, 52, 0
2, 86396, Note_on_c, 0, 75, 93
2, 86397, Note_on_c, 0, 63, 97
2, 86410, Note_on_c, 0, 63, 0
2, 86429, Note_on_c, 0, 75, 0
2, 86444, Control_c, 0, 64, 0
2, 86477, Note_on_c, 0, 76, 95
2, 86481, Note_on_c, 0, 64, 85
2, 86495, Note_on_c, 0, 64, 0
2, 86502, Note_on_c, 0, 76, 0
2, 86528, Note_on_c, 0, 45, 101
2, 86541, Note_on_c, 0, 45, 0
2, 86551, Note_on_c, 0, 77, 98
2, 86555, Note_on_c, 0, 65, 87
2, 86561, Control_c, 0, 64, 127
2, 86614, Note_on_c, 0, 77, 0
2, 86750, Note_on_c, 0, 65, 0
2, 86768, Note_on_c, 0, 53, 89
2, 86770, Note_on_c, 0, 62, 69
2, 86772, Note_on_c, 0, 68, 90
2, 86772, Note_on_c, 0, 71, 97
2, 86772, Note_on_c, 0, 56, 62
2, 86776, Note_on_c, 0, 59, 56
2, 86781, Note_on_c, 0, 53, 0
2, 86787, Note_on_c, 0, 62, 0
2, 86788, Note_on_c, 0, 56, 0
2, 86793, Note_on_c, 0, 59, 0
2, 86878, Note_on_c, 0, 68, 0
2, 86891, Note_on_c, 0, 71, 0
2, 86916, Control_c, 0, 64, 0
2, 86945, Note_on_c, 0, 76, 116
2, 86946, Note_on_c, 0, 64, 117
2, 86974, Control_c, 0, 64, 127
2, 87090, Note_on_c, 0, 64, 0
2, 87092, Note_on_c, 0, 76, 0
2, 87104, Control_c, 0, 64, 0
2, 87106, Note_on_c, 0, 52, 94
2, 87108, Note_on_c, 0, 62, 81
2, 87108, Note_on_c, 0, 56, 96
2, 87110, Note_on_c, 0, 59, 92
2, 87115, Note_on_c, 0, 68, 107
2, 87116, Control_c, 0, 64, 127
2, 87116, Note_on_c, 0, 71, 111
2, 87119, Note_on_c, 0, 52, 0
2, 87122, Note_on_c, 0, 59, 0
2, 87122, Note_on_c, 0, 56, 0
2, 87123, Note_on_c, 0, 62, 0
2, 87145, Note_on_c, 0, 68, 0
2, 87149, Note_on_c, 0, 71, 0
2, 87292, Control_c, 0, 64, 0
2, 87322, Note_on_c, 0, 76, 114
2, 87324, Note_on_c, 0, 64, 119
2, 87338, Control_c, 0, 64, 127
2, 87409, Note_on_c, 0, 64, 0
2, 87459, Note_on_c, 0, 76, 0
2, 87506, Note_on_c, 0, 62, 98
2, 87507, Note_on_c, 0, 56, 98
2, 87509, Note_on_c, 0, 52, 87
2, 87509, Note_on_c, 0, 68, 100
2, 87510, Note_on_c, 0, 71, 108
2, 87514, Note_on_c, 0, 59, 69
2, 87516, Note_on_c, 0, 62, 0
2, 87529, Note_on_c, 0, 56, 0
2, 87531, Note_on_c, 0, 59, 0
2, 87532, Note_on_c, 0, 52, 0
2, 87538, Note_on_c, 0, 68, 0
2, 87545, Note_on_c, 0, 71, 0
2, 87702, Control_c, 0, 64, 0
2, 87754, Note_on_c, 0, 33, 94
2, 87758, Note_on_c, 0, 45, 127
2, 87760, Note_on_c, 0, 76, 126
2, 87760, Note_on_c, 0, 88, 124
2, 87782, Note_on_c, 0, 45, 0
2, 87785, Note_on_c, 0, 33, 0
2, 87792, Control_c, 0, 64, 127
2, 88051, Note_on_c, 0, 64, 97
2, 88052, Note_on_c, 0, 52, 87
2, 88053, Note_on_c, 0, 60, 90
2, 88055, Note_on_c, 0, 57, 89
2, 88062, Note_on_c, 0, 64, 0
2, 88066, Note_on_c, 0, 60, 0
2, 88067, Note_on_c, 0, 52, 0
2, 88070, Note_on_c, 0, 57, 0
2, 88101, Note_on_c, 0, 64, 92
2, 88105, Note_on_c, 0, 57, 97
2, 88105, Note_on_c, 0, 60, 89
2, 88107, Note_on_c, 0, 52, 84
2, 88118, Note_on_c, 0, 64, 0
2, 88120, Note_on_c, 0, 60, 0
2, 88120, Note_on_c, 0, 57, 0
2, 88123, Note_on_c, 0, 52, 0
2, 88158, Note_on_c, 0, 52, 80
2, 88160, Note_on_c, 0, 64, 84
2, 88164, Note_on_c, 0, 60, 78
2, 88167, Note_on_c, 0, 57, 92
2, 88173, Note_on_c, 0, 64, 0
2, 88180, Note_on_c, 0, 60, 0
2, 88181, Note_on_c, 0, 57, 0
2, 88193, Note_on_c, 0, 52, 0
2, 88226, Note_on_c, 0, 88, 0
2, 88253, Note_on_c, 0, 76, 0
2, 88331, Note_on_c, 0, 64, 92
2, 88332, Note_on_c, 0, 57, 93
2, 88333, Note_on_c, 0, 60, 78
2, 88336, Note_on_c, 0, 52, 72
2, 88343, Note_on_c, 0, 64, 0
2, 88345, Note_on_c, 0, 57, 0
2, 88350, Note_on_c, 0, 60, 0
2, 88352, Note_on_c, 0, 52, 0
2, 88508, Note_on_c, 0, 52, 92
2, 88508, Note_on_c, 0, 64, 114
2, 88509, Note_on_c, 0, 57, 107
2, 88509, Note_on_c, 0, 60, 102
2, 88516, Note_on_c, 0, 64, 0
2, 88520, Note_on_c, 0, 60, 0
2, 88520, Note_on_c, 0, 57, 0
2, 88523, Note_on_c, 0, 52, 0
2, 88679, Control_c, 0, 64, 0
2, 88705, Note_on_c, 0, 81, 111
2, 88707, Note_on_c, 0, 69, 106
2, 88718, Note_on_c, 0, 69, 0
2, 88737, Note_on_c, 0, 81, 0
2, 88796, Note_on_c, 0, 71, 114
2, 88797, Note_on_c, 0, 83, 107
2, 88824, Note_on_c, 0, 71, 0
2, 88828, Note_on_c, 0, 83, 0
2, 88886, Note_on_c, 0, 33, 97
2, 88887, Note_on_c, 0, 45, 127
2, 88893, Note_on_c, 0, 72, 120
2, 88893, Note_on_c, 0, 84, 113
2, 88898, Control_c, 0, 64, 127
2, 88912, Note_on_c, 0, 33, 0
2, 88915, Note_on_c, 0, 45, 0
2, 89162, Note_on_c, 0, 63, 79
2, 89164, Note_on_c, 0, 57, 93
2, 89169, Note_on_c, 0, 60, 62
2, 89173, Note_on_c, 0, 53, 67
2, 89176, Note_on_c, 0, 63, 0
2, 89178, Note_on_c, 0, 57, 0
2, 89186, Note_on_c, 0, 60, 0
2, 89190, Note_on_c, 0, 53, 0
2, 89209, Note_on_c, 0, 63, 94
2, 89217, Note_on_c, 0, 57, 95
2, 89217, Note_on_c, 0, 60, 87
2, 89224, Note_on_c, 0, 53, 76
2, 89230, Note_on_c, 0, 60, 0
2, 89231, Note_on_c, 0, 57, 0
2, 89239, Note_on_c, 0, 63, 0
2, 89240, Note_on_c, 0, 53, 0
2, 89263, Note_on_c, 0, 63, 116
2, 89270, Note_on_c, 0, 57, 92
2, 89271, Note_on_c, 0, 60, 80
2, 89271, Note_on_c, 0, 53, 77
2, 89282, Note_on_c, 0, 57, 0
2, 89286, Note_on_c, 0, 60, 0
2, 89289, Note_on_c, 0, 63, 0
2, 89289, Note_on_c, 0, 53, 0
2, 89444, Note_on_c, 0, 84, 0
2, 89460, Note_on_c, 0, 63, 99
2, 89460, Note_on_c, 0, 53, 99
2, 89460, Note_on_c, 0, 57, 99
2, 89460, Note_on_c, 0, 60, 99
2, 89461, Note_on_c, 0, 72, 0
2, 89470, Note_on_c, 0, 63, 0
2, 89474, Note_on_c, 0, 53, 0
2, 89475, Note_on_c, 0, 57, 0
2, 89496, Note_on_c, 0, 60, 0
2, 89640, Note_on_c, 0, 63, 117
2, 89647, Note_on_c, 0, 53, 93
2, 89648, Note_on_c, 0, 60, 90
2, 89650, Note_on_c, 0, 63, 0
2, 89650, Note_on_c, 0, 57, 93
2, 89660, Note_on_c, 0, 53, 0
2, 89661, Note_on_c, 0, 60, 0
2, 89662, Note_on_c, 0, 57, 0
2, 89788, Control_c, 0, 64, 0
2, 89802, Note_on_c, 0, 81, 108
2, 89805, Note_on_c, 0, 69, 100
2, 89816, Note_on_c, 0, 69, 0
2, 89816, Note_on_c, 0, 81, 0
2, 89908, Note_on_c, 0, 66, 113
2, 89909, Note_on_c, 0, 78, 111
2, 89929, Note_on_c, 0, 66, 0
2, 89940, Note_on_c, 0, 78, 0
2, 90017, Control_c, 0, 64, 127
2, 90019, Note_on_c, 0, 65, 114
2, 90019, Note_on_c, 0, 34, 111
2, 90020, Note_on_c, 0, 77, 113
2, 90021, Note_on_c, 0, 46, 123
2, 90031, Note_on_c, 0, 46, 0
2, 90035, Note_on_c, 0, 34, 0
2, 90299, Note_on_c, 0, 61, 81
2, 90300, Note_on_c, 0, 58, 85
2, 90304, Note_on_c, 0, 53, 87
2, 90315, Note_on_c, 0, 58, 0
2, 90319, Note_on_c, 0, 53, 0
2, 90320, Note_on_c, 0, 61, 0
2, 90350, Note_on_c, 0, 61, 101
2, 90351, Note_on_c, 0, 53, 95
2, 90352, Note_on_c, 0, 58, 94
2, 90367, Note_on_c, 0, 53, 0
2, 90377, Note_on_c, 0, 58, 0
2, 90378, Note_on_c, 0, 61, 0
2, 90404, Note_on_c, 0, 53, 84
2, 90404, Note_on_c, 0, 61, 80
2, 90405, Note_on_c, 0, 58, 87
2, 90419, Note_on_c, 0, 58, 0
2, 90420, Note_on_c, 0, 53, 0
2, 90422, Note_on_c, 0, 61, 0
2, 90572, Note_on_c, 0, 53, 85
2, 90572, Note_on_c, 0, 61, 69
2, 90572, Note_on_c, 0, 58, 72
2, 90585, Note_on_c, 0, 58, 0
2, 90587, Note_on_c, 0, 53, 0
2, 90590, Note_on_c, 0, 61, 0
2, 90707, Note_on_c, 0, 77, 0
2, 90728, Note_on_c, 0, 61, 85
2, 90729, Note_on_c, 0, 58, 90
2, 90736, Note_on_c, 0, 65, 0
2, 90741, Note_on_c, 0, 58, 0
2, 90741, Note_on_c, 0, 61, 0
2, 90741, Note_on_c, 0, 53, 40
2, 90755, Note_on_c, 0, 53, 0
2, 90943, Note_on_c, 0, 76, 84
2, 90944, Note_on_c, 0, 64, 77
2, 90958, Note_on_c, 0, 76, 0
2, 90959, Note_on_c, 0, 64, 0
2, 90971, Control_c, 0, 64, 0
2, 91039, Note_on_c, 0, 65, 84
2, 91040, Note_on_c, 0, 77, 78
2, 91057, Note_on_c, 0, 65, 0
2, 91060, Note_on_c, 0, 77, 0
2, 91086, Control_c, 0, 67, 127
2, 91124, Note_on_c, 0, 46, 87
2, 91126, Note_on_c, 0, 78, 92
2, 91128, Control_c, 0, 64, 127
2, 91131, Note_on_c, 0, 66, 72
2, 91138, Note_on_c, 0, 46, 0
2, 91259, Note_on_c, 0, 66, 0
2, 91278, Note_on_c, 0, 78, 0
2, 91283, Control_c, 0, 67, 0
2, 91322, Note_on_c, 0, 54, 73
2, 91323, Note_on_c, 0, 73, 70
2, 91326, Note_on_c, 0, 70, 57
2, 91326, Note_on_c, 0, 61, 64
2, 91326, Note_on_c, 0, 64, 74
2, 91340, Note_on_c, 0, 64, 0
2, 91340, Note_on_c, 0, 54, 0
2, 91340, Note_on_c, 0, 61, 0
2, 91344, Note_on_c, 0, 70, 0
2, 91363, Note_on_c, 0, 73, 0
2, 91461, Control_c, 0, 64, 0
2, 91481, Note_on_c, 0, 78, 112
2, 91484, Note_on_c, 0, 66, 111
2, 91497, Control_c, 0, 64, 127
2, 91574, Note_on_c, 0, 66, 0
2, 91601, Note_on_c, 0, 78, 0
2, 91625, Note_on_c, 0, 64, 95
2, 91625, Note_on_c, 0, 61, 90
2, 91626, Note_on_c, 0, 54, 87
2, 91628, Note_on_c, 0, 58, 63
2, 91628, Note_on_c, 0, 73, 81
2, 91629, Note_on_c, 0, 70, 78
2, 91637, Note_on_c, 0, 61, 0
2, 91637, Note_on_c, 0, 64, 0
2, 91640, Note_on_c, 0, 54, 0
2, 91644, Note_on_c, 0, 58, 0
2, 91646, Note_on_c, 0, 70, 0
2, 91670, Note_on_c, 0, 73, 0
2, 91782, Control_c, 0, 64, 0
2, 91783, Note_on_c, 0, 78, 111
2, 91786, Note_on_c, 0, 66, 120
2, 91818, Control_c, 0, 64, 127
2, 91882, Note_on_c, 0, 64, 93
2, 91883, Note_on_c, 0, 58, 90
2, 91884, Note_on_c, 0, 54, 77
2, 91884, Note_on_c, 0, 61, 84
2, 91893, Note_on_c, 0, 64, 0
2, 91894, Note_on_c, 0, 66, 0
2, 91897, Note_on_c, 0, 58, 0
2, 91897, Note_on_c, 0, 61, 0
2, 91904, Note_on_c, 0, 78, 0
2, 91914, Note_on_c, 0, 54, 0
2, 91945, Note_on_c, 0, 73, 86
2, 91946, Note_on_c, 0, 70, 71
2, 91961, Note_on_c, 0, 70, 0
2, 91974, Note_on_c, 0, 73, 0
2, 92061, Control_c, 0, 64, 0
2, 92079, Note_on_c, 0, 35, 101
2, 92089, Note_on_c, 0, 47, 126
2, 92105, Note_on_c, 0, 35, 0
2, 92117, Note_on_c, 0, 47, 0
2, 92117, Control_c, 0, 64, 127
2, 92122, Note_on_c, 0, 79, 105
2, 92123, Note_on_c, 0, 76, 101
2, 92124, Note_on_c, 0, 67, 105
2, 92155, Note_on_c, 0, 67, 0
2, 92168, Note_on_c, 0, 76, 0
2, 92176, Note_on_c, 0, 79, 0
2, 92308, Note_on_c, 0, 59, 95
2, 92309, Note_on_c, 0, 55, 91
2, 92311, Note_on_c, 0, 64, 84
2, 92321, Note_on_c, 0, 59, 0
2, 92323, Note_on_c, 0, 55, 0
2, 92326, Note_on_c, 0, 64, 0
2, 92360, Note_on_c, 0, 78, 97
2, 92362, Note_on_c, 0, 81, 97
2, 92363, Note_on_c, 0, 69, 89
2, 92373, Control_c, 0, 64, 0
2, 92374, Note_on_c, 0, 81, 0
2, 92375, Note_on_c, 0, 69, 0
2, 92376, Note_on_c, 0, 78, 0
2, 92376, Note_on_c, 0, 55, 97
2, 92376, Note_on_c, 0, 64, 97
2, 92378, Note_on_c, 0, 59, 102
2, 92391, Note_on_c, 0, 59, 0
2, 92391, Note_on_c, 0, 64, 0
2, 92395, Note_on_c, 0, 55, 0
2, 92423, Control_c, 0, 64, 127
2, 92425, Note_on_c, 0, 83, 111
2, 92427, Note_on_c, 0, 71, 122
2, 92428, Note_on_c, 0, 79, 108
2, 92428, Note_on_c, 0, 64, 90
2, 92434, Note_on_c, 0, 55, 85
2, 92436, Note_on_c, 0, 59, 72
2, 92448, Note_on_c, 0, 64, 0
2, 92451, Note_on_c, 0, 55, 0
2, 92451, Note_on_c, 0, 59, 0
2, 92575, Note_on_c, 0, 64, 92
2, 92576, Note_on_c, 0, 55, 100
2, 92576, Note_on_c, 0, 59, 99
2, 92586, Note_on_c, 0, 64, 0
2, 92588, Note_on_c, 0, 55, 0
2, 92589, Note_on_c, 0, 59, 0
2, 92701, Control_c, 0, 64, 0
2, 92743, Note_on_c, 0, 40, 92
2, 92745, Note_on_c, 0, 52, 127
2, 92760, Control_c, 0, 64, 127
2, 92768, Note_on_c, 0, 71, 0
2, 92769, Note_on_c, 0, 40, 0
2, 92772, Note_on_c, 0, 79, 0
2, 92774, Note_on_c, 0, 83, 0
2, 92774, Note_on_c, 0, 52, 0
2, 92917, Note_on_c, 0, 64, 101
2, 92919, Note_on_c, 0, 59, 103
2, 92921, Note_on_c, 0, 55, 98
2, 92928, Note_on_c, 0, 64, 0
2, 92928, Note_on_c, 0, 71, 120
2, 92928, Note_on_c, 0, 83, 114
2, 92929, Note_on_c, 0, 59, 0
2, 92930, Note_on_c, 0, 79, 111
2, 92955, Note_on_c, 0, 55, 0
2, 92960, Note_on_c, 0, 71, 0
2, 92967, Note_on_c, 0, 79, 0
2, 92977, Note_on_c, 0, 83, 0
2, 93065, Control_c, 0, 64, 0
2, 93120, Note_on_c, 0, 39, 113
2, 93120, Note_on_c, 0, 51, 127
2, 93130, Note_on_c, 0, 39, 0
2, 93130, Note_on_c, 0, 84, 110
2, 93131, Note_on_c, 0, 79, 110
2, 93131, Control_c, 0, 64, 127
2, 93132, Note_on_c, 0, 72, 107
2, 93174, Note_on_c, 0, 72, 0
2, 93189, Note_on_c, 0, 84, 0
2, 93190, Note_on_c, 0, 79, 0
2, 93292, Note_on_c, 0, 67, 102
2, 93294, Note_on_c, 0, 60, 103
2, 93294, Note_on_c, 0, 55, 93
2, 93303, Note_on_c, 0, 67, 0
2, 93306, Note_on_c, 0, 60, 0
2, 93328, Note_on_c, 0, 55, 0
2, 93384, Note_on_c, 0, 74, 99
2, 93384, Note_on_c, 0, 86, 89
2, 93389, Note_on_c, 0, 79, 85
2, 93400, Control_c, 0, 64, 0
2, 93402, Note_on_c, 0, 86, 0
2, 93418, Note_on_c, 0, 74, 0
2, 93431, Note_on_c, 0, 79, 0
2, 93453, Note_on_c, 0, 87, 97
2, 93454, Note_on_c, 0, 36, 71
2, 93456, Note_on_c, 0, 75, 109
2, 93457, Note_on_c, 0, 84, 98
2, 93458, Note_on_c, 0, 48, 99
2, 93462, Note_on_c, 0, 79, 102
2, 93469, Control_c, 0, 64, 127
2, 93472, Note_on_c, 0, 48, 0
2, 93472, Note_on_c, 0, 36, 0
2, 93611, Note_on_c, 0, 84, 0
2, 93621, Note_on_c, 0, 63, 110
2, 93627, Note_on_c, 0, 55, 90
2, 93628, Note_on_c, 0, 60, 91
2, 93635, Note_on_c, 0, 75, 0
2, 93636, Note_on_c, 0, 79, 0
2, 93637, Note_on_c, 0, 63, 0
2, 93640, Note_on_c, 0, 87, 0
2, 93640, Note_on_c, 0, 60, 0
2, 93643, Note_on_c, 0, 55, 0
2, 93759, Control_c, 0, 64, 0
2, 93814, Note_on_c, 0, 32, 115
2, 93816, Note_on_c, 0, 44, 121
2, 93827, Control_c, 0, 64, 127
2, 93830, Note_on_c, 0, 87, 93
2, 93831, Note_on_c, 0, 75, 118
2, 93834, Note_on_c, 0, 84, 102
2, 93835, Note_on_c, 0, 44, 0
2, 93839, Note_on_c, 0, 32, 0
2, 93894, Note_on_c, 0, 87, 0
2, 93899, Note_on_c, 0, 75, 0
2, 93909, Note_on_c, 0, 84, 0
2, 94017, Note_on_c, 0, 63, 110
2, 94022, Note_on_c, 0, 60, 95
2, 94024, Note_on_c, 0, 54, 82
2, 94033, Note_on_c, 0, 60, 0
2, 94035, Note_on_c, 0, 63, 0
2, 94059, Note_on_c, 0, 54, 0
2, 94208, Control_c, 0, 64, 0
2, 94263, Note_on_c, 0, 31, 103
2, 94268, Note_on_c, 0, 43, 120
2, 94271, Note_on_c, 0, 87, 108
2, 94272, Note_on_c, 0, 75, 113
2, 94275, Note_on_c, 0, 84, 106
2, 94278, Note_on_c, 0, 31, 0
2, 94288, Control_c, 0, 64, 127
2, 94294, Note_on_c, 0, 43, 0
2, 94348, Note_on_c, 0, 84, 0
2, 94357, Note_on_c, 0, 75, 0
2, 94377, Note_on_c, 0, 87, 0
2, 94481, Note_on_c, 0, 63, 93
2, 94485, Note_on_c, 0, 60, 86
2, 94488, Note_on_c, 0, 55, 80
2, 94504, Note_on_c, 0, 55, 0
2, 94507, Note_on_c, 0, 60, 0
2, 94514, Note_on_c, 0, 63, 0
2, 94545, Note_on_c, 0, 63, 94
2, 94547, Note_on_c, 0, 60, 97
2, 94547, Note_on_c, 0, 55, 83
2, 94554, Note_on_c, 0, 89, 92
2, 94556, Note_on_c, 0, 77, 94
2, 94563, Note_on_c, 0, 86, 74
2, 94570, Note_on_c, 0, 55, 0
2, 94572, Note_on_c, 0, 77, 0
2, 94575, Note_on_c, 0, 63, 0
2, 94577, Note_on_c, 0, 60, 0
2, 94578, Control_c, 0, 64, 0
2, 94579, Note_on_c, 0, 86, 0
2, 94581, Note_on_c, 0, 89, 0
2, 94604, Note_on_c, 0, 63, 109
2, 94606, Note_on_c, 0, 55, 108
2, 94609, Note_on_c, 0, 60, 103
2, 94619, Note_on_c, 0, 91, 116
2, 94619, Note_on_c, 0, 87, 112
2, 94620, Note_on_c, 0, 60, 0
2, 94622, Note_on_c, 0, 79, 107
2, 94625, Control_c, 0, 64, 127
2, 94629, Note_on_c, 0, 55, 0
2, 94631, Note_on_c, 0, 63, 0
2, 94770, Note_on_c, 0, 91, 0
2, 94791, Note_on_c, 0, 87, 0
2, 94808, Note_on_c, 0, 63, 105
2, 94811, Note_on_c, 0, 55, 105
2, 94814, Note_on_c, 0, 60, 105
2, 94822, Note_on_c, 0, 79, 0
2, 94968, Note_on_c, 0, 63, 0
2, 94974, Note_on_c, 0, 60, 0
2, 94987, Note_on_c, 0, 55, 0
2, 94999, Control_c, 0, 64, 0
2, 95021, Note_on_c, 0, 87, 102
2, 95023, Note_on_c, 0, 75, 111
2, 95039, Control_c, 0, 64, 127
2, 95153, Note_on_c, 0, 87, 0
2, 95164, Note_on_c, 0, 75, 0
2, 95203, Note_on_c, 0, 55, 84
2, 95204, Note_on_c, 0, 65, 74
2, 95204, Note_on_c, 0, 67, 70
2, 95206, Note_on_c, 0, 59, 90
2, 95219, Note_on_c, 0, 67, 0
2, 95220, Note_on_c, 0, 65, 0
2, 95221, Note_on_c, 0, 59, 0
2, 95236, Note_on_c, 0, 55, 0
2, 95320, Note_on_c, 0, 86, 83
2, 95326, Note_on_c, 0, 74, 92
2, 95338, Note_on_c, 0, 86, 0
2, 95383, Control_c, 0, 64, 0
2, 95400, Note_on_c, 0, 74, 0
2, 95406, Note_on_c, 0, 36, 91
2, 95421, Note_on_c, 0, 48, 97
2, 95438, Note_on_c, 0, 36, 0
2, 95439, Note_on_c, 0, 48, 0
2, 95446, Note_on_c, 0, 84, 90
2, 95448, Control_c, 0, 64, 127
2, 95454, Note_on_c, 0, 79, 83
2, 95456, Note_on_c, 0, 72, 76
2, 95470, Note_on_c, 0, 84, 0
2, 95473, Note_on_c, 0, 72, 0
2, 95487, Note_on_c, 0, 79, 0
2, 95688, Note_on_c, 0, 55, 77
2, 95704, Note_on_c, 0, 60, 75
2, 95704, Note_on_c, 0, 63, 76
2, 95705, Note_on_c, 0, 67, 58
2, 95723, Note_on_c, 0, 67, 0
2, 95723, Note_on_c, 0, 63, 0
2, 95724, Note_on_c, 0, 55, 0
2, 95727, Note_on_c, 0, 60, 0
2, 95773, Note_on_c, 0, 63, 72
2, 95773, Note_on_c, 0, 60, 77
2, 95775, Note_on_c, 0, 67, 54
2, 95778, Note_on_c, 0, 55, 59
2, 95791, Note_on_c, 0, 63, 0
2, 95792, Note_on_c, 0, 60, 0
2, 95794, Note_on_c, 0, 67, 0
2, 95797, Note_on_c, 0, 55, 0
2, 95833, Note_on_c, 0, 67, 65
2, 95836, Note_on_c, 0, 60, 72
2, 95839, Note_on_c, 0, 63, 71
2, 95841, Note_on_c, 0, 55, 41
2, 95854, Note_on_c, 0, 63, 0
2, 95855, Note_on_c, 0, 67, 0
2, 95858, Note_on_c, 0, 60, 0
2, 95865, Note_on_c, 0, 55, 0
2, 96043, Note_on_c, 0, 67, 63
2, 96046, Note_on_c, 0, 63, 54
2, 96051, Note_on_c, 0, 55, 42
2, 96054, Note_on_c, 0, 60, 47
2, 96075, Note_on_c, 0, 63, 0
2, 96078, Note_on_c, 0, 67, 0
2, 96079, Note_on_c, 0, 55, 0
2, 96080, Note_on_c, 0, 60, 0
2, 96241, Note_on_c, 0, 67, 49
2, 96244, Note_on_c, 0, 63, 58
2, 96246, Note_on_c, 0, 60, 56
2, 96254, Note_on_c, 0, 55, 35
2, 96267, Note_on_c, 0, 63, 0
2, 96279, Note_on_c, 0, 55, 0
2, 96279, Note_on_c, 0, 67, 0
2, 96283, Note_on_c, 0, 60, 0
2, 96458, Control_c, 0, 67, 127
2, 96462, Note_on_c, 0, 67, 58
2, 96465, Note_on_c, 0, 63, 53
2, 96468, Note_on_c, 0, 60, 56
2, 96470, Note_on_c, 0, 55, 40
2, 96486, Note_on_c, 0, 63, 0
2, 96491, Note_on_c, 0, 60, 0
2, 96494, Note_on_c, 0, 67, 0
2, 96496, Note_on_c, 0, 55, 0
2, 96764, Note_on_c, 0, 44, 62
2, 96764, Control_c, 0, 64, 0
2, 96825, Control_c, 0, 64, 127
2, 97005, Note_on_c, 0, 67, 58
2, 97005, Note_on_c, 0, 56, 58
2, 97012, Note_on_c, 0, 62, 62
2, 97014, Note_on_c, 0, 59, 62
2, 97028, Note_on_c, 0, 62, 0
2, 97032, Note_on_c, 0, 59, 0
2, 97041, Note_on_c, 0, 67, 0
2, 97049, Note_on_c, 0, 56, 0
2, 97172, Note_on_c, 0, 56, 68
2, 97172, Note_on_c, 0, 65, 76
2, 97176, Note_on_c, 0, 59, 65
2, 97179, Note_on_c, 0, 62, 40
2, 97188, Note_on_c, 0, 65, 0
2, 97194, Note_on_c, 0, 59, 0
2, 97196, Note_on_c, 0, 62, 0
2, 97209, Note_on_c, 0, 56, 0
2, 97319, Note_on_c, 0, 63, 87
2, 97324, Note_on_c, 0, 56, 63
2, 97328, Note_on_c, 0, 59, 63
2, 97328, Note_on_c, 0, 53, 61
2, 97342, Note_on_c, 0, 56, 0
2, 97346, Note_on_c, 0, 59, 0
2, 97347, Note_on_c, 0, 63, 0
2, 97348, Note_on_c, 0, 53, 0
2, 97455, Note_on_c, 0, 56, 82
2, 97456, Note_on_c, 0, 62, 88
2, 97458, Note_on_c, 0, 59, 83
2, 97460, Note_on_c, 0, 44, 0
2, 97465, Note_on_c, 0, 53, 67
2, 97471, Note_on_c, 0, 62, 0
2, 97473, Note_on_c, 0, 59, 0
2, 97484, Note_on_c, 0, 53, 0
2, 97486, Note_on_c, 0, 56, 0
2, 97551, Note_on_c, 0, 53, 72
2, 97558, Note_on_c, 0, 56, 81
2, 97588, Note_on_c, 0, 59, 46
2, 97597, Note_on_c, 0, 53, 0
2, 97597, Note_on_c, 0, 60, 78
2, 97604, Note_on_c, 0, 59, 0
2, 97610, Note_on_c, 0, 56, 0
2, 97620, Control_c, 0, 67, 0
2, 97625, Note_on_c, 0, 38, 92
2, 97626, Note_on_c, 0, 60, 0
2, 97695, Note_on_c, 0, 39, 101
2, 97714, Note_on_c, 0, 38, 0
2, 97766, Note_on_c, 0, 39, 0
2, 97774, Note_on_c, 0, 41, 101
2, 97779, Control_c, 0, 64, 0
2, 97793, Control_c, 0, 67, 127
2, 97908, Control_c, 0, 64, 127
2, 98014, Note_on_c, 0, 60, 53
2, 98016, Note_on_c, 0, 56, 57
2, 98019, Note_on_c, 0, 53, 58
2, 98020, Note_on_c, 0, 50, 52
2, 98061, Note_on_c, 0, 50, 0
2, 98065, Note_on_c, 0, 53, 0
2, 98066, Note_on_c, 0, 56, 0
2, 98082, Note_on_c, 0, 60, 0
2, 98188, Note_on_c, 0, 56, 57
2, 98188, Note_on_c, 0, 59, 74
2, 98202, Note_on_c, 0, 50, 43
2, 98204, Note_on_c, 0, 53, 37
2, 98221, Note_on_c, 0, 56, 0
2, 98227, Note_on_c, 0, 59, 0
2, 98228, Note_on_c, 0, 50, 0
2, 98235, Note_on_c, 0, 53, 0
2, 98328, Note_on_c, 0, 56, 57
2, 98328, Note_on_c, 0, 60, 78
2, 98332, Note_on_c, 0, 53, 60
2, 98332, Note_on_c, 0, 50, 52
2, 98350, Note_on_c, 0, 53, 0
2, 98350, Note_on_c, 0, 56, 0
2, 98353, Note_on_c, 0, 50, 0
2, 98410, Note_on_c, 0, 60, 0
2, 98466, Note_on_c, 0, 53, 80
2, 98471, Note_on_c, 0, 62, 75
2, 98478, Note_on_c, 0, 59, 65
2, 98484, Note_on_c, 0, 53, 0
2, 98495, Note_on_c, 0, 59, 0
2, 98527, Note_on_c, 0, 62, 0
2, 98594, Note_on_c, 0, 56, 75
2, 98619, Note_on_c, 0, 59, 89
2, 98630, Note_on_c, 0, 63, 89
2, 98631, Control_c, 0, 64, 0
2, 98640, Note_on_c, 0, 59, 0
2, 98640, Note_on_c, 0, 41, 0
2, 98657, Note_on_c, 0, 56, 0
2, 98660, Control_c, 0, 64, 127
2, 98669, Note_on_c, 0, 38, 77
2, 98677, Control_c, 0, 67, 0
2, 98678, Note_on_c, 0, 63, 0
2, 98744, Note_on_c, 0, 38, 0
2, 98754, Note_on_c, 0, 36, 93
2, 98833, Note_on_c, 0, 36, 0
2, 98848, Note_on_c, 0, 35, 101
2, 98856, Control_c, 0, 64, 0
2, 98991, Control_c, 0, 64, 127
2, 99020, Note_on_c, 0, 35, 0
2, 99046, Note_on_c, 0, 62, 83
2, 99047, Note_on_c, 0, 56, 85
2, 99052, Note_on_c, 0, 67, 86
2, 99286, Control_c, 0, 64, 0
2, 99303, Note_on_c, 0, 74, 98
2, 99341, Note_on_c, 0, 67, 0
2, 99393, Control_c, 0, 64, 127
2, 99396, Note_on_c, 0, 62, 0
2, 99398, Note_on_c, 0, 56, 0
2, 99534, Note_on_c, 0, 56, 45
2, 99535, Note_on_c, 0, 65, 48
2, 99540, Note_on_c, 0, 62, 49
2, 99782, Note_on_c, 0, 74, 0
2, 99785, Control_c, 0, 64, 0
2, 99785, Note_on_c, 0, 75, 91
2, 99815, Note_on_c, 0, 65, 0
2, 99815, Note_on_c, 0, 62, 0
2, 99821, Note_on_c, 0, 56, 0
2, 99842, Control_c, 0, 64, 127
2, 100117, Note_on_c, 0, 75, 0
2, 100119, Control_c, 0, 64, 0
2, 100133, Note_on_c, 0, 79, 69
2, 100194, Control_c, 0, 64, 127
2, 100623, Note_on_c, 0, 79, 0
2, 100770, Note_on_c, 0, 77, 70
2, 100812, Control_c, 0, 67, 127
2, 100938, Note_on_c, 0, 77, 0
2, 100978, Note_on_c, 0, 75, 71
2, 101111, Note_on_c, 0, 75, 0
2, 101129, Note_on_c, 0, 74, 88
2, 101271, Note_on_c, 0, 74, 0
2, 101277, Control_c, 0, 64, 0
2, 101287, Note_on_c, 0, 72, 91
2, 101384, Control_c, 0, 64, 127
2, 101856, Note_on_c, 0, 72, 0
2, 101914, Note_on_c, 0, 71, 69
2, 101937, Control_c, 0, 64, 0
2, 101983, Control_c, 0, 64, 127
2, 101986, Note_on_c, 0, 71, 0
2, 102632, Control_c, 0, 64, 0
2, 102644, Note_on_c, 0, 45, 67
2, 102700, Control_c, 0, 64, 127
2, 102882, Note_on_c, 0, 67, 62
2, 102886, Note_on_c, 0, 62, 70
2, 102888, Note_on_c, 0, 57, 62
2, 102896, Note_on_c, 0, 59, 32
2, 102907, Note_on_c, 0, 62, 0
2, 102908, Note_on_c, 0, 57, 0
2, 102913, Note_on_c, 0, 59, 0
2, 102959, Note_on_c, 0, 67, 0
2, 103063, Note_on_c, 0, 65, 81
2, 103067, Note_on_c, 0, 62, 72
2, 103067, Note_on_c, 0, 57, 82
2, 103082, Note_on_c, 0, 62, 0
2, 103084, Note_on_c, 0, 57, 0
2, 103085, Note_on_c, 0, 65, 0
2, 103217, Note_on_c, 0, 64, 87
2, 103218, Note_on_c, 0, 59, 82
2, 103225, Note_on_c, 0, 57, 61
2, 103228, Note_on_c, 0, 53, 42
2, 103235, Note_on_c, 0, 59, 0
2, 103236, Note_on_c, 0, 64, 0
2, 103241, Note_on_c, 0, 57, 0
2, 103249, Note_on_c, 0, 53, 0
2, 103356, Note_on_c, 0, 45, 0
2, 103359, Note_on_c, 0, 62, 84
2, 103361, Note_on_c, 0, 59, 78
2, 103366, Note_on_c, 0, 57, 62
2, 103370, Note_on_c, 0, 53, 65
2, 103378, Note_on_c, 0, 59, 0
2, 103381, Note_on_c, 0, 62, 0
2, 103383, Note_on_c, 0, 57, 0
2, 103391, Note_on_c, 0, 53, 0
2, 103482, Note_on_c, 0, 53, 80
2, 103496, Note_on_c, 0, 57, 69
2, 103534, Note_on_c, 0, 60, 75
2, 103534, Note_on_c, 0, 59, 62
2, 103540, Note_on_c, 0, 53, 0
2, 103543, Control_c, 0, 67, 0
2, 103555, Note_on_c, 0, 57, 0
2, 103558, Note_on_c, 0, 59, 0
2, 103559, Control_c, 0, 64, 0
2, 103569, Note_on_c, 0, 38, 89
2, 103595, Control_c, 0, 64, 127
2, 103600, Note_on_c, 0, 60, 0
2, 103622, Note_on_c, 0, 38, 0
2, 103645, Note_on_c, 0, 40, 97
2, 103701, Note_on_c, 0, 40, 0
2, 103723, Control_c, 0, 64, 0
2, 103724, Note_on_c, 0, 41, 105
2, 103795, Control_c, 0, 64, 127
2, 103875, Control_c, 0, 64, 0
2, 103897, Note_on_c, 0, 60, 75
2, 103899, Note_on_c, 0, 53, 77
2, 103904, Note_on_c, 0, 50, 66
2, 103904, Note_on_c, 0, 57, 70
2, 103916, Control_c, 0, 64, 127
2, 103921, Note_on_c, 0, 57, 0
2, 103940, Note_on_c, 0, 53, 0
2, 103945, Note_on_c, 0, 60, 0
2, 103957, Note_on_c, 0, 50, 0
2, 104061, Note_on_c, 0, 59, 81
2, 104063, Note_on_c, 0, 53, 79
2, 104066, Note_on_c, 0, 50, 79
2, 104068, Note_on_c, 0, 57, 65
2, 104082, Control_c, 0, 67, 127
2, 104084, Note_on_c, 0, 57, 0
2, 104084, Note_on_c, 0, 53, 0
2, 104090, Note_on_c, 0, 50, 0
2, 104097, Note_on_c, 0, 59, 0
2, 104184, Control_c, 0, 64, 0
2, 104212, Note_on_c, 0, 60, 79
2, 104215, Note_on_c, 0, 50, 63
2, 104215, Note_on_c, 0, 53, 74
2, 104216, Note_on_c, 0, 57, 66
2, 104224, Control_c, 0, 64, 127
2, 104231, Note_on_c, 0, 53, 0
2, 104233, Note_on_c, 0, 57, 0
2, 104235, Note_on_c, 0, 50, 0
2, 104248, Note_on_c, 0, 60, 0
2, 104365, Control_c, 0, 64, 0
2, 104397, Note_on_c, 0, 62, 75
2, 104398, Note_on_c, 0, 53, 72
2, 104400, Note_on_c, 0, 59, 70
2, 104406, Note_on_c, 0, 57, 40
2, 104413, Control_c, 0, 64, 127
2, 104420, Note_on_c, 0, 59, 0
2, 104423, Note_on_c, 0, 57, 0
2, 104425, Note_on_c, 0, 53, 0
2, 104441, Note_on_c, 0, 62, 0
2, 104537, Note_on_c, 0, 41, 0
2, 104556, Note_on_c, 0, 53, 56
2, 104563, Note_on_c, 0, 57, 58
2, 104577, Control_c, 0, 64, 0
2, 104577, Note_on_c, 0, 59, 66
2, 104579, Note_on_c, 0, 53, 0
2, 104582, Note_on_c, 0, 57, 0
2, 104586, Note_on_c, 0, 64, 52
2, 104612, Note_on_c, 0, 38, 80
2, 104625, Note_on_c, 0, 59, 0
2, 104632, Control_c, 0, 64, 127
2, 104697, Note_on_c, 0, 38, 0
2, 104703, Note_on_c, 0, 64, 0
2, 104705, Note_on_c, 0, 36, 84
2, 104789, Note_on_c, 0, 36, 0
2, 104802, Control_c, 0, 64, 0
2, 104811, Note_on_c, 0, 35, 88
2, 104839, Control_c, 0, 67, 0
2, 104929, Control_c, 0, 64, 127
2, 105084, Note_on_c, 0, 35, 0
2, 105097, Note_on_c, 0, 67, 83
2, 105100, Note_on_c, 0, 62, 74
2, 105103, Note_on_c, 0, 57, 87
2, 105104, Note_on_c, 0, 59, 66
2, 105361, Control_c, 0, 64, 0
2, 105381, Note_on_c, 0, 74, 116
2, 105411, Control_c, 0, 64, 127
2, 105447, Note_on_c, 0, 57, 0
2, 105456, Note_on_c, 0, 62, 0
2, 105457, Note_on_c, 0, 59, 0
2, 105464, Note_on_c, 0, 67, 0
2, 105607, Note_on_c, 0, 65, 71
2, 105607, Note_on_c, 0, 62, 71
2, 105609, Note_on_c, 0, 59, 63
2, 105615, Note_on_c, 0, 57, 74
2, 105778, Control_c, 0, 64, 0
2, 105791, Note_on_c, 0, 74, 0
2, 105808, Note_on_c, 0, 76, 111
2, 105836, Note_on_c, 0, 57, 0
2, 105842, Note_on_c, 0, 59, 0
2, 105843, Note_on_c, 0, 62, 0
2, 105868, Control_c, 0, 64, 127
2, 105874, Note_on_c, 0, 65, 0
2, 106150, Note_on_c, 0, 76, 0
2, 106152, Control_c, 0, 64, 0
2, 106158, Note_on_c, 0, 79, 92
2, 106227, Control_c, 0, 64, 127
2, 106753, Note_on_c, 0, 79, 0
2, 106772, Note_on_c, 0, 77, 98
2, 106967, Note_on_c, 0, 81, 110
2, 106979, Note_on_c, 0, 77, 0
2, 107100, Note_on_c, 0, 80, 117
2, 107113, Note_on_c, 0, 81, 0
2, 107158, Control_c, 0, 64, 0
2, 107287, Note_on_c, 0, 80, 0
2, 107287, Note_on_c, 0, 84, 92
2, 107374, Control_c, 0, 64, 127
2, 107836, Control_c, 0, 67, 127
2, 107894, Note_on_c, 0, 84, 0
2, 107941, Control_c, 0, 67, 0
2, 107957, Control_c, 0, 67, 127
2, 107977, Note_on_c, 0, 83, 80
2, 107983, Control_c, 0, 64, 0
2, 108055, Control_c, 0, 64, 127
2, 108076, Control_c, 0, 67, 0
2, 108080, Note_on_c, 0, 83, 0
2, 108217, Control_c, 0, 67, 127
2, 108569, Control_c, 0, 67, 127
2, 108834, Control_c, 0, 67, 0
2, 108876, Note_on_c, 0, 48, 70
2, 108917, Control_c, 0, 64, 127
2, 108964, Control_c, 0, 67, 127
2, 109140, Note_on_c, 0, 67, 70
2, 109141, Note_on_c, 0, 63, 64
2, 109149, Note_on_c, 0, 60, 58
2, 109155, Note_on_c, 0, 57, 48
2, 109182, Note_on_c, 0, 57, 0
2, 109190, Note_on_c, 0, 63, 0
2, 109197, Note_on_c, 0, 67, 0
2, 109199, Note_on_c, 0, 60, 0
2, 109310, Note_on_c, 0, 66, 84
2, 109312, Note_on_c, 0, 63, 70
2, 109325, Note_on_c, 0, 57, 43
2, 109334, Note_on_c, 0, 60, 30
2, 109346, Note_on_c, 0, 63, 0
2, 109349, Note_on_c, 0, 57, 0
2, 109350, Note_on_c, 0, 60, 0
2, 109355, Note_on_c, 0, 66, 0
2, 109465, Note_on_c, 0, 65, 85
2, 109468, Note_on_c, 0, 60, 74
2, 109469, Note_on_c, 0, 57, 77
2, 109486, Note_on_c, 0, 57, 0
2, 109489, Note_on_c, 0, 60, 0
2, 109498, Note_on_c, 0, 65, 0
2, 109606, Note_on_c, 0, 48, 0
2, 109623, Note_on_c, 0, 64, 85
2, 109630, Note_on_c, 0, 60, 64
2, 109635, Note_on_c, 0, 57, 66
2, 109650, Note_on_c, 0, 60, 0
2, 109655, Note_on_c, 0, 57, 0
2, 109668, Note_on_c, 0, 64, 0
2, 109815, Note_on_c, 0, 60, 53
2, 109819, Note_on_c, 0, 57, 48
2, 109840, Note_on_c, 0, 63, 61
2, 109856, Control_c, 0, 64, 0
2, 109869, Note_on_c, 0, 42, 71
2, 109896, Note_on_c, 0, 57, 0
2, 109908, Control_c, 0, 64, 127
2, 109916, Note_on_c, 0, 60, 0
2, 109932, Note_on_c, 0, 63, 0
2, 109940, Note_on_c, 0, 42, 0
2, 109966, Note_on_c, 0, 43, 74
2, 110035, Note_on_c, 0, 43, 0
2, 110055, Note_on_c, 0, 45, 83
2, 110070, Control_c, 0, 64, 0
2, 110182, Control_c, 0, 64, 127
2, 110251, Note_on_c, 0, 63, 69
2, 110259, Note_on_c, 0, 54, 60
2, 110270, Note_on_c, 0, 57, 47
2, 110289, Note_on_c, 0, 57, 0
2, 110299, Note_on_c, 0, 63, 0
2, 110299, Note_on_c, 0, 54, 0
2, 110394, Note_on_c, 0, 62, 84
2, 110398, Note_on_c, 0, 54, 57
2, 110400, Note_on_c, 0, 57, 74
2, 110418, Note_on_c, 0, 57, 0
2, 110433, Note_on_c, 0, 62, 0
2, 110435, Note_on_c, 0, 54, 0
2, 110438, Control_c, 0, 67, 0
2, 110533, Note_on_c, 0, 61, 75
2, 110539, Note_on_c, 0, 54, 66
2, 110546, Note_on_c, 0, 57, 61
2, 110563, Note_on_c, 0, 57, 0
2, 110571, Note_on_c, 0, 54, 0
2, 110585, Note_on_c, 0, 61, 0
2, 110603, Note_on_c, 0, 51, 0
2, 110694, Control_c, 0, 67, 127
2, 110711, Note_on_c, 0, 51, 73
2, 110712, Note_on_c, 0, 60, 68
2, 110718, Control_c, 0, 64, 0
2, 110719, Note_on_c, 0, 57, 62
2, 110764, Note_on_c, 0, 51, 0
2, 110774, Control_c, 0, 64, 127
2, 110785, Note_on_c, 0, 57, 0
2, 110797, Note_on_c, 0, 45, 0
2, 110804, Note_on_c, 0, 60, 0
2, 110916, Note_on_c, 0, 51, 55
2, 110926, Note_on_c, 0, 59, 48
2, 110954, Note_on_c, 0, 59, 0
2, 110967, Note_on_c, 0, 51, 0
2, 110971, Note_on_c, 0, 42, 71
2, 111036, Note_on_c, 0, 42, 0
2, 111075, Note_on_c, 0, 41, 78
2, 111107, Note_on_c, 0, 41, 0
2, 111196, Note_on_c, 0, 40, 78
2, 111198, Control_c, 0, 64, 0
2, 111201, Note_on_c, 0, 52, 84
2, 111299, Control_c, 0, 64, 127
2, 111307, Control_c, 0, 67, 0
2, 111513, Note_on_c, 0, 65, 56
2, 111517, Control_c, 0, 67, 127
2, 111522, Note_on_c, 0, 56, 52
2, 111530, Note_on_c, 0, 59, 47
2, 111559, Note_on_c, 0, 59, 0
2, 111575, Note_on_c, 0, 56, 0
2, 111602, Note_on_c, 0, 65, 0
2, 111673, Note_on_c, 0, 64, 80
2, 111679, Note_on_c, 0, 56, 69
2, 111685, Note_on_c, 0, 59, 45
2, 111689, Note_on_c, 0, 64, 0
2, 111702, Note_on_c, 0, 59, 0
2, 111714, Note_on_c, 0, 56, 0
2, 111755, Note_on_c, 0, 52, 0
2, 111799, Note_on_c, 0, 40, 0
2, 111836, Note_on_c, 0, 62, 60
2, 111852, Note_on_c, 0, 53, 46
2, 111858, Note_on_c, 0, 56, 46
2, 111877, Note_on_c, 0, 53, 0
2, 111885, Note_on_c, 0, 56, 0
2, 111909, Note_on_c, 0, 62, 0
2, 112002, Note_on_c, 0, 60, 72
2, 112009, Note_on_c, 0, 56, 52
2, 112011, Note_on_c, 0, 53, 47
2, 112035, Note_on_c, 0, 53, 0
2, 112036, Note_on_c, 0, 56, 0
2, 112062, Note_on_c, 0, 60, 0
2, 112178, Note_on_c, 0, 32, 74
2, 112178, Note_on_c, 0, 44, 74
2, 112185, Note_on_c, 0, 59, 74
2, 112190, Note_on_c, 0, 56, 74
2, 112192, Note_on_c, 0, 53, 74
2, 112200, Note_on_c, 0, 44, 0
2, 112208, Note_on_c, 0, 32, 0
2, 112274, Note_on_c, 0, 33, 72
2, 112274, Note_on_c, 0, 45, 87
2, 112293, Note_on_c, 0, 45, 0
2, 112296, Note_on_c, 0, 33, 0
2, 112314, Note_on_c, 0, 53, 0
2, 112330, Note_on_c, 0, 56, 0
2, 112331, Control_c, 0, 64, 0
2, 112344, Note_on_c, 0, 59, 0
2, 112362, Note_on_c, 0, 47, 95
2, 112364, Note_on_c, 0, 35, 90
2, 112494, Control_c, 0, 64, 127
2, 112617, Note_on_c, 0, 69, 77
2, 112623, Note_on_c, 0, 59, 72
2, 112627, Note_on_c, 0, 62, 69
2, 112660, Note_on_c, 0, 59, 0
2, 112670, Note_on_c, 0, 62, 0
2, 112683, Note_on_c, 0, 69, 0
2, 112774, Note_on_c, 0, 68, 91
2, 112782, Note_on_c, 0, 59, 74
2, 112782, Note_on_c, 0, 62, 73
2, 112800, Note_on_c, 0, 62, 0
2, 112804, Note_on_c, 0, 59, 0
2, 112835, Note_on_c, 0, 47, 0
2, 112844, Note_on_c, 0, 68, 0
2, 112859, Note_on_c, 0, 35, 0
2, 112913, Note_on_c, 0, 65, 95
2, 112919, Note_on_c, 0, 59, 82
2, 112935, Note_on_c, 0, 59, 0
2, 112940, Note_on_c, 0, 65, 0
2, 113068, Note_on_c, 0, 72, 97
2, 113073, Note_on_c, 0, 65, 84
2, 113076, Control_c, 0, 64, 0
2, 113076, Note_on_c, 0, 62, 75
2, 113093, Note_on_c, 0, 62, 0
2, 113113, Control_c, 0, 64, 127
2, 113129, Note_on_c, 0, 65, 0
2, 113243, Control_c, 0, 64, 0
2, 113252, Note_on_c, 0, 72, 0
2, 113264, Note_on_c, 0, 29, 74
2, 113266, Note_on_c, 0, 41, 72
2, 113280, Note_on_c, 0, 71, 92
2, 113284, Note_on_c, 0, 41, 0
2, 113286, Note_on_c, 0, 65, 77
2, 113292, Note_on_c, 0, 62, 56
2, 113295, Note_on_c, 0, 29, 0
2, 113302, Control_c, 0, 64, 127
2, 113368, Note_on_c, 0, 28, 91
2, 113370, Note_on_c, 0, 40, 79
2, 113381, Note_on_c, 0, 28, 0
2, 113388, Note_on_c, 0, 40, 0
2, 113423, Control_c, 0, 64, 0
2, 113488, Note_on_c, 0, 71, 0
2, 113493, Note_on_c, 0, 40, 71
2, 113494, Note_on_c, 0, 52, 49
2, 113499, Note_on_c, 0, 62, 0
2, 113504, Note_on_c, 0, 65, 0
2, 113582, Control_c, 0, 64, 127
2, 113707, Note_on_c, 0, 71, 97
2, 113708, Control_c, 0, 64, 0
2, 113717, Note_on_c, 0, 60, 69
2, 113718, Note_on_c, 0, 64, 79
2, 113739, Note_on_c, 0, 60, 0
2, 113762, Control_c, 0, 64, 127
2, 113770, Note_on_c, 0, 64, 0
2, 113777, Note_on_c, 0, 71, 0
2, 113853, Note_on_c, 0, 69, 97
2, 113858, Note_on_c, 0, 40, 0
2, 113861, Note_on_c, 0, 60, 92
2, 113868, Note_on_c, 0, 52, 0
2, 113882, Note_on_c, 0, 69, 0
2, 113886, Note_on_c, 0, 60, 0
2, 113989, Control_c, 0, 67, 0
2, 113994, Note_on_c, 0, 67, 91
2, 114004, Note_on_c, 0, 60, 84
2, 114012, Note_on_c, 0, 57, 76
2, 114028, Note_on_c, 0, 57, 0
2, 114048, Note_on_c, 0, 60, 0
2, 114061, Note_on_c, 0, 67, 0
2, 114142, Note_on_c, 0, 65, 91
2, 114147, Note_on_c, 0, 60, 74
2, 114155, Note_on_c, 0, 57, 69
2, 114174, Note_on_c, 0, 57, 0
2, 114191, Note_on_c, 0, 60, 0
2, 114244, Control_c, 0, 67, 127
2, 114251, Note_on_c, 0, 65, 0
2, 114281, Control_c, 0, 64, 0
2, 114303, Note_on_c, 0, 45, 88
2, 114306, Note_on_c, 0, 64, 92
2, 114308, Note_on_c, 0, 33, 56
2, 114312, Note_on_c, 0, 60, 74
2, 114313, Note_on_c, 0, 57, 79
2, 114316, Note_on_c, 0, 45, 0
2, 114325, Note_on_c, 0, 33, 0
2, 114389, Note_on_c, 0, 47, 92
2, 114391, Note_on_c, 0, 35, 78
2, 114401, Note_on_c, 0, 57, 0
2, 114404, Note_on_c, 0, 47, 0
2, 114406, Note_on_c, 0, 35, 0
2, 114414, Note_on_c, 0, 60, 0
2, 114440, Note_on_c, 0, 64, 0
2, 114468, Note_on_c, 0, 36, 99
2, 114469, Note_on_c, 0, 48, 97
2, 114489, Control_c, 0, 64, 127
2, 114523, Control_c, 0, 67, 0
2, 114605, Control_c, 0, 64, 0
2, 114692, Control_c, 0, 64, 127
2, 114693, Note_on_c, 0, 71, 88
2, 114702, Note_on_c, 0, 64, 72
2, 114704, Note_on_c, 0, 60, 60
2, 114749, Note_on_c, 0, 60, 0
2, 114757, Note_on_c, 0, 64, 0
2, 114759, Control_c, 0, 67, 127
2, 114768, Note_on_c, 0, 71, 0
2, 114848, Note_on_c, 0, 69, 91
2, 114859, Note_on_c, 0, 60, 71
2, 114863, Note_on_c, 0, 64, 53
2, 114876, Note_on_c, 0, 60, 0
2, 114882, Note_on_c, 0, 64, 0
2, 114896, Note_on_c, 0, 69, 0
2, 114896, Control_c, 0, 67, 0
2, 114976, Control_c, 0, 64, 0
2, 114982, Note_on_c, 0, 65, 108
2, 114983, Control_c, 0, 64, 127
2, 114985, Note_on_c, 0, 60, 91
2, 114994, Note_on_c, 0, 65, 0
2, 114995, Note_on_c, 0, 48, 0
2, 114999, Note_on_c, 0, 60, 0
2, 115034, Note_on_c, 0, 36, 0
2, 115137, Note_on_c, 0, 74, 88
2, 115147, Note_on_c, 0, 69, 64
2, 115147, Note_on_c, 0, 64, 58
2, 115204, Note_on_c, 0, 64, 0
2, 115219, Control_c, 0, 67, 127
2, 115239, Note_on_c, 0, 69, 0
2, 115300, Note_on_c, 0, 74, 0
2, 115305, Control_c, 0, 64, 0
2, 115331, Control_c, 0, 64, 127
2, 115337, Note_on_c, 0, 29, 76
2, 115342, Note_on_c, 0, 41, 48
2, 115344, Note_on_c, 0, 72, 84
2, 115354, Note_on_c, 0, 29, 0
2, 115354, Note_on_c, 0, 69, 71
2, 115357, Note_on_c, 0, 64, 46
2, 115359, Note_on_c, 0, 41, 0
2, 115445, Note_on_c, 0, 28, 97
2, 115446, Note_on_c, 0, 40, 92
2, 115457, Note_on_c, 0, 28, 0
2, 115461, Note_on_c, 0, 40, 0
2, 115461, Control_c, 0, 64, 0
2, 115539, Note_on_c, 0, 72, 0
2, 115541, Note_on_c, 0, 69, 0
2, 115569, Note_on_c, 0, 64, 0
2, 115571, Note_on_c, 0, 40, 92
2, 115574, Control_c, 0, 64, 127
2, 115575, Note_on_c, 0, 52, 81
2, 115739, Control_c, 0, 64, 0
2, 115796, Note_on_c, 0, 72, 92
2, 115800, Note_on_c, 0, 62, 67
2, 115801, Note_on_c, 0, 65, 65
2, 115805, Control_c, 0, 64, 127
2, 115819, Note_on_c, 0, 62, 0
2, 115825, Note_on_c, 0, 65, 0
2, 115841, Note_on_c, 0, 72, 0
2, 115897, Control_c, 0, 67, 0
2, 115946, Note_on_c, 0, 71, 95
2, 115955, Note_on_c, 0, 62, 71
2, 115960, Note_on_c, 0, 71, 0
2, 115971, Note_on_c, 0, 62, 0
2, 116041, Note_on_c, 0, 52, 0
2, 116070, Note_on_c, 0, 40, 0
2, 116094, Note_on_c, 0, 69, 84
2, 116101, Note_on_c, 0, 62, 79
2, 116105, Note_on_c, 0, 59, 68
2, 116120, Note_on_c, 0, 62, 0
2, 116125, Note_on_c, 0, 59, 0
2, 116147, Note_on_c, 0, 69, 0
2, 116238, Note_on_c, 0, 68, 95
2, 116251, Note_on_c, 0, 59, 73
2, 116256, Note_on_c, 0, 62, 51
2, 116259, Control_c, 0, 67, 127
2, 116276, Note_on_c, 0, 62, 0
2, 116280, Control_c, 0, 67, 0
2, 116283, Note_on_c, 0, 59, 0
2, 116301, Control_c, 0, 67, 127
2, 116323, Note_on_c, 0, 68, 0
2, 116446, Note_on_c, 0, 35, 88
2, 116448, Note_on_c, 0, 65, 78
2, 116448, Note_on_c, 0, 47, 92
2, 116449, Note_on_c, 0, 59, 74
2, 116449, Note_on_c, 0, 62, 76
2, 116459, Note_on_c, 0, 35, 0
2, 116463, Note_on_c, 0, 47, 0
2, 116479, Control_c, 0, 64, 0
2, 116537, Note_on_c, 0, 36, 97
2, 116537, Note_on_c, 0, 48, 99
2, 116551, Note_on_c, 0, 36, 0
2, 116554, Note_on_c, 0, 48, 0
2, 116568, Note_on_c, 0, 59, 0
2, 116588, Note_on_c, 0, 62, 0
2, 116604, Note_on_c, 0, 65, 0
2, 116621, Note_on_c, 0, 50, 106
2, 116622, Note_on_c, 0, 38, 95
2, 116668, Control_c, 0, 67, 0
2, 116701, Control_c, 0, 64, 127
2, 116845, Note_on_c, 0, 72, 90
2, 116856, Note_on_c, 0, 62, 65
2, 116857, Note_on_c, 0, 65, 65
2, 116873, Note_on_c, 0, 62, 0
2, 116877, Note_on_c, 0, 65, 0
2, 116892, Note_on_c, 0, 72, 0
2, 116941, Control_c, 0, 67, 127
2, 117012, Note_on_c, 0, 71, 99
2, 117023, Note_on_c, 0, 62, 49
2, 117024, Note_on_c, 0, 65, 49
2, 117041, Note_on_c, 0, 65, 0
2, 117042, Note_on_c, 0, 62, 0
2, 117048, Note_on_c, 0, 71, 0
2, 117148, Note_on_c, 0, 38, 0
2, 117158, Note_on_c, 0, 68, 101
2, 117166, Note_on_c, 0, 62, 77
2, 117182, Note_on_c, 0, 62, 0
2, 117182, Note_on_c, 0, 68, 0
2, 117185, Note_on_c, 0, 50, 0
2, 117311, Note_on_c, 0, 76, 95
2, 117315, Note_on_c, 0, 68, 75
2, 117317, Note_on_c, 0, 65, 79
2, 117336, Note_on_c, 0, 65, 0
2, 117338, Control_c, 0, 67, 0
2, 117365, Note_on_c, 0, 68, 0
2, 117386, Note_on_c, 0, 76, 0
2, 117480, Control_c, 0, 67, 127
2, 117493, Note_on_c, 0, 74, 90
2, 117495, Note_on_c, 0, 68, 70
2, 117495, Note_on_c, 0, 29, 93
2, 117499, Note_on_c, 0, 41, 65
2, 117499, Note_on_c, 0, 65, 70
2, 117509, Note_on_c, 0, 29, 0
2, 117517, Note_on_c, 0, 41, 0
2, 117579, Control_c, 0, 64, 0
2, 117597, Note_on_c, 0, 28, 98
2, 117600, Note_on_c, 0, 40, 85
2, 117610, Note_on_c, 0, 28, 0
2, 117615, Note_on_c, 0, 40, 0
2, 117732, Control_c, 0, 64, 127
2, 117742, Note_on_c, 0, 65, 0
2, 117743, Note_on_c, 0, 74, 0
2, 117745, Note_on_c, 0, 40, 92
2, 117746, Note_on_c, 0, 52, 88
2, 117750, Note_on_c, 0, 68, 0
2, 117959, Note_on_c, 0, 74, 100
2, 117969, Note_on_c, 0, 69, 74
2, 117971, Note_on_c, 0, 64, 70
2, 117988, Note_on_c, 0, 69, 0
2, 117990, Note_on_c, 0, 64, 0
2, 118023, Note_on_c, 0, 74, 0
2, 118116, Note_on_c, 0, 72, 108
2, 118123, Note_on_c, 0, 64, 89
2, 118136, Note_on_c, 0, 64, 0
2, 118145, Note_on_c, 0, 72, 0
2, 118260, Note_on_c, 0, 69, 91
2, 118263, Note_on_c, 0, 64, 89
2, 118266, Note_on_c, 0, 60, 75
2, 118275, Note_on_c, 0, 64, 0
2, 118283, Note_on_c, 0, 60, 0
2, 118295, Note_on_c, 0, 69, 0
2, 118316, Note_on_c, 0, 52, 0
2, 118397, Note_on_c, 0, 40, 0
2, 118431, Note_on_c, 0, 77, 92
2, 118435, Note_on_c, 0, 72, 88
2, 118438, Note_on_c, 0, 69, 80
2, 118491, Note_on_c, 0, 69, 0
2, 118501, Note_on_c, 0, 72, 0
2, 118563, Note_on_c, 0, 77, 0
2, 118619, Note_on_c, 0, 47, 95
2, 118622, Note_on_c, 0, 35, 69
2, 118623, Note_on_c, 0, 76, 92
2, 118629, Note_on_c, 0, 69, 80
2, 118632, Note_on_c, 0, 47, 0
2, 118632, Note_on_c, 0, 72, 71
2, 118638, Note_on_c, 0, 35, 0
2, 118702, Control_c, 0, 64, 0
2, 118703, Note_on_c, 0, 48, 97
2, 118706, Note_on_c, 0, 36, 89
2, 118720, Note_on_c, 0, 36, 0
2, 118720, Note_on_c, 0, 48, 0
2, 118733, Note_on_c, 0, 76, 0
2, 118748, Note_on_c, 0, 72, 0
2, 118759, Note_on_c, 0, 69, 0
2, 118792, Note_on_c, 0, 38, 100
2, 118794, Note_on_c, 0, 50, 94
2, 118839, Control_c, 0, 64, 127
2, 119001, Control_c, 0, 67, 0
2, 119004, Note_on_c, 0, 76, 87
2, 119015, Note_on_c, 0, 65, 50
2, 119015, Note_on_c, 0, 69, 64
2, 119037, Note_on_c, 0, 65, 0
2, 119044, Note_on_c, 0, 69, 0
2, 119070, Note_on_c, 0, 76, 0
2, 119159, Note_on_c, 0, 74, 99
2, 119173, Note_on_c, 0, 65, 79
2, 119176, Note_on_c, 0, 74, 0
2, 119191, Note_on_c, 0, 65, 0
2, 119313, Note_on_c, 0, 65, 84
2, 119315, Note_on_c, 0, 69, 92
2, 119316, Note_on_c, 0, 62, 68
2, 119328, Note_on_c, 0, 65, 0
2, 119329, Note_on_c, 0, 69, 0
2, 119332, Note_on_c, 0, 62, 0
2, 119366, Note_on_c, 0, 50, 0
2, 119449, Note_on_c, 0, 38, 0
2, 119490, Note_on_c, 0, 79, 92
2, 119498, Note_on_c, 0, 74, 85
2, 119501, Note_on_c, 0, 69, 74
2, 119518, Note_on_c, 0, 69, 0
2, 119549, Note_on_c, 0, 74, 0
2, 119665, Note_on_c, 0, 79, 0
2, 119716, Note_on_c, 0, 77, 81
2, 119717, Note_on_c, 0, 29, 77
2, 119721, Note_on_c, 0, 74, 79
2, 119724, Note_on_c, 0, 41, 35
2, 119726, Note_on_c, 0, 69, 61
2, 119735, Note_on_c, 0, 29, 0
2, 119737, Note_on_c, 0, 41, 0
2, 119812, Note_on_c, 0, 28, 93
2, 119813, Note_on_c, 0, 40, 79
2, 119825, Note_on_c, 0, 28, 0
2, 119832, Note_on_c, 0, 40, 0
2, 119853, Control_c, 0, 64, 0
2, 119855, Control_c, 0, 67, 127
2, 119919, Note_on_c, 0, 69, 0
2, 119928, Note_on_c, 0, 77, 0
2, 119935, Note_on_c, 0, 52, 106
2, 119937, Note_on_c, 0, 74, 0
2, 119937, Note_on_c, 0, 40, 93
2, 119952, Note_on_c, 0, 52, 0
2, 119954, Note_on_c, 0, 40, 0
2, 119967, Control_c, 0, 64, 127
2, 120238, Note_on_c, 0, 81, 92
2, 120246, Note_on_c, 0, 71, 80
2, 120246, Note_on_c, 0, 59, 57
2, 120248, Note_on_c, 0, 74, 86
2, 120249, Note_on_c, 0, 69, 51
2, 120255, Note_on_c, 0, 65, 52
2, 120258, Note_on_c, 0, 62, 57
2, 120297, Note_on_c, 0, 59, 0
2, 120325, Note_on_c, 0, 62, 0
2, 120326, Note_on_c, 0, 71, 0
2, 120335, Note_on_c, 0, 69, 0
2, 120336, Note_on_c, 0, 81, 0
2, 120352, Note_on_c, 0, 65, 0
2, 120352, Note_on_c, 0, 74, 0
2, 120373, Control_c, 0, 67, 0
2, 120386, Note_on_c, 0, 59, 48
2, 120400, Note_on_c, 0, 80, 102
2, 120405, Note_on_c, 0, 71, 87
2, 120405, Note_on_c, 0, 74, 77
2, 120411, Note_on_c, 0, 65, 65
2, 120412, Note_on_c, 0, 68, 85
2, 120417, Note_on_c, 0, 62, 46
2, 120430, Note_on_c, 0, 59, 0
2, 120439, Note_on_c, 0, 62, 0
2, 120442, Note_on_c, 0, 68, 0
2, 120453, Note_on_c, 0, 71, 0
2, 120472, Note_on_c, 0, 74, 0
2, 120482, Note_on_c, 0, 65, 0
2, 120494, Note_on_c, 0, 80, 0
2, 120503, Note_on_c, 0, 59, 77
2, 120525, Note_on_c, 0, 62, 67
2, 120526, Note_on_c, 0, 65, 83
2, 120532, Note_on_c, 0, 68, 93
2, 120537, Note_on_c, 0, 77, 94
2, 120538, Note_on_c, 0, 74, 76
2, 120539, Note_on_c, 0, 71, 95
2, 120544, Note_on_c, 0, 59, 0
2, 120552, Note_on_c, 0, 62, 0
2, 120553, Note_on_c, 0, 74, 0
2, 120553, Note_on_c, 0, 71, 0
2, 120571, Note_on_c, 0, 77, 0
2, 120578, Note_on_c, 0, 68, 0
2, 120590, Note_on_c, 0, 65, 0
2, 120590, Note_on_c, 0, 59, 62
2, 120616, Note_on_c, 0, 62, 47
2, 120632, Note_on_c, 0, 65, 91
2, 120638, Note_on_c, 0, 68, 108
2, 120653, Note_on_c, 0, 59, 0
2, 120667, Note_on_c, 0, 68, 0
2, 120667, Note_on_c, 0, 65, 0
2, 120674, Note_on_c, 0, 62, 0
2, 120683, Note_on_c, 0, 80, 107
2, 120686, Note_on_c, 0, 77, 98
2, 120686, Note_on_c, 0, 84, 103
2, 120688, Note_on_c, 0, 74, 98
2, 120815, Note_on_c, 0, 74, 0
2, 120838, Note_on_c, 0, 77, 0
2, 120841, Note_on_c, 0, 84, 0
2, 120863, Note_on_c, 0, 80, 0
2, 120900, Note_on_c, 0, 35, 86
2, 120900, Note_on_c, 0, 47, 92
2, 120904, Note_on_c, 0, 74, 99
2, 120904, Note_on_c, 0, 83, 101
2, 120905, Note_on_c, 0, 77, 97
2, 120913, Note_on_c, 0, 47, 0
2, 120913, Note_on_c, 0, 35, 0
2, 120993, Note_on_c, 0, 36, 93
2, 120993, Note_on_c, 0, 48, 108
2, 121008, Note_on_c, 0, 48, 0
2, 121010, Note_on_c, 0, 36, 0
2, 121012, Control_c, 0, 64, 0
2, 121073, Note_on_c, 0, 50, 127
2, 121074, Note_on_c, 0, 38, 108
2, 121094, Note_on_c, 0, 38, 0
2, 121100, Control_c, 0, 64, 127
2, 121102, Note_on_c, 0, 50, 0
2, 121103, Note_on_c, 0, 83, 0
2, 121108, Note_on_c, 0, 74, 0
2, 121109, Note_on_c, 0, 77, 0
2, 121299, Note_on_c, 0, 62, 77
2, 121317, Note_on_c, 0, 65, 75
2, 121330, Note_on_c, 0, 68, 98
2, 121336, Note_on_c, 0, 72, 97
2, 121344, Note_on_c, 0, 84, 103
2, 121345, Note_on_c, 0, 77, 98
2, 121345, Note_on_c, 0, 74, 101
2, 121348, Note_on_c, 0, 62, 0
2, 121361, Note_on_c, 0, 72, 0
2, 121382, Note_on_c, 0, 65, 0
2, 121389, Note_on_c, 0, 74, 0
2, 121401, Note_on_c, 0, 77, 0
2, 121414, Note_on_c, 0, 84, 0
2, 121421, Note_on_c, 0, 68, 0
2, 121458, Note_on_c, 0, 62, 69
2, 121474, Note_on_c, 0, 65, 82
2, 121479, Note_on_c, 0, 68, 95
2, 121483, Note_on_c, 0, 71, 97
2, 121483, Note_on_c, 0, 83, 114
2, 121487, Note_on_c, 0, 77, 99
2, 121489, Note_on_c, 0, 62, 0
2, 121489, Note_on_c, 0, 74, 92
2, 121503, Note_on_c, 0, 74, 0
2, 121519, Note_on_c, 0, 71, 0
2, 121528, Note_on_c, 0, 77, 0
2, 121538, Note_on_c, 0, 65, 0
2, 121543, Note_on_c, 0, 83, 0
2, 121552, Note_on_c, 0, 68, 0
2, 121577, Note_on_c, 0, 62, 85
2, 121601, Note_on_c, 0, 65, 65
2, 121606, Note_on_c, 0, 68, 92
2, 121608, Note_on_c, 0, 80, 110
2, 121609, Note_on_c, 0, 71, 99
2, 121612, Note_on_c, 0, 74, 102
2, 121618, Note_on_c, 0, 62, 0
2, 121628, Note_on_c, 0, 71, 0
2, 121628, Note_on_c, 0, 74, 0
2, 121640, Note_on_c, 0, 80, 0
2, 121665, Note_on_c, 0, 68, 0
2, 121707, Note_on_c, 0, 65, 0
2, 121745, Note_on_c, 0, 62, 86
2, 121747, Note_on_c, 0, 68, 104
2, 121747, Note_on_c, 0, 71, 99
2, 121754, Note_on_c, 0, 65, 55
2, 121755, Note_on_c, 0, 80, 108
2, 121756, Note_on_c, 0, 88, 103
2, 121757, Note_on_c, 0, 68, 0
2, 121757, Note_on_c, 0, 77, 102
2, 121758, Note_on_c, 0, 71, 0
2, 121771, Note_on_c, 0, 65, 0
2, 121780, Note_on_c, 0, 62, 0
2, 121913, Note_on_c, 0, 77, 0
2, 121930, Note_on_c, 0, 80, 0
2, 121937, Note_on_c, 0, 88, 0
2, 121996, Note_on_c, 0, 77, 100
2, 121997, Note_on_c, 0, 41, 93
2, 121997, Note_on_c, 0, 86, 106
2, 121997, Note_on_c, 0, 29, 92
2, 121997, Note_on_c, 0, 80, 107
2, 122012, Note_on_c, 0, 41, 0
2, 122014, Note_on_c, 0, 29, 0
2, 122093, Note_on_c, 0, 28, 110
2, 122094, Note_on_c, 0, 40, 113
2, 122102, Control_c, 0, 64, 0
2, 122105, Note_on_c, 0, 28, 0
2, 122110, Note_on_c, 0, 40, 0
2, 122208, Note_on_c, 0, 52, 127
2, 122211, Note_on_c, 0, 40, 113
2, 122219, Note_on_c, 0, 86, 0
2, 122221, Control_c, 0, 64, 127
2, 122224, Note_on_c, 0, 40, 0
2, 122237, Note_on_c, 0, 52, 0
2, 122245, Note_on_c, 0, 80, 0
2, 122247, Note_on_c, 0, 77, 0
2, 122454, Note_on_c, 0, 62, 70
2, 122476, Note_on_c, 0, 65, 76
2, 122478, Note_on_c, 0, 84, 102
2, 122481, Note_on_c, 0, 77, 106
2, 122482, Note_on_c, 0, 72, 102
2, 122482, Note_on_c, 0, 74, 101
2, 122483, Note_on_c, 0, 68, 93
2, 122500, Note_on_c, 0, 62, 0
2, 122516, Note_on_c, 0, 72, 0
2, 122522, Note_on_c, 0, 65, 0
2, 122555, Note_on_c, 0, 74, 0
2, 122562, Note_on_c, 0, 84, 0
2, 122567, Note_on_c, 0, 77, 0
2, 122586, Note_on_c, 0, 68, 0
2, 122623, Note_on_c, 0, 62, 59
2, 122643, Note_on_c, 0, 83, 113
2, 122643, Note_on_c, 0, 65, 78
2, 122646, Note_on_c, 0, 71, 106
2, 122646, Note_on_c, 0, 68, 98
2, 122649, Note_on_c, 0, 77, 99
2, 122649, Note_on_c, 0, 74, 100
2, 122660, Note_on_c, 0, 62, 0
2, 122665, Note_on_c, 0, 74, 0
2, 122689, Note_on_c, 0, 71, 0
2, 122697, Note_on_c, 0, 77, 0
2, 122706, Note_on_c, 0, 65, 0
2, 122709, Note_on_c, 0, 83, 0
2, 122729, Note_on_c, 0, 68, 0
2, 122765, Note_on_c, 0, 62, 84
2, 122783, Note_on_c, 0, 65, 82
2, 122784, Note_on_c, 0, 80, 117
2, 122789, Note_on_c, 0, 74, 107
2, 122790, Note_on_c, 0, 71, 103
2, 122792, Note_on_c, 0, 68, 94
2, 122804, Note_on_c, 0, 74, 0
2, 122810, Note_on_c, 0, 62, 0
2, 122814, Note_on_c, 0, 80, 0
2, 122828, Note_on_c, 0, 71, 0
2, 122857, Note_on_c, 0, 68, 0
2, 122890, Note_on_c, 0, 62, 95
2, 122902, Note_on_c, 0, 71, 113
2, 122902, Note_on_c, 0, 68, 102
2, 122914, Note_on_c, 0, 71, 0
2, 122923, Note_on_c, 0, 65, 0
2, 122926, Note_on_c, 0, 68, 0
2, 122940, Note_on_c, 0, 62, 0
2, 122947, Note_on_c, 0, 77, 114
2, 122947, Note_on_c, 0, 80, 110
2, 122948, Note_on_c, 0, 88, 108
2, 123081, Note_on_c, 0, 77, 0
2, 123088, Note_on_c, 0, 80, 0
2, 123096, Note_on_c, 0, 88, 0
2, 123147, Note_on_c, 0, 35, 92
2, 123147, Note_on_c, 0, 47, 113
2, 123152, Note_on_c, 0, 86, 108
2, 123152, Note_on_c, 0, 80, 105
2, 123153, Note_on_c, 0, 77, 99
2, 123157, Note_on_c, 0, 47, 0
2, 123160, Note_on_c, 0, 35, 0
2, 123209, Control_c, 0, 64, 0
2, 123230, Note_on_c, 0, 48, 113
2, 123230, Note_on_c, 0, 36, 105
2, 123246, Note_on_c, 0, 36, 0
2, 123253, Note_on_c, 0, 48, 0
2, 123311, Note_on_c, 0, 50, 127
2, 123314, Note_on_c, 0, 38, 117
2, 123327, Note_on_c, 0, 38, 0
2, 123336, Note_on_c, 0, 50, 0
2, 123338, Control_c, 0, 64, 127
2, 123345, Note_on_c, 0, 77, 0
2, 123345, Note_on_c, 0, 86, 0
2, 123353, Note_on_c, 0, 80, 0
2, 123575, Note_on_c, 0, 65, 78
2, 123592, Note_on_c, 0, 68, 78
2, 123600, Note_on_c, 0, 71, 99
2, 123605, Note_on_c, 0, 76, 108
2, 123606, Note_on_c, 0, 88, 108
2, 123607, Note_on_c, 0, 80, 115
2, 123609, Note_on_c, 0, 77, 116
2, 123639, Note_on_c, 0, 76, 0
2, 123645, Note_on_c, 0, 65, 0
2, 123668, Note_on_c, 0, 71, 0
2, 123677, Note_on_c, 0, 77, 0
2, 123690, Note_on_c, 0, 88, 0
2, 123691, Note_on_c, 0, 80, 0
2, 123709, Note_on_c, 0, 68, 0
2, 123760, Note_on_c, 0, 65, 93
2, 123767, Note_on_c, 0, 68, 73
2, 123771, Note_on_c, 0, 71, 108
2, 123771, Note_on_c, 0, 86, 117
2, 123772, Note_on_c, 0, 74, 99
2, 123773, Note_on_c, 0, 77, 117
2, 123816, Note_on_c, 0, 65, 0
2, 123821, Note_on_c, 0, 77, 0
2, 123835, Note_on_c, 0, 74, 0
2, 123844, Note_on_c, 0, 86, 0
2, 123847, Note_on_c, 0, 68, 0
2, 123855, Note_on_c, 0, 71, 0
2, 123886, Note_on_c, 0, 65, 92
2, 123896, Note_on_c, 0, 68, 60
2, 123908, Note_on_c, 0, 83, 114
2, 123908, Note_on_c, 0, 71, 97
2, 123909, Note_on_c, 0, 77, 114
2, 123910, Note_on_c, 0, 74, 98
2, 123935, Note_on_c, 0, 65, 0
2, 123938, Note_on_c, 0, 83, 0
2, 123943, Note_on_c, 0, 77, 0
2, 123967, Note_on_c, 0, 68, 0
2, 123967, Note_on_c, 0, 74, 0
2, 123981, Note_on_c, 0, 71, 0
2, 123984, Note_on_c, 0, 65, 79
2, 124004, Note_on_c, 0, 68, 70
2, 124019, Note_on_c, 0, 71, 100
2, 124023, Note_on_c, 0, 74, 106
2, 124054, Note_on_c, 0, 74, 0
2, 124065, Note_on_c, 0, 71, 0
2, 124068, Note_on_c, 0, 65, 0
2, 124074, Note_on_c, 0, 68, 0
2, 124091, Note_on_c, 0, 83, 105
2, 124093, Note_on_c, 0, 80, 102
2, 124093, Note_on_c, 0, 89, 100
2, 124093, Note_on_c, 0, 86, 101
2, 124310, Note_on_c, 0, 41, 113
2, 124312, Note_on_c, 0, 29, 110
2, 124339, Note_on_c, 0, 41, 0
2, 124342, Note_on_c, 0, 29, 0
2, 124413, Note_on_c, 0, 28, 113
2, 124413, Note_on_c, 0, 40, 114
2, 124429, Note_on_c, 0, 28, 0
2, 124442, Note_on_c, 0, 40, 0
2, 124459, Control_c, 0, 64, 0
2, 124481, Note_on_c, 0, 80, 0
2, 124481, Note_on_c, 0, 83, 0
2, 124502, Note_on_c, 0, 89, 0
2, 124508, Note_on_c, 0, 86, 0
2, 124538, Note_on_c, 0, 52, 127
2, 124540, Note_on_c, 0, 40, 117
2, 124562, Note_on_c, 0, 40, 0
2, 124567, Note_on_c, 0, 52, 0
2, 124573, Control_c, 0, 64, 127
2, 124946, Control_c, 0, 64, 0
2, 124965, Note_on_c, 0, 69, 83
2, 124969, Note_on_c, 0, 93, 111
2, 124971, Note_on_c, 0, 59, 62
2, 124971, Note_on_c, 0, 65, 72
2, 124974, Note_on_c, 0, 81, 95
2, 124976, Note_on_c, 0, 86, 97
2, 124976, Note_on_c, 0, 89, 94
2, 124978, Note_on_c, 0, 62, 68
2, 124982, Control_c, 0, 64, 127
2, 124996, Note_on_c, 0, 62, 0
2, 125007, Note_on_c, 0, 69, 0
2, 125021, Note_on_c, 0, 59, 0
2, 125049, Note_on_c, 0, 81, 0
2, 125051, Note_on_c, 0, 93, 0
2, 125064, Note_on_c, 0, 65, 0
2, 125078, Note_on_c, 0, 89, 0
2, 125096, Note_on_c, 0, 86, 0
2, 125148, Note_on_c, 0, 59, 92
2, 125159, Note_on_c, 0, 65, 97
2, 125160, Note_on_c, 0, 62, 85
2, 125163, Note_on_c, 0, 68, 108
2, 125164, Note_on_c, 0, 86, 100
2, 125164, Note_on_c, 0, 92, 107
2, 125165, Note_on_c, 0, 80, 110
2, 125166, Note_on_c, 0, 89, 82
2, 125173, Note_on_c, 0, 62, 0
2, 125174, Note_on_c, 0, 65, 0
2, 125179, Note_on_c, 0, 59, 0
2, 125180, Note_on_c, 0, 86, 0
2, 125183, Note_on_c, 0, 89, 0
2, 125195, Note_on_c, 0, 80, 0
2, 125195, Note_on_c, 0, 68, 0
2, 125209, Note_on_c, 0, 92, 0
2, 125314, Control_c, 0, 64, 0
2, 125332, Note_on_c, 0, 62, 89
2, 125340, Note_on_c, 0, 65, 93
2, 125349, Note_on_c, 0, 68, 110
2, 125350, Note_on_c, 0, 92, 118
2, 125351, Note_on_c, 0, 96, 113
2, 125351, Control_c, 0, 64, 127
2, 125352, Note_on_c, 0, 89, 107
2, 125353, Note_on_c, 0, 84, 106
2, 125353, Note_on_c, 0, 72, 114
2, 125386, Note_on_c, 0, 62, 0
2, 125390, Note_on_c, 0, 72, 0
2, 125409, Note_on_c, 0, 96, 0
2, 125412, Note_on_c, 0, 65, 0
2, 125438, Note_on_c, 0, 92, 0
2, 125443, Note_on_c, 0, 84, 0
2, 125448, Note_on_c, 0, 89, 0
2, 125466, Note_on_c, 0, 68, 0
2, 125487, Control_c, 0, 64, 0
2, 125489, Note_on_c, 0, 62, 74
2, 125501, Note_on_c, 0, 65, 84
2, 125509, Note_on_c, 0, 71, 114
2, 125509, Note_on_c, 0, 68, 97
2, 125510, Note_on_c, 0, 95, 116
2, 125511, Control_c, 0, 64, 127
2, 125512, Note_on_c, 0, 92, 108
2, 125512, Note_on_c, 0, 89, 105
2, 125512, Note_on_c, 0, 83, 107
2, 125523, Note_on_c, 0, 62, 0
2, 125526, Note_on_c, 0, 65, 0
2, 125531, Note_on_c, 0, 89, 0
2, 125536, Note_on_c, 0, 68, 0
2, 125540, Note_on_c, 0, 83, 0
2, 125541, Note_on_c, 0, 71, 0
2, 125554, Note_on_c, 0, 92, 0
2, 125554, Note_on_c, 0, 95, 0
2, 125667, Control_c, 0, 64, 0
2, 125712, Control_c, 0, 64, 127
2, 125713, Note_on_c, 0, 98, 127
2, 125714, Note_on_c, 0, 74, 124
2, 125714, Note_on_c, 0, 86, 120
2, 125717, Note_on_c, 0, 62, 111
2, 125729, Note_on_c, 0, 62, 0
2, 125744, Note_on_c, 0, 86, 0
2, 125744, Note_on_c, 0, 74, 0
2, 125753, Note_on_c, 0, 98, 0
2, 125898, Note_on_c, 0, 101, 113
2, 125900, Note_on_c, 0, 89, 120
2, 125902, Note_on_c, 0, 77, 106
2, 125903, Note_on_c, 0, 65, 110
2, 125914, Note_on_c, 0, 77, 0
2, 125922, Note_on_c, 0, 101, 0
2, 125930, Note_on_c, 0, 89, 0
2, 125936, Note_on_c, 0, 65, 0
2, 126071, Control_c, 0, 64, 0
2, 126081, Control_c, 0, 64, 127
2, 126094, Note_on_c, 0, 71, 101
2, 126094, Note_on_c, 0, 95, 114
2, 126098, Note_on_c, 0, 83, 90
2, 126099, Note_on_c, 0, 59, 82
2, 126107, Note_on_c, 0, 71, 0
2, 126112, Note_on_c, 0, 83, 0
2, 126114, Note_on_c, 0, 59, 0
2, 126124, Note_on_c, 0, 95, 0
2, 126167, Note_on_c, 0, 60, 95
2, 126167, Note_on_c, 0, 72, 100
2, 126168, Note_on_c, 0, 84, 98
2, 126169, Control_c, 0, 64, 0
2, 126170, Note_on_c, 0, 96, 95
2, 126181, Note_on_c, 0, 60, 0
2, 126183, Note_on_c, 0, 72, 0
2, 126183, Note_on_c, 0, 84, 0
2, 126190, Note_on_c, 0, 96, 0
2, 126219, Control_c, 0, 64, 127
2, 126231, Note_on_c, 0, 98, 102
2, 126237, Note_on_c, 0, 74, 103
2, 126237, Note_on_c, 0, 62, 108
2, 126239, Note_on_c, 0, 86, 80
2, 126245, Note_on_c, 0, 96, 48
2, 126249, Note_on_c, 0, 74, 0
2, 126259, Note_on_c, 0, 96, 0
2, 126262, Note_on_c, 0, 86, 0
2, 126265, Note_on_c, 0, 62, 0
2, 126265, Note_on_c, 0, 98, 0
2, 126391, Note_on_c, 0, 94, 94
2, 126393, Note_on_c, 0, 58, 99
2, 126394, Note_on_c, 0, 82, 90
2, 126395, Note_on_c, 0, 70, 96
2, 126403, Note_on_c, 0, 94, 0
2, 126408, Note_on_c, 0, 58, 0
2, 126408, Note_on_c, 0, 82, 0
2, 126411, Note_on_c, 0, 70, 0
2, 126451, Control_c, 0, 64, 0
2, 126453, Note_on_c, 0, 93, 102
2, 126457, Note_on_c, 0, 81, 95
2, 126469, Note_on_c, 0, 57, 71
2, 126471, Note_on_c, 0, 81, 0
2, 126484, Note_on_c, 0, 93, 0
2, 126486, Note_on_c, 0, 57, 0
2, 126487, Control_c, 0, 64, 127
2, 126522, Note_on_c, 0, 68, 97
2, 126523, Note_on_c, 0, 56, 118
2, 126525, Note_on_c, 0, 92, 111
2, 126526, Note_on_c, 0, 80, 115
2, 126535, Note_on_c, 0, 92, 0
2, 126537, Note_on_c, 0, 68, 0
2, 126548, Note_on_c, 0, 80, 0
2, 126551, Note_on_c, 0, 56, 0
2, 126669, Control_c, 0, 64, 0
2, 126669, Note_on_c, 0, 86, 99
2, 126672, Note_on_c, 0, 74, 94
2, 126680, Note_on_c, 0, 62, 91
2, 126680, Note_on_c, 0, 50, 99
2, 126685, Note_on_c, 0, 74, 0
2, 126692, Note_on_c, 0, 50, 0
2, 126693, Note_on_c, 0, 62, 0
2, 126698, Note_on_c, 0, 86, 0
2, 126705, Control_c, 0, 64, 127
2, 126742, Note_on_c, 0, 88, 99
2, 126743, Note_on_c, 0, 76, 101
2, 126748, Note_on_c, 0, 52, 69
2, 126748, Note_on_c, 0, 64, 71
2, 126749, Control_c, 0, 64, 0
2, 126753, Note_on_c, 0, 50, 62
2, 126757, Note_on_c, 0, 76, 0
2, 126761, Note_on_c, 0, 64, 0
2, 126764, Note_on_c, 0, 52, 0
2, 126771, Note_on_c, 0, 50, 0
2, 126772, Note_on_c, 0, 88, 0
2, 126790, Control_c, 0, 64, 127
2, 126805, Note_on_c, 0, 89, 103
2, 126808, Note_on_c, 0, 77, 108
2, 126810, Note_on_c, 0, 53, 117
2, 126811, Note_on_c, 0, 65, 105
2, 126822, Note_on_c, 0, 65, 0
2, 126835, Note_on_c, 0, 89, 0
2, 126839, Note_on_c, 0, 77, 0
2, 126841, Note_on_c, 0, 53, 0
2, 126948, Note_on_c, 0, 83, 100
2, 126950, Note_on_c, 0, 59, 98
2, 126951, Note_on_c, 0, 71, 89
2, 126951, Note_on_c, 0, 47, 98
2, 126961, Note_on_c, 0, 83, 0
2, 126962, Note_on_c, 0, 47, 0
2, 126964, Note_on_c, 0, 59, 0
2, 126966, Note_on_c, 0, 71, 0
2, 126997, Control_c, 0, 64, 0
2, 127013, Note_on_c, 0, 72, 94
2, 127013, Note_on_c, 0, 84, 98
2, 127017, Note_on_c, 0, 48, 98
2, 127017, Note_on_c, 0, 60, 105
2, 127027, Note_on_c, 0, 48, 0
2, 127028, Note_on_c, 0, 72, 0
2, 127032, Note_on_c, 0, 84, 0
2, 127033, Note_on_c, 0, 60, 0
2, 127050, Control_c, 0, 64, 127
2, 127076, Note_on_c, 0, 86, 105
2, 127078, Note_on_c, 0, 74, 110
2, 127081, Note_on_c, 0, 62, 95
2, 127081, Note_on_c, 0, 50, 107
2, 127094, Note_on_c, 0, 62, 0
2, 127101, Note_on_c, 0, 50, 0
2, 127104, Note_on_c, 0, 86, 0
2, 127111, Note_on_c, 0, 74, 0
2, 127204, Note_on_c, 0, 70, 97
2, 127204, Note_on_c, 0, 82, 93
2, 127208, Note_on_c, 0, 58, 96
2, 127209, Note_on_c, 0, 46, 90
2, 127216, Note_on_c, 0, 70, 0
2, 127217, Note_on_c, 0, 82, 0
2, 127220, Note_on_c, 0, 58, 0
2, 127220, Note_on_c, 0, 46, 0
2, 127258, Control_c, 0, 64, 0
2, 127269, Note_on_c, 0, 81, 103
2, 127271, Note_on_c, 0, 45, 99
2, 127271, Note_on_c, 0, 69, 102
2, 127273, Note_on_c, 0, 57, 74
2, 127283, Note_on_c, 0, 45, 0
2, 127284, Note_on_c, 0, 69, 0
2, 127285, Note_on_c, 0, 81, 0
2, 127289, Note_on_c, 0, 57, 0
2, 127301, Control_c, 0, 64, 127
2, 127329, Note_on_c, 0, 44, 104
2, 127330, Note_on_c, 0, 56, 90
2, 127333, Note_on_c, 0, 80, 102
2, 127336, Note_on_c, 0, 68, 102
2, 127342, Note_on_c, 0, 44, 0
2, 127344, Note_on_c, 0, 56, 0
2, 127356, Note_on_c, 0, 68, 0
2, 127363, Note_on_c, 0, 80, 0
2, 127457, Control_c, 0, 64, 0
2, 127464, Note_on_c, 0, 50, 92
2, 127466, Note_on_c, 0, 74, 92
2, 127466, Note_on_c, 0, 62, 93
2, 127466, Note_on_c, 0, 38, 79
2, 127477, Note_on_c, 0, 50, 0
2, 127479, Note_on_c, 0, 38, 0
2, 127479, Note_on_c, 0, 62, 0
2, 127486, Note_on_c, 0, 74, 0
2, 127531, Note_on_c, 0, 40, 98
2, 127531, Note_on_c, 0, 52, 97
2, 127533, Note_on_c, 0, 76, 105
2, 127536, Note_on_c, 0, 64, 88
2, 127537, Control_c, 0, 64, 127
2, 127543, Note_on_c, 0, 40, 0
2, 127544, Note_on_c, 0, 52, 0
2, 127549, Note_on_c, 0, 64, 0
2, 127560, Note_on_c, 0, 76, 0
2, 127593, Note_on_c, 0, 41, 116
2, 127596, Note_on_c, 0, 53, 108
2, 127597, Note_on_c, 0, 77, 101
2, 127600, Note_on_c, 0, 65, 98
2, 127607, Note_on_c, 0, 53, 0
2, 127621, Note_on_c, 0, 65, 0
2, 127627, Note_on_c, 0, 41, 0
2, 127628, Note_on_c, 0, 77, 0
2, 127728, Control_c, 0, 64, 0
2, 127733, Note_on_c, 0, 71, 102
2, 127735, Note_on_c, 0, 59, 98
2, 127737, Note_on_c, 0, 35, 73
2, 127738, Note_on_c, 0, 47, 79
2, 127747, Note_on_c, 0, 71, 0
2, 127748, Note_on_c, 0, 59, 0
2, 127754, Note_on_c, 0, 35, 0
2, 127754, Note_on_c, 0, 47, 0
2, 127790, Control_c, 0, 64, 127
2, 127799, Note_on_c, 0, 72, 100
2, 127799, Note_on_c, 0, 60, 102
2, 127800, Note_on_c, 0, 36, 102
2, 127800, Note_on_c, 0, 48, 103
2, 127812, Note_on_c, 0, 36, 0
2, 127818, Note_on_c, 0, 60, 0
2, 127822, Note_on_c, 0, 48, 0
2, 127831, Note_on_c, 0, 72, 0
2, 127865, Note_on_c, 0, 74, 101
2, 127869, Note_on_c, 0, 62, 103
2, 127870, Note_on_c, 0, 50, 83
2, 127870, Note_on_c, 0, 38, 88
2, 127885, Note_on_c, 0, 38, 0
2, 127887, Note_on_c, 0, 50, 0
2, 127894, Note_on_c, 0, 62, 0
2, 127894, Note_on_c, 0, 74, 0
2, 127999, Note_on_c, 0, 70, 95
2, 127999, Note_on_c, 0, 58, 102
2, 128001, Note_on_c, 0, 34, 94
2, 128002, Note_on_c, 0, 46, 102
2, 128012, Note_on_c, 0, 58, 0
2, 128012, Note_on_c, 0, 70, 0
2, 128015, Note_on_c, 0, 34, 0
2, 128017, Note_on_c, 0, 46, 0
2, 128044, Control_c, 0, 64, 0
2, 128070, Note_on_c, 0, 69, 84
2, 128072, Note_on_c, 0, 57, 95
2, 128075, Note_on_c, 0, 45, 76
2, 128079, Note_on_c, 0, 33, 49
2, 128084, Note_on_c, 0, 57, 0
2, 128091, Note_on_c, 0, 45, 0
2, 128097, Note_on_c, 0, 33, 0
2, 128098, Note_on_c, 0, 69, 0
2, 128101, Control_c, 0, 64, 127
2, 128131, Note_on_c, 0, 68, 107
2, 128132, Note_on_c, 0, 32, 102
2, 128132, Note_on_c, 0, 44, 101
2, 128133, Note_on_c, 0, 56, 101
2, 128138, Note_on_c, 0, 70, 45
2, 128146, Note_on_c, 0, 32, 0
2, 128149, Note_on_c, 0, 44, 0
2, 128152, Note_on_c, 0, 70, 0
2, 128159, Note_on_c, 0, 56, 0
2, 128162, Note_on_c, 0, 68, 0
2, 128234, Note_on_c, 0, 63, 87
2, 128249, Note_on_c, 0, 63, 0
2, 128315, Note_on_c, 0, 62, 92
2, 128320, Note_on_c, 0, 50, 88
2, 128323, Note_on_c, 0, 38, 74
2, 128327, Note_on_c, 0, 26, 50
2, 128335, Note_on_c, 0, 50, 0
2, 128338, Note_on_c, 0, 38, 0
2, 128342, Note_on_c, 0, 26, 0
2, 128350, Note_on_c, 0, 62, 0
2, 128368, Control_c, 0, 64, 0
2, 128391, Note_on_c, 0, 40, 98
2, 128391, Note_on_c, 0, 64, 103
2, 128392, Note_on_c, 0, 28, 101
2, 128396, Note_on_c, 0, 52, 65
2, 128404, Note_on_c, 0, 28, 0
2, 128412, Note_on_c, 0, 52, 0
2, 128412, Note_on_c, 0, 40, 0
2, 128415, Note_on_c, 0, 64, 0
2, 128427, Control_c, 0, 64, 127
2, 128457, Note_on_c, 0, 65, 110
2, 128458, Note_on_c, 0, 29, 108
2, 128458, Note_on_c, 0, 41, 101
2, 128459, Note_on_c, 0, 53, 103
2, 128474, Note_on_c, 0, 41, 0
2, 128488, Note_on_c, 0, 29, 0
2, 128490, Note_on_c, 0, 53, 0
2, 128493, Note_on_c, 0, 65, 0
2, 128621, Note_on_c, 0, 63, 104
2, 128621, Note_on_c, 0, 27, 103
2, 128623, Note_on_c, 0, 39, 90
2, 128624, Note_on_c, 0, 51, 111
2, 128638, Note_on_c, 0, 27, 0
2, 128642, Note_on_c, 0, 39, 0
2, 128647, Note_on_c, 0, 51, 0
2, 128656, Note_on_c, 0, 63, 0
2, 128672, Control_c, 0, 64, 0
2, 128689, Note_on_c, 0, 64, 106
2, 128690, Note_on_c, 0, 52, 100
2, 128690, Note_on_c, 0, 28, 98
2, 128695, Note_on_c, 0, 40, 86
2, 128703, Note_on_c, 0, 28, 0
2, 128704, Note_on_c, 0, 52, 0
2, 128708, Note_on_c, 0, 40, 0
2, 128720, Note_on_c, 0, 64, 0
2, 128728, Control_c, 0, 64, 127
2, 128753, Note_on_c, 0, 65, 107
2, 128756, Note_on_c, 0, 53, 105
2, 128759, Note_on_c, 0, 29, 103
2, 128761, Note_on_c, 0, 41, 91
2, 128772, Note_on_c, 0, 29, 0
2, 128775, Note_on_c, 0, 41, 0
2, 128775, Note_on_c, 0, 53, 0
2, 128781, Note_on_c, 0, 65, 0
2, 128916, Control_c, 0, 64, 0
2, 128925, Note_on_c, 0, 27, 101
2, 128927, Note_on_c, 0, 39, 92
2, 128928, Note_on_c, 0, 63, 100
2, 128932, Note_on_c, 0, 51, 98
2, 128939, Note_on_c, 0, 27, 0
2, 128942, Note_on_c, 0, 39, 0
2, 128945, Note_on_c, 0, 51, 0
2, 128945, Control_c, 0, 64, 127
2, 128964, Note_on_c, 0, 63, 0
2, 128994, Note_on_c, 0, 40, 98
2, 128996, Note_on_c, 0, 64, 103
2, 128997, Note_on_c, 0, 28, 85
2, 128999, Note_on_c, 0, 52, 94
2, 128999, Control_c, 0, 64, 0
2, 129007, Note_on_c, 0, 40, 0
2, 129012, Note_on_c, 0, 52, 0
2, 129012, Note_on_c, 0, 28, 0
2, 129030, Note_on_c, 0, 64, 0
2, 129038, Control_c, 0, 64, 127
2, 129060, Note_on_c, 0, 65, 103
2, 129063, Note_on_c, 0, 53, 100
2, 129065, Note_on_c, 0, 29, 102
2, 129065, Note_on_c, 0, 41, 103
2, 129076, Note_on_c, 0, 41, 0
2, 129077, Note_on_c, 0, 29, 0
2, 129083, Note_on_c, 0, 53, 0
2, 129091, Note_on_c, 0, 65, 0
2, 129203, Control_c, 0, 64, 0
2, 129236, Control_c, 0, 67, 127
2, 129300, Note_on_c, 0, 27, 62
2, 129302, Note_on_c, 0, 63, 66
2, 129304, Note_on_c, 0, 51, 59
2, 129314, Note_on_c, 0, 39, 33
2, 129328, Control_c, 0, 64, 127
2, 129361, Note_on_c, 0, 39, 0
2, 129361, Note_on_c, 0, 51, 0
2, 129364, Note_on_c, 0, 27, 0
2, 129386, Note_on_c, 0, 63, 0
2, 129439, Note_on_c, 0, 28, 73
2, 129442, Note_on_c, 0, 64, 84
2, 129453, Note_on_c, 0, 52, 39
2, 129459, Note_on_c, 0, 28, 0
2, 129472, Note_on_c, 0, 52, 0
2, 129485, Note_on_c, 0, 64, 0
2, 129558, Note_on_c, 0, 28, 88
2, 129562, Note_on_c, 0, 64, 86
2, 129563, Note_on_c, 0, 40, 64
2, 129565, Note_on_c, 0, 52, 72
2, 129572, Note_on_c, 0, 28, 0
2, 129578, Note_on_c, 0, 64, 0
2, 129580, Note_on_c, 0, 40, 0
2, 129583, Note_on_c, 0, 52, 0
2, 129651, Note_on_c, 0, 65, 90
2, 129654, Note_on_c, 0, 53, 87
2, 129657, Note_on_c, 0, 29, 73
2, 129671, Note_on_c, 0, 53, 0
2, 129674, Note_on_c, 0, 29, 0
2, 129682, Note_on_c, 0, 65, 0
2, 129730, Note_on_c, 0, 65, 80
2, 129737, Note_on_c, 0, 53, 85
2, 129739, Note_on_c, 0, 29, 74
2, 129741, Note_on_c, 0, 41, 89
2, 129754, Note_on_c, 0, 53, 0
2, 129756, Note_on_c, 0, 29, 0
2, 129758, Note_on_c, 0, 41, 0
2, 129762, Note_on_c, 0, 65, 0
2, 129813, Note_on_c, 0, 66, 93
2, 129818, Note_on_c, 0, 30, 44
2, 129820, Note_on_c, 0, 42, 55
2, 129821, Note_on_c, 0, 54, 55
2, 129832, Note_on_c, 0, 30, 0
2, 129832, Note_on_c, 0, 66, 0
2, 129835, Note_on_c, 0, 42, 0
2, 129837, Note_on_c, 0, 54, 0
2, 129879, Note_on_c, 0, 42, 73
2, 129879, Note_on_c, 0, 30, 90
2, 129881, Note_on_c, 0, 66, 94
2, 129883, Note_on_c, 0, 54, 89
2, 129896, Note_on_c, 0, 30, 0
2, 129898, Note_on_c, 0, 42, 0
2, 129914, Note_on_c, 0, 54, 0
2, 129920, Note_on_c, 0, 66, 0
2, 129953, Note_on_c, 0, 55, 94
2, 129954, Note_on_c, 0, 67, 97
2, 129955, Note_on_c, 0, 31, 88
2, 129957, Note_on_c, 0, 43, 89
2, 129968, Note_on_c, 0, 55, 0
2, 129969, Note_on_c, 0, 31, 0
2, 129973, Note_on_c, 0, 43, 0
2, 129986, Note_on_c, 0, 67, 0
2, 130021, Note_on_c, 0, 67, 103
2, 130024, Note_on_c, 0, 55, 60
2, 130024, Note_on_c, 0, 31, 98
2, 130032, Note_on_c, 0, 43, 56
2, 130038, Note_on_c, 0, 31, 0
2, 130045, Note_on_c, 0, 55, 0
2, 130048, Note_on_c, 0, 43, 0
2, 130055, Note_on_c, 0, 67, 0
2, 130088, Note_on_c, 0, 68, 95
2, 130093, Note_on_c, 0, 56, 99
2, 130095, Note_on_c, 0, 32, 75
2, 130096, Note_on_c, 0, 44, 93
2, 130109, Note_on_c, 0, 32, 0
2, 130109, Note_on_c, 0, 56, 0
2, 130110, Note_on_c, 0, 44, 0
2, 130116, Note_on_c, 0, 68, 0
2, 130147, Note_on_c, 0, 44, 40
2, 130149, Note_on_c, 0, 32, 68
2, 130150, Note_on_c, 0, 56, 53
2, 130151, Note_on_c, 0, 68, 97
2, 130169, Note_on_c, 0, 32, 0
2, 130180, Note_on_c, 0, 44, 0
2, 130184, Note_on_c, 0, 56, 0
2, 130189, Note_on_c, 0, 68, 0
2, 130216, Note_on_c, 0, 33, 86
2, 130216, Note_on_c, 0, 57, 99
2, 130217, Note_on_c, 0, 69, 92
2, 130218, Note_on_c, 0, 45, 89
2, 130228, Note_on_c, 0, 57, 0
2, 130230, Note_on_c, 0, 33, 0
2, 130231, Note_on_c, 0, 45, 0
2, 130233, Note_on_c, 0, 69, 0
2, 130280, Note_on_c, 0, 69, 99
2, 130281, Note_on_c, 0, 33, 84
2, 130285, Note_on_c, 0, 45, 78
2, 130286, Note_on_c, 0, 57, 97
2, 130298, Note_on_c, 0, 33, 0
2, 130299, Note_on_c, 0, 45, 0
2, 130300, Note_on_c, 0, 57, 0
2, 130310, Note_on_c, 0, 69, 0
2, 130345, Note_on_c, 0, 34, 98
2, 130348, Note_on_c, 0, 70, 102
2, 130349, Note_on_c, 0, 58, 105
2, 130349, Note_on_c, 0, 46, 107
2, 130359, Note_on_c, 0, 34, 0
2, 130364, Note_on_c, 0, 46, 0
2, 130364, Note_on_c, 0, 58, 0
2, 130370, Note_on_c, 0, 70, 0
2, 130408, Note_on_c, 0, 34, 97
2, 130409, Note_on_c, 0, 70, 102
2, 130409, Note_on_c, 0, 46, 98
2, 130411, Note_on_c, 0, 58, 94
2, 130436, Note_on_c, 0, 46, 0
2, 130436, Note_on_c, 0, 34, 0
2, 130444, Note_on_c, 0, 58, 0
2, 130449, Note_on_c, 0, 70, 0
2, 130478, Note_on_c, 0, 59, 105
2, 130479, Note_on_c, 0, 71, 106
2, 130479, Note_on_c, 0, 47, 89
2, 130480, Note_on_c, 0, 35, 97
2, 130494, Note_on_c, 0, 47, 0
2, 130496, Note_on_c, 0, 35, 0
2, 130499, Note_on_c, 0, 59, 0
2, 130507, Note_on_c, 0, 71, 0
2, 130533, Note_on_c, 0, 47, 97
2, 130537, Note_on_c, 0, 59, 92
2, 130537, Note_on_c, 0, 35, 75
2, 130537, Note_on_c, 0, 71, 100
2, 130551, Note_on_c, 0, 59, 0
2, 130555, Note_on_c, 0, 35, 0
2, 130559, Control_c, 0, 67, 0
2, 130564, Note_on_c, 0, 47, 0
2, 130573, Note_on_c, 0, 71, 0
2, 130606, Note_on_c, 0, 72, 90
2, 130608, Note_on_c, 0, 60, 101
2, 130616, Note_on_c, 0, 48, 107
2, 130620, Note_on_c, 0, 36, 85
2, 130631, Note_on_c, 0, 48, 0
2, 130633, Note_on_c, 0, 72, 0
2, 130633, Note_on_c, 0, 60, 0
2, 130633, Control_c, 0, 64, 0
2, 130634, Note_on_c, 0, 36, 0
2, 130661, Control_c, 0, 64, 127
2, 130674, Note_on_c, 0, 36, 88
2, 130676, Note_on_c, 0, 60, 111
2, 130676, Note_on_c, 0, 72, 106
2, 130677, Note_on_c, 0, 48, 94
2, 130689, Note_on_c, 0, 60, 0
2, 130702, Note_on_c, 0, 48, 0
2, 130705, Note_on_c, 0, 36, 0
2, 130708, Note_on_c, 0, 72, 0
2, 130747, Note_on_c, 0, 73, 112
2, 130749, Note_on_c, 0, 61, 105
2, 130754, Note_on_c, 0, 37, 101
2, 130755, Note_on_c, 0, 49, 99
2, 130768, Note_on_c, 0, 37, 0
2, 130768, Note_on_c, 0, 61, 0
2, 130771, Note_on_c, 0, 49, 0
2, 130778, Note_on_c, 0, 73, 0
2, 130805, Note_on_c, 0, 61, 101
2, 130805, Note_on_c, 0, 49, 101
2, 130808, Note_on_c, 0, 37, 101
2, 130808, Note_on_c, 0, 73, 101
2, 130839, Note_on_c, 0, 49, 0
2, 130840, Note_on_c, 0, 37, 0
2, 130842, Note_on_c, 0, 61, 0
2, 130847, Note_on_c, 0, 73, 0
2, 130874, Note_on_c, 0, 38, 103
2, 130875, Note_on_c, 0, 74, 107
2, 130875, Note_on_c, 0, 62, 106
2, 130875, Note_on_c, 0, 50, 107
2, 130888, Control_c, 0, 64, 0
2, 130891, Note_on_c, 0, 50, 0
2, 130901, Note_on_c, 0, 62, 0
2, 130901, Note_on_c, 0, 38, 0
2, 130909, Note_on_c, 0, 74, 0
2, 130911, Control_c, 0, 64, 127
2, 130938, Note_on_c, 0, 74, 107
2, 130939, Note_on_c, 0, 38, 103
2, 130940, Note_on_c, 0, 50, 108
2, 130941, Note_on_c, 0, 62, 101
2, 130965, Note_on_c, 0, 50, 0
2, 130966, Note_on_c, 0, 74, 0
2, 130966, Note_on_c, 0, 38, 0
2, 130971, Note_on_c, 0, 62, 0
2, 131006, Note_on_c, 0, 51, 111
2, 131008, Note_on_c, 0, 39, 101
2, 131009, Note_on_c, 0, 63, 105
2, 131009, Note_on_c, 0, 75, 105
2, 131021, Note_on_c, 0, 39, 0
2, 131024, Note_on_c, 0, 75, 0
2, 131024, Note_on_c, 0, 63, 0
2, 131032, Note_on_c, 0, 51, 0
2, 131062, Note_on_c, 0, 63, 84
2, 131065, Note_on_c, 0, 51, 101
2, 131065, Note_on_c, 0, 39, 101
2, 131065, Note_on_c, 0, 75, 101
2, 131094, Note_on_c, 0, 63, 0
2, 131098, Note_on_c, 0, 39, 0
2, 131099, Note_on_c, 0, 51, 0
2, 131099, Note_on_c, 0, 75, 0
2, 131131, Note_on_c, 0, 64, 110
2, 131134, Note_on_c, 0, 76, 102
2, 131141, Note_on_c, 0, 52, 101
2, 131141, Control_c, 0, 64, 0
2, 131142, Note_on_c, 0, 40, 100
2, 131151, Note_on_c, 0, 64, 0
2, 131155, Note_on_c, 0, 76, 0
2, 131156, Note_on_c, 0, 52, 0
2, 131156, Note_on_c, 0, 40, 0
2, 131156, Note_on_c, 0, 50, 107
2, 131170, Note_on_c, 0, 50, 0
2, 131175, Control_c, 0, 64, 127
2, 131193, Note_on_c, 0, 76, 108
2, 131196, Note_on_c, 0, 64, 106
2, 131209, Note_on_c, 0, 52, 108
2, 131216, Note_on_c, 0, 40, 65
2, 131221, Note_on_c, 0, 52, 0
2, 131228, Note_on_c, 0, 64, 0
2, 131233, Note_on_c, 0, 40, 0
2, 131236, Note_on_c, 0, 76, 0
2, 131323, Note_on_c, 0, 53, 110
2, 131323, Note_on_c, 0, 41, 111
2, 131324, Note_on_c, 0, 65, 110
2, 131325, Note_on_c, 0, 77, 106
2, 131337, Note_on_c, 0, 53, 0
2, 131339, Note_on_c, 0, 41, 0
2, 131341, Note_on_c, 0, 65, 0
2, 131356, Note_on_c, 0, 77, 0
2, 131390, Control_c, 0, 64, 0
2, 131419, Control_c, 0, 64, 127
2, 131423, Note_on_c, 0, 66, 109
2, 131423, Note_on_c, 0, 78, 109
2, 131424, Note_on_c, 0, 54, 101
2, 131425, Note_on_c, 0, 42, 109
2, 131437, Note_on_c, 0, 54, 0
2, 131438, Note_on_c, 0, 42, 0
2, 131449, Note_on_c, 0, 66, 0
2, 131459, Note_on_c, 0, 78, 0
2, 131503, Note_on_c, 0, 67, 107
2, 131504, Note_on_c, 0, 79, 106
2, 131506, Note_on_c, 0, 43, 102
2, 131506, Note_on_c, 0, 55, 108
2, 131518, Note_on_c, 0, 55, 0
2, 131519, Note_on_c, 0, 67, 0
2, 131520, Note_on_c, 0, 43, 0
2, 131535, Note_on_c, 0, 79, 0
2, 131576, Note_on_c, 0, 68, 110
2, 131576, Note_on_c, 0, 80, 108
2, 131580, Note_on_c, 0, 56, 109
2, 131580, Note_on_c, 0, 44, 109
2, 131594, Note_on_c, 0, 44, 0
2, 131597, Note_on_c, 0, 56, 0
2, 131604, Note_on_c, 0, 68, 0
2, 131611, Note_on_c, 0, 80, 0
2, 131648, Note_on_c, 0, 81, 110
2, 131649, Note_on_c, 0, 69, 107
2, 131652, Note_on_c, 0, 57, 110
2, 131652, Note_on_c, 0, 45, 105
2, 131664, Note_on_c, 0, 45, 0
2, 131664, Note_on_c, 0, 57, 0
2, 131664, Note_on_c, 0, 69, 0
2, 131680, Note_on_c, 0, 81, 0
2, 131713, Note_on_c, 0, 70, 107
2, 131716, Note_on_c, 0, 82, 102
2, 131719, Note_on_c, 0, 58, 113
2, 131720, Note_on_c, 0, 46, 111
2, 131741, Note_on_c, 0, 46, 0
2, 131741, Note_on_c, 0, 70, 0
2, 131744, Note_on_c, 0, 58, 0
2, 131744, Note_on_c, 0, 82, 0
2, 131785, Note_on_c, 0, 83, 113
2, 131786, Note_on_c, 0, 71, 117
2, 131787, Note_on_c, 0, 59, 119
2, 131789, Note_on_c, 0, 47, 114
2, 131801, Note_on_c, 0, 71, 0
2, 131803, Note_on_c, 0, 47, 0
2, 131812, Note_on_c, 0, 59, 0
2, 131812, Note_on_c, 0, 83, 0
2, 131858, Note_on_c, 0, 72, 113
2, 131858, Note_on_c, 0, 84, 111
2, 131864, Note_on_c, 0, 60, 110
2, 131865, Note_on_c, 0, 48, 106
2, 131876, Note_on_c, 0, 48, 0
2, 131879, Note_on_c, 0, 60, 0
2, 131885, Note_on_c, 0, 84, 0
2, 131889, Note_on_c, 0, 72, 0
2, 131934, Note_on_c, 0, 61, 113
2, 131935, Note_on_c, 0, 49, 115
2, 131940, Note_on_c, 0, 73, 115
2, 131940, Note_on_c, 0, 85, 115
2, 131961, Note_on_c, 0, 61, 0
2, 131962, Note_on_c, 0, 49, 0
2, 131969, Note_on_c, 0, 73, 0
2, 131976, Note_on_c, 0, 85, 0
2, 132016, Note_on_c, 0, 62, 110
2, 132017, Note_on_c, 0, 50, 108
2, 132020, Note_on_c, 0, 86, 113
2, 132021, Note_on_c, 0, 74, 117
2, 132032, Note_on_c, 0, 62, 0
2, 132037, Note_on_c, 0, 50, 0
2, 132048, Note_on_c, 0, 86, 0
2, 132049, Note_on_c, 0, 74, 0
2, 132101, Note_on_c, 0, 51, 120
2, 132101, Note_on_c, 0, 63, 127
2, 132101, Note_on_c, 0, 75, 115
2, 132102, Note_on_c, 0, 87, 104
2, 132126, Control_c, 0, 64, 0
2, 132127, Note_on_c, 0, 63, 0
2, 132130, Note_on_c, 0, 51, 0
2, 132132, Note_on_c, 0, 75, 0
2, 132140, Note_on_c, 0, 87, 0
2, 132203, Control_c, 0, 64, 127
2, 132221, Note_on_c, 0, 88, 127
2, 132222, Note_on_c, 0, 76, 127
2, 132225, Note_on_c, 0, 52, 127
2, 132225, Note_on_c, 0, 64, 127
2, 132250, Control_c, 0, 64, 127
2, 132285, Control_c, 0, 64, 127
2, 132335, Note_on_c, 0, 88, 0
2, 132339, Note_on_c, 0, 64, 0
2, 132355, Note_on_c, 0, 76, 0
2, 132381, Note_on_c, 0, 52, 0
2, 132589, Note_on_c, 0, 40, 113
2, 132591, Note_on_c, 0, 52, 113
2, 132591, Note_on_c, 0, 57, 113
2, 132593, Note_on_c, 0, 33, 113
2, 132593, Note_on_c, 0, 45, 113
2, 132597, Note_on_c, 0, 60, 123
2, 132601, Note_on_c, 0, 40, 0
2, 132604, Note_on_c, 0, 52, 0
2, 132604, Note_on_c, 0, 57, 0
2, 132605, Note_on_c, 0, 45, 0
2, 132607, Note_on_c, 0, 33, 0
2, 132614, Note_on_c, 0, 60, 0
2, 132645, Note_on_c, 0, 60, 113
2, 132645, Note_on_c, 0, 45, 100
2, 132645, Note_on_c, 0, 40, 107
2, 132646, Note_on_c, 0, 33, 119
2, 132646, Note_on_c, 0, 57, 119
2, 132659, Note_on_c, 0, 57, 0
2, 132663, Note_on_c, 0, 40, 0
2, 132665, Note_on_c, 0, 45, 0
2, 132667, Note_on_c, 0, 60, 0
2, 132668, Note_on_c, 0, 33, 0
2, 132697, Note_on_c, 0, 45, 119
2, 132700, Note_on_c, 0, 52, 119
2, 132700, Note_on_c, 0, 33, 119
2, 132701, Note_on_c, 0, 57, 119
2, 132701, Note_on_c, 0, 60, 119
2, 132707, Note_on_c, 0, 40, 119
2, 132716, Note_on_c, 0, 57, 0
2, 132721, Note_on_c, 0, 40, 0
2, 132722, Note_on_c, 0, 33, 0
2, 132722, Note_on_c, 0, 45, 0
2, 132723, Note_on_c, 0, 52, 0
2, 132742, Note_on_c, 0, 60, 0
2, 132907, Note_on_c, 0, 57, 103
2, 132908, Note_on_c, 0, 40, 105
2, 132908, Note_on_c, 0, 52, 103
2, 132909, Note_on_c, 0, 45, 94
2, 132909, Note_on_c, 0, 60, 89
2, 132911, Note_on_c, 0, 33, 98
2, 132920, Note_on_c, 0, 40, 0
2, 132921, Note_on_c, 0, 52, 0
2, 132924, Note_on_c, 0, 45, 0
2, 132924, Note_on_c, 0, 57, 0
2, 132924, Note_on_c, 0, 33, 0
2, 132941, Note_on_c, 0, 60, 0
2, 133098, Note_on_c, 0, 40, 114
2, 133100, Note_on_c, 0, 60, 107
2, 133100, Note_on_c, 0, 33, 107
2, 133100, Note_on_c, 0, 45, 114
2, 133101, Note_on_c, 0, 57, 114
2, 133103, Note_on_c, 0, 52, 97
2, 133107, Note_on_c, 0, 40, 0
2, 133110, Note_on_c, 0, 45, 0
2, 133110, Note_on_c, 0, 33, 0
2, 133114, Note_on_c, 0, 57, 0
2, 133116, Note_on_c, 0, 52, 0
2, 133132, Note_on_c, 0, 60, 0
2, 133310, Control_c, 0, 64, 0
2, 133348, Note_on_c, 0, 81, 108
2, 133350, Note_on_c, 0, 69, 111
2, 133350, Note_on_c, 0, 57, 126
2, 133361, Note_on_c, 0, 57, 0
2, 133362, Note_on_c, 0, 69, 0
2, 133377, Note_on_c, 0, 81, 0
2, 133445, Note_on_c, 0, 83, 110
2, 133447, Note_on_c, 0, 71, 113
2, 133449, Note_on_c, 0, 59, 120
2, 133461, Note_on_c, 0, 59, 0
2, 133465, Note_on_c, 0, 71, 0
2, 133474, Note_on_c, 0, 83, 0
2, 133539, Control_c, 0, 64, 127
2, 133543, Note_on_c, 0, 72, 124
2, 133544, Note_on_c, 0, 60, 124
2, 133545, Note_on_c, 0, 84, 114
2, 133568, Note_on_c, 0, 72, 0
2, 133570, Note_on_c, 0, 60, 0
2, 133574, Note_on_c, 0, 84, 0
2, 133865, Note_on_c, 0, 63, 102
2, 133869, Note_on_c, 0, 53, 98
2, 133872, Note_on_c, 0, 41, 111
2, 133873, Note_on_c, 0, 60, 69
2, 133876, Note_on_c, 0, 45, 84
2, 133882, Note_on_c, 0, 53, 0
2, 133885, Note_on_c, 0, 41, 0
2, 133887, Note_on_c, 0, 63, 0
2, 133889, Note_on_c, 0, 45, 0
2, 133890, Note_on_c, 0, 60, 0
2, 133926, Note_on_c, 0, 63, 107
2, 133928, Note_on_c, 0, 53, 103
2, 133928, Note_on_c, 0, 60, 90
2, 133929, Note_on_c, 0, 41, 88
2, 133929, Note_on_c, 0, 45, 87
2, 133935, Note_on_c, 0, 33, 48
2, 133942, Note_on_c, 0, 45, 0
2, 133943, Note_on_c, 0, 41, 0
2, 133945, Note_on_c, 0, 60, 0
2, 133945, Note_on_c, 0, 53, 0
2, 133948, Note_on_c, 0, 63, 0
2, 133956, Note_on_c, 0, 33, 0
2, 133976, Note_on_c, 0, 45, 113
2, 133977, Note_on_c, 0, 41, 113
2, 133977, Note_on_c, 0, 63, 113
2, 133980, Note_on_c, 0, 33, 113
2, 133980, Note_on_c, 0, 53, 113
2, 133980, Note_on_c, 0, 60, 113
2, 133987, Note_on_c, 0, 45, 0
2, 133990, Note_on_c, 0, 41, 0
2, 134001, Note_on_c, 0, 33, 0
2, 134010, Note_on_c, 0, 53, 0
2, 134015, Note_on_c, 0, 60, 0
2, 134021, Note_on_c, 0, 63, 0
2, 134158, Note_on_c, 0, 63, 103
2, 134161, Note_on_c, 0, 60, 99
2, 134161, Note_on_c, 0, 45, 110
2, 134161, Note_on_c, 0, 41, 110
2, 134162, Note_on_c, 0, 53, 101
2, 134165, Note_on_c, 0, 33, 82
2, 134171, Note_on_c, 0, 41, 0
2, 134172, Note_on_c, 0, 45, 0
2, 134180, Note_on_c, 0, 53, 0
2, 134180, Note_on_c, 0, 33, 0
2, 134192, Note_on_c, 0, 63, 0
2, 134195, Note_on_c, 0, 60, 0
2, 134340, Note_on_c, 0, 41, 117
2, 134341, Note_on_c, 0, 33, 108
2, 134341, Note_on_c, 0, 45, 111
2, 134341, Note_on_c, 0, 63, 109
2, 134345, Note_on_c, 0, 60, 91
2, 134351, Note_on_c, 0, 41, 0
2, 134353, Note_on_c, 0, 33, 0
2, 134353, Note_on_c, 0, 45, 0
2, 134367, Note_on_c, 0, 60, 0
2, 134383, Note_on_c, 0, 63, 0
2, 134577, Control_c, 0, 64, 0
2, 134583, Note_on_c, 0, 83, 110
2, 134585, Note_on_c, 0, 59, 117
2, 134585, Note_on_c, 0, 71, 114
2, 134607, Note_on_c, 0, 71, 0
2, 134611, Note_on_c, 0, 83, 0
2, 134615, Note_on_c, 0, 59, 0
2, 134680, Note_on_c, 0, 81, 110
2, 134683, Note_on_c, 0, 69, 110
2, 134684, Note_on_c, 0, 57, 120
2, 134695, Note_on_c, 0, 57, 0
2, 134707, Note_on_c, 0, 69, 0
2, 134707, Note_on_c, 0, 81, 0
2, 134788, Note_on_c, 0, 52, 116
2, 134789, Control_c, 0, 64, 127
2, 134791, Note_on_c, 0, 64, 120
2, 134791, Note_on_c, 0, 76, 119
2, 134798, Note_on_c, 0, 52, 0
2, 134818, Note_on_c, 0, 64, 0
2, 134820, Note_on_c, 0, 76, 0
2, 135082, Note_on_c, 0, 40, 113
2, 135084, Note_on_c, 0, 60, 85
2, 135087, Note_on_c, 0, 45, 79
2, 135088, Note_on_c, 0, 52, 74
2, 135091, Note_on_c, 0, 57, 53
2, 135091, Note_on_c, 0, 33, 63
2, 135093, Note_on_c, 0, 40, 0
2, 135101, Note_on_c, 0, 45, 0
2, 135104, Note_on_c, 0, 52, 0
2, 135107, Note_on_c, 0, 57, 0
2, 135108, Note_on_c, 0, 33, 0
2, 135109, Note_on_c, 0, 60, 0
2, 135139, Note_on_c, 0, 52, 86
2, 135140, Note_on_c, 0, 57, 92
2, 135140, Note_on_c, 0, 60, 68
2, 135146, Note_on_c, 0, 40, 111
2, 135148, Note_on_c, 0, 33, 74
2, 135148, Note_on_c, 0, 45, 79
2, 135153, Note_on_c, 0, 57, 0
2, 135157, Note_on_c, 0, 40, 0
2, 135160, Note_on_c, 0, 60, 0
2, 135161, Note_on_c, 0, 45, 0
2, 135163, Note_on_c, 0, 52, 0
2, 135164, Note_on_c, 0, 33, 0
2, 135189, Note_on_c, 0, 60, 108
2, 135189, Note_on_c, 0, 52, 119
2, 135190, Note_on_c, 0, 45, 100
2, 135191, Note_on_c, 0, 57, 111
2, 135191, Note_on_c, 0, 33, 111
2, 135193, Note_on_c, 0, 40, 94
2, 135204, Note_on_c, 0, 57, 0
2, 135205, Note_on_c, 0, 45, 0
2, 135207, Note_on_c, 0, 40, 0
2, 135210, Note_on_c, 0, 33, 0
2, 135218, Note_on_c, 0, 52, 0
2, 135226, Note_on_c, 0, 60, 0
2, 135371, Note_on_c, 0, 57, 100
2, 135372, Note_on_c, 0, 52, 99
2, 135372, Note_on_c, 0, 60, 84
2, 135373, Note_on_c, 0, 45, 91
2, 135373, Note_on_c, 0, 40, 93
2, 135375, Note_on_c, 0, 33, 87
2, 135384, Note_on_c, 0, 40, 0
2, 135385, Note_on_c, 0, 57, 0
2, 135386, Note_on_c, 0, 45, 0
2, 135387, Note_on_c, 0, 52, 0
2, 135390, Note_on_c, 0, 33, 0
2, 135393, Note_on_c, 0, 60, 0
2, 135543, Note_on_c, 0, 40, 108
2, 135545, Note_on_c, 0, 60, 99
2, 135546, Note_on_c, 0, 33, 100
2, 135546, Note_on_c, 0, 45, 102
2, 135547, Note_on_c, 0, 57, 105
2, 135548, Note_on_c, 0, 52, 97
2, 135553, Note_on_c, 0, 40, 0
2, 135556, Note_on_c, 0, 45, 0
2, 135557, Note_on_c, 0, 33, 0
2, 135560, Note_on_c, 0, 52, 0
2, 135561, Note_on_c, 0, 57, 0
2, 135581, Note_on_c, 0, 60, 0
2, 135777, Note_on_c, 0, 51, 120
2, 135778, Note_on_c, 0, 63, 117
2, 135779, Note_on_c, 0, 75, 103
2, 135791, Note_on_c, 0, 51, 0
2, 135792, Control_c, 0, 64, 0
2, 135804, Note_on_c, 0, 63, 0
2, 135808, Note_on_c, 0, 75, 0
2, 135860, Note_on_c, 0, 52, 103
2, 135860, Note_on_c, 0, 76, 102
2, 135863, Note_on_c, 0, 64, 99
2, 135876, Note_on_c, 0, 64, 0
2, 135885, Note_on_c, 0, 52, 0
2, 135893, Note_on_c, 0, 76, 0
2, 135927, Control_c, 0, 64, 127
2, 135932, Note_on_c, 0, 65, 122
2, 135933, Note_on_c, 0, 77, 116
2, 135936, Note_on_c, 0, 53, 122
2, 135956, Note_on_c, 0, 77, 0
2, 135957, Note_on_c, 0, 65, 0
2, 135965, Note_on_c, 0, 53, 0
2, 136144, Note_on_c, 0, 71, 117
2, 136146, Note_on_c, 0, 59, 124
2, 136147, Note_on_c, 0, 68, 110
2, 136147, Note_on_c, 0, 45, 102
2, 136147, Note_on_c, 0, 56, 118
2, 136149, Note_on_c, 0, 50, 99
2, 136158, Note_on_c, 0, 45, 0
2, 136161, Note_on_c, 0, 50, 0
2, 136169, Note_on_c, 0, 56, 0
2, 136172, Note_on_c, 0, 59, 0
2, 136192, Note_on_c, 0, 68, 0
2, 136194, Note_on_c, 0, 71, 0
2, 136345, Control_c, 0, 64, 0
2, 136356, Note_on_c, 0, 76, 107
2, 136359, Note_on_c, 0, 64, 114
2, 136359, Note_on_c, 0, 52, 114
2, 136383, Note_on_c, 0, 76, 0
2, 136386, Note_on_c, 0, 52, 0
2, 136390, Note_on_c, 0, 64, 0
2, 136390, Control_c, 0, 64, 127
2, 136524, Control_c, 0, 64, 0
2, 136542, Note_on_c, 0, 56, 117
2, 136542, Note_on_c, 0, 71, 116
2, 136543, Note_on_c, 0, 68, 108
2, 136543, Note_on_c, 0, 59, 120
2, 136544, Note_on_c, 0, 50, 102
2, 136544, Note_on_c, 0, 45, 99
2, 136547, Control_c, 0, 64, 127
2, 136556, Note_on_c, 0, 45, 0
2, 136556, Note_on_c, 0, 50, 0
2, 136570, Note_on_c, 0, 56, 0
2, 136573, Note_on_c, 0, 59, 0
2, 136590, Note_on_c, 0, 68, 0
2, 136592, Note_on_c, 0, 71, 0
2, 136727, Control_c, 0, 64, 0
2, 136758, Note_on_c, 0, 52, 124
2, 136759, Note_on_c, 0, 76, 119
2, 136760, Note_on_c, 0, 64, 120
2, 136760, Control_c, 0, 64, 127
2, 136784, Note_on_c, 0, 52, 0
2, 136785, Note_on_c, 0, 76, 0
2, 136789, Note_on_c, 0, 64, 0
2, 136981, Note_on_c, 0, 59, 122
2, 136981, Note_on_c, 0, 71, 116
2, 136982, Control_c, 0, 64, 0
2, 136982, Note_on_c, 0, 56, 118
2, 136983, Note_on_c, 0, 68, 108
2, 136985, Note_on_c, 0, 45, 93
2, 136985, Note_on_c, 0, 50, 102
2, 136997, Note_on_c, 0, 50, 0
2, 136997, Note_on_c, 0, 45, 0
2, 137005, Control_c, 0, 64, 127
2, 137010, Note_on_c, 0, 56, 0
2, 137010, Note_on_c, 0, 59, 0
2, 137021, Note_on_c, 0, 68, 0
2, 137024, Note_on_c, 0, 71, 0
2, 137207, Control_c, 0, 64, 0
2, 137242, Note_on_c, 0, 88, 117
2, 137242, Note_on_c, 0, 64, 127
2, 137245, Note_on_c, 0, 76, 127
2, 137260, Control_c, 0, 64, 127
2, 137263, Note_on_c, 0, 64, 0
2, 137280, Note_on_c, 0, 76, 0
2, 137280, Note_on_c, 0, 88, 0
2, 137609, Note_on_c, 0, 40, 109
2, 137612, Note_on_c, 0, 33, 92
2, 137613, Note_on_c, 0, 57, 92
2, 137613, Note_on_c, 0, 52, 92
2, 137614, Note_on_c, 0, 45, 76
2, 137614, Note_on_c, 0, 60, 82
2, 137620, Note_on_c, 0, 40, 0
2, 137625, Note_on_c, 0, 33, 0
2, 137626, Note_on_c, 0, 52, 0
2, 137626, Note_on_c, 0, 57, 0
2, 137629, Note_on_c, 0, 60, 0
2, 137629, Note_on_c, 0, 45, 0
2, 137663, Note_on_c, 0, 60, 92
2, 137664, Note_on_c, 0, 40, 109
2, 137664, Note_on_c, 0, 45, 109
2, 137665, Note_on_c, 0, 33, 113
2, 137665, Note_on_c, 0, 52, 113
2, 137665, Note_on_c, 0, 57, 113
2, 137679, Note_on_c, 0, 57, 0
2, 137679, Note_on_c, 0, 40, 0
2, 137683, Note_on_c, 0, 33, 0
2, 137685, Note_on_c, 0, 52, 0
2, 137687, Note_on_c, 0, 45, 0
2, 137690, Note_on_c, 0, 60, 0
2, 137716, Note_on_c, 0, 33, 115
2, 137717, Note_on_c, 0, 45, 115
2, 137718, Note_on_c, 0, 52, 115
2, 137719, Note_on_c, 0, 60, 115
2, 137720, Note_on_c, 0, 57, 115
2, 137721, Note_on_c, 0, 40, 115
2, 137732, Note_on_c, 0, 40, 0
2, 137732, Note_on_c, 0, 33, 0
2, 137733, Note_on_c, 0, 45, 0
2, 137735, Note_on_c, 0, 57, 0
2, 137746, Note_on_c, 0, 52, 0
2, 137759, Note_on_c, 0, 60, 0
2, 137904, Note_on_c, 0, 57, 108
2, 137905, Note_on_c, 0, 45, 95
2, 137905, Note_on_c, 0, 52, 105
2, 137905, Note_on_c, 0, 60, 92
2, 137905, Note_on_c, 0, 40, 101
2, 137906, Note_on_c, 0, 33, 99
2, 137916, Note_on_c, 0, 40, 0
2, 137916, Note_on_c, 0, 57, 0
2, 137919, Note_on_c, 0, 52, 0
2, 137921, Note_on_c, 0, 33, 0
2, 137921, Note_on_c, 0, 45, 0
2, 137941, Note_on_c, 0, 60, 0
2, 138070, Control_c, 0, 64, 0
2, 138080, Note_on_c, 0, 40, 111
2, 138081, Note_on_c, 0, 60, 110
2, 138081, Note_on_c, 0, 57, 122
2, 138082, Note_on_c, 0, 33, 103
2, 138082, Note_on_c, 0, 52, 110
2, 138092, Note_on_c, 0, 40, 0
2, 138093, Note_on_c, 0, 52, 0
2, 138094, Note_on_c, 0, 33, 0
2, 138103, Control_c, 0, 64, 127
2, 138114, Note_on_c, 0, 57, 0
2, 138116, Note_on_c, 0, 60, 0
2, 138326, Note_on_c, 0, 81, 111
2, 138326, Note_on_c, 0, 57, 117
2, 138329, Note_on_c, 0, 69, 101
2, 138336, Note_on_c, 0, 57, 0
2, 138341, Note_on_c, 0, 69, 0
2, 138341, Control_c, 0, 64, 0
2, 138360, Note_on_c, 0, 81, 0
2, 138409, Note_on_c, 0, 83, 107
2, 138410, Note_on_c, 0, 71, 110
2, 138413, Note_on_c, 0, 59, 117
2, 138424, Note_on_c, 0, 59, 0
2, 138439, Note_on_c, 0, 71, 0
2, 138439, Note_on_c, 0, 83, 0
2, 138482, Control_c, 0, 64, 127
2, 138492, Note_on_c, 0, 72, 117
2, 138493, Note_on_c, 0, 60, 122
2, 138493, Note_on_c, 0, 84, 106
2, 138518, Note_on_c, 0, 72, 0
2, 138519, Note_on_c, 0, 84, 0
2, 138521, Note_on_c, 0, 60, 0
2, 138766, Note_on_c, 0, 63, 102
2, 138772, Note_on_c, 0, 53, 81
2, 138774, Note_on_c, 0, 41, 98
2, 138778, Note_on_c, 0, 60, 72
2, 138783, Note_on_c, 0, 33, 45
2, 138783, Note_on_c, 0, 45, 49
2, 138787, Note_on_c, 0, 41, 0
2, 138790, Note_on_c, 0, 53, 0
2, 138793, Note_on_c, 0, 60, 0
2, 138797, Note_on_c, 0, 63, 0
2, 138798, Note_on_c, 0, 45, 0
2, 138801, Note_on_c, 0, 33, 0
2, 138825, Note_on_c, 0, 53, 93
2, 138826, Note_on_c, 0, 45, 95
2, 138827, Note_on_c, 0, 63, 113
2, 138828, Note_on_c, 0, 60, 81
2, 138829, Note_on_c, 0, 41, 98
2, 138830, Note_on_c, 0, 33, 88
2, 138844, Note_on_c, 0, 41, 0
2, 138844, Note_on_c, 0, 63, 0
2, 138844, Note_on_c, 0, 53, 0
2, 138845, Note_on_c, 0, 60, 0
2, 138846, Note_on_c, 0, 33, 0
2, 138849, Note_on_c, 0, 45, 0
2, 138872, Note_on_c, 0, 33, 32
2, 138878, Note_on_c, 0, 45, 99
2, 138878, Note_on_c, 0, 63, 118
2, 138880, Note_on_c, 0, 60, 99
2, 138880, Note_on_c, 0, 41, 95
2, 138881, Note_on_c, 0, 53, 100
2, 138891, Note_on_c, 0, 45, 0
2, 138894, Note_on_c, 0, 41, 0
2, 138901, Note_on_c, 0, 53, 0
2, 138910, Note_on_c, 0, 33, 0
2, 138912, Note_on_c, 0, 60, 0
2, 138920, Note_on_c, 0, 63, 0
2, 139058, Note_on_c, 0, 63, 112
2, 139061, Note_on_c, 0, 53, 93
2, 139063, Note_on_c, 0, 41, 106
2, 139064, Note_on_c, 0, 33, 101
2, 139064, Note_on_c, 0, 60, 89
2, 139069, Note_on_c, 0, 45, 72
2, 139074, Note_on_c, 0, 41, 0
2, 139076, Note_on_c, 0, 33, 0
2, 139078, Note_on_c, 0, 53, 0
2, 139083, Note_on_c, 0, 60, 0
2, 139084, Note_on_c, 0, 45, 0
2, 139092, Note_on_c, 0, 63, 0
2, 139234, Note_on_c, 0, 41, 113
2, 139235, Note_on_c, 0, 63, 116
2, 139236, Note_on_c, 0, 33, 91
2, 139237, Note_on_c, 0, 53, 105
2, 139238, Note_on_c, 0, 45, 95
2, 139238, Note_on_c, 0, 60, 99
2, 139245, Note_on_c, 0, 41, 0
2, 139248, Note_on_c, 0, 33, 0
2, 139250, Note_on_c, 0, 53, 0
2, 139250, Note_on_c, 0, 45, 0
2, 139268, Note_on_c, 0, 60, 0
2, 139280, Note_on_c, 0, 63, 0
2, 139443, Control_c, 0, 64, 0
2, 139448, Note_on_c, 0, 81, 113
2, 139450, Note_on_c, 0, 69, 111
2, 139452, Note_on_c, 0, 57, 113
2, 139468, Note_on_c, 0, 69, 0
2, 139478, Note_on_c, 0, 57, 0
2, 139479, Note_on_c, 0, 81, 0
2, 139543, Note_on_c, 0, 54, 108
2, 139548, Note_on_c, 0, 78, 116
2, 139548, Note_on_c, 0, 66, 118
2, 139571, Note_on_c, 0, 54, 0
2, 139575, Note_on_c, 0, 66, 0
2, 139586, Note_on_c, 0, 78, 0
2, 139643, Note_on_c, 0, 53, 122
2, 139644, Control_c, 0, 64, 127
2, 139644, Note_on_c, 0, 77, 111
2, 139645, Note_on_c, 0, 65, 117
2, 139652, Note_on_c, 0, 53, 0
2, 139671, Note_on_c, 0, 65, 0
2, 139671, Note_on_c, 0, 77, 0
2, 139918, Note_on_c, 0, 61, 96
2, 139921, Note_on_c, 0, 53, 107
2, 139923, Note_on_c, 0, 41, 92
2, 139924, Note_on_c, 0, 58, 78
2, 139927, Note_on_c, 0, 46, 67
2, 139932, Note_on_c, 0, 61, 0
2, 139932, Note_on_c, 0, 34, 52
2, 139936, Note_on_c, 0, 53, 0
2, 139936, Note_on_c, 0, 41, 0
2, 139937, Note_on_c, 0, 58, 0
2, 139941, Note_on_c, 0, 46, 0
2, 139947, Note_on_c, 0, 34, 0
2, 139974, Note_on_c, 0, 46, 111
2, 139975, Note_on_c, 0, 34, 80
2, 139978, Note_on_c, 0, 41, 89
2, 139980, Note_on_c, 0, 58, 89
2, 139980, Note_on_c, 0, 61, 96
2, 139985, Note_on_c, 0, 53, 91
2, 139992, Note_on_c, 0, 41, 0
2, 139997, Note_on_c, 0, 61, 0
2, 139997, Note_on_c, 0, 53, 0
2, 140000, Note_on_c, 0, 34, 0
2, 140000, Note_on_c, 0, 46, 0
2, 140003, Note_on_c, 0, 58, 0
2, 140026, Note_on_c, 0, 46, 113
2, 140028, Note_on_c, 0, 34, 113
2, 140028, Note_on_c, 0, 61, 113
2, 140029, Note_on_c, 0, 58, 113
2, 140031, Note_on_c, 0, 53, 113
2, 140034, Note_on_c, 0, 41, 113
2, 140046, Note_on_c, 0, 41, 0
2, 140046, Note_on_c, 0, 53, 0
2, 140053, Note_on_c, 0, 46, 0
2, 140055, Note_on_c, 0, 58, 0
2, 140057, Note_on_c, 0, 34, 0
2, 140066, Note_on_c, 0, 61, 0
2, 140212, Note_on_c, 0, 61, 104
2, 140216, Note_on_c, 0, 46, 95
2, 140216, Note_on_c, 0, 58, 102
2, 140217, Note_on_c, 0, 53, 102
2, 140217, Note_on_c, 0, 41, 95
2, 140222, Note_on_c, 0, 34, 71
2, 140229, Note_on_c, 0, 41, 0
2, 140231, Note_on_c, 0, 53, 0
2, 140233, Note_on_c, 0, 46, 0
2, 140236, Note_on_c, 0, 58, 0
2, 140238, Note_on_c, 0, 34, 0
2, 140248, Note_on_c, 0, 61, 0
2, 140389, Note_on_c, 0, 46, 111
2, 140390, Note_on_c, 0, 34, 90
2, 140392, Note_on_c, 0, 41, 95
2, 140392, Note_on_c, 0, 61, 118
2, 140395, Note_on_c, 0, 58, 98
2, 140395, Note_on_c, 0, 53, 101
2, 140401, Note_on_c, 0, 46, 0
2, 140402, Note_on_c, 0, 34, 0
2, 140404, Note_on_c, 0, 41, 0
2, 140407, Note_on_c, 0, 53, 0
2, 140412, Note_on_c, 0, 58, 0
2, 140434, Note_on_c, 0, 61, 0
2, 140654, Note_on_c, 0, 76, 81
2, 140656, Note_on_c, 0, 52, 93
2, 140657, Note_on_c, 0, 64, 87
2, 140665, Control_c, 0, 64, 0
2, 140666, Note_on_c, 0, 76, 0
2, 140669, Note_on_c, 0, 64, 0
2, 140669, Note_on_c, 0, 52, 0
2, 140743, Note_on_c, 0, 65, 93
2, 140743, Note_on_c, 0, 53, 102
2, 140744, Note_on_c, 0, 77, 91
2, 140756, Note_on_c, 0, 53, 0
2, 140760, Note_on_c, 0, 65, 0
2, 140773, Note_on_c, 0, 77, 0
2, 140806, Control_c, 0, 64, 127
2, 140825, Note_on_c, 0, 54, 102
2, 140829, Note_on_c, 0, 66, 116
2, 140829, Note_on_c, 0, 78, 109
2, 140837, Note_on_c, 0, 54, 0
2, 140843, Note_on_c, 0, 78, 0
2, 140845, Note_on_c, 0, 66, 0
2, 141028, Note_on_c, 0, 64, 107
2, 141029, Note_on_c, 0, 55, 107
2, 141031, Note_on_c, 0, 61, 107
2, 141032, Note_on_c, 0, 34, 107
2, 141032, Note_on_c, 0, 46, 107
2, 141049, Note_on_c, 0, 55, 0
2, 141050, Note_on_c, 0, 34, 0
2, 141051, Note_on_c, 0, 46, 0
2, 141062, Note_on_c, 0, 61, 0
2, 141065, Note_on_c, 0, 64, 0
2, 141186, Control_c, 0, 64, 0
2, 141208, Note_on_c, 0, 78, 104
2, 141210, Note_on_c, 0, 66, 118
2, 141212, Control_c, 0, 64, 127
2, 141213, Note_on_c, 0, 54, 115
2, 141230, Note_on_c, 0, 54, 0
2, 141232, Note_on_c, 0, 78, 0
2, 141241, Note_on_c, 0, 66, 0
2, 141348, Control_c, 0, 64, 0
2, 141368, Note_on_c, 0, 64, 105
2, 141368, Note_on_c, 0, 55, 114
2, 141370, Note_on_c, 0, 61, 103
2, 141373, Note_on_c, 0, 46, 124
2, 141373, Note_on_c, 0, 34, 104
2, 141379, Control_c, 0, 64, 127
2, 141383, Note_on_c, 0, 34, 0
2, 141384, Note_on_c, 0, 55, 0
2, 141388, Note_on_c, 0, 46, 0
2, 141401, Note_on_c, 0, 64, 0
2, 141403, Note_on_c, 0, 61, 0
2, 141506, Control_c, 0, 64, 0
2, 141526, Control_c, 0, 64, 127
2, 141529, Note_on_c, 0, 54, 121
2, 141531, Note_on_c, 0, 78, 94
2, 141531, Note_on_c, 0, 66, 123
2, 141548, Note_on_c, 0, 54, 0
2, 141561, Note_on_c, 0, 66, 0
2, 141561, Note_on_c, 0, 78, 0
2, 141671, Control_c, 0, 64, 0
2, 141684, Control_c, 0, 64, 127
2, 141687, Note_on_c, 0, 55, 111
2, 141688, Note_on_c, 0, 64, 100
2, 141689, Note_on_c, 0, 46, 121
2, 141689, Note_on_c, 0, 34, 92
2, 141689, Note_on_c, 0, 61, 98
2, 141700, Note_on_c, 0, 55, 0
2, 141701, Note_on_c, 0, 46, 0
2, 141701, Note_on_c, 0, 66, 40
2, 141702, Note_on_c, 0, 34, 0
2, 141714, Note_on_c, 0, 66, 0
2, 141716, Note_on_c, 0, 61, 0
2, 141722, Note_on_c, 0, 64, 0
2, 141817, Control_c, 0, 64, 0
2, 141854, Note_on_c, 0, 78, 108
2, 141855, Note_on_c, 0, 54, 120
2, 141855, Note_on_c, 0, 66, 120
2, 141856, Control_c, 0, 64, 127
2, 141878, Note_on_c, 0, 54, 0
2, 141880, Note_on_c, 0, 78, 0
2, 141885, Note_on_c, 0, 66, 0
2, 142108, Note_on_c, 0, 54, 103
2, 142111, Note_on_c, 0, 62, 82
2, 142112, Note_on_c, 0, 42, 102
2, 142113, Note_on_c, 0, 59, 78
2, 142116, Note_on_c, 0, 47, 81
2, 142123, Note_on_c, 0, 35, 53
2, 142124, Note_on_c, 0, 42, 0
2, 142124, Note_on_c, 0, 54, 0
2, 142125, Note_on_c, 0, 62, 0
2, 142125, Control_c, 0, 64, 0
2, 142128, Note_on_c, 0, 59, 0
2, 142131, Note_on_c, 0, 47, 0
2, 142140, Note_on_c, 0, 35, 0
2, 142164, Note_on_c, 0, 59, 105
2, 142164, Note_on_c, 0, 54, 105
2, 142166, Note_on_c, 0, 62, 105
2, 142172, Note_on_c, 0, 42, 105
2, 142174, Note_on_c, 0, 47, 105
2, 142175, Note_on_c, 0, 35, 105
2, 142181, Note_on_c, 0, 62, 0
2, 142182, Note_on_c, 0, 59, 0
2, 142182, Control_c, 0, 64, 127
2, 142188, Note_on_c, 0, 54, 0
2, 142188, Note_on_c, 0, 35, 0
2, 142189, Note_on_c, 0, 47, 0
2, 142191, Note_on_c, 0, 42, 0
2, 142214, Note_on_c, 0, 54, 110
2, 142217, Note_on_c, 0, 35, 94
2, 142217, Note_on_c, 0, 42, 104
2, 142217, Note_on_c, 0, 47, 95
2, 142218, Note_on_c, 0, 59, 105
2, 142224, Note_on_c, 0, 62, 109
2, 142230, Note_on_c, 0, 59, 0
2, 142232, Note_on_c, 0, 35, 0
2, 142234, Note_on_c, 0, 47, 0
2, 142237, Note_on_c, 0, 54, 0
2, 142241, Note_on_c, 0, 42, 0
2, 142248, Note_on_c, 0, 62, 0
2, 142423, Control_c, 0, 64, 0
2, 142479, Note_on_c, 0, 78, 104
2, 142481, Control_c, 0, 64, 127
2, 142484, Note_on_c, 0, 66, 91
2, 142490, Note_on_c, 0, 54, 63
2, 142506, Note_on_c, 0, 54, 0
2, 142509, Note_on_c, 0, 66, 0
2, 142534, Note_on_c, 0, 78, 0
2, 142610, Note_on_c, 0, 79, 101
2, 142615, Note_on_c, 0, 67, 102
2, 142620, Note_on_c, 0, 55, 79
2, 142631, Note_on_c, 0, 67, 0
2, 142635, Note_on_c, 0, 55, 0
2, 142646, Note_on_c, 0, 79, 0
2, 142709, Note_on_c, 0, 79, 106
2, 142710, Note_on_c, 0, 67, 107
2, 142718, Note_on_c, 0, 55, 100
2, 142738, Note_on_c, 0, 79, 0
2, 142739, Note_on_c, 0, 55, 0
2, 142739, Note_on_c, 0, 67, 0
2, 142792, Note_on_c, 0, 80, 113
2, 142796, Note_on_c, 0, 68, 109
2, 142798, Note_on_c, 0, 56, 111
2, 142813, Note_on_c, 0, 68, 0
2, 142814, Note_on_c, 0, 56, 0
2, 142826, Note_on_c, 0, 80, 0
2, 142842, Control_c, 0, 64, 0
2, 142859, Note_on_c, 0, 56, 102
2, 142860, Note_on_c, 0, 80, 104
2, 142862, Note_on_c, 0, 68, 101
2, 142876, Control_c, 0, 64, 127
2, 142885, Note_on_c, 0, 56, 0
2, 142889, Note_on_c, 0, 68, 0
2, 142895, Note_on_c, 0, 80, 0
2, 142916, Note_on_c, 0, 57, 106
2, 142922, Note_on_c, 0, 69, 108
2, 142924, Note_on_c, 0, 81, 107
2, 142926, Note_on_c, 0, 57, 0
2, 142932, Note_on_c, 0, 69, 0
2, 142937, Note_on_c, 0, 81, 0
2, 142942, Control_c, 0, 64, 0
2, 142953, Control_c, 0, 64, 127
2, 142965, Note_on_c, 0, 57, 116
2, 142967, Note_on_c, 0, 81, 91
2, 142970, Note_on_c, 0, 69, 100
2, 142990, Note_on_c, 0, 57, 0
2, 142996, Note_on_c, 0, 81, 0
2, 143009, Note_on_c, 0, 69, 0
2, 143096, Control_c, 0, 64, 0
2, 143133, Note_on_c, 0, 67, 111
2, 143134, Note_on_c, 0, 37, 111
2, 143134, Note_on_c, 0, 58, 111
2, 143134, Note_on_c, 0, 64, 111
2, 143135, Control_c, 0, 64, 127
2, 143146, Note_on_c, 0, 64, 0
2, 143146, Note_on_c, 0, 37, 0
2, 143153, Note_on_c, 0, 58, 0
2, 143155, Note_on_c, 0, 67, 0
2, 143266, Control_c, 0, 64, 0
2, 143295, Control_c, 0, 64, 127
2, 143301, Note_on_c, 0, 57, 127
2, 143302, Note_on_c, 0, 81, 111
2, 143303, Note_on_c, 0, 69, 120
2, 143329, Note_on_c, 0, 69, 0
2, 143330, Note_on_c, 0, 57, 0
2, 143331, Note_on_c, 0, 81, 0
2, 143428, Control_c, 0, 64, 0
2, 143454, Control_c, 0, 64, 127
2, 143457, Note_on_c, 0, 64, 115
2, 143457, Note_on_c, 0, 58, 115
2, 143458, Note_on_c, 0, 37, 115
2, 143458, Note_on_c, 0, 49, 115
2, 143464, Note_on_c, 0, 67, 115
2, 143469, Note_on_c, 0, 37, 0
2, 143469, Note_on_c, 0, 64, 0
2, 143474, Note_on_c, 0, 67, 0
2, 143476, Note_on_c, 0, 49, 0
2, 143482, Note_on_c, 0, 58, 0
2, 143587, Control_c, 0, 64, 0
2, 143610, Control_c, 0, 64, 127
2, 143618, Note_on_c, 0, 57, 124
2, 143619, Note_on_c, 0, 81, 106
2, 143621, Note_on_c, 0, 69, 117
2, 143645, Note_on_c, 0, 57, 0
2, 143651, Note_on_c, 0, 81, 0
2, 143654, Note_on_c, 0, 69, 0
2, 143750, Control_c, 0, 64, 0
2, 143782, Control_c, 0, 64, 127
2, 143783, Note_on_c, 0, 49, 124
2, 143784, Note_on_c, 0, 58, 121
2, 143785, Note_on_c, 0, 67, 121
2, 143785, Note_on_c, 0, 37, 121
2, 143786, Note_on_c, 0, 64, 121
2, 143795, Note_on_c, 0, 37, 0
2, 143798, Note_on_c, 0, 64, 0
2, 143804, Note_on_c, 0, 49, 0
2, 143808, Note_on_c, 0, 58, 0
2, 143813, Note_on_c, 0, 67, 0
2, 143931, Control_c, 0, 64, 0
2, 143965, Note_on_c, 0, 57, 127
2, 143966, Note_on_c, 0, 81, 110
2, 143968, Note_on_c, 0, 69, 117
2, 143976, Control_c, 0, 64, 127
2, 143992, Note_on_c, 0, 57, 0
2, 143994, Note_on_c, 0, 81, 0
2, 144003, Note_on_c, 0, 69, 0
2, 144230, Note_on_c, 0, 65, 103
2, 144231, Note_on_c, 0, 45, 103
2, 144233, Note_on_c, 0, 50, 103
2, 144233, Note_on_c, 0, 57, 103
2, 144239, Note_on_c, 0, 38, 103
2, 144242, Note_on_c, 0, 62, 52
2, 144243, Note_on_c, 0, 45, 0
2, 144244, Note_on_c, 0, 65, 0
2, 144247, Note_on_c, 0, 57, 0
2, 144248, Note_on_c, 0, 50, 0
2, 144252, Note_on_c, 0, 38, 0
2, 144257, Control_c, 0, 64, 0
2, 144260, Note_on_c, 0, 62, 0
2, 144289, Note_on_c, 0, 65, 97
2, 144290, Note_on_c, 0, 62, 98
2, 144290, Note_on_c, 0, 57, 106
2, 144291, Note_on_c, 0, 45, 103
2, 144292, Note_on_c, 0, 38, 85
2, 144292, Note_on_c, 0, 50, 94
2, 144301, Note_on_c, 0, 57, 0
2, 144305, Note_on_c, 0, 45, 0
2, 144305, Note_on_c, 0, 62, 0
2, 144306, Note_on_c, 0, 65, 0
2, 144306, Note_on_c, 0, 50, 0
2, 144308, Note_on_c, 0, 38, 0
2, 144312, Control_c, 0, 64, 127
2, 144337, Note_on_c, 0, 50, 108
2, 144339, Note_on_c, 0, 38, 106
2, 144342, Note_on_c, 0, 57, 100
2, 144342, Note_on_c, 0, 62, 94
2, 144343, Note_on_c, 0, 65, 93
2, 144343, Note_on_c, 0, 45, 101
2, 144353, Note_on_c, 0, 45, 0
2, 144354, Note_on_c, 0, 57, 0
2, 144356, Note_on_c, 0, 62, 0
2, 144356, Note_on_c, 0, 50, 0
2, 144357, Note_on_c, 0, 38, 0
2, 144382, Note_on_c, 0, 65, 0
2, 144547, Control_c, 0, 64, 0
2, 144600, Note_on_c, 0, 81, 103
2, 144605, Note_on_c, 0, 69, 103
2, 144609, Note_on_c, 0, 57, 103
2, 144624, Control_c, 0, 64, 127
2, 144625, Note_on_c, 0, 57, 0
2, 144633, Note_on_c, 0, 69, 0
2, 144654, Note_on_c, 0, 81, 0
2, 144741, Note_on_c, 0, 82, 99
2, 144741, Note_on_c, 0, 58, 96
2, 144744, Note_on_c, 0, 70, 103
2, 144763, Note_on_c, 0, 58, 0
2, 144771, Note_on_c, 0, 70, 0
2, 144778, Note_on_c, 0, 82, 0
2, 144837, Note_on_c, 0, 82, 108
2, 144838, Note_on_c, 0, 58, 105
2, 144839, Note_on_c, 0, 70, 105
2, 144867, Note_on_c, 0, 58, 0
2, 144868, Note_on_c, 0, 70, 0
2, 144872, Note_on_c, 0, 82, 0
2, 144909, Note_on_c, 0, 83, 107
2, 144912, Note_on_c, 0, 71, 107
2, 144913, Note_on_c, 0, 59, 119
2, 144925, Note_on_c, 0, 71, 0
2, 144930, Note_on_c, 0, 59, 0
2, 144944, Note_on_c, 0, 83, 0
2, 144973, Note_on_c, 0, 83, 103
2, 144975, Note_on_c, 0, 71, 100
2, 144979, Note_on_c, 0, 59, 113
2, 145000, Note_on_c, 0, 59, 0
2, 145000, Note_on_c, 0, 71, 0
2, 145004, Note_on_c, 0, 83, 0
2, 145016, Control_c, 0, 64, 0
2, 145034, Note_on_c, 0, 60, 103
2, 145038, Note_on_c, 0, 72, 92
2, 145039, Note_on_c, 0, 84, 97
2, 145050, Note_on_c, 0, 72, 0
2, 145051, Note_on_c, 0, 84, 0
2, 145055, Note_on_c, 0, 60, 0
2, 145067, Control_c, 0, 64, 127
2, 145083, Note_on_c, 0, 60, 126
2, 145085, Note_on_c, 0, 84, 90
2, 145089, Note_on_c, 0, 72, 121
2, 145114, Note_on_c, 0, 84, 0
2, 145117, Note_on_c, 0, 72, 0
2, 145120, Note_on_c, 0, 60, 0
2, 145232, Control_c, 0, 64, 0
2, 145254, Note_on_c, 0, 70, 109
2, 145256, Note_on_c, 0, 61, 120
2, 145259, Note_on_c, 0, 67, 108
2, 145263, Note_on_c, 0, 52, 122
2, 145266, Control_c, 0, 64, 127
2, 145267, Note_on_c, 0, 40, 106
2, 145269, Note_on_c, 0, 67, 0
2, 145277, Note_on_c, 0, 40, 0
2, 145284, Note_on_c, 0, 52, 0
2, 145284, Note_on_c, 0, 61, 0
2, 145297, Note_on_c, 0, 70, 0
2, 145381, Control_c, 0, 64, 0
2, 145410, Control_c, 0, 64, 127
2, 145423, Note_on_c, 0, 60, 122
2, 145424, Note_on_c, 0, 72, 119
2, 145425, Note_on_c, 0, 84, 111
2, 145452, Note_on_c, 0, 60, 0
2, 145453, Note_on_c, 0, 84, 0
2, 145454, Note_on_c, 0, 72, 0
2, 145563, Control_c, 0, 64, 0
2, 145582, Note_on_c, 0, 61, 116
2, 145582, Note_on_c, 0, 70, 109
2, 145584, Note_on_c, 0, 67, 105
2, 145586, Note_on_c, 0, 40, 85
2, 145589, Note_on_c, 0, 52, 122
2, 145594, Note_on_c, 0, 67, 0
2, 145594, Control_c, 0, 64, 127
2, 145603, Note_on_c, 0, 40, 0
2, 145609, Note_on_c, 0, 61, 0
2, 145620, Note_on_c, 0, 52, 0
2, 145621, Note_on_c, 0, 70, 0
2, 145711, Control_c, 0, 64, 0
2, 145740, Control_c, 0, 64, 127
2, 145742, Note_on_c, 0, 60, 117
2, 145749, Note_on_c, 0, 72, 124
2, 145749, Note_on_c, 0, 84, 108
2, 145764, Note_on_c, 0, 60, 0
2, 145776, Note_on_c, 0, 84, 0
2, 145779, Note_on_c, 0, 72, 0
2, 145883, Control_c, 0, 64, 0
2, 145905, Note_on_c, 0, 61, 115
2, 145905, Note_on_c, 0, 70, 104
2, 145906, Note_on_c, 0, 67, 102
2, 145911, Note_on_c, 0, 40, 84
2, 145911, Note_on_c, 0, 52, 120
2, 145918, Note_on_c, 0, 67, 0
2, 145918, Control_c, 0, 64, 127
2, 145923, Note_on_c, 0, 40, 0
2, 145933, Note_on_c, 0, 61, 0
2, 145940, Note_on_c, 0, 52, 0
2, 145947, Note_on_c, 0, 70, 0
2, 146042, Control_c, 0, 64, 0
2, 146081, Note_on_c, 0, 60, 122
2, 146082, Note_on_c, 0, 84, 108
2, 146083, Note_on_c, 0, 72, 120
2, 146084, Control_c, 0, 64, 127
2, 146104, Note_on_c, 0, 60, 0
2, 146108, Note_on_c, 0, 84, 0
2, 146112, Note_on_c, 0, 72, 0
2, 146335, Note_on_c, 0, 68, 101
2, 146337, Note_on_c, 0, 48, 110
2, 146341, Note_on_c, 0, 53, 88
2, 146341, Control_c, 0, 64, 0
2, 146341, Note_on_c, 0, 60, 86
2, 146342, Note_on_c, 0, 41, 94
2, 146342, Note_on_c, 0, 65, 78
2, 146345, Note_on_c, 0, 68, 0
2, 146346, Note_on_c, 0, 48, 0
2, 146356, Note_on_c, 0, 41, 0
2, 146356, Note_on_c, 0, 60, 0
2, 146356, Note_on_c, 0, 53, 0
2, 146357, Note_on_c, 0, 65, 0
2, 146390, Note_on_c, 0, 68, 105
2, 146391, Note_on_c, 0, 60, 102
2, 146392, Note_on_c, 0, 65, 98
2, 146395, Note_on_c, 0, 48, 107
2, 146396, Note_on_c, 0, 53, 97
2, 146397, Note_on_c, 0, 41, 92
2, 146400, Control_c, 0, 64, 127
2, 146409, Note_on_c, 0, 48, 0
2, 146410, Note_on_c, 0, 41, 0
2, 146411, Note_on_c, 0, 65, 0
2, 146411, Note_on_c, 0, 53, 0
2, 146415, Note_on_c, 0, 68, 0
2, 146416, Note_on_c, 0, 60, 0
2, 146442, Note_on_c, 0, 68, 104
2, 146448, Note_on_c, 0, 53, 103
2, 146448, Note_on_c, 0, 65, 100
2, 146448, Note_on_c, 0, 60, 95
2, 146452, Note_on_c, 0, 48, 106
2, 146453, Note_on_c, 0, 41, 99
2, 146462, Note_on_c, 0, 48, 0
2, 146462, Note_on_c, 0, 60, 0
2, 146465, Note_on_c, 0, 65, 0
2, 146465, Note_on_c, 0, 53, 0
2, 146466, Note_on_c, 0, 41, 0
2, 146481, Note_on_c, 0, 68, 0
2, 146588, Control_c, 0, 64, 0
2, 146614, Note_on_c, 0, 68, 116
2, 146618, Note_on_c, 0, 48, 102
2, 146620, Note_on_c, 0, 60, 103
2, 146621, Note_on_c, 0, 41, 94
2, 146621, Note_on_c, 0, 65, 100
2, 146621, Note_on_c, 0, 53, 101
2, 146628, Note_on_c, 0, 48, 0
2, 146629, Control_c, 0, 64, 127
2, 146632, Note_on_c, 0, 60, 0
2, 146632, Note_on_c, 0, 53, 0
2, 146636, Note_on_c, 0, 41, 0
2, 146637, Note_on_c, 0, 65, 0
2, 146649, Note_on_c, 0, 68, 0
2, 146823, Control_c, 0, 64, 0
2, 146857, Note_on_c, 0, 62, 117
2, 146858, Note_on_c, 0, 86, 116
2, 146861, Note_on_c, 0, 74, 111
2, 146869, Note_on_c, 0, 62, 0
2, 146882, Note_on_c, 0, 74, 0
2, 146887, Note_on_c, 0, 86, 0
2, 146952, Note_on_c, 0, 63, 87
2, 146962, Note_on_c, 0, 75, 113
2, 146962, Note_on_c, 0, 87, 105
2, 146965, Note_on_c, 0, 63, 0
2, 146985, Note_on_c, 0, 87, 0
2, 146988, Note_on_c, 0, 75, 0
2, 147043, Note_on_c, 0, 59, 117
2, 147043, Note_on_c, 0, 83, 113
2, 147045, Note_on_c, 0, 71, 113
2, 147056, Note_on_c, 0, 59, 0
2, 147059, Note_on_c, 0, 71, 0
2, 147074, Note_on_c, 0, 83, 0
2, 147101, Control_c, 0, 64, 127
2, 147125, Note_on_c, 0, 60, 120
2, 147129, Note_on_c, 0, 72, 119
2, 147130, Note_on_c, 0, 84, 106
2, 147136, Note_on_c, 0, 60, 0
2, 147142, Note_on_c, 0, 84, 0
2, 147158, Note_on_c, 0, 72, 0
2, 147436, Note_on_c, 0, 67, 108
2, 147439, Note_on_c, 0, 48, 111
2, 147440, Note_on_c, 0, 63, 94
2, 147440, Note_on_c, 0, 60, 97
2, 147444, Note_on_c, 0, 43, 84
2, 147445, Note_on_c, 0, 55, 89
2, 147447, Note_on_c, 0, 67, 0
2, 147449, Note_on_c, 0, 48, 0
2, 147453, Note_on_c, 0, 60, 0
2, 147453, Note_on_c, 0, 63, 0
2, 147457, Note_on_c, 0, 55, 0
2, 147457, Note_on_c, 0, 43, 0
2, 147497, Note_on_c, 0, 43, 80
2, 147498, Note_on_c, 0, 55, 85
2, 147499, Note_on_c, 0, 48, 91
2, 147501, Note_on_c, 0, 67, 106
2, 147502, Note_on_c, 0, 63, 89
2, 147504, Note_on_c, 0, 60, 93
2, 147512, Note_on_c, 0, 48, 0
2, 147512, Note_on_c, 0, 55, 0
2, 147514, Note_on_c, 0, 67, 0
2, 147517, Note_on_c, 0, 60, 0
2, 147519, Note_on_c, 0, 63, 0
2, 147520, Note_on_c, 0, 43, 0
2, 147545, Note_on_c, 0, 43, 60
2, 147548, Note_on_c, 0, 55, 79
2, 147549, Note_on_c, 0, 63, 108
2, 147550, Note_on_c, 0, 60, 99
2, 147552, Note_on_c, 0, 67, 110
2, 147553, Note_on_c, 0, 48, 78
2, 147568, Note_on_c, 0, 48, 0
2, 147577, Note_on_c, 0, 43, 0
2, 147577, Note_on_c, 0, 55, 0
2, 147581, Note_on_c, 0, 60, 0
2, 147584, Note_on_c, 0, 63, 0
2, 147617, Note_on_c, 0, 67, 0
2, 147721, Note_on_c, 0, 67, 114
2, 147722, Note_on_c, 0, 60, 106
2, 147722, Note_on_c, 0, 63, 112
2, 147725, Note_on_c, 0, 43, 100
2, 147725, Note_on_c, 0, 48, 102
2, 147727, Note_on_c, 0, 55, 101
2, 147734, Note_on_c, 0, 60, 0
2, 147736, Note_on_c, 0, 48, 0
2, 147736, Note_on_c, 0, 43, 0
2, 147738, Note_on_c, 0, 55, 0
2, 147746, Note_on_c, 0, 63, 0
2, 147753, Note_on_c, 0, 67, 0
2, 147928, Note_on_c, 0, 62, 113
2, 147929, Note_on_c, 0, 86, 111
2, 147930, Note_on_c, 0, 74, 116
2, 147946, Note_on_c, 0, 62, 0
2, 147958, Note_on_c, 0, 86, 0
2, 147960, Note_on_c, 0, 74, 0
2, 148005, Control_c, 0, 64, 0
2, 148031, Note_on_c, 0, 87, 116
2, 148034, Note_on_c, 0, 75, 115
2, 148035, Note_on_c, 0, 63, 108
2, 148058, Note_on_c, 0, 75, 0
2, 148060, Note_on_c, 0, 87, 0
2, 148063, Note_on_c, 0, 63, 0
2, 148117, Note_on_c, 0, 59, 108
2, 148121, Note_on_c, 0, 83, 111
2, 148123, Note_on_c, 0, 71, 117
2, 148132, Note_on_c, 0, 59, 0
2, 148135, Note_on_c, 0, 71, 0
2, 148150, Note_on_c, 0, 83, 0
2, 148164, Control_c, 0, 64, 127
2, 148203, Note_on_c, 0, 60, 120
2, 148204, Note_on_c, 0, 72, 119
2, 148204, Note_on_c, 0, 84, 111
2, 148213, Note_on_c, 0, 60, 0
2, 148228, Note_on_c, 0, 84, 0
2, 148236, Note_on_c, 0, 72, 0
2, 148380, Control_c, 0, 64, 0
2, 148397, Note_on_c, 0, 65, 110
2, 148398, Note_on_c, 0, 63, 107
2, 148399, Note_on_c, 0, 60, 106
2, 148400, Note_on_c, 0, 56, 124
2, 148400, Note_on_c, 0, 44, 111
2, 148401, Note_on_c, 0, 51, 112
2, 148411, Control_c, 0, 64, 127
2, 148412, Note_on_c, 0, 51, 0
2, 148412, Note_on_c, 0, 60, 0
2, 148415, Note_on_c, 0, 44, 0
2, 148416, Note_on_c, 0, 56, 0
2, 148427, Note_on_c, 0, 63, 0
2, 148429, Note_on_c, 0, 65, 0
2, 148571, Control_c, 0, 64, 0
2, 148600, Note_on_c, 0, 72, 124
2, 148600, Note_on_c, 0, 84, 111
2, 148601, Note_on_c, 0, 60, 120
2, 148607, Control_c, 0, 64, 127
2, 148622, Note_on_c, 0, 60, 0
2, 148626, Note_on_c, 0, 72, 0
2, 148627, Note_on_c, 0, 84, 0
2, 148765, Control_c, 0, 64, 0
2, 148787, Note_on_c, 0, 66, 117
2, 148788, Note_on_c, 0, 63, 107
2, 148788, Note_on_c, 0, 51, 123
2, 148788, Note_on_c, 0, 60, 111
2, 148789, Note_on_c, 0, 57, 117
2, 148789, Note_on_c, 0, 45, 102
2, 148800, Note_on_c, 0, 45, 0
2, 148800, Note_on_c, 0, 57, 0
2, 148800, Control_c, 0, 64, 127
2, 148801, Note_on_c, 0, 60, 0
2, 148813, Note_on_c, 0, 63, 0
2, 148815, Note_on_c, 0, 51, 0
2, 148823, Note_on_c, 0, 66, 0
2, 148947, Control_c, 0, 64, 0
2, 148980, Note_on_c, 0, 63, 127
2, 148981, Note_on_c, 0, 87, 101
2, 148981, Note_on_c, 0, 75, 116
2, 148989, Control_c, 0, 64, 127
2, 149000, Note_on_c, 0, 63, 0
2, 149003, Note_on_c, 0, 87, 0
2, 149011, Note_on_c, 0, 75, 0
2, 149163, Control_c, 0, 64, 0
2, 149169, Note_on_c, 0, 67, 108
2, 149171, Note_on_c, 0, 60, 106
2, 149172, Note_on_c, 0, 63, 108
2, 149175, Note_on_c, 0, 51, 118
2, 149177, Note_on_c, 0, 55, 107
2, 149178, Note_on_c, 0, 43, 119
2, 149186, Note_on_c, 0, 60, 0
2, 149189, Note_on_c, 0, 55, 0
2, 149189, Note_on_c, 0, 43, 0
2, 149196, Note_on_c, 0, 63, 0
2, 149196, Control_c, 0, 64, 127
2, 149197, Note_on_c, 0, 51, 0
2, 149206, Note_on_c, 0, 67, 0
2, 149376, Control_c, 0, 64, 0
2, 149395, Note_on_c, 0, 93, 117
2, 149398, Note_on_c, 0, 81, 110
2, 149401, Note_on_c, 0, 69, 123
2, 149406, Control_c, 0, 64, 127
2, 149414, Note_on_c, 0, 69, 0
2, 149419, Note_on_c, 0, 93, 0
2, 149438, Note_on_c, 0, 81, 0
2, 149627, Control_c, 0, 64, 0
2, 149642, Note_on_c, 0, 42, 125
2, 149642, Note_on_c, 0, 54, 125
2, 149642, Note_on_c, 0, 69, 125
2, 149644, Note_on_c, 0, 51, 125
2, 149644, Note_on_c, 0, 60, 125
2, 149644, Note_on_c, 0, 63, 125
2, 149655, Note_on_c, 0, 51, 0
2, 149657, Note_on_c, 0, 42, 0
2, 149660, Note_on_c, 0, 54, 0
2, 149663, Control_c, 0, 64, 127
2, 149672, Note_on_c, 0, 60, 0
2, 149677, Note_on_c, 0, 63, 0
2, 149677, Note_on_c, 0, 69, 0
2, 149957, Control_c, 0, 64, 0
2, 149967, Note_on_c, 0, 60, 125
2, 149969, Note_on_c, 0, 72, 125
2, 150016, Control_c, 0, 64, 127
2, 150152, Note_on_c, 0, 60, 0
2, 150176, Note_on_c, 0, 72, 0
2, 150679, Note_on_c, 0, 54, 96
2, 150679, Note_on_c, 0, 66, 112
2, 150697, Note_on_c, 0, 54, 0
2, 150706, Note_on_c, 0, 66, 0
2, 150729, Control_c, 0, 64, 0
2, 150748, Note_on_c, 0, 67, 111
2, 150749, Note_on_c, 0, 55, 100
2, 150768, Note_on_c, 0, 55, 0
2, 150776, Note_on_c, 0, 67, 0
2, 150808, Note_on_c, 0, 69, 119
2, 150810, Note_on_c, 0, 57, 119
2, 150846, Note_on_c, 0, 69, 0
2, 150853, Control_c, 0, 64, 127
2, 150862, Note_on_c, 0, 57, 0
2, 151002, Note_on_c, 0, 53, 111
2, 151003, Note_on_c, 0, 65, 102
2, 151018, Note_on_c, 0, 65, 0
2, 151029, Note_on_c, 0, 53, 0
2, 151034, Control_c, 0, 64, 0
2, 151065, Note_on_c, 0, 64, 113
2, 151068, Note_on_c, 0, 52, 106
2, 151081, Note_on_c, 0, 52, 0
2, 151093, Note_on_c, 0, 64, 0
2, 151125, Note_on_c, 0, 63, 126
2, 151128, Note_on_c, 0, 51, 124
2, 151293, Control_c, 0, 64, 127
2, 151307, Note_on_c, 0, 51, 0
2, 151316, Note_on_c, 0, 63, 0
2, 151748, Note_on_c, 0, 57, 114
2, 151750, Note_on_c, 0, 45, 102
2, 151759, Note_on_c, 0, 57, 0
2, 151763, Note_on_c, 0, 45, 0
2, 151779, Control_c, 0, 64, 0
2, 151814, Note_on_c, 0, 59, 100
2, 151817, Note_on_c, 0, 47, 92
2, 151827, Note_on_c, 0, 59, 0
2, 151830, Note_on_c, 0, 47, 0
2, 151870, Note_on_c, 0, 60, 120
2, 151873, Note_on_c, 0, 48, 113
2, 151899, Note_on_c, 0, 60, 0
2, 151905, Note_on_c, 0, 48, 0
2, 151914, Control_c, 0, 64, 127
2, 152078, Note_on_c, 0, 57, 92
2, 152078, Note_on_c, 0, 45, 97
2, 152090, Note_on_c, 0, 45, 0
2, 152091, Note_on_c, 0, 57, 0
2, 152109, Control_c, 0, 64, 0
2, 152139, Note_on_c, 0, 55, 108
2, 152143, Note_on_c, 0, 43, 79
2, 152161, Note_on_c, 0, 43, 0
2, 152167, Note_on_c, 0, 55, 0
2, 152204, Note_on_c, 0, 54, 111
2, 152205, Note_on_c, 0, 42, 111
2, 152215, Note_on_c, 0, 44, 76
2, 152230, Note_on_c, 0, 44, 0
2, 152332, Control_c, 0, 64, 127
2, 152553, Note_on_c, 0, 42, 0
2, 152555, Note_on_c, 0, 54, 0
2, 152798, Note_on_c, 0, 41, 94
2, 152801, Note_on_c, 0, 53, 85
2, 152811, Note_on_c, 0, 41, 0
2, 152816, Note_on_c, 0, 53, 0
2, 152833, Control_c, 0, 64, 0
2, 152864, Note_on_c, 0, 52, 102
2, 152865, Note_on_c, 0, 40, 97
2, 152878, Note_on_c, 0, 52, 0
2, 152880, Note_on_c, 0, 40, 0
2, 152923, Note_on_c, 0, 51, 115
2, 152924, Note_on_c, 0, 39, 111
2, 152932, Control_c, 0, 64, 127
2, 152947, Note_on_c, 0, 51, 0
2, 152950, Note_on_c, 0, 39, 0
2, 153086, Control_c, 0, 64, 0
2, 153142, Note_on_c, 0, 36, 93
2, 153143, Note_on_c, 0, 48, 95
2, 153155, Note_on_c, 0, 48, 0
2, 153156, Note_on_c, 0, 36, 0
2, 153205, Note_on_c, 0, 47, 102
2, 153207, Note_on_c, 0, 35, 90
2, 153219, Note_on_c, 0, 47, 0
2, 153219, Control_c, 0, 64, 127
2, 153221, Note_on_c, 0, 35, 0
2, 153258, Note_on_c, 0, 34, 113
2, 153258, Note_on_c, 0, 46, 118
2, 153279, Note_on_c, 0, 46, 0
2, 153283, Note_on_c, 0, 34, 0
2, 153295, Control_c, 0, 64, 0
2, 153438, Note_on_c, 0, 45, 119
2, 153439, Note_on_c, 0, 33, 99
2, 153442, Control_c, 0, 64, 127
2, 153450, Note_on_c, 0, 45, 0
2, 153453, Note_on_c, 0, 33, 0
2, 153485, Control_c, 0, 64, 0
2, 153600, Control_c, 0, 64, 127
2, 153603, Note_on_c, 0, 44, 107
2, 153605, Note_on_c, 0, 32, 120
2, 153627, Note_on_c, 0, 44, 0
2, 153632, Note_on_c, 0, 32, 0
2, 153640, Control_c, 0, 64, 0
2, 153771, Note_on_c, 0, 31, 110
2, 153773, Note_on_c, 0, 43, 105
2, 153781, Control_c, 0, 64, 127
2, 153798, Note_on_c, 0, 31, 0
2, 153799, Note_on_c, 0, 43, 0
2, 153811, Control_c, 0, 64, 0
2, 153946, Note_on_c, 0, 42, 115
2, 153947, Note_on_c, 0, 30, 101
2, 153975, Note_on_c, 0, 42, 0
2, 153980, Note_on_c, 0, 30, 0
2, 154118, Note_on_c, 0, 41, 99
2, 154119, Note_on_c, 0, 29, 97
2, 154150, Note_on_c, 0, 41, 0
2, 154151, Note_on_c, 0, 29, 0
2, 154309, Note_on_c, 0, 28, 99
2, 154311, Note_on_c, 0, 40, 93
2, 154329, Note_on_c, 0, 40, 0
2, 154341, Note_on_c, 0, 28, 0
2, 154520, Note_on_c, 0, 27, 110
2, 154523, Note_on_c, 0, 39, 95
2, 154538, Control_c, 0, 64, 127
2, 154546, Note_on_c, 0, 39, 0
2, 154546, Note_on_c, 0, 27, 0
2, 154603, Control_c, 0, 64, 0
2, 154808, Control_c, 0, 64, 127
2, 154819, Note_on_c, 0, 27, 113
2, 154821, Note_on_c, 0, 39, 113
2, 154842, Note_on_c, 0, 39, 0
2, 154849, Note_on_c, 0, 27, 0
2, 155394, Note_on_c, 0, 42, 87
2, 155535, Note_on_c, 0, 42, 0
2, 155545, Note_on_c, 0, 45, 79
2, 155637, Note_on_c, 0, 48, 75
2, 155640, Note_on_c, 0, 45, 0
2, 155678, Control_c, 0, 67, 127
2, 155698, Note_on_c, 0, 48, 0
2, 155705, Note_on_c, 0, 51, 104
2, 155726, Note_on_c, 0, 51, 0
2, 155767, Note_on_c, 0, 54, 60
2, 155802, Note_on_c, 0, 54, 0
2, 155814, Note_on_c, 0, 57, 84
2, 155854, Note_on_c, 0, 60, 64
2, 155855, Note_on_c, 0, 57, 0
2, 155877, Note_on_c, 0, 60, 0
2, 155879, Note_on_c, 0, 63, 88
2, 155910, Note_on_c, 0, 63, 0
2, 155927, Note_on_c, 0, 69, 70
2, 155975, Note_on_c, 0, 72, 86
2, 155977, Note_on_c, 0, 69, 0
2, 156003, Note_on_c, 0, 75, 81
2, 156018, Note_on_c, 0, 72, 0
2, 156042, Note_on_c, 0, 78, 90
2, 156058, Note_on_c, 0, 75, 0
2, 156068, Control_c, 0, 67, 0
2, 156075, Note_on_c, 0, 78, 0
2, 156096, Note_on_c, 0, 81, 86
2, 156140, Note_on_c, 0, 84, 88
2, 156145, Note_on_c, 0, 81, 0
2, 156165, Note_on_c, 0, 84, 0
2, 156186, Note_on_c, 0, 86, 73
2, 156202, Note_on_c, 0, 86, 0
2, 156217, Note_on_c, 0, 84, 68
2, 156233, Note_on_c, 0, 84, 0
2, 156241, Note_on_c, 0, 86, 68
2, 156269, Note_on_c, 0, 86, 0
2, 156275, Note_on_c, 0, 84, 68
2, 156291, Note_on_c, 0, 84, 0
2, 156310, Note_on_c, 0, 86, 75
2, 156327, Note_on_c, 0, 86, 0
2, 156345, Note_on_c, 0, 84, 72
2, 156359, Note_on_c, 0, 84, 0
2, 156374, Note_on_c, 0, 86, 66
2, 156392, Note_on_c, 0, 86, 0
2, 156423, Note_on_c, 0, 84, 62
2, 156435, Note_on_c, 0, 84, 0
2, 156438, Note_on_c, 0, 86, 70
2, 156457, Note_on_c, 0, 86, 0
2, 156475, Note_on_c, 0, 84, 68
2, 156495, Note_on_c, 0, 84, 0
2, 156504, Note_on_c, 0, 86, 62
2, 156525, Control_c, 0, 67, 127
2, 156528, Note_on_c, 0, 86, 0
2, 156534, Note_on_c, 0, 84, 77
2, 156552, Note_on_c, 0, 84, 0
2, 156558, Note_on_c, 0, 86, 74
2, 156591, Note_on_c, 0, 86, 0
2, 156635, Note_on_c, 0, 83, 68
2, 156686, Note_on_c, 0, 83, 0
2, 156705, Note_on_c, 0, 84, 74
2, 156776, Note_on_c, 0, 84, 0
2, 156776, Note_on_c, 0, 87, 63
2, 156802, Note_on_c, 0, 63, 60
2, 156817, Note_on_c, 0, 90, 64
2, 156827, Note_on_c, 0, 87, 0
2, 156832, Note_on_c, 0, 69, 64
2, 156846, Note_on_c, 0, 63, 0
2, 156846, Control_c, 0, 64, 0
2, 156849, Note_on_c, 0, 90, 0
2, 156863, Note_on_c, 0, 81, 70
2, 156869, Note_on_c, 0, 72, 89
2, 156879, Note_on_c, 0, 84, 81
2, 156880, Note_on_c, 0, 69, 0
2, 156884, Note_on_c, 0, 81, 0
2, 156894, Control_c, 0, 64, 127
2, 156895, Note_on_c, 0, 84, 0
2, 156898, Note_on_c, 0, 90, 76
2, 156904, Note_on_c, 0, 78, 89
2, 156907, Note_on_c, 0, 72, 0
2, 156914, Control_c, 0, 67, 0
2, 156918, Note_on_c, 0, 78, 0
2, 156920, Note_on_c, 0, 93, 91
2, 156930, Note_on_c, 0, 90, 0
2, 156940, Note_on_c, 0, 93, 0
2, 157441, Control_c, 0, 64, 0
2, 157581, Note_on_c, 0, 28, 92
2, 157591, Control_c, 0, 64, 127
2, 157600, Note_on_c, 0, 40, 95
2, 157615, Note_on_c, 0, 28, 0
2, 157618, Note_on_c, 0, 40, 0
2, 158210, Note_on_c, 0, 43, 80
2, 158259, Control_c, 0, 67, 127
2, 158320, Note_on_c, 0, 43, 0
2, 158320, Note_on_c, 0, 45, 81
2, 158383, Note_on_c, 0, 48, 79
2, 158392, Note_on_c, 0, 45, 0
2, 158421, Note_on_c, 0, 48, 0
2, 158430, Note_on_c, 0, 52, 81
2, 158443, Note_on_c, 0, 52, 0
2, 158471, Note_on_c, 0, 55, 79
2, 158502, Note_on_c, 0, 55, 0
2, 158510, Note_on_c, 0, 57, 74
2, 158544, Note_on_c, 0, 60, 83
2, 158546, Note_on_c, 0, 57, 0
2, 158561, Note_on_c, 0, 64, 77
2, 158583, Note_on_c, 0, 60, 0
2, 158593, Note_on_c, 0, 64, 0
2, 158621, Note_on_c, 0, 67, 90
2, 158655, Note_on_c, 0, 69, 77
2, 158675, Note_on_c, 0, 67, 0
2, 158684, Note_on_c, 0, 72, 83
2, 158703, Note_on_c, 0, 69, 0
2, 158718, Note_on_c, 0, 76, 77
2, 158722, Control_c, 0, 67, 0
2, 158724, Note_on_c, 0, 72, 0
2, 158735, Note_on_c, 0, 76, 0
2, 158760, Note_on_c, 0, 79, 75
2, 158788, Note_on_c, 0, 79, 0
2, 158795, Note_on_c, 0, 81, 79
2, 158829, Note_on_c, 0, 81, 0
2, 158832, Note_on_c, 0, 84, 68
2, 158850, Note_on_c, 0, 84, 0
2, 158880, Note_on_c, 0, 86, 66
2, 158903, Note_on_c, 0, 86, 0
2, 158904, Note_on_c, 0, 84, 66
2, 158929, Note_on_c, 0, 84, 0
2, 158936, Note_on_c, 0, 86, 59
2, 158954, Note_on_c, 0, 86, 0
2, 158958, Note_on_c, 0, 84, 66
2, 158972, Note_on_c, 0, 84, 0
2, 158987, Note_on_c, 0, 86, 70
2, 159019, Note_on_c, 0, 86, 0
2, 159029, Note_on_c, 0, 84, 66
2, 159043, Note_on_c, 0, 84, 0
2, 159054, Note_on_c, 0, 86, 68
2, 159070, Note_on_c, 0, 86, 0
2, 159093, Note_on_c, 0, 84, 66
2, 159109, Note_on_c, 0, 84, 0
2, 159118, Note_on_c, 0, 86, 68
2, 159135, Note_on_c, 0, 86, 0
2, 159150, Note_on_c, 0, 84, 70
2, 159180, Note_on_c, 0, 84, 0
2, 159188, Note_on_c, 0, 86, 68
2, 159205, Note_on_c, 0, 86, 0
2, 159214, Note_on_c, 0, 84, 74
2, 159226, Note_on_c, 0, 84, 0
2, 159234, Note_on_c, 0, 86, 74
2, 159265, Note_on_c, 0, 84, 74
2, 159268, Note_on_c, 0, 86, 0
2, 159287, Control_c, 0, 67, 127
2, 159304, Note_on_c, 0, 84, 0
2, 159320, Note_on_c, 0, 83, 74
2, 159383, Note_on_c, 0, 83, 0
2, 159413, Note_on_c, 0, 84, 75
2, 159493, Note_on_c, 0, 84, 0
2, 159495, Note_on_c, 0, 88, 77
2, 159559, Note_on_c, 0, 91, 77
2, 159561, Note_on_c, 0, 88, 0
2, 159573, Control_c, 0, 64, 0
2, 159573, Note_on_c, 0, 64, 77
2, 159601, Note_on_c, 0, 69, 64
2, 159608, Note_on_c, 0, 64, 0
2, 159613, Note_on_c, 0, 91, 0
2, 159623, Control_c, 0, 64, 127
2, 159630, Note_on_c, 0, 81, 81
2, 159632, Note_on_c, 0, 72, 81
2, 159642, Note_on_c, 0, 69, 0
2, 159644, Note_on_c, 0, 84, 81
2, 159648, Note_on_c, 0, 81, 0
2, 159651, Note_on_c, 0, 72, 0
2, 159658, Note_on_c, 0, 84, 0
2, 159677, Note_on_c, 0, 79, 89
2, 159688, Note_on_c, 0, 91, 89
2, 159690, Note_on_c, 0, 93, 93
2, 159695, Note_on_c, 0, 79, 0
2, 159700, Note_on_c, 0, 91, 0
2, 159719, Note_on_c, 0, 93, 0
2, 159773, Control_c, 0, 67, 0
2, 160198, Control_c, 0, 64, 0
2, 160253, Note_on_c, 0, 30, 89
2, 160278, Control_c, 0, 64, 127
2, 160283, Note_on_c, 0, 42, 89
2, 160285, Note_on_c, 0, 30, 0
2, 160296, Note_on_c, 0, 42, 0
2, 160576, Control_c, 0, 67, 127
2, 160876, Note_on_c, 0, 45, 79
2, 160883, Control_c, 0, 64, 0
2, 160931, Control_c, 0, 64, 127
2, 161007, Note_on_c, 0, 45, 0
2, 161014, Note_on_c, 0, 48, 71
2, 161060, Note_on_c, 0, 51, 90
2, 161080, Note_on_c, 0, 48, 0
2, 161115, Note_on_c, 0, 54, 92
2, 161121, Note_on_c, 0, 51, 0
2, 161129, Note_on_c, 0, 54, 0
2, 161163, Note_on_c, 0, 57, 89
2, 161180, Note_on_c, 0, 57, 0
2, 161198, Note_on_c, 0, 60, 95
2, 161232, Note_on_c, 0, 63, 80
2, 161249, Note_on_c, 0, 60, 0
2, 161262, Note_on_c, 0, 66, 98
2, 161272, Note_on_c, 0, 63, 0
2, 161289, Note_on_c, 0, 66, 0
2, 161294, Note_on_c, 0, 69, 62
2, 161341, Note_on_c, 0, 72, 86
2, 161347, Note_on_c, 0, 69, 0
2, 161380, Note_on_c, 0, 75, 94
2, 161385, Note_on_c, 0, 72, 0
2, 161410, Note_on_c, 0, 78, 82
2, 161419, Note_on_c, 0, 75, 0
2, 161442, Note_on_c, 0, 78, 0
2, 161445, Note_on_c, 0, 81, 74
2, 161454, Control_c, 0, 67, 0
2, 161482, Note_on_c, 0, 84, 84
2, 161486, Note_on_c, 0, 81, 0
2, 161521, Note_on_c, 0, 87, 77
2, 161523, Note_on_c, 0, 84, 0
2, 161543, Note_on_c, 0, 87, 0
2, 161544, Note_on_c, 0, 89, 75
2, 161577, Note_on_c, 0, 89, 0
2, 161586, Note_on_c, 0, 87, 77
2, 161611, Note_on_c, 0, 87, 0
2, 161621, Note_on_c, 0, 89, 77
2, 161644, Note_on_c, 0, 89, 0
2, 161660, Note_on_c, 0, 87, 73
2, 161679, Note_on_c, 0, 87, 0
2, 161697, Note_on_c, 0, 89, 77
2, 161714, Note_on_c, 0, 89, 0
2, 161727, Note_on_c, 0, 87, 74
2, 161745, Note_on_c, 0, 87, 0
2, 161758, Note_on_c, 0, 89, 82
2, 161781, Note_on_c, 0, 89, 0
2, 161793, Note_on_c, 0, 87, 81
2, 161817, Note_on_c, 0, 87, 0
2, 161830, Note_on_c, 0, 89, 80
2, 161847, Note_on_c, 0, 89, 0
2, 161858, Note_on_c, 0, 87, 85
2, 161880, Note_on_c, 0, 89, 80
2, 161892, Note_on_c, 0, 87, 0
2, 161913, Note_on_c, 0, 89, 0
2, 161925, Note_on_c, 0, 86, 85
2, 161973, Note_on_c, 0, 86, 0
2, 162009, Note_on_c, 0, 87, 98
2, 162071, Note_on_c, 0, 90, 84
2, 162097, Note_on_c, 0, 87, 0
2, 162119, Note_on_c, 0, 93, 86
2, 162120, Note_on_c, 0, 90, 0
2, 162137, Note_on_c, 0, 66, 71
2, 162157, Note_on_c, 0, 93, 0
2, 162160, Note_on_c, 0, 84, 80
2, 162162, Control_c, 0, 67, 127
2, 162162, Note_on_c, 0, 72, 66
2, 162164, Control_c, 0, 64, 0
2, 162170, Note_on_c, 0, 87, 94
2, 162184, Note_on_c, 0, 66, 0
2, 162192, Note_on_c, 0, 84, 0
2, 162198, Note_on_c, 0, 75, 78
2, 162200, Note_on_c, 0, 87, 0
2, 162203, Note_on_c, 0, 72, 0
2, 162211, Note_on_c, 0, 93, 56
2, 162213, Control_c, 0, 64, 127
2, 162221, Note_on_c, 0, 96, 108
2, 162227, Note_on_c, 0, 93, 0
2, 162229, Note_on_c, 0, 75, 0
2, 162240, Note_on_c, 0, 81, 92
2, 162250, Note_on_c, 0, 96, 0
2, 162251, Note_on_c, 0, 81, 0
2, 162317, Control_c, 0, 67, 0
2, 162784, Control_c, 0, 64, 0
2, 162839, Note_on_c, 0, 31, 81
2, 162841, Control_c, 0, 67, 127
2, 162849, Control_c, 0, 67, 0
2, 162854, Control_c, 0, 67, 127
2, 162858, Control_c, 0, 67, 0
2, 162863, Control_c, 0, 64, 127
2, 162871, Note_on_c, 0, 43, 98
2, 162873, Note_on_c, 0, 31, 0
2, 162883, Note_on_c, 0, 43, 0
2, 163360, Control_c, 0, 67, 127
2, 163550, Note_on_c, 0, 46, 75
2, 163676, Note_on_c, 0, 48, 76
2, 163677, Note_on_c, 0, 46, 0
2, 163740, Note_on_c, 0, 51, 93
2, 163763, Note_on_c, 0, 48, 0
2, 163794, Note_on_c, 0, 55, 87
2, 163799, Note_on_c, 0, 51, 0
2, 163811, Note_on_c, 0, 55, 0
2, 163842, Note_on_c, 0, 58, 82
2, 163876, Note_on_c, 0, 58, 0
2, 163879, Note_on_c, 0, 60, 85
2, 163911, Note_on_c, 0, 63, 85
2, 163924, Note_on_c, 0, 60, 0
2, 163939, Note_on_c, 0, 67, 91
2, 163949, Note_on_c, 0, 63, 0
2, 163976, Note_on_c, 0, 67, 0
2, 164001, Note_on_c, 0, 70, 75
2, 164038, Note_on_c, 0, 72, 80
2, 164062, Note_on_c, 0, 70, 0
2, 164065, Note_on_c, 0, 75, 75
2, 164079, Note_on_c, 0, 72, 0
2, 164103, Note_on_c, 0, 79, 75
2, 164106, Note_on_c, 0, 75, 0
2, 164118, Note_on_c, 0, 79, 0
2, 164131, Note_on_c, 0, 82, 78
2, 164153, Note_on_c, 0, 82, 0
2, 164160, Note_on_c, 0, 84, 81
2, 164189, Note_on_c, 0, 87, 75
2, 164204, Note_on_c, 0, 84, 0
2, 164207, Control_c, 0, 67, 0
2, 164221, Note_on_c, 0, 87, 0
2, 164228, Note_on_c, 0, 89, 74
2, 164268, Note_on_c, 0, 89, 0
2, 164272, Note_on_c, 0, 87, 75
2, 164297, Note_on_c, 0, 87, 0
2, 164304, Note_on_c, 0, 89, 81
2, 164328, Note_on_c, 0, 89, 0
2, 164344, Note_on_c, 0, 87, 70
2, 164363, Note_on_c, 0, 87, 0
2, 164375, Note_on_c, 0, 89, 82
2, 164395, Note_on_c, 0, 89, 0
2, 164411, Note_on_c, 0, 87, 75
2, 164432, Note_on_c, 0, 87, 0
2, 164449, Note_on_c, 0, 89, 74
2, 164467, Note_on_c, 0, 89, 0
2, 164467, Control_c, 0, 67, 127
2, 164484, Note_on_c, 0, 87, 64
2, 164499, Note_on_c, 0, 87, 0
2, 164511, Note_on_c, 0, 89, 75
2, 164530, Note_on_c, 0, 89, 0
2, 164545, Note_on_c, 0, 87, 52
2, 164564, Note_on_c, 0, 87, 0
2, 164568, Note_on_c, 0, 89, 74
2, 164592, Note_on_c, 0, 89, 0
2, 164605, Note_on_c, 0, 87, 77
2, 164636, Note_on_c, 0, 89, 87
2, 164639, Note_on_c, 0, 87, 0
2, 164654, Note_on_c, 0, 89, 0
2, 164673, Note_on_c, 0, 86, 87
2, 164786, Note_on_c, 0, 86, 0
2, 164797, Note_on_c, 0, 87, 88
2, 164903, Note_on_c, 0, 87, 0
2, 164914, Note_on_c, 0, 91, 74
2, 164994, Note_on_c, 0, 94, 77
2, 165009, Note_on_c, 0, 91, 0
2, 165044, Note_on_c, 0, 67, 72
2, 165054, Control_c, 0, 64, 0
2, 165081, Note_on_c, 0, 94, 0
2, 165082, Note_on_c, 0, 67, 0
2, 165090, Note_on_c, 0, 72, 68
2, 165106, Note_on_c, 0, 84, 76
2, 165107, Control_c, 0, 64, 127
2, 165108, Note_on_c, 0, 72, 0
2, 165117, Note_on_c, 0, 75, 70
2, 165120, Note_on_c, 0, 87, 81
2, 165135, Note_on_c, 0, 84, 0
2, 165136, Note_on_c, 0, 87, 0
2, 165151, Note_on_c, 0, 75, 0
2, 165152, Note_on_c, 0, 94, 91
2, 165159, Note_on_c, 0, 96, 91
2, 165164, Note_on_c, 0, 82, 91
2, 165167, Note_on_c, 0, 94, 0
2, 165181, Note_on_c, 0, 82, 0
2, 165183, Note_on_c, 0, 96, 0
2, 165322, Control_c, 0, 67, 0
2, 165720, Control_c, 0, 64, 0
2, 165818, Note_on_c, 0, 32, 104
2, 165841, Control_c, 0, 64, 127
2, 166144, Note_on_c, 0, 44, 100
2, 166159, Note_on_c, 0, 32, 0
2, 166176, Note_on_c, 0, 44, 0
2, 166843, Note_on_c, 0, 48, 72
2, 167063, Note_on_c, 0, 48, 0
2, 167067, Note_on_c, 0, 51, 78
2, 167194, Note_on_c, 0, 54, 68
2, 167205, Note_on_c, 0, 51, 0
2, 167267, Control_c, 0, 67, 127
2, 167295, Note_on_c, 0, 54, 0
2, 167302, Note_on_c, 0, 56, 70
2, 167334, Note_on_c, 0, 56, 0
2, 167388, Note_on_c, 0, 60, 74
2, 167436, Note_on_c, 0, 60, 0
2, 167472, Note_on_c, 0, 63, 85
2, 167520, Note_on_c, 0, 63, 0
2, 167539, Note_on_c, 0, 66, 82
2, 167585, Note_on_c, 0, 66, 0
2, 167605, Note_on_c, 0, 68, 78
2, 167644, Note_on_c, 0, 68, 0
2, 167676, Note_on_c, 0, 72, 76
2, 167742, Note_on_c, 0, 75, 72
2, 167781, Note_on_c, 0, 72, 0
2, 167809, Note_on_c, 0, 78, 77
2, 167838, Note_on_c, 0, 75, 0
2, 167876, Note_on_c, 0, 80, 79
2, 167890, Note_on_c, 0, 78, 0
2, 167921, Note_on_c, 0, 80, 0
2, 167956, Note_on_c, 0, 84, 72
2, 168046, Note_on_c, 0, 84, 0
2, 168052, Note_on_c, 0, 87, 57
2, 168157, Note_on_c, 0, 90, 67
2, 168159, Note_on_c, 0, 87, 0
2, 168210, Note_on_c, 0, 90, 0
2, 168299, Note_on_c, 0, 90, 53
2, 168380, Note_on_c, 0, 90, 0
2, 168398, Note_on_c, 0, 92, 61
2, 168446, Note_on_c, 0, 92, 0
2, 168463, Note_on_c, 0, 90, 58
2, 168495, Note_on_c, 0, 90, 0
2, 168506, Note_on_c, 0, 92, 54
2, 168524, Note_on_c, 0, 92, 0
2, 168551, Note_on_c, 0, 90, 56
2, 168568, Note_on_c, 0, 90, 0
2, 168575, Note_on_c, 0, 92, 58
2, 168594, Note_on_c, 0, 92, 0
2, 168611, Note_on_c, 0, 90, 62
2, 168632, Note_on_c, 0, 90, 0
2, 168644, Note_on_c, 0, 92, 64
2, 168662, Note_on_c, 0, 92, 0
2, 168679, Note_on_c, 0, 90, 64
2, 168699, Note_on_c, 0, 90, 0
2, 168713, Note_on_c, 0, 92, 66
2, 168729, Note_on_c, 0, 92, 0
2, 168745, Note_on_c, 0, 90, 53
2, 168766, Note_on_c, 0, 90, 0
2, 168780, Note_on_c, 0, 92, 66
2, 168795, Note_on_c, 0, 92, 0
2, 168812, Note_on_c, 0, 90, 55
2, 168834, Note_on_c, 0, 90, 0
2, 168847, Note_on_c, 0, 92, 68
2, 168861, Note_on_c, 0, 92, 0
2, 168878, Note_on_c, 0, 90, 57
2, 168900, Note_on_c, 0, 90, 0
2, 168916, Note_on_c, 0, 92, 70
2, 168930, Note_on_c, 0, 92, 0
2, 168941, Note_on_c, 0, 90, 63
2, 168968, Note_on_c, 0, 90, 0
2, 168979, Note_on_c, 0, 92, 68
2, 168995, Note_on_c, 0, 92, 0
2, 169014, Note_on_c, 0, 90, 68
2, 169032, Note_on_c, 0, 90, 0
2, 169045, Note_on_c, 0, 92, 68
2, 169060, Note_on_c, 0, 92, 0
2, 169078, Note_on_c, 0, 90, 69
2, 169099, Note_on_c, 0, 90, 0
2, 169117, Note_on_c, 0, 92, 68
2, 169131, Note_on_c, 0, 92, 0
2, 169144, Note_on_c, 0, 90, 74
2, 169170, Note_on_c, 0, 90, 0
2, 169182, Note_on_c, 0, 92, 82
2, 169197, Note_on_c, 0, 92, 0
2, 169215, Note_on_c, 0, 90, 77
2, 169236, Note_on_c, 0, 90, 0
2, 169251, Note_on_c, 0, 92, 81
2, 169268, Note_on_c, 0, 92, 0
2, 169288, Note_on_c, 0, 90, 74
2, 169307, Note_on_c, 0, 90, 0
2, 169329, Note_on_c, 0, 92, 72
2, 169346, Note_on_c, 0, 92, 0
2, 169352, Note_on_c, 0, 90, 74
2, 169386, Note_on_c, 0, 90, 0
2, 169387, Note_on_c, 0, 68, 75
2, 169409, Note_on_c, 0, 75, 68
2, 169416, Note_on_c, 0, 90, 75
2, 169416, Note_on_c, 0, 92, 75
2, 169429, Control_c, 0, 64, 0
2, 169440, Note_on_c, 0, 92, 0
2, 169440, Note_on_c, 0, 90, 0
2, 169445, Note_on_c, 0, 78, 66
2, 169452, Control_c, 0, 64, 127
2, 169471, Note_on_c, 0, 84, 58
2, 169475, Note_on_c, 0, 90, 66
2, 169492, Note_on_c, 0, 90, 0
2, 169493, Note_on_c, 0, 84, 0
2, 169505, Note_on_c, 0, 92, 70
2, 169523, Note_on_c, 0, 92, 0
2, 169548, Note_on_c, 0, 90, 66
2, 169567, Note_on_c, 0, 90, 0
2, 169576, Note_on_c, 0, 92, 74
2, 169595, Note_on_c, 0, 92, 0
2, 169604, Note_on_c, 0, 90, 66
2, 169626, Note_on_c, 0, 68, 0
2, 169636, Note_on_c, 0, 90, 0
2, 169648, Note_on_c, 0, 92, 74
2, 169656, Note_on_c, 0, 78, 0
2, 169666, Note_on_c, 0, 92, 0
2, 169679, Note_on_c, 0, 75, 0
2, 169683, Note_on_c, 0, 90, 66
2, 169703, Note_on_c, 0, 90, 0
2, 169716, Note_on_c, 0, 92, 77
2, 169743, Note_on_c, 0, 92, 0
2, 169755, Note_on_c, 0, 90, 68
2, 169771, Note_on_c, 0, 90, 0
2, 169785, Note_on_c, 0, 92, 79
2, 169817, Note_on_c, 0, 90, 70
2, 169821, Note_on_c, 0, 92, 0
2, 169857, Note_on_c, 0, 68, 74
2, 169858, Note_on_c, 0, 90, 0
2, 169860, Note_on_c, 0, 89, 74
2, 169885, Note_on_c, 0, 74, 80
2, 169895, Note_on_c, 0, 68, 0
2, 169908, Note_on_c, 0, 89, 0
2, 169914, Note_on_c, 0, 77, 75
2, 169916, Control_c, 0, 64, 0
2, 169919, Note_on_c, 0, 90, 75
2, 169957, Note_on_c, 0, 80, 75
2, 169959, Note_on_c, 0, 90, 0
2, 169963, Control_c, 0, 64, 127
2, 169999, Note_on_c, 0, 77, 0
2, 170002, Note_on_c, 0, 83, 62
2, 170020, Note_on_c, 0, 80, 0
2, 170041, Note_on_c, 0, 74, 0
2, 170049, Note_on_c, 0, 83, 0
2, 170049, Note_on_c, 0, 92, 75
2, 170082, Note_on_c, 0, 92, 0
2, 170088, Note_on_c, 0, 93, 97
2, 170102, Note_on_c, 0, 93, 0
2, 170123, Note_on_c, 0, 92, 77
2, 170143, Note_on_c, 0, 92, 0
2, 170150, Note_on_c, 0, 93, 79
2, 170166, Note_on_c, 0, 93, 0
2, 170179, Note_on_c, 0, 92, 81
2, 170212, Note_on_c, 0, 92, 0
2, 170217, Note_on_c, 0, 93, 92
2, 170248, Note_on_c, 0, 92, 83
2, 170254, Note_on_c, 0, 93, 0
2, 170279, Note_on_c, 0, 92, 0
2, 170282, Note_on_c, 0, 91, 83
2, 170317, Note_on_c, 0, 91, 0
2, 170324, Note_on_c, 0, 68, 61
2, 170330, Note_on_c, 0, 92, 88
2, 170361, Note_on_c, 0, 75, 66
2, 170363, Note_on_c, 0, 68, 0
2, 170369, Note_on_c, 0, 92, 0
2, 170386, Note_on_c, 0, 78, 93
2, 170389, Control_c, 0, 64, 0
2, 170402, Note_on_c, 0, 75, 0
2, 170411, Note_on_c, 0, 81, 78
2, 170419, Note_on_c, 0, 78, 0
2, 170419, Control_c, 0, 64, 127
2, 170422, Note_on_c, 0, 84, 92
2, 170426, Note_on_c, 0, 81, 0
2, 170432, Note_on_c, 0, 93, 32
2, 170443, Note_on_c, 0, 93, 0
2, 170443, Note_on_c, 0, 95, 91
2, 170464, Note_on_c, 0, 95, 0
2, 170469, Control_c, 0, 67, 0
2, 170478, Note_on_c, 0, 93, 91
2, 170511, Note_on_c, 0, 93, 0
2, 170521, Note_on_c, 0, 95, 84
2, 170550, Note_on_c, 0, 95, 0
2, 170558, Note_on_c, 0, 93, 81
2, 170574, Note_on_c, 0, 93, 0
2, 170593, Note_on_c, 0, 95, 77
2, 170618, Note_on_c, 0, 95, 0
2, 170622, Note_on_c, 0, 93, 79
2, 170648, Note_on_c, 0, 68, 75
2, 170655, Note_on_c, 0, 93, 0
2, 170673, Note_on_c, 0, 95, 77
2, 170685, Note_on_c, 0, 84, 0
2, 170703, Note_on_c, 0, 95, 0
2, 170703, Note_on_c, 0, 68, 0
2, 170705, Note_on_c, 0, 76, 29
2, 170707, Note_on_c, 0, 93, 87
2, 170722, Note_on_c, 0, 76, 0
2, 170727, Note_on_c, 0, 78, 85
2, 170756, Note_on_c, 0, 81, 81
2, 170760, Note_on_c, 0, 78, 0
2, 170760, Note_on_c, 0, 95, 83
2, 170762, Note_on_c, 0, 93, 0
2, 170771, Note_on_c, 0, 81, 0
2, 170784, Note_on_c, 0, 95, 0
2, 170784, Note_on_c, 0, 93, 85
2, 170785, Note_on_c, 0, 85, 85
2, 170808, Note_on_c, 0, 93, 0
2, 170815, Note_on_c, 0, 85, 0
2, 170829, Note_on_c, 0, 95, 85
2, 170851, Note_on_c, 0, 93, 74
2, 170856, Note_on_c, 0, 95, 0
2, 170895, Note_on_c, 0, 93, 0
2, 170902, Note_on_c, 0, 95, 81
2, 170929, Note_on_c, 0, 95, 0
2, 170938, Note_on_c, 0, 93, 82
2, 170965, Note_on_c, 0, 68, 66
2, 170971, Note_on_c, 0, 93, 0
2, 170991, Note_on_c, 0, 95, 89
2, 170993, Note_on_c, 0, 75, 67
2, 171008, Note_on_c, 0, 68, 0
2, 171025, Note_on_c, 0, 78, 92
2, 171032, Note_on_c, 0, 95, 0
2, 171035, Note_on_c, 0, 93, 84
2, 171038, Note_on_c, 0, 75, 0
2, 171051, Note_on_c, 0, 93, 0
2, 171058, Note_on_c, 0, 78, 0
2, 171059, Note_on_c, 0, 81, 81
2, 171067, Note_on_c, 0, 84, 81
2, 171077, Note_on_c, 0, 81, 0
2, 171093, Note_on_c, 0, 95, 69
2, 171116, Note_on_c, 0, 95, 0
2, 171118, Note_on_c, 0, 93, 92
2, 171153, Note_on_c, 0, 93, 0
2, 171168, Note_on_c, 0, 95, 89
2, 171197, Note_on_c, 0, 84, 0
2, 171203, Note_on_c, 0, 93, 86
2, 171215, Note_on_c, 0, 68, 88
2, 171216, Note_on_c, 0, 95, 0
2, 171224, Note_on_c, 0, 76, 75
2, 171227, Note_on_c, 0, 93, 0
2, 171248, Note_on_c, 0, 68, 0
2, 171251, Note_on_c, 0, 76, 0
2, 171258, Note_on_c, 0, 78, 80
2, 171264, Note_on_c, 0, 95, 91
2, 171271, Note_on_c, 0, 85, 91
2, 171273, Note_on_c, 0, 81, 91
2, 171277, Note_on_c, 0, 78, 0
2, 171285, Note_on_c, 0, 81, 0
2, 171285, Note_on_c, 0, 93, 91
2, 171288, Note_on_c, 0, 95, 0
2, 171308, Note_on_c, 0, 93, 0
2, 171310, Note_on_c, 0, 85, 0
2, 171326, Note_on_c, 0, 95, 91
2, 171361, Note_on_c, 0, 95, 0
2, 171364, Note_on_c, 0, 93, 74
2, 171392, Note_on_c, 0, 68, 93
2, 171394, Note_on_c, 0, 93, 0
2, 171409, Note_on_c, 0, 95, 95
2, 171417, Note_on_c, 0, 73, 77
2, 171434, Note_on_c, 0, 68, 0
2, 171434, Control_c, 0, 64, 0
2, 171447, Note_on_c, 0, 93, 81
2, 171450, Note_on_c, 0, 73, 0
2, 171450, Note_on_c, 0, 95, 0
2, 171450, Note_on_c, 0, 78, 99
2, 171457, Control_c, 0, 64, 127
2, 171458, Note_on_c, 0, 81, 83
2, 171461, Note_on_c, 0, 78, 0
2, 171471, Note_on_c, 0, 81, 0
2, 171474, Note_on_c, 0, 88, 85
2, 171480, Note_on_c, 0, 93, 0
2, 171502, Note_on_c, 0, 95, 82
2, 171536, Note_on_c, 0, 95, 0
2, 171538, Note_on_c, 0, 93, 85
2, 171554, Note_on_c, 0, 93, 0
2, 171580, Note_on_c, 0, 95, 79
2, 171619, Note_on_c, 0, 95, 0
2, 171627, Note_on_c, 0, 93, 77
2, 171676, Note_on_c, 0, 93, 0
2, 171694, Note_on_c, 0, 95, 83
2, 171713, Note_on_c, 0, 95, 0
2, 171725, Note_on_c, 0, 93, 75
2, 171743, Note_on_c, 0, 93, 0
2, 171757, Note_on_c, 0, 95, 79
2, 171781, Note_on_c, 0, 95, 0
2, 171790, Note_on_c, 0, 93, 65
2, 171807, Note_on_c, 0, 93, 0
2, 171822, Note_on_c, 0, 95, 81
2, 171845, Note_on_c, 0, 95, 0
2, 171857, Note_on_c, 0, 93, 81
2, 171883, Note_on_c, 0, 93, 0
2, 171891, Note_on_c, 0, 68, 68
2, 171895, Note_on_c, 0, 95, 86
2, 171910, Note_on_c, 0, 68, 0
2, 171917, Note_on_c, 0, 72, 83
2, 171922, Note_on_c, 0, 88, 0
2, 171925, Control_c, 0, 67, 127
2, 171930, Note_on_c, 0, 95, 0
2, 171930, Note_on_c, 0, 93, 83
2, 171945, Note_on_c, 0, 72, 0
2, 171945, Note_on_c, 0, 78, 100
2, 171957, Control_c, 0, 64, 0
2, 171964, Control_c, 0, 64, 127
2, 171966, Note_on_c, 0, 78, 0
2, 171966, Note_on_c, 0, 81, 85
2, 171971, Note_on_c, 0, 93, 0
2, 171979, Note_on_c, 0, 81, 0
2, 171984, Note_on_c, 0, 95, 85
2, 171991, Note_on_c, 0, 87, 85
2, 172008, Note_on_c, 0, 95, 0
2, 172008, Note_on_c, 0, 93, 120
2, 172023, Note_on_c, 0, 87, 0
2, 172032, Note_on_c, 0, 93, 0
2, 172050, Note_on_c, 0, 95, 87
2, 172084, Note_on_c, 0, 95, 0
2, 172084, Note_on_c, 0, 93, 85
2, 172117, Note_on_c, 0, 93, 0
2, 172121, Note_on_c, 0, 95, 87
2, 172138, Note_on_c, 0, 95, 0
2, 172156, Note_on_c, 0, 93, 65
2, 172180, Note_on_c, 0, 93, 0
2, 172196, Note_on_c, 0, 95, 89
2, 172212, Note_on_c, 0, 95, 0
2, 172222, Note_on_c, 0, 93, 87
2, 172254, Note_on_c, 0, 93, 0
2, 172261, Note_on_c, 0, 95, 91
2, 172279, Note_on_c, 0, 95, 0
2, 172298, Note_on_c, 0, 93, 93
2, 172327, Note_on_c, 0, 93, 0
2, 172333, Note_on_c, 0, 95, 89
2, 172349, Note_on_c, 0, 95, 0
2, 172372, Note_on_c, 0, 93, 85
2, 172390, Note_on_c, 0, 93, 0
2, 172401, Note_on_c, 0, 95, 92
2, 172418, Note_on_c, 0, 95, 0
2, 172438, Note_on_c, 0, 93, 87
2, 172467, Note_on_c, 0, 93, 0
2, 172478, Note_on_c, 0, 95, 83
2, 172495, Note_on_c, 0, 95, 0
2, 172506, Note_on_c, 0, 93, 91
2, 172539, Note_on_c, 0, 93, 0
2, 172545, Note_on_c, 0, 95, 78
2, 172563, Note_on_c, 0, 95, 0
2, 172580, Note_on_c, 0, 93, 93
2, 172611, Note_on_c, 0, 93, 0
2, 172613, Note_on_c, 0, 95, 91
2, 172633, Note_on_c, 0, 95, 0
2, 172650, Note_on_c, 0, 93, 89
2, 172675, Note_on_c, 0, 93, 0
2, 172677, Note_on_c, 0, 95, 93
2, 172716, Note_on_c, 0, 93, 97
2, 172718, Note_on_c, 0, 95, 0
2, 172787, Note_on_c, 0, 92, 111
2, 172791, Note_on_c, 0, 93, 0
2, 172838, Note_on_c, 0, 92, 0
2, 172866, Note_on_c, 0, 93, 91
2, 172920, Note_on_c, 0, 93, 0
2, 172936, Note_on_c, 0, 94, 102
2, 172978, Note_on_c, 0, 94, 0
2, 173014, Note_on_c, 0, 95, 97
2, 173065, Note_on_c, 0, 95, 0
2, 173086, Note_on_c, 0, 96, 98
2, 173129, Note_on_c, 0, 96, 0
2, 173158, Note_on_c, 0, 97, 92
2, 173193, Note_on_c, 0, 97, 0
2, 173222, Note_on_c, 0, 98, 87
2, 173274, Note_on_c, 0, 98, 0
2, 173295, Note_on_c, 0, 99, 93
2, 173330, Note_on_c, 0, 99, 0
2, 173359, Note_on_c, 0, 98, 79
2, 173381, Note_on_c, 0, 98, 0
2, 173438, Note_on_c, 0, 101, 83
2, 173477, Note_on_c, 0, 101, 0
2, 173488, Note_on_c, 0, 97, 85
2, 173506, Note_on_c, 0, 97, 0
2, 173543, Note_on_c, 0, 99, 81
2, 173573, Note_on_c, 0, 99, 0
2, 173602, Note_on_c, 0, 98, 83
2, 173621, Note_on_c, 0, 98, 0
2, 173645, Note_on_c, 0, 101, 85
2, 173667, Note_on_c, 0, 101, 0
2, 173701, Note_on_c, 0, 97, 78
2, 173717, Note_on_c, 0, 97, 0
2, 173743, Note_on_c, 0, 99, 83
2, 173759, Note_on_c, 0, 99, 0
2, 173789, Note_on_c, 0, 98, 85
2, 173805, Note_on_c, 0, 98, 0
2, 173847, Note_on_c, 0, 100, 81
2, 173864, Note_on_c, 0, 100, 0
2, 173879, Note_on_c, 0, 96, 84
2, 173894, Note_on_c, 0, 96, 0
2, 173934, Note_on_c, 0, 98, 83
2, 173948, Note_on_c, 0, 98, 0
2, 173965, Note_on_c, 0, 97, 83
2, 173981, Note_on_c, 0, 97, 0
2, 174014, Note_on_c, 0, 99, 81
2, 174030, Note_on_c, 0, 99, 0
2, 174039, Note_on_c, 0, 95, 83
2, 174055, Note_on_c, 0, 95, 0
2, 174101, Note_on_c, 0, 97, 81
2, 174114, Note_on_c, 0, 97, 0
2, 174125, Note_on_c, 0, 96, 77
2, 174140, Note_on_c, 0, 96, 0
2, 174186, Note_on_c, 0, 98, 83
2, 174200, Note_on_c, 0, 98, 0
2, 174222, Note_on_c, 0, 94, 78
2, 174237, Note_on_c, 0, 94, 0
2, 174269, Note_on_c, 0, 96, 87
2, 174283, Note_on_c, 0, 96, 0
2, 174303, Note_on_c, 0, 95, 85
2, 174319, Note_on_c, 0, 95, 0
2, 174353, Note_on_c, 0, 97, 94
2, 174373, Note_on_c, 0, 97, 0
2, 174378, Note_on_c, 0, 93, 82
2, 174392, Note_on_c, 0, 93, 0
2, 174432, Note_on_c, 0, 95, 87
2, 174462, Note_on_c, 0, 95, 0
2, 174466, Note_on_c, 0, 94, 87
2, 174480, Note_on_c, 0, 94, 0
2, 174511, Note_on_c, 0, 96, 83
2, 174529, Note_on_c, 0, 96, 0
2, 174547, Note_on_c, 0, 92, 85
2, 174566, Note_on_c, 0, 92, 0
2, 174589, Note_on_c, 0, 94, 87
2, 174605, Note_on_c, 0, 94, 0
2, 174626, Note_on_c, 0, 93, 83
2, 174640, Note_on_c, 0, 93, 0
2, 174675, Note_on_c, 0, 95, 85
2, 174691, Note_on_c, 0, 95, 0
2, 174712, Note_on_c, 0, 91, 83
2, 174725, Note_on_c, 0, 91, 0
2, 174748, Note_on_c, 0, 93, 83
2, 174765, Note_on_c, 0, 93, 0
2, 174799, Note_on_c, 0, 92, 83
2, 174812, Note_on_c, 0, 92, 0
2, 174820, Note_on_c, 0, 94, 85
2, 174849, Note_on_c, 0, 94, 0
2, 174870, Note_on_c, 0, 90, 85
2, 174894, Note_on_c, 0, 90, 0
2, 174900, Note_on_c, 0, 92, 87
2, 174914, Note_on_c, 0, 92, 0
2, 174944, Note_on_c, 0, 91, 87
2, 174958, Note_on_c, 0, 91, 0
2, 174982, Note_on_c, 0, 93, 87
2, 174997, Note_on_c, 0, 93, 0
2, 175022, Note_on_c, 0, 89, 91
2, 175026, Control_c, 0, 67, 0
2, 175036, Note_on_c, 0, 89, 0
2, 175056, Note_on_c, 0, 91, 102
2, 175069, Note_on_c, 0, 91, 0
2, 175096, Note_on_c, 0, 90, 91
2, 175114, Note_on_c, 0, 90, 0
2, 175125, Note_on_c, 0, 92, 95
2, 175148, Note_on_c, 0, 92, 0
2, 175169, Note_on_c, 0, 88, 83
2, 175186, Note_on_c, 0, 88, 0
2, 175199, Note_on_c, 0, 90, 93
2, 175219, Note_on_c, 0, 90, 0
2, 175251, Note_on_c, 0, 89, 89
2, 175265, Note_on_c, 0, 89, 0
2, 175280, Note_on_c, 0, 91, 89
2, 175296, Note_on_c, 0, 91, 0
2, 175329, Note_on_c, 0, 87, 89
2, 175350, Note_on_c, 0, 87, 0
2, 175354, Note_on_c, 0, 89, 105
2, 175372, Note_on_c, 0, 89, 0
2, 175405, Note_on_c, 0, 88, 91
2, 175423, Note_on_c, 0, 88, 0
2, 175427, Note_on_c, 0, 90, 89
2, 175457, Note_on_c, 0, 90, 0
2, 175475, Note_on_c, 0, 86, 99
2, 175490, Note_on_c, 0, 86, 0
2, 175501, Note_on_c, 0, 88, 98
2, 175526, Note_on_c, 0, 88, 0
2, 175549, Note_on_c, 0, 87, 93
2, 175576, Note_on_c, 0, 87, 0
2, 175578, Note_on_c, 0, 89, 105
2, 175600, Note_on_c, 0, 89, 0
2, 175624, Note_on_c, 0, 85, 99
2, 175652, Note_on_c, 0, 87, 104
2, 175655, Note_on_c, 0, 85, 0
2, 175672, Note_on_c, 0, 87, 0
2, 175695, Note_on_c, 0, 86, 102
2, 175716, Note_on_c, 0, 86, 0
2, 175733, Note_on_c, 0, 88, 107
2, 175752, Note_on_c, 0, 88, 0
2, 175767, Note_on_c, 0, 84, 101
2, 175784, Note_on_c, 0, 84, 0
2, 175804, Note_on_c, 0, 86, 111
2, 175831, Note_on_c, 0, 86, 0
2, 175842, Note_on_c, 0, 85, 103
2, 175860, Note_on_c, 0, 85, 0
2, 175874, Note_on_c, 0, 87, 103
2, 175901, Note_on_c, 0, 87, 0
2, 175914, Note_on_c, 0, 83, 107
2, 175943, Note_on_c, 0, 83, 0
2, 175953, Note_on_c, 0, 85, 101
2, 175969, Note_on_c, 0, 85, 0
2, 175990, Note_on_c, 0, 84, 101
2, 176002, Note_on_c, 0, 84, 0
2, 176031, Note_on_c, 0, 86, 101
2, 176055, Note_on_c, 0, 86, 0
2, 176062, Note_on_c, 0, 82, 97
2, 176093, Note_on_c, 0, 82, 0
2, 176100, Note_on_c, 0, 84, 111
2, 176125, Note_on_c, 0, 84, 0
2, 176141, Note_on_c, 0, 83, 103
2, 176158, Note_on_c, 0, 83, 0
2, 176175, Note_on_c, 0, 85, 112
2, 176204, Note_on_c, 0, 85, 0
2, 176209, Note_on_c, 0, 81, 105
2, 176230, Note_on_c, 0, 81, 0
2, 176252, Note_on_c, 0, 83, 107
2, 176281, Note_on_c, 0, 83, 0
2, 176290, Note_on_c, 0, 82, 97
2, 176307, Note_on_c, 0, 82, 0
2, 176326, Note_on_c, 0, 84, 107
2, 176357, Note_on_c, 0, 84, 0
2, 176363, Note_on_c, 0, 80, 103
2, 176397, Note_on_c, 0, 80, 0
2, 176407, Note_on_c, 0, 82, 100
2, 176421, Note_on_c, 0, 82, 0
2, 176436, Note_on_c, 0, 81, 105
2, 176460, Note_on_c, 0, 81, 0
2, 176487, Note_on_c, 0, 83, 106
2, 176503, Note_on_c, 0, 83, 0
2, 176511, Note_on_c, 0, 79, 101
2, 176525, Note_on_c, 0, 79, 0
2, 176557, Note_on_c, 0, 81, 113
2, 176579, Note_on_c, 0, 81, 0
2, 176593, Note_on_c, 0, 80, 103
2, 176607, Note_on_c, 0, 80, 0
2, 176624, Note_on_c, 0, 82, 110
2, 176653, Note_on_c, 0, 82, 0
2, 176668, Note_on_c, 0, 78, 97
2, 176697, Note_on_c, 0, 78, 0
2, 176707, Note_on_c, 0, 80, 103
2, 176721, Note_on_c, 0, 80, 0
2, 176739, Note_on_c, 0, 79, 103
2, 176755, Note_on_c, 0, 79, 0
2, 176789, Note_on_c, 0, 81, 102
2, 176804, Note_on_c, 0, 81, 0
2, 176818, Note_on_c, 0, 77, 101
2, 176832, Note_on_c, 0, 77, 0
2, 176859, Note_on_c, 0, 79, 101
2, 176879, Note_on_c, 0, 79, 0
2, 176898, Note_on_c, 0, 78, 101
2, 176915, Note_on_c, 0, 78, 0
2, 176930, Note_on_c, 0, 80, 101
2, 176958, Note_on_c, 0, 80, 0
2, 176974, Note_on_c, 0, 76, 105
2, 177000, Note_on_c, 0, 76, 0
2, 177011, Note_on_c, 0, 78, 105
2, 177026, Note_on_c, 0, 78, 0
2, 177051, Note_on_c, 0, 77, 101
2, 177070, Note_on_c, 0, 77, 0
2, 177088, Note_on_c, 0, 79, 95
2, 177120, Note_on_c, 0, 79, 0
2, 177130, Note_on_c, 0, 75, 92
2, 177147, Note_on_c, 0, 75, 0
2, 177162, Note_on_c, 0, 77, 107
2, 177188, Note_on_c, 0, 77, 0
2, 177208, Note_on_c, 0, 76, 97
2, 177227, Note_on_c, 0, 76, 0
2, 177235, Note_on_c, 0, 78, 99
2, 177266, Note_on_c, 0, 78, 0
2, 177288, Note_on_c, 0, 74, 93
2, 177302, Note_on_c, 0, 74, 0
2, 177318, Note_on_c, 0, 76, 97
2, 177333, Note_on_c, 0, 76, 0
2, 177367, Note_on_c, 0, 75, 101
2, 177381, Note_on_c, 0, 75, 0
2, 177391, Note_on_c, 0, 77, 103
2, 177422, Note_on_c, 0, 77, 0
2, 177444, Note_on_c, 0, 73, 96
2, 177468, Note_on_c, 0, 75, 102
2, 177475, Note_on_c, 0, 73, 0
2, 177488, Note_on_c, 0, 75, 0
2, 177519, Note_on_c, 0, 74, 107
2, 177538, Note_on_c, 0, 74, 0
2, 177559, Note_on_c, 0, 76, 100
2, 177577, Note_on_c, 0, 76, 0
2, 177598, Note_on_c, 0, 72, 102
2, 177614, Note_on_c, 0, 72, 0
2, 177637, Note_on_c, 0, 74, 101
2, 177656, Note_on_c, 0, 74, 0
2, 177678, Note_on_c, 0, 73, 91
2, 177699, Note_on_c, 0, 73, 0
2, 177712, Note_on_c, 0, 75, 102
2, 177743, Note_on_c, 0, 75, 0
2, 177756, Note_on_c, 0, 71, 92
2, 177784, Note_on_c, 0, 71, 0
2, 177802, Note_on_c, 0, 73, 100
2, 177818, Note_on_c, 0, 73, 0
2, 177837, Note_on_c, 0, 72, 100
2, 177853, Note_on_c, 0, 72, 0
2, 177890, Note_on_c, 0, 74, 106
2, 177922, Note_on_c, 0, 74, 0
2, 177924, Note_on_c, 0, 70, 88
2, 177940, Note_on_c, 0, 70, 0
2, 177977, Note_on_c, 0, 72, 108
2, 178000, Note_on_c, 0, 72, 0
2, 178029, Note_on_c, 0, 71, 98
2, 178044, Note_on_c, 0, 71, 0
2, 178079, Note_on_c, 0, 73, 94
2, 178110, Note_on_c, 0, 73, 0
2, 178126, Note_on_c, 0, 69, 101
2, 178138, Note_on_c, 0, 69, 0
2, 178181, Note_on_c, 0, 72, 88
2, 178199, Note_on_c, 0, 72, 0
2, 178234, Note_on_c, 0, 71, 82
2, 178249, Note_on_c, 0, 71, 0
2, 178283, Note_on_c, 0, 73, 88
2, 178317, Note_on_c, 0, 73, 0
2, 178335, Note_on_c, 0, 66, 103
2, 178357, Note_on_c, 0, 66, 0
2, 178390, Note_on_c, 0, 72, 92
2, 178406, Note_on_c, 0, 72, 0
2, 178443, Note_on_c, 0, 71, 94
2, 178463, Note_on_c, 0, 71, 0
2, 178491, Note_on_c, 0, 73, 101
2, 178530, Note_on_c, 0, 73, 0
2, 178549, Note_on_c, 0, 63, 105
2, 178581, Control_c, 0, 64, 0
2, 178601, Note_on_c, 0, 63, 0
2, 178601, Control_c, 0, 64, 127
2, 178606, Note_on_c, 0, 72, 98
2, 178641, Note_on_c, 0, 72, 0
2, 178689, Note_on_c, 0, 71, 85
2, 178729, Note_on_c, 0, 71, 0
2, 178740, Note_on_c, 0, 73, 80
2, 178782, Note_on_c, 0, 73, 0
2, 178805, Note_on_c, 0, 69, 97
2, 178821, Note_on_c, 0, 69, 0
2, 178863, Note_on_c, 0, 72, 80
2, 178881, Note_on_c, 0, 72, 0
2, 178916, Note_on_c, 0, 71, 84
2, 178938, Note_on_c, 0, 71, 0
2, 178972, Note_on_c, 0, 73, 90
2, 179009, Note_on_c, 0, 73, 0
2, 179034, Note_on_c, 0, 66, 95
2, 179053, Note_on_c, 0, 66, 0
2, 179095, Note_on_c, 0, 72, 93
2, 179132, Note_on_c, 0, 72, 0
2, 179153, Control_c, 0, 64, 0
2, 179154, Note_on_c, 0, 71, 84
2, 179189, Control_c, 0, 64, 127
2, 179203, Note_on_c, 0, 71, 0
2, 179233, Note_on_c, 0, 73, 87
2, 179282, Note_on_c, 0, 73, 0
2, 179314, Note_on_c, 0, 63, 87
2, 179335, Note_on_c, 0, 63, 0
2, 179432, Note_on_c, 0, 73, 86
2, 179531, Control_c, 0, 64, 0
2, 179604, Note_on_c, 0, 73, 0
2, 179628, Note_on_c, 0, 71, 69
2, 179631, Control_c, 0, 64, 127
2, 179702, Note_on_c, 0, 71, 0
2, 179727, Note_on_c, 0, 70, 61
2, 179767, Note_on_c, 0, 70, 0
2, 179796, Note_on_c, 0, 71, 90
2, 179844, Note_on_c, 0, 71, 0
2, 179852, Note_on_c, 0, 72, 88
2, 179896, Note_on_c, 0, 72, 0
2, 179902, Note_on_c, 0, 73, 94
2, 179936, Note_on_c, 0, 73, 0
2, 179951, Note_on_c, 0, 74, 95
2, 179972, Control_c, 0, 67, 127
2, 180001, Note_on_c, 0, 74, 0
2, 180010, Note_on_c, 0, 75, 102
2, 180051, Note_on_c, 0, 75, 0
2, 180066, Control_c, 0, 64, 0
2, 180068, Note_on_c, 0, 76, 99
2, 180111, Control_c, 0, 64, 127
2, 180139, Note_on_c, 0, 76, 0
2, 180146, Note_on_c, 0, 77, 93
2, 180225, Note_on_c, 0, 77, 0
2, 180258, Note_on_c, 0, 78, 73
2, 180371, Note_on_c, 0, 78, 0
2, 180406, Note_on_c, 0, 79, 67
2, 180431, Note_on_c, 0, 79, 0
2, 180473, Control_c, 0, 64, 0
2, 180506, Control_c, 0, 67, 0
2, 180677, Control_c, 0, 67, 127
2, 180683, Note_on_c, 0, 52, 50
2, 180729, Control_c, 0, 64, 127
2, 180740, Note_on_c, 0, 80, 60
2, 180781, Note_on_c, 0, 52, 0
2, 180851, Note_on_c, 0, 80, 0
2, 180853, Note_on_c, 0, 76, 68
2, 180904, Note_on_c, 0, 76, 0
2, 180935, Note_on_c, 0, 71, 70
2, 180984, Note_on_c, 0, 71, 0
2, 180992, Note_on_c, 0, 76, 69
2, 181022, Note_on_c, 0, 59, 66
2, 181031, Note_on_c, 0, 80, 66
2, 181035, Note_on_c, 0, 76, 0
2, 181061, Control_c, 0, 64, 0
2, 181068, Note_on_c, 0, 80, 0
2, 181073, Note_on_c, 0, 85, 68
2, 181079, Note_on_c, 0, 59, 0
2, 181079, Note_on_c, 0, 64, 68
2, 181088, Note_on_c, 0, 85, 0
2, 181097, Note_on_c, 0, 64, 0
2, 181103, Note_on_c, 0, 68, 70
2, 181116, Control_c, 0, 64, 127
2, 181120, Control_c, 0, 67, 0
2, 181131, Note_on_c, 0, 68, 0
2, 181134, Note_on_c, 0, 85, 70
2, 181154, Note_on_c, 0, 85, 0
2, 181172, Note_on_c, 0, 87, 79
2, 181190, Note_on_c, 0, 87, 0
2, 181212, Note_on_c, 0, 85, 70
2, 181234, Note_on_c, 0, 85, 0
2, 181251, Note_on_c, 0, 87, 68
2, 181264, Note_on_c, 0, 87, 0
2, 181265, Note_on_c, 0, 71, 68
2, 181275, Note_on_c, 0, 85, 68
2, 181290, Note_on_c, 0, 85, 0
2, 181296, Note_on_c, 0, 71, 0
2, 181305, Note_on_c, 0, 87, 68
2, 181342, Note_on_c, 0, 85, 66
2, 181346, Note_on_c, 0, 87, 0
2, 181379, Note_on_c, 0, 85, 0
2, 181396, Note_on_c, 0, 80, 64
2, 181400, Note_on_c, 0, 76, 69
2, 181409, Note_on_c, 0, 83, 70
2, 181412, Note_on_c, 0, 80, 0
2, 181415, Note_on_c, 0, 76, 0
2, 181448, Note_on_c, 0, 83, 0
2, 181460, Note_on_c, 0, 88, 66
2, 181461, Control_c, 0, 67, 127
2, 181493, Note_on_c, 0, 92, 68
2, 181498, Note_on_c, 0, 88, 0
2, 181525, Note_on_c, 0, 92, 0
2, 181551, Note_on_c, 0, 97, 70
2, 181593, Note_on_c, 0, 95, 75
2, 181610, Note_on_c, 0, 97, 0
2, 181637, Note_on_c, 0, 95, 0
2, 181644, Note_on_c, 0, 88, 83
2, 181663, Note_on_c, 0, 88, 0
2, 181867, Control_c, 0, 64, 0
2, 181890, Note_on_c, 0, 52, 64
2, 181893, Note_on_c, 0, 80, 64
2, 181917, Note_on_c, 0, 52, 0
2, 181922, Control_c, 0, 64, 127
2, 181955, Note_on_c, 0, 76, 64
2, 181961, Note_on_c, 0, 80, 0
2, 181994, Note_on_c, 0, 76, 0
2, 182016, Note_on_c, 0, 71, 64
2, 182054, Note_on_c, 0, 71, 0
2, 182057, Note_on_c, 0, 76, 64
2, 182093, Note_on_c, 0, 80, 64
2, 182098, Note_on_c, 0, 76, 0
2, 182102, Note_on_c, 0, 59, 64
2, 182134, Note_on_c, 0, 80, 0
2, 182137, Control_c, 0, 64, 0
2, 182139, Note_on_c, 0, 85, 64
2, 182144, Note_on_c, 0, 64, 64
2, 182155, Note_on_c, 0, 85, 0
2, 182160, Note_on_c, 0, 59, 0
2, 182161, Control_c, 0, 67, 0
2, 182172, Note_on_c, 0, 68, 64
2, 182180, Note_on_c, 0, 64, 0
2, 182187, Note_on_c, 0, 68, 0
2, 182189, Control_c, 0, 64, 127
2, 182200, Note_on_c, 0, 85, 64
2, 182225, Note_on_c, 0, 85, 0
2, 182235, Note_on_c, 0, 87, 64
2, 182258, Note_on_c, 0, 87, 0
2, 182277, Note_on_c, 0, 85, 68
2, 182293, Note_on_c, 0, 85, 0
2, 182308, Note_on_c, 0, 71, 68
2, 182310, Note_on_c, 0, 87, 68
2, 182324, Note_on_c, 0, 87, 0
2, 182335, Note_on_c, 0, 71, 0
2, 182336, Note_on_c, 0, 85, 68
2, 182355, Note_on_c, 0, 85, 0
2, 182371, Note_on_c, 0, 87, 58
2, 182404, Note_on_c, 0, 85, 74
2, 182413, Note_on_c, 0, 87, 0
2, 182431, Note_on_c, 0, 85, 0
2, 182436, Note_on_c, 0, 80, 74
2, 182439, Note_on_c, 0, 76, 68
2, 182451, Note_on_c, 0, 80, 0
2, 182454, Note_on_c, 0, 76, 0
2, 182459, Note_on_c, 0, 83, 75
2, 182494, Note_on_c, 0, 83, 0
2, 182500, Note_on_c, 0, 88, 75
2, 182536, Note_on_c, 0, 92, 74
2, 182543, Note_on_c, 0, 88, 0
2, 182568, Note_on_c, 0, 92, 0
2, 182590, Note_on_c, 0, 97, 81
2, 182639, Note_on_c, 0, 97, 0
2, 182639, Note_on_c, 0, 95, 77
2, 182676, Note_on_c, 0, 95, 0
2, 182680, Note_on_c, 0, 88, 81
2, 182699, Note_on_c, 0, 88, 0
2, 182878, Control_c, 0, 64, 0
2, 182914, Note_on_c, 0, 80, 78
2, 182916, Note_on_c, 0, 52, 63
2, 182935, Note_on_c, 0, 52, 0
2, 182936, Control_c, 0, 64, 127
2, 182982, Note_on_c, 0, 76, 75
2, 182990, Note_on_c, 0, 80, 0
2, 183015, Note_on_c, 0, 76, 0
2, 183046, Note_on_c, 0, 71, 72
2, 183085, Note_on_c, 0, 71, 0
2, 183091, Note_on_c, 0, 76, 70
2, 183130, Note_on_c, 0, 80, 68
2, 183131, Note_on_c, 0, 76, 0
2, 183146, Note_on_c, 0, 59, 68
2, 183163, Control_c, 0, 64, 0
2, 183166, Note_on_c, 0, 80, 0
2, 183176, Note_on_c, 0, 64, 68
2, 183182, Note_on_c, 0, 85, 68
2, 183191, Note_on_c, 0, 59, 0
2, 183205, Note_on_c, 0, 64, 0
2, 183205, Note_on_c, 0, 68, 68
2, 183219, Note_on_c, 0, 68, 0
2, 183221, Control_c, 0, 64, 127
2, 183226, Note_on_c, 0, 83, 66
2, 183233, Note_on_c, 0, 85, 0
2, 183279, Note_on_c, 0, 80, 62
2, 183280, Note_on_c, 0, 83, 0
2, 183308, Note_on_c, 0, 80, 0
2, 183328, Note_on_c, 0, 76, 70
2, 183351, Note_on_c, 0, 71, 70
2, 183365, Note_on_c, 0, 80, 64
2, 183369, Note_on_c, 0, 76, 0
2, 183410, Note_on_c, 0, 80, 0
2, 183410, Note_on_c, 0, 83, 66
2, 183423, Note_on_c, 0, 83, 0
2, 183423, Note_on_c, 0, 71, 0
2, 183435, Note_on_c, 0, 76, 66
2, 183455, Note_on_c, 0, 90, 66
2, 183464, Note_on_c, 0, 80, 70
2, 183473, Note_on_c, 0, 76, 0
2, 183482, Note_on_c, 0, 80, 0
2, 183490, Note_on_c, 0, 88, 68
2, 183498, Note_on_c, 0, 90, 0
2, 183540, Note_on_c, 0, 83, 66
2, 183545, Note_on_c, 0, 88, 0
2, 183570, Note_on_c, 0, 83, 0
2, 183592, Note_on_c, 0, 80, 66
2, 183618, Note_on_c, 0, 80, 0
2, 183622, Note_on_c, 0, 83, 70
2, 183664, Note_on_c, 0, 88, 68
2, 183665, Note_on_c, 0, 83, 0
2, 183705, Note_on_c, 0, 88, 0
2, 183718, Note_on_c, 0, 93, 70
2, 183760, Note_on_c, 0, 93, 0
2, 183768, Control_c, 0, 64, 0
2, 183785, Note_on_c, 0, 92, 70
2, 183801, Note_on_c, 0, 92, 0
2, 183807, Control_c, 0, 67, 127
2, 183812, Note_on_c, 0, 60, 77
2, 183824, Control_c, 0, 64, 127
2, 183824, Note_on_c, 0, 93, 70
2, 183833, Note_on_c, 0, 60, 0
2, 183839, Note_on_c, 0, 93, 0
2, 183865, Note_on_c, 0, 92, 74
2, 183866, Control_c, 0, 67, 0
2, 183878, Note_on_c, 0, 92, 0
2, 183912, Note_on_c, 0, 93, 75
2, 183928, Note_on_c, 0, 63, 75
2, 183932, Note_on_c, 0, 92, 75
2, 183936, Note_on_c, 0, 93, 0
2, 183945, Note_on_c, 0, 63, 0
2, 183947, Note_on_c, 0, 92, 0
2, 183969, Note_on_c, 0, 93, 74
2, 183985, Note_on_c, 0, 93, 0
2, 183994, Note_on_c, 0, 92, 74
2, 184013, Note_on_c, 0, 92, 0
2, 184020, Note_on_c, 0, 68, 74
2, 184028, Note_on_c, 0, 93, 68
2, 184038, Note_on_c, 0, 68, 0
2, 184045, Note_on_c, 0, 93, 0
2, 184064, Note_on_c, 0, 92, 74
2, 184081, Note_on_c, 0, 92, 0
2, 184104, Note_on_c, 0, 93, 75
2, 184110, Note_on_c, 0, 72, 75
2, 184119, Note_on_c, 0, 93, 0
2, 184126, Note_on_c, 0, 72, 0
2, 184131, Note_on_c, 0, 92, 66
2, 184146, Note_on_c, 0, 92, 0
2, 184167, Note_on_c, 0, 93, 66
2, 184184, Note_on_c, 0, 93, 0
2, 184203, Note_on_c, 0, 92, 66
2, 184212, Note_on_c, 0, 75, 78
2, 184218, Note_on_c, 0, 92, 0
2, 184226, Note_on_c, 0, 75, 0
2, 184233, Note_on_c, 0, 93, 70
2, 184250, Note_on_c, 0, 93, 0
2, 184268, Note_on_c, 0, 92, 70
2, 184284, Note_on_c, 0, 92, 0
2, 184295, Note_on_c, 0, 80, 80
2, 184299, Note_on_c, 0, 93, 76
2, 184309, Note_on_c, 0, 80, 0
2, 184317, Note_on_c, 0, 93, 0
2, 184340, Note_on_c, 0, 92, 75
2, 184357, Note_on_c, 0, 87, 75
2, 184372, Note_on_c, 0, 87, 0
2, 184391, Note_on_c, 0, 92, 0
2, 184426, Note_on_c, 0, 91, 89
2, 184461, Note_on_c, 0, 91, 0
2, 184469, Note_on_c, 0, 92, 102
2, 184501, Note_on_c, 0, 92, 0
2, 184529, Note_on_c, 0, 93, 94
2, 184569, Note_on_c, 0, 96, 101
2, 184573, Note_on_c, 0, 93, 0
2, 184613, Note_on_c, 0, 99, 90
2, 184626, Note_on_c, 0, 96, 0
2, 184649, Note_on_c, 0, 99, 0
2, 184661, Note_on_c, 0, 102, 87
2, 184677, Control_c, 0, 64, 0
2, 184684, Note_on_c, 0, 102, 0
2, 184696, Note_on_c, 0, 100, 87
2, 184714, Note_on_c, 0, 100, 0
2, 184716, Note_on_c, 0, 80, 71
2, 184719, Note_on_c, 0, 76, 47
2, 184732, Note_on_c, 0, 102, 83
2, 184734, Note_on_c, 0, 73, 83
2, 184737, Note_on_c, 0, 76, 0
2, 184742, Control_c, 0, 64, 127
2, 184750, Note_on_c, 0, 80, 0
2, 184780, Note_on_c, 0, 102, 0
2, 184787, Note_on_c, 0, 100, 83
2, 184827, Note_on_c, 0, 99, 83
2, 184831, Note_on_c, 0, 100, 0
2, 184857, Note_on_c, 0, 99, 0
2, 184861, Note_on_c, 0, 82, 83
2, 184872, Note_on_c, 0, 98, 77
2, 184895, Control_c, 0, 67, 127
2, 184899, Note_on_c, 0, 98, 0
2, 184909, Note_on_c, 0, 100, 86
2, 184928, Note_on_c, 0, 82, 0
2, 184955, Note_on_c, 0, 100, 0
2, 184955, Note_on_c, 0, 98, 83
2, 184987, Note_on_c, 0, 73, 0
2, 184987, Note_on_c, 0, 97, 83
2, 184991, Note_on_c, 0, 98, 0
2, 185004, Control_c, 0, 64, 0
2, 185009, Note_on_c, 0, 97, 0
2, 185021, Note_on_c, 0, 78, 83
2, 185026, Note_on_c, 0, 75, 70
2, 185028, Note_on_c, 0, 95, 92
2, 185029, Note_on_c, 0, 83, 83
2, 185049, Control_c, 0, 64, 127
2, 185065, Note_on_c, 0, 95, 0
2, 185074, Note_on_c, 0, 97, 89
2, 185088, Note_on_c, 0, 97, 0
2, 185108, Note_on_c, 0, 95, 83
2, 185141, Note_on_c, 0, 95, 0
2, 185147, Note_on_c, 0, 97, 85
2, 185170, Note_on_c, 0, 97, 0
2, 185187, Note_on_c, 0, 95, 84
2, 185195, Note_on_c, 0, 83, 0
2, 185197, Note_on_c, 0, 78, 0
2, 185209, Note_on_c, 0, 75, 0
2, 185224, Note_on_c, 0, 97, 85
2, 185225, Note_on_c, 0, 95, 0
2, 185275, Note_on_c, 0, 95, 85
2, 185305, Note_on_c, 0, 97, 0
2, 185319, Note_on_c, 0, 94, 92
2, 185332, Note_on_c, 0, 95, 0
2, 185350, Note_on_c, 0, 94, 0
2, 185356, Note_on_c, 0, 93, 85
2, 185372, Note_on_c, 0, 93, 0
2, 185401, Note_on_c, 0, 95, 91
2, 185445, Note_on_c, 0, 93, 83
2, 185466, Note_on_c, 0, 95, 0
2, 185478, Note_on_c, 0, 92, 97
2, 185484, Note_on_c, 0, 93, 0
2, 185513, Note_on_c, 0, 92, 0
2, 185520, Note_on_c, 0, 91, 81
2, 185536, Note_on_c, 0, 91, 0
2, 185559, Note_on_c, 0, 93, 79
2, 185612, Note_on_c, 0, 93, 0
2, 185614, Note_on_c, 0, 91, 79
2, 185626, Control_c, 0, 64, 0
2, 185635, Note_on_c, 0, 90, 79
2, 185643, Note_on_c, 0, 91, 0
2, 185666, Note_on_c, 0, 68, 68
2, 185670, Note_on_c, 0, 90, 0
2, 185670, Note_on_c, 0, 61, 61
2, 185678, Note_on_c, 0, 88, 81
2, 185683, Control_c, 0, 64, 127
2, 185698, Note_on_c, 0, 68, 0
2, 185709, Note_on_c, 0, 90, 74
2, 185715, Note_on_c, 0, 88, 0
2, 185755, Note_on_c, 0, 88, 81
2, 185801, Note_on_c, 0, 90, 0
2, 185805, Note_on_c, 0, 87, 81
2, 185807, Note_on_c, 0, 88, 0
2, 185830, Note_on_c, 0, 70, 74
2, 185838, Note_on_c, 0, 87, 0
2, 185847, Note_on_c, 0, 86, 75
2, 185879, Note_on_c, 0, 61, 0
2, 185881, Note_on_c, 0, 86, 0
2, 185887, Note_on_c, 0, 88, 77
2, 185898, Note_on_c, 0, 70, 0
2, 185928, Note_on_c, 0, 86, 75
2, 185931, Note_on_c, 0, 88, 0
2, 185960, Note_on_c, 0, 85, 77
2, 185973, Note_on_c, 0, 86, 0
2, 185985, Control_c, 0, 64, 0
2, 185992, Note_on_c, 0, 85, 0
2, 186001, Note_on_c, 0, 63, 68
2, 186002, Note_on_c, 0, 66, 68
2, 186004, Note_on_c, 0, 71, 68
2, 186004, Control_c, 0, 67, 0
2, 186013, Note_on_c, 0, 83, 70
2, 186041, Control_c, 0, 64, 127
2, 186044, Note_on_c, 0, 83, 0
2, 186052, Note_on_c, 0, 85, 77
2, 186071, Note_on_c, 0, 85, 0
2, 186093, Note_on_c, 0, 83, 79
2, 186114, Note_on_c, 0, 83, 0
2, 186131, Note_on_c, 0, 85, 77
2, 186153, Note_on_c, 0, 85, 0
2, 186176, Note_on_c, 0, 83, 85
2, 186198, Note_on_c, 0, 83, 0
2, 186205, Note_on_c, 0, 85, 77
2, 186259, Note_on_c, 0, 83, 77
2, 186289, Note_on_c, 0, 85, 0
2, 186303, Note_on_c, 0, 82, 75
2, 186308, Note_on_c, 0, 83, 0
2, 186334, Note_on_c, 0, 63, 0
2, 186337, Note_on_c, 0, 66, 0
2, 186343, Note_on_c, 0, 82, 0
2, 186344, Note_on_c, 0, 71, 0
2, 186348, Note_on_c, 0, 81, 75
2, 186376, Note_on_c, 0, 81, 0
2, 186394, Note_on_c, 0, 83, 75
2, 186438, Note_on_c, 0, 81, 83
2, 186454, Note_on_c, 0, 83, 0
2, 186478, Note_on_c, 0, 80, 79
2, 186481, Note_on_c, 0, 81, 0
2, 186518, Note_on_c, 0, 80, 0
2, 186526, Note_on_c, 0, 79, 81
2, 186541, Note_on_c, 0, 79, 0
2, 186559, Note_on_c, 0, 81, 79
2, 186612, Note_on_c, 0, 79, 79
2, 186614, Note_on_c, 0, 81, 0
2, 186645, Note_on_c, 0, 68, 79
2, 186651, Note_on_c, 0, 78, 87
2, 186654, Note_on_c, 0, 79, 0
2, 186655, Control_c, 0, 64, 0
2, 186679, Note_on_c, 0, 71, 77
2, 186684, Note_on_c, 0, 78, 0
2, 186704, Note_on_c, 0, 77, 81
2, 186717, Note_on_c, 0, 74, 79
2, 186731, Note_on_c, 0, 77, 0
2, 186749, Note_on_c, 0, 78, 77
2, 186751, Control_c, 0, 64, 127
2, 186783, Note_on_c, 0, 78, 0
2, 186804, Note_on_c, 0, 77, 79
2, 186826, Note_on_c, 0, 71, 0
2, 186836, Note_on_c, 0, 74, 0
2, 186836, Note_on_c, 0, 68, 0
2, 186841, Note_on_c, 0, 76, 83
2, 186842, Note_on_c, 0, 77, 0
2, 186858, Note_on_c, 0, 76, 0
2, 186895, Note_on_c, 0, 77, 85
2, 186931, Note_on_c, 0, 77, 0
2, 186939, Note_on_c, 0, 86, 89
2, 186969, Note_on_c, 0, 85, 89
2, 186985, Note_on_c, 0, 86, 0
2, 186997, Note_on_c, 0, 66, 87
2, 187021, Note_on_c, 0, 83, 80
2, 187028, Note_on_c, 0, 85, 0
2, 187028, Control_c, 0, 64, 0
2, 187028, Note_on_c, 0, 73, 87
2, 187043, Control_c, 0, 67, 127
2, 187050, Note_on_c, 0, 83, 0
2, 187063, Note_on_c, 0, 78, 85
2, 187069, Note_on_c, 0, 81, 85
2, 187105, Note_on_c, 0, 81, 0
2, 187105, Control_c, 0, 64, 127
2, 187127, Note_on_c, 0, 83, 87
2, 187149, Note_on_c, 0, 66, 0
2, 187156, Note_on_c, 0, 83, 0
2, 187165, Note_on_c, 0, 81, 87
2, 187182, Note_on_c, 0, 73, 0
2, 187195, Note_on_c, 0, 81, 0
2, 187196, Note_on_c, 0, 78, 0
2, 187211, Note_on_c, 0, 80, 85
2, 187241, Note_on_c, 0, 80, 0
2, 187258, Note_on_c, 0, 81, 87
2, 187291, Note_on_c, 0, 81, 0
2, 187309, Note_on_c, 0, 93, 87
2, 187349, Note_on_c, 0, 92, 87
2, 187373, Note_on_c, 0, 93, 0
2, 187379, Control_c, 0, 67, 0
2, 187380, Note_on_c, 0, 72, 85
2, 187383, Control_c, 0, 67, 127
2, 187390, Note_on_c, 0, 76, 85
2, 187392, Note_on_c, 0, 90, 83
2, 187400, Control_c, 0, 64, 0
2, 187408, Note_on_c, 0, 92, 0
2, 187413, Control_c, 0, 67, 0
2, 187427, Note_on_c, 0, 79, 83
2, 187438, Note_on_c, 0, 88, 85
2, 187442, Note_on_c, 0, 90, 0
2, 187452, Note_on_c, 0, 82, 85
2, 187458, Control_c, 0, 64, 127
2, 187494, Note_on_c, 0, 88, 0
2, 187498, Note_on_c, 0, 87, 76
2, 187528, Note_on_c, 0, 89, 87
2, 187529, Note_on_c, 0, 87, 0
2, 187558, Note_on_c, 0, 89, 0
2, 187570, Note_on_c, 0, 88, 91
2, 187574, Note_on_c, 0, 72, 0
2, 187602, Note_on_c, 0, 88, 0
2, 187613, Note_on_c, 0, 76, 0
2, 187615, Note_on_c, 0, 82, 0
2, 187619, Note_on_c, 0, 90, 85
2, 187632, Note_on_c, 0, 79, 0
2, 187646, Note_on_c, 0, 90, 0
2, 187661, Note_on_c, 0, 89, 93
2, 187696, Note_on_c, 0, 89, 0
2, 187697, Note_on_c, 0, 91, 82
2, 187725, Note_on_c, 0, 91, 0
2, 187736, Note_on_c, 0, 71, 79
2, 187738, Note_on_c, 0, 90, 85
2, 187762, Note_on_c, 0, 75, 93
2, 187767, Control_c, 0, 64, 0
2, 187775, Note_on_c, 0, 90, 0
2, 187780, Note_on_c, 0, 92, 97
2, 187796, Note_on_c, 0, 83, 74
2, 187800, Note_on_c, 0, 81, 58
2, 187813, Control_c, 0, 64, 127
2, 187816, Note_on_c, 0, 90, 93
2, 187827, Note_on_c, 0, 92, 0
2, 187854, Note_on_c, 0, 90, 0
2, 187857, Note_on_c, 0, 93, 91
2, 187876, Note_on_c, 0, 93, 0
2, 187902, Note_on_c, 0, 92, 91
2, 187943, Note_on_c, 0, 92, 0
2, 187950, Note_on_c, 0, 95, 82
2, 187975, Note_on_c, 0, 95, 0
2, 187996, Note_on_c, 0, 93, 91
2, 188027, Note_on_c, 0, 93, 0
2, 188045, Note_on_c, 0, 97, 91
2, 188049, Control_c, 0, 67, 127
2, 188074, Control_c, 0, 64, 0
2, 188082, Note_on_c, 0, 97, 0
2, 188092, Note_on_c, 0, 95, 93
2, 188111, Note_on_c, 0, 95, 0
2, 188130, Control_c, 0, 64, 127
2, 188137, Note_on_c, 0, 99, 92
2, 188145, Note_on_c, 0, 71, 0
2, 188152, Note_on_c, 0, 83, 0
2, 188155, Note_on_c, 0, 81, 0
2, 188160, Note_on_c, 0, 75, 0
2, 188174, Note_on_c, 0, 97, 91
2, 188203, Note_on_c, 0, 99, 0
2, 188212, Note_on_c, 0, 95, 92
2, 188221, Note_on_c, 0, 97, 0
2, 188231, Note_on_c, 0, 95, 0
2, 188252, Note_on_c, 0, 93, 86
2, 188268, Note_on_c, 0, 93, 0
2, 188287, Note_on_c, 0, 92, 89
2, 188327, Note_on_c, 0, 90, 83
2, 188334, Note_on_c, 0, 92, 0
2, 188346, Note_on_c, 0, 90, 0
2, 188365, Note_on_c, 0, 88, 85
2, 188383, Note_on_c, 0, 88, 0
2, 188404, Note_on_c, 0, 87, 87
2, 188438, Note_on_c, 0, 85, 88
2, 188460, Note_on_c, 0, 87, 0
2, 188476, Note_on_c, 0, 83, 83
2, 188489, Note_on_c, 0, 85, 0
2, 188491, Note_on_c, 0, 83, 0
2, 188517, Note_on_c, 0, 81, 81
2, 188548, Note_on_c, 0, 81, 0
2, 188554, Note_on_c, 0, 80, 79
2, 188598, Note_on_c, 0, 78, 79
2, 188614, Note_on_c, 0, 80, 0
2, 188626, Note_on_c, 0, 78, 0
2, 188650, Note_on_c, 0, 76, 75
2, 188671, Note_on_c, 0, 76, 0
2, 188691, Note_on_c, 0, 75, 70
2, 188767, Note_on_c, 0, 73, 70
2, 188776, Note_on_c, 0, 75, 0
2, 188828, Note_on_c, 0, 73, 0
2, 188838, Note_on_c, 0, 70, 66
2, 188901, Note_on_c, 0, 70, 0
2, 188930, Note_on_c, 0, 71, 75
2, 188949, Note_on_c, 0, 71, 0
2, 189000, Control_c, 0, 67, 0
2, 189097, Note_on_c, 0, 52, 60
2, 189106, Control_c, 0, 64, 0
2, 189156, Note_on_c, 0, 80, 64
2, 189156, Control_c, 0, 67, 127
2, 189164, Control_c, 0, 64, 127
2, 189208, Note_on_c, 0, 52, 0
2, 189223, Note_on_c, 0, 76, 70
2, 189230, Note_on_c, 0, 80, 0
2, 189264, Note_on_c, 0, 76, 0
2, 189289, Note_on_c, 0, 71, 68
2, 189291, Control_c, 0, 67, 0
2, 189325, Note_on_c, 0, 71, 0
2, 189333, Note_on_c, 0, 76, 75
2, 189369, Note_on_c, 0, 80, 68
2, 189375, Note_on_c, 0, 76, 0
2, 189403, Note_on_c, 0, 59, 66
2, 189411, Note_on_c, 0, 80, 0
2, 189421, Note_on_c, 0, 85, 68
2, 189428, Control_c, 0, 64, 0
2, 189440, Note_on_c, 0, 85, 0
2, 189450, Note_on_c, 0, 64, 79
2, 189459, Note_on_c, 0, 59, 0
2, 189467, Note_on_c, 0, 64, 0
2, 189478, Note_on_c, 0, 68, 70
2, 189486, Note_on_c, 0, 85, 73
2, 189495, Control_c, 0, 64, 127
2, 189503, Note_on_c, 0, 68, 0
2, 189512, Note_on_c, 0, 85, 0
2, 189519, Note_on_c, 0, 87, 72
2, 189535, Note_on_c, 0, 87, 0
2, 189555, Note_on_c, 0, 85, 78
2, 189584, Note_on_c, 0, 85, 0
2, 189605, Note_on_c, 0, 87, 70
2, 189618, Note_on_c, 0, 85, 70
2, 189619, Note_on_c, 0, 87, 0
2, 189619, Note_on_c, 0, 71, 74
2, 189641, Note_on_c, 0, 71, 0
2, 189641, Note_on_c, 0, 85, 0
2, 189656, Note_on_c, 0, 87, 74
2, 189692, Note_on_c, 0, 85, 74
2, 189714, Note_on_c, 0, 87, 0
2, 189729, Note_on_c, 0, 85, 0
2, 189746, Note_on_c, 0, 80, 77
2, 189750, Note_on_c, 0, 76, 77
2, 189761, Note_on_c, 0, 80, 0
2, 189761, Note_on_c, 0, 83, 77
2, 189764, Note_on_c, 0, 76, 0
2, 189793, Control_c, 0, 67, 127
2, 189796, Note_on_c, 0, 83, 0
2, 189797, Note_on_c, 0, 88, 85
2, 189831, Note_on_c, 0, 92, 83
2, 189844, Note_on_c, 0, 88, 0
2, 189864, Note_on_c, 0, 92, 0
2, 189871, Control_c, 0, 67, 0
2, 189891, Note_on_c, 0, 97, 90
2, 189929, Note_on_c, 0, 95, 87
2, 189934, Note_on_c, 0, 97, 0
2, 189976, Note_on_c, 0, 95, 0
2, 189979, Note_on_c, 0, 88, 89
2, 190002, Note_on_c, 0, 88, 0
2, 190164, Control_c, 0, 67, 127
2, 190188, Control_c, 0, 64, 0
2, 190196, Control_c, 0, 67, 0
2, 190217, Control_c, 0, 67, 127
2, 190231, Note_on_c, 0, 80, 68
2, 190231, Control_c, 0, 64, 127
2, 190240, Note_on_c, 0, 52, 79
2, 190269, Note_on_c, 0, 52, 0
2, 190295, Note_on_c, 0, 76, 70
2, 190298, Note_on_c, 0, 80, 0
2, 190332, Note_on_c, 0, 76, 0
2, 190361, Note_on_c, 0, 71, 74
2, 190388, Note_on_c, 0, 71, 0
2, 190402, Note_on_c, 0, 76, 74
2, 190443, Note_on_c, 0, 80, 75
2, 190444, Note_on_c, 0, 76, 0
2, 190462, Note_on_c, 0, 59, 77
2, 190473, Control_c, 0, 67, 0
2, 190477, Note_on_c, 0, 80, 0
2, 190479, Control_c, 0, 64, 0
2, 190488, Note_on_c, 0, 85, 77
2, 190496, Note_on_c, 0, 64, 77
2, 190509, Note_on_c, 0, 59, 0
2, 190515, Note_on_c, 0, 85, 0
2, 190519, Note_on_c, 0, 64, 0
2, 190529, Note_on_c, 0, 68, 83
2, 190530, Control_c, 0, 64, 127
2, 190544, Note_on_c, 0, 68, 0
2, 190546, Note_on_c, 0, 85, 79
2, 190579, Note_on_c, 0, 85, 0
2, 190589, Note_on_c, 0, 87, 81
2, 190605, Note_on_c, 0, 87, 0
2, 190622, Note_on_c, 0, 85, 79
2, 190641, Note_on_c, 0, 85, 0
2, 190648, Note_on_c, 0, 87, 64
2, 190658, Note_on_c, 0, 71, 75
2, 190675, Note_on_c, 0, 87, 0
2, 190682, Note_on_c, 0, 85, 81
2, 190698, Note_on_c, 0, 71, 0
2, 190714, Note_on_c, 0, 85, 0
2, 190717, Note_on_c, 0, 87, 81
2, 190754, Note_on_c, 0, 85, 75
2, 190759, Note_on_c, 0, 76, 75
2, 190771, Note_on_c, 0, 87, 0
2, 190772, Note_on_c, 0, 85, 0
2, 190772, Note_on_c, 0, 80, 75
2, 190776, Note_on_c, 0, 76, 0
2, 190791, Note_on_c, 0, 80, 0
2, 190805, Note_on_c, 0, 83, 74
2, 190838, Note_on_c, 0, 83, 0
2, 190844, Note_on_c, 0, 88, 91
2, 190880, Note_on_c, 0, 92, 91
2, 190896, Note_on_c, 0, 88, 0
2, 190913, Note_on_c, 0, 92, 0
2, 190935, Note_on_c, 0, 97, 85
2, 190974, Note_on_c, 0, 97, 0
2, 190987, Note_on_c, 0, 95, 84
2, 191030, Note_on_c, 0, 88, 89
2, 191033, Note_on_c, 0, 95, 0
2, 191063, Note_on_c, 0, 88, 0
2, 191229, Control_c, 0, 64, 0
2, 191268, Control_c, 0, 67, 127
2, 191287, Note_on_c, 0, 80, 70
2, 191296, Note_on_c, 0, 52, 70
2, 191303, Control_c, 0, 64, 127
2, 191340, Note_on_c, 0, 52, 0
2, 191342, Note_on_c, 0, 76, 70
2, 191351, Note_on_c, 0, 80, 0
2, 191384, Note_on_c, 0, 76, 0
2, 191407, Note_on_c, 0, 71, 74
2, 191444, Note_on_c, 0, 76, 75
2, 191446, Note_on_c, 0, 71, 0
2, 191484, Note_on_c, 0, 80, 78
2, 191488, Note_on_c, 0, 76, 0
2, 191515, Note_on_c, 0, 59, 77
2, 191524, Control_c, 0, 67, 0
2, 191525, Note_on_c, 0, 80, 0
2, 191535, Note_on_c, 0, 85, 91
2, 191539, Control_c, 0, 64, 0
2, 191547, Note_on_c, 0, 64, 77
2, 191560, Note_on_c, 0, 59, 0
2, 191579, Note_on_c, 0, 64, 0
2, 191580, Note_on_c, 0, 83, 82
2, 191582, Note_on_c, 0, 68, 67
2, 191590, Note_on_c, 0, 85, 0
2, 191597, Note_on_c, 0, 68, 0
2, 191600, Control_c, 0, 64, 127
2, 191632, Note_on_c, 0, 80, 75
2, 191633, Note_on_c, 0, 83, 0
2, 191665, Note_on_c, 0, 80, 0
2, 191675, Note_on_c, 0, 76, 78
2, 191718, Note_on_c, 0, 80, 75
2, 191724, Note_on_c, 0, 76, 0
2, 191735, Note_on_c, 0, 71, 75
2, 191746, Note_on_c, 0, 83, 75
2, 191765, Note_on_c, 0, 80, 0
2, 191779, Note_on_c, 0, 83, 0
2, 191788, Note_on_c, 0, 71, 0
2, 191792, Note_on_c, 0, 76, 75
2, 191811, Note_on_c, 0, 90, 73
2, 191826, Note_on_c, 0, 80, 77
2, 191831, Note_on_c, 0, 76, 0
2, 191843, Note_on_c, 0, 80, 0
2, 191844, Note_on_c, 0, 88, 79
2, 191855, Note_on_c, 0, 90, 0
2, 191890, Note_on_c, 0, 83, 79
2, 191898, Note_on_c, 0, 88, 0
2, 191924, Note_on_c, 0, 83, 0
2, 191942, Note_on_c, 0, 80, 77
2, 191970, Note_on_c, 0, 80, 0
2, 191976, Note_on_c, 0, 83, 75
2, 192013, Note_on_c, 0, 88, 85
2, 192015, Note_on_c, 0, 83, 0
2, 192052, Note_on_c, 0, 88, 0
2, 192062, Note_on_c, 0, 93, 75
2, 192084, Control_c, 0, 64, 0
2, 192100, Note_on_c, 0, 93, 0
2, 192120, Note_on_c, 0, 92, 75
2, 192120, Control_c, 0, 67, 127
2, 192121, Note_on_c, 0, 60, 75
2, 192134, Control_c, 0, 64, 127
2, 192138, Note_on_c, 0, 92, 0
2, 192153, Note_on_c, 0, 60, 0
2, 192168, Note_on_c, 0, 93, 73
2, 192184, Note_on_c, 0, 93, 0
2, 192200, Note_on_c, 0, 92, 74
2, 192204, Control_c, 0, 67, 0
2, 192214, Note_on_c, 0, 92, 0
2, 192233, Note_on_c, 0, 93, 76
2, 192238, Note_on_c, 0, 63, 87
2, 192248, Note_on_c, 0, 93, 0
2, 192251, Note_on_c, 0, 63, 0
2, 192270, Note_on_c, 0, 92, 77
2, 192285, Note_on_c, 0, 92, 0
2, 192293, Note_on_c, 0, 93, 75
2, 192312, Note_on_c, 0, 93, 0
2, 192329, Note_on_c, 0, 92, 79
2, 192344, Note_on_c, 0, 68, 71
2, 192351, Note_on_c, 0, 92, 0
2, 192359, Note_on_c, 0, 68, 0
2, 192369, Note_on_c, 0, 93, 77
2, 192383, Note_on_c, 0, 93, 0
2, 192407, Note_on_c, 0, 92, 73
2, 192422, Note_on_c, 0, 92, 0
2, 192434, Note_on_c, 0, 72, 76
2, 192439, Note_on_c, 0, 93, 81
2, 192450, Note_on_c, 0, 72, 0
2, 192454, Note_on_c, 0, 93, 0
2, 192472, Note_on_c, 0, 92, 75
2, 192493, Note_on_c, 0, 92, 0
2, 192510, Note_on_c, 0, 93, 77
2, 192526, Note_on_c, 0, 93, 0
2, 192526, Note_on_c, 0, 75, 81
2, 192542, Note_on_c, 0, 75, 0
2, 192552, Note_on_c, 0, 92, 81
2, 192571, Note_on_c, 0, 93, 81
2, 192576, Note_on_c, 0, 92, 0
2, 192590, Note_on_c, 0, 93, 0
2, 192609, Note_on_c, 0, 80, 90
2, 192618, Note_on_c, 0, 92, 81
2, 192625, Note_on_c, 0, 80, 0
2, 192647, Note_on_c, 0, 92, 0
2, 192673, Note_on_c, 0, 93, 71
2, 192681, Note_on_c, 0, 87, 89
2, 192706, Note_on_c, 0, 87, 0
2, 192710, Note_on_c, 0, 92, 81
2, 192712, Note_on_c, 0, 93, 0
2, 192745, Note_on_c, 0, 92, 0
2, 192763, Note_on_c, 0, 91, 81
2, 192785, Note_on_c, 0, 91, 0
2, 192802, Note_on_c, 0, 92, 81
2, 192833, Note_on_c, 0, 92, 0
2, 192860, Note_on_c, 0, 93, 87
2, 192905, Note_on_c, 0, 96, 89
2, 192908, Note_on_c, 0, 93, 0
2, 192956, Note_on_c, 0, 99, 81
2, 192969, Note_on_c, 0, 96, 0
2, 192990, Note_on_c, 0, 99, 0
2, 193004, Note_on_c, 0, 102, 89
2, 193028, Control_c, 0, 64, 0
2, 193037, Note_on_c, 0, 102, 0
2, 193048, Note_on_c, 0, 100, 85
2, 193059, Note_on_c, 0, 80, 72
2, 193064, Note_on_c, 0, 76, 44
2, 193065, Note_on_c, 0, 100, 0
2, 193070, Note_on_c, 0, 73, 73
2, 193073, Note_on_c, 0, 102, 87
2, 193079, Control_c, 0, 64, 127
2, 193085, Note_on_c, 0, 76, 0
2, 193098, Note_on_c, 0, 80, 0
2, 193124, Note_on_c, 0, 100, 89
2, 193135, Note_on_c, 0, 102, 0
2, 193173, Note_on_c, 0, 99, 85
2, 193178, Note_on_c, 0, 100, 0
2, 193209, Note_on_c, 0, 99, 0
2, 193219, Note_on_c, 0, 82, 87
2, 193227, Note_on_c, 0, 98, 63
2, 193243, Note_on_c, 0, 98, 0
2, 193255, Note_on_c, 0, 100, 89
2, 193287, Note_on_c, 0, 98, 71
2, 193292, Note_on_c, 0, 82, 0
2, 193302, Note_on_c, 0, 100, 0
2, 193331, Note_on_c, 0, 97, 85
2, 193335, Note_on_c, 0, 98, 0
2, 193336, Note_on_c, 0, 73, 0
2, 193353, Control_c, 0, 67, 127
2, 193355, Note_on_c, 0, 97, 0
2, 193355, Control_c, 0, 64, 0
2, 193372, Note_on_c, 0, 95, 94
2, 193377, Note_on_c, 0, 75, 66
2, 193378, Note_on_c, 0, 78, 57
2, 193379, Note_on_c, 0, 83, 87
2, 193400, Control_c, 0, 64, 127
2, 193410, Note_on_c, 0, 95, 0
2, 193419, Note_on_c, 0, 97, 100
2, 193436, Note_on_c, 0, 97, 0
2, 193455, Note_on_c, 0, 95, 89
2, 193485, Note_on_c, 0, 95, 0
2, 193500, Note_on_c, 0, 97, 90
2, 193514, Note_on_c, 0, 97, 0
2, 193534, Note_on_c, 0, 95, 89
2, 193538, Control_c, 0, 67, 0
2, 193569, Note_on_c, 0, 97, 83
2, 193572, Note_on_c, 0, 95, 0
2, 193609, Note_on_c, 0, 83, 0
2, 193615, Note_on_c, 0, 95, 79
2, 193627, Note_on_c, 0, 78, 0
2, 193655, Note_on_c, 0, 75, 0
2, 193659, Note_on_c, 0, 97, 0
2, 193661, Note_on_c, 0, 94, 79
2, 193667, Note_on_c, 0, 95, 0
2, 193694, Note_on_c, 0, 94, 0
2, 193696, Note_on_c, 0, 93, 83
2, 193714, Note_on_c, 0, 93, 0
2, 193741, Note_on_c, 0, 95, 83
2, 193788, Note_on_c, 0, 93, 81
2, 193825, Note_on_c, 0, 95, 0
2, 193828, Note_on_c, 0, 92, 85
2, 193831, Note_on_c, 0, 93, 0
2, 193853, Note_on_c, 0, 92, 0
2, 193854, Note_on_c, 0, 91, 87
2, 193887, Note_on_c, 0, 91, 0
2, 193897, Note_on_c, 0, 93, 85
2, 193938, Note_on_c, 0, 91, 83
2, 193955, Note_on_c, 0, 93, 0
2, 193970, Note_on_c, 0, 90, 81
2, 193972, Control_c, 0, 64, 0
2, 193979, Note_on_c, 0, 91, 0
2, 193997, Note_on_c, 0, 90, 0
2, 194007, Note_on_c, 0, 61, 69
2, 194007, Note_on_c, 0, 88, 75
2, 194008, Note_on_c, 0, 68, 81
2, 194022, Control_c, 0, 64, 127
2, 194038, Note_on_c, 0, 90, 79
2, 194040, Note_on_c, 0, 68, 0
2, 194044, Note_on_c, 0, 88, 0
2, 194089, Note_on_c, 0, 88, 79
2, 194129, Note_on_c, 0, 90, 0
2, 194136, Note_on_c, 0, 87, 77
2, 194138, Note_on_c, 0, 88, 0
2, 194159, Note_on_c, 0, 87, 0
2, 194166, Note_on_c, 0, 70, 79
2, 194171, Note_on_c, 0, 86, 79
2, 194191, Note_on_c, 0, 86, 0
2, 194211, Note_on_c, 0, 88, 79
2, 194225, Note_on_c, 0, 70, 0
2, 194255, Note_on_c, 0, 86, 77
2, 194269, Note_on_c, 0, 88, 0
2, 194286, Note_on_c, 0, 61, 0
2, 194292, Note_on_c, 0, 86, 0
2, 194292, Note_on_c, 0, 85, 75
2, 194311, Note_on_c, 0, 85, 0
2, 194315, Control_c, 0, 64, 0
2, 194319, Note_on_c, 0, 83, 71
2, 194331, Note_on_c, 0, 63, 75
2, 194334, Note_on_c, 0, 71, 75
2, 194335, Note_on_c, 0, 66, 75
2, 194351, Note_on_c, 0, 83, 0
2, 194367, Note_on_c, 0, 85, 75
2, 194369, Control_c, 0, 64, 127
2, 194391, Note_on_c, 0, 85, 0
2, 194413, Note_on_c, 0, 83, 70
2, 194430, Note_on_c, 0, 83, 0
2, 194432, Note_on_c, 0, 85, 74
2, 194465, Note_on_c, 0, 85, 0
2, 194484, Note_on_c, 0, 83, 75
2, 194512, Note_on_c, 0, 85, 79
2, 194531, Note_on_c, 0, 83, 0
2, 194543, Note_on_c, 0, 85, 0
2, 194561, Note_on_c, 0, 83, 79
2, 194610, Note_on_c, 0, 82, 77
2, 194614, Note_on_c, 0, 83, 0
2, 194629, Note_on_c, 0, 82, 0
2, 194651, Note_on_c, 0, 81, 79
2, 194668, Note_on_c, 0, 66, 0
2, 194673, Note_on_c, 0, 63, 0
2, 194688, Note_on_c, 0, 83, 79
2, 194689, Note_on_c, 0, 81, 0
2, 194736, Note_on_c, 0, 81, 70
2, 194750, Note_on_c, 0, 83, 0
2, 194753, Note_on_c, 0, 71, 0
2, 194775, Note_on_c, 0, 80, 75
2, 194779, Note_on_c, 0, 81, 0
2, 194817, Note_on_c, 0, 80, 0
2, 194821, Note_on_c, 0, 79, 75
2, 194856, Note_on_c, 0, 79, 0
2, 194856, Note_on_c, 0, 81, 70
2, 194907, Note_on_c, 0, 79, 70
2, 194910, Note_on_c, 0, 81, 0
2, 194947, Note_on_c, 0, 78, 70
2, 194951, Note_on_c, 0, 79, 0
2, 194957, Note_on_c, 0, 68, 57
2, 194967, Control_c, 0, 64, 0
2, 194979, Note_on_c, 0, 78, 0
2, 194988, Note_on_c, 0, 71, 74
2, 194996, Note_on_c, 0, 77, 74
2, 195015, Note_on_c, 0, 77, 0
2, 195018, Note_on_c, 0, 73, 68
2, 195030, Control_c, 0, 64, 127
2, 195046, Note_on_c, 0, 78, 78
2, 195066, Note_on_c, 0, 78, 0
2, 195087, Note_on_c, 0, 77, 74
2, 195123, Note_on_c, 0, 71, 0
2, 195129, Note_on_c, 0, 77, 0
2, 195136, Note_on_c, 0, 76, 77
2, 195152, Note_on_c, 0, 76, 0
2, 195155, Note_on_c, 0, 73, 0
2, 195162, Note_on_c, 0, 68, 0
2, 195173, Note_on_c, 0, 77, 70
2, 195212, Note_on_c, 0, 77, 0
2, 195230, Note_on_c, 0, 87, 77
2, 195265, Note_on_c, 0, 85, 90
2, 195290, Note_on_c, 0, 87, 0
2, 195304, Note_on_c, 0, 66, 77
2, 195319, Note_on_c, 0, 85, 0
2, 195320, Note_on_c, 0, 82, 77
2, 195320, Note_on_c, 0, 71, 77
2, 195324, Control_c, 0, 64, 0
2, 195355, Note_on_c, 0, 82, 0
2, 195355, Note_on_c, 0, 75, 81
2, 195362, Note_on_c, 0, 83, 77
2, 195385, Note_on_c, 0, 83, 0
2, 195397, Control_c, 0, 64, 127
2, 195408, Note_on_c, 0, 85, 81
2, 195437, Note_on_c, 0, 85, 0
2, 195448, Note_on_c, 0, 83, 75
2, 195482, Note_on_c, 0, 83, 0
2, 195486, Note_on_c, 0, 82, 83
2, 195511, Note_on_c, 0, 66, 0
2, 195525, Note_on_c, 0, 82, 0
2, 195543, Note_on_c, 0, 83, 84
2, 195553, Note_on_c, 0, 75, 0
2, 195565, Note_on_c, 0, 83, 0
2, 195577, Note_on_c, 0, 92, 83
2, 195624, Note_on_c, 0, 90, 84
2, 195655, Note_on_c, 0, 92, 0
2, 195671, Note_on_c, 0, 66, 81
2, 195674, Note_on_c, 0, 90, 0
2, 195676, Note_on_c, 0, 87, 68
2, 195681, Note_on_c, 0, 71, 0
2, 195689, Note_on_c, 0, 70, 79
2, 195695, Control_c, 0, 64, 0
2, 195719, Note_on_c, 0, 85, 89
2, 195720, Note_on_c, 0, 76, 69
2, 195731, Note_on_c, 0, 87, 0
2, 195753, Note_on_c, 0, 85, 0
2, 195761, Control_c, 0, 64, 127
2, 195776, Note_on_c, 0, 84, 89
2, 195798, Note_on_c, 0, 84, 0
2, 195814, Note_on_c, 0, 85, 91
2, 195840, Note_on_c, 0, 85, 0
2, 195841, Note_on_c, 0, 66, 0
2, 195845, Note_on_c, 0, 70, 0
2, 195865, Note_on_c, 0, 86, 91
2, 195876, Note_on_c, 0, 76, 0
2, 195892, Note_on_c, 0, 86, 0
2, 195908, Note_on_c, 0, 87, 89
2, 195942, Note_on_c, 0, 87, 0
2, 195961, Note_on_c, 0, 88, 78
2, 195999, Note_on_c, 0, 89, 95
2, 196000, Note_on_c, 0, 88, 0
2, 196011, Note_on_c, 0, 71, 81
2, 196017, Note_on_c, 0, 73, 54
2, 196032, Note_on_c, 0, 76, 81
2, 196036, Control_c, 0, 64, 0
2, 196042, Note_on_c, 0, 89, 0
2, 196044, Note_on_c, 0, 90, 81
2, 196044, Control_c, 0, 67, 127
2, 196067, Note_on_c, 0, 78, 91
2, 196074, Note_on_c, 0, 90, 0
2, 196085, Note_on_c, 0, 82, 79
2, 196090, Control_c, 0, 64, 127
2, 196092, Note_on_c, 0, 91, 91
2, 196122, Note_on_c, 0, 91, 0
2, 196131, Note_on_c, 0, 92, 91
2, 196163, Note_on_c, 0, 92, 0
2, 196182, Note_on_c, 0, 93, 93
2, 196214, Note_on_c, 0, 93, 0
2, 196222, Note_on_c, 0, 94, 102
2, 196254, Note_on_c, 0, 94, 0
2, 196277, Note_on_c, 0, 95, 91
2, 196314, Note_on_c, 0, 96, 91
2, 196322, Note_on_c, 0, 95, 0
2, 196358, Note_on_c, 0, 96, 0
2, 196360, Note_on_c, 0, 99, 87
2, 196395, Control_c, 0, 64, 0
2, 196409, Note_on_c, 0, 97, 85
2, 196419, Note_on_c, 0, 99, 0
2, 196436, Note_on_c, 0, 97, 0
2, 196444, Control_c, 0, 67, 0
2, 196448, Control_c, 0, 64, 127
2, 196450, Note_on_c, 0, 100, 85
2, 196502, Note_on_c, 0, 97, 87
2, 196511, Note_on_c, 0, 82, 0
2, 196513, Note_on_c, 0, 76, 0
2, 196516, Note_on_c, 0, 100, 0
2, 196518, Note_on_c, 0, 78, 0
2, 196522, Note_on_c, 0, 71, 0
2, 196527, Note_on_c, 0, 73, 0
2, 196545, Note_on_c, 0, 94, 85
2, 196556, Note_on_c, 0, 97, 0
2, 196563, Note_on_c, 0, 94, 0
2, 196578, Note_on_c, 0, 91, 83
2, 196612, Note_on_c, 0, 91, 0
2, 196631, Note_on_c, 0, 90, 85
2, 196679, Note_on_c, 0, 88, 83
2, 196707, Note_on_c, 0, 90, 0
2, 196723, Note_on_c, 0, 85, 83
2, 196725, Note_on_c, 0, 88, 0
2, 196743, Note_on_c, 0, 85, 0
2, 196764, Note_on_c, 0, 84, 81
2, 196781, Note_on_c, 0, 84, 0
2, 196793, Control_c, 0, 64, 0
2, 196808, Note_on_c, 0, 75, 77
2, 196809, Control_c, 0, 67, 127
2, 196809, Note_on_c, 0, 71, 77
2, 196819, Note_on_c, 0, 83, 77
2, 196826, Note_on_c, 0, 71, 0
2, 196826, Note_on_c, 0, 75, 0
2, 196841, Control_c, 0, 64, 127
2, 196864, Note_on_c, 0, 81, 81
2, 196888, Note_on_c, 0, 83, 0
2, 196915, Note_on_c, 0, 78, 81
2, 196928, Note_on_c, 0, 81, 0
2, 196967, Note_on_c, 0, 75, 81
2, 196985, Note_on_c, 0, 78, 0
2, 197003, Note_on_c, 0, 75, 0
2, 197024, Note_on_c, 0, 72, 79
2, 197041, Note_on_c, 0, 72, 0
2, 197068, Note_on_c, 0, 71, 81
2, 197131, Note_on_c, 0, 71, 0
2, 197134, Note_on_c, 0, 69, 83
2, 197156, Note_on_c, 0, 69, 0
2, 197172, Note_on_c, 0, 66, 90
2, 197176, Control_c, 0, 67, 0
2, 197196, Note_on_c, 0, 66, 0
2, 197235, Control_c, 0, 67, 127
2, 197235, Control_c, 0, 67, 127
2, 197236, Control_c, 0, 64, 0
2, 197257, Control_c, 0, 64, 127
2, 197263, Control_c, 0, 67, 127
2, 197318, Note_on_c, 0, 68, 75
2, 197329, Control_c, 0, 67, 127
2, 197335, Control_c, 0, 64, 127
2, 197361, Note_on_c, 0, 68, 0
2, 197391, Note_on_c, 0, 64, 79
2, 197418, Note_on_c, 0, 64, 0
2, 197442, Note_on_c, 0, 59, 82
2, 197456, Note_on_c, 0, 59, 0
2, 197502, Note_on_c, 0, 52, 91
2, 197516, Note_on_c, 0, 52, 0
2, 197549, Note_on_c, 0, 64, 90
2, 197580, Note_on_c, 0, 64, 0
2, 197580, Control_c, 0, 64, 0
2, 197597, Control_c, 0, 67, 0
2, 197603, Note_on_c, 0, 73, 76
2, 197629, Note_on_c, 0, 73, 0
2, 197658, Note_on_c, 0, 73, 74
2, 197671, Note_on_c, 0, 73, 0
2, 197704, Note_on_c, 0, 76, 83
2, 197732, Note_on_c, 0, 76, 0
2, 197743, Control_c, 0, 64, 127
2, 197761, Note_on_c, 0, 80, 81
2, 197768, Note_on_c, 0, 85, 81
2, 197777, Note_on_c, 0, 80, 0
2, 197789, Note_on_c, 0, 85, 0
2, 197816, Note_on_c, 0, 85, 102
2, 197827, Note_on_c, 0, 85, 0
2, 197848, Control_c, 0, 64, 0
2, 197868, Control_c, 0, 64, 127
2, 197885, Note_on_c, 0, 88, 80
2, 197927, Note_on_c, 0, 97, 90
2, 197933, Note_on_c, 0, 88, 0
2, 197956, Note_on_c, 0, 97, 0
2, 197962, Control_c, 0, 64, 0
2, 197978, Note_on_c, 0, 80, 79
2, 197981, Note_on_c, 0, 76, 79
2, 197983, Note_on_c, 0, 83, 79
2, 197989, Control_c, 0, 67, 127
2, 197993, Note_on_c, 0, 80, 0
2, 198000, Note_on_c, 0, 83, 0
2, 198000, Note_on_c, 0, 76, 0
2, 198010, Control_c, 0, 64, 127
2, 198046, Note_on_c, 0, 95, 95
2, 198103, Note_on_c, 0, 92, 79
2, 198112, Note_on_c, 0, 88, 64
2, 198126, Note_on_c, 0, 95, 0
2, 198133, Note_on_c, 0, 88, 0
2, 198142, Note_on_c, 0, 92, 0
2, 198166, Note_on_c, 0, 83, 74
2, 198184, Note_on_c, 0, 83, 0
2, 198216, Note_on_c, 0, 80, 70
2, 198225, Note_on_c, 0, 76, 69
2, 198245, Note_on_c, 0, 76, 0
2, 198260, Note_on_c, 0, 80, 0
2, 198287, Note_on_c, 0, 71, 83
2, 198300, Control_c, 0, 64, 0
2, 198303, Note_on_c, 0, 71, 0
2, 198356, Note_on_c, 0, 68, 82
2, 198361, Control_c, 0, 64, 127
2, 198387, Note_on_c, 0, 68, 0
2, 198414, Note_on_c, 0, 64, 85
2, 198429, Note_on_c, 0, 64, 0
2, 198456, Note_on_c, 0, 59, 87
2, 198471, Note_on_c, 0, 59, 0
2, 198505, Note_on_c, 0, 52, 89
2, 198518, Note_on_c, 0, 52, 0
2, 198518, Control_c, 0, 67, 0
2, 198521, Control_c, 0, 64, 0
2, 198557, Note_on_c, 0, 64, 94
2, 198583, Note_on_c, 0, 64, 0
2, 198600, Note_on_c, 0, 68, 53
2, 198604, Note_on_c, 0, 73, 77
2, 198616, Note_on_c, 0, 68, 0
2, 198634, Note_on_c, 0, 73, 0
2, 198660, Note_on_c, 0, 73, 72
2, 198675, Note_on_c, 0, 73, 0
2, 198703, Control_c, 0, 64, 127
2, 198711, Note_on_c, 0, 76, 68
2, 198733, Note_on_c, 0, 76, 0
2, 198762, Note_on_c, 0, 85, 82
2, 198787, Note_on_c, 0, 85, 0
2, 198810, Note_on_c, 0, 85, 75
2, 198824, Note_on_c, 0, 85, 0
2, 198866, Note_on_c, 0, 88, 74
2, 198900, Note_on_c, 0, 88, 0
2, 198903, Note_on_c, 0, 97, 85
2, 198920, Note_on_c, 0, 97, 0
2, 198961, Note_on_c, 0, 80, 60
2, 198963, Note_on_c, 0, 83, 69
2, 198965, Control_c, 0, 64, 0
2, 198965, Note_on_c, 0, 76, 63
2, 198976, Note_on_c, 0, 80, 0
2, 198980, Note_on_c, 0, 83, 0
2, 198985, Note_on_c, 0, 76, 0
2, 199017, Note_on_c, 0, 95, 87
2, 199017, Control_c, 0, 64, 127
2, 199036, Control_c, 0, 67, 127
2, 199041, Control_c, 0, 67, 0
2, 199045, Control_c, 0, 67, 127
2, 199076, Note_on_c, 0, 92, 79
2, 199082, Note_on_c, 0, 88, 54
2, 199095, Note_on_c, 0, 95, 0
2, 199102, Note_on_c, 0, 88, 0
2, 199107, Note_on_c, 0, 92, 0
2, 199131, Note_on_c, 0, 83, 66
2, 199150, Note_on_c, 0, 83, 0
2, 199195, Note_on_c, 0, 76, 66
2, 199221, Note_on_c, 0, 76, 0
2, 199260, Note_on_c, 0, 71, 68
2, 199276, Note_on_c, 0, 71, 0
2, 199298, Control_c, 0, 64, 0
2, 199323, Note_on_c, 0, 68, 75
2, 199346, Control_c, 0, 64, 127
2, 199347, Note_on_c, 0, 68, 0
2, 199383, Note_on_c, 0, 64, 79
2, 199398, Note_on_c, 0, 64, 0
2, 199416, Control_c, 0, 67, 0
2, 199425, Note_on_c, 0, 59, 83
2, 199439, Note_on_c, 0, 59, 0
2, 199480, Note_on_c, 0, 52, 85
2, 199490, Note_on_c, 0, 52, 0
2, 199490, Control_c, 0, 64, 0
2, 199518, Note_on_c, 0, 64, 85
2, 199550, Note_on_c, 0, 64, 0
2, 199572, Note_on_c, 0, 73, 79
2, 199593, Note_on_c, 0, 73, 0
2, 199638, Note_on_c, 0, 71, 77
2, 199642, Control_c, 0, 64, 127
2, 199685, Note_on_c, 0, 71, 0
2, 199707, Note_on_c, 0, 68, 89
2, 199738, Note_on_c, 0, 68, 0
2, 199745, Note_on_c, 0, 64, 88
2, 199758, Note_on_c, 0, 64, 0
2, 199779, Note_on_c, 0, 59, 89
2, 199779, Control_c, 0, 64, 0
2, 199795, Note_on_c, 0, 59, 0
2, 199818, Control_c, 0, 64, 127
2, 199824, Note_on_c, 0, 68, 81
2, 199869, Note_on_c, 0, 68, 0
2, 199872, Note_on_c, 0, 71, 80
2, 199874, Note_on_c, 0, 78, 84
2, 199886, Note_on_c, 0, 71, 0
2, 199907, Control_c, 0, 64, 0
2, 199911, Note_on_c, 0, 78, 0
2, 199939, Note_on_c, 0, 76, 93
2, 199943, Control_c, 0, 64, 127
2, 199974, Note_on_c, 0, 76, 0
2, 199990, Note_on_c, 0, 71, 83
2, 200023, Note_on_c, 0, 68, 75
2, 200031, Note_on_c, 0, 71, 0
2, 200060, Note_on_c, 0, 68, 0
2, 200062, Note_on_c, 0, 64, 88
2, 200076, Note_on_c, 0, 64, 0
2, 200119, Note_on_c, 0, 71, 77
2, 200120, Note_on_c, 0, 76, 81
2, 200139, Note_on_c, 0, 76, 0
2, 200139, Note_on_c, 0, 71, 0
2, 200177, Note_on_c, 0, 81, 83
2, 200206, Note_on_c, 0, 81, 0
2, 200213, Control_c, 0, 64, 0
2, 200221, Note_on_c, 0, 60, 79
2, 200261, Note_on_c, 0, 60, 0
2, 200267, Note_on_c, 0, 68, 89
2, 200280, Note_on_c, 0, 68, 0
2, 200288, Control_c, 0, 67, 127
2, 200295, Control_c, 0, 64, 127
2, 200303, Note_on_c, 0, 80, 105
2, 200307, Note_on_c, 0, 75, 90
2, 200349, Note_on_c, 0, 75, 0
2, 200359, Note_on_c, 0, 80, 0
2, 200412, Note_on_c, 0, 81, 98
2, 200448, Note_on_c, 0, 81, 0
2, 200484, Note_on_c, 0, 80, 79
2, 200537, Note_on_c, 0, 80, 0
2, 200561, Note_on_c, 0, 69, 75
2, 200577, Note_on_c, 0, 69, 0
2, 200618, Note_on_c, 0, 68, 84
2, 200646, Note_on_c, 0, 68, 0
2, 200670, Note_on_c, 0, 75, 75
2, 200687, Note_on_c, 0, 75, 0
2, 200721, Note_on_c, 0, 76, 91
2, 200742, Note_on_c, 0, 76, 0
2, 200769, Note_on_c, 0, 75, 84
2, 200797, Control_c, 0, 67, 0
2, 200809, Note_on_c, 0, 75, 0
2, 200819, Note_on_c, 0, 80, 95
2, 200839, Note_on_c, 0, 80, 0
2, 200861, Note_on_c, 0, 81, 94
2, 200880, Note_on_c, 0, 81, 0
2, 200908, Note_on_c, 0, 80, 95
2, 200943, Note_on_c, 0, 80, 0
2, 200956, Note_on_c, 0, 87, 89
2, 200982, Note_on_c, 0, 87, 0
2, 201000, Note_on_c, 0, 88, 98
2, 201034, Note_on_c, 0, 88, 0
2, 201049, Note_on_c, 0, 87, 88
2, 201073, Note_on_c, 0, 87, 0
2, 201095, Note_on_c, 0, 92, 94
2, 201097, Control_c, 0, 67, 127
2, 201125, Note_on_c, 0, 92, 0
2, 201148, Note_on_c, 0, 93, 92
2, 201166, Note_on_c, 0, 93, 0
2, 201222, Note_on_c, 0, 92, 97
2, 201265, Note_on_c, 0, 92, 0
2, 201293, Note_on_c, 0, 102, 95
2, 201348, Note_on_c, 0, 102, 0
2, 201418, Note_on_c, 0, 100, 84
2, 201425, Note_on_c, 0, 91, 73
2, 201441, Note_on_c, 0, 100, 0
2, 201447, Note_on_c, 0, 91, 0
2, 201456, Control_c, 0, 64, 0
2, 201534, Note_on_c, 0, 99, 93
2, 201538, Note_on_c, 0, 94, 70
2, 201554, Note_on_c, 0, 94, 0
2, 201555, Note_on_c, 0, 99, 0
2, 201639, Note_on_c, 0, 82, 49
2, 201639, Note_on_c, 0, 98, 93
2, 201642, Note_on_c, 0, 88, 60
2, 201656, Note_on_c, 0, 98, 0
2, 201660, Note_on_c, 0, 82, 0
2, 201662, Note_on_c, 0, 88, 0
2, 201726, Note_on_c, 0, 73, 55
2, 201727, Note_on_c, 0, 97, 87
2, 201743, Note_on_c, 0, 97, 0
2, 201751, Note_on_c, 0, 73, 0
2, 201808, Note_on_c, 0, 96, 87
2, 201810, Note_on_c, 0, 87, 67
2, 201829, Note_on_c, 0, 96, 0
2, 201835, Note_on_c, 0, 87, 0
2, 201889, Note_on_c, 0, 95, 100
2, 201890, Note_on_c, 0, 75, 75
2, 201899, Note_on_c, 0, 90, 61
2, 201906, Note_on_c, 0, 75, 0
2, 201917, Note_on_c, 0, 90, 0
2, 201927, Note_on_c, 0, 95, 0
2, 201956, Control_c, 0, 64, 127
2, 201970, Note_on_c, 0, 94, 96
2, 201973, Note_on_c, 0, 78, 69
2, 201978, Note_on_c, 0, 87, 57
2, 201985, Note_on_c, 0, 94, 0
2, 201988, Note_on_c, 0, 78, 0
2, 201994, Note_on_c, 0, 87, 0
2, 202046, Note_on_c, 0, 83, 81
2, 202049, Note_on_c, 0, 93, 93
2, 202050, Note_on_c, 0, 90, 64
2, 202060, Note_on_c, 0, 83, 0
2, 202071, Note_on_c, 0, 93, 0
2, 202072, Note_on_c, 0, 90, 0
2, 202136, Note_on_c, 0, 92, 99
2, 202145, Note_on_c, 0, 84, 51
2, 202152, Note_on_c, 0, 92, 0
2, 202161, Note_on_c, 0, 84, 0
2, 202216, Note_on_c, 0, 91, 98
2, 202220, Note_on_c, 0, 87, 58
2, 202238, Note_on_c, 0, 87, 0
2, 202247, Note_on_c, 0, 91, 0
2, 202297, Note_on_c, 0, 90, 89
2, 202304, Note_on_c, 0, 81, 71
2, 202314, Note_on_c, 0, 90, 0
2, 202321, Note_on_c, 0, 81, 0
2, 202374, Note_on_c, 0, 89, 101
2, 202395, Control_c, 0, 64, 0
2, 202404, Note_on_c, 0, 89, 0
2, 202470, Note_on_c, 0, 88, 92
2, 202475, Note_on_c, 0, 79, 80
2, 202490, Note_on_c, 0, 79, 0
2, 202495, Note_on_c, 0, 88, 0
2, 202503, Control_c, 0, 67, 0
2, 202512, Control_c, 0, 64, 127
2, 202557, Note_on_c, 0, 87, 84
2, 202559, Note_on_c, 0, 67, 73
2, 202561, Note_on_c, 0, 82, 70
2, 202574, Note_on_c, 0, 67, 0
2, 202574, Note_on_c, 0, 87, 0
2, 202579, Note_on_c, 0, 82, 0
2, 202606, Control_c, 0, 67, 127
2, 202642, Note_on_c, 0, 86, 90
2, 202642, Note_on_c, 0, 70, 51
2, 202647, Note_on_c, 0, 76, 78
2, 202658, Note_on_c, 0, 70, 0
2, 202664, Note_on_c, 0, 76, 0
2, 202667, Note_on_c, 0, 86, 0
2, 202719, Note_on_c, 0, 85, 94
2, 202721, Note_on_c, 0, 61, 79
2, 202730, Note_on_c, 0, 79, 70
2, 202737, Note_on_c, 0, 61, 0
2, 202737, Note_on_c, 0, 85, 0
2, 202746, Note_on_c, 0, 79, 0
2, 202800, Note_on_c, 0, 84, 88
2, 202807, Note_on_c, 0, 75, 86
2, 202823, Note_on_c, 0, 75, 0
2, 202834, Note_on_c, 0, 84, 0
2, 202878, Note_on_c, 0, 83, 93
2, 202885, Note_on_c, 0, 63, 89
2, 202889, Note_on_c, 0, 78, 69
2, 202899, Note_on_c, 0, 63, 0
2, 202910, Note_on_c, 0, 78, 0
2, 202917, Note_on_c, 0, 83, 0
2, 202958, Control_c, 0, 64, 0
2, 202964, Note_on_c, 0, 82, 92
2, 202965, Note_on_c, 0, 66, 78
2, 202970, Note_on_c, 0, 75, 82
2, 202980, Note_on_c, 0, 66, 0
2, 202982, Note_on_c, 0, 82, 0
2, 202986, Note_on_c, 0, 75, 0
2, 203036, Note_on_c, 0, 71, 84
2, 203042, Note_on_c, 0, 81, 81
2, 203050, Note_on_c, 0, 71, 0
2, 203076, Note_on_c, 0, 81, 0
2, 203095, Control_c, 0, 64, 127
2, 203112, Note_on_c, 0, 72, 79
2, 203123, Note_on_c, 0, 80, 79
2, 203136, Note_on_c, 0, 72, 0
2, 203139, Note_on_c, 0, 80, 0
2, 203150, Control_c, 0, 67, 0
2, 203184, Note_on_c, 0, 75, 89
2, 203198, Note_on_c, 0, 75, 0
2, 203198, Note_on_c, 0, 79, 66
2, 203227, Note_on_c, 0, 79, 0
2, 203280, Note_on_c, 0, 69, 79
2, 203281, Note_on_c, 0, 78, 79
2, 203304, Note_on_c, 0, 69, 0
2, 203322, Note_on_c, 0, 78, 0
2, 203352, Note_on_c, 0, 72, 79
2, 203365, Note_on_c, 0, 77, 83
2, 203376, Note_on_c, 0, 72, 0
2, 203398, Control_c, 0, 64, 0
2, 203409, Note_on_c, 0, 77, 0
2, 203439, Control_c, 0, 67, 127
2, 203455, Note_on_c, 0, 76, 83
2, 203458, Note_on_c, 0, 68, 79
2, 203480, Note_on_c, 0, 68, 0
2, 203480, Control_c, 0, 67, 0
2, 203480, Control_c, 0, 64, 127
2, 203497, Note_on_c, 0, 76, 0
2, 203536, Note_on_c, 0, 77, 87
2, 203540, Note_on_c, 0, 62, 85
2, 203550, Note_on_c, 0, 77, 0
2, 203565, Note_on_c, 0, 62, 0
2, 203617, Note_on_c, 0, 86, 92
2, 203617, Note_on_c, 0, 71, 84
2, 203619, Note_on_c, 0, 77, 75
2, 203623, Note_on_c, 0, 65, 74
2, 203632, Note_on_c, 0, 71, 0
2, 203637, Note_on_c, 0, 77, 0
2, 203639, Note_on_c, 0, 65, 0
2, 203649, Note_on_c, 0, 86, 0
2, 203689, Note_on_c, 0, 56, 102
2, 203694, Control_c, 0, 64, 0
2, 203695, Note_on_c, 0, 85, 105
2, 203702, Note_on_c, 0, 56, 0
2, 203702, Note_on_c, 0, 80, 82
2, 203713, Control_c, 0, 67, 127
2, 203718, Note_on_c, 0, 80, 0
2, 203733, Note_on_c, 0, 85, 0
2, 203761, Control_c, 0, 64, 127
2, 203770, Note_on_c, 0, 84, 90
2, 203778, Note_on_c, 0, 73, 86
2, 203793, Note_on_c, 0, 73, 0
2, 203801, Note_on_c, 0, 84, 0
2, 203820, Control_c, 0, 67, 0
2, 203840, Note_on_c, 0, 85, 107
2, 203848, Note_on_c, 0, 80, 54
2, 203850, Note_on_c, 0, 57, 97
2, 203863, Note_on_c, 0, 57, 0
2, 203864, Control_c, 0, 64, 0
2, 203865, Note_on_c, 0, 80, 0
2, 203875, Note_on_c, 0, 85, 0
2, 203920, Control_c, 0, 64, 127
2, 203920, Note_on_c, 0, 61, 96
2, 203926, Note_on_c, 0, 93, 107
2, 203928, Note_on_c, 0, 81, 89
2, 203943, Note_on_c, 0, 81, 0
2, 203952, Note_on_c, 0, 93, 0
2, 203960, Note_on_c, 0, 61, 0
2, 203996, Note_on_c, 0, 90, 104
2, 204002, Note_on_c, 0, 66, 89
2, 204003, Note_on_c, 0, 69, 85
2, 204006, Note_on_c, 0, 85, 72
2, 204014, Note_on_c, 0, 66, 0
2, 204016, Note_on_c, 0, 69, 0
2, 204021, Note_on_c, 0, 85, 0
2, 204026, Note_on_c, 0, 90, 0
2, 204080, Note_on_c, 0, 87, 102
2, 204083, Note_on_c, 0, 79, 78
2, 204100, Note_on_c, 0, 79, 0
2, 204113, Note_on_c, 0, 87, 0
2, 204149, Control_c, 0, 64, 0
2, 204154, Note_on_c, 0, 88, 101
2, 204158, Note_on_c, 0, 82, 78
2, 204158, Note_on_c, 0, 60, 83
2, 204180, Note_on_c, 0, 82, 0
2, 204188, Note_on_c, 0, 88, 0
2, 204189, Note_on_c, 0, 60, 0
2, 204229, Note_on_c, 0, 64, 84
2, 204231, Note_on_c, 0, 88, 88
2, 204235, Control_c, 0, 64, 127
2, 204237, Note_on_c, 0, 79, 97
2, 204250, Note_on_c, 0, 79, 0
2, 204264, Note_on_c, 0, 88, 0
2, 204273, Note_on_c, 0, 64, 0
2, 204308, Note_on_c, 0, 70, 84
2, 204308, Note_on_c, 0, 89, 110
2, 204311, Note_on_c, 0, 67, 81
2, 204325, Note_on_c, 0, 67, 0
2, 204330, Note_on_c, 0, 70, 0
2, 204341, Note_on_c, 0, 89, 0
2, 204368, Control_c, 0, 64, 0
2, 204390, Note_on_c, 0, 92, 117
2, 204400, Note_on_c, 0, 81, 65
2, 204406, Note_on_c, 0, 83, 46
2, 204414, Control_c, 0, 64, 127
2, 204417, Note_on_c, 0, 81, 0
2, 204422, Note_on_c, 0, 83, 0
2, 204428, Note_on_c, 0, 92, 0
2, 204475, Note_on_c, 0, 90, 104
2, 204477, Note_on_c, 0, 87, 99
2, 204480, Note_on_c, 0, 59, 94
2, 204493, Note_on_c, 0, 87, 0
2, 204495, Note_on_c, 0, 59, 0
2, 204521, Note_on_c, 0, 90, 0
2, 204546, Control_c, 0, 64, 0
2, 204559, Control_c, 0, 64, 127
2, 204563, Note_on_c, 0, 93, 114
2, 204565, Note_on_c, 0, 63, 90
2, 204591, Note_on_c, 0, 63, 0
2, 204606, Note_on_c, 0, 93, 0
2, 204641, Note_on_c, 0, 90, 102
2, 204642, Note_on_c, 0, 87, 100
2, 204642, Note_on_c, 0, 71, 97
2, 204657, Note_on_c, 0, 71, 0
2, 204674, Note_on_c, 0, 87, 0
2, 204683, Note_on_c, 0, 90, 0
2, 204688, Control_c, 0, 64, 0
2, 204718, Note_on_c, 0, 94, 117
2, 204724, Control_c, 0, 64, 127
2, 204726, Note_on_c, 0, 78, 84
2, 204740, Note_on_c, 0, 78, 0
2, 204768, Note_on_c, 0, 94, 0
2, 204800, Note_on_c, 0, 90, 95
2, 204802, Note_on_c, 0, 87, 94
2, 204811, Note_on_c, 0, 81, 63
2, 204813, Note_on_c, 0, 83, 44
2, 204817, Note_on_c, 0, 87, 0
2, 204828, Note_on_c, 0, 81, 0
2, 204831, Note_on_c, 0, 83, 0
2, 204837, Note_on_c, 0, 90, 0
2, 204895, Note_on_c, 0, 95, 124
2, 204904, Note_on_c, 0, 95, 0
2, 204985, Note_on_c, 0, 90, 89
2, 204987, Note_on_c, 0, 87, 86
2, 204991, Note_on_c, 0, 83, 43
2, 204994, Note_on_c, 0, 81, 69
2, 205009, Note_on_c, 0, 81, 0
2, 205013, Note_on_c, 0, 83, 0
2, 205025, Note_on_c, 0, 87, 0
2, 205029, Note_on_c, 0, 90, 0
2, 205084, Note_on_c, 0, 96, 119
2, 205095, Note_on_c, 0, 96, 0
2, 205176, Note_on_c, 0, 90, 86
2, 205180, Note_on_c, 0, 87, 70
2, 205182, Note_on_c, 0, 83, 47
2, 205186, Note_on_c, 0, 81, 59
2, 205197, Note_on_c, 0, 87, 0
2, 205203, Note_on_c, 0, 81, 0
2, 205206, Note_on_c, 0, 83, 0
2, 205217, Note_on_c, 0, 90, 0
2, 205277, Control_c, 0, 64, 0
2, 205287, Note_on_c, 0, 97, 117
2, 205299, Note_on_c, 0, 97, 0
2, 205322, Control_c, 0, 64, 127
2, 205409, Note_on_c, 0, 95, 98
2, 205414, Note_on_c, 0, 87, 73
2, 205414, Note_on_c, 0, 90, 73
2, 205426, Note_on_c, 0, 81, 35
2, 205427, Note_on_c, 0, 95, 0
2, 205431, Note_on_c, 0, 87, 0
2, 205431, Note_on_c, 0, 90, 0
2, 205440, Note_on_c, 0, 81, 0
2, 205454, Control_c, 0, 64, 0
2, 205684, Control_c, 0, 67, 127
2, 205705, Note_on_c, 0, 68, 58
2, 205711, Control_c, 0, 64, 127
2, 205742, Note_on_c, 0, 68, 0
2, 205778, Note_on_c, 0, 64, 60
2, 205793, Note_on_c, 0, 64, 0
2, 205824, Note_on_c, 0, 59, 62
2, 205838, Note_on_c, 0, 59, 0
2, 205869, Note_on_c, 0, 52, 68
2, 205882, Note_on_c, 0, 52, 0
2, 205915, Control_c, 0, 64, 0
2, 205920, Note_on_c, 0, 64, 74
2, 205944, Note_on_c, 0, 64, 0
2, 205970, Note_on_c, 0, 73, 71
2, 206002, Note_on_c, 0, 73, 0
2, 206012, Note_on_c, 0, 73, 96
2, 206024, Note_on_c, 0, 73, 0
2, 206058, Control_c, 0, 64, 127
2, 206061, Note_on_c, 0, 76, 92
2, 206098, Note_on_c, 0, 76, 0
2, 206112, Note_on_c, 0, 80, 73
2, 206117, Note_on_c, 0, 85, 90
2, 206127, Note_on_c, 0, 80, 0
2, 206147, Note_on_c, 0, 85, 0
2, 206155, Note_on_c, 0, 85, 101
2, 206168, Note_on_c, 0, 85, 0
2, 206208, Note_on_c, 0, 88, 90
2, 206246, Note_on_c, 0, 88, 0
2, 206255, Note_on_c, 0, 97, 91
2, 206256, Note_on_c, 0, 92, 91
2, 206266, Note_on_c, 0, 97, 0
2, 206280, Note_on_c, 0, 92, 0
2, 206280, Control_c, 0, 64, 0
2, 206305, Note_on_c, 0, 80, 71
2, 206306, Note_on_c, 0, 83, 79
2, 206307, Note_on_c, 0, 76, 74
2, 206320, Note_on_c, 0, 83, 0
2, 206323, Note_on_c, 0, 76, 0
2, 206323, Note_on_c, 0, 80, 0
2, 206334, Control_c, 0, 64, 127
2, 206391, Note_on_c, 0, 95, 92
2, 206441, Note_on_c, 0, 92, 76
2, 206447, Note_on_c, 0, 88, 70
2, 206454, Note_on_c, 0, 95, 0
2, 206461, Note_on_c, 0, 92, 0
2, 206464, Note_on_c, 0, 88, 0
2, 206496, Note_on_c, 0, 83, 81
2, 206520, Note_on_c, 0, 83, 0
2, 206541, Note_on_c, 0, 80, 85
2, 206552, Note_on_c, 0, 76, 83
2, 206574, Note_on_c, 0, 76, 0
2, 206583, Note_on_c, 0, 80, 0
2, 206610, Note_on_c, 0, 71, 94
2, 206622, Control_c, 0, 64, 0
2, 206625, Note_on_c, 0, 71, 0
2, 206660, Note_on_c, 0, 68, 84
2, 206671, Control_c, 0, 64, 127
2, 206682, Note_on_c, 0, 68, 0
2, 206715, Note_on_c, 0, 64, 79
2, 206730, Note_on_c, 0, 64, 0
2, 206760, Note_on_c, 0, 59, 87
2, 206784, Note_on_c, 0, 59, 0
2, 206788, Control_c, 0, 67, 0
2, 206799, Note_on_c, 0, 52, 90
2, 206812, Note_on_c, 0, 52, 0
2, 206814, Control_c, 0, 64, 0
2, 206839, Note_on_c, 0, 64, 88
2, 206853, Note_on_c, 0, 64, 0
2, 206884, Note_on_c, 0, 68, 77
2, 206891, Note_on_c, 0, 73, 77
2, 206900, Note_on_c, 0, 68, 0
2, 206919, Note_on_c, 0, 73, 0
2, 206943, Note_on_c, 0, 73, 112
2, 206952, Note_on_c, 0, 73, 0
2, 206980, Control_c, 0, 64, 127
2, 206999, Note_on_c, 0, 76, 78
2, 207019, Note_on_c, 0, 76, 0
2, 207047, Note_on_c, 0, 80, 60
2, 207054, Note_on_c, 0, 85, 69
2, 207063, Note_on_c, 0, 80, 0
2, 207074, Note_on_c, 0, 85, 0
2, 207105, Note_on_c, 0, 85, 117
2, 207119, Note_on_c, 0, 85, 0
2, 207167, Note_on_c, 0, 88, 62
2, 207202, Note_on_c, 0, 88, 0
2, 207211, Note_on_c, 0, 97, 111
2, 207245, Note_on_c, 0, 97, 0
2, 207256, Control_c, 0, 64, 0
2, 207278, Note_on_c, 0, 80, 78
2, 207279, Note_on_c, 0, 83, 78
2, 207281, Note_on_c, 0, 76, 71
2, 207294, Note_on_c, 0, 83, 0
2, 207294, Control_c, 0, 67, 127
2, 207299, Note_on_c, 0, 76, 0
2, 207301, Note_on_c, 0, 80, 0
2, 207324, Control_c, 0, 64, 127
2, 207351, Note_on_c, 0, 95, 92
2, 207406, Note_on_c, 0, 92, 78
2, 207411, Note_on_c, 0, 88, 67
2, 207420, Note_on_c, 0, 95, 0
2, 207423, Note_on_c, 0, 92, 0
2, 207429, Note_on_c, 0, 88, 0
2, 207456, Note_on_c, 0, 83, 62
2, 207472, Note_on_c, 0, 83, 0
2, 207509, Note_on_c, 0, 80, 79
2, 207521, Note_on_c, 0, 76, 72
2, 207538, Note_on_c, 0, 76, 0
2, 207550, Note_on_c, 0, 80, 0
2, 207582, Note_on_c, 0, 71, 80
2, 207599, Note_on_c, 0, 71, 0
2, 207620, Control_c, 0, 64, 0
2, 207645, Note_on_c, 0, 68, 81
2, 207671, Note_on_c, 0, 68, 0
2, 207678, Control_c, 0, 64, 127
2, 207707, Note_on_c, 0, 64, 56
2, 207724, Note_on_c, 0, 64, 0
2, 207748, Note_on_c, 0, 59, 69
2, 207765, Note_on_c, 0, 59, 0
2, 207776, Control_c, 0, 67, 0
2, 207803, Note_on_c, 0, 52, 89
2, 207816, Note_on_c, 0, 52, 0
2, 207837, Control_c, 0, 64, 0
2, 207859, Note_on_c, 0, 64, 84
2, 207877, Note_on_c, 0, 64, 0
2, 207906, Note_on_c, 0, 73, 76
2, 207937, Note_on_c, 0, 73, 0
2, 207962, Control_c, 0, 67, 127
2, 207964, Note_on_c, 0, 71, 90
2, 207983, Control_c, 0, 64, 127
2, 208019, Note_on_c, 0, 68, 81
2, 208032, Note_on_c, 0, 71, 0
2, 208051, Note_on_c, 0, 68, 0
2, 208058, Note_on_c, 0, 64, 89
2, 208072, Note_on_c, 0, 64, 0
2, 208095, Note_on_c, 0, 59, 88
2, 208111, Control_c, 0, 64, 0
2, 208113, Note_on_c, 0, 59, 0
2, 208143, Control_c, 0, 64, 127
2, 208143, Note_on_c, 0, 68, 101
2, 208178, Note_on_c, 0, 68, 0
2, 208191, Note_on_c, 0, 71, 77
2, 208194, Note_on_c, 0, 78, 92
2, 208206, Note_on_c, 0, 71, 0
2, 208219, Control_c, 0, 64, 0
2, 208228, Note_on_c, 0, 78, 0
2, 208242, Note_on_c, 0, 76, 95
2, 208253, Control_c, 0, 67, 0
2, 208263, Control_c, 0, 64, 127
2, 208275, Note_on_c, 0, 76, 0
2, 208287, Note_on_c, 0, 71, 92
2, 208322, Note_on_c, 0, 68, 82
2, 208327, Note_on_c, 0, 71, 0
2, 208361, Note_on_c, 0, 68, 0
2, 208362, Note_on_c, 0, 64, 92
2, 208375, Note_on_c, 0, 64, 0
2, 208421, Note_on_c, 0, 76, 93
2, 208422, Note_on_c, 0, 71, 87
2, 208440, Note_on_c, 0, 71, 0
2, 208453, Note_on_c, 0, 76, 0
2, 208472, Note_on_c, 0, 81, 98
2, 208503, Note_on_c, 0, 59, 98
2, 208507, Control_c, 0, 64, 0
2, 208511, Note_on_c, 0, 81, 0
2, 208542, Note_on_c, 0, 67, 111
2, 208548, Note_on_c, 0, 59, 0
2, 208550, Note_on_c, 0, 67, 0
2, 208570, Control_c, 0, 64, 127
2, 208580, Note_on_c, 0, 79, 114
2, 208584, Note_on_c, 0, 74, 110
2, 208624, Note_on_c, 0, 74, 0
2, 208639, Note_on_c, 0, 79, 0
2, 208715, Note_on_c, 0, 81, 105
2, 208782, Note_on_c, 0, 79, 84
2, 208790, Note_on_c, 0, 81, 0
2, 208831, Note_on_c, 0, 79, 0
2, 208858, Note_on_c, 0, 69, 91
2, 208872, Note_on_c, 0, 69, 0
2, 208883, Control_c, 0, 67, 127
2, 208916, Note_on_c, 0, 67, 94
2, 208964, Note_on_c, 0, 67, 0
2, 208971, Note_on_c, 0, 74, 90
2, 208986, Note_on_c, 0, 74, 0
2, 209017, Note_on_c, 0, 76, 102
2, 209053, Note_on_c, 0, 76, 0
2, 209080, Note_on_c, 0, 74, 89
2, 209099, Note_on_c, 0, 74, 0
2, 209119, Note_on_c, 0, 79, 92
2, 209140, Note_on_c, 0, 79, 0
2, 209167, Note_on_c, 0, 81, 103
2, 209195, Note_on_c, 0, 81, 0
2, 209220, Note_on_c, 0, 79, 107
2, 209258, Note_on_c, 0, 79, 0
2, 209270, Note_on_c, 0, 86, 94
2, 209299, Note_on_c, 0, 86, 0
2, 209321, Note_on_c, 0, 88, 90
2, 209342, Note_on_c, 0, 88, 0
2, 209375, Note_on_c, 0, 86, 86
2, 209413, Note_on_c, 0, 86, 0
2, 209423, Note_on_c, 0, 91, 94
2, 209436, Note_on_c, 0, 91, 0
2, 209481, Note_on_c, 0, 93, 90
2, 209525, Note_on_c, 0, 93, 0
2, 209568, Note_on_c, 0, 91, 79
2, 209585, Note_on_c, 0, 91, 0
2, 209640, Note_on_c, 0, 101, 95
2, 209685, Note_on_c, 0, 101, 0
2, 209736, Note_on_c, 0, 88, 89
2, 209750, Note_on_c, 0, 100, 92
2, 209760, Note_on_c, 0, 88, 0
2, 209783, Note_on_c, 0, 100, 0
2, 209841, Control_c, 0, 64, 0
2, 209856, Note_on_c, 0, 76, 69
2, 209857, Note_on_c, 0, 98, 80
2, 209863, Note_on_c, 0, 88, 58
2, 209882, Note_on_c, 0, 98, 0
2, 209883, Note_on_c, 0, 88, 0
2, 209894, Note_on_c, 0, 76, 0
2, 209949, Note_on_c, 0, 97, 102
2, 209952, Note_on_c, 0, 79, 51
2, 209957, Note_on_c, 0, 91, 69
2, 209967, Note_on_c, 0, 97, 0
2, 209970, Note_on_c, 0, 79, 0
2, 209974, Note_on_c, 0, 91, 0
2, 210027, Note_on_c, 0, 72, 80
2, 210032, Note_on_c, 0, 96, 91
2, 210035, Note_on_c, 0, 88, 74
2, 210048, Note_on_c, 0, 72, 0
2, 210053, Note_on_c, 0, 88, 0
2, 210064, Note_on_c, 0, 96, 0
2, 210122, Note_on_c, 0, 96, 90
2, 210124, Note_on_c, 0, 87, 75
2, 210141, Note_on_c, 0, 87, 0
2, 210145, Note_on_c, 0, 96, 0
2, 210204, Note_on_c, 0, 95, 92
2, 210208, Note_on_c, 0, 75, 67
2, 210214, Note_on_c, 0, 90, 45
2, 210223, Note_on_c, 0, 75, 0
2, 210232, Note_on_c, 0, 90, 0
2, 210242, Note_on_c, 0, 95, 0
2, 210287, Control_c, 0, 64, 127
2, 210289, Note_on_c, 0, 94, 85
2, 210291, Note_on_c, 0, 78, 85
2, 210297, Note_on_c, 0, 87, 58
2, 210303, Note_on_c, 0, 94, 0
2, 210306, Note_on_c, 0, 78, 0
2, 210314, Note_on_c, 0, 87, 0
2, 210368, Note_on_c, 0, 93, 99
2, 210369, Note_on_c, 0, 83, 78
2, 210384, Note_on_c, 0, 83, 0
2, 210398, Note_on_c, 0, 93, 0
2, 210456, Note_on_c, 0, 84, 48
2, 210457, Note_on_c, 0, 92, 97
2, 210471, Note_on_c, 0, 92, 0
2, 210472, Note_on_c, 0, 84, 0
2, 210478, Control_c, 0, 67, 0
2, 210528, Note_on_c, 0, 87, 91
2, 210533, Note_on_c, 0, 91, 91
2, 210552, Note_on_c, 0, 87, 0
2, 210564, Note_on_c, 0, 91, 0
2, 210619, Note_on_c, 0, 89, 86
2, 210624, Note_on_c, 0, 81, 81
2, 210632, Control_c, 0, 64, 0
2, 210648, Note_on_c, 0, 81, 0
2, 210652, Note_on_c, 0, 89, 0
2, 210696, Note_on_c, 0, 84, 85
2, 210702, Note_on_c, 0, 90, 85
2, 210719, Note_on_c, 0, 90, 0
2, 210720, Note_on_c, 0, 84, 0
2, 210728, Control_c, 0, 67, 127
2, 210787, Note_on_c, 0, 91, 99
2, 210788, Note_on_c, 0, 79, 88
2, 210801, Note_on_c, 0, 91, 0
2, 210803, Note_on_c, 0, 79, 0
2, 210858, Control_c, 0, 64, 127
2, 210872, Note_on_c, 0, 90, 103
2, 210877, Note_on_c, 0, 67, 70
2, 210899, Note_on_c, 0, 67, 0
2, 210904, Note_on_c, 0, 90, 0
2, 210962, Note_on_c, 0, 89, 86
2, 210966, Note_on_c, 0, 76, 57
2, 210968, Note_on_c, 0, 71, 75
2, 210972, Note_on_c, 0, 79, 55
2, 210980, Note_on_c, 0, 89, 0
2, 210983, Note_on_c, 0, 76, 0
2, 210984, Note_on_c, 0, 71, 0
2, 210989, Note_on_c, 0, 79, 0
2, 211037, Note_on_c, 0, 88, 92
2, 211038, Note_on_c, 0, 64, 92
2, 211053, Note_on_c, 0, 64, 0
2, 211054, Note_on_c, 0, 88, 0
2, 211102, Control_c, 0, 64, 0
2, 211124, Note_on_c, 0, 88, 87
2, 211125, Note_on_c, 0, 79, 93
2, 211151, Note_on_c, 0, 79, 0
2, 211155, Note_on_c, 0, 88, 0
2, 211190, Control_c, 0, 67, 0
2, 211204, Note_on_c, 0, 67, 86
2, 211207, Control_c, 0, 64, 127
2, 211208, Note_on_c, 0, 87, 84
2, 211214, Note_on_c, 0, 82, 53
2, 211217, Note_on_c, 0, 67, 0
2, 211222, Note_on_c, 0, 87, 0
2, 211231, Note_on_c, 0, 82, 0
2, 211285, Note_on_c, 0, 86, 90
2, 211287, Note_on_c, 0, 70, 82
2, 211292, Note_on_c, 0, 76, 69
2, 211301, Note_on_c, 0, 70, 0
2, 211307, Note_on_c, 0, 86, 0
2, 211308, Note_on_c, 0, 76, 0
2, 211366, Note_on_c, 0, 85, 100
2, 211384, Note_on_c, 0, 79, 40
2, 211391, Note_on_c, 0, 85, 0
2, 211400, Note_on_c, 0, 79, 0
2, 211445, Note_on_c, 0, 84, 92
2, 211453, Note_on_c, 0, 76, 71
2, 211469, Note_on_c, 0, 76, 0
2, 211479, Note_on_c, 0, 84, 0
2, 211528, Note_on_c, 0, 83, 93
2, 211531, Control_c, 0, 64, 0
2, 211535, Note_on_c, 0, 79, 77
2, 211552, Note_on_c, 0, 79, 0
2, 211568, Note_on_c, 0, 83, 0
2, 211618, Note_on_c, 0, 81, 78
2, 211631, Note_on_c, 0, 73, 44
2, 211646, Note_on_c, 0, 81, 0
2, 211649, Note_on_c, 0, 73, 0
2, 211707, Note_on_c, 0, 82, 78
2, 211750, Note_on_c, 0, 82, 0
2, 211773, Note_on_c, 0, 44, 63
2, 211812, Control_c, 0, 64, 127
2, 211819, Note_on_c, 0, 44, 0
2, 211823, Note_on_c, 0, 83, 78
2, 211829, Note_on_c, 0, 71, 62
2, 211846, Note_on_c, 0, 71, 0
2, 211851, Note_on_c, 0, 83, 0
2, 211859, Control_c, 0, 67, 127
2, 211921, Note_on_c, 0, 82, 82
2, 211925, Note_on_c, 0, 75, 58
2, 211942, Note_on_c, 0, 75, 0
2, 211943, Note_on_c, 0, 82, 0
2, 212015, Note_on_c, 0, 81, 71
2, 212021, Note_on_c, 0, 71, 42
2, 212035, Note_on_c, 0, 81, 0
2, 212037, Note_on_c, 0, 71, 0
2, 212081, Note_on_c, 0, 80, 71
2, 212087, Note_on_c, 0, 75, 49
2, 212109, Note_on_c, 0, 75, 0
2, 212128, Note_on_c, 0, 80, 0
2, 212172, Note_on_c, 0, 79, 61
2, 212172, Note_on_c, 0, 71, 43
2, 212188, Note_on_c, 0, 71, 0
2, 212191, Note_on_c, 0, 79, 0
2, 212233, Note_on_c, 0, 80, 99
2, 212243, Note_on_c, 0, 75, 71
2, 212259, Note_on_c, 0, 75, 0
2, 212266, Control_c, 0, 67, 0
2, 212273, Note_on_c, 0, 80, 0
2, 212309, Note_on_c, 0, 68, 55
2, 212311, Note_on_c, 0, 71, 90
2, 212311, Note_on_c, 0, 81, 92
2, 212314, Note_on_c, 0, 63, 58
2, 212318, Note_on_c, 0, 59, 56
2, 212323, Control_c, 0, 64, 0
2, 212327, Note_on_c, 0, 68, 0
2, 212328, Note_on_c, 0, 81, 0
2, 212330, Note_on_c, 0, 63, 0
2, 212331, Note_on_c, 0, 71, 0
2, 212337, Note_on_c, 0, 59, 0
2, 212375, Control_c, 0, 64, 127
2, 212376, Note_on_c, 0, 82, 98
2, 212379, Note_on_c, 0, 59, 74
2, 212380, Note_on_c, 0, 68, 66
2, 212387, Note_on_c, 0, 63, 45
2, 212387, Note_on_c, 0, 75, 50
2, 212397, Note_on_c, 0, 68, 0
2, 212400, Note_on_c, 0, 59, 0
2, 212401, Note_on_c, 0, 75, 0
2, 212402, Note_on_c, 0, 63, 0
2, 212413, Note_on_c, 0, 82, 0
2, 212444, Note_on_c, 0, 68, 63
2, 212444, Note_on_c, 0, 75, 71
2, 212444, Note_on_c, 0, 83, 105
2, 212445, Note_on_c, 0, 63, 60
2, 212445, Note_on_c, 0, 59, 84
2, 212463, Note_on_c, 0, 63, 0
2, 212464, Note_on_c, 0, 75, 0
2, 212464, Note_on_c, 0, 68, 0
2, 212469, Note_on_c, 0, 59, 0
2, 212476, Note_on_c, 0, 83, 0
2, 212517, Note_on_c, 0, 84, 101
2, 212523, Note_on_c, 0, 80, 89
2, 212549, Note_on_c, 0, 80, 0
2, 212549, Note_on_c, 0, 84, 0
2, 212586, Note_on_c, 0, 59, 89
2, 212591, Note_on_c, 0, 68, 78
2, 212594, Note_on_c, 0, 85, 111
2, 212598, Note_on_c, 0, 75, 102
2, 212624, Note_on_c, 0, 75, 0
2, 212624, Note_on_c, 0, 63, 35
2, 212625, Note_on_c, 0, 68, 0
2, 212639, Note_on_c, 0, 85, 0
2, 212662, Note_on_c, 0, 63, 0
2, 212668, Note_on_c, 0, 86, 100
2, 212675, Note_on_c, 0, 80, 78
2, 212702, Note_on_c, 0, 57, 87
2, 212707, Control_c, 0, 64, 0
2, 212711, Note_on_c, 0, 80, 0
2, 212711, Note_on_c, 0, 59, 0
2, 212726, Note_on_c, 0, 86, 0
2, 212728, Note_on_c, 0, 63, 102
2, 212789, Note_on_c, 0, 66, 118
2, 212803, Note_on_c, 0, 63, 0
2, 212808, Note_on_c, 0, 87, 80
2, 212809, Note_on_c, 0, 78, 81
2, 212813, Control_c, 0, 64, 127
2, 212840, Note_on_c, 0, 78, 0
2, 212866, Note_on_c, 0, 87, 0
2, 212880, Note_on_c, 0, 57, 0
2, 212905, Note_on_c, 0, 88, 84
2, 212913, Note_on_c, 0, 66, 0
2, 212920, Note_on_c, 0, 87, 56
2, 212934, Note_on_c, 0, 87, 0
2, 212945, Note_on_c, 0, 88, 0
2, 212986, Note_on_c, 0, 89, 84
2, 212988, Note_on_c, 0, 83, 64
2, 213006, Note_on_c, 0, 83, 0
2, 213017, Note_on_c, 0, 89, 0
2, 213064, Note_on_c, 0, 90, 84
2, 213065, Note_on_c, 0, 73, 80
2, 213071, Note_on_c, 0, 83, 47
2, 213089, Note_on_c, 0, 83, 0
2, 213092, Note_on_c, 0, 90, 0
2, 213096, Note_on_c, 0, 73, 0
2, 213136, Note_on_c, 0, 92, 100
2, 213143, Note_on_c, 0, 66, 58
2, 213143, Note_on_c, 0, 63, 71
2, 213144, Note_on_c, 0, 71, 79
2, 213148, Control_c, 0, 64, 0
2, 213152, Control_c, 0, 67, 127
2, 213172, Note_on_c, 0, 92, 0
2, 213213, Control_c, 0, 64, 127
2, 213217, Note_on_c, 0, 90, 86
2, 213227, Note_on_c, 0, 83, 75
2, 213244, Note_on_c, 0, 83, 0
2, 213252, Note_on_c, 0, 90, 0
2, 213306, Note_on_c, 0, 78, 93
2, 213306, Note_on_c, 0, 89, 99
2, 213324, Note_on_c, 0, 78, 0
2, 213334, Note_on_c, 0, 89, 0
2, 213383, Note_on_c, 0, 88, 81
2, 213386, Note_on_c, 0, 83, 74
2, 213389, Note_on_c, 0, 87, 33
2, 213399, Note_on_c, 0, 88, 0
2, 213403, Note_on_c, 0, 83, 0
2, 213404, Note_on_c, 0, 87, 0
2, 213465, Note_on_c, 0, 87, 94
2, 213465, Note_on_c, 0, 78, 89
2, 213479, Note_on_c, 0, 71, 0
2, 213482, Note_on_c, 0, 78, 0
2, 213503, Note_on_c, 0, 87, 0
2, 213507, Note_on_c, 0, 66, 0
2, 213522, Note_on_c, 0, 63, 0
2, 213535, Note_on_c, 0, 85, 91
2, 213543, Note_on_c, 0, 81, 69
2, 213560, Note_on_c, 0, 81, 0
2, 213571, Note_on_c, 0, 85, 0
2, 213610, Note_on_c, 0, 75, 73
2, 213612, Note_on_c, 0, 84, 93
2, 213625, Note_on_c, 0, 75, 0
2, 213628, Note_on_c, 0, 84, 0
2, 213684, Note_on_c, 0, 78, 90
2, 213687, Note_on_c, 0, 83, 74
2, 213709, Note_on_c, 0, 83, 0
2, 213724, Note_on_c, 0, 78, 0
2, 213751, Control_c, 0, 64, 0
2, 213767, Note_on_c, 0, 44, 68
2, 213821, Control_c, 0, 64, 127
2, 213834, Note_on_c, 0, 83, 82
2, 213842, Note_on_c, 0, 71, 62
2, 213859, Note_on_c, 0, 44, 0
2, 213861, Note_on_c, 0, 71, 0
2, 213874, Note_on_c, 0, 83, 0
2, 213935, Note_on_c, 0, 82, 63
2, 213937, Note_on_c, 0, 75, 64
2, 213953, Note_on_c, 0, 75, 0
2, 213954, Note_on_c, 0, 82, 0
2, 214002, Note_on_c, 0, 81, 84
2, 214016, Note_on_c, 0, 71, 51
2, 214027, Note_on_c, 0, 81, 0
2, 214033, Note_on_c, 0, 71, 0
2, 214072, Note_on_c, 0, 75, 87
2, 214073, Note_on_c, 0, 80, 80
2, 214111, Note_on_c, 0, 80, 0
2, 214114, Note_on_c, 0, 75, 0
2, 214149, Note_on_c, 0, 79, 75
2, 214151, Note_on_c, 0, 71, 56
2, 214169, Note_on_c, 0, 71, 0
2, 214171, Note_on_c, 0, 79, 0
2, 214213, Note_on_c, 0, 80, 100
2, 214219, Note_on_c, 0, 75, 78
2, 214240, Note_on_c, 0, 75, 0
2, 214256, Note_on_c, 0, 80, 0
2, 214282, Note_on_c, 0, 71, 97
2, 214282, Note_on_c, 0, 81, 90
2, 214286, Note_on_c, 0, 68, 66
2, 214291, Note_on_c, 0, 63, 62
2, 214295, Note_on_c, 0, 59, 59
2, 214300, Note_on_c, 0, 71, 0
2, 214302, Note_on_c, 0, 68, 0
2, 214303, Control_c, 0, 64, 0
2, 214305, Note_on_c, 0, 81, 0
2, 214305, Note_on_c, 0, 63, 0
2, 214314, Note_on_c, 0, 59, 0
2, 214316, Control_c, 0, 67, 0
2, 214342, Note_on_c, 0, 68, 79
2, 214345, Note_on_c, 0, 63, 63
2, 214345, Note_on_c, 0, 59, 90
2, 214345, Note_on_c, 0, 82, 100
2, 214349, Note_on_c, 0, 75, 82
2, 214359, Control_c, 0, 64, 127
2, 214362, Note_on_c, 0, 75, 0
2, 214363, Note_on_c, 0, 59, 0
2, 214363, Note_on_c, 0, 63, 0
2, 214368, Note_on_c, 0, 68, 0
2, 214377, Note_on_c, 0, 82, 0
2, 214408, Note_on_c, 0, 68, 71
2, 214409, Note_on_c, 0, 75, 77
2, 214412, Note_on_c, 0, 63, 72
2, 214412, Note_on_c, 0, 83, 102
2, 214412, Note_on_c, 0, 59, 83
2, 214428, Note_on_c, 0, 75, 0
2, 214431, Note_on_c, 0, 63, 0
2, 214441, Note_on_c, 0, 68, 0
2, 214444, Note_on_c, 0, 83, 0
2, 214463, Note_on_c, 0, 59, 0
2, 214486, Note_on_c, 0, 84, 95
2, 214515, Note_on_c, 0, 84, 0
2, 214548, Note_on_c, 0, 59, 87
2, 214552, Note_on_c, 0, 68, 90
2, 214563, Note_on_c, 0, 85, 95
2, 214567, Note_on_c, 0, 75, 98
2, 214580, Note_on_c, 0, 75, 0
2, 214590, Note_on_c, 0, 63, 79
2, 214594, Note_on_c, 0, 68, 0
2, 214604, Note_on_c, 0, 85, 0
2, 214631, Note_on_c, 0, 86, 100
2, 214639, Note_on_c, 0, 80, 84
2, 214647, Note_on_c, 0, 63, 0
2, 214657, Note_on_c, 0, 59, 0
2, 214657, Note_on_c, 0, 80, 0
2, 214659, Note_on_c, 0, 57, 92
2, 214677, Control_c, 0, 64, 0
2, 214680, Note_on_c, 0, 86, 0
2, 214680, Note_on_c, 0, 63, 84
2, 214720, Note_on_c, 0, 66, 121
2, 214745, Note_on_c, 0, 63, 0
2, 214755, Note_on_c, 0, 87, 97
2, 214758, Note_on_c, 0, 78, 94
2, 214775, Control_c, 0, 64, 127
2, 214790, Note_on_c, 0, 78, 0
2, 214803, Note_on_c, 0, 87, 0
2, 214809, Note_on_c, 0, 57, 0
2, 214837, Note_on_c, 0, 88, 82
2, 214840, Note_on_c, 0, 66, 0
2, 214840, Note_on_c, 0, 83, 80
2, 214850, Note_on_c, 0, 87, 48
2, 214856, Note_on_c, 0, 83, 0
2, 214862, Note_on_c, 0, 87, 0
2, 214874, Note_on_c, 0, 88, 0
2, 214913, Note_on_c, 0, 89, 100
2, 214917, Note_on_c, 0, 83, 84
2, 214933, Note_on_c, 0, 83, 0
2, 214947, Note_on_c, 0, 89, 0
2, 214983, Note_on_c, 0, 90, 102
2, 214987, Note_on_c, 0, 83, 69
2, 214993, Note_on_c, 0, 73, 68
2, 215005, Note_on_c, 0, 83, 0
2, 215018, Note_on_c, 0, 73, 0
2, 215018, Note_on_c, 0, 90, 0
2, 215058, Note_on_c, 0, 92, 108
2, 215059, Note_on_c, 0, 66, 86
2, 215059, Note_on_c, 0, 87, 84
2, 215060, Note_on_c, 0, 71, 95
2, 215064, Note_on_c, 0, 63, 82
2, 215082, Note_on_c, 0, 87, 0
2, 215084, Note_on_c, 0, 92, 0
2, 215088, Control_c, 0, 64, 0
2, 215127, Note_on_c, 0, 90, 93
2, 215134, Note_on_c, 0, 83, 84
2, 215143, Control_c, 0, 67, 127
2, 215148, Note_on_c, 0, 83, 0
2, 215154, Control_c, 0, 64, 127
2, 215158, Note_on_c, 0, 90, 0
2, 215205, Note_on_c, 0, 89, 98
2, 215206, Note_on_c, 0, 78, 90
2, 215223, Note_on_c, 0, 78, 0
2, 215237, Note_on_c, 0, 89, 0
2, 215279, Note_on_c, 0, 83, 80
2, 215283, Note_on_c, 0, 88, 58
2, 215284, Note_on_c, 0, 87, 28
2, 215295, Note_on_c, 0, 83, 0
2, 215300, Note_on_c, 0, 88, 0
2, 215300, Note_on_c, 0, 87, 0
2, 215351, Note_on_c, 0, 87, 71
2, 215356, Note_on_c, 0, 78, 67
2, 215374, Note_on_c, 0, 78, 0
2, 215389, Note_on_c, 0, 87, 0
2, 215395, Note_on_c, 0, 71, 0
2, 215421, Note_on_c, 0, 85, 91
2, 215428, Note_on_c, 0, 81, 71
2, 215440, Note_on_c, 0, 66, 0
2, 215445, Note_on_c, 0, 81, 0
2, 215456, Note_on_c, 0, 85, 0
2, 215456, Note_on_c, 0, 63, 0
2, 215498, Note_on_c, 0, 75, 72
2, 215505, Note_on_c, 0, 84, 65
2, 215514, Note_on_c, 0, 75, 0
2, 215523, Note_on_c, 0, 84, 0
2, 215577, Note_on_c, 0, 78, 63
2, 215577, Note_on_c, 0, 83, 80
2, 215597, Note_on_c, 0, 83, 0
2, 215604, Note_on_c, 0, 78, 0
2, 215646, Control_c, 0, 64, 0
2, 215660, Note_on_c, 0, 44, 75
2, 215717, Note_on_c, 0, 83, 92
2, 215720, Control_c, 0, 64, 127
2, 215721, Note_on_c, 0, 71, 84
2, 215737, Note_on_c, 0, 71, 0
2, 215757, Note_on_c, 0, 83, 0
2, 215784, Note_on_c, 0, 44, 0
2, 215818, Note_on_c, 0, 82, 85
2, 215821, Note_on_c, 0, 75, 69
2, 215839, Note_on_c, 0, 82, 0
2, 215842, Note_on_c, 0, 75, 0
2, 215891, Note_on_c, 0, 81, 90
2, 215904, Note_on_c, 0, 71, 55
2, 215921, Note_on_c, 0, 71, 0
2, 215927, Note_on_c, 0, 81, 0
2, 215954, Note_on_c, 0, 80, 90
2, 215958, Note_on_c, 0, 75, 84
2, 215999, Note_on_c, 0, 75, 0
2, 215999, Note_on_c, 0, 80, 0
2, 216029, Note_on_c, 0, 79, 84
2, 216031, Note_on_c, 0, 71, 76
2, 216054, Note_on_c, 0, 71, 0
2, 216063, Note_on_c, 0, 79, 0
2, 216094, Note_on_c, 0, 75, 88
2, 216095, Note_on_c, 0, 80, 75
2, 216116, Control_c, 0, 67, 0
2, 216137, Note_on_c, 0, 75, 0
2, 216139, Note_on_c, 0, 80, 0
2, 216154, Note_on_c, 0, 81, 92
2, 216156, Note_on_c, 0, 71, 88
2, 216157, Note_on_c, 0, 59, 67
2, 216159, Note_on_c, 0, 63, 51
2, 216170, Note_on_c, 0, 71, 0
2, 216175, Note_on_c, 0, 63, 0
2, 216176, Note_on_c, 0, 59, 0
2, 216188, Note_on_c, 0, 81, 0
2, 216206, Control_c, 0, 64, 0
2, 216207, Note_on_c, 0, 68, 82
2, 216211, Note_on_c, 0, 63, 71
2, 216211, Note_on_c, 0, 59, 86
2, 216216, Note_on_c, 0, 82, 95
2, 216219, Note_on_c, 0, 75, 86
2, 216228, Note_on_c, 0, 63, 0
2, 216228, Note_on_c, 0, 80, 41
2, 216229, Note_on_c, 0, 59, 0
2, 216233, Note_on_c, 0, 75, 0
2, 216233, Note_on_c, 0, 68, 0
2, 216243, Note_on_c, 0, 80, 0
2, 216243, Control_c, 0, 64, 127
2, 216245, Note_on_c, 0, 82, 0
2, 216271, Note_on_c, 0, 68, 71
2, 216275, Note_on_c, 0, 59, 87
2, 216276, Note_on_c, 0, 75, 89
2, 216277, Note_on_c, 0, 63, 68
2, 216281, Note_on_c, 0, 83, 97
2, 216292, Note_on_c, 0, 63, 0
2, 216293, Note_on_c, 0, 68, 0
2, 216304, Note_on_c, 0, 83, 0
2, 216304, Note_on_c, 0, 75, 0
2, 216321, Note_on_c, 0, 59, 0
2, 216347, Note_on_c, 0, 84, 88
2, 216350, Note_on_c, 0, 83, 92
2, 216362, Note_on_c, 0, 83, 0
2, 216377, Note_on_c, 0, 84, 0
2, 216416, Note_on_c, 0, 68, 86
2, 216418, Note_on_c, 0, 59, 47
2, 216419, Note_on_c, 0, 85, 117
2, 216421, Note_on_c, 0, 63, 91
2, 216441, Note_on_c, 0, 59, 0
2, 216445, Note_on_c, 0, 68, 0
2, 216463, Note_on_c, 0, 85, 0
2, 216491, Note_on_c, 0, 86, 101
2, 216516, Note_on_c, 0, 63, 0
2, 216526, Note_on_c, 0, 86, 0
2, 216540, Control_c, 0, 64, 0
2, 216548, Note_on_c, 0, 56, 104
2, 216604, Note_on_c, 0, 86, 95
2, 216611, Note_on_c, 0, 77, 80
2, 216621, Control_c, 0, 64, 127
2, 216627, Note_on_c, 0, 77, 0
2, 216641, Note_on_c, 0, 86, 0
2, 216664, Note_on_c, 0, 56, 0
2, 216698, Note_on_c, 0, 85, 102
2, 216703, Note_on_c, 0, 80, 84
2, 216712, Note_on_c, 0, 85, 0
2, 216720, Note_on_c, 0, 80, 0
2, 216765, Note_on_c, 0, 84, 89
2, 216774, Note_on_c, 0, 77, 79
2, 216789, Note_on_c, 0, 77, 0
2, 216796, Note_on_c, 0, 84, 0
2, 216830, Note_on_c, 0, 83, 97
2, 216846, Note_on_c, 0, 80, 41
2, 216864, Note_on_c, 0, 80, 0
2, 216873, Note_on_c, 0, 83, 0
2, 216899, Note_on_c, 0, 82, 97
2, 216906, Note_on_c, 0, 74, 87
2, 216923, Note_on_c, 0, 74, 0
2, 216936, Note_on_c, 0, 82, 0
2, 216966, Note_on_c, 0, 83, 98
2, 216970, Note_on_c, 0, 80, 80
2, 216970, Note_on_c, 0, 82, 41
2, 216989, Note_on_c, 0, 82, 0
2, 217002, Note_on_c, 0, 83, 0
2, 217004, Note_on_c, 0, 80, 0
2, 217012, Control_c, 0, 64, 0
2, 217028, Note_on_c, 0, 84, 91
2, 217031, Note_on_c, 0, 71, 73
2, 217031, Note_on_c, 0, 65, 76
2, 217033, Note_on_c, 0, 62, 74
2, 217037, Note_on_c, 0, 77, 77
2, 217046, Note_on_c, 0, 65, 0
2, 217048, Note_on_c, 0, 62, 0
2, 217049, Note_on_c, 0, 71, 0
2, 217055, Note_on_c, 0, 77, 0
2, 217058, Control_c, 0, 64, 127
2, 217061, Note_on_c, 0, 84, 0
2, 217088, Note_on_c, 0, 85, 110
2, 217088, Note_on_c, 0, 62, 65
2, 217088, Note_on_c, 0, 65, 69
2, 217089, Note_on_c, 0, 71, 62
2, 217093, Note_on_c, 0, 80, 99
2, 217107, Note_on_c, 0, 65, 0
2, 217107, Note_on_c, 0, 62, 0
2, 217108, Note_on_c, 0, 71, 0
2, 217124, Note_on_c, 0, 85, 0
2, 217132, Note_on_c, 0, 80, 0
2, 217146, Note_on_c, 0, 71, 77
2, 217149, Note_on_c, 0, 86, 106
2, 217150, Note_on_c, 0, 62, 71
2, 217151, Note_on_c, 0, 65, 70
2, 217151, Note_on_c, 0, 77, 100
2, 217168, Note_on_c, 0, 65, 0
2, 217175, Note_on_c, 0, 62, 0
2, 217179, Note_on_c, 0, 77, 0
2, 217179, Note_on_c, 0, 86, 0
2, 217180, Note_on_c, 0, 71, 0
2, 217217, Note_on_c, 0, 87, 105
2, 217221, Note_on_c, 0, 80, 105
2, 217235, Note_on_c, 0, 80, 0
2, 217245, Note_on_c, 0, 87, 0
2, 217281, Note_on_c, 0, 71, 80
2, 217283, Note_on_c, 0, 80, 99
2, 217284, Note_on_c, 0, 62, 74
2, 217285, Note_on_c, 0, 65, 74
2, 217289, Note_on_c, 0, 88, 91
2, 217297, Note_on_c, 0, 71, 0
2, 217301, Note_on_c, 0, 80, 0
2, 217304, Note_on_c, 0, 88, 0
2, 217309, Note_on_c, 0, 65, 0
2, 217354, Note_on_c, 0, 62, 0
2, 217356, Note_on_c, 0, 89, 89
2, 217397, Note_on_c, 0, 89, 0
2, 217455, Control_c, 0, 64, 0
2, 217506, Control_c, 0, 67, 127
2, 217513, Note_on_c, 0, 57, 71
2, 217551, Note_on_c, 0, 90, 67
2, 217560, Note_on_c, 0, 86, 77
2, 217565, Note_on_c, 0, 81, 62
2, 217613, Control_c, 0, 64, 127
2, 217662, Note_on_c, 0, 57, 0
2, 217717, Note_on_c, 0, 66, 81
2, 217761, Note_on_c, 0, 66, 0
2, 217787, Note_on_c, 0, 69, 77
2, 217800, Note_on_c, 0, 69, 0
2, 217816, Note_on_c, 0, 81, 0
2, 217845, Note_on_c, 0, 74, 83
2, 217871, Note_on_c, 0, 86, 0
2, 217881, Note_on_c, 0, 74, 0
2, 217904, Note_on_c, 0, 78, 85
2, 217920, Note_on_c, 0, 90, 0
2, 217935, Note_on_c, 0, 78, 0
2, 217950, Note_on_c, 0, 81, 99
2, 217999, Note_on_c, 0, 81, 0
2, 218006, Note_on_c, 0, 80, 79
2, 218030, Note_on_c, 0, 79, 92
2, 218036, Note_on_c, 0, 80, 0
2, 218073, Note_on_c, 0, 79, 0
2, 218075, Note_on_c, 0, 78, 94
2, 218095, Note_on_c, 0, 78, 0
2, 218106, Note_on_c, 0, 89, 93
2, 218107, Note_on_c, 0, 85, 90
2, 218118, Note_on_c, 0, 77, 85
2, 218155, Note_on_c, 0, 85, 0
2, 218159, Note_on_c, 0, 77, 0
2, 218163, Note_on_c, 0, 76, 91
2, 218166, Note_on_c, 0, 89, 0
2, 218186, Note_on_c, 0, 90, 94
2, 218192, Note_on_c, 0, 86, 94
2, 218192, Control_c, 0, 67, 0
2, 218193, Note_on_c, 0, 75, 72
2, 218194, Note_on_c, 0, 76, 0
2, 218208, Note_on_c, 0, 75, 0
2, 218217, Note_on_c, 0, 74, 83
2, 218238, Note_on_c, 0, 86, 0
2, 218242, Control_c, 0, 64, 0
2, 218258, Note_on_c, 0, 74, 0
2, 218260, Note_on_c, 0, 73, 98
2, 218261, Note_on_c, 0, 90, 0
2, 218285, Note_on_c, 0, 81, 70
2, 218296, Note_on_c, 0, 73, 0
2, 218301, Note_on_c, 0, 81, 0
2, 218307, Control_c, 0, 64, 127
2, 218310, Note_on_c, 0, 93, 100
2, 218317, Note_on_c, 0, 90, 78
2, 218351, Note_on_c, 0, 93, 0
2, 218359, Note_on_c, 0, 90, 0
2, 218474, Note_on_c, 0, 91, 100
2, 218478, Note_on_c, 0, 88, 77
2, 218481, Control_c, 0, 64, 0
2, 218491, Note_on_c, 0, 91, 0
2, 218494, Note_on_c, 0, 88, 0
2, 218641, Note_on_c, 0, 90, 71
2, 218650, Note_on_c, 0, 86, 58
2, 218668, Note_on_c, 0, 86, 0
2, 218671, Note_on_c, 0, 90, 0
2, 218702, Note_on_c, 0, 90, 90
2, 218704, Note_on_c, 0, 86, 78
2, 218714, Control_c, 0, 67, 127
2, 218723, Note_on_c, 0, 57, 57
2, 218734, Control_c, 0, 64, 127
2, 218744, Note_on_c, 0, 57, 0
2, 218787, Note_on_c, 0, 66, 71
2, 218813, Note_on_c, 0, 66, 0
2, 218837, Note_on_c, 0, 69, 53
2, 218853, Note_on_c, 0, 69, 0
2, 218889, Note_on_c, 0, 74, 72
2, 218921, Note_on_c, 0, 74, 0
2, 218948, Note_on_c, 0, 78, 84
2, 218975, Note_on_c, 0, 78, 0
2, 218998, Note_on_c, 0, 81, 89
2, 219037, Note_on_c, 0, 90, 0
2, 219044, Note_on_c, 0, 81, 0
2, 219047, Note_on_c, 0, 80, 69
2, 219083, Note_on_c, 0, 80, 0
2, 219085, Note_on_c, 0, 79, 81
2, 219113, Note_on_c, 0, 79, 0
2, 219113, Note_on_c, 0, 78, 92
2, 219116, Note_on_c, 0, 86, 0
2, 219133, Control_c, 0, 67, 0
2, 219145, Note_on_c, 0, 78, 0
2, 219161, Note_on_c, 0, 85, 94
2, 219166, Note_on_c, 0, 89, 88
2, 219177, Note_on_c, 0, 77, 77
2, 219212, Note_on_c, 0, 77, 0
2, 219216, Note_on_c, 0, 85, 0
2, 219221, Note_on_c, 0, 76, 71
2, 219223, Note_on_c, 0, 89, 0
2, 219238, Note_on_c, 0, 76, 0
2, 219238, Note_on_c, 0, 75, 86
2, 219244, Note_on_c, 0, 90, 91
2, 219250, Note_on_c, 0, 86, 88
2, 219258, Note_on_c, 0, 75, 0
2, 219281, Note_on_c, 0, 74, 84
2, 219289, Note_on_c, 0, 86, 0
2, 219301, Note_on_c, 0, 90, 0
2, 219310, Control_c, 0, 64, 0
2, 219331, Note_on_c, 0, 74, 0
2, 219334, Note_on_c, 0, 81, 91
2, 219347, Note_on_c, 0, 81, 0
2, 219356, Control_c, 0, 64, 127
2, 219362, Note_on_c, 0, 92, 105
2, 219368, Note_on_c, 0, 89, 81
2, 219385, Note_on_c, 0, 89, 0
2, 219401, Note_on_c, 0, 92, 0
2, 219475, Note_on_c, 0, 90, 85
2, 219475, Note_on_c, 0, 93, 100
2, 219490, Note_on_c, 0, 93, 0
2, 219494, Note_on_c, 0, 90, 0
2, 219545, Control_c, 0, 64, 0
2, 219644, Note_on_c, 0, 86, 72
2, 219644, Note_on_c, 0, 95, 88
2, 219661, Note_on_c, 0, 95, 0
2, 219664, Note_on_c, 0, 86, 0
2, 219689, Note_on_c, 0, 56, 81
2, 219711, Control_c, 0, 64, 127
2, 219753, Note_on_c, 0, 97, 99
2, 219765, Note_on_c, 0, 88, 72
2, 219784, Note_on_c, 0, 88, 0
2, 219803, Note_on_c, 0, 56, 0
2, 219810, Note_on_c, 0, 64, 71
2, 219841, Note_on_c, 0, 64, 0
2, 219876, Note_on_c, 0, 68, 66
2, 219892, Note_on_c, 0, 68, 0
2, 219939, Note_on_c, 0, 73, 76
2, 219989, Note_on_c, 0, 73, 0
2, 219995, Note_on_c, 0, 97, 0
2, 219995, Note_on_c, 0, 76, 72
2, 220012, Note_on_c, 0, 76, 0
2, 220045, Note_on_c, 0, 80, 94
2, 220053, Note_on_c, 0, 99, 102
2, 220057, Note_on_c, 0, 90, 71
2, 220071, Note_on_c, 0, 80, 0
2, 220077, Note_on_c, 0, 90, 0
2, 220087, Note_on_c, 0, 99, 0
2, 220109, Note_on_c, 0, 79, 83
2, 220121, Note_on_c, 0, 100, 110
2, 220125, Note_on_c, 0, 79, 0
2, 220127, Note_on_c, 0, 92, 102
2, 220167, Note_on_c, 0, 78, 80
2, 220194, Note_on_c, 0, 78, 0
2, 220222, Note_on_c, 0, 77, 90
2, 220240, Note_on_c, 0, 77, 0
2, 220259, Note_on_c, 0, 92, 0
2, 220264, Note_on_c, 0, 100, 0
2, 220285, Note_on_c, 0, 76, 76
2, 220324, Note_on_c, 0, 76, 0
2, 220325, Note_on_c, 0, 75, 78
2, 220359, Note_on_c, 0, 75, 0
2, 220361, Note_on_c, 0, 74, 85
2, 220379, Note_on_c, 0, 74, 0
2, 220382, Note_on_c, 0, 73, 77
2, 220418, Control_c, 0, 64, 0
2, 220419, Note_on_c, 0, 73, 0
2, 220426, Note_on_c, 0, 72, 89
2, 220446, Note_on_c, 0, 72, 0
2, 220450, Note_on_c, 0, 80, 86
2, 220461, Note_on_c, 0, 102, 93
2, 220465, Note_on_c, 0, 80, 0
2, 220469, Note_on_c, 0, 93, 93
2, 220479, Control_c, 0, 64, 127
2, 220507, Note_on_c, 0, 102, 0
2, 220512, Note_on_c, 0, 93, 0
2, 220597, Note_on_c, 0, 99, 94
2, 220600, Note_on_c, 0, 90, 77
2, 220615, Note_on_c, 0, 99, 0
2, 220625, Control_c, 0, 64, 0
2, 220628, Note_on_c, 0, 90, 0
2, 220750, Note_on_c, 0, 100, 73
2, 220753, Note_on_c, 0, 92, 80
2, 220778, Note_on_c, 0, 100, 0
2, 220784, Note_on_c, 0, 92, 0
2, 220816, Control_c, 0, 67, 127
2, 220822, Note_on_c, 0, 90, 73
2, 220822, Note_on_c, 0, 99, 90
2, 220829, Note_on_c, 0, 61, 66
2, 220848, Control_c, 0, 64, 127
2, 220894, Note_on_c, 0, 61, 0
2, 220899, Note_on_c, 0, 68, 60
2, 220941, Note_on_c, 0, 68, 0
2, 220946, Note_on_c, 0, 99, 0
2, 220954, Note_on_c, 0, 90, 0
2, 220959, Note_on_c, 0, 69, 80
2, 220974, Note_on_c, 0, 69, 0
2, 221008, Note_on_c, 0, 70, 79
2, 221033, Note_on_c, 0, 70, 0
2, 221053, Control_c, 0, 67, 0
2, 221056, Note_on_c, 0, 71, 87
2, 221073, Note_on_c, 0, 71, 0
2, 221109, Note_on_c, 0, 72, 70
2, 221149, Control_c, 0, 64, 0
2, 221149, Note_on_c, 0, 97, 112
2, 221154, Note_on_c, 0, 72, 0
2, 221154, Note_on_c, 0, 73, 98
2, 221158, Note_on_c, 0, 88, 88
2, 221175, Note_on_c, 0, 88, 0
2, 221177, Note_on_c, 0, 97, 0
2, 221191, Note_on_c, 0, 73, 0
2, 221204, Note_on_c, 0, 76, 81
2, 221208, Control_c, 0, 64, 127
2, 221223, Note_on_c, 0, 76, 0
2, 221242, Note_on_c, 0, 80, 94
2, 221267, Note_on_c, 0, 80, 0
2, 221301, Note_on_c, 0, 85, 109
2, 221312, Note_on_c, 0, 85, 0
2, 221455, Control_c, 0, 64, 0
2, 221486, Note_on_c, 0, 84, 101
2, 221494, Note_on_c, 0, 81, 82
2, 221519, Control_c, 0, 67, 127
2, 221527, Note_on_c, 0, 81, 0
2, 221527, Note_on_c, 0, 84, 0
2, 221534, Control_c, 0, 64, 127
2, 221629, Note_on_c, 0, 83, 92
2, 221633, Note_on_c, 0, 80, 89
2, 221663, Note_on_c, 0, 80, 0
2, 221664, Note_on_c, 0, 83, 0
2, 221714, Note_on_c, 0, 82, 101
2, 221720, Note_on_c, 0, 79, 90
2, 221735, Note_on_c, 0, 79, 0
2, 221746, Note_on_c, 0, 82, 0
2, 221791, Note_on_c, 0, 81, 99
2, 221792, Note_on_c, 0, 78, 99
2, 221805, Note_on_c, 0, 81, 0
2, 221809, Note_on_c, 0, 78, 0
2, 221848, Note_on_c, 0, 80, 102
2, 221853, Note_on_c, 0, 77, 88
2, 221856, Control_c, 0, 64, 0
2, 221868, Note_on_c, 0, 77, 0
2, 221880, Note_on_c, 0, 80, 0
2, 221898, Control_c, 0, 67, 0
2, 221907, Note_on_c, 0, 47, 89
2, 221928, Note_on_c, 0, 79, 98
2, 221933, Note_on_c, 0, 76, 85
2, 221985, Control_c, 0, 64, 127
2, 221997, Note_on_c, 0, 47, 0
2, 222015, Note_on_c, 0, 55, 85
2, 222045, Note_on_c, 0, 55, 0
2, 222075, Note_on_c, 0, 59, 84
2, 222091, Note_on_c, 0, 59, 0
2, 222139, Note_on_c, 0, 64, 76
2, 222178, Note_on_c, 0, 64, 0
2, 222196, Note_on_c, 0, 67, 66
2, 222214, Note_on_c, 0, 67, 0
2, 222243, Note_on_c, 0, 71, 94
2, 222287, Note_on_c, 0, 71, 0
2, 222302, Note_on_c, 0, 70, 87
2, 222355, Note_on_c, 0, 70, 0
2, 222355, Note_on_c, 0, 69, 91
2, 222362, Note_on_c, 0, 79, 0
2, 222378, Note_on_c, 0, 76, 0
2, 222392, Note_on_c, 0, 68, 96
2, 222394, Note_on_c, 0, 69, 0
2, 222423, Note_on_c, 0, 68, 0
2, 222444, Note_on_c, 0, 75, 96
2, 222444, Note_on_c, 0, 78, 99
2, 222452, Note_on_c, 0, 67, 91
2, 222479, Note_on_c, 0, 67, 0
2, 222481, Note_on_c, 0, 75, 0
2, 222485, Note_on_c, 0, 78, 0
2, 222487, Note_on_c, 0, 66, 85
2, 222520, Note_on_c, 0, 66, 0
2, 222525, Note_on_c, 0, 65, 72
2, 222545, Note_on_c, 0, 79, 93
2, 222546, Note_on_c, 0, 65, 0
2, 222547, Note_on_c, 0, 76, 84
2, 222554, Note_on_c, 0, 64, 79
2, 222588, Note_on_c, 0, 76, 0
2, 222590, Note_on_c, 0, 79, 0
2, 222594, Note_on_c, 0, 64, 0
2, 222594, Note_on_c, 0, 63, 95
2, 222604, Control_c, 0, 64, 0
2, 222629, Note_on_c, 0, 71, 95
2, 222639, Note_on_c, 0, 63, 0
2, 222642, Note_on_c, 0, 71, 0
2, 222675, Control_c, 0, 64, 127
2, 222684, Note_on_c, 0, 83, 101
2, 222691, Note_on_c, 0, 79, 101
2, 222721, Note_on_c, 0, 83, 0
2, 222729, Note_on_c, 0, 79, 0
2, 222852, Control_c, 0, 64, 0
2, 222859, Note_on_c, 0, 81, 80
2, 222860, Note_on_c, 0, 78, 81
2, 222876, Note_on_c, 0, 81, 0
2, 222878, Note_on_c, 0, 78, 0
2, 222996, Note_on_c, 0, 79, 87
2, 223002, Note_on_c, 0, 76, 71
2, 223009, Note_on_c, 0, 79, 0
2, 223013, Control_c, 0, 67, 127
2, 223018, Note_on_c, 0, 76, 0
2, 223053, Note_on_c, 0, 79, 81
2, 223053, Note_on_c, 0, 47, 88
2, 223058, Note_on_c, 0, 76, 80
2, 223067, Control_c, 0, 64, 127
2, 223100, Note_on_c, 0, 47, 0
2, 223114, Note_on_c, 0, 55, 80
2, 223148, Note_on_c, 0, 55, 0
2, 223161, Note_on_c, 0, 59, 91
2, 223176, Note_on_c, 0, 59, 0
2, 223226, Note_on_c, 0, 64, 79
2, 223260, Control_c, 0, 67, 0
2, 223268, Note_on_c, 0, 64, 0
2, 223276, Note_on_c, 0, 67, 80
2, 223291, Note_on_c, 0, 67, 0
2, 223325, Note_on_c, 0, 71, 93
2, 223376, Note_on_c, 0, 71, 0
2, 223378, Note_on_c, 0, 70, 93
2, 223411, Note_on_c, 0, 79, 0
2, 223418, Note_on_c, 0, 76, 0
2, 223429, Note_on_c, 0, 70, 0
2, 223433, Note_on_c, 0, 69, 83
2, 223458, Note_on_c, 0, 68, 91
2, 223465, Note_on_c, 0, 69, 0
2, 223487, Note_on_c, 0, 78, 105
2, 223490, Note_on_c, 0, 68, 0
2, 223492, Note_on_c, 0, 75, 91
2, 223523, Note_on_c, 0, 67, 77
2, 223525, Note_on_c, 0, 75, 0
2, 223531, Note_on_c, 0, 78, 0
2, 223561, Note_on_c, 0, 66, 90
2, 223562, Note_on_c, 0, 67, 0
2, 223594, Note_on_c, 0, 79, 103
2, 223596, Note_on_c, 0, 76, 95
2, 223600, Note_on_c, 0, 66, 0
2, 223603, Note_on_c, 0, 65, 85
2, 223630, Note_on_c, 0, 65, 0
2, 223633, Note_on_c, 0, 64, 91
2, 223638, Note_on_c, 0, 76, 0
2, 223648, Note_on_c, 0, 79, 0
2, 223653, Control_c, 0, 64, 0
2, 223680, Note_on_c, 0, 71, 95
2, 223686, Note_on_c, 0, 64, 0
2, 223694, Note_on_c, 0, 71, 0
2, 223716, Control_c, 0, 64, 127
2, 223719, Note_on_c, 0, 81, 103
2, 223721, Note_on_c, 0, 78, 101
2, 223769, Note_on_c, 0, 78, 0
2, 223773, Note_on_c, 0, 81, 0
2, 223834, Note_on_c, 0, 83, 93
2, 223838, Note_on_c, 0, 79, 90
2, 223851, Note_on_c, 0, 79, 0
2, 223867, Note_on_c, 0, 83, 0
2, 223958, Control_c, 0, 64, 0
2, 223990, Note_on_c, 0, 84, 80
2, 223993, Note_on_c, 0, 81, 71
2, 224033, Note_on_c, 0, 81, 0
2, 224034, Note_on_c, 0, 84, 0
2, 224045, Note_on_c, 0, 38, 92
2, 224097, Note_on_c, 0, 86, 91
2, 224104, Note_on_c, 0, 83, 84
2, 224109, Note_on_c, 0, 74, 69
2, 224127, Control_c, 0, 64, 127
2, 224131, Note_on_c, 0, 74, 0
2, 224145, Note_on_c, 0, 38, 0
2, 224147, Note_on_c, 0, 86, 0
2, 224151, Note_on_c, 0, 83, 0
2, 224152, Note_on_c, 0, 47, 92
2, 224188, Note_on_c, 0, 47, 0
2, 224204, Note_on_c, 0, 50, 85
2, 224219, Note_on_c, 0, 50, 0
2, 224268, Note_on_c, 0, 55, 83
2, 224322, Note_on_c, 0, 59, 86
2, 224328, Note_on_c, 0, 55, 0
2, 224372, Note_on_c, 0, 59, 0
2, 224372, Note_on_c, 0, 88, 86
2, 224375, Note_on_c, 0, 84, 89
2, 224375, Note_on_c, 0, 62, 69
2, 224380, Note_on_c, 0, 76, 85
2, 224387, Note_on_c, 0, 88, 0
2, 224388, Note_on_c, 0, 84, 0
2, 224392, Note_on_c, 0, 62, 0
2, 224395, Note_on_c, 0, 76, 0
2, 224438, Note_on_c, 0, 67, 87
2, 224465, Note_on_c, 0, 83, 99
2, 224471, Note_on_c, 0, 79, 87
2, 224471, Note_on_c, 0, 71, 89
2, 224473, Note_on_c, 0, 67, 0
2, 224506, Note_on_c, 0, 66, 90
2, 224542, Note_on_c, 0, 66, 0
2, 224560, Note_on_c, 0, 65, 80
2, 224577, Note_on_c, 0, 65, 0
2, 224615, Note_on_c, 0, 64, 91
2, 224658, Note_on_c, 0, 64, 0
2, 224673, Note_on_c, 0, 63, 90
2, 224689, Note_on_c, 0, 63, 0
2, 224714, Note_on_c, 0, 79, 0
2, 224714, Note_on_c, 0, 61, 91
2, 224715, Note_on_c, 0, 71, 0
2, 224724, Note_on_c, 0, 83, 0
2, 224732, Note_on_c, 0, 61, 0
2, 224772, Control_c, 0, 64, 0
2, 224811, Note_on_c, 0, 50, 89
2, 224814, Note_on_c, 0, 60, 65
2, 224814, Note_on_c, 0, 62, 69
2, 224827, Note_on_c, 0, 50, 0
2, 224829, Note_on_c, 0, 62, 0
2, 224831, Note_on_c, 0, 60, 0
2, 224861, Control_c, 0, 64, 127
2, 224866, Note_on_c, 0, 83, 87
2, 224870, Note_on_c, 0, 79, 83
2, 224871, Note_on_c, 0, 71, 83
2, 224895, Note_on_c, 0, 71, 0
2, 224902, Note_on_c, 0, 79, 0
2, 224904, Note_on_c, 0, 83, 0
2, 225127, Control_c, 0, 64, 0
2, 225173, Note_on_c, 0, 78, 92
2, 225176, Note_on_c, 0, 81, 84
2, 225178, Note_on_c, 0, 69, 77
2, 225190, Note_on_c, 0, 81, 0
2, 225191, Note_on_c, 0, 78, 0
2, 225193, Note_on_c, 0, 69, 0
2, 225227, Note_on_c, 0, 37, 84
2, 225237, Note_on_c, 0, 81, 88
2, 225240, Note_on_c, 0, 78, 87
2, 225243, Note_on_c, 0, 69, 81
2, 225288, Note_on_c, 0, 45, 74
2, 225292, Note_on_c, 0, 37, 0
2, 225298, Control_c, 0, 64, 127
2, 225312, Note_on_c, 0, 45, 0
2, 225331, Note_on_c, 0, 49, 96
2, 225344, Note_on_c, 0, 49, 0
2, 225412, Note_on_c, 0, 54, 62
2, 225469, Note_on_c, 0, 57, 84
2, 225470, Note_on_c, 0, 54, 0
2, 225511, Note_on_c, 0, 61, 94
2, 225513, Note_on_c, 0, 57, 0
2, 225542, Note_on_c, 0, 61, 0
2, 225549, Note_on_c, 0, 69, 0
2, 225550, Note_on_c, 0, 81, 0
2, 225554, Note_on_c, 0, 78, 0
2, 225567, Note_on_c, 0, 66, 104
2, 225594, Note_on_c, 0, 66, 0
2, 225634, Note_on_c, 0, 65, 91
2, 225683, Note_on_c, 0, 65, 0
2, 225695, Note_on_c, 0, 80, 95
2, 225701, Note_on_c, 0, 64, 67
2, 225704, Note_on_c, 0, 68, 73
2, 225704, Note_on_c, 0, 77, 79
2, 225722, Note_on_c, 0, 77, 0
2, 225725, Note_on_c, 0, 68, 0
2, 225725, Note_on_c, 0, 64, 0
2, 225731, Note_on_c, 0, 63, 103
2, 225754, Note_on_c, 0, 80, 0
2, 225762, Note_on_c, 0, 63, 0
2, 225794, Note_on_c, 0, 78, 101
2, 225794, Note_on_c, 0, 81, 98
2, 225795, Note_on_c, 0, 62, 68
2, 225802, Note_on_c, 0, 69, 81
2, 225815, Note_on_c, 0, 69, 0
2, 225815, Note_on_c, 0, 81, 0
2, 225829, Note_on_c, 0, 78, 0
2, 225837, Note_on_c, 0, 62, 0
2, 225840, Note_on_c, 0, 61, 86
2, 225855, Note_on_c, 0, 61, 0
2, 225868, Note_on_c, 0, 58, 54
2, 225876, Note_on_c, 0, 53, 99
2, 225889, Control_c, 0, 64, 0
2, 225900, Note_on_c, 0, 58, 0
2, 225913, Note_on_c, 0, 61, 81
2, 225919, Note_on_c, 0, 53, 0
2, 225942, Note_on_c, 0, 61, 0
2, 225942, Note_on_c, 0, 65, 67
2, 225955, Note_on_c, 0, 85, 91
2, 225959, Note_on_c, 0, 65, 0
2, 225959, Note_on_c, 0, 81, 84
2, 225960, Note_on_c, 0, 73, 92
2, 225964, Control_c, 0, 64, 127
2, 225982, Note_on_c, 0, 81, 0
2, 225990, Note_on_c, 0, 73, 0
2, 225990, Note_on_c, 0, 85, 0
2, 226121, Control_c, 0, 64, 0
2, 226122, Note_on_c, 0, 80, 81
2, 226124, Note_on_c, 0, 83, 69
2, 226129, Note_on_c, 0, 71, 84
2, 226145, Note_on_c, 0, 71, 0
2, 226148, Note_on_c, 0, 83, 0
2, 226163, Note_on_c, 0, 80, 0
2, 226266, Note_on_c, 0, 78, 84
2, 226271, Note_on_c, 0, 69, 81
2, 226275, Note_on_c, 0, 81, 49
2, 226279, Note_on_c, 0, 78, 0
2, 226286, Note_on_c, 0, 69, 0
2, 226293, Note_on_c, 0, 81, 0
2, 226317, Note_on_c, 0, 37, 90
2, 226319, Note_on_c, 0, 81, 92
2, 226322, Note_on_c, 0, 78, 54
2, 226323, Note_on_c, 0, 69, 63
2, 226370, Note_on_c, 0, 37, 0
2, 226370, Note_on_c, 0, 45, 69
2, 226374, Control_c, 0, 64, 127
2, 226389, Note_on_c, 0, 45, 0
2, 226410, Note_on_c, 0, 49, 82
2, 226424, Note_on_c, 0, 49, 0
2, 226480, Note_on_c, 0, 54, 76
2, 226535, Note_on_c, 0, 54, 0
2, 226538, Note_on_c, 0, 57, 80
2, 226570, Note_on_c, 0, 61, 94
2, 226573, Note_on_c, 0, 57, 0
2, 226598, Note_on_c, 0, 61, 0
2, 226602, Note_on_c, 0, 69, 0
2, 226604, Note_on_c, 0, 81, 0
2, 226614, Note_on_c, 0, 78, 0
2, 226622, Note_on_c, 0, 66, 102
2, 226651, Note_on_c, 0, 66, 0
2, 226690, Note_on_c, 0, 65, 90
2, 226738, Note_on_c, 0, 65, 0
2, 226747, Note_on_c, 0, 64, 94
2, 226747, Note_on_c, 0, 80, 97
2, 226754, Note_on_c, 0, 68, 85
2, 226758, Note_on_c, 0, 77, 77
2, 226774, Note_on_c, 0, 68, 0
2, 226776, Note_on_c, 0, 77, 0
2, 226789, Note_on_c, 0, 64, 0
2, 226790, Note_on_c, 0, 63, 101
2, 226811, Note_on_c, 0, 80, 0
2, 226818, Note_on_c, 0, 63, 0
2, 226842, Note_on_c, 0, 62, 95
2, 226849, Note_on_c, 0, 81, 98
2, 226851, Note_on_c, 0, 78, 101
2, 226858, Note_on_c, 0, 69, 82
2, 226870, Note_on_c, 0, 69, 0
2, 226881, Note_on_c, 0, 62, 0
2, 226884, Note_on_c, 0, 81, 0
2, 226886, Note_on_c, 0, 78, 0
2, 226902, Note_on_c, 0, 61, 76
2, 226921, Note_on_c, 0, 61, 0
2, 226921, Note_on_c, 0, 53, 103
2, 226952, Control_c, 0, 64, 0
2, 226958, Note_on_c, 0, 61, 71
2, 226974, Note_on_c, 0, 53, 0
2, 226989, Note_on_c, 0, 65, 84
2, 226994, Note_on_c, 0, 61, 0
2, 227004, Note_on_c, 0, 65, 0
2, 227006, Note_on_c, 0, 85, 94
2, 227008, Note_on_c, 0, 81, 99
2, 227010, Note_on_c, 0, 73, 102
2, 227010, Control_c, 0, 64, 127
2, 227040, Note_on_c, 0, 73, 0
2, 227041, Note_on_c, 0, 85, 0
2, 227043, Note_on_c, 0, 81, 0
2, 227158, Control_c, 0, 64, 0
2, 227161, Note_on_c, 0, 80, 90
2, 227165, Note_on_c, 0, 83, 81
2, 227167, Note_on_c, 0, 71, 93
2, 227181, Note_on_c, 0, 83, 0
2, 227182, Note_on_c, 0, 71, 0
2, 227200, Note_on_c, 0, 80, 0
2, 227311, Note_on_c, 0, 77, 79
2, 227311, Note_on_c, 0, 69, 86
2, 227315, Note_on_c, 0, 81, 58
2, 227323, Note_on_c, 0, 69, 0
2, 227325, Note_on_c, 0, 77, 0
2, 227333, Note_on_c, 0, 81, 0
2, 227354, Note_on_c, 0, 81, 95
2, 227356, Note_on_c, 0, 36, 78
2, 227358, Note_on_c, 0, 77, 86
2, 227359, Note_on_c, 0, 69, 75
2, 227404, Control_c, 0, 64, 127
2, 227408, Note_on_c, 0, 36, 0
2, 227408, Note_on_c, 0, 45, 92
2, 227443, Note_on_c, 0, 45, 0
2, 227451, Note_on_c, 0, 48, 88
2, 227463, Note_on_c, 0, 48, 0
2, 227514, Note_on_c, 0, 53, 89
2, 227560, Note_on_c, 0, 57, 83
2, 227569, Note_on_c, 0, 53, 0
2, 227602, Note_on_c, 0, 57, 0
2, 227608, Note_on_c, 0, 60, 80
2, 227626, Note_on_c, 0, 60, 0
2, 227649, Note_on_c, 0, 65, 89
2, 227652, Note_on_c, 0, 69, 0
2, 227662, Note_on_c, 0, 81, 0
2, 227671, Note_on_c, 0, 77, 0
2, 227686, Note_on_c, 0, 65, 0
2, 227703, Note_on_c, 0, 64, 92
2, 227740, Note_on_c, 0, 64, 0
2, 227740, Note_on_c, 0, 63, 108
2, 227773, Note_on_c, 0, 63, 0
2, 227784, Note_on_c, 0, 80, 93
2, 227785, Note_on_c, 0, 76, 97
2, 227791, Note_on_c, 0, 68, 89
2, 227799, Note_on_c, 0, 62, 87
2, 227804, Note_on_c, 0, 68, 0
2, 227829, Note_on_c, 0, 76, 0
2, 227840, Note_on_c, 0, 80, 0
2, 227840, Note_on_c, 0, 62, 0
2, 227853, Note_on_c, 0, 61, 92
2, 227874, Note_on_c, 0, 61, 0
2, 227876, Note_on_c, 0, 77, 99
2, 227878, Note_on_c, 0, 69, 95
2, 227878, Note_on_c, 0, 81, 101
2, 227890, Note_on_c, 0, 59, 92
2, 227892, Note_on_c, 0, 69, 0
2, 227906, Note_on_c, 0, 77, 0
2, 227910, Note_on_c, 0, 81, 0
2, 227914, Note_on_c, 0, 59, 0
2, 227941, Note_on_c, 0, 52, 89
2, 227960, Note_on_c, 0, 80, 51
2, 227966, Note_on_c, 0, 60, 97
2, 227968, Control_c, 0, 64, 0
2, 227982, Note_on_c, 0, 80, 0
2, 227983, Note_on_c, 0, 52, 0
2, 227988, Note_on_c, 0, 64, 108
2, 227997, Note_on_c, 0, 60, 0
2, 228000, Note_on_c, 0, 64, 0
2, 228025, Control_c, 0, 64, 127
2, 228031, Note_on_c, 0, 81, 100
2, 228032, Note_on_c, 0, 72, 105
2, 228032, Note_on_c, 0, 84, 98
2, 228073, Note_on_c, 0, 72, 0
2, 228074, Note_on_c, 0, 84, 0
2, 228085, Note_on_c, 0, 81, 0
2, 228169, Note_on_c, 0, 82, 94
2, 228171, Note_on_c, 0, 79, 93
2, 228176, Note_on_c, 0, 70, 84
2, 228182, Control_c, 0, 64, 0
2, 228183, Note_on_c, 0, 79, 0
2, 228192, Note_on_c, 0, 70, 0
2, 228202, Note_on_c, 0, 82, 0
2, 228312, Note_on_c, 0, 81, 88
2, 228313, Note_on_c, 0, 77, 95
2, 228316, Note_on_c, 0, 69, 78
2, 228328, Note_on_c, 0, 77, 0
2, 228329, Note_on_c, 0, 81, 0
2, 228332, Note_on_c, 0, 69, 0
2, 228352, Note_on_c, 0, 36, 81
2, 228365, Note_on_c, 0, 81, 95
2, 228372, Note_on_c, 0, 77, 94
2, 228373, Note_on_c, 0, 69, 83
2, 228408, Note_on_c, 0, 36, 0
2, 228408, Note_on_c, 0, 45, 94
2, 228412, Control_c, 0, 64, 127
2, 228436, Note_on_c, 0, 45, 0
2, 228450, Note_on_c, 0, 48, 87
2, 228463, Note_on_c, 0, 48, 0
2, 228514, Note_on_c, 0, 53, 86
2, 228565, Note_on_c, 0, 57, 83
2, 228568, Note_on_c, 0, 53, 0
2, 228604, Note_on_c, 0, 57, 0
2, 228608, Note_on_c, 0, 60, 81
2, 228623, Note_on_c, 0, 60, 0
2, 228649, Note_on_c, 0, 81, 0
2, 228649, Note_on_c, 0, 65, 94
2, 228675, Note_on_c, 0, 69, 0
2, 228678, Note_on_c, 0, 77, 0
2, 228691, Note_on_c, 0, 65, 0
2, 228698, Note_on_c, 0, 64, 92
2, 228736, Note_on_c, 0, 64, 0
2, 228737, Note_on_c, 0, 63, 109
2, 228765, Note_on_c, 0, 63, 0
2, 228786, Note_on_c, 0, 80, 99
2, 228788, Note_on_c, 0, 68, 103
2, 228788, Note_on_c, 0, 76, 100
2, 228795, Note_on_c, 0, 62, 93
2, 228823, Note_on_c, 0, 68, 0
2, 228834, Note_on_c, 0, 76, 0
2, 228843, Note_on_c, 0, 62, 0
2, 228846, Note_on_c, 0, 80, 0
2, 228850, Note_on_c, 0, 61, 87
2, 228862, Note_on_c, 0, 61, 0
2, 228875, Note_on_c, 0, 77, 101
2, 228876, Note_on_c, 0, 81, 100
2, 228878, Note_on_c, 0, 69, 92
2, 228883, Note_on_c, 0, 59, 89
2, 228890, Note_on_c, 0, 69, 0
2, 228896, Note_on_c, 0, 59, 0
2, 228905, Note_on_c, 0, 77, 0
2, 228911, Note_on_c, 0, 81, 0
2, 228935, Note_on_c, 0, 52, 101
2, 228951, Note_on_c, 0, 60, 88
2, 228968, Control_c, 0, 64, 0
2, 228979, Note_on_c, 0, 52, 0
2, 228988, Note_on_c, 0, 64, 110
2, 228995, Note_on_c, 0, 60, 0
2, 229005, Note_on_c, 0, 64, 0
2, 229022, Note_on_c, 0, 82, 108
2, 229025, Note_on_c, 0, 86, 100
2, 229025, Control_c, 0, 64, 127
2, 229028, Note_on_c, 0, 74, 97
2, 229072, Note_on_c, 0, 74, 0
2, 229072, Note_on_c, 0, 86, 0
2, 229078, Note_on_c, 0, 82, 0
2, 229161, Note_on_c, 0, 84, 92
2, 229164, Note_on_c, 0, 72, 100
2, 229167, Note_on_c, 0, 81, 80
2, 229180, Note_on_c, 0, 72, 0
2, 229183, Note_on_c, 0, 81, 0
2, 229189, Control_c, 0, 64, 0
2, 229193, Note_on_c, 0, 84, 0
2, 229283, Note_on_c, 0, 82, 102
2, 229289, Note_on_c, 0, 70, 100
2, 229306, Note_on_c, 0, 70, 0
2, 229319, Note_on_c, 0, 82, 0
2, 229324, Note_on_c, 0, 53, 100
2, 229335, Note_on_c, 0, 60, 98
2, 229336, Note_on_c, 0, 65, 105
2, 229337, Note_on_c, 0, 81, 101
2, 229343, Note_on_c, 0, 69, 98
2, 229346, Note_on_c, 0, 60, 0
2, 229347, Note_on_c, 0, 65, 0
2, 229347, Control_c, 0, 64, 127
2, 229354, Note_on_c, 0, 53, 0
2, 229356, Note_on_c, 0, 69, 0
2, 229368, Note_on_c, 0, 81, 0
2, 229512, Control_c, 0, 64, 0
2, 229549, Note_on_c, 0, 60, 113
2, 229552, Note_on_c, 0, 36, 101
2, 229554, Note_on_c, 0, 48, 92
2, 229558, Note_on_c, 0, 60, 0
2, 229563, Note_on_c, 0, 36, 0
2, 229566, Note_on_c, 0, 48, 0
2, 229578, Control_c, 0, 64, 127
2, 229589, Note_on_c, 0, 60, 84
2, 229602, Note_on_c, 0, 60, 0
2, 229633, Note_on_c, 0, 60, 97
2, 229661, Note_on_c, 0, 60, 0
2, 229672, Note_on_c, 0, 53, 116
2, 229672, Note_on_c, 0, 41, 117
2, 229674, Note_on_c, 0, 65, 108
2, 229681, Note_on_c, 0, 41, 0
2, 229681, Note_on_c, 0, 53, 0
2, 229694, Control_c, 0, 64, 0
2, 229708, Note_on_c, 0, 65, 0
2, 229849, Note_on_c, 0, 60, 103
2, 229859, Note_on_c, 0, 60, 0
2, 229865, Note_on_c, 0, 36, 99
2, 229866, Note_on_c, 0, 48, 99
2, 229875, Note_on_c, 0, 36, 0
2, 229877, Note_on_c, 0, 48, 0
2, 229881, Note_on_c, 0, 60, 103
2, 229882, Control_c, 0, 64, 127
2, 229894, Note_on_c, 0, 60, 0
2, 229922, Note_on_c, 0, 60, 95
2, 229942, Note_on_c, 0, 60, 0
2, 229965, Note_on_c, 0, 69, 102
2, 229966, Note_on_c, 0, 45, 108
2, 229967, Note_on_c, 0, 57, 101
2, 229976, Note_on_c, 0, 45, 0
2, 229978, Note_on_c, 0, 57, 0
2, 229997, Control_c, 0, 64, 0
2, 229999, Note_on_c, 0, 69, 0
2, 230166, Note_on_c, 0, 64, 110
2, 230172, Note_on_c, 0, 40, 95
2, 230174, Note_on_c, 0, 52, 86
2, 230189, Note_on_c, 0, 52, 0
2, 230195, Note_on_c, 0, 40, 0
2, 230199, Note_on_c, 0, 64, 0
2, 230358, Note_on_c, 0, 35, 99
2, 230358, Note_on_c, 0, 59, 116
2, 230358, Note_on_c, 0, 47, 126
2, 230370, Note_on_c, 0, 47, 0
2, 230370, Note_on_c, 0, 35, 0
2, 230378, Control_c, 0, 64, 127
2, 230386, Note_on_c, 0, 59, 0
2, 230639, Note_on_c, 0, 93, 110
2, 230644, Note_on_c, 0, 66, 96
2, 230646, Note_on_c, 0, 63, 75
2, 230646, Note_on_c, 0, 69, 88
2, 230650, Note_on_c, 0, 59, 82
2, 230655, Note_on_c, 0, 66, 0
2, 230659, Note_on_c, 0, 69, 0
2, 230661, Note_on_c, 0, 63, 0
2, 230666, Note_on_c, 0, 59, 0
2, 230677, Note_on_c, 0, 93, 0
2, 230679, Note_on_c, 0, 95, 102
2, 230708, Note_on_c, 0, 59, 83
2, 230709, Note_on_c, 0, 63, 87
2, 230712, Note_on_c, 0, 66, 72
2, 230716, Note_on_c, 0, 69, 54
2, 230721, Note_on_c, 0, 95, 0
2, 230723, Note_on_c, 0, 63, 0
2, 230726, Note_on_c, 0, 59, 0
2, 230726, Note_on_c, 0, 66, 0
2, 230728, Note_on_c, 0, 98, 103
2, 230732, Note_on_c, 0, 69, 0
2, 230769, Note_on_c, 0, 59, 94
2, 230770, Note_on_c, 0, 96, 95
2, 230770, Note_on_c, 0, 63, 99
2, 230771, Note_on_c, 0, 66, 84
2, 230777, Note_on_c, 0, 69, 44
2, 230781, Note_on_c, 0, 59, 0
2, 230783, Note_on_c, 0, 66, 0
2, 230785, Note_on_c, 0, 63, 0
2, 230786, Control_c, 0, 64, 0
2, 230788, Note_on_c, 0, 98, 0
2, 230793, Note_on_c, 0, 69, 0
2, 230806, Note_on_c, 0, 95, 113
2, 230822, Note_on_c, 0, 96, 0
2, 230845, Note_on_c, 0, 95, 0
2, 230851, Note_on_c, 0, 93, 93
2, 230887, Note_on_c, 0, 93, 0
2, 230893, Note_on_c, 0, 91, 92
2, 230899, Note_on_c, 0, 63, 94
2, 230900, Note_on_c, 0, 66, 81
2, 230903, Note_on_c, 0, 69, 73
2, 230905, Note_on_c, 0, 59, 79
2, 230909, Note_on_c, 0, 63, 0
2, 230913, Note_on_c, 0, 66, 0
2, 230918, Note_on_c, 0, 69, 0
2, 230921, Note_on_c, 0, 59, 0
2, 230938, Note_on_c, 0, 90, 93
2, 230954, Note_on_c, 0, 91, 0
2, 230976, Note_on_c, 0, 90, 0
2, 230990, Note_on_c, 0, 88, 89
2, 231030, Note_on_c, 0, 63, 97
2, 231031, Note_on_c, 0, 66, 84
2, 231031, Note_on_c, 0, 69, 92
2, 231032, Note_on_c, 0, 88, 0
2, 231032, Note_on_c, 0, 59, 90
2, 231033, Note_on_c, 0, 87, 91
2, 231040, Note_on_c, 0, 63, 0
2, 231042, Note_on_c, 0, 69, 0
2, 231045, Note_on_c, 0, 66, 0
2, 231047, Note_on_c, 0, 59, 0
2, 231086, Note_on_c, 0, 84, 91
2, 231095, Note_on_c, 0, 86, 91
2, 231101, Note_on_c, 0, 87, 0
2, 231110, Note_on_c, 0, 86, 0
2, 231125, Note_on_c, 0, 83, 98
2, 231139, Note_on_c, 0, 84, 0
2, 231153, Note_on_c, 0, 83, 0
2, 231166, Note_on_c, 0, 81, 90
2, 231168, Note_on_c, 0, 69, 92
2, 231168, Note_on_c, 0, 63, 84
2, 231168, Note_on_c, 0, 59, 100
2, 231169, Note_on_c, 0, 66, 71
2, 231180, Note_on_c, 0, 59, 0
2, 231180, Note_on_c, 0, 63, 0
2, 231180, Note_on_c, 0, 69, 0
2, 231185, Note_on_c, 0, 66, 0
2, 231205, Note_on_c, 0, 81, 0
2, 231207, Note_on_c, 0, 79, 92
2, 231252, Note_on_c, 0, 78, 97
2, 231259, Note_on_c, 0, 79, 0
2, 231294, Note_on_c, 0, 81, 103
2, 231299, Note_on_c, 0, 60, 114
2, 231300, Note_on_c, 0, 64, 114
2, 231302, Note_on_c, 0, 78, 0
2, 231304, Note_on_c, 0, 72, 101
2, 231308, Note_on_c, 0, 64, 0
2, 231308, Note_on_c, 0, 60, 0
2, 231316, Note_on_c, 0, 72, 0
2, 231321, Control_c, 0, 64, 127
2, 231324, Note_on_c, 0, 81, 0
2, 231544, Control_c, 0, 64, 0
2, 231551, Note_on_c, 0, 60, 100
2, 231562, Note_on_c, 0, 60, 0
2, 231587, Note_on_c, 0, 60, 93
2, 231588, Note_on_c, 0, 36, 53
2, 231591, Note_on_c, 0, 48, 43
2, 231604, Note_on_c, 0, 60, 0
2, 231605, Note_on_c, 0, 48, 0
2, 231605, Note_on_c, 0, 36, 0
2, 231630, Note_on_c, 0, 60, 97
2, 231654, Control_c, 0, 64, 127
2, 231659, Note_on_c, 0, 60, 0
2, 231666, Note_on_c, 0, 53, 102
2, 231666, Note_on_c, 0, 65, 107
2, 231667, Note_on_c, 0, 41, 99
2, 231678, Note_on_c, 0, 53, 0
2, 231680, Note_on_c, 0, 41, 0
2, 231700, Note_on_c, 0, 65, 0
2, 231731, Control_c, 0, 64, 0
2, 231840, Note_on_c, 0, 60, 101
2, 231851, Note_on_c, 0, 60, 0
2, 231861, Note_on_c, 0, 36, 90
2, 231865, Note_on_c, 0, 48, 84
2, 231874, Note_on_c, 0, 36, 0
2, 231874, Note_on_c, 0, 60, 94
2, 231878, Note_on_c, 0, 48, 0
2, 231881, Control_c, 0, 64, 127
2, 231888, Note_on_c, 0, 60, 0
2, 231912, Note_on_c, 0, 60, 98
2, 231942, Note_on_c, 0, 60, 0
2, 231955, Note_on_c, 0, 69, 101
2, 231957, Note_on_c, 0, 57, 119
2, 231958, Note_on_c, 0, 45, 106
2, 231965, Note_on_c, 0, 57, 0
2, 231969, Note_on_c, 0, 45, 0
2, 231990, Note_on_c, 0, 69, 0
2, 231994, Control_c, 0, 64, 0
2, 232151, Note_on_c, 0, 64, 110
2, 232158, Note_on_c, 0, 40, 106
2, 232161, Note_on_c, 0, 52, 98
2, 232173, Note_on_c, 0, 52, 0
2, 232188, Note_on_c, 0, 40, 0
2, 232190, Note_on_c, 0, 64, 0
2, 232351, Note_on_c, 0, 59, 119
2, 232353, Note_on_c, 0, 35, 102
2, 232353, Note_on_c, 0, 47, 124
2, 232363, Note_on_c, 0, 35, 0
2, 232368, Note_on_c, 0, 47, 0
2, 232373, Control_c, 0, 64, 127
2, 232382, Note_on_c, 0, 59, 0
2, 232678, Note_on_c, 0, 93, 80
2, 232685, Note_on_c, 0, 69, 93
2, 232688, Note_on_c, 0, 63, 71
2, 232689, Note_on_c, 0, 59, 89
2, 232696, Note_on_c, 0, 69, 0
2, 232703, Note_on_c, 0, 59, 0
2, 232703, Note_on_c, 0, 63, 0
2, 232717, Note_on_c, 0, 93, 0
2, 232717, Note_on_c, 0, 95, 99
2, 232742, Note_on_c, 0, 59, 80
2, 232743, Note_on_c, 0, 63, 75
2, 232744, Note_on_c, 0, 66, 87
2, 232744, Note_on_c, 0, 69, 84
2, 232756, Note_on_c, 0, 95, 0
2, 232757, Note_on_c, 0, 63, 0
2, 232758, Note_on_c, 0, 66, 0
2, 232759, Note_on_c, 0, 69, 0
2, 232759, Note_on_c, 0, 99, 101
2, 232764, Note_on_c, 0, 59, 0
2, 232790, Note_on_c, 0, 97, 99
2, 232791, Note_on_c, 0, 63, 97
2, 232791, Note_on_c, 0, 59, 91
2, 232794, Note_on_c, 0, 66, 84
2, 232797, Note_on_c, 0, 69, 74
2, 232804, Note_on_c, 0, 66, 0
2, 232805, Note_on_c, 0, 59, 0
2, 232811, Note_on_c, 0, 69, 0
2, 232815, Note_on_c, 0, 63, 0
2, 232817, Note_on_c, 0, 99, 0
2, 232823, Note_on_c, 0, 95, 105
2, 232844, Note_on_c, 0, 97, 0
2, 232853, Control_c, 0, 64, 0
2, 232862, Note_on_c, 0, 95, 0
2, 232873, Note_on_c, 0, 93, 93
2, 232906, Note_on_c, 0, 93, 0
2, 232916, Note_on_c, 0, 92, 96
2, 232923, Note_on_c, 0, 63, 98
2, 232926, Note_on_c, 0, 59, 92
2, 232932, Note_on_c, 0, 69, 87
2, 232934, Note_on_c, 0, 63, 0
2, 232939, Note_on_c, 0, 59, 0
2, 232948, Note_on_c, 0, 69, 0
2, 232962, Note_on_c, 0, 90, 79
2, 232981, Note_on_c, 0, 92, 0
2, 232993, Note_on_c, 0, 90, 0
2, 233007, Note_on_c, 0, 88, 92
2, 233041, Note_on_c, 0, 88, 0
2, 233044, Note_on_c, 0, 66, 95
2, 233044, Note_on_c, 0, 63, 100
2, 233045, Note_on_c, 0, 69, 94
2, 233046, Note_on_c, 0, 59, 92
2, 233051, Note_on_c, 0, 87, 88
2, 233054, Note_on_c, 0, 63, 0
2, 233055, Note_on_c, 0, 66, 0
2, 233056, Note_on_c, 0, 69, 0
2, 233060, Note_on_c, 0, 59, 0
2, 233090, Note_on_c, 0, 85, 96
2, 233124, Note_on_c, 0, 87, 0
2, 233135, Note_on_c, 0, 83, 93
2, 233150, Note_on_c, 0, 85, 0
2, 233165, Note_on_c, 0, 83, 0
2, 233177, Note_on_c, 0, 81, 90
2, 233178, Note_on_c, 0, 63, 98
2, 233179, Note_on_c, 0, 69, 99
2, 233179, Note_on_c, 0, 66, 98
2, 233180, Note_on_c, 0, 59, 99
2, 233189, Note_on_c, 0, 66, 0
2, 233190, Note_on_c, 0, 69, 0
2, 233190, Note_on_c, 0, 63, 0
2, 233193, Note_on_c, 0, 59, 0
2, 233203, Note_on_c, 0, 81, 0
2, 233218, Note_on_c, 0, 80, 92
2, 233268, Note_on_c, 0, 78, 88
2, 233285, Note_on_c, 0, 80, 0
2, 233307, Note_on_c, 0, 78, 0
2, 233313, Note_on_c, 0, 83, 95
2, 233314, Note_on_c, 0, 69, 119
2, 233315, Note_on_c, 0, 66, 105
2, 233315, Note_on_c, 0, 63, 102
2, 233315, Note_on_c, 0, 59, 119
2, 233316, Note_on_c, 0, 71, 105
2, 233321, Note_on_c, 0, 69, 0
2, 233323, Note_on_c, 0, 59, 0
2, 233325, Note_on_c, 0, 66, 0
2, 233326, Note_on_c, 0, 63, 0
2, 233328, Control_c, 0, 64, 127
2, 233338, Note_on_c, 0, 71, 0
2, 233346, Note_on_c, 0, 83, 0
2, 233549, Control_c, 0, 64, 0
2, 233587, Note_on_c, 0, 54, 86
2, 233588, Note_on_c, 0, 57, 100
2, 233588, Note_on_c, 0, 81, 92
2, 233590, Note_on_c, 0, 51, 73
2, 233594, Note_on_c, 0, 47, 87
2, 233600, Note_on_c, 0, 57, 0
2, 233600, Note_on_c, 0, 54, 0
2, 233605, Note_on_c, 0, 51, 0
2, 233611, Note_on_c, 0, 47, 0
2, 233628, Note_on_c, 0, 81, 0
2, 233635, Note_on_c, 0, 83, 91
2, 233643, Note_on_c, 0, 51, 84
2, 233645, Note_on_c, 0, 47, 92
2, 233645, Note_on_c, 0, 57, 107
2, 233646, Note_on_c, 0, 54, 70
2, 233658, Note_on_c, 0, 51, 0
2, 233660, Note_on_c, 0, 54, 0
2, 233665, Note_on_c, 0, 57, 0
2, 233666, Note_on_c, 0, 47, 0
2, 233671, Note_on_c, 0, 87, 94
2, 233673, Note_on_c, 0, 83, 0
2, 233693, Control_c, 0, 64, 127
2, 233700, Note_on_c, 0, 51, 84
2, 233706, Note_on_c, 0, 47, 65
2, 233708, Note_on_c, 0, 85, 90
2, 233714, Note_on_c, 0, 51, 0
2, 233723, Note_on_c, 0, 47, 0
2, 233745, Note_on_c, 0, 87, 0
2, 233748, Note_on_c, 0, 83, 88
2, 233770, Note_on_c, 0, 85, 0
2, 233786, Note_on_c, 0, 83, 0
2, 233798, Note_on_c, 0, 81, 90
2, 233823, Note_on_c, 0, 51, 112
2, 233826, Note_on_c, 0, 57, 101
2, 233826, Note_on_c, 0, 54, 91
2, 233830, Note_on_c, 0, 47, 84
2, 233834, Note_on_c, 0, 51, 0
2, 233834, Note_on_c, 0, 81, 0
2, 233837, Note_on_c, 0, 54, 0
2, 233837, Note_on_c, 0, 80, 95
2, 233838, Note_on_c, 0, 57, 0
2, 233846, Note_on_c, 0, 47, 0
2, 233884, Note_on_c, 0, 78, 95
2, 233897, Control_c, 0, 64, 0
2, 233906, Note_on_c, 0, 80, 0
2, 233916, Note_on_c, 0, 78, 0
2, 233932, Note_on_c, 0, 76, 92
2, 233968, Note_on_c, 0, 51, 105
2, 233969, Note_on_c, 0, 75, 99
2, 233970, Note_on_c, 0, 76, 0
2, 233970, Note_on_c, 0, 54, 81
2, 233970, Note_on_c, 0, 57, 101
2, 233972, Note_on_c, 0, 47, 89
2, 233979, Note_on_c, 0, 51, 0
2, 233982, Note_on_c, 0, 57, 0
2, 233985, Note_on_c, 0, 54, 0
2, 233987, Note_on_c, 0, 47, 0
2, 234012, Note_on_c, 0, 73, 94
2, 234045, Note_on_c, 0, 75, 0
2, 234054, Note_on_c, 0, 71, 105
2, 234068, Control_c, 0, 64, 127
2, 234077, Note_on_c, 0, 73, 0
2, 234095, Note_on_c, 0, 71, 0
2, 234103, Note_on_c, 0, 51, 103
2, 234104, Note_on_c, 0, 69, 91
2, 234106, Note_on_c, 0, 54, 75
2, 234107, Note_on_c, 0, 57, 90
2, 234108, Note_on_c, 0, 47, 86
2, 234113, Note_on_c, 0, 51, 0
2, 234118, Note_on_c, 0, 69, 0
2, 234120, Note_on_c, 0, 57, 0
2, 234120, Note_on_c, 0, 54, 0
2, 234122, Note_on_c, 0, 47, 0
2, 234142, Note_on_c, 0, 68, 90
2, 234194, Note_on_c, 0, 66, 95
2, 234199, Control_c, 0, 64, 0
2, 234213, Note_on_c, 0, 68, 0
2, 234230, Note_on_c, 0, 66, 0
2, 234244, Note_on_c, 0, 71, 100
2, 234246, Note_on_c, 0, 57, 127
2, 234247, Note_on_c, 0, 47, 122
2, 234247, Note_on_c, 0, 54, 113
2, 234254, Note_on_c, 0, 59, 98
2, 234255, Note_on_c, 0, 47, 0
2, 234255, Note_on_c, 0, 57, 0
2, 234256, Note_on_c, 0, 54, 0
2, 234265, Control_c, 0, 64, 127
2, 234267, Note_on_c, 0, 59, 0
2, 234276, Note_on_c, 0, 71, 0
2, 234489, Control_c, 0, 64, 0
2, 234525, Note_on_c, 0, 57, 84
2, 234532, Note_on_c, 0, 69, 80
2, 234543, Note_on_c, 0, 57, 0
2, 234578, Note_on_c, 0, 69, 0
2, 234609, Note_on_c, 0, 59, 79
2, 234616, Note_on_c, 0, 71, 91
2, 234643, Note_on_c, 0, 59, 0
2, 234662, Note_on_c, 0, 71, 0
2, 234667, Note_on_c, 0, 63, 91
2, 234677, Note_on_c, 0, 75, 90
2, 234708, Note_on_c, 0, 63, 0
2, 234717, Note_on_c, 0, 61, 90
2, 234724, Note_on_c, 0, 73, 91
2, 234744, Note_on_c, 0, 61, 0
2, 234756, Note_on_c, 0, 75, 0
2, 234772, Note_on_c, 0, 71, 99
2, 234779, Note_on_c, 0, 59, 95
2, 234795, Note_on_c, 0, 73, 0
2, 234806, Note_on_c, 0, 71, 0
2, 234807, Note_on_c, 0, 59, 0
2, 234823, Note_on_c, 0, 69, 89
2, 234836, Note_on_c, 0, 57, 79
2, 234863, Note_on_c, 0, 69, 0
2, 234865, Note_on_c, 0, 68, 103
2, 234871, Note_on_c, 0, 57, 0
2, 234872, Note_on_c, 0, 56, 100
2, 234899, Note_on_c, 0, 56, 0
2, 234905, Note_on_c, 0, 54, 71
2, 234918, Note_on_c, 0, 54, 0
2, 234918, Note_on_c, 0, 66, 93
2, 234936, Note_on_c, 0, 68, 0
2, 234950, Note_on_c, 0, 66, 0
2, 234953, Control_c, 0, 64, 127
2, 234954, Note_on_c, 0, 52, 93
2, 234959, Note_on_c, 0, 64, 95
2, 234996, Note_on_c, 0, 52, 0
2, 235001, Note_on_c, 0, 63, 103
2, 235001, Note_on_c, 0, 51, 102
2, 235011, Note_on_c, 0, 64, 0
2, 235041, Note_on_c, 0, 51, 0
2, 235050, Note_on_c, 0, 61, 94
2, 235053, Note_on_c, 0, 49, 100
2, 235070, Note_on_c, 0, 63, 0
2, 235077, Note_on_c, 0, 49, 0
2, 235087, Note_on_c, 0, 48, 44
2, 235091, Note_on_c, 0, 59, 106
2, 235091, Note_on_c, 0, 47, 116
2, 235100, Note_on_c, 0, 48, 0
2, 235102, Note_on_c, 0, 61, 0
2, 235121, Note_on_c, 0, 47, 0
2, 235122, Note_on_c, 0, 59, 0
2, 235165, Control_c, 0, 64, 0
2, 235244, Note_on_c, 0, 57, 91
2, 235246, Note_on_c, 0, 45, 84
2, 235308, Note_on_c, 0, 57, 0
2, 235311, Note_on_c, 0, 45, 0
2, 235339, Control_c, 0, 64, 127
2, 235342, Note_on_c, 0, 47, 76
2, 235352, Note_on_c, 0, 59, 92
2, 235385, Note_on_c, 0, 47, 0
2, 235398, Note_on_c, 0, 59, 0
2, 235405, Control_c, 0, 64, 0
2, 235406, Note_on_c, 0, 63, 94
2, 235409, Note_on_c, 0, 51, 82
2, 235436, Note_on_c, 0, 51, 0
2, 235454, Note_on_c, 0, 61, 87
2, 235456, Note_on_c, 0, 49, 95
2, 235483, Note_on_c, 0, 49, 0
2, 235487, Note_on_c, 0, 63, 0
2, 235506, Note_on_c, 0, 59, 98
2, 235516, Note_on_c, 0, 47, 94
2, 235531, Note_on_c, 0, 61, 0
2, 235546, Note_on_c, 0, 59, 0
2, 235553, Note_on_c, 0, 47, 0
2, 235562, Note_on_c, 0, 57, 93
2, 235564, Note_on_c, 0, 45, 101
2, 235605, Note_on_c, 0, 56, 110
2, 235606, Note_on_c, 0, 57, 0
2, 235607, Note_on_c, 0, 44, 108
2, 235611, Note_on_c, 0, 45, 0
2, 235644, Note_on_c, 0, 44, 0
2, 235648, Note_on_c, 0, 42, 101
2, 235656, Control_c, 0, 64, 127
2, 235665, Note_on_c, 0, 54, 89
2, 235674, Note_on_c, 0, 42, 0
2, 235684, Note_on_c, 0, 56, 0
2, 235699, Note_on_c, 0, 54, 0
2, 235706, Note_on_c, 0, 52, 95
2, 235706, Note_on_c, 0, 40, 98
2, 235742, Note_on_c, 0, 40, 0
2, 235744, Note_on_c, 0, 52, 0
2, 235756, Note_on_c, 0, 51, 124
2, 235758, Note_on_c, 0, 39, 116
2, 235833, Note_on_c, 0, 39, 0
2, 235843, Control_c, 0, 64, 0
2, 235855, Note_on_c, 0, 51, 0
2, 235919, Note_on_c, 0, 49, 123
2, 235920, Note_on_c, 0, 37, 116
2, 235985, Control_c, 0, 64, 127
2, 236012, Note_on_c, 0, 49, 0
2, 236015, Note_on_c, 0, 37, 0
2, 236056, Control_c, 0, 64, 0
2, 236079, Note_on_c, 0, 47, 117
2, 236080, Note_on_c, 0, 35, 123
2, 236120, Control_c, 0, 64, 127
2, 236155, Note_on_c, 0, 47, 0
2, 236159, Control_c, 0, 64, 0
2, 236187, Note_on_c, 0, 35, 0
2, 236236, Note_on_c, 0, 45, 125
2, 236238, Note_on_c, 0, 33, 113
2, 236244, Control_c, 0, 64, 127
2, 236318, Note_on_c, 0, 45, 0
2, 236332, Note_on_c, 0, 33, 0
2, 236381, Control_c, 0, 64, 0
2, 236412, Note_on_c, 0, 42, 125
2, 236412, Note_on_c, 0, 30, 125
2, 236465, Control_c, 0, 64, 127
2, 236498, Note_on_c, 0, 42, 0
2, 236555, Note_on_c, 0, 30, 0
2, 236572, Control_c, 0, 64, 0
2, 236635, Note_on_c, 0, 35, 127
2, 236635, Note_on_c, 0, 47, 127
2, 236671, Control_c, 0, 64, 127
2, 236682, Note_on_c, 0, 47, 0
2, 236761, Note_on_c, 0, 35, 0
2, 236844, Control_c, 0, 64, 0
2, 236943, Note_on_c, 0, 28, 108
2, 236963, Note_on_c, 0, 40, 110
2, 236971, Note_on_c, 0, 80, 101
2, 236981, Note_on_c, 0, 28, 0
2, 236983, Note_on_c, 0, 68, 113
2, 236988, Note_on_c, 0, 40, 0
2, 237005, Control_c, 0, 64, 127
2, 237011, Note_on_c, 0, 80, 0
2, 237016, Note_on_c, 0, 68, 0
2, 237092, Note_on_c, 0, 71, 94
2, 237095, Note_on_c, 0, 64, 98
2, 237109, Note_on_c, 0, 64, 0
2, 237135, Note_on_c, 0, 71, 0
2, 237174, Note_on_c, 0, 76, 97
2, 237176, Note_on_c, 0, 68, 73
2, 237204, Note_on_c, 0, 68, 0
2, 237211, Note_on_c, 0, 76, 0
2, 237357, Control_c, 0, 64, 0
2, 237366, Note_on_c, 0, 73, 104
2, 237369, Note_on_c, 0, 85, 96
2, 237373, Note_on_c, 0, 55, 94
2, 237374, Note_on_c, 0, 64, 97
2, 237374, Note_on_c, 0, 58, 87
2, 237385, Note_on_c, 0, 58, 0
2, 237386, Note_on_c, 0, 55, 0
2, 237387, Note_on_c, 0, 64, 0
2, 237395, Note_on_c, 0, 85, 0
2, 237396, Note_on_c, 0, 73, 0
2, 237420, Note_on_c, 0, 85, 111
2, 237420, Note_on_c, 0, 58, 95
2, 237421, Note_on_c, 0, 64, 97
2, 237422, Note_on_c, 0, 73, 108
2, 237445, Note_on_c, 0, 64, 0
2, 237445, Note_on_c, 0, 58, 0
2, 237454, Control_c, 0, 64, 127
2, 237599, Note_on_c, 0, 55, 90
2, 237599, Note_on_c, 0, 58, 77
2, 237601, Note_on_c, 0, 64, 90
2, 237612, Note_on_c, 0, 58, 0
2, 237616, Note_on_c, 0, 64, 0
2, 237622, Note_on_c, 0, 55, 0
2, 237753, Note_on_c, 0, 85, 0
2, 237759, Note_on_c, 0, 56, 117
2, 237760, Note_on_c, 0, 73, 0
2, 237762, Note_on_c, 0, 64, 107
2, 237762, Note_on_c, 0, 59, 111
2, 237772, Note_on_c, 0, 64, 0
2, 237773, Note_on_c, 0, 59, 0
2, 237784, Note_on_c, 0, 56, 0
2, 237798, Control_c, 0, 64, 0
2, 237935, Note_on_c, 0, 83, 98
2, 237939, Note_on_c, 0, 71, 106
2, 237965, Note_on_c, 0, 83, 0
2, 237967, Note_on_c, 0, 71, 0
2, 238089, Note_on_c, 0, 40, 105
2, 238105, Note_on_c, 0, 52, 120
2, 238107, Note_on_c, 0, 80, 85
2, 238113, Note_on_c, 0, 68, 104
2, 238118, Note_on_c, 0, 40, 0
2, 238126, Control_c, 0, 64, 127
2, 238129, Note_on_c, 0, 52, 0
2, 238148, Note_on_c, 0, 68, 0
2, 238155, Note_on_c, 0, 80, 0
2, 238207, Note_on_c, 0, 71, 97
2, 238217, Note_on_c, 0, 64, 79
2, 238232, Note_on_c, 0, 64, 0
2, 238252, Note_on_c, 0, 71, 0
2, 238289, Note_on_c, 0, 76, 101
2, 238324, Note_on_c, 0, 76, 0
2, 238451, Note_on_c, 0, 58, 100
2, 238455, Note_on_c, 0, 73, 97
2, 238455, Control_c, 0, 64, 0
2, 238457, Note_on_c, 0, 64, 92
2, 238458, Note_on_c, 0, 55, 80
2, 238458, Note_on_c, 0, 85, 93
2, 238464, Note_on_c, 0, 58, 0
2, 238470, Note_on_c, 0, 64, 0
2, 238473, Note_on_c, 0, 85, 0
2, 238473, Note_on_c, 0, 55, 0
2, 238481, Note_on_c, 0, 73, 0
2, 238501, Note_on_c, 0, 64, 94
2, 238501, Note_on_c, 0, 55, 105
2, 238504, Note_on_c, 0, 58, 95
2, 238504, Note_on_c, 0, 85, 104
2, 238506, Note_on_c, 0, 73, 116
2, 238523, Control_c, 0, 64, 127
2, 238527, Note_on_c, 0, 58, 0
2, 238529, Note_on_c, 0, 64, 0
2, 238530, Note_on_c, 0, 55, 0
2, 238705, Note_on_c, 0, 58, 89
2, 238707, Note_on_c, 0, 64, 93
2, 238710, Note_on_c, 0, 55, 83
2, 238718, Note_on_c, 0, 58, 0
2, 238721, Note_on_c, 0, 64, 0
2, 238724, Note_on_c, 0, 55, 0
2, 238870, Control_c, 0, 64, 0
2, 238873, Note_on_c, 0, 56, 115
2, 238876, Note_on_c, 0, 64, 111
2, 238878, Note_on_c, 0, 59, 108
2, 238886, Note_on_c, 0, 64, 0
2, 238886, Note_on_c, 0, 85, 0
2, 238889, Note_on_c, 0, 59, 0
2, 238897, Note_on_c, 0, 56, 0
2, 238900, Note_on_c, 0, 73, 0
2, 238900, Control_c, 0, 64, 127
2, 238965, Control_c, 0, 64, 0
2, 239048, Note_on_c, 0, 83, 90
2, 239052, Note_on_c, 0, 71, 97
2, 239062, Note_on_c, 0, 83, 0
2, 239073, Note_on_c, 0, 71, 0
2, 239180, Note_on_c, 0, 40, 100
2, 239202, Note_on_c, 0, 52, 98
2, 239214, Note_on_c, 0, 40, 0
2, 239214, Note_on_c, 0, 80, 80
2, 239217, Note_on_c, 0, 52, 0
2, 239222, Note_on_c, 0, 68, 101
2, 239223, Control_c, 0, 64, 127
2, 239262, Note_on_c, 0, 80, 0
2, 239263, Note_on_c, 0, 68, 0
2, 239332, Note_on_c, 0, 71, 85
2, 239333, Note_on_c, 0, 64, 93
2, 239351, Note_on_c, 0, 64, 0
2, 239380, Note_on_c, 0, 71, 0
2, 239420, Note_on_c, 0, 68, 90
2, 239421, Note_on_c, 0, 76, 94
2, 239449, Note_on_c, 0, 68, 0
2, 239457, Note_on_c, 0, 76, 0
2, 239528, Note_on_c, 0, 58, 92
2, 239532, Note_on_c, 0, 64, 88
2, 239535, Note_on_c, 0, 55, 77
2, 239540, Note_on_c, 0, 58, 0
2, 239540, Note_on_c, 0, 73, 91
2, 239543, Note_on_c, 0, 85, 98
2, 239545, Note_on_c, 0, 64, 0
2, 239550, Note_on_c, 0, 55, 0
2, 239555, Note_on_c, 0, 73, 0
2, 239555, Note_on_c, 0, 85, 0
2, 239558, Control_c, 0, 64, 0
2, 239585, Note_on_c, 0, 56, 110
2, 239586, Note_on_c, 0, 64, 84
2, 239591, Note_on_c, 0, 71, 108
2, 239593, Note_on_c, 0, 83, 98
2, 239597, Note_on_c, 0, 59, 75
2, 239601, Control_c, 0, 64, 127
2, 239602, Note_on_c, 0, 64, 0
2, 239613, Note_on_c, 0, 59, 0
2, 239617, Note_on_c, 0, 56, 0
2, 239623, Note_on_c, 0, 71, 0
2, 239663, Note_on_c, 0, 76, 97
2, 239672, Note_on_c, 0, 83, 0
2, 239716, Note_on_c, 0, 76, 0
2, 239722, Note_on_c, 0, 80, 97
2, 239722, Note_on_c, 0, 64, 93
2, 239724, Note_on_c, 0, 59, 89
2, 239726, Note_on_c, 0, 56, 72
2, 239740, Note_on_c, 0, 64, 0
2, 239741, Note_on_c, 0, 59, 0
2, 239746, Note_on_c, 0, 80, 0
2, 239748, Note_on_c, 0, 56, 0
2, 239793, Note_on_c, 0, 90, 94
2, 239794, Note_on_c, 0, 78, 99
2, 239807, Note_on_c, 0, 78, 0
2, 239814, Control_c, 0, 64, 0
2, 239822, Note_on_c, 0, 90, 0
2, 239850, Control_c, 0, 64, 127
2, 239854, Note_on_c, 0, 52, 90
2, 239854, Note_on_c, 0, 76, 107
2, 239857, Note_on_c, 0, 59, 92
2, 239864, Note_on_c, 0, 88, 75
2, 239873, Note_on_c, 0, 59, 0
2, 239881, Note_on_c, 0, 88, 0
2, 239890, Note_on_c, 0, 52, 0
2, 239919, Note_on_c, 0, 80, 97
2, 239944, Note_on_c, 0, 76, 0
2, 239962, Note_on_c, 0, 56, 102
2, 239965, Note_on_c, 0, 59, 92
2, 239974, Note_on_c, 0, 80, 0
2, 239974, Note_on_c, 0, 83, 97
2, 239978, Note_on_c, 0, 59, 0
2, 239987, Note_on_c, 0, 83, 0
2, 239991, Note_on_c, 0, 56, 0
2, 240046, Note_on_c, 0, 93, 102
2, 240050, Note_on_c, 0, 81, 68
2, 240070, Note_on_c, 0, 81, 0
2, 240079, Control_c, 0, 64, 0
2, 240082, Note_on_c, 0, 93, 0
2, 240144, Note_on_c, 0, 48, 116
2, 240145, Note_on_c, 0, 36, 106
2, 240154, Note_on_c, 0, 36, 0
2, 240158, Note_on_c, 0, 48, 0
2, 240168, Note_on_c, 0, 80, 93
2, 240170, Note_on_c, 0, 87, 91
2, 240171, Control_c, 0, 64, 127
2, 240201, Note_on_c, 0, 80, 0
2, 240208, Note_on_c, 0, 87, 0
2, 240227, Note_on_c, 0, 93, 108
2, 240270, Note_on_c, 0, 93, 0
2, 240284, Note_on_c, 0, 87, 92
2, 240286, Note_on_c, 0, 80, 89
2, 240314, Note_on_c, 0, 80, 0
2, 240318, Note_on_c, 0, 87, 0
2, 240338, Note_on_c, 0, 93, 103
2, 240368, Note_on_c, 0, 93, 0
2, 240373, Note_on_c, 0, 63, 101
2, 240376, Note_on_c, 0, 68, 86
2, 240379, Note_on_c, 0, 87, 94
2, 240379, Note_on_c, 0, 80, 92
2, 240382, Note_on_c, 0, 56, 54
2, 240384, Note_on_c, 0, 63, 0
2, 240390, Note_on_c, 0, 68, 0
2, 240399, Note_on_c, 0, 56, 0
2, 240403, Note_on_c, 0, 80, 0
2, 240407, Note_on_c, 0, 87, 0
2, 240427, Note_on_c, 0, 93, 105
2, 240440, Note_on_c, 0, 93, 0
2, 240448, Note_on_c, 0, 68, 95
2, 240448, Note_on_c, 0, 56, 72
2, 240449, Note_on_c, 0, 87, 85
2, 240449, Note_on_c, 0, 63, 105
2, 240451, Note_on_c, 0, 80, 105
2, 240458, Note_on_c, 0, 63, 0
2, 240462, Note_on_c, 0, 68, 0
2, 240466, Note_on_c, 0, 56, 0
2, 240480, Note_on_c, 0, 80, 0
2, 240486, Control_c, 0, 64, 0
2, 240489, Note_on_c, 0, 87, 0
2, 240499, Note_on_c, 0, 93, 105
2, 240515, Note_on_c, 0, 56, 111
2, 240515, Note_on_c, 0, 68, 111
2, 240517, Note_on_c, 0, 63, 111
2, 240521, Note_on_c, 0, 92, 111
2, 240524, Note_on_c, 0, 87, 111
2, 240527, Note_on_c, 0, 63, 0
2, 240527, Note_on_c, 0, 80, 105
2, 240528, Note_on_c, 0, 68, 0
2, 240528, Note_on_c, 0, 56, 0
2, 240538, Note_on_c, 0, 93, 0
2, 240546, Control_c, 0, 64, 127
2, 240722, Note_on_c, 0, 63, 97
2, 240723, Note_on_c, 0, 68, 95
2, 240725, Note_on_c, 0, 56, 91
2, 240733, Note_on_c, 0, 63, 0
2, 240734, Note_on_c, 0, 68, 0
2, 240739, Note_on_c, 0, 56, 0
2, 240887, Note_on_c, 0, 92, 0
2, 240908, Note_on_c, 0, 87, 0
2, 240927, Note_on_c, 0, 80, 0
2, 240928, Note_on_c, 0, 68, 116
2, 240930, Note_on_c, 0, 63, 108
2, 240930, Note_on_c, 0, 56, 111
2, 240937, Note_on_c, 0, 68, 0
2, 240940, Note_on_c, 0, 63, 0
2, 240942, Note_on_c, 0, 56, 0
2, 241142, Note_on_c, 0, 90, 102
2, 241145, Note_on_c, 0, 78, 104
2, 241169, Note_on_c, 0, 78, 0
2, 241171, Note_on_c, 0, 90, 0
2, 241245, Control_c, 0, 64, 0
2, 241305, Control_c, 0, 67, 127
2, 241323, Note_on_c, 0, 76, 105
2, 241326, Note_on_c, 0, 88, 99
2, 241330, Note_on_c, 0, 37, 99
2, 241332, Note_on_c, 0, 49, 99
2, 241343, Control_c, 0, 64, 127
2, 241344, Note_on_c, 0, 37, 0
2, 241344, Note_on_c, 0, 88, 0
2, 241345, Note_on_c, 0, 49, 0
2, 241356, Note_on_c, 0, 76, 0
2, 241369, Note_on_c, 0, 78, 99
2, 241400, Note_on_c, 0, 78, 0
2, 241421, Note_on_c, 0, 76, 105
2, 241442, Note_on_c, 0, 76, 0
2, 241463, Control_c, 0, 67, 0
2, 241478, Note_on_c, 0, 87, 107
2, 241478, Note_on_c, 0, 55, 101
2, 241479, Note_on_c, 0, 64, 88
2, 241479, Note_on_c, 0, 58, 90
2, 241482, Note_on_c, 0, 75, 109
2, 241491, Note_on_c, 0, 55, 0
2, 241493, Note_on_c, 0, 58, 0
2, 241493, Note_on_c, 0, 64, 0
2, 241504, Note_on_c, 0, 75, 0
2, 241507, Note_on_c, 0, 87, 0
2, 241534, Control_c, 0, 64, 0
2, 241585, Note_on_c, 0, 73, 109
2, 241585, Note_on_c, 0, 85, 109
2, 241613, Note_on_c, 0, 73, 0
2, 241619, Note_on_c, 0, 85, 0
2, 241700, Note_on_c, 0, 39, 110
2, 241703, Note_on_c, 0, 83, 105
2, 241704, Note_on_c, 0, 51, 113
2, 241706, Note_on_c, 0, 71, 108
2, 241711, Note_on_c, 0, 39, 0
2, 241712, Note_on_c, 0, 51, 0
2, 241726, Control_c, 0, 64, 127
2, 241835, Note_on_c, 0, 71, 0
2, 241877, Note_on_c, 0, 83, 0
2, 241953, Note_on_c, 0, 66, 84
2, 241957, Note_on_c, 0, 59, 84
2, 241963, Note_on_c, 0, 57, 60
2, 241968, Note_on_c, 0, 66, 0
2, 241971, Note_on_c, 0, 59, 0
2, 241979, Note_on_c, 0, 57, 0
2, 242001, Note_on_c, 0, 66, 94
2, 242005, Note_on_c, 0, 59, 90
2, 242015, Note_on_c, 0, 57, 87
2, 242018, Note_on_c, 0, 59, 0
2, 242022, Note_on_c, 0, 66, 0
2, 242029, Note_on_c, 0, 57, 0
2, 242046, Note_on_c, 0, 66, 105
2, 242048, Note_on_c, 0, 59, 94
2, 242059, Note_on_c, 0, 66, 0
2, 242061, Note_on_c, 0, 59, 0
2, 242062, Note_on_c, 0, 57, 75
2, 242078, Note_on_c, 0, 57, 0
2, 242206, Note_on_c, 0, 90, 102
2, 242207, Note_on_c, 0, 78, 111
2, 242232, Control_c, 0, 64, 0
2, 242234, Note_on_c, 0, 78, 0
2, 242235, Note_on_c, 0, 90, 0
2, 242333, Note_on_c, 0, 37, 101
2, 242337, Note_on_c, 0, 49, 112
2, 242344, Note_on_c, 0, 37, 0
2, 242344, Note_on_c, 0, 76, 89
2, 242347, Note_on_c, 0, 49, 0
2, 242347, Note_on_c, 0, 88, 39
2, 242361, Control_c, 0, 64, 127
2, 242362, Note_on_c, 0, 88, 0
2, 242377, Note_on_c, 0, 76, 0
2, 242389, Note_on_c, 0, 78, 96
2, 242425, Note_on_c, 0, 78, 0
2, 242429, Note_on_c, 0, 76, 88
2, 242455, Note_on_c, 0, 76, 0
2, 242492, Note_on_c, 0, 58, 107
2, 242494, Note_on_c, 0, 55, 99
2, 242496, Note_on_c, 0, 75, 101
2, 242496, Note_on_c, 0, 87, 97
2, 242497, Note_on_c, 0, 64, 80
2, 242507, Note_on_c, 0, 55, 0
2, 242510, Note_on_c, 0, 58, 0
2, 242511, Note_on_c, 0, 64, 0
2, 242515, Note_on_c, 0, 75, 0
2, 242522, Note_on_c, 0, 87, 0
2, 242550, Control_c, 0, 64, 0
2, 242601, Note_on_c, 0, 73, 102
2, 242601, Note_on_c, 0, 85, 105
2, 242620, Note_on_c, 0, 73, 0
2, 242635, Note_on_c, 0, 85, 0
2, 242714, Note_on_c, 0, 39, 117
2, 242715, Note_on_c, 0, 83, 103
2, 242718, Note_on_c, 0, 71, 108
2, 242718, Note_on_c, 0, 51, 124
2, 242727, Note_on_c, 0, 51, 0
2, 242729, Note_on_c, 0, 39, 0
2, 242740, Control_c, 0, 64, 127
2, 242942, Note_on_c, 0, 66, 86
2, 242944, Note_on_c, 0, 59, 78
2, 242953, Note_on_c, 0, 57, 41
2, 242957, Note_on_c, 0, 66, 0
2, 242960, Note_on_c, 0, 59, 0
2, 242968, Note_on_c, 0, 57, 0
2, 242975, Note_on_c, 0, 83, 0
2, 242993, Note_on_c, 0, 66, 87
2, 242995, Note_on_c, 0, 59, 89
2, 243000, Note_on_c, 0, 57, 92
2, 243004, Note_on_c, 0, 71, 0
2, 243010, Note_on_c, 0, 59, 0
2, 243011, Note_on_c, 0, 66, 0
2, 243012, Note_on_c, 0, 57, 0
2, 243037, Note_on_c, 0, 66, 104
2, 243043, Note_on_c, 0, 59, 87
2, 243043, Note_on_c, 0, 57, 91
2, 243050, Note_on_c, 0, 66, 0
2, 243054, Note_on_c, 0, 57, 0
2, 243056, Note_on_c, 0, 59, 0
2, 243196, Note_on_c, 0, 78, 95
2, 243197, Note_on_c, 0, 81, 97
2, 243203, Note_on_c, 0, 71, 92
2, 243218, Note_on_c, 0, 71, 0
2, 243225, Control_c, 0, 64, 0
2, 243256, Note_on_c, 0, 81, 0
2, 243259, Note_on_c, 0, 78, 0
2, 243293, Note_on_c, 0, 41, 99
2, 243313, Note_on_c, 0, 53, 111
2, 243319, Note_on_c, 0, 41, 0
2, 243326, Note_on_c, 0, 53, 0
2, 243344, Note_on_c, 0, 80, 105
2, 243348, Note_on_c, 0, 71, 107
2, 243353, Control_c, 0, 64, 127
2, 243381, Note_on_c, 0, 80, 0
2, 243401, Note_on_c, 0, 81, 97
2, 243442, Note_on_c, 0, 80, 104
2, 243465, Note_on_c, 0, 81, 0
2, 243474, Note_on_c, 0, 68, 105
2, 243479, Note_on_c, 0, 59, 93
2, 243483, Note_on_c, 0, 62, 75
2, 243484, Note_on_c, 0, 68, 0
2, 243484, Note_on_c, 0, 71, 0
2, 243490, Note_on_c, 0, 80, 0
2, 243490, Note_on_c, 0, 79, 108
2, 243491, Note_on_c, 0, 59, 0
2, 243498, Note_on_c, 0, 62, 0
2, 243547, Note_on_c, 0, 79, 0
2, 243574, Note_on_c, 0, 80, 102
2, 243596, Control_c, 0, 64, 0
2, 243622, Note_on_c, 0, 80, 0
2, 243627, Note_on_c, 0, 69, 92
2, 243650, Note_on_c, 0, 73, 91
2, 243654, Note_on_c, 0, 69, 0
2, 243659, Note_on_c, 0, 78, 97
2, 243661, Note_on_c, 0, 42, 96
2, 243662, Note_on_c, 0, 73, 0
2, 243664, Note_on_c, 0, 54, 101
2, 243672, Note_on_c, 0, 42, 0
2, 243674, Note_on_c, 0, 54, 0
2, 243677, Control_c, 0, 64, 127
2, 243692, Note_on_c, 0, 83, 89
2, 243694, Note_on_c, 0, 78, 0
2, 243729, Note_on_c, 0, 83, 0
2, 243828, Note_on_c, 0, 66, 78
2, 243830, Note_on_c, 0, 61, 87
2, 243831, Note_on_c, 0, 57, 91
2, 243838, Note_on_c, 0, 81, 100
2, 243842, Note_on_c, 0, 66, 0
2, 243843, Note_on_c, 0, 61, 0
2, 243845, Note_on_c, 0, 57, 0
2, 243877, Note_on_c, 0, 81, 0
2, 243913, Note_on_c, 0, 78, 107
2, 243947, Note_on_c, 0, 78, 0
2, 243957, Control_c, 0, 64, 0
2, 244004, Note_on_c, 0, 36, 91
2, 244012, Note_on_c, 0, 48, 126
2, 244026, Note_on_c, 0, 76, 98
2, 244027, Note_on_c, 0, 36, 0
2, 244035, Note_on_c, 0, 67, 90
2, 244038, Note_on_c, 0, 48, 0
2, 244050, Control_c, 0, 64, 127
2, 244076, Note_on_c, 0, 76, 0
2, 244080, Note_on_c, 0, 78, 98
2, 244123, Note_on_c, 0, 76, 82
2, 244125, Note_on_c, 0, 67, 0
2, 244160, Note_on_c, 0, 78, 0
2, 244167, Note_on_c, 0, 58, 105
2, 244168, Note_on_c, 0, 55, 105
2, 244172, Note_on_c, 0, 75, 101
2, 244173, Note_on_c, 0, 64, 65
2, 244178, Note_on_c, 0, 76, 0
2, 244180, Note_on_c, 0, 55, 0
2, 244189, Note_on_c, 0, 64, 0
2, 244194, Note_on_c, 0, 58, 0
2, 244232, Note_on_c, 0, 75, 0
2, 244253, Note_on_c, 0, 76, 92
2, 244264, Control_c, 0, 64, 0
2, 244326, Note_on_c, 0, 76, 0
2, 244338, Note_on_c, 0, 35, 82
2, 244344, Note_on_c, 0, 47, 127
2, 244361, Note_on_c, 0, 35, 0
2, 244365, Note_on_c, 0, 80, 103
2, 244370, Note_on_c, 0, 69, 93
2, 244372, Note_on_c, 0, 47, 0
2, 244372, Note_on_c, 0, 75, 90
2, 244380, Control_c, 0, 64, 127
2, 244409, Note_on_c, 0, 69, 0
2, 244421, Note_on_c, 0, 80, 0
2, 244431, Note_on_c, 0, 75, 0
2, 244492, Note_on_c, 0, 78, 104
2, 244496, Note_on_c, 0, 69, 88
2, 244516, Note_on_c, 0, 69, 0
2, 244528, Note_on_c, 0, 78, 0
2, 244577, Note_on_c, 0, 78, 93
2, 244582, Note_on_c, 0, 63, 102
2, 244585, Note_on_c, 0, 54, 62
2, 244586, Note_on_c, 0, 69, 84
2, 244586, Note_on_c, 0, 57, 92
2, 244595, Note_on_c, 0, 63, 0
2, 244598, Note_on_c, 0, 57, 0
2, 244600, Note_on_c, 0, 54, 0
2, 244602, Note_on_c, 0, 69, 0
2, 244612, Note_on_c, 0, 78, 0
2, 244636, Note_on_c, 0, 75, 110
2, 244636, Note_on_c, 0, 54, 66
2, 244638, Note_on_c, 0, 63, 88
2, 244640, Note_on_c, 0, 57, 84
2, 244654, Note_on_c, 0, 57, 0
2, 244655, Note_on_c, 0, 54, 0
2, 244657, Note_on_c, 0, 63, 0
2, 244677, Note_on_c, 0, 75, 0
2, 244680, Note_on_c, 0, 54, 95
2, 244681, Note_on_c, 0, 63, 110
2, 244684, Note_on_c, 0, 57, 99
2, 244690, Note_on_c, 0, 73, 111
2, 244693, Note_on_c, 0, 69, 93
2, 244695, Note_on_c, 0, 57, 0
2, 244700, Note_on_c, 0, 63, 0
2, 244708, Note_on_c, 0, 54, 0
2, 244730, Note_on_c, 0, 73, 0
2, 244731, Note_on_c, 0, 69, 0
2, 245030, Note_on_c, 0, 71, 116
2, 245061, Note_on_c, 0, 71, 0
2, 245158, Control_c, 0, 64, 0
2, 245242, Note_on_c, 0, 71, 107
2, 245249, Note_on_c, 0, 51, 94
2, 245250, Note_on_c, 0, 47, 102
2, 245250, Note_on_c, 0, 57, 103
2, 245250, Note_on_c, 0, 54, 93
2, 245253, Note_on_c, 0, 59, 94
2, 245261, Note_on_c, 0, 54, 0
2, 245261, Note_on_c, 0, 57, 0
2, 245261, Note_on_c, 0, 51, 0
2, 245262, Note_on_c, 0, 47, 0
2, 245267, Note_on_c, 0, 59, 0
2, 245267, Control_c, 0, 64, 127
2, 245294, Note_on_c, 0, 63, 102
2, 245300, Note_on_c, 0, 71, 0
2, 245319, Note_on_c, 0, 63, 0
2, 245332, Note_on_c, 0, 66, 103
2, 245356, Note_on_c, 0, 66, 0
2, 245404, Control_c, 0, 64, 0
2, 245466, Note_on_c, 0, 80, 103
2, 245467, Note_on_c, 0, 52, 126
2, 245468, Note_on_c, 0, 40, 107
2, 245468, Note_on_c, 0, 68, 105
2, 245477, Note_on_c, 0, 52, 0
2, 245478, Note_on_c, 0, 40, 0
2, 245484, Control_c, 0, 64, 127
2, 245496, Note_on_c, 0, 68, 0
2, 245517, Note_on_c, 0, 80, 0
2, 245527, Note_on_c, 0, 71, 93
2, 245534, Note_on_c, 0, 72, 41
2, 245548, Note_on_c, 0, 72, 0
2, 245560, Note_on_c, 0, 71, 0
2, 245564, Note_on_c, 0, 76, 94
2, 245587, Note_on_c, 0, 76, 0
2, 245755, Control_c, 0, 64, 0
2, 245763, Note_on_c, 0, 73, 105
2, 245764, Note_on_c, 0, 58, 94
2, 245765, Note_on_c, 0, 64, 103
2, 245766, Note_on_c, 0, 85, 101
2, 245767, Note_on_c, 0, 55, 83
2, 245774, Note_on_c, 0, 58, 0
2, 245778, Note_on_c, 0, 64, 0
2, 245781, Note_on_c, 0, 55, 0
2, 245782, Note_on_c, 0, 85, 0
2, 245790, Note_on_c, 0, 73, 0
2, 245810, Note_on_c, 0, 55, 99
2, 245810, Note_on_c, 0, 85, 104
2, 245811, Note_on_c, 0, 58, 90
2, 245811, Note_on_c, 0, 64, 99
2, 245814, Note_on_c, 0, 73, 113
2, 245820, Control_c, 0, 64, 127
2, 245834, Note_on_c, 0, 55, 0
2, 245837, Note_on_c, 0, 58, 0
2, 245838, Note_on_c, 0, 64, 0
2, 246009, Note_on_c, 0, 58, 102
2, 246012, Note_on_c, 0, 64, 105
2, 246014, Note_on_c, 0, 55, 98
2, 246020, Note_on_c, 0, 58, 0
2, 246023, Note_on_c, 0, 64, 0
2, 246026, Note_on_c, 0, 55, 0
2, 246151, Control_c, 0, 64, 0
2, 246178, Note_on_c, 0, 56, 110
2, 246181, Note_on_c, 0, 64, 107
2, 246182, Note_on_c, 0, 59, 106
2, 246183, Note_on_c, 0, 85, 0
2, 246188, Note_on_c, 0, 73, 0
2, 246192, Note_on_c, 0, 64, 0
2, 246194, Note_on_c, 0, 59, 0
2, 246201, Note_on_c, 0, 56, 0
2, 246210, Control_c, 0, 64, 127
2, 246358, Note_on_c, 0, 83, 99
2, 246362, Note_on_c, 0, 71, 105
2, 246375, Note_on_c, 0, 83, 0
2, 246386, Note_on_c, 0, 71, 0
2, 246406, Control_c, 0, 64, 0
2, 246452, Note_on_c, 0, 40, 101
2, 246479, Note_on_c, 0, 52, 103
2, 246494, Note_on_c, 0, 40, 0
2, 246508, Note_on_c, 0, 52, 0
2, 246512, Note_on_c, 0, 80, 84
2, 246514, Note_on_c, 0, 68, 108
2, 246526, Control_c, 0, 64, 127
2, 246547, Note_on_c, 0, 68, 0
2, 246549, Note_on_c, 0, 80, 0
2, 246595, Note_on_c, 0, 71, 95
2, 246603, Note_on_c, 0, 64, 89
2, 246616, Note_on_c, 0, 64, 0
2, 246635, Note_on_c, 0, 71, 0
2, 246672, Note_on_c, 0, 68, 70
2, 246674, Note_on_c, 0, 76, 86
2, 246687, Note_on_c, 0, 68, 0
2, 246713, Note_on_c, 0, 76, 0
2, 246830, Note_on_c, 0, 73, 96
2, 246830, Control_c, 0, 64, 0
2, 246834, Note_on_c, 0, 58, 84
2, 246835, Note_on_c, 0, 64, 98
2, 246837, Note_on_c, 0, 85, 89
2, 246837, Note_on_c, 0, 55, 84
2, 246847, Note_on_c, 0, 64, 0
2, 246847, Note_on_c, 0, 58, 0
2, 246849, Note_on_c, 0, 85, 0
2, 246852, Note_on_c, 0, 55, 0
2, 246853, Note_on_c, 0, 73, 0
2, 246875, Note_on_c, 0, 85, 99
2, 246878, Note_on_c, 0, 73, 113
2, 246878, Note_on_c, 0, 58, 97
2, 246879, Note_on_c, 0, 64, 98
2, 246880, Note_on_c, 0, 55, 103
2, 246893, Note_on_c, 0, 55, 0
2, 246901, Note_on_c, 0, 64, 0
2, 246901, Control_c, 0, 64, 127
2, 246907, Note_on_c, 0, 58, 0
2, 247073, Note_on_c, 0, 58, 82
2, 247073, Note_on_c, 0, 55, 101
2, 247074, Note_on_c, 0, 64, 98
2, 247085, Note_on_c, 0, 58, 0
2, 247086, Note_on_c, 0, 64, 0
2, 247088, Note_on_c, 0, 55, 0
2, 247217, Control_c, 0, 64, 0
2, 247247, Note_on_c, 0, 56, 111
2, 247251, Note_on_c, 0, 64, 105
2, 247252, Note_on_c, 0, 59, 106
2, 247257, Note_on_c, 0, 85, 0
2, 247261, Note_on_c, 0, 64, 0
2, 247263, Note_on_c, 0, 59, 0
2, 247268, Note_on_c, 0, 73, 0
2, 247270, Note_on_c, 0, 56, 0
2, 247276, Control_c, 0, 64, 127
2, 247428, Note_on_c, 0, 83, 97
2, 247430, Note_on_c, 0, 71, 103
2, 247438, Control_c, 0, 64, 0
2, 247448, Note_on_c, 0, 83, 0
2, 247456, Note_on_c, 0, 71, 0
2, 247538, Note_on_c, 0, 40, 98
2, 247564, Note_on_c, 0, 52, 107
2, 247579, Note_on_c, 0, 40, 0
2, 247588, Note_on_c, 0, 52, 0
2, 247590, Note_on_c, 0, 80, 85
2, 247595, Note_on_c, 0, 68, 104
2, 247605, Control_c, 0, 64, 127
2, 247639, Note_on_c, 0, 80, 0
2, 247650, Note_on_c, 0, 68, 0
2, 247701, Note_on_c, 0, 71, 100
2, 247710, Note_on_c, 0, 64, 88
2, 247724, Note_on_c, 0, 64, 0
2, 247750, Note_on_c, 0, 71, 0
2, 247793, Note_on_c, 0, 76, 102
2, 247797, Note_on_c, 0, 68, 88
2, 247818, Note_on_c, 0, 68, 0
2, 247831, Note_on_c, 0, 76, 0
2, 247910, Note_on_c, 0, 58, 91
2, 247915, Note_on_c, 0, 64, 88
2, 247916, Note_on_c, 0, 73, 100
2, 247917, Note_on_c, 0, 55, 74
2, 247919, Note_on_c, 0, 85, 102
2, 247922, Note_on_c, 0, 58, 0
2, 247923, Control_c, 0, 64, 0
2, 247928, Note_on_c, 0, 64, 0
2, 247932, Note_on_c, 0, 85, 0
2, 247933, Note_on_c, 0, 55, 0
2, 247935, Note_on_c, 0, 73, 0
2, 247964, Note_on_c, 0, 56, 109
2, 247966, Note_on_c, 0, 83, 105
2, 247967, Note_on_c, 0, 64, 88
2, 247969, Note_on_c, 0, 71, 110
2, 247973, Note_on_c, 0, 59, 92
2, 247983, Control_c, 0, 64, 127
2, 247985, Note_on_c, 0, 59, 0
2, 247985, Note_on_c, 0, 64, 0
2, 247999, Note_on_c, 0, 56, 0
2, 248000, Note_on_c, 0, 71, 0
2, 248042, Note_on_c, 0, 76, 89
2, 248044, Note_on_c, 0, 83, 0
2, 248092, Note_on_c, 0, 76, 0
2, 248093, Note_on_c, 0, 80, 96
2, 248103, Note_on_c, 0, 56, 92
2, 248104, Note_on_c, 0, 64, 89
2, 248108, Note_on_c, 0, 59, 73
2, 248112, Note_on_c, 0, 80, 0
2, 248117, Note_on_c, 0, 64, 0
2, 248119, Note_on_c, 0, 56, 0
2, 248125, Note_on_c, 0, 59, 0
2, 248162, Note_on_c, 0, 78, 104
2, 248163, Note_on_c, 0, 90, 102
2, 248184, Note_on_c, 0, 78, 0
2, 248189, Control_c, 0, 64, 0
2, 248193, Note_on_c, 0, 90, 0
2, 248225, Note_on_c, 0, 59, 101
2, 248225, Note_on_c, 0, 52, 99
2, 248226, Note_on_c, 0, 56, 75
2, 248226, Note_on_c, 0, 76, 107
2, 248232, Note_on_c, 0, 88, 92
2, 248240, Control_c, 0, 64, 127
2, 248244, Note_on_c, 0, 56, 0
2, 248246, Note_on_c, 0, 88, 0
2, 248250, Note_on_c, 0, 59, 0
2, 248281, Note_on_c, 0, 80, 96
2, 248308, Note_on_c, 0, 76, 0
2, 248309, Note_on_c, 0, 52, 0
2, 248332, Note_on_c, 0, 83, 94
2, 248336, Note_on_c, 0, 80, 0
2, 248338, Note_on_c, 0, 56, 101
2, 248343, Note_on_c, 0, 59, 100
2, 248344, Note_on_c, 0, 83, 0
2, 248352, Note_on_c, 0, 64, 47
2, 248355, Note_on_c, 0, 59, 0
2, 248368, Note_on_c, 0, 64, 0
2, 248374, Note_on_c, 0, 56, 0
2, 248400, Note_on_c, 0, 81, 94
2, 248403, Note_on_c, 0, 93, 86
2, 248419, Note_on_c, 0, 81, 0
2, 248420, Note_on_c, 0, 93, 0
2, 248466, Control_c, 0, 64, 0
2, 248558, Note_on_c, 0, 80, 103
2, 248561, Note_on_c, 0, 37, 112
2, 248562, Note_on_c, 0, 49, 127
2, 248563, Note_on_c, 0, 85, 99
2, 248571, Note_on_c, 0, 49, 0
2, 248574, Note_on_c, 0, 37, 0
2, 248580, Control_c, 0, 64, 127
2, 248594, Note_on_c, 0, 80, 0
2, 248600, Note_on_c, 0, 85, 0
2, 248617, Note_on_c, 0, 94, 109
2, 248669, Note_on_c, 0, 94, 0
2, 248681, Note_on_c, 0, 80, 90
2, 248683, Note_on_c, 0, 85, 95
2, 248716, Note_on_c, 0, 80, 0
2, 248718, Note_on_c, 0, 85, 0
2, 248727, Note_on_c, 0, 94, 105
2, 248769, Note_on_c, 0, 94, 0
2, 248779, Note_on_c, 0, 80, 102
2, 248781, Note_on_c, 0, 85, 104
2, 248806, Note_on_c, 0, 68, 94
2, 248808, Note_on_c, 0, 61, 70
2, 248809, Note_on_c, 0, 65, 78
2, 248813, Note_on_c, 0, 80, 0
2, 248814, Note_on_c, 0, 85, 0
2, 248819, Note_on_c, 0, 68, 0
2, 248824, Note_on_c, 0, 65, 0
2, 248826, Note_on_c, 0, 61, 0
2, 248829, Note_on_c, 0, 94, 109
2, 248865, Note_on_c, 0, 94, 0
2, 248876, Note_on_c, 0, 85, 105
2, 248879, Note_on_c, 0, 80, 80
2, 248892, Note_on_c, 0, 61, 91
2, 248893, Note_on_c, 0, 68, 90
2, 248896, Note_on_c, 0, 65, 84
2, 248897, Note_on_c, 0, 80, 0
2, 248903, Note_on_c, 0, 56, 38
2, 248906, Note_on_c, 0, 68, 0
2, 248906, Note_on_c, 0, 61, 0
2, 248908, Note_on_c, 0, 85, 0
2, 248910, Note_on_c, 0, 65, 0
2, 248916, Note_on_c, 0, 56, 0
2, 248920, Note_on_c, 0, 94, 112
2, 248944, Note_on_c, 0, 68, 94
2, 248947, Note_on_c, 0, 56, 90
2, 248948, Note_on_c, 0, 61, 82
2, 248951, Note_on_c, 0, 65, 74
2, 248954, Note_on_c, 0, 80, 101
2, 248954, Note_on_c, 0, 85, 97
2, 248964, Note_on_c, 0, 56, 0
2, 248965, Note_on_c, 0, 65, 0
2, 248966, Note_on_c, 0, 94, 0
2, 248969, Note_on_c, 0, 68, 0
2, 248977, Note_on_c, 0, 61, 0
2, 248990, Note_on_c, 0, 80, 0
2, 249000, Note_on_c, 0, 85, 0
2, 249006, Note_on_c, 0, 94, 94
2, 249058, Note_on_c, 0, 94, 0
2, 249060, Note_on_c, 0, 80, 90
2, 249062, Note_on_c, 0, 85, 108
2, 249096, Note_on_c, 0, 85, 0
2, 249097, Note_on_c, 0, 80, 0
2, 249111, Note_on_c, 0, 94, 111
2, 249150, Note_on_c, 0, 61, 72
2, 249150, Note_on_c, 0, 68, 90
2, 249151, Note_on_c, 0, 85, 108
2, 249151, Note_on_c, 0, 80, 98
2, 249157, Note_on_c, 0, 94, 0
2, 249157, Note_on_c, 0, 56, 43
2, 249161, Note_on_c, 0, 65, 39
2, 249163, Note_on_c, 0, 68, 0
2, 249166, Note_on_c, 0, 61, 0
2, 249175, Note_on_c, 0, 65, 0
2, 249179, Note_on_c, 0, 56, 0
2, 249190, Note_on_c, 0, 80, 0
2, 249197, Note_on_c, 0, 85, 0
2, 249205, Note_on_c, 0, 94, 102
2, 249253, Note_on_c, 0, 94, 0
2, 249254, Note_on_c, 0, 85, 102
2, 249254, Note_on_c, 0, 80, 94
2, 249292, Note_on_c, 0, 85, 0
2, 249293, Note_on_c, 0, 80, 0
2, 249310, Note_on_c, 0, 94, 109
2, 249340, Note_on_c, 0, 92, 113
2, 249342, Note_on_c, 0, 80, 116
2, 249344, Note_on_c, 0, 85, 105
2, 249344, Note_on_c, 0, 56, 101
2, 249345, Note_on_c, 0, 61, 99
2, 249345, Note_on_c, 0, 68, 111
2, 249346, Note_on_c, 0, 65, 103
2, 249356, Note_on_c, 0, 56, 0
2, 249358, Note_on_c, 0, 65, 0
2, 249358, Note_on_c, 0, 94, 0
2, 249366, Note_on_c, 0, 68, 0
2, 249369, Note_on_c, 0, 61, 0
2, 249376, Note_on_c, 0, 80, 0
2, 249378, Note_on_c, 0, 92, 0
2, 249386, Note_on_c, 0, 85, 0
2, 249943, Control_c, 0, 64, 0
2, 249990, Control_c, 0, 64, 127
2, 250167, Control_c, 0, 64, 0
2, 250352, Note_on_c, 0, 49, 81
2, 250365, Note_on_c, 0, 25, 85
2, 250366, Note_on_c, 0, 49, 0
2, 250372, Control_c, 0, 64, 127
2, 250379, Note_on_c, 0, 25, 0
2, 250389, Note_on_c, 0, 49, 102
2, 250409, Note_on_c, 0, 49, 0
2, 250431, Note_on_c, 0, 49, 83
2, 250457, Note_on_c, 0, 49, 0
2, 250469, Control_c, 0, 67, 127
2, 250481, Note_on_c, 0, 53, 81
2, 250492, Note_on_c, 0, 29, 87
2, 250506, Control_c, 0, 64, 0
2, 250509, Note_on_c, 0, 29, 0
2, 250518, Note_on_c, 0, 53, 0
2, 250672, Note_on_c, 0, 48, 94
2, 250678, Control_c, 0, 67, 0
2, 250684, Note_on_c, 0, 36, 38
2, 250691, Note_on_c, 0, 48, 0
2, 250697, Note_on_c, 0, 36, 0
2, 250834, Note_on_c, 0, 53, 95
2, 250836, Note_on_c, 0, 41, 85
2, 250851, Note_on_c, 0, 41, 0
2, 250866, Note_on_c, 0, 53, 0
2, 250999, Note_on_c, 0, 35, 84
2, 251000, Note_on_c, 0, 47, 84
2, 251011, Note_on_c, 0, 35, 0
2, 251017, Note_on_c, 0, 47, 0
2, 251164, Note_on_c, 0, 53, 90
2, 251164, Note_on_c, 0, 41, 90
2, 251178, Note_on_c, 0, 53, 0
2, 251179, Note_on_c, 0, 41, 0
2, 251182, Control_c, 0, 64, 127
2, 251306, Control_c, 0, 64, 0
2, 251330, Note_on_c, 0, 58, 79
2, 251348, Note_on_c, 0, 34, 79
2, 251349, Note_on_c, 0, 58, 0
2, 251353, Note_on_c, 0, 46, 81
2, 251359, Control_c, 0, 64, 127
2, 251365, Note_on_c, 0, 34, 0
2, 251368, Note_on_c, 0, 46, 0
2, 251370, Note_on_c, 0, 58, 81
2, 251385, Note_on_c, 0, 58, 0
2, 251410, Note_on_c, 0, 58, 104
2, 251423, Note_on_c, 0, 58, 0
2, 251446, Note_on_c, 0, 50, 91
2, 251447, Note_on_c, 0, 38, 95
2, 251448, Note_on_c, 0, 62, 91
2, 251456, Control_c, 0, 64, 0
2, 251459, Note_on_c, 0, 38, 0
2, 251460, Note_on_c, 0, 50, 0
2, 251486, Note_on_c, 0, 62, 0
2, 251635, Note_on_c, 0, 57, 103
2, 251638, Note_on_c, 0, 33, 76
2, 251640, Note_on_c, 0, 45, 95
2, 251647, Note_on_c, 0, 57, 0
2, 251652, Note_on_c, 0, 45, 0
2, 251652, Note_on_c, 0, 33, 0
2, 251804, Note_on_c, 0, 38, 98
2, 251807, Note_on_c, 0, 62, 91
2, 251808, Note_on_c, 0, 50, 72
2, 251818, Note_on_c, 0, 38, 0
2, 251822, Control_c, 0, 64, 127
2, 251825, Note_on_c, 0, 62, 0
2, 251827, Note_on_c, 0, 50, 0
2, 251836, Control_c, 0, 64, 0
2, 251974, Note_on_c, 0, 44, 98
2, 251975, Note_on_c, 0, 32, 100
2, 251975, Note_on_c, 0, 56, 101
2, 251989, Note_on_c, 0, 32, 0
2, 251991, Note_on_c, 0, 44, 0
2, 252010, Note_on_c, 0, 56, 0
2, 252150, Note_on_c, 0, 38, 92
2, 252152, Note_on_c, 0, 62, 93
2, 252152, Note_on_c, 0, 50, 86
2, 252165, Note_on_c, 0, 62, 0
2, 252167, Control_c, 0, 64, 127
2, 252168, Note_on_c, 0, 50, 0
2, 252168, Note_on_c, 0, 38, 0
2, 252302, Control_c, 0, 64, 0
2, 252328, Note_on_c, 0, 67, 98
2, 252339, Note_on_c, 0, 31, 97
2, 252341, Note_on_c, 0, 67, 0
2, 252345, Note_on_c, 0, 43, 62
2, 252350, Note_on_c, 0, 31, 0
2, 252359, Control_c, 0, 64, 127
2, 252361, Note_on_c, 0, 43, 0
2, 252379, Note_on_c, 0, 67, 84
2, 252393, Note_on_c, 0, 67, 0
2, 252422, Note_on_c, 0, 67, 92
2, 252451, Note_on_c, 0, 35, 110
2, 252451, Note_on_c, 0, 47, 120
2, 252454, Control_c, 0, 64, 0
2, 252461, Note_on_c, 0, 47, 0
2, 252463, Note_on_c, 0, 59, 102
2, 252464, Note_on_c, 0, 71, 91
2, 252465, Note_on_c, 0, 35, 0
2, 252465, Note_on_c, 0, 67, 0
2, 252475, Note_on_c, 0, 59, 0
2, 252477, Note_on_c, 0, 71, 0
2, 252637, Note_on_c, 0, 66, 95
2, 252641, Note_on_c, 0, 30, 90
2, 252645, Note_on_c, 0, 42, 77
2, 252654, Note_on_c, 0, 30, 0
2, 252659, Note_on_c, 0, 42, 0
2, 252660, Note_on_c, 0, 66, 0
2, 252795, Note_on_c, 0, 71, 106
2, 252797, Note_on_c, 0, 35, 101
2, 252797, Note_on_c, 0, 59, 103
2, 252802, Note_on_c, 0, 47, 84
2, 252812, Note_on_c, 0, 35, 0
2, 252814, Note_on_c, 0, 59, 0
2, 252816, Note_on_c, 0, 47, 0
2, 252822, Note_on_c, 0, 71, 0
2, 252951, Note_on_c, 0, 65, 99
2, 252954, Note_on_c, 0, 41, 99
2, 252955, Note_on_c, 0, 29, 91
2, 252968, Note_on_c, 0, 41, 0
2, 252969, Note_on_c, 0, 29, 0
2, 252987, Note_on_c, 0, 65, 0
2, 253104, Control_c, 0, 64, 127
2, 253108, Note_on_c, 0, 71, 101
2, 253108, Note_on_c, 0, 47, 99
2, 253109, Note_on_c, 0, 59, 101
2, 253110, Note_on_c, 0, 35, 91
2, 253119, Note_on_c, 0, 47, 0
2, 253126, Note_on_c, 0, 35, 0
2, 253130, Note_on_c, 0, 59, 0
2, 253143, Note_on_c, 0, 71, 0
2, 253264, Control_c, 0, 64, 0
2, 253277, Note_on_c, 0, 67, 80
2, 253278, Note_on_c, 0, 31, 101
2, 253280, Note_on_c, 0, 43, 92
2, 253289, Note_on_c, 0, 31, 0
2, 253291, Note_on_c, 0, 67, 0
2, 253294, Note_on_c, 0, 43, 0
2, 253322, Note_on_c, 0, 67, 92
2, 253335, Note_on_c, 0, 67, 0
2, 253369, Note_on_c, 0, 67, 97
2, 253406, Note_on_c, 0, 71, 113
2, 253407, Note_on_c, 0, 59, 111
2, 253410, Note_on_c, 0, 47, 108
2, 253411, Note_on_c, 0, 67, 0
2, 253411, Note_on_c, 0, 35, 99
2, 253413, Control_c, 0, 64, 127
2, 253420, Note_on_c, 0, 47, 0
2, 253427, Note_on_c, 0, 35, 0
2, 253427, Note_on_c, 0, 59, 0
2, 253436, Note_on_c, 0, 71, 0
2, 253565, Control_c, 0, 64, 0
2, 253580, Note_on_c, 0, 42, 107
2, 253581, Note_on_c, 0, 30, 105
2, 253586, Note_on_c, 0, 66, 102
2, 253602, Note_on_c, 0, 30, 0
2, 253605, Note_on_c, 0, 42, 0
2, 253619, Note_on_c, 0, 66, 0
2, 253727, Control_c, 0, 64, 127
2, 253734, Note_on_c, 0, 47, 89
2, 253734, Note_on_c, 0, 35, 94
2, 253735, Note_on_c, 0, 59, 105
2, 253735, Note_on_c, 0, 71, 105
2, 253749, Note_on_c, 0, 59, 0
2, 253749, Note_on_c, 0, 47, 0
2, 253754, Note_on_c, 0, 35, 0
2, 253761, Note_on_c, 0, 71, 0
2, 253821, Control_c, 0, 64, 0
2, 253899, Note_on_c, 0, 65, 99
2, 253901, Note_on_c, 0, 29, 86
2, 253901, Note_on_c, 0, 41, 102
2, 253915, Note_on_c, 0, 29, 0
2, 253916, Note_on_c, 0, 41, 0
2, 253933, Note_on_c, 0, 65, 0
2, 254082, Note_on_c, 0, 71, 116
2, 254084, Control_c, 0, 64, 127
2, 254085, Note_on_c, 0, 59, 111
2, 254087, Note_on_c, 0, 47, 124
2, 254089, Note_on_c, 0, 35, 92
2, 254097, Note_on_c, 0, 47, 0
2, 254100, Note_on_c, 0, 35, 0
2, 254105, Note_on_c, 0, 59, 0
2, 254116, Note_on_c, 0, 71, 0
2, 254335, Control_c, 0, 64, 0
2, 254348, Note_on_c, 0, 80, 100
2, 254351, Note_on_c, 0, 74, 106
2, 254351, Note_on_c, 0, 77, 101
2, 254352, Note_on_c, 0, 83, 99
2, 254355, Note_on_c, 0, 53, 120
2, 254355, Note_on_c, 0, 41, 113
2, 254405, Control_c, 0, 64, 127
2, 254494, Note_on_c, 0, 53, 0
2, 254496, Note_on_c, 0, 74, 0
2, 254501, Note_on_c, 0, 77, 0
2, 254507, Note_on_c, 0, 41, 0
2, 254511, Note_on_c, 0, 83, 0
2, 254518, Note_on_c, 0, 80, 0
2, 254720, Control_c, 0, 64, 0
2, 254732, Note_on_c, 0, 75, 112
2, 254733, Note_on_c, 0, 79, 106
2, 254733, Note_on_c, 0, 84, 101
2, 254737, Note_on_c, 0, 51, 127
2, 254737, Note_on_c, 0, 39, 123
2, 254789, Control_c, 0, 64, 127
2, 254841, Note_on_c, 0, 51, 0
2, 254851, Note_on_c, 0, 84, 0
2, 254852, Note_on_c, 0, 75, 0
2, 254852, Note_on_c, 0, 79, 0
2, 254853, Note_on_c, 0, 39, 0
2, 255030, Control_c, 0, 64, 0
2, 255060, Note_on_c, 0, 86, 113
2, 255062, Note_on_c, 0, 74, 119
2, 255063, Note_on_c, 0, 38, 113
2, 255063, Note_on_c, 0, 83, 113
2, 255063, Note_on_c, 0, 50, 124
2, 255064, Note_on_c, 0, 79, 101
2, 255067, Control_c, 0, 64, 127
2, 255075, Note_on_c, 0, 50, 0
2, 255076, Note_on_c, 0, 38, 0
2, 255078, Note_on_c, 0, 79, 0
2, 255091, Note_on_c, 0, 74, 0
2, 255096, Note_on_c, 0, 86, 0
2, 255100, Note_on_c, 0, 83, 0
2, 255342, Control_c, 0, 64, 0
2, 255391, Note_on_c, 0, 87, 95
2, 255395, Note_on_c, 0, 48, 119
2, 255395, Note_on_c, 0, 84, 98
2, 255396, Note_on_c, 0, 36, 116
2, 255396, Note_on_c, 0, 79, 110
2, 255396, Note_on_c, 0, 75, 117
2, 255405, Note_on_c, 0, 36, 0
2, 255405, Control_c, 0, 64, 127
2, 255406, Note_on_c, 0, 48, 0
2, 255429, Note_on_c, 0, 75, 0
2, 255430, Note_on_c, 0, 79, 0
2, 255432, Note_on_c, 0, 87, 0
2, 255441, Note_on_c, 0, 84, 0
2, 255726, Control_c, 0, 64, 0
2, 255755, Note_on_c, 0, 88, 99
2, 255755, Note_on_c, 0, 85, 112
2, 255757, Note_on_c, 0, 79, 114
2, 255758, Note_on_c, 0, 76, 111
2, 255763, Note_on_c, 0, 46, 127
2, 255763, Note_on_c, 0, 34, 124
2, 255773, Note_on_c, 0, 76, 0
2, 255775, Note_on_c, 0, 46, 0
2, 255777, Control_c, 0, 64, 127
2, 255780, Note_on_c, 0, 79, 0
2, 255785, Note_on_c, 0, 34, 0
2, 255794, Note_on_c, 0, 88, 0
2, 255807, Note_on_c, 0, 85, 0
2, 256107, Control_c, 0, 64, 0
2, 256124, Note_on_c, 0, 90, 111
2, 256125, Note_on_c, 0, 85, 116
2, 256125, Note_on_c, 0, 78, 118
2, 256129, Note_on_c, 0, 45, 116
2, 256131, Note_on_c, 0, 33, 98
2, 256137, Note_on_c, 0, 85, 0
2, 256138, Note_on_c, 0, 45, 0
2, 256142, Note_on_c, 0, 33, 0
2, 256150, Note_on_c, 0, 78, 0
2, 256161, Note_on_c, 0, 90, 0
2, 256351, Note_on_c, 0, 92, 121
2, 256353, Note_on_c, 0, 80, 120
2, 256354, Note_on_c, 0, 32, 126
2, 256354, Note_on_c, 0, 44, 127
2, 256357, Control_c, 0, 64, 127
2, 256362, Note_on_c, 0, 87, 104
2, 256371, Note_on_c, 0, 32, 0
2, 256373, Note_on_c, 0, 44, 0
2, 256484, Note_on_c, 0, 87, 0
2, 256617, Note_on_c, 0, 92, 0
2, 256631, Note_on_c, 0, 68, 82
2, 256634, Note_on_c, 0, 60, 74
2, 256634, Note_on_c, 0, 63, 79
2, 256640, Note_on_c, 0, 56, 44
2, 256646, Note_on_c, 0, 68, 0
2, 256648, Note_on_c, 0, 63, 0
2, 256651, Note_on_c, 0, 60, 0
2, 256657, Note_on_c, 0, 56, 0
2, 256676, Note_on_c, 0, 80, 0
2, 256680, Note_on_c, 0, 68, 104
2, 256682, Note_on_c, 0, 56, 104
2, 256683, Note_on_c, 0, 63, 94
2, 256684, Note_on_c, 0, 60, 94
2, 256699, Note_on_c, 0, 60, 0
2, 256704, Note_on_c, 0, 68, 0
2, 256709, Note_on_c, 0, 63, 0
2, 256716, Note_on_c, 0, 56, 0
2, 256735, Note_on_c, 0, 56, 71
2, 256736, Note_on_c, 0, 68, 88
2, 256736, Note_on_c, 0, 63, 115
2, 256737, Note_on_c, 0, 60, 95
2, 256754, Note_on_c, 0, 60, 0
2, 256754, Note_on_c, 0, 68, 0
2, 256755, Note_on_c, 0, 56, 0
2, 256766, Note_on_c, 0, 63, 0
2, 256906, Note_on_c, 0, 68, 102
2, 256908, Note_on_c, 0, 60, 87
2, 256909, Note_on_c, 0, 63, 82
2, 256915, Note_on_c, 0, 56, 55
2, 256919, Note_on_c, 0, 68, 0
2, 256921, Note_on_c, 0, 60, 0
2, 256923, Note_on_c, 0, 63, 0
2, 256935, Note_on_c, 0, 56, 0
2, 257073, Note_on_c, 0, 68, 124
2, 257076, Note_on_c, 0, 56, 90
2, 257077, Note_on_c, 0, 63, 103
2, 257078, Note_on_c, 0, 60, 93
2, 257082, Note_on_c, 0, 68, 0
2, 257087, Note_on_c, 0, 63, 0
2, 257090, Note_on_c, 0, 60, 0
2, 257097, Note_on_c, 0, 56, 0
2, 257320, Note_on_c, 0, 85, 116
2, 257321, Note_on_c, 0, 73, 110
2, 257337, Control_c, 0, 64, 0
2, 257342, Note_on_c, 0, 73, 0
2, 257347, Note_on_c, 0, 85, 0
2, 257420, Note_on_c, 0, 87, 113
2, 257422, Note_on_c, 0, 75, 111
2, 257451, Note_on_c, 0, 75, 0
2, 257457, Note_on_c, 0, 87, 0
2, 257509, Note_on_c, 0, 44, 127
2, 257509, Note_on_c, 0, 32, 127
2, 257509, Note_on_c, 0, 88, 114
2, 257510, Note_on_c, 0, 76, 111
2, 257513, Control_c, 0, 64, 127
2, 257524, Note_on_c, 0, 44, 0
2, 257531, Note_on_c, 0, 32, 0
2, 257769, Note_on_c, 0, 61, 94
2, 257775, Note_on_c, 0, 64, 86
2, 257777, Note_on_c, 0, 68, 58
2, 257782, Note_on_c, 0, 61, 0
2, 257787, Note_on_c, 0, 64, 0
2, 257793, Note_on_c, 0, 68, 0
2, 257817, Note_on_c, 0, 68, 111
2, 257822, Note_on_c, 0, 64, 87
2, 257823, Note_on_c, 0, 61, 85
2, 257828, Note_on_c, 0, 56, 86
2, 257834, Note_on_c, 0, 64, 0
2, 257841, Note_on_c, 0, 61, 0
2, 257841, Note_on_c, 0, 56, 0
2, 257844, Note_on_c, 0, 68, 0
2, 257866, Note_on_c, 0, 56, 102
2, 257866, Note_on_c, 0, 68, 116
2, 257869, Note_on_c, 0, 64, 91
2, 257869, Note_on_c, 0, 61, 104
2, 257882, Note_on_c, 0, 64, 0
2, 257890, Note_on_c, 0, 68, 0
2, 257890, Note_on_c, 0, 61, 0
2, 257894, Note_on_c, 0, 56, 0
2, 258033, Note_on_c, 0, 61, 98
2, 258033, Note_on_c, 0, 68, 105
2, 258036, Note_on_c, 0, 64, 95
2, 258040, Note_on_c, 0, 88, 0
2, 258042, Note_on_c, 0, 56, 73
2, 258047, Note_on_c, 0, 64, 0
2, 258047, Note_on_c, 0, 61, 0
2, 258048, Note_on_c, 0, 68, 0
2, 258059, Note_on_c, 0, 56, 0
2, 258077, Note_on_c, 0, 76, 0
2, 258192, Note_on_c, 0, 68, 118
2, 258194, Note_on_c, 0, 61, 104
2, 258198, Note_on_c, 0, 56, 91
2, 258199, Note_on_c, 0, 64, 85
2, 258201, Note_on_c, 0, 68, 0
2, 258211, Note_on_c, 0, 64, 0
2, 258214, Note_on_c, 0, 56, 0
2, 258222, Note_on_c, 0, 61, 0
2, 258394, Note_on_c, 0, 75, 111
2, 258394, Note_on_c, 0, 87, 110
2, 258421, Note_on_c, 0, 75, 0
2, 258423, Note_on_c, 0, 87, 0
2, 258429, Control_c, 0, 64, 0
2, 258513, Note_on_c, 0, 85, 116
2, 258514, Note_on_c, 0, 73, 116
2, 258538, Note_on_c, 0, 73, 0
2, 258540, Note_on_c, 0, 85, 0
2, 258627, Note_on_c, 0, 44, 124
2, 258627, Note_on_c, 0, 68, 121
2, 258627, Note_on_c, 0, 32, 124
2, 258628, Note_on_c, 0, 80, 110
2, 258633, Control_c, 0, 64, 127
2, 258639, Note_on_c, 0, 44, 0
2, 258641, Note_on_c, 0, 32, 0
2, 258873, Note_on_c, 0, 56, 93
2, 258880, Note_on_c, 0, 51, 71
2, 258881, Note_on_c, 0, 60, 53
2, 258886, Note_on_c, 0, 56, 0
2, 258895, Note_on_c, 0, 51, 0
2, 258898, Note_on_c, 0, 60, 0
2, 258925, Note_on_c, 0, 56, 33
2, 258927, Note_on_c, 0, 51, 85
2, 258928, Note_on_c, 0, 60, 92
2, 258944, Note_on_c, 0, 51, 0
2, 258947, Note_on_c, 0, 60, 0
2, 258948, Note_on_c, 0, 56, 0
2, 258976, Note_on_c, 0, 51, 107
2, 258979, Note_on_c, 0, 56, 102
2, 258981, Note_on_c, 0, 60, 90
2, 258994, Note_on_c, 0, 60, 0
2, 258994, Note_on_c, 0, 56, 0
2, 259005, Note_on_c, 0, 51, 0
2, 259132, Note_on_c, 0, 80, 0
2, 259146, Note_on_c, 0, 56, 97
2, 259149, Note_on_c, 0, 60, 92
2, 259151, Note_on_c, 0, 51, 101
2, 259157, Note_on_c, 0, 56, 0
2, 259157, Note_on_c, 0, 68, 0
2, 259162, Note_on_c, 0, 60, 0
2, 259162, Note_on_c, 0, 51, 0
2, 259310, Note_on_c, 0, 56, 115
2, 259312, Note_on_c, 0, 60, 108
2, 259312, Note_on_c, 0, 51, 123
2, 259319, Note_on_c, 0, 56, 0
2, 259321, Note_on_c, 0, 60, 0
2, 259323, Note_on_c, 0, 51, 0
2, 259516, Control_c, 0, 64, 0
2, 259529, Note_on_c, 0, 61, 110
2, 259530, Note_on_c, 0, 73, 105
2, 259557, Note_on_c, 0, 61, 0
2, 259563, Note_on_c, 0, 73, 0
2, 259625, Note_on_c, 0, 63, 115
2, 259626, Note_on_c, 0, 75, 99
2, 259652, Note_on_c, 0, 63, 0
2, 259654, Note_on_c, 0, 75, 0
2, 259702, Note_on_c, 0, 76, 114
2, 259703, Note_on_c, 0, 64, 111
2, 259705, Note_on_c, 0, 32, 115
2, 259706, Note_on_c, 0, 44, 120
2, 259715, Control_c, 0, 64, 127
2, 259717, Note_on_c, 0, 32, 0
2, 259718, Note_on_c, 0, 44, 0
2, 259881, Note_on_c, 0, 64, 0
2, 259896, Note_on_c, 0, 61, 108
2, 259899, Note_on_c, 0, 76, 0
2, 259899, Note_on_c, 0, 56, 97
2, 259903, Note_on_c, 0, 52, 95
2, 259905, Note_on_c, 0, 61, 0
2, 259915, Note_on_c, 0, 52, 0
2, 259915, Note_on_c, 0, 56, 0
2, 260070, Control_c, 0, 64, 0
2, 260104, Note_on_c, 0, 33, 81
2, 260107, Note_on_c, 0, 45, 127
2, 260117, Note_on_c, 0, 33, 0
2, 260126, Control_c, 0, 64, 127
2, 260136, Note_on_c, 0, 45, 0
2, 260257, Note_on_c, 0, 80, 107
2, 260260, Note_on_c, 0, 68, 110
2, 260292, Note_on_c, 0, 68, 0
2, 260298, Note_on_c, 0, 80, 0
2, 260318, Note_on_c, 0, 52, 90
2, 260328, Note_on_c, 0, 56, 97
2, 260348, Note_on_c, 0, 56, 0
2, 260352, Note_on_c, 0, 52, 0
2, 260372, Note_on_c, 0, 66, 107
2, 260372, Note_on_c, 0, 78, 103
2, 260395, Note_on_c, 0, 66, 0
2, 260405, Note_on_c, 0, 78, 0
2, 260457, Note_on_c, 0, 76, 105
2, 260460, Note_on_c, 0, 64, 90
2, 260463, Control_c, 0, 64, 0
2, 260477, Note_on_c, 0, 64, 0
2, 260487, Note_on_c, 0, 76, 0
2, 260516, Control_c, 0, 64, 127
2, 260531, Note_on_c, 0, 34, 90
2, 260535, Note_on_c, 0, 46, 112
2, 260539, Note_on_c, 0, 63, 117
2, 260540, Note_on_c, 0, 75, 98
2, 260544, Note_on_c, 0, 46, 0
2, 260545, Note_on_c, 0, 34, 0
2, 260565, Note_on_c, 0, 63, 0
2, 260568, Note_on_c, 0, 75, 0
2, 260617, Note_on_c, 0, 74, 103
2, 260620, Note_on_c, 0, 62, 88
2, 260623, Control_c, 0, 64, 0
2, 260636, Note_on_c, 0, 62, 0
2, 260646, Note_on_c, 0, 74, 0
2, 260653, Control_c, 0, 64, 127
2, 260678, Note_on_c, 0, 56, 96
2, 260678, Note_on_c, 0, 52, 99
2, 260681, Note_on_c, 0, 61, 105
2, 260682, Note_on_c, 0, 73, 102
2, 260690, Note_on_c, 0, 52, 0
2, 260690, Note_on_c, 0, 56, 0
2, 260702, Note_on_c, 0, 73, 0
2, 260706, Note_on_c, 0, 61, 0
2, 260750, Note_on_c, 0, 60, 101
2, 260753, Note_on_c, 0, 72, 87
2, 260769, Note_on_c, 0, 72, 0
2, 260771, Note_on_c, 0, 60, 0
2, 260781, Control_c, 0, 64, 0
2, 260818, Note_on_c, 0, 71, 108
2, 260820, Note_on_c, 0, 59, 113
2, 260821, Note_on_c, 0, 47, 127
2, 260826, Note_on_c, 0, 35, 101
2, 260836, Note_on_c, 0, 35, 0
2, 260846, Control_c, 0, 64, 127
2, 260848, Note_on_c, 0, 47, 0
2, 260962, Note_on_c, 0, 59, 0
2, 260968, Control_c, 0, 64, 0
2, 260980, Note_on_c, 0, 71, 0
2, 260982, Control_c, 0, 64, 127
2, 260993, Note_on_c, 0, 56, 102
2, 260994, Note_on_c, 0, 52, 98
2, 260994, Note_on_c, 0, 68, 103
2, 260997, Note_on_c, 0, 64, 102
2, 261003, Note_on_c, 0, 56, 0
2, 261007, Note_on_c, 0, 52, 0
2, 261112, Control_c, 0, 64, 0
2, 261146, Note_on_c, 0, 64, 0
2, 261149, Note_on_c, 0, 68, 0
2, 261158, Control_c, 0, 64, 127
2, 261168, Note_on_c, 0, 71, 113
2, 261170, Note_on_c, 0, 47, 117
2, 261170, Note_on_c, 0, 59, 116
2, 261175, Note_on_c, 0, 35, 71
2, 261184, Note_on_c, 0, 47, 0
2, 261192, Note_on_c, 0, 35, 0
2, 261251, Note_on_c, 0, 59, 0
2, 261297, Note_on_c, 0, 71, 0
2, 261332, Note_on_c, 0, 57, 110
2, 261332, Note_on_c, 0, 69, 105
2, 261333, Note_on_c, 0, 66, 108
2, 261333, Note_on_c, 0, 54, 105
2, 261342, Note_on_c, 0, 57, 0
2, 261357, Note_on_c, 0, 54, 0
2, 261378, Note_on_c, 0, 69, 0
2, 261464, Control_c, 0, 64, 0
2, 261479, Note_on_c, 0, 66, 0
2, 261506, Note_on_c, 0, 47, 119
2, 261506, Note_on_c, 0, 35, 90
2, 261510, Note_on_c, 0, 71, 103
2, 261511, Control_c, 0, 64, 127
2, 261513, Note_on_c, 0, 59, 110
2, 261517, Note_on_c, 0, 35, 0
2, 261536, Note_on_c, 0, 47, 0
2, 261592, Note_on_c, 0, 59, 0
2, 261676, Note_on_c, 0, 71, 0
2, 261697, Note_on_c, 0, 54, 94
2, 261698, Note_on_c, 0, 51, 100
2, 261698, Note_on_c, 0, 66, 110
2, 261699, Note_on_c, 0, 63, 104
2, 261711, Note_on_c, 0, 51, 0
2, 261711, Note_on_c, 0, 54, 0
2, 261733, Note_on_c, 0, 63, 0
2, 261741, Note_on_c, 0, 66, 0
2, 261842, Control_c, 0, 64, 0
2, 261921, Note_on_c, 0, 64, 116
2, 261926, Note_on_c, 0, 40, 108
2, 261926, Note_on_c, 0, 52, 126
2, 261936, Control_c, 0, 64, 127
2, 261970, Note_on_c, 0, 64, 0
2, 262006, Note_on_c, 0, 40, 0
2, 262036, Note_on_c, 0, 52, 0
2, 262246, Note_on_c, 0, 68, 95
2, 262249, Note_on_c, 0, 80, 96
2, 262251, Note_on_c, 0, 56, 66
2, 262251, Note_on_c, 0, 59, 81
2, 262253, Note_on_c, 0, 71, 87
2, 262253, Note_on_c, 0, 76, 92
2, 262265, Note_on_c, 0, 76, 0
2, 262266, Note_on_c, 0, 68, 0
2, 262266, Note_on_c, 0, 59, 0
2, 262268, Note_on_c, 0, 80, 0
2, 262268, Note_on_c, 0, 56, 0
2, 262269, Note_on_c, 0, 71, 0
2, 262304, Note_on_c, 0, 56, 63
2, 262306, Note_on_c, 0, 80, 99
2, 262308, Note_on_c, 0, 59, 77
2, 262308, Note_on_c, 0, 68, 79
2, 262308, Note_on_c, 0, 71, 93
2, 262309, Note_on_c, 0, 76, 91
2, 262323, Note_on_c, 0, 76, 0
2, 262324, Note_on_c, 0, 71, 0
2, 262325, Note_on_c, 0, 59, 0
2, 262327, Note_on_c, 0, 68, 0
2, 262332, Note_on_c, 0, 80, 0
2, 262336, Note_on_c, 0, 56, 0
2, 262355, Note_on_c, 0, 80, 113
2, 262355, Note_on_c, 0, 71, 102
2, 262355, Note_on_c, 0, 68, 100
2, 262356, Note_on_c, 0, 76, 94
2, 262359, Note_on_c, 0, 56, 99
2, 262360, Note_on_c, 0, 59, 87
2, 262376, Note_on_c, 0, 59, 0
2, 262376, Note_on_c, 0, 71, 0
2, 262379, Note_on_c, 0, 76, 0
2, 262380, Note_on_c, 0, 68, 0
2, 262391, Note_on_c, 0, 56, 0
2, 262396, Note_on_c, 0, 80, 0
2, 262544, Note_on_c, 0, 80, 107
2, 262546, Note_on_c, 0, 68, 79
2, 262548, Note_on_c, 0, 76, 99
2, 262549, Note_on_c, 0, 71, 97
2, 262550, Note_on_c, 0, 59, 80
2, 262550, Note_on_c, 0, 56, 63
2, 262561, Note_on_c, 0, 76, 0
2, 262563, Note_on_c, 0, 71, 0
2, 262564, Note_on_c, 0, 68, 0
2, 262566, Note_on_c, 0, 59, 0
2, 262578, Note_on_c, 0, 56, 0
2, 262582, Note_on_c, 0, 80, 0
2, 262723, Note_on_c, 0, 68, 104
2, 262725, Note_on_c, 0, 56, 91
2, 262727, Note_on_c, 0, 80, 112
2, 262729, Note_on_c, 0, 59, 94
2, 262729, Note_on_c, 0, 71, 114
2, 262730, Note_on_c, 0, 76, 107
2, 262732, Note_on_c, 0, 68, 0
2, 262741, Note_on_c, 0, 59, 0
2, 262742, Note_on_c, 0, 76, 0
2, 262745, Note_on_c, 0, 56, 0
2, 262753, Note_on_c, 0, 71, 0
2, 262754, Note_on_c, 0, 80, 0
2, 262997, Note_on_c, 0, 57, 122
2, 262999, Note_on_c, 0, 45, 114
2, 263000, Note_on_c, 0, 33, 94
2, 263009, Note_on_c, 0, 45, 0
2, 263012, Note_on_c, 0, 33, 0
2, 263020, Control_c, 0, 64, 0
2, 263025, Note_on_c, 0, 57, 0
2, 263100, Note_on_c, 0, 47, 105
2, 263100, Note_on_c, 0, 59, 120
2, 263102, Note_on_c, 0, 35, 81
2, 263111, Note_on_c, 0, 47, 0
2, 263116, Note_on_c, 0, 35, 0
2, 263128, Note_on_c, 0, 59, 0
2, 263190, Note_on_c, 0, 48, 126
2, 263191, Note_on_c, 0, 36, 108
2, 263191, Note_on_c, 0, 60, 122
2, 263200, Control_c, 0, 64, 127
2, 263203, Note_on_c, 0, 36, 0
2, 263214, Note_on_c, 0, 48, 0
2, 263230, Note_on_c, 0, 60, 0
2, 263508, Note_on_c, 0, 64, 93
2, 263511, Note_on_c, 0, 57, 86
2, 263511, Note_on_c, 0, 81, 94
2, 263513, Note_on_c, 0, 76, 80
2, 263513, Note_on_c, 0, 72, 81
2, 263517, Note_on_c, 0, 69, 42
2, 263520, Note_on_c, 0, 64, 0
2, 263524, Note_on_c, 0, 81, 0
2, 263526, Note_on_c, 0, 57, 0
2, 263529, Note_on_c, 0, 76, 0
2, 263529, Note_on_c, 0, 72, 0
2, 263533, Note_on_c, 0, 69, 0
2, 263563, Note_on_c, 0, 81, 100
2, 263564, Note_on_c, 0, 72, 103
2, 263565, Note_on_c, 0, 76, 93
2, 263569, Note_on_c, 0, 69, 82
2, 263571, Note_on_c, 0, 57, 79
2, 263572, Note_on_c, 0, 64, 75
2, 263578, Note_on_c, 0, 76, 0
2, 263581, Note_on_c, 0, 72, 0
2, 263584, Note_on_c, 0, 69, 0
2, 263585, Note_on_c, 0, 64, 0
2, 263586, Note_on_c, 0, 81, 0
2, 263589, Note_on_c, 0, 57, 0
2, 263614, Note_on_c, 0, 64, 94
2, 263614, Note_on_c, 0, 69, 100
2, 263615, Note_on_c, 0, 81, 113
2, 263615, Note_on_c, 0, 72, 102
2, 263616, Note_on_c, 0, 57, 42
2, 263616, Note_on_c, 0, 76, 98
2, 263623, Note_on_c, 0, 69, 0
2, 263643, Note_on_c, 0, 72, 0
2, 263644, Note_on_c, 0, 76, 0
2, 263646, Note_on_c, 0, 64, 0
2, 263653, Note_on_c, 0, 57, 0
2, 263655, Note_on_c, 0, 81, 0
2, 263785, Note_on_c, 0, 69, 100
2, 263787, Note_on_c, 0, 64, 93
2, 263789, Note_on_c, 0, 76, 105
2, 263790, Note_on_c, 0, 81, 102
2, 263791, Note_on_c, 0, 57, 86
2, 263791, Note_on_c, 0, 72, 95
2, 263799, Note_on_c, 0, 64, 0
2, 263806, Note_on_c, 0, 72, 0
2, 263808, Note_on_c, 0, 69, 0
2, 263810, Note_on_c, 0, 57, 0
2, 263812, Note_on_c, 0, 76, 0
2, 263821, Note_on_c, 0, 81, 0
2, 263949, Note_on_c, 0, 57, 105
2, 263951, Note_on_c, 0, 64, 97
2, 263951, Note_on_c, 0, 69, 89
2, 263951, Note_on_c, 0, 81, 105
2, 263952, Note_on_c, 0, 76, 111
2, 263953, Note_on_c, 0, 72, 101
2, 263963, Note_on_c, 0, 81, 0
2, 263963, Note_on_c, 0, 69, 0
2, 263963, Note_on_c, 0, 64, 0
2, 263965, Note_on_c, 0, 76, 0
2, 263968, Note_on_c, 0, 72, 0
2, 263984, Note_on_c, 0, 57, 0
2, 264181, Note_on_c, 0, 57, 119
2, 264183, Note_on_c, 0, 45, 93
2, 264185, Note_on_c, 0, 33, 80
2, 264196, Note_on_c, 0, 45, 0
2, 264199, Note_on_c, 0, 33, 0
2, 264212, Control_c, 0, 64, 0
2, 264214, Note_on_c, 0, 57, 0
2, 264261, Note_on_c, 0, 55, 113
2, 264263, Note_on_c, 0, 43, 98
2, 264263, Note_on_c, 0, 31, 100
2, 264274, Note_on_c, 0, 43, 0
2, 264275, Note_on_c, 0, 31, 0
2, 264298, Note_on_c, 0, 55, 0
2, 264339, Note_on_c, 0, 53, 120
2, 264340, Note_on_c, 0, 41, 120
2, 264341, Note_on_c, 0, 29, 114
2, 264344, Control_c, 0, 64, 127
2, 264351, Note_on_c, 0, 29, 0
2, 264361, Note_on_c, 0, 41, 0
2, 264367, Note_on_c, 0, 53, 0
2, 264529, Note_on_c, 0, 69, 95
2, 264529, Note_on_c, 0, 53, 105
2, 264530, Note_on_c, 0, 60, 106
2, 264531, Note_on_c, 0, 48, 95
2, 264532, Note_on_c, 0, 65, 103
2, 264532, Note_on_c, 0, 57, 88
2, 264540, Note_on_c, 0, 53, 0
2, 264544, Note_on_c, 0, 69, 0
2, 264546, Note_on_c, 0, 65, 0
2, 264546, Note_on_c, 0, 57, 0
2, 264552, Note_on_c, 0, 48, 0
2, 264559, Note_on_c, 0, 60, 0
2, 264688, Control_c, 0, 64, 0
2, 264731, Note_on_c, 0, 53, 120
2, 264733, Note_on_c, 0, 41, 126
2, 264735, Note_on_c, 0, 29, 89
2, 264744, Control_c, 0, 64, 127
2, 264748, Note_on_c, 0, 29, 0
2, 264757, Note_on_c, 0, 53, 0
2, 264761, Note_on_c, 0, 41, 0
2, 264928, Note_on_c, 0, 70, 96
2, 264929, Note_on_c, 0, 65, 100
2, 264929, Note_on_c, 0, 58, 103
2, 264930, Note_on_c, 0, 53, 95
2, 264930, Note_on_c, 0, 61, 98
2, 264932, Note_on_c, 0, 49, 95
2, 264939, Note_on_c, 0, 58, 0
2, 264943, Note_on_c, 0, 53, 0
2, 264944, Note_on_c, 0, 65, 0
2, 264958, Note_on_c, 0, 70, 0
2, 264960, Note_on_c, 0, 61, 0
2, 264962, Note_on_c, 0, 49, 0
2, 265101, Control_c, 0, 64, 0
2, 265141, Note_on_c, 0, 29, 103
2, 265144, Note_on_c, 0, 53, 122
2, 265145, Note_on_c, 0, 41, 127
2, 265156, Control_c, 0, 64, 127
2, 265159, Note_on_c, 0, 29, 0
2, 265171, Note_on_c, 0, 41, 0
2, 265181, Note_on_c, 0, 53, 0
2, 265348, Note_on_c, 0, 47, 98
2, 265349, Note_on_c, 0, 71, 106
2, 265350, Note_on_c, 0, 59, 74
2, 265350, Note_on_c, 0, 51, 109
2, 265351, Note_on_c, 0, 63, 116
2, 265355, Note_on_c, 0, 57, 90
2, 265356, Note_on_c, 0, 69, 100
2, 265367, Note_on_c, 0, 57, 0
2, 265367, Note_on_c, 0, 59, 0
2, 265379, Note_on_c, 0, 51, 0
2, 265381, Note_on_c, 0, 47, 0
2, 265385, Note_on_c, 0, 71, 0
2, 265389, Note_on_c, 0, 63, 0
2, 265391, Note_on_c, 0, 69, 0
2, 265524, Control_c, 0, 64, 0
2, 265597, Note_on_c, 0, 64, 116
2, 265602, Note_on_c, 0, 52, 122
2, 265603, Note_on_c, 0, 40, 108
2, 265611, Control_c, 0, 64, 127
2, 265627, Note_on_c, 0, 52, 0
2, 265631, Note_on_c, 0, 40, 0
2, 265636, Note_on_c, 0, 64, 0
2, 265907, Note_on_c, 0, 68, 79
2, 265909, Note_on_c, 0, 59, 86
2, 265910, Note_on_c, 0, 56, 75
2, 265913, Note_on_c, 0, 76, 94
2, 265913, Note_on_c, 0, 83, 90
2, 265913, Note_on_c, 0, 64, 80
2, 265913, Note_on_c, 0, 80, 94
2, 265920, Note_on_c, 0, 88, 99
2, 265921, Note_on_c, 0, 68, 0
2, 265925, Note_on_c, 0, 59, 0
2, 265926, Note_on_c, 0, 83, 0
2, 265927, Note_on_c, 0, 64, 0
2, 265928, Note_on_c, 0, 80, 0
2, 265928, Note_on_c, 0, 76, 0
2, 265929, Note_on_c, 0, 56, 0
2, 265944, Note_on_c, 0, 88, 0
2, 265958, Note_on_c, 0, 68, 87
2, 265963, Note_on_c, 0, 59, 84
2, 265963, Note_on_c, 0, 56, 72
2, 265965, Note_on_c, 0, 76, 91
2, 265965, Note_on_c, 0, 64, 81
2, 265966, Note_on_c, 0, 88, 91
2, 265968, Note_on_c, 0, 80, 95
2, 265970, Note_on_c, 0, 83, 95
2, 265977, Note_on_c, 0, 64, 0
2, 265978, Note_on_c, 0, 59, 0
2, 265980, Note_on_c, 0, 56, 0
2, 265981, Note_on_c, 0, 68, 0
2, 265984, Note_on_c, 0, 83, 0
2, 265984, Note_on_c, 0, 88, 0
2, 265992, Note_on_c, 0, 80, 0
2, 265994, Note_on_c, 0, 76, 0
2, 266006, Note_on_c, 0, 68, 104
2, 266012, Note_on_c, 0, 56, 88
2, 266012, Note_on_c, 0, 64, 85
2, 266013, Note_on_c, 0, 59, 80
2, 266017, Note_on_c, 0, 88, 103
2, 266019, Note_on_c, 0, 80, 98
2, 266019, Note_on_c, 0, 76, 92
2, 266021, Note_on_c, 0, 83, 84
2, 266025, Note_on_c, 0, 64, 0
2, 266028, Note_on_c, 0, 59, 0
2, 266029, Note_on_c, 0, 56, 0
2, 266032, Note_on_c, 0, 68, 0
2, 266053, Note_on_c, 0, 76, 0
2, 266055, Note_on_c, 0, 80, 0
2, 266057, Note_on_c, 0, 83, 0
2, 266069, Note_on_c, 0, 88, 0
2, 266195, Note_on_c, 0, 68, 90
2, 266196, Note_on_c, 0, 59, 87
2, 266199, Note_on_c, 0, 80, 108
2, 266200, Note_on_c, 0, 76, 106
2, 266200, Note_on_c, 0, 83, 106
2, 266201, Note_on_c, 0, 88, 102
2, 266204, Note_on_c, 0, 64, 51
2, 266204, Note_on_c, 0, 56, 53
2, 266210, Note_on_c, 0, 68, 0
2, 266212, Note_on_c, 0, 83, 0
2, 266212, Note_on_c, 0, 59, 0
2, 266216, Note_on_c, 0, 76, 0
2, 266221, Note_on_c, 0, 56, 0
2, 266221, Note_on_c, 0, 64, 0
2, 266230, Note_on_c, 0, 80, 0
2, 266234, Note_on_c, 0, 88, 0
2, 266369, Note_on_c, 0, 68, 95
2, 266373, Note_on_c, 0, 56, 95
2, 266373, Note_on_c, 0, 59, 95
2, 266373, Note_on_c, 0, 64, 95
2, 266376, Note_on_c, 0, 80, 120
2, 266377, Note_on_c, 0, 88, 103
2, 266377, Note_on_c, 0, 83, 113
2, 266377, Note_on_c, 0, 76, 119
2, 266378, Note_on_c, 0, 68, 0
2, 266382, Note_on_c, 0, 64, 0
2, 266386, Note_on_c, 0, 59, 0
2, 266388, Note_on_c, 0, 83, 0
2, 266389, Note_on_c, 0, 88, 0
2, 266391, Note_on_c, 0, 76, 0
2, 266392, Note_on_c, 0, 56, 0
2, 266400, Note_on_c, 0, 80, 0
2, 266632, Note_on_c, 0, 45, 113
2, 266632, Note_on_c, 0, 57, 120
2, 266638, Note_on_c, 0, 33, 84
2, 266642, Note_on_c, 0, 45, 0
2, 266651, Note_on_c, 0, 33, 0
2, 266660, Note_on_c, 0, 57, 0
2, 266693, Control_c, 0, 64, 0
2, 266729, Note_on_c, 0, 59, 119
2, 266731, Note_on_c, 0, 47, 116
2, 266733, Note_on_c, 0, 35, 92
2, 266742, Note_on_c, 0, 47, 0
2, 266744, Note_on_c, 0, 35, 0
2, 266755, Note_on_c, 0, 59, 0
2, 266828, Note_on_c, 0, 48, 122
2, 266828, Note_on_c, 0, 36, 106
2, 266828, Note_on_c, 0, 60, 122
2, 266837, Control_c, 0, 64, 127
2, 266839, Note_on_c, 0, 36, 0
2, 266839, Note_on_c, 0, 48, 0
2, 266862, Note_on_c, 0, 60, 0
2, 267144, Note_on_c, 0, 69, 97
2, 267144, Note_on_c, 0, 81, 97
2, 267154, Note_on_c, 0, 60, 93
2, 267154, Note_on_c, 0, 64, 93
2, 267155, Note_on_c, 0, 76, 93
2, 267156, Note_on_c, 0, 84, 93
2, 267157, Note_on_c, 0, 88, 93
2, 267166, Note_on_c, 0, 64, 0
2, 267168, Note_on_c, 0, 76, 0
2, 267168, Note_on_c, 0, 69, 0
2, 267168, Note_on_c, 0, 81, 0
2, 267169, Note_on_c, 0, 84, 0
2, 267169, Note_on_c, 0, 57, 37
2, 267170, Note_on_c, 0, 88, 0
2, 267173, Note_on_c, 0, 60, 0
2, 267182, Note_on_c, 0, 57, 0
2, 267208, Note_on_c, 0, 60, 87
2, 267210, Note_on_c, 0, 76, 91
2, 267210, Note_on_c, 0, 69, 97
2, 267211, Note_on_c, 0, 81, 101
2, 267211, Note_on_c, 0, 84, 94
2, 267211, Note_on_c, 0, 64, 82
2, 267212, Note_on_c, 0, 57, 97
2, 267216, Note_on_c, 0, 88, 99
2, 267221, Note_on_c, 0, 69, 0
2, 267223, Note_on_c, 0, 64, 0
2, 267223, Note_on_c, 0, 60, 0
2, 267226, Note_on_c, 0, 81, 0
2, 267226, Note_on_c, 0, 57, 0
2, 267236, Note_on_c, 0, 84, 0
2, 267238, Note_on_c, 0, 76, 0
2, 267240, Note_on_c, 0, 88, 0
2, 267259, Note_on_c, 0, 69, 97
2, 267261, Note_on_c, 0, 57, 100
2, 267263, Note_on_c, 0, 64, 90
2, 267263, Note_on_c, 0, 60, 92
2, 267264, Note_on_c, 0, 88, 100
2, 267265, Note_on_c, 0, 84, 102
2, 267268, Note_on_c, 0, 76, 98
2, 267270, Note_on_c, 0, 81, 80
2, 267273, Note_on_c, 0, 57, 0
2, 267273, Note_on_c, 0, 69, 0
2, 267275, Note_on_c, 0, 64, 0
2, 267276, Note_on_c, 0, 60, 0
2, 267283, Note_on_c, 0, 76, 0
2, 267284, Note_on_c, 0, 81, 0
2, 267291, Note_on_c, 0, 88, 0
2, 267297, Note_on_c, 0, 84, 0
2, 267440, Note_on_c, 0, 60, 84
2, 267442, Note_on_c, 0, 69, 90
2, 267443, Note_on_c, 0, 84, 99
2, 267443, Note_on_c, 0, 88, 95
2, 267444, Note_on_c, 0, 64, 85
2, 267444, Note_on_c, 0, 76, 97
2, 267444, Note_on_c, 0, 81, 93
2, 267447, Note_on_c, 0, 57, 64
2, 267454, Note_on_c, 0, 69, 0
2, 267457, Note_on_c, 0, 64, 0
2, 267457, Note_on_c, 0, 60, 0
2, 267460, Note_on_c, 0, 84, 0
2, 267460, Note_on_c, 0, 81, 0
2, 267464, Note_on_c, 0, 76, 0
2, 267466, Note_on_c, 0, 57, 0
2, 267478, Note_on_c, 0, 88, 0
2, 267605, Note_on_c, 0, 69, 98
2, 267605, Note_on_c, 0, 64, 102
2, 267608, Note_on_c, 0, 88, 92
2, 267608, Note_on_c, 0, 60, 92
2, 267609, Note_on_c, 0, 76, 108
2, 267609, Note_on_c, 0, 57, 92
2, 267610, Note_on_c, 0, 84, 101
2, 267610, Note_on_c, 0, 81, 101
2, 267613, Note_on_c, 0, 64, 0
2, 267613, Note_on_c, 0, 69, 0
2, 267620, Note_on_c, 0, 60, 0
2, 267620, Note_on_c, 0, 88, 0
2, 267623, Note_on_c, 0, 84, 0
2, 267626, Note_on_c, 0, 81, 0
2, 267640, Note_on_c, 0, 76, 0
2, 267643, Note_on_c, 0, 57, 0
2, 267841, Note_on_c, 0, 45, 108
2, 267842, Note_on_c, 0, 33, 92
2, 267843, Note_on_c, 0, 57, 122
2, 267853, Note_on_c, 0, 45, 0
2, 267861, Note_on_c, 0, 33, 0
2, 267871, Note_on_c, 0, 57, 0
2, 267929, Note_on_c, 0, 43, 99
2, 267929, Note_on_c, 0, 55, 110
2, 267929, Note_on_c, 0, 31, 101
2, 267943, Note_on_c, 0, 31, 0
2, 267943, Note_on_c, 0, 43, 0
2, 267949, Control_c, 0, 64, 0
2, 267970, Note_on_c, 0, 55, 0
2, 268011, Note_on_c, 0, 41, 117
2, 268012, Note_on_c, 0, 53, 124
2, 268014, Note_on_c, 0, 29, 110
2, 268024, Note_on_c, 0, 29, 0
2, 268024, Control_c, 0, 64, 127
2, 268040, Note_on_c, 0, 41, 0
2, 268041, Note_on_c, 0, 53, 0
2, 268242, Note_on_c, 0, 57, 89
2, 268249, Note_on_c, 0, 60, 77
2, 268252, Note_on_c, 0, 93, 107
2, 268252, Note_on_c, 0, 65, 103
2, 268254, Note_on_c, 0, 81, 111
2, 268254, Note_on_c, 0, 69, 117
2, 268255, Note_on_c, 0, 84, 101
2, 268255, Note_on_c, 0, 89, 105
2, 268263, Note_on_c, 0, 69, 0
2, 268263, Note_on_c, 0, 93, 0
2, 268265, Note_on_c, 0, 65, 0
2, 268268, Note_on_c, 0, 89, 0
2, 268274, Note_on_c, 0, 84, 0
2, 268274, Note_on_c, 0, 60, 0
2, 268276, Note_on_c, 0, 57, 0
2, 268276, Note_on_c, 0, 81, 0
2, 268471, Control_c, 0, 64, 0
2, 268509, Note_on_c, 0, 29, 106
2, 268511, Note_on_c, 0, 53, 119
2, 268513, Note_on_c, 0, 41, 126
2, 268522, Note_on_c, 0, 29, 0
2, 268525, Control_c, 0, 64, 127
2, 268541, Note_on_c, 0, 41, 0
2, 268543, Note_on_c, 0, 53, 0
2, 268812, Note_on_c, 0, 94, 111
2, 268813, Note_on_c, 0, 58, 92
2, 268816, Note_on_c, 0, 85, 120
2, 268818, Note_on_c, 0, 70, 118
2, 268819, Note_on_c, 0, 82, 112
2, 268819, Note_on_c, 0, 65, 102
2, 268820, Note_on_c, 0, 89, 106
2, 268821, Note_on_c, 0, 61, 90
2, 268830, Note_on_c, 0, 65, 0
2, 268835, Note_on_c, 0, 61, 0
2, 268835, Note_on_c, 0, 82, 0
2, 268836, Note_on_c, 0, 70, 0
2, 268837, Note_on_c, 0, 58, 0
2, 268845, Note_on_c, 0, 94, 0
2, 268853, Note_on_c, 0, 89, 0
2, 268856, Note_on_c, 0, 85, 0
2, 269032, Control_c, 0, 64, 0
2, 269060, Note_on_c, 0, 53, 122
2, 269061, Note_on_c, 0, 29, 106
2, 269063, Note_on_c, 0, 41, 127
2, 269075, Note_on_c, 0, 29, 0
2, 269075, Control_c, 0, 64, 127
2, 269093, Note_on_c, 0, 41, 0
2, 269094, Note_on_c, 0, 53, 0
2, 269356, Control_c, 0, 64, 0
2, 269356, Note_on_c, 0, 59, 94
2, 269365, Note_on_c, 0, 63, 108
2, 269376, Note_on_c, 0, 87, 115
2, 269376, Note_on_c, 0, 95, 119
2, 269378, Note_on_c, 0, 83, 111
2, 269379, Note_on_c, 0, 93, 111
2, 269379, Note_on_c, 0, 71, 119
2, 269380, Note_on_c, 0, 69, 99
2, 269420, Control_c, 0, 64, 127
2, 269759, Note_on_c, 0, 71, 0
2, 269851, Note_on_c, 0, 69, 0
2, 269867, Note_on_c, 0, 83, 0
2, 269867, Note_on_c, 0, 93, 0
2, 269870, Note_on_c, 0, 87, 0
2, 269871, Note_on_c, 0, 59, 0
2, 269878, Note_on_c, 0, 95, 0
2, 269917, Note_on_c, 0, 63, 0
2, 270113, Control_c, 0, 64, 0
2, 270137, Note_on_c, 0, 87, 105
2, 270138, Note_on_c, 0, 83, 105
2, 270139, Note_on_c, 0, 63, 103
2, 270139, Note_on_c, 0, 71, 107
2, 270140, Note_on_c, 0, 59, 99
2, 270140, Note_on_c, 0, 93, 100
2, 270141, Note_on_c, 0, 95, 93
2, 270141, Note_on_c, 0, 69, 100
2, 270148, Control_c, 0, 64, 127
2, 270150, Note_on_c, 0, 63, 0
2, 270152, Note_on_c, 0, 69, 0
2, 270152, Note_on_c, 0, 83, 0
2, 270153, Note_on_c, 0, 59, 0
2, 270153, Note_on_c, 0, 71, 0
2, 270153, Note_on_c, 0, 93, 0
2, 270155, Note_on_c, 0, 87, 0
2, 270155, Note_on_c, 0, 95, 0
2, 270200, Note_on_c, 0, 87, 105
2, 270201, Note_on_c, 0, 83, 103
2, 270202, Note_on_c, 0, 71, 93
2, 270202, Note_on_c, 0, 93, 108
2, 270202, Note_on_c, 0, 59, 94
2, 270203, Note_on_c, 0, 69, 93
2, 270203, Note_on_c, 0, 63, 102
2, 270204, Note_on_c, 0, 95, 91
2, 270215, Note_on_c, 0, 63, 0
2, 270215, Note_on_c, 0, 69, 0
2, 270216, Note_on_c, 0, 71, 0
2, 270216, Note_on_c, 0, 83, 0
2, 270217, Note_on_c, 0, 93, 0
2, 270217, Note_on_c, 0, 59, 0
2, 270218, Note_on_c, 0, 95, 0
2, 270225, Note_on_c, 0, 87, 0
2, 270245, Note_on_c, 0, 71, 110
2, 270248, Note_on_c, 0, 59, 101
2, 270248, Note_on_c, 0, 69, 100
2, 270249, Note_on_c, 0, 83, 113
2, 270249, Note_on_c, 0, 63, 103
2, 270250, Note_on_c, 0, 93, 116
2, 270250, Note_on_c, 0, 87, 108
2, 270250, Note_on_c, 0, 95, 106
2, 270258, Note_on_c, 0, 69, 0
2, 270268, Note_on_c, 0, 71, 0
2, 270273, Note_on_c, 0, 59, 0
2, 270276, Note_on_c, 0, 63, 0
2, 270280, Note_on_c, 0, 83, 0
2, 270284, Note_on_c, 0, 95, 0
2, 270286, Note_on_c, 0, 93, 0
2, 270287, Note_on_c, 0, 87, 0
2, 270599, Note_on_c, 0, 47, 122
2, 270599, Note_on_c, 0, 53, 127
2, 270600, Note_on_c, 0, 83, 120
2, 270600, Note_on_c, 0, 41, 114
2, 270600, Note_on_c, 0, 87, 116
2, 270601, Note_on_c, 0, 93, 111
2, 270617, Note_on_c, 0, 47, 0
2, 270625, Note_on_c, 0, 41, 0
2, 270626, Note_on_c, 0, 53, 0
2, 270717, Note_on_c, 0, 83, 0
2, 270718, Note_on_c, 0, 87, 0
2, 270721, Note_on_c, 0, 93, 0
2, 270783, Note_on_c, 0, 47, 113
2, 270783, Note_on_c, 0, 53, 119
2, 270784, Note_on_c, 0, 41, 110
2, 270786, Note_on_c, 0, 83, 117
2, 270786, Note_on_c, 0, 87, 111
2, 270787, Note_on_c, 0, 93, 114
2, 270789, Note_on_c, 0, 95, 105
2, 270795, Note_on_c, 0, 41, 0
2, 270795, Note_on_c, 0, 47, 0
2, 270804, Note_on_c, 0, 53, 0
2, 270810, Note_on_c, 0, 95, 0
2, 270819, Note_on_c, 0, 83, 0
2, 270822, Note_on_c, 0, 87, 0
2, 270825, Note_on_c, 0, 93, 0
2, 270898, Control_c, 0, 64, 0
2, 270914, Control_c, 0, 64, 127
2, 270925, Note_on_c, 0, 54, 120
2, 270927, Note_on_c, 0, 87, 121
2, 270928, Note_on_c, 0, 83, 117
2, 270928, Note_on_c, 0, 42, 115
2, 270928, Note_on_c, 0, 47, 113
2, 270929, Note_on_c, 0, 95, 120
2, 270929, Note_on_c, 0, 93, 117
2, 270939, Note_on_c, 0, 47, 0
2, 270949, Note_on_c, 0, 83, 0
2, 270949, Note_on_c, 0, 54, 0
2, 270956, Note_on_c, 0, 87, 0
2, 270963, Note_on_c, 0, 42, 0
2, 270963, Note_on_c, 0, 93, 0
2, 270965, Note_on_c, 0, 95, 0
2, 271099, Control_c, 0, 64, 0
2, 271110, Note_on_c, 0, 35, 103
2, 271112, Note_on_c, 0, 39, 116
2, 271114, Note_on_c, 0, 102, 113
2, 271114, Note_on_c, 0, 47, 110
2, 271115, Note_on_c, 0, 90, 116
2, 271116, Note_on_c, 0, 95, 122
2, 271117, Note_on_c, 0, 45, 111
2, 271126, Note_on_c, 0, 45, 0
2, 271134, Note_on_c, 0, 35, 0
2, 271135, Control_c, 0, 64, 127
2, 271141, Note_on_c, 0, 47, 0
2, 271144, Note_on_c, 0, 39, 0
2, 271165, Note_on_c, 0, 102, 0
2, 271168, Note_on_c, 0, 95, 0
2, 271177, Note_on_c, 0, 90, 0
2, 272061, Control_c, 0, 64, 0
2, 272138, Note_on_c, 0, 100, 110
2, 272139, Note_on_c, 0, 52, 98
2, 272139, Note_on_c, 0, 88, 100
2, 272144, Note_on_c, 0, 40, 79
2, 272152, Note_on_c, 0, 52, 0
2, 272153, Note_on_c, 0, 88, 0
2, 272158, Note_on_c, 0, 40, 0
2, 272159, Note_on_c, 0, 100, 0
2, 272175, Control_c, 0, 67, 127
2, 272180, Control_c, 0, 64, 127
2, 272189, Note_on_c, 0, 52, 98
2, 272190, Note_on_c, 0, 40, 90
2, 272191, Note_on_c, 0, 100, 113
2, 272192, Note_on_c, 0, 88, 97
2, 272201, Control_c, 0, 67, 0
2, 272216, Note_on_c, 0, 52, 0
2, 272217, Note_on_c, 0, 40, 0
2, 272224, Note_on_c, 0, 88, 0
2, 272226, Note_on_c, 0, 100, 0
2, 272354, Note_on_c, 0, 95, 95
2, 272357, Note_on_c, 0, 44, 95
2, 272386, Note_on_c, 0, 95, 0
2, 272392, Note_on_c, 0, 44, 0
2, 272450, Note_on_c, 0, 92, 86
2, 272451, Note_on_c, 0, 47, 97
2, 272467, Note_on_c, 0, 92, 0
2, 272468, Note_on_c, 0, 47, 0
2, 272545, Note_on_c, 0, 44, 99
2, 272546, Note_on_c, 0, 95, 99
2, 272546, Note_on_c, 0, 56, 99
2, 272548, Note_on_c, 0, 83, 99
2, 272561, Note_on_c, 0, 95, 0
2, 272564, Note_on_c, 0, 83, 0
2, 272565, Note_on_c, 0, 56, 0
2, 272567, Note_on_c, 0, 44, 0
2, 272624, Note_on_c, 0, 92, 101
2, 272631, Note_on_c, 0, 47, 97
2, 272650, Note_on_c, 0, 47, 0
2, 272666, Note_on_c, 0, 92, 0
2, 272691, Note_on_c, 0, 88, 72
2, 272700, Note_on_c, 0, 52, 99
2, 272709, Note_on_c, 0, 88, 0
2, 272715, Note_on_c, 0, 52, 0
2, 272767, Note_on_c, 0, 90, 96
2, 272767, Note_on_c, 0, 78, 94
2, 272771, Note_on_c, 0, 47, 92
2, 272773, Note_on_c, 0, 59, 97
2, 272785, Note_on_c, 0, 47, 0
2, 272788, Note_on_c, 0, 59, 0
2, 272791, Note_on_c, 0, 78, 0
2, 272801, Note_on_c, 0, 90, 0
2, 272838, Note_on_c, 0, 87, 87
2, 272841, Note_on_c, 0, 51, 97
2, 272889, Note_on_c, 0, 51, 0
2, 272892, Note_on_c, 0, 87, 0
2, 272903, Note_on_c, 0, 54, 89
2, 272915, Note_on_c, 0, 54, 0
2, 272919, Note_on_c, 0, 83, 93
2, 272941, Note_on_c, 0, 83, 0
2, 272976, Note_on_c, 0, 52, 91
2, 272977, Note_on_c, 0, 64, 95
2, 272979, Note_on_c, 0, 92, 95
2, 272983, Note_on_c, 0, 80, 95
2, 272991, Note_on_c, 0, 52, 0
2, 272992, Note_on_c, 0, 64, 0
2, 273005, Note_on_c, 0, 80, 0
2, 273015, Note_on_c, 0, 92, 0
2, 273048, Note_on_c, 0, 56, 97
2, 273079, Note_on_c, 0, 56, 0
2, 273091, Note_on_c, 0, 83, 75
2, 273101, Note_on_c, 0, 59, 48
2, 273109, Note_on_c, 0, 83, 0
2, 273116, Note_on_c, 0, 59, 0
2, 273123, Control_c, 0, 64, 0
2, 273152, Control_c, 0, 64, 127
2, 273154, Note_on_c, 0, 88, 95
2, 273156, Note_on_c, 0, 76, 98
2, 273162, Note_on_c, 0, 68, 96
2, 273164, Note_on_c, 0, 56, 93
2, 273178, Note_on_c, 0, 76, 0
2, 273183, Note_on_c, 0, 56, 0
2, 273189, Note_on_c, 0, 68, 0
2, 273190, Note_on_c, 0, 88, 0
2, 273215, Note_on_c, 0, 83, 89
2, 273233, Note_on_c, 0, 59, 69
2, 273247, Note_on_c, 0, 83, 0
2, 273260, Note_on_c, 0, 59, 0
2, 273271, Note_on_c, 0, 64, 91
2, 273272, Note_on_c, 0, 80, 91
2, 273280, Control_c, 0, 64, 0
2, 273286, Note_on_c, 0, 80, 0
2, 273286, Note_on_c, 0, 64, 0
2, 273307, Control_c, 0, 64, 127
2, 273327, Note_on_c, 0, 75, 104
2, 273330, Note_on_c, 0, 87, 86
2, 273332, Note_on_c, 0, 59, 84
2, 273335, Note_on_c, 0, 71, 95
2, 273343, Note_on_c, 0, 58, 52
2, 273350, Note_on_c, 0, 59, 0
2, 273353, Note_on_c, 0, 71, 0
2, 273355, Note_on_c, 0, 58, 0
2, 273356, Note_on_c, 0, 75, 0
2, 273376, Note_on_c, 0, 87, 0
2, 273385, Note_on_c, 0, 63, 93
2, 273387, Note_on_c, 0, 83, 89
2, 273427, Note_on_c, 0, 66, 99
2, 273430, Note_on_c, 0, 83, 0
2, 273430, Note_on_c, 0, 63, 0
2, 273432, Note_on_c, 0, 78, 101
2, 273439, Note_on_c, 0, 66, 0
2, 273460, Note_on_c, 0, 78, 0
2, 273463, Control_c, 0, 64, 0
2, 273486, Control_c, 0, 64, 127
2, 273496, Note_on_c, 0, 64, 91
2, 273496, Note_on_c, 0, 88, 98
2, 273497, Note_on_c, 0, 52, 93
2, 273498, Note_on_c, 0, 76, 94
2, 273508, Note_on_c, 0, 64, 0
2, 273512, Note_on_c, 0, 52, 0
2, 273535, Note_on_c, 0, 88, 0
2, 273540, Note_on_c, 0, 83, 93
2, 273543, Note_on_c, 0, 76, 0
2, 273553, Note_on_c, 0, 56, 103
2, 273585, Note_on_c, 0, 83, 0
2, 273591, Note_on_c, 0, 56, 0
2, 273592, Note_on_c, 0, 80, 84
2, 273598, Note_on_c, 0, 59, 51
2, 273609, Note_on_c, 0, 80, 0
2, 273614, Note_on_c, 0, 59, 0
2, 273615, Control_c, 0, 64, 0
2, 273621, Control_c, 0, 64, 127
2, 273651, Note_on_c, 0, 59, 103
2, 273652, Note_on_c, 0, 83, 105
2, 273654, Note_on_c, 0, 47, 84
2, 273654, Note_on_c, 0, 71, 99
2, 273668, Note_on_c, 0, 59, 0
2, 273669, Note_on_c, 0, 47, 0
2, 273680, Note_on_c, 0, 71, 0
2, 273704, Note_on_c, 0, 80, 105
2, 273710, Note_on_c, 0, 52, 92
2, 273715, Note_on_c, 0, 83, 0
2, 273742, Note_on_c, 0, 56, 97
2, 273746, Note_on_c, 0, 52, 0
2, 273756, Note_on_c, 0, 76, 76
2, 273757, Note_on_c, 0, 80, 0
2, 273769, Note_on_c, 0, 56, 0
2, 273771, Note_on_c, 0, 76, 0
2, 273800, Note_on_c, 0, 56, 104
2, 273803, Note_on_c, 0, 80, 87
2, 273807, Note_on_c, 0, 68, 102
2, 273809, Note_on_c, 0, 44, 107
2, 273825, Note_on_c, 0, 44, 0
2, 273832, Note_on_c, 0, 68, 0
2, 273832, Note_on_c, 0, 56, 0
2, 273843, Note_on_c, 0, 80, 0
2, 273859, Note_on_c, 0, 47, 80
2, 273861, Note_on_c, 0, 76, 70
2, 273884, Note_on_c, 0, 52, 109
2, 273889, Note_on_c, 0, 47, 0
2, 273896, Note_on_c, 0, 52, 0
2, 273899, Note_on_c, 0, 71, 100
2, 273902, Note_on_c, 0, 76, 0
2, 273924, Control_c, 0, 64, 0
2, 273927, Note_on_c, 0, 71, 0
2, 273953, Note_on_c, 0, 76, 99
2, 273953, Control_c, 0, 64, 127
2, 273956, Note_on_c, 0, 40, 102
2, 273957, Note_on_c, 0, 64, 100
2, 273957, Note_on_c, 0, 52, 105
2, 273970, Note_on_c, 0, 40, 0
2, 273975, Note_on_c, 0, 64, 0
2, 273980, Note_on_c, 0, 52, 0
2, 273999, Note_on_c, 0, 76, 0
2, 274009, Note_on_c, 0, 71, 109
2, 274010, Note_on_c, 0, 44, 109
2, 274036, Note_on_c, 0, 47, 100
2, 274042, Note_on_c, 0, 44, 0
2, 274048, Note_on_c, 0, 68, 94
2, 274050, Note_on_c, 0, 47, 0
2, 274050, Note_on_c, 0, 71, 0
2, 274078, Note_on_c, 0, 68, 0
2, 274105, Note_on_c, 0, 47, 109
2, 274106, Note_on_c, 0, 35, 109
2, 274112, Note_on_c, 0, 59, 109
2, 274114, Note_on_c, 0, 71, 109
2, 274120, Note_on_c, 0, 35, 0
2, 274143, Note_on_c, 0, 47, 0
2, 274147, Note_on_c, 0, 59, 0
2, 274153, Note_on_c, 0, 68, 95
2, 274158, Note_on_c, 0, 40, 87
2, 274169, Note_on_c, 0, 71, 0
2, 274187, Note_on_c, 0, 44, 109
2, 274195, Note_on_c, 0, 40, 0
2, 274200, Note_on_c, 0, 68, 0
2, 274211, Note_on_c, 0, 64, 79
2, 274215, Note_on_c, 0, 44, 0
2, 274225, Note_on_c, 0, 64, 0
2, 274249, Note_on_c, 0, 44, 92
2, 274252, Note_on_c, 0, 68, 90
2, 274252, Note_on_c, 0, 56, 111
2, 274255, Note_on_c, 0, 32, 109
2, 274279, Note_on_c, 0, 44, 0
2, 274281, Note_on_c, 0, 56, 0
2, 274284, Note_on_c, 0, 68, 0
2, 274304, Note_on_c, 0, 32, 0
2, 274304, Note_on_c, 0, 64, 101
2, 274307, Note_on_c, 0, 39, 101
2, 274321, Note_on_c, 0, 39, 0
2, 274323, Note_on_c, 0, 38, 103
2, 274328, Note_on_c, 0, 40, 103
2, 274336, Note_on_c, 0, 59, 103
2, 274338, Note_on_c, 0, 38, 0
2, 274338, Note_on_c, 0, 64, 0
2, 274340, Note_on_c, 0, 40, 0
2, 274352, Note_on_c, 0, 59, 0
2, 274363, Control_c, 0, 64, 0
2, 274380, Note_on_c, 0, 64, 111
2, 274382, Note_on_c, 0, 28, 111
2, 274385, Note_on_c, 0, 40, 111
2, 274387, Control_c, 0, 64, 127
2, 274387, Note_on_c, 0, 52, 111
2, 274392, Note_on_c, 0, 28, 0
2, 274396, Note_on_c, 0, 40, 0
2, 274402, Note_on_c, 0, 52, 0
2, 274409, Note_on_c, 0, 64, 0
2, 274574, Control_c, 0, 64, 0
2, 274658, Note_on_c, 0, 40, 103
2, 274658, Note_on_c, 0, 52, 102
2, 274660, Note_on_c, 0, 64, 90
2, 274660, Note_on_c, 0, 57, 92
2, 274661, Note_on_c, 0, 60, 61
2, 274661, Note_on_c, 0, 45, 87
2, 274663, Note_on_c, 0, 33, 113
2, 274669, Note_on_c, 0, 40, 0
2, 274670, Note_on_c, 0, 52, 0
2, 274673, Note_on_c, 0, 57, 0
2, 274674, Note_on_c, 0, 64, 0
2, 274674, Note_on_c, 0, 45, 0
2, 274678, Note_on_c, 0, 33, 0
2, 274680, Note_on_c, 0, 60, 0
2, 274690, Control_c, 0, 64, 127
2, 274702, Note_on_c, 0, 45, 101
2, 274703, Note_on_c, 0, 33, 93
2, 274704, Note_on_c, 0, 64, 115
2, 274706, Note_on_c, 0, 52, 115
2, 274706, Note_on_c, 0, 40, 115
2, 274707, Note_on_c, 0, 60, 115
2, 274708, Note_on_c, 0, 57, 115
2, 274715, Note_on_c, 0, 33, 0
2, 274719, Note_on_c, 0, 40, 0
2, 274719, Note_on_c, 0, 52, 0
2, 274721, Note_on_c, 0, 57, 0
2, 274728, Note_on_c, 0, 45, 0
2, 274740, Note_on_c, 0, 60, 0
2, 274748, Note_on_c, 0, 64, 0
2, 274891, Control_c, 0, 64, 0
2, 274897, Note_on_c, 0, 68, 103
2, 274898, Note_on_c, 0, 71, 105
2, 274899, Note_on_c, 0, 47, 105
2, 274899, Note_on_c, 0, 64, 106
2, 274900, Note_on_c, 0, 52, 103
2, 274900, Note_on_c, 0, 44, 91
2, 274904, Note_on_c, 0, 76, 77
2, 274905, Note_on_c, 0, 40, 117
2, 274910, Note_on_c, 0, 64, 0
2, 274910, Note_on_c, 0, 71, 0
2, 274911, Note_on_c, 0, 68, 0
2, 274911, Note_on_c, 0, 47, 0
2, 274912, Note_on_c, 0, 52, 0
2, 274913, Note_on_c, 0, 44, 0
2, 274919, Note_on_c, 0, 76, 0
2, 274923, Note_on_c, 0, 40, 0
2, 274925, Control_c, 0, 64, 127
2, 274942, Note_on_c, 0, 52, 99
2, 274943, Note_on_c, 0, 44, 88
2, 274944, Note_on_c, 0, 68, 117
2, 274944, Note_on_c, 0, 76, 117
2, 274944, Note_on_c, 0, 40, 117
2, 274945, Note_on_c, 0, 47, 117
2, 274945, Note_on_c, 0, 71, 117
2, 274947, Note_on_c, 0, 64, 117
2, 274956, Note_on_c, 0, 68, 0
2, 274958, Note_on_c, 0, 47, 0
2, 274959, Note_on_c, 0, 71, 0
2, 274961, Note_on_c, 0, 64, 0
2, 274961, Note_on_c, 0, 40, 0
2, 274969, Note_on_c, 0, 52, 0
2, 274970, Note_on_c, 0, 44, 0
2, 274978, Note_on_c, 0, 76, 0
2, 275103, Control_c, 0, 64, 0
2, 275114, Note_on_c, 0, 76, 121
2, 275114, Note_on_c, 0, 84, 92
2, 275114, Note_on_c, 0, 88, 88
2, 275115, Note_on_c, 0, 52, 113
2, 275115, Note_on_c, 0, 81, 93
2, 275120, Note_on_c, 0, 57, 95
2, 275122, Note_on_c, 0, 45, 89
2, 275125, Note_on_c, 0, 84, 0
2, 275126, Note_on_c, 0, 52, 0
2, 275126, Note_on_c, 0, 88, 0
2, 275129, Note_on_c, 0, 81, 0
2, 275129, Note_on_c, 0, 76, 0
2, 275132, Note_on_c, 0, 57, 0
2, 275135, Note_on_c, 0, 45, 0
2, 275145, Control_c, 0, 64, 127
2, 275154, Note_on_c, 0, 88, 100
2, 275155, Note_on_c, 0, 81, 100
2, 275156, Note_on_c, 0, 57, 106
2, 275157, Note_on_c, 0, 52, 105
2, 275158, Note_on_c, 0, 84, 90
2, 275159, Note_on_c, 0, 76, 91
2, 275160, Note_on_c, 0, 45, 119
2, 275167, Note_on_c, 0, 81, 0
2, 275171, Note_on_c, 0, 52, 0
2, 275172, Note_on_c, 0, 76, 0
2, 275173, Note_on_c, 0, 45, 0
2, 275183, Note_on_c, 0, 57, 0
2, 275184, Note_on_c, 0, 84, 0
2, 275190, Note_on_c, 0, 88, 0
2, 275323, Note_on_c, 0, 95, 110
2, 275325, Note_on_c, 0, 92, 94
2, 275326, Note_on_c, 0, 59, 102
2, 275326, Note_on_c, 0, 88, 86
2, 275326, Note_on_c, 0, 56, 94
2, 275327, Note_on_c, 0, 100, 94
2, 275329, Note_on_c, 0, 64, 89
2, 275333, Note_on_c, 0, 52, 66
2, 275335, Note_on_c, 0, 95, 0
2, 275338, Note_on_c, 0, 59, 0
2, 275339, Note_on_c, 0, 56, 0
2, 275339, Note_on_c, 0, 92, 0
2, 275341, Note_on_c, 0, 64, 0
2, 275342, Note_on_c, 0, 88, 0
2, 275342, Control_c, 0, 64, 0
2, 275343, Note_on_c, 0, 100, 0
2, 275352, Note_on_c, 0, 52, 0
2, 275366, Note_on_c, 0, 100, 113
2, 275366, Note_on_c, 0, 92, 113
2, 275367, Note_on_c, 0, 88, 113
2, 275369, Note_on_c, 0, 52, 113
2, 275369, Note_on_c, 0, 95, 113
2, 275369, Note_on_c, 0, 64, 113
2, 275370, Note_on_c, 0, 59, 115
2, 275370, Note_on_c, 0, 56, 115
2, 275373, Control_c, 0, 64, 127
2, 275380, Note_on_c, 0, 100, 0
2, 275384, Note_on_c, 0, 52, 0
2, 275384, Note_on_c, 0, 59, 0
2, 275389, Note_on_c, 0, 95, 0
2, 275395, Note_on_c, 0, 56, 0
2, 275396, Note_on_c, 0, 92, 0
2, 275396, Note_on_c, 0, 64, 0
2, 275397, Note_on_c, 0, 88, 0
2, 275541, Control_c, 0, 64, 0
2, 275571, Note_on_c, 0, 76, 92
2, 275573, Note_on_c, 0, 81, 88
2, 275573, Note_on_c, 0, 88, 84
2, 275576, Note_on_c, 0, 64, 81
2, 275576, Note_on_c, 0, 84, 85
2, 275577, Note_on_c, 0, 69, 77
2, 275580, Note_on_c, 0, 57, 79
2, 275581, Note_on_c, 0, 60, 49
2, 275584, Note_on_c, 0, 76, 0
2, 275588, Note_on_c, 0, 81, 0
2, 275590, Note_on_c, 0, 64, 0
2, 275590, Note_on_c, 0, 84, 0
2, 275591, Note_on_c, 0, 69, 0
2, 275595, Note_on_c, 0, 57, 0
2, 275596, Control_c, 0, 64, 127
2, 275598, Note_on_c, 0, 60, 0
2, 275608, Note_on_c, 0, 88, 0
2, 275743, Note_on_c, 0, 100, 100
2, 275745, Note_on_c, 0, 92, 109
2, 275746, Note_on_c, 0, 71, 105
2, 275746, Note_on_c, 0, 95, 113
2, 275746, Note_on_c, 0, 88, 103
2, 275747, Note_on_c, 0, 68, 99
2, 275748, Note_on_c, 0, 76, 91
2, 275749, Note_on_c, 0, 64, 88
2, 275755, Note_on_c, 0, 100, 0
2, 275758, Note_on_c, 0, 95, 0
2, 275758, Note_on_c, 0, 71, 0
2, 275761, Note_on_c, 0, 76, 0
2, 275764, Note_on_c, 0, 68, 0
2, 275765, Note_on_c, 0, 92, 0
2, 275767, Note_on_c, 0, 64, 0
2, 275770, Note_on_c, 0, 88, 0
2, 275902, Note_on_c, 0, 81, 107
2, 275902, Note_on_c, 0, 57, 103
2, 275902, Note_on_c, 0, 76, 107
2, 275903, Note_on_c, 0, 84, 102
2, 275903, Note_on_c, 0, 60, 93
2, 275903, Note_on_c, 0, 88, 97
2, 275913, Note_on_c, 0, 76, 0
2, 275914, Note_on_c, 0, 81, 0
2, 275915, Note_on_c, 0, 60, 0
2, 275925, Note_on_c, 0, 84, 0
2, 275935, Note_on_c, 0, 57, 0
2, 275936, Note_on_c, 0, 88, 0
2, 276026, Control_c, 0, 64, 0
2, 276033, Control_c, 0, 64, 127
2, 276048, Note_on_c, 0, 52, 95
2, 276053, Note_on_c, 0, 59, 99
2, 276053, Note_on_c, 0, 56, 110
2, 276054, Note_on_c, 0, 92, 107
2, 276054, Note_on_c, 0, 100, 111
2, 276055, Note_on_c, 0, 95, 119
2, 276056, Note_on_c, 0, 88, 94
2, 276057, Note_on_c, 0, 64, 69
2, 276065, Note_on_c, 0, 59, 0
2, 276066, Note_on_c, 0, 100, 0
2, 276069, Note_on_c, 0, 95, 0
2, 276073, Note_on_c, 0, 64, 0
2, 276078, Note_on_c, 0, 56, 0
2, 276080, Note_on_c, 0, 52, 0
2, 276081, Note_on_c, 0, 92, 0
2, 276087, Note_on_c, 0, 88, 0
2, 276207, Note_on_c, 0, 76, 106
2, 276208, Note_on_c, 0, 88, 98
2, 276208, Note_on_c, 0, 81, 105
2, 276208, Note_on_c, 0, 84, 105
2, 276209, Note_on_c, 0, 57, 99
2, 276209, Note_on_c, 0, 52, 106
2, 276210, Note_on_c, 0, 48, 91
2, 276210, Note_on_c, 0, 45, 95
2, 276219, Note_on_c, 0, 76, 0
2, 276220, Note_on_c, 0, 81, 0
2, 276223, Note_on_c, 0, 57, 0
2, 276223, Note_on_c, 0, 52, 0
2, 276224, Note_on_c, 0, 48, 0
2, 276239, Note_on_c, 0, 84, 0
2, 276243, Note_on_c, 0, 88, 0
2, 276244, Note_on_c, 0, 45, 0
2, 276358, Control_c, 0, 64, 0
2, 276371, Note_on_c, 0, 40, 103
2, 276371, Note_on_c, 0, 44, 116
2, 276371, Note_on_c, 0, 100, 120
2, 276372, Note_on_c, 0, 47, 119
2, 276372, Note_on_c, 0, 52, 117
2, 276373, Note_on_c, 0, 88, 100
2, 276373, Note_on_c, 0, 95, 122
2, 276376, Note_on_c, 0, 42, 90
2, 276381, Control_c, 0, 64, 127
2, 276382, Note_on_c, 0, 40, 0
2, 276386, Note_on_c, 0, 47, 0
2, 276388, Note_on_c, 0, 42, 0
2, 276391, Note_on_c, 0, 44, 0
2, 276397, Note_on_c, 0, 52, 0
2, 276398, Note_on_c, 0, 95, 0
2, 276399, Note_on_c, 0, 100, 0
2, 276402, Note_on_c, 0, 88, 0
2, 276704, Control_c, 0, 64, 0
2, 276752, Note_on_c, 0, 35, 119
2, 276753, Note_on_c, 0, 23, 105
2, 276759, Control_c, 0, 64, 127
2, 276764, Note_on_c, 0, 23, 0
2, 276775, Note_on_c, 0, 35, 0
2, 276863, Note_on_c, 0, 54, 127
2, 276865, Note_on_c, 0, 71, 116
2, 276867, Note_on_c, 0, 66, 124
2, 276868, Note_on_c, 0, 59, 113
2, 276868, Note_on_c, 0, 63, 121
2, 276869, Note_on_c, 0, 57, 119
2, 276873, Note_on_c, 0, 54, 0
2, 276879, Note_on_c, 0, 57, 0
2, 276902, Note_on_c, 0, 59, 0
2, 276910, Note_on_c, 0, 63, 0
2, 276914, Note_on_c, 0, 71, 0
2, 276920, Note_on_c, 0, 66, 0
2, 277341, Control_c, 0, 64, 0
2, 277373, Note_on_c, 0, 28, 106
2, 277376, Note_on_c, 0, 40, 127
2, 277390, Control_c, 0, 64, 127
2, 277398, Note_on_c, 0, 28, 0
2, 277405, Note_on_c, 0, 40, 0
2, 277592, Note_on_c, 0, 52, 97
2, 277607, Note_on_c, 0, 59, 105
2, 277612, Note_on_c, 0, 80, 104
2, 277618, Note_on_c, 0, 68, 116
2, 277619, Note_on_c, 0, 59, 0
2, 277619, Note_on_c, 0, 64, 114
2, 277621, Note_on_c, 0, 71, 111
2, 277622, Note_on_c, 0, 52, 0
2, 277622, Note_on_c, 0, 76, 101
2, 277628, Note_on_c, 0, 64, 0
2, 277633, Note_on_c, 0, 71, 0
2, 277641, Note_on_c, 0, 76, 0
2, 277643, Note_on_c, 0, 80, 0
2, 277644, Note_on_c, 0, 68, 0
2, 279519, Control_c, 0, 64, 0
2, 279519, End_track
0, 0, End_of_file
