0, 0, Header, 0, 1, 384
1, 0, Start_track
1, 0, Tempo, 512820
1, 0, Title_t, "Etudes d'executiMazeppa"
1, 0, Program_c, 0, 0
1, 0, Control_c, 0, 91, 127
1, 3, Program_c, 0, 0
1, 3, Control_c, 0, 91, 127
1, 3, Program_c, 0, 0
1, 748, Note_on_c, 0, 61, 56
1, 748, Control_c, 0, 64, 127
1, 776, Note_on_c, 0, 67, 58
1, 804, Note_on_c, 0, 70, 60
1, 833, Note_on_c, 0, 76, 62
1, 861, Note_on_c, 0, 79, 72
1, 889, Note_on_c, 0, 85, 72
1, 917, Note_on_c, 0, 88, 77
1, 945, Note_on_c, 0, 94, 79
1, 973, Note_on_c, 0, 61, 0
1, 1001, Note_on_c, 0, 67, 0
1, 1029, Note_on_c, 0, 70, 0
1, 1057, Note_on_c, 0, 76, 0
1, 1085, Note_on_c, 0, 79, 0
1, 1113, Note_on_c, 0, 85, 0
1, 1141, Note_on_c, 0, 88, 0
1, 1170, Note_on_c, 0, 94, 0
1, 1220, Control_c, 0, 64, 0
1, 1647, Note_on_c, 0, 56, 54
1, 1667, Control_c, 0, 64, 127
1, 1675, Note_on_c, 0, 62, 55
1, 1703, Note_on_c, 0, 65, 58
1, 1731, Note_on_c, 0, 71, 61
1, 1759, Note_on_c, 0, 74, 68
1, 1787, Note_on_c, 0, 80, 69
1, 1815, Note_on_c, 0, 83, 71
1, 1843, Note_on_c, 0, 89, 73
1, 1872, Note_on_c, 0, 56, 0
1, 1900, Note_on_c, 0, 62, 0
1, 1928, Note_on_c, 0, 65, 0
1, 1956, Note_on_c, 0, 71, 0
1, 1984, Note_on_c, 0, 74, 0
1, 2012, Note_on_c, 0, 80, 0
1, 2040, Note_on_c, 0, 83, 0
1, 2068, Note_on_c, 0, 89, 0
1, 2094, Control_c, 0, 64, 0
1, 2565, Control_c, 0, 64, 127
1, 2590, Note_on_c, 0, 51, 44
1, 2602, Note_on_c, 0, 57, 45
1, 2614, Note_on_c, 0, 60, 47
1, 2626, Note_on_c, 0, 66, 48
1, 2638, Note_on_c, 0, 69, 59
1, 2650, Note_on_c, 0, 75, 61
1, 2662, Note_on_c, 0, 78, 64
1, 2673, Note_on_c, 0, 84, 66
1, 2776, Note_on_c, 0, 51, 0
1, 2788, Note_on_c, 0, 57, 0
1, 2799, Note_on_c, 0, 60, 0
1, 2810, Note_on_c, 0, 66, 0
1, 2822, Note_on_c, 0, 69, 0
1, 2833, Note_on_c, 0, 75, 0
1, 2844, Note_on_c, 0, 78, 0
1, 2856, Note_on_c, 0, 84, 0
1, 2864, Control_c, 0, 64, 0
1, 2939, Control_c, 0, 64, 127
1, 2957, Note_on_c, 0, 46, 42
1, 2968, Note_on_c, 0, 52, 43
1, 2980, Note_on_c, 0, 55, 45
1, 2991, Note_on_c, 0, 61, 47
1, 3002, Note_on_c, 0, 64, 59
1, 3013, Note_on_c, 0, 70, 60
1, 3025, Note_on_c, 0, 73, 63
1, 3036, Note_on_c, 0, 79, 64
1, 3136, Note_on_c, 0, 46, 0
1, 3147, Note_on_c, 0, 52, 0
1, 3158, Note_on_c, 0, 55, 0
1, 3169, Note_on_c, 0, 61, 0
1, 3180, Note_on_c, 0, 64, 0
1, 3191, Note_on_c, 0, 70, 0
1, 3202, Note_on_c, 0, 73, 0
1, 3202, Control_c, 0, 64, 0
1, 3213, Note_on_c, 0, 79, 0
1, 3301, Control_c, 0, 64, 127
1, 3312, Note_on_c, 0, 41, 44
1, 3323, Note_on_c, 0, 47, 46
1, 3334, Note_on_c, 0, 50, 49
1, 3345, Note_on_c, 0, 56, 51
1, 3356, Note_on_c, 0, 59, 59
1, 3367, Note_on_c, 0, 65, 62
1, 3377, Note_on_c, 0, 68, 65
1, 3388, Note_on_c, 0, 74, 68
1, 3486, Note_on_c, 0, 41, 0
1, 3497, Note_on_c, 0, 47, 0
1, 3508, Note_on_c, 0, 50, 0
1, 3518, Note_on_c, 0, 56, 0
1, 3529, Note_on_c, 0, 59, 0
1, 3540, Note_on_c, 0, 65, 0
1, 3551, Note_on_c, 0, 68, 0
1, 3555, Control_c, 0, 64, 0
1, 3561, Note_on_c, 0, 74, 0
1, 3636, Control_c, 0, 64, 127
1, 3658, Note_on_c, 0, 36, 46
1, 3668, Note_on_c, 0, 42, 48
1, 3679, Note_on_c, 0, 45, 51
1, 3690, Note_on_c, 0, 51, 53
1, 3700, Note_on_c, 0, 54, 62
1, 3711, Note_on_c, 0, 60, 65
1, 3722, Note_on_c, 0, 63, 68
1, 3732, Note_on_c, 0, 69, 71
1, 3827, Note_on_c, 0, 36, 0
1, 3838, Note_on_c, 0, 42, 0
1, 3848, Note_on_c, 0, 45, 0
1, 3859, Note_on_c, 0, 51, 0
1, 3859, Control_c, 0, 64, 0
1, 3870, Note_on_c, 0, 54, 0
1, 3880, Note_on_c, 0, 60, 0
1, 3890, Note_on_c, 0, 63, 0
1, 3901, Note_on_c, 0, 69, 0
1, 3981, Control_c, 0, 64, 127
1, 3995, Note_on_c, 0, 37, 47
1, 4005, Note_on_c, 0, 43, 49
1, 4016, Note_on_c, 0, 46, 51
1, 4026, Note_on_c, 0, 52, 53
1, 4037, Note_on_c, 0, 55, 65
1, 4047, Note_on_c, 0, 61, 67
1, 4057, Note_on_c, 0, 64, 69
1, 4068, Note_on_c, 0, 70, 71
1, 4162, Note_on_c, 0, 37, 0
1, 4172, Note_on_c, 0, 43, 0
1, 4182, Note_on_c, 0, 46, 0
1, 4193, Note_on_c, 0, 52, 0
1, 4203, Note_on_c, 0, 55, 0
1, 4214, Note_on_c, 0, 61, 0
1, 4224, Note_on_c, 0, 64, 0
1, 4234, Note_on_c, 0, 70, 0
1, 4242, Control_c, 0, 64, 0
1, 4338, Note_on_c, 0, 38, 49
1, 4349, Note_on_c, 0, 44, 51
1, 4359, Note_on_c, 0, 47, 54
1, 4365, Control_c, 0, 64, 127
1, 4370, Note_on_c, 0, 53, 56
1, 4380, Note_on_c, 0, 56, 69
1, 4390, Note_on_c, 0, 59, 73
1, 4401, Note_on_c, 0, 65, 77
1, 4505, Note_on_c, 0, 38, 0
1, 4515, Note_on_c, 0, 44, 0
1, 4526, Note_on_c, 0, 47, 0
1, 4536, Note_on_c, 0, 53, 0
1, 4547, Note_on_c, 0, 56, 0
1, 4557, Note_on_c, 0, 59, 0
1, 4563, Control_c, 0, 64, 0
1, 4567, Note_on_c, 0, 65, 0
1, 4671, Note_on_c, 0, 34, 50
1, 4682, Note_on_c, 0, 41, 52
1, 4692, Note_on_c, 0, 44, 54
1, 4700, Control_c, 0, 64, 127
1, 4703, Note_on_c, 0, 50, 56
1, 4713, Note_on_c, 0, 53, 70
1, 4724, Note_on_c, 0, 56, 73
1, 4734, Note_on_c, 0, 62, 76
1, 4838, Note_on_c, 0, 34, 0
1, 4848, Note_on_c, 0, 41, 0
1, 4859, Note_on_c, 0, 44, 0
1, 4869, Note_on_c, 0, 50, 0
1, 4880, Note_on_c, 0, 53, 0
1, 4883, Control_c, 0, 64, 0
1, 4890, Note_on_c, 0, 56, 0
1, 4900, Note_on_c, 0, 62, 0
1, 4987, Control_c, 0, 64, 127
1, 4994, Note_on_c, 0, 33, 53
1, 5005, Note_on_c, 0, 38, 54
1, 5015, Note_on_c, 0, 41, 57
1, 5025, Note_on_c, 0, 45, 59
1, 5036, Note_on_c, 0, 57, 70
1, 5046, Note_on_c, 0, 62, 74
1, 5057, Note_on_c, 0, 65, 77
1, 5067, Note_on_c, 0, 69, 78
1, 5163, Note_on_c, 0, 33, 0
1, 5173, Note_on_c, 0, 38, 0
1, 5184, Note_on_c, 0, 41, 0
1, 5195, Note_on_c, 0, 45, 0
1, 5205, Note_on_c, 0, 57, 0
1, 5216, Note_on_c, 0, 62, 0
1, 5227, Note_on_c, 0, 65, 0
1, 5237, Note_on_c, 0, 69, 0
1, 5303, Control_c, 0, 64, 0
1, 5748, Note_on_c, 0, 81, 84
1, 5748, Note_on_c, 0, 69, 71
1, 5748, Note_on_c, 0, 77, 71
1, 5751, Note_on_c, 0, 74, 71
1, 5751, Note_on_c, 0, 45, 53
1, 5751, Note_on_c, 0, 50, 53
1, 5754, Note_on_c, 0, 57, 63
1, 5754, Note_on_c, 0, 53, 53
1, 5759, Control_c, 0, 64, 127
1, 5929, Note_on_c, 0, 74, 0
1, 5929, Note_on_c, 0, 81, 0
1, 5929, Note_on_c, 0, 69, 0
1, 5932, Note_on_c, 0, 77, 0
1, 5932, Note_on_c, 0, 53, 0
1, 5932, Note_on_c, 0, 45, 0
1, 5935, Note_on_c, 0, 50, 0
1, 5935, Note_on_c, 0, 57, 0
1, 6080, Control_c, 0, 64, 0
1, 6471, Note_on_c, 0, 79, 71
1, 6471, Note_on_c, 0, 93, 84
1, 6471, Note_on_c, 0, 85, 71
1, 6474, Note_on_c, 0, 88, 71
1, 6474, Note_on_c, 0, 81, 71
1, 6474, Note_on_c, 0, 61, 53
1, 6477, Note_on_c, 0, 69, 63
1, 6477, Note_on_c, 0, 57, 53
1, 6477, Note_on_c, 0, 64, 53
1, 6489, Control_c, 0, 64, 127
1, 6650, Note_on_c, 0, 81, 0
1, 6650, Note_on_c, 0, 85, 0
1, 6650, Note_on_c, 0, 79, 0
1, 6653, Note_on_c, 0, 93, 0
1, 6653, Note_on_c, 0, 88, 0
1, 6653, Note_on_c, 0, 64, 0
1, 6656, Note_on_c, 0, 61, 0
1, 6656, Note_on_c, 0, 69, 0
1, 6656, Note_on_c, 0, 57, 0
1, 6917, Control_c, 0, 64, 0
1, 8003, Note_on_c, 0, 45, 39
1, 8003, Note_on_c, 0, 33, 29
1, 8086, Note_on_c, 0, 46, 42
1, 8086, Note_on_c, 0, 34, 31
1, 8128, Note_on_c, 0, 45, 0
1, 8128, Note_on_c, 0, 33, 0
1, 8170, Note_on_c, 0, 49, 43
1, 8170, Note_on_c, 0, 37, 32
1, 8215, Note_on_c, 0, 46, 0
1, 8215, Note_on_c, 0, 34, 0
1, 8259, Note_on_c, 0, 41, 34
1, 8259, Note_on_c, 0, 53, 46
1, 8303, Note_on_c, 0, 49, 0
1, 8303, Note_on_c, 0, 37, 0
1, 8329, Note_on_c, 0, 52, 45
1, 8329, Note_on_c, 0, 40, 34
1, 8362, Note_on_c, 0, 41, 0
1, 8362, Note_on_c, 0, 53, 0
1, 8397, Note_on_c, 0, 50, 44
1, 8397, Note_on_c, 0, 38, 33
1, 8431, Note_on_c, 0, 52, 0
1, 8431, Note_on_c, 0, 40, 0
1, 8464, Note_on_c, 0, 37, 32
1, 8464, Note_on_c, 0, 49, 43
1, 8500, Note_on_c, 0, 50, 0
1, 8500, Note_on_c, 0, 38, 0
1, 8532, Note_on_c, 0, 34, 30
1, 8532, Note_on_c, 0, 46, 41
1, 8566, Note_on_c, 0, 37, 0
1, 8566, Note_on_c, 0, 49, 0
1, 8603, Note_on_c, 0, 45, 43
1, 8603, Note_on_c, 0, 33, 32
1, 8640, Note_on_c, 0, 34, 0
1, 8640, Note_on_c, 0, 46, 0
1, 8668, Note_on_c, 0, 34, 32
1, 8668, Note_on_c, 0, 46, 43
1, 8703, Note_on_c, 0, 45, 0
1, 8703, Note_on_c, 0, 33, 0
1, 8734, Note_on_c, 0, 37, 32
1, 8734, Note_on_c, 0, 49, 44
1, 8768, Note_on_c, 0, 34, 0
1, 8768, Note_on_c, 0, 46, 0
1, 8801, Note_on_c, 0, 38, 34
1, 8801, Note_on_c, 0, 50, 45
1, 8833, Note_on_c, 0, 37, 0
1, 8833, Note_on_c, 0, 49, 0
1, 8867, Note_on_c, 0, 40, 35
1, 8867, Note_on_c, 0, 52, 47
1, 8901, Note_on_c, 0, 38, 0
1, 8901, Note_on_c, 0, 50, 0
1, 8936, Note_on_c, 0, 41, 36
1, 8936, Note_on_c, 0, 53, 48
1, 8973, Note_on_c, 0, 40, 0
1, 8973, Note_on_c, 0, 52, 0
1, 9011, Note_on_c, 0, 58, 50
1, 9011, Note_on_c, 0, 46, 37
1, 9043, Note_on_c, 0, 41, 0
1, 9043, Note_on_c, 0, 53, 0
1, 9078, Note_on_c, 0, 57, 49
1, 9078, Note_on_c, 0, 45, 36
1, 9111, Note_on_c, 0, 58, 0
1, 9111, Note_on_c, 0, 46, 0
1, 9144, Note_on_c, 0, 55, 48
1, 9144, Note_on_c, 0, 43, 36
1, 9178, Note_on_c, 0, 57, 0
1, 9178, Note_on_c, 0, 45, 0
1, 9211, Note_on_c, 0, 53, 47
1, 9211, Note_on_c, 0, 41, 34
1, 9244, Note_on_c, 0, 55, 0
1, 9244, Note_on_c, 0, 43, 0
1, 9278, Note_on_c, 0, 52, 45
1, 9278, Note_on_c, 0, 40, 34
1, 9311, Note_on_c, 0, 53, 0
1, 9311, Note_on_c, 0, 41, 0
1, 9344, Note_on_c, 0, 50, 44
1, 9344, Note_on_c, 0, 38, 32
1, 9378, Note_on_c, 0, 52, 0
1, 9378, Note_on_c, 0, 40, 0
1, 9413, Note_on_c, 0, 49, 45
1, 9413, Note_on_c, 0, 37, 33
1, 9448, Note_on_c, 0, 50, 0
1, 9448, Note_on_c, 0, 38, 0
1, 9466, Note_on_c, 0, 50, 44
1, 9466, Note_on_c, 0, 38, 33
1, 9492, Note_on_c, 0, 49, 0
1, 9492, Note_on_c, 0, 37, 0
1, 9516, Note_on_c, 0, 40, 33
1, 9519, Note_on_c, 0, 52, 45
1, 9545, Note_on_c, 0, 50, 0
1, 9545, Note_on_c, 0, 38, 0
1, 9572, Note_on_c, 0, 53, 46
1, 9572, Note_on_c, 0, 41, 34
1, 9595, Note_on_c, 0, 40, 0
1, 9598, Note_on_c, 0, 52, 0
1, 9621, Note_on_c, 0, 43, 35
1, 9624, Note_on_c, 0, 55, 48
1, 9650, Note_on_c, 0, 53, 0
1, 9650, Note_on_c, 0, 41, 0
1, 9675, Note_on_c, 0, 45, 35
1, 9675, Note_on_c, 0, 57, 48
1, 9699, Note_on_c, 0, 43, 0
1, 9699, Note_on_c, 0, 55, 0
1, 9727, Note_on_c, 0, 58, 49
1, 9727, Note_on_c, 0, 46, 36
1, 9752, Note_on_c, 0, 45, 0
1, 9752, Note_on_c, 0, 57, 0
1, 9778, Note_on_c, 0, 61, 49
1, 9778, Note_on_c, 0, 49, 37
1, 9804, Note_on_c, 0, 58, 0
1, 9804, Note_on_c, 0, 46, 0
1, 9829, Note_on_c, 0, 65, 51
1, 9829, Note_on_c, 0, 53, 38
1, 9851, Note_on_c, 0, 61, 0
1, 9851, Note_on_c, 0, 49, 0
1, 9897, Note_on_c, 0, 52, 37
1, 9897, Note_on_c, 0, 64, 51
1, 9933, Note_on_c, 0, 65, 0
1, 9933, Note_on_c, 0, 53, 0
1, 9966, Note_on_c, 0, 50, 37
1, 9966, Note_on_c, 0, 62, 50
1, 10000, Note_on_c, 0, 52, 0
1, 10000, Note_on_c, 0, 64, 0
1, 10036, Note_on_c, 0, 61, 50
1, 10036, Note_on_c, 0, 49, 37
1, 10069, Note_on_c, 0, 50, 0
1, 10069, Note_on_c, 0, 62, 0
1, 10105, Note_on_c, 0, 58, 50
1, 10105, Note_on_c, 0, 46, 37
1, 10140, Note_on_c, 0, 61, 0
1, 10140, Note_on_c, 0, 49, 0
1, 10174, Note_on_c, 0, 45, 38
1, 10174, Note_on_c, 0, 57, 50
1, 10214, Note_on_c, 0, 58, 0
1, 10214, Note_on_c, 0, 46, 0
1, 10241, Note_on_c, 0, 58, 51
1, 10241, Note_on_c, 0, 46, 39
1, 10273, Note_on_c, 0, 45, 0
1, 10273, Note_on_c, 0, 57, 0
1, 10307, Note_on_c, 0, 61, 52
1, 10307, Note_on_c, 0, 49, 40
1, 10341, Note_on_c, 0, 58, 0
1, 10341, Note_on_c, 0, 46, 0
1, 10371, Note_on_c, 0, 50, 41
1, 10374, Note_on_c, 0, 62, 53
1, 10407, Note_on_c, 0, 61, 0
1, 10407, Note_on_c, 0, 49, 0
1, 10440, Note_on_c, 0, 64, 54
1, 10440, Note_on_c, 0, 52, 41
1, 10471, Note_on_c, 0, 50, 0
1, 10471, Note_on_c, 0, 62, 0
1, 10508, Note_on_c, 0, 65, 56
1, 10508, Note_on_c, 0, 53, 42
1, 10542, Note_on_c, 0, 64, 0
1, 10542, Note_on_c, 0, 52, 0
1, 10574, Note_on_c, 0, 58, 43
1, 10577, Note_on_c, 0, 70, 57
1, 10610, Note_on_c, 0, 65, 0
1, 10610, Note_on_c, 0, 53, 0
1, 10643, Note_on_c, 0, 69, 57
1, 10643, Note_on_c, 0, 57, 43
1, 10674, Note_on_c, 0, 58, 0
1, 10674, Note_on_c, 0, 70, 0
1, 10709, Note_on_c, 0, 67, 56
1, 10709, Note_on_c, 0, 55, 43
1, 10743, Note_on_c, 0, 69, 0
1, 10743, Note_on_c, 0, 57, 0
1, 10773, Note_on_c, 0, 53, 42
1, 10776, Note_on_c, 0, 65, 54
1, 10809, Note_on_c, 0, 67, 0
1, 10809, Note_on_c, 0, 55, 0
1, 10842, Note_on_c, 0, 64, 53
1, 10842, Note_on_c, 0, 52, 42
1, 10873, Note_on_c, 0, 53, 0
1, 10873, Note_on_c, 0, 65, 0
1, 10909, Note_on_c, 0, 62, 52
1, 10909, Note_on_c, 0, 50, 40
1, 10942, Note_on_c, 0, 64, 0
1, 10942, Note_on_c, 0, 52, 0
1, 10977, Note_on_c, 0, 61, 53
1, 10977, Note_on_c, 0, 49, 40
1, 11015, Note_on_c, 0, 62, 0
1, 11015, Note_on_c, 0, 50, 0
1, 11033, Note_on_c, 0, 62, 54
1, 11033, Note_on_c, 0, 50, 40
1, 11061, Note_on_c, 0, 61, 0
1, 11061, Note_on_c, 0, 49, 0
1, 11087, Note_on_c, 0, 52, 41
1, 11087, Note_on_c, 0, 64, 56
1, 11116, Note_on_c, 0, 62, 0
1, 11116, Note_on_c, 0, 50, 0
1, 11144, Note_on_c, 0, 65, 56
1, 11144, Note_on_c, 0, 53, 42
1, 11169, Note_on_c, 0, 52, 0
1, 11169, Note_on_c, 0, 64, 0
1, 11196, Note_on_c, 0, 55, 43
1, 11196, Note_on_c, 0, 67, 57
1, 11226, Note_on_c, 0, 65, 0
1, 11226, Note_on_c, 0, 53, 0
1, 11252, Note_on_c, 0, 57, 43
1, 11252, Note_on_c, 0, 69, 57
1, 11279, Note_on_c, 0, 55, 0
1, 11279, Note_on_c, 0, 67, 0
1, 11309, Note_on_c, 0, 70, 59
1, 11309, Note_on_c, 0, 58, 43
1, 11335, Note_on_c, 0, 57, 0
1, 11335, Note_on_c, 0, 69, 0
1, 11365, Note_on_c, 0, 73, 60
1, 11365, Note_on_c, 0, 61, 44
1, 11395, Note_on_c, 0, 70, 0
1, 11395, Note_on_c, 0, 58, 0
1, 11424, Note_on_c, 0, 65, 45
1, 11424, Note_on_c, 0, 77, 61
1, 11447, Note_on_c, 0, 73, 0
1, 11447, Note_on_c, 0, 61, 0
1, 11491, Note_on_c, 0, 64, 45
1, 11491, Note_on_c, 0, 76, 61
1, 11525, Note_on_c, 0, 65, 0
1, 11525, Note_on_c, 0, 77, 0
1, 11559, Note_on_c, 0, 74, 60
1, 11559, Note_on_c, 0, 62, 45
1, 11591, Note_on_c, 0, 64, 0
1, 11591, Note_on_c, 0, 76, 0
1, 11626, Note_on_c, 0, 73, 59
1, 11626, Note_on_c, 0, 61, 44
1, 11660, Note_on_c, 0, 74, 0
1, 11660, Note_on_c, 0, 62, 0
1, 11693, Note_on_c, 0, 70, 58
1, 11693, Note_on_c, 0, 58, 44
1, 11726, Note_on_c, 0, 73, 0
1, 11726, Note_on_c, 0, 61, 0
1, 11760, Note_on_c, 0, 69, 58
1, 11760, Note_on_c, 0, 57, 44
1, 11800, Note_on_c, 0, 70, 0
1, 11800, Note_on_c, 0, 58, 0
1, 11826, Note_on_c, 0, 70, 58
1, 11826, Note_on_c, 0, 58, 44
1, 11859, Note_on_c, 0, 69, 0
1, 11859, Note_on_c, 0, 57, 0
1, 11891, Note_on_c, 0, 61, 46
1, 11891, Note_on_c, 0, 73, 60
1, 11926, Note_on_c, 0, 70, 0
1, 11926, Note_on_c, 0, 58, 0
1, 11959, Note_on_c, 0, 74, 61
1, 11959, Note_on_c, 0, 62, 47
1, 11991, Note_on_c, 0, 61, 0
1, 11991, Note_on_c, 0, 73, 0
1, 12025, Note_on_c, 0, 76, 62
1, 12025, Note_on_c, 0, 64, 48
1, 12059, Note_on_c, 0, 74, 0
1, 12059, Note_on_c, 0, 62, 0
1, 12092, Note_on_c, 0, 77, 63
1, 12092, Note_on_c, 0, 65, 48
1, 12125, Note_on_c, 0, 76, 0
1, 12125, Note_on_c, 0, 64, 0
1, 12157, Note_on_c, 0, 70, 48
1, 12157, Note_on_c, 0, 82, 63
1, 12191, Note_on_c, 0, 77, 0
1, 12191, Note_on_c, 0, 65, 0
1, 12224, Note_on_c, 0, 69, 47
1, 12224, Note_on_c, 0, 81, 63
1, 12256, Note_on_c, 0, 70, 0
1, 12256, Note_on_c, 0, 82, 0
1, 12291, Note_on_c, 0, 79, 62
1, 12291, Note_on_c, 0, 67, 46
1, 12323, Note_on_c, 0, 69, 0
1, 12323, Note_on_c, 0, 81, 0
1, 12357, Note_on_c, 0, 77, 61
1, 12357, Note_on_c, 0, 65, 46
1, 12391, Note_on_c, 0, 79, 0
1, 12391, Note_on_c, 0, 67, 0
1, 12424, Note_on_c, 0, 76, 60
1, 12424, Note_on_c, 0, 64, 44
1, 12457, Note_on_c, 0, 77, 0
1, 12457, Note_on_c, 0, 65, 0
1, 12489, Note_on_c, 0, 62, 43
1, 12489, Note_on_c, 0, 74, 59
1, 12523, Note_on_c, 0, 76, 0
1, 12523, Note_on_c, 0, 64, 0
1, 12561, Note_on_c, 0, 73, 58
1, 12561, Note_on_c, 0, 61, 43
1, 12599, Note_on_c, 0, 62, 0
1, 12599, Note_on_c, 0, 74, 0
1, 12621, Note_on_c, 0, 74, 58
1, 12621, Note_on_c, 0, 62, 44
1, 12650, Note_on_c, 0, 73, 0
1, 12650, Note_on_c, 0, 61, 0
1, 12677, Note_on_c, 0, 64, 45
1, 12677, Note_on_c, 0, 76, 59
1, 12707, Note_on_c, 0, 74, 0
1, 12707, Note_on_c, 0, 62, 0
1, 12734, Note_on_c, 0, 65, 46
1, 12734, Note_on_c, 0, 77, 60
1, 12763, Note_on_c, 0, 64, 0
1, 12763, Note_on_c, 0, 76, 0
1, 12792, Note_on_c, 0, 67, 47
1, 12792, Note_on_c, 0, 79, 62
1, 12820, Note_on_c, 0, 65, 0
1, 12820, Note_on_c, 0, 77, 0
1, 12848, Note_on_c, 0, 69, 48
1, 12848, Note_on_c, 0, 81, 63
1, 12878, Note_on_c, 0, 67, 0
1, 12878, Note_on_c, 0, 79, 0
1, 12907, Note_on_c, 0, 82, 64
1, 12907, Note_on_c, 0, 70, 49
1, 12933, Note_on_c, 0, 69, 0
1, 12936, Note_on_c, 0, 81, 0
1, 12964, Note_on_c, 0, 73, 51
1, 12964, Note_on_c, 0, 85, 65
1, 12995, Note_on_c, 0, 82, 0
1, 12995, Note_on_c, 0, 70, 0
1, 13025, Note_on_c, 0, 89, 66
1, 13025, Note_on_c, 0, 77, 52
1, 13045, Note_on_c, 0, 73, 0
1, 13045, Note_on_c, 0, 85, 0
1, 13092, Note_on_c, 0, 88, 66
1, 13092, Note_on_c, 0, 76, 52
1, 13125, Note_on_c, 0, 89, 0
1, 13125, Note_on_c, 0, 77, 0
1, 13158, Note_on_c, 0, 74, 50
1, 13158, Note_on_c, 0, 86, 65
1, 13192, Note_on_c, 0, 88, 0
1, 13192, Note_on_c, 0, 76, 0
1, 13224, Note_on_c, 0, 73, 51
1, 13224, Note_on_c, 0, 85, 65
1, 13257, Note_on_c, 0, 74, 0
1, 13257, Note_on_c, 0, 86, 0
1, 13291, Note_on_c, 0, 70, 49
1, 13291, Note_on_c, 0, 82, 64
1, 13324, Note_on_c, 0, 73, 0
1, 13324, Note_on_c, 0, 85, 0
1, 13358, Note_on_c, 0, 81, 65
1, 13358, Note_on_c, 0, 69, 48
1, 13390, Note_on_c, 0, 70, 0
1, 13390, Note_on_c, 0, 82, 0
1, 13424, Note_on_c, 0, 82, 68
1, 13424, Note_on_c, 0, 70, 50
1, 13458, Note_on_c, 0, 81, 0
1, 13458, Note_on_c, 0, 69, 0
1, 13490, Note_on_c, 0, 73, 51
1, 13490, Note_on_c, 0, 85, 70
1, 13524, Note_on_c, 0, 82, 0
1, 13524, Note_on_c, 0, 70, 0
1, 13557, Note_on_c, 0, 86, 71
1, 13557, Note_on_c, 0, 74, 53
1, 13590, Note_on_c, 0, 73, 0
1, 13590, Note_on_c, 0, 85, 0
1, 13622, Note_on_c, 0, 76, 54
1, 13622, Note_on_c, 0, 88, 72
1, 13657, Note_on_c, 0, 86, 0
1, 13657, Note_on_c, 0, 74, 0
1, 13690, Note_on_c, 0, 89, 74
1, 13690, Note_on_c, 0, 77, 55
1, 13722, Note_on_c, 0, 76, 0
1, 13722, Note_on_c, 0, 88, 0
1, 13755, Note_on_c, 0, 79, 56
1, 13755, Note_on_c, 0, 91, 76
1, 13790, Note_on_c, 0, 89, 0
1, 13790, Note_on_c, 0, 77, 0
1, 13823, Note_on_c, 0, 93, 78
1, 13823, Note_on_c, 0, 81, 58
1, 13855, Note_on_c, 0, 79, 0
1, 13855, Note_on_c, 0, 91, 0
1, 13890, Note_on_c, 0, 94, 80
1, 13890, Note_on_c, 0, 82, 59
1, 13923, Note_on_c, 0, 93, 0
1, 13923, Note_on_c, 0, 81, 0
1, 13955, Note_on_c, 0, 85, 60
1, 13955, Note_on_c, 0, 97, 81
1, 13990, Note_on_c, 0, 94, 0
1, 13990, Note_on_c, 0, 82, 0
1, 14031, Note_on_c, 0, 89, 63
1, 14034, Note_on_c, 0, 101, 85
1, 14034, Control_c, 0, 64, 127
1, 14082, Note_on_c, 0, 85, 0
1, 14082, Note_on_c, 0, 97, 0
1, 14094, Note_on_c, 0, 88, 63
1, 14094, Note_on_c, 0, 89, 0
1, 14097, Note_on_c, 0, 101, 0
1, 14097, Note_on_c, 0, 100, 85
1, 14156, Note_on_c, 0, 88, 0
1, 14159, Note_on_c, 0, 100, 0
1, 14159, Note_on_c, 0, 98, 84
1, 14159, Note_on_c, 0, 86, 63
1, 14217, Note_on_c, 0, 85, 63
1, 14222, Note_on_c, 0, 98, 0
1, 14222, Note_on_c, 0, 97, 84
1, 14222, Note_on_c, 0, 86, 0
1, 14280, Note_on_c, 0, 85, 0
1, 14283, Note_on_c, 0, 82, 62
1, 14283, Note_on_c, 0, 97, 0
1, 14283, Note_on_c, 0, 94, 83
1, 14344, Note_on_c, 0, 81, 62
1, 14348, Note_on_c, 0, 82, 0
1, 14348, Note_on_c, 0, 94, 0
1, 14348, Note_on_c, 0, 93, 83
1, 14412, Note_on_c, 0, 81, 0
1, 14418, Note_on_c, 0, 93, 0
1, 14418, Note_on_c, 0, 91, 83
1, 14418, Note_on_c, 0, 79, 62
1, 14485, Note_on_c, 0, 91, 0
1, 14485, Note_on_c, 0, 89, 82
1, 14485, Note_on_c, 0, 79, 0
1, 14488, Note_on_c, 0, 77, 61
1, 14546, Note_on_c, 0, 76, 61
1, 14552, Note_on_c, 0, 89, 0
1, 14552, Note_on_c, 0, 88, 82
1, 14552, Note_on_c, 0, 77, 0
1, 14612, Note_on_c, 0, 76, 0
1, 14617, Note_on_c, 0, 88, 0
1, 14617, Note_on_c, 0, 86, 81
1, 14623, Note_on_c, 0, 74, 60
1, 14681, Note_on_c, 0, 73, 60
1, 14681, Note_on_c, 0, 86, 0
1, 14681, Note_on_c, 0, 85, 81
1, 14687, Note_on_c, 0, 74, 0
1, 14741, Note_on_c, 0, 70, 60
1, 14745, Note_on_c, 0, 73, 0
1, 14745, Note_on_c, 0, 85, 0
1, 14745, Note_on_c, 0, 82, 80
1, 14804, Note_on_c, 0, 70, 0
1, 14808, Note_on_c, 0, 82, 0
1, 14808, Note_on_c, 0, 81, 80
1, 14813, Note_on_c, 0, 69, 60
1, 14870, Note_on_c, 0, 81, 0
1, 14870, Note_on_c, 0, 79, 80
1, 14874, Note_on_c, 0, 67, 60
1, 14874, Note_on_c, 0, 69, 0
1, 14931, Note_on_c, 0, 79, 0
1, 14931, Note_on_c, 0, 77, 79
1, 14936, Note_on_c, 0, 67, 0
1, 14936, Note_on_c, 0, 65, 59
1, 14991, Note_on_c, 0, 64, 59
1, 14991, Note_on_c, 0, 77, 0
1, 14991, Note_on_c, 0, 76, 79
1, 14996, Note_on_c, 0, 65, 0
1, 15050, Note_on_c, 0, 64, 0
1, 15050, Note_on_c, 0, 76, 0
1, 15050, Note_on_c, 0, 74, 79
1, 15053, Note_on_c, 0, 62, 59
1, 15110, Note_on_c, 0, 74, 0
1, 15110, Note_on_c, 0, 73, 79
1, 15110, Note_on_c, 0, 62, 0
1, 15113, Note_on_c, 0, 61, 59
1, 15169, Note_on_c, 0, 73, 0
1, 15169, Note_on_c, 0, 70, 78
1, 15169, Note_on_c, 0, 58, 58
1, 15172, Note_on_c, 0, 61, 0
1, 15228, Note_on_c, 0, 70, 0
1, 15228, Note_on_c, 0, 69, 78
1, 15228, Note_on_c, 0, 58, 0
1, 15231, Note_on_c, 0, 57, 58
1, 15281, Note_on_c, 0, 55, 58
1, 15286, Note_on_c, 0, 69, 0
1, 15286, Note_on_c, 0, 67, 78
1, 15289, Note_on_c, 0, 57, 0
1, 15340, Note_on_c, 0, 55, 0
1, 15345, Note_on_c, 0, 67, 0
1, 15345, Note_on_c, 0, 65, 77
1, 15345, Note_on_c, 0, 53, 58
1, 15403, Note_on_c, 0, 65, 0
1, 15403, Note_on_c, 0, 64, 77
1, 15406, Note_on_c, 0, 53, 0
1, 15406, Note_on_c, 0, 52, 58
1, 15458, Note_on_c, 0, 50, 57
1, 15458, Note_on_c, 0, 64, 0
1, 15458, Note_on_c, 0, 62, 77
1, 15464, Note_on_c, 0, 52, 0
1, 15515, Note_on_c, 0, 50, 0
1, 15515, Note_on_c, 0, 49, 58
1, 15518, Note_on_c, 0, 62, 0
1, 15518, Note_on_c, 0, 61, 78
1, 15528, Control_c, 0, 64, 0
1, 15559, Control_c, 0, 64, 127
1, 15573, Note_on_c, 0, 49, 0
1, 15573, Note_on_c, 0, 46, 58
1, 15576, Note_on_c, 0, 61, 0
1, 15576, Note_on_c, 0, 58, 78
1, 15631, Note_on_c, 0, 45, 58
1, 15631, Note_on_c, 0, 46, 0
1, 15631, Note_on_c, 0, 58, 0
1, 15631, Note_on_c, 0, 57, 79
1, 15688, Note_on_c, 0, 45, 0
1, 15688, Note_on_c, 0, 43, 59
1, 15688, Note_on_c, 0, 57, 0
1, 15688, Note_on_c, 0, 55, 80
1, 15745, Note_on_c, 0, 43, 0
1, 15745, Note_on_c, 0, 55, 0
1, 15745, Note_on_c, 0, 53, 81
1, 15749, Note_on_c, 0, 41, 60
1, 15801, Note_on_c, 0, 40, 61
1, 15804, Note_on_c, 0, 53, 0
1, 15804, Note_on_c, 0, 52, 82
1, 15804, Note_on_c, 0, 41, 0
1, 15856, Note_on_c, 0, 38, 61
1, 15856, Note_on_c, 0, 40, 0
1, 15861, Note_on_c, 0, 52, 0
1, 15861, Note_on_c, 0, 50, 82
1, 15913, Note_on_c, 0, 38, 0
1, 15917, Note_on_c, 0, 50, 0
1, 15917, Note_on_c, 0, 49, 82
1, 15917, Note_on_c, 0, 37, 62
1, 15970, Note_on_c, 0, 34, 63
1, 15974, Note_on_c, 0, 49, 0
1, 15974, Note_on_c, 0, 46, 80
1, 15974, Note_on_c, 0, 37, 0
1, 16015, Note_on_c, 0, 34, 0
1, 16019, Note_on_c, 0, 46, 0
1, 16019, Note_on_c, 0, 45, 80
1, 16019, Note_on_c, 0, 33, 63
1, 16063, Note_on_c, 0, 45, 0
1, 16063, Note_on_c, 0, 43, 82
1, 16108, Note_on_c, 0, 43, 0
1, 16108, Note_on_c, 0, 41, 83
1, 16153, Note_on_c, 0, 41, 0
1, 16153, Note_on_c, 0, 40, 84
1, 16197, Note_on_c, 0, 40, 0
1, 16197, Note_on_c, 0, 86, 97
1, 16197, Note_on_c, 0, 77, 76
1, 16200, Note_on_c, 0, 74, 76
1, 16200, Note_on_c, 0, 33, 0
1, 16200, Note_on_c, 0, 50, 74
1, 16203, Note_on_c, 0, 45, 59
1, 16203, Note_on_c, 0, 38, 59
1, 16203, Control_c, 0, 64, 0
1, 16246, Control_c, 0, 64, 127
1, 16411, Note_on_c, 0, 52, 48
1, 16411, Note_on_c, 0, 56, 60
1, 16499, Note_on_c, 0, 56, 0
1, 16499, Note_on_c, 0, 52, 0
1, 16499, Note_on_c, 0, 57, 63
1, 16502, Note_on_c, 0, 53, 50
1, 16587, Note_on_c, 0, 53, 0
1, 16587, Note_on_c, 0, 57, 0
1, 16587, Note_on_c, 0, 64, 65
1, 16590, Note_on_c, 0, 61, 51
1, 16675, Note_on_c, 0, 61, 0
1, 16675, Note_on_c, 0, 64, 0
1, 16675, Note_on_c, 0, 62, 54
1, 16678, Note_on_c, 0, 65, 67
1, 16762, Note_on_c, 0, 65, 0
1, 16762, Note_on_c, 0, 62, 0
1, 16762, Note_on_c, 0, 64, 55
1, 16765, Note_on_c, 0, 68, 69
1, 16849, Note_on_c, 0, 68, 0
1, 16849, Note_on_c, 0, 64, 0
1, 16849, Note_on_c, 0, 65, 56
1, 16852, Note_on_c, 0, 69, 71
1, 16935, Note_on_c, 0, 69, 0
1, 16935, Note_on_c, 0, 86, 0
1, 16935, Note_on_c, 0, 74, 0
1, 16938, Note_on_c, 0, 77, 0
1, 16938, Note_on_c, 0, 65, 0
1, 16938, Note_on_c, 0, 77, 79
1, 16941, Note_on_c, 0, 74, 75
1, 16941, Note_on_c, 0, 86, 101
1, 16941, Note_on_c, 0, 38, 0
1, 16944, Note_on_c, 0, 45, 0
1, 16944, Note_on_c, 0, 50, 0
1, 16944, Note_on_c, 0, 45, 62
1, 16947, Note_on_c, 0, 50, 78
1, 16947, Note_on_c, 0, 38, 62
1, 16947, Control_c, 0, 64, 0
1, 17022, Control_c, 0, 64, 127
1, 17115, Note_on_c, 0, 52, 48
1, 17115, Note_on_c, 0, 56, 60
1, 17204, Note_on_c, 0, 56, 0
1, 17204, Note_on_c, 0, 52, 0
1, 17204, Note_on_c, 0, 53, 50
1, 17207, Note_on_c, 0, 57, 63
1, 17292, Note_on_c, 0, 57, 0
1, 17292, Note_on_c, 0, 77, 0
1, 17292, Note_on_c, 0, 86, 0
1, 17295, Note_on_c, 0, 74, 0
1, 17295, Note_on_c, 0, 53, 0
1, 17295, Note_on_c, 0, 61, 51
1, 17298, Note_on_c, 0, 64, 65
1, 17298, Note_on_c, 0, 38, 0
1, 17298, Note_on_c, 0, 50, 0
1, 17301, Note_on_c, 0, 45, 0
1, 17380, Note_on_c, 0, 64, 0
1, 17380, Note_on_c, 0, 61, 0
1, 17380, Note_on_c, 0, 62, 54
1, 17383, Note_on_c, 0, 65, 67
1, 17467, Note_on_c, 0, 65, 0
1, 17467, Note_on_c, 0, 62, 0
1, 17467, Note_on_c, 0, 64, 69
1, 17470, Note_on_c, 0, 68, 69
1, 17574, Note_on_c, 0, 68, 0
1, 17574, Note_on_c, 0, 64, 0
1, 17574, Note_on_c, 0, 65, 56
1, 17577, Note_on_c, 0, 69, 71
1, 17627, Note_on_c, 0, 84, 89
1, 17627, Note_on_c, 0, 72, 70
1, 17681, Note_on_c, 0, 72, 0
1, 17681, Note_on_c, 0, 65, 0
1, 17681, Note_on_c, 0, 69, 0
1, 17684, Note_on_c, 0, 84, 0
1, 17684, Note_on_c, 0, 70, 75
1, 17684, Note_on_c, 0, 76, 77
1, 17687, Note_on_c, 0, 82, 100
1, 17687, Note_on_c, 0, 50, 79
1, 17687, Note_on_c, 0, 38, 63
1, 17690, Note_on_c, 0, 43, 63
1, 17690, Control_c, 0, 64, 0
1, 17797, Control_c, 0, 64, 127
1, 17861, Note_on_c, 0, 54, 48
1, 17861, Note_on_c, 0, 57, 60
1, 17949, Note_on_c, 0, 57, 0
1, 17949, Note_on_c, 0, 54, 0
1, 17949, Note_on_c, 0, 58, 63
1, 17952, Note_on_c, 0, 55, 50
1, 18037, Note_on_c, 0, 55, 0
1, 18037, Note_on_c, 0, 58, 0
1, 18037, Note_on_c, 0, 63, 51
1, 18040, Note_on_c, 0, 66, 65
1, 18124, Note_on_c, 0, 66, 0
1, 18124, Note_on_c, 0, 63, 0
1, 18124, Note_on_c, 0, 64, 54
1, 18127, Note_on_c, 0, 67, 67
1, 18212, Note_on_c, 0, 67, 0
1, 18212, Note_on_c, 0, 64, 0
1, 18212, Note_on_c, 0, 69, 69
1, 18215, Note_on_c, 0, 66, 55
1, 18298, Note_on_c, 0, 66, 0
1, 18298, Note_on_c, 0, 69, 0
1, 18298, Note_on_c, 0, 70, 71
1, 18301, Note_on_c, 0, 67, 56
1, 18385, Note_on_c, 0, 67, 0
1, 18385, Note_on_c, 0, 70, 0
1, 18385, Note_on_c, 0, 82, 0
1, 18388, Note_on_c, 0, 76, 0
1, 18388, Note_on_c, 0, 70, 0
1, 18388, Note_on_c, 0, 76, 72
1, 18391, Note_on_c, 0, 82, 92
1, 18391, Note_on_c, 0, 70, 72
1, 18391, Note_on_c, 0, 43, 0
1, 18394, Note_on_c, 0, 38, 0
1, 18394, Note_on_c, 0, 50, 0
1, 18394, Note_on_c, 0, 38, 59
1, 18397, Note_on_c, 0, 50, 75
1, 18397, Note_on_c, 0, 43, 59
1, 18424, Control_c, 0, 64, 0
1, 18527, Control_c, 0, 64, 127
1, 18564, Note_on_c, 0, 57, 60
1, 18564, Note_on_c, 0, 54, 48
1, 18654, Note_on_c, 0, 54, 0
1, 18654, Note_on_c, 0, 57, 0
1, 18654, Note_on_c, 0, 58, 63
1, 18657, Note_on_c, 0, 55, 50
1, 18742, Note_on_c, 0, 55, 0
1, 18742, Note_on_c, 0, 76, 0
1, 18742, Note_on_c, 0, 70, 0
1, 18745, Note_on_c, 0, 82, 0
1, 18745, Note_on_c, 0, 58, 0
1, 18745, Note_on_c, 0, 63, 51
1, 18748, Note_on_c, 0, 66, 65
1, 18748, Note_on_c, 0, 43, 0
1, 18748, Note_on_c, 0, 50, 0
1, 18751, Note_on_c, 0, 38, 0
1, 18829, Note_on_c, 0, 66, 0
1, 18829, Note_on_c, 0, 63, 0
1, 18829, Note_on_c, 0, 67, 67
1, 18832, Note_on_c, 0, 64, 54
1, 18916, Note_on_c, 0, 64, 0
1, 18916, Note_on_c, 0, 67, 0
1, 18916, Note_on_c, 0, 69, 69
1, 18919, Note_on_c, 0, 66, 69
1, 19010, Note_on_c, 0, 66, 0
1, 19010, Note_on_c, 0, 69, 0
1, 19010, Note_on_c, 0, 70, 71
1, 19013, Note_on_c, 0, 67, 56
1, 19063, Note_on_c, 0, 67, 0
1, 19063, Note_on_c, 0, 70, 0
1, 19063, Note_on_c, 0, 70, 70
1, 19066, Note_on_c, 0, 82, 89
1, 19115, Note_on_c, 0, 82, 0
1, 19115, Note_on_c, 0, 70, 0
1, 19115, Note_on_c, 0, 81, 95
1, 19118, Note_on_c, 0, 76, 75
1, 19118, Note_on_c, 0, 69, 75
1, 19118, Note_on_c, 0, 37, 59
1, 19121, Note_on_c, 0, 49, 75
1, 19121, Control_c, 0, 64, 0
1, 19193, Control_c, 0, 64, 127
1, 19295, Note_on_c, 0, 51, 48
1, 19295, Note_on_c, 0, 54, 60
1, 19384, Note_on_c, 0, 54, 0
1, 19384, Note_on_c, 0, 51, 0
1, 19384, Note_on_c, 0, 52, 50
1, 19387, Note_on_c, 0, 55, 63
1, 19472, Note_on_c, 0, 55, 0
1, 19472, Note_on_c, 0, 81, 0
1, 19472, Note_on_c, 0, 69, 0
1, 19475, Note_on_c, 0, 76, 0
1, 19475, Note_on_c, 0, 52, 0
1, 19475, Note_on_c, 0, 60, 51
1, 19478, Note_on_c, 0, 63, 65
1, 19478, Note_on_c, 0, 49, 0
1, 19478, Note_on_c, 0, 37, 0
1, 19560, Note_on_c, 0, 63, 0
1, 19560, Note_on_c, 0, 60, 0
1, 19560, Note_on_c, 0, 61, 54
1, 19563, Note_on_c, 0, 64, 67
1, 19647, Note_on_c, 0, 64, 0
1, 19647, Note_on_c, 0, 61, 0
1, 19647, Note_on_c, 0, 66, 69
1, 19650, Note_on_c, 0, 63, 69
1, 19740, Note_on_c, 0, 63, 0
1, 19740, Note_on_c, 0, 66, 0
1, 19740, Note_on_c, 0, 64, 56
1, 19743, Note_on_c, 0, 67, 71
1, 19791, Note_on_c, 0, 69, 70
1, 19791, Note_on_c, 0, 81, 89
1, 19843, Note_on_c, 0, 81, 0
1, 19843, Note_on_c, 0, 64, 0
1, 19843, Note_on_c, 0, 67, 0
1, 19846, Note_on_c, 0, 69, 0
1, 19846, Note_on_c, 0, 79, 75
1, 19846, Note_on_c, 0, 88, 95
1, 19849, Note_on_c, 0, 76, 75
1, 19849, Note_on_c, 0, 33, 59
1, 19849, Note_on_c, 0, 45, 75
1, 19857, Control_c, 0, 64, 0
1, 19913, Control_c, 0, 64, 127
1, 20022, Note_on_c, 0, 51, 48
1, 20022, Note_on_c, 0, 54, 60
1, 20111, Note_on_c, 0, 54, 0
1, 20111, Note_on_c, 0, 51, 0
1, 20111, Note_on_c, 0, 52, 50
1, 20114, Note_on_c, 0, 55, 63
1, 20200, Note_on_c, 0, 55, 0
1, 20200, Note_on_c, 0, 79, 0
1, 20200, Note_on_c, 0, 76, 0
1, 20203, Note_on_c, 0, 88, 0
1, 20203, Note_on_c, 0, 52, 0
1, 20203, Note_on_c, 0, 60, 51
1, 20206, Note_on_c, 0, 63, 65
1, 20206, Note_on_c, 0, 45, 0
1, 20206, Note_on_c, 0, 33, 0
1, 20287, Note_on_c, 0, 63, 0
1, 20287, Note_on_c, 0, 60, 0
1, 20287, Note_on_c, 0, 64, 67
1, 20290, Note_on_c, 0, 61, 54
1, 20374, Note_on_c, 0, 61, 0
1, 20374, Note_on_c, 0, 64, 0
1, 20374, Note_on_c, 0, 66, 69
1, 20377, Note_on_c, 0, 63, 69
1, 20467, Note_on_c, 0, 63, 0
1, 20467, Note_on_c, 0, 66, 0
1, 20467, Note_on_c, 0, 67, 71
1, 20470, Note_on_c, 0, 64, 56
1, 20513, Note_on_c, 0, 64, 0
1, 20513, Note_on_c, 0, 67, 0
1, 20513, Note_on_c, 0, 79, 80
1, 20516, Note_on_c, 0, 67, 62
1, 20560, Note_on_c, 0, 67, 0
1, 20560, Note_on_c, 0, 79, 0
1, 20560, Note_on_c, 0, 65, 67
1, 20563, Note_on_c, 0, 69, 67
1, 20563, Note_on_c, 0, 77, 85
1, 20563, Note_on_c, 0, 50, 75
1, 20566, Note_on_c, 0, 38, 59
1, 20566, Control_c, 0, 64, 0
1, 20665, Control_c, 0, 64, 127
1, 20739, Note_on_c, 0, 56, 56
1, 20739, Note_on_c, 0, 52, 43
1, 20829, Note_on_c, 0, 52, 0
1, 20829, Note_on_c, 0, 56, 0
1, 20829, Note_on_c, 0, 53, 46
1, 20832, Note_on_c, 0, 57, 57
1, 20917, Note_on_c, 0, 57, 0
1, 20917, Note_on_c, 0, 65, 0
1, 20917, Note_on_c, 0, 77, 0
1, 20920, Note_on_c, 0, 69, 0
1, 20920, Note_on_c, 0, 53, 0
1, 20920, Note_on_c, 0, 64, 59
1, 20923, Note_on_c, 0, 61, 46
1, 20923, Note_on_c, 0, 38, 0
1, 20923, Note_on_c, 0, 50, 0
1, 21004, Note_on_c, 0, 61, 0
1, 21004, Note_on_c, 0, 64, 0
1, 21004, Note_on_c, 0, 62, 48
1, 21007, Note_on_c, 0, 65, 60
1, 21091, Note_on_c, 0, 65, 0
1, 21091, Note_on_c, 0, 62, 0
1, 21091, Note_on_c, 0, 68, 62
1, 21094, Note_on_c, 0, 64, 62
1, 21183, Note_on_c, 0, 64, 0
1, 21183, Note_on_c, 0, 68, 0
1, 21183, Note_on_c, 0, 69, 63
1, 21186, Note_on_c, 0, 65, 49
1, 21229, Note_on_c, 0, 65, 0
1, 21229, Note_on_c, 0, 69, 0
1, 21229, Note_on_c, 0, 69, 64
1, 21232, Note_on_c, 0, 81, 82
1, 21275, Note_on_c, 0, 81, 0
1, 21275, Note_on_c, 0, 69, 0
1, 21275, Note_on_c, 0, 62, 70
1, 21278, Note_on_c, 0, 74, 88
1, 21278, Note_on_c, 0, 65, 70
1, 21278, Note_on_c, 0, 38, 55
1, 21281, Note_on_c, 0, 45, 55
1, 21281, Note_on_c, 0, 50, 70
1, 21284, Control_c, 0, 64, 0
1, 21410, Control_c, 0, 64, 127
1, 21454, Note_on_c, 0, 56, 55
1, 21454, Note_on_c, 0, 52, 43
1, 21544, Note_on_c, 0, 52, 0
1, 21544, Note_on_c, 0, 56, 0
1, 21544, Note_on_c, 0, 57, 56
1, 21547, Note_on_c, 0, 53, 44
1, 21632, Note_on_c, 0, 53, 0
1, 21632, Note_on_c, 0, 62, 0
1, 21632, Note_on_c, 0, 65, 0
1, 21635, Note_on_c, 0, 74, 0
1, 21635, Note_on_c, 0, 57, 0
1, 21635, Note_on_c, 0, 61, 46
1, 21638, Note_on_c, 0, 64, 57
1, 21638, Note_on_c, 0, 50, 0
1, 21638, Note_on_c, 0, 45, 0
1, 21641, Note_on_c, 0, 38, 0
1, 21719, Note_on_c, 0, 64, 0
1, 21719, Note_on_c, 0, 61, 0
1, 21719, Note_on_c, 0, 65, 58
1, 21722, Note_on_c, 0, 62, 47
1, 21806, Note_on_c, 0, 62, 0
1, 21806, Note_on_c, 0, 65, 0
1, 21806, Note_on_c, 0, 68, 59
1, 21809, Note_on_c, 0, 64, 59
1, 21895, Note_on_c, 0, 64, 0
1, 21895, Note_on_c, 0, 68, 0
1, 21895, Note_on_c, 0, 69, 60
1, 21898, Note_on_c, 0, 65, 48
1, 22003, Note_on_c, 0, 65, 0
1, 22003, Note_on_c, 0, 69, 0
1, 22003, Note_on_c, 0, 72, 65
1, 22006, Note_on_c, 0, 76, 65
1, 22006, Note_on_c, 0, 84, 83
1, 22006, Note_on_c, 0, 48, 66
1, 22009, Note_on_c, 0, 36, 52
1, 22009, Control_c, 0, 64, 0
1, 22072, Control_c, 0, 64, 127
1, 22183, Note_on_c, 0, 59, 51
1, 22183, Note_on_c, 0, 54, 40
1, 22271, Note_on_c, 0, 54, 0
1, 22271, Note_on_c, 0, 59, 0
1, 22271, Note_on_c, 0, 55, 42
1, 22274, Note_on_c, 0, 60, 52
1, 22359, Note_on_c, 0, 60, 0
1, 22359, Note_on_c, 0, 55, 0
1, 22359, Note_on_c, 0, 63, 55
1, 22362, Note_on_c, 0, 59, 43
1, 22447, Note_on_c, 0, 59, 0
1, 22447, Note_on_c, 0, 63, 0
1, 22447, Note_on_c, 0, 64, 57
1, 22450, Note_on_c, 0, 60, 44
1, 22534, Note_on_c, 0, 60, 0
1, 22534, Note_on_c, 0, 72, 0
1, 22534, Note_on_c, 0, 84, 0
1, 22537, Note_on_c, 0, 76, 0
1, 22537, Note_on_c, 0, 64, 0
1, 22537, Note_on_c, 0, 66, 46
1, 22540, Note_on_c, 0, 71, 58
1, 22621, Note_on_c, 0, 71, 0
1, 22621, Note_on_c, 0, 66, 0
1, 22621, Note_on_c, 0, 67, 47
1, 22624, Note_on_c, 0, 72, 59
1, 22707, Note_on_c, 0, 72, 0
1, 22707, Note_on_c, 0, 67, 0
1, 22707, Note_on_c, 0, 76, 58
1, 22710, Note_on_c, 0, 72, 58
1, 22710, Note_on_c, 0, 84, 73
1, 22710, Note_on_c, 0, 36, 0
1, 22713, Note_on_c, 0, 48, 0
1, 22713, Note_on_c, 0, 36, 50
1, 22713, Note_on_c, 0, 48, 64
1, 22744, Control_c, 0, 64, 0
1, 22776, Control_c, 0, 64, 127
1, 22887, Note_on_c, 0, 54, 40
1, 22887, Note_on_c, 0, 59, 51
1, 22976, Note_on_c, 0, 59, 0
1, 22976, Note_on_c, 0, 54, 0
1, 22976, Note_on_c, 0, 60, 52
1, 22979, Note_on_c, 0, 55, 42
1, 23064, Note_on_c, 0, 55, 0
1, 23064, Note_on_c, 0, 76, 0
1, 23064, Note_on_c, 0, 84, 0
1, 23067, Note_on_c, 0, 72, 0
1, 23067, Note_on_c, 0, 60, 0
1, 23067, Note_on_c, 0, 59, 43
1, 23070, Note_on_c, 0, 63, 55
1, 23070, Note_on_c, 0, 48, 0
1, 23070, Note_on_c, 0, 36, 0
1, 23152, Note_on_c, 0, 63, 0
1, 23152, Note_on_c, 0, 59, 0
1, 23152, Note_on_c, 0, 60, 44
1, 23155, Note_on_c, 0, 64, 57
1, 23238, Note_on_c, 0, 64, 0
1, 23238, Note_on_c, 0, 60, 0
1, 23238, Note_on_c, 0, 66, 58
1, 23241, Note_on_c, 0, 63, 58
1, 23338, Note_on_c, 0, 63, 0
1, 23338, Note_on_c, 0, 66, 0
1, 23338, Note_on_c, 0, 64, 47
1, 23341, Note_on_c, 0, 67, 59
1, 23388, Note_on_c, 0, 70, 54
1, 23388, Note_on_c, 0, 82, 69
1, 23437, Note_on_c, 0, 82, 0
1, 23437, Note_on_c, 0, 64, 0
1, 23437, Note_on_c, 0, 67, 0
1, 23440, Note_on_c, 0, 70, 0
1, 23440, Note_on_c, 0, 77, 58
1, 23440, Note_on_c, 0, 81, 73
1, 23443, Note_on_c, 0, 69, 58
1, 23443, Note_on_c, 0, 41, 50
1, 23443, Note_on_c, 0, 53, 64
1, 23446, Control_c, 0, 64, 0
1, 23545, Control_c, 0, 64, 127
1, 23617, Note_on_c, 0, 56, 40
1, 23617, Note_on_c, 0, 59, 51
1, 23706, Note_on_c, 0, 59, 0
1, 23706, Note_on_c, 0, 56, 0
1, 23706, Note_on_c, 0, 60, 52
1, 23709, Note_on_c, 0, 57, 42
1, 23794, Note_on_c, 0, 57, 0
1, 23794, Note_on_c, 0, 77, 0
1, 23794, Note_on_c, 0, 69, 0
1, 23797, Note_on_c, 0, 81, 0
1, 23797, Note_on_c, 0, 60, 0
1, 23797, Note_on_c, 0, 59, 43
1, 23800, Note_on_c, 0, 64, 55
1, 23800, Note_on_c, 0, 53, 0
1, 23800, Note_on_c, 0, 41, 0
1, 23882, Note_on_c, 0, 64, 0
1, 23882, Note_on_c, 0, 59, 0
1, 23882, Note_on_c, 0, 60, 44
1, 23885, Note_on_c, 0, 65, 57
1, 23969, Note_on_c, 0, 65, 0
1, 23969, Note_on_c, 0, 60, 0
1, 23969, Note_on_c, 0, 71, 58
1, 23972, Note_on_c, 0, 68, 58
1, 24060, Note_on_c, 0, 68, 0
1, 24060, Note_on_c, 0, 71, 0
1, 24060, Note_on_c, 0, 69, 47
1, 24063, Note_on_c, 0, 72, 59
1, 24109, Note_on_c, 0, 72, 54
1, 24109, Note_on_c, 0, 84, 69
1, 24158, Note_on_c, 0, 84, 0
1, 24158, Note_on_c, 0, 69, 0
1, 24158, Note_on_c, 0, 72, 0
1, 24161, Note_on_c, 0, 72, 0
1, 24161, Note_on_c, 0, 77, 73
1, 24161, Note_on_c, 0, 69, 58
1, 24164, Note_on_c, 0, 65, 58
1, 24164, Note_on_c, 0, 41, 50
1, 24164, Note_on_c, 0, 53, 64
1, 24192, Control_c, 0, 64, 0
1, 24255, Control_c, 0, 64, 127
1, 24337, Note_on_c, 0, 59, 51
1, 24337, Note_on_c, 0, 56, 40
1, 24427, Note_on_c, 0, 56, 0
1, 24427, Note_on_c, 0, 59, 0
1, 24427, Note_on_c, 0, 60, 52
1, 24430, Note_on_c, 0, 57, 42
1, 24515, Note_on_c, 0, 57, 0
1, 24515, Note_on_c, 0, 77, 0
1, 24515, Note_on_c, 0, 65, 0
1, 24518, Note_on_c, 0, 69, 0
1, 24518, Note_on_c, 0, 60, 0
1, 24518, Note_on_c, 0, 64, 55
1, 24521, Note_on_c, 0, 59, 43
1, 24521, Note_on_c, 0, 53, 0
1, 24521, Note_on_c, 0, 41, 0
1, 24602, Note_on_c, 0, 59, 0
1, 24602, Note_on_c, 0, 64, 0
1, 24602, Note_on_c, 0, 60, 44
1, 24605, Note_on_c, 0, 65, 57
1, 24689, Note_on_c, 0, 65, 0
1, 24689, Note_on_c, 0, 60, 0
1, 24689, Note_on_c, 0, 68, 58
1, 24692, Note_on_c, 0, 64, 58
1, 24789, Note_on_c, 0, 64, 0
1, 24789, Note_on_c, 0, 68, 0
1, 24789, Note_on_c, 0, 69, 59
1, 24792, Note_on_c, 0, 65, 47
1, 24889, Note_on_c, 0, 65, 0
1, 24889, Note_on_c, 0, 69, 0
1, 24889, Note_on_c, 0, 76, 65
1, 24892, Note_on_c, 0, 88, 90
1, 24892, Note_on_c, 0, 80, 69
1, 24892, Note_on_c, 0, 52, 66
1, 24895, Note_on_c, 0, 40, 52
1, 24895, Control_c, 0, 64, 0
1, 24977, Control_c, 0, 64, 127
1, 25069, Note_on_c, 0, 58, 48
1, 25069, Note_on_c, 0, 55, 37
1, 25157, Note_on_c, 0, 55, 0
1, 25157, Note_on_c, 0, 58, 0
1, 25157, Note_on_c, 0, 59, 50
1, 25160, Note_on_c, 0, 56, 40
1, 25245, Note_on_c, 0, 56, 0
1, 25245, Note_on_c, 0, 59, 0
1, 25245, Note_on_c, 0, 63, 41
1, 25248, Note_on_c, 0, 67, 52
1, 25333, Note_on_c, 0, 67, 0
1, 25333, Note_on_c, 0, 63, 0
1, 25333, Note_on_c, 0, 68, 55
1, 25336, Note_on_c, 0, 64, 43
1, 25420, Note_on_c, 0, 64, 0
1, 25420, Note_on_c, 0, 68, 0
1, 25420, Note_on_c, 0, 67, 43
1, 25423, Note_on_c, 0, 70, 56
1, 25507, Note_on_c, 0, 70, 0
1, 25507, Note_on_c, 0, 67, 0
1, 25507, Note_on_c, 0, 71, 58
1, 25510, Note_on_c, 0, 68, 46
1, 25593, Note_on_c, 0, 68, 0
1, 25593, Note_on_c, 0, 76, 0
1, 25593, Note_on_c, 0, 80, 0
1, 25596, Note_on_c, 0, 88, 0
1, 25596, Note_on_c, 0, 71, 0
1, 25596, Note_on_c, 0, 83, 65
1, 25599, Note_on_c, 0, 76, 65
1, 25599, Note_on_c, 0, 88, 82
1, 25599, Note_on_c, 0, 40, 0
1, 25602, Note_on_c, 0, 52, 0
1, 25602, Note_on_c, 0, 44, 51
1, 25602, Note_on_c, 0, 56, 66
1, 25605, Control_c, 0, 64, 0
1, 25637, Control_c, 0, 64, 127
1, 25773, Note_on_c, 0, 55, 40
1, 25773, Note_on_c, 0, 58, 50
1, 25862, Note_on_c, 0, 58, 0
1, 25862, Note_on_c, 0, 55, 0
1, 25862, Note_on_c, 0, 59, 52
1, 25865, Note_on_c, 0, 56, 42
1, 25950, Note_on_c, 0, 56, 0
1, 25950, Note_on_c, 0, 83, 0
1, 25950, Note_on_c, 0, 88, 0
1, 25953, Note_on_c, 0, 76, 0
1, 25953, Note_on_c, 0, 59, 0
1, 25953, Note_on_c, 0, 67, 55
1, 25956, Note_on_c, 0, 63, 43
1, 25956, Note_on_c, 0, 56, 0
1, 25956, Note_on_c, 0, 44, 0
1, 26038, Note_on_c, 0, 63, 0
1, 26038, Note_on_c, 0, 67, 0
1, 26038, Note_on_c, 0, 68, 57
1, 26041, Note_on_c, 0, 64, 44
1, 26125, Note_on_c, 0, 64, 0
1, 26125, Note_on_c, 0, 68, 0
1, 26125, Note_on_c, 0, 67, 58
1, 26128, Note_on_c, 0, 70, 58
1, 26220, Note_on_c, 0, 70, 0
1, 26220, Note_on_c, 0, 67, 0
1, 26220, Note_on_c, 0, 68, 51
1, 26223, Note_on_c, 0, 71, 65
1, 26271, Note_on_c, 0, 86, 74
1, 26271, Note_on_c, 0, 74, 58
1, 26321, Note_on_c, 0, 74, 0
1, 26321, Note_on_c, 0, 68, 0
1, 26321, Note_on_c, 0, 71, 0
1, 26324, Note_on_c, 0, 86, 0
1, 26324, Note_on_c, 0, 73, 63
1, 26324, Note_on_c, 0, 81, 63
1, 26327, Note_on_c, 0, 85, 79
1, 26327, Note_on_c, 0, 57, 69
1, 26327, Note_on_c, 0, 52, 54
1, 26330, Note_on_c, 0, 45, 54
1, 26330, Control_c, 0, 64, 0
1, 26448, Control_c, 0, 64, 127
1, 26501, Note_on_c, 0, 60, 42
1, 26501, Note_on_c, 0, 63, 52
1, 26590, Note_on_c, 0, 63, 0
1, 26590, Note_on_c, 0, 60, 0
1, 26590, Note_on_c, 0, 64, 55
1, 26593, Note_on_c, 0, 61, 43
1, 26678, Note_on_c, 0, 61, 0
1, 26678, Note_on_c, 0, 73, 0
1, 26678, Note_on_c, 0, 85, 0
1, 26681, Note_on_c, 0, 81, 0
1, 26681, Note_on_c, 0, 64, 0
1, 26681, Note_on_c, 0, 68, 44
1, 26684, Note_on_c, 0, 72, 57
1, 26684, Note_on_c, 0, 45, 0
1, 26684, Note_on_c, 0, 52, 0
1, 26687, Note_on_c, 0, 57, 0
1, 26766, Note_on_c, 0, 72, 0
1, 26766, Note_on_c, 0, 68, 0
1, 26766, Note_on_c, 0, 69, 47
1, 26769, Note_on_c, 0, 73, 59
1, 26852, Note_on_c, 0, 73, 0
1, 26852, Note_on_c, 0, 69, 0
1, 26852, Note_on_c, 0, 72, 62
1, 26855, Note_on_c, 0, 75, 62
1, 26946, Note_on_c, 0, 75, 0
1, 26946, Note_on_c, 0, 72, 0
1, 26946, Note_on_c, 0, 73, 52
1, 26949, Note_on_c, 0, 76, 66
1, 26993, Note_on_c, 0, 76, 0
1, 26993, Note_on_c, 0, 73, 0
1, 26993, Note_on_c, 0, 88, 78
1, 26996, Note_on_c, 0, 76, 60
1, 27040, Note_on_c, 0, 76, 0
1, 27040, Note_on_c, 0, 88, 0
1, 27040, Note_on_c, 0, 73, 65
1, 27043, Note_on_c, 0, 69, 65
1, 27043, Note_on_c, 0, 81, 82
1, 27043, Note_on_c, 0, 45, 56
1, 27046, Note_on_c, 0, 52, 56
1, 27046, Note_on_c, 0, 57, 72
1, 27049, Control_c, 0, 64, 0
1, 27114, Control_c, 0, 64, 127
1, 27219, Note_on_c, 0, 60, 46
1, 27219, Note_on_c, 0, 63, 58
1, 27309, Note_on_c, 0, 63, 0
1, 27309, Note_on_c, 0, 60, 0
1, 27309, Note_on_c, 0, 61, 48
1, 27312, Note_on_c, 0, 64, 60
1, 27397, Note_on_c, 0, 64, 0
1, 27397, Note_on_c, 0, 73, 0
1, 27397, Note_on_c, 0, 81, 0
1, 27400, Note_on_c, 0, 69, 0
1, 27400, Note_on_c, 0, 61, 0
1, 27400, Note_on_c, 0, 68, 50
1, 27403, Note_on_c, 0, 72, 63
1, 27403, Note_on_c, 0, 57, 0
1, 27403, Note_on_c, 0, 52, 0
1, 27406, Note_on_c, 0, 45, 0
1, 27484, Note_on_c, 0, 72, 0
1, 27484, Note_on_c, 0, 68, 0
1, 27484, Note_on_c, 0, 69, 52
1, 27487, Note_on_c, 0, 73, 65
1, 27571, Note_on_c, 0, 73, 0
1, 27571, Note_on_c, 0, 69, 0
1, 27571, Note_on_c, 0, 72, 67
1, 27574, Note_on_c, 0, 75, 67
1, 27664, Note_on_c, 0, 75, 0
1, 27664, Note_on_c, 0, 72, 0
1, 27664, Note_on_c, 0, 76, 70
1, 27667, Note_on_c, 0, 73, 55
1, 27714, Note_on_c, 0, 69, 63
1, 27714, Note_on_c, 0, 81, 80
1, 27763, Note_on_c, 0, 81, 0
1, 27763, Note_on_c, 0, 76, 0
1, 27763, Note_on_c, 0, 73, 0
1, 27766, Note_on_c, 0, 69, 0
1, 27766, Note_on_c, 0, 85, 78
1, 27766, Note_on_c, 0, 79, 78
1, 27769, Note_on_c, 0, 91, 98
1, 27769, Note_on_c, 0, 58, 82
1, 27769, Note_on_c, 0, 46, 65
1, 27772, Note_on_c, 0, 52, 65
1, 27772, Control_c, 0, 64, 0
1, 27869, Control_c, 0, 64, 127
1, 27943, Note_on_c, 0, 63, 48
1, 27943, Note_on_c, 0, 66, 60
1, 28031, Note_on_c, 0, 66, 0
1, 28031, Note_on_c, 0, 63, 0
1, 28031, Note_on_c, 0, 67, 63
1, 28034, Note_on_c, 0, 64, 50
1, 28119, Note_on_c, 0, 64, 0
1, 28119, Note_on_c, 0, 67, 0
1, 28119, Note_on_c, 0, 72, 51
1, 28122, Note_on_c, 0, 75, 65
1, 28207, Note_on_c, 0, 75, 0
1, 28207, Note_on_c, 0, 72, 0
1, 28207, Note_on_c, 0, 73, 54
1, 28210, Note_on_c, 0, 76, 67
1, 28294, Note_on_c, 0, 76, 0
1, 28294, Note_on_c, 0, 85, 0
1, 28294, Note_on_c, 0, 91, 0
1, 28297, Note_on_c, 0, 79, 0
1, 28297, Note_on_c, 0, 73, 0
1, 28297, Note_on_c, 0, 78, 69
1, 28300, Note_on_c, 0, 75, 55
1, 28381, Note_on_c, 0, 75, 0
1, 28381, Note_on_c, 0, 78, 0
1, 28381, Note_on_c, 0, 76, 56
1, 28384, Note_on_c, 0, 79, 71
1, 28467, Note_on_c, 0, 79, 0
1, 28467, Note_on_c, 0, 76, 0
1, 28467, Note_on_c, 0, 69, 69
1, 28470, Note_on_c, 0, 81, 87
1, 28470, Note_on_c, 0, 52, 0
1, 28470, Note_on_c, 0, 46, 0
1, 28473, Note_on_c, 0, 58, 0
1, 28473, Note_on_c, 0, 45, 62
1, 28473, Note_on_c, 0, 57, 78
1, 28493, Control_c, 0, 64, 0
1, 28523, Control_c, 0, 64, 127
1, 28647, Note_on_c, 0, 63, 48
1, 28647, Note_on_c, 0, 66, 60
1, 28736, Note_on_c, 0, 66, 0
1, 28736, Note_on_c, 0, 63, 0
1, 28736, Note_on_c, 0, 64, 50
1, 28739, Note_on_c, 0, 67, 63
1, 28824, Note_on_c, 0, 67, 0
1, 28824, Note_on_c, 0, 69, 0
1, 28824, Note_on_c, 0, 81, 0
1, 28827, Note_on_c, 0, 64, 0
1, 28827, Note_on_c, 0, 75, 65
1, 28827, Note_on_c, 0, 72, 51
1, 28830, Note_on_c, 0, 57, 0
1, 28830, Note_on_c, 0, 45, 0
1, 28912, Note_on_c, 0, 72, 0
1, 28912, Note_on_c, 0, 75, 0
1, 28912, Note_on_c, 0, 73, 54
1, 28915, Note_on_c, 0, 76, 67
1, 28998, Note_on_c, 0, 76, 0
1, 28998, Note_on_c, 0, 73, 0
1, 28998, Note_on_c, 0, 78, 69
1, 29001, Note_on_c, 0, 75, 69
1, 29093, Note_on_c, 0, 75, 0
1, 29093, Note_on_c, 0, 78, 0
1, 29093, Note_on_c, 0, 76, 56
1, 29096, Note_on_c, 0, 79, 71
1, 29143, Note_on_c, 0, 81, 81
1, 29143, Note_on_c, 0, 69, 64
1, 29194, Note_on_c, 0, 69, 0
1, 29194, Note_on_c, 0, 76, 0
1, 29194, Note_on_c, 0, 79, 0
1, 29197, Note_on_c, 0, 81, 0
1, 29197, Note_on_c, 0, 78, 78
1, 29197, Note_on_c, 0, 84, 78
1, 29200, Note_on_c, 0, 90, 98
1, 29200, Note_on_c, 0, 51, 63
1, 29200, Note_on_c, 0, 46, 63
1, 29203, Note_on_c, 0, 58, 79
1, 29203, Control_c, 0, 64, 0
1, 29245, Control_c, 0, 64, 127
1, 29374, Note_on_c, 0, 62, 48
1, 29374, Note_on_c, 0, 65, 60
1, 29462, Note_on_c, 0, 65, 0
1, 29462, Note_on_c, 0, 62, 0
1, 29462, Note_on_c, 0, 63, 50
1, 29465, Note_on_c, 0, 66, 63
1, 29550, Note_on_c, 0, 66, 0
1, 29550, Note_on_c, 0, 63, 0
1, 29550, Note_on_c, 0, 71, 51
1, 29553, Note_on_c, 0, 74, 65
1, 29638, Note_on_c, 0, 74, 0
1, 29638, Note_on_c, 0, 71, 0
1, 29638, Note_on_c, 0, 72, 54
1, 29641, Note_on_c, 0, 75, 67
1, 29725, Note_on_c, 0, 75, 0
1, 29725, Note_on_c, 0, 78, 0
1, 29725, Note_on_c, 0, 90, 0
1, 29728, Note_on_c, 0, 84, 0
1, 29728, Note_on_c, 0, 72, 0
1, 29728, Note_on_c, 0, 77, 69
1, 29731, Note_on_c, 0, 74, 55
1, 29811, Note_on_c, 0, 74, 0
1, 29811, Note_on_c, 0, 77, 0
1, 29811, Note_on_c, 0, 78, 71
1, 29814, Note_on_c, 0, 75, 56
1, 29898, Note_on_c, 0, 75, 0
1, 29898, Note_on_c, 0, 78, 0
1, 29898, Note_on_c, 0, 69, 69
1, 29901, Note_on_c, 0, 81, 87
1, 29901, Note_on_c, 0, 58, 0
1, 29901, Note_on_c, 0, 46, 0
1, 29904, Note_on_c, 0, 51, 0
1, 29904, Note_on_c, 0, 57, 75
1, 29904, Note_on_c, 0, 45, 59
1, 29904, Control_c, 0, 64, 0
1, 29953, Control_c, 0, 64, 127
1, 30078, Note_on_c, 0, 62, 48
1, 30078, Note_on_c, 0, 65, 60
1, 30167, Note_on_c, 0, 65, 0
1, 30167, Note_on_c, 0, 62, 0
1, 30167, Note_on_c, 0, 63, 50
1, 30170, Note_on_c, 0, 66, 63
1, 30255, Note_on_c, 0, 66, 0
1, 30255, Note_on_c, 0, 69, 0
1, 30255, Note_on_c, 0, 81, 0
1, 30258, Note_on_c, 0, 63, 0
1, 30258, Note_on_c, 0, 74, 65
1, 30258, Note_on_c, 0, 71, 51
1, 30261, Note_on_c, 0, 45, 0
1, 30261, Note_on_c, 0, 57, 0
1, 30342, Note_on_c, 0, 71, 0
1, 30342, Note_on_c, 0, 74, 0
1, 30342, Note_on_c, 0, 72, 54
1, 30345, Note_on_c, 0, 75, 67
1, 30429, Note_on_c, 0, 75, 0
1, 30429, Note_on_c, 0, 72, 0
1, 30429, Note_on_c, 0, 77, 69
1, 30432, Note_on_c, 0, 74, 69
1, 30522, Note_on_c, 0, 74, 0
1, 30522, Note_on_c, 0, 77, 0
1, 30522, Note_on_c, 0, 75, 56
1, 30525, Note_on_c, 0, 78, 71
1, 30571, Note_on_c, 0, 69, 64
1, 30571, Note_on_c, 0, 81, 81
1, 30621, Note_on_c, 0, 81, 0
1, 30621, Note_on_c, 0, 75, 0
1, 30621, Note_on_c, 0, 78, 0
1, 30624, Note_on_c, 0, 69, 0
1, 30624, Note_on_c, 0, 80, 69
1, 30624, Note_on_c, 0, 77, 69
1, 30627, Note_on_c, 0, 89, 87
1, 30627, Note_on_c, 0, 50, 59
1, 30627, Note_on_c, 0, 47, 59
1, 30630, Note_on_c, 0, 59, 75
1, 30630, Control_c, 0, 64, 0
1, 30679, Control_c, 0, 64, 127
1, 30800, Note_on_c, 0, 64, 60
1, 30800, Note_on_c, 0, 61, 48
1, 30890, Note_on_c, 0, 61, 0
1, 30890, Note_on_c, 0, 64, 0
1, 30890, Note_on_c, 0, 65, 63
1, 30893, Note_on_c, 0, 62, 50
1, 30978, Note_on_c, 0, 62, 0
1, 30978, Note_on_c, 0, 80, 0
1, 30978, Note_on_c, 0, 89, 0
1, 30981, Note_on_c, 0, 77, 0
1, 30981, Note_on_c, 0, 65, 0
1, 30981, Note_on_c, 0, 70, 65
1, 30984, Note_on_c, 0, 67, 51
1, 30984, Note_on_c, 0, 59, 0
1, 30984, Note_on_c, 0, 47, 0
1, 30987, Note_on_c, 0, 50, 0
1, 31065, Note_on_c, 0, 67, 0
1, 31065, Note_on_c, 0, 70, 0
1, 31065, Note_on_c, 0, 68, 54
1, 31068, Note_on_c, 0, 71, 67
1, 31152, Note_on_c, 0, 71, 0
1, 31152, Note_on_c, 0, 68, 0
1, 31152, Note_on_c, 0, 76, 69
1, 31155, Note_on_c, 0, 73, 69
1, 31246, Note_on_c, 0, 73, 0
1, 31246, Note_on_c, 0, 76, 0
1, 31246, Note_on_c, 0, 74, 56
1, 31249, Note_on_c, 0, 77, 71
1, 31297, Note_on_c, 0, 89, 81
1, 31297, Note_on_c, 0, 77, 64
1, 31348, Note_on_c, 0, 77, 0
1, 31348, Note_on_c, 0, 74, 0
1, 31348, Note_on_c, 0, 77, 0
1, 31351, Note_on_c, 0, 89, 0
1, 31351, Note_on_c, 0, 76, 69
1, 31351, Note_on_c, 0, 80, 69
1, 31354, Note_on_c, 0, 88, 87
1, 31354, Note_on_c, 0, 52, 75
1, 31354, Note_on_c, 0, 40, 59
1, 31357, Note_on_c, 0, 47, 59
1, 31357, Control_c, 0, 64, 0
1, 31419, Control_c, 0, 64, 127
1, 31528, Note_on_c, 0, 58, 60
1, 31528, Note_on_c, 0, 55, 48
1, 31617, Note_on_c, 0, 55, 0
1, 31617, Note_on_c, 0, 58, 0
1, 31617, Note_on_c, 0, 56, 50
1, 31620, Note_on_c, 0, 59, 63
1, 31706, Note_on_c, 0, 59, 0
1, 31706, Note_on_c, 0, 76, 0
1, 31706, Note_on_c, 0, 88, 0
1, 31709, Note_on_c, 0, 80, 0
1, 31709, Note_on_c, 0, 56, 0
1, 31709, Note_on_c, 0, 63, 51
1, 31712, Note_on_c, 0, 67, 65
1, 31712, Note_on_c, 0, 47, 0
1, 31712, Note_on_c, 0, 40, 0
1, 31715, Note_on_c, 0, 52, 0
1, 31793, Note_on_c, 0, 67, 0
1, 31793, Note_on_c, 0, 63, 0
1, 31793, Note_on_c, 0, 68, 54
1, 31796, Note_on_c, 0, 64, 67
1, 31880, Note_on_c, 0, 64, 0
1, 31880, Note_on_c, 0, 68, 0
1, 31880, Note_on_c, 0, 70, 69
1, 31883, Note_on_c, 0, 67, 69
1, 31973, Note_on_c, 0, 67, 0
1, 31973, Note_on_c, 0, 70, 0
1, 31973, Note_on_c, 0, 68, 56
1, 31976, Note_on_c, 0, 71, 71
1, 32024, Note_on_c, 0, 74, 64
1, 32024, Note_on_c, 0, 86, 81
1, 32075, Note_on_c, 0, 86, 0
1, 32075, Note_on_c, 0, 68, 0
1, 32075, Note_on_c, 0, 71, 0
1, 32078, Note_on_c, 0, 74, 0
1, 32078, Note_on_c, 0, 81, 69
1, 32078, Note_on_c, 0, 85, 87
1, 32081, Note_on_c, 0, 73, 69
1, 32081, Note_on_c, 0, 57, 75
1, 32081, Note_on_c, 0, 45, 59
1, 32084, Note_on_c, 0, 52, 59
1, 32084, Control_c, 0, 64, 0
1, 32165, Control_c, 0, 64, 127
1, 32255, Note_on_c, 0, 60, 48
1, 32255, Note_on_c, 0, 63, 60
1, 32344, Note_on_c, 0, 63, 0
1, 32344, Note_on_c, 0, 60, 0
1, 32344, Note_on_c, 0, 64, 63
1, 32347, Note_on_c, 0, 61, 50
1, 32432, Note_on_c, 0, 61, 0
1, 32432, Note_on_c, 0, 81, 0
1, 32432, Note_on_c, 0, 73, 0
1, 32435, Note_on_c, 0, 85, 0
1, 32435, Note_on_c, 0, 64, 0
1, 32435, Note_on_c, 0, 72, 65
1, 32438, Note_on_c, 0, 68, 51
1, 32438, Note_on_c, 0, 52, 0
1, 32438, Note_on_c, 0, 45, 0
1, 32441, Note_on_c, 0, 57, 0
1, 32520, Note_on_c, 0, 68, 0
1, 32520, Note_on_c, 0, 72, 0
1, 32520, Note_on_c, 0, 69, 54
1, 32523, Note_on_c, 0, 73, 67
1, 32607, Note_on_c, 0, 73, 0
1, 32607, Note_on_c, 0, 69, 0
1, 32607, Note_on_c, 0, 75, 69
1, 32610, Note_on_c, 0, 72, 69
1, 32699, Note_on_c, 0, 72, 0
1, 32699, Note_on_c, 0, 75, 0
1, 32699, Note_on_c, 0, 73, 56
1, 32702, Note_on_c, 0, 76, 71
1, 32749, Note_on_c, 0, 76, 0
1, 32749, Note_on_c, 0, 73, 0
1, 32749, Note_on_c, 0, 88, 81
1, 32752, Note_on_c, 0, 76, 64
1, 32798, Note_on_c, 0, 76, 0
1, 32798, Note_on_c, 0, 88, 0
1, 32798, Note_on_c, 0, 73, 69
1, 32801, Note_on_c, 0, 81, 87
1, 32801, Note_on_c, 0, 69, 69
1, 32801, Note_on_c, 0, 57, 75
1, 32804, Note_on_c, 0, 45, 59
1, 32804, Note_on_c, 0, 52, 59
1, 32804, Control_c, 0, 64, 0
1, 32875, Control_c, 0, 64, 127
1, 32978, Note_on_c, 0, 56, 48
1, 32978, Note_on_c, 0, 60, 60
1, 33067, Note_on_c, 0, 60, 0
1, 33067, Note_on_c, 0, 56, 0
1, 33067, Note_on_c, 0, 61, 63
1, 33070, Note_on_c, 0, 57, 50
1, 33156, Note_on_c, 0, 57, 0
1, 33156, Note_on_c, 0, 73, 0
1, 33156, Note_on_c, 0, 69, 0
1, 33159, Note_on_c, 0, 81, 0
1, 33159, Note_on_c, 0, 61, 0
1, 33159, Note_on_c, 0, 60, 51
1, 33162, Note_on_c, 0, 63, 65
1, 33162, Note_on_c, 0, 52, 0
1, 33162, Note_on_c, 0, 45, 0
1, 33165, Note_on_c, 0, 57, 0
1, 33243, Note_on_c, 0, 63, 0
1, 33243, Note_on_c, 0, 60, 0
1, 33243, Note_on_c, 0, 61, 54
1, 33246, Note_on_c, 0, 64, 67
1, 33330, Note_on_c, 0, 64, 0
1, 33330, Note_on_c, 0, 61, 0
1, 33330, Note_on_c, 0, 68, 69
1, 33333, Note_on_c, 0, 63, 69
1, 33419, Note_on_c, 0, 63, 0
1, 33419, Note_on_c, 0, 68, 0
1, 33419, Note_on_c, 0, 64, 56
1, 33422, Note_on_c, 0, 69, 71
1, 33508, Note_on_c, 0, 69, 0
1, 33508, Note_on_c, 0, 64, 0
1, 33508, Note_on_c, 0, 79, 88
1, 33511, Note_on_c, 0, 73, 70
1, 33511, Note_on_c, 0, 67, 70
1, 33511, Note_on_c, 0, 34, 58
1, 33514, Note_on_c, 0, 40, 58
1, 33514, Note_on_c, 0, 46, 73
1, 33514, Control_c, 0, 64, 0
1, 33609, Control_c, 0, 64, 127
1, 33688, Note_on_c, 0, 51, 42
1, 33688, Note_on_c, 0, 54, 54
1, 33777, Note_on_c, 0, 54, 0
1, 33777, Note_on_c, 0, 51, 0
1, 33777, Note_on_c, 0, 52, 44
1, 33780, Note_on_c, 0, 55, 56
1, 33865, Note_on_c, 0, 55, 0
1, 33865, Note_on_c, 0, 52, 0
1, 33865, Note_on_c, 0, 60, 46
1, 33868, Note_on_c, 0, 63, 58
1, 33952, Note_on_c, 0, 63, 0
1, 33952, Note_on_c, 0, 60, 0
1, 33952, Note_on_c, 0, 61, 48
1, 33955, Note_on_c, 0, 64, 60
1, 34039, Note_on_c, 0, 64, 0
1, 34039, Note_on_c, 0, 79, 0
1, 34039, Note_on_c, 0, 67, 0
1, 34042, Note_on_c, 0, 73, 0
1, 34042, Note_on_c, 0, 61, 0
1, 34042, Note_on_c, 0, 63, 49
1, 34045, Note_on_c, 0, 66, 62
1, 34126, Note_on_c, 0, 66, 0
1, 34126, Note_on_c, 0, 63, 0
1, 34126, Note_on_c, 0, 67, 63
1, 34129, Note_on_c, 0, 64, 50
1, 34212, Note_on_c, 0, 64, 0
1, 34212, Note_on_c, 0, 67, 0
1, 34212, Note_on_c, 0, 69, 78
1, 34215, Note_on_c, 0, 57, 62
1, 34215, Note_on_c, 0, 46, 0
1, 34215, Note_on_c, 0, 40, 0
1, 34218, Note_on_c, 0, 34, 0
1, 34218, Note_on_c, 0, 33, 55
1, 34218, Note_on_c, 0, 45, 70
1, 34223, Control_c, 0, 64, 0
1, 34271, Control_c, 0, 64, 127
1, 34392, Note_on_c, 0, 51, 42
1, 34392, Note_on_c, 0, 54, 54
1, 34481, Note_on_c, 0, 54, 0
1, 34481, Note_on_c, 0, 51, 0
1, 34481, Note_on_c, 0, 52, 44
1, 34484, Note_on_c, 0, 55, 56
1, 34570, Note_on_c, 0, 55, 0
1, 34570, Note_on_c, 0, 69, 0
1, 34570, Note_on_c, 0, 57, 0
1, 34573, Note_on_c, 0, 52, 0
1, 34573, Note_on_c, 0, 63, 58
1, 34573, Note_on_c, 0, 60, 46
1, 34576, Note_on_c, 0, 45, 0
1, 34576, Note_on_c, 0, 33, 0
1, 34657, Note_on_c, 0, 60, 0
1, 34657, Note_on_c, 0, 63, 0
1, 34657, Note_on_c, 0, 64, 60
1, 34660, Note_on_c, 0, 61, 48
1, 34744, Note_on_c, 0, 61, 0
1, 34744, Note_on_c, 0, 64, 0
1, 34744, Note_on_c, 0, 63, 62
1, 34747, Note_on_c, 0, 66, 62
1, 34837, Note_on_c, 0, 66, 0
1, 34837, Note_on_c, 0, 63, 0
1, 34837, Note_on_c, 0, 64, 50
1, 34840, Note_on_c, 0, 67, 63
1, 34890, Note_on_c, 0, 69, 72
1, 34890, Note_on_c, 0, 57, 57
1, 34944, Note_on_c, 0, 57, 0
1, 34944, Note_on_c, 0, 64, 0
1, 34944, Note_on_c, 0, 67, 0
1, 34947, Note_on_c, 0, 69, 0
1, 34947, Note_on_c, 0, 78, 88
1, 34947, Note_on_c, 0, 72, 70
1, 34950, Note_on_c, 0, 66, 70
1, 34950, Note_on_c, 0, 34, 56
1, 34950, Note_on_c, 0, 39, 56
1, 34953, Note_on_c, 0, 46, 71
1, 34953, Control_c, 0, 64, 0
1, 35032, Control_c, 0, 64, 127
1, 35124, Note_on_c, 0, 53, 54
1, 35124, Note_on_c, 0, 50, 42
1, 35213, Note_on_c, 0, 50, 0
1, 35213, Note_on_c, 0, 53, 0
1, 35213, Note_on_c, 0, 51, 44
1, 35216, Note_on_c, 0, 54, 56
1, 35300, Note_on_c, 0, 54, 0
1, 35300, Note_on_c, 0, 51, 0
1, 35300, Note_on_c, 0, 62, 58
1, 35303, Note_on_c, 0, 59, 46
1, 35388, Note_on_c, 0, 59, 0
1, 35388, Note_on_c, 0, 62, 0
1, 35388, Note_on_c, 0, 63, 60
1, 35391, Note_on_c, 0, 60, 48
1, 35475, Note_on_c, 0, 60, 0
1, 35475, Note_on_c, 0, 78, 0
1, 35475, Note_on_c, 0, 66, 0
1, 35478, Note_on_c, 0, 72, 0
1, 35478, Note_on_c, 0, 63, 0
1, 35478, Note_on_c, 0, 65, 62
1, 35481, Note_on_c, 0, 62, 49
1, 35562, Note_on_c, 0, 62, 0
1, 35562, Note_on_c, 0, 65, 0
1, 35562, Note_on_c, 0, 63, 50
1, 35565, Note_on_c, 0, 66, 63
1, 35648, Note_on_c, 0, 66, 0
1, 35648, Note_on_c, 0, 63, 0
1, 35648, Note_on_c, 0, 57, 62
1, 35651, Note_on_c, 0, 69, 78
1, 35651, Note_on_c, 0, 46, 0
1, 35651, Note_on_c, 0, 39, 0
1, 35654, Note_on_c, 0, 34, 0
1, 35654, Note_on_c, 0, 45, 67
1, 35654, Note_on_c, 0, 33, 52
1, 35658, Control_c, 0, 64, 0
1, 35699, Control_c, 0, 64, 127
1, 35828, Note_on_c, 0, 53, 54
1, 35828, Note_on_c, 0, 50, 42
1, 35917, Note_on_c, 0, 50, 0
1, 35917, Note_on_c, 0, 53, 0
1, 35917, Note_on_c, 0, 51, 44
1, 35920, Note_on_c, 0, 54, 56
1, 36005, Note_on_c, 0, 54, 0
1, 36005, Note_on_c, 0, 57, 0
1, 36005, Note_on_c, 0, 69, 0
1, 36008, Note_on_c, 0, 51, 0
1, 36008, Note_on_c, 0, 59, 46
1, 36008, Note_on_c, 0, 62, 58
1, 36011, Note_on_c, 0, 33, 0
1, 36011, Note_on_c, 0, 45, 0
1, 36093, Note_on_c, 0, 62, 0
1, 36093, Note_on_c, 0, 59, 0
1, 36093, Note_on_c, 0, 63, 60
1, 36096, Note_on_c, 0, 60, 48
1, 36180, Note_on_c, 0, 60, 0
1, 36180, Note_on_c, 0, 63, 0
1, 36180, Note_on_c, 0, 62, 62
1, 36183, Note_on_c, 0, 65, 62
1, 36271, Note_on_c, 0, 65, 0
1, 36271, Note_on_c, 0, 62, 0
1, 36271, Note_on_c, 0, 66, 63
1, 36274, Note_on_c, 0, 63, 50
1, 36324, Note_on_c, 0, 57, 57
1, 36324, Note_on_c, 0, 69, 72
1, 36377, Note_on_c, 0, 69, 0
1, 36377, Note_on_c, 0, 66, 0
1, 36377, Note_on_c, 0, 63, 0
1, 36380, Note_on_c, 0, 57, 0
1, 36380, Note_on_c, 0, 65, 62
1, 36380, Note_on_c, 0, 68, 62
1, 36383, Note_on_c, 0, 77, 78
1, 36383, Note_on_c, 0, 38, 52
1, 36383, Note_on_c, 0, 35, 52
1, 36386, Note_on_c, 0, 47, 67
1, 36386, Control_c, 0, 64, 0
1, 36467, Control_c, 0, 64, 127
1, 36557, Note_on_c, 0, 52, 54
1, 36557, Note_on_c, 0, 49, 42
1, 36646, Note_on_c, 0, 49, 0
1, 36646, Note_on_c, 0, 52, 0
1, 36646, Note_on_c, 0, 53, 56
1, 36649, Note_on_c, 0, 50, 44
1, 36734, Note_on_c, 0, 50, 0
1, 36734, Note_on_c, 0, 65, 0
1, 36734, Note_on_c, 0, 77, 0
1, 36737, Note_on_c, 0, 68, 0
1, 36737, Note_on_c, 0, 53, 0
1, 36737, Note_on_c, 0, 55, 46
1, 36740, Note_on_c, 0, 58, 58
1, 36740, Note_on_c, 0, 47, 0
1, 36740, Note_on_c, 0, 35, 0
1, 36743, Note_on_c, 0, 38, 0
1, 36822, Note_on_c, 0, 58, 0
1, 36822, Note_on_c, 0, 55, 0
1, 36822, Note_on_c, 0, 59, 60
1, 36825, Note_on_c, 0, 56, 48
1, 36908, Note_on_c, 0, 56, 0
1, 36908, Note_on_c, 0, 59, 0
1, 36908, Note_on_c, 0, 64, 62
1, 36911, Note_on_c, 0, 61, 62
1, 37002, Note_on_c, 0, 61, 0
1, 37002, Note_on_c, 0, 64, 0
1, 37002, Note_on_c, 0, 65, 63
1, 37005, Note_on_c, 0, 62, 50
1, 37049, Note_on_c, 0, 62, 0
1, 37049, Note_on_c, 0, 65, 0
1, 37049, Note_on_c, 0, 77, 72
1, 37052, Note_on_c, 0, 65, 57
1, 37096, Note_on_c, 0, 65, 0
1, 37096, Note_on_c, 0, 77, 0
1, 37096, Note_on_c, 0, 76, 78
1, 37099, Note_on_c, 0, 68, 62
1, 37099, Note_on_c, 0, 64, 62
1, 37099, Note_on_c, 0, 46, 67
1, 37102, Note_on_c, 0, 38, 52
1, 37102, Note_on_c, 0, 34, 52
1, 37102, Control_c, 0, 64, 0
1, 37171, Control_c, 0, 64, 127
1, 37275, Note_on_c, 0, 49, 42
1, 37275, Note_on_c, 0, 52, 54
1, 37365, Note_on_c, 0, 52, 0
1, 37365, Note_on_c, 0, 49, 0
1, 37365, Note_on_c, 0, 53, 56
1, 37368, Note_on_c, 0, 50, 44
1, 37453, Note_on_c, 0, 50, 0
1, 37453, Note_on_c, 0, 76, 0
1, 37453, Note_on_c, 0, 64, 0
1, 37456, Note_on_c, 0, 68, 0
1, 37456, Note_on_c, 0, 53, 0
1, 37456, Note_on_c, 0, 57, 46
1, 37459, Note_on_c, 0, 61, 58
1, 37459, Note_on_c, 0, 34, 0
1, 37459, Note_on_c, 0, 38, 0
1, 37462, Note_on_c, 0, 46, 0
1, 37540, Note_on_c, 0, 61, 0
1, 37540, Note_on_c, 0, 57, 0
1, 37540, Note_on_c, 0, 58, 60
1, 37543, Note_on_c, 0, 62, 48
1, 37627, Note_on_c, 0, 62, 0
1, 37627, Note_on_c, 0, 58, 0
1, 37627, Note_on_c, 0, 55, 62
1, 37630, Note_on_c, 0, 63, 62
1, 37720, Note_on_c, 0, 63, 0
1, 37720, Note_on_c, 0, 55, 0
1, 37720, Note_on_c, 0, 64, 63
1, 37723, Note_on_c, 0, 56, 50
1, 37766, Note_on_c, 0, 74, 72
1, 37766, Note_on_c, 0, 62, 57
1, 37813, Note_on_c, 0, 62, 0
1, 37813, Note_on_c, 0, 64, 0
1, 37813, Note_on_c, 0, 56, 0
1, 37816, Note_on_c, 0, 74, 0
1, 37816, Note_on_c, 0, 69, 78
1, 37816, Note_on_c, 0, 61, 62
1, 37819, Note_on_c, 0, 57, 62
1, 37819, Note_on_c, 0, 45, 67
1, 37819, Note_on_c, 0, 33, 52
1, 37822, Note_on_c, 0, 40, 52
1, 37822, Control_c, 0, 64, 0
1, 37857, Control_c, 0, 64, 127
1, 37913, Control_c, 0, 64, 0
1, 37933, Note_on_c, 0, 57, 0
1, 37933, Note_on_c, 0, 61, 0
1, 37933, Note_on_c, 0, 69, 0
1, 37936, Note_on_c, 0, 40, 0
1, 37936, Note_on_c, 0, 33, 0
1, 37936, Note_on_c, 0, 45, 0
1, 38053, Note_on_c, 0, 64, 46
1, 38053, Note_on_c, 0, 73, 70
1, 38053, Note_on_c, 0, 55, 39
1, 38056, Note_on_c, 0, 46, 56
1, 38072, Control_c, 0, 64, 127
1, 38127, Note_on_c, 0, 64, 0
1, 38127, Note_on_c, 0, 65, 46
1, 38127, Note_on_c, 0, 55, 0
1, 38130, Note_on_c, 0, 56, 39
1, 38202, Note_on_c, 0, 65, 0
1, 38202, Note_on_c, 0, 66, 47
1, 38202, Note_on_c, 0, 56, 0
1, 38205, Note_on_c, 0, 57, 39
1, 38276, Note_on_c, 0, 66, 0
1, 38276, Note_on_c, 0, 73, 0
1, 38276, Note_on_c, 0, 76, 73
1, 38279, Note_on_c, 0, 67, 48
1, 38279, Note_on_c, 0, 57, 0
1, 38279, Note_on_c, 0, 46, 0
1, 38282, Note_on_c, 0, 49, 59
1, 38282, Note_on_c, 0, 58, 40
1, 38282, Control_c, 0, 64, 0
1, 38304, Control_c, 0, 64, 127
1, 38350, Note_on_c, 0, 67, 0
1, 38350, Note_on_c, 0, 68, 48
1, 38350, Note_on_c, 0, 58, 0
1, 38353, Note_on_c, 0, 59, 41
1, 38424, Note_on_c, 0, 68, 0
1, 38424, Note_on_c, 0, 69, 49
1, 38424, Note_on_c, 0, 59, 0
1, 38427, Note_on_c, 0, 60, 41
1, 38498, Note_on_c, 0, 69, 0
1, 38498, Note_on_c, 0, 76, 0
1, 38498, Note_on_c, 0, 79, 77
1, 38501, Note_on_c, 0, 70, 50
1, 38501, Note_on_c, 0, 60, 0
1, 38501, Note_on_c, 0, 49, 0
1, 38504, Note_on_c, 0, 61, 41
1, 38504, Note_on_c, 0, 52, 62
1, 38504, Control_c, 0, 64, 0
1, 38530, Control_c, 0, 64, 127
1, 38571, Note_on_c, 0, 70, 0
1, 38571, Note_on_c, 0, 71, 50
1, 38571, Note_on_c, 0, 61, 0
1, 38574, Note_on_c, 0, 62, 42
1, 38645, Note_on_c, 0, 71, 0
1, 38645, Note_on_c, 0, 72, 51
1, 38645, Note_on_c, 0, 62, 0
1, 38648, Note_on_c, 0, 63, 43
1, 38718, Note_on_c, 0, 72, 0
1, 38718, Note_on_c, 0, 79, 0
1, 38718, Note_on_c, 0, 82, 80
1, 38721, Note_on_c, 0, 73, 51
1, 38721, Note_on_c, 0, 63, 0
1, 38721, Note_on_c, 0, 52, 0
1, 38724, Note_on_c, 0, 55, 65
1, 38724, Note_on_c, 0, 64, 43
1, 38724, Control_c, 0, 64, 0
1, 38764, Control_c, 0, 64, 127
1, 38792, Note_on_c, 0, 73, 0
1, 38792, Note_on_c, 0, 74, 52
1, 38792, Note_on_c, 0, 64, 0
1, 38795, Note_on_c, 0, 62, 43
1, 38865, Note_on_c, 0, 74, 0
1, 38865, Note_on_c, 0, 76, 52
1, 38865, Note_on_c, 0, 62, 0
1, 38868, Note_on_c, 0, 61, 44
1, 38938, Note_on_c, 0, 76, 0
1, 38938, Note_on_c, 0, 82, 0
1, 38938, Note_on_c, 0, 71, 43
1, 38941, Note_on_c, 0, 83, 77
1, 38941, Note_on_c, 0, 61, 0
1, 38941, Note_on_c, 0, 55, 0
1, 38944, Note_on_c, 0, 59, 36
1, 38944, Note_on_c, 0, 65, 36
1, 38944, Note_on_c, 0, 50, 31
1, 38947, Note_on_c, 0, 56, 51
1, 38947, Control_c, 0, 64, 0
1, 38984, Control_c, 0, 64, 127
1, 39013, Note_on_c, 0, 71, 0
1, 39013, Note_on_c, 0, 77, 55
1, 39087, Note_on_c, 0, 77, 0
1, 39087, Note_on_c, 0, 80, 55
1, 39162, Note_on_c, 0, 80, 0
1, 39162, Note_on_c, 0, 83, 0
1, 39162, Note_on_c, 0, 76, 62
1, 39165, Note_on_c, 0, 85, 62
1, 39165, Note_on_c, 0, 81, 62
1, 39165, Note_on_c, 0, 88, 78
1, 39168, Note_on_c, 0, 56, 0
1, 39168, Note_on_c, 0, 59, 0
1, 39168, Note_on_c, 0, 65, 0
1, 39171, Note_on_c, 0, 50, 0
1, 39171, Note_on_c, 0, 45, 52
1, 39171, Note_on_c, 0, 57, 67
1, 39174, Note_on_c, 0, 52, 52
1, 39174, Control_c, 0, 64, 0
1, 39202, Control_c, 0, 64, 127
1, 39276, Note_on_c, 0, 88, 0
1, 39276, Note_on_c, 0, 76, 0
1, 39276, Note_on_c, 0, 85, 0
1, 39279, Note_on_c, 0, 81, 0
1, 39279, Note_on_c, 0, 52, 0
1, 39279, Note_on_c, 0, 57, 0
1, 39282, Note_on_c, 0, 45, 0
1, 39287, Control_c, 0, 64, 0
1, 39390, Note_on_c, 0, 85, 70
1, 39390, Note_on_c, 0, 76, 46
1, 39390, Note_on_c, 0, 58, 56
1, 39393, Note_on_c, 0, 67, 39
1, 39414, Control_c, 0, 64, 127
1, 39464, Note_on_c, 0, 76, 0
1, 39464, Note_on_c, 0, 77, 46
1, 39464, Note_on_c, 0, 67, 0
1, 39467, Note_on_c, 0, 68, 39
1, 39538, Note_on_c, 0, 77, 0
1, 39538, Note_on_c, 0, 78, 47
1, 39538, Note_on_c, 0, 68, 0
1, 39541, Note_on_c, 0, 69, 39
1, 39612, Note_on_c, 0, 78, 0
1, 39612, Note_on_c, 0, 85, 0
1, 39612, Note_on_c, 0, 79, 48
1, 39615, Note_on_c, 0, 88, 73
1, 39615, Note_on_c, 0, 69, 0
1, 39615, Note_on_c, 0, 58, 0
1, 39618, Note_on_c, 0, 61, 59
1, 39618, Note_on_c, 0, 70, 40
1, 39618, Control_c, 0, 64, 0
1, 39653, Control_c, 0, 64, 127
1, 39685, Note_on_c, 0, 79, 0
1, 39685, Note_on_c, 0, 80, 48
1, 39685, Note_on_c, 0, 70, 0
1, 39688, Note_on_c, 0, 71, 41
1, 39759, Note_on_c, 0, 80, 0
1, 39759, Note_on_c, 0, 81, 49
1, 39759, Note_on_c, 0, 71, 0
1, 39762, Note_on_c, 0, 72, 41
1, 39832, Note_on_c, 0, 81, 0
1, 39832, Note_on_c, 0, 88, 0
1, 39832, Note_on_c, 0, 82, 50
1, 39835, Note_on_c, 0, 91, 77
1, 39835, Note_on_c, 0, 72, 0
1, 39835, Note_on_c, 0, 61, 0
1, 39838, Note_on_c, 0, 64, 62
1, 39838, Note_on_c, 0, 73, 41
1, 39838, Control_c, 0, 64, 0
1, 39869, Control_c, 0, 64, 127
1, 39905, Note_on_c, 0, 82, 0
1, 39905, Note_on_c, 0, 83, 50
1, 39905, Note_on_c, 0, 73, 0
1, 39908, Note_on_c, 0, 74, 42
1, 39978, Note_on_c, 0, 83, 0
1, 39978, Note_on_c, 0, 84, 51
1, 39978, Note_on_c, 0, 74, 0
1, 39981, Note_on_c, 0, 75, 43
1, 40051, Note_on_c, 0, 84, 0
1, 40051, Note_on_c, 0, 91, 0
1, 40051, Note_on_c, 0, 94, 80
1, 40054, Note_on_c, 0, 85, 51
1, 40054, Note_on_c, 0, 75, 0
1, 40054, Note_on_c, 0, 64, 0
1, 40057, Note_on_c, 0, 76, 43
1, 40057, Note_on_c, 0, 67, 65
1, 40057, Control_c, 0, 64, 0
1, 40096, Control_c, 0, 64, 127
1, 40124, Note_on_c, 0, 85, 0
1, 40124, Note_on_c, 0, 86, 52
1, 40124, Note_on_c, 0, 76, 0
1, 40127, Note_on_c, 0, 74, 43
1, 40197, Note_on_c, 0, 86, 0
1, 40197, Note_on_c, 0, 88, 52
1, 40197, Note_on_c, 0, 74, 0
1, 40200, Note_on_c, 0, 73, 44
1, 40270, Note_on_c, 0, 88, 0
1, 40270, Note_on_c, 0, 94, 0
1, 40270, Note_on_c, 0, 95, 77
1, 40273, Note_on_c, 0, 83, 50
1, 40273, Note_on_c, 0, 73, 0
1, 40273, Note_on_c, 0, 67, 0
1, 40276, Note_on_c, 0, 71, 36
1, 40276, Note_on_c, 0, 62, 31
1, 40276, Note_on_c, 0, 68, 51
1, 40279, Note_on_c, 0, 77, 36
1, 40279, Control_c, 0, 64, 0
1, 40320, Control_c, 0, 64, 127
1, 40344, Note_on_c, 0, 83, 0
1, 40344, Note_on_c, 0, 89, 55
1, 40418, Note_on_c, 0, 89, 0
1, 40418, Note_on_c, 0, 92, 55
1, 40492, Note_on_c, 0, 92, 0
1, 40492, Note_on_c, 0, 95, 0
1, 40492, Note_on_c, 0, 93, 67
1, 40495, Note_on_c, 0, 97, 67
1, 40495, Note_on_c, 0, 88, 67
1, 40495, Note_on_c, 0, 100, 85
1, 40498, Note_on_c, 0, 77, 0
1, 40498, Note_on_c, 0, 71, 0
1, 40498, Note_on_c, 0, 62, 0
1, 40501, Note_on_c, 0, 68, 0
1, 40501, Note_on_c, 0, 69, 67
1, 40501, Note_on_c, 0, 57, 52
1, 40504, Note_on_c, 0, 64, 52
1, 40504, Note_on_c, 0, 61, 52
1, 40504, Control_c, 0, 64, 0
1, 40523, Control_c, 0, 64, 127
1, 40601, Note_on_c, 0, 100, 0
1, 40601, Note_on_c, 0, 93, 0
1, 40601, Note_on_c, 0, 97, 0
1, 40604, Note_on_c, 0, 88, 0
1, 40604, Note_on_c, 0, 61, 0
1, 40604, Note_on_c, 0, 69, 0
1, 40607, Note_on_c, 0, 57, 0
1, 40607, Note_on_c, 0, 64, 0
1, 40607, Control_c, 0, 64, 0
1, 40709, Note_on_c, 0, 83, 55
1, 40709, Note_on_c, 0, 95, 67
1, 40709, Note_on_c, 0, 50, 51
1, 40712, Note_on_c, 0, 62, 51
1, 40712, Note_on_c, 0, 56, 51
1, 40712, Note_on_c, 0, 53, 51
1, 40722, Control_c, 0, 64, 127
1, 40784, Note_on_c, 0, 83, 0
1, 40784, Note_on_c, 0, 89, 55
1, 40821, Note_on_c, 0, 53, 0
1, 40821, Note_on_c, 0, 50, 0
1, 40821, Note_on_c, 0, 62, 0
1, 40824, Note_on_c, 0, 56, 0
1, 40858, Note_on_c, 0, 89, 0
1, 40858, Note_on_c, 0, 92, 55
1, 40930, Control_c, 0, 64, 0
1, 40930, Note_on_c, 0, 92, 0
1, 40930, Note_on_c, 0, 95, 0
1, 40930, Note_on_c, 0, 100, 85
1, 40930, Note_on_c, 0, 93, 67
1, 40930, Note_on_c, 0, 88, 67
1, 40930, Note_on_c, 0, 97, 67
1, 40930, Note_on_c, 0, 45, 51
1, 40930, Note_on_c, 0, 52, 51
1, 40930, Note_on_c, 0, 57, 51
1, 40930, Note_on_c, 0, 49, 51
1, 40984, Control_c, 0, 64, 127
1, 41025, Control_c, 0, 64, 0
1, 41041, Note_on_c, 0, 97, 0
1, 41041, Note_on_c, 0, 100, 0
1, 41041, Note_on_c, 0, 93, 0
1, 41044, Note_on_c, 0, 88, 0
1, 41044, Note_on_c, 0, 49, 0
1, 41044, Note_on_c, 0, 45, 0
1, 41047, Note_on_c, 0, 52, 0
1, 41047, Note_on_c, 0, 57, 0
1, 41149, Note_on_c, 0, 83, 55
1, 41149, Note_on_c, 0, 95, 67
1, 41149, Note_on_c, 0, 50, 51
1, 41152, Note_on_c, 0, 41, 51
1, 41152, Note_on_c, 0, 38, 51
1, 41152, Note_on_c, 0, 44, 51
1, 41167, Control_c, 0, 64, 127
1, 41222, Note_on_c, 0, 83, 0
1, 41222, Note_on_c, 0, 89, 55
1, 41259, Note_on_c, 0, 44, 0
1, 41259, Note_on_c, 0, 50, 0
1, 41259, Note_on_c, 0, 41, 0
1, 41262, Note_on_c, 0, 38, 0
1, 41296, Note_on_c, 0, 89, 0
1, 41296, Note_on_c, 0, 92, 55
1, 41370, Note_on_c, 0, 92, 0
1, 41370, Note_on_c, 0, 95, 0
1, 41370, Note_on_c, 0, 97, 67
1, 41373, Note_on_c, 0, 88, 67
1, 41373, Note_on_c, 0, 100, 85
1, 41373, Note_on_c, 0, 93, 67
1, 41376, Note_on_c, 0, 33, 51
1, 41376, Note_on_c, 0, 40, 51
1, 41376, Note_on_c, 0, 37, 51
1, 41379, Note_on_c, 0, 45, 51
1, 41379, Control_c, 0, 64, 0
1, 41416, Control_c, 0, 64, 127
1, 41473, Control_c, 0, 64, 0
1, 41478, Note_on_c, 0, 93, 0
1, 41478, Note_on_c, 0, 97, 0
1, 41478, Note_on_c, 0, 88, 0
1, 41481, Note_on_c, 0, 100, 0
1, 41481, Note_on_c, 0, 45, 0
1, 41481, Note_on_c, 0, 33, 0
1, 41484, Note_on_c, 0, 40, 0
1, 41484, Note_on_c, 0, 37, 0
1, 41587, Note_on_c, 0, 95, 67
1, 41587, Note_on_c, 0, 83, 55
1, 41587, Note_on_c, 0, 50, 51
1, 41590, Note_on_c, 0, 44, 51
1, 41590, Note_on_c, 0, 41, 51
1, 41590, Note_on_c, 0, 38, 51
1, 41623, Control_c, 0, 64, 127
1, 41660, Note_on_c, 0, 83, 0
1, 41660, Note_on_c, 0, 89, 55
1, 41696, Note_on_c, 0, 38, 0
1, 41696, Note_on_c, 0, 50, 0
1, 41696, Note_on_c, 0, 44, 0
1, 41699, Note_on_c, 0, 41, 0
1, 41733, Note_on_c, 0, 89, 0
1, 41733, Note_on_c, 0, 92, 55
1, 41806, Note_on_c, 0, 92, 0
1, 41806, Note_on_c, 0, 95, 0
1, 41806, Note_on_c, 0, 93, 67
1, 41809, Note_on_c, 0, 88, 67
1, 41809, Note_on_c, 0, 100, 85
1, 41809, Note_on_c, 0, 97, 67
1, 41812, Note_on_c, 0, 37, 52
1, 41812, Note_on_c, 0, 33, 52
1, 41812, Note_on_c, 0, 45, 67
1, 41815, Note_on_c, 0, 40, 52
1, 41815, Control_c, 0, 64, 0
1, 41995, Control_c, 0, 64, 127
1, 42028, Note_on_c, 0, 97, 0
1, 42028, Note_on_c, 0, 93, 0
1, 42028, Note_on_c, 0, 88, 0
1, 42031, Note_on_c, 0, 100, 0
1, 42031, Note_on_c, 0, 40, 0
1, 42031, Note_on_c, 0, 37, 0
1, 42034, Note_on_c, 0, 33, 0
1, 42034, Note_on_c, 0, 45, 0
1, 42132, Control_c, 0, 64, 0
1, 42247, Note_on_c, 0, 46, 46
1, 42247, Note_on_c, 0, 82, 73
1, 42247, Note_on_c, 0, 70, 62
1, 42250, Note_on_c, 0, 58, 54
1, 42287, Control_c, 0, 64, 127
1, 42453, Note_on_c, 0, 46, 0
1, 42453, Note_on_c, 0, 45, 42
1, 42453, Note_on_c, 0, 57, 50
1, 42453, Note_on_c, 0, 70, 0
1, 42453, Note_on_c, 0, 82, 0
1, 42453, Note_on_c, 0, 69, 56
1, 42453, Note_on_c, 0, 81, 67
1, 42453, Note_on_c, 0, 58, 0
1, 42555, Note_on_c, 0, 55, 55
1, 42555, Note_on_c, 0, 45, 0
1, 42555, Note_on_c, 0, 57, 0
1, 42555, Note_on_c, 0, 43, 46
1, 42555, Note_on_c, 0, 81, 0
1, 42555, Note_on_c, 0, 69, 0
1, 42555, Note_on_c, 0, 67, 62
1, 42555, Note_on_c, 0, 79, 74
1, 42649, Note_on_c, 0, 55, 0
1, 42649, Note_on_c, 0, 53, 52
1, 42649, Note_on_c, 0, 43, 0
1, 42649, Note_on_c, 0, 41, 44
1, 42649, Note_on_c, 0, 79, 0
1, 42649, Note_on_c, 0, 67, 0
1, 42649, Note_on_c, 0, 77, 70
1, 42649, Note_on_c, 0, 65, 59
1, 42742, Note_on_c, 0, 53, 0
1, 42742, Note_on_c, 0, 41, 0
1, 42742, Note_on_c, 0, 65, 0
1, 42742, Note_on_c, 0, 77, 0
1, 42742, Note_on_c, 0, 76, 70
1, 42742, Note_on_c, 0, 64, 59
1, 42742, Note_on_c, 0, 52, 52
1, 42745, Note_on_c, 0, 40, 44
1, 42835, Note_on_c, 0, 50, 48
1, 42835, Note_on_c, 0, 64, 0
1, 42835, Note_on_c, 0, 76, 0
1, 42835, Note_on_c, 0, 74, 64
1, 42835, Note_on_c, 0, 62, 54
1, 42835, Note_on_c, 0, 52, 0
1, 42835, Note_on_c, 0, 40, 0
1, 42835, Note_on_c, 0, 38, 40
1, 42927, Note_on_c, 0, 49, 53
1, 42927, Note_on_c, 0, 50, 0
1, 42927, Note_on_c, 0, 62, 0
1, 42927, Note_on_c, 0, 74, 0
1, 42927, Note_on_c, 0, 61, 60
1, 42927, Note_on_c, 0, 73, 71
1, 42927, Note_on_c, 0, 37, 45
1, 42927, Note_on_c, 0, 38, 0
1, 42939, Control_c, 0, 64, 0
1, 42961, Control_c, 0, 64, 127
1, 43018, Note_on_c, 0, 49, 0
1, 43018, Note_on_c, 0, 40, 42
1, 43018, Note_on_c, 0, 73, 0
1, 43018, Note_on_c, 0, 61, 0
1, 43018, Note_on_c, 0, 64, 56
1, 43018, Note_on_c, 0, 76, 67
1, 43018, Note_on_c, 0, 37, 0
1, 43018, Note_on_c, 0, 52, 50
1, 43108, Note_on_c, 0, 48, 54
1, 43108, Note_on_c, 0, 40, 0
1, 43108, Note_on_c, 0, 36, 46
1, 43108, Note_on_c, 0, 76, 0
1, 43108, Note_on_c, 0, 64, 0
1, 43108, Note_on_c, 0, 60, 62
1, 43108, Note_on_c, 0, 72, 73
1, 43108, Note_on_c, 0, 52, 0
1, 43123, Control_c, 0, 64, 0
1, 43141, Control_c, 0, 64, 127
1, 43198, Note_on_c, 0, 48, 0
1, 43198, Note_on_c, 0, 36, 0
1, 43198, Note_on_c, 0, 72, 0
1, 43198, Note_on_c, 0, 60, 0
1, 43198, Note_on_c, 0, 76, 69
1, 43198, Note_on_c, 0, 64, 58
1, 43198, Note_on_c, 0, 52, 51
1, 43198, Note_on_c, 0, 40, 43
1, 43288, Note_on_c, 0, 64, 0
1, 43288, Note_on_c, 0, 76, 0
1, 43288, Note_on_c, 0, 71, 73
1, 43291, Note_on_c, 0, 59, 62
1, 43291, Note_on_c, 0, 47, 54
1, 43291, Note_on_c, 0, 40, 0
1, 43294, Note_on_c, 0, 52, 0
1, 43294, Note_on_c, 0, 35, 46
1, 43304, Control_c, 0, 64, 0
1, 43361, Control_c, 0, 64, 127
1, 43375, Note_on_c, 0, 40, 42
1, 43375, Note_on_c, 0, 59, 0
1, 43375, Note_on_c, 0, 71, 0
1, 43375, Note_on_c, 0, 76, 67
1, 43375, Note_on_c, 0, 64, 56
1, 43375, Note_on_c, 0, 47, 0
1, 43378, Note_on_c, 0, 35, 0
1, 43378, Note_on_c, 0, 52, 50
1, 43466, Note_on_c, 0, 40, 0
1, 43466, Note_on_c, 0, 46, 57
1, 43466, Note_on_c, 0, 34, 48
1, 43466, Note_on_c, 0, 64, 0
1, 43466, Note_on_c, 0, 76, 0
1, 43466, Note_on_c, 0, 70, 76
1, 43466, Note_on_c, 0, 58, 64
1, 43466, Note_on_c, 0, 52, 0
1, 43562, Note_on_c, 0, 46, 0
1, 43562, Note_on_c, 0, 34, 0
1, 43562, Note_on_c, 0, 58, 0
1, 43562, Note_on_c, 0, 70, 0
1, 43562, Note_on_c, 0, 76, 70
1, 43562, Note_on_c, 0, 64, 59
1, 43562, Note_on_c, 0, 40, 44
1, 43562, Note_on_c, 0, 52, 52
1, 43662, Note_on_c, 0, 33, 51
1, 43662, Note_on_c, 0, 64, 0
1, 43662, Note_on_c, 0, 76, 0
1, 43665, Note_on_c, 0, 69, 81
1, 43665, Note_on_c, 0, 57, 68
1, 43665, Note_on_c, 0, 40, 0
1, 43668, Note_on_c, 0, 45, 60
1, 43668, Note_on_c, 0, 52, 0
1, 43700, Control_c, 0, 64, 0
1, 43821, Note_on_c, 0, 33, 0
1, 43821, Note_on_c, 0, 57, 0
1, 43821, Note_on_c, 0, 69, 0
1, 43821, Note_on_c, 0, 45, 0
1, 43982, Note_on_c, 0, 85, 76
1, 43982, Note_on_c, 0, 73, 76
1, 43982, Note_on_c, 0, 61, 56
1, 43982, Note_on_c, 0, 49, 47
1, 44021, Control_c, 0, 64, 127
1, 44186, Note_on_c, 0, 46, 45
1, 44186, Note_on_c, 0, 58, 53
1, 44186, Note_on_c, 0, 73, 0
1, 44186, Note_on_c, 0, 85, 0
1, 44186, Note_on_c, 0, 70, 57
1, 44186, Note_on_c, 0, 82, 68
1, 44186, Note_on_c, 0, 61, 0
1, 44189, Note_on_c, 0, 49, 0
1, 44289, Note_on_c, 0, 46, 0
1, 44289, Note_on_c, 0, 58, 0
1, 44289, Note_on_c, 0, 82, 0
1, 44289, Note_on_c, 0, 70, 0
1, 44289, Note_on_c, 0, 81, 73
1, 44289, Note_on_c, 0, 69, 62
1, 44292, Note_on_c, 0, 45, 48
1, 44292, Note_on_c, 0, 57, 57
1, 44384, Note_on_c, 0, 43, 43
1, 44384, Note_on_c, 0, 55, 51
1, 44384, Note_on_c, 0, 69, 0
1, 44384, Note_on_c, 0, 81, 0
1, 44384, Note_on_c, 0, 67, 59
1, 44384, Note_on_c, 0, 79, 70
1, 44384, Note_on_c, 0, 45, 0
1, 44384, Note_on_c, 0, 57, 0
1, 44477, Note_on_c, 0, 43, 0
1, 44477, Note_on_c, 0, 55, 0
1, 44477, Note_on_c, 0, 53, 51
1, 44477, Note_on_c, 0, 79, 0
1, 44477, Note_on_c, 0, 67, 0
1, 44477, Note_on_c, 0, 77, 68
1, 44477, Note_on_c, 0, 65, 57
1, 44477, Note_on_c, 0, 41, 43
1, 44570, Note_on_c, 0, 52, 56
1, 44570, Note_on_c, 0, 53, 0
1, 44570, Note_on_c, 0, 65, 0
1, 44573, Note_on_c, 0, 77, 0
1, 44573, Note_on_c, 0, 76, 72
1, 44573, Note_on_c, 0, 64, 61
1, 44576, Note_on_c, 0, 40, 47
1, 44576, Note_on_c, 0, 41, 0
1, 44576, Control_c, 0, 64, 0
1, 44600, Control_c, 0, 64, 127
1, 44660, Note_on_c, 0, 55, 50
1, 44660, Note_on_c, 0, 52, 0
1, 44660, Note_on_c, 0, 64, 0
1, 44660, Note_on_c, 0, 76, 0
1, 44660, Note_on_c, 0, 79, 64
1, 44660, Note_on_c, 0, 67, 54
1, 44660, Note_on_c, 0, 40, 0
1, 44660, Note_on_c, 0, 43, 42
1, 44751, Note_on_c, 0, 55, 0
1, 44751, Note_on_c, 0, 67, 0
1, 44751, Note_on_c, 0, 79, 0
1, 44751, Note_on_c, 0, 75, 72
1, 44751, Note_on_c, 0, 63, 61
1, 44751, Note_on_c, 0, 43, 0
1, 44751, Note_on_c, 0, 51, 56
1, 44751, Note_on_c, 0, 39, 47
1, 44757, Control_c, 0, 64, 0
1, 44788, Control_c, 0, 64, 127
1, 44840, Note_on_c, 0, 55, 49
1, 44840, Note_on_c, 0, 63, 0
1, 44840, Note_on_c, 0, 75, 0
1, 44840, Note_on_c, 0, 79, 66
1, 44840, Note_on_c, 0, 67, 56
1, 44840, Note_on_c, 0, 51, 0
1, 44843, Note_on_c, 0, 43, 41
1, 44843, Note_on_c, 0, 39, 0
1, 44929, Note_on_c, 0, 55, 0
1, 44929, Note_on_c, 0, 67, 0
1, 44929, Note_on_c, 0, 79, 0
1, 44929, Note_on_c, 0, 62, 62
1, 44929, Note_on_c, 0, 74, 73
1, 44929, Note_on_c, 0, 38, 48
1, 44929, Note_on_c, 0, 50, 57
1, 44932, Note_on_c, 0, 43, 0
1, 44932, Control_c, 0, 64, 0
1, 44960, Control_c, 0, 64, 127
1, 45019, Note_on_c, 0, 43, 42
1, 45019, Note_on_c, 0, 74, 0
1, 45019, Note_on_c, 0, 62, 0
1, 45019, Note_on_c, 0, 79, 66
1, 45019, Note_on_c, 0, 67, 56
1, 45019, Note_on_c, 0, 50, 0
1, 45019, Note_on_c, 0, 38, 0
1, 45019, Note_on_c, 0, 55, 50
1, 45106, Note_on_c, 0, 37, 48
1, 45106, Note_on_c, 0, 43, 0
1, 45106, Note_on_c, 0, 67, 0
1, 45106, Note_on_c, 0, 79, 0
1, 45106, Note_on_c, 0, 73, 74
1, 45106, Note_on_c, 0, 61, 62
1, 45106, Note_on_c, 0, 55, 0
1, 45106, Note_on_c, 0, 49, 57
1, 45194, Note_on_c, 0, 37, 0
1, 45194, Note_on_c, 0, 43, 42
1, 45194, Note_on_c, 0, 61, 0
1, 45194, Note_on_c, 0, 73, 0
1, 45194, Note_on_c, 0, 79, 67
1, 45194, Note_on_c, 0, 67, 56
1, 45194, Note_on_c, 0, 49, 0
1, 45197, Note_on_c, 0, 55, 50
1, 45287, Note_on_c, 0, 43, 0
1, 45287, Note_on_c, 0, 34, 51
1, 45287, Note_on_c, 0, 67, 0
1, 45287, Note_on_c, 0, 79, 0
1, 45287, Note_on_c, 0, 58, 63
1, 45287, Note_on_c, 0, 70, 75
1, 45287, Note_on_c, 0, 46, 60
1, 45287, Note_on_c, 0, 55, 0
1, 45392, Note_on_c, 0, 55, 61
1, 45392, Note_on_c, 0, 34, 0
1, 45392, Note_on_c, 0, 43, 49
1, 45392, Note_on_c, 0, 70, 0
1, 45392, Note_on_c, 0, 58, 0
1, 45392, Note_on_c, 0, 67, 69
1, 45392, Note_on_c, 0, 79, 86
1, 45392, Note_on_c, 0, 46, 0
1, 45426, Control_c, 0, 64, 0
1, 45463, Note_on_c, 0, 55, 0
1, 45463, Note_on_c, 0, 43, 0
1, 45463, Note_on_c, 0, 79, 0
1, 45463, Note_on_c, 0, 67, 0
1, 45534, Note_on_c, 0, 57, 63
1, 45534, Note_on_c, 0, 69, 74
1, 45534, Note_on_c, 0, 33, 45
1, 45537, Note_on_c, 0, 45, 54
1, 45630, Note_on_c, 0, 69, 0
1, 45630, Note_on_c, 0, 57, 0
1, 45630, Note_on_c, 0, 45, 0
1, 45633, Note_on_c, 0, 33, 0
1, 45725, Note_on_c, 0, 52, 44
1, 45725, Note_on_c, 0, 64, 52
1, 45725, Note_on_c, 0, 88, 74
1, 45725, Note_on_c, 0, 76, 63
1, 45725, Control_c, 0, 64, 127
1, 45931, Note_on_c, 0, 52, 0
1, 45931, Note_on_c, 0, 64, 0
1, 45931, Note_on_c, 0, 62, 45
1, 45931, Note_on_c, 0, 76, 0
1, 45931, Note_on_c, 0, 88, 0
1, 45931, Note_on_c, 0, 74, 54
1, 45931, Note_on_c, 0, 86, 64
1, 45934, Note_on_c, 0, 50, 37
1, 46032, Note_on_c, 0, 61, 49
1, 46032, Note_on_c, 0, 49, 41
1, 46032, Note_on_c, 0, 62, 0
1, 46032, Note_on_c, 0, 86, 0
1, 46032, Note_on_c, 0, 74, 0
1, 46032, Note_on_c, 0, 85, 71
1, 46032, Note_on_c, 0, 73, 60
1, 46035, Note_on_c, 0, 50, 0
1, 46129, Note_on_c, 0, 61, 0
1, 46129, Note_on_c, 0, 58, 41
1, 46129, Note_on_c, 0, 49, 0
1, 46129, Note_on_c, 0, 73, 0
1, 46129, Note_on_c, 0, 85, 0
1, 46129, Note_on_c, 0, 82, 60
1, 46129, Note_on_c, 0, 70, 50
1, 46129, Note_on_c, 0, 46, 35
1, 46225, Note_on_c, 0, 58, 0
1, 46225, Note_on_c, 0, 57, 41
1, 46225, Note_on_c, 0, 70, 0
1, 46225, Note_on_c, 0, 82, 0
1, 46225, Note_on_c, 0, 81, 60
1, 46225, Note_on_c, 0, 69, 50
1, 46225, Note_on_c, 0, 46, 0
1, 46225, Note_on_c, 0, 45, 35
1, 46326, Note_on_c, 0, 57, 0
1, 46326, Note_on_c, 0, 55, 41
1, 46326, Note_on_c, 0, 67, 49
1, 46326, Note_on_c, 0, 69, 0
1, 46326, Note_on_c, 0, 81, 0
1, 46326, Note_on_c, 0, 91, 71
1, 46326, Note_on_c, 0, 79, 60
1, 46329, Note_on_c, 0, 45, 0
1, 46329, Control_c, 0, 64, 0
1, 46358, Control_c, 0, 64, 127
1, 46424, Note_on_c, 0, 67, 0
1, 46424, Note_on_c, 0, 55, 0
1, 46424, Note_on_c, 0, 53, 41
1, 46424, Note_on_c, 0, 79, 0
1, 46424, Note_on_c, 0, 91, 0
1, 46424, Note_on_c, 0, 89, 70
1, 46424, Note_on_c, 0, 77, 59
1, 46424, Note_on_c, 0, 65, 48
1, 46522, Note_on_c, 0, 53, 0
1, 46522, Note_on_c, 0, 77, 0
1, 46522, Note_on_c, 0, 89, 0
1, 46525, Note_on_c, 0, 88, 68
1, 46525, Note_on_c, 0, 76, 57
1, 46525, Note_on_c, 0, 52, 39
1, 46528, Note_on_c, 0, 64, 47
1, 46528, Note_on_c, 0, 65, 0
1, 46619, Note_on_c, 0, 50, 38
1, 46619, Note_on_c, 0, 76, 0
1, 46619, Note_on_c, 0, 88, 0
1, 46619, Note_on_c, 0, 86, 66
1, 46619, Note_on_c, 0, 74, 55
1, 46619, Note_on_c, 0, 52, 0
1, 46619, Note_on_c, 0, 64, 0
1, 46619, Note_on_c, 0, 62, 45
1, 46716, Note_on_c, 0, 50, 0
1, 46716, Note_on_c, 0, 49, 38
1, 46716, Note_on_c, 0, 74, 0
1, 46716, Note_on_c, 0, 86, 0
1, 46716, Note_on_c, 0, 85, 65
1, 46716, Note_on_c, 0, 73, 55
1, 46716, Note_on_c, 0, 62, 0
1, 46716, Note_on_c, 0, 61, 45
1, 46814, Note_on_c, 0, 49, 0
1, 46814, Note_on_c, 0, 70, 46
1, 46814, Note_on_c, 0, 73, 0
1, 46817, Note_on_c, 0, 85, 0
1, 46817, Note_on_c, 0, 82, 57
1, 46817, Note_on_c, 0, 94, 67
1, 46820, Note_on_c, 0, 61, 0
1, 46820, Note_on_c, 0, 58, 39
1, 46820, Control_c, 0, 64, 0
1, 46862, Control_c, 0, 64, 127
1, 46916, Note_on_c, 0, 69, 53
1, 46916, Note_on_c, 0, 70, 0
1, 46916, Note_on_c, 0, 57, 44
1, 46916, Note_on_c, 0, 94, 0
1, 46916, Note_on_c, 0, 82, 0
1, 46916, Note_on_c, 0, 81, 64
1, 46916, Note_on_c, 0, 93, 76
1, 46916, Note_on_c, 0, 58, 0
1, 47012, Note_on_c, 0, 55, 43
1, 47012, Note_on_c, 0, 69, 0
1, 47012, Note_on_c, 0, 57, 0
1, 47012, Note_on_c, 0, 93, 0
1, 47012, Note_on_c, 0, 81, 0
1, 47012, Note_on_c, 0, 79, 62
1, 47012, Note_on_c, 0, 91, 74
1, 47012, Note_on_c, 0, 67, 51
1, 47109, Note_on_c, 0, 55, 0
1, 47109, Note_on_c, 0, 65, 48
1, 47109, Note_on_c, 0, 53, 40
1, 47109, Note_on_c, 0, 91, 0
1, 47109, Note_on_c, 0, 79, 0
1, 47109, Note_on_c, 0, 77, 58
1, 47109, Note_on_c, 0, 89, 69
1, 47109, Note_on_c, 0, 67, 0
1, 47205, Note_on_c, 0, 65, 0
1, 47205, Note_on_c, 0, 53, 0
1, 47205, Note_on_c, 0, 89, 0
1, 47205, Note_on_c, 0, 77, 0
1, 47205, Note_on_c, 0, 76, 55
1, 47205, Note_on_c, 0, 88, 65
1, 47205, Note_on_c, 0, 52, 38
1, 47205, Note_on_c, 0, 64, 45
1, 47303, Note_on_c, 0, 88, 0
1, 47303, Note_on_c, 0, 76, 0
1, 47303, Note_on_c, 0, 88, 69
1, 47306, Note_on_c, 0, 100, 82
1, 47306, Note_on_c, 0, 52, 0
1, 47306, Note_on_c, 0, 64, 0
1, 47309, Note_on_c, 0, 76, 57
1, 47309, Note_on_c, 0, 64, 48
1, 47315, Control_c, 0, 64, 0
1, 47343, Control_c, 0, 64, 127
1, 47403, Note_on_c, 0, 62, 47
1, 47403, Note_on_c, 0, 100, 0
1, 47403, Note_on_c, 0, 88, 0
1, 47403, Note_on_c, 0, 98, 81
1, 47403, Note_on_c, 0, 86, 68
1, 47403, Note_on_c, 0, 74, 56
1, 47403, Note_on_c, 0, 76, 0
1, 47403, Note_on_c, 0, 64, 0
1, 47499, Note_on_c, 0, 62, 0
1, 47499, Note_on_c, 0, 86, 0
1, 47499, Note_on_c, 0, 98, 0
1, 47499, Note_on_c, 0, 97, 79
1, 47499, Note_on_c, 0, 85, 67
1, 47499, Note_on_c, 0, 74, 0
1, 47499, Note_on_c, 0, 61, 46
1, 47499, Note_on_c, 0, 73, 55
1, 47596, Note_on_c, 0, 70, 51
1, 47596, Note_on_c, 0, 85, 0
1, 47596, Note_on_c, 0, 97, 0
1, 47596, Note_on_c, 0, 82, 62
1, 47596, Note_on_c, 0, 94, 74
1, 47596, Note_on_c, 0, 61, 0
1, 47596, Note_on_c, 0, 73, 0
1, 47596, Note_on_c, 0, 58, 43
1, 47692, Note_on_c, 0, 69, 56
1, 47692, Note_on_c, 0, 70, 0
1, 47692, Note_on_c, 0, 94, 0
1, 47692, Note_on_c, 0, 82, 0
1, 47692, Note_on_c, 0, 93, 80
1, 47692, Note_on_c, 0, 81, 68
1, 47692, Note_on_c, 0, 58, 0
1, 47692, Note_on_c, 0, 57, 47
1, 47788, Note_on_c, 0, 69, 0
1, 47788, Note_on_c, 0, 70, 50
1, 47788, Note_on_c, 0, 58, 42
1, 47788, Note_on_c, 0, 81, 0
1, 47788, Note_on_c, 0, 93, 0
1, 47788, Note_on_c, 0, 94, 72
1, 47788, Note_on_c, 0, 82, 61
1, 47791, Note_on_c, 0, 57, 0
1, 47882, Control_c, 0, 64, 0
1, 47882, Note_on_c, 0, 70, 0
1, 47882, Note_on_c, 0, 58, 0
1, 47885, Note_on_c, 0, 82, 0
1, 47885, Note_on_c, 0, 94, 0
1, 47885, Note_on_c, 0, 91, 81
1, 47888, Note_on_c, 0, 79, 68
1, 47888, Note_on_c, 0, 67, 56
1, 47888, Note_on_c, 0, 55, 47
1, 47912, Control_c, 0, 64, 127
1, 47980, Note_on_c, 0, 58, 42
1, 47980, Note_on_c, 0, 79, 0
1, 47980, Note_on_c, 0, 91, 0
1, 47980, Note_on_c, 0, 82, 60
1, 47980, Note_on_c, 0, 94, 71
1, 47980, Note_on_c, 0, 67, 0
1, 47980, Note_on_c, 0, 70, 49
1, 47980, Note_on_c, 0, 55, 0
1, 48074, Note_on_c, 0, 53, 47
1, 48074, Note_on_c, 0, 58, 0
1, 48074, Note_on_c, 0, 94, 0
1, 48074, Note_on_c, 0, 82, 0
1, 48074, Note_on_c, 0, 89, 80
1, 48074, Note_on_c, 0, 77, 68
1, 48074, Note_on_c, 0, 70, 0
1, 48074, Note_on_c, 0, 65, 56
1, 48169, Note_on_c, 0, 53, 0
1, 48169, Note_on_c, 0, 67, 50
1, 48169, Note_on_c, 0, 77, 0
1, 48169, Note_on_c, 0, 89, 0
1, 48169, Note_on_c, 0, 91, 72
1, 48169, Note_on_c, 0, 79, 61
1, 48169, Note_on_c, 0, 55, 42
1, 48169, Note_on_c, 0, 65, 0
1, 48264, Note_on_c, 0, 64, 56
1, 48264, Note_on_c, 0, 67, 0
1, 48264, Note_on_c, 0, 79, 0
1, 48264, Note_on_c, 0, 91, 0
1, 48264, Note_on_c, 0, 88, 81
1, 48264, Note_on_c, 0, 76, 68
1, 48264, Note_on_c, 0, 55, 0
1, 48264, Note_on_c, 0, 52, 47
1, 48358, Note_on_c, 0, 64, 0
1, 48358, Note_on_c, 0, 67, 50
1, 48358, Note_on_c, 0, 55, 42
1, 48358, Note_on_c, 0, 76, 0
1, 48358, Note_on_c, 0, 88, 0
1, 48358, Note_on_c, 0, 79, 61
1, 48358, Note_on_c, 0, 91, 72
1, 48358, Note_on_c, 0, 52, 0
1, 48452, Note_on_c, 0, 67, 0
1, 48452, Note_on_c, 0, 55, 0
1, 48452, Note_on_c, 0, 50, 48
1, 48452, Note_on_c, 0, 91, 0
1, 48452, Note_on_c, 0, 79, 0
1, 48452, Note_on_c, 0, 74, 69
1, 48452, Note_on_c, 0, 86, 82
1, 48455, Note_on_c, 0, 62, 57
1, 48547, Note_on_c, 0, 50, 0
1, 48547, Note_on_c, 0, 86, 0
1, 48547, Note_on_c, 0, 74, 0
1, 48547, Note_on_c, 0, 76, 62
1, 48547, Note_on_c, 0, 88, 74
1, 48547, Note_on_c, 0, 62, 0
1, 48547, Note_on_c, 0, 52, 43
1, 48547, Note_on_c, 0, 64, 51
1, 48641, Note_on_c, 0, 49, 47
1, 48641, Note_on_c, 0, 88, 0
1, 48641, Note_on_c, 0, 76, 0
1, 48644, Note_on_c, 0, 73, 68
1, 48644, Note_on_c, 0, 85, 81
1, 48644, Note_on_c, 0, 64, 0
1, 48647, Note_on_c, 0, 52, 0
1, 48647, Note_on_c, 0, 61, 56
1, 48734, Note_on_c, 0, 49, 0
1, 48734, Note_on_c, 0, 52, 42
1, 48734, Note_on_c, 0, 85, 0
1, 48737, Note_on_c, 0, 73, 0
1, 48737, Note_on_c, 0, 76, 61
1, 48737, Note_on_c, 0, 88, 72
1, 48740, Note_on_c, 0, 64, 50
1, 48740, Note_on_c, 0, 61, 0
1, 48827, Note_on_c, 0, 46, 46
1, 48827, Note_on_c, 0, 52, 0
1, 48827, Note_on_c, 0, 58, 55
1, 48830, Note_on_c, 0, 88, 0
1, 48830, Note_on_c, 0, 76, 0
1, 48830, Note_on_c, 0, 82, 79
1, 48833, Note_on_c, 0, 70, 67
1, 48833, Note_on_c, 0, 64, 0
1, 48918, Control_c, 0, 64, 0
1, 48918, Note_on_c, 0, 46, 0
1, 48918, Note_on_c, 0, 49, 41
1, 48918, Note_on_c, 0, 58, 0
1, 48918, Note_on_c, 0, 61, 49
1, 48918, Note_on_c, 0, 70, 0
1, 48918, Note_on_c, 0, 82, 0
1, 48918, Note_on_c, 0, 85, 70
1, 48918, Note_on_c, 0, 73, 59
1, 48942, Control_c, 0, 64, 127
1, 49011, Note_on_c, 0, 49, 0
1, 49011, Note_on_c, 0, 61, 0
1, 49011, Note_on_c, 0, 45, 45
1, 49014, Note_on_c, 0, 57, 53
1, 49014, Note_on_c, 0, 73, 0
1, 49014, Note_on_c, 0, 85, 0
1, 49017, Note_on_c, 0, 69, 65
1, 49017, Note_on_c, 0, 81, 77
1, 49103, Note_on_c, 0, 46, 39
1, 49103, Note_on_c, 0, 57, 0
1, 49103, Note_on_c, 0, 45, 0
1, 49103, Note_on_c, 0, 81, 0
1, 49103, Note_on_c, 0, 69, 0
1, 49103, Note_on_c, 0, 70, 57
1, 49103, Note_on_c, 0, 82, 68
1, 49103, Note_on_c, 0, 58, 47
1, 49194, Note_on_c, 0, 55, 51
1, 49194, Note_on_c, 0, 46, 0
1, 49194, Note_on_c, 0, 82, 0
1, 49194, Note_on_c, 0, 70, 0
1, 49194, Note_on_c, 0, 79, 74
1, 49194, Note_on_c, 0, 67, 62
1, 49197, Note_on_c, 0, 58, 0
1, 49197, Note_on_c, 0, 43, 43
1, 49286, Note_on_c, 0, 55, 0
1, 49286, Note_on_c, 0, 46, 39
1, 49286, Note_on_c, 0, 58, 46
1, 49286, Note_on_c, 0, 67, 0
1, 49286, Note_on_c, 0, 79, 0
1, 49286, Note_on_c, 0, 70, 56
1, 49286, Note_on_c, 0, 82, 67
1, 49289, Note_on_c, 0, 43, 0
1, 49379, Note_on_c, 0, 46, 0
1, 49379, Note_on_c, 0, 58, 0
1, 49379, Note_on_c, 0, 53, 54
1, 49379, Note_on_c, 0, 82, 0
1, 49379, Note_on_c, 0, 70, 0
1, 49379, Note_on_c, 0, 77, 78
1, 49379, Note_on_c, 0, 65, 66
1, 49379, Note_on_c, 0, 41, 46
1, 49471, Note_on_c, 0, 43, 40
1, 49471, Note_on_c, 0, 53, 0
1, 49471, Note_on_c, 0, 55, 48
1, 49471, Note_on_c, 0, 65, 0
1, 49471, Note_on_c, 0, 77, 0
1, 49471, Note_on_c, 0, 67, 58
1, 49471, Note_on_c, 0, 79, 69
1, 49471, Note_on_c, 0, 41, 0
1, 49563, Note_on_c, 0, 43, 0
1, 49563, Note_on_c, 0, 55, 0
1, 49563, Note_on_c, 0, 79, 0
1, 49563, Note_on_c, 0, 67, 0
1, 49563, Note_on_c, 0, 64, 63
1, 49563, Note_on_c, 0, 76, 75
1, 49563, Note_on_c, 0, 52, 52
1, 49563, Note_on_c, 0, 40, 44
1, 49655, Note_on_c, 0, 43, 40
1, 49655, Note_on_c, 0, 76, 0
1, 49655, Note_on_c, 0, 64, 0
1, 49655, Note_on_c, 0, 67, 58
1, 49655, Note_on_c, 0, 79, 69
1, 49655, Note_on_c, 0, 40, 0
1, 49655, Note_on_c, 0, 52, 0
1, 49655, Note_on_c, 0, 55, 48
1, 49747, Note_on_c, 0, 43, 0
1, 49747, Note_on_c, 0, 38, 44
1, 49747, Note_on_c, 0, 79, 0
1, 49747, Note_on_c, 0, 67, 0
1, 49747, Note_on_c, 0, 74, 76
1, 49747, Note_on_c, 0, 62, 64
1, 49747, Note_on_c, 0, 50, 53
1, 49750, Note_on_c, 0, 55, 0
1, 49839, Note_on_c, 0, 52, 49
1, 49839, Note_on_c, 0, 40, 41
1, 49839, Note_on_c, 0, 38, 0
1, 49839, Note_on_c, 0, 62, 0
1, 49839, Note_on_c, 0, 74, 0
1, 49839, Note_on_c, 0, 76, 70
1, 49839, Note_on_c, 0, 64, 59
1, 49839, Note_on_c, 0, 50, 0
1, 49931, Note_on_c, 0, 52, 0
1, 49931, Note_on_c, 0, 40, 0
1, 49931, Note_on_c, 0, 37, 44
1, 49931, Note_on_c, 0, 64, 0
1, 49931, Note_on_c, 0, 76, 0
1, 49931, Note_on_c, 0, 73, 76
1, 49931, Note_on_c, 0, 61, 64
1, 49934, Note_on_c, 0, 49, 53
1, 50024, Note_on_c, 0, 52, 48
1, 50024, Note_on_c, 0, 37, 0
1, 50024, Note_on_c, 0, 61, 0
1, 50024, Note_on_c, 0, 73, 0
1, 50024, Note_on_c, 0, 64, 58
1, 50024, Note_on_c, 0, 76, 69
1, 50024, Note_on_c, 0, 40, 40
1, 50027, Note_on_c, 0, 49, 0
1, 50117, Note_on_c, 0, 52, 0
1, 50117, Note_on_c, 0, 34, 45
1, 50117, Note_on_c, 0, 76, 0
1, 50117, Note_on_c, 0, 64, 0
1, 50117, Note_on_c, 0, 70, 77
1, 50117, Note_on_c, 0, 58, 65
1, 50117, Note_on_c, 0, 46, 53
1, 50117, Note_on_c, 0, 40, 0
1, 50210, Note_on_c, 0, 34, 0
1, 50210, Note_on_c, 0, 37, 42
1, 50210, Note_on_c, 0, 49, 49
1, 50210, Note_on_c, 0, 58, 0
1, 50210, Note_on_c, 0, 70, 0
1, 50210, Note_on_c, 0, 73, 71
1, 50210, Note_on_c, 0, 61, 60
1, 50210, Note_on_c, 0, 46, 0
1, 50303, Note_on_c, 0, 37, 0
1, 50303, Note_on_c, 0, 49, 0
1, 50303, Note_on_c, 0, 61, 0
1, 50303, Note_on_c, 0, 73, 0
1, 50303, Note_on_c, 0, 69, 78
1, 50303, Note_on_c, 0, 57, 66
1, 50303, Note_on_c, 0, 33, 46
1, 50306, Note_on_c, 0, 45, 54
1, 50397, Note_on_c, 0, 34, 42
1, 50397, Note_on_c, 0, 57, 0
1, 50397, Note_on_c, 0, 69, 0
1, 50397, Note_on_c, 0, 70, 72
1, 50397, Note_on_c, 0, 58, 61
1, 50397, Note_on_c, 0, 33, 0
1, 50397, Note_on_c, 0, 45, 0
1, 50397, Note_on_c, 0, 46, 50
1, 50491, Note_on_c, 0, 34, 0
1, 50491, Note_on_c, 0, 44, 55
1, 50491, Note_on_c, 0, 58, 0
1, 50494, Note_on_c, 0, 70, 0
1, 50494, Note_on_c, 0, 56, 67
1, 50494, Note_on_c, 0, 68, 79
1, 50497, Note_on_c, 0, 32, 46
1, 50497, Note_on_c, 0, 46, 0
1, 50584, Note_on_c, 0, 44, 0
1, 50584, Note_on_c, 0, 33, 42
1, 50584, Note_on_c, 0, 68, 0
1, 50584, Note_on_c, 0, 56, 0
1, 50584, Note_on_c, 0, 57, 60
1, 50584, Note_on_c, 0, 69, 71
1, 50584, Note_on_c, 0, 32, 0
1, 50584, Control_c, 0, 64, 0
1, 50584, Note_on_c, 0, 45, 49
1, 50648, Control_c, 0, 64, 127
1, 50678, Note_on_c, 0, 43, 55
1, 50678, Note_on_c, 0, 33, 0
1, 50678, Note_on_c, 0, 69, 0
1, 50678, Note_on_c, 0, 57, 0
1, 50678, Note_on_c, 0, 55, 67
1, 50678, Note_on_c, 0, 67, 79
1, 50678, Note_on_c, 0, 31, 46
1, 50678, Note_on_c, 0, 45, 0
1, 50772, Note_on_c, 0, 43, 0
1, 50772, Note_on_c, 0, 67, 0
1, 50772, Note_on_c, 0, 55, 0
1, 50772, Note_on_c, 0, 69, 72
1, 50772, Note_on_c, 0, 57, 61
1, 50772, Note_on_c, 0, 31, 0
1, 50772, Note_on_c, 0, 45, 50
1, 50772, Note_on_c, 0, 33, 42
1, 50865, Note_on_c, 0, 30, 46
1, 50865, Note_on_c, 0, 57, 0
1, 50865, Note_on_c, 0, 69, 0
1, 50865, Note_on_c, 0, 54, 67
1, 50865, Note_on_c, 0, 66, 79
1, 50865, Note_on_c, 0, 45, 0
1, 50868, Note_on_c, 0, 33, 0
1, 50868, Note_on_c, 0, 42, 55
1, 50959, Note_on_c, 0, 30, 0
1, 50959, Note_on_c, 0, 66, 0
1, 50959, Note_on_c, 0, 54, 0
1, 50959, Note_on_c, 0, 57, 62
1, 50959, Note_on_c, 0, 69, 73
1, 50959, Note_on_c, 0, 33, 43
1, 50959, Note_on_c, 0, 45, 51
1, 50962, Note_on_c, 0, 42, 0
1, 51054, Note_on_c, 0, 29, 47
1, 51054, Note_on_c, 0, 41, 56
1, 51054, Note_on_c, 0, 69, 0
1, 51054, Note_on_c, 0, 57, 0
1, 51054, Note_on_c, 0, 65, 80
1, 51054, Note_on_c, 0, 53, 68
1, 51054, Note_on_c, 0, 45, 0
1, 51054, Note_on_c, 0, 33, 0
1, 51147, Note_on_c, 0, 45, 50
1, 51147, Note_on_c, 0, 33, 42
1, 51147, Note_on_c, 0, 29, 0
1, 51147, Note_on_c, 0, 41, 0
1, 51147, Note_on_c, 0, 53, 0
1, 51147, Note_on_c, 0, 65, 0
1, 51147, Note_on_c, 0, 57, 61
1, 51147, Note_on_c, 0, 69, 72
1, 51241, Note_on_c, 0, 45, 0
1, 51241, Note_on_c, 0, 33, 0
1, 51241, Note_on_c, 0, 28, 47
1, 51241, Note_on_c, 0, 69, 0
1, 51241, Note_on_c, 0, 57, 0
1, 51241, Note_on_c, 0, 64, 81
1, 51241, Note_on_c, 0, 52, 68
1, 51241, Note_on_c, 0, 40, 56
1, 51335, Note_on_c, 0, 45, 51
1, 51335, Note_on_c, 0, 28, 0
1, 51335, Note_on_c, 0, 33, 43
1, 51335, Note_on_c, 0, 52, 0
1, 51335, Note_on_c, 0, 64, 0
1, 51335, Note_on_c, 0, 69, 74
1, 51335, Note_on_c, 0, 57, 62
1, 51335, Note_on_c, 0, 40, 0
1, 51426, Control_c, 0, 64, 0
1, 51426, Note_on_c, 0, 45, 0
1, 51426, Note_on_c, 0, 33, 0
1, 51429, Note_on_c, 0, 57, 0
1, 51429, Note_on_c, 0, 69, 0
1, 51429, Note_on_c, 0, 63, 81
1, 51432, Note_on_c, 0, 51, 68
1, 51432, Note_on_c, 0, 27, 47
1, 51432, Note_on_c, 0, 39, 56
1, 51461, Control_c, 0, 64, 127
1, 51542, Note_on_c, 0, 45, 49
1, 51542, Note_on_c, 0, 33, 42
1, 51542, Note_on_c, 0, 51, 0
1, 51542, Note_on_c, 0, 63, 0
1, 51542, Note_on_c, 0, 57, 60
1, 51542, Note_on_c, 0, 69, 71
1, 51545, Note_on_c, 0, 27, 0
1, 51545, Note_on_c, 0, 39, 0
1, 51658, Note_on_c, 0, 45, 0
1, 51658, Note_on_c, 0, 24, 48
1, 51658, Note_on_c, 0, 36, 57
1, 51658, Note_on_c, 0, 33, 0
1, 51658, Note_on_c, 0, 69, 0
1, 51658, Note_on_c, 0, 57, 0
1, 51658, Note_on_c, 0, 60, 82
1, 51658, Note_on_c, 0, 48, 69
1, 51776, Note_on_c, 0, 24, 0
1, 51776, Note_on_c, 0, 36, 0
1, 51776, Note_on_c, 0, 45, 52
1, 51776, Note_on_c, 0, 48, 0
1, 51776, Note_on_c, 0, 60, 0
1, 51776, Note_on_c, 0, 57, 63
1, 51776, Note_on_c, 0, 69, 75
1, 51776, Note_on_c, 0, 33, 44
1, 51896, Note_on_c, 0, 25, 49
1, 51896, Note_on_c, 0, 45, 0
1, 51896, Note_on_c, 0, 69, 0
1, 51896, Note_on_c, 0, 57, 0
1, 51896, Note_on_c, 0, 49, 70
1, 51896, Note_on_c, 0, 61, 83
1, 51896, Note_on_c, 0, 37, 58
1, 51896, Note_on_c, 0, 33, 0
1, 52018, Note_on_c, 0, 25, 0
1, 52018, Note_on_c, 0, 61, 0
1, 52018, Note_on_c, 0, 49, 0
1, 52018, Note_on_c, 0, 57, 65
1, 52018, Note_on_c, 0, 69, 77
1, 52018, Note_on_c, 0, 33, 45
1, 52018, Note_on_c, 0, 37, 0
1, 52018, Note_on_c, 0, 45, 53
1, 52158, Note_on_c, 0, 69, 0
1, 52158, Note_on_c, 0, 57, 0
1, 52158, Note_on_c, 0, 86, 97
1, 52161, Note_on_c, 0, 74, 76
1, 52161, Note_on_c, 0, 77, 76
1, 52161, Note_on_c, 0, 45, 59
1, 52164, Note_on_c, 0, 50, 74
1, 52164, Note_on_c, 0, 38, 59
1, 52164, Control_c, 0, 64, 0
1, 52167, Note_on_c, 0, 33, 0
1, 52167, Note_on_c, 0, 45, 0
1, 52228, Control_c, 0, 64, 127
1, 52286, Note_on_c, 0, 50, 0
1, 52286, Note_on_c, 0, 45, 0
1, 52286, Note_on_c, 0, 38, 0
1, 52289, Note_on_c, 0, 52, 48
1, 52289, Note_on_c, 0, 56, 60
1, 52394, Note_on_c, 0, 56, 0
1, 52394, Note_on_c, 0, 52, 0
1, 52394, Note_on_c, 0, 57, 63
1, 52397, Note_on_c, 0, 53, 50
1, 52497, Note_on_c, 0, 64, 65
1, 52497, Note_on_c, 0, 61, 51
1, 52497, Note_on_c, 0, 53, 0
1, 52500, Note_on_c, 0, 57, 0
1, 52599, Note_on_c, 0, 61, 0
1, 52599, Note_on_c, 0, 64, 0
1, 52599, Note_on_c, 0, 62, 54
1, 52602, Note_on_c, 0, 65, 67
1, 52701, Note_on_c, 0, 65, 0
1, 52701, Note_on_c, 0, 62, 0
1, 52701, Note_on_c, 0, 38, 75
1, 52802, Note_on_c, 0, 77, 0
1, 52802, Note_on_c, 0, 74, 0
1, 52802, Note_on_c, 0, 86, 0
1, 52805, Note_on_c, 0, 86, 101
1, 52805, Note_on_c, 0, 77, 79
1, 52805, Note_on_c, 0, 74, 75
1, 52808, Note_on_c, 0, 45, 62
1, 52808, Note_on_c, 0, 50, 78
1, 52814, Control_c, 0, 64, 0
1, 52877, Control_c, 0, 64, 127
1, 52906, Note_on_c, 0, 50, 0
1, 52906, Note_on_c, 0, 45, 0
1, 52906, Note_on_c, 0, 38, 0
1, 52909, Note_on_c, 0, 56, 60
1, 52909, Note_on_c, 0, 52, 48
1, 53010, Note_on_c, 0, 52, 0
1, 53010, Note_on_c, 0, 56, 0
1, 53010, Note_on_c, 0, 57, 63
1, 53013, Note_on_c, 0, 53, 50
1, 53113, Note_on_c, 0, 74, 0
1, 53113, Note_on_c, 0, 77, 0
1, 53113, Note_on_c, 0, 86, 0
1, 53116, Note_on_c, 0, 64, 65
1, 53116, Note_on_c, 0, 61, 51
1, 53116, Note_on_c, 0, 53, 0
1, 53119, Note_on_c, 0, 57, 0
1, 53217, Note_on_c, 0, 61, 0
1, 53217, Note_on_c, 0, 64, 0
1, 53217, Note_on_c, 0, 62, 54
1, 53220, Note_on_c, 0, 65, 67
1, 53327, Note_on_c, 0, 65, 0
1, 53327, Note_on_c, 0, 62, 0
1, 53327, Note_on_c, 0, 38, 75
1, 53357, Note_on_c, 0, 72, 70
1, 53357, Note_on_c, 0, 84, 89
1, 53444, Note_on_c, 0, 84, 0
1, 53444, Note_on_c, 0, 72, 0
1, 53444, Note_on_c, 0, 82, 100
1, 53447, Note_on_c, 0, 76, 77
1, 53447, Note_on_c, 0, 70, 75
1, 53447, Note_on_c, 0, 43, 63
1, 53450, Note_on_c, 0, 50, 79
1, 53450, Control_c, 0, 64, 0
1, 53545, Control_c, 0, 64, 127
1, 53548, Note_on_c, 0, 50, 0
1, 53548, Note_on_c, 0, 43, 0
1, 53548, Note_on_c, 0, 38, 0
1, 53551, Note_on_c, 0, 54, 48
1, 53551, Note_on_c, 0, 57, 60
1, 53651, Note_on_c, 0, 57, 0
1, 53651, Note_on_c, 0, 54, 0
1, 53651, Note_on_c, 0, 55, 50
1, 53654, Note_on_c, 0, 58, 63
1, 53754, Note_on_c, 0, 70, 0
1, 53754, Note_on_c, 0, 76, 0
1, 53754, Note_on_c, 0, 82, 0
1, 53757, Note_on_c, 0, 63, 51
1, 53757, Note_on_c, 0, 66, 65
1, 53757, Note_on_c, 0, 58, 0
1, 53760, Note_on_c, 0, 55, 0
1, 53856, Note_on_c, 0, 66, 0
1, 53856, Note_on_c, 0, 63, 0
1, 53856, Note_on_c, 0, 64, 54
1, 53859, Note_on_c, 0, 67, 67
1, 53958, Note_on_c, 0, 67, 0
1, 53958, Note_on_c, 0, 64, 0
1, 53958, Note_on_c, 0, 38, 75
1, 54059, Note_on_c, 0, 70, 72
1, 54059, Note_on_c, 0, 76, 72
1, 54059, Note_on_c, 0, 82, 92
1, 54062, Note_on_c, 0, 50, 75
1, 54062, Note_on_c, 0, 43, 59
1, 54094, Control_c, 0, 64, 0
1, 54164, Note_on_c, 0, 43, 0
1, 54164, Note_on_c, 0, 50, 0
1, 54164, Note_on_c, 0, 38, 0
1, 54167, Note_on_c, 0, 54, 48
1, 54167, Note_on_c, 0, 57, 60
1, 54183, Control_c, 0, 64, 127
1, 54267, Note_on_c, 0, 57, 0
1, 54267, Note_on_c, 0, 54, 0
1, 54267, Note_on_c, 0, 58, 63
1, 54270, Note_on_c, 0, 55, 50
1, 54370, Note_on_c, 0, 82, 0
1, 54370, Note_on_c, 0, 76, 0
1, 54370, Note_on_c, 0, 70, 0
1, 54373, Note_on_c, 0, 63, 51
1, 54373, Note_on_c, 0, 66, 65
1, 54373, Note_on_c, 0, 55, 0
1, 54376, Note_on_c, 0, 58, 0
1, 54472, Note_on_c, 0, 66, 0
1, 54472, Note_on_c, 0, 63, 0
1, 54472, Note_on_c, 0, 64, 54
1, 54475, Note_on_c, 0, 67, 67
1, 54577, Note_on_c, 0, 67, 0
1, 54577, Note_on_c, 0, 64, 0
1, 54577, Note_on_c, 0, 37, 75
1, 54604, Note_on_c, 0, 70, 70
1, 54604, Note_on_c, 0, 82, 89
1, 54693, Note_on_c, 0, 82, 0
1, 54693, Note_on_c, 0, 70, 0
1, 54693, Note_on_c, 0, 69, 75
1, 54696, Note_on_c, 0, 76, 75
1, 54696, Note_on_c, 0, 81, 95
1, 54696, Note_on_c, 0, 45, 59
1, 54699, Note_on_c, 0, 49, 75
1, 54699, Control_c, 0, 64, 0
1, 54760, Control_c, 0, 64, 127
1, 54796, Note_on_c, 0, 49, 0
1, 54796, Note_on_c, 0, 45, 0
1, 54796, Note_on_c, 0, 37, 0
1, 54799, Note_on_c, 0, 54, 60
1, 54799, Note_on_c, 0, 51, 48
1, 54899, Note_on_c, 0, 51, 0
1, 54899, Note_on_c, 0, 54, 0
1, 54899, Note_on_c, 0, 55, 63
1, 54902, Note_on_c, 0, 52, 50
1, 55001, Note_on_c, 0, 81, 0
1, 55001, Note_on_c, 0, 76, 0
1, 55001, Note_on_c, 0, 69, 0
1, 55004, Note_on_c, 0, 63, 65
1, 55004, Note_on_c, 0, 60, 51
1, 55004, Note_on_c, 0, 52, 0
1, 55007, Note_on_c, 0, 55, 0
1, 55103, Note_on_c, 0, 60, 0
1, 55103, Note_on_c, 0, 63, 0
1, 55103, Note_on_c, 0, 61, 54
1, 55106, Note_on_c, 0, 64, 67
1, 55208, Note_on_c, 0, 64, 0
1, 55208, Note_on_c, 0, 61, 0
1, 55208, Note_on_c, 0, 33, 75
1, 55234, Note_on_c, 0, 69, 70
1, 55234, Note_on_c, 0, 81, 89
1, 55323, Note_on_c, 0, 81, 0
1, 55323, Note_on_c, 0, 69, 0
1, 55323, Note_on_c, 0, 88, 95
1, 55326, Note_on_c, 0, 79, 75
1, 55326, Note_on_c, 0, 76, 75
1, 55326, Note_on_c, 0, 33, 0
1, 55329, Note_on_c, 0, 37, 68
1, 55329, Note_on_c, 0, 45, 75
1, 55335, Control_c, 0, 64, 0
1, 55383, Control_c, 0, 64, 127
1, 55426, Note_on_c, 0, 45, 0
1, 55426, Note_on_c, 0, 37, 0
1, 55426, Note_on_c, 0, 51, 47
1, 55429, Note_on_c, 0, 54, 59
1, 55528, Note_on_c, 0, 54, 0
1, 55528, Note_on_c, 0, 51, 0
1, 55528, Note_on_c, 0, 55, 61
1, 55531, Note_on_c, 0, 52, 49
1, 55631, Note_on_c, 0, 76, 0
1, 55631, Note_on_c, 0, 79, 0
1, 55631, Note_on_c, 0, 88, 0
1, 55634, Note_on_c, 0, 60, 48
1, 55634, Note_on_c, 0, 63, 62
1, 55634, Note_on_c, 0, 52, 0
1, 55637, Note_on_c, 0, 55, 0
1, 55733, Note_on_c, 0, 63, 0
1, 55733, Note_on_c, 0, 60, 0
1, 55733, Note_on_c, 0, 61, 51
1, 55736, Note_on_c, 0, 64, 63
1, 55837, Note_on_c, 0, 64, 0
1, 55837, Note_on_c, 0, 61, 0
1, 55837, Note_on_c, 0, 38, 70
1, 55863, Note_on_c, 0, 67, 57
1, 55863, Note_on_c, 0, 79, 74
1, 55943, Note_on_c, 0, 79, 0
1, 55943, Note_on_c, 0, 67, 0
1, 55943, Note_on_c, 0, 65, 61
1, 55946, Note_on_c, 0, 69, 61
1, 55946, Note_on_c, 0, 77, 78
1, 55946, Note_on_c, 0, 50, 69
1, 55949, Control_c, 0, 64, 0
1, 55949, Note_on_c, 0, 45, 59
1, 56034, Control_c, 0, 64, 127
1, 56047, Note_on_c, 0, 50, 0
1, 56047, Note_on_c, 0, 38, 0
1, 56047, Note_on_c, 0, 56, 50
1, 56050, Note_on_c, 0, 52, 39
1, 56050, Note_on_c, 0, 45, 0
1, 56149, Note_on_c, 0, 52, 0
1, 56149, Note_on_c, 0, 56, 0
1, 56149, Note_on_c, 0, 57, 50
1, 56152, Note_on_c, 0, 53, 40
1, 56252, Note_on_c, 0, 77, 0
1, 56252, Note_on_c, 0, 69, 0
1, 56252, Note_on_c, 0, 65, 0
1, 56255, Note_on_c, 0, 64, 51
1, 56255, Note_on_c, 0, 61, 40
1, 56255, Note_on_c, 0, 53, 0
1, 56258, Note_on_c, 0, 57, 0
1, 56353, Note_on_c, 0, 61, 0
1, 56353, Note_on_c, 0, 64, 0
1, 56353, Note_on_c, 0, 62, 41
1, 56356, Note_on_c, 0, 65, 52
1, 56457, Note_on_c, 0, 65, 0
1, 56457, Note_on_c, 0, 62, 0
1, 56457, Note_on_c, 0, 38, 63
1, 56483, Note_on_c, 0, 69, 53
1, 56483, Note_on_c, 0, 81, 69
1, 56561, Note_on_c, 0, 81, 0
1, 56561, Note_on_c, 0, 69, 0
1, 56561, Note_on_c, 0, 65, 58
1, 56564, Note_on_c, 0, 74, 73
1, 56564, Note_on_c, 0, 62, 58
1, 56564, Note_on_c, 0, 50, 58
1, 56567, Note_on_c, 0, 45, 46
1, 56570, Control_c, 0, 64, 0
1, 56665, Note_on_c, 0, 45, 0
1, 56665, Note_on_c, 0, 50, 0
1, 56665, Note_on_c, 0, 38, 0
1, 56668, Note_on_c, 0, 52, 35
1, 56668, Note_on_c, 0, 56, 45
1, 56678, Control_c, 0, 64, 127
1, 56768, Note_on_c, 0, 56, 0
1, 56768, Note_on_c, 0, 52, 0
1, 56768, Note_on_c, 0, 53, 35
1, 56771, Note_on_c, 0, 57, 45
1, 56870, Note_on_c, 0, 62, 0
1, 56870, Note_on_c, 0, 74, 0
1, 56870, Note_on_c, 0, 65, 0
1, 56873, Note_on_c, 0, 64, 45
1, 56873, Note_on_c, 0, 61, 36
1, 56873, Note_on_c, 0, 57, 0
1, 56876, Note_on_c, 0, 53, 0
1, 56972, Note_on_c, 0, 61, 0
1, 56972, Note_on_c, 0, 64, 0
1, 56972, Note_on_c, 0, 62, 36
1, 56975, Note_on_c, 0, 65, 45
1, 57074, Note_on_c, 0, 65, 0
1, 57074, Note_on_c, 0, 62, 0
1, 57074, Note_on_c, 0, 36, 57
1, 57193, Note_on_c, 0, 76, 57
1, 57193, Note_on_c, 0, 84, 73
1, 57193, Note_on_c, 0, 72, 57
1, 57196, Note_on_c, 0, 48, 57
1, 57196, Note_on_c, 0, 43, 45
1, 57196, Control_c, 0, 64, 0
1, 57199, Control_c, 0, 64, 0
1, 57252, Control_c, 0, 64, 127
1, 57296, Note_on_c, 0, 43, 0
1, 57296, Note_on_c, 0, 48, 0
1, 57296, Note_on_c, 0, 36, 0
1, 57299, Note_on_c, 0, 51, 37
1, 57299, Note_on_c, 0, 54, 46
1, 57399, Note_on_c, 0, 54, 0
1, 57399, Note_on_c, 0, 51, 0
1, 57399, Note_on_c, 0, 55, 48
1, 57402, Note_on_c, 0, 52, 38
1, 57500, Note_on_c, 0, 72, 0
1, 57500, Note_on_c, 0, 84, 0
1, 57500, Note_on_c, 0, 76, 0
1, 57503, Note_on_c, 0, 63, 50
1, 57503, Note_on_c, 0, 59, 39
1, 57503, Note_on_c, 0, 52, 0
1, 57506, Note_on_c, 0, 55, 0
1, 57601, Note_on_c, 0, 59, 0
1, 57601, Note_on_c, 0, 63, 0
1, 57601, Note_on_c, 0, 60, 42
1, 57604, Note_on_c, 0, 64, 51
1, 57704, Note_on_c, 0, 64, 0
1, 57704, Note_on_c, 0, 60, 0
1, 57704, Note_on_c, 0, 40, 57
1, 57819, Note_on_c, 0, 79, 57
1, 57819, Note_on_c, 0, 72, 57
1, 57819, Note_on_c, 0, 84, 73
1, 57822, Note_on_c, 0, 52, 57
1, 57822, Note_on_c, 0, 48, 55
1, 57831, Control_c, 0, 64, 0
1, 57878, Control_c, 0, 64, 127
1, 57878, Control_c, 0, 64, 127
1, 57922, Note_on_c, 0, 48, 0
1, 57922, Note_on_c, 0, 52, 0
1, 57922, Note_on_c, 0, 40, 0
1, 57925, Note_on_c, 0, 59, 46
1, 57925, Note_on_c, 0, 54, 37
1, 58025, Note_on_c, 0, 54, 0
1, 58025, Note_on_c, 0, 59, 0
1, 58025, Note_on_c, 0, 60, 48
1, 58028, Note_on_c, 0, 55, 38
1, 58127, Note_on_c, 0, 84, 0
1, 58127, Note_on_c, 0, 72, 0
1, 58127, Note_on_c, 0, 79, 0
1, 58130, Note_on_c, 0, 66, 50
1, 58130, Note_on_c, 0, 63, 39
1, 58130, Note_on_c, 0, 55, 0
1, 58133, Note_on_c, 0, 60, 0
1, 58227, Note_on_c, 0, 63, 0
1, 58227, Note_on_c, 0, 66, 0
1, 58227, Note_on_c, 0, 64, 42
1, 58230, Note_on_c, 0, 67, 51
1, 58330, Note_on_c, 0, 67, 0
1, 58330, Note_on_c, 0, 64, 0
1, 58330, Note_on_c, 0, 41, 57
1, 58357, Note_on_c, 0, 70, 48
1, 58357, Note_on_c, 0, 82, 62
1, 58437, Note_on_c, 0, 82, 0
1, 58437, Note_on_c, 0, 70, 0
1, 58437, Note_on_c, 0, 68, 51
1, 58440, Note_on_c, 0, 80, 66
1, 58440, Note_on_c, 0, 72, 51
1, 58440, Note_on_c, 0, 53, 57
1, 58443, Note_on_c, 0, 48, 55
1, 58443, Control_c, 0, 64, 0
1, 58443, Control_c, 0, 64, 0
1, 58528, Control_c, 0, 64, 127
1, 58528, Control_c, 0, 64, 127
1, 58540, Note_on_c, 0, 48, 0
1, 58540, Note_on_c, 0, 53, 0
1, 58540, Note_on_c, 0, 41, 0
1, 58543, Note_on_c, 0, 59, 43
1, 58543, Note_on_c, 0, 55, 32
1, 58643, Note_on_c, 0, 55, 0
1, 58643, Note_on_c, 0, 59, 0
1, 58643, Note_on_c, 0, 56, 34
1, 58646, Note_on_c, 0, 60, 44
1, 58744, Note_on_c, 0, 72, 0
1, 58744, Note_on_c, 0, 80, 0
1, 58744, Note_on_c, 0, 68, 0
1, 58747, Note_on_c, 0, 64, 34
1, 58747, Note_on_c, 0, 67, 45
1, 58747, Note_on_c, 0, 60, 0
1, 58750, Note_on_c, 0, 56, 0
1, 58845, Note_on_c, 0, 67, 0
1, 58845, Note_on_c, 0, 64, 0
1, 58845, Note_on_c, 0, 68, 46
1, 58848, Note_on_c, 0, 65, 37
1, 58947, Note_on_c, 0, 65, 0
1, 58947, Note_on_c, 0, 68, 0
1, 58947, Note_on_c, 0, 41, 57
1, 58974, Note_on_c, 0, 72, 49
1, 58974, Note_on_c, 0, 84, 63
1, 59053, Note_on_c, 0, 84, 0
1, 59053, Note_on_c, 0, 72, 0
1, 59053, Note_on_c, 0, 65, 54
1, 59056, Note_on_c, 0, 68, 54
1, 59056, Note_on_c, 0, 77, 68
1, 59056, Note_on_c, 0, 53, 54
1, 59059, Note_on_c, 0, 48, 42
1, 59059, Control_c, 0, 64, 0
1, 59137, Control_c, 0, 64, 127
1, 59156, Note_on_c, 0, 48, 0
1, 59156, Note_on_c, 0, 53, 0
1, 59156, Note_on_c, 0, 41, 0
1, 59159, Note_on_c, 0, 58, 42
1, 59159, Note_on_c, 0, 55, 32
1, 59259, Note_on_c, 0, 55, 0
1, 59259, Note_on_c, 0, 58, 0
1, 59259, Note_on_c, 0, 60, 43
1, 59262, Note_on_c, 0, 56, 33
1, 59360, Note_on_c, 0, 77, 0
1, 59360, Note_on_c, 0, 68, 0
1, 59360, Note_on_c, 0, 65, 0
1, 59363, Note_on_c, 0, 67, 44
1, 59363, Note_on_c, 0, 64, 34
1, 59363, Note_on_c, 0, 56, 0
1, 59366, Note_on_c, 0, 60, 0
1, 59461, Note_on_c, 0, 64, 0
1, 59461, Note_on_c, 0, 67, 0
1, 59461, Note_on_c, 0, 68, 44
1, 59464, Note_on_c, 0, 65, 36
1, 59562, Note_on_c, 0, 65, 0
1, 59562, Note_on_c, 0, 68, 0
1, 59562, Note_on_c, 0, 39, 57
1, 59680, Note_on_c, 0, 87, 79
1, 59680, Note_on_c, 0, 79, 60
1, 59680, Note_on_c, 0, 75, 60
1, 59683, Note_on_c, 0, 51, 60
1, 59683, Note_on_c, 0, 46, 48
1, 59683, Control_c, 0, 64, 0
1, 59686, Control_c, 0, 64, 0
1, 59686, Control_c, 0, 64, 0
1, 59740, Control_c, 0, 64, 127
1, 59783, Note_on_c, 0, 46, 0
1, 59783, Note_on_c, 0, 51, 0
1, 59783, Note_on_c, 0, 39, 0
1, 59786, Note_on_c, 0, 54, 39
1, 59786, Note_on_c, 0, 57, 49
1, 59886, Note_on_c, 0, 57, 0
1, 59886, Note_on_c, 0, 54, 0
1, 59886, Note_on_c, 0, 58, 51
1, 59889, Note_on_c, 0, 55, 40
1, 59988, Note_on_c, 0, 75, 0
1, 59988, Note_on_c, 0, 79, 0
1, 59988, Note_on_c, 0, 87, 0
1, 59991, Note_on_c, 0, 66, 54
1, 59991, Note_on_c, 0, 62, 42
1, 59991, Note_on_c, 0, 55, 0
1, 59994, Note_on_c, 0, 58, 0
1, 60088, Note_on_c, 0, 62, 0
1, 60088, Note_on_c, 0, 66, 0
1, 60088, Note_on_c, 0, 67, 55
1, 60091, Note_on_c, 0, 63, 44
1, 60192, Note_on_c, 0, 63, 0
1, 60192, Note_on_c, 0, 67, 0
1, 60192, Note_on_c, 0, 43, 61
1, 60307, Note_on_c, 0, 75, 61
1, 60307, Note_on_c, 0, 87, 79
1, 60307, Note_on_c, 0, 82, 61
1, 60310, Note_on_c, 0, 51, 59
1, 60310, Note_on_c, 0, 55, 61
1, 60319, Control_c, 0, 64, 0
1, 60344, Control_c, 0, 64, 127
1, 60410, Note_on_c, 0, 55, 0
1, 60410, Note_on_c, 0, 51, 0
1, 60410, Note_on_c, 0, 43, 0
1, 60413, Note_on_c, 0, 62, 49
1, 60413, Note_on_c, 0, 57, 38
1, 60513, Note_on_c, 0, 57, 0
1, 60513, Note_on_c, 0, 62, 0
1, 60513, Note_on_c, 0, 63, 52
1, 60516, Note_on_c, 0, 58, 42
1, 60614, Note_on_c, 0, 82, 0
1, 60614, Note_on_c, 0, 87, 0
1, 60614, Note_on_c, 0, 75, 0
1, 60617, Note_on_c, 0, 66, 43
1, 60617, Note_on_c, 0, 69, 54
1, 60617, Note_on_c, 0, 58, 0
1, 60620, Note_on_c, 0, 63, 0
1, 60715, Note_on_c, 0, 69, 0
1, 60715, Note_on_c, 0, 66, 0
1, 60715, Note_on_c, 0, 70, 55
1, 60718, Note_on_c, 0, 67, 44
1, 60818, Note_on_c, 0, 67, 0
1, 60818, Note_on_c, 0, 70, 0
1, 60818, Note_on_c, 0, 44, 61
1, 60844, Note_on_c, 0, 73, 52
1, 60844, Note_on_c, 0, 85, 68
1, 60924, Note_on_c, 0, 85, 0
1, 60924, Note_on_c, 0, 73, 0
1, 60924, Note_on_c, 0, 80, 55
1, 60927, Note_on_c, 0, 72, 55
1, 60927, Note_on_c, 0, 84, 72
1, 60927, Note_on_c, 0, 51, 59
1, 60930, Note_on_c, 0, 56, 64
1, 60930, Control_c, 0, 64, 0
1, 60930, Control_c, 0, 64, 0
1, 60933, Control_c, 0, 64, 0
1, 61017, Control_c, 0, 64, 127
1, 61028, Note_on_c, 0, 56, 0
1, 61028, Note_on_c, 0, 51, 0
1, 61028, Note_on_c, 0, 44, 0
1, 61031, Note_on_c, 0, 59, 35
1, 61031, Note_on_c, 0, 62, 47
1, 61130, Note_on_c, 0, 62, 0
1, 61130, Note_on_c, 0, 59, 0
1, 61130, Note_on_c, 0, 63, 48
1, 61133, Note_on_c, 0, 60, 37
1, 61232, Note_on_c, 0, 84, 0
1, 61232, Note_on_c, 0, 72, 0
1, 61232, Note_on_c, 0, 80, 0
1, 61235, Note_on_c, 0, 71, 49
1, 61235, Note_on_c, 0, 67, 36
1, 61235, Note_on_c, 0, 60, 0
1, 61238, Note_on_c, 0, 63, 0
1, 61332, Note_on_c, 0, 67, 0
1, 61332, Note_on_c, 0, 71, 0
1, 61332, Note_on_c, 0, 68, 39
1, 61335, Note_on_c, 0, 72, 51
1, 61435, Note_on_c, 0, 72, 0
1, 61435, Note_on_c, 0, 68, 0
1, 61435, Note_on_c, 0, 44, 64
1, 61461, Note_on_c, 0, 75, 53
1, 61461, Note_on_c, 0, 87, 71
1, 61540, Note_on_c, 0, 87, 0
1, 61540, Note_on_c, 0, 75, 0
1, 61540, Note_on_c, 0, 80, 75
1, 61543, Note_on_c, 0, 68, 59
1, 61543, Note_on_c, 0, 72, 59
1, 61543, Note_on_c, 0, 56, 59
1, 61546, Note_on_c, 0, 51, 46
1, 61549, Control_c, 0, 64, 0
1, 61549, Control_c, 0, 64, 0
1, 61604, Control_c, 0, 64, 127
1, 61644, Note_on_c, 0, 51, 0
1, 61644, Note_on_c, 0, 56, 0
1, 61644, Note_on_c, 0, 44, 0
1, 61647, Note_on_c, 0, 59, 35
1, 61647, Note_on_c, 0, 62, 46
1, 61746, Note_on_c, 0, 62, 0
1, 61746, Note_on_c, 0, 59, 0
1, 61746, Note_on_c, 0, 63, 47
1, 61749, Note_on_c, 0, 60, 36
1, 61848, Note_on_c, 0, 72, 0
1, 61848, Note_on_c, 0, 68, 0
1, 61848, Note_on_c, 0, 80, 0
1, 61851, Note_on_c, 0, 71, 48
1, 61851, Note_on_c, 0, 67, 37
1, 61851, Note_on_c, 0, 60, 0
1, 61854, Note_on_c, 0, 63, 0
1, 61948, Note_on_c, 0, 67, 0
1, 61948, Note_on_c, 0, 71, 0
1, 61948, Note_on_c, 0, 68, 39
1, 61951, Note_on_c, 0, 72, 49
1, 62049, Note_on_c, 0, 72, 0
1, 62049, Note_on_c, 0, 68, 0
1, 62049, Note_on_c, 0, 44, 64
1, 62165, Note_on_c, 0, 77, 59
1, 62165, Note_on_c, 0, 89, 76
1, 62165, Note_on_c, 0, 83, 59
1, 62168, Note_on_c, 0, 50, 47
1, 62168, Note_on_c, 0, 56, 59
1, 62168, Control_c, 0, 64, 0
1, 62171, Control_c, 0, 64, 0
1, 62224, Control_c, 0, 64, 127
1, 62266, Note_on_c, 0, 56, 0
1, 62266, Note_on_c, 0, 50, 0
1, 62266, Note_on_c, 0, 44, 0
1, 62269, Note_on_c, 0, 64, 48
1, 62269, Note_on_c, 0, 61, 38
1, 62367, Note_on_c, 0, 61, 0
1, 62367, Note_on_c, 0, 64, 0
1, 62367, Note_on_c, 0, 65, 50
1, 62370, Note_on_c, 0, 62, 39
1, 62466, Note_on_c, 0, 83, 0
1, 62466, Note_on_c, 0, 89, 0
1, 62466, Note_on_c, 0, 77, 0
1, 62469, Note_on_c, 0, 73, 52
1, 62469, Note_on_c, 0, 70, 40
1, 62469, Note_on_c, 0, 62, 0
1, 62472, Note_on_c, 0, 65, 0
1, 62565, Note_on_c, 0, 70, 0
1, 62565, Note_on_c, 0, 73, 0
1, 62565, Note_on_c, 0, 74, 53
1, 62568, Note_on_c, 0, 71, 44
1, 62668, Note_on_c, 0, 71, 0
1, 62668, Note_on_c, 0, 74, 0
1, 62668, Note_on_c, 0, 44, 59
1, 62783, Note_on_c, 0, 89, 76
1, 62783, Note_on_c, 0, 77, 59
1, 62783, Note_on_c, 0, 83, 59
1, 62786, Note_on_c, 0, 56, 59
1, 62786, Note_on_c, 0, 50, 57
1, 62795, Control_c, 0, 64, 0
1, 62842, Control_c, 0, 64, 127
1, 62842, Control_c, 0, 64, 127
1, 62885, Note_on_c, 0, 50, 0
1, 62885, Note_on_c, 0, 56, 0
1, 62885, Note_on_c, 0, 44, 0
1, 62888, Note_on_c, 0, 61, 39
1, 62888, Note_on_c, 0, 64, 48
1, 62985, Note_on_c, 0, 64, 0
1, 62985, Note_on_c, 0, 61, 0
1, 62985, Note_on_c, 0, 65, 50
1, 62988, Note_on_c, 0, 62, 40
1, 63085, Note_on_c, 0, 83, 0
1, 63085, Note_on_c, 0, 77, 0
1, 63085, Note_on_c, 0, 89, 0
1, 63088, Note_on_c, 0, 73, 53
1, 63088, Note_on_c, 0, 70, 41
1, 63088, Note_on_c, 0, 62, 0
1, 63091, Note_on_c, 0, 65, 0
1, 63183, Note_on_c, 0, 70, 0
1, 63183, Note_on_c, 0, 73, 0
1, 63183, Note_on_c, 0, 74, 54
1, 63186, Note_on_c, 0, 71, 44
1, 63286, Note_on_c, 0, 71, 0
1, 63286, Note_on_c, 0, 74, 0
1, 63286, Note_on_c, 0, 44, 60
1, 63312, Note_on_c, 0, 77, 50
1, 63312, Note_on_c, 0, 89, 65
1, 63390, Note_on_c, 0, 89, 0
1, 63390, Note_on_c, 0, 77, 0
1, 63390, Note_on_c, 0, 92, 79
1, 63393, Note_on_c, 0, 80, 67
1, 63393, Note_on_c, 0, 84, 67
1, 63393, Note_on_c, 0, 56, 60
1, 63396, Note_on_c, 0, 51, 58
1, 63396, Control_c, 0, 64, 0
1, 63396, Control_c, 0, 64, 0
1, 63480, Control_c, 0, 64, 127
1, 63480, Control_c, 0, 64, 127
1, 63492, Note_on_c, 0, 51, 0
1, 63492, Note_on_c, 0, 56, 0
1, 63492, Note_on_c, 0, 44, 0
1, 63495, Note_on_c, 0, 62, 46
1, 63495, Note_on_c, 0, 59, 34
1, 63593, Note_on_c, 0, 59, 0
1, 63593, Note_on_c, 0, 62, 0
1, 63593, Note_on_c, 0, 63, 47
1, 63596, Note_on_c, 0, 60, 36
1, 63693, Note_on_c, 0, 84, 0
1, 63693, Note_on_c, 0, 80, 0
1, 63693, Note_on_c, 0, 92, 0
1, 63696, Note_on_c, 0, 67, 46
1, 63696, Note_on_c, 0, 71, 55
1, 63696, Note_on_c, 0, 60, 0
1, 63699, Note_on_c, 0, 63, 0
1, 63792, Note_on_c, 0, 71, 0
1, 63792, Note_on_c, 0, 67, 0
1, 63792, Note_on_c, 0, 72, 55
1, 63795, Note_on_c, 0, 68, 46
1, 63894, Note_on_c, 0, 68, 0
1, 63894, Note_on_c, 0, 72, 0
1, 63894, Note_on_c, 0, 44, 60
1, 63997, Note_on_c, 0, 80, 62
1, 63997, Note_on_c, 0, 87, 72
1, 63997, Note_on_c, 0, 75, 56
1, 64000, Note_on_c, 0, 48, 44
1, 64000, Note_on_c, 0, 56, 57
1, 64005, Control_c, 0, 64, 0
1, 64079, Control_c, 0, 64, 127
1, 64098, Note_on_c, 0, 56, 0
1, 64098, Note_on_c, 0, 48, 0
1, 64098, Note_on_c, 0, 44, 0
1, 64101, Note_on_c, 0, 59, 34
1, 64101, Note_on_c, 0, 62, 44
1, 64198, Note_on_c, 0, 62, 0
1, 64198, Note_on_c, 0, 59, 0
1, 64198, Note_on_c, 0, 63, 46
1, 64201, Note_on_c, 0, 60, 35
1, 64297, Note_on_c, 0, 75, 0
1, 64297, Note_on_c, 0, 87, 0
1, 64297, Note_on_c, 0, 80, 0
1, 64300, Note_on_c, 0, 71, 53
1, 64300, Note_on_c, 0, 67, 45
1, 64300, Note_on_c, 0, 60, 0
1, 64303, Note_on_c, 0, 63, 0
1, 64395, Note_on_c, 0, 67, 0
1, 64395, Note_on_c, 0, 71, 0
1, 64395, Note_on_c, 0, 68, 45
1, 64398, Note_on_c, 0, 72, 53
1, 64495, Note_on_c, 0, 72, 0
1, 64495, Note_on_c, 0, 68, 0
1, 64495, Note_on_c, 0, 44, 61
1, 64597, Note_on_c, 0, 89, 78
1, 64597, Note_on_c, 0, 83, 61
1, 64597, Note_on_c, 0, 77, 61
1, 64600, Note_on_c, 0, 56, 61
1, 64600, Note_on_c, 0, 50, 48
1, 64600, Control_c, 0, 64, 0
1, 64603, Control_c, 0, 64, 0
1, 64655, Control_c, 0, 64, 127
1, 64698, Note_on_c, 0, 50, 0
1, 64698, Note_on_c, 0, 56, 0
1, 64698, Note_on_c, 0, 44, 0
1, 64701, Note_on_c, 0, 64, 49
1, 64701, Note_on_c, 0, 61, 39
1, 64799, Note_on_c, 0, 61, 0
1, 64799, Note_on_c, 0, 64, 0
1, 64799, Note_on_c, 0, 65, 52
1, 64802, Note_on_c, 0, 62, 41
1, 64899, Note_on_c, 0, 77, 0
1, 64899, Note_on_c, 0, 83, 0
1, 64899, Note_on_c, 0, 89, 0
1, 64902, Note_on_c, 0, 70, 42
1, 64902, Note_on_c, 0, 73, 54
1, 64902, Note_on_c, 0, 62, 0
1, 64905, Note_on_c, 0, 65, 0
1, 64997, Note_on_c, 0, 73, 0
1, 64997, Note_on_c, 0, 70, 0
1, 64997, Note_on_c, 0, 74, 55
1, 65000, Note_on_c, 0, 71, 45
1, 65098, Note_on_c, 0, 71, 0
1, 65098, Note_on_c, 0, 74, 0
1, 65098, Note_on_c, 0, 44, 62
1, 65201, Note_on_c, 0, 77, 62
1, 65201, Note_on_c, 0, 83, 62
1, 65201, Note_on_c, 0, 89, 79
1, 65204, Note_on_c, 0, 56, 62
1, 65204, Note_on_c, 0, 50, 59
1, 65213, Control_c, 0, 64, 0
1, 65258, Control_c, 0, 64, 127
1, 65258, Control_c, 0, 64, 127
1, 65301, Note_on_c, 0, 50, 0
1, 65301, Note_on_c, 0, 56, 0
1, 65301, Note_on_c, 0, 44, 0
1, 65304, Note_on_c, 0, 61, 40
1, 65304, Note_on_c, 0, 64, 50
1, 65401, Note_on_c, 0, 64, 0
1, 65401, Note_on_c, 0, 61, 0
1, 65401, Note_on_c, 0, 62, 41
1, 65404, Note_on_c, 0, 65, 52
1, 65499, Note_on_c, 0, 89, 0
1, 65499, Note_on_c, 0, 83, 0
1, 65499, Note_on_c, 0, 77, 0
1, 65502, Note_on_c, 0, 70, 42
1, 65502, Note_on_c, 0, 73, 55
1, 65502, Note_on_c, 0, 65, 0
1, 65505, Note_on_c, 0, 62, 0
1, 65597, Note_on_c, 0, 73, 0
1, 65597, Note_on_c, 0, 70, 0
1, 65597, Note_on_c, 0, 71, 46
1, 65600, Note_on_c, 0, 74, 56
1, 65699, Note_on_c, 0, 74, 0
1, 65699, Note_on_c, 0, 71, 0
1, 65699, Note_on_c, 0, 44, 62
1, 65726, Note_on_c, 0, 77, 52
1, 65726, Note_on_c, 0, 89, 68
1, 65805, Note_on_c, 0, 89, 0
1, 65805, Note_on_c, 0, 77, 0
1, 65805, Note_on_c, 0, 92, 80
1, 65808, Note_on_c, 0, 80, 62
1, 65808, Note_on_c, 0, 84, 62
1, 65808, Note_on_c, 0, 56, 62
1, 65811, Note_on_c, 0, 51, 49
1, 65811, Control_c, 0, 64, 0
1, 65811, Control_c, 0, 64, 0
1, 65863, Control_c, 0, 64, 127
1, 65905, Note_on_c, 0, 51, 0
1, 65905, Note_on_c, 0, 56, 0
1, 65905, Note_on_c, 0, 44, 0
1, 65908, Note_on_c, 0, 59, 40
1, 65908, Note_on_c, 0, 62, 50
1, 66005, Note_on_c, 0, 62, 0
1, 66005, Note_on_c, 0, 59, 0
1, 66005, Note_on_c, 0, 60, 41
1, 66008, Note_on_c, 0, 63, 52
1, 66104, Note_on_c, 0, 84, 0
1, 66104, Note_on_c, 0, 80, 0
1, 66104, Note_on_c, 0, 92, 0
1, 66107, Note_on_c, 0, 71, 55
1, 66107, Note_on_c, 0, 67, 43
1, 66107, Note_on_c, 0, 63, 0
1, 66110, Note_on_c, 0, 60, 0
1, 66202, Note_on_c, 0, 67, 0
1, 66202, Note_on_c, 0, 71, 0
1, 66202, Note_on_c, 0, 72, 56
1, 66205, Note_on_c, 0, 68, 46
1, 66301, Note_on_c, 0, 68, 0
1, 66301, Note_on_c, 0, 72, 0
1, 66301, Note_on_c, 0, 44, 63
1, 66402, Note_on_c, 0, 92, 81
1, 66402, Note_on_c, 0, 80, 63
1, 66402, Note_on_c, 0, 56, 63
1, 66414, Control_c, 0, 64, 0
1, 66460, Control_c, 0, 64, 127
1, 66460, Control_c, 0, 64, 127
1, 66503, Note_on_c, 0, 56, 0
1, 66503, Note_on_c, 0, 44, 0
1, 66503, Note_on_c, 0, 61, 41
1, 66506, Note_on_c, 0, 64, 51
1, 66602, Note_on_c, 0, 64, 0
1, 66602, Note_on_c, 0, 61, 0
1, 66602, Note_on_c, 0, 65, 53
1, 66605, Note_on_c, 0, 62, 42
1, 66701, Note_on_c, 0, 80, 0
1, 66701, Note_on_c, 0, 92, 0
1, 66701, Note_on_c, 0, 70, 43
1, 66704, Note_on_c, 0, 73, 56
1, 66704, Note_on_c, 0, 62, 0
1, 66704, Note_on_c, 0, 65, 0
1, 66800, Note_on_c, 0, 73, 0
1, 66800, Note_on_c, 0, 70, 0
1, 66800, Note_on_c, 0, 74, 57
1, 66803, Note_on_c, 0, 71, 47
1, 66902, Note_on_c, 0, 71, 0
1, 66902, Note_on_c, 0, 74, 0
1, 66902, Note_on_c, 0, 56, 63
1, 66905, Note_on_c, 0, 44, 63
1, 66929, Note_on_c, 0, 80, 53
1, 66929, Note_on_c, 0, 92, 69
1, 67027, Note_on_c, 0, 92, 0
1, 67027, Note_on_c, 0, 80, 0
1, 67027, Note_on_c, 0, 81, 73
1, 67030, Note_on_c, 0, 93, 87
1, 67030, Note_on_c, 0, 44, 0
1, 67030, Note_on_c, 0, 56, 0
1, 67033, Note_on_c, 0, 57, 63
1, 67033, Note_on_c, 0, 45, 63
1, 67033, Control_c, 0, 64, 0
1, 67036, Control_c, 0, 64, 0
1, 67082, Control_c, 0, 64, 127
1, 67122, Note_on_c, 0, 64, 41
1, 67122, Note_on_c, 0, 68, 51
1, 67217, Note_on_c, 0, 68, 0
1, 67217, Note_on_c, 0, 64, 0
1, 67217, Note_on_c, 0, 65, 42
1, 67220, Note_on_c, 0, 69, 53
1, 67310, Note_on_c, 0, 93, 0
1, 67310, Note_on_c, 0, 81, 0
1, 67310, Note_on_c, 0, 73, 43
1, 67313, Note_on_c, 0, 76, 56
1, 67313, Note_on_c, 0, 69, 0
1, 67313, Note_on_c, 0, 57, 0
1, 67316, Note_on_c, 0, 45, 0
1, 67316, Note_on_c, 0, 65, 0
1, 67403, Note_on_c, 0, 76, 0
1, 67403, Note_on_c, 0, 73, 0
1, 67403, Note_on_c, 0, 74, 47
1, 67406, Note_on_c, 0, 77, 57
1, 67496, Note_on_c, 0, 77, 0
1, 67496, Note_on_c, 0, 74, 0
1, 67496, Note_on_c, 0, 41, 64
1, 67588, Note_on_c, 0, 89, 82
1, 67588, Note_on_c, 0, 77, 69
1, 67588, Note_on_c, 0, 53, 64
1, 67598, Control_c, 0, 64, 0
1, 67640, Control_c, 0, 64, 127
1, 67640, Control_c, 0, 64, 127
1, 67679, Note_on_c, 0, 53, 0
1, 67679, Note_on_c, 0, 41, 0
1, 67679, Note_on_c, 0, 61, 41
1, 67682, Note_on_c, 0, 64, 51
1, 67770, Note_on_c, 0, 64, 0
1, 67770, Note_on_c, 0, 61, 0
1, 67770, Note_on_c, 0, 62, 42
1, 67773, Note_on_c, 0, 65, 54
1, 67861, Note_on_c, 0, 77, 0
1, 67861, Note_on_c, 0, 89, 0
1, 67861, Note_on_c, 0, 73, 56
1, 67864, Note_on_c, 0, 68, 44
1, 67864, Note_on_c, 0, 65, 0
1, 67864, Note_on_c, 0, 62, 0
1, 67952, Note_on_c, 0, 68, 0
1, 67952, Note_on_c, 0, 73, 0
1, 67952, Note_on_c, 0, 69, 47
1, 67955, Note_on_c, 0, 74, 58
1, 68043, Note_on_c, 0, 74, 0
1, 68043, Note_on_c, 0, 69, 0
1, 68043, Note_on_c, 0, 38, 64
1, 68133, Note_on_c, 0, 74, 72
1, 68133, Note_on_c, 0, 86, 85
1, 68133, Note_on_c, 0, 50, 64
1, 68136, Control_c, 0, 64, 0
1, 68136, Control_c, 0, 64, 0
1, 68185, Control_c, 0, 64, 127
1, 68223, Note_on_c, 0, 50, 0
1, 68223, Note_on_c, 0, 38, 0
1, 68223, Note_on_c, 0, 61, 52
1, 68226, Note_on_c, 0, 56, 42
1, 68312, Note_on_c, 0, 56, 0
1, 68312, Note_on_c, 0, 61, 0
1, 68312, Note_on_c, 0, 62, 54
1, 68315, Note_on_c, 0, 57, 43
1, 68401, Note_on_c, 0, 86, 0
1, 68401, Note_on_c, 0, 74, 0
1, 68401, Note_on_c, 0, 64, 44
1, 68404, Note_on_c, 0, 68, 57
1, 68404, Note_on_c, 0, 57, 0
1, 68404, Note_on_c, 0, 62, 0
1, 68490, Note_on_c, 0, 68, 0
1, 68490, Note_on_c, 0, 64, 0
1, 68490, Note_on_c, 0, 69, 58
1, 68493, Note_on_c, 0, 65, 48
1, 68579, Note_on_c, 0, 65, 0
1, 68579, Note_on_c, 0, 69, 0
1, 68579, Note_on_c, 0, 33, 65
1, 68668, Note_on_c, 0, 81, 83
1, 68668, Note_on_c, 0, 69, 55
1, 68668, Note_on_c, 0, 45, 65
1, 68679, Control_c, 0, 64, 0
1, 68719, Control_c, 0, 64, 127
1, 68719, Control_c, 0, 64, 127
1, 68757, Note_on_c, 0, 45, 0
1, 68757, Note_on_c, 0, 33, 0
1, 68757, Note_on_c, 0, 56, 52
1, 68760, Note_on_c, 0, 52, 42
1, 68847, Note_on_c, 0, 52, 0
1, 68847, Note_on_c, 0, 56, 0
1, 68847, Note_on_c, 0, 53, 43
1, 68850, Note_on_c, 0, 57, 55
1, 68936, Note_on_c, 0, 69, 0
1, 68936, Note_on_c, 0, 81, 0
1, 68936, Note_on_c, 0, 64, 57
1, 68939, Note_on_c, 0, 61, 44
1, 68939, Note_on_c, 0, 57, 0
1, 68939, Note_on_c, 0, 53, 0
1, 69026, Note_on_c, 0, 61, 0
1, 69026, Note_on_c, 0, 64, 0
1, 69026, Note_on_c, 0, 65, 58
1, 69029, Note_on_c, 0, 62, 48
1, 69117, Note_on_c, 0, 62, 0
1, 69117, Note_on_c, 0, 65, 0
1, 69117, Note_on_c, 0, 34, 66
1, 69207, Note_on_c, 0, 70, 74
1, 69207, Note_on_c, 0, 82, 88
1, 69207, Note_on_c, 0, 46, 66
1, 69210, Control_c, 0, 64, 0
1, 69210, Control_c, 0, 64, 0
1, 69257, Control_c, 0, 64, 127
1, 69294, Note_on_c, 0, 46, 0
1, 69294, Note_on_c, 0, 34, 0
1, 69294, Note_on_c, 0, 57, 53
1, 69297, Note_on_c, 0, 54, 42
1, 69382, Note_on_c, 0, 54, 0
1, 69382, Note_on_c, 0, 57, 0
1, 69382, Note_on_c, 0, 58, 55
1, 69385, Note_on_c, 0, 55, 44
1, 69469, Note_on_c, 0, 82, 0
1, 69469, Note_on_c, 0, 70, 0
1, 69469, Note_on_c, 0, 66, 58
1, 69472, Note_on_c, 0, 62, 45
1, 69472, Note_on_c, 0, 55, 0
1, 69472, Note_on_c, 0, 58, 0
1, 69556, Note_on_c, 0, 62, 0
1, 69556, Note_on_c, 0, 66, 0
1, 69556, Note_on_c, 0, 63, 48
1, 69559, Note_on_c, 0, 67, 59
1, 69644, Note_on_c, 0, 67, 0
1, 69644, Note_on_c, 0, 63, 0
1, 69644, Note_on_c, 0, 31, 66
1, 69731, Note_on_c, 0, 79, 85
1, 69731, Note_on_c, 0, 67, 72
1, 69731, Note_on_c, 0, 43, 66
1, 69742, Control_c, 0, 64, 0
1, 69783, Control_c, 0, 64, 127
1, 69783, Control_c, 0, 64, 127
1, 69821, Note_on_c, 0, 43, 0
1, 69821, Note_on_c, 0, 31, 0
1, 69821, Note_on_c, 0, 50, 43
1, 69824, Note_on_c, 0, 54, 53
1, 69912, Note_on_c, 0, 54, 0
1, 69912, Note_on_c, 0, 50, 0
1, 69912, Note_on_c, 0, 55, 56
1, 69915, Note_on_c, 0, 51, 44
1, 70002, Note_on_c, 0, 67, 0
1, 70002, Note_on_c, 0, 79, 0
1, 70002, Note_on_c, 0, 57, 45
1, 70005, Note_on_c, 0, 62, 58
1, 70005, Note_on_c, 0, 51, 0
1, 70005, Note_on_c, 0, 55, 0
1, 70092, Note_on_c, 0, 62, 0
1, 70092, Note_on_c, 0, 57, 0
1, 70092, Note_on_c, 0, 58, 49
1, 70095, Note_on_c, 0, 63, 59
1, 70182, Note_on_c, 0, 63, 0
1, 70182, Note_on_c, 0, 58, 0
1, 70182, Note_on_c, 0, 28, 66
1, 70272, Note_on_c, 0, 76, 86
1, 70272, Note_on_c, 0, 64, 73
1, 70272, Note_on_c, 0, 40, 67
1, 70275, Control_c, 0, 64, 0
1, 70275, Control_c, 0, 64, 0
1, 70323, Control_c, 0, 64, 127
1, 70361, Note_on_c, 0, 40, 0
1, 70361, Note_on_c, 0, 28, 0
1, 70361, Note_on_c, 0, 45, 43
1, 70364, Note_on_c, 0, 49, 54
1, 70450, Note_on_c, 0, 49, 0
1, 70450, Note_on_c, 0, 45, 0
1, 70450, Note_on_c, 0, 46, 44
1, 70453, Note_on_c, 0, 50, 56
1, 70538, Note_on_c, 0, 64, 0
1, 70538, Note_on_c, 0, 76, 0
1, 70538, Note_on_c, 0, 57, 59
1, 70541, Note_on_c, 0, 54, 46
1, 70541, Note_on_c, 0, 50, 0
1, 70541, Note_on_c, 0, 46, 0
1, 70627, Note_on_c, 0, 54, 0
1, 70627, Note_on_c, 0, 57, 0
1, 70627, Note_on_c, 0, 55, 49
1, 70630, Note_on_c, 0, 58, 60
1, 70715, Note_on_c, 0, 58, 0
1, 70715, Note_on_c, 0, 55, 0
1, 70715, Note_on_c, 0, 33, 67
1, 70804, Note_on_c, 0, 69, 72
1, 70804, Note_on_c, 0, 81, 85
1, 70804, Note_on_c, 0, 45, 67
1, 70815, Control_c, 0, 64, 0
1, 70855, Control_c, 0, 64, 127
1, 70855, Control_c, 0, 64, 127
1, 70893, Note_on_c, 0, 45, 0
1, 70893, Note_on_c, 0, 33, 0
1, 70893, Note_on_c, 0, 54, 54
1, 70896, Note_on_c, 0, 51, 44
1, 70982, Note_on_c, 0, 51, 0
1, 70982, Note_on_c, 0, 54, 0
1, 70982, Note_on_c, 0, 52, 45
1, 70985, Note_on_c, 0, 55, 57
1, 71072, Note_on_c, 0, 81, 0
1, 71072, Note_on_c, 0, 69, 0
1, 71072, Note_on_c, 0, 63, 59
1, 71075, Note_on_c, 0, 60, 46
1, 71075, Note_on_c, 0, 55, 0
1, 71075, Note_on_c, 0, 52, 0
1, 71161, Note_on_c, 0, 60, 0
1, 71161, Note_on_c, 0, 63, 0
1, 71161, Note_on_c, 0, 61, 49
1, 71164, Note_on_c, 0, 64, 60
1, 71250, Note_on_c, 0, 64, 0
1, 71250, Note_on_c, 0, 61, 0
1, 71272, Note_on_c, 0, 57, 52
1, 71272, Note_on_c, 0, 69, 73
1, 71272, Note_on_c, 0, 33, 64
1, 71275, Note_on_c, 0, 45, 64
1, 71355, Note_on_c, 0, 69, 0
1, 71355, Note_on_c, 0, 57, 0
1, 71355, Note_on_c, 0, 62, 62
1, 71358, Note_on_c, 0, 74, 86
1, 71358, Note_on_c, 0, 45, 0
1, 71358, Note_on_c, 0, 33, 0
1, 71361, Note_on_c, 0, 38, 62
1, 71361, Note_on_c, 0, 50, 74
1, 71361, Control_c, 0, 64, 0
1, 71364, Control_c, 0, 64, 0
1, 71406, Control_c, 0, 64, 127
1, 71533, Note_on_c, 0, 56, 56
1, 71533, Note_on_c, 0, 52, 37
1, 71622, Note_on_c, 0, 74, 0
1, 71622, Note_on_c, 0, 62, 0
1, 71622, Note_on_c, 0, 57, 54
1, 71625, Note_on_c, 0, 54, 45
1, 71625, Note_on_c, 0, 52, 0
1, 71625, Note_on_c, 0, 38, 0
1, 71628, Note_on_c, 0, 50, 0
1, 71628, Note_on_c, 0, 56, 0
1, 71710, Note_on_c, 0, 54, 0
1, 71710, Note_on_c, 0, 57, 0
1, 71710, Note_on_c, 0, 64, 51
1, 71713, Note_on_c, 0, 68, 61
1, 71798, Note_on_c, 0, 68, 0
1, 71798, Note_on_c, 0, 64, 0
1, 71798, Note_on_c, 0, 69, 64
1, 71801, Note_on_c, 0, 65, 54
1, 71886, Note_on_c, 0, 65, 0
1, 71886, Note_on_c, 0, 69, 0
1, 71886, Note_on_c, 0, 80, 67
1, 71889, Note_on_c, 0, 76, 56
1, 71973, Note_on_c, 0, 76, 0
1, 71973, Note_on_c, 0, 80, 0
1, 71973, Note_on_c, 0, 81, 70
1, 71976, Note_on_c, 0, 77, 59
1, 72059, Note_on_c, 0, 77, 0
1, 72059, Note_on_c, 0, 81, 0
1, 72059, Note_on_c, 0, 92, 73
1, 72062, Note_on_c, 0, 88, 62
1, 72145, Note_on_c, 0, 88, 0
1, 72145, Note_on_c, 0, 92, 0
1, 72145, Note_on_c, 0, 93, 83
1, 72148, Note_on_c, 0, 89, 70
1, 72302, Control_c, 0, 64, 0
1, 72332, Note_on_c, 0, 89, 0
1, 72332, Note_on_c, 0, 93, 0
1, 72425, Note_on_c, 0, 62, 66
1, 72425, Note_on_c, 0, 74, 78
1, 72425, Note_on_c, 0, 50, 71
1, 72428, Note_on_c, 0, 38, 60
1, 72514, Note_on_c, 0, 74, 0
1, 72514, Note_on_c, 0, 62, 0
1, 72514, Note_on_c, 0, 72, 62
1, 72517, Note_on_c, 0, 84, 86
1, 72517, Note_on_c, 0, 78, 62
1, 72517, Note_on_c, 0, 38, 0
1, 72520, Note_on_c, 0, 50, 0
1, 72520, Note_on_c, 0, 45, 62
1, 72520, Note_on_c, 0, 38, 62
1, 72523, Note_on_c, 0, 50, 74
1, 72523, Control_c, 0, 64, 0
1, 72523, Control_c, 0, 64, 0
1, 72565, Control_c, 0, 64, 127
1, 72691, Note_on_c, 0, 56, 37
1, 72691, Note_on_c, 0, 59, 56
1, 72780, Note_on_c, 0, 57, 45
1, 72780, Note_on_c, 0, 60, 54
1, 72780, Note_on_c, 0, 59, 0
1, 72783, Note_on_c, 0, 56, 0
1, 72868, Note_on_c, 0, 60, 0
1, 72868, Note_on_c, 0, 57, 0
1, 72868, Note_on_c, 0, 68, 51
1, 72871, Note_on_c, 0, 71, 61
1, 72956, Note_on_c, 0, 71, 0
1, 72956, Note_on_c, 0, 68, 0
1, 72956, Note_on_c, 0, 69, 54
1, 72959, Note_on_c, 0, 72, 64
1, 73044, Note_on_c, 0, 72, 0
1, 73044, Note_on_c, 0, 78, 0
1, 73044, Note_on_c, 0, 72, 0
1, 73047, Note_on_c, 0, 84, 0
1, 73047, Note_on_c, 0, 69, 0
1, 73047, Note_on_c, 0, 83, 67
1, 73050, Note_on_c, 0, 80, 56
1, 73050, Note_on_c, 0, 45, 0
1, 73050, Note_on_c, 0, 38, 0
1, 73053, Note_on_c, 0, 50, 0
1, 73131, Note_on_c, 0, 80, 0
1, 73131, Note_on_c, 0, 83, 0
1, 73131, Note_on_c, 0, 81, 59
1, 73134, Note_on_c, 0, 84, 70
1, 73217, Note_on_c, 0, 84, 0
1, 73217, Note_on_c, 0, 81, 0
1, 73217, Note_on_c, 0, 92, 62
1, 73220, Note_on_c, 0, 95, 73
1, 73304, Note_on_c, 0, 95, 0
1, 73304, Note_on_c, 0, 92, 0
1, 73304, Note_on_c, 0, 93, 70
1, 73307, Note_on_c, 0, 96, 83
1, 73461, Control_c, 0, 64, 0
1, 73492, Note_on_c, 0, 96, 0
1, 73492, Note_on_c, 0, 93, 0
1, 73586, Note_on_c, 0, 74, 78
1, 73586, Note_on_c, 0, 62, 66
1, 73586, Note_on_c, 0, 38, 60
1, 73589, Note_on_c, 0, 50, 71
1, 73674, Note_on_c, 0, 62, 0
1, 73674, Note_on_c, 0, 74, 0
1, 73674, Note_on_c, 0, 83, 86
1, 73677, Note_on_c, 0, 71, 62
1, 73677, Note_on_c, 0, 77, 62
1, 73677, Note_on_c, 0, 50, 0
1, 73680, Note_on_c, 0, 38, 0
1, 73680, Note_on_c, 0, 38, 62
1, 73680, Note_on_c, 0, 50, 74
1, 73683, Note_on_c, 0, 44, 62
1, 73683, Control_c, 0, 64, 0
1, 73683, Control_c, 0, 64, 0
1, 73725, Control_c, 0, 64, 127
1, 73852, Note_on_c, 0, 55, 37
1, 73852, Note_on_c, 0, 58, 56
1, 73940, Note_on_c, 0, 59, 54
1, 73940, Note_on_c, 0, 56, 45
1, 73940, Note_on_c, 0, 58, 0
1, 73943, Note_on_c, 0, 55, 0
1, 74029, Note_on_c, 0, 56, 0
1, 74029, Note_on_c, 0, 59, 0
1, 74029, Note_on_c, 0, 67, 51
1, 74032, Note_on_c, 0, 70, 61
1, 74117, Note_on_c, 0, 70, 0
1, 74117, Note_on_c, 0, 67, 0
1, 74117, Note_on_c, 0, 71, 64
1, 74120, Note_on_c, 0, 68, 54
1, 74204, Note_on_c, 0, 68, 0
1, 74204, Note_on_c, 0, 77, 0
1, 74204, Note_on_c, 0, 83, 0
1, 74207, Note_on_c, 0, 71, 0
1, 74207, Note_on_c, 0, 71, 0
1, 74207, Note_on_c, 0, 82, 67
1, 74210, Note_on_c, 0, 79, 56
1, 74210, Note_on_c, 0, 38, 0
1, 74210, Note_on_c, 0, 50, 0
1, 74213, Note_on_c, 0, 44, 0
1, 74291, Note_on_c, 0, 79, 0
1, 74291, Note_on_c, 0, 82, 0
1, 74291, Note_on_c, 0, 80, 59
1, 74294, Note_on_c, 0, 83, 70
1, 74378, Note_on_c, 0, 83, 0
1, 74378, Note_on_c, 0, 80, 0
1, 74378, Note_on_c, 0, 94, 73
1, 74381, Note_on_c, 0, 91, 62
1, 74464, Note_on_c, 0, 91, 0
1, 74464, Note_on_c, 0, 94, 0
1, 74464, Note_on_c, 0, 92, 70
1, 74467, Note_on_c, 0, 95, 83
1, 74610, Control_c, 0, 64, 0
1, 74638, Note_on_c, 0, 95, 0
1, 74638, Note_on_c, 0, 92, 0
1, 74725, Note_on_c, 0, 62, 66
1, 74725, Note_on_c, 0, 74, 78
1, 74725, Note_on_c, 0, 50, 71
1, 74728, Note_on_c, 0, 38, 60
1, 74812, Note_on_c, 0, 74, 0
1, 74812, Note_on_c, 0, 62, 0
1, 74812, Note_on_c, 0, 82, 86
1, 74815, Note_on_c, 0, 70, 73
1, 74815, Note_on_c, 0, 38, 0
1, 74815, Note_on_c, 0, 50, 0
1, 74818, Note_on_c, 0, 34, 67
1, 74818, Note_on_c, 0, 46, 67
1, 74818, Control_c, 0, 64, 0
1, 74821, Control_c, 0, 64, 0
1, 74864, Control_c, 0, 64, 127
1, 74902, Note_on_c, 0, 51, 43
1, 74902, Note_on_c, 0, 54, 54
1, 74991, Note_on_c, 0, 54, 0
1, 74991, Note_on_c, 0, 51, 0
1, 74991, Note_on_c, 0, 55, 56
1, 74994, Note_on_c, 0, 52, 44
1, 75081, Note_on_c, 0, 70, 0
1, 75081, Note_on_c, 0, 82, 0
1, 75081, Note_on_c, 0, 60, 46
1, 75084, Note_on_c, 0, 63, 59
1, 75084, Note_on_c, 0, 52, 0
1, 75084, Note_on_c, 0, 34, 0
1, 75087, Note_on_c, 0, 46, 0
1, 75087, Note_on_c, 0, 55, 0
1, 75170, Note_on_c, 0, 63, 0
1, 75170, Note_on_c, 0, 60, 0
1, 75170, Note_on_c, 0, 64, 60
1, 75173, Note_on_c, 0, 61, 49
1, 75259, Note_on_c, 0, 61, 0
1, 75259, Note_on_c, 0, 64, 0
1, 75282, Note_on_c, 0, 70, 73
1, 75282, Note_on_c, 0, 82, 73
1, 75282, Note_on_c, 0, 34, 67
1, 75285, Note_on_c, 0, 46, 67
1, 75349, Note_on_c, 0, 82, 0
1, 75349, Note_on_c, 0, 70, 0
1, 75349, Note_on_c, 0, 69, 72
1, 75352, Note_on_c, 0, 81, 85
1, 75352, Note_on_c, 0, 46, 0
1, 75352, Note_on_c, 0, 34, 0
1, 75355, Note_on_c, 0, 45, 67
1, 75355, Note_on_c, 0, 33, 67
1, 75360, Control_c, 0, 64, 0
1, 75400, Control_c, 0, 64, 127
1, 75400, Control_c, 0, 64, 127
1, 75438, Note_on_c, 0, 54, 54
1, 75438, Note_on_c, 0, 51, 44
1, 75528, Note_on_c, 0, 51, 0
1, 75528, Note_on_c, 0, 54, 0
1, 75528, Note_on_c, 0, 55, 57
1, 75531, Note_on_c, 0, 52, 45
1, 75617, Note_on_c, 0, 81, 0
1, 75617, Note_on_c, 0, 69, 0
1, 75617, Note_on_c, 0, 60, 46
1, 75620, Note_on_c, 0, 63, 59
1, 75620, Note_on_c, 0, 52, 0
1, 75620, Note_on_c, 0, 45, 0
1, 75623, Note_on_c, 0, 33, 0
1, 75623, Note_on_c, 0, 55, 0
1, 75707, Note_on_c, 0, 63, 0
1, 75707, Note_on_c, 0, 60, 0
1, 75707, Note_on_c, 0, 61, 49
1, 75710, Note_on_c, 0, 64, 60
1, 75796, Note_on_c, 0, 64, 0
1, 75796, Note_on_c, 0, 61, 0
1, 75819, Note_on_c, 0, 67, 52
1, 75819, Note_on_c, 0, 79, 73
1, 75819, Note_on_c, 0, 31, 64
1, 75822, Note_on_c, 0, 43, 64
1, 75902, Note_on_c, 0, 79, 0
1, 75902, Note_on_c, 0, 67, 0
1, 75902, Note_on_c, 0, 74, 86
1, 75905, Note_on_c, 0, 66, 62
1, 75905, Note_on_c, 0, 62, 62
1, 75905, Note_on_c, 0, 43, 0
1, 75908, Note_on_c, 0, 31, 0
1, 75908, Note_on_c, 0, 45, 62
1, 75908, Note_on_c, 0, 38, 62
1, 75911, Note_on_c, 0, 50, 74
1, 75911, Control_c, 0, 64, 0
1, 75911, Control_c, 0, 64, 0
1, 75953, Control_c, 0, 64, 127
1, 76080, Note_on_c, 0, 56, 56
1, 76080, Note_on_c, 0, 52, 37
1, 76168, Note_on_c, 0, 62, 0
1, 76168, Note_on_c, 0, 66, 0
1, 76168, Note_on_c, 0, 74, 0
1, 76171, Note_on_c, 0, 54, 45
1, 76171, Note_on_c, 0, 57, 54
1, 76171, Note_on_c, 0, 52, 0
1, 76174, Note_on_c, 0, 50, 0
1, 76174, Note_on_c, 0, 45, 0
1, 76174, Note_on_c, 0, 38, 0
1, 76177, Note_on_c, 0, 56, 0
1, 76257, Note_on_c, 0, 57, 0
1, 76257, Note_on_c, 0, 54, 0
1, 76257, Note_on_c, 0, 65, 51
1, 76260, Note_on_c, 0, 68, 61
1, 76345, Note_on_c, 0, 68, 0
1, 76345, Note_on_c, 0, 65, 0
1, 76345, Note_on_c, 0, 69, 64
1, 76348, Note_on_c, 0, 66, 54
1, 76432, Note_on_c, 0, 66, 0
1, 76432, Note_on_c, 0, 69, 0
1, 76432, Note_on_c, 0, 80, 67
1, 76435, Note_on_c, 0, 77, 56
1, 76519, Note_on_c, 0, 77, 0
1, 76519, Note_on_c, 0, 80, 0
1, 76519, Note_on_c, 0, 78, 59
1, 76522, Note_on_c, 0, 81, 70
1, 76606, Note_on_c, 0, 81, 0
1, 76606, Note_on_c, 0, 78, 0
1, 76606, Note_on_c, 0, 89, 62
1, 76609, Note_on_c, 0, 92, 73
1, 76692, Note_on_c, 0, 92, 0
1, 76692, Note_on_c, 0, 89, 0
1, 76692, Note_on_c, 0, 90, 70
1, 76695, Note_on_c, 0, 93, 83
1, 76865, Control_c, 0, 64, 0
1, 76898, Note_on_c, 0, 93, 0
1, 76898, Note_on_c, 0, 90, 0
1, 77001, Note_on_c, 0, 74, 78
1, 77001, Note_on_c, 0, 62, 66
1, 77001, Note_on_c, 0, 50, 71
1, 77004, Note_on_c, 0, 38, 60
1, 77096, Note_on_c, 0, 62, 0
1, 77096, Note_on_c, 0, 74, 0
1, 77096, Note_on_c, 0, 72, 62
1, 77099, Note_on_c, 0, 78, 62
1, 77099, Note_on_c, 0, 84, 86
1, 77099, Note_on_c, 0, 38, 0
1, 77102, Note_on_c, 0, 50, 0
1, 77102, Note_on_c, 0, 45, 62
1, 77102, Note_on_c, 0, 39, 62
1, 77105, Note_on_c, 0, 51, 74
1, 77105, Control_c, 0, 64, 0
1, 77105, Control_c, 0, 64, 0
1, 77147, Control_c, 0, 64, 127
1, 77274, Note_on_c, 0, 59, 56
1, 77274, Note_on_c, 0, 56, 37
1, 77363, Note_on_c, 0, 57, 45
1, 77363, Note_on_c, 0, 60, 54
1, 77363, Note_on_c, 0, 56, 0
1, 77366, Note_on_c, 0, 59, 0
1, 77451, Note_on_c, 0, 60, 0
1, 77451, Note_on_c, 0, 57, 0
1, 77451, Note_on_c, 0, 68, 51
1, 77454, Note_on_c, 0, 71, 61
1, 77539, Note_on_c, 0, 71, 0
1, 77539, Note_on_c, 0, 68, 0
1, 77539, Note_on_c, 0, 72, 64
1, 77542, Note_on_c, 0, 69, 54
1, 77627, Note_on_c, 0, 69, 0
1, 77627, Note_on_c, 0, 84, 0
1, 77627, Note_on_c, 0, 72, 0
1, 77630, Note_on_c, 0, 78, 0
1, 77630, Note_on_c, 0, 72, 0
1, 77630, Note_on_c, 0, 80, 56
1, 77633, Note_on_c, 0, 83, 67
1, 77633, Note_on_c, 0, 45, 0
1, 77633, Note_on_c, 0, 39, 0
1, 77636, Note_on_c, 0, 51, 0
1, 77714, Note_on_c, 0, 83, 0
1, 77714, Note_on_c, 0, 80, 0
1, 77714, Note_on_c, 0, 81, 59
1, 77717, Note_on_c, 0, 84, 70
1, 77800, Note_on_c, 0, 84, 0
1, 77800, Note_on_c, 0, 81, 0
1, 77800, Note_on_c, 0, 95, 73
1, 77803, Note_on_c, 0, 92, 62
1, 77886, Note_on_c, 0, 92, 0
1, 77886, Note_on_c, 0, 95, 0
1, 77886, Note_on_c, 0, 96, 83
1, 77889, Note_on_c, 0, 93, 70
1, 78043, Control_c, 0, 64, 0
1, 78073, Note_on_c, 0, 93, 0
1, 78073, Note_on_c, 0, 96, 0
1, 78166, Note_on_c, 0, 74, 78
1, 78166, Note_on_c, 0, 62, 66
1, 78166, Note_on_c, 0, 38, 60
1, 78169, Note_on_c, 0, 50, 71
1, 78254, Note_on_c, 0, 62, 0
1, 78254, Note_on_c, 0, 74, 0
1, 78254, Note_on_c, 0, 71, 62
1, 78257, Note_on_c, 0, 77, 62
1, 78257, Note_on_c, 0, 83, 86
1, 78257, Note_on_c, 0, 50, 0
1, 78260, Note_on_c, 0, 38, 0
1, 78260, Note_on_c, 0, 44, 62
1, 78260, Note_on_c, 0, 39, 62
1, 78263, Note_on_c, 0, 51, 74
1, 78263, Control_c, 0, 64, 0
1, 78263, Control_c, 0, 64, 0
1, 78306, Control_c, 0, 64, 127
1, 78432, Note_on_c, 0, 58, 56
1, 78432, Note_on_c, 0, 55, 37
1, 78521, Note_on_c, 0, 56, 45
1, 78521, Note_on_c, 0, 59, 54
1, 78521, Note_on_c, 0, 55, 0
1, 78524, Note_on_c, 0, 58, 0
1, 78609, Note_on_c, 0, 59, 0
1, 78609, Note_on_c, 0, 56, 0
1, 78609, Note_on_c, 0, 67, 51
1, 78612, Note_on_c, 0, 70, 61
1, 78697, Note_on_c, 0, 70, 0
1, 78697, Note_on_c, 0, 67, 0
1, 78697, Note_on_c, 0, 68, 54
1, 78700, Note_on_c, 0, 71, 64
1, 78785, Note_on_c, 0, 71, 0
1, 78785, Note_on_c, 0, 83, 0
1, 78785, Note_on_c, 0, 71, 0
1, 78788, Note_on_c, 0, 77, 0
1, 78788, Note_on_c, 0, 68, 0
1, 78788, Note_on_c, 0, 79, 56
1, 78791, Note_on_c, 0, 82, 67
1, 78791, Note_on_c, 0, 44, 0
1, 78791, Note_on_c, 0, 39, 0
1, 78794, Note_on_c, 0, 51, 0
1, 78872, Note_on_c, 0, 82, 0
1, 78872, Note_on_c, 0, 79, 0
1, 78872, Note_on_c, 0, 80, 59
1, 78875, Note_on_c, 0, 83, 70
1, 78958, Note_on_c, 0, 83, 0
1, 78958, Note_on_c, 0, 80, 0
1, 78958, Note_on_c, 0, 91, 62
1, 78961, Note_on_c, 0, 94, 73
1, 79045, Note_on_c, 0, 94, 0
1, 79045, Note_on_c, 0, 91, 0
1, 79045, Note_on_c, 0, 95, 83
1, 79048, Note_on_c, 0, 92, 70
1, 79193, Control_c, 0, 64, 0
1, 79222, Note_on_c, 0, 92, 0
1, 79222, Note_on_c, 0, 95, 0
1, 79311, Note_on_c, 0, 74, 78
1, 79311, Note_on_c, 0, 62, 66
1, 79311, Note_on_c, 0, 38, 60
1, 79314, Note_on_c, 0, 50, 71
1, 79396, Note_on_c, 0, 62, 0
1, 79396, Note_on_c, 0, 74, 0
1, 79396, Note_on_c, 0, 82, 86
1, 79399, Note_on_c, 0, 70, 73
1, 79399, Note_on_c, 0, 50, 0
1, 79399, Note_on_c, 0, 38, 0
1, 79402, Note_on_c, 0, 34, 67
1, 79402, Note_on_c, 0, 46, 67
1, 79402, Control_c, 0, 64, 0
1, 79405, Control_c, 0, 64, 0
1, 79447, Control_c, 0, 64, 127
1, 79485, Note_on_c, 0, 51, 43
1, 79485, Note_on_c, 0, 54, 54
1, 79575, Note_on_c, 0, 54, 0
1, 79575, Note_on_c, 0, 51, 0
1, 79575, Note_on_c, 0, 52, 44
1, 79578, Note_on_c, 0, 55, 56
1, 79664, Note_on_c, 0, 70, 0
1, 79664, Note_on_c, 0, 82, 0
1, 79664, Note_on_c, 0, 63, 59
1, 79667, Note_on_c, 0, 60, 46
1, 79667, Note_on_c, 0, 55, 0
1, 79667, Note_on_c, 0, 34, 0
1, 79670, Note_on_c, 0, 46, 0
1, 79670, Note_on_c, 0, 52, 0
1, 79754, Note_on_c, 0, 60, 0
1, 79754, Note_on_c, 0, 63, 0
1, 79754, Note_on_c, 0, 64, 60
1, 79757, Note_on_c, 0, 61, 49
1, 79843, Note_on_c, 0, 61, 0
1, 79843, Note_on_c, 0, 64, 0
1, 79865, Note_on_c, 0, 70, 73
1, 79865, Note_on_c, 0, 82, 73
1, 79865, Note_on_c, 0, 34, 67
1, 79868, Note_on_c, 0, 46, 67
1, 79933, Note_on_c, 0, 82, 0
1, 79933, Note_on_c, 0, 70, 0
1, 79933, Note_on_c, 0, 69, 72
1, 79936, Note_on_c, 0, 81, 85
1, 79936, Note_on_c, 0, 46, 0
1, 79936, Note_on_c, 0, 34, 0
1, 79939, Note_on_c, 0, 33, 67
1, 79939, Note_on_c, 0, 45, 67
1, 79943, Control_c, 0, 64, 0
1, 79984, Control_c, 0, 64, 127
1, 79984, Control_c, 0, 64, 127
1, 80022, Note_on_c, 0, 54, 54
1, 80022, Note_on_c, 0, 51, 44
1, 80111, Note_on_c, 0, 51, 0
1, 80111, Note_on_c, 0, 54, 0
1, 80111, Note_on_c, 0, 55, 57
1, 80114, Note_on_c, 0, 52, 45
1, 80201, Note_on_c, 0, 81, 0
1, 80201, Note_on_c, 0, 69, 0
1, 80201, Note_on_c, 0, 60, 46
1, 80204, Note_on_c, 0, 63, 59
1, 80204, Note_on_c, 0, 52, 0
1, 80204, Note_on_c, 0, 33, 0
1, 80207, Note_on_c, 0, 45, 0
1, 80207, Note_on_c, 0, 55, 0
1, 80290, Note_on_c, 0, 63, 0
1, 80290, Note_on_c, 0, 60, 0
1, 80290, Note_on_c, 0, 61, 49
1, 80293, Note_on_c, 0, 64, 60
1, 80380, Note_on_c, 0, 64, 0
1, 80380, Note_on_c, 0, 61, 0
1, 80402, Note_on_c, 0, 67, 52
1, 80402, Note_on_c, 0, 79, 73
1, 80402, Note_on_c, 0, 31, 64
1, 80405, Note_on_c, 0, 43, 64
1, 80485, Note_on_c, 0, 79, 0
1, 80485, Note_on_c, 0, 67, 0
1, 80485, Note_on_c, 0, 66, 62
1, 80488, Note_on_c, 0, 74, 78
1, 80488, Note_on_c, 0, 62, 62
1, 80488, Note_on_c, 0, 43, 0
1, 80491, Note_on_c, 0, 31, 0
1, 80491, Note_on_c, 0, 38, 52
1, 80491, Note_on_c, 0, 45, 52
1, 80494, Note_on_c, 0, 50, 67
1, 80494, Control_c, 0, 64, 0
1, 80529, Control_c, 0, 64, 127
1, 80586, Control_c, 0, 64, 0
1, 80606, Note_on_c, 0, 62, 0
1, 80606, Note_on_c, 0, 74, 0
1, 80606, Note_on_c, 0, 66, 0
1, 80609, Note_on_c, 0, 50, 0
1, 80609, Note_on_c, 0, 45, 0
1, 80609, Note_on_c, 0, 38, 0
1, 80725, Note_on_c, 0, 94, 70
1, 80725, Note_on_c, 0, 85, 46
1, 80725, Note_on_c, 0, 76, 39
1, 80728, Note_on_c, 0, 67, 56
1, 80744, Control_c, 0, 64, 127
1, 80796, Note_on_c, 0, 85, 0
1, 80796, Note_on_c, 0, 84, 46
1, 80796, Note_on_c, 0, 76, 0
1, 80799, Note_on_c, 0, 75, 39
1, 80868, Note_on_c, 0, 84, 0
1, 80868, Note_on_c, 0, 83, 47
1, 80868, Note_on_c, 0, 75, 0
1, 80871, Note_on_c, 0, 74, 39
1, 80939, Note_on_c, 0, 83, 0
1, 80939, Note_on_c, 0, 94, 0
1, 80939, Note_on_c, 0, 82, 48
1, 80942, Note_on_c, 0, 91, 73
1, 80942, Note_on_c, 0, 74, 0
1, 80942, Note_on_c, 0, 67, 0
1, 80945, Note_on_c, 0, 73, 40
1, 80945, Note_on_c, 0, 64, 59
1, 80945, Control_c, 0, 64, 0
1, 80965, Control_c, 0, 64, 127
1, 81010, Note_on_c, 0, 82, 0
1, 81010, Note_on_c, 0, 81, 48
1, 81010, Note_on_c, 0, 73, 0
1, 81013, Note_on_c, 0, 72, 41
1, 81081, Note_on_c, 0, 81, 0
1, 81081, Note_on_c, 0, 80, 49
1, 81081, Note_on_c, 0, 72, 0
1, 81084, Note_on_c, 0, 71, 41
1, 81151, Note_on_c, 0, 80, 0
1, 81151, Note_on_c, 0, 91, 0
1, 81151, Note_on_c, 0, 79, 50
1, 81154, Note_on_c, 0, 88, 77
1, 81154, Note_on_c, 0, 71, 0
1, 81154, Note_on_c, 0, 64, 0
1, 81157, Note_on_c, 0, 61, 62
1, 81157, Note_on_c, 0, 70, 41
1, 81157, Control_c, 0, 64, 0
1, 81182, Control_c, 0, 64, 127
1, 81222, Note_on_c, 0, 79, 0
1, 81222, Note_on_c, 0, 78, 50
1, 81222, Note_on_c, 0, 70, 0
1, 81225, Note_on_c, 0, 69, 42
1, 81292, Note_on_c, 0, 78, 0
1, 81292, Note_on_c, 0, 77, 51
1, 81292, Note_on_c, 0, 69, 0
1, 81295, Note_on_c, 0, 68, 43
1, 81362, Note_on_c, 0, 77, 0
1, 81362, Note_on_c, 0, 88, 0
1, 81362, Note_on_c, 0, 85, 80
1, 81365, Note_on_c, 0, 76, 51
1, 81365, Note_on_c, 0, 68, 0
1, 81365, Note_on_c, 0, 61, 0
1, 81368, Note_on_c, 0, 58, 65
1, 81368, Note_on_c, 0, 67, 43
1, 81368, Control_c, 0, 64, 0
1, 81405, Control_c, 0, 64, 127
1, 81467, Note_on_c, 0, 76, 0
1, 81467, Note_on_c, 0, 85, 0
1, 81467, Note_on_c, 0, 67, 0
1, 81470, Note_on_c, 0, 58, 0
1, 81572, Note_on_c, 0, 70, 47
1, 81572, Note_on_c, 0, 82, 84
1, 81572, Note_on_c, 0, 49, 56
1, 81575, Note_on_c, 0, 55, 39
1, 81575, Note_on_c, 0, 43, 34
1, 81575, Note_on_c, 0, 52, 39
1, 81581, Control_c, 0, 64, 0
1, 81616, Control_c, 0, 64, 127
1, 81644, Note_on_c, 0, 70, 0
1, 81644, Note_on_c, 0, 73, 60
1, 81680, Note_on_c, 0, 52, 0
1, 81680, Note_on_c, 0, 49, 0
1, 81680, Note_on_c, 0, 55, 0
1, 81683, Note_on_c, 0, 43, 0
1, 81716, Note_on_c, 0, 73, 0
1, 81716, Note_on_c, 0, 76, 60
1, 81789, Note_on_c, 0, 76, 0
1, 81789, Note_on_c, 0, 82, 0
1, 81789, Note_on_c, 0, 74, 68
1, 81792, Note_on_c, 0, 86, 85
1, 81792, Note_on_c, 0, 78, 68
1, 81792, Note_on_c, 0, 62, 73
1, 81795, Note_on_c, 0, 54, 57
1, 81795, Note_on_c, 0, 50, 57
1, 81795, Note_on_c, 0, 57, 57
1, 81798, Control_c, 0, 64, 0
1, 81832, Control_c, 0, 64, 127
1, 81887, Control_c, 0, 64, 0
1, 81907, Note_on_c, 0, 78, 0
1, 81907, Note_on_c, 0, 86, 0
1, 81907, Note_on_c, 0, 74, 0
1, 81910, Note_on_c, 0, 57, 0
1, 81910, Note_on_c, 0, 62, 0
1, 81910, Note_on_c, 0, 54, 0
1, 81913, Note_on_c, 0, 50, 0
1, 82024, Note_on_c, 0, 82, 70
1, 82024, Note_on_c, 0, 73, 46
1, 82024, Note_on_c, 0, 64, 39
1, 82027, Note_on_c, 0, 55, 56
1, 82043, Control_c, 0, 64, 127
1, 82096, Note_on_c, 0, 73, 0
1, 82096, Note_on_c, 0, 72, 46
1, 82096, Note_on_c, 0, 64, 0
1, 82099, Note_on_c, 0, 63, 39
1, 82168, Note_on_c, 0, 72, 0
1, 82168, Note_on_c, 0, 71, 47
1, 82168, Note_on_c, 0, 63, 0
1, 82171, Note_on_c, 0, 62, 39
1, 82240, Note_on_c, 0, 71, 0
1, 82240, Note_on_c, 0, 82, 0
1, 82240, Note_on_c, 0, 79, 73
1, 82243, Note_on_c, 0, 70, 48
1, 82243, Note_on_c, 0, 62, 0
1, 82243, Note_on_c, 0, 55, 0
1, 82246, Note_on_c, 0, 61, 40
1, 82246, Note_on_c, 0, 52, 59
1, 82246, Control_c, 0, 64, 0
1, 82267, Control_c, 0, 64, 127
1, 82312, Note_on_c, 0, 70, 0
1, 82312, Note_on_c, 0, 69, 48
1, 82312, Note_on_c, 0, 61, 0
1, 82315, Note_on_c, 0, 60, 41
1, 82383, Note_on_c, 0, 69, 0
1, 82383, Note_on_c, 0, 68, 49
1, 82383, Note_on_c, 0, 60, 0
1, 82386, Note_on_c, 0, 59, 41
1, 82454, Note_on_c, 0, 68, 0
1, 82454, Note_on_c, 0, 79, 0
1, 82454, Note_on_c, 0, 76, 77
1, 82457, Note_on_c, 0, 67, 50
1, 82457, Note_on_c, 0, 59, 0
1, 82457, Note_on_c, 0, 52, 0
1, 82460, Note_on_c, 0, 58, 41
1, 82460, Note_on_c, 0, 49, 62
1, 82460, Control_c, 0, 64, 0
1, 82486, Control_c, 0, 64, 127
1, 82525, Note_on_c, 0, 67, 0
1, 82525, Note_on_c, 0, 66, 50
1, 82525, Note_on_c, 0, 58, 0
1, 82528, Note_on_c, 0, 57, 42
1, 82596, Note_on_c, 0, 66, 0
1, 82596, Note_on_c, 0, 65, 51
1, 82596, Note_on_c, 0, 57, 0
1, 82599, Note_on_c, 0, 56, 43
1, 82667, Note_on_c, 0, 65, 0
1, 82667, Note_on_c, 0, 76, 0
1, 82667, Note_on_c, 0, 64, 51
1, 82670, Note_on_c, 0, 73, 80
1, 82670, Note_on_c, 0, 56, 0
1, 82670, Note_on_c, 0, 49, 0
1, 82673, Note_on_c, 0, 55, 43
1, 82673, Note_on_c, 0, 46, 65
1, 82673, Control_c, 0, 64, 0
1, 82710, Control_c, 0, 64, 127
1, 82772, Note_on_c, 0, 73, 0
1, 82772, Note_on_c, 0, 64, 0
1, 82772, Note_on_c, 0, 46, 0
1, 82775, Note_on_c, 0, 55, 0
1, 82877, Note_on_c, 0, 70, 84
1, 82877, Note_on_c, 0, 58, 47
1, 82877, Note_on_c, 0, 49, 56
1, 82880, Note_on_c, 0, 52, 39
1, 82880, Note_on_c, 0, 55, 39
1, 82880, Note_on_c, 0, 43, 34
1, 82887, Control_c, 0, 64, 0
1, 82924, Control_c, 0, 64, 127
1, 82952, Note_on_c, 0, 58, 0
1, 82952, Note_on_c, 0, 61, 60
1, 82990, Note_on_c, 0, 43, 0
1, 82990, Note_on_c, 0, 49, 0
1, 82990, Note_on_c, 0, 52, 0
1, 82993, Note_on_c, 0, 55, 0
1, 83027, Note_on_c, 0, 61, 0
1, 83027, Note_on_c, 0, 64, 60
1, 83102, Note_on_c, 0, 64, 0
1, 83102, Note_on_c, 0, 70, 0
1, 83102, Note_on_c, 0, 66, 73
1, 83105, Note_on_c, 0, 74, 93
1, 83105, Note_on_c, 0, 62, 73
1, 83105, Note_on_c, 0, 50, 73
1, 83108, Note_on_c, 0, 42, 57
1, 83108, Note_on_c, 0, 38, 57
1, 83108, Note_on_c, 0, 45, 57
1, 83111, Control_c, 0, 64, 0
1, 83132, Control_c, 0, 64, 127
1, 83210, Note_on_c, 0, 62, 0
1, 83210, Note_on_c, 0, 74, 0
1, 83210, Note_on_c, 0, 66, 0
1, 83213, Note_on_c, 0, 45, 0
1, 83213, Note_on_c, 0, 50, 0
1, 83213, Note_on_c, 0, 42, 0
1, 83216, Note_on_c, 0, 38, 0
1, 83216, Control_c, 0, 64, 0
1, 83318, Note_on_c, 0, 76, 70
1, 83318, Note_on_c, 0, 64, 57
1, 83318, Note_on_c, 0, 46, 53
1, 83321, Note_on_c, 0, 49, 53
1, 83321, Note_on_c, 0, 43, 53
1, 83321, Note_on_c, 0, 55, 53
1, 83330, Control_c, 0, 64, 127
1, 83391, Note_on_c, 0, 64, 0
1, 83391, Note_on_c, 0, 70, 57
1, 83428, Note_on_c, 0, 55, 0
1, 83428, Note_on_c, 0, 46, 0
1, 83428, Note_on_c, 0, 49, 0
1, 83431, Note_on_c, 0, 43, 0
1, 83464, Note_on_c, 0, 70, 0
1, 83464, Note_on_c, 0, 73, 57
1, 83535, Control_c, 0, 64, 0
1, 83538, Note_on_c, 0, 73, 0
1, 83538, Note_on_c, 0, 76, 0
1, 83538, Note_on_c, 0, 69, 71
1, 83541, Note_on_c, 0, 78, 90
1, 83541, Note_on_c, 0, 66, 71
1, 83541, Note_on_c, 0, 62, 54
1, 83544, Note_on_c, 0, 57, 54
1, 83544, Note_on_c, 0, 54, 54
1, 83544, Note_on_c, 0, 50, 54
1, 83589, Control_c, 0, 64, 127
1, 83630, Control_c, 0, 64, 0
1, 83646, Note_on_c, 0, 66, 0
1, 83646, Note_on_c, 0, 78, 0
1, 83646, Note_on_c, 0, 69, 0
1, 83649, Note_on_c, 0, 50, 0
1, 83649, Note_on_c, 0, 62, 0
1, 83649, Note_on_c, 0, 57, 0
1, 83652, Note_on_c, 0, 54, 0
1, 83753, Note_on_c, 0, 82, 71
1, 83753, Note_on_c, 0, 70, 58
1, 83753, Note_on_c, 0, 43, 54
1, 83756, Note_on_c, 0, 49, 54
1, 83756, Note_on_c, 0, 46, 54
1, 83756, Note_on_c, 0, 55, 54
1, 83772, Control_c, 0, 64, 127
1, 83826, Note_on_c, 0, 70, 0
1, 83826, Note_on_c, 0, 73, 58
1, 83863, Note_on_c, 0, 55, 0
1, 83863, Note_on_c, 0, 43, 0
1, 83863, Note_on_c, 0, 49, 0
1, 83866, Note_on_c, 0, 46, 0
1, 83899, Note_on_c, 0, 73, 0
1, 83899, Note_on_c, 0, 76, 59
1, 83972, Note_on_c, 0, 76, 0
1, 83972, Note_on_c, 0, 82, 0
1, 83972, Note_on_c, 0, 78, 72
1, 83975, Note_on_c, 0, 74, 72
1, 83975, Note_on_c, 0, 86, 91
1, 83975, Note_on_c, 0, 42, 55
1, 83978, Note_on_c, 0, 38, 55
1, 83978, Note_on_c, 0, 45, 55
1, 83978, Note_on_c, 0, 50, 55
1, 83981, Control_c, 0, 64, 0
1, 84018, Control_c, 0, 64, 127
1, 84074, Control_c, 0, 64, 0
1, 84079, Note_on_c, 0, 86, 0
1, 84079, Note_on_c, 0, 74, 0
1, 84079, Note_on_c, 0, 78, 0
1, 84082, Note_on_c, 0, 50, 0
1, 84082, Note_on_c, 0, 42, 0
1, 84082, Note_on_c, 0, 38, 0
1, 84085, Note_on_c, 0, 45, 0
1, 84186, Note_on_c, 0, 88, 73
1, 84186, Note_on_c, 0, 76, 60
1, 84186, Note_on_c, 0, 34, 56
1, 84189, Note_on_c, 0, 31, 56
1, 84189, Note_on_c, 0, 37, 56
1, 84189, Note_on_c, 0, 43, 56
1, 84223, Control_c, 0, 64, 127
1, 84260, Note_on_c, 0, 76, 0
1, 84260, Note_on_c, 0, 82, 60
1, 84296, Note_on_c, 0, 43, 0
1, 84296, Note_on_c, 0, 34, 0
1, 84296, Note_on_c, 0, 31, 0
1, 84299, Note_on_c, 0, 37, 0
1, 84333, Note_on_c, 0, 82, 0
1, 84333, Note_on_c, 0, 85, 60
1, 84406, Note_on_c, 0, 85, 0
1, 84406, Note_on_c, 0, 88, 0
1, 84406, Note_on_c, 0, 90, 94
1, 84409, Note_on_c, 0, 81, 74
1, 84409, Note_on_c, 0, 78, 74
1, 84409, Note_on_c, 0, 50, 74
1, 84412, Note_on_c, 0, 42, 57
1, 84412, Note_on_c, 0, 38, 57
1, 84412, Note_on_c, 0, 45, 57
1, 84415, Control_c, 0, 64, 0
1, 84437, Control_c, 0, 64, 127
1, 84514, Note_on_c, 0, 78, 0
1, 84514, Note_on_c, 0, 81, 0
1, 84514, Note_on_c, 0, 90, 0
1, 84517, Note_on_c, 0, 45, 0
1, 84517, Note_on_c, 0, 50, 0
1, 84517, Note_on_c, 0, 42, 0
1, 84520, Note_on_c, 0, 38, 0
1, 84520, Control_c, 0, 64, 0
1, 84622, Note_on_c, 0, 82, 61
1, 84622, Note_on_c, 0, 94, 75
1, 84622, Note_on_c, 0, 34, 57
1, 84625, Note_on_c, 0, 43, 57
1, 84625, Note_on_c, 0, 31, 57
1, 84625, Note_on_c, 0, 37, 57
1, 84634, Control_c, 0, 64, 127
1, 84695, Note_on_c, 0, 82, 0
1, 84695, Note_on_c, 0, 85, 61
1, 84732, Note_on_c, 0, 37, 0
1, 84732, Note_on_c, 0, 34, 0
1, 84732, Note_on_c, 0, 43, 0
1, 84735, Note_on_c, 0, 31, 0
1, 84768, Note_on_c, 0, 85, 0
1, 84768, Note_on_c, 0, 88, 62
1, 84839, Control_c, 0, 64, 0
1, 84842, Note_on_c, 0, 88, 0
1, 84842, Note_on_c, 0, 94, 0
1, 84842, Note_on_c, 0, 90, 75
1, 84845, Note_on_c, 0, 86, 75
1, 84845, Note_on_c, 0, 98, 96
1, 84845, Note_on_c, 0, 38, 57
1, 84848, Note_on_c, 0, 45, 57
1, 84848, Note_on_c, 0, 50, 57
1, 84848, Note_on_c, 0, 42, 57
1, 84893, Control_c, 0, 64, 127
1, 84934, Control_c, 0, 64, 0
1, 84950, Note_on_c, 0, 98, 0
1, 84950, Note_on_c, 0, 86, 0
1, 84950, Note_on_c, 0, 90, 0
1, 84953, Note_on_c, 0, 42, 0
1, 84953, Note_on_c, 0, 38, 0
1, 84953, Note_on_c, 0, 45, 0
1, 84956, Note_on_c, 0, 50, 0
1, 85057, Note_on_c, 0, 94, 77
1, 85057, Note_on_c, 0, 82, 63
1, 85057, Note_on_c, 0, 37, 58
1, 85060, Note_on_c, 0, 34, 58
1, 85060, Note_on_c, 0, 31, 58
1, 85060, Note_on_c, 0, 43, 58
1, 85076, Control_c, 0, 64, 127
1, 85131, Note_on_c, 0, 82, 0
1, 85131, Note_on_c, 0, 85, 63
1, 85168, Note_on_c, 0, 43, 0
1, 85168, Note_on_c, 0, 37, 0
1, 85168, Note_on_c, 0, 34, 0
1, 85171, Note_on_c, 0, 31, 0
1, 85204, Note_on_c, 0, 85, 0
1, 85204, Note_on_c, 0, 88, 63
1, 85278, Note_on_c, 0, 88, 0
1, 85278, Note_on_c, 0, 94, 0
1, 85278, Note_on_c, 0, 86, 77
1, 85281, Note_on_c, 0, 90, 77
1, 85281, Note_on_c, 0, 98, 98
1, 85281, Note_on_c, 0, 38, 59
1, 85284, Note_on_c, 0, 50, 59
1, 85284, Note_on_c, 0, 42, 59
1, 85284, Note_on_c, 0, 45, 59
1, 85287, Control_c, 0, 64, 0
1, 85324, Control_c, 0, 64, 127
1, 85380, Control_c, 0, 64, 0
1, 85386, Note_on_c, 0, 98, 0
1, 85386, Note_on_c, 0, 90, 0
1, 85386, Note_on_c, 0, 86, 0
1, 85389, Note_on_c, 0, 45, 0
1, 85389, Note_on_c, 0, 38, 0
1, 85389, Note_on_c, 0, 50, 0
1, 85392, Note_on_c, 0, 42, 0
1, 85493, Note_on_c, 0, 94, 78
1, 85493, Note_on_c, 0, 82, 64
1, 85493, Note_on_c, 0, 43, 59
1, 85496, Note_on_c, 0, 31, 59
1, 85496, Note_on_c, 0, 34, 59
1, 85496, Note_on_c, 0, 37, 59
1, 85530, Control_c, 0, 64, 127
1, 85566, Note_on_c, 0, 82, 0
1, 85566, Note_on_c, 0, 85, 64
1, 85603, Note_on_c, 0, 37, 0
1, 85603, Note_on_c, 0, 43, 0
1, 85603, Note_on_c, 0, 31, 0
1, 85606, Note_on_c, 0, 34, 0
1, 85639, Note_on_c, 0, 85, 0
1, 85639, Note_on_c, 0, 88, 64
1, 85713, Note_on_c, 0, 88, 0
1, 85713, Note_on_c, 0, 94, 0
1, 85713, Note_on_c, 0, 98, 78
1, 85716, Note_on_c, 0, 86, 66
1, 85716, Note_on_c, 0, 90, 78
1, 85716, Note_on_c, 0, 38, 59
1, 85719, Note_on_c, 0, 42, 59
1, 85719, Note_on_c, 0, 45, 59
1, 85719, Note_on_c, 0, 50, 59
1, 85722, Control_c, 0, 64, 0
1, 85786, Control_c, 0, 64, 127
1, 85823, Note_on_c, 0, 90, 0
1, 85823, Note_on_c, 0, 86, 0
1, 85823, Note_on_c, 0, 98, 0
1, 85826, Note_on_c, 0, 94, 75
1, 85826, Note_on_c, 0, 82, 63
1, 85826, Note_on_c, 0, 50, 0
1, 85829, Note_on_c, 0, 38, 0
1, 85829, Note_on_c, 0, 42, 0
1, 85829, Note_on_c, 0, 45, 0
1, 85932, Note_on_c, 0, 82, 0
1, 85932, Note_on_c, 0, 94, 0
1, 85932, Note_on_c, 0, 81, 66
1, 85935, Note_on_c, 0, 69, 56
1, 86041, Note_on_c, 0, 69, 0
1, 86041, Note_on_c, 0, 81, 0
1, 86041, Note_on_c, 0, 66, 56
1, 86044, Note_on_c, 0, 78, 66
1, 86150, Note_on_c, 0, 74, 62
1, 86150, Note_on_c, 0, 86, 74
1, 86150, Note_on_c, 0, 78, 0
1, 86153, Note_on_c, 0, 66, 0
1, 86258, Note_on_c, 0, 86, 0
1, 86258, Note_on_c, 0, 74, 0
1, 86258, Note_on_c, 0, 70, 62
1, 86261, Note_on_c, 0, 82, 74
1, 86365, Note_on_c, 0, 82, 0
1, 86365, Note_on_c, 0, 70, 0
1, 86365, Note_on_c, 0, 57, 51
1, 86368, Note_on_c, 0, 69, 61
1, 86473, Note_on_c, 0, 69, 0
1, 86473, Note_on_c, 0, 57, 0
1, 86473, Note_on_c, 0, 66, 61
1, 86476, Note_on_c, 0, 54, 51
1, 86581, Note_on_c, 0, 74, 73
1, 86581, Note_on_c, 0, 62, 62
1, 86581, Note_on_c, 0, 54, 0
1, 86584, Note_on_c, 0, 66, 0
1, 86689, Note_on_c, 0, 62, 0
1, 86689, Note_on_c, 0, 74, 0
1, 86689, Note_on_c, 0, 58, 62
1, 86692, Note_on_c, 0, 70, 73
1, 86796, Note_on_c, 0, 70, 0
1, 86796, Note_on_c, 0, 58, 0
1, 86796, Note_on_c, 0, 57, 62
1, 86799, Note_on_c, 0, 45, 52
1, 86904, Note_on_c, 0, 45, 0
1, 86904, Note_on_c, 0, 57, 0
1, 86904, Note_on_c, 0, 54, 62
1, 86907, Note_on_c, 0, 42, 52
1, 87012, Note_on_c, 0, 50, 61
1, 87012, Note_on_c, 0, 62, 72
1, 87012, Note_on_c, 0, 42, 0
1, 87015, Note_on_c, 0, 54, 0
1, 87015, Control_c, 0, 64, 0
1, 87078, Control_c, 0, 64, 127
1, 87120, Note_on_c, 0, 62, 0
1, 87120, Note_on_c, 0, 50, 0
1, 87120, Note_on_c, 0, 48, 56
1, 87123, Note_on_c, 0, 36, 47
1, 87228, Note_on_c, 0, 62, 71
1, 87228, Note_on_c, 0, 50, 60
1, 87228, Note_on_c, 0, 36, 0
1, 87231, Note_on_c, 0, 48, 0
1, 87336, Note_on_c, 0, 50, 0
1, 87336, Note_on_c, 0, 62, 0
1, 87336, Note_on_c, 0, 35, 45
1, 87339, Note_on_c, 0, 47, 54
1, 87445, Note_on_c, 0, 62, 70
1, 87445, Note_on_c, 0, 50, 59
1, 87445, Note_on_c, 0, 47, 0
1, 87448, Note_on_c, 0, 35, 0
1, 87553, Note_on_c, 0, 50, 0
1, 87553, Note_on_c, 0, 62, 0
1, 87553, Note_on_c, 0, 34, 45
1, 87556, Note_on_c, 0, 46, 53
1, 87662, Note_on_c, 0, 62, 69
1, 87662, Note_on_c, 0, 50, 58
1, 87662, Note_on_c, 0, 46, 0
1, 87665, Note_on_c, 0, 34, 0
1, 87771, Note_on_c, 0, 50, 0
1, 87771, Note_on_c, 0, 62, 0
1, 87771, Note_on_c, 0, 31, 43
1, 87774, Note_on_c, 0, 43, 51
1, 87881, Note_on_c, 0, 62, 68
1, 87881, Note_on_c, 0, 50, 57
1, 87881, Note_on_c, 0, 43, 0
1, 87884, Note_on_c, 0, 31, 0
1, 87992, Note_on_c, 0, 50, 0
1, 87992, Note_on_c, 0, 62, 0
1, 87992, Note_on_c, 0, 44, 49
1, 87995, Note_on_c, 0, 32, 41
1, 88104, Note_on_c, 0, 62, 67
1, 88104, Note_on_c, 0, 50, 56
1, 88104, Note_on_c, 0, 32, 0
1, 88107, Note_on_c, 0, 44, 0
1, 88217, Note_on_c, 0, 50, 0
1, 88217, Note_on_c, 0, 62, 0
1, 88217, Note_on_c, 0, 33, 39
1, 88220, Note_on_c, 0, 45, 47
1, 88332, Note_on_c, 0, 45, 0
1, 88332, Note_on_c, 0, 33, 0
1, 88332, Note_on_c, 0, 26, 46
1, 88335, Note_on_c, 0, 38, 56
1, 88335, Control_c, 0, 64, 0
1, 88368, Control_c, 0, 64, 127
1, 88390, Note_on_c, 0, 39, 50
1, 88390, Note_on_c, 0, 51, 61
1, 88390, Note_on_c, 0, 38, 0
1, 88393, Note_on_c, 0, 26, 0
1, 88420, Control_c, 0, 64, 0
1, 88448, Note_on_c, 0, 51, 0
1, 88448, Note_on_c, 0, 39, 0
1, 88448, Note_on_c, 0, 28, 46
1, 88451, Note_on_c, 0, 40, 56
1, 88472, Control_c, 0, 64, 127
1, 88506, Note_on_c, 0, 53, 61
1, 88506, Note_on_c, 0, 41, 50
1, 88506, Note_on_c, 0, 40, 0
1, 88509, Note_on_c, 0, 28, 0
1, 88525, Control_c, 0, 64, 0
1, 88564, Note_on_c, 0, 41, 0
1, 88564, Note_on_c, 0, 53, 0
1, 88564, Note_on_c, 0, 42, 56
1, 88567, Note_on_c, 0, 30, 46
1, 88602, Control_c, 0, 64, 127
1, 88621, Note_on_c, 0, 55, 61
1, 88621, Note_on_c, 0, 43, 50
1, 88621, Note_on_c, 0, 30, 0
1, 88624, Note_on_c, 0, 42, 0
1, 88643, Control_c, 0, 64, 0
1, 88679, Note_on_c, 0, 43, 0
1, 88679, Note_on_c, 0, 55, 0
1, 88679, Note_on_c, 0, 44, 56
1, 88682, Note_on_c, 0, 32, 46
1, 88690, Control_c, 0, 64, 127
1, 88737, Note_on_c, 0, 45, 50
1, 88737, Note_on_c, 0, 57, 61
1, 88737, Note_on_c, 0, 32, 0
1, 88740, Note_on_c, 0, 44, 0
1, 88761, Control_c, 0, 64, 0
1, 88794, Note_on_c, 0, 57, 0
1, 88794, Note_on_c, 0, 45, 0
1, 88794, Note_on_c, 0, 46, 56
1, 88797, Note_on_c, 0, 34, 46
1, 88816, Control_c, 0, 64, 127
1, 88852, Note_on_c, 0, 47, 50
1, 88852, Note_on_c, 0, 59, 61
1, 88852, Note_on_c, 0, 34, 0
1, 88855, Note_on_c, 0, 46, 0
1, 88876, Control_c, 0, 64, 0
1, 88909, Note_on_c, 0, 59, 0
1, 88909, Note_on_c, 0, 47, 0
1, 88909, Note_on_c, 0, 36, 46
1, 88912, Note_on_c, 0, 48, 56
1, 88953, Control_c, 0, 64, 127
1, 88967, Note_on_c, 0, 49, 50
1, 88967, Note_on_c, 0, 61, 61
1, 88967, Note_on_c, 0, 48, 0
1, 88970, Note_on_c, 0, 36, 0
1, 88994, Control_c, 0, 64, 0
1, 89024, Note_on_c, 0, 61, 0
1, 89024, Note_on_c, 0, 49, 0
1, 89024, Note_on_c, 0, 38, 46
1, 89027, Note_on_c, 0, 50, 56
1, 89051, Control_c, 0, 64, 127
1, 89081, Note_on_c, 0, 63, 61
1, 89081, Note_on_c, 0, 51, 50
1, 89081, Note_on_c, 0, 50, 0
1, 89084, Note_on_c, 0, 38, 0
1, 89103, Control_c, 0, 64, 0
1, 89139, Note_on_c, 0, 51, 0
1, 89139, Note_on_c, 0, 63, 0
1, 89139, Note_on_c, 0, 52, 56
1, 89142, Note_on_c, 0, 40, 46
1, 89155, Control_c, 0, 64, 127
1, 89196, Note_on_c, 0, 53, 50
1, 89196, Note_on_c, 0, 65, 61
1, 89196, Note_on_c, 0, 40, 0
1, 89199, Note_on_c, 0, 52, 0
1, 89234, Control_c, 0, 64, 0
1, 89253, Note_on_c, 0, 65, 0
1, 89253, Note_on_c, 0, 53, 0
1, 89253, Note_on_c, 0, 54, 56
1, 89256, Note_on_c, 0, 42, 46
1, 89293, Control_c, 0, 64, 127
1, 89310, Note_on_c, 0, 55, 52
1, 89310, Note_on_c, 0, 67, 62
1, 89310, Note_on_c, 0, 42, 0
1, 89313, Note_on_c, 0, 54, 0
1, 89348, Control_c, 0, 64, 0
1, 89367, Note_on_c, 0, 67, 0
1, 89367, Note_on_c, 0, 55, 0
1, 89367, Note_on_c, 0, 56, 57
1, 89370, Note_on_c, 0, 44, 48
1, 89405, Control_c, 0, 64, 127
1, 89424, Note_on_c, 0, 69, 63
1, 89424, Note_on_c, 0, 57, 54
1, 89424, Note_on_c, 0, 44, 0
1, 89427, Note_on_c, 0, 56, 0
1, 89451, Control_c, 0, 64, 0
1, 89481, Note_on_c, 0, 57, 0
1, 89481, Note_on_c, 0, 69, 0
1, 89481, Note_on_c, 0, 58, 58
1, 89484, Note_on_c, 0, 46, 49
1, 89500, Control_c, 0, 64, 127
1, 89537, Note_on_c, 0, 71, 66
1, 89537, Note_on_c, 0, 59, 55
1, 89537, Note_on_c, 0, 46, 0
1, 89540, Note_on_c, 0, 58, 0
1, 89556, Control_c, 0, 64, 0
1, 89594, Note_on_c, 0, 59, 0
1, 89594, Note_on_c, 0, 71, 0
1, 89594, Note_on_c, 0, 48, 51
1, 89597, Note_on_c, 0, 60, 61
1, 89621, Control_c, 0, 64, 127
1, 89651, Note_on_c, 0, 73, 67
1, 89651, Note_on_c, 0, 61, 56
1, 89651, Note_on_c, 0, 60, 0
1, 89654, Note_on_c, 0, 48, 0
1, 89672, Control_c, 0, 64, 0
1, 89707, Note_on_c, 0, 61, 0
1, 89707, Note_on_c, 0, 73, 0
1, 89707, Note_on_c, 0, 62, 62
1, 89710, Note_on_c, 0, 50, 52
1, 89710, Control_c, 0, 64, 127
1, 89756, Control_c, 0, 64, 0
1, 89764, Note_on_c, 0, 75, 68
1, 89764, Note_on_c, 0, 63, 57
1, 89764, Note_on_c, 0, 50, 0
1, 89767, Note_on_c, 0, 62, 0
1, 89820, Note_on_c, 0, 63, 0
1, 89820, Note_on_c, 0, 75, 0
1, 89820, Note_on_c, 0, 52, 54
1, 89823, Note_on_c, 0, 64, 63
1, 89836, Control_c, 0, 64, 127
1, 89877, Note_on_c, 0, 77, 69
1, 89877, Note_on_c, 0, 65, 58
1, 89877, Note_on_c, 0, 64, 0
1, 89880, Note_on_c, 0, 52, 0
1, 89895, Control_c, 0, 64, 0
1, 89933, Note_on_c, 0, 65, 0
1, 89933, Note_on_c, 0, 77, 0
1, 89933, Note_on_c, 0, 54, 54
1, 89936, Note_on_c, 0, 66, 64
1, 89946, Control_c, 0, 64, 127
1, 89989, Note_on_c, 0, 79, 70
1, 89989, Note_on_c, 0, 67, 58
1, 89989, Note_on_c, 0, 66, 0
1, 89992, Note_on_c, 0, 54, 0
1, 90000, Control_c, 0, 64, 0
1, 90045, Note_on_c, 0, 67, 0
1, 90045, Note_on_c, 0, 79, 0
1, 90045, Note_on_c, 0, 56, 55
1, 90048, Note_on_c, 0, 68, 66
1, 90056, Control_c, 0, 64, 127
1, 90102, Note_on_c, 0, 81, 72
1, 90102, Note_on_c, 0, 69, 60
1, 90102, Note_on_c, 0, 68, 0
1, 90105, Note_on_c, 0, 56, 0
1, 90128, Control_c, 0, 64, 0
1, 90158, Note_on_c, 0, 69, 0
1, 90158, Note_on_c, 0, 81, 0
1, 90158, Note_on_c, 0, 70, 67
1, 90161, Note_on_c, 0, 58, 56
1, 90185, Control_c, 0, 64, 127
1, 90214, Note_on_c, 0, 71, 61
1, 90214, Note_on_c, 0, 83, 73
1, 90214, Note_on_c, 0, 58, 0
1, 90217, Note_on_c, 0, 70, 0
1, 90259, Control_c, 0, 64, 0
1, 90270, Note_on_c, 0, 83, 0
1, 90270, Note_on_c, 0, 71, 0
1, 90270, Note_on_c, 0, 60, 57
1, 90273, Note_on_c, 0, 72, 68
1, 90296, Control_c, 0, 64, 127
1, 90326, Note_on_c, 0, 73, 74
1, 90326, Note_on_c, 0, 85, 74
1, 90326, Note_on_c, 0, 72, 0
1, 90329, Note_on_c, 0, 60, 0
1, 90355, Control_c, 0, 64, 0
1, 90381, Note_on_c, 0, 85, 0
1, 90381, Note_on_c, 0, 73, 0
1, 90381, Note_on_c, 0, 74, 69
1, 90384, Note_on_c, 0, 62, 58
1, 90402, Control_c, 0, 64, 127
1, 90437, Note_on_c, 0, 85, 75
1, 90437, Note_on_c, 0, 73, 63
1, 90437, Note_on_c, 0, 62, 0
1, 90440, Note_on_c, 0, 74, 0
1, 90468, Control_c, 0, 64, 0
1, 90492, Note_on_c, 0, 73, 0
1, 90492, Note_on_c, 0, 85, 0
1, 90492, Note_on_c, 0, 72, 68
1, 90495, Note_on_c, 0, 60, 57
1, 90500, Control_c, 0, 64, 127
1, 90548, Note_on_c, 0, 71, 62
1, 90548, Note_on_c, 0, 83, 74
1, 90548, Note_on_c, 0, 60, 0
1, 90551, Note_on_c, 0, 72, 0
1, 90556, Control_c, 0, 64, 0
1, 90604, Note_on_c, 0, 83, 0
1, 90604, Note_on_c, 0, 71, 0
1, 90604, Note_on_c, 0, 58, 56
1, 90607, Note_on_c, 0, 70, 67
1, 90607, Control_c, 0, 64, 127
1, 90659, Note_on_c, 0, 69, 61
1, 90659, Note_on_c, 0, 81, 73
1, 90659, Note_on_c, 0, 70, 0
1, 90662, Note_on_c, 0, 58, 0
1, 90689, Control_c, 0, 64, 0
1, 90715, Note_on_c, 0, 81, 0
1, 90715, Note_on_c, 0, 69, 0
1, 90715, Note_on_c, 0, 56, 55
1, 90718, Note_on_c, 0, 68, 66
1, 90739, Control_c, 0, 64, 127
1, 90771, Note_on_c, 0, 79, 72
1, 90771, Note_on_c, 0, 67, 60
1, 90771, Note_on_c, 0, 68, 0
1, 90774, Note_on_c, 0, 56, 0
1, 90816, Control_c, 0, 64, 0
1, 90826, Note_on_c, 0, 67, 0
1, 90826, Note_on_c, 0, 79, 0
1, 90826, Note_on_c, 0, 54, 54
1, 90829, Note_on_c, 0, 66, 64
1, 90858, Control_c, 0, 64, 127
1, 90882, Note_on_c, 0, 77, 70
1, 90882, Note_on_c, 0, 65, 58
1, 90882, Note_on_c, 0, 66, 0
1, 90885, Note_on_c, 0, 54, 0
1, 90924, Control_c, 0, 64, 0
1, 90938, Note_on_c, 0, 65, 0
1, 90938, Note_on_c, 0, 77, 0
1, 90938, Note_on_c, 0, 64, 63
1, 90941, Note_on_c, 0, 52, 54
1, 90959, Control_c, 0, 64, 127
1, 90994, Note_on_c, 0, 63, 58
1, 90994, Note_on_c, 0, 75, 69
1, 90994, Note_on_c, 0, 52, 0
1, 90997, Note_on_c, 0, 64, 0
1, 91015, Control_c, 0, 64, 0
1, 91050, Note_on_c, 0, 75, 0
1, 91050, Note_on_c, 0, 63, 0
1, 91050, Note_on_c, 0, 50, 52
1, 91053, Note_on_c, 0, 62, 62
1, 91053, Control_c, 0, 64, 127
1, 91105, Note_on_c, 0, 73, 68
1, 91105, Note_on_c, 0, 61, 57
1, 91105, Note_on_c, 0, 62, 0
1, 91108, Note_on_c, 0, 50, 0
1, 91132, Control_c, 0, 64, 0
1, 91161, Note_on_c, 0, 61, 0
1, 91161, Note_on_c, 0, 73, 0
1, 91161, Note_on_c, 0, 60, 61
1, 91164, Note_on_c, 0, 48, 51
1, 91177, Control_c, 0, 64, 127
1, 91217, Note_on_c, 0, 59, 56
1, 91217, Note_on_c, 0, 71, 67
1, 91217, Note_on_c, 0, 48, 0
1, 91220, Note_on_c, 0, 60, 0
1, 91273, Note_on_c, 0, 71, 0
1, 91273, Note_on_c, 0, 59, 0
1, 91273, Note_on_c, 0, 46, 50
1, 91276, Note_on_c, 0, 58, 60
1, 91276, Control_c, 0, 64, 0
1, 91300, Control_c, 0, 64, 127
1, 91329, Note_on_c, 0, 69, 66
1, 91329, Note_on_c, 0, 57, 55
1, 91329, Note_on_c, 0, 58, 0
1, 91332, Note_on_c, 0, 46, 0
1, 91386, Note_on_c, 0, 57, 0
1, 91386, Note_on_c, 0, 69, 0
1, 91386, Note_on_c, 0, 56, 58
1, 91389, Note_on_c, 0, 44, 49
1, 91389, Control_c, 0, 64, 0
1, 91407, Control_c, 0, 64, 127
1, 91442, Note_on_c, 0, 67, 62
1, 91442, Note_on_c, 0, 55, 52
1, 91442, Note_on_c, 0, 44, 0
1, 91445, Note_on_c, 0, 56, 0
1, 91499, Note_on_c, 0, 55, 0
1, 91499, Note_on_c, 0, 67, 0
1, 91499, Note_on_c, 0, 42, 48
1, 91502, Note_on_c, 0, 54, 57
1, 91502, Control_c, 0, 64, 0
1, 91520, Control_c, 0, 64, 127
1, 91555, Note_on_c, 0, 65, 61
1, 91555, Note_on_c, 0, 53, 50
1, 91555, Note_on_c, 0, 54, 0
1, 91558, Note_on_c, 0, 42, 0
1, 91612, Note_on_c, 0, 53, 0
1, 91612, Note_on_c, 0, 65, 0
1, 91612, Note_on_c, 0, 52, 56
1, 91615, Note_on_c, 0, 40, 46
1, 91615, Control_c, 0, 64, 0
1, 91644, Control_c, 0, 64, 127
1, 91669, Note_on_c, 0, 63, 61
1, 91669, Note_on_c, 0, 51, 50
1, 91669, Note_on_c, 0, 40, 0
1, 91672, Note_on_c, 0, 52, 0
1, 91726, Note_on_c, 0, 51, 0
1, 91726, Note_on_c, 0, 63, 0
1, 91726, Note_on_c, 0, 38, 46
1, 91729, Note_on_c, 0, 50, 55
1, 91729, Control_c, 0, 64, 0
1, 91773, Control_c, 0, 64, 127
1, 91784, Note_on_c, 0, 49, 50
1, 91784, Note_on_c, 0, 61, 60
1, 91784, Note_on_c, 0, 50, 0
1, 91787, Note_on_c, 0, 38, 0
1, 91838, Control_c, 0, 64, 0
1, 91841, Note_on_c, 0, 61, 0
1, 91841, Note_on_c, 0, 49, 0
1, 91841, Note_on_c, 0, 48, 54
1, 91844, Note_on_c, 0, 36, 45
1, 91871, Control_c, 0, 64, 127
1, 91899, Note_on_c, 0, 59, 57
1, 91899, Note_on_c, 0, 47, 48
1, 91899, Note_on_c, 0, 36, 0
1, 91902, Note_on_c, 0, 48, 0
1, 91957, Note_on_c, 0, 47, 0
1, 91957, Note_on_c, 0, 59, 0
1, 91957, Note_on_c, 0, 34, 44
1, 91960, Note_on_c, 0, 46, 52
1, 91960, Control_c, 0, 64, 0
1, 91987, Control_c, 0, 64, 127
1, 92015, Note_on_c, 0, 57, 56
1, 92015, Note_on_c, 0, 45, 46
1, 92015, Note_on_c, 0, 46, 0
1, 92018, Note_on_c, 0, 34, 0
1, 92073, Note_on_c, 0, 45, 0
1, 92073, Note_on_c, 0, 57, 0
1, 92073, Note_on_c, 0, 32, 43
1, 92076, Note_on_c, 0, 44, 51
1, 92079, Control_c, 0, 64, 0
1, 92115, Control_c, 0, 64, 127
1, 92132, Note_on_c, 0, 43, 45
1, 92132, Note_on_c, 0, 55, 55
1, 92132, Note_on_c, 0, 44, 0
1, 92135, Note_on_c, 0, 32, 0
1, 92192, Note_on_c, 0, 55, 0
1, 92192, Note_on_c, 0, 43, 0
1, 92192, Note_on_c, 0, 30, 42
1, 92195, Note_on_c, 0, 42, 50
1, 92206, Control_c, 0, 64, 0
1, 92241, Control_c, 0, 64, 127
1, 92253, Note_on_c, 0, 41, 44
1, 92253, Note_on_c, 0, 53, 54
1, 92253, Note_on_c, 0, 42, 0
1, 92256, Note_on_c, 0, 30, 0
1, 92314, Note_on_c, 0, 53, 0
1, 92314, Note_on_c, 0, 41, 0
1, 92314, Note_on_c, 0, 28, 40
1, 92317, Note_on_c, 0, 40, 49
1, 92317, Control_c, 0, 64, 0
1, 92351, Control_c, 0, 64, 127
1, 92375, Note_on_c, 0, 39, 44
1, 92375, Note_on_c, 0, 51, 52
1, 92375, Note_on_c, 0, 40, 0
1, 92378, Note_on_c, 0, 28, 0
1, 92437, Note_on_c, 0, 51, 0
1, 92437, Note_on_c, 0, 39, 0
1, 92437, Note_on_c, 0, 26, 49
1, 92440, Note_on_c, 0, 38, 49
1, 92440, Control_c, 0, 64, 0
1, 92579, Control_c, 0, 64, 127
1, 93033, Note_on_c, 0, 38, 0
1, 93033, Note_on_c, 0, 26, 0
1, 93033, Note_on_c, 0, 50, 42
1, 93036, Note_on_c, 0, 38, 42
1, 93407, Note_on_c, 0, 38, 0
1, 93407, Note_on_c, 0, 50, 0
1, 93407, Note_on_c, 0, 62, 43
1, 93410, Note_on_c, 0, 50, 43
1, 93783, Control_c, 0, 64, 0
1, 93849, Note_on_c, 0, 50, 0
1, 93849, Note_on_c, 0, 62, 0
1, 93896, Note_on_c, 0, 46, 29
1, 93904, Control_c, 0, 64, 127
1, 93943, Note_on_c, 0, 53, 35
1, 93989, Note_on_c, 0, 58, 40
1, 94036, Note_on_c, 0, 62, 52
1, 94084, Note_on_c, 0, 46, 0
1, 94132, Note_on_c, 0, 53, 0
1, 94164, Note_on_c, 0, 65, 30
1, 94164, Note_on_c, 0, 62, 25
1, 94180, Note_on_c, 0, 58, 0
1, 94272, Note_on_c, 0, 62, 0
1, 94272, Note_on_c, 0, 65, 0
1, 94272, Note_on_c, 0, 70, 26
1, 94275, Note_on_c, 0, 74, 31
1, 94375, Note_on_c, 0, 74, 0
1, 94375, Note_on_c, 0, 70, 0
1, 94375, Note_on_c, 0, 74, 27
1, 94378, Note_on_c, 0, 77, 32
1, 94477, Note_on_c, 0, 77, 0
1, 94477, Note_on_c, 0, 74, 0
1, 94477, Note_on_c, 0, 86, 33
1, 94480, Note_on_c, 0, 82, 28
1, 94528, Note_on_c, 0, 62, 0
1, 94528, Note_on_c, 0, 34, 29
1, 94566, Note_on_c, 0, 46, 32
1, 94579, Note_on_c, 0, 82, 0
1, 94579, Note_on_c, 0, 86, 0
1, 94579, Note_on_c, 0, 86, 28
1, 94582, Note_on_c, 0, 89, 34
1, 94604, Note_on_c, 0, 53, 35
1, 94642, Note_on_c, 0, 58, 38
1, 94680, Note_on_c, 0, 89, 0
1, 94680, Note_on_c, 0, 86, 0
1, 94680, Note_on_c, 0, 94, 29
1, 94683, Note_on_c, 0, 98, 35
1, 94683, Note_on_c, 0, 34, 0
1, 94683, Note_on_c, 0, 62, 49
1, 94719, Note_on_c, 0, 46, 0
1, 94758, Note_on_c, 0, 53, 0
1, 94784, Note_on_c, 0, 98, 0
1, 94784, Note_on_c, 0, 94, 0
1, 94784, Note_on_c, 0, 86, 31
1, 94787, Note_on_c, 0, 89, 37
1, 94797, Note_on_c, 0, 58, 0
1, 94888, Note_on_c, 0, 89, 0
1, 94888, Note_on_c, 0, 86, 0
1, 94888, Note_on_c, 0, 86, 35
1, 94891, Note_on_c, 0, 82, 29
1, 94992, Note_on_c, 0, 82, 0
1, 94992, Note_on_c, 0, 86, 0
1, 94992, Note_on_c, 0, 77, 34
1, 94995, Note_on_c, 0, 74, 28
1, 95095, Note_on_c, 0, 74, 0
1, 95095, Note_on_c, 0, 77, 0
1, 95095, Note_on_c, 0, 74, 32
1, 95098, Note_on_c, 0, 70, 27
1, 95146, Note_on_c, 0, 62, 0
1, 95146, Note_on_c, 0, 60, 46
1, 95205, Note_on_c, 0, 70, 0
1, 95205, Note_on_c, 0, 74, 0
1, 95205, Note_on_c, 0, 65, 30
1, 95208, Note_on_c, 0, 62, 25
1, 95208, Control_c, 0, 64, 0
1, 95250, Note_on_c, 0, 62, 0
1, 95250, Note_on_c, 0, 65, 0
1, 95257, Note_on_c, 0, 60, 0
1, 95257, Note_on_c, 0, 46, 35
1, 95279, Note_on_c, 0, 50, 38
1, 95302, Note_on_c, 0, 53, 42
1, 95324, Note_on_c, 0, 58, 52
1, 95324, Control_c, 0, 64, 127
1, 95444, Note_on_c, 0, 46, 0
1, 95452, Note_on_c, 0, 62, 25
1, 95452, Note_on_c, 0, 65, 30
1, 95468, Note_on_c, 0, 50, 0
1, 95489, Note_on_c, 0, 53, 0
1, 95560, Note_on_c, 0, 65, 0
1, 95560, Note_on_c, 0, 62, 0
1, 95560, Note_on_c, 0, 74, 31
1, 95563, Note_on_c, 0, 70, 26
1, 95663, Note_on_c, 0, 70, 0
1, 95663, Note_on_c, 0, 74, 0
1, 95663, Note_on_c, 0, 77, 32
1, 95666, Note_on_c, 0, 74, 27
1, 95765, Note_on_c, 0, 74, 0
1, 95765, Note_on_c, 0, 77, 0
1, 95765, Note_on_c, 0, 86, 33
1, 95768, Note_on_c, 0, 82, 28
1, 95816, Note_on_c, 0, 58, 0
1, 95816, Note_on_c, 0, 34, 33
1, 95854, Note_on_c, 0, 46, 36
1, 95867, Note_on_c, 0, 82, 0
1, 95867, Note_on_c, 0, 86, 0
1, 95867, Note_on_c, 0, 86, 28
1, 95870, Note_on_c, 0, 89, 34
1, 95893, Note_on_c, 0, 50, 40
1, 95930, Note_on_c, 0, 53, 44
1, 95968, Note_on_c, 0, 89, 0
1, 95968, Note_on_c, 0, 86, 0
1, 95968, Note_on_c, 0, 94, 29
1, 95971, Note_on_c, 0, 98, 35
1, 95971, Note_on_c, 0, 34, 0
1, 95971, Note_on_c, 0, 58, 48
1, 96007, Note_on_c, 0, 46, 0
1, 96046, Note_on_c, 0, 50, 0
1, 96072, Note_on_c, 0, 98, 0
1, 96072, Note_on_c, 0, 94, 0
1, 96072, Note_on_c, 0, 89, 37
1, 96075, Note_on_c, 0, 86, 31
1, 96085, Note_on_c, 0, 53, 0
1, 96176, Note_on_c, 0, 86, 0
1, 96176, Note_on_c, 0, 89, 0
1, 96176, Note_on_c, 0, 86, 35
1, 96179, Note_on_c, 0, 82, 29
1, 96280, Note_on_c, 0, 82, 0
1, 96280, Note_on_c, 0, 86, 0
1, 96280, Note_on_c, 0, 74, 28
1, 96283, Note_on_c, 0, 77, 34
1, 96383, Note_on_c, 0, 77, 0
1, 96383, Note_on_c, 0, 74, 0
1, 96383, Note_on_c, 0, 74, 32
1, 96386, Note_on_c, 0, 70, 27
1, 96434, Note_on_c, 0, 58, 0
1, 96434, Note_on_c, 0, 58, 49
1, 96493, Note_on_c, 0, 70, 0
1, 96493, Note_on_c, 0, 74, 0
1, 96493, Note_on_c, 0, 65, 30
1, 96496, Note_on_c, 0, 62, 25
1, 96523, Control_c, 0, 64, 0
1, 96538, Note_on_c, 0, 62, 0
1, 96538, Note_on_c, 0, 65, 0
1, 96545, Note_on_c, 0, 58, 0
1, 96545, Note_on_c, 0, 46, 35
1, 96567, Note_on_c, 0, 51, 39
1, 96590, Note_on_c, 0, 54, 42
1, 96612, Note_on_c, 0, 57, 52
1, 96612, Control_c, 0, 64, 127
1, 96732, Note_on_c, 0, 46, 0
1, 96740, Note_on_c, 0, 63, 25
1, 96740, Note_on_c, 0, 66, 30
1, 96756, Note_on_c, 0, 51, 0
1, 96777, Note_on_c, 0, 54, 0
1, 96848, Note_on_c, 0, 66, 0
1, 96848, Note_on_c, 0, 63, 0
1, 96848, Note_on_c, 0, 75, 31
1, 96851, Note_on_c, 0, 72, 26
1, 96951, Note_on_c, 0, 72, 0
1, 96951, Note_on_c, 0, 75, 0
1, 96951, Note_on_c, 0, 78, 32
1, 96954, Note_on_c, 0, 75, 27
1, 97053, Note_on_c, 0, 75, 0
1, 97053, Note_on_c, 0, 78, 0
1, 97053, Note_on_c, 0, 84, 28
1, 97056, Note_on_c, 0, 87, 33
1, 97104, Note_on_c, 0, 57, 0
1, 97104, Note_on_c, 0, 57, 56
1, 97155, Note_on_c, 0, 87, 0
1, 97155, Note_on_c, 0, 84, 0
1, 97155, Note_on_c, 0, 87, 28
1, 97158, Note_on_c, 0, 90, 34
1, 97203, Note_on_c, 0, 57, 0
1, 97226, Note_on_c, 0, 54, 40
1, 97249, Note_on_c, 0, 57, 43
1, 97270, Note_on_c, 0, 90, 0
1, 97270, Note_on_c, 0, 87, 0
1, 97270, Note_on_c, 0, 99, 35
1, 97273, Note_on_c, 0, 96, 29
1, 97273, Note_on_c, 0, 66, 60
1, 97374, Note_on_c, 0, 96, 0
1, 97374, Note_on_c, 0, 99, 0
1, 97374, Note_on_c, 0, 87, 31
1, 97377, Note_on_c, 0, 90, 37
1, 97387, Note_on_c, 0, 54, 0
1, 97406, Note_on_c, 0, 57, 0
1, 97478, Note_on_c, 0, 90, 0
1, 97478, Note_on_c, 0, 87, 0
1, 97478, Note_on_c, 0, 87, 35
1, 97481, Note_on_c, 0, 84, 29
1, 97581, Note_on_c, 0, 84, 0
1, 97581, Note_on_c, 0, 87, 0
1, 97581, Note_on_c, 0, 75, 28
1, 97584, Note_on_c, 0, 78, 34
1, 97684, Note_on_c, 0, 78, 0
1, 97684, Note_on_c, 0, 75, 0
1, 97684, Note_on_c, 0, 75, 32
1, 97687, Note_on_c, 0, 72, 27
1, 97736, Note_on_c, 0, 66, 0
1, 97736, Note_on_c, 0, 57, 49
1, 97795, Note_on_c, 0, 72, 0
1, 97795, Note_on_c, 0, 75, 0
1, 97795, Note_on_c, 0, 66, 30
1, 97798, Note_on_c, 0, 63, 25
1, 97825, Control_c, 0, 64, 0
1, 97840, Note_on_c, 0, 63, 0
1, 97840, Note_on_c, 0, 66, 0
1, 97869, Note_on_c, 0, 57, 0
1, 97869, Note_on_c, 0, 46, 37
1, 97891, Note_on_c, 0, 53, 44
1, 97914, Note_on_c, 0, 60, 55
1, 97914, Control_c, 0, 64, 127
1, 98042, Note_on_c, 0, 65, 30
1, 98042, Note_on_c, 0, 62, 25
1, 98058, Note_on_c, 0, 46, 0
1, 98079, Note_on_c, 0, 53, 0
1, 98150, Note_on_c, 0, 62, 0
1, 98150, Note_on_c, 0, 65, 0
1, 98150, Note_on_c, 0, 70, 26
1, 98153, Note_on_c, 0, 74, 31
1, 98253, Note_on_c, 0, 74, 0
1, 98253, Note_on_c, 0, 70, 0
1, 98253, Note_on_c, 0, 77, 32
1, 98256, Note_on_c, 0, 74, 27
1, 98355, Note_on_c, 0, 74, 0
1, 98355, Note_on_c, 0, 77, 0
1, 98355, Note_on_c, 0, 86, 33
1, 98358, Note_on_c, 0, 82, 28
1, 98457, Note_on_c, 0, 82, 0
1, 98457, Note_on_c, 0, 86, 0
1, 98457, Note_on_c, 0, 86, 28
1, 98460, Note_on_c, 0, 89, 34
1, 98558, Note_on_c, 0, 89, 0
1, 98558, Note_on_c, 0, 86, 0
1, 98558, Note_on_c, 0, 98, 35
1, 98561, Note_on_c, 0, 94, 29
1, 98561, Note_on_c, 0, 60, 0
1, 98561, Note_on_c, 0, 58, 50
1, 98657, Note_on_c, 0, 94, 0
1, 98657, Note_on_c, 0, 98, 0
1, 98657, Note_on_c, 0, 86, 31
1, 98660, Note_on_c, 0, 89, 37
1, 98708, Note_on_c, 0, 58, 0
1, 98758, Note_on_c, 0, 89, 0
1, 98758, Note_on_c, 0, 86, 0
1, 98758, Note_on_c, 0, 82, 29
1, 98761, Note_on_c, 0, 86, 35
1, 98859, Note_on_c, 0, 86, 0
1, 98859, Note_on_c, 0, 82, 0
1, 98859, Note_on_c, 0, 74, 28
1, 98862, Note_on_c, 0, 77, 34
1, 98961, Note_on_c, 0, 77, 0
1, 98961, Note_on_c, 0, 74, 0
1, 98961, Note_on_c, 0, 74, 32
1, 98964, Note_on_c, 0, 70, 27
1, 99017, Control_c, 0, 64, 0
1, 99064, Control_c, 0, 64, 127
1, 99072, Note_on_c, 0, 70, 0
1, 99072, Note_on_c, 0, 74, 0
1, 99072, Note_on_c, 0, 62, 25
1, 99075, Note_on_c, 0, 65, 30
1, 99119, Note_on_c, 0, 65, 0
1, 99119, Note_on_c, 0, 62, 0
1, 99126, Note_on_c, 0, 50, 29
1, 99150, Note_on_c, 0, 55, 35
1, 99173, Note_on_c, 0, 58, 40
1, 99196, Note_on_c, 0, 62, 52
1, 99316, Note_on_c, 0, 50, 0
1, 99324, Note_on_c, 0, 62, 25
1, 99324, Note_on_c, 0, 67, 30
1, 99341, Note_on_c, 0, 55, 0
1, 99362, Note_on_c, 0, 58, 0
1, 99433, Note_on_c, 0, 67, 0
1, 99433, Note_on_c, 0, 62, 0
1, 99433, Note_on_c, 0, 74, 31
1, 99436, Note_on_c, 0, 70, 26
1, 99536, Note_on_c, 0, 70, 0
1, 99536, Note_on_c, 0, 74, 0
1, 99536, Note_on_c, 0, 74, 27
1, 99539, Note_on_c, 0, 79, 32
1, 99638, Note_on_c, 0, 79, 0
1, 99638, Note_on_c, 0, 74, 0
1, 99638, Note_on_c, 0, 82, 28
1, 99641, Note_on_c, 0, 86, 33
1, 99689, Note_on_c, 0, 62, 0
1, 99689, Note_on_c, 0, 31, 29
1, 99708, Note_on_c, 0, 43, 29
1, 99727, Note_on_c, 0, 50, 32
1, 99740, Note_on_c, 0, 86, 0
1, 99740, Note_on_c, 0, 82, 0
1, 99740, Note_on_c, 0, 91, 34
1, 99743, Note_on_c, 0, 86, 28
1, 99765, Note_on_c, 0, 55, 35
1, 99803, Note_on_c, 0, 58, 38
1, 99841, Note_on_c, 0, 86, 0
1, 99841, Note_on_c, 0, 91, 0
1, 99841, Note_on_c, 0, 94, 29
1, 99844, Note_on_c, 0, 98, 35
1, 99844, Note_on_c, 0, 31, 0
1, 99844, Note_on_c, 0, 62, 49
1, 99860, Note_on_c, 0, 43, 0
1, 99880, Note_on_c, 0, 50, 0
1, 99919, Note_on_c, 0, 55, 0
1, 99945, Note_on_c, 0, 98, 0
1, 99945, Note_on_c, 0, 94, 0
1, 99945, Note_on_c, 0, 86, 31
1, 99948, Note_on_c, 0, 91, 37
1, 99958, Note_on_c, 0, 58, 0
1, 100049, Note_on_c, 0, 91, 0
1, 100049, Note_on_c, 0, 86, 0
1, 100049, Note_on_c, 0, 82, 29
1, 100052, Note_on_c, 0, 86, 35
1, 100152, Note_on_c, 0, 86, 0
1, 100152, Note_on_c, 0, 82, 0
1, 100152, Note_on_c, 0, 79, 34
1, 100155, Note_on_c, 0, 74, 28
1, 100255, Note_on_c, 0, 74, 0
1, 100255, Note_on_c, 0, 79, 0
1, 100255, Note_on_c, 0, 74, 32
1, 100258, Note_on_c, 0, 70, 27
1, 100307, Note_on_c, 0, 62, 0
1, 100307, Note_on_c, 0, 60, 46
1, 100366, Note_on_c, 0, 70, 0
1, 100366, Note_on_c, 0, 74, 0
1, 100366, Note_on_c, 0, 67, 30
1, 100369, Note_on_c, 0, 62, 25
1, 100369, Control_c, 0, 64, 0
1, 100418, Note_on_c, 0, 60, 0
1, 100440, Note_on_c, 0, 43, 35
1, 100462, Note_on_c, 0, 50, 38
1, 100484, Note_on_c, 0, 62, 0
1, 100484, Note_on_c, 0, 67, 0
1, 100484, Note_on_c, 0, 58, 52
1, 100487, Control_c, 0, 64, 127
1, 100613, Note_on_c, 0, 62, 25
1, 100613, Note_on_c, 0, 67, 30
1, 100629, Note_on_c, 0, 43, 0
1, 100650, Note_on_c, 0, 50, 0
1, 100721, Note_on_c, 0, 67, 0
1, 100721, Note_on_c, 0, 62, 0
1, 100721, Note_on_c, 0, 70, 26
1, 100724, Note_on_c, 0, 74, 31
1, 100824, Note_on_c, 0, 74, 0
1, 100824, Note_on_c, 0, 70, 0
1, 100824, Note_on_c, 0, 74, 27
1, 100827, Note_on_c, 0, 79, 32
1, 100926, Note_on_c, 0, 79, 0
1, 100926, Note_on_c, 0, 74, 0
1, 100926, Note_on_c, 0, 86, 33
1, 100929, Note_on_c, 0, 82, 28
1, 100977, Note_on_c, 0, 58, 0
1, 100977, Note_on_c, 0, 31, 33
1, 101015, Note_on_c, 0, 43, 36
1, 101028, Note_on_c, 0, 82, 0
1, 101028, Note_on_c, 0, 86, 0
1, 101028, Note_on_c, 0, 86, 28
1, 101031, Note_on_c, 0, 91, 34
1, 101053, Note_on_c, 0, 50, 40
1, 101091, Note_on_c, 0, 55, 44
1, 101129, Note_on_c, 0, 91, 0
1, 101129, Note_on_c, 0, 86, 0
1, 101129, Note_on_c, 0, 94, 29
1, 101132, Note_on_c, 0, 98, 35
1, 101132, Note_on_c, 0, 31, 0
1, 101132, Note_on_c, 0, 58, 48
1, 101168, Note_on_c, 0, 43, 0
1, 101207, Note_on_c, 0, 50, 0
1, 101233, Note_on_c, 0, 98, 0
1, 101233, Note_on_c, 0, 94, 0
1, 101233, Note_on_c, 0, 91, 37
1, 101236, Note_on_c, 0, 86, 31
1, 101246, Note_on_c, 0, 55, 0
1, 101337, Note_on_c, 0, 86, 0
1, 101337, Note_on_c, 0, 91, 0
1, 101337, Note_on_c, 0, 82, 29
1, 101340, Note_on_c, 0, 86, 35
1, 101440, Note_on_c, 0, 86, 0
1, 101440, Note_on_c, 0, 82, 0
1, 101440, Note_on_c, 0, 79, 34
1, 101443, Note_on_c, 0, 74, 28
1, 101543, Note_on_c, 0, 74, 0
1, 101543, Note_on_c, 0, 79, 0
1, 101543, Note_on_c, 0, 74, 32
1, 101546, Note_on_c, 0, 70, 27
1, 101595, Note_on_c, 0, 58, 0
1, 101595, Note_on_c, 0, 58, 49
1, 101654, Note_on_c, 0, 70, 0
1, 101654, Note_on_c, 0, 74, 0
1, 101654, Note_on_c, 0, 67, 30
1, 101657, Note_on_c, 0, 62, 25
1, 101684, Control_c, 0, 64, 0
1, 101706, Note_on_c, 0, 58, 0
1, 101706, Note_on_c, 0, 48, 35
1, 101728, Note_on_c, 0, 52, 39
1, 101750, Note_on_c, 0, 58, 42
1, 101772, Note_on_c, 0, 62, 0
1, 101772, Note_on_c, 0, 67, 0
1, 101772, Note_on_c, 0, 61, 52
1, 101775, Control_c, 0, 64, 127
1, 101893, Note_on_c, 0, 48, 0
1, 101901, Note_on_c, 0, 67, 30
1, 101901, Note_on_c, 0, 64, 25
1, 101917, Note_on_c, 0, 52, 0
1, 101938, Note_on_c, 0, 58, 0
1, 102009, Note_on_c, 0, 64, 0
1, 102009, Note_on_c, 0, 67, 0
1, 102009, Note_on_c, 0, 76, 31
1, 102012, Note_on_c, 0, 70, 26
1, 102112, Note_on_c, 0, 70, 0
1, 102112, Note_on_c, 0, 76, 0
1, 102112, Note_on_c, 0, 76, 27
1, 102115, Note_on_c, 0, 79, 32
1, 102214, Note_on_c, 0, 79, 0
1, 102214, Note_on_c, 0, 76, 0
1, 102214, Note_on_c, 0, 88, 33
1, 102217, Note_on_c, 0, 82, 28
1, 102265, Note_on_c, 0, 61, 0
1, 102265, Note_on_c, 0, 60, 56
1, 102316, Note_on_c, 0, 82, 0
1, 102316, Note_on_c, 0, 88, 0
1, 102316, Note_on_c, 0, 91, 34
1, 102319, Note_on_c, 0, 88, 28
1, 102364, Note_on_c, 0, 60, 0
1, 102387, Note_on_c, 0, 55, 40
1, 102410, Note_on_c, 0, 60, 43
1, 102430, Note_on_c, 0, 88, 0
1, 102430, Note_on_c, 0, 91, 0
1, 102430, Note_on_c, 0, 94, 29
1, 102433, Note_on_c, 0, 100, 35
1, 102433, Note_on_c, 0, 70, 60
1, 102534, Note_on_c, 0, 100, 0
1, 102534, Note_on_c, 0, 94, 0
1, 102534, Note_on_c, 0, 88, 31
1, 102537, Note_on_c, 0, 91, 37
1, 102547, Note_on_c, 0, 55, 0
1, 102567, Note_on_c, 0, 60, 0
1, 102638, Note_on_c, 0, 91, 0
1, 102638, Note_on_c, 0, 88, 0
1, 102638, Note_on_c, 0, 82, 29
1, 102641, Note_on_c, 0, 88, 35
1, 102742, Note_on_c, 0, 88, 0
1, 102742, Note_on_c, 0, 82, 0
1, 102742, Note_on_c, 0, 79, 34
1, 102745, Note_on_c, 0, 76, 28
1, 102845, Note_on_c, 0, 76, 0
1, 102845, Note_on_c, 0, 79, 0
1, 102845, Note_on_c, 0, 76, 32
1, 102848, Note_on_c, 0, 70, 27
1, 102896, Note_on_c, 0, 70, 0
1, 102896, Note_on_c, 0, 64, 49
1, 102956, Note_on_c, 0, 70, 0
1, 102956, Note_on_c, 0, 76, 0
1, 102956, Note_on_c, 0, 67, 30
1, 102985, Control_c, 0, 64, 0
1, 103007, Note_on_c, 0, 41, 37
1, 103030, Note_on_c, 0, 64, 0
1, 103030, Note_on_c, 0, 48, 37
1, 103052, Note_on_c, 0, 57, 44
1, 103074, Note_on_c, 0, 67, 0
1, 103074, Note_on_c, 0, 65, 55
1, 103074, Control_c, 0, 64, 127
1, 103194, Note_on_c, 0, 41, 0
1, 103202, Note_on_c, 0, 65, 25
1, 103202, Note_on_c, 0, 69, 30
1, 103218, Note_on_c, 0, 48, 0
1, 103239, Note_on_c, 0, 57, 0
1, 103310, Note_on_c, 0, 69, 0
1, 103310, Note_on_c, 0, 65, 0
1, 103310, Note_on_c, 0, 72, 26
1, 103313, Note_on_c, 0, 77, 31
1, 103413, Note_on_c, 0, 77, 0
1, 103413, Note_on_c, 0, 72, 0
1, 103413, Note_on_c, 0, 81, 32
1, 103416, Note_on_c, 0, 77, 27
1, 103516, Note_on_c, 0, 77, 0
1, 103516, Note_on_c, 0, 81, 0
1, 103516, Note_on_c, 0, 89, 33
1, 103519, Note_on_c, 0, 84, 28
1, 103617, Note_on_c, 0, 84, 0
1, 103617, Note_on_c, 0, 89, 0
1, 103617, Note_on_c, 0, 89, 28
1, 103620, Note_on_c, 0, 93, 34
1, 103718, Note_on_c, 0, 93, 0
1, 103718, Note_on_c, 0, 89, 0
1, 103718, Note_on_c, 0, 96, 29
1, 103721, Note_on_c, 0, 101, 35
1, 103818, Note_on_c, 0, 101, 0
1, 103818, Note_on_c, 0, 96, 0
1, 103818, Note_on_c, 0, 89, 31
1, 103821, Note_on_c, 0, 93, 37
1, 103919, Note_on_c, 0, 93, 0
1, 103919, Note_on_c, 0, 89, 0
1, 103919, Note_on_c, 0, 84, 29
1, 103922, Note_on_c, 0, 89, 35
1, 104020, Note_on_c, 0, 89, 0
1, 104020, Note_on_c, 0, 84, 0
1, 104020, Note_on_c, 0, 81, 34
1, 104023, Note_on_c, 0, 77, 28
1, 104023, Note_on_c, 0, 65, 0
1, 104121, Note_on_c, 0, 77, 0
1, 104121, Note_on_c, 0, 81, 0
1, 104121, Note_on_c, 0, 77, 32
1, 104124, Note_on_c, 0, 72, 27
1, 104233, Note_on_c, 0, 72, 0
1, 104233, Note_on_c, 0, 77, 0
1, 104233, Note_on_c, 0, 65, 27
1, 104236, Note_on_c, 0, 69, 30
1, 104287, Note_on_c, 0, 49, 29
1, 104290, Control_c, 0, 64, 0
1, 104310, Note_on_c, 0, 56, 35
1, 104334, Note_on_c, 0, 61, 40
1, 104357, Note_on_c, 0, 69, 0
1, 104357, Note_on_c, 0, 65, 0
1, 104357, Note_on_c, 0, 65, 52
1, 104391, Control_c, 0, 64, 127
1, 104477, Note_on_c, 0, 49, 0
1, 104485, Note_on_c, 0, 65, 25
1, 104485, Note_on_c, 0, 68, 30
1, 104501, Note_on_c, 0, 56, 0
1, 104522, Note_on_c, 0, 61, 0
1, 104593, Note_on_c, 0, 68, 0
1, 104593, Note_on_c, 0, 65, 0
1, 104593, Note_on_c, 0, 73, 26
1, 104596, Note_on_c, 0, 77, 31
1, 104696, Note_on_c, 0, 77, 0
1, 104696, Note_on_c, 0, 73, 0
1, 104696, Note_on_c, 0, 80, 32
1, 104699, Note_on_c, 0, 77, 27
1, 104798, Note_on_c, 0, 77, 0
1, 104798, Note_on_c, 0, 80, 0
1, 104798, Note_on_c, 0, 85, 28
1, 104801, Note_on_c, 0, 89, 33
1, 104849, Note_on_c, 0, 65, 0
1, 104849, Note_on_c, 0, 37, 29
1, 104888, Note_on_c, 0, 49, 32
1, 104900, Note_on_c, 0, 89, 0
1, 104900, Note_on_c, 0, 85, 0
1, 104900, Note_on_c, 0, 89, 28
1, 104903, Note_on_c, 0, 92, 34
1, 104926, Note_on_c, 0, 56, 35
1, 104964, Note_on_c, 0, 61, 38
1, 105001, Note_on_c, 0, 92, 0
1, 105001, Note_on_c, 0, 89, 0
1, 105001, Note_on_c, 0, 97, 29
1, 105004, Note_on_c, 0, 101, 35
1, 105004, Note_on_c, 0, 37, 0
1, 105004, Note_on_c, 0, 65, 49
1, 105040, Note_on_c, 0, 49, 0
1, 105079, Note_on_c, 0, 56, 0
1, 105105, Note_on_c, 0, 101, 0
1, 105105, Note_on_c, 0, 97, 0
1, 105105, Note_on_c, 0, 92, 37
1, 105108, Note_on_c, 0, 89, 31
1, 105118, Note_on_c, 0, 61, 0
1, 105209, Note_on_c, 0, 89, 0
1, 105209, Note_on_c, 0, 92, 0
1, 105209, Note_on_c, 0, 89, 35
1, 105212, Note_on_c, 0, 85, 29
1, 105313, Note_on_c, 0, 85, 0
1, 105313, Note_on_c, 0, 89, 0
1, 105313, Note_on_c, 0, 80, 34
1, 105316, Note_on_c, 0, 77, 28
1, 105416, Note_on_c, 0, 77, 0
1, 105416, Note_on_c, 0, 80, 0
1, 105416, Note_on_c, 0, 77, 32
1, 105419, Note_on_c, 0, 73, 27
1, 105467, Note_on_c, 0, 65, 0
1, 105467, Note_on_c, 0, 65, 46
1, 105527, Note_on_c, 0, 73, 0
1, 105527, Note_on_c, 0, 77, 0
1, 105527, Note_on_c, 0, 68, 30
1, 105560, Control_c, 0, 64, 0
1, 105571, Note_on_c, 0, 68, 0
1, 105578, Note_on_c, 0, 65, 0
1, 105578, Note_on_c, 0, 56, 35
1, 105601, Note_on_c, 0, 61, 38
1, 105623, Note_on_c, 0, 63, 42
1, 105645, Note_on_c, 0, 68, 52
1, 105645, Control_c, 0, 64, 127
1, 105765, Note_on_c, 0, 56, 0
1, 105773, Note_on_c, 0, 68, 30
1, 105773, Note_on_c, 0, 63, 25
1, 105789, Note_on_c, 0, 61, 0
1, 105810, Note_on_c, 0, 63, 0
1, 105881, Note_on_c, 0, 63, 0
1, 105881, Note_on_c, 0, 68, 0
1, 105881, Note_on_c, 0, 73, 26
1, 105884, Note_on_c, 0, 75, 31
1, 105984, Note_on_c, 0, 75, 0
1, 105984, Note_on_c, 0, 73, 0
1, 105984, Note_on_c, 0, 75, 27
1, 105987, Note_on_c, 0, 80, 32
1, 106087, Note_on_c, 0, 80, 0
1, 106087, Note_on_c, 0, 75, 0
1, 106087, Note_on_c, 0, 85, 28
1, 106090, Note_on_c, 0, 87, 33
1, 106137, Note_on_c, 0, 68, 0
1, 106137, Note_on_c, 0, 44, 33
1, 106176, Note_on_c, 0, 51, 36
1, 106188, Note_on_c, 0, 87, 0
1, 106188, Note_on_c, 0, 85, 0
1, 106188, Note_on_c, 0, 87, 28
1, 106191, Note_on_c, 0, 92, 34
1, 106214, Note_on_c, 0, 56, 40
1, 106252, Note_on_c, 0, 60, 44
1, 106289, Note_on_c, 0, 92, 0
1, 106289, Note_on_c, 0, 87, 0
1, 106289, Note_on_c, 0, 96, 29
1, 106292, Note_on_c, 0, 99, 35
1, 106292, Note_on_c, 0, 44, 0
1, 106292, Note_on_c, 0, 63, 48
1, 106328, Note_on_c, 0, 51, 0
1, 106367, Note_on_c, 0, 56, 0
1, 106393, Note_on_c, 0, 99, 0
1, 106393, Note_on_c, 0, 96, 0
1, 106393, Note_on_c, 0, 92, 37
1, 106396, Note_on_c, 0, 87, 31
1, 106406, Note_on_c, 0, 60, 0
1, 106497, Note_on_c, 0, 87, 0
1, 106497, Note_on_c, 0, 92, 0
1, 106497, Note_on_c, 0, 87, 35
1, 106500, Note_on_c, 0, 84, 29
1, 106601, Note_on_c, 0, 84, 0
1, 106601, Note_on_c, 0, 87, 0
1, 106601, Note_on_c, 0, 75, 28
1, 106604, Note_on_c, 0, 80, 34
1, 106704, Note_on_c, 0, 80, 0
1, 106704, Note_on_c, 0, 75, 0
1, 106704, Note_on_c, 0, 72, 27
1, 106707, Note_on_c, 0, 75, 32
1, 106755, Note_on_c, 0, 63, 0
1, 106777, Control_c, 0, 64, 0
1, 106808, Control_c, 0, 64, 127
1, 106815, Note_on_c, 0, 75, 0
1, 106815, Note_on_c, 0, 72, 0
1, 106815, Note_on_c, 0, 63, 28
1, 106818, Note_on_c, 0, 68, 30
1, 106862, Note_on_c, 0, 68, 0
1, 106862, Note_on_c, 0, 63, 0
1, 106870, Note_on_c, 0, 48, 29
1, 106893, Note_on_c, 0, 55, 35
1, 106916, Note_on_c, 0, 60, 40
1, 106940, Note_on_c, 0, 63, 52
1, 107060, Note_on_c, 0, 48, 0
1, 107068, Note_on_c, 0, 63, 25
1, 107068, Note_on_c, 0, 67, 30
1, 107084, Note_on_c, 0, 55, 0
1, 107105, Note_on_c, 0, 60, 0
1, 107176, Note_on_c, 0, 67, 0
1, 107176, Note_on_c, 0, 63, 0
1, 107176, Note_on_c, 0, 75, 31
1, 107179, Note_on_c, 0, 72, 26
1, 107279, Note_on_c, 0, 72, 0
1, 107279, Note_on_c, 0, 75, 0
1, 107279, Note_on_c, 0, 75, 27
1, 107282, Note_on_c, 0, 79, 32
1, 107381, Note_on_c, 0, 79, 0
1, 107381, Note_on_c, 0, 75, 0
1, 107381, Note_on_c, 0, 87, 33
1, 107384, Note_on_c, 0, 84, 28
1, 107432, Note_on_c, 0, 63, 0
1, 107432, Note_on_c, 0, 36, 29
1, 107470, Note_on_c, 0, 48, 32
1, 107483, Note_on_c, 0, 84, 0
1, 107483, Note_on_c, 0, 87, 0
1, 107483, Note_on_c, 0, 87, 28
1, 107486, Note_on_c, 0, 91, 34
1, 107508, Note_on_c, 0, 55, 35
1, 107546, Note_on_c, 0, 60, 38
1, 107584, Note_on_c, 0, 91, 0
1, 107584, Note_on_c, 0, 87, 0
1, 107584, Note_on_c, 0, 96, 29
1, 107587, Note_on_c, 0, 99, 35
1, 107587, Note_on_c, 0, 36, 0
1, 107587, Note_on_c, 0, 63, 49
1, 107623, Note_on_c, 0, 48, 0
1, 107662, Note_on_c, 0, 55, 0
1, 107688, Note_on_c, 0, 99, 0
1, 107688, Note_on_c, 0, 96, 0
1, 107688, Note_on_c, 0, 91, 37
1, 107691, Note_on_c, 0, 87, 31
1, 107701, Note_on_c, 0, 60, 0
1, 107792, Note_on_c, 0, 87, 0
1, 107792, Note_on_c, 0, 91, 0
1, 107792, Note_on_c, 0, 87, 35
1, 107795, Note_on_c, 0, 84, 29
1, 107896, Note_on_c, 0, 84, 0
1, 107896, Note_on_c, 0, 87, 0
1, 107896, Note_on_c, 0, 79, 34
1, 107899, Note_on_c, 0, 75, 28
1, 107999, Note_on_c, 0, 75, 0
1, 107999, Note_on_c, 0, 79, 0
1, 107999, Note_on_c, 0, 75, 32
1, 108002, Note_on_c, 0, 72, 27
1, 108050, Note_on_c, 0, 63, 0
1, 108050, Note_on_c, 0, 63, 46
1, 108109, Note_on_c, 0, 72, 0
1, 108109, Note_on_c, 0, 75, 0
1, 108109, Note_on_c, 0, 67, 30
1, 108112, Control_c, 0, 64, 0
1, 108161, Note_on_c, 0, 63, 0
1, 108161, Note_on_c, 0, 55, 35
1, 108169, Note_on_c, 0, 67, 0
1, 108183, Note_on_c, 0, 60, 38
1, 108206, Note_on_c, 0, 62, 42
1, 108228, Note_on_c, 0, 67, 52
1, 108228, Control_c, 0, 64, 127
1, 108348, Note_on_c, 0, 55, 0
1, 108356, Note_on_c, 0, 67, 30
1, 108356, Note_on_c, 0, 62, 25
1, 108372, Note_on_c, 0, 60, 0
1, 108393, Note_on_c, 0, 62, 0
1, 108464, Note_on_c, 0, 62, 0
1, 108464, Note_on_c, 0, 67, 0
1, 108464, Note_on_c, 0, 74, 31
1, 108467, Note_on_c, 0, 72, 26
1, 108567, Note_on_c, 0, 72, 0
1, 108567, Note_on_c, 0, 74, 0
1, 108567, Note_on_c, 0, 79, 32
1, 108570, Note_on_c, 0, 74, 27
1, 108669, Note_on_c, 0, 74, 0
1, 108669, Note_on_c, 0, 79, 0
1, 108669, Note_on_c, 0, 84, 28
1, 108672, Note_on_c, 0, 86, 33
1, 108720, Note_on_c, 0, 67, 0
1, 108720, Note_on_c, 0, 43, 33
1, 108758, Note_on_c, 0, 50, 36
1, 108771, Note_on_c, 0, 86, 0
1, 108771, Note_on_c, 0, 84, 0
1, 108771, Note_on_c, 0, 91, 34
1, 108774, Note_on_c, 0, 86, 28
1, 108796, Note_on_c, 0, 55, 40
1, 108834, Note_on_c, 0, 59, 44
1, 108872, Note_on_c, 0, 86, 0
1, 108872, Note_on_c, 0, 91, 0
1, 108872, Note_on_c, 0, 95, 29
1, 108875, Note_on_c, 0, 98, 35
1, 108875, Note_on_c, 0, 43, 0
1, 108875, Note_on_c, 0, 62, 48
1, 108911, Note_on_c, 0, 50, 0
1, 108950, Note_on_c, 0, 55, 0
1, 108976, Note_on_c, 0, 98, 0
1, 108976, Note_on_c, 0, 95, 0
1, 108976, Note_on_c, 0, 91, 37
1, 108979, Note_on_c, 0, 86, 31
1, 108989, Note_on_c, 0, 59, 0
1, 109080, Note_on_c, 0, 86, 0
1, 109080, Note_on_c, 0, 91, 0
1, 109080, Note_on_c, 0, 83, 29
1, 109083, Note_on_c, 0, 86, 35
1, 109184, Note_on_c, 0, 86, 0
1, 109184, Note_on_c, 0, 83, 0
1, 109184, Note_on_c, 0, 74, 28
1, 109187, Note_on_c, 0, 79, 34
1, 109287, Note_on_c, 0, 79, 0
1, 109287, Note_on_c, 0, 74, 0
1, 109287, Note_on_c, 0, 74, 32
1, 109290, Note_on_c, 0, 71, 27
1, 109338, Note_on_c, 0, 62, 0
1, 109349, Control_c, 0, 64, 0
1, 109390, Control_c, 0, 64, 127
1, 109398, Note_on_c, 0, 71, 0
1, 109398, Note_on_c, 0, 74, 0
1, 109398, Note_on_c, 0, 62, 26
1, 109401, Note_on_c, 0, 67, 30
1, 109445, Note_on_c, 0, 67, 0
1, 109445, Note_on_c, 0, 62, 0
1, 109453, Note_on_c, 0, 46, 29
1, 109476, Note_on_c, 0, 53, 35
1, 109499, Note_on_c, 0, 58, 40
1, 109523, Note_on_c, 0, 62, 52
1, 109643, Note_on_c, 0, 46, 0
1, 109651, Note_on_c, 0, 62, 25
1, 109651, Note_on_c, 0, 65, 30
1, 109667, Note_on_c, 0, 53, 0
1, 109688, Note_on_c, 0, 58, 0
1, 109759, Note_on_c, 0, 65, 0
1, 109759, Note_on_c, 0, 62, 0
1, 109759, Note_on_c, 0, 70, 26
1, 109762, Note_on_c, 0, 74, 31
1, 109862, Note_on_c, 0, 74, 0
1, 109862, Note_on_c, 0, 70, 0
1, 109862, Note_on_c, 0, 77, 32
1, 109865, Note_on_c, 0, 74, 27
1, 109964, Note_on_c, 0, 74, 0
1, 109964, Note_on_c, 0, 77, 0
1, 109964, Note_on_c, 0, 82, 28
1, 109967, Note_on_c, 0, 86, 33
1, 110015, Note_on_c, 0, 62, 0
1, 110015, Note_on_c, 0, 34, 29
1, 110053, Note_on_c, 0, 46, 32
1, 110066, Note_on_c, 0, 86, 0
1, 110066, Note_on_c, 0, 82, 0
1, 110066, Note_on_c, 0, 86, 28
1, 110069, Note_on_c, 0, 89, 34
1, 110091, Note_on_c, 0, 53, 35
1, 110129, Note_on_c, 0, 58, 38
1, 110167, Note_on_c, 0, 89, 0
1, 110167, Note_on_c, 0, 86, 0
1, 110167, Note_on_c, 0, 94, 29
1, 110170, Note_on_c, 0, 98, 35
1, 110170, Note_on_c, 0, 34, 0
1, 110170, Note_on_c, 0, 62, 49
1, 110206, Note_on_c, 0, 46, 0
1, 110245, Note_on_c, 0, 53, 0
1, 110271, Note_on_c, 0, 98, 0
1, 110271, Note_on_c, 0, 94, 0
1, 110271, Note_on_c, 0, 86, 31
1, 110274, Note_on_c, 0, 89, 37
1, 110284, Note_on_c, 0, 58, 0
1, 110375, Note_on_c, 0, 89, 0
1, 110375, Note_on_c, 0, 86, 0
1, 110375, Note_on_c, 0, 82, 29
1, 110378, Note_on_c, 0, 86, 35
1, 110478, Note_on_c, 0, 86, 0
1, 110478, Note_on_c, 0, 82, 0
1, 110478, Note_on_c, 0, 77, 34
1, 110481, Note_on_c, 0, 74, 28
1, 110581, Note_on_c, 0, 74, 0
1, 110581, Note_on_c, 0, 77, 0
1, 110581, Note_on_c, 0, 74, 32
1, 110584, Note_on_c, 0, 70, 27
1, 110633, Note_on_c, 0, 62, 0
1, 110633, Note_on_c, 0, 60, 46
1, 110692, Note_on_c, 0, 70, 0
1, 110692, Note_on_c, 0, 74, 0
1, 110692, Note_on_c, 0, 62, 27
1, 110695, Note_on_c, 0, 65, 30
1, 110695, Control_c, 0, 64, 0
1, 110737, Note_on_c, 0, 62, 0
1, 110744, Note_on_c, 0, 60, 0
1, 110751, Note_on_c, 0, 65, 0
1, 110766, Note_on_c, 0, 43, 38
1, 110788, Note_on_c, 0, 50, 42
1, 110811, Note_on_c, 0, 58, 52
1, 110811, Control_c, 0, 64, 127
1, 110939, Note_on_c, 0, 62, 25
1, 110939, Note_on_c, 0, 67, 30
1, 110955, Note_on_c, 0, 43, 0
1, 110976, Note_on_c, 0, 50, 0
1, 111047, Note_on_c, 0, 67, 0
1, 111047, Note_on_c, 0, 62, 0
1, 111047, Note_on_c, 0, 70, 26
1, 111050, Note_on_c, 0, 74, 31
1, 111150, Note_on_c, 0, 74, 0
1, 111150, Note_on_c, 0, 70, 0
1, 111150, Note_on_c, 0, 79, 32
1, 111153, Note_on_c, 0, 74, 27
1, 111252, Note_on_c, 0, 74, 0
1, 111252, Note_on_c, 0, 79, 0
1, 111252, Note_on_c, 0, 82, 28
1, 111255, Note_on_c, 0, 86, 33
1, 111303, Note_on_c, 0, 58, 0
1, 111303, Note_on_c, 0, 31, 33
1, 111341, Note_on_c, 0, 43, 36
1, 111354, Note_on_c, 0, 86, 0
1, 111354, Note_on_c, 0, 82, 0
1, 111354, Note_on_c, 0, 86, 28
1, 111357, Note_on_c, 0, 91, 34
1, 111379, Note_on_c, 0, 50, 40
1, 111417, Note_on_c, 0, 55, 44
1, 111455, Note_on_c, 0, 91, 0
1, 111455, Note_on_c, 0, 86, 0
1, 111455, Note_on_c, 0, 98, 35
1, 111458, Note_on_c, 0, 94, 29
1, 111458, Note_on_c, 0, 31, 0
1, 111458, Note_on_c, 0, 58, 48
1, 111494, Note_on_c, 0, 43, 0
1, 111533, Note_on_c, 0, 50, 0
1, 111559, Note_on_c, 0, 94, 0
1, 111559, Note_on_c, 0, 98, 0
1, 111559, Note_on_c, 0, 86, 31
1, 111562, Note_on_c, 0, 91, 37
1, 111572, Note_on_c, 0, 55, 0
1, 111663, Note_on_c, 0, 91, 0
1, 111663, Note_on_c, 0, 86, 0
1, 111663, Note_on_c, 0, 82, 29
1, 111666, Note_on_c, 0, 86, 35
1, 111766, Note_on_c, 0, 86, 0
1, 111766, Note_on_c, 0, 82, 0
1, 111766, Note_on_c, 0, 74, 28
1, 111769, Note_on_c, 0, 79, 34
1, 111870, Note_on_c, 0, 79, 0
1, 111870, Note_on_c, 0, 74, 0
1, 111870, Note_on_c, 0, 74, 32
1, 111873, Note_on_c, 0, 70, 27
1, 111921, Note_on_c, 0, 58, 0
1, 111921, Note_on_c, 0, 58, 46
1, 111980, Note_on_c, 0, 70, 0
1, 111980, Note_on_c, 0, 74, 0
1, 111980, Note_on_c, 0, 67, 30
1, 111983, Note_on_c, 0, 62, 25
1, 112099, Note_on_c, 0, 62, 0
1, 112099, Note_on_c, 0, 67, 0
1, 112099, Note_on_c, 0, 58, 0
1, 112102, Note_on_c, 0, 51, 40
1, 112102, Note_on_c, 0, 62, 50
1, 112102, Note_on_c, 0, 55, 40
1, 112105, Control_c, 0, 64, 0
1, 112142, Control_c, 0, 64, 127
1, 112203, Note_on_c, 0, 67, 32
1, 112203, Note_on_c, 0, 63, 32
1, 112255, Note_on_c, 0, 55, 0
1, 112255, Note_on_c, 0, 51, 0
1, 112308, Note_on_c, 0, 63, 0
1, 112308, Note_on_c, 0, 67, 0
1, 112308, Note_on_c, 0, 74, 32
1, 112412, Note_on_c, 0, 74, 0
1, 112412, Note_on_c, 0, 62, 0
1, 112412, Note_on_c, 0, 60, 48
1, 112415, Note_on_c, 0, 39, 38
1, 112415, Control_c, 0, 64, 0
1, 112438, Control_c, 0, 64, 127
1, 112517, Note_on_c, 0, 72, 34
1, 112517, Note_on_c, 0, 75, 34
1, 112570, Note_on_c, 0, 39, 0
1, 112622, Note_on_c, 0, 75, 0
1, 112622, Note_on_c, 0, 72, 0
1, 112622, Note_on_c, 0, 84, 34
1, 112625, Note_on_c, 0, 79, 34
1, 112718, Control_c, 0, 64, 0
1, 112727, Note_on_c, 0, 79, 0
1, 112727, Note_on_c, 0, 84, 0
1, 112727, Note_on_c, 0, 60, 0
1, 112730, Note_on_c, 0, 58, 48
1, 112730, Note_on_c, 0, 51, 38
1, 112730, Note_on_c, 0, 55, 38
1, 112748, Control_c, 0, 64, 127
1, 112832, Note_on_c, 0, 87, 34
1, 112832, Note_on_c, 0, 82, 34
1, 112884, Note_on_c, 0, 55, 0
1, 112884, Note_on_c, 0, 51, 0
1, 112936, Note_on_c, 0, 82, 0
1, 112936, Note_on_c, 0, 87, 0
1, 112936, Note_on_c, 0, 94, 34
1, 112939, Note_on_c, 0, 91, 34
1, 113041, Note_on_c, 0, 91, 0
1, 113041, Note_on_c, 0, 94, 0
1, 113041, Note_on_c, 0, 58, 0
1, 113044, Note_on_c, 0, 39, 37
1, 113044, Note_on_c, 0, 60, 47
1, 113050, Control_c, 0, 64, 0
1, 113091, Control_c, 0, 64, 127
1, 113149, Note_on_c, 0, 84, 32
1, 113149, Note_on_c, 0, 87, 32
1, 113204, Note_on_c, 0, 39, 0
1, 113258, Note_on_c, 0, 87, 0
1, 113258, Note_on_c, 0, 84, 0
1, 113258, Note_on_c, 0, 96, 32
1, 113261, Note_on_c, 0, 91, 32
1, 113305, Note_on_c, 0, 38, 37
1, 113326, Note_on_c, 0, 45, 41
1, 113346, Note_on_c, 0, 54, 44
1, 113367, Note_on_c, 0, 91, 0
1, 113367, Note_on_c, 0, 96, 0
1, 113367, Note_on_c, 0, 60, 0
1, 113370, Note_on_c, 0, 62, 47
1, 113370, Control_c, 0, 64, 0
1, 113402, Control_c, 0, 64, 127
1, 113468, Note_on_c, 0, 38, 0
1, 113474, Note_on_c, 0, 62, 25
1, 113474, Note_on_c, 0, 66, 30
1, 113490, Note_on_c, 0, 45, 0
1, 113511, Note_on_c, 0, 54, 0
1, 113583, Note_on_c, 0, 66, 0
1, 113583, Note_on_c, 0, 62, 0
1, 113583, Note_on_c, 0, 74, 31
1, 113586, Note_on_c, 0, 69, 26
1, 113685, Note_on_c, 0, 69, 0
1, 113685, Note_on_c, 0, 74, 0
1, 113685, Note_on_c, 0, 74, 27
1, 113688, Note_on_c, 0, 78, 32
1, 113788, Note_on_c, 0, 78, 0
1, 113788, Note_on_c, 0, 74, 0
1, 113788, Note_on_c, 0, 81, 28
1, 113791, Note_on_c, 0, 86, 33
1, 113890, Note_on_c, 0, 86, 0
1, 113890, Note_on_c, 0, 81, 0
1, 113890, Note_on_c, 0, 90, 34
1, 113893, Note_on_c, 0, 86, 28
1, 113990, Note_on_c, 0, 86, 0
1, 113990, Note_on_c, 0, 90, 0
1, 113990, Note_on_c, 0, 98, 35
1, 113993, Note_on_c, 0, 93, 29
1, 113993, Note_on_c, 0, 62, 0
1, 114095, Note_on_c, 0, 93, 0
1, 114095, Note_on_c, 0, 98, 0
1, 114095, Note_on_c, 0, 90, 37
1, 114098, Note_on_c, 0, 86, 31
1, 114199, Note_on_c, 0, 86, 0
1, 114199, Note_on_c, 0, 90, 0
1, 114199, Note_on_c, 0, 81, 29
1, 114202, Note_on_c, 0, 86, 35
1, 114302, Note_on_c, 0, 86, 0
1, 114302, Note_on_c, 0, 81, 0
1, 114302, Note_on_c, 0, 74, 28
1, 114305, Note_on_c, 0, 78, 34
1, 114405, Note_on_c, 0, 78, 0
1, 114405, Note_on_c, 0, 74, 0
1, 114405, Note_on_c, 0, 86, 32
1, 114408, Note_on_c, 0, 81, 27
1, 114516, Note_on_c, 0, 81, 0
1, 114516, Note_on_c, 0, 86, 0
1, 114516, Note_on_c, 0, 74, 25
1, 114519, Note_on_c, 0, 78, 30
1, 114634, Note_on_c, 0, 78, 0
1, 114634, Note_on_c, 0, 74, 0
1, 114634, Note_on_c, 0, 69, 28
1, 114637, Note_on_c, 0, 74, 33
1, 114744, Note_on_c, 0, 74, 0
1, 114744, Note_on_c, 0, 69, 0
1, 114744, Note_on_c, 0, 62, 25
1, 114747, Note_on_c, 0, 66, 30
1, 114854, Note_on_c, 0, 66, 0
1, 114854, Note_on_c, 0, 62, 0
1, 114854, Note_on_c, 0, 74, 34
1, 114857, Note_on_c, 0, 69, 28
1, 114964, Note_on_c, 0, 69, 0
1, 114964, Note_on_c, 0, 74, 0
1, 114964, Note_on_c, 0, 66, 30
1, 114967, Note_on_c, 0, 62, 25
1, 115074, Note_on_c, 0, 62, 0
1, 115074, Note_on_c, 0, 66, 0
1, 115074, Note_on_c, 0, 57, 28
1, 115077, Note_on_c, 0, 62, 34
1, 115183, Note_on_c, 0, 62, 0
1, 115183, Note_on_c, 0, 57, 0
1, 115183, Note_on_c, 0, 54, 29
1, 115186, Note_on_c, 0, 50, 24
1, 115293, Note_on_c, 0, 50, 0
1, 115293, Note_on_c, 0, 54, 0
1, 115293, Note_on_c, 0, 57, 28
1, 115296, Note_on_c, 0, 62, 33
1, 115403, Note_on_c, 0, 62, 0
1, 115403, Note_on_c, 0, 57, 0
1, 115403, Note_on_c, 0, 50, 25
1, 115406, Note_on_c, 0, 54, 30
1, 115513, Note_on_c, 0, 54, 0
1, 115513, Note_on_c, 0, 50, 0
1, 115513, Note_on_c, 0, 26, 37
1, 115623, Note_on_c, 0, 26, 0
1, 115623, Note_on_c, 0, 38, 31
1, 115790, Note_on_c, 0, 38, 0
1, 115790, Note_on_c, 0, 50, 37
1, 115962, Note_on_c, 0, 50, 0
1, 115962, Note_on_c, 0, 62, 36
1, 116138, Note_on_c, 0, 74, 42
1, 116138, Note_on_c, 0, 62, 0
1, 116318, Note_on_c, 0, 74, 0
1, 116318, Note_on_c, 0, 86, 38
1, 116503, Note_on_c, 0, 86, 0
1, 116503, Note_on_c, 0, 98, 45
1, 116980, Note_on_c, 0, 98, 0
1, 117003, Control_c, 0, 64, 0
1, 117108, Note_on_c, 0, 74, 29
1, 117108, Note_on_c, 0, 86, 35
1, 117121, Control_c, 0, 64, 127
1, 117230, Note_on_c, 0, 86, 0
1, 117230, Note_on_c, 0, 74, 0
1, 117230, Note_on_c, 0, 74, 31
1, 117233, Note_on_c, 0, 86, 37
1, 117349, Note_on_c, 0, 86, 0
1, 117349, Note_on_c, 0, 74, 0
1, 117349, Note_on_c, 0, 74, 33
1, 117352, Note_on_c, 0, 86, 41
1, 117464, Note_on_c, 0, 86, 0
1, 117464, Note_on_c, 0, 74, 0
1, 117464, Note_on_c, 0, 86, 43
1, 117467, Note_on_c, 0, 74, 35
1, 117577, Note_on_c, 0, 74, 0
1, 117577, Note_on_c, 0, 86, 0
1, 117577, Note_on_c, 0, 86, 46
1, 117580, Note_on_c, 0, 74, 38
1, 117687, Note_on_c, 0, 74, 0
1, 117687, Note_on_c, 0, 86, 0
1, 117687, Note_on_c, 0, 86, 62
1, 117690, Note_on_c, 0, 74, 52
1, 117690, Note_on_c, 0, 46, 41
1, 117690, Control_c, 0, 64, 0
1, 117737, Control_c, 0, 64, 127
1, 117810, Note_on_c, 0, 46, 0
1, 117810, Note_on_c, 0, 53, 18
1, 117810, Note_on_c, 0, 62, 22
1, 117813, Note_on_c, 0, 65, 22
1, 117813, Note_on_c, 0, 82, 26
1, 117813, Note_on_c, 0, 77, 26
1, 117922, Note_on_c, 0, 77, 0
1, 117922, Note_on_c, 0, 65, 0
1, 117922, Note_on_c, 0, 53, 0
1, 117925, Note_on_c, 0, 62, 0
1, 117925, Note_on_c, 0, 82, 0
1, 117925, Note_on_c, 0, 62, 23
1, 117928, Note_on_c, 0, 54, 19
1, 117928, Note_on_c, 0, 65, 23
1, 117928, Note_on_c, 0, 82, 28
1, 117931, Note_on_c, 0, 77, 28
1, 118034, Note_on_c, 0, 77, 0
1, 118034, Note_on_c, 0, 65, 0
1, 118034, Note_on_c, 0, 62, 0
1, 118037, Note_on_c, 0, 54, 0
1, 118037, Note_on_c, 0, 82, 0
1, 118037, Note_on_c, 0, 65, 24
1, 118040, Note_on_c, 0, 62, 24
1, 118040, Note_on_c, 0, 82, 29
1, 118040, Note_on_c, 0, 77, 29
1, 118043, Note_on_c, 0, 55, 20
1, 118146, Note_on_c, 0, 55, 0
1, 118146, Note_on_c, 0, 82, 0
1, 118146, Note_on_c, 0, 65, 0
1, 118149, Note_on_c, 0, 62, 0
1, 118149, Note_on_c, 0, 77, 0
1, 118149, Note_on_c, 0, 77, 31
1, 118152, Note_on_c, 0, 82, 31
1, 118152, Note_on_c, 0, 62, 26
1, 118152, Note_on_c, 0, 65, 26
1, 118155, Note_on_c, 0, 56, 22
1, 118257, Note_on_c, 0, 56, 0
1, 118257, Note_on_c, 0, 62, 0
1, 118257, Note_on_c, 0, 77, 0
1, 118260, Note_on_c, 0, 82, 0
1, 118260, Note_on_c, 0, 65, 0
1, 118260, Note_on_c, 0, 62, 27
1, 118263, Note_on_c, 0, 65, 27
1, 118263, Note_on_c, 0, 77, 32
1, 118263, Note_on_c, 0, 82, 32
1, 118266, Note_on_c, 0, 57, 22
1, 118368, Note_on_c, 0, 74, 0
1, 118368, Note_on_c, 0, 86, 0
1, 118368, Note_on_c, 0, 86, 58
1, 118371, Note_on_c, 0, 74, 49
1, 118371, Note_on_c, 0, 57, 0
1, 118371, Note_on_c, 0, 77, 0
1, 118374, Note_on_c, 0, 62, 0
1, 118374, Note_on_c, 0, 65, 0
1, 118374, Note_on_c, 0, 82, 0
1, 118377, Note_on_c, 0, 65, 28
1, 118377, Note_on_c, 0, 62, 28
1, 118377, Note_on_c, 0, 58, 23
1, 118380, Control_c, 0, 64, 0
1, 118408, Control_c, 0, 64, 127
1, 118478, Note_on_c, 0, 58, 0
1, 118478, Note_on_c, 0, 62, 0
1, 118478, Note_on_c, 0, 65, 0
1, 118481, Note_on_c, 0, 77, 35
1, 118481, Note_on_c, 0, 82, 35
1, 118481, Note_on_c, 0, 59, 24
1, 118484, Note_on_c, 0, 62, 29
1, 118484, Note_on_c, 0, 65, 29
1, 118586, Note_on_c, 0, 65, 0
1, 118586, Note_on_c, 0, 59, 0
1, 118586, Note_on_c, 0, 77, 0
1, 118589, Note_on_c, 0, 82, 0
1, 118589, Note_on_c, 0, 62, 0
1, 118589, Note_on_c, 0, 77, 36
1, 118592, Note_on_c, 0, 62, 30
1, 118592, Note_on_c, 0, 65, 30
1, 118592, Note_on_c, 0, 82, 36
1, 118595, Note_on_c, 0, 60, 25
1, 118694, Note_on_c, 0, 60, 0
1, 118694, Note_on_c, 0, 65, 0
1, 118694, Note_on_c, 0, 77, 0
1, 118697, Note_on_c, 0, 62, 0
1, 118697, Note_on_c, 0, 82, 0
1, 118697, Note_on_c, 0, 77, 38
1, 118700, Note_on_c, 0, 65, 32
1, 118700, Note_on_c, 0, 61, 27
1, 118700, Note_on_c, 0, 82, 38
1, 118703, Note_on_c, 0, 62, 32
1, 118800, Note_on_c, 0, 62, 0
1, 118800, Note_on_c, 0, 61, 0
1, 118800, Note_on_c, 0, 77, 0
1, 118803, Note_on_c, 0, 65, 0
1, 118803, Note_on_c, 0, 82, 0
1, 118803, Note_on_c, 0, 82, 39
1, 118806, Note_on_c, 0, 62, 33
1, 118806, Note_on_c, 0, 65, 33
1, 118806, Note_on_c, 0, 77, 39
1, 118852, Note_on_c, 0, 74, 0
1, 118852, Note_on_c, 0, 86, 0
1, 118911, Note_on_c, 0, 72, 46
1, 118911, Note_on_c, 0, 84, 55
1, 118911, Note_on_c, 0, 77, 0
1, 118914, Note_on_c, 0, 82, 0
1, 118914, Note_on_c, 0, 62, 0
1, 118914, Note_on_c, 0, 65, 0
1, 119030, Note_on_c, 0, 84, 0
1, 119030, Note_on_c, 0, 72, 0
1, 119030, Note_on_c, 0, 82, 62
1, 119033, Note_on_c, 0, 70, 52
1, 119033, Note_on_c, 0, 46, 41
1, 119033, Control_c, 0, 64, 0
1, 119092, Control_c, 0, 64, 127
1, 119154, Note_on_c, 0, 46, 0
1, 119154, Note_on_c, 0, 53, 18
1, 119154, Note_on_c, 0, 62, 22
1, 119157, Note_on_c, 0, 65, 22
1, 119157, Note_on_c, 0, 77, 26
1, 119157, Note_on_c, 0, 74, 26
1, 119262, Note_on_c, 0, 74, 0
1, 119262, Note_on_c, 0, 65, 0
1, 119262, Note_on_c, 0, 53, 0
1, 119265, Note_on_c, 0, 62, 0
1, 119265, Note_on_c, 0, 77, 0
1, 119265, Note_on_c, 0, 77, 28
1, 119268, Note_on_c, 0, 65, 23
1, 119268, Note_on_c, 0, 74, 28
1, 119268, Note_on_c, 0, 62, 23
1, 119271, Note_on_c, 0, 54, 19
1, 119369, Note_on_c, 0, 54, 0
1, 119369, Note_on_c, 0, 74, 0
1, 119369, Note_on_c, 0, 77, 0
1, 119372, Note_on_c, 0, 65, 0
1, 119372, Note_on_c, 0, 62, 0
1, 119372, Note_on_c, 0, 65, 24
1, 119375, Note_on_c, 0, 62, 24
1, 119375, Note_on_c, 0, 77, 29
1, 119375, Note_on_c, 0, 55, 20
1, 119378, Note_on_c, 0, 74, 29
1, 119476, Note_on_c, 0, 74, 0
1, 119476, Note_on_c, 0, 77, 0
1, 119476, Note_on_c, 0, 65, 0
1, 119479, Note_on_c, 0, 62, 0
1, 119479, Note_on_c, 0, 55, 0
1, 119479, Note_on_c, 0, 62, 26
1, 119482, Note_on_c, 0, 56, 22
1, 119482, Note_on_c, 0, 77, 31
1, 119482, Note_on_c, 0, 74, 31
1, 119485, Note_on_c, 0, 65, 26
1, 119582, Note_on_c, 0, 65, 0
1, 119582, Note_on_c, 0, 77, 0
1, 119582, Note_on_c, 0, 62, 0
1, 119585, Note_on_c, 0, 56, 0
1, 119585, Note_on_c, 0, 74, 0
1, 119585, Note_on_c, 0, 74, 32
1, 119588, Note_on_c, 0, 77, 32
1, 119588, Note_on_c, 0, 57, 22
1, 119588, Note_on_c, 0, 65, 27
1, 119591, Note_on_c, 0, 62, 27
1, 119688, Note_on_c, 0, 70, 0
1, 119688, Note_on_c, 0, 82, 0
1, 119688, Note_on_c, 0, 70, 48
1, 119691, Note_on_c, 0, 82, 57
1, 119691, Note_on_c, 0, 62, 0
1, 119691, Note_on_c, 0, 57, 0
1, 119694, Note_on_c, 0, 74, 0
1, 119694, Note_on_c, 0, 77, 0
1, 119694, Note_on_c, 0, 65, 0
1, 119697, Note_on_c, 0, 58, 23
1, 119697, Note_on_c, 0, 62, 28
1, 119697, Note_on_c, 0, 65, 28
1, 119697, Control_c, 0, 64, 0
1, 119740, Control_c, 0, 64, 127
1, 119794, Note_on_c, 0, 65, 0
1, 119794, Note_on_c, 0, 62, 0
1, 119794, Note_on_c, 0, 58, 0
1, 119797, Note_on_c, 0, 65, 29
1, 119797, Note_on_c, 0, 77, 35
1, 119797, Note_on_c, 0, 74, 35
1, 119800, Note_on_c, 0, 59, 24
1, 119800, Note_on_c, 0, 62, 29
1, 119900, Note_on_c, 0, 62, 0
1, 119900, Note_on_c, 0, 74, 0
1, 119900, Note_on_c, 0, 65, 0
1, 119903, Note_on_c, 0, 77, 0
1, 119903, Note_on_c, 0, 59, 0
1, 119903, Note_on_c, 0, 77, 36
1, 119906, Note_on_c, 0, 60, 25
1, 119906, Note_on_c, 0, 74, 36
1, 119906, Note_on_c, 0, 62, 30
1, 119909, Note_on_c, 0, 65, 30
1, 120005, Note_on_c, 0, 65, 0
1, 120005, Note_on_c, 0, 74, 0
1, 120005, Note_on_c, 0, 77, 0
1, 120008, Note_on_c, 0, 60, 0
1, 120008, Note_on_c, 0, 62, 0
1, 120008, Note_on_c, 0, 74, 38
1, 120011, Note_on_c, 0, 62, 32
1, 120011, Note_on_c, 0, 61, 27
1, 120011, Note_on_c, 0, 65, 32
1, 120014, Note_on_c, 0, 77, 38
1, 120110, Note_on_c, 0, 77, 0
1, 120110, Note_on_c, 0, 61, 0
1, 120110, Note_on_c, 0, 74, 0
1, 120113, Note_on_c, 0, 62, 0
1, 120113, Note_on_c, 0, 65, 0
1, 120113, Note_on_c, 0, 77, 39
1, 120116, Note_on_c, 0, 74, 39
1, 120116, Note_on_c, 0, 62, 33
1, 120116, Note_on_c, 0, 65, 33
1, 120162, Note_on_c, 0, 82, 0
1, 120162, Note_on_c, 0, 70, 0
1, 120221, Note_on_c, 0, 70, 49
1, 120221, Note_on_c, 0, 82, 58
1, 120221, Note_on_c, 0, 65, 0
1, 120224, Note_on_c, 0, 77, 0
1, 120224, Note_on_c, 0, 74, 0
1, 120224, Note_on_c, 0, 62, 0
1, 120340, Note_on_c, 0, 82, 0
1, 120340, Note_on_c, 0, 70, 0
1, 120340, Note_on_c, 0, 81, 62
1, 120343, Note_on_c, 0, 69, 52
1, 120343, Note_on_c, 0, 46, 41
1, 120343, Control_c, 0, 64, 0
1, 120399, Control_c, 0, 64, 127
1, 120468, Note_on_c, 0, 46, 0
1, 120468, Note_on_c, 0, 72, 28
1, 120468, Note_on_c, 0, 75, 28
1, 120471, Note_on_c, 0, 63, 24
1, 120471, Note_on_c, 0, 66, 24
1, 120471, Note_on_c, 0, 54, 19
1, 120576, Note_on_c, 0, 54, 0
1, 120576, Note_on_c, 0, 63, 0
1, 120576, Note_on_c, 0, 72, 0
1, 120579, Note_on_c, 0, 75, 0
1, 120579, Note_on_c, 0, 66, 0
1, 120579, Note_on_c, 0, 75, 30
1, 120582, Note_on_c, 0, 66, 25
1, 120582, Note_on_c, 0, 63, 25
1, 120582, Note_on_c, 0, 72, 30
1, 120585, Note_on_c, 0, 55, 20
1, 120683, Note_on_c, 0, 55, 0
1, 120683, Note_on_c, 0, 63, 0
1, 120683, Note_on_c, 0, 75, 0
1, 120686, Note_on_c, 0, 66, 0
1, 120686, Note_on_c, 0, 72, 0
1, 120686, Note_on_c, 0, 75, 31
1, 120689, Note_on_c, 0, 72, 31
1, 120689, Note_on_c, 0, 66, 26
1, 120689, Note_on_c, 0, 63, 26
1, 120692, Note_on_c, 0, 56, 22
1, 120790, Note_on_c, 0, 56, 0
1, 120790, Note_on_c, 0, 66, 0
1, 120790, Note_on_c, 0, 75, 0
1, 120793, Note_on_c, 0, 72, 0
1, 120793, Note_on_c, 0, 63, 0
1, 120793, Note_on_c, 0, 72, 34
1, 120796, Note_on_c, 0, 63, 28
1, 120796, Note_on_c, 0, 66, 28
1, 120796, Note_on_c, 0, 75, 34
1, 120799, Note_on_c, 0, 57, 24
1, 120844, Note_on_c, 0, 69, 0
1, 120844, Note_on_c, 0, 81, 0
1, 120897, Note_on_c, 0, 69, 56
1, 120897, Note_on_c, 0, 81, 67
1, 120897, Note_on_c, 0, 57, 0
1, 120900, Note_on_c, 0, 66, 0
1, 120900, Note_on_c, 0, 72, 0
1, 120900, Note_on_c, 0, 63, 0
1, 120903, Note_on_c, 0, 75, 0
1, 120903, Note_on_c, 0, 63, 29
1, 120903, Note_on_c, 0, 58, 24
1, 120906, Note_on_c, 0, 66, 29
1, 121012, Note_on_c, 0, 81, 0
1, 121012, Note_on_c, 0, 69, 0
1, 121012, Note_on_c, 0, 78, 60
1, 121015, Note_on_c, 0, 90, 72
1, 121015, Note_on_c, 0, 66, 0
1, 121015, Note_on_c, 0, 58, 0
1, 121018, Note_on_c, 0, 63, 0
1, 121018, Note_on_c, 0, 63, 30
1, 121018, Note_on_c, 0, 59, 25
1, 121021, Note_on_c, 0, 66, 30
1, 121021, Control_c, 0, 64, 0
1, 121053, Control_c, 0, 64, 127
1, 121120, Note_on_c, 0, 66, 0
1, 121120, Note_on_c, 0, 59, 0
1, 121120, Note_on_c, 0, 63, 0
1, 121123, Note_on_c, 0, 81, 38
1, 121123, Note_on_c, 0, 66, 31
1, 121123, Note_on_c, 0, 84, 38
1, 121126, Note_on_c, 0, 60, 26
1, 121126, Note_on_c, 0, 63, 31
1, 121228, Note_on_c, 0, 63, 0
1, 121228, Note_on_c, 0, 84, 0
1, 121228, Note_on_c, 0, 81, 0
1, 121231, Note_on_c, 0, 66, 0
1, 121231, Note_on_c, 0, 60, 0
1, 121231, Note_on_c, 0, 61, 27
1, 121234, Note_on_c, 0, 63, 33
1, 121234, Note_on_c, 0, 66, 33
1, 121234, Note_on_c, 0, 81, 39
1, 121237, Note_on_c, 0, 84, 39
1, 121335, Note_on_c, 0, 84, 0
1, 121335, Note_on_c, 0, 66, 0
1, 121335, Note_on_c, 0, 61, 0
1, 121338, Note_on_c, 0, 63, 0
1, 121338, Note_on_c, 0, 81, 0
1, 121338, Note_on_c, 0, 63, 35
1, 121341, Note_on_c, 0, 66, 35
1, 121341, Note_on_c, 0, 84, 41
1, 121341, Note_on_c, 0, 81, 41
1, 121344, Note_on_c, 0, 62, 29
1, 121442, Note_on_c, 0, 62, 0
1, 121442, Note_on_c, 0, 84, 0
1, 121442, Note_on_c, 0, 63, 0
1, 121445, Note_on_c, 0, 66, 0
1, 121445, Note_on_c, 0, 81, 0
1, 121445, Note_on_c, 0, 84, 42
1, 121448, Note_on_c, 0, 66, 36
1, 121448, Note_on_c, 0, 81, 42
1, 121448, Note_on_c, 0, 63, 36
1, 121496, Note_on_c, 0, 90, 0
1, 121496, Note_on_c, 0, 78, 0
1, 121559, Note_on_c, 0, 69, 49
1, 121559, Note_on_c, 0, 81, 58
1, 121559, Note_on_c, 0, 63, 0
1, 121562, Note_on_c, 0, 84, 0
1, 121562, Note_on_c, 0, 66, 0
1, 121562, Note_on_c, 0, 81, 0
1, 121686, Note_on_c, 0, 81, 0
1, 121686, Note_on_c, 0, 69, 0
1, 121686, Note_on_c, 0, 72, 55
1, 121689, Note_on_c, 0, 84, 66
1, 121689, Note_on_c, 0, 46, 41
1, 121689, Control_c, 0, 64, 0
1, 121756, Control_c, 0, 64, 127
1, 121813, Note_on_c, 0, 46, 0
1, 121813, Note_on_c, 0, 77, 28
1, 121813, Note_on_c, 0, 53, 19
1, 121816, Note_on_c, 0, 65, 24
1, 121816, Note_on_c, 0, 62, 24
1, 121816, Note_on_c, 0, 74, 28
1, 121925, Note_on_c, 0, 74, 0
1, 121925, Note_on_c, 0, 65, 0
1, 121925, Note_on_c, 0, 77, 0
1, 121928, Note_on_c, 0, 53, 0
1, 121928, Note_on_c, 0, 62, 0
1, 121928, Note_on_c, 0, 74, 30
1, 121931, Note_on_c, 0, 62, 25
1, 121931, Note_on_c, 0, 65, 25
1, 121931, Note_on_c, 0, 77, 30
1, 121934, Note_on_c, 0, 54, 20
1, 122036, Note_on_c, 0, 54, 0
1, 122036, Note_on_c, 0, 65, 0
1, 122036, Note_on_c, 0, 74, 0
1, 122039, Note_on_c, 0, 62, 0
1, 122039, Note_on_c, 0, 77, 0
1, 122039, Note_on_c, 0, 74, 31
1, 122042, Note_on_c, 0, 55, 22
1, 122042, Note_on_c, 0, 65, 26
1, 122042, Note_on_c, 0, 77, 31
1, 122045, Note_on_c, 0, 62, 26
1, 122146, Note_on_c, 0, 62, 0
1, 122146, Note_on_c, 0, 65, 0
1, 122146, Note_on_c, 0, 74, 0
1, 122149, Note_on_c, 0, 55, 0
1, 122149, Note_on_c, 0, 77, 0
1, 122149, Note_on_c, 0, 56, 24
1, 122152, Note_on_c, 0, 74, 34
1, 122152, Note_on_c, 0, 62, 28
1, 122152, Note_on_c, 0, 77, 34
1, 122155, Note_on_c, 0, 65, 28
1, 122256, Note_on_c, 0, 65, 0
1, 122256, Note_on_c, 0, 62, 0
1, 122256, Note_on_c, 0, 56, 0
1, 122259, Note_on_c, 0, 74, 0
1, 122259, Note_on_c, 0, 77, 0
1, 122259, Note_on_c, 0, 65, 29
1, 122262, Note_on_c, 0, 74, 35
1, 122262, Note_on_c, 0, 57, 24
1, 122262, Note_on_c, 0, 62, 29
1, 122265, Note_on_c, 0, 77, 35
1, 122364, Note_on_c, 0, 84, 0
1, 122364, Note_on_c, 0, 72, 0
1, 122364, Note_on_c, 0, 82, 60
1, 122367, Note_on_c, 0, 70, 50
1, 122367, Note_on_c, 0, 77, 0
1, 122367, Note_on_c, 0, 57, 0
1, 122370, Note_on_c, 0, 65, 0
1, 122370, Note_on_c, 0, 74, 0
1, 122370, Note_on_c, 0, 62, 0
1, 122373, Note_on_c, 0, 62, 30
1, 122373, Note_on_c, 0, 58, 25
1, 122373, Note_on_c, 0, 65, 30
1, 122376, Control_c, 0, 64, 0
1, 122419, Control_c, 0, 64, 127
1, 122471, Note_on_c, 0, 65, 0
1, 122471, Note_on_c, 0, 58, 0
1, 122471, Note_on_c, 0, 62, 0
1, 122474, Note_on_c, 0, 59, 26
1, 122474, Note_on_c, 0, 74, 38
1, 122474, Note_on_c, 0, 62, 31
1, 122477, Note_on_c, 0, 65, 31
1, 122477, Note_on_c, 0, 77, 38
1, 122578, Note_on_c, 0, 77, 0
1, 122578, Note_on_c, 0, 62, 0
1, 122578, Note_on_c, 0, 59, 0
1, 122581, Note_on_c, 0, 74, 0
1, 122581, Note_on_c, 0, 65, 0
1, 122581, Note_on_c, 0, 65, 33
1, 122584, Note_on_c, 0, 60, 27
1, 122584, Note_on_c, 0, 74, 39
1, 122584, Note_on_c, 0, 77, 39
1, 122587, Note_on_c, 0, 62, 33
1, 122685, Note_on_c, 0, 70, 0
1, 122685, Note_on_c, 0, 82, 0
1, 122685, Note_on_c, 0, 62, 0
1, 122688, Note_on_c, 0, 74, 0
1, 122688, Note_on_c, 0, 65, 0
1, 122688, Note_on_c, 0, 60, 0
1, 122691, Note_on_c, 0, 77, 0
1, 122691, Note_on_c, 0, 61, 29
1, 122691, Note_on_c, 0, 77, 41
1, 122694, Note_on_c, 0, 74, 41
1, 122694, Note_on_c, 0, 65, 35
1, 122694, Note_on_c, 0, 62, 35
1, 122791, Note_on_c, 0, 62, 0
1, 122791, Note_on_c, 0, 74, 0
1, 122791, Note_on_c, 0, 61, 0
1, 122794, Note_on_c, 0, 77, 0
1, 122794, Note_on_c, 0, 65, 0
1, 122794, Note_on_c, 0, 62, 36
1, 122797, Note_on_c, 0, 65, 36
1, 122797, Note_on_c, 0, 74, 43
1, 122797, Note_on_c, 0, 77, 43
1, 122897, Note_on_c, 0, 77, 0
1, 122897, Note_on_c, 0, 62, 0
1, 122897, Note_on_c, 0, 65, 0
1, 122900, Note_on_c, 0, 74, 0
1, 122900, Note_on_c, 0, 74, 44
1, 122900, Note_on_c, 0, 77, 44
1, 123025, Note_on_c, 0, 74, 57
1, 123025, Note_on_c, 0, 86, 68
1, 123025, Note_on_c, 0, 77, 0
1, 123028, Note_on_c, 0, 74, 0
1, 123028, Note_on_c, 0, 43, 45
1, 123028, Control_c, 0, 64, 0
1, 123076, Control_c, 0, 64, 127
1, 123146, Note_on_c, 0, 43, 0
1, 123146, Note_on_c, 0, 58, 19
1, 123146, Note_on_c, 0, 67, 24
1, 123149, Note_on_c, 0, 79, 28
1, 123149, Note_on_c, 0, 70, 24
1, 123149, Note_on_c, 0, 82, 28
1, 123261, Note_on_c, 0, 82, 0
1, 123261, Note_on_c, 0, 79, 0
1, 123261, Note_on_c, 0, 58, 0
1, 123264, Note_on_c, 0, 67, 0
1, 123264, Note_on_c, 0, 70, 0
1, 123264, Note_on_c, 0, 67, 25
1, 123267, Note_on_c, 0, 79, 30
1, 123267, Note_on_c, 0, 59, 20
1, 123267, Note_on_c, 0, 82, 30
1, 123270, Note_on_c, 0, 70, 25
1, 123374, Note_on_c, 0, 70, 0
1, 123374, Note_on_c, 0, 59, 0
1, 123374, Note_on_c, 0, 67, 0
1, 123377, Note_on_c, 0, 79, 0
1, 123377, Note_on_c, 0, 82, 0
1, 123377, Note_on_c, 0, 60, 22
1, 123380, Note_on_c, 0, 82, 31
1, 123380, Note_on_c, 0, 70, 26
1, 123380, Note_on_c, 0, 67, 26
1, 123383, Note_on_c, 0, 79, 31
1, 123488, Note_on_c, 0, 79, 0
1, 123488, Note_on_c, 0, 70, 0
1, 123488, Note_on_c, 0, 60, 0
1, 123491, Note_on_c, 0, 82, 0
1, 123491, Note_on_c, 0, 67, 0
1, 123491, Note_on_c, 0, 82, 34
1, 123494, Note_on_c, 0, 61, 24
1, 123494, Note_on_c, 0, 79, 34
1, 123494, Note_on_c, 0, 67, 28
1, 123497, Note_on_c, 0, 70, 28
1, 123601, Note_on_c, 0, 70, 0
1, 123601, Note_on_c, 0, 79, 0
1, 123601, Note_on_c, 0, 82, 0
1, 123604, Note_on_c, 0, 61, 0
1, 123604, Note_on_c, 0, 67, 0
1, 123604, Note_on_c, 0, 82, 35
1, 123607, Note_on_c, 0, 62, 24
1, 123607, Note_on_c, 0, 79, 35
1, 123607, Note_on_c, 0, 67, 29
1, 123610, Note_on_c, 0, 70, 29
1, 123713, Note_on_c, 0, 86, 0
1, 123713, Note_on_c, 0, 74, 0
1, 123713, Note_on_c, 0, 74, 53
1, 123716, Note_on_c, 0, 86, 63
1, 123716, Note_on_c, 0, 70, 0
1, 123716, Note_on_c, 0, 79, 0
1, 123719, Note_on_c, 0, 82, 0
1, 123719, Note_on_c, 0, 62, 0
1, 123719, Note_on_c, 0, 67, 0
1, 123722, Note_on_c, 0, 67, 30
1, 123722, Note_on_c, 0, 70, 30
1, 123722, Note_on_c, 0, 63, 25
1, 123725, Control_c, 0, 64, 0
1, 123753, Control_c, 0, 64, 127
1, 123824, Note_on_c, 0, 63, 0
1, 123824, Note_on_c, 0, 70, 0
1, 123824, Note_on_c, 0, 67, 0
1, 123827, Note_on_c, 0, 70, 31
1, 123827, Note_on_c, 0, 67, 31
1, 123827, Note_on_c, 0, 64, 26
1, 123830, Note_on_c, 0, 82, 38
1, 123830, Note_on_c, 0, 79, 38
1, 123933, Note_on_c, 0, 79, 0
1, 123933, Note_on_c, 0, 64, 0
1, 123933, Note_on_c, 0, 70, 0
1, 123936, Note_on_c, 0, 67, 0
1, 123936, Note_on_c, 0, 82, 0
1, 123936, Note_on_c, 0, 82, 39
1, 123939, Note_on_c, 0, 67, 33
1, 123939, Note_on_c, 0, 65, 27
1, 123939, Note_on_c, 0, 70, 33
1, 123942, Note_on_c, 0, 79, 39
1, 124040, Note_on_c, 0, 79, 0
1, 124040, Note_on_c, 0, 65, 0
1, 124040, Note_on_c, 0, 82, 0
1, 124043, Note_on_c, 0, 67, 0
1, 124043, Note_on_c, 0, 70, 0
1, 124043, Note_on_c, 0, 70, 35
1, 124046, Note_on_c, 0, 67, 35
1, 124046, Note_on_c, 0, 66, 29
1, 124046, Note_on_c, 0, 82, 41
1, 124049, Note_on_c, 0, 79, 41
1, 124146, Note_on_c, 0, 79, 0
1, 124146, Note_on_c, 0, 66, 0
1, 124146, Note_on_c, 0, 70, 0
1, 124149, Note_on_c, 0, 67, 0
1, 124149, Note_on_c, 0, 82, 0
1, 124149, Note_on_c, 0, 70, 36
1, 124152, Note_on_c, 0, 67, 36
1, 124152, Note_on_c, 0, 79, 42
1, 124152, Note_on_c, 0, 82, 42
1, 124197, Note_on_c, 0, 86, 0
1, 124197, Note_on_c, 0, 74, 0
1, 124257, Note_on_c, 0, 72, 50
1, 124257, Note_on_c, 0, 84, 60
1, 124257, Note_on_c, 0, 82, 0
1, 124260, Note_on_c, 0, 70, 0
1, 124260, Note_on_c, 0, 67, 0
1, 124260, Note_on_c, 0, 79, 0
1, 124375, Note_on_c, 0, 84, 0
1, 124375, Note_on_c, 0, 72, 0
1, 124375, Note_on_c, 0, 70, 57
1, 124378, Note_on_c, 0, 82, 68
1, 124378, Note_on_c, 0, 43, 45
1, 124378, Control_c, 0, 64, 0
1, 124438, Control_c, 0, 64, 127
1, 124499, Note_on_c, 0, 43, 0
1, 124499, Note_on_c, 0, 62, 24
1, 124499, Note_on_c, 0, 74, 28
1, 124502, Note_on_c, 0, 79, 28
1, 124502, Note_on_c, 0, 55, 19
1, 124502, Note_on_c, 0, 67, 24
1, 124607, Note_on_c, 0, 67, 0
1, 124607, Note_on_c, 0, 79, 0
1, 124607, Note_on_c, 0, 62, 0
1, 124610, Note_on_c, 0, 74, 0
1, 124610, Note_on_c, 0, 55, 0
1, 124610, Note_on_c, 0, 79, 30
1, 124613, Note_on_c, 0, 56, 20
1, 124613, Note_on_c, 0, 62, 25
1, 124613, Note_on_c, 0, 74, 30
1, 124616, Note_on_c, 0, 67, 25
1, 124714, Note_on_c, 0, 67, 0
1, 124714, Note_on_c, 0, 62, 0
1, 124714, Note_on_c, 0, 79, 0
1, 124717, Note_on_c, 0, 56, 0
1, 124717, Note_on_c, 0, 74, 0
1, 124717, Note_on_c, 0, 79, 31
1, 124720, Note_on_c, 0, 74, 31
1, 124720, Note_on_c, 0, 57, 22
1, 124720, Note_on_c, 0, 67, 26
1, 124723, Note_on_c, 0, 62, 26
1, 124821, Note_on_c, 0, 62, 0
1, 124821, Note_on_c, 0, 57, 0
1, 124821, Note_on_c, 0, 79, 0
1, 124824, Note_on_c, 0, 74, 0
1, 124824, Note_on_c, 0, 67, 0
1, 124824, Note_on_c, 0, 79, 34
1, 124827, Note_on_c, 0, 74, 34
1, 124827, Note_on_c, 0, 62, 28
1, 124827, Note_on_c, 0, 58, 24
1, 124830, Note_on_c, 0, 67, 28
1, 124928, Note_on_c, 0, 67, 0
1, 124928, Note_on_c, 0, 62, 0
1, 124928, Note_on_c, 0, 79, 0
1, 124931, Note_on_c, 0, 74, 0
1, 124931, Note_on_c, 0, 58, 0
1, 124931, Note_on_c, 0, 59, 24
1, 124934, Note_on_c, 0, 74, 35
1, 124934, Note_on_c, 0, 67, 29
1, 124934, Note_on_c, 0, 79, 35
1, 124937, Note_on_c, 0, 62, 29
1, 125034, Note_on_c, 0, 82, 0
1, 125034, Note_on_c, 0, 70, 0
1, 125034, Note_on_c, 0, 62, 0
1, 125037, Note_on_c, 0, 67, 0
1, 125037, Note_on_c, 0, 59, 0
1, 125037, Note_on_c, 0, 74, 0
1, 125040, Note_on_c, 0, 79, 0
1, 125040, Note_on_c, 0, 74, 34
1, 125040, Note_on_c, 0, 79, 34
1, 125043, Note_on_c, 0, 67, 30
1, 125043, Note_on_c, 0, 62, 30
1, 125043, Note_on_c, 0, 60, 25
1, 125043, Control_c, 0, 64, 0
1, 125085, Control_c, 0, 64, 127
1, 125140, Note_on_c, 0, 60, 0
1, 125140, Note_on_c, 0, 67, 0
1, 125140, Note_on_c, 0, 74, 0
1, 125143, Note_on_c, 0, 79, 0
1, 125143, Note_on_c, 0, 62, 0
1, 125143, Note_on_c, 0, 79, 38
1, 125146, Note_on_c, 0, 67, 31
1, 125146, Note_on_c, 0, 74, 38
1, 125146, Note_on_c, 0, 61, 31
1, 125245, Note_on_c, 0, 61, 0
1, 125245, Note_on_c, 0, 79, 0
1, 125245, Note_on_c, 0, 67, 0
1, 125248, Note_on_c, 0, 74, 0
1, 125248, Note_on_c, 0, 62, 33
1, 125248, Note_on_c, 0, 79, 39
1, 125251, Note_on_c, 0, 67, 33
1, 125251, Note_on_c, 0, 74, 39
1, 125351, Note_on_c, 0, 74, 0
1, 125351, Note_on_c, 0, 62, 0
1, 125351, Note_on_c, 0, 79, 0
1, 125354, Note_on_c, 0, 67, 0
1, 125354, Note_on_c, 0, 74, 41
1, 125354, Note_on_c, 0, 67, 35
1, 125357, Note_on_c, 0, 79, 41
1, 125357, Note_on_c, 0, 58, 29
1, 125455, Note_on_c, 0, 58, 0
1, 125455, Note_on_c, 0, 74, 0
1, 125455, Note_on_c, 0, 67, 0
1, 125458, Note_on_c, 0, 79, 0
1, 125458, Note_on_c, 0, 74, 41
1, 125458, Note_on_c, 0, 79, 41
1, 125567, Note_on_c, 0, 70, 53
1, 125567, Note_on_c, 0, 82, 63
1, 125567, Note_on_c, 0, 79, 0
1, 125570, Note_on_c, 0, 74, 0
1, 125685, Note_on_c, 0, 82, 0
1, 125685, Note_on_c, 0, 70, 0
1, 125685, Note_on_c, 0, 85, 68
1, 125688, Note_on_c, 0, 73, 57
1, 125688, Note_on_c, 0, 48, 45
1, 125688, Note_on_c, 0, 36, 45
1, 125691, Control_c, 0, 64, 0
1, 125744, Control_c, 0, 64, 127
1, 125813, Note_on_c, 0, 36, 0
1, 125813, Note_on_c, 0, 48, 0
1, 125813, Note_on_c, 0, 76, 28
1, 125816, Note_on_c, 0, 67, 24
1, 125816, Note_on_c, 0, 82, 28
1, 125816, Note_on_c, 0, 70, 24
1, 125819, Note_on_c, 0, 58, 19
1, 125921, Note_on_c, 0, 58, 0
1, 125921, Note_on_c, 0, 82, 0
1, 125921, Note_on_c, 0, 76, 0
1, 125924, Note_on_c, 0, 67, 0
1, 125924, Note_on_c, 0, 70, 0
1, 125924, Note_on_c, 0, 67, 25
1, 125927, Note_on_c, 0, 76, 30
1, 125927, Note_on_c, 0, 70, 25
1, 125927, Note_on_c, 0, 59, 20
1, 125930, Note_on_c, 0, 82, 30
1, 126029, Note_on_c, 0, 82, 0
1, 126029, Note_on_c, 0, 70, 0
1, 126029, Note_on_c, 0, 67, 0
1, 126032, Note_on_c, 0, 76, 0
1, 126032, Note_on_c, 0, 59, 0
1, 126032, Note_on_c, 0, 60, 22
1, 126035, Note_on_c, 0, 70, 26
1, 126035, Note_on_c, 0, 82, 31
1, 126035, Note_on_c, 0, 67, 26
1, 126038, Note_on_c, 0, 76, 31
1, 126136, Note_on_c, 0, 76, 0
1, 126136, Note_on_c, 0, 82, 0
1, 126136, Note_on_c, 0, 60, 0
1, 126139, Note_on_c, 0, 70, 0
1, 126139, Note_on_c, 0, 67, 0
1, 126139, Note_on_c, 0, 61, 24
1, 126142, Note_on_c, 0, 76, 34
1, 126142, Note_on_c, 0, 67, 28
1, 126142, Note_on_c, 0, 82, 34
1, 126145, Note_on_c, 0, 70, 28
1, 126189, Note_on_c, 0, 73, 0
1, 126189, Note_on_c, 0, 85, 0
1, 126243, Note_on_c, 0, 72, 61
1, 126243, Note_on_c, 0, 84, 73
1, 126243, Note_on_c, 0, 70, 0
1, 126246, Note_on_c, 0, 67, 0
1, 126246, Note_on_c, 0, 61, 0
1, 126246, Note_on_c, 0, 76, 0
1, 126249, Note_on_c, 0, 82, 0
1, 126249, Note_on_c, 0, 70, 29
1, 126249, Note_on_c, 0, 62, 24
1, 126252, Note_on_c, 0, 67, 29
1, 126364, Note_on_c, 0, 84, 0
1, 126364, Note_on_c, 0, 72, 0
1, 126364, Note_on_c, 0, 82, 66
1, 126367, Note_on_c, 0, 94, 79
1, 126367, Note_on_c, 0, 67, 0
1, 126367, Note_on_c, 0, 62, 0
1, 126370, Note_on_c, 0, 70, 0
1, 126370, Note_on_c, 0, 70, 30
1, 126370, Note_on_c, 0, 67, 30
1, 126373, Note_on_c, 0, 63, 25
1, 126373, Control_c, 0, 64, 0
1, 126405, Control_c, 0, 64, 127
1, 126472, Note_on_c, 0, 63, 0
1, 126472, Note_on_c, 0, 67, 0
1, 126472, Note_on_c, 0, 70, 0
1, 126475, Note_on_c, 0, 64, 26
1, 126475, Note_on_c, 0, 88, 38
1, 126475, Note_on_c, 0, 85, 38
1, 126478, Note_on_c, 0, 70, 31
1, 126478, Note_on_c, 0, 67, 31
1, 126580, Note_on_c, 0, 67, 0
1, 126580, Note_on_c, 0, 85, 0
1, 126580, Note_on_c, 0, 64, 0
1, 126583, Note_on_c, 0, 88, 0
1, 126583, Note_on_c, 0, 70, 0
1, 126583, Note_on_c, 0, 85, 39
1, 126586, Note_on_c, 0, 67, 33
1, 126586, Note_on_c, 0, 65, 27
1, 126586, Note_on_c, 0, 88, 39
1, 126589, Note_on_c, 0, 70, 33
1, 126688, Note_on_c, 0, 70, 0
1, 126688, Note_on_c, 0, 65, 0
1, 126688, Note_on_c, 0, 85, 0
1, 126691, Note_on_c, 0, 67, 0
1, 126691, Note_on_c, 0, 88, 0
1, 126691, Note_on_c, 0, 66, 29
1, 126694, Note_on_c, 0, 67, 35
1, 126694, Note_on_c, 0, 70, 35
1, 126694, Note_on_c, 0, 88, 41
1, 126697, Note_on_c, 0, 85, 41
1, 126795, Note_on_c, 0, 85, 0
1, 126795, Note_on_c, 0, 70, 0
1, 126795, Note_on_c, 0, 66, 0
1, 126798, Note_on_c, 0, 67, 0
1, 126798, Note_on_c, 0, 88, 0
1, 126798, Note_on_c, 0, 67, 36
1, 126801, Note_on_c, 0, 88, 42
1, 126801, Note_on_c, 0, 85, 42
1, 126801, Note_on_c, 0, 70, 36
1, 126848, Note_on_c, 0, 94, 0
1, 126848, Note_on_c, 0, 82, 0
1, 126912, Note_on_c, 0, 76, 53
1, 126912, Note_on_c, 0, 88, 63
1, 126912, Note_on_c, 0, 70, 0
1, 126915, Note_on_c, 0, 67, 0
1, 126915, Note_on_c, 0, 88, 0
1, 126915, Note_on_c, 0, 85, 0
1, 127040, Note_on_c, 0, 88, 0
1, 127040, Note_on_c, 0, 76, 0
1, 127040, Note_on_c, 0, 89, 72
1, 127043, Note_on_c, 0, 77, 60
1, 127043, Note_on_c, 0, 41, 45
1, 127043, Control_c, 0, 64, 0
1, 127109, Control_c, 0, 64, 127
1, 127161, Note_on_c, 0, 41, 0
1, 127161, Note_on_c, 0, 81, 32
1, 127161, Note_on_c, 0, 84, 32
1, 127164, Note_on_c, 0, 65, 27
1, 127164, Note_on_c, 0, 57, 21
1, 127164, Note_on_c, 0, 69, 27
1, 127276, Note_on_c, 0, 69, 0
1, 127276, Note_on_c, 0, 65, 0
1, 127276, Note_on_c, 0, 81, 0
1, 127279, Note_on_c, 0, 84, 0
1, 127279, Note_on_c, 0, 57, 0
1, 127279, Note_on_c, 0, 65, 28
1, 127282, Note_on_c, 0, 81, 34
1, 127282, Note_on_c, 0, 58, 23
1, 127282, Note_on_c, 0, 84, 34
1, 127285, Note_on_c, 0, 69, 28
1, 127389, Note_on_c, 0, 69, 0
1, 127389, Note_on_c, 0, 58, 0
1, 127389, Note_on_c, 0, 65, 0
1, 127392, Note_on_c, 0, 81, 0
1, 127392, Note_on_c, 0, 84, 0
1, 127392, Note_on_c, 0, 69, 29
1, 127395, Note_on_c, 0, 81, 35
1, 127395, Note_on_c, 0, 65, 29
1, 127395, Note_on_c, 0, 59, 25
1, 127398, Note_on_c, 0, 84, 35
1, 127502, Note_on_c, 0, 84, 0
1, 127502, Note_on_c, 0, 65, 0
1, 127502, Note_on_c, 0, 69, 0
1, 127505, Note_on_c, 0, 81, 0
1, 127505, Note_on_c, 0, 59, 0
1, 127505, Note_on_c, 0, 65, 32
1, 127508, Note_on_c, 0, 60, 27
1, 127508, Note_on_c, 0, 84, 39
1, 127508, Note_on_c, 0, 81, 39
1, 127511, Note_on_c, 0, 69, 32
1, 127614, Note_on_c, 0, 69, 0
1, 127614, Note_on_c, 0, 84, 0
1, 127614, Note_on_c, 0, 65, 0
1, 127617, Note_on_c, 0, 60, 0
1, 127617, Note_on_c, 0, 81, 0
1, 127617, Note_on_c, 0, 81, 41
1, 127620, Note_on_c, 0, 65, 33
1, 127620, Note_on_c, 0, 84, 41
1, 127620, Note_on_c, 0, 61, 27
1, 127623, Note_on_c, 0, 69, 33
1, 127724, Note_on_c, 0, 77, 0
1, 127724, Note_on_c, 0, 89, 0
1, 127724, Note_on_c, 0, 69, 0
1, 127727, Note_on_c, 0, 84, 0
1, 127727, Note_on_c, 0, 81, 0
1, 127727, Note_on_c, 0, 65, 0
1, 127730, Note_on_c, 0, 61, 0
1, 127730, Note_on_c, 0, 81, 36
1, 127730, Note_on_c, 0, 62, 29
1, 127733, Note_on_c, 0, 84, 36
1, 127733, Note_on_c, 0, 69, 35
1, 127733, Note_on_c, 0, 65, 35
1, 127733, Control_c, 0, 64, 0
1, 127781, Control_c, 0, 64, 127
1, 127833, Note_on_c, 0, 65, 0
1, 127833, Note_on_c, 0, 84, 0
1, 127833, Note_on_c, 0, 81, 0
1, 127836, Note_on_c, 0, 62, 0
1, 127836, Note_on_c, 0, 69, 0
1, 127836, Note_on_c, 0, 84, 45
1, 127839, Note_on_c, 0, 81, 45
1, 127839, Note_on_c, 0, 69, 36
1, 127839, Note_on_c, 0, 65, 36
1, 127842, Note_on_c, 0, 63, 31
1, 127938, Note_on_c, 0, 63, 0
1, 127938, Note_on_c, 0, 69, 0
1, 127938, Note_on_c, 0, 84, 0
1, 127941, Note_on_c, 0, 81, 0
1, 127941, Note_on_c, 0, 65, 0
1, 127941, Note_on_c, 0, 64, 32
1, 127944, Note_on_c, 0, 84, 49
1, 127944, Note_on_c, 0, 81, 49
1, 127944, Note_on_c, 0, 65, 39
1, 127947, Note_on_c, 0, 69, 39
1, 128042, Note_on_c, 0, 69, 0
1, 128042, Note_on_c, 0, 81, 0
1, 128042, Note_on_c, 0, 64, 0
1, 128045, Note_on_c, 0, 84, 0
1, 128045, Note_on_c, 0, 65, 0
1, 128045, Note_on_c, 0, 69, 42
1, 128048, Note_on_c, 0, 65, 42
1, 128048, Note_on_c, 0, 81, 53
1, 128048, Note_on_c, 0, 84, 53
1, 128146, Note_on_c, 0, 84, 0
1, 128146, Note_on_c, 0, 69, 0
1, 128146, Note_on_c, 0, 65, 0
1, 128149, Note_on_c, 0, 81, 0
1, 128149, Note_on_c, 0, 81, 57
1, 128149, Note_on_c, 0, 84, 57
1, 128244, Note_on_c, 0, 84, 59
1, 128244, Note_on_c, 0, 81, 59
1, 128248, Note_on_c, 0, 84, 0
1, 128248, Note_on_c, 0, 81, 0
1, 128369, Note_on_c, 0, 81, 0
1, 128373, Note_on_c, 0, 77, 64
1, 128373, Note_on_c, 0, 89, 78
1, 128373, Note_on_c, 0, 37, 51
1, 128376, Note_on_c, 0, 49, 51
1, 128379, Control_c, 0, 64, 0
1, 128384, Note_on_c, 0, 84, 0
1, 128424, Control_c, 0, 64, 127
1, 128498, Note_on_c, 0, 49, 0
1, 128498, Note_on_c, 0, 37, 0
1, 128498, Note_on_c, 0, 53, 23
1, 128501, Note_on_c, 0, 80, 36
1, 128501, Note_on_c, 0, 65, 30
1, 128501, Note_on_c, 0, 61, 30
1, 128504, Note_on_c, 0, 85, 36
1, 128609, Note_on_c, 0, 85, 0
1, 128609, Note_on_c, 0, 65, 0
1, 128609, Note_on_c, 0, 53, 0
1, 128612, Note_on_c, 0, 80, 0
1, 128612, Note_on_c, 0, 61, 0
1, 128612, Note_on_c, 0, 61, 31
1, 128615, Note_on_c, 0, 80, 38
1, 128615, Note_on_c, 0, 65, 31
1, 128615, Note_on_c, 0, 54, 26
1, 128618, Note_on_c, 0, 85, 38
1, 128719, Note_on_c, 0, 85, 0
1, 128719, Note_on_c, 0, 65, 0
1, 128719, Note_on_c, 0, 61, 0
1, 128722, Note_on_c, 0, 80, 0
1, 128722, Note_on_c, 0, 54, 0
1, 128722, Note_on_c, 0, 80, 39
1, 128725, Note_on_c, 0, 85, 39
1, 128725, Note_on_c, 0, 65, 34
1, 128725, Note_on_c, 0, 55, 28
1, 128728, Note_on_c, 0, 61, 34
1, 128828, Note_on_c, 0, 61, 0
1, 128828, Note_on_c, 0, 65, 0
1, 128828, Note_on_c, 0, 80, 0
1, 128831, Note_on_c, 0, 85, 0
1, 128831, Note_on_c, 0, 55, 0
1, 128831, Note_on_c, 0, 65, 36
1, 128834, Note_on_c, 0, 80, 45
1, 128834, Note_on_c, 0, 85, 45
1, 128834, Note_on_c, 0, 56, 30
1, 128837, Note_on_c, 0, 61, 36
1, 128937, Note_on_c, 0, 61, 0
1, 128937, Note_on_c, 0, 85, 0
1, 128937, Note_on_c, 0, 65, 0
1, 128940, Note_on_c, 0, 80, 0
1, 128940, Note_on_c, 0, 56, 0
1, 128940, Note_on_c, 0, 57, 30
1, 128943, Note_on_c, 0, 80, 46
1, 128943, Note_on_c, 0, 85, 46
1, 128943, Note_on_c, 0, 61, 38
1, 128946, Note_on_c, 0, 65, 38
1, 129046, Note_on_c, 0, 89, 0
1, 129046, Note_on_c, 0, 77, 0
1, 129046, Note_on_c, 0, 77, 62
1, 129049, Note_on_c, 0, 89, 74
1, 129049, Note_on_c, 0, 65, 0
1, 129049, Note_on_c, 0, 85, 0
1, 129052, Note_on_c, 0, 57, 0
1, 129052, Note_on_c, 0, 80, 0
1, 129052, Note_on_c, 0, 61, 0
1, 129055, Note_on_c, 0, 58, 34
1, 129055, Note_on_c, 0, 65, 39
1, 129055, Note_on_c, 0, 61, 39
1, 129058, Control_c, 0, 64, 0
1, 129086, Control_c, 0, 64, 127
1, 129155, Note_on_c, 0, 61, 0
1, 129155, Note_on_c, 0, 65, 0
1, 129155, Note_on_c, 0, 58, 0
1, 129158, Note_on_c, 0, 80, 51
1, 129158, Note_on_c, 0, 61, 40
1, 129158, Note_on_c, 0, 59, 35
1, 129161, Note_on_c, 0, 65, 40
1, 129161, Note_on_c, 0, 85, 51
1, 129263, Note_on_c, 0, 85, 0
1, 129263, Note_on_c, 0, 59, 0
1, 129263, Note_on_c, 0, 80, 0
1, 129266, Note_on_c, 0, 61, 0
1, 129266, Note_on_c, 0, 65, 0
1, 129266, Note_on_c, 0, 60, 36
1, 129269, Note_on_c, 0, 65, 45
1, 129269, Note_on_c, 0, 80, 52
1, 129269, Note_on_c, 0, 85, 52
1, 129272, Note_on_c, 0, 61, 45
1, 129371, Note_on_c, 0, 61, 0
1, 129371, Note_on_c, 0, 80, 0
1, 129371, Note_on_c, 0, 60, 0
1, 129374, Note_on_c, 0, 65, 0
1, 129374, Note_on_c, 0, 85, 0
1, 129374, Note_on_c, 0, 61, 47
1, 129377, Note_on_c, 0, 65, 47
1, 129377, Note_on_c, 0, 85, 56
1, 129377, Note_on_c, 0, 80, 56
1, 129478, Note_on_c, 0, 80, 0
1, 129478, Note_on_c, 0, 61, 0
1, 129478, Note_on_c, 0, 65, 0
1, 129481, Note_on_c, 0, 85, 0
1, 129481, Note_on_c, 0, 80, 57
1, 129481, Note_on_c, 0, 85, 57
1, 129531, Note_on_c, 0, 89, 0
1, 129531, Note_on_c, 0, 77, 0
1, 129590, Note_on_c, 0, 77, 60
1, 129590, Note_on_c, 0, 89, 72
1, 129590, Note_on_c, 0, 85, 0
1, 129593, Note_on_c, 0, 80, 0
1, 129708, Note_on_c, 0, 89, 0
1, 129708, Note_on_c, 0, 77, 0
1, 129708, Note_on_c, 0, 80, 69
1, 129711, Note_on_c, 0, 92, 83
1, 129711, Note_on_c, 0, 32, 55
1, 129711, Note_on_c, 0, 44, 55
1, 129714, Control_c, 0, 64, 0
1, 129771, Control_c, 0, 64, 127
1, 129833, Note_on_c, 0, 44, 0
1, 129833, Note_on_c, 0, 32, 0
1, 129833, Note_on_c, 0, 87, 38
1, 129836, Note_on_c, 0, 56, 26
1, 129836, Note_on_c, 0, 68, 34
1, 129836, Note_on_c, 0, 85, 38
1, 129839, Note_on_c, 0, 63, 34
1, 129940, Note_on_c, 0, 63, 0
1, 129940, Note_on_c, 0, 68, 0
1, 129940, Note_on_c, 0, 87, 0
1, 129943, Note_on_c, 0, 56, 0
1, 129943, Note_on_c, 0, 85, 0
1, 129943, Note_on_c, 0, 85, 40
1, 129946, Note_on_c, 0, 87, 40
1, 129946, Note_on_c, 0, 57, 27
1, 129946, Note_on_c, 0, 68, 35
1, 129949, Note_on_c, 0, 63, 35
1, 130048, Note_on_c, 0, 63, 0
1, 130048, Note_on_c, 0, 57, 0
1, 130048, Note_on_c, 0, 85, 0
1, 130051, Note_on_c, 0, 87, 0
1, 130051, Note_on_c, 0, 68, 0
1, 130051, Note_on_c, 0, 85, 44
1, 130054, Note_on_c, 0, 63, 36
1, 130054, Note_on_c, 0, 58, 30
1, 130054, Note_on_c, 0, 87, 44
1, 130057, Note_on_c, 0, 68, 36
1, 130154, Note_on_c, 0, 68, 0
1, 130154, Note_on_c, 0, 58, 0
1, 130154, Note_on_c, 0, 85, 0
1, 130157, Note_on_c, 0, 63, 0
1, 130157, Note_on_c, 0, 87, 0
1, 130157, Note_on_c, 0, 68, 39
1, 130160, Note_on_c, 0, 85, 48
1, 130160, Note_on_c, 0, 87, 48
1, 130160, Note_on_c, 0, 59, 34
1, 130163, Note_on_c, 0, 63, 39
1, 130261, Note_on_c, 0, 63, 0
1, 130261, Note_on_c, 0, 87, 0
1, 130261, Note_on_c, 0, 68, 0
1, 130264, Note_on_c, 0, 85, 0
1, 130264, Note_on_c, 0, 59, 0
1, 130264, Note_on_c, 0, 87, 50
1, 130267, Note_on_c, 0, 60, 34
1, 130267, Note_on_c, 0, 85, 50
1, 130267, Note_on_c, 0, 63, 40
1, 130270, Note_on_c, 0, 68, 40
1, 130367, Note_on_c, 0, 92, 0
1, 130367, Note_on_c, 0, 80, 0
1, 130367, Note_on_c, 0, 75, 67
1, 130370, Note_on_c, 0, 87, 80
1, 130370, Note_on_c, 0, 68, 0
1, 130370, Note_on_c, 0, 85, 0
1, 130373, Note_on_c, 0, 87, 0
1, 130373, Note_on_c, 0, 60, 0
1, 130373, Note_on_c, 0, 63, 0
1, 130373, Control_c, 0, 64, 0
1, 130395, Control_c, 0, 64, 127
1, 130473, Note_on_c, 0, 80, 55
1, 130473, Note_on_c, 0, 84, 55
1, 130473, Note_on_c, 0, 59, 44
1, 130476, Note_on_c, 0, 63, 44
1, 130476, Note_on_c, 0, 68, 44
1, 130579, Note_on_c, 0, 68, 0
1, 130579, Note_on_c, 0, 59, 0
1, 130579, Note_on_c, 0, 80, 0
1, 130582, Note_on_c, 0, 84, 0
1, 130582, Note_on_c, 0, 63, 0
1, 130582, Note_on_c, 0, 80, 56
1, 130585, Note_on_c, 0, 60, 45
1, 130585, Note_on_c, 0, 68, 47
1, 130585, Note_on_c, 0, 84, 56
1, 130588, Note_on_c, 0, 63, 47
1, 130684, Note_on_c, 0, 87, 0
1, 130684, Note_on_c, 0, 75, 0
1, 130684, Note_on_c, 0, 63, 0
1, 130687, Note_on_c, 0, 68, 0
1, 130687, Note_on_c, 0, 80, 0
1, 130687, Note_on_c, 0, 60, 0
1, 130690, Note_on_c, 0, 84, 0
1, 130690, Note_on_c, 0, 63, 42
1, 130690, Note_on_c, 0, 68, 51
1, 130693, Note_on_c, 0, 84, 60
1, 130693, Note_on_c, 0, 61, 45
1, 130693, Note_on_c, 0, 80, 60
1, 130789, Note_on_c, 0, 80, 0
1, 130789, Note_on_c, 0, 84, 0
1, 130789, Note_on_c, 0, 63, 0
1, 130792, Note_on_c, 0, 68, 0
1, 130792, Note_on_c, 0, 61, 0
1, 130792, Note_on_c, 0, 68, 51
1, 130795, Note_on_c, 0, 62, 42
1, 130795, Note_on_c, 0, 84, 60
1, 130795, Note_on_c, 0, 80, 60
1, 130900, Note_on_c, 0, 80, 0
1, 130900, Note_on_c, 0, 68, 0
1, 130900, Note_on_c, 0, 62, 0
1, 130903, Note_on_c, 0, 84, 0
1, 130903, Note_on_c, 0, 63, 42
1, 130903, Note_on_c, 0, 68, 51
1, 130906, Note_on_c, 0, 80, 60
1, 130906, Note_on_c, 0, 84, 60
1, 131018, Note_on_c, 0, 92, 89
1, 131018, Note_on_c, 0, 80, 74
1, 131018, Note_on_c, 0, 84, 0
1, 131021, Note_on_c, 0, 63, 0
1, 131021, Note_on_c, 0, 68, 0
1, 131021, Note_on_c, 0, 80, 0
1, 131024, Note_on_c, 0, 52, 59
1, 131024, Note_on_c, 0, 40, 59
1, 131024, Control_c, 0, 64, 0
1, 131069, Control_c, 0, 64, 127
1, 131143, Note_on_c, 0, 40, 0
1, 131143, Note_on_c, 0, 52, 0
1, 131143, Note_on_c, 0, 56, 27
1, 131146, Note_on_c, 0, 83, 40
1, 131146, Note_on_c, 0, 64, 35
1, 131146, Note_on_c, 0, 68, 35
1, 131149, Note_on_c, 0, 88, 40
1, 131254, Note_on_c, 0, 88, 0
1, 131254, Note_on_c, 0, 64, 0
1, 131254, Note_on_c, 0, 56, 0
1, 131257, Note_on_c, 0, 83, 0
1, 131257, Note_on_c, 0, 68, 0
1, 131257, Note_on_c, 0, 83, 45
1, 131260, Note_on_c, 0, 88, 45
1, 131260, Note_on_c, 0, 68, 37
1, 131260, Note_on_c, 0, 57, 29
1, 131263, Note_on_c, 0, 64, 37
1, 131364, Note_on_c, 0, 64, 0
1, 131364, Note_on_c, 0, 68, 0
1, 131364, Note_on_c, 0, 83, 0
1, 131367, Note_on_c, 0, 88, 0
1, 131367, Note_on_c, 0, 57, 0
1, 131367, Note_on_c, 0, 83, 46
1, 131370, Note_on_c, 0, 64, 38
1, 131370, Note_on_c, 0, 88, 46
1, 131370, Note_on_c, 0, 58, 31
1, 131373, Note_on_c, 0, 68, 38
1, 131473, Note_on_c, 0, 68, 0
1, 131473, Note_on_c, 0, 88, 0
1, 131473, Note_on_c, 0, 83, 0
1, 131476, Note_on_c, 0, 64, 0
1, 131476, Note_on_c, 0, 58, 0
1, 131476, Note_on_c, 0, 88, 51
1, 131479, Note_on_c, 0, 68, 42
1, 131479, Note_on_c, 0, 59, 36
1, 131479, Note_on_c, 0, 64, 42
1, 131482, Note_on_c, 0, 83, 51
1, 131583, Note_on_c, 0, 83, 0
1, 131583, Note_on_c, 0, 59, 0
1, 131583, Note_on_c, 0, 88, 0
1, 131586, Note_on_c, 0, 68, 0
1, 131586, Note_on_c, 0, 64, 0
1, 131586, Note_on_c, 0, 83, 53
1, 131589, Note_on_c, 0, 60, 36
1, 131589, Note_on_c, 0, 68, 44
1, 131589, Note_on_c, 0, 88, 53
1, 131592, Note_on_c, 0, 64, 44
1, 131691, Note_on_c, 0, 80, 0
1, 131691, Note_on_c, 0, 92, 0
1, 131691, Note_on_c, 0, 80, 71
1, 131694, Note_on_c, 0, 92, 84
1, 131694, Note_on_c, 0, 64, 0
1, 131694, Note_on_c, 0, 68, 0
1, 131697, Note_on_c, 0, 83, 0
1, 131697, Note_on_c, 0, 60, 0
1, 131697, Note_on_c, 0, 88, 0
1, 131700, Note_on_c, 0, 68, 45
1, 131700, Note_on_c, 0, 61, 37
1, 131700, Note_on_c, 0, 64, 45
1, 131703, Control_c, 0, 64, 0
1, 131731, Control_c, 0, 64, 127
1, 131800, Note_on_c, 0, 64, 0
1, 131800, Note_on_c, 0, 61, 0
1, 131800, Note_on_c, 0, 68, 0
1, 131803, Note_on_c, 0, 62, 39
1, 131803, Note_on_c, 0, 68, 47
1, 131803, Note_on_c, 0, 88, 59
1, 131806, Note_on_c, 0, 83, 59
1, 131806, Note_on_c, 0, 64, 47
1, 131908, Note_on_c, 0, 64, 0
1, 131908, Note_on_c, 0, 88, 0
1, 131908, Note_on_c, 0, 62, 0
1, 131911, Note_on_c, 0, 68, 0
1, 131911, Note_on_c, 0, 83, 0
1, 131911, Note_on_c, 0, 64, 51
1, 131914, Note_on_c, 0, 63, 40
1, 131914, Note_on_c, 0, 88, 60
1, 131914, Note_on_c, 0, 83, 60
1, 131917, Note_on_c, 0, 68, 51
1, 132016, Note_on_c, 0, 68, 0
1, 132016, Note_on_c, 0, 88, 0
1, 132016, Note_on_c, 0, 64, 0
1, 132019, Note_on_c, 0, 63, 0
1, 132019, Note_on_c, 0, 83, 0
1, 132019, Note_on_c, 0, 64, 53
1, 132022, Note_on_c, 0, 88, 63
1, 132022, Note_on_c, 0, 68, 53
1, 132022, Note_on_c, 0, 83, 63
1, 132123, Note_on_c, 0, 83, 0
1, 132123, Note_on_c, 0, 64, 0
1, 132123, Note_on_c, 0, 88, 0
1, 132126, Note_on_c, 0, 68, 0
1, 132126, Note_on_c, 0, 88, 64
1, 132126, Note_on_c, 0, 83, 64
1, 132176, Note_on_c, 0, 92, 0
1, 132176, Note_on_c, 0, 80, 0
1, 132235, Note_on_c, 0, 80, 69
1, 132235, Note_on_c, 0, 92, 82
1, 132235, Note_on_c, 0, 83, 0
1, 132238, Note_on_c, 0, 88, 0
1, 132354, Note_on_c, 0, 92, 0
1, 132354, Note_on_c, 0, 80, 0
1, 132354, Note_on_c, 0, 95, 94
1, 132357, Note_on_c, 0, 83, 79
1, 132357, Note_on_c, 0, 47, 62
1, 132357, Note_on_c, 0, 35, 62
1, 132360, Control_c, 0, 64, 0
1, 132416, Control_c, 0, 64, 127
1, 132478, Note_on_c, 0, 35, 0
1, 132478, Note_on_c, 0, 47, 0
1, 132478, Note_on_c, 0, 90, 44
1, 132481, Note_on_c, 0, 88, 44
1, 132481, Note_on_c, 0, 59, 29
1, 132481, Note_on_c, 0, 71, 37
1, 132484, Note_on_c, 0, 66, 37
1, 132585, Note_on_c, 0, 66, 0
1, 132585, Note_on_c, 0, 59, 0
1, 132585, Note_on_c, 0, 90, 0
1, 132588, Note_on_c, 0, 88, 0
1, 132588, Note_on_c, 0, 71, 0
1, 132588, Note_on_c, 0, 60, 30
1, 132591, Note_on_c, 0, 71, 39
1, 132591, Note_on_c, 0, 90, 47
1, 132591, Note_on_c, 0, 88, 47
1, 132594, Note_on_c, 0, 66, 39
1, 132693, Note_on_c, 0, 66, 0
1, 132693, Note_on_c, 0, 90, 0
1, 132693, Note_on_c, 0, 60, 0
1, 132696, Note_on_c, 0, 71, 0
1, 132696, Note_on_c, 0, 88, 0
1, 132696, Note_on_c, 0, 90, 48
1, 132699, Note_on_c, 0, 61, 35
1, 132699, Note_on_c, 0, 66, 40
1, 132699, Note_on_c, 0, 71, 40
1, 132702, Note_on_c, 0, 88, 48
1, 132799, Note_on_c, 0, 88, 0
1, 132799, Note_on_c, 0, 66, 0
1, 132799, Note_on_c, 0, 90, 0
1, 132802, Note_on_c, 0, 61, 0
1, 132802, Note_on_c, 0, 71, 0
1, 132802, Note_on_c, 0, 62, 38
1, 132805, Note_on_c, 0, 90, 55
1, 132805, Note_on_c, 0, 88, 55
1, 132805, Note_on_c, 0, 71, 45
1, 132808, Note_on_c, 0, 66, 45
1, 132906, Note_on_c, 0, 66, 0
1, 132906, Note_on_c, 0, 88, 0
1, 132906, Note_on_c, 0, 62, 0
1, 132909, Note_on_c, 0, 90, 0
1, 132909, Note_on_c, 0, 71, 0
1, 132909, Note_on_c, 0, 88, 56
1, 132912, Note_on_c, 0, 63, 38
1, 132912, Note_on_c, 0, 90, 56
1, 132912, Note_on_c, 0, 66, 46
1, 132915, Note_on_c, 0, 71, 46
1, 133012, Note_on_c, 0, 83, 0
1, 133012, Note_on_c, 0, 95, 0
1, 133012, Note_on_c, 0, 90, 90
1, 133015, Note_on_c, 0, 78, 75
1, 133015, Note_on_c, 0, 71, 0
1, 133015, Note_on_c, 0, 90, 0
1, 133018, Note_on_c, 0, 88, 0
1, 133018, Note_on_c, 0, 63, 0
1, 133018, Note_on_c, 0, 66, 0
1, 133022, Control_c, 0, 64, 0
1, 133055, Control_c, 0, 64, 127
1, 133118, Note_on_c, 0, 62, 50
1, 133118, Note_on_c, 0, 66, 50
1, 133118, Note_on_c, 0, 87, 61
1, 133121, Note_on_c, 0, 83, 61
1, 133121, Note_on_c, 0, 71, 50
1, 133224, Note_on_c, 0, 71, 0
1, 133224, Note_on_c, 0, 87, 0
1, 133224, Note_on_c, 0, 62, 0
1, 133227, Note_on_c, 0, 66, 0
1, 133227, Note_on_c, 0, 83, 0
1, 133227, Note_on_c, 0, 66, 53
1, 133230, Note_on_c, 0, 71, 53
1, 133230, Note_on_c, 0, 83, 63
1, 133230, Note_on_c, 0, 87, 63
1, 133233, Note_on_c, 0, 63, 50
1, 133329, Note_on_c, 0, 78, 0
1, 133329, Note_on_c, 0, 90, 0
1, 133329, Note_on_c, 0, 63, 0
1, 133332, Note_on_c, 0, 83, 0
1, 133332, Note_on_c, 0, 66, 0
1, 133332, Note_on_c, 0, 71, 0
1, 133335, Note_on_c, 0, 87, 0
1, 133335, Note_on_c, 0, 64, 51
1, 133335, Note_on_c, 0, 87, 68
1, 133338, Note_on_c, 0, 71, 57
1, 133338, Note_on_c, 0, 83, 68
1, 133338, Note_on_c, 0, 66, 47
1, 133434, Note_on_c, 0, 66, 0
1, 133434, Note_on_c, 0, 71, 0
1, 133434, Note_on_c, 0, 64, 0
1, 133437, Note_on_c, 0, 87, 0
1, 133437, Note_on_c, 0, 83, 0
1, 133437, Note_on_c, 0, 65, 47
1, 133440, Note_on_c, 0, 87, 68
1, 133440, Note_on_c, 0, 71, 57
1, 133440, Note_on_c, 0, 83, 68
1, 133545, Note_on_c, 0, 83, 0
1, 133545, Note_on_c, 0, 65, 0
1, 133545, Note_on_c, 0, 87, 0
1, 133548, Note_on_c, 0, 71, 0
1, 133548, Note_on_c, 0, 87, 68
1, 133548, Note_on_c, 0, 83, 68
1, 133551, Note_on_c, 0, 71, 57
1, 133551, Note_on_c, 0, 66, 47
1, 133623, Control_c, 0, 64, 0
1, 133630, Note_on_c, 0, 56, 46
1, 133634, Note_on_c, 0, 66, 0
1, 133634, Note_on_c, 0, 71, 0
1, 133634, Note_on_c, 0, 87, 0
1, 133637, Note_on_c, 0, 83, 0
1, 133641, Note_on_c, 0, 62, 52
1, 133652, Note_on_c, 0, 65, 59
1, 133663, Note_on_c, 0, 71, 79
1, 133663, Control_c, 0, 64, 127
1, 133808, Note_on_c, 0, 56, 0
1, 133819, Note_on_c, 0, 62, 0
1, 133830, Note_on_c, 0, 65, 0
1, 133900, Note_on_c, 0, 61, 34
1, 133900, Note_on_c, 0, 71, 40
1, 134019, Note_on_c, 0, 71, 0
1, 134019, Note_on_c, 0, 61, 0
1, 134019, Note_on_c, 0, 71, 40
1, 134022, Note_on_c, 0, 62, 34
1, 134129, Note_on_c, 0, 62, 0
1, 134129, Note_on_c, 0, 71, 0
1, 134129, Note_on_c, 0, 71, 40
1, 134132, Note_on_c, 0, 63, 34
1, 134239, Note_on_c, 0, 63, 0
1, 134239, Note_on_c, 0, 71, 0
1, 134239, Note_on_c, 0, 71, 40
1, 134242, Note_on_c, 0, 64, 34
1, 134287, Note_on_c, 0, 44, 45
1, 134308, Note_on_c, 0, 50, 49
1, 134329, Note_on_c, 0, 53, 53
1, 134349, Note_on_c, 0, 64, 0
1, 134349, Note_on_c, 0, 71, 0
1, 134349, Note_on_c, 0, 65, 34
1, 134352, Note_on_c, 0, 71, 40
1, 134352, Note_on_c, 0, 71, 0
1, 134352, Note_on_c, 0, 59, 73
1, 134355, Control_c, 0, 64, 0
1, 134373, Control_c, 0, 64, 127
1, 134453, Note_on_c, 0, 44, 0
1, 134460, Note_on_c, 0, 71, 0
1, 134460, Note_on_c, 0, 65, 0
1, 134460, Note_on_c, 0, 71, 40
1, 134463, Note_on_c, 0, 66, 34
1, 134473, Note_on_c, 0, 50, 0
1, 134494, Note_on_c, 0, 53, 0
1, 134570, Note_on_c, 0, 66, 0
1, 134570, Note_on_c, 0, 71, 0
1, 134570, Note_on_c, 0, 71, 40
1, 134573, Note_on_c, 0, 67, 34
1, 134680, Note_on_c, 0, 67, 0
1, 134680, Note_on_c, 0, 71, 0
1, 134680, Note_on_c, 0, 71, 40
1, 134683, Note_on_c, 0, 68, 34
1, 134790, Note_on_c, 0, 68, 0
1, 134790, Note_on_c, 0, 71, 0
1, 134790, Note_on_c, 0, 71, 40
1, 134793, Note_on_c, 0, 69, 34
1, 134804, Note_on_c, 0, 59, 71
1, 134845, Note_on_c, 0, 59, 0
1, 134900, Note_on_c, 0, 69, 0
1, 134900, Note_on_c, 0, 71, 0
1, 134900, Note_on_c, 0, 71, 40
1, 134903, Note_on_c, 0, 70, 34
1, 134969, Note_on_c, 0, 59, 0
1, 134969, Note_on_c, 0, 44, 40
1, 134987, Control_c, 0, 64, 0
1, 134990, Note_on_c, 0, 51, 40
1, 135011, Note_on_c, 0, 70, 0
1, 135011, Note_on_c, 0, 71, 0
1, 135011, Note_on_c, 0, 71, 40
1, 135014, Note_on_c, 0, 59, 75
1, 135037, Control_c, 0, 64, 127
1, 135121, Note_on_c, 0, 71, 0
1, 135121, Note_on_c, 0, 71, 35
1, 135121, Note_on_c, 0, 72, 41
1, 135134, Note_on_c, 0, 44, 0
1, 135155, Note_on_c, 0, 51, 0
1, 135230, Note_on_c, 0, 72, 0
1, 135230, Note_on_c, 0, 71, 0
1, 135230, Note_on_c, 0, 71, 36
1, 135233, Note_on_c, 0, 73, 42
1, 135339, Note_on_c, 0, 73, 0
1, 135339, Note_on_c, 0, 71, 0
1, 135339, Note_on_c, 0, 74, 44
1, 135342, Note_on_c, 0, 71, 37
1, 135342, Note_on_c, 0, 59, 0
1, 135448, Note_on_c, 0, 71, 0
1, 135448, Note_on_c, 0, 74, 0
1, 135448, Note_on_c, 0, 75, 45
1, 135451, Note_on_c, 0, 71, 37
1, 135556, Note_on_c, 0, 71, 0
1, 135556, Note_on_c, 0, 75, 0
1, 135556, Note_on_c, 0, 71, 38
1, 135559, Note_on_c, 0, 76, 46
1, 135583, Note_on_c, 0, 32, 52
1, 135583, Note_on_c, 0, 39, 52
1, 135664, Note_on_c, 0, 76, 0
1, 135664, Note_on_c, 0, 71, 0
1, 135664, Note_on_c, 0, 77, 47
1, 135667, Note_on_c, 0, 71, 39
1, 135667, Note_on_c, 0, 39, 0
1, 135667, Note_on_c, 0, 32, 0
1, 135670, Note_on_c, 0, 39, 61
1, 135670, Note_on_c, 0, 32, 61
1, 135772, Note_on_c, 0, 71, 0
1, 135772, Note_on_c, 0, 77, 0
1, 135772, Note_on_c, 0, 78, 48
1, 135775, Note_on_c, 0, 71, 40
1, 135826, Note_on_c, 0, 32, 0
1, 135826, Note_on_c, 0, 39, 0
1, 135880, Note_on_c, 0, 71, 0
1, 135880, Note_on_c, 0, 78, 0
1, 135880, Note_on_c, 0, 79, 50
1, 135883, Note_on_c, 0, 71, 42
1, 135988, Note_on_c, 0, 71, 0
1, 135988, Note_on_c, 0, 79, 0
1, 135988, Note_on_c, 0, 71, 42
1, 135991, Note_on_c, 0, 80, 51
1, 136097, Note_on_c, 0, 80, 0
1, 136097, Note_on_c, 0, 71, 0
1, 136097, Note_on_c, 0, 81, 52
1, 136100, Note_on_c, 0, 71, 44
1, 136207, Note_on_c, 0, 71, 0
1, 136207, Note_on_c, 0, 81, 0
1, 136207, Note_on_c, 0, 82, 53
1, 136210, Note_on_c, 0, 71, 45
1, 136236, Control_c, 0, 64, 0
1, 136285, Note_on_c, 0, 56, 46
1, 136296, Note_on_c, 0, 62, 52
1, 136307, Note_on_c, 0, 65, 59
1, 136318, Note_on_c, 0, 71, 0
1, 136318, Note_on_c, 0, 82, 0
1, 136318, Note_on_c, 0, 83, 51
1, 136321, Note_on_c, 0, 71, 79
1, 136321, Control_c, 0, 64, 127
1, 136437, Note_on_c, 0, 83, 0
1, 136437, Note_on_c, 0, 83, 44
1, 136437, Note_on_c, 0, 72, 52
1, 136463, Note_on_c, 0, 56, 0
1, 136474, Note_on_c, 0, 62, 0
1, 136485, Note_on_c, 0, 65, 0
1, 136555, Note_on_c, 0, 72, 0
1, 136555, Note_on_c, 0, 83, 0
1, 136555, Note_on_c, 0, 83, 44
1, 136558, Note_on_c, 0, 73, 52
1, 136674, Note_on_c, 0, 73, 0
1, 136674, Note_on_c, 0, 83, 0
1, 136674, Note_on_c, 0, 83, 45
1, 136677, Note_on_c, 0, 74, 53
1, 136784, Note_on_c, 0, 74, 0
1, 136784, Note_on_c, 0, 83, 0
1, 136784, Note_on_c, 0, 83, 46
1, 136787, Note_on_c, 0, 75, 55
1, 136894, Note_on_c, 0, 75, 0
1, 136894, Note_on_c, 0, 83, 0
1, 136894, Note_on_c, 0, 76, 56
1, 136897, Note_on_c, 0, 83, 47
1, 136943, Note_on_c, 0, 44, 45
1, 136963, Note_on_c, 0, 50, 49
1, 136984, Note_on_c, 0, 53, 53
1, 137005, Note_on_c, 0, 83, 0
1, 137005, Note_on_c, 0, 76, 0
1, 137005, Note_on_c, 0, 77, 57
1, 137008, Note_on_c, 0, 83, 48
1, 137008, Note_on_c, 0, 71, 0
1, 137008, Note_on_c, 0, 59, 73
1, 137011, Control_c, 0, 64, 0
1, 137028, Control_c, 0, 64, 127
1, 137107, Note_on_c, 0, 44, 0
1, 137114, Note_on_c, 0, 83, 0
1, 137114, Note_on_c, 0, 77, 0
1, 137114, Note_on_c, 0, 83, 49
1, 137117, Note_on_c, 0, 78, 58
1, 137128, Note_on_c, 0, 50, 0
1, 137148, Note_on_c, 0, 53, 0
1, 137223, Note_on_c, 0, 78, 0
1, 137223, Note_on_c, 0, 83, 0
1, 137223, Note_on_c, 0, 79, 59
1, 137226, Note_on_c, 0, 83, 49
1, 137333, Note_on_c, 0, 83, 0
1, 137333, Note_on_c, 0, 79, 0
1, 137333, Note_on_c, 0, 80, 60
1, 137336, Note_on_c, 0, 83, 50
1, 137442, Note_on_c, 0, 83, 0
1, 137442, Note_on_c, 0, 80, 0
1, 137442, Note_on_c, 0, 81, 60
1, 137445, Note_on_c, 0, 83, 50
1, 137456, Note_on_c, 0, 59, 71
1, 137497, Note_on_c, 0, 59, 0
1, 137551, Note_on_c, 0, 83, 0
1, 137551, Note_on_c, 0, 81, 0
1, 137551, Note_on_c, 0, 83, 51
1, 137554, Note_on_c, 0, 82, 61
1, 137620, Note_on_c, 0, 59, 0
1, 137620, Note_on_c, 0, 44, 40
1, 137637, Control_c, 0, 64, 0
1, 137640, Note_on_c, 0, 51, 40
1, 137661, Note_on_c, 0, 82, 0
1, 137661, Note_on_c, 0, 83, 0
1, 137661, Note_on_c, 0, 83, 62
1, 137664, Note_on_c, 0, 59, 75
1, 137687, Control_c, 0, 64, 127
1, 137770, Note_on_c, 0, 83, 0
1, 137770, Note_on_c, 0, 84, 63
1, 137770, Note_on_c, 0, 83, 53
1, 137783, Note_on_c, 0, 44, 0
1, 137803, Note_on_c, 0, 51, 0
1, 137878, Note_on_c, 0, 83, 0
1, 137878, Note_on_c, 0, 84, 0
1, 137878, Note_on_c, 0, 83, 55
1, 137881, Note_on_c, 0, 85, 64
1, 137985, Note_on_c, 0, 85, 0
1, 137985, Note_on_c, 0, 83, 0
1, 137985, Note_on_c, 0, 83, 55
1, 137988, Note_on_c, 0, 86, 64
1, 137988, Note_on_c, 0, 59, 0
1, 138092, Note_on_c, 0, 86, 0
1, 138092, Note_on_c, 0, 83, 0
1, 138092, Note_on_c, 0, 83, 56
1, 138095, Note_on_c, 0, 87, 66
1, 138199, Note_on_c, 0, 87, 0
1, 138199, Note_on_c, 0, 83, 0
1, 138199, Note_on_c, 0, 88, 67
1, 138202, Note_on_c, 0, 83, 56
1, 138225, Note_on_c, 0, 39, 52
1, 138225, Note_on_c, 0, 32, 52
1, 138304, Note_on_c, 0, 83, 0
1, 138304, Note_on_c, 0, 88, 0
1, 138304, Note_on_c, 0, 89, 68
1, 138307, Note_on_c, 0, 83, 57
1, 138307, Note_on_c, 0, 32, 0
1, 138307, Note_on_c, 0, 39, 0
1, 138310, Note_on_c, 0, 39, 62
1, 138310, Note_on_c, 0, 32, 62
1, 138410, Note_on_c, 0, 83, 0
1, 138410, Note_on_c, 0, 89, 0
1, 138410, Note_on_c, 0, 83, 58
1, 138413, Note_on_c, 0, 90, 69
1, 138464, Note_on_c, 0, 32, 0
1, 138464, Note_on_c, 0, 39, 0
1, 138518, Note_on_c, 0, 90, 0
1, 138518, Note_on_c, 0, 83, 0
1, 138518, Note_on_c, 0, 91, 70
1, 138521, Note_on_c, 0, 83, 59
1, 138625, Note_on_c, 0, 83, 0
1, 138625, Note_on_c, 0, 91, 0
1, 138625, Note_on_c, 0, 83, 59
1, 138628, Note_on_c, 0, 92, 70
1, 138734, Note_on_c, 0, 92, 0
1, 138734, Note_on_c, 0, 83, 0
1, 138734, Note_on_c, 0, 83, 60
1, 138737, Note_on_c, 0, 93, 71
1, 138843, Note_on_c, 0, 93, 0
1, 138843, Note_on_c, 0, 83, 0
1, 138843, Note_on_c, 0, 83, 61
1, 138846, Note_on_c, 0, 94, 72
1, 138872, Control_c, 0, 64, 0
1, 138921, Note_on_c, 0, 56, 48
1, 138932, Note_on_c, 0, 62, 55
1, 138942, Note_on_c, 0, 65, 62
1, 138952, Note_on_c, 0, 94, 0
1, 138952, Note_on_c, 0, 83, 0
1, 138952, Note_on_c, 0, 83, 72
1, 138955, Note_on_c, 0, 95, 61
1, 138955, Note_on_c, 0, 71, 84
1, 138955, Control_c, 0, 64, 127
1, 139065, Note_on_c, 0, 95, 0
1, 139065, Note_on_c, 0, 83, 0
1, 139065, Note_on_c, 0, 95, 61
1, 139068, Note_on_c, 0, 84, 73
1, 139089, Note_on_c, 0, 56, 0
1, 139100, Note_on_c, 0, 62, 0
1, 139111, Note_on_c, 0, 65, 0
1, 139177, Note_on_c, 0, 84, 0
1, 139177, Note_on_c, 0, 95, 0
1, 139177, Note_on_c, 0, 85, 74
1, 139180, Note_on_c, 0, 95, 62
1, 139290, Note_on_c, 0, 95, 0
1, 139290, Note_on_c, 0, 85, 0
1, 139290, Note_on_c, 0, 95, 62
1, 139293, Note_on_c, 0, 86, 74
1, 139397, Note_on_c, 0, 86, 0
1, 139397, Note_on_c, 0, 95, 0
1, 139397, Note_on_c, 0, 95, 63
1, 139400, Note_on_c, 0, 87, 75
1, 139504, Note_on_c, 0, 87, 0
1, 139504, Note_on_c, 0, 95, 0
1, 139504, Note_on_c, 0, 88, 77
1, 139507, Note_on_c, 0, 95, 64
1, 139551, Note_on_c, 0, 44, 49
1, 139570, Note_on_c, 0, 50, 53
1, 139590, Note_on_c, 0, 53, 58
1, 139610, Note_on_c, 0, 95, 0
1, 139610, Note_on_c, 0, 88, 0
1, 139610, Note_on_c, 0, 71, 0
1, 139613, Note_on_c, 0, 59, 80
1, 139613, Control_c, 0, 64, 0
1, 139633, Control_c, 0, 64, 127
1, 139712, Note_on_c, 0, 44, 0
1, 139718, Note_on_c, 0, 88, 79
1, 139718, Note_on_c, 0, 95, 67
1, 139718, Note_on_c, 0, 86, 79
1, 139732, Note_on_c, 0, 50, 0
1, 139752, Note_on_c, 0, 53, 0
1, 139827, Note_on_c, 0, 86, 0
1, 139827, Note_on_c, 0, 95, 0
1, 139827, Note_on_c, 0, 88, 0
1, 139830, Note_on_c, 0, 89, 80
1, 139830, Note_on_c, 0, 86, 68
1, 139830, Note_on_c, 0, 95, 68
1, 139935, Note_on_c, 0, 95, 0
1, 139935, Note_on_c, 0, 86, 0
1, 139935, Note_on_c, 0, 89, 0
1, 139938, Note_on_c, 0, 86, 68
1, 139938, Note_on_c, 0, 90, 81
1, 139938, Note_on_c, 0, 95, 68
1, 140043, Note_on_c, 0, 95, 0
1, 140043, Note_on_c, 0, 90, 0
1, 140043, Note_on_c, 0, 86, 0
1, 140046, Note_on_c, 0, 91, 82
1, 140046, Note_on_c, 0, 95, 69
1, 140046, Note_on_c, 0, 86, 69
1, 140097, Note_on_c, 0, 59, 0
1, 140097, Note_on_c, 0, 59, 80
1, 140155, Note_on_c, 0, 86, 0
1, 140155, Note_on_c, 0, 95, 0
1, 140155, Note_on_c, 0, 91, 0
1, 140158, Note_on_c, 0, 95, 70
1, 140158, Note_on_c, 0, 86, 70
1, 140158, Note_on_c, 0, 92, 83
1, 140184, Note_on_c, 0, 43, 51
1, 140188, Control_c, 0, 64, 0
1, 140224, Control_c, 0, 64, 127
1, 140228, Note_on_c, 0, 92, 0
1, 140228, Note_on_c, 0, 86, 0
1, 140228, Note_on_c, 0, 95, 0
1, 140231, Note_on_c, 0, 52, 64
1, 140250, Note_on_c, 0, 55, 69
1, 140272, Note_on_c, 0, 59, 0
1, 140272, Note_on_c, 0, 60, 85
1, 140272, Note_on_c, 0, 64, 85
1, 140353, Note_on_c, 0, 43, 0
1, 140380, Note_on_c, 0, 91, 73
1, 140380, Note_on_c, 0, 100, 86
1, 140380, Note_on_c, 0, 96, 73
1, 140394, Note_on_c, 0, 52, 0
1, 140414, Note_on_c, 0, 55, 0
1, 140487, Note_on_c, 0, 96, 0
1, 140487, Note_on_c, 0, 100, 0
1, 140487, Note_on_c, 0, 91, 0
1, 140490, Note_on_c, 0, 99, 86
1, 140490, Note_on_c, 0, 90, 73
1, 140490, Note_on_c, 0, 95, 73
1, 140593, Note_on_c, 0, 95, 0
1, 140593, Note_on_c, 0, 90, 0
1, 140593, Note_on_c, 0, 99, 0
1, 140596, Note_on_c, 0, 89, 72
1, 140596, Note_on_c, 0, 94, 72
1, 140596, Note_on_c, 0, 98, 85
1, 140699, Note_on_c, 0, 98, 0
1, 140699, Note_on_c, 0, 94, 0
1, 140699, Note_on_c, 0, 89, 0
1, 140702, Note_on_c, 0, 97, 84
1, 140702, Note_on_c, 0, 93, 71
1, 140702, Note_on_c, 0, 88, 71
1, 140807, Note_on_c, 0, 88, 0
1, 140807, Note_on_c, 0, 93, 0
1, 140807, Note_on_c, 0, 97, 0
1, 140810, Note_on_c, 0, 96, 84
1, 140810, Note_on_c, 0, 87, 71
1, 140810, Note_on_c, 0, 92, 71
1, 140915, Note_on_c, 0, 92, 0
1, 140915, Note_on_c, 0, 87, 0
1, 140915, Note_on_c, 0, 96, 0
1, 140918, Note_on_c, 0, 95, 83
1, 140918, Note_on_c, 0, 86, 70
1, 140918, Note_on_c, 0, 91, 70
1, 140921, Note_on_c, 0, 64, 0
1, 140921, Note_on_c, 0, 60, 0
1, 140921, Note_on_c, 0, 43, 78
1, 140924, Note_on_c, 0, 31, 78
1, 140924, Control_c, 0, 64, 0
1, 140963, Control_c, 0, 64, 127
1, 141024, Note_on_c, 0, 91, 0
1, 141024, Note_on_c, 0, 86, 0
1, 141024, Note_on_c, 0, 95, 0
1, 141027, Note_on_c, 0, 94, 83
1, 141027, Note_on_c, 0, 85, 70
1, 141027, Note_on_c, 0, 90, 83
1, 141078, Note_on_c, 0, 31, 0
1, 141078, Note_on_c, 0, 43, 0
1, 141132, Note_on_c, 0, 90, 0
1, 141132, Note_on_c, 0, 85, 0
1, 141132, Note_on_c, 0, 94, 0
1, 141135, Note_on_c, 0, 89, 69
1, 141135, Note_on_c, 0, 84, 69
1, 141135, Note_on_c, 0, 93, 82
1, 141240, Note_on_c, 0, 93, 0
1, 141240, Note_on_c, 0, 84, 0
1, 141240, Note_on_c, 0, 89, 0
1, 141243, Note_on_c, 0, 83, 68
1, 141243, Note_on_c, 0, 88, 68
1, 141243, Note_on_c, 0, 92, 81
1, 141246, Note_on_c, 0, 60, 69
1, 141246, Note_on_c, 0, 55, 69
1, 141246, Note_on_c, 0, 64, 82
1, 141352, Note_on_c, 0, 92, 0
1, 141352, Note_on_c, 0, 88, 0
1, 141352, Note_on_c, 0, 83, 0
1, 141355, Note_on_c, 0, 87, 68
1, 141355, Note_on_c, 0, 91, 81
1, 141355, Note_on_c, 0, 82, 68
1, 141464, Note_on_c, 0, 82, 0
1, 141464, Note_on_c, 0, 91, 0
1, 141464, Note_on_c, 0, 87, 0
1, 141467, Note_on_c, 0, 90, 80
1, 141467, Note_on_c, 0, 86, 68
1, 141467, Note_on_c, 0, 81, 68
1, 141577, Note_on_c, 0, 81, 0
1, 141577, Note_on_c, 0, 86, 0
1, 141577, Note_on_c, 0, 90, 0
1, 141580, Note_on_c, 0, 85, 56
1, 141580, Note_on_c, 0, 80, 56
1, 141580, Note_on_c, 0, 89, 79
1, 141583, Note_on_c, 0, 64, 0
1, 141583, Note_on_c, 0, 55, 0
1, 141583, Note_on_c, 0, 60, 0
1, 141586, Note_on_c, 0, 56, 72
1, 141586, Note_on_c, 0, 65, 85
1, 141586, Note_on_c, 0, 61, 72
1, 141589, Control_c, 0, 64, 0
1, 141630, Control_c, 0, 64, 127
1, 141686, Note_on_c, 0, 89, 0
1, 141686, Note_on_c, 0, 80, 0
1, 141686, Note_on_c, 0, 85, 0
1, 141689, Note_on_c, 0, 79, 56
1, 141689, Note_on_c, 0, 88, 79
1, 141689, Note_on_c, 0, 84, 56
1, 141793, Note_on_c, 0, 84, 0
1, 141793, Note_on_c, 0, 88, 0
1, 141793, Note_on_c, 0, 79, 0
1, 141796, Note_on_c, 0, 78, 56
1, 141796, Note_on_c, 0, 87, 78
1, 141796, Note_on_c, 0, 83, 78
1, 141900, Note_on_c, 0, 83, 0
1, 141900, Note_on_c, 0, 87, 0
1, 141900, Note_on_c, 0, 78, 0
1, 141903, Note_on_c, 0, 77, 55
1, 141903, Note_on_c, 0, 82, 55
1, 141903, Note_on_c, 0, 86, 77
1, 142008, Note_on_c, 0, 86, 0
1, 142008, Note_on_c, 0, 82, 0
1, 142008, Note_on_c, 0, 77, 0
1, 142011, Note_on_c, 0, 85, 77
1, 142011, Note_on_c, 0, 76, 55
1, 142011, Note_on_c, 0, 81, 55
1, 142117, Note_on_c, 0, 81, 0
1, 142117, Note_on_c, 0, 76, 0
1, 142117, Note_on_c, 0, 85, 0
1, 142120, Note_on_c, 0, 75, 53
1, 142120, Note_on_c, 0, 84, 75
1, 142120, Note_on_c, 0, 80, 53
1, 142165, Note_on_c, 0, 61, 0
1, 142165, Note_on_c, 0, 65, 0
1, 142165, Note_on_c, 0, 56, 0
1, 142168, Note_on_c, 0, 43, 49
1, 142185, Note_on_c, 0, 50, 53
1, 142192, Control_c, 0, 64, 0
1, 142206, Note_on_c, 0, 53, 58
1, 142222, Control_c, 0, 64, 127
1, 142226, Note_on_c, 0, 80, 0
1, 142226, Note_on_c, 0, 84, 0
1, 142226, Note_on_c, 0, 75, 0
1, 142229, Note_on_c, 0, 59, 80
1, 142329, Note_on_c, 0, 43, 0
1, 142336, Note_on_c, 0, 79, 62
1, 142336, Note_on_c, 0, 83, 74
1, 142336, Note_on_c, 0, 74, 62
1, 142349, Note_on_c, 0, 50, 0
1, 142370, Note_on_c, 0, 53, 0
1, 142445, Note_on_c, 0, 74, 0
1, 142445, Note_on_c, 0, 83, 0
1, 142445, Note_on_c, 0, 79, 0
1, 142448, Note_on_c, 0, 82, 74
1, 142448, Note_on_c, 0, 78, 62
1, 142448, Note_on_c, 0, 73, 62
1, 142554, Note_on_c, 0, 73, 0
1, 142554, Note_on_c, 0, 78, 0
1, 142554, Note_on_c, 0, 82, 0
1, 142557, Note_on_c, 0, 72, 61
1, 142557, Note_on_c, 0, 77, 73
1, 142557, Note_on_c, 0, 81, 73
1, 142667, Note_on_c, 0, 81, 0
1, 142667, Note_on_c, 0, 77, 0
1, 142667, Note_on_c, 0, 72, 0
1, 142670, Note_on_c, 0, 80, 72
1, 142670, Note_on_c, 0, 74, 61
1, 142670, Note_on_c, 0, 71, 61
1, 142723, Note_on_c, 0, 59, 0
1, 142723, Note_on_c, 0, 53, 62
1, 142723, Note_on_c, 0, 50, 62
1, 142726, Note_on_c, 0, 59, 80
1, 142779, Note_on_c, 0, 71, 0
1, 142779, Note_on_c, 0, 74, 0
1, 142779, Note_on_c, 0, 80, 0
1, 142782, Note_on_c, 0, 74, 61
1, 142782, Note_on_c, 0, 79, 72
1, 142782, Note_on_c, 0, 71, 61
1, 142886, Control_c, 0, 64, 0
1, 142891, Note_on_c, 0, 71, 0
1, 142891, Note_on_c, 0, 79, 0
1, 142891, Note_on_c, 0, 74, 0
1, 142894, Note_on_c, 0, 59, 0
1, 142894, Note_on_c, 0, 50, 0
1, 142894, Note_on_c, 0, 53, 0
1, 142897, Note_on_c, 0, 60, 72
1, 142897, Note_on_c, 0, 55, 72
1, 142897, Note_on_c, 0, 64, 85
1, 142947, Control_c, 0, 64, 127
1, 143001, Note_on_c, 0, 88, 73
1, 143001, Note_on_c, 0, 79, 61
1, 143001, Note_on_c, 0, 84, 61
1, 143108, Note_on_c, 0, 84, 0
1, 143108, Note_on_c, 0, 79, 0
1, 143108, Note_on_c, 0, 88, 0
1, 143111, Note_on_c, 0, 83, 61
1, 143111, Note_on_c, 0, 78, 61
1, 143111, Note_on_c, 0, 87, 73
1, 143216, Note_on_c, 0, 87, 0
1, 143216, Note_on_c, 0, 78, 0
1, 143216, Note_on_c, 0, 83, 0
1, 143219, Note_on_c, 0, 86, 71
1, 143219, Note_on_c, 0, 82, 61
1, 143219, Note_on_c, 0, 77, 61
1, 143325, Note_on_c, 0, 77, 0
1, 143325, Note_on_c, 0, 82, 0
1, 143325, Note_on_c, 0, 86, 0
1, 143328, Note_on_c, 0, 81, 59
1, 143328, Note_on_c, 0, 85, 70
1, 143328, Note_on_c, 0, 76, 59
1, 143434, Note_on_c, 0, 76, 0
1, 143434, Note_on_c, 0, 85, 0
1, 143434, Note_on_c, 0, 81, 0
1, 143437, Note_on_c, 0, 80, 59
1, 143437, Note_on_c, 0, 75, 59
1, 143437, Note_on_c, 0, 84, 70
1, 143543, Note_on_c, 0, 84, 0
1, 143543, Note_on_c, 0, 75, 0
1, 143543, Note_on_c, 0, 80, 0
1, 143546, Note_on_c, 0, 83, 69
1, 143546, Note_on_c, 0, 74, 58
1, 143546, Note_on_c, 0, 79, 58
1, 143549, Note_on_c, 0, 64, 0
1, 143549, Note_on_c, 0, 55, 0
1, 143549, Note_on_c, 0, 60, 0
1, 143552, Note_on_c, 0, 43, 76
1, 143552, Note_on_c, 0, 31, 64
1, 143552, Control_c, 0, 64, 0
1, 143605, Control_c, 0, 64, 127
1, 143652, Note_on_c, 0, 79, 0
1, 143652, Note_on_c, 0, 74, 0
1, 143652, Note_on_c, 0, 83, 0
1, 143655, Note_on_c, 0, 82, 69
1, 143655, Note_on_c, 0, 73, 58
1, 143655, Note_on_c, 0, 78, 58
1, 143707, Note_on_c, 0, 31, 0
1, 143707, Note_on_c, 0, 43, 0
1, 143762, Note_on_c, 0, 78, 0
1, 143762, Note_on_c, 0, 73, 0
1, 143762, Note_on_c, 0, 82, 0
1, 143765, Note_on_c, 0, 81, 67
1, 143765, Note_on_c, 0, 72, 56
1, 143765, Note_on_c, 0, 77, 56
1, 143871, Note_on_c, 0, 77, 0
1, 143871, Note_on_c, 0, 72, 0
1, 143871, Note_on_c, 0, 81, 0
1, 143874, Note_on_c, 0, 76, 55
1, 143874, Note_on_c, 0, 71, 55
1, 143874, Note_on_c, 0, 80, 66
1, 143877, Note_on_c, 0, 55, 67
1, 143877, Note_on_c, 0, 60, 67
1, 143877, Note_on_c, 0, 64, 80
1, 143983, Note_on_c, 0, 80, 0
1, 143983, Note_on_c, 0, 71, 0
1, 143983, Note_on_c, 0, 76, 0
1, 143986, Note_on_c, 0, 79, 65
1, 143986, Note_on_c, 0, 70, 55
1, 143986, Note_on_c, 0, 75, 55
1, 144096, Note_on_c, 0, 75, 0
1, 144096, Note_on_c, 0, 70, 0
1, 144096, Note_on_c, 0, 79, 0
1, 144099, Note_on_c, 0, 74, 55
1, 144099, Note_on_c, 0, 78, 65
1, 144099, Note_on_c, 0, 69, 55
1, 144208, Note_on_c, 0, 69, 0
1, 144208, Note_on_c, 0, 78, 0
1, 144208, Note_on_c, 0, 74, 0
1, 144211, Note_on_c, 0, 68, 53
1, 144211, Note_on_c, 0, 73, 53
1, 144211, Note_on_c, 0, 77, 64
1, 144214, Note_on_c, 0, 64, 0
1, 144214, Note_on_c, 0, 60, 0
1, 144214, Note_on_c, 0, 55, 0
1, 144217, Note_on_c, 0, 65, 81
1, 144217, Note_on_c, 0, 61, 69
1, 144217, Note_on_c, 0, 56, 69
1, 144220, Control_c, 0, 64, 0
1, 144279, Control_c, 0, 64, 127
1, 144318, Note_on_c, 0, 77, 0
1, 144318, Note_on_c, 0, 73, 0
1, 144318, Note_on_c, 0, 68, 0
1, 144321, Note_on_c, 0, 76, 65
1, 144321, Note_on_c, 0, 72, 54
1, 144428, Note_on_c, 0, 72, 0
1, 144428, Note_on_c, 0, 76, 0
1, 144428, Note_on_c, 0, 75, 64
1, 144431, Note_on_c, 0, 71, 53
1, 144539, Note_on_c, 0, 71, 0
1, 144539, Note_on_c, 0, 75, 0
1, 144539, Note_on_c, 0, 70, 52
1, 144542, Note_on_c, 0, 74, 62
1, 144542, Note_on_c, 0, 56, 0
1, 144542, Note_on_c, 0, 61, 0
1, 144649, Note_on_c, 0, 74, 0
1, 144649, Note_on_c, 0, 70, 0
1, 144649, Note_on_c, 0, 64, 50
1, 144652, Note_on_c, 0, 69, 50
1, 144652, Note_on_c, 0, 73, 61
1, 144759, Note_on_c, 0, 73, 0
1, 144759, Note_on_c, 0, 69, 0
1, 144759, Note_on_c, 0, 64, 0
1, 144762, Note_on_c, 0, 63, 50
1, 144762, Note_on_c, 0, 72, 60
1, 144762, Note_on_c, 0, 68, 50
1, 144869, Note_on_c, 0, 68, 0
1, 144869, Note_on_c, 0, 72, 0
1, 144869, Note_on_c, 0, 63, 0
1, 144872, Note_on_c, 0, 67, 50
1, 144872, Note_on_c, 0, 71, 59
1, 144872, Note_on_c, 0, 62, 50
1, 144904, Control_c, 0, 64, 0
1, 144943, Control_c, 0, 64, 127
1, 144979, Note_on_c, 0, 62, 0
1, 144979, Note_on_c, 0, 71, 0
1, 144979, Note_on_c, 0, 67, 0
1, 144982, Note_on_c, 0, 70, 59
1, 144982, Note_on_c, 0, 66, 50
1, 144982, Note_on_c, 0, 61, 50
1, 145089, Note_on_c, 0, 61, 0
1, 145089, Note_on_c, 0, 66, 0
1, 145089, Note_on_c, 0, 70, 0
1, 145092, Note_on_c, 0, 60, 48
1, 145092, Note_on_c, 0, 69, 58
1, 145092, Note_on_c, 0, 65, 48
1, 145200, Note_on_c, 0, 65, 0
1, 145200, Note_on_c, 0, 69, 0
1, 145200, Note_on_c, 0, 60, 0
1, 145203, Note_on_c, 0, 64, 47
1, 145203, Note_on_c, 0, 59, 47
1, 145203, Note_on_c, 0, 68, 57
1, 145206, Note_on_c, 0, 65, 0
1, 145310, Note_on_c, 0, 68, 0
1, 145310, Note_on_c, 0, 59, 0
1, 145310, Note_on_c, 0, 64, 0
1, 145313, Note_on_c, 0, 58, 47
1, 145313, Note_on_c, 0, 63, 47
1, 145313, Note_on_c, 0, 67, 56
1, 145420, Note_on_c, 0, 67, 0
1, 145420, Note_on_c, 0, 63, 0
1, 145420, Note_on_c, 0, 58, 0
1, 145423, Note_on_c, 0, 57, 46
1, 145423, Note_on_c, 0, 66, 54
1, 145423, Note_on_c, 0, 62, 46
1, 145530, Note_on_c, 0, 62, 0
1, 145530, Note_on_c, 0, 66, 0
1, 145530, Note_on_c, 0, 57, 0
1, 145533, Note_on_c, 0, 61, 54
1, 145533, Note_on_c, 0, 65, 54
1, 145533, Note_on_c, 0, 56, 46
1, 145533, Control_c, 0, 64, 0
1, 145639, Note_on_c, 0, 56, 0
1, 145639, Note_on_c, 0, 65, 0
1, 145639, Note_on_c, 0, 61, 0
1, 145642, Note_on_c, 0, 64, 53
1, 145642, Note_on_c, 0, 60, 45
1, 145642, Note_on_c, 0, 55, 45
1, 145748, Note_on_c, 0, 55, 0
1, 145748, Note_on_c, 0, 60, 0
1, 145748, Note_on_c, 0, 64, 0
1, 145751, Note_on_c, 0, 54, 44
1, 145751, Note_on_c, 0, 59, 44
1, 145751, Note_on_c, 0, 63, 53
1, 145857, Note_on_c, 0, 63, 0
1, 145857, Note_on_c, 0, 59, 0
1, 145857, Note_on_c, 0, 54, 0
1, 145860, Note_on_c, 0, 62, 52
1, 145860, Note_on_c, 0, 53, 44
1, 145860, Note_on_c, 0, 58, 44
1, 145965, Note_on_c, 0, 58, 0
1, 145965, Note_on_c, 0, 53, 0
1, 145965, Note_on_c, 0, 62, 0
1, 145968, Note_on_c, 0, 52, 44
1, 145968, Note_on_c, 0, 57, 44
1, 145968, Note_on_c, 0, 61, 52
1, 146073, Note_on_c, 0, 61, 0
1, 146073, Note_on_c, 0, 57, 0
1, 146073, Note_on_c, 0, 52, 0
1, 146076, Note_on_c, 0, 51, 42
1, 146076, Note_on_c, 0, 60, 50
1, 146076, Note_on_c, 0, 56, 42
1, 146181, Note_on_c, 0, 56, 0
1, 146181, Note_on_c, 0, 60, 0
1, 146181, Note_on_c, 0, 51, 0
1, 146184, Note_on_c, 0, 50, 42
1, 146184, Note_on_c, 0, 55, 42
1, 146184, Note_on_c, 0, 59, 50
1, 146288, Note_on_c, 0, 59, 0
1, 146288, Note_on_c, 0, 55, 0
1, 146288, Note_on_c, 0, 50, 0
1, 146291, Note_on_c, 0, 54, 41
1, 146291, Note_on_c, 0, 58, 49
1, 146291, Note_on_c, 0, 49, 41
1, 146394, Note_on_c, 0, 49, 0
1, 146394, Note_on_c, 0, 58, 0
1, 146394, Note_on_c, 0, 54, 0
1, 146397, Note_on_c, 0, 53, 40
1, 146397, Note_on_c, 0, 57, 48
1, 146397, Note_on_c, 0, 48, 40
1, 146500, Note_on_c, 0, 48, 0
1, 146500, Note_on_c, 0, 57, 0
1, 146500, Note_on_c, 0, 53, 0
1, 146503, Note_on_c, 0, 56, 48
1, 146503, Note_on_c, 0, 52, 40
1, 146503, Note_on_c, 0, 47, 40
1, 146606, Note_on_c, 0, 47, 0
1, 146606, Note_on_c, 0, 52, 0
1, 146606, Note_on_c, 0, 56, 0
1, 146609, Note_on_c, 0, 55, 47
1, 146609, Note_on_c, 0, 51, 39
1, 146609, Note_on_c, 0, 46, 39
1, 146711, Note_on_c, 0, 46, 0
1, 146711, Note_on_c, 0, 51, 0
1, 146711, Note_on_c, 0, 55, 0
1, 146714, Note_on_c, 0, 50, 39
1, 146714, Note_on_c, 0, 45, 39
1, 146714, Note_on_c, 0, 54, 47
1, 146816, Note_on_c, 0, 54, 0
1, 146816, Note_on_c, 0, 45, 0
1, 146816, Note_on_c, 0, 50, 0
1, 146819, Note_on_c, 0, 44, 39
1, 146819, Note_on_c, 0, 53, 46
1, 146819, Note_on_c, 0, 49, 39
1, 146920, Note_on_c, 0, 49, 0
1, 146920, Note_on_c, 0, 53, 0
1, 146920, Note_on_c, 0, 44, 0
1, 146923, Note_on_c, 0, 48, 39
1, 146923, Note_on_c, 0, 43, 39
1, 146923, Note_on_c, 0, 52, 46
1, 147025, Note_on_c, 0, 52, 0
1, 147025, Note_on_c, 0, 43, 0
1, 147025, Note_on_c, 0, 48, 0
1, 147028, Note_on_c, 0, 51, 45
1, 147028, Note_on_c, 0, 42, 38
1, 147028, Note_on_c, 0, 47, 38
1, 147129, Note_on_c, 0, 47, 0
1, 147129, Note_on_c, 0, 42, 0
1, 147129, Note_on_c, 0, 51, 0
1, 147132, Note_on_c, 0, 41, 37
1, 147132, Note_on_c, 0, 50, 44
1, 147132, Note_on_c, 0, 46, 44
1, 147234, Note_on_c, 0, 46, 0
1, 147234, Note_on_c, 0, 50, 0
1, 147234, Note_on_c, 0, 41, 0
1, 147237, Note_on_c, 0, 45, 37
1, 147237, Note_on_c, 0, 40, 37
1, 147237, Note_on_c, 0, 49, 44
1, 147338, Note_on_c, 0, 49, 0
1, 147338, Note_on_c, 0, 40, 0
1, 147338, Note_on_c, 0, 45, 0
1, 147341, Note_on_c, 0, 48, 43
1, 147341, Note_on_c, 0, 39, 36
1, 147341, Note_on_c, 0, 44, 36
1, 147443, Note_on_c, 0, 44, 0
1, 147443, Note_on_c, 0, 39, 0
1, 147443, Note_on_c, 0, 48, 0
1, 147446, Note_on_c, 0, 38, 36
1, 147446, Note_on_c, 0, 47, 42
1, 147446, Note_on_c, 0, 43, 36
1, 147546, Note_on_c, 0, 43, 0
1, 147546, Note_on_c, 0, 47, 0
1, 147546, Note_on_c, 0, 38, 0
1, 147549, Note_on_c, 0, 46, 42
1, 147549, Note_on_c, 0, 37, 35
1, 147549, Note_on_c, 0, 42, 35
1, 147651, Note_on_c, 0, 42, 0
1, 147651, Note_on_c, 0, 37, 0
1, 147651, Note_on_c, 0, 46, 0
1, 147654, Note_on_c, 0, 36, 34
1, 147654, Note_on_c, 0, 45, 41
1, 147654, Note_on_c, 0, 41, 34
1, 147755, Note_on_c, 0, 41, 0
1, 147755, Note_on_c, 0, 45, 0
1, 147755, Note_on_c, 0, 36, 0
1, 147758, Note_on_c, 0, 35, 34
1, 147758, Note_on_c, 0, 40, 34
1, 147758, Note_on_c, 0, 44, 41
1, 147861, Note_on_c, 0, 44, 0
1, 147861, Note_on_c, 0, 40, 0
1, 147861, Note_on_c, 0, 35, 0
1, 147864, Note_on_c, 0, 43, 41
1, 147864, Note_on_c, 0, 39, 34
1, 147864, Note_on_c, 0, 34, 34
1, 147966, Note_on_c, 0, 34, 0
1, 147966, Note_on_c, 0, 39, 0
1, 147966, Note_on_c, 0, 43, 0
1, 147969, Note_on_c, 0, 42, 39
1, 147969, Note_on_c, 0, 33, 33
1, 147969, Note_on_c, 0, 38, 33
1, 148073, Note_on_c, 0, 38, 0
1, 148073, Note_on_c, 0, 33, 0
1, 148073, Note_on_c, 0, 42, 0
1, 148076, Note_on_c, 0, 37, 31
1, 148076, Note_on_c, 0, 41, 36
1, 148076, Note_on_c, 0, 32, 31
1, 148079, Control_c, 0, 64, 0
1, 148137, Control_c, 0, 64, 127
1, 148179, Note_on_c, 0, 32, 0
1, 148179, Note_on_c, 0, 41, 0
1, 148179, Note_on_c, 0, 37, 0
1, 148182, Note_on_c, 0, 33, 32
1, 148182, Note_on_c, 0, 42, 38
1, 148182, Note_on_c, 0, 38, 32
1, 148285, Note_on_c, 0, 38, 0
1, 148285, Note_on_c, 0, 42, 0
1, 148285, Note_on_c, 0, 33, 0
1, 148288, Note_on_c, 0, 39, 36
1, 148288, Note_on_c, 0, 43, 43
1, 148288, Note_on_c, 0, 34, 36
1, 148390, Note_on_c, 0, 34, 0
1, 148390, Note_on_c, 0, 43, 0
1, 148390, Note_on_c, 0, 39, 0
1, 148393, Note_on_c, 0, 40, 37
1, 148393, Note_on_c, 0, 35, 37
1, 148393, Note_on_c, 0, 44, 44
1, 148496, Note_on_c, 0, 44, 0
1, 148496, Note_on_c, 0, 35, 0
1, 148496, Note_on_c, 0, 40, 0
1, 148499, Note_on_c, 0, 39, 36
1, 148499, Note_on_c, 0, 43, 42
1, 148499, Note_on_c, 0, 34, 36
1, 148602, Note_on_c, 0, 34, 0
1, 148602, Note_on_c, 0, 43, 0
1, 148602, Note_on_c, 0, 39, 0
1, 148605, Note_on_c, 0, 38, 35
1, 148605, Note_on_c, 0, 33, 35
1, 148605, Note_on_c, 0, 42, 41
1, 148710, Note_on_c, 0, 42, 0
1, 148710, Note_on_c, 0, 33, 0
1, 148710, Note_on_c, 0, 38, 0
1, 148713, Note_on_c, 0, 32, 33
1, 148713, Note_on_c, 0, 37, 33
1, 148713, Note_on_c, 0, 41, 40
1, 148713, Control_c, 0, 64, 0
1, 148758, Control_c, 0, 64, 127
1, 148816, Note_on_c, 0, 41, 0
1, 148816, Note_on_c, 0, 37, 0
1, 148816, Note_on_c, 0, 32, 0
1, 148819, Note_on_c, 0, 42, 42
1, 148819, Note_on_c, 0, 38, 36
1, 148819, Note_on_c, 0, 33, 36
1, 148922, Note_on_c, 0, 33, 0
1, 148922, Note_on_c, 0, 38, 0
1, 148922, Note_on_c, 0, 42, 0
1, 148925, Note_on_c, 0, 39, 36
1, 148925, Note_on_c, 0, 43, 44
1, 148925, Note_on_c, 0, 34, 36
1, 149028, Note_on_c, 0, 34, 0
1, 149028, Note_on_c, 0, 43, 0
1, 149028, Note_on_c, 0, 39, 0
1, 149031, Note_on_c, 0, 44, 46
1, 149031, Note_on_c, 0, 35, 39
1, 149031, Note_on_c, 0, 40, 39
1, 149132, Note_on_c, 0, 40, 0
1, 149132, Note_on_c, 0, 35, 0
1, 149132, Note_on_c, 0, 44, 0
1, 149135, Note_on_c, 0, 34, 37
1, 149135, Note_on_c, 0, 43, 44
1, 149135, Note_on_c, 0, 39, 37
1, 149238, Note_on_c, 0, 39, 0
1, 149238, Note_on_c, 0, 43, 0
1, 149238, Note_on_c, 0, 34, 0
1, 149241, Note_on_c, 0, 33, 36
1, 149241, Note_on_c, 0, 38, 36
1, 149241, Note_on_c, 0, 42, 43
1, 149344, Note_on_c, 0, 42, 0
1, 149344, Note_on_c, 0, 38, 0
1, 149344, Note_on_c, 0, 33, 0
1, 149347, Note_on_c, 0, 41, 47
1, 149347, Note_on_c, 0, 37, 40
1, 149347, Note_on_c, 0, 32, 40
1, 149350, Control_c, 0, 64, 0
1, 149389, Control_c, 0, 64, 127
1, 149458, Note_on_c, 0, 32, 0
1, 149458, Note_on_c, 0, 37, 0
1, 149458, Note_on_c, 0, 41, 0
1, 149461, Note_on_c, 0, 38, 38
1, 149461, Note_on_c, 0, 33, 38
1, 149461, Note_on_c, 0, 42, 45
1, 149571, Note_on_c, 0, 42, 0
1, 149571, Note_on_c, 0, 33, 0
1, 149571, Note_on_c, 0, 38, 0
1, 149574, Note_on_c, 0, 39, 40
1, 149574, Note_on_c, 0, 34, 40
1, 149574, Note_on_c, 0, 43, 47
1, 149685, Note_on_c, 0, 43, 0
1, 149685, Note_on_c, 0, 34, 0
1, 149685, Note_on_c, 0, 39, 0
1, 149688, Note_on_c, 0, 40, 40
1, 149688, Note_on_c, 0, 44, 48
1, 149688, Note_on_c, 0, 35, 40
1, 149798, Note_on_c, 0, 35, 0
1, 149798, Note_on_c, 0, 44, 0
1, 149798, Note_on_c, 0, 40, 0
1, 149801, Note_on_c, 0, 34, 42
1, 149801, Note_on_c, 0, 39, 42
1, 149801, Note_on_c, 0, 43, 50
1, 149912, Note_on_c, 0, 43, 0
1, 149912, Note_on_c, 0, 39, 0
1, 149912, Note_on_c, 0, 34, 0
1, 149915, Note_on_c, 0, 33, 44
1, 149915, Note_on_c, 0, 38, 44
1, 149915, Note_on_c, 0, 42, 52
1, 150031, Note_on_c, 0, 42, 0
1, 150031, Note_on_c, 0, 38, 0
1, 150031, Note_on_c, 0, 33, 0
1, 150034, Note_on_c, 0, 37, 40
1, 150034, Note_on_c, 0, 32, 40
1, 150034, Note_on_c, 0, 41, 48
1, 150050, Control_c, 0, 64, 0
1, 150077, Control_c, 0, 64, 127
1, 150162, Note_on_c, 0, 41, 0
1, 150162, Note_on_c, 0, 32, 0
1, 150162, Note_on_c, 0, 37, 0
1, 150165, Note_on_c, 0, 42, 48
1, 150165, Note_on_c, 0, 38, 40
1, 150165, Note_on_c, 0, 33, 40
1, 150295, Note_on_c, 0, 33, 0
1, 150295, Note_on_c, 0, 38, 0
1, 150295, Note_on_c, 0, 42, 0
1, 150298, Note_on_c, 0, 34, 39
1, 150298, Note_on_c, 0, 43, 46
1, 150298, Note_on_c, 0, 39, 39
1, 150431, Note_on_c, 0, 39, 0
1, 150431, Note_on_c, 0, 43, 0
1, 150431, Note_on_c, 0, 34, 0
1, 150434, Note_on_c, 0, 40, 48
1, 150434, Note_on_c, 0, 35, 40
1, 150434, Note_on_c, 0, 44, 48
1, 150571, Note_on_c, 0, 40, 0
1, 150571, Note_on_c, 0, 41, 47
1, 150571, Note_on_c, 0, 25, 39
1, 150714, Note_on_c, 0, 41, 0
1, 150714, Note_on_c, 0, 35, 0
1, 150714, Note_on_c, 0, 44, 0
1, 150717, Note_on_c, 0, 43, 47
1, 150861, Note_on_c, 0, 25, 0
1, 150861, Note_on_c, 0, 36, 48
1, 150861, Note_on_c, 0, 24, 48
1, 150864, Note_on_c, 0, 40, 48
1, 150913, Control_c, 0, 64, 0
1, 151304, Note_on_c, 0, 60, 48
1, 151304, Note_on_c, 0, 40, 0
1, 151304, Note_on_c, 0, 43, 0
1, 151307, Note_on_c, 0, 36, 0
1, 151307, Note_on_c, 0, 24, 0
1, 151307, Note_on_c, 0, 48, 38
1, 151340, Control_c, 0, 64, 127
1, 151417, Note_on_c, 0, 55, 32
1, 151417, Note_on_c, 0, 52, 27
1, 151514, Note_on_c, 0, 48, 0
1, 151528, Note_on_c, 0, 52, 0
1, 151528, Note_on_c, 0, 55, 0
1, 151528, Note_on_c, 0, 36, 27
1, 151531, Note_on_c, 0, 48, 32
1, 151638, Note_on_c, 0, 60, 0
1, 151638, Note_on_c, 0, 61, 49
1, 151638, Note_on_c, 0, 48, 0
1, 151641, Note_on_c, 0, 36, 0
1, 151641, Note_on_c, 0, 49, 40
1, 151645, Control_c, 0, 64, 0
1, 151688, Control_c, 0, 64, 127
1, 151747, Note_on_c, 0, 53, 29
1, 151747, Note_on_c, 0, 56, 35
1, 151855, Note_on_c, 0, 56, 0
1, 151855, Note_on_c, 0, 53, 0
1, 151855, Note_on_c, 0, 35, 29
1, 151858, Note_on_c, 0, 47, 35
1, 151962, Note_on_c, 0, 61, 0
1, 151962, Note_on_c, 0, 62, 52
1, 151962, Note_on_c, 0, 47, 0
1, 151965, Note_on_c, 0, 35, 0
1, 151965, Note_on_c, 0, 49, 0
1, 151965, Note_on_c, 0, 50, 41
1, 151972, Control_c, 0, 64, 0
1, 152005, Control_c, 0, 64, 127
1, 152068, Note_on_c, 0, 56, 34
1, 152068, Note_on_c, 0, 53, 29
1, 152174, Note_on_c, 0, 53, 0
1, 152174, Note_on_c, 0, 56, 0
1, 152174, Note_on_c, 0, 46, 34
1, 152177, Note_on_c, 0, 34, 29
1, 152279, Note_on_c, 0, 62, 0
1, 152279, Note_on_c, 0, 63, 53
1, 152279, Note_on_c, 0, 34, 0
1, 152282, Note_on_c, 0, 46, 0
1, 152282, Note_on_c, 0, 50, 0
1, 152282, Note_on_c, 0, 51, 45
1, 152282, Control_c, 0, 64, 0
1, 152332, Control_c, 0, 64, 127
1, 152379, Note_on_c, 0, 58, 38
1, 152379, Note_on_c, 0, 55, 32
1, 152480, Note_on_c, 0, 55, 0
1, 152480, Note_on_c, 0, 58, 0
1, 152480, Note_on_c, 0, 39, 39
1, 152483, Note_on_c, 0, 27, 32
1, 152581, Note_on_c, 0, 63, 0
1, 152581, Note_on_c, 0, 64, 57
1, 152581, Note_on_c, 0, 27, 0
1, 152584, Note_on_c, 0, 39, 0
1, 152584, Note_on_c, 0, 51, 0
1, 152584, Note_on_c, 0, 52, 46
1, 152587, Control_c, 0, 64, 0
1, 152631, Control_c, 0, 64, 127
1, 152682, Note_on_c, 0, 59, 39
1, 152682, Note_on_c, 0, 56, 32
1, 152782, Note_on_c, 0, 56, 0
1, 152782, Note_on_c, 0, 59, 0
1, 152782, Note_on_c, 0, 38, 32
1, 152785, Note_on_c, 0, 50, 39
1, 152882, Note_on_c, 0, 64, 0
1, 152882, Note_on_c, 0, 65, 58
1, 152882, Note_on_c, 0, 50, 0
1, 152885, Note_on_c, 0, 38, 0
1, 152885, Note_on_c, 0, 52, 0
1, 152885, Note_on_c, 0, 53, 46
1, 152890, Control_c, 0, 64, 0
1, 152954, Control_c, 0, 64, 127
1, 152982, Note_on_c, 0, 59, 41
1, 152982, Note_on_c, 0, 56, 34
1, 153082, Note_on_c, 0, 56, 0
1, 153082, Note_on_c, 0, 59, 0
1, 153082, Note_on_c, 0, 49, 43
1, 153085, Note_on_c, 0, 37, 36
1, 153182, Note_on_c, 0, 65, 0
1, 153182, Note_on_c, 0, 66, 61
1, 153182, Note_on_c, 0, 37, 0
1, 153185, Note_on_c, 0, 49, 0
1, 153185, Note_on_c, 0, 53, 0
1, 153185, Note_on_c, 0, 54, 49
1, 153190, Control_c, 0, 64, 0
1, 153253, Control_c, 0, 64, 127
1, 153282, Note_on_c, 0, 61, 43
1, 153282, Note_on_c, 0, 58, 36
1, 153381, Note_on_c, 0, 58, 0
1, 153381, Note_on_c, 0, 61, 0
1, 153381, Note_on_c, 0, 30, 36
1, 153384, Note_on_c, 0, 42, 44
1, 153481, Note_on_c, 0, 66, 0
1, 153481, Note_on_c, 0, 67, 65
1, 153481, Note_on_c, 0, 42, 0
1, 153484, Note_on_c, 0, 30, 0
1, 153484, Note_on_c, 0, 54, 0
1, 153484, Note_on_c, 0, 55, 52
1, 153487, Control_c, 0, 64, 0
1, 153516, Control_c, 0, 64, 127
1, 153580, Note_on_c, 0, 62, 46
1, 153580, Note_on_c, 0, 59, 39
1, 153679, Note_on_c, 0, 59, 0
1, 153679, Note_on_c, 0, 62, 0
1, 153679, Note_on_c, 0, 29, 39
1, 153682, Note_on_c, 0, 41, 46
1, 153778, Note_on_c, 0, 67, 0
1, 153778, Note_on_c, 0, 68, 66
1, 153778, Note_on_c, 0, 41, 0
1, 153781, Note_on_c, 0, 29, 0
1, 153781, Note_on_c, 0, 55, 0
1, 153781, Note_on_c, 0, 56, 53
1, 153781, Control_c, 0, 64, 0
1, 153822, Control_c, 0, 64, 127
1, 153878, Note_on_c, 0, 59, 38
1, 153878, Note_on_c, 0, 62, 46
1, 153977, Note_on_c, 0, 62, 0
1, 153977, Note_on_c, 0, 59, 0
1, 153977, Note_on_c, 0, 28, 39
1, 153980, Note_on_c, 0, 40, 46
1, 154076, Note_on_c, 0, 68, 0
1, 154076, Note_on_c, 0, 69, 69
1, 154076, Note_on_c, 0, 40, 0
1, 154079, Note_on_c, 0, 28, 0
1, 154079, Note_on_c, 0, 56, 0
1, 154079, Note_on_c, 0, 57, 55
1, 154083, Control_c, 0, 64, 0
1, 154132, Control_c, 0, 64, 127
1, 154174, Note_on_c, 0, 61, 39
1, 154174, Note_on_c, 0, 64, 47
1, 154273, Note_on_c, 0, 64, 0
1, 154273, Note_on_c, 0, 61, 0
1, 154273, Note_on_c, 0, 33, 40
1, 154276, Note_on_c, 0, 45, 48
1, 154372, Note_on_c, 0, 69, 0
1, 154372, Note_on_c, 0, 70, 71
1, 154372, Note_on_c, 0, 45, 0
1, 154375, Note_on_c, 0, 33, 0
1, 154375, Note_on_c, 0, 57, 0
1, 154375, Note_on_c, 0, 58, 56
1, 154384, Control_c, 0, 64, 0
1, 154425, Control_c, 0, 64, 127
1, 154470, Note_on_c, 0, 65, 51
1, 154470, Note_on_c, 0, 62, 43
1, 154569, Note_on_c, 0, 62, 0
1, 154569, Note_on_c, 0, 65, 0
1, 154569, Note_on_c, 0, 33, 44
1, 154572, Note_on_c, 0, 45, 52
1, 154667, Note_on_c, 0, 70, 0
1, 154667, Note_on_c, 0, 71, 75
1, 154667, Note_on_c, 0, 45, 0
1, 154670, Note_on_c, 0, 33, 0
1, 154670, Note_on_c, 0, 58, 0
1, 154670, Note_on_c, 0, 59, 59
1, 154670, Control_c, 0, 64, 0
1, 154717, Control_c, 0, 64, 127
1, 154766, Note_on_c, 0, 63, 44
1, 154766, Note_on_c, 0, 66, 53
1, 154865, Note_on_c, 0, 66, 0
1, 154865, Note_on_c, 0, 63, 0
1, 154865, Note_on_c, 0, 45, 53
1, 154868, Note_on_c, 0, 33, 45
1, 154965, Note_on_c, 0, 71, 0
1, 154965, Note_on_c, 0, 72, 78
1, 154965, Note_on_c, 0, 33, 0
1, 154968, Note_on_c, 0, 45, 0
1, 154968, Note_on_c, 0, 59, 0
1, 154968, Note_on_c, 0, 60, 61
1, 154972, Control_c, 0, 64, 0
1, 155002, Control_c, 0, 64, 127
1, 155066, Note_on_c, 0, 67, 54
1, 155066, Note_on_c, 0, 64, 46
1, 155167, Note_on_c, 0, 64, 0
1, 155167, Note_on_c, 0, 67, 0
1, 155167, Note_on_c, 0, 45, 55
1, 155170, Note_on_c, 0, 33, 46
1, 155269, Note_on_c, 0, 72, 0
1, 155269, Note_on_c, 0, 61, 70
1, 155269, Note_on_c, 0, 73, 80
1, 155272, Note_on_c, 0, 33, 0
1, 155272, Note_on_c, 0, 45, 0
1, 155272, Note_on_c, 0, 60, 0
1, 155275, Note_on_c, 0, 45, 54
1, 155275, Note_on_c, 0, 55, 64
1, 155275, Note_on_c, 0, 52, 54
1, 155278, Control_c, 0, 64, 0
1, 155433, Note_on_c, 0, 73, 0
1, 155433, Note_on_c, 0, 61, 0
1, 155433, Note_on_c, 0, 52, 0
1, 155436, Note_on_c, 0, 55, 0
1, 155436, Note_on_c, 0, 45, 0
1, 155596, Note_on_c, 0, 58, 68
1, 155596, Note_on_c, 0, 70, 75
1, 155596, Note_on_c, 0, 82, 90
1, 155596, Control_c, 0, 64, 127
1, 155596, Note_on_c, 0, 46, 57
1, 156092, Note_on_c, 0, 69, 55
1, 156092, Note_on_c, 0, 81, 66
1, 156092, Note_on_c, 0, 57, 50
1, 156092, Note_on_c, 0, 45, 40
1, 156184, Note_on_c, 0, 43, 40
1, 156184, Note_on_c, 0, 55, 48
1, 156184, Note_on_c, 0, 58, 0
1, 156184, Note_on_c, 0, 81, 0
1, 156184, Note_on_c, 0, 70, 0
1, 156184, Note_on_c, 0, 82, 0
1, 156184, Note_on_c, 0, 69, 0
1, 156184, Note_on_c, 0, 67, 53
1, 156184, Note_on_c, 0, 79, 63
1, 156184, Note_on_c, 0, 57, 0
1, 156187, Note_on_c, 0, 46, 0
1, 156187, Note_on_c, 0, 45, 0
1, 156187, Control_c, 0, 64, 0
1, 156206, Control_c, 0, 64, 127
1, 156277, Note_on_c, 0, 55, 0
1, 156277, Note_on_c, 0, 43, 0
1, 156277, Note_on_c, 0, 41, 40
1, 156277, Note_on_c, 0, 65, 53
1, 156277, Note_on_c, 0, 79, 0
1, 156277, Note_on_c, 0, 67, 0
1, 156277, Note_on_c, 0, 77, 63
1, 156282, Note_on_c, 0, 53, 48
1, 156369, Note_on_c, 0, 40, 44
1, 156369, Note_on_c, 0, 41, 0
1, 156369, Note_on_c, 0, 65, 0
1, 156372, Note_on_c, 0, 77, 0
1, 156372, Note_on_c, 0, 76, 70
1, 156372, Note_on_c, 0, 64, 59
1, 156372, Note_on_c, 0, 52, 52
1, 156375, Note_on_c, 0, 53, 0
1, 156462, Note_on_c, 0, 40, 0
1, 156462, Note_on_c, 0, 62, 55
1, 156462, Note_on_c, 0, 38, 40
1, 156462, Note_on_c, 0, 64, 0
1, 156462, Note_on_c, 0, 76, 0
1, 156462, Note_on_c, 0, 74, 65
1, 156462, Note_on_c, 0, 50, 50
1, 156467, Note_on_c, 0, 52, 0
1, 156554, Note_on_c, 0, 62, 0
1, 156554, Note_on_c, 0, 37, 46
1, 156554, Note_on_c, 0, 38, 0
1, 156554, Note_on_c, 0, 74, 0
1, 156554, Note_on_c, 0, 73, 73
1, 156554, Note_on_c, 0, 61, 62
1, 156554, Note_on_c, 0, 50, 0
1, 156558, Note_on_c, 0, 49, 55
1, 156563, Control_c, 0, 64, 0
1, 156600, Control_c, 0, 64, 127
1, 156646, Note_on_c, 0, 37, 0
1, 156646, Note_on_c, 0, 61, 0
1, 156646, Note_on_c, 0, 73, 0
1, 156646, Note_on_c, 0, 76, 65
1, 156646, Note_on_c, 0, 64, 55
1, 156650, Note_on_c, 0, 49, 0
1, 156650, Note_on_c, 0, 40, 40
1, 156650, Note_on_c, 0, 52, 50
1, 156737, Note_on_c, 0, 48, 52
1, 156737, Note_on_c, 0, 36, 44
1, 156737, Note_on_c, 0, 64, 0
1, 156737, Note_on_c, 0, 76, 0
1, 156737, Note_on_c, 0, 72, 72
1, 156737, Note_on_c, 0, 60, 60
1, 156741, Note_on_c, 0, 52, 0
1, 156741, Note_on_c, 0, 40, 0
1, 156746, Control_c, 0, 64, 0
1, 156777, Control_c, 0, 64, 127
1, 156828, Note_on_c, 0, 48, 0
1, 156828, Note_on_c, 0, 36, 0
1, 156828, Note_on_c, 0, 60, 0
1, 156828, Note_on_c, 0, 72, 0
1, 156828, Note_on_c, 0, 76, 65
1, 156828, Note_on_c, 0, 64, 55
1, 156828, Note_on_c, 0, 52, 50
1, 156831, Note_on_c, 0, 40, 40
1, 156924, Note_on_c, 0, 47, 52
1, 156924, Note_on_c, 0, 64, 0
1, 156924, Note_on_c, 0, 76, 0
1, 156924, Note_on_c, 0, 59, 60
1, 156924, Note_on_c, 0, 71, 72
1, 156924, Note_on_c, 0, 52, 0
1, 156924, Note_on_c, 0, 35, 44
1, 156924, Note_on_c, 0, 40, 0
1, 156929, Control_c, 0, 64, 0
1, 156979, Control_c, 0, 64, 127
1, 157024, Note_on_c, 0, 47, 0
1, 157024, Note_on_c, 0, 52, 50
1, 157024, Note_on_c, 0, 71, 0
1, 157024, Note_on_c, 0, 59, 0
1, 157024, Note_on_c, 0, 76, 65
1, 157024, Note_on_c, 0, 64, 55
1, 157024, Note_on_c, 0, 35, 0
1, 157024, Note_on_c, 0, 40, 40
1, 157117, Note_on_c, 0, 52, 0
1, 157117, Note_on_c, 0, 34, 44
1, 157117, Note_on_c, 0, 64, 0
1, 157117, Note_on_c, 0, 76, 0
1, 157117, Note_on_c, 0, 58, 60
1, 157117, Note_on_c, 0, 70, 72
1, 157117, Note_on_c, 0, 40, 0
1, 157121, Note_on_c, 0, 46, 52
1, 157121, Control_c, 0, 64, 0
1, 157178, Control_c, 0, 64, 127
1, 157210, Note_on_c, 0, 34, 0
1, 157210, Note_on_c, 0, 70, 0
1, 157210, Note_on_c, 0, 58, 0
1, 157210, Note_on_c, 0, 76, 66
1, 157210, Note_on_c, 0, 64, 55
1, 157213, Note_on_c, 0, 40, 40
1, 157213, Note_on_c, 0, 46, 0
1, 157213, Note_on_c, 0, 52, 50
1, 157309, Note_on_c, 0, 45, 52
1, 157309, Note_on_c, 0, 64, 0
1, 157309, Note_on_c, 0, 76, 0
1, 157309, Note_on_c, 0, 57, 60
1, 157309, Note_on_c, 0, 69, 72
1, 157309, Note_on_c, 0, 33, 44
1, 157313, Note_on_c, 0, 40, 0
1, 157313, Note_on_c, 0, 52, 0
1, 157313, Control_c, 0, 64, 0
1, 157463, Note_on_c, 0, 45, 0
1, 157463, Note_on_c, 0, 69, 0
1, 157463, Note_on_c, 0, 57, 0
1, 157466, Note_on_c, 0, 33, 0
1, 157619, Note_on_c, 0, 73, 75
1, 157619, Note_on_c, 0, 85, 90
1, 157619, Control_c, 0, 64, 127
1, 157619, Note_on_c, 0, 49, 57
1, 157622, Note_on_c, 0, 61, 68
1, 157805, Note_on_c, 0, 46, 40
1, 157805, Note_on_c, 0, 85, 0
1, 157805, Note_on_c, 0, 73, 0
1, 157805, Note_on_c, 0, 82, 66
1, 157805, Note_on_c, 0, 70, 55
1, 157808, Note_on_c, 0, 49, 0
1, 157808, Note_on_c, 0, 58, 50
1, 157808, Note_on_c, 0, 61, 0
1, 157897, Note_on_c, 0, 57, 48
1, 157897, Note_on_c, 0, 46, 0
1, 157900, Note_on_c, 0, 70, 0
1, 157900, Note_on_c, 0, 82, 0
1, 157900, Note_on_c, 0, 81, 63
1, 157903, Note_on_c, 0, 69, 53
1, 157903, Note_on_c, 0, 45, 40
1, 157903, Note_on_c, 0, 58, 0
1, 157906, Control_c, 0, 64, 0
1, 157920, Control_c, 0, 64, 127
1, 157990, Note_on_c, 0, 57, 0
1, 157990, Note_on_c, 0, 55, 48
1, 157993, Note_on_c, 0, 69, 0
1, 157993, Note_on_c, 0, 81, 0
1, 157993, Note_on_c, 0, 79, 63
1, 157996, Note_on_c, 0, 67, 53
1, 157996, Note_on_c, 0, 45, 0
1, 157996, Note_on_c, 0, 43, 40
1, 158082, Note_on_c, 0, 55, 0
1, 158085, Note_on_c, 0, 41, 44
1, 158085, Note_on_c, 0, 67, 0
1, 158085, Note_on_c, 0, 79, 0
1, 158088, Note_on_c, 0, 65, 59
1, 158088, Note_on_c, 0, 77, 70
1, 158088, Note_on_c, 0, 53, 52
1, 158091, Note_on_c, 0, 43, 0
1, 158176, Note_on_c, 0, 41, 0
1, 158176, Note_on_c, 0, 77, 0
1, 158176, Note_on_c, 0, 65, 0
1, 158176, Note_on_c, 0, 76, 72
1, 158176, Note_on_c, 0, 64, 60
1, 158179, Note_on_c, 0, 53, 0
1, 158179, Note_on_c, 0, 40, 46
1, 158179, Note_on_c, 0, 52, 55
1, 158182, Control_c, 0, 64, 0
1, 158206, Control_c, 0, 64, 127
1, 158267, Note_on_c, 0, 43, 38
1, 158267, Note_on_c, 0, 55, 46
1, 158267, Note_on_c, 0, 64, 0
1, 158267, Note_on_c, 0, 76, 0
1, 158267, Note_on_c, 0, 79, 65
1, 158267, Note_on_c, 0, 67, 55
1, 158270, Note_on_c, 0, 52, 0
1, 158270, Note_on_c, 0, 40, 0
1, 158357, Note_on_c, 0, 39, 48
1, 158357, Note_on_c, 0, 43, 0
1, 158357, Note_on_c, 0, 55, 0
1, 158360, Note_on_c, 0, 67, 0
1, 158360, Note_on_c, 0, 79, 0
1, 158360, Note_on_c, 0, 63, 60
1, 158363, Note_on_c, 0, 75, 72
1, 158363, Note_on_c, 0, 51, 57
1, 158366, Control_c, 0, 64, 0
1, 158403, Control_c, 0, 64, 127
1, 158447, Note_on_c, 0, 55, 52
1, 158447, Note_on_c, 0, 39, 0
1, 158450, Note_on_c, 0, 43, 36
1, 158450, Note_on_c, 0, 75, 0
1, 158450, Note_on_c, 0, 63, 0
1, 158453, Note_on_c, 0, 67, 52
1, 158453, Note_on_c, 0, 79, 62
1, 158453, Note_on_c, 0, 51, 0
1, 158537, Note_on_c, 0, 55, 0
1, 158537, Note_on_c, 0, 50, 58
1, 158537, Note_on_c, 0, 43, 0
1, 158540, Note_on_c, 0, 79, 0
1, 158540, Note_on_c, 0, 67, 0
1, 158540, Note_on_c, 0, 74, 73
1, 158543, Note_on_c, 0, 62, 62
1, 158543, Note_on_c, 0, 38, 50
1, 158547, Control_c, 0, 64, 0
1, 158577, Control_c, 0, 64, 127
1, 158628, Note_on_c, 0, 50, 0
1, 158628, Note_on_c, 0, 43, 38
1, 158631, Note_on_c, 0, 55, 48
1, 158631, Note_on_c, 0, 62, 0
1, 158631, Note_on_c, 0, 74, 0
1, 158634, Note_on_c, 0, 67, 52
1, 158634, Note_on_c, 0, 79, 62
1, 158634, Note_on_c, 0, 38, 0
1, 158722, Note_on_c, 0, 43, 0
1, 158722, Note_on_c, 0, 55, 0
1, 158722, Note_on_c, 0, 79, 0
1, 158722, Note_on_c, 0, 67, 0
1, 158722, Note_on_c, 0, 61, 60
1, 158722, Note_on_c, 0, 73, 72
1, 158725, Note_on_c, 0, 37, 50
1, 158725, Note_on_c, 0, 49, 58
1, 158725, Control_c, 0, 64, 0
1, 158771, Control_c, 0, 64, 127
1, 158813, Note_on_c, 0, 73, 0
1, 158813, Note_on_c, 0, 61, 0
1, 158813, Note_on_c, 0, 67, 53
1, 158816, Note_on_c, 0, 79, 63
1, 158816, Note_on_c, 0, 55, 48
1, 158816, Note_on_c, 0, 37, 0
1, 158819, Note_on_c, 0, 43, 38
1, 158819, Note_on_c, 0, 49, 0
1, 158903, Note_on_c, 0, 34, 50
1, 158906, Note_on_c, 0, 79, 0
1, 158906, Note_on_c, 0, 67, 0
1, 158906, Note_on_c, 0, 70, 64
1, 158909, Note_on_c, 0, 58, 48
1, 158909, Note_on_c, 0, 55, 0
1, 158909, Note_on_c, 0, 43, 0
1, 158912, Note_on_c, 0, 46, 58
1, 158912, Control_c, 0, 64, 0
1, 158948, Control_c, 0, 64, 127
1, 159009, Note_on_c, 0, 34, 0
1, 159012, Note_on_c, 0, 58, 0
1, 159012, Note_on_c, 0, 70, 0
1, 159012, Note_on_c, 0, 79, 73
1, 159015, Note_on_c, 0, 67, 58
1, 159015, Note_on_c, 0, 43, 36
1, 159015, Note_on_c, 0, 55, 45
1, 159015, Note_on_c, 0, 46, 0
1, 159041, Control_c, 0, 64, 0
1, 159090, Note_on_c, 0, 67, 0
1, 159090, Note_on_c, 0, 79, 0
1, 159090, Note_on_c, 0, 43, 0
1, 159090, Note_on_c, 0, 55, 0
1, 159167, Note_on_c, 0, 57, 63
1, 159167, Note_on_c, 0, 69, 75
1, 159167, Note_on_c, 0, 45, 55
1, 159167, Note_on_c, 0, 33, 46
1, 159182, Control_c, 0, 64, 127
1, 159244, Note_on_c, 0, 69, 0
1, 159244, Note_on_c, 0, 57, 0
1, 159244, Note_on_c, 0, 45, 0
1, 159244, Note_on_c, 0, 33, 0
1, 159284, Control_c, 0, 64, 0
1, 159317, Note_on_c, 0, 52, 57
1, 159320, Note_on_c, 0, 76, 75
1, 159320, Note_on_c, 0, 88, 90
1, 159320, Note_on_c, 0, 64, 68
1, 159352, Control_c, 0, 64, 127
1, 159509, Note_on_c, 0, 50, 40
1, 159509, Note_on_c, 0, 52, 0
1, 159512, Note_on_c, 0, 88, 0
1, 159512, Note_on_c, 0, 76, 0
1, 159512, Note_on_c, 0, 74, 55
1, 159515, Note_on_c, 0, 86, 66
1, 159515, Note_on_c, 0, 62, 50
1, 159515, Note_on_c, 0, 64, 0
1, 159611, Note_on_c, 0, 50, 0
1, 159614, Note_on_c, 0, 86, 0
1, 159614, Note_on_c, 0, 74, 0
1, 159614, Note_on_c, 0, 85, 63
1, 159617, Note_on_c, 0, 73, 53
1, 159617, Note_on_c, 0, 49, 40
1, 159617, Note_on_c, 0, 62, 0
1, 159620, Control_c, 0, 64, 0
1, 159620, Note_on_c, 0, 61, 48
1, 159635, Control_c, 0, 64, 127
1, 159709, Note_on_c, 0, 46, 40
1, 159709, Note_on_c, 0, 58, 48
1, 159709, Note_on_c, 0, 73, 0
1, 159709, Note_on_c, 0, 85, 0
1, 159709, Note_on_c, 0, 82, 63
1, 159709, Note_on_c, 0, 70, 53
1, 159713, Note_on_c, 0, 49, 0
1, 159713, Note_on_c, 0, 61, 0
1, 159806, Note_on_c, 0, 46, 0
1, 159806, Note_on_c, 0, 58, 0
1, 159806, Note_on_c, 0, 70, 0
1, 159806, Note_on_c, 0, 82, 0
1, 159806, Note_on_c, 0, 81, 70
1, 159806, Note_on_c, 0, 69, 59
1, 159806, Note_on_c, 0, 45, 44
1, 159811, Note_on_c, 0, 57, 52
1, 159903, Note_on_c, 0, 55, 49
1, 159903, Note_on_c, 0, 67, 58
1, 159906, Note_on_c, 0, 69, 0
1, 159906, Note_on_c, 0, 81, 0
1, 159906, Note_on_c, 0, 79, 64
1, 159909, Note_on_c, 0, 91, 77
1, 159909, Note_on_c, 0, 45, 0
1, 159909, Note_on_c, 0, 57, 0
1, 159912, Control_c, 0, 64, 0
1, 159935, Control_c, 0, 64, 127
1, 160000, Note_on_c, 0, 55, 0
1, 160000, Note_on_c, 0, 67, 0
1, 160000, Note_on_c, 0, 65, 53
1, 160003, Note_on_c, 0, 91, 0
1, 160003, Note_on_c, 0, 79, 0
1, 160003, Note_on_c, 0, 89, 72
1, 160006, Note_on_c, 0, 77, 61
1, 160006, Note_on_c, 0, 53, 46
1, 160097, Note_on_c, 0, 64, 53
1, 160097, Note_on_c, 0, 65, 0
1, 160097, Note_on_c, 0, 52, 45
1, 160100, Note_on_c, 0, 77, 0
1, 160100, Note_on_c, 0, 89, 0
1, 160100, Note_on_c, 0, 88, 71
1, 160103, Note_on_c, 0, 76, 60
1, 160103, Note_on_c, 0, 53, 0
1, 160199, Note_on_c, 0, 64, 0
1, 160199, Note_on_c, 0, 50, 44
1, 160202, Note_on_c, 0, 62, 51
1, 160202, Note_on_c, 0, 52, 0
1, 160202, Note_on_c, 0, 76, 0
1, 160202, Note_on_c, 0, 88, 0
1, 160202, Note_on_c, 0, 86, 68
1, 160202, Note_on_c, 0, 74, 57
1, 160297, Note_on_c, 0, 61, 51
1, 160297, Note_on_c, 0, 50, 0
1, 160297, Note_on_c, 0, 62, 0
1, 160297, Note_on_c, 0, 49, 44
1, 160297, Note_on_c, 0, 74, 0
1, 160297, Note_on_c, 0, 86, 0
1, 160297, Note_on_c, 0, 73, 57
1, 160297, Note_on_c, 0, 85, 68
1, 160393, Note_on_c, 0, 61, 0
1, 160393, Note_on_c, 0, 70, 57
1, 160393, Note_on_c, 0, 49, 0
1, 160396, Note_on_c, 0, 85, 0
1, 160396, Note_on_c, 0, 73, 0
1, 160396, Note_on_c, 0, 94, 75
1, 160399, Note_on_c, 0, 82, 63
1, 160399, Control_c, 0, 64, 0
1, 160399, Note_on_c, 0, 58, 48
1, 160439, Control_c, 0, 64, 127
1, 160491, Note_on_c, 0, 70, 0
1, 160491, Note_on_c, 0, 82, 0
1, 160491, Note_on_c, 0, 94, 0
1, 160491, Note_on_c, 0, 93, 77
1, 160491, Note_on_c, 0, 81, 64
1, 160491, Note_on_c, 0, 69, 58
1, 160494, Note_on_c, 0, 57, 49
1, 160494, Note_on_c, 0, 58, 0
1, 160587, Note_on_c, 0, 67, 57
1, 160587, Note_on_c, 0, 81, 0
1, 160587, Note_on_c, 0, 93, 0
1, 160587, Note_on_c, 0, 91, 75
1, 160587, Note_on_c, 0, 79, 63
1, 160590, Note_on_c, 0, 69, 0
1, 160590, Note_on_c, 0, 57, 0
1, 160590, Note_on_c, 0, 55, 48
1, 160687, Note_on_c, 0, 67, 0
1, 160687, Note_on_c, 0, 65, 55
1, 160690, Note_on_c, 0, 79, 0
1, 160690, Note_on_c, 0, 91, 0
1, 160690, Note_on_c, 0, 77, 62
1, 160693, Note_on_c, 0, 89, 73
1, 160693, Note_on_c, 0, 53, 47
1, 160693, Note_on_c, 0, 55, 0
1, 160785, Note_on_c, 0, 65, 0
1, 160785, Note_on_c, 0, 89, 0
1, 160785, Note_on_c, 0, 77, 0
1, 160785, Note_on_c, 0, 88, 72
1, 160785, Note_on_c, 0, 76, 61
1, 160785, Note_on_c, 0, 64, 53
1, 160785, Note_on_c, 0, 52, 46
1, 160785, Note_on_c, 0, 53, 0
1, 160883, Note_on_c, 0, 76, 0
1, 160883, Note_on_c, 0, 88, 0
1, 160883, Note_on_c, 0, 100, 84
1, 160886, Note_on_c, 0, 88, 71
1, 160886, Note_on_c, 0, 52, 0
1, 160886, Note_on_c, 0, 64, 0
1, 160889, Note_on_c, 0, 64, 53
1, 160889, Note_on_c, 0, 76, 64
1, 160889, Control_c, 0, 64, 0
1, 160917, Control_c, 0, 64, 127
1, 160978, Note_on_c, 0, 74, 62
1, 160978, Note_on_c, 0, 88, 0
1, 160978, Note_on_c, 0, 100, 0
1, 160978, Note_on_c, 0, 86, 69
1, 160978, Note_on_c, 0, 98, 82
1, 160978, Note_on_c, 0, 76, 0
1, 160978, Note_on_c, 0, 64, 0
1, 160981, Note_on_c, 0, 62, 51
1, 161073, Note_on_c, 0, 73, 59
1, 161073, Note_on_c, 0, 74, 0
1, 161073, Note_on_c, 0, 98, 0
1, 161073, Note_on_c, 0, 86, 0
1, 161073, Note_on_c, 0, 97, 78
1, 161073, Note_on_c, 0, 85, 65
1, 161073, Note_on_c, 0, 61, 50
1, 161077, Note_on_c, 0, 62, 0
1, 161169, Note_on_c, 0, 73, 0
1, 161169, Note_on_c, 0, 85, 0
1, 161169, Note_on_c, 0, 97, 0
1, 161169, Note_on_c, 0, 82, 67
1, 161169, Note_on_c, 0, 94, 79
1, 161169, Note_on_c, 0, 61, 0
1, 161174, Note_on_c, 0, 70, 60
1, 161174, Note_on_c, 0, 58, 51
1, 161264, Note_on_c, 0, 69, 59
1, 161267, Note_on_c, 0, 94, 0
1, 161267, Note_on_c, 0, 82, 0
1, 161267, Note_on_c, 0, 93, 78
1, 161270, Note_on_c, 0, 81, 66
1, 161270, Note_on_c, 0, 70, 0
1, 161270, Note_on_c, 0, 58, 0
1, 161273, Note_on_c, 0, 57, 50
1, 161359, Note_on_c, 0, 69, 0
1, 161362, Note_on_c, 0, 70, 53
1, 161362, Note_on_c, 0, 81, 0
1, 161362, Note_on_c, 0, 93, 0
1, 161365, Note_on_c, 0, 82, 61
1, 161365, Note_on_c, 0, 94, 72
1, 161365, Note_on_c, 0, 58, 46
1, 161368, Note_on_c, 0, 57, 0
1, 161456, Note_on_c, 0, 70, 0
1, 161456, Note_on_c, 0, 94, 0
1, 161456, Note_on_c, 0, 82, 0
1, 161456, Note_on_c, 0, 79, 63
1, 161456, Note_on_c, 0, 91, 76
1, 161456, Note_on_c, 0, 55, 48
1, 161456, Note_on_c, 0, 67, 57
1, 161459, Note_on_c, 0, 58, 0
1, 161463, Control_c, 0, 64, 0
1, 161507, Control_c, 0, 64, 127
1, 161551, Note_on_c, 0, 70, 52
1, 161551, Note_on_c, 0, 91, 0
1, 161551, Note_on_c, 0, 79, 0
1, 161551, Note_on_c, 0, 94, 70
1, 161551, Note_on_c, 0, 82, 59
1, 161551, Note_on_c, 0, 55, 0
1, 161551, Note_on_c, 0, 58, 45
1, 161551, Note_on_c, 0, 67, 0
1, 161643, Note_on_c, 0, 53, 48
1, 161643, Note_on_c, 0, 70, 0
1, 161646, Note_on_c, 0, 82, 0
1, 161646, Note_on_c, 0, 94, 0
1, 161646, Note_on_c, 0, 77, 63
1, 161649, Note_on_c, 0, 89, 76
1, 161649, Note_on_c, 0, 58, 0
1, 161649, Control_c, 0, 64, 0
1, 161652, Note_on_c, 0, 65, 57
1, 161680, Control_c, 0, 64, 127
1, 161737, Note_on_c, 0, 53, 0
1, 161740, Note_on_c, 0, 89, 0
1, 161740, Note_on_c, 0, 77, 0
1, 161740, Note_on_c, 0, 91, 70
1, 161743, Note_on_c, 0, 79, 70
1, 161743, Note_on_c, 0, 65, 0
1, 161743, Note_on_c, 0, 55, 52
1, 161746, Note_on_c, 0, 67, 52
1, 161831, Note_on_c, 0, 64, 57
1, 161834, Note_on_c, 0, 79, 0
1, 161834, Note_on_c, 0, 91, 0
1, 161834, Note_on_c, 0, 76, 63
1, 161837, Note_on_c, 0, 88, 76
1, 161837, Note_on_c, 0, 55, 0
1, 161837, Note_on_c, 0, 67, 0
1, 161840, Note_on_c, 0, 52, 48
1, 161840, Control_c, 0, 64, 0
1, 161873, Control_c, 0, 64, 127
1, 161924, Note_on_c, 0, 64, 0
1, 161924, Note_on_c, 0, 55, 52
1, 161924, Note_on_c, 0, 67, 52
1, 161927, Note_on_c, 0, 88, 0
1, 161927, Note_on_c, 0, 76, 0
1, 161927, Note_on_c, 0, 91, 70
1, 161930, Note_on_c, 0, 79, 70
1, 161930, Note_on_c, 0, 52, 0
1, 162018, Note_on_c, 0, 55, 0
1, 162018, Note_on_c, 0, 67, 0
1, 162018, Note_on_c, 0, 50, 48
1, 162018, Note_on_c, 0, 62, 57
1, 162018, Note_on_c, 0, 79, 0
1, 162018, Note_on_c, 0, 91, 0
1, 162018, Note_on_c, 0, 86, 76
1, 162018, Note_on_c, 0, 74, 63
1, 162026, Control_c, 0, 64, 0
1, 162060, Control_c, 0, 64, 127
1, 162111, Note_on_c, 0, 52, 45
1, 162111, Note_on_c, 0, 62, 0
1, 162111, Note_on_c, 0, 50, 0
1, 162111, Note_on_c, 0, 74, 0
1, 162111, Note_on_c, 0, 86, 0
1, 162111, Note_on_c, 0, 76, 60
1, 162111, Note_on_c, 0, 88, 71
1, 162115, Note_on_c, 0, 64, 52
1, 162203, Note_on_c, 0, 52, 0
1, 162203, Note_on_c, 0, 88, 0
1, 162203, Note_on_c, 0, 76, 0
1, 162203, Note_on_c, 0, 85, 77
1, 162203, Note_on_c, 0, 73, 64
1, 162206, Note_on_c, 0, 49, 48
1, 162206, Note_on_c, 0, 64, 0
1, 162206, Note_on_c, 0, 61, 58
1, 162211, Control_c, 0, 64, 0
1, 162258, Control_c, 0, 64, 127
1, 162296, Note_on_c, 0, 52, 46
1, 162296, Note_on_c, 0, 73, 0
1, 162296, Note_on_c, 0, 85, 0
1, 162296, Note_on_c, 0, 88, 73
1, 162296, Note_on_c, 0, 76, 61
1, 162296, Note_on_c, 0, 64, 55
1, 162296, Note_on_c, 0, 49, 0
1, 162300, Note_on_c, 0, 61, 0
1, 162388, Note_on_c, 0, 46, 49
1, 162388, Note_on_c, 0, 52, 0
1, 162388, Note_on_c, 0, 76, 0
1, 162388, Note_on_c, 0, 88, 0
1, 162388, Note_on_c, 0, 70, 64
1, 162388, Note_on_c, 0, 82, 78
1, 162388, Note_on_c, 0, 64, 0
1, 162392, Control_c, 0, 64, 0
1, 162392, Note_on_c, 0, 58, 58
1, 162436, Control_c, 0, 64, 127
1, 162480, Note_on_c, 0, 61, 51
1, 162480, Note_on_c, 0, 46, 0
1, 162480, Note_on_c, 0, 49, 42
1, 162480, Note_on_c, 0, 82, 0
1, 162480, Note_on_c, 0, 70, 0
1, 162480, Note_on_c, 0, 73, 59
1, 162480, Note_on_c, 0, 85, 69
1, 162485, Note_on_c, 0, 58, 0
1, 162571, Note_on_c, 0, 45, 49
1, 162571, Note_on_c, 0, 61, 0
1, 162571, Note_on_c, 0, 49, 0
1, 162574, Note_on_c, 0, 85, 0
1, 162574, Note_on_c, 0, 73, 0
1, 162574, Note_on_c, 0, 81, 79
1, 162577, Note_on_c, 0, 69, 66
1, 162577, Note_on_c, 0, 57, 60
1, 162577, Control_c, 0, 64, 0
1, 162613, Control_c, 0, 64, 127
1, 162663, Note_on_c, 0, 45, 0
1, 162663, Note_on_c, 0, 46, 45
1, 162666, Note_on_c, 0, 58, 52
1, 162666, Note_on_c, 0, 69, 0
1, 162666, Note_on_c, 0, 81, 0
1, 162669, Note_on_c, 0, 70, 61
1, 162669, Note_on_c, 0, 82, 72
1, 162669, Note_on_c, 0, 57, 0
1, 162757, Note_on_c, 0, 46, 0
1, 162757, Note_on_c, 0, 58, 0
1, 162757, Note_on_c, 0, 82, 0
1, 162757, Note_on_c, 0, 70, 0
1, 162757, Note_on_c, 0, 79, 79
1, 162757, Note_on_c, 0, 67, 67
1, 162757, Note_on_c, 0, 43, 50
1, 162761, Note_on_c, 0, 55, 60
1, 162761, Control_c, 0, 64, 0
1, 162797, Control_c, 0, 64, 127
1, 162848, Note_on_c, 0, 46, 46
1, 162848, Note_on_c, 0, 58, 53
1, 162848, Note_on_c, 0, 67, 0
1, 162848, Note_on_c, 0, 79, 0
1, 162848, Note_on_c, 0, 82, 73
1, 162848, Note_on_c, 0, 70, 61
1, 162851, Note_on_c, 0, 43, 0
1, 162851, Note_on_c, 0, 55, 0
1, 162939, Note_on_c, 0, 41, 51
1, 162939, Note_on_c, 0, 46, 0
1, 162939, Note_on_c, 0, 53, 61
1, 162939, Note_on_c, 0, 58, 0
1, 162942, Note_on_c, 0, 70, 0
1, 162942, Note_on_c, 0, 82, 0
1, 162942, Note_on_c, 0, 77, 81
1, 162945, Note_on_c, 0, 65, 67
1, 162945, Control_c, 0, 64, 0
1, 162988, Control_c, 0, 64, 127
1, 163031, Note_on_c, 0, 41, 0
1, 163031, Note_on_c, 0, 43, 47
1, 163031, Note_on_c, 0, 53, 0
1, 163034, Note_on_c, 0, 65, 0
1, 163034, Note_on_c, 0, 77, 0
1, 163034, Note_on_c, 0, 79, 74
1, 163037, Note_on_c, 0, 67, 62
1, 163037, Note_on_c, 0, 55, 55
1, 163124, Note_on_c, 0, 43, 0
1, 163124, Note_on_c, 0, 52, 61
1, 163124, Note_on_c, 0, 67, 0
1, 163124, Note_on_c, 0, 79, 0
1, 163124, Note_on_c, 0, 76, 82
1, 163124, Note_on_c, 0, 64, 69
1, 163129, Note_on_c, 0, 40, 52
1, 163129, Note_on_c, 0, 55, 0
1, 163132, Control_c, 0, 64, 0
1, 163169, Control_c, 0, 64, 127
1, 163218, Note_on_c, 0, 55, 56
1, 163218, Note_on_c, 0, 43, 47
1, 163218, Note_on_c, 0, 52, 0
1, 163218, Note_on_c, 0, 64, 0
1, 163218, Note_on_c, 0, 76, 0
1, 163218, Note_on_c, 0, 67, 63
1, 163218, Note_on_c, 0, 79, 74
1, 163221, Note_on_c, 0, 40, 0
1, 163310, Note_on_c, 0, 55, 0
1, 163310, Note_on_c, 0, 43, 0
1, 163310, Note_on_c, 0, 79, 0
1, 163310, Note_on_c, 0, 67, 0
1, 163310, Note_on_c, 0, 74, 84
1, 163310, Note_on_c, 0, 62, 70
1, 163313, Note_on_c, 0, 50, 63
1, 163313, Note_on_c, 0, 38, 52
1, 163313, Control_c, 0, 64, 0
1, 163348, Control_c, 0, 64, 127
1, 163404, Note_on_c, 0, 40, 48
1, 163404, Note_on_c, 0, 62, 0
1, 163404, Note_on_c, 0, 74, 0
1, 163407, Note_on_c, 0, 64, 64
1, 163407, Note_on_c, 0, 76, 75
1, 163407, Note_on_c, 0, 50, 0
1, 163410, Note_on_c, 0, 38, 0
1, 163410, Note_on_c, 0, 52, 57
1, 163497, Note_on_c, 0, 40, 0
1, 163497, Note_on_c, 0, 76, 0
1, 163497, Note_on_c, 0, 64, 0
1, 163500, Note_on_c, 0, 73, 82
1, 163500, Note_on_c, 0, 61, 68
1, 163500, Note_on_c, 0, 37, 51
1, 163503, Note_on_c, 0, 49, 62
1, 163503, Note_on_c, 0, 52, 0
1, 163503, Control_c, 0, 64, 0
1, 163557, Control_c, 0, 64, 127
1, 163588, Note_on_c, 0, 52, 57
1, 163588, Note_on_c, 0, 40, 47
1, 163588, Note_on_c, 0, 61, 0
1, 163588, Note_on_c, 0, 73, 0
1, 163588, Note_on_c, 0, 76, 73
1, 163588, Note_on_c, 0, 64, 63
1, 163591, Note_on_c, 0, 37, 0
1, 163591, Note_on_c, 0, 49, 0
1, 163681, Note_on_c, 0, 52, 0
1, 163681, Note_on_c, 0, 34, 51
1, 163681, Note_on_c, 0, 40, 0
1, 163684, Note_on_c, 0, 64, 0
1, 163684, Note_on_c, 0, 76, 0
1, 163684, Note_on_c, 0, 58, 69
1, 163687, Note_on_c, 0, 70, 83
1, 163687, Note_on_c, 0, 46, 62
1, 163694, Control_c, 0, 64, 0
1, 163727, Control_c, 0, 64, 127
1, 163774, Note_on_c, 0, 34, 0
1, 163774, Note_on_c, 0, 37, 48
1, 163777, Note_on_c, 0, 70, 0
1, 163777, Note_on_c, 0, 58, 0
1, 163777, Note_on_c, 0, 61, 64
1, 163780, Note_on_c, 0, 73, 75
1, 163780, Note_on_c, 0, 49, 57
1, 163780, Note_on_c, 0, 46, 0
1, 163869, Note_on_c, 0, 37, 0
1, 163869, Note_on_c, 0, 33, 53
1, 163869, Note_on_c, 0, 73, 0
1, 163869, Note_on_c, 0, 61, 0
1, 163869, Note_on_c, 0, 57, 71
1, 163869, Note_on_c, 0, 69, 85
1, 163869, Note_on_c, 0, 49, 0
1, 163869, Note_on_c, 0, 45, 63
1, 163876, Control_c, 0, 64, 0
1, 163904, Control_c, 0, 64, 127
1, 163962, Note_on_c, 0, 46, 58
1, 163962, Note_on_c, 0, 33, 0
1, 163962, Note_on_c, 0, 34, 49
1, 163965, Note_on_c, 0, 69, 0
1, 163965, Note_on_c, 0, 57, 0
1, 163965, Note_on_c, 0, 58, 65
1, 163968, Note_on_c, 0, 70, 76
1, 163968, Note_on_c, 0, 45, 0
1, 164056, Note_on_c, 0, 32, 53
1, 164056, Note_on_c, 0, 46, 0
1, 164056, Note_on_c, 0, 44, 63
1, 164056, Note_on_c, 0, 34, 0
1, 164059, Note_on_c, 0, 70, 0
1, 164059, Note_on_c, 0, 58, 0
1, 164059, Note_on_c, 0, 68, 86
1, 164062, Note_on_c, 0, 56, 71
1, 164065, Control_c, 0, 64, 0
1, 164109, Control_c, 0, 64, 127
1, 164150, Note_on_c, 0, 32, 0
1, 164150, Note_on_c, 0, 44, 0
1, 164153, Note_on_c, 0, 56, 0
1, 164153, Note_on_c, 0, 68, 0
1, 164153, Note_on_c, 0, 69, 79
1, 164156, Note_on_c, 0, 57, 66
1, 164156, Note_on_c, 0, 45, 60
1, 164156, Note_on_c, 0, 33, 49
1, 164244, Note_on_c, 0, 31, 55
1, 164244, Note_on_c, 0, 43, 66
1, 164244, Note_on_c, 0, 57, 0
1, 164244, Note_on_c, 0, 69, 0
1, 164244, Note_on_c, 0, 55, 73
1, 164244, Note_on_c, 0, 67, 86
1, 164249, Note_on_c, 0, 45, 0
1, 164249, Note_on_c, 0, 33, 0
1, 164249, Control_c, 0, 64, 0
1, 164286, Control_c, 0, 64, 127
1, 164337, Note_on_c, 0, 31, 0
1, 164337, Note_on_c, 0, 43, 0
1, 164340, Note_on_c, 0, 67, 0
1, 164340, Note_on_c, 0, 55, 0
1, 164340, Note_on_c, 0, 57, 66
1, 164343, Note_on_c, 0, 69, 79
1, 164343, Note_on_c, 0, 45, 60
1, 164343, Note_on_c, 0, 33, 49
1, 164434, Note_on_c, 0, 42, 64
1, 164434, Note_on_c, 0, 69, 0
1, 164434, Note_on_c, 0, 57, 0
1, 164437, Note_on_c, 0, 66, 86
1, 164437, Note_on_c, 0, 54, 74
1, 164437, Note_on_c, 0, 45, 0
1, 164440, Note_on_c, 0, 33, 0
1, 164440, Note_on_c, 0, 30, 55
1, 164440, Control_c, 0, 64, 0
1, 164471, Control_c, 0, 64, 127
1, 164527, Note_on_c, 0, 45, 59
1, 164527, Note_on_c, 0, 42, 0
1, 164527, Note_on_c, 0, 54, 0
1, 164527, Note_on_c, 0, 66, 0
1, 164527, Note_on_c, 0, 69, 77
1, 164527, Note_on_c, 0, 57, 65
1, 164527, Note_on_c, 0, 33, 48
1, 164527, Note_on_c, 0, 30, 0
1, 164621, Note_on_c, 0, 45, 0
1, 164621, Note_on_c, 0, 29, 57
1, 164621, Note_on_c, 0, 57, 0
1, 164621, Note_on_c, 0, 69, 0
1, 164621, Note_on_c, 0, 65, 88
1, 164621, Note_on_c, 0, 53, 74
1, 164621, Note_on_c, 0, 33, 0
1, 164624, Note_on_c, 0, 41, 66
1, 164629, Control_c, 0, 64, 0
1, 164676, Control_c, 0, 64, 127
1, 164714, Note_on_c, 0, 45, 60
1, 164714, Note_on_c, 0, 29, 0
1, 164717, Note_on_c, 0, 53, 0
1, 164717, Note_on_c, 0, 65, 0
1, 164717, Note_on_c, 0, 57, 67
1, 164720, Note_on_c, 0, 69, 80
1, 164720, Note_on_c, 0, 41, 0
1, 164720, Note_on_c, 0, 33, 51
1, 164809, Note_on_c, 0, 45, 0
1, 164809, Note_on_c, 0, 40, 66
1, 164809, Note_on_c, 0, 69, 0
1, 164809, Note_on_c, 0, 57, 0
1, 164809, Note_on_c, 0, 64, 88
1, 164809, Note_on_c, 0, 52, 75
1, 164813, Note_on_c, 0, 33, 0
1, 164813, Note_on_c, 0, 28, 57
1, 164818, Control_c, 0, 64, 0
1, 164852, Control_c, 0, 64, 127
1, 164904, Note_on_c, 0, 33, 51
1, 164904, Note_on_c, 0, 40, 0
1, 164904, Note_on_c, 0, 45, 60
1, 164907, Note_on_c, 0, 52, 0
1, 164907, Note_on_c, 0, 64, 0
1, 164907, Note_on_c, 0, 69, 80
1, 164910, Note_on_c, 0, 57, 68
1, 164910, Note_on_c, 0, 28, 0
1, 165000, Note_on_c, 0, 33, 0
1, 165000, Note_on_c, 0, 45, 0
1, 165000, Note_on_c, 0, 57, 0
1, 165000, Note_on_c, 0, 69, 0
1, 165000, Note_on_c, 0, 63, 90
1, 165000, Note_on_c, 0, 51, 76
1, 165000, Note_on_c, 0, 27, 57
1, 165000, Note_on_c, 0, 39, 68
1, 165008, Control_c, 0, 64, 0
1, 165069, Control_c, 0, 64, 127
1, 165120, Note_on_c, 0, 51, 0
1, 165120, Note_on_c, 0, 63, 0
1, 165120, Note_on_c, 0, 69, 83
1, 165123, Note_on_c, 0, 57, 71
1, 165123, Note_on_c, 0, 39, 0
1, 165123, Note_on_c, 0, 27, 0
1, 165126, Note_on_c, 0, 45, 63
1, 165126, Note_on_c, 0, 33, 52
1, 165240, Note_on_c, 0, 57, 0
1, 165240, Note_on_c, 0, 69, 0
1, 165240, Note_on_c, 0, 48, 77
1, 165243, Note_on_c, 0, 60, 91
1, 165243, Note_on_c, 0, 33, 0
1, 165243, Note_on_c, 0, 45, 0
1, 165246, Note_on_c, 0, 36, 68
1, 165246, Note_on_c, 0, 24, 59
1, 165246, Control_c, 0, 64, 0
1, 165309, Control_c, 0, 64, 127
1, 165362, Note_on_c, 0, 60, 0
1, 165362, Note_on_c, 0, 48, 0
1, 165362, Note_on_c, 0, 69, 83
1, 165365, Note_on_c, 0, 57, 71
1, 165365, Note_on_c, 0, 24, 0
1, 165365, Note_on_c, 0, 36, 0
1, 165368, Note_on_c, 0, 33, 55
1, 165368, Note_on_c, 0, 45, 63
1, 165486, Note_on_c, 0, 57, 0
1, 165486, Note_on_c, 0, 69, 0
1, 165486, Note_on_c, 0, 49, 77
1, 165489, Note_on_c, 0, 61, 91
1, 165489, Note_on_c, 0, 45, 0
1, 165489, Note_on_c, 0, 33, 0
1, 165492, Note_on_c, 0, 37, 68
1, 165492, Note_on_c, 0, 25, 58
1, 165492, Control_c, 0, 64, 0
1, 165569, Control_c, 0, 64, 127
1, 165620, Note_on_c, 0, 61, 0
1, 165620, Note_on_c, 0, 49, 0
1, 165620, Note_on_c, 0, 57, 70
1, 165623, Note_on_c, 0, 69, 83
1, 165623, Note_on_c, 0, 25, 0
1, 165623, Note_on_c, 0, 37, 0
1, 165626, Note_on_c, 0, 33, 53
1, 165626, Note_on_c, 0, 45, 63
1, 165809, Control_c, 0, 64, 0
1, 165826, Note_on_c, 0, 69, 0
1, 165826, Note_on_c, 0, 57, 0
1, 165826, Note_on_c, 0, 45, 0
1, 165829, Note_on_c, 0, 33, 0
1, 165894, Note_on_c, 0, 86, 59
1, 165894, Note_on_c, 0, 77, 50
1, 165894, Note_on_c, 0, 74, 50
1, 165897, Note_on_c, 0, 45, 35
1, 165897, Note_on_c, 0, 38, 35
1, 165897, Note_on_c, 0, 50, 42
1, 165976, Control_c, 0, 64, 127
1, 166051, Note_on_c, 0, 52, 27
1, 166051, Note_on_c, 0, 56, 32
1, 166100, Note_on_c, 0, 56, 0
1, 166100, Note_on_c, 0, 52, 0
1, 166100, Note_on_c, 0, 57, 40
1, 166103, Note_on_c, 0, 53, 34
1, 166115, Control_c, 0, 64, 0
1, 166123, Note_on_c, 0, 53, 0
1, 166123, Note_on_c, 0, 57, 0
1, 166240, Note_on_c, 0, 64, 26
1, 166240, Note_on_c, 0, 61, 31
1, 166251, Control_c, 0, 64, 127
1, 166287, Note_on_c, 0, 74, 0
1, 166287, Note_on_c, 0, 77, 0
1, 166287, Note_on_c, 0, 86, 0
1, 166290, Note_on_c, 0, 61, 0
1, 166290, Note_on_c, 0, 50, 0
1, 166290, Note_on_c, 0, 45, 0
1, 166293, Note_on_c, 0, 38, 0
1, 166293, Note_on_c, 0, 64, 0
1, 166293, Note_on_c, 0, 62, 35
1, 166296, Note_on_c, 0, 65, 35
1, 166311, Note_on_c, 0, 65, 0
1, 166311, Note_on_c, 0, 62, 0
1, 166323, Control_c, 0, 64, 0
1, 166481, Note_on_c, 0, 74, 50
1, 166481, Note_on_c, 0, 77, 50
1, 166481, Note_on_c, 0, 86, 59
1, 166484, Note_on_c, 0, 50, 42
1, 166484, Note_on_c, 0, 45, 35
1, 166484, Note_on_c, 0, 38, 35
1, 166487, Control_c, 0, 64, 127
1, 166622, Note_on_c, 0, 61, 32
1, 166622, Note_on_c, 0, 56, 27
1, 166671, Note_on_c, 0, 56, 0
1, 166671, Note_on_c, 0, 61, 0
1, 166671, Note_on_c, 0, 62, 40
1, 166674, Note_on_c, 0, 57, 34
1, 166690, Control_c, 0, 64, 0
1, 166694, Note_on_c, 0, 57, 0
1, 166694, Note_on_c, 0, 62, 0
1, 166812, Note_on_c, 0, 64, 26
1, 166812, Note_on_c, 0, 68, 31
1, 166812, Control_c, 0, 64, 127
1, 166860, Note_on_c, 0, 86, 0
1, 166860, Note_on_c, 0, 77, 0
1, 166860, Note_on_c, 0, 74, 0
1, 166863, Note_on_c, 0, 68, 0
1, 166863, Note_on_c, 0, 38, 0
1, 166863, Note_on_c, 0, 50, 0
1, 166866, Note_on_c, 0, 45, 0
1, 166866, Note_on_c, 0, 64, 0
1, 166866, Note_on_c, 0, 65, 29
1, 166869, Note_on_c, 0, 69, 35
1, 166875, Control_c, 0, 64, 0
1, 166883, Note_on_c, 0, 69, 0
1, 166883, Note_on_c, 0, 65, 0
1, 166954, Note_on_c, 0, 72, 45
1, 166954, Note_on_c, 0, 84, 54
1, 167048, Note_on_c, 0, 84, 0
1, 167048, Note_on_c, 0, 72, 0
1, 167048, Note_on_c, 0, 82, 59
1, 167051, Note_on_c, 0, 76, 50
1, 167051, Note_on_c, 0, 70, 50
1, 167051, Note_on_c, 0, 43, 35
1, 167054, Note_on_c, 0, 50, 42
1, 167054, Note_on_c, 0, 38, 35
1, 167077, Control_c, 0, 64, 127
1, 167201, Note_on_c, 0, 57, 32
1, 167201, Note_on_c, 0, 54, 27
1, 167249, Note_on_c, 0, 54, 0
1, 167249, Note_on_c, 0, 57, 0
1, 167249, Note_on_c, 0, 58, 42
1, 167252, Note_on_c, 0, 55, 35
1, 167252, Control_c, 0, 64, 0
1, 167273, Note_on_c, 0, 55, 0
1, 167273, Note_on_c, 0, 58, 0
1, 167390, Note_on_c, 0, 66, 32
1, 167390, Note_on_c, 0, 63, 27
1, 167396, Control_c, 0, 64, 127
1, 167437, Note_on_c, 0, 70, 0
1, 167437, Note_on_c, 0, 76, 0
1, 167437, Note_on_c, 0, 82, 0
1, 167440, Note_on_c, 0, 63, 0
1, 167440, Note_on_c, 0, 38, 0
1, 167440, Note_on_c, 0, 43, 0
1, 167443, Note_on_c, 0, 50, 0
1, 167443, Note_on_c, 0, 66, 0
1, 167443, Note_on_c, 0, 67, 35
1, 167446, Note_on_c, 0, 64, 29
1, 167450, Control_c, 0, 64, 0
1, 167460, Note_on_c, 0, 64, 0
1, 167460, Note_on_c, 0, 67, 0
1, 167626, Note_on_c, 0, 70, 50
1, 167626, Note_on_c, 0, 82, 59
1, 167626, Note_on_c, 0, 76, 50
1, 167629, Note_on_c, 0, 43, 35
1, 167629, Note_on_c, 0, 38, 35
1, 167629, Note_on_c, 0, 50, 42
1, 167639, Control_c, 0, 64, 127
1, 167764, Note_on_c, 0, 57, 32
1, 167764, Note_on_c, 0, 54, 27
1, 167814, Note_on_c, 0, 54, 0
1, 167814, Note_on_c, 0, 57, 0
1, 167814, Note_on_c, 0, 55, 34
1, 167817, Note_on_c, 0, 58, 41
1, 167820, Control_c, 0, 64, 0
1, 167837, Note_on_c, 0, 58, 0
1, 167837, Note_on_c, 0, 55, 0
1, 167954, Note_on_c, 0, 66, 31
1, 167954, Note_on_c, 0, 63, 26
1, 167983, Control_c, 0, 64, 127
1, 168001, Note_on_c, 0, 76, 0
1, 168001, Note_on_c, 0, 82, 0
1, 168001, Note_on_c, 0, 70, 0
1, 168004, Note_on_c, 0, 63, 0
1, 168004, Note_on_c, 0, 50, 0
1, 168004, Note_on_c, 0, 43, 0
1, 168007, Note_on_c, 0, 38, 0
1, 168007, Note_on_c, 0, 66, 0
1, 168007, Note_on_c, 0, 64, 29
1, 168010, Note_on_c, 0, 67, 35
1, 168025, Note_on_c, 0, 67, 0
1, 168025, Note_on_c, 0, 64, 0
1, 168035, Control_c, 0, 64, 0
1, 168098, Note_on_c, 0, 82, 56
1, 168098, Note_on_c, 0, 70, 47
1, 168194, Note_on_c, 0, 70, 0
1, 168194, Note_on_c, 0, 82, 0
1, 168194, Note_on_c, 0, 69, 52
1, 168197, Note_on_c, 0, 81, 62
1, 168197, Note_on_c, 0, 76, 52
1, 168197, Note_on_c, 0, 37, 34
1, 168200, Note_on_c, 0, 49, 41
1, 168234, Control_c, 0, 64, 127
1, 168343, Note_on_c, 0, 51, 28
1, 168343, Note_on_c, 0, 54, 33
1, 168389, Control_c, 0, 64, 0
1, 168392, Note_on_c, 0, 54, 0
1, 168392, Note_on_c, 0, 51, 0
1, 168392, Note_on_c, 0, 55, 42
1, 168395, Note_on_c, 0, 52, 35
1, 168415, Note_on_c, 0, 52, 0
1, 168415, Note_on_c, 0, 55, 0
1, 168532, Note_on_c, 0, 63, 33
1, 168532, Note_on_c, 0, 60, 28
1, 168536, Control_c, 0, 64, 127
1, 168579, Note_on_c, 0, 76, 0
1, 168579, Note_on_c, 0, 81, 0
1, 168579, Note_on_c, 0, 69, 0
1, 168582, Note_on_c, 0, 60, 0
1, 168582, Note_on_c, 0, 37, 0
1, 168582, Note_on_c, 0, 49, 0
1, 168585, Note_on_c, 0, 63, 0
1, 168585, Note_on_c, 0, 61, 35
1, 168585, Note_on_c, 0, 64, 42
1, 168590, Control_c, 0, 64, 0
1, 168603, Note_on_c, 0, 64, 0
1, 168603, Note_on_c, 0, 61, 0
1, 168675, Note_on_c, 0, 81, 61
1, 168675, Note_on_c, 0, 69, 51
1, 168770, Note_on_c, 0, 69, 0
1, 168770, Note_on_c, 0, 81, 0
1, 168770, Note_on_c, 0, 79, 54
1, 168773, Note_on_c, 0, 88, 64
1, 168773, Note_on_c, 0, 76, 54
1, 168773, Note_on_c, 0, 33, 34
1, 168776, Note_on_c, 0, 45, 41
1, 168776, Control_c, 0, 64, 127
1, 168911, Note_on_c, 0, 54, 32
1, 168911, Note_on_c, 0, 51, 27
1, 168961, Note_on_c, 0, 51, 0
1, 168961, Note_on_c, 0, 54, 0
1, 168961, Note_on_c, 0, 55, 41
1, 168964, Note_on_c, 0, 52, 34
1, 168972, Control_c, 0, 64, 0
1, 168984, Note_on_c, 0, 52, 0
1, 168984, Note_on_c, 0, 55, 0
1, 169102, Note_on_c, 0, 60, 27
1, 169102, Note_on_c, 0, 63, 32
1, 169122, Control_c, 0, 64, 127
1, 169149, Note_on_c, 0, 76, 0
1, 169149, Note_on_c, 0, 88, 0
1, 169149, Note_on_c, 0, 79, 0
1, 169152, Note_on_c, 0, 63, 0
1, 169152, Note_on_c, 0, 33, 0
1, 169152, Note_on_c, 0, 45, 0
1, 169155, Note_on_c, 0, 60, 0
1, 169155, Note_on_c, 0, 64, 35
1, 169155, Note_on_c, 0, 61, 42
1, 169171, Control_c, 0, 64, 0
1, 169171, Note_on_c, 0, 61, 0
1, 169171, Note_on_c, 0, 64, 0
1, 169245, Note_on_c, 0, 79, 62
1, 169245, Note_on_c, 0, 67, 52
1, 169342, Note_on_c, 0, 67, 0
1, 169342, Note_on_c, 0, 79, 0
1, 169342, Note_on_c, 0, 77, 65
1, 169345, Note_on_c, 0, 65, 55
1, 169345, Note_on_c, 0, 69, 55
1, 169345, Note_on_c, 0, 38, 41
1, 169348, Note_on_c, 0, 50, 41
1, 169379, Control_c, 0, 64, 127
1, 169492, Note_on_c, 0, 56, 31
1, 169492, Note_on_c, 0, 52, 26
1, 169541, Note_on_c, 0, 52, 0
1, 169541, Note_on_c, 0, 56, 0
1, 169541, Note_on_c, 0, 53, 29
1, 169544, Note_on_c, 0, 57, 35
1, 169544, Control_c, 0, 64, 0
1, 169564, Note_on_c, 0, 57, 0
1, 169564, Note_on_c, 0, 53, 0
1, 169683, Note_on_c, 0, 64, 32
1, 169683, Note_on_c, 0, 61, 27
1, 169687, Control_c, 0, 64, 127
1, 169731, Note_on_c, 0, 69, 0
1, 169731, Note_on_c, 0, 65, 0
1, 169731, Note_on_c, 0, 77, 0
1, 169734, Note_on_c, 0, 61, 0
1, 169734, Note_on_c, 0, 38, 0
1, 169734, Note_on_c, 0, 50, 0
1, 169737, Note_on_c, 0, 64, 0
1, 169737, Note_on_c, 0, 62, 29
1, 169737, Note_on_c, 0, 65, 35
1, 169753, Control_c, 0, 64, 0
1, 169753, Note_on_c, 0, 65, 0
1, 169753, Note_on_c, 0, 62, 0
1, 169826, Note_on_c, 0, 69, 49
1, 169826, Note_on_c, 0, 81, 58
1, 169921, Control_c, 0, 64, 127
1, 169921, Note_on_c, 0, 81, 0
1, 169921, Note_on_c, 0, 69, 0
1, 169921, Note_on_c, 0, 62, 52
1, 169921, Note_on_c, 0, 74, 62
1, 169921, Note_on_c, 0, 65, 52
1, 169921, Note_on_c, 0, 50, 41
1, 169921, Note_on_c, 0, 45, 34
1, 169921, Note_on_c, 0, 38, 34
1, 170067, Note_on_c, 0, 52, 27
1, 170067, Note_on_c, 0, 56, 32
1, 170115, Note_on_c, 0, 56, 0
1, 170115, Note_on_c, 0, 52, 0
1, 170115, Note_on_c, 0, 53, 29
1, 170118, Note_on_c, 0, 57, 35
1, 170118, Control_c, 0, 64, 0
1, 170139, Note_on_c, 0, 57, 0
1, 170139, Note_on_c, 0, 53, 0
1, 170259, Note_on_c, 0, 64, 33
1, 170259, Note_on_c, 0, 61, 28
1, 170279, Control_c, 0, 64, 127
1, 170307, Note_on_c, 0, 65, 0
1, 170307, Note_on_c, 0, 74, 0
1, 170307, Note_on_c, 0, 62, 0
1, 170310, Note_on_c, 0, 61, 0
1, 170310, Note_on_c, 0, 38, 0
1, 170310, Note_on_c, 0, 50, 0
1, 170313, Note_on_c, 0, 45, 0
1, 170313, Note_on_c, 0, 64, 0
1, 170313, Note_on_c, 0, 65, 35
1, 170316, Note_on_c, 0, 62, 29
1, 170331, Note_on_c, 0, 62, 0
1, 170331, Note_on_c, 0, 65, 0
1, 170337, Control_c, 0, 64, 0
1, 170499, Note_on_c, 0, 72, 50
1, 170499, Note_on_c, 0, 84, 59
1, 170499, Note_on_c, 0, 76, 50
1, 170502, Note_on_c, 0, 48, 42
1, 170502, Note_on_c, 0, 36, 35
1, 170534, Control_c, 0, 64, 127
1, 170656, Note_on_c, 0, 51, 27
1, 170656, Note_on_c, 0, 54, 32
1, 170704, Note_on_c, 0, 54, 0
1, 170704, Note_on_c, 0, 51, 0
1, 170704, Note_on_c, 0, 55, 40
1, 170707, Note_on_c, 0, 52, 34
1, 170720, Control_c, 0, 64, 0
1, 170728, Note_on_c, 0, 52, 0
1, 170728, Note_on_c, 0, 55, 0
1, 170845, Note_on_c, 0, 59, 31
1, 170845, Note_on_c, 0, 63, 26
1, 170856, Control_c, 0, 64, 127
1, 170892, Note_on_c, 0, 76, 0
1, 170892, Note_on_c, 0, 84, 0
1, 170892, Note_on_c, 0, 72, 0
1, 170895, Note_on_c, 0, 63, 0
1, 170895, Note_on_c, 0, 48, 0
1, 170895, Note_on_c, 0, 36, 0
1, 170898, Note_on_c, 0, 59, 0
1, 170898, Note_on_c, 0, 60, 35
1, 170898, Note_on_c, 0, 64, 35
1, 170916, Note_on_c, 0, 64, 0
1, 170916, Note_on_c, 0, 60, 0
1, 170928, Control_c, 0, 64, 0
1, 171086, Note_on_c, 0, 79, 51
1, 171086, Note_on_c, 0, 72, 51
1, 171086, Note_on_c, 0, 84, 60
1, 171089, Note_on_c, 0, 40, 36
1, 171089, Note_on_c, 0, 52, 43
1, 171089, Control_c, 0, 64, 127
1, 171226, Note_on_c, 0, 54, 27
1, 171226, Note_on_c, 0, 59, 32
1, 171275, Note_on_c, 0, 59, 0
1, 171275, Note_on_c, 0, 54, 0
1, 171275, Note_on_c, 0, 60, 41
1, 171278, Note_on_c, 0, 55, 35
1, 171295, Control_c, 0, 64, 0
1, 171299, Note_on_c, 0, 55, 0
1, 171299, Note_on_c, 0, 60, 0
1, 171417, Note_on_c, 0, 66, 32
1, 171417, Note_on_c, 0, 63, 27
1, 171417, Control_c, 0, 64, 127
1, 171464, Note_on_c, 0, 84, 0
1, 171464, Note_on_c, 0, 72, 0
1, 171464, Note_on_c, 0, 79, 0
1, 171467, Note_on_c, 0, 63, 0
1, 171467, Note_on_c, 0, 40, 0
1, 171467, Note_on_c, 0, 52, 0
1, 171470, Note_on_c, 0, 66, 0
1, 171470, Note_on_c, 0, 67, 36
1, 171470, Note_on_c, 0, 64, 30
1, 171480, Control_c, 0, 64, 0
1, 171488, Note_on_c, 0, 64, 0
1, 171488, Note_on_c, 0, 67, 0
1, 171559, Note_on_c, 0, 70, 47
1, 171559, Note_on_c, 0, 82, 56
1, 171653, Note_on_c, 0, 82, 0
1, 171653, Note_on_c, 0, 70, 0
1, 171653, Note_on_c, 0, 77, 53
1, 171656, Note_on_c, 0, 81, 62
1, 171656, Note_on_c, 0, 69, 53
1, 171656, Note_on_c, 0, 48, 37
1, 171659, Note_on_c, 0, 53, 44
1, 171659, Note_on_c, 0, 41, 37
1, 171711, Control_c, 0, 64, 127
1, 171805, Note_on_c, 0, 59, 34
1, 171805, Note_on_c, 0, 56, 28
1, 171854, Note_on_c, 0, 56, 0
1, 171854, Note_on_c, 0, 59, 0
1, 171854, Note_on_c, 0, 57, 37
1, 171857, Note_on_c, 0, 60, 44
1, 171857, Control_c, 0, 64, 0
1, 171878, Note_on_c, 0, 60, 0
1, 171878, Note_on_c, 0, 57, 0
1, 171995, Note_on_c, 0, 68, 34
1, 171995, Note_on_c, 0, 64, 29
1, 172001, Control_c, 0, 64, 127
1, 172041, Note_on_c, 0, 69, 0
1, 172041, Note_on_c, 0, 81, 0
1, 172041, Note_on_c, 0, 77, 0
1, 172044, Note_on_c, 0, 64, 0
1, 172044, Note_on_c, 0, 41, 0
1, 172044, Note_on_c, 0, 48, 0
1, 172047, Note_on_c, 0, 53, 0
1, 172047, Note_on_c, 0, 68, 0
1, 172047, Note_on_c, 0, 65, 31
1, 172050, Note_on_c, 0, 69, 37
1, 172055, Control_c, 0, 64, 0
1, 172065, Note_on_c, 0, 69, 0
1, 172065, Note_on_c, 0, 65, 0
1, 172136, Note_on_c, 0, 72, 50
1, 172136, Note_on_c, 0, 84, 60
1, 172231, Note_on_c, 0, 84, 0
1, 172231, Note_on_c, 0, 72, 0
1, 172231, Note_on_c, 0, 77, 64
1, 172234, Note_on_c, 0, 69, 54
1, 172234, Note_on_c, 0, 65, 54
1, 172234, Note_on_c, 0, 53, 45
1, 172237, Note_on_c, 0, 41, 38
1, 172244, Control_c, 0, 64, 127
1, 172369, Note_on_c, 0, 56, 29
1, 172369, Note_on_c, 0, 59, 35
1, 172418, Note_on_c, 0, 59, 0
1, 172418, Note_on_c, 0, 56, 0
1, 172418, Note_on_c, 0, 60, 45
1, 172421, Note_on_c, 0, 57, 37
1, 172424, Control_c, 0, 64, 0
1, 172442, Note_on_c, 0, 57, 0
1, 172442, Note_on_c, 0, 60, 0
1, 172559, Note_on_c, 0, 64, 28
1, 172559, Note_on_c, 0, 68, 34
1, 172587, Control_c, 0, 64, 127
1, 172605, Note_on_c, 0, 65, 0
1, 172605, Note_on_c, 0, 69, 0
1, 172605, Note_on_c, 0, 77, 0
1, 172608, Note_on_c, 0, 68, 0
1, 172608, Note_on_c, 0, 53, 0
1, 172608, Note_on_c, 0, 41, 0
1, 172611, Note_on_c, 0, 64, 0
1, 172611, Note_on_c, 0, 65, 32
1, 172611, Note_on_c, 0, 69, 38
1, 172630, Note_on_c, 0, 69, 0
1, 172630, Note_on_c, 0, 65, 0
1, 172640, Control_c, 0, 64, 0
1, 172799, Note_on_c, 0, 88, 66
1, 172799, Note_on_c, 0, 80, 56
1, 172799, Note_on_c, 0, 76, 56
1, 172802, Note_on_c, 0, 52, 47
1, 172802, Note_on_c, 0, 40, 39
1, 172834, Control_c, 0, 64, 127
1, 172956, Note_on_c, 0, 55, 30
1, 172956, Note_on_c, 0, 58, 36
1, 173004, Note_on_c, 0, 58, 0
1, 173004, Note_on_c, 0, 55, 0
1, 173004, Note_on_c, 0, 59, 45
1, 173007, Note_on_c, 0, 56, 38
1, 173020, Control_c, 0, 64, 0
1, 173028, Note_on_c, 0, 56, 0
1, 173028, Note_on_c, 0, 59, 0
1, 173145, Note_on_c, 0, 67, 29
1, 173145, Note_on_c, 0, 63, 35
1, 173156, Control_c, 0, 64, 127
1, 173191, Note_on_c, 0, 76, 0
1, 173191, Note_on_c, 0, 80, 0
1, 173191, Note_on_c, 0, 88, 0
1, 173194, Note_on_c, 0, 63, 0
1, 173194, Note_on_c, 0, 52, 0
1, 173194, Note_on_c, 0, 40, 0
1, 173197, Note_on_c, 0, 67, 0
1, 173197, Note_on_c, 0, 64, 39
1, 173197, Note_on_c, 0, 68, 39
1, 173216, Note_on_c, 0, 68, 0
1, 173216, Note_on_c, 0, 64, 0
1, 173228, Control_c, 0, 64, 0
1, 173386, Note_on_c, 0, 76, 57
1, 173386, Note_on_c, 0, 83, 57
1, 173386, Note_on_c, 0, 88, 67
1, 173389, Note_on_c, 0, 44, 40
1, 173389, Note_on_c, 0, 56, 48
1, 173389, Control_c, 0, 64, 127
1, 173526, Note_on_c, 0, 58, 31
1, 173526, Note_on_c, 0, 63, 37
1, 173575, Note_on_c, 0, 63, 0
1, 173575, Note_on_c, 0, 58, 0
1, 173575, Note_on_c, 0, 59, 39
1, 173578, Note_on_c, 0, 64, 46
1, 173595, Control_c, 0, 64, 0
1, 173599, Note_on_c, 0, 64, 0
1, 173599, Note_on_c, 0, 59, 0
1, 173717, Note_on_c, 0, 67, 30
1, 173717, Note_on_c, 0, 70, 36
1, 173717, Control_c, 0, 64, 127
1, 173764, Note_on_c, 0, 88, 0
1, 173764, Note_on_c, 0, 83, 0
1, 173764, Note_on_c, 0, 76, 0
1, 173767, Note_on_c, 0, 70, 0
1, 173767, Note_on_c, 0, 44, 0
1, 173767, Note_on_c, 0, 56, 0
1, 173770, Note_on_c, 0, 67, 0
1, 173770, Note_on_c, 0, 71, 40
1, 173770, Note_on_c, 0, 68, 33
1, 173780, Control_c, 0, 64, 0
1, 173788, Note_on_c, 0, 68, 0
1, 173788, Note_on_c, 0, 71, 0
1, 173859, Note_on_c, 0, 74, 53
1, 173859, Note_on_c, 0, 86, 63
1, 173953, Note_on_c, 0, 86, 0
1, 173953, Note_on_c, 0, 74, 0
1, 173953, Note_on_c, 0, 81, 59
1, 173956, Note_on_c, 0, 73, 59
1, 173956, Note_on_c, 0, 85, 69
1, 173956, Note_on_c, 0, 45, 41
1, 173959, Note_on_c, 0, 57, 49
1, 173959, Note_on_c, 0, 52, 41
1, 174011, Control_c, 0, 64, 127
1, 174105, Note_on_c, 0, 63, 38
1, 174105, Note_on_c, 0, 60, 32
1, 174154, Note_on_c, 0, 60, 0
1, 174154, Note_on_c, 0, 63, 0
1, 174154, Note_on_c, 0, 64, 49
1, 174157, Note_on_c, 0, 61, 41
1, 174157, Control_c, 0, 64, 0
1, 174177, Note_on_c, 0, 61, 0
1, 174177, Note_on_c, 0, 64, 0
1, 174294, Note_on_c, 0, 72, 38
1, 174294, Note_on_c, 0, 68, 32
1, 174301, Control_c, 0, 64, 127
1, 174341, Note_on_c, 0, 85, 0
1, 174341, Note_on_c, 0, 73, 0
1, 174341, Note_on_c, 0, 81, 0
1, 174344, Note_on_c, 0, 68, 0
1, 174344, Note_on_c, 0, 52, 0
1, 174344, Note_on_c, 0, 45, 0
1, 174347, Note_on_c, 0, 57, 0
1, 174347, Note_on_c, 0, 72, 0
1, 174347, Note_on_c, 0, 73, 42
1, 174350, Note_on_c, 0, 69, 34
1, 174355, Control_c, 0, 64, 0
1, 174365, Note_on_c, 0, 69, 0
1, 174365, Note_on_c, 0, 73, 0
1, 174436, Note_on_c, 0, 76, 56
1, 174436, Note_on_c, 0, 88, 67
1, 174531, Note_on_c, 0, 88, 0
1, 174531, Note_on_c, 0, 76, 0
1, 174531, Note_on_c, 0, 81, 71
1, 174534, Note_on_c, 0, 69, 60
1, 174534, Note_on_c, 0, 73, 60
1, 174534, Note_on_c, 0, 52, 42
1, 174537, Note_on_c, 0, 45, 42
1, 174537, Note_on_c, 0, 57, 50
1, 174544, Control_c, 0, 64, 127
1, 174669, Note_on_c, 0, 63, 39
1, 174669, Note_on_c, 0, 60, 32
1, 174718, Note_on_c, 0, 60, 0
1, 174718, Note_on_c, 0, 63, 0
1, 174718, Note_on_c, 0, 64, 50
1, 174721, Note_on_c, 0, 61, 41
1, 174724, Control_c, 0, 64, 0
1, 174742, Note_on_c, 0, 61, 0
1, 174742, Note_on_c, 0, 64, 0
1, 174859, Note_on_c, 0, 72, 38
1, 174859, Note_on_c, 0, 68, 31
1, 174887, Control_c, 0, 64, 127
1, 174905, Note_on_c, 0, 73, 0
1, 174905, Note_on_c, 0, 69, 0
1, 174905, Note_on_c, 0, 81, 0
1, 174908, Note_on_c, 0, 68, 0
1, 174908, Note_on_c, 0, 57, 0
1, 174908, Note_on_c, 0, 52, 0
1, 174911, Note_on_c, 0, 45, 0
1, 174911, Note_on_c, 0, 72, 0
1, 174911, Note_on_c, 0, 69, 35
1, 174914, Note_on_c, 0, 73, 43
1, 174930, Note_on_c, 0, 73, 0
1, 174930, Note_on_c, 0, 69, 0
1, 174940, Control_c, 0, 64, 0
1, 175002, Note_on_c, 0, 81, 69
1, 175002, Note_on_c, 0, 69, 58
1, 175002, Note_on_c, 0, 45, 47
1, 175005, Note_on_c, 0, 57, 54
1, 175099, Note_on_c, 0, 69, 0
1, 175099, Note_on_c, 0, 81, 0
1, 175099, Note_on_c, 0, 91, 73
1, 175102, Note_on_c, 0, 85, 62
1, 175102, Note_on_c, 0, 79, 62
1, 175102, Note_on_c, 0, 57, 0
1, 175105, Note_on_c, 0, 45, 0
1, 175105, Note_on_c, 0, 58, 52
1, 175105, Note_on_c, 0, 52, 43
1, 175108, Note_on_c, 0, 46, 43
1, 175108, Control_c, 0, 64, 127
1, 175256, Note_on_c, 0, 66, 40
1, 175256, Note_on_c, 0, 63, 33
1, 175304, Note_on_c, 0, 63, 0
1, 175304, Note_on_c, 0, 66, 0
1, 175304, Note_on_c, 0, 64, 42
1, 175307, Note_on_c, 0, 67, 50
1, 175320, Control_c, 0, 64, 0
1, 175328, Note_on_c, 0, 67, 0
1, 175328, Note_on_c, 0, 64, 0
1, 175445, Note_on_c, 0, 75, 32
1, 175445, Note_on_c, 0, 72, 38
1, 175455, Control_c, 0, 64, 127
1, 175491, Note_on_c, 0, 79, 0
1, 175491, Note_on_c, 0, 85, 0
1, 175491, Note_on_c, 0, 91, 0
1, 175494, Note_on_c, 0, 72, 0
1, 175494, Note_on_c, 0, 46, 0
1, 175494, Note_on_c, 0, 58, 0
1, 175497, Note_on_c, 0, 52, 0
1, 175497, Note_on_c, 0, 75, 0
1, 175497, Note_on_c, 0, 73, 43
1, 175500, Note_on_c, 0, 76, 43
1, 175516, Note_on_c, 0, 76, 0
1, 175516, Note_on_c, 0, 73, 0
1, 175528, Control_c, 0, 64, 0
1, 175686, Note_on_c, 0, 81, 73
1, 175686, Note_on_c, 0, 69, 62
1, 175686, Note_on_c, 0, 57, 52
1, 175689, Note_on_c, 0, 45, 43
1, 175689, Control_c, 0, 64, 127
1, 175826, Note_on_c, 0, 66, 40
1, 175826, Note_on_c, 0, 63, 33
1, 175875, Note_on_c, 0, 63, 0
1, 175875, Note_on_c, 0, 66, 0
1, 175875, Note_on_c, 0, 64, 42
1, 175878, Note_on_c, 0, 67, 50
1, 175895, Control_c, 0, 64, 0
1, 175899, Note_on_c, 0, 67, 0
1, 175899, Note_on_c, 0, 64, 0
1, 176017, Note_on_c, 0, 75, 38
1, 176017, Note_on_c, 0, 72, 32
1, 176017, Control_c, 0, 64, 127
1, 176064, Note_on_c, 0, 69, 0
1, 176064, Note_on_c, 0, 81, 0
1, 176064, Note_on_c, 0, 72, 0
1, 176067, Note_on_c, 0, 57, 0
1, 176067, Note_on_c, 0, 45, 0
1, 176067, Note_on_c, 0, 75, 0
1, 176070, Note_on_c, 0, 76, 43
1, 176070, Note_on_c, 0, 73, 36
1, 176080, Control_c, 0, 64, 0
1, 176088, Note_on_c, 0, 73, 0
1, 176088, Note_on_c, 0, 76, 0
1, 176158, Note_on_c, 0, 81, 67
1, 176158, Note_on_c, 0, 69, 56
1, 176158, Note_on_c, 0, 45, 38
1, 176161, Note_on_c, 0, 57, 47
1, 176253, Note_on_c, 0, 69, 0
1, 176253, Note_on_c, 0, 81, 0
1, 176253, Note_on_c, 0, 84, 62
1, 176256, Note_on_c, 0, 78, 62
1, 176256, Note_on_c, 0, 90, 73
1, 176256, Note_on_c, 0, 57, 0
1, 176259, Note_on_c, 0, 45, 0
1, 176259, Note_on_c, 0, 46, 43
1, 176259, Note_on_c, 0, 58, 52
1, 176262, Note_on_c, 0, 51, 43
1, 176282, Control_c, 0, 64, 127
1, 176405, Note_on_c, 0, 62, 33
1, 176405, Note_on_c, 0, 65, 40
1, 176454, Note_on_c, 0, 65, 0
1, 176454, Note_on_c, 0, 62, 0
1, 176454, Note_on_c, 0, 63, 43
1, 176457, Note_on_c, 0, 66, 52
1, 176457, Control_c, 0, 64, 0
1, 176477, Note_on_c, 0, 66, 0
1, 176477, Note_on_c, 0, 63, 0
1, 176594, Note_on_c, 0, 74, 40
1, 176594, Note_on_c, 0, 71, 33
1, 176601, Control_c, 0, 64, 127
1, 176641, Note_on_c, 0, 90, 0
1, 176641, Note_on_c, 0, 78, 0
1, 176641, Note_on_c, 0, 84, 0
1, 176644, Note_on_c, 0, 71, 0
1, 176644, Note_on_c, 0, 51, 0
1, 176644, Note_on_c, 0, 46, 0
1, 176647, Note_on_c, 0, 58, 0
1, 176647, Note_on_c, 0, 74, 0
1, 176647, Note_on_c, 0, 75, 43
1, 176650, Note_on_c, 0, 72, 36
1, 176655, Control_c, 0, 64, 0
1, 176665, Note_on_c, 0, 72, 0
1, 176665, Note_on_c, 0, 75, 0
1, 176831, Note_on_c, 0, 69, 62
1, 176831, Note_on_c, 0, 81, 73
1, 176831, Note_on_c, 0, 45, 43
1, 176834, Note_on_c, 0, 57, 52
1, 176844, Control_c, 0, 64, 127
1, 176969, Note_on_c, 0, 65, 40
1, 176969, Note_on_c, 0, 62, 33
1, 177018, Note_on_c, 0, 62, 0
1, 177018, Note_on_c, 0, 65, 0
1, 177018, Note_on_c, 0, 63, 42
1, 177021, Note_on_c, 0, 66, 51
1, 177024, Control_c, 0, 64, 0
1, 177041, Note_on_c, 0, 66, 0
1, 177041, Note_on_c, 0, 63, 0
1, 177158, Note_on_c, 0, 74, 38
1, 177158, Note_on_c, 0, 71, 32
1, 177187, Control_c, 0, 64, 127
1, 177205, Note_on_c, 0, 81, 0
1, 177205, Note_on_c, 0, 69, 0
1, 177205, Note_on_c, 0, 71, 0
1, 177208, Note_on_c, 0, 45, 0
1, 177208, Note_on_c, 0, 57, 0
1, 177208, Note_on_c, 0, 74, 0
1, 177211, Note_on_c, 0, 75, 43
1, 177211, Note_on_c, 0, 72, 36
1, 177229, Note_on_c, 0, 72, 0
1, 177229, Note_on_c, 0, 75, 0
1, 177240, Control_c, 0, 64, 0
1, 177302, Note_on_c, 0, 81, 70
1, 177302, Note_on_c, 0, 69, 58
1, 177302, Note_on_c, 0, 45, 33
1, 177305, Note_on_c, 0, 57, 47
1, 177399, Note_on_c, 0, 69, 0
1, 177399, Note_on_c, 0, 81, 0
1, 177399, Note_on_c, 0, 77, 65
1, 177402, Note_on_c, 0, 89, 77
1, 177402, Note_on_c, 0, 80, 65
1, 177402, Note_on_c, 0, 57, 0
1, 177405, Note_on_c, 0, 45, 0
1, 177405, Note_on_c, 0, 59, 51
1, 177405, Note_on_c, 0, 50, 42
1, 177408, Note_on_c, 0, 47, 42
1, 177439, Control_c, 0, 64, 127
1, 177548, Note_on_c, 0, 64, 41
1, 177548, Note_on_c, 0, 61, 35
1, 177594, Control_c, 0, 64, 0
1, 177594, Note_on_c, 0, 61, 0
1, 177594, Note_on_c, 0, 64, 0
1, 177594, Note_on_c, 0, 62, 43
1, 177594, Note_on_c, 0, 65, 52
1, 177620, Note_on_c, 0, 65, 0
1, 177620, Note_on_c, 0, 62, 0
1, 177737, Note_on_c, 0, 70, 41
1, 177737, Note_on_c, 0, 67, 35
1, 177741, Control_c, 0, 64, 127
1, 177784, Note_on_c, 0, 80, 0
1, 177784, Note_on_c, 0, 89, 0
1, 177784, Note_on_c, 0, 77, 0
1, 177787, Note_on_c, 0, 67, 0
1, 177787, Note_on_c, 0, 47, 0
1, 177787, Note_on_c, 0, 59, 0
1, 177790, Note_on_c, 0, 50, 0
1, 177790, Note_on_c, 0, 70, 0
1, 177790, Note_on_c, 0, 68, 43
1, 177793, Note_on_c, 0, 71, 52
1, 177793, Control_c, 0, 64, 0
1, 177808, Note_on_c, 0, 71, 0
1, 177808, Note_on_c, 0, 68, 0
1, 177879, Note_on_c, 0, 89, 76
1, 177879, Note_on_c, 0, 77, 63
1, 177975, Note_on_c, 0, 77, 0
1, 177975, Note_on_c, 0, 89, 0
1, 177975, Note_on_c, 0, 76, 67
1, 177978, Note_on_c, 0, 80, 67
1, 177978, Note_on_c, 0, 88, 80
1, 177978, Note_on_c, 0, 40, 42
1, 177981, Note_on_c, 0, 52, 51
1, 177981, Note_on_c, 0, 47, 42
1, 177981, Control_c, 0, 64, 127
1, 178116, Note_on_c, 0, 58, 40
1, 178116, Note_on_c, 0, 55, 33
1, 178165, Note_on_c, 0, 55, 0
1, 178165, Note_on_c, 0, 58, 0
1, 178165, Note_on_c, 0, 56, 42
1, 178168, Note_on_c, 0, 59, 51
1, 178176, Control_c, 0, 64, 0
1, 178189, Note_on_c, 0, 59, 0
1, 178189, Note_on_c, 0, 56, 0
1, 178306, Note_on_c, 0, 67, 40
1, 178306, Note_on_c, 0, 63, 33
1, 178326, Control_c, 0, 64, 127
1, 178353, Note_on_c, 0, 88, 0
1, 178353, Note_on_c, 0, 80, 0
1, 178353, Note_on_c, 0, 76, 0
1, 178356, Note_on_c, 0, 63, 0
1, 178356, Note_on_c, 0, 47, 0
1, 178356, Note_on_c, 0, 40, 0
1, 178359, Note_on_c, 0, 52, 0
1, 178359, Note_on_c, 0, 67, 0
1, 178359, Note_on_c, 0, 64, 52
1, 178362, Note_on_c, 0, 68, 43
1, 178376, Control_c, 0, 64, 0
1, 178376, Note_on_c, 0, 68, 0
1, 178376, Note_on_c, 0, 64, 0
1, 178450, Note_on_c, 0, 74, 65
1, 178450, Note_on_c, 0, 86, 77
1, 178546, Note_on_c, 0, 86, 0
1, 178546, Note_on_c, 0, 74, 0
1, 178546, Note_on_c, 0, 85, 81
1, 178549, Note_on_c, 0, 73, 68
1, 178549, Note_on_c, 0, 81, 68
1, 178549, Note_on_c, 0, 45, 51
1, 178552, Note_on_c, 0, 52, 51
1, 178552, Note_on_c, 0, 57, 51
1, 178584, Control_c, 0, 64, 127
1, 178696, Note_on_c, 0, 63, 38
1, 178696, Note_on_c, 0, 60, 32
1, 178745, Note_on_c, 0, 60, 0
1, 178745, Note_on_c, 0, 63, 0
1, 178745, Note_on_c, 0, 61, 36
1, 178748, Note_on_c, 0, 64, 43
1, 178748, Control_c, 0, 64, 0
1, 178769, Note_on_c, 0, 64, 0
1, 178769, Note_on_c, 0, 61, 0
1, 178888, Note_on_c, 0, 72, 40
1, 178888, Note_on_c, 0, 68, 33
1, 178892, Control_c, 0, 64, 127
1, 178935, Note_on_c, 0, 81, 0
1, 178935, Note_on_c, 0, 73, 0
1, 178935, Note_on_c, 0, 85, 0
1, 178938, Note_on_c, 0, 68, 0
1, 178938, Note_on_c, 0, 57, 0
1, 178938, Note_on_c, 0, 45, 0
1, 178941, Note_on_c, 0, 52, 0
1, 178941, Note_on_c, 0, 72, 0
1, 178941, Note_on_c, 0, 69, 36
1, 178944, Note_on_c, 0, 73, 43
1, 178958, Control_c, 0, 64, 0
1, 178958, Note_on_c, 0, 73, 0
1, 178958, Note_on_c, 0, 69, 0
1, 179031, Note_on_c, 0, 88, 72
1, 179031, Note_on_c, 0, 76, 61
1, 179125, Control_c, 0, 64, 127
1, 179128, Note_on_c, 0, 76, 0
1, 179128, Note_on_c, 0, 88, 0
1, 179128, Note_on_c, 0, 81, 77
1, 179131, Note_on_c, 0, 73, 65
1, 179131, Note_on_c, 0, 69, 65
1, 179131, Note_on_c, 0, 45, 42
1, 179134, Note_on_c, 0, 57, 51
1, 179134, Note_on_c, 0, 52, 42
1, 179272, Note_on_c, 0, 63, 40
1, 179272, Note_on_c, 0, 60, 33
1, 179320, Note_on_c, 0, 60, 0
1, 179320, Note_on_c, 0, 63, 0
1, 179320, Note_on_c, 0, 61, 36
1, 179323, Note_on_c, 0, 64, 43
1, 179323, Control_c, 0, 64, 0
1, 179344, Note_on_c, 0, 64, 0
1, 179344, Note_on_c, 0, 61, 0
1, 179464, Note_on_c, 0, 68, 35
1, 179464, Note_on_c, 0, 72, 41
1, 179484, Control_c, 0, 64, 127
1, 179512, Note_on_c, 0, 69, 0
1, 179512, Note_on_c, 0, 73, 0
1, 179512, Note_on_c, 0, 81, 0
1, 179515, Note_on_c, 0, 72, 0
1, 179515, Note_on_c, 0, 52, 0
1, 179515, Note_on_c, 0, 45, 0
1, 179518, Note_on_c, 0, 57, 0
1, 179518, Note_on_c, 0, 68, 0
1, 179518, Note_on_c, 0, 73, 43
1, 179521, Note_on_c, 0, 69, 36
1, 179536, Note_on_c, 0, 69, 0
1, 179536, Note_on_c, 0, 73, 0
1, 179541, Control_c, 0, 64, 0
1, 179608, Note_on_c, 0, 57, 61
1, 179608, Note_on_c, 0, 69, 72
1, 179608, Note_on_c, 0, 45, 47
1, 179611, Note_on_c, 0, 33, 41
1, 179704, Note_on_c, 0, 69, 0
1, 179704, Note_on_c, 0, 57, 0
1, 179704, Note_on_c, 0, 73, 57
1, 179707, Note_on_c, 0, 79, 67
1, 179707, Note_on_c, 0, 67, 57
1, 179707, Note_on_c, 0, 33, 0
1, 179710, Note_on_c, 0, 45, 0
1, 179710, Note_on_c, 0, 46, 48
1, 179710, Note_on_c, 0, 34, 40
1, 179713, Note_on_c, 0, 40, 40
1, 179731, Control_c, 0, 64, 127
1, 179860, Note_on_c, 0, 51, 31
1, 179860, Note_on_c, 0, 54, 36
1, 179909, Note_on_c, 0, 54, 0
1, 179909, Note_on_c, 0, 51, 0
1, 179909, Note_on_c, 0, 55, 46
1, 179912, Note_on_c, 0, 52, 39
1, 179924, Control_c, 0, 64, 0
1, 179932, Note_on_c, 0, 52, 0
1, 179932, Note_on_c, 0, 55, 0
1, 180049, Note_on_c, 0, 63, 29
1, 180049, Note_on_c, 0, 60, 35
1, 180060, Control_c, 0, 64, 127
1, 180096, Note_on_c, 0, 67, 0
1, 180096, Note_on_c, 0, 79, 0
1, 180096, Note_on_c, 0, 73, 0
1, 180099, Note_on_c, 0, 60, 0
1, 180099, Note_on_c, 0, 40, 0
1, 180099, Note_on_c, 0, 46, 0
1, 180102, Note_on_c, 0, 34, 0
1, 180102, Note_on_c, 0, 63, 0
1, 180102, Note_on_c, 0, 64, 40
1, 180105, Note_on_c, 0, 61, 40
1, 180120, Note_on_c, 0, 61, 0
1, 180120, Note_on_c, 0, 64, 0
1, 180133, Control_c, 0, 64, 0
1, 180291, Note_on_c, 0, 57, 57
1, 180291, Note_on_c, 0, 69, 67
1, 180291, Note_on_c, 0, 45, 48
1, 180294, Note_on_c, 0, 33, 40
1, 180294, Control_c, 0, 64, 127
1, 180431, Note_on_c, 0, 51, 31
1, 180431, Note_on_c, 0, 54, 36
1, 180480, Note_on_c, 0, 54, 0
1, 180480, Note_on_c, 0, 51, 0
1, 180480, Note_on_c, 0, 52, 39
1, 180483, Note_on_c, 0, 55, 46
1, 180500, Control_c, 0, 64, 0
1, 180504, Note_on_c, 0, 55, 0
1, 180504, Note_on_c, 0, 52, 0
1, 180622, Note_on_c, 0, 60, 29
1, 180622, Note_on_c, 0, 63, 35
1, 180622, Control_c, 0, 64, 127
1, 180669, Note_on_c, 0, 69, 0
1, 180669, Note_on_c, 0, 57, 0
1, 180669, Note_on_c, 0, 63, 0
1, 180672, Note_on_c, 0, 45, 0
1, 180672, Note_on_c, 0, 33, 0
1, 180672, Note_on_c, 0, 60, 0
1, 180675, Note_on_c, 0, 61, 33
1, 180675, Note_on_c, 0, 64, 40
1, 180685, Control_c, 0, 64, 0
1, 180692, Note_on_c, 0, 64, 0
1, 180692, Note_on_c, 0, 61, 0
1, 180763, Note_on_c, 0, 57, 51
1, 180763, Note_on_c, 0, 69, 62
1, 180763, Note_on_c, 0, 33, 35
1, 180766, Note_on_c, 0, 45, 43
1, 180858, Note_on_c, 0, 69, 0
1, 180858, Note_on_c, 0, 57, 0
1, 180858, Note_on_c, 0, 72, 57
1, 180861, Note_on_c, 0, 66, 57
1, 180861, Note_on_c, 0, 78, 67
1, 180861, Note_on_c, 0, 45, 0
1, 180864, Note_on_c, 0, 33, 0
1, 180864, Note_on_c, 0, 46, 48
1, 180864, Note_on_c, 0, 34, 40
1, 180867, Note_on_c, 0, 39, 40
1, 180886, Control_c, 0, 64, 127
1, 181010, Note_on_c, 0, 50, 31
1, 181010, Note_on_c, 0, 53, 36
1, 181059, Note_on_c, 0, 53, 0
1, 181059, Note_on_c, 0, 50, 0
1, 181059, Note_on_c, 0, 51, 40
1, 181062, Note_on_c, 0, 54, 48
1, 181062, Control_c, 0, 64, 0
1, 181082, Note_on_c, 0, 54, 0
1, 181082, Note_on_c, 0, 51, 0
1, 181199, Note_on_c, 0, 62, 36
1, 181199, Note_on_c, 0, 59, 31
1, 181205, Control_c, 0, 64, 127
1, 181246, Note_on_c, 0, 78, 0
1, 181246, Note_on_c, 0, 66, 0
1, 181246, Note_on_c, 0, 72, 0
1, 181249, Note_on_c, 0, 59, 0
1, 181249, Note_on_c, 0, 39, 0
1, 181249, Note_on_c, 0, 46, 0
1, 181252, Note_on_c, 0, 34, 0
1, 181252, Note_on_c, 0, 62, 0
1, 181252, Note_on_c, 0, 63, 40
1, 181255, Note_on_c, 0, 60, 33
1, 181259, Control_c, 0, 64, 0
1, 181270, Note_on_c, 0, 60, 0
1, 181270, Note_on_c, 0, 63, 0
1, 181435, Note_on_c, 0, 57, 57
1, 181435, Note_on_c, 0, 69, 67
1, 181435, Note_on_c, 0, 45, 48
1, 181438, Note_on_c, 0, 33, 40
1, 181448, Control_c, 0, 64, 127
1, 181574, Note_on_c, 0, 53, 36
1, 181574, Note_on_c, 0, 50, 31
1, 181623, Note_on_c, 0, 50, 0
1, 181623, Note_on_c, 0, 53, 0
1, 181623, Note_on_c, 0, 54, 47
1, 181626, Note_on_c, 0, 51, 39
1, 181629, Control_c, 0, 64, 0
1, 181646, Note_on_c, 0, 51, 0
1, 181646, Note_on_c, 0, 54, 0
1, 181763, Note_on_c, 0, 62, 35
1, 181763, Note_on_c, 0, 59, 29
1, 181792, Control_c, 0, 64, 127
1, 181810, Note_on_c, 0, 69, 0
1, 181810, Note_on_c, 0, 57, 0
1, 181810, Note_on_c, 0, 59, 0
1, 181813, Note_on_c, 0, 45, 0
1, 181813, Note_on_c, 0, 33, 0
1, 181813, Note_on_c, 0, 62, 0
1, 181816, Note_on_c, 0, 60, 33
1, 181816, Note_on_c, 0, 63, 40
1, 181834, Note_on_c, 0, 63, 0
1, 181834, Note_on_c, 0, 60, 0
1, 181845, Control_c, 0, 64, 0
1, 181907, Note_on_c, 0, 69, 64
1, 181907, Note_on_c, 0, 57, 54
1, 181907, Note_on_c, 0, 33, 31
1, 181910, Note_on_c, 0, 45, 43
1, 182004, Note_on_c, 0, 57, 0
1, 182004, Note_on_c, 0, 69, 0
1, 182004, Note_on_c, 0, 65, 59
1, 182007, Note_on_c, 0, 68, 59
1, 182007, Note_on_c, 0, 77, 71
1, 182007, Note_on_c, 0, 45, 0
1, 182010, Note_on_c, 0, 33, 0
1, 182010, Note_on_c, 0, 47, 47
1, 182010, Note_on_c, 0, 35, 39
1, 182013, Note_on_c, 0, 38, 39
1, 182043, Control_c, 0, 64, 127
1, 182153, Note_on_c, 0, 55, 37
1, 182153, Note_on_c, 0, 52, 32
1, 182199, Control_c, 0, 64, 0
1, 182199, Note_on_c, 0, 52, 0
1, 182199, Note_on_c, 0, 55, 0
1, 182199, Note_on_c, 0, 56, 48
1, 182199, Note_on_c, 0, 53, 40
1, 182225, Note_on_c, 0, 53, 0
1, 182225, Note_on_c, 0, 56, 0
1, 182342, Note_on_c, 0, 61, 32
1, 182342, Note_on_c, 0, 64, 37
1, 182345, Control_c, 0, 64, 127
1, 182388, Note_on_c, 0, 77, 0
1, 182388, Note_on_c, 0, 68, 0
1, 182388, Note_on_c, 0, 65, 0
1, 182391, Note_on_c, 0, 64, 0
1, 182391, Note_on_c, 0, 38, 0
1, 182391, Note_on_c, 0, 47, 0
1, 182394, Note_on_c, 0, 35, 0
1, 182394, Note_on_c, 0, 61, 0
1, 182394, Note_on_c, 0, 65, 48
1, 182397, Note_on_c, 0, 62, 40
1, 182400, Control_c, 0, 64, 0
1, 182412, Note_on_c, 0, 62, 0
1, 182412, Note_on_c, 0, 65, 0
1, 182484, Note_on_c, 0, 65, 58
1, 182484, Note_on_c, 0, 77, 70
1, 182580, Note_on_c, 0, 77, 0
1, 182580, Note_on_c, 0, 65, 0
1, 182580, Note_on_c, 0, 68, 62
1, 182583, Note_on_c, 0, 76, 73
1, 182583, Note_on_c, 0, 64, 62
1, 182583, Note_on_c, 0, 34, 39
1, 182586, Note_on_c, 0, 38, 39
1, 182586, Note_on_c, 0, 46, 47
1, 182586, Control_c, 0, 64, 127
1, 182721, Note_on_c, 0, 51, 36
1, 182770, Note_on_c, 0, 51, 0
1, 182770, Note_on_c, 0, 52, 47
1, 182781, Control_c, 0, 64, 0
1, 182794, Note_on_c, 0, 52, 0
1, 182911, Note_on_c, 0, 55, 36
1, 182931, Control_c, 0, 64, 127
1, 182958, Note_on_c, 0, 64, 0
1, 182958, Note_on_c, 0, 76, 0
1, 182958, Note_on_c, 0, 68, 0
1, 182961, Note_on_c, 0, 55, 0
1, 182961, Note_on_c, 0, 34, 0
1, 182961, Note_on_c, 0, 38, 0
1, 182964, Note_on_c, 0, 46, 0
1, 182964, Note_on_c, 0, 56, 40
1, 182981, Control_c, 0, 64, 0
1, 182981, Note_on_c, 0, 56, 0
1, 183055, Note_on_c, 0, 74, 71
1, 183055, Note_on_c, 0, 62, 59
1, 183151, Note_on_c, 0, 62, 0
1, 183151, Note_on_c, 0, 74, 0
1, 183151, Note_on_c, 0, 69, 63
1, 183154, Note_on_c, 0, 61, 63
1, 183154, Note_on_c, 0, 73, 74
1, 183154, Note_on_c, 0, 33, 47
1, 183157, Note_on_c, 0, 45, 47
1, 183157, Note_on_c, 0, 40, 47
1, 183188, Control_c, 0, 64, 127
1, 183349, Note_on_c, 0, 73, 0
1, 183349, Note_on_c, 0, 61, 0
1, 183349, Note_on_c, 0, 69, 0
1, 183352, Note_on_c, 0, 40, 0
1, 183352, Note_on_c, 0, 45, 0
1, 183352, Note_on_c, 0, 33, 0
1, 183355, Note_on_c, 0, 46, 43
1, 183355, Note_on_c, 0, 55, 51
1, 183443, Note_on_c, 0, 64, 49
1, 183443, Note_on_c, 0, 73, 58
1, 183443, Note_on_c, 0, 55, 0
1, 183446, Note_on_c, 0, 46, 0
1, 183536, Note_on_c, 0, 73, 0
1, 183536, Note_on_c, 0, 64, 0
1, 183536, Note_on_c, 0, 49, 44
1, 183539, Note_on_c, 0, 58, 53
1, 183628, Note_on_c, 0, 67, 51
1, 183628, Note_on_c, 0, 76, 60
1, 183628, Note_on_c, 0, 58, 0
1, 183631, Note_on_c, 0, 49, 0
1, 183719, Note_on_c, 0, 76, 0
1, 183719, Note_on_c, 0, 67, 0
1, 183719, Note_on_c, 0, 61, 55
1, 183722, Note_on_c, 0, 52, 47
1, 183810, Note_on_c, 0, 70, 63
1, 183810, Note_on_c, 0, 79, 63
1, 183810, Note_on_c, 0, 52, 0
1, 183813, Note_on_c, 0, 61, 0
1, 183901, Note_on_c, 0, 79, 0
1, 183901, Note_on_c, 0, 70, 0
1, 183901, Note_on_c, 0, 64, 58
1, 183904, Note_on_c, 0, 55, 49
1, 183994, Note_on_c, 0, 82, 65
1, 183994, Note_on_c, 0, 73, 54
1, 183994, Note_on_c, 0, 55, 0
1, 183997, Note_on_c, 0, 64, 0
1, 184088, Note_on_c, 0, 73, 0
1, 184088, Note_on_c, 0, 82, 0
1, 184088, Note_on_c, 0, 83, 80
1, 184091, Note_on_c, 0, 80, 67
1, 184091, Note_on_c, 0, 71, 67
1, 184091, Note_on_c, 0, 77, 67
1, 184094, Note_on_c, 0, 50, 59
1, 184094, Note_on_c, 0, 62, 72
1, 184094, Control_c, 0, 64, 0
1, 184191, Note_on_c, 0, 77, 0
1, 184191, Note_on_c, 0, 83, 0
1, 184191, Note_on_c, 0, 80, 0
1, 184194, Note_on_c, 0, 71, 0
1, 184194, Note_on_c, 0, 62, 0
1, 184194, Note_on_c, 0, 50, 0
1, 184294, Note_on_c, 0, 76, 71
1, 184294, Note_on_c, 0, 88, 84
1, 184294, Note_on_c, 0, 85, 71
1, 184297, Note_on_c, 0, 81, 71
1, 184297, Note_on_c, 0, 57, 75
1, 184297, Note_on_c, 0, 45, 63
1, 184393, Note_on_c, 0, 81, 0
1, 184393, Note_on_c, 0, 76, 0
1, 184393, Note_on_c, 0, 88, 0
1, 184396, Note_on_c, 0, 85, 0
1, 184396, Note_on_c, 0, 45, 0
1, 184396, Note_on_c, 0, 57, 0
1, 184491, Note_on_c, 0, 67, 66
1, 184491, Note_on_c, 0, 58, 55
1, 184529, Control_c, 0, 64, 127
1, 184584, Note_on_c, 0, 85, 64
1, 184584, Note_on_c, 0, 76, 53
1, 184584, Note_on_c, 0, 58, 0
1, 184587, Note_on_c, 0, 67, 0
1, 184676, Note_on_c, 0, 76, 0
1, 184676, Note_on_c, 0, 85, 0
1, 184676, Note_on_c, 0, 61, 57
1, 184679, Note_on_c, 0, 70, 69
1, 184768, Note_on_c, 0, 79, 55
1, 184768, Note_on_c, 0, 88, 66
1, 184768, Note_on_c, 0, 70, 0
1, 184771, Note_on_c, 0, 61, 0
1, 184858, Note_on_c, 0, 88, 0
1, 184858, Note_on_c, 0, 79, 0
1, 184858, Note_on_c, 0, 73, 69
1, 184861, Note_on_c, 0, 64, 60
1, 184949, Note_on_c, 0, 91, 69
1, 184949, Note_on_c, 0, 82, 69
1, 184949, Note_on_c, 0, 64, 0
1, 184952, Note_on_c, 0, 73, 0
1, 185041, Note_on_c, 0, 82, 0
1, 185041, Note_on_c, 0, 91, 0
1, 185041, Note_on_c, 0, 67, 64
1, 185044, Note_on_c, 0, 76, 75
1, 185134, Note_on_c, 0, 94, 71
1, 185134, Note_on_c, 0, 85, 59
1, 185134, Note_on_c, 0, 76, 0
1, 185137, Note_on_c, 0, 67, 0
1, 185229, Note_on_c, 0, 85, 0
1, 185229, Note_on_c, 0, 94, 0
1, 185229, Note_on_c, 0, 89, 64
1, 185232, Note_on_c, 0, 83, 64
1, 185232, Note_on_c, 0, 92, 64
1, 185232, Note_on_c, 0, 95, 77
1, 185235, Note_on_c, 0, 62, 72
1, 185235, Note_on_c, 0, 74, 86
1, 185276, Control_c, 0, 64, 0
1, 185333, Note_on_c, 0, 95, 0
1, 185333, Note_on_c, 0, 89, 0
1, 185333, Note_on_c, 0, 83, 0
1, 185336, Note_on_c, 0, 92, 0
1, 185336, Note_on_c, 0, 74, 0
1, 185336, Note_on_c, 0, 62, 0
1, 185437, Note_on_c, 0, 97, 67
1, 185437, Note_on_c, 0, 88, 67
1, 185437, Note_on_c, 0, 93, 67
1, 185440, Note_on_c, 0, 100, 79
1, 185440, Note_on_c, 0, 69, 71
1, 185440, Note_on_c, 0, 57, 59
1, 185534, Note_on_c, 0, 100, 0
1, 185534, Note_on_c, 0, 97, 0
1, 185534, Note_on_c, 0, 88, 0
1, 185537, Note_on_c, 0, 93, 0
1, 185537, Note_on_c, 0, 57, 0
1, 185537, Note_on_c, 0, 69, 0
1, 185717, Control_c, 0, 64, 127
1, 185727, Note_on_c, 0, 92, 57
1, 185727, Note_on_c, 0, 95, 69
1, 185727, Note_on_c, 0, 83, 57
1, 185730, Note_on_c, 0, 89, 57
1, 185730, Note_on_c, 0, 62, 86
1, 185730, Note_on_c, 0, 50, 72
1, 185830, Note_on_c, 0, 89, 0
1, 185830, Note_on_c, 0, 92, 0
1, 185830, Note_on_c, 0, 95, 0
1, 185833, Note_on_c, 0, 83, 0
1, 185833, Note_on_c, 0, 97, 59
1, 185833, Note_on_c, 0, 100, 71
1, 185836, Note_on_c, 0, 93, 59
1, 185836, Note_on_c, 0, 88, 59
1, 185836, Note_on_c, 0, 50, 0
1, 185839, Note_on_c, 0, 62, 0
1, 185839, Note_on_c, 0, 57, 64
1, 185839, Note_on_c, 0, 45, 53
1, 185921, Control_c, 0, 64, 0
1, 185924, Note_on_c, 0, 88, 0
1, 185924, Note_on_c, 0, 97, 0
1, 185924, Note_on_c, 0, 100, 0
1, 185927, Note_on_c, 0, 93, 0
1, 185927, Note_on_c, 0, 45, 0
1, 185927, Note_on_c, 0, 57, 0
1, 186018, Note_on_c, 0, 92, 57
1, 186018, Note_on_c, 0, 83, 57
1, 186018, Note_on_c, 0, 95, 70
1, 186021, Note_on_c, 0, 89, 57
1, 186021, Note_on_c, 0, 38, 72
1, 186021, Note_on_c, 0, 50, 86
1, 186046, Control_c, 0, 64, 127
1, 186119, Note_on_c, 0, 89, 0
1, 186119, Note_on_c, 0, 92, 0
1, 186119, Note_on_c, 0, 83, 0
1, 186122, Note_on_c, 0, 95, 0
1, 186122, Note_on_c, 0, 50, 0
1, 186122, Note_on_c, 0, 38, 0
1, 186219, Note_on_c, 0, 93, 61
1, 186219, Note_on_c, 0, 97, 61
1, 186219, Note_on_c, 0, 100, 73
1, 186222, Note_on_c, 0, 88, 61
1, 186222, Note_on_c, 0, 45, 65
1, 186222, Note_on_c, 0, 33, 55
1, 186314, Note_on_c, 0, 88, 0
1, 186314, Note_on_c, 0, 93, 0
1, 186314, Note_on_c, 0, 97, 0
1, 186317, Note_on_c, 0, 100, 0
1, 186317, Note_on_c, 0, 33, 0
1, 186317, Note_on_c, 0, 45, 0
1, 186320, Control_c, 0, 64, 0
1, 186409, Note_on_c, 0, 83, 59
1, 186409, Note_on_c, 0, 92, 59
1, 186409, Note_on_c, 0, 89, 59
1, 186412, Note_on_c, 0, 95, 71
1, 186412, Note_on_c, 0, 50, 86
1, 186412, Note_on_c, 0, 38, 72
1, 186465, Control_c, 0, 64, 127
1, 186510, Note_on_c, 0, 95, 0
1, 186510, Note_on_c, 0, 83, 0
1, 186510, Note_on_c, 0, 92, 0
1, 186513, Note_on_c, 0, 89, 0
1, 186513, Note_on_c, 0, 38, 0
1, 186513, Note_on_c, 0, 50, 0
1, 186611, Note_on_c, 0, 93, 61
1, 186611, Note_on_c, 0, 97, 61
1, 186611, Note_on_c, 0, 100, 74
1, 186614, Note_on_c, 0, 88, 61
1, 186614, Note_on_c, 0, 45, 66
1, 186614, Note_on_c, 0, 33, 55
1, 186617, Control_c, 0, 64, 0
1, 186705, Note_on_c, 0, 88, 0
1, 186705, Note_on_c, 0, 93, 0
1, 186705, Note_on_c, 0, 97, 0
1, 186708, Note_on_c, 0, 100, 0
1, 186708, Note_on_c, 0, 33, 0
1, 186708, Note_on_c, 0, 45, 0
1, 186887, Control_c, 0, 64, 127
1, 186897, Note_on_c, 0, 89, 60
1, 186897, Note_on_c, 0, 95, 73
1, 186897, Note_on_c, 0, 92, 60
1, 186900, Note_on_c, 0, 83, 60
1, 186900, Note_on_c, 0, 62, 86
1, 186900, Note_on_c, 0, 50, 72
1, 187001, Note_on_c, 0, 83, 0
1, 187001, Note_on_c, 0, 89, 0
1, 187001, Note_on_c, 0, 95, 0
1, 187004, Note_on_c, 0, 92, 0
1, 187004, Note_on_c, 0, 88, 64
1, 187004, Note_on_c, 0, 93, 64
1, 187007, Note_on_c, 0, 100, 75
1, 187007, Note_on_c, 0, 97, 64
1, 187007, Note_on_c, 0, 50, 0
1, 187010, Note_on_c, 0, 62, 0
1, 187010, Note_on_c, 0, 45, 56
1, 187010, Note_on_c, 0, 57, 67
1, 187092, Control_c, 0, 64, 0
1, 187096, Note_on_c, 0, 97, 0
1, 187096, Note_on_c, 0, 88, 0
1, 187096, Note_on_c, 0, 93, 0
1, 187099, Note_on_c, 0, 100, 0
1, 187099, Note_on_c, 0, 57, 0
1, 187099, Note_on_c, 0, 45, 0
1, 187190, Note_on_c, 0, 89, 61
1, 187190, Note_on_c, 0, 92, 61
1, 187190, Note_on_c, 0, 95, 73
1, 187193, Note_on_c, 0, 83, 61
1, 187193, Note_on_c, 0, 50, 86
1, 187193, Note_on_c, 0, 38, 72
1, 187218, Control_c, 0, 64, 127
1, 187290, Note_on_c, 0, 83, 0
1, 187290, Note_on_c, 0, 89, 0
1, 187290, Note_on_c, 0, 92, 0
1, 187293, Note_on_c, 0, 95, 0
1, 187293, Note_on_c, 0, 38, 0
1, 187293, Note_on_c, 0, 50, 0
1, 187389, Note_on_c, 0, 88, 64
1, 187389, Note_on_c, 0, 97, 64
1, 187389, Note_on_c, 0, 93, 64
1, 187392, Note_on_c, 0, 100, 76
1, 187392, Note_on_c, 0, 45, 68
1, 187392, Note_on_c, 0, 33, 57
1, 187485, Note_on_c, 0, 100, 0
1, 187485, Note_on_c, 0, 88, 0
1, 187485, Note_on_c, 0, 97, 0
1, 187488, Note_on_c, 0, 93, 0
1, 187488, Note_on_c, 0, 33, 0
1, 187488, Note_on_c, 0, 45, 0
1, 187491, Control_c, 0, 64, 0
1, 187580, Note_on_c, 0, 92, 61
1, 187580, Note_on_c, 0, 89, 61
1, 187580, Note_on_c, 0, 95, 74
1, 187583, Note_on_c, 0, 83, 61
1, 187583, Note_on_c, 0, 50, 86
1, 187583, Note_on_c, 0, 38, 72
1, 187636, Control_c, 0, 64, 127
1, 187682, Note_on_c, 0, 83, 0
1, 187682, Note_on_c, 0, 92, 0
1, 187682, Note_on_c, 0, 89, 0
1, 187685, Note_on_c, 0, 95, 0
1, 187685, Note_on_c, 0, 38, 0
1, 187685, Note_on_c, 0, 50, 0
1, 187784, Note_on_c, 0, 97, 66
1, 187784, Note_on_c, 0, 88, 66
1, 187784, Note_on_c, 0, 100, 78
1, 187787, Note_on_c, 0, 93, 66
1, 187787, Note_on_c, 0, 33, 58
1, 187787, Note_on_c, 0, 45, 69
1, 187790, Control_c, 0, 64, 0
1, 187885, Note_on_c, 0, 93, 0
1, 187885, Note_on_c, 0, 97, 0
1, 187885, Note_on_c, 0, 88, 0
1, 187888, Note_on_c, 0, 100, 0
1, 187888, Note_on_c, 0, 45, 0
1, 187888, Note_on_c, 0, 33, 0
1, 187986, Note_on_c, 0, 80, 55
1, 187986, Note_on_c, 0, 68, 47
1, 187986, Note_on_c, 0, 56, 40
1, 187989, Note_on_c, 0, 44, 34
1, 188008, Control_c, 0, 64, 127
1, 188081, Note_on_c, 0, 68, 0
1, 188081, Note_on_c, 0, 80, 0
1, 188081, Note_on_c, 0, 69, 47
1, 188084, Note_on_c, 0, 81, 55
1, 188084, Note_on_c, 0, 44, 0
1, 188084, Note_on_c, 0, 56, 0
1, 188087, Note_on_c, 0, 45, 34
1, 188087, Note_on_c, 0, 57, 40
1, 188176, Note_on_c, 0, 81, 0
1, 188176, Note_on_c, 0, 69, 0
1, 188176, Note_on_c, 0, 82, 59
1, 188179, Note_on_c, 0, 70, 50
1, 188179, Note_on_c, 0, 57, 0
1, 188179, Note_on_c, 0, 45, 0
1, 188182, Note_on_c, 0, 46, 36
1, 188182, Note_on_c, 0, 58, 45
1, 188189, Control_c, 0, 64, 0
1, 188274, Note_on_c, 0, 70, 0
1, 188274, Note_on_c, 0, 82, 0
1, 188274, Note_on_c, 0, 58, 0
1, 188277, Note_on_c, 0, 46, 0
1, 188373, Note_on_c, 0, 81, 57
1, 188373, Note_on_c, 0, 69, 49
1, 188373, Note_on_c, 0, 45, 35
1, 188376, Note_on_c, 0, 57, 42
1, 188391, Control_c, 0, 64, 127
1, 188468, Note_on_c, 0, 69, 0
1, 188468, Note_on_c, 0, 81, 0
1, 188468, Note_on_c, 0, 82, 58
1, 188471, Note_on_c, 0, 70, 49
1, 188471, Note_on_c, 0, 57, 0
1, 188471, Note_on_c, 0, 45, 0
1, 188474, Note_on_c, 0, 46, 35
1, 188474, Note_on_c, 0, 58, 44
1, 188549, Control_c, 0, 64, 0
1, 188563, Note_on_c, 0, 70, 0
1, 188563, Note_on_c, 0, 82, 0
1, 188563, Note_on_c, 0, 83, 63
1, 188566, Note_on_c, 0, 71, 53
1, 188566, Note_on_c, 0, 58, 0
1, 188566, Note_on_c, 0, 46, 0
1, 188569, Note_on_c, 0, 59, 47
1, 188569, Note_on_c, 0, 47, 38
1, 188661, Note_on_c, 0, 71, 0
1, 188661, Note_on_c, 0, 83, 0
1, 188661, Note_on_c, 0, 47, 0
1, 188664, Note_on_c, 0, 59, 0
1, 188759, Note_on_c, 0, 82, 60
1, 188759, Note_on_c, 0, 70, 51
1, 188759, Note_on_c, 0, 46, 37
1, 188762, Note_on_c, 0, 58, 46
1, 188781, Control_c, 0, 64, 127
1, 188854, Note_on_c, 0, 70, 0
1, 188854, Note_on_c, 0, 82, 0
1, 188854, Note_on_c, 0, 71, 52
1, 188857, Note_on_c, 0, 83, 61
1, 188857, Note_on_c, 0, 58, 0
1, 188857, Note_on_c, 0, 46, 0
1, 188860, Note_on_c, 0, 47, 38
1, 188860, Note_on_c, 0, 59, 46
1, 188950, Note_on_c, 0, 83, 0
1, 188950, Note_on_c, 0, 71, 0
1, 188950, Note_on_c, 0, 84, 67
1, 188953, Note_on_c, 0, 72, 55
1, 188953, Note_on_c, 0, 59, 0
1, 188953, Note_on_c, 0, 47, 0
1, 188956, Note_on_c, 0, 48, 40
1, 188956, Note_on_c, 0, 60, 49
1, 188956, Control_c, 0, 64, 0
1, 189048, Note_on_c, 0, 72, 0
1, 189048, Note_on_c, 0, 84, 0
1, 189048, Note_on_c, 0, 60, 0
1, 189051, Note_on_c, 0, 48, 0
1, 189146, Note_on_c, 0, 81, 60
1, 189146, Note_on_c, 0, 69, 51
1, 189146, Note_on_c, 0, 45, 37
1, 189149, Note_on_c, 0, 57, 46
1, 189164, Control_c, 0, 64, 127
1, 189243, Note_on_c, 0, 69, 0
1, 189243, Note_on_c, 0, 81, 0
1, 189243, Note_on_c, 0, 82, 60
1, 189246, Note_on_c, 0, 70, 51
1, 189246, Note_on_c, 0, 57, 0
1, 189246, Note_on_c, 0, 45, 0
1, 189249, Note_on_c, 0, 58, 46
1, 189249, Note_on_c, 0, 46, 37
1, 189339, Note_on_c, 0, 70, 0
1, 189339, Note_on_c, 0, 82, 0
1, 189339, Note_on_c, 0, 71, 54
1, 189342, Note_on_c, 0, 83, 64
1, 189342, Note_on_c, 0, 46, 0
1, 189342, Note_on_c, 0, 58, 0
1, 189345, Note_on_c, 0, 59, 48
1, 189345, Note_on_c, 0, 47, 39
1, 189348, Control_c, 0, 64, 0
1, 189438, Note_on_c, 0, 83, 0
1, 189438, Note_on_c, 0, 71, 0
1, 189438, Note_on_c, 0, 47, 0
1, 189441, Note_on_c, 0, 59, 0
1, 189536, Note_on_c, 0, 70, 52
1, 189536, Note_on_c, 0, 82, 61
1, 189536, Note_on_c, 0, 46, 38
1, 189539, Note_on_c, 0, 58, 46
1, 189573, Control_c, 0, 64, 127
1, 189633, Note_on_c, 0, 82, 0
1, 189633, Note_on_c, 0, 70, 0
1, 189633, Note_on_c, 0, 83, 63
1, 189636, Note_on_c, 0, 71, 53
1, 189636, Note_on_c, 0, 58, 0
1, 189636, Note_on_c, 0, 46, 0
1, 189639, Note_on_c, 0, 59, 47
1, 189639, Note_on_c, 0, 47, 38
1, 189729, Note_on_c, 0, 71, 0
1, 189729, Note_on_c, 0, 83, 0
1, 189729, Note_on_c, 0, 84, 68
1, 189732, Note_on_c, 0, 72, 57
1, 189732, Note_on_c, 0, 47, 0
1, 189732, Note_on_c, 0, 59, 0
1, 189735, Note_on_c, 0, 60, 50
1, 189735, Note_on_c, 0, 48, 42
1, 189748, Control_c, 0, 64, 0
1, 189829, Note_on_c, 0, 72, 0
1, 189829, Note_on_c, 0, 84, 0
1, 189829, Note_on_c, 0, 48, 0
1, 189832, Note_on_c, 0, 60, 0
1, 189928, Note_on_c, 0, 83, 66
1, 189928, Note_on_c, 0, 71, 55
1, 189928, Note_on_c, 0, 47, 40
1, 189931, Note_on_c, 0, 59, 49
1, 189969, Control_c, 0, 64, 127
1, 190024, Note_on_c, 0, 71, 0
1, 190024, Note_on_c, 0, 83, 0
1, 190024, Note_on_c, 0, 72, 56
1, 190027, Note_on_c, 0, 84, 67
1, 190027, Note_on_c, 0, 59, 0
1, 190027, Note_on_c, 0, 47, 0
1, 190030, Note_on_c, 0, 48, 42
1, 190030, Note_on_c, 0, 60, 49
1, 190120, Note_on_c, 0, 84, 0
1, 190120, Note_on_c, 0, 72, 0
1, 190120, Note_on_c, 0, 85, 72
1, 190123, Note_on_c, 0, 73, 60
1, 190123, Note_on_c, 0, 60, 0
1, 190123, Note_on_c, 0, 48, 0
1, 190126, Note_on_c, 0, 49, 46
1, 190126, Note_on_c, 0, 61, 53
1, 190139, Control_c, 0, 64, 0
1, 190219, Note_on_c, 0, 73, 0
1, 190219, Note_on_c, 0, 85, 0
1, 190219, Note_on_c, 0, 61, 0
1, 190222, Note_on_c, 0, 49, 0
1, 190317, Note_on_c, 0, 70, 57
1, 190317, Note_on_c, 0, 82, 69
1, 190317, Note_on_c, 0, 58, 51
1, 190320, Note_on_c, 0, 46, 42
1, 190367, Control_c, 0, 64, 127
1, 190413, Note_on_c, 0, 82, 0
1, 190413, Note_on_c, 0, 70, 0
1, 190413, Note_on_c, 0, 83, 69
1, 190416, Note_on_c, 0, 71, 57
1, 190416, Note_on_c, 0, 46, 0
1, 190416, Note_on_c, 0, 58, 0
1, 190419, Note_on_c, 0, 59, 51
1, 190419, Note_on_c, 0, 47, 42
1, 190509, Note_on_c, 0, 71, 0
1, 190509, Note_on_c, 0, 83, 0
1, 190509, Note_on_c, 0, 84, 74
1, 190512, Note_on_c, 0, 72, 61
1, 190512, Note_on_c, 0, 47, 0
1, 190512, Note_on_c, 0, 59, 0
1, 190515, Note_on_c, 0, 48, 46
1, 190515, Note_on_c, 0, 60, 55
1, 190532, Control_c, 0, 64, 0
1, 190608, Note_on_c, 0, 72, 0
1, 190608, Note_on_c, 0, 84, 0
1, 190608, Note_on_c, 0, 60, 0
1, 190611, Note_on_c, 0, 48, 0
1, 190707, Note_on_c, 0, 71, 59
1, 190707, Note_on_c, 0, 83, 71
1, 190707, Note_on_c, 0, 59, 52
1, 190710, Note_on_c, 0, 47, 45
1, 190753, Control_c, 0, 64, 127
1, 190803, Note_on_c, 0, 83, 0
1, 190803, Note_on_c, 0, 71, 0
1, 190803, Note_on_c, 0, 84, 72
1, 190806, Note_on_c, 0, 72, 60
1, 190806, Note_on_c, 0, 47, 0
1, 190806, Note_on_c, 0, 59, 0
1, 190809, Note_on_c, 0, 48, 46
1, 190809, Note_on_c, 0, 60, 53
1, 190900, Note_on_c, 0, 72, 0
1, 190900, Note_on_c, 0, 84, 0
1, 190900, Note_on_c, 0, 85, 77
1, 190903, Note_on_c, 0, 73, 64
1, 190903, Note_on_c, 0, 60, 0
1, 190903, Note_on_c, 0, 48, 0
1, 190906, Note_on_c, 0, 61, 57
1, 190906, Note_on_c, 0, 49, 48
1, 190933, Control_c, 0, 64, 0
1, 191000, Note_on_c, 0, 73, 0
1, 191000, Note_on_c, 0, 85, 0
1, 191000, Note_on_c, 0, 49, 0
1, 191003, Note_on_c, 0, 61, 0
1, 191100, Note_on_c, 0, 72, 61
1, 191100, Note_on_c, 0, 84, 74
1, 191100, Note_on_c, 0, 48, 46
1, 191103, Note_on_c, 0, 60, 55
1, 191146, Control_c, 0, 64, 127
1, 191197, Note_on_c, 0, 84, 0
1, 191197, Note_on_c, 0, 72, 0
1, 191197, Note_on_c, 0, 73, 61
1, 191200, Note_on_c, 0, 85, 74
1, 191200, Note_on_c, 0, 60, 0
1, 191200, Note_on_c, 0, 48, 0
1, 191203, Note_on_c, 0, 49, 46
1, 191203, Note_on_c, 0, 61, 55
1, 191332, Note_on_c, 0, 85, 0
1, 191332, Note_on_c, 0, 73, 0
1, 191332, Note_on_c, 0, 86, 83
1, 191335, Note_on_c, 0, 74, 70
1, 191335, Note_on_c, 0, 61, 0
1, 191335, Note_on_c, 0, 49, 0
1, 191338, Note_on_c, 0, 38, 49
1, 191338, Note_on_c, 0, 50, 58
1, 191400, Control_c, 0, 64, 0
1, 191448, Control_c, 0, 64, 127
1, 191488, Note_on_c, 0, 74, 0
1, 191488, Note_on_c, 0, 86, 0
1, 191488, Note_on_c, 0, 68, 50
1, 191491, Note_on_c, 0, 65, 42
1, 191491, Note_on_c, 0, 50, 0
1, 191491, Note_on_c, 0, 38, 0
1, 191494, Note_on_c, 0, 62, 29
1, 191494, Note_on_c, 0, 53, 29
1, 191494, Note_on_c, 0, 56, 35
1, 191538, Note_on_c, 0, 65, 0
1, 191538, Note_on_c, 0, 68, 0
1, 191538, Note_on_c, 0, 69, 60
1, 191541, Note_on_c, 0, 66, 51
1, 191541, Note_on_c, 0, 56, 0
1, 191541, Note_on_c, 0, 53, 0
1, 191544, Note_on_c, 0, 62, 0
1, 191544, Note_on_c, 0, 57, 42
1, 191544, Note_on_c, 0, 54, 35
1, 191687, Note_on_c, 0, 66, 0
1, 191687, Note_on_c, 0, 69, 0
1, 191687, Note_on_c, 0, 54, 0
1, 191690, Note_on_c, 0, 57, 0
1, 191694, Control_c, 0, 64, 0
1, 191736, Note_on_c, 0, 86, 83
1, 191736, Note_on_c, 0, 74, 70
1, 191736, Note_on_c, 0, 50, 49
1, 191739, Note_on_c, 0, 38, 49
1, 191788, Control_c, 0, 64, 127
1, 191885, Note_on_c, 0, 74, 0
1, 191885, Note_on_c, 0, 86, 0
1, 191885, Note_on_c, 0, 68, 50
1, 191888, Note_on_c, 0, 65, 42
1, 191888, Note_on_c, 0, 38, 0
1, 191888, Note_on_c, 0, 50, 0
1, 191891, Note_on_c, 0, 56, 35
1, 191891, Note_on_c, 0, 62, 29
1, 191891, Note_on_c, 0, 53, 29
1, 191934, Note_on_c, 0, 65, 0
1, 191934, Note_on_c, 0, 68, 0
1, 191934, Note_on_c, 0, 69, 60
1, 191937, Note_on_c, 0, 66, 51
1, 191937, Note_on_c, 0, 53, 0
1, 191937, Note_on_c, 0, 62, 0
1, 191940, Note_on_c, 0, 56, 0
1, 191940, Note_on_c, 0, 54, 35
1, 191940, Note_on_c, 0, 57, 42
1, 192033, Note_on_c, 0, 84, 68
1, 192033, Note_on_c, 0, 72, 57
1, 192087, Note_on_c, 0, 66, 0
1, 192087, Note_on_c, 0, 69, 0
1, 192087, Note_on_c, 0, 57, 0
1, 192090, Note_on_c, 0, 54, 0
1, 192140, Note_on_c, 0, 84, 0
1, 192140, Note_on_c, 0, 72, 0
1, 192140, Note_on_c, 0, 82, 83
1, 192143, Note_on_c, 0, 70, 70
1, 192143, Note_on_c, 0, 38, 49
1, 192143, Note_on_c, 0, 50, 58
1, 192146, Control_c, 0, 64, 0
1, 192193, Control_c, 0, 64, 127
1, 192288, Note_on_c, 0, 70, 0
1, 192288, Note_on_c, 0, 82, 0
1, 192288, Note_on_c, 0, 66, 50
1, 192291, Note_on_c, 0, 63, 42
1, 192291, Note_on_c, 0, 50, 0
1, 192291, Note_on_c, 0, 38, 0
1, 192294, Note_on_c, 0, 57, 35
1, 192294, Note_on_c, 0, 54, 29
1, 192338, Note_on_c, 0, 63, 0
1, 192338, Note_on_c, 0, 66, 0
1, 192338, Note_on_c, 0, 64, 51
1, 192341, Note_on_c, 0, 67, 60
1, 192341, Note_on_c, 0, 54, 0
1, 192341, Note_on_c, 0, 57, 0
1, 192344, Note_on_c, 0, 55, 35
1, 192344, Note_on_c, 0, 58, 42
1, 192489, Note_on_c, 0, 67, 0
1, 192489, Note_on_c, 0, 64, 0
1, 192489, Note_on_c, 0, 58, 0
1, 192492, Note_on_c, 0, 55, 0
1, 192524, Control_c, 0, 64, 0
1, 192542, Note_on_c, 0, 82, 84
1, 192542, Note_on_c, 0, 70, 71
1, 192542, Note_on_c, 0, 50, 58
1, 192545, Note_on_c, 0, 38, 49
1, 192582, Control_c, 0, 64, 127
1, 192691, Note_on_c, 0, 70, 0
1, 192691, Note_on_c, 0, 82, 0
1, 192691, Note_on_c, 0, 63, 42
1, 192694, Note_on_c, 0, 66, 50
1, 192694, Note_on_c, 0, 38, 0
1, 192694, Note_on_c, 0, 50, 0
1, 192697, Note_on_c, 0, 57, 35
1, 192697, Note_on_c, 0, 54, 29
1, 192741, Note_on_c, 0, 66, 0
1, 192741, Note_on_c, 0, 63, 0
1, 192741, Note_on_c, 0, 67, 60
1, 192744, Note_on_c, 0, 64, 51
1, 192744, Note_on_c, 0, 54, 0
1, 192744, Note_on_c, 0, 57, 0
1, 192747, Note_on_c, 0, 55, 35
1, 192747, Note_on_c, 0, 58, 42
1, 192841, Note_on_c, 0, 82, 68
1, 192841, Note_on_c, 0, 70, 57
1, 192895, Note_on_c, 0, 64, 0
1, 192895, Note_on_c, 0, 67, 0
1, 192895, Note_on_c, 0, 58, 0
1, 192898, Note_on_c, 0, 55, 0
1, 192907, Control_c, 0, 64, 0
1, 192949, Note_on_c, 0, 82, 0
1, 192949, Note_on_c, 0, 70, 0
1, 192949, Note_on_c, 0, 81, 82
1, 192952, Note_on_c, 0, 69, 69
1, 192952, Note_on_c, 0, 49, 57
1, 192952, Note_on_c, 0, 37, 48
1, 192977, Control_c, 0, 64, 127
1, 193099, Note_on_c, 0, 69, 0
1, 193099, Note_on_c, 0, 81, 0
1, 193099, Note_on_c, 0, 63, 50
1, 193102, Note_on_c, 0, 60, 42
1, 193102, Note_on_c, 0, 37, 0
1, 193102, Note_on_c, 0, 49, 0
1, 193105, Note_on_c, 0, 51, 29
1, 193105, Note_on_c, 0, 54, 35
1, 193149, Note_on_c, 0, 60, 0
1, 193149, Note_on_c, 0, 63, 0
1, 193149, Note_on_c, 0, 61, 51
1, 193152, Note_on_c, 0, 64, 60
1, 193152, Note_on_c, 0, 54, 0
1, 193152, Note_on_c, 0, 51, 0
1, 193155, Note_on_c, 0, 55, 42
1, 193155, Note_on_c, 0, 52, 35
1, 193257, Note_on_c, 0, 81, 75
1, 193257, Note_on_c, 0, 69, 63
1, 193310, Note_on_c, 0, 64, 0
1, 193310, Note_on_c, 0, 61, 0
1, 193310, Note_on_c, 0, 52, 0
1, 193313, Note_on_c, 0, 55, 0
1, 193364, Note_on_c, 0, 81, 0
1, 193364, Note_on_c, 0, 69, 0
1, 193364, Note_on_c, 0, 76, 68
1, 193367, Note_on_c, 0, 88, 80
1, 193367, Note_on_c, 0, 33, 47
1, 193367, Note_on_c, 0, 45, 56
1, 193384, Control_c, 0, 64, 0
1, 193410, Control_c, 0, 64, 127
1, 193518, Note_on_c, 0, 88, 0
1, 193518, Note_on_c, 0, 76, 0
1, 193518, Note_on_c, 0, 63, 50
1, 193521, Note_on_c, 0, 60, 42
1, 193521, Note_on_c, 0, 45, 0
1, 193521, Note_on_c, 0, 33, 0
1, 193524, Note_on_c, 0, 54, 35
1, 193524, Note_on_c, 0, 51, 29
1, 193569, Note_on_c, 0, 60, 0
1, 193569, Note_on_c, 0, 63, 0
1, 193569, Note_on_c, 0, 61, 51
1, 193572, Note_on_c, 0, 64, 60
1, 193572, Note_on_c, 0, 51, 0
1, 193572, Note_on_c, 0, 54, 0
1, 193575, Note_on_c, 0, 52, 35
1, 193575, Note_on_c, 0, 55, 42
1, 193672, Note_on_c, 0, 67, 57
1, 193672, Note_on_c, 0, 79, 68
1, 193726, Note_on_c, 0, 64, 0
1, 193726, Note_on_c, 0, 61, 0
1, 193726, Note_on_c, 0, 55, 0
1, 193729, Note_on_c, 0, 52, 0
1, 193744, Control_c, 0, 64, 0
1, 193780, Note_on_c, 0, 67, 0
1, 193780, Note_on_c, 0, 79, 0
1, 193780, Note_on_c, 0, 66, 69
1, 193783, Note_on_c, 0, 78, 82
1, 193783, Note_on_c, 0, 50, 57
1, 193783, Note_on_c, 0, 38, 48
1, 193814, Control_c, 0, 64, 127
1, 193932, Note_on_c, 0, 78, 0
1, 193932, Note_on_c, 0, 66, 0
1, 193932, Note_on_c, 0, 65, 42
1, 193935, Note_on_c, 0, 68, 50
1, 193935, Note_on_c, 0, 38, 0
1, 193935, Note_on_c, 0, 50, 0
1, 193938, Note_on_c, 0, 53, 29
1, 193938, Note_on_c, 0, 62, 29
1, 193938, Note_on_c, 0, 56, 35
1, 193983, Note_on_c, 0, 68, 0
1, 193983, Note_on_c, 0, 65, 0
1, 193983, Note_on_c, 0, 66, 51
1, 193986, Note_on_c, 0, 69, 60
1, 193986, Note_on_c, 0, 56, 0
1, 193986, Note_on_c, 0, 62, 0
1, 193989, Note_on_c, 0, 53, 0
1, 193989, Note_on_c, 0, 57, 42
1, 193989, Note_on_c, 0, 54, 35
1, 194085, Note_on_c, 0, 69, 55
1, 194085, Note_on_c, 0, 81, 65
1, 194136, Note_on_c, 0, 69, 0
1, 194136, Note_on_c, 0, 66, 0
1, 194136, Note_on_c, 0, 54, 0
1, 194139, Note_on_c, 0, 57, 0
1, 194186, Note_on_c, 0, 69, 0
1, 194186, Note_on_c, 0, 81, 0
1, 194186, Note_on_c, 0, 74, 79
1, 194189, Note_on_c, 0, 62, 67
1, 194189, Note_on_c, 0, 38, 46
1, 194189, Note_on_c, 0, 50, 55
1, 194199, Control_c, 0, 64, 0
1, 194231, Control_c, 0, 64, 127
1, 194342, Note_on_c, 0, 62, 0
1, 194342, Note_on_c, 0, 74, 0
1, 194342, Note_on_c, 0, 65, 50
1, 194345, Note_on_c, 0, 61, 42
1, 194345, Note_on_c, 0, 50, 0
1, 194345, Note_on_c, 0, 38, 0
1, 194348, Note_on_c, 0, 56, 35
1, 194348, Note_on_c, 0, 53, 29
1, 194394, Note_on_c, 0, 61, 0
1, 194394, Note_on_c, 0, 65, 0
1, 194394, Note_on_c, 0, 66, 60
1, 194397, Note_on_c, 0, 62, 51
1, 194397, Note_on_c, 0, 53, 0
1, 194397, Note_on_c, 0, 56, 0
1, 194400, Note_on_c, 0, 57, 42
1, 194400, Note_on_c, 0, 54, 35
1, 194559, Note_on_c, 0, 62, 0
1, 194559, Note_on_c, 0, 66, 0
1, 194559, Note_on_c, 0, 54, 0
1, 194562, Note_on_c, 0, 57, 0
1, 194619, Note_on_c, 0, 73, 70
1, 194619, Note_on_c, 0, 85, 83
1, 194619, Note_on_c, 0, 37, 49
1, 194622, Note_on_c, 0, 49, 58
1, 194622, Control_c, 0, 64, 0
1, 194735, Control_c, 0, 64, 127
1, 194776, Note_on_c, 0, 85, 0
1, 194776, Note_on_c, 0, 73, 0
1, 194776, Note_on_c, 0, 64, 42
1, 194779, Note_on_c, 0, 67, 50
1, 194779, Note_on_c, 0, 49, 0
1, 194779, Note_on_c, 0, 37, 0
1, 194782, Note_on_c, 0, 61, 29
1, 194782, Note_on_c, 0, 55, 35
1, 194782, Note_on_c, 0, 52, 29
1, 194826, Note_on_c, 0, 67, 0
1, 194826, Note_on_c, 0, 64, 0
1, 194826, Note_on_c, 0, 68, 60
1, 194829, Note_on_c, 0, 65, 51
1, 194829, Note_on_c, 0, 52, 0
1, 194829, Note_on_c, 0, 55, 0
1, 194832, Note_on_c, 0, 61, 0
1, 194832, Note_on_c, 0, 53, 35
1, 194832, Note_on_c, 0, 56, 42
1, 194974, Note_on_c, 0, 65, 0
1, 194974, Note_on_c, 0, 68, 0
1, 194974, Note_on_c, 0, 56, 0
1, 194977, Note_on_c, 0, 53, 0
1, 194981, Control_c, 0, 64, 0
1, 195024, Note_on_c, 0, 73, 70
1, 195024, Note_on_c, 0, 85, 83
1, 195024, Note_on_c, 0, 41, 49
1, 195027, Note_on_c, 0, 53, 49
1, 195076, Control_c, 0, 64, 127
1, 195172, Note_on_c, 0, 85, 0
1, 195172, Note_on_c, 0, 73, 0
1, 195172, Note_on_c, 0, 64, 42
1, 195175, Note_on_c, 0, 67, 50
1, 195175, Note_on_c, 0, 53, 0
1, 195175, Note_on_c, 0, 41, 0
1, 195178, Note_on_c, 0, 61, 29
1, 195178, Note_on_c, 0, 55, 35
1, 195222, Note_on_c, 0, 67, 0
1, 195222, Note_on_c, 0, 64, 0
1, 195222, Note_on_c, 0, 68, 60
1, 195225, Note_on_c, 0, 65, 51
1, 195225, Note_on_c, 0, 55, 0
1, 195225, Note_on_c, 0, 61, 0
1, 195228, Note_on_c, 0, 56, 42
1, 195321, Note_on_c, 0, 71, 57
1, 195321, Note_on_c, 0, 83, 68
1, 195374, Note_on_c, 0, 65, 0
1, 195374, Note_on_c, 0, 68, 0
1, 195374, Note_on_c, 0, 56, 0
1, 195427, Note_on_c, 0, 71, 0
1, 195427, Note_on_c, 0, 83, 0
1, 195427, Note_on_c, 0, 69, 70
1, 195430, Note_on_c, 0, 81, 83
1, 195430, Note_on_c, 0, 54, 58
1, 195430, Note_on_c, 0, 42, 49
1, 195433, Control_c, 0, 64, 0
1, 195481, Control_c, 0, 64, 127
1, 195576, Note_on_c, 0, 81, 0
1, 195576, Note_on_c, 0, 69, 0
1, 195576, Note_on_c, 0, 65, 42
1, 195579, Note_on_c, 0, 68, 50
1, 195579, Note_on_c, 0, 42, 0
1, 195579, Note_on_c, 0, 54, 0
1, 195582, Note_on_c, 0, 56, 29
1, 195582, Note_on_c, 0, 61, 35
1, 195625, Note_on_c, 0, 68, 0
1, 195625, Note_on_c, 0, 65, 0
1, 195625, Note_on_c, 0, 66, 51
1, 195628, Note_on_c, 0, 69, 60
1, 195628, Note_on_c, 0, 61, 0
1, 195628, Note_on_c, 0, 56, 0
1, 195631, Note_on_c, 0, 57, 42
1, 195777, Note_on_c, 0, 69, 0
1, 195777, Note_on_c, 0, 66, 0
1, 195777, Note_on_c, 0, 57, 0
1, 195829, Note_on_c, 0, 66, 71
1, 195829, Note_on_c, 0, 78, 84
1, 195829, Note_on_c, 0, 57, 58
1, 195832, Note_on_c, 0, 45, 49
1, 195832, Control_c, 0, 64, 0
1, 195869, Control_c, 0, 64, 127
1, 195979, Note_on_c, 0, 78, 0
1, 195979, Note_on_c, 0, 66, 0
1, 195979, Note_on_c, 0, 65, 42
1, 195982, Note_on_c, 0, 68, 50
1, 195982, Note_on_c, 0, 45, 0
1, 195982, Note_on_c, 0, 57, 0
1, 195985, Note_on_c, 0, 61, 35
1, 195985, Note_on_c, 0, 56, 29
1, 196029, Note_on_c, 0, 68, 0
1, 196029, Note_on_c, 0, 65, 0
1, 196029, Note_on_c, 0, 66, 51
1, 196032, Note_on_c, 0, 69, 60
1, 196032, Note_on_c, 0, 56, 0
1, 196032, Note_on_c, 0, 61, 0
1, 196035, Note_on_c, 0, 57, 42
1, 196129, Note_on_c, 0, 81, 68
1, 196129, Note_on_c, 0, 69, 57
1, 196182, Note_on_c, 0, 69, 0
1, 196182, Note_on_c, 0, 66, 0
1, 196182, Note_on_c, 0, 57, 0
1, 196195, Control_c, 0, 64, 0
1, 196236, Note_on_c, 0, 81, 0
1, 196236, Note_on_c, 0, 69, 0
1, 196236, Note_on_c, 0, 76, 70
1, 196239, Note_on_c, 0, 88, 83
1, 196239, Note_on_c, 0, 40, 49
1, 196239, Note_on_c, 0, 52, 58
1, 196242, Control_c, 0, 64, 0
1, 196352, Control_c, 0, 64, 127
1, 196393, Note_on_c, 0, 88, 0
1, 196393, Note_on_c, 0, 76, 0
1, 196393, Note_on_c, 0, 70, 50
1, 196396, Note_on_c, 0, 67, 42
1, 196396, Note_on_c, 0, 52, 0
1, 196396, Note_on_c, 0, 40, 0
1, 196399, Note_on_c, 0, 64, 29
1, 196399, Note_on_c, 0, 55, 29
1, 196399, Note_on_c, 0, 58, 35
1, 196443, Note_on_c, 0, 67, 0
1, 196443, Note_on_c, 0, 70, 0
1, 196443, Note_on_c, 0, 71, 60
1, 196446, Note_on_c, 0, 68, 51
1, 196446, Note_on_c, 0, 58, 0
1, 196446, Note_on_c, 0, 55, 0
1, 196449, Note_on_c, 0, 64, 0
1, 196449, Note_on_c, 0, 59, 42
1, 196449, Note_on_c, 0, 56, 35
1, 196591, Note_on_c, 0, 68, 0
1, 196591, Note_on_c, 0, 71, 0
1, 196591, Note_on_c, 0, 56, 0
1, 196594, Note_on_c, 0, 59, 0
1, 196598, Control_c, 0, 64, 0
1, 196641, Note_on_c, 0, 88, 83
1, 196641, Note_on_c, 0, 76, 70
1, 196641, Note_on_c, 0, 44, 49
1, 196644, Note_on_c, 0, 56, 49
1, 196693, Control_c, 0, 64, 127
1, 196789, Note_on_c, 0, 76, 0
1, 196789, Note_on_c, 0, 88, 0
1, 196789, Note_on_c, 0, 70, 50
1, 196792, Note_on_c, 0, 67, 42
1, 196792, Note_on_c, 0, 56, 0
1, 196792, Note_on_c, 0, 44, 0
1, 196795, Note_on_c, 0, 58, 35
1, 196795, Note_on_c, 0, 64, 29
1, 196839, Note_on_c, 0, 67, 0
1, 196839, Note_on_c, 0, 70, 0
1, 196839, Note_on_c, 0, 68, 51
1, 196842, Note_on_c, 0, 71, 60
1, 196842, Note_on_c, 0, 64, 0
1, 196842, Note_on_c, 0, 58, 0
1, 196845, Note_on_c, 0, 59, 42
1, 196938, Note_on_c, 0, 86, 68
1, 196938, Note_on_c, 0, 74, 57
1, 196991, Note_on_c, 0, 71, 0
1, 196991, Note_on_c, 0, 68, 0
1, 196991, Note_on_c, 0, 59, 0
1, 197044, Note_on_c, 0, 86, 0
1, 197044, Note_on_c, 0, 74, 0
1, 197044, Note_on_c, 0, 85, 83
1, 197047, Note_on_c, 0, 73, 70
1, 197047, Note_on_c, 0, 57, 58
1, 197047, Note_on_c, 0, 45, 49
1, 197050, Control_c, 0, 64, 0
1, 197098, Control_c, 0, 64, 127
1, 197193, Note_on_c, 0, 73, 0
1, 197193, Note_on_c, 0, 85, 0
1, 197193, Note_on_c, 0, 72, 50
1, 197196, Note_on_c, 0, 68, 42
1, 197196, Note_on_c, 0, 45, 0
1, 197196, Note_on_c, 0, 57, 0
1, 197199, Note_on_c, 0, 64, 35
1, 197199, Note_on_c, 0, 60, 29
1, 197242, Note_on_c, 0, 68, 0
1, 197242, Note_on_c, 0, 72, 0
1, 197242, Note_on_c, 0, 73, 60
1, 197245, Note_on_c, 0, 69, 51
1, 197245, Note_on_c, 0, 60, 0
1, 197245, Note_on_c, 0, 64, 0
1, 197248, Note_on_c, 0, 61, 42
1, 197394, Note_on_c, 0, 69, 0
1, 197394, Note_on_c, 0, 73, 0
1, 197394, Note_on_c, 0, 61, 0
1, 197446, Note_on_c, 0, 69, 71
1, 197446, Note_on_c, 0, 81, 84
1, 197446, Note_on_c, 0, 61, 58
1, 197449, Note_on_c, 0, 49, 49
1, 197458, Control_c, 0, 64, 0
1, 197486, Control_c, 0, 64, 127
1, 197596, Note_on_c, 0, 81, 0
1, 197596, Note_on_c, 0, 69, 0
1, 197596, Note_on_c, 0, 72, 50
1, 197599, Note_on_c, 0, 68, 42
1, 197599, Note_on_c, 0, 49, 0
1, 197599, Note_on_c, 0, 61, 0
1, 197602, Note_on_c, 0, 64, 35
1, 197602, Note_on_c, 0, 60, 29
1, 197646, Note_on_c, 0, 68, 0
1, 197646, Note_on_c, 0, 72, 0
1, 197646, Note_on_c, 0, 73, 60
1, 197649, Note_on_c, 0, 69, 51
1, 197649, Note_on_c, 0, 60, 0
1, 197649, Note_on_c, 0, 64, 0
1, 197652, Note_on_c, 0, 61, 42
1, 197746, Note_on_c, 0, 69, 57
1, 197746, Note_on_c, 0, 81, 68
1, 197746, Note_on_c, 0, 57, 54
1, 197749, Note_on_c, 0, 45, 42
1, 197799, Note_on_c, 0, 69, 0
1, 197799, Note_on_c, 0, 73, 0
1, 197799, Note_on_c, 0, 61, 0
1, 197812, Control_c, 0, 64, 0
1, 197853, Note_on_c, 0, 69, 0
1, 197853, Note_on_c, 0, 81, 0
1, 197853, Note_on_c, 0, 84, 56
1, 197856, Note_on_c, 0, 90, 66
1, 197856, Note_on_c, 0, 78, 56
1, 197856, Note_on_c, 0, 45, 0
1, 197859, Note_on_c, 0, 57, 0
1, 197859, Note_on_c, 0, 57, 46
1, 197859, Note_on_c, 0, 51, 39
1, 197862, Note_on_c, 0, 45, 39
1, 197862, Control_c, 0, 64, 0
1, 197969, Control_c, 0, 64, 127
1, 198010, Note_on_c, 0, 78, 0
1, 198010, Note_on_c, 0, 90, 0
1, 198010, Note_on_c, 0, 84, 0
1, 198013, Note_on_c, 0, 74, 40
1, 198013, Note_on_c, 0, 71, 33
1, 198013, Note_on_c, 0, 45, 0
1, 198016, Note_on_c, 0, 51, 0
1, 198016, Note_on_c, 0, 57, 0
1, 198016, Note_on_c, 0, 65, 28
1, 198019, Note_on_c, 0, 62, 23
1, 198059, Note_on_c, 0, 71, 0
1, 198059, Note_on_c, 0, 74, 0
1, 198059, Note_on_c, 0, 72, 40
1, 198062, Note_on_c, 0, 75, 48
1, 198062, Note_on_c, 0, 62, 0
1, 198062, Note_on_c, 0, 65, 0
1, 198065, Note_on_c, 0, 66, 33
1, 198065, Note_on_c, 0, 63, 28
1, 198208, Note_on_c, 0, 75, 0
1, 198208, Note_on_c, 0, 72, 0
1, 198208, Note_on_c, 0, 63, 0
1, 198211, Note_on_c, 0, 66, 0
1, 198258, Note_on_c, 0, 90, 66
1, 198258, Note_on_c, 0, 78, 56
1, 198258, Note_on_c, 0, 84, 56
1, 198261, Note_on_c, 0, 51, 39
1, 198261, Note_on_c, 0, 57, 39
1, 198261, Note_on_c, 0, 45, 39
1, 198264, Control_c, 0, 64, 0
1, 198310, Control_c, 0, 64, 127
1, 198406, Note_on_c, 0, 84, 0
1, 198406, Note_on_c, 0, 78, 0
1, 198406, Note_on_c, 0, 90, 0
1, 198409, Note_on_c, 0, 71, 33
1, 198409, Note_on_c, 0, 74, 40
1, 198409, Note_on_c, 0, 45, 0
1, 198412, Note_on_c, 0, 57, 0
1, 198412, Note_on_c, 0, 51, 0
1, 198412, Note_on_c, 0, 65, 23
1, 198415, Note_on_c, 0, 62, 28
1, 198456, Note_on_c, 0, 74, 0
1, 198456, Note_on_c, 0, 71, 0
1, 198456, Note_on_c, 0, 72, 40
1, 198459, Note_on_c, 0, 75, 48
1, 198459, Note_on_c, 0, 62, 0
1, 198459, Note_on_c, 0, 65, 0
1, 198462, Note_on_c, 0, 66, 33
1, 198462, Note_on_c, 0, 63, 28
1, 198555, Note_on_c, 0, 84, 45
1, 198555, Note_on_c, 0, 78, 45
1, 198555, Note_on_c, 0, 90, 54
1, 198558, Note_on_c, 0, 57, 40
1, 198558, Note_on_c, 0, 51, 35
1, 198558, Note_on_c, 0, 45, 35
1, 198608, Note_on_c, 0, 75, 0
1, 198608, Note_on_c, 0, 72, 0
1, 198608, Note_on_c, 0, 63, 0
1, 198611, Note_on_c, 0, 66, 0
1, 198661, Note_on_c, 0, 78, 0
1, 198661, Note_on_c, 0, 84, 0
1, 198661, Note_on_c, 0, 90, 0
1, 198664, Note_on_c, 0, 81, 56
1, 198664, Note_on_c, 0, 85, 56
1, 198664, Note_on_c, 0, 93, 66
1, 198667, Note_on_c, 0, 51, 0
1, 198667, Note_on_c, 0, 57, 0
1, 198667, Note_on_c, 0, 45, 0
1, 198670, Note_on_c, 0, 45, 39
1, 198670, Note_on_c, 0, 52, 39
1, 198670, Note_on_c, 0, 57, 46
1, 198673, Control_c, 0, 64, 0
1, 198715, Control_c, 0, 64, 127
1, 198810, Note_on_c, 0, 93, 0
1, 198810, Note_on_c, 0, 85, 0
1, 198810, Note_on_c, 0, 81, 0
1, 198813, Note_on_c, 0, 75, 40
1, 198813, Note_on_c, 0, 72, 33
1, 198813, Note_on_c, 0, 57, 0
1, 198816, Note_on_c, 0, 52, 0
1, 198816, Note_on_c, 0, 45, 0
1, 198816, Note_on_c, 0, 63, 28
1, 198819, Note_on_c, 0, 60, 23
1, 198859, Note_on_c, 0, 72, 0
1, 198859, Note_on_c, 0, 75, 0
1, 198859, Note_on_c, 0, 73, 40
1, 198862, Note_on_c, 0, 76, 48
1, 198862, Note_on_c, 0, 60, 0
1, 198862, Note_on_c, 0, 63, 0
1, 198865, Note_on_c, 0, 64, 33
1, 198865, Note_on_c, 0, 61, 28
1, 199011, Note_on_c, 0, 76, 0
1, 199011, Note_on_c, 0, 73, 0
1, 199011, Note_on_c, 0, 61, 0
1, 199014, Note_on_c, 0, 64, 0
1, 199063, Note_on_c, 0, 88, 67
1, 199063, Note_on_c, 0, 76, 56
1, 199063, Note_on_c, 0, 81, 56
1, 199066, Note_on_c, 0, 45, 39
1, 199066, Note_on_c, 0, 49, 39
1, 199066, Note_on_c, 0, 57, 46
1, 199069, Control_c, 0, 64, 0
1, 199103, Control_c, 0, 64, 127
1, 199213, Note_on_c, 0, 81, 0
1, 199213, Note_on_c, 0, 76, 0
1, 199213, Note_on_c, 0, 88, 0
1, 199216, Note_on_c, 0, 72, 40
1, 199216, Note_on_c, 0, 68, 33
1, 199216, Note_on_c, 0, 57, 0
1, 199219, Note_on_c, 0, 49, 0
1, 199219, Note_on_c, 0, 45, 0
1, 199219, Note_on_c, 0, 63, 28
1, 199222, Note_on_c, 0, 60, 23
1, 199263, Note_on_c, 0, 68, 0
1, 199263, Note_on_c, 0, 72, 0
1, 199263, Note_on_c, 0, 69, 40
1, 199266, Note_on_c, 0, 73, 48
1, 199266, Note_on_c, 0, 60, 0
1, 199266, Note_on_c, 0, 63, 0
1, 199269, Note_on_c, 0, 64, 33
1, 199269, Note_on_c, 0, 61, 28
1, 199416, Note_on_c, 0, 73, 0
1, 199416, Note_on_c, 0, 69, 0
1, 199416, Note_on_c, 0, 61, 0
1, 199419, Note_on_c, 0, 64, 0
1, 199429, Control_c, 0, 64, 0
1, 199470, Note_on_c, 0, 84, 58
1, 199470, Note_on_c, 0, 78, 58
1, 199470, Note_on_c, 0, 90, 69
1, 199473, Note_on_c, 0, 45, 40
1, 199473, Note_on_c, 0, 51, 40
1, 199473, Note_on_c, 0, 57, 48
1, 199476, Control_c, 0, 64, 0
1, 199586, Control_c, 0, 64, 127
1, 199627, Note_on_c, 0, 90, 0
1, 199627, Note_on_c, 0, 78, 0
1, 199627, Note_on_c, 0, 84, 0
1, 199630, Note_on_c, 0, 71, 34
1, 199630, Note_on_c, 0, 74, 42
1, 199630, Note_on_c, 0, 57, 0
1, 199633, Note_on_c, 0, 51, 0
1, 199633, Note_on_c, 0, 45, 0
1, 199633, Note_on_c, 0, 62, 24
1, 199636, Note_on_c, 0, 65, 29
1, 199676, Note_on_c, 0, 74, 0
1, 199676, Note_on_c, 0, 71, 0
1, 199676, Note_on_c, 0, 72, 42
1, 199679, Note_on_c, 0, 75, 50
1, 199679, Note_on_c, 0, 65, 0
1, 199679, Note_on_c, 0, 62, 0
1, 199682, Note_on_c, 0, 66, 34
1, 199682, Note_on_c, 0, 63, 29
1, 199825, Note_on_c, 0, 75, 0
1, 199825, Note_on_c, 0, 72, 0
1, 199825, Note_on_c, 0, 63, 0
1, 199828, Note_on_c, 0, 66, 0
1, 199875, Note_on_c, 0, 78, 58
1, 199875, Note_on_c, 0, 84, 58
1, 199875, Note_on_c, 0, 90, 69
1, 199878, Note_on_c, 0, 45, 40
1, 199878, Note_on_c, 0, 51, 40
1, 199878, Note_on_c, 0, 57, 40
1, 199881, Control_c, 0, 64, 0
1, 199927, Control_c, 0, 64, 127
1, 200023, Note_on_c, 0, 90, 0
1, 200023, Note_on_c, 0, 84, 0
1, 200023, Note_on_c, 0, 78, 0
1, 200026, Note_on_c, 0, 71, 34
1, 200026, Note_on_c, 0, 74, 42
1, 200026, Note_on_c, 0, 57, 0
1, 200029, Note_on_c, 0, 51, 0
1, 200029, Note_on_c, 0, 45, 0
1, 200029, Note_on_c, 0, 65, 24
1, 200032, Note_on_c, 0, 62, 29
1, 200073, Note_on_c, 0, 74, 0
1, 200073, Note_on_c, 0, 71, 0
1, 200073, Note_on_c, 0, 72, 42
1, 200076, Note_on_c, 0, 75, 50
1, 200076, Note_on_c, 0, 62, 0
1, 200076, Note_on_c, 0, 65, 0
1, 200079, Note_on_c, 0, 66, 34
1, 200079, Note_on_c, 0, 63, 29
1, 200172, Note_on_c, 0, 84, 47
1, 200172, Note_on_c, 0, 78, 47
1, 200172, Note_on_c, 0, 90, 56
1, 200175, Note_on_c, 0, 45, 36
1, 200175, Note_on_c, 0, 51, 36
1, 200175, Note_on_c, 0, 57, 42
1, 200225, Note_on_c, 0, 75, 0
1, 200225, Note_on_c, 0, 72, 0
1, 200225, Note_on_c, 0, 63, 0
1, 200228, Note_on_c, 0, 66, 0
1, 200278, Note_on_c, 0, 78, 0
1, 200278, Note_on_c, 0, 84, 0
1, 200278, Note_on_c, 0, 90, 0
1, 200281, Note_on_c, 0, 86, 58
1, 200281, Note_on_c, 0, 94, 69
1, 200281, Note_on_c, 0, 82, 58
1, 200284, Note_on_c, 0, 51, 0
1, 200284, Note_on_c, 0, 45, 0
1, 200284, Note_on_c, 0, 57, 0
1, 200287, Note_on_c, 0, 46, 40
1, 200287, Note_on_c, 0, 53, 40
1, 200287, Note_on_c, 0, 58, 48
1, 200290, Control_c, 0, 64, 0
1, 200332, Control_c, 0, 64, 127
1, 200427, Note_on_c, 0, 82, 0
1, 200427, Note_on_c, 0, 94, 0
1, 200427, Note_on_c, 0, 86, 0
1, 200430, Note_on_c, 0, 76, 42
1, 200430, Note_on_c, 0, 73, 34
1, 200430, Note_on_c, 0, 58, 0
1, 200433, Note_on_c, 0, 53, 0
1, 200433, Note_on_c, 0, 46, 0
1, 200433, Note_on_c, 0, 61, 24
1, 200436, Note_on_c, 0, 64, 29
1, 200476, Note_on_c, 0, 73, 0
1, 200476, Note_on_c, 0, 76, 0
1, 200476, Note_on_c, 0, 77, 50
1, 200479, Note_on_c, 0, 74, 42
1, 200479, Note_on_c, 0, 64, 0
1, 200479, Note_on_c, 0, 61, 0
1, 200482, Note_on_c, 0, 65, 34
1, 200482, Note_on_c, 0, 62, 29
1, 200627, Note_on_c, 0, 74, 0
1, 200627, Note_on_c, 0, 77, 0
1, 200627, Note_on_c, 0, 62, 0
1, 200630, Note_on_c, 0, 65, 0
1, 200680, Note_on_c, 0, 77, 58
1, 200680, Note_on_c, 0, 89, 70
1, 200680, Note_on_c, 0, 82, 58
1, 200683, Note_on_c, 0, 58, 48
1, 200683, Note_on_c, 0, 50, 40
1, 200683, Note_on_c, 0, 46, 40
1, 200686, Control_c, 0, 64, 0
1, 200720, Control_c, 0, 64, 127
1, 200830, Note_on_c, 0, 82, 0
1, 200830, Note_on_c, 0, 89, 0
1, 200830, Note_on_c, 0, 77, 0
1, 200833, Note_on_c, 0, 73, 42
1, 200833, Note_on_c, 0, 69, 34
1, 200833, Note_on_c, 0, 46, 0
1, 200836, Note_on_c, 0, 50, 0
1, 200836, Note_on_c, 0, 58, 0
1, 200836, Note_on_c, 0, 61, 24
1, 200839, Note_on_c, 0, 64, 29
1, 200880, Note_on_c, 0, 69, 0
1, 200880, Note_on_c, 0, 73, 0
1, 200880, Note_on_c, 0, 70, 42
1, 200883, Note_on_c, 0, 74, 50
1, 200883, Note_on_c, 0, 64, 0
1, 200883, Note_on_c, 0, 61, 0
1, 200886, Note_on_c, 0, 62, 29
1, 200886, Note_on_c, 0, 65, 34
1, 201033, Note_on_c, 0, 74, 0
1, 201033, Note_on_c, 0, 70, 0
1, 201033, Note_on_c, 0, 65, 0
1, 201036, Note_on_c, 0, 62, 0
1, 201046, Control_c, 0, 64, 0
1, 201087, Note_on_c, 0, 91, 72
1, 201087, Note_on_c, 0, 79, 60
1, 201087, Note_on_c, 0, 85, 60
1, 201090, Note_on_c, 0, 52, 42
1, 201090, Note_on_c, 0, 58, 50
1, 201090, Note_on_c, 0, 46, 42
1, 201093, Control_c, 0, 64, 0
1, 201203, Control_c, 0, 64, 127
1, 201244, Note_on_c, 0, 85, 0
1, 201244, Note_on_c, 0, 79, 0
1, 201244, Note_on_c, 0, 91, 0
1, 201247, Note_on_c, 0, 75, 44
1, 201247, Note_on_c, 0, 72, 36
1, 201247, Note_on_c, 0, 46, 0
1, 201250, Note_on_c, 0, 58, 0
1, 201250, Note_on_c, 0, 52, 0
1, 201250, Note_on_c, 0, 63, 25
1, 201253, Note_on_c, 0, 66, 30
1, 201293, Note_on_c, 0, 72, 0
1, 201293, Note_on_c, 0, 75, 0
1, 201293, Note_on_c, 0, 76, 53
1, 201296, Note_on_c, 0, 73, 44
1, 201296, Note_on_c, 0, 66, 0
1, 201296, Note_on_c, 0, 63, 0
1, 201299, Note_on_c, 0, 67, 36
1, 201299, Note_on_c, 0, 64, 30
1, 201442, Note_on_c, 0, 73, 0
1, 201442, Note_on_c, 0, 76, 0
1, 201442, Note_on_c, 0, 64, 0
1, 201445, Note_on_c, 0, 67, 0
1, 201492, Note_on_c, 0, 91, 74
1, 201492, Note_on_c, 0, 85, 62
1, 201492, Note_on_c, 0, 79, 62
1, 201495, Note_on_c, 0, 52, 43
1, 201495, Note_on_c, 0, 58, 43
1, 201495, Note_on_c, 0, 46, 43
1, 201498, Control_c, 0, 64, 0
1, 201544, Control_c, 0, 64, 127
1, 201640, Note_on_c, 0, 79, 0
1, 201640, Note_on_c, 0, 85, 0
1, 201640, Note_on_c, 0, 91, 0
1, 201643, Note_on_c, 0, 75, 45
1, 201643, Note_on_c, 0, 72, 37
1, 201643, Note_on_c, 0, 46, 0
1, 201646, Note_on_c, 0, 58, 0
1, 201646, Note_on_c, 0, 52, 0
1, 201646, Note_on_c, 0, 66, 26
1, 201649, Note_on_c, 0, 63, 31
1, 201690, Note_on_c, 0, 72, 0
1, 201690, Note_on_c, 0, 75, 0
1, 201690, Note_on_c, 0, 76, 55
1, 201693, Note_on_c, 0, 73, 46
1, 201693, Note_on_c, 0, 63, 0
1, 201693, Note_on_c, 0, 66, 0
1, 201696, Note_on_c, 0, 64, 31
1, 201696, Note_on_c, 0, 67, 37
1, 201789, Note_on_c, 0, 91, 61
1, 201789, Note_on_c, 0, 85, 51
1, 201789, Note_on_c, 0, 79, 51
1, 201792, Note_on_c, 0, 46, 39
1, 201792, Note_on_c, 0, 58, 46
1, 201792, Note_on_c, 0, 52, 39
1, 201842, Note_on_c, 0, 73, 0
1, 201842, Note_on_c, 0, 76, 0
1, 201842, Note_on_c, 0, 67, 0
1, 201845, Note_on_c, 0, 64, 0
1, 201895, Note_on_c, 0, 85, 0
1, 201895, Note_on_c, 0, 91, 0
1, 201895, Note_on_c, 0, 79, 0
1, 201898, Note_on_c, 0, 95, 76
1, 201898, Note_on_c, 0, 87, 64
1, 201898, Note_on_c, 0, 83, 64
1, 201901, Note_on_c, 0, 58, 0
1, 201901, Note_on_c, 0, 46, 0
1, 201901, Note_on_c, 0, 52, 0
1, 201904, Note_on_c, 0, 59, 53
1, 201904, Note_on_c, 0, 47, 44
1, 201904, Note_on_c, 0, 54, 44
1, 201907, Control_c, 0, 64, 0
1, 202011, Control_c, 0, 64, 127
1, 202052, Note_on_c, 0, 83, 0
1, 202052, Note_on_c, 0, 87, 0
1, 202052, Note_on_c, 0, 95, 0
1, 202055, Note_on_c, 0, 74, 47
1, 202055, Note_on_c, 0, 70, 38
1, 202055, Note_on_c, 0, 54, 0
1, 202058, Note_on_c, 0, 47, 0
1, 202058, Note_on_c, 0, 59, 0
1, 202058, Note_on_c, 0, 62, 26
1, 202061, Note_on_c, 0, 65, 32
1, 202101, Note_on_c, 0, 70, 0
1, 202101, Note_on_c, 0, 74, 0
1, 202101, Note_on_c, 0, 75, 56
1, 202104, Note_on_c, 0, 71, 47
1, 202104, Note_on_c, 0, 65, 0
1, 202104, Note_on_c, 0, 62, 0
1, 202107, Note_on_c, 0, 63, 32
1, 202107, Note_on_c, 0, 66, 38
1, 202250, Note_on_c, 0, 71, 0
1, 202250, Note_on_c, 0, 75, 0
1, 202250, Note_on_c, 0, 66, 0
1, 202253, Note_on_c, 0, 63, 0
1, 202300, Note_on_c, 0, 83, 66
1, 202300, Note_on_c, 0, 95, 79
1, 202300, Note_on_c, 0, 59, 46
1, 202303, Note_on_c, 0, 47, 46
1, 202303, Control_c, 0, 64, 0
1, 202352, Control_c, 0, 64, 127
1, 202448, Note_on_c, 0, 95, 0
1, 202448, Note_on_c, 0, 83, 0
1, 202448, Note_on_c, 0, 73, 39
1, 202451, Note_on_c, 0, 76, 48
1, 202451, Note_on_c, 0, 47, 0
1, 202451, Note_on_c, 0, 59, 0
1, 202454, Note_on_c, 0, 64, 33
1, 202454, Note_on_c, 0, 67, 27
1, 202498, Note_on_c, 0, 76, 0
1, 202498, Note_on_c, 0, 73, 0
1, 202498, Note_on_c, 0, 74, 48
1, 202501, Note_on_c, 0, 77, 58
1, 202501, Note_on_c, 0, 67, 0
1, 202501, Note_on_c, 0, 64, 0
1, 202504, Note_on_c, 0, 65, 33
1, 202504, Note_on_c, 0, 68, 39
1, 202597, Note_on_c, 0, 83, 54
1, 202597, Note_on_c, 0, 95, 65
1, 202597, Note_on_c, 0, 59, 49
1, 202600, Note_on_c, 0, 47, 42
1, 202650, Note_on_c, 0, 77, 0
1, 202650, Note_on_c, 0, 74, 0
1, 202650, Note_on_c, 0, 68, 0
1, 202653, Note_on_c, 0, 65, 0
1, 202703, Note_on_c, 0, 83, 0
1, 202703, Note_on_c, 0, 95, 0
1, 202703, Note_on_c, 0, 84, 68
1, 202706, Note_on_c, 0, 96, 81
1, 202706, Note_on_c, 0, 59, 0
1, 202706, Note_on_c, 0, 47, 0
1, 202709, Note_on_c, 0, 48, 47
1, 202709, Note_on_c, 0, 60, 56
1, 202709, Control_c, 0, 64, 0
1, 202819, Control_c, 0, 64, 127
1, 202860, Note_on_c, 0, 96, 0
1, 202860, Note_on_c, 0, 84, 0
1, 202860, Note_on_c, 0, 71, 40
1, 202863, Note_on_c, 0, 75, 49
1, 202863, Note_on_c, 0, 60, 0
1, 202863, Note_on_c, 0, 48, 0
1, 202866, Note_on_c, 0, 63, 28
1, 202866, Note_on_c, 0, 66, 34
1, 202909, Note_on_c, 0, 75, 0
1, 202909, Note_on_c, 0, 71, 0
1, 202909, Note_on_c, 0, 76, 60
1, 202912, Note_on_c, 0, 72, 50
1, 202912, Note_on_c, 0, 66, 0
1, 202912, Note_on_c, 0, 63, 0
1, 202915, Note_on_c, 0, 67, 40
1, 202915, Note_on_c, 0, 64, 34
1, 203058, Note_on_c, 0, 72, 0
1, 203058, Note_on_c, 0, 76, 0
1, 203058, Note_on_c, 0, 64, 0
1, 203061, Note_on_c, 0, 67, 0
1, 203108, Note_on_c, 0, 85, 70
1, 203108, Note_on_c, 0, 97, 83
1, 203108, Note_on_c, 0, 61, 48
1, 203111, Note_on_c, 0, 49, 48
1, 203111, Control_c, 0, 64, 0
1, 203160, Control_c, 0, 64, 127
1, 203256, Note_on_c, 0, 97, 0
1, 203256, Note_on_c, 0, 85, 0
1, 203256, Note_on_c, 0, 78, 51
1, 203259, Note_on_c, 0, 75, 41
1, 203259, Note_on_c, 0, 49, 0
1, 203259, Note_on_c, 0, 61, 0
1, 203262, Note_on_c, 0, 69, 29
1, 203262, Note_on_c, 0, 66, 35
1, 203306, Note_on_c, 0, 75, 0
1, 203306, Note_on_c, 0, 78, 0
1, 203306, Note_on_c, 0, 79, 61
1, 203309, Note_on_c, 0, 76, 51
1, 203309, Note_on_c, 0, 66, 0
1, 203309, Note_on_c, 0, 69, 0
1, 203312, Note_on_c, 0, 70, 41
1, 203312, Note_on_c, 0, 67, 35
1, 203405, Note_on_c, 0, 85, 58
1, 203405, Note_on_c, 0, 97, 69
1, 203405, Note_on_c, 0, 49, 44
1, 203408, Note_on_c, 0, 61, 52
1, 203463, Note_on_c, 0, 76, 0
1, 203463, Note_on_c, 0, 79, 0
1, 203463, Note_on_c, 0, 67, 0
1, 203466, Note_on_c, 0, 70, 0
1, 203521, Note_on_c, 0, 85, 0
1, 203521, Note_on_c, 0, 97, 0
1, 203521, Note_on_c, 0, 86, 72
1, 203524, Note_on_c, 0, 98, 85
1, 203524, Note_on_c, 0, 49, 0
1, 203524, Note_on_c, 0, 61, 0
1, 203527, Note_on_c, 0, 62, 59
1, 203527, Note_on_c, 0, 50, 50
1, 203527, Control_c, 0, 64, 0
1, 203573, Control_c, 0, 64, 127
1, 203667, Note_on_c, 0, 98, 0
1, 203667, Note_on_c, 0, 86, 0
1, 203667, Note_on_c, 0, 76, 45
1, 203670, Note_on_c, 0, 80, 53
1, 203670, Note_on_c, 0, 50, 0
1, 203670, Note_on_c, 0, 62, 0
1, 203673, Note_on_c, 0, 68, 38
1, 203673, Note_on_c, 0, 64, 32
1, 203716, Note_on_c, 0, 80, 0
1, 203716, Note_on_c, 0, 76, 0
1, 203716, Note_on_c, 0, 81, 62
1, 203719, Note_on_c, 0, 77, 52
1, 203719, Note_on_c, 0, 64, 0
1, 203719, Note_on_c, 0, 68, 0
1, 203722, Note_on_c, 0, 69, 45
1, 203722, Note_on_c, 0, 65, 38
1, 203866, Note_on_c, 0, 77, 0
1, 203866, Note_on_c, 0, 81, 0
1, 203866, Note_on_c, 0, 65, 0
1, 203869, Note_on_c, 0, 69, 0
1, 203918, Note_on_c, 0, 81, 66
1, 203918, Note_on_c, 0, 93, 78
1, 203918, Note_on_c, 0, 57, 53
1, 203921, Note_on_c, 0, 45, 45
1, 203924, Control_c, 0, 64, 0
1, 203958, Control_c, 0, 64, 127
1, 204065, Note_on_c, 0, 93, 0
1, 204065, Note_on_c, 0, 81, 0
1, 204065, Note_on_c, 0, 73, 45
1, 204068, Note_on_c, 0, 76, 53
1, 204068, Note_on_c, 0, 45, 0
1, 204068, Note_on_c, 0, 57, 0
1, 204071, Note_on_c, 0, 61, 33
1, 204071, Note_on_c, 0, 64, 39
1, 204114, Note_on_c, 0, 76, 0
1, 204114, Note_on_c, 0, 73, 0
1, 204114, Note_on_c, 0, 77, 60
1, 204117, Note_on_c, 0, 74, 51
1, 204117, Note_on_c, 0, 64, 0
1, 204117, Note_on_c, 0, 61, 0
1, 204120, Note_on_c, 0, 62, 39
1, 204120, Note_on_c, 0, 65, 47
1, 204264, Note_on_c, 0, 74, 0
1, 204264, Note_on_c, 0, 77, 0
1, 204264, Note_on_c, 0, 65, 0
1, 204267, Note_on_c, 0, 62, 0
1, 204316, Note_on_c, 0, 77, 72
1, 204316, Note_on_c, 0, 89, 85
1, 204316, Note_on_c, 0, 53, 59
1, 204319, Note_on_c, 0, 41, 50
1, 204319, Control_c, 0, 64, 0
1, 204369, Control_c, 0, 64, 127
1, 204462, Note_on_c, 0, 89, 0
1, 204462, Note_on_c, 0, 77, 0
1, 204462, Note_on_c, 0, 68, 45
1, 204465, Note_on_c, 0, 73, 53
1, 204465, Note_on_c, 0, 41, 0
1, 204465, Note_on_c, 0, 53, 0
1, 204468, Note_on_c, 0, 61, 38
1, 204468, Note_on_c, 0, 56, 32
1, 204511, Note_on_c, 0, 73, 0
1, 204511, Note_on_c, 0, 68, 0
1, 204511, Note_on_c, 0, 74, 62
1, 204514, Note_on_c, 0, 69, 52
1, 204514, Note_on_c, 0, 56, 0
1, 204514, Note_on_c, 0, 61, 0
1, 204517, Note_on_c, 0, 57, 38
1, 204517, Note_on_c, 0, 62, 45
1, 204661, Note_on_c, 0, 69, 0
1, 204661, Note_on_c, 0, 74, 0
1, 204661, Note_on_c, 0, 62, 0
1, 204664, Note_on_c, 0, 57, 0
1, 204714, Note_on_c, 0, 86, 78
1, 204714, Note_on_c, 0, 74, 66
1, 204714, Note_on_c, 0, 38, 45
1, 204717, Note_on_c, 0, 50, 53
1, 204720, Control_c, 0, 64, 0
1, 204753, Control_c, 0, 64, 127
1, 204862, Note_on_c, 0, 74, 0
1, 204862, Note_on_c, 0, 86, 0
1, 204862, Note_on_c, 0, 64, 45
1, 204865, Note_on_c, 0, 68, 53
1, 204865, Note_on_c, 0, 50, 0
1, 204865, Note_on_c, 0, 38, 0
1, 204868, Note_on_c, 0, 52, 33
1, 204868, Note_on_c, 0, 56, 39
1, 204911, Note_on_c, 0, 68, 0
1, 204911, Note_on_c, 0, 64, 0
1, 204911, Note_on_c, 0, 65, 51
1, 204914, Note_on_c, 0, 69, 60
1, 204914, Note_on_c, 0, 56, 0
1, 204914, Note_on_c, 0, 52, 0
1, 204917, Note_on_c, 0, 53, 39
1, 204917, Note_on_c, 0, 57, 47
1, 205062, Note_on_c, 0, 69, 0
1, 205062, Note_on_c, 0, 65, 0
1, 205062, Note_on_c, 0, 57, 0
1, 205065, Note_on_c, 0, 53, 0
1, 205114, Note_on_c, 0, 82, 72
1, 205114, Note_on_c, 0, 94, 85
1, 205114, Note_on_c, 0, 46, 50
1, 205117, Note_on_c, 0, 58, 59
1, 205117, Control_c, 0, 64, 0
1, 205166, Control_c, 0, 64, 127
1, 205258, Note_on_c, 0, 94, 0
1, 205258, Note_on_c, 0, 82, 0
1, 205258, Note_on_c, 0, 73, 45
1, 205261, Note_on_c, 0, 76, 53
1, 205261, Note_on_c, 0, 58, 0
1, 205261, Note_on_c, 0, 46, 0
1, 205264, Note_on_c, 0, 64, 38
1, 205264, Note_on_c, 0, 61, 32
1, 205306, Note_on_c, 0, 76, 0
1, 205306, Note_on_c, 0, 73, 0
1, 205306, Note_on_c, 0, 74, 52
1, 205309, Note_on_c, 0, 77, 62
1, 205309, Note_on_c, 0, 61, 0
1, 205309, Note_on_c, 0, 64, 0
1, 205312, Note_on_c, 0, 65, 45
1, 205312, Note_on_c, 0, 62, 38
1, 205454, Note_on_c, 0, 77, 0
1, 205454, Note_on_c, 0, 74, 0
1, 205454, Note_on_c, 0, 62, 0
1, 205457, Note_on_c, 0, 65, 0
1, 205505, Note_on_c, 0, 77, 66
1, 205505, Note_on_c, 0, 89, 78
1, 205505, Note_on_c, 0, 53, 53
1, 205508, Note_on_c, 0, 41, 45
1, 205511, Control_c, 0, 64, 0
1, 205544, Control_c, 0, 64, 127
1, 205652, Note_on_c, 0, 89, 0
1, 205652, Note_on_c, 0, 77, 0
1, 205652, Note_on_c, 0, 69, 45
1, 205655, Note_on_c, 0, 73, 53
1, 205655, Note_on_c, 0, 41, 0
1, 205655, Note_on_c, 0, 53, 0
1, 205658, Note_on_c, 0, 57, 33
1, 205658, Note_on_c, 0, 61, 39
1, 205701, Note_on_c, 0, 73, 0
1, 205701, Note_on_c, 0, 69, 0
1, 205701, Note_on_c, 0, 70, 51
1, 205704, Note_on_c, 0, 74, 60
1, 205704, Note_on_c, 0, 61, 0
1, 205704, Note_on_c, 0, 57, 0
1, 205707, Note_on_c, 0, 62, 47
1, 205707, Note_on_c, 0, 58, 39
1, 205850, Note_on_c, 0, 74, 0
1, 205850, Note_on_c, 0, 70, 0
1, 205850, Note_on_c, 0, 58, 0
1, 205853, Note_on_c, 0, 62, 0
1, 205902, Note_on_c, 0, 74, 72
1, 205902, Note_on_c, 0, 86, 85
1, 205902, Note_on_c, 0, 50, 59
1, 205905, Note_on_c, 0, 38, 50
1, 205905, Control_c, 0, 64, 0
1, 205955, Control_c, 0, 64, 127
1, 206048, Note_on_c, 0, 86, 0
1, 206048, Note_on_c, 0, 74, 0
1, 206048, Note_on_c, 0, 69, 53
1, 206051, Note_on_c, 0, 64, 45
1, 206051, Note_on_c, 0, 38, 0
1, 206051, Note_on_c, 0, 50, 0
1, 206054, Note_on_c, 0, 57, 38
1, 206054, Note_on_c, 0, 52, 32
1, 206097, Note_on_c, 0, 64, 0
1, 206097, Note_on_c, 0, 69, 0
1, 206097, Note_on_c, 0, 70, 62
1, 206100, Note_on_c, 0, 65, 52
1, 206100, Note_on_c, 0, 52, 0
1, 206100, Note_on_c, 0, 57, 0
1, 206103, Note_on_c, 0, 53, 38
1, 206103, Note_on_c, 0, 58, 45
1, 206247, Note_on_c, 0, 65, 0
1, 206247, Note_on_c, 0, 70, 0
1, 206247, Note_on_c, 0, 58, 0
1, 206250, Note_on_c, 0, 53, 0
1, 206300, Note_on_c, 0, 82, 78
1, 206300, Note_on_c, 0, 70, 66
1, 206300, Note_on_c, 0, 34, 45
1, 206303, Note_on_c, 0, 46, 53
1, 206306, Control_c, 0, 64, 0
1, 206339, Control_c, 0, 64, 127
1, 206446, Note_on_c, 0, 70, 0
1, 206446, Note_on_c, 0, 82, 0
1, 206446, Note_on_c, 0, 64, 53
1, 206449, Note_on_c, 0, 61, 45
1, 206449, Note_on_c, 0, 46, 0
1, 206449, Note_on_c, 0, 34, 0
1, 206452, Note_on_c, 0, 49, 33
1, 206452, Note_on_c, 0, 52, 39
1, 206495, Note_on_c, 0, 61, 0
1, 206495, Note_on_c, 0, 64, 0
1, 206495, Note_on_c, 0, 62, 51
1, 206498, Note_on_c, 0, 65, 60
1, 206498, Note_on_c, 0, 52, 0
1, 206498, Note_on_c, 0, 49, 0
1, 206501, Note_on_c, 0, 50, 39
1, 206501, Note_on_c, 0, 53, 47
1, 206645, Note_on_c, 0, 65, 0
1, 206645, Note_on_c, 0, 62, 0
1, 206645, Note_on_c, 0, 53, 0
1, 206648, Note_on_c, 0, 50, 0
1, 206698, Note_on_c, 0, 87, 85
1, 206698, Note_on_c, 0, 75, 72
1, 206698, Note_on_c, 0, 51, 59
1, 206701, Note_on_c, 0, 39, 50
1, 206701, Control_c, 0, 64, 0
1, 206750, Control_c, 0, 64, 127
1, 206843, Note_on_c, 0, 75, 0
1, 206843, Note_on_c, 0, 87, 0
1, 206843, Note_on_c, 0, 66, 53
1, 206846, Note_on_c, 0, 62, 45
1, 206846, Note_on_c, 0, 39, 0
1, 206846, Note_on_c, 0, 51, 0
1, 206849, Note_on_c, 0, 54, 32
1, 206849, Note_on_c, 0, 57, 38
1, 206891, Note_on_c, 0, 62, 0
1, 206891, Note_on_c, 0, 66, 0
1, 206891, Note_on_c, 0, 63, 52
1, 206894, Note_on_c, 0, 67, 62
1, 206894, Note_on_c, 0, 57, 0
1, 206894, Note_on_c, 0, 54, 0
1, 206897, Note_on_c, 0, 55, 38
1, 206897, Note_on_c, 0, 58, 45
1, 207041, Note_on_c, 0, 67, 0
1, 207041, Note_on_c, 0, 63, 0
1, 207041, Note_on_c, 0, 58, 0
1, 207044, Note_on_c, 0, 55, 0
1, 207093, Note_on_c, 0, 82, 78
1, 207093, Note_on_c, 0, 70, 66
1, 207093, Note_on_c, 0, 46, 53
1, 207096, Note_on_c, 0, 34, 45
1, 207099, Control_c, 0, 64, 0
1, 207132, Control_c, 0, 64, 127
1, 207239, Note_on_c, 0, 70, 0
1, 207239, Note_on_c, 0, 82, 0
1, 207239, Note_on_c, 0, 66, 53
1, 207242, Note_on_c, 0, 62, 45
1, 207242, Note_on_c, 0, 34, 0
1, 207242, Note_on_c, 0, 46, 0
1, 207245, Note_on_c, 0, 57, 39
1, 207245, Note_on_c, 0, 54, 33
1, 207288, Note_on_c, 0, 62, 0
1, 207288, Note_on_c, 0, 66, 0
1, 207288, Note_on_c, 0, 67, 60
1, 207291, Note_on_c, 0, 63, 51
1, 207291, Note_on_c, 0, 54, 0
1, 207291, Note_on_c, 0, 57, 0
1, 207294, Note_on_c, 0, 58, 47
1, 207294, Note_on_c, 0, 55, 39
1, 207439, Note_on_c, 0, 63, 0
1, 207439, Note_on_c, 0, 67, 0
1, 207439, Note_on_c, 0, 55, 0
1, 207442, Note_on_c, 0, 58, 0
1, 207493, Note_on_c, 0, 75, 72
1, 207493, Note_on_c, 0, 87, 85
1, 207493, Note_on_c, 0, 39, 50
1, 207496, Note_on_c, 0, 51, 59
1, 207496, Control_c, 0, 64, 0
1, 207545, Control_c, 0, 64, 127
1, 207639, Note_on_c, 0, 87, 0
1, 207639, Note_on_c, 0, 75, 0
1, 207639, Note_on_c, 0, 66, 53
1, 207642, Note_on_c, 0, 62, 45
1, 207642, Note_on_c, 0, 51, 0
1, 207642, Note_on_c, 0, 39, 0
1, 207645, Note_on_c, 0, 57, 38
1, 207645, Note_on_c, 0, 54, 32
1, 207688, Note_on_c, 0, 62, 0
1, 207688, Note_on_c, 0, 66, 0
1, 207688, Note_on_c, 0, 67, 62
1, 207691, Note_on_c, 0, 63, 52
1, 207691, Note_on_c, 0, 54, 0
1, 207691, Note_on_c, 0, 57, 0
1, 207694, Note_on_c, 0, 58, 45
1, 207694, Note_on_c, 0, 55, 38
1, 207838, Note_on_c, 0, 63, 0
1, 207838, Note_on_c, 0, 67, 0
1, 207838, Note_on_c, 0, 55, 0
1, 207841, Note_on_c, 0, 58, 0
1, 207891, Note_on_c, 0, 82, 78
1, 207891, Note_on_c, 0, 70, 66
1, 207891, Note_on_c, 0, 46, 53
1, 207894, Note_on_c, 0, 34, 45
1, 207894, Control_c, 0, 64, 0
1, 207930, Control_c, 0, 64, 127
1, 208038, Note_on_c, 0, 70, 0
1, 208038, Note_on_c, 0, 82, 0
1, 208038, Note_on_c, 0, 66, 53
1, 208041, Note_on_c, 0, 62, 45
1, 208041, Note_on_c, 0, 34, 0
1, 208041, Note_on_c, 0, 46, 0
1, 208044, Note_on_c, 0, 57, 39
1, 208044, Note_on_c, 0, 54, 33
1, 208088, Note_on_c, 0, 62, 0
1, 208088, Note_on_c, 0, 66, 0
1, 208088, Note_on_c, 0, 63, 51
1, 208091, Note_on_c, 0, 67, 60
1, 208091, Note_on_c, 0, 54, 0
1, 208091, Note_on_c, 0, 57, 0
1, 208094, Note_on_c, 0, 58, 47
1, 208094, Note_on_c, 0, 55, 39
1, 208240, Note_on_c, 0, 67, 0
1, 208240, Note_on_c, 0, 63, 0
1, 208240, Note_on_c, 0, 55, 0
1, 208243, Note_on_c, 0, 58, 0
1, 208294, Note_on_c, 0, 69, 72
1, 208294, Note_on_c, 0, 81, 85
1, 208294, Note_on_c, 0, 45, 59
1, 208297, Note_on_c, 0, 33, 50
1, 208297, Control_c, 0, 64, 0
1, 208347, Control_c, 0, 64, 127
1, 208443, Note_on_c, 0, 81, 0
1, 208443, Note_on_c, 0, 69, 0
1, 208443, Note_on_c, 0, 64, 53
1, 208446, Note_on_c, 0, 61, 45
1, 208446, Note_on_c, 0, 33, 0
1, 208446, Note_on_c, 0, 45, 0
1, 208449, Note_on_c, 0, 56, 38
1, 208449, Note_on_c, 0, 52, 32
1, 208492, Note_on_c, 0, 61, 0
1, 208492, Note_on_c, 0, 64, 0
1, 208492, Note_on_c, 0, 62, 52
1, 208495, Note_on_c, 0, 65, 62
1, 208495, Note_on_c, 0, 52, 0
1, 208495, Note_on_c, 0, 56, 0
1, 208498, Note_on_c, 0, 53, 38
1, 208498, Note_on_c, 0, 57, 45
1, 208646, Note_on_c, 0, 65, 0
1, 208646, Note_on_c, 0, 62, 0
1, 208646, Note_on_c, 0, 57, 0
1, 208649, Note_on_c, 0, 53, 0
1, 208701, Note_on_c, 0, 77, 78
1, 208701, Note_on_c, 0, 65, 66
1, 208701, Note_on_c, 0, 29, 45
1, 208704, Note_on_c, 0, 41, 53
1, 208707, Control_c, 0, 64, 0
1, 208741, Control_c, 0, 64, 127
1, 208851, Note_on_c, 0, 65, 0
1, 208851, Note_on_c, 0, 77, 0
1, 208851, Note_on_c, 0, 56, 45
1, 208854, Note_on_c, 0, 61, 53
1, 208854, Note_on_c, 0, 41, 0
1, 208854, Note_on_c, 0, 29, 0
1, 208857, Note_on_c, 0, 52, 39
1, 208901, Note_on_c, 0, 61, 0
1, 208901, Note_on_c, 0, 56, 0
1, 208901, Note_on_c, 0, 57, 51
1, 208904, Note_on_c, 0, 62, 60
1, 208904, Note_on_c, 0, 52, 0
1, 208904, Note_on_c, 0, 53, 47
1, 209055, Note_on_c, 0, 62, 0
1, 209055, Note_on_c, 0, 57, 0
1, 209055, Note_on_c, 0, 53, 0
1, 209109, Note_on_c, 0, 64, 72
1, 209109, Note_on_c, 0, 76, 85
1, 209109, Note_on_c, 0, 28, 50
1, 209112, Note_on_c, 0, 40, 59
1, 209112, Control_c, 0, 64, 0
1, 209164, Control_c, 0, 64, 127
1, 209261, Note_on_c, 0, 76, 0
1, 209261, Note_on_c, 0, 64, 0
1, 209261, Note_on_c, 0, 40, 0
1, 209264, Note_on_c, 0, 28, 0
1, 209312, Note_on_c, 0, 55, 52
1, 209312, Note_on_c, 0, 58, 52
1, 209312, Note_on_c, 0, 62, 62
1, 209315, Note_on_c, 0, 52, 45
1, 209315, Note_on_c, 0, 50, 38
1, 209315, Note_on_c, 0, 46, 38
1, 209469, Note_on_c, 0, 62, 0
1, 209469, Note_on_c, 0, 58, 0
1, 209469, Note_on_c, 0, 55, 0
1, 209472, Note_on_c, 0, 46, 0
1, 209472, Note_on_c, 0, 50, 0
1, 209472, Note_on_c, 0, 52, 0
1, 209526, Note_on_c, 0, 69, 66
1, 209526, Note_on_c, 0, 81, 78
1, 209526, Note_on_c, 0, 33, 45
1, 209529, Note_on_c, 0, 45, 53
1, 209532, Control_c, 0, 64, 0
1, 209568, Control_c, 0, 64, 127
1, 209683, Note_on_c, 0, 81, 0
1, 209683, Note_on_c, 0, 69, 0
1, 209683, Note_on_c, 0, 45, 0
1, 209686, Note_on_c, 0, 33, 0
1, 209735, Note_on_c, 0, 69, 60
1, 209735, Note_on_c, 0, 61, 51
1, 209735, Note_on_c, 0, 57, 51
1, 209738, Note_on_c, 0, 64, 51
1, 209738, Note_on_c, 0, 55, 47
1, 209738, Note_on_c, 0, 45, 38
1, 209741, Note_on_c, 0, 49, 38
1, 209741, Note_on_c, 0, 52, 38
1, 209915, Note_on_c, 0, 64, 0
1, 209915, Note_on_c, 0, 69, 0
1, 209915, Note_on_c, 0, 61, 0
1, 209918, Note_on_c, 0, 57, 0
1, 209918, Note_on_c, 0, 52, 0
1, 209918, Note_on_c, 0, 55, 0
1, 209921, Note_on_c, 0, 45, 0
1, 209921, Note_on_c, 0, 49, 0
1, 209975, Note_on_c, 0, 62, 70
1, 209975, Note_on_c, 0, 53, 67
1, 209975, Note_on_c, 0, 50, 56
1, 209978, Note_on_c, 0, 38, 56
1, 209978, Note_on_c, 0, 45, 56
1, 209978, Note_on_c, 0, 57, 67
1, 209981, Control_c, 0, 64, 0
1, 210058, Note_on_c, 0, 62, 0
1, 210058, Note_on_c, 0, 62, 53
1, 210070, Control_c, 0, 64, 127
1, 210099, Note_on_c, 0, 57, 0
1, 210099, Note_on_c, 0, 53, 0
1, 210140, Note_on_c, 0, 62, 0
1, 210140, Note_on_c, 0, 74, 54
1, 210222, Note_on_c, 0, 74, 0
1, 210222, Note_on_c, 0, 74, 54
1, 210222, Note_on_c, 0, 50, 0
1, 210225, Note_on_c, 0, 38, 0
1, 210225, Note_on_c, 0, 45, 0
1, 210301, Note_on_c, 0, 74, 0
1, 210301, Note_on_c, 0, 86, 54
1, 210381, Note_on_c, 0, 86, 0
1, 210381, Note_on_c, 0, 86, 58
1, 210460, Note_on_c, 0, 86, 0
1, 210460, Note_on_c, 0, 98, 62
1, 210539, Note_on_c, 0, 98, 0
1, 210539, Note_on_c, 0, 86, 54
1, 210618, Note_on_c, 0, 86, 0
1, 210618, Note_on_c, 0, 86, 58
1, 210698, Note_on_c, 0, 86, 0
1, 210698, Note_on_c, 0, 74, 54
1, 210777, Note_on_c, 0, 74, 0
1, 210777, Note_on_c, 0, 74, 58
1, 210817, Note_on_c, 0, 38, 58
1, 210817, Note_on_c, 0, 50, 69
1, 210864, Note_on_c, 0, 74, 0
1, 210864, Note_on_c, 0, 62, 54
1, 210923, Note_on_c, 0, 50, 0
1, 210923, Note_on_c, 0, 38, 0
1, 210923, Note_on_c, 0, 39, 66
1, 210934, Note_on_c, 0, 42, 66
1, 210946, Note_on_c, 0, 45, 66
1, 210958, Note_on_c, 0, 62, 0
1, 210958, Note_on_c, 0, 51, 78
1, 210958, Control_c, 0, 64, 0
1, 211002, Control_c, 0, 64, 127
1, 211041, Note_on_c, 0, 62, 45
1, 211041, Note_on_c, 0, 66, 54
1, 211123, Note_on_c, 0, 66, 0
1, 211123, Note_on_c, 0, 62, 0
1, 211123, Note_on_c, 0, 72, 45
1, 211126, Note_on_c, 0, 74, 54
1, 211206, Note_on_c, 0, 74, 0
1, 211206, Note_on_c, 0, 72, 0
1, 211206, Note_on_c, 0, 74, 46
1, 211209, Note_on_c, 0, 78, 55
1, 211285, Note_on_c, 0, 78, 0
1, 211285, Note_on_c, 0, 74, 0
1, 211285, Note_on_c, 0, 84, 49
1, 211288, Note_on_c, 0, 86, 58
1, 211364, Note_on_c, 0, 86, 0
1, 211364, Note_on_c, 0, 84, 0
1, 211364, Note_on_c, 0, 90, 55
1, 211367, Note_on_c, 0, 86, 46
1, 211443, Note_on_c, 0, 86, 0
1, 211443, Note_on_c, 0, 90, 0
1, 211443, Note_on_c, 0, 96, 53
1, 211446, Note_on_c, 0, 98, 63
1, 211521, Note_on_c, 0, 98, 0
1, 211521, Note_on_c, 0, 96, 0
1, 211521, Note_on_c, 0, 90, 55
1, 211524, Note_on_c, 0, 86, 46
1, 211600, Note_on_c, 0, 86, 0
1, 211600, Note_on_c, 0, 90, 0
1, 211600, Note_on_c, 0, 86, 60
1, 211603, Note_on_c, 0, 84, 51
1, 211679, Note_on_c, 0, 84, 0
1, 211679, Note_on_c, 0, 86, 0
1, 211679, Note_on_c, 0, 78, 55
1, 211682, Note_on_c, 0, 74, 46
1, 211758, Note_on_c, 0, 74, 0
1, 211758, Note_on_c, 0, 78, 0
1, 211758, Note_on_c, 0, 72, 49
1, 211761, Note_on_c, 0, 74, 58
1, 211768, Note_on_c, 0, 39, 0
1, 211777, Note_on_c, 0, 42, 0
1, 211787, Note_on_c, 0, 45, 0
1, 211797, Note_on_c, 0, 51, 0
1, 211797, Note_on_c, 0, 50, 68
1, 211797, Note_on_c, 0, 38, 57
1, 211843, Note_on_c, 0, 74, 0
1, 211843, Note_on_c, 0, 72, 0
1, 211843, Note_on_c, 0, 66, 54
1, 211846, Note_on_c, 0, 62, 45
1, 211901, Note_on_c, 0, 38, 0
1, 211901, Note_on_c, 0, 50, 0
1, 211901, Note_on_c, 0, 41, 65
1, 211913, Note_on_c, 0, 44, 65
1, 211924, Note_on_c, 0, 47, 65
1, 211936, Note_on_c, 0, 62, 0
1, 211936, Note_on_c, 0, 66, 0
1, 211936, Note_on_c, 0, 53, 77
1, 211957, Control_c, 0, 64, 0
1, 212007, Control_c, 0, 64, 127
1, 212019, Note_on_c, 0, 65, 53
1, 212019, Note_on_c, 0, 62, 45
1, 212102, Note_on_c, 0, 62, 0
1, 212102, Note_on_c, 0, 65, 0
1, 212102, Note_on_c, 0, 74, 53
1, 212105, Note_on_c, 0, 71, 45
1, 212185, Note_on_c, 0, 71, 0
1, 212185, Note_on_c, 0, 74, 0
1, 212185, Note_on_c, 0, 77, 53
1, 212188, Note_on_c, 0, 74, 45
1, 212266, Note_on_c, 0, 74, 0
1, 212266, Note_on_c, 0, 77, 0
1, 212266, Note_on_c, 0, 86, 56
1, 212269, Note_on_c, 0, 83, 47
1, 212346, Note_on_c, 0, 83, 0
1, 212346, Note_on_c, 0, 86, 0
1, 212346, Note_on_c, 0, 89, 53
1, 212349, Note_on_c, 0, 86, 45
1, 212426, Note_on_c, 0, 86, 0
1, 212426, Note_on_c, 0, 89, 0
1, 212426, Note_on_c, 0, 98, 60
1, 212429, Note_on_c, 0, 95, 51
1, 212506, Note_on_c, 0, 95, 0
1, 212506, Note_on_c, 0, 98, 0
1, 212506, Note_on_c, 0, 86, 45
1, 212509, Note_on_c, 0, 89, 53
1, 212586, Note_on_c, 0, 89, 0
1, 212586, Note_on_c, 0, 86, 0
1, 212586, Note_on_c, 0, 83, 47
1, 212589, Note_on_c, 0, 86, 56
1, 212666, Note_on_c, 0, 86, 0
1, 212666, Note_on_c, 0, 83, 0
1, 212666, Note_on_c, 0, 77, 53
1, 212669, Note_on_c, 0, 74, 45
1, 212746, Note_on_c, 0, 74, 0
1, 212746, Note_on_c, 0, 77, 0
1, 212746, Note_on_c, 0, 71, 48
1, 212749, Note_on_c, 0, 74, 57
1, 212756, Note_on_c, 0, 41, 0
1, 212766, Note_on_c, 0, 44, 0
1, 212776, Note_on_c, 0, 47, 0
1, 212786, Note_on_c, 0, 53, 0
1, 212786, Note_on_c, 0, 50, 67
1, 212786, Note_on_c, 0, 38, 56
1, 212830, Note_on_c, 0, 74, 0
1, 212830, Note_on_c, 0, 71, 0
1, 212830, Note_on_c, 0, 62, 45
1, 212833, Note_on_c, 0, 65, 53
1, 212885, Note_on_c, 0, 38, 0
1, 212885, Note_on_c, 0, 50, 0
1, 212885, Note_on_c, 0, 46, 65
1, 212896, Note_on_c, 0, 50, 65
1, 212907, Note_on_c, 0, 55, 65
1, 212918, Note_on_c, 0, 65, 0
1, 212918, Note_on_c, 0, 62, 0
1, 212918, Note_on_c, 0, 58, 77
1, 212947, Control_c, 0, 64, 0
1, 213001, Note_on_c, 0, 62, 45
1, 213001, Note_on_c, 0, 64, 53
1, 213006, Control_c, 0, 64, 127
1, 213083, Note_on_c, 0, 64, 0
1, 213083, Note_on_c, 0, 62, 0
1, 213083, Note_on_c, 0, 70, 45
1, 213086, Note_on_c, 0, 74, 53
1, 213134, Note_on_c, 0, 46, 0
1, 213145, Note_on_c, 0, 50, 0
1, 213155, Note_on_c, 0, 55, 0
1, 213165, Note_on_c, 0, 74, 0
1, 213165, Note_on_c, 0, 70, 0
1, 213165, Note_on_c, 0, 76, 53
1, 213168, Note_on_c, 0, 74, 45
1, 213168, Note_on_c, 0, 58, 0
1, 213244, Note_on_c, 0, 74, 0
1, 213244, Note_on_c, 0, 76, 0
1, 213244, Note_on_c, 0, 82, 47
1, 213247, Note_on_c, 0, 86, 56
1, 213284, Note_on_c, 0, 58, 67
1, 213284, Note_on_c, 0, 46, 56
1, 213324, Note_on_c, 0, 86, 0
1, 213324, Note_on_c, 0, 82, 0
1, 213324, Note_on_c, 0, 86, 45
1, 213327, Note_on_c, 0, 88, 53
1, 213403, Note_on_c, 0, 88, 0
1, 213403, Note_on_c, 0, 86, 0
1, 213403, Note_on_c, 0, 98, 60
1, 213406, Note_on_c, 0, 94, 51
1, 213406, Note_on_c, 0, 46, 0
1, 213406, Note_on_c, 0, 58, 0
1, 213409, Note_on_c, 0, 57, 77
1, 213409, Note_on_c, 0, 45, 65
1, 213415, Control_c, 0, 64, 0
1, 213455, Control_c, 0, 64, 127
1, 213482, Note_on_c, 0, 94, 0
1, 213482, Note_on_c, 0, 98, 0
1, 213482, Note_on_c, 0, 86, 45
1, 213485, Note_on_c, 0, 88, 53
1, 213563, Note_on_c, 0, 88, 0
1, 213563, Note_on_c, 0, 86, 0
1, 213563, Note_on_c, 0, 82, 47
1, 213566, Note_on_c, 0, 86, 56
1, 213645, Note_on_c, 0, 86, 0
1, 213645, Note_on_c, 0, 82, 0
1, 213645, Note_on_c, 0, 74, 45
1, 213648, Note_on_c, 0, 76, 53
1, 213648, Note_on_c, 0, 45, 0
1, 213648, Note_on_c, 0, 57, 0
1, 213727, Note_on_c, 0, 76, 0
1, 213727, Note_on_c, 0, 74, 0
1, 213727, Note_on_c, 0, 70, 48
1, 213730, Note_on_c, 0, 74, 57
1, 213769, Note_on_c, 0, 55, 67
1, 213769, Note_on_c, 0, 43, 56
1, 213829, Note_on_c, 0, 74, 0
1, 213829, Note_on_c, 0, 70, 0
1, 213829, Note_on_c, 0, 62, 45
1, 213832, Note_on_c, 0, 64, 53
1, 213906, Note_on_c, 0, 43, 0
1, 213906, Note_on_c, 0, 55, 0
1, 213906, Note_on_c, 0, 38, 66
1, 213921, Note_on_c, 0, 42, 66
1, 213936, Note_on_c, 0, 45, 66
1, 213951, Note_on_c, 0, 64, 0
1, 213951, Note_on_c, 0, 62, 0
1, 213951, Note_on_c, 0, 50, 78
1, 213960, Control_c, 0, 64, 0
1, 213996, Control_c, 0, 64, 127
1, 214035, Note_on_c, 0, 66, 54
1, 214035, Note_on_c, 0, 62, 45
1, 214118, Note_on_c, 0, 62, 0
1, 214118, Note_on_c, 0, 66, 0
1, 214118, Note_on_c, 0, 69, 45
1, 214121, Note_on_c, 0, 74, 54
1, 214202, Note_on_c, 0, 74, 0
1, 214202, Note_on_c, 0, 69, 0
1, 214202, Note_on_c, 0, 74, 46
1, 214205, Note_on_c, 0, 78, 55
1, 214281, Note_on_c, 0, 78, 0
1, 214281, Note_on_c, 0, 74, 0
1, 214281, Note_on_c, 0, 81, 49
1, 214284, Note_on_c, 0, 86, 58
1, 214360, Note_on_c, 0, 86, 0
1, 214360, Note_on_c, 0, 81, 0
1, 214360, Note_on_c, 0, 86, 46
1, 214363, Note_on_c, 0, 90, 55
1, 214439, Note_on_c, 0, 90, 0
1, 214439, Note_on_c, 0, 86, 0
1, 214439, Note_on_c, 0, 93, 53
1, 214442, Note_on_c, 0, 98, 63
1, 214517, Note_on_c, 0, 98, 0
1, 214517, Note_on_c, 0, 93, 0
1, 214517, Note_on_c, 0, 90, 55
1, 214520, Note_on_c, 0, 86, 46
1, 214596, Note_on_c, 0, 86, 0
1, 214596, Note_on_c, 0, 90, 0
1, 214596, Note_on_c, 0, 86, 60
1, 214599, Note_on_c, 0, 81, 51
1, 214646, Note_on_c, 0, 38, 0
1, 214655, Note_on_c, 0, 42, 0
1, 214665, Note_on_c, 0, 45, 0
1, 214675, Note_on_c, 0, 81, 0
1, 214675, Note_on_c, 0, 86, 0
1, 214675, Note_on_c, 0, 78, 55
1, 214678, Note_on_c, 0, 74, 46
1, 214678, Note_on_c, 0, 50, 0
1, 214754, Note_on_c, 0, 74, 0
1, 214754, Note_on_c, 0, 78, 0
1, 214754, Note_on_c, 0, 69, 49
1, 214757, Note_on_c, 0, 74, 58
1, 214793, Note_on_c, 0, 50, 68
1, 214793, Note_on_c, 0, 38, 57
1, 214837, Note_on_c, 0, 74, 0
1, 214837, Note_on_c, 0, 69, 0
1, 214837, Note_on_c, 0, 66, 54
1, 214840, Note_on_c, 0, 62, 45
1, 214892, Note_on_c, 0, 38, 0
1, 214892, Note_on_c, 0, 50, 0
1, 214892, Note_on_c, 0, 39, 66
1, 214903, Note_on_c, 0, 42, 66
1, 214914, Note_on_c, 0, 45, 66
1, 214925, Note_on_c, 0, 62, 0
1, 214925, Note_on_c, 0, 66, 0
1, 214925, Note_on_c, 0, 51, 78
1, 214928, Control_c, 0, 64, 0
1, 214993, Control_c, 0, 64, 127
1, 215009, Note_on_c, 0, 63, 54
1, 215009, Note_on_c, 0, 60, 45
1, 215093, Note_on_c, 0, 60, 0
1, 215093, Note_on_c, 0, 63, 0
1, 215093, Note_on_c, 0, 66, 45
1, 215096, Note_on_c, 0, 72, 54
1, 215176, Note_on_c, 0, 72, 0
1, 215176, Note_on_c, 0, 66, 0
1, 215176, Note_on_c, 0, 75, 55
1, 215179, Note_on_c, 0, 72, 46
1, 215256, Note_on_c, 0, 72, 0
1, 215256, Note_on_c, 0, 75, 0
1, 215256, Note_on_c, 0, 78, 49
1, 215259, Note_on_c, 0, 84, 58
1, 215336, Note_on_c, 0, 84, 0
1, 215336, Note_on_c, 0, 78, 0
1, 215336, Note_on_c, 0, 84, 46
1, 215339, Note_on_c, 0, 87, 55
1, 215415, Note_on_c, 0, 87, 0
1, 215415, Note_on_c, 0, 84, 0
1, 215415, Note_on_c, 0, 96, 63
1, 215418, Note_on_c, 0, 90, 53
1, 215495, Note_on_c, 0, 90, 0
1, 215495, Note_on_c, 0, 96, 0
1, 215495, Note_on_c, 0, 87, 55
1, 215498, Note_on_c, 0, 84, 46
1, 215575, Note_on_c, 0, 84, 0
1, 215575, Note_on_c, 0, 87, 0
1, 215575, Note_on_c, 0, 84, 60
1, 215578, Note_on_c, 0, 78, 51
1, 215654, Note_on_c, 0, 78, 0
1, 215654, Note_on_c, 0, 84, 0
1, 215654, Note_on_c, 0, 72, 46
1, 215657, Note_on_c, 0, 75, 55
1, 215734, Note_on_c, 0, 75, 0
1, 215734, Note_on_c, 0, 72, 0
1, 215734, Note_on_c, 0, 72, 58
1, 215737, Note_on_c, 0, 66, 49
1, 215744, Note_on_c, 0, 39, 0
1, 215754, Note_on_c, 0, 42, 0
1, 215764, Note_on_c, 0, 45, 0
1, 215774, Note_on_c, 0, 51, 0
1, 215774, Note_on_c, 0, 50, 68
1, 215774, Note_on_c, 0, 38, 57
1, 215818, Note_on_c, 0, 66, 0
1, 215818, Note_on_c, 0, 72, 0
1, 215818, Note_on_c, 0, 60, 45
1, 215821, Note_on_c, 0, 63, 54
1, 215874, Note_on_c, 0, 38, 0
1, 215874, Note_on_c, 0, 50, 0
1, 215874, Note_on_c, 0, 35, 65
1, 215885, Note_on_c, 0, 41, 65
1, 215896, Note_on_c, 0, 44, 65
1, 215907, Note_on_c, 0, 63, 0
1, 215907, Note_on_c, 0, 60, 0
1, 215907, Note_on_c, 0, 47, 77
1, 215910, Control_c, 0, 64, 0
1, 215960, Control_c, 0, 64, 127
1, 215990, Note_on_c, 0, 62, 53
1, 215990, Note_on_c, 0, 59, 45
1, 216073, Note_on_c, 0, 59, 0
1, 216073, Note_on_c, 0, 62, 0
1, 216073, Note_on_c, 0, 71, 53
1, 216076, Note_on_c, 0, 65, 45
1, 216156, Note_on_c, 0, 65, 0
1, 216156, Note_on_c, 0, 71, 0
1, 216156, Note_on_c, 0, 74, 53
1, 216159, Note_on_c, 0, 71, 45
1, 216236, Note_on_c, 0, 71, 0
1, 216236, Note_on_c, 0, 74, 0
1, 216236, Note_on_c, 0, 83, 56
1, 216239, Note_on_c, 0, 77, 47
1, 216316, Note_on_c, 0, 77, 0
1, 216316, Note_on_c, 0, 83, 0
1, 216316, Note_on_c, 0, 86, 53
1, 216319, Note_on_c, 0, 83, 45
1, 216395, Note_on_c, 0, 83, 0
1, 216395, Note_on_c, 0, 86, 0
1, 216395, Note_on_c, 0, 95, 60
1, 216398, Note_on_c, 0, 89, 51
1, 216475, Note_on_c, 0, 89, 0
1, 216475, Note_on_c, 0, 95, 0
1, 216475, Note_on_c, 0, 83, 45
1, 216478, Note_on_c, 0, 86, 53
1, 216555, Note_on_c, 0, 86, 0
1, 216555, Note_on_c, 0, 83, 0
1, 216555, Note_on_c, 0, 77, 47
1, 216558, Note_on_c, 0, 83, 56
1, 216634, Note_on_c, 0, 83, 0
1, 216634, Note_on_c, 0, 77, 0
1, 216634, Note_on_c, 0, 74, 53
1, 216637, Note_on_c, 0, 71, 45
1, 216714, Note_on_c, 0, 71, 0
1, 216714, Note_on_c, 0, 74, 0
1, 216714, Note_on_c, 0, 71, 57
1, 216717, Note_on_c, 0, 65, 48
1, 216724, Note_on_c, 0, 35, 0
1, 216734, Note_on_c, 0, 41, 0
1, 216744, Note_on_c, 0, 44, 0
1, 216754, Note_on_c, 0, 47, 0
1, 216754, Note_on_c, 0, 38, 56
1, 216754, Note_on_c, 0, 50, 67
1, 216798, Note_on_c, 0, 65, 0
1, 216798, Note_on_c, 0, 71, 0
1, 216798, Note_on_c, 0, 59, 45
1, 216801, Note_on_c, 0, 62, 53
1, 216887, Note_on_c, 0, 62, 0
1, 216887, Note_on_c, 0, 59, 0
1, 216887, Note_on_c, 0, 58, 45
1, 216890, Note_on_c, 0, 61, 53
1, 216890, Note_on_c, 0, 50, 0
1, 216890, Note_on_c, 0, 38, 0
1, 216893, Note_on_c, 0, 40, 65
1, 216893, Note_on_c, 0, 34, 65
1, 216893, Note_on_c, 0, 46, 77
1, 216896, Note_on_c, 0, 37, 65
1, 216896, Control_c, 0, 64, 0
1, 216923, Control_c, 0, 64, 127
1, 216970, Note_on_c, 0, 61, 0
1, 216970, Note_on_c, 0, 58, 0
1, 216970, Note_on_c, 0, 64, 45
1, 216973, Note_on_c, 0, 70, 53
1, 217054, Note_on_c, 0, 70, 0
1, 217054, Note_on_c, 0, 64, 0
1, 217054, Note_on_c, 0, 70, 45
1, 217057, Note_on_c, 0, 73, 53
1, 217138, Note_on_c, 0, 73, 0
1, 217138, Note_on_c, 0, 70, 0
1, 217138, Note_on_c, 0, 82, 56
1, 217141, Note_on_c, 0, 76, 47
1, 217141, Note_on_c, 0, 37, 0
1, 217141, Note_on_c, 0, 40, 0
1, 217144, Note_on_c, 0, 34, 0
1, 217144, Note_on_c, 0, 46, 0
1, 217217, Note_on_c, 0, 76, 0
1, 217217, Note_on_c, 0, 82, 0
1, 217217, Note_on_c, 0, 82, 45
1, 217220, Note_on_c, 0, 85, 53
1, 217257, Note_on_c, 0, 46, 67
1, 217257, Note_on_c, 0, 34, 56
1, 217296, Note_on_c, 0, 85, 0
1, 217296, Note_on_c, 0, 82, 0
1, 217296, Note_on_c, 0, 94, 60
1, 217299, Note_on_c, 0, 88, 51
1, 217376, Note_on_c, 0, 88, 0
1, 217376, Note_on_c, 0, 94, 0
1, 217376, Note_on_c, 0, 58, 53
1, 217379, Note_on_c, 0, 55, 45
1, 217379, Note_on_c, 0, 34, 0
1, 217379, Note_on_c, 0, 46, 0
1, 217382, Note_on_c, 0, 31, 65
1, 217382, Note_on_c, 0, 43, 77
1, 217382, Note_on_c, 0, 40, 65
1, 217385, Note_on_c, 0, 37, 65
1, 217385, Control_c, 0, 64, 0
1, 217404, Control_c, 0, 64, 127
1, 217455, Note_on_c, 0, 55, 0
1, 217455, Note_on_c, 0, 58, 0
1, 217455, Note_on_c, 0, 67, 53
1, 217458, Note_on_c, 0, 61, 45
1, 217534, Note_on_c, 0, 61, 0
1, 217534, Note_on_c, 0, 67, 0
1, 217534, Note_on_c, 0, 67, 45
1, 217537, Note_on_c, 0, 70, 53
1, 217613, Note_on_c, 0, 70, 0
1, 217613, Note_on_c, 0, 67, 0
1, 217613, Note_on_c, 0, 79, 56
1, 217616, Note_on_c, 0, 73, 47
1, 217616, Note_on_c, 0, 37, 0
1, 217616, Note_on_c, 0, 31, 0
1, 217619, Note_on_c, 0, 43, 0
1, 217619, Note_on_c, 0, 40, 0
1, 217692, Note_on_c, 0, 73, 0
1, 217692, Note_on_c, 0, 79, 0
1, 217692, Note_on_c, 0, 82, 53
1, 217695, Note_on_c, 0, 79, 45
1, 217732, Note_on_c, 0, 43, 67
1, 217732, Note_on_c, 0, 31, 56
1, 217777, Note_on_c, 0, 79, 0
1, 217777, Note_on_c, 0, 82, 0
1, 217777, Note_on_c, 0, 91, 60
1, 217780, Note_on_c, 0, 85, 51
1, 217867, Note_on_c, 0, 85, 0
1, 217867, Note_on_c, 0, 91, 0
1, 217867, Note_on_c, 0, 62, 70
1, 217870, Note_on_c, 0, 31, 0
1, 217870, Note_on_c, 0, 43, 0
1, 217870, Note_on_c, 0, 57, 67
1, 217873, Note_on_c, 0, 53, 67
1, 217873, Note_on_c, 0, 38, 56
1, 217873, Note_on_c, 0, 45, 56
1, 217876, Note_on_c, 0, 50, 56
1, 217882, Control_c, 0, 64, 0
1, 218001, Note_on_c, 0, 62, 0
1, 218001, Note_on_c, 0, 50, 0
1, 218001, Note_on_c, 0, 38, 0
1, 218004, Note_on_c, 0, 57, 0
1, 218004, Note_on_c, 0, 53, 0
1, 218004, Note_on_c, 0, 45, 0
1, 218136, Note_on_c, 0, 85, 60
1, 218136, Note_on_c, 0, 94, 70
1, 218136, Note_on_c, 0, 76, 60
1, 218139, Note_on_c, 0, 67, 59
1, 218151, Control_c, 0, 64, 127
1, 218210, Note_on_c, 0, 85, 0
1, 218210, Note_on_c, 0, 84, 60
1, 218210, Note_on_c, 0, 76, 0
1, 218213, Note_on_c, 0, 75, 60
1, 218284, Note_on_c, 0, 84, 0
1, 218284, Note_on_c, 0, 83, 60
1, 218284, Note_on_c, 0, 75, 0
1, 218287, Note_on_c, 0, 74, 60
1, 218358, Note_on_c, 0, 83, 0
1, 218358, Note_on_c, 0, 94, 0
1, 218358, Note_on_c, 0, 82, 60
1, 218361, Note_on_c, 0, 91, 76
1, 218361, Note_on_c, 0, 74, 0
1, 218361, Note_on_c, 0, 67, 0
1, 218364, Note_on_c, 0, 73, 60
1, 218364, Note_on_c, 0, 64, 63
1, 218432, Note_on_c, 0, 82, 0
1, 218432, Note_on_c, 0, 81, 60
1, 218432, Note_on_c, 0, 73, 0
1, 218435, Note_on_c, 0, 72, 60
1, 218506, Note_on_c, 0, 81, 0
1, 218506, Note_on_c, 0, 80, 60
1, 218506, Note_on_c, 0, 72, 0
1, 218509, Note_on_c, 0, 71, 60
1, 218580, Note_on_c, 0, 80, 0
1, 218580, Note_on_c, 0, 91, 0
1, 218580, Note_on_c, 0, 88, 70
1, 218583, Note_on_c, 0, 79, 60
1, 218583, Note_on_c, 0, 71, 0
1, 218583, Note_on_c, 0, 64, 0
1, 218586, Note_on_c, 0, 70, 60
1, 218586, Note_on_c, 0, 61, 58
1, 218659, Note_on_c, 0, 79, 0
1, 218659, Note_on_c, 0, 78, 60
1, 218659, Note_on_c, 0, 70, 0
1, 218662, Note_on_c, 0, 69, 60
1, 218738, Note_on_c, 0, 78, 0
1, 218738, Note_on_c, 0, 77, 60
1, 218738, Note_on_c, 0, 69, 0
1, 218741, Note_on_c, 0, 68, 60
1, 218817, Note_on_c, 0, 77, 0
1, 218817, Note_on_c, 0, 88, 0
1, 218817, Note_on_c, 0, 85, 76
1, 218820, Note_on_c, 0, 76, 64
1, 218820, Note_on_c, 0, 68, 0
1, 218820, Note_on_c, 0, 61, 0
1, 218823, Note_on_c, 0, 67, 63
1, 218823, Note_on_c, 0, 58, 53
1, 218823, Control_c, 0, 64, 0
1, 218935, Note_on_c, 0, 76, 0
1, 218935, Note_on_c, 0, 85, 0
1, 218935, Note_on_c, 0, 58, 0
1, 218938, Note_on_c, 0, 67, 0
1, 219053, Note_on_c, 0, 70, 59
1, 219053, Note_on_c, 0, 82, 70
1, 219053, Note_on_c, 0, 55, 63
1, 219056, Note_on_c, 0, 43, 53
1, 219064, Control_c, 0, 64, 127
1, 219170, Note_on_c, 0, 82, 0
1, 219170, Note_on_c, 0, 70, 0
1, 219170, Note_on_c, 0, 73, 52
1, 219173, Note_on_c, 0, 76, 62
1, 219173, Note_on_c, 0, 43, 0
1, 219173, Note_on_c, 0, 55, 0
1, 219176, Note_on_c, 0, 52, 57
1, 219176, Note_on_c, 0, 49, 48
1, 219286, Note_on_c, 0, 76, 0
1, 219286, Note_on_c, 0, 73, 0
1, 219286, Note_on_c, 0, 69, 59
1, 219289, Note_on_c, 0, 81, 70
1, 219289, Note_on_c, 0, 49, 0
1, 219289, Note_on_c, 0, 52, 0
1, 219292, Note_on_c, 0, 57, 63
1, 219292, Note_on_c, 0, 45, 53
1, 219403, Note_on_c, 0, 81, 0
1, 219403, Note_on_c, 0, 69, 0
1, 219403, Note_on_c, 0, 76, 62
1, 219406, Note_on_c, 0, 73, 52
1, 219406, Note_on_c, 0, 45, 0
1, 219406, Note_on_c, 0, 57, 0
1, 219409, Note_on_c, 0, 49, 49
1, 219409, Note_on_c, 0, 52, 58
1, 219519, Note_on_c, 0, 73, 0
1, 219519, Note_on_c, 0, 76, 0
1, 219519, Note_on_c, 0, 67, 59
1, 219522, Note_on_c, 0, 79, 70
1, 219522, Note_on_c, 0, 52, 0
1, 219522, Note_on_c, 0, 49, 0
1, 219525, Note_on_c, 0, 46, 53
1, 219525, Note_on_c, 0, 58, 63
1, 219643, Note_on_c, 0, 79, 0
1, 219643, Note_on_c, 0, 67, 0
1, 219643, Note_on_c, 0, 70, 53
1, 219646, Note_on_c, 0, 73, 63
1, 219646, Note_on_c, 0, 58, 0
1, 219646, Note_on_c, 0, 46, 0
1, 219649, Note_on_c, 0, 52, 48
1, 219649, Note_on_c, 0, 55, 57
1, 219767, Note_on_c, 0, 73, 0
1, 219767, Note_on_c, 0, 70, 0
1, 219767, Note_on_c, 0, 74, 60
1, 219770, Note_on_c, 0, 86, 72
1, 219770, Note_on_c, 0, 78, 60
1, 219770, Note_on_c, 0, 55, 0
1, 219773, Note_on_c, 0, 52, 0
1, 219773, Note_on_c, 0, 57, 64
1, 219773, Note_on_c, 0, 54, 64
1, 219776, Note_on_c, 0, 62, 64
1, 219776, Note_on_c, 0, 50, 64
1, 219776, Control_c, 0, 64, 0
1, 219882, Note_on_c, 0, 78, 0
1, 219882, Note_on_c, 0, 86, 0
1, 219882, Note_on_c, 0, 74, 0
1, 219885, Note_on_c, 0, 50, 0
1, 219885, Note_on_c, 0, 57, 0
1, 219885, Note_on_c, 0, 54, 0
1, 219888, Note_on_c, 0, 62, 0
1, 219996, Note_on_c, 0, 82, 63
1, 219996, Note_on_c, 0, 73, 54
1, 219996, Note_on_c, 0, 64, 54
1, 219999, Note_on_c, 0, 55, 53
1, 220012, Control_c, 0, 64, 127
1, 220071, Note_on_c, 0, 73, 0
1, 220071, Note_on_c, 0, 72, 54
1, 220071, Note_on_c, 0, 64, 0
1, 220074, Note_on_c, 0, 63, 54
1, 220145, Note_on_c, 0, 72, 0
1, 220145, Note_on_c, 0, 71, 54
1, 220145, Note_on_c, 0, 63, 0
1, 220148, Note_on_c, 0, 62, 54
1, 220220, Note_on_c, 0, 71, 0
1, 220220, Note_on_c, 0, 82, 0
1, 220220, Note_on_c, 0, 79, 68
1, 220223, Note_on_c, 0, 70, 54
1, 220223, Note_on_c, 0, 62, 0
1, 220223, Note_on_c, 0, 55, 0
1, 220226, Note_on_c, 0, 52, 56
1, 220226, Note_on_c, 0, 61, 54
1, 220294, Note_on_c, 0, 70, 0
1, 220294, Note_on_c, 0, 69, 54
1, 220294, Note_on_c, 0, 61, 0
1, 220297, Note_on_c, 0, 60, 54
1, 220369, Note_on_c, 0, 69, 0
1, 220369, Note_on_c, 0, 68, 54
1, 220369, Note_on_c, 0, 60, 0
1, 220372, Note_on_c, 0, 59, 54
1, 220443, Note_on_c, 0, 68, 0
1, 220443, Note_on_c, 0, 79, 0
1, 220443, Note_on_c, 0, 76, 63
1, 220446, Note_on_c, 0, 67, 54
1, 220446, Note_on_c, 0, 59, 0
1, 220446, Note_on_c, 0, 52, 0
1, 220449, Note_on_c, 0, 49, 52
1, 220449, Note_on_c, 0, 58, 54
1, 220524, Note_on_c, 0, 67, 0
1, 220524, Note_on_c, 0, 66, 54
1, 220524, Note_on_c, 0, 58, 0
1, 220527, Note_on_c, 0, 57, 54
1, 220605, Note_on_c, 0, 66, 0
1, 220605, Note_on_c, 0, 65, 54
1, 220605, Note_on_c, 0, 57, 0
1, 220608, Note_on_c, 0, 56, 54
1, 220686, Note_on_c, 0, 65, 0
1, 220686, Note_on_c, 0, 76, 0
1, 220686, Note_on_c, 0, 64, 57
1, 220689, Note_on_c, 0, 73, 68
1, 220689, Note_on_c, 0, 56, 0
1, 220689, Note_on_c, 0, 49, 0
1, 220692, Note_on_c, 0, 55, 56
1, 220692, Note_on_c, 0, 46, 47
1, 220692, Control_c, 0, 64, 0
1, 220803, Note_on_c, 0, 73, 0
1, 220803, Note_on_c, 0, 64, 0
1, 220803, Note_on_c, 0, 46, 0
1, 220806, Note_on_c, 0, 55, 0
1, 220919, Note_on_c, 0, 58, 58
1, 220919, Note_on_c, 0, 70, 69
1, 220919, Note_on_c, 0, 43, 61
1, 220922, Note_on_c, 0, 31, 51
1, 220930, Control_c, 0, 64, 127
1, 221035, Note_on_c, 0, 70, 0
1, 221035, Note_on_c, 0, 58, 0
1, 221035, Note_on_c, 0, 64, 60
1, 221038, Note_on_c, 0, 61, 50
1, 221038, Note_on_c, 0, 31, 0
1, 221038, Note_on_c, 0, 43, 0
1, 221041, Note_on_c, 0, 40, 56
1, 221041, Note_on_c, 0, 37, 47
1, 221152, Note_on_c, 0, 61, 0
1, 221152, Note_on_c, 0, 64, 0
1, 221152, Note_on_c, 0, 69, 69
1, 221155, Note_on_c, 0, 57, 58
1, 221155, Note_on_c, 0, 37, 0
1, 221155, Note_on_c, 0, 40, 0
1, 221158, Note_on_c, 0, 33, 51
1, 221158, Note_on_c, 0, 45, 61
1, 221268, Note_on_c, 0, 57, 0
1, 221268, Note_on_c, 0, 69, 0
1, 221268, Note_on_c, 0, 61, 50
1, 221271, Note_on_c, 0, 64, 60
1, 221271, Note_on_c, 0, 45, 0
1, 221271, Note_on_c, 0, 33, 0
1, 221274, Note_on_c, 0, 37, 48
1, 221274, Note_on_c, 0, 40, 57
1, 221385, Note_on_c, 0, 64, 0
1, 221385, Note_on_c, 0, 61, 0
1, 221385, Note_on_c, 0, 67, 69
1, 221388, Note_on_c, 0, 55, 58
1, 221388, Note_on_c, 0, 40, 0
1, 221388, Note_on_c, 0, 37, 0
1, 221391, Note_on_c, 0, 46, 61
1, 221391, Note_on_c, 0, 34, 51
1, 221505, Note_on_c, 0, 55, 0
1, 221505, Note_on_c, 0, 67, 0
1, 221505, Note_on_c, 0, 58, 51
1, 221508, Note_on_c, 0, 61, 61
1, 221508, Note_on_c, 0, 34, 0
1, 221508, Note_on_c, 0, 46, 0
1, 221511, Note_on_c, 0, 40, 47
1, 221511, Note_on_c, 0, 43, 56
1, 221626, Note_on_c, 0, 61, 0
1, 221626, Note_on_c, 0, 58, 0
1, 221626, Note_on_c, 0, 62, 59
1, 221629, Note_on_c, 0, 66, 59
1, 221629, Note_on_c, 0, 74, 70
1, 221629, Note_on_c, 0, 43, 0
1, 221632, Note_on_c, 0, 40, 0
1, 221632, Note_on_c, 0, 38, 62
1, 221632, Note_on_c, 0, 50, 62
1, 221635, Note_on_c, 0, 42, 62
1, 221635, Note_on_c, 0, 45, 62
1, 221635, Control_c, 0, 64, 0
1, 221744, Note_on_c, 0, 74, 0
1, 221744, Note_on_c, 0, 66, 0
1, 221744, Note_on_c, 0, 62, 0
1, 221747, Note_on_c, 0, 45, 0
1, 221747, Note_on_c, 0, 38, 0
1, 221747, Note_on_c, 0, 50, 0
1, 221750, Note_on_c, 0, 42, 0
1, 221863, Note_on_c, 0, 64, 58
1, 221863, Note_on_c, 0, 70, 58
1, 221863, Note_on_c, 0, 73, 58
1, 221866, Note_on_c, 0, 76, 69
1, 221866, Note_on_c, 0, 49, 46
1, 221866, Note_on_c, 0, 55, 55
1, 221869, Note_on_c, 0, 46, 46
1, 221869, Note_on_c, 0, 43, 46
1, 221881, Control_c, 0, 64, 127
1, 221974, Note_on_c, 0, 76, 0
1, 221974, Note_on_c, 0, 64, 0
1, 221974, Note_on_c, 0, 70, 0
1, 221977, Note_on_c, 0, 73, 0
1, 221977, Note_on_c, 0, 73, 58
1, 221977, Note_on_c, 0, 64, 58
1, 221980, Note_on_c, 0, 70, 58
1, 221980, Note_on_c, 0, 76, 69
1, 221980, Note_on_c, 0, 43, 0
1, 221983, Note_on_c, 0, 49, 0
1, 221983, Note_on_c, 0, 55, 0
1, 221983, Note_on_c, 0, 46, 0
1, 221986, Note_on_c, 0, 46, 46
1, 221986, Note_on_c, 0, 43, 46
1, 221986, Note_on_c, 0, 49, 46
1, 221989, Note_on_c, 0, 55, 55
1, 222086, Note_on_c, 0, 76, 0
1, 222086, Note_on_c, 0, 73, 0
1, 222086, Note_on_c, 0, 64, 0
1, 222089, Note_on_c, 0, 70, 0
1, 222089, Note_on_c, 0, 74, 65
1, 222089, Note_on_c, 0, 78, 77
1, 222092, Note_on_c, 0, 66, 65
1, 222092, Note_on_c, 0, 69, 65
1, 222092, Note_on_c, 0, 55, 0
1, 222095, Note_on_c, 0, 46, 0
1, 222095, Note_on_c, 0, 43, 0
1, 222095, Note_on_c, 0, 49, 0
1, 222098, Note_on_c, 0, 50, 54
1, 222098, Note_on_c, 0, 62, 64
1, 222098, Note_on_c, 0, 54, 54
1, 222101, Note_on_c, 0, 57, 54
1, 222101, Control_c, 0, 64, 0
1, 222132, Control_c, 0, 64, 127
1, 222198, Control_c, 0, 64, 0
1, 222202, Note_on_c, 0, 69, 0
1, 222202, Note_on_c, 0, 74, 0
1, 222202, Note_on_c, 0, 78, 0
1, 222205, Note_on_c, 0, 66, 0
1, 222205, Note_on_c, 0, 57, 0
1, 222205, Note_on_c, 0, 50, 0
1, 222208, Note_on_c, 0, 62, 0
1, 222208, Note_on_c, 0, 54, 0
1, 222318, Note_on_c, 0, 82, 73
1, 222318, Note_on_c, 0, 76, 61
1, 222318, Note_on_c, 0, 73, 61
1, 222321, Note_on_c, 0, 70, 61
1, 222321, Note_on_c, 0, 49, 49
1, 222321, Note_on_c, 0, 55, 58
1, 222324, Note_on_c, 0, 46, 49
1, 222324, Note_on_c, 0, 43, 49
1, 222370, Control_c, 0, 64, 127
1, 222426, Note_on_c, 0, 70, 0
1, 222426, Note_on_c, 0, 82, 0
1, 222426, Note_on_c, 0, 76, 0
1, 222429, Note_on_c, 0, 73, 0
1, 222429, Note_on_c, 0, 70, 61
1, 222429, Note_on_c, 0, 82, 73
1, 222432, Note_on_c, 0, 76, 61
1, 222432, Note_on_c, 0, 73, 61
1, 222432, Note_on_c, 0, 43, 0
1, 222435, Note_on_c, 0, 49, 0
1, 222435, Note_on_c, 0, 55, 0
1, 222435, Note_on_c, 0, 46, 0
1, 222438, Note_on_c, 0, 46, 49
1, 222438, Note_on_c, 0, 43, 49
1, 222438, Note_on_c, 0, 49, 49
1, 222441, Note_on_c, 0, 55, 58
1, 222535, Note_on_c, 0, 73, 0
1, 222535, Note_on_c, 0, 70, 0
1, 222535, Note_on_c, 0, 82, 0
1, 222538, Note_on_c, 0, 76, 0
1, 222538, Note_on_c, 0, 78, 58
1, 222538, Note_on_c, 0, 74, 58
1, 222541, Note_on_c, 0, 86, 85
1, 222541, Note_on_c, 0, 81, 65
1, 222541, Note_on_c, 0, 55, 0
1, 222544, Note_on_c, 0, 46, 0
1, 222544, Note_on_c, 0, 43, 0
1, 222544, Note_on_c, 0, 49, 0
1, 222547, Note_on_c, 0, 38, 57
1, 222547, Note_on_c, 0, 50, 68
1, 222547, Note_on_c, 0, 42, 57
1, 222550, Note_on_c, 0, 45, 57
1, 222550, Control_c, 0, 64, 0
1, 222651, Note_on_c, 0, 81, 0
1, 222651, Note_on_c, 0, 78, 0
1, 222651, Note_on_c, 0, 74, 0
1, 222654, Note_on_c, 0, 86, 0
1, 222654, Note_on_c, 0, 45, 0
1, 222654, Note_on_c, 0, 38, 0
1, 222657, Note_on_c, 0, 50, 0
1, 222657, Note_on_c, 0, 42, 0
1, 222768, Note_on_c, 0, 76, 61
1, 222768, Note_on_c, 0, 88, 72
1, 222768, Note_on_c, 0, 82, 61
1, 222771, Note_on_c, 0, 85, 61
1, 222771, Note_on_c, 0, 55, 60
1, 222771, Note_on_c, 0, 43, 51
1, 222774, Note_on_c, 0, 49, 51
1, 222774, Note_on_c, 0, 46, 51
1, 222786, Control_c, 0, 64, 127
1, 222878, Note_on_c, 0, 85, 0
1, 222878, Note_on_c, 0, 76, 0
1, 222878, Note_on_c, 0, 88, 0
1, 222881, Note_on_c, 0, 82, 0
1, 222881, Note_on_c, 0, 76, 61
1, 222881, Note_on_c, 0, 88, 72
1, 222884, Note_on_c, 0, 82, 61
1, 222884, Note_on_c, 0, 85, 61
1, 222884, Note_on_c, 0, 46, 0
1, 222887, Note_on_c, 0, 55, 0
1, 222887, Note_on_c, 0, 43, 0
1, 222887, Note_on_c, 0, 49, 0
1, 222890, Note_on_c, 0, 43, 49
1, 222890, Note_on_c, 0, 55, 58
1, 222890, Note_on_c, 0, 46, 49
1, 222893, Note_on_c, 0, 49, 49
1, 222988, Note_on_c, 0, 85, 0
1, 222988, Note_on_c, 0, 76, 0
1, 222988, Note_on_c, 0, 88, 0
1, 222991, Note_on_c, 0, 82, 0
1, 222991, Note_on_c, 0, 78, 69
1, 222991, Note_on_c, 0, 81, 69
1, 222994, Note_on_c, 0, 86, 69
1, 222994, Note_on_c, 0, 90, 82
1, 222994, Note_on_c, 0, 49, 0
1, 222997, Note_on_c, 0, 43, 0
1, 222997, Note_on_c, 0, 55, 0
1, 222997, Note_on_c, 0, 46, 0
1, 223000, Note_on_c, 0, 50, 56
1, 223000, Note_on_c, 0, 54, 56
1, 223000, Note_on_c, 0, 62, 66
1, 223003, Note_on_c, 0, 57, 56
1, 223003, Control_c, 0, 64, 0
1, 223033, Control_c, 0, 64, 127
1, 223100, Control_c, 0, 64, 0
1, 223104, Note_on_c, 0, 90, 0
1, 223104, Note_on_c, 0, 78, 0
1, 223104, Note_on_c, 0, 81, 0
1, 223107, Note_on_c, 0, 86, 0
1, 223107, Note_on_c, 0, 57, 0
1, 223107, Note_on_c, 0, 50, 0
1, 223110, Note_on_c, 0, 54, 0
1, 223110, Note_on_c, 0, 62, 0
1, 223219, Note_on_c, 0, 82, 65
1, 223219, Note_on_c, 0, 85, 65
1, 223219, Note_on_c, 0, 88, 65
1, 223222, Note_on_c, 0, 94, 77
1, 223222, Note_on_c, 0, 46, 50
1, 223222, Note_on_c, 0, 49, 50
1, 223225, Note_on_c, 0, 55, 59
1, 223225, Note_on_c, 0, 43, 50
1, 223273, Control_c, 0, 64, 127
1, 223331, Note_on_c, 0, 94, 0
1, 223331, Note_on_c, 0, 82, 0
1, 223331, Note_on_c, 0, 85, 0
1, 223334, Note_on_c, 0, 88, 0
1, 223334, Note_on_c, 0, 82, 65
1, 223334, Note_on_c, 0, 85, 65
1, 223337, Note_on_c, 0, 88, 65
1, 223337, Note_on_c, 0, 94, 77
1, 223337, Note_on_c, 0, 43, 0
1, 223340, Note_on_c, 0, 46, 0
1, 223340, Note_on_c, 0, 49, 0
1, 223340, Note_on_c, 0, 55, 0
1, 223343, Note_on_c, 0, 49, 50
1, 223343, Note_on_c, 0, 55, 59
1, 223343, Note_on_c, 0, 46, 50
1, 223346, Note_on_c, 0, 43, 50
1, 223443, Note_on_c, 0, 94, 0
1, 223443, Note_on_c, 0, 82, 0
1, 223443, Note_on_c, 0, 85, 0
1, 223446, Note_on_c, 0, 88, 0
1, 223446, Note_on_c, 0, 98, 87
1, 223446, Note_on_c, 0, 90, 73
1, 223449, Note_on_c, 0, 86, 73
1, 223449, Note_on_c, 0, 43, 0
1, 223449, Note_on_c, 0, 49, 0
1, 223452, Note_on_c, 0, 55, 0
1, 223452, Note_on_c, 0, 46, 0
1, 223452, Note_on_c, 0, 38, 57
1, 223455, Note_on_c, 0, 50, 68
1, 223455, Note_on_c, 0, 42, 57
1, 223455, Note_on_c, 0, 45, 57
1, 223458, Control_c, 0, 64, 0
1, 223559, Note_on_c, 0, 86, 0
1, 223559, Note_on_c, 0, 90, 0
1, 223559, Note_on_c, 0, 98, 0
1, 223562, Note_on_c, 0, 45, 0
1, 223562, Note_on_c, 0, 38, 0
1, 223562, Note_on_c, 0, 50, 0
1, 223565, Note_on_c, 0, 42, 0
1, 223676, Note_on_c, 0, 88, 66
1, 223676, Note_on_c, 0, 94, 78
1, 223676, Note_on_c, 0, 85, 66
1, 223679, Note_on_c, 0, 82, 66
1, 223679, Note_on_c, 0, 40, 60
1, 223679, Note_on_c, 0, 31, 51
1, 223682, Note_on_c, 0, 37, 51
1, 223682, Note_on_c, 0, 43, 60
1, 223730, Control_c, 0, 64, 127
1, 223788, Note_on_c, 0, 82, 0
1, 223788, Note_on_c, 0, 88, 0
1, 223788, Note_on_c, 0, 94, 0
1, 223791, Note_on_c, 0, 85, 0
1, 223791, Note_on_c, 0, 85, 66
1, 223791, Note_on_c, 0, 82, 66
1, 223794, Note_on_c, 0, 88, 66
1, 223794, Note_on_c, 0, 94, 78
1, 223794, Note_on_c, 0, 43, 0
1, 223797, Note_on_c, 0, 40, 0
1, 223797, Note_on_c, 0, 31, 0
1, 223797, Note_on_c, 0, 37, 0
1, 223800, Note_on_c, 0, 40, 60
1, 223800, Note_on_c, 0, 43, 60
1, 223800, Note_on_c, 0, 37, 51
1, 223803, Note_on_c, 0, 31, 51
1, 223900, Note_on_c, 0, 94, 0
1, 223900, Note_on_c, 0, 85, 0
1, 223900, Note_on_c, 0, 82, 0
1, 223903, Note_on_c, 0, 88, 0
1, 223903, Note_on_c, 0, 86, 76
1, 223903, Note_on_c, 0, 98, 91
1, 223906, Note_on_c, 0, 90, 76
1, 223906, Note_on_c, 0, 31, 0
1, 223906, Note_on_c, 0, 40, 0
1, 223909, Note_on_c, 0, 43, 0
1, 223909, Note_on_c, 0, 37, 0
1, 223909, Note_on_c, 0, 38, 59
1, 223912, Note_on_c, 0, 42, 59
1, 223912, Note_on_c, 0, 45, 59
1, 223912, Note_on_c, 0, 50, 71
1, 223915, Control_c, 0, 64, 0
1, 224017, Note_on_c, 0, 90, 0
1, 224017, Note_on_c, 0, 98, 0
1, 224017, Note_on_c, 0, 86, 0
1, 224020, Note_on_c, 0, 50, 0
1, 224020, Note_on_c, 0, 38, 0
1, 224020, Note_on_c, 0, 42, 0
1, 224023, Note_on_c, 0, 45, 0
1, 224133, Note_on_c, 0, 85, 72
1, 224133, Note_on_c, 0, 88, 72
1, 224133, Note_on_c, 0, 94, 85
1, 224136, Note_on_c, 0, 82, 72
1, 224136, Note_on_c, 0, 31, 52
1, 224136, Note_on_c, 0, 37, 52
1, 224139, Note_on_c, 0, 40, 52
1, 224139, Note_on_c, 0, 43, 62
1, 224188, Control_c, 0, 64, 127
1, 224246, Note_on_c, 0, 82, 0
1, 224246, Note_on_c, 0, 85, 0
1, 224246, Note_on_c, 0, 88, 0
1, 224249, Note_on_c, 0, 94, 0
1, 224249, Note_on_c, 0, 85, 72
1, 224249, Note_on_c, 0, 82, 72
1, 224252, Note_on_c, 0, 88, 72
1, 224252, Note_on_c, 0, 94, 85
1, 224252, Note_on_c, 0, 43, 0
1, 224255, Note_on_c, 0, 31, 0
1, 224255, Note_on_c, 0, 37, 0
1, 224255, Note_on_c, 0, 40, 0
1, 224258, Note_on_c, 0, 31, 52
1, 224258, Note_on_c, 0, 43, 62
1, 224258, Note_on_c, 0, 40, 52
1, 224261, Note_on_c, 0, 37, 52
1, 224359, Note_on_c, 0, 94, 0
1, 224359, Note_on_c, 0, 85, 0
1, 224359, Note_on_c, 0, 82, 0
1, 224362, Note_on_c, 0, 88, 0
1, 224362, Note_on_c, 0, 86, 79
1, 224362, Note_on_c, 0, 98, 93
1, 224365, Note_on_c, 0, 90, 79
1, 224365, Note_on_c, 0, 37, 0
1, 224365, Note_on_c, 0, 31, 0
1, 224368, Note_on_c, 0, 43, 0
1, 224368, Note_on_c, 0, 40, 0
1, 224368, Note_on_c, 0, 45, 62
1, 224371, Note_on_c, 0, 38, 62
1, 224371, Note_on_c, 0, 50, 74
1, 224371, Note_on_c, 0, 42, 62
1, 224374, Control_c, 0, 64, 0
1, 224592, Note_on_c, 0, 90, 0
1, 224592, Note_on_c, 0, 98, 0
1, 224592, Note_on_c, 0, 86, 0
1, 224595, Note_on_c, 0, 94, 86
1, 224595, Note_on_c, 0, 82, 73
1, 224595, Note_on_c, 0, 88, 73
1, 224598, Note_on_c, 0, 85, 73
1, 224598, Note_on_c, 0, 42, 0
1, 224598, Note_on_c, 0, 45, 0
1, 224601, Note_on_c, 0, 38, 0
1, 224601, Note_on_c, 0, 50, 0
1, 224601, Note_on_c, 0, 40, 53
1, 224604, Note_on_c, 0, 37, 53
1, 224604, Note_on_c, 0, 43, 63
1, 224604, Note_on_c, 0, 31, 53
1, 224825, Note_on_c, 0, 85, 0
1, 224825, Note_on_c, 0, 94, 0
1, 224825, Note_on_c, 0, 82, 0
1, 224828, Note_on_c, 0, 88, 0
1, 224828, Note_on_c, 0, 31, 0
1, 224828, Note_on_c, 0, 40, 0
1, 224831, Note_on_c, 0, 37, 0
1, 224831, Note_on_c, 0, 43, 0
1, 225060, Note_on_c, 0, 94, 86
1, 225060, Note_on_c, 0, 82, 73
1, 225060, Note_on_c, 0, 88, 73
1, 225063, Note_on_c, 0, 85, 73
1, 225063, Note_on_c, 0, 31, 53
1, 225063, Note_on_c, 0, 40, 53
1, 225066, Note_on_c, 0, 37, 53
1, 225066, Note_on_c, 0, 43, 63
1, 225296, Note_on_c, 0, 85, 0
1, 225296, Note_on_c, 0, 94, 0
1, 225296, Note_on_c, 0, 82, 0
1, 225299, Note_on_c, 0, 88, 0
1, 225299, Note_on_c, 0, 43, 0
1, 225299, Note_on_c, 0, 31, 0
1, 225302, Note_on_c, 0, 40, 0
1, 225302, Note_on_c, 0, 37, 0
1, 225558, Note_on_c, 0, 82, 70
1, 225558, Note_on_c, 0, 94, 83
1, 225558, Note_on_c, 0, 85, 70
1, 225561, Note_on_c, 0, 88, 70
1, 225561, Note_on_c, 0, 31, 53
1, 225561, Note_on_c, 0, 43, 63
1, 225564, Note_on_c, 0, 37, 53
1, 225564, Note_on_c, 0, 40, 53
1, 225801, Note_on_c, 0, 88, 0
1, 225801, Note_on_c, 0, 82, 0
1, 225801, Note_on_c, 0, 94, 0
1, 225804, Note_on_c, 0, 85, 0
1, 225804, Note_on_c, 0, 77, 70
1, 225804, Note_on_c, 0, 83, 83
1, 225807, Note_on_c, 0, 89, 83
1, 225807, Note_on_c, 0, 80, 70
1, 225807, Note_on_c, 0, 40, 0
1, 225810, Note_on_c, 0, 31, 0
1, 225810, Note_on_c, 0, 43, 0
1, 225810, Note_on_c, 0, 37, 0
1, 225813, Note_on_c, 0, 41, 52
1, 225813, Note_on_c, 0, 38, 52
1, 225813, Note_on_c, 0, 50, 62
1, 225816, Note_on_c, 0, 44, 52
1, 226047, Note_on_c, 0, 80, 0
1, 226047, Note_on_c, 0, 77, 0
1, 226047, Note_on_c, 0, 83, 0
1, 226050, Note_on_c, 0, 89, 0
1, 226050, Note_on_c, 0, 72, 70
1, 226050, Note_on_c, 0, 75, 70
1, 226053, Note_on_c, 0, 78, 70
1, 226053, Note_on_c, 0, 84, 83
1, 226053, Note_on_c, 0, 44, 0
1, 226056, Note_on_c, 0, 41, 0
1, 226056, Note_on_c, 0, 38, 0
1, 226056, Note_on_c, 0, 50, 0
1, 226059, Note_on_c, 0, 42, 52
1, 226059, Note_on_c, 0, 38, 52
1, 226059, Note_on_c, 0, 51, 62
1, 226062, Note_on_c, 0, 45, 52
1, 226297, Note_on_c, 0, 84, 0
1, 226297, Note_on_c, 0, 72, 0
1, 226297, Note_on_c, 0, 75, 0
1, 226300, Note_on_c, 0, 78, 0
1, 226300, Note_on_c, 0, 67, 70
1, 226300, Note_on_c, 0, 70, 70
1, 226303, Note_on_c, 0, 79, 83
1, 226303, Note_on_c, 0, 73, 70
1, 226303, Note_on_c, 0, 45, 0
1, 226306, Note_on_c, 0, 42, 0
1, 226306, Note_on_c, 0, 38, 0
1, 226306, Note_on_c, 0, 51, 0
1, 226309, Note_on_c, 0, 46, 51
1, 226309, Note_on_c, 0, 38, 51
1, 226309, Note_on_c, 0, 52, 61
1, 226312, Note_on_c, 0, 43, 51
1, 226552, Note_on_c, 0, 73, 0
1, 226552, Note_on_c, 0, 67, 0
1, 226552, Note_on_c, 0, 70, 0
1, 226555, Note_on_c, 0, 79, 0
1, 226555, Note_on_c, 0, 74, 83
1, 226555, Note_on_c, 0, 62, 70
1, 226558, Note_on_c, 0, 65, 70
1, 226558, Note_on_c, 0, 68, 70
1, 226558, Note_on_c, 0, 43, 0
1, 226561, Note_on_c, 0, 46, 0
1, 226561, Note_on_c, 0, 38, 0
1, 226561, Note_on_c, 0, 52, 0
1, 226564, Note_on_c, 0, 47, 51
1, 226564, Note_on_c, 0, 38, 51
1, 226564, Note_on_c, 0, 44, 51
1, 226567, Note_on_c, 0, 53, 61
1, 226813, Note_on_c, 0, 68, 0
1, 226813, Note_on_c, 0, 74, 0
1, 226813, Note_on_c, 0, 62, 0
1, 226816, Note_on_c, 0, 65, 0
1, 226816, Note_on_c, 0, 60, 70
1, 226816, Note_on_c, 0, 69, 83
1, 226819, Note_on_c, 0, 63, 70
1, 226819, Note_on_c, 0, 57, 70
1, 226819, Note_on_c, 0, 53, 0
1, 226822, Note_on_c, 0, 47, 0
1, 226822, Note_on_c, 0, 38, 0
1, 226822, Note_on_c, 0, 44, 0
1, 226825, Note_on_c, 0, 54, 61
1, 226825, Note_on_c, 0, 48, 51
1, 226825, Note_on_c, 0, 38, 51
1, 226828, Note_on_c, 0, 45, 51
1, 227083, Note_on_c, 0, 57, 0
1, 227083, Note_on_c, 0, 60, 0
1, 227083, Note_on_c, 0, 69, 0
1, 227086, Note_on_c, 0, 63, 0
1, 227086, Note_on_c, 0, 70, 83
1, 227086, Note_on_c, 0, 58, 70
1, 227089, Note_on_c, 0, 61, 70
1, 227089, Note_on_c, 0, 64, 70
1, 227089, Note_on_c, 0, 45, 0
1, 227092, Note_on_c, 0, 54, 0
1, 227092, Note_on_c, 0, 48, 0
1, 227092, Note_on_c, 0, 38, 0
1, 227095, Note_on_c, 0, 38, 51
1, 227095, Note_on_c, 0, 46, 51
1, 227095, Note_on_c, 0, 55, 61
1, 227098, Note_on_c, 0, 49, 51
1, 227351, Note_on_c, 0, 64, 0
1, 227351, Note_on_c, 0, 70, 0
1, 227351, Note_on_c, 0, 58, 0
1, 227354, Note_on_c, 0, 61, 0
1, 227354, Note_on_c, 0, 49, 0
1, 227354, Note_on_c, 0, 38, 0
1, 227357, Note_on_c, 0, 46, 0
1, 227357, Note_on_c, 0, 55, 0
1, 227871, Note_on_c, 0, 53, 68
1, 227871, Note_on_c, 0, 59, 68
1, 227871, Note_on_c, 0, 65, 81
1, 227874, Note_on_c, 0, 38, 47
1, 227874, Note_on_c, 0, 47, 47
1, 227874, Note_on_c, 0, 56, 56
1, 228490, Note_on_c, 0, 59, 0
1, 228490, Note_on_c, 0, 53, 0
1, 228490, Note_on_c, 0, 56, 0
1, 228493, Note_on_c, 0, 47, 0
1, 228493, Note_on_c, 0, 38, 0
1, 228750, Note_on_c, 0, 65, 0
1, 228750, Note_on_c, 0, 61, 72
1, 229010, Note_on_c, 0, 61, 0
1, 229010, Note_on_c, 0, 62, 72
1, 229399, Note_on_c, 0, 62, 0
1, 229399, Note_on_c, 0, 64, 72
1, 229527, Note_on_c, 0, 64, 0
1, 229527, Note_on_c, 0, 64, 72
1, 229655, Note_on_c, 0, 64, 0
1, 229655, Note_on_c, 0, 67, 81
1, 230546, Note_on_c, 0, 67, 0
1, 230546, Note_on_c, 0, 65, 77
1, 230796, Note_on_c, 0, 65, 0
1, 230796, Note_on_c, 0, 64, 79
1, 231085, Note_on_c, 0, 64, 0
1, 231085, Note_on_c, 0, 62, 75
1, 231374, Note_on_c, 0, 62, 0
1, 231374, Note_on_c, 0, 61, 75
1, 231664, Note_on_c, 0, 61, 0
1, 231664, Note_on_c, 0, 60, 80
1, 231953, Note_on_c, 0, 60, 0
1, 231953, Note_on_c, 0, 59, 76
1, 232243, Note_on_c, 0, 59, 0
1, 232243, Note_on_c, 0, 53, 57
1, 232243, Note_on_c, 0, 56, 57
1, 232246, Note_on_c, 0, 58, 68
1, 232581, Note_on_c, 0, 58, 0
1, 232581, Note_on_c, 0, 56, 0
1, 232581, Note_on_c, 0, 53, 0
1, 232584, Note_on_c, 0, 58, 69
1, 232584, Note_on_c, 0, 54, 58
1, 232584, Note_on_c, 0, 39, 54
1, 232587, Note_on_c, 0, 46, 64
1, 232682, Control_c, 0, 64, 127
1, 233557, Note_on_c, 0, 54, 0
1, 233557, Note_on_c, 0, 58, 0
1, 233557, Note_on_c, 0, 53, 58
1, 233560, Note_on_c, 0, 58, 69
1, 233560, Note_on_c, 0, 46, 0
1, 233560, Note_on_c, 0, 39, 0
1, 233563, Note_on_c, 0, 46, 64
1, 233563, Note_on_c, 0, 37, 54
1, 233569, Control_c, 0, 64, 0
1, 233694, Control_c, 0, 64, 127
1, 234412, Note_on_c, 0, 46, 0
1, 234412, Note_on_c, 0, 46, 67
1, 234555, Note_on_c, 0, 58, 0
1, 234555, Note_on_c, 0, 53, 0
1, 234555, Note_on_c, 0, 58, 58
1, 234558, Note_on_c, 0, 63, 69
1, 234558, Note_on_c, 0, 51, 58
1, 234558, Note_on_c, 0, 46, 0
1, 234561, Note_on_c, 0, 37, 0
1, 234561, Note_on_c, 0, 35, 58
1, 234561, Note_on_c, 0, 46, 69
1, 234561, Control_c, 0, 64, 0
1, 234935, Control_c, 0, 64, 127
1, 235532, Note_on_c, 0, 51, 0
1, 235532, Note_on_c, 0, 63, 0
1, 235532, Note_on_c, 0, 58, 0
1, 235535, Note_on_c, 0, 63, 75
1, 235535, Note_on_c, 0, 51, 63
1, 235535, Note_on_c, 0, 56, 63
1, 235538, Note_on_c, 0, 46, 0
1, 235538, Note_on_c, 0, 35, 0
1, 235538, Note_on_c, 0, 44, 65
1, 235541, Note_on_c, 0, 35, 55
1, 235541, Control_c, 0, 64, 0
1, 235662, Control_c, 0, 64, 127
1, 236441, Note_on_c, 0, 56, 0
1, 236441, Note_on_c, 0, 51, 0
1, 236441, Note_on_c, 0, 63, 0
1, 236444, Note_on_c, 0, 53, 62
1, 236444, Note_on_c, 0, 62, 62
1, 236444, Note_on_c, 0, 65, 74
1, 236447, Note_on_c, 0, 56, 62
1, 236447, Note_on_c, 0, 35, 0
1, 236447, Note_on_c, 0, 44, 0
1, 236450, Note_on_c, 0, 44, 59
1, 236450, Note_on_c, 0, 35, 50
1, 236605, Note_on_c, 0, 56, 0
1, 236605, Note_on_c, 0, 53, 0
1, 236605, Note_on_c, 0, 62, 0
1, 236608, Note_on_c, 0, 65, 0
1, 236608, Note_on_c, 0, 56, 68
1, 236608, Note_on_c, 0, 53, 68
1, 236611, Note_on_c, 0, 62, 68
1, 236611, Note_on_c, 0, 65, 80
1, 236611, Note_on_c, 0, 35, 0
1, 236614, Note_on_c, 0, 44, 0
1, 236614, Note_on_c, 0, 35, 57
1, 236614, Note_on_c, 0, 44, 68
1, 236617, Control_c, 0, 64, 0
1, 236933, Note_on_c, 0, 65, 0
1, 236933, Note_on_c, 0, 56, 0
1, 236933, Note_on_c, 0, 53, 0
1, 236936, Note_on_c, 0, 62, 0
1, 236936, Note_on_c, 0, 44, 0
1, 236936, Note_on_c, 0, 35, 0
1, 237589, Note_on_c, 0, 53, 48
1, 237635, Control_c, 0, 64, 127
1, 237917, Note_on_c, 0, 53, 0
1, 237917, Note_on_c, 0, 62, 54
1, 238900, Note_on_c, 0, 62, 0
1, 238900, Note_on_c, 0, 53, 51
1, 239228, Note_on_c, 0, 53, 0
1, 239228, Control_c, 0, 64, 0
1, 240540, Note_on_c, 0, 61, 54
1, 240540, Note_on_c, 0, 65, 54
1, 240540, Note_on_c, 0, 53, 44
1, 240543, Note_on_c, 0, 34, 44
1, 240543, Note_on_c, 0, 44, 44
1, 240543, Note_on_c, 0, 56, 44
1, 240868, Note_on_c, 0, 65, 0
1, 240868, Note_on_c, 0, 61, 0
1, 240868, Note_on_c, 0, 56, 0
1, 240871, Note_on_c, 0, 53, 0
1, 240871, Note_on_c, 0, 34, 0
1, 240871, Note_on_c, 0, 44, 0
1, 241735, Note_on_c, 0, 65, 49
1, 241735, Note_on_c, 0, 62, 49
1, 241735, Note_on_c, 0, 53, 39
1, 241738, Note_on_c, 0, 44, 39
1, 241738, Note_on_c, 0, 56, 39
1, 241738, Note_on_c, 0, 35, 39
1, 241743, Control_c, 0, 64, 127
1, 241915, Note_on_c, 0, 62, 0
1, 241915, Note_on_c, 0, 65, 0
1, 241915, Note_on_c, 0, 65, 54
1, 241918, Note_on_c, 0, 62, 54
1, 241918, Note_on_c, 0, 35, 0
1, 241918, Note_on_c, 0, 53, 0
1, 241921, Note_on_c, 0, 44, 0
1, 241921, Note_on_c, 0, 56, 0
1, 241921, Note_on_c, 0, 56, 44
1, 241924, Note_on_c, 0, 35, 44
1, 241924, Note_on_c, 0, 44, 44
1, 241924, Note_on_c, 0, 53, 44
1, 242079, Note_on_c, 0, 62, 0
1, 242079, Note_on_c, 0, 65, 0
1, 242079, Note_on_c, 0, 53, 0
1, 242082, Note_on_c, 0, 56, 0
1, 242082, Note_on_c, 0, 35, 0
1, 242082, Note_on_c, 0, 44, 0
1, 242133, Control_c, 0, 64, 0
1, 242899, Note_on_c, 0, 53, 48
1, 242945, Control_c, 0, 64, 127
1, 243227, Note_on_c, 0, 53, 0
1, 243227, Note_on_c, 0, 62, 54
1, 244210, Note_on_c, 0, 62, 0
1, 244210, Note_on_c, 0, 53, 51
1, 244538, Note_on_c, 0, 53, 0
1, 244538, Control_c, 0, 64, 0
1, 245850, Note_on_c, 0, 61, 54
1, 245850, Note_on_c, 0, 65, 54
1, 245850, Note_on_c, 0, 34, 44
1, 245853, Note_on_c, 0, 56, 44
1, 245853, Note_on_c, 0, 53, 44
1, 245853, Note_on_c, 0, 44, 44
1, 246178, Note_on_c, 0, 65, 0
1, 246178, Note_on_c, 0, 61, 0
1, 246178, Note_on_c, 0, 44, 0
1, 246181, Note_on_c, 0, 34, 0
1, 246181, Note_on_c, 0, 56, 0
1, 246181, Note_on_c, 0, 53, 0
1, 247045, Note_on_c, 0, 62, 49
1, 247045, Note_on_c, 0, 65, 49
1, 247045, Note_on_c, 0, 35, 39
1, 247048, Note_on_c, 0, 44, 39
1, 247048, Note_on_c, 0, 56, 39
1, 247048, Note_on_c, 0, 53, 39
1, 247053, Control_c, 0, 64, 127
1, 247225, Note_on_c, 0, 65, 0
1, 247225, Note_on_c, 0, 62, 0
1, 247225, Note_on_c, 0, 65, 54
1, 247228, Note_on_c, 0, 62, 54
1, 247228, Note_on_c, 0, 53, 0
1, 247228, Note_on_c, 0, 35, 0
1, 247231, Note_on_c, 0, 44, 0
1, 247231, Note_on_c, 0, 56, 0
1, 247231, Note_on_c, 0, 53, 44
1, 247234, Note_on_c, 0, 44, 44
1, 247234, Note_on_c, 0, 56, 44
1, 247234, Note_on_c, 0, 35, 44
1, 247389, Note_on_c, 0, 62, 0
1, 247389, Note_on_c, 0, 65, 0
1, 247389, Note_on_c, 0, 35, 0
1, 247392, Note_on_c, 0, 53, 0
1, 247392, Note_on_c, 0, 44, 0
1, 247392, Note_on_c, 0, 56, 0
1, 247443, Control_c, 0, 64, 0
1, 248209, Note_on_c, 0, 62, 48
1, 248255, Control_c, 0, 64, 127
1, 248537, Note_on_c, 0, 62, 0
1, 248537, Note_on_c, 0, 71, 54
1, 249520, Note_on_c, 0, 71, 0
1, 249520, Note_on_c, 0, 62, 51
1, 249848, Note_on_c, 0, 62, 0
1, 249848, Control_c, 0, 64, 0
1, 250832, Note_on_c, 0, 56, 43
1, 250879, Control_c, 0, 64, 127
1, 251160, Note_on_c, 0, 56, 0
1, 251160, Note_on_c, 0, 65, 51
1, 252144, Note_on_c, 0, 65, 0
1, 252144, Note_on_c, 0, 56, 46
1, 252472, Note_on_c, 0, 56, 0
1, 252472, Control_c, 0, 64, 0
1, 253482, Note_on_c, 0, 50, 38
1, 253532, Control_c, 0, 64, 127
1, 253835, Note_on_c, 0, 50, 0
1, 253835, Note_on_c, 0, 59, 44
1, 254897, Note_on_c, 0, 59, 0
1, 254897, Note_on_c, 0, 44, 37
1, 255431, Note_on_c, 0, 44, 0
1, 255431, Note_on_c, 0, 53, 37
1, 255451, Control_c, 0, 64, 0
1, 256100, Control_c, 0, 64, 127
1, 259710, Note_on_c, 0, 53, 0
1, 259710, Control_c, 0, 64, 0
1, 261297, Note_on_c, 0, 65, 55
1, 261297, Note_on_c, 0, 41, 39
1, 261297, Note_on_c, 0, 53, 46
1, 261478, Note_on_c, 0, 64, 57
1, 261478, Note_on_c, 0, 52, 49
1, 261478, Note_on_c, 0, 40, 41
1, 261496, Note_on_c, 0, 65, 0
1, 261496, Note_on_c, 0, 53, 0
1, 261496, Note_on_c, 0, 41, 0
1, 261656, Note_on_c, 0, 62, 59
1, 261656, Note_on_c, 0, 38, 43
1, 261656, Note_on_c, 0, 50, 51
1, 261673, Note_on_c, 0, 64, 0
1, 261673, Note_on_c, 0, 52, 0
1, 261673, Note_on_c, 0, 40, 0
1, 261831, Note_on_c, 0, 61, 61
1, 261831, Note_on_c, 0, 37, 45
1, 261831, Note_on_c, 0, 49, 54
1, 261848, Note_on_c, 0, 62, 0
1, 261848, Note_on_c, 0, 38, 0
1, 261848, Note_on_c, 0, 50, 0
1, 262002, Note_on_c, 0, 60, 63
1, 262002, Note_on_c, 0, 48, 56
1, 262002, Note_on_c, 0, 36, 47
1, 262019, Note_on_c, 0, 61, 0
1, 262019, Note_on_c, 0, 37, 0
1, 262019, Note_on_c, 0, 49, 0
1, 262169, Note_on_c, 0, 59, 65
1, 262169, Note_on_c, 0, 35, 50
1, 262169, Note_on_c, 0, 47, 59
1, 262186, Note_on_c, 0, 60, 0
1, 262186, Note_on_c, 0, 48, 0
1, 262186, Note_on_c, 0, 36, 0
1, 262334, Note_on_c, 0, 58, 67
1, 262334, Note_on_c, 0, 34, 51
1, 262334, Note_on_c, 0, 46, 61
1, 262350, Note_on_c, 0, 59, 0
1, 262350, Note_on_c, 0, 35, 0
1, 262350, Note_on_c, 0, 47, 0
1, 262495, Note_on_c, 0, 57, 76
1, 262495, Note_on_c, 0, 33, 56
1, 262495, Note_on_c, 0, 45, 66
1, 262509, Note_on_c, 0, 58, 0
1, 262509, Note_on_c, 0, 34, 0
1, 262509, Note_on_c, 0, 46, 0
1, 262657, Control_c, 0, 64, 127
1, 263543, Note_on_c, 0, 69, 54
1, 263543, Note_on_c, 0, 74, 54
1, 263543, Note_on_c, 0, 78, 54
1, 263546, Note_on_c, 0, 81, 64
1, 263546, Note_on_c, 0, 66, 56
1, 263546, Note_on_c, 0, 62, 47
1, 263549, Note_on_c, 0, 57, 47
1, 263615, Note_on_c, 0, 81, 0
1, 263615, Note_on_c, 0, 74, 0
1, 263615, Note_on_c, 0, 78, 0
1, 263618, Note_on_c, 0, 69, 0
1, 263618, Note_on_c, 0, 69, 54
1, 263618, Note_on_c, 0, 74, 54
1, 263621, Note_on_c, 0, 78, 54
1, 263621, Note_on_c, 0, 81, 64
1, 263621, Note_on_c, 0, 57, 0
1, 263624, Note_on_c, 0, 66, 0
1, 263624, Note_on_c, 0, 62, 0
1, 263624, Note_on_c, 0, 66, 56
1, 263627, Note_on_c, 0, 62, 47
1, 263627, Note_on_c, 0, 57, 47
1, 263687, Note_on_c, 0, 81, 0
1, 263687, Note_on_c, 0, 74, 0
1, 263687, Note_on_c, 0, 78, 0
1, 263690, Note_on_c, 0, 69, 0
1, 263690, Note_on_c, 0, 69, 61
1, 263690, Note_on_c, 0, 74, 61
1, 263693, Note_on_c, 0, 78, 61
1, 263693, Note_on_c, 0, 81, 72
1, 263693, Note_on_c, 0, 57, 0
1, 263696, Note_on_c, 0, 66, 0
1, 263696, Note_on_c, 0, 62, 0
1, 263696, Note_on_c, 0, 66, 63
1, 263699, Note_on_c, 0, 62, 53
1, 263699, Note_on_c, 0, 57, 53
1, 264290, Note_on_c, 0, 57, 0
1, 264290, Note_on_c, 0, 33, 0
1, 264290, Note_on_c, 0, 45, 0
1, 264591, Note_on_c, 0, 78, 0
1, 264591, Note_on_c, 0, 69, 0
1, 264591, Note_on_c, 0, 74, 0
1, 264594, Note_on_c, 0, 81, 0
1, 264594, Note_on_c, 0, 62, 0
1, 264594, Note_on_c, 0, 66, 0
1, 264597, Note_on_c, 0, 57, 0
1, 264742, Note_on_c, 0, 57, 74
1, 264742, Note_on_c, 0, 33, 59
1, 264742, Note_on_c, 0, 45, 59
1, 264893, Note_on_c, 0, 57, 0
1, 264893, Note_on_c, 0, 59, 78
1, 264893, Note_on_c, 0, 45, 0
1, 264896, Note_on_c, 0, 33, 0
1, 264896, Note_on_c, 0, 35, 54
1, 264896, Note_on_c, 0, 47, 64
1, 264926, Control_c, 0, 64, 0
1, 265134, Control_c, 0, 64, 127
1, 265921, Note_on_c, 0, 86, 64
1, 265921, Note_on_c, 0, 83, 54
1, 265921, Note_on_c, 0, 78, 54
1, 265924, Note_on_c, 0, 74, 54
1, 265924, Note_on_c, 0, 66, 54
1, 265924, Note_on_c, 0, 62, 45
1, 265927, Note_on_c, 0, 59, 45
1, 265927, Note_on_c, 0, 54, 45
1, 265990, Note_on_c, 0, 74, 0
1, 265990, Note_on_c, 0, 83, 0
1, 265990, Note_on_c, 0, 78, 0
1, 265993, Note_on_c, 0, 86, 0
1, 265993, Note_on_c, 0, 86, 64
1, 265993, Note_on_c, 0, 83, 54
1, 265996, Note_on_c, 0, 78, 54
1, 265996, Note_on_c, 0, 74, 54
1, 265996, Note_on_c, 0, 54, 0
1, 265999, Note_on_c, 0, 62, 0
1, 265999, Note_on_c, 0, 66, 0
1, 265999, Note_on_c, 0, 59, 0
1, 266002, Note_on_c, 0, 66, 54
1, 266002, Note_on_c, 0, 62, 45
1, 266002, Note_on_c, 0, 59, 45
1, 266005, Note_on_c, 0, 54, 45
1, 266059, Note_on_c, 0, 74, 0
1, 266059, Note_on_c, 0, 83, 0
1, 266059, Note_on_c, 0, 78, 0
1, 266062, Note_on_c, 0, 86, 0
1, 266062, Note_on_c, 0, 86, 69
1, 266062, Note_on_c, 0, 83, 58
1, 266065, Note_on_c, 0, 78, 58
1, 266065, Note_on_c, 0, 74, 58
1, 266065, Note_on_c, 0, 54, 0
1, 266068, Note_on_c, 0, 62, 0
1, 266068, Note_on_c, 0, 66, 0
1, 266068, Note_on_c, 0, 59, 0
1, 266071, Note_on_c, 0, 66, 61
1, 266071, Note_on_c, 0, 62, 51
1, 266071, Note_on_c, 0, 59, 51
1, 266074, Note_on_c, 0, 54, 51
1, 266662, Note_on_c, 0, 59, 0
1, 266662, Note_on_c, 0, 47, 0
1, 266662, Note_on_c, 0, 35, 0
1, 266953, Note_on_c, 0, 78, 0
1, 266953, Note_on_c, 0, 86, 0
1, 266953, Note_on_c, 0, 83, 0
1, 266956, Note_on_c, 0, 74, 0
1, 266956, Note_on_c, 0, 59, 0
1, 266956, Note_on_c, 0, 62, 0
1, 266959, Note_on_c, 0, 54, 0
1, 266959, Note_on_c, 0, 66, 0
1, 267099, Note_on_c, 0, 59, 75
1, 267099, Note_on_c, 0, 35, 62
1, 267099, Note_on_c, 0, 47, 62
1, 267245, Note_on_c, 0, 59, 0
1, 267245, Note_on_c, 0, 54, 67
1, 267245, Note_on_c, 0, 66, 79
1, 267248, Note_on_c, 0, 47, 0
1, 267248, Note_on_c, 0, 35, 0
1, 267248, Note_on_c, 0, 30, 51
1, 267251, Note_on_c, 0, 42, 60
1, 267262, Control_c, 0, 64, 0
1, 267356, Control_c, 0, 64, 127
1, 267683, Note_on_c, 0, 90, 64
1, 267683, Note_on_c, 0, 85, 54
1, 267683, Note_on_c, 0, 82, 54
1, 267686, Note_on_c, 0, 78, 54
1, 267686, Note_on_c, 0, 66, 56
1, 267686, Note_on_c, 0, 61, 47
1, 267689, Note_on_c, 0, 58, 47
1, 267689, Note_on_c, 0, 54, 47
1, 267750, Note_on_c, 0, 78, 0
1, 267750, Note_on_c, 0, 85, 0
1, 267750, Note_on_c, 0, 90, 0
1, 267753, Note_on_c, 0, 82, 0
1, 267753, Note_on_c, 0, 90, 64
1, 267753, Note_on_c, 0, 85, 54
1, 267756, Note_on_c, 0, 82, 54
1, 267756, Note_on_c, 0, 78, 54
1, 267756, Note_on_c, 0, 54, 0
1, 267759, Note_on_c, 0, 61, 0
1, 267759, Note_on_c, 0, 66, 0
1, 267759, Note_on_c, 0, 58, 0
1, 267762, Note_on_c, 0, 66, 57
1, 267762, Note_on_c, 0, 61, 48
1, 267762, Note_on_c, 0, 58, 48
1, 267765, Note_on_c, 0, 54, 48
1, 267817, Note_on_c, 0, 78, 0
1, 267817, Note_on_c, 0, 85, 0
1, 267817, Note_on_c, 0, 90, 0
1, 267820, Note_on_c, 0, 82, 0
1, 267820, Note_on_c, 0, 90, 68
1, 267820, Note_on_c, 0, 85, 57
1, 267823, Note_on_c, 0, 82, 57
1, 267823, Note_on_c, 0, 78, 57
1, 267823, Note_on_c, 0, 54, 0
1, 267826, Note_on_c, 0, 61, 0
1, 267826, Note_on_c, 0, 66, 0
1, 267826, Note_on_c, 0, 58, 0
1, 267829, Note_on_c, 0, 66, 63
1, 267829, Note_on_c, 0, 61, 53
1, 267829, Note_on_c, 0, 58, 53
1, 267832, Note_on_c, 0, 54, 53
1, 268107, Note_on_c, 0, 78, 0
1, 268107, Note_on_c, 0, 85, 0
1, 268107, Note_on_c, 0, 90, 0
1, 268110, Note_on_c, 0, 82, 0
1, 268110, Note_on_c, 0, 54, 0
1, 268110, Note_on_c, 0, 61, 0
1, 268113, Note_on_c, 0, 66, 0
1, 268113, Note_on_c, 0, 58, 0
1, 268397, Note_on_c, 0, 54, 0
1, 268397, Note_on_c, 0, 66, 0
1, 268397, Note_on_c, 0, 57, 65
1, 268400, Note_on_c, 0, 69, 77
1, 268400, Note_on_c, 0, 30, 0
1, 268400, Note_on_c, 0, 42, 0
1, 268403, Note_on_c, 0, 33, 55
1, 268403, Note_on_c, 0, 45, 66
1, 268417, Control_c, 0, 64, 0
1, 268483, Control_c, 0, 64, 127
1, 268832, Note_on_c, 0, 93, 64
1, 268832, Note_on_c, 0, 88, 54
1, 268832, Note_on_c, 0, 85, 54
1, 268835, Note_on_c, 0, 81, 54
1, 268835, Note_on_c, 0, 69, 59
1, 268835, Note_on_c, 0, 64, 50
1, 268838, Note_on_c, 0, 61, 50
1, 268838, Note_on_c, 0, 57, 50
1, 268898, Note_on_c, 0, 81, 0
1, 268898, Note_on_c, 0, 88, 0
1, 268898, Note_on_c, 0, 93, 0
1, 268901, Note_on_c, 0, 85, 0
1, 268901, Note_on_c, 0, 93, 64
1, 268901, Note_on_c, 0, 88, 54
1, 268904, Note_on_c, 0, 85, 54
1, 268904, Note_on_c, 0, 81, 54
1, 268904, Note_on_c, 0, 57, 0
1, 268907, Note_on_c, 0, 64, 0
1, 268907, Note_on_c, 0, 69, 0
1, 268907, Note_on_c, 0, 61, 0
1, 268910, Note_on_c, 0, 69, 59
1, 268910, Note_on_c, 0, 64, 50
1, 268910, Note_on_c, 0, 61, 50
1, 268913, Note_on_c, 0, 57, 50
1, 268965, Note_on_c, 0, 81, 0
1, 268965, Note_on_c, 0, 88, 0
1, 268965, Note_on_c, 0, 93, 0
1, 268968, Note_on_c, 0, 85, 0
1, 268968, Note_on_c, 0, 93, 69
1, 268968, Note_on_c, 0, 88, 58
1, 268971, Note_on_c, 0, 85, 58
1, 268971, Note_on_c, 0, 81, 58
1, 268971, Note_on_c, 0, 57, 0
1, 268974, Note_on_c, 0, 64, 0
1, 268974, Note_on_c, 0, 69, 0
1, 268974, Note_on_c, 0, 61, 0
1, 268977, Note_on_c, 0, 69, 65
1, 268977, Note_on_c, 0, 64, 55
1, 268977, Note_on_c, 0, 61, 55
1, 268980, Note_on_c, 0, 57, 55
1, 269244, Note_on_c, 0, 81, 0
1, 269244, Note_on_c, 0, 69, 0
1, 269244, Note_on_c, 0, 93, 0
1, 269247, Note_on_c, 0, 57, 0
1, 269247, Note_on_c, 0, 85, 0
1, 269247, Note_on_c, 0, 88, 0
1, 269250, Note_on_c, 0, 57, 0
1, 269250, Note_on_c, 0, 45, 0
1, 269250, Note_on_c, 0, 69, 0
1, 269253, Note_on_c, 0, 33, 0
1, 269253, Note_on_c, 0, 61, 0
1, 269253, Note_on_c, 0, 64, 0
1, 269383, Note_on_c, 0, 57, 68
1, 269383, Note_on_c, 0, 62, 68
1, 269383, Note_on_c, 0, 66, 68
1, 269386, Note_on_c, 0, 69, 81
1, 269386, Note_on_c, 0, 26, 56
1, 269386, Note_on_c, 0, 33, 56
1, 269389, Note_on_c, 0, 38, 66
1, 269523, Note_on_c, 0, 69, 0
1, 269523, Note_on_c, 0, 57, 0
1, 269523, Note_on_c, 0, 62, 0
1, 269526, Note_on_c, 0, 66, 0
1, 269526, Note_on_c, 0, 57, 57
1, 269526, Note_on_c, 0, 62, 57
1, 269529, Note_on_c, 0, 66, 57
1, 269529, Note_on_c, 0, 69, 80
1, 269529, Note_on_c, 0, 38, 0
1, 269532, Note_on_c, 0, 33, 0
1, 269532, Note_on_c, 0, 26, 0
1, 269532, Note_on_c, 0, 26, 51
1, 269535, Note_on_c, 0, 33, 51
1, 269535, Note_on_c, 0, 38, 73
1, 269535, Control_c, 0, 64, 0
1, 269630, Control_c, 0, 64, 127
1, 270323, Note_on_c, 0, 81, 56
1, 270323, Note_on_c, 0, 86, 56
1, 270323, Note_on_c, 0, 90, 56
1, 270326, Note_on_c, 0, 93, 67
1, 270326, Note_on_c, 0, 57, 56
1, 270326, Note_on_c, 0, 62, 56
1, 270329, Note_on_c, 0, 66, 56
1, 270329, Note_on_c, 0, 69, 67
1, 270404, Note_on_c, 0, 93, 0
1, 270404, Note_on_c, 0, 90, 0
1, 270404, Note_on_c, 0, 81, 0
1, 270407, Note_on_c, 0, 86, 0
1, 270407, Note_on_c, 0, 81, 66
1, 270407, Note_on_c, 0, 86, 66
1, 270410, Note_on_c, 0, 90, 66
1, 270410, Note_on_c, 0, 93, 78
1, 270410, Note_on_c, 0, 69, 0
1, 270413, Note_on_c, 0, 62, 0
1, 270413, Note_on_c, 0, 57, 0
1, 270413, Note_on_c, 0, 66, 0
1, 270416, Note_on_c, 0, 57, 66
1, 270416, Note_on_c, 0, 62, 66
1, 270416, Note_on_c, 0, 66, 66
1, 270419, Note_on_c, 0, 69, 78
1, 270544, Note_on_c, 0, 93, 0
1, 270544, Note_on_c, 0, 90, 0
1, 270544, Note_on_c, 0, 81, 0
1, 270547, Note_on_c, 0, 86, 0
1, 270547, Note_on_c, 0, 69, 0
1, 270547, Note_on_c, 0, 62, 0
1, 270550, Note_on_c, 0, 57, 0
1, 270550, Note_on_c, 0, 66, 0
1, 270613, Note_on_c, 0, 98, 70
1, 270613, Note_on_c, 0, 93, 59
1, 270613, Note_on_c, 0, 90, 59
1, 270616, Note_on_c, 0, 86, 59
1, 270616, Note_on_c, 0, 74, 70
1, 270616, Note_on_c, 0, 69, 59
1, 270619, Note_on_c, 0, 66, 59
1, 270619, Note_on_c, 0, 62, 59
1, 270683, Note_on_c, 0, 86, 0
1, 270683, Note_on_c, 0, 90, 0
1, 270683, Note_on_c, 0, 98, 0
1, 270686, Note_on_c, 0, 93, 0
1, 270686, Note_on_c, 0, 98, 79
1, 270686, Note_on_c, 0, 93, 67
1, 270689, Note_on_c, 0, 90, 67
1, 270689, Note_on_c, 0, 86, 67
1, 270689, Note_on_c, 0, 62, 0
1, 270692, Note_on_c, 0, 69, 0
1, 270692, Note_on_c, 0, 74, 0
1, 270692, Note_on_c, 0, 66, 0
1, 270695, Note_on_c, 0, 74, 79
1, 270695, Note_on_c, 0, 69, 67
1, 270695, Note_on_c, 0, 66, 67
1, 270698, Note_on_c, 0, 62, 67
1, 270821, Note_on_c, 0, 86, 0
1, 270821, Note_on_c, 0, 90, 0
1, 270821, Note_on_c, 0, 98, 0
1, 270824, Note_on_c, 0, 93, 0
1, 270824, Note_on_c, 0, 62, 0
1, 270824, Note_on_c, 0, 69, 0
1, 270827, Note_on_c, 0, 74, 0
1, 270827, Note_on_c, 0, 66, 0
1, 270890, Note_on_c, 0, 90, 71
1, 270890, Note_on_c, 0, 86, 60
1, 270890, Note_on_c, 0, 78, 60
1, 270893, Note_on_c, 0, 66, 71
1, 270893, Note_on_c, 0, 62, 60
1, 270893, Note_on_c, 0, 54, 60
1, 270960, Note_on_c, 0, 78, 0
1, 270960, Note_on_c, 0, 90, 0
1, 270960, Note_on_c, 0, 62, 0
1, 270963, Note_on_c, 0, 57, 0
1, 270963, Note_on_c, 0, 69, 0
1, 270963, Note_on_c, 0, 86, 0
1, 270966, Note_on_c, 0, 66, 0
1, 270966, Note_on_c, 0, 90, 80
1, 270966, Note_on_c, 0, 86, 68
1, 270969, Note_on_c, 0, 78, 68
1, 270969, Note_on_c, 0, 54, 0
1, 270969, Note_on_c, 0, 38, 0
1, 270972, Note_on_c, 0, 26, 0
1, 270972, Note_on_c, 0, 33, 0
1, 270972, Note_on_c, 0, 62, 0
1, 270975, Note_on_c, 0, 66, 0
1, 270975, Note_on_c, 0, 66, 80
1, 270975, Note_on_c, 0, 62, 68
1, 270978, Note_on_c, 0, 54, 68
1, 271097, Note_on_c, 0, 78, 0
1, 271097, Note_on_c, 0, 86, 0
1, 271097, Note_on_c, 0, 90, 0
1, 271100, Note_on_c, 0, 54, 0
1, 271100, Note_on_c, 0, 62, 0
1, 271100, Note_on_c, 0, 66, 0
1, 271166, Note_on_c, 0, 93, 70
1, 271166, Note_on_c, 0, 90, 59
1, 271166, Note_on_c, 0, 86, 59
1, 271169, Note_on_c, 0, 81, 59
1, 271169, Note_on_c, 0, 69, 70
1, 271169, Note_on_c, 0, 66, 59
1, 271172, Note_on_c, 0, 62, 59
1, 271172, Note_on_c, 0, 57, 59
1, 271234, Note_on_c, 0, 81, 0
1, 271234, Note_on_c, 0, 93, 0
1, 271234, Note_on_c, 0, 90, 0
1, 271237, Note_on_c, 0, 86, 0
1, 271237, Note_on_c, 0, 93, 80
1, 271237, Note_on_c, 0, 90, 68
1, 271240, Note_on_c, 0, 86, 68
1, 271240, Note_on_c, 0, 81, 68
1, 271240, Note_on_c, 0, 57, 0
1, 271243, Note_on_c, 0, 69, 0
1, 271243, Note_on_c, 0, 66, 0
1, 271243, Note_on_c, 0, 62, 0
1, 271246, Note_on_c, 0, 69, 80
1, 271246, Note_on_c, 0, 66, 68
1, 271246, Note_on_c, 0, 62, 68
1, 271249, Note_on_c, 0, 57, 68
1, 271372, Note_on_c, 0, 81, 0
1, 271372, Note_on_c, 0, 93, 0
1, 271372, Note_on_c, 0, 90, 0
1, 271375, Note_on_c, 0, 86, 0
1, 271375, Note_on_c, 0, 57, 0
1, 271375, Note_on_c, 0, 69, 0
1, 271378, Note_on_c, 0, 66, 0
1, 271378, Note_on_c, 0, 62, 0
1, 271440, Note_on_c, 0, 86, 72
1, 271440, Note_on_c, 0, 81, 61
1, 271440, Note_on_c, 0, 78, 61
1, 271443, Note_on_c, 0, 74, 61
1, 271443, Note_on_c, 0, 62, 72
1, 271443, Note_on_c, 0, 57, 61
1, 271446, Note_on_c, 0, 54, 61
1, 271446, Note_on_c, 0, 50, 61
1, 271509, Note_on_c, 0, 74, 0
1, 271509, Note_on_c, 0, 86, 0
1, 271509, Note_on_c, 0, 81, 0
1, 271512, Note_on_c, 0, 78, 0
1, 271512, Note_on_c, 0, 86, 79
1, 271512, Note_on_c, 0, 81, 67
1, 271515, Note_on_c, 0, 78, 67
1, 271515, Note_on_c, 0, 74, 67
1, 271515, Note_on_c, 0, 50, 0
1, 271518, Note_on_c, 0, 62, 0
1, 271518, Note_on_c, 0, 57, 0
1, 271518, Note_on_c, 0, 54, 0
1, 271521, Note_on_c, 0, 62, 79
1, 271521, Note_on_c, 0, 57, 67
1, 271521, Note_on_c, 0, 54, 67
1, 271524, Note_on_c, 0, 50, 67
1, 271646, Note_on_c, 0, 74, 0
1, 271646, Note_on_c, 0, 86, 0
1, 271646, Note_on_c, 0, 81, 0
1, 271649, Note_on_c, 0, 78, 0
1, 271649, Note_on_c, 0, 50, 0
1, 271649, Note_on_c, 0, 62, 0
1, 271652, Note_on_c, 0, 57, 0
1, 271652, Note_on_c, 0, 54, 0
1, 271714, Note_on_c, 0, 90, 74
1, 271714, Note_on_c, 0, 86, 62
1, 271714, Note_on_c, 0, 78, 62
1, 271717, Note_on_c, 0, 66, 62
1, 271717, Note_on_c, 0, 62, 62
1, 271717, Note_on_c, 0, 54, 62
1, 271782, Note_on_c, 0, 78, 0
1, 271782, Note_on_c, 0, 86, 0
1, 271782, Note_on_c, 0, 90, 0
1, 271785, Note_on_c, 0, 78, 68
1, 271785, Note_on_c, 0, 86, 68
1, 271785, Note_on_c, 0, 90, 81
1, 271788, Note_on_c, 0, 54, 0
1, 271788, Note_on_c, 0, 62, 0
1, 271788, Note_on_c, 0, 66, 0
1, 271791, Note_on_c, 0, 54, 68
1, 271791, Note_on_c, 0, 62, 68
1, 271791, Note_on_c, 0, 66, 68
1, 271919, Note_on_c, 0, 90, 0
1, 271919, Note_on_c, 0, 86, 0
1, 271919, Note_on_c, 0, 78, 0
1, 271922, Note_on_c, 0, 66, 0
1, 271922, Note_on_c, 0, 62, 0
1, 271922, Note_on_c, 0, 54, 0
1, 271987, Note_on_c, 0, 69, 56
1, 271987, Note_on_c, 0, 74, 56
1, 271987, Note_on_c, 0, 78, 56
1, 271990, Note_on_c, 0, 81, 67
1, 271990, Note_on_c, 0, 45, 56
1, 271990, Note_on_c, 0, 50, 56
1, 271993, Note_on_c, 0, 54, 56
1, 271993, Note_on_c, 0, 57, 67
1, 272055, Note_on_c, 0, 81, 0
1, 272055, Note_on_c, 0, 69, 0
1, 272055, Note_on_c, 0, 74, 0
1, 272058, Note_on_c, 0, 78, 0
1, 272058, Note_on_c, 0, 69, 66
1, 272058, Note_on_c, 0, 74, 66
1, 272061, Note_on_c, 0, 78, 66
1, 272061, Note_on_c, 0, 81, 78
1, 272061, Note_on_c, 0, 57, 0
1, 272064, Note_on_c, 0, 45, 0
1, 272064, Note_on_c, 0, 50, 0
1, 272064, Note_on_c, 0, 54, 0
1, 272067, Note_on_c, 0, 45, 66
1, 272067, Note_on_c, 0, 50, 66
1, 272067, Note_on_c, 0, 54, 66
1, 272070, Note_on_c, 0, 57, 78
1, 272191, Note_on_c, 0, 81, 0
1, 272191, Note_on_c, 0, 69, 0
1, 272191, Note_on_c, 0, 74, 0
1, 272194, Note_on_c, 0, 78, 0
1, 272194, Note_on_c, 0, 57, 0
1, 272194, Note_on_c, 0, 45, 0
1, 272197, Note_on_c, 0, 50, 0
1, 272197, Note_on_c, 0, 54, 0
1, 272259, Note_on_c, 0, 86, 70
1, 272259, Note_on_c, 0, 81, 59
1, 272259, Note_on_c, 0, 78, 59
1, 272262, Note_on_c, 0, 74, 59
1, 272262, Note_on_c, 0, 62, 70
1, 272262, Note_on_c, 0, 57, 59
1, 272265, Note_on_c, 0, 54, 59
1, 272265, Note_on_c, 0, 50, 59
1, 272327, Note_on_c, 0, 74, 0
1, 272327, Note_on_c, 0, 86, 0
1, 272327, Note_on_c, 0, 81, 0
1, 272330, Note_on_c, 0, 78, 0
1, 272330, Note_on_c, 0, 86, 79
1, 272330, Note_on_c, 0, 81, 67
1, 272333, Note_on_c, 0, 78, 67
1, 272333, Note_on_c, 0, 74, 67
1, 272333, Note_on_c, 0, 50, 0
1, 272336, Note_on_c, 0, 62, 0
1, 272336, Note_on_c, 0, 57, 0
1, 272336, Note_on_c, 0, 54, 0
1, 272339, Note_on_c, 0, 62, 79
1, 272339, Note_on_c, 0, 57, 67
1, 272339, Note_on_c, 0, 54, 67
1, 272342, Note_on_c, 0, 50, 67
1, 272463, Note_on_c, 0, 74, 0
1, 272463, Note_on_c, 0, 86, 0
1, 272463, Note_on_c, 0, 81, 0
1, 272466, Note_on_c, 0, 78, 0
1, 272466, Note_on_c, 0, 50, 0
1, 272466, Note_on_c, 0, 62, 0
1, 272469, Note_on_c, 0, 57, 0
1, 272469, Note_on_c, 0, 54, 0
1, 272530, Note_on_c, 0, 78, 71
1, 272530, Note_on_c, 0, 74, 60
1, 272530, Note_on_c, 0, 66, 60
1, 272533, Note_on_c, 0, 54, 71
1, 272533, Note_on_c, 0, 50, 60
1, 272533, Note_on_c, 0, 42, 60
1, 272598, Note_on_c, 0, 66, 0
1, 272598, Note_on_c, 0, 74, 0
1, 272598, Note_on_c, 0, 78, 0
1, 272601, Note_on_c, 0, 78, 80
1, 272601, Note_on_c, 0, 74, 68
1, 272601, Note_on_c, 0, 66, 68
1, 272604, Note_on_c, 0, 42, 0
1, 272604, Note_on_c, 0, 50, 0
1, 272604, Note_on_c, 0, 54, 0
1, 272607, Note_on_c, 0, 54, 80
1, 272607, Note_on_c, 0, 50, 68
1, 272607, Note_on_c, 0, 42, 68
1, 272733, Note_on_c, 0, 66, 0
1, 272733, Note_on_c, 0, 74, 0
1, 272733, Note_on_c, 0, 78, 0
1, 272736, Note_on_c, 0, 42, 0
1, 272736, Note_on_c, 0, 50, 0
1, 272736, Note_on_c, 0, 54, 0
1, 272801, Note_on_c, 0, 81, 70
1, 272801, Note_on_c, 0, 78, 59
1, 272801, Note_on_c, 0, 74, 59
1, 272804, Note_on_c, 0, 69, 59
1, 272804, Note_on_c, 0, 57, 70
1, 272804, Note_on_c, 0, 54, 59
1, 272807, Note_on_c, 0, 50, 59
1, 272807, Note_on_c, 0, 45, 59
1, 272868, Note_on_c, 0, 69, 0
1, 272868, Note_on_c, 0, 81, 0
1, 272868, Note_on_c, 0, 78, 0
1, 272871, Note_on_c, 0, 74, 0
1, 272871, Note_on_c, 0, 81, 80
1, 272871, Note_on_c, 0, 78, 68
1, 272874, Note_on_c, 0, 74, 68
1, 272874, Note_on_c, 0, 69, 68
1, 272874, Note_on_c, 0, 45, 0
1, 272877, Note_on_c, 0, 57, 0
1, 272877, Note_on_c, 0, 54, 0
1, 272877, Note_on_c, 0, 50, 0
1, 272880, Note_on_c, 0, 57, 80
1, 272880, Note_on_c, 0, 54, 68
1, 272880, Note_on_c, 0, 50, 68
1, 272883, Note_on_c, 0, 45, 68
1, 273003, Note_on_c, 0, 69, 0
1, 273003, Note_on_c, 0, 81, 0
1, 273003, Note_on_c, 0, 78, 0
1, 273006, Note_on_c, 0, 74, 0
1, 273006, Note_on_c, 0, 45, 0
1, 273006, Note_on_c, 0, 57, 0
1, 273009, Note_on_c, 0, 54, 0
1, 273009, Note_on_c, 0, 50, 0
1, 273071, Note_on_c, 0, 74, 72
1, 273071, Note_on_c, 0, 69, 61
1, 273071, Note_on_c, 0, 66, 61
1, 273074, Note_on_c, 0, 62, 61
1, 273074, Note_on_c, 0, 50, 72
1, 273074, Note_on_c, 0, 45, 61
1, 273077, Note_on_c, 0, 42, 61
1, 273077, Note_on_c, 0, 38, 61
1, 273138, Note_on_c, 0, 62, 0
1, 273138, Note_on_c, 0, 74, 0
1, 273138, Note_on_c, 0, 69, 0
1, 273141, Note_on_c, 0, 66, 0
1, 273141, Note_on_c, 0, 74, 79
1, 273141, Note_on_c, 0, 69, 67
1, 273144, Note_on_c, 0, 66, 67
1, 273144, Note_on_c, 0, 62, 67
1, 273144, Note_on_c, 0, 38, 0
1, 273147, Note_on_c, 0, 50, 0
1, 273147, Note_on_c, 0, 45, 0
1, 273147, Note_on_c, 0, 42, 0
1, 273150, Note_on_c, 0, 50, 79
1, 273150, Note_on_c, 0, 45, 67
1, 273150, Note_on_c, 0, 42, 67
1, 273153, Note_on_c, 0, 38, 67
1, 273272, Note_on_c, 0, 62, 0
1, 273272, Note_on_c, 0, 74, 0
1, 273272, Note_on_c, 0, 69, 0
1, 273275, Note_on_c, 0, 66, 0
1, 273275, Note_on_c, 0, 38, 0
1, 273275, Note_on_c, 0, 50, 0
1, 273278, Note_on_c, 0, 45, 0
1, 273278, Note_on_c, 0, 42, 0
1, 273339, Note_on_c, 0, 78, 74
1, 273339, Note_on_c, 0, 74, 62
1, 273339, Note_on_c, 0, 66, 62
1, 273342, Note_on_c, 0, 54, 74
1, 273342, Note_on_c, 0, 50, 62
1, 273342, Note_on_c, 0, 42, 62
1, 273406, Note_on_c, 0, 66, 0
1, 273406, Note_on_c, 0, 74, 0
1, 273406, Note_on_c, 0, 78, 0
1, 273409, Note_on_c, 0, 66, 68
1, 273409, Note_on_c, 0, 74, 68
1, 273409, Note_on_c, 0, 78, 81
1, 273412, Note_on_c, 0, 42, 0
1, 273412, Note_on_c, 0, 50, 0
1, 273412, Note_on_c, 0, 54, 0
1, 273415, Note_on_c, 0, 42, 68
1, 273415, Note_on_c, 0, 50, 68
1, 273415, Note_on_c, 0, 54, 81
1, 273540, Note_on_c, 0, 78, 0
1, 273540, Note_on_c, 0, 74, 0
1, 273540, Note_on_c, 0, 66, 0
1, 273543, Note_on_c, 0, 54, 0
1, 273543, Note_on_c, 0, 50, 0
1, 273543, Note_on_c, 0, 42, 0
1, 273607, Note_on_c, 0, 57, 56
1, 273607, Note_on_c, 0, 62, 56
1, 273607, Note_on_c, 0, 66, 56
1, 273610, Note_on_c, 0, 69, 67
1, 273610, Note_on_c, 0, 33, 56
1, 273610, Note_on_c, 0, 38, 56
1, 273613, Note_on_c, 0, 42, 56
1, 273613, Note_on_c, 0, 45, 67
1, 273674, Note_on_c, 0, 69, 0
1, 273674, Note_on_c, 0, 57, 0
1, 273674, Note_on_c, 0, 62, 0
1, 273677, Note_on_c, 0, 66, 0
1, 273677, Note_on_c, 0, 57, 66
1, 273677, Note_on_c, 0, 62, 66
1, 273680, Note_on_c, 0, 66, 66
1, 273680, Note_on_c, 0, 69, 78
1, 273680, Note_on_c, 0, 45, 0
1, 273683, Note_on_c, 0, 33, 0
1, 273683, Note_on_c, 0, 38, 0
1, 273683, Note_on_c, 0, 42, 0
1, 273686, Note_on_c, 0, 33, 66
1, 273686, Note_on_c, 0, 38, 66
1, 273686, Note_on_c, 0, 42, 66
1, 273689, Note_on_c, 0, 45, 78
1, 273810, Note_on_c, 0, 69, 0
1, 273810, Note_on_c, 0, 57, 0
1, 273810, Note_on_c, 0, 62, 0
1, 273813, Note_on_c, 0, 66, 0
1, 273813, Note_on_c, 0, 45, 0
1, 273813, Note_on_c, 0, 33, 0
1, 273816, Note_on_c, 0, 38, 0
1, 273816, Note_on_c, 0, 42, 0
1, 273877, Note_on_c, 0, 74, 70
1, 273877, Note_on_c, 0, 69, 59
1, 273877, Note_on_c, 0, 66, 59
1, 273880, Note_on_c, 0, 62, 59
1, 273880, Note_on_c, 0, 50, 70
1, 273880, Note_on_c, 0, 45, 59
1, 273883, Note_on_c, 0, 42, 59
1, 273883, Note_on_c, 0, 38, 59
1, 273945, Note_on_c, 0, 62, 0
1, 273945, Note_on_c, 0, 74, 0
1, 273945, Note_on_c, 0, 69, 0
1, 273948, Note_on_c, 0, 66, 0
1, 273948, Note_on_c, 0, 74, 79
1, 273948, Note_on_c, 0, 69, 67
1, 273951, Note_on_c, 0, 66, 67
1, 273951, Note_on_c, 0, 62, 67
1, 273951, Note_on_c, 0, 38, 0
1, 273954, Note_on_c, 0, 50, 0
1, 273954, Note_on_c, 0, 45, 0
1, 273954, Note_on_c, 0, 42, 0
1, 273957, Note_on_c, 0, 50, 79
1, 273957, Note_on_c, 0, 45, 67
1, 273957, Note_on_c, 0, 42, 67
1, 273960, Note_on_c, 0, 38, 67
1, 274080, Note_on_c, 0, 62, 0
1, 274080, Note_on_c, 0, 74, 0
1, 274080, Note_on_c, 0, 69, 0
1, 274083, Note_on_c, 0, 66, 0
1, 274083, Note_on_c, 0, 38, 0
1, 274083, Note_on_c, 0, 50, 0
1, 274086, Note_on_c, 0, 45, 0
1, 274086, Note_on_c, 0, 42, 0
1, 274148, Note_on_c, 0, 66, 71
1, 274148, Note_on_c, 0, 62, 60
1, 274148, Note_on_c, 0, 54, 60
1, 274151, Note_on_c, 0, 42, 71
1, 274151, Note_on_c, 0, 38, 60
1, 274151, Note_on_c, 0, 30, 60
1, 274216, Note_on_c, 0, 54, 0
1, 274216, Note_on_c, 0, 62, 0
1, 274216, Note_on_c, 0, 66, 0
1, 274219, Note_on_c, 0, 66, 80
1, 274219, Note_on_c, 0, 62, 68
1, 274219, Note_on_c, 0, 54, 68
1, 274222, Note_on_c, 0, 30, 0
1, 274222, Note_on_c, 0, 38, 0
1, 274222, Note_on_c, 0, 42, 0
1, 274225, Note_on_c, 0, 42, 80
1, 274225, Note_on_c, 0, 38, 68
1, 274225, Note_on_c, 0, 30, 68
1, 274353, Note_on_c, 0, 54, 0
1, 274353, Note_on_c, 0, 62, 0
1, 274353, Note_on_c, 0, 66, 0
1, 274356, Note_on_c, 0, 30, 0
1, 274356, Note_on_c, 0, 38, 0
1, 274356, Note_on_c, 0, 42, 0
1, 274422, Note_on_c, 0, 69, 70
1, 274422, Note_on_c, 0, 66, 59
1, 274422, Note_on_c, 0, 62, 59
1, 274425, Note_on_c, 0, 57, 59
1, 274425, Note_on_c, 0, 45, 70
1, 274425, Note_on_c, 0, 42, 59
1, 274428, Note_on_c, 0, 38, 59
1, 274428, Note_on_c, 0, 33, 59
1, 274491, Note_on_c, 0, 57, 0
1, 274491, Note_on_c, 0, 69, 0
1, 274491, Note_on_c, 0, 66, 0
1, 274494, Note_on_c, 0, 62, 0
1, 274494, Note_on_c, 0, 69, 80
1, 274494, Note_on_c, 0, 66, 68
1, 274497, Note_on_c, 0, 62, 68
1, 274497, Note_on_c, 0, 57, 68
1, 274497, Note_on_c, 0, 33, 0
1, 274500, Note_on_c, 0, 45, 0
1, 274500, Note_on_c, 0, 42, 0
1, 274500, Note_on_c, 0, 38, 0
1, 274503, Note_on_c, 0, 45, 80
1, 274503, Note_on_c, 0, 42, 68
1, 274503, Note_on_c, 0, 38, 68
1, 274506, Note_on_c, 0, 33, 68
1, 274628, Note_on_c, 0, 57, 0
1, 274628, Note_on_c, 0, 69, 0
1, 274628, Note_on_c, 0, 66, 0
1, 274631, Note_on_c, 0, 62, 0
1, 274631, Note_on_c, 0, 33, 0
1, 274631, Note_on_c, 0, 45, 0
1, 274634, Note_on_c, 0, 42, 0
1, 274634, Note_on_c, 0, 38, 0
1, 274697, Note_on_c, 0, 62, 70
1, 274697, Note_on_c, 0, 57, 59
1, 274697, Note_on_c, 0, 54, 59
1, 274700, Note_on_c, 0, 50, 59
1, 274700, Note_on_c, 0, 26, 51
1, 274700, Note_on_c, 0, 33, 51
1, 274703, Note_on_c, 0, 38, 61
1, 274757, Control_c, 0, 64, 0
1, 274766, Note_on_c, 0, 50, 0
1, 274766, Note_on_c, 0, 62, 0
1, 274766, Note_on_c, 0, 57, 0
1, 274769, Note_on_c, 0, 54, 0
1, 274769, Note_on_c, 0, 50, 65
1, 274769, Note_on_c, 0, 54, 65
1, 274772, Note_on_c, 0, 57, 65
1, 274772, Note_on_c, 0, 62, 77
1, 274772, Note_on_c, 0, 38, 0
1, 274775, Note_on_c, 0, 33, 0
1, 274775, Note_on_c, 0, 26, 0
1, 274775, Note_on_c, 0, 26, 56
1, 274778, Note_on_c, 0, 33, 56
1, 274778, Note_on_c, 0, 38, 67
1, 274890, Note_on_c, 0, 62, 0
1, 274890, Note_on_c, 0, 50, 0
1, 274890, Note_on_c, 0, 54, 0
1, 274893, Note_on_c, 0, 57, 0
1, 274893, Note_on_c, 0, 38, 0
1, 274893, Note_on_c, 0, 33, 0
1, 274896, Note_on_c, 0, 26, 0
1, 274904, Note_on_c, 0, 62, 70
1, 274904, Note_on_c, 0, 58, 59
1, 274904, Note_on_c, 0, 55, 59
1, 274907, Note_on_c, 0, 50, 59
1, 274907, Note_on_c, 0, 26, 51
1, 274907, Note_on_c, 0, 34, 51
1, 274910, Note_on_c, 0, 38, 61
1, 275029, Note_on_c, 0, 50, 0
1, 275029, Note_on_c, 0, 62, 0
1, 275029, Note_on_c, 0, 58, 0
1, 275032, Note_on_c, 0, 55, 0
1, 275032, Note_on_c, 0, 38, 0
1, 275032, Note_on_c, 0, 34, 0
1, 275035, Note_on_c, 0, 26, 0
1, 275043, Note_on_c, 0, 50, 65
1, 275043, Note_on_c, 0, 54, 65
1, 275043, Note_on_c, 0, 57, 65
1, 275046, Note_on_c, 0, 62, 77
1, 275046, Note_on_c, 0, 26, 56
1, 275046, Note_on_c, 0, 33, 56
1, 275049, Note_on_c, 0, 38, 67
1, 275170, Note_on_c, 0, 62, 0
1, 275170, Note_on_c, 0, 50, 0
1, 275170, Note_on_c, 0, 54, 0
1, 275173, Note_on_c, 0, 57, 0
1, 275173, Note_on_c, 0, 38, 0
1, 275173, Note_on_c, 0, 33, 0
1, 275176, Note_on_c, 0, 26, 0
1, 275184, Note_on_c, 0, 50, 59
1, 275184, Note_on_c, 0, 55, 59
1, 275184, Note_on_c, 0, 58, 59
1, 275187, Note_on_c, 0, 62, 70
1, 275187, Note_on_c, 0, 26, 51
1, 275187, Note_on_c, 0, 34, 51
1, 275190, Note_on_c, 0, 38, 61
1, 275313, Note_on_c, 0, 62, 0
1, 275313, Note_on_c, 0, 50, 0
1, 275313, Note_on_c, 0, 55, 0
1, 275316, Note_on_c, 0, 58, 0
1, 275316, Note_on_c, 0, 38, 0
1, 275316, Note_on_c, 0, 34, 0
1, 275319, Note_on_c, 0, 26, 0
1, 275327, Note_on_c, 0, 50, 65
1, 275327, Note_on_c, 0, 54, 65
1, 275327, Note_on_c, 0, 57, 65
1, 275330, Note_on_c, 0, 62, 77
1, 275330, Note_on_c, 0, 26, 56
1, 275330, Note_on_c, 0, 33, 56
1, 275333, Note_on_c, 0, 38, 67
1, 275456, Note_on_c, 0, 62, 0
1, 275456, Note_on_c, 0, 50, 0
1, 275456, Note_on_c, 0, 54, 0
1, 275459, Note_on_c, 0, 57, 0
1, 275459, Note_on_c, 0, 38, 0
1, 275459, Note_on_c, 0, 33, 0
1, 275462, Note_on_c, 0, 26, 0
1, 275470, Note_on_c, 0, 62, 70
1, 275470, Note_on_c, 0, 58, 59
1, 275470, Note_on_c, 0, 55, 59
1, 275473, Note_on_c, 0, 50, 59
1, 275473, Note_on_c, 0, 26, 51
1, 275473, Note_on_c, 0, 34, 51
1, 275476, Note_on_c, 0, 38, 61
1, 275598, Note_on_c, 0, 50, 0
1, 275598, Note_on_c, 0, 62, 0
1, 275598, Note_on_c, 0, 58, 0
1, 275601, Note_on_c, 0, 55, 0
1, 275601, Note_on_c, 0, 38, 0
1, 275601, Note_on_c, 0, 34, 0
1, 275604, Note_on_c, 0, 26, 0
1, 275613, Note_on_c, 0, 50, 65
1, 275613, Note_on_c, 0, 54, 65
1, 275613, Note_on_c, 0, 57, 65
1, 275616, Note_on_c, 0, 62, 77
1, 275616, Note_on_c, 0, 26, 56
1, 275616, Note_on_c, 0, 33, 56
1, 275619, Note_on_c, 0, 38, 67
1, 275741, Note_on_c, 0, 62, 0
1, 275741, Note_on_c, 0, 50, 0
1, 275741, Note_on_c, 0, 54, 0
1, 275744, Note_on_c, 0, 57, 0
1, 275744, Note_on_c, 0, 38, 0
1, 275744, Note_on_c, 0, 33, 0
1, 275747, Note_on_c, 0, 26, 0
1, 275755, Note_on_c, 0, 50, 59
1, 275755, Note_on_c, 0, 55, 59
1, 275755, Note_on_c, 0, 58, 59
1, 275758, Note_on_c, 0, 62, 70
1, 275758, Note_on_c, 0, 26, 51
1, 275758, Note_on_c, 0, 34, 51
1, 275761, Note_on_c, 0, 38, 61
1, 275884, Note_on_c, 0, 62, 0
1, 275884, Note_on_c, 0, 50, 0
1, 275884, Note_on_c, 0, 55, 0
1, 275887, Note_on_c, 0, 58, 0
1, 275887, Note_on_c, 0, 38, 0
1, 275887, Note_on_c, 0, 34, 0
1, 275890, Note_on_c, 0, 26, 0
1, 275898, Note_on_c, 0, 50, 65
1, 275898, Note_on_c, 0, 54, 65
1, 275898, Note_on_c, 0, 57, 65
1, 275901, Note_on_c, 0, 62, 77
1, 275901, Note_on_c, 0, 26, 56
1, 275901, Note_on_c, 0, 33, 56
1, 275904, Note_on_c, 0, 38, 67
1, 276005, Note_on_c, 0, 62, 0
1, 276005, Note_on_c, 0, 50, 0
1, 276005, Note_on_c, 0, 54, 0
1, 276008, Note_on_c, 0, 57, 0
1, 276008, Note_on_c, 0, 38, 0
1, 276008, Note_on_c, 0, 33, 0
1, 276011, Note_on_c, 0, 26, 0
1, 276041, Note_on_c, 0, 62, 70
1, 276041, Note_on_c, 0, 58, 59
1, 276041, Note_on_c, 0, 55, 59
1, 276044, Note_on_c, 0, 50, 59
1, 276044, Note_on_c, 0, 26, 51
1, 276044, Note_on_c, 0, 34, 51
1, 276047, Note_on_c, 0, 38, 61
1, 276148, Note_on_c, 0, 50, 0
1, 276148, Note_on_c, 0, 62, 0
1, 276148, Note_on_c, 0, 58, 0
1, 276151, Note_on_c, 0, 55, 0
1, 276151, Note_on_c, 0, 38, 0
1, 276151, Note_on_c, 0, 34, 0
1, 276154, Note_on_c, 0, 26, 0
1, 276183, Note_on_c, 0, 50, 65
1, 276183, Note_on_c, 0, 54, 65
1, 276183, Note_on_c, 0, 57, 65
1, 276186, Note_on_c, 0, 62, 77
1, 276186, Note_on_c, 0, 26, 56
1, 276186, Note_on_c, 0, 33, 56
1, 276189, Note_on_c, 0, 38, 67
1, 276297, Note_on_c, 0, 62, 0
1, 276297, Note_on_c, 0, 50, 0
1, 276297, Note_on_c, 0, 54, 0
1, 276300, Note_on_c, 0, 57, 0
1, 276300, Note_on_c, 0, 38, 0
1, 276300, Note_on_c, 0, 33, 0
1, 276303, Note_on_c, 0, 26, 0
1, 276335, Note_on_c, 0, 50, 59
1, 276335, Note_on_c, 0, 55, 59
1, 276335, Note_on_c, 0, 58, 59
1, 276338, Note_on_c, 0, 62, 70
1, 276338, Note_on_c, 0, 26, 51
1, 276338, Note_on_c, 0, 34, 51
1, 276341, Note_on_c, 0, 38, 61
1, 276449, Note_on_c, 0, 62, 0
1, 276449, Note_on_c, 0, 50, 0
1, 276449, Note_on_c, 0, 55, 0
1, 276452, Note_on_c, 0, 58, 0
1, 276452, Note_on_c, 0, 38, 0
1, 276452, Note_on_c, 0, 34, 0
1, 276455, Note_on_c, 0, 26, 0
1, 276487, Note_on_c, 0, 50, 67
1, 276487, Note_on_c, 0, 54, 67
1, 276487, Note_on_c, 0, 57, 67
1, 276490, Note_on_c, 0, 62, 79
1, 276490, Note_on_c, 0, 26, 53
1, 276490, Note_on_c, 0, 33, 53
1, 276493, Note_on_c, 0, 38, 63
1, 276601, Control_c, 0, 64, 127
1, 276785, Note_on_c, 0, 62, 0
1, 276785, Note_on_c, 0, 50, 0
1, 276785, Note_on_c, 0, 54, 0
1, 276788, Note_on_c, 0, 57, 0
1, 276788, Note_on_c, 0, 62, 67
1, 276788, Note_on_c, 0, 66, 67
1, 276791, Note_on_c, 0, 69, 67
1, 276791, Note_on_c, 0, 74, 79
1, 276791, Note_on_c, 0, 38, 0
1, 276794, Note_on_c, 0, 33, 0
1, 276794, Note_on_c, 0, 26, 0
1, 276794, Note_on_c, 0, 42, 55
1, 276797, Note_on_c, 0, 38, 55
1, 276797, Note_on_c, 0, 45, 55
1, 276797, Note_on_c, 0, 50, 65
1, 277084, Note_on_c, 0, 74, 0
1, 277084, Note_on_c, 0, 62, 0
1, 277084, Note_on_c, 0, 66, 0
1, 277087, Note_on_c, 0, 69, 0
1, 277087, Note_on_c, 0, 74, 71
1, 277087, Note_on_c, 0, 78, 71
1, 277090, Note_on_c, 0, 81, 71
1, 277090, Note_on_c, 0, 86, 84
1, 277090, Note_on_c, 0, 50, 0
1, 277093, Note_on_c, 0, 42, 0
1, 277093, Note_on_c, 0, 38, 0
1, 277093, Note_on_c, 0, 45, 0
1, 277096, Note_on_c, 0, 54, 57
1, 277096, Note_on_c, 0, 50, 57
1, 277096, Note_on_c, 0, 57, 57
1, 277099, Note_on_c, 0, 62, 68
1, 277382, Note_on_c, 0, 86, 0
1, 277382, Note_on_c, 0, 74, 0
1, 277382, Note_on_c, 0, 78, 0
1, 277385, Note_on_c, 0, 81, 0
1, 277385, Note_on_c, 0, 86, 75
1, 277385, Note_on_c, 0, 90, 75
1, 277388, Note_on_c, 0, 93, 75
1, 277388, Note_on_c, 0, 98, 89
1, 277388, Note_on_c, 0, 62, 0
1, 277391, Note_on_c, 0, 54, 0
1, 277391, Note_on_c, 0, 50, 0
1, 277391, Note_on_c, 0, 57, 0
1, 277394, Note_on_c, 0, 66, 59
1, 277394, Note_on_c, 0, 62, 59
1, 277394, Note_on_c, 0, 69, 59
1, 277397, Note_on_c, 0, 74, 70
1, 277763, Note_on_c, 0, 98, 0
1, 277763, Note_on_c, 0, 86, 0
1, 277763, Note_on_c, 0, 90, 0
1, 277766, Note_on_c, 0, 93, 0
1, 277766, Note_on_c, 0, 62, 103
1, 277766, Note_on_c, 0, 74, 0
1, 277769, Note_on_c, 0, 66, 0
1, 277769, Note_on_c, 0, 62, 0
1, 277769, Note_on_c, 0, 69, 0
1, 277772, Note_on_c, 0, 26, 74
1, 277772, Note_on_c, 0, 38, 74
1, 277772, Note_on_c, 0, 50, 88
1, 279286, Note_on_c, 0, 62, 0
1, 279286, Note_on_c, 0, 50, 0
1, 279286, Note_on_c, 0, 38, 0
1, 279289, Note_on_c, 0, 26, 0
1, 279921, Control_c, 0, 64, 0
1, 281419, End_track
0, 0, End_of_file
