0, 0, Header, 0, 1, 384
1, 0, Start_track
1, 0, Tempo, 512820
1, 0, Title_t, ""
1, 0, Control_c, 0, 64, 127
1, 0, Note_on_c, 0, 37, 21
1, 197, Note_off_c, 0, 37, 64
1, 203, Note_on_c, 0, 44, 26
1, 319, Note_off_c, 0, 44, 64
1, 331, Note_on_c, 0, 49, 35
1, 415, Note_off_c, 0, 49, 64
1, 451, Note_on_c, 0, 53, 43
1, 510, Note_off_c, 0, 53, 64
1, 510, Note_on_c, 0, 56, 36
1, 604, Note_off_c, 0, 56, 64
1, 610, Note_on_c, 0, 61, 35
1, 673, Note_off_c, 0, 61, 64
1, 709, Note_on_c, 0, 65, 25
1, 762, Note_off_c, 0, 65, 64
1, 773, Note_on_c, 0, 68, 39
1, 858, Note_on_c, 0, 65, 10
1, 871, Note_off_c, 0, 68, 64
1, 955, Note_on_c, 0, 61, 33
1, 974, Note_off_c, 0, 65, 64
1, 1019, Note_on_c, 0, 56, 30
1, 1038, Note_off_c, 0, 61, 64
1, 1099, Note_on_c, 0, 53, 38
1, 1153, Note_off_c, 0, 53, 64
1, 1169, Note_on_c, 0, 49, 39
1, 1169, Note_off_c, 0, 56, 64
1, 1217, Note_off_c, 0, 49, 64
1, 1251, Note_on_c, 0, 44, 33
1, 1350, Note_off_c, 0, 44, 64
1, 1350, Note_on_c, 0, 37, 54
1, 1414, Note_off_c, 0, 37, 64
1, 1446, Note_on_c, 0, 44, 38
1, 1513, Note_off_c, 0, 44, 64
1, 1526, Note_on_c, 0, 49, 54
1, 1582, Note_off_c, 0, 49, 64
1, 1616, Note_on_c, 0, 53, 60
1, 1655, Note_off_c, 0, 53, 64
1, 1666, Note_on_c, 0, 56, 52
1, 1743, Note_on_c, 0, 61, 57
1, 1768, Note_off_c, 0, 56, 64
1, 1811, Note_off_c, 0, 61, 64
1, 1819, Note_on_c, 0, 65, 53
1, 1877, Note_on_c, 0, 68, 59
1, 1880, Note_off_c, 0, 65, 64
1, 1955, Note_on_c, 0, 65, 48
1, 1977, Note_off_c, 0, 68, 64
1, 2047, Note_on_c, 0, 61, 54
1, 2075, Note_off_c, 0, 65, 64
1, 2114, Note_on_c, 0, 56, 49
1, 2152, Note_off_c, 0, 61, 64
1, 2158, Note_on_c, 0, 53, 64
1, 2198, Note_off_c, 0, 53, 64
1, 2211, Note_on_c, 0, 49, 46
1, 2240, Note_off_c, 0, 56, 64
1, 2254, Note_off_c, 0, 49, 64
1, 2269, Note_on_c, 0, 44, 56
1, 2357, Note_on_c, 0, 37, 62
1, 2362, Note_off_c, 0, 44, 64
1, 2403, Note_off_c, 0, 37, 64
1, 2445, Note_on_c, 0, 44, 44
1, 2509, Note_off_c, 0, 44, 64
1, 2518, Note_on_c, 0, 49, 62
1, 2565, Note_off_c, 0, 49, 64
1, 2626, Note_on_c, 0, 53, 32
1, 2670, Note_off_c, 0, 53, 64
1, 2674, Note_on_c, 0, 56, 51
1, 2749, Note_on_c, 0, 61, 51
1, 2757, Note_off_c, 0, 56, 64
1, 2813, Note_off_c, 0, 61, 64
1, 2838, Note_on_c, 0, 65, 45
1, 2886, Note_off_c, 0, 65, 64
1, 2896, Note_on_c, 0, 68, 52
1, 2986, Note_on_c, 0, 65, 34
1, 3013, Note_off_c, 0, 68, 64
1, 3066, Note_on_c, 0, 61, 45
1, 3125, Note_off_c, 0, 61, 64
1, 3142, Note_on_c, 0, 56, 31
1, 3175, Note_off_c, 0, 65, 64
1, 3181, Note_on_c, 0, 53, 37
1, 3208, Note_off_c, 0, 56, 64
1, 3231, Note_off_c, 0, 53, 64
1, 3250, Note_on_c, 0, 49, 26
1, 3305, Note_off_c, 0, 49, 64
1, 3325, Note_on_c, 0, 44, 41
1, 3412, Note_off_c, 0, 44, 64
1, 3445, Note_on_c, 0, 37, 44
1, 3499, Note_off_c, 0, 37, 64
1, 3552, Note_on_c, 0, 44, 23
1, 3621, Note_off_c, 0, 44, 64
1, 3641, Note_on_c, 0, 49, 35
1, 3702, Note_off_c, 0, 49, 64
1, 3752, Note_on_c, 0, 53, 36
1, 3799, Note_off_c, 0, 53, 64
1, 3802, Note_on_c, 0, 56, 31
1, 3896, Note_on_c, 0, 61, 30
1, 3910, Note_off_c, 0, 56, 64
1, 3960, Note_off_c, 0, 61, 64
1, 3986, Note_on_c, 0, 65, 23
1, 4039, Note_off_c, 0, 65, 64
1, 4039, Note_on_c, 0, 68, 36
1, 4125, Note_on_c, 0, 65, 17
1, 4144, Note_off_c, 0, 68, 64
1, 4225, Note_on_c, 0, 61, 37
1, 4320, Note_on_c, 0, 56, 23
1, 4340, Note_off_c, 0, 61, 64
1, 4343, Note_off_c, 0, 65, 64
1, 4393, Note_off_c, 0, 56, 64
1, 4410, Note_on_c, 0, 53, 20
1, 4456, Note_off_c, 0, 53, 64
1, 4470, Note_on_c, 0, 49, 32
1, 4521, Note_off_c, 0, 49, 64
1, 4562, Note_on_c, 0, 44, 22
1, 4652, Note_off_c, 0, 44, 64
1, 4694, Note_on_c, 0, 37, 23
1, 4752, Note_off_c, 0, 37, 64
1, 4800, Note_on_c, 0, 44, 20
1, 4868, Note_off_c, 0, 44, 64
1, 4900, Note_on_c, 0, 49, 32
1, 4955, Note_off_c, 0, 49, 64
1, 4995, Note_on_c, 0, 53, 38
1, 5041, Note_off_c, 0, 53, 64
1, 5064, Note_on_c, 0, 56, 29
1, 5137, Note_off_c, 0, 56, 64
1, 5156, Note_on_c, 0, 61, 27
1, 5229, Note_off_c, 0, 61, 64
1, 5267, Note_on_c, 0, 65, 9
1, 5318, Note_on_c, 0, 68, 71
1, 5340, Note_off_c, 0, 65, 64
1, 5465, Note_off_c, 0, 68, 64
1, 5555, Note_on_c, 0, 65, 28
1, 5665, Note_on_c, 0, 61, 25
1, 5732, Note_on_c, 0, 56, 29
1, 5768, Note_on_c, 0, 53, 30
1, 5794, Note_off_c, 0, 56, 64
1, 5818, Note_off_c, 0, 53, 64
1, 5818, Note_off_c, 0, 61, 64
1, 5828, Note_on_c, 0, 49, 32
1, 5880, Note_off_c, 0, 49, 64
1, 5903, Note_on_c, 0, 44, 33
1, 5906, Note_off_c, 0, 65, 64
1, 5964, Note_off_c, 0, 44, 64
1, 6014, Note_on_c, 0, 70, 76
1, 6038, Note_on_c, 0, 37, 35
1, 6094, Note_off_c, 0, 37, 64
1, 6142, Note_on_c, 0, 44, 34
1, 6204, Note_off_c, 0, 44, 64
1, 6229, Note_off_c, 0, 70, 64
1, 6232, Note_on_c, 0, 49, 41
1, 6284, Note_off_c, 0, 49, 64
1, 6357, Note_on_c, 0, 56, 39
1, 6423, Note_off_c, 0, 56, 64
1, 6443, Note_on_c, 0, 61, 47
1, 6520, Note_off_c, 0, 61, 64
1, 6529, Note_on_c, 0, 65, 37
1, 6576, Note_off_c, 0, 65, 64
1, 6607, Note_on_c, 0, 73, 89
1, 6677, Note_off_c, 0, 73, 64
1, 6760, Note_on_c, 0, 65, 31
1, 6835, Note_on_c, 0, 61, 45
1, 6895, Note_off_c, 0, 61, 64
1, 6899, Note_on_c, 0, 56, 39
1, 6922, Note_on_c, 0, 53, 65
1, 6949, Note_off_c, 0, 56, 64
1, 6981, Note_off_c, 0, 65, 64
1, 6984, Note_off_c, 0, 53, 64
1, 7000, Note_on_c, 0, 49, 42
1, 7078, Note_on_c, 0, 44, 56
1, 7106, Note_off_c, 0, 49, 64
1, 7120, Note_off_c, 0, 44, 64
1, 7197, Note_on_c, 0, 75, 88
1, 7226, Control_c, 0, 64, 0
1, 7230, Note_on_c, 0, 37, 58
1, 7317, Note_off_c, 0, 37, 64
1, 7323, Control_c, 0, 64, 127
1, 7373, Note_off_c, 0, 75, 64
1, 7395, Note_on_c, 0, 46, 47
1, 7456, Note_off_c, 0, 46, 64
1, 7462, Note_on_c, 0, 49, 33
1, 7507, Note_on_c, 0, 54, 59
1, 7523, Note_off_c, 0, 49, 64
1, 7546, Note_off_c, 0, 54, 64
1, 7546, Note_on_c, 0, 58, 33
1, 7621, Note_off_c, 0, 58, 64
1, 7629, Note_on_c, 0, 61, 45
1, 7685, Note_off_c, 0, 61, 64
1, 7713, Note_on_c, 0, 66, 29
1, 7786, Note_off_c, 0, 66, 64
1, 7814, Note_on_c, 0, 77, 83
1, 7877, Note_off_c, 0, 77, 64
1, 7959, Note_on_c, 0, 66, 29
1, 8025, Note_off_c, 0, 66, 64
1, 8044, Note_on_c, 0, 61, 41
1, 8114, Note_off_c, 0, 61, 64
1, 8126, Note_on_c, 0, 58, 22
1, 8165, Note_on_c, 0, 54, 50
1, 8186, Note_off_c, 0, 58, 64
1, 8218, Note_off_c, 0, 54, 64
1, 8281, Note_on_c, 0, 49, 29
1, 8360, Note_off_c, 0, 49, 64
1, 8365, Note_on_c, 0, 46, 31
1, 8415, Note_off_c, 0, 46, 64
1, 8523, Note_on_c, 0, 75, 52
1, 8572, Note_on_c, 0, 37, 23
1, 8624, Note_off_c, 0, 37, 64
1, 8683, Note_off_c, 0, 75, 64
1, 8769, Note_on_c, 0, 46, 18
1, 8850, Note_on_c, 0, 49, 22
1, 8870, Note_off_c, 0, 46, 64
1, 8905, Note_on_c, 0, 54, 38
1, 8916, Note_off_c, 0, 49, 64
1, 8969, Note_off_c, 0, 54, 64
1, 8991, Note_on_c, 0, 58, 28
1, 9080, Note_off_c, 0, 58, 64
1, 9118, Note_on_c, 0, 61, 15
1, 9192, Note_off_c, 0, 61, 64
1, 9192, Note_on_c, 0, 66, 21
1, 9257, Note_on_c, 0, 70, 53
1, 9278, Note_off_c, 0, 66, 64
1, 9363, Note_off_c, 0, 70, 64
1, 9374, Note_on_c, 0, 66, 17
1, 9493, Note_on_c, 0, 61, 37
1, 9601, Note_on_c, 0, 58, 23
1, 9622, Note_off_c, 0, 61, 64
1, 9665, Note_off_c, 0, 58, 64
1, 9682, Note_off_c, 0, 66, 64
1, 9696, Note_on_c, 0, 54, 16
1, 9769, Note_off_c, 0, 54, 64
1, 9799, Note_on_c, 0, 49, 20
1, 9864, Note_off_c, 0, 49, 64
1, 9905, Note_on_c, 0, 46, 19
1, 9958, Note_off_c, 0, 46, 64
1, 10064, Note_on_c, 0, 73, 34
1, 10109, Note_on_c, 0, 37, 21
1, 10133, Control_c, 0, 64, 0
1, 10281, Note_off_c, 0, 37, 64
1, 10281, Control_c, 0, 64, 127
1, 10309, Note_on_c, 0, 44, 29
1, 10318, Note_off_c, 0, 73, 64
1, 10412, Note_off_c, 0, 44, 64
1, 10429, Note_on_c, 0, 49, 18
1, 10515, Note_off_c, 0, 49, 64
1, 10524, Note_on_c, 0, 53, 48
1, 10574, Note_off_c, 0, 53, 64
1, 10593, Note_on_c, 0, 56, 32
1, 10661, Note_off_c, 0, 56, 64
1, 10668, Note_on_c, 0, 61, 31
1, 10730, Note_off_c, 0, 61, 64
1, 10764, Note_on_c, 0, 65, 29
1, 10814, Note_off_c, 0, 65, 64
1, 10820, Note_on_c, 0, 68, 47
1, 10909, Note_on_c, 0, 65, 21
1, 10941, Note_off_c, 0, 68, 64
1, 11000, Note_on_c, 0, 61, 38
1, 11086, Note_on_c, 0, 56, 30
1, 11122, Note_off_c, 0, 65, 64
1, 11145, Note_off_c, 0, 61, 64
1, 11151, Note_on_c, 0, 53, 46
1, 11154, Note_off_c, 0, 56, 64
1, 11200, Note_off_c, 0, 53, 64
1, 11220, Note_on_c, 0, 49, 44
1, 11273, Note_off_c, 0, 49, 64
1, 11296, Note_on_c, 0, 44, 46
1, 11398, Note_off_c, 0, 44, 64
1, 11405, Note_on_c, 0, 37, 53
1, 11524, Note_on_c, 0, 44, 48
1, 11524, Note_off_c, 0, 37, 64
1, 11593, Note_off_c, 0, 44, 64
1, 11635, Note_on_c, 0, 49, 43
1, 11682, Note_off_c, 0, 49, 64
1, 11738, Note_on_c, 0, 53, 43
1, 11783, Note_off_c, 0, 53, 64
1, 11800, Note_on_c, 0, 56, 35
1, 11880, Note_off_c, 0, 56, 64
1, 11880, Note_on_c, 0, 61, 46
1, 11942, Note_off_c, 0, 61, 64
1, 11969, Note_on_c, 0, 65, 38
1, 12020, Note_off_c, 0, 65, 64
1, 12033, Note_on_c, 0, 68, 52
1, 12122, Note_on_c, 0, 65, 25
1, 12132, Note_off_c, 0, 68, 64
1, 12217, Note_on_c, 0, 61, 42
1, 12245, Note_off_c, 0, 65, 64
1, 12284, Note_on_c, 0, 56, 37
1, 12284, Note_off_c, 0, 61, 64
1, 12340, Note_off_c, 0, 56, 64
1, 12373, Note_on_c, 0, 53, 28
1, 12424, Note_off_c, 0, 53, 64
1, 12429, Note_on_c, 0, 49, 28
1, 12485, Note_off_c, 0, 49, 64
1, 12504, Note_on_c, 0, 44, 41
1, 12596, Note_off_c, 0, 44, 64
1, 12621, Note_on_c, 0, 37, 51
1, 12719, Note_off_c, 0, 37, 64
1, 12766, Note_on_c, 0, 44, 33
1, 12822, Note_off_c, 0, 44, 64
1, 12861, Note_on_c, 0, 49, 33
1, 12920, Note_off_c, 0, 49, 64
1, 12944, Note_on_c, 0, 53, 45
1, 12987, Note_off_c, 0, 53, 64
1, 13018, Note_on_c, 0, 56, 28
1, 13079, Note_off_c, 0, 56, 64
1, 13107, Note_on_c, 0, 61, 39
1, 13179, Note_off_c, 0, 61, 64
1, 13231, Note_on_c, 0, 65, 4
1, 13265, Note_on_c, 0, 68, 81
1, 13282, Note_off_c, 0, 65, 64
1, 13380, Note_off_c, 0, 68, 64
1, 13440, Note_on_c, 0, 65, 38
1, 13532, Note_on_c, 0, 61, 44
1, 13605, Note_on_c, 0, 56, 47
1, 13663, Note_off_c, 0, 56, 64
1, 13686, Note_off_c, 0, 61, 64
1, 13700, Note_on_c, 0, 49, 41
1, 13747, Note_off_c, 0, 49, 64
1, 13761, Note_off_c, 0, 65, 64
1, 13772, Note_on_c, 0, 44, 44
1, 13830, Note_off_c, 0, 44, 64
1, 13898, Note_on_c, 0, 70, 89
1, 13940, Note_on_c, 0, 37, 41
1, 14012, Note_off_c, 0, 37, 64
1, 14031, Note_on_c, 0, 44, 48
1, 14082, Note_off_c, 0, 44, 64
1, 14104, Note_off_c, 0, 70, 64
1, 14128, Note_on_c, 0, 49, 44
1, 14179, Note_off_c, 0, 49, 64
1, 14207, Note_on_c, 0, 53, 60
1, 14245, Note_off_c, 0, 53, 64
1, 14245, Note_on_c, 0, 56, 41
1, 14323, Note_on_c, 0, 61, 52
1, 14323, Note_off_c, 0, 56, 64
1, 14402, Note_on_c, 0, 65, 52
1, 14426, Note_off_c, 0, 61, 64
1, 14455, Note_off_c, 0, 65, 64
1, 14485, Note_on_c, 0, 73, 96
1, 14558, Note_off_c, 0, 73, 64
1, 14638, Note_on_c, 0, 65, 47
1, 14720, Note_on_c, 0, 61, 50
1, 14781, Note_off_c, 0, 61, 64
1, 14791, Note_on_c, 0, 56, 54
1, 14834, Note_off_c, 0, 56, 64
1, 14839, Note_on_c, 0, 53, 68
1, 14847, Note_off_c, 0, 65, 64
1, 14887, Note_off_c, 0, 53, 64
1, 14903, Note_on_c, 0, 49, 56
1, 14973, Note_on_c, 0, 44, 60
1, 14983, Note_off_c, 0, 49, 64
1, 15007, Note_off_c, 0, 44, 64
1, 15084, Note_on_c, 0, 75, 89
1, 15089, Control_c, 0, 64, 0
1, 15100, Note_on_c, 0, 37, 52
1, 15195, Note_off_c, 0, 37, 64
1, 15221, Control_c, 0, 64, 127
1, 15248, Note_off_c, 0, 75, 64
1, 15277, Note_on_c, 0, 46, 49
1, 15357, Note_on_c, 0, 49, 39
1, 15366, Note_off_c, 0, 46, 64
1, 15402, Note_on_c, 0, 54, 60
1, 15416, Note_off_c, 0, 49, 64
1, 15443, Note_off_c, 0, 54, 64
1, 15447, Note_on_c, 0, 58, 40
1, 15530, Note_off_c, 0, 58, 64
1, 15538, Note_on_c, 0, 61, 46
1, 15602, Note_off_c, 0, 61, 64
1, 15627, Note_on_c, 0, 66, 41
1, 15686, Note_off_c, 0, 66, 64
1, 15745, Note_on_c, 0, 77, 89
1, 15828, Note_off_c, 0, 77, 64
1, 15922, Note_on_c, 0, 66, 23
1, 15998, Note_on_c, 0, 61, 41
1, 16082, Note_off_c, 0, 66, 64
1, 16087, Note_off_c, 0, 61, 64
1, 16093, Note_on_c, 0, 58, 17
1, 16129, Note_on_c, 0, 54, 45
1, 16157, Note_off_c, 0, 58, 64
1, 16193, Note_off_c, 0, 54, 64
1, 16234, Note_on_c, 0, 49, 36
1, 16326, Note_on_c, 0, 46, 26
1, 16329, Note_off_c, 0, 49, 64
1, 16377, Note_off_c, 0, 46, 64
1, 16472, Note_on_c, 0, 75, 52
1, 16504, Control_c, 0, 64, 0
1, 16536, Note_on_c, 0, 37, 28
1, 16589, Note_off_c, 0, 37, 64
1, 16611, Control_c, 0, 64, 127
1, 16647, Note_off_c, 0, 75, 64
1, 16722, Note_on_c, 0, 46, 30
1, 16837, Note_on_c, 0, 49, 26
1, 16861, Note_off_c, 0, 46, 64
1, 16894, Note_on_c, 0, 54, 40
1, 16911, Note_off_c, 0, 49, 64
1, 16948, Note_off_c, 0, 54, 64
1, 16984, Note_on_c, 0, 58, 23
1, 17073, Note_on_c, 0, 61, 28
1, 17073, Note_off_c, 0, 58, 64
1, 17145, Note_off_c, 0, 61, 64
1, 17157, Note_on_c, 0, 66, 26
1, 17227, Note_off_c, 0, 66, 64
1, 17248, Note_on_c, 0, 70, 47
1, 17319, Note_off_c, 0, 70, 64
1, 17369, Note_on_c, 0, 66, 21
1, 17475, Note_on_c, 0, 61, 33
1, 17566, Note_on_c, 0, 58, 25
1, 17588, Note_off_c, 0, 66, 64
1, 17616, Note_off_c, 0, 61, 64
1, 17635, Note_off_c, 0, 58, 64
1, 17656, Note_on_c, 0, 54, 28
1, 17723, Note_off_c, 0, 54, 64
1, 17773, Note_on_c, 0, 49, 21
1, 17834, Note_off_c, 0, 49, 64
1, 17873, Note_on_c, 0, 46, 19
1, 17931, Note_off_c, 0, 46, 64
1, 18048, Note_on_c, 0, 73, 30
1, 18103, Note_on_c, 0, 37, 28
1, 18103, Control_c, 0, 64, 0
1, 18252, Control_c, 0, 64, 127
1, 18273, Note_off_c, 0, 37, 64
1, 18296, Note_on_c, 0, 44, 32
1, 18315, Note_off_c, 0, 73, 64
1, 18385, Note_off_c, 0, 44, 64
1, 18421, Note_on_c, 0, 49, 25
1, 18497, Note_off_c, 0, 49, 64
1, 18517, Note_on_c, 0, 53, 46
1, 18569, Note_off_c, 0, 53, 64
1, 18589, Note_on_c, 0, 56, 32
1, 18652, Note_off_c, 0, 56, 64
1, 18667, Note_on_c, 0, 61, 31
1, 18731, Note_off_c, 0, 61, 64
1, 18755, Note_on_c, 0, 65, 31
1, 18811, Note_off_c, 0, 65, 64
1, 18837, Note_on_c, 0, 68, 32
1, 18914, Note_off_c, 0, 68, 64
1, 18914, Note_on_c, 0, 65, 13
1, 19012, Note_on_c, 0, 61, 36
1, 19078, Note_off_c, 0, 61, 64
1, 19078, Note_on_c, 0, 56, 28
1, 19123, Note_on_c, 0, 53, 46
1, 19142, Note_off_c, 0, 56, 64
1, 19174, Note_off_c, 0, 53, 64
1, 19180, Note_off_c, 0, 65, 64
1, 19201, Note_on_c, 0, 49, 33
1, 19251, Note_off_c, 0, 49, 64
1, 19268, Note_on_c, 0, 44, 44
1, 19355, Note_off_c, 0, 44, 64
1, 19365, Note_on_c, 0, 37, 61
1, 19477, Note_off_c, 0, 37, 64
1, 19477, Note_on_c, 0, 44, 50
1, 19544, Note_off_c, 0, 44, 64
1, 19581, Note_on_c, 0, 49, 46
1, 19628, Note_off_c, 0, 49, 64
1, 19659, Note_on_c, 0, 53, 59
1, 19698, Note_off_c, 0, 53, 64
1, 19723, Note_on_c, 0, 56, 39
1, 19786, Note_on_c, 0, 61, 52
1, 19798, Note_off_c, 0, 56, 64
1, 19851, Note_off_c, 0, 61, 64
1, 19858, Note_on_c, 0, 65, 52
1, 19925, Note_on_c, 0, 68, 62
1, 19942, Note_off_c, 0, 65, 64
1, 20003, Note_on_c, 0, 65, 57
1, 20028, Note_off_c, 0, 68, 64
1, 20095, Note_on_c, 0, 61, 55
1, 20140, Note_off_c, 0, 65, 64
1, 20165, Note_on_c, 0, 56, 48
1, 20229, Note_off_c, 0, 56, 64
1, 20233, Note_off_c, 0, 61, 64
1, 20233, Note_on_c, 0, 53, 67
1, 20283, Note_off_c, 0, 53, 64
1, 20290, Note_on_c, 0, 49, 58
1, 20344, Note_off_c, 0, 49, 64
1, 20355, Note_on_c, 0, 44, 54
1, 20393, Note_off_c, 0, 44, 64
1, 20469, Control_c, 0, 64, 0
1, 20485, Note_on_c, 0, 36, 87
1, 20594, Note_off_c, 0, 36, 64
1, 20614, Control_c, 0, 64, 127
1, 20698, Note_on_c, 0, 45, 49
1, 20756, Note_off_c, 0, 45, 64
1, 20786, Note_on_c, 0, 51, 61
1, 20861, Note_off_c, 0, 51, 64
1, 20861, Note_on_c, 0, 53, 65
1, 20897, Note_off_c, 0, 53, 64
1, 20915, Note_on_c, 0, 57, 49
1, 20992, Note_on_c, 0, 63, 59
1, 21014, Note_off_c, 0, 57, 64
1, 21067, Note_on_c, 0, 65, 39
1, 21137, Note_on_c, 0, 69, 49
1, 21198, Note_off_c, 0, 65, 64
1, 21216, Note_off_c, 0, 63, 64
1, 21216, Note_off_c, 0, 69, 64
1, 21255, Note_on_c, 0, 78, 94
1, 21357, Note_off_c, 0, 78, 64
1, 21421, Note_on_c, 0, 69, 37
1, 21475, Note_off_c, 0, 69, 64
1, 21475, Note_on_c, 0, 65, 55
1, 21549, Note_on_c, 0, 63, 54
1, 21580, Note_off_c, 0, 65, 64
1, 21599, Note_on_c, 0, 57, 48
1, 21603, Note_off_c, 0, 63, 64
1, 21641, Note_off_c, 0, 57, 64
1, 21645, Note_on_c, 0, 53, 69
1, 21700, Note_off_c, 0, 53, 64
1, 21726, Note_on_c, 0, 51, 39
1, 21797, Note_on_c, 0, 45, 43
1, 21804, Note_off_c, 0, 51, 64
1, 21840, Note_off_c, 0, 45, 64
1, 21984, Note_on_c, 0, 33, 75
1, 21988, Note_on_c, 0, 77, 73
1, 22004, Control_c, 0, 64, 0
1, 22071, Note_off_c, 0, 33, 64
1, 22112, Control_c, 0, 64, 127
1, 22148, Note_off_c, 0, 77, 64
1, 22221, Note_on_c, 0, 48, 32
1, 22276, Note_on_c, 0, 51, 56
1, 22285, Note_off_c, 0, 48, 64
1, 22341, Note_on_c, 0, 53, 62
1, 22360, Note_off_c, 0, 51, 64
1, 22377, Note_on_c, 0, 60, 50
1, 22377, Note_off_c, 0, 53, 64
1, 22433, Note_on_c, 0, 63, 60
1, 22460, Note_off_c, 0, 60, 64
1, 22519, Note_on_c, 0, 65, 51
1, 22539, Note_off_c, 0, 63, 64
1, 22625, Note_off_c, 0, 65, 64
1, 22631, Note_on_c, 0, 72, 90
1, 22678, Note_off_c, 0, 72, 64
1, 22698, Note_on_c, 0, 65, 34
1, 22804, Note_on_c, 0, 63, 46
1, 22861, Note_on_c, 0, 60, 56
1, 22900, Note_off_c, 0, 63, 64
1, 22904, Note_off_c, 0, 60, 64
1, 22915, Note_off_c, 0, 65, 64
1, 22974, Note_on_c, 0, 53, 37
1, 23024, Note_off_c, 0, 53, 64
1, 23024, Note_on_c, 0, 51, 59
1, 23123, Note_off_c, 0, 51, 64
1, 23126, Note_on_c, 0, 48, 16
1, 23173, Note_off_c, 0, 48, 64
1, 23222, Note_on_c, 0, 75, 88
1, 23247, Note_on_c, 0, 34, 69
1, 23247, Control_c, 0, 64, 0
1, 23335, Note_off_c, 0, 34, 64
1, 23358, Control_c, 0, 64, 127
1, 23428, Note_off_c, 0, 75, 64
1, 23461, Note_on_c, 0, 49, 52
1, 23528, Note_off_c, 0, 49, 64
1, 23544, Note_on_c, 0, 53, 52
1, 23578, Note_on_c, 0, 58, 40
1, 23586, Note_off_c, 0, 53, 64
1, 23600, Note_on_c, 0, 61, 53
1, 23623, Note_off_c, 0, 58, 64
1, 23684, Note_on_c, 0, 65, 48
1, 23697, Note_off_c, 0, 61, 64
1, 23734, Note_on_c, 0, 70, 51
1, 23740, Note_off_c, 0, 65, 64
1, 23790, Note_off_c, 0, 70, 64
1, 23811, Note_on_c, 0, 73, 93
1, 23862, Note_off_c, 0, 73, 64
1, 23923, Note_on_c, 0, 70, 44
1, 24018, Note_on_c, 0, 65, 51
1, 24068, Note_on_c, 0, 61, 55
1, 24102, Note_off_c, 0, 65, 64
1, 24118, Note_on_c, 0, 58, 36
1, 24126, Note_off_c, 0, 70, 64
1, 24126, Note_off_c, 0, 61, 64
1, 24168, Note_off_c, 0, 58, 64
1, 24197, Note_on_c, 0, 53, 76
1, 24249, Note_off_c, 0, 53, 64
1, 24280, Note_on_c, 0, 49, 47
1, 24369, Note_off_c, 0, 49, 64
1, 24408, Note_on_c, 0, 42, 43
1, 24421, Note_on_c, 0, 80, 89
1, 24438, Control_c, 0, 64, 0
1, 24580, Note_on_c, 0, 49, 43
1, 24592, Control_c, 0, 64, 127
1, 24598, Note_off_c, 0, 42, 64
1, 24616, Note_off_c, 0, 80, 64
1, 24695, Note_off_c, 0, 49, 64
1, 24711, Note_on_c, 0, 51, 32
1, 24786, Note_on_c, 0, 58, 20
1, 24811, Note_off_c, 0, 51, 64
1, 24848, Note_off_c, 0, 58, 64
1, 24853, Note_on_c, 0, 61, 38
1, 24937, Note_off_c, 0, 61, 64
1, 24959, Note_on_c, 0, 63, 38
1, 25021, Note_off_c, 0, 63, 64
1, 25046, Note_on_c, 0, 70, 41
1, 25109, Note_off_c, 0, 70, 64
1, 25172, Note_on_c, 0, 78, 66
1, 25236, Note_off_c, 0, 78, 64
1, 25313, Note_on_c, 0, 70, 26
1, 25402, Note_on_c, 0, 63, 40
1, 25463, Note_off_c, 0, 63, 64
1, 25491, Note_on_c, 0, 61, 32
1, 25547, Note_on_c, 0, 58, 30
1, 25569, Note_off_c, 0, 61, 64
1, 25622, Note_off_c, 0, 58, 64
1, 25656, Note_on_c, 0, 51, 39
1, 25708, Note_on_c, 0, 49, 42
1, 25731, Note_off_c, 0, 51, 64
1, 25768, Note_off_c, 0, 49, 64
1, 25826, Note_on_c, 0, 68, 58
1, 25843, Note_on_c, 0, 44, 38
1, 25851, Control_c, 0, 64, 0
1, 25895, Note_off_c, 0, 70, 64
1, 26010, Note_on_c, 0, 53, 61
1, 26020, Control_c, 0, 64, 127
1, 26040, Note_off_c, 0, 44, 64
1, 26087, Note_off_c, 0, 53, 64
1, 26137, Note_on_c, 0, 56, 43
1, 26196, Note_off_c, 0, 56, 64
1, 26250, Note_on_c, 0, 61, 48
1, 26296, Note_off_c, 0, 61, 64
1, 26346, Note_on_c, 0, 61, 57
1, 26436, Note_off_c, 0, 61, 64
1, 26470, Note_on_c, 0, 65, 50
1, 26550, Note_off_c, 0, 65, 64
1, 26587, Note_on_c, 0, 67, 76
1, 26639, Note_off_c, 0, 68, 64
1, 26742, Note_on_c, 0, 65, 44
1, 26792, Note_off_c, 0, 65, 64
1, 26807, Note_on_c, 0, 61, 45
1, 26849, Note_off_c, 0, 61, 64
1, 26915, Note_on_c, 0, 61, 28
1, 26971, Note_off_c, 0, 61, 64
1, 26977, Note_on_c, 0, 56, 35
1, 27016, Note_off_c, 0, 67, 64
1, 27054, Note_off_c, 0, 56, 64
1, 27110, Note_on_c, 0, 53, 41
1, 27115, Note_on_c, 0, 68, 54
1, 27151, Note_off_c, 0, 68, 64
1, 27160, Note_off_c, 0, 53, 64
1, 27207, Note_on_c, 0, 68, 46
1, 27352, Note_on_c, 0, 44, 30
1, 27385, Control_c, 0, 64, 0
1, 27478, Note_on_c, 0, 77, 55
1, 27519, Note_off_c, 0, 68, 64
1, 27601, Control_c, 0, 64, 127
1, 27615, Note_off_c, 0, 44, 64
1, 27720, Note_on_c, 0, 54, 40
1, 27828, Note_off_c, 0, 54, 64
1, 27846, Note_on_c, 0, 56, 38
1, 27909, Note_off_c, 0, 56, 64
1, 27985, Note_on_c, 0, 60, 33
1, 28040, Note_off_c, 0, 60, 64
1, 28115, Note_on_c, 0, 66, 22
1, 28147, Note_off_c, 0, 77, 64
1, 28218, Note_off_c, 0, 66, 64
1, 28224, Note_on_c, 0, 68, 31
1, 28294, Note_off_c, 0, 68, 64
1, 28350, Note_on_c, 0, 77, 66
1, 28491, Note_on_c, 0, 68, 29
1, 28592, Note_off_c, 0, 68, 64
1, 28650, Note_on_c, 0, 66, 22
1, 28707, Note_off_c, 0, 66, 64
1, 28854, Note_on_c, 0, 60, 15
1, 28976, Note_off_c, 0, 60, 64
1, 29055, Note_on_c, 0, 56, 20
1, 29166, Note_off_c, 0, 56, 64
1, 29253, Note_on_c, 0, 54, 15
1, 29409, Note_off_c, 0, 54, 64
1, 29487, Note_on_c, 0, 75, 34
1, 29526, Note_off_c, 0, 77, 64
1, 29700, Note_off_c, 0, 75, 64
1, 29806, Note_on_c, 0, 73, 26
1, 29806, Control_c, 0, 64, 0
1, 29813, Note_on_c, 0, 37, 26
1, 29962, Control_c, 0, 64, 127
1, 30004, Note_off_c, 0, 37, 64
1, 30015, Note_on_c, 0, 44, 35
1, 30033, Note_off_c, 0, 73, 64
1, 30127, Note_off_c, 0, 44, 64
1, 30158, Note_on_c, 0, 49, 28
1, 30247, Note_off_c, 0, 49, 64
1, 30271, Note_on_c, 0, 53, 44
1, 30331, Note_off_c, 0, 53, 64
1, 30358, Note_on_c, 0, 56, 31
1, 30412, Note_off_c, 0, 56, 64
1, 30437, Note_on_c, 0, 61, 31
1, 30500, Note_off_c, 0, 61, 64
1, 30537, Note_on_c, 0, 65, 23
1, 30589, Note_off_c, 0, 65, 64
1, 30598, Note_on_c, 0, 68, 35
1, 30678, Note_off_c, 0, 68, 64
1, 30681, Note_on_c, 0, 65, 13
1, 30778, Note_on_c, 0, 61, 38
1, 30859, Note_off_c, 0, 61, 64
1, 30874, Note_on_c, 0, 56, 22
1, 30937, Note_on_c, 0, 53, 25
1, 30937, Note_off_c, 0, 56, 64
1, 30991, Note_off_c, 0, 65, 64
1, 30991, Note_off_c, 0, 53, 64
1, 31004, Note_on_c, 0, 49, 34
1, 31051, Note_off_c, 0, 49, 64
1, 31076, Note_on_c, 0, 44, 37
1, 31149, Note_off_c, 0, 44, 64
1, 31189, Note_on_c, 0, 37, 43
1, 31238, Note_off_c, 0, 37, 64
1, 31285, Note_on_c, 0, 44, 38
1, 31339, Note_off_c, 0, 44, 64
1, 31395, Note_on_c, 0, 49, 36
1, 31455, Note_off_c, 0, 49, 64
1, 31470, Note_on_c, 0, 53, 46
1, 31517, Note_off_c, 0, 53, 64
1, 31558, Note_on_c, 0, 56, 36
1, 31618, Note_on_c, 0, 61, 47
1, 31625, Note_off_c, 0, 56, 64
1, 31675, Note_off_c, 0, 61, 64
1, 31696, Note_on_c, 0, 65, 38
1, 31759, Note_off_c, 0, 65, 64
1, 31765, Note_on_c, 0, 68, 47
1, 31841, Note_on_c, 0, 65, 34
1, 31865, Note_off_c, 0, 68, 64
1, 31941, Note_on_c, 0, 61, 38
1, 32005, Note_on_c, 0, 56, 31
1, 32019, Note_off_c, 0, 65, 64
1, 32041, Note_off_c, 0, 61, 64
1, 32050, Note_on_c, 0, 53, 37
1, 32063, Note_off_c, 0, 56, 64
1, 32094, Note_on_c, 0, 49, 44
1, 32097, Note_off_c, 0, 53, 64
1, 32138, Note_off_c, 0, 49, 64
1, 32166, Note_on_c, 0, 44, 44
1, 32227, Note_off_c, 0, 44, 64
1, 32263, Note_on_c, 0, 37, 50
1, 32309, Note_off_c, 0, 37, 64
1, 32359, Note_on_c, 0, 44, 36
1, 32412, Note_off_c, 0, 44, 64
1, 32445, Note_on_c, 0, 49, 34
1, 32501, Note_off_c, 0, 49, 64
1, 32531, Note_on_c, 0, 53, 43
1, 32581, Note_off_c, 0, 53, 64
1, 32587, Note_on_c, 0, 56, 38
1, 32631, Note_off_c, 0, 56, 64
1, 32667, Note_on_c, 0, 61, 39
1, 32729, Note_off_c, 0, 61, 64
1, 32765, Note_on_c, 0, 65, 25
1, 32824, Note_off_c, 0, 65, 64
1, 32885, Note_on_c, 0, 68, 57
1, 32940, Note_off_c, 0, 68, 64
1, 32985, Note_on_c, 0, 65, 19
1, 33071, Note_on_c, 0, 80, 59
1, 33085, Note_off_c, 0, 65, 64
1, 33105, Note_off_c, 0, 80, 64
1, 33196, Note_on_c, 0, 61, 32
1, 33211, Note_on_c, 0, 65, 2
1, 33277, Note_off_c, 0, 61, 64
1, 33277, Note_on_c, 0, 56, 33
1, 33325, Note_off_c, 0, 65, 64
1, 33325, Note_off_c, 0, 56, 64
1, 33366, Note_on_c, 0, 53, 57
1, 33406, Note_off_c, 0, 53, 64
1, 33478, Note_on_c, 0, 44, 35
1, 33511, Note_on_c, 0, 70, 64
1, 33537, Note_off_c, 0, 44, 64
1, 33578, Note_on_c, 0, 37, 50
1, 33623, Note_off_c, 0, 70, 64
1, 33623, Note_off_c, 0, 37, 64
1, 33701, Note_on_c, 0, 44, 33
1, 33715, Note_on_c, 0, 82, 72
1, 33742, Note_off_c, 0, 82, 64
1, 33760, Note_off_c, 0, 44, 64
1, 33773, Note_on_c, 0, 49, 41
1, 33823, Note_off_c, 0, 49, 64
1, 33841, Note_on_c, 0, 53, 44
1, 33891, Note_off_c, 0, 53, 64
1, 33916, Note_on_c, 0, 56, 59
1, 33952, Note_off_c, 0, 56, 64
1, 33993, Note_on_c, 0, 61, 47
1, 34052, Note_off_c, 0, 61, 64
1, 34064, Note_on_c, 0, 65, 32
1, 34111, Note_off_c, 0, 65, 64
1, 34111, Note_on_c, 0, 73, 84
1, 34150, Note_off_c, 0, 73, 64
1, 34203, Note_on_c, 0, 65, 15
1, 34300, Note_on_c, 0, 85, 84
1, 34314, Note_off_c, 0, 65, 64
1, 34327, Note_off_c, 0, 85, 64
1, 34398, Note_on_c, 0, 61, 43
1, 34470, Note_on_c, 0, 56, 55
1, 34486, Note_off_c, 0, 61, 64
1, 34509, Note_off_c, 0, 56, 64
1, 34540, Note_on_c, 0, 53, 73
1, 34576, Note_off_c, 0, 53, 64
1, 34600, Note_on_c, 0, 49, 33
1, 34648, Note_on_c, 0, 44, 52
1, 34651, Note_off_c, 0, 49, 64
1, 34687, Note_off_c, 0, 44, 64
1, 34691, Note_on_c, 0, 75, 83
1, 34779, Note_on_c, 0, 37, 62
1, 34791, Control_c, 0, 64, 0
1, 34868, Note_off_c, 0, 37, 64
1, 34891, Note_on_c, 0, 87, 84
1, 34899, Control_c, 0, 64, 127
1, 34915, Note_off_c, 0, 87, 64
1, 34947, Note_off_c, 0, 75, 64
1, 34955, Note_on_c, 0, 46, 43
1, 35014, Note_off_c, 0, 46, 64
1, 35019, Note_on_c, 0, 49, 41
1, 35064, Note_on_c, 0, 54, 50
1, 35068, Note_off_c, 0, 49, 64
1, 35089, Note_on_c, 0, 58, 60
1, 35105, Note_off_c, 0, 54, 64
1, 35175, Note_off_c, 0, 58, 64
1, 35180, Note_on_c, 0, 61, 47
1, 35244, Note_off_c, 0, 61, 64
1, 35244, Note_on_c, 0, 66, 44
1, 35328, Note_on_c, 0, 77, 78
1, 35341, Note_off_c, 0, 66, 64
1, 35387, Note_off_c, 0, 77, 64
1, 35406, Note_on_c, 0, 66, 47
1, 35451, Note_off_c, 0, 66, 64
1, 35517, Note_on_c, 0, 89, 44
1, 35567, Note_off_c, 0, 89, 64
1, 35628, Note_on_c, 0, 61, 44
1, 35693, Note_off_c, 0, 61, 64
1, 35701, Note_on_c, 0, 58, 49
1, 35743, Note_off_c, 0, 58, 64
1, 35765, Note_on_c, 0, 54, 29
1, 35818, Note_off_c, 0, 54, 64
1, 35822, Note_on_c, 0, 49, 31
1, 35843, Note_on_c, 0, 46, 41
1, 35874, Note_off_c, 0, 49, 64
1, 35888, Note_off_c, 0, 46, 64
1, 35932, Note_on_c, 0, 75, 58
1, 35985, Note_on_c, 0, 37, 50
1, 36022, Note_off_c, 0, 37, 64
1, 36121, Note_off_c, 0, 75, 64
1, 36131, Note_on_c, 0, 87, 60
1, 36149, Note_on_c, 0, 46, 36
1, 36163, Note_off_c, 0, 87, 64
1, 36213, Note_off_c, 0, 46, 64
1, 36247, Note_on_c, 0, 49, 29
1, 36298, Note_on_c, 0, 54, 51
1, 36305, Note_off_c, 0, 49, 64
1, 36337, Note_off_c, 0, 54, 64
1, 36348, Note_on_c, 0, 58, 38
1, 36415, Note_off_c, 0, 58, 64
1, 36428, Note_on_c, 0, 61, 43
1, 36490, Note_on_c, 0, 66, 30
1, 36500, Note_off_c, 0, 61, 64
1, 36542, Note_off_c, 0, 66, 64
1, 36560, Note_on_c, 0, 70, 48
1, 36609, Note_off_c, 0, 70, 64
1, 36637, Note_on_c, 0, 66, 26
1, 36743, Note_on_c, 0, 82, 56
1, 36752, Note_off_c, 0, 66, 64
1, 36779, Note_off_c, 0, 82, 64
1, 36819, Note_on_c, 0, 61, 38
1, 36915, Note_on_c, 0, 58, 41
1, 36949, Note_off_c, 0, 61, 64
1, 36966, Note_off_c, 0, 58, 64
1, 36966, Note_on_c, 0, 54, 50
1, 37043, Note_off_c, 0, 54, 64
1, 37066, Note_on_c, 0, 49, 34
1, 37119, Note_on_c, 0, 46, 40
1, 37138, Note_off_c, 0, 49, 64
1, 37163, Note_off_c, 0, 46, 64
1, 37216, Note_on_c, 0, 73, 60
1, 37308, Control_c, 0, 64, 0
1, 37312, Note_on_c, 0, 37, 37
1, 37437, Note_on_c, 0, 85, 63
1, 37440, Control_c, 0, 64, 127
1, 37464, Note_off_c, 0, 73, 64
1, 37464, Note_off_c, 0, 37, 64
1, 37464, Note_on_c, 0, 44, 42
1, 37471, Note_off_c, 0, 85, 64
1, 37578, Note_off_c, 0, 44, 64
1, 37584, Note_on_c, 0, 49, 33
1, 37673, Note_on_c, 0, 53, 55
1, 37721, Note_on_c, 0, 56, 46
1, 37730, Note_off_c, 0, 53, 64
1, 37745, Note_off_c, 0, 49, 64
1, 37807, Note_on_c, 0, 61, 42
1, 37812, Note_off_c, 0, 56, 64
1, 37860, Note_off_c, 0, 61, 64
1, 37880, Note_on_c, 0, 65, 42
1, 37938, Note_off_c, 0, 65, 64
1, 37963, Note_on_c, 0, 68, 38
1, 38032, Note_on_c, 0, 65, 24
1, 38042, Note_off_c, 0, 68, 64
1, 38134, Note_on_c, 0, 61, 34
1, 38195, Note_on_c, 0, 56, 35
1, 38241, Note_off_c, 0, 61, 64
1, 38267, Note_on_c, 0, 53, 36
1, 38273, Note_off_c, 0, 56, 64
1, 38315, Note_off_c, 0, 53, 64
1, 38323, Note_on_c, 0, 49, 38
1, 38370, Note_off_c, 0, 49, 64
1, 38379, Note_off_c, 0, 65, 64
1, 38395, Note_on_c, 0, 44, 38
1, 38465, Note_off_c, 0, 44, 64
1, 38500, Note_on_c, 0, 37, 41
1, 38576, Note_off_c, 0, 37, 64
1, 38637, Note_on_c, 0, 44, 19
1, 38688, Note_on_c, 0, 49, 49
1, 38695, Note_off_c, 0, 44, 64
1, 38754, Note_off_c, 0, 49, 64
1, 38793, Note_on_c, 0, 53, 28
1, 38844, Note_off_c, 0, 53, 64
1, 38844, Note_on_c, 0, 56, 37
1, 38910, Note_on_c, 0, 61, 50
1, 38910, Note_off_c, 0, 56, 64
1, 38961, Note_off_c, 0, 61, 64
1, 38996, Note_on_c, 0, 65, 34
1, 39049, Note_off_c, 0, 65, 64
1, 39060, Note_on_c, 0, 68, 47
1, 39142, Note_on_c, 0, 65, 25
1, 39166, Note_off_c, 0, 68, 64
1, 39226, Note_on_c, 0, 61, 47
1, 39304, Note_on_c, 0, 56, 30
1, 39309, Note_off_c, 0, 61, 64
1, 39351, Note_on_c, 0, 53, 25
1, 39373, Note_off_c, 0, 56, 64
1, 39384, Note_off_c, 0, 65, 64
1, 39393, Note_off_c, 0, 53, 64
1, 39398, Note_on_c, 0, 49, 32
1, 39448, Note_on_c, 0, 44, 41
1, 39453, Note_off_c, 0, 49, 64
1, 39509, Note_off_c, 0, 44, 64
1, 39556, Note_on_c, 0, 37, 41
1, 39651, Note_off_c, 0, 37, 64
1, 39691, Note_on_c, 0, 44, 30
1, 39749, Note_off_c, 0, 44, 64
1, 39785, Note_on_c, 0, 49, 26
1, 39844, Note_off_c, 0, 49, 64
1, 39869, Note_on_c, 0, 53, 39
1, 39916, Note_off_c, 0, 53, 64
1, 39932, Note_on_c, 0, 56, 30
1, 39989, Note_off_c, 0, 56, 64
1, 40016, Note_on_c, 0, 61, 37
1, 40080, Note_off_c, 0, 61, 64
1, 40119, Note_on_c, 0, 65, 20
1, 40178, Note_off_c, 0, 65, 64
1, 40225, Note_on_c, 0, 68, 50
1, 40270, Note_off_c, 0, 68, 64
1, 40325, Note_on_c, 0, 65, 27
1, 40418, Note_on_c, 0, 80, 66
1, 40448, Note_off_c, 0, 80, 64
1, 40540, Note_on_c, 0, 61, 38
1, 40629, Note_on_c, 0, 56, 29
1, 40635, Note_off_c, 0, 61, 64
1, 40670, Note_on_c, 0, 53, 53
1, 40682, Note_off_c, 0, 56, 64
1, 40712, Note_off_c, 0, 53, 64
1, 40712, Note_off_c, 0, 65, 64
1, 40732, Note_on_c, 0, 49, 32
1, 40780, Note_off_c, 0, 49, 64
1, 40797, Note_on_c, 0, 44, 34
1, 40855, Note_on_c, 0, 70, 53
1, 40866, Note_off_c, 0, 44, 64
1, 40907, Note_on_c, 0, 37, 44
1, 40952, Note_off_c, 0, 70, 64
1, 40964, Note_off_c, 0, 37, 64
1, 41017, Note_on_c, 0, 44, 43
1, 41041, Note_on_c, 0, 82, 72
1, 41067, Note_off_c, 0, 82, 64
1, 41078, Note_off_c, 0, 44, 64
1, 41130, Note_on_c, 0, 49, 22
1, 41181, Note_off_c, 0, 49, 64
1, 41184, Note_on_c, 0, 53, 52
1, 41228, Note_off_c, 0, 53, 64
1, 41239, Note_on_c, 0, 56, 60
1, 41276, Note_off_c, 0, 56, 64
1, 41304, Note_on_c, 0, 61, 60
1, 41381, Note_on_c, 0, 65, 32
1, 41410, Note_off_c, 0, 61, 64
1, 41425, Note_on_c, 0, 73, 85
1, 41434, Note_off_c, 0, 65, 64
1, 41453, Note_off_c, 0, 73, 64
1, 41517, Note_on_c, 0, 65, 32
1, 41579, Note_off_c, 0, 65, 64
1, 41606, Note_on_c, 0, 85, 81
1, 41629, Note_off_c, 0, 85, 64
1, 41698, Note_on_c, 0, 61, 54
1, 41777, Note_on_c, 0, 56, 47
1, 41797, Note_off_c, 0, 61, 64
1, 41819, Note_off_c, 0, 56, 64
1, 41911, Note_on_c, 0, 49, 8
1, 41935, Note_on_c, 0, 44, 65
1, 41963, Note_off_c, 0, 49, 64
1, 41971, Note_off_c, 0, 44, 64
1, 41988, Note_on_c, 0, 75, 79
1, 42066, Control_c, 0, 64, 0
1, 42084, Note_on_c, 0, 37, 49
1, 42161, Note_off_c, 0, 37, 64
1, 42173, Control_c, 0, 64, 127
1, 42187, Note_on_c, 0, 87, 72
1, 42212, Note_off_c, 0, 87, 64
1, 42236, Note_off_c, 0, 75, 64
1, 42283, Note_on_c, 0, 46, 19
1, 42342, Note_on_c, 0, 49, 37
1, 42348, Note_off_c, 0, 46, 64
1, 42378, Note_on_c, 0, 54, 48
1, 42385, Note_off_c, 0, 49, 64
1, 42398, Note_on_c, 0, 58, 51
1, 42420, Note_off_c, 0, 54, 64
1, 42449, Note_off_c, 0, 58, 64
1, 42479, Note_on_c, 0, 61, 49
1, 42542, Note_off_c, 0, 61, 64
1, 42552, Note_on_c, 0, 66, 35
1, 42615, Note_off_c, 0, 66, 64
1, 42638, Note_on_c, 0, 77, 67
1, 42674, Note_off_c, 0, 77, 64
1, 42701, Note_on_c, 0, 66, 34
1, 42783, Note_off_c, 0, 66, 64
1, 42833, Note_on_c, 0, 89, 57
1, 42871, Note_off_c, 0, 89, 64
1, 42953, Note_on_c, 0, 61, 50
1, 43014, Note_off_c, 0, 61, 64
1, 43033, Note_on_c, 0, 58, 44
1, 43077, Note_off_c, 0, 58, 64
1, 43087, Note_on_c, 0, 54, 23
1, 43134, Note_on_c, 0, 49, 40
1, 43142, Note_off_c, 0, 54, 64
1, 43165, Note_on_c, 0, 46, 54
1, 43178, Note_off_c, 0, 49, 64
1, 43204, Note_off_c, 0, 46, 64
1, 43265, Note_on_c, 0, 75, 58
1, 43334, Note_on_c, 0, 37, 38
1, 43379, Note_off_c, 0, 37, 64
1, 43485, Note_off_c, 0, 75, 64
1, 43485, Note_on_c, 0, 87, 67
1, 43502, Note_on_c, 0, 46, 32
1, 43513, Note_off_c, 0, 87, 64
1, 43584, Note_off_c, 0, 46, 64
1, 43619, Note_on_c, 0, 49, 25
1, 43674, Note_off_c, 0, 49, 64
1, 43680, Note_on_c, 0, 54, 21
1, 43719, Note_on_c, 0, 58, 44
1, 43727, Note_off_c, 0, 54, 64
1, 43771, Note_off_c, 0, 58, 64
1, 43813, Note_on_c, 0, 61, 36
1, 43885, Note_off_c, 0, 61, 64
1, 43892, Note_on_c, 0, 66, 38
1, 43958, Note_off_c, 0, 66, 64
1, 43978, Note_on_c, 0, 70, 46
1, 44019, Note_off_c, 0, 70, 64
1, 44086, Note_on_c, 0, 66, 30
1, 44142, Note_off_c, 0, 66, 64
1, 44159, Note_on_c, 0, 82, 49
1, 44197, Note_off_c, 0, 82, 64
1, 44281, Note_on_c, 0, 61, 35
1, 44367, Note_on_c, 0, 58, 32
1, 44399, Note_off_c, 0, 61, 64
1, 44417, Note_off_c, 0, 58, 64
1, 44434, Note_on_c, 0, 54, 37
1, 44487, Note_off_c, 0, 54, 64
1, 44521, Note_on_c, 0, 49, 19
1, 44598, Note_on_c, 0, 46, 32
1, 44612, Note_off_c, 0, 49, 64
1, 44644, Note_off_c, 0, 46, 64
1, 44711, Note_on_c, 0, 73, 42
1, 44789, Note_on_c, 0, 37, 29
1, 44799, Control_c, 0, 64, 0
1, 44931, Control_c, 0, 64, 127
1, 44938, Note_off_c, 0, 37, 64
1, 44945, Note_on_c, 0, 85, 35
1, 44950, Note_off_c, 0, 73, 64
1, 44950, Note_on_c, 0, 44, 37
1, 44988, Note_off_c, 0, 85, 64
1, 45069, Note_off_c, 0, 44, 64
1, 45076, Note_on_c, 0, 49, 25
1, 45154, Note_off_c, 0, 49, 64
1, 45162, Note_on_c, 0, 53, 56
1, 45201, Note_off_c, 0, 53, 64
1, 45201, Note_on_c, 0, 56, 46
1, 45251, Note_off_c, 0, 56, 64
1, 45289, Note_on_c, 0, 61, 47
1, 45360, Note_on_c, 0, 65, 48
1, 45374, Note_off_c, 0, 61, 64
1, 45406, Note_off_c, 0, 65, 64
1, 45445, Note_on_c, 0, 73, 52
1, 45481, Note_off_c, 0, 73, 64
1, 45535, Note_on_c, 0, 65, 49
1, 45612, Note_on_c, 0, 61, 52
1, 45685, Note_on_c, 0, 56, 49
1, 45747, Note_off_c, 0, 61, 64
1, 45763, Note_on_c, 0, 53, 59
1, 45797, Note_off_c, 0, 56, 64
1, 45803, Note_off_c, 0, 53, 64
1, 45819, Note_on_c, 0, 49, 44
1, 45860, Note_off_c, 0, 49, 64
1, 45863, Note_on_c, 0, 44, 61
1, 45942, Note_off_c, 0, 44, 64
1, 45958, Note_on_c, 0, 37, 71
1, 45997, Control_c, 0, 64, 0
1, 46064, Note_on_c, 0, 44, 68
1, 46090, Note_off_c, 0, 37, 64
1, 46117, Control_c, 0, 64, 127
1, 46162, Note_on_c, 0, 49, 62
1, 46173, Note_off_c, 0, 44, 64
1, 46229, Note_off_c, 0, 65, 64
1, 46229, Note_on_c, 0, 52, 76
1, 46242, Note_off_c, 0, 49, 64
1, 46264, Note_off_c, 0, 52, 64
1, 46301, Note_on_c, 0, 56, 54
1, 46371, Note_on_c, 0, 61, 68
1, 46393, Note_off_c, 0, 56, 64
1, 46451, Note_on_c, 0, 64, 78
1, 46466, Note_off_c, 0, 61, 64
1, 46521, Note_on_c, 0, 68, 69
1, 46537, Note_off_c, 0, 64, 64
1, 46602, Note_on_c, 0, 64, 64
1, 46677, Note_off_c, 0, 68, 64
1, 46697, Note_on_c, 0, 61, 61
1, 46750, Note_on_c, 0, 56, 61
1, 46799, Note_on_c, 0, 52, 73
1, 46799, Note_off_c, 0, 64, 64
1, 46814, Note_off_c, 0, 61, 64
1, 46856, Note_on_c, 0, 49, 47
1, 46867, Note_off_c, 0, 56, 64
1, 46867, Note_off_c, 0, 52, 64
1, 46922, Note_on_c, 0, 44, 72
1, 46947, Note_off_c, 0, 49, 64
1, 46955, Note_off_c, 0, 44, 64
1, 47050, Note_on_c, 0, 35, 94
1, 47089, Control_c, 0, 64, 0
1, 47201, Note_off_c, 0, 35, 64
1, 47206, Note_on_c, 0, 44, 61
1, 47220, Control_c, 0, 64, 127
1, 47287, Note_off_c, 0, 44, 64
1, 47292, Note_on_c, 0, 50, 63
1, 47346, Note_off_c, 0, 50, 64
1, 47365, Note_on_c, 0, 52, 88
1, 47393, Note_off_c, 0, 52, 64
1, 47441, Note_on_c, 0, 56, 60
1, 47516, Note_on_c, 0, 62, 74
1, 47527, Note_off_c, 0, 56, 64
1, 47604, Note_on_c, 0, 64, 78
1, 47669, Note_off_c, 0, 62, 64
1, 47686, Note_on_c, 0, 68, 67
1, 47757, Note_off_c, 0, 64, 64
1, 47780, Note_off_c, 0, 68, 64
1, 47802, Note_on_c, 0, 78, 90
1, 47850, Note_off_c, 0, 78, 64
1, 47897, Note_on_c, 0, 68, 62
1, 48008, Note_on_c, 0, 90, 86
1, 48044, Note_off_c, 0, 90, 64
1, 48120, Note_on_c, 0, 64, 62
1, 48131, Note_off_c, 0, 68, 64
1, 48203, Note_on_c, 0, 62, 21
1, 48217, Note_on_c, 0, 56, 64
1, 48251, Note_off_c, 0, 56, 64
1, 48267, Note_off_c, 0, 62, 64
1, 48267, Note_off_c, 0, 64, 64
1, 48298, Note_on_c, 0, 52, 69
1, 48349, Note_off_c, 0, 52, 64
1, 48371, Note_on_c, 0, 50, 63
1, 48441, Note_on_c, 0, 44, 71
1, 48444, Note_off_c, 0, 50, 64
1, 48476, Note_off_c, 0, 44, 64
1, 48585, Note_on_c, 0, 76, 86
1, 48610, Control_c, 0, 64, 0
1, 48615, Note_on_c, 0, 32, 81
1, 48699, Note_off_c, 0, 32, 64
1, 48730, Control_c, 0, 64, 127
1, 48831, Note_on_c, 0, 88, 94
1, 48855, Note_off_c, 0, 76, 64
1, 48855, Note_off_c, 0, 88, 64
1, 48894, Note_on_c, 0, 47, 50
1, 48939, Note_off_c, 0, 47, 64
1, 48978, Note_on_c, 0, 50, 45
1, 49040, Note_off_c, 0, 50, 64
1, 49040, Note_on_c, 0, 52, 78
1, 49069, Note_off_c, 0, 52, 64
1, 49086, Note_on_c, 0, 59, 63
1, 49140, Note_off_c, 0, 59, 64
1, 49178, Note_on_c, 0, 62, 47
1, 49249, Note_on_c, 0, 64, 59
1, 49296, Note_off_c, 0, 62, 64
1, 49335, Note_on_c, 0, 71, 87
1, 49346, Note_off_c, 0, 64, 64
1, 49416, Note_on_c, 0, 64, 57
1, 49424, Note_off_c, 0, 71, 64
1, 49516, Note_on_c, 0, 83, 105
1, 49532, Note_off_c, 0, 64, 64
1, 49540, Note_off_c, 0, 83, 64
1, 49594, Note_on_c, 0, 62, 64
1, 49664, Note_on_c, 0, 59, 63
1, 49686, Note_off_c, 0, 62, 64
1, 49697, Note_off_c, 0, 59, 64
1, 49750, Note_on_c, 0, 52, 45
1, 49794, Note_off_c, 0, 52, 64
1, 49803, Note_on_c, 0, 50, 59
1, 49845, Note_off_c, 0, 50, 64
1, 49867, Note_on_c, 0, 47, 32
1, 49923, Note_off_c, 0, 47, 64
1, 50000, Note_on_c, 0, 73, 86
1, 50028, Note_on_c, 0, 33, 88
1, 50048, Control_c, 0, 64, 0
1, 50142, Note_off_c, 0, 33, 64
1, 50168, Control_c, 0, 64, 127
1, 50203, Note_on_c, 0, 85, 88
1, 50228, Note_off_c, 0, 85, 64
1, 50267, Note_off_c, 0, 73, 64
1, 50282, Note_on_c, 0, 49, 51
1, 50332, Note_off_c, 0, 49, 64
1, 50352, Note_on_c, 0, 52, 55
1, 50398, Note_off_c, 0, 52, 64
1, 50404, Note_on_c, 0, 57, 51
1, 50441, Note_on_c, 0, 61, 61
1, 50444, Note_off_c, 0, 57, 64
1, 50519, Note_off_c, 0, 61, 64
1, 50519, Note_on_c, 0, 64, 65
1, 50608, Note_on_c, 0, 69, 58
1, 50636, Note_off_c, 0, 64, 64
1, 50675, Note_on_c, 0, 76, 79
1, 50692, Note_off_c, 0, 69, 64
1, 50781, Note_off_c, 0, 76, 64
1, 50792, Note_on_c, 0, 69, 39
1, 50842, Note_off_c, 0, 69, 64
1, 50850, Note_on_c, 0, 88, 84
1, 50877, Note_off_c, 0, 88, 64
1, 50942, Note_on_c, 0, 64, 54
1, 51015, Note_off_c, 0, 64, 64
1, 51015, Note_on_c, 0, 61, 73
1, 51045, Note_off_c, 0, 61, 64
1, 51195, Note_on_c, 0, 52, 54
1, 51246, Note_on_c, 0, 49, 72
1, 51267, Note_off_c, 0, 52, 64
1, 51277, Note_off_c, 0, 49, 64
1, 51337, Note_on_c, 0, 83, 113
1, 51379, Control_c, 0, 64, 0
1, 51387, Note_on_c, 0, 37, 66
1, 51476, Note_off_c, 0, 37, 64
1, 51487, Control_c, 0, 64, 127
1, 51554, Note_on_c, 0, 95, 100
1, 51577, Note_off_c, 0, 95, 64
1, 51607, Note_off_c, 0, 83, 64
1, 51610, Note_on_c, 0, 49, 48
1, 51722, Note_on_c, 0, 53, 81
1, 51780, Note_off_c, 0, 49, 64
1, 51811, Note_on_c, 0, 57, 54
1, 51831, Note_off_c, 0, 53, 64
1, 51853, Note_off_c, 0, 57, 64
1, 51892, Note_on_c, 0, 61, 70
1, 51978, Note_on_c, 0, 65, 65
1, 51995, Note_off_c, 0, 61, 64
1, 52073, Note_on_c, 0, 69, 60
1, 52139, Note_on_c, 0, 81, 84
1, 52145, Note_off_c, 0, 65, 64
1, 52145, Note_off_c, 0, 69, 64
1, 52213, Note_off_c, 0, 81, 64
1, 52256, Note_on_c, 0, 69, 54
1, 52334, Note_on_c, 0, 93, 79
1, 52362, Note_off_c, 0, 93, 64
1, 52402, Note_off_c, 0, 69, 64
1, 52444, Note_on_c, 0, 65, 33
1, 52546, Note_on_c, 0, 61, 67
1, 52561, Note_off_c, 0, 65, 64
1, 52579, Note_off_c, 0, 61, 64
1, 52738, Note_on_c, 0, 57, 54
1, 52806, Note_off_c, 0, 57, 64
1, 52866, Note_on_c, 0, 53, 62
1, 52906, Note_off_c, 0, 53, 64
1, 52917, Note_on_c, 0, 49, 58
1, 52953, Note_off_c, 0, 49, 64
1, 52993, Note_on_c, 0, 80, 90
1, 53034, Note_on_c, 0, 38, 76
1, 53129, Control_c, 0, 64, 0
1, 53212, Note_on_c, 0, 45, 69
1, 53277, Note_off_c, 0, 38, 64
1, 53307, Control_c, 0, 64, 127
1, 53318, Note_on_c, 0, 92, 88
1, 53352, Note_on_c, 0, 47, 58
1, 53365, Note_off_c, 0, 45, 64
1, 53424, Note_off_c, 0, 47, 64
1, 53460, Note_on_c, 0, 54, 73
1, 53496, Note_off_c, 0, 54, 64
1, 53505, Note_off_c, 0, 80, 64
1, 53525, Note_off_c, 0, 92, 64
1, 53593, Note_on_c, 0, 78, 85
1, 53596, Note_on_c, 0, 57, 62
1, 53680, Note_off_c, 0, 57, 64
1, 53716, Note_on_c, 0, 59, 57
1, 53761, Note_off_c, 0, 59, 64
1, 53847, Note_on_c, 0, 90, 91
1, 53864, Note_on_c, 0, 66, 47
1, 53909, Note_off_c, 0, 66, 64
1, 53920, Note_off_c, 0, 78, 64
1, 53926, Note_off_c, 0, 90, 64
1, 53989, Note_on_c, 0, 59, 43
1, 54048, Note_off_c, 0, 59, 64
1, 54073, Note_on_c, 0, 71, 98
1, 54082, Note_on_c, 0, 57, 37
1, 54129, Note_off_c, 0, 57, 64
1, 54207, Note_on_c, 0, 54, 69
1, 54265, Note_off_c, 0, 54, 64
1, 54291, Note_off_c, 0, 71, 64
1, 54299, Note_on_c, 0, 83, 114
1, 54313, Note_on_c, 0, 47, 48
1, 54376, Note_off_c, 0, 83, 64
1, 54394, Note_on_c, 0, 45, 48
1, 54399, Note_off_c, 0, 47, 64
1, 54494, Note_off_c, 0, 45, 64
1, 54508, Note_on_c, 0, 73, 90
1, 54521, Note_on_c, 0, 40, 71
1, 54589, Control_c, 0, 64, 0
1, 54664, Note_on_c, 0, 47, 52
1, 54677, Note_on_c, 0, 85, 92
1, 54747, Control_c, 0, 64, 127
1, 54756, Note_off_c, 0, 40, 64
1, 54759, Note_off_c, 0, 73, 64
1, 54772, Note_off_c, 0, 47, 64
1, 54806, Note_on_c, 0, 50, 60
1, 54811, Note_on_c, 0, 74, 90
1, 54845, Note_off_c, 0, 85, 64
1, 54889, Note_off_c, 0, 50, 64
1, 54933, Note_off_c, 0, 74, 64
1, 54948, Note_on_c, 0, 56, 56
1, 54948, Note_on_c, 0, 86, 89
1, 55078, Note_off_c, 0, 86, 64
1, 55093, Note_on_c, 0, 78, 83
1, 55118, Note_on_c, 0, 59, 36
1, 55285, Note_on_c, 0, 90, 89
1, 55315, Note_on_c, 0, 62, 41
1, 55404, Note_off_c, 0, 90, 64
1, 55449, Note_off_c, 0, 78, 64
1, 55600, Note_on_c, 0, 66, 76
1, 55606, Note_off_c, 0, 62, 64
1, 55616, Note_off_c, 0, 59, 64
1, 55625, Note_off_c, 0, 56, 64
1, 56065, Control_c, 0, 64, 0
1, 56232, Control_c, 0, 64, 127
1, 56435, Note_off_c, 0, 66, 64
1, 56563, Note_on_c, 0, 78, 57
1, 56582, Note_on_c, 0, 66, 28
1, 56808, Note_off_c, 0, 66, 64
1, 56865, Note_on_c, 0, 68, 56
1, 56873, Note_off_c, 0, 78, 64
1, 56898, Note_on_c, 0, 64, 27
1, 57067, Note_on_c, 0, 80, 69
1, 57073, Note_off_c, 0, 68, 64
1, 57092, Note_off_c, 0, 64, 64
1, 57103, Note_on_c, 0, 62, 21
1, 57202, Note_off_c, 0, 62, 64
1, 57252, Note_on_c, 0, 73, 50
1, 57259, Note_off_c, 0, 80, 64
1, 57263, Note_on_c, 0, 56, 23
1, 57472, Note_off_c, 0, 56, 64
1, 57505, Note_on_c, 0, 85, 50
1, 57553, Note_on_c, 0, 52, 31
1, 57645, Note_off_c, 0, 52, 64
1, 57650, Note_off_c, 0, 85, 64
1, 57692, Note_off_c, 0, 73, 64
1, 57917, Note_on_c, 0, 83, 78
1, 57926, Note_on_c, 0, 71, 26
1, 58160, Note_on_c, 0, 45, 27
1, 58234, Control_c, 0, 64, 0
1, 58346, Note_on_c, 0, 52, 30
1, 58390, Control_c, 0, 64, 127
1, 58404, Note_off_c, 0, 45, 64
1, 58419, Note_off_c, 0, 52, 64
1, 58485, Note_on_c, 0, 57, 32
1, 58541, Note_off_c, 0, 57, 64
1, 58617, Note_on_c, 0, 61, 34
1, 58661, Note_off_c, 0, 83, 64
1, 58686, Note_off_c, 0, 61, 64
1, 58694, Note_off_c, 0, 71, 64
1, 58775, Note_on_c, 0, 64, 20
1, 58851, Note_off_c, 0, 64, 64
1, 58918, Note_on_c, 0, 73, 45
1, 58926, Note_on_c, 0, 69, 35
1, 58932, Note_on_c, 0, 81, 52
1, 58971, Note_off_c, 0, 73, 64
1, 58978, Note_off_c, 0, 69, 64
1, 59102, Note_on_c, 0, 69, 39
1, 59162, Note_off_c, 0, 69, 64
1, 59235, Note_on_c, 0, 64, 52
1, 59282, Note_off_c, 0, 64, 64
1, 59326, Note_on_c, 0, 61, 58
1, 59363, Note_off_c, 0, 61, 64
1, 59446, Note_on_c, 0, 57, 40
1, 59497, Note_off_c, 0, 57, 64
1, 59522, Note_off_c, 0, 81, 64
1, 59536, Note_on_c, 0, 52, 53
1, 59581, Note_off_c, 0, 52, 64
1, 59624, Note_on_c, 0, 45, 50
1, 59737, Note_off_c, 0, 45, 64
1, 59744, Note_on_c, 0, 52, 55
1, 59779, Note_off_c, 0, 52, 64
1, 59833, Note_on_c, 0, 57, 39
1, 59879, Note_off_c, 0, 57, 64
1, 59923, Note_on_c, 0, 61, 54
1, 60013, Note_off_c, 0, 61, 64
1, 60045, Note_on_c, 0, 64, 45
1, 60085, Note_off_c, 0, 64, 64
1, 60148, Note_on_c, 0, 69, 31
1, 60202, Note_off_c, 0, 69, 64
1, 60251, Note_on_c, 0, 73, 52
1, 60251, Note_on_c, 0, 52, 97
1, 60297, Note_off_c, 0, 73, 64
1, 60396, Note_on_c, 0, 69, 24
1, 60428, Note_off_c, 0, 52, 64
1, 60460, Note_off_c, 0, 69, 64
1, 60489, Note_on_c, 0, 64, 34
1, 60533, Note_off_c, 0, 64, 64
1, 60552, Note_on_c, 0, 61, 52
1, 60592, Note_off_c, 0, 61, 64
1, 60662, Note_on_c, 0, 57, 22
1, 60722, Note_off_c, 0, 57, 64
1, 60744, Note_on_c, 0, 52, 61
1, 60781, Note_off_c, 0, 52, 64
1, 60871, Note_on_c, 0, 54, 101
1, 60895, Control_c, 0, 64, 0
1, 60968, Note_on_c, 0, 45, 49
1, 61023, Note_off_c, 0, 54, 64
1, 61023, Control_c, 0, 64, 127
1, 61046, Note_off_c, 0, 45, 64
1, 61074, Note_on_c, 0, 54, 67
1, 61124, Note_off_c, 0, 54, 64
1, 61159, Note_on_c, 0, 57, 32
1, 61215, Note_off_c, 0, 57, 64
1, 61262, Note_on_c, 0, 62, 54
1, 61299, Note_off_c, 0, 62, 64
1, 61344, Note_on_c, 0, 66, 44
1, 61385, Note_off_c, 0, 66, 64
1, 61466, Note_on_c, 0, 73, 49
1, 61478, Note_on_c, 0, 57, 95
1, 61519, Note_off_c, 0, 73, 64
1, 61581, Note_on_c, 0, 69, 30
1, 61622, Note_off_c, 0, 57, 64
1, 61637, Note_off_c, 0, 69, 64
1, 61661, Note_on_c, 0, 66, 40
1, 61734, Note_off_c, 0, 66, 64
1, 61751, Note_on_c, 0, 62, 34
1, 61804, Note_off_c, 0, 62, 64
1, 61848, Note_on_c, 0, 57, 50
1, 61893, Note_off_c, 0, 57, 64
1, 61935, Note_on_c, 0, 54, 56
1, 61978, Note_off_c, 0, 54, 64
1, 62021, Note_on_c, 0, 59, 100
1, 62070, Control_c, 0, 64, 0
1, 62107, Note_on_c, 0, 45, 46
1, 62155, Note_off_c, 0, 45, 64
1, 62196, Note_on_c, 0, 53, 77
1, 62201, Control_c, 0, 64, 127
1, 62226, Note_off_c, 0, 59, 64
1, 62238, Note_off_c, 0, 53, 64
1, 62271, Note_on_c, 0, 56, 33
1, 62327, Note_off_c, 0, 56, 64
1, 62396, Note_on_c, 0, 62, 44
1, 62439, Note_off_c, 0, 62, 64
1, 62460, Note_on_c, 0, 65, 47
1, 62527, Note_off_c, 0, 65, 64
1, 62566, Note_on_c, 0, 73, 52
1, 62584, Note_on_c, 0, 61, 101
1, 62630, Note_off_c, 0, 73, 64
1, 62636, Note_off_c, 0, 61, 64
1, 62678, Note_on_c, 0, 68, 38
1, 62762, Note_off_c, 0, 68, 64
1, 62787, Note_on_c, 0, 65, 24
1, 62850, Note_on_c, 0, 62, 57
1, 62857, Note_off_c, 0, 65, 64
1, 62885, Note_off_c, 0, 62, 64
1, 62979, Note_on_c, 0, 56, 54
1, 63023, Note_off_c, 0, 56, 64
1, 63074, Note_on_c, 0, 53, 63
1, 63112, Note_off_c, 0, 53, 64
1, 63129, Note_on_c, 0, 61, 70
1, 63205, Note_on_c, 0, 64, 92
1, 63226, Note_off_c, 0, 61, 64
1, 63255, Control_c, 0, 64, 0
1, 63305, Note_on_c, 0, 45, 48
1, 63439, Note_on_c, 0, 52, 62
1, 63460, Note_off_c, 0, 45, 64
1, 63460, Control_c, 0, 64, 127
1, 63475, Note_off_c, 0, 52, 64
1, 63517, Note_on_c, 0, 57, 47
1, 63558, Note_off_c, 0, 64, 64
1, 63567, Note_off_c, 0, 57, 64
1, 63630, Note_on_c, 0, 61, 47
1, 63692, Note_off_c, 0, 61, 64
1, 63709, Note_on_c, 0, 64, 38
1, 63751, Note_off_c, 0, 64, 64
1, 63781, Note_on_c, 0, 73, 48
1, 63846, Note_off_c, 0, 73, 64
1, 63871, Note_on_c, 0, 69, 36
1, 63924, Note_off_c, 0, 69, 64
1, 63943, Note_on_c, 0, 64, 47
1, 63982, Note_off_c, 0, 64, 64
1, 64016, Note_on_c, 0, 61, 62
1, 64115, Note_off_c, 0, 61, 64
1, 64115, Note_on_c, 0, 57, 30
1, 64187, Note_on_c, 0, 52, 43
1, 64204, Note_off_c, 0, 57, 64
1, 64232, Note_off_c, 0, 52, 64
1, 64245, Note_on_c, 0, 45, 38
1, 64307, Note_off_c, 0, 45, 64
1, 64321, Note_on_c, 0, 52, 38
1, 64431, Note_off_c, 0, 52, 64
1, 64431, Note_on_c, 0, 57, 14
1, 64480, Note_on_c, 0, 61, 44
1, 64483, Note_off_c, 0, 57, 64
1, 64553, Note_off_c, 0, 61, 64
1, 64578, Note_on_c, 0, 64, 37
1, 64625, Note_off_c, 0, 64, 64
1, 64640, Note_on_c, 0, 69, 36
1, 64692, Note_on_c, 0, 73, 44
1, 64723, Note_off_c, 0, 69, 64
1, 64737, Note_off_c, 0, 73, 64
1, 64768, Note_on_c, 0, 76, 79
1, 64856, Note_on_c, 0, 73, 42
1, 64856, Note_off_c, 0, 76, 64
1, 64903, Note_off_c, 0, 73, 64
1, 64937, Note_on_c, 0, 69, 37
1, 65006, Note_on_c, 0, 64, 46
1, 65054, Note_on_c, 0, 61, 34
1, 65054, Note_off_c, 0, 64, 64
1, 65074, Note_off_c, 0, 69, 64
1, 65104, Note_off_c, 0, 61, 64
1, 65123, Note_on_c, 0, 57, 33
1, 65197, Note_off_c, 0, 57, 64
1, 65222, Note_on_c, 0, 52, 57
1, 65264, Note_off_c, 0, 52, 64
1, 65313, Note_on_c, 0, 45, 51
1, 65317, Note_on_c, 0, 78, 92
1, 65328, Control_c, 0, 64, 0
1, 65422, Note_on_c, 0, 54, 65
1, 65452, Note_off_c, 0, 45, 64
1, 65459, Control_c, 0, 64, 127
1, 65463, Note_off_c, 0, 78, 64
1, 65533, Note_on_c, 0, 57, 44
1, 65562, Note_off_c, 0, 54, 64
1, 65573, Note_off_c, 0, 57, 64
1, 65623, Note_on_c, 0, 62, 65
1, 65670, Note_on_c, 0, 66, 38
1, 65731, Note_off_c, 0, 62, 64
1, 65737, Note_on_c, 0, 69, 49
1, 65792, Note_on_c, 0, 73, 58
1, 65803, Note_off_c, 0, 66, 64
1, 65843, Note_off_c, 0, 73, 64
1, 65849, Note_off_c, 0, 69, 64
1, 65867, Note_on_c, 0, 81, 96
1, 65921, Note_off_c, 0, 81, 64
1, 65949, Note_on_c, 0, 73, 62
1, 66021, Note_on_c, 0, 69, 52
1, 66046, Note_off_c, 0, 73, 64
1, 66065, Note_on_c, 0, 66, 55
1, 66135, Note_off_c, 0, 69, 64
1, 66135, Note_on_c, 0, 62, 46
1, 66179, Note_off_c, 0, 62, 64
1, 66188, Note_on_c, 0, 57, 46
1, 66194, Note_off_c, 0, 66, 64
1, 66252, Note_on_c, 0, 54, 71
1, 66261, Note_off_c, 0, 57, 64
1, 66313, Note_off_c, 0, 54, 64
1, 66335, Note_on_c, 0, 45, 62
1, 66372, Control_c, 0, 64, 0
1, 66381, Note_on_c, 0, 83, 118
1, 66425, Note_off_c, 0, 45, 64
1, 66466, Note_on_c, 0, 53, 75
1, 66480, Control_c, 0, 64, 127
1, 66494, Note_off_c, 0, 83, 64
1, 66551, Note_on_c, 0, 56, 55
1, 66619, Note_off_c, 0, 53, 64
1, 66625, Note_on_c, 0, 59, 57
1, 66659, Note_off_c, 0, 56, 64
1, 66662, Note_off_c, 0, 59, 64
1, 66689, Note_on_c, 0, 62, 66
1, 66750, Note_on_c, 0, 65, 62
1, 66795, Note_on_c, 0, 68, 59
1, 66867, Note_on_c, 0, 71, 79
1, 66910, Note_off_c, 0, 65, 64
1, 66929, Note_off_c, 0, 68, 64
1, 66945, Note_on_c, 0, 85, 98
1, 66954, Note_off_c, 0, 62, 64
1, 66954, Note_off_c, 0, 71, 64
1, 67016, Note_off_c, 0, 85, 64
1, 67072, Note_on_c, 0, 71, 76
1, 67133, Note_on_c, 0, 68, 67
1, 67174, Note_off_c, 0, 71, 64
1, 67204, Note_on_c, 0, 65, 66
1, 67266, Note_on_c, 0, 62, 66
1, 67272, Note_off_c, 0, 68, 64
1, 67289, Note_on_c, 0, 59, 62
1, 67299, Note_off_c, 0, 62, 64
1, 67302, Note_off_c, 0, 65, 64
1, 67355, Note_on_c, 0, 56, 58
1, 67374, Note_off_c, 0, 59, 64
1, 67427, Note_on_c, 0, 53, 94
1, 67475, Note_on_c, 0, 85, 90
1, 67480, Note_off_c, 0, 56, 64
1, 67501, Note_off_c, 0, 53, 64
1, 67570, Note_on_c, 0, 45, 78
1, 67642, Control_c, 0, 64, 0
1, 67656, Note_on_c, 0, 88, 97
1, 67706, Note_off_c, 0, 85, 64
1, 67779, Note_on_c, 0, 52, 81
1, 67785, Note_off_c, 0, 45, 64
1, 67798, Control_c, 0, 64, 127
1, 67823, Note_off_c, 0, 88, 64
1, 67859, Note_off_c, 0, 52, 64
1, 67879, Note_on_c, 0, 57, 57
1, 67960, Note_on_c, 0, 61, 71
1, 67968, Note_off_c, 0, 57, 64
1, 67994, Note_off_c, 0, 61, 64
1, 68024, Note_on_c, 0, 64, 65
1, 68077, Note_on_c, 0, 69, 63
1, 68090, Note_off_c, 0, 64, 64
1, 68129, Note_on_c, 0, 73, 61
1, 68147, Note_off_c, 0, 69, 64
1, 68188, Note_on_c, 0, 76, 80
1, 68208, Note_off_c, 0, 73, 64
1, 68253, Note_on_c, 0, 73, 67
1, 68313, Note_on_c, 0, 69, 67
1, 68330, Note_off_c, 0, 76, 64
1, 68375, Note_on_c, 0, 61, 68
1, 68381, Note_on_c, 0, 64, 71
1, 68430, Note_off_c, 0, 61, 64
1, 68439, Note_off_c, 0, 69, 64
1, 68448, Note_on_c, 0, 57, 67
1, 68494, Note_off_c, 0, 57, 64
1, 68525, Note_on_c, 0, 52, 81
1, 68601, Note_off_c, 0, 52, 64
1, 68612, Note_on_c, 0, 45, 72
1, 68676, Note_off_c, 0, 73, 64
1, 68689, Note_on_c, 0, 52, 76
1, 68695, Note_off_c, 0, 45, 64
1, 68731, Note_off_c, 0, 64, 64
1, 68760, Note_off_c, 0, 52, 64
1, 68765, Note_on_c, 0, 56, 76
1, 68849, Note_on_c, 0, 61, 75
1, 68867, Note_off_c, 0, 56, 64
1, 68884, Note_off_c, 0, 61, 64
1, 68901, Note_on_c, 0, 64, 83
1, 68954, Note_on_c, 0, 68, 72
1, 69015, Note_off_c, 0, 64, 64
1, 69015, Note_on_c, 0, 73, 73
1, 69066, Note_off_c, 0, 68, 64
1, 69083, Note_on_c, 0, 76, 86
1, 69121, Note_off_c, 0, 73, 64
1, 69158, Note_on_c, 0, 73, 88
1, 69211, Note_on_c, 0, 68, 73
1, 69250, Note_off_c, 0, 76, 64
1, 69271, Note_on_c, 0, 64, 81
1, 69285, Note_on_c, 0, 61, 79
1, 69331, Note_off_c, 0, 68, 64
1, 69347, Note_on_c, 0, 56, 73
1, 69347, Note_off_c, 0, 64, 64
1, 69375, Note_off_c, 0, 61, 64
1, 69392, Note_off_c, 0, 73, 64
1, 69411, Note_on_c, 0, 52, 74
1, 69436, Note_off_c, 0, 56, 64
1, 69464, Note_on_c, 0, 46, 81
1, 69497, Note_off_c, 0, 52, 64
1, 69523, Control_c, 0, 64, 0
1, 69554, Note_on_c, 0, 52, 88
1, 69626, Note_off_c, 0, 46, 64
1, 69639, Control_c, 0, 64, 127
1, 69642, Note_on_c, 0, 55, 81
1, 69687, Note_off_c, 0, 52, 64
1, 69728, Note_on_c, 0, 88, 107
1, 69731, Note_on_c, 0, 76, 99
1, 69743, Note_on_c, 0, 61, 82
1, 69746, Note_off_c, 0, 55, 64
1, 69788, Note_off_c, 0, 61, 64
1, 69885, Note_on_c, 0, 64, 74
1, 69985, Note_on_c, 0, 67, 77
1, 70002, Note_off_c, 0, 76, 64
1, 70005, Note_off_c, 0, 88, 64
1, 70005, Note_off_c, 0, 64, 64
1, 70083, Note_off_c, 0, 67, 64
1, 70105, Note_on_c, 0, 73, 82
1, 70105, Note_on_c, 0, 88, 106
1, 70110, Note_on_c, 0, 76, 100
1, 70191, Note_off_c, 0, 73, 64
1, 70210, Note_on_c, 0, 67, 65
1, 70308, Note_on_c, 0, 64, 75
1, 70311, Note_off_c, 0, 67, 64
1, 70339, Note_off_c, 0, 64, 64
1, 70417, Note_on_c, 0, 61, 85
1, 70431, Note_off_c, 0, 76, 64
1, 70447, Note_off_c, 0, 88, 64
1, 70497, Note_off_c, 0, 61, 64
1, 70515, Note_on_c, 0, 55, 78
1, 70578, Note_on_c, 0, 88, 105
1, 70584, Note_on_c, 0, 76, 98
1, 70584, Note_on_c, 0, 52, 78
1, 70598, Note_off_c, 0, 55, 64
1, 70601, Note_off_c, 0, 88, 64
1, 70609, Note_off_c, 0, 76, 64
1, 70654, Note_on_c, 0, 76, 81
1, 70654, Note_on_c, 0, 88, 89
1, 70659, Note_off_c, 0, 52, 64
1, 70662, Note_on_c, 0, 46, 79
1, 70675, Control_c, 0, 64, 0
1, 70770, Note_on_c, 0, 52, 79
1, 70798, Note_off_c, 0, 88, 64
1, 70798, Note_off_c, 0, 46, 64
1, 70802, Note_off_c, 0, 76, 64
1, 70806, Control_c, 0, 64, 127
1, 70852, Note_on_c, 0, 88, 88
1, 70852, Note_on_c, 0, 76, 90
1, 70860, Note_on_c, 0, 55, 76
1, 70884, Note_off_c, 0, 52, 64
1, 70909, Note_off_c, 0, 88, 64
1, 70932, Note_off_c, 0, 76, 64
1, 70943, Note_off_c, 0, 55, 64
1, 70949, Note_on_c, 0, 60, 67
1, 70990, Note_off_c, 0, 60, 64
1, 71018, Note_on_c, 0, 88, 106
1, 71022, Note_on_c, 0, 76, 95
1, 71050, Note_off_c, 0, 76, 64
1, 71061, Note_off_c, 0, 88, 64
1, 71061, Note_on_c, 0, 64, 78
1, 71155, Note_on_c, 0, 67, 67
1, 71178, Note_off_c, 0, 64, 64
1, 71230, Note_on_c, 0, 88, 97
1, 71230, Note_on_c, 0, 76, 83
1, 71253, Note_off_c, 0, 88, 64
1, 71258, Note_off_c, 0, 76, 64
1, 71270, Note_off_c, 0, 67, 64
1, 71277, Note_on_c, 0, 72, 68
1, 71344, Note_on_c, 0, 92, 101
1, 71344, Note_on_c, 0, 80, 100
1, 71352, Note_off_c, 0, 72, 64
1, 71391, Note_on_c, 0, 67, 70
1, 71417, Note_off_c, 0, 92, 64
1, 71469, Note_off_c, 0, 80, 64
1, 71484, Note_on_c, 0, 64, 73
1, 71487, Note_off_c, 0, 67, 64
1, 71517, Note_off_c, 0, 64, 64
1, 71592, Note_on_c, 0, 60, 74
1, 71626, Note_off_c, 0, 60, 64
1, 71679, Note_on_c, 0, 55, 76
1, 71735, Note_off_c, 0, 55, 64
1, 71768, Note_on_c, 0, 52, 79
1, 71768, Note_on_c, 0, 88, 95
1, 71777, Note_on_c, 0, 76, 82
1, 71796, Note_off_c, 0, 52, 64
1, 71796, Note_off_c, 0, 88, 64
1, 71807, Note_off_c, 0, 76, 64
1, 71837, Control_c, 0, 64, 0
1, 71851, Note_on_c, 0, 88, 59
1, 71854, Note_on_c, 0, 76, 85
1, 71880, Note_on_c, 0, 44, 93
1, 71954, Note_off_c, 0, 44, 64
1, 71968, Control_c, 0, 64, 127
1, 72035, Note_on_c, 0, 53, 94
1, 72124, Note_off_c, 0, 76, 64
1, 72132, Note_off_c, 0, 53, 64
1, 72132, Note_on_c, 0, 56, 67
1, 72144, Note_off_c, 0, 88, 64
1, 72225, Note_off_c, 0, 56, 64
1, 72225, Note_on_c, 0, 89, 105
1, 72228, Note_on_c, 0, 77, 92
1, 72238, Note_on_c, 0, 60, 57
1, 72255, Note_off_c, 0, 77, 64
1, 72278, Note_off_c, 0, 60, 64
1, 72278, Note_off_c, 0, 89, 64
1, 72356, Note_on_c, 0, 65, 50
1, 72481, Note_on_c, 0, 68, 62
1, 72494, Note_off_c, 0, 65, 64
1, 72587, Note_off_c, 0, 68, 64
1, 72646, Note_on_c, 0, 72, 70
1, 72651, Note_on_c, 0, 99, 104
1, 72651, Note_on_c, 0, 87, 100
1, 72693, Note_off_c, 0, 72, 64
1, 72759, Note_on_c, 0, 68, 50
1, 72863, Note_on_c, 0, 65, 59
1, 72866, Note_off_c, 0, 68, 64
1, 72898, Note_off_c, 0, 65, 64
1, 72972, Note_on_c, 0, 60, 66
1, 73018, Note_off_c, 0, 60, 64
1, 73050, Note_on_c, 0, 56, 65
1, 73132, Note_on_c, 0, 53, 91
1, 73144, Note_off_c, 0, 56, 64
1, 73169, Note_off_c, 0, 53, 64
1, 73214, Control_c, 0, 64, 0
1, 73222, Note_on_c, 0, 46, 81
1, 73311, Note_on_c, 0, 53, 91
1, 73336, Note_off_c, 0, 46, 64
1, 73347, Control_c, 0, 64, 127
1, 73356, Note_off_c, 0, 99, 64
1, 73362, Note_off_c, 0, 87, 64
1, 73426, Note_on_c, 0, 85, 100
1, 73426, Note_on_c, 0, 97, 97
1, 73426, Note_off_c, 0, 53, 64
1, 73433, Note_on_c, 0, 55, 71
1, 73487, Note_off_c, 0, 55, 64
1, 73517, Note_off_c, 0, 97, 64
1, 73523, Note_on_c, 0, 61, 67
1, 73551, Note_off_c, 0, 85, 64
1, 73562, Note_off_c, 0, 61, 64
1, 73664, Note_on_c, 0, 82, 96
1, 73664, Note_on_c, 0, 94, 93
1, 73667, Note_on_c, 0, 65, 70
1, 73732, Note_off_c, 0, 65, 64
1, 73757, Note_on_c, 0, 68, 39
1, 73765, Note_off_c, 0, 94, 64
1, 73787, Note_off_c, 0, 82, 64
1, 73802, Note_on_c, 0, 67, 31
1, 73810, Note_off_c, 0, 68, 64
1, 73869, Note_off_c, 0, 67, 64
1, 73898, Note_on_c, 0, 73, 78
1, 73898, Note_on_c, 0, 80, 105
1, 73902, Note_on_c, 0, 92, 95
1, 73969, Note_off_c, 0, 73, 64
1, 73999, Note_on_c, 0, 67, 52
1, 74019, Note_off_c, 0, 80, 64
1, 74052, Note_off_c, 0, 92, 64
1, 74102, Note_on_c, 0, 65, 54
1, 74107, Note_off_c, 0, 67, 64
1, 74107, Note_on_c, 0, 91, 98
1, 74114, Note_on_c, 0, 79, 96
1, 74138, Note_off_c, 0, 65, 64
1, 74144, Note_off_c, 0, 91, 64
1, 74166, Note_off_c, 0, 79, 64
1, 74213, Note_on_c, 0, 61, 66
1, 74245, Note_off_c, 0, 61, 64
1, 74303, Note_on_c, 0, 55, 66
1, 74308, Note_on_c, 0, 75, 95
1, 74308, Note_on_c, 0, 87, 88
1, 74356, Note_off_c, 0, 55, 64
1, 74364, Note_on_c, 0, 53, 81
1, 74398, Note_off_c, 0, 53, 64
1, 74429, Note_off_c, 0, 75, 64
1, 74445, Note_off_c, 0, 87, 64
1, 74529, Note_on_c, 0, 73, 100
1, 74529, Note_on_c, 0, 85, 100
1, 74534, Note_on_c, 0, 36, 94
1, 74545, Control_c, 0, 64, 0
1, 74640, Note_on_c, 0, 44, 69
1, 74676, Control_c, 0, 64, 127
1, 74676, Note_off_c, 0, 36, 64
1, 74696, Note_off_c, 0, 73, 64
1, 74696, Note_off_c, 0, 85, 64
1, 74713, Note_on_c, 0, 48, 63
1, 74723, Note_off_c, 0, 44, 64
1, 74749, Note_off_c, 0, 48, 64
1, 74749, Note_on_c, 0, 84, 95
1, 74754, Note_on_c, 0, 72, 93
1, 74776, Note_off_c, 0, 84, 64
1, 74801, Note_off_c, 0, 72, 64
1, 74848, Note_on_c, 0, 53, 89
1, 74890, Note_off_c, 0, 53, 64
1, 74919, Note_on_c, 0, 56, 64
1, 74936, Note_on_c, 0, 80, 91
1, 74936, Note_on_c, 0, 68, 94
1, 75002, Note_on_c, 0, 60, 74
1, 75019, Note_off_c, 0, 56, 64
1, 75030, Note_off_c, 0, 68, 64
1, 75041, Note_off_c, 0, 80, 64
1, 75099, Note_off_c, 0, 60, 64
1, 75099, Note_on_c, 0, 68, 64
1, 75110, Note_on_c, 0, 79, 102
1, 75110, Note_on_c, 0, 67, 97
1, 75185, Note_off_c, 0, 68, 64
1, 75189, Note_off_c, 0, 67, 64
1, 75197, Note_off_c, 0, 79, 64
1, 75202, Note_on_c, 0, 60, 59
1, 75277, Note_on_c, 0, 56, 64
1, 75284, Note_off_c, 0, 60, 64
1, 75284, Note_on_c, 0, 77, 96
1, 75287, Note_on_c, 0, 65, 95
1, 75309, Note_off_c, 0, 77, 64
1, 75313, Note_off_c, 0, 56, 64
1, 75323, Note_off_c, 0, 65, 64
1, 75386, Note_on_c, 0, 53, 96
1, 75445, Note_off_c, 0, 53, 64
1, 75456, Note_on_c, 0, 73, 93
1, 75459, Note_on_c, 0, 61, 99
1, 75484, Note_on_c, 0, 48, 48
1, 75550, Note_on_c, 0, 44, 84
1, 75559, Note_off_c, 0, 48, 64
1, 75587, Note_off_c, 0, 61, 64
1, 75596, Note_off_c, 0, 44, 64
1, 75604, Note_off_c, 0, 73, 64
1, 75720, Control_c, 0, 64, 0
1, 75720, Note_on_c, 0, 73, 91
1, 75724, Note_on_c, 0, 61, 100
1, 75738, Note_on_c, 0, 36, 98
1, 75833, Note_off_c, 0, 36, 64
1, 75876, Control_c, 0, 64, 127
1, 75936, Note_off_c, 0, 61, 64
1, 75963, Note_on_c, 0, 46, 56
1, 76067, Note_on_c, 0, 52, 67
1, 76070, Note_off_c, 0, 46, 64
1, 76117, Note_off_c, 0, 52, 64
1, 76147, Note_on_c, 0, 55, 65
1, 76183, Note_off_c, 0, 55, 64
1, 76238, Note_on_c, 0, 58, 39
1, 76286, Note_off_c, 0, 58, 64
1, 76306, Note_on_c, 0, 64, 71
1, 76367, Note_off_c, 0, 64, 64
1, 76390, Note_on_c, 0, 67, 69
1, 76453, Note_off_c, 0, 67, 64
1, 76464, Note_on_c, 0, 61, 26
1, 76473, Note_on_c, 0, 64, 54
1, 76509, Note_off_c, 0, 64, 64
1, 76525, Note_on_c, 0, 58, 52
1, 76562, Note_off_c, 0, 58, 64
1, 76618, Note_on_c, 0, 55, 66
1, 76699, Note_on_c, 0, 52, 64
1, 76773, Note_on_c, 0, 46, 50
1, 76807, Note_off_c, 0, 55, 64
1, 76847, Note_off_c, 0, 52, 64
1, 77021, Note_off_c, 0, 61, 64
1, 77021, Note_on_c, 0, 72, 89
1, 77024, Note_on_c, 0, 60, 74
1, 77032, Note_off_c, 0, 73, 64
1, 77189, Note_off_c, 0, 46, 64
1, 77195, Note_off_c, 0, 72, 64
1, 77195, Note_off_c, 0, 60, 64
1, 77284, Note_on_c, 0, 71, 98
1, 77294, Note_on_c, 0, 59, 83
1, 77348, Note_off_c, 0, 59, 64
1, 77386, Note_off_c, 0, 71, 64
1, 77454, Note_on_c, 0, 72, 101
1, 77459, Note_on_c, 0, 60, 92
1, 77470, Control_c, 0, 64, 0
1, 77565, Control_c, 0, 64, 127
1, 77568, Note_off_c, 0, 60, 64
1, 77568, Note_off_c, 0, 72, 64
1, 77621, Note_on_c, 0, 71, 101
1, 77626, Note_on_c, 0, 59, 91
1, 77679, Note_off_c, 0, 59, 64
1, 77704, Note_off_c, 0, 71, 64
1, 77766, Note_on_c, 0, 72, 95
1, 77771, Note_on_c, 0, 60, 83
1, 77835, Note_off_c, 0, 72, 64
1, 77835, Note_off_c, 0, 60, 64
1, 77891, Note_on_c, 0, 71, 101
1, 77891, Note_on_c, 0, 59, 89
1, 77929, Note_off_c, 0, 59, 64
1, 77969, Note_off_c, 0, 71, 64
1, 78002, Note_on_c, 0, 72, 91
1, 78010, Note_on_c, 0, 60, 76
1, 78038, Note_off_c, 0, 72, 64
1, 78056, Note_off_c, 0, 60, 64
1, 78117, Note_on_c, 0, 71, 94
1, 78117, Note_on_c, 0, 59, 79
1, 78150, Note_off_c, 0, 59, 64
1, 78172, Note_off_c, 0, 71, 64
1, 78248, Note_on_c, 0, 60, 65
1, 78248, Note_on_c, 0, 72, 74
1, 78281, Note_off_c, 0, 72, 64
1, 78290, Note_off_c, 0, 60, 64
1, 78367, Note_on_c, 0, 75, 95
1, 78370, Note_on_c, 0, 63, 92
1, 78393, Note_off_c, 0, 75, 64
1, 78406, Note_off_c, 0, 63, 64
1, 78470, Note_on_c, 0, 73, 95
1, 78470, Note_on_c, 0, 61, 95
1, 78548, Control_c, 0, 64, 0
1, 78727, Control_c, 0, 64, 127
1, 78744, Note_off_c, 0, 61, 64
1, 78765, Note_off_c, 0, 73, 64
1, 79145, Note_on_c, 0, 72, 100
1, 79149, Note_on_c, 0, 60, 89
1, 79248, Note_off_c, 0, 60, 64
1, 79270, Note_off_c, 0, 72, 64
1, 79333, Note_on_c, 0, 72, 88
1, 79339, Note_on_c, 0, 60, 103
1, 79339, Note_on_c, 0, 29, 103
1, 79343, Note_on_c, 0, 41, 100
1, 79351, Control_c, 0, 64, 0
1, 79376, Note_off_c, 0, 29, 64
1, 79423, Note_off_c, 0, 41, 64
1, 79434, Control_c, 0, 64, 127
1, 79568, Note_off_c, 0, 72, 64
1, 79576, Note_on_c, 0, 41, 88
1, 79620, Note_off_c, 0, 60, 64
1, 79655, Note_off_c, 0, 41, 64
1, 79658, Note_on_c, 0, 48, 79
1, 79785, Note_on_c, 0, 57, 71
1, 79785, Note_on_c, 0, 53, 100
1, 79818, Note_off_c, 0, 57, 64
1, 79866, Note_on_c, 0, 57, 70
1, 79879, Note_off_c, 0, 53, 64
1, 79949, Note_off_c, 0, 57, 64
1, 79953, Note_on_c, 0, 60, 80
1, 80002, Note_off_c, 0, 60, 64
1, 80019, Note_on_c, 0, 69, 61
1, 80031, Note_on_c, 0, 65, 54
1, 80055, Note_off_c, 0, 69, 64
1, 80066, Note_off_c, 0, 65, 64
1, 80099, Note_on_c, 0, 69, 67
1, 80173, Note_on_c, 0, 72, 84
1, 80178, Note_off_c, 0, 69, 64
1, 80223, Note_off_c, 0, 72, 64
1, 80261, Note_on_c, 0, 81, 58
1, 80261, Note_on_c, 0, 77, 48
1, 80293, Note_off_c, 0, 81, 64
1, 80298, Note_off_c, 0, 77, 64
1, 80329, Note_on_c, 0, 81, 97
1, 80393, Note_on_c, 0, 84, 92
1, 80432, Note_off_c, 0, 81, 64
1, 80457, Note_on_c, 0, 89, 73
1, 80471, Note_on_c, 0, 93, 44
1, 80481, Note_off_c, 0, 84, 64
1, 80487, Note_off_c, 0, 48, 64
1, 80487, Note_off_c, 0, 89, 64
1, 80531, Note_on_c, 0, 89, 85
1, 80627, Note_on_c, 0, 84, 78
1, 80648, Note_off_c, 0, 93, 64
1, 80666, Note_off_c, 0, 89, 64
1, 80688, Note_on_c, 0, 81, 70
1, 80696, Note_off_c, 0, 84, 64
1, 80719, Note_off_c, 0, 81, 64
1, 80766, Note_on_c, 0, 77, 80
1, 80772, Note_on_c, 0, 81, 46
1, 80833, Note_off_c, 0, 81, 64
1, 80854, Note_on_c, 0, 72, 60
1, 80860, Note_off_c, 0, 77, 64
1, 80896, Note_off_c, 0, 72, 64
1, 80900, Note_on_c, 0, 69, 69
1, 80939, Note_off_c, 0, 69, 64
1, 80977, Note_on_c, 0, 77, 79
1, 80980, Note_on_c, 0, 81, 83
1, 80991, Note_on_c, 0, 60, 106
1, 80999, Note_on_c, 0, 48, 87
1, 81039, Note_off_c, 0, 48, 64
1, 81058, Note_off_c, 0, 60, 64
1, 81066, Note_off_c, 0, 81, 64
1, 81072, Note_on_c, 0, 72, 61
1, 81092, Note_off_c, 0, 77, 64
1, 81114, Note_off_c, 0, 72, 64
1, 81128, Note_on_c, 0, 69, 64
1, 81162, Note_off_c, 0, 69, 64
1, 81215, Note_on_c, 0, 69, 35
1, 81225, Note_on_c, 0, 65, 69
1, 81300, Note_on_c, 0, 60, 55
1, 81315, Note_off_c, 0, 69, 64
1, 81359, Note_off_c, 0, 60, 64
1, 81364, Note_on_c, 0, 57, 47
1, 81407, Note_off_c, 0, 57, 64
1, 81431, Note_off_c, 0, 65, 64
1, 81484, Control_c, 0, 64, 0
1, 81504, Note_on_c, 0, 62, 108
1, 81504, Note_on_c, 0, 50, 97
1, 81588, Note_off_c, 0, 62, 64
1, 81604, Control_c, 0, 64, 127
1, 81635, Note_off_c, 0, 50, 64
1, 81755, Note_on_c, 0, 59, 76
1, 81790, Note_off_c, 0, 59, 64
1, 81813, Note_on_c, 0, 50, 58
1, 81813, Note_on_c, 0, 47, 57
1, 81819, Note_on_c, 0, 41, 60
1, 81827, Note_on_c, 0, 65, 57
1, 81827, Note_on_c, 0, 62, 66
1, 81850, Note_off_c, 0, 47, 64
1, 81855, Note_off_c, 0, 50, 64
1, 81855, Note_off_c, 0, 41, 64
1, 81864, Note_off_c, 0, 62, 64
1, 81885, Note_on_c, 0, 69, 63
1, 81916, Note_off_c, 0, 65, 64
1, 81919, Note_off_c, 0, 69, 64
1, 82013, Note_on_c, 0, 69, 2
1, 82053, Note_on_c, 0, 65, 106
1, 82056, Note_off_c, 0, 69, 64
1, 82063, Note_on_c, 0, 53, 106
1, 82088, Note_on_c, 0, 71, 47
1, 82100, Note_on_c, 0, 74, 79
1, 82134, Note_off_c, 0, 71, 64
1, 82144, Note_off_c, 0, 53, 64
1, 82156, Note_on_c, 0, 81, 85
1, 82178, Note_off_c, 0, 65, 64
1, 82178, Note_off_c, 0, 74, 64
1, 82178, Note_off_c, 0, 81, 64
1, 82231, Note_on_c, 0, 81, 57
1, 82298, Note_off_c, 0, 81, 64
1, 82323, Note_on_c, 0, 83, 79
1, 82328, Note_on_c, 0, 86, 80
1, 82357, Note_off_c, 0, 83, 64
1, 82387, Note_on_c, 0, 93, 83
1, 82412, Note_off_c, 0, 86, 64
1, 82420, Note_off_c, 0, 93, 64
1, 82492, Control_c, 0, 64, 0
1, 82526, Note_on_c, 0, 67, 106
1, 82532, Note_on_c, 0, 55, 101
1, 82599, Control_c, 0, 64, 127
1, 82612, Note_off_c, 0, 67, 64
1, 82630, Note_off_c, 0, 55, 64
1, 82765, Note_on_c, 0, 58, 68
1, 82799, Note_off_c, 0, 58, 64
1, 82811, Note_on_c, 0, 52, 87
1, 82818, Note_on_c, 0, 41, 68
1, 82824, Note_on_c, 0, 49, 52
1, 82827, Note_on_c, 0, 46, 37
1, 82833, Note_on_c, 0, 61, 52
1, 82844, Note_off_c, 0, 52, 64
1, 82844, Note_on_c, 0, 64, 68
1, 82853, Note_off_c, 0, 41, 64
1, 82861, Note_off_c, 0, 49, 64
1, 82874, Note_off_c, 0, 46, 64
1, 82874, Note_off_c, 0, 61, 64
1, 82902, Note_on_c, 0, 69, 63
1, 82913, Note_off_c, 0, 64, 64
1, 82936, Note_off_c, 0, 69, 64
1, 83014, Note_on_c, 0, 70, 76
1, 83030, Note_on_c, 0, 69, 99
1, 83036, Note_on_c, 0, 57, 97
1, 83062, Note_off_c, 0, 57, 64
1, 83065, Note_off_c, 0, 70, 64
1, 83112, Note_off_c, 0, 69, 64
1, 83112, Note_on_c, 0, 73, 29
1, 83112, Note_on_c, 0, 76, 63
1, 83169, Note_off_c, 0, 73, 64
1, 83176, Note_on_c, 0, 81, 79
1, 83201, Note_off_c, 0, 81, 64
1, 83212, Note_off_c, 0, 76, 64
1, 83262, Note_on_c, 0, 82, 82
1, 83343, Note_on_c, 0, 88, 71
1, 83343, Note_on_c, 0, 85, 55
1, 83343, Note_off_c, 0, 82, 64
1, 83382, Note_off_c, 0, 85, 64
1, 83404, Note_on_c, 0, 93, 94
1, 83442, Note_off_c, 0, 88, 64
1, 83457, Note_off_c, 0, 93, 64
1, 83462, Control_c, 0, 64, 0
1, 83492, Note_on_c, 0, 72, 113
1, 83495, Note_on_c, 0, 60, 105
1, 83569, Control_c, 0, 64, 127
1, 83594, Note_off_c, 0, 72, 64
1, 83623, Note_off_c, 0, 60, 64
1, 83758, Note_on_c, 0, 57, 74
1, 83807, Note_off_c, 0, 57, 64
1, 83830, Note_on_c, 0, 60, 80
1, 83855, Note_on_c, 0, 41, 91
1, 83864, Note_on_c, 0, 33, 69
1, 83869, Note_on_c, 0, 29, 51
1, 83877, Note_on_c, 0, 36, 54
1, 83894, Note_off_c, 0, 41, 64
1, 83899, Note_on_c, 0, 69, 62
1, 83905, Note_off_c, 0, 60, 64
1, 83905, Note_off_c, 0, 33, 64
1, 83913, Note_off_c, 0, 29, 64
1, 83913, Note_off_c, 0, 36, 64
1, 83913, Note_on_c, 0, 65, 43
1, 83931, Note_off_c, 0, 69, 64
1, 83950, Note_on_c, 0, 33, 81
1, 83950, Note_on_c, 0, 29, 100
1, 83955, Note_on_c, 0, 36, 95
1, 83955, Note_on_c, 0, 41, 86
1, 83960, Note_off_c, 0, 65, 64
1, 83969, Note_on_c, 0, 69, 81
1, 84037, Note_off_c, 0, 36, 64
1, 84041, Note_off_c, 0, 29, 64
1, 84044, Note_on_c, 0, 72, 89
1, 84053, Note_off_c, 0, 33, 64
1, 84056, Note_off_c, 0, 69, 64
1, 84059, Note_off_c, 0, 41, 64
1, 84125, Note_off_c, 0, 72, 64
1, 84125, Note_on_c, 0, 81, 71
1, 84130, Note_on_c, 0, 77, 48
1, 84153, Note_off_c, 0, 81, 64
1, 84167, Note_off_c, 0, 77, 64
1, 84189, Note_on_c, 0, 81, 94
1, 84259, Note_on_c, 0, 84, 88
1, 84284, Note_off_c, 0, 81, 64
1, 84309, Note_on_c, 0, 89, 84
1, 84326, Note_on_c, 0, 93, 49
1, 84337, Note_off_c, 0, 89, 64
1, 84337, Note_off_c, 0, 84, 64
1, 84371, Note_off_c, 0, 93, 64
1, 84385, Note_on_c, 0, 89, 78
1, 84395, Note_on_c, 0, 93, 83
1, 84460, Note_on_c, 0, 84, 92
1, 84504, Note_off_c, 0, 93, 64
1, 84513, Note_off_c, 0, 89, 64
1, 84523, Note_on_c, 0, 81, 88
1, 84548, Note_off_c, 0, 84, 64
1, 84548, Note_off_c, 0, 81, 64
1, 84607, Note_on_c, 0, 77, 84
1, 84621, Note_on_c, 0, 81, 19
1, 84667, Note_on_c, 0, 72, 76
1, 84677, Note_off_c, 0, 81, 64
1, 84704, Note_off_c, 0, 77, 64
1, 84727, Note_on_c, 0, 69, 78
1, 84761, Note_off_c, 0, 69, 64
1, 84766, Note_off_c, 0, 72, 64
1, 84799, Note_on_c, 0, 60, 108
1, 84799, Note_on_c, 0, 48, 91
1, 84803, Note_on_c, 0, 81, 85
1, 84808, Note_on_c, 0, 77, 85
1, 84878, Note_on_c, 0, 72, 73
1, 84886, Note_off_c, 0, 81, 64
1, 84902, Note_off_c, 0, 77, 64
1, 84939, Note_on_c, 0, 69, 79
1, 84947, Note_off_c, 0, 72, 64
1, 84961, Note_off_c, 0, 60, 64
1, 84970, Note_off_c, 0, 69, 64
1, 85016, Note_on_c, 0, 69, 55
1, 85028, Note_on_c, 0, 65, 78
1, 85062, Note_off_c, 0, 48, 64
1, 85098, Note_on_c, 0, 60, 73
1, 85122, Note_off_c, 0, 69, 64
1, 85154, Note_on_c, 0, 57, 71
1, 85186, Note_off_c, 0, 60, 64
1, 85186, Note_off_c, 0, 57, 64
1, 85240, Note_off_c, 0, 65, 64
1, 85295, Control_c, 0, 64, 0
1, 85318, Note_on_c, 0, 62, 110
1, 85321, Note_on_c, 0, 50, 102
1, 85415, Control_c, 0, 64, 127
1, 85424, Note_off_c, 0, 62, 64
1, 85456, Note_off_c, 0, 50, 64
1, 85579, Note_on_c, 0, 59, 74
1, 85619, Note_off_c, 0, 59, 64
1, 85629, Note_on_c, 0, 41, 71
1, 85629, Note_on_c, 0, 47, 58
1, 85641, Note_on_c, 0, 50, 34
1, 85652, Note_on_c, 0, 62, 71
1, 85661, Note_off_c, 0, 41, 64
1, 85665, Note_off_c, 0, 47, 64
1, 85665, Note_on_c, 0, 65, 60
1, 85694, Note_off_c, 0, 50, 64
1, 85694, Note_off_c, 0, 62, 64
1, 85715, Note_on_c, 0, 69, 63
1, 85736, Note_off_c, 0, 65, 64
1, 85747, Note_off_c, 0, 69, 64
1, 85813, Note_on_c, 0, 69, 19
1, 85852, Note_on_c, 0, 65, 107
1, 85856, Note_on_c, 0, 53, 119
1, 85882, Note_off_c, 0, 53, 64
1, 85897, Note_off_c, 0, 69, 64
1, 85897, Note_on_c, 0, 71, 65
1, 85919, Note_on_c, 0, 74, 84
1, 85934, Note_off_c, 0, 71, 64
1, 85939, Note_off_c, 0, 65, 64
1, 85986, Note_on_c, 0, 81, 73
1, 85992, Note_off_c, 0, 74, 64
1, 86014, Note_off_c, 0, 81, 64
1, 86053, Note_on_c, 0, 81, 88
1, 86136, Note_on_c, 0, 86, 91
1, 86140, Note_off_c, 0, 81, 64
1, 86148, Note_on_c, 0, 83, 62
1, 86187, Note_off_c, 0, 83, 64
1, 86190, Note_on_c, 0, 93, 101
1, 86209, Note_off_c, 0, 86, 64
1, 86239, Note_off_c, 0, 93, 64
1, 86290, Control_c, 0, 64, 0
1, 86315, Note_on_c, 0, 67, 108
1, 86323, Note_on_c, 0, 55, 107
1, 86385, Control_c, 0, 64, 127
1, 86409, Note_off_c, 0, 67, 64
1, 86420, Note_off_c, 0, 55, 64
1, 86572, Note_on_c, 0, 58, 73
1, 86604, Note_off_c, 0, 58, 64
1, 86608, Note_on_c, 0, 52, 89
1, 86608, Note_on_c, 0, 46, 60
1, 86608, Note_on_c, 0, 41, 85
1, 86616, Note_on_c, 0, 49, 56
1, 86635, Note_off_c, 0, 52, 64
1, 86635, Note_on_c, 0, 61, 66
1, 86638, Note_off_c, 0, 41, 64
1, 86644, Note_off_c, 0, 46, 64
1, 86652, Note_off_c, 0, 49, 64
1, 86660, Note_on_c, 0, 64, 74
1, 86679, Note_off_c, 0, 61, 64
1, 86718, Note_on_c, 0, 69, 69
1, 86738, Note_off_c, 0, 64, 64
1, 86747, Note_off_c, 0, 69, 64
1, 86802, Note_on_c, 0, 69, 33
1, 86813, Note_on_c, 0, 57, 96
1, 86828, Note_on_c, 0, 70, 84
1, 86836, Note_off_c, 0, 57, 64
1, 86875, Note_off_c, 0, 69, 64
1, 86899, Note_off_c, 0, 70, 64
1, 86908, Note_on_c, 0, 73, 59
1, 86922, Note_on_c, 0, 76, 60
1, 86945, Note_off_c, 0, 73, 64
1, 86989, Note_on_c, 0, 81, 81
1, 87006, Note_off_c, 0, 76, 64
1, 87014, Note_off_c, 0, 81, 64
1, 87069, Note_on_c, 0, 82, 85
1, 87139, Note_on_c, 0, 85, 67
1, 87143, Note_on_c, 0, 88, 69
1, 87154, Note_off_c, 0, 82, 64
1, 87176, Note_off_c, 0, 85, 64
1, 87211, Note_on_c, 0, 93, 92
1, 87245, Note_off_c, 0, 88, 64
1, 87245, Note_off_c, 0, 93, 64
1, 87338, Note_on_c, 0, 72, 108
1, 87342, Note_on_c, 0, 60, 102
1, 87345, Control_c, 0, 64, 0
1, 87452, Note_off_c, 0, 72, 64
1, 87452, Control_c, 0, 64, 127
1, 87501, Note_off_c, 0, 60, 64
1, 87646, Note_on_c, 0, 57, 70
1, 87700, Note_off_c, 0, 57, 64
1, 87721, Note_on_c, 0, 60, 71
1, 87727, Note_on_c, 0, 29, 81
1, 87727, Note_on_c, 0, 41, 75
1, 87736, Note_on_c, 0, 33, 63
1, 87746, Note_on_c, 0, 36, 52
1, 87761, Note_off_c, 0, 29, 64
1, 87767, Note_off_c, 0, 60, 64
1, 87767, Note_off_c, 0, 41, 64
1, 87775, Note_off_c, 0, 33, 64
1, 87780, Note_off_c, 0, 36, 64
1, 87783, Note_on_c, 0, 69, 72
1, 87794, Note_on_c, 0, 65, 44
1, 87813, Note_off_c, 0, 69, 64
1, 87822, Note_on_c, 0, 29, 79
1, 87825, Note_on_c, 0, 33, 72
1, 87828, Note_on_c, 0, 41, 81
1, 87828, Note_on_c, 0, 36, 79
1, 87836, Note_off_c, 0, 65, 64
1, 87855, Note_on_c, 0, 69, 61
1, 87888, Note_off_c, 0, 36, 64
1, 87892, Note_off_c, 0, 29, 64
1, 87923, Note_off_c, 0, 33, 64
1, 87927, Note_on_c, 0, 72, 88
1, 87933, Note_off_c, 0, 41, 64
1, 87933, Note_off_c, 0, 69, 64
1, 87976, Note_off_c, 0, 72, 64
1, 88008, Note_on_c, 0, 77, 56
1, 88008, Note_on_c, 0, 81, 68
1, 88039, Note_off_c, 0, 81, 64
1, 88039, Note_off_c, 0, 77, 64
1, 88075, Note_on_c, 0, 81, 93
1, 88129, Note_on_c, 0, 84, 97
1, 88157, Note_off_c, 0, 81, 64
1, 88187, Note_on_c, 0, 89, 68
1, 88201, Note_off_c, 0, 84, 64
1, 88218, Note_off_c, 0, 89, 64
1, 88254, Note_on_c, 0, 93, 2
1, 88262, Note_on_c, 0, 89, 82
1, 88331, Note_on_c, 0, 84, 84
1, 88368, Note_off_c, 0, 93, 64
1, 88387, Note_off_c, 0, 89, 64
1, 88390, Note_on_c, 0, 81, 78
1, 88395, Note_off_c, 0, 84, 64
1, 88416, Note_off_c, 0, 81, 64
1, 88469, Note_on_c, 0, 81, 59
1, 88474, Note_on_c, 0, 77, 84
1, 88535, Note_on_c, 0, 72, 71
1, 88557, Note_off_c, 0, 81, 64
1, 88568, Note_off_c, 0, 77, 64
1, 88594, Note_on_c, 0, 69, 72
1, 88627, Note_off_c, 0, 72, 64
1, 88632, Note_off_c, 0, 69, 64
1, 88682, Note_on_c, 0, 81, 76
1, 88682, Note_on_c, 0, 48, 97
1, 88682, Note_on_c, 0, 77, 80
1, 88694, Note_on_c, 0, 45, 70
1, 88699, Control_c, 0, 64, 0
1, 88699, Note_on_c, 0, 40, 97
1, 88735, Note_off_c, 0, 81, 64
1, 88760, Note_on_c, 0, 72, 65
1, 88781, Note_off_c, 0, 77, 64
1, 88805, Note_off_c, 0, 72, 64
1, 88819, Note_on_c, 0, 69, 61
1, 88831, Control_c, 0, 64, 127
1, 88856, Note_off_c, 0, 69, 64
1, 88903, Note_off_c, 0, 45, 64
1, 88906, Note_on_c, 0, 69, 46
1, 88916, Note_on_c, 0, 65, 68
1, 88984, Note_off_c, 0, 69, 64
1, 88984, Note_on_c, 0, 60, 56
1, 88987, Note_off_c, 0, 48, 64
1, 89015, Note_off_c, 0, 65, 64
1, 89040, Note_on_c, 0, 57, 74
1, 89061, Note_off_c, 0, 40, 64
1, 89090, Note_off_c, 0, 60, 64
1, 89098, Note_off_c, 0, 57, 64
1, 89143, Note_on_c, 0, 48, 101
1, 89154, Note_on_c, 0, 45, 69
1, 89157, Note_on_c, 0, 42, 66
1, 89157, Note_on_c, 0, 39, 69
1, 89179, Control_c, 0, 64, 0
1, 89321, Control_c, 0, 64, 127
1, 89329, Note_off_c, 0, 45, 64
1, 89335, Note_off_c, 0, 48, 64
1, 89343, Note_off_c, 0, 39, 64
1, 89346, Note_off_c, 0, 42, 64
1, 89380, Note_on_c, 0, 57, 60
1, 89385, Note_on_c, 0, 37, 83
1, 89418, Note_off_c, 0, 57, 64
1, 89437, Note_on_c, 0, 60, 65
1, 89457, Note_off_c, 0, 37, 64
1, 89499, Note_off_c, 0, 60, 64
1, 89510, Note_on_c, 0, 69, 47
1, 89519, Note_on_c, 0, 66, 32
1, 89552, Note_off_c, 0, 69, 64
1, 89577, Note_off_c, 0, 66, 64
1, 89586, Control_c, 0, 64, 0
1, 89586, Note_on_c, 0, 69, 84
1, 89613, Note_on_c, 0, 57, 100
1, 89621, Note_on_c, 0, 52, 91
1, 89621, Note_on_c, 0, 49, 76
1, 89666, Note_on_c, 0, 73, 73
1, 89682, Note_off_c, 0, 69, 64
1, 89694, Control_c, 0, 64, 127
1, 89694, Note_off_c, 0, 57, 64
1, 89700, Note_off_c, 0, 52, 64
1, 89716, Note_off_c, 0, 49, 64
1, 89725, Note_off_c, 0, 73, 64
1, 89736, Note_on_c, 0, 76, 36
1, 89746, Note_on_c, 0, 81, 61
1, 89778, Note_off_c, 0, 81, 64
1, 89788, Note_off_c, 0, 76, 64
1, 89816, Note_on_c, 0, 81, 85
1, 89867, Note_on_c, 0, 36, 72
1, 89891, Note_on_c, 0, 85, 62
1, 89897, Note_off_c, 0, 36, 64
1, 89902, Note_off_c, 0, 81, 64
1, 89928, Note_off_c, 0, 85, 64
1, 89934, Note_on_c, 0, 93, 83
1, 89958, Note_on_c, 0, 88, 23
1, 89965, Note_off_c, 0, 93, 64
1, 90011, Note_off_c, 0, 88, 64
1, 90075, Note_on_c, 0, 56, 100
1, 90084, Note_on_c, 0, 51, 83
1, 90089, Note_on_c, 0, 48, 80
1, 90089, Control_c, 0, 64, 0
1, 90154, Note_on_c, 0, 68, 78
1, 90195, Note_off_c, 0, 56, 64
1, 90209, Control_c, 0, 64, 127
1, 90215, Note_on_c, 0, 72, 71
1, 90223, Note_off_c, 0, 51, 64
1, 90223, Note_off_c, 0, 48, 64
1, 90235, Note_off_c, 0, 68, 64
1, 90265, Note_off_c, 0, 72, 64
1, 90284, Note_on_c, 0, 80, 69
1, 90284, Note_on_c, 0, 75, 59
1, 90306, Note_on_c, 0, 32, 79
1, 90315, Note_off_c, 0, 80, 64
1, 90318, Note_off_c, 0, 75, 64
1, 90345, Note_off_c, 0, 32, 64
1, 90359, Note_on_c, 0, 80, 75
1, 90430, Note_on_c, 0, 84, 52
1, 90440, Note_off_c, 0, 80, 64
1, 90483, Note_on_c, 0, 92, 70
1, 90493, Note_on_c, 0, 87, 61
1, 90502, Note_on_c, 0, 51, 97
1, 90505, Note_off_c, 0, 84, 64
1, 90505, Note_on_c, 0, 48, 74
1, 90518, Note_on_c, 0, 44, 74
1, 90577, Note_on_c, 0, 84, 51
1, 90577, Note_off_c, 0, 92, 64
1, 90589, Note_off_c, 0, 87, 64
1, 90594, Note_on_c, 0, 80, 73
1, 90611, Note_off_c, 0, 84, 64
1, 90611, Note_off_c, 0, 48, 64
1, 90633, Note_off_c, 0, 80, 64
1, 90636, Note_off_c, 0, 51, 64
1, 90685, Note_off_c, 0, 44, 64
1, 90694, Note_on_c, 0, 37, 82
1, 90694, Note_on_c, 0, 87, 58
1, 90706, Note_on_c, 0, 84, 20
1, 90755, Note_on_c, 0, 80, 62
1, 90770, Note_on_c, 0, 44, 69
1, 90774, Note_off_c, 0, 37, 64
1, 90780, Note_off_c, 0, 84, 64
1, 90808, Note_off_c, 0, 87, 64
1, 90816, Note_on_c, 0, 75, 69
1, 90828, Note_off_c, 0, 80, 64
1, 90847, Note_on_c, 0, 49, 81
1, 90855, Note_off_c, 0, 75, 64
1, 90947, Note_on_c, 0, 54, 110
1, 90989, Control_c, 0, 64, 0
1, 91120, Control_c, 0, 64, 127
1, 91148, Note_off_c, 0, 54, 64
1, 91165, Note_off_c, 0, 49, 64
1, 91182, Note_on_c, 0, 66, 67
1, 91245, Note_on_c, 0, 37, 79
1, 91259, Note_off_c, 0, 44, 64
1, 91259, Note_on_c, 0, 68, 62
1, 91259, Note_on_c, 0, 73, 58
1, 91290, Note_off_c, 0, 66, 64
1, 91296, Note_off_c, 0, 68, 64
1, 91327, Note_on_c, 0, 44, 65
1, 91343, Note_off_c, 0, 37, 64
1, 91349, Note_on_c, 0, 78, 76
1, 91382, Note_off_c, 0, 73, 64
1, 91410, Note_off_c, 0, 78, 64
1, 91423, Note_on_c, 0, 49, 72
1, 91501, Note_on_c, 0, 64, 86
1, 91543, Note_on_c, 0, 52, 109
1, 91575, Note_off_c, 0, 64, 64
1, 91585, Note_on_c, 0, 73, 50
1, 91652, Note_on_c, 0, 76, 48
1, 91678, Note_off_c, 0, 73, 64
1, 91688, Note_off_c, 0, 76, 64
1, 91725, Note_on_c, 0, 76, 91
1, 91755, Control_c, 0, 64, 0
1, 91800, Note_on_c, 0, 80, 67
1, 91817, Note_on_c, 0, 85, 72
1, 91831, Note_off_c, 0, 76, 64
1, 91862, Control_c, 0, 64, 127
1, 91869, Note_off_c, 0, 80, 64
1, 91889, Note_on_c, 0, 88, 81
1, 91914, Note_off_c, 0, 88, 64
1, 91923, Note_off_c, 0, 85, 64
1, 91950, Note_off_c, 0, 52, 64
1, 91967, Note_on_c, 0, 88, 52
1, 91978, Note_off_c, 0, 49, 64
1, 92020, Note_off_c, 0, 44, 64
1, 92040, Note_on_c, 0, 92, 51
1, 92054, Note_on_c, 0, 97, 68
1, 92081, Note_off_c, 0, 88, 64
1, 92103, Note_on_c, 0, 100, 80
1, 92106, Note_off_c, 0, 92, 64
1, 92132, Note_off_c, 0, 97, 64
1, 92132, Note_off_c, 0, 100, 64
1, 92193, Note_on_c, 0, 100, 75
1, 92231, Note_on_c, 0, 97, 56
1, 92259, Note_on_c, 0, 35, 78
1, 92282, Note_on_c, 0, 92, 57
1, 92304, Note_off_c, 0, 100, 64
1, 92313, Note_on_c, 0, 88, 75
1, 92316, Note_off_c, 0, 92, 64
1, 92326, Note_off_c, 0, 97, 64
1, 92326, Note_on_c, 0, 41, 88
1, 92344, Note_off_c, 0, 88, 64
1, 92349, Note_off_c, 0, 35, 64
1, 92357, Note_on_c, 0, 44, 66
1, 92415, Control_c, 0, 64, 0
1, 92415, Note_on_c, 0, 86, 94
1, 92419, Note_on_c, 0, 50, 112
1, 92501, Note_on_c, 0, 80, 34
1, 92515, Note_off_c, 0, 86, 64
1, 92515, Note_on_c, 0, 77, 50
1, 92533, Control_c, 0, 64, 127
1, 92541, Note_off_c, 0, 80, 64
1, 92541, Note_on_c, 0, 74, 78
1, 92550, Note_off_c, 0, 77, 64
1, 92569, Note_off_c, 0, 50, 64
1, 92569, Note_off_c, 0, 74, 64
1, 92624, Note_on_c, 0, 74, 59
1, 92641, Note_off_c, 0, 44, 64
1, 92653, Note_on_c, 0, 68, 42
1, 92683, Note_off_c, 0, 41, 64
1, 92703, Note_on_c, 0, 34, 83
1, 92706, Note_on_c, 0, 65, 33
1, 92717, Note_on_c, 0, 66, 9
1, 92717, Note_off_c, 0, 74, 64
1, 92747, Note_on_c, 0, 62, 70
1, 92755, Note_off_c, 0, 65, 64
1, 92759, Note_on_c, 0, 42, 76
1, 92778, Note_off_c, 0, 68, 64
1, 92784, Note_off_c, 0, 66, 64
1, 92797, Note_off_c, 0, 62, 64
1, 92822, Note_off_c, 0, 34, 64
1, 92859, Note_on_c, 0, 50, 110
1, 92867, Note_on_c, 0, 44, 60
1, 92881, Control_c, 0, 64, 0
1, 92915, Note_on_c, 0, 62, 78
1, 92923, Note_off_c, 0, 44, 64
1, 92979, Note_on_c, 0, 66, 55
1, 93000, Note_off_c, 0, 62, 64
1, 93000, Note_on_c, 0, 70, 62
1, 93012, Control_c, 0, 64, 127
1, 93034, Note_off_c, 0, 66, 64
1, 93051, Note_on_c, 0, 74, 70
1, 93067, Note_off_c, 0, 50, 64
1, 93079, Note_off_c, 0, 74, 64
1, 93090, Note_off_c, 0, 70, 64
1, 93131, Note_on_c, 0, 74, 48
1, 93135, Note_off_c, 0, 42, 64
1, 93143, Note_on_c, 0, 76, 44
1, 93193, Note_on_c, 0, 78, 59
1, 93218, Note_on_c, 0, 82, 42
1, 93223, Note_off_c, 0, 76, 64
1, 93232, Note_off_c, 0, 74, 64
1, 93259, Note_on_c, 0, 86, 73
1, 93259, Note_off_c, 0, 78, 64
1, 93282, Note_off_c, 0, 82, 64
1, 93288, Note_off_c, 0, 86, 64
1, 93288, Note_on_c, 0, 34, 83
1, 93326, Control_c, 0, 64, 0
1, 93338, Note_on_c, 0, 42, 74
1, 93351, Note_on_c, 0, 85, 93
1, 93374, Note_off_c, 0, 34, 64
1, 93399, Note_on_c, 0, 49, 101
1, 93422, Note_on_c, 0, 82, 50
1, 93433, Control_c, 0, 64, 127
1, 93449, Note_on_c, 0, 78, 68
1, 93494, Note_off_c, 0, 78, 64
1, 93497, Note_off_c, 0, 85, 64
1, 93500, Note_on_c, 0, 73, 66
1, 93516, Note_off_c, 0, 82, 64
1, 93532, Note_off_c, 0, 73, 64
1, 93572, Note_off_c, 0, 49, 64
1, 93596, Note_on_c, 0, 73, 46
1, 93596, Note_off_c, 0, 42, 64
1, 93660, Note_on_c, 0, 70, 44
1, 93683, Note_on_c, 0, 66, 55
1, 93727, Note_off_c, 0, 70, 64
1, 93727, Note_on_c, 0, 61, 79
1, 93727, Note_off_c, 0, 73, 64
1, 93755, Note_off_c, 0, 66, 64
1, 93763, Note_on_c, 0, 33, 97
1, 93788, Note_off_c, 0, 61, 64
1, 93816, Control_c, 0, 64, 0
1, 93822, Note_on_c, 0, 40, 92
1, 93872, Note_off_c, 0, 33, 64
1, 93909, Note_on_c, 0, 58, 22
1, 93923, Note_on_c, 0, 43, 87
1, 93936, Control_c, 0, 64, 127
1, 93961, Note_off_c, 0, 40, 64
1, 93968, Note_off_c, 0, 58, 64
1, 94009, Note_on_c, 0, 64, 100
1, 94029, Note_off_c, 0, 43, 64
1, 94032, Note_on_c, 0, 49, 99
1, 94073, Note_off_c, 0, 49, 64
1, 94134, Note_on_c, 0, 55, 84
1, 94157, Note_off_c, 0, 64, 64
1, 94224, Note_on_c, 0, 61, 82
1, 94231, Note_off_c, 0, 55, 64
1, 94294, Note_on_c, 0, 64, 75
1, 94315, Note_off_c, 0, 61, 64
1, 94329, Note_off_c, 0, 64, 64
1, 94383, Note_on_c, 0, 55, 72
1, 94435, Note_off_c, 0, 55, 64
1, 94435, Note_on_c, 0, 61, 72
1, 94490, Note_on_c, 0, 64, 89
1, 94513, Note_off_c, 0, 61, 64
1, 94519, Note_off_c, 0, 64, 64
1, 94564, Note_on_c, 0, 64, 80
1, 94591, Note_on_c, 0, 65, 22
1, 94597, Note_off_c, 0, 64, 64
1, 94621, Note_on_c, 0, 67, 79
1, 94644, Note_off_c, 0, 65, 64
1, 94652, Note_off_c, 0, 67, 64
1, 94672, Note_on_c, 0, 76, 73
1, 94678, Note_on_c, 0, 73, 47
1, 94700, Note_off_c, 0, 76, 64
1, 94719, Note_on_c, 0, 67, 34
1, 94719, Note_off_c, 0, 73, 64
1, 94769, Note_on_c, 0, 73, 58
1, 94769, Note_off_c, 0, 67, 64
1, 94830, Note_on_c, 0, 76, 74
1, 94844, Note_off_c, 0, 73, 64
1, 94861, Note_off_c, 0, 76, 64
1, 94861, Note_on_c, 0, 74, 24
1, 94895, Note_on_c, 0, 76, 91
1, 94911, Note_off_c, 0, 74, 64
1, 94965, Note_on_c, 0, 79, 88
1, 94992, Note_off_c, 0, 76, 64
1, 95006, Note_off_c, 0, 79, 64
1, 95021, Note_on_c, 0, 85, 76
1, 95024, Note_on_c, 0, 88, 81
1, 95048, Note_off_c, 0, 85, 64
1, 95053, Note_off_c, 0, 88, 64
1, 95071, Note_on_c, 0, 79, 78
1, 95113, Note_off_c, 0, 79, 64
1, 95123, Note_on_c, 0, 85, 42
1, 95185, Note_on_c, 0, 88, 75
1, 95199, Note_off_c, 0, 85, 64
1, 95215, Note_off_c, 0, 88, 64
1, 95249, Note_on_c, 0, 88, 89
1, 95305, Note_off_c, 0, 88, 64
1, 95324, Note_on_c, 0, 91, 80
1, 95352, Note_off_c, 0, 91, 64
1, 95407, Note_on_c, 0, 87, 67
1, 95416, Note_on_c, 0, 96, 106
1, 95493, Note_off_c, 0, 87, 64
1, 95493, Note_on_c, 0, 97, 88
1, 95503, Note_on_c, 0, 89, 39
1, 95510, Note_on_c, 0, 88, 44
1, 95521, Note_off_c, 0, 96, 64
1, 95547, Note_off_c, 0, 89, 64
1, 95569, Note_off_c, 0, 88, 64
1, 95581, Note_on_c, 0, 90, 76
1, 95589, Note_on_c, 0, 99, 82
1, 95614, Note_off_c, 0, 97, 64
1, 95655, Note_off_c, 0, 90, 64
1, 95675, Note_on_c, 0, 93, 84
1, 95683, Note_on_c, 0, 102, 89
1, 95711, Note_off_c, 0, 99, 64
1, 95752, Note_off_c, 0, 93, 64
1, 95770, Note_on_c, 0, 101, 73
1, 95770, Note_on_c, 0, 92, 69
1, 95808, Note_off_c, 0, 102, 64
1, 95808, Note_off_c, 0, 92, 64
1, 95844, Note_on_c, 0, 91, 78
1, 95844, Note_on_c, 0, 100, 69
1, 95878, Note_off_c, 0, 91, 64
1, 95890, Note_off_c, 0, 101, 64
1, 95918, Note_on_c, 0, 90, 65
1, 95922, Note_on_c, 0, 99, 75
1, 95948, Note_off_c, 0, 100, 64
1, 95954, Note_off_c, 0, 90, 64
1, 95970, Note_off_c, 0, 99, 64
1, 95978, Note_on_c, 0, 89, 69
1, 96001, Note_on_c, 0, 98, 64
1, 96011, Note_off_c, 0, 89, 64
1, 96046, Note_off_c, 0, 98, 64
1, 96051, Note_on_c, 0, 97, 69
1, 96051, Note_on_c, 0, 88, 63
1, 96085, Note_off_c, 0, 88, 64
1, 96088, Note_on_c, 0, 87, 62
1, 96128, Note_off_c, 0, 87, 64
1, 96131, Note_on_c, 0, 96, 55
1, 96146, Note_off_c, 0, 97, 64
1, 96162, Note_on_c, 0, 86, 71
1, 96162, Note_on_c, 0, 95, 18
1, 96173, Note_off_c, 0, 96, 64
1, 96202, Note_off_c, 0, 86, 64
1, 96241, Note_on_c, 0, 85, 65
1, 96252, Note_on_c, 0, 94, 71
1, 96276, Note_off_c, 0, 85, 64
1, 96282, Note_off_c, 0, 95, 64
1, 96310, Note_on_c, 0, 84, 69
1, 96310, Note_on_c, 0, 93, 68
1, 96343, Note_off_c, 0, 84, 64
1, 96377, Note_on_c, 0, 92, 69
1, 96382, Note_off_c, 0, 94, 64
1, 96382, Note_on_c, 0, 83, 78
1, 96405, Note_off_c, 0, 93, 64
1, 96415, Note_off_c, 0, 83, 64
1, 96418, Note_off_c, 0, 92, 64
1, 96435, Note_on_c, 0, 82, 36
1, 96435, Note_on_c, 0, 91, 61
1, 96483, Note_on_c, 0, 81, 65
1, 96486, Note_off_c, 0, 82, 64
1, 96502, Note_on_c, 0, 90, 72
1, 96532, Note_off_c, 0, 81, 64
1, 96532, Note_off_c, 0, 91, 64
1, 96541, Note_on_c, 0, 80, 70
1, 96551, Note_on_c, 0, 89, 60
1, 96597, Note_on_c, 0, 79, 63
1, 96606, Note_on_c, 0, 88, 68
1, 96611, Note_off_c, 0, 90, 64
1, 96636, Note_off_c, 0, 80, 64
1, 96639, Note_off_c, 0, 89, 64
1, 96639, Note_off_c, 0, 88, 64
1, 96649, Note_off_c, 0, 79, 64
1, 96666, Note_on_c, 0, 84, 68
1, 96675, Note_on_c, 0, 75, 69
1, 96731, Note_on_c, 0, 85, 76
1, 96750, Note_on_c, 0, 76, 51
1, 96767, Note_off_c, 0, 84, 64
1, 96773, Note_on_c, 0, 78, 68
1, 96780, Note_off_c, 0, 75, 64
1, 96789, Note_off_c, 0, 76, 64
1, 96794, Note_on_c, 0, 87, 70
1, 96812, Note_off_c, 0, 85, 64
1, 96842, Note_off_c, 0, 78, 64
1, 96842, Note_on_c, 0, 81, 72
1, 96848, Note_on_c, 0, 90, 76
1, 96883, Note_off_c, 0, 87, 64
1, 96889, Note_off_c, 0, 81, 64
1, 96911, Note_on_c, 0, 89, 74
1, 96917, Note_on_c, 0, 80, 66
1, 96956, Note_off_c, 0, 80, 64
1, 96968, Note_on_c, 0, 88, 69
1, 96979, Note_off_c, 0, 90, 64
1, 96979, Note_on_c, 0, 79, 79
1, 97021, Note_off_c, 0, 79, 64
1, 97028, Note_off_c, 0, 89, 64
1, 97028, Note_on_c, 0, 87, 73
1, 97037, Note_on_c, 0, 78, 80
1, 97064, Note_off_c, 0, 88, 64
1, 97073, Note_off_c, 0, 78, 64
1, 97090, Note_on_c, 0, 86, 64
1, 97093, Note_off_c, 0, 87, 64
1, 97117, Note_on_c, 0, 77, 71
1, 97137, Note_off_c, 0, 86, 64
1, 97143, Note_on_c, 0, 85, 67
1, 97151, Note_off_c, 0, 77, 64
1, 97168, Note_on_c, 0, 76, 64
1, 97202, Note_off_c, 0, 76, 64
1, 97205, Note_on_c, 0, 75, 70
1, 97205, Note_on_c, 0, 84, 84
1, 97244, Note_off_c, 0, 85, 64
1, 97244, Note_off_c, 0, 75, 64
1, 97262, Note_off_c, 0, 84, 64
1, 97274, Note_on_c, 0, 83, 90
1, 97274, Note_on_c, 0, 74, 78
1, 97316, Note_off_c, 0, 74, 64
1, 97329, Note_on_c, 0, 82, 67
1, 97347, Note_on_c, 0, 73, 66
1, 97368, Note_off_c, 0, 83, 64
1, 97386, Note_on_c, 0, 81, 68
1, 97391, Note_off_c, 0, 73, 64
1, 97419, Note_on_c, 0, 72, 60
1, 97444, Note_on_c, 0, 80, 72
1, 97461, Note_off_c, 0, 82, 64
1, 97461, Note_off_c, 0, 72, 64
1, 97475, Note_on_c, 0, 71, 71
1, 97488, Note_off_c, 0, 81, 64
1, 97488, Note_off_c, 0, 80, 64
1, 97492, Note_on_c, 0, 79, 74
1, 97510, Note_off_c, 0, 71, 64
1, 97514, Note_on_c, 0, 70, 48
1, 97549, Note_off_c, 0, 79, 64
1, 97556, Note_off_c, 0, 70, 64
1, 97561, Note_on_c, 0, 78, 68
1, 97574, Note_on_c, 0, 69, 65
1, 97617, Note_on_c, 0, 77, 65
1, 97628, Note_off_c, 0, 69, 64
1, 97642, Note_on_c, 0, 68, 64
1, 97669, Note_off_c, 0, 78, 64
1, 97669, Note_on_c, 0, 76, 65
1, 97677, Note_on_c, 0, 67, 77
1, 97691, Note_off_c, 0, 68, 64
1, 97702, Note_off_c, 0, 77, 64
1, 97705, Note_off_c, 0, 76, 64
1, 97717, Note_off_c, 0, 67, 64
1, 97728, Note_on_c, 0, 72, 73
1, 97764, Note_on_c, 0, 63, 51
1, 97795, Note_on_c, 0, 73, 68
1, 97828, Note_off_c, 0, 72, 64
1, 97833, Note_off_c, 0, 63, 64
1, 97833, Note_on_c, 0, 66, 56
1, 97840, Note_on_c, 0, 64, 17
1, 97853, Note_on_c, 0, 75, 69
1, 97876, Note_off_c, 0, 73, 64
1, 97887, Note_off_c, 0, 64, 64
1, 97892, Control_c, 0, 64, 0
1, 97892, Note_on_c, 0, 69, 63
1, 97903, Note_on_c, 0, 78, 80
1, 97909, Note_off_c, 0, 66, 64
1, 97929, Note_off_c, 0, 75, 64
1, 97943, Note_off_c, 0, 69, 64
1, 97954, Note_on_c, 0, 68, 66
1, 97960, Note_on_c, 0, 77, 61
1, 97998, Control_c, 0, 64, 127
1, 98014, Note_on_c, 0, 76, 72
1, 98024, Note_off_c, 0, 68, 64
1, 98024, Note_on_c, 0, 67, 74
1, 98034, Note_off_c, 0, 78, 64
1, 98056, Note_off_c, 0, 77, 64
1, 98065, Note_on_c, 0, 75, 74
1, 98070, Note_off_c, 0, 67, 64
1, 98084, Note_on_c, 0, 66, 67
1, 98113, Note_off_c, 0, 76, 64
1, 98118, Note_off_c, 0, 75, 64
1, 98118, Note_off_c, 0, 66, 64
1, 98129, Note_on_c, 0, 74, 61
1, 98160, Note_on_c, 0, 65, 69
1, 98174, Note_off_c, 0, 74, 64
1, 98177, Note_on_c, 0, 73, 67
1, 98196, Note_off_c, 0, 65, 64
1, 98216, Note_on_c, 0, 64, 72
1, 98244, Note_on_c, 0, 72, 69
1, 98251, Note_off_c, 0, 64, 64
1, 98255, Note_on_c, 0, 63, 76
1, 98287, Note_off_c, 0, 73, 64
1, 98287, Note_off_c, 0, 63, 64
1, 98291, Note_off_c, 0, 72, 64
1, 98305, Note_on_c, 0, 71, 69
1, 98326, Note_on_c, 0, 62, 73
1, 98371, Note_on_c, 0, 70, 64
1, 98377, Note_off_c, 0, 62, 64
1, 98396, Note_on_c, 0, 61, 76
1, 98405, Note_off_c, 0, 71, 64
1, 98421, Note_on_c, 0, 69, 55
1, 98446, Note_off_c, 0, 61, 64
1, 98471, Note_on_c, 0, 60, 64
1, 98478, Note_on_c, 0, 68, 64
1, 98491, Note_off_c, 0, 70, 64
1, 98517, Note_off_c, 0, 60, 64
1, 98521, Note_off_c, 0, 69, 64
1, 98531, Note_on_c, 0, 59, 76
1, 98538, Note_off_c, 0, 68, 64
1, 98538, Note_on_c, 0, 67, 62
1, 98572, Note_off_c, 0, 59, 64
1, 98580, Note_on_c, 0, 58, 53
1, 98600, Note_on_c, 0, 66, 59
1, 98617, Note_off_c, 0, 67, 64
1, 98620, Note_off_c, 0, 58, 64
1, 98641, Note_on_c, 0, 57, 66
1, 98641, Note_on_c, 0, 65, 58
1, 98695, Note_on_c, 0, 56, 69
1, 98698, Note_on_c, 0, 64, 81
1, 98709, Note_off_c, 0, 66, 64
1, 98728, Note_off_c, 0, 57, 64
1, 98728, Note_off_c, 0, 65, 64
1, 98751, Note_off_c, 0, 64, 64
1, 98751, Note_on_c, 0, 55, 76
1, 98762, Note_on_c, 0, 60, 72
1, 98790, Note_off_c, 0, 56, 64
1, 98826, Note_off_c, 0, 55, 64
1, 98826, Control_c, 0, 64, 0
1, 98831, Note_on_c, 0, 51, 72
1, 98834, Note_on_c, 0, 61, 76
1, 98903, Note_on_c, 0, 63, 81
1, 98907, Note_off_c, 0, 60, 64
1, 98907, Note_on_c, 0, 52, 68
1, 98928, Note_on_c, 0, 54, 75
1, 98945, Note_off_c, 0, 61, 64
1, 98953, Note_off_c, 0, 52, 64
1, 98971, Note_off_c, 0, 51, 64
1, 98971, Note_on_c, 0, 66, 70
1, 98993, Control_c, 0, 64, 127
1, 98993, Note_on_c, 0, 57, 62
1, 99003, Note_off_c, 0, 63, 64
1, 99018, Note_off_c, 0, 54, 64
1, 99049, Note_on_c, 0, 56, 65
1, 99059, Note_on_c, 0, 65, 47
1, 99099, Note_off_c, 0, 57, 64
1, 99099, Note_on_c, 0, 64, 72
1, 99109, Note_on_c, 0, 55, 75
1, 99120, Note_off_c, 0, 66, 64
1, 99146, Note_off_c, 0, 65, 64
1, 99146, Note_off_c, 0, 56, 64
1, 99157, Note_on_c, 0, 60, 74
1, 99157, Note_off_c, 0, 64, 64
1, 99177, Note_off_c, 0, 55, 64
1, 99184, Note_on_c, 0, 51, 66
1, 99184, Control_c, 0, 64, 0
1, 99219, Note_on_c, 0, 61, 69
1, 99257, Note_off_c, 0, 60, 64
1, 99262, Note_on_c, 0, 52, 65
1, 99287, Note_on_c, 0, 63, 72
1, 99290, Note_on_c, 0, 54, 70
1, 99301, Note_off_c, 0, 52, 64
1, 99315, Note_off_c, 0, 51, 64
1, 99315, Note_off_c, 0, 61, 64
1, 99350, Note_on_c, 0, 66, 62
1, 99358, Note_on_c, 0, 57, 51
1, 99361, Note_off_c, 0, 54, 64
1, 99383, Note_off_c, 0, 63, 64
1, 99419, Note_on_c, 0, 56, 54
1, 99419, Note_on_c, 0, 65, 55
1, 99450, Note_off_c, 0, 57, 64
1, 99467, Note_on_c, 0, 55, 74
1, 99486, Note_on_c, 0, 64, 66
1, 99494, Note_off_c, 0, 66, 64
1, 99500, Note_off_c, 0, 56, 64
1, 99516, Note_off_c, 0, 65, 64
1, 99535, Note_off_c, 0, 55, 64
1, 99549, Note_off_c, 0, 64, 64
1, 99552, Note_on_c, 0, 60, 52
1, 99558, Note_on_c, 0, 51, 57
1, 99602, Note_on_c, 0, 61, 64
1, 99625, Note_off_c, 0, 60, 64
1, 99647, Note_on_c, 0, 52, 42
1, 99672, Note_off_c, 0, 51, 64
1, 99676, Note_on_c, 0, 54, 54
1, 99683, Note_on_c, 0, 63, 64
1, 99694, Note_off_c, 0, 52, 64
1, 99706, Note_off_c, 0, 61, 64
1, 99737, Note_off_c, 0, 54, 64
1, 99750, Note_on_c, 0, 57, 44
1, 99750, Note_off_c, 0, 63, 64
1, 99750, Note_on_c, 0, 66, 62
1, 99761, Control_c, 0, 64, 127
1, 99818, Note_on_c, 0, 65, 63
1, 99829, Note_on_c, 0, 56, 46
1, 99839, Note_off_c, 0, 57, 64
1, 99879, Note_off_c, 0, 66, 64
1, 99898, Note_on_c, 0, 64, 61
1, 99898, Note_on_c, 0, 55, 44
1, 99907, Note_off_c, 0, 56, 64
1, 99918, Note_off_c, 0, 65, 64
1, 99967, Note_off_c, 0, 55, 64
1, 99973, Note_on_c, 0, 60, 55
1, 99979, Note_off_c, 0, 64, 64
1, 99982, Note_on_c, 0, 51, 61
1, 100062, Note_on_c, 0, 61, 68
1, 100082, Note_on_c, 0, 52, 59
1, 100090, Note_off_c, 0, 60, 64
1, 100130, Note_off_c, 0, 51, 64
1, 100152, Note_on_c, 0, 63, 69
1, 100157, Note_on_c, 0, 54, 59
1, 100176, Note_off_c, 0, 52, 64
1, 100190, Note_off_c, 0, 61, 64
1, 100263, Note_off_c, 0, 54, 64
1, 100279, Note_on_c, 0, 66, 64
1, 100279, Note_on_c, 0, 57, 48
1, 100299, Control_c, 0, 64, 0
1, 100318, Note_off_c, 0, 63, 64
1, 100467, Control_c, 0, 64, 127
1, 100503, Note_on_c, 0, 65, 70
1, 100511, Note_on_c, 0, 56, 50
1, 100511, Note_off_c, 0, 57, 64
1, 100550, Note_off_c, 0, 66, 64
1, 100675, Note_off_c, 0, 56, 64
1, 100687, Note_on_c, 0, 64, 80
1, 100695, Note_on_c, 0, 55, 46
1, 100723, Note_off_c, 0, 65, 64
1, 100793, Note_off_c, 0, 64, 64
1, 100829, Note_off_c, 0, 55, 64
1, 100850, Note_on_c, 0, 63, 75
1, 100854, Note_on_c, 0, 54, 53
1, 100978, Note_off_c, 0, 54, 64
1, 101020, Note_off_c, 0, 63, 64
1, 101024, Note_on_c, 0, 62, 72
1, 101035, Note_on_c, 0, 53, 51
1, 101162, Note_off_c, 0, 53, 64
1, 101199, Note_off_c, 0, 62, 64
1, 101207, Note_on_c, 0, 61, 71
1, 101229, Note_on_c, 0, 52, 37
1, 101414, Note_off_c, 0, 52, 64
1, 101442, Note_on_c, 0, 60, 59
1, 101450, Note_on_c, 0, 51, 36
1, 101456, Note_off_c, 0, 61, 64
1, 101463, Control_c, 0, 64, 0
1, 101630, Control_c, 0, 64, 127
1, 101661, Note_on_c, 0, 63, 58
1, 101664, Note_on_c, 0, 54, 49
1, 101717, Note_off_c, 0, 51, 64
1, 101717, Note_off_c, 0, 60, 64
1, 101859, Note_on_c, 0, 61, 59
1, 101870, Control_c, 0, 64, 0
1, 101873, Note_on_c, 0, 52, 53
1, 101873, Note_off_c, 0, 54, 64
1, 101885, Note_off_c, 0, 63, 64
1, 102026, Control_c, 0, 64, 127
1, 102048, Note_off_c, 0, 52, 64
1, 102090, Note_on_c, 0, 64, 54
1, 102095, Note_on_c, 0, 55, 31
1, 102095, Control_c, 0, 64, 0
1, 102110, Note_off_c, 0, 61, 64
1, 102241, Control_c, 0, 64, 127
1, 102329, Note_off_c, 0, 55, 64
1, 102344, Note_on_c, 0, 63, 47
1, 102352, Note_on_c, 0, 54, 29
1, 102355, Note_off_c, 0, 64, 64
1, 102374, Control_c, 0, 64, 0
1, 102528, Control_c, 0, 64, 127
1, 102661, Control_c, 0, 64, 0
1, 102672, Note_on_c, 0, 66, 26
1, 102672, Note_on_c, 0, 57, 18
1, 102686, Note_off_c, 0, 54, 64
1, 102695, Note_off_c, 0, 63, 64
1, 102828, Control_c, 0, 64, 127
1, 103027, Note_off_c, 0, 57, 64
1, 103045, Control_c, 0, 64, 0
1, 103065, Note_on_c, 0, 56, 19
1, 103073, Note_on_c, 0, 64, 37
1, 103127, Note_off_c, 0, 66, 64
1, 103211, Control_c, 0, 64, 127
1, 103313, Note_off_c, 0, 56, 64
1, 103481, Note_off_c, 0, 64, 64
1, 103494, Note_on_c, 0, 45, 30
1, 103503, Note_on_c, 0, 60, 48
1, 103508, Note_on_c, 0, 51, 26
1, 103511, Note_on_c, 0, 54, 31
1, 103631, Control_c, 0, 64, 0
1, 103684, Note_off_c, 0, 45, 64
1, 103715, Control_c, 0, 64, 127
1, 103740, Note_off_c, 0, 54, 64
1, 103909, Note_on_c, 0, 61, 52
1, 103926, Note_off_c, 0, 51, 64
1, 103942, Note_on_c, 0, 55, 33
1, 103942, Note_on_c, 0, 52, 32
1, 103956, Control_c, 0, 64, 0
1, 103956, Note_on_c, 0, 45, 20
1, 103970, Note_off_c, 0, 60, 64
1, 104135, Control_c, 0, 64, 127
1, 104165, Note_off_c, 0, 55, 64
1, 104165, Note_off_c, 0, 52, 64
1, 104221, Note_off_c, 0, 45, 64
1, 104308, Note_off_c, 0, 61, 64
1, 104576, Note_on_c, 0, 69, 39
1, 104782, Control_c, 0, 64, 0
1, 104831, Note_on_c, 0, 44, 33
1, 105112, Note_on_c, 0, 51, 21
1, 105202, Control_c, 0, 64, 127
1, 105294, Note_on_c, 0, 56, 23
1, 105452, Note_off_c, 0, 56, 64
1, 105455, Note_on_c, 0, 60, 24
1, 105567, Note_off_c, 0, 60, 64
1, 105600, Note_on_c, 0, 63, 41
1, 105746, Note_off_c, 0, 63, 64
1, 105814, Note_off_c, 0, 69, 64
1, 105820, Note_on_c, 0, 68, 33
1, 105968, Control_c, 0, 64, 0
1, 106007, Note_on_c, 0, 63, 39
1, 106065, Control_c, 0, 64, 127
1, 106127, Note_off_c, 0, 44, 64
1, 106163, Note_on_c, 0, 60, 25
1, 106179, Note_off_c, 0, 63, 64
1, 106191, Note_off_c, 0, 51, 64
1, 106275, Note_on_c, 0, 56, 31
1, 106288, Note_off_c, 0, 60, 64
1, 106369, Note_off_c, 0, 68, 64
1, 106383, Note_off_c, 0, 56, 64
1, 106420, Note_on_c, 0, 51, 34
1, 106480, Note_off_c, 0, 51, 64
1, 106536, Note_on_c, 0, 44, 37
1, 106651, Note_off_c, 0, 44, 64
1, 106704, Note_on_c, 0, 51, 21
1, 106795, Note_off_c, 0, 51, 64
1, 106795, Note_on_c, 0, 56, 31
1, 106857, Note_off_c, 0, 56, 64
1, 106918, Note_on_c, 0, 60, 23
1, 106991, Note_off_c, 0, 60, 64
1, 107012, Note_on_c, 0, 63, 39
1, 107072, Note_off_c, 0, 63, 64
1, 107124, Note_on_c, 0, 68, 36
1, 107177, Note_off_c, 0, 68, 64
1, 107299, Note_on_c, 0, 68, 43
1, 107299, Note_on_c, 0, 72, 54
1, 107356, Note_off_c, 0, 72, 64
1, 107364, Note_off_c, 0, 68, 64
1, 107475, Note_on_c, 0, 68, 27
1, 107553, Note_on_c, 0, 63, 35
1, 107665, Note_on_c, 0, 60, 26
1, 107668, Note_off_c, 0, 68, 64
1, 107707, Note_off_c, 0, 63, 64
1, 107742, Note_off_c, 0, 60, 64
1, 107742, Note_on_c, 0, 56, 23
1, 107846, Note_off_c, 0, 56, 64
1, 107849, Note_on_c, 0, 51, 27
1, 107902, Note_off_c, 0, 51, 64
1, 107963, Note_on_c, 0, 73, 60
1, 107973, Note_on_c, 0, 69, 37
1, 108008, Note_on_c, 0, 44, 33
1, 108030, Control_c, 0, 64, 0
1, 108143, Note_on_c, 0, 52, 33
1, 108150, Control_c, 0, 64, 127
1, 108153, Note_off_c, 0, 44, 64
1, 108197, Note_off_c, 0, 73, 64
1, 108208, Note_off_c, 0, 69, 64
1, 108217, Note_off_c, 0, 52, 64
1, 108247, Note_on_c, 0, 57, 37
1, 108294, Note_off_c, 0, 57, 64
1, 108320, Note_on_c, 0, 61, 41
1, 108402, Note_off_c, 0, 61, 64
1, 108437, Note_on_c, 0, 64, 40
1, 108509, Note_off_c, 0, 64, 64
1, 108517, Note_on_c, 0, 69, 32
1, 108578, Note_off_c, 0, 69, 64
1, 108626, Note_on_c, 0, 76, 75
1, 108631, Note_on_c, 0, 73, 51
1, 108696, Note_off_c, 0, 76, 64
1, 108696, Note_off_c, 0, 73, 64
1, 108798, Note_on_c, 0, 69, 30
1, 108884, Note_on_c, 0, 64, 44
1, 108954, Note_on_c, 0, 61, 35
1, 108962, Note_off_c, 0, 64, 64
1, 108969, Note_off_c, 0, 69, 64
1, 109002, Note_off_c, 0, 61, 64
1, 109030, Note_on_c, 0, 57, 21
1, 109108, Note_off_c, 0, 57, 64
1, 109144, Note_on_c, 0, 52, 32
1, 109189, Note_off_c, 0, 52, 64
1, 109283, Note_on_c, 0, 78, 75
1, 109289, Control_c, 0, 64, 0
1, 109295, Note_on_c, 0, 74, 55
1, 109313, Note_on_c, 0, 42, 46
1, 109417, Note_off_c, 0, 42, 64
1, 109433, Control_c, 0, 64, 127
1, 109453, Note_off_c, 0, 74, 64
1, 109472, Note_off_c, 0, 78, 64
1, 109494, Note_on_c, 0, 54, 37
1, 109592, Note_on_c, 0, 57, 32
1, 109629, Note_off_c, 0, 54, 64
1, 109640, Note_off_c, 0, 57, 64
1, 109654, Note_on_c, 0, 62, 48
1, 109717, Note_off_c, 0, 62, 64
1, 109726, Note_on_c, 0, 66, 36
1, 109812, Note_on_c, 0, 69, 31
1, 109829, Note_off_c, 0, 66, 64
1, 109893, Note_on_c, 0, 74, 39
1, 109924, Note_off_c, 0, 69, 64
1, 109938, Note_off_c, 0, 74, 64
1, 109982, Note_on_c, 0, 81, 86
1, 110004, Note_on_c, 0, 78, 53
1, 110060, Note_off_c, 0, 78, 64
1, 110066, Note_off_c, 0, 81, 64
1, 110161, Note_on_c, 0, 74, 34
1, 110203, Note_off_c, 0, 74, 64
1, 110252, Note_on_c, 0, 69, 27
1, 110323, Note_off_c, 0, 69, 64
1, 110327, Note_on_c, 0, 66, 24
1, 110395, Note_off_c, 0, 66, 64
1, 110417, Note_on_c, 0, 62, 31
1, 110465, Note_on_c, 0, 57, 19
1, 110470, Note_off_c, 0, 62, 64
1, 110539, Note_off_c, 0, 57, 64
1, 110553, Note_on_c, 0, 54, 36
1, 110603, Note_off_c, 0, 54, 64
1, 110776, Note_on_c, 0, 84, 81
1, 110779, Note_on_c, 0, 80, 60
1, 110787, Control_c, 0, 64, 0
1, 110791, Note_on_c, 0, 44, 36
1, 110979, Control_c, 0, 64, 127
1, 111011, Note_off_c, 0, 44, 64
1, 111033, Note_on_c, 0, 51, 26
1, 111041, Note_off_c, 0, 84, 64
1, 111054, Note_off_c, 0, 80, 64
1, 111160, Note_on_c, 0, 56, 26
1, 111160, Note_off_c, 0, 51, 64
1, 111275, Note_on_c, 0, 60, 19
1, 111295, Note_off_c, 0, 56, 64
1, 111341, Note_off_c, 0, 60, 64
1, 111355, Note_on_c, 0, 63, 29
1, 111405, Note_off_c, 0, 63, 64
1, 111433, Note_on_c, 0, 68, 17
1, 111498, Note_off_c, 0, 68, 64
1, 111522, Note_on_c, 0, 72, 23
1, 111578, Note_off_c, 0, 72, 64
1, 111598, Note_on_c, 0, 75, 39
1, 111689, Note_off_c, 0, 75, 64
1, 111699, Note_on_c, 0, 72, 12
1, 111774, Note_off_c, 0, 72, 64
1, 111785, Note_on_c, 0, 68, 22
1, 111843, Note_on_c, 0, 63, 34
1, 111848, Note_off_c, 0, 68, 64
1, 111888, Note_on_c, 0, 60, 24
1, 111901, Note_off_c, 0, 63, 64
1, 111955, Note_off_c, 0, 60, 64
1, 111977, Note_on_c, 0, 56, 33
1, 112025, Note_off_c, 0, 56, 64
1, 112057, Note_on_c, 0, 51, 30
1, 112122, Note_off_c, 0, 51, 64
1, 112177, Note_on_c, 0, 44, 43
1, 112295, Note_off_c, 0, 44, 64
1, 112314, Note_on_c, 0, 51, 26
1, 112378, Note_on_c, 0, 56, 43
1, 112408, Note_off_c, 0, 51, 64
1, 112431, Note_off_c, 0, 56, 64
1, 112465, Note_on_c, 0, 60, 35
1, 112529, Note_on_c, 0, 63, 47
1, 112550, Note_off_c, 0, 60, 64
1, 112589, Note_off_c, 0, 63, 64
1, 112612, Note_on_c, 0, 68, 32
1, 112667, Note_off_c, 0, 68, 64
1, 112723, Note_on_c, 0, 68, 50
1, 112723, Note_on_c, 0, 72, 73
1, 112765, Note_off_c, 0, 68, 64
1, 112785, Note_off_c, 0, 72, 64
1, 112851, Note_on_c, 0, 68, 17
1, 112936, Note_on_c, 0, 63, 49
1, 113024, Note_on_c, 0, 60, 36
1, 113030, Note_off_c, 0, 68, 64
1, 113077, Note_off_c, 0, 60, 64
1, 113082, Note_off_c, 0, 63, 64
1, 113105, Note_on_c, 0, 56, 38
1, 113177, Note_off_c, 0, 56, 64
1, 113205, Note_on_c, 0, 51, 30
1, 113264, Note_off_c, 0, 51, 64
1, 113312, Note_on_c, 0, 73, 65
1, 113312, Note_on_c, 0, 44, 44
1, 113322, Note_on_c, 0, 69, 43
1, 113339, Control_c, 0, 64, 0
1, 113450, Note_on_c, 0, 52, 52
1, 113484, Note_off_c, 0, 44, 64
1, 113507, Control_c, 0, 64, 127
1, 113557, Note_off_c, 0, 73, 64
1, 113565, Note_on_c, 0, 57, 45
1, 113579, Note_off_c, 0, 69, 64
1, 113592, Note_off_c, 0, 52, 64
1, 113604, Note_off_c, 0, 57, 64
1, 113654, Note_on_c, 0, 61, 46
1, 113738, Note_off_c, 0, 61, 64
1, 113766, Note_on_c, 0, 64, 46
1, 113827, Note_on_c, 0, 69, 39
1, 113830, Note_off_c, 0, 64, 64
1, 113888, Note_off_c, 0, 69, 64
1, 113932, Note_on_c, 0, 76, 72
1, 113940, Note_on_c, 0, 73, 54
1, 113999, Note_off_c, 0, 76, 64
1, 114004, Note_off_c, 0, 73, 64
1, 114083, Note_on_c, 0, 69, 36
1, 114188, Note_on_c, 0, 64, 41
1, 114238, Note_off_c, 0, 64, 64
1, 114244, Note_on_c, 0, 61, 34
1, 114284, Note_off_c, 0, 69, 64
1, 114294, Note_off_c, 0, 61, 64
1, 114337, Note_on_c, 0, 57, 19
1, 114409, Note_off_c, 0, 57, 64
1, 114443, Note_on_c, 0, 52, 52
1, 114479, Note_off_c, 0, 52, 64
1, 114585, Control_c, 0, 64, 0
1, 114592, Note_on_c, 0, 78, 67
1, 114606, Note_on_c, 0, 42, 38
1, 114606, Note_on_c, 0, 74, 44
1, 114731, Control_c, 0, 64, 127
1, 114741, Note_off_c, 0, 42, 64
1, 114774, Note_off_c, 0, 74, 64
1, 114782, Note_off_c, 0, 78, 64
1, 114829, Note_on_c, 0, 54, 16
1, 114943, Note_on_c, 0, 57, 20
1, 114980, Note_off_c, 0, 54, 64
1, 115001, Note_off_c, 0, 57, 64
1, 115001, Note_on_c, 0, 62, 38
1, 115063, Note_off_c, 0, 62, 64
1, 115069, Note_on_c, 0, 66, 26
1, 115149, Note_on_c, 0, 69, 36
1, 115164, Note_off_c, 0, 66, 64
1, 115228, Note_on_c, 0, 74, 51
1, 115270, Note_off_c, 0, 74, 64
1, 115273, Note_off_c, 0, 69, 64
1, 115339, Note_on_c, 0, 81, 66
1, 115361, Note_on_c, 0, 78, 37
1, 115409, Note_off_c, 0, 78, 64
1, 115423, Note_off_c, 0, 81, 64
1, 115471, Note_on_c, 0, 74, 38
1, 115512, Note_off_c, 0, 74, 64
1, 115560, Note_on_c, 0, 69, 32
1, 115634, Note_on_c, 0, 66, 34
1, 115634, Note_off_c, 0, 69, 64
1, 115738, Note_off_c, 0, 66, 64
1, 115749, Note_on_c, 0, 62, 22
1, 115799, Note_off_c, 0, 62, 64
1, 115802, Note_on_c, 0, 57, 25
1, 115882, Note_off_c, 0, 57, 64
1, 115919, Note_on_c, 0, 54, 34
1, 115960, Note_on_c, 0, 68, 30
1, 115977, Note_off_c, 0, 54, 64
1, 116014, Note_off_c, 0, 68, 64
1, 116052, Note_on_c, 0, 75, 34
1, 116119, Note_on_c, 0, 44, 40
1, 116180, Control_c, 0, 64, 0
1, 116237, Note_on_c, 0, 84, 64
1, 116384, Control_c, 0, 64, 127
1, 116398, Note_off_c, 0, 44, 64
1, 116420, Note_off_c, 0, 84, 64
1, 116437, Note_on_c, 0, 51, 20
1, 116456, Note_off_c, 0, 75, 64
1, 116515, Note_off_c, 0, 51, 64
1, 116528, Note_on_c, 0, 56, 27
1, 116618, Note_on_c, 0, 60, 28
1, 116648, Note_off_c, 0, 56, 64
1, 116674, Note_off_c, 0, 60, 64
1, 116674, Note_on_c, 0, 63, 31
1, 116741, Note_off_c, 0, 63, 64
1, 116741, Note_on_c, 0, 68, 33
1, 116796, Note_off_c, 0, 68, 64
1, 116829, Note_on_c, 0, 72, 40
1, 116885, Note_off_c, 0, 72, 64
1, 116902, Note_on_c, 0, 75, 46
1, 116986, Note_on_c, 0, 72, 22
1, 117005, Note_off_c, 0, 75, 64
1, 117063, Note_on_c, 0, 68, 36
1, 117131, Note_on_c, 0, 63, 34
1, 117138, Note_off_c, 0, 72, 64
1, 117138, Note_off_c, 0, 68, 64
1, 117161, Note_on_c, 0, 60, 29
1, 117197, Note_off_c, 0, 63, 64
1, 117219, Note_off_c, 0, 60, 64
1, 117231, Note_on_c, 0, 56, 47
1, 117281, Note_off_c, 0, 56, 64
1, 117311, Note_on_c, 0, 51, 43
1, 117354, Note_off_c, 0, 51, 64
1, 117439, Note_on_c, 0, 42, 58
1, 117526, Note_off_c, 0, 42, 64
1, 117656, Note_on_c, 0, 51, 38
1, 117710, Note_off_c, 0, 51, 64
1, 117727, Note_on_c, 0, 56, 46
1, 117807, Note_off_c, 0, 56, 64
1, 117826, Note_on_c, 0, 60, 39
1, 117872, Note_off_c, 0, 60, 64
1, 117883, Note_on_c, 0, 63, 45
1, 117938, Note_on_c, 0, 68, 42
1, 117946, Note_off_c, 0, 63, 64
1, 117988, Note_off_c, 0, 68, 64
1, 117999, Note_on_c, 0, 72, 44
1, 118041, Note_off_c, 0, 72, 64
1, 118049, Note_on_c, 0, 75, 48
1, 118109, Note_on_c, 0, 72, 38
1, 118116, Note_off_c, 0, 75, 64
1, 118186, Note_on_c, 0, 68, 35
1, 118233, Note_on_c, 0, 63, 46
1, 118242, Note_off_c, 0, 72, 64
1, 118248, Note_off_c, 0, 68, 64
1, 118272, Note_off_c, 0, 63, 64
1, 118292, Note_on_c, 0, 60, 37
1, 118348, Note_off_c, 0, 60, 64
1, 118368, Note_on_c, 0, 56, 44
1, 118429, Note_off_c, 0, 56, 64
1, 118446, Note_on_c, 0, 51, 26
1, 118473, Note_on_c, 0, 69, 42
1, 118503, Note_off_c, 0, 51, 64
1, 118537, Note_off_c, 0, 69, 64
1, 118556, Note_on_c, 0, 75, 55
1, 118637, Control_c, 0, 64, 0
1, 118645, Note_on_c, 0, 41, 71
1, 118738, Note_on_c, 0, 84, 83
1, 118768, Note_off_c, 0, 41, 64
1, 118780, Control_c, 0, 64, 127
1, 118835, Note_off_c, 0, 84, 64
1, 118869, Note_off_c, 0, 75, 64
1, 118897, Note_on_c, 0, 51, 42
1, 118964, Note_off_c, 0, 51, 64
1, 118996, Note_on_c, 0, 57, 39
1, 119072, Note_on_c, 0, 60, 50
1, 119083, Note_off_c, 0, 57, 64
1, 119106, Note_on_c, 0, 63, 48
1, 119120, Note_off_c, 0, 60, 64
1, 119166, Note_on_c, 0, 69, 44
1, 119170, Note_off_c, 0, 63, 64
1, 119222, Note_on_c, 0, 72, 56
1, 119226, Note_off_c, 0, 69, 64
1, 119276, Note_off_c, 0, 72, 64
1, 119289, Note_on_c, 0, 75, 61
1, 119354, Note_on_c, 0, 72, 51
1, 119390, Note_off_c, 0, 75, 64
1, 119426, Note_on_c, 0, 69, 44
1, 119467, Note_off_c, 0, 72, 64
1, 119470, Note_on_c, 0, 63, 60
1, 119495, Note_off_c, 0, 69, 64
1, 119509, Note_off_c, 0, 63, 64
1, 119540, Note_on_c, 0, 60, 35
1, 119588, Note_on_c, 0, 57, 46
1, 119588, Note_off_c, 0, 60, 64
1, 119637, Note_off_c, 0, 57, 64
1, 119652, Note_on_c, 0, 51, 55
1, 119693, Note_off_c, 0, 51, 64
1, 119712, Note_on_c, 0, 69, 52
1, 119760, Note_off_c, 0, 69, 64
1, 119805, Note_on_c, 0, 76, 54
1, 119847, Control_c, 0, 64, 0
1, 119866, Note_on_c, 0, 40, 88
1, 119964, Note_on_c, 0, 85, 86
1, 119996, Note_off_c, 0, 40, 64
1, 120003, Control_c, 0, 64, 127
1, 120081, Note_off_c, 0, 85, 64
1, 120098, Note_off_c, 0, 76, 64
1, 120125, Note_on_c, 0, 52, 73
1, 120172, Note_off_c, 0, 52, 64
1, 120197, Note_on_c, 0, 57, 41
1, 120261, Note_on_c, 0, 61, 66
1, 120295, Note_off_c, 0, 57, 64
1, 120301, Note_off_c, 0, 61, 64
1, 120317, Note_on_c, 0, 64, 62
1, 120378, Note_on_c, 0, 69, 56
1, 120403, Note_off_c, 0, 64, 64
1, 120421, Note_on_c, 0, 73, 56
1, 120457, Note_off_c, 0, 69, 64
1, 120487, Note_on_c, 0, 76, 72
1, 120517, Note_off_c, 0, 73, 64
1, 120556, Note_on_c, 0, 73, 76
1, 120582, Note_off_c, 0, 76, 64
1, 120607, Note_on_c, 0, 69, 52
1, 120649, Note_off_c, 0, 73, 64
1, 120663, Note_on_c, 0, 64, 57
1, 120699, Note_off_c, 0, 64, 64
1, 120699, Note_off_c, 0, 69, 64
1, 120707, Note_on_c, 0, 61, 59
1, 120752, Note_off_c, 0, 61, 64
1, 120782, Note_on_c, 0, 57, 57
1, 120838, Note_off_c, 0, 57, 64
1, 120858, Note_on_c, 0, 52, 73
1, 120903, Note_off_c, 0, 52, 64
1, 120922, Note_on_c, 0, 74, 58
1, 120967, Note_off_c, 0, 74, 64
1, 121006, Note_on_c, 0, 81, 70
1, 121109, Note_on_c, 0, 38, 80
1, 121109, Control_c, 0, 64, 0
1, 121195, Note_on_c, 0, 90, 81
1, 121273, Note_off_c, 0, 38, 64
1, 121273, Control_c, 0, 64, 127
1, 121339, Note_off_c, 0, 90, 64
1, 121359, Note_off_c, 0, 81, 64
1, 121407, Note_on_c, 0, 54, 55
1, 121499, Note_on_c, 0, 57, 50
1, 121509, Note_off_c, 0, 54, 64
1, 121571, Note_on_c, 0, 62, 52
1, 121604, Note_off_c, 0, 57, 64
1, 121612, Note_off_c, 0, 62, 64
1, 121637, Note_on_c, 0, 66, 42
1, 121710, Note_on_c, 0, 69, 54
1, 121733, Note_off_c, 0, 66, 64
1, 121785, Note_off_c, 0, 69, 64
1, 121788, Note_on_c, 0, 74, 61
1, 121849, Note_on_c, 0, 78, 71
1, 121857, Note_off_c, 0, 74, 64
1, 121933, Note_on_c, 0, 74, 55
1, 121958, Note_off_c, 0, 78, 64
1, 122023, Note_on_c, 0, 69, 39
1, 122078, Note_off_c, 0, 74, 64
1, 122083, Note_on_c, 0, 66, 49
1, 122126, Note_on_c, 0, 62, 49
1, 122142, Note_off_c, 0, 69, 64
1, 122175, Note_off_c, 0, 62, 64
1, 122195, Note_on_c, 0, 57, 36
1, 122226, Note_off_c, 0, 66, 64
1, 122250, Note_off_c, 0, 57, 64
1, 122250, Note_on_c, 0, 54, 61
1, 122289, Note_off_c, 0, 54, 64
1, 122485, Note_on_c, 0, 36, 85
1, 122521, Note_off_c, 0, 36, 64
1, 122729, Note_on_c, 0, 54, 56
1, 122804, Note_on_c, 0, 57, 52
1, 122804, Note_off_c, 0, 54, 64
1, 122869, Note_on_c, 0, 62, 54
1, 122894, Note_off_c, 0, 57, 64
1, 122908, Note_off_c, 0, 62, 64
1, 122922, Note_on_c, 0, 66, 50
1, 122978, Note_on_c, 0, 69, 53
1, 123014, Note_off_c, 0, 66, 64
1, 123044, Note_off_c, 0, 69, 64
1, 123044, Note_on_c, 0, 74, 57
1, 123095, Note_off_c, 0, 74, 64
1, 123101, Note_on_c, 0, 78, 67
1, 123158, Note_off_c, 0, 78, 64
1, 123164, Note_on_c, 0, 74, 54
1, 123212, Note_on_c, 0, 69, 42
1, 123264, Note_on_c, 0, 66, 56
1, 123278, Note_off_c, 0, 74, 64
1, 123282, Note_off_c, 0, 69, 64
1, 123309, Note_on_c, 0, 62, 59
1, 123328, Note_off_c, 0, 66, 64
1, 123353, Note_off_c, 0, 62, 64
1, 123390, Note_on_c, 0, 57, 42
1, 123438, Note_off_c, 0, 57, 64
1, 123442, Note_on_c, 0, 54, 66
1, 123477, Note_off_c, 0, 54, 64
1, 123501, Note_on_c, 0, 75, 59
1, 123587, Note_on_c, 0, 83, 95
1, 123602, Note_off_c, 0, 75, 64
1, 123646, Control_c, 0, 64, 0
1, 123658, Note_on_c, 0, 35, 97
1, 123740, Note_on_c, 0, 90, 90
1, 123769, Note_off_c, 0, 35, 64
1, 123802, Control_c, 0, 64, 127
1, 123858, Note_off_c, 0, 90, 64
1, 123861, Note_off_c, 0, 83, 64
1, 123902, Note_on_c, 0, 54, 76
1, 123984, Note_on_c, 0, 59, 61
1, 123994, Note_off_c, 0, 54, 64
1, 124041, Note_on_c, 0, 63, 61
1, 124069, Note_on_c, 0, 66, 58
1, 124072, Note_off_c, 0, 59, 64
1, 124072, Note_off_c, 0, 63, 64
1, 124129, Note_on_c, 0, 71, 65
1, 124162, Note_off_c, 0, 66, 64
1, 124183, Note_on_c, 0, 75, 70
1, 124232, Note_off_c, 0, 71, 64
1, 124237, Note_on_c, 0, 78, 70
1, 124261, Note_off_c, 0, 75, 64
1, 124312, Note_on_c, 0, 75, 73
1, 124357, Note_on_c, 0, 71, 66
1, 124373, Note_off_c, 0, 78, 64
1, 124410, Note_on_c, 0, 66, 58
1, 124423, Note_off_c, 0, 75, 64
1, 124452, Note_off_c, 0, 66, 64
1, 124456, Note_off_c, 0, 71, 64
1, 124459, Note_on_c, 0, 63, 64
1, 124499, Note_off_c, 0, 63, 64
1, 124535, Note_on_c, 0, 59, 51
1, 124576, Note_off_c, 0, 59, 64
1, 124583, Note_on_c, 0, 54, 72
1, 124615, Note_off_c, 0, 54, 64
1, 124635, Note_on_c, 0, 75, 60
1, 124721, Note_on_c, 0, 83, 98
1, 124729, Note_off_c, 0, 75, 64
1, 124819, Note_on_c, 0, 33, 95
1, 124844, Control_c, 0, 64, 0
1, 124924, Note_on_c, 0, 90, 88
1, 124977, Note_off_c, 0, 33, 64
1, 125000, Control_c, 0, 64, 127
1, 125061, Note_off_c, 0, 83, 64
1, 125070, Note_off_c, 0, 90, 64
1, 125114, Note_on_c, 0, 54, 67
1, 125161, Note_off_c, 0, 54, 64
1, 125201, Note_on_c, 0, 59, 52
1, 125253, Note_on_c, 0, 63, 64
1, 125271, Note_off_c, 0, 59, 64
1, 125284, Note_off_c, 0, 63, 64
1, 125296, Note_on_c, 0, 66, 50
1, 125368, Note_on_c, 0, 71, 68
1, 125398, Note_off_c, 0, 66, 64
1, 125420, Note_off_c, 0, 71, 64
1, 125420, Note_on_c, 0, 75, 56
1, 125477, Note_on_c, 0, 78, 62
1, 125480, Note_off_c, 0, 75, 64
1, 125538, Note_on_c, 0, 75, 62
1, 125588, Note_off_c, 0, 78, 64
1, 125604, Note_on_c, 0, 71, 60
1, 125671, Note_on_c, 0, 66, 56
1, 125705, Note_off_c, 0, 75, 64
1, 125713, Note_off_c, 0, 71, 64
1, 125713, Note_off_c, 0, 66, 64
1, 125735, Note_on_c, 0, 63, 51
1, 125774, Note_off_c, 0, 63, 64
1, 125816, Note_on_c, 0, 59, 44
1, 125869, Note_off_c, 0, 59, 64
1, 125891, Note_on_c, 0, 54, 58
1, 125933, Note_on_c, 0, 78, 56
1, 125948, Note_off_c, 0, 54, 64
1, 126016, Note_off_c, 0, 78, 64
1, 126016, Note_on_c, 0, 84, 65
1, 126106, Note_on_c, 0, 87, 53
1, 126195, Note_on_c, 0, 32, 48
1, 126235, Control_c, 0, 64, 0
1, 126310, Note_on_c, 0, 93, 68
1, 126384, Note_off_c, 0, 32, 64
1, 126402, Control_c, 0, 64, 127
1, 126435, Note_off_c, 0, 93, 64
1, 126460, Note_off_c, 0, 87, 64
1, 126465, Note_off_c, 0, 84, 64
1, 126569, Note_on_c, 0, 44, 52
1, 126686, Note_off_c, 0, 44, 64
1, 126703, Note_on_c, 0, 60, 61
1, 126706, Note_on_c, 0, 51, 47
1, 126747, Note_off_c, 0, 60, 64
1, 126785, Note_off_c, 0, 51, 64
1, 126800, Note_on_c, 0, 54, 46
1, 126810, Note_on_c, 0, 63, 62
1, 126839, Note_off_c, 0, 63, 64
1, 126849, Note_off_c, 0, 54, 64
1, 126894, Note_on_c, 0, 60, 47
1, 126905, Note_on_c, 0, 69, 49
1, 126950, Note_off_c, 0, 69, 64
1, 126959, Note_off_c, 0, 60, 64
1, 126997, Note_on_c, 0, 63, 53
1, 127000, Note_on_c, 0, 72, 63
1, 127045, Note_off_c, 0, 72, 64
1, 127084, Note_on_c, 0, 66, 55
1, 127084, Note_on_c, 0, 75, 55
1, 127098, Note_off_c, 0, 63, 64
1, 127122, Note_off_c, 0, 75, 64
1, 127133, Note_off_c, 0, 66, 64
1, 127181, Note_on_c, 0, 72, 49
1, 127181, Note_on_c, 0, 81, 67
1, 127215, Note_off_c, 0, 81, 64
1, 127220, Note_off_c, 0, 72, 64
1, 127259, Note_on_c, 0, 84, 75
1, 127265, Note_on_c, 0, 75, 48
1, 127292, Note_off_c, 0, 84, 64
1, 127320, Note_on_c, 0, 78, 51
1, 127329, Note_on_c, 0, 87, 65
1, 127362, Note_off_c, 0, 78, 64
1, 127395, Note_off_c, 0, 87, 64
1, 127401, Note_on_c, 0, 93, 74
1, 127401, Note_on_c, 0, 84, 72
1, 127440, Note_off_c, 0, 84, 64
1, 127471, Note_on_c, 0, 87, 55
1, 127474, Note_on_c, 0, 78, 31
1, 127480, Note_off_c, 0, 75, 64
1, 127490, Note_off_c, 0, 93, 64
1, 127501, Note_on_c, 0, 72, 53
1, 127510, Note_off_c, 0, 87, 64
1, 127521, Note_off_c, 0, 78, 64
1, 127535, Note_on_c, 0, 81, 70
1, 127535, Note_off_c, 0, 72, 64
1, 127569, Note_off_c, 0, 81, 64
1, 127625, Note_on_c, 0, 66, 59
1, 127660, Note_off_c, 0, 66, 64
1, 127694, Note_on_c, 0, 81, 84
1, 127732, Note_off_c, 0, 81, 64
1, 127861, Note_on_c, 0, 93, 66
1, 127880, Note_on_c, 0, 78, 31
1, 127925, Note_on_c, 0, 87, 58
1, 127925, Note_off_c, 0, 78, 64
1, 127930, Note_on_c, 0, 72, 41
1, 127947, Note_off_c, 0, 93, 64
1, 127961, Note_off_c, 0, 87, 64
1, 127978, Note_off_c, 0, 72, 64
1, 127995, Note_on_c, 0, 81, 52
1, 128036, Note_off_c, 0, 81, 64
1, 128076, Note_on_c, 0, 66, 47
1, 128076, Note_on_c, 0, 75, 58
1, 128109, Note_off_c, 0, 75, 64
1, 128122, Note_off_c, 0, 66, 64
1, 128148, Note_on_c, 0, 81, 70
1, 128182, Note_off_c, 0, 81, 64
1, 128239, Note_on_c, 0, 87, 45
1, 128317, Note_on_c, 0, 78, 62
1, 128331, Note_off_c, 0, 87, 64
1, 128356, Note_off_c, 0, 78, 64
1, 128384, Note_on_c, 0, 84, 55
1, 128421, Note_off_c, 0, 84, 64
1, 128449, Note_on_c, 0, 32, 47
1, 128462, Note_on_c, 0, 87, 25
1, 128512, Note_off_c, 0, 32, 64
1, 128518, Note_off_c, 0, 87, 64
1, 128529, Note_on_c, 0, 93, 58
1, 128594, Note_off_c, 0, 93, 64
1, 128758, Note_on_c, 0, 44, 48
1, 128803, Note_off_c, 0, 44, 64
1, 128855, Note_on_c, 0, 51, 34
1, 128855, Note_on_c, 0, 60, 33
1, 128903, Note_off_c, 0, 51, 64
1, 128911, Note_on_c, 0, 54, 51
1, 128911, Note_off_c, 0, 60, 64
1, 128923, Note_on_c, 0, 63, 55
1, 128955, Note_off_c, 0, 54, 64
1, 128955, Note_off_c, 0, 63, 64
1, 129000, Note_on_c, 0, 60, 19
1, 129005, Note_on_c, 0, 69, 40
1, 129048, Note_off_c, 0, 69, 64
1, 129056, Note_off_c, 0, 60, 64
1, 129086, Note_on_c, 0, 63, 60
1, 129097, Note_on_c, 0, 72, 52
1, 129134, Note_off_c, 0, 72, 64
1, 129143, Note_off_c, 0, 63, 64
1, 129151, Note_on_c, 0, 75, 61
1, 129160, Note_on_c, 0, 66, 40
1, 129184, Note_off_c, 0, 75, 64
1, 129204, Note_off_c, 0, 66, 64
1, 129237, Note_on_c, 0, 72, 39
1, 129249, Note_on_c, 0, 81, 36
1, 129277, Note_off_c, 0, 72, 64
1, 129299, Note_on_c, 0, 84, 72
1, 129299, Note_off_c, 0, 81, 64
1, 129320, Note_on_c, 0, 75, 49
1, 129335, Note_off_c, 0, 84, 64
1, 129360, Note_on_c, 0, 87, 59
1, 129365, Note_on_c, 0, 78, 52
1, 129384, Note_off_c, 0, 75, 64
1, 129412, Note_off_c, 0, 78, 64
1, 129416, Note_off_c, 0, 87, 64
1, 129440, Note_on_c, 0, 93, 54
1, 129448, Note_on_c, 0, 84, 36
1, 129496, Note_off_c, 0, 84, 64
1, 129500, Note_on_c, 0, 78, 52
1, 129500, Note_off_c, 0, 93, 64
1, 129500, Note_on_c, 0, 87, 48
1, 129536, Note_off_c, 0, 87, 64
1, 129547, Note_off_c, 0, 78, 64
1, 129554, Note_on_c, 0, 72, 39
1, 129558, Note_on_c, 0, 81, 66
1, 129594, Note_off_c, 0, 81, 64
1, 129594, Note_off_c, 0, 72, 64
1, 129639, Note_on_c, 0, 75, 66
1, 129647, Note_on_c, 0, 66, 62
1, 129671, Note_off_c, 0, 75, 64
1, 129682, Note_off_c, 0, 66, 64
1, 129711, Note_on_c, 0, 81, 75
1, 129744, Note_off_c, 0, 81, 64
1, 129795, Note_on_c, 0, 87, 54
1, 129838, Note_off_c, 0, 87, 64
1, 129855, Note_on_c, 0, 93, 80
1, 129877, Note_on_c, 0, 78, 44
1, 129919, Note_off_c, 0, 78, 64
1, 129933, Note_on_c, 0, 72, 38
1, 129933, Note_on_c, 0, 87, 54
1, 129948, Note_off_c, 0, 93, 64
1, 129969, Note_off_c, 0, 87, 64
1, 129981, Note_off_c, 0, 72, 64
1, 129994, Note_on_c, 0, 81, 65
1, 130031, Note_off_c, 0, 81, 64
1, 130076, Note_on_c, 0, 75, 55
1, 130089, Note_on_c, 0, 66, 38
1, 130111, Note_off_c, 0, 75, 64
1, 130142, Note_on_c, 0, 81, 64
1, 130150, Note_off_c, 0, 66, 64
1, 130179, Note_off_c, 0, 81, 64
1, 130226, Note_on_c, 0, 87, 50
1, 130279, Note_off_c, 0, 87, 64
1, 130320, Note_on_c, 0, 78, 55
1, 130366, Note_off_c, 0, 78, 64
1, 130391, Note_on_c, 0, 84, 53
1, 130430, Note_off_c, 0, 84, 64
1, 130465, Note_on_c, 0, 87, 25
1, 130477, Note_on_c, 0, 32, 42
1, 130518, Note_off_c, 0, 32, 64
1, 130522, Note_off_c, 0, 87, 64
1, 130535, Note_on_c, 0, 93, 60
1, 130575, Note_off_c, 0, 93, 64
1, 130756, Note_on_c, 0, 44, 52
1, 130820, Note_off_c, 0, 44, 64
1, 130852, Note_on_c, 0, 60, 54
1, 130864, Note_on_c, 0, 51, 34
1, 130897, Note_off_c, 0, 60, 64
1, 130917, Note_off_c, 0, 51, 64
1, 130925, Note_on_c, 0, 54, 53
1, 130939, Note_on_c, 0, 63, 62
1, 130965, Note_off_c, 0, 54, 64
1, 130975, Note_off_c, 0, 63, 64
1, 131037, Note_on_c, 0, 69, 56
1, 131048, Note_on_c, 0, 60, 32
1, 131081, Note_off_c, 0, 69, 64
1, 131104, Note_off_c, 0, 60, 64
1, 131112, Note_on_c, 0, 63, 61
1, 131140, Note_on_c, 0, 72, 24
1, 131173, Note_off_c, 0, 63, 64
1, 131193, Note_off_c, 0, 72, 64
1, 131213, Note_on_c, 0, 75, 56
1, 131216, Note_on_c, 0, 66, 34
1, 131246, Note_off_c, 0, 75, 64
1, 131270, Note_off_c, 0, 66, 64
1, 131298, Note_on_c, 0, 72, 30
1, 131302, Note_on_c, 0, 81, 64
1, 131335, Note_off_c, 0, 81, 64
1, 131348, Note_off_c, 0, 72, 64
1, 131383, Note_on_c, 0, 75, 40
1, 131390, Note_on_c, 0, 84, 50
1, 131429, Note_off_c, 0, 84, 64
1, 131437, Note_on_c, 0, 78, 55
1, 131446, Note_on_c, 0, 87, 60
1, 131469, Note_off_c, 0, 75, 64
1, 131488, Note_off_c, 0, 78, 64
1, 131538, Note_off_c, 0, 87, 64
1, 131538, Note_on_c, 0, 84, 52
1, 131538, Note_on_c, 0, 93, 61
1, 131582, Note_off_c, 0, 84, 64
1, 131625, Note_on_c, 0, 87, 44
1, 131635, Note_off_c, 0, 93, 64
1, 131639, Note_on_c, 0, 78, 34
1, 131666, Note_on_c, 0, 72, 48
1, 131666, Note_off_c, 0, 87, 64
1, 131688, Note_off_c, 0, 78, 64
1, 131699, Note_on_c, 0, 81, 65
1, 131703, Note_off_c, 0, 72, 64
1, 131738, Note_off_c, 0, 81, 64
1, 131805, Note_on_c, 0, 66, 60
1, 131823, Note_on_c, 0, 75, 17
1, 131855, Note_off_c, 0, 66, 64
1, 131869, Note_off_c, 0, 75, 64
1, 131894, Note_on_c, 0, 81, 69
1, 131931, Note_off_c, 0, 81, 64
1, 131976, Note_on_c, 0, 87, 57
1, 132032, Note_off_c, 0, 87, 64
1, 132057, Note_on_c, 0, 93, 72
1, 132117, Note_on_c, 0, 78, 43
1, 132139, Note_off_c, 0, 93, 64
1, 132145, Note_on_c, 0, 87, 48
1, 132151, Note_on_c, 0, 72, 42
1, 132156, Note_off_c, 0, 78, 64
1, 132181, Note_off_c, 0, 87, 64
1, 132196, Note_off_c, 0, 72, 64
1, 132196, Note_on_c, 0, 81, 63
1, 132235, Note_off_c, 0, 81, 64
1, 132285, Note_on_c, 0, 75, 62
1, 132295, Note_on_c, 0, 66, 41
1, 132318, Note_off_c, 0, 75, 64
1, 132337, Note_off_c, 0, 66, 64
1, 132363, Note_on_c, 0, 81, 57
1, 132402, Note_off_c, 0, 81, 64
1, 132438, Note_on_c, 0, 87, 48
1, 132482, Note_off_c, 0, 87, 64
1, 132505, Note_on_c, 0, 84, 60
1, 132515, Note_on_c, 0, 93, 68
1, 132539, Note_off_c, 0, 84, 64
1, 132566, Note_on_c, 0, 78, 34
1, 132574, Note_off_c, 0, 93, 64
1, 132588, Note_on_c, 0, 87, 48
1, 132588, Note_on_c, 0, 72, 46
1, 132614, Note_off_c, 0, 78, 64
1, 132622, Note_off_c, 0, 87, 64
1, 132632, Note_off_c, 0, 72, 64
1, 132641, Note_on_c, 0, 81, 61
1, 132677, Note_off_c, 0, 81, 64
1, 132727, Note_on_c, 0, 75, 56
1, 132733, Note_on_c, 0, 66, 31
1, 132759, Note_off_c, 0, 75, 64
1, 132786, Note_off_c, 0, 66, 64
1, 132798, Note_on_c, 0, 81, 63
1, 132831, Note_off_c, 0, 81, 64
1, 132873, Note_on_c, 0, 87, 52
1, 132920, Note_off_c, 0, 87, 64
1, 132936, Note_on_c, 0, 84, 44
1, 132947, Note_on_c, 0, 93, 60
1, 132978, Note_off_c, 0, 84, 64
1, 132990, Note_on_c, 0, 78, 33
1, 133026, Note_on_c, 0, 87, 52
1, 133026, Note_off_c, 0, 93, 64
1, 133036, Note_off_c, 0, 78, 64
1, 133051, Note_on_c, 0, 72, 8
1, 133060, Note_off_c, 0, 87, 64
1, 133089, Note_off_c, 0, 72, 64
1, 133104, Note_on_c, 0, 81, 42
1, 133157, Note_off_c, 0, 81, 64
1, 133179, Note_on_c, 0, 66, 34
1, 133179, Note_on_c, 0, 75, 52
1, 133221, Note_off_c, 0, 75, 64
1, 133226, Note_off_c, 0, 66, 64
1, 133279, Note_on_c, 0, 81, 61
1, 133315, Note_off_c, 0, 81, 64
1, 133380, Note_on_c, 0, 87, 55
1, 133432, Note_off_c, 0, 87, 64
1, 133438, Control_c, 0, 64, 0
1, 133480, Note_on_c, 0, 87, 69
1, 133488, Note_on_c, 0, 96, 63
1, 133516, Note_off_c, 0, 87, 64
1, 133558, Control_c, 0, 64, 127
1, 133569, Note_off_c, 0, 96, 64
1, 133569, Note_on_c, 0, 87, 56
1, 133569, Note_on_c, 0, 78, 60
1, 133605, Note_off_c, 0, 78, 64
1, 133624, Note_off_c, 0, 87, 64
1, 133660, Note_on_c, 0, 81, 57
1, 133697, Note_off_c, 0, 81, 64
1, 133742, Note_on_c, 0, 84, 61
1, 133777, Note_off_c, 0, 84, 64
1, 133797, Note_on_c, 0, 75, 3
1, 133830, Note_on_c, 0, 66, 46
1, 133872, Note_off_c, 0, 66, 64
1, 133887, Note_off_c, 0, 75, 64
1, 133903, Note_on_c, 0, 69, 65
1, 133939, Note_on_c, 0, 59, 27
1, 133948, Note_off_c, 0, 69, 64
1, 133987, Note_off_c, 0, 59, 64
1, 134000, Note_on_c, 0, 66, 31
1, 134004, Note_on_c, 0, 75, 39
1, 134050, Note_off_c, 0, 66, 64
1, 134050, Note_off_c, 0, 75, 64
1, 134059, Note_on_c, 0, 69, 46
1, 134059, Note_on_c, 0, 78, 61
1, 134101, Note_off_c, 0, 69, 64
1, 134118, Note_off_c, 0, 78, 64
1, 134128, Note_on_c, 0, 84, 74
1, 134140, Note_on_c, 0, 75, 34
1, 134157, Note_off_c, 0, 84, 64
1, 134190, Note_off_c, 0, 75, 64
1, 134213, Note_on_c, 0, 81, 70
1, 134240, Note_on_c, 0, 71, 42
1, 134262, Note_off_c, 0, 81, 64
1, 134280, Note_on_c, 0, 78, 66
1, 134285, Note_on_c, 0, 87, 56
1, 134294, Note_off_c, 0, 71, 64
1, 134316, Note_off_c, 0, 78, 64
1, 134326, Note_off_c, 0, 87, 64
1, 134351, Note_on_c, 0, 81, 34
1, 134357, Note_on_c, 0, 90, 69
1, 134402, Note_off_c, 0, 81, 64
1, 134422, Note_off_c, 0, 90, 64
1, 134422, Note_on_c, 0, 87, 55
1, 134427, Note_on_c, 0, 96, 87
1, 134458, Note_off_c, 0, 87, 64
1, 134504, Note_off_c, 0, 96, 64
1, 134504, Note_on_c, 0, 87, 62
1, 134513, Note_on_c, 0, 78, 62
1, 134547, Note_off_c, 0, 78, 64
1, 134547, Note_off_c, 0, 87, 64
1, 134571, Note_on_c, 0, 71, 65
1, 134580, Note_on_c, 0, 81, 68
1, 134606, Note_off_c, 0, 71, 64
1, 134614, Note_off_c, 0, 81, 64
1, 134653, Note_on_c, 0, 75, 65
1, 134658, Note_on_c, 0, 84, 79
1, 134684, Note_off_c, 0, 75, 64
1, 134706, Note_off_c, 0, 84, 64
1, 134725, Note_on_c, 0, 75, 67
1, 134786, Note_off_c, 0, 75, 64
1, 134806, Note_on_c, 0, 69, 70
1, 134859, Note_off_c, 0, 69, 64
1, 134904, Note_on_c, 0, 75, 54
1, 134912, Note_on_c, 0, 66, 37
1, 134945, Note_off_c, 0, 75, 64
1, 134961, Note_off_c, 0, 66, 64
1, 134967, Note_on_c, 0, 78, 61
1, 134973, Note_on_c, 0, 69, 47
1, 135015, Note_off_c, 0, 69, 64
1, 135029, Note_on_c, 0, 84, 69
1, 135032, Note_off_c, 0, 78, 64
1, 135045, Note_on_c, 0, 75, 49
1, 135060, Note_off_c, 0, 84, 64
1, 135085, Note_off_c, 0, 75, 64
1, 135117, Note_on_c, 0, 81, 66
1, 135162, Note_off_c, 0, 81, 64
1, 135188, Note_on_c, 0, 87, 56
1, 135196, Note_on_c, 0, 78, 57
1, 135234, Note_off_c, 0, 78, 64
1, 135238, Note_off_c, 0, 87, 64
1, 135259, Note_on_c, 0, 90, 68
1, 135265, Note_on_c, 0, 81, 41
1, 135310, Note_off_c, 0, 81, 64
1, 135330, Note_on_c, 0, 87, 68
1, 135340, Note_on_c, 0, 96, 83
1, 135358, Note_off_c, 0, 90, 64
1, 135363, Note_off_c, 0, 87, 64
1, 135415, Note_on_c, 0, 87, 58
1, 135421, Note_off_c, 0, 96, 64
1, 135425, Note_on_c, 0, 78, 60
1, 135491, Note_on_c, 0, 81, 56
1, 135499, Note_on_c, 0, 90, 60
1, 135503, Note_off_c, 0, 78, 64
1, 135510, Note_off_c, 0, 87, 64
1, 135527, Note_off_c, 0, 81, 64
1, 135555, Note_off_c, 0, 90, 64
1, 135572, Note_on_c, 0, 71, 65
1, 135581, Note_on_c, 0, 81, 64
1, 135613, Note_off_c, 0, 71, 64
1, 135619, Note_off_c, 0, 81, 64
1, 135644, Note_on_c, 0, 87, 52
1, 135647, Note_on_c, 0, 78, 50
1, 135689, Note_off_c, 0, 87, 64
1, 135689, Note_off_c, 0, 78, 64
1, 135700, Note_on_c, 0, 90, 59
1, 135712, Note_on_c, 0, 81, 44
1, 135762, Note_off_c, 0, 81, 64
1, 135770, Note_on_c, 0, 87, 62
1, 135775, Note_on_c, 0, 96, 89
1, 135789, Note_off_c, 0, 90, 64
1, 135797, Note_off_c, 0, 87, 64
1, 135825, Note_off_c, 0, 96, 64
1, 135840, Note_on_c, 0, 87, 62
1, 135861, Note_on_c, 0, 78, 65
1, 135917, Note_on_c, 0, 81, 61
1, 135928, Note_on_c, 0, 90, 62
1, 135937, Note_off_c, 0, 87, 64
1, 135943, Note_off_c, 0, 78, 64
1, 135951, Note_off_c, 0, 81, 64
1, 135973, Note_off_c, 0, 90, 64
1, 135989, Note_on_c, 0, 71, 65
1, 136001, Note_on_c, 0, 81, 68
1, 136028, Note_off_c, 0, 71, 64
1, 136037, Note_off_c, 0, 81, 64
1, 136059, Note_on_c, 0, 87, 64
1, 136063, Note_on_c, 0, 78, 48
1, 136107, Note_off_c, 0, 78, 64
1, 136112, Note_on_c, 0, 81, 43
1, 136117, Note_on_c, 0, 90, 66
1, 136134, Note_off_c, 0, 87, 64
1, 136163, Note_off_c, 0, 81, 64
1, 136184, Note_on_c, 0, 87, 66
1, 136191, Note_on_c, 0, 96, 91
1, 136210, Note_off_c, 0, 90, 64
1, 136210, Note_off_c, 0, 87, 64
1, 136257, Note_on_c, 0, 87, 59
1, 136273, Note_on_c, 0, 78, 64
1, 136280, Note_off_c, 0, 96, 64
1, 136336, Note_on_c, 0, 90, 52
1, 136343, Note_on_c, 0, 81, 44
1, 136351, Note_off_c, 0, 78, 64
1, 136360, Note_off_c, 0, 87, 64
1, 136397, Note_on_c, 0, 71, 62
1, 136402, Note_off_c, 0, 90, 64
1, 136438, Note_off_c, 0, 71, 64
1, 136469, Note_on_c, 0, 78, 55
1, 136474, Note_on_c, 0, 87, 62
1, 136480, Note_off_c, 0, 81, 64
1, 136510, Note_off_c, 0, 78, 64
1, 136521, Note_off_c, 0, 87, 64
1, 136531, Note_on_c, 0, 90, 60
1, 136539, Note_on_c, 0, 81, 59
1, 136578, Note_off_c, 0, 81, 64
1, 136605, Note_on_c, 0, 87, 52
1, 136610, Note_on_c, 0, 96, 83
1, 136628, Note_off_c, 0, 90, 64
1, 136634, Note_off_c, 0, 87, 64
1, 136681, Note_off_c, 0, 96, 64
1, 136684, Note_on_c, 0, 87, 55
1, 136692, Note_on_c, 0, 78, 61
1, 136764, Note_on_c, 0, 90, 47
1, 136781, Note_off_c, 0, 87, 64
1, 136794, Note_on_c, 0, 81, 37
1, 136804, Note_off_c, 0, 78, 64
1, 136828, Note_off_c, 0, 90, 64
1, 136865, Note_on_c, 0, 71, 51
1, 136907, Note_off_c, 0, 71, 64
1, 136914, Note_on_c, 0, 87, 54
1, 136920, Note_off_c, 0, 81, 64
1, 136936, Note_on_c, 0, 78, 33
1, 136978, Note_on_c, 0, 90, 55
1, 136982, Note_on_c, 0, 81, 49
1, 136982, Note_off_c, 0, 87, 64
1, 136990, Note_off_c, 0, 78, 64
1, 137028, Note_off_c, 0, 81, 64
1, 137056, Note_on_c, 0, 87, 46
1, 137067, Note_on_c, 0, 96, 80
1, 137084, Note_off_c, 0, 90, 64
1, 137090, Note_off_c, 0, 87, 64
1, 137132, Note_on_c, 0, 87, 65
1, 137140, Note_off_c, 0, 96, 64
1, 137148, Note_on_c, 0, 78, 54
1, 137205, Note_off_c, 0, 78, 64
1, 137219, Note_on_c, 0, 90, 53
1, 137243, Note_off_c, 0, 87, 64
1, 137279, Note_on_c, 0, 71, 63
1, 137296, Note_on_c, 0, 81, 2
1, 137315, Note_off_c, 0, 71, 64
1, 137315, Note_off_c, 0, 90, 64
1, 137365, Note_off_c, 0, 81, 64
1, 137375, Note_on_c, 0, 87, 53
1, 137394, Note_on_c, 0, 75, 59
1, 137436, Note_off_c, 0, 75, 64
1, 137453, Note_on_c, 0, 90, 54
1, 137483, Note_off_c, 0, 87, 64
1, 137506, Note_on_c, 0, 66, 48
1, 137535, Note_off_c, 0, 90, 64
1, 137546, Note_on_c, 0, 96, 60
1, 137550, Note_off_c, 0, 66, 64
1, 137644, Note_on_c, 0, 84, 60
1, 137644, Control_c, 0, 64, 0
1, 137648, Note_off_c, 0, 96, 64
1, 137670, Note_on_c, 0, 56, 46
1, 137740, Note_off_c, 0, 84, 64
1, 137743, Note_on_c, 0, 90, 47
1, 137776, Control_c, 0, 64, 127
1, 137787, Note_off_c, 0, 56, 64
1, 137800, Note_on_c, 0, 63, 34
1, 137811, Note_off_c, 0, 90, 64
1, 137814, Note_on_c, 0, 92, 49
1, 137845, Note_off_c, 0, 63, 64
1, 137851, Note_off_c, 0, 92, 64
1, 137881, Note_on_c, 0, 66, 15
1, 137957, Note_off_c, 0, 66, 64
1, 137957, Note_on_c, 0, 101, 46
1, 138026, Note_on_c, 0, 72, 31
1, 138048, Note_off_c, 0, 101, 64
1, 138059, Note_on_c, 0, 99, 50
1, 138070, Note_off_c, 0, 72, 64
1, 138126, Note_off_c, 0, 99, 64
1, 138143, Note_on_c, 0, 97, 36
1, 138185, Note_off_c, 0, 97, 64
1, 138193, Note_on_c, 0, 96, 50
1, 138235, Note_off_c, 0, 96, 64
1, 138265, Note_on_c, 0, 94, 44
1, 138313, Note_on_c, 0, 92, 48
1, 138329, Note_off_c, 0, 94, 64
1, 138386, Note_on_c, 0, 91, 31
1, 138397, Note_off_c, 0, 92, 64
1, 138421, Note_on_c, 0, 85, 47
1, 138435, Note_off_c, 0, 91, 64
1, 138435, Note_on_c, 0, 94, 57
1, 138458, Note_off_c, 0, 85, 64
1, 138488, Note_on_c, 0, 84, 55
1, 138510, Note_on_c, 0, 92, 41
1, 138522, Note_off_c, 0, 94, 64
1, 138531, Note_off_c, 0, 84, 64
1, 138563, Note_on_c, 0, 90, 44
1, 138569, Note_on_c, 0, 82, 48
1, 138589, Note_off_c, 0, 92, 64
1, 138606, Note_off_c, 0, 90, 64
1, 138617, Note_off_c, 0, 82, 64
1, 138628, Note_on_c, 0, 89, 44
1, 138642, Note_on_c, 0, 80, 41
1, 138684, Note_on_c, 0, 87, 52
1, 138689, Note_off_c, 0, 89, 64
1, 138689, Note_off_c, 0, 80, 64
1, 138701, Note_on_c, 0, 78, 38
1, 138754, Note_off_c, 0, 78, 64
1, 138769, Note_on_c, 0, 77, 47
1, 138775, Note_on_c, 0, 86, 55
1, 138808, Note_off_c, 0, 77, 64
1, 138811, Note_off_c, 0, 87, 64
1, 138817, Note_on_c, 0, 82, 60
1, 138817, Note_off_c, 0, 86, 64
1, 138831, Note_on_c, 0, 90, 61
1, 138907, Note_on_c, 0, 89, 59
1, 138918, Note_off_c, 0, 82, 64
1, 138918, Note_on_c, 0, 80, 46
1, 138926, Note_off_c, 0, 90, 64
1, 138950, Note_on_c, 0, 87, 43
1, 138950, Note_on_c, 0, 78, 55
1, 138953, Note_off_c, 0, 89, 64
1, 138960, Note_off_c, 0, 80, 64
1, 138992, Note_off_c, 0, 78, 64
1, 138995, Note_on_c, 0, 85, 59
1, 139012, Note_off_c, 0, 87, 64
1, 139029, Note_off_c, 0, 85, 64
1, 139045, Note_on_c, 0, 77, 76
1, 139049, Note_on_c, 0, 84, 58
1, 139081, Note_off_c, 0, 77, 64
1, 139095, Note_off_c, 0, 84, 64
1, 139101, Note_on_c, 0, 82, 65
1, 139129, Note_on_c, 0, 73, 49
1, 139165, Note_on_c, 0, 80, 61
1, 139179, Note_off_c, 0, 73, 64
1, 139184, Note_on_c, 0, 72, 50
1, 139205, Note_off_c, 0, 82, 64
1, 139216, Note_on_c, 0, 79, 69
1, 139241, Note_off_c, 0, 80, 64
1, 139246, Note_on_c, 0, 71, 56
1, 139255, Note_off_c, 0, 79, 64
1, 139274, Note_on_c, 0, 82, 51
1, 139294, Note_off_c, 0, 71, 64
1, 139297, Note_off_c, 0, 72, 64
1, 139304, Note_on_c, 0, 73, 59
1, 139336, Note_on_c, 0, 80, 57
1, 139341, Note_off_c, 0, 73, 64
1, 139368, Note_on_c, 0, 72, 55
1, 139368, Note_off_c, 0, 82, 64
1, 139389, Note_on_c, 0, 78, 64
1, 139422, Note_off_c, 0, 72, 64
1, 139425, Note_off_c, 0, 80, 64
1, 139430, Note_off_c, 0, 78, 64
1, 139438, Note_on_c, 0, 77, 61
1, 139444, Note_on_c, 0, 70, 55
1, 139497, Note_on_c, 0, 75, 60
1, 139497, Note_off_c, 0, 77, 64
1, 139497, Note_off_c, 0, 70, 64
1, 139497, Note_on_c, 0, 68, 48
1, 139539, Note_on_c, 0, 66, 47
1, 139550, Note_off_c, 0, 68, 64
1, 139567, Note_on_c, 0, 74, 76
1, 139597, Note_off_c, 0, 75, 64
1, 139597, Control_c, 0, 64, 0
1, 139606, Note_off_c, 0, 74, 64
1, 139606, Note_on_c, 0, 78, 66
1, 139606, Note_on_c, 0, 65, 42
1, 139609, Note_off_c, 0, 66, 64
1, 139625, Note_on_c, 0, 70, 69
1, 139645, Note_off_c, 0, 65, 64
1, 139666, Note_on_c, 0, 77, 63
1, 139706, Control_c, 0, 64, 127
1, 139711, Note_on_c, 0, 68, 43
1, 139717, Note_off_c, 0, 78, 64
1, 139717, Note_off_c, 0, 70, 64
1, 139720, Note_on_c, 0, 75, 62
1, 139731, Note_on_c, 0, 66, 43
1, 139745, Note_on_c, 0, 73, 65
1, 139751, Note_off_c, 0, 68, 64
1, 139751, Note_off_c, 0, 77, 64
1, 139762, Note_off_c, 0, 75, 64
1, 139773, Note_off_c, 0, 66, 64
1, 139786, Note_off_c, 0, 73, 64
1, 139795, Note_on_c, 0, 72, 59
1, 139798, Note_on_c, 0, 65, 56
1, 139836, Note_off_c, 0, 65, 64
1, 139840, Note_off_c, 0, 72, 64
1, 139853, Note_on_c, 0, 70, 65
1, 139861, Note_on_c, 0, 63, 37
1, 139884, Note_on_c, 0, 61, 48
1, 139907, Note_off_c, 0, 63, 64
1, 139914, Note_on_c, 0, 68, 47
1, 139926, Note_on_c, 0, 60, 52
1, 139932, Note_off_c, 0, 61, 64
1, 139949, Note_off_c, 0, 70, 64
1, 139953, Note_on_c, 0, 67, 73
1, 139965, Note_off_c, 0, 68, 64
1, 139974, Note_on_c, 0, 59, 62
1, 139982, Control_c, 0, 64, 0
1, 139987, Note_off_c, 0, 60, 64
1, 139995, Note_off_c, 0, 67, 64
1, 139998, Note_on_c, 0, 70, 61
1, 140017, Note_off_c, 0, 59, 64
1, 140027, Note_on_c, 0, 61, 59
1, 140068, Note_off_c, 0, 61, 64
1, 140074, Note_on_c, 0, 68, 64
1, 140090, Note_on_c, 0, 60, 71
1, 140098, Note_off_c, 0, 70, 64
1, 140120, Note_on_c, 0, 66, 49
1, 140124, Control_c, 0, 64, 127
1, 140138, Note_off_c, 0, 68, 64
1, 140138, Note_off_c, 0, 60, 64
1, 140158, Note_off_c, 0, 66, 64
1, 140161, Note_on_c, 0, 65, 61
1, 140161, Note_on_c, 0, 58, 50
1, 140199, Note_on_c, 0, 56, 61
1, 140210, Note_off_c, 0, 58, 64
1, 140215, Note_off_c, 0, 65, 64
1, 140227, Note_on_c, 0, 63, 62
1, 140243, Note_on_c, 0, 54, 61
1, 140282, Note_off_c, 0, 56, 64
1, 140290, Note_on_c, 0, 62, 66
1, 140293, Control_c, 0, 64, 0
1, 140318, Note_off_c, 0, 54, 64
1, 140318, Note_on_c, 0, 53, 67
1, 140318, Note_off_c, 0, 63, 64
1, 140324, Note_on_c, 0, 66, 58
1, 140324, Note_on_c, 0, 58, 58
1, 140329, Note_off_c, 0, 62, 64
1, 140357, Note_off_c, 0, 53, 64
1, 140380, Note_on_c, 0, 65, 65
1, 140394, Note_on_c, 0, 56, 58
1, 140421, Note_off_c, 0, 58, 64
1, 140421, Note_off_c, 0, 66, 64
1, 140427, Note_on_c, 0, 63, 58
1, 140430, Note_on_c, 0, 54, 56
1, 140433, Note_off_c, 0, 56, 64
1, 140436, Control_c, 0, 64, 127
1, 140449, Note_off_c, 0, 65, 64
1, 140460, Note_on_c, 0, 61, 62
1, 140469, Note_off_c, 0, 63, 64
1, 140469, Note_off_c, 0, 54, 64
1, 140489, Note_on_c, 0, 53, 87
1, 140497, Note_off_c, 0, 61, 64
1, 140497, Note_on_c, 0, 60, 65
1, 140531, Note_off_c, 0, 53, 64
1, 140558, Note_off_c, 0, 60, 64
1, 140558, Note_on_c, 0, 51, 59
1, 140569, Note_on_c, 0, 58, 48
1, 140581, Note_on_c, 0, 49, 62
1, 140603, Note_off_c, 0, 51, 64
1, 140612, Note_on_c, 0, 56, 70
1, 140633, Note_on_c, 0, 48, 42
1, 140639, Note_off_c, 0, 49, 64
1, 140639, Control_c, 0, 64, 0
1, 140665, Note_off_c, 0, 58, 64
1, 140672, Note_on_c, 0, 55, 84
1, 140676, Note_off_c, 0, 48, 64
1, 140681, Note_on_c, 0, 47, 76
1, 140690, Note_off_c, 0, 56, 64
1, 140736, Note_on_c, 0, 56, 73
1, 140736, Note_on_c, 0, 48, 49
1, 140743, Note_off_c, 0, 55, 64
1, 140761, Note_on_c, 0, 49, 70
1, 140768, Note_off_c, 0, 47, 64
1, 140781, Note_on_c, 0, 58, 52
1, 140800, Note_off_c, 0, 48, 64
1, 140809, Control_c, 0, 64, 127
1, 140815, Note_on_c, 0, 51, 66
1, 140818, Note_off_c, 0, 58, 64
1, 140818, Note_off_c, 0, 56, 64
1, 140846, Note_off_c, 0, 49, 64
1, 140851, Note_on_c, 0, 60, 74
1, 140856, Note_off_c, 0, 51, 64
1, 140862, Note_on_c, 0, 53, 90
1, 140898, Note_off_c, 0, 60, 64
1, 140912, Note_on_c, 0, 61, 65
1, 140928, Control_c, 0, 64, 0
1, 140935, Note_on_c, 0, 54, 80
1, 140949, Note_off_c, 0, 53, 64
1, 140953, Note_on_c, 0, 63, 79
1, 140992, Note_on_c, 0, 56, 60
1, 140996, Note_off_c, 0, 61, 64
1, 141001, Note_on_c, 0, 65, 66
1, 141035, Note_on_c, 0, 58, 47
1, 141035, Note_off_c, 0, 54, 64
1, 141035, Control_c, 0, 64, 127
1, 141056, Note_on_c, 0, 66, 57
1, 141056, Note_off_c, 0, 63, 64
1, 141080, Note_off_c, 0, 56, 64
1, 141080, Note_off_c, 0, 65, 64
1, 141080, Note_off_c, 0, 58, 64
1, 141085, Note_on_c, 0, 59, 76
1, 141090, Note_off_c, 0, 66, 64
1, 141095, Control_c, 0, 64, 0
1, 141104, Note_on_c, 0, 67, 84
1, 141121, Note_off_c, 0, 59, 64
1, 141152, Note_off_c, 0, 67, 64
1, 141157, Note_on_c, 0, 60, 69
1, 141166, Note_on_c, 0, 68, 71
1, 141207, Note_on_c, 0, 61, 77
1, 141211, Note_on_c, 0, 70, 62
1, 141227, Note_off_c, 0, 60, 64
1, 141243, Note_off_c, 0, 70, 64
1, 141255, Note_off_c, 0, 68, 64
1, 141268, Note_on_c, 0, 63, 75
1, 141272, Note_on_c, 0, 72, 75
1, 141294, Note_off_c, 0, 61, 64
1, 141300, Note_off_c, 0, 63, 64
1, 141311, Note_on_c, 0, 65, 69
1, 141322, Note_off_c, 0, 72, 64
1, 141330, Note_on_c, 0, 73, 64
1, 141377, Note_on_c, 0, 75, 70
1, 141388, Note_on_c, 0, 66, 59
1, 141388, Note_off_c, 0, 65, 64
1, 141396, Control_c, 0, 64, 127
1, 141416, Note_off_c, 0, 73, 64
1, 141424, Note_on_c, 0, 77, 65
1, 141435, Note_on_c, 0, 68, 46
1, 141470, Note_on_c, 0, 70, 61
1, 141473, Note_off_c, 0, 75, 64
1, 141481, Note_off_c, 0, 66, 64
1, 141481, Note_on_c, 0, 78, 51
1, 141489, Note_off_c, 0, 77, 64
1, 141497, Note_off_c, 0, 68, 64
1, 141511, Note_off_c, 0, 70, 64
1, 141516, Control_c, 0, 64, 0
1, 141522, Note_off_c, 0, 78, 64
1, 141522, Note_on_c, 0, 71, 71
1, 141531, Note_on_c, 0, 79, 80
1, 141562, Note_off_c, 0, 71, 64
1, 141578, Note_off_c, 0, 79, 64
1, 141597, Note_on_c, 0, 72, 58
1, 141601, Note_on_c, 0, 80, 69
1, 141636, Control_c, 0, 64, 127
1, 141636, Note_on_c, 0, 82, 62
1, 141642, Note_off_c, 0, 72, 64
1, 141647, Note_on_c, 0, 73, 50
1, 141651, Note_off_c, 0, 80, 64
1, 141670, Note_off_c, 0, 82, 64
1, 141683, Control_c, 0, 64, 0
1, 141689, Note_off_c, 0, 73, 64
1, 141698, Note_on_c, 0, 75, 54
1, 141703, Note_on_c, 0, 84, 76
1, 141736, Note_off_c, 0, 75, 64
1, 141740, Note_on_c, 0, 77, 64
1, 141740, Note_off_c, 0, 84, 64
1, 141758, Note_on_c, 0, 85, 69
1, 141775, Note_off_c, 0, 77, 64
1, 141792, Control_c, 0, 64, 127
1, 141814, Note_on_c, 0, 87, 54
1, 141814, Note_on_c, 0, 78, 62
1, 141851, Note_off_c, 0, 85, 64
1, 141857, Note_on_c, 0, 80, 48
1, 141857, Note_off_c, 0, 78, 64
1, 141867, Note_on_c, 0, 89, 60
1, 141904, Note_off_c, 0, 80, 64
1, 141910, Note_off_c, 0, 87, 64
1, 141910, Note_off_c, 0, 89, 64
1, 141921, Note_on_c, 0, 81, 57
1, 141924, Note_on_c, 0, 90, 35
1, 141962, Note_off_c, 0, 81, 64
1, 141970, Note_on_c, 0, 91, 55
1, 141979, Note_off_c, 0, 90, 64
1, 142002, Note_on_c, 0, 82, 39
1, 142007, Note_off_c, 0, 91, 64
1, 142032, Note_on_c, 0, 92, 62
1, 142048, Note_on_c, 0, 83, 73
1, 142048, Note_off_c, 0, 82, 64
1, 142068, Note_off_c, 0, 92, 64
1, 142091, Note_off_c, 0, 83, 64
1, 142101, Note_on_c, 0, 93, 54
1, 142104, Note_on_c, 0, 84, 62
1, 142138, Note_off_c, 0, 93, 64
1, 142154, Note_on_c, 0, 94, 61
1, 142166, Note_off_c, 0, 84, 64
1, 142172, Note_on_c, 0, 85, 36
1, 142186, Note_off_c, 0, 94, 64
1, 142208, Note_on_c, 0, 86, 59
1, 142219, Note_off_c, 0, 85, 64
1, 142222, Control_c, 0, 64, 0
1, 142229, Note_on_c, 0, 95, 49
1, 142246, Note_off_c, 0, 86, 64
1, 142275, Note_on_c, 0, 87, 42
1, 142275, Note_off_c, 0, 95, 64
1, 142305, Note_on_c, 0, 96, 38
1, 142352, Note_off_c, 0, 96, 64
1, 142363, Note_off_c, 0, 87, 64
1, 142363, Note_on_c, 0, 88, 33
1, 142367, Note_on_c, 0, 97, 28
1, 142410, Note_off_c, 0, 88, 64
1, 142419, Note_off_c, 0, 97, 64
1, 142441, Note_on_c, 0, 98, 44
1, 142467, Note_on_c, 0, 89, 13
1, 142508, Note_off_c, 0, 98, 64
1, 142530, Note_off_c, 0, 89, 64
1, 142542, Note_on_c, 0, 90, 32
1, 142547, Note_on_c, 0, 99, 47
1, 142798, Control_c, 0, 64, 127
1, 142831, Note_off_c, 0, 90, 64
1, 142996, Note_off_c, 0, 99, 64
1, 143937, Control_c, 0, 64, 0
1, 144121, Note_on_c, 0, 56, 67
1, 144149, Note_on_c, 0, 37, 30
1, 144283, Control_c, 0, 64, 127
1, 144341, Note_off_c, 0, 56, 64
1, 144341, Note_on_c, 0, 61, 38
1, 144408, Note_off_c, 0, 37, 64
1, 144417, Note_off_c, 0, 61, 64
1, 144441, Note_on_c, 0, 68, 42
1, 144453, Note_on_c, 0, 44, 22
1, 144481, Note_off_c, 0, 68, 64
1, 144512, Note_off_c, 0, 44, 64
1, 144533, Note_on_c, 0, 68, 40
1, 144643, Note_off_c, 0, 68, 64
1, 144643, Note_on_c, 0, 73, 40
1, 144673, Note_on_c, 0, 53, 40
1, 144711, Note_off_c, 0, 73, 64
1, 144718, Note_off_c, 0, 53, 64
1, 144737, Note_on_c, 0, 80, 47
1, 144806, Note_off_c, 0, 80, 64
1, 144823, Note_on_c, 0, 82, 51
1, 144823, Note_on_c, 0, 58, 84
1, 144929, Note_on_c, 0, 73, 38
1, 144932, Note_off_c, 0, 82, 64
1, 144980, Note_off_c, 0, 73, 64
1, 144999, Note_on_c, 0, 70, 42
1, 145048, Note_off_c, 0, 70, 64
1, 145062, Note_off_c, 0, 58, 64
1, 145072, Note_on_c, 0, 53, 46
1, 145091, Note_on_c, 0, 70, 61
1, 145151, Note_off_c, 0, 53, 64
1, 145168, Note_off_c, 0, 70, 64
1, 145172, Note_on_c, 0, 49, 36
1, 145185, Note_on_c, 0, 61, 55
1, 145214, Note_off_c, 0, 49, 64
1, 145244, Note_on_c, 0, 58, 61
1, 145247, Note_off_c, 0, 61, 64
1, 145283, Note_off_c, 0, 58, 64
1, 145342, Note_on_c, 0, 37, 44
1, 145350, Note_on_c, 0, 61, 93
1, 145363, Control_c, 0, 64, 0
1, 145473, Note_on_c, 0, 68, 53
1, 145483, Note_off_c, 0, 37, 64
1, 145483, Control_c, 0, 64, 127
1, 145508, Note_on_c, 0, 44, 44
1, 145511, Note_off_c, 0, 61, 64
1, 145552, Note_on_c, 0, 73, 56
1, 145570, Note_off_c, 0, 68, 64
1, 145584, Note_off_c, 0, 73, 64
1, 145619, Note_on_c, 0, 73, 76
1, 145670, Note_off_c, 0, 44, 64
1, 145696, Note_on_c, 0, 53, 80
1, 145706, Note_on_c, 0, 80, 72
1, 145729, Note_off_c, 0, 73, 64
1, 145739, Note_off_c, 0, 53, 64
1, 145781, Note_on_c, 0, 85, 63
1, 145821, Note_off_c, 0, 80, 64
1, 145865, Note_on_c, 0, 87, 68
1, 145879, Note_on_c, 0, 63, 97
1, 145893, Note_off_c, 0, 85, 64
1, 145915, Control_c, 0, 64, 0
1, 145960, Note_on_c, 0, 82, 57
1, 146001, Note_off_c, 0, 87, 64
1, 146015, Note_off_c, 0, 82, 64
1, 146023, Note_on_c, 0, 75, 65
1, 146046, Control_c, 0, 64, 127
1, 146054, Note_off_c, 0, 75, 64
1, 146076, Note_on_c, 0, 58, 47
1, 146115, Note_on_c, 0, 75, 47
1, 146146, Note_off_c, 0, 63, 64
1, 146211, Note_off_c, 0, 75, 64
1, 146218, Note_on_c, 0, 54, 53
1, 146230, Note_off_c, 0, 58, 64
1, 146230, Note_on_c, 0, 70, 47
1, 146255, Note_off_c, 0, 54, 64
1, 146292, Note_on_c, 0, 63, 64
1, 146316, Note_off_c, 0, 70, 64
1, 146330, Note_off_c, 0, 63, 64
1, 146398, Note_on_c, 0, 37, 34
1, 146417, Control_c, 0, 64, 0
1, 146436, Note_on_c, 0, 65, 87
1, 146545, Note_off_c, 0, 37, 64
1, 146561, Control_c, 0, 64, 127
1, 146570, Note_on_c, 0, 70, 49
1, 146595, Note_off_c, 0, 65, 64
1, 146634, Note_on_c, 0, 46, 16
1, 146650, Note_on_c, 0, 77, 63
1, 146661, Note_off_c, 0, 70, 64
1, 146678, Note_off_c, 0, 77, 64
1, 146731, Note_on_c, 0, 77, 58
1, 146806, Note_off_c, 0, 77, 64
1, 146810, Note_on_c, 0, 54, 44
1, 146818, Note_on_c, 0, 82, 52
1, 146829, Note_off_c, 0, 46, 64
1, 146870, Note_off_c, 0, 54, 64
1, 146874, Note_off_c, 0, 82, 64
1, 146909, Note_on_c, 0, 89, 49
1, 147001, Note_off_c, 0, 89, 64
1, 147027, Note_on_c, 0, 87, 32
1, 147027, Note_on_c, 0, 63, 78
1, 147088, Control_c, 0, 64, 0
1, 147133, Note_on_c, 0, 82, 36
1, 147136, Note_off_c, 0, 87, 64
1, 147183, Note_off_c, 0, 82, 64
1, 147203, Note_on_c, 0, 75, 34
1, 147221, Control_c, 0, 64, 127
1, 147252, Note_off_c, 0, 75, 64
1, 147267, Note_on_c, 0, 58, 23
1, 147289, Note_off_c, 0, 63, 64
1, 147303, Note_on_c, 0, 75, 52
1, 147349, Note_off_c, 0, 75, 64
1, 147356, Note_off_c, 0, 58, 64
1, 147367, Note_on_c, 0, 54, 31
1, 147402, Note_on_c, 0, 70, 33
1, 147416, Note_off_c, 0, 54, 64
1, 147453, Note_off_c, 0, 70, 64
1, 147480, Note_on_c, 0, 63, 48
1, 147522, Note_off_c, 0, 63, 64
1, 147593, Note_on_c, 0, 37, 20
1, 147643, Note_on_c, 0, 58, 64
1, 147723, Control_c, 0, 64, 0
1, 147801, Note_on_c, 0, 63, 41
1, 147820, Control_c, 0, 64, 127
1, 147827, Note_off_c, 0, 58, 64
1, 147835, Note_off_c, 0, 37, 64
1, 147856, Note_off_c, 0, 63, 64
1, 147877, Note_on_c, 0, 46, 11
1, 147887, Note_on_c, 0, 70, 22
1, 147948, Note_off_c, 0, 70, 64
1, 147996, Note_on_c, 0, 70, 28
1, 148022, Note_on_c, 0, 54, 31
1, 148049, Note_off_c, 0, 70, 64
1, 148072, Note_off_c, 0, 46, 64
1, 148077, Note_on_c, 0, 75, 42
1, 148121, Note_off_c, 0, 54, 64
1, 148121, Note_off_c, 0, 75, 64
1, 148161, Note_on_c, 0, 82, 40
1, 148213, Note_off_c, 0, 82, 64
1, 148250, Note_on_c, 0, 61, 59
1, 148256, Note_on_c, 0, 85, 48
1, 148286, Control_c, 0, 64, 0
1, 148363, Note_off_c, 0, 85, 64
1, 148366, Note_on_c, 0, 80, 30
1, 148412, Note_off_c, 0, 80, 64
1, 148416, Note_on_c, 0, 73, 37
1, 148419, Control_c, 0, 64, 127
1, 148462, Note_off_c, 0, 73, 64
1, 148475, Note_on_c, 0, 56, 33
1, 148514, Note_on_c, 0, 73, 44
1, 148519, Note_off_c, 0, 61, 64
1, 148581, Note_off_c, 0, 73, 64
1, 148606, Note_off_c, 0, 56, 64
1, 148626, Note_on_c, 0, 68, 36
1, 148632, Note_on_c, 0, 53, 40
1, 148671, Note_off_c, 0, 68, 64
1, 148681, Note_off_c, 0, 53, 64
1, 148687, Note_on_c, 0, 61, 51
1, 148729, Note_off_c, 0, 61, 64
1, 148832, Note_on_c, 0, 37, 32
1, 148841, Note_on_c, 0, 56, 56
1, 148895, Note_off_c, 0, 56, 64
1, 148915, Note_on_c, 0, 61, 41
1, 148944, Note_off_c, 0, 37, 64
1, 148966, Note_off_c, 0, 61, 64
1, 148979, Note_on_c, 0, 68, 53
1, 148988, Note_on_c, 0, 44, 47
1, 149013, Note_off_c, 0, 68, 64
1, 149047, Note_off_c, 0, 44, 64
1, 149075, Note_on_c, 0, 61, 49
1, 149135, Note_off_c, 0, 61, 64
1, 149150, Note_on_c, 0, 68, 41
1, 149155, Note_on_c, 0, 53, 57
1, 149202, Note_off_c, 0, 53, 64
1, 149208, Note_off_c, 0, 68, 64
1, 149213, Note_on_c, 0, 73, 42
1, 149252, Note_off_c, 0, 73, 64
1, 149284, Note_on_c, 0, 68, 50
1, 149300, Note_on_c, 0, 56, 37
1, 149364, Note_off_c, 0, 56, 64
1, 149369, Note_off_c, 0, 68, 64
1, 149381, Note_on_c, 0, 73, 52
1, 149426, Note_off_c, 0, 73, 64
1, 149444, Note_on_c, 0, 80, 59
1, 149444, Note_on_c, 0, 61, 42
1, 149478, Note_off_c, 0, 80, 64
1, 149497, Note_off_c, 0, 61, 64
1, 149526, Note_on_c, 0, 73, 44
1, 149582, Note_off_c, 0, 73, 64
1, 149604, Note_on_c, 0, 80, 56
1, 149614, Note_on_c, 0, 65, 24
1, 149650, Note_off_c, 0, 80, 64
1, 149664, Note_on_c, 0, 85, 51
1, 149664, Note_off_c, 0, 65, 64
1, 149699, Note_off_c, 0, 85, 64
1, 149749, Note_on_c, 0, 80, 52
1, 149763, Note_on_c, 0, 68, 24
1, 149834, Note_on_c, 0, 85, 43
1, 149840, Note_off_c, 0, 80, 64
1, 149848, Note_off_c, 0, 68, 64
1, 149877, Note_off_c, 0, 85, 64
1, 149890, Note_on_c, 0, 92, 48
1, 149912, Note_on_c, 0, 73, 16
1, 149929, Note_off_c, 0, 92, 64
1, 149974, Note_on_c, 0, 85, 46
1, 149979, Note_off_c, 0, 73, 64
1, 150036, Note_off_c, 0, 85, 64
1, 150061, Note_on_c, 0, 77, 25
1, 150066, Note_on_c, 0, 92, 32
1, 150114, Note_off_c, 0, 77, 64
1, 150121, Note_off_c, 0, 92, 64
1, 150147, Note_on_c, 0, 97, 38
1, 150252, Note_on_c, 0, 92, 28
1, 150259, Note_off_c, 0, 97, 64
1, 150341, Note_on_c, 0, 85, 37
1, 150380, Note_off_c, 0, 92, 64
1, 150411, Note_off_c, 0, 85, 64
1, 150411, Note_on_c, 0, 80, 35
1, 150461, Note_off_c, 0, 80, 64
1, 150526, Note_on_c, 0, 73, 25
1, 150623, Note_on_c, 0, 68, 25
1, 150668, Note_off_c, 0, 73, 64
1, 150676, Note_off_c, 0, 68, 64
1, 150727, Note_on_c, 0, 61, 42
1, 150916, Note_on_c, 0, 56, 78
1, 150916, Note_off_c, 0, 61, 64
1, 150960, Note_on_c, 0, 37, 34
1, 151077, Note_off_c, 0, 37, 64
1, 151102, Note_off_c, 0, 56, 64
1, 151105, Note_on_c, 0, 61, 41
1, 151166, Note_off_c, 0, 61, 64
1, 151169, Note_on_c, 0, 44, 22
1, 151177, Note_on_c, 0, 68, 41
1, 151217, Note_off_c, 0, 44, 64
1, 151217, Note_off_c, 0, 68, 64
1, 151261, Note_on_c, 0, 68, 65
1, 151345, Note_off_c, 0, 68, 64
1, 151353, Note_on_c, 0, 53, 55
1, 151358, Note_on_c, 0, 73, 49
1, 151395, Note_off_c, 0, 53, 64
1, 151417, Note_off_c, 0, 73, 64
1, 151431, Note_on_c, 0, 80, 56
1, 151501, Note_on_c, 0, 58, 82
1, 151504, Note_on_c, 0, 82, 61
1, 151504, Note_off_c, 0, 80, 64
1, 151582, Note_on_c, 0, 73, 47
1, 151604, Note_off_c, 0, 82, 64
1, 151635, Note_off_c, 0, 73, 64
1, 151651, Note_on_c, 0, 70, 33
1, 151712, Note_off_c, 0, 70, 64
1, 151727, Note_on_c, 0, 53, 60
1, 151768, Note_on_c, 0, 70, 35
1, 151776, Note_off_c, 0, 58, 64
1, 151791, Note_off_c, 0, 53, 64
1, 151821, Note_on_c, 0, 49, 41
1, 151834, Note_off_c, 0, 70, 64
1, 151834, Note_on_c, 0, 61, 59
1, 151863, Note_off_c, 0, 49, 64
1, 151880, Note_on_c, 0, 58, 62
1, 151914, Note_off_c, 0, 61, 64
1, 151922, Note_off_c, 0, 58, 64
1, 151983, Note_on_c, 0, 37, 39
1, 152011, Note_on_c, 0, 61, 94
1, 152038, Control_c, 0, 64, 0
1, 152128, Note_off_c, 0, 37, 64
1, 152131, Note_on_c, 0, 68, 55
1, 152146, Control_c, 0, 64, 127
1, 152160, Note_on_c, 0, 44, 46
1, 152164, Note_off_c, 0, 61, 64
1, 152213, Note_on_c, 0, 73, 59
1, 152220, Note_off_c, 0, 68, 64
1, 152244, Note_off_c, 0, 73, 64
1, 152284, Note_on_c, 0, 73, 73
1, 152337, Note_off_c, 0, 44, 64
1, 152365, Note_on_c, 0, 53, 78
1, 152373, Note_off_c, 0, 73, 64
1, 152373, Note_on_c, 0, 80, 62
1, 152403, Note_off_c, 0, 53, 64
1, 152439, Note_off_c, 0, 80, 64
1, 152448, Note_on_c, 0, 85, 56
1, 152528, Note_on_c, 0, 87, 64
1, 152528, Note_off_c, 0, 85, 64
1, 152537, Note_on_c, 0, 63, 95
1, 152601, Control_c, 0, 64, 0
1, 152631, Note_on_c, 0, 82, 50
1, 152677, Note_off_c, 0, 87, 64
1, 152701, Note_on_c, 0, 75, 67
1, 152701, Note_off_c, 0, 82, 64
1, 152709, Control_c, 0, 64, 127
1, 152729, Note_on_c, 0, 58, 50
1, 152734, Note_off_c, 0, 75, 64
1, 152798, Note_on_c, 0, 75, 41
1, 152815, Note_off_c, 0, 63, 64
1, 152866, Note_on_c, 0, 54, 61
1, 152893, Note_off_c, 0, 58, 64
1, 152905, Note_off_c, 0, 54, 64
1, 152911, Note_off_c, 0, 75, 64
1, 152911, Note_on_c, 0, 70, 38
1, 152969, Note_on_c, 0, 63, 57
1, 152977, Note_off_c, 0, 70, 64
1, 153008, Note_off_c, 0, 63, 64
1, 153055, Note_on_c, 0, 37, 41
1, 153083, Note_on_c, 0, 65, 79
1, 153092, Control_c, 0, 64, 0
1, 153213, Note_on_c, 0, 70, 46
1, 153213, Note_off_c, 0, 37, 64
1, 153213, Control_c, 0, 64, 127
1, 153239, Note_off_c, 0, 65, 64
1, 153262, Note_on_c, 0, 46, 24
1, 153289, Note_on_c, 0, 77, 63
1, 153308, Note_off_c, 0, 70, 64
1, 153317, Note_off_c, 0, 77, 64
1, 153373, Note_on_c, 0, 77, 50
1, 153431, Note_on_c, 0, 54, 45
1, 153464, Note_off_c, 0, 46, 64
1, 153464, Note_on_c, 0, 82, 44
1, 153478, Note_off_c, 0, 77, 64
1, 153493, Note_off_c, 0, 54, 64
1, 153514, Note_off_c, 0, 82, 64
1, 153543, Note_on_c, 0, 89, 50
1, 153618, Note_off_c, 0, 89, 64
1, 153632, Note_on_c, 0, 63, 76
1, 153645, Note_on_c, 0, 87, 42
1, 153704, Control_c, 0, 64, 0
1, 153743, Note_on_c, 0, 82, 42
1, 153751, Note_off_c, 0, 87, 64
1, 153793, Note_off_c, 0, 82, 64
1, 153799, Control_c, 0, 64, 127
1, 153807, Note_on_c, 0, 75, 47
1, 153846, Note_off_c, 0, 75, 64
1, 153852, Note_on_c, 0, 58, 25
1, 153896, Note_off_c, 0, 63, 64
1, 153905, Note_on_c, 0, 75, 35
1, 153966, Note_off_c, 0, 75, 64
1, 153975, Note_on_c, 0, 54, 24
1, 153988, Note_off_c, 0, 58, 64
1, 154028, Note_off_c, 0, 54, 64
1, 154028, Note_on_c, 0, 70, 25
1, 154081, Note_off_c, 0, 70, 64
1, 154097, Note_on_c, 0, 63, 52
1, 154139, Note_off_c, 0, 63, 64
1, 154217, Note_on_c, 0, 37, 21
1, 154250, Note_on_c, 0, 58, 66
1, 154303, Control_c, 0, 64, 0
1, 154387, Control_c, 0, 64, 127
1, 154401, Note_on_c, 0, 63, 44
1, 154428, Note_off_c, 0, 58, 64
1, 154450, Note_off_c, 0, 37, 64
1, 154466, Note_off_c, 0, 63, 64
1, 154482, Note_on_c, 0, 70, 42
1, 154506, Note_on_c, 0, 46, 10
1, 154521, Note_off_c, 0, 70, 64
1, 154567, Note_on_c, 0, 70, 45
1, 154656, Note_on_c, 0, 54, 34
1, 154676, Note_off_c, 0, 70, 64
1, 154676, Note_on_c, 0, 75, 40
1, 154690, Note_off_c, 0, 46, 64
1, 154716, Note_off_c, 0, 54, 64
1, 154726, Note_off_c, 0, 75, 64
1, 154763, Note_on_c, 0, 82, 36
1, 154826, Note_off_c, 0, 82, 64
1, 154862, Note_on_c, 0, 61, 62
1, 154866, Note_on_c, 0, 85, 42
1, 154891, Control_c, 0, 64, 0
1, 154974, Note_off_c, 0, 85, 64
1, 154979, Note_on_c, 0, 80, 31
1, 155025, Note_off_c, 0, 80, 64
1, 155036, Note_on_c, 0, 73, 47
1, 155046, Control_c, 0, 64, 127
1, 155075, Note_off_c, 0, 73, 64
1, 155089, Note_on_c, 0, 56, 30
1, 155153, Note_on_c, 0, 73, 18
1, 155166, Note_off_c, 0, 61, 64
1, 155192, Note_off_c, 0, 56, 64
1, 155244, Note_on_c, 0, 68, 25
1, 155259, Note_on_c, 0, 53, 17
1, 155269, Note_off_c, 0, 73, 64
1, 155295, Note_off_c, 0, 53, 64
1, 155300, Note_off_c, 0, 68, 64
1, 155325, Note_on_c, 0, 61, 42
1, 155368, Note_off_c, 0, 61, 64
1, 155450, Note_on_c, 0, 37, 39
1, 155495, Note_on_c, 0, 56, 38
1, 155542, Note_off_c, 0, 56, 64
1, 155565, Note_on_c, 0, 61, 40
1, 155570, Note_off_c, 0, 37, 64
1, 155618, Note_off_c, 0, 61, 64
1, 155641, Note_on_c, 0, 44, 46
1, 155652, Note_on_c, 0, 68, 25
1, 155709, Note_off_c, 0, 68, 64
1, 155726, Note_off_c, 0, 44, 64
1, 155736, Note_on_c, 0, 61, 52
1, 155810, Note_off_c, 0, 61, 64
1, 155822, Note_on_c, 0, 68, 34
1, 155827, Note_on_c, 0, 53, 72
1, 155874, Note_off_c, 0, 68, 64
1, 155874, Note_off_c, 0, 53, 64
1, 155891, Note_on_c, 0, 73, 38
1, 155933, Note_off_c, 0, 73, 64
1, 155955, Note_on_c, 0, 68, 49
1, 155983, Note_on_c, 0, 56, 38
1, 156047, Note_off_c, 0, 56, 64
1, 156056, Note_on_c, 0, 73, 55
1, 156069, Note_off_c, 0, 68, 64
1, 156113, Note_off_c, 0, 73, 64
1, 156127, Note_on_c, 0, 80, 56
1, 156145, Note_on_c, 0, 61, 36
1, 156161, Note_off_c, 0, 80, 64
1, 156202, Note_off_c, 0, 61, 64
1, 156209, Note_on_c, 0, 73, 58
1, 156284, Note_on_c, 0, 80, 66
1, 156297, Note_off_c, 0, 73, 64
1, 156297, Note_on_c, 0, 65, 32
1, 156351, Note_off_c, 0, 65, 64
1, 156356, Note_on_c, 0, 85, 59
1, 156383, Note_off_c, 0, 80, 64
1, 156390, Note_off_c, 0, 85, 64
1, 156432, Note_on_c, 0, 80, 69
1, 156450, Note_on_c, 0, 68, 32
1, 156515, Note_off_c, 0, 68, 64
1, 156515, Note_on_c, 0, 85, 55
1, 156535, Note_off_c, 0, 80, 64
1, 156584, Note_off_c, 0, 85, 64
1, 156584, Note_on_c, 0, 92, 52
1, 156601, Note_on_c, 0, 73, 15
1, 156621, Note_off_c, 0, 92, 64
1, 156660, Note_off_c, 0, 73, 64
1, 156660, Note_on_c, 0, 85, 50
1, 156730, Note_off_c, 0, 85, 64
1, 156743, Note_on_c, 0, 92, 55
1, 156762, Note_on_c, 0, 77, 22
1, 156794, Note_off_c, 0, 92, 64
1, 156816, Note_off_c, 0, 77, 64
1, 156835, Note_on_c, 0, 97, 47
1, 156936, Note_on_c, 0, 92, 35
1, 156949, Note_off_c, 0, 97, 64
1, 157010, Note_on_c, 0, 85, 47
1, 157061, Note_off_c, 0, 92, 64
1, 157067, Note_off_c, 0, 85, 64
1, 157100, Note_on_c, 0, 80, 38
1, 157152, Note_off_c, 0, 80, 64
1, 157223, Note_on_c, 0, 73, 24
1, 157314, Note_on_c, 0, 68, 35
1, 157356, Note_off_c, 0, 73, 64
1, 157362, Note_off_c, 0, 68, 64
1, 157421, Note_on_c, 0, 61, 41
1, 157495, Note_off_c, 0, 61, 64
1, 157657, Note_on_c, 0, 66, 67
1, 157665, Note_on_c, 0, 63, 25
1, 157674, Note_on_c, 0, 45, 30
1, 157716, Note_off_c, 0, 63, 64
1, 157743, Control_c, 0, 64, 0
1, 157891, Note_on_c, 0, 72, 41
1, 157922, Control_c, 0, 64, 127
1, 157985, Note_off_c, 0, 66, 64
1, 157997, Note_on_c, 0, 51, 41
1, 158002, Note_off_c, 0, 45, 64
1, 158013, Note_on_c, 0, 78, 50
1, 158017, Note_off_c, 0, 72, 64
1, 158049, Note_off_c, 0, 78, 64
1, 158055, Note_off_c, 0, 51, 64
1, 158098, Note_on_c, 0, 78, 53
1, 158219, Note_off_c, 0, 78, 64
1, 158219, Note_on_c, 0, 84, 49
1, 158259, Note_on_c, 0, 60, 13
1, 158300, Note_on_c, 0, 90, 61
1, 158326, Note_off_c, 0, 84, 64
1, 158342, Note_off_c, 0, 60, 64
1, 158342, Note_off_c, 0, 90, 64
1, 158425, Note_on_c, 0, 89, 67
1, 158425, Note_on_c, 0, 65, 75
1, 158474, Control_c, 0, 64, 0
1, 158543, Note_on_c, 0, 84, 47
1, 158565, Note_off_c, 0, 89, 64
1, 158582, Control_c, 0, 64, 127
1, 158582, Note_off_c, 0, 84, 64
1, 158610, Note_on_c, 0, 77, 48
1, 158646, Note_off_c, 0, 77, 64
1, 158663, Note_on_c, 0, 60, 36
1, 158676, Note_off_c, 0, 65, 64
1, 158698, Note_on_c, 0, 77, 54
1, 158783, Note_on_c, 0, 57, 41
1, 158786, Note_off_c, 0, 60, 64
1, 158794, Note_on_c, 0, 72, 37
1, 158804, Note_off_c, 0, 77, 64
1, 158827, Note_off_c, 0, 57, 64
1, 158835, Note_off_c, 0, 72, 64
1, 158874, Note_on_c, 0, 65, 43
1, 158913, Note_off_c, 0, 65, 64
1, 159027, Note_on_c, 0, 45, 31
1, 159027, Note_on_c, 0, 60, 89
1, 159158, Note_on_c, 0, 65, 52
1, 159169, Note_off_c, 0, 60, 64
1, 159183, Note_off_c, 0, 45, 64
1, 159206, Note_off_c, 0, 65, 64
1, 159223, Note_on_c, 0, 72, 63
1, 159256, Note_off_c, 0, 72, 64
1, 159256, Note_on_c, 0, 53, 54
1, 159309, Note_on_c, 0, 72, 52
1, 159325, Note_off_c, 0, 53, 64
1, 159357, Note_off_c, 0, 72, 64
1, 159410, Note_on_c, 0, 77, 57
1, 159425, Note_on_c, 0, 60, 38
1, 159445, Note_off_c, 0, 77, 64
1, 159470, Note_off_c, 0, 60, 64
1, 159485, Note_on_c, 0, 84, 61
1, 159595, Note_on_c, 0, 87, 70
1, 159599, Note_on_c, 0, 63, 86
1, 159599, Control_c, 0, 64, 0
1, 159604, Note_off_c, 0, 84, 64
1, 159701, Note_on_c, 0, 82, 44
1, 159744, Note_off_c, 0, 87, 64
1, 159744, Control_c, 0, 64, 127
1, 159751, Note_off_c, 0, 82, 64
1, 159761, Note_on_c, 0, 75, 45
1, 159799, Note_off_c, 0, 63, 64
1, 159802, Note_off_c, 0, 75, 64
1, 159816, Note_on_c, 0, 54, 52
1, 159852, Note_on_c, 0, 75, 53
1, 159949, Note_on_c, 0, 70, 47
1, 159955, Note_off_c, 0, 75, 64
1, 159961, Note_on_c, 0, 46, 25
1, 160016, Note_off_c, 0, 46, 64
1, 160016, Note_off_c, 0, 54, 64
1, 160021, Note_off_c, 0, 70, 64
1, 160033, Note_on_c, 0, 63, 49
1, 160072, Note_off_c, 0, 63, 64
1, 160100, Note_on_c, 0, 46, 17
1, 160137, Note_on_c, 0, 61, 91
1, 160137, Control_c, 0, 64, 0
1, 160262, Note_on_c, 0, 65, 61
1, 160272, Control_c, 0, 64, 127
1, 160275, Note_off_c, 0, 61, 64
1, 160304, Note_off_c, 0, 65, 64
1, 160325, Note_on_c, 0, 53, 44
1, 160334, Note_off_c, 0, 46, 64
1, 160334, Note_on_c, 0, 73, 58
1, 160368, Note_off_c, 0, 73, 64
1, 160387, Note_off_c, 0, 53, 64
1, 160418, Note_on_c, 0, 73, 53
1, 160451, Note_on_c, 0, 58, 40
1, 160498, Note_off_c, 0, 58, 64
1, 160509, Note_off_c, 0, 73, 64
1, 160523, Note_on_c, 0, 77, 58
1, 160591, Note_off_c, 0, 77, 64
1, 160612, Note_on_c, 0, 85, 47
1, 160651, Note_off_c, 0, 85, 64
1, 160746, Note_on_c, 0, 65, 31
1, 160758, Note_on_c, 0, 62, 28
1, 160763, Control_c, 0, 64, 0
1, 160763, Note_on_c, 0, 59, 31
1, 160772, Note_on_c, 0, 68, 77
1, 160791, Note_on_c, 0, 70, 24
1, 160852, Note_off_c, 0, 70, 64
1, 160906, Control_c, 0, 64, 127
1, 160924, Note_on_c, 0, 71, 64
1, 160939, Note_off_c, 0, 65, 64
1, 160944, Note_off_c, 0, 68, 64
1, 160964, Note_off_c, 0, 62, 64
1, 160964, Note_off_c, 0, 71, 64
1, 160989, Note_off_c, 0, 59, 64
1, 161008, Note_on_c, 0, 80, 62
1, 161034, Note_on_c, 0, 54, 51
1, 161039, Note_off_c, 0, 80, 64
1, 161073, Note_off_c, 0, 54, 64
1, 161097, Note_on_c, 0, 80, 43
1, 161197, Note_off_c, 0, 80, 64
1, 161204, Note_on_c, 0, 42, 41
1, 161228, Note_on_c, 0, 83, 74
1, 161257, Note_off_c, 0, 42, 64
1, 161311, Note_off_c, 0, 83, 64
1, 161346, Note_on_c, 0, 92, 22
1, 161399, Note_off_c, 0, 92, 64
1, 161523, Note_on_c, 0, 66, 67
1, 161548, Note_on_c, 0, 63, 42
1, 161554, Note_on_c, 0, 58, 28
1, 161577, Control_c, 0, 64, 0
1, 161685, Control_c, 0, 64, 127
1, 161689, Note_on_c, 0, 70, 49
1, 161697, Note_off_c, 0, 63, 64
1, 161730, Note_off_c, 0, 66, 64
1, 161765, Note_off_c, 0, 58, 64
1, 161765, Note_off_c, 0, 70, 64
1, 161779, Note_on_c, 0, 78, 50
1, 161816, Note_off_c, 0, 78, 64
1, 161861, Note_on_c, 0, 78, 55
1, 161936, Note_off_c, 0, 78, 64
1, 161945, Note_on_c, 0, 42, 38
1, 161994, Note_on_c, 0, 82, 25
1, 162008, Note_off_c, 0, 42, 64
1, 162059, Note_off_c, 0, 82, 64
1, 162070, Note_on_c, 0, 90, 47
1, 162112, Note_off_c, 0, 90, 64
1, 162178, Note_on_c, 0, 44, 35
1, 162332, Note_on_c, 0, 56, 59
1, 162393, Control_c, 0, 64, 0
1, 162403, Note_on_c, 0, 53, 54
1, 162535, Note_off_c, 0, 53, 64
1, 162535, Control_c, 0, 64, 127
1, 162569, Note_on_c, 0, 61, 36
1, 162584, Note_off_c, 0, 44, 64
1, 162588, Note_off_c, 0, 56, 64
1, 162646, Note_off_c, 0, 61, 64
1, 162654, Note_on_c, 0, 68, 49
1, 162688, Note_off_c, 0, 68, 64
1, 162763, Note_on_c, 0, 68, 24
1, 162813, Note_on_c, 0, 32, 25
1, 162871, Note_off_c, 0, 32, 64
1, 162914, Note_off_c, 0, 68, 64
1, 162914, Note_on_c, 0, 73, 32
1, 162978, Note_off_c, 0, 73, 64
1, 163039, Note_on_c, 0, 80, 22
1, 163089, Note_off_c, 0, 80, 64
1, 163293, Note_on_c, 0, 55, 74
1, 163326, Note_on_c, 0, 44, 28
1, 163335, Note_on_c, 0, 52, 39
1, 163423, Control_c, 0, 64, 0
1, 163499, Note_on_c, 0, 61, 41
1, 163520, Control_c, 0, 64, 127
1, 163543, Note_off_c, 0, 44, 64
1, 163548, Note_off_c, 0, 52, 64
1, 163552, Note_off_c, 0, 55, 64
1, 163582, Note_on_c, 0, 67, 44
1, 163602, Note_off_c, 0, 61, 64
1, 163630, Note_off_c, 0, 67, 64
1, 163679, Note_on_c, 0, 56, 86
1, 163702, Note_on_c, 0, 53, 66
1, 163714, Note_on_c, 0, 44, 32
1, 163747, Control_c, 0, 64, 0
1, 163813, Note_on_c, 0, 61, 47
1, 163839, Note_off_c, 0, 44, 64
1, 163842, Control_c, 0, 64, 127
1, 163867, Note_off_c, 0, 56, 64
1, 163897, Note_on_c, 0, 68, 47
1, 163906, Note_off_c, 0, 53, 64
1, 163916, Note_off_c, 0, 61, 64
1, 163933, Note_off_c, 0, 68, 64
1, 163947, Note_on_c, 0, 44, 46
1, 164011, Control_c, 0, 64, 0
1, 164044, Note_on_c, 0, 65, 83
1, 164070, Note_on_c, 0, 54, 51
1, 164100, Note_off_c, 0, 44, 64
1, 164142, Control_c, 0, 64, 127
1, 164225, Note_on_c, 0, 60, 37
1, 164248, Note_off_c, 0, 54, 64
1, 164278, Note_off_c, 0, 60, 64
1, 164293, Note_on_c, 0, 68, 52
1, 164334, Note_off_c, 0, 68, 64
1, 164367, Note_off_c, 0, 65, 64
1, 164396, Note_on_c, 0, 68, 40
1, 164468, Note_off_c, 0, 68, 64
1, 164487, Note_on_c, 0, 77, 63
1, 164518, Note_off_c, 0, 77, 64
1, 164588, Note_on_c, 0, 68, 59
1, 164629, Note_off_c, 0, 68, 64
1, 164666, Note_on_c, 0, 77, 62
1, 164697, Note_off_c, 0, 77, 64
1, 164746, Note_on_c, 0, 77, 67
1, 164805, Note_off_c, 0, 77, 64
1, 164847, Note_on_c, 0, 80, 72
1, 164877, Note_off_c, 0, 80, 64
1, 164933, Note_on_c, 0, 80, 55
1, 165005, Note_off_c, 0, 80, 64
1, 165036, Note_on_c, 0, 89, 61
1, 165070, Note_off_c, 0, 89, 64
1, 165122, Note_on_c, 0, 80, 37
1, 165170, Note_off_c, 0, 80, 64
1, 165190, Note_on_c, 0, 89, 73
1, 165221, Note_off_c, 0, 89, 64
1, 165271, Note_on_c, 0, 89, 54
1, 165329, Note_off_c, 0, 89, 64
1, 165356, Note_on_c, 0, 92, 69
1, 165388, Note_off_c, 0, 92, 64
1, 165434, Note_on_c, 0, 92, 59
1, 165474, Note_off_c, 0, 92, 64
1, 165521, Note_on_c, 0, 101, 69
1, 165554, Note_off_c, 0, 101, 64
1, 165605, Note_on_c, 0, 92, 49
1, 165644, Note_off_c, 0, 92, 64
1, 165685, Note_on_c, 0, 92, 61
1, 165735, Note_off_c, 0, 92, 64
1, 165775, Note_on_c, 0, 89, 41
1, 165824, Note_off_c, 0, 89, 64
1, 165880, Note_on_c, 0, 89, 55
1, 165919, Note_off_c, 0, 89, 64
1, 165947, Note_on_c, 0, 80, 53
1, 165984, Note_off_c, 0, 80, 64
1, 166030, Note_on_c, 0, 80, 58
1, 166101, Note_off_c, 0, 80, 64
1, 166122, Note_on_c, 0, 77, 47
1, 166161, Note_off_c, 0, 77, 64
1, 166217, Note_on_c, 0, 77, 20
1, 166265, Note_off_c, 0, 77, 64
1, 166309, Note_on_c, 0, 68, 12
1, 166352, Note_off_c, 0, 68, 64
1, 166404, Note_on_c, 0, 68, 7
1, 166448, Note_off_c, 0, 68, 64
1, 166493, Note_on_c, 0, 65, 41
1, 166532, Note_off_c, 0, 65, 64
1, 166608, Note_on_c, 0, 80, 46
1, 166660, Note_off_c, 0, 80, 64
1, 166736, Note_on_c, 0, 77, 46
1, 166774, Note_off_c, 0, 77, 64
1, 166850, Note_on_c, 0, 92, 24
1, 166913, Note_off_c, 0, 92, 64
1, 166976, Note_on_c, 0, 89, 30
1, 167040, Note_off_c, 0, 89, 64
1, 167192, Note_on_c, 0, 104, 33
1, 167273, Note_off_c, 0, 104, 64
1, 167964, Note_on_c, 0, 44, 37
1, 167972, Note_on_c, 0, 68, 45
1, 167972, Note_on_c, 0, 65, 48
1, 167975, Note_on_c, 0, 54, 28
1, 167975, Note_on_c, 0, 60, 41
1, 167994, Note_on_c, 0, 32, 17
1, 169494, Note_on_c, 0, 63, 36
1, 169518, Note_off_c, 0, 65, 64
1, 169547, Control_c, 0, 64, 0
1, 169680, Control_c, 0, 64, 127
1, 169700, Note_off_c, 0, 32, 64
1, 169741, Note_off_c, 0, 44, 64
1, 169786, Note_off_c, 0, 54, 64
1, 169855, Note_off_c, 0, 60, 64
1, 169898, Note_off_c, 0, 68, 64
1, 169915, Note_off_c, 0, 63, 64
1, 169915, Note_on_c, 0, 37, 34
1, 170134, Note_on_c, 0, 44, 37
1, 170268, Note_on_c, 0, 49, 37
1, 170351, Control_c, 0, 64, 0
1, 170383, Note_on_c, 0, 53, 57
1, 170454, Note_off_c, 0, 37, 64
1, 170458, Control_c, 0, 64, 127
1, 170491, Note_off_c, 0, 53, 64
1, 170496, Note_off_c, 0, 44, 64
1, 170510, Note_on_c, 0, 61, 41
1, 170524, Note_off_c, 0, 49, 64
1, 170655, Note_on_c, 0, 65, 33
1, 170714, Note_off_c, 0, 61, 64
1, 170714, Note_off_c, 0, 65, 64
1, 170750, Note_on_c, 0, 68, 35
1, 170856, Note_off_c, 0, 68, 64
1, 170900, Note_on_c, 0, 65, 28
1, 170972, Note_off_c, 0, 65, 64
1, 170986, Note_on_c, 0, 61, 38
1, 171096, Note_on_c, 0, 53, 62
1, 171146, Note_on_c, 0, 49, 34
1, 171151, Note_off_c, 0, 53, 64
1, 171179, Note_off_c, 0, 61, 64
1, 171238, Note_on_c, 0, 44, 54
1, 171262, Note_off_c, 0, 49, 64
1, 171323, Note_off_c, 0, 44, 64
1, 171323, Note_on_c, 0, 37, 53
1, 171399, Note_off_c, 0, 37, 64
1, 171430, Note_on_c, 0, 47, 49
1, 171494, Note_off_c, 0, 47, 64
1, 171535, Note_on_c, 0, 49, 45
1, 171611, Note_off_c, 0, 49, 64
1, 171661, Note_on_c, 0, 53, 47
1, 171713, Note_off_c, 0, 53, 64
1, 171730, Note_on_c, 0, 56, 34
1, 171795, Note_off_c, 0, 56, 64
1, 171819, Note_on_c, 0, 61, 34
1, 171889, Note_off_c, 0, 61, 64
1, 171953, Note_on_c, 0, 65, 72
1, 171953, Note_on_c, 0, 61, 56
1, 172011, Note_off_c, 0, 65, 64
1, 172040, Note_off_c, 0, 61, 64
1, 172096, Note_on_c, 0, 61, 30
1, 172160, Note_on_c, 0, 56, 39
1, 172257, Note_on_c, 0, 53, 54
1, 172307, Note_off_c, 0, 53, 64
1, 172316, Note_off_c, 0, 56, 64
1, 172324, Note_on_c, 0, 49, 41
1, 172337, Note_off_c, 0, 61, 64
1, 172404, Note_on_c, 0, 47, 41
1, 172454, Note_off_c, 0, 47, 64
1, 172564, Note_on_c, 0, 66, 66
1, 172574, Note_on_c, 0, 62, 60
1, 172580, Note_on_c, 0, 37, 49
1, 172597, Note_off_c, 0, 49, 64
1, 172627, Control_c, 0, 64, 0
1, 172713, Note_on_c, 0, 45, 49
1, 172787, Note_off_c, 0, 37, 64
1, 172808, Control_c, 0, 64, 127
1, 172828, Note_on_c, 0, 50, 53
1, 172836, Note_off_c, 0, 62, 64
1, 172853, Note_off_c, 0, 66, 64
1, 172853, Note_off_c, 0, 45, 64
1, 172872, Note_off_c, 0, 50, 64
1, 172918, Note_on_c, 0, 54, 57
1, 172992, Note_off_c, 0, 54, 64
1, 173023, Note_on_c, 0, 57, 33
1, 173084, Note_off_c, 0, 57, 64
1, 173098, Note_on_c, 0, 62, 45
1, 173142, Note_off_c, 0, 62, 64
1, 173181, Note_on_c, 0, 69, 66
1, 173185, Note_on_c, 0, 66, 56
1, 173266, Note_off_c, 0, 69, 64
1, 173277, Note_off_c, 0, 66, 64
1, 173365, Note_on_c, 0, 62, 45
1, 173455, Note_on_c, 0, 57, 32
1, 173525, Note_on_c, 0, 54, 45
1, 173541, Note_off_c, 0, 62, 64
1, 173567, Note_off_c, 0, 57, 64
1, 173582, Note_off_c, 0, 54, 64
1, 173625, Note_on_c, 0, 50, 36
1, 173694, Note_off_c, 0, 50, 64
1, 173705, Note_on_c, 0, 45, 41
1, 173753, Note_off_c, 0, 45, 64
1, 173798, Note_on_c, 0, 71, 88
1, 173803, Note_on_c, 0, 67, 64
1, 173814, Control_c, 0, 64, 0
1, 173814, Note_on_c, 0, 37, 55
1, 173929, Note_off_c, 0, 37, 64
1, 173945, Control_c, 0, 64, 127
1, 174017, Note_on_c, 0, 47, 55
1, 174029, Note_off_c, 0, 71, 64
1, 174059, Note_off_c, 0, 67, 64
1, 174078, Note_off_c, 0, 47, 64
1, 174106, Note_on_c, 0, 50, 60
1, 174179, Note_off_c, 0, 50, 64
1, 174188, Note_on_c, 0, 55, 45
1, 174229, Note_off_c, 0, 55, 64
1, 174248, Note_on_c, 0, 59, 39
1, 174324, Note_off_c, 0, 59, 64
1, 174335, Note_on_c, 0, 62, 42
1, 174396, Note_off_c, 0, 62, 64
1, 174422, Note_on_c, 0, 67, 36
1, 174472, Note_off_c, 0, 67, 64
1, 174527, Note_on_c, 0, 74, 92
1, 174541, Note_on_c, 0, 71, 73
1, 174585, Note_off_c, 0, 71, 64
1, 174589, Note_off_c, 0, 74, 64
1, 174720, Note_on_c, 0, 67, 51
1, 174789, Note_on_c, 0, 62, 32
1, 174834, Note_off_c, 0, 67, 64
1, 174862, Note_on_c, 0, 59, 43
1, 174884, Note_off_c, 0, 62, 64
1, 174901, Note_off_c, 0, 59, 64
1, 174914, Note_on_c, 0, 55, 35
1, 174964, Note_off_c, 0, 55, 64
1, 175001, Note_on_c, 0, 50, 34
1, 175059, Note_off_c, 0, 50, 64
1, 175092, Note_on_c, 0, 47, 38
1, 175134, Note_off_c, 0, 47, 64
1, 175302, Note_on_c, 0, 73, 65
1, 175302, Note_on_c, 0, 77, 80
1, 175324, Control_c, 0, 64, 0
1, 175332, Note_on_c, 0, 37, 38
1, 175503, Control_c, 0, 64, 127
1, 175535, Note_off_c, 0, 37, 64
1, 175535, Note_on_c, 0, 44, 47
1, 175564, Note_off_c, 0, 77, 64
1, 175577, Note_off_c, 0, 73, 64
1, 175636, Note_off_c, 0, 44, 64
1, 175652, Note_on_c, 0, 49, 42
1, 175733, Note_off_c, 0, 49, 64
1, 175739, Note_on_c, 0, 53, 78
1, 175773, Note_off_c, 0, 53, 64
1, 175808, Note_on_c, 0, 56, 44
1, 175870, Note_on_c, 0, 61, 59
1, 175890, Note_off_c, 0, 56, 64
1, 175950, Note_off_c, 0, 61, 64
1, 175950, Note_on_c, 0, 65, 47
1, 176001, Note_off_c, 0, 65, 64
1, 176006, Note_on_c, 0, 68, 61
1, 176073, Note_on_c, 0, 65, 52
1, 176126, Note_off_c, 0, 68, 64
1, 176146, Note_on_c, 0, 61, 57
1, 176218, Note_off_c, 0, 65, 64
1, 176224, Note_on_c, 0, 56, 36
1, 176258, Note_off_c, 0, 61, 64
1, 176265, Note_on_c, 0, 53, 25
1, 176293, Note_on_c, 0, 49, 44
1, 176302, Note_off_c, 0, 56, 64
1, 176305, Note_off_c, 0, 53, 64
1, 176347, Note_off_c, 0, 49, 64
1, 176355, Note_on_c, 0, 44, 49
1, 176396, Note_off_c, 0, 44, 64
1, 176478, Note_on_c, 0, 37, 48
1, 176516, Note_off_c, 0, 37, 64
1, 176574, Note_on_c, 0, 53, 59
1, 176617, Note_off_c, 0, 53, 64
1, 176624, Note_on_c, 0, 56, 50
1, 176687, Note_off_c, 0, 56, 64
1, 176700, Note_on_c, 0, 59, 37
1, 176725, Note_on_c, 0, 53, 38
1, 176745, Note_off_c, 0, 59, 64
1, 176770, Note_off_c, 0, 53, 64
1, 176770, Note_on_c, 0, 56, 40
1, 176829, Note_off_c, 0, 56, 64
1, 176842, Note_on_c, 0, 59, 10
1, 176861, Note_on_c, 0, 61, 52
1, 176886, Note_off_c, 0, 59, 64
1, 176925, Note_off_c, 0, 61, 64
1, 176932, Note_on_c, 0, 65, 40
1, 176982, Note_on_c, 0, 68, 48
1, 176987, Note_off_c, 0, 65, 64
1, 177054, Note_on_c, 0, 73, 41
1, 177098, Note_off_c, 0, 73, 64
1, 177098, Note_off_c, 0, 68, 64
1, 177132, Note_on_c, 0, 77, 91
1, 177140, Note_on_c, 0, 73, 68
1, 177209, Note_off_c, 0, 77, 64
1, 177315, Note_off_c, 0, 73, 64
1, 177321, Note_on_c, 0, 68, 43
1, 177372, Note_on_c, 0, 65, 42
1, 177389, Note_off_c, 0, 68, 64
1, 177433, Note_off_c, 0, 65, 64
1, 177439, Note_on_c, 0, 61, 44
1, 177483, Note_off_c, 0, 61, 64
1, 177499, Note_on_c, 0, 59, 36
1, 177561, Note_on_c, 0, 56, 38
1, 177578, Note_off_c, 0, 59, 64
1, 177641, Note_on_c, 0, 53, 39
1, 177680, Note_off_c, 0, 56, 64
1, 177687, Note_off_c, 0, 53, 64
1, 177733, Note_on_c, 0, 49, 43
1, 177787, Note_on_c, 0, 78, 81
1, 177795, Note_on_c, 0, 74, 64
1, 177804, Control_c, 0, 64, 0
1, 177901, Note_on_c, 0, 54, 48
1, 177960, Note_off_c, 0, 54, 64
1, 177960, Control_c, 0, 64, 127
1, 177965, Note_off_c, 0, 49, 64
1, 177985, Note_on_c, 0, 57, 27
1, 178001, Note_off_c, 0, 74, 64
1, 178013, Note_off_c, 0, 78, 64
1, 178051, Note_off_c, 0, 57, 64
1, 178063, Note_on_c, 0, 62, 39
1, 178110, Note_off_c, 0, 62, 64
1, 178140, Note_on_c, 0, 66, 36
1, 178221, Note_off_c, 0, 66, 64
1, 178244, Note_on_c, 0, 69, 20
1, 178310, Note_off_c, 0, 69, 64
1, 178324, Note_on_c, 0, 74, 25
1, 178379, Note_off_c, 0, 74, 64
1, 178432, Note_on_c, 0, 81, 81
1, 178436, Note_on_c, 0, 78, 57
1, 178506, Note_off_c, 0, 81, 64
1, 178541, Note_off_c, 0, 78, 64
1, 178630, Note_on_c, 0, 74, 39
1, 178694, Note_on_c, 0, 69, 28
1, 178745, Note_off_c, 0, 74, 64
1, 178789, Note_on_c, 0, 66, 21
1, 178831, Note_off_c, 0, 69, 64
1, 178842, Note_on_c, 0, 62, 18
1, 178845, Note_off_c, 0, 66, 64
1, 178943, Note_off_c, 0, 62, 64
1, 178943, Note_on_c, 0, 57, 20
1, 178990, Note_on_c, 0, 54, 48
1, 179007, Note_off_c, 0, 57, 64
1, 179034, Note_off_c, 0, 54, 64
1, 179140, Note_on_c, 0, 49, 36
1, 179143, Note_on_c, 0, 83, 101
1, 179148, Note_on_c, 0, 79, 60
1, 179148, Control_c, 0, 64, 0
1, 179274, Note_off_c, 0, 49, 64
1, 179279, Control_c, 0, 64, 127
1, 179391, Note_on_c, 0, 59, 36
1, 179433, Note_off_c, 0, 83, 64
1, 179453, Note_off_c, 0, 59, 64
1, 179474, Note_off_c, 0, 79, 64
1, 179489, Note_on_c, 0, 62, 36
1, 179569, Note_off_c, 0, 62, 64
1, 179606, Note_on_c, 0, 67, 18
1, 179650, Note_on_c, 0, 71, 50
1, 179658, Note_off_c, 0, 67, 64
1, 179709, Note_off_c, 0, 71, 64
1, 179751, Note_on_c, 0, 74, 41
1, 179803, Note_off_c, 0, 74, 64
1, 179840, Note_on_c, 0, 79, 40
1, 179890, Note_off_c, 0, 79, 64
1, 179957, Note_on_c, 0, 86, 77
1, 179973, Note_on_c, 0, 83, 78
1, 180017, Note_off_c, 0, 83, 64
1, 180034, Note_off_c, 0, 86, 64
1, 180144, Note_on_c, 0, 79, 52
1, 180199, Note_off_c, 0, 79, 64
1, 180226, Note_on_c, 0, 74, 29
1, 180299, Note_off_c, 0, 74, 64
1, 180366, Note_on_c, 0, 67, 26
1, 180419, Note_off_c, 0, 67, 64
1, 180455, Note_on_c, 0, 62, 36
1, 180500, Note_off_c, 0, 62, 64
1, 180533, Note_on_c, 0, 73, 31
1, 180584, Note_off_c, 0, 73, 64
1, 180625, Note_on_c, 0, 80, 43
1, 180734, Note_on_c, 0, 85, 27
1, 180795, Note_on_c, 0, 49, 33
1, 180873, Control_c, 0, 64, 0
1, 180909, Note_on_c, 0, 89, 70
1, 181035, Note_off_c, 0, 85, 64
1, 181055, Note_off_c, 0, 49, 64
1, 181055, Note_on_c, 0, 56, 31
1, 181065, Control_c, 0, 64, 127
1, 181096, Note_off_c, 0, 89, 64
1, 181124, Note_off_c, 0, 80, 64
1, 181127, Note_off_c, 0, 56, 64
1, 181187, Note_on_c, 0, 61, 36
1, 181277, Note_off_c, 0, 61, 64
1, 181361, Note_on_c, 0, 68, 30
1, 181414, Note_off_c, 0, 68, 64
1, 181435, Note_on_c, 0, 73, 32
1, 181483, Note_off_c, 0, 73, 64
1, 181513, Note_on_c, 0, 77, 35
1, 181573, Note_off_c, 0, 77, 64
1, 181573, Note_on_c, 0, 80, 52
1, 181626, Note_off_c, 0, 80, 64
1, 181662, Note_on_c, 0, 85, 43
1, 181706, Note_off_c, 0, 85, 64
1, 181723, Note_on_c, 0, 80, 32
1, 181817, Note_off_c, 0, 80, 64
1, 181820, Note_on_c, 0, 77, 33
1, 181874, Note_on_c, 0, 73, 33
1, 181882, Note_off_c, 0, 77, 64
1, 181926, Note_off_c, 0, 73, 64
1, 181929, Note_on_c, 0, 68, 25
1, 181988, Note_off_c, 0, 68, 64
1, 182009, Note_on_c, 0, 65, 14
1, 182074, Note_on_c, 0, 61, 30
1, 182163, Note_on_c, 0, 56, 26
1, 182174, Note_off_c, 0, 61, 64
1, 182211, Note_off_c, 0, 65, 64
1, 182224, Note_off_c, 0, 56, 64
1, 182247, Note_on_c, 0, 47, 58
1, 182406, Note_off_c, 0, 47, 64
1, 182463, Note_on_c, 0, 56, 30
1, 182556, Note_on_c, 0, 61, 38
1, 182617, Note_off_c, 0, 56, 64
1, 182667, Note_on_c, 0, 65, 21
1, 182714, Note_on_c, 0, 68, 31
1, 182729, Note_off_c, 0, 61, 64
1, 182742, Note_off_c, 0, 65, 64
1, 182770, Note_off_c, 0, 68, 64
1, 182787, Note_on_c, 0, 73, 36
1, 182831, Note_off_c, 0, 73, 64
1, 182856, Note_on_c, 0, 77, 42
1, 182895, Note_off_c, 0, 77, 64
1, 182904, Note_on_c, 0, 80, 51
1, 182945, Note_off_c, 0, 80, 64
1, 182966, Note_on_c, 0, 85, 57
1, 183015, Note_off_c, 0, 85, 64
1, 183029, Note_on_c, 0, 80, 35
1, 183096, Note_off_c, 0, 80, 64
1, 183096, Note_on_c, 0, 77, 36
1, 183157, Note_on_c, 0, 73, 42
1, 183182, Note_off_c, 0, 77, 64
1, 183190, Note_on_c, 0, 68, 44
1, 183218, Note_off_c, 0, 73, 64
1, 183232, Note_off_c, 0, 68, 64
1, 183258, Note_on_c, 0, 65, 23
1, 183314, Note_off_c, 0, 65, 64
1, 183314, Note_on_c, 0, 61, 41
1, 183378, Note_off_c, 0, 61, 64
1, 183406, Note_on_c, 0, 56, 25
1, 183456, Note_off_c, 0, 56, 64
1, 183464, Note_on_c, 0, 74, 23
1, 183517, Note_off_c, 0, 74, 64
1, 183522, Note_on_c, 0, 82, 27
1, 183562, Note_on_c, 0, 46, 53
1, 183619, Control_c, 0, 64, 0
1, 183718, Note_on_c, 0, 89, 76
1, 183754, Note_off_c, 0, 46, 64
1, 183773, Control_c, 0, 64, 127
1, 183846, Note_off_c, 0, 89, 64
1, 183881, Note_off_c, 0, 82, 64
1, 183907, Note_on_c, 0, 53, 48
1, 183976, Note_off_c, 0, 53, 64
1, 183976, Note_on_c, 0, 58, 33
1, 184032, Note_off_c, 0, 58, 64
1, 184054, Note_on_c, 0, 62, 43
1, 184129, Note_on_c, 0, 65, 37
1, 184141, Note_on_c, 0, 70, 44
1, 184141, Note_off_c, 0, 62, 64
1, 184172, Note_off_c, 0, 65, 64
1, 184183, Note_off_c, 0, 70, 64
1, 184222, Note_on_c, 0, 74, 59
1, 184264, Note_off_c, 0, 74, 64
1, 184291, Note_on_c, 0, 77, 62
1, 184350, Note_on_c, 0, 82, 50
1, 184369, Note_off_c, 0, 77, 64
1, 184411, Note_on_c, 0, 86, 73
1, 184416, Note_off_c, 0, 82, 64
1, 184473, Note_on_c, 0, 82, 54
1, 184484, Note_off_c, 0, 86, 64
1, 184542, Note_on_c, 0, 77, 50
1, 184562, Note_off_c, 0, 82, 64
1, 184576, Note_off_c, 0, 77, 64
1, 184601, Note_on_c, 0, 74, 54
1, 184636, Note_off_c, 0, 74, 64
1, 184676, Note_on_c, 0, 70, 50
1, 184725, Note_off_c, 0, 70, 64
1, 184731, Note_on_c, 0, 65, 27
1, 184803, Note_on_c, 0, 62, 28
1, 184803, Note_off_c, 0, 65, 64
1, 184860, Note_on_c, 0, 58, 33
1, 184868, Note_off_c, 0, 62, 64
1, 184929, Note_off_c, 0, 58, 64
1, 184976, Note_on_c, 0, 53, 49
1, 185016, Note_on_c, 0, 44, 81
1, 185023, Note_off_c, 0, 53, 64
1, 185182, Note_off_c, 0, 44, 64
1, 185228, Note_on_c, 0, 53, 48
1, 185280, Note_off_c, 0, 53, 64
1, 185289, Note_on_c, 0, 58, 34
1, 185359, Note_off_c, 0, 58, 64
1, 185375, Note_on_c, 0, 62, 35
1, 185420, Note_on_c, 0, 65, 44
1, 185441, Note_off_c, 0, 62, 64
1, 185462, Note_off_c, 0, 65, 64
1, 185486, Note_on_c, 0, 70, 43
1, 185530, Note_off_c, 0, 70, 64
1, 185561, Note_on_c, 0, 74, 51
1, 185600, Note_off_c, 0, 74, 64
1, 185623, Note_on_c, 0, 77, 50
1, 185665, Note_off_c, 0, 77, 64
1, 185673, Note_on_c, 0, 82, 50
1, 185725, Note_off_c, 0, 82, 64
1, 185740, Note_on_c, 0, 86, 61
1, 185792, Note_off_c, 0, 86, 64
1, 185801, Note_on_c, 0, 82, 47
1, 185854, Note_off_c, 0, 82, 64
1, 185870, Note_on_c, 0, 77, 36
1, 185912, Note_off_c, 0, 77, 64
1, 185921, Note_on_c, 0, 74, 48
1, 185966, Note_off_c, 0, 74, 64
1, 185977, Note_on_c, 0, 70, 60
1, 186012, Note_off_c, 0, 70, 64
1, 186012, Note_on_c, 0, 65, 27
1, 186069, Note_off_c, 0, 65, 64
1, 186086, Note_on_c, 0, 62, 39
1, 186135, Note_off_c, 0, 62, 64
1, 186154, Note_on_c, 0, 58, 28
1, 186227, Note_off_c, 0, 58, 64
1, 186235, Note_on_c, 0, 53, 51
1, 186280, Note_off_c, 0, 53, 64
1, 186389, Note_on_c, 0, 83, 83
1, 186447, Note_on_c, 0, 43, 58
1, 186458, Control_c, 0, 64, 0
1, 186579, Note_off_c, 0, 43, 64
1, 186592, Note_on_c, 0, 91, 85
1, 186601, Control_c, 0, 64, 127
1, 186740, Note_off_c, 0, 91, 64
1, 186753, Note_off_c, 0, 83, 64
1, 186760, Note_on_c, 0, 55, 45
1, 186856, Note_on_c, 0, 59, 28
1, 186887, Note_off_c, 0, 55, 64
1, 186909, Note_off_c, 0, 59, 64
1, 186918, Note_on_c, 0, 62, 54
1, 187002, Note_off_c, 0, 62, 64
1, 187002, Note_on_c, 0, 67, 39
1, 187049, Note_off_c, 0, 67, 64
1, 187063, Note_on_c, 0, 71, 47
1, 187111, Note_off_c, 0, 71, 64
1, 187127, Note_on_c, 0, 74, 65
1, 187166, Note_off_c, 0, 74, 64
1, 187197, Note_on_c, 0, 79, 74
1, 187250, Note_off_c, 0, 79, 64
1, 187266, Note_on_c, 0, 83, 92
1, 187309, Note_off_c, 0, 83, 64
1, 187333, Note_on_c, 0, 86, 72
1, 187403, Note_on_c, 0, 83, 83
1, 187425, Note_off_c, 0, 86, 64
1, 187451, Note_off_c, 0, 83, 64
1, 187464, Note_on_c, 0, 79, 62
1, 187498, Note_off_c, 0, 79, 64
1, 187531, Note_on_c, 0, 74, 55
1, 187565, Note_off_c, 0, 74, 64
1, 187601, Note_on_c, 0, 71, 52
1, 187648, Note_off_c, 0, 71, 64
1, 187648, Note_on_c, 0, 67, 33
1, 187721, Note_off_c, 0, 67, 64
1, 187721, Note_on_c, 0, 62, 39
1, 187781, Note_off_c, 0, 62, 64
1, 187790, Note_on_c, 0, 59, 39
1, 187884, Note_on_c, 0, 55, 38
1, 187907, Note_off_c, 0, 59, 64
1, 187927, Note_off_c, 0, 55, 64
1, 187965, Note_on_c, 0, 41, 85
1, 188141, Note_off_c, 0, 41, 64
1, 188189, Note_on_c, 0, 55, 41
1, 188263, Note_off_c, 0, 55, 64
1, 188292, Note_on_c, 0, 59, 32
1, 188352, Note_on_c, 0, 62, 42
1, 188364, Note_off_c, 0, 59, 64
1, 188419, Note_on_c, 0, 67, 46
1, 188423, Note_off_c, 0, 62, 64
1, 188464, Note_off_c, 0, 67, 64
1, 188515, Note_on_c, 0, 71, 23
1, 188561, Note_off_c, 0, 71, 64
1, 188568, Note_on_c, 0, 74, 46
1, 188614, Note_off_c, 0, 74, 64
1, 188631, Note_on_c, 0, 79, 74
1, 188671, Note_off_c, 0, 79, 64
1, 188710, Note_on_c, 0, 83, 75
1, 188749, Note_off_c, 0, 83, 64
1, 188763, Note_on_c, 0, 86, 67
1, 188818, Note_on_c, 0, 83, 71
1, 188832, Note_off_c, 0, 86, 64
1, 188887, Note_off_c, 0, 83, 64
1, 188887, Note_on_c, 0, 79, 56
1, 188927, Note_off_c, 0, 79, 64
1, 188952, Note_on_c, 0, 74, 52
1, 188990, Note_off_c, 0, 74, 64
1, 189027, Note_on_c, 0, 71, 57
1, 189052, Note_on_c, 0, 67, 26
1, 189068, Note_off_c, 0, 71, 64
1, 189116, Note_off_c, 0, 67, 64
1, 189127, Note_on_c, 0, 62, 45
1, 189172, Note_off_c, 0, 62, 64
1, 189205, Note_on_c, 0, 59, 35
1, 189269, Note_off_c, 0, 59, 64
1, 189274, Note_on_c, 0, 55, 36
1, 189330, Note_off_c, 0, 55, 64
1, 189372, Note_on_c, 0, 76, 25
1, 189426, Note_off_c, 0, 76, 64
1, 189458, Note_on_c, 0, 83, 72
1, 189526, Note_on_c, 0, 40, 70
1, 189598, Control_c, 0, 64, 0
1, 189713, Note_on_c, 0, 92, 61
1, 189773, Note_off_c, 0, 40, 64
1, 189790, Control_c, 0, 64, 127
1, 190002, Note_on_c, 0, 56, 37
1, 190021, Note_off_c, 0, 92, 64
1, 190039, Note_off_c, 0, 83, 64
1, 190068, Note_off_c, 0, 56, 64
1, 190113, Note_on_c, 0, 59, 35
1, 190171, Note_off_c, 0, 59, 64
1, 190181, Note_on_c, 0, 64, 30
1, 190242, Note_on_c, 0, 68, 32
1, 190249, Note_off_c, 0, 64, 64
1, 190297, Note_off_c, 0, 68, 64
1, 190331, Note_on_c, 0, 71, 33
1, 190389, Note_off_c, 0, 71, 64
1, 190395, Note_on_c, 0, 76, 37
1, 190440, Note_off_c, 0, 76, 64
1, 190464, Note_on_c, 0, 80, 49
1, 190526, Note_off_c, 0, 80, 64
1, 190540, Note_on_c, 0, 83, 57
1, 190582, Note_off_c, 0, 83, 64
1, 190593, Note_on_c, 0, 88, 55
1, 190634, Note_off_c, 0, 88, 64
1, 190653, Note_on_c, 0, 83, 57
1, 190748, Note_off_c, 0, 83, 64
1, 190748, Note_on_c, 0, 80, 41
1, 190795, Note_on_c, 0, 76, 38
1, 190848, Note_off_c, 0, 80, 64
1, 190885, Note_off_c, 0, 76, 64
1, 190933, Note_on_c, 0, 68, 24
1, 190988, Note_off_c, 0, 68, 64
1, 191055, Note_on_c, 0, 64, 9
1, 191122, Note_on_c, 0, 59, 20
1, 191133, Note_off_c, 0, 64, 64
1, 191213, Note_off_c, 0, 59, 64
1, 191219, Note_on_c, 0, 56, 19
1, 191291, Note_off_c, 0, 56, 64
1, 191294, Note_on_c, 0, 38, 52
1, 191454, Note_off_c, 0, 38, 64
1, 191556, Note_on_c, 0, 56, 25
1, 191657, Note_on_c, 0, 59, 20
1, 191710, Note_off_c, 0, 56, 64
1, 191740, Note_on_c, 0, 64, 32
1, 191794, Note_on_c, 0, 68, 34
1, 191802, Note_off_c, 0, 64, 64
1, 191810, Note_off_c, 0, 59, 64
1, 191857, Note_off_c, 0, 68, 64
1, 191885, Note_on_c, 0, 71, 50
1, 191932, Note_off_c, 0, 71, 64
1, 191963, Note_on_c, 0, 76, 22
1, 192018, Note_off_c, 0, 76, 64
1, 192018, Note_on_c, 0, 80, 48
1, 192096, Note_off_c, 0, 80, 64
1, 192105, Note_on_c, 0, 83, 62
1, 192153, Note_off_c, 0, 83, 64
1, 192164, Note_on_c, 0, 88, 64
1, 192208, Note_off_c, 0, 88, 64
1, 192247, Note_on_c, 0, 83, 60
1, 192334, Note_off_c, 0, 83, 64
1, 192334, Note_on_c, 0, 80, 51
1, 192395, Note_off_c, 0, 80, 64
1, 192401, Note_on_c, 0, 76, 31
1, 192490, Note_on_c, 0, 71, 32
1, 192496, Note_off_c, 0, 76, 64
1, 192548, Note_off_c, 0, 71, 64
1, 192551, Note_on_c, 0, 68, 20
1, 192606, Note_off_c, 0, 68, 64
1, 192654, Note_on_c, 0, 64, 25
1, 192712, Note_off_c, 0, 64, 64
1, 192755, Note_on_c, 0, 59, 12
1, 192829, Note_off_c, 0, 59, 64
1, 192852, Note_on_c, 0, 56, 26
1, 192907, Note_off_c, 0, 56, 64
1, 193100, Note_on_c, 0, 37, 45
1, 193170, Control_c, 0, 64, 0
1, 193322, Note_on_c, 0, 44, 41
1, 193322, Control_c, 0, 64, 127
1, 193328, Note_off_c, 0, 37, 64
1, 193428, Note_off_c, 0, 44, 64
1, 193447, Note_on_c, 0, 49, 36
1, 193517, Note_off_c, 0, 49, 64
1, 193534, Note_on_c, 0, 53, 78
1, 193567, Note_off_c, 0, 53, 64
1, 193615, Note_on_c, 0, 56, 46
1, 193704, Note_on_c, 0, 61, 51
1, 193726, Note_off_c, 0, 56, 64
1, 193793, Note_on_c, 0, 65, 52
1, 193818, Note_off_c, 0, 61, 64
1, 193893, Note_on_c, 0, 68, 55
1, 193899, Note_off_c, 0, 65, 64
1, 193989, Note_on_c, 0, 73, 52
1, 194095, Note_on_c, 0, 77, 63
1, 194159, Note_on_c, 0, 80, 68
1, 194178, Note_off_c, 0, 77, 64
1, 194237, Note_on_c, 0, 85, 57
1, 194244, Note_off_c, 0, 73, 64
1, 194314, Note_on_c, 0, 89, 56
1, 194425, Note_on_c, 0, 92, 62
1, 194540, Note_off_c, 0, 80, 64
1, 194570, Note_off_c, 0, 89, 64
1, 194911, Note_off_c, 0, 68, 64
1, 195058, Note_off_c, 0, 85, 64
1, 195301, Note_off_c, 0, 92, 64
1, 195657, Note_on_c, 0, 34, 49
1, 195723, Control_c, 0, 64, 0
1, 195843, Control_c, 0, 64, 127
1, 195850, Note_on_c, 0, 46, 52
1, 195865, Note_off_c, 0, 34, 64
1, 195894, Note_off_c, 0, 46, 64
1, 195985, Note_on_c, 0, 49, 39
1, 196067, Note_off_c, 0, 49, 64
1, 196095, Note_on_c, 0, 53, 28
1, 196138, Note_off_c, 0, 53, 64
1, 196158, Note_on_c, 0, 58, 39
1, 196240, Note_on_c, 0, 61, 54
1, 196265, Note_off_c, 0, 58, 64
1, 196343, Note_on_c, 0, 65, 46
1, 196346, Note_off_c, 0, 61, 64
1, 196400, Note_off_c, 0, 65, 64
1, 196434, Note_on_c, 0, 70, 76
1, 196562, Note_on_c, 0, 73, 47
1, 196632, Note_off_c, 0, 73, 64
1, 196638, Note_on_c, 0, 77, 57
1, 196669, Note_off_c, 0, 77, 64
1, 196693, Note_on_c, 0, 82, 39
1, 196721, Note_off_c, 0, 70, 64
1, 196758, Note_on_c, 0, 85, 52
1, 196860, Note_on_c, 0, 89, 47
1, 196865, Note_off_c, 0, 85, 64
1, 196946, Note_on_c, 0, 30, 76
1, 196956, Control_c, 0, 64, 0
1, 196956, Note_off_c, 0, 89, 64
1, 196960, Note_on_c, 0, 94, 55
1, 197025, Note_off_c, 0, 30, 64
1, 197025, Note_on_c, 0, 42, 75
1, 197028, Note_off_c, 0, 94, 64
1, 197041, Control_c, 0, 64, 127
1, 197052, Note_off_c, 0, 42, 64
1, 197061, Note_off_c, 0, 82, 64
1, 197161, Note_on_c, 0, 49, 69
1, 197216, Note_off_c, 0, 49, 64
1, 197225, Note_on_c, 0, 54, 55
1, 197258, Note_on_c, 0, 58, 62
1, 197272, Note_off_c, 0, 54, 64
1, 197279, Note_on_c, 0, 61, 58
1, 197293, Note_off_c, 0, 58, 64
1, 197351, Note_on_c, 0, 66, 56
1, 197364, Note_off_c, 0, 61, 64
1, 197407, Note_on_c, 0, 70, 47
1, 197460, Note_off_c, 0, 66, 64
1, 197468, Note_off_c, 0, 70, 64
1, 197493, Note_on_c, 0, 73, 96
1, 197598, Note_on_c, 0, 78, 68
1, 197648, Note_off_c, 0, 73, 64
1, 197662, Note_on_c, 0, 82, 66
1, 197707, Note_off_c, 0, 82, 64
1, 197722, Note_off_c, 0, 78, 64
1, 197729, Note_on_c, 0, 73, 17
1, 197729, Note_on_c, 0, 85, 76
1, 197783, Note_off_c, 0, 73, 64
1, 197805, Note_on_c, 0, 90, 72
1, 197878, Note_on_c, 0, 94, 58
1, 197894, Note_off_c, 0, 90, 64
1, 197925, Note_off_c, 0, 85, 64
1, 197969, Note_on_c, 0, 97, 65
1, 197999, Note_off_c, 0, 97, 64
1, 198002, Note_off_c, 0, 94, 64
1, 198031, Note_on_c, 0, 27, 91
1, 198059, Control_c, 0, 64, 0
1, 198148, Note_on_c, 0, 39, 85
1, 198155, Note_off_c, 0, 27, 64
1, 198178, Note_off_c, 0, 39, 64
1, 198178, Control_c, 0, 64, 127
1, 198297, Note_on_c, 0, 46, 67
1, 198382, Note_on_c, 0, 51, 76
1, 198406, Note_off_c, 0, 46, 64
1, 198465, Note_on_c, 0, 54, 81
1, 198503, Note_off_c, 0, 51, 64
1, 198509, Note_off_c, 0, 54, 64
1, 198520, Note_on_c, 0, 58, 62
1, 198554, Note_off_c, 0, 58, 64
1, 198559, Note_on_c, 0, 63, 71
1, 198630, Note_on_c, 0, 66, 64
1, 198676, Note_off_c, 0, 63, 64
1, 198702, Note_on_c, 0, 70, 66
1, 198761, Note_off_c, 0, 66, 64
1, 198780, Note_off_c, 0, 70, 64
1, 198780, Note_on_c, 0, 75, 89
1, 198939, Note_on_c, 0, 78, 66
1, 199025, Note_on_c, 0, 82, 72
1, 199038, Note_off_c, 0, 78, 64
1, 199098, Note_on_c, 0, 87, 58
1, 199112, Note_off_c, 0, 82, 64
1, 199173, Note_on_c, 0, 90, 66
1, 199197, Note_off_c, 0, 87, 64
1, 199245, Note_off_c, 0, 90, 64
1, 199264, Note_on_c, 0, 94, 52
1, 199303, Note_off_c, 0, 94, 64
1, 199426, Note_on_c, 0, 99, 89
1, 200911, Note_off_c, 0, 99, 64
1, 201014, Note_off_c, 0, 75, 64
1, 201014, Note_on_c, 0, 101, 79
1, 201025, Note_on_c, 0, 89, 57
1, 201028, Note_on_c, 0, 77, 55
1, 201259, Note_off_c, 0, 89, 64
1, 201275, Note_off_c, 0, 101, 64
1, 201477, Note_off_c, 0, 77, 64
1, 201477, Note_on_c, 0, 99, 70
1, 201481, Note_on_c, 0, 87, 53
1, 201490, Note_on_c, 0, 75, 50
1, 201788, Note_off_c, 0, 99, 64
1, 202942, Note_on_c, 0, 94, 31
1, 202953, Note_on_c, 0, 82, 25
1, 202967, Note_on_c, 0, 70, 23
1, 202981, Note_off_c, 0, 75, 64
1, 203148, Note_off_c, 0, 87, 64
1, 203285, Note_off_c, 0, 70, 64
1, 203460, Note_off_c, 0, 94, 64
1, 203557, Note_off_c, 0, 82, 64
1, 204677, Note_on_c, 0, 63, 62
1, 205179, Note_on_c, 0, 65, 68
1, 205225, Note_off_c, 0, 63, 64
1, 205359, Note_on_c, 0, 63, 68
1, 205404, Note_off_c, 0, 65, 64
1, 205477, Control_c, 0, 64, 0
1, 205825, Control_c, 0, 64, 127
1, 206229, Note_on_c, 0, 54, 47
1, 206229, Note_on_c, 0, 58, 44
1, 206246, Note_on_c, 0, 51, 27
1, 206374, Note_off_c, 0, 63, 64
1, 206533, Control_c, 0, 64, 0
1, 206713, Control_c, 0, 64, 127
1, 206895, Note_off_c, 0, 54, 64
1, 207050, Note_on_c, 0, 56, 33
1, 207053, Note_on_c, 0, 61, 44
1, 207062, Note_on_c, 0, 49, 34
1, 207062, Note_on_c, 0, 53, 63
1, 207092, Note_off_c, 0, 51, 64
1, 207165, Note_off_c, 0, 58, 64
1, 207192, Control_c, 0, 64, 0
1, 207563, Control_c, 0, 64, 127
1, 207706, Control_c, 0, 64, 0
1, 207970, Control_c, 0, 64, 127
1, 208309, Note_off_c, 0, 61, 64
1, 208309, Note_off_c, 0, 56, 64
1, 208323, Note_off_c, 0, 49, 64
1, 208349, Note_off_c, 0, 53, 64
1, 208780, Note_on_c, 0, 61, 59
1, 208789, Note_on_c, 0, 57, 41
1, 208789, Note_on_c, 0, 52, 51
1, 208789, Note_on_c, 0, 45, 46
1, 209025, Control_c, 0, 64, 0
1, 209421, Control_c, 0, 64, 127
1, 209632, Note_off_c, 0, 52, 64
1, 209675, Note_off_c, 0, 61, 64
1, 209850, Note_off_c, 0, 57, 64
1, 210190, Note_off_c, 0, 45, 64
1, 210201, Note_on_c, 0, 42, 44
1, 210201, Note_on_c, 0, 61, 52
1, 210201, Note_on_c, 0, 54, 57
1, 210213, Note_on_c, 0, 58, 26
1, 210368, Control_c, 0, 64, 0
1, 210788, Control_c, 0, 64, 127
1, 211050, Note_off_c, 0, 54, 64
1, 211056, Note_off_c, 0, 58, 64
1, 211541, Note_off_c, 0, 61, 64
1, 211666, Note_on_c, 0, 63, 56
1, 211666, Note_on_c, 0, 39, 33
1, 211669, Note_on_c, 0, 54, 44
1, 211681, Note_on_c, 0, 58, 24
1, 211695, Note_off_c, 0, 42, 64
1, 211806, Control_c, 0, 64, 0
1, 212310, Control_c, 0, 64, 127
1, 212532, Note_off_c, 0, 54, 64
1, 212664, Note_off_c, 0, 58, 64
1, 212948, Note_off_c, 0, 63, 64
1, 213101, Note_off_c, 0, 39, 64
1, 213549, Note_on_c, 0, 61, 24
1, 213549, Note_on_c, 0, 65, 33
1, 213563, Note_on_c, 0, 56, 25
1, 213563, Note_on_c, 0, 37, 14
1, 213567, Note_on_c, 0, 49, 13
1, 213567, Note_on_c, 0, 44, 23
1, 213577, Note_on_c, 0, 53, 43
1, 213783, Control_c, 0, 64, 0
1, 214263, Control_c, 0, 64, 127
1, 214826, Note_off_c, 0, 53, 64
1, 214975, Note_off_c, 0, 56, 64
1, 215182, Note_off_c, 0, 61, 64
1, 215262, Note_off_c, 0, 49, 64
1, 215371, Note_off_c, 0, 65, 64
1, 215447, Note_off_c, 0, 44, 64
1, 215753, Note_on_c, 0, 65, 63
1, 216148, Note_off_c, 0, 37, 64
1, 216193, Control_c, 0, 64, 0
1, 216201, Note_on_c, 0, 29, 46
1, 216355, Note_on_c, 0, 36, 47
1, 216355, Note_off_c, 0, 29, 64
1, 216372, Control_c, 0, 64, 127
1, 216419, Note_off_c, 0, 65, 64
1, 216481, Note_off_c, 0, 36, 64
1, 216481, Note_on_c, 0, 41, 54
1, 216697, Note_off_c, 0, 41, 64
1, 216720, Note_on_c, 0, 65, 66
1, 216720, Note_on_c, 0, 57, 44
1, 216731, Note_on_c, 0, 60, 52
1, 216731, Note_on_c, 0, 53, 55
1, 216744, Note_on_c, 0, 48, 34
1, 216809, Note_on_c, 0, 41, 3
1, 216843, Note_on_c, 0, 36, 2
1, 217683, Note_off_c, 0, 53, 64
1, 217754, Note_off_c, 0, 57, 64
1, 217829, Note_off_c, 0, 60, 64
1, 217910, Note_off_c, 0, 65, 64
1, 218630, Note_on_c, 0, 65, 38
1, 218848, Note_off_c, 0, 65, 64
1, 220023, Note_on_c, 0, 65, 30
1, 220252, Note_off_c, 0, 48, 64
1, 220358, Note_off_c, 0, 41, 64
1, 220537, Note_off_c, 0, 36, 64
1, 221395, Note_on_c, 0, 25, 19
1, 221693, Control_c, 0, 64, 0
1, 221701, Note_on_c, 0, 37, 22
1, 221775, Note_off_c, 0, 25, 64
1, 221814, Control_c, 0, 64, 127
1, 221868, Note_off_c, 0, 37, 64
1, 222010, Note_on_c, 0, 44, 28
1, 222233, Note_off_c, 0, 65, 64
1, 222303, Note_on_c, 0, 49, 24
1, 222650, Note_on_c, 0, 53, 44
1, 223030, Note_on_c, 0, 56, 39
1, 223541, Note_on_c, 0, 61, 39
1, 224508, Note_off_c, 0, 53, 64
1, 224671, Note_on_c, 0, 37, 2
1, 224712, Note_on_c, 0, 65, 26
1, 227994, Note_off_c, 0, 49, 64
1, 228150, Note_off_c, 0, 44, 64
1, 228275, Note_off_c, 0, 56, 64
1, 228472, Note_off_c, 0, 61, 64
1, 228472, Note_off_c, 0, 37, 64
1, 228526, Note_off_c, 0, 65, 64
1, 228752, Control_c, 0, 64, 0
1, 230631, Control_c, 0, 64, 0
1, 232129, End_track
0, 0, End_of_file
