0, 0, Header, 0, 1, 384
1, 0, Start_track
1, 0, Tempo, 512820
1, 0, Title_t, ""
1, 0, Control_c, 0, 64, 127
1, 0, Control_c, 0, 64, 0
1, 0, Control_c, 0, 64, 127
1, 3, Note_on_c, 0, 46, 19
1, 6, Note_on_c, 0, 34, 21
1, 141, Note_on_c, 0, 34, 0
1, 172, Note_on_c, 0, 46, 0
1, 495, Note_on_c, 0, 58, 11
1, 495, Note_on_c, 0, 62, 18
1, 504, Note_on_c, 0, 65, 13
1, 509, Note_on_c, 0, 53, 28
1, 563, Note_on_c, 0, 53, 0
1, 606, Note_on_c, 0, 65, 0
1, 621, Note_on_c, 0, 58, 0
1, 666, Note_on_c, 0, 62, 0
1, 797, Note_on_c, 0, 70, 32
1, 811, Note_on_c, 0, 65, 21
1, 811, Note_on_c, 0, 53, 45
1, 827, Note_on_c, 0, 50, 30
1, 877, Note_on_c, 0, 53, 0
1, 883, Note_on_c, 0, 50, 0
1, 902, Note_on_c, 0, 70, 0
1, 902, Note_on_c, 0, 65, 0
1, 1078, Note_on_c, 0, 74, 41
1, 1086, Note_on_c, 0, 58, 19
1, 1086, Note_on_c, 0, 65, 24
1, 1094, Note_on_c, 0, 62, 24
1, 1094, Note_on_c, 0, 53, 39
1, 1148, Note_on_c, 0, 53, 0
1, 1156, Note_on_c, 0, 74, 0
1, 1159, Note_on_c, 0, 62, 0
1, 1166, Note_on_c, 0, 58, 0
1, 1180, Note_on_c, 0, 65, 0
1, 1370, Note_on_c, 0, 70, 32
1, 1382, Note_on_c, 0, 65, 19
1, 1390, Note_on_c, 0, 58, 16
1, 1395, Note_on_c, 0, 62, 29
1, 1454, Note_on_c, 0, 62, 0
1, 1457, Note_on_c, 0, 58, 0
1, 1471, Note_on_c, 0, 65, 0
1, 1479, Note_on_c, 0, 70, 0
1, 1688, Note_on_c, 0, 58, 13
1, 1696, Note_on_c, 0, 65, 27
1, 1696, Note_on_c, 0, 62, 26
1, 1709, Note_on_c, 0, 53, 32
1, 1757, Note_on_c, 0, 58, 0
1, 1760, Note_on_c, 0, 53, 0
1, 1772, Note_on_c, 0, 62, 0
1, 1864, Note_on_c, 0, 65, 0
1, 2050, Note_on_c, 0, 46, 7
1, 2050, Note_on_c, 0, 34, 32
1, 2111, Note_on_c, 0, 34, 0
1, 2142, Note_on_c, 0, 46, 0
1, 2384, Note_on_c, 0, 58, 15
1, 2384, Note_on_c, 0, 65, 25
1, 2392, Note_on_c, 0, 53, 7
1, 2396, Note_on_c, 0, 62, 26
1, 2470, Note_on_c, 0, 53, 0
1, 2485, Note_on_c, 0, 58, 0
1, 2485, Note_on_c, 0, 62, 0
1, 2493, Note_on_c, 0, 65, 0
1, 2662, Note_on_c, 0, 70, 36
1, 2671, Note_on_c, 0, 53, 38
1, 2676, Note_on_c, 0, 65, 24
1, 2680, Note_on_c, 0, 50, 17
1, 2752, Note_on_c, 0, 53, 0
1, 2763, Note_on_c, 0, 50, 0
1, 2772, Note_on_c, 0, 70, 0
1, 2772, Note_on_c, 0, 65, 0
1, 2927, Note_on_c, 0, 74, 48
1, 2927, Note_on_c, 0, 62, 39
1, 2927, Note_on_c, 0, 65, 19
1, 2941, Note_on_c, 0, 58, 17
1, 2947, Note_on_c, 0, 53, 34
1, 3006, Note_on_c, 0, 53, 0
1, 3013, Note_on_c, 0, 74, 0
1, 3019, Note_on_c, 0, 58, 0
1, 3019, Note_on_c, 0, 65, 0
1, 3055, Note_on_c, 0, 62, 0
1, 3201, Note_on_c, 0, 70, 34
1, 3208, Note_on_c, 0, 65, 30
1, 3208, Note_on_c, 0, 62, 32
1, 3208, Note_on_c, 0, 58, 25
1, 3276, Note_on_c, 0, 62, 0
1, 3281, Note_on_c, 0, 58, 0
1, 3303, Note_on_c, 0, 65, 0
1, 3348, Note_on_c, 0, 70, 0
1, 3531, Note_on_c, 0, 62, 23
1, 3531, Note_on_c, 0, 53, 25
1, 3534, Note_on_c, 0, 58, 20
1, 3534, Note_on_c, 0, 65, 8
1, 3584, Note_on_c, 0, 53, 0
1, 3608, Note_on_c, 0, 58, 0
1, 3693, Note_on_c, 0, 62, 0
1, 3758, Note_on_c, 0, 65, 0
1, 3797, Note_on_c, 0, 34, 37
1, 3804, Note_on_c, 0, 46, 19
1, 3863, Note_on_c, 0, 34, 0
1, 3878, Note_on_c, 0, 46, 0
1, 4081, Note_on_c, 0, 70, 33
1, 4092, Note_on_c, 0, 62, 30
1, 4095, Note_on_c, 0, 65, 28
1, 4102, Note_on_c, 0, 58, 19
1, 4156, Note_on_c, 0, 62, 0
1, 4180, Note_on_c, 0, 58, 0
1, 4212, Note_on_c, 0, 70, 0
1, 4272, Note_on_c, 0, 65, 0
1, 4351, Note_on_c, 0, 70, 32
1, 4356, Note_on_c, 0, 74, 55
1, 4365, Note_on_c, 0, 58, 21
1, 4385, Note_on_c, 0, 53, 31
1, 4424, Note_on_c, 0, 70, 0
1, 4432, Note_on_c, 0, 58, 0
1, 4445, Note_on_c, 0, 53, 0
1, 4479, Note_on_c, 0, 74, 0
1, 4619, Note_on_c, 0, 58, 34
1, 4626, Note_on_c, 0, 77, 57
1, 4626, Note_on_c, 0, 65, 43
1, 4640, Note_on_c, 0, 70, 24
1, 4649, Note_on_c, 0, 62, 29
1, 4704, Note_on_c, 0, 70, 0
1, 4707, Note_on_c, 0, 62, 0
1, 4711, Note_on_c, 0, 58, 0
1, 4719, Note_on_c, 0, 65, 0
1, 4839, Note_on_c, 0, 77, 0
1, 4899, Note_on_c, 0, 70, 29
1, 4902, Note_on_c, 0, 65, 39
1, 4902, Note_on_c, 0, 74, 46
1, 4919, Note_on_c, 0, 62, 36
1, 4955, Note_on_c, 0, 65, 0
1, 4967, Note_on_c, 0, 62, 0
1, 5011, Note_on_c, 0, 70, 0
1, 5175, Note_on_c, 0, 74, 0
1, 5178, Note_on_c, 0, 70, 39
1, 5186, Note_on_c, 0, 58, 28
1, 5190, Note_on_c, 0, 62, 21
1, 5197, Note_on_c, 0, 65, 34
1, 5237, Note_on_c, 0, 58, 0
1, 5243, Note_on_c, 0, 62, 0
1, 5287, Note_on_c, 0, 65, 0
1, 5374, Note_on_c, 0, 70, 0
1, 5424, Note_on_c, 0, 46, 29
1, 5437, Note_on_c, 0, 34, 46
1, 5481, Note_on_c, 0, 34, 0
1, 5498, Note_on_c, 0, 46, 0
1, 5699, Note_on_c, 0, 68, 50
1, 5707, Note_on_c, 0, 65, 33
1, 5707, Note_on_c, 0, 74, 61
1, 5721, Note_on_c, 0, 58, 16
1, 5779, Note_on_c, 0, 65, 0
1, 5813, Note_on_c, 0, 58, 0
1, 5813, Note_on_c, 0, 74, 0
1, 5925, Note_on_c, 0, 68, 0
1, 5977, Note_on_c, 0, 77, 72
1, 5983, Note_on_c, 0, 74, 51
1, 5983, Note_on_c, 0, 56, 36
1, 5986, Note_on_c, 0, 58, 30
1, 6062, Note_on_c, 0, 58, 0
1, 6103, Note_on_c, 0, 56, 0
1, 6109, Note_on_c, 0, 74, 0
1, 6133, Note_on_c, 0, 77, 0
1, 6276, Note_on_c, 0, 80, 69
1, 6287, Note_on_c, 0, 68, 42
1, 6287, Note_on_c, 0, 74, 17
1, 6290, Note_on_c, 0, 58, 25
1, 6300, Note_on_c, 0, 65, 29
1, 6347, Note_on_c, 0, 74, 0
1, 6353, Note_on_c, 0, 68, 0
1, 6367, Note_on_c, 0, 65, 0
1, 6389, Note_on_c, 0, 58, 0
1, 6457, Note_on_c, 0, 80, 0
1, 6605, Note_on_c, 0, 68, 36
1, 6605, Note_on_c, 0, 77, 45
1, 6610, Note_on_c, 0, 74, 34
1, 6614, Note_on_c, 0, 65, 20
1, 6663, Note_on_c, 0, 74, 0
1, 6663, Note_on_c, 0, 65, 0
1, 6669, Note_on_c, 0, 68, 0
1, 6700, Note_on_c, 0, 77, 0
1, 6906, Note_on_c, 0, 68, 28
1, 6909, Note_on_c, 0, 65, 25
1, 6917, Note_on_c, 0, 58, 12
1, 6922, Note_on_c, 0, 74, 39
1, 6956, Note_on_c, 0, 65, 0
1, 6989, Note_on_c, 0, 58, 0
1, 7103, Note_on_c, 0, 74, 0
1, 7197, Note_on_c, 0, 34, 42
1, 7201, Note_on_c, 0, 46, 18
1, 7212, Control_c, 0, 64, 0
1, 7265, Note_on_c, 0, 68, 0
1, 7296, Note_on_c, 0, 34, 0
1, 7328, Note_on_c, 0, 46, 0
1, 7332, Control_c, 0, 64, 127
1, 7466, Note_on_c, 0, 70, 29
1, 7482, Note_on_c, 0, 63, 28
1, 7485, Note_on_c, 0, 58, 17
1, 7498, Note_on_c, 0, 67, 19
1, 7546, Note_on_c, 0, 63, 0
1, 7576, Note_on_c, 0, 58, 0
1, 7596, Note_on_c, 0, 70, 0
1, 7610, Note_on_c, 0, 67, 0
1, 7750, Note_on_c, 0, 75, 34
1, 7750, Note_on_c, 0, 58, 26
1, 7750, Note_on_c, 0, 70, 32
1, 7758, Note_on_c, 0, 55, 19
1, 7811, Note_on_c, 0, 55, 0
1, 7814, Note_on_c, 0, 70, 0
1, 7821, Note_on_c, 0, 58, 0
1, 7839, Note_on_c, 0, 75, 0
1, 8030, Note_on_c, 0, 67, 48
1, 8036, Note_on_c, 0, 79, 55
1, 8039, Note_on_c, 0, 70, 25
1, 8047, Note_on_c, 0, 58, 20
1, 8064, Note_on_c, 0, 63, 26
1, 8115, Note_on_c, 0, 70, 0
1, 8123, Note_on_c, 0, 63, 0
1, 8145, Note_on_c, 0, 58, 0
1, 8156, Note_on_c, 0, 79, 0
1, 8172, Note_on_c, 0, 67, 0
1, 8318, Note_on_c, 0, 70, 31
1, 8329, Note_on_c, 0, 67, 27
1, 8329, Note_on_c, 0, 75, 34
1, 8338, Note_on_c, 0, 63, 28
1, 8388, Note_on_c, 0, 67, 0
1, 8409, Note_on_c, 0, 75, 0
1, 8409, Note_on_c, 0, 63, 0
1, 8413, Note_on_c, 0, 70, 0
1, 8608, Note_on_c, 0, 63, 38
1, 8608, Note_on_c, 0, 67, 25
1, 8612, Note_on_c, 0, 58, 19
1, 8616, Note_on_c, 0, 70, 30
1, 8652, Note_on_c, 0, 63, 0
1, 8677, Note_on_c, 0, 58, 0
1, 8705, Note_on_c, 0, 67, 0
1, 8902, Note_on_c, 0, 70, 0
1, 8925, Note_on_c, 0, 46, 23
1, 8933, Note_on_c, 0, 34, 26
1, 8986, Control_c, 0, 64, 0
1, 9067, Note_on_c, 0, 34, 0
1, 9067, Control_c, 0, 64, 127
1, 9083, Note_on_c, 0, 46, 0
1, 9243, Note_on_c, 0, 69, 26
1, 9253, Note_on_c, 0, 63, 26
1, 9257, Note_on_c, 0, 66, 20
1, 9267, Note_on_c, 0, 60, 28
1, 9312, Note_on_c, 0, 63, 0
1, 9332, Note_on_c, 0, 60, 0
1, 9371, Note_on_c, 0, 69, 0
1, 9426, Note_on_c, 0, 66, 0
1, 9521, Note_on_c, 0, 75, 34
1, 9529, Note_on_c, 0, 69, 20
1, 9533, Note_on_c, 0, 54, 38
1, 9548, Note_on_c, 0, 60, 19
1, 9590, Note_on_c, 0, 54, 0
1, 9594, Note_on_c, 0, 75, 0
1, 9599, Note_on_c, 0, 69, 0
1, 9607, Note_on_c, 0, 60, 0
1, 9799, Note_on_c, 0, 78, 50
1, 9819, Note_on_c, 0, 69, 18
1, 9822, Note_on_c, 0, 60, 9
1, 9825, Note_on_c, 0, 66, 24
1, 9830, Note_on_c, 0, 63, 25
1, 9878, Note_on_c, 0, 63, 0
1, 9881, Note_on_c, 0, 66, 0
1, 9894, Note_on_c, 0, 69, 0
1, 9936, Note_on_c, 0, 78, 0
1, 9972, Note_on_c, 0, 60, 0
1, 10081, Note_on_c, 0, 75, 33
1, 10089, Note_on_c, 0, 66, 24
1, 10089, Note_on_c, 0, 63, 31
1, 10095, Note_on_c, 0, 69, 20
1, 10148, Note_on_c, 0, 63, 0
1, 10156, Note_on_c, 0, 66, 0
1, 10165, Note_on_c, 0, 69, 0
1, 10196, Note_on_c, 0, 75, 0
1, 10416, Note_on_c, 0, 69, 22
1, 10421, Note_on_c, 0, 66, 14
1, 10424, Note_on_c, 0, 63, 23
1, 10429, Note_on_c, 0, 60, 36
1, 10474, Note_on_c, 0, 63, 0
1, 10480, Note_on_c, 0, 60, 0
1, 10529, Note_on_c, 0, 69, 0
1, 10616, Note_on_c, 0, 66, 0
1, 10756, Note_on_c, 0, 34, 29
1, 10763, Note_on_c, 0, 46, 19
1, 10783, Control_c, 0, 64, 0
1, 10889, Note_on_c, 0, 34, 0
1, 10889, Control_c, 0, 64, 127
1, 10900, Note_on_c, 0, 46, 0
1, 11034, Note_on_c, 0, 70, 26
1, 11048, Note_on_c, 0, 62, 19
1, 11051, Note_on_c, 0, 65, 16
1, 11064, Note_on_c, 0, 58, 7
1, 11114, Note_on_c, 0, 62, 0
1, 11126, Note_on_c, 0, 58, 0
1, 11171, Note_on_c, 0, 70, 0
1, 11171, Note_on_c, 0, 65, 0
1, 11310, Note_on_c, 0, 70, 23
1, 11323, Note_on_c, 0, 74, 39
1, 11323, Note_on_c, 0, 58, 21
1, 11335, Note_on_c, 0, 53, 28
1, 11391, Note_on_c, 0, 53, 0
1, 11391, Note_on_c, 0, 70, 0
1, 11398, Note_on_c, 0, 58, 0
1, 11413, Note_on_c, 0, 74, 0
1, 11585, Note_on_c, 0, 65, 38
1, 11585, Note_on_c, 0, 70, 17
1, 11585, Note_on_c, 0, 77, 50
1, 11585, Note_on_c, 0, 58, 20
1, 11596, Note_on_c, 0, 62, 13
1, 11655, Note_on_c, 0, 62, 0
1, 11661, Note_on_c, 0, 70, 0
1, 11686, Note_on_c, 0, 65, 0
1, 11689, Note_on_c, 0, 58, 0
1, 11700, Note_on_c, 0, 77, 0
1, 11867, Note_on_c, 0, 70, 24
1, 11873, Note_on_c, 0, 62, 21
1, 11877, Note_on_c, 0, 65, 21
1, 11880, Note_on_c, 0, 74, 28
1, 11930, Note_on_c, 0, 65, 0
1, 11933, Note_on_c, 0, 62, 0
1, 11941, Note_on_c, 0, 74, 0
1, 11976, Note_on_c, 0, 70, 0
1, 12181, Note_on_c, 0, 70, 19
1, 12185, Note_on_c, 0, 62, 22
1, 12196, Note_on_c, 0, 58, 11
1, 12199, Note_on_c, 0, 65, 21
1, 12235, Note_on_c, 0, 62, 0
1, 12263, Note_on_c, 0, 58, 0
1, 12276, Note_on_c, 0, 65, 0
1, 12404, Note_on_c, 0, 70, 0
1, 12483, Note_on_c, 0, 34, 20
1, 12504, Note_on_c, 0, 46, 18
1, 12561, Note_on_c, 0, 46, 0
1, 12572, Note_on_c, 0, 34, 0
1, 12822, Note_on_c, 0, 58, 8
1, 12822, Note_on_c, 0, 65, 16
1, 12830, Note_on_c, 0, 62, 17
1, 12830, Note_on_c, 0, 53, 28
1, 12891, Note_on_c, 0, 53, 0
1, 12909, Note_on_c, 0, 58, 0
1, 12930, Note_on_c, 0, 62, 0
1, 12936, Note_on_c, 0, 65, 0
1, 13092, Note_on_c, 0, 70, 27
1, 13126, Note_on_c, 0, 65, 11
1, 13140, Note_on_c, 0, 50, 12
1, 13196, Note_on_c, 0, 70, 0
1, 13196, Note_on_c, 0, 65, 0
1, 13223, Note_on_c, 0, 50, 0
1, 13391, Note_on_c, 0, 74, 42
1, 13405, Note_on_c, 0, 62, 22
1, 13411, Note_on_c, 0, 53, 24
1, 13418, Note_on_c, 0, 58, 10
1, 13465, Note_on_c, 0, 53, 0
1, 13496, Note_on_c, 0, 58, 0
1, 13508, Note_on_c, 0, 62, 0
1, 13527, Note_on_c, 0, 74, 0
1, 13706, Note_on_c, 0, 70, 27
1, 13719, Note_on_c, 0, 65, 8
1, 13725, Note_on_c, 0, 62, 22
1, 13725, Note_on_c, 0, 58, 15
1, 13783, Note_on_c, 0, 62, 0
1, 13789, Note_on_c, 0, 65, 0
1, 13803, Note_on_c, 0, 58, 0
1, 13841, Note_on_c, 0, 70, 0
1, 14089, Note_on_c, 0, 58, 12
1, 14098, Note_on_c, 0, 65, 22
1, 14121, Note_on_c, 0, 62, 4
1, 14170, Note_on_c, 0, 58, 0
1, 14193, Note_on_c, 0, 62, 0
1, 14242, Note_on_c, 0, 65, 0
1, 14614, Note_on_c, 0, 58, 76
1, 14660, Note_on_c, 0, 46, 12
1, 14666, Control_c, 0, 64, 0
1, 14666, Note_on_c, 0, 34, 16
1, 14786, Control_c, 0, 64, 127
1, 14825, Note_on_c, 0, 34, 0
1, 14839, Note_on_c, 0, 46, 0
1, 14933, Note_on_c, 0, 58, 0
1, 15075, Note_on_c, 0, 62, 31
1, 15075, Note_on_c, 0, 65, 20
1, 15089, Note_on_c, 0, 58, 20
1, 15157, Note_on_c, 0, 62, 0
1, 15157, Note_on_c, 0, 58, 0
1, 15167, Note_on_c, 0, 65, 0
1, 15352, Note_on_c, 0, 70, 30
1, 15361, Note_on_c, 0, 50, 10
1, 15361, Note_on_c, 0, 53, 41
1, 15371, Note_on_c, 0, 65, 26
1, 15416, Note_on_c, 0, 53, 0
1, 15429, Note_on_c, 0, 70, 0
1, 15448, Note_on_c, 0, 50, 0
1, 15454, Note_on_c, 0, 65, 0
1, 15630, Note_on_c, 0, 74, 36
1, 15630, Note_on_c, 0, 58, 24
1, 15630, Note_on_c, 0, 62, 29
1, 15639, Note_on_c, 0, 65, 14
1, 15653, Note_on_c, 0, 53, 26
1, 15691, Note_on_c, 0, 62, 0
1, 15703, Note_on_c, 0, 58, 0
1, 15708, Note_on_c, 0, 53, 0
1, 15716, Note_on_c, 0, 65, 0
1, 15720, Note_on_c, 0, 74, 0
1, 15890, Note_on_c, 0, 70, 28
1, 15898, Note_on_c, 0, 62, 27
1, 15904, Note_on_c, 0, 65, 19
1, 15914, Note_on_c, 0, 58, 14
1, 15950, Note_on_c, 0, 62, 0
1, 15968, Note_on_c, 0, 65, 0
1, 15971, Note_on_c, 0, 70, 0
1, 15978, Note_on_c, 0, 58, 0
1, 16196, Note_on_c, 0, 58, 13
1, 16217, Note_on_c, 0, 65, 20
1, 16220, Note_on_c, 0, 62, 23
1, 16262, Note_on_c, 0, 58, 0
1, 16284, Note_on_c, 0, 62, 0
1, 16354, Note_on_c, 0, 65, 0
1, 16569, Note_on_c, 0, 58, 4
1, 16569, Note_on_c, 0, 43, 27
1, 16588, Note_on_c, 0, 31, 19
1, 16675, Note_on_c, 0, 31, 0
1, 16703, Note_on_c, 0, 43, 0
1, 16787, Note_on_c, 0, 58, 0
1, 16921, Note_on_c, 0, 58, 18
1, 16928, Note_on_c, 0, 62, 27
1, 16934, Note_on_c, 0, 64, 28
1, 16943, Note_on_c, 0, 52, 18
1, 16986, Note_on_c, 0, 62, 0
1, 16998, Note_on_c, 0, 64, 0
1, 17003, Note_on_c, 0, 52, 0
1, 17020, Note_on_c, 0, 58, 0
1, 17196, Note_on_c, 0, 70, 32
1, 17201, Note_on_c, 0, 64, 31
1, 17221, Note_on_c, 0, 52, 19
1, 17234, Note_on_c, 0, 50, 5
1, 17288, Note_on_c, 0, 64, 0
1, 17288, Note_on_c, 0, 52, 0
1, 17299, Note_on_c, 0, 70, 0
1, 17324, Note_on_c, 0, 50, 0
1, 17496, Note_on_c, 0, 74, 36
1, 17510, Note_on_c, 0, 64, 22
1, 17542, Note_on_c, 0, 57, 50
1, 17616, Note_on_c, 0, 64, 0
1, 17705, Note_on_c, 0, 74, 0
1, 17814, Note_on_c, 0, 70, 25
1, 17831, Note_on_c, 0, 52, 32
1, 17837, Note_on_c, 0, 64, 19
1, 17837, Note_on_c, 0, 50, 29
1, 17847, Note_on_c, 0, 57, 0
1, 17889, Note_on_c, 0, 50, 0
1, 17898, Note_on_c, 0, 52, 0
1, 17898, Note_on_c, 0, 70, 0
1, 17948, Note_on_c, 0, 64, 0
1, 17982, Note_on_c, 0, 58, 69
1, 18140, Note_on_c, 0, 58, 0
1, 18174, Note_on_c, 0, 62, 22
1, 18179, Note_on_c, 0, 64, 21
1, 18191, Note_on_c, 0, 52, 35
1, 18198, Note_on_c, 0, 50, 14
1, 18240, Note_on_c, 0, 52, 0
1, 18244, Note_on_c, 0, 62, 0
1, 18252, Note_on_c, 0, 50, 0
1, 18424, Note_on_c, 0, 64, 0
1, 18528, Note_on_c, 0, 62, 84
1, 18561, Control_c, 0, 64, 0
1, 18569, Note_on_c, 0, 29, 29
1, 18574, Note_on_c, 0, 41, 34
1, 18677, Note_on_c, 0, 29, 0
1, 18706, Note_on_c, 0, 41, 0
1, 18706, Control_c, 0, 64, 127
1, 18836, Note_on_c, 0, 62, 0
1, 18889, Note_on_c, 0, 58, 33
1, 18900, Note_on_c, 0, 62, 50
1, 18909, Note_on_c, 0, 65, 45
1, 18915, Note_on_c, 0, 53, 43
1, 18953, Note_on_c, 0, 58, 0
1, 18968, Note_on_c, 0, 53, 0
1, 18998, Note_on_c, 0, 65, 0
1, 19185, Note_on_c, 0, 70, 37
1, 19193, Note_on_c, 0, 65, 33
1, 19199, Note_on_c, 0, 50, 31
1, 19205, Note_on_c, 0, 53, 35
1, 19254, Note_on_c, 0, 53, 0
1, 19283, Note_on_c, 0, 50, 0
1, 19283, Note_on_c, 0, 70, 0
1, 19296, Note_on_c, 0, 65, 0
1, 19358, Note_on_c, 0, 62, 0
1, 19457, Note_on_c, 0, 62, 22
1, 19460, Note_on_c, 0, 70, 28
1, 19468, Note_on_c, 0, 58, 15
1, 19474, Note_on_c, 0, 74, 39
1, 19474, Note_on_c, 0, 53, 37
1, 19516, Note_on_c, 0, 70, 0
1, 19531, Note_on_c, 0, 53, 0
1, 19541, Note_on_c, 0, 62, 0
1, 19541, Note_on_c, 0, 58, 0
1, 19588, Note_on_c, 0, 74, 0
1, 19720, Note_on_c, 0, 70, 35
1, 19736, Note_on_c, 0, 65, 32
1, 19747, Note_on_c, 0, 58, 15
1, 19803, Note_on_c, 0, 65, 0
1, 19825, Note_on_c, 0, 58, 0
1, 19848, Note_on_c, 0, 70, 0
1, 20010, Note_on_c, 0, 62, 19
1, 20015, Note_on_c, 0, 53, 29
1, 20015, Note_on_c, 0, 65, 19
1, 20067, Note_on_c, 0, 53, 0
1, 20205, Note_on_c, 0, 65, 0
1, 20298, Control_c, 0, 64, 0
1, 20332, Note_on_c, 0, 41, 28
1, 20338, Note_on_c, 0, 29, 24
1, 20396, Control_c, 0, 64, 127
1, 20404, Note_on_c, 0, 29, 0
1, 20408, Note_on_c, 0, 41, 0
1, 20475, Note_on_c, 0, 62, 0
1, 20605, Note_on_c, 0, 63, 27
1, 20614, Note_on_c, 0, 65, 28
1, 20681, Note_on_c, 0, 65, 0
1, 20730, Note_on_c, 0, 63, 0
1, 20903, Note_on_c, 0, 63, 26
1, 20912, Note_on_c, 0, 69, 14
1, 20918, Note_on_c, 0, 51, 13
1, 20971, Note_on_c, 0, 63, 0
1, 20989, Note_on_c, 0, 69, 0
1, 21087, Note_on_c, 0, 53, 46
1, 21166, Note_on_c, 0, 53, 0
1, 21174, Note_on_c, 0, 51, 0
1, 21179, Note_on_c, 0, 57, 25
1, 21235, Note_on_c, 0, 57, 0
1, 21279, Note_on_c, 0, 75, 23
1, 21285, Note_on_c, 0, 63, 16
1, 21336, Note_on_c, 0, 60, 51
1, 21396, Note_on_c, 0, 75, 0
1, 21595, Note_on_c, 0, 63, 0
1, 21659, Note_on_c, 0, 51, 14
1, 21684, Note_on_c, 0, 69, 3
1, 21779, Note_on_c, 0, 51, 0
1, 21779, Note_on_c, 0, 69, 0
1, 21890, Note_on_c, 0, 60, 0
1, 21982, Note_on_c, 0, 63, 18
1, 21996, Note_on_c, 0, 53, 40
1, 22003, Note_on_c, 0, 57, 7
1, 22009, Note_on_c, 0, 65, 9
1, 22063, Note_on_c, 0, 53, 0
1, 22077, Note_on_c, 0, 57, 0
1, 22093, Note_on_c, 0, 65, 0
1, 22173, Note_on_c, 0, 63, 0
1, 22589, Note_on_c, 0, 58, 21
1, 22625, Control_c, 0, 64, 0
1, 22634, Note_on_c, 0, 43, 22
1, 22645, Note_on_c, 0, 31, 15
1, 22747, Note_on_c, 0, 31, 0
1, 22756, Control_c, 0, 64, 127
1, 22790, Note_on_c, 0, 43, 0
1, 22836, Note_on_c, 0, 58, 0
1, 23015, Note_on_c, 0, 67, 33
1, 23026, Note_on_c, 0, 62, 28
1, 23026, Note_on_c, 0, 58, 21
1, 23026, Note_on_c, 0, 55, 7
1, 23094, Note_on_c, 0, 55, 0
1, 23105, Note_on_c, 0, 67, 0
1, 23118, Note_on_c, 0, 58, 0
1, 23202, Note_on_c, 0, 62, 0
1, 23293, Note_on_c, 0, 70, 27
1, 23310, Note_on_c, 0, 55, 28
1, 23314, Note_on_c, 0, 67, 21
1, 23314, Note_on_c, 0, 50, 27
1, 23364, Note_on_c, 0, 70, 0
1, 23364, Note_on_c, 0, 55, 0
1, 23380, Note_on_c, 0, 50, 0
1, 23388, Note_on_c, 0, 67, 0
1, 23570, Note_on_c, 0, 58, 19
1, 23575, Note_on_c, 0, 62, 20
1, 23580, Note_on_c, 0, 74, 37
1, 23583, Note_on_c, 0, 67, 8
1, 23583, Note_on_c, 0, 55, 19
1, 23639, Note_on_c, 0, 67, 0
1, 23642, Note_on_c, 0, 58, 0
1, 23642, Note_on_c, 0, 62, 0
1, 23642, Note_on_c, 0, 74, 0
1, 23642, Note_on_c, 0, 55, 0
1, 23840, Note_on_c, 0, 70, 30
1, 23845, Note_on_c, 0, 58, 20
1, 23845, Note_on_c, 0, 62, 27
1, 23864, Note_on_c, 0, 67, 10
1, 23912, Note_on_c, 0, 62, 0
1, 23920, Note_on_c, 0, 58, 0
1, 23940, Note_on_c, 0, 67, 0
1, 23979, Note_on_c, 0, 70, 0
1, 24135, Note_on_c, 0, 58, 11
1, 24160, Note_on_c, 0, 62, 22
1, 24165, Note_on_c, 0, 67, 17
1, 24174, Note_on_c, 0, 55, 17
1, 24211, Note_on_c, 0, 58, 0
1, 24230, Note_on_c, 0, 55, 0
1, 24254, Note_on_c, 0, 67, 0
1, 24260, Note_on_c, 0, 62, 0
1, 24492, Note_on_c, 0, 31, 36
1, 24502, Note_on_c, 0, 43, 24
1, 24541, Note_on_c, 0, 31, 0
1, 24553, Note_on_c, 0, 43, 0
1, 24800, Note_on_c, 0, 58, 28
1, 24815, Note_on_c, 0, 67, 24
1, 24818, Note_on_c, 0, 62, 24
1, 24835, Note_on_c, 0, 55, 17
1, 24898, Note_on_c, 0, 58, 0
1, 24898, Note_on_c, 0, 55, 0
1, 24898, Note_on_c, 0, 67, 0
1, 24903, Note_on_c, 0, 62, 0
1, 25073, Note_on_c, 0, 70, 29
1, 25090, Note_on_c, 0, 50, 24
1, 25090, Note_on_c, 0, 67, 28
1, 25113, Note_on_c, 0, 55, 15
1, 25140, Note_on_c, 0, 70, 0
1, 25147, Note_on_c, 0, 67, 0
1, 25154, Note_on_c, 0, 50, 0
1, 25160, Note_on_c, 0, 55, 0
1, 25341, Note_on_c, 0, 62, 23
1, 25344, Note_on_c, 0, 55, 8
1, 25344, Note_on_c, 0, 74, 27
1, 25350, Note_on_c, 0, 67, 22
1, 25363, Note_on_c, 0, 58, 13
1, 25413, Note_on_c, 0, 74, 0
1, 25413, Note_on_c, 0, 62, 0
1, 25422, Note_on_c, 0, 67, 0
1, 25431, Note_on_c, 0, 58, 0
1, 25439, Note_on_c, 0, 55, 0
1, 25625, Note_on_c, 0, 62, 30
1, 25625, Note_on_c, 0, 58, 21
1, 25629, Note_on_c, 0, 70, 18
1, 25648, Note_on_c, 0, 67, 17
1, 25683, Note_on_c, 0, 62, 0
1, 25697, Note_on_c, 0, 58, 0
1, 25722, Note_on_c, 0, 67, 0
1, 25731, Note_on_c, 0, 70, 0
1, 25945, Note_on_c, 0, 58, 16
1, 25949, Note_on_c, 0, 67, 22
1, 25949, Note_on_c, 0, 62, 25
1, 25974, Note_on_c, 0, 55, 14
1, 26002, Note_on_c, 0, 58, 0
1, 26023, Note_on_c, 0, 62, 0
1, 26027, Note_on_c, 0, 55, 0
1, 26037, Note_on_c, 0, 67, 0
1, 26400, Control_c, 0, 64, 0
1, 26400, Note_on_c, 0, 60, 76
1, 26413, Note_on_c, 0, 27, 22
1, 26420, Note_on_c, 0, 39, 24
1, 26519, Control_c, 0, 64, 127
1, 26522, Note_on_c, 0, 27, 0
1, 26555, Note_on_c, 0, 39, 0
1, 26606, Note_on_c, 0, 60, 0
1, 26840, Note_on_c, 0, 55, 30
1, 26843, Note_on_c, 0, 67, 38
1, 26843, Note_on_c, 0, 63, 31
1, 26853, Note_on_c, 0, 60, 24
1, 26902, Note_on_c, 0, 55, 0
1, 26906, Note_on_c, 0, 67, 0
1, 26918, Note_on_c, 0, 63, 0
1, 26926, Note_on_c, 0, 60, 0
1, 27118, Note_on_c, 0, 72, 33
1, 27118, Note_on_c, 0, 63, 34
1, 27132, Note_on_c, 0, 51, 29
1, 27135, Note_on_c, 0, 67, 21
1, 27174, Note_on_c, 0, 63, 0
1, 27174, Note_on_c, 0, 72, 0
1, 27183, Note_on_c, 0, 51, 0
1, 27197, Note_on_c, 0, 67, 0
1, 27377, Note_on_c, 0, 75, 41
1, 27391, Note_on_c, 0, 55, 18
1, 27391, Note_on_c, 0, 63, 30
1, 27391, Note_on_c, 0, 67, 17
1, 27403, Note_on_c, 0, 60, 9
1, 27438, Note_on_c, 0, 63, 0
1, 27456, Note_on_c, 0, 55, 0
1, 27459, Note_on_c, 0, 67, 0
1, 27459, Note_on_c, 0, 60, 0
1, 27522, Note_on_c, 0, 75, 0
1, 27643, Note_on_c, 0, 63, 28
1, 27659, Note_on_c, 0, 67, 24
1, 27659, Note_on_c, 0, 60, 14
1, 27700, Note_on_c, 0, 63, 0
1, 27718, Note_on_c, 0, 67, 0
1, 27723, Note_on_c, 0, 60, 0
1, 27955, Note_on_c, 0, 63, 34
1, 27970, Note_on_c, 0, 60, 13
1, 27973, Note_on_c, 0, 67, 19
1, 27999, Note_on_c, 0, 63, 0
1, 28021, Note_on_c, 0, 60, 0
1, 28116, Note_on_c, 0, 62, 53
1, 28152, Note_on_c, 0, 67, 0
1, 28210, Note_on_c, 0, 60, 70
1, 28236, Note_on_c, 0, 62, 0
1, 28361, Note_on_c, 0, 41, 27
1, 28361, Note_on_c, 0, 29, 36
1, 28388, Note_on_c, 0, 58, 62
1, 28400, Control_c, 0, 64, 0
1, 28417, Note_on_c, 0, 60, 0
1, 28467, Note_on_c, 0, 29, 0
1, 28508, Control_c, 0, 64, 127
1, 28519, Note_on_c, 0, 41, 0
1, 28673, Note_on_c, 0, 58, 0
1, 28676, Note_on_c, 0, 63, 40
1, 28684, Note_on_c, 0, 65, 37
1, 28690, Note_on_c, 0, 53, 40
1, 28698, Note_on_c, 0, 51, 20
1, 28726, Note_on_c, 0, 63, 0
1, 28726, Note_on_c, 0, 65, 0
1, 28740, Note_on_c, 0, 53, 0
1, 28767, Note_on_c, 0, 51, 0
1, 28842, Note_on_c, 0, 57, 66
1, 28977, Note_on_c, 0, 63, 36
1, 28984, Note_on_c, 0, 69, 28
1, 29008, Note_on_c, 0, 51, 23
1, 29012, Note_on_c, 0, 53, 29
1, 29015, Note_on_c, 0, 48, 19
1, 29043, Note_on_c, 0, 63, 0
1, 29068, Note_on_c, 0, 69, 0
1, 29068, Note_on_c, 0, 53, 0
1, 29082, Note_on_c, 0, 51, 0
1, 29108, Note_on_c, 0, 48, 0
1, 29149, Note_on_c, 0, 57, 0
1, 29257, Note_on_c, 0, 55, 70
1, 29261, Note_on_c, 0, 63, 30
1, 29269, Note_on_c, 0, 72, 27
1, 29406, Note_on_c, 0, 63, 0
1, 29495, Note_on_c, 0, 51, 23
1, 29505, Note_on_c, 0, 72, 0
1, 29505, Note_on_c, 0, 48, 21
1, 29536, Note_on_c, 0, 63, 19
1, 29544, Note_on_c, 0, 69, 14
1, 29572, Note_on_c, 0, 51, 0
1, 29583, Note_on_c, 0, 55, 0
1, 29612, Note_on_c, 0, 69, 0
1, 29681, Note_on_c, 0, 57, 53
1, 29690, Note_on_c, 0, 63, 0
1, 29851, Control_c, 0, 64, 0
1, 29865, Note_on_c, 0, 63, 29
1, 29865, Note_on_c, 0, 65, 22
1, 29877, Note_on_c, 0, 53, 49
1, 29877, Note_on_c, 0, 51, 34
1, 29923, Control_c, 0, 64, 127
1, 29930, Note_on_c, 0, 53, 0
1, 29943, Note_on_c, 0, 65, 0
1, 29949, Note_on_c, 0, 48, 0
1, 29949, Note_on_c, 0, 57, 0
1, 29960, Note_on_c, 0, 51, 0
1, 29999, Note_on_c, 0, 63, 0
1, 30236, Note_on_c, 0, 58, 55
1, 30246, Note_on_c, 0, 46, 25
1, 30258, Control_c, 0, 64, 0
1, 30269, Note_on_c, 0, 34, 16
1, 30400, Note_on_c, 0, 34, 0
1, 30414, Control_c, 0, 64, 127
1, 30417, Note_on_c, 0, 46, 0
1, 30484, Note_on_c, 0, 58, 0
1, 30600, Note_on_c, 0, 62, 35
1, 30600, Note_on_c, 0, 58, 16
1, 30603, Note_on_c, 0, 53, 45
1, 30603, Note_on_c, 0, 65, 23
1, 30654, Note_on_c, 0, 53, 0
1, 30665, Note_on_c, 0, 62, 0
1, 30698, Note_on_c, 0, 58, 0
1, 30703, Note_on_c, 0, 65, 0
1, 30895, Note_on_c, 0, 70, 29
1, 30918, Note_on_c, 0, 53, 31
1, 30918, Note_on_c, 0, 50, 26
1, 30918, Note_on_c, 0, 65, 12
1, 30969, Note_on_c, 0, 70, 0
1, 30969, Note_on_c, 0, 53, 0
1, 30994, Note_on_c, 0, 65, 0
1, 30999, Note_on_c, 0, 50, 0
1, 31171, Note_on_c, 0, 74, 32
1, 31171, Note_on_c, 0, 58, 17
1, 31180, Note_on_c, 0, 65, 13
1, 31180, Note_on_c, 0, 53, 21
1, 31180, Note_on_c, 0, 62, 23
1, 31244, Note_on_c, 0, 74, 0
1, 31247, Note_on_c, 0, 58, 0
1, 31247, Note_on_c, 0, 62, 0
1, 31247, Note_on_c, 0, 53, 0
1, 31264, Note_on_c, 0, 65, 0
1, 31433, Note_on_c, 0, 70, 26
1, 31439, Note_on_c, 0, 65, 21
1, 31450, Note_on_c, 0, 62, 21
1, 31450, Note_on_c, 0, 58, 15
1, 31514, Note_on_c, 0, 62, 0
1, 31517, Note_on_c, 0, 65, 0
1, 31522, Note_on_c, 0, 58, 0
1, 31533, Note_on_c, 0, 70, 0
1, 31726, Note_on_c, 0, 58, 15
1, 31734, Note_on_c, 0, 65, 20
1, 31734, Note_on_c, 0, 53, 25
1, 31734, Note_on_c, 0, 62, 13
1, 31785, Note_on_c, 0, 58, 0
1, 31785, Note_on_c, 0, 53, 0
1, 31834, Note_on_c, 0, 62, 0
1, 31882, Note_on_c, 0, 65, 0
1, 32001, Note_on_c, 0, 34, 34
1, 32030, Note_on_c, 0, 46, 8
1, 32052, Note_on_c, 0, 34, 0
1, 32086, Note_on_c, 0, 46, 0
1, 32277, Note_on_c, 0, 58, 28
1, 32284, Note_on_c, 0, 65, 18
1, 32291, Note_on_c, 0, 62, 15
1, 32295, Note_on_c, 0, 53, 25
1, 32347, Note_on_c, 0, 58, 0
1, 32355, Note_on_c, 0, 53, 0
1, 32367, Note_on_c, 0, 65, 0
1, 32378, Note_on_c, 0, 62, 0
1, 32515, Note_on_c, 0, 70, 31
1, 32520, Note_on_c, 0, 53, 33
1, 32534, Note_on_c, 0, 50, 16
1, 32547, Note_on_c, 0, 65, 14
1, 32572, Note_on_c, 0, 53, 0
1, 32615, Note_on_c, 0, 65, 0
1, 32631, Note_on_c, 0, 50, 0
1, 32635, Note_on_c, 0, 53, 74
1, 32738, Note_on_c, 0, 58, 38
1, 32741, Note_on_c, 0, 53, 0
1, 32790, Note_on_c, 0, 70, 0
1, 32798, Note_on_c, 0, 74, 51
1, 32807, Note_on_c, 0, 65, 37
1, 32815, Note_on_c, 0, 58, 0
1, 32871, Note_on_c, 0, 65, 0
1, 32885, Note_on_c, 0, 62, 94
1, 33036, Note_on_c, 0, 74, 0
1, 33075, Note_on_c, 0, 62, 0
1, 33163, Note_on_c, 0, 70, 37
1, 33185, Note_on_c, 0, 65, 27
1, 33196, Note_on_c, 0, 53, 28
1, 33206, Note_on_c, 0, 50, 19
1, 33220, Note_on_c, 0, 70, 0
1, 33231, Note_on_c, 0, 65, 0
1, 33249, Note_on_c, 0, 53, 0
1, 33258, Note_on_c, 0, 50, 0
1, 33419, Note_on_c, 0, 58, 29
1, 33428, Note_on_c, 0, 65, 34
1, 33444, Note_on_c, 0, 62, 27
1, 33472, Note_on_c, 0, 58, 0
1, 33498, Note_on_c, 0, 62, 0
1, 33539, Note_on_c, 0, 65, 0
1, 33835, Note_on_c, 0, 62, 97
1, 33862, Note_on_c, 0, 34, 24
1, 33862, Note_on_c, 0, 46, 15
1, 33866, Control_c, 0, 64, 0
1, 34022, Note_on_c, 0, 34, 0
1, 34022, Control_c, 0, 64, 127
1, 34055, Note_on_c, 0, 46, 0
1, 34139, Note_on_c, 0, 62, 0
1, 34208, Note_on_c, 0, 62, 46
1, 34211, Note_on_c, 0, 66, 39
1, 34211, Note_on_c, 0, 54, 30
1, 34222, Note_on_c, 0, 58, 24
1, 34281, Note_on_c, 0, 54, 0
1, 34317, Note_on_c, 0, 58, 0
1, 34355, Note_on_c, 0, 66, 0
1, 34486, Note_on_c, 0, 66, 47
1, 34497, Note_on_c, 0, 70, 38
1, 34514, Note_on_c, 0, 54, 19
1, 34514, Note_on_c, 0, 50, 30
1, 34573, Note_on_c, 0, 50, 0
1, 34579, Note_on_c, 0, 62, 0
1, 34593, Note_on_c, 0, 54, 0
1, 34598, Note_on_c, 0, 66, 0
1, 34598, Note_on_c, 0, 70, 0
1, 34732, Note_on_c, 0, 66, 32
1, 34737, Note_on_c, 0, 62, 48
1, 34737, Note_on_c, 0, 74, 52
1, 34751, Note_on_c, 0, 58, 17
1, 34762, Note_on_c, 0, 54, 22
1, 34796, Note_on_c, 0, 66, 0
1, 34810, Note_on_c, 0, 62, 0
1, 34824, Note_on_c, 0, 58, 0
1, 34830, Note_on_c, 0, 54, 0
1, 34852, Note_on_c, 0, 74, 0
1, 34994, Note_on_c, 0, 70, 39
1, 34997, Note_on_c, 0, 58, 24
1, 35000, Note_on_c, 0, 66, 35
1, 35021, Note_on_c, 0, 62, 12
1, 35039, Note_on_c, 0, 70, 0
1, 35046, Note_on_c, 0, 66, 0
1, 35052, Note_on_c, 0, 58, 0
1, 35078, Note_on_c, 0, 62, 0
1, 35224, Note_on_c, 0, 60, 67
1, 35239, Note_on_c, 0, 66, 33
1, 35239, Note_on_c, 0, 62, 36
1, 35281, Note_on_c, 0, 54, 19
1, 35292, Note_on_c, 0, 62, 0
1, 35308, Note_on_c, 0, 50, 3
1, 35341, Note_on_c, 0, 54, 0
1, 35345, Note_on_c, 0, 50, 0
1, 35384, Note_on_c, 0, 60, 0
1, 35414, Note_on_c, 0, 58, 75
1, 35634, Note_on_c, 0, 66, 0
1, 35648, Note_on_c, 0, 46, 24
1, 35648, Note_on_c, 0, 58, 0
1, 35653, Control_c, 0, 64, 0
1, 35653, Note_on_c, 0, 34, 26
1, 35662, Note_on_c, 0, 57, 81
1, 35748, Control_c, 0, 64, 127
1, 35765, Note_on_c, 0, 34, 0
1, 35787, Note_on_c, 0, 57, 0
1, 35794, Note_on_c, 0, 46, 0
1, 35965, Note_on_c, 0, 62, 44
1, 35972, Note_on_c, 0, 67, 48
1, 35982, Note_on_c, 0, 50, 24
1, 36021, Note_on_c, 0, 67, 0
1, 36021, Note_on_c, 0, 62, 0
1, 36043, Note_on_c, 0, 50, 0
1, 36131, Note_on_c, 0, 55, 81
1, 36252, Note_on_c, 0, 62, 39
1, 36252, Note_on_c, 0, 70, 28
1, 36272, Note_on_c, 0, 67, 21
1, 36298, Control_c, 0, 64, 0
1, 36308, Note_on_c, 0, 50, 41
1, 36314, Note_on_c, 0, 46, 25
1, 36362, Note_on_c, 0, 50, 0
1, 36370, Note_on_c, 0, 46, 0
1, 36370, Control_c, 0, 64, 127
1, 36370, Note_on_c, 0, 67, 0
1, 36381, Note_on_c, 0, 70, 0
1, 36381, Note_on_c, 0, 62, 0
1, 36428, Note_on_c, 0, 55, 0
1, 36557, Note_on_c, 0, 70, 37
1, 36571, Note_on_c, 0, 74, 53
1, 36584, Note_on_c, 0, 62, 92
1, 36624, Note_on_c, 0, 70, 0
1, 36640, Note_on_c, 0, 58, 3
1, 36681, Note_on_c, 0, 58, 0
1, 36840, Note_on_c, 0, 62, 0
1, 36869, Note_on_c, 0, 70, 44
1, 36874, Note_on_c, 0, 74, 0
1, 36883, Note_on_c, 0, 58, 21
1, 36886, Note_on_c, 0, 67, 38
1, 36890, Note_on_c, 0, 50, 5
1, 36938, Note_on_c, 0, 67, 0
1, 36950, Note_on_c, 0, 58, 0
1, 36950, Note_on_c, 0, 50, 0
1, 36955, Note_on_c, 0, 70, 0
1, 37169, Note_on_c, 0, 62, 35
1, 37169, Note_on_c, 0, 67, 38
1, 37184, Note_on_c, 0, 50, 26
1, 37203, Note_on_c, 0, 46, 27
1, 37228, Note_on_c, 0, 62, 0
1, 37255, Note_on_c, 0, 46, 0
1, 37258, Note_on_c, 0, 50, 0
1, 37287, Note_on_c, 0, 67, 0
1, 37375, Note_on_c, 0, 64, 85
1, 37682, Note_on_c, 0, 62, 91
1, 37699, Note_on_c, 0, 45, 27
1, 37699, Note_on_c, 0, 33, 25
1, 37702, Control_c, 0, 64, 0
1, 37715, Note_on_c, 0, 64, 0
1, 37832, Note_on_c, 0, 33, 0
1, 37844, Control_c, 0, 64, 127
1, 37866, Note_on_c, 0, 45, 0
1, 37941, Note_on_c, 0, 62, 0
1, 38046, Note_on_c, 0, 58, 28
1, 38052, Note_on_c, 0, 55, 18
1, 38064, Note_on_c, 0, 64, 40
1, 38067, Note_on_c, 0, 67, 34
1, 38108, Note_on_c, 0, 55, 0
1, 38120, Note_on_c, 0, 58, 0
1, 38147, Note_on_c, 0, 67, 0
1, 38339, Note_on_c, 0, 70, 30
1, 38359, Note_on_c, 0, 67, 29
1, 38370, Note_on_c, 0, 52, 23
1, 38376, Note_on_c, 0, 55, 27
1, 38426, Note_on_c, 0, 67, 0
1, 38426, Note_on_c, 0, 55, 0
1, 38434, Note_on_c, 0, 70, 0
1, 38451, Note_on_c, 0, 52, 0
1, 38620, Note_on_c, 0, 70, 23
1, 38635, Note_on_c, 0, 74, 34
1, 38641, Note_on_c, 0, 55, 22
1, 38646, Note_on_c, 0, 58, 14
1, 38684, Note_on_c, 0, 70, 0
1, 38716, Note_on_c, 0, 58, 0
1, 38730, Note_on_c, 0, 55, 0
1, 38808, Note_on_c, 0, 74, 0
1, 38888, Note_on_c, 0, 64, 0
1, 38904, Note_on_c, 0, 58, 16
1, 38904, Note_on_c, 0, 62, 27
1, 38910, Note_on_c, 0, 70, 20
1, 38924, Note_on_c, 0, 67, 16
1, 38994, Note_on_c, 0, 67, 0
1, 38999, Note_on_c, 0, 58, 0
1, 38999, Note_on_c, 0, 62, 0
1, 39187, Note_on_c, 0, 70, 0
1, 39203, Note_on_c, 0, 58, 19
1, 39203, Note_on_c, 0, 67, 23
1, 39211, Note_on_c, 0, 64, 24
1, 39223, Note_on_c, 0, 55, 19
1, 39266, Note_on_c, 0, 58, 0
1, 39278, Note_on_c, 0, 55, 0
1, 39431, Note_on_c, 0, 67, 0
1, 39554, Note_on_c, 0, 61, 41
1, 39582, Control_c, 0, 64, 0
1, 39582, Note_on_c, 0, 33, 22
1, 39592, Note_on_c, 0, 45, 14
1, 39623, Note_on_c, 0, 64, 0
1, 39713, Note_on_c, 0, 33, 0
1, 39726, Control_c, 0, 64, 127
1, 39741, Note_on_c, 0, 45, 0
1, 39896, Note_on_c, 0, 67, 28
1, 39902, Note_on_c, 0, 57, 23
1, 39908, Note_on_c, 0, 55, 23
1, 39921, Note_on_c, 0, 64, 22
1, 39966, Note_on_c, 0, 57, 0
1, 39966, Note_on_c, 0, 55, 0
1, 39999, Note_on_c, 0, 64, 0
1, 40028, Note_on_c, 0, 67, 0
1, 40180, Note_on_c, 0, 69, 30
1, 40183, Note_on_c, 0, 52, 26
1, 40183, Note_on_c, 0, 67, 23
1, 40191, Note_on_c, 0, 55, 14
1, 40242, Note_on_c, 0, 52, 0
1, 40242, Note_on_c, 0, 69, 0
1, 40248, Note_on_c, 0, 55, 0
1, 40275, Note_on_c, 0, 61, 0
1, 40275, Note_on_c, 0, 67, 0
1, 40428, Note_on_c, 0, 55, 30
1, 40434, Note_on_c, 0, 73, 29
1, 40440, Note_on_c, 0, 57, 15
1, 40443, Note_on_c, 0, 69, 17
1, 40495, Note_on_c, 0, 55, 0
1, 40501, Note_on_c, 0, 57, 0
1, 40510, Note_on_c, 0, 69, 0
1, 40579, Note_on_c, 0, 73, 0
1, 40688, Note_on_c, 0, 61, 35
1, 40694, Note_on_c, 0, 69, 35
1, 40708, Note_on_c, 0, 67, 21
1, 40719, Note_on_c, 0, 57, 17
1, 40780, Note_on_c, 0, 57, 0
1, 40785, Note_on_c, 0, 67, 0
1, 40791, Note_on_c, 0, 69, 0
1, 40807, Note_on_c, 0, 61, 0
1, 41013, Note_on_c, 0, 67, 26
1, 41041, Note_on_c, 0, 64, 9
1, 41045, Note_on_c, 0, 57, 70
1, 41086, Note_on_c, 0, 55, 30
1, 41086, Note_on_c, 0, 67, 0
1, 41111, Note_on_c, 0, 64, 0
1, 41141, Note_on_c, 0, 55, 0
1, 41169, Note_on_c, 0, 57, 0
1, 41532, Note_on_c, 0, 60, 85
1, 41535, Control_c, 0, 64, 0
1, 41552, Note_on_c, 0, 30, 29
1, 41566, Note_on_c, 0, 42, 26
1, 41660, Note_on_c, 0, 30, 0
1, 41668, Control_c, 0, 64, 127
1, 41668, Note_on_c, 0, 42, 0
1, 41735, Note_on_c, 0, 60, 0
1, 41950, Note_on_c, 0, 69, 34
1, 41960, Note_on_c, 0, 63, 33
1, 41964, Note_on_c, 0, 54, 36
1, 41964, Note_on_c, 0, 60, 26
1, 42027, Note_on_c, 0, 54, 0
1, 42027, Note_on_c, 0, 69, 0
1, 42052, Note_on_c, 0, 60, 0
1, 42058, Note_on_c, 0, 63, 0
1, 42258, Note_on_c, 0, 72, 39
1, 42264, Note_on_c, 0, 69, 30
1, 42268, Note_on_c, 0, 54, 27
1, 42276, Note_on_c, 0, 51, 33
1, 42323, Note_on_c, 0, 69, 0
1, 42342, Note_on_c, 0, 51, 0
1, 42345, Note_on_c, 0, 54, 0
1, 42398, Note_on_c, 0, 72, 0
1, 42515, Note_on_c, 0, 75, 39
1, 42520, Note_on_c, 0, 63, 32
1, 42529, Note_on_c, 0, 54, 35
1, 42534, Note_on_c, 0, 69, 25
1, 42549, Note_on_c, 0, 60, 15
1, 42596, Note_on_c, 0, 69, 0
1, 42610, Note_on_c, 0, 60, 0
1, 42610, Note_on_c, 0, 63, 0
1, 42621, Note_on_c, 0, 54, 0
1, 42790, Note_on_c, 0, 75, 0
1, 42808, Note_on_c, 0, 69, 27
1, 42818, Note_on_c, 0, 72, 32
1, 42821, Note_on_c, 0, 63, 26
1, 42838, Note_on_c, 0, 60, 11
1, 42868, Note_on_c, 0, 69, 0
1, 42868, Note_on_c, 0, 72, 0
1, 42880, Note_on_c, 0, 63, 0
1, 42891, Note_on_c, 0, 60, 0
1, 43150, Note_on_c, 0, 54, 19
1, 43161, Note_on_c, 0, 69, 24
1, 43161, Note_on_c, 0, 60, 23
1, 43172, Note_on_c, 0, 63, 24
1, 43219, Note_on_c, 0, 60, 0
1, 43236, Note_on_c, 0, 63, 0
1, 43242, Note_on_c, 0, 54, 0
1, 43304, Note_on_c, 0, 58, 56
1, 43329, Note_on_c, 0, 69, 0
1, 43334, Note_on_c, 0, 63, 45
1, 43488, Note_on_c, 0, 63, 0
1, 43546, Note_on_c, 0, 58, 0
1, 43598, Note_on_c, 0, 42, 33
1, 43604, Note_on_c, 0, 30, 17
1, 43623, Note_on_c, 0, 57, 65
1, 43633, Control_c, 0, 64, 0
1, 43736, Note_on_c, 0, 30, 0
1, 43741, Control_c, 0, 64, 127
1, 43772, Note_on_c, 0, 42, 0
1, 43777, Note_on_c, 0, 57, 0
1, 43999, Note_on_c, 0, 60, 71
1, 44011, Note_on_c, 0, 69, 38
1, 44033, Note_on_c, 0, 63, 23
1, 44033, Note_on_c, 0, 54, 27
1, 44086, Note_on_c, 0, 63, 0
1, 44097, Note_on_c, 0, 54, 0
1, 44130, Note_on_c, 0, 60, 0
1, 44178, Note_on_c, 0, 69, 0
1, 44307, Note_on_c, 0, 62, 75
1, 44318, Note_on_c, 0, 72, 51
1, 44323, Note_on_c, 0, 57, 44
1, 44323, Note_on_c, 0, 63, 43
1, 44351, Note_on_c, 0, 66, 11
1, 44376, Note_on_c, 0, 63, 0
1, 44381, Note_on_c, 0, 57, 0
1, 44410, Note_on_c, 0, 66, 0
1, 44442, Note_on_c, 0, 62, 0
1, 44467, Note_on_c, 0, 72, 0
1, 44618, Note_on_c, 0, 75, 39
1, 44651, Note_on_c, 0, 63, 70
1, 44657, Note_on_c, 0, 66, 10
1, 44672, Note_on_c, 0, 69, 6
1, 44715, Note_on_c, 0, 60, 8
1, 44747, Control_c, 0, 64, 0
1, 44800, Note_on_c, 0, 69, 0
1, 44827, Note_on_c, 0, 66, 0
1, 44827, Control_c, 0, 64, 127
1, 44846, Note_on_c, 0, 60, 0
1, 44899, Note_on_c, 0, 63, 0
1, 44999, Note_on_c, 0, 75, 0
1, 45059, Note_on_c, 0, 60, 71
1, 45075, Note_on_c, 0, 63, 19
1, 45075, Note_on_c, 0, 72, 27
1, 45086, Note_on_c, 0, 66, 11
1, 45131, Note_on_c, 0, 72, 0
1, 45131, Note_on_c, 0, 63, 0
1, 45151, Note_on_c, 0, 66, 0
1, 45204, Note_on_c, 0, 60, 0
1, 45410, Note_on_c, 0, 57, 59
1, 45417, Note_on_c, 0, 69, 24
1, 45420, Note_on_c, 0, 60, 28
1, 45435, Note_on_c, 0, 54, 44
1, 45474, Note_on_c, 0, 54, 0
1, 45490, Note_on_c, 0, 60, 0
1, 45502, Note_on_c, 0, 57, 0
1, 45605, Note_on_c, 0, 69, 0
1, 45869, Note_on_c, 0, 58, 61
1, 45905, Note_on_c, 0, 43, 25
1, 45905, Control_c, 0, 64, 0
1, 45905, Note_on_c, 0, 31, 32
1, 46031, Note_on_c, 0, 31, 0
1, 46055, Control_c, 0, 64, 127
1, 46064, Note_on_c, 0, 43, 0
1, 46151, Note_on_c, 0, 58, 0
1, 46309, Note_on_c, 0, 58, 19
1, 46314, Note_on_c, 0, 67, 32
1, 46321, Note_on_c, 0, 62, 34
1, 46353, Note_on_c, 0, 55, 8
1, 46382, Note_on_c, 0, 67, 0
1, 46382, Note_on_c, 0, 62, 0
1, 46412, Note_on_c, 0, 58, 0
1, 46417, Note_on_c, 0, 55, 0
1, 46605, Note_on_c, 0, 70, 32
1, 46612, Note_on_c, 0, 50, 31
1, 46618, Note_on_c, 0, 67, 27
1, 46626, Note_on_c, 0, 55, 21
1, 46679, Note_on_c, 0, 50, 0
1, 46679, Note_on_c, 0, 55, 0
1, 46683, Note_on_c, 0, 70, 0
1, 46686, Note_on_c, 0, 67, 0
1, 46874, Note_on_c, 0, 62, 31
1, 46881, Note_on_c, 0, 67, 28
1, 46881, Note_on_c, 0, 74, 37
1, 46897, Note_on_c, 0, 58, 10
1, 46903, Note_on_c, 0, 55, 22
1, 46944, Note_on_c, 0, 62, 0
1, 46944, Note_on_c, 0, 74, 0
1, 46944, Note_on_c, 0, 67, 0
1, 46975, Note_on_c, 0, 58, 0
1, 46975, Note_on_c, 0, 55, 0
1, 47151, Note_on_c, 0, 70, 25
1, 47154, Note_on_c, 0, 62, 30
1, 47154, Note_on_c, 0, 58, 21
1, 47162, Note_on_c, 0, 67, 27
1, 47212, Note_on_c, 0, 62, 0
1, 47225, Note_on_c, 0, 67, 0
1, 47237, Note_on_c, 0, 58, 0
1, 47268, Note_on_c, 0, 70, 0
1, 47437, Note_on_c, 0, 58, 10
1, 47441, Note_on_c, 0, 62, 17
1, 47449, Note_on_c, 0, 55, 21
1, 47454, Note_on_c, 0, 67, 18
1, 47499, Note_on_c, 0, 58, 0
1, 47504, Note_on_c, 0, 55, 0
1, 47686, Note_on_c, 0, 67, 0
1, 47699, Note_on_c, 0, 62, 0
1, 47739, Note_on_c, 0, 31, 44
1, 47786, Note_on_c, 0, 31, 0
1, 48000, Note_on_c, 0, 64, 45
1, 48000, Note_on_c, 0, 58, 34
1, 48005, Note_on_c, 0, 62, 33
1, 48020, Note_on_c, 0, 52, 30
1, 48073, Note_on_c, 0, 52, 0
1, 48090, Note_on_c, 0, 58, 0
1, 48097, Note_on_c, 0, 62, 0
1, 48112, Note_on_c, 0, 64, 0
1, 48246, Note_on_c, 0, 70, 42
1, 48257, Note_on_c, 0, 50, 36
1, 48271, Note_on_c, 0, 64, 31
1, 48282, Note_on_c, 0, 52, 14
1, 48310, Note_on_c, 0, 50, 0
1, 48324, Note_on_c, 0, 52, 0
1, 48334, Note_on_c, 0, 64, 0
1, 48373, Note_on_c, 0, 70, 0
1, 48410, Note_on_c, 0, 52, 33
1, 48474, Note_on_c, 0, 58, 30
1, 48521, Note_on_c, 0, 74, 55
1, 48526, Note_on_c, 0, 70, 19
1, 48532, Note_on_c, 0, 58, 0
1, 48569, Note_on_c, 0, 64, 10
1, 48582, Note_on_c, 0, 70, 0
1, 48613, Note_on_c, 0, 62, 89
1, 48622, Note_on_c, 0, 64, 0
1, 48671, Note_on_c, 0, 52, 0
1, 48810, Note_on_c, 0, 74, 0
1, 48853, Note_on_c, 0, 62, 0
1, 48891, Note_on_c, 0, 70, 44
1, 48898, Note_on_c, 0, 58, 15
1, 48911, Note_on_c, 0, 52, 39
1, 48933, Note_on_c, 0, 64, 13
1, 48964, Note_on_c, 0, 58, 0
1, 48975, Note_on_c, 0, 52, 0
1, 48981, Note_on_c, 0, 64, 0
1, 49094, Note_on_c, 0, 70, 0
1, 49101, Note_on_c, 0, 60, 89
1, 49237, Note_on_c, 0, 58, 28
1, 49267, Note_on_c, 0, 55, 21
1, 49279, Note_on_c, 0, 64, 44
1, 49326, Note_on_c, 0, 55, 0
1, 49345, Note_on_c, 0, 58, 0
1, 49407, Note_on_c, 0, 60, 0
1, 49457, Note_on_c, 0, 64, 0
1, 49594, Note_on_c, 0, 60, 80
1, 49602, Control_c, 0, 64, 0
1, 49621, Note_on_c, 0, 45, 13
1, 49630, Note_on_c, 0, 33, 36
1, 49732, Note_on_c, 0, 33, 0
1, 49746, Control_c, 0, 64, 127
1, 49760, Note_on_c, 0, 45, 0
1, 49842, Note_on_c, 0, 60, 0
1, 49917, Note_on_c, 0, 60, 31
1, 49917, Note_on_c, 0, 65, 36
1, 49925, Note_on_c, 0, 57, 28
1, 49934, Note_on_c, 0, 53, 45
1, 49980, Note_on_c, 0, 57, 0
1, 49983, Note_on_c, 0, 53, 0
1, 49994, Note_on_c, 0, 65, 0
1, 50001, Note_on_c, 0, 60, 0
1, 50190, Note_on_c, 0, 65, 42
1, 50190, Note_on_c, 0, 69, 37
1, 50206, Note_on_c, 0, 53, 50
1, 50210, Note_on_c, 0, 48, 20
1, 50264, Note_on_c, 0, 65, 0
1, 50264, Note_on_c, 0, 53, 0
1, 50287, Note_on_c, 0, 48, 0
1, 50340, Note_on_c, 0, 69, 0
1, 50455, Note_on_c, 0, 72, 41
1, 50462, Note_on_c, 0, 60, 36
1, 50471, Note_on_c, 0, 53, 48
1, 50471, Note_on_c, 0, 57, 19
1, 50479, Note_on_c, 0, 65, 26
1, 50522, Note_on_c, 0, 60, 0
1, 50530, Note_on_c, 0, 57, 0
1, 50547, Note_on_c, 0, 53, 0
1, 50551, Note_on_c, 0, 65, 0
1, 50653, Note_on_c, 0, 72, 0
1, 50744, Note_on_c, 0, 69, 33
1, 50752, Note_on_c, 0, 60, 37
1, 50764, Note_on_c, 0, 65, 19
1, 50775, Note_on_c, 0, 57, 7
1, 50792, Note_on_c, 0, 69, 0
1, 50817, Note_on_c, 0, 57, 0
1, 50820, Note_on_c, 0, 65, 0
1, 50820, Note_on_c, 0, 60, 0
1, 51025, Note_on_c, 0, 65, 48
1, 51031, Note_on_c, 0, 57, 62
1, 51079, Note_on_c, 0, 65, 0
1, 51083, Note_on_c, 0, 53, 25
1, 51097, Note_on_c, 0, 48, 9
1, 51134, Note_on_c, 0, 53, 0
1, 51150, Note_on_c, 0, 57, 0
1, 51154, Note_on_c, 0, 48, 0
1, 51452, Note_on_c, 0, 55, 84
1, 51471, Control_c, 0, 64, 0
1, 51494, Note_on_c, 0, 38, 22
1, 51585, Note_on_c, 0, 38, 0
1, 51602, Control_c, 0, 64, 127
1, 51661, Note_on_c, 0, 55, 0
1, 51878, Note_on_c, 0, 59, 80
1, 51878, Note_on_c, 0, 65, 40
1, 51878, Note_on_c, 0, 67, 44
1, 51905, Note_on_c, 0, 55, 36
1, 51926, Note_on_c, 0, 50, 27
1, 51934, Note_on_c, 0, 65, 0
1, 51947, Note_on_c, 0, 67, 0
1, 51951, Note_on_c, 0, 55, 0
1, 51986, Note_on_c, 0, 50, 0
1, 52047, Note_on_c, 0, 59, 0
1, 52207, Note_on_c, 0, 71, 68
1, 52212, Note_on_c, 0, 62, 89
1, 52217, Note_on_c, 0, 65, 42
1, 52229, Note_on_c, 0, 55, 58
1, 52245, Note_on_c, 0, 59, 31
1, 52257, Note_on_c, 0, 65, 0
1, 52285, Note_on_c, 0, 55, 0
1, 52291, Note_on_c, 0, 59, 0
1, 52296, Note_on_c, 0, 71, 0
1, 52359, Note_on_c, 0, 62, 0
1, 52538, Note_on_c, 0, 77, 50
1, 52541, Note_on_c, 0, 67, 40
1, 52544, Note_on_c, 0, 65, 76
1, 52569, Note_on_c, 0, 71, 15
1, 52600, Note_on_c, 0, 59, 24
1, 52611, Note_on_c, 0, 67, 0
1, 52618, Note_on_c, 0, 55, 15
1, 52622, Note_on_c, 0, 71, 0
1, 52632, Note_on_c, 0, 77, 0
1, 52675, Note_on_c, 0, 59, 0
1, 52688, Note_on_c, 0, 55, 0
1, 52711, Note_on_c, 0, 65, 0
1, 52953, Note_on_c, 0, 62, 65
1, 52956, Note_on_c, 0, 74, 51
1, 52975, Note_on_c, 0, 65, 24
1, 52987, Note_on_c, 0, 67, 12
1, 52998, Note_on_c, 0, 59, 17
1, 53003, Note_on_c, 0, 55, 17
1, 53037, Note_on_c, 0, 65, 0
1, 53040, Note_on_c, 0, 74, 0
1, 53050, Note_on_c, 0, 67, 0
1, 53050, Note_on_c, 0, 59, 0
1, 53061, Note_on_c, 0, 55, 0
1, 53082, Note_on_c, 0, 62, 0
1, 53288, Note_on_c, 0, 59, 59
1, 53291, Note_on_c, 0, 71, 42
1, 53304, Note_on_c, 0, 65, 27
1, 53326, Note_on_c, 0, 50, 29
1, 53360, Note_on_c, 0, 65, 0
1, 53364, Note_on_c, 0, 71, 0
1, 53383, Note_on_c, 0, 50, 0
1, 53405, Note_on_c, 0, 59, 0
1, 53752, Note_on_c, 0, 60, 65
1, 53759, Control_c, 0, 64, 0
1, 53783, Note_on_c, 0, 48, 19
1, 53789, Note_on_c, 0, 36, 22
1, 53901, Note_on_c, 0, 36, 0
1, 53917, Control_c, 0, 64, 127
1, 53939, Note_on_c, 0, 48, 0
1, 53970, Note_on_c, 0, 60, 0
1, 54190, Note_on_c, 0, 60, 20
1, 54190, Note_on_c, 0, 69, 24
1, 54201, Note_on_c, 0, 57, 20
1, 54223, Note_on_c, 0, 65, 14
1, 54280, Note_on_c, 0, 69, 0
1, 54280, Note_on_c, 0, 57, 0
1, 54291, Note_on_c, 0, 60, 0
1, 54302, Note_on_c, 0, 65, 0
1, 54477, Note_on_c, 0, 72, 32
1, 54485, Note_on_c, 0, 65, 31
1, 54490, Note_on_c, 0, 69, 24
1, 54499, Note_on_c, 0, 53, 38
1, 54499, Note_on_c, 0, 57, 10
1, 54558, Note_on_c, 0, 53, 0
1, 54558, Note_on_c, 0, 69, 0
1, 54561, Note_on_c, 0, 65, 0
1, 54572, Note_on_c, 0, 72, 0
1, 54575, Note_on_c, 0, 57, 0
1, 54750, Note_on_c, 0, 77, 41
1, 54756, Note_on_c, 0, 65, 26
1, 54756, Note_on_c, 0, 57, 18
1, 54760, Note_on_c, 0, 60, 23
1, 54766, Note_on_c, 0, 69, 27
1, 54820, Note_on_c, 0, 65, 0
1, 54828, Note_on_c, 0, 60, 0
1, 54834, Note_on_c, 0, 57, 0
1, 54842, Note_on_c, 0, 69, 0
1, 54853, Note_on_c, 0, 77, 0
1, 55032, Note_on_c, 0, 72, 32
1, 55040, Note_on_c, 0, 65, 29
1, 55040, Note_on_c, 0, 60, 30
1, 55045, Note_on_c, 0, 69, 16
1, 55087, Note_on_c, 0, 72, 0
1, 55087, Note_on_c, 0, 65, 0
1, 55101, Note_on_c, 0, 60, 0
1, 55107, Note_on_c, 0, 69, 0
1, 55323, Note_on_c, 0, 69, 22
1, 55333, Note_on_c, 0, 65, 23
1, 55346, Note_on_c, 0, 57, 18
1, 55407, Note_on_c, 0, 57, 0
1, 55489, Note_on_c, 0, 60, 4
1, 55622, Note_on_c, 0, 65, 0
1, 55686, Note_on_c, 0, 48, 27
1, 55686, Note_on_c, 0, 69, 0
1, 55699, Note_on_c, 0, 36, 27
1, 55702, Control_c, 0, 64, 0
1, 55836, Note_on_c, 0, 36, 0
1, 55845, Control_c, 0, 64, 127
1, 55903, Note_on_c, 0, 48, 0
1, 55961, Note_on_c, 0, 60, 0
1, 56060, Note_on_c, 0, 70, 24
1, 56089, Note_on_c, 0, 60, 10
1, 56089, Note_on_c, 0, 55, 48
1, 56101, Note_on_c, 0, 64, 15
1, 56173, Note_on_c, 0, 64, 0
1, 56196, Note_on_c, 0, 70, 0
1, 56196, Note_on_c, 0, 60, 0
1, 56357, Note_on_c, 0, 55, 0
1, 56366, Note_on_c, 0, 72, 19
1, 56366, Note_on_c, 0, 60, 20
1, 56385, Note_on_c, 0, 57, 41
1, 56405, Note_on_c, 0, 64, 8
1, 56429, Note_on_c, 0, 60, 0
1, 56447, Note_on_c, 0, 72, 0
1, 56447, Note_on_c, 0, 64, 0
1, 56669, Note_on_c, 0, 57, 0
1, 56674, Note_on_c, 0, 76, 37
1, 56684, Control_c, 0, 64, 0
1, 56684, Note_on_c, 0, 58, 28
1, 56694, Note_on_c, 0, 64, 20
1, 56817, Control_c, 0, 64, 127
1, 56844, Note_on_c, 0, 64, 0
1, 56890, Note_on_c, 0, 58, 0
1, 56943, Note_on_c, 0, 60, 28
1, 57015, Note_on_c, 0, 60, 0
1, 57031, Note_on_c, 0, 58, 30
1, 57109, Note_on_c, 0, 76, 0
1, 57129, Note_on_c, 0, 58, 0
1, 57176, Note_on_c, 0, 72, 27
1, 57176, Note_on_c, 0, 64, 26
1, 57190, Note_on_c, 0, 57, 32
1, 57212, Control_c, 0, 64, 0
1, 57307, Control_c, 0, 64, 127
1, 57318, Note_on_c, 0, 64, 0
1, 57474, Note_on_c, 0, 57, 0
1, 57519, Note_on_c, 0, 70, 28
1, 57538, Note_on_c, 0, 55, 37
1, 57538, Note_on_c, 0, 60, 15
1, 57547, Control_c, 0, 64, 0
1, 57550, Note_on_c, 0, 72, 0
1, 57564, Note_on_c, 0, 64, 17
1, 57678, Control_c, 0, 64, 127
1, 57700, Note_on_c, 0, 64, 0
1, 57747, Note_on_c, 0, 55, 0
1, 57761, Note_on_c, 0, 60, 0
1, 57853, Note_on_c, 0, 70, 0
1, 58003, Note_on_c, 0, 53, 54
1, 58015, Note_on_c, 0, 41, 21
1, 58028, Control_c, 0, 64, 0
1, 58165, Note_on_c, 0, 41, 0
1, 58171, Control_c, 0, 64, 127
1, 58216, Note_on_c, 0, 53, 0
1, 58375, Note_on_c, 0, 69, 19
1, 58382, Note_on_c, 0, 65, 20
1, 58396, Note_on_c, 0, 60, 28
1, 58413, Note_on_c, 0, 57, 15
1, 58480, Note_on_c, 0, 57, 0
1, 58486, Note_on_c, 0, 60, 0
1, 58500, Note_on_c, 0, 69, 0
1, 58508, Note_on_c, 0, 65, 0
1, 58675, Note_on_c, 0, 72, 35
1, 58681, Note_on_c, 0, 57, 22
1, 58681, Note_on_c, 0, 69, 20
1, 58697, Note_on_c, 0, 53, 42
1, 58731, Note_on_c, 0, 72, 0
1, 58745, Note_on_c, 0, 57, 0
1, 58745, Note_on_c, 0, 53, 0
1, 58753, Note_on_c, 0, 69, 0
1, 58943, Note_on_c, 0, 69, 26
1, 58948, Note_on_c, 0, 77, 38
1, 58954, Note_on_c, 0, 65, 27
1, 58954, Note_on_c, 0, 57, 19
1, 58966, Note_on_c, 0, 60, 10
1, 59003, Note_on_c, 0, 77, 0
1, 59012, Note_on_c, 0, 65, 0
1, 59020, Note_on_c, 0, 57, 0
1, 59026, Note_on_c, 0, 69, 0
1, 59026, Note_on_c, 0, 60, 0
1, 59201, Note_on_c, 0, 65, 28
1, 59207, Note_on_c, 0, 72, 29
1, 59207, Note_on_c, 0, 60, 22
1, 59212, Note_on_c, 0, 69, 17
1, 59254, Note_on_c, 0, 65, 0
1, 59273, Note_on_c, 0, 60, 0
1, 59287, Note_on_c, 0, 69, 0
1, 59305, Note_on_c, 0, 72, 0
1, 59486, Note_on_c, 0, 57, 15
1, 59486, Note_on_c, 0, 69, 25
1, 59496, Note_on_c, 0, 60, 19
1, 59517, Note_on_c, 0, 65, 5
1, 59542, Note_on_c, 0, 57, 0
1, 59553, Note_on_c, 0, 60, 0
1, 59566, Note_on_c, 0, 69, 0
1, 59581, Note_on_c, 0, 65, 0
1, 59783, Note_on_c, 0, 41, 37
1, 59790, Note_on_c, 0, 53, 39
1, 59829, Note_on_c, 0, 41, 0
1, 59843, Note_on_c, 0, 53, 0
1, 60026, Note_on_c, 0, 69, 32
1, 60034, Note_on_c, 0, 65, 38
1, 60043, Note_on_c, 0, 57, 23
1, 60056, Note_on_c, 0, 60, 18
1, 60093, Note_on_c, 0, 69, 0
1, 60093, Note_on_c, 0, 65, 0
1, 60123, Note_on_c, 0, 60, 0
1, 60140, Note_on_c, 0, 57, 0
1, 60280, Note_on_c, 0, 72, 47
1, 60291, Note_on_c, 0, 69, 26
1, 60291, Note_on_c, 0, 60, 34
1, 60294, Note_on_c, 0, 65, 29
1, 60338, Note_on_c, 0, 72, 0
1, 60343, Note_on_c, 0, 65, 0
1, 60352, Note_on_c, 0, 60, 0
1, 60358, Note_on_c, 0, 69, 0
1, 60564, Note_on_c, 0, 77, 46
1, 60572, Note_on_c, 0, 69, 19
1, 60577, Note_on_c, 0, 65, 75
1, 60633, Note_on_c, 0, 53, 14
1, 60662, Note_on_c, 0, 77, 0
1, 60662, Note_on_c, 0, 69, 0
1, 60683, Note_on_c, 0, 53, 0
1, 60722, Note_on_c, 0, 65, 0
1, 60873, Note_on_c, 0, 65, 25
1, 60890, Note_on_c, 0, 72, 34
1, 60890, Note_on_c, 0, 69, 32
1, 60906, Note_on_c, 0, 57, 13
1, 60939, Note_on_c, 0, 65, 0
1, 60948, Note_on_c, 0, 69, 0
1, 60954, Note_on_c, 0, 72, 0
1, 60973, Note_on_c, 0, 57, 0
1, 61179, Note_on_c, 0, 57, 26
1, 61179, Note_on_c, 0, 65, 38
1, 61187, Note_on_c, 0, 69, 26
1, 61233, Note_on_c, 0, 57, 0
1, 61238, Note_on_c, 0, 65, 0
1, 61243, Note_on_c, 0, 69, 0
1, 61485, Note_on_c, 0, 72, 90
1, 61496, Note_on_c, 0, 60, 60
1, 61514, Control_c, 0, 64, 0
1, 61527, Note_on_c, 0, 29, 38
1, 61550, Note_on_c, 0, 41, 20
1, 61577, Note_on_c, 0, 29, 0
1, 61598, Control_c, 0, 64, 127
1, 61609, Note_on_c, 0, 41, 0
1, 61676, Note_on_c, 0, 60, 0
1, 61795, Note_on_c, 0, 69, 40
1, 61801, Note_on_c, 0, 63, 51
1, 61829, Note_on_c, 0, 57, 7
1, 61851, Note_on_c, 0, 63, 0
1, 61856, Note_on_c, 0, 72, 0
1, 61871, Note_on_c, 0, 53, 9
1, 61885, Note_on_c, 0, 57, 0
1, 61954, Note_on_c, 0, 69, 0
1, 61999, Note_on_c, 0, 53, 0
1, 62101, Note_on_c, 0, 72, 44
1, 62101, Note_on_c, 0, 63, 53
1, 62110, Note_on_c, 0, 65, 37
1, 62137, Note_on_c, 0, 63, 0
1, 62143, Note_on_c, 0, 72, 0
1, 62162, Note_on_c, 0, 65, 0
1, 62396, Note_on_c, 0, 89, 57
1, 62402, Note_on_c, 0, 77, 49
1, 62405, Note_on_c, 0, 81, 43
1, 62411, Note_on_c, 0, 75, 44
1, 62446, Note_on_c, 0, 89, 0
1, 62446, Note_on_c, 0, 72, 11
1, 62467, Note_on_c, 0, 81, 0
1, 62470, Note_on_c, 0, 75, 0
1, 62473, Note_on_c, 0, 69, 8
1, 62506, Note_on_c, 0, 72, 0
1, 62539, Note_on_c, 0, 69, 0
1, 62645, Note_on_c, 0, 77, 0
1, 62694, Note_on_c, 0, 75, 46
1, 62694, Note_on_c, 0, 84, 41
1, 62701, Note_on_c, 0, 72, 36
1, 62722, Note_on_c, 0, 69, 8
1, 62722, Note_on_c, 0, 65, 22
1, 62748, Note_on_c, 0, 75, 0
1, 62781, Note_on_c, 0, 69, 0
1, 62781, Note_on_c, 0, 65, 0
1, 62790, Note_on_c, 0, 84, 0
1, 62798, Note_on_c, 0, 72, 0
1, 62990, Note_on_c, 0, 81, 48
1, 63006, Note_on_c, 0, 75, 20
1, 63006, Note_on_c, 0, 69, 24
1, 63029, Note_on_c, 0, 81, 0
1, 63029, Note_on_c, 0, 65, 11
1, 63057, Note_on_c, 0, 75, 0
1, 63060, Note_on_c, 0, 69, 0
1, 63079, Note_on_c, 0, 65, 0
1, 63247, Note_on_c, 0, 72, 91
1, 63258, Note_on_c, 0, 60, 65
1, 63343, Note_on_c, 0, 60, 0
1, 63391, Note_on_c, 0, 72, 0
1, 63449, Note_on_c, 0, 29, 41
1, 63449, Note_on_c, 0, 72, 69
1, 63464, Note_on_c, 0, 60, 54
1, 63472, Note_on_c, 0, 41, 24
1, 63494, Note_on_c, 0, 29, 0
1, 63525, Note_on_c, 0, 41, 0
1, 63559, Note_on_c, 0, 60, 0
1, 63683, Note_on_c, 0, 72, 0
1, 63728, Note_on_c, 0, 63, 55
1, 63728, Note_on_c, 0, 69, 36
1, 63743, Note_on_c, 0, 57, 20
1, 63743, Note_on_c, 0, 60, 35
1, 63759, Note_on_c, 0, 53, 50
1, 63787, Note_on_c, 0, 63, 0
1, 63806, Note_on_c, 0, 57, 0
1, 63806, Note_on_c, 0, 60, 0
1, 63806, Note_on_c, 0, 53, 0
1, 63832, Note_on_c, 0, 69, 0
1, 63999, Note_on_c, 0, 72, 51
1, 64004, Note_on_c, 0, 65, 45
1, 64010, Note_on_c, 0, 63, 17
1, 64037, Note_on_c, 0, 72, 0
1, 64052, Note_on_c, 0, 65, 0
1, 64052, Note_on_c, 0, 63, 0
1, 64177, Note_on_c, 0, 71, 95
1, 64194, Note_on_c, 0, 59, 59
1, 64199, Note_on_c, 0, 75, 44
1, 64229, Note_on_c, 0, 59, 0
1, 64241, Note_on_c, 0, 75, 0
1, 64261, Note_on_c, 0, 71, 0
1, 64381, Note_on_c, 0, 72, 89
1, 64381, Note_on_c, 0, 89, 62
1, 64392, Note_on_c, 0, 60, 72
1, 64396, Note_on_c, 0, 81, 45
1, 64474, Note_on_c, 0, 89, 0
1, 64513, Note_on_c, 0, 81, 0
1, 64575, Note_on_c, 0, 72, 0
1, 64687, Note_on_c, 0, 75, 43
1, 64693, Note_on_c, 0, 84, 61
1, 64698, Note_on_c, 0, 72, 47
1, 64709, Note_on_c, 0, 69, 23
1, 64726, Note_on_c, 0, 65, 18
1, 64745, Note_on_c, 0, 75, 0
1, 64778, Note_on_c, 0, 69, 0
1, 64782, Note_on_c, 0, 72, 0
1, 64795, Note_on_c, 0, 65, 0
1, 64798, Note_on_c, 0, 84, 0
1, 64864, Note_on_c, 0, 60, 0
1, 64973, Note_on_c, 0, 81, 63
1, 64990, Note_on_c, 0, 75, 36
1, 64990, Note_on_c, 0, 72, 31
1, 64998, Note_on_c, 0, 69, 27
1, 65006, Note_on_c, 0, 81, 0
1, 65013, Note_on_c, 0, 65, 28
1, 65034, Note_on_c, 0, 75, 0
1, 65044, Note_on_c, 0, 72, 0
1, 65052, Note_on_c, 0, 69, 0
1, 65063, Note_on_c, 0, 65, 0
1, 65068, Note_on_c, 0, 60, 4
1, 65105, Note_on_c, 0, 60, 0
1, 65229, Note_on_c, 0, 74, 92
1, 65240, Note_on_c, 0, 62, 59
1, 65313, Note_on_c, 0, 62, 0
1, 65336, Note_on_c, 0, 74, 0
1, 65442, Note_on_c, 0, 72, 91
1, 65446, Control_c, 0, 64, 0
1, 65450, Note_on_c, 0, 60, 67
1, 65458, Note_on_c, 0, 29, 53
1, 65458, Note_on_c, 0, 41, 56
1, 65531, Note_on_c, 0, 29, 0
1, 65558, Note_on_c, 0, 41, 0
1, 65570, Note_on_c, 0, 60, 0
1, 65589, Control_c, 0, 64, 127
1, 65726, Note_on_c, 0, 53, 44
1, 65729, Note_on_c, 0, 58, 32
1, 65739, Note_on_c, 0, 65, 36
1, 65742, Note_on_c, 0, 62, 43
1, 65762, Note_on_c, 0, 50, 15
1, 65784, Note_on_c, 0, 53, 0
1, 65784, Note_on_c, 0, 62, 0
1, 65801, Note_on_c, 0, 65, 0
1, 65812, Note_on_c, 0, 58, 0
1, 65817, Note_on_c, 0, 72, 0
1, 65848, Note_on_c, 0, 50, 0
1, 65921, Note_on_c, 0, 74, 89
1, 65927, Note_on_c, 0, 62, 75
1, 66085, Note_on_c, 0, 58, 32
1, 66088, Note_on_c, 0, 70, 56
1, 66096, Note_on_c, 0, 50, 44
1, 66115, Note_on_c, 0, 65, 12
1, 66124, Note_on_c, 0, 70, 0
1, 66133, Note_on_c, 0, 74, 0
1, 66138, Note_on_c, 0, 58, 0
1, 66143, Note_on_c, 0, 50, 0
1, 66157, Note_on_c, 0, 65, 0
1, 66160, Note_on_c, 0, 62, 0
1, 66349, Note_on_c, 0, 89, 72
1, 66358, Note_on_c, 0, 70, 68
1, 66369, Note_on_c, 0, 82, 33
1, 66381, Note_on_c, 0, 58, 29
1, 66427, Note_on_c, 0, 82, 0
1, 66441, Note_on_c, 0, 89, 0
1, 66519, Note_on_c, 0, 70, 0
1, 66578, Note_on_c, 0, 58, 0
1, 66644, Note_on_c, 0, 86, 47
1, 66647, Note_on_c, 0, 77, 45
1, 66653, Note_on_c, 0, 62, 38
1, 66658, Note_on_c, 0, 65, 35
1, 66706, Note_on_c, 0, 86, 0
1, 66714, Note_on_c, 0, 77, 0
1, 66717, Note_on_c, 0, 62, 0
1, 66742, Note_on_c, 0, 65, 0
1, 66913, Note_on_c, 0, 82, 38
1, 66913, Note_on_c, 0, 70, 40
1, 66934, Note_on_c, 0, 74, 34
1, 66955, Note_on_c, 0, 70, 0
1, 66991, Note_on_c, 0, 74, 0
1, 67029, Note_on_c, 0, 82, 0
1, 67221, Note_on_c, 0, 29, 34
1, 67229, Note_on_c, 0, 41, 28
1, 67277, Note_on_c, 0, 29, 0
1, 67282, Note_on_c, 0, 41, 0
1, 67473, Note_on_c, 0, 58, 38
1, 67480, Note_on_c, 0, 65, 39
1, 67487, Note_on_c, 0, 62, 40
1, 67491, Note_on_c, 0, 53, 47
1, 67498, Note_on_c, 0, 50, 35
1, 67542, Note_on_c, 0, 53, 0
1, 67581, Note_on_c, 0, 65, 0
1, 67584, Note_on_c, 0, 62, 0
1, 67589, Note_on_c, 0, 58, 0
1, 67634, Note_on_c, 0, 50, 0
1, 67742, Note_on_c, 0, 62, 50
1, 67746, Note_on_c, 0, 70, 56
1, 67753, Note_on_c, 0, 53, 53
1, 67757, Note_on_c, 0, 58, 27
1, 67760, Note_on_c, 0, 65, 20
1, 67784, Note_on_c, 0, 70, 0
1, 67796, Note_on_c, 0, 53, 0
1, 67796, Note_on_c, 0, 62, 0
1, 67810, Note_on_c, 0, 65, 0
1, 67810, Note_on_c, 0, 58, 0
1, 67880, Note_on_c, 0, 74, 73
1, 67913, Note_on_c, 0, 74, 0
1, 68004, Note_on_c, 0, 70, 86
1, 68010, Note_on_c, 0, 89, 76
1, 68016, Note_on_c, 0, 82, 52
1, 68026, Note_on_c, 0, 58, 40
1, 68063, Note_on_c, 0, 89, 0
1, 68068, Note_on_c, 0, 82, 0
1, 68161, Note_on_c, 0, 70, 0
1, 68183, Note_on_c, 0, 58, 0
1, 68271, Note_on_c, 0, 86, 64
1, 68271, Note_on_c, 0, 77, 57
1, 68285, Note_on_c, 0, 62, 46
1, 68285, Note_on_c, 0, 65, 50
1, 68339, Note_on_c, 0, 62, 0
1, 68352, Note_on_c, 0, 86, 0
1, 68356, Note_on_c, 0, 77, 0
1, 68361, Note_on_c, 0, 65, 0
1, 68531, Note_on_c, 0, 70, 53
1, 68531, Note_on_c, 0, 82, 41
1, 68536, Note_on_c, 0, 74, 58
1, 68550, Note_on_c, 0, 77, 30
1, 68556, Note_on_c, 0, 65, 48
1, 68567, Note_on_c, 0, 70, 0
1, 68573, Note_on_c, 0, 74, 0
1, 68576, Note_on_c, 0, 82, 0
1, 68592, Note_on_c, 0, 65, 0
1, 68597, Note_on_c, 0, 77, 0
1, 68856, Note_on_c, 0, 72, 98
1, 68865, Note_on_c, 0, 60, 76
1, 68873, Control_c, 0, 64, 0
1, 68885, Note_on_c, 0, 41, 51
1, 68885, Note_on_c, 0, 29, 48
1, 68948, Note_on_c, 0, 29, 0
1, 68985, Note_on_c, 0, 41, 0
1, 68993, Control_c, 0, 64, 127
1, 69047, Note_on_c, 0, 60, 0
1, 69138, Note_on_c, 0, 69, 57
1, 69144, Note_on_c, 0, 63, 58
1, 69144, Note_on_c, 0, 57, 41
1, 69147, Note_on_c, 0, 60, 42
1, 69169, Note_on_c, 0, 53, 59
1, 69197, Note_on_c, 0, 72, 0
1, 69216, Note_on_c, 0, 57, 0
1, 69222, Note_on_c, 0, 63, 0
1, 69249, Note_on_c, 0, 60, 0
1, 69347, Note_on_c, 0, 53, 0
1, 69370, Note_on_c, 0, 72, 63
1, 69377, Note_on_c, 0, 63, 66
1, 69383, Note_on_c, 0, 65, 59
1, 69388, Note_on_c, 0, 57, 48
1, 69405, Note_on_c, 0, 60, 15
1, 69405, Note_on_c, 0, 63, 0
1, 69412, Note_on_c, 0, 69, 0
1, 69423, Note_on_c, 0, 65, 0
1, 69427, Note_on_c, 0, 57, 0
1, 69448, Note_on_c, 0, 60, 0
1, 69453, Note_on_c, 0, 72, 0
1, 69645, Note_on_c, 0, 89, 77
1, 69651, Note_on_c, 0, 81, 62
1, 69654, Note_on_c, 0, 77, 62
1, 69657, Note_on_c, 0, 75, 47
1, 69687, Note_on_c, 0, 89, 0
1, 69687, Note_on_c, 0, 69, 15
1, 69700, Note_on_c, 0, 72, 11
1, 69714, Note_on_c, 0, 81, 0
1, 69760, Note_on_c, 0, 77, 0
1, 69760, Note_on_c, 0, 75, 0
1, 69765, Note_on_c, 0, 69, 0
1, 69768, Note_on_c, 0, 72, 0
1, 69907, Note_on_c, 0, 84, 80
1, 69912, Note_on_c, 0, 75, 64
1, 69921, Note_on_c, 0, 72, 56
1, 69943, Note_on_c, 0, 69, 29
1, 69948, Note_on_c, 0, 65, 30
1, 69991, Note_on_c, 0, 65, 0
1, 70005, Note_on_c, 0, 69, 0
1, 70010, Note_on_c, 0, 75, 0
1, 70015, Note_on_c, 0, 84, 0
1, 70065, Note_on_c, 0, 72, 0
1, 70183, Note_on_c, 0, 75, 50
1, 70192, Note_on_c, 0, 81, 42
1, 70200, Note_on_c, 0, 69, 39
1, 70213, Note_on_c, 0, 65, 41
1, 70224, Note_on_c, 0, 75, 0
1, 70238, Note_on_c, 0, 81, 0
1, 70249, Note_on_c, 0, 69, 0
1, 70253, Note_on_c, 0, 65, 0
1, 70414, Note_on_c, 0, 72, 95
1, 70422, Note_on_c, 0, 60, 83
1, 70476, Note_on_c, 0, 60, 0
1, 70483, Note_on_c, 0, 72, 0
1, 70542, Note_on_c, 0, 72, 86
1, 70553, Note_on_c, 0, 60, 72
1, 70562, Note_on_c, 0, 29, 65
1, 70573, Note_on_c, 0, 41, 57
1, 70597, Note_on_c, 0, 29, 0
1, 70611, Note_on_c, 0, 41, 0
1, 70625, Note_on_c, 0, 60, 0
1, 70695, Note_on_c, 0, 72, 0
1, 70879, Note_on_c, 0, 71, 104
1, 70896, Note_on_c, 0, 59, 81
1, 70896, Note_on_c, 0, 62, 70
1, 70896, Note_on_c, 0, 69, 60
1, 70901, Note_on_c, 0, 57, 56
1, 70909, Note_on_c, 0, 53, 71
1, 70933, Note_on_c, 0, 62, 0
1, 70944, Note_on_c, 0, 53, 0
1, 70949, Note_on_c, 0, 69, 0
1, 70954, Note_on_c, 0, 57, 0
1, 70994, Note_on_c, 0, 59, 0
1, 71016, Note_on_c, 0, 71, 0
1, 71150, Control_c, 0, 64, 0
1, 71150, Note_on_c, 0, 72, 92
1, 71161, Note_on_c, 0, 60, 71
1, 71167, Note_on_c, 0, 69, 48
1, 71167, Note_on_c, 0, 63, 81
1, 71171, Note_on_c, 0, 77, 70
1, 71171, Note_on_c, 0, 65, 53
1, 71178, Note_on_c, 0, 53, 70
1, 71192, Note_on_c, 0, 57, 34
1, 71210, Note_on_c, 0, 65, 0
1, 71217, Note_on_c, 0, 53, 0
1, 71217, Note_on_c, 0, 69, 0
1, 71239, Note_on_c, 0, 57, 0
1, 71256, Note_on_c, 0, 63, 0
1, 71256, Control_c, 0, 64, 127
1, 71263, Note_on_c, 0, 77, 0
1, 71263, Note_on_c, 0, 72, 0
1, 71263, Note_on_c, 0, 60, 0
1, 71506, Note_on_c, 0, 89, 53
1, 71506, Note_on_c, 0, 77, 58
1, 71506, Note_on_c, 0, 81, 42
1, 71525, Note_on_c, 0, 75, 88
1, 71542, Note_on_c, 0, 63, 47
1, 71570, Note_on_c, 0, 69, 20
1, 71578, Note_on_c, 0, 77, 0
1, 71618, Note_on_c, 0, 89, 0
1, 71631, Note_on_c, 0, 81, 0
1, 71650, Note_on_c, 0, 69, 0
1, 71774, Note_on_c, 0, 75, 0
1, 71818, Note_on_c, 0, 63, 0
1, 71921, Note_on_c, 0, 81, 61
1, 71926, Note_on_c, 0, 75, 32
1, 71933, Note_on_c, 0, 74, 88
1, 71963, Note_on_c, 0, 62, 41
1, 71977, Note_on_c, 0, 65, 31
1, 71982, Note_on_c, 0, 75, 0
1, 71997, Note_on_c, 0, 69, 9
1, 72052, Note_on_c, 0, 65, 0
1, 72061, Note_on_c, 0, 81, 0
1, 72071, Note_on_c, 0, 69, 0
1, 72071, Note_on_c, 0, 62, 0
1, 72121, Note_on_c, 0, 74, 0
1, 72264, Note_on_c, 0, 72, 91
1, 72269, Note_on_c, 0, 77, 52
1, 72269, Note_on_c, 0, 75, 43
1, 72288, Note_on_c, 0, 69, 46
1, 72300, Note_on_c, 0, 65, 25
1, 72300, Note_on_c, 0, 60, 38
1, 72305, Note_on_c, 0, 77, 0
1, 72309, Note_on_c, 0, 75, 0
1, 72334, Note_on_c, 0, 69, 0
1, 72334, Note_on_c, 0, 63, 31
1, 72353, Note_on_c, 0, 72, 0
1, 72362, Note_on_c, 0, 65, 0
1, 72381, Note_on_c, 0, 63, 0
1, 72411, Note_on_c, 0, 60, 0
1, 72635, Control_c, 0, 64, 0
1, 72642, Note_on_c, 0, 58, 48
1, 72645, Note_on_c, 0, 70, 70
1, 72665, Note_on_c, 0, 31, 53
1, 72671, Note_on_c, 0, 43, 36
1, 72734, Note_on_c, 0, 31, 0
1, 72781, Note_on_c, 0, 43, 0
1, 72781, Control_c, 0, 64, 127
1, 72801, Note_on_c, 0, 58, 0
1, 72921, Note_on_c, 0, 70, 0
1, 72932, Note_on_c, 0, 55, 48
1, 72938, Note_on_c, 0, 67, 54
1, 72944, Note_on_c, 0, 62, 55
1, 72951, Note_on_c, 0, 58, 34
1, 72954, Note_on_c, 0, 50, 49
1, 73000, Note_on_c, 0, 55, 0
1, 73003, Note_on_c, 0, 62, 0
1, 73013, Note_on_c, 0, 67, 0
1, 73044, Note_on_c, 0, 58, 0
1, 73072, Note_on_c, 0, 50, 0
1, 73196, Note_on_c, 0, 70, 64
1, 73205, Note_on_c, 0, 55, 52
1, 73205, Note_on_c, 0, 62, 48
1, 73205, Note_on_c, 0, 58, 12
1, 73214, Note_on_c, 0, 67, 23
1, 73227, Note_on_c, 0, 70, 0
1, 73247, Note_on_c, 0, 55, 0
1, 73247, Note_on_c, 0, 62, 0
1, 73255, Note_on_c, 0, 58, 0
1, 73266, Note_on_c, 0, 67, 0
1, 73462, Note_on_c, 0, 86, 53
1, 73462, Note_on_c, 0, 70, 48
1, 73467, Note_on_c, 0, 74, 49
1, 73467, Note_on_c, 0, 82, 36
1, 73484, Note_on_c, 0, 67, 35
1, 73492, Note_on_c, 0, 62, 39
1, 73520, Note_on_c, 0, 70, 0
1, 73526, Note_on_c, 0, 82, 0
1, 73537, Note_on_c, 0, 67, 0
1, 73537, Note_on_c, 0, 62, 0
1, 73557, Note_on_c, 0, 74, 0
1, 73579, Note_on_c, 0, 86, 0
1, 73729, Note_on_c, 0, 82, 46
1, 73738, Note_on_c, 0, 67, 44
1, 73738, Note_on_c, 0, 58, 17
1, 73741, Note_on_c, 0, 74, 49
1, 73741, Note_on_c, 0, 62, 28
1, 73741, Note_on_c, 0, 79, 30
1, 73796, Note_on_c, 0, 74, 0
1, 73796, Note_on_c, 0, 62, 0
1, 73801, Note_on_c, 0, 79, 0
1, 73830, Note_on_c, 0, 67, 0
1, 73854, Note_on_c, 0, 82, 0
1, 73857, Note_on_c, 0, 58, 0
1, 74030, Note_on_c, 0, 70, 30
1, 74030, Note_on_c, 0, 79, 47
1, 74035, Note_on_c, 0, 62, 17
1, 74043, Note_on_c, 0, 74, 35
1, 74078, Note_on_c, 0, 70, 0
1, 74087, Note_on_c, 0, 62, 0
1, 74107, Note_on_c, 0, 74, 0
1, 74113, Note_on_c, 0, 79, 0
1, 74351, Note_on_c, 0, 43, 35
1, 74351, Note_on_c, 0, 31, 26
1, 74397, Note_on_c, 0, 43, 0
1, 74401, Note_on_c, 0, 31, 0
1, 74579, Note_on_c, 0, 55, 36
1, 74579, Note_on_c, 0, 58, 39
1, 74592, Note_on_c, 0, 62, 45
1, 74603, Note_on_c, 0, 50, 34
1, 74645, Note_on_c, 0, 55, 0
1, 74645, Note_on_c, 0, 62, 0
1, 74653, Note_on_c, 0, 58, 0
1, 74688, Note_on_c, 0, 50, 0
1, 74840, Note_on_c, 0, 58, 41
1, 74848, Note_on_c, 0, 67, 57
1, 74854, Note_on_c, 0, 55, 35
1, 74857, Note_on_c, 0, 50, 29
1, 74857, Note_on_c, 0, 62, 16
1, 74885, Note_on_c, 0, 67, 0
1, 74902, Note_on_c, 0, 55, 0
1, 74902, Note_on_c, 0, 62, 0
1, 74907, Note_on_c, 0, 58, 0
1, 74913, Note_on_c, 0, 50, 0
1, 75113, Note_on_c, 0, 70, 79
1, 75127, Note_on_c, 0, 82, 73
1, 75139, Note_on_c, 0, 67, 59
1, 75139, Note_on_c, 0, 58, 35
1, 75155, Note_on_c, 0, 62, 37
1, 75203, Note_on_c, 0, 62, 0
1, 75211, Note_on_c, 0, 67, 0
1, 75247, Note_on_c, 0, 58, 0
1, 75286, Note_on_c, 0, 82, 0
1, 75309, Note_on_c, 0, 70, 0
1, 75390, Note_on_c, 0, 67, 48
1, 75397, Note_on_c, 0, 79, 64
1, 75400, Note_on_c, 0, 70, 21
1, 75404, Note_on_c, 0, 74, 49
1, 75404, Note_on_c, 0, 62, 48
1, 75448, Note_on_c, 0, 67, 0
1, 75453, Note_on_c, 0, 74, 0
1, 75453, Note_on_c, 0, 62, 0
1, 75459, Note_on_c, 0, 79, 0
1, 75470, Note_on_c, 0, 70, 0
1, 75657, Note_on_c, 0, 67, 41
1, 75657, Note_on_c, 0, 70, 58
1, 75667, Note_on_c, 0, 62, 43
1, 75676, Note_on_c, 0, 74, 47
1, 75682, Note_on_c, 0, 58, 26
1, 75707, Note_on_c, 0, 67, 0
1, 75707, Note_on_c, 0, 62, 0
1, 75712, Note_on_c, 0, 70, 0
1, 75712, Note_on_c, 0, 74, 0
1, 75738, Note_on_c, 0, 58, 0
1, 75961, Note_on_c, 0, 72, 100
1, 75968, Note_on_c, 0, 60, 88
1, 75968, Control_c, 0, 64, 0
1, 75974, Note_on_c, 0, 29, 69
1, 75986, Note_on_c, 0, 41, 51
1, 76025, Note_on_c, 0, 29, 0
1, 76066, Note_on_c, 0, 41, 0
1, 76075, Control_c, 0, 64, 127
1, 76158, Note_on_c, 0, 60, 0
1, 76241, Note_on_c, 0, 57, 57
1, 76248, Note_on_c, 0, 69, 54
1, 76253, Note_on_c, 0, 60, 51
1, 76258, Note_on_c, 0, 48, 45
1, 76258, Note_on_c, 0, 65, 46
1, 76269, Note_on_c, 0, 53, 41
1, 76269, Note_on_c, 0, 72, 0
1, 76314, Note_on_c, 0, 60, 0
1, 76317, Note_on_c, 0, 53, 0
1, 76317, Note_on_c, 0, 65, 0
1, 76326, Note_on_c, 0, 57, 0
1, 76336, Note_on_c, 0, 48, 0
1, 76376, Note_on_c, 0, 69, 0
1, 76490, Note_on_c, 0, 60, 76
1, 76495, Note_on_c, 0, 57, 51
1, 76495, Note_on_c, 0, 72, 80
1, 76500, Note_on_c, 0, 65, 56
1, 76500, Note_on_c, 0, 69, 52
1, 76500, Note_on_c, 0, 53, 64
1, 76532, Note_on_c, 0, 72, 0
1, 76532, Note_on_c, 0, 65, 0
1, 76535, Note_on_c, 0, 60, 0
1, 76535, Note_on_c, 0, 57, 0
1, 76538, Note_on_c, 0, 69, 0
1, 76538, Note_on_c, 0, 53, 0
1, 76762, Note_on_c, 0, 84, 84
1, 76762, Note_on_c, 0, 77, 72
1, 76768, Note_on_c, 0, 81, 59
1, 76768, Note_on_c, 0, 65, 61
1, 76787, Note_on_c, 0, 69, 52
1, 76807, Note_on_c, 0, 81, 0
1, 76823, Note_on_c, 0, 65, 0
1, 76829, Note_on_c, 0, 77, 0
1, 76843, Note_on_c, 0, 69, 0
1, 76940, Note_on_c, 0, 84, 0
1, 77014, Note_on_c, 0, 72, 65
1, 77014, Note_on_c, 0, 81, 72
1, 77019, Note_on_c, 0, 60, 51
1, 77022, Note_on_c, 0, 77, 51
1, 77022, Note_on_c, 0, 65, 46
1, 77022, Note_on_c, 0, 57, 47
1, 77046, Note_on_c, 0, 81, 0
1, 77057, Note_on_c, 0, 77, 0
1, 77061, Note_on_c, 0, 60, 0
1, 77061, Note_on_c, 0, 65, 0
1, 77069, Note_on_c, 0, 57, 0
1, 77086, Note_on_c, 0, 72, 0
1, 77289, Note_on_c, 0, 69, 47
1, 77289, Note_on_c, 0, 77, 46
1, 77298, Note_on_c, 0, 72, 41
1, 77301, Note_on_c, 0, 60, 50
1, 77301, Note_on_c, 0, 57, 53
1, 77317, Note_on_c, 0, 53, 72
1, 77329, Note_on_c, 0, 77, 0
1, 77337, Note_on_c, 0, 69, 0
1, 77342, Note_on_c, 0, 72, 0
1, 77342, Note_on_c, 0, 60, 0
1, 77342, Note_on_c, 0, 57, 0
1, 77358, Note_on_c, 0, 53, 0
1, 77507, Note_on_c, 0, 72, 101
1, 77515, Note_on_c, 0, 60, 80
1, 77612, Note_on_c, 0, 60, 0
1, 77660, Note_on_c, 0, 72, 0
1, 77718, Control_c, 0, 64, 0
1, 77718, Note_on_c, 0, 74, 113
1, 77724, Note_on_c, 0, 62, 100
1, 77734, Note_on_c, 0, 38, 89
1, 77734, Note_on_c, 0, 26, 90
1, 77766, Note_on_c, 0, 26, 0
1, 77794, Note_on_c, 0, 38, 0
1, 77838, Control_c, 0, 64, 127
1, 77877, Note_on_c, 0, 62, 0
1, 77974, Note_on_c, 0, 74, 0
1, 77977, Note_on_c, 0, 69, 66
1, 77977, Note_on_c, 0, 66, 61
1, 77983, Note_on_c, 0, 62, 79
1, 77983, Note_on_c, 0, 57, 47
1, 77986, Note_on_c, 0, 50, 65
1, 77994, Note_on_c, 0, 54, 45
1, 78028, Note_on_c, 0, 62, 0
1, 78039, Note_on_c, 0, 54, 0
1, 78051, Note_on_c, 0, 57, 0
1, 78086, Note_on_c, 0, 66, 0
1, 78092, Note_on_c, 0, 69, 0
1, 78122, Note_on_c, 0, 50, 0
1, 78216, Note_on_c, 0, 74, 85
1, 78216, Note_on_c, 0, 66, 64
1, 78216, Note_on_c, 0, 62, 75
1, 78216, Note_on_c, 0, 54, 76
1, 78221, Note_on_c, 0, 69, 60
1, 78234, Note_on_c, 0, 57, 27
1, 78247, Note_on_c, 0, 66, 0
1, 78247, Note_on_c, 0, 54, 0
1, 78255, Note_on_c, 0, 62, 0
1, 78255, Note_on_c, 0, 69, 0
1, 78287, Note_on_c, 0, 74, 0
1, 78287, Note_on_c, 0, 57, 0
1, 78507, Note_on_c, 0, 86, 93
1, 78507, Note_on_c, 0, 74, 85
1, 78514, Note_on_c, 0, 78, 68
1, 78517, Note_on_c, 0, 81, 76
1, 78521, Note_on_c, 0, 66, 58
1, 78528, Note_on_c, 0, 69, 49
1, 78573, Note_on_c, 0, 69, 0
1, 78582, Note_on_c, 0, 81, 0
1, 78582, Note_on_c, 0, 66, 0
1, 78596, Note_on_c, 0, 74, 0
1, 78601, Note_on_c, 0, 86, 0
1, 78615, Note_on_c, 0, 78, 0
1, 78796, Note_on_c, 0, 78, 66
1, 78796, Note_on_c, 0, 69, 63
1, 78796, Note_on_c, 0, 81, 81
1, 78801, Note_on_c, 0, 74, 81
1, 78808, Note_on_c, 0, 66, 53
1, 78811, Note_on_c, 0, 62, 55
1, 78841, Note_on_c, 0, 74, 0
1, 78852, Note_on_c, 0, 78, 0
1, 78852, Note_on_c, 0, 62, 0
1, 78874, Note_on_c, 0, 66, 0
1, 78879, Note_on_c, 0, 69, 0
1, 78899, Note_on_c, 0, 81, 0
1, 79077, Note_on_c, 0, 78, 70
1, 79077, Note_on_c, 0, 69, 63
1, 79089, Note_on_c, 0, 74, 53
1, 79092, Note_on_c, 0, 66, 48
1, 79100, Note_on_c, 0, 62, 53
1, 79108, Note_on_c, 0, 78, 0
1, 79108, Note_on_c, 0, 57, 40
1, 79123, Note_on_c, 0, 69, 0
1, 79123, Note_on_c, 0, 74, 0
1, 79133, Note_on_c, 0, 66, 0
1, 79161, Note_on_c, 0, 57, 0
1, 79166, Note_on_c, 0, 62, 0
1, 79315, Note_on_c, 0, 72, 97
1, 79318, Note_on_c, 0, 60, 88
1, 79361, Note_on_c, 0, 60, 0
1, 79386, Note_on_c, 0, 72, 0
1, 79470, Note_on_c, 0, 74, 106
1, 79474, Note_on_c, 0, 62, 96
1, 79506, Note_on_c, 0, 62, 0
1, 79535, Note_on_c, 0, 74, 0
1, 79719, Note_on_c, 0, 77, 109
1, 79719, Note_on_c, 0, 65, 101
1, 79729, Note_on_c, 0, 36, 88
1, 79732, Note_on_c, 0, 24, 78
1, 79732, Control_c, 0, 64, 0
1, 79762, Note_on_c, 0, 24, 0
1, 79810, Note_on_c, 0, 36, 0
1, 79825, Control_c, 0, 64, 127
1, 79880, Note_on_c, 0, 77, 0
1, 79944, Note_on_c, 0, 65, 0
1, 80105, Note_on_c, 0, 63, 73
1, 80108, Note_on_c, 0, 67, 70
1, 80108, Note_on_c, 0, 48, 45
1, 80116, Note_on_c, 0, 55, 54
1, 80128, Note_on_c, 0, 51, 43
1, 80166, Note_on_c, 0, 48, 0
1, 80178, Note_on_c, 0, 51, 0
1, 80181, Note_on_c, 0, 55, 0
1, 80205, Note_on_c, 0, 63, 0
1, 80226, Note_on_c, 0, 67, 0
1, 80425, Note_on_c, 0, 60, 55
1, 80431, Note_on_c, 0, 72, 70
1, 80431, Note_on_c, 0, 67, 55
1, 80448, Note_on_c, 0, 55, 29
1, 80451, Note_on_c, 0, 51, 23
1, 80471, Note_on_c, 0, 67, 0
1, 80479, Note_on_c, 0, 60, 0
1, 80503, Note_on_c, 0, 55, 0
1, 80509, Note_on_c, 0, 51, 0
1, 80523, Note_on_c, 0, 72, 0
1, 80813, Note_on_c, 0, 75, 85
1, 80817, Note_on_c, 0, 87, 78
1, 80830, Note_on_c, 0, 72, 71
1, 80854, Note_on_c, 0, 67, 25
1, 80857, Note_on_c, 0, 63, 31
1, 80910, Note_on_c, 0, 63, 0
1, 80918, Note_on_c, 0, 67, 0
1, 80939, Note_on_c, 0, 87, 0
1, 80967, Note_on_c, 0, 72, 0
1, 80992, Note_on_c, 0, 75, 0
1, 81117, Note_on_c, 0, 75, 50
1, 81123, Note_on_c, 0, 84, 58
1, 81126, Note_on_c, 0, 63, 49
1, 81131, Note_on_c, 0, 67, 47
1, 81137, Note_on_c, 0, 79, 47
1, 81180, Note_on_c, 0, 63, 0
1, 81187, Note_on_c, 0, 67, 0
1, 81187, Note_on_c, 0, 79, 0
1, 81217, Note_on_c, 0, 75, 0
1, 81223, Note_on_c, 0, 84, 0
1, 81398, Note_on_c, 0, 75, 40
1, 81410, Note_on_c, 0, 79, 48
1, 81415, Note_on_c, 0, 67, 38
1, 81418, Note_on_c, 0, 63, 33
1, 81434, Note_on_c, 0, 60, 34
1, 81462, Note_on_c, 0, 67, 0
1, 81462, Note_on_c, 0, 63, 0
1, 81470, Note_on_c, 0, 79, 0
1, 81479, Note_on_c, 0, 60, 0
1, 81498, Note_on_c, 0, 75, 0
1, 81758, Note_on_c, 0, 24, 38
1, 81769, Note_on_c, 0, 36, 40
1, 81805, Note_on_c, 0, 24, 0
1, 81822, Note_on_c, 0, 36, 0
1, 82050, Note_on_c, 0, 55, 26
1, 82059, Note_on_c, 0, 67, 39
1, 82064, Note_on_c, 0, 63, 42
1, 82086, Note_on_c, 0, 48, 17
1, 82123, Note_on_c, 0, 55, 0
1, 82126, Note_on_c, 0, 67, 0
1, 82133, Note_on_c, 0, 63, 0
1, 82164, Note_on_c, 0, 48, 0
1, 82336, Note_on_c, 0, 60, 37
1, 82336, Note_on_c, 0, 72, 36
1, 82381, Note_on_c, 0, 72, 0
1, 82396, Note_on_c, 0, 60, 0
1, 82657, Note_on_c, 0, 87, 44
1, 82665, Note_on_c, 0, 75, 33
1, 82688, Note_on_c, 0, 67, 53
1, 82710, Note_on_c, 0, 55, 27
1, 82752, Note_on_c, 0, 75, 0
1, 82769, Note_on_c, 0, 55, 0
1, 82807, Note_on_c, 0, 67, 0
1, 82843, Note_on_c, 0, 87, 0
1, 82960, Note_on_c, 0, 63, 41
1, 82963, Note_on_c, 0, 84, 29
1, 82966, Note_on_c, 0, 75, 22
1, 82975, Note_on_c, 0, 79, 17
1, 83024, Note_on_c, 0, 75, 0
1, 83027, Note_on_c, 0, 84, 0
1, 83036, Note_on_c, 0, 63, 0
1, 83045, Note_on_c, 0, 79, 0
1, 83228, Note_on_c, 0, 75, 39
1, 83242, Note_on_c, 0, 79, 30
1, 83256, Note_on_c, 0, 60, 31
1, 83265, Note_on_c, 0, 55, 24
1, 83290, Note_on_c, 0, 75, 0
1, 83296, Note_on_c, 0, 79, 0
1, 83306, Note_on_c, 0, 60, 0
1, 83321, Note_on_c, 0, 55, 0
1, 83635, Note_on_c, 0, 39, 13
1, 83643, Note_on_c, 0, 72, 73
1, 83647, Note_on_c, 0, 27, 37
1, 83655, Note_on_c, 0, 60, 49
1, 83662, Control_c, 0, 64, 0
1, 83766, Note_on_c, 0, 27, 0
1, 83785, Note_on_c, 0, 39, 0
1, 83794, Control_c, 0, 64, 127
1, 83878, Note_on_c, 0, 60, 0
1, 84030, Note_on_c, 0, 63, 47
1, 84044, Note_on_c, 0, 60, 19
1, 84058, Note_on_c, 0, 55, 25
1, 84077, Note_on_c, 0, 51, 20
1, 84089, Note_on_c, 0, 63, 0
1, 84108, Note_on_c, 0, 72, 0
1, 84120, Note_on_c, 0, 60, 0
1, 84126, Note_on_c, 0, 55, 0
1, 84228, Note_on_c, 0, 51, 0
1, 84331, Note_on_c, 0, 63, 48
1, 84331, Note_on_c, 0, 67, 52
1, 84362, Note_on_c, 0, 60, 22
1, 84367, Note_on_c, 0, 63, 0
1, 84373, Note_on_c, 0, 67, 0
1, 84421, Note_on_c, 0, 60, 0
1, 84626, Note_on_c, 0, 84, 45
1, 84632, Note_on_c, 0, 63, 38
1, 84632, Note_on_c, 0, 72, 23
1, 84637, Note_on_c, 0, 67, 35
1, 84637, Note_on_c, 0, 75, 21
1, 84665, Note_on_c, 0, 84, 0
1, 84679, Note_on_c, 0, 63, 0
1, 84691, Note_on_c, 0, 67, 0
1, 84691, Note_on_c, 0, 75, 0
1, 84732, Note_on_c, 0, 72, 0
1, 84885, Note_on_c, 0, 63, 31
1, 84896, Note_on_c, 0, 79, 36
1, 84896, Note_on_c, 0, 72, 22
1, 84899, Note_on_c, 0, 75, 27
1, 84906, Note_on_c, 0, 60, 18
1, 84939, Note_on_c, 0, 63, 0
1, 84950, Note_on_c, 0, 75, 0
1, 84958, Note_on_c, 0, 79, 0
1, 84967, Note_on_c, 0, 72, 0
1, 84986, Note_on_c, 0, 60, 0
1, 85187, Note_on_c, 0, 72, 36
1, 85187, Note_on_c, 0, 75, 26
1, 85195, Note_on_c, 0, 67, 38
1, 85215, Note_on_c, 0, 63, 33
1, 85234, Note_on_c, 0, 72, 0
1, 85239, Note_on_c, 0, 67, 0
1, 85243, Note_on_c, 0, 75, 0
1, 85267, Note_on_c, 0, 63, 0
1, 85460, Note_on_c, 0, 72, 77
1, 85463, Note_on_c, 0, 60, 70
1, 85544, Note_on_c, 0, 60, 0
1, 85565, Note_on_c, 0, 72, 0
1, 85869, Note_on_c, 0, 70, 54
1, 85873, Note_on_c, 0, 58, 39
1, 85897, Note_on_c, 0, 31, 26
1, 85902, Note_on_c, 0, 43, 20
1, 85916, Control_c, 0, 64, 0
1, 86072, Note_on_c, 0, 31, 0
1, 86072, Control_c, 0, 64, 127
1, 86125, Note_on_c, 0, 43, 0
1, 86172, Note_on_c, 0, 70, 0
1, 86176, Note_on_c, 0, 58, 0
1, 86371, Note_on_c, 0, 69, 44
1, 86374, Note_on_c, 0, 57, 40
1, 86387, Note_on_c, 0, 61, 28
1, 86395, Note_on_c, 0, 55, 30
1, 86395, Note_on_c, 0, 64, 42
1, 86455, Note_on_c, 0, 57, 0
1, 86455, Note_on_c, 0, 55, 0
1, 86458, Note_on_c, 0, 61, 0
1, 86463, Note_on_c, 0, 64, 0
1, 86507, Note_on_c, 0, 69, 0
1, 86708, Note_on_c, 0, 70, 55
1, 86714, Note_on_c, 0, 58, 48
1, 86730, Control_c, 0, 64, 0
1, 86738, Note_on_c, 0, 55, 37
1, 86750, Note_on_c, 0, 61, 31
1, 86760, Note_on_c, 0, 64, 31
1, 86791, Note_on_c, 0, 55, 0
1, 86806, Note_on_c, 0, 61, 0
1, 86806, Note_on_c, 0, 64, 0
1, 86814, Control_c, 0, 64, 127
1, 86852, Note_on_c, 0, 58, 0
1, 86891, Note_on_c, 0, 70, 0
1, 87179, Note_on_c, 0, 73, 38
1, 87187, Note_on_c, 0, 61, 47
1, 87187, Note_on_c, 0, 85, 53
1, 87225, Note_on_c, 0, 67, 23
1, 87304, Note_on_c, 0, 67, 0
1, 87410, Note_on_c, 0, 61, 0
1, 87423, Note_on_c, 0, 73, 0
1, 87451, Note_on_c, 0, 85, 0
1, 87594, Note_on_c, 0, 72, 54
1, 87597, Note_on_c, 0, 84, 60
1, 87602, Note_on_c, 0, 60, 38
1, 87616, Note_on_c, 0, 76, 30
1, 87621, Note_on_c, 0, 67, 28
1, 87650, Note_on_c, 0, 79, 8
1, 87682, Note_on_c, 0, 76, 0
1, 87685, Note_on_c, 0, 67, 0
1, 87699, Note_on_c, 0, 79, 0
1, 87719, Note_on_c, 0, 72, 0
1, 87725, Note_on_c, 0, 84, 0
1, 87794, Note_on_c, 0, 60, 0
1, 87967, Note_on_c, 0, 70, 48
1, 87967, Note_on_c, 0, 82, 46
1, 87967, Note_on_c, 0, 58, 32
1, 87992, Note_on_c, 0, 61, 26
1, 88001, Note_on_c, 0, 73, 20
1, 88022, Note_on_c, 0, 76, 12
1, 88064, Note_on_c, 0, 82, 0
1, 88079, Note_on_c, 0, 61, 0
1, 88079, Note_on_c, 0, 73, 0
1, 88083, Note_on_c, 0, 76, 0
1, 88101, Note_on_c, 0, 58, 0
1, 88504, Note_on_c, 0, 72, 57
1, 88516, Note_on_c, 0, 29, 25
1, 88521, Note_on_c, 0, 60, 29
1, 88527, Control_c, 0, 64, 0
1, 88540, Note_on_c, 0, 70, 0
1, 88540, Note_on_c, 0, 41, 28
1, 88688, Note_on_c, 0, 29, 0
1, 88708, Control_c, 0, 64, 127
1, 88736, Note_on_c, 0, 41, 0
1, 88774, Note_on_c, 0, 60, 0
1, 88953, Note_on_c, 0, 65, 29
1, 88959, Note_on_c, 0, 57, 35
1, 88967, Note_on_c, 0, 60, 27
1, 88976, Note_on_c, 0, 53, 41
1, 89025, Note_on_c, 0, 57, 0
1, 89031, Note_on_c, 0, 60, 0
1, 89048, Note_on_c, 0, 53, 0
1, 89054, Note_on_c, 0, 65, 0
1, 89176, Note_on_c, 0, 72, 0
1, 89253, Note_on_c, 0, 69, 39
1, 89274, Note_on_c, 0, 60, 34
1, 89281, Note_on_c, 0, 57, 23
1, 89301, Note_on_c, 0, 69, 0
1, 89323, Note_on_c, 0, 60, 0
1, 89332, Note_on_c, 0, 57, 0
1, 89535, Note_on_c, 0, 72, 32
1, 89540, Note_on_c, 0, 69, 34
1, 89544, Note_on_c, 0, 84, 29
1, 89547, Note_on_c, 0, 77, 26
1, 89561, Note_on_c, 0, 65, 24
1, 89596, Note_on_c, 0, 84, 0
1, 89596, Note_on_c, 0, 77, 0
1, 89611, Note_on_c, 0, 65, 0
1, 89629, Note_on_c, 0, 69, 0
1, 89693, Note_on_c, 0, 72, 0
1, 89833, Note_on_c, 0, 65, 27
1, 89839, Note_on_c, 0, 81, 28
1, 89839, Note_on_c, 0, 72, 20
1, 89845, Note_on_c, 0, 60, 19
1, 89902, Note_on_c, 0, 65, 0
1, 89902, Note_on_c, 0, 60, 0
1, 89909, Note_on_c, 0, 72, 0
1, 89909, Note_on_c, 0, 81, 0
1, 90178, Note_on_c, 0, 77, 28
1, 90181, Note_on_c, 0, 57, 12
1, 90181, Note_on_c, 0, 60, 23
1, 90189, Note_on_c, 0, 72, 15
1, 90235, Note_on_c, 0, 60, 0
1, 90240, Note_on_c, 0, 57, 0
1, 90290, Note_on_c, 0, 72, 0
1, 90351, Note_on_c, 0, 77, 0
1, 90536, Note_on_c, 0, 29, 32
1, 90536, Note_on_c, 0, 41, 29
1, 90585, Note_on_c, 0, 29, 0
1, 90594, Note_on_c, 0, 41, 0
1, 90813, Note_on_c, 0, 63, 24
1, 90816, Note_on_c, 0, 57, 25
1, 90820, Note_on_c, 0, 65, 26
1, 90823, Note_on_c, 0, 53, 39
1, 90836, Note_on_c, 0, 60, 7
1, 90880, Note_on_c, 0, 63, 0
1, 90880, Note_on_c, 0, 53, 0
1, 90887, Note_on_c, 0, 57, 0
1, 90901, Note_on_c, 0, 65, 0
1, 90901, Note_on_c, 0, 60, 0
1, 91090, Note_on_c, 0, 69, 27
1, 91093, Note_on_c, 0, 63, 39
1, 91117, Note_on_c, 0, 53, 32
1, 91121, Note_on_c, 0, 60, 20
1, 91139, Note_on_c, 0, 63, 0
1, 91168, Note_on_c, 0, 69, 0
1, 91171, Note_on_c, 0, 53, 0
1, 91184, Note_on_c, 0, 60, 0
1, 91405, Note_on_c, 0, 81, 38
1, 91408, Note_on_c, 0, 72, 26
1, 91426, Note_on_c, 0, 69, 9
1, 91437, Note_on_c, 0, 65, 27
1, 91449, Note_on_c, 0, 63, 25
1, 91499, Note_on_c, 0, 65, 0
1, 91508, Note_on_c, 0, 81, 0
1, 91519, Note_on_c, 0, 69, 0
1, 91519, Note_on_c, 0, 63, 0
1, 91532, Note_on_c, 0, 72, 0
1, 91749, Note_on_c, 0, 65, 22
1, 91763, Note_on_c, 0, 69, 10
1, 91767, Note_on_c, 0, 77, 25
1, 91767, Note_on_c, 0, 60, 14
1, 91827, Note_on_c, 0, 65, 0
1, 91836, Note_on_c, 0, 69, 0
1, 91845, Note_on_c, 0, 60, 0
1, 91862, Note_on_c, 0, 77, 0
1, 92171, Note_on_c, 0, 72, 20
1, 92176, Note_on_c, 0, 69, 7
1, 92185, Note_on_c, 0, 65, 13
1, 92188, Note_on_c, 0, 63, 19
1, 92256, Note_on_c, 0, 65, 0
1, 92263, Note_on_c, 0, 69, 0
1, 92263, Note_on_c, 0, 63, 0
1, 92273, Note_on_c, 0, 72, 0
1, 92895, Note_on_c, 0, 70, 47
1, 92906, Note_on_c, 0, 58, 20
1, 92926, Control_c, 0, 64, 0
1, 92933, Note_on_c, 0, 34, 20
1, 92937, Note_on_c, 0, 46, 14
1, 93095, Control_c, 0, 64, 127
1, 93095, Note_on_c, 0, 34, 0
1, 93131, Note_on_c, 0, 46, 0
1, 93182, Note_on_c, 0, 58, 0
1, 93355, Note_on_c, 0, 70, 0
1, 93362, Note_on_c, 0, 58, 27
1, 93391, Note_on_c, 0, 53, 41
1, 93451, Note_on_c, 0, 58, 0
1, 93458, Note_on_c, 0, 53, 0
1, 93527, Note_on_c, 0, 65, 37
1, 93539, Note_on_c, 0, 62, 28
1, 93575, Note_on_c, 0, 65, 0
1, 93592, Note_on_c, 0, 62, 0
1, 93660, Note_on_c, 0, 58, 20
1, 93717, Note_on_c, 0, 58, 0
1, 93756, Note_on_c, 0, 70, 52
1, 93756, Note_on_c, 0, 65, 41
1, 93792, Note_on_c, 0, 70, 0
1, 93802, Note_on_c, 0, 65, 0
1, 93939, Note_on_c, 0, 65, 15
1, 93939, Note_on_c, 0, 70, 28
1, 93942, Note_on_c, 0, 74, 54
1, 93998, Note_on_c, 0, 74, 0
1, 94006, Note_on_c, 0, 70, 0
1, 94012, Note_on_c, 0, 65, 0
1, 94076, Note_on_c, 0, 86, 41
1, 94081, Note_on_c, 0, 77, 41
1, 94089, Note_on_c, 0, 82, 25
1, 94128, Note_on_c, 0, 86, 0
1, 94132, Note_on_c, 0, 77, 0
1, 94140, Note_on_c, 0, 82, 0
1, 94218, Note_on_c, 0, 70, 41
1, 94235, Note_on_c, 0, 65, 26
1, 94280, Note_on_c, 0, 70, 0
1, 94291, Note_on_c, 0, 65, 0
1, 94340, Note_on_c, 0, 82, 41
1, 94351, Note_on_c, 0, 74, 36
1, 94362, Note_on_c, 0, 77, 23
1, 94382, Note_on_c, 0, 82, 0
1, 94402, Note_on_c, 0, 74, 0
1, 94413, Note_on_c, 0, 77, 0
1, 94488, Note_on_c, 0, 65, 32
1, 94504, Note_on_c, 0, 62, 34
1, 94530, Note_on_c, 0, 65, 0
1, 94546, Note_on_c, 0, 62, 0
1, 94684, Note_on_c, 0, 77, 35
1, 94684, Note_on_c, 0, 74, 34
1, 94731, Note_on_c, 0, 77, 0
1, 94734, Note_on_c, 0, 74, 0
1, 94862, Note_on_c, 0, 31, 55
1, 94886, Note_on_c, 0, 43, 31
1, 94898, Note_on_c, 0, 31, 0
1, 94929, Note_on_c, 0, 43, 0
1, 95132, Note_on_c, 0, 58, 48
1, 95152, Note_on_c, 0, 52, 49
1, 95184, Note_on_c, 0, 58, 0
1, 95259, Note_on_c, 0, 62, 51
1, 95268, Note_on_c, 0, 64, 41
1, 95298, Note_on_c, 0, 62, 0
1, 95315, Note_on_c, 0, 64, 0
1, 95388, Note_on_c, 0, 62, 50
1, 95394, Note_on_c, 0, 58, 35
1, 95416, Note_on_c, 0, 52, 0
1, 95438, Note_on_c, 0, 62, 0
1, 95438, Note_on_c, 0, 58, 0
1, 95500, Note_on_c, 0, 70, 50
1, 95521, Note_on_c, 0, 64, 14
1, 95546, Note_on_c, 0, 70, 0
1, 95563, Note_on_c, 0, 64, 0
1, 95684, Note_on_c, 0, 69, 82
1, 95702, Note_on_c, 0, 57, 48
1, 95759, Note_on_c, 0, 57, 0
1, 95840, Note_on_c, 0, 69, 0
1, 95845, Note_on_c, 0, 86, 50
1, 95865, Note_on_c, 0, 82, 33
1, 95897, Note_on_c, 0, 86, 0
1, 95914, Note_on_c, 0, 82, 0
1, 95993, Note_on_c, 0, 64, 50
1, 96007, Note_on_c, 0, 62, 32
1, 96049, Note_on_c, 0, 64, 0
1, 96060, Note_on_c, 0, 62, 0
1, 96115, Note_on_c, 0, 82, 39
1, 96126, Note_on_c, 0, 76, 27
1, 96157, Note_on_c, 0, 82, 0
1, 96181, Note_on_c, 0, 76, 0
1, 96230, Note_on_c, 0, 70, 84
1, 96249, Note_on_c, 0, 58, 43
1, 96305, Note_on_c, 0, 70, 0
1, 96410, Note_on_c, 0, 58, 0
1, 96410, Note_on_c, 0, 76, 46
1, 96450, Note_on_c, 0, 76, 0
1, 96714, Note_on_c, 0, 74, 94
1, 96727, Note_on_c, 0, 62, 54
1, 96733, Note_on_c, 0, 29, 39
1, 96737, Control_c, 0, 64, 0
1, 96753, Note_on_c, 0, 41, 32
1, 96834, Note_on_c, 0, 29, 0
1, 96873, Note_on_c, 0, 41, 0
1, 96881, Control_c, 0, 64, 127
1, 97024, Note_on_c, 0, 62, 0
1, 97073, Note_on_c, 0, 74, 0
1, 97101, Note_on_c, 0, 58, 39
1, 97120, Note_on_c, 0, 53, 50
1, 97127, Note_on_c, 0, 50, 36
1, 97179, Note_on_c, 0, 53, 0
1, 97201, Note_on_c, 0, 50, 0
1, 97213, Note_on_c, 0, 58, 0
1, 97262, Note_on_c, 0, 65, 47
1, 97269, Note_on_c, 0, 62, 48
1, 97310, Note_on_c, 0, 65, 0
1, 97310, Note_on_c, 0, 62, 0
1, 97388, Note_on_c, 0, 62, 44
1, 97400, Note_on_c, 0, 58, 41
1, 97413, Note_on_c, 0, 53, 38
1, 97444, Note_on_c, 0, 62, 0
1, 97444, Note_on_c, 0, 58, 0
1, 97461, Note_on_c, 0, 53, 0
1, 97522, Note_on_c, 0, 70, 55
1, 97556, Note_on_c, 0, 70, 0
1, 97714, Note_on_c, 0, 74, 70
1, 97728, Note_on_c, 0, 70, 23
1, 97728, Note_on_c, 0, 65, 16
1, 97801, Note_on_c, 0, 70, 0
1, 97809, Note_on_c, 0, 74, 0
1, 97831, Note_on_c, 0, 65, 0
1, 97867, Note_on_c, 0, 86, 44
1, 97875, Note_on_c, 0, 77, 39
1, 97875, Note_on_c, 0, 82, 27
1, 97920, Note_on_c, 0, 86, 0
1, 97926, Note_on_c, 0, 82, 0
1, 97936, Note_on_c, 0, 77, 0
1, 97995, Note_on_c, 0, 70, 46
1, 98021, Note_on_c, 0, 62, 29
1, 98024, Note_on_c, 0, 65, 23
1, 98077, Note_on_c, 0, 62, 0
1, 98081, Note_on_c, 0, 65, 0
1, 98101, Note_on_c, 0, 70, 0
1, 98129, Note_on_c, 0, 82, 42
1, 98135, Note_on_c, 0, 74, 48
1, 98149, Note_on_c, 0, 77, 30
1, 98171, Note_on_c, 0, 82, 0
1, 98180, Note_on_c, 0, 74, 0
1, 98193, Note_on_c, 0, 77, 0
1, 98288, Note_on_c, 0, 65, 38
1, 98330, Note_on_c, 0, 65, 0
1, 98485, Note_on_c, 0, 77, 44
1, 98488, Note_on_c, 0, 74, 39
1, 98527, Note_on_c, 0, 77, 0
1, 98531, Note_on_c, 0, 74, 0
1, 98641, Note_on_c, 0, 29, 46
1, 98658, Note_on_c, 0, 41, 35
1, 98689, Note_on_c, 0, 29, 0
1, 98709, Note_on_c, 0, 41, 0
1, 98917, Note_on_c, 0, 57, 35
1, 98920, Note_on_c, 0, 53, 60
1, 98960, Note_on_c, 0, 53, 0
1, 99054, Note_on_c, 0, 57, 0
1, 99059, Note_on_c, 0, 63, 47
1, 99066, Note_on_c, 0, 65, 42
1, 99121, Note_on_c, 0, 63, 0
1, 99121, Note_on_c, 0, 65, 0
1, 99190, Note_on_c, 0, 60, 54
1, 99213, Note_on_c, 0, 53, 44
1, 99241, Note_on_c, 0, 60, 0
1, 99263, Note_on_c, 0, 53, 0
1, 99299, Note_on_c, 0, 63, 40
1, 99313, Note_on_c, 0, 69, 36
1, 99344, Note_on_c, 0, 63, 0
1, 99360, Note_on_c, 0, 69, 0
1, 99480, Note_on_c, 0, 60, 42
1, 99521, Note_on_c, 0, 72, 68
1, 99614, Control_c, 0, 64, 0
1, 99697, Control_c, 0, 64, 127
1, 99719, Note_on_c, 0, 75, 35
1, 99719, Note_on_c, 0, 84, 38
1, 99750, Note_on_c, 0, 60, 0
1, 99770, Note_on_c, 0, 84, 0
1, 99786, Note_on_c, 0, 72, 0
1, 99793, Note_on_c, 0, 75, 0
1, 99879, Note_on_c, 0, 69, 23
1, 99884, Note_on_c, 0, 63, 31
1, 99976, Note_on_c, 0, 63, 0
1, 99985, Note_on_c, 0, 69, 0
1, 100052, Note_on_c, 0, 75, 43
1, 100065, Note_on_c, 0, 81, 36
1, 100107, Note_on_c, 0, 75, 0
1, 100121, Note_on_c, 0, 81, 0
1, 100258, Note_on_c, 0, 65, 29
1, 100263, Note_on_c, 0, 60, 29
1, 100330, Note_on_c, 0, 65, 0
1, 100372, Note_on_c, 0, 60, 0
1, 100444, Note_on_c, 0, 75, 44
1, 100463, Note_on_c, 0, 77, 33
1, 100489, Note_on_c, 0, 75, 0
1, 100505, Note_on_c, 0, 77, 0
1, 100781, Note_on_c, 0, 70, 41
1, 100784, Note_on_c, 0, 58, 30
1, 100809, Note_on_c, 0, 34, 21
1, 100809, Note_on_c, 0, 46, 19
1, 100825, Control_c, 0, 64, 0
1, 100959, Note_on_c, 0, 34, 0
1, 100968, Control_c, 0, 64, 127
1, 100981, Note_on_c, 0, 46, 0
1, 101038, Note_on_c, 0, 58, 0
1, 101226, Note_on_c, 0, 65, 22
1, 101230, Note_on_c, 0, 62, 25
1, 101236, Note_on_c, 0, 70, 0
1, 101244, Note_on_c, 0, 50, 20
1, 101257, Note_on_c, 0, 53, 16
1, 101300, Note_on_c, 0, 65, 0
1, 101321, Note_on_c, 0, 62, 0
1, 101329, Note_on_c, 0, 50, 0
1, 101335, Note_on_c, 0, 53, 0
1, 101536, Note_on_c, 0, 70, 34
1, 101552, Note_on_c, 0, 65, 34
1, 101552, Note_on_c, 0, 62, 36
1, 101558, Note_on_c, 0, 58, 24
1, 101592, Note_on_c, 0, 65, 0
1, 101595, Note_on_c, 0, 70, 0
1, 101602, Note_on_c, 0, 62, 0
1, 101616, Note_on_c, 0, 58, 0
1, 101843, Note_on_c, 0, 82, 40
1, 101843, Note_on_c, 0, 70, 32
1, 101846, Note_on_c, 0, 86, 31
1, 101854, Note_on_c, 0, 74, 32
1, 101857, Note_on_c, 0, 65, 27
1, 101907, Note_on_c, 0, 65, 0
1, 101917, Note_on_c, 0, 82, 0
1, 101938, Note_on_c, 0, 86, 0
1, 101948, Note_on_c, 0, 70, 0
1, 102034, Note_on_c, 0, 74, 0
1, 102129, Note_on_c, 0, 82, 38
1, 102140, Note_on_c, 0, 77, 37
1, 102149, Note_on_c, 0, 65, 34
1, 102152, Note_on_c, 0, 62, 26
1, 102205, Note_on_c, 0, 77, 0
1, 102213, Note_on_c, 0, 65, 0
1, 102213, Note_on_c, 0, 62, 0
1, 102226, Note_on_c, 0, 82, 0
1, 102414, Note_on_c, 0, 77, 28
1, 102417, Note_on_c, 0, 74, 27
1, 102421, Note_on_c, 0, 70, 31
1, 102430, Note_on_c, 0, 65, 30
1, 102470, Note_on_c, 0, 70, 0
1, 102470, Note_on_c, 0, 65, 0
1, 102484, Note_on_c, 0, 77, 0
1, 102484, Note_on_c, 0, 74, 0
1, 102673, Note_on_c, 0, 34, 49
1, 102680, Note_on_c, 0, 46, 26
1, 102712, Note_on_c, 0, 34, 0
1, 102739, Note_on_c, 0, 46, 0
1, 102951, Note_on_c, 0, 58, 36
1, 102959, Note_on_c, 0, 65, 32
1, 102967, Note_on_c, 0, 62, 36
1, 102967, Note_on_c, 0, 53, 36
1, 102982, Note_on_c, 0, 50, 25
1, 103018, Note_on_c, 0, 53, 0
1, 103026, Note_on_c, 0, 62, 0
1, 103032, Note_on_c, 0, 65, 0
1, 103048, Note_on_c, 0, 58, 0
1, 103048, Note_on_c, 0, 50, 0
1, 103216, Note_on_c, 0, 62, 46
1, 103221, Note_on_c, 0, 70, 44
1, 103221, Note_on_c, 0, 65, 39
1, 103260, Note_on_c, 0, 62, 0
1, 103260, Note_on_c, 0, 70, 0
1, 103268, Note_on_c, 0, 65, 0
1, 103505, Note_on_c, 0, 86, 43
1, 103508, Note_on_c, 0, 70, 22
1, 103511, Note_on_c, 0, 77, 29
1, 103517, Note_on_c, 0, 74, 41
1, 103517, Note_on_c, 0, 65, 33
1, 103530, Note_on_c, 0, 62, 35
1, 103576, Note_on_c, 0, 65, 0
1, 103576, Note_on_c, 0, 62, 0
1, 103586, Note_on_c, 0, 70, 0
1, 103598, Note_on_c, 0, 86, 0
1, 103605, Note_on_c, 0, 77, 0
1, 103612, Note_on_c, 0, 74, 0
1, 103767, Note_on_c, 0, 82, 36
1, 103767, Note_on_c, 0, 77, 43
1, 103776, Note_on_c, 0, 62, 31
1, 103776, Note_on_c, 0, 74, 35
1, 103786, Note_on_c, 0, 65, 32
1, 103803, Note_on_c, 0, 58, 36
1, 103817, Note_on_c, 0, 77, 0
1, 103829, Note_on_c, 0, 62, 0
1, 103837, Note_on_c, 0, 74, 0
1, 103846, Note_on_c, 0, 65, 0
1, 103857, Note_on_c, 0, 82, 0
1, 103860, Note_on_c, 0, 58, 0
1, 104029, Note_on_c, 0, 70, 40
1, 104035, Note_on_c, 0, 77, 44
1, 104049, Note_on_c, 0, 74, 36
1, 104063, Note_on_c, 0, 62, 39
1, 104073, Note_on_c, 0, 70, 0
1, 104085, Note_on_c, 0, 77, 0
1, 104085, Note_on_c, 0, 65, 11
1, 104105, Note_on_c, 0, 62, 0
1, 104108, Note_on_c, 0, 74, 0
1, 104129, Note_on_c, 0, 65, 0
1, 104285, Note_on_c, 0, 46, 47
1, 104288, Note_on_c, 0, 34, 58
1, 104322, Note_on_c, 0, 34, 0
1, 104332, Note_on_c, 0, 46, 0
1, 104537, Note_on_c, 0, 70, 47
1, 104541, Note_on_c, 0, 58, 43
1, 104545, Note_on_c, 0, 62, 51
1, 104548, Note_on_c, 0, 65, 41
1, 104558, Note_on_c, 0, 53, 48
1, 104572, Note_on_c, 0, 50, 43
1, 104606, Note_on_c, 0, 53, 0
1, 104612, Note_on_c, 0, 65, 0
1, 104612, Note_on_c, 0, 62, 0
1, 104623, Note_on_c, 0, 50, 0
1, 104644, Note_on_c, 0, 58, 0
1, 104683, Note_on_c, 0, 70, 0
1, 104793, Note_on_c, 0, 74, 69
1, 104793, Note_on_c, 0, 65, 60
1, 104796, Note_on_c, 0, 62, 58
1, 104796, Note_on_c, 0, 70, 42
1, 104800, Note_on_c, 0, 53, 67
1, 104806, Note_on_c, 0, 58, 39
1, 104824, Note_on_c, 0, 65, 0
1, 104835, Note_on_c, 0, 53, 0
1, 104843, Note_on_c, 0, 62, 0
1, 104843, Note_on_c, 0, 70, 0
1, 104848, Note_on_c, 0, 58, 0
1, 104857, Note_on_c, 0, 74, 0
1, 105069, Note_on_c, 0, 89, 71
1, 105072, Note_on_c, 0, 77, 65
1, 105076, Note_on_c, 0, 82, 47
1, 105076, Note_on_c, 0, 74, 62
1, 105080, Note_on_c, 0, 65, 47
1, 105088, Note_on_c, 0, 70, 39
1, 105133, Note_on_c, 0, 74, 0
1, 105146, Note_on_c, 0, 70, 0
1, 105160, Note_on_c, 0, 65, 0
1, 105186, Note_on_c, 0, 82, 0
1, 105222, Note_on_c, 0, 77, 0
1, 105235, Note_on_c, 0, 89, 0
1, 105322, Note_on_c, 0, 86, 66
1, 105327, Note_on_c, 0, 82, 51
1, 105327, Note_on_c, 0, 77, 57
1, 105330, Note_on_c, 0, 70, 51
1, 105330, Note_on_c, 0, 65, 43
1, 105358, Note_on_c, 0, 62, 46
1, 105394, Note_on_c, 0, 65, 0
1, 105414, Note_on_c, 0, 62, 0
1, 105445, Note_on_c, 0, 70, 0
1, 105456, Note_on_c, 0, 82, 0
1, 105475, Note_on_c, 0, 77, 0
1, 105481, Note_on_c, 0, 86, 0
1, 105584, Note_on_c, 0, 82, 51
1, 105590, Note_on_c, 0, 74, 49
1, 105595, Note_on_c, 0, 77, 56
1, 105600, Note_on_c, 0, 65, 40
1, 105605, Note_on_c, 0, 70, 39
1, 105629, Note_on_c, 0, 74, 0
1, 105643, Note_on_c, 0, 82, 0
1, 105648, Note_on_c, 0, 70, 0
1, 105659, Note_on_c, 0, 65, 0
1, 105662, Note_on_c, 0, 77, 0
1, 105832, Note_on_c, 0, 46, 62
1, 105835, Note_on_c, 0, 34, 75
1, 105862, Note_on_c, 0, 34, 0
1, 105873, Note_on_c, 0, 46, 0
1, 106079, Note_on_c, 0, 68, 58
1, 106082, Note_on_c, 0, 74, 77
1, 106082, Note_on_c, 0, 65, 67
1, 106085, Note_on_c, 0, 56, 55
1, 106085, Note_on_c, 0, 53, 77
1, 106088, Note_on_c, 0, 62, 56
1, 106132, Note_on_c, 0, 56, 0
1, 106132, Note_on_c, 0, 53, 0
1, 106138, Note_on_c, 0, 62, 0
1, 106204, Note_on_c, 0, 68, 0
1, 106218, Note_on_c, 0, 74, 0
1, 106218, Note_on_c, 0, 65, 0
1, 106375, Note_on_c, 0, 77, 78
1, 106375, Note_on_c, 0, 68, 64
1, 106375, Note_on_c, 0, 65, 57
1, 106378, Note_on_c, 0, 56, 55
1, 106400, Note_on_c, 0, 74, 54
1, 106405, Note_on_c, 0, 62, 23
1, 106405, Note_on_c, 0, 68, 0
1, 106414, Note_on_c, 0, 65, 0
1, 106414, Note_on_c, 0, 56, 0
1, 106436, Note_on_c, 0, 77, 0
1, 106436, Note_on_c, 0, 74, 0
1, 106455, Note_on_c, 0, 62, 0
1, 106648, Note_on_c, 0, 92, 82
1, 106651, Note_on_c, 0, 80, 78
1, 106661, Note_on_c, 0, 68, 50
1, 106661, Note_on_c, 0, 86, 71
1, 106661, Note_on_c, 0, 77, 63
1, 106675, Note_on_c, 0, 74, 52
1, 106712, Note_on_c, 0, 77, 0
1, 106712, Note_on_c, 0, 74, 0
1, 106753, Note_on_c, 0, 68, 0
1, 106756, Note_on_c, 0, 86, 0
1, 106781, Note_on_c, 0, 80, 0
1, 106857, Note_on_c, 0, 92, 0
1, 106912, Note_on_c, 0, 80, 70
1, 106920, Note_on_c, 0, 74, 62
1, 106920, Note_on_c, 0, 68, 40
1, 106920, Note_on_c, 0, 89, 71
1, 106926, Note_on_c, 0, 86, 58
1, 106941, Note_on_c, 0, 65, 23
1, 106980, Note_on_c, 0, 74, 0
1, 106980, Note_on_c, 0, 86, 0
1, 106993, Note_on_c, 0, 65, 0
1, 107026, Note_on_c, 0, 80, 0
1, 107038, Note_on_c, 0, 68, 0
1, 107043, Note_on_c, 0, 89, 0
1, 107169, Note_on_c, 0, 77, 51
1, 107174, Note_on_c, 0, 80, 59
1, 107179, Note_on_c, 0, 68, 29
1, 107183, Note_on_c, 0, 86, 63
1, 107203, Note_on_c, 0, 77, 0
1, 107207, Note_on_c, 0, 74, 35
1, 107243, Note_on_c, 0, 86, 0
1, 107253, Note_on_c, 0, 74, 0
1, 107263, Note_on_c, 0, 68, 0
1, 107308, Note_on_c, 0, 80, 0
1, 107437, Note_on_c, 0, 46, 60
1, 107450, Note_on_c, 0, 34, 53
1, 107475, Control_c, 0, 64, 0
1, 107550, Note_on_c, 0, 34, 0
1, 107559, Control_c, 0, 64, 127
1, 107572, Note_on_c, 0, 46, 0
1, 107701, Note_on_c, 0, 63, 61
1, 107701, Note_on_c, 0, 70, 56
1, 107709, Note_on_c, 0, 67, 52
1, 107715, Note_on_c, 0, 58, 41
1, 107723, Note_on_c, 0, 55, 36
1, 107742, Note_on_c, 0, 51, 40
1, 107771, Note_on_c, 0, 55, 0
1, 107784, Note_on_c, 0, 67, 0
1, 107799, Note_on_c, 0, 58, 0
1, 107810, Note_on_c, 0, 63, 0
1, 107837, Note_on_c, 0, 70, 0
1, 107888, Note_on_c, 0, 51, 0
1, 107941, Note_on_c, 0, 63, 62
1, 107946, Note_on_c, 0, 75, 68
1, 107954, Note_on_c, 0, 70, 57
1, 107959, Note_on_c, 0, 67, 59
1, 107971, Note_on_c, 0, 58, 30
1, 107996, Note_on_c, 0, 63, 0
1, 107996, Note_on_c, 0, 70, 0
1, 107996, Note_on_c, 0, 67, 0
1, 108022, Note_on_c, 0, 75, 0
1, 108027, Note_on_c, 0, 58, 0
1, 108225, Note_on_c, 0, 91, 87
1, 108228, Note_on_c, 0, 75, 60
1, 108228, Note_on_c, 0, 79, 85
1, 108238, Note_on_c, 0, 82, 52
1, 108246, Note_on_c, 0, 70, 38
1, 108246, Note_on_c, 0, 67, 41
1, 108302, Note_on_c, 0, 70, 0
1, 108310, Note_on_c, 0, 67, 0
1, 108317, Note_on_c, 0, 75, 0
1, 108336, Note_on_c, 0, 82, 0
1, 108388, Note_on_c, 0, 79, 0
1, 108409, Note_on_c, 0, 91, 0
1, 108509, Note_on_c, 0, 87, 54
1, 108509, Note_on_c, 0, 79, 59
1, 108513, Note_on_c, 0, 70, 40
1, 108513, Note_on_c, 0, 67, 41
1, 108519, Note_on_c, 0, 82, 34
1, 108526, Note_on_c, 0, 63, 40
1, 108568, Note_on_c, 0, 67, 0
1, 108590, Note_on_c, 0, 70, 0
1, 108593, Note_on_c, 0, 82, 0
1, 108640, Note_on_c, 0, 79, 0
1, 108647, Note_on_c, 0, 63, 0
1, 108657, Note_on_c, 0, 87, 0
1, 108782, Note_on_c, 0, 75, 52
1, 108785, Note_on_c, 0, 82, 48
1, 108793, Note_on_c, 0, 79, 49
1, 108806, Note_on_c, 0, 70, 42
1, 108810, Note_on_c, 0, 67, 38
1, 108823, Note_on_c, 0, 75, 0
1, 108859, Note_on_c, 0, 70, 0
1, 108863, Note_on_c, 0, 67, 0
1, 108884, Note_on_c, 0, 79, 0
1, 108891, Note_on_c, 0, 82, 0
1, 109118, Note_on_c, 0, 46, 34
1, 109130, Note_on_c, 0, 34, 32
1, 109249, Note_on_c, 0, 34, 0
1, 109274, Note_on_c, 0, 46, 0
1, 109389, Note_on_c, 0, 60, 50
1, 109402, Note_on_c, 0, 69, 41
1, 109402, Note_on_c, 0, 63, 48
1, 109406, Note_on_c, 0, 66, 33
1, 109411, Note_on_c, 0, 51, 33
1, 109573, Control_c, 0, 64, 0
1, 109589, Note_on_c, 0, 60, 0
1, 109601, Note_on_c, 0, 69, 0
1, 109609, Note_on_c, 0, 66, 0
1, 109621, Control_c, 0, 64, 127
1, 109628, Note_on_c, 0, 63, 0
1, 109664, Note_on_c, 0, 69, 33
1, 109664, Note_on_c, 0, 75, 64
1, 109664, Note_on_c, 0, 66, 48
1, 109676, Note_on_c, 0, 54, 56
1, 109682, Note_on_c, 0, 63, 64
1, 109687, Note_on_c, 0, 51, 0
1, 109687, Note_on_c, 0, 60, 16
1, 109705, Note_on_c, 0, 66, 0
1, 109710, Note_on_c, 0, 69, 0
1, 109718, Note_on_c, 0, 63, 0
1, 109723, Note_on_c, 0, 54, 0
1, 109742, Note_on_c, 0, 60, 0
1, 109760, Note_on_c, 0, 75, 0
1, 109949, Note_on_c, 0, 90, 70
1, 109965, Note_on_c, 0, 78, 41
1, 109965, Note_on_c, 0, 75, 41
1, 109977, Note_on_c, 0, 81, 36
1, 109985, Note_on_c, 0, 72, 30
1, 109988, Note_on_c, 0, 66, 32
1, 110021, Note_on_c, 0, 78, 0
1, 110021, Note_on_c, 0, 75, 0
1, 110027, Note_on_c, 0, 81, 0
1, 110035, Note_on_c, 0, 72, 0
1, 110085, Note_on_c, 0, 66, 0
1, 110136, Note_on_c, 0, 90, 0
1, 110205, Note_on_c, 0, 78, 44
1, 110211, Note_on_c, 0, 87, 42
1, 110222, Note_on_c, 0, 81, 39
1, 110225, Note_on_c, 0, 72, 34
1, 110230, Note_on_c, 0, 63, 45
1, 110238, Note_on_c, 0, 66, 15
1, 110277, Note_on_c, 0, 81, 0
1, 110280, Note_on_c, 0, 63, 0
1, 110306, Note_on_c, 0, 78, 0
1, 110311, Note_on_c, 0, 66, 0
1, 110316, Note_on_c, 0, 72, 0
1, 110328, Note_on_c, 0, 87, 0
1, 110479, Note_on_c, 0, 75, 29
1, 110479, Note_on_c, 0, 78, 39
1, 110486, Note_on_c, 0, 81, 42
1, 110492, Note_on_c, 0, 66, 25
1, 110512, Note_on_c, 0, 72, 38
1, 110523, Note_on_c, 0, 75, 0
1, 110554, Note_on_c, 0, 72, 0
1, 110606, Note_on_c, 0, 66, 0
1, 110651, Note_on_c, 0, 81, 0
1, 110673, Note_on_c, 0, 78, 0
1, 110787, Note_on_c, 0, 46, 22
1, 110801, Note_on_c, 0, 34, 33
1, 110820, Control_c, 0, 64, 0
1, 110896, Note_on_c, 0, 34, 0
1, 110915, Control_c, 0, 64, 127
1, 110923, Note_on_c, 0, 46, 0
1, 111057, Note_on_c, 0, 70, 40
1, 111068, Note_on_c, 0, 58, 32
1, 111068, Note_on_c, 0, 62, 27
1, 111068, Note_on_c, 0, 65, 19
1, 111079, Note_on_c, 0, 50, 26
1, 111079, Note_on_c, 0, 53, 27
1, 111127, Note_on_c, 0, 62, 0
1, 111138, Note_on_c, 0, 65, 0
1, 111138, Note_on_c, 0, 53, 0
1, 111150, Note_on_c, 0, 50, 0
1, 111164, Note_on_c, 0, 58, 0
1, 111178, Note_on_c, 0, 70, 0
1, 111316, Note_on_c, 0, 65, 52
1, 111320, Note_on_c, 0, 74, 49
1, 111327, Note_on_c, 0, 70, 33
1, 111331, Note_on_c, 0, 62, 30
1, 111331, Note_on_c, 0, 58, 15
1, 111348, Note_on_c, 0, 65, 0
1, 111370, Note_on_c, 0, 70, 0
1, 111375, Note_on_c, 0, 74, 0
1, 111381, Note_on_c, 0, 62, 0
1, 111391, Note_on_c, 0, 58, 0
1, 111604, Note_on_c, 0, 89, 58
1, 111615, Note_on_c, 0, 77, 38
1, 111618, Note_on_c, 0, 82, 31
1, 111627, Note_on_c, 0, 74, 42
1, 111627, Note_on_c, 0, 65, 20
1, 111631, Note_on_c, 0, 70, 19
1, 111670, Note_on_c, 0, 74, 0
1, 111674, Note_on_c, 0, 82, 0
1, 111685, Note_on_c, 0, 65, 0
1, 111690, Note_on_c, 0, 70, 0
1, 111706, Note_on_c, 0, 77, 0
1, 111765, Note_on_c, 0, 89, 0
1, 111890, Note_on_c, 0, 70, 30
1, 111898, Note_on_c, 0, 86, 42
1, 111901, Note_on_c, 0, 77, 28
1, 111904, Note_on_c, 0, 82, 26
1, 111904, Note_on_c, 0, 62, 27
1, 111904, Note_on_c, 0, 65, 16
1, 111972, Note_on_c, 0, 82, 0
1, 111972, Note_on_c, 0, 77, 0
1, 111980, Note_on_c, 0, 62, 0
1, 111980, Note_on_c, 0, 86, 0
1, 111983, Note_on_c, 0, 65, 0
1, 112018, Note_on_c, 0, 70, 0
1, 112185, Note_on_c, 0, 82, 35
1, 112195, Note_on_c, 0, 77, 25
1, 112203, Note_on_c, 0, 65, 35
1, 112203, Note_on_c, 0, 74, 16
1, 112210, Note_on_c, 0, 70, 25
1, 112249, Note_on_c, 0, 74, 0
1, 112255, Note_on_c, 0, 82, 0
1, 112255, Note_on_c, 0, 65, 0
1, 112263, Note_on_c, 0, 70, 0
1, 112266, Note_on_c, 0, 77, 0
1, 112475, Note_on_c, 0, 34, 52
1, 112492, Note_on_c, 0, 46, 17
1, 112515, Note_on_c, 0, 34, 0
1, 112546, Note_on_c, 0, 46, 0
1, 112740, Note_on_c, 0, 46, 28
1, 112749, Note_on_c, 0, 58, 33
1, 112749, Note_on_c, 0, 53, 54
1, 112756, Note_on_c, 0, 65, 38
1, 112760, Note_on_c, 0, 62, 29
1, 112807, Note_on_c, 0, 53, 0
1, 112815, Note_on_c, 0, 58, 0
1, 112815, Note_on_c, 0, 62, 0
1, 112829, Note_on_c, 0, 65, 0
1, 112885, Note_on_c, 0, 46, 0
1, 112985, Note_on_c, 0, 70, 43
1, 112993, Note_on_c, 0, 58, 31
1, 113049, Note_on_c, 0, 58, 0
1, 113057, Note_on_c, 0, 70, 0
1, 113263, Note_on_c, 0, 86, 55
1, 113270, Note_on_c, 0, 70, 30
1, 113277, Note_on_c, 0, 62, 27
1, 113280, Note_on_c, 0, 65, 20
1, 113284, Note_on_c, 0, 74, 23
1, 113287, Note_on_c, 0, 77, 23
1, 113333, Note_on_c, 0, 62, 0
1, 113333, Note_on_c, 0, 65, 0
1, 113336, Note_on_c, 0, 70, 0
1, 113348, Note_on_c, 0, 74, 0
1, 113351, Note_on_c, 0, 77, 0
1, 113365, Note_on_c, 0, 86, 0
1, 113531, Note_on_c, 0, 82, 30
1, 113537, Note_on_c, 0, 77, 23
1, 113542, Note_on_c, 0, 58, 20
1, 113542, Note_on_c, 0, 74, 29
1, 113565, Note_on_c, 0, 65, 15
1, 113595, Note_on_c, 0, 77, 0
1, 113604, Note_on_c, 0, 74, 0
1, 113626, Note_on_c, 0, 82, 0
1, 113626, Note_on_c, 0, 65, 0
1, 113640, Note_on_c, 0, 58, 0
1, 113815, Note_on_c, 0, 77, 38
1, 113821, Note_on_c, 0, 74, 31
1, 113821, Note_on_c, 0, 70, 21
1, 113826, Note_on_c, 0, 62, 16
1, 113826, Note_on_c, 0, 65, 12
1, 113868, Note_on_c, 0, 77, 0
1, 113876, Note_on_c, 0, 70, 0
1, 113876, Note_on_c, 0, 74, 0
1, 113876, Note_on_c, 0, 62, 0
1, 113885, Note_on_c, 0, 65, 0
1, 114086, Note_on_c, 0, 34, 42
1, 114089, Note_on_c, 0, 46, 23
1, 114149, Note_on_c, 0, 34, 0
1, 114163, Note_on_c, 0, 46, 0
1, 114370, Note_on_c, 0, 62, 31
1, 114375, Note_on_c, 0, 58, 15
1, 114384, Note_on_c, 0, 46, 15
1, 114389, Note_on_c, 0, 53, 27
1, 114437, Note_on_c, 0, 62, 0
1, 114445, Note_on_c, 0, 58, 0
1, 114448, Note_on_c, 0, 53, 0
1, 114531, Note_on_c, 0, 46, 0
1, 114640, Note_on_c, 0, 58, 15
1, 114640, Note_on_c, 0, 65, 36
1, 114682, Note_on_c, 0, 65, 0
1, 114712, Note_on_c, 0, 58, 0
1, 114922, Note_on_c, 0, 70, 26
1, 114929, Note_on_c, 0, 82, 33
1, 114932, Note_on_c, 0, 74, 28
1, 114938, Note_on_c, 0, 65, 27
1, 114985, Note_on_c, 0, 74, 0
1, 115011, Note_on_c, 0, 70, 0
1, 115039, Note_on_c, 0, 65, 0
1, 115145, Note_on_c, 0, 82, 0
1, 115219, Note_on_c, 0, 70, 21
1, 115234, Note_on_c, 0, 77, 28
1, 115237, Note_on_c, 0, 62, 22
1, 115287, Note_on_c, 0, 70, 0
1, 115295, Note_on_c, 0, 77, 0
1, 115303, Note_on_c, 0, 62, 0
1, 115481, Note_on_c, 0, 58, 31
1, 115498, Note_on_c, 0, 70, 18
1, 115517, Note_on_c, 0, 74, 14
1, 115528, Note_on_c, 0, 58, 0
1, 115562, Note_on_c, 0, 70, 0
1, 115567, Note_on_c, 0, 74, 0
1, 115769, Note_on_c, 0, 34, 40
1, 115818, Note_on_c, 0, 34, 0
1, 116008, Note_on_c, 0, 58, 27
1, 116012, Note_on_c, 0, 53, 41
1, 116035, Note_on_c, 0, 50, 38
1, 116063, Note_on_c, 0, 53, 0
1, 116089, Note_on_c, 0, 58, 0
1, 116158, Note_on_c, 0, 50, 0
1, 116264, Note_on_c, 0, 58, 29
1, 116269, Note_on_c, 0, 62, 34
1, 116290, Note_on_c, 0, 53, 63
1, 116312, Note_on_c, 0, 62, 0
1, 116322, Note_on_c, 0, 58, 0
1, 116334, Note_on_c, 0, 53, 0
1, 116545, Note_on_c, 0, 70, 33
1, 116545, Note_on_c, 0, 77, 44
1, 116565, Note_on_c, 0, 65, 21
1, 116565, Note_on_c, 0, 62, 36
1, 116607, Note_on_c, 0, 70, 0
1, 116620, Note_on_c, 0, 65, 0
1, 116634, Note_on_c, 0, 62, 0
1, 116695, Note_on_c, 0, 77, 0
1, 116815, Note_on_c, 0, 58, 33
1, 116832, Note_on_c, 0, 74, 34
1, 116841, Note_on_c, 0, 65, 21
1, 116874, Note_on_c, 0, 74, 0
1, 116918, Note_on_c, 0, 65, 0
1, 116925, Note_on_c, 0, 58, 0
1, 117131, Note_on_c, 0, 53, 42
1, 117131, Note_on_c, 0, 70, 26
1, 117152, Note_on_c, 0, 62, 20
1, 117175, Note_on_c, 0, 53, 0
1, 117225, Note_on_c, 0, 62, 0
1, 117265, Note_on_c, 0, 70, 0
1, 117440, Note_on_c, 0, 34, 49
1, 117485, Note_on_c, 0, 34, 0
1, 117718, Note_on_c, 0, 46, 30
1, 117723, Note_on_c, 0, 53, 22
1, 117765, Note_on_c, 0, 53, 0
1, 117854, Note_on_c, 0, 46, 0
1, 118001, Note_on_c, 0, 58, 24
1, 118010, Note_on_c, 0, 50, 30
1, 118025, Note_on_c, 0, 53, 41
1, 118066, Note_on_c, 0, 58, 0
1, 118072, Note_on_c, 0, 53, 0
1, 118080, Note_on_c, 0, 50, 0
1, 118279, Note_on_c, 0, 74, 41
1, 118286, Note_on_c, 0, 62, 27
1, 118292, Note_on_c, 0, 65, 12
1, 118370, Note_on_c, 0, 74, 0
1, 118382, Note_on_c, 0, 62, 0
1, 118393, Note_on_c, 0, 65, 0
1, 118574, Note_on_c, 0, 70, 29
1, 118593, Note_on_c, 0, 62, 30
1, 118599, Note_on_c, 0, 65, 14
1, 118657, Note_on_c, 0, 70, 0
1, 118662, Note_on_c, 0, 62, 0
1, 118662, Note_on_c, 0, 65, 0
1, 118879, Note_on_c, 0, 65, 27
1, 118889, Note_on_c, 0, 62, 13
1, 118983, Note_on_c, 0, 62, 0
1, 119013, Note_on_c, 0, 65, 0
1, 119142, Note_on_c, 0, 34, 26
1, 119205, Note_on_c, 0, 34, 0
1, 119440, Note_on_c, 0, 46, 34
1, 119515, Note_on_c, 0, 46, 0
1, 119743, Note_on_c, 0, 58, 12
1, 119749, Note_on_c, 0, 50, 26
1, 119802, Note_on_c, 0, 50, 0
1, 119813, Note_on_c, 0, 58, 0
1, 120058, Note_on_c, 0, 53, 39
1, 120064, Note_on_c, 0, 62, 22
1, 120116, Note_on_c, 0, 53, 0
1, 120145, Note_on_c, 0, 62, 0
1, 120365, Note_on_c, 0, 58, 22
1, 120406, Note_on_c, 0, 50, 24
1, 120470, Note_on_c, 0, 50, 0
1, 120492, Note_on_c, 0, 58, 0
1, 120794, Note_on_c, 0, 53, 25
1, 120882, Note_on_c, 0, 53, 0
1, 121268, Note_on_c, 0, 58, 39
1, 121292, Note_on_c, 0, 46, 26
1, 121414, Control_c, 0, 64, 0
1, 121523, Control_c, 0, 64, 127
1, 121552, Note_on_c, 0, 82, 31
1, 121655, Note_on_c, 0, 82, 0
1, 121663, Note_on_c, 0, 46, 0
1, 121738, Note_on_c, 0, 50, 22
1, 121747, Note_on_c, 0, 89, 30
1, 121791, Note_on_c, 0, 89, 0
1, 121802, Note_on_c, 0, 50, 0
1, 121896, Note_on_c, 0, 98, 35
1, 122000, Note_on_c, 0, 98, 0
1, 122013, Note_on_c, 0, 94, 26
1, 122033, Note_on_c, 0, 53, 49
1, 122086, Note_on_c, 0, 94, 0
1, 122086, Note_on_c, 0, 58, 0
1, 122147, Note_on_c, 0, 53, 0
1, 122253, Note_on_c, 0, 58, 32
1, 122262, Note_on_c, 0, 77, 41
1, 122354, Note_on_c, 0, 77, 0
1, 122381, Note_on_c, 0, 86, 41
1, 122465, Note_on_c, 0, 86, 0
1, 122477, Note_on_c, 0, 82, 43
1, 122529, Note_on_c, 0, 53, 28
1, 122576, Note_on_c, 0, 82, 0
1, 122588, Note_on_c, 0, 53, 0
1, 122610, Note_on_c, 0, 74, 46
1, 122647, Note_on_c, 0, 74, 0
1, 122719, Note_on_c, 0, 70, 44
1, 122740, Note_on_c, 0, 50, 32
1, 122788, Note_on_c, 0, 50, 0
1, 122860, Note_on_c, 0, 62, 55
1, 122911, Note_on_c, 0, 62, 0
1, 122995, Note_on_c, 0, 70, 0
1, 123072, Note_on_c, 0, 43, 28
1, 123105, Control_c, 0, 64, 0
1, 123208, Note_on_c, 0, 43, 0
1, 123212, Control_c, 0, 64, 127
1, 123217, Note_on_c, 0, 82, 38
1, 123360, Note_on_c, 0, 82, 0
1, 123418, Note_on_c, 0, 88, 40
1, 123432, Note_on_c, 0, 50, 30
1, 123488, Note_on_c, 0, 50, 0
1, 123491, Note_on_c, 0, 88, 0
1, 123562, Note_on_c, 0, 98, 54
1, 123666, Note_on_c, 0, 98, 0
1, 123682, Note_on_c, 0, 94, 51
1, 123728, Note_on_c, 0, 52, 16
1, 123763, Note_on_c, 0, 94, 0
1, 123793, Note_on_c, 0, 52, 0
1, 123803, Note_on_c, 0, 86, 63
1, 123839, Note_on_c, 0, 86, 0
1, 123911, Note_on_c, 0, 58, 0
1, 123945, Note_on_c, 0, 76, 26
1, 123958, Note_on_c, 0, 57, 70
1, 124028, Note_on_c, 0, 76, 0
1, 124101, Note_on_c, 0, 86, 49
1, 124229, Note_on_c, 0, 86, 0
1, 124245, Note_on_c, 0, 52, 39
1, 124245, Note_on_c, 0, 82, 27
1, 124307, Note_on_c, 0, 57, 0
1, 124348, Note_on_c, 0, 82, 0
1, 124388, Note_on_c, 0, 74, 55
1, 124406, Note_on_c, 0, 58, 75
1, 124431, Note_on_c, 0, 52, 0
1, 124435, Note_on_c, 0, 74, 0
1, 124565, Note_on_c, 0, 70, 36
1, 124655, Note_on_c, 0, 58, 0
1, 124716, Note_on_c, 0, 62, 50
1, 124763, Note_on_c, 0, 62, 0
1, 124825, Note_on_c, 0, 41, 52
1, 124839, Note_on_c, 0, 70, 0
1, 124866, Note_on_c, 0, 41, 0
1, 125006, Note_on_c, 0, 62, 89
1, 125117, Control_c, 0, 64, 0
1, 125173, Note_on_c, 0, 82, 41
1, 125173, Control_c, 0, 64, 127
1, 125304, Note_on_c, 0, 82, 0
1, 125317, Note_on_c, 0, 50, 33
1, 125328, Note_on_c, 0, 89, 54
1, 125376, Note_on_c, 0, 89, 0
1, 125438, Note_on_c, 0, 50, 0
1, 125449, Note_on_c, 0, 98, 50
1, 125523, Note_on_c, 0, 98, 0
1, 125555, Note_on_c, 0, 94, 44
1, 125576, Note_on_c, 0, 53, 48
1, 125622, Note_on_c, 0, 94, 0
1, 125622, Note_on_c, 0, 53, 0
1, 125674, Note_on_c, 0, 86, 42
1, 125714, Note_on_c, 0, 86, 0
1, 125789, Note_on_c, 0, 77, 60
1, 125796, Note_on_c, 0, 58, 28
1, 125864, Note_on_c, 0, 58, 0
1, 125892, Note_on_c, 0, 77, 0
1, 125903, Note_on_c, 0, 86, 70
1, 126012, Note_on_c, 0, 86, 0
1, 126037, Note_on_c, 0, 82, 47
1, 126059, Note_on_c, 0, 53, 53
1, 126122, Note_on_c, 0, 53, 0
1, 126139, Note_on_c, 0, 82, 0
1, 126176, Note_on_c, 0, 74, 38
1, 126218, Note_on_c, 0, 74, 0
1, 126295, Note_on_c, 0, 70, 44
1, 126326, Note_on_c, 0, 50, 36
1, 126331, Note_on_c, 0, 62, 0
1, 126371, Note_on_c, 0, 50, 0
1, 126452, Note_on_c, 0, 62, 39
1, 126501, Note_on_c, 0, 62, 0
1, 126563, Note_on_c, 0, 70, 0
1, 126622, Note_on_c, 0, 41, 47
1, 126661, Note_on_c, 0, 41, 0
1, 126799, Note_on_c, 0, 81, 41
1, 126917, Note_on_c, 0, 81, 0
1, 126936, Note_on_c, 0, 87, 50
1, 126956, Note_on_c, 0, 51, 38
1, 127075, Note_on_c, 0, 96, 51
1, 127129, Note_on_c, 0, 87, 0
1, 127198, Note_on_c, 0, 96, 0
1, 127198, Note_on_c, 0, 93, 47
1, 127221, Note_on_c, 0, 53, 56
1, 127298, Note_on_c, 0, 93, 0
1, 127337, Note_on_c, 0, 84, 40
1, 127345, Note_on_c, 0, 53, 0
1, 127382, Note_on_c, 0, 84, 0
1, 127460, Note_on_c, 0, 75, 39
1, 127476, Note_on_c, 0, 60, 62
1, 127518, Note_on_c, 0, 57, 24
1, 127563, Control_c, 0, 64, 0
1, 127613, Note_on_c, 0, 84, 49
1, 127682, Control_c, 0, 64, 127
1, 127728, Note_on_c, 0, 84, 0
1, 127735, Note_on_c, 0, 51, 0
1, 127763, Note_on_c, 0, 53, 64
1, 127763, Note_on_c, 0, 81, 33
1, 127771, Note_on_c, 0, 75, 0
1, 127811, Note_on_c, 0, 57, 0
1, 127811, Note_on_c, 0, 53, 0
1, 127873, Note_on_c, 0, 81, 0
1, 127919, Note_on_c, 0, 72, 44
1, 127964, Note_on_c, 0, 72, 0
1, 128050, Note_on_c, 0, 69, 30
1, 128059, Note_on_c, 0, 60, 0
1, 128092, Note_on_c, 0, 51, 17
1, 128139, Note_on_c, 0, 51, 0
1, 128192, Note_on_c, 0, 63, 50
1, 128242, Note_on_c, 0, 63, 0
1, 128288, Note_on_c, 0, 69, 0
1, 128293, Note_on_c, 0, 43, 47
1, 128505, Note_on_c, 0, 58, 55
1, 128521, Control_c, 0, 64, 0
1, 128644, Note_on_c, 0, 43, 0
1, 128652, Control_c, 0, 64, 127
1, 128777, Note_on_c, 0, 79, 46
1, 128850, Note_on_c, 0, 79, 0
1, 128933, Note_on_c, 0, 86, 41
1, 128942, Note_on_c, 0, 50, 19
1, 129025, Note_on_c, 0, 58, 0
1, 129025, Note_on_c, 0, 86, 0
1, 129050, Note_on_c, 0, 94, 37
1, 129053, Note_on_c, 0, 50, 0
1, 129168, Note_on_c, 0, 94, 0
1, 129189, Note_on_c, 0, 91, 42
1, 129203, Note_on_c, 0, 55, 25
1, 129243, Note_on_c, 0, 91, 0
1, 129257, Note_on_c, 0, 55, 0
1, 129282, Note_on_c, 0, 82, 39
1, 129324, Note_on_c, 0, 82, 0
1, 129410, Note_on_c, 0, 74, 58
1, 129424, Note_on_c, 0, 58, 25
1, 129452, Note_on_c, 0, 74, 0
1, 129511, Note_on_c, 0, 82, 43
1, 129521, Note_on_c, 0, 58, 0
1, 129633, Note_on_c, 0, 82, 0
1, 129652, Note_on_c, 0, 79, 44
1, 129669, Note_on_c, 0, 55, 38
1, 129714, Note_on_c, 0, 79, 0
1, 129724, Note_on_c, 0, 55, 0
1, 129747, Note_on_c, 0, 70, 38
1, 129792, Note_on_c, 0, 70, 0
1, 129933, Note_on_c, 0, 50, 27
1, 129987, Note_on_c, 0, 50, 0
1, 130062, Note_on_c, 0, 58, 29
1, 130117, Note_on_c, 0, 58, 0
1, 130232, Note_on_c, 0, 31, 49
1, 130271, Note_on_c, 0, 31, 0
1, 130493, Note_on_c, 0, 74, 48
1, 130540, Note_on_c, 0, 46, 25
1, 130603, Note_on_c, 0, 46, 0
1, 130611, Note_on_c, 0, 82, 42
1, 130622, Note_on_c, 0, 74, 0
1, 130728, Note_on_c, 0, 82, 0
1, 130742, Note_on_c, 0, 50, 36
1, 130745, Note_on_c, 0, 79, 43
1, 130795, Note_on_c, 0, 50, 0
1, 130800, Note_on_c, 0, 79, 0
1, 130850, Note_on_c, 0, 70, 35
1, 130900, Note_on_c, 0, 70, 0
1, 130998, Note_on_c, 0, 62, 38
1, 131017, Note_on_c, 0, 55, 35
1, 131081, Note_on_c, 0, 55, 0
1, 131086, Note_on_c, 0, 62, 0
1, 131115, Note_on_c, 0, 70, 33
1, 131243, Note_on_c, 0, 70, 0
1, 131263, Note_on_c, 0, 67, 40
1, 131288, Note_on_c, 0, 50, 26
1, 131323, Note_on_c, 0, 67, 0
1, 131351, Note_on_c, 0, 50, 0
1, 131376, Note_on_c, 0, 58, 37
1, 131451, Note_on_c, 0, 58, 0
1, 131558, Note_on_c, 0, 55, 45
1, 131558, Note_on_c, 0, 46, 27
1, 131608, Note_on_c, 0, 55, 0
1, 131608, Note_on_c, 0, 46, 0
1, 131731, Note_on_c, 0, 62, 45
1, 131792, Note_on_c, 0, 62, 0
1, 131841, Control_c, 0, 64, 0
1, 131861, Note_on_c, 0, 39, 57
1, 131972, Control_c, 0, 64, 127
1, 132006, Note_on_c, 0, 39, 0
1, 132110, Note_on_c, 0, 60, 84
1, 132295, Note_on_c, 0, 79, 61
1, 132363, Note_on_c, 0, 79, 0
1, 132443, Note_on_c, 0, 87, 43
1, 132475, Note_on_c, 0, 48, 21
1, 132533, Note_on_c, 0, 48, 0
1, 132585, Note_on_c, 0, 96, 56
1, 132600, Note_on_c, 0, 87, 0
1, 132703, Note_on_c, 0, 96, 0
1, 132708, Note_on_c, 0, 91, 60
1, 132714, Note_on_c, 0, 51, 34
1, 132773, Note_on_c, 0, 51, 0
1, 132808, Note_on_c, 0, 91, 0
1, 132808, Note_on_c, 0, 84, 79
1, 132837, Note_on_c, 0, 84, 0
1, 132929, Note_on_c, 0, 75, 53
1, 132950, Note_on_c, 0, 55, 40
1, 133007, Note_on_c, 0, 55, 0
1, 133059, Note_on_c, 0, 84, 54
1, 133059, Note_on_c, 0, 75, 0
1, 133185, Note_on_c, 0, 84, 0
1, 133190, Note_on_c, 0, 79, 51
1, 133207, Note_on_c, 0, 51, 34
1, 133277, Note_on_c, 0, 79, 0
1, 133307, Note_on_c, 0, 51, 0
1, 133321, Note_on_c, 0, 72, 37
1, 133374, Note_on_c, 0, 72, 0
1, 133461, Note_on_c, 0, 63, 44
1, 133518, Note_on_c, 0, 48, 19
1, 133549, Note_on_c, 0, 60, 0
1, 133574, Note_on_c, 0, 48, 0
1, 133605, Note_on_c, 0, 67, 54
1, 133627, Note_on_c, 0, 63, 0
1, 133699, Note_on_c, 0, 67, 0
1, 133699, Note_on_c, 0, 62, 70
1, 133789, Note_on_c, 0, 41, 45
1, 133806, Control_c, 0, 64, 0
1, 133831, Note_on_c, 0, 62, 0
1, 133831, Note_on_c, 0, 60, 81
1, 133919, Note_on_c, 0, 41, 0
1, 133939, Control_c, 0, 64, 127
1, 133954, Note_on_c, 0, 60, 0
1, 134040, Note_on_c, 0, 58, 59
1, 134216, Note_on_c, 0, 77, 29
1, 134266, Note_on_c, 0, 77, 0
1, 134319, Note_on_c, 0, 48, 41
1, 134333, Note_on_c, 0, 87, 50
1, 134377, Note_on_c, 0, 48, 0
1, 134444, Note_on_c, 0, 58, 0
1, 134466, Note_on_c, 0, 96, 73
1, 134466, Note_on_c, 0, 87, 0
1, 134491, Note_on_c, 0, 57, 74
1, 134549, Note_on_c, 0, 96, 0
1, 134633, Note_on_c, 0, 89, 43
1, 134644, Note_on_c, 0, 51, 46
1, 134686, Note_on_c, 0, 89, 0
1, 134695, Note_on_c, 0, 51, 0
1, 134742, Note_on_c, 0, 81, 51
1, 134786, Note_on_c, 0, 81, 0
1, 134825, Note_on_c, 0, 57, 0
1, 134855, Note_on_c, 0, 75, 53
1, 134864, Note_on_c, 0, 55, 66
1, 135007, Note_on_c, 0, 84, 61
1, 135093, Note_on_c, 0, 84, 0
1, 135159, Note_on_c, 0, 51, 43
1, 135184, Note_on_c, 0, 77, 15
1, 135221, Note_on_c, 0, 51, 0
1, 135248, Note_on_c, 0, 77, 0
1, 135263, Note_on_c, 0, 55, 0
1, 135273, Note_on_c, 0, 75, 0
1, 135294, Note_on_c, 0, 69, 41
1, 135318, Note_on_c, 0, 57, 51
1, 135436, Note_on_c, 0, 69, 0
1, 135464, Note_on_c, 0, 63, 41
1, 135472, Control_c, 0, 64, 0
1, 135533, Note_on_c, 0, 48, 48
1, 135557, Control_c, 0, 64, 127
1, 135578, Note_on_c, 0, 48, 0
1, 135631, Note_on_c, 0, 63, 0
1, 135642, Note_on_c, 0, 65, 43
1, 135681, Note_on_c, 0, 65, 0
1, 135686, Note_on_c, 0, 57, 0
1, 135850, Note_on_c, 0, 58, 50
1, 135875, Note_on_c, 0, 46, 29
1, 135951, Control_c, 0, 64, 0
1, 136025, Note_on_c, 0, 77, 45
1, 136078, Note_on_c, 0, 77, 0
1, 136107, Control_c, 0, 64, 127
1, 136115, Note_on_c, 0, 46, 0
1, 136162, Note_on_c, 0, 86, 39
1, 136170, Note_on_c, 0, 50, 28
1, 136246, Note_on_c, 0, 50, 0
1, 136287, Note_on_c, 0, 94, 33
1, 136379, Note_on_c, 0, 86, 0
1, 136402, Note_on_c, 0, 94, 0
1, 136421, Note_on_c, 0, 53, 55
1, 136436, Note_on_c, 0, 89, 36
1, 136482, Note_on_c, 0, 53, 0
1, 136489, Note_on_c, 0, 89, 0
1, 136503, Note_on_c, 0, 58, 0
1, 136519, Note_on_c, 0, 82, 37
1, 136558, Note_on_c, 0, 82, 0
1, 136653, Note_on_c, 0, 74, 52
1, 136663, Note_on_c, 0, 58, 30
1, 136702, Note_on_c, 0, 74, 0
1, 136764, Note_on_c, 0, 82, 42
1, 136892, Note_on_c, 0, 82, 0
1, 136906, Note_on_c, 0, 77, 42
1, 136911, Note_on_c, 0, 53, 53
1, 136951, Note_on_c, 0, 77, 0
1, 136961, Note_on_c, 0, 53, 0
1, 136981, Note_on_c, 0, 58, 0
1, 137004, Note_on_c, 0, 70, 41
1, 137046, Note_on_c, 0, 70, 0
1, 137159, Note_on_c, 0, 50, 35
1, 137198, Note_on_c, 0, 65, 32
1, 137204, Note_on_c, 0, 50, 0
1, 137241, Note_on_c, 0, 65, 0
1, 137453, Note_on_c, 0, 34, 43
1, 137516, Note_on_c, 0, 34, 0
1, 137614, Note_on_c, 0, 65, 53
1, 137670, Note_on_c, 0, 65, 0
1, 137789, Note_on_c, 0, 74, 46
1, 137794, Note_on_c, 0, 46, 27
1, 137837, Note_on_c, 0, 74, 0
1, 137879, Note_on_c, 0, 82, 46
1, 138015, Note_on_c, 0, 82, 0
1, 138024, Note_on_c, 0, 77, 41
1, 138040, Note_on_c, 0, 53, 45
1, 138074, Note_on_c, 0, 77, 0
1, 138101, Note_on_c, 0, 53, 0
1, 138120, Note_on_c, 0, 70, 46
1, 138160, Note_on_c, 0, 70, 0
1, 138262, Note_on_c, 0, 62, 92
1, 138266, Note_on_c, 0, 46, 0
1, 138282, Note_on_c, 0, 58, 37
1, 138366, Note_on_c, 0, 58, 0
1, 138427, Note_on_c, 0, 70, 36
1, 138570, Note_on_c, 0, 70, 0
1, 138578, Note_on_c, 0, 65, 35
1, 138597, Note_on_c, 0, 50, 20
1, 138623, Note_on_c, 0, 62, 0
1, 138661, Note_on_c, 0, 50, 0
1, 138692, Note_on_c, 0, 58, 34
1, 138767, Note_on_c, 0, 65, 0
1, 138784, Note_on_c, 0, 58, 0
1, 138837, Note_on_c, 0, 53, 70
1, 138925, Note_on_c, 0, 53, 0
1, 138982, Note_on_c, 0, 62, 35
1, 139026, Note_on_c, 0, 62, 0
1, 139098, Note_on_c, 0, 46, 43
1, 139198, Note_on_c, 0, 46, 0
1, 139260, Note_on_c, 0, 62, 97
1, 139444, Note_on_c, 0, 82, 45
1, 139619, Note_on_c, 0, 50, 51
1, 139627, Note_on_c, 0, 82, 0
1, 139627, Note_on_c, 0, 90, 43
1, 139759, Note_on_c, 0, 98, 67
1, 139786, Note_on_c, 0, 90, 0
1, 139881, Note_on_c, 0, 54, 46
1, 139887, Note_on_c, 0, 98, 0
1, 139887, Note_on_c, 0, 94, 45
1, 139992, Note_on_c, 0, 94, 0
1, 140001, Note_on_c, 0, 86, 60
1, 140037, Note_on_c, 0, 86, 0
1, 140112, Note_on_c, 0, 78, 62
1, 140126, Note_on_c, 0, 54, 0
1, 140126, Note_on_c, 0, 58, 33
1, 140238, Note_on_c, 0, 86, 57
1, 140273, Note_on_c, 0, 78, 0
1, 140355, Note_on_c, 0, 86, 0
1, 140355, Note_on_c, 0, 50, 0
1, 140360, Note_on_c, 0, 82, 42
1, 140363, Note_on_c, 0, 54, 48
1, 140438, Note_on_c, 0, 82, 0
1, 140438, Note_on_c, 0, 62, 0
1, 140444, Note_on_c, 0, 58, 0
1, 140478, Note_on_c, 0, 74, 59
1, 140514, Note_on_c, 0, 74, 0
1, 140556, Note_on_c, 0, 54, 0
1, 140580, Note_on_c, 0, 60, 79
1, 140605, Note_on_c, 0, 70, 55
1, 140623, Note_on_c, 0, 50, 46
1, 140672, Note_on_c, 0, 50, 0
1, 140728, Note_on_c, 0, 60, 0
1, 140764, Note_on_c, 0, 58, 79
1, 140778, Note_on_c, 0, 62, 66
1, 140811, Note_on_c, 0, 62, 0
1, 140846, Note_on_c, 0, 58, 0
1, 140867, Note_on_c, 0, 70, 0
1, 140912, Note_on_c, 0, 46, 72
1, 141009, Note_on_c, 0, 57, 89
1, 141116, Control_c, 0, 64, 0
1, 141176, Note_on_c, 0, 82, 55
1, 141215, Note_on_c, 0, 46, 0
1, 141226, Control_c, 0, 64, 127
1, 141282, Note_on_c, 0, 82, 0
1, 141332, Note_on_c, 0, 50, 54
1, 141339, Note_on_c, 0, 91, 64
1, 141455, Note_on_c, 0, 98, 75
1, 141481, Note_on_c, 0, 57, 0
1, 141534, Note_on_c, 0, 91, 0
1, 141537, Note_on_c, 0, 55, 83
1, 141589, Note_on_c, 0, 94, 48
1, 141598, Note_on_c, 0, 98, 0
1, 141694, Note_on_c, 0, 94, 0
1, 141708, Note_on_c, 0, 86, 49
1, 141748, Note_on_c, 0, 86, 0
1, 141781, Note_on_c, 0, 55, 0
1, 141839, Note_on_c, 0, 79, 60
1, 141875, Note_on_c, 0, 62, 98
1, 141899, Note_on_c, 0, 58, 39
1, 141956, Control_c, 0, 64, 0
1, 142010, Note_on_c, 0, 86, 46
1, 142076, Note_on_c, 0, 50, 0
1, 142076, Control_c, 0, 64, 127
1, 142143, Note_on_c, 0, 55, 39
1, 142143, Note_on_c, 0, 82, 40
1, 142162, Note_on_c, 0, 86, 0
1, 142190, Note_on_c, 0, 79, 0
1, 142211, Note_on_c, 0, 55, 0
1, 142247, Note_on_c, 0, 82, 0
1, 142282, Note_on_c, 0, 58, 0
1, 142282, Note_on_c, 0, 74, 49
1, 142322, Note_on_c, 0, 74, 0
1, 142416, Note_on_c, 0, 70, 40
1, 142419, Note_on_c, 0, 62, 0
1, 142427, Note_on_c, 0, 50, 43
1, 142470, Note_on_c, 0, 50, 0
1, 142577, Note_on_c, 0, 64, 97
1, 142617, Note_on_c, 0, 64, 0
1, 142792, Note_on_c, 0, 45, 41
1, 142792, Note_on_c, 0, 70, 0
1, 142840, Note_on_c, 0, 45, 0
1, 142921, Note_on_c, 0, 62, 95
1, 143098, Note_on_c, 0, 82, 33
1, 143257, Note_on_c, 0, 52, 47
1, 143261, Note_on_c, 0, 91, 57
1, 143271, Note_on_c, 0, 82, 0
1, 143388, Note_on_c, 0, 98, 66
1, 143420, Note_on_c, 0, 91, 0
1, 143516, Note_on_c, 0, 98, 0
1, 143527, Note_on_c, 0, 55, 35
1, 143527, Note_on_c, 0, 94, 33
1, 143587, Note_on_c, 0, 55, 0
1, 143592, Note_on_c, 0, 94, 0
1, 143625, Note_on_c, 0, 52, 0
1, 143625, Note_on_c, 0, 86, 47
1, 143667, Note_on_c, 0, 86, 0
1, 143754, Note_on_c, 0, 58, 38
1, 143757, Note_on_c, 0, 79, 51
1, 143815, Note_on_c, 0, 58, 0
1, 143881, Note_on_c, 0, 79, 0
1, 143888, Note_on_c, 0, 86, 48
1, 144015, Note_on_c, 0, 86, 0
1, 144015, Note_on_c, 0, 55, 36
1, 144021, Note_on_c, 0, 82, 34
1, 144071, Note_on_c, 0, 55, 0
1, 144093, Note_on_c, 0, 82, 0
1, 144166, Note_on_c, 0, 74, 11
1, 144205, Note_on_c, 0, 74, 0
1, 144277, Note_on_c, 0, 70, 27
1, 144277, Note_on_c, 0, 52, 36
1, 144325, Note_on_c, 0, 52, 0
1, 144339, Note_on_c, 0, 62, 0
1, 144385, Note_on_c, 0, 70, 0
1, 144441, Note_on_c, 0, 62, 26
1, 144520, Control_c, 0, 64, 0
1, 144526, Note_on_c, 0, 45, 41
1, 144598, Note_on_c, 0, 45, 0
1, 144601, Note_on_c, 0, 62, 0
1, 144617, Control_c, 0, 64, 127
1, 144714, Note_on_c, 0, 61, 54
1, 144921, Note_on_c, 0, 81, 39
1, 144988, Control_c, 0, 64, 0
1, 145060, Note_on_c, 0, 49, 27
1, 145060, Note_on_c, 0, 81, 0
1, 145060, Control_c, 0, 64, 127
1, 145065, Note_on_c, 0, 88, 43
1, 145194, Note_on_c, 0, 97, 54
1, 145205, Note_on_c, 0, 88, 0
1, 145235, Note_on_c, 0, 49, 0
1, 145261, Note_on_c, 0, 97, 0
1, 145328, Note_on_c, 0, 93, 42
1, 145345, Note_on_c, 0, 52, 25
1, 145395, Note_on_c, 0, 52, 0
1, 145405, Note_on_c, 0, 93, 0
1, 145428, Note_on_c, 0, 85, 55
1, 145464, Note_on_c, 0, 85, 0
1, 145583, Note_on_c, 0, 57, 74
1, 145589, Note_on_c, 0, 76, 47
1, 145626, Note_on_c, 0, 61, 0
1, 145726, Note_on_c, 0, 85, 44
1, 145812, Note_on_c, 0, 85, 0
1, 145862, Note_on_c, 0, 81, 33
1, 145876, Note_on_c, 0, 52, 34
1, 145932, Note_on_c, 0, 81, 0
1, 145935, Note_on_c, 0, 76, 0
1, 145971, Note_on_c, 0, 52, 0
1, 145982, Note_on_c, 0, 73, 41
1, 146023, Note_on_c, 0, 73, 0
1, 146140, Note_on_c, 0, 49, 33
1, 146168, Note_on_c, 0, 57, 0
1, 146171, Note_on_c, 0, 69, 18
1, 146200, Note_on_c, 0, 49, 0
1, 146324, Note_on_c, 0, 61, 53
1, 146402, Control_c, 0, 64, 0
1, 146409, Note_on_c, 0, 42, 53
1, 146412, Note_on_c, 0, 69, 0
1, 146431, Note_on_c, 0, 61, 0
1, 146476, Note_on_c, 0, 42, 0
1, 146486, Control_c, 0, 64, 127
1, 146653, Note_on_c, 0, 60, 85
1, 146851, Note_on_c, 0, 81, 49
1, 146935, Note_on_c, 0, 81, 0
1, 146988, Note_on_c, 0, 48, 22
1, 146996, Note_on_c, 0, 87, 39
1, 147116, Note_on_c, 0, 96, 50
1, 147149, Note_on_c, 0, 48, 0
1, 147149, Note_on_c, 0, 87, 0
1, 147208, Note_on_c, 0, 96, 0
1, 147236, Note_on_c, 0, 93, 40
1, 147239, Note_on_c, 0, 51, 32
1, 147295, Note_on_c, 0, 51, 0
1, 147324, Note_on_c, 0, 93, 0
1, 147358, Note_on_c, 0, 84, 57
1, 147394, Note_on_c, 0, 84, 0
1, 147492, Note_on_c, 0, 57, 31
1, 147497, Note_on_c, 0, 75, 37
1, 147572, Note_on_c, 0, 57, 0
1, 147615, Note_on_c, 0, 75, 0
1, 147634, Note_on_c, 0, 84, 51
1, 147759, Note_on_c, 0, 84, 0
1, 147774, Note_on_c, 0, 51, 34
1, 147785, Note_on_c, 0, 81, 36
1, 147870, Note_on_c, 0, 81, 0
1, 147916, Note_on_c, 0, 51, 0
1, 147924, Note_on_c, 0, 60, 0
1, 147934, Note_on_c, 0, 72, 36
1, 147980, Note_on_c, 0, 72, 0
1, 148077, Note_on_c, 0, 69, 29
1, 148077, Note_on_c, 0, 48, 28
1, 148130, Note_on_c, 0, 48, 0
1, 148249, Note_on_c, 0, 58, 59
1, 148255, Note_on_c, 0, 63, 57
1, 148274, Note_on_c, 0, 69, 0
1, 148289, Note_on_c, 0, 63, 0
1, 148303, Note_on_c, 0, 58, 0
1, 148414, Note_on_c, 0, 42, 39
1, 148464, Note_on_c, 0, 42, 0
1, 148615, Note_on_c, 0, 57, 71
1, 148818, Note_on_c, 0, 81, 58
1, 148859, Note_on_c, 0, 81, 0
1, 148974, Note_on_c, 0, 96, 80
1, 148979, Note_on_c, 0, 60, 77
1, 148997, Note_on_c, 0, 51, 40
1, 149077, Note_on_c, 0, 57, 0
1, 149133, Note_on_c, 0, 84, 73
1, 149152, Note_on_c, 0, 96, 0
1, 149171, Note_on_c, 0, 84, 0
1, 149194, Note_on_c, 0, 60, 0
1, 149261, Note_on_c, 0, 62, 81
1, 149266, Note_on_c, 0, 98, 85
1, 149274, Note_on_c, 0, 54, 48
1, 149283, Note_on_c, 0, 57, 42
1, 149303, Control_c, 0, 64, 0
1, 149375, Control_c, 0, 64, 127
1, 149409, Note_on_c, 0, 86, 64
1, 149426, Note_on_c, 0, 51, 0
1, 149426, Note_on_c, 0, 54, 0
1, 149431, Note_on_c, 0, 57, 0
1, 149434, Note_on_c, 0, 98, 0
1, 149437, Note_on_c, 0, 62, 0
1, 149469, Note_on_c, 0, 86, 0
1, 149590, Note_on_c, 0, 99, 54
1, 149603, Note_on_c, 0, 63, 52
1, 149626, Control_c, 0, 64, 0
1, 149626, Note_on_c, 0, 57, 35
1, 149635, Note_on_c, 0, 54, 29
1, 149757, Control_c, 0, 64, 127
1, 149795, Note_on_c, 0, 57, 0
1, 149806, Note_on_c, 0, 54, 0
1, 149818, Note_on_c, 0, 87, 35
1, 149832, Note_on_c, 0, 99, 0
1, 149849, Note_on_c, 0, 63, 0
1, 149907, Note_on_c, 0, 87, 0
1, 149999, Note_on_c, 0, 60, 59
1, 149999, Note_on_c, 0, 96, 48
1, 150027, Note_on_c, 0, 51, 37
1, 150027, Note_on_c, 0, 54, 25
1, 150114, Note_on_c, 0, 96, 0
1, 150117, Note_on_c, 0, 51, 0
1, 150171, Note_on_c, 0, 60, 0
1, 150182, Note_on_c, 0, 84, 43
1, 150267, Note_on_c, 0, 84, 0
1, 150305, Note_on_c, 0, 54, 0
1, 150314, Note_on_c, 0, 57, 46
1, 150327, Note_on_c, 0, 93, 40
1, 150339, Note_on_c, 0, 48, 25
1, 150342, Note_on_c, 0, 51, 24
1, 150400, Note_on_c, 0, 48, 0
1, 150406, Note_on_c, 0, 51, 0
1, 150462, Note_on_c, 0, 57, 0
1, 150500, Note_on_c, 0, 81, 38
1, 150506, Note_on_c, 0, 93, 0
1, 150586, Note_on_c, 0, 81, 0
1, 150586, Note_on_c, 0, 43, 22
1, 150777, Note_on_c, 0, 58, 44
1, 150788, Control_c, 0, 64, 0
1, 150957, Control_c, 0, 64, 127
1, 150969, Note_on_c, 0, 82, 38
1, 151011, Note_on_c, 0, 43, 0
1, 151094, Note_on_c, 0, 46, 28
1, 151125, Note_on_c, 0, 86, 37
1, 151130, Note_on_c, 0, 82, 0
1, 151213, Note_on_c, 0, 58, 0
1, 151213, Note_on_c, 0, 86, 0
1, 151245, Note_on_c, 0, 94, 37
1, 151261, Note_on_c, 0, 46, 0
1, 151364, Note_on_c, 0, 94, 0
1, 151364, Note_on_c, 0, 50, 34
1, 151383, Note_on_c, 0, 91, 35
1, 151420, Note_on_c, 0, 50, 0
1, 151437, Note_on_c, 0, 91, 0
1, 151473, Note_on_c, 0, 82, 37
1, 151517, Note_on_c, 0, 82, 0
1, 151604, Note_on_c, 0, 74, 39
1, 151612, Note_on_c, 0, 55, 39
1, 151648, Note_on_c, 0, 74, 0
1, 151682, Note_on_c, 0, 55, 0
1, 151712, Note_on_c, 0, 82, 36
1, 151790, Note_on_c, 0, 82, 0
1, 151844, Note_on_c, 0, 79, 39
1, 151844, Note_on_c, 0, 50, 35
1, 151899, Note_on_c, 0, 79, 0
1, 151915, Note_on_c, 0, 50, 0
1, 151946, Note_on_c, 0, 70, 30
1, 151999, Note_on_c, 0, 70, 0
1, 152091, Note_on_c, 0, 46, 25
1, 152099, Note_on_c, 0, 67, 48
1, 152146, Note_on_c, 0, 46, 0
1, 152171, Note_on_c, 0, 67, 0
1, 152269, Note_on_c, 0, 58, 49
1, 152314, Note_on_c, 0, 58, 0
1, 152426, Note_on_c, 0, 31, 76
1, 152458, Note_on_c, 0, 31, 0
1, 152582, Note_on_c, 0, 82, 60
1, 152681, Note_on_c, 0, 82, 0
1, 152727, Note_on_c, 0, 88, 63
1, 152770, Note_on_c, 0, 50, 46
1, 152816, Note_on_c, 0, 88, 0
1, 152849, Note_on_c, 0, 98, 76
1, 152960, Note_on_c, 0, 98, 0
1, 152971, Note_on_c, 0, 94, 46
1, 152986, Note_on_c, 0, 52, 65
1, 153078, Note_on_c, 0, 94, 0
1, 153088, Note_on_c, 0, 86, 57
1, 153125, Note_on_c, 0, 86, 0
1, 153152, Note_on_c, 0, 52, 0
1, 153194, Note_on_c, 0, 50, 0
1, 153236, Note_on_c, 0, 76, 55
1, 153272, Note_on_c, 0, 62, 99
1, 153305, Note_on_c, 0, 58, 45
1, 153326, Note_on_c, 0, 76, 0
1, 153373, Note_on_c, 0, 58, 0
1, 153389, Note_on_c, 0, 86, 48
1, 153515, Note_on_c, 0, 86, 0
1, 153515, Note_on_c, 0, 82, 42
1, 153542, Note_on_c, 0, 52, 59
1, 153589, Note_on_c, 0, 82, 0
1, 153612, Note_on_c, 0, 62, 0
1, 153656, Note_on_c, 0, 74, 45
1, 153663, Note_on_c, 0, 52, 0
1, 153695, Note_on_c, 0, 74, 0
1, 153851, Note_on_c, 0, 70, 45
1, 153851, Note_on_c, 0, 50, 50
1, 153899, Note_on_c, 0, 50, 0
1, 153963, Note_on_c, 0, 70, 0
1, 154067, Note_on_c, 0, 60, 94
1, 154120, Control_c, 0, 64, 0
1, 154130, Note_on_c, 0, 64, 15
1, 154183, Note_on_c, 0, 64, 0
1, 154202, Note_on_c, 0, 45, 54
1, 154264, Control_c, 0, 64, 127
1, 154264, Note_on_c, 0, 60, 0
1, 154336, Note_on_c, 0, 45, 0
1, 154434, Note_on_c, 0, 60, 91
1, 154620, Note_on_c, 0, 81, 38
1, 154668, Note_on_c, 0, 81, 0
1, 154755, Note_on_c, 0, 89, 52
1, 154766, Note_on_c, 0, 48, 32
1, 154835, Note_on_c, 0, 48, 0
1, 154883, Note_on_c, 0, 89, 0
1, 154883, Note_on_c, 0, 96, 53
1, 154971, Note_on_c, 0, 96, 0
1, 155005, Note_on_c, 0, 93, 44
1, 155011, Note_on_c, 0, 53, 51
1, 155075, Note_on_c, 0, 93, 0
1, 155081, Note_on_c, 0, 53, 0
1, 155130, Note_on_c, 0, 84, 62
1, 155166, Note_on_c, 0, 84, 0
1, 155267, Note_on_c, 0, 77, 45
1, 155270, Note_on_c, 0, 57, 36
1, 155323, Note_on_c, 0, 57, 0
1, 155386, Note_on_c, 0, 77, 0
1, 155386, Note_on_c, 0, 84, 62
1, 155521, Note_on_c, 0, 84, 0
1, 155528, Note_on_c, 0, 81, 43
1, 155532, Note_on_c, 0, 53, 48
1, 155593, Note_on_c, 0, 81, 0
1, 155599, Note_on_c, 0, 53, 0
1, 155612, Note_on_c, 0, 60, 0
1, 155668, Note_on_c, 0, 72, 31
1, 155724, Note_on_c, 0, 72, 0
1, 155791, Note_on_c, 0, 57, 68
1, 155799, Note_on_c, 0, 69, 42
1, 155805, Note_on_c, 0, 48, 32
1, 155854, Note_on_c, 0, 48, 0
1, 155879, Note_on_c, 0, 57, 0
1, 155983, Note_on_c, 0, 60, 42
1, 156080, Note_on_c, 0, 38, 65
1, 156086, Control_c, 0, 64, 0
1, 156156, Note_on_c, 0, 38, 0
1, 156169, Note_on_c, 0, 60, 0
1, 156169, Control_c, 0, 64, 127
1, 156217, Note_on_c, 0, 69, 0
1, 156294, Note_on_c, 0, 55, 87
1, 156498, Note_on_c, 0, 55, 0
1, 156498, Note_on_c, 0, 65, 49
1, 156640, Note_on_c, 0, 65, 0
1, 156688, Note_on_c, 0, 59, 83
1, 156693, Note_on_c, 0, 67, 58
1, 156707, Note_on_c, 0, 55, 61
1, 156707, Control_c, 0, 64, 0
1, 156712, Note_on_c, 0, 50, 54
1, 156754, Note_on_c, 0, 55, 0
1, 156780, Control_c, 0, 64, 127
1, 156811, Note_on_c, 0, 67, 0
1, 156819, Note_on_c, 0, 50, 0
1, 156841, Note_on_c, 0, 59, 0
1, 156858, Note_on_c, 0, 71, 66
1, 156971, Note_on_c, 0, 71, 0
1, 156986, Note_on_c, 0, 62, 84
1, 156989, Note_on_c, 0, 77, 79
1, 157003, Note_on_c, 0, 55, 55
1, 157017, Note_on_c, 0, 77, 0
1, 157025, Note_on_c, 0, 53, 32
1, 157041, Note_on_c, 0, 55, 0
1, 157070, Note_on_c, 0, 53, 0
1, 157131, Note_on_c, 0, 62, 0
1, 157131, Note_on_c, 0, 77, 68
1, 157230, Note_on_c, 0, 77, 0
1, 157284, Note_on_c, 0, 79, 69
1, 157295, Note_on_c, 0, 65, 77
1, 157315, Note_on_c, 0, 59, 49
1, 157322, Note_on_c, 0, 55, 32
1, 157404, Note_on_c, 0, 79, 0
1, 157456, Note_on_c, 0, 55, 0
1, 157464, Note_on_c, 0, 65, 0
1, 157498, Note_on_c, 0, 83, 85
1, 157590, Note_on_c, 0, 59, 0
1, 157621, Note_on_c, 0, 83, 0
1, 157637, Note_on_c, 0, 62, 82
1, 157637, Note_on_c, 0, 89, 71
1, 157646, Note_on_c, 0, 55, 54
1, 157660, Note_on_c, 0, 53, 51
1, 157670, Note_on_c, 0, 89, 0
1, 157688, Note_on_c, 0, 55, 0
1, 157701, Note_on_c, 0, 53, 0
1, 157716, Note_on_c, 0, 62, 0
1, 157788, Note_on_c, 0, 89, 75
1, 157924, Note_on_c, 0, 89, 0
1, 157964, Note_on_c, 0, 101, 48
1, 157971, Note_on_c, 0, 59, 74
1, 157989, Note_on_c, 0, 55, 54
1, 158003, Note_on_c, 0, 50, 37
1, 158003, Note_on_c, 0, 101, 0
1, 158030, Note_on_c, 0, 55, 0
1, 158045, Note_on_c, 0, 59, 0
1, 158050, Note_on_c, 0, 50, 0
1, 158181, Note_on_c, 0, 91, 57
1, 158189, Note_on_c, 0, 89, 39
1, 158234, Note_on_c, 0, 89, 0
1, 158244, Note_on_c, 0, 91, 0
1, 158253, Note_on_c, 0, 36, 48
1, 158295, Note_on_c, 0, 36, 0
1, 158354, Note_on_c, 0, 101, 51
1, 158439, Note_on_c, 0, 60, 79
1, 158474, Note_on_c, 0, 101, 0
1, 158582, Note_on_c, 0, 93, 48
1, 158601, Note_on_c, 0, 89, 35
1, 158626, Control_c, 0, 64, 0
1, 158733, Control_c, 0, 64, 127
1, 158743, Note_on_c, 0, 101, 60
1, 158755, Note_on_c, 0, 48, 42
1, 158761, Note_on_c, 0, 89, 0
1, 158766, Note_on_c, 0, 93, 0
1, 158886, Note_on_c, 0, 94, 58
1, 158896, Note_on_c, 0, 91, 54
1, 158910, Note_on_c, 0, 101, 0
1, 158947, Note_on_c, 0, 48, 0
1, 159002, Note_on_c, 0, 91, 0
1, 159028, Note_on_c, 0, 94, 0
1, 159028, Note_on_c, 0, 101, 63
1, 159042, Note_on_c, 0, 53, 66
1, 159112, Note_on_c, 0, 53, 0
1, 159134, Note_on_c, 0, 101, 0
1, 159148, Note_on_c, 0, 92, 67
1, 159162, Note_on_c, 0, 95, 59
1, 159256, Note_on_c, 0, 92, 0
1, 159283, Note_on_c, 0, 101, 71
1, 159300, Note_on_c, 0, 57, 50
1, 159339, Note_on_c, 0, 95, 0
1, 159407, Note_on_c, 0, 57, 0
1, 159421, Note_on_c, 0, 93, 53
1, 159425, Note_on_c, 0, 96, 77
1, 159435, Note_on_c, 0, 101, 0
1, 159566, Note_on_c, 0, 101, 57
1, 159571, Note_on_c, 0, 53, 68
1, 159593, Note_on_c, 0, 96, 0
1, 159624, Note_on_c, 0, 53, 0
1, 159710, Note_on_c, 0, 94, 49
1, 159719, Note_on_c, 0, 98, 64
1, 159724, Note_on_c, 0, 101, 0
1, 159772, Note_on_c, 0, 93, 0
1, 159874, Note_on_c, 0, 101, 47
1, 159880, Note_on_c, 0, 98, 0
1, 159896, Note_on_c, 0, 48, 31
1, 159910, Note_on_c, 0, 94, 0
1, 159921, Note_on_c, 0, 60, 0
1, 159949, Note_on_c, 0, 48, 0
1, 159993, Note_on_c, 0, 101, 0
1, 160041, Note_on_c, 0, 96, 50
1, 160050, Note_on_c, 0, 93, 44
1, 160133, Note_on_c, 0, 96, 0
1, 160142, Note_on_c, 0, 93, 0
1, 160225, Note_on_c, 0, 36, 32
1, 160286, Note_on_c, 0, 36, 0
1, 160393, Note_on_c, 0, 84, 22
1, 160548, Note_on_c, 0, 84, 0
1, 160576, Note_on_c, 0, 94, 35
1, 160598, Note_on_c, 0, 55, 57
1, 160616, Note_on_c, 0, 48, 29
1, 160688, Control_c, 0, 64, 0
1, 160772, Note_on_c, 0, 100, 37
1, 160796, Control_c, 0, 64, 127
1, 160841, Note_on_c, 0, 94, 0
1, 160847, Note_on_c, 0, 55, 0
1, 160860, Note_on_c, 0, 100, 0
1, 160935, Note_on_c, 0, 57, 52
1, 160935, Note_on_c, 0, 96, 25
1, 160961, Note_on_c, 0, 48, 0
1, 160999, Note_on_c, 0, 96, 0
1, 161008, Note_on_c, 0, 52, 9
1, 161067, Note_on_c, 0, 88, 36
1, 161092, Note_on_c, 0, 52, 0
1, 161123, Note_on_c, 0, 88, 0
1, 161208, Note_on_c, 0, 57, 0
1, 161215, Note_on_c, 0, 58, 44
1, 161218, Note_on_c, 0, 82, 33
1, 161226, Control_c, 0, 64, 0
1, 161250, Note_on_c, 0, 55, 19
1, 161348, Control_c, 0, 64, 127
1, 161398, Note_on_c, 0, 88, 36
1, 161431, Note_on_c, 0, 58, 0
1, 161451, Note_on_c, 0, 55, 0
1, 161484, Note_on_c, 0, 60, 38
1, 161546, Note_on_c, 0, 60, 0
1, 161610, Note_on_c, 0, 58, 29
1, 161682, Note_on_c, 0, 58, 0
1, 161691, Note_on_c, 0, 88, 0
1, 161702, Note_on_c, 0, 82, 0
1, 161702, Note_on_c, 0, 84, 30
1, 161746, Note_on_c, 0, 57, 48
1, 161766, Control_c, 0, 64, 0
1, 161785, Note_on_c, 0, 52, 32
1, 161849, Note_on_c, 0, 52, 0
1, 161874, Control_c, 0, 64, 127
1, 161874, Note_on_c, 0, 84, 0
1, 161939, Note_on_c, 0, 76, 27
1, 161991, Note_on_c, 0, 76, 0
1, 162095, Note_on_c, 0, 57, 0
1, 162111, Note_on_c, 0, 55, 48
1, 162111, Note_on_c, 0, 72, 35
1, 162111, Control_c, 0, 64, 0
1, 162122, Note_on_c, 0, 46, 29
1, 162234, Control_c, 0, 64, 127
1, 162248, Note_on_c, 0, 55, 0
1, 162271, Note_on_c, 0, 46, 0
1, 162332, Note_on_c, 0, 64, 33
1, 162426, Note_on_c, 0, 64, 0
1, 162463, Note_on_c, 0, 41, 33
1, 162466, Note_on_c, 0, 72, 0
1, 162518, Note_on_c, 0, 45, 29
1, 162605, Control_c, 0, 64, 0
1, 162622, Note_on_c, 0, 53, 77
1, 162761, Control_c, 0, 64, 127
1, 162769, Note_on_c, 0, 41, 0
1, 162794, Note_on_c, 0, 45, 0
1, 162832, Note_on_c, 0, 72, 42
1, 162872, Note_on_c, 0, 53, 0
1, 162935, Note_on_c, 0, 72, 0
1, 162998, Note_on_c, 0, 81, 55
1, 163039, Note_on_c, 0, 48, 24
1, 163129, Note_on_c, 0, 89, 48
1, 163200, Note_on_c, 0, 81, 0
1, 163200, Note_on_c, 0, 48, 0
1, 163246, Note_on_c, 0, 89, 0
1, 163278, Note_on_c, 0, 84, 39
1, 163307, Note_on_c, 0, 53, 30
1, 163324, Note_on_c, 0, 84, 0
1, 163368, Note_on_c, 0, 53, 0
1, 163385, Note_on_c, 0, 77, 36
1, 163454, Note_on_c, 0, 77, 0
1, 163532, Note_on_c, 0, 72, 39
1, 163541, Note_on_c, 0, 57, 21
1, 163605, Note_on_c, 0, 72, 0
1, 163643, Note_on_c, 0, 81, 46
1, 163668, Note_on_c, 0, 57, 0
1, 163716, Note_on_c, 0, 81, 0
1, 163789, Note_on_c, 0, 77, 42
1, 163805, Note_on_c, 0, 53, 40
1, 163836, Note_on_c, 0, 77, 0
1, 163861, Note_on_c, 0, 53, 0
1, 163913, Note_on_c, 0, 69, 41
1, 163958, Note_on_c, 0, 69, 0
1, 164039, Note_on_c, 0, 48, 28
1, 164076, Note_on_c, 0, 60, 18
1, 164086, Note_on_c, 0, 48, 0
1, 164150, Note_on_c, 0, 60, 0
1, 164204, Note_on_c, 0, 69, 32
1, 164303, Note_on_c, 0, 41, 40
1, 164351, Note_on_c, 0, 41, 0
1, 164490, Note_on_c, 0, 48, 36
1, 164544, Note_on_c, 0, 48, 0
1, 164588, Note_on_c, 0, 69, 0
1, 164610, Note_on_c, 0, 57, 30
1, 164665, Note_on_c, 0, 57, 0
1, 164761, Note_on_c, 0, 65, 11
1, 164824, Note_on_c, 0, 65, 0
1, 164900, Note_on_c, 0, 60, 22
1, 164958, Note_on_c, 0, 60, 0
1, 165016, Note_on_c, 0, 53, 46
1, 165120, Note_on_c, 0, 53, 0
1, 165178, Note_on_c, 0, 65, 82
1, 165195, Note_on_c, 0, 48, 24
1, 165246, Note_on_c, 0, 48, 0
1, 165343, Note_on_c, 0, 57, 37
1, 165421, Note_on_c, 0, 57, 0
1, 165610, Note_on_c, 0, 45, 40
1, 165699, Note_on_c, 0, 45, 0
1, 165753, Note_on_c, 0, 65, 0
1, 165789, Note_on_c, 0, 41, 26
1, 165844, Note_on_c, 0, 41, 0
1, 165981, Note_on_c, 0, 41, 48
1, 166030, Note_on_c, 0, 41, 0
1, 166053, Note_on_c, 0, 65, 83
1, 166064, Note_on_c, 0, 53, 76
1, 166098, Note_on_c, 0, 53, 0
1, 166147, Note_on_c, 0, 65, 0
1, 166186, Note_on_c, 0, 29, 43
1, 166326, Note_on_c, 0, 72, 94
1, 166345, Note_on_c, 0, 60, 57
1, 166357, Control_c, 0, 64, 0
1, 166377, Note_on_c, 0, 29, 0
1, 166384, Note_on_c, 0, 41, 56
1, 166427, Note_on_c, 0, 41, 0
1, 166452, Control_c, 0, 64, 127
1, 166510, Note_on_c, 0, 60, 0
1, 166574, Note_on_c, 0, 63, 62
1, 166583, Note_on_c, 0, 69, 42
1, 166607, Note_on_c, 0, 63, 0
1, 166607, Note_on_c, 0, 72, 0
1, 166627, Note_on_c, 0, 69, 0
1, 166763, Note_on_c, 0, 60, 43
1, 166772, Note_on_c, 0, 72, 65
1, 166802, Note_on_c, 0, 53, 56
1, 166811, Note_on_c, 0, 57, 6
1, 166836, Note_on_c, 0, 72, 0
1, 166853, Note_on_c, 0, 60, 0
1, 166853, Note_on_c, 0, 57, 0
1, 166917, Note_on_c, 0, 75, 48
1, 166927, Note_on_c, 0, 81, 58
1, 166939, Note_on_c, 0, 53, 0
1, 166956, Note_on_c, 0, 75, 0
1, 166961, Note_on_c, 0, 81, 0
1, 167064, Note_on_c, 0, 65, 40
1, 167068, Note_on_c, 0, 84, 71
1, 167106, Note_on_c, 0, 65, 0
1, 167115, Note_on_c, 0, 84, 0
1, 167185, Note_on_c, 0, 87, 48
1, 167192, Note_on_c, 0, 93, 61
1, 167223, Note_on_c, 0, 87, 0
1, 167226, Note_on_c, 0, 93, 0
1, 167318, Note_on_c, 0, 72, 46
1, 167335, Note_on_c, 0, 65, 25
1, 167359, Note_on_c, 0, 72, 0
1, 167388, Note_on_c, 0, 65, 0
1, 167440, Note_on_c, 0, 93, 49
1, 167440, Note_on_c, 0, 87, 44
1, 167554, Note_on_c, 0, 93, 0
1, 167569, Note_on_c, 0, 87, 0
1, 167575, Note_on_c, 0, 69, 36
1, 167575, Note_on_c, 0, 84, 65
1, 167608, Note_on_c, 0, 84, 0
1, 167618, Note_on_c, 0, 60, 9
1, 167622, Note_on_c, 0, 69, 0
1, 167657, Note_on_c, 0, 60, 0
1, 167703, Note_on_c, 0, 75, 48
1, 167707, Note_on_c, 0, 81, 46
1, 167747, Note_on_c, 0, 75, 0
1, 167747, Note_on_c, 0, 81, 0
1, 167930, Note_on_c, 0, 65, 52
1, 167930, Note_on_c, 0, 72, 91
1, 167945, Note_on_c, 0, 57, 40
1, 167956, Note_on_c, 0, 60, 26
1, 167966, Note_on_c, 0, 65, 0
1, 167989, Note_on_c, 0, 57, 0
1, 168014, Note_on_c, 0, 60, 0
1, 168117, Note_on_c, 0, 63, 42
1, 168132, Note_on_c, 0, 69, 36
1, 168157, Note_on_c, 0, 72, 0
1, 168215, Note_on_c, 0, 63, 0
1, 168265, Note_on_c, 0, 69, 0
1, 168292, Note_on_c, 0, 72, 101
1, 168302, Note_on_c, 0, 60, 71
1, 168307, Note_on_c, 0, 29, 41
1, 168354, Note_on_c, 0, 60, 0
1, 168359, Note_on_c, 0, 29, 0
1, 168476, Note_on_c, 0, 63, 48
1, 168493, Note_on_c, 0, 69, 38
1, 168513, Note_on_c, 0, 72, 0
1, 168513, Note_on_c, 0, 63, 0
1, 168546, Note_on_c, 0, 69, 0
1, 168655, Note_on_c, 0, 60, 45
1, 168663, Note_on_c, 0, 57, 39
1, 168694, Note_on_c, 0, 74, 19
1, 168694, Note_on_c, 0, 72, 11
1, 168705, Note_on_c, 0, 53, 46
1, 168714, Note_on_c, 0, 57, 0
1, 168744, Note_on_c, 0, 60, 0
1, 168744, Note_on_c, 0, 72, 0
1, 168749, Note_on_c, 0, 74, 0
1, 168789, Note_on_c, 0, 75, 42
1, 168802, Note_on_c, 0, 81, 52
1, 168833, Note_on_c, 0, 53, 0
1, 168833, Note_on_c, 0, 75, 0
1, 168836, Note_on_c, 0, 81, 0
1, 168920, Note_on_c, 0, 65, 51
1, 168925, Note_on_c, 0, 57, 35
1, 168939, Note_on_c, 0, 84, 68
1, 168962, Note_on_c, 0, 65, 0
1, 168976, Note_on_c, 0, 57, 0
1, 168981, Note_on_c, 0, 84, 0
1, 169057, Note_on_c, 0, 93, 62
1, 169065, Note_on_c, 0, 87, 22
1, 169065, Note_on_c, 0, 71, 91
1, 169086, Note_on_c, 0, 59, 46
1, 169095, Note_on_c, 0, 93, 0
1, 169111, Note_on_c, 0, 71, 0
1, 169117, Note_on_c, 0, 87, 0
1, 169128, Note_on_c, 0, 59, 0
1, 169201, Note_on_c, 0, 101, 77
1, 169229, Note_on_c, 0, 101, 0
1, 169240, Note_on_c, 0, 72, 98
1, 169253, Note_on_c, 0, 60, 79
1, 169351, Note_on_c, 0, 93, 56
1, 169351, Note_on_c, 0, 87, 55
1, 169398, Note_on_c, 0, 72, 0
1, 169415, Note_on_c, 0, 60, 0
1, 169468, Note_on_c, 0, 93, 0
1, 169471, Note_on_c, 0, 87, 0
1, 169493, Note_on_c, 0, 69, 40
1, 169493, Note_on_c, 0, 84, 55
1, 169497, Note_on_c, 0, 65, 49
1, 169530, Note_on_c, 0, 84, 0
1, 169533, Note_on_c, 0, 65, 0
1, 169540, Note_on_c, 0, 69, 0
1, 169628, Note_on_c, 0, 81, 11
1, 169721, Note_on_c, 0, 81, 0
1, 169763, Note_on_c, 0, 72, 37
1, 169763, Note_on_c, 0, 65, 49
1, 169772, Note_on_c, 0, 57, 48
1, 169778, Note_on_c, 0, 60, 43
1, 169800, Note_on_c, 0, 65, 0
1, 169814, Note_on_c, 0, 72, 0
1, 169817, Note_on_c, 0, 57, 0
1, 169822, Note_on_c, 0, 60, 0
1, 169953, Note_on_c, 0, 74, 103
1, 169967, Note_on_c, 0, 62, 74
1, 170006, Note_on_c, 0, 62, 0
1, 170047, Note_on_c, 0, 74, 0
1, 170107, Control_c, 0, 64, 0
1, 170114, Note_on_c, 0, 29, 61
1, 170135, Note_on_c, 0, 72, 101
1, 170156, Note_on_c, 0, 29, 0
1, 170162, Note_on_c, 0, 60, 72
1, 170171, Note_on_c, 0, 41, 49
1, 170210, Note_on_c, 0, 41, 0
1, 170215, Control_c, 0, 64, 127
1, 170245, Note_on_c, 0, 72, 0
1, 170251, Note_on_c, 0, 60, 0
1, 170327, Note_on_c, 0, 65, 65
1, 170341, Note_on_c, 0, 62, 24
1, 170360, Note_on_c, 0, 65, 0
1, 170393, Note_on_c, 0, 62, 0
1, 170469, Note_on_c, 0, 58, 46
1, 170486, Note_on_c, 0, 72, 25
1, 170496, Note_on_c, 0, 50, 43
1, 170547, Note_on_c, 0, 72, 0
1, 170557, Note_on_c, 0, 50, 0
1, 170574, Note_on_c, 0, 58, 0
1, 170594, Note_on_c, 0, 74, 27
1, 170602, Note_on_c, 0, 77, 63
1, 170630, Note_on_c, 0, 77, 0
1, 170641, Note_on_c, 0, 74, 0
1, 170736, Note_on_c, 0, 62, 85
1, 170739, Note_on_c, 0, 84, 69
1, 170750, Note_on_c, 0, 58, 38
1, 170797, Note_on_c, 0, 84, 0
1, 170797, Note_on_c, 0, 58, 0
1, 170844, Note_on_c, 0, 62, 0
1, 170870, Note_on_c, 0, 89, 58
1, 170895, Note_on_c, 0, 86, 15
1, 170911, Note_on_c, 0, 89, 0
1, 170939, Note_on_c, 0, 86, 0
1, 171029, Note_on_c, 0, 101, 75
1, 171057, Note_on_c, 0, 101, 0
1, 171067, Note_on_c, 0, 70, 81
1, 171085, Note_on_c, 0, 58, 33
1, 171157, Note_on_c, 0, 58, 0
1, 171178, Note_on_c, 0, 94, 58
1, 171188, Note_on_c, 0, 89, 45
1, 171196, Note_on_c, 0, 70, 0
1, 171270, Note_on_c, 0, 89, 0
1, 171293, Note_on_c, 0, 94, 0
1, 171319, Note_on_c, 0, 62, 36
1, 171324, Note_on_c, 0, 65, 47
1, 171329, Note_on_c, 0, 86, 41
1, 171365, Note_on_c, 0, 62, 0
1, 171376, Note_on_c, 0, 86, 0
1, 171376, Note_on_c, 0, 65, 0
1, 171430, Note_on_c, 0, 82, 51
1, 171476, Note_on_c, 0, 77, 4
1, 171521, Note_on_c, 0, 82, 0
1, 171533, Note_on_c, 0, 77, 0
1, 171563, Note_on_c, 0, 62, 57
1, 171571, Note_on_c, 0, 58, 37
1, 171571, Note_on_c, 0, 74, 62
1, 171599, Note_on_c, 0, 62, 0
1, 171605, Note_on_c, 0, 74, 0
1, 171613, Note_on_c, 0, 58, 0
1, 171689, Note_on_c, 0, 70, 56
1, 171694, Note_on_c, 0, 65, 49
1, 171742, Note_on_c, 0, 65, 0
1, 171814, Note_on_c, 0, 70, 0
1, 171867, Note_on_c, 0, 62, 54
1, 171867, Note_on_c, 0, 29, 44
1, 171889, Note_on_c, 0, 41, 31
1, 171917, Note_on_c, 0, 62, 0
1, 171917, Note_on_c, 0, 29, 0
1, 171945, Note_on_c, 0, 41, 0
1, 172015, Note_on_c, 0, 70, 53
1, 172051, Note_on_c, 0, 70, 0
1, 172143, Note_on_c, 0, 74, 69
1, 172143, Note_on_c, 0, 58, 47
1, 172174, Note_on_c, 0, 50, 40
1, 172174, Note_on_c, 0, 53, 41
1, 172184, Note_on_c, 0, 74, 0
1, 172224, Note_on_c, 0, 53, 0
1, 172229, Note_on_c, 0, 58, 0
1, 172260, Note_on_c, 0, 82, 65
1, 172274, Note_on_c, 0, 50, 0
1, 172301, Note_on_c, 0, 82, 0
1, 172379, Note_on_c, 0, 86, 74
1, 172379, Note_on_c, 0, 62, 67
1, 172382, Note_on_c, 0, 53, 68
1, 172388, Note_on_c, 0, 58, 43
1, 172416, Note_on_c, 0, 53, 0
1, 172430, Note_on_c, 0, 58, 0
1, 172430, Note_on_c, 0, 62, 0
1, 172489, Note_on_c, 0, 86, 0
1, 172497, Note_on_c, 0, 94, 61
1, 172510, Note_on_c, 0, 89, 41
1, 172549, Note_on_c, 0, 94, 0
1, 172558, Note_on_c, 0, 89, 0
1, 172644, Note_on_c, 0, 101, 70
1, 172644, Note_on_c, 0, 70, 95
1, 172656, Note_on_c, 0, 58, 52
1, 172675, Note_on_c, 0, 101, 0
1, 172722, Note_on_c, 0, 58, 0
1, 172773, Note_on_c, 0, 89, 69
1, 172783, Note_on_c, 0, 70, 0
1, 172870, Note_on_c, 0, 89, 0
1, 172903, Note_on_c, 0, 86, 46
1, 172908, Note_on_c, 0, 65, 64
1, 172908, Note_on_c, 0, 62, 49
1, 172945, Note_on_c, 0, 86, 0
1, 172948, Note_on_c, 0, 62, 0
1, 172978, Note_on_c, 0, 65, 0
1, 173028, Note_on_c, 0, 77, 14
1, 173093, Note_on_c, 0, 77, 0
1, 173143, Note_on_c, 0, 74, 47
1, 173157, Note_on_c, 0, 62, 57
1, 173160, Note_on_c, 0, 58, 39
1, 173182, Note_on_c, 0, 74, 0
1, 173195, Note_on_c, 0, 62, 0
1, 173202, Note_on_c, 0, 58, 0
1, 173262, Note_on_c, 0, 70, 41
1, 173277, Note_on_c, 0, 65, 34
1, 173413, Note_on_c, 0, 70, 0
1, 173461, Note_on_c, 0, 65, 0
1, 173486, Control_c, 0, 64, 0
1, 173491, Note_on_c, 0, 72, 105
1, 173508, Note_on_c, 0, 29, 83
1, 173508, Note_on_c, 0, 60, 69
1, 173513, Note_on_c, 0, 41, 76
1, 173538, Note_on_c, 0, 29, 0
1, 173555, Note_on_c, 0, 60, 0
1, 173555, Note_on_c, 0, 41, 0
1, 173619, Control_c, 0, 64, 127
1, 173677, Note_on_c, 0, 63, 62
1, 173691, Note_on_c, 0, 69, 53
1, 173708, Note_on_c, 0, 63, 0
1, 173730, Note_on_c, 0, 69, 0
1, 173741, Note_on_c, 0, 72, 0
1, 173834, Note_on_c, 0, 72, 68
1, 173834, Note_on_c, 0, 60, 55
1, 173839, Note_on_c, 0, 57, 40
1, 173847, Note_on_c, 0, 53, 77
1, 173879, Note_on_c, 0, 72, 0
1, 173884, Note_on_c, 0, 57, 0
1, 173897, Note_on_c, 0, 60, 0
1, 173950, Note_on_c, 0, 75, 51
1, 173962, Note_on_c, 0, 81, 66
1, 173968, Note_on_c, 0, 53, 0
1, 173987, Note_on_c, 0, 75, 0
1, 173996, Note_on_c, 0, 81, 0
1, 174085, Note_on_c, 0, 65, 61
1, 174092, Note_on_c, 0, 84, 78
1, 174134, Note_on_c, 0, 65, 0
1, 174142, Note_on_c, 0, 84, 0
1, 174199, Note_on_c, 0, 87, 49
1, 174204, Note_on_c, 0, 93, 64
1, 174235, Note_on_c, 0, 87, 0
1, 174240, Note_on_c, 0, 93, 0
1, 174326, Note_on_c, 0, 101, 70
1, 174329, Note_on_c, 0, 72, 69
1, 174335, Note_on_c, 0, 65, 56
1, 174358, Note_on_c, 0, 101, 0
1, 174365, Note_on_c, 0, 72, 0
1, 174371, Note_on_c, 0, 65, 0
1, 174460, Note_on_c, 0, 87, 48
1, 174474, Note_on_c, 0, 91, 28
1, 174482, Note_on_c, 0, 93, 23
1, 174500, Note_on_c, 0, 87, 0
1, 174544, Note_on_c, 0, 93, 0
1, 174577, Note_on_c, 0, 91, 0
1, 174583, Note_on_c, 0, 69, 55
1, 174583, Note_on_c, 0, 84, 64
1, 174619, Note_on_c, 0, 84, 0
1, 174619, Note_on_c, 0, 69, 0
1, 174619, Note_on_c, 0, 60, 17
1, 174667, Note_on_c, 0, 60, 0
1, 174702, Note_on_c, 0, 81, 52
1, 174708, Note_on_c, 0, 75, 53
1, 174739, Note_on_c, 0, 81, 0
1, 174745, Note_on_c, 0, 75, 0
1, 174879, Note_on_c, 0, 65, 49
1, 174903, Note_on_c, 0, 60, 30
1, 174903, Note_on_c, 0, 57, 34
1, 174917, Note_on_c, 0, 65, 0
1, 174917, Note_on_c, 0, 72, 96
1, 174954, Note_on_c, 0, 57, 0
1, 174959, Note_on_c, 0, 60, 0
1, 175067, Note_on_c, 0, 63, 52
1, 175076, Note_on_c, 0, 69, 49
1, 175117, Note_on_c, 0, 63, 0
1, 175123, Note_on_c, 0, 72, 0
1, 175166, Note_on_c, 0, 69, 0
1, 175184, Note_on_c, 0, 72, 94
1, 175199, Note_on_c, 0, 60, 81
1, 175203, Note_on_c, 0, 29, 73
1, 175218, Note_on_c, 0, 41, 62
1, 175235, Note_on_c, 0, 29, 0
1, 175254, Note_on_c, 0, 41, 0
1, 175324, Note_on_c, 0, 60, 0
1, 175383, Note_on_c, 0, 69, 45
1, 175388, Note_on_c, 0, 63, 49
1, 175397, Note_on_c, 0, 72, 0
1, 175450, Note_on_c, 0, 63, 0
1, 175458, Note_on_c, 0, 69, 0
1, 175510, Note_on_c, 0, 71, 103
1, 175510, Note_on_c, 0, 59, 98
1, 175522, Note_on_c, 0, 53, 83
1, 175522, Note_on_c, 0, 57, 70
1, 175553, Note_on_c, 0, 53, 0
1, 175560, Note_on_c, 0, 57, 0
1, 175574, Note_on_c, 0, 59, 0
1, 175653, Note_on_c, 0, 69, 50
1, 175678, Note_on_c, 0, 71, 0
1, 175698, Note_on_c, 0, 69, 0
1, 175825, Note_on_c, 0, 72, 100
1, 175829, Note_on_c, 0, 60, 82
1, 175854, Note_on_c, 0, 75, 30
1, 175911, Note_on_c, 0, 75, 0
1, 175922, Note_on_c, 0, 60, 0
1, 175971, Note_on_c, 0, 72, 0
1, 175971, Note_on_c, 0, 84, 43
1, 176009, Note_on_c, 0, 84, 0
1, 176035, Note_on_c, 0, 63, 66
1, 176063, Note_on_c, 0, 65, 42
1, 176074, Note_on_c, 0, 69, 51
1, 176157, Note_on_c, 0, 75, 101
1, 176166, Note_on_c, 0, 101, 15
1, 176212, Note_on_c, 0, 101, 0
1, 176308, Note_on_c, 0, 93, 65
1, 176319, Note_on_c, 0, 87, 51
1, 176360, Note_on_c, 0, 65, 0
1, 176372, Note_on_c, 0, 93, 0
1, 176380, Note_on_c, 0, 87, 0
1, 176389, Note_on_c, 0, 69, 0
1, 176402, Note_on_c, 0, 75, 0
1, 176482, Note_on_c, 0, 63, 0
1, 176519, Note_on_c, 0, 84, 59
1, 176555, Note_on_c, 0, 84, 0
1, 176570, Note_on_c, 0, 74, 99
1, 176597, Note_on_c, 0, 62, 45
1, 176609, Note_on_c, 0, 69, 15
1, 176650, Note_on_c, 0, 62, 0
1, 176659, Note_on_c, 0, 81, 61
1, 176667, Note_on_c, 0, 74, 0
1, 176677, Note_on_c, 0, 75, 47
1, 176681, Note_on_c, 0, 69, 0
1, 176694, Note_on_c, 0, 81, 0
1, 176720, Note_on_c, 0, 75, 0
1, 176868, Note_on_c, 0, 72, 94
1, 176873, Note_on_c, 0, 60, 59
1, 176879, Note_on_c, 0, 63, 73
1, 176900, Note_on_c, 0, 65, 20
1, 176909, Note_on_c, 0, 63, 0
1, 176914, Note_on_c, 0, 60, 0
1, 176950, Note_on_c, 0, 65, 0
1, 177026, Note_on_c, 0, 65, 42
1, 177026, Note_on_c, 0, 69, 56
1, 177042, Note_on_c, 0, 72, 0
1, 177081, Note_on_c, 0, 65, 0
1, 177087, Note_on_c, 0, 69, 0
1, 177218, Note_on_c, 0, 70, 88
1, 177227, Control_c, 0, 64, 0
1, 177227, Note_on_c, 0, 58, 69
1, 177243, Note_on_c, 0, 31, 64
1, 177251, Note_on_c, 0, 43, 53
1, 177307, Note_on_c, 0, 31, 0
1, 177341, Note_on_c, 0, 43, 0
1, 177347, Control_c, 0, 64, 127
1, 177374, Note_on_c, 0, 58, 0
1, 177430, Note_on_c, 0, 67, 56
1, 177441, Note_on_c, 0, 70, 0
1, 177466, Note_on_c, 0, 67, 0
1, 177558, Note_on_c, 0, 70, 69
1, 177567, Note_on_c, 0, 58, 46
1, 177588, Note_on_c, 0, 50, 47
1, 177597, Note_on_c, 0, 55, 16
1, 177619, Note_on_c, 0, 70, 0
1, 177645, Note_on_c, 0, 55, 0
1, 177650, Note_on_c, 0, 58, 0
1, 177698, Note_on_c, 0, 79, 76
1, 177701, Note_on_c, 0, 74, 36
1, 177728, Note_on_c, 0, 79, 0
1, 177736, Note_on_c, 0, 50, 0
1, 177750, Note_on_c, 0, 74, 0
1, 177814, Note_on_c, 0, 82, 56
1, 177831, Note_on_c, 0, 62, 61
1, 177850, Note_on_c, 0, 58, 25
1, 177875, Note_on_c, 0, 62, 0
1, 177889, Note_on_c, 0, 82, 0
1, 177911, Note_on_c, 0, 58, 0
1, 177942, Note_on_c, 0, 91, 60
1, 177953, Note_on_c, 0, 86, 40
1, 178013, Note_on_c, 0, 86, 0
1, 178020, Note_on_c, 0, 91, 0
1, 178065, Note_on_c, 0, 70, 69
1, 178074, Note_on_c, 0, 94, 45
1, 178084, Note_on_c, 0, 58, 34
1, 178171, Note_on_c, 0, 70, 0
1, 178202, Note_on_c, 0, 58, 0
1, 178212, Note_on_c, 0, 94, 0
1, 178219, Note_on_c, 0, 86, 35
1, 178222, Note_on_c, 0, 91, 27
1, 178279, Note_on_c, 0, 86, 0
1, 178279, Note_on_c, 0, 91, 0
1, 178313, Note_on_c, 0, 82, 41
1, 178319, Note_on_c, 0, 67, 52
1, 178336, Note_on_c, 0, 58, 22
1, 178352, Note_on_c, 0, 82, 0
1, 178366, Note_on_c, 0, 67, 0
1, 178400, Note_on_c, 0, 58, 0
1, 178442, Note_on_c, 0, 79, 47
1, 178460, Note_on_c, 0, 74, 19
1, 178492, Note_on_c, 0, 79, 0
1, 178513, Note_on_c, 0, 74, 0
1, 178561, Note_on_c, 0, 70, 61
1, 178569, Note_on_c, 0, 62, 47
1, 178578, Note_on_c, 0, 55, 34
1, 178581, Note_on_c, 0, 58, 16
1, 178595, Note_on_c, 0, 70, 0
1, 178609, Note_on_c, 0, 62, 0
1, 178625, Note_on_c, 0, 55, 0
1, 178637, Note_on_c, 0, 58, 0
1, 178695, Note_on_c, 0, 67, 58
1, 178714, Note_on_c, 0, 62, 27
1, 178739, Note_on_c, 0, 67, 0
1, 178768, Note_on_c, 0, 62, 0
1, 178845, Note_on_c, 0, 31, 70
1, 178853, Note_on_c, 0, 43, 64
1, 178853, Note_on_c, 0, 58, 54
1, 178878, Note_on_c, 0, 31, 0
1, 178890, Note_on_c, 0, 43, 0
1, 178904, Note_on_c, 0, 58, 0
1, 178990, Note_on_c, 0, 67, 63
1, 179024, Note_on_c, 0, 67, 0
1, 179115, Note_on_c, 0, 58, 56
1, 179118, Note_on_c, 0, 70, 64
1, 179138, Note_on_c, 0, 50, 55
1, 179141, Note_on_c, 0, 55, 35
1, 179149, Note_on_c, 0, 70, 0
1, 179190, Note_on_c, 0, 55, 0
1, 179204, Note_on_c, 0, 58, 0
1, 179240, Note_on_c, 0, 79, 79
1, 179268, Note_on_c, 0, 79, 0
1, 179282, Note_on_c, 0, 50, 0
1, 179364, Note_on_c, 0, 82, 59
1, 179364, Note_on_c, 0, 62, 74
1, 179383, Note_on_c, 0, 58, 39
1, 179386, Note_on_c, 0, 55, 45
1, 179403, Note_on_c, 0, 82, 0
1, 179427, Note_on_c, 0, 62, 0
1, 179427, Note_on_c, 0, 58, 0
1, 179427, Note_on_c, 0, 55, 0
1, 179477, Note_on_c, 0, 91, 60
1, 179489, Note_on_c, 0, 86, 34
1, 179549, Note_on_c, 0, 86, 0
1, 179556, Note_on_c, 0, 91, 0
1, 179591, Note_on_c, 0, 70, 99
1, 179600, Note_on_c, 0, 58, 79
1, 179600, Note_on_c, 0, 94, 64
1, 179634, Note_on_c, 0, 58, 0
1, 179658, Note_on_c, 0, 70, 0
1, 179729, Note_on_c, 0, 86, 52
1, 179729, Note_on_c, 0, 91, 48
1, 179736, Note_on_c, 0, 94, 0
1, 179790, Note_on_c, 0, 91, 0
1, 179793, Note_on_c, 0, 86, 0
1, 179834, Note_on_c, 0, 67, 76
1, 179842, Note_on_c, 0, 58, 44
1, 179846, Note_on_c, 0, 82, 33
1, 179893, Note_on_c, 0, 58, 0
1, 179900, Note_on_c, 0, 82, 0
1, 179910, Note_on_c, 0, 67, 0
1, 179954, Note_on_c, 0, 79, 76
1, 179982, Note_on_c, 0, 74, 39
1, 179992, Note_on_c, 0, 79, 0
1, 180074, Note_on_c, 0, 74, 0
1, 180101, Note_on_c, 0, 70, 50
1, 180109, Note_on_c, 0, 58, 42
1, 180109, Note_on_c, 0, 62, 65
1, 180129, Note_on_c, 0, 55, 40
1, 180141, Note_on_c, 0, 70, 0
1, 180141, Note_on_c, 0, 62, 0
1, 180160, Note_on_c, 0, 58, 0
1, 180169, Note_on_c, 0, 55, 0
1, 180211, Note_on_c, 0, 62, 55
1, 180218, Note_on_c, 0, 67, 69
1, 180254, Note_on_c, 0, 62, 0
1, 180258, Note_on_c, 0, 67, 0
1, 180427, Control_c, 0, 64, 0
1, 180436, Note_on_c, 0, 72, 111
1, 180439, Note_on_c, 0, 60, 107
1, 180450, Note_on_c, 0, 41, 96
1, 180455, Note_on_c, 0, 29, 91
1, 180483, Note_on_c, 0, 29, 0
1, 180531, Note_on_c, 0, 41, 0
1, 180559, Control_c, 0, 64, 127
1, 180603, Note_on_c, 0, 60, 0
1, 180639, Note_on_c, 0, 69, 55
1, 180653, Note_on_c, 0, 65, 24
1, 180675, Note_on_c, 0, 69, 0
1, 180697, Note_on_c, 0, 72, 0
1, 180704, Note_on_c, 0, 65, 0
1, 180753, Note_on_c, 0, 72, 62
1, 180759, Note_on_c, 0, 60, 61
1, 180770, Note_on_c, 0, 57, 46
1, 180776, Note_on_c, 0, 53, 83
1, 180818, Note_on_c, 0, 57, 0
1, 180846, Note_on_c, 0, 72, 0
1, 180849, Note_on_c, 0, 60, 0
1, 180889, Note_on_c, 0, 81, 76
1, 180895, Note_on_c, 0, 77, 51
1, 180909, Note_on_c, 0, 53, 0
1, 180918, Note_on_c, 0, 81, 0
1, 180931, Note_on_c, 0, 77, 0
1, 181007, Note_on_c, 0, 84, 80
1, 181007, Note_on_c, 0, 65, 67
1, 181021, Note_on_c, 0, 57, 52
1, 181029, Note_on_c, 0, 60, 34
1, 181060, Note_on_c, 0, 57, 0
1, 181068, Note_on_c, 0, 65, 0
1, 181087, Note_on_c, 0, 60, 0
1, 181130, Note_on_c, 0, 93, 61
1, 181140, Note_on_c, 0, 89, 59
1, 181190, Note_on_c, 0, 89, 0
1, 181247, Note_on_c, 0, 72, 75
1, 181257, Note_on_c, 0, 96, 86
1, 181260, Note_on_c, 0, 84, 0
1, 181260, Note_on_c, 0, 69, 48
1, 181263, Note_on_c, 0, 93, 0
1, 181263, Note_on_c, 0, 65, 60
1, 181283, Note_on_c, 0, 72, 0
1, 181299, Note_on_c, 0, 65, 0
1, 181299, Note_on_c, 0, 69, 0
1, 181381, Note_on_c, 0, 93, 49
1, 181389, Note_on_c, 0, 89, 43
1, 181405, Note_on_c, 0, 96, 0
1, 181458, Note_on_c, 0, 93, 0
1, 181461, Note_on_c, 0, 89, 0
1, 181495, Note_on_c, 0, 69, 46
1, 181506, Note_on_c, 0, 84, 54
1, 181516, Note_on_c, 0, 65, 22
1, 181516, Note_on_c, 0, 60, 34
1, 181539, Note_on_c, 0, 69, 0
1, 181539, Note_on_c, 0, 84, 0
1, 181567, Note_on_c, 0, 65, 0
1, 181572, Note_on_c, 0, 60, 0
1, 181623, Note_on_c, 0, 81, 59
1, 181626, Note_on_c, 0, 77, 56
1, 181658, Note_on_c, 0, 81, 0
1, 181662, Note_on_c, 0, 77, 0
1, 181796, Note_on_c, 0, 72, 106
1, 181810, Note_on_c, 0, 60, 73
1, 181817, Note_on_c, 0, 57, 54
1, 181825, Note_on_c, 0, 53, 71
1, 181848, Note_on_c, 0, 60, 0
1, 181856, Note_on_c, 0, 57, 0
1, 181864, Note_on_c, 0, 53, 0
1, 181970, Note_on_c, 0, 69, 45
1, 181974, Note_on_c, 0, 65, 50
1, 182024, Note_on_c, 0, 65, 0
1, 182076, Note_on_c, 0, 72, 0
1, 182076, Note_on_c, 0, 69, 0
1, 182141, Note_on_c, 0, 74, 112
1, 182152, Control_c, 0, 64, 0
1, 182152, Note_on_c, 0, 62, 94
1, 182160, Note_on_c, 0, 38, 97
1, 182165, Note_on_c, 0, 26, 88
1, 182191, Note_on_c, 0, 26, 0
1, 182233, Note_on_c, 0, 38, 0
1, 182272, Control_c, 0, 64, 127
1, 182322, Note_on_c, 0, 62, 0
1, 182347, Note_on_c, 0, 66, 41
1, 182357, Note_on_c, 0, 69, 57
1, 182391, Note_on_c, 0, 66, 0
1, 182395, Note_on_c, 0, 69, 0
1, 182400, Note_on_c, 0, 74, 0
1, 182475, Note_on_c, 0, 74, 78
1, 182478, Note_on_c, 0, 57, 67
1, 182481, Note_on_c, 0, 50, 63
1, 182481, Note_on_c, 0, 54, 64
1, 182525, Note_on_c, 0, 54, 0
1, 182545, Note_on_c, 0, 57, 0
1, 182558, Note_on_c, 0, 74, 0
1, 182601, Note_on_c, 0, 78, 64
1, 182608, Note_on_c, 0, 81, 75
1, 182633, Note_on_c, 0, 78, 0
1, 182636, Note_on_c, 0, 81, 0
1, 182656, Note_on_c, 0, 50, 0
1, 182720, Note_on_c, 0, 86, 91
1, 182725, Note_on_c, 0, 62, 86
1, 182731, Note_on_c, 0, 54, 75
1, 182746, Note_on_c, 0, 57, 40
1, 182767, Note_on_c, 0, 54, 0
1, 182779, Note_on_c, 0, 62, 0
1, 182795, Note_on_c, 0, 57, 0
1, 182832, Note_on_c, 0, 90, 65
1, 182835, Note_on_c, 0, 93, 84
1, 182938, Note_on_c, 0, 90, 0
1, 182960, Note_on_c, 0, 74, 95
1, 182960, Note_on_c, 0, 69, 74
1, 182965, Note_on_c, 0, 98, 102
1, 182970, Note_on_c, 0, 66, 60
1, 182998, Note_on_c, 0, 93, 0
1, 182998, Note_on_c, 0, 74, 0
1, 182998, Note_on_c, 0, 69, 0
1, 183009, Note_on_c, 0, 66, 0
1, 183082, Note_on_c, 0, 86, 0
1, 183094, Note_on_c, 0, 90, 58
1, 183105, Note_on_c, 0, 93, 59
1, 183143, Note_on_c, 0, 98, 0
1, 183214, Note_on_c, 0, 93, 0
1, 183217, Note_on_c, 0, 86, 73
1, 183217, Note_on_c, 0, 69, 59
1, 183222, Note_on_c, 0, 90, 0
1, 183229, Note_on_c, 0, 66, 51
1, 183229, Note_on_c, 0, 62, 57
1, 183250, Note_on_c, 0, 86, 0
1, 183274, Note_on_c, 0, 62, 0
1, 183305, Note_on_c, 0, 66, 0
1, 183314, Note_on_c, 0, 69, 0
1, 183333, Note_on_c, 0, 81, 63
1, 183339, Note_on_c, 0, 78, 54
1, 183445, Note_on_c, 0, 81, 0
1, 183470, Note_on_c, 0, 74, 78
1, 183475, Note_on_c, 0, 78, 0
1, 183489, Note_on_c, 0, 66, 62
1, 183498, Note_on_c, 0, 74, 0
1, 183505, Note_on_c, 0, 62, 53
1, 183505, Note_on_c, 0, 57, 34
1, 183522, Note_on_c, 0, 66, 0
1, 183539, Note_on_c, 0, 62, 0
1, 183565, Note_on_c, 0, 57, 0
1, 183589, Note_on_c, 0, 69, 69
1, 183601, Note_on_c, 0, 66, 28
1, 183647, Note_on_c, 0, 66, 0
1, 183647, Note_on_c, 0, 69, 0
1, 183729, Note_on_c, 0, 72, 102
1, 183750, Note_on_c, 0, 60, 73
1, 183785, Note_on_c, 0, 60, 0
1, 183820, Note_on_c, 0, 72, 0
1, 183878, Note_on_c, 0, 74, 106
1, 183892, Note_on_c, 0, 62, 92
1, 183927, Note_on_c, 0, 62, 0
1, 183990, Note_on_c, 0, 74, 0
1, 184035, Control_c, 0, 64, 0
1, 184044, Note_on_c, 0, 77, 111
1, 184049, Note_on_c, 0, 24, 95
1, 184052, Note_on_c, 0, 36, 97
1, 184052, Note_on_c, 0, 65, 94
1, 184072, Note_on_c, 0, 24, 0
1, 184124, Note_on_c, 0, 36, 0
1, 184166, Control_c, 0, 64, 127
1, 184230, Note_on_c, 0, 65, 0
1, 184238, Note_on_c, 0, 77, 0
1, 184319, Note_on_c, 0, 67, 71
1, 184325, Note_on_c, 0, 72, 63
1, 184352, Note_on_c, 0, 67, 0
1, 184386, Note_on_c, 0, 72, 0
1, 184505, Note_on_c, 0, 77, 83
1, 184514, Note_on_c, 0, 60, 49
1, 184528, Note_on_c, 0, 53, 76
1, 184540, Note_on_c, 0, 55, 22
1, 184581, Note_on_c, 0, 53, 0
1, 184592, Note_on_c, 0, 55, 0
1, 184597, Note_on_c, 0, 77, 0
1, 184628, Note_on_c, 0, 60, 0
1, 184650, Note_on_c, 0, 79, 55
1, 184659, Note_on_c, 0, 84, 78
1, 184693, Note_on_c, 0, 79, 0
1, 184700, Note_on_c, 0, 84, 0
1, 184798, Note_on_c, 0, 89, 74
1, 184814, Note_on_c, 0, 65, 54
1, 184820, Note_on_c, 0, 55, 50
1, 184820, Note_on_c, 0, 60, 44
1, 184862, Note_on_c, 0, 55, 0
1, 184865, Note_on_c, 0, 60, 0
1, 184877, Note_on_c, 0, 65, 0
1, 184929, Note_on_c, 0, 89, 0
1, 184965, Note_on_c, 0, 96, 75
1, 184969, Note_on_c, 0, 91, 63
1, 185065, Note_on_c, 0, 91, 0
1, 185107, Note_on_c, 0, 96, 0
1, 185172, Note_on_c, 0, 99, 68
1, 185222, Note_on_c, 0, 75, 81
1, 185227, Note_on_c, 0, 67, 37
1, 185232, Control_c, 0, 64, 0
1, 185244, Note_on_c, 0, 72, 23
1, 185244, Note_on_c, 0, 63, 48
1, 185297, Note_on_c, 0, 72, 0
1, 185313, Note_on_c, 0, 67, 0
1, 185328, Control_c, 0, 64, 127
1, 185352, Note_on_c, 0, 63, 0
1, 185359, Note_on_c, 0, 75, 0
1, 185374, Note_on_c, 0, 96, 53
1, 185378, Note_on_c, 0, 91, 43
1, 185381, Note_on_c, 0, 99, 0
1, 185441, Note_on_c, 0, 96, 0
1, 185441, Note_on_c, 0, 91, 0
1, 185519, Note_on_c, 0, 87, 39
1, 185533, Note_on_c, 0, 72, 46
1, 185533, Note_on_c, 0, 63, 50
1, 185556, Note_on_c, 0, 87, 0
1, 185579, Note_on_c, 0, 63, 0
1, 185582, Note_on_c, 0, 72, 0
1, 185651, Note_on_c, 0, 84, 59
1, 185661, Note_on_c, 0, 79, 41
1, 185692, Note_on_c, 0, 84, 0
1, 185746, Note_on_c, 0, 79, 0
1, 185792, Note_on_c, 0, 75, 39
1, 185807, Note_on_c, 0, 67, 31
1, 185807, Note_on_c, 0, 60, 40
1, 185815, Note_on_c, 0, 63, 30
1, 185838, Note_on_c, 0, 75, 0
1, 185851, Note_on_c, 0, 60, 0
1, 185863, Note_on_c, 0, 63, 0
1, 185866, Note_on_c, 0, 67, 0
1, 185932, Note_on_c, 0, 67, 42
1, 185940, Note_on_c, 0, 72, 46
1, 185987, Note_on_c, 0, 67, 0
1, 185990, Note_on_c, 0, 72, 0
1, 186133, Note_on_c, 0, 63, 60
1, 186147, Note_on_c, 0, 24, 46
1, 186163, Note_on_c, 0, 36, 24
1, 186189, Note_on_c, 0, 24, 0
1, 186194, Note_on_c, 0, 63, 0
1, 186216, Note_on_c, 0, 36, 0
1, 186300, Note_on_c, 0, 67, 37
1, 186316, Note_on_c, 0, 72, 42
1, 186355, Note_on_c, 0, 67, 0
1, 186355, Note_on_c, 0, 72, 0
1, 186487, Note_on_c, 0, 75, 53
1, 186509, Note_on_c, 0, 60, 26
1, 186520, Note_on_c, 0, 75, 0
1, 186523, Note_on_c, 0, 51, 27
1, 186567, Note_on_c, 0, 60, 0
1, 186603, Note_on_c, 0, 51, 0
1, 186620, Note_on_c, 0, 84, 66
1, 186651, Note_on_c, 0, 84, 0
1, 186749, Note_on_c, 0, 87, 55
1, 186763, Note_on_c, 0, 63, 30
1, 186788, Note_on_c, 0, 55, 16
1, 186804, Note_on_c, 0, 87, 0
1, 186854, Note_on_c, 0, 55, 0
1, 186879, Note_on_c, 0, 96, 70
1, 186879, Note_on_c, 0, 91, 36
1, 186909, Note_on_c, 0, 63, 0
1, 186935, Note_on_c, 0, 91, 0
1, 186988, Note_on_c, 0, 96, 0
1, 187019, Note_on_c, 0, 99, 63
1, 187026, Note_on_c, 0, 67, 92
1, 187044, Note_on_c, 0, 55, 56
1, 187068, Note_on_c, 0, 99, 0
1, 187088, Note_on_c, 0, 55, 0
1, 187168, Note_on_c, 0, 96, 43
1, 187171, Note_on_c, 0, 91, 34
1, 187211, Note_on_c, 0, 67, 0
1, 187216, Note_on_c, 0, 96, 0
1, 187227, Note_on_c, 0, 91, 0
1, 187286, Note_on_c, 0, 87, 6
1, 187286, Note_on_c, 0, 63, 51
1, 187324, Note_on_c, 0, 63, 0
1, 187324, Note_on_c, 0, 87, 0
1, 187391, Note_on_c, 0, 84, 57
1, 187406, Note_on_c, 0, 79, 34
1, 187433, Note_on_c, 0, 84, 0
1, 187508, Note_on_c, 0, 79, 0
1, 187567, Note_on_c, 0, 55, 45
1, 187586, Note_on_c, 0, 51, 43
1, 187611, Note_on_c, 0, 55, 0
1, 187642, Note_on_c, 0, 51, 0
1, 187668, Note_on_c, 0, 67, 56
1, 187678, Note_on_c, 0, 72, 40
1, 187721, Note_on_c, 0, 72, 0
1, 187724, Note_on_c, 0, 67, 0
1, 187851, Note_on_c, 0, 27, 44
1, 187910, Note_on_c, 0, 72, 101
1, 187923, Note_on_c, 0, 60, 70
1, 187929, Control_c, 0, 64, 0
1, 187949, Note_on_c, 0, 39, 47
1, 187971, Note_on_c, 0, 27, 0
1, 188015, Note_on_c, 0, 39, 0
1, 188026, Control_c, 0, 64, 127
1, 188065, Note_on_c, 0, 60, 0
1, 188105, Note_on_c, 0, 63, 46
1, 188111, Note_on_c, 0, 67, 60
1, 188146, Note_on_c, 0, 63, 0
1, 188146, Note_on_c, 0, 67, 0
1, 188158, Note_on_c, 0, 72, 0
1, 188250, Note_on_c, 0, 72, 36
1, 188253, Note_on_c, 0, 55, 59
1, 188261, Note_on_c, 0, 51, 47
1, 188300, Note_on_c, 0, 55, 0
1, 188308, Note_on_c, 0, 72, 0
1, 188345, Note_on_c, 0, 51, 0
1, 188366, Note_on_c, 0, 75, 63
1, 188377, Note_on_c, 0, 79, 73
1, 188397, Note_on_c, 0, 75, 0
1, 188408, Note_on_c, 0, 79, 0
1, 188504, Note_on_c, 0, 60, 52
1, 188514, Note_on_c, 0, 55, 20
1, 188514, Note_on_c, 0, 84, 57
1, 188547, Note_on_c, 0, 60, 0
1, 188558, Note_on_c, 0, 55, 0
1, 188579, Note_on_c, 0, 84, 0
1, 188629, Note_on_c, 0, 91, 57
1, 188639, Note_on_c, 0, 87, 26
1, 188693, Note_on_c, 0, 87, 0
1, 188768, Note_on_c, 0, 91, 0
1, 188772, Note_on_c, 0, 72, 53
1, 188793, Note_on_c, 0, 96, 49
1, 188796, Note_on_c, 0, 63, 31
1, 188796, Note_on_c, 0, 67, 21
1, 188812, Note_on_c, 0, 72, 0
1, 188841, Note_on_c, 0, 63, 0
1, 188854, Note_on_c, 0, 67, 0
1, 188912, Note_on_c, 0, 96, 0
1, 188912, Note_on_c, 0, 87, 34
1, 188933, Note_on_c, 0, 91, 31
1, 189001, Note_on_c, 0, 87, 0
1, 189011, Note_on_c, 0, 91, 0
1, 189068, Note_on_c, 0, 67, 36
1, 189071, Note_on_c, 0, 84, 34
1, 189071, Note_on_c, 0, 63, 34
1, 189119, Note_on_c, 0, 67, 0
1, 189119, Note_on_c, 0, 84, 0
1, 189124, Note_on_c, 0, 63, 0
1, 189210, Note_on_c, 0, 79, 39
1, 189210, Note_on_c, 0, 75, 43
1, 189256, Note_on_c, 0, 75, 0
1, 189261, Note_on_c, 0, 79, 0
1, 189417, Note_on_c, 0, 72, 84
1, 189445, Note_on_c, 0, 60, 35
1, 189451, Note_on_c, 0, 55, 31
1, 189495, Note_on_c, 0, 60, 0
1, 189509, Note_on_c, 0, 55, 0
1, 189609, Note_on_c, 0, 72, 0
1, 189609, Note_on_c, 0, 67, 49
1, 189621, Note_on_c, 0, 63, 34
1, 189674, Note_on_c, 0, 63, 0
1, 189695, Note_on_c, 0, 67, 0
1, 189776, Note_on_c, 0, 70, 81
1, 189788, Note_on_c, 0, 58, 58
1, 189799, Control_c, 0, 64, 0
1, 189826, Note_on_c, 0, 31, 41
1, 189838, Note_on_c, 0, 43, 21
1, 189890, Note_on_c, 0, 31, 0
1, 189918, Control_c, 0, 64, 127
1, 189937, Note_on_c, 0, 43, 0
1, 189982, Note_on_c, 0, 58, 0
1, 189993, Note_on_c, 0, 64, 41
1, 190004, Note_on_c, 0, 61, 22
1, 190029, Note_on_c, 0, 70, 0
1, 190050, Note_on_c, 0, 64, 0
1, 190077, Note_on_c, 0, 61, 0
1, 190114, Note_on_c, 0, 69, 85
1, 190128, Note_on_c, 0, 57, 65
1, 190131, Note_on_c, 0, 49, 37
1, 190139, Note_on_c, 0, 52, 49
1, 190192, Note_on_c, 0, 52, 0
1, 190234, Note_on_c, 0, 57, 0
1, 190284, Note_on_c, 0, 49, 0
1, 190295, Note_on_c, 0, 61, 47
1, 190327, Note_on_c, 0, 69, 0
1, 190334, Note_on_c, 0, 64, 23
1, 190353, Note_on_c, 0, 61, 0
1, 190397, Note_on_c, 0, 64, 0
1, 190487, Note_on_c, 0, 70, 75
1, 190503, Note_on_c, 0, 58, 55
1, 190506, Control_c, 0, 64, 0
1, 190515, Note_on_c, 0, 55, 42
1, 190536, Note_on_c, 0, 52, 33
1, 190578, Note_on_c, 0, 55, 0
1, 190578, Note_on_c, 0, 52, 0
1, 190601, Control_c, 0, 64, 127
1, 190687, Note_on_c, 0, 61, 26
1, 190709, Note_on_c, 0, 58, 0
1, 190738, Note_on_c, 0, 61, 0
1, 190746, Note_on_c, 0, 70, 0
1, 190949, Note_on_c, 0, 73, 62
1, 190957, Note_on_c, 0, 85, 52
1, 190957, Note_on_c, 0, 61, 47
1, 190974, Note_on_c, 0, 76, 23
1, 190980, Note_on_c, 0, 79, 32
1, 191068, Note_on_c, 0, 79, 0
1, 191156, Note_on_c, 0, 76, 0
1, 191213, Note_on_c, 0, 64, 23
1, 191213, Note_on_c, 0, 67, 26
1, 191239, Note_on_c, 0, 85, 0
1, 191244, Note_on_c, 0, 61, 0
1, 191269, Note_on_c, 0, 73, 0
1, 191277, Note_on_c, 0, 64, 0
1, 191302, Note_on_c, 0, 67, 0
1, 191389, Note_on_c, 0, 72, 58
1, 191389, Note_on_c, 0, 84, 60
1, 191398, Note_on_c, 0, 60, 36
1, 191423, Note_on_c, 0, 76, 21
1, 191429, Note_on_c, 0, 79, 26
1, 191511, Note_on_c, 0, 76, 0
1, 191546, Note_on_c, 0, 79, 0
1, 191556, Note_on_c, 0, 72, 0
1, 191559, Note_on_c, 0, 60, 0
1, 191578, Note_on_c, 0, 67, 27
1, 191581, Note_on_c, 0, 84, 0
1, 191637, Note_on_c, 0, 67, 0
1, 191735, Note_on_c, 0, 70, 56
1, 191741, Note_on_c, 0, 82, 44
1, 191746, Note_on_c, 0, 58, 37
1, 191762, Note_on_c, 0, 73, 25
1, 191779, Note_on_c, 0, 76, 17
1, 191837, Note_on_c, 0, 82, 0
1, 191840, Note_on_c, 0, 76, 0
1, 191857, Note_on_c, 0, 73, 0
1, 191860, Note_on_c, 0, 58, 0
1, 191983, Note_on_c, 0, 61, 32
1, 192004, Note_on_c, 0, 64, 33
1, 192053, Note_on_c, 0, 70, 0
1, 192056, Note_on_c, 0, 61, 0
1, 192080, Note_on_c, 0, 64, 0
1, 192330, Note_on_c, 0, 72, 60
1, 192339, Control_c, 0, 64, 0
1, 192339, Note_on_c, 0, 29, 21
1, 192343, Note_on_c, 0, 60, 32
1, 192350, Note_on_c, 0, 41, 30
1, 192472, Note_on_c, 0, 29, 0
1, 192495, Control_c, 0, 64, 127
1, 192503, Note_on_c, 0, 41, 0
1, 192557, Note_on_c, 0, 60, 0
1, 192624, Note_on_c, 0, 69, 31
1, 192632, Note_on_c, 0, 65, 19
1, 192677, Note_on_c, 0, 69, 0
1, 192677, Note_on_c, 0, 72, 0
1, 192682, Note_on_c, 0, 65, 0
1, 192821, Note_on_c, 0, 57, 32
1, 192826, Note_on_c, 0, 72, 34
1, 192835, Note_on_c, 0, 53, 38
1, 192871, Note_on_c, 0, 48, 11
1, 192883, Note_on_c, 0, 72, 0
1, 192890, Note_on_c, 0, 53, 0
1, 192930, Note_on_c, 0, 57, 0
1, 192946, Note_on_c, 0, 48, 0
1, 192975, Note_on_c, 0, 81, 32
1, 193033, Note_on_c, 0, 81, 0
1, 193117, Note_on_c, 0, 84, 52
1, 193136, Note_on_c, 0, 60, 36
1, 193155, Note_on_c, 0, 53, 28
1, 193159, Note_on_c, 0, 57, 9
1, 193184, Note_on_c, 0, 60, 0
1, 193197, Note_on_c, 0, 53, 0
1, 193205, Note_on_c, 0, 57, 0
1, 193253, Note_on_c, 0, 93, 46
1, 193259, Note_on_c, 0, 84, 0
1, 193298, Note_on_c, 0, 89, 9
1, 193319, Note_on_c, 0, 93, 0
1, 193356, Note_on_c, 0, 89, 0
1, 193404, Note_on_c, 0, 72, 48
1, 193404, Note_on_c, 0, 96, 42
1, 193426, Note_on_c, 0, 65, 32
1, 193445, Note_on_c, 0, 72, 0
1, 193468, Note_on_c, 0, 65, 0
1, 193523, Note_on_c, 0, 96, 0
1, 193556, Note_on_c, 0, 89, 15
1, 193559, Note_on_c, 0, 93, 16
1, 193626, Note_on_c, 0, 89, 0
1, 193626, Note_on_c, 0, 93, 0
1, 193659, Note_on_c, 0, 69, 26
1, 193668, Note_on_c, 0, 60, 30
1, 193674, Note_on_c, 0, 84, 15
1, 193716, Note_on_c, 0, 60, 0
1, 193716, Note_on_c, 0, 84, 0
1, 193720, Note_on_c, 0, 69, 0
1, 193796, Note_on_c, 0, 81, 26
1, 193854, Note_on_c, 0, 81, 0
1, 193921, Note_on_c, 0, 65, 35
1, 193924, Note_on_c, 0, 72, 44
1, 193943, Note_on_c, 0, 57, 21
1, 193943, Note_on_c, 0, 60, 20
1, 193964, Note_on_c, 0, 72, 0
1, 193964, Note_on_c, 0, 65, 0
1, 193996, Note_on_c, 0, 60, 0
1, 193999, Note_on_c, 0, 57, 0
1, 194071, Note_on_c, 0, 65, 11
1, 194071, Note_on_c, 0, 69, 33
1, 194128, Note_on_c, 0, 69, 0
1, 194131, Note_on_c, 0, 65, 0
1, 194270, Note_on_c, 0, 29, 44
1, 194275, Note_on_c, 0, 60, 31
1, 194308, Note_on_c, 0, 41, 7
1, 194308, Note_on_c, 0, 29, 0
1, 194340, Note_on_c, 0, 60, 0
1, 194345, Note_on_c, 0, 41, 0
1, 194450, Note_on_c, 0, 65, 18
1, 194498, Note_on_c, 0, 65, 0
1, 194642, Note_on_c, 0, 51, 35
1, 194651, Note_on_c, 0, 53, 69
1, 194651, Note_on_c, 0, 69, 25
1, 194704, Note_on_c, 0, 53, 0
1, 194710, Note_on_c, 0, 51, 0
1, 194732, Note_on_c, 0, 69, 0
1, 194785, Note_on_c, 0, 77, 38
1, 194826, Note_on_c, 0, 77, 0
1, 194924, Note_on_c, 0, 60, 49
1, 194929, Note_on_c, 0, 81, 49
1, 194932, Note_on_c, 0, 57, 35
1, 194978, Note_on_c, 0, 57, 0
1, 194994, Note_on_c, 0, 60, 0
1, 194994, Note_on_c, 0, 81, 0
1, 195070, Note_on_c, 0, 89, 37
1, 195070, Note_on_c, 0, 84, 33
1, 195122, Note_on_c, 0, 84, 0
1, 195156, Note_on_c, 0, 89, 0
1, 195220, Note_on_c, 0, 93, 42
1, 195230, Note_on_c, 0, 69, 34
1, 195236, Note_on_c, 0, 65, 28
1, 195294, Note_on_c, 0, 65, 0
1, 195300, Note_on_c, 0, 69, 0
1, 195358, Note_on_c, 0, 93, 0
1, 195367, Note_on_c, 0, 89, 41
1, 195367, Note_on_c, 0, 84, 38
1, 195434, Note_on_c, 0, 89, 0
1, 195439, Note_on_c, 0, 84, 0
1, 195517, Note_on_c, 0, 63, 40
1, 195528, Note_on_c, 0, 60, 34
1, 195538, Note_on_c, 0, 81, 43
1, 195563, Note_on_c, 0, 63, 0
1, 195574, Note_on_c, 0, 60, 0
1, 195581, Note_on_c, 0, 81, 0
1, 195707, Note_on_c, 0, 77, 36
1, 195712, Note_on_c, 0, 72, 20
1, 195771, Note_on_c, 0, 77, 0
1, 195827, Note_on_c, 0, 72, 0
1, 195910, Note_on_c, 0, 69, 11
1, 195918, Note_on_c, 0, 63, 11
1, 195961, Note_on_c, 0, 63, 0
1, 195971, Note_on_c, 0, 53, 2
1, 195997, Note_on_c, 0, 69, 0
1, 196063, Note_on_c, 0, 53, 0
1, 196172, Note_on_c, 0, 63, 24
1, 196184, Note_on_c, 0, 65, 15
1, 196326, Note_on_c, 0, 63, 0
1, 196342, Note_on_c, 0, 65, 0
1, 196777, Note_on_c, 0, 70, 54
1, 196805, Note_on_c, 0, 58, 13
1, 196810, Note_on_c, 0, 34, 25
1, 196821, Note_on_c, 0, 46, 20
1, 196821, Control_c, 0, 64, 0
1, 197013, Control_c, 0, 64, 127
1, 197020, Note_on_c, 0, 34, 0
1, 197050, Note_on_c, 0, 46, 0
1, 197108, Note_on_c, 0, 70, 0
1, 197114, Note_on_c, 0, 58, 0
1, 197303, Note_on_c, 0, 58, 28
1, 197311, Note_on_c, 0, 50, 43
1, 197356, Note_on_c, 0, 58, 0
1, 197368, Note_on_c, 0, 50, 0
1, 197421, Note_on_c, 0, 53, 45
1, 197474, Note_on_c, 0, 53, 0
1, 197488, Note_on_c, 0, 58, 33
1, 197513, Note_on_c, 0, 65, 38
1, 197562, Note_on_c, 0, 65, 0
1, 197562, Note_on_c, 0, 58, 0
1, 197602, Note_on_c, 0, 70, 53
1, 197602, Note_on_c, 0, 62, 26
1, 197637, Note_on_c, 0, 70, 0
1, 197655, Note_on_c, 0, 62, 0
1, 197693, Note_on_c, 0, 65, 48
1, 197698, Note_on_c, 0, 74, 42
1, 197738, Note_on_c, 0, 65, 0
1, 197741, Note_on_c, 0, 74, 0
1, 197779, Note_on_c, 0, 70, 46
1, 197779, Note_on_c, 0, 77, 44
1, 197819, Note_on_c, 0, 70, 0
1, 197822, Note_on_c, 0, 77, 0
1, 197849, Note_on_c, 0, 82, 57
1, 197880, Note_on_c, 0, 82, 0
1, 197942, Note_on_c, 0, 77, 44
1, 197945, Note_on_c, 0, 86, 49
1, 197981, Note_on_c, 0, 77, 0
1, 197997, Note_on_c, 0, 86, 0
1, 198045, Note_on_c, 0, 82, 44
1, 198061, Note_on_c, 0, 89, 27
1, 198094, Note_on_c, 0, 82, 0
1, 198122, Note_on_c, 0, 89, 0
1, 198152, Note_on_c, 0, 86, 59
1, 198152, Note_on_c, 0, 94, 33
1, 198200, Note_on_c, 0, 86, 0
1, 198253, Note_on_c, 0, 82, 33
1, 198253, Note_on_c, 0, 94, 0
1, 198262, Note_on_c, 0, 89, 35
1, 198301, Note_on_c, 0, 82, 0
1, 198309, Note_on_c, 0, 89, 0
1, 198351, Note_on_c, 0, 77, 27
1, 198404, Note_on_c, 0, 77, 0
1, 198439, Note_on_c, 0, 82, 38
1, 198503, Note_on_c, 0, 70, 38
1, 198538, Note_on_c, 0, 82, 0
1, 198546, Note_on_c, 0, 77, 33
1, 198549, Note_on_c, 0, 70, 0
1, 198587, Note_on_c, 0, 77, 0
1, 198604, Note_on_c, 0, 65, 22
1, 198621, Note_on_c, 0, 74, 42
1, 198658, Note_on_c, 0, 65, 0
1, 198658, Note_on_c, 0, 74, 0
1, 198710, Note_on_c, 0, 70, 39
1, 198719, Note_on_c, 0, 62, 19
1, 198771, Note_on_c, 0, 62, 0
1, 198799, Note_on_c, 0, 58, 31
1, 198829, Note_on_c, 0, 65, 12
1, 198847, Note_on_c, 0, 70, 0
1, 198852, Note_on_c, 0, 58, 0
1, 198883, Note_on_c, 0, 65, 0
1, 198897, Note_on_c, 0, 53, 51
1, 198930, Note_on_c, 0, 62, 18
1, 198952, Note_on_c, 0, 53, 0
1, 198983, Note_on_c, 0, 62, 0
1, 199003, Note_on_c, 0, 50, 31
1, 199052, Note_on_c, 0, 50, 0
1, 199172, Note_on_c, 0, 70, 2
1, 199212, Note_on_c, 0, 58, 2
1, 199254, Control_c, 0, 64, 0
1, 199258, Note_on_c, 0, 31, 60
1, 199262, Note_on_c, 0, 43, 36
1, 199368, Note_on_c, 0, 31, 0
1, 199387, Control_c, 0, 64, 127
1, 199406, Note_on_c, 0, 43, 0
1, 199463, Note_on_c, 0, 70, 0
1, 199506, Note_on_c, 0, 58, 0
1, 199574, Note_on_c, 0, 58, 36
1, 199574, Note_on_c, 0, 50, 40
1, 199626, Note_on_c, 0, 58, 0
1, 199633, Note_on_c, 0, 50, 0
1, 199673, Note_on_c, 0, 52, 44
1, 199673, Note_on_c, 0, 62, 51
1, 199718, Note_on_c, 0, 62, 0
1, 199743, Note_on_c, 0, 52, 0
1, 199760, Note_on_c, 0, 58, 35
1, 199772, Note_on_c, 0, 64, 42
1, 199813, Note_on_c, 0, 64, 0
1, 199819, Note_on_c, 0, 58, 0
1, 199843, Note_on_c, 0, 70, 51
1, 199864, Note_on_c, 0, 62, 27
1, 199889, Note_on_c, 0, 70, 0
1, 199919, Note_on_c, 0, 62, 0
1, 199953, Note_on_c, 0, 74, 41
1, 199969, Note_on_c, 0, 64, 24
1, 199999, Note_on_c, 0, 74, 0
1, 200016, Note_on_c, 0, 76, 62
1, 200016, Note_on_c, 0, 64, 0
1, 200038, Note_on_c, 0, 70, 42
1, 200048, Note_on_c, 0, 76, 0
1, 200086, Note_on_c, 0, 70, 0
1, 200101, Note_on_c, 0, 82, 57
1, 200136, Note_on_c, 0, 82, 0
1, 200189, Note_on_c, 0, 76, 48
1, 200203, Note_on_c, 0, 86, 54
1, 200234, Note_on_c, 0, 76, 0
1, 200250, Note_on_c, 0, 86, 0
1, 200314, Note_on_c, 0, 82, 17
1, 200362, Note_on_c, 0, 82, 0
1, 200410, Note_on_c, 0, 86, 31
1, 200410, Note_on_c, 0, 98, 41
1, 200421, Note_on_c, 0, 94, 10
1, 200459, Note_on_c, 0, 98, 0
1, 200459, Note_on_c, 0, 86, 0
1, 200524, Note_on_c, 0, 88, 33
1, 200530, Note_on_c, 0, 94, 0
1, 200596, Note_on_c, 0, 88, 0
1, 200624, Note_on_c, 0, 86, 48
1, 200665, Note_on_c, 0, 86, 0
1, 200733, Note_on_c, 0, 82, 43
1, 200763, Note_on_c, 0, 69, 58
1, 200797, Note_on_c, 0, 57, 20
1, 200871, Note_on_c, 0, 82, 0
1, 200877, Note_on_c, 0, 76, 36
1, 200910, Note_on_c, 0, 69, 0
1, 200920, Note_on_c, 0, 57, 0
1, 200949, Note_on_c, 0, 76, 0
1, 200997, Note_on_c, 0, 74, 33
1, 201048, Note_on_c, 0, 74, 0
1, 201094, Note_on_c, 0, 70, 38
1, 201140, Note_on_c, 0, 70, 0
1, 201282, Note_on_c, 0, 70, 70
1, 201306, Note_on_c, 0, 58, 23
1, 201362, Note_on_c, 0, 70, 0
1, 201403, Note_on_c, 0, 64, 59
1, 201431, Note_on_c, 0, 58, 0
1, 201477, Note_on_c, 0, 64, 0
1, 201504, Note_on_c, 0, 62, 46
1, 201590, Note_on_c, 0, 62, 0
1, 201596, Note_on_c, 0, 58, 41
1, 201641, Note_on_c, 0, 58, 0
1, 201963, Note_on_c, 0, 74, 70
1, 201995, Note_on_c, 0, 29, 23
1, 201998, Note_on_c, 0, 62, 20
1, 202002, Note_on_c, 0, 41, 24
1, 202011, Control_c, 0, 64, 0
1, 202147, Note_on_c, 0, 29, 0
1, 202183, Note_on_c, 0, 41, 0
1, 202183, Control_c, 0, 64, 127
1, 202250, Note_on_c, 0, 62, 0
1, 202264, Note_on_c, 0, 74, 0
1, 202376, Note_on_c, 0, 53, 50
1, 202393, Note_on_c, 0, 62, 36
1, 202446, Note_on_c, 0, 62, 0
1, 202456, Note_on_c, 0, 53, 0
1, 202483, Note_on_c, 0, 58, 38
1, 202502, Note_on_c, 0, 65, 23
1, 202552, Note_on_c, 0, 58, 0
1, 202552, Note_on_c, 0, 65, 0
1, 202585, Note_on_c, 0, 62, 44
1, 202593, Note_on_c, 0, 70, 37
1, 202624, Note_on_c, 0, 62, 0
1, 202638, Note_on_c, 0, 70, 0
1, 202680, Note_on_c, 0, 74, 55
1, 202685, Note_on_c, 0, 65, 44
1, 202721, Note_on_c, 0, 74, 0
1, 202721, Note_on_c, 0, 65, 0
1, 202761, Note_on_c, 0, 70, 43
1, 202775, Note_on_c, 0, 77, 55
1, 202811, Note_on_c, 0, 77, 0
1, 202832, Note_on_c, 0, 70, 0
1, 202850, Note_on_c, 0, 82, 55
1, 202881, Note_on_c, 0, 82, 0
1, 202930, Note_on_c, 0, 86, 74
1, 202952, Note_on_c, 0, 77, 18
1, 202969, Note_on_c, 0, 86, 0
1, 202998, Note_on_c, 0, 77, 0
1, 203009, Note_on_c, 0, 82, 41
1, 203041, Note_on_c, 0, 89, 41
1, 203062, Note_on_c, 0, 82, 0
1, 203090, Note_on_c, 0, 89, 0
1, 203097, Note_on_c, 0, 86, 40
1, 203117, Note_on_c, 0, 94, 40
1, 203156, Note_on_c, 0, 86, 0
1, 203173, Note_on_c, 0, 94, 0
1, 203200, Note_on_c, 0, 98, 56
1, 203200, Note_on_c, 0, 89, 39
1, 203246, Note_on_c, 0, 98, 0
1, 203246, Note_on_c, 0, 89, 0
1, 203282, Note_on_c, 0, 86, 51
1, 203290, Note_on_c, 0, 94, 36
1, 203323, Note_on_c, 0, 86, 0
1, 203346, Note_on_c, 0, 94, 0
1, 203367, Note_on_c, 0, 82, 46
1, 203388, Note_on_c, 0, 89, 44
1, 203404, Note_on_c, 0, 82, 0
1, 203432, Note_on_c, 0, 89, 0
1, 203451, Note_on_c, 0, 86, 47
1, 203488, Note_on_c, 0, 77, 18
1, 203491, Note_on_c, 0, 86, 0
1, 203534, Note_on_c, 0, 77, 0
1, 203534, Note_on_c, 0, 82, 42
1, 203555, Note_on_c, 0, 74, 47
1, 203594, Note_on_c, 0, 74, 0
1, 203640, Note_on_c, 0, 70, 42
1, 203640, Note_on_c, 0, 77, 23
1, 203652, Note_on_c, 0, 82, 0
1, 203682, Note_on_c, 0, 70, 0
1, 203686, Note_on_c, 0, 77, 0
1, 203733, Note_on_c, 0, 74, 32
1, 203753, Note_on_c, 0, 65, 33
1, 203783, Note_on_c, 0, 74, 0
1, 203799, Note_on_c, 0, 65, 0
1, 203849, Note_on_c, 0, 70, 9
1, 203855, Note_on_c, 0, 62, 25
1, 203909, Note_on_c, 0, 62, 0
1, 203939, Note_on_c, 0, 58, 22
1, 203956, Note_on_c, 0, 65, 26
1, 203987, Note_on_c, 0, 70, 0
1, 204003, Note_on_c, 0, 58, 0
1, 204030, Note_on_c, 0, 65, 0
1, 204119, Note_on_c, 0, 62, 12
1, 204131, Note_on_c, 0, 74, 2
1, 204324, Control_c, 0, 64, 0
1, 204334, Note_on_c, 0, 41, 34
1, 204342, Note_on_c, 0, 29, 43
1, 204387, Note_on_c, 0, 29, 0
1, 204395, Note_on_c, 0, 41, 0
1, 204421, Control_c, 0, 64, 127
1, 204457, Note_on_c, 0, 74, 0
1, 204597, Note_on_c, 0, 62, 0
1, 204704, Note_on_c, 0, 51, 35
1, 204735, Note_on_c, 0, 60, 28
1, 204786, Note_on_c, 0, 51, 0
1, 204789, Note_on_c, 0, 60, 0
1, 204825, Note_on_c, 0, 63, 32
1, 204867, Note_on_c, 0, 57, 19
1, 204870, Note_on_c, 0, 63, 0
1, 204898, Note_on_c, 0, 65, 37
1, 204916, Note_on_c, 0, 57, 0
1, 204944, Note_on_c, 0, 65, 0
1, 204961, Note_on_c, 0, 60, 11
1, 204992, Note_on_c, 0, 69, 31
1, 205009, Note_on_c, 0, 60, 0
1, 205050, Note_on_c, 0, 69, 0
1, 205065, Note_on_c, 0, 63, 16
1, 205083, Note_on_c, 0, 72, 43
1, 205115, Note_on_c, 0, 63, 0
1, 205128, Note_on_c, 0, 72, 0
1, 205173, Note_on_c, 0, 75, 48
1, 205209, Note_on_c, 0, 75, 0
1, 205254, Note_on_c, 0, 77, 52
1, 205299, Note_on_c, 0, 77, 0
1, 205346, Note_on_c, 0, 81, 49
1, 205371, Note_on_c, 0, 75, 39
1, 205387, Note_on_c, 0, 81, 0
1, 205432, Note_on_c, 0, 75, 0
1, 205441, Note_on_c, 0, 84, 44
1, 205466, Note_on_c, 0, 77, 23
1, 205485, Note_on_c, 0, 84, 0
1, 205515, Note_on_c, 0, 77, 0
1, 205523, Note_on_c, 0, 87, 36
1, 205565, Note_on_c, 0, 87, 0
1, 205632, Note_on_c, 0, 84, 28
1, 205640, Note_on_c, 0, 89, 15
1, 205680, Note_on_c, 0, 84, 0
1, 205711, Note_on_c, 0, 89, 0
1, 205724, Note_on_c, 0, 93, 34
1, 205778, Note_on_c, 0, 93, 0
1, 205861, Note_on_c, 0, 96, 31
1, 205914, Note_on_c, 0, 72, 44
1, 205919, Note_on_c, 0, 96, 0
1, 205975, Note_on_c, 0, 93, 20
1, 206031, Note_on_c, 0, 93, 0
1, 206056, Note_on_c, 0, 89, 28
1, 206108, Note_on_c, 0, 72, 0
1, 206108, Note_on_c, 0, 89, 0
1, 206156, Note_on_c, 0, 87, 20
1, 206237, Note_on_c, 0, 87, 0
1, 206278, Note_on_c, 0, 84, 25
1, 206326, Note_on_c, 0, 84, 0
1, 206547, Note_on_c, 0, 75, 28
1, 206643, Note_on_c, 0, 75, 0
1, 206675, Note_on_c, 0, 72, 29
1, 206742, Note_on_c, 0, 72, 0
1, 206797, Note_on_c, 0, 69, 22
1, 206867, Note_on_c, 0, 69, 0
1, 206920, Note_on_c, 0, 65, 33
1, 206994, Note_on_c, 0, 65, 0
1, 207056, Note_on_c, 0, 63, 31
1, 207285, Control_c, 0, 64, 0
1, 207298, Note_on_c, 0, 58, 28
1, 207298, Note_on_c, 0, 34, 22
1, 207304, Note_on_c, 0, 46, 20
1, 207312, Note_on_c, 0, 70, 41
1, 207334, Note_on_c, 0, 41, 26
1, 207343, Note_on_c, 0, 63, 0
1, 207448, Note_on_c, 0, 41, 0
1, 207455, Note_on_c, 0, 34, 0
1, 207465, Control_c, 0, 64, 127
1, 207485, Note_on_c, 0, 46, 0
1, 207533, Note_on_c, 0, 58, 0
1, 207719, Note_on_c, 0, 62, 30
1, 207725, Note_on_c, 0, 65, 25
1, 207725, Note_on_c, 0, 58, 23
1, 207747, Note_on_c, 0, 50, 22
1, 207769, Note_on_c, 0, 70, 0
1, 207784, Note_on_c, 0, 53, 9
1, 207828, Note_on_c, 0, 58, 0
1, 207831, Note_on_c, 0, 53, 0
1, 207831, Note_on_c, 0, 65, 0
1, 207845, Note_on_c, 0, 50, 0
1, 207850, Note_on_c, 0, 62, 0
1, 208031, Note_on_c, 0, 70, 35
1, 208039, Note_on_c, 0, 58, 25
1, 208048, Note_on_c, 0, 53, 46
1, 208056, Note_on_c, 0, 62, 19
1, 208056, Note_on_c, 0, 65, 27
1, 208092, Note_on_c, 0, 53, 0
1, 208101, Note_on_c, 0, 65, 0
1, 208104, Note_on_c, 0, 58, 0
1, 208109, Note_on_c, 0, 70, 0
1, 208114, Note_on_c, 0, 62, 0
1, 208343, Note_on_c, 0, 86, 43
1, 208349, Note_on_c, 0, 82, 31
1, 208352, Note_on_c, 0, 70, 27
1, 208355, Note_on_c, 0, 65, 15
1, 208355, Note_on_c, 0, 74, 30
1, 208359, Note_on_c, 0, 58, 24
1, 208402, Note_on_c, 0, 82, 0
1, 208410, Note_on_c, 0, 70, 0
1, 208419, Note_on_c, 0, 65, 0
1, 208435, Note_on_c, 0, 86, 0
1, 208452, Note_on_c, 0, 58, 0
1, 208510, Note_on_c, 0, 74, 0
1, 208627, Note_on_c, 0, 65, 31
1, 208630, Note_on_c, 0, 77, 33
1, 208630, Note_on_c, 0, 82, 26
1, 208633, Note_on_c, 0, 62, 32
1, 208680, Note_on_c, 0, 65, 0
1, 208686, Note_on_c, 0, 77, 0
1, 208716, Note_on_c, 0, 62, 0
1, 208775, Note_on_c, 0, 82, 0
1, 208878, Note_on_c, 0, 70, 41
1, 208900, Note_on_c, 0, 77, 29
1, 208916, Note_on_c, 0, 74, 28
1, 208920, Note_on_c, 0, 65, 25
1, 208920, Note_on_c, 0, 70, 0
1, 208965, Note_on_c, 0, 65, 0
1, 208976, Note_on_c, 0, 77, 0
1, 208979, Note_on_c, 0, 74, 0
1, 209135, Note_on_c, 0, 34, 49
1, 209135, Note_on_c, 0, 46, 15
1, 209182, Note_on_c, 0, 34, 0
1, 209212, Note_on_c, 0, 46, 0
1, 209407, Note_on_c, 0, 65, 40
1, 209407, Note_on_c, 0, 58, 37
1, 209410, Note_on_c, 0, 62, 37
1, 209426, Note_on_c, 0, 53, 49
1, 209426, Note_on_c, 0, 50, 29
1, 209477, Note_on_c, 0, 53, 0
1, 209477, Note_on_c, 0, 62, 0
1, 209493, Note_on_c, 0, 50, 0
1, 209493, Note_on_c, 0, 58, 0
1, 209496, Note_on_c, 0, 65, 0
1, 209667, Note_on_c, 0, 70, 54
1, 209677, Note_on_c, 0, 62, 28
1, 209677, Note_on_c, 0, 58, 14
1, 209710, Note_on_c, 0, 70, 0
1, 209727, Note_on_c, 0, 62, 0
1, 209727, Note_on_c, 0, 58, 0
1, 209967, Note_on_c, 0, 86, 64
1, 209967, Note_on_c, 0, 65, 36
1, 209973, Note_on_c, 0, 74, 51
1, 209973, Note_on_c, 0, 77, 41
1, 209984, Note_on_c, 0, 62, 32
1, 210029, Note_on_c, 0, 65, 0
1, 210029, Note_on_c, 0, 62, 0
1, 210081, Note_on_c, 0, 77, 0
1, 210092, Note_on_c, 0, 74, 0
1, 210100, Note_on_c, 0, 86, 0
1, 210227, Note_on_c, 0, 82, 52
1, 210237, Note_on_c, 0, 58, 27
1, 210237, Note_on_c, 0, 74, 46
1, 210237, Note_on_c, 0, 77, 46
1, 210271, Note_on_c, 0, 62, 22
1, 210277, Note_on_c, 0, 65, 21
1, 210288, Note_on_c, 0, 77, 0
1, 210299, Note_on_c, 0, 58, 0
1, 210302, Note_on_c, 0, 74, 0
1, 210324, Note_on_c, 0, 62, 0
1, 210330, Note_on_c, 0, 65, 0
1, 210344, Note_on_c, 0, 82, 0
1, 210486, Note_on_c, 0, 62, 38
1, 210489, Note_on_c, 0, 77, 44
1, 210496, Note_on_c, 0, 74, 41
1, 210499, Note_on_c, 0, 70, 43
1, 210502, Note_on_c, 0, 65, 22
1, 210533, Note_on_c, 0, 62, 0
1, 210538, Note_on_c, 0, 70, 0
1, 210543, Note_on_c, 0, 77, 0
1, 210550, Note_on_c, 0, 65, 0
1, 210557, Note_on_c, 0, 74, 0
1, 210720, Note_on_c, 0, 34, 57
1, 210739, Note_on_c, 0, 46, 15
1, 210755, Note_on_c, 0, 34, 0
1, 210786, Note_on_c, 0, 46, 0
1, 211000, Note_on_c, 0, 70, 40
1, 211020, Note_on_c, 0, 58, 35
1, 211020, Note_on_c, 0, 62, 36
1, 211031, Note_on_c, 0, 65, 19
1, 211045, Note_on_c, 0, 50, 39
1, 211084, Note_on_c, 0, 62, 0
1, 211092, Note_on_c, 0, 58, 0
1, 211092, Note_on_c, 0, 65, 0
1, 211102, Note_on_c, 0, 50, 0
1, 211139, Note_on_c, 0, 70, 0
1, 211273, Note_on_c, 0, 74, 58
1, 211277, Note_on_c, 0, 65, 42
1, 211285, Note_on_c, 0, 70, 38
1, 211291, Note_on_c, 0, 62, 38
1, 211307, Note_on_c, 0, 58, 9
1, 211319, Note_on_c, 0, 65, 0
1, 211326, Note_on_c, 0, 74, 0
1, 211326, Note_on_c, 0, 70, 0
1, 211340, Note_on_c, 0, 62, 0
1, 211352, Note_on_c, 0, 58, 0
1, 211580, Note_on_c, 0, 89, 79
1, 211586, Note_on_c, 0, 77, 59
1, 211586, Note_on_c, 0, 82, 43
1, 211591, Note_on_c, 0, 74, 56
1, 211602, Note_on_c, 0, 70, 33
1, 211607, Note_on_c, 0, 65, 39
1, 211645, Note_on_c, 0, 74, 0
1, 211664, Note_on_c, 0, 70, 0
1, 211667, Note_on_c, 0, 65, 0
1, 211680, Note_on_c, 0, 82, 0
1, 211722, Note_on_c, 0, 77, 0
1, 211836, Note_on_c, 0, 89, 0
1, 211851, Note_on_c, 0, 77, 48
1, 211851, Note_on_c, 0, 82, 45
1, 211856, Note_on_c, 0, 86, 60
1, 211856, Note_on_c, 0, 70, 41
1, 211860, Note_on_c, 0, 65, 30
1, 211876, Note_on_c, 0, 62, 43
1, 211917, Note_on_c, 0, 65, 0
1, 211923, Note_on_c, 0, 62, 0
1, 211942, Note_on_c, 0, 82, 0
1, 211958, Note_on_c, 0, 70, 0
1, 211981, Note_on_c, 0, 77, 0
1, 212021, Note_on_c, 0, 86, 0
1, 212120, Note_on_c, 0, 82, 49
1, 212120, Note_on_c, 0, 74, 48
1, 212126, Note_on_c, 0, 70, 43
1, 212126, Note_on_c, 0, 77, 47
1, 212131, Note_on_c, 0, 65, 38
1, 212159, Note_on_c, 0, 74, 0
1, 212168, Note_on_c, 0, 70, 0
1, 212171, Note_on_c, 0, 82, 0
1, 212177, Note_on_c, 0, 65, 0
1, 212187, Note_on_c, 0, 77, 0
1, 212357, Note_on_c, 0, 34, 71
1, 212369, Note_on_c, 0, 46, 34
1, 212386, Note_on_c, 0, 34, 0
1, 212424, Note_on_c, 0, 46, 0
1, 212605, Note_on_c, 0, 74, 70
1, 212605, Note_on_c, 0, 65, 58
1, 212605, Note_on_c, 0, 68, 51
1, 212610, Note_on_c, 0, 56, 56
1, 212614, Note_on_c, 0, 53, 66
1, 212614, Note_on_c, 0, 62, 49
1, 212650, Note_on_c, 0, 56, 0
1, 212656, Note_on_c, 0, 53, 0
1, 212656, Note_on_c, 0, 62, 0
1, 212663, Note_on_c, 0, 68, 0
1, 212672, Note_on_c, 0, 65, 0
1, 212711, Note_on_c, 0, 74, 0
1, 212861, Note_on_c, 0, 77, 81
1, 212861, Note_on_c, 0, 68, 56
1, 212865, Note_on_c, 0, 56, 54
1, 212869, Note_on_c, 0, 65, 57
1, 212886, Note_on_c, 0, 74, 37
1, 212897, Note_on_c, 0, 68, 0
1, 212901, Note_on_c, 0, 56, 0
1, 212901, Note_on_c, 0, 65, 0
1, 212931, Note_on_c, 0, 74, 0
1, 212940, Note_on_c, 0, 77, 0
1, 213149, Note_on_c, 0, 92, 78
1, 213159, Note_on_c, 0, 80, 59
1, 213163, Note_on_c, 0, 77, 63
1, 213163, Note_on_c, 0, 68, 52
1, 213173, Note_on_c, 0, 86, 50
1, 213185, Note_on_c, 0, 74, 40
1, 213218, Note_on_c, 0, 86, 0
1, 213223, Note_on_c, 0, 77, 0
1, 213226, Note_on_c, 0, 74, 0
1, 213269, Note_on_c, 0, 80, 0
1, 213269, Note_on_c, 0, 68, 0
1, 213391, Note_on_c, 0, 92, 0
1, 213419, Note_on_c, 0, 80, 67
1, 213422, Note_on_c, 0, 68, 35
1, 213425, Note_on_c, 0, 74, 62
1, 213425, Note_on_c, 0, 89, 68
1, 213438, Note_on_c, 0, 65, 47
1, 213438, Note_on_c, 0, 86, 46
1, 213479, Note_on_c, 0, 65, 0
1, 213488, Note_on_c, 0, 74, 0
1, 213488, Note_on_c, 0, 86, 0
1, 213508, Note_on_c, 0, 80, 0
1, 213535, Note_on_c, 0, 68, 0
1, 213558, Note_on_c, 0, 89, 0
1, 213683, Note_on_c, 0, 77, 53
1, 213688, Note_on_c, 0, 80, 61
1, 213694, Note_on_c, 0, 86, 69
1, 213698, Note_on_c, 0, 68, 39
1, 213711, Note_on_c, 0, 74, 39
1, 213717, Note_on_c, 0, 77, 0
1, 213753, Note_on_c, 0, 74, 0
1, 213775, Note_on_c, 0, 86, 0
1, 213789, Note_on_c, 0, 68, 0
1, 213798, Note_on_c, 0, 80, 0
1, 213934, Note_on_c, 0, 46, 71
1, 213943, Note_on_c, 0, 34, 66
1, 213996, Control_c, 0, 64, 0
1, 214029, Note_on_c, 0, 34, 0
1, 214049, Note_on_c, 0, 46, 0
1, 214068, Control_c, 0, 64, 127
1, 214187, Note_on_c, 0, 70, 56
1, 214187, Note_on_c, 0, 63, 64
1, 214195, Note_on_c, 0, 67, 52
1, 214205, Note_on_c, 0, 58, 42
1, 214209, Note_on_c, 0, 55, 45
1, 214213, Note_on_c, 0, 51, 42
1, 214260, Note_on_c, 0, 55, 0
1, 214266, Note_on_c, 0, 67, 0
1, 214271, Note_on_c, 0, 58, 0
1, 214283, Note_on_c, 0, 63, 0
1, 214318, Note_on_c, 0, 70, 0
1, 214407, Note_on_c, 0, 51, 0
1, 214449, Note_on_c, 0, 63, 60
1, 214449, Note_on_c, 0, 75, 72
1, 214455, Note_on_c, 0, 70, 55
1, 214483, Note_on_c, 0, 58, 17
1, 214488, Note_on_c, 0, 67, 11
1, 214496, Note_on_c, 0, 70, 0
1, 214527, Note_on_c, 0, 75, 0
1, 214527, Note_on_c, 0, 63, 0
1, 214527, Note_on_c, 0, 67, 0
1, 214535, Note_on_c, 0, 58, 0
1, 214748, Note_on_c, 0, 75, 54
1, 214748, Note_on_c, 0, 91, 92
1, 214756, Note_on_c, 0, 79, 74
1, 214764, Note_on_c, 0, 82, 37
1, 214769, Note_on_c, 0, 70, 36
1, 214775, Note_on_c, 0, 67, 38
1, 214814, Note_on_c, 0, 82, 0
1, 214817, Note_on_c, 0, 75, 0
1, 214829, Note_on_c, 0, 67, 0
1, 214832, Note_on_c, 0, 70, 0
1, 214929, Note_on_c, 0, 79, 0
1, 214929, Note_on_c, 0, 91, 0
1, 215035, Note_on_c, 0, 70, 45
1, 215035, Note_on_c, 0, 67, 41
1, 215035, Note_on_c, 0, 87, 61
1, 215045, Note_on_c, 0, 82, 38
1, 215045, Note_on_c, 0, 79, 61
1, 215053, Note_on_c, 0, 63, 48
1, 215104, Note_on_c, 0, 67, 0
1, 215104, Note_on_c, 0, 82, 0
1, 215135, Note_on_c, 0, 79, 0
1, 215157, Note_on_c, 0, 70, 0
1, 215210, Note_on_c, 0, 63, 0
1, 215254, Note_on_c, 0, 87, 0
1, 215318, Note_on_c, 0, 75, 44
1, 215322, Note_on_c, 0, 82, 44
1, 215336, Note_on_c, 0, 79, 42
1, 215336, Note_on_c, 0, 70, 36
1, 215343, Note_on_c, 0, 67, 43
1, 215357, Note_on_c, 0, 75, 0
1, 215382, Note_on_c, 0, 70, 0
1, 215382, Note_on_c, 0, 67, 0
1, 215393, Note_on_c, 0, 82, 0
1, 215396, Note_on_c, 0, 79, 0
1, 215586, Note_on_c, 0, 34, 58
1, 215586, Note_on_c, 0, 46, 37
1, 215622, Note_on_c, 0, 34, 0
1, 215639, Note_on_c, 0, 46, 0
1, 215833, Note_on_c, 0, 69, 47
1, 215833, Note_on_c, 0, 60, 46
1, 215833, Note_on_c, 0, 63, 56
1, 215839, Note_on_c, 0, 51, 37
1, 215839, Note_on_c, 0, 54, 50
1, 215843, Note_on_c, 0, 66, 34
1, 215889, Note_on_c, 0, 54, 0
1, 215893, Note_on_c, 0, 60, 0
1, 215917, Note_on_c, 0, 51, 0
1, 215929, Note_on_c, 0, 63, 0
1, 215950, Note_on_c, 0, 66, 0
1, 215965, Note_on_c, 0, 69, 0
1, 216077, Note_on_c, 0, 75, 61
1, 216080, Note_on_c, 0, 66, 48
1, 216087, Note_on_c, 0, 54, 43
1, 216087, Note_on_c, 0, 63, 41
1, 216095, Note_on_c, 0, 69, 29
1, 216099, Note_on_c, 0, 60, 24
1, 216120, Note_on_c, 0, 66, 0
1, 216132, Note_on_c, 0, 63, 0
1, 216138, Note_on_c, 0, 54, 0
1, 216151, Note_on_c, 0, 60, 0
1, 216151, Note_on_c, 0, 75, 0
1, 216155, Note_on_c, 0, 69, 0
1, 216343, Note_on_c, 0, 90, 77
1, 216354, Note_on_c, 0, 75, 46
1, 216354, Note_on_c, 0, 81, 54
1, 216363, Note_on_c, 0, 78, 53
1, 216372, Note_on_c, 0, 66, 36
1, 216380, Note_on_c, 0, 72, 31
1, 216410, Note_on_c, 0, 75, 0
1, 216435, Note_on_c, 0, 72, 0
1, 216464, Note_on_c, 0, 66, 0
1, 216467, Note_on_c, 0, 81, 0
1, 216475, Note_on_c, 0, 78, 0
1, 216575, Note_on_c, 0, 90, 0
1, 216603, Note_on_c, 0, 78, 55
1, 216611, Note_on_c, 0, 87, 52
1, 216611, Note_on_c, 0, 72, 53
1, 216623, Note_on_c, 0, 63, 55
1, 216628, Note_on_c, 0, 66, 20
1, 216628, Note_on_c, 0, 81, 43
1, 216684, Note_on_c, 0, 81, 0
1, 216698, Note_on_c, 0, 72, 0
1, 216714, Note_on_c, 0, 63, 0
1, 216751, Note_on_c, 0, 78, 0
1, 216754, Note_on_c, 0, 66, 0
1, 216754, Note_on_c, 0, 87, 0
1, 216909, Note_on_c, 0, 75, 36
1, 216909, Note_on_c, 0, 78, 55
1, 216917, Note_on_c, 0, 66, 35
1, 216917, Note_on_c, 0, 81, 56
1, 216954, Note_on_c, 0, 75, 0
1, 217010, Note_on_c, 0, 81, 0
1, 217023, Note_on_c, 0, 66, 0
1, 217054, Note_on_c, 0, 78, 0
1, 217171, Note_on_c, 0, 34, 63
1, 217171, Note_on_c, 0, 46, 47
1, 217183, Control_c, 0, 64, 0
1, 217268, Control_c, 0, 64, 127
1, 217272, Note_on_c, 0, 34, 0
1, 217276, Note_on_c, 0, 46, 0
1, 217393, Note_on_c, 0, 70, 48
1, 217408, Note_on_c, 0, 62, 43
1, 217408, Note_on_c, 0, 58, 38
1, 217416, Note_on_c, 0, 65, 31
1, 217428, Note_on_c, 0, 53, 38
1, 217439, Note_on_c, 0, 50, 40
1, 217467, Note_on_c, 0, 62, 0
1, 217475, Note_on_c, 0, 65, 0
1, 217478, Note_on_c, 0, 53, 0
1, 217514, Note_on_c, 0, 58, 0
1, 217522, Note_on_c, 0, 50, 0
1, 217558, Note_on_c, 0, 70, 0
1, 217641, Note_on_c, 0, 70, 38
1, 217645, Note_on_c, 0, 74, 70
1, 217648, Note_on_c, 0, 58, 30
1, 217648, Note_on_c, 0, 65, 43
1, 217655, Note_on_c, 0, 62, 42
1, 217666, Note_on_c, 0, 53, 43
1, 217681, Note_on_c, 0, 70, 0
1, 217687, Note_on_c, 0, 74, 0
1, 217691, Note_on_c, 0, 65, 0
1, 217706, Note_on_c, 0, 58, 0
1, 217706, Note_on_c, 0, 62, 0
1, 217715, Note_on_c, 0, 53, 0
1, 217918, Note_on_c, 0, 89, 69
1, 217921, Note_on_c, 0, 82, 48
1, 217928, Note_on_c, 0, 77, 49
1, 217934, Note_on_c, 0, 74, 54
1, 217942, Note_on_c, 0, 70, 31
1, 217954, Note_on_c, 0, 65, 32
1, 217981, Note_on_c, 0, 74, 0
1, 218002, Note_on_c, 0, 70, 0
1, 218012, Note_on_c, 0, 65, 0
1, 218032, Note_on_c, 0, 82, 0
1, 218045, Note_on_c, 0, 77, 0
1, 218191, Note_on_c, 0, 86, 58
1, 218194, Note_on_c, 0, 70, 41
1, 218197, Note_on_c, 0, 77, 39
1, 218202, Note_on_c, 0, 82, 28
1, 218202, Note_on_c, 0, 89, 0
1, 218212, Note_on_c, 0, 65, 22
1, 218229, Note_on_c, 0, 62, 19
1, 218266, Note_on_c, 0, 65, 0
1, 218271, Note_on_c, 0, 82, 0
1, 218302, Note_on_c, 0, 62, 0
1, 218310, Note_on_c, 0, 77, 0
1, 218316, Note_on_c, 0, 70, 0
1, 218347, Note_on_c, 0, 86, 0
1, 218481, Note_on_c, 0, 74, 39
1, 218489, Note_on_c, 0, 82, 40
1, 218492, Note_on_c, 0, 70, 32
1, 218500, Note_on_c, 0, 77, 33
1, 218506, Note_on_c, 0, 65, 24
1, 218525, Note_on_c, 0, 74, 0
1, 218542, Note_on_c, 0, 70, 0
1, 218555, Note_on_c, 0, 65, 0
1, 218555, Note_on_c, 0, 82, 0
1, 218559, Note_on_c, 0, 77, 0
1, 218737, Note_on_c, 0, 46, 38
1, 218737, Note_on_c, 0, 34, 52
1, 218778, Control_c, 0, 64, 0
1, 218823, Note_on_c, 0, 34, 0
1, 218842, Note_on_c, 0, 46, 0
1, 218842, Control_c, 0, 64, 127
1, 218992, Note_on_c, 0, 61, 44
1, 218998, Note_on_c, 0, 67, 41
1, 218998, Note_on_c, 0, 64, 33
1, 219013, Note_on_c, 0, 49, 45
1, 219013, Note_on_c, 0, 55, 31
1, 219013, Note_on_c, 0, 52, 15
1, 219055, Note_on_c, 0, 64, 0
1, 219065, Note_on_c, 0, 52, 0
1, 219068, Note_on_c, 0, 61, 0
1, 219076, Note_on_c, 0, 49, 0
1, 219076, Note_on_c, 0, 55, 0
1, 219138, Note_on_c, 0, 67, 0
1, 219260, Note_on_c, 0, 61, 38
1, 219260, Note_on_c, 0, 73, 53
1, 219268, Note_on_c, 0, 64, 52
1, 219268, Note_on_c, 0, 52, 36
1, 219275, Note_on_c, 0, 67, 40
1, 219304, Note_on_c, 0, 64, 0
1, 219311, Note_on_c, 0, 52, 0
1, 219324, Note_on_c, 0, 61, 0
1, 219324, Note_on_c, 0, 67, 0
1, 219336, Note_on_c, 0, 73, 0
1, 219580, Note_on_c, 0, 88, 60
1, 219587, Note_on_c, 0, 79, 35
1, 219594, Note_on_c, 0, 76, 24
1, 219594, Note_on_c, 0, 73, 23
1, 219606, Note_on_c, 0, 67, 26
1, 219611, Note_on_c, 0, 64, 28
1, 219656, Note_on_c, 0, 73, 0
1, 219665, Note_on_c, 0, 64, 0
1, 219670, Note_on_c, 0, 67, 0
1, 219683, Note_on_c, 0, 79, 0
1, 219695, Note_on_c, 0, 76, 0
1, 219742, Note_on_c, 0, 88, 0
1, 219867, Note_on_c, 0, 85, 58
1, 219878, Note_on_c, 0, 76, 32
1, 219881, Note_on_c, 0, 61, 36
1, 219889, Note_on_c, 0, 79, 37
1, 219889, Note_on_c, 0, 67, 27
1, 219909, Note_on_c, 0, 64, 17
1, 219965, Note_on_c, 0, 79, 0
1, 219965, Note_on_c, 0, 64, 0
1, 219973, Note_on_c, 0, 67, 0
1, 219996, Note_on_c, 0, 76, 0
1, 219999, Note_on_c, 0, 85, 0
1, 220029, Note_on_c, 0, 61, 0
1, 220182, Note_on_c, 0, 79, 49
1, 220190, Note_on_c, 0, 73, 21
1, 220193, Note_on_c, 0, 76, 30
1, 220207, Note_on_c, 0, 64, 32
1, 220221, Note_on_c, 0, 67, 22
1, 220246, Note_on_c, 0, 73, 0
1, 220265, Note_on_c, 0, 64, 0
1, 220274, Note_on_c, 0, 67, 0
1, 220280, Note_on_c, 0, 79, 0
1, 220293, Note_on_c, 0, 76, 0
1, 220461, Note_on_c, 0, 34, 52
1, 220461, Note_on_c, 0, 46, 32
1, 220480, Control_c, 0, 64, 0
1, 220558, Note_on_c, 0, 34, 0
1, 220575, Control_c, 0, 64, 127
1, 220578, Note_on_c, 0, 46, 0
1, 220734, Note_on_c, 0, 66, 39
1, 220743, Note_on_c, 0, 48, 32
1, 220747, Note_on_c, 0, 63, 31
1, 220750, Note_on_c, 0, 54, 44
1, 220750, Note_on_c, 0, 60, 36
1, 220756, Note_on_c, 0, 51, 25
1, 220812, Note_on_c, 0, 63, 0
1, 220812, Note_on_c, 0, 54, 0
1, 220815, Note_on_c, 0, 51, 0
1, 220829, Note_on_c, 0, 60, 0
1, 220878, Note_on_c, 0, 66, 0
1, 220901, Note_on_c, 0, 48, 0
1, 220998, Note_on_c, 0, 72, 47
1, 221007, Note_on_c, 0, 63, 55
1, 221007, Note_on_c, 0, 66, 34
1, 221007, Note_on_c, 0, 51, 27
1, 221013, Note_on_c, 0, 54, 24
1, 221018, Note_on_c, 0, 60, 25
1, 221040, Note_on_c, 0, 63, 0
1, 221060, Note_on_c, 0, 66, 0
1, 221060, Note_on_c, 0, 51, 0
1, 221068, Note_on_c, 0, 54, 0
1, 221073, Note_on_c, 0, 72, 0
1, 221080, Note_on_c, 0, 60, 0
1, 221322, Note_on_c, 0, 87, 50
1, 221335, Note_on_c, 0, 75, 41
1, 221341, Note_on_c, 0, 63, 41
1, 221344, Note_on_c, 0, 78, 33
1, 221355, Note_on_c, 0, 72, 22
1, 221355, Note_on_c, 0, 66, 4
1, 221395, Note_on_c, 0, 78, 0
1, 221402, Note_on_c, 0, 66, 0
1, 221411, Note_on_c, 0, 63, 0
1, 221414, Note_on_c, 0, 72, 0
1, 221422, Note_on_c, 0, 75, 0
1, 221550, Note_on_c, 0, 87, 0
1, 221628, Note_on_c, 0, 75, 22
1, 221633, Note_on_c, 0, 78, 33
1, 221640, Note_on_c, 0, 66, 17
1, 221640, Note_on_c, 0, 84, 29
1, 221640, Note_on_c, 0, 60, 22
1, 221647, Note_on_c, 0, 63, 22
1, 221701, Note_on_c, 0, 78, 0
1, 221701, Note_on_c, 0, 66, 0
1, 221711, Note_on_c, 0, 84, 0
1, 221711, Note_on_c, 0, 63, 0
1, 221732, Note_on_c, 0, 75, 0
1, 221742, Note_on_c, 0, 60, 0
1, 221935, Note_on_c, 0, 63, 36
1, 221938, Note_on_c, 0, 75, 22
1, 221938, Note_on_c, 0, 78, 30
1, 221938, Note_on_c, 0, 72, 23
1, 221941, Note_on_c, 0, 66, 24
1, 221996, Note_on_c, 0, 72, 0
1, 221996, Note_on_c, 0, 66, 0
1, 222012, Note_on_c, 0, 63, 0
1, 222018, Note_on_c, 0, 75, 0
1, 222034, Note_on_c, 0, 78, 0
1, 222194, Note_on_c, 0, 34, 53
1, 222207, Note_on_c, 0, 46, 28
1, 222258, Note_on_c, 0, 34, 0
1, 222277, Note_on_c, 0, 46, 0
1, 222463, Note_on_c, 0, 54, 56
1, 222463, Note_on_c, 0, 60, 35
1, 222466, Note_on_c, 0, 66, 42
1, 222469, Note_on_c, 0, 48, 23
1, 222475, Note_on_c, 0, 63, 35
1, 222534, Note_on_c, 0, 60, 0
1, 222534, Note_on_c, 0, 54, 0
1, 222547, Note_on_c, 0, 48, 0
1, 222547, Note_on_c, 0, 63, 0
1, 222603, Note_on_c, 0, 66, 0
1, 222731, Note_on_c, 0, 69, 46
1, 222731, Note_on_c, 0, 63, 58
1, 222736, Note_on_c, 0, 66, 41
1, 222739, Note_on_c, 0, 57, 39
1, 222767, Note_on_c, 0, 63, 0
1, 222771, Note_on_c, 0, 69, 0
1, 222776, Note_on_c, 0, 66, 0
1, 222796, Note_on_c, 0, 57, 0
1, 223032, Note_on_c, 0, 84, 70
1, 223048, Note_on_c, 0, 69, 31
1, 223051, Note_on_c, 0, 72, 29
1, 223058, Note_on_c, 0, 75, 21
1, 223061, Note_on_c, 0, 63, 42
1, 223080, Note_on_c, 0, 66, 11
1, 223105, Note_on_c, 0, 69, 0
1, 223118, Note_on_c, 0, 63, 0
1, 223136, Note_on_c, 0, 72, 0
1, 223140, Note_on_c, 0, 75, 0
1, 223140, Note_on_c, 0, 84, 0
1, 223140, Note_on_c, 0, 66, 0
1, 223321, Note_on_c, 0, 75, 33
1, 223321, Note_on_c, 0, 81, 47
1, 223331, Note_on_c, 0, 72, 29
1, 223338, Note_on_c, 0, 66, 24
1, 223341, Note_on_c, 0, 60, 24
1, 223341, Note_on_c, 0, 63, 18
1, 223381, Note_on_c, 0, 75, 0
1, 223391, Note_on_c, 0, 81, 0
1, 223395, Note_on_c, 0, 72, 0
1, 223403, Note_on_c, 0, 63, 0
1, 223408, Note_on_c, 0, 60, 0
1, 223420, Note_on_c, 0, 66, 0
1, 223604, Note_on_c, 0, 78, 39
1, 223608, Note_on_c, 0, 69, 27
1, 223615, Note_on_c, 0, 66, 19
1, 223615, Note_on_c, 0, 72, 17
1, 223615, Note_on_c, 0, 75, 19
1, 223618, Note_on_c, 0, 63, 28
1, 223662, Note_on_c, 0, 69, 0
1, 223670, Note_on_c, 0, 66, 0
1, 223676, Note_on_c, 0, 63, 0
1, 223690, Note_on_c, 0, 72, 0
1, 223714, Note_on_c, 0, 75, 0
1, 223745, Note_on_c, 0, 78, 0
1, 223876, Note_on_c, 0, 46, 25
1, 223893, Note_on_c, 0, 34, 26
1, 223945, Note_on_c, 0, 34, 0
1, 223962, Note_on_c, 0, 46, 0
1, 224149, Note_on_c, 0, 63, 47
1, 224160, Note_on_c, 0, 60, 18
1, 224168, Note_on_c, 0, 57, 22
1, 224172, Note_on_c, 0, 54, 41
1, 224179, Note_on_c, 0, 48, 18
1, 224227, Note_on_c, 0, 54, 0
1, 224232, Note_on_c, 0, 60, 0
1, 224247, Note_on_c, 0, 57, 0
1, 224253, Note_on_c, 0, 48, 0
1, 224266, Note_on_c, 0, 63, 0
1, 224425, Note_on_c, 0, 66, 41
1, 224428, Note_on_c, 0, 54, 9
1, 224428, Note_on_c, 0, 63, 37
1, 224431, Note_on_c, 0, 60, 34
1, 224431, Note_on_c, 0, 57, 36
1, 224431, Note_on_c, 0, 51, 10
1, 224466, Note_on_c, 0, 54, 0
1, 224470, Note_on_c, 0, 63, 0
1, 224473, Note_on_c, 0, 51, 0
1, 224484, Note_on_c, 0, 60, 0
1, 224491, Note_on_c, 0, 66, 0
1, 224491, Note_on_c, 0, 57, 0
1, 224729, Note_on_c, 0, 72, 31
1, 224732, Note_on_c, 0, 81, 46
1, 224739, Note_on_c, 0, 66, 30
1, 224739, Note_on_c, 0, 69, 26
1, 224756, Note_on_c, 0, 63, 22
1, 224804, Note_on_c, 0, 66, 0
1, 224810, Note_on_c, 0, 63, 0
1, 224820, Note_on_c, 0, 72, 0
1, 224828, Note_on_c, 0, 81, 0
1, 224871, Note_on_c, 0, 69, 0
1, 225016, Note_on_c, 0, 78, 41
1, 225022, Note_on_c, 0, 63, 28
1, 225040, Note_on_c, 0, 69, 16
1, 225044, Note_on_c, 0, 60, 18
1, 225052, Note_on_c, 0, 72, 13
1, 225079, Note_on_c, 0, 63, 0
1, 225088, Note_on_c, 0, 78, 0
1, 225116, Note_on_c, 0, 60, 0
1, 225121, Note_on_c, 0, 72, 0
1, 225121, Note_on_c, 0, 69, 0
1, 225319, Note_on_c, 0, 66, 26
1, 225325, Note_on_c, 0, 75, 23
1, 225336, Note_on_c, 0, 63, 23
1, 225336, Note_on_c, 0, 69, 8
1, 225342, Note_on_c, 0, 72, 10
1, 225372, Note_on_c, 0, 66, 0
1, 225386, Note_on_c, 0, 63, 0
1, 225423, Note_on_c, 0, 72, 0
1, 225434, Note_on_c, 0, 69, 0
1, 225448, Note_on_c, 0, 75, 0
1, 225590, Note_on_c, 0, 46, 28
1, 225609, Note_on_c, 0, 34, 29
1, 225703, Note_on_c, 0, 34, 0
1, 225707, Note_on_c, 0, 46, 0
1, 225882, Note_on_c, 0, 57, 23
1, 225888, Note_on_c, 0, 51, 25
1, 225891, Note_on_c, 0, 60, 23
1, 225902, Note_on_c, 0, 54, 41
1, 225954, Note_on_c, 0, 54, 0
1, 225962, Note_on_c, 0, 51, 0
1, 225966, Note_on_c, 0, 57, 0
1, 225985, Note_on_c, 0, 60, 0
1, 226149, Note_on_c, 0, 60, 19
1, 226153, Note_on_c, 0, 63, 47
1, 226153, Note_on_c, 0, 57, 31
1, 226158, Note_on_c, 0, 54, 31
1, 226199, Note_on_c, 0, 60, 0
1, 226199, Note_on_c, 0, 63, 0
1, 226205, Note_on_c, 0, 54, 0
1, 226221, Note_on_c, 0, 57, 0
1, 226466, Note_on_c, 0, 78, 49
1, 226489, Note_on_c, 0, 69, 21
1, 226494, Note_on_c, 0, 63, 30
1, 226494, Note_on_c, 0, 60, 13
1, 226494, Note_on_c, 0, 66, 21
1, 226548, Note_on_c, 0, 63, 0
1, 226562, Note_on_c, 0, 60, 0
1, 226572, Note_on_c, 0, 66, 0
1, 226583, Note_on_c, 0, 69, 0
1, 226645, Note_on_c, 0, 78, 0
1, 226776, Note_on_c, 0, 75, 29
1, 226792, Note_on_c, 0, 66, 11
1, 226798, Note_on_c, 0, 69, 13
1, 226813, Note_on_c, 0, 54, 12
1, 226816, Note_on_c, 0, 60, 11
1, 226879, Note_on_c, 0, 69, 0
1, 226885, Note_on_c, 0, 60, 0
1, 226891, Note_on_c, 0, 66, 0
1, 226938, Note_on_c, 0, 54, 0
1, 227002, Note_on_c, 0, 75, 0
1, 227066, Note_on_c, 0, 60, 22
1, 227085, Note_on_c, 0, 72, 23
1, 227085, Note_on_c, 0, 63, 27
1, 227093, Note_on_c, 0, 69, 14
1, 227093, Note_on_c, 0, 66, 5
1, 227135, Note_on_c, 0, 60, 0
1, 227135, Note_on_c, 0, 63, 0
1, 227163, Note_on_c, 0, 69, 0
1, 227166, Note_on_c, 0, 72, 0
1, 227189, Note_on_c, 0, 66, 0
1, 227307, Note_on_c, 0, 46, 35
1, 227311, Control_c, 0, 64, 0
1, 227389, Note_on_c, 0, 53, 55
1, 227431, Control_c, 0, 64, 127
1, 227436, Note_on_c, 0, 53, 0
1, 227458, Note_on_c, 0, 46, 0
1, 227531, Note_on_c, 0, 77, 63
1, 227540, Note_on_c, 0, 65, 33
1, 227547, Note_on_c, 0, 70, 19
1, 227567, Note_on_c, 0, 62, 28
1, 227640, Note_on_c, 0, 62, 0
1, 227715, Note_on_c, 0, 77, 0
1, 227732, Note_on_c, 0, 70, 0
1, 227784, Note_on_c, 0, 65, 0
1, 227960, Note_on_c, 0, 58, 43
1, 227960, Note_on_c, 0, 74, 60
1, 227974, Note_on_c, 0, 65, 35
1, 228052, Note_on_c, 0, 58, 0
1, 228068, Note_on_c, 0, 65, 0
1, 228097, Note_on_c, 0, 74, 0
1, 228292, Note_on_c, 0, 62, 35
1, 228292, Note_on_c, 0, 70, 40
1, 228305, Note_on_c, 0, 58, 24
1, 228311, Note_on_c, 0, 53, 30
1, 228359, Note_on_c, 0, 62, 0
1, 228364, Note_on_c, 0, 53, 0
1, 228370, Note_on_c, 0, 58, 0
1, 228373, Note_on_c, 0, 70, 0
1, 228642, Note_on_c, 0, 65, 19
1, 228653, Note_on_c, 0, 74, 38
1, 228653, Note_on_c, 0, 62, 35
1, 228659, Note_on_c, 0, 58, 19
1, 228659, Note_on_c, 0, 53, 24
1, 228665, Note_on_c, 0, 46, 25
1, 228709, Note_on_c, 0, 62, 0
1, 228718, Note_on_c, 0, 53, 0
1, 228731, Note_on_c, 0, 58, 0
1, 228746, Note_on_c, 0, 46, 0
1, 228746, Note_on_c, 0, 65, 0
1, 228759, Note_on_c, 0, 74, 0
1, 228941, Note_on_c, 0, 70, 35
1, 228952, Note_on_c, 0, 53, 49
1, 228952, Note_on_c, 0, 58, 25
1, 228960, Note_on_c, 0, 62, 25
1, 229000, Note_on_c, 0, 70, 0
1, 229008, Note_on_c, 0, 53, 0
1, 229016, Note_on_c, 0, 58, 0
1, 229029, Note_on_c, 0, 62, 0
1, 229220, Note_on_c, 0, 58, 39
1, 229224, Note_on_c, 0, 50, 40
1, 229241, Note_on_c, 0, 65, 35
1, 229292, Note_on_c, 0, 58, 0
1, 229305, Note_on_c, 0, 50, 0
1, 229305, Note_on_c, 0, 65, 0
1, 229493, Note_on_c, 0, 70, 40
1, 229500, Note_on_c, 0, 62, 34
1, 229503, Note_on_c, 0, 46, 29
1, 229562, Note_on_c, 0, 62, 0
1, 229582, Note_on_c, 0, 46, 0
1, 229654, Note_on_c, 0, 70, 0
1, 229768, Note_on_c, 0, 58, 22
1, 229779, Note_on_c, 0, 50, 19
1, 229779, Note_on_c, 0, 65, 36
1, 229819, Note_on_c, 0, 65, 0
1, 229851, Note_on_c, 0, 50, 0
1, 229882, Note_on_c, 0, 58, 0
1, 230016, Note_on_c, 0, 46, 39
1, 230049, Note_on_c, 0, 62, 41
1, 230055, Note_on_c, 0, 53, 50
1, 230055, Note_on_c, 0, 46, 0
1, 230121, Note_on_c, 0, 53, 0
1, 230174, Note_on_c, 0, 34, 46
1, 230180, Note_on_c, 0, 62, 0
1, 230228, Note_on_c, 0, 34, 0
1, 230323, Note_on_c, 0, 65, 45
1, 230328, Note_on_c, 0, 50, 49
1, 230328, Note_on_c, 0, 58, 30
1, 230376, Note_on_c, 0, 50, 0
1, 230384, Note_on_c, 0, 65, 0
1, 230390, Note_on_c, 0, 58, 0
1, 230590, Note_on_c, 0, 62, 52
1, 230603, Note_on_c, 0, 46, 23
1, 230607, Note_on_c, 0, 53, 40
1, 230659, Note_on_c, 0, 53, 0
1, 230659, Note_on_c, 0, 46, 0
1, 230674, Note_on_c, 0, 62, 0
1, 230838, Note_on_c, 0, 58, 32
1, 230844, Note_on_c, 0, 41, 35
1, 230857, Note_on_c, 0, 50, 36
1, 230890, Note_on_c, 0, 41, 0
1, 230908, Note_on_c, 0, 50, 0
1, 230926, Note_on_c, 0, 58, 0
1, 231097, Control_c, 0, 64, 0
1, 231102, Note_on_c, 0, 62, 40
1, 231106, Note_on_c, 0, 53, 43
1, 231106, Note_on_c, 0, 41, 28
1, 231106, Note_on_c, 0, 46, 22
1, 231106, Note_on_c, 0, 34, 29
1, 231160, Note_on_c, 0, 41, 0
1, 231169, Note_on_c, 0, 46, 0
1, 231206, Control_c, 0, 64, 127
1, 231211, Note_on_c, 0, 53, 0
1, 231239, Note_on_c, 0, 62, 0
1, 231283, Note_on_c, 0, 34, 0
1, 231378, Note_on_c, 0, 41, 23
1, 231378, Note_on_c, 0, 58, 26
1, 231383, Note_on_c, 0, 46, 17
1, 231386, Note_on_c, 0, 50, 30
1, 231433, Note_on_c, 0, 46, 0
1, 231437, Note_on_c, 0, 41, 0
1, 231443, Note_on_c, 0, 50, 0
1, 231453, Note_on_c, 0, 58, 0
1, 231645, Note_on_c, 0, 38, 39
1, 231659, Note_on_c, 0, 46, 28
1, 231687, Note_on_c, 0, 53, 59
1, 231701, Note_on_c, 0, 38, 0
1, 231715, Note_on_c, 0, 46, 0
1, 231727, Note_on_c, 0, 53, 0
1, 231936, Note_on_c, 0, 46, 28
1, 231941, Note_on_c, 0, 34, 30
1, 231944, Note_on_c, 0, 41, 21
1, 231949, Control_c, 0, 64, 0
1, 231949, Note_on_c, 0, 62, 45
1, 231949, Note_on_c, 0, 53, 34
1, 232007, Note_on_c, 0, 41, 0
1, 232011, Note_on_c, 0, 53, 0
1, 232053, Note_on_c, 0, 46, 0
1, 232080, Control_c, 0, 64, 127
1, 232083, Note_on_c, 0, 62, 0
1, 232219, Note_on_c, 0, 58, 32
1, 232223, Note_on_c, 0, 46, 28
1, 232223, Note_on_c, 0, 41, 16
1, 232228, Note_on_c, 0, 50, 30
1, 232280, Note_on_c, 0, 46, 0
1, 232287, Note_on_c, 0, 41, 0
1, 232287, Note_on_c, 0, 50, 0
1, 232311, Note_on_c, 0, 58, 0
1, 232353, Note_on_c, 0, 34, 0
1, 232493, Note_on_c, 0, 38, 37
1, 232497, Note_on_c, 0, 46, 22
1, 232567, Note_on_c, 0, 38, 0
1, 232567, Note_on_c, 0, 46, 0
1, 232780, Note_on_c, 0, 34, 25
1, 232788, Control_c, 0, 64, 0
1, 232788, Note_on_c, 0, 46, 26
1, 232788, Note_on_c, 0, 62, 35
1, 232794, Note_on_c, 0, 53, 25
1, 232861, Note_on_c, 0, 46, 0
1, 232883, Control_c, 0, 64, 127
1, 232908, Note_on_c, 0, 62, 0
1, 232913, Note_on_c, 0, 53, 0
1, 232931, Note_on_c, 0, 34, 0
1, 233058, Note_on_c, 0, 58, 18
1, 233064, Note_on_c, 0, 46, 21
1, 233064, Note_on_c, 0, 41, 33
1, 233071, Note_on_c, 0, 50, 22
1, 233127, Note_on_c, 0, 46, 0
1, 233142, Note_on_c, 0, 50, 0
1, 233142, Note_on_c, 0, 41, 0
1, 233214, Note_on_c, 0, 58, 0
1, 233356, Note_on_c, 0, 53, 37
1, 233356, Note_on_c, 0, 46, 13
1, 233356, Note_on_c, 0, 38, 25
1, 233443, Note_on_c, 0, 53, 0
1, 233443, Note_on_c, 0, 46, 0
1, 233451, Note_on_c, 0, 38, 0
1, 233649, Note_on_c, 0, 46, 26
1, 233649, Control_c, 0, 64, 0
1, 233649, Note_on_c, 0, 34, 20
1, 233659, Note_on_c, 0, 53, 34
1, 233663, Note_on_c, 0, 62, 25
1, 233744, Note_on_c, 0, 46, 0
1, 233748, Note_on_c, 0, 53, 0
1, 233794, Control_c, 0, 64, 127
1, 233818, Note_on_c, 0, 62, 0
1, 233822, Note_on_c, 0, 34, 0
1, 233999, Note_on_c, 0, 58, 14
1, 234005, Note_on_c, 0, 41, 24
1, 234005, Note_on_c, 0, 50, 30
1, 234005, Note_on_c, 0, 46, 6
1, 234067, Note_on_c, 0, 46, 0
1, 234083, Note_on_c, 0, 50, 0
1, 234145, Note_on_c, 0, 41, 0
1, 234156, Note_on_c, 0, 58, 0
1, 234454, Note_on_c, 0, 46, 10
1, 234454, Note_on_c, 0, 53, 32
1, 234465, Note_on_c, 0, 38, 17
1, 234549, Note_on_c, 0, 53, 0
1, 234560, Note_on_c, 0, 46, 0
1, 234701, Note_on_c, 0, 38, 0
1, 234988, Note_on_c, 0, 34, 36
1, 235256, Control_c, 0, 64, 0
1, 235340, Control_c, 0, 64, 127
1, 235365, Note_on_c, 0, 41, 39
1, 235440, Note_on_c, 0, 41, 0
1, 235459, Note_on_c, 0, 34, 0
1, 235632, Note_on_c, 0, 50, 35
1, 235715, Note_on_c, 0, 50, 0
1, 235810, Note_on_c, 0, 53, 52
1, 235903, Note_on_c, 0, 53, 0
1, 235985, Note_on_c, 0, 58, 41
1, 236038, Note_on_c, 0, 58, 0
1, 236144, Note_on_c, 0, 62, 60
1, 236198, Note_on_c, 0, 62, 0
1, 236287, Note_on_c, 0, 65, 55
1, 236390, Note_on_c, 0, 65, 0
1, 236418, Note_on_c, 0, 70, 61
1, 236449, Note_on_c, 0, 70, 0
1, 236543, Note_on_c, 0, 74, 68
1, 236601, Note_on_c, 0, 74, 0
1, 236655, Note_on_c, 0, 77, 61
1, 236749, Note_on_c, 0, 77, 0
1, 236757, Note_on_c, 0, 82, 65
1, 236785, Note_on_c, 0, 82, 0
1, 236858, Note_on_c, 0, 86, 72
1, 236961, Note_on_c, 0, 86, 0
1, 236971, Note_on_c, 0, 89, 65
1, 237069, Note_on_c, 0, 89, 0
1, 237084, Note_on_c, 0, 98, 69
1, 237194, Note_on_c, 0, 98, 0
1, 237194, Note_on_c, 0, 94, 52
1, 237242, Note_on_c, 0, 94, 0
1, 237298, Note_on_c, 0, 86, 52
1, 237368, Note_on_c, 0, 86, 0
1, 237395, Note_on_c, 0, 82, 48
1, 237501, Note_on_c, 0, 89, 53
1, 237504, Note_on_c, 0, 82, 0
1, 237588, Note_on_c, 0, 89, 0
1, 237615, Note_on_c, 0, 86, 42
1, 237663, Note_on_c, 0, 86, 0
1, 237713, Note_on_c, 0, 77, 36
1, 237757, Note_on_c, 0, 77, 0
1, 237816, Note_on_c, 0, 74, 32
1, 237860, Note_on_c, 0, 74, 0
1, 237896, Note_on_c, 0, 82, 47
1, 237974, Note_on_c, 0, 82, 0
1, 238028, Note_on_c, 0, 77, 29
1, 238073, Note_on_c, 0, 77, 0
1, 238098, Note_on_c, 0, 70, 29
1, 238147, Note_on_c, 0, 70, 0
1, 238226, Note_on_c, 0, 65, 39
1, 238272, Note_on_c, 0, 65, 0
1, 238325, Note_on_c, 0, 74, 51
1, 238389, Note_on_c, 0, 74, 0
1, 238424, Note_on_c, 0, 70, 39
1, 238485, Note_on_c, 0, 70, 0
1, 238584, Note_on_c, 0, 62, 11
1, 238635, Note_on_c, 0, 62, 0
1, 238640, Note_on_c, 0, 58, 24
1, 238774, Note_on_c, 0, 65, 39
1, 238785, Note_on_c, 0, 58, 0
1, 238869, Note_on_c, 0, 65, 0
1, 238925, Note_on_c, 0, 62, 33
1, 238969, Note_on_c, 0, 62, 0
1, 239030, Note_on_c, 0, 53, 46
1, 239078, Note_on_c, 0, 53, 0
1, 239239, Note_on_c, 0, 50, 11
1, 239392, Note_on_c, 0, 50, 0
1, 239449, Note_on_c, 0, 58, 26
1, 239607, Note_on_c, 0, 58, 0
1, 239674, Note_on_c, 0, 53, 26
1, 239740, Note_on_c, 0, 53, 0
1, 239872, Note_on_c, 0, 46, 17
1, 240092, Note_on_c, 0, 34, 22
1, 240103, Note_on_c, 0, 46, 0
1, 240214, Note_on_c, 0, 41, 24
1, 240357, Note_on_c, 0, 50, 34
1, 240643, Note_on_c, 0, 41, 0
1, 240872, Note_on_c, 0, 34, 0
1, 240913, Note_on_c, 0, 50, 0
1, 241601, Note_on_c, 0, 58, 14
1, 241772, Note_on_c, 0, 65, 20
1, 241813, Note_on_c, 0, 58, 0
1, 241895, Note_on_c, 0, 70, 13
1, 241917, Note_on_c, 0, 65, 0
1, 241978, Note_on_c, 0, 70, 0
1, 242002, Note_on_c, 0, 74, 19
1, 242062, Note_on_c, 0, 74, 0
1, 242089, Note_on_c, 0, 77, 11
1, 242165, Note_on_c, 0, 82, 15
1, 242175, Note_on_c, 0, 77, 0
1, 242276, Note_on_c, 0, 86, 11
1, 242335, Note_on_c, 0, 82, 0
1, 242338, Note_on_c, 0, 94, 18
1, 245086, Note_on_c, 0, 94, 0
1, 245112, Note_on_c, 0, 86, 0
1, 245192, Control_c, 0, 64, 0
1, 246690, End_track
0, 0, End_of_file
