0, 0, Header, 0, 1, 480
1, 0, Start_track
1, 0, Title_t, "Transcendental EMei-Ting Sun"
1, 0, Text_t, "Liszt Transcendental Etude #5 ""Feux follets"" performed on the Yamaha Disklavier by Mei-Ting Sun--06/17/02"
1, 0, SMPTE_offset, 96, 0, 0, 0, 0
1, 0, Time_signature, 4, 2, 24, 8
1, 0, Tempo, 512820
1, 0, System_exclusive, 5, 126, 127, 9, 1, 247
1, 1, System_exclusive, 8, 67, 16, 76, 0, 0, 126, 0, 247
1, 2, System_exclusive, 6, 67, 113, 126, 10, 0, 247
1, 5, Control_c, 0, 0, 0
1, 6, Control_c, 0, 32, 0
1, 7, Program_c, 0, 0
1, 8, Control_c, 0, 7, 100
1, 10, Control_c, 0, 67, 11
1, 28, Control_c, 0, 67, 19
1, 47, Control_c, 0, 67, 37
1, 66, Control_c, 0, 67, 65
1, 83, Control_c, 0, 67, 97
1, 103, Control_c, 0, 64, 12
1, 104, Control_c, 0, 67, 120
1, 121, Control_c, 0, 64, 26
1, 141, Control_c, 0, 64, 44
1, 160, Control_c, 0, 64, 60
1, 178, Control_c, 0, 64, 69
1, 197, Control_c, 0, 64, 78
1, 216, Control_c, 0, 64, 91
1, 234, Control_c, 0, 64, 117
1, 252, Control_c, 0, 64, 127
1, 365, Control_c, 0, 67, 115
1, 402, Control_c, 0, 67, 108
1, 420, Control_c, 0, 67, 104
1, 440, Control_c, 0, 67, 99
1, 458, Control_c, 0, 67, 92
1, 478, Control_c, 0, 67, 84
1, 495, Control_c, 0, 67, 75
1, 515, Control_c, 0, 67, 65
1, 533, Control_c, 0, 67, 56
1, 552, Control_c, 0, 67, 49
1, 568, Note_on_c, 0, 65, 46
1, 569, Control_c, 0, 67, 43
1, 590, Control_c, 0, 67, 38
1, 626, Control_c, 0, 67, 31
1, 635, Note_off_c, 0, 65, 62
1, 664, Control_c, 0, 67, 25
1, 682, Note_on_c, 0, 66, 43
1, 701, Control_c, 0, 67, 20
1, 737, Note_off_c, 0, 66, 64
1, 757, Control_c, 0, 67, 16
1, 765, Note_on_c, 0, 65, 49
1, 809, Note_off_c, 0, 65, 59
1, 823, Note_on_c, 0, 67, 57
1, 870, Note_off_c, 0, 67, 62
1, 887, Note_on_c, 0, 68, 59
1, 888, Control_c, 0, 64, 105
1, 907, Control_c, 0, 64, 89
1, 925, Note_off_c, 0, 68, 66
1, 926, Control_c, 0, 64, 87
1, 946, Control_c, 0, 64, 94
1, 962, Control_c, 0, 64, 109
1, 971, Note_on_c, 0, 69, 46
1, 982, Control_c, 0, 64, 127
1, 1007, Note_off_c, 0, 69, 56
1, 1010, Note_on_c, 0, 68, 66
1, 1040, Note_off_c, 0, 68, 72
1, 1060, Note_on_c, 0, 70, 55
1, 1076, Control_c, 0, 64, 105
1, 1087, Note_off_c, 0, 70, 62
1, 1092, Control_c, 0, 64, 82
1, 1113, Control_c, 0, 64, 70
1, 1130, Note_on_c, 0, 71, 57
1, 1150, Control_c, 0, 64, 77
1, 1169, Control_c, 0, 64, 96
1, 1173, Note_off_c, 0, 71, 65
1, 1181, Note_on_c, 0, 72, 63
1, 1188, Control_c, 0, 64, 127
1, 1223, Note_off_c, 0, 72, 65
1, 1242, Note_on_c, 0, 71, 67
1, 1273, Note_off_c, 0, 71, 66
1, 1280, Control_c, 0, 67, 11
1, 1300, Note_on_c, 0, 73, 68
1, 1318, Control_c, 0, 64, 123
1, 1328, Note_off_c, 0, 73, 65
1, 1336, Control_c, 0, 64, 127
1, 1365, Note_on_c, 0, 74, 78
1, 1412, Control_c, 0, 67, 0
1, 1421, Note_off_c, 0, 74, 61
1, 1438, Note_on_c, 0, 75, 70
1, 1472, Note_off_c, 0, 75, 67
1, 1489, Note_on_c, 0, 74, 68
1, 1547, Note_off_c, 0, 74, 62
1, 1558, Note_on_c, 0, 76, 60
1, 1582, Note_off_c, 0, 76, 63
1, 1618, Note_on_c, 0, 77, 77
1, 1680, Note_off_c, 0, 77, 57
1, 1686, Note_on_c, 0, 78, 71
1, 1733, Note_off_c, 0, 78, 52
1, 1758, Note_on_c, 0, 77, 66
1, 1783, Note_on_c, 0, 53, 42
1, 1814, Note_off_c, 0, 77, 57
1, 1833, Note_on_c, 0, 79, 74
1, 1842, Note_on_c, 0, 59, 50
1, 1881, Note_on_c, 0, 62, 59
1, 1889, Note_off_c, 0, 79, 45
1, 1896, Control_c, 0, 64, 93
1, 1916, Control_c, 0, 64, 71
1, 1920, Note_on_c, 0, 80, 63
1, 1920, Control_c, 0, 64, 52
1, 1925, Note_on_c, 0, 68, 72
1, 1935, Control_c, 0, 64, 36
1, 1951, Note_off_c, 0, 80, 67
1, 1951, Control_c, 0, 64, 30
1, 1989, Note_on_c, 0, 81, 68
1, 2009, Control_c, 0, 64, 42
1, 2029, Control_c, 0, 64, 57
1, 2037, Note_off_c, 0, 81, 61
1, 2048, Control_c, 0, 64, 70
1, 2049, Note_on_c, 0, 80, 68
1, 2066, Control_c, 0, 64, 87
1, 2085, Control_c, 0, 64, 127
1, 2111, Note_off_c, 0, 80, 61
1, 2120, Note_off_c, 0, 59, 61
1, 2124, Note_on_c, 0, 82, 66
1, 2131, Note_off_c, 0, 62, 61
1, 2155, Note_off_c, 0, 82, 65
1, 2178, Note_on_c, 0, 83, 61
1, 2221, Note_off_c, 0, 83, 67
1, 2221, Note_on_c, 0, 81, 23
1, 2236, Note_on_c, 0, 84, 74
1, 2266, Note_off_c, 0, 84, 64
1, 2281, Note_off_c, 0, 81, 51
1, 2315, Note_on_c, 0, 83, 80
1, 2374, Note_off_c, 0, 83, 61
1, 2377, Note_on_c, 0, 86, 78
1, 2384, Control_c, 0, 64, 98
1, 2402, Control_c, 0, 64, 78
1, 2421, Control_c, 0, 64, 60
1, 2432, Note_off_c, 0, 86, 50
1, 2433, Note_on_c, 0, 60, 51
1, 2435, Note_on_c, 0, 63, 49
1, 2439, Control_c, 0, 64, 41
1, 2457, Control_c, 0, 64, 31
1, 2459, Note_on_c, 0, 84, 72
1, 2513, Note_off_c, 0, 84, 65
1, 2514, Control_c, 0, 64, 42
1, 2521, Note_on_c, 0, 85, 77
1, 2533, Control_c, 0, 64, 56
1, 2552, Control_c, 0, 64, 69
1, 2570, Control_c, 0, 64, 84
1, 2589, Note_off_c, 0, 85, 60
1, 2589, Control_c, 0, 64, 106
1, 2590, Note_on_c, 0, 84, 71
1, 2608, Control_c, 0, 64, 127
1, 2635, Note_off_c, 0, 68, 51
1, 2656, Note_off_c, 0, 84, 63
1, 2661, Note_on_c, 0, 86, 81
1, 2726, Note_off_c, 0, 86, 60
1, 2733, Note_off_c, 0, 63, 58
1, 2739, Note_on_c, 0, 87, 71
1, 2747, Note_on_c, 0, 67, 71
1, 2767, Note_off_c, 0, 87, 72
1, 2816, Note_on_c, 0, 89, 73
1, 2832, Control_c, 0, 64, 104
1, 2851, Control_c, 0, 64, 87
1, 2863, Note_off_c, 0, 89, 64
1, 2870, Control_c, 0, 64, 73
1, 2872, Note_on_c, 0, 87, 75
1, 2888, Control_c, 0, 64, 64
1, 2907, Control_c, 0, 64, 62
1, 2926, Control_c, 0, 64, 64
1, 2938, Note_off_c, 0, 87, 63
1, 2941, Note_on_c, 0, 90, 69
1, 2944, Control_c, 0, 64, 70
1, 2964, Control_c, 0, 64, 78
1, 2972, Note_off_c, 0, 90, 68
1, 2974, Note_off_c, 0, 67, 38
1, 2975, Note_off_c, 0, 60, 61
1, 2983, Control_c, 0, 64, 89
1, 2993, Note_on_c, 0, 63, 58
1, 3002, Control_c, 0, 64, 98
1, 3003, Note_on_c, 0, 91, 76
1, 3042, Note_off_c, 0, 91, 61
1, 3061, Note_on_c, 0, 92, 77
1, 3111, Note_off_c, 0, 92, 52
1, 3115, Poly_aftertouch_c, 0, 53, 24
1, 3132, Note_on_c, 0, 91, 74
1, 3150, Control_c, 0, 64, 94
1, 3164, Note_off_c, 0, 91, 64
1, 3168, Control_c, 0, 64, 87
1, 3177, Note_on_c, 0, 95, 80
1, 3188, Control_c, 0, 64, 74
1, 3206, Note_off_c, 0, 95, 71
1, 3206, Control_c, 0, 64, 60
1, 3225, Control_c, 0, 64, 48
1, 3244, Control_c, 0, 64, 40
1, 3258, Note_on_c, 0, 96, 86
1, 3261, Note_off_c, 0, 63, 52
1, 3261, Control_c, 0, 64, 33
1, 3269, Note_on_c, 0, 60, 30
1, 3281, Control_c, 0, 64, 27
1, 3318, Note_on_c, 0, 97, 76
1, 3319, Note_off_c, 0, 96, 64
1, 3319, Control_c, 0, 64, 32
1, 3320, Note_off_c, 0, 53, 22
1, 3320, Poly_aftertouch_c, 0, 53, 0
1, 3337, Control_c, 0, 64, 45
1, 3357, Control_c, 0, 64, 57
1, 3374, Control_c, 0, 64, 63
1, 3380, Note_off_c, 0, 97, 59
1, 3394, Control_c, 0, 64, 67
1, 3400, Note_on_c, 0, 98, 61
1, 3409, Note_off_c, 0, 60, 53
1, 3409, Note_on_c, 0, 96, 65
1, 3413, Control_c, 0, 64, 72
1, 3430, Control_c, 0, 64, 82
1, 3435, Note_off_c, 0, 98, 65
1, 3449, Control_c, 0, 64, 97
1, 3469, Control_c, 0, 64, 118
1, 3473, Note_on_c, 0, 99, 80
1, 3482, Note_off_c, 0, 96, 55
1, 3486, Control_c, 0, 64, 127
1, 3523, Note_on_c, 0, 98, 81
1, 3533, Note_off_c, 0, 99, 61
1, 3602, Note_off_c, 0, 98, 62
1, 3606, Note_on_c, 0, 99, 76
1, 3653, Note_on_c, 0, 98, 61
1, 3676, Note_on_c, 0, 97, 75
1, 3691, Note_off_c, 0, 99, 64
1, 3700, Note_off_c, 0, 98, 62
1, 3735, Note_off_c, 0, 97, 63
1, 3740, Note_on_c, 0, 96, 78
1, 3803, Control_c, 0, 64, 105
1, 3808, Note_on_c, 0, 95, 73
1, 3817, Note_off_c, 0, 96, 60
1, 3822, Control_c, 0, 64, 94
1, 3843, Control_c, 0, 64, 84
1, 3861, Control_c, 0, 64, 74
1, 3866, Note_on_c, 0, 96, 65
1, 3870, Note_off_c, 0, 95, 62
1, 3880, Control_c, 0, 64, 63
1, 3900, Control_c, 0, 64, 51
1, 3910, Note_on_c, 0, 94, 81
1, 3916, Control_c, 0, 64, 42
1, 3918, Note_off_c, 0, 96, 66
1, 3936, Control_c, 0, 64, 36
1, 3954, Control_c, 0, 64, 31
1, 3971, Note_off_c, 0, 94, 65
1, 3973, Note_on_c, 0, 93, 72
1, 3992, Control_c, 0, 64, 37
1, 4011, Control_c, 0, 64, 49
1, 4029, Control_c, 0, 64, 57
1, 4045, Note_off_c, 0, 93, 62
1, 4048, Control_c, 0, 64, 59
1, 4054, Note_on_c, 0, 92, 68
1, 4084, Control_c, 0, 64, 57
1, 4098, Note_on_c, 0, 93, 60
1, 4103, Control_c, 0, 64, 50
1, 4117, Note_off_c, 0, 92, 63
1, 4121, Control_c, 0, 64, 38
1, 4141, Control_c, 0, 64, 29
1, 4163, Note_off_c, 0, 93, 63
1, 4174, Note_on_c, 0, 91, 59
1, 4197, Control_c, 0, 64, 38
1, 4216, Control_c, 0, 64, 54
1, 4217, Note_off_c, 0, 91, 64
1, 4234, Control_c, 0, 64, 64
1, 4244, Note_on_c, 0, 90, 59
1, 4254, Control_c, 0, 64, 74
1, 4272, Control_c, 0, 64, 86
1, 4291, Control_c, 0, 64, 104
1, 4294, Note_off_c, 0, 90, 60
1, 4310, Control_c, 0, 64, 127
1, 4319, Note_on_c, 0, 89, 63
1, 4355, Note_off_c, 0, 89, 65
1, 4386, Note_on_c, 0, 90, 48
1, 4433, Note_off_c, 0, 90, 65
1, 4465, Note_on_c, 0, 88, 56
1, 4512, Note_off_c, 0, 88, 61
1, 4546, Note_on_c, 0, 87, 57
1, 4598, Note_off_c, 0, 87, 60
1, 4634, Note_on_c, 0, 86, 55
1, 4681, Note_off_c, 0, 86, 61
1, 4720, Note_on_c, 0, 87, 45
1, 4780, Note_off_c, 0, 87, 63
1, 4795, Note_on_c, 0, 85, 54
1, 4834, Note_off_c, 0, 85, 66
1, 4891, Note_on_c, 0, 84, 44
1, 4958, Note_off_c, 0, 84, 46
1, 4981, Note_on_c, 0, 83, 42
1, 5038, Note_off_c, 0, 83, 48
1, 5078, Note_on_c, 0, 53, 24
1, 5085, Note_on_c, 0, 84, 56
1, 5161, Note_off_c, 0, 84, 58
1, 5173, Note_on_c, 0, 57, 24
1, 5184, Note_on_c, 0, 82, 56
1, 5263, Note_on_c, 0, 60, 41
1, 5283, Note_off_c, 0, 82, 61
1, 5310, Note_on_c, 0, 63, 50
1, 5324, Note_on_c, 0, 81, 49
1, 5324, Poly_aftertouch_c, 0, 53, 24
1, 5417, Note_off_c, 0, 81, 53
1, 5441, Note_on_c, 0, 66, 70
1, 5454, Note_on_c, 0, 80, 47
1, 5515, Note_on_c, 0, 81, 47
1, 5535, Note_off_c, 0, 80, 53
1, 5564, Note_off_c, 0, 81, 64
1, 5587, Poly_aftertouch_c, 0, 53, 22
1, 5590, Note_off_c, 0, 60, 50
1, 5597, Note_on_c, 0, 79, 50
1, 5613, Note_off_c, 0, 63, 61
1, 5630, Note_off_c, 0, 79, 60
1, 5650, Note_on_c, 0, 78, 63
1, 5697, Note_off_c, 0, 78, 63
1, 5733, Note_on_c, 0, 77, 60
1, 5771, Note_off_c, 0, 77, 65
1, 5790, Note_on_c, 0, 78, 63
1, 5850, Poly_aftertouch_c, 0, 53, 32
1, 5861, Note_on_c, 0, 75, 67
1, 5863, Note_off_c, 0, 78, 63
1, 5891, Note_off_c, 0, 75, 70
1, 5920, Note_off_c, 0, 66, 38
1, 5923, Note_on_c, 0, 74, 62
1, 5943, Note_on_c, 0, 62, 64
1, 5956, Note_on_c, 0, 58, 50
1, 5958, Note_off_c, 0, 57, 42
1, 5995, Note_off_c, 0, 74, 56
1, 6008, Note_on_c, 0, 73, 62
1, 6079, Note_on_c, 0, 74, 56
1, 6086, Note_off_c, 0, 73, 62
1, 6113, Poly_aftertouch_c, 0, 53, 24
1, 6117, Note_off_c, 0, 74, 65
1, 6121, Note_on_c, 0, 72, 62
1, 6172, Note_off_c, 0, 72, 59
1, 6199, Note_off_c, 0, 62, 60
1, 6208, Note_on_c, 0, 70, 63
1, 6211, Note_on_c, 0, 65, 69
1, 6221, Note_off_c, 0, 58, 61
1, 6236, Note_off_c, 0, 70, 58
1, 6272, Control_c, 0, 64, 104
1, 6291, Note_on_c, 0, 69, 64
1, 6291, Control_c, 0, 64, 89
1, 6310, Control_c, 0, 64, 76
1, 6328, Control_c, 0, 64, 63
1, 6337, Note_on_c, 0, 70, 58
1, 6347, Control_c, 0, 64, 45
1, 6350, Note_off_c, 0, 69, 54
1, 6367, Control_c, 0, 64, 21
1, 6375, Poly_aftertouch_c, 0, 53, 32
1, 6384, Control_c, 0, 64, 0
1, 6427, Note_off_c, 0, 70, 66
1, 6428, Note_on_c, 0, 68, 64
1, 6481, Note_off_c, 0, 68, 60
1, 6516, Note_on_c, 0, 67, 61
1, 6518, Note_off_c, 0, 65, 57
1, 6537, Note_on_c, 0, 61, 55
1, 6572, Note_off_c, 0, 67, 61
1, 6637, Poly_aftertouch_c, 0, 66, 0
1, 6637, Poly_aftertouch_c, 0, 53, 24
1, 6689, Note_on_c, 0, 67, 36
1, 6734, Note_off_c, 0, 67, 47
1, 6742, Note_on_c, 0, 65, 56
1, 6793, Note_off_c, 0, 65, 64
1, 6859, Note_on_c, 0, 73, 53
1, 6868, Note_off_c, 0, 61, 52
1, 6869, Poly_aftertouch_c, 0, 61, 0
1, 6884, Note_off_c, 0, 53, 19
1, 6884, Poly_aftertouch_c, 0, 53, 0
1, 6885, Poly_aftertouch_c, 0, 53, 0
1, 6889, Note_on_c, 0, 58, 42
1, 6937, Note_off_c, 0, 73, 54
1, 6959, Note_on_c, 0, 70, 56
1, 7007, Note_off_c, 0, 70, 71
1, 7054, Note_on_c, 0, 67, 53
1, 7108, Note_off_c, 0, 67, 64
1, 7123, Note_off_c, 0, 58, 46
1, 7158, Note_on_c, 0, 65, 42
1, 7215, Note_on_c, 0, 53, 20
1, 7245, Note_on_c, 0, 55, 40
1, 7328, Note_off_c, 0, 65, 55
1, 7331, Note_on_c, 0, 58, 18
1, 7349, Note_on_c, 0, 61, 45
1, 7356, Control_c, 0, 64, 28
1, 7376, Note_on_c, 0, 64, 45
1, 7376, Control_c, 0, 64, 52
1, 7394, Control_c, 0, 64, 64
1, 7413, Control_c, 0, 64, 75
1, 7421, Note_off_c, 0, 64, 65
1, 7430, Note_off_c, 0, 61, 61
1, 7430, Control_c, 0, 64, 92
1, 7442, Note_off_c, 0, 58, 54
1, 7449, Control_c, 0, 64, 127
1, 7464, Note_off_c, 0, 55, 37
1, 7464, Poly_aftertouch_c, 0, 53, 22
1, 7475, Note_off_c, 0, 53, 40
1, 7475, Poly_aftertouch_c, 0, 53, 0
1, 7917, Control_c, 0, 64, 81
1, 7937, Control_c, 0, 64, 50
1, 7956, Control_c, 0, 64, 0
1, 8225, Note_on_c, 0, 97, 71
1, 8232, Note_on_c, 0, 88, 61
1, 8234, Note_on_c, 0, 91, 54
1, 8261, Note_off_c, 0, 91, 62
1, 8269, Note_off_c, 0, 88, 65
1, 8272, Note_off_c, 0, 97, 59
1, 8291, Note_on_c, 0, 94, 68
1, 8332, Note_off_c, 0, 94, 65
1, 8350, Note_on_c, 0, 81, 61
1, 8356, Note_on_c, 0, 84, 61
1, 8364, Note_on_c, 0, 90, 62
1, 8381, Note_off_c, 0, 84, 65
1, 8385, Note_off_c, 0, 81, 67
1, 8400, Note_off_c, 0, 90, 67
1, 8413, Note_on_c, 0, 87, 62
1, 8449, Note_off_c, 0, 87, 65
1, 8492, Note_on_c, 0, 82, 69
1, 8492, Note_on_c, 0, 85, 61
1, 8494, Note_on_c, 0, 91, 77
1, 8514, Note_off_c, 0, 85, 63
1, 8516, Note_off_c, 0, 82, 70
1, 8546, Note_on_c, 0, 88, 66
1, 8550, Note_off_c, 0, 91, 63
1, 8609, Note_off_c, 0, 88, 63
1, 8612, Note_on_c, 0, 75, 59
1, 8614, Note_on_c, 0, 84, 70
1, 8618, Note_on_c, 0, 78, 56
1, 8645, Note_off_c, 0, 84, 70
1, 8645, Note_off_c, 0, 78, 63
1, 8649, Note_off_c, 0, 75, 66
1, 8684, Note_on_c, 0, 81, 53
1, 8728, Note_off_c, 0, 81, 50
1, 8743, Note_on_c, 0, 85, 68
1, 8745, Note_on_c, 0, 79, 64
1, 8766, Note_on_c, 0, 76, 51
1, 8779, Note_off_c, 0, 79, 66
1, 8787, Note_off_c, 0, 85, 63
1, 8795, Note_off_c, 0, 76, 60
1, 8802, Note_on_c, 0, 82, 56
1, 8853, Note_off_c, 0, 82, 64
1, 8881, Note_on_c, 0, 72, 54
1, 8890, Note_on_c, 0, 78, 45
1, 8895, Note_on_c, 0, 69, 46
1, 8910, Note_off_c, 0, 72, 59
1, 8924, Note_off_c, 0, 78, 58
1, 8931, Note_off_c, 0, 69, 53
1, 8931, Note_on_c, 0, 75, 57
1, 8957, Note_off_c, 0, 75, 63
1, 9008, Note_on_c, 0, 73, 60
1, 9013, Note_on_c, 0, 79, 64
1, 9019, Note_on_c, 0, 70, 59
1, 9044, Note_off_c, 0, 73, 67
1, 9057, Note_off_c, 0, 79, 57
1, 9063, Note_off_c, 0, 70, 63
1, 9075, Note_on_c, 0, 76, 62
1, 9136, Note_off_c, 0, 76, 62
1, 9144, Note_on_c, 0, 63, 59
1, 9155, Note_on_c, 0, 72, 54
1, 9167, Note_on_c, 0, 66, 36
1, 9178, Note_off_c, 0, 63, 65
1, 9186, Note_off_c, 0, 72, 58
1, 9212, Note_on_c, 0, 69, 55
1, 9213, Note_off_c, 0, 66, 53
1, 9247, Note_off_c, 0, 69, 63
1, 9274, Note_on_c, 0, 73, 61
1, 9278, Note_on_c, 0, 67, 53
1, 9290, Note_on_c, 0, 64, 56
1, 9315, Note_off_c, 0, 73, 67
1, 9315, Note_off_c, 0, 67, 58
1, 9324, Note_off_c, 0, 64, 63
1, 9339, Note_on_c, 0, 70, 58
1, 9394, Note_off_c, 0, 70, 66
1, 9415, Note_on_c, 0, 66, 42
1, 9439, Note_on_c, 0, 57, 36
1, 9462, Note_off_c, 0, 66, 65
1, 9481, Note_off_c, 0, 57, 51
1, 9499, Note_on_c, 0, 63, 32
1, 9553, Note_off_c, 0, 63, 47
1, 9599, Note_on_c, 0, 64, 45
1, 9600, Note_on_c, 0, 67, 44
1, 9600, Note_on_c, 0, 58, 50
1, 9618, Note_on_c, 0, 61, 36
1, 9638, Note_off_c, 0, 67, 64
1, 9650, Note_off_c, 0, 64, 64
1, 9650, Note_off_c, 0, 58, 65
1, 9659, Note_off_c, 0, 61, 50
1, 9970, Control_c, 0, 64, 33
1, 9988, Control_c, 0, 64, 57
1, 10006, Control_c, 0, 64, 69
1, 10025, Control_c, 0, 64, 87
1, 10043, Control_c, 0, 64, 127
1, 10149, Note_on_c, 0, 41, 49
1, 10189, Note_off_c, 0, 41, 63
1, 10467, Note_on_c, 0, 85, 68
1, 10474, Note_on_c, 0, 67, 43
1, 10500, Note_on_c, 0, 76, 42
1, 10526, Note_on_c, 0, 73, 27
1, 10530, Note_on_c, 0, 53, 14
1, 10553, Note_off_c, 0, 67, 60
1, 10577, Note_off_c, 0, 73, 50
1, 10597, Note_off_c, 0, 53, 36
1, 10597, Poly_aftertouch_c, 0, 53, 0
1, 10599, Note_off_c, 0, 85, 63
1, 10604, Note_off_c, 0, 76, 51
1, 10622, Poly_aftertouch_c, 0, 55, 0
1, 10695, Note_on_c, 0, 67, 54
1, 10699, Note_on_c, 0, 84, 79
1, 10720, Note_on_c, 0, 73, 49
1, 10721, Note_on_c, 0, 76, 44
1, 10725, Note_on_c, 0, 61, 37
1, 10730, Note_on_c, 0, 53, 27
1, 10737, Note_off_c, 0, 67, 65
1, 10770, Note_off_c, 0, 61, 53
1, 10779, Note_off_c, 0, 73, 55
1, 10782, Note_off_c, 0, 76, 59
1, 10782, Note_off_c, 0, 84, 63
1, 10784, Note_off_c, 0, 53, 42
1, 10784, Poly_aftertouch_c, 0, 58, 127
1, 10784, Poly_aftertouch_c, 0, 53, 0
1, 10842, Poly_aftertouch_c, 0, 58, 0
1, 10880, Note_on_c, 0, 67, 46
1, 10881, Note_on_c, 0, 83, 80
1, 10884, Note_on_c, 0, 61, 51
1, 10914, Note_on_c, 0, 73, 42
1, 10917, Note_on_c, 0, 76, 45
1, 10924, Note_off_c, 0, 67, 65
1, 10934, Note_off_c, 0, 61, 61
1, 10948, Note_off_c, 0, 73, 55
1, 10964, Note_off_c, 0, 76, 51
1, 10970, Poly_aftertouch_c, 0, 58, 127
1, 10974, Note_off_c, 0, 83, 62
1, 11047, Note_on_c, 0, 67, 50
1, 11052, Control_c, 0, 64, 111
1, 11056, Note_on_c, 0, 82, 79
1, 11058, Note_on_c, 0, 61, 50
1, 11066, Note_on_c, 0, 73, 44
1, 11070, Control_c, 0, 64, 79
1, 11076, Note_on_c, 0, 76, 50
1, 11090, Poly_aftertouch_c, 0, 53, 127
1, 11090, Control_c, 0, 64, 57
1, 11100, Note_off_c, 0, 67, 61
1, 11108, Control_c, 0, 64, 43
1, 11109, Note_off_c, 0, 61, 60
1, 11119, Note_off_c, 0, 73, 47
1, 11122, Note_off_c, 0, 76, 49
1, 11127, Control_c, 0, 64, 48
1, 11135, Poly_aftertouch_c, 0, 53, 0
1, 11140, Poly_aftertouch_c, 0, 58, 0
1, 11146, Control_c, 0, 64, 56
1, 11148, Note_off_c, 0, 82, 60
1, 11165, Control_c, 0, 64, 64
1, 11184, Control_c, 0, 64, 72
1, 11202, Control_c, 0, 64, 84
1, 11222, Control_c, 0, 64, 92
1, 11233, Note_on_c, 0, 85, 80
1, 11235, Note_on_c, 0, 67, 44
1, 11241, Control_c, 0, 64, 85
1, 11250, Note_on_c, 0, 61, 40
1, 11255, Note_on_c, 0, 76, 37
1, 11260, Control_c, 0, 64, 67
1, 11267, Note_on_c, 0, 73, 31
1, 11274, Note_off_c, 0, 67, 57
1, 11277, Control_c, 0, 64, 49
1, 11279, Note_on_c, 0, 53, 19
1, 11295, Note_off_c, 0, 61, 51
1, 11296, Control_c, 0, 64, 44
1, 11310, Note_off_c, 0, 73, 46
1, 11313, Note_off_c, 0, 76, 46
1, 11316, Control_c, 0, 64, 47
1, 11334, Control_c, 0, 64, 50
1, 11350, Note_off_c, 0, 53, 26
1, 11352, Note_off_c, 0, 85, 50
1, 11371, Control_c, 0, 64, 46
1, 11390, Control_c, 0, 64, 40
1, 11408, Control_c, 0, 64, 26
1, 11426, Control_c, 0, 64, 0
1, 11429, Note_on_c, 0, 67, 25
1, 11439, Note_on_c, 0, 61, 25
1, 11455, Note_on_c, 0, 53, 34
1, 11463, Note_on_c, 0, 84, 57
1, 11469, Note_on_c, 0, 73, 17
1, 11480, Note_on_c, 0, 58, 20
1, 11524, Note_off_c, 0, 84, 62
1, 11528, Note_off_c, 0, 73, 49
1, 11545, Note_on_c, 0, 83, 54
1, 11568, Note_off_c, 0, 58, 42
1, 11603, Note_off_c, 0, 53, 35
1, 11622, Note_off_c, 0, 61, 35
1, 11626, Note_off_c, 0, 67, 43
1, 11648, Note_off_c, 0, 83, 61
1, 11682, Note_on_c, 0, 82, 48
1, 11819, Control_c, 0, 64, 18
1, 11839, Control_c, 0, 64, 39
1, 11857, Control_c, 0, 64, 54
1, 11876, Control_c, 0, 64, 60
1, 11894, Control_c, 0, 64, 64
1, 11914, Control_c, 0, 64, 70
1, 11933, Control_c, 0, 64, 80
1, 11951, Control_c, 0, 64, 93
1, 11970, Control_c, 0, 64, 104
1, 11989, Control_c, 0, 64, 110
1, 11992, Note_off_c, 0, 82, 41
1, 12138, Control_c, 0, 64, 106
1, 12175, Control_c, 0, 64, 99
1, 12194, Control_c, 0, 64, 94
1, 12212, Control_c, 0, 64, 88
1, 12230, Control_c, 0, 64, 81
1, 12251, Control_c, 0, 64, 72
1, 12269, Control_c, 0, 64, 64
1, 12287, Control_c, 0, 64, 56
1, 12306, Control_c, 0, 64, 49
1, 12325, Control_c, 0, 64, 41
1, 12343, Control_c, 0, 64, 30
1, 12363, Control_c, 0, 64, 15
1, 12381, Control_c, 0, 64, 0
1, 12737, Note_on_c, 0, 99, 80
1, 12752, Note_on_c, 0, 93, 59
1, 12752, Note_on_c, 0, 90, 68
1, 12778, Note_off_c, 0, 93, 63
1, 12801, Note_on_c, 0, 96, 77
1, 12805, Note_off_c, 0, 90, 64
1, 12810, Note_off_c, 0, 99, 62
1, 12855, Note_on_c, 0, 83, 65
1, 12866, Note_on_c, 0, 86, 63
1, 12870, Note_on_c, 0, 92, 80
1, 12883, Note_off_c, 0, 96, 63
1, 12884, Note_off_c, 0, 83, 70
1, 12900, Note_off_c, 0, 86, 68
1, 12932, Note_off_c, 0, 92, 66
1, 12941, Note_on_c, 0, 89, 68
1, 12977, Note_on_c, 0, 87, 72
1, 12985, Note_on_c, 0, 84, 76
1, 12987, Note_on_c, 0, 93, 86
1, 13006, Note_off_c, 0, 89, 55
1, 13006, Note_off_c, 0, 87, 71
1, 13015, Note_off_c, 0, 84, 68
1, 13047, Note_on_c, 0, 90, 75
1, 13070, Note_off_c, 0, 93, 65
1, 13094, Note_on_c, 0, 78, 56
1, 13103, Note_on_c, 0, 80, 67
1, 13104, Note_on_c, 0, 86, 81
1, 13126, Note_off_c, 0, 78, 43
1, 13127, Note_off_c, 0, 90, 65
1, 13135, Note_off_c, 0, 80, 71
1, 13138, Note_off_c, 0, 86, 63
1, 13151, Note_on_c, 0, 77, 13
1, 13176, Note_on_c, 0, 83, 68
1, 13223, Note_on_c, 0, 81, 72
1, 13228, Note_on_c, 0, 87, 72
1, 13229, Note_on_c, 0, 78, 67
1, 13231, Note_off_c, 0, 83, 55
1, 13234, Note_off_c, 0, 77, 27
1, 13258, Note_off_c, 0, 81, 65
1, 13270, Note_off_c, 0, 78, 62
1, 13294, Note_off_c, 0, 87, 56
1, 13294, Note_on_c, 0, 84, 69
1, 13349, Note_on_c, 0, 74, 64
1, 13353, Note_on_c, 0, 80, 68
1, 13357, Note_on_c, 0, 71, 57
1, 13364, Note_off_c, 0, 84, 63
1, 13383, Note_off_c, 0, 74, 64
1, 13394, Note_off_c, 0, 71, 63
1, 13405, Note_off_c, 0, 80, 60
1, 13417, Note_on_c, 0, 77, 62
1, 13457, Note_off_c, 0, 77, 62
1, 13485, Note_on_c, 0, 75, 60
1, 13488, Note_on_c, 0, 81, 61
1, 13500, Note_on_c, 0, 72, 58
1, 13510, Note_off_c, 0, 75, 65
1, 13536, Note_off_c, 0, 72, 63
1, 13541, Note_off_c, 0, 81, 63
1, 13550, Note_on_c, 0, 78, 64
1, 13619, Note_on_c, 0, 74, 66
1, 13623, Note_off_c, 0, 78, 62
1, 13641, Note_on_c, 0, 65, 53
1, 13641, Note_on_c, 0, 68, 47
1, 13654, Note_off_c, 0, 74, 68
1, 13673, Note_off_c, 0, 65, 61
1, 13677, Note_off_c, 0, 68, 60
1, 13690, Note_on_c, 0, 71, 60
1, 13737, Note_off_c, 0, 71, 61
1, 13761, Note_on_c, 0, 75, 61
1, 13781, Note_on_c, 0, 69, 46
1, 13794, Note_on_c, 0, 66, 53
1, 13817, Note_off_c, 0, 69, 55
1, 13818, Note_off_c, 0, 75, 58
1, 13833, Note_off_c, 0, 66, 66
1, 13849, Note_on_c, 0, 72, 48
1, 13905, Note_off_c, 0, 72, 60
1, 13926, Note_on_c, 0, 68, 63
1, 13931, Note_on_c, 0, 59, 41
1, 13966, Note_off_c, 0, 68, 64
1, 13971, Note_off_c, 0, 59, 49
1, 14021, Note_on_c, 0, 65, 50
1, 14107, Note_off_c, 0, 65, 58
1, 14165, Note_on_c, 0, 69, 43
1, 14168, Note_on_c, 0, 66, 37
1, 14182, Note_on_c, 0, 63, 31
1, 14193, Note_on_c, 0, 60, 33
1, 14213, Control_c, 0, 64, 17
1, 14231, Control_c, 0, 64, 40
1, 14252, Control_c, 0, 64, 57
1, 14258, Note_off_c, 0, 66, 52
1, 14264, Note_off_c, 0, 69, 60
1, 14266, Note_off_c, 0, 63, 61
1, 14271, Control_c, 0, 64, 66
1, 14288, Control_c, 0, 64, 76
1, 14294, Note_off_c, 0, 60, 53
1, 14307, Control_c, 0, 64, 91
1, 14325, Control_c, 0, 64, 127
1, 14717, Control_c, 0, 64, 104
1, 14737, Control_c, 0, 64, 90
1, 14755, Control_c, 0, 64, 76
1, 14774, Control_c, 0, 64, 58
1, 14794, Control_c, 0, 64, 35
1, 14812, Control_c, 0, 64, 17
1, 14850, Control_c, 0, 64, 22
1, 14868, Control_c, 0, 64, 39
1, 14882, Note_on_c, 0, 41, 63
1, 14887, Control_c, 0, 64, 59
1, 14904, Control_c, 0, 64, 76
1, 14924, Control_c, 0, 64, 117
1, 14929, Note_off_c, 0, 41, 63
1, 14942, Control_c, 0, 64, 127
1, 15196, Note_on_c, 0, 60, 37
1, 15196, Note_on_c, 0, 63, 45
1, 15200, Note_on_c, 0, 69, 51
1, 15207, Note_on_c, 0, 90, 82
1, 15230, Note_on_c, 0, 81, 54
1, 15236, Note_on_c, 0, 78, 53
1, 15278, Note_off_c, 0, 60, 53
1, 15294, Note_off_c, 0, 69, 53
1, 15300, Note_off_c, 0, 63, 44
1, 15379, Note_off_c, 0, 78, 36
1, 15384, Note_off_c, 0, 90, 64
1, 15449, Note_off_c, 0, 81, 43
1, 15469, Note_on_c, 0, 60, 54
1, 15474, Note_on_c, 0, 69, 57
1, 15475, Note_on_c, 0, 63, 52
1, 15486, Note_on_c, 0, 89, 82
1, 15499, Note_on_c, 0, 81, 45
1, 15500, Note_on_c, 0, 78, 65
1, 15516, Note_on_c, 0, 88, 51
1, 15517, Note_off_c, 0, 88, 127
1, 15540, Note_off_c, 0, 60, 52
1, 15543, Note_off_c, 0, 63, 52
1, 15548, Note_off_c, 0, 69, 54
1, 15554, Poly_aftertouch_c, 0, 88, 0
1, 15575, Note_off_c, 0, 89, 63
1, 15595, Note_off_c, 0, 78, 58
1, 15638, Note_off_c, 0, 81, 45
1, 15671, Note_on_c, 0, 88, 86
1, 15689, Note_on_c, 0, 60, 56
1, 15694, Note_on_c, 0, 63, 54
1, 15696, Note_on_c, 0, 69, 55
1, 15710, Note_on_c, 0, 78, 48
1, 15711, Note_on_c, 0, 81, 32
1, 15734, Note_off_c, 0, 60, 63
1, 15735, Note_off_c, 0, 69, 63
1, 15741, Note_off_c, 0, 63, 64
1, 15759, Note_off_c, 0, 78, 50
1, 15769, Note_off_c, 0, 88, 65
1, 15783, Note_off_c, 0, 81, 52
1, 15846, Note_on_c, 0, 69, 61
1, 15848, Note_on_c, 0, 60, 54
1, 15850, Note_on_c, 0, 63, 60
1, 15850, Note_on_c, 0, 87, 90
1, 15871, Note_on_c, 0, 78, 55
1, 15888, Note_off_c, 0, 60, 67
1, 15893, Note_off_c, 0, 69, 61
1, 15895, Note_off_c, 0, 63, 64
1, 15912, Note_off_c, 0, 78, 50
1, 15933, Poly_aftertouch_c, 0, 81, 127
1, 15948, Note_off_c, 0, 87, 65
1, 15968, Poly_aftertouch_c, 0, 81, 0
1, 16015, Note_on_c, 0, 69, 56
1, 16019, Note_on_c, 0, 60, 56
1, 16025, Note_on_c, 0, 90, 87
1, 16026, Note_on_c, 0, 63, 45
1, 16045, Note_on_c, 0, 78, 43
1, 16052, Note_on_c, 0, 81, 39
1, 16053, Note_off_c, 0, 69, 65
1, 16058, Note_off_c, 0, 60, 64
1, 16060, Note_off_c, 0, 63, 58
1, 16082, Note_off_c, 0, 78, 57
1, 16101, Note_off_c, 0, 81, 49
1, 16121, Note_off_c, 0, 90, 64
1, 16167, Note_on_c, 0, 60, 49
1, 16178, Note_on_c, 0, 63, 45
1, 16198, Note_on_c, 0, 69, 55
1, 16233, Control_c, 0, 64, 87
1, 16245, Note_on_c, 0, 89, 76
1, 16253, Note_on_c, 0, 81, 40
1, 16253, Control_c, 0, 64, 66
1, 16268, Note_on_c, 0, 78, 24
1, 16268, Control_c, 0, 64, 51
1, 16289, Control_c, 0, 64, 46
1, 16325, Control_c, 0, 64, 53
1, 16327, Note_on_c, 0, 88, 77
1, 16333, Note_off_c, 0, 78, 55
1, 16344, Control_c, 0, 64, 61
1, 16363, Control_c, 0, 64, 73
1, 16364, Note_off_c, 0, 89, 64
1, 16379, Note_off_c, 0, 81, 39
1, 16381, Control_c, 0, 64, 94
1, 16400, Control_c, 0, 64, 127
1, 16415, Note_on_c, 0, 87, 83
1, 16453, Note_off_c, 0, 88, 64
1, 16458, Note_off_c, 0, 60, 25
1, 16477, Note_off_c, 0, 69, 35
1, 16489, Note_off_c, 0, 87, 66
1, 16559, Note_off_c, 0, 63, 43
1, 16718, Control_c, 0, 64, 103
1, 16737, Control_c, 0, 64, 86
1, 16756, Control_c, 0, 64, 71
1, 16774, Control_c, 0, 64, 56
1, 16794, Control_c, 0, 64, 42
1, 16809, Note_on_c, 0, 60, 41
1, 16813, Note_on_c, 0, 69, 40
1, 16814, Control_c, 0, 64, 36
1, 16818, Note_on_c, 0, 63, 41
1, 16847, Note_on_c, 0, 87, 78
1, 16858, Note_on_c, 0, 75, 56
1, 16865, Note_on_c, 0, 78, 56
1, 16868, Control_c, 0, 64, 41
1, 16887, Control_c, 0, 64, 53
1, 16891, Note_off_c, 0, 60, 49
1, 16906, Control_c, 0, 64, 64
1, 16924, Control_c, 0, 64, 76
1, 16938, Note_off_c, 0, 69, 49
1, 16941, Control_c, 0, 64, 92
1, 16950, Note_off_c, 0, 63, 41
1, 16962, Control_c, 0, 64, 119
1, 16970, Note_off_c, 0, 75, 46
1, 16980, Control_c, 0, 64, 127
1, 16981, Note_off_c, 0, 78, 55
1, 17004, Note_off_c, 0, 87, 63
1, 17063, Note_on_c, 0, 86, 87
1, 17074, Note_on_c, 0, 60, 49
1, 17094, Note_on_c, 0, 63, 45
1, 17094, Note_on_c, 0, 69, 49
1, 17095, Note_on_c, 0, 75, 66
1, 17111, Note_on_c, 0, 78, 50
1, 17115, Note_off_c, 0, 60, 62
1, 17132, Note_off_c, 0, 69, 58
1, 17132, Note_off_c, 0, 63, 61
1, 17135, Note_off_c, 0, 75, 61
1, 17155, Note_off_c, 0, 78, 59
1, 17179, Note_off_c, 0, 86, 63
1, 17235, Note_on_c, 0, 60, 51
1, 17238, Note_on_c, 0, 85, 91
1, 17240, Note_on_c, 0, 63, 58
1, 17242, Note_on_c, 0, 69, 60
1, 17249, Note_on_c, 0, 78, 73
1, 17264, Note_on_c, 0, 75, 48
1, 17283, Note_off_c, 0, 60, 62
1, 17283, Note_off_c, 0, 63, 64
1, 17286, Note_off_c, 0, 78, 63
1, 17286, Note_off_c, 0, 69, 61
1, 17292, Note_off_c, 0, 75, 60
1, 17332, Note_off_c, 0, 85, 64
1, 17373, Control_c, 0, 64, 87
1, 17391, Note_on_c, 0, 84, 82
1, 17391, Control_c, 0, 64, 64
1, 17407, Note_on_c, 0, 60, 45
1, 17410, Control_c, 0, 64, 51
1, 17411, Note_on_c, 0, 75, 43
1, 17417, Note_on_c, 0, 69, 56
1, 17418, Note_on_c, 0, 63, 49
1, 17418, Note_on_c, 0, 78, 53
1, 17448, Control_c, 0, 64, 58
1, 17451, Note_off_c, 0, 75, 56
1, 17456, Note_off_c, 0, 78, 55
1, 17462, Note_off_c, 0, 60, 61
1, 17467, Control_c, 0, 64, 66
1, 17469, Note_off_c, 0, 69, 60
1, 17469, Note_off_c, 0, 63, 63
1, 17485, Control_c, 0, 64, 79
1, 17505, Control_c, 0, 64, 105
1, 17508, Note_off_c, 0, 84, 63
1, 17521, Control_c, 0, 64, 127
1, 17561, Note_on_c, 0, 87, 78
1, 17564, Note_on_c, 0, 75, 51
1, 17564, Note_on_c, 0, 78, 54
1, 17579, Control_c, 0, 64, 121
1, 17593, Note_on_c, 0, 69, 40
1, 17598, Control_c, 0, 64, 106
1, 17600, Note_on_c, 0, 60, 31
1, 17608, Note_off_c, 0, 75, 52
1, 17608, Note_on_c, 0, 63, 27
1, 17612, Note_off_c, 0, 78, 60
1, 17616, Control_c, 0, 64, 100
1, 17630, Note_off_c, 0, 69, 55
1, 17640, Note_off_c, 0, 60, 54
1, 17645, Note_off_c, 0, 87, 62
1, 17664, Note_off_c, 0, 63, 55
1, 17691, Control_c, 0, 64, 95
1, 17710, Control_c, 0, 64, 87
1, 17728, Control_c, 0, 64, 74
1, 17745, Control_c, 0, 64, 59
1, 17751, Note_on_c, 0, 69, 40
1, 17754, Note_on_c, 0, 86, 63
1, 17765, Control_c, 0, 64, 44
1, 17768, Note_on_c, 0, 75, 34
1, 17769, Note_on_c, 0, 60, 30
1, 17785, Control_c, 0, 64, 36
1, 17798, Note_on_c, 0, 63, 41
1, 17810, Note_off_c, 0, 75, 53
1, 17822, Control_c, 0, 64, 32
1, 17830, Poly_aftertouch_c, 0, 78, 0
1, 17848, Note_on_c, 0, 85, 74
1, 17858, Control_c, 0, 64, 46
1, 17861, Note_off_c, 0, 60, 49
1, 17878, Control_c, 0, 64, 59
1, 17882, Note_off_c, 0, 86, 52
1, 17897, Control_c, 0, 64, 69
1, 17915, Control_c, 0, 64, 80
1, 17934, Control_c, 0, 64, 91
1, 17943, Note_off_c, 0, 85, 63
1, 17951, Note_on_c, 0, 84, 61
1, 17951, Control_c, 0, 64, 99
1, 17963, Note_off_c, 0, 63, 29
1, 17963, Note_off_c, 0, 69, 34
1, 17971, Control_c, 0, 64, 106
1, 17989, Control_c, 0, 64, 111
1, 17995, Note_off_c, 0, 84, 64
1, 18027, Control_c, 0, 64, 116
1, 18159, Control_c, 0, 64, 111
1, 18195, Control_c, 0, 64, 105
1, 18214, Control_c, 0, 64, 100
1, 18233, Control_c, 0, 64, 92
1, 18251, Control_c, 0, 64, 80
1, 18271, Control_c, 0, 64, 66
1, 18289, Control_c, 0, 64, 51
1, 18307, Control_c, 0, 64, 41
1, 18342, Note_on_c, 0, 84, 70
1, 18343, Note_on_c, 0, 69, 40
1, 18345, Control_c, 0, 64, 37
1, 18354, Note_on_c, 0, 75, 55
1, 18354, Note_on_c, 0, 63, 36
1, 18367, Note_on_c, 0, 66, 27
1, 18368, Note_on_c, 0, 72, 41
1, 18383, Control_c, 0, 64, 46
1, 18393, Note_off_c, 0, 69, 59
1, 18399, Note_off_c, 0, 63, 58
1, 18399, Control_c, 0, 64, 57
1, 18400, Note_off_c, 0, 75, 63
1, 18404, Note_off_c, 0, 72, 57
1, 18414, Note_off_c, 0, 66, 54
1, 18416, Note_off_c, 0, 84, 62
1, 18419, Control_c, 0, 64, 67
1, 18441, Control_c, 0, 64, 77
1, 18457, Control_c, 0, 64, 88
1, 18475, Control_c, 0, 64, 95
1, 18526, Note_on_c, 0, 63, 49
1, 18561, Note_on_c, 0, 66, 35
1, 18569, Control_c, 0, 64, 90
1, 18578, Note_on_c, 0, 83, 53
1, 18587, Control_c, 0, 64, 78
1, 18595, Note_on_c, 0, 69, 34
1, 18605, Control_c, 0, 64, 65
1, 18620, Note_on_c, 0, 72, 10
1, 18625, Control_c, 0, 64, 56
1, 18630, Note_on_c, 0, 75, 36
1, 18663, Control_c, 0, 64, 59
1, 18667, Note_off_c, 0, 75, 56
1, 18670, Note_off_c, 0, 83, 58
1, 18676, Note_on_c, 0, 82, 67
1, 18681, Control_c, 0, 64, 64
1, 18691, Note_off_c, 0, 69, 58
1, 18699, Control_c, 0, 64, 70
1, 18703, Note_off_c, 0, 72, 47
1, 18717, Note_off_c, 0, 66, 43
1, 18719, Control_c, 0, 64, 79
1, 18723, Note_off_c, 0, 63, 37
1, 18739, Control_c, 0, 64, 89
1, 18741, Note_off_c, 0, 82, 64
1, 18757, Control_c, 0, 64, 98
1, 18789, Note_on_c, 0, 81, 60
1, 18829, Note_off_c, 0, 81, 62
1, 18999, Control_c, 0, 64, 92
1, 19018, Control_c, 0, 64, 85
1, 19037, Control_c, 0, 64, 75
1, 19057, Control_c, 0, 64, 65
1, 19074, Control_c, 0, 64, 58
1, 19094, Control_c, 0, 64, 53
1, 19112, Control_c, 0, 64, 49
1, 19131, Control_c, 0, 64, 43
1, 19149, Control_c, 0, 64, 38
1, 19187, Control_c, 0, 64, 34
1, 19202, Note_on_c, 0, 66, 40
1, 19206, Note_on_c, 0, 69, 45
1, 19212, Note_on_c, 0, 81, 62
1, 19220, Note_on_c, 0, 72, 50
1, 19223, Control_c, 0, 64, 43
1, 19243, Control_c, 0, 64, 55
1, 19253, Note_on_c, 0, 75, 23
1, 19259, Note_off_c, 0, 69, 61
1, 19261, Control_c, 0, 64, 64
1, 19265, Note_off_c, 0, 66, 60
1, 19277, Note_off_c, 0, 72, 61
1, 19280, Control_c, 0, 64, 71
1, 19299, Control_c, 0, 64, 79
1, 19307, Note_off_c, 0, 81, 55
1, 19309, Note_off_c, 0, 75, 44
1, 19317, Control_c, 0, 64, 86
1, 19336, Control_c, 0, 64, 92
1, 19485, Control_c, 0, 64, 82
1, 19495, Note_on_c, 0, 66, 34
1, 19504, Control_c, 0, 64, 72
1, 19507, Note_on_c, 0, 80, 59
1, 19511, Note_on_c, 0, 69, 39
1, 19523, Control_c, 0, 64, 61
1, 19543, Control_c, 0, 64, 52
1, 19560, Control_c, 0, 64, 49
1, 19581, Note_off_c, 0, 80, 63
1, 19610, Poly_aftertouch_c, 0, 75, 127
1, 19615, Control_c, 0, 64, 53
1, 19635, Control_c, 0, 64, 59
1, 19646, Note_on_c, 0, 79, 44
1, 19648, Note_off_c, 0, 69, 53
1, 19655, Control_c, 0, 64, 67
1, 19670, Note_off_c, 0, 66, 38
1, 19673, Control_c, 0, 64, 78
1, 19690, Poly_aftertouch_c, 0, 75, 0
1, 19691, Control_c, 0, 64, 91
1, 19710, Control_c, 0, 64, 103
1, 19729, Control_c, 0, 64, 107
1, 19743, Note_off_c, 0, 79, 60
1, 19771, Note_on_c, 0, 78, 54
1, 19841, Control_c, 0, 64, 103
1, 19934, Control_c, 0, 64, 99
1, 19959, Note_off_c, 0, 78, 36
1, 20028, Control_c, 0, 64, 93
1, 20065, Control_c, 0, 64, 86
1, 20085, Control_c, 0, 64, 79
1, 20102, Control_c, 0, 64, 71
1, 20123, Control_c, 0, 64, 63
1, 20139, Control_c, 0, 64, 55
1, 20158, Control_c, 0, 64, 47
1, 20177, Control_c, 0, 64, 41
1, 20197, Control_c, 0, 64, 32
1, 20214, Control_c, 0, 64, 16
1, 20234, Control_c, 0, 64, 0
1, 20476, Note_on_c, 0, 77, 54
1, 20483, Note_on_c, 0, 69, 41
1, 20486, Note_on_c, 0, 75, 36
1, 20509, Note_off_c, 0, 77, 63
1, 20509, Note_on_c, 0, 72, 14
1, 20516, Note_off_c, 0, 69, 49
1, 20522, Note_off_c, 0, 75, 51
1, 20584, Note_off_c, 0, 72, 33
1, 20789, Note_on_c, 0, 78, 66
1, 20790, Note_on_c, 0, 75, 61
1, 20811, Note_on_c, 0, 72, 44
1, 20825, Note_off_c, 0, 78, 66
1, 20830, Note_off_c, 0, 75, 64
1, 20852, Note_off_c, 0, 72, 50
1, 21044, Note_on_c, 0, 77, 72
1, 21052, Note_on_c, 0, 75, 61
1, 21059, Note_on_c, 0, 69, 53
1, 21068, Note_on_c, 0, 72, 29
1, 21077, Note_off_c, 0, 75, 64
1, 21079, Note_off_c, 0, 77, 60
1, 21089, Note_off_c, 0, 69, 60
1, 21108, Note_off_c, 0, 72, 45
1, 21257, Note_on_c, 0, 79, 68
1, 21260, Note_on_c, 0, 72, 62
1, 21261, Note_on_c, 0, 75, 56
1, 21291, Note_off_c, 0, 75, 64
1, 21299, Note_off_c, 0, 79, 59
1, 21299, Note_off_c, 0, 72, 65
1, 21440, Note_on_c, 0, 75, 56
1, 21443, Note_on_c, 0, 77, 71
1, 21444, Note_on_c, 0, 72, 51
1, 21456, Note_on_c, 0, 69, 52
1, 21467, Note_off_c, 0, 75, 64
1, 21475, Note_off_c, 0, 77, 65
1, 21485, Note_off_c, 0, 69, 59
1, 21490, Note_off_c, 0, 72, 64
1, 21605, Note_on_c, 0, 75, 64
1, 21607, Note_on_c, 0, 78, 73
1, 21617, Note_on_c, 0, 72, 65
1, 21649, Note_off_c, 0, 75, 63
1, 21653, Note_off_c, 0, 78, 62
1, 21658, Note_off_c, 0, 72, 68
1, 21791, Note_on_c, 0, 72, 55
1, 21792, Note_on_c, 0, 77, 70
1, 21796, Note_on_c, 0, 75, 58
1, 21803, Note_on_c, 0, 69, 54
1, 21821, Note_off_c, 0, 75, 64
1, 21826, Note_off_c, 0, 77, 63
1, 21828, Note_off_c, 0, 72, 61
1, 21831, Note_off_c, 0, 69, 59
1, 21959, Note_on_c, 0, 79, 68
1, 22001, Note_off_c, 0, 79, 60
1, 22100, Note_on_c, 0, 77, 66
1, 22153, Note_off_c, 0, 77, 59
1, 22230, Note_on_c, 0, 78, 66
1, 22263, Note_off_c, 0, 78, 71
1, 22328, Control_c, 0, 67, 8
1, 22348, Note_on_c, 0, 77, 66
1, 22366, Control_c, 0, 67, 12
1, 22389, Note_off_c, 0, 77, 62
1, 22403, Control_c, 0, 67, 17
1, 22440, Control_c, 0, 67, 22
1, 22483, Note_on_c, 0, 79, 66
1, 22515, Note_off_c, 0, 79, 64
1, 22612, Note_on_c, 0, 77, 61
1, 22667, Note_off_c, 0, 77, 56
1, 22739, Control_c, 0, 67, 28
1, 22755, Note_on_c, 0, 78, 59
1, 22757, Control_c, 0, 67, 33
1, 22776, Control_c, 0, 67, 38
1, 22796, Control_c, 0, 67, 45
1, 22801, Note_off_c, 0, 78, 61
1, 22814, Control_c, 0, 67, 52
1, 22832, Control_c, 0, 67, 58
1, 22851, Control_c, 0, 67, 63
1, 22870, Control_c, 0, 67, 68
1, 22888, Control_c, 0, 67, 73
1, 22907, Note_on_c, 0, 77, 51
1, 22907, Control_c, 0, 67, 77
1, 22926, Control_c, 0, 67, 82
1, 22945, Control_c, 0, 67, 87
1, 22959, Note_off_c, 0, 77, 59
1, 22962, Control_c, 0, 67, 92
1, 22982, Control_c, 0, 67, 96
1, 23019, Control_c, 0, 67, 102
1, 23069, Note_on_c, 0, 79, 52
1, 23114, Note_off_c, 0, 79, 60
1, 23235, Note_on_c, 0, 77, 50
1, 23307, Note_off_c, 0, 77, 55
1, 23345, Note_on_c, 0, 78, 58
1, 23411, Note_off_c, 0, 78, 54
1, 23451, Note_on_c, 0, 77, 60
1, 23493, Note_off_c, 0, 77, 65
1, 23517, Note_on_c, 0, 79, 59
1, 23560, Note_off_c, 0, 79, 58
1, 23611, Note_on_c, 0, 77, 65
1, 23648, Note_off_c, 0, 77, 66
1, 23679, Note_on_c, 0, 78, 58
1, 23729, Note_off_c, 0, 78, 59
1, 23769, Note_on_c, 0, 77, 64
1, 23807, Note_off_c, 0, 77, 61
1, 23846, Note_on_c, 0, 79, 53
1, 23882, Note_off_c, 0, 79, 59
1, 23925, Note_on_c, 0, 77, 62
1, 23959, Note_off_c, 0, 77, 67
1, 24009, Note_on_c, 0, 78, 52
1, 24050, Note_off_c, 0, 78, 65
1, 24079, Note_on_c, 0, 77, 63
1, 24116, Note_off_c, 0, 77, 63
1, 24165, Note_on_c, 0, 79, 48
1, 24194, Note_off_c, 0, 79, 57
1, 24237, Note_on_c, 0, 77, 64
1, 24272, Note_off_c, 0, 77, 67
1, 24316, Note_on_c, 0, 78, 54
1, 24356, Note_off_c, 0, 78, 67
1, 24388, Note_on_c, 0, 77, 63
1, 24422, Control_c, 0, 67, 106
1, 24425, Note_off_c, 0, 77, 65
1, 24477, Note_on_c, 0, 79, 47
1, 24507, Note_off_c, 0, 79, 56
1, 24547, Note_on_c, 0, 77, 61
1, 24584, Note_off_c, 0, 77, 65
1, 24628, Note_on_c, 0, 78, 51
1, 24663, Note_off_c, 0, 78, 63
1, 24701, Note_on_c, 0, 77, 61
1, 24740, Note_off_c, 0, 77, 64
1, 24779, Note_on_c, 0, 79, 52
1, 24806, Note_off_c, 0, 79, 59
1, 24852, Control_c, 0, 64, 12
1, 24858, Note_on_c, 0, 77, 63
1, 24870, Control_c, 0, 64, 34
1, 24890, Control_c, 0, 64, 52
1, 24891, Control_c, 0, 67, 101
1, 24892, Note_off_c, 0, 77, 67
1, 24908, Control_c, 0, 64, 60
1, 24926, Control_c, 0, 64, 65
1, 24927, Control_c, 0, 67, 96
1, 24944, Note_on_c, 0, 78, 53
1, 24946, Control_c, 0, 64, 71
1, 24947, Control_c, 0, 67, 91
1, 24964, Control_c, 0, 64, 80
1, 24966, Control_c, 0, 67, 84
1, 24983, Control_c, 0, 64, 90
1, 24986, Control_c, 0, 67, 76
1, 24996, Note_off_c, 0, 78, 61
1, 25001, Control_c, 0, 64, 99
1, 25002, Control_c, 0, 67, 68
1, 25022, Control_c, 0, 64, 106
1, 25023, Control_c, 0, 67, 62
1, 25030, Note_on_c, 0, 77, 52
1, 25058, Control_c, 0, 64, 110
1, 25066, Note_off_c, 0, 77, 61
1, 25090, Note_on_c, 0, 79, 64
1, 25121, Note_off_c, 0, 79, 63
1, 25227, Control_c, 0, 64, 105
1, 25260, Note_on_c, 0, 65, 38
1, 25262, Control_c, 0, 64, 101
1, 25266, Note_on_c, 0, 63, 37
1, 25276, Note_on_c, 0, 77, 65
1, 25282, Control_c, 0, 64, 97
1, 25301, Control_c, 0, 64, 88
1, 25318, Control_c, 0, 64, 76
1, 25337, Control_c, 0, 64, 62
1, 25357, Control_c, 0, 64, 44
1, 25363, Note_off_c, 0, 77, 60
1, 25374, Control_c, 0, 64, 23
1, 25384, Note_on_c, 0, 72, 56
1, 25389, Note_on_c, 0, 78, 58
1, 25392, Control_c, 0, 64, 0
1, 25397, Poly_aftertouch_c, 0, 69, 0
1, 25414, Note_off_c, 0, 72, 60
1, 25429, Note_off_c, 0, 78, 68
1, 25458, Note_on_c, 0, 77, 53
1, 25514, Note_off_c, 0, 77, 60
1, 25529, Note_on_c, 0, 72, 65
1, 25535, Note_on_c, 0, 79, 59
1, 25549, Poly_aftertouch_c, 0, 69, 0
1, 25568, Note_off_c, 0, 72, 63
1, 25574, Note_off_c, 0, 79, 66
1, 25589, Note_off_c, 0, 63, 46
1, 25589, Note_on_c, 0, 62, 38
1, 25621, Note_on_c, 0, 70, 64
1, 25623, Note_on_c, 0, 77, 53
1, 25651, Note_off_c, 0, 70, 67
1, 25675, Note_off_c, 0, 77, 45
1, 25688, Note_on_c, 0, 78, 56
1, 25697, Note_on_c, 0, 74, 64
1, 25734, Note_off_c, 0, 74, 69
1, 25754, Note_off_c, 0, 78, 61
1, 25758, Note_on_c, 0, 70, 58
1, 25775, Note_on_c, 0, 77, 72
1, 25791, Note_off_c, 0, 70, 68
1, 25794, Note_off_c, 0, 65, 45
1, 25839, Note_off_c, 0, 77, 63
1, 25839, Note_on_c, 0, 74, 64
1, 25871, Note_on_c, 0, 79, 38
1, 25873, Note_off_c, 0, 74, 68
1, 25892, Note_off_c, 0, 62, 57
1, 25912, Note_off_c, 0, 79, 47
1, 25919, Note_on_c, 0, 60, 45
1, 25930, Note_on_c, 0, 77, 71
1, 25933, Note_on_c, 0, 69, 67
1, 25934, Note_on_c, 0, 65, 47
1, 25969, Note_off_c, 0, 69, 66
1, 25997, Note_off_c, 0, 77, 58
1, 26009, Note_on_c, 0, 78, 69
1, 26019, Note_on_c, 0, 75, 64
1, 26056, Note_off_c, 0, 75, 67
1, 26060, Note_off_c, 0, 78, 60
1, 26091, Note_on_c, 0, 77, 68
1, 26096, Note_on_c, 0, 69, 61
1, 26133, Note_off_c, 0, 69, 64
1, 26165, Note_off_c, 0, 77, 62
1, 26177, Note_on_c, 0, 79, 63
1, 26180, Note_on_c, 0, 75, 66
1, 26215, Note_off_c, 0, 79, 63
1, 26231, Note_off_c, 0, 75, 61
1, 26239, Note_on_c, 0, 58, 49
1, 26242, Note_off_c, 0, 60, 51
1, 26249, Note_on_c, 0, 77, 67
1, 26273, Control_c, 0, 64, 32
1, 26284, Note_off_c, 0, 58, 66
1, 26285, Note_on_c, 0, 70, 47
1, 26291, Note_off_c, 0, 65, 51
1, 26292, Control_c, 0, 64, 51
1, 26310, Control_c, 0, 64, 60
1, 26318, Note_off_c, 0, 70, 59
1, 26323, Note_off_c, 0, 77, 63
1, 26330, Control_c, 0, 64, 66
1, 26334, Note_on_c, 0, 78, 71
1, 26341, Note_on_c, 0, 74, 66
1, 26348, Control_c, 0, 64, 70
1, 26361, Note_off_c, 0, 78, 70
1, 26366, Note_off_c, 0, 74, 63
1, 26366, Control_c, 0, 64, 75
1, 26385, Control_c, 0, 64, 78
1, 26403, Control_c, 0, 64, 81
1, 26424, Note_on_c, 0, 70, 53
1, 26440, Note_on_c, 0, 78, 67
1, 26453, Note_off_c, 0, 70, 62
1, 26478, Control_c, 0, 64, 78
1, 26484, Note_on_c, 0, 74, 61
1, 26486, Note_off_c, 0, 78, 64
1, 26491, Note_on_c, 0, 79, 79
1, 26497, Control_c, 0, 64, 73
1, 26515, Control_c, 0, 64, 59
1, 26519, Note_off_c, 0, 74, 67
1, 26534, Control_c, 0, 64, 36
1, 26551, Note_off_c, 0, 79, 59
1, 26552, Control_c, 0, 64, 9
1, 26573, Note_on_c, 0, 53, 43
1, 26578, Note_on_c, 0, 65, 43
1, 26582, Note_on_c, 0, 62, 49
1, 26591, Control_c, 0, 64, 15
1, 26595, Note_on_c, 0, 74, 75
1, 26598, Note_on_c, 0, 80, 74
1, 26609, Control_c, 0, 64, 31
1, 26615, Note_off_c, 0, 53, 53
1, 26627, Note_off_c, 0, 65, 52
1, 26629, Control_c, 0, 64, 50
1, 26633, Note_off_c, 0, 74, 59
1, 26647, Control_c, 0, 64, 61
1, 26650, Note_on_c, 0, 81, 68
1, 26659, Note_off_c, 0, 80, 64
1, 26659, Note_on_c, 0, 77, 75
1, 26665, Note_off_c, 0, 62, 51
1, 26665, Control_c, 0, 64, 69
1, 26678, Note_off_c, 0, 81, 69
1, 26684, Control_c, 0, 64, 79
1, 26689, Note_off_c, 0, 77, 64
1, 26703, Control_c, 0, 64, 94
1, 26721, Control_c, 0, 64, 111
1, 26739, Control_c, 0, 64, 127
1, 26758, Note_on_c, 0, 81, 82
1, 26763, Note_on_c, 0, 74, 68
1, 26797, Note_off_c, 0, 74, 67
1, 26836, Note_off_c, 0, 81, 65
1, 26838, Note_on_c, 0, 82, 78
1, 26852, Control_c, 0, 64, 115
1, 26863, Note_off_c, 0, 82, 72
1, 26870, Control_c, 0, 64, 107
1, 26890, Control_c, 0, 64, 95
1, 26910, Control_c, 0, 64, 79
1, 26917, Note_on_c, 0, 63, 65
1, 26923, Note_on_c, 0, 53, 50
1, 26930, Note_on_c, 0, 65, 49
1, 26930, Control_c, 0, 64, 62
1, 26932, Note_on_c, 0, 72, 74
1, 26935, Note_on_c, 0, 82, 75
1, 26937, Poly_aftertouch_c, 0, 77, 0
1, 26949, Control_c, 0, 64, 41
1, 26955, Note_off_c, 0, 53, 54
1, 26964, Control_c, 0, 64, 21
1, 26968, Note_off_c, 0, 72, 62
1, 26970, Note_off_c, 0, 65, 60
1, 26972, Note_off_c, 0, 63, 60
1, 26981, Note_off_c, 0, 82, 59
1, 26983, Control_c, 0, 64, 0
1, 26995, Note_on_c, 0, 81, 60
1, 27027, Note_off_c, 0, 81, 67
1, 27041, Note_on_c, 0, 75, 55
1, 27067, Note_off_c, 0, 75, 61
1, 27100, Note_on_c, 0, 81, 72
1, 27114, Note_on_c, 0, 72, 57
1, 27130, Note_off_c, 0, 81, 69
1, 27143, Note_off_c, 0, 72, 59
1, 27171, Note_on_c, 0, 75, 66
1, 27171, Note_on_c, 0, 80, 72
1, 27205, Note_off_c, 0, 80, 67
1, 27207, Note_off_c, 0, 75, 66
1, 27258, Note_on_c, 0, 72, 62
1, 27259, Note_on_c, 0, 80, 58
1, 27272, Note_on_c, 0, 63, 40
1, 27276, Note_on_c, 0, 57, 37
1, 27278, Note_on_c, 0, 65, 34
1, 27299, Note_off_c, 0, 80, 63
1, 27304, Note_off_c, 0, 72, 62
1, 27317, Note_off_c, 0, 63, 60
1, 27328, Note_on_c, 0, 79, 66
1, 27347, Note_on_c, 0, 75, 59
1, 27358, Note_off_c, 0, 79, 66
1, 27384, Note_off_c, 0, 75, 66
1, 27434, Note_on_c, 0, 72, 62
1, 27440, Note_on_c, 0, 79, 43
1, 27462, Note_off_c, 0, 72, 62
1, 27477, Note_off_c, 0, 79, 52
1, 27489, Note_on_c, 0, 75, 68
1, 27494, Note_on_c, 0, 78, 67
1, 27524, Note_off_c, 0, 78, 72
1, 27528, Note_off_c, 0, 75, 64
1, 27568, Note_off_c, 0, 57, 52
1, 27582, Control_c, 0, 64, 31
1, 27589, Note_on_c, 0, 62, 47
1, 27593, Note_on_c, 0, 58, 47
1, 27600, Control_c, 0, 64, 51
1, 27602, Note_on_c, 0, 77, 72
1, 27620, Control_c, 0, 64, 61
1, 27628, Note_on_c, 0, 74, 30
1, 27638, Control_c, 0, 64, 68
1, 27641, Note_off_c, 0, 62, 61
1, 27643, Note_off_c, 0, 65, 44
1, 27645, Note_off_c, 0, 58, 60
1, 27656, Control_c, 0, 64, 75
1, 27660, Note_on_c, 0, 70, 51
1, 27676, Control_c, 0, 64, 84
1, 27678, Note_off_c, 0, 74, 52
1, 27685, Note_off_c, 0, 77, 60
1, 27694, Control_c, 0, 64, 93
1, 27696, Note_off_c, 0, 70, 59
1, 27699, Note_on_c, 0, 78, 67
1, 27714, Control_c, 0, 64, 99
1, 27743, Note_off_c, 0, 78, 59
1, 27750, Note_on_c, 0, 74, 60
1, 27769, Note_on_c, 0, 77, 54
1, 27792, Note_off_c, 0, 74, 63
1, 27828, Note_on_c, 0, 70, 61
1, 27841, Note_off_c, 0, 77, 62
1, 27843, Control_c, 0, 64, 94
1, 27849, Note_on_c, 0, 79, 64
1, 27862, Control_c, 0, 64, 87
1, 27866, Note_off_c, 0, 70, 69
1, 27882, Control_c, 0, 64, 72
1, 27887, Note_off_c, 0, 79, 62
1, 27900, Control_c, 0, 64, 50
1, 27912, Note_on_c, 0, 77, 64
1, 27919, Control_c, 0, 64, 10
1, 27936, Note_on_c, 0, 63, 51
1, 27937, Note_on_c, 0, 65, 46
1, 27937, Note_on_c, 0, 69, 64
1, 27937, Control_c, 0, 64, 0
1, 27977, Note_off_c, 0, 69, 62
1, 28004, Note_off_c, 0, 77, 63
1, 28009, Note_on_c, 0, 72, 70
1, 28011, Note_on_c, 0, 78, 66
1, 28050, Note_off_c, 0, 72, 62
1, 28055, Note_off_c, 0, 78, 62
1, 28083, Note_on_c, 0, 77, 61
1, 28094, Note_on_c, 0, 69, 67
1, 28125, Note_off_c, 0, 69, 69
1, 28160, Note_on_c, 0, 79, 68
1, 28161, Note_off_c, 0, 77, 61
1, 28182, Note_on_c, 0, 72, 65
1, 28203, Note_off_c, 0, 79, 57
1, 28210, Note_off_c, 0, 72, 63
1, 28235, Note_off_c, 0, 63, 57
1, 28243, Note_on_c, 0, 77, 66
1, 28249, Note_on_c, 0, 70, 74
1, 28255, Note_on_c, 0, 62, 53
1, 28282, Note_off_c, 0, 70, 65
1, 28333, Note_off_c, 0, 77, 62
1, 28341, Note_on_c, 0, 74, 72
1, 28345, Note_on_c, 0, 78, 65
1, 28381, Note_off_c, 0, 74, 63
1, 28387, Note_off_c, 0, 78, 59
1, 28414, Note_off_c, 0, 65, 50
1, 28417, Note_on_c, 0, 77, 67
1, 28418, Note_on_c, 0, 70, 56
1, 28445, Note_off_c, 0, 70, 65
1, 28490, Note_off_c, 0, 77, 63
1, 28495, Note_on_c, 0, 79, 68
1, 28503, Note_on_c, 0, 74, 50
1, 28533, Note_off_c, 0, 74, 57
1, 28548, Note_off_c, 0, 79, 61
1, 28568, Note_off_c, 0, 62, 55
1, 28569, Note_on_c, 0, 77, 69
1, 28572, Note_on_c, 0, 65, 56
1, 28575, Note_on_c, 0, 69, 67
1, 28582, Note_on_c, 0, 60, 48
1, 28612, Note_off_c, 0, 69, 65
1, 28650, Note_off_c, 0, 77, 63
1, 28663, Note_on_c, 0, 75, 67
1, 28666, Note_on_c, 0, 78, 67
1, 28694, Note_off_c, 0, 75, 68
1, 28713, Note_off_c, 0, 78, 64
1, 28738, Note_on_c, 0, 77, 71
1, 28739, Note_on_c, 0, 69, 65
1, 28773, Note_off_c, 0, 69, 66
1, 28819, Note_off_c, 0, 77, 63
1, 28825, Note_on_c, 0, 79, 67
1, 28825, Note_on_c, 0, 75, 71
1, 28873, Note_off_c, 0, 79, 61
1, 28873, Note_off_c, 0, 75, 61
1, 28893, Note_on_c, 0, 77, 72
1, 28899, Note_on_c, 0, 58, 55
1, 28915, Note_on_c, 0, 70, 66
1, 28917, Note_off_c, 0, 60, 45
1, 28949, Note_off_c, 0, 70, 69
1, 28968, Note_off_c, 0, 77, 64
1, 28979, Note_off_c, 0, 58, 61
1, 28984, Note_on_c, 0, 74, 78
1, 28986, Note_on_c, 0, 78, 64
1, 29008, Note_off_c, 0, 78, 65
1, 29016, Note_off_c, 0, 74, 64
1, 29020, Note_off_c, 0, 65, 49
1, 29061, Note_on_c, 0, 70, 61
1, 29078, Note_on_c, 0, 78, 74
1, 29093, Note_off_c, 0, 70, 68
1, 29138, Note_on_c, 0, 79, 75
1, 29139, Note_off_c, 0, 78, 64
1, 29157, Note_on_c, 0, 74, 48
1, 29186, Note_off_c, 0, 79, 60
1, 29192, Note_off_c, 0, 74, 35
1, 29224, Note_on_c, 0, 65, 51
1, 29229, Note_on_c, 0, 62, 50
1, 29229, Note_on_c, 0, 80, 83
1, 29233, Note_on_c, 0, 53, 49
1, 29233, Note_on_c, 0, 74, 65
1, 29267, Note_off_c, 0, 74, 66
1, 29297, Note_on_c, 0, 81, 72
1, 29299, Note_off_c, 0, 80, 65
1, 29311, Note_on_c, 0, 77, 77
1, 29316, Note_off_c, 0, 53, 48
1, 29324, Note_off_c, 0, 81, 71
1, 29328, Note_off_c, 0, 62, 59
1, 29331, Note_off_c, 0, 65, 49
1, 29339, Note_off_c, 0, 77, 68
1, 29396, Note_on_c, 0, 74, 68
1, 29404, Note_on_c, 0, 81, 77
1, 29425, Note_off_c, 0, 74, 69
1, 29448, Note_on_c, 0, 77, 72
1, 29478, Note_off_c, 0, 81, 65
1, 29480, Note_off_c, 0, 77, 67
1, 29490, Note_on_c, 0, 82, 69
1, 29512, Note_off_c, 0, 82, 67
1, 29569, Note_on_c, 0, 63, 62
1, 29575, Note_on_c, 0, 53, 43
1, 29576, Note_on_c, 0, 72, 74
1, 29577, Note_on_c, 0, 82, 85
1, 29591, Note_on_c, 0, 65, 35
1, 29616, Note_off_c, 0, 63, 63
1, 29616, Note_off_c, 0, 53, 35
1, 29617, Note_off_c, 0, 72, 62
1, 29620, Note_off_c, 0, 82, 63
1, 29637, Note_off_c, 0, 65, 47
1, 29644, Note_on_c, 0, 81, 61
1, 29660, Note_on_c, 0, 75, 70
1, 29677, Note_off_c, 0, 81, 66
1, 29691, Note_off_c, 0, 75, 70
1, 29755, Note_on_c, 0, 81, 55
1, 29756, Note_on_c, 0, 72, 50
1, 29783, Note_off_c, 0, 81, 60
1, 29788, Note_off_c, 0, 72, 57
1, 29808, Note_on_c, 0, 80, 71
1, 29814, Note_on_c, 0, 75, 61
1, 29836, Note_off_c, 0, 80, 73
1, 29849, Note_off_c, 0, 75, 67
1, 29874, Poly_aftertouch_c, 0, 83, 0
1, 29892, Note_on_c, 0, 72, 64
1, 29910, Note_on_c, 0, 63, 41
1, 29917, Note_on_c, 0, 65, 36
1, 29918, Note_on_c, 0, 80, 58
1, 29936, Note_off_c, 0, 72, 62
1, 29937, Note_on_c, 0, 57, 30
1, 29945, Note_off_c, 0, 80, 59
1, 29964, Note_off_c, 0, 63, 60
1, 29964, Note_on_c, 0, 79, 68
1, 29971, Note_on_c, 0, 75, 62
1, 29993, Note_off_c, 0, 79, 67
1, 30010, Note_off_c, 0, 75, 66
1, 30064, Note_on_c, 0, 72, 70
1, 30067, Note_on_c, 0, 79, 59
1, 30098, Note_off_c, 0, 72, 67
1, 30104, Note_off_c, 0, 79, 53
1, 30121, Note_on_c, 0, 75, 78
1, 30132, Note_on_c, 0, 78, 68
1, 30162, Note_off_c, 0, 78, 72
1, 30171, Note_off_c, 0, 75, 54
1, 30221, Note_off_c, 0, 57, 53
1, 30227, Note_on_c, 0, 77, 74
1, 30231, Note_on_c, 0, 74, 62
1, 30236, Control_c, 0, 64, 23
1, 30243, Note_on_c, 0, 58, 50
1, 30244, Note_on_c, 0, 62, 52
1, 30256, Control_c, 0, 64, 49
1, 30269, Note_off_c, 0, 65, 52
1, 30274, Control_c, 0, 64, 63
1, 30275, Note_off_c, 0, 74, 63
1, 30286, Note_off_c, 0, 62, 63
1, 30292, Control_c, 0, 64, 72
1, 30300, Note_off_c, 0, 58, 61
1, 30300, Note_on_c, 0, 70, 61
1, 30307, Note_off_c, 0, 77, 62
1, 30312, Control_c, 0, 64, 87
1, 30317, Note_on_c, 0, 78, 73
1, 30330, Control_c, 0, 64, 127
1, 30337, Note_off_c, 0, 70, 68
1, 30379, Note_off_c, 0, 78, 62
1, 30383, Note_on_c, 0, 74, 47
1, 30401, Note_on_c, 0, 77, 62
1, 30415, Note_off_c, 0, 74, 58
1, 30454, Note_off_c, 0, 77, 61
1, 30460, Note_on_c, 0, 81, 75
1, 30518, Note_off_c, 0, 81, 57
1, 30554, Control_c, 0, 64, 96
1, 30574, Control_c, 0, 64, 70
1, 30593, Control_c, 0, 64, 46
1, 30594, Note_on_c, 0, 82, 68
1, 30599, Note_on_c, 0, 70, 47
1, 30601, Note_on_c, 0, 74, 47
1, 30602, Note_on_c, 0, 68, 48
1, 30613, Control_c, 0, 64, 27
1, 30652, Note_off_c, 0, 74, 60
1, 30656, Note_off_c, 0, 82, 60
1, 30660, Note_on_c, 0, 77, 62
1, 30666, Control_c, 0, 64, 43
1, 30669, Note_on_c, 0, 83, 67
1, 30685, Control_c, 0, 64, 60
1, 30703, Note_off_c, 0, 77, 65
1, 30703, Control_c, 0, 64, 71
1, 30723, Control_c, 0, 64, 84
1, 30741, Control_c, 0, 64, 97
1, 30743, Note_off_c, 0, 83, 63
1, 30743, Note_on_c, 0, 82, 73
1, 30746, Note_on_c, 0, 74, 61
1, 30759, Control_c, 0, 64, 107
1, 30772, Note_off_c, 0, 74, 63
1, 30779, Control_c, 0, 64, 116
1, 30798, Control_c, 0, 64, 120
1, 30812, Note_off_c, 0, 82, 64
1, 30815, Note_on_c, 0, 83, 65
1, 30823, Note_on_c, 0, 77, 61
1, 30833, Control_c, 0, 64, 113
1, 30848, Note_off_c, 0, 77, 63
1, 30853, Control_c, 0, 64, 100
1, 30872, Control_c, 0, 64, 81
1, 30887, Note_off_c, 0, 83, 65
1, 30891, Note_on_c, 0, 82, 78
1, 30891, Control_c, 0, 64, 58
1, 30901, Note_on_c, 0, 75, 77
1, 30904, Note_off_c, 0, 68, 42
1, 30907, Note_on_c, 0, 66, 43
1, 30910, Control_c, 0, 64, 34
1, 30928, Control_c, 0, 64, 25
1, 30933, Note_off_c, 0, 75, 65
1, 30965, Control_c, 0, 64, 36
1, 30968, Note_off_c, 0, 82, 63
1, 30975, Note_on_c, 0, 83, 73
1, 30985, Control_c, 0, 64, 53
1, 30993, Note_on_c, 0, 78, 62
1, 31004, Control_c, 0, 64, 64
1, 31021, Control_c, 0, 64, 74
1, 31022, Note_off_c, 0, 70, 43
1, 31027, Note_off_c, 0, 78, 66
1, 31040, Control_c, 0, 64, 81
1, 31044, Note_on_c, 0, 82, 77
1, 31047, Note_off_c, 0, 83, 62
1, 31051, Note_on_c, 0, 75, 77
1, 31057, Control_c, 0, 64, 83
1, 31080, Note_off_c, 0, 75, 72
1, 31116, Control_c, 0, 64, 80
1, 31122, Note_off_c, 0, 82, 63
1, 31126, Note_on_c, 0, 83, 70
1, 31135, Control_c, 0, 64, 74
1, 31136, Note_on_c, 0, 78, 60
1, 31153, Control_c, 0, 64, 61
1, 31171, Control_c, 0, 64, 41
1, 31172, Note_off_c, 0, 66, 54
1, 31174, Note_off_c, 0, 78, 66
1, 31191, Control_c, 0, 64, 22
1, 31199, Note_off_c, 0, 83, 62
1, 31206, Note_on_c, 0, 82, 75
1, 31209, Note_on_c, 0, 65, 45
1, 31209, Control_c, 0, 64, 15
1, 31216, Note_on_c, 0, 70, 43
1, 31220, Note_on_c, 0, 74, 68
1, 31246, Control_c, 0, 64, 24
1, 31256, Note_off_c, 0, 74, 63
1, 31264, Control_c, 0, 64, 41
1, 31276, Note_off_c, 0, 82, 64
1, 31279, Note_on_c, 0, 83, 74
1, 31283, Control_c, 0, 64, 57
1, 31301, Control_c, 0, 64, 65
1, 31302, Control_c, 0, 67, 58
1, 31304, Note_on_c, 0, 80, 65
1, 31322, Control_c, 0, 64, 73
1, 31338, Note_off_c, 0, 80, 66
1, 31340, Control_c, 0, 64, 77
1, 31359, Control_c, 0, 64, 80
1, 31368, Note_off_c, 0, 83, 63
1, 31375, Note_on_c, 0, 82, 80
1, 31387, Note_on_c, 0, 74, 66
1, 31396, Control_c, 0, 67, 54
1, 31411, Note_off_c, 0, 74, 64
1, 31434, Note_on_c, 0, 83, 77
1, 31437, Note_on_c, 0, 80, 77
1, 31450, Note_off_c, 0, 82, 62
1, 31451, Control_c, 0, 64, 76
1, 31453, Control_c, 0, 67, 50
1, 31471, Control_c, 0, 64, 67
1, 31490, Control_c, 0, 64, 51
1, 31492, Control_c, 0, 67, 45
1, 31497, Note_off_c, 0, 80, 62
1, 31508, Control_c, 0, 64, 36
1, 31520, Note_off_c, 0, 83, 64
1, 31525, Control_c, 0, 67, 39
1, 31532, Note_on_c, 0, 82, 75
1, 31537, Note_on_c, 0, 63, 60
1, 31541, Note_on_c, 0, 75, 71
1, 31545, Control_c, 0, 64, 40
1, 31550, Note_off_c, 0, 65, 47
1, 31558, Note_off_c, 0, 70, 44
1, 31562, Control_c, 0, 64, 51
1, 31563, Control_c, 0, 67, 33
1, 31575, Note_off_c, 0, 75, 64
1, 31576, Note_off_c, 0, 63, 64
1, 31582, Control_c, 0, 64, 61
1, 31603, Control_c, 0, 64, 69
1, 31609, Note_off_c, 0, 82, 64
1, 31611, Note_on_c, 0, 83, 69
1, 31614, Note_on_c, 0, 78, 71
1, 31621, Control_c, 0, 64, 80
1, 31622, Control_c, 0, 67, 29
1, 31639, Control_c, 0, 64, 92
1, 31644, Note_off_c, 0, 78, 73
1, 31655, Note_off_c, 0, 83, 62
1, 31657, Control_c, 0, 64, 103
1, 31659, Control_c, 0, 67, 25
1, 31676, Control_c, 0, 64, 108
1, 31693, Note_on_c, 0, 75, 71
1, 31702, Note_on_c, 0, 83, 55
1, 31734, Note_off_c, 0, 75, 55
1, 31751, Control_c, 0, 64, 103
1, 31752, Note_on_c, 0, 78, 77
1, 31769, Control_c, 0, 64, 96
1, 31773, Note_on_c, 0, 84, 82
1, 31782, Note_off_c, 0, 78, 69
1, 31784, Note_off_c, 0, 83, 63
1, 31787, Control_c, 0, 64, 82
1, 31808, Control_c, 0, 64, 65
1, 31825, Control_c, 0, 64, 50
1, 31834, Note_off_c, 0, 84, 62
1, 31844, Control_c, 0, 64, 46
1, 31858, Note_on_c, 0, 66, 61
1, 31863, Control_c, 0, 64, 51
1, 31868, Note_on_c, 0, 58, 47
1, 31868, Note_on_c, 0, 70, 53
1, 31868, Note_on_c, 0, 85, 83
1, 31868, Note_on_c, 0, 78, 76
1, 31883, Control_c, 0, 64, 58
1, 31900, Control_c, 0, 64, 66
1, 31902, Note_off_c, 0, 70, 63
1, 31907, Note_off_c, 0, 66, 60
1, 31908, Note_off_c, 0, 78, 54
1, 31910, Note_off_c, 0, 58, 63
1, 31919, Control_c, 0, 64, 76
1, 31922, Note_on_c, 0, 82, 82
1, 31928, Note_off_c, 0, 85, 66
1, 31938, Control_c, 0, 64, 91
1, 31940, Note_on_c, 0, 86, 62
1, 31958, Control_c, 0, 64, 109
1, 31966, Note_off_c, 0, 86, 64
1, 31973, Note_off_c, 0, 82, 56
1, 31977, Control_c, 0, 64, 127
1, 32003, Note_on_c, 0, 87, 82
1, 32013, Control_c, 0, 67, 21
1, 32022, Note_on_c, 0, 78, 74
1, 32024, Note_off_c, 0, 87, 66
1, 32025, Note_on_c, 0, 86, 92
1, 32051, Control_c, 0, 67, 16
1, 32074, Note_off_c, 0, 78, 58
1, 32086, Note_on_c, 0, 87, 89
1, 32107, Control_c, 0, 64, 113
1, 32108, Control_c, 0, 67, 12
1, 32109, Note_off_c, 0, 86, 64
1, 32126, Control_c, 0, 64, 99
1, 32141, Note_off_c, 0, 87, 61
1, 32144, Control_c, 0, 64, 83
1, 32163, Control_c, 0, 64, 66
1, 32180, Control_c, 0, 64, 48
1, 32188, Note_on_c, 0, 87, 68
1, 32192, Note_on_c, 0, 58, 55
1, 32199, Control_c, 0, 64, 38
1, 32212, Note_on_c, 0, 68, 54
1, 32212, Note_on_c, 0, 77, 63
1, 32229, Note_on_c, 0, 70, 22
1, 32235, Control_c, 0, 64, 40
1, 32236, Note_off_c, 0, 58, 65
1, 32245, Note_off_c, 0, 87, 65
1, 32249, Note_off_c, 0, 77, 65
1, 32251, Note_on_c, 0, 86, 73
1, 32254, Control_c, 0, 64, 48
1, 32275, Control_c, 0, 64, 60
1, 32284, Note_off_c, 0, 70, 53
1, 32286, Note_off_c, 0, 86, 66
1, 32289, Note_off_c, 0, 68, 55
1, 32292, Control_c, 0, 64, 72
1, 32293, Note_on_c, 0, 80, 59
1, 32313, Control_c, 0, 64, 88
1, 32321, Note_off_c, 0, 80, 65
1, 32331, Control_c, 0, 64, 114
1, 32349, Note_on_c, 0, 86, 77
1, 32349, Control_c, 0, 64, 127
1, 32363, Note_on_c, 0, 77, 63
1, 32391, Note_off_c, 0, 86, 60
1, 32399, Note_off_c, 0, 77, 63
1, 32422, Note_on_c, 0, 85, 77
1, 32423, Note_on_c, 0, 80, 68
1, 32447, Note_off_c, 0, 85, 72
1, 32453, Note_off_c, 0, 80, 70
1, 32460, Control_c, 0, 64, 97
1, 32481, Control_c, 0, 64, 74
1, 32499, Control_c, 0, 64, 55
1, 32511, Note_on_c, 0, 77, 67
1, 32517, Note_on_c, 0, 85, 68
1, 32519, Note_on_c, 0, 70, 39
1, 32519, Control_c, 0, 64, 46
1, 32527, Note_on_c, 0, 68, 43
1, 32536, Control_c, 0, 64, 48
1, 32541, Note_on_c, 0, 62, 31
1, 32544, Note_off_c, 0, 77, 65
1, 32556, Control_c, 0, 64, 53
1, 32572, Control_c, 0, 64, 62
1, 32575, Note_off_c, 0, 85, 55
1, 32578, Note_on_c, 0, 84, 69
1, 32578, Note_on_c, 0, 80, 69
1, 32594, Control_c, 0, 64, 72
1, 32602, Note_off_c, 0, 80, 60
1, 32609, Note_off_c, 0, 84, 67
1, 32611, Control_c, 0, 64, 87
1, 32630, Control_c, 0, 64, 100
1, 32631, Control_c, 0, 67, 16
1, 32649, Control_c, 0, 64, 104
1, 32669, Note_on_c, 0, 77, 68
1, 32702, Note_off_c, 0, 77, 65
1, 32704, Note_on_c, 0, 84, 46
1, 32721, Note_on_c, 0, 83, 73
1, 32726, Note_on_c, 0, 80, 64
1, 32739, Note_off_c, 0, 84, 57
1, 32742, Control_c, 0, 64, 99
1, 32760, Control_c, 0, 64, 92
1, 32763, Note_off_c, 0, 80, 68
1, 32776, Note_off_c, 0, 83, 57
1, 32779, Control_c, 0, 64, 77
1, 32792, Poly_aftertouch_c, 0, 62, 24
1, 32797, Control_c, 0, 64, 60
1, 32817, Note_off_c, 0, 62, 43
1, 32817, Poly_aftertouch_c, 0, 62, 0
1, 32817, Poly_aftertouch_c, 0, 62, 0
1, 32817, Control_c, 0, 64, 45
1, 32835, Note_off_c, 0, 68, 47
1, 32851, Note_on_c, 0, 63, 47
1, 32851, Note_on_c, 0, 82, 69
1, 32855, Control_c, 0, 64, 47
1, 32865, Note_on_c, 0, 78, 55
1, 32874, Control_c, 0, 64, 54
1, 32882, Note_on_c, 0, 66, 33
1, 32891, Control_c, 0, 64, 63
1, 32897, Note_off_c, 0, 78, 64
1, 32902, Note_off_c, 0, 82, 57
1, 32910, Control_c, 0, 64, 75
1, 32925, Note_off_c, 0, 63, 54
1, 32929, Control_c, 0, 64, 92
1, 32933, Note_off_c, 0, 70, 44
1, 32933, Note_on_c, 0, 75, 65
1, 32936, Note_on_c, 0, 83, 66
1, 32939, Note_off_c, 0, 66, 49
1, 32947, Control_c, 0, 64, 116
1, 32955, Note_off_c, 0, 75, 64
1, 32966, Control_c, 0, 64, 127
1, 33005, Note_off_c, 0, 83, 60
1, 33011, Note_on_c, 0, 78, 57
1, 33021, Note_on_c, 0, 82, 69
1, 33052, Note_off_c, 0, 78, 67
1, 33075, Note_off_c, 0, 82, 50
1, 33085, Note_on_c, 0, 75, 56
1, 33096, Control_c, 0, 64, 119
1, 33110, Note_on_c, 0, 83, 63
1, 33115, Control_c, 0, 64, 109
1, 33125, Note_off_c, 0, 75, 66
1, 33135, Control_c, 0, 64, 101
1, 33153, Control_c, 0, 64, 92
1, 33160, Note_off_c, 0, 83, 58
1, 33172, Control_c, 0, 64, 81
1, 33191, Control_c, 0, 64, 69
1, 33209, Control_c, 0, 64, 56
1, 33228, Control_c, 0, 64, 42
1, 33242, Note_on_c, 0, 82, 68
1, 33248, Note_on_c, 0, 70, 42
1, 33249, Note_on_c, 0, 68, 42
1, 33249, Control_c, 0, 64, 35
1, 33260, Note_on_c, 0, 74, 61
1, 33300, Note_off_c, 0, 74, 62
1, 33302, Control_c, 0, 64, 48
1, 33312, Note_off_c, 0, 82, 58
1, 33320, Control_c, 0, 64, 60
1, 33322, Note_on_c, 0, 83, 68
1, 33335, Note_on_c, 0, 77, 67
1, 33339, Control_c, 0, 64, 70
1, 33359, Control_c, 0, 64, 81
1, 33372, Note_off_c, 0, 77, 63
1, 33377, Control_c, 0, 64, 91
1, 33411, Note_on_c, 0, 74, 72
1, 33417, Note_on_c, 0, 82, 72
1, 33418, Note_off_c, 0, 83, 62
1, 33443, Note_off_c, 0, 74, 69
1, 33478, Note_off_c, 0, 82, 63
1, 33480, Note_on_c, 0, 83, 63
1, 33486, Note_on_c, 0, 77, 75
1, 33488, Control_c, 0, 64, 87
1, 33508, Control_c, 0, 64, 78
1, 33515, Note_off_c, 0, 77, 69
1, 33528, Control_c, 0, 64, 62
1, 33541, Note_off_c, 0, 68, 60
1, 33545, Control_c, 0, 64, 39
1, 33563, Note_off_c, 0, 83, 62
1, 33564, Control_c, 0, 64, 0
1, 33569, Note_on_c, 0, 66, 46
1, 33579, Note_on_c, 0, 75, 72
1, 33581, Note_on_c, 0, 82, 69
1, 33611, Note_off_c, 0, 75, 66
1, 33630, Note_off_c, 0, 82, 57
1, 33645, Note_on_c, 0, 83, 69
1, 33668, Note_on_c, 0, 78, 59
1, 33700, Note_off_c, 0, 78, 65
1, 33725, Note_off_c, 0, 83, 58
1, 33730, Note_on_c, 0, 75, 70
1, 33741, Note_on_c, 0, 82, 73
1, 33761, Note_off_c, 0, 75, 68
1, 33785, Note_off_c, 0, 70, 55
1, 33804, Note_off_c, 0, 82, 58
1, 33813, Note_on_c, 0, 83, 67
1, 33819, Note_on_c, 0, 78, 62
1, 33853, Note_off_c, 0, 78, 69
1, 33878, Note_off_c, 0, 83, 59
1, 33887, Note_off_c, 0, 66, 44
1, 33896, Note_on_c, 0, 65, 45
1, 33899, Note_on_c, 0, 82, 72
1, 33904, Note_on_c, 0, 74, 64
1, 33909, Note_on_c, 0, 70, 44
1, 33939, Note_off_c, 0, 74, 68
1, 33967, Note_off_c, 0, 82, 58
1, 33973, Note_on_c, 0, 83, 77
1, 34006, Note_on_c, 0, 80, 50
1, 34034, Note_off_c, 0, 80, 59
1, 34055, Note_off_c, 0, 83, 62
1, 34068, Note_on_c, 0, 74, 61
1, 34074, Note_on_c, 0, 82, 73
1, 34106, Note_off_c, 0, 74, 66
1, 34140, Note_off_c, 0, 82, 61
1, 34142, Note_on_c, 0, 80, 67
1, 34145, Note_on_c, 0, 83, 68
1, 34180, Note_off_c, 0, 80, 63
1, 34219, Note_off_c, 0, 83, 60
1, 34220, Note_on_c, 0, 63, 55
1, 34225, Note_off_c, 0, 65, 53
1, 34232, Note_on_c, 0, 82, 68
1, 34237, Control_c, 0, 64, 18
1, 34247, Note_off_c, 0, 70, 60
1, 34247, Note_on_c, 0, 75, 59
1, 34255, Control_c, 0, 64, 38
1, 34267, Note_off_c, 0, 63, 65
1, 34275, Note_off_c, 0, 75, 64
1, 34276, Control_c, 0, 64, 53
1, 34294, Control_c, 0, 64, 61
1, 34297, Note_off_c, 0, 82, 59
1, 34308, Note_on_c, 0, 83, 65
1, 34312, Control_c, 0, 64, 65
1, 34326, Note_on_c, 0, 78, 61
1, 34331, Control_c, 0, 64, 71
1, 34342, Note_off_c, 0, 83, 69
1, 34349, Control_c, 0, 64, 76
1, 34351, Note_off_c, 0, 78, 64
1, 34368, Control_c, 0, 64, 81
1, 34387, Control_c, 0, 64, 83
1, 34388, Note_on_c, 0, 75, 63
1, 34400, Note_on_c, 0, 83, 67
1, 34420, Note_off_c, 0, 75, 64
1, 34461, Control_c, 0, 64, 79
1, 34462, Note_on_c, 0, 84, 83
1, 34464, Note_on_c, 0, 78, 66
1, 34471, Note_off_c, 0, 83, 65
1, 34481, Control_c, 0, 64, 69
1, 34498, Note_off_c, 0, 78, 69
1, 34500, Control_c, 0, 64, 55
1, 34518, Control_c, 0, 64, 44
1, 34528, Note_off_c, 0, 84, 65
1, 34536, Control_c, 0, 64, 46
1, 34555, Control_c, 0, 64, 52
1, 34557, Note_on_c, 0, 66, 54
1, 34562, Note_on_c, 0, 70, 39
1, 34567, Note_on_c, 0, 58, 36
1, 34567, Note_on_c, 0, 78, 81
1, 34572, Note_on_c, 0, 85, 80
1, 34573, Control_c, 0, 64, 59
1, 34594, Control_c, 0, 64, 66
1, 34601, Note_off_c, 0, 70, 54
1, 34607, Note_off_c, 0, 66, 63
1, 34610, Note_off_c, 0, 58, 53
1, 34613, Control_c, 0, 64, 76
1, 34617, Note_off_c, 0, 78, 54
1, 34630, Control_c, 0, 64, 90
1, 34632, Note_on_c, 0, 86, 74
1, 34632, Control_c, 0, 67, 12
1, 34635, Note_off_c, 0, 85, 65
1, 34645, Note_on_c, 0, 82, 75
1, 34648, Control_c, 0, 64, 105
1, 34659, Note_off_c, 0, 86, 70
1, 34667, Control_c, 0, 64, 127
1, 34675, Note_off_c, 0, 82, 64
1, 34705, Control_c, 0, 67, 8
1, 34722, Note_on_c, 0, 86, 83
1, 34729, Note_on_c, 0, 78, 78
1, 34779, Note_off_c, 0, 78, 55
1, 34779, Control_c, 0, 64, 123
1, 34799, Control_c, 0, 64, 111
1, 34802, Note_on_c, 0, 87, 89
1, 34817, Control_c, 0, 64, 96
1, 34818, Note_off_c, 0, 86, 64
1, 34836, Control_c, 0, 64, 76
1, 34843, Note_off_c, 0, 87, 61
1, 34855, Control_c, 0, 64, 58
1, 34873, Control_c, 0, 64, 49
1, 34892, Control_c, 0, 64, 51
1, 34895, Note_on_c, 0, 58, 55
1, 34899, Note_on_c, 0, 68, 63
1, 34910, Note_on_c, 0, 87, 75
1, 34910, Control_c, 0, 64, 57
1, 34920, Note_on_c, 0, 77, 75
1, 34922, Note_on_c, 0, 70, 38
1, 34928, Control_c, 0, 64, 65
1, 34929, Control_c, 0, 67, 0
1, 34935, Note_off_c, 0, 58, 65
1, 34948, Control_c, 0, 64, 76
1, 34960, Note_off_c, 0, 77, 56
1, 34967, Control_c, 0, 64, 96
1, 34974, Note_off_c, 0, 70, 50
1, 34977, Note_off_c, 0, 87, 65
1, 34979, Note_on_c, 0, 86, 73
1, 34984, Control_c, 0, 64, 127
1, 34997, Note_off_c, 0, 68, 56
1, 35002, Note_on_c, 0, 80, 75
1, 35010, Note_off_c, 0, 86, 68
1, 35034, Note_off_c, 0, 80, 66
1, 35084, Note_on_c, 0, 86, 76
1, 35087, Note_on_c, 0, 77, 75
1, 35126, Note_off_c, 0, 86, 53
1, 35131, Note_off_c, 0, 77, 55
1, 35150, Note_on_c, 0, 85, 74
1, 35157, Note_on_c, 0, 80, 70
1, 35173, Control_c, 0, 64, 97
1, 35177, Note_off_c, 0, 85, 70
1, 35188, Note_off_c, 0, 80, 68
1, 35192, Control_c, 0, 64, 71
1, 35210, Control_c, 0, 64, 49
1, 35224, Note_on_c, 0, 68, 44
1, 35227, Note_on_c, 0, 62, 43
1, 35229, Note_on_c, 0, 70, 44
1, 35230, Control_c, 0, 64, 37
1, 35242, Note_on_c, 0, 77, 77
1, 35244, Note_on_c, 0, 85, 67
1, 35266, Control_c, 0, 64, 45
1, 35274, Note_off_c, 0, 77, 65
1, 35281, Note_off_c, 0, 85, 65
1, 35286, Control_c, 0, 64, 58
1, 35300, Note_on_c, 0, 84, 70
1, 35301, Note_on_c, 0, 80, 75
1, 35303, Control_c, 0, 64, 71
1, 35322, Control_c, 0, 64, 93
1, 35333, Note_off_c, 0, 84, 66
1, 35341, Control_c, 0, 64, 127
1, 35348, Note_off_c, 0, 80, 60
1, 35401, Note_on_c, 0, 77, 68
1, 35426, Note_off_c, 0, 77, 60
1, 35426, Note_on_c, 0, 84, 57
1, 35458, Note_on_c, 0, 80, 80
1, 35462, Note_off_c, 0, 84, 67
1, 35466, Note_on_c, 0, 83, 72
1, 35492, Note_off_c, 0, 80, 68
1, 35498, Note_off_c, 0, 62, 32
1, 35507, Note_off_c, 0, 68, 47
1, 35508, Poly_aftertouch_c, 0, 68, 0
1, 35509, Control_c, 0, 64, 104
1, 35523, Note_off_c, 0, 83, 60
1, 35528, Control_c, 0, 64, 74
1, 35547, Control_c, 0, 64, 51
1, 35566, Note_on_c, 0, 66, 42
1, 35566, Control_c, 0, 64, 39
1, 35569, Note_on_c, 0, 63, 49
1, 35577, Note_on_c, 0, 78, 74
1, 35582, Note_on_c, 0, 82, 67
1, 35584, Control_c, 0, 64, 41
1, 35602, Control_c, 0, 64, 49
1, 35604, Note_off_c, 0, 70, 62
1, 35620, Note_off_c, 0, 66, 63
1, 35621, Control_c, 0, 64, 61
1, 35633, Note_off_c, 0, 78, 62
1, 35635, Note_off_c, 0, 82, 63
1, 35640, Note_off_c, 0, 63, 60
1, 35640, Control_c, 0, 64, 75
1, 35644, Note_on_c, 0, 75, 76
1, 35656, Note_on_c, 0, 83, 80
1, 35658, Control_c, 0, 64, 97
1, 35679, Control_c, 0, 64, 127
1, 35682, Note_off_c, 0, 75, 62
1, 35737, Note_off_c, 0, 83, 62
1, 35746, Note_on_c, 0, 82, 77
1, 35757, Note_on_c, 0, 78, 58
1, 35779, Note_off_c, 0, 82, 63
1, 35781, Note_off_c, 0, 78, 64
1, 35841, Note_on_c, 0, 87, 88
1, 35883, Note_off_c, 0, 87, 50
1, 35886, Note_on_c, 0, 88, 42
1, 35887, Note_off_c, 0, 88, 127
1, 35930, Poly_aftertouch_c, 0, 88, 0
1, 35977, Control_c, 0, 64, 122
1, 35995, Control_c, 0, 64, 88
1, 36012, Note_on_c, 0, 46, 43
1, 36015, Control_c, 0, 64, 64
1, 36022, Note_on_c, 0, 61, 45
1, 36033, Note_on_c, 0, 90, 92
1, 36033, Control_c, 0, 64, 44
1, 36047, Note_on_c, 0, 78, 76
1, 36051, Control_c, 0, 64, 40
1, 36070, Control_c, 0, 64, 43
1, 36089, Control_c, 0, 64, 52
1, 36108, Control_c, 0, 64, 64
1, 36127, Control_c, 0, 64, 80
1, 36145, Control_c, 0, 64, 120
1, 36160, Note_on_c, 0, 85, 68
1, 36163, Control_c, 0, 64, 127
1, 36164, Note_off_c, 0, 78, 58
1, 36167, Note_on_c, 0, 87, 64
1, 36197, Note_off_c, 0, 90, 64
1, 36248, Note_off_c, 0, 46, 43
1, 36252, Note_off_c, 0, 85, 59
1, 36277, Note_on_c, 0, 90, 69
1, 36279, Note_off_c, 0, 87, 62
1, 36298, Note_on_c, 0, 78, 56
1, 36343, Note_off_c, 0, 78, 52
1, 36355, Note_on_c, 0, 88, 72
1, 36369, Note_off_c, 0, 61, 32
1, 36377, Note_off_c, 0, 90, 64
1, 36385, Note_on_c, 0, 47, 60
1, 36387, Note_on_c, 0, 85, 60
1, 36401, Note_off_c, 0, 88, 61
1, 36406, Control_c, 0, 64, 100
1, 36418, Note_off_c, 0, 85, 63
1, 36419, Note_off_c, 0, 47, 60
1, 36424, Control_c, 0, 64, 73
1, 36445, Control_c, 0, 64, 58
1, 36466, Note_on_c, 0, 88, 81
1, 36470, Note_on_c, 0, 78, 74
1, 36483, Control_c, 0, 64, 64
1, 36496, Note_on_c, 0, 63, 68
1, 36502, Control_c, 0, 64, 76
1, 36519, Control_c, 0, 64, 97
1, 36526, Note_off_c, 0, 78, 60
1, 36538, Control_c, 0, 64, 127
1, 36552, Note_on_c, 0, 86, 71
1, 36560, Note_off_c, 0, 88, 65
1, 36563, Note_on_c, 0, 83, 74
1, 36608, Note_off_c, 0, 63, 52
1, 36620, Note_off_c, 0, 86, 64
1, 36630, Note_on_c, 0, 88, 72
1, 36634, Note_off_c, 0, 83, 63
1, 36638, Note_on_c, 0, 78, 77
1, 36650, Poly_aftertouch_c, 0, 82, 0
1, 36652, Poly_aftertouch_c, 0, 85, 0
1, 36689, Note_on_c, 0, 87, 88
1, 36697, Note_off_c, 0, 88, 65
1, 36699, Note_off_c, 0, 78, 65
1, 36708, Note_on_c, 0, 83, 67
1, 36738, Note_off_c, 0, 83, 70
1, 36743, Control_c, 0, 64, 101
1, 36750, Note_off_c, 0, 87, 66
1, 36762, Control_c, 0, 64, 69
1, 36781, Control_c, 0, 64, 45
1, 36798, Note_on_c, 0, 64, 70
1, 36799, Control_c, 0, 64, 39
1, 36800, Note_on_c, 0, 87, 78
1, 36804, Note_on_c, 0, 49, 63
1, 36814, Note_on_c, 0, 76, 75
1, 36818, Control_c, 0, 64, 47
1, 36836, Note_off_c, 0, 64, 68
1, 36837, Control_c, 0, 64, 57
1, 36840, Note_off_c, 0, 49, 66
1, 36845, Note_off_c, 0, 76, 62
1, 36855, Control_c, 0, 64, 67
1, 36867, Note_on_c, 0, 82, 75
1, 36874, Control_c, 0, 64, 85
1, 36876, Note_on_c, 0, 84, 72
1, 36880, Note_off_c, 0, 87, 65
1, 36892, Control_c, 0, 64, 127
1, 36929, Note_off_c, 0, 82, 63
1, 36945, Note_off_c, 0, 84, 60
1, 36970, Note_on_c, 0, 87, 66
1, 36971, Note_on_c, 0, 76, 64
1, 36996, Note_off_c, 0, 76, 64
1, 37029, Note_on_c, 0, 85, 79
1, 37037, Note_off_c, 0, 87, 63
1, 37048, Note_on_c, 0, 82, 69
1, 37074, Note_off_c, 0, 85, 60
1, 37076, Note_off_c, 0, 82, 70
1, 37080, Control_c, 0, 64, 82
1, 37099, Control_c, 0, 64, 56
1, 37117, Control_c, 0, 64, 39
1, 37133, Note_on_c, 0, 75, 74
1, 37134, Control_c, 0, 64, 42
1, 37139, Note_on_c, 0, 66, 53
1, 37144, Note_on_c, 0, 51, 53
1, 37144, Note_on_c, 0, 85, 64
1, 37154, Control_c, 0, 64, 53
1, 37174, Control_c, 0, 64, 64
1, 37175, Note_off_c, 0, 75, 62
1, 37177, Note_off_c, 0, 66, 65
1, 37185, Note_off_c, 0, 51, 64
1, 37191, Control_c, 0, 64, 78
1, 37210, Control_c, 0, 64, 104
1, 37215, Note_off_c, 0, 85, 63
1, 37219, Note_on_c, 0, 82, 64
1, 37224, Note_on_c, 0, 78, 59
1, 37228, Control_c, 0, 64, 127
1, 37263, Note_off_c, 0, 78, 65
1, 37280, Note_off_c, 0, 82, 54
1, 37300, Note_on_c, 0, 75, 72
1, 37312, Note_on_c, 0, 85, 60
1, 37338, Note_off_c, 0, 75, 59
1, 37377, Note_off_c, 0, 85, 59
1, 37385, Note_on_c, 0, 78, 55
1, 37386, Note_on_c, 0, 83, 59
1, 37397, Control_c, 0, 64, 106
1, 37416, Control_c, 0, 64, 75
1, 37430, Note_off_c, 0, 78, 60
1, 37435, Control_c, 0, 64, 50
1, 37450, Note_off_c, 0, 83, 50
1, 37453, Control_c, 0, 64, 39
1, 37470, Note_on_c, 0, 52, 55
1, 37470, Control_c, 0, 64, 45
1, 37472, Note_on_c, 0, 84, 67
1, 37472, Note_on_c, 0, 67, 55
1, 37483, Note_on_c, 0, 73, 62
1, 37489, Control_c, 0, 64, 55
1, 37510, Control_c, 0, 64, 65
1, 37525, Note_off_c, 0, 73, 64
1, 37529, Note_off_c, 0, 52, 62
1, 37529, Control_c, 0, 64, 80
1, 37531, Note_off_c, 0, 84, 58
1, 37534, Note_off_c, 0, 67, 60
1, 37546, Control_c, 0, 64, 106
1, 37551, Note_on_c, 0, 81, 64
1, 37564, Note_on_c, 0, 79, 60
1, 37566, Control_c, 0, 64, 127
1, 37607, Note_off_c, 0, 79, 62
1, 37610, Note_off_c, 0, 81, 58
1, 37643, Note_on_c, 0, 84, 54
1, 37656, Note_on_c, 0, 73, 56
1, 37689, Note_off_c, 0, 84, 66
1, 37689, Note_off_c, 0, 73, 64
1, 37712, Note_on_c, 0, 82, 59
1, 37726, Note_on_c, 0, 79, 45
1, 37732, Control_c, 0, 64, 96
1, 37736, Note_off_c, 0, 82, 61
1, 37753, Control_c, 0, 64, 66
1, 37761, Note_off_c, 0, 79, 53
1, 37772, Control_c, 0, 64, 40
1, 37790, Control_c, 0, 64, 32
1, 37808, Control_c, 0, 64, 38
1, 37809, Note_on_c, 0, 69, 53
1, 37812, Note_on_c, 0, 53, 48
1, 37822, Note_on_c, 0, 82, 72
1, 37825, Note_on_c, 0, 72, 58
1, 37826, Control_c, 0, 64, 51
1, 37846, Control_c, 0, 64, 63
1, 37849, Note_off_c, 0, 69, 64
1, 37863, Note_off_c, 0, 53, 60
1, 37864, Control_c, 0, 64, 76
1, 37866, Note_off_c, 0, 72, 63
1, 37884, Note_off_c, 0, 82, 59
1, 37884, Control_c, 0, 64, 96
1, 37902, Control_c, 0, 64, 127
1, 37911, Note_on_c, 0, 80, 51
1, 37911, Note_on_c, 0, 77, 43
1, 37948, Note_off_c, 0, 77, 54
1, 37956, Note_off_c, 0, 80, 63
1, 37978, Note_on_c, 0, 72, 63
1, 37995, Note_on_c, 0, 82, 57
1, 38012, Note_off_c, 0, 72, 68
1, 38030, Note_off_c, 0, 82, 66
1, 38043, Note_on_c, 0, 77, 70
1, 38059, Note_on_c, 0, 81, 38
1, 38079, Note_off_c, 0, 77, 66
1, 38103, Note_off_c, 0, 81, 53
1, 38108, Control_c, 0, 64, 119
1, 38127, Control_c, 0, 64, 76
1, 38145, Control_c, 0, 64, 33
1, 38146, Control_c, 0, 67, 8
1, 38151, Note_on_c, 0, 70, 67
1, 38156, Note_on_c, 0, 55, 46
1, 38159, Note_on_c, 0, 64, 40
1, 38164, Note_on_c, 0, 81, 62
1, 38164, Control_c, 0, 64, 0
1, 38183, Control_c, 0, 67, 16
1, 38186, Note_off_c, 0, 70, 70
1, 38191, Note_off_c, 0, 55, 56
1, 38201, Control_c, 0, 67, 20
1, 38203, Note_off_c, 0, 64, 49
1, 38216, Note_off_c, 0, 81, 63
1, 38230, Note_on_c, 0, 78, 62
1, 38238, Control_c, 0, 67, 24
1, 38261, Note_on_c, 0, 76, 24
1, 38276, Note_off_c, 0, 78, 62
1, 38301, Note_on_c, 0, 61, 49
1, 38307, Note_on_c, 0, 70, 57
1, 38320, Note_on_c, 0, 81, 58
1, 38336, Note_off_c, 0, 61, 61
1, 38339, Note_off_c, 0, 70, 67
1, 38356, Note_off_c, 0, 81, 66
1, 38375, Note_on_c, 0, 79, 55
1, 38406, Note_off_c, 0, 79, 61
1, 38418, Note_off_c, 0, 76, 46
1, 38419, Poly_aftertouch_c, 0, 76, 0
1, 38454, Note_on_c, 0, 65, 56
1, 38457, Note_on_c, 0, 57, 52
1, 38463, Note_on_c, 0, 69, 71
1, 38485, Note_on_c, 0, 79, 70
1, 38487, Note_off_c, 0, 57, 59
1, 38493, Note_off_c, 0, 65, 64
1, 38499, Note_off_c, 0, 69, 61
1, 38519, Note_off_c, 0, 79, 64
1, 38528, Note_on_c, 0, 76, 62
1, 38537, Note_on_c, 0, 72, 63
1, 38570, Note_off_c, 0, 76, 64
1, 38577, Note_off_c, 0, 72, 64
1, 38604, Note_on_c, 0, 60, 54
1, 38626, Note_on_c, 0, 79, 61
1, 38630, Note_on_c, 0, 69, 59
1, 38647, Note_off_c, 0, 60, 65
1, 38668, Note_off_c, 0, 69, 59
1, 38671, Note_off_c, 0, 79, 63
1, 38674, Note_on_c, 0, 72, 70
1, 38692, Note_on_c, 0, 77, 57
1, 38708, Note_off_c, 0, 72, 68
1, 38730, Note_off_c, 0, 77, 60
1, 38778, Note_on_c, 0, 77, 72
1, 38780, Note_on_c, 0, 67, 54
1, 38782, Note_on_c, 0, 58, 51
1, 38812, Note_off_c, 0, 67, 61
1, 38817, Note_off_c, 0, 58, 58
1, 38817, Note_on_c, 0, 73, 50
1, 38845, Note_off_c, 0, 77, 60
1, 38847, Note_off_c, 0, 73, 54
1, 38854, Note_on_c, 0, 75, 68
1, 38903, Note_off_c, 0, 75, 60
1, 38935, Note_on_c, 0, 70, 66
1, 38948, Note_on_c, 0, 61, 40
1, 38971, Note_off_c, 0, 70, 68
1, 38993, Note_off_c, 0, 61, 53
1, 38997, Note_on_c, 0, 76, 65
1, 39009, Poly_aftertouch_c, 0, 77, 127
1, 39019, Poly_aftertouch_c, 0, 77, 0
1, 39048, Note_off_c, 0, 76, 58
1, 39082, Note_on_c, 0, 79, 63
1, 39083, Note_on_c, 0, 75, 63
1, 39097, Note_on_c, 0, 60, 48
1, 39113, Note_on_c, 0, 69, 23
1, 39128, Note_off_c, 0, 75, 60
1, 39133, Note_off_c, 0, 79, 57
1, 39133, Note_off_c, 0, 60, 56
1, 39162, Poly_aftertouch_c, 0, 61, 0
1, 39171, Note_on_c, 0, 76, 60
1, 39173, Note_off_c, 0, 69, 32
1, 39197, Note_off_c, 0, 76, 63
1, 39217, Note_on_c, 0, 72, 50
1, 39235, Note_on_c, 0, 79, 44
1, 39241, Note_on_c, 0, 63, 52
1, 39254, Note_off_c, 0, 72, 62
1, 39273, Note_off_c, 0, 79, 54
1, 39275, Note_off_c, 0, 63, 60
1, 39285, Note_on_c, 0, 77, 67
1, 39318, Note_off_c, 0, 77, 67
1, 39377, Note_on_c, 0, 70, 70
1, 39393, Note_on_c, 0, 67, 48
1, 39395, Note_on_c, 0, 61, 52
1, 39399, Note_on_c, 0, 77, 65
1, 39407, Note_off_c, 0, 70, 69
1, 39429, Note_off_c, 0, 61, 59
1, 39430, Note_off_c, 0, 67, 56
1, 39435, Note_off_c, 0, 77, 65
1, 39459, Note_on_c, 0, 75, 67
1, 39506, Note_off_c, 0, 75, 59
1, 39551, Note_on_c, 0, 77, 47
1, 39586, Note_off_c, 0, 77, 56
1, 39597, Note_on_c, 0, 76, 71
1, 39649, Note_off_c, 0, 76, 54
1, 39658, Control_c, 0, 67, 20
1, 39696, Note_on_c, 0, 69, 55
1, 39698, Note_on_c, 0, 79, 63
1, 39704, Note_on_c, 0, 63, 54
1, 39706, Note_on_c, 0, 72, 57
1, 39729, Note_off_c, 0, 69, 63
1, 39736, Control_c, 0, 67, 16
1, 39739, Note_off_c, 0, 79, 61
1, 39743, Note_off_c, 0, 63, 63
1, 39751, Note_off_c, 0, 72, 64
1, 39769, Note_on_c, 0, 76, 67
1, 39773, Control_c, 0, 67, 9
1, 39800, Note_off_c, 0, 76, 65
1, 39851, Note_on_c, 0, 79, 47
1, 39867, Control_c, 0, 67, 0
1, 39882, Note_off_c, 0, 79, 58
1, 39914, Note_on_c, 0, 78, 58
1, 39952, Note_off_c, 0, 78, 68
1, 39986, Note_on_c, 0, 77, 58
1, 40027, Note_off_c, 0, 77, 65
1, 40069, Note_on_c, 0, 78, 54
1, 40117, Note_off_c, 0, 78, 62
1, 40153, Note_on_c, 0, 77, 61
1, 40191, Note_off_c, 0, 77, 63
1, 40224, Note_on_c, 0, 79, 58
1, 40254, Note_off_c, 0, 79, 62
1, 40296, Note_on_c, 0, 77, 74
1, 40339, Note_off_c, 0, 77, 62
1, 40361, Note_on_c, 0, 78, 74
1, 40411, Note_off_c, 0, 78, 54
1, 40442, Note_on_c, 0, 77, 80
1, 40492, Note_off_c, 0, 77, 60
1, 40496, Note_on_c, 0, 79, 80
1, 40562, Note_off_c, 0, 79, 60
1, 40573, Note_on_c, 0, 77, 80
1, 40595, Control_c, 0, 67, 15
1, 40614, Control_c, 0, 67, 28
1, 40632, Control_c, 0, 67, 43
1, 40636, Note_off_c, 0, 77, 62
1, 40651, Control_c, 0, 67, 58
1, 40661, Note_on_c, 0, 78, 69
1, 40670, Control_c, 0, 67, 71
1, 40688, Control_c, 0, 67, 84
1, 40693, Note_off_c, 0, 78, 68
1, 40707, Control_c, 0, 67, 97
1, 40725, Control_c, 0, 67, 108
1, 40746, Note_on_c, 0, 77, 71
1, 40747, Control_c, 0, 67, 113
1, 40777, Note_off_c, 0, 77, 64
1, 40782, Control_c, 0, 67, 117
1, 40821, Note_on_c, 0, 79, 50
1, 40848, Note_off_c, 0, 79, 58
1, 40856, Control_c, 0, 67, 122
1, 40915, Note_on_c, 0, 77, 52
1, 40946, Note_off_c, 0, 77, 61
1, 40981, Note_on_c, 0, 78, 54
1, 41023, Note_off_c, 0, 78, 63
1, 41085, Note_on_c, 0, 77, 49
1, 41174, Control_c, 0, 64, 13
1, 41185, Note_off_c, 0, 77, 57
1, 41193, Control_c, 0, 64, 36
1, 41212, Control_c, 0, 64, 51
1, 41225, Note_on_c, 0, 79, 57
1, 41229, Control_c, 0, 64, 57
1, 41250, Control_c, 0, 64, 60
1, 41259, Note_off_c, 0, 79, 62
1, 41267, Control_c, 0, 64, 62
1, 41286, Control_c, 0, 64, 64
1, 41305, Control_c, 0, 64, 67
1, 41307, Control_c, 0, 67, 117
1, 41324, Control_c, 0, 64, 70
1, 41342, Control_c, 0, 64, 74
1, 41359, Note_on_c, 0, 51, 52
1, 41400, Note_off_c, 0, 51, 64
1, 41417, Control_c, 0, 64, 66
1, 41424, Note_on_c, 0, 77, 61
1, 41436, Control_c, 0, 64, 46
1, 41454, Note_on_c, 0, 69, 20
1, 41454, Control_c, 0, 64, 0
1, 41474, Control_c, 0, 67, 113
1, 41497, Note_off_c, 0, 77, 48
1, 41514, Note_off_c, 0, 69, 28
1, 41530, Note_on_c, 0, 72, 63
1, 41532, Note_on_c, 0, 78, 61
1, 41549, Control_c, 0, 67, 106
1, 41566, Note_off_c, 0, 72, 68
1, 41566, Control_c, 0, 67, 101
1, 41579, Note_off_c, 0, 78, 61
1, 41586, Control_c, 0, 67, 94
1, 41601, Note_on_c, 0, 67, 61
1, 41604, Control_c, 0, 67, 84
1, 41624, Note_on_c, 0, 69, 55
1, 41624, Control_c, 0, 67, 72
1, 41625, Note_on_c, 0, 77, 56
1, 41627, Note_on_c, 0, 65, 64
1, 41633, Note_off_c, 0, 67, 63
1, 41642, Control_c, 0, 67, 60
1, 41654, Note_off_c, 0, 69, 60
1, 41661, Control_c, 0, 67, 49
1, 41666, Note_off_c, 0, 65, 67
1, 41671, Note_off_c, 0, 77, 64
1, 41677, Note_on_c, 0, 72, 74
1, 41678, Note_on_c, 0, 79, 67
1, 41681, Control_c, 0, 67, 39
1, 41698, Control_c, 0, 67, 31
1, 41716, Control_c, 0, 67, 25
1, 41717, Note_off_c, 0, 72, 62
1, 41723, Note_off_c, 0, 79, 57
1, 41737, Control_c, 0, 67, 21
1, 41767, Note_on_c, 0, 77, 60
1, 41769, Note_on_c, 0, 50, 66
1, 41780, Note_on_c, 0, 70, 61
1, 41791, Control_c, 0, 67, 16
1, 41798, Note_off_c, 0, 50, 62
1, 41814, Note_off_c, 0, 70, 69
1, 41842, Note_off_c, 0, 77, 60
1, 41846, Note_on_c, 0, 78, 69
1, 41857, Note_on_c, 0, 74, 69
1, 41888, Note_off_c, 0, 74, 66
1, 41904, Note_off_c, 0, 78, 54
1, 41930, Note_on_c, 0, 66, 69
1, 41930, Note_on_c, 0, 70, 57
1, 41936, Note_on_c, 0, 77, 63
1, 41953, Note_on_c, 0, 65, 63
1, 41960, Note_off_c, 0, 70, 66
1, 41965, Note_off_c, 0, 66, 65
1, 41989, Note_off_c, 0, 65, 65
1, 41991, Note_on_c, 0, 74, 59
1, 42002, Note_off_c, 0, 77, 61
1, 42011, Note_on_c, 0, 79, 67
1, 42018, Note_off_c, 0, 74, 62
1, 42053, Note_off_c, 0, 79, 57
1, 42093, Note_on_c, 0, 48, 62
1, 42105, Note_on_c, 0, 77, 64
1, 42107, Note_on_c, 0, 69, 55
1, 42128, Note_off_c, 0, 48, 58
1, 42136, Note_off_c, 0, 69, 61
1, 42166, Note_off_c, 0, 77, 62
1, 42175, Note_on_c, 0, 75, 65
1, 42189, Note_on_c, 0, 78, 59
1, 42208, Note_off_c, 0, 75, 68
1, 42228, Note_off_c, 0, 78, 68
1, 42251, Note_on_c, 0, 69, 56
1, 42253, Note_on_c, 0, 67, 64
1, 42255, Note_on_c, 0, 77, 60
1, 42286, Note_off_c, 0, 69, 63
1, 42288, Note_off_c, 0, 67, 63
1, 42292, Note_on_c, 0, 65, 46
1, 42328, Note_on_c, 0, 75, 70
1, 42331, Note_off_c, 0, 65, 55
1, 42333, Note_off_c, 0, 77, 63
1, 42346, Note_on_c, 0, 79, 58
1, 42371, Note_off_c, 0, 75, 65
1, 42374, Note_off_c, 0, 79, 60
1, 42407, Note_on_c, 0, 46, 69
1, 42412, Note_on_c, 0, 77, 67
1, 42436, Note_off_c, 0, 46, 63
1, 42436, Note_on_c, 0, 70, 59
1, 42471, Note_off_c, 0, 70, 65
1, 42483, Note_off_c, 0, 77, 64
1, 42488, Note_on_c, 0, 74, 71
1, 42498, Note_on_c, 0, 78, 64
1, 42516, Note_off_c, 0, 74, 70
1, 42531, Note_off_c, 0, 78, 66
1, 42565, Note_on_c, 0, 66, 72
1, 42573, Note_on_c, 0, 70, 67
1, 42583, Note_on_c, 0, 78, 77
1, 42587, Note_on_c, 0, 65, 71
1, 42599, Note_off_c, 0, 66, 68
1, 42604, Note_off_c, 0, 70, 70
1, 42618, Note_off_c, 0, 65, 68
1, 42632, Note_on_c, 0, 74, 75
1, 42647, Note_off_c, 0, 78, 65
1, 42648, Note_on_c, 0, 79, 79
1, 42659, Note_off_c, 0, 74, 71
1, 42689, Note_off_c, 0, 79, 62
1, 42725, Note_on_c, 0, 41, 79
1, 42739, Note_on_c, 0, 74, 81
1, 42742, Note_on_c, 0, 80, 77
1, 42760, Note_off_c, 0, 41, 65
1, 42788, Note_off_c, 0, 74, 61
1, 42790, Note_on_c, 0, 81, 76
1, 42795, Note_off_c, 0, 80, 62
1, 42810, Note_on_c, 0, 77, 57
1, 42823, Note_on_c, 0, 76, 52
1, 42836, Note_off_c, 0, 81, 63
1, 42844, Note_off_c, 0, 77, 61
1, 42853, Note_off_c, 0, 76, 58
1, 42871, Note_on_c, 0, 67, 77
1, 42889, Note_on_c, 0, 81, 68
1, 42895, Note_on_c, 0, 74, 78
1, 42903, Note_off_c, 0, 67, 70
1, 42908, Note_on_c, 0, 65, 66
1, 42939, Note_off_c, 0, 74, 63
1, 42945, Note_off_c, 0, 65, 64
1, 42968, Note_on_c, 0, 82, 79
1, 42975, Note_off_c, 0, 81, 64
1, 42991, Note_off_c, 0, 82, 72
1, 43041, Note_on_c, 0, 41, 73
1, 43058, Note_on_c, 0, 82, 81
1, 43063, Note_on_c, 0, 72, 81
1, 43072, Note_off_c, 0, 41, 59
1, 43100, Note_off_c, 0, 72, 62
1, 43100, Note_off_c, 0, 82, 57
1, 43118, Note_on_c, 0, 81, 60
1, 43149, Note_off_c, 0, 81, 63
1, 43167, Note_on_c, 0, 75, 58
1, 43195, Note_off_c, 0, 75, 64
1, 43209, Note_on_c, 0, 66, 60
1, 43217, Note_on_c, 0, 81, 86
1, 43226, Note_on_c, 0, 65, 64
1, 43236, Note_on_c, 0, 72, 64
1, 43239, Note_off_c, 0, 66, 63
1, 43261, Note_off_c, 0, 81, 65
1, 43264, Note_off_c, 0, 65, 67
1, 43269, Note_off_c, 0, 72, 62
1, 43287, Note_on_c, 0, 80, 70
1, 43298, Note_on_c, 0, 75, 66
1, 43324, Note_off_c, 0, 80, 67
1, 43334, Note_off_c, 0, 75, 66
1, 43379, Note_on_c, 0, 45, 67
1, 43382, Note_on_c, 0, 72, 70
1, 43392, Note_on_c, 0, 80, 63
1, 43410, Note_off_c, 0, 45, 59
1, 43427, Note_off_c, 0, 72, 60
1, 43436, Note_off_c, 0, 80, 56
1, 43445, Note_on_c, 0, 79, 63
1, 43458, Note_on_c, 0, 75, 76
1, 43477, Note_off_c, 0, 79, 66
1, 43504, Note_off_c, 0, 75, 58
1, 43531, Note_on_c, 0, 67, 68
1, 43553, Note_on_c, 0, 79, 70
1, 43562, Note_off_c, 0, 67, 67
1, 43566, Note_on_c, 0, 65, 62
1, 43567, Note_on_c, 0, 72, 51
1, 43577, Note_off_c, 0, 79, 64
1, 43595, Note_off_c, 0, 65, 63
1, 43599, Note_off_c, 0, 72, 57
1, 43617, Note_on_c, 0, 78, 64
1, 43623, Note_on_c, 0, 75, 73
1, 43651, Note_off_c, 0, 75, 71
1, 43653, Note_off_c, 0, 78, 69
1, 43699, Note_on_c, 0, 46, 70
1, 43711, Note_on_c, 0, 77, 75
1, 43720, Note_on_c, 0, 74, 62
1, 43736, Note_off_c, 0, 46, 63
1, 43758, Note_off_c, 0, 74, 66
1, 43773, Control_c, 0, 67, 0
1, 43788, Note_on_c, 0, 70, 59
1, 43800, Note_off_c, 0, 77, 62
1, 43813, Note_on_c, 0, 78, 64
1, 43828, Note_off_c, 0, 70, 68
1, 43849, Note_on_c, 0, 74, 63
1, 43855, Note_off_c, 0, 78, 60
1, 43869, Note_on_c, 0, 77, 58
1, 43882, Note_on_c, 0, 66, 65
1, 43890, Note_off_c, 0, 74, 62
1, 43905, Note_on_c, 0, 65, 63
1, 43907, Note_off_c, 0, 66, 65
1, 43933, Note_off_c, 0, 65, 63
1, 43943, Note_off_c, 0, 77, 63
1, 43947, Note_on_c, 0, 79, 71
1, 43948, Note_on_c, 0, 70, 60
1, 43978, Note_off_c, 0, 70, 68
1, 43988, Note_off_c, 0, 79, 57
1, 44031, Note_on_c, 0, 77, 60
1, 44033, Note_on_c, 0, 51, 64
1, 44056, Note_on_c, 0, 69, 61
1, 44066, Note_off_c, 0, 51, 67
1, 44097, Note_off_c, 0, 69, 64
1, 44110, Note_off_c, 0, 77, 62
1, 44118, Note_on_c, 0, 78, 67
1, 44129, Note_on_c, 0, 72, 64
1, 44164, Note_off_c, 0, 72, 63
1, 44167, Note_off_c, 0, 78, 61
1, 44188, Note_on_c, 0, 67, 70
1, 44208, Note_on_c, 0, 77, 52
1, 44216, Note_on_c, 0, 69, 62
1, 44218, Note_off_c, 0, 67, 70
1, 44226, Note_on_c, 0, 65, 61
1, 44242, Note_off_c, 0, 69, 64
1, 44259, Note_off_c, 0, 65, 62
1, 44275, Note_on_c, 0, 79, 66
1, 44276, Note_off_c, 0, 77, 62
1, 44278, Note_on_c, 0, 72, 65
1, 44311, Note_off_c, 0, 79, 62
1, 44314, Note_off_c, 0, 72, 68
1, 44355, Note_on_c, 0, 77, 63
1, 44364, Note_on_c, 0, 50, 66
1, 44376, Note_on_c, 0, 70, 70
1, 44401, Note_off_c, 0, 50, 64
1, 44408, Note_off_c, 0, 70, 70
1, 44438, Note_off_c, 0, 77, 63
1, 44452, Note_on_c, 0, 78, 61
1, 44458, Note_on_c, 0, 74, 64
1, 44486, Note_off_c, 0, 78, 65
1, 44495, Note_off_c, 0, 74, 65
1, 44518, Note_on_c, 0, 77, 70
1, 44523, Note_on_c, 0, 70, 59
1, 44525, Note_on_c, 0, 66, 64
1, 44550, Note_on_c, 0, 65, 62
1, 44552, Note_off_c, 0, 66, 65
1, 44557, Note_off_c, 0, 70, 68
1, 44584, Note_off_c, 0, 65, 64
1, 44591, Note_off_c, 0, 77, 62
1, 44593, Note_on_c, 0, 79, 68
1, 44594, Note_on_c, 0, 74, 60
1, 44624, Note_off_c, 0, 74, 63
1, 44635, Note_off_c, 0, 79, 58
1, 44685, Note_on_c, 0, 77, 71
1, 44691, Note_on_c, 0, 48, 63
1, 44695, Note_on_c, 0, 69, 69
1, 44721, Note_off_c, 0, 48, 59
1, 44739, Note_off_c, 0, 69, 61
1, 44764, Note_off_c, 0, 77, 62
1, 44778, Note_on_c, 0, 75, 66
1, 44781, Note_on_c, 0, 78, 63
1, 44809, Note_off_c, 0, 75, 68
1, 44815, Note_off_c, 0, 78, 69
1, 44840, Note_on_c, 0, 77, 67
1, 44854, Note_on_c, 0, 67, 65
1, 44859, Note_on_c, 0, 69, 64
1, 44876, Note_on_c, 0, 65, 62
1, 44884, Note_off_c, 0, 67, 64
1, 44893, Note_off_c, 0, 69, 66
1, 44906, Note_off_c, 0, 65, 63
1, 44931, Note_on_c, 0, 79, 68
1, 44932, Note_off_c, 0, 77, 62
1, 44936, Note_on_c, 0, 75, 71
1, 44961, Note_off_c, 0, 79, 68
1, 44983, Note_off_c, 0, 75, 65
1, 45010, Note_on_c, 0, 46, 67
1, 45022, Note_on_c, 0, 77, 67
1, 45035, Note_on_c, 0, 70, 68
1, 45037, Note_off_c, 0, 46, 62
1, 45083, Note_off_c, 0, 70, 68
1, 45093, Note_on_c, 0, 74, 73
1, 45095, Note_off_c, 0, 77, 63
1, 45119, Note_on_c, 0, 78, 52
1, 45121, Note_off_c, 0, 74, 70
1, 45162, Note_on_c, 0, 66, 86
1, 45191, Note_on_c, 0, 70, 53
1, 45200, Note_off_c, 0, 78, 64
1, 45200, Note_on_c, 0, 78, 46
1, 45206, Note_off_c, 0, 66, 65
1, 45220, Note_off_c, 0, 70, 61
1, 45238, Note_on_c, 0, 74, 77
1, 45254, Note_off_c, 0, 78, 65
1, 45255, Note_on_c, 0, 79, 77
1, 45266, Note_off_c, 0, 74, 71
1, 45294, Note_off_c, 0, 79, 62
1, 45321, Note_on_c, 0, 41, 80
1, 45344, Note_on_c, 0, 74, 84
1, 45347, Note_on_c, 0, 80, 80
1, 45348, Note_off_c, 0, 41, 68
1, 45398, Note_on_c, 0, 77, 77
1, 45400, Note_off_c, 0, 74, 59
1, 45402, Note_on_c, 0, 81, 73
1, 45410, Note_off_c, 0, 80, 65
1, 45440, Note_off_c, 0, 81, 64
1, 45440, Note_off_c, 0, 77, 63
1, 45473, Note_on_c, 0, 67, 78
1, 45492, Note_on_c, 0, 81, 77
1, 45500, Note_on_c, 0, 65, 75
1, 45502, Note_off_c, 0, 67, 72
1, 45504, Note_on_c, 0, 74, 78
1, 45530, Note_off_c, 0, 65, 70
1, 45541, Note_off_c, 0, 74, 63
1, 45584, Note_on_c, 0, 82, 62
1, 45585, Note_off_c, 0, 81, 64
1, 45608, Note_off_c, 0, 82, 64
1, 45632, Note_on_c, 0, 41, 80
1, 45660, Note_off_c, 0, 41, 68
1, 45661, Note_on_c, 0, 72, 81
1, 45665, Note_on_c, 0, 82, 83
1, 45700, Note_off_c, 0, 72, 61
1, 45702, Note_off_c, 0, 82, 58
1, 45721, Note_on_c, 0, 81, 65
1, 45752, Note_off_c, 0, 81, 67
1, 45762, Note_on_c, 0, 75, 64
1, 45799, Note_off_c, 0, 75, 67
1, 45811, Note_on_c, 0, 66, 58
1, 45823, Note_on_c, 0, 81, 75
1, 45828, Note_on_c, 0, 65, 63
1, 45838, Note_on_c, 0, 72, 66
1, 45841, Note_off_c, 0, 66, 63
1, 45856, Note_off_c, 0, 65, 63
1, 45866, Note_off_c, 0, 72, 62
1, 45871, Note_off_c, 0, 81, 62
1, 45895, Note_on_c, 0, 80, 69
1, 45898, Note_on_c, 0, 75, 73
1, 45924, Note_off_c, 0, 80, 71
1, 45934, Note_off_c, 0, 75, 61
1, 45968, Note_on_c, 0, 45, 71
1, 45979, Note_on_c, 0, 72, 71
1, 45995, Note_on_c, 0, 80, 62
1, 46002, Note_off_c, 0, 45, 65
1, 46027, Note_off_c, 0, 72, 58
1, 46039, Note_off_c, 0, 80, 60
1, 46059, Note_on_c, 0, 79, 63
1, 46061, Note_on_c, 0, 75, 78
1, 46086, Note_off_c, 0, 79, 61
1, 46092, Note_off_c, 0, 75, 61
1, 46121, Note_on_c, 0, 67, 69
1, 46150, Note_on_c, 0, 65, 68
1, 46150, Note_on_c, 0, 79, 68
1, 46154, Note_off_c, 0, 67, 68
1, 46154, Note_on_c, 0, 72, 58
1, 46184, Note_off_c, 0, 72, 60
1, 46186, Note_off_c, 0, 65, 68
1, 46192, Note_off_c, 0, 79, 61
1, 46207, Note_on_c, 0, 78, 69
1, 46210, Note_on_c, 0, 75, 71
1, 46240, Note_off_c, 0, 78, 74
1, 46240, Note_off_c, 0, 75, 71
1, 46289, Note_on_c, 0, 46, 74
1, 46302, Note_on_c, 0, 74, 73
1, 46303, Note_on_c, 0, 77, 76
1, 46317, Note_off_c, 0, 46, 66
1, 46337, Note_off_c, 0, 74, 64
1, 46368, Note_off_c, 0, 77, 63
1, 46376, Note_on_c, 0, 70, 65
1, 46380, Note_on_c, 0, 79, 62
1, 46408, Note_off_c, 0, 70, 69
1, 46417, Note_off_c, 0, 79, 66
1, 46451, Note_on_c, 0, 66, 74
1, 46454, Note_on_c, 0, 74, 57
1, 46470, Note_on_c, 0, 77, 53
1, 46477, Note_on_c, 0, 65, 69
1, 46482, Note_off_c, 0, 74, 64
1, 46484, Note_off_c, 0, 66, 67
1, 46512, Note_off_c, 0, 65, 69
1, 46514, Note_off_c, 0, 77, 65
1, 46519, Note_on_c, 0, 81, 72
1, 46558, Note_off_c, 0, 81, 60
1, 46600, Note_on_c, 0, 56, 80
1, 46602, Note_on_c, 0, 74, 64
1, 46620, Note_on_c, 0, 82, 73
1, 46633, Note_off_c, 0, 56, 72
1, 46668, Note_off_c, 0, 74, 58
1, 46684, Note_on_c, 0, 77, 64
1, 46688, Note_on_c, 0, 83, 71
1, 46690, Note_off_c, 0, 82, 63
1, 46716, Note_on_c, 0, 82, 23
1, 46717, Note_off_c, 0, 82, 127
1, 46720, Note_off_c, 0, 77, 66
1, 46771, Note_on_c, 0, 71, 73
1, 46774, Note_on_c, 0, 74, 72
1, 46785, Note_off_c, 0, 83, 60
1, 46800, Note_off_c, 0, 71, 69
1, 46802, Note_on_c, 0, 70, 74
1, 46803, Note_off_c, 0, 74, 67
1, 46813, Note_on_c, 0, 77, 69
1, 46829, Poly_aftertouch_c, 0, 82, 127
1, 46831, Note_off_c, 0, 70, 72
1, 46850, Note_on_c, 0, 84, 77
1, 46850, Poly_aftertouch_c, 0, 82, 0
1, 46854, Note_off_c, 0, 77, 64
1, 46926, Note_on_c, 0, 55, 80
1, 46938, Note_off_c, 0, 84, 62
1, 46939, Note_on_c, 0, 82, 75
1, 46946, Note_on_c, 0, 75, 73
1, 46959, Note_off_c, 0, 55, 69
1, 46994, Note_off_c, 0, 75, 64
1, 46998, Note_on_c, 0, 79, 77
1, 47008, Note_off_c, 0, 82, 63
1, 47017, Note_on_c, 0, 83, 67
1, 47048, Note_off_c, 0, 79, 57
1, 47098, Note_on_c, 0, 82, 73
1, 47100, Note_off_c, 0, 83, 62
1, 47107, Note_on_c, 0, 72, 61
1, 47108, Note_on_c, 0, 75, 56
1, 47128, Note_on_c, 0, 70, 72
1, 47134, Note_off_c, 0, 72, 62
1, 47134, Note_off_c, 0, 75, 62
1, 47159, Note_off_c, 0, 70, 73
1, 47162, Note_off_c, 0, 82, 64
1, 47175, Note_on_c, 0, 84, 73
1, 47255, Note_on_c, 0, 50, 80
1, 47266, Note_on_c, 0, 77, 71
1, 47269, Note_off_c, 0, 84, 60
1, 47272, Note_on_c, 0, 82, 69
1, 47288, Note_off_c, 0, 50, 65
1, 47308, Note_off_c, 0, 77, 58
1, 47317, Note_off_c, 0, 82, 57
1, 47326, Note_on_c, 0, 83, 72
1, 47337, Note_on_c, 0, 80, 67
1, 47369, Note_off_c, 0, 80, 70
1, 47419, Note_on_c, 0, 71, 71
1, 47435, Note_on_c, 0, 82, 78
1, 47439, Note_on_c, 0, 77, 57
1, 47440, Note_off_c, 0, 83, 63
1, 47443, Note_off_c, 0, 71, 65
1, 47455, Note_on_c, 0, 70, 70
1, 47466, Note_off_c, 0, 77, 61
1, 47477, Note_off_c, 0, 70, 71
1, 47485, Note_on_c, 0, 80, 71
1, 47495, Note_on_c, 0, 84, 73
1, 47504, Note_off_c, 0, 82, 63
1, 47522, Note_off_c, 0, 80, 65
1, 47536, Note_off_c, 0, 84, 64
1, 47574, Note_on_c, 0, 51, 80
1, 47583, Note_on_c, 0, 82, 77
1, 47604, Note_off_c, 0, 51, 68
1, 47612, Note_on_c, 0, 75, 67
1, 47641, Note_off_c, 0, 75, 61
1, 47660, Note_off_c, 0, 82, 63
1, 47673, Note_on_c, 0, 83, 61
1, 47686, Note_on_c, 0, 79, 6
1, 47699, Note_off_c, 0, 83, 65
1, 47736, Note_on_c, 0, 75, 50
1, 47742, Note_on_c, 0, 71, 72
1, 47766, Note_off_c, 0, 75, 58
1, 47771, Note_on_c, 0, 83, 66
1, 47774, Note_off_c, 0, 71, 68
1, 47787, Note_on_c, 0, 70, 64
1, 47807, Note_off_c, 0, 79, 54
1, 47808, Note_on_c, 0, 84, 78
1, 47809, Note_off_c, 0, 70, 68
1, 47819, Note_off_c, 0, 83, 64
1, 47856, Note_off_c, 0, 84, 63
1, 47900, Note_on_c, 0, 46, 80
1, 47903, Note_on_c, 0, 79, 75
1, 47909, Note_on_c, 0, 85, 80
1, 47936, Note_off_c, 0, 46, 68
1, 47939, Note_off_c, 0, 79, 57
1, 47941, Note_on_c, 0, 82, 69
1, 47965, Note_on_c, 0, 86, 78
1, 47967, Note_off_c, 0, 85, 62
1, 47995, Note_off_c, 0, 86, 70
1, 47999, Note_off_c, 0, 82, 63
1, 48051, Note_on_c, 0, 86, 83
1, 48054, Note_on_c, 0, 72, 79
1, 48066, Note_on_c, 0, 79, 71
1, 48085, Note_off_c, 0, 72, 70
1, 48093, Note_on_c, 0, 70, 60
1, 48105, Note_off_c, 0, 79, 58
1, 48118, Note_off_c, 0, 70, 66
1, 48128, Note_on_c, 0, 87, 88
1, 48147, Note_off_c, 0, 86, 65
1, 48168, Note_off_c, 0, 87, 65
1, 48235, Note_on_c, 0, 77, 82
1, 48239, Note_on_c, 0, 46, 71
1, 48242, Note_on_c, 0, 87, 78
1, 48269, Note_off_c, 0, 46, 62
1, 48285, Note_off_c, 0, 87, 61
1, 48299, Note_off_c, 0, 77, 61
1, 48304, Note_on_c, 0, 86, 67
1, 48336, Note_on_c, 0, 80, 68
1, 48344, Note_off_c, 0, 86, 64
1, 48367, Note_off_c, 0, 80, 70
1, 48408, Note_on_c, 0, 71, 64
1, 48416, Note_on_c, 0, 86, 71
1, 48438, Note_on_c, 0, 70, 70
1, 48438, Note_on_c, 0, 77, 60
1, 48443, Note_off_c, 0, 71, 66
1, 48446, Note_off_c, 0, 86, 69
1, 48467, Note_off_c, 0, 70, 69
1, 48470, Note_off_c, 0, 77, 52
1, 48482, Note_on_c, 0, 80, 75
1, 48488, Note_on_c, 0, 85, 71
1, 48516, Note_off_c, 0, 80, 66
1, 48516, Note_off_c, 0, 85, 71
1, 48570, Note_on_c, 0, 77, 76
1, 48574, Note_on_c, 0, 50, 76
1, 48598, Note_on_c, 0, 85, 60
1, 48610, Note_off_c, 0, 50, 66
1, 48615, Note_off_c, 0, 77, 56
1, 48624, Note_off_c, 0, 85, 63
1, 48645, Note_on_c, 0, 84, 67
1, 48645, Note_on_c, 0, 80, 77
1, 48675, Note_off_c, 0, 84, 69
1, 48689, Note_off_c, 0, 80, 59
1, 48731, Note_on_c, 0, 72, 63
1, 48750, Note_on_c, 0, 77, 67
1, 48753, Note_on_c, 0, 84, 76
1, 48767, Note_on_c, 0, 70, 75
1, 48770, Note_off_c, 0, 72, 63
1, 48773, Note_off_c, 0, 77, 62
1, 48793, Note_off_c, 0, 70, 72
1, 48802, Note_on_c, 0, 83, 73
1, 48810, Note_on_c, 0, 80, 73
1, 48812, Note_off_c, 0, 84, 62
1, 48841, Note_off_c, 0, 80, 65
1, 48846, Note_off_c, 0, 83, 62
1, 48896, Note_on_c, 0, 51, 79
1, 48901, Note_on_c, 0, 82, 78
1, 48916, Note_on_c, 0, 79, 74
1, 48930, Note_off_c, 0, 51, 69
1, 48960, Note_off_c, 0, 79, 54
1, 48970, Note_off_c, 0, 82, 65
1, 48992, Note_on_c, 0, 83, 73
1, 48997, Note_on_c, 0, 75, 73
1, 49027, Note_off_c, 0, 75, 64
1, 49044, Note_off_c, 0, 83, 61
1, 49066, Note_on_c, 0, 71, 70
1, 49071, Note_on_c, 0, 79, 59
1, 49074, Note_on_c, 0, 82, 57
1, 49094, Note_on_c, 0, 70, 66
1, 49098, Note_off_c, 0, 71, 68
1, 49108, Note_off_c, 0, 79, 55
1, 49112, Note_off_c, 0, 82, 65
1, 49127, Note_off_c, 0, 70, 71
1, 49137, Note_on_c, 0, 84, 76
1, 49138, Note_on_c, 0, 75, 76
1, 49164, Note_off_c, 0, 75, 71
1, 49200, Note_off_c, 0, 84, 56
1, 49222, Note_on_c, 0, 56, 73
1, 49222, Note_on_c, 0, 82, 83
1, 49252, Note_off_c, 0, 56, 70
1, 49261, Note_on_c, 0, 74, 61
1, 49301, Note_on_c, 0, 77, 78
1, 49313, Note_off_c, 0, 82, 63
1, 49318, Note_on_c, 0, 83, 69
1, 49327, Note_off_c, 0, 74, 61
1, 49345, Note_off_c, 0, 77, 63
1, 49374, Note_on_c, 0, 72, 73
1, 49398, Note_on_c, 0, 74, 52
1, 49399, Note_on_c, 0, 82, 72
1, 49404, Note_off_c, 0, 83, 62
1, 49409, Note_off_c, 0, 72, 67
1, 49418, Note_on_c, 0, 70, 69
1, 49444, Note_off_c, 0, 74, 66
1, 49447, Note_on_c, 0, 77, 73
1, 49449, Note_off_c, 0, 70, 71
1, 49469, Note_off_c, 0, 82, 64
1, 49486, Note_off_c, 0, 77, 65
1, 49486, Note_on_c, 0, 84, 75
1, 49536, Note_on_c, 0, 55, 78
1, 49556, Note_on_c, 0, 75, 82
1, 49564, Note_off_c, 0, 84, 65
1, 49565, Note_on_c, 0, 82, 77
1, 49572, Note_off_c, 0, 55, 68
1, 49625, Note_off_c, 0, 75, 58
1, 49626, Note_on_c, 0, 79, 81
1, 49639, Note_off_c, 0, 82, 64
1, 49647, Poly_aftertouch_c, 0, 83, 127
1, 49676, Note_off_c, 0, 79, 58
1, 49705, Note_on_c, 0, 71, 69
1, 49718, Note_on_c, 0, 82, 73
1, 49725, Note_on_c, 0, 75, 68
1, 49735, Poly_aftertouch_c, 0, 83, 0
1, 49737, Note_off_c, 0, 71, 68
1, 49740, Note_on_c, 0, 70, 68
1, 49759, Note_off_c, 0, 75, 70
1, 49771, Note_off_c, 0, 70, 70
1, 49777, Note_on_c, 0, 79, 54
1, 49788, Note_off_c, 0, 82, 64
1, 49789, Note_on_c, 0, 84, 80
1, 49804, Note_off_c, 0, 79, 59
1, 49864, Note_on_c, 0, 50, 73
1, 49867, Note_on_c, 0, 82, 73
1, 49867, Note_on_c, 0, 77, 80
1, 49871, Note_off_c, 0, 84, 66
1, 49902, Note_off_c, 0, 50, 64
1, 49933, Note_on_c, 0, 83, 75
1, 49936, Note_on_c, 0, 80, 83
1, 49937, Note_off_c, 0, 77, 60
1, 49942, Note_off_c, 0, 82, 63
1, 49981, Note_off_c, 0, 80, 59
1, 50019, Note_on_c, 0, 72, 70
1, 50023, Note_on_c, 0, 77, 66
1, 50029, Note_on_c, 0, 82, 78
1, 50039, Note_off_c, 0, 83, 63
1, 50053, Note_off_c, 0, 72, 67
1, 50062, Note_on_c, 0, 70, 52
1, 50068, Note_off_c, 0, 77, 64
1, 50078, Note_on_c, 0, 80, 81
1, 50097, Note_off_c, 0, 70, 42
1, 50098, Note_on_c, 0, 84, 80
1, 50109, Note_off_c, 0, 82, 63
1, 50120, Note_off_c, 0, 80, 65
1, 50133, Note_off_c, 0, 84, 65
1, 50165, Note_on_c, 0, 82, 77
1, 50171, Note_on_c, 0, 51, 80
1, 50187, Note_on_c, 0, 75, 81
1, 50205, Note_off_c, 0, 51, 68
1, 50226, Note_off_c, 0, 75, 57
1, 50239, Note_on_c, 0, 79, 59
1, 50257, Note_off_c, 0, 82, 64
1, 50261, Note_on_c, 0, 83, 72
1, 50268, Note_off_c, 0, 79, 63
1, 50290, Note_off_c, 0, 83, 66
1, 50319, Note_on_c, 0, 71, 80
1, 50326, Note_on_c, 0, 75, 63
1, 50345, Note_on_c, 0, 79, 71
1, 50349, Note_off_c, 0, 71, 71
1, 50351, Note_on_c, 0, 83, 58
1, 50352, Note_off_c, 0, 75, 65
1, 50364, Note_on_c, 0, 70, 72
1, 50384, Note_off_c, 0, 79, 61
1, 50391, Note_off_c, 0, 70, 69
1, 50393, Note_on_c, 0, 84, 82
1, 50413, Note_off_c, 0, 83, 63
1, 50440, Note_off_c, 0, 84, 63
1, 50472, Note_on_c, 0, 46, 85
1, 50480, Note_on_c, 0, 79, 80
1, 50494, Note_on_c, 0, 85, 75
1, 50502, Note_off_c, 0, 46, 67
1, 50521, Note_on_c, 0, 82, 80
1, 50540, Note_off_c, 0, 79, 59
1, 50544, Note_on_c, 0, 86, 81
1, 50547, Note_off_c, 0, 85, 62
1, 50577, Note_off_c, 0, 82, 61
1, 50578, Note_off_c, 0, 86, 65
1, 50624, Note_on_c, 0, 87, 80
1, 50626, Note_on_c, 0, 72, 80
1, 50636, Note_on_c, 0, 46, 26
1, 50637, Note_off_c, 0, 46, 127
1, 50644, Note_off_c, 0, 87, 67
1, 50644, Note_on_c, 0, 79, 62
1, 50646, Note_on_c, 0, 86, 80
1, 50651, Note_off_c, 0, 72, 70
1, 50658, Note_on_c, 0, 70, 80
1, 50686, Note_off_c, 0, 70, 74
1, 50687, Note_off_c, 0, 79, 63
1, 50688, Poly_aftertouch_c, 0, 82, 0
1, 50712, Note_on_c, 0, 87, 88
1, 50728, Note_off_c, 0, 86, 65
1, 50739, Note_off_c, 0, 87, 68
1, 50786, Note_on_c, 0, 46, 86
1, 50804, Note_on_c, 0, 77, 88
1, 50807, Note_on_c, 0, 87, 92
1, 50816, Note_off_c, 0, 46, 70
1, 50851, Note_off_c, 0, 87, 62
1, 50851, Note_on_c, 0, 86, 74
1, 50863, Note_off_c, 0, 77, 57
1, 50896, Note_on_c, 0, 80, 73
1, 50901, Note_off_c, 0, 86, 63
1, 50924, Note_off_c, 0, 80, 72
1, 50952, Note_on_c, 0, 71, 73
1, 50967, Note_on_c, 0, 86, 76
1, 50978, Note_off_c, 0, 71, 67
1, 50982, Note_on_c, 0, 70, 72
1, 50991, Note_on_c, 0, 77, 56
1, 51001, Note_off_c, 0, 86, 62
1, 51012, Note_off_c, 0, 70, 73
1, 51025, Note_off_c, 0, 77, 52
1, 51035, Note_on_c, 0, 85, 78
1, 51041, Note_on_c, 0, 80, 77
1, 51066, Note_off_c, 0, 85, 68
1, 51070, Note_off_c, 0, 80, 69
1, 51100, Poly_aftertouch_c, 0, 76, 0
1, 51122, Note_on_c, 0, 50, 77
1, 51126, Note_on_c, 0, 77, 83
1, 51134, Note_on_c, 0, 85, 74
1, 51161, Note_off_c, 0, 50, 65
1, 51183, Note_on_c, 0, 84, 74
1, 51189, Note_off_c, 0, 77, 61
1, 51192, Note_off_c, 0, 85, 42
1, 51196, Note_on_c, 0, 80, 83
1, 51234, Note_off_c, 0, 84, 62
1, 51255, Note_off_c, 0, 80, 60
1, 51282, Note_on_c, 0, 72, 64
1, 51287, Note_on_c, 0, 77, 76
1, 51292, Note_on_c, 0, 84, 67
1, 51309, Note_off_c, 0, 72, 64
1, 51317, Note_on_c, 0, 70, 66
1, 51321, Note_off_c, 0, 77, 60
1, 51339, Note_off_c, 0, 70, 67
1, 51356, Note_on_c, 0, 83, 71
1, 51363, Note_on_c, 0, 80, 78
1, 51372, Poly_aftertouch_c, 0, 71, 0
1, 51390, Note_off_c, 0, 84, 62
1, 51419, Note_off_c, 0, 80, 57
1, 51421, Note_off_c, 0, 83, 62
1, 51435, Note_on_c, 0, 51, 89
1, 51445, Note_on_c, 0, 82, 87
1, 51462, Note_on_c, 0, 79, 75
1, 51466, Note_off_c, 0, 51, 74
1, 51477, Control_c, 0, 64, 69
1, 51495, Control_c, 0, 64, 127
1, 51524, Note_off_c, 0, 79, 40
1, 51533, Note_on_c, 0, 84, 83
1, 51538, Note_off_c, 0, 82, 64
1, 51540, Note_on_c, 0, 75, 86
1, 51574, Note_off_c, 0, 84, 65
1, 51602, Note_on_c, 0, 79, 72
1, 51610, Note_on_c, 0, 82, 75
1, 51610, Note_on_c, 0, 71, 84
1, 51626, Note_off_c, 0, 75, 63
1, 51632, Note_on_c, 0, 70, 87
1, 51634, Note_off_c, 0, 71, 72
1, 51655, Note_off_c, 0, 70, 79
1, 51657, Note_off_c, 0, 79, 60
1, 51691, Note_on_c, 0, 87, 95
1, 51694, Note_off_c, 0, 82, 63
1, 51720, Control_c, 0, 64, 99
1, 51738, Control_c, 0, 64, 58
1, 51749, Note_off_c, 0, 87, 61
1, 51757, Control_c, 0, 64, 0
1, 51889, Control_c, 0, 64, 60
1, 51899, Note_on_c, 0, 35, 84
1, 51900, Note_on_c, 0, 47, 92
1, 51907, Note_on_c, 0, 91, 96
1, 51908, Control_c, 0, 64, 127
1, 51914, Note_on_c, 0, 80, 91
1, 51925, Note_off_c, 0, 35, 65
1, 51926, Note_off_c, 0, 47, 72
1, 52006, Note_on_c, 0, 86, 55
1, 52023, Note_on_c, 0, 88, 79
1, 52028, Note_off_c, 0, 80, 64
1, 52029, Note_off_c, 0, 91, 66
1, 52102, Note_off_c, 0, 86, 58
1, 52126, Note_off_c, 0, 88, 61
1, 52129, Note_on_c, 0, 91, 91
1, 52129, Poly_aftertouch_c, 0, 35, 0
1, 52134, Note_on_c, 0, 80, 91
1, 52151, Note_on_c, 0, 62, 88
1, 52167, Note_on_c, 0, 52, 65
1, 52169, Poly_aftertouch_c, 0, 54, 0
1, 52171, Note_on_c, 0, 53, 60
1, 52174, Note_on_c, 0, 56, 62
1, 52186, Note_off_c, 0, 80, 66
1, 52186, Note_off_c, 0, 62, 64
1, 52207, Note_off_c, 0, 53, 62
1, 52207, Note_off_c, 0, 52, 63
1, 52213, Note_on_c, 0, 89, 80
1, 52219, Note_on_c, 0, 86, 88
1, 52223, Note_off_c, 0, 91, 65
1, 52231, Note_off_c, 0, 56, 61
1, 52242, Control_c, 0, 64, 77
1, 52255, Note_off_c, 0, 89, 62
1, 52261, Control_c, 0, 64, 0
1, 52262, Note_off_c, 0, 86, 58
1, 52312, Note_on_c, 0, 55, 80
1, 52315, Note_on_c, 0, 63, 102
1, 52319, Note_on_c, 0, 89, 91
1, 52321, Note_on_c, 0, 79, 92
1, 52328, Note_on_c, 0, 48, 83
1, 52336, Control_c, 0, 64, 23
1, 52347, Note_off_c, 0, 63, 67
1, 52356, Control_c, 0, 64, 82
1, 52357, Note_off_c, 0, 55, 65
1, 52363, Note_off_c, 0, 48, 68
1, 52374, Control_c, 0, 64, 127
1, 52395, Note_on_c, 0, 84, 89
1, 52400, Note_on_c, 0, 86, 85
1, 52401, Note_off_c, 0, 79, 56
1, 52404, Note_off_c, 0, 89, 67
1, 52431, Poly_aftertouch_c, 0, 88, 127
1, 52460, Poly_aftertouch_c, 0, 88, 0
1, 52463, Note_off_c, 0, 86, 59
1, 52492, Note_off_c, 0, 84, 60
1, 52505, Note_on_c, 0, 79, 74
1, 52511, Note_on_c, 0, 89, 63
1, 52557, Note_off_c, 0, 89, 59
1, 52559, Note_on_c, 0, 87, 86
1, 52580, Note_off_c, 0, 79, 56
1, 52580, Note_on_c, 0, 84, 73
1, 52598, Control_c, 0, 64, 84
1, 52618, Control_c, 0, 64, 0
1, 52622, Note_off_c, 0, 87, 66
1, 52640, Note_off_c, 0, 84, 64
1, 52662, Poly_aftertouch_c, 0, 83, 0
1, 52671, Note_on_c, 0, 50, 101
1, 52671, Note_on_c, 0, 38, 82
1, 52686, Poly_aftertouch_c, 0, 44, 0
1, 52690, Note_on_c, 0, 77, 88
1, 52691, Note_on_c, 0, 87, 93
1, 52693, Control_c, 0, 64, 28
1, 52704, Note_off_c, 0, 50, 68
1, 52704, Note_off_c, 0, 38, 64
1, 52710, Control_c, 0, 64, 101
1, 52730, Control_c, 0, 64, 127
1, 52764, Note_on_c, 0, 85, 82
1, 52778, Note_off_c, 0, 77, 60
1, 52783, Note_off_c, 0, 87, 64
1, 52818, Poly_aftertouch_c, 0, 83, 127
1, 52869, Note_on_c, 0, 65, 82
1, 52870, Note_on_c, 0, 56, 72
1, 52871, Note_off_c, 0, 85, 61
1, 52878, Note_on_c, 0, 77, 80
1, 52880, Note_on_c, 0, 87, 79
1, 52884, Poly_aftertouch_c, 0, 83, 0
1, 52888, Note_on_c, 0, 59, 53
1, 52906, Note_off_c, 0, 56, 67
1, 52922, Note_off_c, 0, 65, 60
1, 52939, Note_on_c, 0, 86, 84
1, 52941, Note_on_c, 0, 83, 77
1, 52953, Note_off_c, 0, 59, 59
1, 52958, Note_off_c, 0, 77, 59
1, 52960, Note_off_c, 0, 87, 63
1, 52993, Note_on_c, 0, 51, 84
1, 53001, Note_off_c, 0, 83, 66
1, 53003, Note_off_c, 0, 86, 65
1, 53010, Control_c, 0, 64, 72
1, 53029, Control_c, 0, 64, 0
1, 53030, Note_off_c, 0, 51, 70
1, 53045, Note_on_c, 0, 60, 81
1, 53073, Note_on_c, 0, 67, 97
1, 53105, Poly_aftertouch_c, 0, 57, 0
1, 53109, Note_off_c, 0, 67, 65
1, 53116, Note_on_c, 0, 75, 88
1, 53118, Note_on_c, 0, 86, 92
1, 53120, Note_off_c, 0, 60, 66
1, 53122, Control_c, 0, 64, 49
1, 53141, Control_c, 0, 64, 84
1, 53160, Control_c, 0, 64, 127
1, 53188, Note_off_c, 0, 75, 57
1, 53195, Note_on_c, 0, 79, 77
1, 53201, Note_off_c, 0, 86, 66
1, 53214, Note_on_c, 0, 83, 73
1, 53278, Note_off_c, 0, 79, 57
1, 53284, Note_on_c, 0, 75, 82
1, 53285, Note_on_c, 0, 86, 80
1, 53301, Note_off_c, 0, 83, 63
1, 53349, Note_on_c, 0, 84, 84
1, 53366, Note_on_c, 0, 79, 80
1, 53372, Note_off_c, 0, 75, 65
1, 53389, Note_off_c, 0, 86, 64
1, 53420, Note_off_c, 0, 84, 63
1, 53424, Note_off_c, 0, 79, 61
1, 53460, Control_c, 0, 64, 70
1, 53476, Control_c, 0, 64, 0
1, 53477, Note_on_c, 0, 40, 68
1, 53482, Note_on_c, 0, 79, 77
1, 53485, Note_on_c, 0, 84, 79
1, 53552, Control_c, 0, 64, 19
1, 53566, Note_on_c, 0, 81, 75
1, 53571, Control_c, 0, 64, 56
1, 53590, Control_c, 0, 64, 83
1, 53595, Note_on_c, 0, 73, 76
1, 53603, Note_off_c, 0, 79, 62
1, 53604, Note_off_c, 0, 84, 64
1, 53609, Control_c, 0, 64, 127
1, 53643, Note_off_c, 0, 81, 62
1, 53682, Note_off_c, 0, 73, 64
1, 53688, Note_on_c, 0, 84, 74
1, 53689, Note_on_c, 0, 46, 74
1, 53690, Note_off_c, 0, 40, 59
1, 53703, Note_on_c, 0, 79, 58
1, 53723, Note_off_c, 0, 46, 65
1, 53763, Note_on_c, 0, 82, 80
1, 53765, Note_off_c, 0, 79, 48
1, 53772, Poly_aftertouch_c, 0, 78, 0
1, 53783, Note_off_c, 0, 84, 65
1, 53784, Note_on_c, 0, 73, 78
1, 53802, Note_off_c, 0, 82, 64
1, 53812, Note_off_c, 0, 73, 69
1, 53858, Note_on_c, 0, 52, 75
1, 53869, Control_c, 0, 64, 82
1, 53880, Note_on_c, 0, 81, 80
1, 53889, Control_c, 0, 64, 45
1, 53900, Note_on_c, 0, 73, 73
1, 53908, Control_c, 0, 64, 0
1, 53944, Control_c, 0, 64, 20
1, 53963, Control_c, 0, 64, 49
1, 53966, Note_off_c, 0, 73, 52
1, 53978, Note_on_c, 0, 79, 11
1, 53979, Note_off_c, 0, 79, 127
1, 53981, Control_c, 0, 64, 71
1, 53982, Note_off_c, 0, 81, 62
1, 53982, Note_on_c, 0, 78, 74
1, 53983, Note_on_c, 0, 70, 82
1, 54001, Control_c, 0, 64, 110
1, 54019, Control_c, 0, 64, 127
1, 54054, Note_off_c, 0, 70, 64
1, 54058, Note_off_c, 0, 52, 61
1, 54072, Note_on_c, 0, 81, 84
1, 54079, Note_on_c, 0, 58, 75
1, 54094, Note_on_c, 0, 73, 81
1, 54100, Note_off_c, 0, 78, 63
1, 54166, Note_on_c, 0, 79, 79
1, 54178, Note_off_c, 0, 73, 66
1, 54181, Note_off_c, 0, 81, 63
1, 54182, Note_on_c, 0, 70, 82
1, 54196, Note_off_c, 0, 79, 65
1, 54204, Note_off_c, 0, 70, 74
1, 54238, Note_off_c, 0, 58, 63
1, 54264, Control_c, 0, 64, 90
1, 54270, Note_on_c, 0, 55, 69
1, 54272, Note_on_c, 0, 61, 74
1, 54275, Note_on_c, 0, 77, 83
1, 54283, Control_c, 0, 64, 55
1, 54292, Note_on_c, 0, 70, 74
1, 54301, Control_c, 0, 64, 0
1, 54316, Note_off_c, 0, 70, 73
1, 54356, Control_c, 0, 64, 19
1, 54369, Note_on_c, 0, 67, 74
1, 54376, Control_c, 0, 64, 52
1, 54391, Note_on_c, 0, 75, 81
1, 54393, Control_c, 0, 64, 74
1, 54410, Note_off_c, 0, 77, 61
1, 54412, Control_c, 0, 64, 112
1, 54431, Control_c, 0, 64, 127
1, 54464, Note_off_c, 0, 67, 61
1, 54483, Note_on_c, 0, 73, 81
1, 54498, Note_off_c, 0, 61, 54
1, 54514, Note_off_c, 0, 75, 64
1, 54515, Note_on_c, 0, 58, 64
1, 54521, Note_on_c, 0, 77, 80
1, 54564, Note_off_c, 0, 73, 64
1, 54623, Note_on_c, 0, 67, 76
1, 54624, Note_on_c, 0, 76, 83
1, 54660, Note_off_c, 0, 77, 62
1, 54751, Note_off_c, 0, 58, 63
1, 54778, Note_on_c, 0, 53, 54
1, 54783, Note_off_c, 0, 55, 41
1, 54785, Note_on_c, 0, 62, 58
1, 54804, Control_c, 0, 64, 97
1, 54825, Control_c, 0, 64, 75
1, 54843, Control_c, 0, 64, 50
1, 54851, Note_off_c, 0, 67, 42
1, 54861, Control_c, 0, 64, 0
1, 54864, Note_on_c, 0, 79, 85
1, 54878, Note_off_c, 0, 76, 58
1, 54888, Note_on_c, 0, 70, 56
1, 54954, Control_c, 0, 64, 12
1, 54975, Control_c, 0, 64, 45
1, 54991, Control_c, 0, 64, 66
1, 55010, Control_c, 0, 64, 83
1, 55029, Control_c, 0, 64, 127
1, 55051, Note_on_c, 0, 65, 64
1, 55052, Note_off_c, 0, 70, 58
1, 55072, Note_off_c, 0, 53, 50
1, 55140, Note_off_c, 0, 65, 62
1, 55186, Note_on_c, 0, 70, 67
1, 55232, Note_off_c, 0, 70, 65
1, 55246, Note_on_c, 0, 53, 55
1, 55249, Note_on_c, 0, 77, 84
1, 55277, Note_off_c, 0, 79, 60
1, 55301, Note_off_c, 0, 62, 41
1, 55304, Note_off_c, 0, 77, 63
1, 55347, Control_c, 0, 64, 95
1, 55365, Control_c, 0, 64, 66
1, 55383, Note_on_c, 0, 74, 81
1, 55384, Control_c, 0, 64, 30
1, 55385, Note_on_c, 0, 59, 60
1, 55397, Note_on_c, 0, 68, 78
1, 55401, Control_c, 0, 64, 0
1, 55465, Note_off_c, 0, 68, 59
1, 55479, Control_c, 0, 64, 35
1, 55496, Control_c, 0, 64, 59
1, 55500, Note_on_c, 0, 65, 74
1, 55516, Control_c, 0, 64, 76
1, 55535, Control_c, 0, 64, 100
1, 55553, Control_c, 0, 64, 127
1, 55593, Note_on_c, 0, 68, 79
1, 55594, Note_off_c, 0, 65, 63
1, 55662, Note_off_c, 0, 74, 49
1, 55673, Note_on_c, 0, 75, 80
1, 55681, Note_off_c, 0, 68, 64
1, 55725, Note_off_c, 0, 75, 63
1, 55757, Note_off_c, 0, 59, 54
1, 55758, Control_c, 0, 64, 78
1, 55761, Note_on_c, 0, 60, 65
1, 55778, Control_c, 0, 64, 44
1, 55783, Note_on_c, 0, 74, 85
1, 55792, Note_on_c, 0, 64, 66
1, 55796, Control_c, 0, 64, 0
1, 55809, Note_on_c, 0, 70, 71
1, 55833, Note_off_c, 0, 64, 62
1, 55852, Control_c, 0, 64, 38
1, 55857, Note_off_c, 0, 60, 60
1, 55870, Control_c, 0, 64, 62
1, 55890, Control_c, 0, 64, 80
1, 55908, Control_c, 0, 64, 127
1, 55912, Note_on_c, 0, 67, 77
1, 55936, Note_off_c, 0, 53, 52
1, 55950, Note_off_c, 0, 70, 61
1, 55991, Note_on_c, 0, 64, 63
1, 56021, Note_off_c, 0, 67, 61
1, 56071, Note_on_c, 0, 72, 78
1, 56080, Note_off_c, 0, 64, 64
1, 56081, Note_off_c, 0, 74, 64
1, 56100, Note_off_c, 0, 72, 70
1, 56160, Note_on_c, 0, 40, 58
1, 56170, Control_c, 0, 64, 116
1, 56189, Control_c, 0, 64, 80
1, 56193, Note_on_c, 0, 67, 77
1, 56207, Control_c, 0, 64, 52
1, 56212, Note_on_c, 0, 63, 67
1, 56225, Control_c, 0, 64, 11
1, 56235, Note_off_c, 0, 40, 58
1, 56245, Control_c, 0, 64, 0
1, 56248, Note_off_c, 0, 63, 67
1, 56262, Note_on_c, 0, 41, 73
1, 56282, Control_c, 0, 64, 11
1, 56292, Note_on_c, 0, 60, 73
1, 56301, Control_c, 0, 64, 39
1, 56319, Control_c, 0, 64, 62
1, 56323, Note_off_c, 0, 41, 62
1, 56337, Control_c, 0, 64, 80
1, 56357, Control_c, 0, 64, 127
1, 56371, Note_on_c, 0, 40, 61
1, 56375, Note_on_c, 0, 63, 71
1, 56388, Note_off_c, 0, 60, 58
1, 56423, Note_off_c, 0, 40, 61
1, 56434, Note_on_c, 0, 41, 73
1, 56453, Note_on_c, 0, 69, 86
1, 56465, Note_off_c, 0, 63, 63
1, 56471, Note_off_c, 0, 41, 64
1, 56474, Note_off_c, 0, 67, 63
1, 56496, Note_off_c, 0, 69, 62
1, 56575, Note_on_c, 0, 53, 70
1, 56580, Control_c, 0, 64, 110
1, 56599, Control_c, 0, 64, 69
1, 56600, Note_on_c, 0, 62, 80
1, 56604, Note_on_c, 0, 72, 78
1, 56618, Control_c, 0, 64, 24
1, 56638, Control_c, 0, 64, 0
1, 56685, Note_off_c, 0, 62, 59
1, 56687, Note_on_c, 0, 65, 77
1, 56730, Control_c, 0, 64, 40
1, 56750, Control_c, 0, 64, 64
1, 56768, Control_c, 0, 64, 80
1, 56789, Control_c, 0, 64, 109
1, 56794, Note_off_c, 0, 65, 63
1, 56804, Note_on_c, 0, 62, 75
1, 56807, Control_c, 0, 64, 127
1, 56822, Note_off_c, 0, 53, 57
1, 56878, Note_off_c, 0, 62, 62
1, 56890, Note_on_c, 0, 70, 81
1, 56894, Note_off_c, 0, 72, 64
1, 56923, Note_on_c, 0, 41, 57
1, 56925, Note_off_c, 0, 70, 65
1, 57060, Note_on_c, 0, 47, 61
1, 57082, Note_on_c, 0, 67, 75
1, 57084, Control_c, 0, 64, 110
1, 57105, Control_c, 0, 64, 77
1, 57114, Note_on_c, 0, 56, 60
1, 57123, Control_c, 0, 64, 45
1, 57142, Control_c, 0, 64, 0
1, 57222, Note_off_c, 0, 56, 64
1, 57235, Control_c, 0, 64, 31
1, 57247, Note_on_c, 0, 62, 56
1, 57253, Control_c, 0, 64, 58
1, 57273, Control_c, 0, 64, 74
1, 57291, Control_c, 0, 64, 94
1, 57310, Control_c, 0, 64, 127
1, 57365, Note_off_c, 0, 67, 61
1, 57375, Note_on_c, 0, 56, 47
1, 57404, Note_off_c, 0, 62, 51
1, 57418, Note_off_c, 0, 56, 67
1, 57447, Note_on_c, 0, 65, 53
1, 57485, Note_off_c, 0, 65, 64
1, 57552, Note_on_c, 0, 48, 47
1, 57552, Note_on_c, 0, 55, 62
1, 57553, Note_off_c, 0, 47, 49
1, 57553, Control_c, 0, 64, 98
1, 57570, Control_c, 0, 64, 71
1, 57573, Note_on_c, 0, 65, 58
1, 57592, Control_c, 0, 64, 44
1, 57609, Control_c, 0, 64, 8
1, 57614, Note_off_c, 0, 55, 53
1, 57628, Control_c, 0, 64, 0
1, 57665, Control_c, 0, 64, 17
1, 57666, Note_on_c, 0, 60, 54
1, 57684, Control_c, 0, 64, 42
1, 57703, Control_c, 0, 64, 63
1, 57721, Control_c, 0, 64, 79
1, 57740, Control_c, 0, 64, 114
1, 57759, Control_c, 0, 64, 127
1, 57765, Note_off_c, 0, 48, 53
1, 57775, Note_on_c, 0, 55, 57
1, 57840, Note_off_c, 0, 60, 56
1, 57866, Note_off_c, 0, 55, 61
1, 57869, Note_off_c, 0, 65, 61
1, 57882, Note_on_c, 0, 63, 65
1, 57918, Note_off_c, 0, 63, 66
1, 58023, Note_on_c, 0, 42, 54
1, 58049, Note_off_c, 0, 41, 43
1, 58100, Note_on_c, 0, 60, 69
1, 58105, Note_on_c, 0, 51, 59
1, 58151, Control_c, 0, 64, 100
1, 58172, Control_c, 0, 64, 82
1, 58189, Control_c, 0, 64, 65
1, 58208, Control_c, 0, 64, 40
1, 58226, Control_c, 0, 64, 0
1, 58271, Note_off_c, 0, 51, 49
1, 58295, Note_off_c, 0, 42, 63
1, 58297, Note_on_c, 0, 57, 51
1, 58335, Note_on_c, 0, 41, 34
1, 58425, Note_off_c, 0, 57, 52
1, 58427, Note_off_c, 0, 41, 55
1, 58439, Note_on_c, 0, 51, 46
1, 58467, Note_on_c, 0, 42, 51
1, 58590, Note_off_c, 0, 51, 59
1, 58595, Note_off_c, 0, 60, 58
1, 58610, Note_off_c, 0, 42, 61
1, 58632, Note_on_c, 0, 62, 49
1, 58632, Note_on_c, 0, 57, 42
1, 58646, Note_on_c, 0, 41, 40
1, 58795, Note_off_c, 0, 57, 27
1, 58896, Note_off_c, 0, 41, 41
1, 58924, Note_off_c, 0, 62, 57
1, 58934, Note_on_c, 0, 58, 50
1, 58937, Control_c, 0, 64, 16
1, 58945, Note_on_c, 0, 34, 41
1, 58953, Note_on_c, 0, 50, 40
1, 58955, Control_c, 0, 64, 45
1, 58974, Control_c, 0, 64, 60
1, 58995, Control_c, 0, 64, 70
1, 59004, Note_off_c, 0, 58, 63
1, 59012, Control_c, 0, 64, 87
1, 59014, Note_off_c, 0, 34, 60
1, 59027, Note_off_c, 0, 50, 60
1, 59031, Control_c, 0, 64, 127
1, 59338, Note_on_c, 0, 50, 54
1, 59345, Note_on_c, 0, 53, 44
1, 59366, Note_on_c, 0, 58, 38
1, 59386, Control_c, 0, 64, 101
1, 59387, Note_off_c, 0, 53, 53
1, 59390, Note_off_c, 0, 50, 62
1, 59404, Control_c, 0, 64, 82
1, 59422, Note_off_c, 0, 58, 58
1, 59422, Control_c, 0, 64, 63
1, 59442, Control_c, 0, 64, 37
1, 59462, Control_c, 0, 64, 0
1, 59464, Note_on_c, 0, 62, 36
1, 59505, Note_off_c, 0, 62, 54
1, 59522, Note_on_c, 0, 48, 67
1, 59543, Note_on_c, 0, 58, 49
1, 59545, Note_on_c, 0, 54, 36
1, 59568, Note_off_c, 0, 48, 63
1, 59591, Note_off_c, 0, 54, 49
1, 59591, Note_off_c, 0, 58, 64
1, 59603, Note_on_c, 0, 62, 59
1, 59665, Note_off_c, 0, 62, 53
1, 59686, Note_on_c, 0, 55, 54
1, 59693, Note_on_c, 0, 47, 72
1, 59707, Note_on_c, 0, 58, 49
1, 59716, Note_off_c, 0, 55, 58
1, 59728, Note_off_c, 0, 47, 61
1, 59754, Note_off_c, 0, 58, 67
1, 59781, Note_on_c, 0, 62, 48
1, 59831, Note_off_c, 0, 62, 54
1, 59847, Note_on_c, 0, 54, 59
1, 59861, Note_on_c, 0, 58, 55
1, 59866, Note_on_c, 0, 46, 67
1, 59877, Note_off_c, 0, 54, 60
1, 59899, Note_off_c, 0, 46, 66
1, 59912, Note_off_c, 0, 58, 67
1, 59936, Note_on_c, 0, 62, 57
1, 59999, Note_off_c, 0, 62, 58
1, 60021, Note_on_c, 0, 58, 52
1, 60023, Note_on_c, 0, 50, 56
1, 60026, Note_on_c, 0, 53, 43
1, 60065, Note_off_c, 0, 50, 64
1, 60069, Note_off_c, 0, 58, 62
1, 60076, Note_off_c, 0, 53, 36
1, 60139, Note_on_c, 0, 62, 30
1, 60181, Note_on_c, 0, 54, 59
1, 60190, Note_off_c, 0, 62, 53
1, 60190, Note_on_c, 0, 48, 54
1, 60222, Note_off_c, 0, 54, 63
1, 60238, Note_on_c, 0, 58, 27
1, 60241, Note_off_c, 0, 48, 59
1, 60286, Note_off_c, 0, 58, 58
1, 60290, Note_on_c, 0, 47, 44
1, 60316, Note_on_c, 0, 62, 34
1, 60332, Note_off_c, 0, 47, 55
1, 60349, Note_on_c, 0, 55, 45
1, 60363, Note_off_c, 0, 62, 52
1, 60388, Note_off_c, 0, 55, 58
1, 60404, Note_on_c, 0, 46, 28
1, 60404, Note_on_c, 0, 58, 46
1, 60453, Note_off_c, 0, 58, 65
1, 60471, Note_on_c, 0, 62, 46
1, 60492, Note_off_c, 0, 46, 48
1, 60507, Control_c, 0, 67, 8
1, 60526, Control_c, 0, 67, 13
1, 60546, Control_c, 0, 67, 22
1, 60552, Note_off_c, 0, 62, 57
1, 60564, Control_c, 0, 67, 34
1, 60582, Control_c, 0, 67, 48
1, 60601, Control_c, 0, 67, 62
1, 60613, Note_on_c, 0, 57, 26
1, 60617, Note_on_c, 0, 54, 33
1, 60620, Control_c, 0, 64, 23
1, 60621, Control_c, 0, 67, 78
1, 60639, Control_c, 0, 64, 43
1, 60640, Control_c, 0, 67, 93
1, 60657, Control_c, 0, 64, 58
1, 60658, Control_c, 0, 67, 106
1, 60676, Control_c, 0, 64, 67
1, 60678, Control_c, 0, 67, 112
1, 60695, Control_c, 0, 64, 78
1, 60711, Control_c, 0, 64, 95
1, 60717, Note_on_c, 0, 63, 55
1, 60721, Note_off_c, 0, 54, 47
1, 60732, Control_c, 0, 64, 127
1, 60734, Control_c, 0, 67, 117
1, 60766, Note_off_c, 0, 57, 51
1, 60780, Note_off_c, 0, 63, 61
1, 60787, Control_c, 0, 67, 122
1, 60993, Note_on_c, 0, 87, 69
1, 61006, Note_on_c, 0, 81, 32
1, 61006, Note_on_c, 0, 78, 44
1, 61011, Control_c, 0, 64, 115
1, 61030, Control_c, 0, 64, 80
1, 61048, Note_off_c, 0, 78, 62
1, 61049, Control_c, 0, 64, 50
1, 61052, Note_off_c, 0, 81, 53
1, 61061, Note_off_c, 0, 87, 63
1, 61066, Note_on_c, 0, 84, 63
1, 61067, Control_c, 0, 64, 0
1, 61134, Note_on_c, 0, 80, 70
1, 61144, Note_off_c, 0, 84, 61
1, 61144, Note_on_c, 0, 74, 39
1, 61154, Note_on_c, 0, 71, 36
1, 61180, Note_off_c, 0, 80, 61
1, 61184, Note_off_c, 0, 74, 54
1, 61195, Note_off_c, 0, 71, 46
1, 61205, Note_on_c, 0, 77, 69
1, 61249, Note_off_c, 0, 77, 53
1, 61279, Note_on_c, 0, 75, 60
1, 61291, Note_on_c, 0, 72, 58
1, 61293, Note_on_c, 0, 81, 62
1, 61302, Note_off_c, 0, 75, 66
1, 61329, Note_off_c, 0, 72, 65
1, 61344, Note_off_c, 0, 81, 59
1, 61350, Note_on_c, 0, 78, 66
1, 61426, Note_off_c, 0, 78, 65
1, 61429, Note_on_c, 0, 74, 63
1, 61431, Note_on_c, 0, 65, 60
1, 61433, Note_on_c, 0, 68, 54
1, 61454, Note_off_c, 0, 74, 65
1, 61463, Note_off_c, 0, 68, 63
1, 61469, Note_off_c, 0, 65, 65
1, 61504, Note_on_c, 0, 71, 58
1, 61556, Note_off_c, 0, 71, 58
1, 61571, Note_on_c, 0, 75, 61
1, 61580, Note_on_c, 0, 69, 46
1, 61611, Note_on_c, 0, 66, 32
1, 61612, Note_off_c, 0, 69, 59
1, 61634, Note_off_c, 0, 75, 58
1, 61650, Note_off_c, 0, 66, 51
1, 61652, Note_on_c, 0, 72, 55
1, 61721, Note_off_c, 0, 72, 60
1, 61732, Note_on_c, 0, 68, 62
1, 61746, Note_on_c, 0, 59, 45
1, 61777, Note_off_c, 0, 68, 62
1, 61782, Note_off_c, 0, 59, 54
1, 61820, Note_on_c, 0, 65, 51
1, 61830, Poly_aftertouch_c, 0, 62, 0
1, 61868, Note_off_c, 0, 65, 63
1, 61911, Note_on_c, 0, 69, 54
1, 61912, Note_on_c, 0, 63, 43
1, 61924, Note_on_c, 0, 60, 22
1, 61952, Note_off_c, 0, 63, 55
1, 61962, Note_off_c, 0, 69, 61
1, 61985, Note_off_c, 0, 60, 30
1, 61999, Note_on_c, 0, 78, 44
1, 62051, Note_off_c, 0, 78, 66
1, 62153, Control_c, 0, 64, 16
1, 62168, Note_on_c, 0, 77, 36
1, 62171, Control_c, 0, 64, 42
1, 62173, Control_c, 0, 67, 117
1, 62174, Note_on_c, 0, 62, 37
1, 62175, Note_on_c, 0, 65, 46
1, 62181, Note_on_c, 0, 70, 37
1, 62190, Control_c, 0, 64, 59
1, 62210, Control_c, 0, 64, 69
1, 62211, Control_c, 0, 67, 111
1, 62221, Note_off_c, 0, 77, 61
1, 62223, Note_off_c, 0, 70, 61
1, 62225, Note_off_c, 0, 62, 62
1, 62226, Control_c, 0, 64, 84
1, 62229, Note_off_c, 0, 65, 63
1, 62229, Control_c, 0, 67, 105
1, 62247, Control_c, 0, 64, 112
1, 62248, Control_c, 0, 67, 98
1, 62265, Control_c, 0, 64, 127
1, 62266, Control_c, 0, 67, 88
1, 62284, Control_c, 0, 67, 75
1, 62302, Control_c, 0, 67, 58
1, 62321, Control_c, 0, 67, 40
1, 62340, Control_c, 0, 67, 22
1, 62377, Control_c, 0, 67, 0
1, 62557, Note_on_c, 0, 58, 52
1, 62561, Note_on_c, 0, 53, 40
1, 62566, Note_on_c, 0, 50, 65
1, 62603, Note_off_c, 0, 53, 58
1, 62617, Note_off_c, 0, 58, 58
1, 62619, Note_off_c, 0, 50, 60
1, 62639, Control_c, 0, 64, 108
1, 62650, Note_on_c, 0, 62, 39
1, 62655, Control_c, 0, 64, 83
1, 62677, Control_c, 0, 64, 62
1, 62696, Control_c, 0, 64, 33
1, 62713, Note_off_c, 0, 62, 61
1, 62713, Control_c, 0, 64, 0
1, 62731, Note_on_c, 0, 54, 52
1, 62734, Note_on_c, 0, 48, 80
1, 62736, Note_on_c, 0, 58, 58
1, 62775, Note_off_c, 0, 54, 65
1, 62781, Note_off_c, 0, 58, 65
1, 62787, Note_off_c, 0, 48, 59
1, 62813, Note_on_c, 0, 62, 63
1, 62862, Note_off_c, 0, 62, 59
1, 62882, Note_on_c, 0, 55, 63
1, 62887, Note_on_c, 0, 58, 60
1, 62887, Note_on_c, 0, 47, 86
1, 62924, Note_off_c, 0, 55, 66
1, 62931, Note_off_c, 0, 47, 59
1, 62936, Note_off_c, 0, 58, 65
1, 62992, Note_on_c, 0, 62, 52
1, 63037, Note_off_c, 0, 62, 56
1, 63054, Note_on_c, 0, 46, 82
1, 63067, Note_on_c, 0, 58, 63
1, 63077, Note_on_c, 0, 54, 27
1, 63094, Note_off_c, 0, 46, 67
1, 63110, Note_off_c, 0, 58, 66
1, 63139, Note_on_c, 0, 62, 58
1, 63141, Note_off_c, 0, 54, 29
1, 63189, Note_off_c, 0, 62, 63
1, 63223, Note_on_c, 0, 50, 71
1, 63225, Note_on_c, 0, 58, 58
1, 63232, Note_on_c, 0, 53, 36
1, 63258, Note_off_c, 0, 50, 64
1, 63271, Note_off_c, 0, 53, 46
1, 63271, Note_off_c, 0, 58, 66
1, 63328, Note_on_c, 0, 62, 50
1, 63370, Note_off_c, 0, 62, 61
1, 63388, Note_on_c, 0, 48, 63
1, 63411, Note_on_c, 0, 54, 22
1, 63429, Note_off_c, 0, 48, 63
1, 63441, Note_on_c, 0, 58, 16
1, 63473, Note_on_c, 0, 47, 57
1, 63478, Note_off_c, 0, 54, 30
1, 63485, Note_off_c, 0, 58, 47
1, 63488, Note_on_c, 0, 62, 46
1, 63517, Note_off_c, 0, 47, 60
1, 63526, Note_off_c, 0, 62, 58
1, 63560, Note_on_c, 0, 55, 28
1, 63571, Note_on_c, 0, 46, 58
1, 63609, Note_off_c, 0, 55, 42
1, 63643, Note_on_c, 0, 62, 52
1, 63661, Note_off_c, 0, 46, 57
1, 63683, Poly_aftertouch_c, 0, 58, 127
1, 63701, Poly_aftertouch_c, 0, 58, 0
1, 63719, Note_off_c, 0, 62, 57
1, 63780, Note_on_c, 0, 54, 45
1, 63813, Note_on_c, 0, 57, 47
1, 63814, Control_c, 0, 67, 8
1, 63854, Control_c, 0, 67, 16
1, 63873, Control_c, 0, 67, 25
1, 63893, Control_c, 0, 64, 35
1, 63894, Control_c, 0, 67, 38
1, 63900, Note_on_c, 0, 63, 57
1, 63908, Control_c, 0, 64, 54
1, 63909, Control_c, 0, 67, 53
1, 63927, Note_off_c, 0, 54, 61
1, 63930, Control_c, 0, 64, 66
1, 63931, Control_c, 0, 67, 69
1, 63947, Note_off_c, 0, 57, 63
1, 63948, Control_c, 0, 64, 80
1, 63949, Control_c, 0, 67, 85
1, 63965, Note_off_c, 0, 63, 53
1, 63966, Control_c, 0, 64, 113
1, 63969, Control_c, 0, 67, 98
1, 63985, Control_c, 0, 64, 127
1, 63987, Control_c, 0, 67, 107
1, 64187, Note_on_c, 0, 87, 75
1, 64199, Note_on_c, 0, 81, 36
1, 64228, Control_c, 0, 64, 111
1, 64232, Note_on_c, 0, 78, 25
1, 64244, Note_off_c, 0, 81, 53
1, 64247, Control_c, 0, 64, 74
1, 64257, Note_on_c, 0, 84, 74
1, 64265, Control_c, 0, 64, 39
1, 64267, Note_off_c, 0, 87, 62
1, 64269, Note_off_c, 0, 78, 51
1, 64284, Control_c, 0, 64, 0
1, 64325, Note_on_c, 0, 74, 47
1, 64337, Note_on_c, 0, 80, 73
1, 64338, Note_off_c, 0, 84, 63
1, 64355, Note_on_c, 0, 71, 16
1, 64358, Note_off_c, 0, 74, 57
1, 64358, Control_c, 0, 67, 103
1, 64394, Note_on_c, 0, 77, 68
1, 64399, Note_off_c, 0, 80, 63
1, 64426, Note_off_c, 0, 71, 27
1, 64445, Note_off_c, 0, 77, 51
1, 64471, Note_on_c, 0, 75, 58
1, 64476, Note_on_c, 0, 81, 74
1, 64478, Note_on_c, 0, 72, 67
1, 64495, Note_off_c, 0, 75, 64
1, 64511, Note_off_c, 0, 72, 67
1, 64533, Note_on_c, 0, 78, 69
1, 64552, Note_off_c, 0, 81, 62
1, 64608, Note_on_c, 0, 74, 73
1, 64621, Note_off_c, 0, 78, 65
1, 64621, Control_c, 0, 67, 97
1, 64624, Note_on_c, 0, 68, 58
1, 64630, Note_on_c, 0, 65, 57
1, 64638, Note_off_c, 0, 74, 65
1, 64639, Control_c, 0, 67, 90
1, 64658, Control_c, 0, 67, 80
1, 64660, Note_off_c, 0, 68, 65
1, 64662, Note_off_c, 0, 65, 61
1, 64677, Control_c, 0, 67, 66
1, 64687, Note_on_c, 0, 71, 65
1, 64696, Control_c, 0, 67, 50
1, 64714, Control_c, 0, 67, 32
1, 64734, Control_c, 0, 67, 12
1, 64747, Note_off_c, 0, 71, 53
1, 64751, Control_c, 0, 67, 0
1, 64758, Note_on_c, 0, 75, 60
1, 64764, Note_on_c, 0, 69, 59
1, 64793, Note_on_c, 0, 66, 42
1, 64800, Note_off_c, 0, 69, 64
1, 64813, Note_off_c, 0, 75, 59
1, 64823, Note_on_c, 0, 72, 61
1, 64831, Note_off_c, 0, 66, 55
1, 64899, Note_off_c, 0, 72, 61
1, 64906, Note_on_c, 0, 68, 62
1, 64918, Note_on_c, 0, 62, 48
1, 64925, Note_on_c, 0, 59, 48
1, 64948, Note_off_c, 0, 68, 65
1, 64954, Note_off_c, 0, 62, 57
1, 64965, Note_off_c, 0, 59, 54
1, 65004, Note_on_c, 0, 65, 43
1, 65050, Note_off_c, 0, 65, 54
1, 65073, Note_on_c, 0, 69, 58
1, 65074, Note_on_c, 0, 63, 51
1, 65085, Note_on_c, 0, 60, 42
1, 65111, Note_off_c, 0, 63, 59
1, 65125, Note_off_c, 0, 60, 52
1, 65141, Note_off_c, 0, 69, 59
1, 65159, Note_on_c, 0, 78, 57
1, 65198, Note_off_c, 0, 78, 67
1, 65275, Control_c, 0, 64, 27
1, 65295, Control_c, 0, 64, 55
1, 65313, Control_c, 0, 64, 68
1, 65331, Control_c, 0, 64, 82
1, 65341, Note_on_c, 0, 59, 66
1, 65345, Note_on_c, 0, 62, 66
1, 65346, Note_on_c, 0, 65, 68
1, 65350, Control_c, 0, 64, 118
1, 65353, Note_on_c, 0, 56, 61
1, 65360, Note_on_c, 0, 46, 46
1, 65369, Control_c, 0, 64, 127
1, 65378, Note_off_c, 0, 59, 65
1, 65380, Note_off_c, 0, 62, 67
1, 65386, Note_off_c, 0, 65, 66
1, 65389, Note_off_c, 0, 56, 68
1, 65403, Note_off_c, 0, 46, 53
1, 65647, Note_on_c, 0, 89, 82
1, 65656, Note_on_c, 0, 80, 67
1, 65667, Note_on_c, 0, 83, 49
1, 65697, Note_off_c, 0, 83, 59
1, 65702, Note_off_c, 0, 80, 53
1, 65720, Note_on_c, 0, 86, 79
1, 65740, Note_off_c, 0, 89, 63
1, 65780, Note_on_c, 0, 73, 73
1, 65783, Note_on_c, 0, 76, 63
1, 65783, Note_on_c, 0, 82, 85
1, 65809, Note_off_c, 0, 73, 70
1, 65810, Note_off_c, 0, 86, 64
1, 65816, Note_off_c, 0, 76, 67
1, 65854, Note_off_c, 0, 82, 61
1, 65860, Note_on_c, 0, 79, 72
1, 65873, Control_c, 0, 64, 114
1, 65892, Control_c, 0, 64, 82
1, 65895, Note_off_c, 0, 79, 61
1, 65911, Control_c, 0, 64, 55
1, 65925, Note_on_c, 0, 77, 59
1, 65929, Note_on_c, 0, 74, 69
1, 65930, Control_c, 0, 64, 8
1, 65937, Note_on_c, 0, 83, 82
1, 65948, Control_c, 0, 64, 0
1, 65951, Note_off_c, 0, 77, 39
1, 65959, Note_off_c, 0, 74, 69
1, 65998, Note_on_c, 0, 80, 75
1, 66034, Note_off_c, 0, 83, 63
1, 66063, Note_on_c, 0, 76, 63
1, 66063, Note_on_c, 0, 67, 67
1, 66065, Note_on_c, 0, 70, 68
1, 66084, Note_off_c, 0, 80, 65
1, 66094, Note_off_c, 0, 70, 70
1, 66096, Note_off_c, 0, 67, 67
1, 66114, Note_off_c, 0, 76, 60
1, 66134, Note_on_c, 0, 73, 78
1, 66164, Note_off_c, 0, 73, 70
1, 66205, Note_on_c, 0, 71, 65
1, 66222, Note_on_c, 0, 77, 78
1, 66241, Note_off_c, 0, 71, 67
1, 66263, Note_on_c, 0, 68, 16
1, 66291, Note_on_c, 0, 74, 67
1, 66295, Note_off_c, 0, 77, 61
1, 66342, Note_off_c, 0, 68, 38
1, 66350, Note_on_c, 0, 61, 64
1, 66351, Note_on_c, 0, 70, 77
1, 66358, Note_on_c, 0, 64, 56
1, 66368, Note_off_c, 0, 74, 61
1, 66388, Note_off_c, 0, 61, 66
1, 66393, Note_off_c, 0, 64, 66
1, 66425, Note_off_c, 0, 70, 66
1, 66451, Note_on_c, 0, 67, 67
1, 66501, Note_on_c, 0, 62, 64
1, 66506, Note_off_c, 0, 67, 63
1, 66507, Note_on_c, 0, 65, 47
1, 66515, Note_on_c, 0, 71, 70
1, 66529, Note_off_c, 0, 62, 62
1, 66546, Note_off_c, 0, 65, 57
1, 66565, Note_off_c, 0, 71, 62
1, 66582, Note_on_c, 0, 80, 70
1, 66608, Note_off_c, 0, 80, 65
1, 66752, Control_c, 0, 64, 47
1, 66754, Note_on_c, 0, 61, 85
1, 66757, Note_on_c, 0, 67, 88
1, 66764, Note_on_c, 0, 46, 66
1, 66769, Note_on_c, 0, 64, 71
1, 66772, Control_c, 0, 64, 95
1, 66783, Note_off_c, 0, 61, 72
1, 66789, Control_c, 0, 64, 127
1, 66795, Note_off_c, 0, 64, 67
1, 66795, Note_off_c, 0, 67, 63
1, 66800, Note_off_c, 0, 46, 65
1, 66802, Note_on_c, 0, 62, 34
1, 66855, Note_off_c, 0, 62, 50
1, 67027, Note_on_c, 0, 85, 89
1, 67027, Note_on_c, 0, 91, 97
1, 67030, Note_on_c, 0, 82, 82
1, 67060, Note_off_c, 0, 85, 59
1, 67097, Note_off_c, 0, 82, 59
1, 67101, Note_on_c, 0, 88, 65
1, 67109, Note_on_c, 0, 86, 78
1, 67146, Note_off_c, 0, 91, 59
1, 67169, Note_on_c, 0, 84, 84
1, 67180, Note_on_c, 0, 78, 77
1, 67183, Note_off_c, 0, 86, 56
1, 67188, Note_off_c, 0, 88, 64
1, 67191, Note_on_c, 0, 75, 70
1, 67234, Note_off_c, 0, 84, 61
1, 67262, Note_on_c, 0, 81, 81
1, 67293, Note_off_c, 0, 75, 63
1, 67304, Note_on_c, 0, 79, 81
1, 67309, Note_off_c, 0, 78, 65
1, 67324, Note_on_c, 0, 76, 80
1, 67326, Note_off_c, 0, 81, 61
1, 67328, Note_off_c, 0, 79, 70
1, 67334, Note_on_c, 0, 85, 86
1, 67349, Note_off_c, 0, 76, 72
1, 67374, Note_on_c, 0, 87, 31
1, 67409, Note_off_c, 0, 85, 66
1, 67420, Note_on_c, 0, 82, 87
1, 67426, Note_off_c, 0, 87, 55
1, 67439, Note_off_c, 0, 82, 73
1, 67500, Control_c, 0, 64, 61
1, 67519, Control_c, 0, 64, 0
1, 67522, Note_on_c, 0, 46, 84
1, 67600, Note_on_c, 0, 54, 88
1, 67621, Note_on_c, 0, 60, 87
1, 67623, Note_off_c, 0, 46, 64
1, 67631, Control_c, 0, 64, 70
1, 67635, Note_on_c, 0, 69, 102
1, 67643, Note_on_c, 0, 63, 88
1, 67646, Note_off_c, 0, 60, 71
1, 67650, Control_c, 0, 64, 127
1, 67655, Note_off_c, 0, 54, 64
1, 67666, Note_off_c, 0, 63, 73
1, 67673, Note_off_c, 0, 69, 60
1, 67950, Note_on_c, 0, 84, 81
1, 67955, Note_on_c, 0, 87, 91
1, 67958, Note_on_c, 0, 93, 102
1, 68021, Note_off_c, 0, 87, 65
1, 68043, Note_on_c, 0, 90, 83
1, 68066, Note_off_c, 0, 93, 63
1, 68089, Note_off_c, 0, 84, 50
1, 68111, Note_on_c, 0, 86, 78
1, 68118, Note_on_c, 0, 80, 73
1, 68122, Note_on_c, 0, 77, 74
1, 68146, Note_off_c, 0, 90, 64
1, 68177, Note_off_c, 0, 86, 58
1, 68186, Note_on_c, 0, 83, 82
1, 68206, Note_off_c, 0, 80, 62
1, 68250, Note_on_c, 0, 81, 88
1, 68251, Note_off_c, 0, 77, 58
1, 68258, Note_on_c, 0, 78, 79
1, 68269, Note_off_c, 0, 83, 64
1, 68272, Note_on_c, 0, 87, 88
1, 68289, Note_off_c, 0, 81, 61
1, 68306, Note_off_c, 0, 78, 67
1, 68340, Note_on_c, 0, 84, 87
1, 68341, Note_off_c, 0, 87, 64
1, 68360, Control_c, 0, 64, 111
1, 68379, Control_c, 0, 64, 64
1, 68397, Control_c, 0, 64, 22
1, 68401, Note_off_c, 0, 84, 66
1, 68417, Note_on_c, 0, 96, 103
1, 68417, Control_c, 0, 64, 26
1, 68420, Note_on_c, 0, 78, 92
1, 68423, Note_on_c, 0, 75, 92
1, 68434, Control_c, 0, 64, 55
1, 68454, Control_c, 0, 64, 79
1, 68461, Note_on_c, 0, 70, 34
1, 68462, Note_off_c, 0, 70, 127
1, 68470, Control_c, 0, 64, 127
1, 68471, Note_off_c, 0, 78, 67
1, 68511, Note_on_c, 0, 93, 66
1, 68519, Note_on_c, 0, 91, 80
1, 68553, Note_off_c, 0, 75, 40
1, 68557, Note_on_c, 0, 71, 75
1, 68563, Note_off_c, 0, 91, 49
1, 68572, Note_on_c, 0, 89, 79
1, 68573, Note_off_c, 0, 96, 65
1, 68599, Note_off_c, 0, 93, 65
1, 68605, Note_on_c, 0, 68, 61
1, 68636, Note_off_c, 0, 89, 62
1, 68639, Note_on_c, 0, 86, 80
1, 68647, Note_off_c, 0, 68, 66
1, 68652, Note_off_c, 0, 71, 59
1, 68700, Note_off_c, 0, 86, 64
1, 68704, Note_on_c, 0, 72, 92
1, 68711, Note_on_c, 0, 69, 81
1, 68723, Note_on_c, 0, 90, 92
1, 68738, Note_off_c, 0, 72, 62
1, 68749, Note_off_c, 0, 69, 65
1, 68782, Note_off_c, 0, 90, 66
1, 68808, Poly_aftertouch_c, 0, 71, 0
1, 68809, Note_on_c, 0, 87, 80
1, 68843, Note_on_c, 0, 88, 55
1, 68855, Note_on_c, 0, 89, 51
1, 68865, Control_c, 0, 64, 79
1, 68871, Note_off_c, 0, 88, 60
1, 68882, Note_on_c, 0, 99, 97
1, 68884, Note_off_c, 0, 89, 58
1, 68884, Note_off_c, 0, 87, 64
1, 68884, Note_on_c, 0, 69, 95
1, 68884, Control_c, 0, 64, 23
1, 68889, Note_on_c, 0, 66, 93
1, 68902, Control_c, 0, 64, 0
1, 68908, Note_on_c, 0, 100, 77
1, 68923, Control_c, 0, 64, 14
1, 68926, Note_on_c, 0, 97, 43
1, 68940, Control_c, 0, 64, 49
1, 68945, Note_off_c, 0, 69, 59
1, 68958, Control_c, 0, 64, 79
1, 68969, Note_off_c, 0, 99, 62
1, 68976, Control_c, 0, 64, 127
1, 68986, Note_off_c, 0, 100, 64
1, 68996, Note_off_c, 0, 66, 63
1, 69028, Note_on_c, 0, 62, 82
1, 69048, Note_on_c, 0, 59, 80
1, 69059, Note_on_c, 0, 92, 84
1, 69113, Note_off_c, 0, 97, 59
1, 69140, Note_on_c, 0, 89, 79
1, 69149, Note_off_c, 0, 92, 65
1, 69199, Note_off_c, 0, 62, 42
1, 69208, Note_off_c, 0, 59, 58
1, 69211, Note_off_c, 0, 89, 66
1, 69211, Note_on_c, 0, 60, 76
1, 69214, Note_on_c, 0, 61, 62
1, 69214, Note_on_c, 0, 93, 90
1, 69228, Note_on_c, 0, 64, 67
1, 69241, Note_off_c, 0, 60, 70
1, 69241, Note_off_c, 0, 61, 63
1, 69252, Note_off_c, 0, 64, 63
1, 69278, Note_off_c, 0, 93, 66
1, 69308, Note_on_c, 0, 90, 87
1, 69370, Control_c, 0, 64, 96
1, 69372, Note_off_c, 0, 90, 65
1, 69389, Control_c, 0, 64, 30
1, 69407, Control_c, 0, 64, 0
1, 69428, Note_on_c, 0, 58, 98
1, 69434, Note_on_c, 0, 100, 114
1, 69435, Note_on_c, 0, 64, 82
1, 69438, Note_on_c, 0, 56, 91
1, 69444, Control_c, 0, 64, 16
1, 69461, Note_on_c, 0, 99, 70
1, 69462, Control_c, 0, 64, 66
1, 69483, Control_c, 0, 64, 127
1, 69484, Note_off_c, 0, 99, 65
1, 69498, Poly_aftertouch_c, 0, 62, 0
1, 69508, Note_off_c, 0, 64, 53
1, 69522, Note_off_c, 0, 100, 64
1, 69542, Note_off_c, 0, 58, 61
1, 69578, Poly_aftertouch_c, 0, 62, 0
1, 69593, Note_on_c, 0, 87, 70
1, 69657, Note_off_c, 0, 56, 61
1, 69665, Note_off_c, 0, 87, 61
1, 69668, Control_c, 0, 64, 109
1, 69688, Control_c, 0, 64, 40
1, 69707, Control_c, 0, 64, 0
1, 69728, Note_on_c, 0, 60, 91
1, 69729, Note_on_c, 0, 65, 95
1, 69733, Note_on_c, 0, 57, 76
1, 69740, Note_on_c, 0, 101, 113
1, 69743, Control_c, 0, 64, 59
1, 69754, Note_off_c, 0, 65, 74
1, 69761, Note_on_c, 0, 58, 41
1, 69761, Control_c, 0, 64, 127
1, 69762, Note_off_c, 0, 58, 127
1, 69774, Note_off_c, 0, 60, 65
1, 69786, Note_off_c, 0, 101, 67
1, 69788, Note_off_c, 0, 57, 66
1, 69880, Note_on_c, 0, 87, 82
1, 69929, Note_off_c, 0, 87, 59
1, 70007, Control_c, 0, 64, 93
1, 70025, Control_c, 0, 64, 0
1, 70081, Note_on_c, 0, 46, 105
1, 70081, Control_c, 0, 64, 25
1, 70086, Note_on_c, 0, 34, 104
1, 70098, Control_c, 0, 64, 127
1, 70125, Note_off_c, 0, 46, 69
1, 70136, Note_off_c, 0, 34, 64
1, 70215, Poly_aftertouch_c, 0, 35, 0
1, 70406, Note_on_c, 0, 94, 108
1, 70406, Note_on_c, 0, 98, 105
1, 70407, Note_on_c, 0, 62, 92
1, 70417, Note_on_c, 0, 50, 92
1, 70451, Note_off_c, 0, 50, 66
1, 70456, Note_off_c, 0, 62, 67
1, 70541, Note_on_c, 0, 93, 82
1, 70546, Note_off_c, 0, 94, 67
1, 70562, Note_off_c, 0, 98, 63
1, 70618, Note_off_c, 0, 93, 67
1, 70646, Note_on_c, 0, 60, 91
1, 70653, Note_on_c, 0, 92, 100
1, 70655, Note_on_c, 0, 98, 100
1, 70662, Note_on_c, 0, 53, 72
1, 70679, Note_on_c, 0, 55, 52
1, 70680, Note_off_c, 0, 60, 62
1, 70686, Note_off_c, 0, 53, 61
1, 70712, Note_off_c, 0, 55, 58
1, 70753, Note_off_c, 0, 92, 68
1, 70753, Note_on_c, 0, 91, 86
1, 70772, Note_off_c, 0, 98, 64
1, 70808, Note_off_c, 0, 91, 65
1, 70846, Note_on_c, 0, 98, 97
1, 70847, Note_on_c, 0, 90, 98
1, 70848, Note_on_c, 0, 58, 82
1, 70880, Note_off_c, 0, 58, 69
1, 70922, Control_c, 0, 64, 83
1, 70933, Note_on_c, 0, 89, 86
1, 70935, Note_off_c, 0, 90, 65
1, 70941, Control_c, 0, 64, 25
1, 70960, Control_c, 0, 64, 0
1, 70962, Note_off_c, 0, 98, 65
1, 70997, Control_c, 0, 64, 31
1, 71001, Note_off_c, 0, 89, 65
1, 71013, Poly_aftertouch_c, 0, 58, 0
1, 71016, Control_c, 0, 64, 78
1, 71027, Note_on_c, 0, 94, 108
1, 71027, Note_on_c, 0, 44, 103
1, 71029, Note_on_c, 0, 98, 98
1, 71032, Note_on_c, 0, 32, 95
1, 71034, Control_c, 0, 64, 127
1, 71053, Note_off_c, 0, 44, 70
1, 71059, Note_off_c, 0, 32, 65
1, 71122, Note_off_c, 0, 98, 61
1, 71129, Note_off_c, 0, 94, 65
1, 71129, Note_on_c, 0, 88, 84
1, 71181, Note_off_c, 0, 88, 66
1, 71223, Note_on_c, 0, 89, 94
1, 71232, Note_on_c, 0, 94, 96
1, 71242, Note_on_c, 0, 62, 79
1, 71246, Poly_aftertouch_c, 0, 32, 0
1, 71250, Note_on_c, 0, 60, 78
1, 71261, Note_on_c, 0, 48, 66
1, 71269, Note_on_c, 0, 50, 61
1, 71275, Note_off_c, 0, 62, 68
1, 71279, Note_off_c, 0, 89, 63
1, 71282, Note_off_c, 0, 60, 70
1, 71283, Note_off_c, 0, 94, 67
1, 71292, Note_off_c, 0, 48, 60
1, 71301, Note_off_c, 0, 50, 59
1, 71319, Note_on_c, 0, 86, 81
1, 71370, Note_off_c, 0, 86, 59
1, 71409, Note_on_c, 0, 89, 91
1, 71410, Note_on_c, 0, 84, 95
1, 71412, Note_on_c, 0, 60, 87
1, 71414, Note_on_c, 0, 53, 88
1, 71460, Note_off_c, 0, 60, 61
1, 71463, Note_off_c, 0, 84, 59
1, 71486, Note_off_c, 0, 53, 58
1, 71488, Note_on_c, 0, 59, 91
1, 71492, Note_on_c, 0, 83, 84
1, 71507, Note_off_c, 0, 89, 57
1, 71540, Note_off_c, 0, 83, 66
1, 71566, Note_off_c, 0, 59, 67
1, 71569, Note_on_c, 0, 86, 87
1, 71570, Note_on_c, 0, 82, 90
1, 71573, Note_on_c, 0, 58, 90
1, 71601, Note_off_c, 0, 58, 73
1, 71649, Note_on_c, 0, 81, 88
1, 71650, Control_c, 0, 64, 88
1, 71659, Note_off_c, 0, 82, 66
1, 71677, Note_off_c, 0, 86, 64
1, 71690, Control_c, 0, 64, 0
1, 71713, Note_off_c, 0, 81, 66
1, 71742, Note_on_c, 0, 89, 101
1, 71743, Note_on_c, 0, 42, 109
1, 71743, Control_c, 0, 64, 31
1, 71747, Poly_aftertouch_c, 0, 58, 0
1, 71748, Note_on_c, 0, 30, 96
1, 71749, Note_on_c, 0, 82, 102
1, 71767, Control_c, 0, 64, 103
1, 71773, Note_off_c, 0, 42, 71
1, 71778, Note_off_c, 0, 30, 68
1, 71785, Control_c, 0, 64, 127
1, 71841, Note_on_c, 0, 42, 32
1, 71841, Note_on_c, 0, 81, 87
1, 71847, Note_off_c, 0, 82, 66
1, 71860, Note_off_c, 0, 89, 60
1, 71864, Note_off_c, 0, 42, 68
1, 71883, Note_on_c, 0, 30, 8
1, 71908, Note_off_c, 0, 81, 65
1, 71925, Note_off_c, 0, 30, 43
1, 71948, Note_on_c, 0, 86, 92
1, 71951, Note_on_c, 0, 82, 96
1, 71956, Note_on_c, 0, 62, 96
1, 71964, Note_on_c, 0, 50, 93
1, 71992, Note_off_c, 0, 50, 72
1, 72000, Note_off_c, 0, 62, 59
1, 72040, Note_on_c, 0, 81, 83
1, 72046, Note_off_c, 0, 82, 64
1, 72053, Poly_aftertouch_c, 0, 42, 0
1, 72061, Note_off_c, 0, 86, 64
1, 72102, Note_off_c, 0, 81, 65
1, 72135, Note_on_c, 0, 60, 88
1, 72141, Note_on_c, 0, 54, 88
1, 72142, Note_on_c, 0, 80, 77
1, 72150, Note_on_c, 0, 86, 75
1, 72171, Note_off_c, 0, 80, 51
1, 72174, Note_on_c, 0, 79, 62
1, 72185, Note_off_c, 0, 60, 63
1, 72209, Note_off_c, 0, 54, 59
1, 72233, Note_off_c, 0, 86, 64
1, 72262, Note_off_c, 0, 79, 62
1, 72278, Note_on_c, 0, 58, 95
1, 72300, Note_on_c, 0, 86, 83
1, 72300, Note_on_c, 0, 78, 91
1, 72316, Note_off_c, 0, 58, 67
1, 72361, Control_c, 0, 64, 103
1, 72372, Note_on_c, 0, 77, 86
1, 72379, Control_c, 0, 64, 46
1, 72381, Note_off_c, 0, 78, 66
1, 72390, Note_off_c, 0, 86, 65
1, 72398, Control_c, 0, 64, 0
1, 72439, Note_off_c, 0, 77, 57
1, 72452, Note_on_c, 0, 82, 97
1, 72453, Note_on_c, 0, 41, 102
1, 72453, Control_c, 0, 64, 48
1, 72459, Note_on_c, 0, 29, 99
1, 72461, Note_on_c, 0, 86, 75
1, 72464, Note_on_c, 0, 88, 74
1, 72477, Control_c, 0, 64, 95
1, 72489, Note_off_c, 0, 41, 67
1, 72491, Note_off_c, 0, 29, 63
1, 72492, Control_c, 0, 64, 127
1, 72493, Note_off_c, 0, 88, 71
1, 72527, Note_off_c, 0, 86, 62
1, 72547, Note_off_c, 0, 82, 61
1, 72547, Note_on_c, 0, 76, 87
1, 72593, Note_off_c, 0, 76, 67
1, 72638, Note_on_c, 0, 77, 88
1, 72647, Note_on_c, 0, 82, 87
1, 72652, Note_on_c, 0, 62, 91
1, 72662, Note_on_c, 0, 50, 91
1, 72683, Poly_aftertouch_c, 0, 29, 0
1, 72691, Note_off_c, 0, 50, 70
1, 72696, Note_off_c, 0, 62, 63
1, 72704, Note_off_c, 0, 77, 61
1, 72724, Note_off_c, 0, 82, 64
1, 72727, Note_on_c, 0, 74, 82
1, 72764, Note_off_c, 0, 74, 61
1, 72796, Note_on_c, 0, 60, 88
1, 72818, Note_on_c, 0, 77, 91
1, 72818, Note_on_c, 0, 72, 89
1, 72830, Note_on_c, 0, 56, 74
1, 72874, Note_off_c, 0, 60, 50
1, 72877, Note_off_c, 0, 72, 55
1, 72887, Note_on_c, 0, 59, 89
1, 72894, Note_on_c, 0, 71, 85
1, 72896, Note_off_c, 0, 56, 67
1, 72920, Note_off_c, 0, 77, 61
1, 72940, Note_on_c, 0, 74, 77
1, 72961, Note_off_c, 0, 71, 62
1, 72969, Note_on_c, 0, 58, 96
1, 72970, Note_on_c, 0, 70, 90
1, 72977, Note_off_c, 0, 59, 67
1, 73001, Note_off_c, 0, 74, 63
1, 73011, Note_off_c, 0, 58, 68
1, 73043, Note_on_c, 0, 68, 91
1, 73064, Note_off_c, 0, 70, 68
1, 73071, Control_c, 0, 64, 115
1, 73089, Note_off_c, 0, 68, 66
1, 73090, Control_c, 0, 64, 47
1, 73109, Control_c, 0, 64, 0
1, 73156, Note_on_c, 0, 78, 94
1, 73161, Note_on_c, 0, 66, 99
1, 73162, Note_on_c, 0, 51, 102
1, 73163, Note_on_c, 0, 70, 97
1, 73164, Note_on_c, 0, 39, 96
1, 73182, Note_off_c, 0, 51, 77
1, 73184, Control_c, 0, 64, 43
1, 73185, Note_off_c, 0, 39, 64
1, 73203, Control_c, 0, 64, 119
1, 73211, Note_off_c, 0, 66, 64
1, 73215, Note_off_c, 0, 70, 62
1, 73222, Control_c, 0, 64, 127
1, 73247, Note_off_c, 0, 78, 66
1, 73286, Note_on_c, 0, 39, 21
1, 73317, Note_off_c, 0, 39, 57
1, 73457, Note_on_c, 0, 66, 104
1, 73460, Note_on_c, 0, 90, 95
1, 73463, Note_on_c, 0, 54, 96
1, 73467, Note_on_c, 0, 87, 55
1, 73490, Poly_aftertouch_c, 0, 39, 0
1, 73491, Note_off_c, 0, 66, 72
1, 73494, Note_off_c, 0, 54, 70
1, 73509, Note_on_c, 0, 53, 42
1, 73510, Note_off_c, 0, 53, 127
1, 73555, Note_on_c, 0, 86, 80
1, 73573, Note_off_c, 0, 87, 64
1, 73584, Note_off_c, 0, 90, 64
1, 73584, Poly_aftertouch_c, 0, 65, 0
1, 73621, Note_off_c, 0, 86, 65
1, 73657, Note_on_c, 0, 85, 89
1, 73661, Note_on_c, 0, 90, 88
1, 73676, Note_on_c, 0, 65, 102
1, 73684, Note_on_c, 0, 58, 88
1, 73699, Note_on_c, 0, 57, 73
1, 73717, Note_off_c, 0, 58, 68
1, 73720, Note_off_c, 0, 65, 67
1, 73734, Note_off_c, 0, 57, 67
1, 73752, Note_on_c, 0, 84, 78
1, 73755, Note_off_c, 0, 85, 64
1, 73759, Note_on_c, 0, 86, 66
1, 73766, Note_off_c, 0, 90, 65
1, 73790, Note_off_c, 0, 86, 70
1, 73804, Note_off_c, 0, 84, 64
1, 73833, Note_on_c, 0, 90, 89
1, 73836, Note_on_c, 0, 63, 98
1, 73837, Note_on_c, 0, 87, 95
1, 73878, Note_off_c, 0, 63, 69
1, 73912, Note_on_c, 0, 83, 87
1, 73914, Control_c, 0, 64, 83
1, 73927, Note_off_c, 0, 87, 65
1, 73935, Note_off_c, 0, 90, 66
1, 73950, Control_c, 0, 64, 0
1, 73965, Note_off_c, 0, 83, 67
1, 73988, Control_c, 0, 64, 16
1, 74000, Note_on_c, 0, 49, 107
1, 74002, Note_on_c, 0, 90, 96
1, 74004, Note_on_c, 0, 37, 95
1, 74006, Control_c, 0, 64, 64
1, 74020, Note_off_c, 0, 49, 64
1, 74023, Control_c, 0, 64, 127
1, 74029, Note_on_c, 0, 82, 57
1, 74030, Note_off_c, 0, 82, 127
1, 74031, Note_off_c, 0, 37, 68
1, 74035, Note_on_c, 0, 83, 67
1, 74063, Poly_aftertouch_c, 0, 82, 0
1, 74101, Note_off_c, 0, 83, 68
1, 74108, Note_on_c, 0, 81, 84
1, 74111, Note_off_c, 0, 90, 62
1, 74154, Note_off_c, 0, 81, 61
1, 74181, Poly_aftertouch_c, 0, 37, 127
1, 74188, Note_on_c, 0, 87, 91
1, 74189, Note_on_c, 0, 66, 102
1, 74192, Note_on_c, 0, 80, 92
1, 74201, Note_on_c, 0, 54, 88
1, 74221, Note_on_c, 0, 56, 64
1, 74222, Note_on_c, 0, 88, 59
1, 74223, Poly_aftertouch_c, 0, 37, 0
1, 74231, Note_off_c, 0, 66, 69
1, 74233, Note_off_c, 0, 54, 68
1, 74246, Note_off_c, 0, 56, 66
1, 74254, Note_off_c, 0, 88, 64
1, 74267, Note_off_c, 0, 87, 63
1, 74277, Note_off_c, 0, 80, 64
1, 74285, Note_on_c, 0, 79, 79
1, 74319, Note_off_c, 0, 79, 61
1, 74322, Note_on_c, 0, 54, 16
1, 74370, Note_on_c, 0, 65, 93
1, 74376, Note_on_c, 0, 78, 83
1, 74382, Note_on_c, 0, 58, 87
1, 74383, Note_off_c, 0, 54, 38
1, 74392, Note_on_c, 0, 87, 46
1, 74393, Note_off_c, 0, 87, 127
1, 74393, Note_on_c, 0, 86, 70
1, 74433, Note_off_c, 0, 86, 62
1, 74435, Poly_aftertouch_c, 0, 87, 0
1, 74446, Note_off_c, 0, 78, 66
1, 74449, Note_on_c, 0, 77, 86
1, 74452, Note_off_c, 0, 58, 59
1, 74452, Note_on_c, 0, 64, 96
1, 74468, Note_off_c, 0, 65, 61
1, 74514, Note_off_c, 0, 77, 56
1, 74514, Note_on_c, 0, 63, 92
1, 74521, Note_on_c, 0, 82, 96
1, 74527, Note_off_c, 0, 64, 69
1, 74531, Note_on_c, 0, 78, 82
1, 74543, Note_off_c, 0, 63, 71
1, 74600, Note_off_c, 0, 82, 61
1, 74602, Note_on_c, 0, 76, 89
1, 74612, Note_off_c, 0, 78, 63
1, 74626, Control_c, 0, 64, 67
1, 74640, Poly_aftertouch_c, 0, 61, 0
1, 74643, Control_c, 0, 64, 0
1, 74651, Note_off_c, 0, 76, 67
1, 74680, Note_on_c, 0, 87, 102
1, 74680, Note_on_c, 0, 47, 102
1, 74684, Note_on_c, 0, 35, 102
1, 74690, Note_on_c, 0, 78, 95
1, 74697, Control_c, 0, 64, 34
1, 74708, Note_off_c, 0, 47, 69
1, 74710, Note_off_c, 0, 35, 72
1, 74716, Control_c, 0, 64, 80
1, 74735, Control_c, 0, 64, 127
1, 74765, Note_off_c, 0, 87, 67
1, 74785, Note_on_c, 0, 75, 84
1, 74789, Note_off_c, 0, 78, 66
1, 74835, Poly_aftertouch_c, 0, 88, 127
1, 74837, Note_off_c, 0, 75, 66
1, 74839, Poly_aftertouch_c, 0, 88, 0
1, 74879, Note_on_c, 0, 82, 89
1, 74882, Note_on_c, 0, 66, 102
1, 74890, Note_on_c, 0, 75, 70
1, 74892, Note_on_c, 0, 54, 90
1, 74919, Note_off_c, 0, 54, 67
1, 74922, Note_off_c, 0, 66, 71
1, 74926, Note_off_c, 0, 75, 58
1, 74970, Note_off_c, 0, 82, 52
1, 74979, Note_on_c, 0, 74, 72
1, 74997, Poly_aftertouch_c, 0, 56, 0
1, 75004, Note_on_c, 0, 76, 50
1, 75014, Note_on_c, 0, 54, 13
1, 75017, Note_off_c, 0, 74, 60
1, 75035, Note_off_c, 0, 76, 59
1, 75048, Note_on_c, 0, 73, 85
1, 75053, Note_on_c, 0, 78, 82
1, 75054, Note_off_c, 0, 54, 46
1, 75054, Note_on_c, 0, 65, 99
1, 75065, Note_on_c, 0, 59, 92
1, 75088, Note_off_c, 0, 59, 72
1, 75105, Note_off_c, 0, 65, 67
1, 75123, Note_off_c, 0, 73, 65
1, 75137, Note_off_c, 0, 78, 60
1, 75143, Note_on_c, 0, 72, 66
1, 75149, Note_on_c, 0, 71, 65
1, 75180, Note_off_c, 0, 72, 68
1, 75187, Note_off_c, 0, 71, 65
1, 75207, Note_on_c, 0, 75, 88
1, 75209, Note_on_c, 0, 78, 76
1, 75211, Note_on_c, 0, 63, 102
1, 75241, Note_off_c, 0, 63, 67
1, 75281, Note_on_c, 0, 71, 89
1, 75290, Note_off_c, 0, 75, 63
1, 75303, Note_off_c, 0, 78, 66
1, 75328, Note_off_c, 0, 71, 66
1, 75334, Control_c, 0, 64, 62
1, 75353, Control_c, 0, 64, 0
1, 75371, Note_on_c, 0, 78, 88
1, 75377, Note_on_c, 0, 75, 91
1, 75378, Note_on_c, 0, 46, 105
1, 75378, Note_on_c, 0, 34, 96
1, 75391, Control_c, 0, 64, 44
1, 75399, Note_off_c, 0, 46, 76
1, 75401, Note_off_c, 0, 34, 70
1, 75408, Control_c, 0, 64, 82
1, 75427, Control_c, 0, 64, 127
1, 75459, Note_on_c, 0, 70, 85
1, 75467, Note_off_c, 0, 78, 62
1, 75474, Note_off_c, 0, 75, 65
1, 75496, Poly_aftertouch_c, 0, 73, 0
1, 75497, Note_on_c, 0, 34, 23
1, 75527, Note_off_c, 0, 34, 56
1, 75528, Note_off_c, 0, 70, 62
1, 75547, Note_on_c, 0, 78, 81
1, 75555, Note_on_c, 0, 75, 71
1, 75566, Note_on_c, 0, 66, 101
1, 75582, Note_on_c, 0, 54, 74
1, 75591, Note_on_c, 0, 56, 62
1, 75603, Note_off_c, 0, 66, 62
1, 75605, Note_off_c, 0, 54, 67
1, 75609, Note_off_c, 0, 75, 59
1, 75623, Note_off_c, 0, 56, 64
1, 75634, Note_on_c, 0, 69, 82
1, 75651, Note_off_c, 0, 78, 65
1, 75688, Note_off_c, 0, 69, 64
1, 75728, Poly_aftertouch_c, 0, 34, 0
1, 75728, Control_c, 0, 64, 88
1, 75746, Control_c, 0, 64, 13
1, 75757, Note_on_c, 0, 75, 88
1, 75759, Note_on_c, 0, 68, 93
1, 75761, Note_on_c, 0, 65, 95
1, 75763, Note_on_c, 0, 58, 92
1, 75764, Control_c, 0, 64, 0
1, 75792, Note_off_c, 0, 58, 68
1, 75801, Control_c, 0, 64, 46
1, 75809, Note_off_c, 0, 65, 62
1, 75820, Control_c, 0, 64, 95
1, 75835, Note_off_c, 0, 68, 65
1, 75838, Control_c, 0, 64, 127
1, 75842, Note_on_c, 0, 67, 74
1, 75844, Note_on_c, 0, 64, 96
1, 75913, Note_on_c, 0, 63, 96
1, 75914, Note_on_c, 0, 70, 88
1, 75919, Note_off_c, 0, 64, 69
1, 75921, Note_on_c, 0, 66, 87
1, 75925, Note_off_c, 0, 67, 62
1, 75926, Note_off_c, 0, 75, 64
1, 75947, Poly_aftertouch_c, 0, 69, 0
1, 75948, Note_off_c, 0, 63, 66
1, 75956, Note_off_c, 0, 66, 66
1, 75961, Note_off_c, 0, 70, 70
1, 76011, Note_on_c, 0, 63, 88
1, 76025, Control_c, 0, 64, 87
1, 76034, Note_off_c, 0, 63, 72
1, 76045, Control_c, 0, 64, 0
1, 76082, Control_c, 0, 67, 16
1, 76101, Control_c, 0, 67, 33
1, 76121, Control_c, 0, 67, 54
1, 76138, Control_c, 0, 67, 74
1, 76156, Control_c, 0, 67, 87
1, 76177, Control_c, 0, 67, 95
1, 76195, Control_c, 0, 67, 99
1, 76348, Poly_aftertouch_c, 0, 44, 127
1, 76420, Note_on_c, 0, 32, 40
1, 76455, Note_off_c, 0, 32, 50
1, 76459, Poly_aftertouch_c, 0, 44, 0
1, 76487, Note_on_c, 0, 45, 48
1, 76587, Note_on_c, 0, 44, 56
1, 76591, Note_on_c, 0, 87, 64
1, 76595, Note_off_c, 0, 45, 62
1, 76632, Note_on_c, 0, 95, 44
1, 76638, Note_off_c, 0, 44, 61
1, 76641, Note_off_c, 0, 87, 64
1, 76641, Control_c, 0, 67, 95
1, 76663, Note_on_c, 0, 90, 70
1, 76669, Note_off_c, 0, 95, 58
1, 76684, Note_on_c, 0, 83, 51
1, 76690, Note_off_c, 0, 90, 74
1, 76691, Note_on_c, 0, 46, 64
1, 76716, Note_off_c, 0, 83, 60
1, 76735, Note_off_c, 0, 46, 66
1, 76772, Note_on_c, 0, 47, 59
1, 76824, Note_off_c, 0, 47, 58
1, 76874, Note_on_c, 0, 48, 55
1, 76925, Note_off_c, 0, 48, 63
1, 76937, Note_on_c, 0, 78, 63
1, 76942, Note_on_c, 0, 47, 65
1, 76950, Note_on_c, 0, 87, 55
1, 76974, Note_off_c, 0, 78, 68
1, 76977, Note_off_c, 0, 47, 64
1, 76986, Note_off_c, 0, 87, 68
1, 77005, Note_on_c, 0, 83, 57
1, 77022, Note_on_c, 0, 75, 51
1, 77030, Note_off_c, 0, 83, 63
1, 77035, Note_on_c, 0, 48, 44
1, 77052, Note_off_c, 0, 75, 59
1, 77092, Note_off_c, 0, 48, 35
1, 77119, Note_on_c, 0, 37, 60
1, 77123, Note_on_c, 0, 49, 62
1, 77162, Note_off_c, 0, 37, 63
1, 77172, Note_off_c, 0, 49, 68
1, 77206, Note_on_c, 0, 50, 64
1, 77257, Note_on_c, 0, 70, 68
1, 77288, Note_on_c, 0, 80, 64
1, 77293, Note_off_c, 0, 50, 63
1, 77303, Note_on_c, 0, 49, 48
1, 77304, Note_off_c, 0, 70, 64
1, 77327, Note_on_c, 0, 71, 23
1, 77349, Note_off_c, 0, 49, 63
1, 77350, Note_off_c, 0, 80, 55
1, 77356, Note_on_c, 0, 77, 41
1, 77367, Note_on_c, 0, 51, 72
1, 77372, Control_c, 0, 67, 91
1, 77383, Note_off_c, 0, 71, 29
1, 77394, Note_off_c, 0, 77, 51
1, 77412, Note_off_c, 0, 51, 65
1, 77450, Note_on_c, 0, 52, 68
1, 77510, Note_off_c, 0, 52, 52
1, 77542, Note_on_c, 0, 53, 64
1, 77591, Note_off_c, 0, 53, 64
1, 77598, Note_on_c, 0, 83, 64
1, 77615, Note_on_c, 0, 52, 64
1, 77620, Note_on_c, 0, 92, 73
1, 77630, Note_off_c, 0, 83, 68
1, 77647, Note_off_c, 0, 92, 70
1, 77651, Note_off_c, 0, 52, 65
1, 77653, Note_on_c, 0, 97, 90
1, 77677, Note_off_c, 0, 97, 73
1, 77686, Note_on_c, 0, 53, 48
1, 77720, Note_off_c, 0, 53, 35
1, 77764, Note_on_c, 0, 42, 71
1, 77773, Note_on_c, 0, 54, 71
1, 77805, Note_off_c, 0, 42, 65
1, 77836, Note_off_c, 0, 54, 65
1, 77861, Note_on_c, 0, 55, 65
1, 77935, Note_on_c, 0, 94, 64
1, 77947, Note_on_c, 0, 54, 52
1, 77948, Note_off_c, 0, 55, 63
1, 77948, Note_on_c, 0, 85, 65
1, 77980, Note_off_c, 0, 85, 68
1, 77987, Note_off_c, 0, 94, 62
1, 77993, Note_on_c, 0, 89, 69
1, 77994, Note_off_c, 0, 54, 64
1, 78009, Note_on_c, 0, 82, 63
1, 78019, Note_on_c, 0, 56, 74
1, 78023, Note_off_c, 0, 89, 70
1, 78039, Note_off_c, 0, 82, 68
1, 78072, Note_off_c, 0, 56, 62
1, 78102, Note_on_c, 0, 57, 68
1, 78146, Note_off_c, 0, 57, 64
1, 78180, Note_on_c, 0, 58, 69
1, 78224, Note_off_c, 0, 58, 65
1, 78262, Note_on_c, 0, 57, 70
1, 78263, Note_on_c, 0, 77, 71
1, 78276, Note_on_c, 0, 85, 68
1, 78308, Note_off_c, 0, 57, 63
1, 78315, Note_off_c, 0, 77, 59
1, 78323, Note_off_c, 0, 85, 64
1, 78332, Note_on_c, 0, 82, 69
1, 78335, Note_on_c, 0, 58, 78
1, 78343, Note_on_c, 0, 73, 68
1, 78360, Note_off_c, 0, 82, 70
1, 78368, Note_off_c, 0, 58, 70
1, 78376, Note_off_c, 0, 73, 70
1, 78420, Note_on_c, 0, 47, 68
1, 78436, Note_on_c, 0, 59, 74
1, 78449, Note_off_c, 0, 47, 60
1, 78506, Note_off_c, 0, 59, 47
1, 78532, Control_c, 0, 67, 87
1, 78544, Note_on_c, 0, 60, 66
1, 78585, Note_off_c, 0, 60, 65
1, 78595, Note_on_c, 0, 59, 59
1, 78607, Note_on_c, 0, 70, 75
1, 78626, Note_on_c, 0, 78, 43
1, 78642, Note_off_c, 0, 70, 68
1, 78647, Note_off_c, 0, 59, 59
1, 78669, Note_off_c, 0, 78, 66
1, 78669, Note_on_c, 0, 75, 69
1, 78677, Note_on_c, 0, 61, 66
1, 78700, Note_off_c, 0, 75, 66
1, 78706, Poly_aftertouch_c, 0, 66, 0
1, 78727, Note_off_c, 0, 61, 64
1, 78755, Note_on_c, 0, 62, 64
1, 78805, Note_off_c, 0, 62, 59
1, 78845, Note_on_c, 0, 63, 63
1, 78890, Note_off_c, 0, 63, 66
1, 78916, Note_on_c, 0, 82, 71
1, 78932, Note_on_c, 0, 62, 61
1, 78950, Note_on_c, 0, 90, 84
1, 78961, Note_off_c, 0, 82, 64
1, 78969, Note_on_c, 0, 95, 90
1, 78974, Note_off_c, 0, 62, 63
1, 78981, Note_off_c, 0, 90, 68
1, 79003, Note_on_c, 0, 63, 76
1, 79009, Note_off_c, 0, 95, 62
1, 79045, Note_off_c, 0, 63, 62
1, 79081, Note_on_c, 0, 53, 55
1, 79116, Note_off_c, 0, 53, 55
1, 79120, Note_on_c, 0, 65, 71
1, 79195, Note_off_c, 0, 65, 56
1, 79218, Note_on_c, 0, 66, 67
1, 79274, Note_on_c, 0, 92, 71
1, 79284, Note_on_c, 0, 84, 47
1, 79284, Note_on_c, 0, 83, 43
1, 79296, Note_off_c, 0, 66, 64
1, 79296, Note_on_c, 0, 65, 57
1, 79325, Note_off_c, 0, 83, 58
1, 79325, Note_off_c, 0, 84, 56
1, 79331, Note_on_c, 0, 87, 75
1, 79336, Note_on_c, 0, 80, 74
1, 79339, Note_off_c, 0, 65, 66
1, 79350, Note_off_c, 0, 92, 66
1, 79355, Note_off_c, 0, 87, 72
1, 79355, Note_on_c, 0, 67, 69
1, 79359, Note_off_c, 0, 80, 71
1, 79404, Note_off_c, 0, 67, 63
1, 79440, Note_on_c, 0, 68, 73
1, 79490, Note_off_c, 0, 68, 63
1, 79508, Note_on_c, 0, 69, 71
1, 79557, Note_off_c, 0, 69, 59
1, 79583, Note_on_c, 0, 80, 65
1, 79584, Note_on_c, 0, 87, 56
1, 79590, Note_on_c, 0, 68, 61
1, 79626, Note_off_c, 0, 80, 64
1, 79626, Note_off_c, 0, 68, 66
1, 79627, Note_off_c, 0, 87, 65
1, 79639, Note_on_c, 0, 83, 61
1, 79651, Note_on_c, 0, 69, 73
1, 79663, Note_on_c, 0, 77, 63
1, 79671, Note_off_c, 0, 83, 65
1, 79682, Note_off_c, 0, 69, 70
1, 79700, Note_off_c, 0, 77, 65
1, 79723, Note_on_c, 0, 58, 69
1, 79757, Note_off_c, 0, 58, 68
1, 79771, Note_on_c, 0, 70, 82
1, 79821, Control_c, 0, 67, 80
1, 79822, Note_off_c, 0, 70, 67
1, 79839, Note_on_c, 0, 71, 70
1, 79839, Control_c, 0, 67, 76
1, 79859, Control_c, 0, 67, 69
1, 79877, Control_c, 0, 67, 59
1, 79897, Control_c, 0, 67, 49
1, 79907, Note_on_c, 0, 74, 69
1, 79915, Control_c, 0, 67, 38
1, 79930, Note_on_c, 0, 70, 62
1, 79933, Note_on_c, 0, 80, 62
1, 79933, Control_c, 0, 67, 25
1, 79935, Note_off_c, 0, 71, 63
1, 79953, Control_c, 0, 67, 10
1, 79970, Control_c, 0, 67, 0
1, 79971, Note_off_c, 0, 74, 59
1, 79985, Note_off_c, 0, 70, 66
1, 79988, Note_off_c, 0, 80, 63
1, 79992, Note_on_c, 0, 73, 85
1, 80014, Note_on_c, 0, 76, 43
1, 80053, Note_off_c, 0, 76, 56
1, 80066, Note_off_c, 0, 73, 63
1, 80069, Note_on_c, 0, 77, 69
1, 80071, Note_on_c, 0, 74, 80
1, 80087, Note_off_c, 0, 77, 65
1, 80141, Note_off_c, 0, 74, 61
1, 80149, Note_on_c, 0, 73, 75
1, 80210, Note_off_c, 0, 73, 62
1, 80228, Note_on_c, 0, 80, 77
1, 80230, Note_on_c, 0, 74, 74
1, 80230, Note_on_c, 0, 94, 83
1, 80255, Note_off_c, 0, 94, 72
1, 80257, Note_off_c, 0, 80, 70
1, 80286, Note_off_c, 0, 74, 61
1, 80310, Note_on_c, 0, 70, 60
1, 80359, Note_off_c, 0, 70, 70
1, 80384, Note_on_c, 0, 75, 80
1, 80395, Note_on_c, 0, 63, 54
1, 80402, Control_c, 0, 64, 32
1, 80420, Control_c, 0, 64, 51
1, 80438, Control_c, 0, 64, 58
1, 80455, Note_off_c, 0, 75, 65
1, 80469, Note_on_c, 0, 74, 74
1, 80476, Control_c, 0, 64, 60
1, 80533, Control_c, 0, 64, 56
1, 80546, Note_off_c, 0, 74, 62
1, 80550, Note_on_c, 0, 73, 78
1, 80552, Control_c, 0, 64, 46
1, 80560, Note_on_c, 0, 90, 56
1, 80570, Control_c, 0, 64, 26
1, 80575, Note_on_c, 0, 82, 68
1, 80588, Control_c, 0, 64, 0
1, 80602, Note_off_c, 0, 73, 60
1, 80607, Note_off_c, 0, 82, 67
1, 80610, Note_off_c, 0, 90, 65
1, 80617, Note_on_c, 0, 87, 69
1, 80632, Note_on_c, 0, 72, 81
1, 80642, Note_on_c, 0, 78, 58
1, 80648, Note_off_c, 0, 87, 72
1, 80669, Note_off_c, 0, 78, 63
1, 80709, Note_on_c, 0, 71, 81
1, 80716, Note_off_c, 0, 72, 61
1, 80728, Note_off_c, 0, 63, 42
1, 80774, Note_off_c, 0, 71, 60
1, 80774, Note_on_c, 0, 70, 77
1, 80847, Note_on_c, 0, 82, 74
1, 80856, Note_off_c, 0, 70, 68
1, 80863, Note_on_c, 0, 66, 73
1, 80872, Note_on_c, 0, 75, 58
1, 80916, Note_off_c, 0, 82, 53
1, 80918, Note_on_c, 0, 78, 82
1, 80919, Note_off_c, 0, 75, 66
1, 80927, Note_on_c, 0, 63, 70
1, 80937, Note_off_c, 0, 66, 66
1, 80949, Note_off_c, 0, 78, 69
1, 80957, Note_off_c, 0, 63, 67
1, 80957, Note_on_c, 0, 85, 39
1, 80958, Note_off_c, 0, 85, 127
1, 80971, Note_on_c, 0, 86, 44
1, 81013, Note_off_c, 0, 86, 36
1, 81018, Note_on_c, 0, 69, 82
1, 81047, Note_on_c, 0, 78, 63
1, 81064, Note_off_c, 0, 69, 65
1, 81066, Note_on_c, 0, 59, 38
1, 81069, Note_on_c, 0, 90, 65
1, 81078, Note_off_c, 0, 78, 65
1, 81107, Note_off_c, 0, 59, 35
1, 81110, Note_off_c, 0, 90, 63
1, 81116, Note_on_c, 0, 68, 82
1, 81127, Note_on_c, 0, 89, 76
1, 81190, Note_on_c, 0, 67, 87
1, 81192, Note_off_c, 0, 68, 66
1, 81204, Note_on_c, 0, 88, 82
1, 81220, Note_off_c, 0, 89, 63
1, 81263, Note_off_c, 0, 67, 58
1, 81269, Note_on_c, 0, 87, 84
1, 81273, Note_on_c, 0, 66, 88
1, 81276, Note_off_c, 0, 88, 66
1, 81280, Note_on_c, 0, 62, 29
1, 81321, Note_off_c, 0, 66, 66
1, 81321, Note_on_c, 0, 60, 59
1, 81335, Note_off_c, 0, 62, 43
1, 81337, Note_on_c, 0, 81, 91
1, 81337, Note_on_c, 0, 93, 97
1, 81350, Note_on_c, 0, 65, 90
1, 81359, Note_off_c, 0, 87, 66
1, 81377, Note_off_c, 0, 81, 64
1, 81387, Note_off_c, 0, 60, 64
1, 81425, Note_on_c, 0, 92, 88
1, 81428, Note_on_c, 0, 64, 83
1, 81444, Note_off_c, 0, 65, 65
1, 81455, Note_off_c, 0, 93, 66
1, 81477, Note_on_c, 0, 91, 82
1, 81477, Note_on_c, 0, 63, 82
1, 81486, Note_off_c, 0, 64, 68
1, 81531, Note_off_c, 0, 63, 67
1, 81546, Note_on_c, 0, 62, 93
1, 81547, Note_off_c, 0, 92, 40
1, 81555, Note_on_c, 0, 90, 88
1, 81564, Note_off_c, 0, 91, 65
1, 81591, Note_off_c, 0, 90, 65
1, 81593, Note_off_c, 0, 62, 66
1, 81618, Control_c, 0, 64, 55
1, 81634, Note_on_c, 0, 97, 105
1, 81635, Control_c, 0, 64, 127
1, 81637, Note_on_c, 0, 85, 103
1, 81643, Note_on_c, 0, 61, 100
1, 81647, Note_on_c, 0, 49, 80
1, 81662, Note_off_c, 0, 61, 77
1, 81665, Note_off_c, 0, 85, 63
1, 81671, Note_off_c, 0, 49, 68
1, 81672, Note_off_c, 0, 97, 68
1, 81971, Control_c, 0, 64, 110
1, 81990, Control_c, 0, 64, 67
1, 82009, Control_c, 0, 64, 23
1, 82017, Note_on_c, 0, 80, 81
1, 82017, Note_on_c, 0, 77, 80
1, 82029, Control_c, 0, 64, 0
1, 82030, Note_on_c, 0, 86, 70
1, 82031, Note_on_c, 0, 71, 62
1, 82067, Control_c, 0, 64, 18
1, 82084, Control_c, 0, 64, 48
1, 82085, Note_off_c, 0, 80, 65
1, 82091, Note_off_c, 0, 71, 59
1, 82102, Note_on_c, 0, 74, 66
1, 82103, Control_c, 0, 64, 69
1, 82104, Note_off_c, 0, 86, 39
1, 82114, Note_off_c, 0, 77, 58
1, 82116, Note_on_c, 0, 83, 77
1, 82121, Control_c, 0, 64, 90
1, 82139, Control_c, 0, 64, 127
1, 82181, Note_off_c, 0, 74, 59
1, 82184, Note_on_c, 0, 79, 83
1, 82188, Note_on_c, 0, 70, 68
1, 82201, Note_off_c, 0, 83, 62
1, 82250, Note_off_c, 0, 79, 60
1, 82252, Note_on_c, 0, 76, 79
1, 82252, Control_c, 0, 64, 87
1, 82256, Note_off_c, 0, 70, 62
1, 82266, Note_on_c, 0, 73, 70
1, 82270, Control_c, 0, 64, 56
1, 82289, Control_c, 0, 64, 24
1, 82326, Control_c, 0, 64, 44
1, 82329, Note_on_c, 0, 80, 86
1, 82330, Note_off_c, 0, 76, 62
1, 82333, Note_off_c, 0, 73, 62
1, 82340, Note_on_c, 0, 71, 66
1, 82344, Control_c, 0, 64, 61
1, 82364, Control_c, 0, 64, 74
1, 82377, Note_off_c, 0, 71, 67
1, 82383, Control_c, 0, 64, 102
1, 82400, Control_c, 0, 64, 127
1, 82403, Note_on_c, 0, 74, 77
1, 82406, Note_on_c, 0, 77, 88
1, 82415, Note_off_c, 0, 80, 65
1, 82458, Note_off_c, 0, 74, 60
1, 82476, Note_on_c, 0, 85, 80
1, 82476, Control_c, 0, 64, 94
1, 82495, Control_c, 0, 64, 58
1, 82498, Note_off_c, 0, 77, 60
1, 82498, Note_on_c, 0, 64, 60
1, 82515, Control_c, 0, 64, 16
1, 82537, Note_off_c, 0, 64, 67
1, 82537, Note_on_c, 0, 82, 88
1, 82547, Note_off_c, 0, 85, 64
1, 82550, Control_c, 0, 64, 46
1, 82570, Control_c, 0, 64, 67
1, 82573, Note_on_c, 0, 67, 58
1, 82587, Poly_aftertouch_c, 0, 65, 0
1, 82588, Control_c, 0, 64, 92
1, 82606, Control_c, 0, 64, 127
1, 82613, Note_on_c, 0, 65, 63
1, 82614, Note_off_c, 0, 67, 65
1, 82618, Note_on_c, 0, 86, 87
1, 82630, Note_off_c, 0, 82, 64
1, 82669, Note_off_c, 0, 86, 66
1, 82682, Control_c, 0, 64, 78
1, 82691, Note_off_c, 0, 65, 60
1, 82698, Poly_aftertouch_c, 0, 64, 0
1, 82699, Note_on_c, 0, 83, 84
1, 82701, Control_c, 0, 64, 32
1, 82713, Note_on_c, 0, 68, 65
1, 82719, Control_c, 0, 64, 0
1, 82739, Note_off_c, 0, 68, 64
1, 82739, Control_c, 0, 64, 32
1, 82757, Control_c, 0, 64, 65
1, 82769, Note_on_c, 0, 91, 88
1, 82776, Note_off_c, 0, 83, 63
1, 82776, Control_c, 0, 64, 115
1, 82789, Note_on_c, 0, 58, 84
1, 82793, Control_c, 0, 64, 127
1, 82849, Note_on_c, 0, 88, 96
1, 82851, Note_off_c, 0, 91, 61
1, 82859, Note_off_c, 0, 58, 65
1, 82860, Note_on_c, 0, 61, 82
1, 82868, Control_c, 0, 64, 89
1, 82888, Control_c, 0, 64, 46
1, 82907, Control_c, 0, 64, 0
1, 82925, Note_on_c, 0, 92, 96
1, 82927, Control_c, 0, 64, 24
1, 82928, Note_on_c, 0, 59, 78
1, 82932, Note_off_c, 0, 88, 65
1, 82936, Note_off_c, 0, 61, 64
1, 82943, Control_c, 0, 64, 58
1, 82963, Control_c, 0, 64, 86
1, 82982, Control_c, 0, 64, 127
1, 82992, Note_off_c, 0, 59, 65
1, 82994, Note_on_c, 0, 89, 97
1, 83005, Note_on_c, 0, 62, 74
1, 83012, Note_off_c, 0, 92, 68
1, 83035, Note_off_c, 0, 62, 71
1, 83129, Note_on_c, 0, 59, 82
1, 83139, Note_off_c, 0, 89, 59
1, 83141, Note_on_c, 0, 98, 102
1, 83149, Control_c, 0, 64, 101
1, 83169, Control_c, 0, 64, 66
1, 83187, Control_c, 0, 64, 35
1, 83205, Control_c, 0, 64, 17
1, 83211, Note_off_c, 0, 59, 58
1, 83225, Control_c, 0, 64, 28
1, 83244, Control_c, 0, 64, 53
1, 83248, Note_on_c, 0, 89, 85
1, 83255, Note_on_c, 0, 49, 68
1, 83257, Note_off_c, 0, 98, 64
1, 83261, Note_on_c, 0, 86, 74
1, 83262, Control_c, 0, 64, 76
1, 83281, Control_c, 0, 64, 127
1, 83304, Note_off_c, 0, 49, 65
1, 83305, Note_off_c, 0, 86, 60
1, 83325, Note_on_c, 0, 48, 9
1, 83330, Note_off_c, 0, 89, 56
1, 83339, Note_on_c, 0, 57, 74
1, 83342, Note_on_c, 0, 97, 99
1, 83389, Note_off_c, 0, 57, 60
1, 83391, Control_c, 0, 64, 101
1, 83407, Note_off_c, 0, 48, 32
1, 83410, Note_on_c, 0, 89, 88
1, 83411, Control_c, 0, 64, 67
1, 83422, Note_on_c, 0, 49, 72
1, 83426, Note_on_c, 0, 85, 80
1, 83430, Note_off_c, 0, 97, 63
1, 83430, Control_c, 0, 64, 55
1, 83450, Control_c, 0, 64, 65
1, 83467, Control_c, 0, 64, 85
1, 83477, Note_off_c, 0, 85, 64
1, 83482, Note_off_c, 0, 89, 56
1, 83486, Note_off_c, 0, 49, 58
1, 83486, Control_c, 0, 64, 127
1, 83488, Note_on_c, 0, 56, 85
1, 83500, Note_on_c, 0, 95, 98
1, 83562, Control_c, 0, 64, 98
1, 83565, Note_on_c, 0, 89, 88
1, 83568, Note_off_c, 0, 95, 65
1, 83578, Note_on_c, 0, 83, 88
1, 83582, Control_c, 0, 64, 62
1, 83583, Note_on_c, 0, 49, 82
1, 83588, Note_off_c, 0, 56, 67
1, 83598, Control_c, 0, 64, 26
1, 83617, Control_c, 0, 64, 17
1, 83625, Note_off_c, 0, 89, 62
1, 83631, Note_off_c, 0, 83, 64
1, 83636, Control_c, 0, 64, 42
1, 83639, Note_off_c, 0, 49, 53
1, 83647, Note_on_c, 0, 55, 82
1, 83654, Note_on_c, 0, 94, 100
1, 83655, Control_c, 0, 64, 69
1, 83673, Control_c, 0, 64, 101
1, 83691, Control_c, 0, 64, 127
1, 83718, Note_off_c, 0, 55, 58
1, 83726, Note_on_c, 0, 49, 87
1, 83728, Note_on_c, 0, 82, 87
1, 83730, Note_off_c, 0, 94, 63
1, 83746, Note_on_c, 0, 86, 59
1, 83755, Note_on_c, 0, 85, 54
1, 83768, Control_c, 0, 64, 79
1, 83778, Note_off_c, 0, 86, 64
1, 83783, Note_off_c, 0, 82, 64
1, 83784, Control_c, 0, 64, 47
1, 83798, Note_off_c, 0, 85, 46
1, 83804, Note_on_c, 0, 54, 82
1, 83804, Control_c, 0, 64, 27
1, 83808, Note_on_c, 0, 93, 97
1, 83813, Note_off_c, 0, 49, 64
1, 83823, Control_c, 0, 64, 43
1, 83842, Control_c, 0, 64, 67
1, 83860, Control_c, 0, 64, 98
1, 83875, Note_on_c, 0, 85, 95
1, 83879, Control_c, 0, 64, 127
1, 83882, Note_off_c, 0, 93, 65
1, 83895, Note_on_c, 0, 81, 80
1, 83900, Note_on_c, 0, 49, 74
1, 83910, Note_off_c, 0, 54, 62
1, 83921, Note_on_c, 0, 84, 60
1, 83933, Note_off_c, 0, 81, 63
1, 83939, Note_on_c, 0, 57, 86
1, 83948, Note_off_c, 0, 85, 64
1, 83952, Control_c, 0, 64, 83
1, 83954, Note_off_c, 0, 49, 62
1, 83959, Note_off_c, 0, 84, 65
1, 83972, Control_c, 0, 64, 48
1, 83974, Note_on_c, 0, 92, 101
1, 83982, Note_off_c, 0, 57, 63
1, 83991, Control_c, 0, 64, 26
1, 84009, Control_c, 0, 64, 45
1, 84029, Control_c, 0, 64, 69
1, 84033, Note_on_c, 0, 84, 87
1, 84036, Note_on_c, 0, 49, 80
1, 84039, Note_off_c, 0, 92, 67
1, 84047, Control_c, 0, 64, 101
1, 84050, Note_on_c, 0, 80, 82
1, 84065, Control_c, 0, 64, 127
1, 84091, Note_off_c, 0, 49, 62
1, 84099, Note_on_c, 0, 63, 88
1, 84106, Note_off_c, 0, 80, 63
1, 84116, Note_on_c, 0, 90, 97
1, 84151, Note_off_c, 0, 63, 62
1, 84154, Note_off_c, 0, 84, 64
1, 84154, Note_on_c, 0, 84, 54
1, 84179, Control_c, 0, 64, 99
1, 84188, Poly_aftertouch_c, 0, 83, 127
1, 84191, Note_on_c, 0, 78, 74
1, 84196, Poly_aftertouch_c, 0, 83, 0
1, 84197, Control_c, 0, 64, 57
1, 84198, Note_on_c, 0, 49, 79
1, 84201, Note_off_c, 0, 90, 67
1, 84215, Control_c, 0, 64, 0
1, 84217, Note_off_c, 0, 78, 73
1, 84221, Note_off_c, 0, 84, 64
1, 84253, Control_c, 0, 64, 19
1, 84262, Note_on_c, 0, 89, 96
1, 84262, Note_on_c, 0, 61, 89
1, 84262, Poly_aftertouch_c, 0, 55, 0
1, 84267, Note_on_c, 0, 77, 89
1, 84272, Control_c, 0, 64, 55
1, 84273, Note_on_c, 0, 85, 85
1, 84291, Control_c, 0, 64, 84
1, 84294, Note_off_c, 0, 61, 68
1, 84299, Note_off_c, 0, 77, 65
1, 84309, Control_c, 0, 64, 127
1, 84314, Note_off_c, 0, 89, 65
1, 84325, Note_off_c, 0, 49, 64
1, 84329, Note_off_c, 0, 85, 64
1, 84440, Note_on_c, 0, 37, 89
1, 84473, Note_off_c, 0, 37, 68
1, 84505, Note_on_c, 0, 39, 19
1, 84571, Note_off_c, 0, 39, 51
1, 84608, Control_c, 0, 64, 110
1, 84612, Note_on_c, 0, 65, 79
1, 84614, Note_on_c, 0, 74, 72
1, 84628, Control_c, 0, 64, 77
1, 84636, Note_on_c, 0, 68, 76
1, 84638, Note_on_c, 0, 59, 73
1, 84647, Control_c, 0, 64, 49
1, 84664, Control_c, 0, 64, 0
1, 84679, Note_off_c, 0, 68, 59
1, 84705, Note_off_c, 0, 65, 56
1, 84709, Note_off_c, 0, 74, 53
1, 84713, Note_on_c, 0, 62, 67
1, 84720, Note_on_c, 0, 71, 73
1, 84733, Note_off_c, 0, 59, 60
1, 84795, Note_on_c, 0, 67, 77
1, 84797, Note_on_c, 0, 58, 74
1, 84804, Note_off_c, 0, 71, 61
1, 84804, Note_off_c, 0, 62, 59
1, 84850, Note_off_c, 0, 67, 64
1, 84850, Note_on_c, 0, 64, 75
1, 84869, Note_off_c, 0, 58, 64
1, 84872, Note_on_c, 0, 61, 73
1, 84931, Note_off_c, 0, 64, 61
1, 84941, Note_on_c, 0, 68, 80
1, 84944, Note_off_c, 0, 61, 63
1, 84948, Note_on_c, 0, 59, 71
1, 84988, Note_off_c, 0, 59, 64
1, 85014, Note_off_c, 0, 68, 64
1, 85015, Note_on_c, 0, 65, 82
1, 85021, Note_on_c, 0, 62, 68
1, 85055, Note_off_c, 0, 62, 68
1, 85084, Note_on_c, 0, 73, 82
1, 85099, Note_on_c, 0, 52, 68
1, 85104, Note_off_c, 0, 65, 64
1, 85147, Note_off_c, 0, 73, 67
1, 85147, Note_on_c, 0, 70, 87
1, 85153, Note_off_c, 0, 52, 63
1, 85176, Note_on_c, 0, 55, 68
1, 85220, Note_off_c, 0, 55, 66
1, 85225, Note_on_c, 0, 53, 77
1, 85231, Note_on_c, 0, 74, 84
1, 85240, Note_off_c, 0, 70, 65
1, 85263, Control_c, 0, 64, 28
1, 85281, Control_c, 0, 64, 58
1, 85284, Note_off_c, 0, 74, 62
1, 85294, Note_off_c, 0, 53, 60
1, 85298, Control_c, 0, 64, 73
1, 85307, Note_on_c, 0, 56, 84
1, 85307, Note_on_c, 0, 71, 86
1, 85319, Control_c, 0, 64, 94
1, 85333, Note_off_c, 0, 56, 70
1, 85336, Control_c, 0, 64, 127
1, 85385, Note_on_c, 0, 79, 87
1, 85387, Note_off_c, 0, 71, 59
1, 85407, Note_on_c, 0, 46, 81
1, 85466, Poly_aftertouch_c, 0, 56, 127
1, 85477, Note_on_c, 0, 76, 96
1, 85484, Note_on_c, 0, 49, 77
1, 85486, Control_c, 0, 64, 86
1, 85487, Note_off_c, 0, 79, 60
1, 85499, Note_off_c, 0, 46, 59
1, 85504, Control_c, 0, 64, 57
1, 85521, Poly_aftertouch_c, 0, 56, 0
1, 85526, Control_c, 0, 64, 17
1, 85535, Note_on_c, 0, 48, 43
1, 85542, Control_c, 0, 64, 0
1, 85568, Note_on_c, 0, 80, 94
1, 85575, Note_on_c, 0, 47, 79
1, 85579, Note_off_c, 0, 48, 48
1, 85586, Note_off_c, 0, 49, 63
1, 85587, Note_off_c, 0, 76, 64
1, 85655, Note_off_c, 0, 47, 61
1, 85655, Note_on_c, 0, 77, 95
1, 85674, Note_on_c, 0, 50, 76
1, 85687, Note_off_c, 0, 80, 65
1, 85732, Note_off_c, 0, 50, 61
1, 85767, Control_c, 0, 64, 48
1, 85786, Control_c, 0, 64, 70
1, 85806, Control_c, 0, 64, 91
1, 85820, Note_on_c, 0, 86, 98
1, 85824, Control_c, 0, 64, 127
1, 85829, Note_on_c, 0, 47, 74
1, 85857, Note_off_c, 0, 77, 60
1, 85920, Note_off_c, 0, 47, 55
1, 85964, Note_on_c, 0, 37, 63
1, 85974, Note_on_c, 0, 77, 72
1, 85977, Note_off_c, 0, 86, 63
1, 85996, Note_on_c, 0, 74, 42
1, 86020, Note_off_c, 0, 37, 58
1, 86034, Note_off_c, 0, 74, 55
1, 86059, Note_off_c, 0, 77, 60
1, 86069, Note_on_c, 0, 45, 69
1, 86082, Note_on_c, 0, 85, 96
1, 86123, Control_c, 0, 64, 110
1, 86138, Note_on_c, 0, 37, 69
1, 86140, Note_off_c, 0, 45, 55
1, 86141, Control_c, 0, 64, 71
1, 86148, Note_on_c, 0, 77, 78
1, 86160, Control_c, 0, 64, 44
1, 86171, Note_off_c, 0, 85, 63
1, 86178, Note_on_c, 0, 73, 68
1, 86178, Control_c, 0, 64, 39
1, 86199, Control_c, 0, 64, 51
1, 86211, Note_off_c, 0, 73, 70
1, 86216, Control_c, 0, 64, 64
1, 86223, Note_off_c, 0, 37, 60
1, 86229, Note_on_c, 0, 44, 68
1, 86235, Control_c, 0, 64, 82
1, 86253, Control_c, 0, 64, 127
1, 86255, Note_on_c, 0, 83, 89
1, 86266, Note_off_c, 0, 77, 37
1, 86302, Note_off_c, 0, 44, 59
1, 86308, Note_on_c, 0, 37, 72
1, 86309, Note_on_c, 0, 77, 60
1, 86322, Note_off_c, 0, 83, 63
1, 86337, Note_on_c, 0, 71, 78
1, 86347, Control_c, 0, 64, 80
1, 86364, Note_off_c, 0, 37, 60
1, 86366, Control_c, 0, 64, 52
1, 86377, Note_off_c, 0, 71, 62
1, 86384, Note_off_c, 0, 77, 60
1, 86384, Control_c, 0, 64, 36
1, 86395, Note_on_c, 0, 43, 70
1, 86404, Control_c, 0, 64, 46
1, 86413, Note_on_c, 0, 82, 91
1, 86422, Control_c, 0, 64, 63
1, 86441, Control_c, 0, 64, 82
1, 86459, Control_c, 0, 64, 127
1, 86466, Note_off_c, 0, 43, 52
1, 86472, Note_on_c, 0, 37, 82
1, 86483, Note_on_c, 0, 73, 80
1, 86493, Note_off_c, 0, 82, 63
1, 86497, Note_on_c, 0, 70, 66
1, 86531, Note_off_c, 0, 70, 67
1, 86547, Note_on_c, 0, 42, 80
1, 86549, Note_off_c, 0, 37, 60
1, 86551, Control_c, 0, 64, 79
1, 86563, Note_off_c, 0, 73, 63
1, 86568, Note_on_c, 0, 81, 85
1, 86571, Control_c, 0, 64, 49
1, 86590, Control_c, 0, 64, 30
1, 86610, Control_c, 0, 64, 41
1, 86625, Control_c, 0, 64, 61
1, 86626, Note_on_c, 0, 37, 79
1, 86627, Note_on_c, 0, 72, 84
1, 86635, Note_off_c, 0, 81, 65
1, 86640, Note_on_c, 0, 69, 79
1, 86644, Control_c, 0, 64, 79
1, 86645, Note_off_c, 0, 42, 64
1, 86666, Control_c, 0, 64, 127
1, 86681, Note_off_c, 0, 69, 64
1, 86703, Note_on_c, 0, 45, 85
1, 86704, Note_off_c, 0, 37, 61
1, 86720, Note_off_c, 0, 72, 58
1, 86721, Note_on_c, 0, 80, 94
1, 86743, Note_off_c, 0, 45, 65
1, 86768, Note_on_c, 0, 78, 45
1, 86768, Note_on_c, 0, 72, 70
1, 86776, Control_c, 0, 64, 96
1, 86785, Note_off_c, 0, 80, 66
1, 86786, Note_on_c, 0, 37, 79
1, 86795, Control_c, 0, 64, 100
1, 86801, Note_off_c, 0, 78, 56
1, 86814, Control_c, 0, 64, 127
1, 86833, Note_on_c, 0, 68, 45
1, 86836, Note_off_c, 0, 37, 59
1, 86858, Note_on_c, 0, 51, 89
1, 86865, Note_on_c, 0, 78, 99
1, 86874, Note_off_c, 0, 68, 56
1, 86920, Note_off_c, 0, 51, 65
1, 86933, Note_off_c, 0, 78, 66
1, 86939, Poly_aftertouch_c, 0, 44, 0
1, 86946, Note_on_c, 0, 66, 78
1, 86953, Note_on_c, 0, 37, 88
1, 87002, Control_c, 0, 64, 123
1, 87005, Note_off_c, 0, 66, 62
1, 87020, Control_c, 0, 64, 74
1, 87022, Note_on_c, 0, 77, 96
1, 87030, Note_off_c, 0, 37, 62
1, 87032, Note_on_c, 0, 49, 93
1, 87037, Note_off_c, 0, 72, 38
1, 87038, Control_c, 0, 64, 45
1, 87045, Note_on_c, 0, 75, 66
1, 87058, Control_c, 0, 64, 34
1, 87068, Note_off_c, 0, 75, 66
1, 87076, Control_c, 0, 64, 47
1, 87090, Note_off_c, 0, 77, 62
1, 87095, Control_c, 0, 64, 65
1, 87114, Control_c, 0, 64, 91
1, 87116, Note_off_c, 0, 49, 61
1, 87131, Note_on_c, 0, 65, 76
1, 87133, Control_c, 0, 64, 127
1, 87147, Note_on_c, 0, 37, 93
1, 87161, Note_on_c, 0, 68, 59
1, 87195, Note_off_c, 0, 65, 60
1, 87199, Note_off_c, 0, 68, 67
1, 87239, Note_on_c, 0, 47, 90
1, 87242, Note_on_c, 0, 74, 93
1, 87245, Control_c, 0, 64, 107
1, 87265, Control_c, 0, 64, 67
1, 87269, Note_off_c, 0, 37, 59
1, 87269, Note_on_c, 0, 72, 66
1, 87282, Control_c, 0, 64, 42
1, 87297, Note_off_c, 0, 72, 39
1, 87301, Control_c, 0, 64, 48
1, 87313, Note_off_c, 0, 47, 63
1, 87314, Note_off_c, 0, 74, 64
1, 87319, Control_c, 0, 64, 65
1, 87321, Note_on_c, 0, 65, 77
1, 87323, Note_on_c, 0, 62, 80
1, 87325, Note_on_c, 0, 37, 81
1, 87332, Poly_aftertouch_c, 0, 41, 0
1, 87333, Poly_aftertouch_c, 0, 45, 0
1, 87338, Control_c, 0, 64, 90
1, 87356, Control_c, 0, 64, 127
1, 87378, Note_off_c, 0, 62, 60
1, 87385, Note_off_c, 0, 65, 62
1, 87406, Note_on_c, 0, 45, 94
1, 87414, Note_on_c, 0, 73, 97
1, 87431, Control_c, 0, 64, 80
1, 87433, Note_off_c, 0, 37, 62
1, 87451, Control_c, 0, 64, 45
1, 87470, Control_c, 0, 64, 22
1, 87471, Note_on_c, 0, 65, 84
1, 87484, Note_on_c, 0, 61, 81
1, 87486, Note_off_c, 0, 73, 64
1, 87487, Note_on_c, 0, 37, 77
1, 87487, Control_c, 0, 64, 43
1, 87493, Note_off_c, 0, 45, 56
1, 87505, Control_c, 0, 64, 70
1, 87525, Control_c, 0, 64, 110
1, 87535, Note_off_c, 0, 61, 62
1, 87543, Control_c, 0, 64, 127
1, 87546, Note_on_c, 0, 44, 84
1, 87566, Note_on_c, 0, 71, 94
1, 87575, Note_off_c, 0, 37, 60
1, 87598, Control_c, 0, 64, 106
1, 87613, Note_off_c, 0, 65, 64
1, 87613, Note_on_c, 0, 65, 49
1, 87617, Control_c, 0, 64, 66
1, 87626, Note_off_c, 0, 71, 64
1, 87636, Control_c, 0, 64, 32
1, 87643, Note_on_c, 0, 59, 83
1, 87646, Note_on_c, 0, 37, 83
1, 87656, Control_c, 0, 64, 25
1, 87660, Note_off_c, 0, 44, 63
1, 87676, Control_c, 0, 64, 50
1, 87685, Note_off_c, 0, 65, 61
1, 87690, Note_off_c, 0, 59, 63
1, 87692, Control_c, 0, 64, 77
1, 87711, Control_c, 0, 64, 127
1, 87713, Note_on_c, 0, 43, 88
1, 87722, Note_on_c, 0, 70, 96
1, 87731, Note_off_c, 0, 37, 61
1, 87779, Note_off_c, 0, 43, 64
1, 87789, Note_on_c, 0, 61, 86
1, 87794, Note_off_c, 0, 70, 66
1, 87797, Note_on_c, 0, 37, 81
1, 87806, Note_on_c, 0, 58, 76
1, 87806, Control_c, 0, 64, 81
1, 87824, Control_c, 0, 64, 47
1, 87838, Note_off_c, 0, 58, 70
1, 87842, Control_c, 0, 64, 32
1, 87861, Control_c, 0, 64, 54
1, 87868, Note_on_c, 0, 42, 81
1, 87879, Note_on_c, 0, 69, 89
1, 87879, Control_c, 0, 64, 79
1, 87886, Note_off_c, 0, 61, 60
1, 87900, Control_c, 0, 64, 127
1, 87902, Note_off_c, 0, 37, 61
1, 87937, Note_on_c, 0, 60, 87
1, 87943, Note_on_c, 0, 57, 87
1, 87946, Note_off_c, 0, 69, 61
1, 87992, Control_c, 0, 64, 71
1, 87999, Note_off_c, 0, 57, 67
1, 87999, Note_on_c, 0, 45, 81
1, 88005, Poly_aftertouch_c, 0, 61, 0
1, 88012, Note_off_c, 0, 60, 61
1, 88012, Control_c, 0, 64, 35
1, 88029, Control_c, 0, 64, 23
1, 88037, Note_on_c, 0, 68, 94
1, 88040, Note_off_c, 0, 42, 62
1, 88048, Control_c, 0, 64, 49
1, 88062, Note_off_c, 0, 45, 62
1, 88067, Note_on_c, 0, 37, 86
1, 88067, Control_c, 0, 64, 79
1, 88087, Control_c, 0, 64, 127
1, 88094, Note_on_c, 0, 60, 85
1, 88097, Note_off_c, 0, 68, 69
1, 88113, Note_on_c, 0, 56, 84
1, 88143, Note_off_c, 0, 37, 62
1, 88163, Note_on_c, 0, 51, 93
1, 88175, Note_off_c, 0, 56, 63
1, 88184, Note_on_c, 0, 66, 92
1, 88219, Note_off_c, 0, 51, 67
1, 88220, Note_on_c, 0, 41, 26
1, 88221, Note_on_c, 0, 42, 21
1, 88236, Control_c, 0, 64, 70
1, 88248, Note_on_c, 0, 37, 92
1, 88250, Poly_aftertouch_c, 0, 43, 127
1, 88254, Control_c, 0, 64, 38
1, 88256, Note_on_c, 0, 54, 60
1, 88264, Note_off_c, 0, 41, 57
1, 88266, Note_off_c, 0, 60, 62
1, 88270, Note_off_c, 0, 66, 66
1, 88272, Note_off_c, 0, 42, 43
1, 88273, Control_c, 0, 64, 51
1, 88277, Poly_aftertouch_c, 0, 44, 0
1, 88279, Poly_aftertouch_c, 0, 43, 0
1, 88287, Note_off_c, 0, 54, 59
1, 88291, Control_c, 0, 64, 74
1, 88297, Note_on_c, 0, 39, 18
1, 88309, Control_c, 0, 64, 127
1, 88315, Poly_aftertouch_c, 0, 67, 127
1, 88320, Note_on_c, 0, 49, 107
1, 88337, Note_on_c, 0, 53, 100
1, 88339, Note_on_c, 0, 65, 92
1, 88340, Note_on_c, 0, 61, 90
1, 88342, Poly_aftertouch_c, 0, 67, 0
1, 88360, Note_off_c, 0, 49, 65
1, 88362, Note_off_c, 0, 39, 58
1, 88363, Note_off_c, 0, 53, 71
1, 88373, Note_off_c, 0, 37, 63
1, 88387, Note_off_c, 0, 65, 58
1, 88391, Note_off_c, 0, 61, 66
1, 88467, Poly_aftertouch_c, 0, 63, 127
1, 88483, Poly_aftertouch_c, 0, 63, 0
1, 88552, Control_c, 0, 64, 60
1, 88556, Note_on_c, 0, 62, 105
1, 88557, Note_on_c, 0, 53, 100
1, 88562, Note_on_c, 0, 47, 110
1, 88563, Note_on_c, 0, 56, 91
1, 88570, Note_on_c, 0, 35, 90
1, 88570, Control_c, 0, 64, 0
1, 88574, Note_on_c, 0, 36, 87
1, 88586, Note_off_c, 0, 53, 72
1, 88589, Note_off_c, 0, 47, 72
1, 88592, Note_off_c, 0, 56, 75
1, 88597, Note_off_c, 0, 62, 66
1, 88601, Note_off_c, 0, 35, 66
1, 88606, Note_off_c, 0, 36, 63
1, 88608, Note_on_c, 0, 37, 42
1, 88638, Note_off_c, 0, 37, 61
1, 88744, Poly_aftertouch_c, 0, 35, 0
1, 88752, Poly_aftertouch_c, 0, 36, 0
1, 88789, Note_on_c, 0, 61, 98
1, 88790, Note_on_c, 0, 53, 96
1, 88792, Note_on_c, 0, 48, 110
1, 88794, Note_on_c, 0, 56, 93
1, 88797, Note_on_c, 0, 36, 89
1, 88822, Note_off_c, 0, 53, 67
1, 88826, Note_off_c, 0, 56, 69
1, 88826, Note_off_c, 0, 48, 68
1, 88832, Note_off_c, 0, 36, 68
1, 88846, Note_off_c, 0, 61, 69
1, 88859, Note_on_c, 0, 42, 6
1, 88860, Note_off_c, 0, 42, 127
1, 88880, Poly_aftertouch_c, 0, 37, 0
1, 88922, Poly_aftertouch_c, 0, 38, 0
1, 88922, Poly_aftertouch_c, 0, 42, 0
1, 88972, Note_on_c, 0, 53, 101
1, 88974, Note_on_c, 0, 60, 102
1, 88979, Note_on_c, 0, 56, 86
1, 88984, Note_on_c, 0, 37, 94
1, 88984, Note_on_c, 0, 49, 102
1, 89006, Note_off_c, 0, 53, 64
1, 89014, Note_off_c, 0, 56, 67
1, 89021, Note_off_c, 0, 60, 62
1, 89034, Note_off_c, 0, 49, 68
1, 89037, Note_off_c, 0, 37, 63
1, 89148, Note_on_c, 0, 59, 97
1, 89152, Note_on_c, 0, 50, 104
1, 89152, Note_on_c, 0, 56, 92
1, 89153, Note_on_c, 0, 53, 93
1, 89154, Note_on_c, 0, 38, 97
1, 89182, Note_off_c, 0, 50, 69
1, 89183, Note_off_c, 0, 53, 69
1, 89183, Note_off_c, 0, 56, 70
1, 89187, Note_off_c, 0, 38, 73
1, 89194, Note_on_c, 0, 48, 42
1, 89195, Note_off_c, 0, 48, 127
1, 89202, Note_off_c, 0, 59, 66
1, 89258, Poly_aftertouch_c, 0, 48, 0
1, 89326, Note_on_c, 0, 62, 105
1, 89328, Note_on_c, 0, 47, 101
1, 89328, Note_on_c, 0, 53, 88
1, 89360, Note_off_c, 0, 47, 65
1, 89360, Note_off_c, 0, 53, 69
1, 89369, Note_off_c, 0, 62, 66
1, 89379, Note_on_c, 0, 56, 24
1, 89386, Note_off_c, 0, 56, 127
1, 89498, Note_on_c, 0, 48, 101
1, 89499, Note_on_c, 0, 61, 87
1, 89500, Note_on_c, 0, 53, 80
1, 89503, Note_on_c, 0, 56, 89
1, 89528, Note_off_c, 0, 61, 68
1, 89534, Note_off_c, 0, 53, 66
1, 89574, Note_on_c, 0, 60, 82
1, 89576, Note_off_c, 0, 48, 62
1, 89577, Note_on_c, 0, 49, 98
1, 89591, Note_off_c, 0, 56, 65
1, 89622, Note_on_c, 0, 53, 17
1, 89623, Note_off_c, 0, 53, 127
1, 89658, Note_on_c, 0, 50, 107
1, 89667, Note_on_c, 0, 59, 85
1, 89671, Note_on_c, 0, 53, 83
1, 89677, Note_on_c, 0, 56, 85
1, 89691, Note_off_c, 0, 49, 66
1, 89715, Note_off_c, 0, 60, 65
1, 89762, Note_off_c, 0, 50, 67
1, 89799, Note_off_c, 0, 56, 58
1, 89826, Note_off_c, 0, 53, 55
1, 89848, Note_off_c, 0, 59, 62
1, 89955, Control_c, 0, 67, 13
1, 89973, Control_c, 0, 67, 31
1, 89992, Control_c, 0, 67, 61
1, 90011, Control_c, 0, 67, 98
1, 90029, Control_c, 0, 67, 127
1, 90855, Note_on_c, 0, 74, 46
1, 90857, Note_on_c, 0, 59, 40
1, 90864, Note_on_c, 0, 68, 39
1, 90898, Note_off_c, 0, 59, 47
1, 90905, Note_off_c, 0, 68, 53
1, 90906, Note_off_c, 0, 74, 61
1, 90950, Poly_aftertouch_c, 0, 65, 0
1, 91088, Note_on_c, 0, 65, 50
1, 91088, Note_on_c, 0, 73, 62
1, 91099, Note_on_c, 0, 60, 47
1, 91108, Note_on_c, 0, 68, 35
1, 91125, Note_off_c, 0, 65, 61
1, 91129, Note_off_c, 0, 73, 63
1, 91134, Note_off_c, 0, 60, 58
1, 91151, Note_off_c, 0, 68, 51
1, 91276, Note_on_c, 0, 61, 55
1, 91280, Note_on_c, 0, 68, 47
1, 91289, Note_on_c, 0, 72, 49
1, 91298, Note_on_c, 0, 65, 26
1, 91311, Note_off_c, 0, 61, 63
1, 91329, Note_off_c, 0, 68, 55
1, 91337, Note_off_c, 0, 72, 61
1, 91349, Note_off_c, 0, 65, 45
1, 91464, Note_on_c, 0, 65, 46
1, 91470, Note_on_c, 0, 71, 49
1, 91473, Note_on_c, 0, 68, 31
1, 91475, Note_on_c, 0, 62, 33
1, 91502, Note_off_c, 0, 65, 57
1, 91517, Note_off_c, 0, 71, 62
1, 91523, Note_off_c, 0, 68, 50
1, 91523, Note_off_c, 0, 62, 50
1, 91665, Note_on_c, 0, 65, 24
1, 91666, Note_on_c, 0, 68, 27
1, 91672, Note_on_c, 0, 74, 41
1, 91677, Note_on_c, 0, 59, 41
1, 91714, Note_off_c, 0, 59, 48
1, 91716, Note_off_c, 0, 74, 53
1, 91719, Note_off_c, 0, 65, 50
1, 91722, Note_off_c, 0, 68, 52
1, 91921, Note_on_c, 0, 73, 54
1, 91947, Note_on_c, 0, 60, 24
1, 91949, Note_off_c, 0, 73, 65
1, 91968, Poly_aftertouch_c, 0, 65, 127
1, 91984, Poly_aftertouch_c, 0, 68, 127
1, 91993, Note_on_c, 0, 61, 39
1, 91998, Note_on_c, 0, 72, 52
1, 92006, Note_off_c, 0, 60, 48
1, 92054, Poly_aftertouch_c, 0, 68, 0
1, 92056, Note_off_c, 0, 72, 59
1, 92069, Note_off_c, 0, 61, 57
1, 92110, Note_on_c, 0, 62, 37
1, 92115, Note_on_c, 0, 71, 31
1, 92194, Poly_aftertouch_c, 0, 65, 24
1, 92242, Poly_aftertouch_c, 0, 65, 0
1, 92277, Note_off_c, 0, 62, 52
1, 92320, Note_off_c, 0, 71, 43
1, 92497, Control_c, 0, 67, 122
1, 92534, Control_c, 0, 67, 115
1, 92572, Control_c, 0, 67, 107
1, 92591, Control_c, 0, 67, 101
1, 92609, Control_c, 0, 67, 92
1, 92629, Control_c, 0, 67, 81
1, 92647, Control_c, 0, 67, 66
1, 92666, Control_c, 0, 67, 51
1, 92684, Control_c, 0, 67, 36
1, 92703, Control_c, 0, 67, 23
1, 92721, Control_c, 0, 67, 11
1, 92759, Control_c, 0, 67, 0
1, 93141, Note_on_c, 0, 62, 97
1, 93145, Note_on_c, 0, 56, 93
1, 93146, Note_on_c, 0, 47, 102
1, 93148, Note_on_c, 0, 65, 88
1, 93150, Note_on_c, 0, 35, 98
1, 93193, Note_off_c, 0, 47, 65
1, 93201, Note_off_c, 0, 56, 64
1, 93209, Note_off_c, 0, 35, 56
1, 93222, Note_off_c, 0, 65, 57
1, 93249, Note_off_c, 0, 62, 54
1, 93289, Poly_aftertouch_c, 0, 37, 0
1, 93387, Note_on_c, 0, 61, 97
1, 93392, Note_on_c, 0, 56, 97
1, 93396, Note_on_c, 0, 65, 89
1, 93403, Note_on_c, 0, 48, 98
1, 93409, Note_on_c, 0, 36, 96
1, 93454, Note_off_c, 0, 48, 65
1, 93459, Note_off_c, 0, 36, 60
1, 93464, Note_off_c, 0, 56, 61
1, 93467, Note_off_c, 0, 65, 62
1, 93494, Note_off_c, 0, 61, 62
1, 93534, Poly_aftertouch_c, 0, 37, 0
1, 93584, Note_on_c, 0, 60, 88
1, 93585, Note_on_c, 0, 65, 88
1, 93585, Note_on_c, 0, 56, 91
1, 93592, Note_on_c, 0, 49, 101
1, 93597, Note_on_c, 0, 37, 92
1, 93600, Note_on_c, 0, 59, 73
1, 93625, Note_off_c, 0, 59, 65
1, 93640, Note_off_c, 0, 37, 65
1, 93643, Note_off_c, 0, 49, 67
1, 93643, Note_off_c, 0, 56, 63
1, 93649, Note_off_c, 0, 60, 64
1, 93666, Note_off_c, 0, 65, 63
1, 93758, Note_on_c, 0, 56, 95
1, 93760, Note_on_c, 0, 59, 74
1, 93762, Note_on_c, 0, 60, 78
1, 93762, Note_on_c, 0, 65, 80
1, 93762, Note_on_c, 0, 50, 99
1, 93772, Note_on_c, 0, 38, 88
1, 93796, Note_on_c, 0, 40, 63
1, 93797, Note_off_c, 0, 40, 127
1, 93800, Note_off_c, 0, 38, 67
1, 93801, Note_off_c, 0, 60, 63
1, 93805, Note_off_c, 0, 50, 63
1, 93812, Note_off_c, 0, 56, 61
1, 93822, Note_off_c, 0, 59, 63
1, 93834, Note_off_c, 0, 65, 61
1, 93933, Note_on_c, 0, 56, 102
1, 93937, Note_on_c, 0, 65, 86
1, 93938, Note_on_c, 0, 62, 88
1, 93941, Note_on_c, 0, 47, 99
1, 93945, Note_on_c, 0, 38, 12
1, 93946, Note_off_c, 0, 38, 127
1, 93980, Note_off_c, 0, 56, 70
1, 93986, Note_off_c, 0, 47, 59
1, 93987, Note_off_c, 0, 65, 63
1, 94009, Note_off_c, 0, 62, 63
1, 94102, Note_on_c, 0, 56, 96
1, 94109, Note_on_c, 0, 65, 87
1, 94114, Note_on_c, 0, 61, 89
1, 94120, Note_on_c, 0, 48, 96
1, 94158, Note_off_c, 0, 56, 68
1, 94197, Note_on_c, 0, 49, 96
1, 94198, Note_on_c, 0, 60, 87
1, 94202, Note_off_c, 0, 48, 65
1, 94213, Note_off_c, 0, 61, 52
1, 94217, Control_c, 0, 64, 54
1, 94236, Control_c, 0, 64, 87
1, 94256, Control_c, 0, 64, 127
1, 94273, Note_on_c, 0, 59, 101
1, 94284, Note_on_c, 0, 50, 105
1, 94309, Note_off_c, 0, 60, 64
1, 94315, Note_off_c, 0, 49, 67
1, 94343, Note_off_c, 0, 59, 63
1, 94365, Note_off_c, 0, 50, 66
1, 94370, Note_off_c, 0, 65, 61
1, 94424, Control_c, 0, 64, 72
1, 94442, Control_c, 0, 64, 11
1, 94461, Control_c, 0, 64, 0
1, 94536, Control_c, 0, 67, 8
1, 94554, Control_c, 0, 67, 14
1, 94573, Control_c, 0, 67, 21
1, 94592, Control_c, 0, 67, 34
1, 94609, Control_c, 0, 67, 52
1, 94631, Control_c, 0, 67, 73
1, 94648, Control_c, 0, 67, 94
1, 94667, Control_c, 0, 67, 111
1, 94685, Control_c, 0, 67, 118
1, 94759, Control_c, 0, 67, 123
1, 94835, Control_c, 0, 67, 127
1, 95747, Note_on_c, 0, 74, 54
1, 95769, Note_on_c, 0, 77, 38
1, 95771, Note_on_c, 0, 59, 30
1, 95773, Note_on_c, 0, 68, 33
1, 95796, Note_off_c, 0, 74, 60
1, 95814, Note_off_c, 0, 77, 49
1, 95816, Note_off_c, 0, 59, 44
1, 95816, Note_off_c, 0, 68, 52
1, 95993, Note_on_c, 0, 73, 60
1, 95994, Note_on_c, 0, 77, 53
1, 96000, Note_on_c, 0, 68, 43
1, 96003, Note_on_c, 0, 60, 47
1, 96040, Note_off_c, 0, 60, 57
1, 96048, Note_off_c, 0, 77, 57
1, 96048, Note_off_c, 0, 73, 56
1, 96050, Note_off_c, 0, 68, 62
1, 96184, Note_on_c, 0, 72, 66
1, 96192, Note_on_c, 0, 68, 52
1, 96192, Note_on_c, 0, 77, 58
1, 96199, Note_on_c, 0, 61, 48
1, 96229, Note_off_c, 0, 72, 61
1, 96231, Note_off_c, 0, 77, 62
1, 96233, Note_off_c, 0, 61, 60
1, 96233, Note_off_c, 0, 68, 64
1, 96350, Note_on_c, 0, 71, 61
1, 96364, Note_on_c, 0, 62, 53
1, 96374, Note_on_c, 0, 77, 53
1, 96382, Note_on_c, 0, 68, 29
1, 96400, Note_off_c, 0, 62, 62
1, 96407, Note_off_c, 0, 71, 62
1, 96420, Note_off_c, 0, 77, 59
1, 96429, Note_off_c, 0, 68, 47
1, 96530, Note_on_c, 0, 74, 62
1, 96538, Note_on_c, 0, 68, 54
1, 96540, Note_on_c, 0, 77, 53
1, 96547, Note_on_c, 0, 59, 53
1, 96578, Note_off_c, 0, 59, 59
1, 96579, Note_off_c, 0, 68, 65
1, 96579, Note_off_c, 0, 74, 62
1, 96585, Note_off_c, 0, 77, 61
1, 96730, Note_on_c, 0, 68, 26
1, 96730, Note_on_c, 0, 73, 46
1, 96741, Note_on_c, 0, 77, 28
1, 96763, Note_on_c, 0, 60, 25
1, 96781, Note_off_c, 0, 68, 52
1, 96789, Note_off_c, 0, 73, 58
1, 96808, Note_on_c, 0, 72, 50
1, 96810, Note_off_c, 0, 60, 44
1, 96822, Note_on_c, 0, 61, 45
1, 96875, Note_off_c, 0, 61, 62
1, 96877, Note_off_c, 0, 72, 58
1, 96910, Note_on_c, 0, 71, 44
1, 96924, Note_on_c, 0, 62, 37
1, 97019, Note_off_c, 0, 62, 43
1, 97055, Note_off_c, 0, 77, 42
1, 97115, Control_c, 0, 67, 122
1, 97128, Note_off_c, 0, 71, 34
1, 97152, Control_c, 0, 67, 118
1, 97228, Control_c, 0, 67, 113
1, 97283, Control_c, 0, 67, 109
1, 97321, Control_c, 0, 67, 104
1, 97358, Control_c, 0, 67, 97
1, 97376, Control_c, 0, 67, 92
1, 97396, Control_c, 0, 67, 87
1, 97414, Control_c, 0, 67, 81
1, 97431, Control_c, 0, 67, 75
1, 97451, Control_c, 0, 67, 69
1, 97469, Control_c, 0, 67, 62
1, 97489, Control_c, 0, 67, 56
1, 97507, Control_c, 0, 67, 51
1, 97525, Control_c, 0, 67, 46
1, 97545, Control_c, 0, 67, 42
1, 97562, Control_c, 0, 67, 38
1, 97601, Control_c, 0, 67, 32
1, 97631, Note_on_c, 0, 77, 55
1, 97633, Note_on_c, 0, 80, 56
1, 97635, Note_on_c, 0, 62, 48
1, 97657, Note_on_c, 0, 71, 31
1, 97673, Note_off_c, 0, 62, 57
1, 97674, Control_c, 0, 67, 28
1, 97678, Note_off_c, 0, 77, 62
1, 97680, Note_off_c, 0, 80, 60
1, 97706, Note_off_c, 0, 71, 45
1, 97840, Note_on_c, 0, 71, 57
1, 97841, Note_on_c, 0, 76, 63
1, 97844, Note_on_c, 0, 80, 63
1, 97862, Note_on_c, 0, 63, 46
1, 97893, Note_off_c, 0, 80, 57
1, 97895, Note_off_c, 0, 71, 58
1, 97901, Note_off_c, 0, 63, 62
1, 97917, Note_off_c, 0, 76, 61
1, 98016, Note_on_c, 0, 80, 77
1, 98018, Note_on_c, 0, 75, 74
1, 98024, Note_on_c, 0, 64, 57
1, 98030, Note_on_c, 0, 71, 62
1, 98056, Note_off_c, 0, 64, 61
1, 98069, Note_off_c, 0, 71, 65
1, 98077, Note_off_c, 0, 75, 49
1, 98086, Note_off_c, 0, 80, 59
1, 98188, Note_on_c, 0, 74, 73
1, 98195, Note_on_c, 0, 65, 61
1, 98196, Note_on_c, 0, 71, 59
1, 98197, Note_on_c, 0, 80, 69
1, 98217, Note_off_c, 0, 74, 69
1, 98230, Note_off_c, 0, 71, 62
1, 98233, Note_off_c, 0, 65, 67
1, 98241, Note_off_c, 0, 80, 57
1, 98368, Note_on_c, 0, 80, 69
1, 98371, Note_on_c, 0, 83, 61
1, 98377, Note_on_c, 0, 65, 57
1, 98378, Note_on_c, 0, 74, 57
1, 98409, Note_off_c, 0, 80, 61
1, 98413, Note_off_c, 0, 83, 60
1, 98415, Note_off_c, 0, 65, 66
1, 98420, Note_off_c, 0, 74, 65
1, 98630, Note_on_c, 0, 66, 47
1, 98633, Note_on_c, 0, 79, 49
1, 98641, Note_on_c, 0, 83, 42
1, 98653, Note_on_c, 0, 74, 47
1, 98682, Note_off_c, 0, 66, 64
1, 98718, Note_on_c, 0, 67, 55
1, 98732, Note_on_c, 0, 78, 52
1, 98743, Note_off_c, 0, 79, 56
1, 98767, Note_off_c, 0, 74, 36
1, 98785, Note_off_c, 0, 67, 62
1, 98824, Note_off_c, 0, 78, 62
1, 98824, Note_on_c, 0, 68, 49
1, 98834, Note_on_c, 0, 77, 60
1, 98838, Note_off_c, 0, 83, 46
1, 98864, Note_off_c, 0, 68, 66
1, 98879, Note_off_c, 0, 77, 58
1, 99140, Note_on_c, 0, 77, 64
1, 99142, Note_on_c, 0, 68, 57
1, 99149, Note_on_c, 0, 86, 55
1, 99150, Note_on_c, 0, 83, 57
1, 99194, Note_off_c, 0, 83, 64
1, 99197, Note_off_c, 0, 77, 53
1, 99199, Note_off_c, 0, 68, 54
1, 99205, Note_off_c, 0, 86, 59
1, 99221, Note_on_c, 0, 81, 61
1, 99232, Note_on_c, 0, 69, 49
1, 99258, Note_off_c, 0, 81, 66
1, 99275, Note_off_c, 0, 69, 64
1, 99302, Note_on_c, 0, 70, 61
1, 99302, Note_on_c, 0, 82, 56
1, 99340, Note_off_c, 0, 82, 64
1, 99342, Note_off_c, 0, 70, 73
1, 99378, Note_on_c, 0, 80, 65
1, 99383, Note_on_c, 0, 71, 54
1, 99414, Note_off_c, 0, 71, 61
1, 99457, Note_off_c, 0, 80, 63
1, 99472, Note_on_c, 0, 85, 52
1, 99473, Note_off_c, 0, 85, 127
1, 99479, Note_on_c, 0, 71, 46
1, 99483, Note_on_c, 0, 79, 37
1, 99506, Note_on_c, 0, 86, 55
1, 99510, Note_on_c, 0, 89, 45
1, 99518, Note_off_c, 0, 71, 54
1, 99524, Note_off_c, 0, 79, 36
1, 99544, Note_off_c, 0, 86, 65
1, 99550, Note_on_c, 0, 72, 62
1, 99554, Note_off_c, 0, 89, 57
1, 99573, Note_on_c, 0, 84, 26
1, 99591, Note_on_c, 0, 83, 20
1, 99599, Note_off_c, 0, 72, 64
1, 99603, Note_on_c, 0, 85, 66
1, 99614, Note_on_c, 0, 73, 65
1, 99631, Note_off_c, 0, 84, 47
1, 99637, Note_off_c, 0, 85, 68
1, 99661, Note_off_c, 0, 73, 66
1, 99686, Note_on_c, 0, 74, 64
1, 99709, Note_off_c, 0, 83, 64
1, 99709, Note_on_c, 0, 83, 26
1, 99717, Note_off_c, 0, 74, 67
1, 99756, Note_on_c, 0, 92, 67
1, 99773, Note_on_c, 0, 89, 65
1, 99775, Note_on_c, 0, 74, 61
1, 99783, Note_off_c, 0, 92, 65
1, 99785, Note_off_c, 0, 83, 63
1, 99811, Note_off_c, 0, 89, 63
1, 99818, Note_off_c, 0, 74, 56
1, 99837, Note_on_c, 0, 75, 70
1, 99837, Note_on_c, 0, 87, 69
1, 99870, Note_off_c, 0, 87, 67
1, 99902, Note_on_c, 0, 88, 51
1, 99906, Note_on_c, 0, 76, 64
1, 99910, Note_off_c, 0, 75, 40
1, 99945, Note_off_c, 0, 76, 66
1, 99946, Note_off_c, 0, 88, 65
1, 99950, Note_on_c, 0, 86, 73
1, 99984, Note_off_c, 0, 86, 65
1, 99989, Note_on_c, 0, 77, 58
1, 100026, Note_on_c, 0, 86, 60
1, 100040, Note_on_c, 0, 92, 74
1, 100047, Note_on_c, 0, 95, 59
1, 100067, Note_off_c, 0, 92, 72
1, 100072, Note_off_c, 0, 86, 60
1, 100077, Note_off_c, 0, 95, 58
1, 100091, Note_off_c, 0, 77, 62
1, 100092, Poly_aftertouch_c, 0, 77, 0
1, 100107, Note_on_c, 0, 90, 77
1, 100110, Note_on_c, 0, 78, 70
1, 100151, Note_off_c, 0, 78, 65
1, 100172, Note_off_c, 0, 90, 63
1, 100186, Note_on_c, 0, 79, 70
1, 100190, Note_on_c, 0, 91, 56
1, 100223, Note_off_c, 0, 79, 60
1, 100227, Note_off_c, 0, 91, 67
1, 100234, Note_on_c, 0, 89, 73
1, 100264, Note_off_c, 0, 89, 71
1, 100266, Note_on_c, 0, 80, 77
1, 100290, Note_off_c, 0, 80, 72
1, 100317, Note_on_c, 0, 98, 84
1, 100322, Note_on_c, 0, 89, 75
1, 100326, Note_on_c, 0, 95, 79
1, 100345, Note_on_c, 0, 80, 64
1, 100357, Note_off_c, 0, 89, 61
1, 100381, Note_off_c, 0, 95, 57
1, 100399, Note_off_c, 0, 98, 63
1, 100402, Note_on_c, 0, 93, 58
1, 100414, Note_on_c, 0, 81, 56
1, 100422, Note_on_c, 0, 91, 52
1, 100429, Note_off_c, 0, 93, 61
1, 100457, Note_off_c, 0, 91, 35
1, 100458, Note_off_c, 0, 81, 66
1, 100458, Note_off_c, 0, 80, 63
1, 100467, Note_on_c, 0, 94, 73
1, 100468, Note_on_c, 0, 82, 77
1, 100525, Note_off_c, 0, 94, 63
1, 100532, Note_off_c, 0, 82, 62
1, 100557, Note_on_c, 0, 83, 49
1, 100562, Note_on_c, 0, 92, 62
1, 100585, Note_off_c, 0, 92, 65
1, 100591, Note_off_c, 0, 83, 56
1, 100604, Note_on_c, 0, 80, 68
1, 100609, Note_on_c, 0, 89, 58
1, 100617, Note_on_c, 0, 98, 65
1, 100619, Note_on_c, 0, 95, 72
1, 100654, Note_off_c, 0, 89, 62
1, 100656, Note_off_c, 0, 80, 58
1, 100676, Note_off_c, 0, 98, 51
1, 100687, Note_off_c, 0, 95, 62
1, 100695, Note_on_c, 0, 81, 36
1, 100697, Note_on_c, 0, 93, 70
1, 100729, Note_off_c, 0, 93, 70
1, 100737, Note_on_c, 0, 82, 62
1, 100738, Note_off_c, 0, 81, 54
1, 100770, Note_on_c, 0, 94, 68
1, 100804, Note_off_c, 0, 82, 62
1, 100838, Note_off_c, 0, 94, 63
1, 100848, Note_on_c, 0, 83, 58
1, 100861, Note_on_c, 0, 92, 56
1, 100884, Note_off_c, 0, 92, 64
1, 100891, Note_off_c, 0, 83, 63
1, 100913, Note_on_c, 0, 80, 58
1, 100917, Note_on_c, 0, 89, 46
1, 100920, Note_on_c, 0, 98, 49
1, 100931, Note_on_c, 0, 95, 54
1, 100964, Note_off_c, 0, 80, 59
1, 100970, Note_off_c, 0, 95, 55
1, 100971, Note_off_c, 0, 89, 48
1, 100974, Note_off_c, 0, 98, 47
1, 100986, Note_on_c, 0, 93, 66
1, 101001, Note_on_c, 0, 81, 54
1, 101023, Note_off_c, 0, 93, 67
1, 101050, Note_off_c, 0, 81, 62
1, 101062, Note_on_c, 0, 94, 63
1, 101087, Note_on_c, 0, 82, 57
1, 101116, Note_off_c, 0, 94, 58
1, 101131, Note_off_c, 0, 82, 64
1, 101150, Note_on_c, 0, 92, 61
1, 101182, Note_on_c, 0, 83, 47
1, 101187, Note_off_c, 0, 92, 67
1, 101229, Note_on_c, 0, 98, 48
1, 101229, Control_c, 0, 67, 21
1, 101230, Note_on_c, 0, 89, 46
1, 101230, Note_on_c, 0, 95, 59
1, 101231, Note_off_c, 0, 83, 58
1, 101242, Note_on_c, 0, 80, 43
1, 101265, Control_c, 0, 67, 0
1, 101274, Note_off_c, 0, 98, 49
1, 101279, Note_off_c, 0, 95, 62
1, 101280, Note_off_c, 0, 80, 58
1, 101288, Note_off_c, 0, 89, 45
1, 101299, Note_on_c, 0, 93, 65
1, 101304, Note_on_c, 0, 81, 54
1, 101336, Note_off_c, 0, 93, 67
1, 101358, Note_off_c, 0, 81, 60
1, 101379, Note_on_c, 0, 94, 66
1, 101387, Note_on_c, 0, 82, 65
1, 101417, Note_off_c, 0, 82, 69
1, 101432, Note_off_c, 0, 94, 60
1, 101453, Note_on_c, 0, 92, 60
1, 101455, Note_on_c, 0, 83, 37
1, 101480, Note_off_c, 0, 92, 66
1, 101499, Note_off_c, 0, 83, 54
1, 101675, Note_on_c, 0, 101, 82
1, 101677, Note_on_c, 0, 98, 83
1, 101684, Note_on_c, 0, 95, 84
1, 101723, Note_off_c, 0, 101, 58
1, 101742, Note_off_c, 0, 95, 64
1, 101742, Note_off_c, 0, 98, 61
1, 101754, Note_on_c, 0, 97, 78
1, 101769, Note_on_c, 0, 94, 68
1, 101817, Note_off_c, 0, 94, 62
1, 101826, Note_off_c, 0, 97, 63
1, 101831, Note_on_c, 0, 101, 62
1, 101840, Note_on_c, 0, 98, 46
1, 101857, Note_on_c, 0, 95, 55
1, 101872, Note_off_c, 0, 98, 59
1, 101876, Note_off_c, 0, 101, 62
1, 101884, Note_off_c, 0, 95, 60
1, 101891, Note_on_c, 0, 96, 66
1, 101896, Note_on_c, 0, 93, 64
1, 101922, Note_off_c, 0, 93, 66
1, 101929, Note_off_c, 0, 96, 63
1, 101978, Note_on_c, 0, 98, 68
1, 101980, Note_on_c, 0, 95, 69
1, 101983, Note_on_c, 0, 92, 67
1, 102028, Note_off_c, 0, 98, 57
1, 102041, Note_off_c, 0, 95, 64
1, 102052, Note_on_c, 0, 94, 71
1, 102116, Note_off_c, 0, 94, 61
1, 102142, Note_on_c, 0, 98, 53
1, 102173, Note_off_c, 0, 92, 62
1, 102174, Note_off_c, 0, 98, 61
1, 102188, Note_on_c, 0, 93, 68
1, 102193, Note_on_c, 0, 90, 64
1, 102222, Note_off_c, 0, 93, 68
1, 102223, Poly_aftertouch_c, 0, 95, 127
1, 102226, Note_off_c, 0, 90, 69
1, 102264, Note_on_c, 0, 95, 58
1, 102286, Note_on_c, 0, 92, 69
1, 102292, Note_on_c, 0, 89, 66
1, 102326, Note_off_c, 0, 92, 65
1, 102326, Note_off_c, 0, 89, 69
1, 102330, Note_off_c, 0, 95, 62
1, 102330, Poly_aftertouch_c, 0, 95, 0
1, 102341, Note_on_c, 0, 88, 64
1, 102341, Note_on_c, 0, 91, 72
1, 102399, Note_off_c, 0, 88, 63
1, 102405, Control_c, 0, 67, 9
1, 102412, Note_off_c, 0, 91, 56
1, 102425, Control_c, 0, 67, 16
1, 102432, Note_on_c, 0, 89, 67
1, 102434, Note_on_c, 0, 92, 65
1, 102443, Note_on_c, 0, 95, 53
1, 102443, Control_c, 0, 67, 26
1, 102461, Note_off_c, 0, 89, 65
1, 102461, Control_c, 0, 67, 40
1, 102469, Note_off_c, 0, 92, 68
1, 102476, Note_off_c, 0, 95, 59
1, 102476, Poly_aftertouch_c, 0, 95, 0
1, 102480, Control_c, 0, 67, 54
1, 102494, Note_on_c, 0, 90, 64
1, 102499, Control_c, 0, 67, 66
1, 102502, Note_on_c, 0, 87, 66
1, 102520, Control_c, 0, 67, 74
1, 102527, Note_off_c, 0, 90, 67
1, 102533, Note_off_c, 0, 87, 70
1, 102536, Control_c, 0, 67, 79
1, 102567, Note_on_c, 0, 89, 60
1, 102585, Note_on_c, 0, 86, 71
1, 102590, Note_on_c, 0, 92, 50
1, 102622, Note_off_c, 0, 86, 61
1, 102623, Note_off_c, 0, 92, 61
1, 102637, Note_off_c, 0, 89, 64
1, 102641, Note_on_c, 0, 88, 57
1, 102654, Note_on_c, 0, 85, 66
1, 102692, Note_off_c, 0, 85, 61
1, 102712, Note_off_c, 0, 88, 63
1, 102723, Note_on_c, 0, 89, 51
1, 102725, Note_on_c, 0, 92, 66
1, 102732, Note_on_c, 0, 86, 65
1, 102761, Note_off_c, 0, 89, 56
1, 102764, Note_off_c, 0, 86, 69
1, 102764, Note_off_c, 0, 92, 66
1, 102781, Note_on_c, 0, 87, 67
1, 102796, Note_on_c, 0, 84, 65
1, 102813, Note_off_c, 0, 87, 69
1, 102817, Note_off_c, 0, 84, 66
1, 102859, Note_on_c, 0, 86, 83
1, 102864, Note_on_c, 0, 89, 68
1, 102881, Note_on_c, 0, 83, 72
1, 102912, Note_off_c, 0, 89, 52
1, 102914, Note_off_c, 0, 83, 66
1, 102925, Note_off_c, 0, 86, 60
1, 102934, Note_on_c, 0, 85, 77
1, 102956, Note_on_c, 0, 82, 61
1, 103003, Note_off_c, 0, 82, 62
1, 103005, Note_off_c, 0, 85, 64
1, 103013, Note_on_c, 0, 86, 54
1, 103020, Note_on_c, 0, 89, 64
1, 103028, Note_on_c, 0, 83, 63
1, 103042, Note_off_c, 0, 86, 62
1, 103053, Note_off_c, 0, 83, 66
1, 103054, Note_off_c, 0, 89, 68
1, 103069, Note_on_c, 0, 84, 66
1, 103076, Note_on_c, 0, 81, 61
1, 103101, Note_off_c, 0, 81, 63
1, 103105, Note_off_c, 0, 84, 64
1, 103147, Note_on_c, 0, 83, 70
1, 103148, Note_on_c, 0, 86, 67
1, 103158, Note_on_c, 0, 80, 75
1, 103195, Note_off_c, 0, 86, 57
1, 103207, Note_off_c, 0, 83, 63
1, 103216, Note_on_c, 0, 82, 77
1, 103224, Note_on_c, 0, 79, 59
1, 103236, Note_off_c, 0, 80, 41
1, 103275, Note_off_c, 0, 79, 57
1, 103289, Note_off_c, 0, 82, 64
1, 103291, Note_on_c, 0, 80, 60
1, 103301, Note_on_c, 0, 83, 55
1, 103303, Note_on_c, 0, 86, 64
1, 103331, Note_off_c, 0, 80, 67
1, 103331, Note_off_c, 0, 83, 61
1, 103338, Note_off_c, 0, 86, 69
1, 103348, Note_on_c, 0, 81, 71
1, 103362, Note_on_c, 0, 78, 64
1, 103383, Note_off_c, 0, 81, 63
1, 103396, Note_off_c, 0, 78, 70
1, 103436, Note_on_c, 0, 83, 54
1, 103446, Note_on_c, 0, 80, 70
1, 103447, Note_on_c, 0, 77, 72
1, 103475, Note_off_c, 0, 83, 66
1, 103484, Note_off_c, 0, 77, 61
1, 103510, Note_off_c, 0, 80, 65
1, 103510, Note_on_c, 0, 76, 66
1, 103515, Note_on_c, 0, 79, 66
1, 103554, Note_off_c, 0, 76, 61
1, 103558, Note_off_c, 0, 79, 49
1, 103582, Note_on_c, 0, 80, 57
1, 103588, Note_on_c, 0, 83, 56
1, 103599, Note_on_c, 0, 77, 61
1, 103615, Note_off_c, 0, 83, 62
1, 103621, Note_off_c, 0, 80, 66
1, 103624, Note_off_c, 0, 77, 63
1, 103648, Note_on_c, 0, 78, 71
1, 103675, Note_off_c, 0, 78, 71
1, 103719, Note_on_c, 0, 74, 6
1, 103727, Note_on_c, 0, 77, 71
1, 103752, Note_on_c, 0, 80, 56
1, 103782, Note_off_c, 0, 77, 60
1, 103791, Note_off_c, 0, 80, 68
1, 103792, Note_off_c, 0, 74, 59
1, 103802, Note_on_c, 0, 76, 70
1, 103829, Note_on_c, 0, 73, 59
1, 103869, Note_off_c, 0, 73, 68
1, 103874, Note_off_c, 0, 76, 63
1, 103877, Note_on_c, 0, 77, 60
1, 103897, Note_on_c, 0, 74, 65
1, 103911, Note_on_c, 0, 80, 38
1, 103918, Note_off_c, 0, 77, 66
1, 103932, Note_off_c, 0, 74, 69
1, 103950, Note_off_c, 0, 80, 52
1, 103950, Note_on_c, 0, 75, 39
1, 103951, Note_off_c, 0, 75, 127
1, 103966, Note_on_c, 0, 72, 61
1, 104005, Note_off_c, 0, 72, 64
1, 104029, Note_on_c, 0, 77, 70
1, 104034, Note_on_c, 0, 80, 66
1, 104036, Note_on_c, 0, 74, 69
1, 104064, Note_off_c, 0, 77, 64
1, 104066, Note_off_c, 0, 80, 67
1, 104068, Control_c, 0, 67, 75
1, 104078, Note_off_c, 0, 74, 62
1, 104106, Note_on_c, 0, 76, 64
1, 104115, Note_on_c, 0, 73, 70
1, 104140, Note_off_c, 0, 76, 68
1, 104146, Note_off_c, 0, 73, 67
1, 104167, Note_on_c, 0, 80, 77
1, 104184, Note_on_c, 0, 74, 81
1, 104193, Note_on_c, 0, 77, 52
1, 104219, Note_off_c, 0, 80, 51
1, 104221, Note_off_c, 0, 74, 61
1, 104222, Note_off_c, 0, 77, 60
1, 104228, Note_on_c, 0, 76, 76
1, 104238, Control_c, 0, 67, 70
1, 104257, Note_on_c, 0, 73, 80
1, 104275, Control_c, 0, 67, 63
1, 104281, Note_off_c, 0, 76, 64
1, 104286, Note_off_c, 0, 73, 68
1, 104294, Control_c, 0, 67, 58
1, 104306, Note_on_c, 0, 80, 73
1, 104309, Note_on_c, 0, 77, 80
1, 104313, Control_c, 0, 67, 52
1, 104327, Note_on_c, 0, 74, 87
1, 104331, Control_c, 0, 67, 46
1, 104336, Note_off_c, 0, 80, 62
1, 104347, Note_off_c, 0, 77, 59
1, 104350, Control_c, 0, 67, 42
1, 104365, Note_off_c, 0, 74, 60
1, 104377, Note_on_c, 0, 76, 82
1, 104395, Note_on_c, 0, 73, 78
1, 104423, Note_off_c, 0, 73, 64
1, 104438, Note_off_c, 0, 76, 64
1, 104448, Note_on_c, 0, 80, 79
1, 104460, Note_on_c, 0, 74, 84
1, 104463, Note_on_c, 0, 77, 65
1, 104479, Note_off_c, 0, 80, 65
1, 104484, Note_off_c, 0, 77, 64
1, 104501, Note_off_c, 0, 74, 59
1, 104525, Note_on_c, 0, 76, 75
1, 104535, Note_on_c, 0, 73, 73
1, 104563, Note_off_c, 0, 73, 72
1, 104574, Note_off_c, 0, 76, 62
1, 104598, Note_on_c, 0, 77, 70
1, 104600, Note_on_c, 0, 80, 69
1, 104606, Note_on_c, 0, 74, 82
1, 104634, Note_off_c, 0, 74, 68
1, 104636, Note_off_c, 0, 80, 60
1, 104641, Note_off_c, 0, 77, 57
1, 104685, Note_on_c, 0, 73, 58
1, 104685, Note_on_c, 0, 76, 73
1, 104714, Note_off_c, 0, 73, 66
1, 104720, Note_off_c, 0, 76, 61
1, 104753, Note_on_c, 0, 74, 69
1, 104757, Note_on_c, 0, 80, 62
1, 104764, Note_on_c, 0, 77, 54
1, 104785, Note_off_c, 0, 74, 68
1, 104792, Note_off_c, 0, 77, 60
1, 104792, Note_off_c, 0, 80, 65
1, 104816, Note_on_c, 0, 73, 61
1, 104831, Note_on_c, 0, 76, 73
1, 104852, Note_off_c, 0, 73, 70
1, 104868, Note_off_c, 0, 76, 62
1, 104893, Note_on_c, 0, 80, 62
1, 104893, Note_on_c, 0, 77, 69
1, 104905, Note_on_c, 0, 74, 62
1, 104930, Note_off_c, 0, 74, 64
1, 104931, Note_off_c, 0, 80, 66
1, 104944, Note_off_c, 0, 77, 58
1, 104968, Note_on_c, 0, 73, 54
1, 104983, Note_on_c, 0, 76, 71
1, 104997, Note_off_c, 0, 73, 64
1, 105020, Note_off_c, 0, 76, 59
1, 105033, Note_on_c, 0, 74, 60
1, 105056, Note_on_c, 0, 77, 62
1, 105059, Note_on_c, 0, 80, 49
1, 105067, Note_off_c, 0, 74, 64
1, 105086, Note_off_c, 0, 80, 59
1, 105093, Note_off_c, 0, 77, 65
1, 105103, Note_on_c, 0, 73, 60
1, 105128, Note_on_c, 0, 76, 70
1, 105150, Note_off_c, 0, 73, 61
1, 105175, Note_off_c, 0, 76, 60
1, 105191, Note_on_c, 0, 80, 62
1, 105193, Note_on_c, 0, 74, 58
1, 105232, Note_on_c, 0, 77, 39
1, 105268, Note_off_c, 0, 74, 61
1, 105268, Note_on_c, 0, 78, 67
1, 105270, Note_off_c, 0, 77, 51
1, 105275, Note_off_c, 0, 80, 62
1, 105303, Note_off_c, 0, 78, 68
1, 105352, Note_on_c, 0, 77, 73
1, 105379, Control_c, 0, 67, 32
1, 105386, Note_off_c, 0, 77, 65
1, 105398, Control_c, 0, 67, 18
1, 105411, Note_on_c, 0, 78, 73
1, 105416, Control_c, 0, 67, 0
1, 105446, Note_off_c, 0, 78, 58
1, 105477, Note_on_c, 0, 77, 82
1, 105527, Note_off_c, 0, 77, 59
1, 105544, Note_on_c, 0, 78, 82
1, 105611, Note_off_c, 0, 78, 61
1, 105622, Note_on_c, 0, 77, 78
1, 105664, Note_off_c, 0, 77, 62
1, 105687, Note_on_c, 0, 78, 66
1, 105735, Note_off_c, 0, 78, 58
1, 105776, Note_on_c, 0, 77, 70
1, 105806, Note_off_c, 0, 77, 67
1, 105858, Note_on_c, 0, 78, 53
1, 105887, Note_off_c, 0, 78, 62
1, 105924, Note_on_c, 0, 77, 64
1, 105957, Note_off_c, 0, 77, 67
1, 105984, Note_on_c, 0, 78, 64
1, 106026, Note_off_c, 0, 78, 61
1, 106073, Note_on_c, 0, 77, 60
1, 106111, Note_off_c, 0, 77, 64
1, 106160, Note_on_c, 0, 78, 53
1, 106193, Note_off_c, 0, 78, 63
1, 106235, Note_on_c, 0, 77, 53
1, 106279, Note_off_c, 0, 77, 64
1, 106308, Note_on_c, 0, 78, 51
1, 106358, Note_off_c, 0, 78, 63
1, 106418, Note_on_c, 0, 77, 49
1, 106469, Note_off_c, 0, 77, 63
1, 106504, Note_on_c, 0, 78, 48
1, 106568, Note_off_c, 0, 78, 59
1, 106594, Control_c, 0, 64, 27
1, 106613, Control_c, 0, 64, 46
1, 106631, Control_c, 0, 64, 58
1, 106645, Note_on_c, 0, 77, 39
1, 106650, Control_c, 0, 64, 66
1, 106669, Control_c, 0, 64, 76
1, 106688, Control_c, 0, 64, 94
1, 106706, Control_c, 0, 64, 127
1, 106722, Note_off_c, 0, 77, 55
1, 106770, Note_on_c, 0, 78, 52
1, 106815, Note_off_c, 0, 78, 66
1, 106976, Note_on_c, 0, 62, 39
1, 107042, Control_c, 0, 64, 99
1, 107062, Note_on_c, 0, 67, 40
1, 107062, Control_c, 0, 64, 80
1, 107079, Control_c, 0, 64, 65
1, 107082, Note_on_c, 0, 76, 46
1, 107084, Note_on_c, 0, 70, 55
1, 107099, Control_c, 0, 64, 56
1, 107155, Control_c, 0, 64, 61
1, 107174, Control_c, 0, 64, 69
1, 107182, Note_off_c, 0, 67, 56
1, 107191, Control_c, 0, 64, 84
1, 107200, Note_on_c, 0, 78, 40
1, 107209, Control_c, 0, 64, 114
1, 107229, Control_c, 0, 64, 127
1, 107245, Note_off_c, 0, 70, 64
1, 107311, Note_off_c, 0, 78, 58
1, 107338, Note_on_c, 0, 71, 77
1, 107346, Note_on_c, 0, 68, 61
1, 107387, Note_off_c, 0, 68, 62
1, 107419, Note_off_c, 0, 71, 58
1, 107454, Note_off_c, 0, 76, 50
1, 107455, Note_on_c, 0, 78, 58
1, 107507, Note_off_c, 0, 78, 57
1, 107509, Control_c, 0, 64, 105
1, 107529, Control_c, 0, 64, 77
1, 107531, Note_on_c, 0, 68, 61
1, 107537, Note_on_c, 0, 72, 80
1, 107546, Note_on_c, 0, 76, 63
1, 107548, Control_c, 0, 64, 58
1, 107556, Note_on_c, 0, 61, 48
1, 107566, Note_off_c, 0, 62, 41
1, 107566, Control_c, 0, 64, 47
1, 107585, Control_c, 0, 64, 49
1, 107603, Control_c, 0, 64, 55
1, 107623, Control_c, 0, 64, 64
1, 107640, Control_c, 0, 64, 77
1, 107641, Note_on_c, 0, 78, 69
1, 107651, Note_off_c, 0, 61, 42
1, 107653, Note_off_c, 0, 72, 60
1, 107657, Note_off_c, 0, 76, 60
1, 107658, Control_c, 0, 64, 105
1, 107660, Note_off_c, 0, 68, 61
1, 107679, Control_c, 0, 64, 127
1, 107702, Note_on_c, 0, 69, 70
1, 107711, Note_on_c, 0, 73, 78
1, 107713, Note_on_c, 0, 76, 59
1, 107723, Note_off_c, 0, 78, 63
1, 107744, Note_off_c, 0, 69, 65
1, 107769, Note_off_c, 0, 73, 62
1, 107794, Note_on_c, 0, 78, 62
1, 107796, Note_off_c, 0, 76, 64
1, 107860, Note_off_c, 0, 78, 44
1, 107865, Control_c, 0, 64, 103
1, 107873, Note_on_c, 0, 76, 68
1, 107875, Note_on_c, 0, 56, 64
1, 107876, Note_on_c, 0, 70, 70
1, 107880, Note_on_c, 0, 73, 72
1, 107885, Control_c, 0, 64, 67
1, 107903, Control_c, 0, 64, 35
1, 107922, Control_c, 0, 64, 17
1, 107931, Note_off_c, 0, 56, 62
1, 107933, Note_off_c, 0, 73, 54
1, 107940, Control_c, 0, 64, 24
1, 107945, Note_off_c, 0, 76, 63
1, 107956, Note_on_c, 0, 78, 65
1, 107959, Control_c, 0, 64, 40
1, 107961, Note_off_c, 0, 70, 62
1, 107977, Control_c, 0, 64, 58
1, 107997, Control_c, 0, 64, 70
1, 108000, Note_off_c, 0, 78, 62
1, 108015, Control_c, 0, 64, 89
1, 108031, Note_on_c, 0, 74, 51
1, 108031, Note_on_c, 0, 76, 54
1, 108034, Control_c, 0, 64, 127
1, 108038, Note_on_c, 0, 71, 57
1, 108064, Note_off_c, 0, 74, 57
1, 108086, Note_off_c, 0, 76, 65
1, 108102, Note_on_c, 0, 78, 63
1, 108103, Note_off_c, 0, 71, 53
1, 108128, Note_off_c, 0, 78, 65
1, 108194, Note_on_c, 0, 76, 60
1, 108197, Note_on_c, 0, 73, 50
1, 108202, Control_c, 0, 64, 103
1, 108208, Note_on_c, 0, 64, 44
1, 108213, Note_on_c, 0, 57, 55
1, 108221, Control_c, 0, 64, 67
1, 108237, Note_off_c, 0, 76, 65
1, 108238, Control_c, 0, 64, 19
1, 108243, Note_off_c, 0, 57, 59
1, 108246, Note_off_c, 0, 64, 50
1, 108249, Note_off_c, 0, 73, 58
1, 108252, Note_on_c, 0, 78, 62
1, 108258, Control_c, 0, 64, 0
1, 108313, Note_off_c, 0, 78, 63
1, 108363, Note_on_c, 0, 85, 80
1, 108373, Note_on_c, 0, 76, 69
1, 108409, Note_off_c, 0, 76, 69
1, 108432, Note_off_c, 0, 85, 64
1, 108446, Note_on_c, 0, 78, 67
1, 108477, Note_off_c, 0, 78, 70
1, 108480, Note_on_c, 0, 73, 54
1, 108510, Note_off_c, 0, 73, 58
1, 108528, Note_on_c, 0, 76, 76
1, 108540, Note_on_c, 0, 57, 27
1, 108540, Note_on_c, 0, 64, 50
1, 108541, Note_on_c, 0, 83, 60
1, 108561, Note_on_c, 0, 52, 41
1, 108581, Note_off_c, 0, 83, 63
1, 108589, Note_off_c, 0, 76, 58
1, 108608, Note_on_c, 0, 78, 69
1, 108609, Note_off_c, 0, 52, 56
1, 108623, Note_on_c, 0, 73, 66
1, 108650, Note_off_c, 0, 78, 63
1, 108677, Note_off_c, 0, 73, 51
1, 108702, Note_on_c, 0, 81, 64
1, 108707, Note_on_c, 0, 76, 66
1, 108738, Note_off_c, 0, 81, 64
1, 108747, Note_off_c, 0, 76, 67
1, 108784, Note_on_c, 0, 73, 54
1, 108793, Note_on_c, 0, 78, 32
1, 108814, Note_off_c, 0, 73, 60
1, 108838, Note_off_c, 0, 78, 31
1, 108857, Note_on_c, 0, 81, 67
1, 108858, Note_off_c, 0, 57, 53
1, 108862, Note_off_c, 0, 64, 45
1, 108863, Note_on_c, 0, 52, 46
1, 108865, Note_on_c, 0, 74, 73
1, 108870, Note_on_c, 0, 59, 55
1, 108888, Note_off_c, 0, 81, 67
1, 108906, Note_off_c, 0, 74, 59
1, 108916, Note_off_c, 0, 59, 60
1, 108942, Note_on_c, 0, 71, 62
1, 108954, Note_on_c, 0, 76, 56
1, 108986, Note_off_c, 0, 71, 60
1, 108995, Note_off_c, 0, 76, 61
1, 109022, Note_on_c, 0, 74, 74
1, 109023, Note_on_c, 0, 80, 65
1, 109057, Note_off_c, 0, 74, 62
1, 109081, Note_off_c, 0, 80, 57
1, 109100, Note_on_c, 0, 76, 56
1, 109122, Note_on_c, 0, 71, 60
1, 109129, Note_off_c, 0, 76, 62
1, 109166, Note_off_c, 0, 71, 62
1, 109166, Poly_aftertouch_c, 0, 52, 20
1, 109171, Note_off_c, 0, 52, 41
1, 109171, Poly_aftertouch_c, 0, 52, 0
1, 109176, Note_on_c, 0, 79, 74
1, 109189, Note_on_c, 0, 59, 50
1, 109190, Note_on_c, 0, 64, 45
1, 109191, Note_on_c, 0, 56, 50
1, 109196, Note_on_c, 0, 74, 71
1, 109227, Note_off_c, 0, 74, 66
1, 109230, Note_off_c, 0, 79, 58
1, 109240, Note_off_c, 0, 64, 57
1, 109253, Note_on_c, 0, 78, 69
1, 109295, Note_off_c, 0, 78, 67
1, 109301, Note_on_c, 0, 71, 62
1, 109343, Note_on_c, 0, 77, 67
1, 109345, Note_on_c, 0, 74, 72
1, 109346, Note_off_c, 0, 71, 63
1, 109389, Note_off_c, 0, 74, 59
1, 109475, Note_on_c, 0, 71, 49
1, 109488, Note_off_c, 0, 77, 57
1, 109508, Note_off_c, 0, 71, 57
1, 109520, Note_on_c, 0, 76, 68
1, 109521, Note_on_c, 0, 64, 36
1, 109535, Note_on_c, 0, 73, 57
1, 109538, Note_on_c, 0, 57, 52
1, 109539, Note_off_c, 0, 59, 45
1, 109563, Note_off_c, 0, 56, 45
1, 109566, Note_off_c, 0, 73, 65
1, 109567, Control_c, 0, 64, 21
1, 109585, Control_c, 0, 64, 48
1, 109588, Note_off_c, 0, 57, 66
1, 109605, Control_c, 0, 64, 60
1, 109623, Control_c, 0, 64, 68
1, 109629, Note_off_c, 0, 64, 55
1, 109634, Note_on_c, 0, 69, 60
1, 109642, Control_c, 0, 64, 81
1, 109662, Control_c, 0, 64, 101
1, 109677, Note_off_c, 0, 69, 64
1, 109679, Control_c, 0, 64, 127
1, 109698, Note_on_c, 0, 73, 53
1, 109742, Note_off_c, 0, 73, 66
1, 109769, Note_off_c, 0, 76, 59
1, 109783, Note_on_c, 0, 78, 57
1, 109885, Control_c, 0, 64, 98
1, 109900, Note_off_c, 0, 78, 60
1, 109902, Control_c, 0, 64, 72
1, 109919, Note_on_c, 0, 62, 45
1, 109920, Control_c, 0, 64, 53
1, 109922, Note_on_c, 0, 76, 67
1, 109934, Note_on_c, 0, 67, 49
1, 109935, Note_on_c, 0, 70, 60
1, 109939, Control_c, 0, 64, 44
1, 109960, Control_c, 0, 64, 48
1, 109978, Control_c, 0, 64, 56
1, 109997, Control_c, 0, 64, 64
1, 110004, Note_off_c, 0, 67, 61
1, 110012, Note_off_c, 0, 70, 60
1, 110016, Control_c, 0, 64, 76
1, 110024, Note_off_c, 0, 76, 59
1, 110035, Control_c, 0, 64, 100
1, 110037, Note_on_c, 0, 78, 69
1, 110052, Control_c, 0, 64, 127
1, 110107, Note_off_c, 0, 78, 59
1, 110107, Note_on_c, 0, 71, 74
1, 110114, Note_on_c, 0, 68, 79
1, 110116, Note_on_c, 0, 76, 59
1, 110167, Note_off_c, 0, 71, 57
1, 110182, Note_off_c, 0, 68, 63
1, 110195, Note_on_c, 0, 78, 66
1, 110200, Note_off_c, 0, 76, 63
1, 110264, Note_on_c, 0, 76, 77
1, 110271, Note_on_c, 0, 72, 76
1, 110271, Note_on_c, 0, 68, 84
1, 110277, Note_off_c, 0, 78, 63
1, 110277, Control_c, 0, 64, 92
1, 110293, Note_on_c, 0, 61, 63
1, 110296, Control_c, 0, 64, 63
1, 110304, Note_off_c, 0, 62, 43
1, 110315, Control_c, 0, 64, 38
1, 110344, Note_off_c, 0, 76, 60
1, 110352, Control_c, 0, 64, 44
1, 110355, Note_off_c, 0, 72, 57
1, 110357, Note_on_c, 0, 78, 71
1, 110359, Note_off_c, 0, 61, 52
1, 110371, Control_c, 0, 64, 57
1, 110376, Note_off_c, 0, 68, 63
1, 110389, Control_c, 0, 64, 68
1, 110409, Control_c, 0, 64, 88
1, 110421, Note_on_c, 0, 69, 78
1, 110423, Note_on_c, 0, 73, 74
1, 110424, Note_on_c, 0, 76, 77
1, 110427, Control_c, 0, 64, 127
1, 110432, Note_off_c, 0, 78, 65
1, 110458, Note_off_c, 0, 73, 64
1, 110474, Note_off_c, 0, 69, 60
1, 110496, Note_on_c, 0, 78, 73
1, 110502, Note_off_c, 0, 76, 64
1, 110577, Control_c, 0, 64, 85
1, 110583, Note_on_c, 0, 73, 76
1, 110588, Note_on_c, 0, 70, 77
1, 110589, Note_off_c, 0, 78, 65
1, 110589, Note_on_c, 0, 76, 72
1, 110595, Control_c, 0, 64, 48
1, 110610, Note_on_c, 0, 56, 50
1, 110613, Control_c, 0, 64, 0
1, 110630, Note_off_c, 0, 73, 58
1, 110630, Poly_aftertouch_c, 0, 62, 0
1, 110632, Note_off_c, 0, 70, 65
1, 110651, Note_off_c, 0, 56, 66
1, 110652, Note_off_c, 0, 76, 58
1, 110652, Control_c, 0, 64, 16
1, 110663, Note_on_c, 0, 78, 66
1, 110671, Control_c, 0, 64, 41
1, 110688, Control_c, 0, 64, 62
1, 110709, Control_c, 0, 64, 77
1, 110717, Note_off_c, 0, 78, 60
1, 110726, Control_c, 0, 64, 112
1, 110737, Note_on_c, 0, 74, 44
1, 110741, Note_on_c, 0, 71, 57
1, 110744, Control_c, 0, 64, 127
1, 110751, Note_on_c, 0, 76, 52
1, 110774, Note_off_c, 0, 74, 56
1, 110781, Note_off_c, 0, 71, 65
1, 110798, Note_off_c, 0, 76, 56
1, 110805, Note_on_c, 0, 78, 70
1, 110836, Note_off_c, 0, 78, 65
1, 110893, Note_on_c, 0, 73, 49
1, 110904, Note_on_c, 0, 76, 63
1, 110908, Note_on_c, 0, 57, 57
1, 110913, Control_c, 0, 64, 85
1, 110931, Note_on_c, 0, 64, 22
1, 110931, Control_c, 0, 64, 49
1, 110936, Note_off_c, 0, 57, 62
1, 110939, Note_off_c, 0, 76, 62
1, 110942, Note_off_c, 0, 73, 55
1, 110950, Control_c, 0, 64, 0
1, 110968, Note_on_c, 0, 78, 71
1, 110991, Note_off_c, 0, 64, 39
1, 111002, Note_off_c, 0, 78, 67
1, 111056, Note_on_c, 0, 76, 77
1, 111063, Note_on_c, 0, 85, 84
1, 111102, Note_off_c, 0, 76, 56
1, 111134, Note_off_c, 0, 85, 64
1, 111137, Note_on_c, 0, 78, 67
1, 111158, Note_on_c, 0, 73, 66
1, 111173, Note_off_c, 0, 78, 66
1, 111198, Note_off_c, 0, 73, 63
1, 111217, Note_on_c, 0, 83, 70
1, 111219, Note_on_c, 0, 64, 54
1, 111221, Note_on_c, 0, 76, 77
1, 111224, Note_on_c, 0, 57, 32
1, 111237, Note_on_c, 0, 52, 49
1, 111286, Note_off_c, 0, 52, 63
1, 111286, Poly_aftertouch_c, 0, 52, 0
1, 111287, Note_off_c, 0, 83, 60
1, 111287, Note_off_c, 0, 76, 60
1, 111297, Note_on_c, 0, 78, 70
1, 111317, Note_on_c, 0, 73, 70
1, 111333, Note_off_c, 0, 78, 65
1, 111356, Note_off_c, 0, 73, 59
1, 111381, Note_on_c, 0, 81, 69
1, 111388, Note_on_c, 0, 76, 64
1, 111429, Note_off_c, 0, 76, 65
1, 111446, Note_off_c, 0, 81, 62
1, 111455, Note_on_c, 0, 78, 63
1, 111468, Note_on_c, 0, 73, 63
1, 111491, Note_off_c, 0, 78, 70
1, 111494, Note_off_c, 0, 73, 64
1, 111542, Note_on_c, 0, 81, 64
1, 111544, Note_on_c, 0, 52, 52
1, 111552, Note_on_c, 0, 74, 68
1, 111553, Note_off_c, 0, 57, 51
1, 111553, Note_on_c, 0, 59, 57
1, 111554, Note_off_c, 0, 64, 54
1, 111580, Note_off_c, 0, 81, 64
1, 111597, Note_off_c, 0, 74, 59
1, 111604, Note_off_c, 0, 59, 58
1, 111626, Note_on_c, 0, 71, 56
1, 111627, Note_on_c, 0, 76, 67
1, 111668, Note_off_c, 0, 71, 62
1, 111671, Note_off_c, 0, 76, 59
1, 111705, Note_on_c, 0, 80, 66
1, 111718, Note_on_c, 0, 74, 62
1, 111744, Note_off_c, 0, 74, 64
1, 111759, Note_off_c, 0, 80, 54
1, 111792, Note_on_c, 0, 71, 56
1, 111813, Note_on_c, 0, 76, 23
1, 111842, Note_off_c, 0, 71, 62
1, 111866, Note_on_c, 0, 64, 47
1, 111867, Note_off_c, 0, 52, 42
1, 111867, Poly_aftertouch_c, 0, 52, 0
1, 111868, Note_on_c, 0, 79, 63
1, 111872, Note_off_c, 0, 76, 30
1, 111874, Note_on_c, 0, 56, 43
1, 111875, Note_on_c, 0, 59, 45
1, 111883, Note_on_c, 0, 74, 59
1, 111901, Note_off_c, 0, 79, 65
1, 111925, Note_off_c, 0, 74, 63
1, 111927, Note_off_c, 0, 64, 58
1, 111944, Note_on_c, 0, 78, 55
1, 111979, Note_off_c, 0, 78, 65
1, 111985, Note_on_c, 0, 71, 59
1, 112025, Note_off_c, 0, 71, 64
1, 112041, Note_on_c, 0, 74, 52
1, 112047, Note_on_c, 0, 77, 57
1, 112070, Note_off_c, 0, 74, 60
1, 112129, Note_on_c, 0, 71, 55
1, 112175, Note_off_c, 0, 71, 63
1, 112177, Note_off_c, 0, 77, 55
1, 112214, Note_on_c, 0, 73, 58
1, 112221, Note_off_c, 0, 59, 39
1, 112223, Note_on_c, 0, 76, 58
1, 112231, Note_off_c, 0, 56, 40
1, 112231, Note_on_c, 0, 57, 47
1, 112233, Note_on_c, 0, 64, 36
1, 112253, Note_off_c, 0, 73, 67
1, 112278, Control_c, 0, 64, 21
1, 112292, Note_off_c, 0, 57, 61
1, 112295, Control_c, 0, 64, 48
1, 112314, Note_on_c, 0, 69, 58
1, 112314, Control_c, 0, 64, 60
1, 112334, Control_c, 0, 64, 68
1, 112350, Note_off_c, 0, 64, 58
1, 112352, Control_c, 0, 64, 79
1, 112361, Note_off_c, 0, 69, 63
1, 112372, Control_c, 0, 64, 98
1, 112392, Control_c, 0, 64, 127
1, 112399, Note_on_c, 0, 73, 58
1, 112437, Note_off_c, 0, 73, 67
1, 112453, Note_off_c, 0, 76, 62
1, 112467, Note_on_c, 0, 80, 62
1, 112502, Note_off_c, 0, 80, 65
1, 112615, Control_c, 0, 64, 100
1, 112634, Control_c, 0, 64, 69
1, 112636, Note_on_c, 0, 67, 49
1, 112649, Note_on_c, 0, 75, 65
1, 112652, Note_on_c, 0, 81, 58
1, 112653, Note_on_c, 0, 72, 52
1, 112653, Control_c, 0, 64, 42
1, 112671, Control_c, 0, 64, 29
1, 112689, Control_c, 0, 64, 33
1, 112709, Control_c, 0, 64, 43
1, 112713, Note_off_c, 0, 72, 61
1, 112727, Control_c, 0, 64, 56
1, 112729, Note_off_c, 0, 81, 61
1, 112733, Note_on_c, 0, 82, 65
1, 112735, Note_off_c, 0, 75, 62
1, 112747, Control_c, 0, 64, 66
1, 112764, Control_c, 0, 64, 82
1, 112784, Control_c, 0, 64, 117
1, 112798, Note_off_c, 0, 82, 49
1, 112801, Control_c, 0, 64, 127
1, 112815, Note_on_c, 0, 81, 74
1, 112824, Note_on_c, 0, 73, 75
1, 112829, Note_on_c, 0, 76, 74
1, 112880, Note_off_c, 0, 73, 61
1, 112880, Note_off_c, 0, 76, 59
1, 112897, Note_off_c, 0, 81, 63
1, 112914, Note_on_c, 0, 82, 72
1, 112945, Note_off_c, 0, 82, 62
1, 112987, Note_on_c, 0, 81, 79
1, 112988, Note_on_c, 0, 76, 82
1, 112988, Control_c, 0, 64, 92
1, 112993, Note_on_c, 0, 73, 82
1, 113006, Control_c, 0, 64, 61
1, 113016, Note_on_c, 0, 65, 56
1, 113026, Control_c, 0, 64, 34
1, 113044, Control_c, 0, 64, 28
1, 113046, Note_off_c, 0, 67, 45
1, 113060, Note_off_c, 0, 76, 61
1, 113062, Control_c, 0, 64, 37
1, 113065, Note_off_c, 0, 81, 62
1, 113065, Note_on_c, 0, 82, 80
1, 113069, Note_off_c, 0, 65, 60
1, 113072, Note_off_c, 0, 73, 62
1, 113081, Control_c, 0, 64, 52
1, 113102, Control_c, 0, 64, 64
1, 113119, Control_c, 0, 64, 80
1, 113128, Note_on_c, 0, 77, 84
1, 113129, Note_on_c, 0, 74, 82
1, 113138, Control_c, 0, 64, 116
1, 113142, Note_off_c, 0, 82, 63
1, 113145, Note_on_c, 0, 81, 61
1, 113156, Control_c, 0, 64, 127
1, 113186, Note_off_c, 0, 77, 61
1, 113188, Note_off_c, 0, 74, 61
1, 113212, Note_on_c, 0, 82, 65
1, 113216, Note_off_c, 0, 81, 65
1, 113284, Note_on_c, 0, 78, 79
1, 113286, Control_c, 0, 64, 80
1, 113292, Note_on_c, 0, 81, 75
1, 113296, Note_on_c, 0, 75, 88
1, 113297, Note_off_c, 0, 82, 58
1, 113305, Control_c, 0, 64, 48
1, 113320, Note_on_c, 0, 61, 59
1, 113324, Control_c, 0, 64, 24
1, 113343, Control_c, 0, 64, 30
1, 113347, Note_off_c, 0, 78, 61
1, 113357, Note_off_c, 0, 61, 66
1, 113360, Control_c, 0, 64, 46
1, 113364, Note_off_c, 0, 75, 64
1, 113371, Note_off_c, 0, 81, 55
1, 113378, Note_on_c, 0, 82, 63
1, 113380, Control_c, 0, 64, 62
1, 113401, Control_c, 0, 64, 76
1, 113418, Control_c, 0, 64, 105
1, 113437, Control_c, 0, 64, 127
1, 113438, Note_on_c, 0, 79, 77
1, 113441, Note_off_c, 0, 82, 62
1, 113445, Note_on_c, 0, 81, 59
1, 113458, Note_on_c, 0, 76, 71
1, 113476, Note_off_c, 0, 79, 56
1, 113490, Note_off_c, 0, 76, 67
1, 113507, Note_on_c, 0, 82, 72
1, 113518, Note_off_c, 0, 81, 60
1, 113536, Note_off_c, 0, 82, 69
1, 113593, Note_on_c, 0, 77, 71
1, 113606, Note_on_c, 0, 69, 60
1, 113607, Note_on_c, 0, 62, 70
1, 113612, Note_on_c, 0, 81, 67
1, 113640, Note_off_c, 0, 69, 64
1, 113642, Note_off_c, 0, 62, 66
1, 113656, Note_off_c, 0, 77, 57
1, 113661, Control_c, 0, 64, 89
1, 113668, Note_off_c, 0, 81, 55
1, 113679, Note_on_c, 0, 82, 73
1, 113679, Control_c, 0, 64, 69
1, 113699, Control_c, 0, 64, 56
1, 113718, Control_c, 0, 64, 44
1, 113723, Note_off_c, 0, 82, 59
1, 113738, Control_c, 0, 64, 35
1, 113755, Control_c, 0, 64, 9
1, 113772, Note_on_c, 0, 89, 86
1, 113772, Control_c, 0, 64, 0
1, 113776, Note_on_c, 0, 81, 72
1, 113807, Note_off_c, 0, 81, 70
1, 113845, Note_off_c, 0, 89, 61
1, 113850, Note_on_c, 0, 82, 77
1, 113859, Note_on_c, 0, 77, 68
1, 113884, Note_off_c, 0, 82, 58
1, 113894, Note_off_c, 0, 77, 64
1, 113924, Note_on_c, 0, 88, 79
1, 113926, Note_on_c, 0, 81, 77
1, 113933, Note_on_c, 0, 69, 61
1, 113936, Note_on_c, 0, 62, 41
1, 113937, Note_on_c, 0, 57, 56
1, 113977, Note_off_c, 0, 81, 56
1, 113985, Note_off_c, 0, 57, 63
1, 114001, Note_off_c, 0, 88, 61
1, 114016, Note_on_c, 0, 82, 66
1, 114022, Note_on_c, 0, 77, 68
1, 114053, Note_off_c, 0, 82, 61
1, 114058, Note_off_c, 0, 77, 68
1, 114082, Note_on_c, 0, 86, 80
1, 114089, Note_on_c, 0, 81, 75
1, 114118, Note_off_c, 0, 81, 66
1, 114159, Note_on_c, 0, 82, 59
1, 114161, Note_off_c, 0, 86, 63
1, 114186, Note_on_c, 0, 77, 56
1, 114190, Note_off_c, 0, 82, 64
1, 114214, Note_off_c, 0, 77, 60
1, 114218, Note_off_c, 0, 62, 56
1, 114237, Note_on_c, 0, 86, 70
1, 114242, Note_on_c, 0, 57, 46
1, 114243, Note_on_c, 0, 64, 56
1, 114246, Note_on_c, 0, 79, 74
1, 114279, Poly_aftertouch_c, 0, 69, 24
1, 114290, Note_off_c, 0, 64, 64
1, 114291, Note_off_c, 0, 79, 56
1, 114293, Note_off_c, 0, 86, 63
1, 114306, Note_off_c, 0, 69, 46
1, 114306, Poly_aftertouch_c, 0, 69, 0
1, 114340, Note_on_c, 0, 81, 62
1, 114346, Note_on_c, 0, 76, 62
1, 114378, Note_off_c, 0, 81, 64
1, 114392, Note_off_c, 0, 76, 62
1, 114411, Note_on_c, 0, 85, 72
1, 114422, Note_on_c, 0, 79, 71
1, 114459, Note_off_c, 0, 79, 57
1, 114475, Note_off_c, 0, 85, 58
1, 114512, Note_on_c, 0, 81, 48
1, 114514, Note_on_c, 0, 76, 63
1, 114541, Poly_aftertouch_c, 0, 57, 22
1, 114542, Note_off_c, 0, 81, 57
1, 114554, Note_off_c, 0, 57, 41
1, 114554, Note_on_c, 0, 69, 25
1, 114554, Poly_aftertouch_c, 0, 57, 0
1, 114558, Note_on_c, 0, 64, 45
1, 114559, Note_off_c, 0, 76, 62
1, 114563, Note_on_c, 0, 61, 48
1, 114570, Note_on_c, 0, 84, 62
1, 114588, Note_on_c, 0, 79, 66
1, 114610, Note_off_c, 0, 84, 60
1, 114627, Note_off_c, 0, 79, 59
1, 114647, Note_on_c, 0, 83, 55
1, 114681, Note_on_c, 0, 76, 64
1, 114685, Note_off_c, 0, 69, 32
1, 114685, Poly_aftertouch_c, 0, 69, 0
1, 114729, Note_off_c, 0, 76, 62
1, 114732, Note_off_c, 0, 83, 60
1, 114734, Note_on_c, 0, 82, 72
1, 114752, Note_on_c, 0, 79, 65
1, 114844, Note_on_c, 0, 76, 63
1, 114852, Note_off_c, 0, 79, 56
1, 114865, Note_off_c, 0, 82, 62
1, 114899, Note_off_c, 0, 76, 57
1, 114902, Poly_aftertouch_c, 0, 64, 24
1, 114923, Note_on_c, 0, 62, 52
1, 114929, Note_on_c, 0, 81, 64
1, 114936, Note_on_c, 0, 77, 49
1, 114942, Poly_aftertouch_c, 0, 69, 127
1, 114946, Note_off_c, 0, 64, 40
1, 114946, Poly_aftertouch_c, 0, 64, 0
1, 114952, Note_off_c, 0, 61, 40
1, 114969, Note_on_c, 0, 79, 33
1, 114969, Control_c, 0, 64, 29
1, 114989, Control_c, 0, 64, 50
1, 114993, Note_off_c, 0, 62, 59
1, 115008, Control_c, 0, 64, 62
1, 115016, Note_off_c, 0, 79, 33
1, 115021, Note_off_c, 0, 77, 41
1, 115026, Control_c, 0, 64, 71
1, 115034, Note_on_c, 0, 74, 68
1, 115045, Control_c, 0, 64, 83
1, 115054, Poly_aftertouch_c, 0, 69, 0
1, 115064, Control_c, 0, 64, 104
1, 115083, Control_c, 0, 64, 127
1, 115093, Note_off_c, 0, 74, 60
1, 115104, Note_on_c, 0, 77, 68
1, 115162, Note_off_c, 0, 77, 59
1, 115187, Note_off_c, 0, 81, 58
1, 115219, Note_on_c, 0, 82, 48
1, 115271, Note_off_c, 0, 82, 65
1, 115288, Control_c, 0, 64, 110
1, 115306, Control_c, 0, 64, 80
1, 115309, Note_on_c, 0, 67, 44
1, 115326, Control_c, 0, 64, 57
1, 115335, Note_on_c, 0, 72, 54
1, 115338, Note_on_c, 0, 81, 60
1, 115345, Control_c, 0, 64, 37
1, 115346, Note_on_c, 0, 75, 59
1, 115401, Control_c, 0, 64, 48
1, 115419, Note_off_c, 0, 72, 63
1, 115419, Control_c, 0, 64, 60
1, 115422, Note_off_c, 0, 81, 61
1, 115422, Note_on_c, 0, 82, 64
1, 115439, Control_c, 0, 64, 72
1, 115443, Note_off_c, 0, 75, 63
1, 115457, Control_c, 0, 64, 91
1, 115476, Control_c, 0, 64, 127
1, 115481, Note_off_c, 0, 82, 50
1, 115509, Note_on_c, 0, 81, 71
1, 115518, Note_on_c, 0, 76, 74
1, 115524, Note_on_c, 0, 73, 77
1, 115570, Note_off_c, 0, 73, 56
1, 115581, Note_off_c, 0, 81, 62
1, 115581, Note_off_c, 0, 76, 59
1, 115588, Note_on_c, 0, 82, 74
1, 115632, Note_off_c, 0, 82, 61
1, 115666, Note_on_c, 0, 76, 75
1, 115673, Note_on_c, 0, 81, 79
1, 115681, Control_c, 0, 64, 106
1, 115683, Note_on_c, 0, 73, 86
1, 115693, Note_on_c, 0, 65, 61
1, 115699, Control_c, 0, 64, 74
1, 115718, Control_c, 0, 64, 49
1, 115737, Control_c, 0, 64, 35
1, 115745, Note_off_c, 0, 67, 41
1, 115748, Note_off_c, 0, 81, 64
1, 115749, Note_on_c, 0, 82, 84
1, 115756, Control_c, 0, 64, 40
1, 115768, Note_off_c, 0, 76, 62
1, 115772, Control_c, 0, 64, 50
1, 115778, Note_off_c, 0, 73, 62
1, 115790, Note_off_c, 0, 65, 55
1, 115793, Control_c, 0, 64, 60
1, 115812, Control_c, 0, 64, 70
1, 115824, Note_on_c, 0, 77, 82
1, 115830, Control_c, 0, 64, 87
1, 115831, Note_on_c, 0, 74, 88
1, 115837, Note_off_c, 0, 82, 63
1, 115844, Note_on_c, 0, 81, 66
1, 115847, Control_c, 0, 64, 127
1, 115878, Note_off_c, 0, 77, 59
1, 115898, Note_off_c, 0, 74, 63
1, 115904, Note_on_c, 0, 82, 68
1, 115919, Note_off_c, 0, 81, 65
1, 115994, Note_on_c, 0, 78, 81
1, 115997, Note_on_c, 0, 81, 77
1, 115997, Control_c, 0, 64, 105
1, 116009, Note_on_c, 0, 75, 87
1, 116010, Note_on_c, 0, 61, 70
1, 116011, Note_off_c, 0, 82, 51
1, 116017, Control_c, 0, 64, 71
1, 116036, Control_c, 0, 64, 40
1, 116054, Control_c, 0, 64, 14
1, 116066, Note_off_c, 0, 61, 61
1, 116071, Note_off_c, 0, 78, 62
1, 116083, Note_off_c, 0, 81, 61
1, 116092, Note_on_c, 0, 82, 66
1, 116092, Control_c, 0, 64, 28
1, 116101, Note_off_c, 0, 75, 64
1, 116108, Poly_aftertouch_c, 0, 65, 0
1, 116110, Control_c, 0, 64, 46
1, 116129, Control_c, 0, 64, 62
1, 116148, Control_c, 0, 64, 76
1, 116151, Note_off_c, 0, 82, 59
1, 116151, Note_on_c, 0, 76, 82
1, 116156, Note_on_c, 0, 81, 59
1, 116157, Note_on_c, 0, 79, 74
1, 116167, Control_c, 0, 64, 97
1, 116186, Control_c, 0, 64, 127
1, 116201, Note_off_c, 0, 79, 56
1, 116212, Note_off_c, 0, 76, 66
1, 116219, Note_on_c, 0, 82, 72
1, 116234, Note_off_c, 0, 81, 63
1, 116253, Note_off_c, 0, 82, 67
1, 116308, Note_on_c, 0, 77, 79
1, 116322, Note_on_c, 0, 81, 74
1, 116324, Note_on_c, 0, 69, 69
1, 116331, Note_on_c, 0, 62, 65
1, 116335, Control_c, 0, 64, 106
1, 116354, Note_off_c, 0, 69, 66
1, 116354, Control_c, 0, 64, 74
1, 116368, Note_off_c, 0, 62, 66
1, 116372, Control_c, 0, 64, 39
1, 116374, Note_off_c, 0, 81, 58
1, 116376, Note_off_c, 0, 77, 58
1, 116391, Control_c, 0, 64, 0
1, 116397, Note_on_c, 0, 82, 73
1, 116446, Note_off_c, 0, 82, 58
1, 116479, Note_on_c, 0, 81, 84
1, 116488, Note_on_c, 0, 89, 84
1, 116511, Note_off_c, 0, 81, 60
1, 116550, Note_off_c, 0, 89, 58
1, 116555, Poly_aftertouch_c, 0, 62, 0
1, 116577, Note_on_c, 0, 82, 65
1, 116581, Note_on_c, 0, 77, 70
1, 116611, Note_off_c, 0, 82, 66
1, 116617, Note_off_c, 0, 77, 60
1, 116642, Note_on_c, 0, 69, 60
1, 116642, Note_on_c, 0, 88, 77
1, 116643, Note_on_c, 0, 81, 79
1, 116647, Note_on_c, 0, 62, 37
1, 116648, Note_on_c, 0, 57, 55
1, 116691, Note_off_c, 0, 57, 65
1, 116691, Poly_aftertouch_c, 0, 57, 0
1, 116698, Note_off_c, 0, 81, 53
1, 116703, Note_off_c, 0, 88, 60
1, 116718, Note_on_c, 0, 82, 71
1, 116736, Note_on_c, 0, 77, 75
1, 116755, Note_off_c, 0, 82, 60
1, 116773, Note_off_c, 0, 77, 60
1, 116806, Note_on_c, 0, 86, 77
1, 116813, Note_on_c, 0, 81, 72
1, 116843, Note_off_c, 0, 81, 69
1, 116860, Note_on_c, 0, 82, 68
1, 116867, Note_off_c, 0, 86, 62
1, 116890, Note_off_c, 0, 82, 70
1, 116892, Note_on_c, 0, 77, 68
1, 116926, Note_off_c, 0, 77, 64
1, 116936, Note_off_c, 0, 62, 55
1, 116956, Note_on_c, 0, 86, 70
1, 116957, Note_on_c, 0, 79, 80
1, 116960, Note_on_c, 0, 64, 56
1, 116980, Poly_aftertouch_c, 0, 69, 24
1, 116983, Note_on_c, 0, 57, 33
1, 117000, Note_off_c, 0, 86, 62
1, 117007, Note_off_c, 0, 69, 46
1, 117007, Poly_aftertouch_c, 0, 69, 0
1, 117012, Note_off_c, 0, 64, 61
1, 117012, Poly_aftertouch_c, 0, 64, 0
1, 117014, Note_off_c, 0, 79, 48
1, 117043, Note_on_c, 0, 81, 74
1, 117051, Note_on_c, 0, 76, 67
1, 117097, Note_off_c, 0, 76, 62
1, 117109, Note_off_c, 0, 81, 58
1, 117126, Note_on_c, 0, 85, 71
1, 117139, Note_on_c, 0, 79, 70
1, 117190, Note_off_c, 0, 79, 56
1, 117196, Note_off_c, 0, 85, 57
1, 117220, Note_on_c, 0, 76, 66
1, 117221, Note_on_c, 0, 81, 50
1, 117236, Poly_aftertouch_c, 0, 57, 24
1, 117252, Note_off_c, 0, 81, 59
1, 117263, Note_off_c, 0, 57, 41
1, 117263, Poly_aftertouch_c, 0, 57, 0
1, 117264, Poly_aftertouch_c, 0, 57, 0
1, 117285, Note_on_c, 0, 69, 46
1, 117287, Note_off_c, 0, 76, 58
1, 117290, Note_on_c, 0, 84, 68
1, 117295, Note_on_c, 0, 61, 37
1, 117301, Note_on_c, 0, 64, 36
1, 117305, Note_on_c, 0, 79, 77
1, 117361, Note_off_c, 0, 84, 62
1, 117363, Control_c, 0, 64, 21
1, 117375, Note_off_c, 0, 79, 59
1, 117378, Note_on_c, 0, 83, 65
1, 117380, Control_c, 0, 64, 49
1, 117401, Control_c, 0, 64, 64
1, 117420, Control_c, 0, 64, 76
1, 117423, Note_on_c, 0, 76, 48
1, 117438, Control_c, 0, 64, 93
1, 117455, Note_off_c, 0, 76, 57
1, 117455, Control_c, 0, 64, 127
1, 117477, Note_on_c, 0, 82, 73
1, 117480, Note_on_c, 0, 79, 75
1, 117485, Note_off_c, 0, 83, 62
1, 117551, Note_off_c, 0, 82, 60
1, 117554, Note_off_c, 0, 79, 59
1, 117556, Note_on_c, 0, 76, 61
1, 117561, Note_off_c, 0, 61, 41
1, 117619, Note_off_c, 0, 76, 60
1, 117629, Note_off_c, 0, 64, 47
1, 117629, Poly_aftertouch_c, 0, 64, 0
1, 117646, Control_c, 0, 64, 113
1, 117657, Note_on_c, 0, 62, 49
1, 117663, Note_on_c, 0, 77, 71
1, 117665, Control_c, 0, 64, 75
1, 117681, Note_on_c, 0, 81, 50
1, 117681, Control_c, 0, 64, 44
1, 117700, Control_c, 0, 64, 14
1, 117719, Control_c, 0, 64, 9
1, 117738, Control_c, 0, 64, 17
1, 117740, Note_off_c, 0, 69, 60
1, 117740, Poly_aftertouch_c, 0, 69, 0
1, 117745, Note_off_c, 0, 77, 59
1, 117752, Note_on_c, 0, 74, 69
1, 117757, Control_c, 0, 64, 35
1, 117766, Note_off_c, 0, 62, 61
1, 117775, Control_c, 0, 64, 59
1, 117794, Control_c, 0, 64, 76
1, 117813, Control_c, 0, 64, 106
1, 117831, Control_c, 0, 64, 127
1, 117837, Note_off_c, 0, 74, 61
1, 117837, Note_on_c, 0, 77, 60
1, 117929, Note_on_c, 0, 86, 80
1, 117930, Note_off_c, 0, 77, 60
1, 117942, Note_off_c, 0, 81, 63
1, 117990, Note_off_c, 0, 86, 63
1, 118064, Note_on_c, 0, 45, 40
1, 118130, Control_c, 0, 64, 107
1, 118149, Control_c, 0, 64, 76
1, 118163, Note_on_c, 0, 60, 47
1, 118167, Note_on_c, 0, 89, 86
1, 118169, Control_c, 0, 64, 52
1, 118182, Note_on_c, 0, 77, 73
1, 118186, Control_c, 0, 64, 35
1, 118242, Control_c, 0, 64, 44
1, 118263, Control_c, 0, 64, 58
1, 118266, Note_off_c, 0, 77, 43
1, 118278, Note_off_c, 0, 89, 62
1, 118281, Control_c, 0, 64, 72
1, 118283, Note_off_c, 0, 45, 56
1, 118286, Note_on_c, 0, 84, 60
1, 118286, Note_on_c, 0, 86, 64
1, 118300, Control_c, 0, 64, 93
1, 118316, Control_c, 0, 64, 127
1, 118330, Note_off_c, 0, 60, 60
1, 118344, Note_off_c, 0, 86, 59
1, 118348, Note_off_c, 0, 84, 49
1, 118365, Note_on_c, 0, 89, 67
1, 118388, Note_on_c, 0, 77, 53
1, 118437, Note_off_c, 0, 89, 64
1, 118437, Note_on_c, 0, 87, 80
1, 118444, Note_off_c, 0, 77, 62
1, 118453, Note_on_c, 0, 84, 67
1, 118473, Note_on_c, 0, 46, 60
1, 118485, Note_off_c, 0, 84, 66
1, 118491, Note_off_c, 0, 87, 61
1, 118504, Control_c, 0, 64, 89
1, 118511, Note_off_c, 0, 46, 65
1, 118523, Control_c, 0, 64, 62
1, 118540, Note_on_c, 0, 77, 81
1, 118541, Note_on_c, 0, 87, 76
1, 118541, Control_c, 0, 64, 44
1, 118550, Note_on_c, 0, 62, 61
1, 118578, Control_c, 0, 64, 53
1, 118593, Note_off_c, 0, 62, 63
1, 118597, Control_c, 0, 64, 63
1, 118602, Note_off_c, 0, 77, 47
1, 118610, Note_on_c, 0, 85, 79
1, 118614, Note_off_c, 0, 87, 66
1, 118614, Note_on_c, 0, 82, 73
1, 118616, Control_c, 0, 64, 77
1, 118636, Control_c, 0, 64, 113
1, 118653, Control_c, 0, 64, 127
1, 118669, Note_off_c, 0, 82, 56
1, 118698, Note_off_c, 0, 85, 63
1, 118704, Note_on_c, 0, 77, 75
1, 118710, Note_on_c, 0, 87, 72
1, 118751, Note_off_c, 0, 77, 56
1, 118754, Note_off_c, 0, 87, 62
1, 118762, Note_on_c, 0, 86, 71
1, 118785, Note_on_c, 0, 82, 72
1, 118793, Note_off_c, 0, 86, 70
1, 118813, Note_off_c, 0, 82, 67
1, 118821, Control_c, 0, 64, 79
1, 118841, Control_c, 0, 64, 53
1, 118853, Note_on_c, 0, 63, 77
1, 118859, Control_c, 0, 64, 37
1, 118873, Note_on_c, 0, 86, 89
1, 118878, Control_c, 0, 64, 43
1, 118882, Note_on_c, 0, 48, 42
1, 118882, Note_on_c, 0, 75, 84
1, 118885, Note_off_c, 0, 63, 66
1, 118896, Control_c, 0, 64, 54
1, 118915, Control_c, 0, 64, 65
1, 118929, Note_off_c, 0, 48, 48
1, 118933, Control_c, 0, 64, 82
1, 118944, Note_off_c, 0, 75, 54
1, 118953, Control_c, 0, 64, 127
1, 118957, Note_on_c, 0, 81, 71
1, 118958, Note_on_c, 0, 83, 71
1, 118961, Note_off_c, 0, 86, 63
1, 119022, Note_off_c, 0, 83, 60
1, 119029, Note_off_c, 0, 81, 58
1, 119041, Note_on_c, 0, 86, 70
1, 119055, Note_on_c, 0, 75, 70
1, 119089, Note_off_c, 0, 75, 65
1, 119103, Note_on_c, 0, 84, 77
1, 119121, Note_off_c, 0, 86, 63
1, 119133, Note_on_c, 0, 81, 58
1, 119143, Note_off_c, 0, 84, 62
1, 119160, Control_c, 0, 64, 88
1, 119162, Note_off_c, 0, 81, 61
1, 119178, Control_c, 0, 64, 60
1, 119195, Control_c, 0, 64, 36
1, 119206, Note_on_c, 0, 65, 58
1, 119207, Note_on_c, 0, 50, 59
1, 119221, Note_on_c, 0, 74, 77
1, 119227, Note_on_c, 0, 84, 82
1, 119232, Control_c, 0, 64, 42
1, 119252, Control_c, 0, 64, 55
1, 119253, Note_off_c, 0, 65, 64
1, 119268, Note_off_c, 0, 50, 59
1, 119269, Control_c, 0, 64, 68
1, 119271, Note_off_c, 0, 74, 59
1, 119281, Note_on_c, 0, 81, 56
1, 119287, Control_c, 0, 64, 87
1, 119292, Note_on_c, 0, 77, 72
1, 119294, Note_off_c, 0, 84, 64
1, 119309, Control_c, 0, 64, 127
1, 119333, Note_off_c, 0, 77, 59
1, 119335, Note_off_c, 0, 81, 61
1, 119373, Note_on_c, 0, 84, 61
1, 119399, Note_on_c, 0, 74, 63
1, 119439, Note_off_c, 0, 74, 66
1, 119447, Note_off_c, 0, 84, 63
1, 119460, Note_on_c, 0, 82, 61
1, 119469, Note_on_c, 0, 77, 53
1, 119475, Control_c, 0, 64, 96
1, 119491, Note_off_c, 0, 82, 64
1, 119493, Control_c, 0, 64, 65
1, 119498, Note_off_c, 0, 77, 58
1, 119514, Control_c, 0, 64, 42
1, 119545, Note_on_c, 0, 83, 73
1, 119546, Note_on_c, 0, 66, 62
1, 119550, Control_c, 0, 64, 51
1, 119554, Note_on_c, 0, 72, 67
1, 119563, Note_on_c, 0, 51, 49
1, 119569, Control_c, 0, 64, 62
1, 119586, Note_off_c, 0, 66, 66
1, 119588, Control_c, 0, 64, 77
1, 119590, Note_off_c, 0, 72, 64
1, 119607, Note_off_c, 0, 83, 59
1, 119607, Control_c, 0, 64, 107
1, 119612, Note_off_c, 0, 51, 63
1, 119617, Note_on_c, 0, 80, 69
1, 119625, Control_c, 0, 64, 127
1, 119635, Note_on_c, 0, 78, 57
1, 119660, Note_off_c, 0, 80, 56
1, 119668, Note_off_c, 0, 78, 66
1, 119719, Note_on_c, 0, 72, 69
1, 119721, Note_on_c, 0, 83, 61
1, 119750, Note_off_c, 0, 83, 61
1, 119769, Note_off_c, 0, 72, 62
1, 119787, Note_on_c, 0, 81, 52
1, 119789, Note_on_c, 0, 78, 58
1, 119812, Control_c, 0, 64, 88
1, 119817, Note_off_c, 0, 81, 60
1, 119830, Note_on_c, 0, 52, 44
1, 119830, Control_c, 0, 64, 58
1, 119838, Note_off_c, 0, 78, 63
1, 119851, Control_c, 0, 64, 34
1, 119874, Note_off_c, 0, 52, 51
1, 119874, Poly_aftertouch_c, 0, 52, 0
1, 119887, Control_c, 0, 64, 46
1, 119888, Note_on_c, 0, 81, 74
1, 119892, Note_on_c, 0, 71, 63
1, 119905, Control_c, 0, 64, 59
1, 119907, Note_on_c, 0, 68, 59
1, 119925, Control_c, 0, 64, 72
1, 119938, Note_off_c, 0, 68, 64
1, 119939, Note_off_c, 0, 71, 58
1, 119942, Note_off_c, 0, 81, 58
1, 119943, Control_c, 0, 64, 98
1, 119962, Control_c, 0, 64, 127
1, 119965, Note_on_c, 0, 76, 66
1, 119976, Note_on_c, 0, 79, 52
1, 120009, Note_off_c, 0, 79, 56
1, 120011, Note_off_c, 0, 76, 59
1, 120047, Note_on_c, 0, 81, 60
1, 120080, Note_on_c, 0, 71, 49
1, 120081, Note_off_c, 0, 81, 64
1, 120116, Note_on_c, 0, 75, 61
1, 120120, Note_off_c, 0, 71, 63
1, 120120, Note_on_c, 0, 80, 62
1, 120146, Note_off_c, 0, 75, 59
1, 120149, Note_off_c, 0, 80, 65
1, 120169, Control_c, 0, 64, 87
1, 120187, Control_c, 0, 64, 46
1, 120205, Control_c, 0, 64, 0
1, 120209, Note_on_c, 0, 63, 69
1, 120216, Note_on_c, 0, 80, 81
1, 120219, Note_on_c, 0, 69, 66
1, 120223, Note_on_c, 0, 54, 55
1, 120243, Note_off_c, 0, 63, 67
1, 120253, Note_off_c, 0, 69, 65
1, 120253, Poly_aftertouch_c, 0, 69, 0
1, 120258, Note_off_c, 0, 80, 61
1, 120260, Note_off_c, 0, 54, 63
1, 120272, Note_on_c, 0, 75, 56
1, 120283, Note_on_c, 0, 77, 58
1, 120320, Note_off_c, 0, 75, 64
1, 120325, Note_off_c, 0, 77, 63
1, 120356, Note_on_c, 0, 69, 70
1, 120363, Note_on_c, 0, 80, 67
1, 120372, Note_on_c, 0, 60, 59
1, 120398, Note_off_c, 0, 80, 66
1, 120416, Note_off_c, 0, 69, 55
1, 120416, Poly_aftertouch_c, 0, 69, 0
1, 120419, Note_off_c, 0, 60, 66
1, 120423, Note_on_c, 0, 78, 68
1, 120435, Note_on_c, 0, 75, 66
1, 120455, Note_off_c, 0, 78, 71
1, 120459, Note_off_c, 0, 75, 40
1, 120518, Note_on_c, 0, 78, 79
1, 120521, Note_on_c, 0, 68, 75
1, 120534, Note_on_c, 0, 56, 62
1, 120538, Note_on_c, 0, 64, 58
1, 120554, Note_off_c, 0, 68, 67
1, 120573, Note_off_c, 0, 56, 64
1, 120579, Note_off_c, 0, 64, 66
1, 120579, Poly_aftertouch_c, 0, 64, 0
1, 120589, Note_off_c, 0, 78, 65
1, 120596, Note_on_c, 0, 71, 44
1, 120607, Note_on_c, 0, 75, 38
1, 120652, Note_off_c, 0, 71, 44
1, 120666, Note_on_c, 0, 78, 67
1, 120670, Note_on_c, 0, 68, 72
1, 120677, Note_on_c, 0, 59, 71
1, 120707, Note_off_c, 0, 68, 62
1, 120719, Note_off_c, 0, 75, 51
1, 120755, Note_off_c, 0, 59, 62
1, 120755, Note_off_c, 0, 78, 64
1, 120815, Note_on_c, 0, 76, 71
1, 120827, Note_on_c, 0, 66, 79
1, 120831, Note_on_c, 0, 72, 66
1, 120834, Note_on_c, 0, 57, 68
1, 120854, Note_off_c, 0, 66, 73
1, 120855, Note_off_c, 0, 76, 64
1, 120863, Note_off_c, 0, 72, 65
1, 120865, Note_off_c, 0, 57, 67
1, 120913, Note_on_c, 0, 74, 56
1, 120949, Note_off_c, 0, 74, 57
1, 120983, Note_on_c, 0, 60, 55
1, 120992, Note_on_c, 0, 76, 61
1, 121004, Note_on_c, 0, 69, 41
1, 121021, Note_off_c, 0, 60, 64
1, 121040, Note_off_c, 0, 76, 55
1, 121042, Note_off_c, 0, 69, 50
1, 121042, Poly_aftertouch_c, 0, 69, 0
1, 121069, Note_on_c, 0, 75, 73
1, 121105, Note_off_c, 0, 75, 59
1, 121110, Note_on_c, 0, 74, 38
1, 121151, Note_on_c, 0, 68, 68
1, 121155, Note_on_c, 0, 59, 55
1, 121176, Note_off_c, 0, 74, 64
1, 121178, Note_on_c, 0, 78, 68
1, 121185, Note_off_c, 0, 68, 69
1, 121194, Note_off_c, 0, 59, 63
1, 121237, Note_on_c, 0, 75, 71
1, 121239, Note_off_c, 0, 78, 59
1, 121282, Note_off_c, 0, 75, 64
1, 121312, Note_on_c, 0, 62, 61
1, 121321, Note_on_c, 0, 71, 57
1, 121324, Note_on_c, 0, 78, 62
1, 121354, Note_off_c, 0, 62, 64
1, 121378, Note_off_c, 0, 78, 63
1, 121378, Note_off_c, 0, 71, 62
1, 121387, Note_on_c, 0, 76, 57
1, 121415, Note_off_c, 0, 76, 64
1, 121478, Note_on_c, 0, 69, 67
1, 121481, Note_on_c, 0, 60, 64
1, 121484, Note_on_c, 0, 66, 60
1, 121489, Note_on_c, 0, 76, 71
1, 121511, Note_off_c, 0, 66, 64
1, 121514, Note_off_c, 0, 69, 67
1, 121514, Poly_aftertouch_c, 0, 69, 0
1, 121519, Note_off_c, 0, 60, 64
1, 121527, Note_off_c, 0, 76, 64
1, 121569, Note_on_c, 0, 74, 57
1, 121604, Note_off_c, 0, 74, 62
1, 121652, Note_on_c, 0, 76, 64
1, 121691, Note_off_c, 0, 76, 61
1, 121711, Note_on_c, 0, 75, 73
1, 121753, Note_off_c, 0, 75, 64
1, 121798, Note_on_c, 0, 71, 50
1, 121829, Note_on_c, 0, 78, 57
1, 121846, Note_off_c, 0, 71, 64
1, 121847, Note_on_c, 0, 68, 52
1, 121851, Note_on_c, 0, 62, 51
1, 121869, Control_c, 0, 67, 9
1, 121876, Note_off_c, 0, 78, 64
1, 121881, Note_off_c, 0, 68, 59
1, 121886, Note_on_c, 0, 76, 70
1, 121887, Note_off_c, 0, 62, 58
1, 121908, Control_c, 0, 67, 16
1, 121922, Note_off_c, 0, 76, 63
1, 121925, Control_c, 0, 67, 21
1, 121945, Control_c, 0, 67, 27
1, 121963, Control_c, 0, 67, 33
1, 121981, Control_c, 0, 67, 40
1, 121984, Note_on_c, 0, 78, 49
1, 122001, Control_c, 0, 67, 48
1, 122016, Note_off_c, 0, 78, 59
1, 122019, Control_c, 0, 67, 58
1, 122036, Note_on_c, 0, 77, 63
1, 122037, Control_c, 0, 67, 70
1, 122056, Control_c, 0, 67, 80
1, 122072, Note_off_c, 0, 77, 67
1, 122075, Control_c, 0, 67, 87
1, 122095, Control_c, 0, 67, 91
1, 122131, Note_on_c, 0, 76, 63
1, 122156, Note_on_c, 0, 71, 48
1, 122167, Note_on_c, 0, 68, 41
1, 122174, Note_off_c, 0, 76, 63
1, 122190, Note_off_c, 0, 71, 57
1, 122206, Note_on_c, 0, 78, 54
1, 122207, Note_off_c, 0, 68, 53
1, 122235, Note_off_c, 0, 78, 62
1, 122284, Note_on_c, 0, 76, 45
1, 122305, Note_on_c, 0, 62, 51
1, 122321, Note_off_c, 0, 76, 56
1, 122337, Note_on_c, 0, 90, 75
1, 122352, Note_off_c, 0, 62, 62
1, 122363, Note_off_c, 0, 90, 72
1, 122425, Note_on_c, 0, 88, 75
1, 122444, Note_on_c, 0, 73, 63
1, 122470, Note_off_c, 0, 73, 66
1, 122483, Note_on_c, 0, 69, 34
1, 122498, Note_off_c, 0, 88, 62
1, 122511, Note_on_c, 0, 78, 64
1, 122523, Note_off_c, 0, 69, 45
1, 122523, Poly_aftertouch_c, 0, 69, 0
1, 122557, Note_off_c, 0, 78, 67
1, 122560, Control_c, 0, 67, 86
1, 122586, Note_on_c, 0, 76, 62
1, 122598, Control_c, 0, 67, 79
1, 122600, Note_on_c, 0, 61, 68
1, 122608, Note_off_c, 0, 76, 64
1, 122617, Control_c, 0, 67, 73
1, 122628, Note_off_c, 0, 61, 66
1, 122635, Control_c, 0, 67, 65
1, 122655, Control_c, 0, 67, 58
1, 122673, Control_c, 0, 67, 52
1, 122674, Note_on_c, 0, 66, 77
1, 122693, Control_c, 0, 67, 48
1, 122710, Note_off_c, 0, 66, 65
1, 122731, Control_c, 0, 67, 44
1, 122764, Note_on_c, 0, 64, 69
1, 122769, Note_on_c, 0, 74, 60
1, 122771, Note_on_c, 0, 68, 64
1, 122801, Note_off_c, 0, 74, 45
1, 122805, Control_c, 0, 67, 40
1, 122807, Note_off_c, 0, 68, 69
1, 122816, Note_off_c, 0, 64, 64
1, 122816, Poly_aftertouch_c, 0, 64, 0
1, 122826, Note_on_c, 0, 66, 73
1, 122872, Note_off_c, 0, 66, 65
1, 122928, Note_on_c, 0, 59, 53
1, 122954, Control_c, 0, 67, 35
1, 122957, Note_off_c, 0, 59, 58
1, 122966, Poly_aftertouch_c, 0, 64, 0
1, 122973, Control_c, 0, 67, 31
1, 122981, Note_on_c, 0, 78, 58
1, 122991, Control_c, 0, 67, 26
1, 123007, Note_off_c, 0, 78, 64
1, 123009, Control_c, 0, 64, 21
1, 123010, Control_c, 0, 67, 19
1, 123013, Note_on_c, 0, 57, 65
1, 123029, Control_c, 0, 64, 51
1, 123030, Control_c, 0, 67, 11
1, 123049, Control_c, 0, 64, 67
1, 123053, Note_off_c, 0, 57, 65
1, 123066, Control_c, 0, 64, 80
1, 123076, Note_on_c, 0, 76, 74
1, 123083, Control_c, 0, 64, 99
1, 123104, Control_c, 0, 64, 127
1, 123105, Note_on_c, 0, 77, 25
1, 123106, Note_off_c, 0, 76, 71
1, 123111, Note_on_c, 0, 73, 61
1, 123125, Note_on_c, 0, 78, 58
1, 123137, Note_off_c, 0, 73, 65
1, 123157, Note_off_c, 0, 77, 45
1, 123160, Control_c, 0, 64, 118
1, 123162, Control_c, 0, 67, 0
1, 123171, Poly_aftertouch_c, 0, 59, 0
1, 123180, Control_c, 0, 64, 100
1, 123197, Note_off_c, 0, 78, 64
1, 123197, Control_c, 0, 64, 75
1, 123211, Note_on_c, 0, 73, 61
1, 123215, Control_c, 0, 64, 41
1, 123228, Note_on_c, 0, 85, 65
1, 123233, Control_c, 0, 64, 0
1, 123237, Note_off_c, 0, 73, 65
1, 123241, Note_on_c, 0, 63, 65
1, 123244, Note_on_c, 0, 76, 60
1, 123265, Note_on_c, 0, 64, 53
1, 123277, Note_off_c, 0, 63, 64
1, 123283, Note_off_c, 0, 76, 68
1, 123289, Note_on_c, 0, 78, 67
1, 123299, Note_off_c, 0, 64, 59
1, 123302, Note_off_c, 0, 85, 63
1, 123332, Note_on_c, 0, 73, 68
1, 123343, Note_off_c, 0, 78, 59
1, 123368, Note_off_c, 0, 73, 65
1, 123374, Note_on_c, 0, 49, 67
1, 123376, Note_on_c, 0, 83, 74
1, 123388, Note_on_c, 0, 76, 73
1, 123405, Note_off_c, 0, 49, 62
1, 123452, Note_off_c, 0, 83, 64
1, 123454, Note_off_c, 0, 76, 61
1, 123460, Note_on_c, 0, 78, 76
1, 123484, Note_on_c, 0, 73, 68
1, 123507, Note_off_c, 0, 73, 66
1, 123538, Note_on_c, 0, 66, 74
1, 123548, Note_off_c, 0, 78, 57
1, 123550, Note_on_c, 0, 76, 72
1, 123551, Note_on_c, 0, 81, 73
1, 123560, Note_on_c, 0, 64, 63
1, 123567, Note_off_c, 0, 66, 71
1, 123580, Note_off_c, 0, 76, 70
1, 123597, Note_off_c, 0, 64, 65
1, 123599, Note_on_c, 0, 73, 73
1, 123601, Note_on_c, 0, 78, 48
1, 123611, Note_off_c, 0, 81, 62
1, 123624, Note_off_c, 0, 73, 71
1, 123635, Note_off_c, 0, 78, 67
1, 123694, Note_on_c, 0, 81, 69
1, 123701, Note_on_c, 0, 40, 67
1, 123705, Note_on_c, 0, 74, 77
1, 123734, Note_off_c, 0, 40, 54
1, 123743, Note_off_c, 0, 81, 62
1, 123745, Note_off_c, 0, 74, 57
1, 123783, Note_on_c, 0, 71, 65
1, 123799, Note_on_c, 0, 76, 55
1, 123820, Note_off_c, 0, 71, 66
1, 123831, Note_off_c, 0, 76, 56
1, 123861, Note_on_c, 0, 63, 69
1, 123861, Note_on_c, 0, 74, 78
1, 123865, Note_on_c, 0, 80, 68
1, 123870, Note_on_c, 0, 64, 58
1, 123893, Note_off_c, 0, 63, 69
1, 123899, Note_off_c, 0, 64, 63
1, 123902, Note_off_c, 0, 80, 60
1, 123902, Note_off_c, 0, 74, 53
1, 123909, Poly_aftertouch_c, 0, 75, 0
1, 123930, Note_on_c, 0, 76, 71
1, 123945, Note_on_c, 0, 71, 69
1, 123971, Note_off_c, 0, 76, 65
1, 123989, Note_off_c, 0, 71, 60
1, 124007, Note_on_c, 0, 44, 68
1, 124023, Note_on_c, 0, 79, 73
1, 124023, Note_on_c, 0, 74, 80
1, 124043, Note_off_c, 0, 44, 64
1, 124060, Note_off_c, 0, 79, 63
1, 124066, Note_off_c, 0, 74, 62
1, 124086, Note_on_c, 0, 78, 72
1, 124113, Note_off_c, 0, 78, 71
1, 124116, Note_on_c, 0, 71, 66
1, 124155, Note_off_c, 0, 71, 64
1, 124174, Note_on_c, 0, 74, 72
1, 124175, Note_on_c, 0, 77, 75
1, 124179, Note_on_c, 0, 65, 61
1, 124190, Note_on_c, 0, 64, 75
1, 124204, Note_off_c, 0, 74, 69
1, 124207, Note_off_c, 0, 65, 63
1, 124217, Note_off_c, 0, 64, 71
1, 124257, Note_on_c, 0, 71, 70
1, 124312, Note_off_c, 0, 71, 60
1, 124319, Note_off_c, 0, 77, 59
1, 124321, Note_on_c, 0, 73, 76
1, 124338, Control_c, 0, 64, 9
1, 124341, Note_on_c, 0, 45, 79
1, 124356, Control_c, 0, 64, 48
1, 124375, Control_c, 0, 64, 67
1, 124379, Note_off_c, 0, 45, 66
1, 124380, Note_off_c, 0, 73, 59
1, 124389, Note_on_c, 0, 76, 67
1, 124394, Control_c, 0, 64, 79
1, 124413, Control_c, 0, 64, 98
1, 124426, Note_on_c, 0, 69, 69
1, 124430, Control_c, 0, 64, 127
1, 124465, Note_off_c, 0, 69, 61
1, 124465, Poly_aftertouch_c, 0, 69, 0
1, 124495, Note_on_c, 0, 60, 63
1, 124499, Note_on_c, 0, 73, 78
1, 124522, Note_off_c, 0, 60, 62
1, 124522, Note_on_c, 0, 62, 49
1, 124523, Control_c, 0, 64, 105
1, 124545, Control_c, 0, 64, 82
1, 124561, Note_on_c, 0, 78, 72
1, 124562, Note_off_c, 0, 62, 56
1, 124563, Control_c, 0, 64, 59
1, 124567, Note_off_c, 0, 73, 64
1, 124572, Note_off_c, 0, 76, 61
1, 124581, Control_c, 0, 64, 18
1, 124599, Control_c, 0, 64, 0
1, 124602, Poly_aftertouch_c, 0, 61, 127
1, 124604, Poly_aftertouch_c, 0, 61, 0
1, 124612, Note_off_c, 0, 78, 63
1, 124646, Note_on_c, 0, 76, 68
1, 124649, Note_on_c, 0, 68, 82
1, 124650, Note_on_c, 0, 71, 78
1, 124669, Note_off_c, 0, 68, 73
1, 124675, Note_off_c, 0, 71, 70
1, 124711, Note_off_c, 0, 76, 63
1, 124717, Note_on_c, 0, 78, 84
1, 124758, Note_off_c, 0, 78, 63
1, 124797, Note_on_c, 0, 76, 64
1, 124804, Note_on_c, 0, 62, 70
1, 124823, Note_off_c, 0, 76, 64
1, 124838, Note_off_c, 0, 62, 68
1, 124871, Note_on_c, 0, 90, 75
1, 124898, Note_off_c, 0, 90, 73
1, 124950, Note_on_c, 0, 73, 70
1, 124955, Note_on_c, 0, 88, 77
1, 124967, Note_on_c, 0, 69, 57
1, 124980, Note_off_c, 0, 73, 70
1, 125003, Note_off_c, 0, 69, 64
1, 125003, Poly_aftertouch_c, 0, 69, 0
1, 125028, Note_off_c, 0, 88, 62
1, 125037, Note_on_c, 0, 78, 73
1, 125088, Note_off_c, 0, 78, 65
1, 125118, Note_on_c, 0, 76, 53
1, 125120, Note_on_c, 0, 61, 77
1, 125153, Note_off_c, 0, 76, 39
1, 125155, Note_off_c, 0, 61, 69
1, 125200, Note_on_c, 0, 66, 76
1, 125237, Note_off_c, 0, 66, 64
1, 125277, Note_on_c, 0, 74, 84
1, 125292, Note_on_c, 0, 68, 70
1, 125296, Note_on_c, 0, 64, 72
1, 125298, Note_off_c, 0, 74, 72
1, 125318, Note_off_c, 0, 68, 67
1, 125355, Note_off_c, 0, 64, 62
1, 125359, Note_on_c, 0, 66, 76
1, 125400, Note_off_c, 0, 66, 65
1, 125444, Note_on_c, 0, 59, 67
1, 125479, Note_off_c, 0, 59, 65
1, 125516, Note_on_c, 0, 78, 66
1, 125540, Note_off_c, 0, 78, 67
1, 125548, Note_on_c, 0, 57, 68
1, 125572, Control_c, 0, 64, 34
1, 125582, Note_off_c, 0, 57, 66
1, 125589, Control_c, 0, 64, 63
1, 125603, Note_on_c, 0, 76, 85
1, 125608, Control_c, 0, 64, 77
1, 125628, Control_c, 0, 64, 103
1, 125636, Note_on_c, 0, 73, 82
1, 125646, Control_c, 0, 64, 127
1, 125656, Poly_aftertouch_c, 0, 62, 127
1, 125657, Note_on_c, 0, 78, 56
1, 125658, Note_off_c, 0, 76, 62
1, 125661, Note_off_c, 0, 73, 73
1, 125667, Poly_aftertouch_c, 0, 59, 0
1, 125667, Poly_aftertouch_c, 0, 62, 0
1, 125722, Note_on_c, 0, 73, 64
1, 125733, Note_off_c, 0, 78, 65
1, 125774, Note_off_c, 0, 73, 65
1, 125775, Note_on_c, 0, 63, 79
1, 125776, Note_on_c, 0, 85, 77
1, 125777, Control_c, 0, 64, 90
1, 125783, Note_on_c, 0, 76, 74
1, 125797, Control_c, 0, 64, 56
1, 125806, Note_off_c, 0, 63, 71
1, 125809, Note_on_c, 0, 64, 51
1, 125816, Control_c, 0, 64, 0
1, 125822, Note_off_c, 0, 76, 60
1, 125841, Note_off_c, 0, 64, 58
1, 125846, Note_on_c, 0, 78, 74
1, 125847, Note_off_c, 0, 85, 65
1, 125876, Note_on_c, 0, 73, 73
1, 125892, Note_off_c, 0, 78, 59
1, 125913, Note_off_c, 0, 73, 58
1, 125925, Note_on_c, 0, 49, 68
1, 125932, Note_on_c, 0, 83, 75
1, 125932, Note_on_c, 0, 76, 80
1, 125962, Note_off_c, 0, 49, 65
1, 126004, Note_off_c, 0, 76, 60
1, 126004, Note_off_c, 0, 83, 63
1, 126004, Note_on_c, 0, 78, 79
1, 126023, Note_on_c, 0, 73, 81
1, 126087, Note_off_c, 0, 78, 45
1, 126090, Note_on_c, 0, 76, 75
1, 126092, Note_on_c, 0, 66, 73
1, 126097, Note_off_c, 0, 73, 65
1, 126097, Note_on_c, 0, 81, 74
1, 126105, Note_on_c, 0, 64, 75
1, 126122, Note_off_c, 0, 66, 73
1, 126131, Note_off_c, 0, 64, 71
1, 126138, Note_off_c, 0, 76, 60
1, 126153, Note_on_c, 0, 73, 61
1, 126159, Note_on_c, 0, 78, 42
1, 126165, Note_off_c, 0, 81, 63
1, 126184, Note_off_c, 0, 73, 67
1, 126196, Note_off_c, 0, 78, 65
1, 126246, Note_on_c, 0, 81, 72
1, 126254, Note_on_c, 0, 74, 86
1, 126255, Note_on_c, 0, 40, 74
1, 126283, Poly_aftertouch_c, 0, 72, 0
1, 126292, Note_off_c, 0, 40, 62
1, 126295, Note_off_c, 0, 81, 60
1, 126327, Note_off_c, 0, 74, 64
1, 126330, Note_on_c, 0, 76, 75
1, 126330, Note_on_c, 0, 71, 73
1, 126394, Note_off_c, 0, 71, 49
1, 126404, Note_off_c, 0, 76, 64
1, 126411, Note_on_c, 0, 80, 73
1, 126418, Note_on_c, 0, 74, 72
1, 126421, Note_on_c, 0, 63, 74
1, 126429, Note_on_c, 0, 64, 63
1, 126453, Note_off_c, 0, 63, 69
1, 126456, Note_off_c, 0, 64, 64
1, 126466, Note_off_c, 0, 74, 54
1, 126468, Note_off_c, 0, 80, 58
1, 126477, Note_on_c, 0, 76, 67
1, 126503, Note_on_c, 0, 71, 67
1, 126525, Note_off_c, 0, 76, 62
1, 126560, Note_off_c, 0, 71, 52
1, 126565, Note_on_c, 0, 79, 79
1, 126568, Note_on_c, 0, 44, 68
1, 126583, Note_on_c, 0, 74, 75
1, 126605, Note_off_c, 0, 44, 63
1, 126609, Note_off_c, 0, 74, 71
1, 126627, Note_off_c, 0, 79, 60
1, 126637, Note_on_c, 0, 78, 71
1, 126667, Note_on_c, 0, 71, 68
1, 126668, Note_off_c, 0, 78, 72
1, 126724, Note_off_c, 0, 71, 61
1, 126724, Note_on_c, 0, 65, 69
1, 126726, Note_on_c, 0, 77, 76
1, 126737, Note_on_c, 0, 64, 75
1, 126739, Note_on_c, 0, 74, 64
1, 126754, Note_off_c, 0, 65, 65
1, 126763, Note_off_c, 0, 64, 69
1, 126769, Note_off_c, 0, 74, 67
1, 126818, Note_on_c, 0, 71, 69
1, 126835, Note_off_c, 0, 77, 60
1, 126878, Note_off_c, 0, 71, 60
1, 126886, Note_on_c, 0, 73, 71
1, 126893, Note_on_c, 0, 45, 79
1, 126907, Note_on_c, 0, 76, 66
1, 126918, Control_c, 0, 64, 11
1, 126920, Note_off_c, 0, 73, 61
1, 126928, Note_off_c, 0, 45, 67
1, 126938, Control_c, 0, 64, 45
1, 126956, Control_c, 0, 64, 62
1, 126968, Note_on_c, 0, 69, 70
1, 126973, Control_c, 0, 64, 73
1, 126995, Control_c, 0, 64, 90
1, 127011, Note_off_c, 0, 69, 54
1, 127011, Poly_aftertouch_c, 0, 69, 0
1, 127011, Control_c, 0, 64, 127
1, 127036, Note_on_c, 0, 73, 75
1, 127046, Note_on_c, 0, 64, 80
1, 127076, Note_off_c, 0, 64, 71
1, 127090, Note_on_c, 0, 80, 80
1, 127093, Note_off_c, 0, 73, 66
1, 127114, Note_off_c, 0, 76, 65
1, 127134, Poly_aftertouch_c, 0, 62, 0
1, 127149, Note_off_c, 0, 80, 65
1, 127169, Poly_aftertouch_c, 0, 65, 127
1, 127179, Control_c, 0, 64, 110
1, 127187, Poly_aftertouch_c, 0, 65, 0
1, 127192, Note_on_c, 0, 81, 87
1, 127199, Control_c, 0, 64, 76
1, 127212, Note_on_c, 0, 76, 82
1, 127215, Note_on_c, 0, 73, 80
1, 127216, Control_c, 0, 64, 34
1, 127233, Note_off_c, 0, 73, 72
1, 127236, Control_c, 0, 64, 0
1, 127238, Note_off_c, 0, 76, 70
1, 127261, Note_off_c, 0, 81, 63
1, 127270, Note_on_c, 0, 82, 82
1, 127327, Note_off_c, 0, 82, 59
1, 127349, Note_on_c, 0, 81, 75
1, 127364, Note_on_c, 0, 67, 74
1, 127386, Poly_aftertouch_c, 0, 73, 0
1, 127390, Note_off_c, 0, 81, 65
1, 127397, Note_off_c, 0, 67, 68
1, 127423, Note_on_c, 0, 94, 78
1, 127443, Note_off_c, 0, 94, 70
1, 127503, Note_on_c, 0, 93, 86
1, 127508, Note_on_c, 0, 77, 71
1, 127516, Note_on_c, 0, 74, 68
1, 127539, Note_off_c, 0, 77, 68
1, 127548, Note_off_c, 0, 74, 69
1, 127577, Note_off_c, 0, 93, 62
1, 127588, Note_on_c, 0, 82, 81
1, 127642, Note_off_c, 0, 82, 64
1, 127660, Note_on_c, 0, 65, 77
1, 127666, Note_on_c, 0, 81, 63
1, 127691, Note_off_c, 0, 65, 72
1, 127694, Note_off_c, 0, 81, 63
1, 127761, Note_on_c, 0, 70, 77
1, 127790, Note_off_c, 0, 70, 72
1, 127820, Note_on_c, 0, 79, 70
1, 127822, Note_on_c, 0, 73, 74
1, 127834, Note_on_c, 0, 69, 77
1, 127841, Note_off_c, 0, 79, 42
1, 127851, Note_off_c, 0, 73, 70
1, 127894, Note_off_c, 0, 69, 59
1, 127894, Poly_aftertouch_c, 0, 69, 0
1, 127897, Note_on_c, 0, 70, 78
1, 127938, Note_off_c, 0, 70, 67
1, 127968, Note_on_c, 0, 69, 66
1, 127969, Note_on_c, 0, 64, 75
1, 127996, Note_off_c, 0, 69, 65
1, 127996, Note_off_c, 0, 64, 70
1, 127996, Poly_aftertouch_c, 0, 69, 0
1, 128024, Note_on_c, 0, 82, 79
1, 128049, Note_off_c, 0, 82, 72
1, 128062, Note_on_c, 0, 62, 84
1, 128077, Control_c, 0, 64, 29
1, 128091, Note_off_c, 0, 62, 69
1, 128095, Control_c, 0, 64, 59
1, 128114, Control_c, 0, 64, 68
1, 128129, Note_on_c, 0, 81, 81
1, 128133, Control_c, 0, 64, 70
1, 128138, Note_on_c, 0, 83, 73
1, 128142, Note_on_c, 0, 77, 85
1, 128160, Note_off_c, 0, 83, 68
1, 128165, Note_off_c, 0, 77, 63
1, 128169, Note_off_c, 0, 81, 63
1, 128170, Control_c, 0, 64, 67
1, 128177, Poly_aftertouch_c, 0, 64, 0
1, 128189, Control_c, 0, 64, 61
1, 128201, Note_on_c, 0, 82, 64
1, 128208, Control_c, 0, 64, 46
1, 128227, Control_c, 0, 64, 28
1, 128229, Note_on_c, 0, 77, 73
1, 128240, Note_off_c, 0, 82, 63
1, 128246, Control_c, 0, 64, 0
1, 128275, Note_on_c, 0, 83, 6
1, 128278, Note_on_c, 0, 68, 68
1, 128280, Note_on_c, 0, 81, 87
1, 128291, Note_on_c, 0, 69, 70
1, 128296, Note_on_c, 0, 89, 74
1, 128297, Note_off_c, 0, 77, 60
1, 128312, Note_off_c, 0, 68, 68
1, 128323, Note_off_c, 0, 69, 67
1, 128323, Poly_aftertouch_c, 0, 69, 0
1, 128334, Note_off_c, 0, 81, 54
1, 128343, Note_off_c, 0, 89, 60
1, 128351, Note_off_c, 0, 83, 39
1, 128358, Note_on_c, 0, 82, 72
1, 128382, Note_on_c, 0, 77, 75
1, 128398, Note_off_c, 0, 82, 61
1, 128428, Note_on_c, 0, 53, 71
1, 128439, Note_on_c, 0, 81, 79
1, 128441, Note_off_c, 0, 77, 59
1, 128445, Note_on_c, 0, 88, 65
1, 128461, Note_off_c, 0, 53, 65
1, 128504, Note_off_c, 0, 81, 57
1, 128510, Note_on_c, 0, 82, 78
1, 128519, Note_off_c, 0, 88, 63
1, 128543, Note_on_c, 0, 77, 74
1, 128547, Note_off_c, 0, 82, 61
1, 128582, Note_off_c, 0, 77, 58
1, 128595, Note_on_c, 0, 81, 79
1, 128599, Note_on_c, 0, 70, 64
1, 128599, Note_on_c, 0, 86, 80
1, 128610, Note_on_c, 0, 69, 67
1, 128620, Note_off_c, 0, 70, 67
1, 128641, Note_off_c, 0, 69, 65
1, 128641, Poly_aftertouch_c, 0, 69, 0
1, 128660, Note_on_c, 0, 82, 68
1, 128663, Note_off_c, 0, 81, 52
1, 128673, Note_off_c, 0, 86, 63
1, 128684, Note_on_c, 0, 77, 80
1, 128687, Note_off_c, 0, 82, 69
1, 128746, Note_on_c, 0, 45, 81
1, 128754, Note_on_c, 0, 86, 77
1, 128755, Note_off_c, 0, 77, 43
1, 128757, Note_on_c, 0, 79, 85
1, 128777, Note_off_c, 0, 45, 67
1, 128813, Note_off_c, 0, 86, 63
1, 128827, Note_on_c, 0, 81, 83
1, 128842, Note_off_c, 0, 79, 60
1, 128867, Note_on_c, 0, 76, 64
1, 128913, Note_off_c, 0, 81, 60
1, 128915, Note_on_c, 0, 68, 78
1, 128920, Note_off_c, 0, 76, 58
1, 128923, Note_on_c, 0, 85, 77
1, 128933, Note_on_c, 0, 79, 74
1, 128941, Note_off_c, 0, 68, 72
1, 128943, Note_on_c, 0, 69, 50
1, 128973, Note_off_c, 0, 69, 56
1, 128973, Poly_aftertouch_c, 0, 69, 0
1, 128990, Note_on_c, 0, 81, 73
1, 128992, Note_off_c, 0, 85, 62
1, 129002, Note_off_c, 0, 79, 60
1, 129021, Note_on_c, 0, 76, 73
1, 129058, Note_on_c, 0, 49, 88
1, 129059, Note_off_c, 0, 81, 59
1, 129079, Note_on_c, 0, 84, 83
1, 129089, Note_off_c, 0, 49, 71
1, 129094, Note_on_c, 0, 79, 77
1, 129097, Note_off_c, 0, 76, 62
1, 129132, Note_off_c, 0, 79, 52
1, 129157, Note_on_c, 0, 83, 73
1, 129176, Note_off_c, 0, 84, 62
1, 129195, Note_on_c, 0, 76, 68
1, 129225, Note_on_c, 0, 70, 70
1, 129232, Note_on_c, 0, 82, 78
1, 129235, Note_off_c, 0, 76, 64
1, 129240, Note_off_c, 0, 83, 63
1, 129247, Note_off_c, 0, 70, 67
1, 129252, Note_on_c, 0, 68, 47
1, 129253, Note_on_c, 0, 79, 75
1, 129254, Note_on_c, 0, 69, 69
1, 129282, Note_off_c, 0, 69, 64
1, 129282, Poly_aftertouch_c, 0, 69, 0
1, 129285, Note_off_c, 0, 68, 58
1, 129299, Note_off_c, 0, 82, 62
1, 129305, Note_off_c, 0, 79, 48
1, 129333, Note_on_c, 0, 76, 71
1, 129385, Note_on_c, 0, 50, 80
1, 129389, Note_on_c, 0, 81, 82
1, 129391, Note_on_c, 0, 77, 86
1, 129400, Note_off_c, 0, 76, 63
1, 129404, Control_c, 0, 64, 32
1, 129419, Note_off_c, 0, 50, 67
1, 129422, Control_c, 0, 64, 64
1, 129443, Control_c, 0, 64, 87
1, 129460, Control_c, 0, 64, 127
1, 129475, Note_on_c, 0, 74, 82
1, 129481, Note_off_c, 0, 77, 61
1, 129535, Note_on_c, 0, 67, 78
1, 129543, Note_on_c, 0, 68, 77
1, 129547, Note_on_c, 0, 77, 66
1, 129558, Note_off_c, 0, 74, 62
1, 129565, Note_off_c, 0, 67, 71
1, 129572, Note_off_c, 0, 68, 70
1, 129617, Note_on_c, 0, 82, 82
1, 129621, Note_off_c, 0, 81, 64
1, 129622, Note_off_c, 0, 77, 61
1, 129641, Note_off_c, 0, 82, 72
1, 129667, Control_c, 0, 64, 97
1, 129685, Control_c, 0, 64, 58
1, 129694, Note_on_c, 0, 76, 74
1, 129694, Note_on_c, 0, 73, 72
1, 129700, Note_on_c, 0, 81, 77
1, 129704, Control_c, 0, 64, 0
1, 129705, Note_off_c, 0, 73, 74
1, 129716, Note_off_c, 0, 76, 66
1, 129762, Note_on_c, 0, 82, 87
1, 129764, Note_off_c, 0, 81, 64
1, 129826, Note_off_c, 0, 82, 65
1, 129833, Note_on_c, 0, 81, 74
1, 129839, Note_on_c, 0, 67, 74
1, 129875, Note_off_c, 0, 67, 65
1, 129888, Note_off_c, 0, 81, 63
1, 129906, Note_on_c, 0, 94, 89
1, 129933, Note_off_c, 0, 94, 69
1, 129989, Note_on_c, 0, 93, 76
1, 129989, Note_on_c, 0, 77, 70
1, 129994, Note_on_c, 0, 74, 70
1, 130020, Note_off_c, 0, 77, 68
1, 130027, Note_off_c, 0, 74, 69
1, 130059, Note_on_c, 0, 82, 82
1, 130073, Note_off_c, 0, 93, 65
1, 130121, Note_off_c, 0, 82, 64
1, 130136, Note_on_c, 0, 81, 62
1, 130160, Note_on_c, 0, 65, 65
1, 130163, Note_off_c, 0, 81, 63
1, 130187, Note_off_c, 0, 65, 64
1, 130230, Note_on_c, 0, 70, 70
1, 130263, Note_off_c, 0, 70, 68
1, 130291, Note_on_c, 0, 79, 77
1, 130296, Note_on_c, 0, 73, 78
1, 130303, Note_on_c, 0, 69, 73
1, 130310, Note_off_c, 0, 79, 68
1, 130320, Note_off_c, 0, 73, 68
1, 130366, Note_on_c, 0, 70, 80
1, 130367, Note_off_c, 0, 69, 60
1, 130367, Poly_aftertouch_c, 0, 69, 0
1, 130426, Note_off_c, 0, 70, 68
1, 130436, Note_on_c, 0, 64, 77
1, 130437, Note_on_c, 0, 69, 77
1, 130465, Note_off_c, 0, 64, 71
1, 130469, Note_off_c, 0, 69, 68
1, 130469, Poly_aftertouch_c, 0, 69, 0
1, 130508, Note_on_c, 0, 82, 73
1, 130528, Note_on_c, 0, 62, 89
1, 130535, Note_off_c, 0, 82, 70
1, 130543, Control_c, 0, 64, 22
1, 130555, Note_off_c, 0, 62, 70
1, 130563, Control_c, 0, 64, 73
1, 130583, Control_c, 0, 64, 127
1, 130592, Note_on_c, 0, 81, 92
1, 130608, Note_on_c, 0, 77, 90
1, 130630, Note_off_c, 0, 77, 72
1, 130634, Poly_aftertouch_c, 0, 67, 0
1, 130643, Poly_aftertouch_c, 0, 65, 127
1, 130644, Note_off_c, 0, 81, 65
1, 130663, Poly_aftertouch_c, 0, 64, 127
1, 130675, Note_on_c, 0, 82, 59
1, 130685, Poly_aftertouch_c, 0, 64, 0
1, 130692, Poly_aftertouch_c, 0, 65, 0
1, 130702, Note_on_c, 0, 77, 80
1, 130713, Note_off_c, 0, 82, 65
1, 130753, Note_on_c, 0, 81, 84
1, 130758, Note_on_c, 0, 68, 68
1, 130765, Note_off_c, 0, 77, 62
1, 130771, Control_c, 0, 64, 117
1, 130772, Note_on_c, 0, 69, 73
1, 130776, Note_on_c, 0, 89, 82
1, 130789, Control_c, 0, 64, 70
1, 130791, Note_off_c, 0, 68, 67
1, 130795, Note_off_c, 0, 81, 60
1, 130801, Note_off_c, 0, 69, 69
1, 130801, Poly_aftertouch_c, 0, 69, 0
1, 130806, Control_c, 0, 64, 16
1, 130821, Note_off_c, 0, 89, 62
1, 130825, Control_c, 0, 64, 0
1, 130832, Note_on_c, 0, 82, 72
1, 130849, Note_on_c, 0, 77, 80
1, 130869, Note_off_c, 0, 82, 61
1, 130902, Note_on_c, 0, 53, 71
1, 130912, Note_on_c, 0, 81, 79
1, 130922, Note_on_c, 0, 88, 80
1, 130925, Note_off_c, 0, 77, 63
1, 130934, Note_off_c, 0, 53, 61
1, 130978, Note_on_c, 0, 82, 77
1, 130981, Note_off_c, 0, 81, 42
1, 130996, Note_off_c, 0, 88, 62
1, 131000, Note_on_c, 0, 77, 80
1, 131027, Note_off_c, 0, 82, 60
1, 131060, Note_on_c, 0, 81, 62
1, 131063, Note_on_c, 0, 70, 67
1, 131068, Note_on_c, 0, 69, 80
1, 131076, Note_off_c, 0, 77, 59
1, 131079, Note_on_c, 0, 86, 77
1, 131088, Note_off_c, 0, 70, 72
1, 131093, Note_on_c, 0, 82, 61
1, 131096, Note_off_c, 0, 69, 72
1, 131096, Poly_aftertouch_c, 0, 69, 0
1, 131138, Note_off_c, 0, 81, 60
1, 131142, Note_on_c, 0, 77, 68
1, 131155, Note_off_c, 0, 86, 64
1, 131163, Note_off_c, 0, 82, 64
1, 131200, Control_c, 0, 64, 45
1, 131212, Note_on_c, 0, 45, 82
1, 131218, Control_c, 0, 64, 86
1, 131221, Note_on_c, 0, 79, 88
1, 131223, Note_on_c, 0, 86, 74
1, 131238, Control_c, 0, 64, 127
1, 131239, Note_off_c, 0, 77, 58
1, 131243, Note_off_c, 0, 45, 67
1, 131294, Note_off_c, 0, 86, 63
1, 131294, Note_on_c, 0, 81, 82
1, 131306, Note_off_c, 0, 79, 60
1, 131326, Note_on_c, 0, 76, 70
1, 131377, Note_on_c, 0, 69, 82
1, 131381, Note_on_c, 0, 68, 76
1, 131391, Note_off_c, 0, 81, 61
1, 131391, Note_on_c, 0, 79, 83
1, 131395, Note_on_c, 0, 85, 81
1, 131405, Note_off_c, 0, 69, 71
1, 131405, Poly_aftertouch_c, 0, 69, 0
1, 131405, Control_c, 0, 64, 102
1, 131406, Note_off_c, 0, 76, 60
1, 131409, Note_off_c, 0, 68, 71
1, 131424, Control_c, 0, 64, 59
1, 131443, Control_c, 0, 64, 0
1, 131466, Note_on_c, 0, 81, 77
1, 131468, Note_off_c, 0, 85, 63
1, 131492, Note_off_c, 0, 79, 60
1, 131496, Note_on_c, 0, 76, 73
1, 131527, Note_off_c, 0, 81, 63
1, 131541, Note_on_c, 0, 49, 69
1, 131560, Note_on_c, 0, 84, 81
1, 131566, Note_on_c, 0, 79, 81
1, 131570, Note_off_c, 0, 49, 62
1, 131573, Control_c, 0, 64, 57
1, 131576, Note_off_c, 0, 76, 63
1, 131593, Control_c, 0, 64, 106
1, 131610, Control_c, 0, 64, 127
1, 131626, Note_on_c, 0, 83, 78
1, 131653, Note_off_c, 0, 84, 61
1, 131655, Note_off_c, 0, 79, 60
1, 131674, Poly_aftertouch_c, 0, 51, 0
1, 131679, Note_on_c, 0, 76, 73
1, 131716, Note_on_c, 0, 70, 66
1, 131720, Note_on_c, 0, 82, 83
1, 131738, Note_on_c, 0, 79, 77
1, 131741, Note_on_c, 0, 69, 63
1, 131742, Note_off_c, 0, 76, 63
1, 131742, Note_off_c, 0, 70, 71
1, 131748, Note_off_c, 0, 83, 62
1, 131748, Note_on_c, 0, 68, 28
1, 131766, Note_off_c, 0, 69, 65
1, 131766, Poly_aftertouch_c, 0, 69, 0
1, 131798, Control_c, 0, 64, 84
1, 131800, Note_off_c, 0, 68, 53
1, 131810, Note_on_c, 0, 76, 73
1, 131814, Note_off_c, 0, 82, 61
1, 131816, Control_c, 0, 64, 36
1, 131817, Note_off_c, 0, 79, 63
1, 131836, Control_c, 0, 64, 0
1, 131896, Note_on_c, 0, 50, 72
1, 131901, Note_on_c, 0, 77, 90
1, 131904, Note_on_c, 0, 81, 83
1, 131907, Note_off_c, 0, 76, 56
1, 131938, Note_off_c, 0, 50, 64
1, 131941, Note_on_c, 0, 52, 34
1, 131946, Control_c, 0, 64, 36
1, 131966, Control_c, 0, 64, 75
1, 131985, Control_c, 0, 64, 127
1, 131998, Note_on_c, 0, 74, 82
1, 132000, Note_off_c, 0, 77, 61
1, 132004, Note_off_c, 0, 52, 33
1, 132004, Poly_aftertouch_c, 0, 52, 0
1, 132057, Note_on_c, 0, 77, 57
1, 132065, Note_on_c, 0, 68, 71
1, 132100, Note_off_c, 0, 68, 70
1, 132101, Note_off_c, 0, 74, 61
1, 132109, Note_on_c, 0, 69, 80
1, 132134, Note_off_c, 0, 69, 72
1, 132134, Poly_aftertouch_c, 0, 69, 0
1, 132157, Note_off_c, 0, 77, 61
1, 132159, Note_on_c, 0, 86, 88
1, 132168, Note_off_c, 0, 81, 65
1, 132195, Note_off_c, 0, 86, 62
1, 132408, Note_on_c, 0, 29, 53
1, 132414, Control_c, 0, 64, 118
1, 132434, Control_c, 0, 64, 77
1, 132452, Control_c, 0, 64, 44
1, 132470, Control_c, 0, 64, 0
1, 132475, Note_on_c, 0, 89, 76
1, 132476, Note_on_c, 0, 41, 52
1, 132494, Note_on_c, 0, 77, 55
1, 132557, Note_off_c, 0, 29, 55
1, 132563, Control_c, 0, 64, 42
1, 132584, Control_c, 0, 64, 69
1, 132603, Control_c, 0, 64, 112
1, 132612, Note_off_c, 0, 77, 61
1, 132620, Control_c, 0, 64, 127
1, 132638, Note_off_c, 0, 41, 52
1, 132646, Note_on_c, 0, 81, 52
1, 132660, Note_off_c, 0, 89, 63
1, 132678, Note_on_c, 0, 84, 51
1, 132687, Note_on_c, 0, 42, 46
1, 132727, Note_off_c, 0, 42, 59
1, 132735, Note_off_c, 0, 84, 58
1, 132749, Note_on_c, 0, 41, 57
1, 132762, Note_on_c, 0, 75, 66
1, 132767, Note_off_c, 0, 81, 59
1, 132796, Note_off_c, 0, 41, 62
1, 132815, Note_off_c, 0, 75, 63
1, 132827, Note_on_c, 0, 87, 80
1, 132829, Note_on_c, 0, 42, 46
1, 132830, Note_off_c, 0, 42, 127
1, 132853, Note_off_c, 0, 87, 72
1, 132875, Poly_aftertouch_c, 0, 42, 0
1, 132901, Control_c, 0, 64, 83
1, 132919, Control_c, 0, 64, 55
1, 132930, Note_on_c, 0, 41, 61
1, 132932, Note_on_c, 0, 73, 77
1, 132937, Note_on_c, 0, 85, 80
1, 132937, Control_c, 0, 64, 41
1, 132955, Note_on_c, 0, 53, 48
1, 132956, Control_c, 0, 64, 49
1, 132967, Note_off_c, 0, 41, 63
1, 132970, Note_off_c, 0, 73, 60
1, 132975, Control_c, 0, 64, 61
1, 132995, Note_on_c, 0, 77, 43
1, 132995, Control_c, 0, 64, 74
1, 133014, Control_c, 0, 64, 108
1, 133031, Control_c, 0, 64, 127
1, 133033, Note_off_c, 0, 85, 63
1, 133036, Note_on_c, 0, 82, 71
1, 133043, Note_on_c, 0, 54, 68
1, 133079, Note_off_c, 0, 54, 64
1, 133093, Note_on_c, 0, 74, 71
1, 133116, Note_on_c, 0, 54, 80
1, 133135, Note_off_c, 0, 53, 37
1, 133136, Poly_aftertouch_c, 0, 53, 0
1, 133141, Note_off_c, 0, 74, 64
1, 133145, Note_on_c, 0, 86, 81
1, 133148, Note_off_c, 0, 54, 72
1, 133149, Note_off_c, 0, 77, 60
1, 133157, Note_off_c, 0, 82, 64
1, 133173, Note_off_c, 0, 86, 70
1, 133200, Control_c, 0, 64, 103
1, 133219, Control_c, 0, 64, 67
1, 133238, Control_c, 0, 64, 36
1, 133243, Note_on_c, 0, 53, 74
1, 133257, Control_c, 0, 64, 32
1, 133259, Note_on_c, 0, 65, 68
1, 133259, Note_on_c, 0, 68, 82
1, 133268, Note_off_c, 0, 53, 65
1, 133268, Note_on_c, 0, 80, 73
1, 133276, Control_c, 0, 64, 48
1, 133294, Control_c, 0, 64, 63
1, 133301, Note_off_c, 0, 65, 62
1, 133311, Note_off_c, 0, 68, 50
1, 133312, Control_c, 0, 64, 77
1, 133321, Note_on_c, 0, 72, 58
1, 133331, Control_c, 0, 64, 127
1, 133346, Note_on_c, 0, 75, 75
1, 133350, Note_on_c, 0, 66, 79
1, 133367, Note_off_c, 0, 80, 64
1, 133371, Note_off_c, 0, 72, 59
1, 133397, Note_off_c, 0, 66, 53
1, 133416, Note_on_c, 0, 69, 80
1, 133418, Note_on_c, 0, 65, 81
1, 133445, Note_off_c, 0, 75, 62
1, 133472, Note_off_c, 0, 65, 60
1, 133473, Note_off_c, 0, 69, 63
1, 133473, Poly_aftertouch_c, 0, 69, 0
1, 133474, Note_on_c, 0, 81, 84
1, 133480, Note_on_c, 0, 66, 64
1, 133499, Control_c, 0, 64, 95
1, 133511, Note_off_c, 0, 66, 66
1, 133514, Note_off_c, 0, 81, 62
1, 133517, Control_c, 0, 64, 43
1, 133538, Control_c, 0, 64, 0
1, 133558, Note_on_c, 0, 65, 75
1, 133584, Note_on_c, 0, 84, 92
1, 133591, Note_on_c, 0, 72, 87
1, 133602, Note_off_c, 0, 65, 64
1, 133631, Control_c, 0, 64, 28
1, 133647, Note_on_c, 0, 67, 60
1, 133648, Control_c, 0, 64, 66
1, 133669, Note_off_c, 0, 84, 62
1, 133669, Control_c, 0, 64, 93
1, 133671, Note_on_c, 0, 74, 79
1, 133672, Note_off_c, 0, 72, 62
1, 133686, Control_c, 0, 64, 127
1, 133690, Note_on_c, 0, 77, 80
1, 133718, Poly_aftertouch_c, 0, 75, 0
1, 133736, Note_off_c, 0, 67, 64
1, 133741, Note_on_c, 0, 65, 82
1, 133778, Note_off_c, 0, 65, 69
1, 133778, Note_on_c, 0, 70, 71
1, 133805, Note_on_c, 0, 68, 55
1, 133821, Note_off_c, 0, 74, 59
1, 133821, Note_off_c, 0, 70, 68
1, 133833, Note_on_c, 0, 82, 91
1, 133836, Note_off_c, 0, 68, 62
1, 133841, Note_off_c, 0, 77, 63
1, 133885, Note_off_c, 0, 82, 61
1, 133968, Note_on_c, 0, 29, 76
1, 134024, Control_c, 0, 64, 75
1, 134036, Note_off_c, 0, 29, 59
1, 134039, Control_c, 0, 64, 32
1, 134059, Control_c, 0, 64, 0
1, 134067, Note_on_c, 0, 41, 69
1, 134068, Note_on_c, 0, 89, 82
1, 134085, Note_on_c, 0, 77, 75
1, 134135, Control_c, 0, 64, 22
1, 134154, Control_c, 0, 64, 56
1, 134155, Note_off_c, 0, 77, 57
1, 134163, Note_off_c, 0, 41, 61
1, 134172, Control_c, 0, 64, 80
1, 134191, Control_c, 0, 64, 127
1, 134204, Note_on_c, 0, 42, 67
1, 134205, Note_on_c, 0, 84, 65
1, 134213, Note_on_c, 0, 81, 22
1, 134218, Note_off_c, 0, 89, 63
1, 134245, Note_off_c, 0, 42, 64
1, 134277, Note_on_c, 0, 41, 59
1, 134281, Note_on_c, 0, 75, 81
1, 134300, Note_off_c, 0, 84, 60
1, 134320, Note_on_c, 0, 42, 82
1, 134322, Note_off_c, 0, 41, 65
1, 134327, Note_off_c, 0, 81, 59
1, 134336, Note_off_c, 0, 75, 66
1, 134346, Note_on_c, 0, 87, 87
1, 134354, Note_off_c, 0, 42, 65
1, 134371, Note_off_c, 0, 87, 71
1, 134434, Control_c, 0, 64, 81
1, 134445, Note_on_c, 0, 73, 90
1, 134446, Note_on_c, 0, 41, 73
1, 134452, Note_on_c, 0, 53, 75
1, 134452, Note_on_c, 0, 85, 89
1, 134453, Control_c, 0, 64, 46
1, 134472, Control_c, 0, 64, 9
1, 134480, Note_off_c, 0, 41, 50
1, 134487, Note_off_c, 0, 53, 64
1, 134490, Control_c, 0, 64, 17
1, 134509, Note_on_c, 0, 77, 67
1, 134510, Control_c, 0, 64, 40
1, 134517, Note_off_c, 0, 73, 60
1, 134527, Control_c, 0, 64, 61
1, 134538, Note_on_c, 0, 82, 73
1, 134547, Note_on_c, 0, 54, 78
1, 134547, Control_c, 0, 64, 81
1, 134549, Note_off_c, 0, 85, 64
1, 134564, Control_c, 0, 64, 127
1, 134578, Note_off_c, 0, 54, 67
1, 134585, Note_on_c, 0, 53, 54
1, 134609, Note_on_c, 0, 74, 77
1, 134635, Note_on_c, 0, 54, 81
1, 134650, Note_off_c, 0, 53, 62
1, 134660, Note_on_c, 0, 86, 87
1, 134666, Note_off_c, 0, 74, 63
1, 134672, Note_off_c, 0, 54, 66
1, 134683, Note_off_c, 0, 82, 63
1, 134684, Note_off_c, 0, 86, 73
1, 134686, Note_off_c, 0, 77, 32
1, 134734, Control_c, 0, 64, 91
1, 134753, Control_c, 0, 64, 50
1, 134766, Note_on_c, 0, 53, 75
1, 134770, Control_c, 0, 64, 0
1, 134774, Note_on_c, 0, 68, 91
1, 134776, Note_on_c, 0, 65, 72
1, 134777, Note_on_c, 0, 80, 86
1, 134789, Control_c, 0, 64, 13
1, 134798, Note_off_c, 0, 53, 67
1, 134808, Control_c, 0, 64, 40
1, 134814, Note_off_c, 0, 65, 62
1, 134828, Control_c, 0, 64, 61
1, 134845, Control_c, 0, 64, 82
1, 134850, Note_on_c, 0, 72, 64
1, 134855, Note_off_c, 0, 68, 62
1, 134861, Note_on_c, 0, 75, 80
1, 134864, Control_c, 0, 64, 127
1, 134876, Note_on_c, 0, 66, 80
1, 134886, Note_off_c, 0, 80, 64
1, 134910, Note_off_c, 0, 66, 63
1, 134928, Note_off_c, 0, 72, 42
1, 134943, Note_on_c, 0, 69, 80
1, 134950, Note_on_c, 0, 65, 80
1, 134979, Note_off_c, 0, 75, 60
1, 134997, Note_on_c, 0, 81, 85
1, 135001, Note_off_c, 0, 69, 64
1, 135001, Poly_aftertouch_c, 0, 69, 0
1, 135010, Note_on_c, 0, 66, 78
1, 135015, Note_off_c, 0, 65, 63
1, 135025, Note_off_c, 0, 81, 69
1, 135036, Note_off_c, 0, 66, 75
1, 135052, Control_c, 0, 64, 71
1, 135070, Control_c, 0, 64, 0
1, 135089, Note_on_c, 0, 65, 88
1, 135099, Note_on_c, 0, 84, 97
1, 135107, Note_on_c, 0, 72, 90
1, 135151, Note_off_c, 0, 65, 64
1, 135160, Note_on_c, 0, 75, 25
1, 135162, Note_on_c, 0, 74, 13
1, 135162, Control_c, 0, 64, 47
1, 135164, Note_off_c, 0, 84, 62
1, 135181, Control_c, 0, 64, 75
1, 135184, Note_on_c, 0, 67, 88
1, 135193, Note_off_c, 0, 72, 62
1, 135199, Control_c, 0, 64, 117
1, 135204, Note_on_c, 0, 77, 68
1, 135219, Note_off_c, 0, 75, 32
1, 135222, Control_c, 0, 64, 127
1, 135235, Note_on_c, 0, 76, 52
1, 135266, Note_off_c, 0, 67, 66
1, 135267, Note_on_c, 0, 65, 91
1, 135274, Note_on_c, 0, 70, 93
1, 135317, Note_off_c, 0, 65, 62
1, 135333, Note_off_c, 0, 70, 67
1, 135336, Note_on_c, 0, 82, 93
1, 135343, Note_off_c, 0, 74, 54
1, 135346, Note_off_c, 0, 77, 62
1, 135377, Note_off_c, 0, 76, 22
1, 135379, Note_off_c, 0, 82, 67
1, 135476, Note_on_c, 0, 34, 84
1, 135500, Control_c, 0, 64, 60
1, 135513, Note_on_c, 0, 46, 62
1, 135518, Control_c, 0, 64, 0
1, 135546, Note_on_c, 0, 82, 72
1, 135547, Note_on_c, 0, 94, 74
1, 135549, Note_off_c, 0, 34, 63
1, 135557, Note_on_c, 0, 96, 74
1, 135559, Note_on_c, 0, 95, 74
1, 135579, Note_on_c, 0, 47, 45
1, 135580, Note_on_c, 0, 87, 29
1, 135584, Note_on_c, 0, 48, 47
1, 135591, Note_off_c, 0, 46, 35
1, 135593, Control_c, 0, 64, 51
1, 135612, Control_c, 0, 64, 99
1, 135613, Note_off_c, 0, 82, 36
1, 135617, Note_on_c, 0, 90, 19
1, 135631, Control_c, 0, 64, 127
1, 135634, Note_off_c, 0, 48, 50
1, 135645, Note_off_c, 0, 95, 60
1, 135645, Poly_aftertouch_c, 0, 95, 0
1, 135646, Note_off_c, 0, 96, 63
1, 135648, Poly_aftertouch_c, 0, 83, 0
1, 135666, Note_off_c, 0, 47, 59
1, 135679, Note_off_c, 0, 94, 43
1, 135695, Note_on_c, 0, 46, 81
1, 135705, Note_off_c, 0, 87, 60
1, 135716, Note_on_c, 0, 86, 73
1, 135722, Note_off_c, 0, 90, 59
1, 135726, Note_on_c, 0, 80, 90
1, 135757, Note_off_c, 0, 46, 62
1, 135763, Note_on_c, 0, 89, 37
1, 135773, Note_on_c, 0, 48, 73
1, 135794, Note_on_c, 0, 92, 87
1, 135799, Note_off_c, 0, 80, 64
1, 135799, Note_off_c, 0, 86, 60
1, 135805, Note_off_c, 0, 89, 53
1, 135838, Note_off_c, 0, 92, 65
1, 135860, Note_off_c, 0, 48, 64
1, 135873, Note_on_c, 0, 46, 69
1, 135873, Control_c, 0, 64, 81
1, 135889, Note_on_c, 0, 89, 82
1, 135890, Note_on_c, 0, 76, 88
1, 135890, Note_on_c, 0, 77, 88
1, 135892, Note_on_c, 0, 58, 86
1, 135893, Control_c, 0, 64, 49
1, 135911, Note_on_c, 0, 88, 71
1, 135913, Note_off_c, 0, 46, 64
1, 135917, Control_c, 0, 64, 35
1, 135924, Note_off_c, 0, 76, 65
1, 135926, Note_off_c, 0, 88, 66
1, 135928, Control_c, 0, 64, 49
1, 135934, Note_off_c, 0, 77, 57
1, 135948, Control_c, 0, 64, 64
1, 135949, Note_off_c, 0, 58, 66
1, 135954, Note_on_c, 0, 82, 90
1, 135964, Note_on_c, 0, 87, 71
1, 135966, Control_c, 0, 64, 85
1, 135976, Note_off_c, 0, 89, 66
1, 135984, Control_c, 0, 64, 127
1, 135991, Note_on_c, 0, 58, 71
1, 136030, Note_off_c, 0, 82, 65
1, 136049, Note_on_c, 0, 61, 26
1, 136050, Note_on_c, 0, 78, 96
1, 136092, Note_off_c, 0, 58, 66
1, 136096, Note_off_c, 0, 87, 48
1, 136100, Note_on_c, 0, 90, 91
1, 136105, Note_off_c, 0, 61, 51
1, 136113, Note_off_c, 0, 78, 68
1, 136126, Note_on_c, 0, 58, 67
1, 136135, Note_off_c, 0, 90, 69
1, 136155, Control_c, 0, 64, 113
1, 136173, Control_c, 0, 64, 72
1, 136179, Note_off_c, 0, 58, 63
1, 136189, Note_on_c, 0, 70, 91
1, 136191, Control_c, 0, 64, 47
1, 136208, Note_on_c, 0, 73, 97
1, 136210, Control_c, 0, 64, 44
1, 136223, Note_on_c, 0, 85, 81
1, 136229, Control_c, 0, 64, 57
1, 136244, Note_off_c, 0, 70, 69
1, 136247, Control_c, 0, 64, 71
1, 136266, Control_c, 0, 64, 100
1, 136275, Note_on_c, 0, 71, 71
1, 136285, Note_on_c, 0, 77, 60
1, 136285, Control_c, 0, 64, 127
1, 136295, Note_off_c, 0, 73, 63
1, 136295, Poly_aftertouch_c, 0, 61, 0
1, 136319, Note_on_c, 0, 80, 63
1, 136332, Note_off_c, 0, 71, 65
1, 136344, Note_on_c, 0, 74, 69
1, 136360, Note_off_c, 0, 85, 64
1, 136363, Note_off_c, 0, 77, 59
1, 136366, Note_on_c, 0, 69, 61
1, 136381, Note_on_c, 0, 68, 17
1, 136409, Note_off_c, 0, 80, 63
1, 136410, Note_on_c, 0, 71, 93
1, 136422, Note_off_c, 0, 74, 65
1, 136428, Note_on_c, 0, 84, 29
1, 136454, Control_c, 0, 64, 61
1, 136455, Note_off_c, 0, 68, 51
1, 136463, Note_off_c, 0, 69, 35
1, 136463, Poly_aftertouch_c, 0, 69, 0
1, 136471, Control_c, 0, 64, 0
1, 136478, Note_off_c, 0, 84, 47
1, 136501, Note_on_c, 0, 70, 99
1, 136509, Note_off_c, 0, 71, 68
1, 136518, Note_on_c, 0, 89, 99
1, 136521, Note_on_c, 0, 77, 99
1, 136547, Control_c, 0, 64, 55
1, 136553, Note_off_c, 0, 70, 76
1, 136557, Note_on_c, 0, 79, 45
1, 136558, Note_off_c, 0, 79, 127
1, 136566, Control_c, 0, 64, 87
1, 136567, Note_off_c, 0, 89, 66
1, 136578, Note_off_c, 0, 77, 55
1, 136583, Control_c, 0, 64, 127
1, 136611, Note_on_c, 0, 78, 87
1, 136611, Note_on_c, 0, 82, 83
1, 136675, Note_off_c, 0, 78, 63
1, 136702, Note_on_c, 0, 75, 98
1, 136762, Note_off_c, 0, 82, 63
1, 136769, Note_on_c, 0, 87, 88
1, 136776, Note_off_c, 0, 75, 68
1, 136820, Poly_aftertouch_c, 0, 79, 0
1, 136824, Note_off_c, 0, 87, 63
1, 136845, Control_c, 0, 64, 83
1, 136865, Control_c, 0, 64, 28
1, 136883, Note_on_c, 0, 34, 85
1, 136883, Control_c, 0, 64, 0
1, 136903, Control_c, 0, 64, 9
1, 136920, Note_on_c, 0, 46, 85
1, 136920, Control_c, 0, 64, 58
1, 136940, Control_c, 0, 64, 127
1, 136944, Note_on_c, 0, 94, 102
1, 136946, Note_on_c, 0, 82, 97
1, 136959, Note_on_c, 0, 87, 72
1, 136962, Note_off_c, 0, 34, 65
1, 136988, Note_off_c, 0, 87, 64
1, 136994, Note_off_c, 0, 46, 67
1, 136999, Note_on_c, 0, 95, 29
1, 137048, Note_off_c, 0, 82, 34
1, 137049, Note_off_c, 0, 95, 52
1, 137049, Poly_aftertouch_c, 0, 95, 0
1, 137052, Note_on_c, 0, 86, 74
1, 137065, Poly_aftertouch_c, 0, 83, 0
1, 137073, Note_on_c, 0, 89, 66
1, 137078, Note_off_c, 0, 94, 63
1, 137130, Note_on_c, 0, 48, 22
1, 137135, Poly_aftertouch_c, 0, 47, 127
1, 137140, Note_on_c, 0, 80, 89
1, 137175, Note_on_c, 0, 49, 29
1, 137177, Poly_aftertouch_c, 0, 47, 0
1, 137198, Note_on_c, 0, 92, 92
1, 137206, Note_off_c, 0, 80, 63
1, 137211, Note_off_c, 0, 89, 63
1, 137212, Note_off_c, 0, 86, 62
1, 137222, Note_on_c, 0, 47, 50
1, 137223, Poly_aftertouch_c, 0, 46, 0
1, 137239, Note_off_c, 0, 92, 69
1, 137248, Note_off_c, 0, 49, 47
1, 137257, Control_c, 0, 64, 77
1, 137276, Note_off_c, 0, 47, 63
1, 137276, Control_c, 0, 64, 53
1, 137278, Note_off_c, 0, 48, 41
1, 137284, Note_on_c, 0, 77, 104
1, 137289, Note_on_c, 0, 89, 91
1, 137291, Note_on_c, 0, 58, 90
1, 137313, Control_c, 0, 64, 66
1, 137317, Poly_aftertouch_c, 0, 46, 0
1, 137328, Note_off_c, 0, 77, 68
1, 137331, Control_c, 0, 64, 87
1, 137346, Note_off_c, 0, 58, 67
1, 137350, Control_c, 0, 64, 127
1, 137360, Note_on_c, 0, 82, 91
1, 137372, Note_on_c, 0, 87, 85
1, 137378, Note_off_c, 0, 89, 66
1, 137403, Note_on_c, 0, 58, 72
1, 137449, Note_off_c, 0, 82, 65
1, 137460, Note_on_c, 0, 78, 92
1, 137468, Note_off_c, 0, 87, 66
1, 137481, Note_off_c, 0, 58, 65
1, 137489, Note_on_c, 0, 77, 68
1, 137511, Note_off_c, 0, 77, 70
1, 137512, Note_on_c, 0, 90, 93
1, 137516, Note_off_c, 0, 78, 65
1, 137541, Note_on_c, 0, 58, 81
1, 137552, Note_off_c, 0, 90, 66
1, 137594, Control_c, 0, 64, 73
1, 137605, Poly_aftertouch_c, 0, 76, 127
1, 137607, Poly_aftertouch_c, 0, 76, 0
1, 137611, Control_c, 0, 64, 44
1, 137620, Note_on_c, 0, 70, 95
1, 137620, Note_on_c, 0, 73, 96
1, 137621, Note_off_c, 0, 58, 66
1, 137630, Note_on_c, 0, 85, 90
1, 137630, Control_c, 0, 64, 42
1, 137650, Control_c, 0, 64, 58
1, 137670, Control_c, 0, 64, 75
1, 137676, Note_off_c, 0, 70, 70
1, 137688, Control_c, 0, 64, 127
1, 137698, Note_off_c, 0, 73, 61
1, 137710, Note_on_c, 0, 71, 35
1, 137712, Note_on_c, 0, 77, 65
1, 137717, Poly_aftertouch_c, 0, 61, 0
1, 137734, Note_on_c, 0, 80, 72
1, 137762, Note_on_c, 0, 70, 93
1, 137765, Note_off_c, 0, 71, 64
1, 137766, Note_off_c, 0, 85, 63
1, 137770, Note_on_c, 0, 74, 80
1, 137776, Note_off_c, 0, 77, 61
1, 137827, Note_off_c, 0, 80, 64
1, 137829, Note_off_c, 0, 74, 67
1, 137838, Note_off_c, 0, 70, 64
1, 137845, Note_on_c, 0, 71, 97
1, 137855, Control_c, 0, 64, 101
1, 137861, Poly_aftertouch_c, 0, 68, 0
1, 137875, Control_c, 0, 64, 40
1, 137893, Control_c, 0, 64, 0
1, 137930, Note_on_c, 0, 89, 102
1, 137931, Note_on_c, 0, 70, 104
1, 137934, Note_on_c, 0, 77, 102
1, 137942, Note_off_c, 0, 71, 66
1, 137946, Note_on_c, 0, 79, 81
1, 137949, Control_c, 0, 64, 30
1, 137970, Control_c, 0, 64, 84
1, 137972, Note_off_c, 0, 79, 45
1, 137979, Note_off_c, 0, 70, 75
1, 137986, Note_off_c, 0, 77, 67
1, 137989, Control_c, 0, 64, 127
1, 137994, Note_off_c, 0, 89, 68
1, 138035, Note_on_c, 0, 78, 90
1, 138037, Note_on_c, 0, 82, 84
1, 138050, Note_on_c, 0, 77, 42
1, 138051, Note_off_c, 0, 77, 127
1, 138106, Note_off_c, 0, 78, 64
1, 138138, Note_on_c, 0, 75, 96
1, 138192, Poly_aftertouch_c, 0, 79, 0
1, 138194, Note_off_c, 0, 82, 62
1, 138206, Note_on_c, 0, 87, 91
1, 138209, Note_off_c, 0, 75, 66
1, 138248, Control_c, 0, 64, 65
1, 138253, Note_off_c, 0, 87, 64
1, 138266, Control_c, 0, 64, 0
1, 138323, Control_c, 0, 64, 55
1, 138333, Note_on_c, 0, 46, 97
1, 138336, Note_on_c, 0, 34, 92
1, 138340, Control_c, 0, 64, 127
1, 138341, Note_on_c, 0, 85, 108
1, 138343, Note_on_c, 0, 97, 106
1, 138358, Note_off_c, 0, 46, 73
1, 138363, Note_off_c, 0, 34, 69
1, 138389, Note_off_c, 0, 85, 64
1, 138446, Note_on_c, 0, 90, 81
1, 138476, Note_off_c, 0, 97, 57
1, 138486, Note_on_c, 0, 92, 44
1, 138527, Note_off_c, 0, 92, 50
1, 138533, Poly_aftertouch_c, 0, 94, 0
1, 138539, Note_on_c, 0, 54, 94
1, 138541, Note_on_c, 0, 42, 94
1, 138544, Note_on_c, 0, 85, 77
1, 138547, Control_c, 0, 64, 102
1, 138553, Poly_aftertouch_c, 0, 34, 0
1, 138566, Note_off_c, 0, 54, 73
1, 138566, Control_c, 0, 64, 37
1, 138574, Note_off_c, 0, 42, 70
1, 138576, Note_off_c, 0, 90, 62
1, 138586, Control_c, 0, 64, 0
1, 138612, Note_off_c, 0, 85, 65
1, 138617, Note_on_c, 0, 97, 92
1, 138656, Note_off_c, 0, 97, 63
1, 138668, Poly_aftertouch_c, 0, 94, 0
1, 138732, Note_on_c, 0, 35, 93
1, 138732, Note_on_c, 0, 47, 91
1, 138732, Note_on_c, 0, 88, 108
1, 138733, Note_on_c, 0, 100, 108
1, 138734, Control_c, 0, 64, 59
1, 138753, Control_c, 0, 64, 127
1, 138757, Note_off_c, 0, 47, 70
1, 138759, Note_off_c, 0, 35, 64
1, 138776, Note_off_c, 0, 88, 69
1, 138813, Note_off_c, 0, 100, 62
1, 138838, Note_on_c, 0, 90, 71
1, 138860, Note_on_c, 0, 91, 62
1, 138878, Note_off_c, 0, 90, 48
1, 138905, Note_on_c, 0, 87, 95
1, 138922, Note_on_c, 0, 54, 93
1, 138922, Poly_aftertouch_c, 0, 35, 127
1, 138923, Note_on_c, 0, 42, 92
1, 138925, Note_off_c, 0, 91, 66
1, 138943, Poly_aftertouch_c, 0, 35, 0
1, 138947, Note_off_c, 0, 54, 74
1, 138960, Note_off_c, 0, 42, 67
1, 138960, Control_c, 0, 64, 72
1, 138973, Note_off_c, 0, 87, 65
1, 138977, Control_c, 0, 64, 0
1, 138995, Note_on_c, 0, 99, 87
1, 139020, Note_off_c, 0, 99, 70
1, 139094, Note_on_c, 0, 81, 102
1, 139094, Note_on_c, 0, 93, 95
1, 139099, Note_on_c, 0, 49, 98
1, 139099, Note_on_c, 0, 37, 92
1, 139111, Control_c, 0, 64, 90
1, 139119, Note_on_c, 0, 92, 58
1, 139123, Note_off_c, 0, 49, 75
1, 139127, Note_off_c, 0, 37, 66
1, 139127, Note_on_c, 0, 88, 44
1, 139127, Control_c, 0, 64, 127
1, 139135, Note_off_c, 0, 81, 65
1, 139144, Note_off_c, 0, 92, 64
1, 139185, Note_off_c, 0, 93, 65
1, 139187, Note_on_c, 0, 90, 80
1, 139196, Note_off_c, 0, 88, 64
1, 139196, Note_on_c, 0, 88, 44
1, 139280, Note_on_c, 0, 54, 98
1, 139282, Note_on_c, 0, 42, 93
1, 139286, Note_on_c, 0, 82, 92
1, 139289, Note_on_c, 0, 89, 46
1, 139292, Note_off_c, 0, 89, 46
1, 139308, Note_off_c, 0, 54, 74
1, 139317, Note_off_c, 0, 42, 70
1, 139317, Poly_aftertouch_c, 0, 37, 0
1, 139333, Control_c, 0, 64, 121
1, 139345, Note_off_c, 0, 88, 56
1, 139351, Control_c, 0, 64, 62
1, 139352, Note_off_c, 0, 82, 64
1, 139353, Note_on_c, 0, 94, 93
1, 139362, Note_off_c, 0, 90, 65
1, 139370, Control_c, 0, 64, 0
1, 139405, Note_off_c, 0, 94, 64
1, 139493, Note_on_c, 0, 39, 92
1, 139493, Note_on_c, 0, 51, 98
1, 139495, Note_on_c, 0, 85, 107
1, 139499, Note_on_c, 0, 97, 105
1, 139500, Control_c, 0, 64, 73
1, 139521, Control_c, 0, 64, 127
1, 139523, Note_off_c, 0, 51, 71
1, 139529, Note_off_c, 0, 39, 68
1, 139542, Note_off_c, 0, 85, 66
1, 139566, Note_off_c, 0, 97, 64
1, 139606, Note_on_c, 0, 87, 83
1, 139609, Note_on_c, 0, 90, 84
1, 139718, Note_on_c, 0, 54, 94
1, 139719, Note_on_c, 0, 42, 89
1, 139729, Note_on_c, 0, 83, 86
1, 139765, Note_off_c, 0, 54, 63
1, 139766, Note_off_c, 0, 87, 55
1, 139777, Note_off_c, 0, 42, 59
1, 139825, Note_on_c, 0, 95, 99
1, 139830, Note_off_c, 0, 83, 59
1, 139853, Note_off_c, 0, 90, 62
1, 139876, Note_off_c, 0, 95, 65
1, 139876, Poly_aftertouch_c, 0, 95, 0
1, 139951, Control_c, 0, 64, 47
1, 139968, Control_c, 0, 64, 0
1, 140015, Note_on_c, 0, 52, 90
1, 140017, Note_on_c, 0, 40, 92
1, 140034, Note_on_c, 0, 50, 64
1, 140048, Note_on_c, 0, 91, 110
1, 140048, Note_on_c, 0, 96, 108
1, 140062, Control_c, 0, 64, 110
1, 140075, Note_off_c, 0, 50, 39
1, 140080, Control_c, 0, 64, 127
1, 140113, Note_off_c, 0, 40, 62
1, 140142, Note_off_c, 0, 52, 61
1, 140142, Poly_aftertouch_c, 0, 52, 0
1, 140211, Note_off_c, 0, 91, 54
1, 140254, Note_on_c, 0, 94, 89
1, 140257, Note_off_c, 0, 96, 65
1, 140268, Note_on_c, 0, 85, 88
1, 140350, Note_off_c, 0, 85, 58
1, 140361, Note_on_c, 0, 91, 90
1, 140376, Note_on_c, 0, 96, 89
1, 140378, Note_on_c, 0, 55, 75
1, 140382, Note_off_c, 0, 94, 64
1, 140398, Note_on_c, 0, 46, 74
1, 140410, Note_off_c, 0, 55, 70
1, 140429, Note_off_c, 0, 46, 66
1, 140464, Note_on_c, 0, 85, 88
1, 140469, Note_on_c, 0, 94, 79
1, 140472, Note_off_c, 0, 91, 65
1, 140479, Note_off_c, 0, 96, 64
1, 140501, Note_off_c, 0, 94, 69
1, 140515, Poly_aftertouch_c, 0, 49, 0
1, 140516, Note_off_c, 0, 85, 63
1, 140565, Note_on_c, 0, 88, 90
1, 140567, Note_on_c, 0, 93, 85
1, 140574, Note_on_c, 0, 49, 71
1, 140575, Note_on_c, 0, 58, 84
1, 140601, Note_on_c, 0, 87, 36
1, 140602, Note_off_c, 0, 87, 127
1, 140604, Note_off_c, 0, 58, 73
1, 140611, Note_off_c, 0, 49, 67
1, 140663, Note_off_c, 0, 93, 66
1, 140669, Note_on_c, 0, 82, 85
1, 140671, Note_off_c, 0, 88, 53
1, 140684, Poly_aftertouch_c, 0, 90, 127
1, 140689, Note_on_c, 0, 91, 46
1, 140728, Note_off_c, 0, 82, 61
1, 140741, Note_on_c, 0, 61, 89
1, 140750, Note_on_c, 0, 52, 80
1, 140754, Note_on_c, 0, 88, 74
1, 140756, Note_on_c, 0, 93, 82
1, 140777, Note_off_c, 0, 91, 31
1, 140777, Poly_aftertouch_c, 0, 90, 0
1, 140782, Note_off_c, 0, 52, 65
1, 140782, Poly_aftertouch_c, 0, 52, 0
1, 140798, Note_off_c, 0, 61, 64
1, 140823, Note_off_c, 0, 88, 61
1, 140825, Note_off_c, 0, 93, 66
1, 140831, Note_on_c, 0, 91, 53
1, 140838, Note_on_c, 0, 82, 82
1, 140860, Note_off_c, 0, 91, 61
1, 140860, Note_off_c, 0, 82, 72
1, 140923, Note_on_c, 0, 90, 94
1, 140933, Note_on_c, 0, 55, 80
1, 140936, Note_on_c, 0, 65, 73
1, 140939, Note_on_c, 0, 85, 82
1, 140963, Note_off_c, 0, 55, 65
1, 140969, Note_off_c, 0, 65, 69
1, 140998, Note_off_c, 0, 85, 43
1, 141008, Note_on_c, 0, 88, 77
1, 141015, Note_off_c, 0, 90, 60
1, 141017, Note_on_c, 0, 79, 80
1, 141024, Poly_aftertouch_c, 0, 64, 127
1, 141061, Poly_aftertouch_c, 0, 64, 0
1, 141102, Note_on_c, 0, 67, 88
1, 141104, Note_on_c, 0, 85, 92
1, 141111, Note_on_c, 0, 58, 92
1, 141113, Note_off_c, 0, 88, 65
1, 141120, Note_on_c, 0, 90, 80
1, 141122, Note_off_c, 0, 79, 58
1, 141136, Note_off_c, 0, 67, 67
1, 141141, Note_off_c, 0, 58, 66
1, 141180, Note_off_c, 0, 85, 61
1, 141189, Note_off_c, 0, 90, 64
1, 141191, Note_on_c, 0, 88, 67
1, 141201, Note_on_c, 0, 89, 47
1, 141203, Note_on_c, 0, 79, 80
1, 141222, Note_off_c, 0, 88, 69
1, 141237, Note_off_c, 0, 89, 55
1, 141258, Note_off_c, 0, 79, 59
1, 141292, Note_on_c, 0, 70, 97
1, 141298, Note_on_c, 0, 61, 88
1, 141306, Note_on_c, 0, 87, 93
1, 141306, Note_on_c, 0, 82, 91
1, 141315, Note_off_c, 0, 70, 67
1, 141327, Note_off_c, 0, 61, 69
1, 141379, Note_on_c, 0, 85, 83
1, 141387, Note_off_c, 0, 82, 65
1, 141390, Note_off_c, 0, 87, 60
1, 141398, Note_on_c, 0, 76, 82
1, 141476, Note_on_c, 0, 73, 92
1, 141478, Note_off_c, 0, 76, 62
1, 141492, Note_off_c, 0, 85, 63
1, 141494, Note_on_c, 0, 82, 80
1, 141495, Note_on_c, 0, 87, 82
1, 141511, Note_on_c, 0, 64, 48
1, 141530, Note_off_c, 0, 73, 63
1, 141548, Note_off_c, 0, 64, 56
1, 141556, Note_on_c, 0, 85, 80
1, 141564, Note_on_c, 0, 76, 91
1, 141581, Note_off_c, 0, 82, 64
1, 141589, Note_off_c, 0, 87, 66
1, 141610, Note_off_c, 0, 76, 66
1, 141623, Note_off_c, 0, 85, 64
1, 141632, Control_c, 0, 64, 94
1, 141652, Control_c, 0, 64, 35
1, 141670, Control_c, 0, 64, 0
1, 141675, Note_on_c, 0, 76, 96
1, 141687, Note_on_c, 0, 79, 101
1, 141708, Control_c, 0, 64, 29
1, 141709, Note_on_c, 0, 84, 72
1, 141709, Note_on_c, 0, 86, 71
1, 141726, Control_c, 0, 64, 63
1, 141736, Note_off_c, 0, 86, 67
1, 141739, Note_on_c, 0, 81, 65
1, 141744, Note_off_c, 0, 79, 64
1, 141744, Note_off_c, 0, 76, 65
1, 141745, Control_c, 0, 64, 111
1, 141762, Control_c, 0, 64, 127
1, 141780, Note_off_c, 0, 84, 62
1, 141803, Poly_aftertouch_c, 0, 67, 127
1, 141808, Note_on_c, 0, 73, 85
1, 141833, Note_off_c, 0, 81, 64
1, 141868, Note_on_c, 0, 64, 78
1, 141882, Note_off_c, 0, 73, 64
1, 141889, Note_on_c, 0, 84, 69
1, 141891, Note_on_c, 0, 79, 51
1, 141920, Note_off_c, 0, 64, 62
1, 141928, Note_off_c, 0, 79, 65
1, 141930, Note_on_c, 0, 82, 80
1, 141933, Poly_aftertouch_c, 0, 67, 0
1, 141935, Note_on_c, 0, 78, 9
1, 141959, Note_off_c, 0, 84, 65
1, 141964, Note_on_c, 0, 73, 82
1, 141987, Note_off_c, 0, 82, 68
1, 141992, Note_off_c, 0, 73, 74
1, 142007, Control_c, 0, 64, 57
1, 142016, Note_off_c, 0, 78, 56
1, 142025, Control_c, 0, 64, 0
1, 142050, Note_on_c, 0, 73, 98
1, 142055, Note_on_c, 0, 81, 91
1, 142060, Note_on_c, 0, 76, 93
1, 142063, Control_c, 0, 64, 13
1, 142081, Control_c, 0, 64, 53
1, 142097, Note_off_c, 0, 73, 65
1, 142099, Control_c, 0, 64, 86
1, 142118, Control_c, 0, 64, 127
1, 142145, Note_on_c, 0, 78, 78
1, 142155, Note_off_c, 0, 81, 57
1, 142155, Note_on_c, 0, 70, 84
1, 142172, Note_off_c, 0, 76, 62
1, 142243, Note_off_c, 0, 70, 58
1, 142245, Note_on_c, 0, 81, 79
1, 142267, Note_on_c, 0, 61, 66
1, 142271, Note_off_c, 0, 78, 61
1, 142283, Note_on_c, 0, 76, 63
1, 142294, Note_off_c, 0, 61, 64
1, 142312, Note_on_c, 0, 79, 79
1, 142330, Note_on_c, 0, 70, 80
1, 142339, Note_off_c, 0, 76, 60
1, 142340, Note_off_c, 0, 81, 64
1, 142370, Note_off_c, 0, 79, 60
1, 142370, Note_off_c, 0, 70, 70
1, 142381, Control_c, 0, 64, 59
1, 142399, Control_c, 0, 64, 0
1, 142431, Note_on_c, 0, 70, 95
1, 142435, Note_on_c, 0, 77, 94
1, 142442, Note_on_c, 0, 73, 93
1, 142456, Control_c, 0, 64, 54
1, 142475, Control_c, 0, 64, 99
1, 142482, Note_off_c, 0, 70, 67
1, 142492, Control_c, 0, 64, 127
1, 142530, Note_on_c, 0, 75, 84
1, 142537, Note_off_c, 0, 73, 63
1, 142540, Note_on_c, 0, 67, 77
1, 142543, Note_off_c, 0, 77, 60
1, 142633, Note_on_c, 0, 77, 82
1, 142638, Note_on_c, 0, 73, 87
1, 142653, Note_off_c, 0, 75, 62
1, 142658, Note_off_c, 0, 67, 58
1, 142661, Note_on_c, 0, 58, 63
1, 142688, Note_off_c, 0, 58, 63
1, 142701, Note_off_c, 0, 73, 62
1, 142737, Note_on_c, 0, 76, 89
1, 142743, Note_on_c, 0, 67, 83
1, 142762, Note_off_c, 0, 77, 63
1, 142778, Note_off_c, 0, 67, 62
1, 142812, Note_off_c, 0, 76, 65
1, 142873, Note_on_c, 0, 53, 71
1, 142940, Note_on_c, 0, 62, 75
1, 143001, Note_on_c, 0, 79, 98
1, 143019, Note_on_c, 0, 70, 84
1, 143035, Control_c, 0, 64, 73
1, 143053, Control_c, 0, 64, 0
1, 143148, Control_c, 0, 64, 23
1, 143165, Control_c, 0, 64, 67
1, 143168, Note_on_c, 0, 65, 63
1, 143175, Note_off_c, 0, 70, 62
1, 143184, Control_c, 0, 64, 120
1, 143203, Control_c, 0, 64, 127
1, 143265, Note_off_c, 0, 53, 60
1, 143316, Note_off_c, 0, 65, 56
1, 143343, Note_on_c, 0, 70, 63
1, 143416, Note_off_c, 0, 70, 65
1, 143417, Note_off_c, 0, 79, 53
1, 143427, Note_off_c, 0, 62, 34
1, 143459, Note_on_c, 0, 77, 92
1, 143513, Note_on_c, 0, 53, 64
1, 143517, Note_off_c, 0, 77, 65
1, 143636, Note_on_c, 0, 59, 68
1, 143661, Note_on_c, 0, 74, 92
1, 143676, Note_on_c, 0, 68, 80
1, 143690, Control_c, 0, 64, 118
1, 143708, Control_c, 0, 64, 67
1, 143726, Control_c, 0, 64, 15
1, 143745, Control_c, 0, 64, 0
1, 143771, Note_off_c, 0, 68, 60
1, 143800, Control_c, 0, 64, 15
1, 143805, Note_on_c, 0, 65, 61
1, 143821, Control_c, 0, 64, 49
1, 143839, Control_c, 0, 64, 74
1, 143857, Control_c, 0, 64, 127
1, 143909, Note_on_c, 0, 68, 76
1, 143914, Note_off_c, 0, 65, 63
1, 143980, Note_off_c, 0, 74, 48
1, 143998, Note_on_c, 0, 75, 74
1, 144004, Note_off_c, 0, 68, 63
1, 144030, Note_off_c, 0, 75, 70
1, 144069, Note_off_c, 0, 59, 61
1, 144093, Note_on_c, 0, 74, 92
1, 144100, Control_c, 0, 64, 82
1, 144103, Note_on_c, 0, 64, 78
1, 144104, Note_on_c, 0, 60, 70
1, 144113, Note_on_c, 0, 70, 80
1, 144119, Control_c, 0, 64, 43
1, 144138, Control_c, 0, 64, 0
1, 144141, Note_off_c, 0, 64, 63
1, 144175, Control_c, 0, 64, 15
1, 144194, Control_c, 0, 64, 46
1, 144213, Control_c, 0, 64, 71
1, 144226, Note_on_c, 0, 67, 80
1, 144231, Control_c, 0, 64, 111
1, 144246, Note_off_c, 0, 60, 63
1, 144249, Control_c, 0, 64, 127
1, 144268, Note_off_c, 0, 70, 62
1, 144302, Note_on_c, 0, 64, 65
1, 144318, Note_off_c, 0, 53, 60
1, 144342, Note_off_c, 0, 67, 60
1, 144390, Note_on_c, 0, 72, 80
1, 144398, Note_off_c, 0, 74, 64
1, 144403, Note_off_c, 0, 64, 64
1, 144419, Note_off_c, 0, 72, 72
1, 144493, Control_c, 0, 64, 103
1, 144496, Note_on_c, 0, 67, 90
1, 144498, Note_on_c, 0, 40, 73
1, 144514, Control_c, 0, 64, 48
1, 144518, Note_on_c, 0, 63, 77
1, 144531, Control_c, 0, 64, 0
1, 144555, Note_off_c, 0, 40, 58
1, 144589, Note_off_c, 0, 63, 55
1, 144590, Note_on_c, 0, 60, 81
1, 144597, Note_on_c, 0, 41, 84
1, 144625, Control_c, 0, 64, 48
1, 144642, Control_c, 0, 64, 75
1, 144662, Control_c, 0, 64, 115
1, 144672, Note_off_c, 0, 41, 64
1, 144681, Control_c, 0, 64, 127
1, 144698, Note_on_c, 0, 40, 79
1, 144708, Note_on_c, 0, 63, 76
1, 144714, Note_off_c, 0, 60, 60
1, 144757, Note_on_c, 0, 41, 88
1, 144766, Note_off_c, 0, 40, 64
1, 144771, Note_on_c, 0, 69, 91
1, 144787, Note_off_c, 0, 63, 65
1, 144789, Note_off_c, 0, 41, 66
1, 144794, Note_off_c, 0, 67, 66
1, 144812, Note_off_c, 0, 69, 67
1, 144812, Poly_aftertouch_c, 0, 69, 0
1, 144974, Note_on_c, 0, 53, 78
1, 144998, Control_c, 0, 64, 104
1, 145009, Note_on_c, 0, 62, 86
1, 145017, Control_c, 0, 64, 55
1, 145036, Control_c, 0, 64, 0
1, 145063, Note_on_c, 0, 79, 97
1, 145082, Note_on_c, 0, 70, 83
1, 145110, Control_c, 0, 64, 9
1, 145129, Control_c, 0, 64, 51
1, 145148, Control_c, 0, 64, 79
1, 145167, Control_c, 0, 64, 127
1, 145237, Note_on_c, 0, 65, 61
1, 145240, Note_off_c, 0, 53, 59
1, 145266, Note_off_c, 0, 62, 53
1, 145278, Note_off_c, 0, 70, 38
1, 145279, Poly_aftertouch_c, 0, 70, 0
1, 145310, Note_off_c, 0, 65, 43
1, 145359, Note_on_c, 0, 70, 70
1, 145423, Note_off_c, 0, 70, 63
1, 145437, Note_off_c, 0, 79, 53
1, 145470, Note_on_c, 0, 77, 89
1, 145527, Note_off_c, 0, 77, 63
1, 145561, Note_on_c, 0, 53, 67
1, 145639, Note_on_c, 0, 59, 78
1, 145685, Note_on_c, 0, 74, 97
1, 145709, Control_c, 0, 64, 76
1, 145716, Note_on_c, 0, 68, 68
1, 145727, Control_c, 0, 64, 35
1, 145746, Control_c, 0, 64, 0
1, 145749, Note_off_c, 0, 68, 52
1, 145821, Control_c, 0, 64, 35
1, 145835, Note_on_c, 0, 65, 69
1, 145840, Control_c, 0, 64, 64
1, 145858, Control_c, 0, 64, 88
1, 145877, Control_c, 0, 64, 127
1, 145895, Poly_aftertouch_c, 0, 68, 0
1, 145954, Note_off_c, 0, 65, 61
1, 145998, Note_on_c, 0, 69, 47
1, 146025, Note_on_c, 0, 75, 74
1, 146038, Note_off_c, 0, 69, 62
1, 146038, Poly_aftertouch_c, 0, 69, 0
1, 146043, Poly_aftertouch_c, 0, 68, 127
1, 146046, Note_off_c, 0, 74, 57
1, 146056, Note_off_c, 0, 75, 70
1, 146086, Poly_aftertouch_c, 0, 68, 0
1, 146116, Note_off_c, 0, 59, 60
1, 146124, Note_on_c, 0, 74, 88
1, 146136, Note_on_c, 0, 60, 77
1, 146139, Control_c, 0, 64, 78
1, 146147, Note_on_c, 0, 64, 69
1, 146147, Note_on_c, 0, 70, 78
1, 146158, Control_c, 0, 64, 41
1, 146176, Control_c, 0, 64, 0
1, 146179, Note_off_c, 0, 64, 65
1, 146213, Control_c, 0, 64, 10
1, 146232, Control_c, 0, 64, 40
1, 146251, Control_c, 0, 64, 66
1, 146263, Note_on_c, 0, 67, 74
1, 146264, Note_off_c, 0, 60, 61
1, 146270, Control_c, 0, 64, 95
1, 146289, Control_c, 0, 64, 127
1, 146316, Note_off_c, 0, 70, 62
1, 146328, Note_on_c, 0, 64, 54
1, 146342, Note_off_c, 0, 53, 60
1, 146374, Note_off_c, 0, 67, 62
1, 146420, Note_on_c, 0, 72, 76
1, 146425, Note_off_c, 0, 74, 64
1, 146437, Note_off_c, 0, 64, 63
1, 146448, Note_off_c, 0, 72, 70
1, 146525, Note_on_c, 0, 67, 91
1, 146527, Note_on_c, 0, 40, 69
1, 146531, Control_c, 0, 64, 73
1, 146550, Control_c, 0, 64, 34
1, 146562, Note_on_c, 0, 63, 67
1, 146570, Control_c, 0, 64, 0
1, 146597, Note_off_c, 0, 40, 56
1, 146605, Control_c, 0, 64, 10
1, 146614, Note_off_c, 0, 63, 56
1, 146625, Control_c, 0, 64, 39
1, 146632, Note_on_c, 0, 60, 78
1, 146637, Note_on_c, 0, 41, 75
1, 146644, Control_c, 0, 64, 64
1, 146663, Control_c, 0, 64, 87
1, 146681, Control_c, 0, 64, 127
1, 146693, Note_off_c, 0, 41, 61
1, 146723, Note_on_c, 0, 40, 77
1, 146741, Note_on_c, 0, 63, 73
1, 146748, Note_off_c, 0, 60, 58
1, 146782, Note_off_c, 0, 40, 61
1, 146791, Note_on_c, 0, 41, 78
1, 146803, Note_on_c, 0, 69, 87
1, 146821, Note_off_c, 0, 41, 67
1, 146824, Note_off_c, 0, 63, 63
1, 146831, Note_off_c, 0, 67, 63
1, 146856, Note_off_c, 0, 69, 67
1, 146856, Poly_aftertouch_c, 0, 69, 0
1, 146925, Note_on_c, 0, 53, 82
1, 146954, Note_on_c, 0, 72, 89
1, 146960, Note_on_c, 0, 62, 86
1, 146981, Control_c, 0, 64, 80
1, 146999, Control_c, 0, 64, 41
1, 147018, Control_c, 0, 64, 0
1, 147057, Note_on_c, 0, 65, 80
1, 147063, Note_off_c, 0, 62, 60
1, 147073, Control_c, 0, 64, 23
1, 147092, Control_c, 0, 64, 56
1, 147111, Control_c, 0, 64, 84
1, 147130, Control_c, 0, 64, 127
1, 147174, Note_on_c, 0, 62, 81
1, 147181, Note_off_c, 0, 65, 63
1, 147271, Note_on_c, 0, 70, 87
1, 147274, Note_off_c, 0, 62, 63
1, 147277, Note_off_c, 0, 72, 65
1, 147307, Note_off_c, 0, 70, 70
1, 147315, Note_on_c, 0, 41, 75
1, 147438, Note_on_c, 0, 47, 77
1, 147531, Note_on_c, 0, 50, 80
1, 147570, Note_on_c, 0, 56, 86
1, 147573, Note_on_c, 0, 67, 93
1, 147582, Poly_aftertouch_c, 0, 44, 0
1, 147597, Control_c, 0, 64, 105
1, 147615, Control_c, 0, 64, 66
1, 147634, Control_c, 0, 64, 26
1, 147653, Control_c, 0, 64, 0
1, 147710, Control_c, 0, 64, 15
1, 147727, Control_c, 0, 64, 46
1, 147747, Control_c, 0, 64, 69
1, 147765, Control_c, 0, 64, 100
1, 147773, Note_off_c, 0, 56, 59
1, 147773, Note_on_c, 0, 62, 58
1, 147785, Control_c, 0, 64, 127
1, 147916, Note_on_c, 0, 56, 63
1, 147971, Note_off_c, 0, 47, 56
1, 147984, Note_off_c, 0, 67, 58
1, 147990, Note_off_c, 0, 50, 61
1, 148016, Note_off_c, 0, 56, 65
1, 148022, Note_off_c, 0, 62, 59
1, 148058, Note_on_c, 0, 65, 90
1, 148127, Note_off_c, 0, 65, 65
1, 148167, Note_on_c, 0, 48, 81
1, 148238, Note_on_c, 0, 51, 69
1, 148252, Control_c, 0, 64, 80
1, 148258, Note_on_c, 0, 65, 93
1, 148265, Note_on_c, 0, 55, 82
1, 148270, Control_c, 0, 64, 42
1, 148289, Control_c, 0, 64, 0
1, 148364, Control_c, 0, 64, 17
1, 148383, Control_c, 0, 64, 52
1, 148400, Control_c, 0, 64, 76
1, 148420, Control_c, 0, 64, 127
1, 148429, Note_on_c, 0, 60, 70
1, 148442, Note_off_c, 0, 55, 58
1, 148480, Note_off_c, 0, 48, 60
1, 148485, Note_off_c, 0, 53, 57
1, 148509, Note_off_c, 0, 51, 62
1, 148579, Note_on_c, 0, 55, 68
1, 148661, Note_off_c, 0, 65, 55
1, 148678, Note_on_c, 0, 63, 79
1, 148687, Note_off_c, 0, 60, 63
1, 148692, Note_off_c, 0, 55, 63
1, 148722, Note_off_c, 0, 63, 62
1, 148860, Note_on_c, 0, 42, 92
1, 148863, Note_off_c, 0, 41, 60
1, 148863, Note_on_c, 0, 56, 25
1, 148921, Note_off_c, 0, 56, 45
1, 148934, Note_on_c, 0, 60, 89
1, 148942, Note_on_c, 0, 51, 84
1, 148945, Control_c, 0, 64, 75
1, 148961, Control_c, 0, 64, 33
1, 148981, Control_c, 0, 64, 0
1, 149056, Control_c, 0, 64, 18
1, 149074, Control_c, 0, 64, 52
1, 149093, Control_c, 0, 64, 72
1, 149112, Control_c, 0, 64, 102
1, 149131, Control_c, 0, 64, 127
1, 149155, Note_on_c, 0, 57, 71
1, 149189, Note_on_c, 0, 41, 80
1, 149213, Note_off_c, 0, 42, 64
1, 149220, Note_off_c, 0, 51, 51
1, 149355, Control_c, 0, 64, 82
1, 149362, Note_on_c, 0, 42, 84
1, 149364, Note_on_c, 0, 51, 80
1, 149365, Note_off_c, 0, 41, 65
1, 149373, Control_c, 0, 64, 36
1, 149392, Control_c, 0, 64, 0
1, 149423, Note_off_c, 0, 57, 60
1, 149486, Control_c, 0, 64, 33
1, 149504, Control_c, 0, 64, 67
1, 149525, Control_c, 0, 64, 91
1, 149540, Control_c, 0, 64, 127
1, 149604, Note_on_c, 0, 41, 85
1, 149609, Note_on_c, 0, 62, 88
1, 149613, Note_off_c, 0, 42, 64
1, 149616, Note_on_c, 0, 57, 81
1, 149672, Note_off_c, 0, 60, 60
1, 149690, Note_off_c, 0, 41, 63
1, 149720, Note_off_c, 0, 51, 51
1, 149730, Note_off_c, 0, 57, 60
1, 149814, Note_off_c, 0, 62, 49
1, 150020, Note_on_c, 0, 34, 83
1, 150066, Control_c, 0, 64, 88
1, 150084, Control_c, 0, 64, 32
1, 150102, Control_c, 0, 64, 0
1, 150115, Note_on_c, 0, 58, 89
1, 150124, Note_on_c, 0, 50, 81
1, 150345, Control_c, 0, 64, 49
1, 150366, Control_c, 0, 64, 79
1, 150383, Control_c, 0, 64, 127
1, 150425, Note_off_c, 0, 50, 60
1, 150443, Note_off_c, 0, 34, 47
1, 150491, Note_off_c, 0, 58, 60
1, 150856, Note_on_c, 0, 50, 35
1, 150871, Note_on_c, 0, 58, 43
1, 150908, Note_on_c, 0, 53, 43
1, 150970, Note_on_c, 0, 74, 75
1, 150993, Note_on_c, 0, 62, 41
1, 151012, Note_on_c, 0, 65, 42
1, 151102, Poly_aftertouch_c, 0, 52, 0
1, 151153, Note_off_c, 0, 58, 59
1, 151163, Note_off_c, 0, 53, 55
1, 151186, Note_off_c, 0, 50, 40
1, 151191, Note_off_c, 0, 65, 57
1, 151205, Note_off_c, 0, 62, 49
1, 151213, Note_off_c, 0, 74, 55
1, 151343, Note_on_c, 0, 50, 45
1, 151360, Note_on_c, 0, 72, 82
1, 151367, Note_on_c, 0, 53, 40
1, 151370, Note_on_c, 0, 58, 46
1, 151386, Note_on_c, 0, 62, 55
1, 151399, Note_on_c, 0, 65, 47
1, 151457, Poly_aftertouch_c, 0, 52, 127
1, 151472, Note_off_c, 0, 50, 55
1, 151489, Note_off_c, 0, 62, 44
1, 151500, Note_off_c, 0, 53, 55
1, 151500, Poly_aftertouch_c, 0, 52, 0
1, 151503, Note_off_c, 0, 58, 56
1, 151544, Note_off_c, 0, 72, 57
1, 151588, Note_off_c, 0, 65, 29
1, 151636, Note_on_c, 0, 50, 43
1, 151636, Note_on_c, 0, 71, 85
1, 151647, Note_on_c, 0, 62, 73
1, 151657, Note_on_c, 0, 58, 64
1, 151660, Note_on_c, 0, 65, 54
1, 151663, Note_on_c, 0, 53, 47
1, 151701, Note_off_c, 0, 65, 64
1, 151716, Note_off_c, 0, 62, 60
1, 151718, Note_off_c, 0, 58, 62
1, 151720, Note_off_c, 0, 50, 57
1, 151733, Note_off_c, 0, 53, 56
1, 151786, Note_off_c, 0, 71, 57
1, 151841, Control_c, 0, 64, 115
1, 151861, Control_c, 0, 64, 77
1, 151864, Note_on_c, 0, 58, 56
1, 151869, Note_on_c, 0, 50, 49
1, 151870, Note_on_c, 0, 70, 82
1, 151879, Control_c, 0, 64, 59
1, 151887, Note_on_c, 0, 53, 42
1, 151889, Note_on_c, 0, 62, 59
1, 151914, Control_c, 0, 64, 66
1, 151935, Control_c, 0, 64, 80
1, 151952, Note_off_c, 0, 50, 54
1, 151953, Control_c, 0, 64, 127
1, 151961, Note_off_c, 0, 62, 47
1, 151963, Poly_aftertouch_c, 0, 65, 127
1, 151983, Note_off_c, 0, 53, 48
1, 151983, Note_off_c, 0, 58, 58
1, 152016, Poly_aftertouch_c, 0, 65, 0
1, 152025, Poly_aftertouch_c, 0, 64, 0
1, 152027, Control_c, 0, 64, 101
1, 152048, Control_c, 0, 64, 71
1, 152066, Control_c, 0, 64, 56
1, 152084, Note_off_c, 0, 70, 46
1, 152085, Control_c, 0, 64, 58
1, 152099, Note_on_c, 0, 74, 75
1, 152102, Note_on_c, 0, 62, 63
1, 152103, Control_c, 0, 64, 67
1, 152118, Note_on_c, 0, 50, 40
1, 152119, Note_on_c, 0, 65, 57
1, 152121, Control_c, 0, 64, 84
1, 152138, Note_on_c, 0, 58, 30
1, 152140, Control_c, 0, 64, 127
1, 152145, Note_off_c, 0, 62, 64
1, 152155, Note_off_c, 0, 65, 55
1, 152162, Note_off_c, 0, 50, 51
1, 152173, Note_off_c, 0, 58, 59
1, 152187, Note_off_c, 0, 74, 57
1, 152319, Note_on_c, 0, 50, 35
1, 152345, Note_on_c, 0, 58, 32
1, 152345, Control_c, 0, 64, 98
1, 152355, Note_on_c, 0, 72, 62
1, 152363, Control_c, 0, 64, 77
1, 152372, Poly_aftertouch_c, 0, 53, 127
1, 152385, Control_c, 0, 64, 59
1, 152399, Note_on_c, 0, 62, 37
1, 152404, Control_c, 0, 64, 35
1, 152417, Note_off_c, 0, 58, 61
1, 152420, Control_c, 0, 64, 0
1, 152447, Poly_aftertouch_c, 0, 53, 0
1, 152453, Note_off_c, 0, 72, 61
1, 152457, Note_off_c, 0, 50, 56
1, 152463, Note_off_c, 0, 62, 47
1, 152474, Note_on_c, 0, 71, 54
1, 152605, Note_off_c, 0, 71, 59
1, 152630, Note_on_c, 0, 70, 53
1, 153037, Control_c, 0, 64, 23
1, 153057, Control_c, 0, 64, 42
1, 153075, Control_c, 0, 64, 57
1, 153077, Note_off_c, 0, 70, 62
1, 153077, Note_on_c, 0, 44, 59
1, 153087, Note_on_c, 0, 32, 56
1, 153094, Control_c, 0, 64, 70
1, 153113, Control_c, 0, 64, 91
1, 153131, Control_c, 0, 64, 127
1, 153175, Note_off_c, 0, 32, 57
1, 153238, Note_off_c, 0, 44, 62
1, 153483, Note_on_c, 0, 53, 45
1, 153546, Note_on_c, 0, 58, 40
1, 153553, Note_on_c, 0, 62, 42
1, 153606, Note_on_c, 0, 77, 80
1, 153639, Note_on_c, 0, 65, 59
1, 153654, Note_on_c, 0, 70, 48
1, 153753, Note_off_c, 0, 62, 59
1, 153765, Note_off_c, 0, 58, 59
1, 153772, Note_off_c, 0, 53, 38
1, 153818, Note_off_c, 0, 65, 49
1, 153825, Note_off_c, 0, 77, 58
1, 153843, Note_off_c, 0, 70, 53
1, 153918, Note_on_c, 0, 53, 56
1, 153938, Note_on_c, 0, 62, 57
1, 153946, Note_on_c, 0, 58, 49
1, 153963, Note_on_c, 0, 76, 88
1, 153986, Note_on_c, 0, 65, 61
1, 153991, Note_on_c, 0, 70, 60
1, 154025, Note_off_c, 0, 53, 58
1, 154048, Note_off_c, 0, 62, 59
1, 154048, Note_off_c, 0, 58, 58
1, 154053, Note_off_c, 0, 65, 58
1, 154077, Note_off_c, 0, 70, 51
1, 154126, Note_off_c, 0, 76, 61
1, 154201, Note_on_c, 0, 53, 53
1, 154203, Note_on_c, 0, 62, 61
1, 154206, Note_on_c, 0, 58, 59
1, 154206, Note_on_c, 0, 75, 92
1, 154223, Note_on_c, 0, 70, 74
1, 154229, Note_on_c, 0, 65, 67
1, 154251, Note_off_c, 0, 53, 60
1, 154264, Note_off_c, 0, 65, 67
1, 154265, Note_off_c, 0, 70, 57
1, 154267, Note_off_c, 0, 58, 51
1, 154269, Note_off_c, 0, 62, 59
1, 154339, Note_off_c, 0, 75, 61
1, 154384, Control_c, 0, 64, 107
1, 154402, Control_c, 0, 64, 70
1, 154405, Note_on_c, 0, 53, 51
1, 154408, Note_on_c, 0, 74, 84
1, 154419, Note_on_c, 0, 62, 58
1, 154421, Control_c, 0, 64, 48
1, 154425, Note_on_c, 0, 58, 56
1, 154434, Note_on_c, 0, 65, 63
1, 154440, Note_on_c, 0, 70, 59
1, 154459, Control_c, 0, 64, 60
1, 154478, Control_c, 0, 64, 74
1, 154485, Note_off_c, 0, 70, 64
1, 154493, Note_off_c, 0, 65, 52
1, 154495, Note_off_c, 0, 53, 55
1, 154495, Control_c, 0, 64, 109
1, 154507, Note_off_c, 0, 58, 56
1, 154514, Control_c, 0, 64, 127
1, 154519, Note_off_c, 0, 62, 53
1, 154556, Note_off_c, 0, 74, 60
1, 154590, Control_c, 0, 64, 91
1, 154608, Control_c, 0, 64, 60
1, 154615, Note_on_c, 0, 77, 81
1, 154626, Control_c, 0, 64, 41
1, 154627, Note_on_c, 0, 70, 62
1, 154632, Note_on_c, 0, 65, 61
1, 154633, Note_on_c, 0, 62, 46
1, 154635, Note_on_c, 0, 53, 40
1, 154646, Control_c, 0, 64, 48
1, 154663, Note_on_c, 0, 58, 32
1, 154663, Control_c, 0, 64, 62
1, 154664, Note_off_c, 0, 65, 63
1, 154675, Note_off_c, 0, 70, 62
1, 154677, Note_off_c, 0, 53, 48
1, 154680, Note_off_c, 0, 62, 57
1, 154683, Control_c, 0, 64, 77
1, 154702, Control_c, 0, 64, 127
1, 154704, Note_off_c, 0, 58, 54
1, 154704, Note_off_c, 0, 77, 60
1, 154832, Note_on_c, 0, 58, 44
1, 154838, Note_on_c, 0, 53, 38
1, 154839, Note_on_c, 0, 62, 39
1, 154850, Note_on_c, 0, 76, 61
1, 154869, Control_c, 0, 64, 108
1, 154879, Note_on_c, 0, 70, 14
1, 154887, Control_c, 0, 64, 73
1, 154908, Control_c, 0, 64, 36
1, 154910, Note_off_c, 0, 62, 58
1, 154927, Control_c, 0, 64, 0
1, 154929, Note_off_c, 0, 70, 49
1, 154935, Note_off_c, 0, 76, 59
1, 154937, Note_off_c, 0, 58, 55
1, 154941, Note_on_c, 0, 75, 67
1, 154960, Note_off_c, 0, 53, 56
1, 155052, Note_off_c, 0, 75, 61
1, 155082, Note_on_c, 0, 74, 50
1, 155419, Note_on_c, 0, 42, 74
1, 155426, Note_off_c, 0, 74, 62
1, 155426, Note_on_c, 0, 30, 65
1, 155451, Control_c, 0, 64, 43
1, 155468, Control_c, 0, 64, 70
1, 155486, Note_off_c, 0, 30, 64
1, 155487, Control_c, 0, 64, 109
1, 155506, Control_c, 0, 64, 127
1, 155545, Note_off_c, 0, 42, 63
1, 155741, Note_on_c, 0, 54, 61
1, 155825, Note_on_c, 0, 61, 57
1, 155845, Note_on_c, 0, 64, 59
1, 155908, Note_on_c, 0, 82, 91
1, 155919, Note_on_c, 0, 73, 62
1, 155925, Note_on_c, 0, 70, 57
1, 155966, Note_off_c, 0, 54, 61
1, 155991, Note_off_c, 0, 64, 59
1, 156007, Note_off_c, 0, 61, 61
1, 156062, Note_off_c, 0, 73, 47
1, 156083, Note_off_c, 0, 70, 45
1, 156093, Note_off_c, 0, 82, 62
1, 156170, Note_on_c, 0, 54, 52
1, 156197, Note_on_c, 0, 61, 54
1, 156200, Note_on_c, 0, 64, 60
1, 156229, Note_on_c, 0, 80, 96
1, 156242, Note_on_c, 0, 70, 70
1, 156251, Note_on_c, 0, 73, 62
1, 156272, Note_off_c, 0, 54, 61
1, 156302, Note_off_c, 0, 64, 60
1, 156307, Note_off_c, 0, 61, 59
1, 156332, Note_off_c, 0, 70, 34
1, 156355, Poly_aftertouch_c, 0, 81, 0
1, 156385, Note_off_c, 0, 80, 63
1, 156408, Note_off_c, 0, 73, 56
1, 156409, Poly_aftertouch_c, 0, 73, 0
1, 156448, Note_on_c, 0, 54, 57
1, 156462, Note_on_c, 0, 64, 70
1, 156465, Note_on_c, 0, 79, 93
1, 156466, Note_on_c, 0, 61, 65
1, 156477, Note_on_c, 0, 70, 77
1, 156479, Note_on_c, 0, 73, 66
1, 156516, Note_off_c, 0, 54, 57
1, 156524, Note_off_c, 0, 70, 54
1, 156532, Note_off_c, 0, 73, 57
1, 156535, Note_off_c, 0, 64, 60
1, 156541, Note_off_c, 0, 61, 53
1, 156622, Note_off_c, 0, 79, 57
1, 156666, Note_on_c, 0, 78, 94
1, 156667, Note_on_c, 0, 54, 60
1, 156682, Note_on_c, 0, 70, 67
1, 156687, Note_on_c, 0, 61, 67
1, 156691, Note_on_c, 0, 73, 60
1, 156693, Note_on_c, 0, 64, 65
1, 156721, Control_c, 0, 64, 93
1, 156732, Note_off_c, 0, 54, 58
1, 156758, Control_c, 0, 64, 110
1, 156778, Note_off_c, 0, 61, 55
1, 156779, Note_off_c, 0, 64, 46
1, 156779, Control_c, 0, 64, 127
1, 156785, Note_off_c, 0, 73, 55
1, 156794, Note_off_c, 0, 70, 59
1, 156885, Note_on_c, 0, 54, 58
1, 156889, Control_c, 0, 64, 108
1, 156909, Control_c, 0, 64, 102
1, 156915, Note_on_c, 0, 82, 98
1, 156927, Note_on_c, 0, 73, 74
1, 156927, Control_c, 0, 64, 127
1, 156934, Note_on_c, 0, 70, 67
1, 156936, Note_off_c, 0, 78, 61
1, 156941, Note_on_c, 0, 64, 62
1, 156941, Note_on_c, 0, 61, 56
1, 156955, Note_off_c, 0, 54, 57
1, 156966, Note_off_c, 0, 70, 68
1, 157000, Note_off_c, 0, 73, 54
1, 157014, Note_off_c, 0, 61, 44
1, 157020, Note_off_c, 0, 64, 53
1, 157037, Note_off_c, 0, 82, 62
1, 157111, Note_on_c, 0, 54, 56
1, 157192, Note_on_c, 0, 61, 53
1, 157215, Note_on_c, 0, 64, 48
1, 157317, Note_off_c, 0, 64, 61
1, 157335, Note_on_c, 0, 80, 94
1, 157350, Note_off_c, 0, 61, 56
1, 157356, Note_on_c, 0, 73, 53
1, 157388, Note_off_c, 0, 54, 52
1, 157390, Note_on_c, 0, 70, 34
1, 157411, Note_off_c, 0, 73, 57
1, 157431, Note_off_c, 0, 70, 49
1, 157517, Note_off_c, 0, 80, 63
1, 157582, Note_on_c, 0, 79, 89
1, 157693, Note_off_c, 0, 79, 55
1, 157795, Note_on_c, 0, 78, 87
1, 158124, Control_c, 0, 64, 109
1, 158142, Control_c, 0, 64, 75
1, 158148, Note_on_c, 0, 29, 57
1, 158160, Control_c, 0, 64, 26
1, 158180, Control_c, 0, 64, 0
1, 158258, Note_on_c, 0, 41, 76
1, 158318, Note_off_c, 0, 29, 59
1, 158330, Control_c, 0, 64, 48
1, 158348, Control_c, 0, 64, 79
1, 158366, Control_c, 0, 64, 127
1, 158383, Note_off_c, 0, 41, 63
1, 158683, Note_off_c, 0, 78, 58
1, 158839, Note_on_c, 0, 57, 40
1, 158878, Note_on_c, 0, 63, 36
1, 158924, Note_on_c, 0, 66, 35
1, 159057, Note_off_c, 0, 66, 58
1, 159066, Note_on_c, 0, 78, 81
1, 159091, Note_off_c, 0, 57, 37
1, 159095, Note_on_c, 0, 69, 47
1, 159134, Note_on_c, 0, 72, 13
1, 159135, Note_off_c, 0, 63, 45
1, 159256, Note_off_c, 0, 72, 34
1, 159269, Note_off_c, 0, 69, 29
1, 159269, Poly_aftertouch_c, 0, 69, 0
1, 159351, Note_off_c, 0, 78, 64
1, 159446, Note_on_c, 0, 57, 36
1, 159454, Note_on_c, 0, 65, 39
1, 159456, Note_on_c, 0, 63, 34
1, 159510, Note_on_c, 0, 77, 80
1, 159540, Note_on_c, 0, 69, 47
1, 159541, Note_on_c, 0, 72, 54
1, 159579, Note_off_c, 0, 63, 41
1, 159596, Note_off_c, 0, 72, 55
1, 159596, Note_off_c, 0, 65, 51
1, 159598, Note_off_c, 0, 69, 54
1, 159598, Poly_aftertouch_c, 0, 69, 0
1, 159617, Note_off_c, 0, 57, 36
1, 159658, Note_off_c, 0, 77, 56
1, 159805, Note_on_c, 0, 76, 75
1, 159807, Note_on_c, 0, 63, 37
1, 159807, Note_on_c, 0, 57, 41
1, 159810, Note_on_c, 0, 65, 40
1, 159834, Note_on_c, 0, 72, 47
1, 159842, Note_on_c, 0, 69, 41
1, 159871, Note_off_c, 0, 63, 56
1, 159872, Note_off_c, 0, 72, 56
1, 159874, Note_off_c, 0, 65, 60
1, 159874, Note_off_c, 0, 57, 54
1, 159883, Note_off_c, 0, 69, 55
1, 159883, Poly_aftertouch_c, 0, 69, 0
1, 159895, Note_off_c, 0, 76, 59
1, 160080, Note_on_c, 0, 57, 34
1, 160086, Control_c, 0, 64, 112
1, 160091, Note_on_c, 0, 63, 26
1, 160103, Note_on_c, 0, 75, 73
1, 160105, Control_c, 0, 64, 82
1, 160115, Note_on_c, 0, 65, 31
1, 160123, Control_c, 0, 64, 67
1, 160126, Note_on_c, 0, 69, 40
1, 160143, Control_c, 0, 64, 64
1, 160149, Note_on_c, 0, 72, 42
1, 160162, Control_c, 0, 64, 70
1, 160180, Control_c, 0, 64, 82
1, 160199, Control_c, 0, 64, 109
1, 160211, Note_off_c, 0, 72, 57
1, 160218, Control_c, 0, 64, 127
1, 160235, Note_off_c, 0, 69, 50
1, 160235, Poly_aftertouch_c, 0, 69, 0
1, 160244, Note_off_c, 0, 65, 55
1, 160278, Note_off_c, 0, 75, 53
1, 160291, Note_off_c, 0, 63, 36
1, 160406, Poly_aftertouch_c, 0, 57, 24
1, 160436, Note_on_c, 0, 60, 33
1, 160440, Control_c, 0, 64, 100
1, 160453, Note_off_c, 0, 57, 39
1, 160453, Poly_aftertouch_c, 0, 57, 0
1, 160458, Note_on_c, 0, 65, 40
1, 160458, Note_on_c, 0, 72, 68
1, 160458, Control_c, 0, 64, 78
1, 160480, Control_c, 0, 64, 59
1, 160491, Note_on_c, 0, 69, 40
1, 160496, Control_c, 0, 64, 42
1, 160499, Note_on_c, 0, 63, 19
1, 160519, Control_c, 0, 64, 36
1, 160554, Control_c, 0, 64, 41
1, 160572, Note_off_c, 0, 65, 55
1, 160572, Control_c, 0, 64, 53
1, 160586, Note_off_c, 0, 63, 46
1, 160592, Control_c, 0, 64, 63
1, 160611, Control_c, 0, 64, 74
1, 160629, Control_c, 0, 64, 90
1, 160647, Control_c, 0, 64, 127
1, 160660, Note_off_c, 0, 72, 56
1, 160667, Note_off_c, 0, 69, 35
1, 160667, Poly_aftertouch_c, 0, 69, 0
1, 160883, Note_on_c, 0, 63, 27
1, 160889, Poly_aftertouch_c, 0, 60, 24
1, 160916, Note_off_c, 0, 60, 41
1, 160916, Poly_aftertouch_c, 0, 60, 0
1, 160936, Note_on_c, 0, 65, 30
1, 160986, Control_c, 0, 64, 115
1, 161003, Control_c, 0, 64, 90
1, 161021, Control_c, 0, 64, 70
1, 161034, Note_on_c, 0, 79, 54
1, 161040, Control_c, 0, 64, 51
1, 161059, Control_c, 0, 64, 39
1, 161062, Note_on_c, 0, 69, 26
1, 161096, Control_c, 0, 64, 49
1, 161116, Poly_aftertouch_c, 0, 72, 0
1, 161116, Control_c, 0, 64, 59
1, 161133, Control_c, 0, 64, 66
1, 161135, Note_off_c, 0, 69, 41
1, 161135, Poly_aftertouch_c, 0, 69, 0
1, 161153, Control_c, 0, 64, 73
1, 161171, Control_c, 0, 64, 78
1, 161214, Note_off_c, 0, 79, 56
1, 161227, Control_c, 0, 64, 71
1, 161245, Control_c, 0, 64, 60
1, 161252, Note_on_c, 0, 78, 48
1, 161265, Control_c, 0, 64, 45
1, 161284, Control_c, 0, 64, 36
1, 161304, Control_c, 0, 64, 31
1, 161496, Note_off_c, 0, 78, 62
1, 161520, Note_on_c, 0, 77, 48
1, 161603, Note_off_c, 0, 63, 43
1, 161657, Control_c, 0, 64, 38
1, 161675, Note_off_c, 0, 65, 44
1, 161678, Control_c, 0, 64, 52
1, 161694, Control_c, 0, 64, 63
1, 161713, Control_c, 0, 64, 74
1, 161734, Control_c, 0, 64, 93
1, 161751, Control_c, 0, 64, 127
1, 161769, Control_c, 0, 67, 11
1, 161789, Control_c, 0, 67, 16
1, 161807, Control_c, 0, 67, 24
1, 161826, Control_c, 0, 67, 35
1, 161844, Control_c, 0, 67, 50
1, 161864, Control_c, 0, 67, 67
1, 161882, Control_c, 0, 67, 84
1, 161900, Control_c, 0, 67, 98
1, 161919, Control_c, 0, 67, 107
1, 161957, Control_c, 0, 67, 112
1, 161967, Note_off_c, 0, 77, 52
1, 162272, Note_on_c, 0, 46, 54
1, 162284, Note_on_c, 0, 34, 43
1, 162317, Note_off_c, 0, 46, 63
1, 162333, Note_off_c, 0, 34, 46
1, 162536, Control_c, 0, 64, 93
1, 162539, Note_on_c, 0, 74, 65
1, 162542, Note_on_c, 0, 65, 54
1, 162545, Note_on_c, 0, 58, 57
1, 162550, Note_on_c, 0, 62, 50
1, 162554, Control_c, 0, 64, 55
1, 162573, Control_c, 0, 64, 0
1, 162575, Note_off_c, 0, 58, 61
1, 162576, Note_off_c, 0, 74, 65
1, 162578, Note_off_c, 0, 65, 59
1, 162586, Note_off_c, 0, 62, 59
1, 162623, Note_on_c, 0, 66, 51
1, 162653, Note_off_c, 0, 66, 60
1, 162686, Control_c, 0, 67, 107
1, 162702, Note_on_c, 0, 62, 58
1, 162706, Note_on_c, 0, 53, 56
1, 162712, Note_on_c, 0, 65, 29
1, 162716, Note_on_c, 0, 72, 56
1, 162722, Control_c, 0, 67, 100
1, 162737, Note_off_c, 0, 53, 58
1, 162740, Note_off_c, 0, 62, 64
1, 162741, Control_c, 0, 67, 92
1, 162747, Note_off_c, 0, 72, 62
1, 162761, Control_c, 0, 67, 82
1, 162763, Note_off_c, 0, 65, 48
1, 162779, Control_c, 0, 67, 69
1, 162782, Note_on_c, 0, 67, 51
1, 162799, Control_c, 0, 67, 57
1, 162814, Note_off_c, 0, 67, 58
1, 162816, Control_c, 0, 67, 46
1, 162834, Control_c, 0, 67, 40
1, 162861, Note_on_c, 0, 58, 47
1, 162862, Note_on_c, 0, 62, 53
1, 162864, Note_on_c, 0, 71, 59
1, 162869, Note_on_c, 0, 65, 47
1, 162873, Control_c, 0, 67, 36
1, 162894, Note_off_c, 0, 58, 57
1, 162894, Note_off_c, 0, 62, 59
1, 162906, Note_off_c, 0, 71, 61
1, 162906, Note_off_c, 0, 65, 56
1, 162933, Note_on_c, 0, 66, 61
1, 162973, Note_off_c, 0, 66, 66
1, 163003, Note_on_c, 0, 65, 56
1, 163004, Note_on_c, 0, 53, 55
1, 163004, Note_on_c, 0, 70, 62
1, 163016, Note_on_c, 0, 62, 41
1, 163033, Note_off_c, 0, 65, 59
1, 163035, Note_off_c, 0, 53, 56
1, 163057, Note_off_c, 0, 62, 54
1, 163075, Note_off_c, 0, 70, 51
1, 163085, Note_on_c, 0, 67, 68
1, 163119, Note_off_c, 0, 67, 68
1, 163145, Note_on_c, 0, 65, 47
1, 163164, Note_on_c, 0, 74, 59
1, 163172, Note_on_c, 0, 58, 25
1, 163173, Note_off_c, 0, 58, 127
1, 163182, Note_off_c, 0, 65, 57
1, 163184, Note_on_c, 0, 62, 38
1, 163213, Note_off_c, 0, 74, 57
1, 163226, Note_off_c, 0, 62, 55
1, 163245, Note_on_c, 0, 66, 64
1, 163280, Note_off_c, 0, 66, 66
1, 163302, Note_on_c, 0, 53, 56
1, 163304, Note_on_c, 0, 65, 16
1, 163321, Note_on_c, 0, 62, 60
1, 163321, Note_on_c, 0, 72, 55
1, 163332, Note_off_c, 0, 53, 58
1, 163363, Note_off_c, 0, 62, 61
1, 163370, Note_off_c, 0, 72, 64
1, 163372, Note_off_c, 0, 65, 44
1, 163390, Note_on_c, 0, 71, 60
1, 163449, Note_off_c, 0, 71, 59
1, 163478, Note_on_c, 0, 70, 55
1, 163583, Control_c, 0, 64, 38
1, 163602, Control_c, 0, 64, 73
1, 163621, Control_c, 0, 64, 107
1, 163639, Control_c, 0, 64, 127
1, 163648, Note_off_c, 0, 70, 51
1, 163651, Note_on_c, 0, 44, 79
1, 163661, Note_on_c, 0, 32, 56
1, 163679, Note_off_c, 0, 44, 66
1, 163697, Note_off_c, 0, 32, 50
1, 163836, Note_on_c, 0, 65, 68
1, 163836, Note_on_c, 0, 70, 71
1, 163840, Note_on_c, 0, 77, 66
1, 163860, Note_on_c, 0, 62, 39
1, 163862, Control_c, 0, 64, 85
1, 163868, Note_off_c, 0, 70, 65
1, 163876, Note_off_c, 0, 65, 62
1, 163876, Note_on_c, 0, 76, 40
1, 163881, Control_c, 0, 64, 44
1, 163889, Note_off_c, 0, 77, 57
1, 163900, Note_off_c, 0, 62, 55
1, 163900, Note_on_c, 0, 71, 79
1, 163900, Control_c, 0, 64, 0
1, 163920, Note_off_c, 0, 76, 36
1, 163947, Note_off_c, 0, 71, 58
1, 163989, Note_on_c, 0, 70, 62
1, 163990, Note_on_c, 0, 56, 67
1, 163991, Note_on_c, 0, 65, 72
1, 163995, Note_on_c, 0, 76, 74
1, 164015, Note_off_c, 0, 70, 68
1, 164024, Note_off_c, 0, 56, 67
1, 164040, Note_off_c, 0, 65, 55
1, 164052, Note_off_c, 0, 76, 63
1, 164059, Note_on_c, 0, 72, 76
1, 164069, Control_c, 0, 67, 31
1, 164106, Control_c, 0, 67, 26
1, 164117, Note_off_c, 0, 72, 59
1, 164127, Note_on_c, 0, 75, 70
1, 164132, Note_on_c, 0, 70, 53
1, 164144, Control_c, 0, 67, 16
1, 164160, Note_off_c, 0, 75, 71
1, 164160, Note_on_c, 0, 62, 31
1, 164163, Note_off_c, 0, 70, 64
1, 164165, Note_on_c, 0, 65, 53
1, 164181, Control_c, 0, 67, 0
1, 164199, Note_on_c, 0, 71, 76
1, 164213, Note_off_c, 0, 62, 53
1, 164242, Note_off_c, 0, 71, 63
1, 164276, Note_on_c, 0, 70, 63
1, 164282, Note_on_c, 0, 56, 58
1, 164288, Note_on_c, 0, 74, 67
1, 164299, Note_off_c, 0, 70, 68
1, 164312, Note_off_c, 0, 56, 61
1, 164361, Note_on_c, 0, 72, 79
1, 164368, Note_off_c, 0, 74, 63
1, 164386, Note_off_c, 0, 65, 50
1, 164394, Note_on_c, 0, 70, 68
1, 164406, Note_off_c, 0, 72, 62
1, 164414, Note_on_c, 0, 77, 69
1, 164415, Note_on_c, 0, 62, 48
1, 164424, Note_off_c, 0, 70, 70
1, 164452, Note_off_c, 0, 62, 57
1, 164494, Note_on_c, 0, 71, 70
1, 164513, Note_off_c, 0, 77, 53
1, 164536, Note_off_c, 0, 71, 62
1, 164542, Note_on_c, 0, 70, 73
1, 164552, Note_on_c, 0, 76, 73
1, 164563, Note_on_c, 0, 56, 71
1, 164569, Note_off_c, 0, 70, 69
1, 164593, Control_c, 0, 64, 51
1, 164594, Note_off_c, 0, 56, 71
1, 164611, Control_c, 0, 64, 75
1, 164615, Note_on_c, 0, 75, 82
1, 164622, Note_off_c, 0, 76, 63
1, 164630, Control_c, 0, 64, 109
1, 164648, Control_c, 0, 64, 127
1, 164692, Note_on_c, 0, 74, 86
1, 164695, Note_off_c, 0, 75, 65
1, 164796, Note_off_c, 0, 74, 55
1, 164817, Control_c, 0, 64, 100
1, 164838, Control_c, 0, 64, 58
1, 164853, Note_on_c, 0, 42, 90
1, 164854, Control_c, 0, 64, 0
1, 164863, Note_on_c, 0, 30, 73
1, 164887, Note_off_c, 0, 42, 68
1, 164891, Control_c, 0, 64, 24
1, 164899, Note_off_c, 0, 30, 62
1, 164911, Control_c, 0, 64, 49
1, 164929, Control_c, 0, 64, 67
1, 164949, Control_c, 0, 64, 90
1, 164967, Control_c, 0, 64, 127
1, 165018, Note_on_c, 0, 82, 89
1, 165024, Note_on_c, 0, 70, 82
1, 165028, Note_on_c, 0, 64, 80
1, 165039, Note_on_c, 0, 73, 65
1, 165042, Note_on_c, 0, 54, 68
1, 165042, Control_c, 0, 64, 100
1, 165058, Note_off_c, 0, 70, 64
1, 165058, Note_off_c, 0, 64, 71
1, 165059, Control_c, 0, 64, 68
1, 165065, Note_off_c, 0, 54, 63
1, 165072, Note_off_c, 0, 73, 69
1, 165078, Control_c, 0, 64, 45
1, 165099, Control_c, 0, 64, 42
1, 165102, Note_off_c, 0, 82, 63
1, 165116, Control_c, 0, 64, 54
1, 165131, Poly_aftertouch_c, 0, 61, 0
1, 165134, Control_c, 0, 64, 68
1, 165155, Control_c, 0, 64, 89
1, 165173, Control_c, 0, 64, 127
1, 165174, Note_on_c, 0, 80, 88
1, 165177, Note_on_c, 0, 64, 75
1, 165177, Note_on_c, 0, 73, 82
1, 165188, Note_on_c, 0, 58, 74
1, 165188, Note_on_c, 0, 61, 55
1, 165204, Note_off_c, 0, 73, 71
1, 165210, Note_off_c, 0, 64, 70
1, 165218, Note_off_c, 0, 58, 67
1, 165221, Note_off_c, 0, 61, 60
1, 165240, Note_on_c, 0, 79, 79
1, 165248, Note_off_c, 0, 80, 64
1, 165316, Note_on_c, 0, 78, 95
1, 165337, Note_off_c, 0, 79, 64
1, 165361, Note_off_c, 0, 78, 70
1, 165371, Poly_aftertouch_c, 0, 58, 0
1, 165398, Control_c, 0, 64, 66
1, 165415, Control_c, 0, 64, 0
1, 165472, Note_on_c, 0, 47, 93
1, 165482, Note_on_c, 0, 35, 76
1, 165489, Control_c, 0, 64, 31
1, 165498, Note_off_c, 0, 47, 72
1, 165509, Control_c, 0, 64, 75
1, 165512, Note_off_c, 0, 35, 59
1, 165527, Control_c, 0, 64, 127
1, 165599, Poly_aftertouch_c, 0, 36, 127
1, 165626, Poly_aftertouch_c, 0, 36, 0
1, 165644, Note_on_c, 0, 69, 88
1, 165647, Note_on_c, 0, 78, 88
1, 165649, Note_on_c, 0, 75, 79
1, 165650, Note_on_c, 0, 59, 88
1, 165650, Note_on_c, 0, 87, 94
1, 165664, Note_on_c, 0, 66, 65
1, 165674, Note_off_c, 0, 69, 67
1, 165674, Poly_aftertouch_c, 0, 69, 0
1, 165677, Note_off_c, 0, 59, 73
1, 165678, Note_off_c, 0, 75, 69
1, 165688, Note_off_c, 0, 78, 56
1, 165688, Note_off_c, 0, 66, 65
1, 165701, Note_off_c, 0, 87, 66
1, 165798, Note_on_c, 0, 69, 90
1, 165800, Note_on_c, 0, 66, 85
1, 165801, Note_on_c, 0, 85, 98
1, 165807, Note_on_c, 0, 63, 89
1, 165825, Note_off_c, 0, 69, 70
1, 165825, Poly_aftertouch_c, 0, 69, 0
1, 165833, Note_off_c, 0, 66, 68
1, 165842, Note_off_c, 0, 63, 66
1, 165851, Note_off_c, 0, 85, 62
1, 165858, Note_on_c, 0, 84, 71
1, 165945, Note_on_c, 0, 83, 97
1, 165966, Note_off_c, 0, 84, 66
1, 165985, Note_off_c, 0, 83, 70
1, 166088, Control_c, 0, 64, 61
1, 166108, Control_c, 0, 64, 0
1, 166171, Note_on_c, 0, 41, 101
1, 166176, Note_on_c, 0, 29, 90
1, 166200, Control_c, 0, 64, 43
1, 166207, Note_off_c, 0, 29, 64
1, 166213, Note_off_c, 0, 41, 69
1, 166219, Control_c, 0, 64, 127
1, 166363, Poly_aftertouch_c, 0, 29, 0
1, 166453, Note_on_c, 0, 53, 76
1, 166457, Poly_aftertouch_c, 0, 52, 0
1, 166538, Note_on_c, 0, 93, 110
1, 166554, Control_c, 0, 64, 111
1, 166555, Note_on_c, 0, 84, 83
1, 166563, Note_on_c, 0, 87, 72
1, 166572, Note_off_c, 0, 53, 58
1, 166573, Control_c, 0, 64, 102
1, 166582, Note_off_c, 0, 84, 67
1, 166588, Note_off_c, 0, 87, 60
1, 166588, Note_on_c, 0, 52, 67
1, 166592, Control_c, 0, 64, 111
1, 166611, Control_c, 0, 64, 127
1, 166694, Note_off_c, 0, 93, 63
1, 166706, Note_on_c, 0, 54, 73
1, 166712, Note_off_c, 0, 52, 61
1, 166748, Note_on_c, 0, 92, 97
1, 166759, Note_on_c, 0, 84, 74
1, 166760, Note_on_c, 0, 87, 84
1, 166762, Control_c, 0, 64, 95
1, 166767, Note_on_c, 0, 53, 59
1, 166780, Control_c, 0, 64, 75
1, 166788, Note_off_c, 0, 54, 60
1, 166796, Note_off_c, 0, 84, 64
1, 166799, Control_c, 0, 64, 71
1, 166814, Note_off_c, 0, 87, 60
1, 166817, Control_c, 0, 64, 80
1, 166831, Note_off_c, 0, 53, 60
1, 166833, Note_off_c, 0, 92, 67
1, 166837, Control_c, 0, 64, 103
1, 166845, Note_on_c, 0, 55, 63
1, 166856, Control_c, 0, 64, 127
1, 166893, Note_off_c, 0, 55, 59
1, 166896, Note_on_c, 0, 91, 97
1, 166910, Note_on_c, 0, 84, 82
1, 166924, Note_on_c, 0, 87, 74
1, 166930, Note_on_c, 0, 54, 73
1, 166930, Control_c, 0, 64, 111
1, 166939, Note_off_c, 0, 84, 67
1, 166948, Control_c, 0, 64, 79
1, 166952, Note_off_c, 0, 87, 71
1, 166968, Control_c, 0, 64, 62
1, 166970, Note_off_c, 0, 91, 65
1, 166975, Note_off_c, 0, 54, 61
1, 167002, Note_on_c, 0, 56, 67
1, 167004, Control_c, 0, 64, 74
1, 167024, Control_c, 0, 64, 100
1, 167037, Note_on_c, 0, 90, 88
1, 167042, Control_c, 0, 64, 127
1, 167044, Note_on_c, 0, 87, 80
1, 167053, Note_on_c, 0, 84, 70
1, 167061, Note_off_c, 0, 56, 64
1, 167064, Note_on_c, 0, 55, 65
1, 167075, Note_off_c, 0, 87, 65
1, 167079, Control_c, 0, 64, 98
1, 167083, Note_off_c, 0, 84, 69
1, 167101, Control_c, 0, 64, 70
1, 167105, Note_off_c, 0, 55, 65
1, 167108, Note_off_c, 0, 90, 65
1, 167117, Note_on_c, 0, 57, 62
1, 167120, Control_c, 0, 64, 49
1, 167155, Control_c, 0, 64, 58
1, 167161, Note_off_c, 0, 57, 58
1, 167161, Poly_aftertouch_c, 0, 57, 0
1, 167171, Note_on_c, 0, 89, 81
1, 167174, Control_c, 0, 64, 72
1, 167179, Note_on_c, 0, 81, 68
1, 167179, Note_on_c, 0, 84, 80
1, 167192, Control_c, 0, 64, 83
1, 167194, Note_on_c, 0, 56, 64
1, 167210, Control_c, 0, 64, 79
1, 167212, Note_off_c, 0, 84, 63
1, 167219, Note_off_c, 0, 81, 59
1, 167230, Control_c, 0, 64, 65
1, 167237, Note_off_c, 0, 89, 63
1, 167239, Note_off_c, 0, 56, 68
1, 167248, Control_c, 0, 64, 52
1, 167262, Note_on_c, 0, 58, 71
1, 167267, Control_c, 0, 64, 50
1, 167286, Control_c, 0, 64, 57
1, 167298, Note_on_c, 0, 88, 82
1, 167304, Control_c, 0, 64, 61
1, 167318, Note_on_c, 0, 84, 70
1, 167323, Control_c, 0, 64, 57
1, 167338, Note_on_c, 0, 57, 55
1, 167338, Note_on_c, 0, 81, 51
1, 167339, Note_off_c, 0, 58, 57
1, 167341, Control_c, 0, 64, 49
1, 167348, Note_off_c, 0, 84, 70
1, 167360, Control_c, 0, 64, 42
1, 167370, Note_off_c, 0, 81, 57
1, 167371, Note_off_c, 0, 88, 65
1, 167377, Note_off_c, 0, 57, 66
1, 167377, Poly_aftertouch_c, 0, 57, 0
1, 167380, Control_c, 0, 64, 32
1, 167403, Note_on_c, 0, 59, 60
1, 167416, Control_c, 0, 64, 0
1, 167441, Note_on_c, 0, 87, 73
1, 167447, Note_on_c, 0, 81, 69
1, 167451, Note_off_c, 0, 59, 57
1, 167456, Note_on_c, 0, 84, 56
1, 167474, Note_on_c, 0, 58, 65
1, 167480, Note_off_c, 0, 81, 68
1, 167481, Note_off_c, 0, 87, 63
1, 167485, Note_off_c, 0, 84, 61
1, 167516, Note_off_c, 0, 58, 64
1, 167547, Note_on_c, 0, 60, 66
1, 167585, Note_off_c, 0, 60, 67
1, 167585, Note_on_c, 0, 86, 74
1, 167585, Note_on_c, 0, 81, 74
1, 167585, Poly_aftertouch_c, 0, 60, 0
1, 167611, Note_on_c, 0, 59, 58
1, 167612, Note_on_c, 0, 78, 42
1, 167615, Note_off_c, 0, 81, 67
1, 167647, Note_off_c, 0, 86, 54
1, 167649, Note_off_c, 0, 78, 57
1, 167655, Note_off_c, 0, 59, 63
1, 167703, Note_on_c, 0, 61, 56
1, 167717, Note_on_c, 0, 85, 77
1, 167722, Note_on_c, 0, 81, 71
1, 167735, Note_on_c, 0, 78, 56
1, 167741, Note_off_c, 0, 61, 65
1, 167752, Note_off_c, 0, 81, 67
1, 167765, Note_off_c, 0, 78, 64
1, 167765, Note_on_c, 0, 60, 46
1, 167786, Note_off_c, 0, 85, 60
1, 167801, Note_off_c, 0, 60, 56
1, 167801, Poly_aftertouch_c, 0, 60, 0
1, 167832, Note_on_c, 0, 62, 57
1, 167849, Note_on_c, 0, 84, 74
1, 167859, Note_on_c, 0, 81, 63
1, 167865, Note_on_c, 0, 78, 52
1, 167878, Note_off_c, 0, 62, 60
1, 167895, Note_off_c, 0, 78, 61
1, 167895, Note_off_c, 0, 81, 67
1, 167906, Note_on_c, 0, 61, 56
1, 167922, Note_off_c, 0, 84, 62
1, 167954, Note_off_c, 0, 61, 65
1, 167984, Note_on_c, 0, 63, 59
1, 167984, Note_on_c, 0, 83, 69
1, 167989, Note_on_c, 0, 78, 69
1, 167993, Note_on_c, 0, 75, 61
1, 168026, Note_off_c, 0, 63, 66
1, 168026, Note_off_c, 0, 78, 63
1, 168031, Note_off_c, 0, 75, 64
1, 168037, Note_off_c, 0, 83, 63
1, 168041, Note_on_c, 0, 62, 61
1, 168079, Note_off_c, 0, 62, 63
1, 168120, Note_on_c, 0, 82, 69
1, 168122, Note_on_c, 0, 64, 47
1, 168126, Note_on_c, 0, 75, 57
1, 168156, Note_off_c, 0, 75, 64
1, 168158, Note_off_c, 0, 64, 60
1, 168166, Note_off_c, 0, 82, 62
1, 168199, Note_on_c, 0, 63, 47
1, 168235, Note_off_c, 0, 63, 58
1, 168253, Note_on_c, 0, 81, 72
1, 168263, Note_on_c, 0, 65, 63
1, 168265, Note_on_c, 0, 75, 59
1, 168293, Note_on_c, 0, 72, 42
1, 168298, Note_off_c, 0, 65, 66
1, 168306, Note_off_c, 0, 75, 66
1, 168311, Note_off_c, 0, 81, 61
1, 168333, Note_off_c, 0, 72, 50
1, 168334, Note_on_c, 0, 64, 49
1, 168378, Note_off_c, 0, 64, 65
1, 168390, Note_on_c, 0, 80, 72
1, 168396, Note_on_c, 0, 75, 66
1, 168401, Note_on_c, 0, 66, 70
1, 168413, Note_on_c, 0, 72, 47
1, 168425, Note_off_c, 0, 80, 61
1, 168432, Note_off_c, 0, 75, 68
1, 168437, Note_off_c, 0, 66, 66
1, 168447, Note_off_c, 0, 72, 56
1, 168469, Note_on_c, 0, 64, 48
1, 168507, Note_off_c, 0, 64, 57
1, 168521, Note_on_c, 0, 67, 68
1, 168524, Note_on_c, 0, 79, 74
1, 168529, Note_on_c, 0, 72, 70
1, 168563, Note_on_c, 0, 75, 37
1, 168564, Note_off_c, 0, 67, 64
1, 168566, Note_off_c, 0, 72, 65
1, 168576, Note_off_c, 0, 79, 57
1, 168606, Note_off_c, 0, 75, 34
1, 168625, Note_on_c, 0, 66, 24
1, 168654, Note_on_c, 0, 78, 73
1, 168668, Note_on_c, 0, 75, 67
1, 168674, Note_on_c, 0, 72, 59
1, 168675, Note_off_c, 0, 66, 32
1, 168696, Note_on_c, 0, 69, 47
1, 168700, Note_on_c, 0, 68, 29
1, 168701, Note_off_c, 0, 75, 68
1, 168708, Note_off_c, 0, 78, 63
1, 168712, Note_off_c, 0, 72, 63
1, 168729, Note_off_c, 0, 69, 57
1, 168729, Poly_aftertouch_c, 0, 69, 0
1, 168747, Note_on_c, 0, 67, 49
1, 168764, Note_off_c, 0, 68, 63
1, 168783, Note_off_c, 0, 67, 58
1, 168796, Note_on_c, 0, 75, 76
1, 168796, Note_on_c, 0, 72, 70
1, 168800, Note_on_c, 0, 77, 75
1, 168802, Note_on_c, 0, 69, 70
1, 168831, Note_off_c, 0, 75, 62
1, 168834, Note_off_c, 0, 69, 67
1, 168834, Poly_aftertouch_c, 0, 69, 0
1, 168837, Note_off_c, 0, 72, 61
1, 168846, Note_off_c, 0, 77, 59
1, 168932, Note_on_c, 0, 75, 85
1, 168933, Note_on_c, 0, 79, 75
1, 168954, Note_on_c, 0, 70, 71
1, 168995, Note_off_c, 0, 75, 63
1, 169002, Note_off_c, 0, 79, 59
1, 169014, Note_off_c, 0, 70, 60
1, 169057, Note_on_c, 0, 75, 70
1, 169059, Poly_aftertouch_c, 0, 69, 127
1, 169069, Note_on_c, 0, 77, 80
1, 169073, Note_on_c, 0, 72, 68
1, 169128, Note_off_c, 0, 75, 64
1, 169134, Note_off_c, 0, 77, 60
1, 169151, Note_off_c, 0, 72, 59
1, 169182, Note_on_c, 0, 68, 76
1, 169196, Poly_aftertouch_c, 0, 69, 0
1, 169204, Note_on_c, 0, 78, 82
1, 169211, Note_on_c, 0, 75, 77
1, 169252, Note_off_c, 0, 68, 54
1, 169256, Note_off_c, 0, 75, 60
1, 169265, Note_off_c, 0, 78, 65
1, 169296, Note_on_c, 0, 71, 57
1, 169334, Note_on_c, 0, 75, 77
1, 169341, Note_on_c, 0, 77, 77
1, 169351, Note_on_c, 0, 69, 53
1, 169372, Note_off_c, 0, 71, 60
1, 169380, Note_off_c, 0, 77, 61
1, 169391, Note_off_c, 0, 75, 63
1, 169420, Note_off_c, 0, 69, 62
1, 169424, Note_on_c, 0, 72, 65
1, 169472, Note_on_c, 0, 79, 73
1, 169474, Note_on_c, 0, 75, 72
1, 169474, Control_c, 0, 67, 9
1, 169494, Note_off_c, 0, 72, 59
1, 169498, Note_on_c, 0, 68, 67
1, 169511, Control_c, 0, 67, 17
1, 169519, Note_off_c, 0, 79, 59
1, 169528, Note_off_c, 0, 75, 58
1, 169530, Control_c, 0, 67, 22
1, 169546, Note_off_c, 0, 68, 62
1, 169546, Control_c, 0, 67, 28
1, 169566, Control_c, 0, 67, 33
1, 169581, Note_on_c, 0, 71, 64
1, 169611, Note_on_c, 0, 75, 68
1, 169618, Note_off_c, 0, 71, 61
1, 169621, Control_c, 0, 67, 37
1, 169623, Note_on_c, 0, 77, 63
1, 169641, Note_on_c, 0, 69, 64
1, 169655, Note_off_c, 0, 75, 62
1, 169660, Note_off_c, 0, 77, 65
1, 169678, Note_off_c, 0, 69, 65
1, 169696, Note_on_c, 0, 72, 55
1, 169743, Note_off_c, 0, 72, 64
1, 169755, Note_on_c, 0, 78, 70
1, 169768, Note_on_c, 0, 75, 70
1, 169770, Note_on_c, 0, 68, 62
1, 169772, Control_c, 0, 67, 43
1, 169797, Note_off_c, 0, 78, 65
1, 169801, Note_off_c, 0, 75, 67
1, 169808, Control_c, 0, 67, 50
1, 169810, Note_off_c, 0, 68, 66
1, 169827, Control_c, 0, 67, 55
1, 169840, Note_on_c, 0, 71, 56
1, 169846, Control_c, 0, 67, 60
1, 169866, Control_c, 0, 67, 64
1, 169883, Note_off_c, 0, 71, 61
1, 169901, Note_on_c, 0, 77, 68
1, 169911, Note_on_c, 0, 75, 59
1, 169913, Note_on_c, 0, 69, 61
1, 169938, Note_off_c, 0, 75, 63
1, 169945, Note_off_c, 0, 77, 61
1, 169949, Note_off_c, 0, 69, 65
1, 169951, Note_on_c, 0, 72, 55
1, 170005, Note_off_c, 0, 72, 63
1, 170037, Note_on_c, 0, 75, 66
1, 170042, Note_on_c, 0, 79, 65
1, 170049, Note_on_c, 0, 68, 57
1, 170082, Note_off_c, 0, 68, 63
1, 170083, Note_off_c, 0, 79, 60
1, 170086, Note_off_c, 0, 75, 60
1, 170114, Note_on_c, 0, 71, 53
1, 170162, Note_off_c, 0, 71, 63
1, 170189, Note_on_c, 0, 69, 61
1, 170202, Note_on_c, 0, 77, 56
1, 170205, Note_on_c, 0, 75, 54
1, 170221, Note_off_c, 0, 69, 63
1, 170231, Note_off_c, 0, 75, 60
1, 170234, Note_on_c, 0, 72, 48
1, 170235, Note_off_c, 0, 77, 62
1, 170293, Note_off_c, 0, 72, 61
1, 170342, Note_on_c, 0, 68, 56
1, 170349, Note_on_c, 0, 79, 59
1, 170357, Note_on_c, 0, 75, 45
1, 170381, Note_off_c, 0, 68, 66
1, 170392, Note_off_c, 0, 79, 62
1, 170394, Note_off_c, 0, 75, 57
1, 170419, Note_on_c, 0, 71, 39
1, 170467, Note_off_c, 0, 71, 51
1, 170503, Note_on_c, 0, 69, 48
1, 170509, Note_on_c, 0, 75, 48
1, 170513, Note_on_c, 0, 77, 55
1, 170536, Note_off_c, 0, 69, 58
1, 170552, Note_off_c, 0, 75, 54
1, 170557, Note_off_c, 0, 77, 62
1, 170563, Note_on_c, 0, 72, 42
1, 170616, Note_off_c, 0, 72, 58
1, 170665, Note_on_c, 0, 68, 54
1, 170682, Note_on_c, 0, 75, 52
1, 170690, Note_on_c, 0, 79, 46
1, 170718, Note_off_c, 0, 68, 64
1, 170728, Note_off_c, 0, 79, 57
1, 170730, Note_off_c, 0, 75, 60
1, 170781, Note_on_c, 0, 71, 39
1, 170846, Note_off_c, 0, 71, 62
1, 170874, Note_on_c, 0, 69, 49
1, 170876, Note_on_c, 0, 75, 30
1, 170882, Note_on_c, 0, 77, 49
1, 170915, Note_off_c, 0, 77, 58
1, 170917, Note_off_c, 0, 69, 65
1, 170920, Note_off_c, 0, 75, 48
1, 170963, Note_on_c, 0, 72, 43
1, 171098, Note_off_c, 0, 72, 31
1, 171179, Note_on_c, 0, 77, 47
1, 171181, Note_on_c, 0, 70, 26
1, 171184, Note_on_c, 0, 74, 40
1, 171193, Control_c, 0, 64, 33
1, 171212, Control_c, 0, 64, 53
1, 171230, Control_c, 0, 64, 64
1, 171245, Note_off_c, 0, 77, 58
1, 171247, Note_off_c, 0, 74, 51
1, 171247, Control_c, 0, 64, 76
1, 171259, Note_off_c, 0, 70, 48
1, 171267, Control_c, 0, 64, 95
1, 171286, Control_c, 0, 64, 127
1, 171361, Control_c, 0, 67, 60
1, 171379, Control_c, 0, 67, 55
1, 171399, Control_c, 0, 67, 44
1, 171417, Control_c, 0, 67, 28
1, 171435, Control_c, 0, 67, 8
1, 171456, Control_c, 0, 67, 0
1, 171733, Note_on_c, 0, 62, 31
1, 171787, Note_off_c, 0, 62, 50
1, 171825, Note_on_c, 0, 63, 42
1, 171884, Note_off_c, 0, 63, 60
1, 171911, Note_on_c, 0, 62, 44
1, 171970, Note_off_c, 0, 62, 60
1, 172022, Note_on_c, 0, 64, 41
1, 172087, Note_off_c, 0, 64, 57
1, 172142, Note_on_c, 0, 59, 71
1, 172161, Note_on_c, 0, 56, 51
1, 172164, Control_c, 0, 64, 96
1, 172173, Note_on_c, 0, 65, 45
1, 172182, Control_c, 0, 64, 77
1, 172185, Note_on_c, 0, 50, 33
1, 172204, Control_c, 0, 64, 64
1, 172211, Note_off_c, 0, 65, 58
1, 172221, Control_c, 0, 64, 57
1, 172253, Note_on_c, 0, 66, 50
1, 172257, Note_off_c, 0, 56, 65
1, 172258, Control_c, 0, 64, 59
1, 172278, Control_c, 0, 64, 65
1, 172297, Control_c, 0, 64, 75
1, 172303, Note_off_c, 0, 66, 65
1, 172315, Control_c, 0, 64, 91
1, 172322, Note_on_c, 0, 65, 59
1, 172333, Control_c, 0, 64, 127
1, 172380, Note_off_c, 0, 65, 60
1, 172414, Note_on_c, 0, 67, 53
1, 172439, Poly_aftertouch_c, 0, 50, 24
1, 172459, Note_off_c, 0, 67, 64
1, 172471, Poly_aftertouch_c, 0, 57, 0
1, 172474, Note_on_c, 0, 68, 62
1, 172514, Note_off_c, 0, 68, 67
1, 172542, Poly_aftertouch_c, 0, 56, 0
1, 172560, Note_on_c, 0, 69, 56
1, 172577, Note_off_c, 0, 50, 24
1, 172577, Poly_aftertouch_c, 0, 50, 0
1, 172599, Note_off_c, 0, 69, 64
1, 172617, Note_on_c, 0, 68, 61
1, 172646, Note_off_c, 0, 59, 51
1, 172652, Note_off_c, 0, 68, 67
1, 172680, Note_on_c, 0, 70, 57
1, 172709, Note_off_c, 0, 70, 68
1, 172753, Note_on_c, 0, 71, 60
1, 172799, Note_off_c, 0, 71, 61
1, 172836, Note_on_c, 0, 72, 58
1, 172870, Note_on_c, 0, 62, 84
1, 172877, Control_c, 0, 64, 105
1, 172881, Note_off_c, 0, 72, 61
1, 172895, Control_c, 0, 64, 83
1, 172910, Note_on_c, 0, 71, 59
1, 172913, Control_c, 0, 64, 67
1, 172932, Control_c, 0, 64, 53
1, 172950, Note_off_c, 0, 71, 64
1, 172950, Control_c, 0, 64, 49
1, 172970, Control_c, 0, 64, 54
1, 172978, Note_on_c, 0, 73, 60
1, 172987, Control_c, 0, 64, 62
1, 173007, Control_c, 0, 64, 70
1, 173014, Note_off_c, 0, 73, 66
1, 173026, Control_c, 0, 64, 82
1, 173045, Control_c, 0, 64, 99
1, 173051, Note_on_c, 0, 61, 77
1, 173053, Note_on_c, 0, 74, 71
1, 173060, Note_off_c, 0, 62, 60
1, 173061, Note_on_c, 0, 53, 64
1, 173064, Control_c, 0, 64, 123
1, 173067, Note_on_c, 0, 56, 59
1, 173094, Note_off_c, 0, 61, 61
1, 173100, Control_c, 0, 64, 102
1, 173101, Note_off_c, 0, 74, 61
1, 173103, Note_off_c, 0, 53, 64
1, 173109, Note_off_c, 0, 56, 65
1, 173118, Control_c, 0, 64, 81
1, 173122, Note_on_c, 0, 75, 66
1, 173138, Control_c, 0, 64, 60
1, 173157, Control_c, 0, 64, 24
1, 173162, Note_off_c, 0, 75, 66
1, 173174, Control_c, 0, 64, 0
1, 173184, Note_on_c, 0, 74, 71
1, 173204, Note_on_c, 0, 60, 76
1, 173233, Note_off_c, 0, 74, 62
1, 173249, Note_off_c, 0, 60, 62
1, 173249, Poly_aftertouch_c, 0, 60, 0
1, 173263, Note_on_c, 0, 76, 57
1, 173289, Note_off_c, 0, 76, 61
1, 173337, Note_on_c, 0, 77, 72
1, 173348, Note_on_c, 0, 59, 75
1, 173358, Note_on_c, 0, 50, 60
1, 173379, Note_off_c, 0, 59, 67
1, 173382, Note_off_c, 0, 77, 62
1, 173391, Note_off_c, 0, 50, 59
1, 173391, Poly_aftertouch_c, 0, 50, 0
1, 173418, Note_on_c, 0, 78, 55
1, 173450, Note_off_c, 0, 78, 61
1, 173480, Note_on_c, 0, 77, 69
1, 173482, Note_on_c, 0, 62, 79
1, 173529, Note_off_c, 0, 77, 57
1, 173540, Note_off_c, 0, 62, 62
1, 173565, Note_on_c, 0, 79, 64
1, 173618, Note_on_c, 0, 61, 81
1, 173627, Note_off_c, 0, 79, 56
1, 173641, Note_on_c, 0, 80, 65
1, 173642, Note_on_c, 0, 53, 56
1, 173646, Note_off_c, 0, 61, 73
1, 173657, Note_on_c, 0, 56, 51
1, 173670, Note_off_c, 0, 80, 70
1, 173710, Note_on_c, 0, 60, 76
1, 173711, Note_on_c, 0, 81, 69
1, 173713, Note_off_c, 0, 56, 61
1, 173741, Note_off_c, 0, 53, 60
1, 173745, Note_off_c, 0, 60, 64
1, 173745, Poly_aftertouch_c, 0, 60, 0
1, 173758, Note_off_c, 0, 81, 60
1, 173779, Note_on_c, 0, 80, 68
1, 173789, Note_on_c, 0, 59, 64
1, 173797, Note_on_c, 0, 57, 58
1, 173821, Note_off_c, 0, 59, 66
1, 173824, Note_off_c, 0, 57, 62
1, 173836, Note_on_c, 0, 83, 63
1, 173838, Note_off_c, 0, 80, 61
1, 173880, Note_off_c, 0, 83, 63
1, 173941, Control_c, 0, 64, 11
1, 173949, Note_on_c, 0, 86, 74
1, 173954, Note_on_c, 0, 62, 74
1, 173957, Note_on_c, 0, 57, 57
1, 173961, Control_c, 0, 64, 46
1, 173968, Note_on_c, 0, 50, 56
1, 173979, Control_c, 0, 64, 62
1, 173992, Note_off_c, 0, 86, 61
1, 173997, Note_on_c, 0, 54, 42
1, 173997, Control_c, 0, 64, 76
1, 174018, Control_c, 0, 64, 98
1, 174031, Note_on_c, 0, 87, 64
1, 174035, Note_off_c, 0, 57, 53
1, 174035, Control_c, 0, 64, 127
1, 174037, Note_off_c, 0, 50, 56
1, 174037, Poly_aftertouch_c, 0, 50, 0
1, 174047, Note_off_c, 0, 62, 58
1, 174057, Note_off_c, 0, 54, 61
1, 174067, Note_off_c, 0, 87, 70
1, 174102, Note_on_c, 0, 86, 65
1, 174148, Note_off_c, 0, 86, 62
1, 174165, Note_on_c, 0, 89, 67
1, 174219, Note_off_c, 0, 89, 57
1, 174238, Note_on_c, 0, 90, 72
1, 174269, Note_off_c, 0, 90, 70
1, 174319, Note_on_c, 0, 91, 69
1, 174379, Note_off_c, 0, 91, 63
1, 174383, Note_on_c, 0, 90, 75
1, 174442, Note_on_c, 0, 92, 72
1, 174443, Note_off_c, 0, 90, 63
1, 174446, Control_c, 0, 64, 101
1, 174466, Control_c, 0, 64, 84
1, 174471, Note_off_c, 0, 92, 71
1, 174484, Control_c, 0, 64, 68
1, 174501, Control_c, 0, 64, 46
1, 174502, Note_on_c, 0, 93, 84
1, 174521, Control_c, 0, 64, 0
1, 174556, Note_off_c, 0, 93, 65
1, 174566, Note_on_c, 0, 94, 83
1, 174615, Control_c, 0, 64, 28
1, 174634, Control_c, 0, 64, 48
1, 174636, Note_off_c, 0, 94, 64
1, 174640, Note_on_c, 0, 93, 79
1, 174652, Control_c, 0, 64, 59
1, 174670, Control_c, 0, 64, 64
1, 174690, Control_c, 0, 64, 67
1, 174704, Note_off_c, 0, 93, 65
1, 174705, Note_on_c, 0, 97, 78
1, 174707, Control_c, 0, 64, 69
1, 174726, Control_c, 0, 64, 65
1, 174745, Control_c, 0, 64, 53
1, 174764, Control_c, 0, 64, 33
1, 174770, Note_off_c, 0, 97, 63
1, 174771, Note_on_c, 0, 98, 77
1, 174783, Control_c, 0, 64, 22
1, 174820, Control_c, 0, 64, 39
1, 174839, Control_c, 0, 64, 58
1, 174849, Note_on_c, 0, 97, 82
1, 174857, Control_c, 0, 64, 71
1, 174859, Note_off_c, 0, 98, 61
1, 174877, Control_c, 0, 64, 89
1, 174895, Control_c, 0, 64, 127
1, 174919, Note_on_c, 0, 98, 64
1, 174920, Note_off_c, 0, 97, 63
1, 174993, Note_on_c, 0, 97, 80
1, 175012, Note_off_c, 0, 98, 64
1, 175026, Control_c, 0, 64, 111
1, 175046, Control_c, 0, 64, 79
1, 175054, Note_off_c, 0, 97, 64
1, 175063, Control_c, 0, 64, 55
1, 175082, Control_c, 0, 64, 31
1, 175100, Note_on_c, 0, 63, 68
1, 175101, Control_c, 0, 64, 26
1, 175113, Note_on_c, 0, 55, 59
1, 175113, Note_on_c, 0, 96, 81
1, 175119, Note_on_c, 0, 48, 53
1, 175120, Control_c, 0, 64, 33
1, 175135, Note_on_c, 0, 99, 65
1, 175137, Control_c, 0, 64, 48
1, 175144, Note_off_c, 0, 63, 62
1, 175157, Control_c, 0, 64, 63
1, 175158, Note_off_c, 0, 55, 66
1, 175168, Note_off_c, 0, 48, 60
1, 175175, Control_c, 0, 64, 76
1, 175194, Note_off_c, 0, 96, 64
1, 175194, Control_c, 0, 64, 92
1, 175202, Note_on_c, 0, 95, 77
1, 175212, Note_off_c, 0, 99, 43
1, 175212, Control_c, 0, 64, 115
1, 175232, Control_c, 0, 64, 127
1, 175259, Note_off_c, 0, 95, 62
1, 175259, Poly_aftertouch_c, 0, 95, 0
1, 175286, Note_on_c, 0, 96, 74
1, 175356, Note_off_c, 0, 96, 64
1, 175359, Note_on_c, 0, 94, 76
1, 175399, Control_c, 0, 64, 104
1, 175419, Control_c, 0, 64, 69
1, 175423, Note_off_c, 0, 94, 64
1, 175432, Note_on_c, 0, 93, 71
1, 175438, Control_c, 0, 64, 30
1, 175456, Control_c, 0, 64, 0
1, 175496, Note_on_c, 0, 91, 78
1, 175508, Note_off_c, 0, 93, 60
1, 175579, Note_off_c, 0, 91, 62
1, 175585, Note_on_c, 0, 92, 67
1, 175624, Note_off_c, 0, 92, 64
1, 175645, Note_on_c, 0, 90, 72
1, 175676, Note_off_c, 0, 90, 65
1, 175699, Control_c, 0, 64, 22
1, 175717, Control_c, 0, 64, 55
1, 175727, Note_on_c, 0, 41, 55
1, 175734, Note_on_c, 0, 57, 53
1, 175735, Control_c, 0, 64, 71
1, 175747, Note_on_c, 0, 101, 68
1, 175749, Note_on_c, 0, 51, 48
1, 175753, Control_c, 0, 64, 94
1, 175760, Note_on_c, 0, 89, 72
1, 175770, Note_off_c, 0, 101, 64
1, 175772, Control_c, 0, 64, 127
1, 175788, Note_off_c, 0, 57, 64
1, 175792, Note_off_c, 0, 41, 63
1, 175801, Note_off_c, 0, 51, 62
1, 175825, Note_off_c, 0, 89, 60
1, 175864, Note_on_c, 0, 88, 63
1, 175891, Note_off_c, 0, 88, 61
1, 175950, Poly_aftertouch_c, 0, 89, 127
1, 175997, Poly_aftertouch_c, 0, 89, 0
1, 176005, Note_on_c, 0, 87, 67
1, 176055, Control_c, 0, 64, 112
1, 176070, Note_off_c, 0, 87, 63
1, 176073, Control_c, 0, 64, 67
1, 176091, Control_c, 0, 64, 9
1, 176098, Note_on_c, 0, 86, 60
1, 176111, Control_c, 0, 64, 0
1, 176145, Note_off_c, 0, 86, 57
1, 176176, Note_on_c, 0, 85, 63
1, 176224, Note_off_c, 0, 85, 58
1, 176254, Note_on_c, 0, 84, 57
1, 176296, Note_off_c, 0, 84, 65
1, 176323, Note_on_c, 0, 83, 56
1, 176334, Control_c, 0, 64, 39
1, 176354, Note_off_c, 0, 83, 62
1, 176354, Control_c, 0, 64, 61
1, 176372, Control_c, 0, 64, 75
1, 176382, Note_on_c, 0, 46, 53
1, 176390, Control_c, 0, 64, 102
1, 176410, Control_c, 0, 64, 127
1, 176452, Note_on_c, 0, 82, 59
1, 176461, Note_off_c, 0, 46, 58
1, 176492, Note_off_c, 0, 82, 67
1, 176492, Note_on_c, 0, 53, 46
1, 176575, Note_off_c, 0, 53, 47
1, 176600, Note_on_c, 0, 98, 73
1, 176625, Note_on_c, 0, 62, 46
1, 176657, Note_off_c, 0, 98, 61
1, 176665, Note_off_c, 0, 62, 56
1, 177001, Note_on_c, 0, 38, 60
1, 177068, Note_off_c, 0, 38, 58
1, 177103, Note_on_c, 0, 39, 66
1, 177167, Note_off_c, 0, 39, 58
1, 177196, Note_on_c, 0, 38, 67
1, 177273, Note_off_c, 0, 38, 59
1, 177273, Note_on_c, 0, 40, 76
1, 177327, Control_c, 0, 64, 117
1, 177344, Control_c, 0, 64, 102
1, 177364, Control_c, 0, 64, 93
1, 177367, Note_off_c, 0, 40, 62
1, 177382, Control_c, 0, 64, 81
1, 177400, Control_c, 0, 64, 67
1, 177402, Note_on_c, 0, 41, 65
1, 177418, Control_c, 0, 64, 47
1, 177421, Note_on_c, 0, 62, 86
1, 177444, Note_on_c, 0, 59, 67
1, 177448, Note_on_c, 0, 53, 65
1, 177457, Note_on_c, 0, 56, 53
1, 177457, Control_c, 0, 64, 0
1, 177547, Note_on_c, 0, 42, 58
1, 177548, Note_off_c, 0, 41, 61
1, 177548, Control_c, 0, 64, 9
1, 177568, Control_c, 0, 64, 42
1, 177588, Control_c, 0, 64, 62
1, 177606, Control_c, 0, 64, 76
1, 177625, Control_c, 0, 64, 94
1, 177640, Note_on_c, 0, 41, 59
1, 177644, Control_c, 0, 64, 127
1, 177650, Note_off_c, 0, 42, 60
1, 177687, Note_off_c, 0, 41, 63
1, 177723, Note_on_c, 0, 43, 60
1, 177766, Note_off_c, 0, 43, 62
1, 177774, Control_c, 0, 64, 100
1, 177794, Control_c, 0, 64, 74
1, 177808, Note_on_c, 0, 44, 69
1, 177813, Control_c, 0, 64, 61
1, 177830, Control_c, 0, 64, 62
1, 177850, Control_c, 0, 64, 66
1, 177853, Note_off_c, 0, 53, 58
1, 177855, Note_off_c, 0, 44, 64
1, 177868, Control_c, 0, 64, 74
1, 177878, Note_off_c, 0, 56, 63
1, 177880, Note_on_c, 0, 45, 74
1, 177886, Control_c, 0, 64, 89
1, 177894, Note_off_c, 0, 59, 60
1, 177906, Control_c, 0, 64, 127
1, 177923, Note_off_c, 0, 62, 61
1, 177948, Note_off_c, 0, 45, 58
1, 177948, Note_on_c, 0, 44, 73
1, 178018, Control_c, 0, 64, 93
1, 178023, Note_on_c, 0, 46, 80
1, 178025, Note_off_c, 0, 44, 61
1, 178036, Control_c, 0, 64, 64
1, 178055, Control_c, 0, 64, 45
1, 178074, Control_c, 0, 64, 48
1, 178086, Note_on_c, 0, 47, 77
1, 178090, Note_off_c, 0, 46, 64
1, 178092, Control_c, 0, 64, 60
1, 178111, Control_c, 0, 64, 75
1, 178130, Control_c, 0, 64, 109
1, 178148, Control_c, 0, 64, 127
1, 178165, Note_on_c, 0, 48, 80
1, 178181, Note_off_c, 0, 47, 58
1, 178224, Control_c, 0, 64, 82
1, 178237, Note_off_c, 0, 48, 60
1, 178241, Control_c, 0, 64, 56
1, 178243, Note_on_c, 0, 47, 58
1, 178252, Note_on_c, 0, 86, 83
1, 178260, Control_c, 0, 64, 41
1, 178262, Note_on_c, 0, 77, 72
1, 178274, Note_on_c, 0, 80, 67
1, 178279, Control_c, 0, 64, 45
1, 178299, Control_c, 0, 64, 57
1, 178311, Note_on_c, 0, 49, 68
1, 178312, Note_off_c, 0, 77, 59
1, 178314, Note_off_c, 0, 47, 60
1, 178315, Note_off_c, 0, 80, 62
1, 178318, Control_c, 0, 64, 72
1, 178336, Control_c, 0, 64, 99
1, 178353, Control_c, 0, 64, 127
1, 178362, Note_off_c, 0, 86, 63
1, 178383, Note_off_c, 0, 49, 62
1, 178386, Note_on_c, 0, 50, 73
1, 178410, Control_c, 0, 64, 85
1, 178415, Note_on_c, 0, 85, 85
1, 178419, Note_on_c, 0, 80, 83
1, 178424, Note_on_c, 0, 77, 75
1, 178429, Control_c, 0, 64, 57
1, 178447, Control_c, 0, 64, 41
1, 178460, Note_off_c, 0, 77, 60
1, 178464, Note_off_c, 0, 80, 54
1, 178466, Note_off_c, 0, 50, 50
1, 178466, Poly_aftertouch_c, 0, 50, 0
1, 178466, Control_c, 0, 64, 47
1, 178483, Note_on_c, 0, 51, 65
1, 178483, Control_c, 0, 64, 60
1, 178489, Note_off_c, 0, 85, 63
1, 178503, Control_c, 0, 64, 74
1, 178523, Control_c, 0, 64, 98
1, 178540, Control_c, 0, 64, 127
1, 178544, Note_on_c, 0, 84, 88
1, 178551, Note_on_c, 0, 77, 79
1, 178554, Note_on_c, 0, 50, 70
1, 178554, Note_on_c, 0, 80, 83
1, 178557, Note_off_c, 0, 51, 61
1, 178559, Control_c, 0, 64, 115
1, 178579, Control_c, 0, 64, 79
1, 178587, Note_off_c, 0, 80, 63
1, 178597, Control_c, 0, 64, 55
1, 178600, Note_off_c, 0, 77, 58
1, 178615, Control_c, 0, 64, 40
1, 178618, Note_off_c, 0, 50, 61
1, 178618, Poly_aftertouch_c, 0, 50, 0
1, 178620, Note_on_c, 0, 52, 57
1, 178626, Note_off_c, 0, 84, 63
1, 178633, Control_c, 0, 64, 47
1, 178654, Control_c, 0, 64, 62
1, 178670, Note_off_c, 0, 52, 62
1, 178671, Control_c, 0, 64, 78
1, 178677, Note_on_c, 0, 53, 70
1, 178687, Note_on_c, 0, 83, 88
1, 178689, Control_c, 0, 64, 119
1, 178693, Note_on_c, 0, 74, 87
1, 178697, Note_on_c, 0, 80, 82
1, 178709, Control_c, 0, 64, 127
1, 178730, Control_c, 0, 64, 112
1, 178742, Note_off_c, 0, 80, 53
1, 178747, Control_c, 0, 64, 70
1, 178750, Note_off_c, 0, 74, 62
1, 178754, Note_off_c, 0, 53, 49
1, 178766, Control_c, 0, 64, 37
1, 178769, Note_off_c, 0, 83, 64
1, 178775, Note_on_c, 0, 54, 65
1, 178803, Control_c, 0, 64, 12
1, 178822, Control_c, 0, 64, 33
1, 178828, Note_on_c, 0, 86, 84
1, 178834, Note_on_c, 0, 74, 74
1, 178836, Note_on_c, 0, 80, 81
1, 178841, Control_c, 0, 64, 52
1, 178849, Note_on_c, 0, 53, 52
1, 178857, Note_off_c, 0, 54, 62
1, 178860, Control_c, 0, 64, 46
1, 178868, Note_off_c, 0, 74, 67
1, 178884, Note_off_c, 0, 80, 60
1, 178887, Note_off_c, 0, 53, 63
1, 178895, Control_c, 0, 64, 0
1, 178898, Note_on_c, 0, 55, 58
1, 178907, Note_off_c, 0, 86, 63
1, 178945, Note_off_c, 0, 55, 61
1, 178971, Control_c, 0, 64, 23
1, 178975, Note_on_c, 0, 85, 82
1, 178976, Note_on_c, 0, 74, 77
1, 178979, Note_on_c, 0, 56, 71
1, 178990, Control_c, 0, 64, 54
1, 179009, Control_c, 0, 64, 71
1, 179010, Note_off_c, 0, 85, 64
1, 179022, Note_off_c, 0, 56, 67
1, 179023, Note_off_c, 0, 74, 57
1, 179027, Control_c, 0, 64, 86
1, 179045, Control_c, 0, 64, 104
1, 179050, Note_on_c, 0, 57, 65
1, 179054, Note_on_c, 0, 84, 77
1, 179065, Control_c, 0, 64, 110
1, 179115, Note_off_c, 0, 57, 47
1, 179118, Note_on_c, 0, 83, 85
1, 179127, Note_off_c, 0, 84, 65
1, 179133, Note_on_c, 0, 56, 54
1, 179139, Control_c, 0, 64, 104
1, 179148, Note_off_c, 0, 83, 69
1, 179166, Note_off_c, 0, 56, 64
1, 179177, Control_c, 0, 64, 100
1, 179195, Note_on_c, 0, 59, 66
1, 179233, Control_c, 0, 64, 96
1, 179237, Note_off_c, 0, 59, 64
1, 179271, Control_c, 0, 64, 80
1, 179281, Note_on_c, 0, 50, 67
1, 179289, Control_c, 0, 64, 59
1, 179305, Note_on_c, 0, 78, 57
1, 179306, Control_c, 0, 64, 24
1, 179326, Control_c, 0, 64, 0
1, 179331, Note_off_c, 0, 50, 61
1, 179331, Poly_aftertouch_c, 0, 50, 0
1, 179341, Note_off_c, 0, 78, 66
1, 179341, Note_on_c, 0, 86, 75
1, 179364, Control_c, 0, 64, 21
1, 179382, Note_on_c, 0, 93, 88
1, 179384, Control_c, 0, 64, 45
1, 179393, Note_on_c, 0, 62, 60
1, 179401, Control_c, 0, 64, 64
1, 179411, Note_off_c, 0, 86, 65
1, 179419, Control_c, 0, 64, 81
1, 179437, Note_off_c, 0, 62, 64
1, 179439, Control_c, 0, 64, 116
1, 179453, Note_off_c, 0, 93, 65
1, 179456, Control_c, 0, 64, 127
1, 179483, Poly_aftertouch_c, 0, 60, 0
1, 179492, Note_on_c, 0, 63, 66
1, 179550, Note_on_c, 0, 62, 68
1, 179565, Note_off_c, 0, 63, 59
1, 179588, Note_off_c, 0, 62, 65
1, 179619, Note_on_c, 0, 65, 73
1, 179668, Note_off_c, 0, 65, 62
1, 179698, Note_on_c, 0, 66, 80
1, 179718, Control_c, 0, 64, 117
1, 179738, Control_c, 0, 64, 102
1, 179746, Note_off_c, 0, 66, 60
1, 179755, Control_c, 0, 64, 89
1, 179763, Note_on_c, 0, 67, 82
1, 179776, Control_c, 0, 64, 75
1, 179794, Control_c, 0, 64, 56
1, 179813, Control_c, 0, 64, 14
1, 179830, Control_c, 0, 64, 0
1, 179833, Note_on_c, 0, 66, 76
1, 179837, Note_off_c, 0, 67, 63
1, 179892, Note_on_c, 0, 68, 83
1, 179900, Note_off_c, 0, 66, 65
1, 179956, Note_off_c, 0, 68, 67
1, 179957, Note_on_c, 0, 69, 82
1, 180020, Note_off_c, 0, 69, 62
1, 180030, Note_on_c, 0, 70, 80
1, 180086, Note_off_c, 0, 70, 69
1, 180097, Note_on_c, 0, 69, 75
1, 180143, Note_off_c, 0, 69, 64
1, 180157, Note_on_c, 0, 73, 77
1, 180230, Note_off_c, 0, 73, 67
1, 180241, Note_on_c, 0, 74, 84
1, 180310, Note_off_c, 0, 74, 61
1, 180318, Note_on_c, 0, 73, 78
1, 180380, Note_off_c, 0, 73, 63
1, 180388, Note_on_c, 0, 74, 69
1, 180421, Note_off_c, 0, 74, 62
1, 180470, Note_on_c, 0, 73, 51
1, 180471, Note_off_c, 0, 73, 127
1, 180487, Note_on_c, 0, 79, 60
1, 180504, Control_c, 0, 64, 40
1, 180521, Note_off_c, 0, 79, 64
1, 180523, Control_c, 0, 64, 60
1, 180531, Note_on_c, 0, 87, 67
1, 180542, Control_c, 0, 64, 71
1, 180545, Note_on_c, 0, 60, 54
1, 180560, Control_c, 0, 64, 82
1, 180562, Note_off_c, 0, 87, 69
1, 180573, Note_on_c, 0, 96, 83
1, 180576, Note_off_c, 0, 60, 58
1, 180577, Control_c, 0, 64, 94
1, 180586, Note_on_c, 0, 72, 73
1, 180598, Control_c, 0, 64, 101
1, 180601, Note_off_c, 0, 96, 72
1, 180637, Note_off_c, 0, 72, 55
1, 180659, Note_on_c, 0, 71, 74
1, 180691, Control_c, 0, 64, 96
1, 180706, Note_off_c, 0, 71, 52
1, 180725, Note_on_c, 0, 72, 80
1, 180728, Control_c, 0, 64, 87
1, 180748, Control_c, 0, 64, 78
1, 180766, Control_c, 0, 64, 66
1, 180784, Note_off_c, 0, 72, 61
1, 180784, Control_c, 0, 64, 47
1, 180792, Note_on_c, 0, 70, 80
1, 180803, Control_c, 0, 64, 9
1, 180819, Note_off_c, 0, 70, 76
1, 180821, Control_c, 0, 64, 0
1, 180869, Note_on_c, 0, 69, 86
1, 180940, Note_off_c, 0, 69, 62
1, 180956, Note_on_c, 0, 67, 66
1, 181001, Note_off_c, 0, 67, 62
1, 181024, Note_on_c, 0, 68, 72
1, 181080, Note_off_c, 0, 68, 61
1, 181103, Note_on_c, 0, 66, 68
1, 181137, Note_off_c, 0, 66, 67
1, 181139, Control_c, 0, 64, 38
1, 181157, Control_c, 0, 64, 59
1, 181160, Note_on_c, 0, 87, 63
1, 181178, Control_c, 0, 64, 69
1, 181193, Note_off_c, 0, 87, 70
1, 181195, Note_on_c, 0, 93, 66
1, 181195, Control_c, 0, 64, 79
1, 181206, Note_on_c, 0, 53, 68
1, 181214, Control_c, 0, 64, 87
1, 181234, Note_off_c, 0, 93, 66
1, 181240, Note_on_c, 0, 101, 78
1, 181247, Note_off_c, 0, 53, 64
1, 181251, Control_c, 0, 64, 82
1, 181267, Note_on_c, 0, 65, 67
1, 181271, Note_off_c, 0, 101, 67
1, 181271, Control_c, 0, 64, 67
1, 181290, Control_c, 0, 64, 41
1, 181308, Control_c, 0, 64, 0
1, 181324, Note_off_c, 0, 65, 58
1, 181351, Note_on_c, 0, 64, 65
1, 181387, Note_off_c, 0, 64, 67
1, 181427, Note_on_c, 0, 65, 71
1, 181475, Note_off_c, 0, 65, 62
1, 181509, Note_on_c, 0, 63, 70
1, 181549, Note_off_c, 0, 63, 63
1, 181606, Note_on_c, 0, 62, 65
1, 181644, Note_off_c, 0, 62, 63
1, 181686, Note_on_c, 0, 61, 60
1, 181733, Note_off_c, 0, 61, 66
1, 181790, Note_on_c, 0, 60, 58
1, 181843, Note_off_c, 0, 60, 59
1, 181879, Note_on_c, 0, 59, 60
1, 181891, Note_on_c, 0, 86, 55
1, 181917, Note_off_c, 0, 59, 64
1, 181948, Note_off_c, 0, 86, 62
1, 181988, Note_on_c, 0, 94, 59
1, 182075, Control_c, 0, 64, 37
1, 182084, Note_on_c, 0, 101, 68
1, 182085, Note_on_c, 0, 46, 58
1, 182086, Note_off_c, 0, 94, 63
1, 182095, Note_on_c, 0, 58, 47
1, 182095, Control_c, 0, 64, 62
1, 182113, Control_c, 0, 64, 77
1, 182119, Note_off_c, 0, 101, 67
1, 182130, Note_off_c, 0, 46, 64
1, 182130, Control_c, 0, 64, 106
1, 182139, Note_off_c, 0, 58, 64
1, 182150, Control_c, 0, 64, 127
1, 182449, Note_on_c, 0, 53, 44
1, 182463, Note_on_c, 0, 58, 51
1, 182480, Note_on_c, 0, 50, 73
1, 182495, Note_off_c, 0, 53, 61
1, 182507, Note_off_c, 0, 58, 63
1, 182517, Note_off_c, 0, 50, 64
1, 182517, Poly_aftertouch_c, 0, 50, 0
1, 182544, Control_c, 0, 64, 100
1, 182553, Note_on_c, 0, 62, 49
1, 182559, Control_c, 0, 64, 76
1, 182579, Control_c, 0, 64, 55
1, 182599, Control_c, 0, 64, 22
1, 182606, Note_off_c, 0, 62, 61
1, 182617, Control_c, 0, 64, 0
1, 182629, Note_on_c, 0, 58, 66
1, 182638, Note_on_c, 0, 48, 79
1, 182666, Note_on_c, 0, 54, 20
1, 182675, Note_off_c, 0, 48, 66
1, 182683, Note_off_c, 0, 58, 63
1, 182709, Note_on_c, 0, 62, 70
1, 182735, Note_off_c, 0, 54, 28
1, 182754, Note_off_c, 0, 62, 60
1, 182785, Note_on_c, 0, 47, 85
1, 182787, Note_on_c, 0, 55, 65
1, 182798, Note_on_c, 0, 58, 67
1, 182822, Note_off_c, 0, 47, 63
1, 182827, Note_off_c, 0, 55, 65
1, 182838, Note_off_c, 0, 58, 68
1, 182888, Note_on_c, 0, 62, 60
1, 182942, Note_off_c, 0, 62, 59
1, 182946, Note_on_c, 0, 46, 80
1, 182960, Note_on_c, 0, 58, 65
1, 182985, Note_off_c, 0, 46, 68
1, 182985, Note_on_c, 0, 54, 19
1, 183006, Note_off_c, 0, 58, 67
1, 183053, Note_off_c, 0, 54, 27
1, 183060, Note_on_c, 0, 62, 58
1, 183105, Note_off_c, 0, 62, 65
1, 183110, Note_on_c, 0, 50, 65
1, 183125, Note_on_c, 0, 53, 40
1, 183149, Note_off_c, 0, 50, 64
1, 183149, Poly_aftertouch_c, 0, 50, 0
1, 183157, Note_on_c, 0, 58, 36
1, 183167, Note_off_c, 0, 53, 47
1, 183198, Note_off_c, 0, 58, 51
1, 183215, Note_on_c, 0, 62, 56
1, 183267, Note_off_c, 0, 62, 63
1, 183270, Note_on_c, 0, 48, 51
1, 183282, Note_on_c, 0, 54, 54
1, 183308, Note_off_c, 0, 48, 55
1, 183320, Note_on_c, 0, 58, 48
1, 183323, Note_off_c, 0, 54, 63
1, 183339, Note_on_c, 0, 47, 54
1, 183367, Note_off_c, 0, 58, 64
1, 183375, Note_off_c, 0, 47, 60
1, 183421, Control_c, 0, 67, 9
1, 183424, Note_on_c, 0, 46, 61
1, 183425, Note_on_c, 0, 62, 36
1, 183440, Control_c, 0, 67, 13
1, 183459, Control_c, 0, 67, 18
1, 183467, Note_on_c, 0, 55, 36
1, 183471, Note_off_c, 0, 62, 48
1, 183474, Control_c, 0, 67, 24
1, 183484, Note_off_c, 0, 46, 58
1, 183490, Note_on_c, 0, 58, 56
1, 183494, Control_c, 0, 67, 31
1, 183507, Note_off_c, 0, 55, 52
1, 183514, Control_c, 0, 67, 40
1, 183533, Control_c, 0, 67, 49
1, 183551, Control_c, 0, 67, 59
1, 183559, Note_off_c, 0, 58, 58
1, 183567, Note_on_c, 0, 62, 55
1, 183570, Control_c, 0, 67, 71
1, 183590, Control_c, 0, 67, 83
1, 183607, Control_c, 0, 67, 94
1, 183609, Note_off_c, 0, 62, 64
1, 183627, Control_c, 0, 67, 102
1, 183645, Control_c, 0, 67, 107
1, 183664, Note_on_c, 0, 54, 39
1, 183677, Note_on_c, 0, 57, 50
1, 183681, Control_c, 0, 67, 111
1, 183738, Control_c, 0, 64, 27
1, 183757, Note_on_c, 0, 63, 62
1, 183757, Control_c, 0, 64, 53
1, 183767, Note_off_c, 0, 54, 62
1, 183776, Control_c, 0, 64, 66
1, 183782, Note_off_c, 0, 57, 64
1, 183796, Control_c, 0, 64, 80
1, 183805, Note_off_c, 0, 63, 65
1, 183814, Control_c, 0, 64, 110
1, 183832, Control_c, 0, 64, 127
1, 183969, Note_on_c, 0, 81, 60
1, 183979, Note_on_c, 0, 87, 71
1, 184001, Note_off_c, 0, 81, 66
1, 184001, Note_on_c, 0, 78, 37
1, 184038, Control_c, 0, 64, 86
1, 184041, Note_off_c, 0, 78, 54
1, 184043, Note_on_c, 0, 84, 69
1, 184050, Note_off_c, 0, 87, 62
1, 184056, Control_c, 0, 64, 56
1, 184075, Control_c, 0, 64, 0
1, 184101, Note_on_c, 0, 74, 71
1, 184107, Note_on_c, 0, 71, 67
1, 184111, Note_on_c, 0, 80, 75
1, 184114, Note_off_c, 0, 84, 64
1, 184129, Note_off_c, 0, 74, 71
1, 184140, Note_off_c, 0, 71, 67
1, 184168, Note_off_c, 0, 80, 60
1, 184182, Note_on_c, 0, 77, 67
1, 184233, Note_off_c, 0, 77, 53
1, 184244, Note_on_c, 0, 75, 67
1, 184252, Note_on_c, 0, 81, 69
1, 184256, Note_on_c, 0, 72, 66
1, 184274, Note_off_c, 0, 75, 64
1, 184288, Note_off_c, 0, 72, 68
1, 184311, Note_on_c, 0, 78, 65
1, 184313, Note_off_c, 0, 81, 59
1, 184374, Note_on_c, 0, 74, 73
1, 184382, Note_off_c, 0, 78, 65
1, 184389, Note_on_c, 0, 68, 64
1, 184392, Note_on_c, 0, 65, 60
1, 184404, Note_off_c, 0, 74, 68
1, 184422, Note_off_c, 0, 68, 68
1, 184426, Note_off_c, 0, 65, 65
1, 184463, Note_on_c, 0, 71, 58
1, 184512, Note_off_c, 0, 71, 60
1, 184518, Note_on_c, 0, 75, 60
1, 184525, Note_on_c, 0, 69, 58
1, 184553, Note_off_c, 0, 69, 63
1, 184565, Note_off_c, 0, 75, 62
1, 184566, Note_on_c, 0, 66, 24
1, 184585, Note_off_c, 0, 66, 37
1, 184587, Note_on_c, 0, 72, 58
1, 184657, Note_off_c, 0, 72, 60
1, 184668, Note_on_c, 0, 62, 62
1, 184674, Note_on_c, 0, 68, 61
1, 184684, Note_on_c, 0, 59, 48
1, 184707, Note_off_c, 0, 62, 63
1, 184714, Note_off_c, 0, 68, 67
1, 184716, Note_off_c, 0, 59, 57
1, 184758, Note_on_c, 0, 65, 49
1, 184800, Note_off_c, 0, 65, 56
1, 184829, Note_on_c, 0, 69, 60
1, 184834, Note_on_c, 0, 60, 46
1, 184836, Note_on_c, 0, 63, 46
1, 184871, Note_off_c, 0, 60, 55
1, 184874, Note_off_c, 0, 63, 59
1, 184882, Note_off_c, 0, 69, 61
1, 184914, Note_on_c, 0, 78, 52
1, 184966, Note_off_c, 0, 78, 62
1, 185010, Control_c, 0, 64, 8
1, 185029, Control_c, 0, 64, 41
1, 185031, Control_c, 0, 67, 107
1, 185048, Control_c, 0, 64, 61
1, 185062, Note_on_c, 0, 77, 56
1, 185065, Note_on_c, 0, 62, 47
1, 185066, Control_c, 0, 64, 72
1, 185067, Note_on_c, 0, 70, 55
1, 185068, Control_c, 0, 67, 101
1, 185074, Note_on_c, 0, 65, 47
1, 185085, Control_c, 0, 64, 88
1, 185086, Control_c, 0, 67, 92
1, 185100, Note_off_c, 0, 70, 68
1, 185103, Note_off_c, 0, 77, 64
1, 185105, Note_off_c, 0, 62, 59
1, 185105, Control_c, 0, 64, 127
1, 185106, Control_c, 0, 67, 79
1, 185111, Note_off_c, 0, 65, 60
1, 185123, Control_c, 0, 67, 62
1, 185140, Control_c, 0, 67, 43
1, 185160, Control_c, 0, 67, 23
1, 185197, Control_c, 0, 67, 0
1, 185284, Poly_aftertouch_c, 0, 62, 0
1, 185361, Note_on_c, 0, 50, 84
1, 185372, Note_on_c, 0, 53, 47
1, 185377, Note_on_c, 0, 58, 55
1, 185411, Note_off_c, 0, 50, 59
1, 185411, Poly_aftertouch_c, 0, 50, 0
1, 185416, Note_off_c, 0, 53, 63
1, 185418, Note_off_c, 0, 58, 65
1, 185433, Note_on_c, 0, 62, 56
1, 185460, Control_c, 0, 64, 89
1, 185477, Control_c, 0, 64, 66
1, 185488, Note_off_c, 0, 62, 58
1, 185496, Control_c, 0, 64, 44
1, 185514, Note_on_c, 0, 58, 70
1, 185514, Control_c, 0, 64, 13
1, 185520, Note_on_c, 0, 48, 85
1, 185528, Note_on_c, 0, 54, 58
1, 185533, Control_c, 0, 64, 0
1, 185569, Note_off_c, 0, 58, 63
1, 185569, Note_off_c, 0, 54, 64
1, 185573, Note_off_c, 0, 48, 61
1, 185599, Note_on_c, 0, 62, 65
1, 185648, Note_off_c, 0, 62, 55
1, 185675, Note_on_c, 0, 55, 63
1, 185675, Note_on_c, 0, 47, 85
1, 185686, Note_on_c, 0, 58, 63
1, 185708, Note_off_c, 0, 47, 64
1, 185714, Note_off_c, 0, 55, 64
1, 185726, Note_off_c, 0, 58, 65
1, 185790, Note_on_c, 0, 62, 38
1, 185823, Note_on_c, 0, 46, 80
1, 185833, Note_on_c, 0, 58, 65
1, 185840, Note_off_c, 0, 62, 52
1, 185861, Note_off_c, 0, 46, 69
1, 185882, Note_off_c, 0, 58, 65
1, 185932, Note_on_c, 0, 62, 63
1, 185972, Note_off_c, 0, 62, 65
1, 185977, Note_on_c, 0, 50, 68
1, 186001, Note_on_c, 0, 53, 48
1, 186015, Note_off_c, 0, 50, 64
1, 186015, Poly_aftertouch_c, 0, 50, 0
1, 186037, Note_off_c, 0, 53, 54
1, 186037, Note_on_c, 0, 58, 31
1, 186087, Note_off_c, 0, 58, 47
1, 186099, Note_on_c, 0, 62, 58
1, 186124, Note_on_c, 0, 48, 68
1, 186142, Note_off_c, 0, 62, 65
1, 186169, Note_off_c, 0, 48, 62
1, 186174, Note_on_c, 0, 54, 29
1, 186208, Note_on_c, 0, 58, 36
1, 186209, Note_on_c, 0, 47, 58
1, 186226, Note_off_c, 0, 54, 44
1, 186246, Note_off_c, 0, 58, 53
1, 186252, Note_off_c, 0, 47, 60
1, 186278, Note_on_c, 0, 62, 45
1, 186292, Note_on_c, 0, 46, 60
1, 186315, Note_off_c, 0, 62, 57
1, 186341, Note_off_c, 0, 46, 65
1, 186350, Note_on_c, 0, 58, 55
1, 186399, Note_off_c, 0, 58, 65
1, 186428, Note_on_c, 0, 62, 43
1, 186451, Control_c, 0, 67, 10
1, 186468, Control_c, 0, 67, 16
1, 186469, Note_off_c, 0, 62, 60
1, 186487, Control_c, 0, 67, 24
1, 186506, Control_c, 0, 67, 33
1, 186517, Note_on_c, 0, 54, 42
1, 186524, Control_c, 0, 67, 43
1, 186541, Note_on_c, 0, 57, 47
1, 186542, Control_c, 0, 67, 54
1, 186562, Control_c, 0, 67, 65
1, 186580, Control_c, 0, 67, 75
1, 186600, Control_c, 0, 64, 31
1, 186601, Control_c, 0, 67, 84
1, 186619, Control_c, 0, 64, 55
1, 186620, Control_c, 0, 67, 91
1, 186636, Control_c, 0, 64, 66
1, 186637, Note_on_c, 0, 63, 56
1, 186637, Control_c, 0, 67, 95
1, 186647, Note_off_c, 0, 54, 61
1, 186655, Control_c, 0, 64, 80
1, 186669, Note_off_c, 0, 57, 63
1, 186674, Control_c, 0, 64, 118
1, 186693, Control_c, 0, 64, 127
1, 186694, Note_off_c, 0, 63, 60
1, 186877, Note_on_c, 0, 87, 62
1, 186879, Note_on_c, 0, 81, 46
1, 186915, Note_off_c, 0, 81, 59
1, 186931, Note_on_c, 0, 84, 67
1, 186935, Control_c, 0, 67, 91
1, 186955, Control_c, 0, 64, 109
1, 186956, Note_off_c, 0, 87, 52
1, 186974, Control_c, 0, 64, 76
1, 186992, Control_c, 0, 64, 45
1, 186994, Control_c, 0, 67, 84
1, 186995, Poly_aftertouch_c, 0, 78, 0
1, 187005, Note_on_c, 0, 80, 72
1, 187010, Note_off_c, 0, 84, 64
1, 187010, Note_on_c, 0, 71, 62
1, 187010, Control_c, 0, 64, 0
1, 187012, Note_on_c, 0, 74, 52
1, 187012, Control_c, 0, 67, 77
1, 187029, Control_c, 0, 67, 65
1, 187040, Note_off_c, 0, 74, 63
1, 187042, Note_off_c, 0, 71, 65
1, 187047, Control_c, 0, 67, 49
1, 187050, Note_off_c, 0, 80, 62
1, 187068, Control_c, 0, 67, 33
1, 187071, Note_on_c, 0, 77, 68
1, 187087, Control_c, 0, 67, 23
1, 187104, Control_c, 0, 67, 18
1, 187121, Note_off_c, 0, 77, 53
1, 187142, Control_c, 0, 67, 14
1, 187146, Note_on_c, 0, 81, 69
1, 187155, Note_on_c, 0, 75, 57
1, 187165, Note_on_c, 0, 72, 59
1, 187182, Note_off_c, 0, 75, 63
1, 187197, Control_c, 0, 67, 9
1, 187200, Note_on_c, 0, 78, 63
1, 187204, Note_off_c, 0, 72, 64
1, 187213, Note_off_c, 0, 81, 55
1, 187254, Control_c, 0, 67, 0
1, 187271, Note_on_c, 0, 74, 69
1, 187273, Note_off_c, 0, 78, 65
1, 187294, Note_on_c, 0, 68, 57
1, 187302, Note_on_c, 0, 65, 51
1, 187305, Note_off_c, 0, 74, 69
1, 187332, Note_off_c, 0, 68, 66
1, 187336, Note_off_c, 0, 65, 59
1, 187346, Note_on_c, 0, 71, 60
1, 187394, Note_off_c, 0, 71, 58
1, 187420, Note_on_c, 0, 75, 65
1, 187423, Note_on_c, 0, 69, 55
1, 187455, Note_off_c, 0, 69, 62
1, 187460, Note_on_c, 0, 66, 40
1, 187469, Note_off_c, 0, 75, 62
1, 187492, Note_on_c, 0, 72, 51
1, 187493, Note_off_c, 0, 66, 55
1, 187558, Note_on_c, 0, 62, 57
1, 187559, Note_off_c, 0, 72, 61
1, 187564, Note_on_c, 0, 68, 62
1, 187570, Note_on_c, 0, 59, 51
1, 187603, Note_off_c, 0, 62, 62
1, 187611, Note_off_c, 0, 68, 62
1, 187618, Note_off_c, 0, 59, 61
1, 187640, Note_on_c, 0, 65, 50
1, 187683, Note_off_c, 0, 65, 61
1, 187720, Note_on_c, 0, 69, 50
1, 187725, Note_on_c, 0, 63, 39
1, 187749, Note_on_c, 0, 60, 11
1, 187769, Note_off_c, 0, 63, 52
1, 187769, Note_on_c, 0, 78, 64
1, 187770, Note_off_c, 0, 69, 65
1, 187790, Note_off_c, 0, 60, 32
1, 187801, Note_off_c, 0, 78, 70
1, 187890, Control_c, 0, 64, 8
1, 187908, Control_c, 0, 64, 36
1, 187927, Control_c, 0, 64, 56
1, 187946, Control_c, 0, 64, 68
1, 187963, Note_on_c, 0, 60, 59
1, 187964, Control_c, 0, 64, 82
1, 187969, Note_on_c, 0, 57, 59
1, 187977, Note_on_c, 0, 66, 65
1, 187983, Control_c, 0, 64, 109
1, 187990, Note_on_c, 0, 51, 44
1, 188002, Note_off_c, 0, 60, 65
1, 188002, Control_c, 0, 64, 127
1, 188004, Note_off_c, 0, 57, 67
1, 188021, Note_off_c, 0, 66, 63
1, 188030, Note_off_c, 0, 51, 60
1, 188230, Note_on_c, 0, 90, 77
1, 188257, Note_on_c, 0, 84, 50
1, 188260, Note_on_c, 0, 81, 53
1, 188288, Note_off_c, 0, 84, 60
1, 188298, Note_on_c, 0, 87, 71
1, 188323, Note_off_c, 0, 90, 57
1, 188329, Note_off_c, 0, 81, 52
1, 188363, Note_on_c, 0, 83, 59
1, 188367, Note_on_c, 0, 77, 67
1, 188379, Note_on_c, 0, 74, 58
1, 188385, Note_off_c, 0, 87, 62
1, 188399, Note_off_c, 0, 77, 66
1, 188405, Note_off_c, 0, 83, 67
1, 188407, Note_on_c, 0, 76, 25
1, 188414, Note_off_c, 0, 74, 64
1, 188416, Note_on_c, 0, 80, 74
1, 188443, Note_off_c, 0, 80, 73
1, 188460, Note_off_c, 0, 76, 48
1, 188503, Note_on_c, 0, 84, 46
1, 188518, Note_on_c, 0, 74, 56
1, 188553, Note_off_c, 0, 74, 63
1, 188553, Note_on_c, 0, 81, 74
1, 188561, Control_c, 0, 64, 98
1, 188567, Note_off_c, 0, 84, 61
1, 188582, Control_c, 0, 64, 68
1, 188600, Control_c, 0, 64, 35
1, 188616, Note_on_c, 0, 77, 76
1, 188617, Poly_aftertouch_c, 0, 70, 127
1, 188618, Control_c, 0, 64, 0
1, 188623, Note_off_c, 0, 81, 63
1, 188631, Note_on_c, 0, 68, 68
1, 188637, Note_on_c, 0, 71, 47
1, 188652, Note_off_c, 0, 77, 63
1, 188664, Poly_aftertouch_c, 0, 70, 0
1, 188670, Note_off_c, 0, 68, 69
1, 188671, Note_off_c, 0, 71, 58
1, 188679, Note_on_c, 0, 74, 59
1, 188720, Note_off_c, 0, 74, 62
1, 188766, Note_on_c, 0, 78, 70
1, 188770, Note_on_c, 0, 72, 61
1, 188789, Note_on_c, 0, 69, 52
1, 188796, Note_off_c, 0, 72, 61
1, 188816, Note_on_c, 0, 75, 55
1, 188818, Note_off_c, 0, 78, 60
1, 188824, Note_off_c, 0, 69, 62
1, 188875, Note_on_c, 0, 71, 64
1, 188890, Note_off_c, 0, 75, 62
1, 188910, Note_on_c, 0, 62, 61
1, 188918, Note_off_c, 0, 71, 61
1, 188918, Note_on_c, 0, 65, 46
1, 188955, Note_off_c, 0, 65, 56
1, 188959, Note_off_c, 0, 62, 60
1, 188979, Note_on_c, 0, 68, 56
1, 189019, Note_off_c, 0, 68, 66
1, 189058, Note_on_c, 0, 66, 54
1, 189059, Note_on_c, 0, 63, 57
1, 189081, Note_on_c, 0, 72, 45
1, 189092, Note_off_c, 0, 66, 64
1, 189099, Note_off_c, 0, 63, 64
1, 189142, Note_off_c, 0, 72, 59
1, 189173, Note_on_c, 0, 81, 55
1, 189210, Note_off_c, 0, 81, 66
1, 189273, Control_c, 0, 64, 10
1, 189292, Control_c, 0, 64, 37
1, 189309, Control_c, 0, 64, 56
1, 189319, Note_on_c, 0, 46, 33
1, 189329, Control_c, 0, 64, 65
1, 189349, Control_c, 0, 64, 74
1, 189366, Control_c, 0, 64, 88
1, 189385, Control_c, 0, 64, 117
1, 189404, Control_c, 0, 64, 127
1, 189427, Note_off_c, 0, 46, 53
1, 189438, Note_on_c, 0, 54, 36
1, 189540, Note_on_c, 0, 60, 42
1, 189575, Note_off_c, 0, 54, 52
1, 189581, Note_off_c, 0, 60, 55
1, 189639, Note_on_c, 0, 63, 43
1, 189697, Note_off_c, 0, 63, 63
1, 189822, Note_on_c, 0, 69, 78
1, 189855, Note_off_c, 0, 69, 69
1, 190231, Note_on_c, 0, 87, 57
1, 190263, Note_off_c, 0, 87, 65
1, 190263, Note_on_c, 0, 93, 42
1, 190263, Control_c, 0, 67, 12
1, 190283, Control_c, 0, 67, 22
1, 190301, Control_c, 0, 67, 39
1, 190316, Note_on_c, 0, 90, 50
1, 190320, Note_off_c, 0, 93, 47
1, 190320, Poly_aftertouch_c, 0, 84, 127
1, 190320, Control_c, 0, 67, 61
1, 190339, Control_c, 0, 67, 87
1, 190358, Control_c, 0, 67, 110
1, 190364, Poly_aftertouch_c, 0, 84, 0
1, 190373, Note_off_c, 0, 90, 64
1, 190375, Note_on_c, 0, 77, 45
1, 190377, Control_c, 0, 67, 118
1, 190393, Note_on_c, 0, 86, 34
1, 190440, Note_off_c, 0, 86, 53
1, 190442, Note_off_c, 0, 77, 45
1, 190456, Note_on_c, 0, 83, 42
1, 190491, Note_off_c, 0, 83, 56
1, 190505, Note_on_c, 0, 87, 64
1, 190508, Note_on_c, 0, 81, 58
1, 190524, Note_on_c, 0, 78, 46
1, 190540, Note_off_c, 0, 81, 64
1, 190541, Note_off_c, 0, 87, 69
1, 190557, Note_off_c, 0, 78, 62
1, 190593, Note_on_c, 0, 84, 53
1, 190629, Note_off_c, 0, 84, 64
1, 190649, Note_on_c, 0, 96, 54
1, 190649, Note_on_c, 0, 90, 72
1, 190653, Note_on_c, 0, 87, 75
1, 190683, Note_off_c, 0, 90, 63
1, 190721, Note_off_c, 0, 87, 52
1, 190729, Note_on_c, 0, 93, 44
1, 190738, Note_off_c, 0, 96, 59
1, 190766, Note_off_c, 0, 93, 63
1, 190782, Note_on_c, 0, 89, 50
1, 190783, Note_on_c, 0, 83, 61
1, 190791, Note_on_c, 0, 80, 55
1, 190809, Note_off_c, 0, 89, 59
1, 190831, Note_on_c, 0, 86, 61
1, 190847, Note_off_c, 0, 80, 59
1, 190858, Note_off_c, 0, 83, 59
1, 190875, Note_off_c, 0, 86, 63
1, 190899, Note_on_c, 0, 84, 65
1, 190908, Note_on_c, 0, 81, 54
1, 190916, Note_on_c, 0, 90, 62
1, 190931, Note_off_c, 0, 84, 69
1, 190939, Note_off_c, 0, 81, 63
1, 190947, Note_off_c, 0, 90, 66
1, 190982, Note_on_c, 0, 87, 67
1, 191014, Note_off_c, 0, 87, 69
1, 191037, Note_on_c, 0, 99, 66
1, 191046, Note_on_c, 0, 93, 78
1, 191078, Note_off_c, 0, 99, 63
1, 191090, Note_off_c, 0, 93, 51
1, 191112, Note_on_c, 0, 96, 58
1, 191149, Note_on_c, 0, 92, 64
1, 191151, Poly_aftertouch_c, 0, 85, 0
1, 191162, Note_off_c, 0, 96, 62
1, 191180, Note_on_c, 0, 83, 52
1, 191188, Note_off_c, 0, 92, 63
1, 191196, Note_on_c, 0, 86, 48
1, 191210, Note_on_c, 0, 89, 49
1, 191223, Note_off_c, 0, 83, 66
1, 191245, Note_off_c, 0, 89, 58
1, 191247, Note_off_c, 0, 86, 59
1, 191277, Note_on_c, 0, 93, 55
1, 191286, Note_on_c, 0, 84, 60
1, 191309, Note_off_c, 0, 93, 60
1, 191321, Note_off_c, 0, 84, 68
1, 191322, Note_on_c, 0, 87, 34
1, 191353, Note_on_c, 0, 90, 64
1, 191366, Note_off_c, 0, 87, 55
1, 191400, Note_off_c, 0, 90, 61
1, 191456, Note_on_c, 0, 100, 65
1, 191469, Note_on_c, 0, 83, 47
1, 191493, Note_on_c, 0, 80, 25
1, 191496, Note_off_c, 0, 100, 65
1, 191518, Note_off_c, 0, 83, 53
1, 191544, Note_off_c, 0, 80, 42
1, 191546, Note_on_c, 0, 87, 63
1, 191582, Note_off_c, 0, 87, 67
1, 191628, Note_on_c, 0, 81, 54
1, 191629, Note_on_c, 0, 101, 65
1, 191631, Note_on_c, 0, 84, 44
1, 191652, Note_off_c, 0, 101, 62
1, 191654, Note_off_c, 0, 81, 61
1, 191667, Note_off_c, 0, 84, 57
1, 191703, Note_on_c, 0, 87, 68
1, 191728, Note_off_c, 0, 87, 63
1, 191750, Note_on_c, 0, 83, 69
1, 191759, Note_on_c, 0, 100, 71
1, 191782, Note_off_c, 0, 83, 69
1, 191801, Note_off_c, 0, 100, 61
1, 191819, Note_on_c, 0, 87, 63
1, 191857, Note_off_c, 0, 87, 63
1, 191865, Poly_aftertouch_c, 0, 80, 127
1, 191880, Note_on_c, 0, 84, 57
1, 191890, Note_on_c, 0, 101, 76
1, 191918, Note_off_c, 0, 84, 65
1, 191921, Note_off_c, 0, 101, 65
1, 191928, Note_on_c, 0, 81, 23
1, 191972, Poly_aftertouch_c, 0, 80, 0
1, 191986, Note_off_c, 0, 81, 49
1, 191986, Note_on_c, 0, 87, 50
1, 192016, Note_off_c, 0, 87, 60
1, 192021, Note_on_c, 0, 100, 74
1, 192032, Note_on_c, 0, 83, 64
1, 192053, Note_on_c, 0, 80, 31
1, 192076, Note_off_c, 0, 83, 57
1, 192095, Note_off_c, 0, 80, 54
1, 192095, Note_off_c, 0, 100, 57
1, 192101, Note_on_c, 0, 87, 68
1, 192132, Note_off_c, 0, 87, 68
1, 192154, Note_on_c, 0, 101, 83
1, 192155, Note_on_c, 0, 81, 61
1, 192170, Note_on_c, 0, 84, 52
1, 192187, Note_off_c, 0, 81, 69
1, 192206, Note_off_c, 0, 84, 62
1, 192207, Note_off_c, 0, 101, 58
1, 192234, Note_on_c, 0, 87, 62
1, 192258, Note_off_c, 0, 87, 65
1, 192264, Control_c, 0, 64, 101
1, 192285, Control_c, 0, 64, 74
1, 192302, Control_c, 0, 64, 60
1, 192305, Note_on_c, 0, 101, 81
1, 192315, Note_on_c, 0, 82, 66
1, 192319, Note_on_c, 0, 86, 65
1, 192319, Control_c, 0, 64, 62
1, 192338, Note_off_c, 0, 82, 66
1, 192339, Control_c, 0, 64, 69
1, 192341, Note_off_c, 0, 101, 62
1, 192343, Note_off_c, 0, 86, 65
1, 192359, Control_c, 0, 64, 84
1, 192377, Control_c, 0, 64, 127
1, 192465, Note_on_c, 0, 98, 68
1, 192474, Note_on_c, 0, 90, 75
1, 192499, Note_off_c, 0, 90, 70
1, 192509, Note_off_c, 0, 98, 60
1, 192520, Note_on_c, 0, 94, 71
1, 192544, Note_on_c, 0, 89, 65
1, 192575, Note_off_c, 0, 89, 69
1, 192597, Note_off_c, 0, 94, 65
1, 192603, Note_on_c, 0, 90, 57
1, 192607, Note_on_c, 0, 86, 69
1, 192631, Note_off_c, 0, 90, 65
1, 192637, Note_off_c, 0, 86, 70
1, 192673, Note_on_c, 0, 82, 62
1, 192695, Note_off_c, 0, 82, 64
1, 192709, Note_on_c, 0, 78, 70
1, 192729, Note_off_c, 0, 78, 69
1, 192737, Note_on_c, 0, 86, 57
1, 192783, Poly_aftertouch_c, 0, 89, 0
1, 192787, Note_off_c, 0, 86, 63
1, 192788, Note_on_c, 0, 82, 61
1, 192807, Control_c, 0, 64, 97
1, 192822, Note_on_c, 0, 78, 67
1, 192826, Control_c, 0, 64, 85
1, 192845, Control_c, 0, 64, 76
1, 192847, Note_off_c, 0, 82, 53
1, 192857, Note_on_c, 0, 74, 57
1, 192864, Control_c, 0, 64, 67
1, 192880, Note_off_c, 0, 78, 62
1, 192883, Note_off_c, 0, 74, 62
1, 192883, Control_c, 0, 64, 59
1, 192884, Poly_aftertouch_c, 0, 77, 127
1, 192901, Control_c, 0, 64, 52
1, 192914, Note_on_c, 0, 70, 52
1, 192918, Control_c, 0, 64, 49
1, 192951, Poly_aftertouch_c, 0, 77, 0
1, 192952, Note_on_c, 0, 78, 57
1, 192956, Control_c, 0, 64, 46
1, 192958, Note_off_c, 0, 70, 63
1, 192977, Note_on_c, 0, 74, 66
1, 192990, Note_off_c, 0, 78, 68
1, 193009, Note_off_c, 0, 74, 69
1, 193023, Note_on_c, 0, 82, 48
1, 193068, Note_off_c, 0, 82, 66
1, 193074, Note_on_c, 0, 77, 44
1, 193081, Note_on_c, 0, 86, 53
1, 193109, Note_off_c, 0, 77, 56
1, 193119, Note_off_c, 0, 86, 66
1, 193142, Note_on_c, 0, 78, 46
1, 193171, Note_on_c, 0, 89, 71
1, 193175, Note_off_c, 0, 78, 60
1, 193200, Note_off_c, 0, 89, 69
1, 193200, Control_c, 0, 64, 49
1, 193204, Note_on_c, 0, 82, 55
1, 193218, Control_c, 0, 64, 54
1, 193233, Note_off_c, 0, 82, 64
1, 193237, Control_c, 0, 64, 60
1, 193238, Note_on_c, 0, 90, 62
1, 193255, Control_c, 0, 64, 67
1, 193263, Note_on_c, 0, 86, 53
1, 193271, Note_off_c, 0, 90, 67
1, 193273, Control_c, 0, 64, 77
1, 193288, Note_on_c, 0, 94, 65
1, 193292, Control_c, 0, 64, 95
1, 193304, Note_off_c, 0, 86, 66
1, 193311, Control_c, 0, 64, 127
1, 193321, Note_on_c, 0, 89, 65
1, 193338, Note_off_c, 0, 94, 59
1, 193353, Note_off_c, 0, 89, 70
1, 193366, Note_on_c, 0, 98, 62
1, 193385, Note_on_c, 0, 82, 53
1, 193388, Note_off_c, 0, 98, 64
1, 193423, Note_off_c, 0, 82, 65
1, 193534, Note_on_c, 0, 86, 68
1, 193576, Note_off_c, 0, 86, 62
1, 193584, Note_on_c, 0, 77, 51
1, 193596, Note_on_c, 0, 82, 57
1, 193623, Note_off_c, 0, 77, 63
1, 193668, Note_on_c, 0, 78, 58
1, 193675, Note_off_c, 0, 82, 61
1, 193687, Note_on_c, 0, 74, 25
1, 193706, Note_off_c, 0, 78, 65
1, 193716, Note_on_c, 0, 70, 57
1, 193721, Note_on_c, 0, 77, 67
1, 193740, Note_off_c, 0, 74, 53
1, 193746, Note_off_c, 0, 70, 67
1, 193753, Note_off_c, 0, 77, 67
1, 193767, Note_on_c, 0, 66, 45
1, 193805, Note_off_c, 0, 66, 61
1, 193820, Note_on_c, 0, 74, 56
1, 193839, Note_on_c, 0, 65, 53
1, 193855, Note_on_c, 0, 70, 64
1, 193872, Control_c, 0, 64, 111
1, 193875, Note_off_c, 0, 65, 59
1, 193880, Note_off_c, 0, 74, 58
1, 193891, Control_c, 0, 64, 101
1, 193911, Control_c, 0, 64, 94
1, 193916, Note_on_c, 0, 62, 52
1, 193918, Note_on_c, 0, 66, 61
1, 193930, Control_c, 0, 64, 88
1, 193933, Note_off_c, 0, 70, 65
1, 193948, Control_c, 0, 64, 82
1, 193953, Note_off_c, 0, 62, 56
1, 193965, Control_c, 0, 64, 76
1, 193966, Note_off_c, 0, 66, 60
1, 193971, Note_on_c, 0, 58, 59
1, 193984, Control_c, 0, 64, 70
1, 193989, Note_on_c, 0, 65, 56
1, 194003, Control_c, 0, 64, 64
1, 194024, Control_c, 0, 64, 61
1, 194036, Note_on_c, 0, 66, 43
1, 194037, Note_off_c, 0, 65, 59
1, 194039, Note_off_c, 0, 58, 63
1, 194040, Control_c, 0, 64, 59
1, 194058, Note_on_c, 0, 62, 43
1, 194059, Control_c, 0, 64, 56
1, 194078, Control_c, 0, 64, 54
1, 194087, Note_off_c, 0, 66, 66
1, 194090, Note_off_c, 0, 62, 58
1, 194096, Control_c, 0, 64, 52
1, 194117, Note_on_c, 0, 70, 50
1, 194117, Control_c, 0, 64, 49
1, 194123, Note_on_c, 0, 65, 52
1, 194134, Control_c, 0, 64, 47
1, 194154, Control_c, 0, 64, 45
1, 194162, Note_off_c, 0, 70, 69
1, 194164, Note_off_c, 0, 65, 65
1, 194191, Control_c, 0, 64, 42
1, 194200, Note_on_c, 0, 74, 36
1, 194225, Note_on_c, 0, 66, 44
1, 194243, Note_off_c, 0, 74, 51
1, 194265, Control_c, 0, 64, 38
1, 194280, Note_off_c, 0, 66, 53
1, 194289, Note_on_c, 0, 77, 54
1, 194304, Note_on_c, 0, 70, 45
1, 194315, Note_off_c, 0, 77, 60
1, 194340, Note_off_c, 0, 70, 58
1, 194376, Note_on_c, 0, 74, 51
1, 194376, Control_c, 0, 64, 34
1, 194428, Note_off_c, 0, 74, 61
1, 194454, Note_on_c, 0, 82, 54
1, 194457, Note_on_c, 0, 77, 55
1, 194534, Note_off_c, 0, 77, 54
1, 194565, Note_off_c, 0, 82, 38
1, 194584, Control_c, 0, 64, 42
1, 194600, Note_on_c, 0, 70, 59
1, 194600, Control_c, 0, 64, 53
1, 194620, Control_c, 0, 64, 62
1, 194625, Note_on_c, 0, 86, 47
1, 194639, Control_c, 0, 64, 68
1, 194641, Note_off_c, 0, 70, 70
1, 194658, Control_c, 0, 64, 76
1, 194660, Note_off_c, 0, 86, 57
1, 194677, Control_c, 0, 64, 88
1, 194696, Control_c, 0, 64, 108
1, 194715, Control_c, 0, 64, 127
1, 194997, Note_on_c, 0, 66, 45
1, 195015, Note_on_c, 0, 74, 41
1, 195038, Note_off_c, 0, 66, 62
1, 195073, Note_on_c, 0, 70, 56
1, 195077, Note_off_c, 0, 74, 59
1, 195084, Note_on_c, 0, 65, 49
1, 195121, Note_off_c, 0, 65, 59
1, 195152, Note_on_c, 0, 66, 56
1, 195167, Note_off_c, 0, 70, 65
1, 195173, Note_on_c, 0, 62, 43
1, 195196, Note_off_c, 0, 66, 68
1, 195216, Note_off_c, 0, 62, 53
1, 195228, Note_on_c, 0, 65, 54
1, 195240, Note_on_c, 0, 58, 49
1, 195259, Note_off_c, 0, 65, 62
1, 195274, Note_off_c, 0, 58, 57
1, 195283, Note_on_c, 0, 54, 62
1, 195303, Note_on_c, 0, 62, 66
1, 195344, Note_off_c, 0, 62, 61
1, 195358, Note_off_c, 0, 54, 63
1, 195367, Note_on_c, 0, 58, 59
1, 195377, Note_on_c, 0, 53, 61
1, 195408, Note_off_c, 0, 58, 65
1, 195430, Note_on_c, 0, 54, 56
1, 195433, Note_on_c, 0, 62, 67
1, 195434, Note_off_c, 0, 53, 60
1, 195464, Note_off_c, 0, 62, 68
1, 195499, Control_c, 0, 67, 114
1, 195507, Note_off_c, 0, 54, 63
1, 195512, Note_on_c, 0, 58, 60
1, 195522, Note_on_c, 0, 65, 56
1, 195556, Note_off_c, 0, 65, 62
1, 195558, Note_on_c, 0, 62, 71
1, 195561, Note_off_c, 0, 58, 65
1, 195585, Note_off_c, 0, 62, 68
1, 195589, Note_on_c, 0, 66, 63
1, 195623, Note_off_c, 0, 66, 66
1, 195632, Note_on_c, 0, 70, 67
1, 195642, Note_on_c, 0, 65, 75
1, 195674, Note_off_c, 0, 65, 66
1, 195699, Note_off_c, 0, 70, 66
1, 195712, Note_on_c, 0, 74, 56
1, 195725, Note_on_c, 0, 66, 69
1, 195741, Note_off_c, 0, 74, 63
1, 195780, Note_on_c, 0, 77, 80
1, 195799, Control_c, 0, 67, 110
1, 195800, Note_off_c, 0, 66, 65
1, 195809, Note_on_c, 0, 70, 66
1, 195821, Note_off_c, 0, 77, 55
1, 195847, Note_on_c, 0, 78, 70
1, 195849, Note_on_c, 0, 74, 72
1, 195855, Note_off_c, 0, 70, 70
1, 195877, Note_off_c, 0, 74, 67
1, 195891, Note_off_c, 0, 78, 60
1, 195900, Note_on_c, 0, 82, 72
1, 195917, Note_on_c, 0, 77, 78
1, 195948, Note_off_c, 0, 77, 65
1, 195952, Note_on_c, 0, 86, 69
1, 195957, Note_off_c, 0, 82, 65
1, 195982, Note_off_c, 0, 86, 70
1, 196008, Note_on_c, 0, 78, 58
1, 196024, Note_on_c, 0, 89, 85
1, 196045, Note_off_c, 0, 78, 70
1, 196049, Note_on_c, 0, 82, 79
1, 196078, Note_off_c, 0, 89, 64
1, 196078, Note_on_c, 0, 90, 80
1, 196082, Note_on_c, 0, 86, 79
1, 196092, Note_off_c, 0, 82, 60
1, 196110, Note_off_c, 0, 86, 69
1, 196139, Note_on_c, 0, 94, 86
1, 196150, Note_on_c, 0, 89, 82
1, 196151, Note_off_c, 0, 90, 65
1, 196211, Note_off_c, 0, 94, 64
1, 196214, Note_on_c, 0, 98, 92
1, 196216, Note_off_c, 0, 89, 57
1, 196231, Note_on_c, 0, 90, 68
1, 196274, Note_on_c, 0, 94, 76
1, 196279, Note_on_c, 0, 89, 67
1, 196283, Note_off_c, 0, 90, 62
1, 196285, Control_c, 0, 67, 114
1, 196303, Control_c, 0, 64, 123
1, 196322, Control_c, 0, 64, 110
1, 196323, Note_off_c, 0, 98, 64
1, 196324, Note_on_c, 0, 86, 77
1, 196326, Note_off_c, 0, 89, 65
1, 196331, Note_on_c, 0, 90, 63
1, 196360, Note_off_c, 0, 94, 65
1, 196389, Poly_aftertouch_c, 0, 88, 0
1, 196392, Note_on_c, 0, 82, 80
1, 196394, Note_off_c, 0, 90, 64
1, 196398, Note_off_c, 0, 86, 64
1, 196398, Note_on_c, 0, 89, 69
1, 196436, Note_on_c, 0, 90, 65
1, 196455, Note_off_c, 0, 82, 62
1, 196455, Note_on_c, 0, 98, 70
1, 196469, Note_on_c, 0, 96, 71
1, 196490, Note_off_c, 0, 90, 65
1, 196492, Note_on_c, 0, 94, 83
1, 196499, Note_off_c, 0, 96, 56
1, 196507, Note_off_c, 0, 89, 64
1, 196507, Note_on_c, 0, 89, 38
1, 196508, Control_c, 0, 64, 101
1, 196524, Note_off_c, 0, 98, 63
1, 196529, Control_c, 0, 64, 87
1, 196546, Control_c, 0, 64, 68
1, 196549, Note_on_c, 0, 86, 71
1, 196553, Note_on_c, 0, 90, 66
1, 196554, Note_off_c, 0, 89, 63
1, 196565, Note_off_c, 0, 94, 66
1, 196566, Control_c, 0, 64, 45
1, 196584, Control_c, 0, 64, 9
1, 196603, Control_c, 0, 64, 0
1, 196609, Note_off_c, 0, 90, 63
1, 196616, Note_on_c, 0, 82, 71
1, 196620, Note_off_c, 0, 86, 62
1, 196620, Note_on_c, 0, 89, 59
1, 196663, Note_off_c, 0, 82, 57
1, 196667, Note_on_c, 0, 90, 62
1, 196669, Note_on_c, 0, 98, 73
1, 196674, Note_off_c, 0, 89, 64
1, 196724, Note_off_c, 0, 90, 64
1, 196724, Note_on_c, 0, 94, 71
1, 196732, Note_on_c, 0, 89, 48
1, 196740, Note_off_c, 0, 98, 63
1, 196777, Note_off_c, 0, 89, 61
1, 196789, Note_on_c, 0, 90, 45
1, 196790, Note_off_c, 0, 94, 65
1, 196792, Note_on_c, 0, 86, 61
1, 196830, Note_off_c, 0, 90, 66
1, 196839, Note_on_c, 0, 82, 60
1, 196845, Note_off_c, 0, 86, 58
1, 196862, Note_on_c, 0, 89, 61
1, 196899, Note_off_c, 0, 89, 66
1, 196901, Note_off_c, 0, 82, 61
1, 196923, Note_on_c, 0, 98, 59
1, 196924, Note_on_c, 0, 90, 66
1, 196956, Note_off_c, 0, 90, 67
1, 196986, Note_off_c, 0, 98, 61
1, 196989, Note_on_c, 0, 94, 55
1, 197032, Note_off_c, 0, 94, 63
1, 197041, Note_on_c, 0, 90, 56
1, 197043, Note_on_c, 0, 86, 56
1, 197077, Note_off_c, 0, 90, 65
1, 197090, Note_off_c, 0, 86, 62
1, 197097, Note_on_c, 0, 82, 56
1, 197127, Poly_aftertouch_c, 0, 89, 127
1, 197158, Note_off_c, 0, 82, 59
1, 197160, Poly_aftertouch_c, 0, 89, 0
1, 197187, Note_on_c, 0, 90, 56
1, 197187, Note_on_c, 0, 98, 50
1, 197224, Note_off_c, 0, 90, 69
1, 197246, Note_off_c, 0, 98, 57
1, 197253, Note_on_c, 0, 94, 56
1, 197257, Control_c, 0, 64, 9
1, 197276, Control_c, 0, 64, 33
1, 197294, Control_c, 0, 64, 50
1, 197313, Control_c, 0, 64, 58
1, 197321, Poly_aftertouch_c, 0, 89, 0
1, 197332, Control_c, 0, 64, 63
1, 197335, Note_on_c, 0, 89, 22
1, 197336, Note_off_c, 0, 89, 127
1, 197338, Note_off_c, 0, 94, 58
1, 197339, Note_on_c, 0, 86, 44
1, 197350, Control_c, 0, 64, 69
1, 197358, Note_on_c, 0, 90, 19
1, 197366, Control_c, 0, 64, 79
1, 197383, Note_off_c, 0, 86, 63
1, 197387, Control_c, 0, 64, 91
1, 197406, Control_c, 0, 64, 101
1, 197412, Note_on_c, 0, 82, 55
1, 197424, Note_off_c, 0, 90, 27
1, 197424, Control_c, 0, 64, 108
1, 197440, Poly_aftertouch_c, 0, 89, 0
1, 197450, Note_off_c, 0, 82, 64
1, 197539, Control_c, 0, 64, 100
1, 197555, Control_c, 0, 64, 91
1, 197575, Control_c, 0, 64, 79
1, 197594, Control_c, 0, 64, 64
1, 197608, Note_on_c, 0, 77, 41
1, 197612, Control_c, 0, 64, 46
1, 197630, Control_c, 0, 64, 31
1, 197650, Control_c, 0, 64, 26
1, 197666, Note_on_c, 0, 82, 42
1, 197688, Control_c, 0, 64, 34
1, 197707, Note_on_c, 0, 89, 50
1, 197708, Control_c, 0, 64, 49
1, 197716, Note_on_c, 0, 86, 57
1, 197725, Control_c, 0, 64, 63
1, 197733, Note_off_c, 0, 89, 58
1, 197742, Control_c, 0, 64, 75
1, 197747, Note_on_c, 0, 94, 57
1, 197750, Note_off_c, 0, 86, 68
1, 197759, Note_off_c, 0, 82, 45
1, 197760, Control_c, 0, 64, 94
1, 197780, Control_c, 0, 64, 127
1, 197784, Note_off_c, 0, 77, 21
1, 197808, Note_off_c, 0, 94, 61
1, 197808, Note_on_c, 0, 101, 70
1, 197843, Note_off_c, 0, 101, 64
1, 198286, Control_c, 0, 64, 109
1, 198303, Control_c, 0, 64, 97
1, 198323, Control_c, 0, 64, 87
1, 198341, Control_c, 0, 64, 78
1, 198359, Control_c, 0, 64, 69
1, 198379, Control_c, 0, 64, 60
1, 198397, Control_c, 0, 64, 53
1, 198417, Control_c, 0, 64, 46
1, 198434, Control_c, 0, 64, 41
1, 198454, Control_c, 0, 64, 34
1, 198472, Control_c, 0, 64, 26
1, 198491, Control_c, 0, 64, 20
1, 198565, Control_c, 0, 64, 27
1, 198573, Note_on_c, 0, 46, 42
1, 198584, Control_c, 0, 64, 38
1, 198603, Control_c, 0, 64, 51
1, 198622, Control_c, 0, 64, 59
1, 198636, Note_off_c, 0, 46, 55
1, 198640, Control_c, 0, 64, 63
1, 198659, Note_on_c, 0, 53, 24
1, 198659, Control_c, 0, 64, 66
1, 198678, Control_c, 0, 64, 71
1, 198695, Control_c, 0, 64, 80
1, 198703, Note_on_c, 0, 62, 41
1, 198718, Control_c, 0, 64, 91
1, 198719, Note_off_c, 0, 53, 47
1, 198734, Control_c, 0, 64, 105
1, 198753, Note_off_c, 0, 62, 63
1, 198753, Control_c, 0, 64, 127
1, 199352, Control_c, 0, 64, 116
1, 199369, Control_c, 0, 64, 109
1, 199389, Control_c, 0, 64, 103
1, 199407, Control_c, 0, 64, 98
1, 199444, Control_c, 0, 64, 92
1, 199500, Control_c, 0, 64, 87
1, 199519, Control_c, 0, 64, 85
1, 199556, Control_c, 0, 64, 82
1, 199613, Control_c, 0, 64, 79
1, 199669, Control_c, 0, 64, 77
1, 199724, Control_c, 0, 64, 75
1, 199763, Control_c, 0, 64, 73
1, 199800, Control_c, 0, 64, 70
1, 199837, Control_c, 0, 64, 68
1, 199855, Control_c, 0, 64, 66
1, 199875, Control_c, 0, 64, 64
1, 199894, Control_c, 0, 64, 62
1, 199912, Control_c, 0, 64, 60
1, 199950, Control_c, 0, 64, 57
1, 199968, Control_c, 0, 64, 55
1, 199987, Control_c, 0, 64, 53
1, 200026, Control_c, 0, 64, 50
1, 200062, Control_c, 0, 64, 47
1, 200080, Control_c, 0, 64, 45
1, 200100, Control_c, 0, 64, 43
1, 200117, Control_c, 0, 64, 41
1, 200155, Control_c, 0, 64, 37
1, 200173, Control_c, 0, 64, 33
1, 200192, Control_c, 0, 64, 28
1, 200212, Control_c, 0, 64, 23
1, 200230, Control_c, 0, 64, 17
1, 200249, Control_c, 0, 64, 13
1, 200288, Control_c, 0, 64, 0
1, 200304, Control_c, 0, 67, 110
1, 200399, Control_c, 0, 67, 105
1, 200416, Control_c, 0, 67, 101
1, 200436, Control_c, 0, 67, 96
1, 200453, Control_c, 0, 67, 90
1, 200473, Control_c, 0, 67, 83
1, 200492, Control_c, 0, 67, 76
1, 200510, Control_c, 0, 67, 66
1, 200529, Control_c, 0, 67, 55
1, 200547, Control_c, 0, 67, 44
1, 200567, Control_c, 0, 67, 33
1, 200584, Control_c, 0, 67, 21
1, 200604, Control_c, 0, 67, 9
1, 200698, Control_c, 0, 67, 0
1, 202413, Poly_aftertouch_c, 0, 50, 0
1, 202413, Poly_aftertouch_c, 0, 95, 0
1, 202413, End_track
0, 0, End_of_file
