0, 0, Header, 1, 3, 384
1, 0, Start_track
1, 0, Title_t, "untitled"
1, 0, Sequencer_specific, 3, 0, 0, 65
1, 0, Time_signature, 4, 2, 24, 8
1, 0, Key_signature, 0, "major"
1, 0, Tempo, 571429
1, 4844, Tempo, 545455
1, 13980, Tempo, 545455
1, 41164, Tempo, 444444
1, 51348, Tempo, 500000
1, 74880, Tempo, 545455
1, 86556, Tempo, 521739
1, 87276, Tempo, 545455
1, 98096, Tempo, 545455
1, 104448, Tempo, 468750
1, 141508, Tempo, 545455
1, 142128, Tempo, 468750
1, 147052, Tempo, 545455
1, 147740, Tempo, 468750
1, 160148, Tempo, 444444
1, 164588, Tempo, 382166
1, 171220, Tempo, 447761
1, 175332, Tempo, 521739
1, 176068, Tempo, 461538
1, 202060, Tempo, 472441
1, 224836, Tempo, 512821
1, 231580, Tempo, 472441
1, 245868, Tempo, 512821
1, 248516, Tempo, 472441
1, 259072, Tempo, 428571
1, 268868, Tempo, 444444
1, 394760, Tempo, 468750
1, 404628, Tempo, 437956
1, 409348, Tempo, 422535
1, 409348, End_track
2, 0, Start_track
2, 0, Title_t, "Tarantella: F Liszt"
2, 0, Program_c, 0, 0
2, 0, Control_c, 0, 7, 105
2, 404, Note_on_c, 0, 27, 73
2, 416, Control_c, 0, 64, 127
2, 460, Note_on_c, 0, 27, 0
2, 468, Note_on_c, 0, 39, 67
2, 532, Note_on_c, 0, 39, 0
2, 540, Note_on_c, 0, 51, 65
2, 592, Note_on_c, 0, 51, 0
2, 592, Note_on_c, 0, 30, 74
2, 636, Note_on_c, 0, 30, 0
2, 660, Note_on_c, 0, 42, 67
2, 712, Note_on_c, 0, 42, 0
2, 720, Note_on_c, 0, 51, 63
2, 768, Note_on_c, 0, 39, 71
2, 772, Note_on_c, 0, 51, 0
2, 772, Note_on_c, 0, 33, 75
2, 772, Control_c, 0, 64, 108
2, 780, Control_c, 0, 64, 56
2, 792, Control_c, 0, 64, 40
2, 800, Control_c, 0, 64, 24
2, 804, Note_on_c, 0, 39, 0
2, 808, Control_c, 0, 64, 0
2, 820, Note_on_c, 0, 33, 0
2, 840, Note_on_c, 0, 45, 78
2, 904, Note_on_c, 0, 51, 65
2, 908, Note_on_c, 0, 45, 0
2, 948, Note_on_c, 0, 39, 73
2, 952, Note_on_c, 0, 34, 78
2, 968, Note_on_c, 0, 51, 0
2, 1000, Note_on_c, 0, 34, 0
2, 1000, Note_on_c, 0, 39, 0
2, 1020, Note_on_c, 0, 46, 73
2, 1084, Note_on_c, 0, 51, 65
2, 1092, Note_on_c, 0, 46, 0
2, 1132, Note_on_c, 0, 39, 69
2, 1136, Note_on_c, 0, 35, 79
2, 1148, Note_on_c, 0, 51, 0
2, 1156, Note_on_c, 0, 35, 0
2, 1168, Note_on_c, 0, 39, 0
2, 1204, Note_on_c, 0, 47, 75
2, 1264, Note_on_c, 0, 47, 0
2, 1264, Note_on_c, 0, 51, 70
2, 1320, Note_on_c, 0, 51, 0
2, 1320, Note_on_c, 0, 36, 80
2, 1320, Note_on_c, 0, 39, 64
2, 1352, Note_on_c, 0, 39, 0
2, 1352, Note_on_c, 0, 36, 0
2, 1396, Note_on_c, 0, 48, 74
2, 1452, Note_on_c, 0, 51, 70
2, 1456, Note_on_c, 0, 48, 0
2, 1500, Note_on_c, 0, 51, 0
2, 1516, Note_on_c, 0, 39, 71
2, 1516, Note_on_c, 0, 33, 78
2, 1560, Note_on_c, 0, 39, 0
2, 1568, Note_on_c, 0, 33, 0
2, 1584, Note_on_c, 0, 45, 70
2, 1644, Note_on_c, 0, 51, 66
2, 1648, Note_on_c, 0, 45, 0
2, 1696, Note_on_c, 0, 39, 81
2, 1696, Note_on_c, 0, 30, 75
2, 1716, Note_on_c, 0, 51, 0
2, 1732, Note_on_c, 0, 39, 0
2, 1736, Note_on_c, 0, 30, 0
2, 1768, Note_on_c, 0, 42, 55
2, 1828, Note_on_c, 0, 51, 74
2, 1844, Note_on_c, 0, 42, 0
2, 1888, Note_on_c, 0, 51, 0
2, 1892, Note_on_c, 0, 27, 92
2, 1896, Control_c, 0, 64, 56
2, 1904, Control_c, 0, 64, 127
2, 1964, Note_on_c, 0, 27, 0
2, 1964, Note_on_c, 0, 39, 63
2, 2020, Note_on_c, 0, 39, 0
2, 2020, Note_on_c, 0, 51, 74
2, 2076, Note_on_c, 0, 51, 0
2, 2080, Note_on_c, 0, 30, 81
2, 2120, Note_on_c, 0, 30, 0
2, 2136, Control_c, 0, 64, 88
2, 2148, Note_on_c, 0, 42, 62
2, 2148, Control_c, 0, 64, 72
2, 2156, Control_c, 0, 64, 56
2, 2164, Control_c, 0, 64, 40
2, 2176, Control_c, 0, 64, 24
2, 2184, Control_c, 0, 64, 0
2, 2204, Note_on_c, 0, 51, 81
2, 2220, Note_on_c, 0, 42, 0
2, 2268, Note_on_c, 0, 51, 0
2, 2276, Note_on_c, 0, 33, 83
2, 2276, Note_on_c, 0, 39, 69
2, 2312, Note_on_c, 0, 39, 0
2, 2312, Note_on_c, 0, 33, 0
2, 2344, Note_on_c, 0, 45, 77
2, 2408, Note_on_c, 0, 51, 72
2, 2416, Note_on_c, 0, 45, 0
2, 2464, Note_on_c, 0, 51, 0
2, 2468, Note_on_c, 0, 39, 70
2, 2468, Note_on_c, 0, 34, 85
2, 2504, Note_on_c, 0, 34, 0
2, 2504, Note_on_c, 0, 39, 0
2, 2540, Note_on_c, 0, 46, 70
2, 2596, Note_on_c, 0, 51, 72
2, 2604, Note_on_c, 0, 46, 0
2, 2656, Note_on_c, 0, 39, 63
2, 2660, Note_on_c, 0, 35, 86
2, 2664, Note_on_c, 0, 51, 0
2, 2684, Note_on_c, 0, 35, 0
2, 2692, Note_on_c, 0, 39, 0
2, 2724, Note_on_c, 0, 47, 79
2, 2784, Note_on_c, 0, 51, 71
2, 2792, Note_on_c, 0, 47, 0
2, 2836, Note_on_c, 0, 39, 73
2, 2840, Note_on_c, 0, 36, 88
2, 2844, Note_on_c, 0, 51, 0
2, 2860, Note_on_c, 0, 36, 0
2, 2872, Note_on_c, 0, 39, 0
2, 2908, Note_on_c, 0, 48, 82
2, 2964, Note_on_c, 0, 51, 74
2, 2972, Note_on_c, 0, 48, 0
2, 3024, Note_on_c, 0, 51, 0
2, 3028, Note_on_c, 0, 39, 71
2, 3028, Note_on_c, 0, 33, 86
2, 3076, Note_on_c, 0, 33, 0
2, 3084, Note_on_c, 0, 39, 0
2, 3092, Note_on_c, 0, 45, 70
2, 3152, Note_on_c, 0, 51, 71
2, 3156, Note_on_c, 0, 45, 0
2, 3204, Note_on_c, 0, 39, 79
2, 3204, Note_on_c, 0, 30, 83
2, 3212, Note_on_c, 0, 51, 0
2, 3248, Note_on_c, 0, 39, 0
2, 3252, Note_on_c, 0, 30, 0
2, 3268, Note_on_c, 0, 42, 59
2, 3328, Note_on_c, 0, 51, 71
2, 3348, Note_on_c, 0, 42, 0
2, 3392, Note_on_c, 0, 27, 87
2, 3400, Note_on_c, 0, 51, 0
2, 3404, Control_c, 0, 64, 24
2, 3412, Control_c, 0, 64, 88
2, 3420, Control_c, 0, 64, 127
2, 3460, Note_on_c, 0, 39, 64
2, 3468, Note_on_c, 0, 27, 0
2, 3516, Note_on_c, 0, 51, 72
2, 3532, Note_on_c, 0, 39, 0
2, 3564, Note_on_c, 0, 51, 0
2, 3580, Note_on_c, 0, 30, 86
2, 3624, Note_on_c, 0, 30, 0
2, 3660, Note_on_c, 0, 42, 73
2, 3672, Control_c, 0, 64, 104
2, 3700, Control_c, 0, 64, 88
2, 3704, Note_on_c, 0, 54, 62
2, 3712, Note_on_c, 0, 42, 0
2, 3712, Control_c, 0, 64, 72
2, 3720, Control_c, 0, 64, 56
2, 3736, Control_c, 0, 64, 40
2, 3748, Control_c, 0, 64, 24
2, 3756, Note_on_c, 0, 54, 0
2, 3764, Control_c, 0, 64, 0
2, 3784, Note_on_c, 0, 33, 88
2, 3832, Note_on_c, 0, 33, 0
2, 3848, Note_on_c, 0, 45, 83
2, 3908, Note_on_c, 0, 45, 0
2, 3908, Note_on_c, 0, 57, 75
2, 3948, Note_on_c, 0, 57, 0
2, 3964, Note_on_c, 0, 34, 88
2, 4012, Note_on_c, 0, 34, 0
2, 4032, Note_on_c, 0, 46, 86
2, 4088, Note_on_c, 0, 58, 83
2, 4104, Note_on_c, 0, 46, 0
2, 4148, Note_on_c, 0, 35, 89
2, 4152, Note_on_c, 0, 58, 0
2, 4200, Note_on_c, 0, 35, 0
2, 4208, Note_on_c, 0, 47, 87
2, 4272, Note_on_c, 0, 59, 95
2, 4276, Note_on_c, 0, 47, 0
2, 4332, Note_on_c, 0, 59, 0
2, 4336, Note_on_c, 0, 36, 94
2, 4388, Note_on_c, 0, 36, 0
2, 4392, Note_on_c, 0, 48, 93
2, 4452, Note_on_c, 0, 60, 93
2, 4472, Note_on_c, 0, 48, 0
2, 4504, Note_on_c, 0, 37, 95
2, 4516, Note_on_c, 0, 60, 0
2, 4552, Note_on_c, 0, 37, 0
2, 4576, Note_on_c, 0, 49, 88
2, 4632, Note_on_c, 0, 49, 0
2, 4636, Note_on_c, 0, 61, 87
2, 4680, Note_on_c, 0, 61, 0
2, 4844, Note_on_c, 0, 62, 80
2, 4844, Note_on_c, 0, 57, 58
2, 4844, Note_on_c, 0, 54, 63
2, 4880, Note_on_c, 0, 54, 0
2, 4880, Note_on_c, 0, 57, 0
2, 4892, Note_on_c, 0, 62, 0
2, 4944, Note_on_c, 0, 49, 37
2, 4952, Note_on_c, 0, 50, 80
2, 4976, Note_on_c, 0, 49, 0
2, 4984, Note_on_c, 0, 50, 0
2, 5032, Note_on_c, 0, 63, 83
2, 5032, Note_on_c, 0, 58, 65
2, 5040, Note_on_c, 0, 55, 69
2, 5084, Note_on_c, 0, 58, 0
2, 5084, Note_on_c, 0, 63, 0
2, 5104, Note_on_c, 0, 55, 0
2, 5128, Note_on_c, 0, 38, 77
2, 5156, Note_on_c, 0, 38, 0
2, 5216, Note_on_c, 0, 66, 80
2, 5220, Note_on_c, 0, 60, 72
2, 5220, Note_on_c, 0, 57, 58
2, 5240, Note_on_c, 0, 57, 0
2, 5240, Note_on_c, 0, 60, 0
2, 5264, Note_on_c, 0, 66, 0
2, 5312, Note_on_c, 0, 49, 80
2, 5316, Note_on_c, 0, 50, 82
2, 5336, Note_on_c, 0, 49, 0
2, 5344, Note_on_c, 0, 50, 0
2, 5396, Note_on_c, 0, 70, 86
2, 5400, Note_on_c, 0, 62, 67
2, 5404, Note_on_c, 0, 65, 55
2, 5428, Note_on_c, 0, 65, 0
2, 5436, Note_on_c, 0, 62, 0
2, 5440, Note_on_c, 0, 70, 0
2, 5488, Note_on_c, 0, 38, 90
2, 5528, Note_on_c, 0, 38, 0
2, 5588, Note_on_c, 0, 69, 87
2, 5588, Note_on_c, 0, 63, 64
2, 5596, Note_on_c, 0, 60, 56
2, 5620, Note_on_c, 0, 60, 0
2, 5628, Note_on_c, 0, 69, 0
2, 5632, Note_on_c, 0, 63, 0
2, 5672, Note_on_c, 0, 49, 79
2, 5680, Note_on_c, 0, 50, 93
2, 5692, Note_on_c, 0, 49, 0
2, 5708, Note_on_c, 0, 50, 0
2, 5760, Note_on_c, 0, 67, 82
2, 5760, Note_on_c, 0, 58, 57
2, 5764, Note_on_c, 0, 62, 72
2, 5784, Note_on_c, 0, 62, 0
2, 5804, Note_on_c, 0, 58, 0
2, 5804, Note_on_c, 0, 67, 0
2, 5860, Note_on_c, 0, 38, 82
2, 5892, Note_on_c, 0, 38, 0
2, 5944, Note_on_c, 0, 66, 78
2, 5944, Note_on_c, 0, 60, 77
2, 5948, Note_on_c, 0, 57, 62
2, 5968, Note_on_c, 0, 57, 0
2, 5968, Note_on_c, 0, 60, 0
2, 5996, Note_on_c, 0, 66, 0
2, 6040, Note_on_c, 0, 49, 66
2, 6044, Note_on_c, 0, 50, 77
2, 6056, Note_on_c, 0, 49, 0
2, 6064, Note_on_c, 0, 50, 0
2, 6120, Note_on_c, 0, 67, 86
2, 6124, Note_on_c, 0, 61, 71
2, 6124, Note_on_c, 0, 58, 58
2, 6156, Note_on_c, 0, 58, 0
2, 6156, Note_on_c, 0, 61, 0
2, 6156, Note_on_c, 0, 67, 0
2, 6220, Note_on_c, 0, 38, 92
2, 6260, Note_on_c, 0, 38, 0
2, 6308, Note_on_c, 0, 54, 65
2, 6312, Note_on_c, 0, 57, 60
2, 6316, Note_on_c, 0, 62, 77
2, 6336, Note_on_c, 0, 57, 0
2, 6344, Note_on_c, 0, 54, 0
2, 6356, Note_on_c, 0, 62, 0
2, 6376, Control_c, 0, 64, 24
2, 6396, Note_on_c, 0, 49, 79
2, 6412, Note_on_c, 0, 50, 89
2, 6416, Control_c, 0, 64, 0
2, 6420, Note_on_c, 0, 49, 0
2, 6428, Note_on_c, 0, 50, 0
2, 6496, Note_on_c, 0, 58, 70
2, 6496, Note_on_c, 0, 63, 80
2, 6500, Note_on_c, 0, 55, 75
2, 6524, Note_on_c, 0, 55, 0
2, 6532, Note_on_c, 0, 58, 0
2, 6540, Note_on_c, 0, 63, 0
2, 6588, Note_on_c, 0, 38, 79
2, 6612, Note_on_c, 0, 38, 0
2, 6676, Note_on_c, 0, 66, 82
2, 6676, Note_on_c, 0, 57, 64
2, 6676, Note_on_c, 0, 60, 72
2, 6696, Note_on_c, 0, 60, 0
2, 6696, Note_on_c, 0, 57, 0
2, 6720, Note_on_c, 0, 66, 0
2, 6764, Note_on_c, 0, 49, 83
2, 6772, Note_on_c, 0, 50, 87
2, 6796, Note_on_c, 0, 50, 0
2, 6796, Note_on_c, 0, 49, 0
2, 6852, Note_on_c, 0, 70, 89
2, 6856, Note_on_c, 0, 65, 71
2, 6860, Note_on_c, 0, 62, 65
2, 6876, Note_on_c, 0, 65, 0
2, 6880, Note_on_c, 0, 62, 0
2, 6896, Note_on_c, 0, 70, 0
2, 6944, Note_on_c, 0, 38, 80
2, 6972, Note_on_c, 0, 38, 0
2, 7032, Note_on_c, 0, 69, 88
2, 7036, Note_on_c, 0, 63, 70
2, 7044, Note_on_c, 0, 60, 64
2, 7060, Note_on_c, 0, 60, 0
2, 7076, Note_on_c, 0, 63, 0
2, 7076, Note_on_c, 0, 69, 0
2, 7120, Note_on_c, 0, 49, 79
2, 7132, Note_on_c, 0, 50, 80
2, 7148, Note_on_c, 0, 49, 0
2, 7152, Note_on_c, 0, 50, 0
2, 7208, Note_on_c, 0, 67, 87
2, 7212, Note_on_c, 0, 58, 67
2, 7216, Note_on_c, 0, 62, 74
2, 7232, Note_on_c, 0, 62, 0
2, 7248, Note_on_c, 0, 58, 0
2, 7252, Note_on_c, 0, 67, 0
2, 7312, Note_on_c, 0, 38, 79
2, 7336, Note_on_c, 0, 38, 0
2, 7396, Note_on_c, 0, 66, 82
2, 7396, Note_on_c, 0, 60, 77
2, 7400, Note_on_c, 0, 57, 58
2, 7424, Note_on_c, 0, 57, 0
2, 7424, Note_on_c, 0, 60, 0
2, 7456, Note_on_c, 0, 66, 0
2, 7476, Note_on_c, 0, 49, 73
2, 7496, Note_on_c, 0, 50, 63
2, 7508, Note_on_c, 0, 49, 0
2, 7524, Note_on_c, 0, 50, 0
2, 7568, Note_on_c, 0, 58, 64
2, 7568, Note_on_c, 0, 61, 70
2, 7572, Note_on_c, 0, 67, 83
2, 7596, Note_on_c, 0, 58, 0
2, 7600, Note_on_c, 0, 61, 0
2, 7612, Note_on_c, 0, 67, 0
2, 7656, Note_on_c, 0, 38, 89
2, 7668, Control_c, 0, 64, 40
2, 7680, Control_c, 0, 64, 127
2, 7760, Note_on_c, 0, 74, 94
2, 7760, Note_on_c, 0, 66, 65
2, 7764, Note_on_c, 0, 62, 67
2, 7784, Note_on_c, 0, 62, 0
2, 7800, Note_on_c, 0, 74, 0
2, 7804, Note_on_c, 0, 66, 0
2, 7836, Note_on_c, 0, 58, 78
2, 7836, Note_on_c, 0, 50, 80
2, 7844, Note_on_c, 0, 55, 73
2, 7860, Note_on_c, 0, 55, 0
2, 7860, Note_on_c, 0, 50, 0
2, 7888, Note_on_c, 0, 58, 0
2, 7900, Control_c, 0, 64, 104
2, 7912, Control_c, 0, 64, 72
2, 7920, Control_c, 0, 64, 56
2, 7924, Note_on_c, 0, 63, 70
2, 7928, Note_on_c, 0, 38, 0
2, 7928, Note_on_c, 0, 75, 95
2, 7928, Control_c, 0, 64, 40
2, 7940, Note_on_c, 0, 67, 58
2, 7948, Control_c, 0, 64, 24
2, 7960, Note_on_c, 0, 67, 0
2, 7960, Note_on_c, 0, 63, 0
2, 7968, Control_c, 0, 64, 0
2, 7976, Note_on_c, 0, 75, 0
2, 8016, Note_on_c, 0, 57, 80
2, 8020, Note_on_c, 0, 50, 85
2, 8020, Note_on_c, 0, 60, 81
2, 8036, Note_on_c, 0, 57, 0
2, 8040, Note_on_c, 0, 50, 0
2, 8064, Note_on_c, 0, 60, 0
2, 8104, Note_on_c, 0, 66, 70
2, 8104, Note_on_c, 0, 78, 95
2, 8112, Note_on_c, 0, 69, 66
2, 8128, Note_on_c, 0, 69, 0
2, 8136, Note_on_c, 0, 66, 0
2, 8152, Note_on_c, 0, 78, 0
2, 8196, Note_on_c, 0, 65, 85
2, 8196, Note_on_c, 0, 62, 81
2, 8232, Note_on_c, 0, 62, 0
2, 8232, Note_on_c, 0, 65, 0
2, 8280, Note_on_c, 0, 82, 89
2, 8284, Note_on_c, 0, 70, 54
2, 8288, Note_on_c, 0, 74, 75
2, 8304, Note_on_c, 0, 74, 0
2, 8320, Note_on_c, 0, 70, 0
2, 8332, Note_on_c, 0, 82, 0
2, 8368, Note_on_c, 0, 60, 86
2, 8368, Note_on_c, 0, 63, 74
2, 8396, Note_on_c, 0, 60, 0
2, 8412, Note_on_c, 0, 63, 0
2, 8448, Note_on_c, 0, 81, 94
2, 8456, Note_on_c, 0, 72, 77
2, 8456, Note_on_c, 0, 69, 71
2, 8484, Note_on_c, 0, 72, 0
2, 8496, Note_on_c, 0, 69, 0
2, 8496, Note_on_c, 0, 81, 0
2, 8536, Note_on_c, 0, 58, 73
2, 8540, Note_on_c, 0, 62, 86
2, 8540, Note_on_c, 0, 50, 80
2, 8572, Note_on_c, 0, 58, 0
2, 8576, Note_on_c, 0, 50, 0
2, 8580, Note_on_c, 0, 62, 0
2, 8628, Note_on_c, 0, 79, 85
2, 8628, Note_on_c, 0, 70, 77
2, 8632, Note_on_c, 0, 67, 66
2, 8660, Note_on_c, 0, 67, 0
2, 8668, Note_on_c, 0, 79, 0
2, 8688, Note_on_c, 0, 70, 0
2, 8720, Note_on_c, 0, 60, 78
2, 8720, Note_on_c, 0, 50, 78
2, 8720, Note_on_c, 0, 57, 72
2, 8748, Note_on_c, 0, 50, 0
2, 8752, Note_on_c, 0, 57, 0
2, 8768, Note_on_c, 0, 60, 0
2, 8808, Note_on_c, 0, 78, 96
2, 8808, Note_on_c, 0, 66, 73
2, 8812, Note_on_c, 0, 69, 58
2, 8844, Note_on_c, 0, 69, 0
2, 8848, Note_on_c, 0, 66, 0
2, 8868, Note_on_c, 0, 78, 0
2, 8896, Note_on_c, 0, 61, 87
2, 8896, Note_on_c, 0, 58, 77
2, 8904, Note_on_c, 0, 50, 66
2, 8928, Note_on_c, 0, 61, 0
2, 8932, Note_on_c, 0, 58, 0
2, 8936, Note_on_c, 0, 50, 0
2, 8984, Note_on_c, 0, 79, 100
2, 8984, Note_on_c, 0, 70, 87
2, 8984, Note_on_c, 0, 67, 80
2, 9016, Note_on_c, 0, 79, 0
2, 9028, Note_on_c, 0, 67, 0
2, 9028, Note_on_c, 0, 70, 0
2, 9072, Note_on_c, 0, 38, 103
2, 9084, Control_c, 0, 64, 24
2, 9092, Control_c, 0, 64, 127
2, 9112, Note_on_c, 0, 38, 0
2, 9168, Note_on_c, 0, 74, 90
2, 9172, Note_on_c, 0, 62, 66
2, 9172, Note_on_c, 0, 66, 64
2, 9204, Note_on_c, 0, 62, 0
2, 9216, Note_on_c, 0, 74, 0
2, 9220, Note_on_c, 0, 66, 0
2, 9252, Note_on_c, 0, 50, 83
2, 9256, Note_on_c, 0, 58, 74
2, 9256, Note_on_c, 0, 55, 83
2, 9272, Note_on_c, 0, 55, 0
2, 9284, Note_on_c, 0, 50, 0
2, 9308, Note_on_c, 0, 58, 0
2, 9344, Note_on_c, 0, 75, 88
2, 9344, Note_on_c, 0, 63, 71
2, 9352, Note_on_c, 0, 67, 69
2, 9352, Control_c, 0, 64, 104
2, 9360, Control_c, 0, 64, 88
2, 9368, Note_on_c, 0, 67, 0
2, 9372, Control_c, 0, 64, 72
2, 9376, Note_on_c, 0, 63, 0
2, 9380, Control_c, 0, 64, 56
2, 9388, Control_c, 0, 64, 40
2, 9396, Note_on_c, 0, 75, 0
2, 9400, Control_c, 0, 64, 24
2, 9416, Control_c, 0, 64, 0
2, 9424, Note_on_c, 0, 57, 81
2, 9428, Note_on_c, 0, 50, 81
2, 9432, Note_on_c, 0, 60, 74
2, 9444, Note_on_c, 0, 50, 0
2, 9444, Note_on_c, 0, 57, 0
2, 9472, Note_on_c, 0, 60, 0
2, 9512, Note_on_c, 0, 66, 65
2, 9512, Note_on_c, 0, 78, 87
2, 9520, Note_on_c, 0, 69, 71
2, 9536, Note_on_c, 0, 69, 0
2, 9548, Note_on_c, 0, 66, 0
2, 9564, Note_on_c, 0, 78, 0
2, 9612, Note_on_c, 0, 65, 75
2, 9616, Note_on_c, 0, 62, 73
2, 9632, Note_on_c, 0, 62, 0
2, 9644, Note_on_c, 0, 65, 0
2, 9692, Note_on_c, 0, 82, 83
2, 9692, Note_on_c, 0, 70, 70
2, 9700, Note_on_c, 0, 74, 75
2, 9716, Note_on_c, 0, 74, 0
2, 9736, Note_on_c, 0, 70, 0
2, 9752, Note_on_c, 0, 82, 0
2, 9784, Note_on_c, 0, 63, 77
2, 9784, Note_on_c, 0, 60, 80
2, 9804, Note_on_c, 0, 60, 0
2, 9844, Note_on_c, 0, 63, 0
2, 9864, Note_on_c, 0, 81, 94
2, 9872, Note_on_c, 0, 72, 77
2, 9872, Note_on_c, 0, 69, 71
2, 9904, Note_on_c, 0, 72, 0
2, 9912, Note_on_c, 0, 69, 0
2, 9912, Note_on_c, 0, 81, 0
2, 9952, Note_on_c, 0, 58, 81
2, 9952, Note_on_c, 0, 62, 93
2, 9960, Note_on_c, 0, 50, 80
2, 9988, Note_on_c, 0, 58, 0
2, 9996, Note_on_c, 0, 62, 0
2, 10004, Note_on_c, 0, 50, 0
2, 10040, Note_on_c, 0, 79, 95
2, 10044, Note_on_c, 0, 70, 79
2, 10044, Note_on_c, 0, 67, 73
2, 10088, Note_on_c, 0, 67, 0
2, 10088, Note_on_c, 0, 79, 0
2, 10100, Note_on_c, 0, 70, 0
2, 10128, Note_on_c, 0, 60, 73
2, 10128, Note_on_c, 0, 57, 73
2, 10132, Note_on_c, 0, 50, 77
2, 10164, Note_on_c, 0, 57, 0
2, 10188, Note_on_c, 0, 50, 0
2, 10188, Note_on_c, 0, 60, 0
2, 10220, Note_on_c, 0, 78, 94
2, 10220, Note_on_c, 0, 66, 74
2, 10232, Note_on_c, 0, 69, 59
2, 10252, Note_on_c, 0, 69, 0
2, 10272, Note_on_c, 0, 66, 0
2, 10292, Note_on_c, 0, 78, 0
2, 10308, Note_on_c, 0, 61, 82
2, 10312, Note_on_c, 0, 50, 75
2, 10312, Note_on_c, 0, 58, 69
2, 10328, Note_on_c, 0, 58, 0
2, 10340, Note_on_c, 0, 61, 0
2, 10348, Note_on_c, 0, 50, 0
2, 10392, Note_on_c, 0, 79, 95
2, 10392, Note_on_c, 0, 67, 75
2, 10396, Note_on_c, 0, 70, 77
2, 10420, Note_on_c, 0, 67, 0
2, 10428, Note_on_c, 0, 70, 0
2, 10444, Note_on_c, 0, 79, 0
2, 10484, Note_on_c, 0, 38, 80
2, 10492, Note_on_c, 0, 50, 93
2, 10504, Control_c, 0, 64, 104
2, 10516, Control_c, 0, 64, 127
2, 10580, Note_on_c, 0, 86, 94
2, 10584, Note_on_c, 0, 78, 74
2, 10584, Note_on_c, 0, 74, 74
2, 10608, Note_on_c, 0, 74, 0
2, 10624, Note_on_c, 0, 78, 0
2, 10632, Note_on_c, 0, 86, 0
2, 10668, Note_on_c, 0, 55, 79
2, 10668, Note_on_c, 0, 63, 85
2, 10668, Note_on_c, 0, 58, 78
2, 10704, Note_on_c, 0, 55, 0
2, 10708, Note_on_c, 0, 58, 0
2, 10708, Note_on_c, 0, 38, 0
2, 10712, Note_on_c, 0, 63, 0
2, 10716, Note_on_c, 0, 50, 0
2, 10756, Note_on_c, 0, 87, 90
2, 10760, Note_on_c, 0, 75, 73
2, 10768, Note_on_c, 0, 79, 70
2, 10780, Note_on_c, 0, 79, 0
2, 10788, Note_on_c, 0, 75, 0
2, 10812, Note_on_c, 0, 87, 0
2, 10844, Note_on_c, 0, 66, 85
2, 10844, Note_on_c, 0, 57, 75
2, 10844, Note_on_c, 0, 60, 73
2, 10860, Note_on_c, 0, 60, 0
2, 10860, Note_on_c, 0, 57, 0
2, 10888, Control_c, 0, 64, 104
2, 10904, Note_on_c, 0, 66, 0
2, 10924, Control_c, 0, 64, 88
2, 10932, Note_on_c, 0, 90, 95
2, 10932, Note_on_c, 0, 78, 82
2, 10940, Note_on_c, 0, 81, 71
2, 10952, Control_c, 0, 64, 72
2, 10956, Note_on_c, 0, 81, 0
2, 10972, Note_on_c, 0, 78, 0
2, 10988, Note_on_c, 0, 90, 0
2, 11000, Control_c, 0, 64, 56
2, 11016, Note_on_c, 0, 62, 80
2, 11020, Note_on_c, 0, 70, 82
2, 11024, Note_on_c, 0, 65, 73
2, 11028, Control_c, 0, 64, 40
2, 11052, Note_on_c, 0, 65, 0
2, 11056, Note_on_c, 0, 62, 0
2, 11092, Control_c, 0, 64, 24
2, 11096, Note_on_c, 0, 70, 0
2, 11104, Note_on_c, 0, 94, 87
2, 11104, Note_on_c, 0, 82, 77
2, 11112, Note_on_c, 0, 86, 78
2, 11120, Control_c, 0, 64, 0
2, 11128, Note_on_c, 0, 86, 0
2, 11156, Note_on_c, 0, 82, 0
2, 11164, Note_on_c, 0, 94, 0
2, 11196, Note_on_c, 0, 69, 88
2, 11200, Note_on_c, 0, 60, 82
2, 11200, Note_on_c, 0, 63, 70
2, 11236, Note_on_c, 0, 69, 0
2, 11240, Note_on_c, 0, 63, 0
2, 11240, Note_on_c, 0, 60, 0
2, 11280, Note_on_c, 0, 93, 101
2, 11284, Note_on_c, 0, 81, 80
2, 11288, Note_on_c, 0, 84, 67
2, 11312, Note_on_c, 0, 84, 0
2, 11328, Note_on_c, 0, 93, 0
2, 11332, Note_on_c, 0, 81, 0
2, 11368, Note_on_c, 0, 62, 83
2, 11368, Note_on_c, 0, 67, 85
2, 11372, Note_on_c, 0, 58, 65
2, 11404, Note_on_c, 0, 62, 0
2, 11420, Note_on_c, 0, 58, 0
2, 11424, Note_on_c, 0, 67, 0
2, 11456, Note_on_c, 0, 91, 97
2, 11460, Note_on_c, 0, 79, 78
2, 11460, Note_on_c, 0, 82, 74
2, 11504, Note_on_c, 0, 79, 0
2, 11504, Note_on_c, 0, 91, 0
2, 11516, Note_on_c, 0, 82, 0
2, 11540, Note_on_c, 0, 66, 81
2, 11548, Note_on_c, 0, 57, 67
2, 11548, Note_on_c, 0, 60, 72
2, 11556, Note_on_c, 0, 56, 31
2, 11572, Note_on_c, 0, 56, 0
2, 11604, Note_on_c, 0, 57, 0
2, 11628, Note_on_c, 0, 60, 0
2, 11628, Note_on_c, 0, 66, 0
2, 11628, Note_on_c, 0, 78, 86
2, 11628, Note_on_c, 0, 90, 95
2, 11636, Note_on_c, 0, 81, 67
2, 11652, Note_on_c, 0, 81, 0
2, 11692, Note_on_c, 0, 78, 0
2, 11712, Note_on_c, 0, 90, 0
2, 11728, Note_on_c, 0, 58, 80
2, 11728, Note_on_c, 0, 67, 94
2, 11736, Note_on_c, 0, 61, 64
2, 11756, Note_on_c, 0, 61, 0
2, 11760, Note_on_c, 0, 67, 0
2, 11772, Note_on_c, 0, 58, 0
2, 11808, Note_on_c, 0, 91, 102
2, 11812, Note_on_c, 0, 82, 85
2, 11812, Note_on_c, 0, 79, 85
2, 11852, Note_on_c, 0, 91, 0
2, 11856, Note_on_c, 0, 82, 0
2, 11860, Note_on_c, 0, 79, 0
2, 11904, Note_on_c, 0, 38, 93
2, 11904, Note_on_c, 0, 50, 108
2, 11920, Control_c, 0, 64, 127
2, 11988, Note_on_c, 0, 86, 96
2, 11996, Note_on_c, 0, 74, 82
2, 11996, Note_on_c, 0, 78, 82
2, 12028, Note_on_c, 0, 74, 0
2, 12044, Note_on_c, 0, 86, 0
2, 12052, Note_on_c, 0, 78, 0
2, 12084, Note_on_c, 0, 63, 88
2, 12084, Note_on_c, 0, 55, 81
2, 12084, Note_on_c, 0, 58, 77
2, 12108, Note_on_c, 0, 55, 0
2, 12120, Note_on_c, 0, 58, 0
2, 12132, Note_on_c, 0, 63, 0
2, 12144, Note_on_c, 0, 38, 0
2, 12160, Note_on_c, 0, 50, 0
2, 12164, Note_on_c, 0, 87, 94
2, 12164, Note_on_c, 0, 75, 79
2, 12176, Note_on_c, 0, 79, 79
2, 12188, Note_on_c, 0, 79, 0
2, 12200, Note_on_c, 0, 75, 0
2, 12220, Note_on_c, 0, 87, 0
2, 12252, Note_on_c, 0, 57, 77
2, 12252, Note_on_c, 0, 66, 81
2, 12256, Note_on_c, 0, 60, 78
2, 12268, Note_on_c, 0, 57, 0
2, 12272, Note_on_c, 0, 60, 0
2, 12312, Note_on_c, 0, 66, 0
2, 12336, Control_c, 0, 64, 104
2, 12340, Note_on_c, 0, 90, 94
2, 12340, Note_on_c, 0, 78, 82
2, 12344, Note_on_c, 0, 81, 80
2, 12348, Control_c, 0, 64, 88
2, 12356, Control_c, 0, 64, 72
2, 12360, Note_on_c, 0, 81, 0
2, 12364, Control_c, 0, 64, 56
2, 12376, Note_on_c, 0, 78, 0
2, 12376, Control_c, 0, 64, 40
2, 12392, Note_on_c, 0, 90, 0
2, 12392, Control_c, 0, 64, 24
2, 12420, Control_c, 0, 64, 0
2, 12424, Note_on_c, 0, 70, 88
2, 12424, Note_on_c, 0, 62, 88
2, 12432, Note_on_c, 0, 65, 78
2, 12456, Note_on_c, 0, 65, 0
2, 12464, Note_on_c, 0, 62, 0
2, 12500, Note_on_c, 0, 70, 0
2, 12516, Note_on_c, 0, 94, 93
2, 12520, Note_on_c, 0, 82, 82
2, 12520, Note_on_c, 0, 86, 86
2, 12540, Note_on_c, 0, 86, 0
2, 12580, Note_on_c, 0, 82, 0
2, 12584, Note_on_c, 0, 94, 0
2, 12608, Note_on_c, 0, 60, 82
2, 12608, Note_on_c, 0, 69, 92
2, 12608, Note_on_c, 0, 63, 71
2, 12644, Note_on_c, 0, 60, 0
2, 12660, Note_on_c, 0, 63, 0
2, 12660, Note_on_c, 0, 69, 0
2, 12688, Note_on_c, 0, 93, 106
2, 12696, Note_on_c, 0, 84, 81
2, 12696, Note_on_c, 0, 81, 80
2, 12732, Note_on_c, 0, 84, 0
2, 12744, Note_on_c, 0, 93, 0
2, 12752, Note_on_c, 0, 81, 0
2, 12780, Note_on_c, 0, 62, 88
2, 12780, Note_on_c, 0, 58, 77
2, 12780, Note_on_c, 0, 67, 92
2, 12820, Note_on_c, 0, 62, 0
2, 12828, Note_on_c, 0, 58, 0
2, 12832, Note_on_c, 0, 67, 0
2, 12864, Note_on_c, 0, 91, 101
2, 12868, Note_on_c, 0, 82, 83
2, 12868, Note_on_c, 0, 79, 87
2, 12916, Note_on_c, 0, 91, 0
2, 12920, Note_on_c, 0, 79, 0
2, 12940, Note_on_c, 0, 82, 0
2, 12952, Note_on_c, 0, 66, 88
2, 12960, Note_on_c, 0, 57, 80
2, 12960, Note_on_c, 0, 60, 81
2, 13000, Note_on_c, 0, 57, 0
2, 13004, Note_on_c, 0, 60, 0
2, 13040, Note_on_c, 0, 90, 93
2, 13044, Note_on_c, 0, 78, 88
2, 13048, Note_on_c, 0, 66, 0
2, 13052, Note_on_c, 0, 81, 72
2, 13068, Note_on_c, 0, 81, 0
2, 13104, Note_on_c, 0, 78, 0
2, 13128, Note_on_c, 0, 90, 0
2, 13132, Note_on_c, 0, 58, 78
2, 13132, Note_on_c, 0, 61, 77
2, 13136, Note_on_c, 0, 67, 93
2, 13172, Note_on_c, 0, 61, 0
2, 13176, Note_on_c, 0, 67, 0
2, 13176, Note_on_c, 0, 58, 0
2, 13192, Control_c, 0, 64, 72
2, 13200, Control_c, 0, 64, 127
2, 13220, Note_on_c, 0, 91, 103
2, 13220, Note_on_c, 0, 82, 86
2, 13220, Note_on_c, 0, 79, 97
2, 13252, Note_on_c, 0, 79, 0
2, 13252, Note_on_c, 0, 82, 0
2, 13252, Note_on_c, 0, 91, 0
2, 13528, Control_c, 0, 64, 104
2, 13548, Control_c, 0, 64, 88
2, 13564, Control_c, 0, 64, 72
2, 13576, Control_c, 0, 64, 56
2, 13584, Control_c, 0, 64, 40
2, 13592, Control_c, 0, 64, 24
2, 13600, Control_c, 0, 64, 0
2, 13988, Note_on_c, 0, 62, 75
2, 14020, Note_on_c, 0, 62, 0
2, 14064, Note_on_c, 0, 62, 83
2, 14096, Note_on_c, 0, 62, 0
2, 14136, Note_on_c, 0, 62, 69
2, 14172, Note_on_c, 0, 62, 0
2, 14216, Note_on_c, 0, 62, 78
2, 14220, Note_on_c, 0, 60, 57
2, 14224, Note_on_c, 0, 57, 54
2, 14228, Note_on_c, 0, 50, 57
2, 14244, Note_on_c, 0, 60, 0
2, 14256, Note_on_c, 0, 62, 0
2, 14256, Note_on_c, 0, 57, 0
2, 14256, Note_on_c, 0, 50, 0
2, 14292, Note_on_c, 0, 64, 85
2, 14328, Note_on_c, 0, 64, 0
2, 14360, Note_on_c, 0, 66, 78
2, 14404, Note_on_c, 0, 66, 0
2, 14432, Note_on_c, 0, 67, 83
2, 14468, Note_on_c, 0, 67, 0
2, 14508, Note_on_c, 0, 67, 78
2, 14540, Note_on_c, 0, 67, 0
2, 14580, Note_on_c, 0, 67, 71
2, 14620, Note_on_c, 0, 67, 0
2, 14656, Note_on_c, 0, 67, 77
2, 14656, Note_on_c, 0, 58, 62
2, 14656, Note_on_c, 0, 62, 63
2, 14656, Note_on_c, 0, 50, 69
2, 14676, Note_on_c, 0, 50, 0
2, 14688, Note_on_c, 0, 62, 0
2, 14688, Note_on_c, 0, 58, 0
2, 14704, Note_on_c, 0, 67, 0
2, 14740, Note_on_c, 0, 69, 92
2, 14784, Note_on_c, 0, 69, 0
2, 14804, Note_on_c, 0, 70, 85
2, 14864, Note_on_c, 0, 70, 0
2, 14880, Note_on_c, 0, 69, 89
2, 14932, Note_on_c, 0, 69, 0
2, 14960, Note_on_c, 0, 70, 81
2, 15004, Note_on_c, 0, 70, 0
2, 15024, Note_on_c, 0, 69, 93
2, 15060, Note_on_c, 0, 50, 71
2, 15072, Note_on_c, 0, 69, 0
2, 15080, Note_on_c, 0, 54, 70
2, 15100, Note_on_c, 0, 60, 57
2, 15104, Note_on_c, 0, 50, 0
2, 15112, Note_on_c, 0, 69, 74
2, 15124, Note_on_c, 0, 63, 86
2, 15128, Note_on_c, 0, 54, 0
2, 15136, Note_on_c, 0, 60, 0
2, 15152, Note_on_c, 0, 63, 0
2, 15168, Note_on_c, 0, 69, 0
2, 15188, Note_on_c, 0, 70, 83
2, 15236, Note_on_c, 0, 70, 0
2, 15264, Note_on_c, 0, 69, 89
2, 15308, Note_on_c, 0, 69, 0
2, 15340, Note_on_c, 0, 67, 86
2, 15388, Note_on_c, 0, 67, 0
2, 15416, Note_on_c, 0, 70, 85
2, 15476, Note_on_c, 0, 70, 0
2, 15484, Note_on_c, 0, 67, 89
2, 15524, Note_on_c, 0, 67, 0
2, 15568, Note_on_c, 0, 58, 72
2, 15572, Note_on_c, 0, 63, 97
2, 15576, Note_on_c, 0, 50, 69
2, 15576, Note_on_c, 0, 55, 70
2, 15596, Note_on_c, 0, 50, 0
2, 15600, Note_on_c, 0, 55, 0
2, 15604, Note_on_c, 0, 58, 0
2, 15608, Note_on_c, 0, 63, 0
2, 15648, Note_on_c, 0, 63, 83
2, 15692, Note_on_c, 0, 63, 0
2, 15720, Note_on_c, 0, 63, 78
2, 15764, Note_on_c, 0, 63, 0
2, 15812, Note_on_c, 0, 62, 89
2, 15840, Note_on_c, 0, 62, 0
2, 15892, Note_on_c, 0, 62, 89
2, 15924, Note_on_c, 0, 62, 0
2, 15968, Note_on_c, 0, 62, 81
2, 16004, Note_on_c, 0, 62, 0
2, 16040, Note_on_c, 0, 62, 75
2, 16044, Note_on_c, 0, 57, 63
2, 16044, Note_on_c, 0, 60, 59
2, 16044, Note_on_c, 0, 50, 64
2, 16064, Note_on_c, 0, 57, 0
2, 16068, Note_on_c, 0, 50, 0
2, 16072, Note_on_c, 0, 60, 0
2, 16088, Note_on_c, 0, 62, 0
2, 16120, Note_on_c, 0, 64, 86
2, 16156, Note_on_c, 0, 64, 0
2, 16192, Note_on_c, 0, 66, 81
2, 16232, Note_on_c, 0, 66, 0
2, 16268, Note_on_c, 0, 67, 82
2, 16304, Note_on_c, 0, 67, 0
2, 16344, Note_on_c, 0, 67, 80
2, 16380, Note_on_c, 0, 67, 0
2, 16420, Note_on_c, 0, 67, 71
2, 16460, Note_on_c, 0, 67, 0
2, 16496, Note_on_c, 0, 58, 62
2, 16500, Note_on_c, 0, 62, 67
2, 16500, Note_on_c, 0, 67, 75
2, 16504, Note_on_c, 0, 50, 64
2, 16524, Note_on_c, 0, 50, 0
2, 16532, Note_on_c, 0, 62, 0
2, 16536, Note_on_c, 0, 58, 0
2, 16548, Note_on_c, 0, 67, 0
2, 16580, Note_on_c, 0, 69, 92
2, 16620, Note_on_c, 0, 69, 0
2, 16652, Note_on_c, 0, 70, 83
2, 16696, Note_on_c, 0, 70, 0
2, 16724, Note_on_c, 0, 69, 87
2, 16772, Note_on_c, 0, 69, 0
2, 16796, Note_on_c, 0, 70, 83
2, 16840, Note_on_c, 0, 70, 0
2, 16868, Note_on_c, 0, 69, 95
2, 16892, Note_on_c, 0, 50, 63
2, 16916, Note_on_c, 0, 69, 0
2, 16916, Note_on_c, 0, 54, 58
2, 16940, Note_on_c, 0, 50, 0
2, 16940, Note_on_c, 0, 60, 47
2, 16948, Note_on_c, 0, 69, 80
2, 16964, Note_on_c, 0, 60, 0
2, 16964, Note_on_c, 0, 54, 0
2, 16964, Note_on_c, 0, 63, 57
2, 16980, Note_on_c, 0, 63, 0
2, 17000, Note_on_c, 0, 69, 0
2, 17020, Note_on_c, 0, 70, 87
2, 17072, Note_on_c, 0, 70, 0
2, 17096, Note_on_c, 0, 69, 94
2, 17144, Note_on_c, 0, 69, 0
2, 17172, Note_on_c, 0, 67, 94
2, 17180, Note_on_c, 0, 62, 79
2, 17184, Note_on_c, 0, 58, 58
2, 17188, Note_on_c, 0, 55, 64
2, 17200, Note_on_c, 0, 62, 0
2, 17204, Note_on_c, 0, 58, 0
2, 17208, Note_on_c, 0, 55, 0
2, 17224, Note_on_c, 0, 67, 0
2, 17248, Note_on_c, 0, 70, 81
2, 17308, Note_on_c, 0, 70, 0
2, 17320, Note_on_c, 0, 74, 98
2, 17400, Note_on_c, 0, 74, 0
2, 17412, Note_on_c, 0, 67, 93
2, 17412, Note_on_c, 0, 79, 106
2, 17420, Note_on_c, 0, 55, 88
2, 17424, Note_on_c, 0, 43, 72
2, 17440, Note_on_c, 0, 43, 0
2, 17448, Note_on_c, 0, 67, 0
2, 17448, Control_c, 0, 64, 127
2, 17460, Note_on_c, 0, 55, 0
2, 17472, Note_on_c, 0, 79, 0
2, 17588, Control_c, 0, 64, 104
2, 17600, Control_c, 0, 64, 24
2, 17608, Control_c, 0, 64, 0
2, 17668, Note_on_c, 0, 86, 101
2, 17668, Note_on_c, 0, 74, 98
2, 17672, Note_on_c, 0, 50, 71
2, 17672, Note_on_c, 0, 62, 71
2, 17688, Note_on_c, 0, 50, 0
2, 17692, Control_c, 0, 64, 127
2, 17716, Note_on_c, 0, 86, 0
2, 17720, Note_on_c, 0, 74, 0
2, 17724, Note_on_c, 0, 62, 0
2, 17896, Note_on_c, 0, 74, 78
2, 17896, Note_on_c, 0, 69, 60
2, 17900, Note_on_c, 0, 72, 52
2, 17904, Note_on_c, 0, 62, 49
2, 17920, Note_on_c, 0, 69, 0
2, 17924, Note_on_c, 0, 62, 0
2, 17928, Note_on_c, 0, 72, 0
2, 17940, Note_on_c, 0, 74, 0
2, 17944, Control_c, 0, 64, 88
2, 17952, Control_c, 0, 64, 72
2, 17960, Control_c, 0, 64, 56
2, 17968, Note_on_c, 0, 76, 92
2, 17972, Control_c, 0, 64, 40
2, 17980, Control_c, 0, 64, 24
2, 17988, Control_c, 0, 64, 0
2, 18012, Note_on_c, 0, 76, 0
2, 18044, Note_on_c, 0, 78, 89
2, 18088, Note_on_c, 0, 78, 0
2, 18120, Note_on_c, 0, 79, 86
2, 18152, Note_on_c, 0, 79, 0
2, 18192, Note_on_c, 0, 79, 83
2, 18228, Note_on_c, 0, 79, 0
2, 18268, Note_on_c, 0, 79, 83
2, 18308, Note_on_c, 0, 79, 0
2, 18348, Note_on_c, 0, 79, 80
2, 18352, Note_on_c, 0, 70, 73
2, 18352, Note_on_c, 0, 74, 73
2, 18360, Note_on_c, 0, 62, 64
2, 18380, Note_on_c, 0, 62, 0
2, 18388, Note_on_c, 0, 70, 0
2, 18392, Note_on_c, 0, 74, 0
2, 18396, Note_on_c, 0, 79, 0
2, 18424, Note_on_c, 0, 81, 95
2, 18472, Note_on_c, 0, 81, 0
2, 18496, Note_on_c, 0, 82, 83
2, 18544, Note_on_c, 0, 82, 0
2, 18568, Note_on_c, 0, 81, 93
2, 18616, Note_on_c, 0, 81, 0
2, 18640, Note_on_c, 0, 82, 89
2, 18688, Note_on_c, 0, 82, 0
2, 18712, Note_on_c, 0, 81, 94
2, 18732, Note_on_c, 0, 62, 72
2, 18756, Note_on_c, 0, 66, 62
2, 18760, Note_on_c, 0, 81, 0
2, 18784, Note_on_c, 0, 62, 0
2, 18784, Note_on_c, 0, 72, 60
2, 18788, Control_c, 0, 64, 24
2, 18796, Note_on_c, 0, 81, 80
2, 18796, Control_c, 0, 64, 72
2, 18800, Note_on_c, 0, 66, 0
2, 18804, Control_c, 0, 64, 127
2, 18812, Note_on_c, 0, 75, 81
2, 18824, Note_on_c, 0, 72, 0
2, 18832, Note_on_c, 0, 75, 0
2, 18848, Note_on_c, 0, 81, 0
2, 18876, Note_on_c, 0, 82, 89
2, 18892, Control_c, 0, 64, 88
2, 18900, Control_c, 0, 64, 72
2, 18908, Control_c, 0, 64, 40
2, 18916, Control_c, 0, 64, 24
2, 18924, Control_c, 0, 64, 0
2, 18928, Note_on_c, 0, 82, 0
2, 18956, Note_on_c, 0, 81, 93
2, 19000, Note_on_c, 0, 81, 0
2, 19028, Note_on_c, 0, 79, 94
2, 19076, Note_on_c, 0, 79, 0
2, 19104, Note_on_c, 0, 82, 83
2, 19164, Note_on_c, 0, 82, 0
2, 19172, Note_on_c, 0, 79, 94
2, 19212, Note_on_c, 0, 79, 0
2, 19252, Note_on_c, 0, 70, 62
2, 19256, Note_on_c, 0, 67, 60
2, 19260, Note_on_c, 0, 75, 85
2, 19288, Note_on_c, 0, 75, 0
2, 19288, Note_on_c, 0, 67, 0
2, 19288, Note_on_c, 0, 70, 0
2, 19340, Note_on_c, 0, 75, 98
2, 19380, Note_on_c, 0, 75, 0
2, 19412, Note_on_c, 0, 75, 85
2, 19452, Note_on_c, 0, 75, 0
2, 19500, Note_on_c, 0, 74, 78
2, 19528, Note_on_c, 0, 74, 0
2, 19572, Note_on_c, 0, 74, 93
2, 19608, Note_on_c, 0, 74, 0
2, 19648, Note_on_c, 0, 74, 83
2, 19684, Note_on_c, 0, 74, 0
2, 19732, Note_on_c, 0, 74, 78
2, 19736, Note_on_c, 0, 69, 69
2, 19736, Note_on_c, 0, 62, 60
2, 19740, Note_on_c, 0, 72, 58
2, 19744, Control_c, 0, 64, 24
2, 19756, Control_c, 0, 64, 56
2, 19760, Note_on_c, 0, 62, 0
2, 19764, Note_on_c, 0, 69, 0
2, 19764, Control_c, 0, 64, 72
2, 19768, Note_on_c, 0, 72, 0
2, 19772, Control_c, 0, 64, 88
2, 19776, Note_on_c, 0, 74, 0
2, 19808, Note_on_c, 0, 76, 90
2, 19812, Control_c, 0, 64, 40
2, 19820, Control_c, 0, 64, 24
2, 19828, Control_c, 0, 64, 0
2, 19844, Note_on_c, 0, 76, 0
2, 19880, Note_on_c, 0, 78, 89
2, 19924, Note_on_c, 0, 78, 0
2, 19956, Note_on_c, 0, 79, 85
2, 19992, Note_on_c, 0, 79, 0
2, 20028, Note_on_c, 0, 79, 90
2, 20060, Note_on_c, 0, 79, 0
2, 20108, Note_on_c, 0, 79, 86
2, 20144, Note_on_c, 0, 79, 0
2, 20184, Note_on_c, 0, 79, 88
2, 20188, Note_on_c, 0, 70, 78
2, 20188, Note_on_c, 0, 74, 77
2, 20196, Note_on_c, 0, 62, 58
2, 20220, Note_on_c, 0, 62, 0
2, 20224, Note_on_c, 0, 74, 0
2, 20224, Note_on_c, 0, 70, 0
2, 20232, Note_on_c, 0, 79, 0
2, 20260, Note_on_c, 0, 81, 100
2, 20308, Note_on_c, 0, 81, 0
2, 20332, Note_on_c, 0, 82, 89
2, 20384, Note_on_c, 0, 82, 0
2, 20404, Note_on_c, 0, 81, 94
2, 20456, Note_on_c, 0, 81, 0
2, 20476, Note_on_c, 0, 82, 92
2, 20528, Note_on_c, 0, 82, 0
2, 20548, Note_on_c, 0, 81, 94
2, 20580, Note_on_c, 0, 62, 63
2, 20600, Note_on_c, 0, 81, 0
2, 20608, Note_on_c, 0, 66, 44
2, 20612, Note_on_c, 0, 72, 25
2, 20620, Note_on_c, 0, 62, 0
2, 20628, Note_on_c, 0, 81, 93
2, 20636, Note_on_c, 0, 66, 0
2, 20636, Note_on_c, 0, 75, 90
2, 20652, Note_on_c, 0, 72, 0
2, 20660, Note_on_c, 0, 75, 0
2, 20684, Note_on_c, 0, 81, 0
2, 20704, Note_on_c, 0, 82, 94
2, 20752, Note_on_c, 0, 82, 0
2, 20776, Note_on_c, 0, 81, 96
2, 20828, Note_on_c, 0, 81, 0
2, 20852, Note_on_c, 0, 79, 94
2, 20860, Note_on_c, 0, 70, 69
2, 20860, Note_on_c, 0, 74, 69
2, 20872, Note_on_c, 0, 67, 54
2, 20876, Note_on_c, 0, 74, 0
2, 20888, Note_on_c, 0, 67, 0
2, 20888, Note_on_c, 0, 70, 0
2, 20916, Note_on_c, 0, 79, 0
2, 20924, Note_on_c, 0, 82, 86
2, 20992, Note_on_c, 0, 82, 0
2, 21004, Note_on_c, 0, 86, 103
2, 21076, Note_on_c, 0, 86, 0
2, 21088, Note_on_c, 0, 79, 97
2, 21092, Note_on_c, 0, 91, 113
2, 21092, Note_on_c, 0, 67, 86
2, 21096, Note_on_c, 0, 55, 86
2, 21108, Control_c, 0, 64, 88
2, 21120, Control_c, 0, 64, 127
2, 21124, Note_on_c, 0, 79, 0
2, 21132, Note_on_c, 0, 55, 0
2, 21132, Note_on_c, 0, 67, 0
2, 21148, Note_on_c, 0, 91, 0
2, 21244, Control_c, 0, 64, 72
2, 21252, Control_c, 0, 64, 24
2, 21260, Control_c, 0, 64, 0
2, 21320, Note_on_c, 0, 86, 98
2, 21332, Note_on_c, 0, 50, 75
2, 21336, Note_on_c, 0, 62, 67
2, 21344, Control_c, 0, 64, 56
2, 21348, Note_on_c, 0, 50, 0
2, 21352, Control_c, 0, 64, 127
2, 21372, Note_on_c, 0, 62, 0
2, 21388, Note_on_c, 0, 86, 0
2, 21400, Note_on_c, 0, 98, 93
2, 21460, Note_on_c, 0, 98, 0
2, 21468, Note_on_c, 0, 88, 94
2, 21532, Note_on_c, 0, 88, 0
2, 21540, Note_on_c, 0, 74, 75
2, 21548, Note_on_c, 0, 69, 69
2, 21548, Note_on_c, 0, 72, 66
2, 21552, Note_on_c, 0, 98, 101
2, 21564, Note_on_c, 0, 72, 0
2, 21572, Note_on_c, 0, 74, 0
2, 21588, Note_on_c, 0, 69, 0
2, 21608, Note_on_c, 0, 98, 0
2, 21624, Note_on_c, 0, 90, 88
2, 21624, Control_c, 0, 64, 88
2, 21632, Control_c, 0, 64, 72
2, 21640, Control_c, 0, 64, 56
2, 21648, Control_c, 0, 64, 40
2, 21660, Control_c, 0, 64, 24
2, 21668, Control_c, 0, 64, 0
2, 21676, Note_on_c, 0, 90, 0
2, 21692, Note_on_c, 0, 98, 97
2, 21748, Note_on_c, 0, 98, 0
2, 21764, Note_on_c, 0, 91, 92
2, 21768, Note_on_c, 0, 86, 85
2, 21772, Note_on_c, 0, 50, 71
2, 21780, Note_on_c, 0, 62, 67
2, 21780, Control_c, 0, 64, 24
2, 21792, Note_on_c, 0, 50, 0
2, 21792, Control_c, 0, 64, 88
2, 21800, Control_c, 0, 64, 127
2, 21820, Note_on_c, 0, 86, 0
2, 21824, Note_on_c, 0, 91, 0
2, 21824, Note_on_c, 0, 62, 0
2, 21836, Note_on_c, 0, 98, 94
2, 21900, Note_on_c, 0, 98, 0
2, 21912, Note_on_c, 0, 93, 92
2, 21912, Note_on_c, 0, 86, 80
2, 21940, Control_c, 0, 64, 104
2, 21948, Control_c, 0, 64, 72
2, 21956, Control_c, 0, 64, 56
2, 21968, Note_on_c, 0, 86, 0
2, 21968, Control_c, 0, 64, 40
2, 21972, Note_on_c, 0, 93, 0
2, 21976, Control_c, 0, 64, 24
2, 21984, Note_on_c, 0, 98, 98
2, 21984, Control_c, 0, 64, 0
2, 21992, Note_on_c, 0, 67, 60
2, 21992, Note_on_c, 0, 74, 71
2, 21996, Note_on_c, 0, 70, 59
2, 22016, Note_on_c, 0, 74, 0
2, 22028, Note_on_c, 0, 70, 0
2, 22036, Note_on_c, 0, 67, 0
2, 22044, Note_on_c, 0, 98, 0
2, 22060, Note_on_c, 0, 94, 85
2, 22060, Note_on_c, 0, 86, 83
2, 22116, Note_on_c, 0, 86, 0
2, 22120, Note_on_c, 0, 94, 0
2, 22128, Note_on_c, 0, 98, 100
2, 22188, Note_on_c, 0, 98, 0
2, 22204, Note_on_c, 0, 93, 101
2, 22204, Note_on_c, 0, 50, 75
2, 22208, Note_on_c, 0, 86, 83
2, 22208, Control_c, 0, 64, 104
2, 22212, Note_on_c, 0, 62, 67
2, 22216, Control_c, 0, 64, 127
2, 22224, Note_on_c, 0, 50, 0
2, 22260, Note_on_c, 0, 93, 0
2, 22260, Note_on_c, 0, 62, 0
2, 22268, Note_on_c, 0, 86, 0
2, 22276, Note_on_c, 0, 98, 93
2, 22336, Note_on_c, 0, 98, 0
2, 22352, Note_on_c, 0, 94, 85
2, 22356, Note_on_c, 0, 86, 75
2, 22412, Note_on_c, 0, 94, 0
2, 22416, Note_on_c, 0, 86, 0
2, 22424, Note_on_c, 0, 98, 96
2, 22440, Note_on_c, 0, 74, 71
2, 22444, Note_on_c, 0, 72, 65
2, 22448, Note_on_c, 0, 66, 50
2, 22460, Note_on_c, 0, 72, 0
2, 22472, Note_on_c, 0, 74, 0
2, 22476, Control_c, 0, 64, 104
2, 22484, Note_on_c, 0, 98, 0
2, 22488, Control_c, 0, 64, 88
2, 22492, Note_on_c, 0, 66, 0
2, 22496, Control_c, 0, 64, 72
2, 22500, Note_on_c, 0, 86, 78
2, 22500, Note_on_c, 0, 93, 94
2, 22508, Control_c, 0, 64, 56
2, 22516, Control_c, 0, 64, 40
2, 22524, Control_c, 0, 64, 24
2, 22544, Control_c, 0, 64, 0
2, 22548, Note_on_c, 0, 93, 0
2, 22568, Note_on_c, 0, 98, 96
2, 22592, Note_on_c, 0, 86, 0
2, 22636, Note_on_c, 0, 98, 0
2, 22648, Note_on_c, 0, 86, 73
2, 22652, Note_on_c, 0, 91, 92
2, 22652, Note_on_c, 0, 50, 75
2, 22656, Note_on_c, 0, 62, 59
2, 22656, Control_c, 0, 64, 56
2, 22664, Control_c, 0, 64, 127
2, 22672, Note_on_c, 0, 50, 0
2, 22700, Note_on_c, 0, 62, 0
2, 22708, Note_on_c, 0, 91, 0
2, 22720, Note_on_c, 0, 98, 97
2, 22740, Note_on_c, 0, 86, 0
2, 22784, Note_on_c, 0, 98, 0
2, 22796, Note_on_c, 0, 94, 90
2, 22860, Note_on_c, 0, 94, 0
2, 22868, Note_on_c, 0, 98, 94
2, 22884, Note_on_c, 0, 67, 58
2, 22884, Note_on_c, 0, 74, 69
2, 22888, Note_on_c, 0, 70, 60
2, 22904, Note_on_c, 0, 74, 0
2, 22904, Control_c, 0, 64, 104
2, 22916, Control_c, 0, 64, 88
2, 22920, Note_on_c, 0, 67, 0
2, 22924, Note_on_c, 0, 70, 0
2, 22924, Control_c, 0, 64, 72
2, 22928, Note_on_c, 0, 98, 0
2, 22932, Control_c, 0, 64, 56
2, 22944, Note_on_c, 0, 87, 85
2, 22952, Control_c, 0, 64, 40
2, 22964, Control_c, 0, 64, 24
2, 22980, Control_c, 0, 64, 0
2, 23012, Note_on_c, 0, 87, 0
2, 23016, Note_on_c, 0, 98, 86
2, 23072, Note_on_c, 0, 98, 0
2, 23084, Note_on_c, 0, 86, 89
2, 23088, Note_on_c, 0, 50, 73
2, 23092, Note_on_c, 0, 62, 67
2, 23092, Control_c, 0, 64, 72
2, 23100, Control_c, 0, 64, 127
2, 23108, Note_on_c, 0, 50, 0
2, 23140, Note_on_c, 0, 62, 0
2, 23140, Note_on_c, 0, 86, 0
2, 23160, Note_on_c, 0, 98, 94
2, 23216, Note_on_c, 0, 98, 0
2, 23224, Note_on_c, 0, 88, 83
2, 23276, Note_on_c, 0, 88, 0
2, 23292, Note_on_c, 0, 98, 98
2, 23300, Note_on_c, 0, 74, 79
2, 23304, Note_on_c, 0, 72, 75
2, 23316, Note_on_c, 0, 69, 51
2, 23324, Note_on_c, 0, 72, 0
2, 23324, Note_on_c, 0, 74, 0
2, 23332, Control_c, 0, 64, 104
2, 23344, Note_on_c, 0, 69, 0
2, 23344, Control_c, 0, 64, 88
2, 23356, Note_on_c, 0, 98, 0
2, 23360, Note_on_c, 0, 90, 87
2, 23364, Control_c, 0, 64, 72
2, 23368, Control_c, 0, 64, 56
2, 23388, Control_c, 0, 64, 40
2, 23396, Control_c, 0, 64, 24
2, 23408, Control_c, 0, 64, 0
2, 23416, Note_on_c, 0, 90, 0
2, 23424, Note_on_c, 0, 98, 95
2, 23484, Note_on_c, 0, 98, 0
2, 23496, Note_on_c, 0, 86, 89
2, 23500, Note_on_c, 0, 91, 86
2, 23508, Note_on_c, 0, 50, 72
2, 23508, Control_c, 0, 64, 72
2, 23516, Note_on_c, 0, 62, 59
2, 23520, Control_c, 0, 64, 127
2, 23528, Note_on_c, 0, 50, 0
2, 23552, Note_on_c, 0, 86, 0
2, 23552, Note_on_c, 0, 91, 0
2, 23552, Note_on_c, 0, 62, 0
2, 23560, Note_on_c, 0, 98, 93
2, 23624, Note_on_c, 0, 98, 0
2, 23636, Note_on_c, 0, 93, 88
2, 23636, Note_on_c, 0, 86, 78
2, 23688, Note_on_c, 0, 86, 0
2, 23692, Note_on_c, 0, 93, 0
2, 23704, Note_on_c, 0, 98, 95
2, 23724, Note_on_c, 0, 67, 58
2, 23724, Note_on_c, 0, 74, 66
2, 23728, Note_on_c, 0, 70, 60
2, 23744, Note_on_c, 0, 74, 0
2, 23752, Control_c, 0, 64, 104
2, 23760, Note_on_c, 0, 70, 0
2, 23760, Note_on_c, 0, 67, 0
2, 23760, Control_c, 0, 64, 88
2, 23768, Note_on_c, 0, 98, 0
2, 23768, Control_c, 0, 64, 72
2, 23780, Control_c, 0, 64, 56
2, 23784, Note_on_c, 0, 86, 80
2, 23788, Note_on_c, 0, 94, 81
2, 23788, Control_c, 0, 64, 40
2, 23796, Control_c, 0, 64, 24
2, 23808, Control_c, 0, 64, 0
2, 23836, Note_on_c, 0, 86, 0
2, 23844, Note_on_c, 0, 94, 0
2, 23844, Note_on_c, 0, 98, 97
2, 23904, Note_on_c, 0, 98, 0
2, 23920, Note_on_c, 0, 93, 103
2, 23920, Note_on_c, 0, 86, 87
2, 23928, Note_on_c, 0, 50, 77
2, 23928, Control_c, 0, 64, 40
2, 23932, Note_on_c, 0, 62, 72
2, 23936, Control_c, 0, 64, 127
2, 23944, Note_on_c, 0, 50, 0
2, 23976, Note_on_c, 0, 62, 0
2, 23980, Note_on_c, 0, 93, 0
2, 23988, Note_on_c, 0, 86, 0
2, 23996, Note_on_c, 0, 98, 94
2, 24060, Note_on_c, 0, 98, 0
2, 24064, Note_on_c, 0, 94, 87
2, 24072, Note_on_c, 0, 86, 81
2, 24128, Note_on_c, 0, 94, 0
2, 24132, Control_c, 0, 64, 88
2, 24136, Note_on_c, 0, 86, 0
2, 24140, Note_on_c, 0, 98, 95
2, 24144, Control_c, 0, 64, 72
2, 24152, Note_on_c, 0, 74, 74
2, 24152, Control_c, 0, 64, 56
2, 24156, Note_on_c, 0, 72, 70
2, 24160, Control_c, 0, 64, 40
2, 24164, Note_on_c, 0, 66, 46
2, 24168, Control_c, 0, 64, 24
2, 24176, Note_on_c, 0, 72, 0
2, 24180, Note_on_c, 0, 74, 0
2, 24180, Control_c, 0, 64, 0
2, 24196, Note_on_c, 0, 98, 0
2, 24200, Note_on_c, 0, 66, 0
2, 24208, Note_on_c, 0, 93, 95
2, 24216, Note_on_c, 0, 86, 56
2, 24268, Note_on_c, 0, 93, 0
2, 24280, Note_on_c, 0, 98, 101
2, 24284, Note_on_c, 0, 86, 0
2, 24340, Note_on_c, 0, 98, 0
2, 24352, Note_on_c, 0, 94, 97
2, 24356, Note_on_c, 0, 86, 79
2, 24356, Control_c, 0, 64, 56
2, 24360, Note_on_c, 0, 50, 72
2, 24364, Note_on_c, 0, 62, 69
2, 24364, Control_c, 0, 64, 127
2, 24380, Note_on_c, 0, 50, 0
2, 24408, Note_on_c, 0, 94, 0
2, 24412, Note_on_c, 0, 62, 0
2, 24420, Note_on_c, 0, 86, 0
2, 24424, Note_on_c, 0, 98, 98
2, 24488, Note_on_c, 0, 98, 0
2, 24492, Note_on_c, 0, 93, 106
2, 24512, Note_on_c, 0, 86, 42
2, 24568, Note_on_c, 0, 86, 0
2, 24568, Note_on_c, 0, 93, 0
2, 24572, Note_on_c, 0, 98, 101
2, 24576, Note_on_c, 0, 74, 58
2, 24580, Note_on_c, 0, 72, 58
2, 24584, Note_on_c, 0, 66, 51
2, 24596, Note_on_c, 0, 74, 0
2, 24600, Note_on_c, 0, 72, 0
2, 24616, Note_on_c, 0, 66, 0
2, 24628, Note_on_c, 0, 98, 0
2, 24636, Note_on_c, 0, 86, 102
2, 24700, Note_on_c, 0, 98, 98
2, 24712, Note_on_c, 0, 86, 0
2, 24748, Note_on_c, 0, 98, 0
2, 24796, Note_on_c, 0, 99, 109
2, 24800, Note_on_c, 0, 87, 104
2, 24828, Note_on_c, 0, 87, 0
2, 24860, Note_on_c, 0, 99, 0
2, 24864, Note_on_c, 0, 85, 97
2, 24868, Control_c, 0, 64, 104
2, 24876, Control_c, 0, 64, 88
2, 24884, Control_c, 0, 64, 56
2, 24896, Note_on_c, 0, 85, 0
2, 24896, Control_c, 0, 64, 40
2, 24904, Control_c, 0, 64, 24
2, 24916, Control_c, 0, 64, 0
2, 24932, Note_on_c, 0, 98, 102
2, 24940, Note_on_c, 0, 86, 65
2, 24944, Note_on_c, 0, 88, 72
2, 24956, Note_on_c, 0, 88, 0
2, 24960, Note_on_c, 0, 86, 0
2, 24972, Note_on_c, 0, 98, 0
2, 25000, Note_on_c, 0, 81, 93
2, 25032, Note_on_c, 0, 81, 0
2, 25060, Note_on_c, 0, 94, 98
2, 25064, Note_on_c, 0, 82, 102
2, 25116, Note_on_c, 0, 82, 0
2, 25132, Note_on_c, 0, 94, 0
2, 25132, Note_on_c, 0, 80, 95
2, 25176, Note_on_c, 0, 80, 0
2, 25204, Note_on_c, 0, 93, 100
2, 25204, Note_on_c, 0, 81, 90
2, 25244, Note_on_c, 0, 93, 0
2, 25252, Note_on_c, 0, 81, 0
2, 25276, Note_on_c, 0, 74, 89
2, 25308, Note_on_c, 0, 74, 0
2, 25336, Note_on_c, 0, 87, 97
2, 25344, Note_on_c, 0, 75, 98
2, 25388, Note_on_c, 0, 75, 0
2, 25400, Note_on_c, 0, 87, 0
2, 25412, Note_on_c, 0, 73, 93
2, 25452, Note_on_c, 0, 73, 0
2, 25476, Note_on_c, 0, 86, 98
2, 25480, Note_on_c, 0, 74, 94
2, 25520, Note_on_c, 0, 86, 0
2, 25528, Note_on_c, 0, 74, 0
2, 25544, Note_on_c, 0, 69, 92
2, 25576, Note_on_c, 0, 69, 0
2, 25608, Note_on_c, 0, 82, 96
2, 25612, Note_on_c, 0, 70, 97
2, 25672, Note_on_c, 0, 70, 0
2, 25676, Note_on_c, 0, 82, 0
2, 25680, Note_on_c, 0, 68, 92
2, 25724, Note_on_c, 0, 68, 0
2, 25752, Note_on_c, 0, 81, 100
2, 25752, Note_on_c, 0, 69, 93
2, 25800, Note_on_c, 0, 81, 0
2, 25804, Note_on_c, 0, 69, 0
2, 25820, Note_on_c, 0, 62, 85
2, 25852, Note_on_c, 0, 62, 0
2, 25888, Note_on_c, 0, 75, 97
2, 25892, Note_on_c, 0, 63, 96
2, 25944, Note_on_c, 0, 63, 0
2, 25956, Note_on_c, 0, 75, 0
2, 25964, Note_on_c, 0, 61, 88
2, 26008, Note_on_c, 0, 61, 0
2, 26036, Note_on_c, 0, 74, 93
2, 26040, Note_on_c, 0, 62, 82
2, 26076, Note_on_c, 0, 74, 0
2, 26084, Note_on_c, 0, 62, 0
2, 26096, Note_on_c, 0, 57, 82
2, 26128, Note_on_c, 0, 57, 0
2, 26164, Note_on_c, 0, 70, 88
2, 26168, Note_on_c, 0, 58, 89
2, 26216, Note_on_c, 0, 58, 0
2, 26228, Note_on_c, 0, 70, 0
2, 26232, Note_on_c, 0, 56, 92
2, 26292, Note_on_c, 0, 56, 0
2, 26308, Note_on_c, 0, 69, 94
2, 26312, Note_on_c, 0, 57, 78
2, 26344, Note_on_c, 0, 69, 0
2, 26352, Note_on_c, 0, 57, 0
2, 26368, Note_on_c, 0, 50, 89
2, 26412, Note_on_c, 0, 50, 0
2, 26444, Note_on_c, 0, 63, 86
2, 26448, Note_on_c, 0, 51, 97
2, 26492, Note_on_c, 0, 51, 0
2, 26500, Note_on_c, 0, 63, 0
2, 26512, Note_on_c, 0, 49, 102
2, 26556, Note_on_c, 0, 49, 0
2, 26580, Note_on_c, 0, 62, 92
2, 26584, Note_on_c, 0, 50, 94
2, 26628, Note_on_c, 0, 62, 0
2, 26632, Note_on_c, 0, 50, 0
2, 26648, Note_on_c, 0, 45, 87
2, 26680, Note_on_c, 0, 45, 0
2, 26712, Note_on_c, 0, 58, 88
2, 26720, Note_on_c, 0, 46, 94
2, 26756, Note_on_c, 0, 46, 0
2, 26780, Note_on_c, 0, 58, 0
2, 26784, Note_on_c, 0, 44, 97
2, 26832, Note_on_c, 0, 44, 0
2, 26860, Note_on_c, 0, 45, 90
2, 26860, Note_on_c, 0, 57, 94
2, 26888, Note_on_c, 0, 45, 0
2, 26904, Note_on_c, 0, 57, 0
2, 26912, Note_on_c, 0, 38, 92
2, 26952, Note_on_c, 0, 38, 0
2, 26984, Note_on_c, 0, 63, 94
2, 26988, Note_on_c, 0, 51, 96
2, 27024, Note_on_c, 0, 51, 0
2, 27040, Note_on_c, 0, 63, 0
2, 27060, Note_on_c, 0, 49, 98
2, 27116, Note_on_c, 0, 49, 0
2, 27124, Note_on_c, 0, 62, 97
2, 27128, Note_on_c, 0, 50, 94
2, 27172, Note_on_c, 0, 50, 0
2, 27176, Note_on_c, 0, 62, 0
2, 27188, Note_on_c, 0, 45, 93
2, 27220, Note_on_c, 0, 45, 0
2, 27264, Note_on_c, 0, 58, 88
2, 27268, Note_on_c, 0, 46, 94
2, 27308, Note_on_c, 0, 46, 0
2, 27324, Note_on_c, 0, 58, 0
2, 27332, Note_on_c, 0, 44, 97
2, 27404, Note_on_c, 0, 44, 0
2, 27404, Note_on_c, 0, 45, 92
2, 27408, Note_on_c, 0, 57, 97
2, 27440, Note_on_c, 0, 45, 0
2, 27452, Note_on_c, 0, 57, 0
2, 27476, Note_on_c, 0, 38, 96
2, 27524, Note_on_c, 0, 38, 0
2, 27556, Note_on_c, 0, 63, 100
2, 27556, Note_on_c, 0, 51, 110
2, 27592, Note_on_c, 0, 51, 0
2, 27612, Note_on_c, 0, 63, 0
2, 27628, Note_on_c, 0, 49, 106
2, 27632, Note_on_c, 0, 37, 83
2, 27648, Note_on_c, 0, 39, 28
2, 27656, Control_c, 0, 64, 24
2, 27664, Note_on_c, 0, 39, 0
2, 27664, Note_on_c, 0, 49, 0
2, 27664, Control_c, 0, 64, 40
2, 27668, Note_on_c, 0, 37, 0
2, 27692, Control_c, 0, 64, 0
2, 27712, Note_on_c, 0, 62, 103
2, 27712, Note_on_c, 0, 50, 98
2, 27776, Note_on_c, 0, 50, 0
2, 27792, Note_on_c, 0, 62, 0
2, 27792, Note_on_c, 0, 36, 85
2, 27792, Note_on_c, 0, 48, 94
2, 27800, Note_on_c, 0, 50, 43
2, 27816, Note_on_c, 0, 50, 0
2, 27832, Note_on_c, 0, 36, 0
2, 27836, Note_on_c, 0, 48, 0
2, 27876, Note_on_c, 0, 62, 105
2, 27880, Note_on_c, 0, 50, 102
2, 27944, Note_on_c, 0, 50, 0
2, 27948, Note_on_c, 0, 46, 104
2, 27952, Note_on_c, 0, 34, 95
2, 27956, Note_on_c, 0, 62, 0
2, 27988, Note_on_c, 0, 46, 0
2, 27992, Note_on_c, 0, 34, 0
2, 28044, Note_on_c, 0, 62, 103
2, 28044, Note_on_c, 0, 50, 105
2, 28092, Control_c, 0, 64, 24
2, 28100, Control_c, 0, 64, 56
2, 28112, Note_on_c, 0, 45, 113
2, 28112, Control_c, 0, 64, 88
2, 28116, Note_on_c, 0, 33, 90
2, 28120, Control_c, 0, 64, 104
2, 28124, Note_on_c, 0, 50, 0
2, 28128, Note_on_c, 0, 62, 0
2, 28128, Control_c, 0, 64, 127
2, 28152, Note_on_c, 0, 45, 0
2, 28152, Note_on_c, 0, 33, 0
2, 28220, Note_on_c, 0, 63, 33
2, 28244, Note_on_c, 0, 63, 0
2, 28252, Control_c, 0, 64, 104
2, 28260, Control_c, 0, 64, 72
2, 28268, Control_c, 0, 64, 24
2, 28280, Note_on_c, 0, 67, 98
2, 28280, Note_on_c, 0, 55, 97
2, 28280, Note_on_c, 0, 62, 86
2, 28280, Note_on_c, 0, 58, 78
2, 28280, Note_on_c, 0, 31, 82
2, 28280, Control_c, 0, 64, 0
2, 28280, Note_on_c, 0, 43, 93
2, 28324, Note_on_c, 0, 43, 0
2, 28324, Note_on_c, 0, 31, 0
2, 28348, Note_on_c, 0, 55, 0
2, 28352, Control_c, 0, 64, 40
2, 28356, Note_on_c, 0, 58, 0
2, 28360, Note_on_c, 0, 62, 0
2, 28380, Note_on_c, 0, 67, 0
2, 28472, Control_c, 0, 64, 56
2, 28480, Control_c, 0, 64, 104
2, 28484, Note_on_c, 0, 69, 98
2, 28488, Note_on_c, 0, 57, 80
2, 28488, Control_c, 0, 64, 127
2, 28492, Note_on_c, 0, 62, 85
2, 28496, Note_on_c, 0, 42, 77
2, 28496, Note_on_c, 0, 30, 65
2, 28520, Note_on_c, 0, 57, 0
2, 28528, Note_on_c, 0, 69, 0
2, 28544, Note_on_c, 0, 42, 0
2, 28544, Note_on_c, 0, 62, 0
2, 28548, Note_on_c, 0, 30, 0
2, 28564, Control_c, 0, 64, 56
2, 28576, Control_c, 0, 64, 0
2, 28584, Note_on_c, 0, 70, 103
2, 28584, Note_on_c, 0, 58, 90
2, 28584, Note_on_c, 0, 62, 79
2, 28596, Note_on_c, 0, 43, 87
2, 28600, Note_on_c, 0, 31, 71
2, 28600, Control_c, 0, 64, 88
2, 28608, Control_c, 0, 64, 127
2, 28624, Note_on_c, 0, 31, 0
2, 28624, Note_on_c, 0, 58, 0
2, 28628, Note_on_c, 0, 62, 0
2, 28636, Note_on_c, 0, 43, 0
2, 28644, Note_on_c, 0, 70, 0
2, 28696, Control_c, 0, 64, 72
2, 28700, Control_c, 0, 64, 0
2, 28752, Control_c, 0, 64, 40
2, 28760, Control_c, 0, 64, 88
2, 28772, Control_c, 0, 64, 127
2, 28788, Note_on_c, 0, 72, 103
2, 28792, Note_on_c, 0, 60, 85
2, 28792, Note_on_c, 0, 65, 85
2, 28800, Note_on_c, 0, 45, 80
2, 28800, Note_on_c, 0, 33, 73
2, 28820, Note_on_c, 0, 60, 0
2, 28828, Note_on_c, 0, 45, 0
2, 28832, Note_on_c, 0, 72, 0
2, 28836, Note_on_c, 0, 65, 0
2, 28836, Note_on_c, 0, 33, 0
2, 28840, Control_c, 0, 64, 72
2, 28848, Control_c, 0, 64, 0
2, 28880, Note_on_c, 0, 74, 105
2, 28880, Note_on_c, 0, 65, 82
2, 28888, Note_on_c, 0, 62, 90
2, 28892, Note_on_c, 0, 34, 82
2, 28892, Note_on_c, 0, 46, 92
2, 28916, Control_c, 0, 64, 127
2, 28924, Note_on_c, 0, 46, 0
2, 28924, Note_on_c, 0, 34, 0
2, 28944, Note_on_c, 0, 62, 0
2, 28944, Note_on_c, 0, 65, 0
2, 29012, Note_on_c, 0, 74, 0
2, 29084, Note_on_c, 0, 70, 96
2, 29088, Note_on_c, 0, 62, 80
2, 29088, Note_on_c, 0, 65, 74
2, 29096, Note_on_c, 0, 50, 83
2, 29096, Note_on_c, 0, 58, 63
2, 29108, Note_on_c, 0, 65, 0
2, 29116, Note_on_c, 0, 62, 0
2, 29136, Note_on_c, 0, 70, 0
2, 29144, Note_on_c, 0, 50, 0
2, 29156, Note_on_c, 0, 58, 0
2, 29172, Control_c, 0, 64, 72
2, 29180, Control_c, 0, 64, 0
2, 29188, Note_on_c, 0, 77, 111
2, 29192, Note_on_c, 0, 65, 78
2, 29192, Note_on_c, 0, 69, 87
2, 29204, Note_on_c, 0, 53, 87
2, 29204, Note_on_c, 0, 60, 82
2, 29240, Note_on_c, 0, 60, 0
2, 29240, Control_c, 0, 64, 104
2, 29248, Control_c, 0, 64, 127
2, 29252, Note_on_c, 0, 53, 0
2, 29264, Note_on_c, 0, 77, 0
2, 29280, Note_on_c, 0, 69, 0
2, 29284, Note_on_c, 0, 65, 0
2, 29400, Note_on_c, 0, 75, 100
2, 29404, Note_on_c, 0, 69, 89
2, 29404, Note_on_c, 0, 63, 86
2, 29408, Note_on_c, 0, 41, 80
2, 29408, Note_on_c, 0, 29, 71
2, 29432, Note_on_c, 0, 41, 0
2, 29436, Note_on_c, 0, 29, 0
2, 29440, Note_on_c, 0, 63, 0
2, 29440, Note_on_c, 0, 69, 0
2, 29444, Control_c, 0, 64, 88
2, 29452, Control_c, 0, 64, 40
2, 29456, Note_on_c, 0, 75, 0
2, 29460, Control_c, 0, 64, 0
2, 29492, Note_on_c, 0, 70, 88
2, 29496, Note_on_c, 0, 74, 108
2, 29500, Note_on_c, 0, 62, 90
2, 29508, Note_on_c, 0, 34, 88
2, 29508, Note_on_c, 0, 46, 97
2, 29556, Control_c, 0, 64, 88
2, 29564, Control_c, 0, 64, 127
2, 29624, Note_on_c, 0, 70, 0
2, 29636, Note_on_c, 0, 34, 0
2, 29636, Note_on_c, 0, 74, 0
2, 29636, Note_on_c, 0, 46, 0
2, 29656, Note_on_c, 0, 62, 0
2, 29820, Note_on_c, 0, 70, 102
2, 29828, Note_on_c, 0, 62, 83
2, 29828, Control_c, 0, 64, 40
2, 29832, Note_on_c, 0, 65, 71
2, 29832, Note_on_c, 0, 58, 66
2, 29836, Note_on_c, 0, 53, 71
2, 29836, Control_c, 0, 64, 0
2, 29840, Note_on_c, 0, 50, 80
2, 29848, Note_on_c, 0, 65, 0
2, 29856, Note_on_c, 0, 62, 0
2, 29872, Control_c, 0, 64, 40
2, 29880, Control_c, 0, 64, 127
2, 29888, Note_on_c, 0, 70, 0
2, 29892, Note_on_c, 0, 50, 0
2, 29900, Note_on_c, 0, 58, 0
2, 29908, Note_on_c, 0, 53, 0
2, 30040, Note_on_c, 0, 89, 66
2, 30056, Control_c, 0, 64, 72
2, 30068, Control_c, 0, 64, 24
2, 30076, Control_c, 0, 64, 0
2, 30096, Note_on_c, 0, 89, 0
2, 30100, Note_on_c, 0, 101, 87
2, 30160, Note_on_c, 0, 101, 0
2, 30168, Note_on_c, 0, 99, 82
2, 30172, Note_on_c, 0, 49, 69
2, 30176, Control_c, 0, 64, 127
2, 30216, Note_on_c, 0, 49, 0
2, 30220, Note_on_c, 0, 97, 82
2, 30232, Note_on_c, 0, 99, 0
2, 30240, Note_on_c, 0, 56, 43
2, 30276, Note_on_c, 0, 92, 73
2, 30296, Note_on_c, 0, 56, 0
2, 30316, Note_on_c, 0, 97, 0
2, 30316, Note_on_c, 0, 61, 42
2, 30320, Note_on_c, 0, 89, 72
2, 30332, Note_on_c, 0, 92, 0
2, 30348, Note_on_c, 0, 89, 0
2, 30376, Note_on_c, 0, 61, 0
2, 30380, Note_on_c, 0, 87, 65
2, 30384, Note_on_c, 0, 65, 41
2, 30428, Note_on_c, 0, 85, 70
2, 30436, Note_on_c, 0, 87, 0
2, 30476, Note_on_c, 0, 65, 0
2, 30476, Note_on_c, 0, 68, 52
2, 30480, Note_on_c, 0, 85, 0
2, 30480, Note_on_c, 0, 77, 63
2, 30484, Note_on_c, 0, 80, 79
2, 30512, Note_on_c, 0, 77, 0
2, 30516, Note_on_c, 0, 68, 0
2, 30524, Note_on_c, 0, 80, 0
2, 30676, Note_on_c, 0, 89, 83
2, 30736, Note_on_c, 0, 89, 0
2, 30740, Note_on_c, 0, 101, 90
2, 30756, Control_c, 0, 64, 104
2, 30764, Control_c, 0, 64, 0
2, 30788, Note_on_c, 0, 101, 0
2, 30800, Note_on_c, 0, 99, 88
2, 30804, Note_on_c, 0, 49, 71
2, 30832, Control_c, 0, 64, 127
2, 30856, Note_on_c, 0, 49, 0
2, 30856, Note_on_c, 0, 97, 80
2, 30876, Note_on_c, 0, 99, 0
2, 30884, Note_on_c, 0, 56, 43
2, 30908, Note_on_c, 0, 92, 72
2, 30944, Note_on_c, 0, 56, 0
2, 30944, Note_on_c, 0, 97, 0
2, 30956, Note_on_c, 0, 89, 70
2, 30964, Note_on_c, 0, 92, 0
2, 30964, Note_on_c, 0, 61, 43
2, 30984, Note_on_c, 0, 89, 0
2, 31012, Note_on_c, 0, 87, 63
2, 31024, Note_on_c, 0, 61, 0
2, 31040, Note_on_c, 0, 65, 44
2, 31056, Note_on_c, 0, 85, 72
2, 31068, Note_on_c, 0, 87, 0
2, 31120, Note_on_c, 0, 80, 80
2, 31120, Note_on_c, 0, 77, 58
2, 31124, Note_on_c, 0, 85, 0
2, 31124, Note_on_c, 0, 68, 50
2, 31128, Note_on_c, 0, 65, 0
2, 31136, Note_on_c, 0, 77, 0
2, 31148, Note_on_c, 0, 68, 0
2, 31160, Note_on_c, 0, 80, 0
2, 31320, Note_on_c, 0, 89, 82
2, 31376, Note_on_c, 0, 89, 0
2, 31388, Note_on_c, 0, 101, 83
2, 31412, Control_c, 0, 64, 24
2, 31420, Control_c, 0, 64, 0
2, 31440, Note_on_c, 0, 49, 67
2, 31444, Note_on_c, 0, 99, 81
2, 31452, Note_on_c, 0, 101, 0
2, 31464, Control_c, 0, 64, 88
2, 31472, Control_c, 0, 64, 127
2, 31496, Note_on_c, 0, 49, 0
2, 31496, Note_on_c, 0, 97, 77
2, 31516, Note_on_c, 0, 99, 0
2, 31524, Note_on_c, 0, 56, 50
2, 31548, Note_on_c, 0, 92, 69
2, 31572, Note_on_c, 0, 56, 0
2, 31588, Note_on_c, 0, 97, 0
2, 31596, Note_on_c, 0, 61, 43
2, 31596, Note_on_c, 0, 89, 66
2, 31604, Note_on_c, 0, 92, 0
2, 31616, Note_on_c, 0, 89, 0
2, 31644, Note_on_c, 0, 61, 0
2, 31656, Note_on_c, 0, 87, 65
2, 31656, Note_on_c, 0, 65, 44
2, 31700, Note_on_c, 0, 85, 73
2, 31716, Note_on_c, 0, 87, 0
2, 31744, Note_on_c, 0, 65, 0
2, 31764, Note_on_c, 0, 85, 0
2, 31764, Note_on_c, 0, 68, 57
2, 31764, Note_on_c, 0, 80, 72
2, 31772, Note_on_c, 0, 77, 41
2, 31796, Note_on_c, 0, 68, 0
2, 31808, Note_on_c, 0, 80, 0
2, 31812, Note_on_c, 0, 77, 0
2, 31896, Note_on_c, 0, 68, 36
2, 31896, Control_c, 0, 64, 72
2, 31908, Control_c, 0, 64, 40
2, 31916, Note_on_c, 0, 68, 0
2, 31916, Control_c, 0, 64, 0
2, 31924, Note_on_c, 0, 49, 32
2, 31940, Note_on_c, 0, 49, 0
2, 31988, Note_on_c, 0, 65, 94
2, 31988, Note_on_c, 0, 77, 108
2, 31988, Note_on_c, 0, 68, 88
2, 31996, Note_on_c, 0, 49, 97
2, 31996, Note_on_c, 0, 37, 77
2, 32024, Note_on_c, 0, 49, 0
2, 32024, Note_on_c, 0, 65, 0
2, 32028, Note_on_c, 0, 37, 0
2, 32036, Note_on_c, 0, 68, 0
2, 32036, Note_on_c, 0, 77, 0
2, 32092, Note_on_c, 0, 77, 110
2, 32092, Note_on_c, 0, 65, 98
2, 32092, Note_on_c, 0, 68, 94
2, 32096, Note_on_c, 0, 49, 101
2, 32100, Note_on_c, 0, 37, 80
2, 32120, Control_c, 0, 64, 72
2, 32128, Control_c, 0, 64, 127
2, 32132, Note_on_c, 0, 49, 0
2, 32136, Note_on_c, 0, 37, 0
2, 32144, Note_on_c, 0, 77, 0
2, 32152, Note_on_c, 0, 68, 0
2, 32152, Note_on_c, 0, 65, 0
2, 32308, Note_on_c, 0, 75, 94
2, 32312, Note_on_c, 0, 66, 78
2, 32312, Note_on_c, 0, 63, 71
2, 32316, Note_on_c, 0, 45, 87
2, 32320, Note_on_c, 0, 33, 78
2, 32348, Note_on_c, 0, 63, 0
2, 32352, Note_on_c, 0, 45, 0
2, 32356, Note_on_c, 0, 33, 0
2, 32356, Control_c, 0, 64, 56
2, 32360, Note_on_c, 0, 66, 0
2, 32360, Note_on_c, 0, 75, 0
2, 32364, Control_c, 0, 64, 0
2, 32408, Note_on_c, 0, 73, 101
2, 32412, Note_on_c, 0, 61, 83
2, 32412, Note_on_c, 0, 65, 80
2, 32420, Note_on_c, 0, 34, 80
2, 32420, Note_on_c, 0, 46, 94
2, 32436, Control_c, 0, 64, 40
2, 32444, Control_c, 0, 64, 127
2, 32448, Note_on_c, 0, 46, 0
2, 32456, Note_on_c, 0, 34, 0
2, 32464, Note_on_c, 0, 65, 0
2, 32468, Note_on_c, 0, 61, 0
2, 32472, Note_on_c, 0, 73, 0
2, 32528, Control_c, 0, 64, 88
2, 32536, Control_c, 0, 64, 40
2, 32544, Control_c, 0, 64, 0
2, 32596, Control_c, 0, 64, 40
2, 32604, Control_c, 0, 64, 56
2, 32616, Note_on_c, 0, 72, 106
2, 32616, Note_on_c, 0, 63, 92
2, 32616, Control_c, 0, 64, 72
2, 32620, Note_on_c, 0, 60, 88
2, 32624, Note_on_c, 0, 29, 72
2, 32624, Note_on_c, 0, 41, 79
2, 32624, Control_c, 0, 64, 88
2, 32652, Note_on_c, 0, 60, 0
2, 32652, Note_on_c, 0, 72, 0
2, 32656, Note_on_c, 0, 41, 0
2, 32656, Note_on_c, 0, 63, 0
2, 32656, Control_c, 0, 64, 56
2, 32660, Note_on_c, 0, 29, 0
2, 32664, Control_c, 0, 64, 24
2, 32672, Control_c, 0, 64, 0
2, 32716, Note_on_c, 0, 70, 100
2, 32716, Note_on_c, 0, 58, 95
2, 32720, Note_on_c, 0, 61, 83
2, 32732, Note_on_c, 0, 46, 95
2, 32732, Note_on_c, 0, 34, 82
2, 32768, Control_c, 0, 64, 40
2, 32776, Control_c, 0, 64, 127
2, 32852, Note_on_c, 0, 34, 0
2, 32856, Note_on_c, 0, 46, 0
2, 32860, Note_on_c, 0, 61, 0
2, 32860, Note_on_c, 0, 70, 0
2, 32900, Note_on_c, 0, 58, 0
2, 33040, Note_on_c, 0, 68, 104
2, 33044, Note_on_c, 0, 56, 89
2, 33048, Note_on_c, 0, 60, 94
2, 33052, Note_on_c, 0, 39, 64
2, 33060, Note_on_c, 0, 48, 80
2, 33060, Note_on_c, 0, 44, 57
2, 33064, Note_on_c, 0, 36, 66
2, 33072, Control_c, 0, 64, 56
2, 33080, Control_c, 0, 64, 0
2, 33152, Control_c, 0, 64, 40
2, 33160, Control_c, 0, 64, 127
2, 33180, Note_on_c, 0, 36, 0
2, 33184, Note_on_c, 0, 60, 0
2, 33184, Note_on_c, 0, 39, 0
2, 33204, Note_on_c, 0, 48, 0
2, 33204, Note_on_c, 0, 68, 0
2, 33204, Note_on_c, 0, 56, 0
2, 33204, Note_on_c, 0, 44, 0
2, 33336, Control_c, 0, 64, 104
2, 33348, Control_c, 0, 64, 56
2, 33356, Control_c, 0, 64, 0
2, 33376, Note_on_c, 0, 67, 103
2, 33380, Note_on_c, 0, 55, 94
2, 33380, Note_on_c, 0, 58, 80
2, 33380, Note_on_c, 0, 50, 79
2, 33384, Note_on_c, 0, 43, 63
2, 33384, Note_on_c, 0, 38, 58
2, 33384, Note_on_c, 0, 46, 57
2, 33424, Control_c, 0, 64, 72
2, 33432, Control_c, 0, 64, 127
2, 33452, Note_on_c, 0, 55, 0
2, 33464, Note_on_c, 0, 46, 0
2, 33472, Note_on_c, 0, 50, 0
2, 33476, Note_on_c, 0, 38, 0
2, 33480, Note_on_c, 0, 43, 0
2, 33516, Note_on_c, 0, 58, 0
2, 33520, Note_on_c, 0, 67, 0
2, 33576, Control_c, 0, 64, 88
2, 33584, Control_c, 0, 64, 56
2, 33592, Note_on_c, 0, 67, 102
2, 33592, Note_on_c, 0, 58, 93
2, 33592, Control_c, 0, 64, 24
2, 33596, Note_on_c, 0, 55, 94
2, 33596, Note_on_c, 0, 50, 80
2, 33596, Note_on_c, 0, 46, 58
2, 33600, Note_on_c, 0, 38, 67
2, 33600, Note_on_c, 0, 43, 59
2, 33604, Control_c, 0, 64, 0
2, 33620, Note_on_c, 0, 43, 0
2, 33624, Note_on_c, 0, 55, 0
2, 33628, Note_on_c, 0, 46, 0
2, 33628, Note_on_c, 0, 50, 0
2, 33628, Note_on_c, 0, 38, 0
2, 33640, Note_on_c, 0, 67, 0
2, 33644, Note_on_c, 0, 58, 0
2, 33696, Note_on_c, 0, 69, 108
2, 33696, Note_on_c, 0, 60, 94
2, 33696, Note_on_c, 0, 57, 89
2, 33704, Note_on_c, 0, 50, 85
2, 33704, Note_on_c, 0, 38, 70
2, 33708, Note_on_c, 0, 42, 49
2, 33716, Note_on_c, 0, 45, 69
2, 33736, Note_on_c, 0, 45, 0
2, 33764, Control_c, 0, 64, 88
2, 33772, Control_c, 0, 64, 127
2, 33804, Note_on_c, 0, 50, 0
2, 33804, Note_on_c, 0, 42, 0
2, 33808, Note_on_c, 0, 38, 0
2, 33828, Note_on_c, 0, 57, 0
2, 33840, Note_on_c, 0, 60, 0
2, 33848, Note_on_c, 0, 69, 0
2, 33916, Control_c, 0, 64, 88
2, 33924, Control_c, 0, 64, 72
2, 33928, Note_on_c, 0, 66, 97
2, 33932, Note_on_c, 0, 60, 95
2, 33932, Note_on_c, 0, 57, 93
2, 33936, Note_on_c, 0, 50, 88
2, 33936, Note_on_c, 0, 38, 80
2, 33936, Control_c, 0, 64, 40
2, 33944, Control_c, 0, 64, 24
2, 33948, Note_on_c, 0, 50, 0
2, 33952, Control_c, 0, 64, 0
2, 33964, Note_on_c, 0, 60, 0
2, 33964, Note_on_c, 0, 38, 0
2, 33972, Note_on_c, 0, 57, 0
2, 33992, Note_on_c, 0, 66, 0
2, 34040, Note_on_c, 0, 67, 105
2, 34044, Note_on_c, 0, 55, 94
2, 34044, Note_on_c, 0, 58, 81
2, 34052, Note_on_c, 0, 43, 89
2, 34056, Note_on_c, 0, 31, 75
2, 34096, Control_c, 0, 64, 56
2, 34104, Control_c, 0, 64, 127
2, 34116, Note_on_c, 0, 67, 0
2, 34124, Note_on_c, 0, 55, 0
2, 34128, Note_on_c, 0, 58, 0
2, 34148, Note_on_c, 0, 31, 0
2, 34196, Note_on_c, 0, 43, 0
2, 34256, Note_on_c, 0, 49, 90
2, 34256, Note_on_c, 0, 37, 79
2, 34288, Note_on_c, 0, 49, 0
2, 34300, Note_on_c, 0, 37, 0
2, 34300, Control_c, 0, 64, 104
2, 34308, Note_on_c, 0, 50, 97
2, 34308, Note_on_c, 0, 38, 85
2, 34308, Control_c, 0, 64, 72
2, 34316, Control_c, 0, 64, 24
2, 34328, Control_c, 0, 64, 0
2, 34364, Note_on_c, 0, 38, 0
2, 34368, Note_on_c, 0, 55, 103
2, 34368, Note_on_c, 0, 43, 92
2, 34376, Note_on_c, 0, 50, 0
2, 34404, Note_on_c, 0, 43, 0
2, 34412, Control_c, 0, 64, 72
2, 34416, Note_on_c, 0, 55, 0
2, 34420, Control_c, 0, 64, 127
2, 34540, Control_c, 0, 64, 56
2, 34548, Control_c, 0, 64, 0
2, 34600, Note_on_c, 0, 62, 95
2, 34600, Note_on_c, 0, 74, 105
2, 34600, Note_on_c, 0, 38, 72
2, 34604, Note_on_c, 0, 50, 77
2, 34608, Control_c, 0, 64, 56
2, 34616, Control_c, 0, 64, 127
2, 34628, Note_on_c, 0, 38, 0
2, 34632, Note_on_c, 0, 62, 0
2, 34644, Note_on_c, 0, 50, 0
2, 34648, Note_on_c, 0, 74, 0
2, 34700, Control_c, 0, 64, 72
2, 34708, Control_c, 0, 64, 0
2, 34716, Note_on_c, 0, 79, 105
2, 34720, Note_on_c, 0, 67, 96
2, 34728, Note_on_c, 0, 55, 88
2, 34736, Note_on_c, 0, 43, 72
2, 34768, Control_c, 0, 64, 88
2, 34780, Control_c, 0, 64, 127
2, 34796, Note_on_c, 0, 67, 0
2, 34824, Note_on_c, 0, 79, 0
2, 34824, Note_on_c, 0, 43, 0
2, 34836, Note_on_c, 0, 55, 0
2, 34924, Note_on_c, 0, 81, 98
2, 34928, Note_on_c, 0, 69, 80
2, 34932, Note_on_c, 0, 74, 90
2, 34932, Note_on_c, 0, 54, 72
2, 34936, Note_on_c, 0, 42, 60
2, 34960, Note_on_c, 0, 69, 0
2, 34968, Note_on_c, 0, 81, 0
2, 34972, Note_on_c, 0, 42, 0
2, 34972, Note_on_c, 0, 74, 0
2, 34976, Note_on_c, 0, 54, 0
2, 35000, Control_c, 0, 64, 104
2, 35008, Control_c, 0, 64, 0
2, 35028, Note_on_c, 0, 82, 103
2, 35032, Note_on_c, 0, 70, 96
2, 35032, Note_on_c, 0, 74, 93
2, 35044, Note_on_c, 0, 43, 82
2, 35044, Note_on_c, 0, 55, 88
2, 35060, Control_c, 0, 64, 56
2, 35068, Note_on_c, 0, 74, 0
2, 35068, Control_c, 0, 64, 127
2, 35076, Note_on_c, 0, 70, 0
2, 35080, Note_on_c, 0, 43, 0
2, 35084, Note_on_c, 0, 55, 0
2, 35100, Note_on_c, 0, 82, 0
2, 35244, Note_on_c, 0, 84, 101
2, 35244, Note_on_c, 0, 72, 93
2, 35252, Note_on_c, 0, 77, 89
2, 35252, Note_on_c, 0, 45, 82
2, 35252, Note_on_c, 0, 57, 77
2, 35280, Note_on_c, 0, 72, 0
2, 35284, Note_on_c, 0, 45, 0
2, 35288, Note_on_c, 0, 77, 0
2, 35292, Note_on_c, 0, 57, 0
2, 35300, Note_on_c, 0, 84, 0
2, 35316, Control_c, 0, 64, 0
2, 35344, Note_on_c, 0, 86, 110
2, 35352, Note_on_c, 0, 77, 92
2, 35352, Note_on_c, 0, 74, 90
2, 35356, Note_on_c, 0, 46, 83
2, 35356, Note_on_c, 0, 58, 81
2, 35384, Control_c, 0, 64, 127
2, 35388, Note_on_c, 0, 46, 0
2, 35396, Note_on_c, 0, 58, 0
2, 35460, Note_on_c, 0, 74, 0
2, 35488, Note_on_c, 0, 77, 0
2, 35508, Note_on_c, 0, 86, 0
2, 35556, Note_on_c, 0, 82, 95
2, 35564, Note_on_c, 0, 74, 72
2, 35568, Note_on_c, 0, 62, 71
2, 35568, Note_on_c, 0, 77, 64
2, 35572, Note_on_c, 0, 70, 69
2, 35584, Note_on_c, 0, 77, 0
2, 35588, Note_on_c, 0, 74, 0
2, 35608, Note_on_c, 0, 82, 0
2, 35620, Note_on_c, 0, 62, 0
2, 35620, Note_on_c, 0, 70, 0
2, 35648, Control_c, 0, 64, 88
2, 35656, Control_c, 0, 64, 0
2, 35660, Note_on_c, 0, 89, 110
2, 35660, Note_on_c, 0, 77, 98
2, 35664, Note_on_c, 0, 81, 90
2, 35672, Note_on_c, 0, 65, 75
2, 35676, Note_on_c, 0, 72, 88
2, 35708, Control_c, 0, 64, 88
2, 35716, Note_on_c, 0, 72, 0
2, 35716, Control_c, 0, 64, 127
2, 35728, Note_on_c, 0, 65, 0
2, 35732, Note_on_c, 0, 89, 0
2, 35752, Note_on_c, 0, 81, 0
2, 35752, Note_on_c, 0, 77, 0
2, 35860, Control_c, 0, 64, 72
2, 35868, Control_c, 0, 64, 24
2, 35880, Note_on_c, 0, 87, 98
2, 35884, Note_on_c, 0, 41, 78
2, 35884, Note_on_c, 0, 75, 95
2, 35884, Note_on_c, 0, 53, 80
2, 35884, Control_c, 0, 64, 56
2, 35896, Note_on_c, 0, 81, 55
2, 35896, Control_c, 0, 64, 104
2, 35904, Control_c, 0, 64, 127
2, 35912, Note_on_c, 0, 81, 0
2, 35912, Note_on_c, 0, 41, 0
2, 35912, Note_on_c, 0, 53, 0
2, 35928, Note_on_c, 0, 75, 0
2, 35944, Note_on_c, 0, 87, 0
2, 35988, Note_on_c, 0, 86, 106
2, 35988, Note_on_c, 0, 82, 88
2, 35988, Control_c, 0, 64, 72
2, 35992, Note_on_c, 0, 74, 96
2, 35996, Control_c, 0, 64, 0
2, 36000, Note_on_c, 0, 58, 92
2, 36000, Note_on_c, 0, 46, 95
2, 36056, Control_c, 0, 64, 56
2, 36064, Control_c, 0, 64, 127
2, 36108, Note_on_c, 0, 82, 0
2, 36120, Note_on_c, 0, 86, 0
2, 36136, Note_on_c, 0, 46, 0
2, 36144, Note_on_c, 0, 74, 0
2, 36144, Note_on_c, 0, 58, 0
2, 36344, Note_on_c, 0, 82, 94
2, 36348, Note_on_c, 0, 74, 85
2, 36348, Note_on_c, 0, 70, 74
2, 36348, Control_c, 0, 64, 88
2, 36352, Note_on_c, 0, 77, 78
2, 36352, Note_on_c, 0, 62, 80
2, 36356, Note_on_c, 0, 65, 66
2, 36356, Control_c, 0, 64, 24
2, 36368, Note_on_c, 0, 77, 0
2, 36372, Control_c, 0, 64, 56
2, 36376, Note_on_c, 0, 74, 0
2, 36380, Control_c, 0, 64, 104
2, 36388, Control_c, 0, 64, 127
2, 36404, Note_on_c, 0, 62, 0
2, 36404, Note_on_c, 0, 82, 0
2, 36408, Note_on_c, 0, 70, 0
2, 36416, Note_on_c, 0, 65, 0
2, 36544, Note_on_c, 0, 89, 66
2, 36592, Control_c, 0, 64, 72
2, 36604, Control_c, 0, 64, 0
2, 36616, Note_on_c, 0, 101, 83
2, 36652, Note_on_c, 0, 89, 0
2, 36664, Note_on_c, 0, 101, 0
2, 36684, Note_on_c, 0, 99, 80
2, 36688, Note_on_c, 0, 49, 62
2, 36688, Control_c, 0, 64, 127
2, 36740, Note_on_c, 0, 49, 0
2, 36740, Note_on_c, 0, 97, 77
2, 36756, Note_on_c, 0, 99, 0
2, 36768, Note_on_c, 0, 56, 42
2, 36796, Note_on_c, 0, 92, 70
2, 36824, Note_on_c, 0, 56, 0
2, 36832, Note_on_c, 0, 97, 0
2, 36836, Note_on_c, 0, 89, 62
2, 36844, Note_on_c, 0, 61, 43
2, 36852, Note_on_c, 0, 92, 0
2, 36860, Note_on_c, 0, 89, 0
2, 36888, Note_on_c, 0, 61, 0
2, 36896, Note_on_c, 0, 87, 74
2, 36908, Note_on_c, 0, 65, 40
2, 36944, Note_on_c, 0, 85, 64
2, 36964, Note_on_c, 0, 87, 0
2, 36988, Note_on_c, 0, 65, 0
2, 36992, Note_on_c, 0, 68, 50
2, 37004, Note_on_c, 0, 85, 0
2, 37004, Note_on_c, 0, 77, 43
2, 37004, Note_on_c, 0, 80, 72
2, 37032, Note_on_c, 0, 77, 0
2, 37036, Note_on_c, 0, 68, 0
2, 37048, Note_on_c, 0, 80, 0
2, 37204, Note_on_c, 0, 89, 62
2, 37256, Note_on_c, 0, 89, 0
2, 37268, Note_on_c, 0, 101, 83
2, 37308, Control_c, 0, 64, 72
2, 37316, Control_c, 0, 64, 0
2, 37324, Note_on_c, 0, 101, 0
2, 37332, Note_on_c, 0, 99, 80
2, 37332, Note_on_c, 0, 49, 64
2, 37368, Control_c, 0, 64, 88
2, 37376, Control_c, 0, 64, 127
2, 37388, Note_on_c, 0, 97, 72
2, 37392, Note_on_c, 0, 49, 0
2, 37404, Note_on_c, 0, 99, 0
2, 37420, Note_on_c, 0, 56, 44
2, 37436, Note_on_c, 0, 92, 65
2, 37472, Note_on_c, 0, 56, 0
2, 37472, Note_on_c, 0, 97, 0
2, 37472, Note_on_c, 0, 89, 56
2, 37488, Note_on_c, 0, 92, 0
2, 37492, Note_on_c, 0, 61, 43
2, 37504, Note_on_c, 0, 89, 0
2, 37536, Note_on_c, 0, 87, 67
2, 37548, Note_on_c, 0, 61, 0
2, 37564, Note_on_c, 0, 65, 40
2, 37584, Note_on_c, 0, 85, 71
2, 37600, Note_on_c, 0, 87, 0
2, 37648, Note_on_c, 0, 77, 43
2, 37652, Note_on_c, 0, 85, 0
2, 37652, Note_on_c, 0, 80, 74
2, 37656, Note_on_c, 0, 65, 0
2, 37656, Note_on_c, 0, 68, 51
2, 37680, Note_on_c, 0, 77, 0
2, 37688, Note_on_c, 0, 68, 0
2, 37700, Note_on_c, 0, 80, 0
2, 37856, Note_on_c, 0, 89, 75
2, 37920, Note_on_c, 0, 89, 0
2, 37924, Note_on_c, 0, 101, 85
2, 37940, Note_on_c, 0, 89, 19
2, 37956, Note_on_c, 0, 89, 0
2, 37964, Control_c, 0, 64, 56
2, 37976, Note_on_c, 0, 101, 0
2, 37976, Control_c, 0, 64, 0
2, 37984, Note_on_c, 0, 99, 82
2, 37988, Note_on_c, 0, 49, 69
2, 38016, Control_c, 0, 64, 72
2, 38024, Control_c, 0, 64, 127
2, 38040, Note_on_c, 0, 97, 75
2, 38044, Note_on_c, 0, 49, 0
2, 38064, Note_on_c, 0, 99, 0
2, 38072, Note_on_c, 0, 56, 49
2, 38092, Note_on_c, 0, 92, 70
2, 38124, Note_on_c, 0, 56, 0
2, 38128, Note_on_c, 0, 97, 0
2, 38128, Note_on_c, 0, 89, 54
2, 38144, Note_on_c, 0, 92, 0
2, 38148, Note_on_c, 0, 61, 49
2, 38156, Note_on_c, 0, 89, 0
2, 38196, Note_on_c, 0, 87, 64
2, 38204, Note_on_c, 0, 61, 0
2, 38220, Note_on_c, 0, 65, 41
2, 38244, Note_on_c, 0, 85, 70
2, 38256, Note_on_c, 0, 87, 0
2, 38304, Note_on_c, 0, 80, 56
2, 38308, Note_on_c, 0, 65, 0
2, 38316, Note_on_c, 0, 68, 62
2, 38324, Note_on_c, 0, 85, 0
2, 38324, Note_on_c, 0, 77, 66
2, 38352, Note_on_c, 0, 68, 0
2, 38360, Note_on_c, 0, 80, 0
2, 38368, Note_on_c, 0, 77, 0
2, 38452, Control_c, 0, 64, 104
2, 38460, Control_c, 0, 64, 56
2, 38468, Control_c, 0, 64, 24
2, 38476, Control_c, 0, 64, 0
2, 38544, Note_on_c, 0, 68, 85
2, 38544, Note_on_c, 0, 77, 103
2, 38544, Note_on_c, 0, 65, 92
2, 38544, Note_on_c, 0, 49, 97
2, 38544, Note_on_c, 0, 37, 71
2, 38572, Note_on_c, 0, 49, 0
2, 38576, Note_on_c, 0, 37, 0
2, 38580, Note_on_c, 0, 65, 0
2, 38588, Note_on_c, 0, 68, 0
2, 38592, Note_on_c, 0, 77, 0
2, 38648, Note_on_c, 0, 77, 105
2, 38648, Note_on_c, 0, 37, 81
2, 38648, Note_on_c, 0, 49, 102
2, 38648, Note_on_c, 0, 68, 90
2, 38648, Note_on_c, 0, 65, 98
2, 38672, Control_c, 0, 64, 56
2, 38680, Note_on_c, 0, 49, 0
2, 38680, Control_c, 0, 64, 127
2, 38688, Note_on_c, 0, 37, 0
2, 38708, Note_on_c, 0, 77, 0
2, 38720, Note_on_c, 0, 65, 0
2, 38720, Note_on_c, 0, 68, 0
2, 38864, Note_on_c, 0, 75, 103
2, 38864, Note_on_c, 0, 33, 75
2, 38864, Note_on_c, 0, 45, 89
2, 38864, Note_on_c, 0, 66, 81
2, 38864, Note_on_c, 0, 63, 83
2, 38900, Note_on_c, 0, 45, 0
2, 38900, Note_on_c, 0, 33, 0
2, 38908, Note_on_c, 0, 63, 0
2, 38912, Control_c, 0, 64, 104
2, 38920, Note_on_c, 0, 66, 0
2, 38920, Control_c, 0, 64, 72
2, 38924, Note_on_c, 0, 75, 0
2, 38928, Control_c, 0, 64, 0
2, 38968, Note_on_c, 0, 73, 102
2, 38968, Note_on_c, 0, 61, 80
2, 38968, Note_on_c, 0, 65, 89
2, 38968, Note_on_c, 0, 34, 81
2, 38968, Note_on_c, 0, 46, 94
2, 38996, Note_on_c, 0, 46, 0
2, 39004, Control_c, 0, 64, 127
2, 39012, Note_on_c, 0, 34, 0
2, 39024, Note_on_c, 0, 65, 0
2, 39028, Note_on_c, 0, 61, 0
2, 39044, Note_on_c, 0, 73, 0
2, 39088, Control_c, 0, 64, 104
2, 39096, Control_c, 0, 64, 72
2, 39108, Control_c, 0, 64, 40
2, 39116, Control_c, 0, 64, 24
2, 39124, Control_c, 0, 64, 0
2, 39176, Control_c, 0, 64, 40
2, 39184, Note_on_c, 0, 72, 108
2, 39184, Note_on_c, 0, 41, 82
2, 39184, Note_on_c, 0, 29, 72
2, 39184, Note_on_c, 0, 63, 95
2, 39184, Control_c, 0, 64, 56
2, 39184, Note_on_c, 0, 60, 97
2, 39216, Note_on_c, 0, 60, 0
2, 39216, Note_on_c, 0, 41, 0
2, 39216, Control_c, 0, 64, 0
2, 39220, Note_on_c, 0, 29, 0
2, 39228, Note_on_c, 0, 72, 0
2, 39228, Note_on_c, 0, 63, 0
2, 39296, Note_on_c, 0, 70, 100
2, 39296, Note_on_c, 0, 58, 98
2, 39296, Note_on_c, 0, 46, 97
2, 39296, Note_on_c, 0, 34, 66
2, 39296, Note_on_c, 0, 61, 83
2, 39364, Control_c, 0, 64, 40
2, 39372, Control_c, 0, 64, 88
2, 39380, Control_c, 0, 64, 127
2, 39448, Note_on_c, 0, 34, 0
2, 39468, Note_on_c, 0, 46, 0
2, 39468, Note_on_c, 0, 61, 0
2, 39480, Note_on_c, 0, 70, 0
2, 39504, Note_on_c, 0, 58, 0
2, 39628, Note_on_c, 0, 68, 103
2, 39628, Note_on_c, 0, 60, 94
2, 39628, Note_on_c, 0, 39, 69
2, 39628, Note_on_c, 0, 48, 93
2, 39628, Note_on_c, 0, 44, 65
2, 39628, Note_on_c, 0, 36, 67
2, 39628, Note_on_c, 0, 56, 89
2, 39652, Control_c, 0, 64, 72
2, 39660, Control_c, 0, 64, 0
2, 39748, Note_on_c, 0, 36, 0
2, 39748, Control_c, 0, 64, 88
2, 39756, Control_c, 0, 64, 127
2, 39760, Note_on_c, 0, 39, 0
2, 39768, Note_on_c, 0, 44, 0
2, 39768, Note_on_c, 0, 60, 0
2, 39780, Note_on_c, 0, 56, 0
2, 39780, Note_on_c, 0, 48, 0
2, 39800, Note_on_c, 0, 68, 0
2, 39948, Control_c, 0, 64, 104
2, 39960, Note_on_c, 0, 67, 105
2, 39960, Note_on_c, 0, 55, 96
2, 39960, Note_on_c, 0, 50, 77
2, 39960, Note_on_c, 0, 38, 63
2, 39960, Note_on_c, 0, 43, 63
2, 39960, Note_on_c, 0, 46, 58
2, 39960, Note_on_c, 0, 58, 82
2, 39960, Control_c, 0, 64, 0
2, 40020, Control_c, 0, 64, 72
2, 40024, Control_c, 0, 64, 127
2, 40068, Note_on_c, 0, 46, 0
2, 40068, Note_on_c, 0, 50, 0
2, 40068, Note_on_c, 0, 38, 0
2, 40084, Note_on_c, 0, 43, 0
2, 40084, Note_on_c, 0, 55, 0
2, 40100, Note_on_c, 0, 58, 0
2, 40116, Note_on_c, 0, 67, 0
2, 40136, Control_c, 0, 64, 104
2, 40148, Control_c, 0, 64, 72
2, 40156, Control_c, 0, 64, 40
2, 40164, Control_c, 0, 64, 24
2, 40172, Control_c, 0, 64, 0
2, 40188, Note_on_c, 0, 67, 101
2, 40188, Note_on_c, 0, 58, 94
2, 40188, Note_on_c, 0, 55, 98
2, 40188, Note_on_c, 0, 38, 63
2, 40188, Note_on_c, 0, 50, 81
2, 40188, Note_on_c, 0, 43, 71
2, 40188, Note_on_c, 0, 46, 66
2, 40212, Note_on_c, 0, 38, 0
2, 40216, Note_on_c, 0, 50, 0
2, 40216, Note_on_c, 0, 43, 0
2, 40220, Note_on_c, 0, 55, 0
2, 40224, Note_on_c, 0, 46, 0
2, 40236, Note_on_c, 0, 58, 0
2, 40240, Note_on_c, 0, 67, 0
2, 40292, Note_on_c, 0, 69, 103
2, 40292, Note_on_c, 0, 50, 85
2, 40292, Note_on_c, 0, 38, 71
2, 40292, Note_on_c, 0, 45, 81
2, 40292, Note_on_c, 0, 42, 69
2, 40292, Note_on_c, 0, 57, 87
2, 40292, Note_on_c, 0, 60, 94
2, 40376, Control_c, 0, 64, 72
2, 40384, Control_c, 0, 64, 127
2, 40396, Note_on_c, 0, 45, 0
2, 40416, Note_on_c, 0, 38, 0
2, 40420, Note_on_c, 0, 42, 0
2, 40420, Note_on_c, 0, 50, 0
2, 40424, Note_on_c, 0, 57, 0
2, 40432, Note_on_c, 0, 60, 0
2, 40468, Note_on_c, 0, 69, 0
2, 40468, Control_c, 0, 64, 104
2, 40480, Control_c, 0, 64, 56
2, 40488, Control_c, 0, 64, 24
2, 40496, Control_c, 0, 64, 0
2, 40540, Control_c, 0, 64, 24
2, 40544, Note_on_c, 0, 57, 85
2, 40544, Note_on_c, 0, 66, 97
2, 40544, Note_on_c, 0, 50, 89
2, 40544, Note_on_c, 0, 60, 94
2, 40544, Note_on_c, 0, 38, 72
2, 40544, Control_c, 0, 64, 72
2, 40556, Control_c, 0, 64, 127
2, 40576, Note_on_c, 0, 38, 0
2, 40580, Note_on_c, 0, 50, 0
2, 40584, Note_on_c, 0, 60, 0
2, 40596, Note_on_c, 0, 57, 0
2, 40616, Note_on_c, 0, 66, 0
2, 40632, Control_c, 0, 64, 104
2, 40640, Control_c, 0, 64, 88
2, 40648, Control_c, 0, 64, 56
2, 40656, Note_on_c, 0, 67, 102
2, 40656, Note_on_c, 0, 31, 96
2, 40656, Note_on_c, 0, 43, 92
2, 40656, Note_on_c, 0, 58, 82
2, 40656, Note_on_c, 0, 55, 90
2, 40656, Control_c, 0, 64, 24
2, 40668, Control_c, 0, 64, 0
2, 40880, Note_on_c, 0, 67, 0
2, 41044, Note_on_c, 0, 58, 0
2, 41044, Note_on_c, 0, 31, 0
2, 41044, Note_on_c, 0, 43, 0
2, 41044, Note_on_c, 0, 55, 0
2, 41164, Note_on_c, 0, 79, 72
2, 41172, Note_on_c, 0, 71, 47
2, 41180, Note_on_c, 0, 74, 56
2, 41200, Note_on_c, 0, 74, 0
2, 41200, Note_on_c, 0, 71, 0
2, 41208, Note_on_c, 0, 79, 0
2, 41288, Note_on_c, 0, 91, 73
2, 41292, Note_on_c, 0, 85, 55
2, 41344, Note_on_c, 0, 91, 0
2, 41348, Note_on_c, 0, 85, 0
2, 41396, Note_on_c, 0, 86, 70
2, 41444, Note_on_c, 0, 86, 0
2, 41496, Note_on_c, 0, 72, 81
2, 41500, Note_on_c, 0, 79, 72
2, 41504, Note_on_c, 0, 75, 46
2, 41520, Note_on_c, 0, 79, 0
2, 41520, Note_on_c, 0, 72, 0
2, 41524, Note_on_c, 0, 75, 0
2, 41592, Note_on_c, 0, 87, 72
2, 41600, Note_on_c, 0, 83, 66
2, 41632, Note_on_c, 0, 83, 0
2, 41660, Note_on_c, 0, 87, 0
2, 41692, Note_on_c, 0, 79, 71
2, 41700, Note_on_c, 0, 84, 78
2, 41748, Note_on_c, 0, 79, 0
2, 41752, Note_on_c, 0, 84, 0
2, 41804, Note_on_c, 0, 69, 70
2, 41808, Note_on_c, 0, 77, 80
2, 41812, Note_on_c, 0, 72, 64
2, 41832, Note_on_c, 0, 72, 0
2, 41848, Note_on_c, 0, 77, 0
2, 41848, Note_on_c, 0, 69, 0
2, 41912, Note_on_c, 0, 89, 80
2, 41920, Note_on_c, 0, 83, 74
2, 41972, Note_on_c, 0, 83, 0
2, 41972, Note_on_c, 0, 89, 0
2, 42016, Note_on_c, 0, 84, 80
2, 42024, Note_on_c, 0, 77, 69
2, 42072, Note_on_c, 0, 77, 0
2, 42084, Note_on_c, 0, 84, 0
2, 42132, Note_on_c, 0, 77, 80
2, 42132, Note_on_c, 0, 70, 71
2, 42132, Note_on_c, 0, 74, 70
2, 42156, Note_on_c, 0, 74, 0
2, 42168, Note_on_c, 0, 77, 0
2, 42172, Note_on_c, 0, 70, 0
2, 42240, Note_on_c, 0, 86, 72
2, 42244, Note_on_c, 0, 81, 71
2, 42280, Note_on_c, 0, 81, 0
2, 42300, Note_on_c, 0, 86, 0
2, 42336, Note_on_c, 0, 82, 79
2, 42348, Note_on_c, 0, 77, 65
2, 42400, Note_on_c, 0, 77, 0
2, 42400, Note_on_c, 0, 82, 0
2, 42400, Note_on_c, 0, 60, 69
2, 42420, Note_on_c, 0, 68, 49
2, 42432, Control_c, 0, 64, 40
2, 42444, Control_c, 0, 64, 88
2, 42448, Note_on_c, 0, 60, 0
2, 42452, Control_c, 0, 64, 127
2, 42468, Note_on_c, 0, 75, 81
2, 42484, Note_on_c, 0, 68, 0
2, 42492, Note_on_c, 0, 75, 0
2, 42556, Note_on_c, 0, 87, 69
2, 42572, Note_on_c, 0, 80, 64
2, 42580, Control_c, 0, 64, 104
2, 42592, Control_c, 0, 64, 56
2, 42600, Control_c, 0, 64, 24
2, 42612, Note_on_c, 0, 87, 0
2, 42612, Control_c, 0, 64, 0
2, 42620, Note_on_c, 0, 80, 0
2, 42656, Note_on_c, 0, 84, 80
2, 42684, Note_on_c, 0, 75, 62
2, 42724, Note_on_c, 0, 75, 0
2, 42724, Note_on_c, 0, 84, 0
2, 42776, Note_on_c, 0, 70, 81
2, 42784, Note_on_c, 0, 62, 64
2, 42788, Note_on_c, 0, 67, 67
2, 42808, Note_on_c, 0, 67, 0
2, 42808, Note_on_c, 0, 62, 0
2, 42820, Note_on_c, 0, 70, 0
2, 42896, Note_on_c, 0, 82, 79
2, 42896, Note_on_c, 0, 75, 77
2, 42948, Note_on_c, 0, 75, 0
2, 42948, Note_on_c, 0, 82, 0
2, 42992, Note_on_c, 0, 79, 77
2, 43012, Note_on_c, 0, 74, 62
2, 43052, Note_on_c, 0, 74, 0
2, 43056, Note_on_c, 0, 79, 0
2, 43104, Note_on_c, 0, 66, 65
2, 43108, Note_on_c, 0, 72, 78
2, 43108, Note_on_c, 0, 62, 63
2, 43136, Note_on_c, 0, 62, 0
2, 43140, Note_on_c, 0, 72, 0
2, 43148, Note_on_c, 0, 66, 0
2, 43212, Note_on_c, 0, 81, 71
2, 43212, Note_on_c, 0, 78, 63
2, 43220, Note_on_c, 0, 75, 54
2, 43240, Note_on_c, 0, 75, 0
2, 43248, Note_on_c, 0, 81, 0
2, 43264, Note_on_c, 0, 78, 0
2, 43312, Note_on_c, 0, 78, 42
2, 43320, Note_on_c, 0, 74, 59
2, 43380, Note_on_c, 0, 78, 0
2, 43392, Note_on_c, 0, 74, 0
2, 43420, Note_on_c, 0, 70, 82
2, 43428, Note_on_c, 0, 67, 72
2, 43468, Note_on_c, 0, 67, 0
2, 43468, Note_on_c, 0, 70, 0
2, 43524, Note_on_c, 0, 75, 78
2, 43528, Note_on_c, 0, 79, 75
2, 43588, Note_on_c, 0, 79, 0
2, 43596, Note_on_c, 0, 75, 0
2, 43628, Note_on_c, 0, 74, 80
2, 43660, Note_on_c, 0, 74, 0
2, 43752, Note_on_c, 0, 71, 75
2, 43752, Note_on_c, 0, 73, 33
2, 43756, Note_on_c, 0, 79, 75
2, 43764, Note_on_c, 0, 74, 82
2, 43776, Note_on_c, 0, 73, 0
2, 43784, Note_on_c, 0, 74, 0
2, 43800, Note_on_c, 0, 71, 0
2, 43804, Note_on_c, 0, 79, 0
2, 43856, Note_on_c, 0, 91, 83
2, 43868, Note_on_c, 0, 85, 63
2, 43912, Note_on_c, 0, 85, 0
2, 43920, Note_on_c, 0, 91, 0
2, 43960, Note_on_c, 0, 79, 73
2, 43964, Note_on_c, 0, 86, 85
2, 44012, Note_on_c, 0, 79, 0
2, 44036, Note_on_c, 0, 86, 0
2, 44072, Note_on_c, 0, 79, 71
2, 44076, Note_on_c, 0, 75, 60
2, 44076, Note_on_c, 0, 72, 75
2, 44100, Note_on_c, 0, 75, 0
2, 44116, Note_on_c, 0, 72, 0
2, 44116, Note_on_c, 0, 79, 0
2, 44164, Note_on_c, 0, 87, 71
2, 44176, Note_on_c, 0, 83, 59
2, 44200, Note_on_c, 0, 83, 0
2, 44224, Note_on_c, 0, 87, 0
2, 44268, Note_on_c, 0, 79, 66
2, 44272, Note_on_c, 0, 84, 80
2, 44312, Note_on_c, 0, 79, 0
2, 44324, Note_on_c, 0, 84, 0
2, 44380, Note_on_c, 0, 69, 65
2, 44384, Note_on_c, 0, 77, 73
2, 44392, Note_on_c, 0, 72, 60
2, 44412, Note_on_c, 0, 72, 0
2, 44424, Note_on_c, 0, 69, 0
2, 44428, Note_on_c, 0, 77, 0
2, 44484, Note_on_c, 0, 89, 75
2, 44488, Note_on_c, 0, 83, 70
2, 44540, Note_on_c, 0, 83, 0
2, 44548, Note_on_c, 0, 89, 0
2, 44592, Note_on_c, 0, 84, 80
2, 44600, Note_on_c, 0, 77, 67
2, 44624, Note_on_c, 0, 77, 0
2, 44656, Note_on_c, 0, 84, 0
2, 44704, Note_on_c, 0, 70, 64
2, 44704, Note_on_c, 0, 77, 74
2, 44712, Note_on_c, 0, 74, 47
2, 44732, Note_on_c, 0, 74, 0
2, 44732, Note_on_c, 0, 77, 0
2, 44748, Note_on_c, 0, 70, 0
2, 44800, Note_on_c, 0, 81, 62
2, 44800, Note_on_c, 0, 86, 69
2, 44828, Note_on_c, 0, 81, 0
2, 44852, Note_on_c, 0, 86, 0
2, 44904, Note_on_c, 0, 82, 71
2, 44912, Note_on_c, 0, 77, 62
2, 44940, Note_on_c, 0, 77, 0
2, 44964, Note_on_c, 0, 82, 0
2, 44968, Note_on_c, 0, 60, 70
2, 44972, Note_on_c, 0, 68, 49
2, 45020, Note_on_c, 0, 60, 0
2, 45024, Note_on_c, 0, 75, 81
2, 45028, Control_c, 0, 64, 56
2, 45040, Control_c, 0, 64, 88
2, 45048, Note_on_c, 0, 68, 0
2, 45048, Control_c, 0, 64, 127
2, 45052, Note_on_c, 0, 75, 0
2, 45108, Note_on_c, 0, 87, 65
2, 45124, Note_on_c, 0, 80, 62
2, 45156, Note_on_c, 0, 87, 0
2, 45172, Note_on_c, 0, 80, 0
2, 45196, Note_on_c, 0, 84, 75
2, 45232, Note_on_c, 0, 75, 40
2, 45256, Note_on_c, 0, 75, 0
2, 45256, Note_on_c, 0, 84, 0
2, 45272, Control_c, 0, 64, 88
2, 45280, Control_c, 0, 64, 72
2, 45292, Control_c, 0, 64, 40
2, 45304, Control_c, 0, 64, 0
2, 45324, Note_on_c, 0, 70, 79
2, 45332, Note_on_c, 0, 67, 71
2, 45336, Note_on_c, 0, 62, 60
2, 45352, Note_on_c, 0, 67, 0
2, 45356, Note_on_c, 0, 62, 0
2, 45360, Note_on_c, 0, 70, 0
2, 45432, Note_on_c, 0, 75, 79
2, 45432, Note_on_c, 0, 82, 73
2, 45484, Note_on_c, 0, 82, 0
2, 45488, Note_on_c, 0, 75, 0
2, 45532, Note_on_c, 0, 79, 73
2, 45536, Note_on_c, 0, 74, 66
2, 45576, Note_on_c, 0, 74, 0
2, 45596, Note_on_c, 0, 79, 0
2, 45640, Note_on_c, 0, 66, 66
2, 45644, Note_on_c, 0, 72, 73
2, 45644, Note_on_c, 0, 62, 66
2, 45664, Note_on_c, 0, 62, 0
2, 45672, Note_on_c, 0, 72, 0
2, 45680, Note_on_c, 0, 66, 0
2, 45740, Note_on_c, 0, 81, 77
2, 45748, Note_on_c, 0, 78, 56
2, 45756, Note_on_c, 0, 75, 31
2, 45776, Note_on_c, 0, 75, 0
2, 45784, Note_on_c, 0, 81, 0
2, 45800, Note_on_c, 0, 78, 0
2, 45840, Note_on_c, 0, 78, 57
2, 45852, Note_on_c, 0, 74, 63
2, 45912, Note_on_c, 0, 74, 0
2, 45912, Note_on_c, 0, 78, 0
2, 45944, Note_on_c, 0, 70, 77
2, 45952, Note_on_c, 0, 67, 69
2, 45988, Note_on_c, 0, 70, 0
2, 46000, Note_on_c, 0, 67, 0
2, 46044, Note_on_c, 0, 79, 74
2, 46052, Note_on_c, 0, 75, 66
2, 46116, Note_on_c, 0, 79, 0
2, 46120, Note_on_c, 0, 75, 0
2, 46152, Note_on_c, 0, 74, 71
2, 46200, Note_on_c, 0, 74, 0
2, 46272, Note_on_c, 0, 67, 72
2, 46276, Note_on_c, 0, 59, 60
2, 46280, Note_on_c, 0, 62, 56
2, 46304, Note_on_c, 0, 62, 0
2, 46304, Note_on_c, 0, 59, 0
2, 46308, Note_on_c, 0, 67, 0
2, 46372, Note_on_c, 0, 79, 71
2, 46384, Note_on_c, 0, 73, 52
2, 46436, Note_on_c, 0, 73, 0
2, 46440, Note_on_c, 0, 79, 0
2, 46468, Note_on_c, 0, 67, 69
2, 46476, Note_on_c, 0, 74, 72
2, 46520, Note_on_c, 0, 67, 0
2, 46532, Note_on_c, 0, 74, 0
2, 46580, Note_on_c, 0, 67, 66
2, 46580, Note_on_c, 0, 60, 78
2, 46580, Note_on_c, 0, 63, 59
2, 46612, Note_on_c, 0, 63, 0
2, 46612, Note_on_c, 0, 60, 0
2, 46612, Note_on_c, 0, 67, 0
2, 46664, Note_on_c, 0, 75, 64
2, 46668, Note_on_c, 0, 71, 67
2, 46724, Note_on_c, 0, 71, 0
2, 46728, Note_on_c, 0, 75, 0
2, 46776, Note_on_c, 0, 72, 79
2, 46780, Note_on_c, 0, 67, 54
2, 46820, Note_on_c, 0, 67, 0
2, 46840, Note_on_c, 0, 72, 0
2, 46876, Note_on_c, 0, 65, 73
2, 46880, Note_on_c, 0, 57, 69
2, 46880, Note_on_c, 0, 60, 70
2, 46908, Note_on_c, 0, 60, 0
2, 46920, Note_on_c, 0, 57, 0
2, 46920, Note_on_c, 0, 65, 0
2, 46984, Note_on_c, 0, 77, 78
2, 46988, Note_on_c, 0, 71, 64
2, 47040, Note_on_c, 0, 71, 0
2, 47040, Note_on_c, 0, 77, 0
2, 47092, Note_on_c, 0, 72, 78
2, 47096, Note_on_c, 0, 65, 66
2, 47156, Note_on_c, 0, 65, 0
2, 47164, Note_on_c, 0, 72, 0
2, 47184, Note_on_c, 0, 58, 70
2, 47192, Note_on_c, 0, 62, 72
2, 47192, Note_on_c, 0, 65, 56
2, 47212, Note_on_c, 0, 62, 0
2, 47220, Note_on_c, 0, 65, 0
2, 47232, Note_on_c, 0, 58, 0
2, 47284, Note_on_c, 0, 69, 78
2, 47292, Note_on_c, 0, 74, 66
2, 47328, Note_on_c, 0, 69, 0
2, 47344, Note_on_c, 0, 74, 0
2, 47380, Note_on_c, 0, 70, 67
2, 47388, Note_on_c, 0, 65, 62
2, 47412, Note_on_c, 0, 48, 77
2, 47440, Note_on_c, 0, 65, 0
2, 47440, Note_on_c, 0, 56, 50
2, 47448, Note_on_c, 0, 70, 0
2, 47464, Note_on_c, 0, 48, 0
2, 47472, Control_c, 0, 64, 56
2, 47484, Control_c, 0, 64, 104
2, 47488, Note_on_c, 0, 63, 89
2, 47496, Control_c, 0, 64, 127
2, 47512, Note_on_c, 0, 56, 0
2, 47520, Note_on_c, 0, 63, 0
2, 47584, Note_on_c, 0, 75, 52
2, 47604, Note_on_c, 0, 68, 43
2, 47636, Note_on_c, 0, 75, 0
2, 47644, Note_on_c, 0, 68, 0
2, 47676, Note_on_c, 0, 72, 72
2, 47708, Note_on_c, 0, 63, 37
2, 47732, Note_on_c, 0, 72, 0
2, 47768, Note_on_c, 0, 63, 0
2, 47788, Note_on_c, 0, 58, 70
2, 47792, Note_on_c, 0, 50, 72
2, 47792, Note_on_c, 0, 55, 73
2, 47800, Control_c, 0, 64, 88
2, 47812, Note_on_c, 0, 55, 0
2, 47812, Control_c, 0, 64, 56
2, 47816, Note_on_c, 0, 50, 0
2, 47824, Control_c, 0, 64, 24
2, 47828, Note_on_c, 0, 58, 0
2, 47836, Control_c, 0, 64, 0
2, 47892, Note_on_c, 0, 70, 69
2, 47896, Note_on_c, 0, 63, 60
2, 47940, Note_on_c, 0, 70, 0
2, 47956, Note_on_c, 0, 63, 0
2, 48000, Note_on_c, 0, 67, 69
2, 48004, Note_on_c, 0, 62, 69
2, 48056, Note_on_c, 0, 62, 0
2, 48068, Note_on_c, 0, 67, 0
2, 48112, Note_on_c, 0, 60, 80
2, 48112, Note_on_c, 0, 54, 67
2, 48116, Note_on_c, 0, 50, 77
2, 48152, Note_on_c, 0, 54, 0
2, 48156, Note_on_c, 0, 50, 0
2, 48160, Note_on_c, 0, 60, 0
2, 48212, Note_on_c, 0, 69, 79
2, 48224, Note_on_c, 0, 66, 50
2, 48264, Note_on_c, 0, 69, 0
2, 48276, Note_on_c, 0, 66, 0
2, 48316, Note_on_c, 0, 66, 46
2, 48320, Note_on_c, 0, 62, 66
2, 48384, Note_on_c, 0, 62, 0
2, 48388, Note_on_c, 0, 66, 0
2, 48432, Note_on_c, 0, 58, 70
2, 48436, Note_on_c, 0, 55, 75
2, 48476, Note_on_c, 0, 58, 0
2, 48484, Note_on_c, 0, 55, 0
2, 48544, Note_on_c, 0, 67, 80
2, 48544, Note_on_c, 0, 63, 72
2, 48604, Note_on_c, 0, 63, 0
2, 48612, Note_on_c, 0, 67, 0
2, 48648, Note_on_c, 0, 62, 69
2, 48668, Note_on_c, 0, 62, 0
2, 48756, Note_on_c, 0, 59, 74
2, 48760, Note_on_c, 0, 62, 79
2, 48760, Note_on_c, 0, 67, 80
2, 48796, Note_on_c, 0, 59, 0
2, 48804, Note_on_c, 0, 67, 0
2, 48804, Note_on_c, 0, 62, 0
2, 48868, Note_on_c, 0, 79, 87
2, 48876, Note_on_c, 0, 73, 65
2, 48924, Note_on_c, 0, 73, 0
2, 48936, Note_on_c, 0, 79, 0
2, 48972, Note_on_c, 0, 67, 63
2, 48980, Note_on_c, 0, 74, 85
2, 48992, Note_on_c, 0, 67, 0
2, 49040, Note_on_c, 0, 74, 0
2, 49080, Note_on_c, 0, 67, 79
2, 49080, Note_on_c, 0, 63, 66
2, 49084, Note_on_c, 0, 60, 69
2, 49120, Note_on_c, 0, 63, 0
2, 49124, Note_on_c, 0, 67, 0
2, 49132, Note_on_c, 0, 60, 0
2, 49172, Note_on_c, 0, 75, 74
2, 49200, Note_on_c, 0, 71, 25
2, 49224, Note_on_c, 0, 71, 0
2, 49236, Note_on_c, 0, 75, 0
2, 49272, Note_on_c, 0, 67, 63
2, 49276, Note_on_c, 0, 72, 82
2, 49324, Note_on_c, 0, 67, 0
2, 49332, Note_on_c, 0, 72, 0
2, 49372, Note_on_c, 0, 65, 71
2, 49376, Note_on_c, 0, 57, 60
2, 49380, Note_on_c, 0, 60, 59
2, 49408, Note_on_c, 0, 60, 0
2, 49412, Note_on_c, 0, 57, 0
2, 49412, Note_on_c, 0, 65, 0
2, 49480, Note_on_c, 0, 77, 77
2, 49480, Note_on_c, 0, 71, 72
2, 49528, Note_on_c, 0, 77, 0
2, 49532, Note_on_c, 0, 71, 0
2, 49576, Note_on_c, 0, 72, 81
2, 49580, Note_on_c, 0, 65, 62
2, 49628, Note_on_c, 0, 65, 0
2, 49632, Note_on_c, 0, 72, 0
2, 49680, Note_on_c, 0, 58, 64
2, 49680, Note_on_c, 0, 65, 75
2, 49680, Note_on_c, 0, 62, 70
2, 49704, Note_on_c, 0, 62, 0
2, 49708, Note_on_c, 0, 65, 0
2, 49724, Note_on_c, 0, 58, 0
2, 49784, Note_on_c, 0, 69, 71
2, 49784, Note_on_c, 0, 74, 75
2, 49836, Note_on_c, 0, 69, 0
2, 49844, Note_on_c, 0, 74, 0
2, 49880, Note_on_c, 0, 70, 59
2, 49892, Note_on_c, 0, 65, 54
2, 49896, Note_on_c, 0, 48, 78
2, 49936, Note_on_c, 0, 56, 51
2, 49948, Note_on_c, 0, 65, 0
2, 49952, Control_c, 0, 64, 56
2, 49956, Note_on_c, 0, 70, 0
2, 49960, Note_on_c, 0, 48, 0
2, 49960, Control_c, 0, 64, 127
2, 50008, Note_on_c, 0, 63, 98
2, 50032, Note_on_c, 0, 56, 0
2, 50036, Note_on_c, 0, 63, 0
2, 50104, Note_on_c, 0, 75, 66
2, 50116, Note_on_c, 0, 68, 58
2, 50160, Note_on_c, 0, 75, 0
2, 50168, Note_on_c, 0, 68, 0
2, 50204, Note_on_c, 0, 72, 75
2, 50252, Note_on_c, 0, 72, 0
2, 50320, Note_on_c, 0, 58, 77
2, 50320, Note_on_c, 0, 50, 80
2, 50320, Control_c, 0, 64, 104
2, 50328, Note_on_c, 0, 55, 75
2, 50332, Control_c, 0, 64, 56
2, 50340, Note_on_c, 0, 50, 0
2, 50344, Note_on_c, 0, 55, 0
2, 50344, Control_c, 0, 64, 24
2, 50356, Note_on_c, 0, 58, 0
2, 50356, Control_c, 0, 64, 0
2, 50420, Note_on_c, 0, 70, 74
2, 50428, Note_on_c, 0, 63, 66
2, 50472, Note_on_c, 0, 70, 0
2, 50484, Note_on_c, 0, 63, 0
2, 50524, Note_on_c, 0, 67, 71
2, 50536, Note_on_c, 0, 62, 63
2, 50572, Note_on_c, 0, 62, 0
2, 50588, Note_on_c, 0, 67, 0
2, 50628, Note_on_c, 0, 54, 69
2, 50632, Note_on_c, 0, 60, 78
2, 50636, Note_on_c, 0, 50, 67
2, 50672, Note_on_c, 0, 50, 0
2, 50672, Note_on_c, 0, 60, 0
2, 50672, Note_on_c, 0, 54, 0
2, 50748, Note_on_c, 0, 69, 71
2, 50748, Note_on_c, 0, 66, 54
2, 50748, Note_on_c, 0, 63, 48
2, 50784, Note_on_c, 0, 63, 0
2, 50792, Note_on_c, 0, 69, 0
2, 50800, Note_on_c, 0, 66, 0
2, 50848, Note_on_c, 0, 62, 60
2, 50912, Note_on_c, 0, 62, 0
2, 50948, Note_on_c, 0, 55, 70
2, 50952, Note_on_c, 0, 58, 58
2, 50996, Note_on_c, 0, 58, 0
2, 51004, Note_on_c, 0, 55, 0
2, 51056, Note_on_c, 0, 63, 56
2, 51064, Note_on_c, 0, 67, 52
2, 51128, Note_on_c, 0, 63, 0
2, 51136, Control_c, 0, 64, 40
2, 51140, Note_on_c, 0, 67, 0
2, 51148, Note_on_c, 0, 62, 64
2, 51148, Control_c, 0, 64, 88
2, 51160, Control_c, 0, 64, 127
2, 51176, Note_on_c, 0, 62, 0
2, 51352, Note_on_c, 0, 74, 80
2, 51360, Note_on_c, 0, 70, 56
2, 51360, Note_on_c, 0, 67, 50
2, 51400, Control_c, 0, 64, 88
2, 51412, Control_c, 0, 64, 0
2, 51484, Control_c, 0, 64, 56
2, 51496, Note_on_c, 0, 62, 52
2, 51500, Control_c, 0, 64, 127
2, 51536, Note_on_c, 0, 74, 0
2, 51560, Note_on_c, 0, 70, 0
2, 51620, Note_on_c, 0, 55, 64
2, 51628, Note_on_c, 0, 62, 0
2, 51648, Note_on_c, 0, 67, 0
2, 51648, Note_on_c, 0, 74, 90
2, 51660, Note_on_c, 0, 70, 51
2, 51672, Note_on_c, 0, 55, 0
2, 51680, Note_on_c, 0, 70, 0
2, 51720, Note_on_c, 0, 74, 0
2, 51796, Note_on_c, 0, 74, 87
2, 51800, Note_on_c, 0, 53, 43
2, 51808, Note_on_c, 0, 69, 54
2, 51816, Control_c, 0, 64, 40
2, 51824, Control_c, 0, 64, 0
2, 51888, Control_c, 0, 64, 24
2, 51900, Note_on_c, 0, 74, 0
2, 51900, Control_c, 0, 64, 104
2, 51908, Note_on_c, 0, 53, 0
2, 51908, Control_c, 0, 64, 127
2, 51916, Note_on_c, 0, 75, 83
2, 51932, Note_on_c, 0, 62, 44
2, 51972, Note_on_c, 0, 69, 0
2, 51988, Note_on_c, 0, 75, 0
2, 52016, Note_on_c, 0, 62, 0
2, 52024, Note_on_c, 0, 74, 94
2, 52032, Note_on_c, 0, 65, 58
2, 52056, Note_on_c, 0, 65, 0
2, 52112, Note_on_c, 0, 74, 0
2, 52144, Control_c, 0, 64, 88
2, 52148, Note_on_c, 0, 72, 88
2, 52152, Control_c, 0, 64, 0
2, 52156, Note_on_c, 0, 67, 59
2, 52160, Note_on_c, 0, 63, 54
2, 52228, Note_on_c, 0, 72, 0
2, 52240, Control_c, 0, 64, 104
2, 52248, Control_c, 0, 64, 127
2, 52264, Note_on_c, 0, 74, 88
2, 52268, Note_on_c, 0, 63, 0
2, 52276, Note_on_c, 0, 60, 54
2, 52316, Note_on_c, 0, 67, 0
2, 52328, Note_on_c, 0, 74, 0
2, 52356, Note_on_c, 0, 60, 0
2, 52360, Note_on_c, 0, 72, 90
2, 52372, Note_on_c, 0, 51, 57
2, 52420, Note_on_c, 0, 51, 0
2, 52444, Note_on_c, 0, 72, 0
2, 52472, Control_c, 0, 64, 88
2, 52476, Note_on_c, 0, 70, 85
2, 52484, Control_c, 0, 64, 0
2, 52488, Note_on_c, 0, 67, 59
2, 52496, Note_on_c, 0, 50, 71
2, 52556, Note_on_c, 0, 67, 0
2, 52556, Control_c, 0, 64, 40
2, 52564, Control_c, 0, 64, 127
2, 52572, Note_on_c, 0, 70, 0
2, 52584, Note_on_c, 0, 50, 0
2, 52584, Note_on_c, 0, 72, 92
2, 52604, Note_on_c, 0, 58, 34
2, 52648, Note_on_c, 0, 72, 0
2, 52684, Note_on_c, 0, 58, 0
2, 52688, Note_on_c, 0, 70, 88
2, 52704, Note_on_c, 0, 62, 48
2, 52728, Note_on_c, 0, 62, 0
2, 52772, Note_on_c, 0, 70, 0
2, 52808, Note_on_c, 0, 69, 89
2, 52820, Note_on_c, 0, 63, 42
2, 52824, Note_on_c, 0, 60, 72
2, 52828, Control_c, 0, 64, 72
2, 52840, Control_c, 0, 64, 0
2, 52892, Note_on_c, 0, 63, 0
2, 52912, Note_on_c, 0, 70, 87
2, 52916, Note_on_c, 0, 54, 57
2, 52924, Note_on_c, 0, 69, 0
2, 52924, Control_c, 0, 64, 127
2, 52940, Note_on_c, 0, 60, 0
2, 52992, Note_on_c, 0, 70, 0
2, 53020, Note_on_c, 0, 54, 0
2, 53024, Note_on_c, 0, 69, 87
2, 53028, Note_on_c, 0, 48, 70
2, 53060, Note_on_c, 0, 48, 0
2, 53104, Note_on_c, 0, 69, 0
2, 53136, Control_c, 0, 64, 104
2, 53144, Note_on_c, 0, 67, 85
2, 53148, Note_on_c, 0, 62, 56
2, 53148, Control_c, 0, 64, 0
2, 53164, Note_on_c, 0, 46, 62
2, 53220, Note_on_c, 0, 67, 0
2, 53244, Control_c, 0, 64, 72
2, 53252, Note_on_c, 0, 69, 90
2, 53256, Note_on_c, 0, 46, 0
2, 53256, Control_c, 0, 64, 127
2, 53272, Note_on_c, 0, 55, 48
2, 53320, Note_on_c, 0, 69, 0
2, 53336, Note_on_c, 0, 62, 0
2, 53344, Note_on_c, 0, 55, 0
2, 53356, Note_on_c, 0, 67, 86
2, 53372, Note_on_c, 0, 58, 41
2, 53400, Note_on_c, 0, 58, 0
2, 53420, Note_on_c, 0, 67, 0
2, 53468, Control_c, 0, 64, 104
2, 53476, Control_c, 0, 64, 24
2, 53484, Note_on_c, 0, 62, 85
2, 53488, Control_c, 0, 64, 0
2, 53492, Note_on_c, 0, 57, 50
2, 53496, Note_on_c, 0, 60, 60
2, 53584, Note_on_c, 0, 62, 0
2, 53592, Note_on_c, 0, 64, 86
2, 53600, Note_on_c, 0, 50, 39
2, 53616, Control_c, 0, 64, 40
2, 53624, Control_c, 0, 64, 104
2, 53636, Control_c, 0, 64, 127
2, 53680, Note_on_c, 0, 64, 0
2, 53688, Note_on_c, 0, 50, 0
2, 53696, Note_on_c, 0, 66, 87
2, 53700, Note_on_c, 0, 57, 0
2, 53712, Note_on_c, 0, 45, 58
2, 53716, Note_on_c, 0, 60, 0
2, 53736, Note_on_c, 0, 45, 0
2, 53784, Note_on_c, 0, 66, 0
2, 53836, Control_c, 0, 64, 88
2, 53840, Note_on_c, 0, 67, 88
2, 53840, Note_on_c, 0, 43, 58
2, 53840, Note_on_c, 0, 58, 40
2, 53840, Note_on_c, 0, 62, 59
2, 53848, Control_c, 0, 64, 0
2, 53948, Note_on_c, 0, 43, 0
2, 53972, Note_on_c, 0, 62, 0
2, 53976, Note_on_c, 0, 50, 50
2, 53996, Note_on_c, 0, 58, 0
2, 54008, Control_c, 0, 64, 127
2, 54036, Note_on_c, 0, 67, 0
2, 54068, Note_on_c, 0, 50, 0
2, 54080, Note_on_c, 0, 55, 58
2, 54108, Note_on_c, 0, 55, 0
2, 54200, Note_on_c, 0, 67, 82
2, 54200, Control_c, 0, 64, 40
2, 54208, Control_c, 0, 64, 0
2, 54212, Note_on_c, 0, 59, 59
2, 54212, Note_on_c, 0, 62, 60
2, 54216, Note_on_c, 0, 65, 48
2, 54244, Note_on_c, 0, 65, 0
2, 54260, Control_c, 0, 64, 104
2, 54272, Control_c, 0, 64, 127
2, 54288, Note_on_c, 0, 59, 0
2, 54296, Note_on_c, 0, 67, 0
2, 54304, Note_on_c, 0, 68, 86
2, 54316, Note_on_c, 0, 55, 58
2, 54352, Note_on_c, 0, 62, 0
2, 54392, Note_on_c, 0, 68, 0
2, 54408, Note_on_c, 0, 55, 0
2, 54412, Note_on_c, 0, 67, 85
2, 54420, Note_on_c, 0, 47, 64
2, 54440, Note_on_c, 0, 47, 0
2, 54472, Note_on_c, 0, 67, 0
2, 54524, Control_c, 0, 64, 0
2, 54536, Note_on_c, 0, 67, 89
2, 54544, Note_on_c, 0, 63, 58
2, 54552, Note_on_c, 0, 48, 71
2, 54568, Note_on_c, 0, 63, 0
2, 54608, Control_c, 0, 64, 127
2, 54616, Note_on_c, 0, 48, 0
2, 54644, Note_on_c, 0, 67, 0
2, 54652, Note_on_c, 0, 72, 88
2, 54656, Note_on_c, 0, 55, 57
2, 54720, Note_on_c, 0, 72, 0
2, 54744, Note_on_c, 0, 55, 0
2, 54760, Note_on_c, 0, 67, 92
2, 54768, Note_on_c, 0, 60, 60
2, 54792, Note_on_c, 0, 60, 0
2, 54808, Note_on_c, 0, 67, 0
2, 54884, Note_on_c, 0, 65, 89
2, 54896, Note_on_c, 0, 63, 56
2, 54896, Note_on_c, 0, 60, 49
2, 54896, Control_c, 0, 64, 24
2, 54900, Note_on_c, 0, 57, 58
2, 54904, Control_c, 0, 64, 0
2, 54980, Control_c, 0, 64, 88
2, 54988, Note_on_c, 0, 63, 0
2, 54992, Control_c, 0, 64, 127
2, 54996, Note_on_c, 0, 65, 0
2, 54996, Note_on_c, 0, 57, 0
2, 55004, Note_on_c, 0, 67, 88
2, 55008, Note_on_c, 0, 53, 43
2, 55060, Note_on_c, 0, 60, 0
2, 55076, Note_on_c, 0, 67, 0
2, 55092, Note_on_c, 0, 53, 0
2, 55108, Note_on_c, 0, 65, 87
2, 55112, Note_on_c, 0, 45, 71
2, 55144, Note_on_c, 0, 45, 0
2, 55168, Note_on_c, 0, 65, 0
2, 55216, Control_c, 0, 64, 56
2, 55224, Control_c, 0, 64, 0
2, 55232, Note_on_c, 0, 62, 64
2, 55232, Note_on_c, 0, 46, 62
2, 55232, Note_on_c, 0, 65, 89
2, 55268, Note_on_c, 0, 62, 0
2, 55288, Control_c, 0, 64, 88
2, 55300, Control_c, 0, 64, 127
2, 55316, Note_on_c, 0, 46, 0
2, 55324, Note_on_c, 0, 65, 0
2, 55348, Note_on_c, 0, 53, 55
2, 55348, Note_on_c, 0, 70, 85
2, 55408, Note_on_c, 0, 70, 0
2, 55424, Note_on_c, 0, 53, 0
2, 55448, Note_on_c, 0, 65, 86
2, 55452, Note_on_c, 0, 58, 52
2, 55492, Note_on_c, 0, 58, 0
2, 55520, Control_c, 0, 64, 56
2, 55528, Control_c, 0, 64, 0
2, 55540, Note_on_c, 0, 65, 0
2, 55560, Note_on_c, 0, 63, 85
2, 55564, Note_on_c, 0, 56, 64
2, 55572, Note_on_c, 0, 48, 62
2, 55572, Note_on_c, 0, 51, 56
2, 55572, Note_on_c, 0, 60, 65
2, 55572, Control_c, 0, 64, 40
2, 55584, Control_c, 0, 64, 104
2, 55592, Note_on_c, 0, 51, 0
2, 55592, Note_on_c, 0, 48, 0
2, 55596, Control_c, 0, 64, 127
2, 55600, Note_on_c, 0, 56, 0
2, 55640, Note_on_c, 0, 60, 0
2, 55644, Note_on_c, 0, 63, 0
2, 55664, Note_on_c, 0, 65, 83
2, 55724, Note_on_c, 0, 36, 85
2, 55724, Control_c, 0, 64, 72
2, 55752, Control_c, 0, 64, 127
2, 55756, Note_on_c, 0, 65, 0
2, 55768, Note_on_c, 0, 36, 0
2, 55772, Note_on_c, 0, 63, 88
2, 55848, Note_on_c, 0, 63, 0
2, 55860, Control_c, 0, 64, 56
2, 55868, Control_c, 0, 64, 0
2, 55896, Note_on_c, 0, 62, 96
2, 55896, Note_on_c, 0, 55, 75
2, 55900, Note_on_c, 0, 50, 72
2, 55900, Note_on_c, 0, 58, 49
2, 55904, Note_on_c, 0, 46, 58
2, 55928, Note_on_c, 0, 50, 0
2, 55936, Note_on_c, 0, 55, 0
2, 55936, Control_c, 0, 64, 88
2, 55944, Control_c, 0, 64, 127
2, 55956, Note_on_c, 0, 46, 0
2, 55976, Note_on_c, 0, 62, 0
2, 55992, Note_on_c, 0, 63, 78
2, 56024, Note_on_c, 0, 58, 0
2, 56048, Control_c, 0, 64, 40
2, 56060, Note_on_c, 0, 38, 73
2, 56060, Control_c, 0, 64, 0
2, 56072, Control_c, 0, 64, 24
2, 56076, Note_on_c, 0, 63, 0
2, 56080, Control_c, 0, 64, 56
2, 56092, Control_c, 0, 64, 104
2, 56104, Control_c, 0, 64, 127
2, 56112, Note_on_c, 0, 38, 0
2, 56112, Note_on_c, 0, 62, 93
2, 56176, Control_c, 0, 64, 56
2, 56188, Note_on_c, 0, 62, 0
2, 56188, Control_c, 0, 64, 0
2, 56232, Note_on_c, 0, 54, 69
2, 56236, Note_on_c, 0, 62, 75
2, 56240, Note_on_c, 0, 48, 66
2, 56240, Control_c, 0, 64, 88
2, 56244, Note_on_c, 0, 57, 69
2, 56244, Note_on_c, 0, 50, 48
2, 56248, Control_c, 0, 64, 127
2, 56260, Note_on_c, 0, 48, 0
2, 56268, Note_on_c, 0, 50, 0
2, 56276, Note_on_c, 0, 54, 0
2, 56300, Note_on_c, 0, 57, 0
2, 56340, Note_on_c, 0, 62, 0
2, 56344, Note_on_c, 0, 63, 80
2, 56368, Note_on_c, 0, 38, 77
2, 56412, Note_on_c, 0, 38, 0
2, 56416, Note_on_c, 0, 63, 0
2, 56448, Note_on_c, 0, 62, 97
2, 56508, Note_on_c, 0, 62, 0
2, 56556, Control_c, 0, 64, 40
2, 56568, Control_c, 0, 64, 0
2, 56584, Note_on_c, 0, 62, 93
2, 56596, Note_on_c, 0, 58, 50
2, 56596, Note_on_c, 0, 50, 51
2, 56600, Note_on_c, 0, 55, 47
2, 56608, Note_on_c, 0, 43, 66
2, 56676, Control_c, 0, 64, 72
2, 56680, Note_on_c, 0, 58, 0
2, 56684, Control_c, 0, 64, 127
2, 56700, Note_on_c, 0, 55, 0
2, 56700, Note_on_c, 0, 43, 0
2, 56704, Note_on_c, 0, 62, 0
2, 56708, Note_on_c, 0, 50, 0
2, 56932, Note_on_c, 0, 74, 92
2, 56940, Note_on_c, 0, 70, 69
2, 56952, Control_c, 0, 64, 0
2, 56956, Note_on_c, 0, 67, 56
2, 57024, Control_c, 0, 64, 72
2, 57036, Control_c, 0, 64, 127
2, 57060, Note_on_c, 0, 62, 66
2, 57088, Note_on_c, 0, 74, 0
2, 57124, Note_on_c, 0, 70, 0
2, 57168, Note_on_c, 0, 74, 96
2, 57172, Note_on_c, 0, 62, 0
2, 57180, Note_on_c, 0, 55, 55
2, 57180, Note_on_c, 0, 70, 42
2, 57188, Note_on_c, 0, 67, 0
2, 57200, Note_on_c, 0, 70, 0
2, 57208, Note_on_c, 0, 55, 0
2, 57244, Note_on_c, 0, 74, 0
2, 57300, Note_on_c, 0, 69, 79
2, 57304, Note_on_c, 0, 74, 85
2, 57332, Control_c, 0, 64, 88
2, 57340, Control_c, 0, 64, 0
2, 57344, Note_on_c, 0, 53, 56
2, 57404, Note_on_c, 0, 74, 0
2, 57416, Note_on_c, 0, 75, 83
2, 57424, Note_on_c, 0, 53, 0
2, 57428, Note_on_c, 0, 62, 52
2, 57428, Control_c, 0, 64, 127
2, 57492, Note_on_c, 0, 75, 0
2, 57500, Note_on_c, 0, 69, 0
2, 57508, Note_on_c, 0, 62, 0
2, 57524, Note_on_c, 0, 74, 95
2, 57524, Note_on_c, 0, 65, 54
2, 57552, Note_on_c, 0, 65, 0
2, 57584, Note_on_c, 0, 74, 0
2, 57636, Note_on_c, 0, 67, 72
2, 57644, Note_on_c, 0, 72, 89
2, 57660, Note_on_c, 0, 63, 62
2, 57660, Control_c, 0, 64, 88
2, 57672, Control_c, 0, 64, 0
2, 57716, Note_on_c, 0, 72, 0
2, 57744, Control_c, 0, 64, 56
2, 57752, Note_on_c, 0, 74, 78
2, 57752, Control_c, 0, 64, 127
2, 57772, Note_on_c, 0, 63, 0
2, 57776, Note_on_c, 0, 60, 50
2, 57812, Note_on_c, 0, 60, 0
2, 57820, Note_on_c, 0, 74, 0
2, 57852, Note_on_c, 0, 51, 69
2, 57860, Note_on_c, 0, 72, 89
2, 57892, Note_on_c, 0, 67, 0
2, 57908, Note_on_c, 0, 51, 0
2, 57936, Note_on_c, 0, 72, 0
2, 57976, Note_on_c, 0, 70, 83
2, 57976, Control_c, 0, 64, 104
2, 57988, Control_c, 0, 64, 24
2, 57996, Note_on_c, 0, 67, 42
2, 57996, Control_c, 0, 64, 0
2, 58004, Note_on_c, 0, 50, 66
2, 58072, Note_on_c, 0, 70, 0
2, 58092, Note_on_c, 0, 72, 85
2, 58092, Control_c, 0, 64, 127
2, 58112, Note_on_c, 0, 58, 40
2, 58148, Note_on_c, 0, 72, 0
2, 58148, Note_on_c, 0, 67, 0
2, 58184, Note_on_c, 0, 50, 0
2, 58188, Note_on_c, 0, 70, 79
2, 58196, Note_on_c, 0, 58, 0
2, 58204, Note_on_c, 0, 62, 52
2, 58232, Note_on_c, 0, 62, 0
2, 58272, Note_on_c, 0, 70, 0
2, 58312, Note_on_c, 0, 69, 88
2, 58324, Note_on_c, 0, 63, 35
2, 58324, Control_c, 0, 64, 56
2, 58328, Note_on_c, 0, 60, 54
2, 58336, Control_c, 0, 64, 0
2, 58416, Note_on_c, 0, 70, 88
2, 58420, Note_on_c, 0, 54, 55
2, 58432, Control_c, 0, 64, 127
2, 58448, Note_on_c, 0, 60, 0
2, 58452, Note_on_c, 0, 69, 0
2, 58464, Note_on_c, 0, 63, 0
2, 58500, Note_on_c, 0, 70, 0
2, 58516, Note_on_c, 0, 54, 0
2, 58524, Note_on_c, 0, 48, 67
2, 58528, Note_on_c, 0, 69, 95
2, 58564, Note_on_c, 0, 48, 0
2, 58608, Note_on_c, 0, 69, 0
2, 58644, Note_on_c, 0, 67, 89
2, 58644, Control_c, 0, 64, 72
2, 58652, Note_on_c, 0, 62, 66
2, 58656, Control_c, 0, 64, 0
2, 58664, Note_on_c, 0, 46, 60
2, 58724, Note_on_c, 0, 67, 0
2, 58728, Control_c, 0, 64, 56
2, 58740, Control_c, 0, 64, 127
2, 58760, Note_on_c, 0, 46, 0
2, 58760, Note_on_c, 0, 69, 90
2, 58776, Note_on_c, 0, 55, 52
2, 58828, Note_on_c, 0, 69, 0
2, 58840, Note_on_c, 0, 62, 0
2, 58856, Note_on_c, 0, 55, 0
2, 58856, Note_on_c, 0, 67, 87
2, 58872, Note_on_c, 0, 58, 43
2, 58920, Note_on_c, 0, 58, 0
2, 58920, Note_on_c, 0, 67, 0
2, 58980, Note_on_c, 0, 62, 83
2, 58988, Note_on_c, 0, 60, 62
2, 58992, Control_c, 0, 64, 104
2, 59000, Note_on_c, 0, 57, 63
2, 59004, Control_c, 0, 64, 0
2, 59092, Note_on_c, 0, 62, 0
2, 59092, Note_on_c, 0, 64, 87
2, 59100, Control_c, 0, 64, 72
2, 59104, Note_on_c, 0, 50, 51
2, 59108, Control_c, 0, 64, 127
2, 59164, Note_on_c, 0, 57, 0
2, 59180, Note_on_c, 0, 50, 0
2, 59180, Note_on_c, 0, 64, 0
2, 59192, Note_on_c, 0, 66, 87
2, 59196, Note_on_c, 0, 45, 72
2, 59236, Note_on_c, 0, 45, 0
2, 59236, Note_on_c, 0, 60, 0
2, 59276, Note_on_c, 0, 66, 0
2, 59332, Note_on_c, 0, 67, 89
2, 59336, Note_on_c, 0, 58, 48
2, 59340, Note_on_c, 0, 62, 64
2, 59344, Control_c, 0, 64, 72
2, 59352, Note_on_c, 0, 43, 67
2, 59352, Control_c, 0, 64, 0
2, 59464, Note_on_c, 0, 50, 60
2, 59480, Control_c, 0, 64, 127
2, 59492, Note_on_c, 0, 62, 0
2, 59508, Note_on_c, 0, 58, 0
2, 59532, Note_on_c, 0, 67, 0
2, 59532, Note_on_c, 0, 43, 0
2, 59572, Note_on_c, 0, 50, 0
2, 59576, Note_on_c, 0, 55, 66
2, 59600, Note_on_c, 0, 55, 0
2, 59700, Note_on_c, 0, 67, 81
2, 59712, Note_on_c, 0, 62, 59
2, 59712, Control_c, 0, 64, 24
2, 59716, Note_on_c, 0, 59, 67
2, 59720, Control_c, 0, 64, 0
2, 59724, Note_on_c, 0, 65, 35
2, 59748, Note_on_c, 0, 65, 0
2, 59784, Note_on_c, 0, 59, 0
2, 59788, Control_c, 0, 64, 104
2, 59792, Note_on_c, 0, 67, 0
2, 59796, Control_c, 0, 64, 127
2, 59804, Note_on_c, 0, 68, 82
2, 59816, Note_on_c, 0, 55, 58
2, 59860, Note_on_c, 0, 62, 0
2, 59884, Note_on_c, 0, 55, 0
2, 59884, Note_on_c, 0, 68, 0
2, 59912, Note_on_c, 0, 67, 95
2, 59916, Note_on_c, 0, 47, 72
2, 59968, Note_on_c, 0, 47, 0
2, 59976, Note_on_c, 0, 67, 0
2, 60008, Control_c, 0, 64, 104
2, 60020, Control_c, 0, 64, 40
2, 60032, Note_on_c, 0, 67, 83
2, 60032, Control_c, 0, 64, 0
2, 60040, Note_on_c, 0, 63, 63
2, 60044, Note_on_c, 0, 48, 73
2, 60116, Note_on_c, 0, 63, 0
2, 60116, Control_c, 0, 64, 127
2, 60124, Note_on_c, 0, 48, 0
2, 60148, Note_on_c, 0, 55, 57
2, 60160, Note_on_c, 0, 72, 73
2, 60188, Note_on_c, 0, 67, 0
2, 60220, Note_on_c, 0, 72, 0
2, 60244, Note_on_c, 0, 55, 0
2, 60256, Note_on_c, 0, 67, 92
2, 60260, Note_on_c, 0, 60, 59
2, 60288, Note_on_c, 0, 60, 0
2, 60304, Note_on_c, 0, 67, 0
2, 60388, Note_on_c, 0, 65, 89
2, 60392, Note_on_c, 0, 60, 62
2, 60396, Note_on_c, 0, 63, 55
2, 60400, Note_on_c, 0, 57, 62
2, 60400, Control_c, 0, 64, 0
2, 60468, Note_on_c, 0, 63, 0
2, 60480, Note_on_c, 0, 65, 0
2, 60496, Note_on_c, 0, 67, 85
2, 60496, Control_c, 0, 64, 104
2, 60500, Note_on_c, 0, 57, 0
2, 60500, Note_on_c, 0, 53, 55
2, 60508, Control_c, 0, 64, 127
2, 60544, Note_on_c, 0, 60, 0
2, 60564, Note_on_c, 0, 67, 0
2, 60568, Note_on_c, 0, 53, 0
2, 60596, Note_on_c, 0, 65, 97
2, 60600, Note_on_c, 0, 45, 57
2, 60648, Note_on_c, 0, 45, 0
2, 60660, Note_on_c, 0, 65, 0
2, 60708, Control_c, 0, 64, 104
2, 60716, Note_on_c, 0, 65, 85
2, 60720, Control_c, 0, 64, 0
2, 60724, Note_on_c, 0, 46, 72
2, 60728, Note_on_c, 0, 62, 63
2, 60792, Control_c, 0, 64, 104
2, 60800, Note_on_c, 0, 62, 0
2, 60804, Control_c, 0, 64, 127
2, 60808, Note_on_c, 0, 65, 0
2, 60816, Note_on_c, 0, 46, 0
2, 60836, Note_on_c, 0, 70, 79
2, 60840, Note_on_c, 0, 53, 62
2, 60896, Note_on_c, 0, 70, 0
2, 60904, Note_on_c, 0, 53, 0
2, 60932, Note_on_c, 0, 65, 83
2, 60944, Note_on_c, 0, 58, 51
2, 60988, Note_on_c, 0, 58, 0
2, 61012, Note_on_c, 0, 65, 0
2, 61024, Control_c, 0, 64, 40
2, 61036, Control_c, 0, 64, 0
2, 61052, Note_on_c, 0, 63, 83
2, 61064, Note_on_c, 0, 60, 72
2, 61068, Note_on_c, 0, 56, 58
2, 61076, Note_on_c, 0, 51, 49
2, 61088, Note_on_c, 0, 48, 43
2, 61092, Note_on_c, 0, 51, 0
2, 61092, Note_on_c, 0, 56, 0
2, 61092, Control_c, 0, 64, 72
2, 61100, Control_c, 0, 64, 127
2, 61108, Note_on_c, 0, 48, 0
2, 61136, Note_on_c, 0, 60, 0
2, 61136, Note_on_c, 0, 63, 0
2, 61164, Note_on_c, 0, 65, 78
2, 61216, Note_on_c, 0, 36, 80
2, 61216, Control_c, 0, 64, 88
2, 61228, Control_c, 0, 64, 72
2, 61248, Control_c, 0, 64, 104
2, 61256, Note_on_c, 0, 65, 0
2, 61260, Note_on_c, 0, 36, 0
2, 61260, Control_c, 0, 64, 127
2, 61276, Note_on_c, 0, 63, 81
2, 61348, Note_on_c, 0, 63, 0
2, 61364, Control_c, 0, 64, 104
2, 61376, Control_c, 0, 64, 0
2, 61396, Note_on_c, 0, 62, 94
2, 61396, Note_on_c, 0, 50, 81
2, 61400, Note_on_c, 0, 46, 71
2, 61400, Note_on_c, 0, 55, 75
2, 61400, Note_on_c, 0, 58, 55
2, 61424, Note_on_c, 0, 55, 0
2, 61424, Note_on_c, 0, 50, 0
2, 61436, Control_c, 0, 64, 88
2, 61444, Note_on_c, 0, 46, 0
2, 61448, Control_c, 0, 64, 127
2, 61480, Note_on_c, 0, 62, 0
2, 61484, Note_on_c, 0, 58, 0
2, 61496, Note_on_c, 0, 63, 74
2, 61532, Control_c, 0, 64, 40
2, 61536, Note_on_c, 0, 38, 77
2, 61544, Control_c, 0, 64, 0
2, 61576, Control_c, 0, 64, 56
2, 61588, Note_on_c, 0, 63, 0
2, 61588, Control_c, 0, 64, 104
2, 61592, Note_on_c, 0, 38, 0
2, 61600, Control_c, 0, 64, 127
2, 61620, Note_on_c, 0, 62, 92
2, 61672, Control_c, 0, 64, 104
2, 61680, Control_c, 0, 64, 0
2, 61692, Note_on_c, 0, 62, 0
2, 61724, Note_on_c, 0, 54, 77
2, 61732, Note_on_c, 0, 50, 77
2, 61732, Note_on_c, 0, 48, 75
2, 61736, Note_on_c, 0, 62, 70
2, 61736, Control_c, 0, 64, 40
2, 61744, Note_on_c, 0, 57, 71
2, 61744, Control_c, 0, 64, 104
2, 61748, Note_on_c, 0, 50, 0
2, 61756, Control_c, 0, 64, 127
2, 61760, Note_on_c, 0, 48, 0
2, 61764, Note_on_c, 0, 54, 0
2, 61800, Note_on_c, 0, 57, 0
2, 61832, Control_c, 0, 64, 104
2, 61836, Note_on_c, 0, 62, 0
2, 61844, Note_on_c, 0, 63, 74
2, 61844, Control_c, 0, 64, 127
2, 61864, Note_on_c, 0, 38, 77
2, 61920, Note_on_c, 0, 38, 0
2, 61924, Note_on_c, 0, 63, 0
2, 61952, Note_on_c, 0, 62, 86
2, 62016, Note_on_c, 0, 62, 0
2, 62064, Control_c, 0, 64, 104
2, 62072, Control_c, 0, 64, 24
2, 62080, Note_on_c, 0, 62, 87
2, 62080, Note_on_c, 0, 58, 66
2, 62084, Control_c, 0, 64, 0
2, 62092, Note_on_c, 0, 55, 72
2, 62092, Note_on_c, 0, 43, 71
2, 62092, Note_on_c, 0, 50, 72
2, 62352, Note_on_c, 0, 43, 0
2, 62352, Note_on_c, 0, 55, 0
2, 62372, Note_on_c, 0, 58, 0
2, 62380, Note_on_c, 0, 50, 0
2, 62384, Note_on_c, 0, 62, 0
2, 62412, Note_on_c, 0, 55, 73
2, 62424, Control_c, 0, 64, 24
2, 62432, Control_c, 0, 64, 72
2, 62444, Control_c, 0, 64, 104
2, 62452, Control_c, 0, 64, 127
2, 62496, Note_on_c, 0, 55, 0
2, 62500, Note_on_c, 0, 62, 62
2, 62500, Note_on_c, 0, 58, 51
2, 62548, Note_on_c, 0, 58, 0
2, 62552, Note_on_c, 0, 62, 0
2, 62564, Control_c, 0, 64, 104
2, 62568, Note_on_c, 0, 67, 71
2, 62572, Control_c, 0, 64, 88
2, 62580, Control_c, 0, 64, 56
2, 62592, Control_c, 0, 64, 40
2, 62600, Control_c, 0, 64, 0
2, 62604, Note_on_c, 0, 67, 0
2, 62648, Note_on_c, 0, 58, 56
2, 62652, Note_on_c, 0, 62, 62
2, 62708, Note_on_c, 0, 58, 0
2, 62720, Note_on_c, 0, 62, 0
2, 62728, Note_on_c, 0, 56, 86
2, 62792, Note_on_c, 0, 56, 0
2, 62808, Note_on_c, 0, 62, 63
2, 62816, Note_on_c, 0, 65, 72
2, 62820, Note_on_c, 0, 59, 60
2, 62832, Control_c, 0, 64, 40
2, 62840, Control_c, 0, 64, 88
2, 62852, Control_c, 0, 64, 104
2, 62860, Control_c, 0, 64, 127
2, 62864, Note_on_c, 0, 59, 0
2, 62872, Note_on_c, 0, 65, 0
2, 62880, Note_on_c, 0, 62, 0
2, 62896, Note_on_c, 0, 68, 77
2, 62916, Control_c, 0, 64, 104
2, 62948, Note_on_c, 0, 68, 0
2, 62952, Control_c, 0, 64, 72
2, 62956, Note_on_c, 0, 62, 56
2, 62960, Note_on_c, 0, 59, 60
2, 62968, Note_on_c, 0, 65, 60
2, 62972, Control_c, 0, 64, 56
2, 62980, Control_c, 0, 64, 40
2, 62992, Control_c, 0, 64, 24
2, 63000, Control_c, 0, 64, 0
2, 63012, Note_on_c, 0, 62, 0
2, 63016, Note_on_c, 0, 59, 0
2, 63024, Note_on_c, 0, 65, 0
2, 63044, Note_on_c, 0, 55, 81
2, 63112, Note_on_c, 0, 55, 0
2, 63128, Note_on_c, 0, 63, 59
2, 63136, Note_on_c, 0, 60, 64
2, 63184, Note_on_c, 0, 60, 0
2, 63188, Note_on_c, 0, 63, 0
2, 63204, Note_on_c, 0, 67, 64
2, 63252, Note_on_c, 0, 67, 0
2, 63260, Note_on_c, 0, 63, 63
2, 63264, Note_on_c, 0, 60, 70
2, 63320, Note_on_c, 0, 60, 0
2, 63336, Note_on_c, 0, 63, 0
2, 63352, Note_on_c, 0, 56, 89
2, 63380, Control_c, 0, 64, 56
2, 63392, Control_c, 0, 64, 104
2, 63400, Control_c, 0, 64, 127
2, 63412, Note_on_c, 0, 56, 0
2, 63428, Note_on_c, 0, 65, 65
2, 63432, Note_on_c, 0, 59, 64
2, 63436, Note_on_c, 0, 62, 64
2, 63484, Note_on_c, 0, 62, 0
2, 63484, Note_on_c, 0, 59, 0
2, 63484, Note_on_c, 0, 65, 0
2, 63512, Note_on_c, 0, 68, 74
2, 63520, Control_c, 0, 64, 104
2, 63532, Control_c, 0, 64, 88
2, 63540, Control_c, 0, 64, 72
2, 63548, Control_c, 0, 64, 56
2, 63560, Control_c, 0, 64, 40
2, 63568, Control_c, 0, 64, 24
2, 63576, Control_c, 0, 64, 0
2, 63584, Note_on_c, 0, 62, 66
2, 63592, Note_on_c, 0, 68, 0
2, 63592, Note_on_c, 0, 65, 66
2, 63648, Note_on_c, 0, 62, 0
2, 63660, Note_on_c, 0, 65, 0
2, 63664, Note_on_c, 0, 55, 81
2, 63732, Note_on_c, 0, 55, 0
2, 63748, Note_on_c, 0, 63, 63
2, 63752, Note_on_c, 0, 60, 72
2, 63800, Note_on_c, 0, 60, 0
2, 63804, Note_on_c, 0, 63, 0
2, 63816, Note_on_c, 0, 67, 74
2, 63868, Note_on_c, 0, 67, 0
2, 63888, Note_on_c, 0, 60, 80
2, 63900, Note_on_c, 0, 63, 48
2, 63920, Note_on_c, 0, 63, 0
2, 63932, Note_on_c, 0, 60, 0
2, 63960, Note_on_c, 0, 53, 75
2, 64016, Control_c, 0, 64, 56
2, 64020, Control_c, 0, 64, 88
2, 64032, Note_on_c, 0, 53, 0
2, 64032, Control_c, 0, 64, 104
2, 64040, Control_c, 0, 64, 127
2, 64044, Note_on_c, 0, 62, 80
2, 64052, Note_on_c, 0, 59, 59
2, 64088, Note_on_c, 0, 62, 0
2, 64092, Note_on_c, 0, 59, 0
2, 64120, Note_on_c, 0, 65, 71
2, 64144, Control_c, 0, 64, 104
2, 64160, Control_c, 0, 64, 88
2, 64168, Note_on_c, 0, 65, 0
2, 64172, Control_c, 0, 64, 56
2, 64180, Control_c, 0, 64, 40
2, 64184, Note_on_c, 0, 59, 59
2, 64184, Note_on_c, 0, 62, 71
2, 64192, Control_c, 0, 64, 24
2, 64200, Control_c, 0, 64, 0
2, 64216, Note_on_c, 0, 56, 21
2, 64248, Note_on_c, 0, 56, 0
2, 64248, Note_on_c, 0, 62, 0
2, 64252, Note_on_c, 0, 59, 0
2, 64272, Note_on_c, 0, 51, 87
2, 64328, Note_on_c, 0, 51, 0
2, 64348, Note_on_c, 0, 60, 75
2, 64352, Note_on_c, 0, 55, 72
2, 64396, Note_on_c, 0, 55, 0
2, 64404, Note_on_c, 0, 60, 0
2, 64424, Note_on_c, 0, 63, 77
2, 64488, Note_on_c, 0, 63, 0
2, 64488, Note_on_c, 0, 55, 72
2, 64488, Note_on_c, 0, 60, 70
2, 64536, Note_on_c, 0, 55, 0
2, 64544, Note_on_c, 0, 60, 0
2, 64564, Note_on_c, 0, 50, 89
2, 64620, Control_c, 0, 64, 24
2, 64628, Note_on_c, 0, 50, 0
2, 64628, Control_c, 0, 64, 56
2, 64636, Note_on_c, 0, 58, 66
2, 64636, Control_c, 0, 64, 88
2, 64644, Note_on_c, 0, 55, 66
2, 64648, Control_c, 0, 64, 104
2, 64684, Control_c, 0, 64, 127
2, 64688, Note_on_c, 0, 55, 0
2, 64692, Note_on_c, 0, 58, 0
2, 64720, Note_on_c, 0, 62, 50
2, 64728, Control_c, 0, 64, 104
2, 64740, Control_c, 0, 64, 88
2, 64748, Control_c, 0, 64, 72
2, 64756, Control_c, 0, 64, 56
2, 64760, Note_on_c, 0, 62, 0
2, 64768, Control_c, 0, 64, 40
2, 64780, Note_on_c, 0, 58, 63
2, 64784, Note_on_c, 0, 55, 67
2, 64784, Control_c, 0, 64, 24
2, 64792, Control_c, 0, 64, 0
2, 64832, Note_on_c, 0, 55, 0
2, 64840, Note_on_c, 0, 58, 0
2, 64864, Note_on_c, 0, 54, 82
2, 64920, Note_on_c, 0, 54, 0
2, 64932, Note_on_c, 0, 60, 64
2, 64932, Control_c, 0, 64, 24
2, 64936, Note_on_c, 0, 57, 56
2, 64940, Note_on_c, 0, 62, 58
2, 64944, Control_c, 0, 64, 40
2, 64952, Control_c, 0, 64, 56
2, 64964, Note_on_c, 0, 62, 0
2, 64976, Note_on_c, 0, 57, 0
2, 64980, Note_on_c, 0, 60, 0
2, 64988, Control_c, 0, 64, 72
2, 65000, Control_c, 0, 64, 88
2, 65016, Note_on_c, 0, 66, 69
2, 65028, Control_c, 0, 64, 104
2, 65076, Note_on_c, 0, 66, 0
2, 65084, Note_on_c, 0, 62, 55
2, 65084, Note_on_c, 0, 57, 52
2, 65092, Note_on_c, 0, 60, 41
2, 65120, Note_on_c, 0, 60, 0
2, 65132, Note_on_c, 0, 62, 0
2, 65136, Note_on_c, 0, 57, 0
2, 65148, Control_c, 0, 64, 56
2, 65156, Control_c, 0, 64, 0
2, 65164, Note_on_c, 0, 55, 85
2, 65220, Control_c, 0, 64, 24
2, 65228, Note_on_c, 0, 55, 0
2, 65232, Control_c, 0, 64, 56
2, 65240, Control_c, 0, 64, 88
2, 65244, Note_on_c, 0, 62, 73
2, 65248, Note_on_c, 0, 58, 55
2, 65252, Control_c, 0, 64, 104
2, 65260, Control_c, 0, 64, 127
2, 65296, Note_on_c, 0, 58, 0
2, 65296, Note_on_c, 0, 62, 0
2, 65316, Note_on_c, 0, 67, 81
2, 65372, Note_on_c, 0, 67, 0
2, 65392, Note_on_c, 0, 62, 74
2, 65392, Note_on_c, 0, 58, 54
2, 65448, Note_on_c, 0, 58, 0
2, 65448, Note_on_c, 0, 62, 0
2, 65448, Control_c, 0, 64, 88
2, 65456, Control_c, 0, 64, 56
2, 65464, Control_c, 0, 64, 0
2, 65476, Note_on_c, 0, 55, 86
2, 65528, Control_c, 0, 64, 24
2, 65540, Note_on_c, 0, 55, 0
2, 65540, Control_c, 0, 64, 72
2, 65548, Note_on_c, 0, 58, 56
2, 65548, Control_c, 0, 64, 104
2, 65552, Note_on_c, 0, 62, 69
2, 65556, Control_c, 0, 64, 127
2, 65604, Note_on_c, 0, 62, 0
2, 65608, Note_on_c, 0, 58, 0
2, 65636, Note_on_c, 0, 67, 80
2, 65692, Note_on_c, 0, 67, 0
2, 65696, Note_on_c, 0, 58, 62
2, 65700, Note_on_c, 0, 62, 71
2, 65748, Note_on_c, 0, 58, 0
2, 65752, Note_on_c, 0, 62, 0
2, 65784, Note_on_c, 0, 56, 95
2, 65808, Control_c, 0, 64, 72
2, 65816, Control_c, 0, 64, 0
2, 65864, Note_on_c, 0, 59, 63
2, 65864, Note_on_c, 0, 65, 62
2, 65868, Note_on_c, 0, 62, 59
2, 65880, Control_c, 0, 64, 56
2, 65892, Note_on_c, 0, 56, 0
2, 65892, Control_c, 0, 64, 127
2, 65908, Note_on_c, 0, 59, 0
2, 65908, Note_on_c, 0, 65, 0
2, 65916, Note_on_c, 0, 62, 0
2, 65960, Note_on_c, 0, 68, 72
2, 66016, Note_on_c, 0, 65, 63
2, 66016, Note_on_c, 0, 59, 54
2, 66020, Note_on_c, 0, 68, 0
2, 66020, Note_on_c, 0, 62, 44
2, 66048, Note_on_c, 0, 62, 0
2, 66052, Note_on_c, 0, 59, 0
2, 66064, Note_on_c, 0, 65, 0
2, 66076, Control_c, 0, 64, 72
2, 66084, Control_c, 0, 64, 24
2, 66096, Note_on_c, 0, 55, 83
2, 66096, Control_c, 0, 64, 0
2, 66168, Note_on_c, 0, 63, 57
2, 66176, Note_on_c, 0, 60, 59
2, 66212, Note_on_c, 0, 60, 0
2, 66216, Note_on_c, 0, 63, 0
2, 66228, Note_on_c, 0, 55, 0
2, 66244, Note_on_c, 0, 67, 57
2, 66284, Note_on_c, 0, 67, 0
2, 66304, Note_on_c, 0, 60, 74
2, 66312, Note_on_c, 0, 63, 59
2, 66360, Note_on_c, 0, 63, 0
2, 66364, Note_on_c, 0, 60, 0
2, 66384, Note_on_c, 0, 56, 98
2, 66420, Control_c, 0, 64, 40
2, 66428, Control_c, 0, 64, 104
2, 66436, Control_c, 0, 64, 127
2, 66464, Note_on_c, 0, 56, 0
2, 66464, Note_on_c, 0, 65, 66
2, 66468, Note_on_c, 0, 62, 69
2, 66476, Note_on_c, 0, 59, 51
2, 66512, Note_on_c, 0, 59, 0
2, 66516, Note_on_c, 0, 65, 0
2, 66520, Note_on_c, 0, 62, 0
2, 66548, Note_on_c, 0, 68, 74
2, 66616, Note_on_c, 0, 68, 0
2, 66616, Note_on_c, 0, 62, 63
2, 66616, Note_on_c, 0, 65, 59
2, 66668, Note_on_c, 0, 62, 0
2, 66684, Note_on_c, 0, 65, 0
2, 66688, Note_on_c, 0, 55, 85
2, 66696, Control_c, 0, 64, 88
2, 66708, Control_c, 0, 64, 24
2, 66716, Control_c, 0, 64, 0
2, 66752, Note_on_c, 0, 55, 0
2, 66756, Control_c, 0, 64, 56
2, 66764, Control_c, 0, 64, 104
2, 66772, Note_on_c, 0, 63, 55
2, 66772, Control_c, 0, 64, 127
2, 66796, Note_on_c, 0, 60, 36
2, 66828, Note_on_c, 0, 60, 0
2, 66828, Note_on_c, 0, 63, 0
2, 66844, Note_on_c, 0, 67, 74
2, 66908, Note_on_c, 0, 67, 0
2, 66924, Note_on_c, 0, 60, 69
2, 66932, Note_on_c, 0, 63, 49
2, 66964, Note_on_c, 0, 63, 0
2, 66968, Note_on_c, 0, 60, 0
2, 66996, Note_on_c, 0, 53, 78
2, 67004, Control_c, 0, 64, 56
2, 67016, Control_c, 0, 64, 0
2, 67060, Control_c, 0, 64, 40
2, 67068, Control_c, 0, 64, 88
2, 67076, Note_on_c, 0, 62, 74
2, 67080, Control_c, 0, 64, 127
2, 67088, Note_on_c, 0, 59, 58
2, 67092, Note_on_c, 0, 53, 0
2, 67124, Note_on_c, 0, 62, 0
2, 67132, Note_on_c, 0, 59, 0
2, 67152, Note_on_c, 0, 65, 71
2, 67188, Note_on_c, 0, 65, 0
2, 67224, Note_on_c, 0, 62, 62
2, 67224, Note_on_c, 0, 59, 47
2, 67264, Control_c, 0, 64, 72
2, 67268, Note_on_c, 0, 62, 0
2, 67276, Note_on_c, 0, 59, 0
2, 67276, Control_c, 0, 64, 0
2, 67300, Note_on_c, 0, 51, 96
2, 67340, Control_c, 0, 64, 40
2, 67348, Control_c, 0, 64, 88
2, 67356, Control_c, 0, 64, 104
2, 67360, Note_on_c, 0, 51, 0
2, 67368, Control_c, 0, 64, 127
2, 67380, Note_on_c, 0, 60, 78
2, 67392, Note_on_c, 0, 55, 56
2, 67440, Note_on_c, 0, 55, 0
2, 67440, Note_on_c, 0, 60, 0
2, 67464, Note_on_c, 0, 63, 77
2, 67504, Note_on_c, 0, 63, 0
2, 67532, Note_on_c, 0, 55, 71
2, 67532, Note_on_c, 0, 60, 64
2, 67572, Control_c, 0, 64, 104
2, 67580, Control_c, 0, 64, 40
2, 67584, Note_on_c, 0, 60, 0
2, 67588, Note_on_c, 0, 55, 0
2, 67588, Control_c, 0, 64, 0
2, 67604, Note_on_c, 0, 50, 83
2, 67656, Control_c, 0, 64, 56
2, 67664, Control_c, 0, 64, 88
2, 67676, Note_on_c, 0, 50, 0
2, 67676, Control_c, 0, 64, 127
2, 67688, Note_on_c, 0, 58, 60
2, 67692, Note_on_c, 0, 55, 62
2, 67740, Note_on_c, 0, 55, 0
2, 67740, Control_c, 0, 64, 56
2, 67744, Note_on_c, 0, 58, 0
2, 67748, Control_c, 0, 64, 0
2, 67760, Note_on_c, 0, 62, 69
2, 67784, Control_c, 0, 64, 40
2, 67792, Control_c, 0, 64, 72
2, 67804, Note_on_c, 0, 62, 0
2, 67804, Control_c, 0, 64, 127
2, 67832, Note_on_c, 0, 58, 58
2, 67836, Note_on_c, 0, 55, 69
2, 67876, Note_on_c, 0, 55, 0
2, 67892, Note_on_c, 0, 58, 0
2, 67908, Control_c, 0, 64, 104
2, 67912, Note_on_c, 0, 54, 81
2, 67916, Control_c, 0, 64, 40
2, 67924, Control_c, 0, 64, 0
2, 67952, Control_c, 0, 64, 24
2, 67960, Control_c, 0, 64, 72
2, 67972, Control_c, 0, 64, 104
2, 67980, Note_on_c, 0, 54, 0
2, 67980, Control_c, 0, 64, 127
2, 67988, Note_on_c, 0, 60, 59
2, 67992, Note_on_c, 0, 57, 56
2, 67992, Note_on_c, 0, 62, 55
2, 68020, Note_on_c, 0, 62, 0
2, 68028, Note_on_c, 0, 57, 0
2, 68032, Note_on_c, 0, 60, 0
2, 68064, Note_on_c, 0, 66, 69
2, 68128, Note_on_c, 0, 66, 0
2, 68128, Note_on_c, 0, 62, 75
2, 68132, Note_on_c, 0, 57, 69
2, 68184, Note_on_c, 0, 57, 0
2, 68184, Note_on_c, 0, 62, 0
2, 68204, Control_c, 0, 64, 104
2, 68212, Note_on_c, 0, 55, 86
2, 68212, Control_c, 0, 64, 40
2, 68220, Control_c, 0, 64, 0
2, 68260, Control_c, 0, 64, 40
2, 68268, Note_on_c, 0, 55, 0
2, 68268, Control_c, 0, 64, 104
2, 68280, Control_c, 0, 64, 127
2, 68288, Note_on_c, 0, 58, 58
2, 68288, Note_on_c, 0, 62, 73
2, 68320, Note_on_c, 0, 62, 0
2, 68332, Note_on_c, 0, 58, 0
2, 68356, Note_on_c, 0, 67, 82
2, 68404, Note_on_c, 0, 67, 0
2, 68448, Note_on_c, 0, 58, 55
2, 68472, Note_on_c, 0, 62, 58
2, 68496, Control_c, 0, 64, 56
2, 68504, Control_c, 0, 64, 127
2, 68508, Note_on_c, 0, 67, 80
2, 68532, Note_on_c, 0, 62, 0
2, 68560, Note_on_c, 0, 58, 0
2, 68660, Note_on_c, 0, 58, 42
2, 68664, Note_on_c, 0, 62, 47
2, 68668, Note_on_c, 0, 79, 85
2, 68700, Note_on_c, 0, 58, 0
2, 68712, Note_on_c, 0, 62, 0
2, 68736, Note_on_c, 0, 79, 0
2, 68740, Note_on_c, 0, 91, 86
2, 68748, Note_on_c, 0, 67, 0
2, 68768, Note_on_c, 0, 91, 0
2, 68784, Control_c, 0, 64, 104
2, 68792, Control_c, 0, 64, 40
2, 68800, Note_on_c, 0, 59, 56
2, 68800, Control_c, 0, 64, 0
2, 68808, Note_on_c, 0, 62, 67
2, 68828, Note_on_c, 0, 92, 103
2, 68832, Control_c, 0, 64, 24
2, 68840, Control_c, 0, 64, 104
2, 68848, Control_c, 0, 64, 127
2, 68860, Note_on_c, 0, 68, 44
2, 68868, Note_on_c, 0, 62, 0
2, 68876, Note_on_c, 0, 59, 0
2, 68884, Note_on_c, 0, 92, 0
2, 68900, Note_on_c, 0, 104, 100
2, 68972, Note_on_c, 0, 104, 0
2, 68980, Note_on_c, 0, 92, 102
2, 68992, Note_on_c, 0, 62, 43
2, 69012, Note_on_c, 0, 62, 0
2, 69012, Note_on_c, 0, 92, 0
2, 69032, Note_on_c, 0, 68, 0
2, 69088, Control_c, 0, 64, 104
2, 69096, Control_c, 0, 64, 40
2, 69104, Control_c, 0, 64, 0
2, 69112, Note_on_c, 0, 60, 66
2, 69124, Note_on_c, 0, 63, 77
2, 69156, Control_c, 0, 64, 72
2, 69164, Note_on_c, 0, 67, 79
2, 69164, Control_c, 0, 64, 127
2, 69172, Note_on_c, 0, 60, 0
2, 69176, Note_on_c, 0, 63, 0
2, 69296, Note_on_c, 0, 63, 52
2, 69304, Note_on_c, 0, 79, 82
2, 69308, Note_on_c, 0, 60, 41
2, 69324, Note_on_c, 0, 67, 0
2, 69332, Note_on_c, 0, 60, 0
2, 69348, Note_on_c, 0, 63, 0
2, 69372, Note_on_c, 0, 79, 0
2, 69376, Note_on_c, 0, 91, 92
2, 69404, Control_c, 0, 64, 104
2, 69408, Note_on_c, 0, 91, 0
2, 69412, Control_c, 0, 64, 40
2, 69420, Control_c, 0, 64, 0
2, 69432, Note_on_c, 0, 59, 69
2, 69440, Note_on_c, 0, 62, 69
2, 69460, Control_c, 0, 64, 72
2, 69468, Note_on_c, 0, 92, 109
2, 69468, Control_c, 0, 64, 127
2, 69496, Note_on_c, 0, 62, 0
2, 69496, Note_on_c, 0, 59, 0
2, 69496, Note_on_c, 0, 68, 62
2, 69544, Note_on_c, 0, 92, 0
2, 69544, Note_on_c, 0, 104, 95
2, 69560, Note_on_c, 0, 68, 0
2, 69624, Note_on_c, 0, 104, 0
2, 69628, Note_on_c, 0, 92, 101
2, 69628, Note_on_c, 0, 62, 50
2, 69628, Note_on_c, 0, 59, 48
2, 69652, Note_on_c, 0, 62, 0
2, 69660, Note_on_c, 0, 92, 0
2, 69664, Note_on_c, 0, 59, 0
2, 69752, Control_c, 0, 64, 72
2, 69756, Note_on_c, 0, 60, 72
2, 69760, Control_c, 0, 64, 0
2, 69776, Note_on_c, 0, 63, 72
2, 69812, Note_on_c, 0, 67, 69
2, 69816, Control_c, 0, 64, 56
2, 69824, Control_c, 0, 64, 127
2, 69832, Note_on_c, 0, 60, 0
2, 69840, Note_on_c, 0, 63, 0
2, 69868, Note_on_c, 0, 67, 0
2, 69940, Note_on_c, 0, 79, 80
2, 69940, Note_on_c, 0, 63, 54
2, 69948, Note_on_c, 0, 67, 46
2, 69976, Note_on_c, 0, 67, 0
2, 70004, Note_on_c, 0, 79, 0
2, 70008, Note_on_c, 0, 63, 0
2, 70012, Note_on_c, 0, 91, 92
2, 70040, Note_on_c, 0, 91, 0
2, 70060, Note_on_c, 0, 56, 54
2, 70068, Note_on_c, 0, 59, 51
2, 70080, Control_c, 0, 64, 72
2, 70088, Control_c, 0, 64, 0
2, 70108, Note_on_c, 0, 89, 98
2, 70112, Note_on_c, 0, 65, 71
2, 70124, Control_c, 0, 64, 56
2, 70132, Control_c, 0, 64, 127
2, 70140, Note_on_c, 0, 59, 0
2, 70164, Note_on_c, 0, 56, 0
2, 70168, Note_on_c, 0, 89, 0
2, 70184, Note_on_c, 0, 101, 98
2, 70260, Note_on_c, 0, 101, 0
2, 70264, Note_on_c, 0, 89, 100
2, 70264, Note_on_c, 0, 56, 48
2, 70268, Note_on_c, 0, 59, 41
2, 70300, Note_on_c, 0, 89, 0
2, 70304, Note_on_c, 0, 56, 0
2, 70316, Note_on_c, 0, 59, 0
2, 70324, Note_on_c, 0, 65, 0
2, 70372, Control_c, 0, 64, 88
2, 70380, Control_c, 0, 64, 24
2, 70384, Note_on_c, 0, 55, 71
2, 70388, Control_c, 0, 64, 0
2, 70412, Note_on_c, 0, 60, 77
2, 70436, Control_c, 0, 64, 72
2, 70444, Control_c, 0, 64, 127
2, 70448, Note_on_c, 0, 63, 70
2, 70472, Note_on_c, 0, 60, 0
2, 70472, Note_on_c, 0, 55, 0
2, 70512, Note_on_c, 0, 63, 0
2, 70584, Note_on_c, 0, 63, 65
2, 70592, Note_on_c, 0, 75, 93
2, 70592, Note_on_c, 0, 60, 49
2, 70612, Note_on_c, 0, 60, 0
2, 70656, Note_on_c, 0, 63, 0
2, 70660, Note_on_c, 0, 75, 0
2, 70660, Note_on_c, 0, 87, 94
2, 70712, Control_c, 0, 64, 104
2, 70716, Note_on_c, 0, 87, 0
2, 70724, Note_on_c, 0, 55, 58
2, 70724, Control_c, 0, 64, 24
2, 70728, Note_on_c, 0, 50, 73
2, 70728, Control_c, 0, 64, 0
2, 70732, Note_on_c, 0, 58, 56
2, 70744, Note_on_c, 0, 74, 97
2, 70764, Note_on_c, 0, 62, 59
2, 70768, Control_c, 0, 64, 40
2, 70776, Control_c, 0, 64, 104
2, 70784, Note_on_c, 0, 50, 0
2, 70784, Control_c, 0, 64, 127
2, 70800, Note_on_c, 0, 55, 0
2, 70804, Note_on_c, 0, 58, 0
2, 70808, Note_on_c, 0, 74, 0
2, 70820, Note_on_c, 0, 62, 0
2, 70820, Note_on_c, 0, 86, 94
2, 70880, Note_on_c, 0, 86, 0
2, 70896, Note_on_c, 0, 62, 60
2, 70896, Note_on_c, 0, 74, 95
2, 70900, Note_on_c, 0, 55, 51
2, 70900, Note_on_c, 0, 58, 48
2, 70912, Note_on_c, 0, 50, 36
2, 70936, Note_on_c, 0, 55, 0
2, 70940, Note_on_c, 0, 58, 0
2, 70940, Note_on_c, 0, 74, 0
2, 70956, Note_on_c, 0, 62, 0
2, 70956, Note_on_c, 0, 50, 0
2, 71040, Control_c, 0, 64, 40
2, 71048, Control_c, 0, 64, 0
2, 71056, Note_on_c, 0, 62, 75
2, 71056, Note_on_c, 0, 54, 51
2, 71060, Note_on_c, 0, 57, 56
2, 71064, Note_on_c, 0, 50, 55
2, 71088, Control_c, 0, 64, 24
2, 71096, Control_c, 0, 64, 88
2, 71100, Control_c, 0, 64, 127
2, 71108, Note_on_c, 0, 57, 0
2, 71112, Note_on_c, 0, 54, 0
2, 71120, Note_on_c, 0, 50, 0
2, 71128, Note_on_c, 0, 62, 0
2, 71208, Note_on_c, 0, 54, 60
2, 71212, Note_on_c, 0, 74, 89
2, 71216, Note_on_c, 0, 62, 57
2, 71216, Note_on_c, 0, 50, 50
2, 71220, Note_on_c, 0, 57, 46
2, 71236, Note_on_c, 0, 50, 0
2, 71244, Note_on_c, 0, 57, 0
2, 71252, Note_on_c, 0, 54, 0
2, 71268, Note_on_c, 0, 62, 0
2, 71280, Note_on_c, 0, 74, 0
2, 71292, Note_on_c, 0, 86, 92
2, 71352, Note_on_c, 0, 86, 0
2, 71356, Control_c, 0, 64, 104
2, 71364, Control_c, 0, 64, 24
2, 71372, Control_c, 0, 64, 0
2, 71380, Note_on_c, 0, 74, 93
2, 71380, Note_on_c, 0, 62, 69
2, 71384, Note_on_c, 0, 55, 59
2, 71384, Note_on_c, 0, 58, 50
2, 71412, Control_c, 0, 64, 56
2, 71420, Control_c, 0, 64, 127
2, 71432, Note_on_c, 0, 55, 0
2, 71436, Note_on_c, 0, 58, 0
2, 71444, Note_on_c, 0, 62, 0
2, 71456, Note_on_c, 0, 86, 86
2, 71464, Note_on_c, 0, 74, 0
2, 71540, Note_on_c, 0, 74, 83
2, 71572, Note_on_c, 0, 74, 0
2, 71596, Note_on_c, 0, 86, 0
2, 71676, Control_c, 0, 64, 104
2, 71680, Note_on_c, 0, 58, 63
2, 71684, Control_c, 0, 64, 24
2, 71688, Note_on_c, 0, 62, 65
2, 71692, Control_c, 0, 64, 0
2, 71728, Control_c, 0, 64, 88
2, 71732, Note_on_c, 0, 67, 80
2, 71736, Note_on_c, 0, 58, 0
2, 71736, Control_c, 0, 64, 127
2, 71740, Note_on_c, 0, 62, 0
2, 71868, Note_on_c, 0, 62, 65
2, 71868, Note_on_c, 0, 58, 49
2, 71876, Note_on_c, 0, 79, 86
2, 71896, Note_on_c, 0, 62, 0
2, 71904, Note_on_c, 0, 58, 0
2, 71932, Note_on_c, 0, 79, 0
2, 71940, Note_on_c, 0, 91, 88
2, 71944, Note_on_c, 0, 67, 0
2, 71968, Note_on_c, 0, 91, 0
2, 71984, Control_c, 0, 64, 88
2, 71992, Control_c, 0, 64, 24
2, 71996, Note_on_c, 0, 59, 67
2, 72000, Note_on_c, 0, 62, 72
2, 72000, Control_c, 0, 64, 0
2, 72036, Note_on_c, 0, 92, 109
2, 72040, Control_c, 0, 64, 88
2, 72044, Note_on_c, 0, 68, 88
2, 72048, Note_on_c, 0, 59, 0
2, 72048, Control_c, 0, 64, 127
2, 72060, Note_on_c, 0, 62, 0
2, 72100, Note_on_c, 0, 92, 0
2, 72136, Note_on_c, 0, 104, 85
2, 72208, Note_on_c, 0, 104, 0
2, 72208, Note_on_c, 0, 59, 55
2, 72208, Note_on_c, 0, 62, 52
2, 72208, Note_on_c, 0, 92, 89
2, 72232, Note_on_c, 0, 62, 0
2, 72244, Note_on_c, 0, 92, 0
2, 72244, Note_on_c, 0, 59, 0
2, 72272, Note_on_c, 0, 68, 0
2, 72316, Control_c, 0, 64, 88
2, 72324, Control_c, 0, 64, 0
2, 72332, Note_on_c, 0, 60, 67
2, 72348, Note_on_c, 0, 63, 74
2, 72388, Note_on_c, 0, 67, 81
2, 72388, Control_c, 0, 64, 56
2, 72392, Note_on_c, 0, 60, 0
2, 72396, Control_c, 0, 64, 127
2, 72400, Note_on_c, 0, 63, 0
2, 72488, Note_on_c, 0, 67, 0
2, 72524, Note_on_c, 0, 60, 67
2, 72524, Note_on_c, 0, 63, 55
2, 72528, Note_on_c, 0, 79, 86
2, 72564, Note_on_c, 0, 60, 0
2, 72572, Note_on_c, 0, 63, 0
2, 72592, Note_on_c, 0, 79, 0
2, 72604, Note_on_c, 0, 91, 94
2, 72624, Note_on_c, 0, 91, 0
2, 72652, Note_on_c, 0, 59, 67
2, 72660, Control_c, 0, 64, 72
2, 72664, Note_on_c, 0, 62, 71
2, 72664, Control_c, 0, 64, 0
2, 72688, Note_on_c, 0, 92, 117
2, 72700, Note_on_c, 0, 68, 73
2, 72712, Control_c, 0, 64, 127
2, 72716, Note_on_c, 0, 62, 0
2, 72716, Note_on_c, 0, 59, 0
2, 72760, Note_on_c, 0, 92, 0
2, 72760, Note_on_c, 0, 68, 0
2, 72780, Note_on_c, 0, 104, 92
2, 72844, Note_on_c, 0, 59, 67
2, 72848, Note_on_c, 0, 62, 67
2, 72852, Note_on_c, 0, 104, 0
2, 72856, Note_on_c, 0, 92, 93
2, 72884, Note_on_c, 0, 92, 0
2, 72884, Note_on_c, 0, 59, 0
2, 72892, Note_on_c, 0, 62, 0
2, 72968, Control_c, 0, 64, 40
2, 72976, Note_on_c, 0, 60, 64
2, 72976, Control_c, 0, 64, 0
2, 72996, Note_on_c, 0, 63, 74
2, 73028, Control_c, 0, 64, 104
2, 73036, Note_on_c, 0, 67, 89
2, 73036, Control_c, 0, 64, 127
2, 73048, Note_on_c, 0, 63, 0
2, 73052, Note_on_c, 0, 60, 0
2, 73176, Note_on_c, 0, 79, 72
2, 73180, Note_on_c, 0, 60, 44
2, 73180, Note_on_c, 0, 63, 41
2, 73200, Note_on_c, 0, 67, 0
2, 73204, Note_on_c, 0, 60, 0
2, 73228, Note_on_c, 0, 63, 0
2, 73232, Note_on_c, 0, 79, 0
2, 73240, Note_on_c, 0, 91, 80
2, 73268, Note_on_c, 0, 91, 0
2, 73300, Note_on_c, 0, 56, 64
2, 73300, Note_on_c, 0, 59, 52
2, 73308, Control_c, 0, 64, 56
2, 73316, Control_c, 0, 64, 0
2, 73328, Note_on_c, 0, 89, 101
2, 73340, Note_on_c, 0, 65, 81
2, 73364, Control_c, 0, 64, 104
2, 73368, Note_on_c, 0, 59, 0
2, 73372, Control_c, 0, 64, 127
2, 73380, Note_on_c, 0, 56, 0
2, 73392, Note_on_c, 0, 89, 0
2, 73400, Note_on_c, 0, 101, 90
2, 73472, Note_on_c, 0, 101, 0
2, 73476, Note_on_c, 0, 59, 51
2, 73480, Note_on_c, 0, 89, 86
2, 73480, Note_on_c, 0, 56, 43
2, 73516, Note_on_c, 0, 89, 0
2, 73520, Note_on_c, 0, 56, 0
2, 73520, Note_on_c, 0, 59, 0
2, 73532, Note_on_c, 0, 65, 0
2, 73588, Control_c, 0, 64, 24
2, 73596, Note_on_c, 0, 55, 78
2, 73596, Control_c, 0, 64, 0
2, 73612, Note_on_c, 0, 60, 88
2, 73636, Control_c, 0, 64, 24
2, 73644, Control_c, 0, 64, 104
2, 73652, Note_on_c, 0, 63, 82
2, 73652, Control_c, 0, 64, 127
2, 73672, Note_on_c, 0, 60, 0
2, 73688, Note_on_c, 0, 55, 0
2, 73720, Note_on_c, 0, 63, 0
2, 73788, Note_on_c, 0, 75, 80
2, 73792, Note_on_c, 0, 60, 70
2, 73800, Note_on_c, 0, 55, 28
2, 73820, Note_on_c, 0, 55, 0
2, 73820, Note_on_c, 0, 60, 0
2, 73864, Note_on_c, 0, 75, 0
2, 73864, Note_on_c, 0, 87, 85
2, 73920, Control_c, 0, 64, 104
2, 73924, Note_on_c, 0, 87, 0
2, 73928, Control_c, 0, 64, 0
2, 73952, Note_on_c, 0, 74, 94
2, 73952, Note_on_c, 0, 62, 72
2, 73956, Note_on_c, 0, 55, 54
2, 73956, Note_on_c, 0, 58, 49
2, 73956, Note_on_c, 0, 50, 65
2, 73976, Control_c, 0, 64, 40
2, 73984, Control_c, 0, 64, 104
2, 73992, Control_c, 0, 64, 127
2, 74008, Note_on_c, 0, 50, 0
2, 74012, Note_on_c, 0, 74, 0
2, 74012, Note_on_c, 0, 58, 0
2, 74016, Note_on_c, 0, 55, 0
2, 74020, Note_on_c, 0, 62, 0
2, 74024, Note_on_c, 0, 86, 101
2, 74088, Note_on_c, 0, 86, 0
2, 74108, Note_on_c, 0, 74, 94
2, 74108, Note_on_c, 0, 62, 69
2, 74112, Note_on_c, 0, 55, 54
2, 74112, Note_on_c, 0, 58, 41
2, 74116, Note_on_c, 0, 50, 56
2, 74152, Note_on_c, 0, 58, 0
2, 74156, Note_on_c, 0, 55, 0
2, 74176, Note_on_c, 0, 74, 0
2, 74176, Note_on_c, 0, 62, 0
2, 74176, Note_on_c, 0, 50, 0
2, 74188, Note_on_c, 0, 86, 103
2, 74248, Note_on_c, 0, 86, 0
2, 74256, Control_c, 0, 64, 56
2, 74264, Control_c, 0, 64, 0
2, 74276, Note_on_c, 0, 74, 103
2, 74280, Note_on_c, 0, 62, 83
2, 74280, Note_on_c, 0, 54, 65
2, 74284, Note_on_c, 0, 50, 75
2, 74284, Note_on_c, 0, 57, 66
2, 74308, Control_c, 0, 64, 88
2, 74316, Control_c, 0, 64, 127
2, 74324, Note_on_c, 0, 50, 0
2, 74328, Note_on_c, 0, 62, 0
2, 74332, Note_on_c, 0, 57, 0
2, 74332, Note_on_c, 0, 54, 0
2, 74356, Note_on_c, 0, 74, 0
2, 74360, Note_on_c, 0, 86, 100
2, 74396, Note_on_c, 0, 86, 0
2, 74612, Control_c, 0, 64, 104
2, 74620, Control_c, 0, 64, 56
2, 74628, Control_c, 0, 64, 0
2, 74880, Note_on_c, 0, 67, 98
2, 74880, Note_on_c, 0, 55, 97
2, 74880, Note_on_c, 0, 62, 86
2, 74880, Note_on_c, 0, 58, 78
2, 74880, Note_on_c, 0, 31, 82
2, 74880, Note_on_c, 0, 43, 93
2, 74880, Control_c, 0, 64, 0
2, 74924, Note_on_c, 0, 43, 0
2, 74924, Note_on_c, 0, 31, 0
2, 74948, Note_on_c, 0, 55, 0
2, 74952, Control_c, 0, 64, 40
2, 74956, Note_on_c, 0, 58, 0
2, 74960, Note_on_c, 0, 62, 0
2, 74980, Note_on_c, 0, 67, 0
2, 75072, Control_c, 0, 64, 56
2, 75080, Control_c, 0, 64, 104
2, 75084, Note_on_c, 0, 69, 98
2, 75088, Note_on_c, 0, 57, 80
2, 75088, Control_c, 0, 64, 127
2, 75092, Note_on_c, 0, 62, 85
2, 75096, Note_on_c, 0, 42, 77
2, 75096, Note_on_c, 0, 30, 65
2, 75120, Note_on_c, 0, 57, 0
2, 75128, Note_on_c, 0, 69, 0
2, 75144, Note_on_c, 0, 42, 0
2, 75144, Note_on_c, 0, 62, 0
2, 75148, Note_on_c, 0, 30, 0
2, 75164, Control_c, 0, 64, 56
2, 75176, Control_c, 0, 64, 0
2, 75184, Note_on_c, 0, 70, 103
2, 75184, Note_on_c, 0, 58, 90
2, 75184, Note_on_c, 0, 62, 79
2, 75196, Note_on_c, 0, 43, 87
2, 75200, Note_on_c, 0, 31, 71
2, 75200, Control_c, 0, 64, 88
2, 75208, Control_c, 0, 64, 127
2, 75224, Note_on_c, 0, 31, 0
2, 75224, Note_on_c, 0, 58, 0
2, 75228, Note_on_c, 0, 62, 0
2, 75236, Note_on_c, 0, 43, 0
2, 75244, Note_on_c, 0, 70, 0
2, 75296, Control_c, 0, 64, 72
2, 75300, Control_c, 0, 64, 0
2, 75352, Control_c, 0, 64, 40
2, 75360, Control_c, 0, 64, 88
2, 75372, Control_c, 0, 64, 127
2, 75388, Note_on_c, 0, 72, 103
2, 75392, Note_on_c, 0, 60, 85
2, 75392, Note_on_c, 0, 65, 85
2, 75400, Note_on_c, 0, 45, 80
2, 75400, Note_on_c, 0, 33, 73
2, 75420, Note_on_c, 0, 60, 0
2, 75428, Note_on_c, 0, 45, 0
2, 75432, Note_on_c, 0, 72, 0
2, 75436, Note_on_c, 0, 65, 0
2, 75436, Note_on_c, 0, 33, 0
2, 75440, Control_c, 0, 64, 72
2, 75448, Control_c, 0, 64, 0
2, 75480, Note_on_c, 0, 74, 105
2, 75480, Note_on_c, 0, 65, 82
2, 75488, Note_on_c, 0, 62, 90
2, 75492, Note_on_c, 0, 34, 82
2, 75492, Note_on_c, 0, 46, 92
2, 75516, Control_c, 0, 64, 127
2, 75524, Note_on_c, 0, 46, 0
2, 75524, Note_on_c, 0, 34, 0
2, 75544, Note_on_c, 0, 62, 0
2, 75544, Note_on_c, 0, 65, 0
2, 75612, Note_on_c, 0, 74, 0
2, 75684, Note_on_c, 0, 70, 96
2, 75688, Note_on_c, 0, 62, 80
2, 75688, Note_on_c, 0, 65, 74
2, 75696, Note_on_c, 0, 50, 83
2, 75696, Note_on_c, 0, 58, 63
2, 75708, Note_on_c, 0, 65, 0
2, 75716, Note_on_c, 0, 62, 0
2, 75736, Note_on_c, 0, 70, 0
2, 75744, Note_on_c, 0, 50, 0
2, 75756, Note_on_c, 0, 58, 0
2, 75772, Control_c, 0, 64, 72
2, 75780, Control_c, 0, 64, 0
2, 75788, Note_on_c, 0, 77, 111
2, 75792, Note_on_c, 0, 65, 78
2, 75792, Note_on_c, 0, 69, 87
2, 75804, Note_on_c, 0, 53, 87
2, 75804, Note_on_c, 0, 60, 82
2, 75840, Note_on_c, 0, 60, 0
2, 75840, Control_c, 0, 64, 104
2, 75848, Control_c, 0, 64, 127
2, 75852, Note_on_c, 0, 53, 0
2, 75864, Note_on_c, 0, 77, 0
2, 75880, Note_on_c, 0, 69, 0
2, 75884, Note_on_c, 0, 65, 0
2, 76000, Note_on_c, 0, 75, 100
2, 76004, Note_on_c, 0, 69, 89
2, 76004, Note_on_c, 0, 63, 86
2, 76008, Note_on_c, 0, 41, 80
2, 76008, Note_on_c, 0, 29, 71
2, 76032, Note_on_c, 0, 41, 0
2, 76036, Note_on_c, 0, 29, 0
2, 76040, Note_on_c, 0, 63, 0
2, 76040, Note_on_c, 0, 69, 0
2, 76044, Control_c, 0, 64, 88
2, 76052, Control_c, 0, 64, 40
2, 76056, Note_on_c, 0, 75, 0
2, 76060, Control_c, 0, 64, 0
2, 76092, Note_on_c, 0, 70, 88
2, 76096, Note_on_c, 0, 74, 108
2, 76100, Note_on_c, 0, 62, 90
2, 76108, Note_on_c, 0, 34, 88
2, 76108, Note_on_c, 0, 46, 97
2, 76156, Control_c, 0, 64, 88
2, 76164, Control_c, 0, 64, 127
2, 76224, Note_on_c, 0, 70, 0
2, 76236, Note_on_c, 0, 34, 0
2, 76236, Note_on_c, 0, 74, 0
2, 76236, Note_on_c, 0, 46, 0
2, 76256, Note_on_c, 0, 62, 0
2, 76420, Note_on_c, 0, 70, 102
2, 76428, Note_on_c, 0, 62, 83
2, 76428, Control_c, 0, 64, 40
2, 76432, Note_on_c, 0, 65, 71
2, 76432, Note_on_c, 0, 58, 66
2, 76436, Note_on_c, 0, 53, 71
2, 76436, Control_c, 0, 64, 0
2, 76440, Note_on_c, 0, 50, 80
2, 76448, Note_on_c, 0, 65, 0
2, 76456, Note_on_c, 0, 62, 0
2, 76472, Control_c, 0, 64, 40
2, 76480, Control_c, 0, 64, 127
2, 76488, Note_on_c, 0, 70, 0
2, 76492, Note_on_c, 0, 50, 0
2, 76500, Note_on_c, 0, 58, 0
2, 76508, Note_on_c, 0, 53, 0
2, 76640, Note_on_c, 0, 89, 67
2, 76656, Control_c, 0, 64, 72
2, 76668, Control_c, 0, 64, 24
2, 76676, Control_c, 0, 64, 0
2, 76696, Note_on_c, 0, 89, 0
2, 76700, Note_on_c, 0, 101, 88
2, 76760, Note_on_c, 0, 101, 0
2, 76768, Note_on_c, 0, 99, 82
2, 76772, Note_on_c, 0, 49, 70
2, 76776, Control_c, 0, 64, 127
2, 76816, Note_on_c, 0, 49, 0
2, 76820, Note_on_c, 0, 97, 82
2, 76832, Note_on_c, 0, 99, 0
2, 76840, Note_on_c, 0, 56, 44
2, 76876, Note_on_c, 0, 92, 73
2, 76896, Note_on_c, 0, 56, 0
2, 76916, Note_on_c, 0, 97, 0
2, 76916, Note_on_c, 0, 61, 42
2, 76920, Note_on_c, 0, 89, 72
2, 76932, Note_on_c, 0, 92, 0
2, 76948, Note_on_c, 0, 89, 0
2, 76976, Note_on_c, 0, 61, 0
2, 76980, Note_on_c, 0, 87, 65
2, 76984, Note_on_c, 0, 65, 41
2, 77028, Note_on_c, 0, 85, 71
2, 77036, Note_on_c, 0, 87, 0
2, 77076, Note_on_c, 0, 65, 0
2, 77076, Note_on_c, 0, 68, 52
2, 77080, Note_on_c, 0, 85, 0
2, 77080, Note_on_c, 0, 77, 63
2, 77084, Note_on_c, 0, 80, 79
2, 77112, Note_on_c, 0, 77, 0
2, 77116, Note_on_c, 0, 68, 0
2, 77124, Note_on_c, 0, 80, 0
2, 77276, Note_on_c, 0, 89, 83
2, 77336, Note_on_c, 0, 89, 0
2, 77340, Note_on_c, 0, 101, 92
2, 77356, Control_c, 0, 64, 104
2, 77364, Control_c, 0, 64, 0
2, 77388, Note_on_c, 0, 101, 0
2, 77400, Note_on_c, 0, 99, 89
2, 77404, Note_on_c, 0, 49, 72
2, 77432, Control_c, 0, 64, 127
2, 77456, Note_on_c, 0, 49, 0
2, 77456, Note_on_c, 0, 97, 80
2, 77476, Note_on_c, 0, 99, 0
2, 77484, Note_on_c, 0, 56, 43
2, 77508, Note_on_c, 0, 92, 72
2, 77544, Note_on_c, 0, 56, 0
2, 77544, Note_on_c, 0, 97, 0
2, 77556, Note_on_c, 0, 89, 71
2, 77564, Note_on_c, 0, 92, 0
2, 77564, Note_on_c, 0, 61, 44
2, 77584, Note_on_c, 0, 89, 0
2, 77612, Note_on_c, 0, 87, 63
2, 77624, Note_on_c, 0, 61, 0
2, 77640, Note_on_c, 0, 65, 46
2, 77656, Note_on_c, 0, 85, 72
2, 77668, Note_on_c, 0, 87, 0
2, 77720, Note_on_c, 0, 80, 80
2, 77720, Note_on_c, 0, 77, 58
2, 77724, Note_on_c, 0, 85, 0
2, 77724, Note_on_c, 0, 68, 51
2, 77728, Note_on_c, 0, 65, 0
2, 77736, Note_on_c, 0, 77, 0
2, 77748, Note_on_c, 0, 68, 0
2, 77760, Note_on_c, 0, 80, 0
2, 77920, Note_on_c, 0, 89, 82
2, 77976, Note_on_c, 0, 89, 0
2, 77988, Note_on_c, 0, 101, 83
2, 78012, Control_c, 0, 64, 24
2, 78020, Control_c, 0, 64, 0
2, 78040, Note_on_c, 0, 49, 69
2, 78044, Note_on_c, 0, 99, 81
2, 78052, Note_on_c, 0, 101, 0
2, 78064, Control_c, 0, 64, 88
2, 78072, Control_c, 0, 64, 127
2, 78096, Note_on_c, 0, 49, 0
2, 78096, Note_on_c, 0, 97, 77
2, 78116, Note_on_c, 0, 99, 0
2, 78124, Note_on_c, 0, 56, 51
2, 78148, Note_on_c, 0, 92, 70
2, 78172, Note_on_c, 0, 56, 0
2, 78188, Note_on_c, 0, 97, 0
2, 78196, Note_on_c, 0, 61, 44
2, 78196, Note_on_c, 0, 89, 67
2, 78204, Note_on_c, 0, 92, 0
2, 78216, Note_on_c, 0, 89, 0
2, 78244, Note_on_c, 0, 61, 0
2, 78256, Note_on_c, 0, 87, 66
2, 78256, Note_on_c, 0, 65, 46
2, 78300, Note_on_c, 0, 85, 73
2, 78316, Note_on_c, 0, 87, 0
2, 78344, Note_on_c, 0, 65, 0
2, 78364, Note_on_c, 0, 85, 0
2, 78364, Note_on_c, 0, 68, 57
2, 78364, Note_on_c, 0, 80, 72
2, 78372, Note_on_c, 0, 77, 47
2, 78396, Note_on_c, 0, 68, 0
2, 78408, Note_on_c, 0, 80, 0
2, 78412, Note_on_c, 0, 77, 0
2, 78496, Note_on_c, 0, 68, 41
2, 78496, Control_c, 0, 64, 72
2, 78508, Control_c, 0, 64, 40
2, 78516, Note_on_c, 0, 68, 0
2, 78516, Control_c, 0, 64, 0
2, 78524, Note_on_c, 0, 49, 32
2, 78540, Note_on_c, 0, 49, 0
2, 78588, Note_on_c, 0, 65, 94
2, 78588, Note_on_c, 0, 77, 108
2, 78588, Note_on_c, 0, 68, 88
2, 78596, Note_on_c, 0, 49, 97
2, 78596, Note_on_c, 0, 37, 77
2, 78624, Note_on_c, 0, 49, 0
2, 78624, Note_on_c, 0, 65, 0
2, 78628, Note_on_c, 0, 37, 0
2, 78636, Note_on_c, 0, 68, 0
2, 78636, Note_on_c, 0, 77, 0
2, 78692, Note_on_c, 0, 77, 110
2, 78692, Note_on_c, 0, 65, 98
2, 78692, Note_on_c, 0, 68, 94
2, 78696, Note_on_c, 0, 49, 101
2, 78700, Note_on_c, 0, 37, 80
2, 78720, Control_c, 0, 64, 72
2, 78728, Control_c, 0, 64, 127
2, 78732, Note_on_c, 0, 49, 0
2, 78736, Note_on_c, 0, 37, 0
2, 78744, Note_on_c, 0, 77, 0
2, 78752, Note_on_c, 0, 68, 0
2, 78752, Note_on_c, 0, 65, 0
2, 78908, Note_on_c, 0, 75, 94
2, 78912, Note_on_c, 0, 66, 78
2, 78912, Note_on_c, 0, 63, 71
2, 78916, Note_on_c, 0, 45, 87
2, 78920, Note_on_c, 0, 33, 78
2, 78948, Note_on_c, 0, 63, 0
2, 78952, Note_on_c, 0, 45, 0
2, 78956, Note_on_c, 0, 33, 0
2, 78956, Control_c, 0, 64, 56
2, 78960, Note_on_c, 0, 66, 0
2, 78960, Note_on_c, 0, 75, 0
2, 78964, Control_c, 0, 64, 0
2, 79008, Note_on_c, 0, 73, 101
2, 79012, Note_on_c, 0, 61, 83
2, 79012, Note_on_c, 0, 65, 80
2, 79020, Note_on_c, 0, 34, 80
2, 79020, Note_on_c, 0, 46, 94
2, 79036, Control_c, 0, 64, 40
2, 79044, Control_c, 0, 64, 127
2, 79048, Note_on_c, 0, 46, 0
2, 79056, Note_on_c, 0, 34, 0
2, 79064, Note_on_c, 0, 65, 0
2, 79068, Note_on_c, 0, 61, 0
2, 79072, Note_on_c, 0, 73, 0
2, 79128, Control_c, 0, 64, 88
2, 79136, Control_c, 0, 64, 40
2, 79144, Control_c, 0, 64, 0
2, 79196, Control_c, 0, 64, 40
2, 79204, Control_c, 0, 64, 56
2, 79216, Note_on_c, 0, 72, 106
2, 79216, Note_on_c, 0, 63, 92
2, 79216, Control_c, 0, 64, 72
2, 79220, Note_on_c, 0, 60, 88
2, 79224, Note_on_c, 0, 29, 72
2, 79224, Note_on_c, 0, 41, 79
2, 79224, Control_c, 0, 64, 88
2, 79252, Note_on_c, 0, 60, 0
2, 79252, Note_on_c, 0, 72, 0
2, 79256, Note_on_c, 0, 41, 0
2, 79256, Note_on_c, 0, 63, 0
2, 79256, Control_c, 0, 64, 56
2, 79260, Note_on_c, 0, 29, 0
2, 79264, Control_c, 0, 64, 24
2, 79272, Control_c, 0, 64, 0
2, 79316, Note_on_c, 0, 70, 100
2, 79316, Note_on_c, 0, 58, 95
2, 79320, Note_on_c, 0, 61, 83
2, 79332, Note_on_c, 0, 46, 95
2, 79332, Note_on_c, 0, 34, 82
2, 79368, Control_c, 0, 64, 40
2, 79376, Control_c, 0, 64, 127
2, 79452, Note_on_c, 0, 34, 0
2, 79456, Note_on_c, 0, 46, 0
2, 79460, Note_on_c, 0, 61, 0
2, 79460, Note_on_c, 0, 70, 0
2, 79500, Note_on_c, 0, 58, 0
2, 79640, Note_on_c, 0, 68, 104
2, 79644, Note_on_c, 0, 56, 89
2, 79648, Note_on_c, 0, 60, 94
2, 79652, Note_on_c, 0, 39, 64
2, 79660, Note_on_c, 0, 48, 80
2, 79660, Note_on_c, 0, 44, 57
2, 79664, Note_on_c, 0, 36, 66
2, 79672, Control_c, 0, 64, 56
2, 79680, Control_c, 0, 64, 0
2, 79752, Control_c, 0, 64, 40
2, 79760, Control_c, 0, 64, 127
2, 79780, Note_on_c, 0, 36, 0
2, 79784, Note_on_c, 0, 60, 0
2, 79784, Note_on_c, 0, 39, 0
2, 79804, Note_on_c, 0, 48, 0
2, 79804, Note_on_c, 0, 68, 0
2, 79804, Note_on_c, 0, 56, 0
2, 79804, Note_on_c, 0, 44, 0
2, 79936, Control_c, 0, 64, 104
2, 79948, Control_c, 0, 64, 56
2, 79956, Control_c, 0, 64, 0
2, 79976, Note_on_c, 0, 67, 103
2, 79980, Note_on_c, 0, 55, 94
2, 79980, Note_on_c, 0, 58, 80
2, 79980, Note_on_c, 0, 50, 79
2, 79984, Note_on_c, 0, 43, 63
2, 79984, Note_on_c, 0, 38, 58
2, 79984, Note_on_c, 0, 46, 57
2, 80024, Control_c, 0, 64, 72
2, 80032, Control_c, 0, 64, 127
2, 80052, Note_on_c, 0, 55, 0
2, 80064, Note_on_c, 0, 46, 0
2, 80072, Note_on_c, 0, 50, 0
2, 80076, Note_on_c, 0, 38, 0
2, 80080, Note_on_c, 0, 43, 0
2, 80116, Note_on_c, 0, 58, 0
2, 80120, Note_on_c, 0, 67, 0
2, 80176, Control_c, 0, 64, 88
2, 80184, Control_c, 0, 64, 56
2, 80192, Note_on_c, 0, 67, 102
2, 80192, Note_on_c, 0, 58, 93
2, 80192, Control_c, 0, 64, 24
2, 80196, Note_on_c, 0, 55, 94
2, 80196, Note_on_c, 0, 50, 80
2, 80196, Note_on_c, 0, 46, 58
2, 80200, Note_on_c, 0, 38, 67
2, 80200, Note_on_c, 0, 43, 59
2, 80204, Control_c, 0, 64, 0
2, 80220, Note_on_c, 0, 43, 0
2, 80224, Note_on_c, 0, 55, 0
2, 80228, Note_on_c, 0, 46, 0
2, 80228, Note_on_c, 0, 50, 0
2, 80228, Note_on_c, 0, 38, 0
2, 80240, Note_on_c, 0, 67, 0
2, 80244, Note_on_c, 0, 58, 0
2, 80296, Note_on_c, 0, 69, 108
2, 80296, Note_on_c, 0, 60, 94
2, 80296, Note_on_c, 0, 57, 89
2, 80304, Note_on_c, 0, 50, 85
2, 80304, Note_on_c, 0, 38, 70
2, 80308, Note_on_c, 0, 42, 49
2, 80316, Note_on_c, 0, 45, 69
2, 80336, Note_on_c, 0, 45, 0
2, 80364, Control_c, 0, 64, 88
2, 80372, Control_c, 0, 64, 127
2, 80404, Note_on_c, 0, 50, 0
2, 80404, Note_on_c, 0, 42, 0
2, 80408, Note_on_c, 0, 38, 0
2, 80428, Note_on_c, 0, 57, 0
2, 80440, Note_on_c, 0, 60, 0
2, 80448, Note_on_c, 0, 69, 0
2, 80516, Control_c, 0, 64, 88
2, 80524, Control_c, 0, 64, 72
2, 80528, Note_on_c, 0, 66, 97
2, 80532, Note_on_c, 0, 60, 95
2, 80532, Note_on_c, 0, 57, 93
2, 80536, Note_on_c, 0, 50, 88
2, 80536, Note_on_c, 0, 38, 80
2, 80536, Control_c, 0, 64, 40
2, 80544, Control_c, 0, 64, 24
2, 80548, Note_on_c, 0, 50, 0
2, 80552, Control_c, 0, 64, 0
2, 80564, Note_on_c, 0, 60, 0
2, 80564, Note_on_c, 0, 38, 0
2, 80572, Note_on_c, 0, 57, 0
2, 80592, Note_on_c, 0, 66, 0
2, 80640, Note_on_c, 0, 67, 105
2, 80644, Note_on_c, 0, 55, 94
2, 80644, Note_on_c, 0, 58, 81
2, 80652, Note_on_c, 0, 43, 89
2, 80656, Note_on_c, 0, 31, 75
2, 80696, Control_c, 0, 64, 56
2, 80704, Control_c, 0, 64, 127
2, 80716, Note_on_c, 0, 67, 0
2, 80724, Note_on_c, 0, 55, 0
2, 80728, Note_on_c, 0, 58, 0
2, 80748, Note_on_c, 0, 31, 0
2, 80796, Note_on_c, 0, 43, 0
2, 80856, Note_on_c, 0, 49, 87
2, 80856, Note_on_c, 0, 37, 79
2, 80888, Note_on_c, 0, 49, 0
2, 80900, Note_on_c, 0, 37, 0
2, 80900, Control_c, 0, 64, 104
2, 80908, Control_c, 0, 64, 72
2, 80916, Note_on_c, 0, 50, 97
2, 80916, Note_on_c, 0, 38, 95
2, 80916, Control_c, 0, 64, 24
2, 80928, Control_c, 0, 64, 0
2, 80972, Note_on_c, 0, 38, 0
2, 80976, Note_on_c, 0, 55, 106
2, 80976, Note_on_c, 0, 43, 92
2, 80984, Note_on_c, 0, 50, 0
2, 81012, Note_on_c, 0, 43, 0
2, 81012, Control_c, 0, 64, 72
2, 81020, Control_c, 0, 64, 127
2, 81024, Note_on_c, 0, 55, 0
2, 81140, Control_c, 0, 64, 56
2, 81148, Control_c, 0, 64, 0
2, 81200, Note_on_c, 0, 62, 95
2, 81200, Note_on_c, 0, 74, 105
2, 81200, Note_on_c, 0, 38, 72
2, 81204, Note_on_c, 0, 50, 77
2, 81208, Control_c, 0, 64, 56
2, 81216, Control_c, 0, 64, 127
2, 81228, Note_on_c, 0, 38, 0
2, 81232, Note_on_c, 0, 62, 0
2, 81244, Note_on_c, 0, 50, 0
2, 81248, Note_on_c, 0, 74, 0
2, 81300, Control_c, 0, 64, 72
2, 81308, Control_c, 0, 64, 0
2, 81316, Note_on_c, 0, 79, 105
2, 81320, Note_on_c, 0, 67, 96
2, 81328, Note_on_c, 0, 55, 88
2, 81336, Note_on_c, 0, 43, 72
2, 81368, Control_c, 0, 64, 88
2, 81380, Control_c, 0, 64, 127
2, 81396, Note_on_c, 0, 67, 0
2, 81424, Note_on_c, 0, 79, 0
2, 81424, Note_on_c, 0, 43, 0
2, 81436, Note_on_c, 0, 55, 0
2, 81524, Note_on_c, 0, 81, 98
2, 81528, Note_on_c, 0, 69, 80
2, 81532, Note_on_c, 0, 74, 90
2, 81532, Note_on_c, 0, 54, 72
2, 81536, Note_on_c, 0, 42, 60
2, 81560, Note_on_c, 0, 69, 0
2, 81568, Note_on_c, 0, 81, 0
2, 81572, Note_on_c, 0, 42, 0
2, 81572, Note_on_c, 0, 74, 0
2, 81576, Note_on_c, 0, 54, 0
2, 81600, Control_c, 0, 64, 104
2, 81608, Control_c, 0, 64, 0
2, 81628, Note_on_c, 0, 82, 103
2, 81632, Note_on_c, 0, 70, 96
2, 81632, Note_on_c, 0, 74, 93
2, 81644, Note_on_c, 0, 43, 82
2, 81644, Note_on_c, 0, 55, 88
2, 81660, Control_c, 0, 64, 56
2, 81668, Note_on_c, 0, 74, 0
2, 81668, Control_c, 0, 64, 127
2, 81676, Note_on_c, 0, 70, 0
2, 81680, Note_on_c, 0, 43, 0
2, 81684, Note_on_c, 0, 55, 0
2, 81700, Note_on_c, 0, 82, 0
2, 81844, Note_on_c, 0, 84, 101
2, 81844, Note_on_c, 0, 72, 93
2, 81852, Note_on_c, 0, 77, 89
2, 81852, Note_on_c, 0, 45, 82
2, 81852, Note_on_c, 0, 57, 77
2, 81880, Note_on_c, 0, 72, 0
2, 81884, Note_on_c, 0, 45, 0
2, 81888, Note_on_c, 0, 77, 0
2, 81892, Note_on_c, 0, 57, 0
2, 81900, Note_on_c, 0, 84, 0
2, 81916, Control_c, 0, 64, 0
2, 81944, Note_on_c, 0, 86, 110
2, 81952, Note_on_c, 0, 77, 92
2, 81952, Note_on_c, 0, 74, 90
2, 81956, Note_on_c, 0, 46, 83
2, 81956, Note_on_c, 0, 58, 81
2, 81984, Control_c, 0, 64, 127
2, 81988, Note_on_c, 0, 46, 0
2, 81996, Note_on_c, 0, 58, 0
2, 82060, Note_on_c, 0, 74, 0
2, 82088, Note_on_c, 0, 77, 0
2, 82108, Note_on_c, 0, 86, 0
2, 82156, Note_on_c, 0, 82, 95
2, 82164, Note_on_c, 0, 74, 72
2, 82168, Note_on_c, 0, 62, 71
2, 82168, Note_on_c, 0, 77, 64
2, 82172, Note_on_c, 0, 70, 69
2, 82184, Note_on_c, 0, 77, 0
2, 82188, Note_on_c, 0, 74, 0
2, 82208, Note_on_c, 0, 82, 0
2, 82220, Note_on_c, 0, 62, 0
2, 82220, Note_on_c, 0, 70, 0
2, 82248, Control_c, 0, 64, 88
2, 82256, Control_c, 0, 64, 0
2, 82260, Note_on_c, 0, 89, 110
2, 82260, Note_on_c, 0, 77, 98
2, 82264, Note_on_c, 0, 81, 90
2, 82272, Note_on_c, 0, 65, 75
2, 82276, Note_on_c, 0, 72, 88
2, 82308, Control_c, 0, 64, 88
2, 82316, Note_on_c, 0, 72, 0
2, 82316, Control_c, 0, 64, 127
2, 82328, Note_on_c, 0, 65, 0
2, 82332, Note_on_c, 0, 89, 0
2, 82352, Note_on_c, 0, 81, 0
2, 82352, Note_on_c, 0, 77, 0
2, 82460, Control_c, 0, 64, 72
2, 82468, Control_c, 0, 64, 24
2, 82480, Note_on_c, 0, 87, 98
2, 82484, Note_on_c, 0, 41, 78
2, 82484, Note_on_c, 0, 75, 95
2, 82484, Note_on_c, 0, 53, 80
2, 82484, Control_c, 0, 64, 56
2, 82496, Note_on_c, 0, 81, 55
2, 82496, Control_c, 0, 64, 104
2, 82504, Control_c, 0, 64, 127
2, 82512, Note_on_c, 0, 81, 0
2, 82512, Note_on_c, 0, 41, 0
2, 82512, Note_on_c, 0, 53, 0
2, 82528, Note_on_c, 0, 75, 0
2, 82544, Note_on_c, 0, 87, 0
2, 82588, Note_on_c, 0, 86, 106
2, 82588, Note_on_c, 0, 82, 88
2, 82588, Control_c, 0, 64, 72
2, 82592, Note_on_c, 0, 74, 96
2, 82596, Control_c, 0, 64, 0
2, 82600, Note_on_c, 0, 58, 92
2, 82600, Note_on_c, 0, 46, 95
2, 82656, Control_c, 0, 64, 56
2, 82664, Control_c, 0, 64, 127
2, 82708, Note_on_c, 0, 82, 0
2, 82720, Note_on_c, 0, 86, 0
2, 82736, Note_on_c, 0, 46, 0
2, 82744, Note_on_c, 0, 74, 0
2, 82744, Note_on_c, 0, 58, 0
2, 82944, Note_on_c, 0, 82, 94
2, 82948, Note_on_c, 0, 74, 85
2, 82948, Note_on_c, 0, 70, 74
2, 82948, Control_c, 0, 64, 88
2, 82952, Note_on_c, 0, 77, 78
2, 82952, Note_on_c, 0, 62, 80
2, 82956, Note_on_c, 0, 65, 66
2, 82956, Control_c, 0, 64, 24
2, 82968, Note_on_c, 0, 77, 0
2, 82972, Control_c, 0, 64, 56
2, 82976, Note_on_c, 0, 74, 0
2, 82980, Control_c, 0, 64, 104
2, 82988, Control_c, 0, 64, 127
2, 83004, Note_on_c, 0, 62, 0
2, 83004, Note_on_c, 0, 82, 0
2, 83008, Note_on_c, 0, 70, 0
2, 83016, Note_on_c, 0, 65, 0
2, 83144, Note_on_c, 0, 89, 67
2, 83192, Control_c, 0, 64, 72
2, 83204, Control_c, 0, 64, 0
2, 83216, Note_on_c, 0, 101, 83
2, 83252, Note_on_c, 0, 89, 0
2, 83264, Note_on_c, 0, 101, 0
2, 83284, Note_on_c, 0, 99, 80
2, 83288, Note_on_c, 0, 49, 62
2, 83288, Control_c, 0, 64, 127
2, 83340, Note_on_c, 0, 49, 0
2, 83340, Note_on_c, 0, 97, 77
2, 83356, Note_on_c, 0, 99, 0
2, 83368, Note_on_c, 0, 56, 42
2, 83396, Note_on_c, 0, 92, 71
2, 83424, Note_on_c, 0, 56, 0
2, 83432, Note_on_c, 0, 97, 0
2, 83436, Note_on_c, 0, 89, 62
2, 83444, Note_on_c, 0, 61, 44
2, 83452, Note_on_c, 0, 92, 0
2, 83460, Note_on_c, 0, 89, 0
2, 83488, Note_on_c, 0, 61, 0
2, 83496, Note_on_c, 0, 87, 74
2, 83508, Note_on_c, 0, 65, 40
2, 83544, Note_on_c, 0, 85, 64
2, 83564, Note_on_c, 0, 87, 0
2, 83588, Note_on_c, 0, 65, 0
2, 83592, Note_on_c, 0, 68, 51
2, 83604, Note_on_c, 0, 85, 0
2, 83604, Note_on_c, 0, 77, 44
2, 83604, Note_on_c, 0, 80, 72
2, 83632, Note_on_c, 0, 77, 0
2, 83636, Note_on_c, 0, 68, 0
2, 83648, Note_on_c, 0, 80, 0
2, 83804, Note_on_c, 0, 89, 62
2, 83856, Note_on_c, 0, 89, 0
2, 83868, Note_on_c, 0, 101, 83
2, 83908, Control_c, 0, 64, 72
2, 83916, Control_c, 0, 64, 0
2, 83924, Note_on_c, 0, 101, 0
2, 83932, Note_on_c, 0, 99, 80
2, 83932, Note_on_c, 0, 49, 64
2, 83968, Control_c, 0, 64, 88
2, 83976, Control_c, 0, 64, 127
2, 83988, Note_on_c, 0, 97, 72
2, 83992, Note_on_c, 0, 49, 0
2, 84004, Note_on_c, 0, 99, 0
2, 84020, Note_on_c, 0, 56, 46
2, 84036, Note_on_c, 0, 92, 66
2, 84072, Note_on_c, 0, 56, 0
2, 84072, Note_on_c, 0, 97, 0
2, 84072, Note_on_c, 0, 89, 56
2, 84088, Note_on_c, 0, 92, 0
2, 84092, Note_on_c, 0, 61, 43
2, 84104, Note_on_c, 0, 89, 0
2, 84136, Note_on_c, 0, 87, 69
2, 84148, Note_on_c, 0, 61, 0
2, 84164, Note_on_c, 0, 65, 40
2, 84184, Note_on_c, 0, 85, 72
2, 84200, Note_on_c, 0, 87, 0
2, 84248, Note_on_c, 0, 77, 43
2, 84252, Note_on_c, 0, 85, 0
2, 84252, Note_on_c, 0, 80, 74
2, 84256, Note_on_c, 0, 65, 0
2, 84256, Note_on_c, 0, 68, 51
2, 84280, Note_on_c, 0, 77, 0
2, 84288, Note_on_c, 0, 68, 0
2, 84300, Note_on_c, 0, 80, 0
2, 84456, Note_on_c, 0, 89, 85
2, 84520, Note_on_c, 0, 89, 0
2, 84524, Note_on_c, 0, 101, 95
2, 84540, Note_on_c, 0, 89, 21
2, 84556, Note_on_c, 0, 89, 0
2, 84564, Control_c, 0, 64, 56
2, 84576, Note_on_c, 0, 101, 0
2, 84576, Control_c, 0, 64, 0
2, 84584, Note_on_c, 0, 99, 92
2, 84588, Note_on_c, 0, 49, 78
2, 84616, Control_c, 0, 64, 72
2, 84624, Control_c, 0, 64, 127
2, 84640, Note_on_c, 0, 97, 85
2, 84644, Note_on_c, 0, 49, 0
2, 84664, Note_on_c, 0, 99, 0
2, 84672, Note_on_c, 0, 56, 56
2, 84692, Note_on_c, 0, 92, 79
2, 84724, Note_on_c, 0, 56, 0
2, 84728, Note_on_c, 0, 97, 0
2, 84728, Note_on_c, 0, 89, 60
2, 84744, Note_on_c, 0, 92, 0
2, 84748, Note_on_c, 0, 61, 56
2, 84756, Note_on_c, 0, 89, 0
2, 84796, Note_on_c, 0, 87, 72
2, 84804, Note_on_c, 0, 61, 0
2, 84820, Note_on_c, 0, 65, 47
2, 84844, Note_on_c, 0, 85, 79
2, 84856, Note_on_c, 0, 87, 0
2, 84904, Note_on_c, 0, 80, 63
2, 84908, Note_on_c, 0, 65, 0
2, 84916, Note_on_c, 0, 68, 70
2, 84924, Note_on_c, 0, 85, 0
2, 84924, Note_on_c, 0, 77, 66
2, 84952, Note_on_c, 0, 68, 0
2, 84960, Note_on_c, 0, 80, 0
2, 84968, Note_on_c, 0, 77, 0
2, 85052, Control_c, 0, 64, 104
2, 85060, Control_c, 0, 64, 56
2, 85068, Control_c, 0, 64, 24
2, 85076, Control_c, 0, 64, 0
2, 85144, Note_on_c, 0, 68, 85
2, 85144, Note_on_c, 0, 77, 103
2, 85144, Note_on_c, 0, 65, 92
2, 85144, Note_on_c, 0, 49, 97
2, 85144, Note_on_c, 0, 37, 71
2, 85172, Note_on_c, 0, 49, 0
2, 85176, Note_on_c, 0, 37, 0
2, 85180, Note_on_c, 0, 65, 0
2, 85188, Note_on_c, 0, 68, 0
2, 85192, Note_on_c, 0, 77, 0
2, 85248, Note_on_c, 0, 77, 105
2, 85248, Note_on_c, 0, 37, 81
2, 85248, Note_on_c, 0, 49, 102
2, 85248, Note_on_c, 0, 68, 90
2, 85248, Note_on_c, 0, 65, 98
2, 85272, Control_c, 0, 64, 56
2, 85280, Note_on_c, 0, 49, 0
2, 85280, Control_c, 0, 64, 127
2, 85288, Note_on_c, 0, 37, 0
2, 85308, Note_on_c, 0, 77, 0
2, 85320, Note_on_c, 0, 65, 0
2, 85320, Note_on_c, 0, 68, 0
2, 85464, Note_on_c, 0, 75, 103
2, 85464, Note_on_c, 0, 33, 75
2, 85464, Note_on_c, 0, 45, 89
2, 85464, Note_on_c, 0, 66, 81
2, 85464, Note_on_c, 0, 63, 83
2, 85500, Note_on_c, 0, 45, 0
2, 85500, Note_on_c, 0, 33, 0
2, 85508, Note_on_c, 0, 63, 0
2, 85512, Control_c, 0, 64, 104
2, 85520, Note_on_c, 0, 66, 0
2, 85520, Control_c, 0, 64, 72
2, 85524, Note_on_c, 0, 75, 0
2, 85528, Control_c, 0, 64, 0
2, 85568, Note_on_c, 0, 73, 102
2, 85568, Note_on_c, 0, 61, 80
2, 85568, Note_on_c, 0, 65, 89
2, 85568, Note_on_c, 0, 34, 81
2, 85568, Note_on_c, 0, 46, 94
2, 85596, Note_on_c, 0, 46, 0
2, 85604, Control_c, 0, 64, 127
2, 85612, Note_on_c, 0, 34, 0
2, 85624, Note_on_c, 0, 65, 0
2, 85628, Note_on_c, 0, 61, 0
2, 85644, Note_on_c, 0, 73, 0
2, 85688, Control_c, 0, 64, 104
2, 85696, Control_c, 0, 64, 72
2, 85708, Control_c, 0, 64, 40
2, 85716, Control_c, 0, 64, 24
2, 85724, Control_c, 0, 64, 0
2, 85776, Control_c, 0, 64, 40
2, 85784, Note_on_c, 0, 72, 108
2, 85784, Note_on_c, 0, 41, 82
2, 85784, Note_on_c, 0, 29, 72
2, 85784, Note_on_c, 0, 63, 95
2, 85784, Note_on_c, 0, 60, 97
2, 85784, Control_c, 0, 64, 56
2, 85816, Note_on_c, 0, 60, 0
2, 85816, Note_on_c, 0, 41, 0
2, 85816, Control_c, 0, 64, 0
2, 85820, Note_on_c, 0, 29, 0
2, 85828, Note_on_c, 0, 72, 0
2, 85828, Note_on_c, 0, 63, 0
2, 85896, Note_on_c, 0, 70, 100
2, 85896, Note_on_c, 0, 58, 98
2, 85896, Note_on_c, 0, 46, 97
2, 85896, Note_on_c, 0, 34, 66
2, 85896, Note_on_c, 0, 61, 83
2, 85964, Control_c, 0, 64, 40
2, 85972, Control_c, 0, 64, 88
2, 85980, Control_c, 0, 64, 127
2, 86048, Note_on_c, 0, 34, 0
2, 86068, Note_on_c, 0, 46, 0
2, 86068, Note_on_c, 0, 61, 0
2, 86080, Note_on_c, 0, 70, 0
2, 86104, Note_on_c, 0, 58, 0
2, 86228, Note_on_c, 0, 68, 103
2, 86228, Note_on_c, 0, 60, 94
2, 86228, Note_on_c, 0, 39, 69
2, 86228, Note_on_c, 0, 48, 93
2, 86228, Note_on_c, 0, 44, 65
2, 86228, Note_on_c, 0, 36, 67
2, 86228, Note_on_c, 0, 56, 89
2, 86252, Control_c, 0, 64, 72
2, 86260, Control_c, 0, 64, 0
2, 86348, Note_on_c, 0, 36, 0
2, 86348, Control_c, 0, 64, 88
2, 86356, Control_c, 0, 64, 127
2, 86360, Note_on_c, 0, 39, 0
2, 86368, Note_on_c, 0, 44, 0
2, 86368, Note_on_c, 0, 60, 0
2, 86380, Note_on_c, 0, 56, 0
2, 86380, Note_on_c, 0, 48, 0
2, 86400, Note_on_c, 0, 68, 0
2, 86548, Control_c, 0, 64, 104
2, 86560, Note_on_c, 0, 67, 105
2, 86560, Note_on_c, 0, 55, 96
2, 86560, Note_on_c, 0, 50, 77
2, 86560, Note_on_c, 0, 38, 63
2, 86560, Note_on_c, 0, 43, 63
2, 86560, Note_on_c, 0, 46, 58
2, 86560, Note_on_c, 0, 58, 82
2, 86560, Control_c, 0, 64, 0
2, 86620, Control_c, 0, 64, 72
2, 86624, Control_c, 0, 64, 127
2, 86668, Note_on_c, 0, 46, 0
2, 86668, Note_on_c, 0, 50, 0
2, 86668, Note_on_c, 0, 38, 0
2, 86684, Note_on_c, 0, 43, 0
2, 86684, Note_on_c, 0, 55, 0
2, 86700, Note_on_c, 0, 58, 0
2, 86716, Note_on_c, 0, 67, 0
2, 86736, Control_c, 0, 64, 104
2, 86748, Control_c, 0, 64, 72
2, 86756, Control_c, 0, 64, 40
2, 86764, Control_c, 0, 64, 24
2, 86772, Control_c, 0, 64, 0
2, 86788, Note_on_c, 0, 62, 93
2, 86788, Note_on_c, 0, 38, 86
2, 86788, Note_on_c, 0, 50, 81
2, 86812, Note_on_c, 0, 38, 0
2, 86816, Note_on_c, 0, 50, 0
2, 86840, Note_on_c, 0, 62, 0
2, 86892, Note_on_c, 0, 51, 85
2, 86892, Note_on_c, 0, 39, 89
2, 86892, Note_on_c, 0, 63, 94
2, 86976, Control_c, 0, 64, 72
2, 86984, Control_c, 0, 64, 127
2, 87016, Note_on_c, 0, 39, 0
2, 87020, Note_on_c, 0, 51, 0
2, 87032, Note_on_c, 0, 63, 0
2, 87068, Control_c, 0, 64, 104
2, 87080, Control_c, 0, 64, 56
2, 87088, Control_c, 0, 64, 24
2, 87096, Control_c, 0, 64, 0
2, 87140, Note_on_c, 0, 37, 88
2, 87140, Note_on_c, 0, 61, 88
2, 87140, Note_on_c, 0, 49, 85
2, 87140, Control_c, 0, 64, 24
2, 87144, Control_c, 0, 64, 72
2, 87156, Control_c, 0, 64, 127
2, 87172, Note_on_c, 0, 37, 0
2, 87176, Note_on_c, 0, 49, 0
2, 87180, Note_on_c, 0, 61, 0
2, 87232, Control_c, 0, 64, 104
2, 87240, Control_c, 0, 64, 88
2, 87248, Control_c, 0, 64, 56
2, 87256, Control_c, 0, 64, 24
2, 87268, Control_c, 0, 64, 0
2, 87280, Note_on_c, 0, 62, 86
2, 87280, Note_on_c, 0, 50, 88
2, 87280, Note_on_c, 0, 38, 87
2, 87312, Note_on_c, 0, 62, 0
2, 87356, Note_on_c, 0, 62, 83
2, 87388, Note_on_c, 0, 62, 0
2, 87424, Note_on_c, 0, 38, 0
2, 87428, Note_on_c, 0, 62, 69
2, 87440, Note_on_c, 0, 50, 0
2, 87464, Note_on_c, 0, 62, 0
2, 87508, Note_on_c, 0, 62, 78
2, 87512, Note_on_c, 0, 60, 62
2, 87516, Note_on_c, 0, 57, 55
2, 87520, Note_on_c, 0, 50, 57
2, 87536, Note_on_c, 0, 50, 0
2, 87536, Note_on_c, 0, 57, 0
2, 87536, Note_on_c, 0, 60, 0
2, 87548, Note_on_c, 0, 62, 0
2, 87584, Note_on_c, 0, 64, 85
2, 87620, Note_on_c, 0, 64, 0
2, 87652, Note_on_c, 0, 66, 78
2, 87696, Note_on_c, 0, 66, 0
2, 87724, Note_on_c, 0, 67, 83
2, 87760, Note_on_c, 0, 67, 0
2, 87800, Note_on_c, 0, 67, 78
2, 87832, Note_on_c, 0, 67, 0
2, 87872, Note_on_c, 0, 67, 71
2, 87912, Note_on_c, 0, 67, 0
2, 87948, Note_on_c, 0, 67, 77
2, 87948, Note_on_c, 0, 58, 62
2, 87948, Note_on_c, 0, 62, 63
2, 87948, Note_on_c, 0, 50, 69
2, 87968, Note_on_c, 0, 50, 0
2, 87980, Note_on_c, 0, 62, 0
2, 87980, Note_on_c, 0, 58, 0
2, 87996, Note_on_c, 0, 67, 0
2, 88032, Note_on_c, 0, 69, 92
2, 88076, Note_on_c, 0, 69, 0
2, 88096, Note_on_c, 0, 70, 85
2, 88156, Note_on_c, 0, 70, 0
2, 88172, Note_on_c, 0, 69, 89
2, 88224, Note_on_c, 0, 69, 0
2, 88252, Note_on_c, 0, 70, 81
2, 88296, Note_on_c, 0, 70, 0
2, 88316, Note_on_c, 0, 69, 93
2, 88352, Note_on_c, 0, 50, 71
2, 88364, Note_on_c, 0, 69, 0
2, 88372, Note_on_c, 0, 54, 70
2, 88392, Note_on_c, 0, 60, 57
2, 88396, Note_on_c, 0, 50, 0
2, 88404, Note_on_c, 0, 69, 74
2, 88416, Note_on_c, 0, 63, 86
2, 88420, Note_on_c, 0, 54, 0
2, 88428, Note_on_c, 0, 60, 0
2, 88444, Note_on_c, 0, 63, 0
2, 88460, Note_on_c, 0, 69, 0
2, 88480, Note_on_c, 0, 70, 83
2, 88528, Note_on_c, 0, 70, 0
2, 88556, Note_on_c, 0, 69, 89
2, 88600, Note_on_c, 0, 69, 0
2, 88632, Note_on_c, 0, 67, 86
2, 88680, Note_on_c, 0, 67, 0
2, 88708, Note_on_c, 0, 70, 85
2, 88768, Note_on_c, 0, 70, 0
2, 88776, Note_on_c, 0, 67, 89
2, 88816, Note_on_c, 0, 67, 0
2, 88860, Note_on_c, 0, 58, 72
2, 88864, Note_on_c, 0, 63, 97
2, 88868, Note_on_c, 0, 50, 69
2, 88868, Note_on_c, 0, 55, 70
2, 88888, Note_on_c, 0, 50, 0
2, 88892, Note_on_c, 0, 55, 0
2, 88896, Note_on_c, 0, 58, 0
2, 88900, Note_on_c, 0, 63, 0
2, 88940, Note_on_c, 0, 63, 83
2, 88984, Note_on_c, 0, 63, 0
2, 89012, Note_on_c, 0, 63, 78
2, 89056, Note_on_c, 0, 63, 0
2, 89104, Note_on_c, 0, 62, 89
2, 89132, Note_on_c, 0, 62, 0
2, 89184, Note_on_c, 0, 62, 89
2, 89216, Note_on_c, 0, 62, 0
2, 89260, Note_on_c, 0, 62, 81
2, 89296, Note_on_c, 0, 62, 0
2, 89332, Note_on_c, 0, 62, 75
2, 89336, Note_on_c, 0, 57, 63
2, 89336, Note_on_c, 0, 60, 59
2, 89336, Note_on_c, 0, 50, 64
2, 89356, Note_on_c, 0, 57, 0
2, 89360, Note_on_c, 0, 50, 0
2, 89364, Note_on_c, 0, 60, 0
2, 89380, Note_on_c, 0, 62, 0
2, 89412, Note_on_c, 0, 64, 86
2, 89448, Note_on_c, 0, 64, 0
2, 89484, Note_on_c, 0, 66, 81
2, 89524, Note_on_c, 0, 66, 0
2, 89560, Note_on_c, 0, 67, 82
2, 89596, Note_on_c, 0, 67, 0
2, 89636, Note_on_c, 0, 67, 80
2, 89672, Note_on_c, 0, 67, 0
2, 89712, Note_on_c, 0, 67, 71
2, 89752, Note_on_c, 0, 67, 0
2, 89788, Note_on_c, 0, 58, 62
2, 89792, Note_on_c, 0, 62, 67
2, 89792, Note_on_c, 0, 67, 75
2, 89796, Note_on_c, 0, 50, 64
2, 89816, Note_on_c, 0, 50, 0
2, 89824, Note_on_c, 0, 62, 0
2, 89828, Note_on_c, 0, 58, 0
2, 89840, Note_on_c, 0, 67, 0
2, 89872, Note_on_c, 0, 69, 92
2, 89912, Note_on_c, 0, 69, 0
2, 89944, Note_on_c, 0, 70, 83
2, 89988, Note_on_c, 0, 70, 0
2, 90016, Note_on_c, 0, 69, 87
2, 90064, Note_on_c, 0, 69, 0
2, 90088, Note_on_c, 0, 70, 83
2, 90132, Note_on_c, 0, 70, 0
2, 90160, Note_on_c, 0, 69, 95
2, 90184, Note_on_c, 0, 50, 63
2, 90208, Note_on_c, 0, 69, 0
2, 90208, Note_on_c, 0, 54, 58
2, 90232, Note_on_c, 0, 50, 0
2, 90232, Note_on_c, 0, 60, 47
2, 90240, Note_on_c, 0, 69, 80
2, 90256, Note_on_c, 0, 60, 0
2, 90256, Note_on_c, 0, 54, 0
2, 90256, Note_on_c, 0, 63, 57
2, 90272, Note_on_c, 0, 63, 0
2, 90292, Note_on_c, 0, 69, 0
2, 90312, Note_on_c, 0, 70, 87
2, 90364, Note_on_c, 0, 70, 0
2, 90388, Note_on_c, 0, 69, 94
2, 90436, Note_on_c, 0, 69, 0
2, 90464, Note_on_c, 0, 67, 94
2, 90472, Note_on_c, 0, 62, 79
2, 90476, Note_on_c, 0, 58, 58
2, 90480, Note_on_c, 0, 55, 64
2, 90492, Note_on_c, 0, 62, 0
2, 90496, Note_on_c, 0, 58, 0
2, 90500, Note_on_c, 0, 55, 0
2, 90516, Note_on_c, 0, 67, 0
2, 90540, Note_on_c, 0, 70, 81
2, 90600, Note_on_c, 0, 70, 0
2, 90612, Note_on_c, 0, 74, 98
2, 90692, Note_on_c, 0, 74, 0
2, 90704, Note_on_c, 0, 67, 93
2, 90704, Note_on_c, 0, 79, 106
2, 90712, Note_on_c, 0, 55, 88
2, 90716, Note_on_c, 0, 43, 72
2, 90732, Note_on_c, 0, 43, 0
2, 90740, Note_on_c, 0, 67, 0
2, 90740, Control_c, 0, 64, 127
2, 90752, Note_on_c, 0, 55, 0
2, 90764, Note_on_c, 0, 79, 0
2, 90880, Control_c, 0, 64, 104
2, 90892, Control_c, 0, 64, 24
2, 90900, Control_c, 0, 64, 0
2, 90960, Note_on_c, 0, 86, 101
2, 90960, Note_on_c, 0, 74, 98
2, 90964, Note_on_c, 0, 50, 71
2, 90964, Note_on_c, 0, 62, 71
2, 90980, Note_on_c, 0, 50, 0
2, 90984, Control_c, 0, 64, 127
2, 91008, Note_on_c, 0, 86, 0
2, 91012, Note_on_c, 0, 74, 0
2, 91016, Note_on_c, 0, 62, 0
2, 91188, Note_on_c, 0, 74, 78
2, 91188, Note_on_c, 0, 69, 60
2, 91192, Note_on_c, 0, 72, 52
2, 91196, Note_on_c, 0, 62, 49
2, 91212, Note_on_c, 0, 69, 0
2, 91216, Note_on_c, 0, 62, 0
2, 91220, Note_on_c, 0, 72, 0
2, 91232, Note_on_c, 0, 74, 0
2, 91236, Control_c, 0, 64, 88
2, 91244, Control_c, 0, 64, 72
2, 91252, Control_c, 0, 64, 56
2, 91260, Note_on_c, 0, 76, 92
2, 91264, Control_c, 0, 64, 40
2, 91272, Control_c, 0, 64, 24
2, 91280, Control_c, 0, 64, 0
2, 91304, Note_on_c, 0, 76, 0
2, 91336, Note_on_c, 0, 78, 89
2, 91380, Note_on_c, 0, 78, 0
2, 91412, Note_on_c, 0, 79, 86
2, 91444, Note_on_c, 0, 79, 0
2, 91484, Note_on_c, 0, 79, 83
2, 91520, Note_on_c, 0, 79, 0
2, 91560, Note_on_c, 0, 79, 83
2, 91600, Note_on_c, 0, 79, 0
2, 91640, Note_on_c, 0, 79, 80
2, 91644, Note_on_c, 0, 70, 73
2, 91644, Note_on_c, 0, 74, 73
2, 91652, Note_on_c, 0, 62, 64
2, 91672, Note_on_c, 0, 62, 0
2, 91680, Note_on_c, 0, 70, 0
2, 91684, Note_on_c, 0, 74, 0
2, 91688, Note_on_c, 0, 79, 0
2, 91716, Note_on_c, 0, 81, 95
2, 91764, Note_on_c, 0, 81, 0
2, 91788, Note_on_c, 0, 82, 83
2, 91836, Note_on_c, 0, 82, 0
2, 91860, Note_on_c, 0, 81, 93
2, 91908, Note_on_c, 0, 81, 0
2, 91932, Note_on_c, 0, 82, 89
2, 91980, Note_on_c, 0, 82, 0
2, 92004, Note_on_c, 0, 81, 94
2, 92024, Note_on_c, 0, 62, 72
2, 92048, Note_on_c, 0, 66, 62
2, 92052, Note_on_c, 0, 81, 0
2, 92076, Note_on_c, 0, 62, 0
2, 92076, Note_on_c, 0, 72, 60
2, 92080, Control_c, 0, 64, 24
2, 92088, Note_on_c, 0, 81, 80
2, 92088, Control_c, 0, 64, 72
2, 92092, Note_on_c, 0, 66, 0
2, 92096, Control_c, 0, 64, 127
2, 92104, Note_on_c, 0, 75, 81
2, 92116, Note_on_c, 0, 72, 0
2, 92124, Note_on_c, 0, 75, 0
2, 92140, Note_on_c, 0, 81, 0
2, 92168, Note_on_c, 0, 82, 89
2, 92184, Control_c, 0, 64, 88
2, 92192, Control_c, 0, 64, 72
2, 92200, Control_c, 0, 64, 40
2, 92208, Control_c, 0, 64, 24
2, 92216, Control_c, 0, 64, 0
2, 92220, Note_on_c, 0, 82, 0
2, 92248, Note_on_c, 0, 81, 93
2, 92292, Note_on_c, 0, 81, 0
2, 92320, Note_on_c, 0, 79, 94
2, 92368, Note_on_c, 0, 79, 0
2, 92396, Note_on_c, 0, 82, 83
2, 92456, Note_on_c, 0, 82, 0
2, 92464, Note_on_c, 0, 79, 94
2, 92504, Note_on_c, 0, 79, 0
2, 92544, Note_on_c, 0, 70, 62
2, 92548, Note_on_c, 0, 67, 60
2, 92552, Note_on_c, 0, 75, 85
2, 92580, Note_on_c, 0, 75, 0
2, 92580, Note_on_c, 0, 67, 0
2, 92580, Note_on_c, 0, 70, 0
2, 92632, Note_on_c, 0, 75, 98
2, 92672, Note_on_c, 0, 75, 0
2, 92704, Note_on_c, 0, 75, 85
2, 92744, Note_on_c, 0, 75, 0
2, 92792, Note_on_c, 0, 74, 78
2, 92820, Note_on_c, 0, 74, 0
2, 92864, Note_on_c, 0, 74, 93
2, 92900, Note_on_c, 0, 74, 0
2, 92940, Note_on_c, 0, 74, 83
2, 92976, Note_on_c, 0, 74, 0
2, 93024, Note_on_c, 0, 74, 78
2, 93028, Note_on_c, 0, 69, 69
2, 93028, Note_on_c, 0, 62, 60
2, 93032, Note_on_c, 0, 72, 58
2, 93036, Control_c, 0, 64, 24
2, 93048, Control_c, 0, 64, 56
2, 93052, Note_on_c, 0, 62, 0
2, 93056, Note_on_c, 0, 69, 0
2, 93056, Control_c, 0, 64, 72
2, 93060, Note_on_c, 0, 72, 0
2, 93064, Control_c, 0, 64, 88
2, 93068, Note_on_c, 0, 74, 0
2, 93100, Note_on_c, 0, 76, 90
2, 93104, Control_c, 0, 64, 40
2, 93112, Control_c, 0, 64, 24
2, 93120, Control_c, 0, 64, 0
2, 93136, Note_on_c, 0, 76, 0
2, 93172, Note_on_c, 0, 78, 89
2, 93216, Note_on_c, 0, 78, 0
2, 93248, Note_on_c, 0, 79, 85
2, 93284, Note_on_c, 0, 79, 0
2, 93320, Note_on_c, 0, 79, 90
2, 93352, Note_on_c, 0, 79, 0
2, 93400, Note_on_c, 0, 79, 86
2, 93436, Note_on_c, 0, 79, 0
2, 93476, Note_on_c, 0, 79, 88
2, 93480, Note_on_c, 0, 70, 78
2, 93480, Note_on_c, 0, 74, 77
2, 93488, Note_on_c, 0, 62, 58
2, 93512, Note_on_c, 0, 62, 0
2, 93516, Note_on_c, 0, 74, 0
2, 93516, Note_on_c, 0, 70, 0
2, 93524, Note_on_c, 0, 79, 0
2, 93552, Note_on_c, 0, 81, 100
2, 93600, Note_on_c, 0, 81, 0
2, 93624, Note_on_c, 0, 82, 89
2, 93676, Note_on_c, 0, 82, 0
2, 93696, Note_on_c, 0, 81, 94
2, 93748, Note_on_c, 0, 81, 0
2, 93768, Note_on_c, 0, 82, 92
2, 93820, Note_on_c, 0, 82, 0
2, 93840, Note_on_c, 0, 81, 94
2, 93872, Note_on_c, 0, 62, 63
2, 93892, Note_on_c, 0, 81, 0
2, 93900, Note_on_c, 0, 66, 44
2, 93904, Note_on_c, 0, 72, 25
2, 93912, Note_on_c, 0, 62, 0
2, 93920, Note_on_c, 0, 81, 93
2, 93928, Note_on_c, 0, 66, 0
2, 93928, Note_on_c, 0, 75, 90
2, 93944, Note_on_c, 0, 72, 0
2, 93952, Note_on_c, 0, 75, 0
2, 93976, Note_on_c, 0, 81, 0
2, 93996, Note_on_c, 0, 82, 94
2, 94044, Note_on_c, 0, 82, 0
2, 94068, Note_on_c, 0, 81, 96
2, 94120, Note_on_c, 0, 81, 0
2, 94144, Note_on_c, 0, 79, 94
2, 94152, Note_on_c, 0, 70, 69
2, 94152, Note_on_c, 0, 74, 69
2, 94164, Note_on_c, 0, 67, 57
2, 94168, Note_on_c, 0, 74, 0
2, 94180, Note_on_c, 0, 67, 0
2, 94180, Note_on_c, 0, 70, 0
2, 94208, Note_on_c, 0, 79, 0
2, 94216, Note_on_c, 0, 82, 86
2, 94284, Note_on_c, 0, 82, 0
2, 94296, Note_on_c, 0, 86, 103
2, 94368, Note_on_c, 0, 86, 0
2, 94380, Note_on_c, 0, 79, 97
2, 94384, Note_on_c, 0, 91, 113
2, 94384, Note_on_c, 0, 73, 74
2, 94384, Note_on_c, 0, 70, 67
2, 94388, Note_on_c, 0, 63, 70
2, 94400, Control_c, 0, 64, 88
2, 94412, Control_c, 0, 64, 127
2, 94416, Note_on_c, 0, 79, 0
2, 94424, Note_on_c, 0, 63, 0
2, 94424, Note_on_c, 0, 73, 0
2, 94440, Note_on_c, 0, 91, 0
2, 94472, Note_on_c, 0, 70, 0
2, 94536, Control_c, 0, 64, 72
2, 94544, Control_c, 0, 64, 24
2, 94552, Control_c, 0, 64, 0
2, 94612, Note_on_c, 0, 86, 98
2, 94628, Note_on_c, 0, 62, 67
2, 94636, Control_c, 0, 64, 56
2, 94644, Control_c, 0, 64, 127
2, 94664, Note_on_c, 0, 62, 0
2, 94680, Note_on_c, 0, 86, 0
2, 94692, Note_on_c, 0, 98, 93
2, 94752, Note_on_c, 0, 98, 0
2, 94760, Note_on_c, 0, 88, 94
2, 94824, Note_on_c, 0, 88, 0
2, 94832, Note_on_c, 0, 74, 75
2, 94840, Note_on_c, 0, 69, 69
2, 94840, Note_on_c, 0, 72, 66
2, 94844, Note_on_c, 0, 98, 101
2, 94856, Note_on_c, 0, 72, 0
2, 94864, Note_on_c, 0, 74, 0
2, 94880, Note_on_c, 0, 69, 0
2, 94900, Note_on_c, 0, 98, 0
2, 94916, Note_on_c, 0, 90, 88
2, 94916, Control_c, 0, 64, 88
2, 94924, Control_c, 0, 64, 72
2, 94932, Control_c, 0, 64, 56
2, 94940, Control_c, 0, 64, 40
2, 94952, Control_c, 0, 64, 24
2, 94960, Control_c, 0, 64, 0
2, 94968, Note_on_c, 0, 90, 0
2, 94984, Note_on_c, 0, 98, 97
2, 95040, Note_on_c, 0, 98, 0
2, 95056, Note_on_c, 0, 91, 92
2, 95060, Note_on_c, 0, 86, 85
2, 95072, Note_on_c, 0, 62, 67
2, 95072, Control_c, 0, 64, 24
2, 95084, Control_c, 0, 64, 88
2, 95092, Control_c, 0, 64, 127
2, 95112, Note_on_c, 0, 86, 0
2, 95116, Note_on_c, 0, 62, 0
2, 95116, Note_on_c, 0, 91, 0
2, 95128, Note_on_c, 0, 98, 94
2, 95192, Note_on_c, 0, 98, 0
2, 95204, Note_on_c, 0, 93, 92
2, 95204, Note_on_c, 0, 86, 80
2, 95232, Control_c, 0, 64, 104
2, 95240, Control_c, 0, 64, 72
2, 95248, Control_c, 0, 64, 56
2, 95260, Note_on_c, 0, 86, 0
2, 95260, Control_c, 0, 64, 40
2, 95264, Note_on_c, 0, 93, 0
2, 95268, Control_c, 0, 64, 24
2, 95276, Note_on_c, 0, 98, 98
2, 95276, Control_c, 0, 64, 0
2, 95284, Note_on_c, 0, 67, 60
2, 95284, Note_on_c, 0, 74, 71
2, 95288, Note_on_c, 0, 70, 59
2, 95308, Note_on_c, 0, 74, 0
2, 95320, Note_on_c, 0, 70, 0
2, 95328, Note_on_c, 0, 67, 0
2, 95336, Note_on_c, 0, 98, 0
2, 95352, Note_on_c, 0, 94, 85
2, 95352, Note_on_c, 0, 86, 83
2, 95408, Note_on_c, 0, 86, 0
2, 95412, Note_on_c, 0, 94, 0
2, 95420, Note_on_c, 0, 98, 100
2, 95480, Note_on_c, 0, 98, 0
2, 95496, Note_on_c, 0, 93, 101
2, 95500, Note_on_c, 0, 86, 83
2, 95500, Control_c, 0, 64, 104
2, 95504, Note_on_c, 0, 62, 67
2, 95508, Control_c, 0, 64, 127
2, 95552, Note_on_c, 0, 62, 0
2, 95552, Note_on_c, 0, 93, 0
2, 95560, Note_on_c, 0, 86, 0
2, 95568, Note_on_c, 0, 98, 93
2, 95628, Note_on_c, 0, 98, 0
2, 95644, Note_on_c, 0, 94, 85
2, 95648, Note_on_c, 0, 86, 75
2, 95704, Note_on_c, 0, 94, 0
2, 95708, Note_on_c, 0, 86, 0
2, 95716, Note_on_c, 0, 98, 96
2, 95732, Note_on_c, 0, 74, 71
2, 95736, Note_on_c, 0, 72, 65
2, 95740, Note_on_c, 0, 66, 50
2, 95752, Note_on_c, 0, 72, 0
2, 95764, Note_on_c, 0, 74, 0
2, 95768, Control_c, 0, 64, 104
2, 95776, Note_on_c, 0, 98, 0
2, 95780, Control_c, 0, 64, 88
2, 95784, Note_on_c, 0, 66, 0
2, 95788, Control_c, 0, 64, 72
2, 95792, Note_on_c, 0, 86, 78
2, 95792, Note_on_c, 0, 93, 94
2, 95800, Control_c, 0, 64, 56
2, 95808, Control_c, 0, 64, 40
2, 95816, Control_c, 0, 64, 24
2, 95836, Control_c, 0, 64, 0
2, 95840, Note_on_c, 0, 93, 0
2, 95860, Note_on_c, 0, 98, 96
2, 95884, Note_on_c, 0, 86, 0
2, 95928, Note_on_c, 0, 98, 0
2, 95940, Note_on_c, 0, 86, 73
2, 95944, Note_on_c, 0, 91, 92
2, 95948, Note_on_c, 0, 62, 59
2, 95948, Control_c, 0, 64, 56
2, 95956, Control_c, 0, 64, 127
2, 95992, Note_on_c, 0, 62, 0
2, 96000, Note_on_c, 0, 91, 0
2, 96012, Note_on_c, 0, 98, 97
2, 96032, Note_on_c, 0, 86, 0
2, 96076, Note_on_c, 0, 98, 0
2, 96088, Note_on_c, 0, 94, 90
2, 96152, Note_on_c, 0, 94, 0
2, 96160, Note_on_c, 0, 98, 94
2, 96176, Note_on_c, 0, 67, 58
2, 96176, Note_on_c, 0, 74, 69
2, 96180, Note_on_c, 0, 70, 60
2, 96196, Note_on_c, 0, 74, 0
2, 96196, Control_c, 0, 64, 104
2, 96208, Control_c, 0, 64, 88
2, 96212, Note_on_c, 0, 67, 0
2, 96216, Note_on_c, 0, 70, 0
2, 96216, Control_c, 0, 64, 72
2, 96220, Note_on_c, 0, 98, 0
2, 96224, Control_c, 0, 64, 56
2, 96236, Note_on_c, 0, 87, 85
2, 96244, Control_c, 0, 64, 40
2, 96256, Control_c, 0, 64, 24
2, 96272, Control_c, 0, 64, 0
2, 96304, Note_on_c, 0, 87, 0
2, 96308, Note_on_c, 0, 98, 86
2, 96364, Note_on_c, 0, 98, 0
2, 96376, Note_on_c, 0, 86, 89
2, 96384, Note_on_c, 0, 62, 67
2, 96384, Control_c, 0, 64, 72
2, 96392, Control_c, 0, 64, 127
2, 96432, Note_on_c, 0, 62, 0
2, 96432, Note_on_c, 0, 86, 0
2, 96452, Note_on_c, 0, 98, 94
2, 96508, Note_on_c, 0, 98, 0
2, 96516, Note_on_c, 0, 88, 83
2, 96568, Note_on_c, 0, 88, 0
2, 96584, Note_on_c, 0, 98, 98
2, 96592, Note_on_c, 0, 74, 79
2, 96596, Note_on_c, 0, 72, 75
2, 96608, Note_on_c, 0, 69, 51
2, 96616, Note_on_c, 0, 72, 0
2, 96616, Note_on_c, 0, 74, 0
2, 96624, Control_c, 0, 64, 104
2, 96636, Note_on_c, 0, 69, 0
2, 96636, Control_c, 0, 64, 88
2, 96648, Note_on_c, 0, 98, 0
2, 96652, Note_on_c, 0, 90, 87
2, 96656, Control_c, 0, 64, 72
2, 96660, Control_c, 0, 64, 56
2, 96680, Control_c, 0, 64, 40
2, 96688, Control_c, 0, 64, 24
2, 96700, Control_c, 0, 64, 0
2, 96708, Note_on_c, 0, 90, 0
2, 96716, Note_on_c, 0, 98, 95
2, 96776, Note_on_c, 0, 98, 0
2, 96788, Note_on_c, 0, 86, 89
2, 96792, Note_on_c, 0, 91, 86
2, 96800, Control_c, 0, 64, 72
2, 96808, Note_on_c, 0, 62, 59
2, 96812, Control_c, 0, 64, 127
2, 96844, Note_on_c, 0, 62, 0
2, 96844, Note_on_c, 0, 91, 0
2, 96844, Note_on_c, 0, 86, 0
2, 96852, Note_on_c, 0, 98, 93
2, 96916, Note_on_c, 0, 98, 0
2, 96928, Note_on_c, 0, 93, 88
2, 96928, Note_on_c, 0, 86, 78
2, 96980, Note_on_c, 0, 86, 0
2, 96984, Note_on_c, 0, 93, 0
2, 96996, Note_on_c, 0, 98, 95
2, 97016, Note_on_c, 0, 67, 58
2, 97016, Note_on_c, 0, 74, 66
2, 97020, Note_on_c, 0, 70, 60
2, 97036, Note_on_c, 0, 74, 0
2, 97044, Control_c, 0, 64, 104
2, 97052, Note_on_c, 0, 70, 0
2, 97052, Note_on_c, 0, 67, 0
2, 97052, Control_c, 0, 64, 88
2, 97060, Note_on_c, 0, 98, 0
2, 97060, Control_c, 0, 64, 72
2, 97072, Control_c, 0, 64, 56
2, 97076, Note_on_c, 0, 86, 80
2, 97080, Note_on_c, 0, 94, 81
2, 97080, Control_c, 0, 64, 40
2, 97088, Control_c, 0, 64, 24
2, 97100, Control_c, 0, 64, 0
2, 97128, Note_on_c, 0, 86, 0
2, 97136, Note_on_c, 0, 94, 0
2, 97136, Note_on_c, 0, 98, 97
2, 97196, Note_on_c, 0, 98, 0
2, 97212, Note_on_c, 0, 93, 103
2, 97212, Note_on_c, 0, 86, 87
2, 97220, Control_c, 0, 64, 40
2, 97224, Note_on_c, 0, 62, 72
2, 97228, Control_c, 0, 64, 127
2, 97268, Note_on_c, 0, 62, 0
2, 97272, Note_on_c, 0, 93, 0
2, 97280, Note_on_c, 0, 86, 0
2, 97288, Note_on_c, 0, 98, 94
2, 97352, Note_on_c, 0, 98, 0
2, 97356, Note_on_c, 0, 94, 87
2, 97364, Note_on_c, 0, 86, 81
2, 97420, Note_on_c, 0, 94, 0
2, 97424, Control_c, 0, 64, 88
2, 97428, Note_on_c, 0, 86, 0
2, 97432, Note_on_c, 0, 98, 95
2, 97436, Control_c, 0, 64, 72
2, 97444, Note_on_c, 0, 74, 74
2, 97444, Control_c, 0, 64, 56
2, 97448, Note_on_c, 0, 72, 70
2, 97452, Control_c, 0, 64, 40
2, 97456, Note_on_c, 0, 66, 46
2, 97460, Control_c, 0, 64, 24
2, 97468, Note_on_c, 0, 72, 0
2, 97472, Note_on_c, 0, 74, 0
2, 97472, Control_c, 0, 64, 0
2, 97488, Note_on_c, 0, 98, 0
2, 97492, Note_on_c, 0, 66, 0
2, 97500, Note_on_c, 0, 93, 95
2, 97508, Note_on_c, 0, 86, 56
2, 97560, Note_on_c, 0, 93, 0
2, 97572, Note_on_c, 0, 98, 101
2, 97576, Note_on_c, 0, 86, 0
2, 97632, Note_on_c, 0, 98, 0
2, 97644, Note_on_c, 0, 94, 97
2, 97648, Note_on_c, 0, 86, 79
2, 97648, Control_c, 0, 64, 56
2, 97656, Note_on_c, 0, 62, 69
2, 97656, Control_c, 0, 64, 127
2, 97700, Note_on_c, 0, 94, 0
2, 97704, Note_on_c, 0, 62, 0
2, 97712, Note_on_c, 0, 86, 0
2, 97716, Note_on_c, 0, 98, 98
2, 97780, Note_on_c, 0, 98, 0
2, 97784, Note_on_c, 0, 93, 106
2, 97804, Note_on_c, 0, 86, 42
2, 97860, Note_on_c, 0, 86, 0
2, 97860, Note_on_c, 0, 93, 0
2, 97864, Note_on_c, 0, 98, 101
2, 97868, Note_on_c, 0, 98, 73
2, 97868, Note_on_c, 0, 74, 58
2, 97872, Note_on_c, 0, 72, 58
2, 97876, Note_on_c, 0, 66, 51
2, 97888, Note_on_c, 0, 74, 0
2, 97892, Note_on_c, 0, 72, 0
2, 97908, Note_on_c, 0, 66, 0
2, 97920, Note_on_c, 0, 98, 0
2, 97920, Note_on_c, 0, 98, 0
2, 97928, Note_on_c, 0, 86, 102
2, 97992, Note_on_c, 0, 98, 98
2, 98004, Note_on_c, 0, 86, 0
2, 98040, Note_on_c, 0, 98, 0
2, 98076, Control_c, 0, 64, 0
2, 98092, Note_on_c, 0, 86, 70
2, 98092, Note_on_c, 0, 91, 65
2, 98096, Note_on_c, 0, 67, 60
2, 98156, Note_on_c, 0, 86, 0
2, 98164, Note_on_c, 0, 98, 71
2, 98168, Note_on_c, 0, 91, 0
2, 98180, Note_on_c, 0, 67, 0
2, 98224, Note_on_c, 0, 98, 0
2, 98240, Note_on_c, 0, 86, 66
2, 98244, Note_on_c, 0, 91, 71
2, 98244, Note_on_c, 0, 69, 73
2, 98304, Note_on_c, 0, 86, 0
2, 98312, Note_on_c, 0, 91, 0
2, 98312, Note_on_c, 0, 98, 94
2, 98320, Note_on_c, 0, 69, 0
2, 98320, Note_on_c, 0, 70, 75
2, 98356, Note_on_c, 0, 70, 0
2, 98380, Note_on_c, 0, 86, 54
2, 98380, Note_on_c, 0, 91, 69
2, 98384, Note_on_c, 0, 98, 0
2, 98440, Note_on_c, 0, 86, 0
2, 98444, Note_on_c, 0, 91, 0
2, 98452, Note_on_c, 0, 98, 80
2, 98464, Note_on_c, 0, 72, 78
2, 98516, Note_on_c, 0, 72, 0
2, 98524, Note_on_c, 0, 74, 80
2, 98524, Note_on_c, 0, 91, 80
2, 98528, Note_on_c, 0, 98, 0
2, 98528, Note_on_c, 0, 86, 65
2, 98564, Note_on_c, 0, 74, 0
2, 98584, Note_on_c, 0, 86, 0
2, 98588, Note_on_c, 0, 91, 0
2, 98588, Note_on_c, 0, 98, 83
2, 98668, Note_on_c, 0, 74, 80
2, 98672, Note_on_c, 0, 91, 72
2, 98676, Note_on_c, 0, 98, 0
2, 98676, Note_on_c, 0, 86, 63
2, 98736, Note_on_c, 0, 86, 0
2, 98736, Note_on_c, 0, 74, 0
2, 98740, Note_on_c, 0, 91, 0
2, 98740, Note_on_c, 0, 98, 90
2, 98756, Note_on_c, 0, 77, 83
2, 98808, Note_on_c, 0, 98, 0
2, 98812, Note_on_c, 0, 86, 71
2, 98812, Note_on_c, 0, 91, 74
2, 98832, Note_on_c, 0, 77, 0
2, 98876, Note_on_c, 0, 86, 0
2, 98880, Note_on_c, 0, 91, 0
2, 98888, Note_on_c, 0, 98, 90
2, 98892, Note_on_c, 0, 75, 80
2, 98960, Note_on_c, 0, 75, 0
2, 98960, Note_on_c, 0, 98, 0
2, 98964, Note_on_c, 0, 91, 75
2, 98964, Note_on_c, 0, 86, 59
2, 98984, Note_on_c, 0, 74, 78
2, 99008, Note_on_c, 0, 74, 0
2, 99032, Note_on_c, 0, 86, 0
2, 99032, Note_on_c, 0, 91, 0
2, 99032, Note_on_c, 0, 98, 78
2, 99096, Note_on_c, 0, 62, 72
2, 99104, Note_on_c, 0, 98, 0
2, 99108, Note_on_c, 0, 91, 66
2, 99108, Note_on_c, 0, 86, 67
2, 99168, Note_on_c, 0, 86, 0
2, 99176, Note_on_c, 0, 91, 0
2, 99176, Note_on_c, 0, 62, 0
2, 99176, Note_on_c, 0, 98, 82
2, 99176, Note_on_c, 0, 63, 74
2, 99220, Note_on_c, 0, 63, 0
2, 99240, Note_on_c, 0, 98, 0
2, 99244, Note_on_c, 0, 86, 67
2, 99248, Note_on_c, 0, 91, 64
2, 99308, Note_on_c, 0, 86, 0
2, 99312, Note_on_c, 0, 91, 0
2, 99312, Note_on_c, 0, 66, 77
2, 99320, Note_on_c, 0, 98, 85
2, 99384, Note_on_c, 0, 98, 0
2, 99384, Note_on_c, 0, 86, 72
2, 99388, Note_on_c, 0, 91, 65
2, 99392, Note_on_c, 0, 67, 79
2, 99396, Note_on_c, 0, 66, 0
2, 99436, Note_on_c, 0, 67, 0
2, 99448, Note_on_c, 0, 86, 0
2, 99452, Note_on_c, 0, 98, 77
2, 99456, Note_on_c, 0, 91, 0
2, 99516, Note_on_c, 0, 98, 0
2, 99524, Note_on_c, 0, 86, 71
2, 99528, Note_on_c, 0, 67, 77
2, 99528, Note_on_c, 0, 91, 64
2, 99588, Note_on_c, 0, 86, 0
2, 99592, Note_on_c, 0, 91, 0
2, 99592, Note_on_c, 0, 67, 0
2, 99592, Note_on_c, 0, 98, 83
2, 99600, Note_on_c, 0, 70, 82
2, 99648, Note_on_c, 0, 70, 0
2, 99656, Note_on_c, 0, 98, 0
2, 99660, Note_on_c, 0, 91, 67
2, 99664, Note_on_c, 0, 86, 69
2, 99728, Note_on_c, 0, 86, 0
2, 99728, Note_on_c, 0, 91, 0
2, 99736, Note_on_c, 0, 98, 90
2, 99736, Note_on_c, 0, 69, 78
2, 99800, Note_on_c, 0, 98, 0
2, 99804, Note_on_c, 0, 86, 64
2, 99808, Note_on_c, 0, 91, 70
2, 99816, Note_on_c, 0, 67, 78
2, 99824, Note_on_c, 0, 69, 0
2, 99840, Note_on_c, 0, 67, 0
2, 99876, Note_on_c, 0, 86, 0
2, 99880, Note_on_c, 0, 91, 0
2, 99880, Note_on_c, 0, 98, 88
2, 99944, Note_on_c, 0, 98, 0
2, 99948, Note_on_c, 0, 55, 78
2, 99952, Note_on_c, 0, 86, 71
2, 99952, Note_on_c, 0, 91, 65
2, 100012, Note_on_c, 0, 86, 0
2, 100020, Note_on_c, 0, 91, 0
2, 100020, Note_on_c, 0, 55, 0
2, 100020, Note_on_c, 0, 98, 89
2, 100024, Note_on_c, 0, 58, 79
2, 100064, Note_on_c, 0, 58, 0
2, 100084, Note_on_c, 0, 98, 0
2, 100088, Note_on_c, 0, 86, 67
2, 100092, Note_on_c, 0, 91, 59
2, 100152, Note_on_c, 0, 86, 0
2, 100160, Note_on_c, 0, 91, 0
2, 100164, Note_on_c, 0, 60, 79
2, 100164, Note_on_c, 0, 98, 85
2, 100224, Note_on_c, 0, 98, 0
2, 100228, Note_on_c, 0, 86, 66
2, 100228, Note_on_c, 0, 91, 64
2, 100240, Note_on_c, 0, 60, 0
2, 100248, Note_on_c, 0, 62, 79
2, 100280, Note_on_c, 0, 62, 0
2, 100292, Note_on_c, 0, 86, 0
2, 100296, Note_on_c, 0, 91, 0
2, 100300, Note_on_c, 0, 98, 85
2, 100364, Note_on_c, 0, 98, 0
2, 100372, Note_on_c, 0, 62, 81
2, 100372, Note_on_c, 0, 86, 59
2, 100376, Note_on_c, 0, 91, 62
2, 100432, Note_on_c, 0, 62, 0
2, 100436, Note_on_c, 0, 86, 0
2, 100440, Note_on_c, 0, 91, 0
2, 100444, Note_on_c, 0, 98, 86
2, 100448, Note_on_c, 0, 65, 85
2, 100508, Note_on_c, 0, 98, 0
2, 100512, Note_on_c, 0, 65, 0
2, 100516, Note_on_c, 0, 86, 59
2, 100520, Note_on_c, 0, 91, 59
2, 100580, Note_on_c, 0, 86, 0
2, 100580, Note_on_c, 0, 63, 82
2, 100584, Note_on_c, 0, 91, 0
2, 100588, Note_on_c, 0, 98, 83
2, 100652, Note_on_c, 0, 63, 0
2, 100656, Note_on_c, 0, 98, 0
2, 100660, Note_on_c, 0, 86, 59
2, 100664, Note_on_c, 0, 91, 64
2, 100664, Note_on_c, 0, 62, 78
2, 100708, Note_on_c, 0, 62, 0
2, 100732, Note_on_c, 0, 91, 0
2, 100736, Note_on_c, 0, 86, 0
2, 100736, Note_on_c, 0, 98, 80
2, 100796, Note_on_c, 0, 50, 78
2, 100800, Note_on_c, 0, 98, 0
2, 100804, Note_on_c, 0, 86, 57
2, 100812, Note_on_c, 0, 91, 56
2, 100864, Note_on_c, 0, 86, 0
2, 100864, Note_on_c, 0, 50, 0
2, 100868, Note_on_c, 0, 91, 0
2, 100872, Note_on_c, 0, 51, 80
2, 100872, Note_on_c, 0, 98, 78
2, 100916, Note_on_c, 0, 51, 0
2, 100932, Note_on_c, 0, 98, 0
2, 100948, Note_on_c, 0, 86, 59
2, 100956, Note_on_c, 0, 91, 60
2, 101008, Note_on_c, 0, 86, 0
2, 101008, Note_on_c, 0, 54, 82
2, 101016, Note_on_c, 0, 91, 0
2, 101020, Note_on_c, 0, 98, 78
2, 101076, Note_on_c, 0, 54, 0
2, 101080, Note_on_c, 0, 98, 0
2, 101088, Note_on_c, 0, 86, 60
2, 101088, Note_on_c, 0, 91, 58
2, 101092, Note_on_c, 0, 55, 82
2, 101124, Note_on_c, 0, 55, 0
2, 101148, Note_on_c, 0, 86, 0
2, 101152, Note_on_c, 0, 91, 0
2, 101156, Note_on_c, 0, 98, 80
2, 101212, Note_on_c, 0, 98, 0
2, 101224, Note_on_c, 0, 55, 81
2, 101224, Note_on_c, 0, 86, 59
2, 101228, Note_on_c, 0, 91, 51
2, 101284, Note_on_c, 0, 86, 0
2, 101292, Note_on_c, 0, 91, 0
2, 101292, Note_on_c, 0, 98, 85
2, 101304, Note_on_c, 0, 55, 0
2, 101304, Note_on_c, 0, 58, 78
2, 101348, Note_on_c, 0, 58, 0
2, 101352, Note_on_c, 0, 98, 0
2, 101368, Note_on_c, 0, 91, 54
2, 101368, Note_on_c, 0, 86, 62
2, 101424, Note_on_c, 0, 86, 0
2, 101428, Note_on_c, 0, 91, 0
2, 101440, Note_on_c, 0, 98, 79
2, 101448, Note_on_c, 0, 57, 75
2, 101500, Note_on_c, 0, 57, 0
2, 101500, Note_on_c, 0, 98, 0
2, 101528, Note_on_c, 0, 86, 60
2, 101532, Note_on_c, 0, 91, 60
2, 101552, Note_on_c, 0, 55, 74
2, 101628, Control_c, 0, 64, 40
2, 101636, Control_c, 0, 64, 88
2, 101644, Note_on_c, 0, 86, 0
2, 101644, Control_c, 0, 64, 127
2, 101648, Note_on_c, 0, 91, 0
2, 101712, Note_on_c, 0, 55, 0
2, 102076, Note_on_c, 0, 50, 46
2, 102076, Note_on_c, 0, 62, 47
2, 102080, Note_on_c, 0, 43, 47
2, 102084, Note_on_c, 0, 55, 46
2, 102092, Note_on_c, 0, 31, 50
2, 102096, Note_on_c, 0, 38, 46
2, 102112, Control_c, 0, 64, 104
2, 102124, Control_c, 0, 64, 72
2, 102132, Control_c, 0, 64, 0
2, 102188, Control_c, 0, 64, 56
2, 102200, Control_c, 0, 64, 127
2, 102232, Note_on_c, 0, 50, 0
2, 102240, Note_on_c, 0, 31, 0
2, 102244, Note_on_c, 0, 55, 0
2, 102264, Note_on_c, 0, 43, 0
2, 102268, Note_on_c, 0, 38, 0
2, 102280, Note_on_c, 0, 62, 0
2, 102544, Note_on_c, 0, 67, 49
2, 102564, Note_on_c, 0, 67, 0
2, 102580, Note_on_c, 0, 70, 42
2, 102624, Note_on_c, 0, 70, 0
2, 102628, Note_on_c, 0, 74, 56
2, 102664, Note_on_c, 0, 74, 0
2, 102664, Note_on_c, 0, 79, 50
2, 102688, Note_on_c, 0, 79, 0
2, 102708, Note_on_c, 0, 91, 58
2, 102736, Note_on_c, 0, 94, 52
2, 102752, Note_on_c, 0, 91, 0
2, 102792, Note_on_c, 0, 94, 0
2, 102800, Note_on_c, 0, 98, 69
2, 102904, Note_on_c, 0, 98, 0
2, 102912, Note_on_c, 0, 103, 86
2, 102960, Note_on_c, 0, 103, 0
2, 103432, Control_c, 0, 64, 40
2, 103440, Control_c, 0, 64, 0
2, 104556, Control_c, 0, 64, 88
2, 104568, Control_c, 0, 64, 104
2, 104584, Control_c, 0, 64, 127
2, 104664, Note_on_c, 0, 58, 63
2, 104804, Control_c, 0, 64, 88
2, 104816, Control_c, 0, 64, 0
2, 104892, Note_on_c, 0, 58, 0
2, 104904, Note_on_c, 0, 63, 81
2, 104912, Note_on_c, 0, 39, 51
2, 104932, Control_c, 0, 64, 56
2, 104944, Control_c, 0, 64, 127
2, 104976, Note_on_c, 0, 39, 0
2, 105096, Note_on_c, 0, 58, 48
2, 105188, Note_on_c, 0, 58, 0
2, 105208, Note_on_c, 0, 55, 54
2, 105224, Note_on_c, 0, 63, 0
2, 105248, Note_on_c, 0, 55, 0
2, 105312, Note_on_c, 0, 46, 50
2, 105372, Note_on_c, 0, 46, 0
2, 105380, Note_on_c, 0, 58, 49
2, 105476, Note_on_c, 0, 58, 0
2, 105504, Note_on_c, 0, 55, 47
2, 105520, Note_on_c, 0, 67, 79
2, 105608, Note_on_c, 0, 55, 0
2, 105636, Note_on_c, 0, 51, 50
2, 105676, Note_on_c, 0, 68, 88
2, 105700, Note_on_c, 0, 67, 0
2, 105744, Note_on_c, 0, 58, 47
2, 105800, Note_on_c, 0, 51, 0
2, 105820, Note_on_c, 0, 68, 0
2, 105856, Note_on_c, 0, 58, 0
2, 105884, Note_on_c, 0, 55, 47
2, 105936, Note_on_c, 0, 55, 0
2, 105968, Note_on_c, 0, 46, 51
2, 106048, Note_on_c, 0, 58, 52
2, 106120, Note_on_c, 0, 46, 0
2, 106140, Note_on_c, 0, 55, 48
2, 106152, Note_on_c, 0, 58, 0
2, 106184, Note_on_c, 0, 55, 0
2, 106204, Note_on_c, 0, 69, 89
2, 106220, Note_on_c, 0, 51, 49
2, 106244, Note_on_c, 0, 51, 0
2, 106376, Note_on_c, 0, 70, 88
2, 106392, Note_on_c, 0, 69, 0
2, 106396, Control_c, 0, 64, 56
2, 106404, Control_c, 0, 64, 0
2, 106420, Note_on_c, 0, 39, 66
2, 106464, Note_on_c, 0, 39, 0
2, 106496, Control_c, 0, 64, 88
2, 106508, Control_c, 0, 64, 127
2, 106548, Note_on_c, 0, 70, 0
2, 106556, Note_on_c, 0, 58, 60
2, 106640, Note_on_c, 0, 58, 0
2, 106660, Note_on_c, 0, 55, 67
2, 106728, Note_on_c, 0, 55, 0
2, 106752, Note_on_c, 0, 46, 59
2, 106820, Note_on_c, 0, 46, 0
2, 106820, Note_on_c, 0, 58, 58
2, 106912, Note_on_c, 0, 58, 0
2, 106920, Note_on_c, 0, 70, 85
2, 106944, Note_on_c, 0, 55, 54
2, 106984, Note_on_c, 0, 70, 0
2, 107036, Note_on_c, 0, 70, 80
2, 107092, Note_on_c, 0, 51, 59
2, 107100, Note_on_c, 0, 55, 0
2, 107116, Note_on_c, 0, 70, 0
2, 107124, Note_on_c, 0, 74, 82
2, 107160, Control_c, 0, 64, 104
2, 107176, Control_c, 0, 64, 0
2, 107212, Note_on_c, 0, 72, 89
2, 107224, Note_on_c, 0, 74, 0
2, 107228, Note_on_c, 0, 58, 50
2, 107276, Control_c, 0, 64, 104
2, 107288, Control_c, 0, 64, 127
2, 107336, Note_on_c, 0, 51, 0
2, 107348, Note_on_c, 0, 58, 0
2, 107380, Note_on_c, 0, 55, 49
2, 107472, Note_on_c, 0, 55, 0
2, 107472, Note_on_c, 0, 46, 58
2, 107556, Note_on_c, 0, 58, 49
2, 107672, Note_on_c, 0, 55, 48
2, 107688, Note_on_c, 0, 58, 0
2, 107704, Note_on_c, 0, 46, 0
2, 107744, Note_on_c, 0, 55, 0
2, 107760, Note_on_c, 0, 70, 88
2, 107764, Note_on_c, 0, 72, 0
2, 107772, Note_on_c, 0, 51, 51
2, 107804, Note_on_c, 0, 51, 0
2, 107848, Note_on_c, 0, 70, 0
2, 107960, Note_on_c, 0, 70, 88
2, 107968, Control_c, 0, 64, 40
2, 107976, Note_on_c, 0, 39, 56
2, 107984, Control_c, 0, 64, 0
2, 108044, Note_on_c, 0, 39, 0
2, 108068, Control_c, 0, 64, 104
2, 108084, Control_c, 0, 64, 127
2, 108128, Note_on_c, 0, 58, 55
2, 108220, Note_on_c, 0, 56, 55
2, 108228, Note_on_c, 0, 58, 0
2, 108312, Note_on_c, 0, 56, 0
2, 108328, Note_on_c, 0, 46, 55
2, 108420, Note_on_c, 0, 58, 49
2, 108504, Note_on_c, 0, 56, 50
2, 108512, Note_on_c, 0, 58, 0
2, 108512, Note_on_c, 0, 46, 0
2, 108616, Note_on_c, 0, 56, 0
2, 108640, Note_on_c, 0, 50, 60
2, 108716, Note_on_c, 0, 58, 48
2, 108736, Note_on_c, 0, 50, 0
2, 108816, Note_on_c, 0, 58, 0
2, 108824, Note_on_c, 0, 56, 48
2, 108940, Note_on_c, 0, 56, 0
2, 108940, Note_on_c, 0, 46, 55
2, 109028, Note_on_c, 0, 58, 54
2, 109120, Note_on_c, 0, 68, 77
2, 109124, Note_on_c, 0, 56, 50
2, 109132, Note_on_c, 0, 58, 0
2, 109156, Note_on_c, 0, 56, 0
2, 109160, Note_on_c, 0, 70, 0
2, 109184, Note_on_c, 0, 46, 0
2, 109216, Note_on_c, 0, 68, 0
2, 109228, Note_on_c, 0, 67, 81
2, 109364, Note_on_c, 0, 67, 0
2, 109372, Control_c, 0, 64, 104
2, 109376, Note_on_c, 0, 65, 80
2, 109384, Control_c, 0, 64, 0
2, 109396, Note_on_c, 0, 39, 56
2, 109476, Note_on_c, 0, 39, 0
2, 109488, Control_c, 0, 64, 88
2, 109500, Control_c, 0, 64, 127
2, 109556, Note_on_c, 0, 58, 57
2, 109648, Note_on_c, 0, 56, 52
2, 109656, Note_on_c, 0, 58, 0
2, 109720, Note_on_c, 0, 56, 0
2, 109760, Note_on_c, 0, 46, 57
2, 109832, Note_on_c, 0, 46, 0
2, 109840, Note_on_c, 0, 58, 55
2, 109956, Note_on_c, 0, 56, 60
2, 109964, Note_on_c, 0, 58, 0
2, 110056, Note_on_c, 0, 56, 0
2, 110088, Note_on_c, 0, 50, 62
2, 110180, Note_on_c, 0, 58, 43
2, 110208, Note_on_c, 0, 50, 0
2, 110292, Note_on_c, 0, 58, 0
2, 110296, Note_on_c, 0, 56, 50
2, 110380, Note_on_c, 0, 56, 0
2, 110396, Note_on_c, 0, 46, 51
2, 110472, Note_on_c, 0, 58, 42
2, 110540, Note_on_c, 0, 58, 0
2, 110552, Note_on_c, 0, 65, 0
2, 110568, Note_on_c, 0, 46, 0
2, 110612, Note_on_c, 0, 58, 86
2, 110712, Note_on_c, 0, 58, 0
2, 110844, Note_on_c, 0, 65, 81
2, 110844, Control_c, 0, 64, 24
2, 110860, Note_on_c, 0, 39, 59
2, 110860, Control_c, 0, 64, 0
2, 110936, Note_on_c, 0, 39, 0
2, 110964, Control_c, 0, 64, 127
2, 111016, Note_on_c, 0, 58, 51
2, 111100, Note_on_c, 0, 56, 59
2, 111108, Note_on_c, 0, 58, 0
2, 111180, Note_on_c, 0, 56, 0
2, 111200, Note_on_c, 0, 46, 60
2, 111260, Note_on_c, 0, 58, 58
2, 111280, Note_on_c, 0, 46, 0
2, 111332, Note_on_c, 0, 65, 0
2, 111352, Note_on_c, 0, 68, 87
2, 111364, Note_on_c, 0, 58, 0
2, 111368, Note_on_c, 0, 56, 58
2, 111496, Note_on_c, 0, 56, 0
2, 111500, Note_on_c, 0, 68, 0
2, 111516, Note_on_c, 0, 72, 97
2, 111536, Note_on_c, 0, 50, 49
2, 111540, Control_c, 0, 64, 40
2, 111556, Control_c, 0, 64, 0
2, 111584, Control_c, 0, 64, 24
2, 111600, Control_c, 0, 64, 88
2, 111616, Control_c, 0, 64, 127
2, 111624, Note_on_c, 0, 58, 39
2, 111660, Note_on_c, 0, 50, 0
2, 111728, Note_on_c, 0, 58, 0
2, 111728, Note_on_c, 0, 56, 51
2, 111828, Note_on_c, 0, 56, 0
2, 111828, Note_on_c, 0, 46, 56
2, 111916, Note_on_c, 0, 58, 48
2, 111992, Note_on_c, 0, 56, 58
2, 112004, Note_on_c, 0, 58, 0
2, 112012, Note_on_c, 0, 72, 0
2, 112020, Note_on_c, 0, 46, 0
2, 112048, Note_on_c, 0, 70, 88
2, 112052, Note_on_c, 0, 56, 0
2, 112144, Note_on_c, 0, 70, 0
2, 112220, Control_c, 0, 64, 72
2, 112236, Note_on_c, 0, 70, 83
2, 112236, Control_c, 0, 64, 0
2, 112240, Note_on_c, 0, 39, 71
2, 112296, Note_on_c, 0, 39, 0
2, 112308, Control_c, 0, 64, 40
2, 112324, Control_c, 0, 64, 127
2, 112380, Note_on_c, 0, 61, 58
2, 112476, Note_on_c, 0, 61, 0
2, 112492, Note_on_c, 0, 51, 70
2, 112592, Note_on_c, 0, 51, 0
2, 112600, Note_on_c, 0, 49, 65
2, 112684, Note_on_c, 0, 61, 50
2, 112700, Note_on_c, 0, 49, 0
2, 112776, Note_on_c, 0, 67, 89
2, 112780, Note_on_c, 0, 61, 0
2, 112780, Note_on_c, 0, 70, 0
2, 112804, Note_on_c, 0, 51, 55
2, 112924, Note_on_c, 0, 51, 0
2, 112964, Note_on_c, 0, 48, 59
2, 112968, Note_on_c, 0, 68, 86
2, 112984, Note_on_c, 0, 67, 0
2, 112988, Control_c, 0, 64, 88
2, 113004, Control_c, 0, 64, 0
2, 113076, Note_on_c, 0, 60, 64
2, 113100, Control_c, 0, 64, 88
2, 113116, Control_c, 0, 64, 127
2, 113176, Note_on_c, 0, 60, 0
2, 113196, Note_on_c, 0, 48, 0
2, 113200, Note_on_c, 0, 51, 57
2, 113304, Control_c, 0, 64, 88
2, 113320, Control_c, 0, 64, 0
2, 113328, Note_on_c, 0, 51, 0
2, 113328, Note_on_c, 0, 47, 73
2, 113364, Control_c, 0, 64, 40
2, 113380, Control_c, 0, 64, 104
2, 113392, Control_c, 0, 64, 127
2, 113436, Note_on_c, 0, 59, 50
2, 113460, Note_on_c, 0, 47, 0
2, 113496, Note_on_c, 0, 65, 82
2, 113532, Note_on_c, 0, 68, 0
2, 113560, Note_on_c, 0, 56, 52
2, 113568, Note_on_c, 0, 59, 0
2, 113676, Note_on_c, 0, 56, 0
2, 113724, Note_on_c, 0, 63, 79
2, 113728, Note_on_c, 0, 65, 0
2, 113736, Note_on_c, 0, 46, 64
2, 113740, Control_c, 0, 64, 104
2, 113756, Control_c, 0, 64, 24
2, 113768, Control_c, 0, 64, 0
2, 113848, Note_on_c, 0, 58, 42
2, 113868, Control_c, 0, 64, 88
2, 113884, Control_c, 0, 64, 127
2, 113960, Note_on_c, 0, 58, 0
2, 113984, Note_on_c, 0, 55, 43
2, 114000, Note_on_c, 0, 63, 0
2, 114104, Note_on_c, 0, 51, 52
2, 114108, Note_on_c, 0, 55, 0
2, 114224, Note_on_c, 0, 58, 37
2, 114236, Note_on_c, 0, 65, 80
2, 114344, Note_on_c, 0, 65, 0
2, 114344, Note_on_c, 0, 46, 0
2, 114344, Note_on_c, 0, 63, 79
2, 114356, Note_on_c, 0, 58, 0
2, 114364, Note_on_c, 0, 51, 0
2, 114432, Note_on_c, 0, 62, 78
2, 114436, Note_on_c, 0, 63, 0
2, 114516, Note_on_c, 0, 62, 0
2, 114528, Note_on_c, 0, 63, 82
2, 114636, Control_c, 0, 64, 72
2, 114644, Note_on_c, 0, 46, 60
2, 114648, Note_on_c, 0, 63, 0
2, 114652, Note_on_c, 0, 67, 81
2, 114652, Control_c, 0, 64, 0
2, 114808, Control_c, 0, 64, 127
2, 114816, Note_on_c, 0, 58, 39
2, 114836, Note_on_c, 0, 67, 0
2, 114948, Note_on_c, 0, 67, 83
2, 114960, Note_on_c, 0, 56, 46
2, 114964, Note_on_c, 0, 58, 0
2, 115040, Control_c, 0, 64, 56
2, 115056, Control_c, 0, 64, 0
2, 115100, Note_on_c, 0, 56, 0
2, 115100, Control_c, 0, 64, 56
2, 115112, Control_c, 0, 64, 127
2, 115128, Note_on_c, 0, 50, 52
2, 115176, Note_on_c, 0, 67, 0
2, 115312, Note_on_c, 0, 58, 52
2, 115372, Note_on_c, 0, 50, 0
2, 115476, Note_on_c, 0, 56, 50
2, 115484, Note_on_c, 0, 58, 0
2, 115588, Note_on_c, 0, 56, 0
2, 115652, Note_on_c, 0, 46, 0
2, 115652, Note_on_c, 0, 65, 75
2, 115752, Note_on_c, 0, 65, 0
2, 115832, Note_on_c, 0, 63, 70
2, 115848, Note_on_c, 0, 39, 62
2, 115852, Control_c, 0, 64, 56
2, 115864, Control_c, 0, 64, 0
2, 115924, Note_on_c, 0, 39, 0
2, 115936, Control_c, 0, 64, 104
2, 115952, Control_c, 0, 64, 127
2, 116016, Note_on_c, 0, 58, 39
2, 116100, Note_on_c, 0, 63, 0
2, 116128, Note_on_c, 0, 58, 0
2, 116152, Note_on_c, 0, 55, 48
2, 116200, Note_on_c, 0, 55, 0
2, 116232, Note_on_c, 0, 46, 46
2, 116316, Note_on_c, 0, 46, 0
2, 116320, Note_on_c, 0, 58, 43
2, 116424, Note_on_c, 0, 58, 0
2, 116436, Note_on_c, 0, 55, 59
2, 116528, Note_on_c, 0, 55, 0
2, 116552, Note_on_c, 0, 51, 43
2, 116644, Note_on_c, 0, 58, 42
2, 116672, Note_on_c, 0, 51, 0
2, 116736, Note_on_c, 0, 58, 0
2, 116760, Note_on_c, 0, 55, 54
2, 116828, Note_on_c, 0, 46, 49
2, 116836, Note_on_c, 0, 55, 0
2, 116920, Note_on_c, 0, 58, 46
2, 117004, Note_on_c, 0, 55, 66
2, 117012, Note_on_c, 0, 58, 0
2, 117016, Note_on_c, 0, 46, 0
2, 117040, Note_on_c, 0, 55, 0
2, 117152, Note_on_c, 0, 39, 70
2, 117176, Note_on_c, 0, 39, 0
2, 117300, Note_on_c, 0, 58, 39
2, 117368, Note_on_c, 0, 58, 0
2, 117404, Note_on_c, 0, 55, 58
2, 117440, Note_on_c, 0, 55, 0
2, 117480, Note_on_c, 0, 46, 56
2, 117552, Note_on_c, 0, 58, 48
2, 117608, Note_on_c, 0, 46, 0
2, 117640, Note_on_c, 0, 58, 0
2, 117656, Note_on_c, 0, 55, 47
2, 117724, Note_on_c, 0, 55, 0
2, 117760, Note_on_c, 0, 51, 46
2, 117832, Note_on_c, 0, 58, 42
2, 117852, Note_on_c, 0, 51, 0
2, 117936, Note_on_c, 0, 58, 0
2, 117952, Note_on_c, 0, 55, 54
2, 118024, Note_on_c, 0, 55, 0
2, 118056, Note_on_c, 0, 46, 50
2, 118144, Note_on_c, 0, 58, 51
2, 118184, Note_on_c, 0, 46, 0
2, 118224, Note_on_c, 0, 55, 50
2, 118228, Note_on_c, 0, 58, 0
2, 118256, Note_on_c, 0, 70, 60
2, 118260, Note_on_c, 0, 55, 0
2, 118260, Note_on_c, 0, 82, 73
2, 118312, Note_on_c, 0, 70, 0
2, 118336, Note_on_c, 0, 82, 0
2, 118488, Note_on_c, 0, 87, 86
2, 118500, Note_on_c, 0, 75, 71
2, 118500, Note_on_c, 0, 39, 66
2, 118640, Note_on_c, 0, 58, 44
2, 118648, Note_on_c, 0, 39, 0
2, 118684, Note_on_c, 0, 75, 0
2, 118736, Note_on_c, 0, 58, 0
2, 118736, Note_on_c, 0, 55, 59
2, 118800, Note_on_c, 0, 55, 0
2, 118828, Note_on_c, 0, 46, 57
2, 118844, Note_on_c, 0, 87, 0
2, 118904, Note_on_c, 0, 46, 0
2, 118904, Note_on_c, 0, 58, 55
2, 119000, Note_on_c, 0, 58, 0
2, 119016, Note_on_c, 0, 91, 93
2, 119020, Note_on_c, 0, 55, 56
2, 119020, Note_on_c, 0, 79, 80
2, 119076, Note_on_c, 0, 79, 0
2, 119104, Note_on_c, 0, 91, 0
2, 119132, Note_on_c, 0, 55, 0
2, 119168, Note_on_c, 0, 51, 50
2, 119180, Note_on_c, 0, 92, 105
2, 119180, Note_on_c, 0, 80, 82
2, 119268, Note_on_c, 0, 58, 48
2, 119284, Note_on_c, 0, 51, 0
2, 119372, Note_on_c, 0, 58, 0
2, 119376, Note_on_c, 0, 55, 58
2, 119432, Note_on_c, 0, 80, 0
2, 119460, Note_on_c, 0, 55, 0
2, 119472, Note_on_c, 0, 46, 55
2, 119564, Note_on_c, 0, 92, 0
2, 119564, Note_on_c, 0, 58, 63
2, 119604, Note_on_c, 0, 46, 0
2, 119636, Note_on_c, 0, 55, 65
2, 119644, Note_on_c, 0, 58, 0
2, 119660, Note_on_c, 0, 93, 102
2, 119664, Note_on_c, 0, 55, 0
2, 119664, Note_on_c, 0, 81, 83
2, 119716, Note_on_c, 0, 81, 0
2, 119764, Note_on_c, 0, 93, 0
2, 119832, Note_on_c, 0, 94, 98
2, 119832, Note_on_c, 0, 39, 60
2, 119840, Note_on_c, 0, 82, 77
2, 119856, Control_c, 0, 64, 72
2, 119868, Control_c, 0, 64, 0
2, 119888, Note_on_c, 0, 39, 0
2, 119916, Control_c, 0, 64, 40
2, 119928, Control_c, 0, 64, 127
2, 119972, Note_on_c, 0, 58, 50
2, 120072, Note_on_c, 0, 58, 0
2, 120076, Note_on_c, 0, 55, 64
2, 120112, Note_on_c, 0, 82, 0
2, 120132, Note_on_c, 0, 55, 0
2, 120164, Note_on_c, 0, 46, 69
2, 120212, Note_on_c, 0, 94, 0
2, 120232, Note_on_c, 0, 58, 62
2, 120252, Note_on_c, 0, 46, 0
2, 120300, Note_on_c, 0, 82, 62
2, 120300, Note_on_c, 0, 94, 90
2, 120352, Note_on_c, 0, 82, 0
2, 120368, Note_on_c, 0, 94, 0
2, 120376, Note_on_c, 0, 58, 0
2, 120384, Note_on_c, 0, 55, 41
2, 120416, Note_on_c, 0, 98, 105
2, 120428, Note_on_c, 0, 86, 83
2, 120452, Note_on_c, 0, 86, 0
2, 120476, Note_on_c, 0, 98, 0
2, 120508, Note_on_c, 0, 51, 44
2, 120516, Note_on_c, 0, 55, 0
2, 120516, Note_on_c, 0, 96, 105
2, 120524, Note_on_c, 0, 84, 94
2, 120572, Note_on_c, 0, 84, 0
2, 120580, Note_on_c, 0, 96, 0
2, 120608, Note_on_c, 0, 58, 36
2, 120668, Note_on_c, 0, 51, 0
2, 120732, Note_on_c, 0, 58, 0
2, 120740, Note_on_c, 0, 55, 50
2, 120840, Note_on_c, 0, 46, 46
2, 120860, Note_on_c, 0, 55, 0
2, 120908, Note_on_c, 0, 58, 41
2, 120984, Note_on_c, 0, 82, 66
2, 120992, Note_on_c, 0, 46, 0
2, 120992, Note_on_c, 0, 94, 83
2, 120996, Note_on_c, 0, 55, 52
2, 121004, Note_on_c, 0, 58, 0
2, 121028, Note_on_c, 0, 55, 0
2, 121048, Note_on_c, 0, 82, 0
2, 121088, Note_on_c, 0, 94, 0
2, 121132, Note_on_c, 0, 82, 82
2, 121188, Control_c, 0, 64, 88
2, 121200, Control_c, 0, 64, 0
2, 121236, Note_on_c, 0, 39, 66
2, 121256, Note_on_c, 0, 82, 0
2, 121256, Note_on_c, 0, 94, 83
2, 121288, Control_c, 0, 64, 127
2, 121312, Note_on_c, 0, 39, 0
2, 121360, Note_on_c, 0, 94, 0
2, 121380, Note_on_c, 0, 96, 74
2, 121452, Note_on_c, 0, 96, 0
2, 121468, Note_on_c, 0, 94, 74
2, 121512, Note_on_c, 0, 58, 72
2, 121540, Note_on_c, 0, 94, 0
2, 121548, Note_on_c, 0, 96, 86
2, 121612, Note_on_c, 0, 96, 0
2, 121624, Note_on_c, 0, 58, 0
2, 121624, Note_on_c, 0, 94, 92
2, 121624, Note_on_c, 0, 56, 64
2, 121684, Note_on_c, 0, 94, 0
2, 121684, Note_on_c, 0, 96, 82
2, 121728, Note_on_c, 0, 56, 0
2, 121740, Note_on_c, 0, 46, 64
2, 121756, Note_on_c, 0, 96, 0
2, 121756, Note_on_c, 0, 94, 81
2, 121804, Note_on_c, 0, 96, 83
2, 121808, Note_on_c, 0, 94, 0
2, 121844, Note_on_c, 0, 46, 0
2, 121844, Note_on_c, 0, 58, 56
2, 121876, Note_on_c, 0, 96, 0
2, 121876, Note_on_c, 0, 94, 81
2, 121928, Note_on_c, 0, 96, 80
2, 121940, Note_on_c, 0, 94, 0
2, 121960, Note_on_c, 0, 56, 50
2, 121988, Note_on_c, 0, 58, 0
2, 122004, Note_on_c, 0, 96, 0
2, 122004, Note_on_c, 0, 94, 78
2, 122052, Note_on_c, 0, 96, 78
2, 122060, Note_on_c, 0, 94, 0
2, 122076, Note_on_c, 0, 56, 0
2, 122088, Note_on_c, 0, 50, 64
2, 122120, Note_on_c, 0, 96, 0
2, 122128, Note_on_c, 0, 94, 80
2, 122160, Note_on_c, 0, 58, 56
2, 122180, Note_on_c, 0, 96, 81
2, 122192, Note_on_c, 0, 94, 0
2, 122196, Note_on_c, 0, 50, 0
2, 122252, Note_on_c, 0, 96, 0
2, 122260, Note_on_c, 0, 94, 77
2, 122280, Note_on_c, 0, 58, 0
2, 122280, Note_on_c, 0, 56, 50
2, 122320, Note_on_c, 0, 96, 75
2, 122328, Note_on_c, 0, 94, 0
2, 122384, Note_on_c, 0, 96, 0
2, 122392, Note_on_c, 0, 94, 78
2, 122404, Note_on_c, 0, 56, 0
2, 122424, Note_on_c, 0, 46, 67
2, 122444, Note_on_c, 0, 94, 0
2, 122444, Note_on_c, 0, 96, 75
2, 122524, Note_on_c, 0, 94, 82
2, 122548, Note_on_c, 0, 58, 55
2, 122564, Note_on_c, 0, 96, 0
2, 122604, Note_on_c, 0, 94, 0
2, 122608, Note_on_c, 0, 93, 85
2, 122628, Note_on_c, 0, 46, 0
2, 122676, Note_on_c, 0, 94, 88
2, 122688, Note_on_c, 0, 93, 0
2, 122688, Note_on_c, 0, 56, 55
2, 122692, Note_on_c, 0, 58, 0
2, 122756, Note_on_c, 0, 94, 0
2, 122772, Note_on_c, 0, 56, 0
2, 122780, Note_on_c, 0, 96, 90
2, 122856, Note_on_c, 0, 96, 0
2, 122872, Note_on_c, 0, 94, 87
2, 122996, Note_on_c, 0, 94, 0
2, 123012, Note_on_c, 0, 101, 97
2, 123116, Note_on_c, 0, 101, 0
2, 123124, Note_on_c, 0, 98, 81
2, 123204, Note_on_c, 0, 94, 92
2, 123224, Note_on_c, 0, 98, 0
2, 123304, Note_on_c, 0, 92, 95
2, 123356, Note_on_c, 0, 94, 0
2, 123388, Note_on_c, 0, 92, 0
2, 123392, Note_on_c, 0, 89, 85
2, 123452, Note_on_c, 0, 89, 0
2, 123480, Note_on_c, 0, 86, 86
2, 123548, Note_on_c, 0, 86, 0
2, 123548, Note_on_c, 0, 82, 77
2, 123648, Note_on_c, 0, 80, 71
2, 123688, Note_on_c, 0, 82, 0
2, 123732, Note_on_c, 0, 80, 0
2, 123744, Note_on_c, 0, 77, 90
2, 123780, Note_on_c, 0, 77, 0
2, 123836, Note_on_c, 0, 74, 79
2, 123904, Note_on_c, 0, 74, 0
2, 123924, Note_on_c, 0, 70, 69
2, 124020, Note_on_c, 0, 68, 64
2, 124024, Note_on_c, 0, 70, 0
2, 124116, Note_on_c, 0, 68, 0
2, 124120, Note_on_c, 0, 67, 82
2, 124224, Note_on_c, 0, 67, 0
2, 124252, Control_c, 0, 64, 24
2, 124264, Note_on_c, 0, 65, 79
2, 124268, Control_c, 0, 64, 0
2, 124280, Note_on_c, 0, 46, 63
2, 124384, Control_c, 0, 64, 104
2, 124392, Note_on_c, 0, 58, 37
2, 124400, Control_c, 0, 64, 127
2, 124480, Note_on_c, 0, 56, 51
2, 124488, Note_on_c, 0, 58, 0
2, 124508, Note_on_c, 0, 46, 0
2, 124592, Note_on_c, 0, 56, 0
2, 124616, Note_on_c, 0, 50, 58
2, 124712, Note_on_c, 0, 58, 36
2, 124744, Note_on_c, 0, 50, 0
2, 124808, Note_on_c, 0, 58, 0
2, 124816, Note_on_c, 0, 56, 49
2, 124928, Note_on_c, 0, 56, 0
2, 124960, Note_on_c, 0, 46, 59
2, 125064, Note_on_c, 0, 58, 36
2, 125148, Note_on_c, 0, 65, 0
2, 125152, Note_on_c, 0, 58, 0
2, 125168, Note_on_c, 0, 56, 48
2, 125200, Note_on_c, 0, 56, 0
2, 125200, Note_on_c, 0, 58, 80
2, 125216, Note_on_c, 0, 46, 0
2, 125292, Note_on_c, 0, 58, 0
2, 125424, Note_on_c, 0, 65, 80
2, 125440, Control_c, 0, 64, 104
2, 125452, Note_on_c, 0, 39, 60
2, 125456, Control_c, 0, 64, 0
2, 125528, Control_c, 0, 64, 40
2, 125540, Control_c, 0, 64, 127
2, 125576, Note_on_c, 0, 58, 49
2, 125584, Note_on_c, 0, 39, 0
2, 125668, Note_on_c, 0, 58, 0
2, 125668, Note_on_c, 0, 56, 55
2, 125760, Note_on_c, 0, 56, 0
2, 125792, Note_on_c, 0, 46, 56
2, 125876, Note_on_c, 0, 65, 0
2, 125884, Note_on_c, 0, 58, 48
2, 125912, Note_on_c, 0, 68, 78
2, 125916, Note_on_c, 0, 46, 0
2, 125996, Note_on_c, 0, 56, 40
2, 126000, Note_on_c, 0, 58, 0
2, 126012, Note_on_c, 0, 72, 80
2, 126064, Note_on_c, 0, 68, 0
2, 126108, Note_on_c, 0, 70, 82
2, 126128, Note_on_c, 0, 56, 0
2, 126144, Note_on_c, 0, 70, 0
2, 126144, Note_on_c, 0, 72, 0
2, 126224, Note_on_c, 0, 77, 95
2, 126224, Note_on_c, 0, 50, 56
2, 126284, Note_on_c, 0, 58, 41
2, 126292, Note_on_c, 0, 77, 0
2, 126312, Note_on_c, 0, 80, 93
2, 126368, Note_on_c, 0, 50, 0
2, 126400, Note_on_c, 0, 58, 0
2, 126408, Note_on_c, 0, 56, 46
2, 126416, Note_on_c, 0, 84, 88
2, 126456, Note_on_c, 0, 80, 0
2, 126500, Note_on_c, 0, 56, 0
2, 126504, Note_on_c, 0, 82, 89
2, 126508, Note_on_c, 0, 46, 63
2, 126544, Note_on_c, 0, 84, 0
2, 126552, Note_on_c, 0, 82, 0
2, 126616, Note_on_c, 0, 89, 96
2, 126624, Note_on_c, 0, 58, 44
2, 126708, Note_on_c, 0, 89, 0
2, 126712, Note_on_c, 0, 46, 0
2, 126728, Note_on_c, 0, 92, 98
2, 126744, Note_on_c, 0, 56, 50
2, 126748, Note_on_c, 0, 58, 0
2, 126864, Note_on_c, 0, 92, 0
2, 126864, Note_on_c, 0, 96, 100
2, 126880, Note_on_c, 0, 56, 0
2, 126964, Note_on_c, 0, 96, 0
2, 126996, Note_on_c, 0, 94, 93
2, 127112, Note_on_c, 0, 94, 0
2, 127220, Control_c, 0, 64, 72
2, 127232, Control_c, 0, 64, 0
2, 127248, Note_on_c, 0, 39, 73
2, 127260, Note_on_c, 0, 94, 92
2, 127260, Note_on_c, 0, 91, 75
2, 127408, Control_c, 0, 64, 88
2, 127420, Control_c, 0, 64, 127
2, 127444, Note_on_c, 0, 46, 59
2, 127520, Note_on_c, 0, 39, 0
2, 127560, Note_on_c, 0, 46, 0
2, 127576, Note_on_c, 0, 51, 71
2, 127632, Note_on_c, 0, 91, 0
2, 127644, Note_on_c, 0, 51, 0
2, 127696, Note_on_c, 0, 55, 66
2, 127764, Note_on_c, 0, 55, 0
2, 127808, Note_on_c, 0, 58, 65
2, 127920, Note_on_c, 0, 63, 70
2, 128032, Note_on_c, 0, 67, 72
2, 128040, Note_on_c, 0, 58, 0
2, 128064, Note_on_c, 0, 63, 0
2, 128088, Note_on_c, 0, 67, 0
2, 128144, Note_on_c, 0, 94, 0
2, 128200, Note_on_c, 0, 82, 34
2, 128200, Note_on_c, 0, 91, 87
2, 128224, Note_on_c, 0, 82, 0
2, 128252, Note_on_c, 0, 91, 0
2, 128300, Note_on_c, 0, 82, 69
2, 128300, Note_on_c, 0, 91, 90
2, 128372, Note_on_c, 0, 82, 0
2, 128432, Note_on_c, 0, 91, 0
2, 128476, Note_on_c, 0, 92, 98
2, 128484, Note_on_c, 0, 84, 78
2, 128540, Note_on_c, 0, 84, 0
2, 128588, Note_on_c, 0, 92, 0
2, 128624, Note_on_c, 0, 91, 100
2, 128636, Note_on_c, 0, 82, 74
2, 128680, Note_on_c, 0, 82, 0
2, 128704, Note_on_c, 0, 91, 0
2, 128760, Note_on_c, 0, 90, 97
2, 128768, Note_on_c, 0, 81, 79
2, 128800, Note_on_c, 0, 81, 0
2, 128840, Note_on_c, 0, 90, 0
2, 128880, Note_on_c, 0, 91, 98
2, 128888, Note_on_c, 0, 82, 88
2, 128968, Note_on_c, 0, 91, 0
2, 129012, Note_on_c, 0, 82, 0
2, 129080, Note_on_c, 0, 44, 64
2, 129096, Note_on_c, 0, 94, 105
2, 129104, Note_on_c, 0, 86, 88
2, 129116, Control_c, 0, 64, 104
2, 129128, Control_c, 0, 64, 0
2, 129216, Control_c, 0, 64, 88
2, 129228, Control_c, 0, 64, 127
2, 129260, Note_on_c, 0, 86, 0
2, 129268, Note_on_c, 0, 94, 0
2, 129308, Note_on_c, 0, 84, 94
2, 129308, Note_on_c, 0, 92, 101
2, 129328, Note_on_c, 0, 44, 0
2, 129328, Note_on_c, 0, 53, 57
2, 129376, Note_on_c, 0, 84, 0
2, 129388, Note_on_c, 0, 92, 0
2, 129424, Note_on_c, 0, 53, 0
2, 129440, Note_on_c, 0, 56, 56
2, 129460, Note_on_c, 0, 89, 96
2, 129476, Note_on_c, 0, 56, 0
2, 129476, Note_on_c, 0, 80, 90
2, 129532, Note_on_c, 0, 89, 0
2, 129540, Note_on_c, 0, 80, 0
2, 129596, Note_on_c, 0, 84, 92
2, 129596, Note_on_c, 0, 60, 66
2, 129612, Note_on_c, 0, 77, 71
2, 129664, Note_on_c, 0, 77, 0
2, 129664, Note_on_c, 0, 84, 0
2, 129752, Note_on_c, 0, 82, 88
2, 129756, Note_on_c, 0, 65, 59
2, 129764, Note_on_c, 0, 74, 80
2, 129796, Note_on_c, 0, 74, 0
2, 129816, Note_on_c, 0, 82, 0
2, 129876, Note_on_c, 0, 68, 49
2, 129904, Note_on_c, 0, 72, 75
2, 129916, Note_on_c, 0, 80, 89
2, 129932, Note_on_c, 0, 65, 0
2, 129936, Note_on_c, 0, 72, 0
2, 129956, Note_on_c, 0, 60, 0
2, 129956, Note_on_c, 0, 80, 0
2, 129968, Note_on_c, 0, 68, 0
2, 130052, Note_on_c, 0, 79, 90
2, 130052, Note_on_c, 0, 71, 72
2, 130112, Note_on_c, 0, 71, 0
2, 130132, Note_on_c, 0, 79, 0
2, 130192, Note_on_c, 0, 80, 93
2, 130200, Note_on_c, 0, 72, 75
2, 130272, Note_on_c, 0, 80, 0
2, 130280, Note_on_c, 0, 72, 0
2, 130340, Note_on_c, 0, 77, 93
2, 130360, Note_on_c, 0, 68, 71
2, 130452, Note_on_c, 0, 68, 0
2, 130492, Note_on_c, 0, 77, 0
2, 130560, Note_on_c, 0, 67, 59
2, 130560, Note_on_c, 0, 75, 82
2, 130564, Note_on_c, 0, 46, 72
2, 130660, Control_c, 0, 64, 40
2, 130676, Control_c, 0, 64, 0
2, 130788, Note_on_c, 0, 46, 0
2, 130824, Note_on_c, 0, 55, 60
2, 130824, Control_c, 0, 64, 127
2, 130912, Note_on_c, 0, 55, 0
2, 130944, Note_on_c, 0, 58, 63
2, 131056, Note_on_c, 0, 67, 0
2, 131076, Note_on_c, 0, 58, 0
2, 131080, Note_on_c, 0, 63, 69
2, 131100, Note_on_c, 0, 75, 0
2, 131124, Note_on_c, 0, 63, 0
2, 131364, Note_on_c, 0, 75, 83
2, 131376, Note_on_c, 0, 67, 73
2, 131444, Note_on_c, 0, 67, 0
2, 131484, Note_on_c, 0, 75, 0
2, 131548, Note_on_c, 0, 77, 83
2, 131552, Note_on_c, 0, 68, 62
2, 131628, Note_on_c, 0, 77, 0
2, 131656, Note_on_c, 0, 68, 0
2, 131704, Note_on_c, 0, 75, 83
2, 131704, Note_on_c, 0, 67, 57
2, 131732, Note_on_c, 0, 67, 0
2, 131784, Note_on_c, 0, 75, 0
2, 131848, Note_on_c, 0, 74, 82
2, 131852, Note_on_c, 0, 66, 57
2, 131892, Note_on_c, 0, 66, 0
2, 131932, Note_on_c, 0, 74, 0
2, 131972, Note_on_c, 0, 75, 82
2, 131972, Note_on_c, 0, 67, 67
2, 132028, Note_on_c, 0, 67, 0
2, 132072, Note_on_c, 0, 75, 0
2, 132116, Note_on_c, 0, 69, 85
2, 132120, Note_on_c, 0, 66, 39
2, 132156, Note_on_c, 0, 66, 0
2, 132168, Note_on_c, 0, 69, 0
2, 132236, Note_on_c, 0, 70, 80
2, 132240, Note_on_c, 0, 67, 71
2, 132300, Note_on_c, 0, 67, 0
2, 132340, Note_on_c, 0, 70, 0
2, 132424, Note_on_c, 0, 68, 60
2, 132428, Note_on_c, 0, 71, 83
2, 132472, Note_on_c, 0, 46, 65
2, 132472, Control_c, 0, 64, 88
2, 132488, Control_c, 0, 64, 0
2, 132572, Note_on_c, 0, 68, 0
2, 132576, Control_c, 0, 64, 104
2, 132592, Control_c, 0, 64, 127
2, 132604, Note_on_c, 0, 70, 72
2, 132608, Note_on_c, 0, 71, 0
2, 132612, Note_on_c, 0, 65, 56
2, 132628, Note_on_c, 0, 46, 0
2, 132652, Note_on_c, 0, 53, 55
2, 132672, Note_on_c, 0, 65, 0
2, 132696, Note_on_c, 0, 70, 0
2, 132724, Note_on_c, 0, 68, 65
2, 132732, Note_on_c, 0, 72, 83
2, 132752, Note_on_c, 0, 56, 59
2, 132808, Note_on_c, 0, 72, 0
2, 132816, Note_on_c, 0, 68, 0
2, 132840, Note_on_c, 0, 70, 77
2, 132844, Note_on_c, 0, 65, 56
2, 132868, Note_on_c, 0, 62, 54
2, 132884, Note_on_c, 0, 65, 0
2, 132920, Note_on_c, 0, 70, 0
2, 132952, Note_on_c, 0, 68, 74
2, 132956, Note_on_c, 0, 73, 81
2, 133020, Note_on_c, 0, 68, 0
2, 133036, Note_on_c, 0, 73, 0
2, 133060, Note_on_c, 0, 70, 74
2, 133060, Note_on_c, 0, 65, 63
2, 133112, Note_on_c, 0, 65, 0
2, 133160, Note_on_c, 0, 70, 0
2, 133164, Note_on_c, 0, 74, 92
2, 133168, Note_on_c, 0, 68, 66
2, 133184, Note_on_c, 0, 53, 0
2, 133240, Note_on_c, 0, 68, 0
2, 133244, Note_on_c, 0, 74, 0
2, 133264, Note_on_c, 0, 65, 67
2, 133272, Note_on_c, 0, 70, 81
2, 133332, Note_on_c, 0, 65, 0
2, 133368, Note_on_c, 0, 70, 0
2, 133368, Note_on_c, 0, 75, 96
2, 133380, Note_on_c, 0, 68, 67
2, 133452, Note_on_c, 0, 68, 0
2, 133476, Note_on_c, 0, 75, 0
2, 133484, Note_on_c, 0, 65, 54
2, 133492, Note_on_c, 0, 70, 79
2, 133548, Note_on_c, 0, 65, 0
2, 133600, Note_on_c, 0, 70, 0
2, 133608, Note_on_c, 0, 76, 96
2, 133616, Note_on_c, 0, 68, 65
2, 133696, Note_on_c, 0, 68, 0
2, 133728, Note_on_c, 0, 76, 0
2, 133736, Note_on_c, 0, 65, 58
2, 133740, Note_on_c, 0, 70, 83
2, 133784, Note_on_c, 0, 65, 0
2, 133824, Note_on_c, 0, 70, 0
2, 133992, Note_on_c, 0, 79, 87
2, 134012, Note_on_c, 0, 70, 57
2, 134064, Control_c, 0, 64, 104
2, 134080, Control_c, 0, 64, 72
2, 134092, Control_c, 0, 64, 88
2, 134108, Control_c, 0, 64, 127
2, 134184, Note_on_c, 0, 70, 0
2, 134204, Note_on_c, 0, 79, 0
2, 134368, Note_on_c, 0, 79, 87
2, 134384, Note_on_c, 0, 70, 50
2, 134556, Control_c, 0, 64, 56
2, 134568, Control_c, 0, 64, 0
2, 134600, Control_c, 0, 64, 24
2, 134616, Control_c, 0, 64, 104
2, 134628, Control_c, 0, 64, 127
2, 134708, Note_on_c, 0, 79, 0
2, 134720, Note_on_c, 0, 70, 0
2, 134840, Note_on_c, 0, 62, 0
2, 135024, Note_on_c, 0, 56, 0
2, 135172, Note_on_c, 0, 68, 59
2, 135172, Note_on_c, 0, 77, 77
2, 135260, Note_on_c, 0, 68, 0
2, 135284, Note_on_c, 0, 77, 0
2, 135392, Note_on_c, 0, 75, 71
2, 135392, Note_on_c, 0, 67, 63
2, 135392, Note_on_c, 0, 39, 50
2, 135392, Note_on_c, 0, 27, 54
2, 135452, Control_c, 0, 64, 104
2, 135464, Control_c, 0, 64, 24
2, 135508, Control_c, 0, 64, 72
2, 135512, Note_on_c, 0, 27, 0
2, 135512, Note_on_c, 0, 75, 0
2, 135512, Note_on_c, 0, 67, 0
2, 135512, Note_on_c, 0, 39, 0
2, 135520, Control_c, 0, 64, 127
2, 135564, Note_on_c, 0, 58, 55
2, 135652, Note_on_c, 0, 58, 0
2, 135672, Note_on_c, 0, 55, 60
2, 135752, Note_on_c, 0, 55, 0
2, 135792, Note_on_c, 0, 46, 48
2, 135792, Note_on_c, 0, 34, 42
2, 135840, Note_on_c, 0, 34, 0
2, 135844, Note_on_c, 0, 46, 0
2, 135884, Note_on_c, 0, 58, 50
2, 135968, Note_on_c, 0, 58, 0
2, 135988, Note_on_c, 0, 55, 58
2, 136060, Note_on_c, 0, 55, 0
2, 136096, Note_on_c, 0, 51, 50
2, 136120, Note_on_c, 0, 39, 26
2, 136160, Note_on_c, 0, 51, 0
2, 136164, Note_on_c, 0, 39, 0
2, 136208, Note_on_c, 0, 58, 50
2, 136288, Note_on_c, 0, 58, 0
2, 136304, Note_on_c, 0, 55, 55
2, 136404, Note_on_c, 0, 46, 51
2, 136412, Note_on_c, 0, 34, 39
2, 136436, Note_on_c, 0, 55, 0
2, 136440, Note_on_c, 0, 46, 0
2, 136468, Note_on_c, 0, 34, 0
2, 136516, Note_on_c, 0, 58, 49
2, 136596, Note_on_c, 0, 58, 0
2, 136616, Note_on_c, 0, 55, 52
2, 136692, Note_on_c, 0, 55, 0
2, 136712, Control_c, 0, 64, 88
2, 136720, Control_c, 0, 64, 0
2, 136732, Note_on_c, 0, 39, 44
2, 136740, Note_on_c, 0, 27, 39
2, 136764, Note_on_c, 0, 27, 0
2, 136764, Control_c, 0, 64, 72
2, 136776, Control_c, 0, 64, 127
2, 136784, Note_on_c, 0, 39, 0
2, 136840, Note_on_c, 0, 58, 46
2, 136908, Note_on_c, 0, 58, 0
2, 136936, Note_on_c, 0, 55, 64
2, 136956, Note_on_c, 0, 55, 0
2, 137040, Note_on_c, 0, 46, 54
2, 137112, Note_on_c, 0, 46, 0
2, 137136, Note_on_c, 0, 58, 25
2, 137216, Note_on_c, 0, 58, 0
2, 137232, Note_on_c, 0, 55, 34
2, 137288, Note_on_c, 0, 55, 0
2, 137328, Note_on_c, 0, 51, 48
2, 137416, Note_on_c, 0, 58, 42
2, 137496, Note_on_c, 0, 51, 0
2, 137508, Note_on_c, 0, 58, 0
2, 137528, Note_on_c, 0, 55, 51
2, 137616, Note_on_c, 0, 55, 0
2, 137644, Note_on_c, 0, 46, 55
2, 137708, Note_on_c, 0, 46, 0
2, 137732, Note_on_c, 0, 58, 39
2, 137804, Note_on_c, 0, 63, 81
2, 137880, Note_on_c, 0, 55, 65
2, 137896, Note_on_c, 0, 58, 0
2, 137900, Note_on_c, 0, 55, 0
2, 137948, Note_on_c, 0, 63, 0
2, 138052, Note_on_c, 0, 67, 88
2, 138072, Control_c, 0, 64, 72
2, 138080, Control_c, 0, 64, 0
2, 138088, Note_on_c, 0, 39, 57
2, 138132, Control_c, 0, 64, 72
2, 138136, Note_on_c, 0, 39, 0
2, 138144, Control_c, 0, 64, 127
2, 138236, Note_on_c, 0, 61, 35
2, 138300, Note_on_c, 0, 61, 0
2, 138316, Note_on_c, 0, 55, 47
2, 138368, Note_on_c, 0, 55, 0
2, 138412, Note_on_c, 0, 46, 49
2, 138468, Note_on_c, 0, 46, 0
2, 138512, Note_on_c, 0, 61, 44
2, 138568, Note_on_c, 0, 68, 92
2, 138600, Note_on_c, 0, 61, 0
2, 138600, Note_on_c, 0, 67, 0
2, 138636, Note_on_c, 0, 55, 47
2, 138736, Note_on_c, 0, 55, 0
2, 138752, Note_on_c, 0, 70, 93
2, 138768, Note_on_c, 0, 51, 34
2, 138772, Note_on_c, 0, 68, 0
2, 138804, Control_c, 0, 64, 88
2, 138812, Control_c, 0, 64, 0
2, 138852, Note_on_c, 0, 61, 48
2, 138864, Control_c, 0, 64, 40
2, 138872, Control_c, 0, 64, 127
2, 138944, Note_on_c, 0, 51, 0
2, 138952, Note_on_c, 0, 61, 0
2, 138980, Note_on_c, 0, 55, 43
2, 139048, Note_on_c, 0, 55, 0
2, 139056, Note_on_c, 0, 46, 52
2, 139112, Note_on_c, 0, 46, 0
2, 139164, Note_on_c, 0, 61, 41
2, 139208, Note_on_c, 0, 72, 97
2, 139244, Note_on_c, 0, 70, 0
2, 139260, Note_on_c, 0, 61, 0
2, 139264, Note_on_c, 0, 55, 57
2, 139288, Note_on_c, 0, 55, 0
2, 139428, Note_on_c, 0, 73, 97
2, 139452, Control_c, 0, 64, 56
2, 139456, Note_on_c, 0, 72, 0
2, 139460, Control_c, 0, 64, 0
2, 139464, Note_on_c, 0, 39, 55
2, 139524, Note_on_c, 0, 39, 0
2, 139524, Control_c, 0, 64, 104
2, 139536, Control_c, 0, 64, 127
2, 139608, Note_on_c, 0, 61, 39
2, 139672, Note_on_c, 0, 61, 0
2, 139696, Note_on_c, 0, 55, 60
2, 139744, Note_on_c, 0, 55, 0
2, 139784, Note_on_c, 0, 46, 58
2, 139840, Note_on_c, 0, 46, 0
2, 139880, Note_on_c, 0, 61, 40
2, 139912, Note_on_c, 0, 73, 0
2, 139916, Note_on_c, 0, 70, 79
2, 139948, Note_on_c, 0, 61, 0
2, 139976, Note_on_c, 0, 55, 41
2, 140064, Note_on_c, 0, 70, 0
2, 140076, Note_on_c, 0, 67, 85
2, 140096, Note_on_c, 0, 55, 0
2, 140108, Note_on_c, 0, 51, 48
2, 140184, Note_on_c, 0, 61, 39
2, 140208, Note_on_c, 0, 51, 0
2, 140260, Note_on_c, 0, 61, 0
2, 140288, Note_on_c, 0, 55, 34
2, 140368, Note_on_c, 0, 46, 57
2, 140376, Note_on_c, 0, 55, 0
2, 140436, Note_on_c, 0, 46, 0
2, 140488, Note_on_c, 0, 61, 50
2, 140556, Note_on_c, 0, 67, 0
2, 140564, Note_on_c, 0, 63, 83
2, 140592, Note_on_c, 0, 61, 0
2, 140616, Note_on_c, 0, 55, 58
2, 140640, Note_on_c, 0, 55, 0
2, 140756, Note_on_c, 0, 63, 0
2, 140764, Note_on_c, 0, 65, 81
2, 140788, Control_c, 0, 64, 56
2, 140800, Control_c, 0, 64, 0
2, 140804, Note_on_c, 0, 44, 66
2, 140872, Control_c, 0, 64, 127
2, 140884, Note_on_c, 0, 44, 0
2, 140948, Note_on_c, 0, 60, 31
2, 140992, Note_on_c, 0, 60, 0
2, 141036, Note_on_c, 0, 56, 42
2, 141104, Note_on_c, 0, 56, 0
2, 141116, Note_on_c, 0, 48, 66
2, 141228, Note_on_c, 0, 60, 35
2, 141244, Note_on_c, 0, 48, 0
2, 141288, Note_on_c, 0, 60, 0
2, 141320, Note_on_c, 0, 56, 52
2, 141400, Note_on_c, 0, 56, 0
2, 141432, Note_on_c, 0, 51, 60
2, 141508, Note_on_c, 0, 63, 73
2, 141536, Note_on_c, 0, 65, 0
2, 141564, Note_on_c, 0, 51, 0
2, 141564, Note_on_c, 0, 60, 62
2, 141588, Note_on_c, 0, 63, 0
2, 141592, Note_on_c, 0, 62, 82
2, 141632, Note_on_c, 0, 60, 0
2, 141660, Note_on_c, 0, 56, 51
2, 141664, Note_on_c, 0, 62, 0
2, 141668, Note_on_c, 0, 63, 83
2, 141724, Note_on_c, 0, 56, 0
2, 141752, Note_on_c, 0, 63, 0
2, 141760, Note_on_c, 0, 62, 80
2, 141788, Note_on_c, 0, 48, 56
2, 141812, Note_on_c, 0, 62, 0
2, 141816, Note_on_c, 0, 48, 0
2, 141828, Note_on_c, 0, 63, 82
2, 141864, Note_on_c, 0, 60, 48
2, 141900, Note_on_c, 0, 63, 0
2, 141904, Note_on_c, 0, 60, 0
2, 141916, Note_on_c, 0, 65, 82
2, 141948, Note_on_c, 0, 56, 46
2, 141988, Note_on_c, 0, 65, 0
2, 141992, Note_on_c, 0, 56, 0
2, 142004, Note_on_c, 0, 63, 80
2, 142108, Note_on_c, 0, 63, 0
2, 142128, Note_on_c, 0, 60, 80
2, 142128, Control_c, 0, 64, 56
2, 142140, Control_c, 0, 64, 0
2, 142164, Note_on_c, 0, 44, 60
2, 142212, Control_c, 0, 64, 127
2, 142216, Note_on_c, 0, 44, 0
2, 142232, Note_on_c, 0, 60, 0
2, 142288, Note_on_c, 0, 60, 39
2, 142348, Note_on_c, 0, 60, 0
2, 142372, Note_on_c, 0, 56, 39
2, 142444, Note_on_c, 0, 56, 0
2, 142480, Note_on_c, 0, 48, 56
2, 142556, Note_on_c, 0, 48, 0
2, 142580, Note_on_c, 0, 60, 40
2, 142640, Note_on_c, 0, 60, 0
2, 142664, Note_on_c, 0, 56, 51
2, 142744, Note_on_c, 0, 56, 0
2, 142776, Note_on_c, 0, 51, 58
2, 142864, Note_on_c, 0, 51, 0
2, 142864, Note_on_c, 0, 60, 48
2, 142944, Note_on_c, 0, 60, 0
2, 142960, Note_on_c, 0, 56, 51
2, 143060, Note_on_c, 0, 56, 0
2, 143100, Note_on_c, 0, 48, 54
2, 143156, Note_on_c, 0, 48, 0
2, 143192, Note_on_c, 0, 60, 43
2, 143236, Note_on_c, 0, 75, 86
2, 143240, Note_on_c, 0, 63, 60
2, 143260, Note_on_c, 0, 63, 0
2, 143292, Note_on_c, 0, 75, 0
2, 143312, Note_on_c, 0, 56, 57
2, 143320, Note_on_c, 0, 60, 0
2, 143332, Note_on_c, 0, 56, 0
2, 143464, Control_c, 0, 64, 104
2, 143476, Note_on_c, 0, 79, 98
2, 143476, Control_c, 0, 64, 24
2, 143480, Note_on_c, 0, 70, 64
2, 143488, Control_c, 0, 64, 0
2, 143508, Note_on_c, 0, 39, 64
2, 143540, Control_c, 0, 64, 40
2, 143548, Note_on_c, 0, 39, 0
2, 143552, Control_c, 0, 64, 127
2, 143628, Note_on_c, 0, 70, 0
2, 143648, Note_on_c, 0, 79, 0
2, 143648, Note_on_c, 0, 61, 46
2, 143716, Note_on_c, 0, 61, 0
2, 143744, Note_on_c, 0, 55, 59
2, 143824, Note_on_c, 0, 55, 0
2, 143852, Note_on_c, 0, 46, 57
2, 143904, Note_on_c, 0, 46, 0
2, 143944, Note_on_c, 0, 61, 50
2, 143984, Note_on_c, 0, 80, 93
2, 143996, Note_on_c, 0, 72, 82
2, 144012, Note_on_c, 0, 72, 0
2, 144044, Note_on_c, 0, 80, 0
2, 144048, Note_on_c, 0, 61, 0
2, 144056, Note_on_c, 0, 55, 67
2, 144160, Note_on_c, 0, 82, 93
2, 144160, Note_on_c, 0, 73, 77
2, 144168, Control_c, 0, 64, 88
2, 144176, Control_c, 0, 64, 0
2, 144192, Note_on_c, 0, 51, 49
2, 144208, Note_on_c, 0, 55, 0
2, 144208, Control_c, 0, 64, 40
2, 144220, Control_c, 0, 64, 127
2, 144228, Note_on_c, 0, 73, 0
2, 144268, Note_on_c, 0, 61, 50
2, 144296, Note_on_c, 0, 51, 0
2, 144340, Note_on_c, 0, 61, 0
2, 144360, Note_on_c, 0, 82, 0
2, 144360, Note_on_c, 0, 55, 56
2, 144468, Note_on_c, 0, 46, 62
2, 144488, Note_on_c, 0, 55, 0
2, 144520, Note_on_c, 0, 46, 0
2, 144548, Note_on_c, 0, 61, 43
2, 144612, Note_on_c, 0, 75, 83
2, 144620, Note_on_c, 0, 84, 94
2, 144636, Note_on_c, 0, 61, 0
2, 144636, Note_on_c, 0, 55, 62
2, 144648, Note_on_c, 0, 75, 0
2, 144652, Note_on_c, 0, 55, 0
2, 144656, Note_on_c, 0, 84, 0
2, 144796, Note_on_c, 0, 85, 90
2, 144796, Note_on_c, 0, 77, 83
2, 144796, Control_c, 0, 64, 56
2, 144804, Control_c, 0, 64, 0
2, 144808, Note_on_c, 0, 39, 69
2, 144816, Note_on_c, 0, 77, 0
2, 144824, Control_c, 0, 64, 24
2, 144836, Control_c, 0, 64, 104
2, 144840, Note_on_c, 0, 85, 0
2, 144848, Control_c, 0, 64, 127
2, 144852, Note_on_c, 0, 39, 0
2, 144964, Note_on_c, 0, 97, 101
2, 144964, Note_on_c, 0, 61, 59
2, 144972, Note_on_c, 0, 89, 69
2, 144996, Note_on_c, 0, 89, 0
2, 145012, Note_on_c, 0, 97, 0
2, 145056, Note_on_c, 0, 61, 0
2, 145056, Note_on_c, 0, 55, 67
2, 145136, Note_on_c, 0, 82, 89
2, 145136, Note_on_c, 0, 73, 78
2, 145140, Note_on_c, 0, 55, 0
2, 145152, Note_on_c, 0, 46, 55
2, 145168, Note_on_c, 0, 73, 0
2, 145184, Note_on_c, 0, 82, 0
2, 145204, Note_on_c, 0, 46, 0
2, 145248, Note_on_c, 0, 61, 56
2, 145304, Note_on_c, 0, 94, 90
2, 145308, Note_on_c, 0, 85, 80
2, 145344, Note_on_c, 0, 94, 0
2, 145348, Note_on_c, 0, 85, 0
2, 145356, Note_on_c, 0, 61, 0
2, 145368, Note_on_c, 0, 55, 66
2, 145484, Note_on_c, 0, 70, 78
2, 145484, Note_on_c, 0, 79, 97
2, 145500, Note_on_c, 0, 51, 58
2, 145516, Note_on_c, 0, 70, 0
2, 145524, Note_on_c, 0, 55, 0
2, 145532, Note_on_c, 0, 79, 0
2, 145584, Note_on_c, 0, 51, 0
2, 145592, Note_on_c, 0, 61, 49
2, 145656, Note_on_c, 0, 91, 100
2, 145660, Note_on_c, 0, 82, 71
2, 145688, Note_on_c, 0, 82, 0
2, 145692, Note_on_c, 0, 91, 0
2, 145692, Note_on_c, 0, 55, 70
2, 145696, Note_on_c, 0, 61, 0
2, 145792, Note_on_c, 0, 55, 0
2, 145812, Note_on_c, 0, 46, 56
2, 145824, Note_on_c, 0, 75, 88
2, 145824, Note_on_c, 0, 67, 71
2, 145852, Note_on_c, 0, 67, 0
2, 145864, Note_on_c, 0, 75, 0
2, 145880, Note_on_c, 0, 46, 0
2, 145924, Note_on_c, 0, 61, 58
2, 146012, Note_on_c, 0, 87, 83
2, 146020, Note_on_c, 0, 79, 83
2, 146048, Note_on_c, 0, 61, 0
2, 146056, Note_on_c, 0, 79, 0
2, 146060, Note_on_c, 0, 87, 0
2, 146068, Note_on_c, 0, 55, 71
2, 146088, Note_on_c, 0, 55, 0
2, 146256, Note_on_c, 0, 77, 98
2, 146272, Note_on_c, 0, 72, 72
2, 146272, Note_on_c, 0, 68, 52
2, 146288, Control_c, 0, 64, 104
2, 146300, Control_c, 0, 64, 0
2, 146304, Note_on_c, 0, 44, 66
2, 146384, Control_c, 0, 64, 88
2, 146392, Control_c, 0, 64, 127
2, 146412, Note_on_c, 0, 44, 0
2, 146464, Note_on_c, 0, 60, 57
2, 146536, Note_on_c, 0, 60, 0
2, 146560, Note_on_c, 0, 56, 50
2, 146632, Note_on_c, 0, 56, 0
2, 146672, Note_on_c, 0, 48, 56
2, 146692, Note_on_c, 0, 68, 0
2, 146748, Note_on_c, 0, 48, 0
2, 146764, Note_on_c, 0, 60, 51
2, 146840, Note_on_c, 0, 60, 0
2, 146840, Note_on_c, 0, 72, 0
2, 146856, Note_on_c, 0, 56, 55
2, 146936, Note_on_c, 0, 56, 0
2, 146940, Note_on_c, 0, 77, 0
2, 146968, Note_on_c, 0, 51, 66
2, 147012, Note_on_c, 0, 51, 0
2, 147052, Note_on_c, 0, 75, 81
2, 147056, Note_on_c, 0, 63, 56
2, 147064, Note_on_c, 0, 72, 79
2, 147112, Note_on_c, 0, 72, 0
2, 147128, Note_on_c, 0, 75, 0
2, 147148, Note_on_c, 0, 74, 86
2, 147148, Note_on_c, 0, 71, 75
2, 147152, Note_on_c, 0, 63, 0
2, 147180, Note_on_c, 0, 60, 52
2, 147204, Note_on_c, 0, 71, 0
2, 147208, Note_on_c, 0, 74, 0
2, 147232, Note_on_c, 0, 75, 85
2, 147236, Note_on_c, 0, 72, 77
2, 147276, Note_on_c, 0, 60, 0
2, 147292, Note_on_c, 0, 75, 0
2, 147296, Note_on_c, 0, 72, 0
2, 147324, Note_on_c, 0, 74, 86
2, 147324, Note_on_c, 0, 56, 62
2, 147324, Control_c, 0, 64, 104
2, 147332, Note_on_c, 0, 71, 60
2, 147332, Control_c, 0, 64, 24
2, 147344, Control_c, 0, 64, 0
2, 147368, Note_on_c, 0, 71, 0
2, 147372, Note_on_c, 0, 74, 0
2, 147376, Control_c, 0, 64, 40
2, 147388, Control_c, 0, 64, 127
2, 147400, Note_on_c, 0, 75, 87
2, 147408, Note_on_c, 0, 72, 90
2, 147420, Note_on_c, 0, 63, 43
2, 147448, Note_on_c, 0, 56, 0
2, 147452, Note_on_c, 0, 72, 0
2, 147464, Note_on_c, 0, 75, 0
2, 147496, Note_on_c, 0, 73, 77
2, 147500, Note_on_c, 0, 77, 94
2, 147512, Note_on_c, 0, 63, 0
2, 147540, Note_on_c, 0, 60, 50
2, 147552, Note_on_c, 0, 77, 0
2, 147560, Note_on_c, 0, 73, 0
2, 147588, Note_on_c, 0, 60, 0
2, 147596, Note_on_c, 0, 72, 69
2, 147596, Note_on_c, 0, 75, 89
2, 147608, Note_on_c, 0, 56, 54
2, 147624, Note_on_c, 0, 72, 0
2, 147628, Note_on_c, 0, 56, 0
2, 147680, Note_on_c, 0, 75, 0
2, 147720, Note_on_c, 0, 72, 92
2, 147720, Note_on_c, 0, 68, 49
2, 147756, Control_c, 0, 64, 72
2, 147764, Control_c, 0, 64, 0
2, 147776, Note_on_c, 0, 44, 62
2, 147832, Note_on_c, 0, 44, 0
2, 147836, Control_c, 0, 64, 127
2, 147896, Note_on_c, 0, 60, 55
2, 147956, Note_on_c, 0, 60, 0
2, 147956, Note_on_c, 0, 68, 0
2, 147980, Note_on_c, 0, 56, 46
2, 148060, Note_on_c, 0, 56, 0
2, 148092, Note_on_c, 0, 48, 47
2, 148172, Note_on_c, 0, 48, 0
2, 148188, Note_on_c, 0, 60, 40
2, 148284, Note_on_c, 0, 56, 60
2, 148292, Note_on_c, 0, 60, 0
2, 148356, Note_on_c, 0, 56, 0
2, 148388, Note_on_c, 0, 51, 49
2, 148456, Note_on_c, 0, 51, 0
2, 148480, Note_on_c, 0, 63, 54
2, 148552, Note_on_c, 0, 63, 0
2, 148584, Note_on_c, 0, 60, 42
2, 148644, Note_on_c, 0, 72, 0
2, 148672, Note_on_c, 0, 60, 0
2, 148696, Note_on_c, 0, 56, 50
2, 148784, Note_on_c, 0, 56, 0
2, 148784, Note_on_c, 0, 63, 42
2, 148864, Note_on_c, 0, 72, 95
2, 148864, Note_on_c, 0, 84, 100
2, 148884, Note_on_c, 0, 60, 41
2, 148892, Note_on_c, 0, 63, 0
2, 148908, Note_on_c, 0, 72, 0
2, 148928, Note_on_c, 0, 60, 0
2, 148932, Note_on_c, 0, 84, 0
2, 148940, Note_on_c, 0, 56, 51
2, 148980, Note_on_c, 0, 56, 0
2, 149120, Note_on_c, 0, 88, 110
2, 149124, Control_c, 0, 64, 56
2, 149132, Note_on_c, 0, 76, 82
2, 149132, Note_on_c, 0, 79, 81
2, 149132, Control_c, 0, 64, 0
2, 149144, Note_on_c, 0, 36, 66
2, 149192, Note_on_c, 0, 36, 0
2, 149196, Control_c, 0, 64, 127
2, 149304, Note_on_c, 0, 64, 58
2, 149308, Note_on_c, 0, 79, 0
2, 149344, Note_on_c, 0, 76, 0
2, 149360, Note_on_c, 0, 64, 0
2, 149380, Note_on_c, 0, 88, 0
2, 149400, Note_on_c, 0, 58, 52
2, 149504, Note_on_c, 0, 58, 0
2, 149532, Note_on_c, 0, 55, 70
2, 149612, Note_on_c, 0, 55, 0
2, 149620, Note_on_c, 0, 64, 63
2, 149688, Note_on_c, 0, 64, 0
2, 149688, Note_on_c, 0, 89, 105
2, 149688, Note_on_c, 0, 80, 87
2, 149692, Note_on_c, 0, 77, 85
2, 149708, Note_on_c, 0, 58, 57
2, 149728, Note_on_c, 0, 80, 0
2, 149736, Note_on_c, 0, 77, 0
2, 149752, Note_on_c, 0, 89, 0
2, 149844, Note_on_c, 0, 91, 110
2, 149848, Note_on_c, 0, 79, 86
2, 149848, Note_on_c, 0, 82, 83
2, 149856, Note_on_c, 0, 52, 70
2, 149868, Note_on_c, 0, 58, 0
2, 149944, Note_on_c, 0, 64, 64
2, 149976, Note_on_c, 0, 52, 0
2, 150020, Note_on_c, 0, 64, 0
2, 150032, Note_on_c, 0, 79, 0
2, 150032, Note_on_c, 0, 58, 65
2, 150048, Note_on_c, 0, 91, 0
2, 150056, Note_on_c, 0, 82, 0
2, 150148, Note_on_c, 0, 58, 0
2, 150152, Note_on_c, 0, 55, 71
2, 150188, Note_on_c, 0, 55, 0
2, 150252, Note_on_c, 0, 64, 52
2, 150312, Note_on_c, 0, 92, 102
2, 150316, Note_on_c, 0, 80, 85
2, 150316, Note_on_c, 0, 84, 93
2, 150352, Note_on_c, 0, 58, 65
2, 150356, Note_on_c, 0, 84, 0
2, 150356, Note_on_c, 0, 80, 0
2, 150368, Note_on_c, 0, 64, 0
2, 150376, Note_on_c, 0, 92, 0
2, 150488, Note_on_c, 0, 94, 110
2, 150488, Note_on_c, 0, 82, 88
2, 150492, Note_on_c, 0, 85, 86
2, 150504, Control_c, 0, 64, 104
2, 150516, Note_on_c, 0, 48, 50
2, 150516, Control_c, 0, 64, 24
2, 150524, Control_c, 0, 64, 0
2, 150548, Note_on_c, 0, 58, 0
2, 150560, Note_on_c, 0, 48, 0
2, 150568, Control_c, 0, 64, 40
2, 150576, Control_c, 0, 64, 127
2, 150616, Note_on_c, 0, 64, 60
2, 150644, Note_on_c, 0, 85, 0
2, 150676, Note_on_c, 0, 64, 0
2, 150696, Note_on_c, 0, 58, 58
2, 150732, Note_on_c, 0, 82, 0
2, 150772, Note_on_c, 0, 94, 0
2, 150784, Note_on_c, 0, 58, 0
2, 150800, Note_on_c, 0, 55, 71
2, 150880, Note_on_c, 0, 64, 71
2, 150936, Note_on_c, 0, 55, 0
2, 150940, Note_on_c, 0, 64, 0
2, 150948, Note_on_c, 0, 95, 105
2, 150956, Note_on_c, 0, 83, 88
2, 150956, Note_on_c, 0, 91, 94
2, 150988, Note_on_c, 0, 58, 66
2, 150992, Note_on_c, 0, 83, 0
2, 150996, Note_on_c, 0, 91, 0
2, 151012, Note_on_c, 0, 95, 0
2, 151112, Note_on_c, 0, 96, 110
2, 151120, Note_on_c, 0, 92, 89
2, 151124, Note_on_c, 0, 84, 89
2, 151132, Note_on_c, 0, 52, 69
2, 151144, Note_on_c, 0, 58, 0
2, 151216, Note_on_c, 0, 64, 69
2, 151272, Note_on_c, 0, 52, 0
2, 151292, Note_on_c, 0, 96, 0
2, 151300, Note_on_c, 0, 64, 0
2, 151308, Note_on_c, 0, 58, 66
2, 151332, Note_on_c, 0, 92, 0
2, 151352, Note_on_c, 0, 84, 0
2, 151416, Note_on_c, 0, 48, 85
2, 151424, Note_on_c, 0, 58, 0
2, 151460, Note_on_c, 0, 48, 0
2, 151504, Note_on_c, 0, 64, 66
2, 151568, Note_on_c, 0, 91, 108
2, 151568, Note_on_c, 0, 79, 97
2, 151576, Note_on_c, 0, 88, 94
2, 151620, Note_on_c, 0, 58, 71
2, 151628, Note_on_c, 0, 64, 0
2, 151648, Note_on_c, 0, 79, 0
2, 151660, Note_on_c, 0, 58, 0
2, 151664, Note_on_c, 0, 91, 0
2, 151696, Note_on_c, 0, 88, 0
2, 151828, Note_on_c, 0, 94, 109
2, 151832, Note_on_c, 0, 85, 92
2, 151836, Note_on_c, 0, 82, 93
2, 151840, Control_c, 0, 64, 72
2, 151852, Control_c, 0, 64, 0
2, 151864, Note_on_c, 0, 41, 90
2, 151916, Control_c, 0, 64, 127
2, 152020, Note_on_c, 0, 64, 65
2, 152052, Note_on_c, 0, 41, 0
2, 152084, Note_on_c, 0, 64, 0
2, 152116, Note_on_c, 0, 61, 64
2, 152192, Note_on_c, 0, 61, 0
2, 152224, Note_on_c, 0, 55, 72
2, 152232, Note_on_c, 0, 53, 72
2, 152296, Note_on_c, 0, 53, 0
2, 152312, Note_on_c, 0, 55, 0
2, 152312, Note_on_c, 0, 64, 67
2, 152396, Note_on_c, 0, 64, 0
2, 152416, Note_on_c, 0, 61, 66
2, 152496, Note_on_c, 0, 61, 0
2, 152528, Note_on_c, 0, 58, 62
2, 152616, Note_on_c, 0, 58, 0
2, 152620, Note_on_c, 0, 64, 69
2, 152704, Note_on_c, 0, 64, 0
2, 152716, Note_on_c, 0, 61, 66
2, 152796, Note_on_c, 0, 61, 0
2, 152832, Note_on_c, 0, 55, 74
2, 152868, Note_on_c, 0, 53, 50
2, 152916, Note_on_c, 0, 85, 0
2, 152924, Note_on_c, 0, 94, 0
2, 152928, Note_on_c, 0, 55, 0
2, 152928, Note_on_c, 0, 82, 0
2, 152928, Note_on_c, 0, 64, 66
2, 153016, Note_on_c, 0, 85, 87
2, 153016, Note_on_c, 0, 81, 89
2, 153016, Note_on_c, 0, 93, 115
2, 153088, Note_on_c, 0, 64, 0
2, 153088, Note_on_c, 0, 61, 57
2, 153104, Note_on_c, 0, 53, 0
2, 153112, Note_on_c, 0, 58, 52
2, 153132, Note_on_c, 0, 58, 0
2, 153132, Note_on_c, 0, 61, 0
2, 153160, Note_on_c, 0, 81, 0
2, 153164, Note_on_c, 0, 93, 0
2, 153180, Note_on_c, 0, 85, 0
2, 153272, Note_on_c, 0, 92, 102
2, 153280, Note_on_c, 0, 80, 72
2, 153280, Note_on_c, 0, 84, 85
2, 153332, Note_on_c, 0, 41, 82
2, 153336, Control_c, 0, 64, 24
2, 153348, Control_c, 0, 64, 0
2, 153408, Control_c, 0, 64, 127
2, 153508, Note_on_c, 0, 65, 46
2, 153516, Note_on_c, 0, 41, 0
2, 153552, Note_on_c, 0, 65, 0
2, 153596, Note_on_c, 0, 60, 52
2, 153660, Note_on_c, 0, 60, 0
2, 153696, Note_on_c, 0, 53, 64
2, 153792, Note_on_c, 0, 65, 46
2, 153796, Note_on_c, 0, 53, 0
2, 153860, Note_on_c, 0, 65, 0
2, 153888, Note_on_c, 0, 60, 55
2, 154004, Note_on_c, 0, 60, 0
2, 154012, Note_on_c, 0, 56, 49
2, 154112, Note_on_c, 0, 65, 51
2, 154124, Note_on_c, 0, 56, 0
2, 154180, Note_on_c, 0, 65, 0
2, 154220, Note_on_c, 0, 60, 43
2, 154312, Note_on_c, 0, 60, 0
2, 154348, Note_on_c, 0, 53, 55
2, 154440, Note_on_c, 0, 92, 0
2, 154444, Note_on_c, 0, 84, 0
2, 154448, Note_on_c, 0, 80, 0
2, 154448, Note_on_c, 0, 65, 49
2, 154592, Note_on_c, 0, 65, 0
2, 154592, Note_on_c, 0, 60, 51
2, 154604, Note_on_c, 0, 53, 0
2, 154636, Note_on_c, 0, 60, 0
2, 154856, Note_on_c, 0, 77, 96
2, 154856, Note_on_c, 0, 68, 52
2, 154860, Note_on_c, 0, 44, 63
2, 154884, Control_c, 0, 64, 72
2, 154896, Control_c, 0, 64, 0
2, 154940, Note_on_c, 0, 44, 0
2, 154948, Control_c, 0, 64, 72
2, 154956, Control_c, 0, 64, 127
2, 155044, Note_on_c, 0, 68, 0
2, 155060, Note_on_c, 0, 77, 0
2, 155092, Note_on_c, 0, 65, 18
2, 155180, Note_on_c, 0, 77, 95
2, 155192, Note_on_c, 0, 68, 49
2, 155224, Note_on_c, 0, 59, 50
2, 155244, Note_on_c, 0, 65, 0
2, 155308, Note_on_c, 0, 77, 0
2, 155320, Note_on_c, 0, 68, 0
2, 155320, Note_on_c, 0, 59, 0
2, 155328, Note_on_c, 0, 56, 58
2, 155432, Note_on_c, 0, 77, 95
2, 155444, Note_on_c, 0, 68, 54
2, 155496, Note_on_c, 0, 68, 0
2, 155496, Note_on_c, 0, 65, 41
2, 155548, Note_on_c, 0, 77, 0
2, 155580, Note_on_c, 0, 56, 0
2, 155596, Note_on_c, 0, 59, 58
2, 155608, Note_on_c, 0, 65, 0
2, 155692, Note_on_c, 0, 79, 90
2, 155696, Note_on_c, 0, 70, 72
2, 155720, Note_on_c, 0, 59, 0
2, 155740, Note_on_c, 0, 56, 42
2, 155836, Note_on_c, 0, 65, 54
2, 155964, Note_on_c, 0, 65, 0
2, 155964, Note_on_c, 0, 59, 60
2, 155972, Note_on_c, 0, 56, 0
2, 155988, Note_on_c, 0, 79, 0
2, 155992, Note_on_c, 0, 70, 0
2, 156072, Note_on_c, 0, 59, 0
2, 156396, Note_on_c, 0, 77, 86
2, 156396, Note_on_c, 0, 68, 56
2, 156512, Note_on_c, 0, 68, 0
2, 156544, Note_on_c, 0, 77, 0
2, 156612, Note_on_c, 0, 75, 77
2, 156628, Note_on_c, 0, 67, 52
2, 156652, Control_c, 0, 64, 56
2, 156656, Note_on_c, 0, 46, 54
2, 156660, Control_c, 0, 64, 0
2, 156688, Control_c, 0, 64, 72
2, 156700, Control_c, 0, 64, 127
2, 156704, Note_on_c, 0, 46, 0
2, 156772, Note_on_c, 0, 67, 0
2, 156780, Note_on_c, 0, 63, 51
2, 156796, Note_on_c, 0, 75, 0
2, 156876, Note_on_c, 0, 75, 90
2, 156880, Note_on_c, 0, 63, 0
2, 156892, Note_on_c, 0, 67, 62
2, 156896, Note_on_c, 0, 58, 40
2, 156944, Note_on_c, 0, 67, 0
2, 156996, Note_on_c, 0, 58, 0
2, 157000, Note_on_c, 0, 75, 0
2, 157008, Note_on_c, 0, 55, 67
2, 157092, Note_on_c, 0, 75, 85
2, 157104, Note_on_c, 0, 55, 0
2, 157104, Note_on_c, 0, 67, 60
2, 157128, Note_on_c, 0, 63, 36
2, 157156, Note_on_c, 0, 67, 0
2, 157220, Note_on_c, 0, 58, 64
2, 157244, Note_on_c, 0, 75, 0
2, 157260, Note_on_c, 0, 63, 0
2, 157336, Note_on_c, 0, 74, 94
2, 157344, Note_on_c, 0, 66, 49
2, 157348, Note_on_c, 0, 58, 0
2, 157364, Note_on_c, 0, 55, 60
2, 157460, Note_on_c, 0, 63, 55
2, 157476, Note_on_c, 0, 66, 0
2, 157596, Note_on_c, 0, 58, 60
2, 157616, Note_on_c, 0, 63, 0
2, 157684, Note_on_c, 0, 55, 0
2, 157712, Note_on_c, 0, 58, 0
2, 157820, Note_on_c, 0, 74, 0
2, 157940, Note_on_c, 0, 75, 78
2, 157956, Note_on_c, 0, 67, 67
2, 158012, Note_on_c, 0, 67, 0
2, 158056, Note_on_c, 0, 75, 0
2, 158212, Note_on_c, 0, 79, 93
2, 158212, Note_on_c, 0, 70, 63
2, 158212, Note_on_c, 0, 46, 64
2, 158268, Control_c, 0, 64, 72
2, 158280, Control_c, 0, 64, 0
2, 158312, Note_on_c, 0, 46, 0
2, 158352, Control_c, 0, 64, 127
2, 158436, Note_on_c, 0, 62, 49
2, 158524, Note_on_c, 0, 58, 50
2, 158528, Note_on_c, 0, 62, 0
2, 158612, Note_on_c, 0, 58, 0
2, 158636, Note_on_c, 0, 56, 62
2, 158732, Note_on_c, 0, 70, 0
2, 158740, Note_on_c, 0, 62, 62
2, 158744, Note_on_c, 0, 56, 0
2, 158784, Note_on_c, 0, 79, 0
2, 158812, Note_on_c, 0, 77, 102
2, 158828, Note_on_c, 0, 68, 62
2, 158876, Note_on_c, 0, 58, 54
2, 158896, Note_on_c, 0, 62, 0
2, 158968, Note_on_c, 0, 77, 0
2, 159004, Note_on_c, 0, 68, 0
2, 159064, Note_on_c, 0, 58, 0
2, 159064, Note_on_c, 0, 80, 93
2, 159080, Note_on_c, 0, 72, 64
2, 159088, Note_on_c, 0, 53, 39
2, 159196, Note_on_c, 0, 62, 58
2, 159352, Note_on_c, 0, 58, 57
2, 159436, Note_on_c, 0, 58, 0
2, 159532, Note_on_c, 0, 72, 0
2, 159652, Note_on_c, 0, 80, 0
2, 159668, Note_on_c, 0, 53, 0
2, 159668, Note_on_c, 0, 62, 0
2, 159900, Note_on_c, 0, 79, 80
2, 159908, Note_on_c, 0, 70, 42
2, 159988, Note_on_c, 0, 79, 0
2, 160028, Note_on_c, 0, 70, 0
2, 160144, Note_on_c, 0, 75, 74
2, 160144, Note_on_c, 0, 67, 48
2, 160144, Note_on_c, 0, 39, 63
2, 160212, Control_c, 0, 64, 72
2, 160224, Control_c, 0, 64, 0
2, 160336, Note_on_c, 0, 58, 41
2, 160348, Control_c, 0, 64, 24
2, 160356, Control_c, 0, 64, 56
2, 160368, Control_c, 0, 64, 88
2, 160388, Control_c, 0, 64, 104
2, 160396, Control_c, 0, 64, 127
2, 160404, Note_on_c, 0, 39, 0
2, 160420, Note_on_c, 0, 67, 0
2, 160444, Note_on_c, 0, 75, 0
2, 160476, Note_on_c, 0, 58, 0
2, 160476, Note_on_c, 0, 55, 44
2, 160564, Note_on_c, 0, 55, 0
2, 160588, Note_on_c, 0, 46, 55
2, 160688, Note_on_c, 0, 58, 35
2, 160716, Note_on_c, 0, 46, 0
2, 160796, Note_on_c, 0, 58, 0
2, 160804, Note_on_c, 0, 55, 49
2, 160908, Note_on_c, 0, 55, 0
2, 160924, Note_on_c, 0, 51, 63
2, 161032, Note_on_c, 0, 58, 33
2, 161124, Note_on_c, 0, 51, 0
2, 161140, Note_on_c, 0, 58, 0
2, 161160, Note_on_c, 0, 55, 43
2, 161236, Note_on_c, 0, 55, 0
2, 161260, Note_on_c, 0, 46, 44
2, 161372, Note_on_c, 0, 58, 41
2, 161492, Note_on_c, 0, 58, 0
2, 161496, Note_on_c, 0, 55, 50
2, 161508, Note_on_c, 0, 46, 0
2, 161516, Note_on_c, 0, 55, 0
2, 161624, Control_c, 0, 64, 88
2, 161632, Note_on_c, 0, 39, 67
2, 161636, Control_c, 0, 64, 0
2, 161672, Control_c, 0, 64, 56
2, 161684, Control_c, 0, 64, 127
2, 161704, Note_on_c, 0, 39, 0
2, 161780, Note_on_c, 0, 58, 43
2, 161848, Note_on_c, 0, 58, 0
2, 161888, Note_on_c, 0, 55, 46
2, 161932, Note_on_c, 0, 55, 0
2, 161984, Note_on_c, 0, 46, 57
2, 162060, Note_on_c, 0, 46, 0
2, 162088, Note_on_c, 0, 58, 52
2, 162172, Note_on_c, 0, 58, 0
2, 162208, Note_on_c, 0, 55, 55
2, 162276, Note_on_c, 0, 55, 0
2, 162320, Note_on_c, 0, 51, 66
2, 162408, Note_on_c, 0, 58, 32
2, 162424, Note_on_c, 0, 51, 0
2, 162512, Note_on_c, 0, 58, 0
2, 162540, Note_on_c, 0, 55, 39
2, 162616, Note_on_c, 0, 55, 0
2, 162656, Note_on_c, 0, 46, 46
2, 162756, Note_on_c, 0, 46, 0
2, 162756, Note_on_c, 0, 58, 42
2, 162840, Note_on_c, 0, 63, 80
2, 162904, Note_on_c, 0, 55, 43
2, 162908, Note_on_c, 0, 58, 0
2, 162928, Note_on_c, 0, 55, 0
2, 162984, Note_on_c, 0, 63, 0
2, 163068, Note_on_c, 0, 67, 88
2, 163104, Control_c, 0, 64, 72
2, 163112, Note_on_c, 0, 39, 48
2, 163112, Control_c, 0, 64, 0
2, 163164, Note_on_c, 0, 39, 0
2, 163164, Control_c, 0, 64, 56
2, 163172, Control_c, 0, 64, 127
2, 163252, Note_on_c, 0, 61, 44
2, 163320, Note_on_c, 0, 61, 0
2, 163364, Note_on_c, 0, 55, 51
2, 163436, Note_on_c, 0, 55, 0
2, 163476, Note_on_c, 0, 46, 52
2, 163532, Note_on_c, 0, 46, 0
2, 163588, Note_on_c, 0, 61, 48
2, 163668, Note_on_c, 0, 68, 92
2, 163680, Note_on_c, 0, 61, 0
2, 163700, Note_on_c, 0, 67, 0
2, 163716, Note_on_c, 0, 55, 52
2, 163828, Note_on_c, 0, 68, 0
2, 163832, Note_on_c, 0, 70, 89
2, 163840, Note_on_c, 0, 55, 0
2, 163852, Note_on_c, 0, 51, 54
2, 163900, Control_c, 0, 64, 88
2, 163908, Control_c, 0, 64, 0
2, 163952, Note_on_c, 0, 61, 48
2, 163972, Control_c, 0, 64, 56
2, 163980, Control_c, 0, 64, 127
2, 164052, Note_on_c, 0, 51, 0
2, 164056, Note_on_c, 0, 61, 0
2, 164068, Note_on_c, 0, 55, 46
2, 164152, Note_on_c, 0, 55, 0
2, 164196, Note_on_c, 0, 46, 52
2, 164248, Note_on_c, 0, 46, 0
2, 164304, Note_on_c, 0, 61, 52
2, 164348, Note_on_c, 0, 70, 0
2, 164364, Note_on_c, 0, 72, 96
2, 164420, Note_on_c, 0, 72, 0
2, 164444, Note_on_c, 0, 55, 57
2, 164448, Note_on_c, 0, 61, 0
2, 164460, Note_on_c, 0, 55, 0
2, 164508, Control_c, 0, 64, 72
2, 164508, Control_c, 0, 64, 72
2, 164516, Control_c, 0, 64, 0
2, 164516, Control_c, 0, 64, 24
2, 164520, Control_c, 0, 64, 72
2, 164528, Control_c, 0, 64, 72
2, 164544, Control_c, 0, 64, 0
2, 164580, Note_on_c, 0, 73, 83
2, 164580, Note_on_c, 0, 39, 57
2, 164612, Control_c, 0, 64, 104
2, 164624, Control_c, 0, 64, 127
2, 164660, Note_on_c, 0, 39, 0
2, 164660, Note_on_c, 0, 73, 0
2, 164712, Note_on_c, 0, 73, 90
2, 164808, Note_on_c, 0, 61, 51
2, 164820, Note_on_c, 0, 73, 0
2, 164840, Note_on_c, 0, 75, 85
2, 164956, Note_on_c, 0, 61, 0
2, 164960, Note_on_c, 0, 55, 50
2, 164964, Note_on_c, 0, 75, 0
2, 164968, Note_on_c, 0, 73, 89
2, 165064, Note_on_c, 0, 73, 0
2, 165072, Note_on_c, 0, 72, 85
2, 165092, Note_on_c, 0, 55, 0
2, 165144, Note_on_c, 0, 46, 52
2, 165172, Note_on_c, 0, 73, 92
2, 165172, Control_c, 0, 64, 88
2, 165180, Note_on_c, 0, 72, 0
2, 165184, Control_c, 0, 64, 104
2, 165200, Control_c, 0, 64, 127
2, 165240, Note_on_c, 0, 73, 0
2, 165268, Note_on_c, 0, 46, 0
2, 165288, Note_on_c, 0, 84, 89
2, 165364, Note_on_c, 0, 84, 0
2, 165368, Note_on_c, 0, 61, 37
2, 165404, Note_on_c, 0, 82, 77
2, 165484, Note_on_c, 0, 61, 0
2, 165512, Note_on_c, 0, 82, 0
2, 165512, Note_on_c, 0, 55, 56
2, 165524, Note_on_c, 0, 79, 83
2, 165604, Note_on_c, 0, 79, 0
2, 165620, Note_on_c, 0, 72, 82
2, 165700, Note_on_c, 0, 51, 48
2, 165700, Control_c, 0, 64, 72
2, 165712, Control_c, 0, 64, 24
2, 165728, Control_c, 0, 64, 40
2, 165736, Note_on_c, 0, 73, 81
2, 165740, Control_c, 0, 64, 88
2, 165744, Note_on_c, 0, 72, 0
2, 165752, Control_c, 0, 64, 127
2, 165820, Note_on_c, 0, 55, 0
2, 165844, Note_on_c, 0, 73, 0
2, 165852, Note_on_c, 0, 74, 86
2, 165868, Note_on_c, 0, 61, 37
2, 165940, Note_on_c, 0, 74, 0
2, 165952, Note_on_c, 0, 75, 81
2, 166016, Note_on_c, 0, 51, 0
2, 166032, Note_on_c, 0, 55, 46
2, 166044, Note_on_c, 0, 61, 0
2, 166048, Note_on_c, 0, 75, 0
2, 166060, Note_on_c, 0, 76, 92
2, 166156, Note_on_c, 0, 76, 0
2, 166180, Note_on_c, 0, 79, 94
2, 166192, Note_on_c, 0, 55, 0
2, 166228, Control_c, 0, 64, 72
2, 166240, Note_on_c, 0, 46, 48
2, 166244, Control_c, 0, 64, 24
2, 166280, Note_on_c, 0, 79, 0
2, 166284, Control_c, 0, 64, 127
2, 166300, Note_on_c, 0, 77, 89
2, 166412, Note_on_c, 0, 46, 0
2, 166412, Note_on_c, 0, 73, 86
2, 166416, Note_on_c, 0, 77, 0
2, 166516, Note_on_c, 0, 61, 36
2, 166528, Note_on_c, 0, 70, 78
2, 166544, Note_on_c, 0, 73, 0
2, 166632, Note_on_c, 0, 70, 0
2, 166648, Note_on_c, 0, 67, 77
2, 166704, Note_on_c, 0, 67, 0
2, 166760, Note_on_c, 0, 62, 75
2, 166784, Note_on_c, 0, 61, 0
2, 166784, Note_on_c, 0, 55, 48
2, 166848, Note_on_c, 0, 62, 0
2, 166868, Note_on_c, 0, 55, 0
2, 166876, Note_on_c, 0, 63, 78
2, 166956, Note_on_c, 0, 63, 0
2, 166980, Note_on_c, 0, 64, 80
2, 167072, Note_on_c, 0, 64, 0
2, 167164, Note_on_c, 0, 65, 82
2, 167192, Note_on_c, 0, 44, 50
2, 167192, Control_c, 0, 64, 40
2, 167204, Control_c, 0, 64, 0
2, 167316, Note_on_c, 0, 44, 0
2, 167316, Control_c, 0, 64, 127
2, 167404, Note_on_c, 0, 60, 50
2, 167492, Note_on_c, 0, 60, 0
2, 167524, Note_on_c, 0, 56, 44
2, 167648, Note_on_c, 0, 56, 0
2, 167688, Note_on_c, 0, 48, 62
2, 167788, Note_on_c, 0, 48, 0
2, 167812, Note_on_c, 0, 60, 58
2, 167900, Note_on_c, 0, 60, 0
2, 167956, Note_on_c, 0, 56, 44
2, 168088, Note_on_c, 0, 56, 0
2, 168128, Note_on_c, 0, 51, 55
2, 168232, Note_on_c, 0, 63, 70
2, 168236, Note_on_c, 0, 65, 0
2, 168312, Note_on_c, 0, 51, 0
2, 168328, Note_on_c, 0, 60, 51
2, 168344, Note_on_c, 0, 63, 0
2, 168344, Note_on_c, 0, 62, 75
2, 168444, Note_on_c, 0, 62, 0
2, 168452, Note_on_c, 0, 63, 77
2, 168468, Note_on_c, 0, 56, 43
2, 168488, Note_on_c, 0, 60, 0
2, 168568, Note_on_c, 0, 63, 0
2, 168584, Note_on_c, 0, 62, 75
2, 168640, Control_c, 0, 64, 88
2, 168644, Note_on_c, 0, 56, 0
2, 168656, Note_on_c, 0, 48, 55
2, 168656, Control_c, 0, 64, 24
2, 168668, Control_c, 0, 64, 0
2, 168684, Note_on_c, 0, 63, 78
2, 168688, Note_on_c, 0, 62, 0
2, 168712, Control_c, 0, 64, 40
2, 168724, Control_c, 0, 64, 104
2, 168740, Control_c, 0, 64, 127
2, 168796, Note_on_c, 0, 65, 81
2, 168800, Note_on_c, 0, 63, 0
2, 168856, Note_on_c, 0, 60, 42
2, 168908, Note_on_c, 0, 65, 0
2, 168908, Note_on_c, 0, 63, 79
2, 169020, Note_on_c, 0, 63, 0
2, 169044, Note_on_c, 0, 48, 0
2, 169044, Note_on_c, 0, 72, 83
2, 169048, Note_on_c, 0, 60, 0
2, 169048, Note_on_c, 0, 56, 35
2, 169140, Note_on_c, 0, 72, 0
2, 169160, Note_on_c, 0, 68, 81
2, 169220, Note_on_c, 0, 56, 0
2, 169280, Note_on_c, 0, 68, 0
2, 169280, Note_on_c, 0, 65, 88
2, 169388, Note_on_c, 0, 65, 0
2, 169396, Note_on_c, 0, 63, 81
2, 169492, Control_c, 0, 64, 72
2, 169508, Control_c, 0, 64, 0
2, 169552, Note_on_c, 0, 63, 0
2, 169552, Note_on_c, 0, 60, 80
2, 169552, Note_on_c, 0, 44, 56
2, 169616, Control_c, 0, 64, 127
2, 169680, Note_on_c, 0, 60, 0
2, 169700, Note_on_c, 0, 44, 0
2, 169704, Note_on_c, 0, 60, 57
2, 169708, Control_c, 0, 64, 24
2, 169720, Control_c, 0, 64, 88
2, 169732, Control_c, 0, 64, 127
2, 169852, Note_on_c, 0, 56, 58
2, 169976, Note_on_c, 0, 60, 0
2, 170020, Note_on_c, 0, 56, 0
2, 170020, Note_on_c, 0, 48, 59
2, 170116, Note_on_c, 0, 60, 49
2, 170236, Note_on_c, 0, 56, 50
2, 170256, Note_on_c, 0, 48, 0
2, 170296, Note_on_c, 0, 60, 0
2, 170356, Note_on_c, 0, 56, 0
2, 170364, Note_on_c, 0, 51, 65
2, 170484, Note_on_c, 0, 60, 44
2, 170500, Note_on_c, 0, 51, 0
2, 170588, Note_on_c, 0, 56, 43
2, 170592, Note_on_c, 0, 60, 0
2, 170704, Note_on_c, 0, 56, 0
2, 170724, Note_on_c, 0, 75, 94
2, 170732, Note_on_c, 0, 63, 63
2, 170748, Note_on_c, 0, 48, 58
2, 170780, Note_on_c, 0, 63, 0
2, 170852, Note_on_c, 0, 60, 41
2, 170896, Note_on_c, 0, 75, 0
2, 170980, Note_on_c, 0, 56, 62
2, 170984, Note_on_c, 0, 48, 0
2, 170996, Note_on_c, 0, 60, 0
2, 171016, Note_on_c, 0, 56, 0
2, 171184, Note_on_c, 0, 79, 97
2, 171184, Control_c, 0, 64, 24
2, 171192, Note_on_c, 0, 70, 59
2, 171192, Control_c, 0, 64, 0
2, 171196, Note_on_c, 0, 39, 63
2, 171256, Control_c, 0, 64, 127
2, 171352, Note_on_c, 0, 61, 36
2, 171420, Note_on_c, 0, 70, 0
2, 171424, Note_on_c, 0, 39, 0
2, 171436, Note_on_c, 0, 61, 0
2, 171452, Note_on_c, 0, 55, 54
2, 171576, Note_on_c, 0, 55, 0
2, 171576, Note_on_c, 0, 46, 65
2, 171644, Note_on_c, 0, 46, 0
2, 171696, Note_on_c, 0, 61, 43
2, 171700, Note_on_c, 0, 79, 0
2, 171772, Note_on_c, 0, 80, 92
2, 171784, Note_on_c, 0, 72, 70
2, 171804, Note_on_c, 0, 72, 0
2, 171816, Note_on_c, 0, 55, 67
2, 171832, Note_on_c, 0, 80, 0
2, 171844, Note_on_c, 0, 61, 0
2, 171944, Note_on_c, 0, 82, 94
2, 171952, Note_on_c, 0, 73, 67
2, 171960, Note_on_c, 0, 51, 58
2, 171992, Control_c, 0, 64, 88
2, 172000, Note_on_c, 0, 55, 0
2, 172000, Control_c, 0, 64, 40
2, 172012, Control_c, 0, 64, 0
2, 172020, Control_c, 0, 64, 24
2, 172028, Control_c, 0, 64, 88
2, 172040, Control_c, 0, 64, 127
2, 172068, Note_on_c, 0, 61, 49
2, 172128, Note_on_c, 0, 73, 0
2, 172172, Note_on_c, 0, 51, 0
2, 172184, Note_on_c, 0, 61, 0
2, 172192, Note_on_c, 0, 55, 50
2, 172284, Note_on_c, 0, 55, 0
2, 172316, Note_on_c, 0, 46, 57
2, 172400, Note_on_c, 0, 46, 0
2, 172440, Note_on_c, 0, 61, 48
2, 172476, Note_on_c, 0, 82, 0
2, 172516, Note_on_c, 0, 75, 77
2, 172520, Note_on_c, 0, 84, 92
2, 172564, Note_on_c, 0, 75, 0
2, 172572, Note_on_c, 0, 84, 0
2, 172588, Note_on_c, 0, 55, 44
2, 172596, Note_on_c, 0, 61, 0
2, 172608, Note_on_c, 0, 55, 0
2, 172728, Control_c, 0, 64, 72
2, 172736, Note_on_c, 0, 85, 83
2, 172736, Control_c, 0, 64, 0
2, 172740, Note_on_c, 0, 77, 75
2, 172760, Note_on_c, 0, 39, 70
2, 172760, Control_c, 0, 64, 40
2, 172772, Control_c, 0, 64, 127
2, 172792, Note_on_c, 0, 77, 0
2, 172856, Note_on_c, 0, 85, 0
2, 172884, Note_on_c, 0, 87, 79
2, 172884, Note_on_c, 0, 79, 69
2, 172916, Note_on_c, 0, 61, 46
2, 172928, Note_on_c, 0, 79, 0
2, 172976, Note_on_c, 0, 87, 0
2, 173008, Note_on_c, 0, 89, 86
2, 173012, Note_on_c, 0, 39, 0
2, 173012, Note_on_c, 0, 80, 55
2, 173020, Note_on_c, 0, 61, 0
2, 173024, Note_on_c, 0, 55, 50
2, 173060, Note_on_c, 0, 80, 0
2, 173100, Note_on_c, 0, 55, 0
2, 173100, Note_on_c, 0, 89, 0
2, 173128, Note_on_c, 0, 82, 51
2, 173132, Note_on_c, 0, 91, 88
2, 173132, Note_on_c, 0, 46, 62
2, 173136, Note_on_c, 0, 80, 51
2, 173152, Note_on_c, 0, 80, 0
2, 173172, Note_on_c, 0, 82, 0
2, 173184, Note_on_c, 0, 91, 0
2, 173228, Note_on_c, 0, 46, 0
2, 173228, Note_on_c, 0, 92, 97
2, 173232, Note_on_c, 0, 84, 71
2, 173260, Note_on_c, 0, 84, 0
2, 173276, Note_on_c, 0, 92, 0
2, 173296, Note_on_c, 0, 61, 44
2, 173328, Note_on_c, 0, 94, 93
2, 173332, Note_on_c, 0, 85, 69
2, 173356, Note_on_c, 0, 85, 0
2, 173384, Note_on_c, 0, 94, 0
2, 173416, Note_on_c, 0, 61, 0
2, 173420, Note_on_c, 0, 96, 96
2, 173420, Note_on_c, 0, 87, 72
2, 173428, Note_on_c, 0, 55, 58
2, 173460, Note_on_c, 0, 87, 0
2, 173464, Note_on_c, 0, 96, 0
2, 173532, Note_on_c, 0, 97, 89
2, 173536, Control_c, 0, 64, 56
2, 173540, Note_on_c, 0, 89, 77
2, 173544, Control_c, 0, 64, 0
2, 173552, Note_on_c, 0, 51, 66
2, 173564, Control_c, 0, 64, 24
2, 173572, Control_c, 0, 64, 72
2, 173580, Control_c, 0, 64, 127
2, 173604, Note_on_c, 0, 89, 0
2, 173608, Note_on_c, 0, 55, 0
2, 173608, Note_on_c, 0, 97, 0
2, 173632, Note_on_c, 0, 94, 74
2, 173640, Note_on_c, 0, 85, 65
2, 173676, Note_on_c, 0, 85, 0
2, 173676, Note_on_c, 0, 94, 0
2, 173676, Note_on_c, 0, 61, 29
2, 173732, Note_on_c, 0, 91, 93
2, 173736, Note_on_c, 0, 82, 81
2, 173768, Note_on_c, 0, 82, 0
2, 173772, Note_on_c, 0, 91, 0
2, 173800, Note_on_c, 0, 51, 0
2, 173816, Note_on_c, 0, 55, 50
2, 173836, Note_on_c, 0, 87, 88
2, 173840, Note_on_c, 0, 79, 77
2, 173856, Note_on_c, 0, 61, 0
2, 173864, Note_on_c, 0, 79, 0
2, 173880, Note_on_c, 0, 87, 0
2, 173940, Note_on_c, 0, 55, 0
2, 173948, Note_on_c, 0, 85, 85
2, 173956, Note_on_c, 0, 46, 64
2, 173956, Note_on_c, 0, 77, 80
2, 174020, Note_on_c, 0, 85, 0
2, 174036, Note_on_c, 0, 77, 0
2, 174068, Note_on_c, 0, 82, 81
2, 174072, Note_on_c, 0, 73, 64
2, 174120, Note_on_c, 0, 73, 0
2, 174140, Note_on_c, 0, 82, 0
2, 174140, Note_on_c, 0, 46, 0
2, 174176, Note_on_c, 0, 61, 44
2, 174188, Note_on_c, 0, 70, 58
2, 174188, Note_on_c, 0, 79, 86
2, 174232, Note_on_c, 0, 79, 0
2, 174236, Note_on_c, 0, 70, 0
2, 174304, Note_on_c, 0, 55, 51
2, 174308, Note_on_c, 0, 61, 0
2, 174316, Note_on_c, 0, 75, 87
2, 174336, Note_on_c, 0, 67, 59
2, 174356, Note_on_c, 0, 55, 0
2, 174368, Note_on_c, 0, 67, 0
2, 174424, Note_on_c, 0, 75, 0
2, 174476, Note_on_c, 0, 77, 87
2, 174488, Note_on_c, 0, 68, 59
2, 174492, Note_on_c, 0, 72, 59
2, 174520, Control_c, 0, 64, 24
2, 174528, Control_c, 0, 64, 0
2, 174532, Note_on_c, 0, 44, 70
2, 174592, Control_c, 0, 64, 104
2, 174604, Control_c, 0, 64, 127
2, 174608, Note_on_c, 0, 44, 0
2, 174664, Note_on_c, 0, 60, 60
2, 174748, Note_on_c, 0, 56, 50
2, 174752, Note_on_c, 0, 60, 0
2, 174840, Note_on_c, 0, 56, 0
2, 174864, Note_on_c, 0, 51, 54
2, 174880, Note_on_c, 0, 68, 0
2, 174976, Note_on_c, 0, 60, 50
2, 175044, Note_on_c, 0, 72, 0
2, 175080, Note_on_c, 0, 60, 0
2, 175088, Note_on_c, 0, 56, 50
2, 175092, Note_on_c, 0, 51, 0
2, 175192, Note_on_c, 0, 56, 0
2, 175212, Note_on_c, 0, 51, 69
2, 175268, Note_on_c, 0, 77, 0
2, 175296, Note_on_c, 0, 75, 73
2, 175308, Note_on_c, 0, 72, 75
2, 175324, Note_on_c, 0, 51, 0
2, 175364, Note_on_c, 0, 63, 34
2, 175372, Note_on_c, 0, 72, 0
2, 175372, Note_on_c, 0, 75, 0
2, 175392, Note_on_c, 0, 71, 66
2, 175400, Note_on_c, 0, 74, 80
2, 175456, Note_on_c, 0, 74, 0
2, 175456, Note_on_c, 0, 71, 0
2, 175480, Note_on_c, 0, 75, 78
2, 175488, Note_on_c, 0, 72, 79
2, 175496, Note_on_c, 0, 63, 0
2, 175496, Note_on_c, 0, 60, 51
2, 175552, Note_on_c, 0, 72, 0
2, 175568, Note_on_c, 0, 75, 0
2, 175584, Note_on_c, 0, 60, 0
2, 175588, Note_on_c, 0, 74, 80
2, 175592, Note_on_c, 0, 71, 62
2, 175600, Note_on_c, 0, 56, 56
2, 175604, Control_c, 0, 64, 88
2, 175616, Control_c, 0, 64, 72
2, 175624, Control_c, 0, 64, 88
2, 175636, Control_c, 0, 64, 127
2, 175656, Note_on_c, 0, 71, 0
2, 175656, Note_on_c, 0, 74, 0
2, 175680, Note_on_c, 0, 75, 77
2, 175692, Note_on_c, 0, 72, 78
2, 175716, Note_on_c, 0, 63, 40
2, 175736, Note_on_c, 0, 72, 0
2, 175756, Note_on_c, 0, 75, 0
2, 175784, Note_on_c, 0, 73, 67
2, 175784, Note_on_c, 0, 77, 86
2, 175820, Note_on_c, 0, 56, 0
2, 175844, Note_on_c, 0, 77, 0
2, 175844, Note_on_c, 0, 60, 42
2, 175852, Note_on_c, 0, 73, 0
2, 175852, Note_on_c, 0, 63, 0
2, 175880, Note_on_c, 0, 75, 85
2, 175888, Note_on_c, 0, 72, 87
2, 175892, Note_on_c, 0, 60, 0
2, 175932, Note_on_c, 0, 72, 0
2, 175996, Note_on_c, 0, 75, 0
2, 176040, Note_on_c, 0, 72, 86
2, 176044, Note_on_c, 0, 68, 48
2, 176064, Control_c, 0, 64, 72
2, 176072, Note_on_c, 0, 44, 58
2, 176072, Control_c, 0, 64, 0
2, 176128, Control_c, 0, 64, 72
2, 176136, Control_c, 0, 64, 127
2, 176140, Note_on_c, 0, 44, 0
2, 176212, Note_on_c, 0, 60, 50
2, 176232, Note_on_c, 0, 68, 0
2, 176308, Note_on_c, 0, 60, 0
2, 176308, Note_on_c, 0, 56, 50
2, 176396, Note_on_c, 0, 56, 0
2, 176424, Note_on_c, 0, 51, 63
2, 176540, Note_on_c, 0, 60, 50
2, 176628, Note_on_c, 0, 51, 0
2, 176640, Note_on_c, 0, 60, 0
2, 176644, Note_on_c, 0, 56, 44
2, 176752, Note_on_c, 0, 56, 0
2, 176776, Note_on_c, 0, 51, 62
2, 176876, Note_on_c, 0, 51, 0
2, 176896, Note_on_c, 0, 63, 36
2, 176916, Note_on_c, 0, 72, 0
2, 177016, Note_on_c, 0, 63, 0
2, 177028, Note_on_c, 0, 60, 55
2, 177136, Note_on_c, 0, 60, 0
2, 177156, Note_on_c, 0, 84, 94
2, 177164, Note_on_c, 0, 72, 69
2, 177172, Note_on_c, 0, 56, 46
2, 177284, Note_on_c, 0, 72, 0
2, 177288, Note_on_c, 0, 63, 46
2, 177412, Note_on_c, 0, 60, 51
2, 177416, Note_on_c, 0, 63, 0
2, 177416, Note_on_c, 0, 56, 0
2, 177432, Note_on_c, 0, 60, 0
2, 177556, Note_on_c, 0, 84, 0
2, 177568, Control_c, 0, 64, 88
2, 177576, Control_c, 0, 64, 24
2, 177580, Note_on_c, 0, 72, 82
2, 177588, Control_c, 0, 64, 0
2, 177604, Note_on_c, 0, 36, 65
2, 177616, Control_c, 0, 64, 24
2, 177624, Control_c, 0, 64, 104
2, 177632, Control_c, 0, 64, 127
2, 177648, Note_on_c, 0, 72, 0
2, 177692, Note_on_c, 0, 88, 89
2, 177752, Note_on_c, 0, 88, 0
2, 177772, Note_on_c, 0, 36, 0
2, 177784, Note_on_c, 0, 74, 89
2, 177792, Note_on_c, 0, 64, 63
2, 177836, Note_on_c, 0, 74, 0
2, 177876, Note_on_c, 0, 89, 83
2, 177880, Note_on_c, 0, 88, 58
2, 177892, Note_on_c, 0, 58, 54
2, 177900, Note_on_c, 0, 88, 0
2, 177916, Note_on_c, 0, 89, 0
2, 177936, Note_on_c, 0, 64, 0
2, 177972, Note_on_c, 0, 75, 95
2, 178000, Note_on_c, 0, 58, 0
2, 178000, Note_on_c, 0, 52, 66
2, 178028, Note_on_c, 0, 75, 0
2, 178060, Note_on_c, 0, 90, 89
2, 178120, Note_on_c, 0, 90, 0
2, 178136, Note_on_c, 0, 52, 0
2, 178148, Note_on_c, 0, 76, 94
2, 178148, Note_on_c, 0, 64, 51
2, 178200, Note_on_c, 0, 76, 0
2, 178240, Note_on_c, 0, 91, 86
2, 178256, Note_on_c, 0, 58, 43
2, 178272, Note_on_c, 0, 64, 0
2, 178288, Note_on_c, 0, 91, 0
2, 178328, Note_on_c, 0, 77, 93
2, 178356, Note_on_c, 0, 58, 0
2, 178356, Control_c, 0, 64, 88
2, 178360, Note_on_c, 0, 55, 69
2, 178368, Control_c, 0, 64, 72
2, 178376, Control_c, 0, 64, 88
2, 178384, Note_on_c, 0, 77, 0
2, 178384, Control_c, 0, 64, 127
2, 178420, Note_on_c, 0, 92, 92
2, 178488, Note_on_c, 0, 92, 0
2, 178504, Note_on_c, 0, 78, 92
2, 178508, Note_on_c, 0, 64, 50
2, 178548, Note_on_c, 0, 55, 0
2, 178560, Note_on_c, 0, 78, 0
2, 178592, Note_on_c, 0, 58, 47
2, 178600, Note_on_c, 0, 93, 109
2, 178660, Note_on_c, 0, 93, 0
2, 178672, Note_on_c, 0, 64, 0
2, 178688, Note_on_c, 0, 79, 96
2, 178708, Note_on_c, 0, 58, 0
2, 178728, Note_on_c, 0, 55, 55
2, 178740, Note_on_c, 0, 79, 0
2, 178780, Note_on_c, 0, 94, 92
2, 178856, Note_on_c, 0, 94, 0
2, 178856, Note_on_c, 0, 64, 37
2, 178876, Note_on_c, 0, 80, 94
2, 178940, Note_on_c, 0, 80, 0
2, 178952, Note_on_c, 0, 55, 0
2, 178956, Note_on_c, 0, 64, 0
2, 178956, Note_on_c, 0, 58, 63
2, 178972, Note_on_c, 0, 95, 96
2, 179040, Note_on_c, 0, 95, 0
2, 179064, Note_on_c, 0, 81, 97
2, 179072, Note_on_c, 0, 58, 0
2, 179072, Control_c, 0, 64, 88
2, 179084, Note_on_c, 0, 48, 75
2, 179084, Control_c, 0, 64, 40
2, 179112, Control_c, 0, 64, 127
2, 179116, Note_on_c, 0, 81, 0
2, 179144, Note_on_c, 0, 48, 0
2, 179156, Note_on_c, 0, 96, 102
2, 179208, Note_on_c, 0, 96, 0
2, 179228, Note_on_c, 0, 64, 55
2, 179248, Note_on_c, 0, 82, 95
2, 179312, Note_on_c, 0, 82, 0
2, 179332, Note_on_c, 0, 97, 109
2, 179340, Note_on_c, 0, 58, 54
2, 179348, Note_on_c, 0, 64, 0
2, 179412, Note_on_c, 0, 97, 0
2, 179436, Note_on_c, 0, 58, 0
2, 179440, Note_on_c, 0, 84, 97
2, 179452, Note_on_c, 0, 55, 78
2, 179504, Note_on_c, 0, 84, 0
2, 179540, Note_on_c, 0, 99, 106
2, 179576, Note_on_c, 0, 64, 55
2, 179596, Note_on_c, 0, 99, 0
2, 179636, Note_on_c, 0, 82, 105
2, 179668, Note_on_c, 0, 55, 0
2, 179680, Note_on_c, 0, 58, 50
2, 179688, Note_on_c, 0, 82, 0
2, 179720, Note_on_c, 0, 97, 96
2, 179772, Note_on_c, 0, 97, 0
2, 179788, Note_on_c, 0, 64, 0
2, 179808, Note_on_c, 0, 80, 97
2, 179824, Note_on_c, 0, 58, 0
2, 179836, Note_on_c, 0, 52, 58
2, 179852, Note_on_c, 0, 80, 0
2, 179912, Note_on_c, 0, 96, 102
2, 179952, Note_on_c, 0, 96, 0
2, 180000, Note_on_c, 0, 64, 51
2, 180004, Note_on_c, 0, 79, 89
2, 180048, Note_on_c, 0, 79, 0
2, 180084, Note_on_c, 0, 52, 0
2, 180100, Note_on_c, 0, 94, 101
2, 180104, Note_on_c, 0, 58, 54
2, 180116, Note_on_c, 0, 64, 0
2, 180144, Note_on_c, 0, 94, 0
2, 180200, Note_on_c, 0, 77, 103
2, 180208, Control_c, 0, 64, 88
2, 180216, Control_c, 0, 64, 40
2, 180224, Note_on_c, 0, 48, 82
2, 180232, Note_on_c, 0, 58, 0
2, 180236, Control_c, 0, 64, 88
2, 180244, Control_c, 0, 64, 127
2, 180256, Note_on_c, 0, 77, 0
2, 180284, Note_on_c, 0, 48, 0
2, 180300, Note_on_c, 0, 92, 108
2, 180352, Note_on_c, 0, 92, 0
2, 180380, Note_on_c, 0, 64, 60
2, 180400, Note_on_c, 0, 76, 101
2, 180452, Note_on_c, 0, 76, 0
2, 180512, Note_on_c, 0, 91, 106
2, 180520, Note_on_c, 0, 58, 63
2, 180536, Note_on_c, 0, 64, 0
2, 180564, Note_on_c, 0, 91, 0
2, 180568, Note_on_c, 0, 58, 0
2, 180704, Note_on_c, 0, 94, 115
2, 180708, Note_on_c, 0, 82, 88
2, 180712, Note_on_c, 0, 85, 77
2, 180712, Note_on_c, 0, 88, 92
2, 180732, Note_on_c, 0, 41, 78
2, 180736, Control_c, 0, 64, 40
2, 180748, Control_c, 0, 64, 0
2, 180792, Control_c, 0, 64, 72
2, 180800, Control_c, 0, 64, 127
2, 180896, Note_on_c, 0, 64, 60
2, 180944, Note_on_c, 0, 41, 0
2, 180964, Note_on_c, 0, 64, 0
2, 180988, Note_on_c, 0, 61, 71
2, 181080, Note_on_c, 0, 61, 0
2, 181112, Note_on_c, 0, 55, 69
2, 181136, Note_on_c, 0, 53, 62
2, 181236, Note_on_c, 0, 53, 0
2, 181236, Note_on_c, 0, 55, 0
2, 181240, Note_on_c, 0, 64, 58
2, 181324, Note_on_c, 0, 64, 0
2, 181368, Note_on_c, 0, 61, 58
2, 181436, Note_on_c, 0, 61, 0
2, 181496, Note_on_c, 0, 58, 75
2, 181504, Note_on_c, 0, 85, 0
2, 181508, Note_on_c, 0, 94, 0
2, 181520, Note_on_c, 0, 82, 0
2, 181540, Note_on_c, 0, 88, 0
2, 181604, Note_on_c, 0, 93, 113
2, 181612, Note_on_c, 0, 85, 81
2, 181616, Note_on_c, 0, 58, 0
2, 181616, Note_on_c, 0, 81, 80
2, 181624, Note_on_c, 0, 64, 60
2, 181656, Note_on_c, 0, 81, 0
2, 181672, Note_on_c, 0, 93, 0
2, 181696, Note_on_c, 0, 85, 0
2, 181708, Note_on_c, 0, 64, 0
2, 181748, Note_on_c, 0, 61, 60
2, 181752, Note_on_c, 0, 94, 110
2, 181756, Note_on_c, 0, 85, 90
2, 181760, Note_on_c, 0, 82, 89
2, 181832, Note_on_c, 0, 82, 0
2, 181836, Note_on_c, 0, 85, 0
2, 181836, Note_on_c, 0, 94, 0
2, 181848, Note_on_c, 0, 61, 0
2, 181884, Note_on_c, 0, 55, 74
2, 181884, Note_on_c, 0, 93, 121
2, 181888, Note_on_c, 0, 85, 81
2, 181888, Note_on_c, 0, 81, 94
2, 181900, Note_on_c, 0, 53, 69
2, 181940, Note_on_c, 0, 81, 0
2, 181952, Note_on_c, 0, 93, 0
2, 181968, Note_on_c, 0, 85, 0
2, 181996, Note_on_c, 0, 64, 58
2, 182008, Note_on_c, 0, 94, 117
2, 182012, Note_on_c, 0, 85, 93
2, 182016, Note_on_c, 0, 82, 101
2, 182092, Note_on_c, 0, 82, 0
2, 182092, Note_on_c, 0, 85, 0
2, 182096, Note_on_c, 0, 94, 0
2, 182120, Note_on_c, 0, 64, 0
2, 182120, Note_on_c, 0, 55, 0
2, 182124, Note_on_c, 0, 61, 50
2, 182132, Note_on_c, 0, 93, 124
2, 182136, Note_on_c, 0, 85, 80
2, 182140, Note_on_c, 0, 81, 95
2, 182144, Note_on_c, 0, 58, 31
2, 182152, Note_on_c, 0, 53, 0
2, 182164, Note_on_c, 0, 61, 0
2, 182168, Note_on_c, 0, 58, 0
2, 182212, Note_on_c, 0, 93, 0
2, 182220, Note_on_c, 0, 81, 0
2, 182220, Note_on_c, 0, 85, 0
2, 182324, Note_on_c, 0, 92, 108
2, 182332, Note_on_c, 0, 80, 83
2, 182336, Note_on_c, 0, 84, 93
2, 182344, Control_c, 0, 64, 104
2, 182356, Control_c, 0, 64, 0
2, 182364, Note_on_c, 0, 41, 78
2, 182428, Note_on_c, 0, 41, 0
2, 182428, Control_c, 0, 64, 127
2, 182532, Note_on_c, 0, 65, 41
2, 182576, Note_on_c, 0, 65, 0
2, 182620, Note_on_c, 0, 60, 60
2, 182712, Note_on_c, 0, 60, 0
2, 182736, Note_on_c, 0, 53, 67
2, 182860, Note_on_c, 0, 65, 51
2, 182968, Note_on_c, 0, 65, 0
2, 182984, Note_on_c, 0, 60, 51
2, 183056, Note_on_c, 0, 53, 0
2, 183092, Note_on_c, 0, 56, 66
2, 183096, Note_on_c, 0, 60, 0
2, 183220, Note_on_c, 0, 65, 54
2, 183332, Note_on_c, 0, 65, 0
2, 183336, Note_on_c, 0, 56, 0
2, 183344, Note_on_c, 0, 60, 55
2, 183448, Note_on_c, 0, 84, 0
2, 183448, Note_on_c, 0, 80, 0
2, 183456, Note_on_c, 0, 60, 0
2, 183460, Note_on_c, 0, 92, 0
2, 183484, Note_on_c, 0, 53, 62
2, 183612, Note_on_c, 0, 65, 55
2, 183748, Note_on_c, 0, 65, 0
2, 183764, Note_on_c, 0, 60, 51
2, 183824, Note_on_c, 0, 53, 0
2, 183856, Note_on_c, 0, 60, 0
2, 184068, Note_on_c, 0, 77, 93
2, 184076, Note_on_c, 0, 68, 49
2, 184084, Control_c, 0, 64, 104
2, 184092, Control_c, 0, 64, 0
2, 184100, Note_on_c, 0, 44, 56
2, 184156, Control_c, 0, 64, 127
2, 184220, Note_on_c, 0, 44, 0
2, 184284, Note_on_c, 0, 65, 49
2, 184296, Note_on_c, 0, 68, 0
2, 184300, Note_on_c, 0, 77, 0
2, 184396, Note_on_c, 0, 77, 93
2, 184408, Note_on_c, 0, 65, 0
2, 184408, Note_on_c, 0, 68, 48
2, 184408, Note_on_c, 0, 60, 47
2, 184480, Note_on_c, 0, 68, 0
2, 184516, Note_on_c, 0, 77, 0
2, 184520, Note_on_c, 0, 60, 0
2, 184524, Note_on_c, 0, 56, 63
2, 184652, Note_on_c, 0, 77, 97
2, 184660, Note_on_c, 0, 68, 56
2, 184688, Note_on_c, 0, 65, 43
2, 184704, Note_on_c, 0, 56, 0
2, 184756, Note_on_c, 0, 68, 0
2, 184768, Note_on_c, 0, 77, 0
2, 184804, Note_on_c, 0, 60, 54
2, 184932, Note_on_c, 0, 65, 0
2, 184936, Note_on_c, 0, 79, 93
2, 184944, Note_on_c, 0, 70, 66
2, 184952, Note_on_c, 0, 60, 0
2, 184968, Note_on_c, 0, 56, 54
2, 185048, Control_c, 0, 64, 40
2, 185060, Control_c, 0, 64, 0
2, 185092, Note_on_c, 0, 65, 56
2, 185096, Control_c, 0, 64, 127
2, 185212, Note_on_c, 0, 79, 0
2, 185224, Note_on_c, 0, 70, 0
2, 185240, Note_on_c, 0, 60, 51
2, 185432, Note_on_c, 0, 65, 0
2, 185452, Note_on_c, 0, 56, 0
2, 185492, Note_on_c, 0, 60, 0
2, 185700, Note_on_c, 0, 77, 78
2, 185704, Note_on_c, 0, 68, 43
2, 185816, Note_on_c, 0, 68, 0
2, 185820, Note_on_c, 0, 77, 0
2, 185924, Note_on_c, 0, 75, 78
2, 185932, Note_on_c, 0, 67, 54
2, 185952, Note_on_c, 0, 46, 62
2, 185952, Control_c, 0, 64, 56
2, 185960, Control_c, 0, 64, 0
2, 186016, Control_c, 0, 64, 127
2, 186036, Note_on_c, 0, 46, 0
2, 186132, Note_on_c, 0, 63, 46
2, 186156, Note_on_c, 0, 67, 0
2, 186172, Note_on_c, 0, 75, 0
2, 186232, Note_on_c, 0, 75, 82
2, 186244, Note_on_c, 0, 67, 48
2, 186256, Note_on_c, 0, 58, 42
2, 186320, Note_on_c, 0, 63, 0
2, 186348, Note_on_c, 0, 58, 0
2, 186360, Note_on_c, 0, 55, 62
2, 186368, Note_on_c, 0, 67, 0
2, 186388, Note_on_c, 0, 75, 0
2, 186492, Note_on_c, 0, 63, 42
2, 186496, Note_on_c, 0, 75, 87
2, 186512, Note_on_c, 0, 67, 54
2, 186520, Note_on_c, 0, 55, 0
2, 186612, Note_on_c, 0, 58, 52
2, 186628, Note_on_c, 0, 63, 0
2, 186652, Note_on_c, 0, 67, 0
2, 186704, Note_on_c, 0, 75, 0
2, 186764, Note_on_c, 0, 58, 0
2, 186772, Note_on_c, 0, 77, 86
2, 186776, Note_on_c, 0, 68, 66
2, 186788, Note_on_c, 0, 55, 51
2, 186904, Note_on_c, 0, 63, 50
2, 187064, Note_on_c, 0, 58, 44
2, 187244, Note_on_c, 0, 55, 0
2, 187248, Note_on_c, 0, 63, 0
2, 187284, Note_on_c, 0, 58, 0
2, 187400, Note_on_c, 0, 68, 0
2, 187416, Note_on_c, 0, 77, 0
2, 187536, Note_on_c, 0, 75, 77
2, 187556, Note_on_c, 0, 67, 49
2, 187616, Note_on_c, 0, 75, 0
2, 187624, Note_on_c, 0, 67, 0
2, 187760, Note_on_c, 0, 74, 81
2, 187768, Note_on_c, 0, 68, 49
2, 187772, Control_c, 0, 64, 56
2, 187776, Note_on_c, 0, 65, 39
2, 187780, Control_c, 0, 64, 0
2, 187788, Note_on_c, 0, 47, 62
2, 187840, Control_c, 0, 64, 72
2, 187848, Control_c, 0, 64, 127
2, 187936, Note_on_c, 0, 47, 0
2, 187952, Note_on_c, 0, 65, 0
2, 187960, Note_on_c, 0, 62, 46
2, 187988, Note_on_c, 0, 68, 0
2, 187988, Note_on_c, 0, 74, 0
2, 188052, Note_on_c, 0, 74, 87
2, 188060, Note_on_c, 0, 68, 55
2, 188064, Note_on_c, 0, 65, 48
2, 188096, Note_on_c, 0, 56, 42
2, 188120, Note_on_c, 0, 62, 0
2, 188188, Note_on_c, 0, 65, 0
2, 188204, Note_on_c, 0, 56, 0
2, 188212, Note_on_c, 0, 74, 0
2, 188216, Note_on_c, 0, 53, 59
2, 188228, Note_on_c, 0, 68, 0
2, 188324, Note_on_c, 0, 74, 85
2, 188332, Note_on_c, 0, 68, 57
2, 188336, Note_on_c, 0, 65, 52
2, 188348, Note_on_c, 0, 62, 57
2, 188452, Note_on_c, 0, 53, 0
2, 188460, Note_on_c, 0, 56, 60
2, 188480, Note_on_c, 0, 65, 0
2, 188520, Note_on_c, 0, 68, 0
2, 188524, Note_on_c, 0, 62, 0
2, 188548, Note_on_c, 0, 74, 0
2, 188600, Note_on_c, 0, 73, 87
2, 188604, Note_on_c, 0, 56, 0
2, 188608, Note_on_c, 0, 68, 58
2, 188616, Note_on_c, 0, 64, 58
2, 188628, Note_on_c, 0, 53, 54
2, 188740, Note_on_c, 0, 62, 58
2, 188824, Note_on_c, 0, 64, 0
2, 188884, Note_on_c, 0, 56, 44
2, 188924, Note_on_c, 0, 53, 0
2, 188936, Note_on_c, 0, 62, 0
2, 188968, Note_on_c, 0, 56, 0
2, 189212, Note_on_c, 0, 73, 0
2, 189320, Note_on_c, 0, 68, 0
2, 189324, Note_on_c, 0, 74, 80
2, 189328, Note_on_c, 0, 65, 62
2, 189372, Note_on_c, 0, 65, 0
2, 189388, Note_on_c, 0, 74, 0
2, 189536, Note_on_c, 0, 66, 69
2, 189596, Note_on_c, 0, 69, 78
2, 189704, Note_on_c, 0, 69, 0
2, 189732, Note_on_c, 0, 77, 90
2, 189736, Note_on_c, 0, 66, 0
2, 189780, Control_c, 0, 64, 104
2, 189788, Control_c, 0, 64, 24
2, 189796, Control_c, 0, 64, 0
2, 189892, Control_c, 0, 64, 72
2, 189900, Control_c, 0, 64, 127
2, 190116, Note_on_c, 0, 48, 63
2, 190144, Note_on_c, 0, 48, 0
2, 190256, Note_on_c, 0, 62, 41
2, 190404, Note_on_c, 0, 57, 35
2, 190496, Note_on_c, 0, 77, 0
2, 190504, Note_on_c, 0, 62, 0
2, 190524, Note_on_c, 0, 57, 0
2, 190532, Note_on_c, 0, 75, 77
2, 190548, Note_on_c, 0, 54, 39
2, 190664, Note_on_c, 0, 63, 43
2, 190760, Note_on_c, 0, 54, 0
2, 190784, Note_on_c, 0, 57, 48
2, 190800, Note_on_c, 0, 63, 0
2, 190892, Note_on_c, 0, 57, 0
2, 190900, Note_on_c, 0, 54, 51
2, 191016, Note_on_c, 0, 64, 63
2, 191100, Note_on_c, 0, 54, 0
2, 191140, Note_on_c, 0, 57, 50
2, 191248, Note_on_c, 0, 57, 0
2, 191256, Note_on_c, 0, 54, 48
2, 191260, Note_on_c, 0, 64, 0
2, 191280, Note_on_c, 0, 75, 0
2, 191368, Note_on_c, 0, 65, 75
2, 191480, Note_on_c, 0, 54, 0
2, 191492, Note_on_c, 0, 57, 51
2, 191516, Note_on_c, 0, 65, 0
2, 191588, Note_on_c, 0, 57, 0
2, 191616, Note_on_c, 0, 54, 40
2, 191732, Note_on_c, 0, 66, 79
2, 191836, Note_on_c, 0, 54, 0
2, 191852, Note_on_c, 0, 57, 48
2, 191868, Note_on_c, 0, 66, 0
2, 191964, Note_on_c, 0, 57, 0
2, 191976, Note_on_c, 0, 54, 39
2, 192088, Note_on_c, 0, 62, 69
2, 192196, Note_on_c, 0, 54, 0
2, 192236, Note_on_c, 0, 57, 27
2, 192352, Note_on_c, 0, 57, 0
2, 192356, Note_on_c, 0, 62, 0
2, 192360, Note_on_c, 0, 54, 34
2, 192492, Note_on_c, 0, 63, 51
2, 192656, Note_on_c, 0, 57, 33
2, 192720, Note_on_c, 0, 63, 0
2, 192728, Note_on_c, 0, 57, 0
2, 192752, Note_on_c, 0, 54, 0
2, 192920, Note_on_c, 0, 82, 88
2, 192920, Note_on_c, 0, 49, 54
2, 192920, Note_on_c, 0, 73, 57
2, 192956, Control_c, 0, 64, 72
2, 192968, Control_c, 0, 64, 0
2, 193004, Note_on_c, 0, 49, 0
2, 193032, Control_c, 0, 64, 88
2, 193040, Control_c, 0, 64, 127
2, 193152, Note_on_c, 0, 66, 51
2, 193156, Note_on_c, 0, 73, 0
2, 193176, Note_on_c, 0, 82, 0
2, 193268, Note_on_c, 0, 82, 85
2, 193276, Note_on_c, 0, 73, 65
2, 193280, Note_on_c, 0, 61, 51
2, 193380, Note_on_c, 0, 61, 0
2, 193384, Note_on_c, 0, 66, 0
2, 193404, Note_on_c, 0, 58, 54
2, 193416, Note_on_c, 0, 73, 0
2, 193452, Note_on_c, 0, 82, 0
2, 193536, Note_on_c, 0, 82, 83
2, 193544, Note_on_c, 0, 73, 63
2, 193548, Note_on_c, 0, 66, 52
2, 193560, Note_on_c, 0, 58, 0
2, 193652, Note_on_c, 0, 73, 0
2, 193672, Note_on_c, 0, 61, 54
2, 193680, Note_on_c, 0, 66, 0
2, 193708, Note_on_c, 0, 82, 0
2, 193816, Note_on_c, 0, 83, 88
2, 193824, Note_on_c, 0, 61, 0
2, 193824, Note_on_c, 0, 75, 58
2, 193844, Note_on_c, 0, 58, 52
2, 193960, Note_on_c, 0, 66, 56
2, 194096, Note_on_c, 0, 61, 52
2, 194272, Note_on_c, 0, 66, 0
2, 194304, Note_on_c, 0, 58, 0
2, 194304, Note_on_c, 0, 61, 0
2, 194324, Note_on_c, 0, 83, 0
2, 194344, Note_on_c, 0, 75, 0
2, 194552, Note_on_c, 0, 82, 73
2, 194560, Note_on_c, 0, 73, 56
2, 194684, Note_on_c, 0, 73, 0
2, 194728, Note_on_c, 0, 82, 0
2, 194784, Note_on_c, 0, 80, 81
2, 194784, Note_on_c, 0, 71, 51
2, 194784, Note_on_c, 0, 50, 58
2, 194808, Control_c, 0, 64, 56
2, 194816, Control_c, 0, 64, 0
2, 194840, Note_on_c, 0, 50, 0
2, 194872, Control_c, 0, 64, 127
2, 194936, Note_on_c, 0, 71, 0
2, 194988, Note_on_c, 0, 68, 57
2, 194996, Note_on_c, 0, 80, 0
2, 195088, Note_on_c, 0, 80, 94
2, 195100, Note_on_c, 0, 71, 66
2, 195112, Note_on_c, 0, 68, 0
2, 195112, Note_on_c, 0, 65, 52
2, 195204, Note_on_c, 0, 71, 0
2, 195208, Note_on_c, 0, 65, 0
2, 195224, Note_on_c, 0, 59, 55
2, 195252, Note_on_c, 0, 80, 0
2, 195348, Note_on_c, 0, 80, 98
2, 195348, Note_on_c, 0, 68, 52
2, 195364, Note_on_c, 0, 71, 67
2, 195428, Note_on_c, 0, 59, 0
2, 195480, Note_on_c, 0, 65, 51
2, 195484, Note_on_c, 0, 68, 0
2, 195584, Note_on_c, 0, 71, 0
2, 195608, Note_on_c, 0, 65, 0
2, 195616, Note_on_c, 0, 59, 55
2, 195620, Note_on_c, 0, 80, 0
2, 195660, Note_on_c, 0, 82, 88
2, 195676, Note_on_c, 0, 73, 66
2, 195808, Note_on_c, 0, 68, 52
2, 196000, Note_on_c, 0, 65, 54
2, 196124, Note_on_c, 0, 59, 0
2, 196152, Note_on_c, 0, 68, 0
2, 196172, Note_on_c, 0, 65, 0
2, 196300, Note_on_c, 0, 73, 0
2, 196436, Note_on_c, 0, 82, 0
2, 196476, Note_on_c, 0, 80, 69
2, 196492, Note_on_c, 0, 71, 56
2, 196548, Note_on_c, 0, 71, 0
2, 196704, Note_on_c, 0, 78, 77
2, 196704, Note_on_c, 0, 70, 52
2, 196704, Note_on_c, 0, 51, 60
2, 196708, Note_on_c, 0, 80, 0
2, 196732, Control_c, 0, 64, 24
2, 196740, Control_c, 0, 64, 0
2, 196772, Note_on_c, 0, 51, 0
2, 196784, Control_c, 0, 64, 56
2, 196796, Control_c, 0, 64, 127
2, 196872, Note_on_c, 0, 70, 0
2, 196904, Note_on_c, 0, 78, 0
2, 196912, Note_on_c, 0, 66, 51
2, 197012, Note_on_c, 0, 78, 83
2, 197024, Note_on_c, 0, 70, 56
2, 197032, Note_on_c, 0, 63, 50
2, 197096, Note_on_c, 0, 70, 0
2, 197136, Note_on_c, 0, 63, 0
2, 197152, Note_on_c, 0, 58, 54
2, 197156, Note_on_c, 0, 78, 0
2, 197192, Note_on_c, 0, 66, 0
2, 197288, Note_on_c, 0, 66, 52
2, 197292, Note_on_c, 0, 78, 81
2, 197304, Note_on_c, 0, 70, 52
2, 197352, Note_on_c, 0, 58, 0
2, 197428, Note_on_c, 0, 63, 52
2, 197460, Note_on_c, 0, 70, 0
2, 197500, Note_on_c, 0, 66, 0
2, 197544, Note_on_c, 0, 78, 0
2, 197580, Note_on_c, 0, 77, 87
2, 197584, Note_on_c, 0, 63, 0
2, 197584, Note_on_c, 0, 58, 52
2, 197588, Note_on_c, 0, 69, 55
2, 197728, Note_on_c, 0, 66, 51
2, 197852, Note_on_c, 0, 69, 0
2, 197880, Note_on_c, 0, 63, 49
2, 198056, Note_on_c, 0, 66, 0
2, 198072, Note_on_c, 0, 63, 0
2, 198072, Note_on_c, 0, 58, 0
2, 198148, Note_on_c, 0, 77, 0
2, 198284, Note_on_c, 0, 78, 73
2, 198292, Note_on_c, 0, 70, 50
2, 198332, Note_on_c, 0, 70, 0
2, 198364, Note_on_c, 0, 78, 0
2, 198500, Note_on_c, 0, 69, 63
2, 198560, Note_on_c, 0, 72, 74
2, 198680, Note_on_c, 0, 80, 86
2, 198812, Control_c, 0, 64, 24
2, 198820, Control_c, 0, 64, 0
2, 198888, Control_c, 0, 64, 127
2, 199016, Note_on_c, 0, 51, 55
2, 199088, Note_on_c, 0, 51, 0
2, 199144, Note_on_c, 0, 65, 51
2, 199264, Note_on_c, 0, 65, 0
2, 199264, Note_on_c, 0, 60, 58
2, 199292, Note_on_c, 0, 60, 0
2, 199372, Note_on_c, 0, 80, 0
2, 199396, Note_on_c, 0, 78, 79
2, 199428, Note_on_c, 0, 57, 50
2, 199516, Note_on_c, 0, 66, 58
2, 199608, Note_on_c, 0, 57, 0
2, 199640, Note_on_c, 0, 60, 49
2, 199672, Note_on_c, 0, 69, 0
2, 199696, Note_on_c, 0, 72, 0
2, 199728, Note_on_c, 0, 78, 0
2, 199740, Note_on_c, 0, 60, 0
2, 199760, Note_on_c, 0, 57, 48
2, 199792, Note_on_c, 0, 66, 0
2, 199864, Note_on_c, 0, 68, 71
2, 199988, Note_on_c, 0, 57, 0
2, 199996, Note_on_c, 0, 60, 64
2, 200052, Note_on_c, 0, 68, 0
2, 200116, Note_on_c, 0, 57, 58
2, 200120, Note_on_c, 0, 60, 0
2, 200236, Note_on_c, 0, 69, 78
2, 200332, Note_on_c, 0, 57, 0
2, 200368, Note_on_c, 0, 60, 51
2, 200420, Note_on_c, 0, 69, 0
2, 200468, Note_on_c, 0, 60, 0
2, 200488, Note_on_c, 0, 57, 48
2, 200612, Note_on_c, 0, 68, 72
2, 200724, Note_on_c, 0, 57, 0
2, 200748, Note_on_c, 0, 60, 48
2, 200808, Note_on_c, 0, 68, 0
2, 200864, Note_on_c, 0, 60, 0
2, 200880, Note_on_c, 0, 57, 47
2, 201016, Note_on_c, 0, 66, 62
2, 201120, Note_on_c, 0, 57, 0
2, 201160, Note_on_c, 0, 60, 49
2, 201236, Note_on_c, 0, 66, 0
2, 201276, Note_on_c, 0, 60, 0
2, 201304, Note_on_c, 0, 57, 46
2, 201472, Note_on_c, 0, 65, 50
2, 201656, Note_on_c, 0, 60, 47
2, 201832, Note_on_c, 0, 57, 0
2, 201852, Note_on_c, 0, 60, 0
2, 201856, Note_on_c, 0, 65, 0
2, 202016, Control_c, 0, 64, 88
2, 202028, Control_c, 0, 64, 56
2, 202036, Control_c, 0, 64, 24
2, 202044, Control_c, 0, 64, 0
2, 202072, Note_on_c, 0, 64, 62
2, 202272, Control_c, 0, 64, 72
2, 202284, Control_c, 0, 64, 127
2, 202448, Note_on_c, 0, 44, 54
2, 202520, Note_on_c, 0, 44, 0
2, 202636, Note_on_c, 0, 59, 49
2, 202676, Note_on_c, 0, 64, 0
2, 202684, Note_on_c, 0, 66, 72
2, 202772, Note_on_c, 0, 59, 0
2, 202780, Note_on_c, 0, 56, 52
2, 202888, Note_on_c, 0, 66, 0
2, 202896, Note_on_c, 0, 68, 71
2, 202896, Note_on_c, 0, 52, 55
2, 202940, Note_on_c, 0, 56, 0
2, 203020, Note_on_c, 0, 64, 47
2, 203024, Note_on_c, 0, 52, 0
2, 203120, Note_on_c, 0, 64, 0
2, 203132, Note_on_c, 0, 59, 48
2, 203240, Note_on_c, 0, 59, 0
2, 203260, Note_on_c, 0, 56, 50
2, 203380, Note_on_c, 0, 64, 50
2, 203460, Note_on_c, 0, 69, 79
2, 203464, Note_on_c, 0, 68, 0
2, 203528, Note_on_c, 0, 59, 42
2, 203532, Note_on_c, 0, 64, 0
2, 203612, Note_on_c, 0, 69, 0
2, 203620, Note_on_c, 0, 59, 0
2, 203648, Note_on_c, 0, 71, 80
2, 203672, Note_on_c, 0, 56, 0
2, 203884, Control_c, 0, 64, 72
2, 203896, Control_c, 0, 64, 0
2, 203964, Control_c, 0, 64, 88
2, 203972, Control_c, 0, 64, 127
2, 203984, Note_on_c, 0, 44, 55
2, 204044, Note_on_c, 0, 44, 0
2, 204132, Note_on_c, 0, 71, 0
2, 204140, Note_on_c, 0, 59, 47
2, 204168, Note_on_c, 0, 71, 86
2, 204216, Note_on_c, 0, 71, 0
2, 204260, Note_on_c, 0, 56, 48
2, 204276, Note_on_c, 0, 71, 80
2, 204320, Note_on_c, 0, 71, 0
2, 204328, Note_on_c, 0, 75, 81
2, 204368, Note_on_c, 0, 59, 0
2, 204388, Note_on_c, 0, 73, 87
2, 204396, Note_on_c, 0, 75, 0
2, 204452, Note_on_c, 0, 52, 50
2, 204456, Control_c, 0, 64, 104
2, 204464, Control_c, 0, 64, 40
2, 204472, Control_c, 0, 64, 0
2, 204504, Control_c, 0, 64, 104
2, 204516, Control_c, 0, 64, 127
2, 204536, Note_on_c, 0, 52, 0
2, 204544, Note_on_c, 0, 56, 0
2, 204572, Note_on_c, 0, 64, 27
2, 204648, Note_on_c, 0, 64, 0
2, 204652, Note_on_c, 0, 59, 62
2, 204768, Note_on_c, 0, 59, 0
2, 204780, Note_on_c, 0, 56, 57
2, 204892, Note_on_c, 0, 64, 58
2, 204972, Note_on_c, 0, 71, 85
2, 204992, Note_on_c, 0, 73, 0
2, 205048, Note_on_c, 0, 59, 55
2, 205064, Note_on_c, 0, 71, 0
2, 205068, Note_on_c, 0, 64, 0
2, 205116, Note_on_c, 0, 59, 0
2, 205148, Note_on_c, 0, 56, 0
2, 205204, Note_on_c, 0, 71, 83
2, 205220, Control_c, 0, 64, 56
2, 205228, Control_c, 0, 64, 0
2, 205260, Control_c, 0, 64, 40
2, 205272, Control_c, 0, 64, 104
2, 205280, Control_c, 0, 64, 127
2, 205316, Note_on_c, 0, 73, 66
2, 205336, Note_on_c, 0, 71, 0
2, 205404, Note_on_c, 0, 73, 0
2, 205408, Note_on_c, 0, 71, 75
2, 205472, Note_on_c, 0, 71, 0
2, 205484, Note_on_c, 0, 70, 62
2, 205544, Note_on_c, 0, 70, 0
2, 205552, Note_on_c, 0, 71, 79
2, 205624, Note_on_c, 0, 71, 0
2, 205648, Note_on_c, 0, 75, 77
2, 205660, Control_c, 0, 64, 104
2, 205668, Control_c, 0, 64, 40
2, 205672, Note_on_c, 0, 45, 66
2, 205680, Control_c, 0, 64, 56
2, 205688, Control_c, 0, 64, 127
2, 205744, Note_on_c, 0, 75, 0
2, 205752, Note_on_c, 0, 80, 71
2, 205788, Note_on_c, 0, 45, 0
2, 205804, Note_on_c, 0, 54, 57
2, 205812, Note_on_c, 0, 80, 0
2, 205840, Note_on_c, 0, 74, 71
2, 205900, Note_on_c, 0, 54, 0
2, 205916, Note_on_c, 0, 74, 0
2, 205920, Note_on_c, 0, 75, 86
2, 205924, Note_on_c, 0, 59, 59
2, 206000, Note_on_c, 0, 75, 0
2, 206016, Note_on_c, 0, 78, 80
2, 206032, Note_on_c, 0, 63, 60
2, 206036, Note_on_c, 0, 59, 0
2, 206076, Note_on_c, 0, 78, 0
2, 206108, Note_on_c, 0, 85, 74
2, 206112, Note_on_c, 0, 63, 0
2, 206132, Note_on_c, 0, 66, 63
2, 206172, Note_on_c, 0, 85, 0
2, 206196, Note_on_c, 0, 77, 81
2, 206212, Note_on_c, 0, 66, 0
2, 206232, Note_on_c, 0, 71, 64
2, 206252, Note_on_c, 0, 77, 0
2, 206276, Note_on_c, 0, 78, 86
2, 206340, Note_on_c, 0, 78, 0
2, 206376, Note_on_c, 0, 71, 0
2, 206376, Note_on_c, 0, 69, 80
2, 206376, Note_on_c, 0, 83, 85
2, 206448, Note_on_c, 0, 83, 0
2, 206456, Note_on_c, 0, 85, 83
2, 206524, Note_on_c, 0, 85, 0
2, 206548, Note_on_c, 0, 82, 78
2, 206612, Note_on_c, 0, 82, 0
2, 206640, Note_on_c, 0, 83, 77
2, 206644, Note_on_c, 0, 68, 79
2, 206672, Note_on_c, 0, 69, 0
2, 206716, Note_on_c, 0, 83, 0
2, 206736, Note_on_c, 0, 66, 94
2, 206736, Note_on_c, 0, 87, 80
2, 206748, Note_on_c, 0, 68, 0
2, 206828, Note_on_c, 0, 92, 83
2, 206832, Note_on_c, 0, 87, 0
2, 206892, Note_on_c, 0, 92, 0
2, 206920, Note_on_c, 0, 86, 80
2, 206992, Note_on_c, 0, 86, 0
2, 206996, Note_on_c, 0, 87, 88
2, 207076, Note_on_c, 0, 87, 0
2, 207092, Note_on_c, 0, 90, 88
2, 207160, Note_on_c, 0, 90, 0
2, 207176, Note_on_c, 0, 97, 86
2, 207252, Note_on_c, 0, 97, 0
2, 207260, Note_on_c, 0, 89, 83
2, 207332, Note_on_c, 0, 89, 0
2, 207340, Note_on_c, 0, 90, 87
2, 207404, Note_on_c, 0, 90, 0
2, 207440, Note_on_c, 0, 95, 94
2, 207500, Note_on_c, 0, 66, 0
2, 207508, Note_on_c, 0, 95, 0
2, 207532, Note_on_c, 0, 97, 80
2, 207600, Note_on_c, 0, 97, 0
2, 207612, Note_on_c, 0, 95, 95
2, 207684, Note_on_c, 0, 95, 0
2, 207688, Note_on_c, 0, 94, 90
2, 207772, Note_on_c, 0, 94, 0
2, 207772, Note_on_c, 0, 95, 93
2, 207844, Note_on_c, 0, 95, 0
2, 207860, Note_on_c, 0, 96, 96
2, 207992, Note_on_c, 0, 96, 0
2, 208000, Note_on_c, 0, 99, 104
2, 208120, Note_on_c, 0, 99, 0
2, 208124, Note_on_c, 0, 97, 93
2, 208220, Note_on_c, 0, 97, 0
2, 208228, Note_on_c, 0, 93, 83
2, 208276, Note_on_c, 0, 93, 0
2, 208312, Note_on_c, 0, 90, 74
2, 208404, Note_on_c, 0, 90, 0
2, 208412, Note_on_c, 0, 87, 74
2, 208504, Note_on_c, 0, 85, 70
2, 208520, Note_on_c, 0, 87, 0
2, 208580, Note_on_c, 0, 85, 0
2, 208600, Note_on_c, 0, 81, 64
2, 208652, Note_on_c, 0, 81, 0
2, 208700, Note_on_c, 0, 78, 77
2, 208804, Note_on_c, 0, 78, 0
2, 208816, Note_on_c, 0, 75, 70
2, 208904, Note_on_c, 0, 75, 0
2, 208912, Note_on_c, 0, 73, 71
2, 208992, Note_on_c, 0, 73, 0
2, 209024, Note_on_c, 0, 69, 71
2, 209112, Note_on_c, 0, 69, 0
2, 209148, Note_on_c, 0, 66, 66
2, 209336, Note_on_c, 0, 66, 0
2, 209360, Note_on_c, 0, 64, 64
2, 209480, Control_c, 0, 64, 56
2, 209492, Control_c, 0, 64, 0
2, 209584, Control_c, 0, 64, 72
2, 209592, Control_c, 0, 64, 127
2, 209704, Note_on_c, 0, 44, 51
2, 209780, Note_on_c, 0, 44, 0
2, 209856, Note_on_c, 0, 59, 44
2, 209920, Note_on_c, 0, 66, 71
2, 209944, Note_on_c, 0, 64, 0
2, 209968, Note_on_c, 0, 56, 42
2, 209980, Note_on_c, 0, 59, 0
2, 210060, Note_on_c, 0, 66, 0
2, 210072, Note_on_c, 0, 68, 72
2, 210076, Note_on_c, 0, 56, 0
2, 210104, Note_on_c, 0, 52, 50
2, 210168, Note_on_c, 0, 52, 0
2, 210200, Note_on_c, 0, 64, 42
2, 210276, Note_on_c, 0, 64, 0
2, 210284, Note_on_c, 0, 59, 50
2, 210384, Note_on_c, 0, 59, 0
2, 210404, Note_on_c, 0, 56, 39
2, 210508, Note_on_c, 0, 64, 42
2, 210580, Note_on_c, 0, 68, 0
2, 210584, Note_on_c, 0, 64, 0
2, 210588, Note_on_c, 0, 69, 81
2, 210608, Note_on_c, 0, 56, 0
2, 210716, Note_on_c, 0, 69, 0
2, 210760, Note_on_c, 0, 71, 80
2, 210920, Control_c, 0, 64, 104
2, 210928, Control_c, 0, 64, 24
2, 210940, Control_c, 0, 64, 0
2, 211000, Control_c, 0, 64, 88
2, 211012, Control_c, 0, 64, 127
2, 211024, Note_on_c, 0, 44, 55
2, 211076, Note_on_c, 0, 44, 0
2, 211168, Note_on_c, 0, 59, 63
2, 211208, Note_on_c, 0, 71, 0
2, 211244, Note_on_c, 0, 71, 85
2, 211276, Note_on_c, 0, 56, 34
2, 211296, Note_on_c, 0, 71, 0
2, 211332, Note_on_c, 0, 71, 80
2, 211372, Note_on_c, 0, 71, 0
2, 211376, Note_on_c, 0, 75, 81
2, 211380, Note_on_c, 0, 59, 0
2, 211436, Note_on_c, 0, 56, 0
2, 211436, Note_on_c, 0, 73, 83
2, 211444, Note_on_c, 0, 75, 0
2, 211448, Note_on_c, 0, 52, 46
2, 211472, Control_c, 0, 64, 56
2, 211480, Control_c, 0, 64, 0
2, 211512, Control_c, 0, 64, 56
2, 211524, Control_c, 0, 64, 127
2, 211536, Note_on_c, 0, 52, 0
2, 211556, Note_on_c, 0, 64, 58
2, 211636, Note_on_c, 0, 64, 0
2, 211640, Note_on_c, 0, 59, 56
2, 211740, Note_on_c, 0, 59, 0
2, 211748, Note_on_c, 0, 56, 42
2, 211872, Note_on_c, 0, 64, 49
2, 211904, Note_on_c, 0, 56, 0
2, 211912, Note_on_c, 0, 73, 0
2, 211920, Note_on_c, 0, 64, 0
2, 211984, Note_on_c, 0, 71, 71
2, 212124, Note_on_c, 0, 71, 0
2, 212160, Note_on_c, 0, 71, 73
2, 212172, Control_c, 0, 64, 56
2, 212180, Control_c, 0, 64, 88
2, 212192, Control_c, 0, 64, 127
2, 212232, Note_on_c, 0, 71, 0
2, 212268, Note_on_c, 0, 73, 69
2, 212332, Note_on_c, 0, 73, 0
2, 212352, Note_on_c, 0, 71, 71
2, 212404, Note_on_c, 0, 71, 0
2, 212420, Note_on_c, 0, 70, 74
2, 212476, Note_on_c, 0, 70, 0
2, 212508, Note_on_c, 0, 71, 74
2, 212576, Note_on_c, 0, 71, 0
2, 212608, Note_on_c, 0, 74, 85
2, 212612, Control_c, 0, 64, 72
2, 212624, Control_c, 0, 64, 0
2, 212640, Note_on_c, 0, 44, 58
2, 212676, Control_c, 0, 64, 72
2, 212684, Control_c, 0, 64, 127
2, 212704, Note_on_c, 0, 74, 0
2, 212712, Note_on_c, 0, 80, 79
2, 212740, Note_on_c, 0, 44, 0
2, 212768, Note_on_c, 0, 53, 52
2, 212792, Note_on_c, 0, 80, 0
2, 212804, Note_on_c, 0, 75, 78
2, 212852, Note_on_c, 0, 53, 0
2, 212864, Note_on_c, 0, 75, 0
2, 212888, Note_on_c, 0, 59, 56
2, 212892, Note_on_c, 0, 76, 63
2, 212960, Note_on_c, 0, 76, 0
2, 212964, Note_on_c, 0, 59, 0
2, 212988, Note_on_c, 0, 77, 79
2, 213016, Note_on_c, 0, 62, 59
2, 213056, Note_on_c, 0, 77, 0
2, 213080, Note_on_c, 0, 85, 79
2, 213088, Note_on_c, 0, 62, 0
2, 213108, Note_on_c, 0, 65, 66
2, 213172, Note_on_c, 0, 80, 74
2, 213180, Note_on_c, 0, 65, 0
2, 213192, Note_on_c, 0, 85, 0
2, 213224, Note_on_c, 0, 71, 50
2, 213256, Note_on_c, 0, 82, 79
2, 213268, Note_on_c, 0, 80, 0
2, 213292, Note_on_c, 0, 82, 0
2, 213360, Note_on_c, 0, 68, 80
2, 213360, Note_on_c, 0, 83, 69
2, 213380, Note_on_c, 0, 71, 0
2, 213440, Note_on_c, 0, 83, 0
2, 213452, Note_on_c, 0, 85, 71
2, 213516, Note_on_c, 0, 85, 0
2, 213544, Note_on_c, 0, 82, 72
2, 213600, Note_on_c, 0, 82, 0
2, 213624, Note_on_c, 0, 68, 0
2, 213632, Note_on_c, 0, 66, 81
2, 213636, Note_on_c, 0, 83, 75
2, 213692, Note_on_c, 0, 83, 0
2, 213712, Note_on_c, 0, 66, 0
2, 213724, Note_on_c, 0, 65, 86
2, 213732, Note_on_c, 0, 86, 78
2, 213804, Note_on_c, 0, 86, 0
2, 213816, Note_on_c, 0, 92, 80
2, 213884, Note_on_c, 0, 92, 0
2, 213900, Note_on_c, 0, 87, 83
2, 213956, Note_on_c, 0, 87, 0
2, 213980, Note_on_c, 0, 88, 71
2, 214060, Note_on_c, 0, 88, 0
2, 214068, Note_on_c, 0, 89, 93
2, 214140, Note_on_c, 0, 89, 0
2, 214160, Note_on_c, 0, 97, 81
2, 214244, Note_on_c, 0, 92, 82
2, 214252, Note_on_c, 0, 97, 0
2, 214332, Note_on_c, 0, 94, 77
2, 214348, Note_on_c, 0, 92, 0
2, 214392, Note_on_c, 0, 94, 0
2, 214432, Note_on_c, 0, 95, 93
2, 214492, Note_on_c, 0, 65, 0
2, 214524, Note_on_c, 0, 95, 0
2, 214528, Note_on_c, 0, 97, 74
2, 214580, Note_on_c, 0, 97, 0
2, 214592, Note_on_c, 0, 95, 86
2, 214644, Note_on_c, 0, 97, 71
2, 214648, Note_on_c, 0, 95, 0
2, 214696, Note_on_c, 0, 97, 0
2, 214696, Note_on_c, 0, 95, 72
2, 214744, Note_on_c, 0, 97, 67
2, 214748, Note_on_c, 0, 95, 0
2, 214788, Note_on_c, 0, 97, 0
2, 214788, Note_on_c, 0, 95, 77
2, 214836, Note_on_c, 0, 97, 72
2, 214840, Note_on_c, 0, 95, 0
2, 214880, Note_on_c, 0, 95, 75
2, 214884, Note_on_c, 0, 97, 0
2, 214928, Note_on_c, 0, 97, 69
2, 214936, Note_on_c, 0, 95, 0
2, 214972, Note_on_c, 0, 95, 80
2, 214976, Note_on_c, 0, 97, 0
2, 215016, Note_on_c, 0, 97, 60
2, 215020, Note_on_c, 0, 95, 0
2, 215056, Note_on_c, 0, 95, 80
2, 215068, Note_on_c, 0, 97, 0
2, 215108, Note_on_c, 0, 97, 74
2, 215116, Note_on_c, 0, 95, 0
2, 215148, Note_on_c, 0, 95, 75
2, 215152, Note_on_c, 0, 97, 0
2, 215196, Note_on_c, 0, 97, 71
2, 215200, Note_on_c, 0, 95, 0
2, 215240, Note_on_c, 0, 95, 70
2, 215244, Note_on_c, 0, 97, 0
2, 215288, Note_on_c, 0, 97, 70
2, 215292, Note_on_c, 0, 95, 0
2, 215328, Note_on_c, 0, 97, 0
2, 215328, Note_on_c, 0, 95, 80
2, 215372, Note_on_c, 0, 95, 0
2, 215380, Note_on_c, 0, 97, 67
2, 215428, Note_on_c, 0, 95, 65
2, 215432, Note_on_c, 0, 97, 0
2, 215492, Note_on_c, 0, 94, 80
2, 215496, Note_on_c, 0, 95, 0
2, 215568, Note_on_c, 0, 94, 0
2, 215568, Note_on_c, 0, 95, 93
2, 215700, Note_on_c, 0, 95, 0
2, 215704, Note_on_c, 0, 101, 92
2, 215812, Note_on_c, 0, 101, 0
2, 215852, Note_on_c, 0, 98, 89
2, 215928, Note_on_c, 0, 98, 0
2, 215944, Note_on_c, 0, 95, 83
2, 216028, Note_on_c, 0, 95, 0
2, 216028, Note_on_c, 0, 92, 74
2, 216108, Note_on_c, 0, 92, 0
2, 216132, Note_on_c, 0, 89, 75
2, 216196, Note_on_c, 0, 89, 0
2, 216236, Note_on_c, 0, 86, 72
2, 216308, Note_on_c, 0, 86, 0
2, 216344, Note_on_c, 0, 83, 75
2, 216420, Note_on_c, 0, 83, 0
2, 216436, Note_on_c, 0, 80, 67
2, 216528, Note_on_c, 0, 80, 0
2, 216548, Note_on_c, 0, 77, 77
2, 216596, Note_on_c, 0, 77, 0
2, 216648, Note_on_c, 0, 74, 71
2, 216736, Note_on_c, 0, 74, 0
2, 216764, Note_on_c, 0, 71, 55
2, 216856, Note_on_c, 0, 71, 0
2, 216932, Note_on_c, 0, 70, 69
2, 216960, Control_c, 0, 64, 56
2, 216972, Control_c, 0, 64, 104
2, 216980, Control_c, 0, 64, 127
2, 216988, Note_on_c, 0, 70, 0
2, 217040, Note_on_c, 0, 70, 63
2, 217088, Note_on_c, 0, 70, 0
2, 217160, Note_on_c, 0, 70, 64
2, 217208, Note_on_c, 0, 70, 0
2, 217248, Note_on_c, 0, 70, 65
2, 217308, Note_on_c, 0, 70, 0
2, 217352, Note_on_c, 0, 82, 67
2, 217412, Note_on_c, 0, 82, 0
2, 217444, Note_on_c, 0, 72, 75
2, 217500, Note_on_c, 0, 72, 0
2, 217532, Note_on_c, 0, 84, 85
2, 217548, Control_c, 0, 64, 88
2, 217556, Control_c, 0, 64, 40
2, 217568, Control_c, 0, 64, 0
2, 217616, Control_c, 0, 64, 56
2, 217624, Note_on_c, 0, 84, 0
2, 217628, Note_on_c, 0, 56, 62
2, 217628, Control_c, 0, 64, 104
2, 217636, Control_c, 0, 64, 127
2, 217652, Note_on_c, 0, 74, 75
2, 217672, Note_on_c, 0, 56, 0
2, 217684, Note_on_c, 0, 62, 44
2, 217692, Note_on_c, 0, 74, 0
2, 217696, Note_on_c, 0, 65, 41
2, 217740, Note_on_c, 0, 74, 82
2, 217756, Note_on_c, 0, 70, 37
2, 217784, Note_on_c, 0, 74, 0
2, 217848, Note_on_c, 0, 74, 80
2, 217888, Note_on_c, 0, 74, 0
2, 217944, Note_on_c, 0, 74, 79
2, 218008, Note_on_c, 0, 74, 0
2, 218040, Note_on_c, 0, 86, 79
2, 218076, Note_on_c, 0, 86, 0
2, 218092, Note_on_c, 0, 65, 0
2, 218104, Note_on_c, 0, 62, 0
2, 218112, Note_on_c, 0, 70, 0
2, 218128, Note_on_c, 0, 75, 81
2, 218204, Note_on_c, 0, 75, 0
2, 218216, Note_on_c, 0, 87, 77
2, 218276, Note_on_c, 0, 87, 0
2, 218320, Note_on_c, 0, 76, 85
2, 218332, Control_c, 0, 64, 72
2, 218340, Control_c, 0, 64, 56
2, 218360, Control_c, 0, 64, 88
2, 218372, Note_on_c, 0, 76, 0
2, 218372, Control_c, 0, 64, 127
2, 218408, Note_on_c, 0, 76, 81
2, 218452, Note_on_c, 0, 76, 0
2, 218508, Note_on_c, 0, 76, 85
2, 218552, Note_on_c, 0, 76, 0
2, 218596, Note_on_c, 0, 76, 80
2, 218656, Note_on_c, 0, 76, 0
2, 218688, Note_on_c, 0, 88, 80
2, 218736, Note_on_c, 0, 88, 0
2, 218764, Note_on_c, 0, 77, 85
2, 218828, Note_on_c, 0, 77, 0
2, 218852, Note_on_c, 0, 89, 87
2, 218856, Control_c, 0, 64, 88
2, 218864, Control_c, 0, 64, 40
2, 218876, Control_c, 0, 64, 0
2, 218920, Note_on_c, 0, 56, 40
2, 218924, Control_c, 0, 64, 56
2, 218936, Note_on_c, 0, 89, 0
2, 218936, Control_c, 0, 64, 127
2, 218948, Note_on_c, 0, 56, 0
2, 218968, Note_on_c, 0, 79, 80
2, 218968, Note_on_c, 0, 62, 39
2, 218992, Note_on_c, 0, 65, 47
2, 219020, Note_on_c, 0, 70, 40
2, 219024, Note_on_c, 0, 79, 0
2, 219064, Note_on_c, 0, 79, 80
2, 219108, Note_on_c, 0, 79, 0
2, 219160, Note_on_c, 0, 79, 83
2, 219208, Note_on_c, 0, 79, 0
2, 219256, Note_on_c, 0, 79, 78
2, 219296, Note_on_c, 0, 62, 0
2, 219308, Note_on_c, 0, 65, 0
2, 219324, Note_on_c, 0, 70, 0
2, 219324, Note_on_c, 0, 79, 0
2, 219356, Note_on_c, 0, 91, 82
2, 219408, Note_on_c, 0, 91, 0
2, 219448, Note_on_c, 0, 77, 73
2, 219512, Note_on_c, 0, 77, 0
2, 219536, Note_on_c, 0, 89, 85
2, 219580, Note_on_c, 0, 89, 0
2, 219620, Control_c, 0, 64, 104
2, 219628, Control_c, 0, 64, 56
2, 219632, Note_on_c, 0, 76, 64
2, 219640, Control_c, 0, 64, 24
2, 219672, Control_c, 0, 64, 88
2, 219676, Note_on_c, 0, 76, 0
2, 219680, Control_c, 0, 64, 127
2, 219716, Note_on_c, 0, 76, 65
2, 219760, Note_on_c, 0, 76, 0
2, 219812, Note_on_c, 0, 76, 80
2, 219852, Control_c, 0, 64, 88
2, 219860, Note_on_c, 0, 76, 0
2, 219880, Control_c, 0, 64, 127
2, 219904, Note_on_c, 0, 76, 85
2, 219916, Note_on_c, 0, 55, 60
2, 219964, Note_on_c, 0, 55, 0
2, 219972, Note_on_c, 0, 76, 0
2, 219988, Note_on_c, 0, 61, 50
2, 219996, Note_on_c, 0, 88, 85
2, 220036, Note_on_c, 0, 64, 60
2, 220048, Note_on_c, 0, 61, 0
2, 220064, Note_on_c, 0, 64, 0
2, 220068, Note_on_c, 0, 88, 0
2, 220080, Note_on_c, 0, 70, 57
2, 220084, Note_on_c, 0, 77, 93
2, 220112, Note_on_c, 0, 70, 0
2, 220148, Note_on_c, 0, 77, 0
2, 220180, Note_on_c, 0, 89, 75
2, 220216, Note_on_c, 0, 89, 0
2, 220260, Note_on_c, 0, 79, 90
2, 220320, Note_on_c, 0, 79, 0
2, 220356, Note_on_c, 0, 79, 79
2, 220396, Note_on_c, 0, 79, 0
2, 220448, Note_on_c, 0, 79, 86
2, 220496, Note_on_c, 0, 79, 0
2, 220544, Note_on_c, 0, 79, 88
2, 220620, Note_on_c, 0, 79, 0
2, 220636, Note_on_c, 0, 91, 83
2, 220680, Note_on_c, 0, 91, 0
2, 220720, Note_on_c, 0, 80, 87
2, 220788, Note_on_c, 0, 80, 0
2, 220812, Note_on_c, 0, 92, 93
2, 220868, Note_on_c, 0, 92, 0
2, 220904, Note_on_c, 0, 81, 90
2, 220920, Control_c, 0, 64, 88
2, 220932, Control_c, 0, 64, 56
2, 220956, Note_on_c, 0, 81, 0
2, 220960, Control_c, 0, 64, 127
2, 220988, Note_on_c, 0, 81, 92
2, 221024, Note_on_c, 0, 81, 0
2, 221080, Note_on_c, 0, 81, 88
2, 221124, Note_on_c, 0, 81, 0
2, 221160, Note_on_c, 0, 81, 85
2, 221228, Note_on_c, 0, 81, 0
2, 221264, Note_on_c, 0, 93, 93
2, 221308, Note_on_c, 0, 93, 0
2, 221344, Note_on_c, 0, 82, 100
2, 221352, Control_c, 0, 64, 72
2, 221364, Control_c, 0, 64, 24
2, 221372, Control_c, 0, 64, 0
2, 221392, Control_c, 0, 64, 56
2, 221404, Control_c, 0, 64, 127
2, 221428, Note_on_c, 0, 82, 0
2, 221432, Note_on_c, 0, 94, 89
2, 221488, Note_on_c, 0, 53, 55
2, 221500, Note_on_c, 0, 94, 0
2, 221512, Note_on_c, 0, 53, 0
2, 221524, Note_on_c, 0, 61, 58
2, 221548, Note_on_c, 0, 84, 95
2, 221572, Note_on_c, 0, 61, 0
2, 221584, Note_on_c, 0, 70, 49
2, 221600, Note_on_c, 0, 84, 0
2, 221604, Note_on_c, 0, 70, 0
2, 221640, Note_on_c, 0, 84, 80
2, 221684, Note_on_c, 0, 84, 0
2, 221740, Note_on_c, 0, 84, 81
2, 221776, Note_on_c, 0, 84, 0
2, 221820, Note_on_c, 0, 84, 81
2, 221896, Note_on_c, 0, 84, 0
2, 221920, Note_on_c, 0, 96, 82
2, 221972, Note_on_c, 0, 96, 0
2, 222016, Note_on_c, 0, 82, 81
2, 222084, Note_on_c, 0, 82, 0
2, 222096, Note_on_c, 0, 94, 87
2, 222152, Note_on_c, 0, 94, 0
2, 222188, Control_c, 0, 64, 72
2, 222192, Note_on_c, 0, 81, 89
2, 222200, Control_c, 0, 64, 24
2, 222208, Control_c, 0, 64, 0
2, 222228, Control_c, 0, 64, 56
2, 222240, Note_on_c, 0, 81, 0
2, 222240, Control_c, 0, 64, 127
2, 222276, Note_on_c, 0, 81, 71
2, 222320, Note_on_c, 0, 81, 0
2, 222356, Note_on_c, 0, 81, 85
2, 222408, Note_on_c, 0, 81, 0
2, 222452, Note_on_c, 0, 81, 86
2, 222456, Note_on_c, 0, 52, 63
2, 222524, Note_on_c, 0, 81, 0
2, 222532, Note_on_c, 0, 52, 0
2, 222552, Note_on_c, 0, 58, 57
2, 222552, Note_on_c, 0, 93, 92
2, 222596, Note_on_c, 0, 93, 0
2, 222620, Note_on_c, 0, 58, 0
2, 222636, Note_on_c, 0, 82, 90
2, 222636, Note_on_c, 0, 61, 63
2, 222700, Note_on_c, 0, 61, 0
2, 222708, Note_on_c, 0, 82, 0
2, 222720, Note_on_c, 0, 94, 87
2, 222720, Note_on_c, 0, 67, 51
2, 222772, Note_on_c, 0, 67, 0
2, 222796, Note_on_c, 0, 94, 0
2, 222828, Note_on_c, 0, 70, 79
2, 222836, Note_on_c, 0, 84, 93
2, 222880, Note_on_c, 0, 84, 0
2, 222920, Note_on_c, 0, 84, 78
2, 222964, Note_on_c, 0, 84, 0
2, 222972, Note_on_c, 0, 70, 0
2, 223016, Note_on_c, 0, 84, 87
2, 223056, Note_on_c, 0, 84, 0
2, 223100, Note_on_c, 0, 84, 87
2, 223176, Note_on_c, 0, 84, 0
2, 223204, Note_on_c, 0, 96, 90
2, 223260, Note_on_c, 0, 96, 0
2, 223288, Note_on_c, 0, 82, 93
2, 223360, Note_on_c, 0, 82, 0
2, 223372, Note_on_c, 0, 94, 92
2, 223428, Note_on_c, 0, 94, 0
2, 223448, Control_c, 0, 64, 88
2, 223456, Control_c, 0, 64, 24
2, 223468, Note_on_c, 0, 81, 97
2, 223468, Control_c, 0, 64, 0
2, 223496, Control_c, 0, 64, 72
2, 223508, Control_c, 0, 64, 127
2, 223516, Note_on_c, 0, 81, 0
2, 223556, Note_on_c, 0, 81, 85
2, 223604, Note_on_c, 0, 81, 0
2, 223648, Note_on_c, 0, 81, 85
2, 223696, Note_on_c, 0, 81, 0
2, 223736, Note_on_c, 0, 81, 89
2, 223736, Note_on_c, 0, 49, 70
2, 223800, Note_on_c, 0, 49, 0
2, 223808, Note_on_c, 0, 81, 0
2, 223828, Note_on_c, 0, 93, 95
2, 223828, Note_on_c, 0, 53, 69
2, 223884, Note_on_c, 0, 93, 0
2, 223912, Note_on_c, 0, 82, 95
2, 223916, Note_on_c, 0, 53, 0
2, 223924, Note_on_c, 0, 58, 64
2, 223992, Note_on_c, 0, 58, 0
2, 223996, Note_on_c, 0, 82, 0
2, 223996, Note_on_c, 0, 94, 95
2, 224012, Note_on_c, 0, 65, 62
2, 224068, Note_on_c, 0, 65, 0
2, 224080, Note_on_c, 0, 94, 0
2, 224108, Note_on_c, 0, 70, 88
2, 224112, Note_on_c, 0, 84, 96
2, 224156, Note_on_c, 0, 70, 0
2, 224164, Note_on_c, 0, 84, 0
2, 224200, Note_on_c, 0, 84, 88
2, 224244, Note_on_c, 0, 84, 0
2, 224300, Note_on_c, 0, 84, 93
2, 224348, Note_on_c, 0, 84, 0
2, 224392, Note_on_c, 0, 84, 85
2, 224480, Note_on_c, 0, 84, 0
2, 224488, Note_on_c, 0, 96, 90
2, 224556, Note_on_c, 0, 96, 0
2, 224588, Note_on_c, 0, 82, 95
2, 224676, Note_on_c, 0, 82, 0
2, 224688, Note_on_c, 0, 94, 94
2, 224736, Note_on_c, 0, 94, 0
2, 224828, Note_on_c, 0, 36, 92
2, 224860, Control_c, 0, 64, 40
2, 224868, Control_c, 0, 64, 104
2, 224876, Control_c, 0, 64, 127
2, 224964, Note_on_c, 0, 48, 90
2, 224996, Note_on_c, 0, 48, 0
2, 225084, Note_on_c, 0, 103, 115
2, 225088, Note_on_c, 0, 94, 82
2, 225092, Note_on_c, 0, 97, 78
2, 225092, Note_on_c, 0, 52, 72
2, 225132, Note_on_c, 0, 103, 0
2, 225136, Note_on_c, 0, 97, 0
2, 225144, Note_on_c, 0, 94, 0
2, 225180, Note_on_c, 0, 52, 0
2, 225192, Note_on_c, 0, 36, 0
2, 225196, Note_on_c, 0, 102, 100
2, 225200, Note_on_c, 0, 93, 78
2, 225204, Note_on_c, 0, 96, 83
2, 225208, Note_on_c, 0, 55, 69
2, 225232, Note_on_c, 0, 93, 0
2, 225236, Note_on_c, 0, 96, 0
2, 225252, Note_on_c, 0, 102, 0
2, 225312, Note_on_c, 0, 101, 100
2, 225316, Note_on_c, 0, 95, 96
2, 225316, Note_on_c, 0, 92, 89
2, 225316, Control_c, 0, 64, 72
2, 225324, Note_on_c, 0, 60, 73
2, 225324, Control_c, 0, 64, 56
2, 225332, Control_c, 0, 64, 88
2, 225336, Note_on_c, 0, 55, 0
2, 225340, Control_c, 0, 64, 127
2, 225360, Note_on_c, 0, 95, 0
2, 225368, Note_on_c, 0, 60, 0
2, 225368, Note_on_c, 0, 101, 0
2, 225384, Note_on_c, 0, 92, 0
2, 225424, Note_on_c, 0, 100, 106
2, 225424, Note_on_c, 0, 94, 80
2, 225428, Note_on_c, 0, 91, 85
2, 225460, Note_on_c, 0, 94, 0
2, 225464, Note_on_c, 0, 91, 0
2, 225472, Note_on_c, 0, 100, 0
2, 225532, Note_on_c, 0, 99, 96
2, 225536, Note_on_c, 0, 93, 89
2, 225536, Note_on_c, 0, 90, 74
2, 225540, Note_on_c, 0, 72, 85
2, 225580, Note_on_c, 0, 72, 0
2, 225580, Note_on_c, 0, 93, 0
2, 225592, Note_on_c, 0, 90, 0
2, 225592, Note_on_c, 0, 99, 0
2, 225640, Note_on_c, 0, 98, 102
2, 225644, Note_on_c, 0, 89, 87
2, 225644, Note_on_c, 0, 93, 62
2, 225660, Note_on_c, 0, 93, 0
2, 225676, Note_on_c, 0, 89, 0
2, 225728, Note_on_c, 0, 98, 0
2, 225744, Control_c, 0, 64, 88
2, 225752, Control_c, 0, 64, 24
2, 225760, Note_on_c, 0, 97, 96
2, 225760, Note_on_c, 0, 88, 78
2, 225760, Control_c, 0, 64, 0
2, 225764, Note_on_c, 0, 91, 88
2, 225772, Note_on_c, 0, 82, 73
2, 225780, Control_c, 0, 64, 56
2, 225788, Control_c, 0, 64, 127
2, 225796, Note_on_c, 0, 91, 0
2, 225808, Note_on_c, 0, 88, 0
2, 225840, Note_on_c, 0, 97, 0
2, 225868, Note_on_c, 0, 82, 0
2, 225872, Note_on_c, 0, 90, 79
2, 225876, Note_on_c, 0, 96, 97
2, 225876, Note_on_c, 0, 87, 74
2, 225888, Note_on_c, 0, 81, 67
2, 225928, Note_on_c, 0, 96, 0
2, 225940, Note_on_c, 0, 90, 0
2, 225940, Note_on_c, 0, 87, 0
2, 225968, Note_on_c, 0, 81, 0
2, 225984, Note_on_c, 0, 95, 97
2, 225988, Note_on_c, 0, 86, 75
2, 225988, Note_on_c, 0, 80, 66
2, 225992, Note_on_c, 0, 89, 69
2, 226020, Note_on_c, 0, 89, 0
2, 226020, Note_on_c, 0, 86, 0
2, 226040, Note_on_c, 0, 95, 0
2, 226072, Note_on_c, 0, 80, 0
2, 226084, Note_on_c, 0, 94, 88
2, 226092, Note_on_c, 0, 85, 71
2, 226100, Note_on_c, 0, 88, 49
2, 226104, Note_on_c, 0, 79, 52
2, 226116, Note_on_c, 0, 88, 0
2, 226136, Note_on_c, 0, 85, 0
2, 226144, Note_on_c, 0, 94, 0
2, 226180, Note_on_c, 0, 79, 0
2, 226204, Note_on_c, 0, 93, 103
2, 226204, Note_on_c, 0, 85, 85
2, 226212, Note_on_c, 0, 78, 64
2, 226212, Note_on_c, 0, 88, 66
2, 226212, Control_c, 0, 64, 88
2, 226220, Control_c, 0, 64, 24
2, 226228, Note_on_c, 0, 88, 0
2, 226228, Control_c, 0, 64, 0
2, 226252, Control_c, 0, 64, 72
2, 226256, Note_on_c, 0, 93, 0
2, 226260, Control_c, 0, 64, 127
2, 226268, Note_on_c, 0, 85, 0
2, 226308, Note_on_c, 0, 78, 0
2, 226320, Note_on_c, 0, 94, 97
2, 226320, Note_on_c, 0, 85, 88
2, 226328, Note_on_c, 0, 88, 81
2, 226332, Note_on_c, 0, 79, 64
2, 226344, Note_on_c, 0, 88, 0
2, 226368, Note_on_c, 0, 85, 0
2, 226400, Note_on_c, 0, 94, 0
2, 226404, Note_on_c, 0, 79, 0
2, 226444, Note_on_c, 0, 97, 100
2, 226448, Note_on_c, 0, 88, 89
2, 226452, Note_on_c, 0, 82, 64
2, 226504, Note_on_c, 0, 82, 0
2, 226508, Note_on_c, 0, 88, 0
2, 226508, Note_on_c, 0, 97, 0
2, 226556, Note_on_c, 0, 82, 64
2, 226560, Note_on_c, 0, 85, 74
2, 226560, Note_on_c, 0, 91, 97
2, 226564, Control_c, 0, 64, 88
2, 226572, Note_on_c, 0, 76, 65
2, 226580, Control_c, 0, 64, 127
2, 226600, Note_on_c, 0, 85, 0
2, 226616, Note_on_c, 0, 82, 0
2, 226632, Note_on_c, 0, 91, 0
2, 226632, Note_on_c, 0, 76, 0
2, 226680, Note_on_c, 0, 94, 90
2, 226680, Note_on_c, 0, 85, 66
2, 226684, Note_on_c, 0, 88, 85
2, 226688, Note_on_c, 0, 79, 56
2, 226712, Note_on_c, 0, 79, 0
2, 226712, Note_on_c, 0, 85, 0
2, 226716, Note_on_c, 0, 88, 0
2, 226736, Note_on_c, 0, 94, 0
2, 226788, Note_on_c, 0, 88, 92
2, 226792, Note_on_c, 0, 82, 63
2, 226792, Note_on_c, 0, 79, 72
2, 226800, Control_c, 0, 64, 104
2, 226804, Note_on_c, 0, 73, 60
2, 226804, Control_c, 0, 64, 56
2, 226812, Control_c, 0, 64, 40
2, 226820, Control_c, 0, 64, 72
2, 226828, Note_on_c, 0, 82, 0
2, 226828, Control_c, 0, 64, 127
2, 226860, Note_on_c, 0, 88, 0
2, 226860, Note_on_c, 0, 73, 0
2, 226864, Note_on_c, 0, 79, 0
2, 226896, Note_on_c, 0, 82, 56
2, 226900, Note_on_c, 0, 76, 69
2, 226904, Note_on_c, 0, 85, 83
2, 226904, Note_on_c, 0, 91, 96
2, 226916, Note_on_c, 0, 76, 0
2, 226928, Note_on_c, 0, 82, 0
2, 226940, Note_on_c, 0, 85, 0
2, 226944, Note_on_c, 0, 91, 0
2, 227000, Note_on_c, 0, 85, 93
2, 227012, Note_on_c, 0, 79, 64
2, 227012, Note_on_c, 0, 76, 73
2, 227016, Note_on_c, 0, 70, 52
2, 227016, Control_c, 0, 64, 56
2, 227024, Control_c, 0, 64, 24
2, 227032, Control_c, 0, 64, 40
2, 227040, Control_c, 0, 64, 72
2, 227048, Control_c, 0, 64, 127
2, 227056, Note_on_c, 0, 79, 0
2, 227068, Note_on_c, 0, 76, 0
2, 227072, Note_on_c, 0, 70, 0
2, 227076, Note_on_c, 0, 85, 0
2, 227112, Note_on_c, 0, 73, 57
2, 227112, Note_on_c, 0, 79, 51
2, 227116, Note_on_c, 0, 88, 86
2, 227116, Note_on_c, 0, 82, 64
2, 227132, Note_on_c, 0, 79, 0
2, 227144, Note_on_c, 0, 82, 0
2, 227148, Note_on_c, 0, 73, 0
2, 227156, Note_on_c, 0, 88, 0
2, 227216, Note_on_c, 0, 82, 97
2, 227220, Note_on_c, 0, 76, 66
2, 227228, Note_on_c, 0, 67, 69
2, 227232, Note_on_c, 0, 73, 70
2, 227232, Control_c, 0, 64, 56
2, 227240, Control_c, 0, 64, 0
2, 227256, Control_c, 0, 64, 24
2, 227260, Note_on_c, 0, 76, 0
2, 227264, Control_c, 0, 64, 56
2, 227272, Control_c, 0, 64, 127
2, 227296, Note_on_c, 0, 67, 0
2, 227300, Note_on_c, 0, 73, 0
2, 227316, Note_on_c, 0, 82, 0
2, 227328, Note_on_c, 0, 75, 55
2, 227332, Note_on_c, 0, 85, 90
2, 227332, Note_on_c, 0, 70, 69
2, 227336, Note_on_c, 0, 79, 72
2, 227352, Note_on_c, 0, 79, 0
2, 227352, Note_on_c, 0, 70, 0
2, 227356, Note_on_c, 0, 75, 0
2, 227372, Note_on_c, 0, 85, 0
2, 227440, Note_on_c, 0, 79, 96
2, 227444, Note_on_c, 0, 73, 65
2, 227452, Note_on_c, 0, 70, 69
2, 227452, Control_c, 0, 64, 88
2, 227456, Note_on_c, 0, 64, 62
2, 227456, Control_c, 0, 64, 24
2, 227464, Control_c, 0, 64, 0
2, 227476, Note_on_c, 0, 73, 0
2, 227480, Control_c, 0, 64, 40
2, 227488, Control_c, 0, 64, 88
2, 227496, Control_c, 0, 64, 127
2, 227508, Note_on_c, 0, 70, 0
2, 227520, Note_on_c, 0, 64, 0
2, 227524, Note_on_c, 0, 79, 0
2, 227552, Note_on_c, 0, 82, 90
2, 227556, Note_on_c, 0, 73, 63
2, 227556, Note_on_c, 0, 76, 82
2, 227556, Note_on_c, 0, 67, 60
2, 227572, Note_on_c, 0, 67, 0
2, 227572, Note_on_c, 0, 76, 0
2, 227584, Note_on_c, 0, 73, 0
2, 227592, Note_on_c, 0, 82, 0
2, 227656, Note_on_c, 0, 76, 93
2, 227660, Note_on_c, 0, 70, 64
2, 227660, Control_c, 0, 64, 72
2, 227668, Note_on_c, 0, 67, 66
2, 227668, Control_c, 0, 64, 0
2, 227672, Note_on_c, 0, 61, 58
2, 227692, Note_on_c, 0, 70, 0
2, 227696, Control_c, 0, 64, 72
2, 227704, Control_c, 0, 64, 127
2, 227724, Note_on_c, 0, 61, 0
2, 227728, Note_on_c, 0, 67, 0
2, 227736, Note_on_c, 0, 76, 0
2, 227764, Note_on_c, 0, 70, 59
2, 227772, Note_on_c, 0, 73, 80
2, 227772, Note_on_c, 0, 64, 62
2, 227772, Note_on_c, 0, 79, 94
2, 227792, Note_on_c, 0, 64, 0
2, 227800, Note_on_c, 0, 70, 0
2, 227804, Note_on_c, 0, 79, 0
2, 227812, Note_on_c, 0, 73, 0
2, 227884, Note_on_c, 0, 73, 81
2, 227884, Note_on_c, 0, 67, 70
2, 227884, Control_c, 0, 64, 24
2, 227888, Note_on_c, 0, 64, 60
2, 227888, Note_on_c, 0, 58, 48
2, 227892, Control_c, 0, 64, 0
2, 227916, Control_c, 0, 64, 24
2, 227924, Control_c, 0, 64, 72
2, 227932, Control_c, 0, 64, 127
2, 227944, Note_on_c, 0, 67, 0
2, 227964, Note_on_c, 0, 64, 0
2, 227968, Note_on_c, 0, 58, 0
2, 227976, Note_on_c, 0, 73, 0
2, 227992, Note_on_c, 0, 61, 50
2, 227996, Note_on_c, 0, 76, 93
2, 227996, Note_on_c, 0, 70, 73
2, 228000, Note_on_c, 0, 67, 41
2, 228016, Note_on_c, 0, 61, 0
2, 228028, Note_on_c, 0, 70, 0
2, 228036, Note_on_c, 0, 76, 0
2, 228052, Note_on_c, 0, 67, 0
2, 228104, Note_on_c, 0, 77, 90
2, 228108, Note_on_c, 0, 68, 52
2, 228108, Note_on_c, 0, 62, 56
2, 228108, Note_on_c, 0, 71, 70
2, 228108, Control_c, 0, 64, 40
2, 228116, Control_c, 0, 64, 0
2, 228140, Control_c, 0, 64, 56
2, 228144, Note_on_c, 0, 71, 0
2, 228148, Control_c, 0, 64, 104
2, 228156, Control_c, 0, 64, 127
2, 228180, Note_on_c, 0, 77, 0
2, 228184, Note_on_c, 0, 62, 0
2, 228212, Note_on_c, 0, 68, 0
2, 228212, Note_on_c, 0, 63, 55
2, 228212, Note_on_c, 0, 78, 92
2, 228216, Note_on_c, 0, 69, 66
2, 228220, Note_on_c, 0, 72, 78
2, 228244, Note_on_c, 0, 63, 0
2, 228284, Note_on_c, 0, 72, 0
2, 228304, Note_on_c, 0, 69, 0
2, 228312, Note_on_c, 0, 78, 0
2, 228320, Control_c, 0, 64, 88
2, 228324, Note_on_c, 0, 79, 97
2, 228324, Note_on_c, 0, 70, 41
2, 228324, Note_on_c, 0, 73, 78
2, 228328, Note_on_c, 0, 64, 49
2, 228328, Control_c, 0, 64, 24
2, 228348, Control_c, 0, 64, 88
2, 228356, Control_c, 0, 64, 127
2, 228400, Note_on_c, 0, 73, 0
2, 228416, Note_on_c, 0, 79, 0
2, 228420, Note_on_c, 0, 64, 0
2, 228428, Note_on_c, 0, 70, 0
2, 228432, Note_on_c, 0, 80, 94
2, 228436, Note_on_c, 0, 71, 67
2, 228436, Note_on_c, 0, 74, 83
2, 228440, Note_on_c, 0, 66, 51
2, 228496, Note_on_c, 0, 66, 0
2, 228512, Note_on_c, 0, 71, 0
2, 228520, Note_on_c, 0, 74, 0
2, 228548, Note_on_c, 0, 81, 101
2, 228548, Note_on_c, 0, 75, 79
2, 228552, Control_c, 0, 64, 88
2, 228560, Note_on_c, 0, 72, 72
2, 228560, Control_c, 0, 64, 40
2, 228564, Note_on_c, 0, 80, 0
2, 228564, Note_on_c, 0, 66, 48
2, 228568, Control_c, 0, 64, 24
2, 228576, Control_c, 0, 64, 56
2, 228584, Control_c, 0, 64, 88
2, 228588, Control_c, 0, 64, 127
2, 228600, Note_on_c, 0, 72, 0
2, 228604, Note_on_c, 0, 66, 0
2, 228608, Note_on_c, 0, 75, 0
2, 228628, Note_on_c, 0, 81, 0
2, 228664, Note_on_c, 0, 67, 21
2, 228664, Note_on_c, 0, 73, 74
2, 228668, Note_on_c, 0, 82, 97
2, 228672, Note_on_c, 0, 76, 81
2, 228692, Note_on_c, 0, 67, 0
2, 228712, Note_on_c, 0, 76, 0
2, 228728, Note_on_c, 0, 73, 0
2, 228760, Note_on_c, 0, 82, 0
2, 228780, Note_on_c, 0, 83, 98
2, 228780, Note_on_c, 0, 78, 78
2, 228784, Note_on_c, 0, 75, 55
2, 228784, Note_on_c, 0, 69, 69
2, 228784, Control_c, 0, 64, 104
2, 228792, Control_c, 0, 64, 127
2, 228808, Note_on_c, 0, 69, 0
2, 228824, Note_on_c, 0, 78, 0
2, 228840, Note_on_c, 0, 75, 0
2, 228840, Note_on_c, 0, 83, 0
2, 228900, Note_on_c, 0, 83, 101
2, 228900, Note_on_c, 0, 78, 86
2, 228904, Note_on_c, 0, 75, 62
2, 228904, Note_on_c, 0, 69, 50
2, 228904, Control_c, 0, 64, 88
2, 228912, Control_c, 0, 64, 24
2, 228920, Control_c, 0, 64, 0
2, 228940, Control_c, 0, 64, 56
2, 228948, Control_c, 0, 64, 104
2, 228956, Control_c, 0, 64, 127
2, 228968, Note_on_c, 0, 78, 0
2, 228984, Note_on_c, 0, 69, 0
2, 228996, Note_on_c, 0, 75, 0
2, 229008, Note_on_c, 0, 83, 0
2, 229012, Note_on_c, 0, 84, 94
2, 229016, Note_on_c, 0, 70, 56
2, 229020, Note_on_c, 0, 79, 79
2, 229020, Note_on_c, 0, 76, 56
2, 229084, Note_on_c, 0, 79, 0
2, 229092, Note_on_c, 0, 70, 0
2, 229100, Note_on_c, 0, 84, 0
2, 229108, Note_on_c, 0, 76, 0
2, 229124, Note_on_c, 0, 83, 94
2, 229128, Note_on_c, 0, 78, 83
2, 229128, Note_on_c, 0, 75, 58
2, 229132, Note_on_c, 0, 69, 56
2, 229184, Note_on_c, 0, 69, 0
2, 229196, Note_on_c, 0, 78, 0
2, 229212, Note_on_c, 0, 75, 0
2, 229232, Note_on_c, 0, 83, 0
2, 229236, Note_on_c, 0, 84, 93
2, 229236, Note_on_c, 0, 70, 52
2, 229240, Note_on_c, 0, 79, 78
2, 229244, Note_on_c, 0, 76, 59
2, 229292, Note_on_c, 0, 76, 0
2, 229292, Note_on_c, 0, 79, 0
2, 229292, Note_on_c, 0, 70, 0
2, 229304, Note_on_c, 0, 84, 0
2, 229344, Note_on_c, 0, 83, 98
2, 229344, Control_c, 0, 64, 88
2, 229348, Note_on_c, 0, 78, 81
2, 229348, Note_on_c, 0, 75, 54
2, 229352, Control_c, 0, 64, 24
2, 229356, Note_on_c, 0, 69, 52
2, 229360, Control_c, 0, 64, 0
2, 229384, Control_c, 0, 64, 40
2, 229392, Control_c, 0, 64, 88
2, 229396, Control_c, 0, 64, 127
2, 229412, Note_on_c, 0, 69, 0
2, 229424, Note_on_c, 0, 78, 0
2, 229432, Note_on_c, 0, 75, 0
2, 229448, Note_on_c, 0, 70, 56
2, 229448, Note_on_c, 0, 84, 89
2, 229452, Note_on_c, 0, 83, 0
2, 229452, Note_on_c, 0, 79, 75
2, 229452, Note_on_c, 0, 76, 56
2, 229512, Note_on_c, 0, 79, 0
2, 229516, Note_on_c, 0, 70, 0
2, 229524, Note_on_c, 0, 84, 0
2, 229524, Note_on_c, 0, 76, 0
2, 229556, Note_on_c, 0, 83, 94
2, 229556, Note_on_c, 0, 75, 58
2, 229556, Note_on_c, 0, 78, 74
2, 229564, Note_on_c, 0, 69, 43
2, 229620, Note_on_c, 0, 69, 0
2, 229624, Note_on_c, 0, 78, 0
2, 229628, Note_on_c, 0, 75, 0
2, 229652, Note_on_c, 0, 83, 0
2, 229660, Note_on_c, 0, 70, 49
2, 229664, Note_on_c, 0, 84, 86
2, 229668, Note_on_c, 0, 76, 48
2, 229668, Note_on_c, 0, 79, 80
2, 229724, Note_on_c, 0, 79, 0
2, 229724, Note_on_c, 0, 70, 0
2, 229732, Note_on_c, 0, 76, 0
2, 229744, Note_on_c, 0, 84, 0
2, 229776, Note_on_c, 0, 83, 95
2, 229776, Note_on_c, 0, 78, 82
2, 229784, Note_on_c, 0, 75, 58
2, 229784, Note_on_c, 0, 69, 59
2, 229796, Control_c, 0, 64, 40
2, 229804, Control_c, 0, 64, 0
2, 229824, Control_c, 0, 64, 40
2, 229832, Control_c, 0, 64, 88
2, 229840, Control_c, 0, 64, 127
2, 229856, Note_on_c, 0, 78, 0
2, 229860, Note_on_c, 0, 69, 0
2, 229868, Note_on_c, 0, 75, 0
2, 229880, Note_on_c, 0, 84, 92
2, 229884, Note_on_c, 0, 83, 0
2, 229888, Note_on_c, 0, 79, 73
2, 229888, Note_on_c, 0, 70, 54
2, 229888, Note_on_c, 0, 76, 54
2, 229952, Note_on_c, 0, 70, 0
2, 229956, Note_on_c, 0, 76, 0
2, 229956, Note_on_c, 0, 79, 0
2, 229960, Note_on_c, 0, 84, 0
2, 229992, Note_on_c, 0, 83, 96
2, 229992, Note_on_c, 0, 78, 82
2, 229996, Note_on_c, 0, 75, 55
2, 230000, Note_on_c, 0, 69, 51
2, 230056, Note_on_c, 0, 78, 0
2, 230072, Note_on_c, 0, 69, 0
2, 230076, Note_on_c, 0, 75, 0
2, 230092, Note_on_c, 0, 83, 0
2, 230092, Note_on_c, 0, 84, 93
2, 230100, Note_on_c, 0, 70, 52
2, 230100, Note_on_c, 0, 79, 78
2, 230104, Note_on_c, 0, 76, 52
2, 230164, Note_on_c, 0, 70, 0
2, 230168, Note_on_c, 0, 79, 0
2, 230176, Note_on_c, 0, 84, 0
2, 230176, Note_on_c, 0, 76, 0
2, 230208, Note_on_c, 0, 83, 95
2, 230208, Note_on_c, 0, 78, 81
2, 230212, Note_on_c, 0, 75, 56
2, 230216, Note_on_c, 0, 69, 52
2, 230268, Note_on_c, 0, 78, 0
2, 230272, Note_on_c, 0, 69, 0
2, 230292, Note_on_c, 0, 75, 0
2, 230312, Note_on_c, 0, 83, 0
2, 230316, Note_on_c, 0, 84, 94
2, 230320, Note_on_c, 0, 70, 56
2, 230320, Note_on_c, 0, 79, 78
2, 230320, Note_on_c, 0, 76, 54
2, 230388, Note_on_c, 0, 79, 0
2, 230400, Note_on_c, 0, 84, 0
2, 230400, Note_on_c, 0, 70, 0
2, 230412, Note_on_c, 0, 76, 0
2, 230440, Note_on_c, 0, 83, 101
2, 230440, Note_on_c, 0, 78, 81
2, 230444, Note_on_c, 0, 75, 54
2, 230448, Note_on_c, 0, 69, 56
2, 230500, Note_on_c, 0, 78, 0
2, 230520, Note_on_c, 0, 69, 0
2, 230536, Note_on_c, 0, 75, 0
2, 230548, Note_on_c, 0, 83, 0
2, 230572, Note_on_c, 0, 84, 95
2, 230580, Note_on_c, 0, 79, 86
2, 230580, Note_on_c, 0, 76, 57
2, 230580, Note_on_c, 0, 70, 56
2, 230608, Note_on_c, 0, 79, 0
2, 230612, Note_on_c, 0, 76, 0
2, 230616, Note_on_c, 0, 70, 0
2, 230628, Note_on_c, 0, 84, 0
2, 230720, Note_on_c, 0, 79, 78
2, 230824, Note_on_c, 0, 87, 92
2, 230888, Control_c, 0, 64, 88
2, 230896, Control_c, 0, 64, 24
2, 230904, Control_c, 0, 64, 0
2, 231256, Control_c, 0, 64, 24
2, 231264, Control_c, 0, 64, 56
2, 231272, Control_c, 0, 64, 88
2, 231276, Control_c, 0, 64, 127
2, 231384, Note_on_c, 0, 87, 0
2, 231392, Note_on_c, 0, 79, 0
2, 231572, Note_on_c, 0, 85, 85
2, 231588, Note_on_c, 0, 77, 64
2, 231664, Note_on_c, 0, 77, 0
2, 231668, Note_on_c, 0, 85, 0
2, 231768, Note_on_c, 0, 84, 85
2, 231772, Note_on_c, 0, 76, 73
2, 231828, Note_on_c, 0, 76, 0
2, 231900, Note_on_c, 0, 84, 0
2, 231964, Note_on_c, 0, 73, 70
2, 231968, Note_on_c, 0, 82, 74
2, 232024, Note_on_c, 0, 73, 0
2, 232092, Note_on_c, 0, 73, 70
2, 232100, Note_on_c, 0, 82, 0
2, 232212, Note_on_c, 0, 82, 87
2, 232312, Control_c, 0, 64, 56
2, 232320, Control_c, 0, 64, 0
2, 232368, Note_on_c, 0, 41, 64
2, 232392, Control_c, 0, 64, 88
2, 232400, Control_c, 0, 64, 127
2, 232464, Note_on_c, 0, 41, 0
2, 232516, Note_on_c, 0, 52, 41
2, 232644, Note_on_c, 0, 52, 0
2, 232660, Note_on_c, 0, 55, 65
2, 232808, Note_on_c, 0, 73, 0
2, 232808, Note_on_c, 0, 58, 55
2, 232820, Note_on_c, 0, 55, 0
2, 232952, Note_on_c, 0, 58, 0
2, 232952, Note_on_c, 0, 61, 52
2, 233064, Note_on_c, 0, 61, 0
2, 233084, Note_on_c, 0, 64, 60
2, 233192, Note_on_c, 0, 64, 0
2, 233236, Note_on_c, 0, 82, 0
2, 233244, Note_on_c, 0, 67, 56
2, 233308, Note_on_c, 0, 67, 0
2, 233356, Note_on_c, 0, 81, 88
2, 233360, Note_on_c, 0, 73, 58
2, 233480, Note_on_c, 0, 73, 0
2, 233508, Note_on_c, 0, 81, 0
2, 233556, Note_on_c, 0, 80, 80
2, 233568, Note_on_c, 0, 72, 66
2, 233664, Control_c, 0, 64, 56
2, 233672, Control_c, 0, 64, 0
2, 233720, Note_on_c, 0, 53, 57
2, 233756, Control_c, 0, 64, 56
2, 233764, Control_c, 0, 64, 127
2, 233864, Note_on_c, 0, 60, 57
2, 233904, Note_on_c, 0, 53, 0
2, 233996, Note_on_c, 0, 60, 0
2, 234020, Note_on_c, 0, 65, 60
2, 234176, Note_on_c, 0, 65, 0
2, 234232, Note_on_c, 0, 68, 54
2, 234320, Note_on_c, 0, 68, 0
2, 234428, Note_on_c, 0, 72, 0
2, 234444, Note_on_c, 0, 80, 0
2, 235288, Note_on_c, 0, 77, 81
2, 235300, Note_on_c, 0, 68, 39
2, 235380, Control_c, 0, 64, 40
2, 235396, Control_c, 0, 64, 88
2, 235408, Control_c, 0, 64, 127
2, 235448, Note_on_c, 0, 68, 0
2, 235448, Note_on_c, 0, 77, 0
2, 235632, Note_on_c, 0, 77, 89
2, 235640, Note_on_c, 0, 68, 46
2, 235700, Note_on_c, 0, 68, 0
2, 235744, Note_on_c, 0, 77, 0
2, 235864, Note_on_c, 0, 77, 95
2, 235868, Note_on_c, 0, 68, 66
2, 235932, Note_on_c, 0, 68, 0
2, 235992, Note_on_c, 0, 77, 0
2, 236128, Note_on_c, 0, 79, 93
2, 236144, Note_on_c, 0, 70, 55
2, 236244, Control_c, 0, 64, 88
2, 236256, Control_c, 0, 64, 24
2, 236268, Control_c, 0, 64, 0
2, 236332, Control_c, 0, 64, 24
2, 236344, Control_c, 0, 64, 88
2, 236356, Control_c, 0, 64, 127
2, 236496, Note_on_c, 0, 70, 0
2, 236656, Note_on_c, 0, 79, 0
2, 236756, Note_on_c, 0, 77, 78
2, 236776, Note_on_c, 0, 68, 36
2, 236796, Note_on_c, 0, 56, 28
2, 236800, Note_on_c, 0, 65, 35
2, 236812, Note_on_c, 0, 60, 28
2, 236876, Control_c, 0, 64, 88
2, 236888, Control_c, 0, 64, 24
2, 236904, Control_c, 0, 64, 0
2, 236976, Control_c, 0, 64, 40
2, 236992, Control_c, 0, 64, 104
2, 237004, Control_c, 0, 64, 127
2, 237044, Note_on_c, 0, 65, 0
2, 237044, Note_on_c, 0, 77, 0
2, 237056, Note_on_c, 0, 56, 0
2, 237064, Note_on_c, 0, 68, 0
2, 237072, Note_on_c, 0, 60, 0
2, 237116, Note_on_c, 0, 75, 82
2, 237128, Control_c, 0, 64, 56
2, 237132, Note_on_c, 0, 67, 52
2, 237140, Control_c, 0, 64, 0
2, 237204, Control_c, 0, 64, 56
2, 237216, Control_c, 0, 64, 127
2, 237308, Note_on_c, 0, 67, 0
2, 237376, Note_on_c, 0, 75, 0
2, 237448, Note_on_c, 0, 75, 93
2, 237456, Note_on_c, 0, 67, 75
2, 237520, Note_on_c, 0, 67, 0
2, 237576, Note_on_c, 0, 75, 0
2, 237668, Note_on_c, 0, 75, 98
2, 237676, Note_on_c, 0, 67, 74
2, 237764, Note_on_c, 0, 67, 0
2, 237872, Note_on_c, 0, 75, 0
2, 237936, Note_on_c, 0, 74, 89
2, 237960, Note_on_c, 0, 66, 33
2, 238052, Control_c, 0, 64, 104
2, 238064, Control_c, 0, 64, 40
2, 238076, Control_c, 0, 64, 0
2, 238164, Control_c, 0, 64, 88
2, 238176, Control_c, 0, 64, 127
2, 238376, Note_on_c, 0, 74, 0
2, 238416, Note_on_c, 0, 66, 0
2, 238432, Control_c, 0, 64, 72
2, 238436, Note_on_c, 0, 46, 50
2, 238444, Control_c, 0, 64, 56
2, 238452, Note_on_c, 0, 55, 55
2, 238456, Control_c, 0, 64, 88
2, 238468, Control_c, 0, 64, 127
2, 238492, Note_on_c, 0, 46, 0
2, 238496, Note_on_c, 0, 58, 31
2, 238536, Note_on_c, 0, 55, 0
2, 238540, Note_on_c, 0, 63, 42
2, 238552, Note_on_c, 0, 58, 0
2, 238596, Note_on_c, 0, 67, 65
2, 238680, Note_on_c, 0, 75, 89
2, 238712, Note_on_c, 0, 67, 0
2, 238740, Note_on_c, 0, 63, 0
2, 238824, Note_on_c, 0, 75, 0
2, 239156, Note_on_c, 0, 79, 92
2, 239176, Note_on_c, 0, 70, 54
2, 239328, Control_c, 0, 64, 24
2, 239340, Control_c, 0, 64, 0
2, 239428, Control_c, 0, 64, 72
2, 239444, Control_c, 0, 64, 127
2, 239464, Note_on_c, 0, 70, 0
2, 239652, Note_on_c, 0, 79, 0
2, 239756, Note_on_c, 0, 77, 89
2, 239764, Note_on_c, 0, 68, 56
2, 239832, Note_on_c, 0, 68, 0
2, 239960, Note_on_c, 0, 77, 0
2, 240076, Note_on_c, 0, 76, 97
2, 240084, Note_on_c, 0, 67, 63
2, 240128, Note_on_c, 0, 67, 0
2, 240308, Note_on_c, 0, 76, 0
2, 240364, Note_on_c, 0, 77, 97
2, 240376, Note_on_c, 0, 68, 60
2, 240464, Control_c, 0, 64, 88
2, 240480, Control_c, 0, 64, 0
2, 240488, Note_on_c, 0, 68, 0
2, 240520, Note_on_c, 0, 46, 60
2, 240544, Control_c, 0, 64, 56
2, 240556, Control_c, 0, 64, 127
2, 240572, Note_on_c, 0, 46, 0
2, 240592, Note_on_c, 0, 53, 55
2, 240632, Note_on_c, 0, 77, 0
2, 240632, Note_on_c, 0, 56, 54
2, 240708, Note_on_c, 0, 62, 54
2, 240744, Note_on_c, 0, 68, 55
2, 240812, Note_on_c, 0, 72, 78
2, 240828, Note_on_c, 0, 53, 0
2, 240908, Note_on_c, 0, 80, 88
2, 241004, Note_on_c, 0, 62, 0
2, 241012, Note_on_c, 0, 56, 0
2, 241220, Note_on_c, 0, 72, 0
2, 241228, Note_on_c, 0, 68, 0
2, 241228, Note_on_c, 0, 80, 0
2, 241612, Control_c, 0, 64, 24
2, 241620, Control_c, 0, 64, 40
2, 241628, Control_c, 0, 64, 72
2, 241636, Control_c, 0, 64, 88
2, 241644, Control_c, 0, 64, 104
2, 241652, Control_c, 0, 64, 127
2, 241780, Note_on_c, 0, 80, 58
2, 241792, Note_on_c, 0, 71, 40
2, 241796, Note_on_c, 0, 74, 34
2, 241856, Note_on_c, 0, 80, 0
2, 241876, Note_on_c, 0, 71, 0
2, 241880, Note_on_c, 0, 79, 47
2, 241888, Note_on_c, 0, 70, 44
2, 241960, Note_on_c, 0, 79, 0
2, 241968, Note_on_c, 0, 78, 57
2, 241968, Note_on_c, 0, 69, 46
2, 241972, Note_on_c, 0, 74, 0
2, 241980, Note_on_c, 0, 70, 0
2, 242000, Note_on_c, 0, 78, 0
2, 242016, Note_on_c, 0, 69, 0
2, 242084, Note_on_c, 0, 74, 55
2, 242088, Note_on_c, 0, 83, 54
2, 242092, Note_on_c, 0, 68, 28
2, 242092, Note_on_c, 0, 77, 41
2, 242148, Note_on_c, 0, 83, 0
2, 242156, Note_on_c, 0, 74, 0
2, 242164, Note_on_c, 0, 82, 54
2, 242168, Note_on_c, 0, 73, 51
2, 242180, Note_on_c, 0, 68, 0
2, 242208, Note_on_c, 0, 77, 0
2, 242240, Note_on_c, 0, 82, 0
2, 242252, Note_on_c, 0, 73, 0
2, 242260, Note_on_c, 0, 81, 64
2, 242260, Note_on_c, 0, 72, 56
2, 242280, Note_on_c, 0, 72, 0
2, 242292, Note_on_c, 0, 81, 0
2, 242356, Note_on_c, 0, 71, 56
2, 242356, Control_c, 0, 64, 104
2, 242360, Note_on_c, 0, 86, 71
2, 242360, Note_on_c, 0, 77, 62
2, 242360, Note_on_c, 0, 80, 51
2, 242364, Control_c, 0, 64, 24
2, 242372, Control_c, 0, 64, 0
2, 242396, Control_c, 0, 64, 24
2, 242404, Control_c, 0, 64, 88
2, 242412, Control_c, 0, 64, 127
2, 242440, Note_on_c, 0, 86, 0
2, 242444, Note_on_c, 0, 77, 0
2, 242444, Note_on_c, 0, 85, 71
2, 242448, Note_on_c, 0, 71, 0
2, 242452, Note_on_c, 0, 76, 64
2, 242468, Note_on_c, 0, 80, 0
2, 242504, Note_on_c, 0, 76, 0
2, 242520, Note_on_c, 0, 85, 0
2, 242536, Note_on_c, 0, 75, 58
2, 242540, Note_on_c, 0, 84, 73
2, 242584, Note_on_c, 0, 84, 0
2, 242584, Note_on_c, 0, 75, 0
2, 242620, Control_c, 0, 64, 104
2, 242628, Control_c, 0, 64, 56
2, 242636, Note_on_c, 0, 89, 80
2, 242636, Note_on_c, 0, 80, 40
2, 242636, Control_c, 0, 64, 0
2, 242644, Note_on_c, 0, 83, 52
2, 242644, Note_on_c, 0, 74, 41
2, 242660, Control_c, 0, 64, 24
2, 242668, Control_c, 0, 64, 88
2, 242676, Control_c, 0, 64, 127
2, 242696, Note_on_c, 0, 89, 0
2, 242716, Note_on_c, 0, 80, 0
2, 242724, Note_on_c, 0, 88, 75
2, 242732, Note_on_c, 0, 74, 0
2, 242732, Note_on_c, 0, 79, 52
2, 242788, Note_on_c, 0, 83, 0
2, 242792, Note_on_c, 0, 79, 0
2, 242804, Note_on_c, 0, 88, 0
2, 242816, Note_on_c, 0, 87, 60
2, 242820, Note_on_c, 0, 78, 51
2, 242856, Note_on_c, 0, 78, 0
2, 242864, Note_on_c, 0, 87, 0
2, 242920, Note_on_c, 0, 92, 83
2, 242920, Note_on_c, 0, 77, 43
2, 242928, Note_on_c, 0, 86, 47
2, 242932, Note_on_c, 0, 83, 50
2, 242936, Control_c, 0, 64, 72
2, 242944, Control_c, 0, 64, 24
2, 242952, Control_c, 0, 64, 0
2, 242960, Control_c, 0, 64, 24
2, 242968, Control_c, 0, 64, 72
2, 242976, Control_c, 0, 64, 127
2, 242992, Note_on_c, 0, 92, 0
2, 243012, Note_on_c, 0, 91, 75
2, 243012, Note_on_c, 0, 82, 58
2, 243020, Note_on_c, 0, 77, 0
2, 243020, Note_on_c, 0, 83, 0
2, 243060, Note_on_c, 0, 86, 0
2, 243076, Note_on_c, 0, 91, 0
2, 243088, Note_on_c, 0, 82, 0
2, 243096, Note_on_c, 0, 90, 77
2, 243100, Note_on_c, 0, 81, 56
2, 243128, Note_on_c, 0, 81, 0
2, 243132, Note_on_c, 0, 90, 0
2, 243196, Note_on_c, 0, 95, 79
2, 243196, Note_on_c, 0, 80, 60
2, 243200, Note_on_c, 0, 86, 62
2, 243200, Note_on_c, 0, 89, 56
2, 243208, Control_c, 0, 64, 72
2, 243216, Control_c, 0, 64, 24
2, 243240, Control_c, 0, 64, 104
2, 243248, Control_c, 0, 64, 127
2, 243276, Note_on_c, 0, 95, 0
2, 243280, Note_on_c, 0, 86, 0
2, 243280, Note_on_c, 0, 94, 78
2, 243284, Note_on_c, 0, 85, 58
2, 243292, Note_on_c, 0, 80, 0
2, 243324, Note_on_c, 0, 89, 0
2, 243360, Note_on_c, 0, 94, 0
2, 243364, Note_on_c, 0, 85, 0
2, 243372, Note_on_c, 0, 93, 73
2, 243372, Note_on_c, 0, 84, 69
2, 243420, Note_on_c, 0, 84, 0
2, 243420, Note_on_c, 0, 93, 0
2, 243464, Note_on_c, 0, 98, 92
2, 243464, Control_c, 0, 64, 56
2, 243468, Note_on_c, 0, 83, 70
2, 243468, Note_on_c, 0, 92, 71
2, 243472, Control_c, 0, 64, 0
2, 243480, Note_on_c, 0, 89, 28
2, 243496, Control_c, 0, 64, 56
2, 243504, Control_c, 0, 64, 127
2, 243544, Note_on_c, 0, 98, 0
2, 243552, Note_on_c, 0, 88, 63
2, 243552, Note_on_c, 0, 97, 81
2, 243560, Note_on_c, 0, 89, 0
2, 243564, Note_on_c, 0, 83, 0
2, 243592, Note_on_c, 0, 92, 0
2, 243620, Note_on_c, 0, 88, 0
2, 243624, Note_on_c, 0, 97, 0
2, 243640, Note_on_c, 0, 87, 63
2, 243644, Note_on_c, 0, 96, 85
2, 243688, Note_on_c, 0, 87, 0
2, 243704, Note_on_c, 0, 96, 0
2, 243736, Note_on_c, 0, 86, 59
2, 243736, Control_c, 0, 64, 56
2, 243740, Note_on_c, 0, 101, 94
2, 243744, Note_on_c, 0, 92, 62
2, 243744, Note_on_c, 0, 95, 73
2, 243744, Control_c, 0, 64, 0
2, 243768, Control_c, 0, 64, 88
2, 243776, Control_c, 0, 64, 127
2, 243816, Note_on_c, 0, 101, 0
2, 243824, Note_on_c, 0, 100, 75
2, 243836, Note_on_c, 0, 92, 0
2, 243848, Note_on_c, 0, 91, 39
2, 243868, Note_on_c, 0, 86, 0
2, 243900, Note_on_c, 0, 91, 0
2, 243908, Note_on_c, 0, 99, 81
2, 243912, Note_on_c, 0, 100, 0
2, 243916, Note_on_c, 0, 90, 49
2, 243940, Note_on_c, 0, 95, 0
2, 243944, Note_on_c, 0, 90, 0
2, 243948, Note_on_c, 0, 99, 0
2, 244000, Control_c, 0, 64, 88
2, 244004, Note_on_c, 0, 98, 82
2, 244004, Note_on_c, 0, 89, 63
2, 244008, Note_on_c, 0, 83, 52
2, 244008, Note_on_c, 0, 92, 72
2, 244008, Control_c, 0, 64, 56
2, 244016, Control_c, 0, 64, 72
2, 244024, Control_c, 0, 64, 104
2, 244028, Control_c, 0, 64, 127
2, 244052, Note_on_c, 0, 98, 0
2, 244088, Note_on_c, 0, 92, 0
2, 244088, Note_on_c, 0, 97, 77
2, 244092, Note_on_c, 0, 88, 64
2, 244104, Note_on_c, 0, 89, 0
2, 244144, Note_on_c, 0, 83, 0
2, 244152, Note_on_c, 0, 88, 0
2, 244156, Note_on_c, 0, 97, 0
2, 244172, Note_on_c, 0, 87, 54
2, 244176, Note_on_c, 0, 96, 80
2, 244208, Note_on_c, 0, 87, 0
2, 244224, Note_on_c, 0, 96, 0
2, 244268, Note_on_c, 0, 95, 80
2, 244272, Control_c, 0, 64, 56
2, 244276, Note_on_c, 0, 80, 50
2, 244276, Note_on_c, 0, 89, 60
2, 244276, Note_on_c, 0, 86, 59
2, 244280, Control_c, 0, 64, 24
2, 244300, Control_c, 0, 64, 127
2, 244336, Note_on_c, 0, 95, 0
2, 244340, Note_on_c, 0, 86, 0
2, 244352, Note_on_c, 0, 94, 71
2, 244352, Note_on_c, 0, 85, 56
2, 244388, Note_on_c, 0, 89, 0
2, 244396, Note_on_c, 0, 80, 0
2, 244404, Note_on_c, 0, 94, 0
2, 244424, Note_on_c, 0, 85, 0
2, 244436, Note_on_c, 0, 93, 78
2, 244448, Note_on_c, 0, 84, 59
2, 244468, Note_on_c, 0, 93, 0
2, 244500, Note_on_c, 0, 84, 0
2, 244532, Note_on_c, 0, 92, 77
2, 244532, Control_c, 0, 64, 72
2, 244536, Note_on_c, 0, 86, 56
2, 244536, Note_on_c, 0, 83, 56
2, 244540, Control_c, 0, 64, 24
2, 244548, Note_on_c, 0, 77, 46
2, 244564, Control_c, 0, 64, 104
2, 244572, Control_c, 0, 64, 127
2, 244580, Note_on_c, 0, 83, 0
2, 244588, Note_on_c, 0, 92, 0
2, 244616, Note_on_c, 0, 91, 71
2, 244620, Note_on_c, 0, 77, 0
2, 244620, Note_on_c, 0, 82, 48
2, 244672, Note_on_c, 0, 86, 0
2, 244676, Note_on_c, 0, 91, 0
2, 244680, Note_on_c, 0, 82, 0
2, 244696, Note_on_c, 0, 90, 77
2, 244712, Note_on_c, 0, 81, 47
2, 244732, Note_on_c, 0, 90, 0
2, 244764, Note_on_c, 0, 81, 0
2, 244788, Control_c, 0, 64, 40
2, 244792, Note_on_c, 0, 89, 85
2, 244796, Control_c, 0, 64, 0
2, 244800, Note_on_c, 0, 83, 51
2, 244804, Note_on_c, 0, 74, 50
2, 244804, Note_on_c, 0, 80, 48
2, 244820, Control_c, 0, 64, 88
2, 244828, Control_c, 0, 64, 127
2, 244840, Note_on_c, 0, 89, 0
2, 244876, Note_on_c, 0, 88, 75
2, 244888, Note_on_c, 0, 80, 0
2, 244908, Note_on_c, 0, 79, 39
2, 244956, Note_on_c, 0, 79, 0
2, 244964, Note_on_c, 0, 88, 0
2, 244964, Note_on_c, 0, 87, 78
2, 244972, Note_on_c, 0, 78, 50
2, 244984, Note_on_c, 0, 74, 0
2, 245000, Note_on_c, 0, 83, 0
2, 245000, Note_on_c, 0, 87, 0
2, 245012, Note_on_c, 0, 78, 0
2, 245052, Control_c, 0, 64, 88
2, 245060, Note_on_c, 0, 86, 78
2, 245060, Control_c, 0, 64, 24
2, 245064, Note_on_c, 0, 77, 66
2, 245068, Note_on_c, 0, 80, 55
2, 245068, Control_c, 0, 64, 0
2, 245076, Note_on_c, 0, 71, 35
2, 245076, Control_c, 0, 64, 24
2, 245084, Control_c, 0, 64, 72
2, 245092, Control_c, 0, 64, 127
2, 245112, Note_on_c, 0, 86, 0
2, 245136, Note_on_c, 0, 77, 0
2, 245140, Note_on_c, 0, 85, 73
2, 245144, Note_on_c, 0, 76, 55
2, 245176, Note_on_c, 0, 80, 0
2, 245200, Note_on_c, 0, 76, 0
2, 245204, Note_on_c, 0, 85, 0
2, 245216, Note_on_c, 0, 71, 0
2, 245228, Note_on_c, 0, 75, 50
2, 245232, Note_on_c, 0, 84, 70
2, 245268, Note_on_c, 0, 75, 0
2, 245276, Note_on_c, 0, 84, 0
2, 245316, Control_c, 0, 64, 104
2, 245324, Note_on_c, 0, 83, 77
2, 245324, Note_on_c, 0, 74, 64
2, 245324, Control_c, 0, 64, 40
2, 245328, Note_on_c, 0, 68, 49
2, 245328, Note_on_c, 0, 77, 57
2, 245332, Control_c, 0, 64, 0
2, 245340, Control_c, 0, 64, 24
2, 245348, Control_c, 0, 64, 56
2, 245356, Control_c, 0, 64, 104
2, 245364, Control_c, 0, 64, 127
2, 245388, Note_on_c, 0, 83, 0
2, 245396, Note_on_c, 0, 74, 0
2, 245404, Note_on_c, 0, 82, 71
2, 245408, Note_on_c, 0, 73, 56
2, 245432, Note_on_c, 0, 77, 0
2, 245452, Note_on_c, 0, 82, 0
2, 245456, Note_on_c, 0, 68, 0
2, 245480, Note_on_c, 0, 73, 0
2, 245492, Note_on_c, 0, 81, 70
2, 245504, Note_on_c, 0, 72, 60
2, 245528, Note_on_c, 0, 81, 0
2, 245552, Note_on_c, 0, 72, 0
2, 245588, Note_on_c, 0, 80, 77
2, 245588, Note_on_c, 0, 71, 47
2, 245588, Control_c, 0, 64, 88
2, 245592, Note_on_c, 0, 74, 58
2, 245596, Control_c, 0, 64, 40
2, 245604, Control_c, 0, 64, 0
2, 245612, Note_on_c, 0, 65, 35
2, 245620, Control_c, 0, 64, 40
2, 245628, Control_c, 0, 64, 88
2, 245632, Control_c, 0, 64, 127
2, 245640, Note_on_c, 0, 71, 0
2, 245644, Note_on_c, 0, 80, 0
2, 245680, Note_on_c, 0, 79, 78
2, 245684, Note_on_c, 0, 70, 44
2, 245724, Note_on_c, 0, 74, 0
2, 245728, Note_on_c, 0, 65, 0
2, 245740, Note_on_c, 0, 79, 0
2, 245744, Note_on_c, 0, 70, 0
2, 245760, Note_on_c, 0, 78, 80
2, 245776, Note_on_c, 0, 69, 44
2, 245796, Note_on_c, 0, 78, 0
2, 245812, Note_on_c, 0, 69, 0
2, 245860, Note_on_c, 0, 77, 82
2, 245860, Note_on_c, 0, 68, 46
2, 245860, Control_c, 0, 64, 104
2, 245864, Note_on_c, 0, 71, 52
2, 245864, Control_c, 0, 64, 40
2, 245868, Note_on_c, 0, 62, 58
2, 245876, Control_c, 0, 64, 0
2, 245904, Control_c, 0, 64, 40
2, 245912, Control_c, 0, 64, 104
2, 245920, Control_c, 0, 64, 127
2, 245940, Note_on_c, 0, 77, 0
2, 245944, Note_on_c, 0, 68, 0
2, 245952, Note_on_c, 0, 70, 50
2, 245952, Note_on_c, 0, 79, 78
2, 246008, Note_on_c, 0, 79, 0
2, 246008, Note_on_c, 0, 70, 0
2, 246032, Note_on_c, 0, 68, 48
2, 246040, Note_on_c, 0, 77, 75
2, 246108, Note_on_c, 0, 77, 0
2, 246108, Note_on_c, 0, 68, 0
2, 246124, Note_on_c, 0, 76, 80
2, 246144, Note_on_c, 0, 67, 34
2, 246196, Note_on_c, 0, 76, 0
2, 246208, Note_on_c, 0, 77, 86
2, 246212, Note_on_c, 0, 67, 0
2, 246220, Note_on_c, 0, 68, 60
2, 246224, Note_on_c, 0, 62, 0
2, 246240, Note_on_c, 0, 71, 0
2, 246256, Note_on_c, 0, 77, 0
2, 246320, Note_on_c, 0, 68, 0
2, 246340, Note_on_c, 0, 80, 74
2, 246352, Note_on_c, 0, 65, 46
2, 246356, Note_on_c, 0, 74, 62
2, 246356, Note_on_c, 0, 71, 47
2, 246368, Control_c, 0, 64, 104
2, 246376, Control_c, 0, 64, 24
2, 246384, Control_c, 0, 64, 0
2, 246408, Control_c, 0, 64, 72
2, 246416, Control_c, 0, 64, 127
2, 246428, Note_on_c, 0, 74, 0
2, 246460, Note_on_c, 0, 80, 0
2, 246504, Note_on_c, 0, 71, 0
2, 246536, Note_on_c, 0, 79, 77
2, 246540, Note_on_c, 0, 70, 41
2, 246540, Note_on_c, 0, 64, 39
2, 246544, Note_on_c, 0, 73, 41
2, 246572, Note_on_c, 0, 65, 0
2, 246572, Control_c, 0, 64, 88
2, 246580, Control_c, 0, 64, 24
2, 246600, Control_c, 0, 64, 127
2, 246648, Note_on_c, 0, 64, 0
2, 246652, Note_on_c, 0, 70, 0
2, 246660, Note_on_c, 0, 79, 0
2, 246664, Note_on_c, 0, 73, 0
2, 246700, Note_on_c, 0, 78, 72
2, 246712, Note_on_c, 0, 69, 39
2, 246716, Note_on_c, 0, 72, 48
2, 246724, Note_on_c, 0, 63, 26
2, 246756, Control_c, 0, 64, 72
2, 246764, Control_c, 0, 64, 24
2, 246772, Control_c, 0, 64, 40
2, 246780, Control_c, 0, 64, 88
2, 246788, Control_c, 0, 64, 127
2, 246808, Note_on_c, 0, 72, 0
2, 246840, Note_on_c, 0, 78, 0
2, 246908, Note_on_c, 0, 69, 0
2, 246920, Note_on_c, 0, 63, 0
2, 246940, Note_on_c, 0, 77, 66
2, 246944, Note_on_c, 0, 71, 44
2, 246956, Note_on_c, 0, 68, 33
2, 246960, Note_on_c, 0, 62, 29
2, 247036, Control_c, 0, 64, 88
2, 247044, Control_c, 0, 64, 24
2, 247052, Control_c, 0, 64, 0
2, 247120, Control_c, 0, 64, 56
2, 247128, Control_c, 0, 64, 127
2, 247456, Note_on_c, 0, 62, 0
2, 247468, Note_on_c, 0, 68, 0
2, 247468, Note_on_c, 0, 71, 0
2, 247480, Note_on_c, 0, 77, 0
2, 247748, Note_on_c, 0, 79, 70
2, 247748, Note_on_c, 0, 68, 42
2, 247756, Note_on_c, 0, 70, 40
2, 247756, Note_on_c, 0, 74, 43
2, 247760, Note_on_c, 0, 58, 43
2, 247812, Control_c, 0, 64, 104
2, 247820, Control_c, 0, 64, 40
2, 248260, Note_on_c, 0, 74, 0
2, 248268, Note_on_c, 0, 70, 0
2, 248268, Note_on_c, 0, 58, 0
2, 248272, Note_on_c, 0, 79, 0
2, 248280, Note_on_c, 0, 68, 0
2, 248508, Note_on_c, 0, 75, 78
2, 248524, Control_c, 0, 64, 56
2, 248536, Control_c, 0, 64, 127
2, 248624, Note_on_c, 0, 70, 41
2, 248648, Note_on_c, 0, 75, 0
2, 248684, Note_on_c, 0, 70, 0
2, 248720, Note_on_c, 0, 67, 27
2, 248756, Note_on_c, 0, 67, 0
2, 248764, Note_on_c, 0, 63, 48
2, 248788, Note_on_c, 0, 63, 0
2, 248848, Note_on_c, 0, 77, 62
2, 248904, Note_on_c, 0, 82, 70
2, 248932, Note_on_c, 0, 77, 0
2, 248980, Note_on_c, 0, 89, 70
2, 248984, Note_on_c, 0, 82, 0
2, 249020, Note_on_c, 0, 89, 0
2, 249048, Control_c, 0, 64, 104
2, 249052, Note_on_c, 0, 79, 81
2, 249056, Control_c, 0, 64, 72
2, 249072, Control_c, 0, 64, 88
2, 249084, Control_c, 0, 64, 127
2, 249136, Note_on_c, 0, 79, 0
2, 249136, Note_on_c, 0, 75, 56
2, 249200, Note_on_c, 0, 70, 49
2, 249208, Note_on_c, 0, 75, 0
2, 249248, Note_on_c, 0, 67, 49
2, 249272, Note_on_c, 0, 70, 0
2, 249296, Note_on_c, 0, 67, 0
2, 249344, Note_on_c, 0, 80, 71
2, 249396, Note_on_c, 0, 87, 71
2, 249424, Note_on_c, 0, 80, 0
2, 249464, Note_on_c, 0, 92, 79
2, 249484, Note_on_c, 0, 87, 0
2, 249512, Note_on_c, 0, 92, 0
2, 249548, Note_on_c, 0, 82, 74
2, 249548, Control_c, 0, 64, 72
2, 249556, Control_c, 0, 64, 0
2, 249592, Control_c, 0, 64, 127
2, 249632, Note_on_c, 0, 82, 0
2, 249636, Note_on_c, 0, 79, 54
2, 249688, Note_on_c, 0, 79, 0
2, 249692, Note_on_c, 0, 75, 54
2, 249748, Note_on_c, 0, 70, 60
2, 249752, Note_on_c, 0, 75, 0
2, 249792, Note_on_c, 0, 70, 0
2, 249848, Note_on_c, 0, 82, 65
2, 249892, Note_on_c, 0, 87, 54
2, 249928, Note_on_c, 0, 91, 73
2, 249932, Note_on_c, 0, 82, 0
2, 249956, Note_on_c, 0, 87, 0
2, 249976, Note_on_c, 0, 94, 66
2, 249980, Note_on_c, 0, 91, 0
2, 250000, Note_on_c, 0, 94, 0
2, 250040, Note_on_c, 0, 84, 80
2, 250048, Control_c, 0, 64, 56
2, 250056, Control_c, 0, 64, 0
2, 250092, Control_c, 0, 64, 104
2, 250104, Control_c, 0, 64, 127
2, 250116, Note_on_c, 0, 84, 0
2, 250124, Note_on_c, 0, 79, 62
2, 250168, Note_on_c, 0, 79, 0
2, 250168, Note_on_c, 0, 75, 52
2, 250244, Note_on_c, 0, 75, 0
2, 250252, Note_on_c, 0, 70, 54
2, 250316, Note_on_c, 0, 70, 0
2, 250376, Note_on_c, 0, 82, 78
2, 250424, Note_on_c, 0, 87, 65
2, 250468, Note_on_c, 0, 82, 0
2, 250476, Note_on_c, 0, 91, 72
2, 250500, Note_on_c, 0, 87, 0
2, 250524, Note_on_c, 0, 94, 66
2, 250528, Note_on_c, 0, 91, 0
2, 250564, Note_on_c, 0, 94, 0
2, 250576, Note_on_c, 0, 82, 81
2, 250592, Control_c, 0, 64, 104
2, 250604, Control_c, 0, 64, 40
2, 250616, Control_c, 0, 64, 0
2, 250636, Control_c, 0, 64, 40
2, 250648, Control_c, 0, 64, 104
2, 250660, Control_c, 0, 64, 127
2, 250672, Note_on_c, 0, 82, 0
2, 250684, Note_on_c, 0, 77, 46
2, 250720, Note_on_c, 0, 77, 0
2, 250744, Note_on_c, 0, 74, 52
2, 250800, Note_on_c, 0, 74, 0
2, 250808, Note_on_c, 0, 70, 52
2, 250852, Note_on_c, 0, 70, 0
2, 250912, Note_on_c, 0, 81, 82
2, 250960, Note_on_c, 0, 86, 69
2, 251000, Note_on_c, 0, 89, 69
2, 251016, Note_on_c, 0, 81, 0
2, 251056, Note_on_c, 0, 86, 0
2, 251056, Note_on_c, 0, 93, 70
2, 251060, Note_on_c, 0, 89, 0
2, 251100, Note_on_c, 0, 93, 0
2, 251112, Note_on_c, 0, 80, 73
2, 251160, Control_c, 0, 64, 40
2, 251172, Control_c, 0, 64, 0
2, 251188, Note_on_c, 0, 77, 67
2, 251196, Control_c, 0, 64, 56
2, 251204, Note_on_c, 0, 80, 0
2, 251208, Control_c, 0, 64, 127
2, 251244, Note_on_c, 0, 77, 0
2, 251248, Note_on_c, 0, 74, 55
2, 251316, Note_on_c, 0, 74, 0
2, 251316, Note_on_c, 0, 70, 56
2, 251376, Note_on_c, 0, 70, 0
2, 251452, Note_on_c, 0, 79, 79
2, 251488, Note_on_c, 0, 82, 57
2, 251540, Note_on_c, 0, 86, 71
2, 251544, Note_on_c, 0, 79, 0
2, 251552, Note_on_c, 0, 82, 0
2, 251584, Note_on_c, 0, 91, 67
2, 251596, Note_on_c, 0, 86, 0
2, 251632, Note_on_c, 0, 91, 0
2, 251640, Note_on_c, 0, 77, 80
2, 251648, Control_c, 0, 64, 104
2, 251660, Control_c, 0, 64, 24
2, 251672, Control_c, 0, 64, 0
2, 251684, Control_c, 0, 64, 24
2, 251692, Control_c, 0, 64, 72
2, 251704, Control_c, 0, 64, 127
2, 251716, Note_on_c, 0, 77, 0
2, 251724, Note_on_c, 0, 70, 54
2, 251784, Note_on_c, 0, 70, 0
2, 251784, Note_on_c, 0, 68, 43
2, 251840, Note_on_c, 0, 68, 0
2, 251844, Note_on_c, 0, 63, 48
2, 251904, Note_on_c, 0, 63, 0
2, 251972, Note_on_c, 0, 70, 65
2, 252048, Note_on_c, 0, 74, 54
2, 252052, Note_on_c, 0, 70, 0
2, 252064, Note_on_c, 0, 77, 62
2, 252076, Note_on_c, 0, 74, 0
2, 252096, Note_on_c, 0, 77, 0
2, 252100, Note_on_c, 0, 82, 63
2, 252144, Note_on_c, 0, 82, 0
2, 252164, Note_on_c, 0, 72, 77
2, 252228, Control_c, 0, 64, 56
2, 252240, Control_c, 0, 64, 0
2, 252244, Note_on_c, 0, 68, 56
2, 252276, Control_c, 0, 64, 104
2, 252288, Note_on_c, 0, 72, 0
2, 252288, Control_c, 0, 64, 127
2, 252344, Note_on_c, 0, 68, 0
2, 252352, Note_on_c, 0, 63, 50
2, 252440, Note_on_c, 0, 63, 0
2, 252484, Note_on_c, 0, 70, 59
2, 252556, Note_on_c, 0, 70, 0
2, 252560, Note_on_c, 0, 74, 49
2, 252580, Note_on_c, 0, 77, 63
2, 252596, Note_on_c, 0, 74, 0
2, 252632, Note_on_c, 0, 82, 72
2, 252636, Note_on_c, 0, 77, 0
2, 252672, Note_on_c, 0, 82, 0
2, 252708, Note_on_c, 0, 77, 81
2, 252716, Control_c, 0, 64, 104
2, 252728, Control_c, 0, 64, 24
2, 252740, Control_c, 0, 64, 0
2, 252752, Control_c, 0, 64, 24
2, 252760, Control_c, 0, 64, 72
2, 252772, Control_c, 0, 64, 127
2, 252776, Note_on_c, 0, 74, 69
2, 252852, Note_on_c, 0, 70, 56
2, 252864, Note_on_c, 0, 74, 0
2, 252892, Note_on_c, 0, 77, 0
2, 252916, Note_on_c, 0, 68, 46
2, 252936, Note_on_c, 0, 70, 0
2, 252968, Note_on_c, 0, 68, 0
2, 252984, Note_on_c, 0, 80, 83
2, 253056, Note_on_c, 0, 86, 64
2, 253060, Note_on_c, 0, 80, 0
2, 253080, Note_on_c, 0, 89, 67
2, 253112, Note_on_c, 0, 86, 0
2, 253124, Note_on_c, 0, 92, 71
2, 253128, Note_on_c, 0, 89, 0
2, 253164, Note_on_c, 0, 92, 0
2, 253208, Note_on_c, 0, 84, 89
2, 253228, Control_c, 0, 64, 72
2, 253240, Control_c, 0, 64, 40
2, 253252, Control_c, 0, 64, 56
2, 253260, Control_c, 0, 64, 104
2, 253272, Control_c, 0, 64, 127
2, 253284, Note_on_c, 0, 80, 66
2, 253300, Note_on_c, 0, 84, 0
2, 253352, Note_on_c, 0, 77, 57
2, 253356, Note_on_c, 0, 80, 0
2, 253412, Note_on_c, 0, 74, 56
2, 253436, Note_on_c, 0, 77, 0
2, 253464, Note_on_c, 0, 74, 0
2, 253500, Note_on_c, 0, 82, 77
2, 253564, Note_on_c, 0, 86, 59
2, 253576, Note_on_c, 0, 89, 72
2, 253584, Note_on_c, 0, 82, 0
2, 253624, Note_on_c, 0, 86, 0
2, 253632, Note_on_c, 0, 89, 0
2, 253636, Note_on_c, 0, 94, 69
2, 253680, Note_on_c, 0, 94, 0
2, 253700, Note_on_c, 0, 82, 79
2, 253752, Control_c, 0, 64, 72
2, 253760, Control_c, 0, 64, 0
2, 253772, Control_c, 0, 64, 24
2, 253784, Control_c, 0, 64, 72
2, 253792, Note_on_c, 0, 79, 69
2, 253796, Control_c, 0, 64, 127
2, 253800, Note_on_c, 0, 82, 0
2, 253852, Note_on_c, 0, 75, 41
2, 253872, Note_on_c, 0, 79, 0
2, 253920, Note_on_c, 0, 73, 60
2, 253960, Note_on_c, 0, 75, 0
2, 253984, Note_on_c, 0, 73, 0
2, 254024, Note_on_c, 0, 79, 77
2, 254080, Note_on_c, 0, 82, 55
2, 254112, Note_on_c, 0, 87, 73
2, 254140, Note_on_c, 0, 79, 0
2, 254144, Note_on_c, 0, 82, 0
2, 254176, Note_on_c, 0, 87, 0
2, 254176, Note_on_c, 0, 91, 64
2, 254212, Note_on_c, 0, 91, 0
2, 254232, Note_on_c, 0, 80, 77
2, 254260, Control_c, 0, 64, 72
2, 254272, Control_c, 0, 64, 0
2, 254296, Control_c, 0, 64, 24
2, 254308, Control_c, 0, 64, 88
2, 254312, Note_on_c, 0, 75, 57
2, 254320, Control_c, 0, 64, 127
2, 254328, Note_on_c, 0, 80, 0
2, 254376, Note_on_c, 0, 75, 0
2, 254388, Note_on_c, 0, 72, 51
2, 254452, Note_on_c, 0, 72, 0
2, 254460, Note_on_c, 0, 68, 49
2, 254524, Note_on_c, 0, 68, 0
2, 254544, Note_on_c, 0, 77, 81
2, 254600, Note_on_c, 0, 80, 57
2, 254640, Note_on_c, 0, 77, 0
2, 254640, Note_on_c, 0, 84, 69
2, 254664, Note_on_c, 0, 80, 0
2, 254696, Note_on_c, 0, 84, 0
2, 254696, Note_on_c, 0, 89, 59
2, 254736, Note_on_c, 0, 89, 0
2, 254736, Note_on_c, 0, 75, 74
2, 254740, Control_c, 0, 64, 72
2, 254752, Control_c, 0, 64, 0
2, 254772, Control_c, 0, 64, 40
2, 254784, Control_c, 0, 64, 104
2, 254796, Control_c, 0, 64, 127
2, 254804, Note_on_c, 0, 70, 60
2, 254820, Note_on_c, 0, 75, 0
2, 254856, Note_on_c, 0, 67, 46
2, 254860, Note_on_c, 0, 70, 0
2, 254880, Note_on_c, 0, 67, 0
2, 254936, Note_on_c, 0, 58, 58
2, 254984, Note_on_c, 0, 58, 0
2, 255040, Note_on_c, 0, 70, 66
2, 255084, Note_on_c, 0, 70, 0
2, 255120, Note_on_c, 0, 79, 55
2, 255124, Note_on_c, 0, 82, 65
2, 255148, Note_on_c, 0, 79, 0
2, 255180, Note_on_c, 0, 82, 0
2, 255180, Note_on_c, 0, 87, 70
2, 255216, Note_on_c, 0, 87, 0
2, 255264, Note_on_c, 0, 79, 85
2, 255264, Control_c, 0, 64, 88
2, 255272, Control_c, 0, 64, 0
2, 255308, Control_c, 0, 64, 40
2, 255320, Control_c, 0, 64, 104
2, 255332, Control_c, 0, 64, 127
2, 255356, Note_on_c, 0, 74, 71
2, 255360, Note_on_c, 0, 79, 0
2, 255420, Note_on_c, 0, 70, 52
2, 255424, Note_on_c, 0, 74, 0
2, 255480, Note_on_c, 0, 68, 62
2, 255500, Note_on_c, 0, 70, 0
2, 255540, Note_on_c, 0, 68, 0
2, 255580, Note_on_c, 0, 77, 80
2, 255612, Note_on_c, 0, 82, 57
2, 255676, Note_on_c, 0, 77, 0
2, 255680, Note_on_c, 0, 86, 41
2, 255688, Note_on_c, 0, 82, 0
2, 255724, Note_on_c, 0, 86, 0
2, 255724, Note_on_c, 0, 89, 40
2, 255764, Note_on_c, 0, 75, 74
2, 255776, Note_on_c, 0, 89, 0
2, 255808, Control_c, 0, 64, 72
2, 255820, Control_c, 0, 64, 0
2, 255848, Note_on_c, 0, 70, 54
2, 255872, Control_c, 0, 64, 88
2, 255876, Note_on_c, 0, 75, 0
2, 255884, Control_c, 0, 64, 127
2, 255908, Note_on_c, 0, 70, 0
2, 255924, Note_on_c, 0, 67, 49
2, 256000, Note_on_c, 0, 67, 0
2, 256000, Note_on_c, 0, 63, 50
2, 256056, Note_on_c, 0, 63, 0
2, 256116, Note_on_c, 0, 70, 55
2, 256176, Note_on_c, 0, 70, 0
2, 256208, Note_on_c, 0, 82, 50
2, 256272, Note_on_c, 0, 82, 0
2, 256300, Note_on_c, 0, 75, 63
2, 256316, Control_c, 0, 64, 56
2, 256324, Note_on_c, 0, 66, 49
2, 256332, Control_c, 0, 64, 0
2, 256340, Control_c, 0, 64, 24
2, 256352, Control_c, 0, 64, 56
2, 256364, Control_c, 0, 64, 104
2, 256376, Control_c, 0, 64, 127
2, 256388, Note_on_c, 0, 75, 0
2, 256404, Note_on_c, 0, 83, 63
2, 256408, Note_on_c, 0, 66, 0
2, 256428, Note_on_c, 0, 69, 44
2, 256456, Note_on_c, 0, 69, 0
2, 256464, Note_on_c, 0, 83, 0
2, 256476, Note_on_c, 0, 75, 59
2, 256504, Note_on_c, 0, 72, 44
2, 256540, Note_on_c, 0, 75, 0
2, 256548, Note_on_c, 0, 72, 0
2, 256556, Note_on_c, 0, 76, 59
2, 256556, Control_c, 0, 64, 88
2, 256568, Control_c, 0, 64, 56
2, 256580, Control_c, 0, 64, 72
2, 256592, Note_on_c, 0, 67, 35
2, 256592, Control_c, 0, 64, 104
2, 256604, Control_c, 0, 64, 127
2, 256624, Note_on_c, 0, 76, 0
2, 256644, Note_on_c, 0, 84, 65
2, 256672, Note_on_c, 0, 67, 0
2, 256676, Note_on_c, 0, 70, 36
2, 256696, Note_on_c, 0, 70, 0
2, 256708, Note_on_c, 0, 84, 0
2, 256724, Note_on_c, 0, 76, 62
2, 256732, Note_on_c, 0, 72, 33
2, 256780, Note_on_c, 0, 72, 0
2, 256796, Control_c, 0, 64, 104
2, 256804, Note_on_c, 0, 76, 0
2, 256804, Note_on_c, 0, 68, 51
2, 256808, Note_on_c, 0, 77, 64
2, 256808, Control_c, 0, 64, 72
2, 256816, Control_c, 0, 64, 88
2, 256828, Control_c, 0, 64, 127
2, 256872, Note_on_c, 0, 77, 0
2, 256872, Note_on_c, 0, 68, 0
2, 256884, Note_on_c, 0, 70, 58
2, 256888, Note_on_c, 0, 85, 67
2, 256924, Note_on_c, 0, 70, 0
2, 256956, Note_on_c, 0, 85, 0
2, 256980, Note_on_c, 0, 77, 73
2, 256980, Note_on_c, 0, 73, 25
2, 257004, Note_on_c, 0, 73, 0
2, 257044, Note_on_c, 0, 77, 0
2, 257048, Note_on_c, 0, 69, 47
2, 257052, Note_on_c, 0, 78, 81
2, 257068, Control_c, 0, 64, 72
2, 257080, Control_c, 0, 64, 40
2, 257088, Control_c, 0, 64, 72
2, 257100, Control_c, 0, 64, 88
2, 257112, Control_c, 0, 64, 127
2, 257132, Note_on_c, 0, 78, 0
2, 257132, Note_on_c, 0, 69, 0
2, 257136, Note_on_c, 0, 86, 75
2, 257140, Note_on_c, 0, 72, 64
2, 257188, Note_on_c, 0, 72, 0
2, 257204, Note_on_c, 0, 86, 0
2, 257220, Note_on_c, 0, 74, 37
2, 257224, Note_on_c, 0, 78, 65
2, 257264, Note_on_c, 0, 74, 0
2, 257284, Control_c, 0, 64, 88
2, 257296, Control_c, 0, 64, 24
2, 257300, Note_on_c, 0, 78, 0
2, 257300, Note_on_c, 0, 77, 80
2, 257304, Note_on_c, 0, 68, 43
2, 257328, Control_c, 0, 64, 88
2, 257340, Control_c, 0, 64, 127
2, 257364, Note_on_c, 0, 77, 0
2, 257368, Note_on_c, 0, 85, 80
2, 257380, Note_on_c, 0, 68, 0
2, 257452, Note_on_c, 0, 85, 0
2, 257460, Note_on_c, 0, 77, 55
2, 257460, Note_on_c, 0, 73, 28
2, 257528, Note_on_c, 0, 73, 0
2, 257532, Control_c, 0, 64, 88
2, 257536, Note_on_c, 0, 77, 0
2, 257536, Note_on_c, 0, 76, 71
2, 257544, Control_c, 0, 64, 40
2, 257548, Note_on_c, 0, 67, 43
2, 257580, Control_c, 0, 64, 104
2, 257588, Control_c, 0, 64, 127
2, 257604, Note_on_c, 0, 76, 0
2, 257620, Note_on_c, 0, 70, 44
2, 257624, Note_on_c, 0, 84, 78
2, 257628, Note_on_c, 0, 67, 0
2, 257668, Note_on_c, 0, 70, 0
2, 257684, Note_on_c, 0, 84, 0
2, 257696, Note_on_c, 0, 76, 66
2, 257696, Note_on_c, 0, 72, 41
2, 257744, Note_on_c, 0, 72, 0
2, 257772, Note_on_c, 0, 66, 52
2, 257772, Control_c, 0, 64, 72
2, 257776, Note_on_c, 0, 76, 0
2, 257784, Note_on_c, 0, 75, 77
2, 257784, Control_c, 0, 64, 40
2, 257796, Control_c, 0, 64, 56
2, 257808, Control_c, 0, 64, 88
2, 257816, Control_c, 0, 64, 127
2, 257852, Note_on_c, 0, 66, 0
2, 257856, Note_on_c, 0, 75, 0
2, 257864, Note_on_c, 0, 69, 55
2, 257880, Note_on_c, 0, 83, 75
2, 257916, Note_on_c, 0, 69, 0
2, 257952, Note_on_c, 0, 71, 39
2, 257956, Note_on_c, 0, 83, 0
2, 257960, Note_on_c, 0, 75, 55
2, 258000, Note_on_c, 0, 71, 0
2, 258032, Note_on_c, 0, 75, 0
2, 258040, Note_on_c, 0, 74, 75
2, 258044, Control_c, 0, 64, 72
2, 258056, Control_c, 0, 64, 24
2, 258064, Note_on_c, 0, 65, 28
2, 258068, Control_c, 0, 64, 40
2, 258080, Control_c, 0, 64, 72
2, 258088, Control_c, 0, 64, 104
2, 258100, Control_c, 0, 64, 127
2, 258104, Note_on_c, 0, 74, 0
2, 258120, Note_on_c, 0, 82, 73
2, 258136, Note_on_c, 0, 65, 0
2, 258136, Note_on_c, 0, 68, 35
2, 258184, Note_on_c, 0, 68, 0
2, 258200, Note_on_c, 0, 82, 0
2, 258204, Note_on_c, 0, 74, 51
2, 258216, Note_on_c, 0, 70, 26
2, 258272, Note_on_c, 0, 74, 0
2, 258276, Note_on_c, 0, 70, 0
2, 258292, Note_on_c, 0, 73, 64
2, 258304, Note_on_c, 0, 64, 56
2, 258304, Control_c, 0, 64, 104
2, 258316, Control_c, 0, 64, 40
2, 258328, Control_c, 0, 64, 24
2, 258340, Control_c, 0, 64, 56
2, 258352, Control_c, 0, 64, 88
2, 258364, Control_c, 0, 64, 127
2, 258380, Note_on_c, 0, 73, 0
2, 258396, Note_on_c, 0, 81, 69
2, 258416, Note_on_c, 0, 64, 0
2, 258424, Note_on_c, 0, 67, 35
2, 258484, Note_on_c, 0, 67, 0
2, 258488, Note_on_c, 0, 81, 0
2, 258504, Note_on_c, 0, 73, 51
2, 258508, Note_on_c, 0, 69, 42
2, 258544, Note_on_c, 0, 69, 0
2, 258576, Note_on_c, 0, 73, 0
2, 258632, Note_on_c, 0, 58, 79
2, 258632, Note_on_c, 0, 74, 65
2, 258632, Note_on_c, 0, 65, 59
2, 258636, Control_c, 0, 64, 40
2, 258648, Control_c, 0, 64, 0
2, 258680, Control_c, 0, 64, 88
2, 258692, Control_c, 0, 64, 127
2, 258724, Note_on_c, 0, 74, 0
2, 258728, Note_on_c, 0, 82, 71
2, 258728, Note_on_c, 0, 68, 55
2, 258760, Note_on_c, 0, 58, 0
2, 258776, Note_on_c, 0, 65, 0
2, 258776, Note_on_c, 0, 68, 0
2, 258816, Note_on_c, 0, 82, 0
2, 258844, Note_on_c, 0, 74, 58
2, 258844, Note_on_c, 0, 70, 56
2, 258876, Note_on_c, 0, 74, 0
2, 258916, Note_on_c, 0, 70, 0
2, 259060, Note_on_c, 0, 63, 77
2, 259100, Control_c, 0, 64, 40
2, 259108, Control_c, 0, 64, 88
2, 259120, Control_c, 0, 64, 127
2, 259176, Note_on_c, 0, 67, 63
2, 259192, Note_on_c, 0, 63, 0
2, 259228, Control_c, 0, 64, 72
2, 259240, Control_c, 0, 64, 24
2, 259272, Control_c, 0, 64, 127
2, 259292, Note_on_c, 0, 70, 42
2, 259328, Note_on_c, 0, 67, 0
2, 259340, Note_on_c, 0, 70, 0
2, 259384, Note_on_c, 0, 75, 51
2, 259488, Note_on_c, 0, 79, 31
2, 259508, Note_on_c, 0, 82, 63
2, 259544, Note_on_c, 0, 79, 0
2, 259576, Note_on_c, 0, 87, 69
2, 259588, Note_on_c, 0, 75, 0
2, 259596, Note_on_c, 0, 82, 0
2, 259624, Note_on_c, 0, 87, 0
2, 259660, Note_on_c, 0, 65, 83
2, 259696, Note_on_c, 0, 65, 0
2, 259788, Note_on_c, 0, 67, 83
2, 259804, Control_c, 0, 64, 72
2, 259816, Control_c, 0, 64, 0
2, 259868, Control_c, 0, 64, 72
2, 259880, Control_c, 0, 64, 127
2, 259896, Note_on_c, 0, 70, 69
2, 259904, Note_on_c, 0, 67, 0
2, 260008, Note_on_c, 0, 75, 60
2, 260024, Note_on_c, 0, 70, 0
2, 260044, Note_on_c, 0, 75, 0
2, 260116, Note_on_c, 0, 79, 69
2, 260176, Note_on_c, 0, 82, 59
2, 260244, Note_on_c, 0, 87, 66
2, 260272, Note_on_c, 0, 82, 0
2, 260300, Note_on_c, 0, 79, 0
2, 260320, Note_on_c, 0, 91, 71
2, 260332, Note_on_c, 0, 87, 0
2, 260368, Note_on_c, 0, 91, 0
2, 260384, Note_on_c, 0, 68, 81
2, 260428, Note_on_c, 0, 68, 0
2, 260512, Note_on_c, 0, 70, 82
2, 260520, Control_c, 0, 64, 104
2, 260532, Control_c, 0, 64, 40
2, 260544, Control_c, 0, 64, 0
2, 260604, Note_on_c, 0, 75, 64
2, 260608, Control_c, 0, 64, 40
2, 260616, Control_c, 0, 64, 127
2, 260656, Note_on_c, 0, 70, 0
2, 260692, Note_on_c, 0, 75, 0
2, 260692, Note_on_c, 0, 79, 62
2, 260732, Note_on_c, 0, 79, 0
2, 260784, Note_on_c, 0, 82, 49
2, 260836, Note_on_c, 0, 87, 58
2, 260908, Note_on_c, 0, 91, 67
2, 260932, Note_on_c, 0, 87, 0
2, 260960, Note_on_c, 0, 82, 0
2, 260980, Note_on_c, 0, 94, 65
2, 260984, Note_on_c, 0, 91, 0
2, 261024, Note_on_c, 0, 94, 0
2, 261060, Note_on_c, 0, 70, 83
2, 261104, Note_on_c, 0, 70, 0
2, 261180, Note_on_c, 0, 72, 89
2, 261204, Control_c, 0, 64, 104
2, 261216, Control_c, 0, 64, 40
2, 261228, Control_c, 0, 64, 0
2, 261272, Note_on_c, 0, 75, 69
2, 261280, Control_c, 0, 64, 72
2, 261292, Control_c, 0, 64, 127
2, 261348, Note_on_c, 0, 72, 0
2, 261356, Note_on_c, 0, 79, 58
2, 261388, Note_on_c, 0, 75, 0
2, 261408, Note_on_c, 0, 79, 0
2, 261456, Note_on_c, 0, 84, 60
2, 261508, Note_on_c, 0, 87, 65
2, 261580, Note_on_c, 0, 91, 73
2, 261600, Note_on_c, 0, 87, 0
2, 261616, Note_on_c, 0, 84, 0
2, 261660, Note_on_c, 0, 91, 0
2, 261660, Note_on_c, 0, 96, 71
2, 261700, Note_on_c, 0, 96, 0
2, 261768, Note_on_c, 0, 70, 79
2, 261808, Note_on_c, 0, 70, 0
2, 261876, Note_on_c, 0, 70, 81
2, 261896, Control_c, 0, 64, 104
2, 261908, Control_c, 0, 64, 40
2, 261920, Control_c, 0, 64, 0
2, 261976, Note_on_c, 0, 74, 69
2, 261976, Control_c, 0, 64, 40
2, 261984, Control_c, 0, 64, 127
2, 261996, Note_on_c, 0, 70, 0
2, 262076, Note_on_c, 0, 74, 0
2, 262076, Note_on_c, 0, 77, 55
2, 262108, Note_on_c, 0, 77, 0
2, 262168, Note_on_c, 0, 82, 49
2, 262248, Note_on_c, 0, 86, 48
2, 262276, Note_on_c, 0, 89, 64
2, 262300, Note_on_c, 0, 82, 0
2, 262340, Note_on_c, 0, 86, 0
2, 262344, Note_on_c, 0, 94, 67
2, 262348, Note_on_c, 0, 89, 0
2, 262396, Note_on_c, 0, 94, 0
2, 262408, Note_on_c, 0, 69, 81
2, 262456, Note_on_c, 0, 69, 0
2, 262528, Note_on_c, 0, 68, 77
2, 262548, Control_c, 0, 64, 88
2, 262560, Control_c, 0, 64, 24
2, 262568, Control_c, 0, 64, 0
2, 262632, Note_on_c, 0, 74, 66
2, 262636, Note_on_c, 0, 68, 0
2, 262636, Control_c, 0, 64, 104
2, 262648, Control_c, 0, 64, 127
2, 262732, Note_on_c, 0, 77, 62
2, 262744, Note_on_c, 0, 74, 0
2, 262780, Note_on_c, 0, 77, 0
2, 262824, Note_on_c, 0, 80, 50
2, 262880, Note_on_c, 0, 82, 48
2, 262936, Note_on_c, 0, 80, 0
2, 262936, Note_on_c, 0, 86, 65
2, 262964, Note_on_c, 0, 82, 0
2, 263008, Note_on_c, 0, 86, 0
2, 263008, Note_on_c, 0, 92, 57
2, 263052, Note_on_c, 0, 92, 0
2, 263056, Note_on_c, 0, 67, 80
2, 263100, Note_on_c, 0, 67, 0
2, 263168, Note_on_c, 0, 65, 78
2, 263208, Control_c, 0, 64, 104
2, 263220, Control_c, 0, 64, 40
2, 263232, Control_c, 0, 64, 0
2, 263260, Note_on_c, 0, 70, 58
2, 263288, Control_c, 0, 64, 40
2, 263300, Control_c, 0, 64, 127
2, 263348, Note_on_c, 0, 74, 48
2, 263360, Note_on_c, 0, 65, 0
2, 263384, Note_on_c, 0, 70, 0
2, 263396, Note_on_c, 0, 74, 0
2, 263428, Note_on_c, 0, 77, 69
2, 263484, Note_on_c, 0, 80, 66
2, 263516, Note_on_c, 0, 77, 0
2, 263548, Note_on_c, 0, 86, 73
2, 263564, Note_on_c, 0, 80, 0
2, 263624, Note_on_c, 0, 89, 71
2, 263636, Note_on_c, 0, 86, 0
2, 263660, Note_on_c, 0, 89, 0
2, 263712, Note_on_c, 0, 58, 74
2, 263764, Note_on_c, 0, 58, 0
2, 263840, Note_on_c, 0, 60, 77
2, 263860, Control_c, 0, 64, 56
2, 263872, Control_c, 0, 64, 0
2, 263920, Note_on_c, 0, 65, 56
2, 263928, Control_c, 0, 64, 24
2, 263936, Control_c, 0, 64, 104
2, 263948, Control_c, 0, 64, 127
2, 264012, Note_on_c, 0, 68, 50
2, 264024, Note_on_c, 0, 60, 0
2, 264040, Note_on_c, 0, 65, 0
2, 264064, Note_on_c, 0, 68, 0
2, 264100, Note_on_c, 0, 70, 57
2, 264172, Note_on_c, 0, 74, 56
2, 264204, Note_on_c, 0, 70, 0
2, 264212, Note_on_c, 0, 77, 66
2, 264236, Note_on_c, 0, 74, 0
2, 264280, Note_on_c, 0, 82, 65
2, 264288, Note_on_c, 0, 77, 0
2, 264332, Note_on_c, 0, 82, 0
2, 264360, Note_on_c, 0, 58, 80
2, 264396, Note_on_c, 0, 58, 0
2, 264496, Note_on_c, 0, 65, 75
2, 264524, Control_c, 0, 64, 88
2, 264536, Control_c, 0, 64, 24
2, 264544, Control_c, 0, 64, 0
2, 264584, Note_on_c, 0, 70, 60
2, 264596, Control_c, 0, 64, 72
2, 264612, Control_c, 0, 64, 127
2, 264676, Note_on_c, 0, 65, 0
2, 264684, Note_on_c, 0, 74, 60
2, 264720, Note_on_c, 0, 70, 0
2, 264732, Note_on_c, 0, 74, 0
2, 264756, Note_on_c, 0, 77, 63
2, 264808, Note_on_c, 0, 80, 63
2, 264860, Note_on_c, 0, 86, 72
2, 264884, Note_on_c, 0, 80, 0
2, 264892, Note_on_c, 0, 77, 0
2, 264920, Note_on_c, 0, 89, 72
2, 264936, Note_on_c, 0, 86, 0
2, 264964, Note_on_c, 0, 89, 0
2, 265000, Note_on_c, 0, 68, 85
2, 265048, Note_on_c, 0, 68, 0
2, 265120, Note_on_c, 0, 72, 89
2, 265120, Control_c, 0, 64, 104
2, 265132, Control_c, 0, 64, 40
2, 265140, Control_c, 0, 64, 0
2, 265184, Control_c, 0, 64, 24
2, 265196, Control_c, 0, 64, 104
2, 265208, Note_on_c, 0, 72, 0
2, 265208, Control_c, 0, 64, 127
2, 265224, Note_on_c, 0, 77, 67
2, 265304, Note_on_c, 0, 80, 50
2, 265320, Note_on_c, 0, 77, 0
2, 265352, Note_on_c, 0, 80, 0
2, 265364, Note_on_c, 0, 84, 56
2, 265424, Note_on_c, 0, 86, 62
2, 265468, Note_on_c, 0, 84, 0
2, 265472, Note_on_c, 0, 89, 80
2, 265496, Note_on_c, 0, 86, 0
2, 265556, Note_on_c, 0, 89, 0
2, 265556, Note_on_c, 0, 96, 80
2, 265596, Note_on_c, 0, 96, 0
2, 265664, Note_on_c, 0, 70, 79
2, 265708, Note_on_c, 0, 70, 0
2, 265776, Note_on_c, 0, 70, 79
2, 265780, Control_c, 0, 64, 88
2, 265792, Control_c, 0, 64, 24
2, 265804, Control_c, 0, 64, 0
2, 265848, Control_c, 0, 64, 56
2, 265860, Control_c, 0, 64, 127
2, 265864, Note_on_c, 0, 75, 69
2, 265876, Note_on_c, 0, 70, 0
2, 265956, Note_on_c, 0, 79, 58
2, 265972, Note_on_c, 0, 75, 0
2, 266008, Note_on_c, 0, 79, 0
2, 266040, Note_on_c, 0, 82, 52
2, 266096, Note_on_c, 0, 85, 55
2, 266124, Note_on_c, 0, 82, 0
2, 266140, Note_on_c, 0, 87, 71
2, 266176, Note_on_c, 0, 85, 0
2, 266204, Note_on_c, 0, 87, 0
2, 266212, Note_on_c, 0, 94, 69
2, 266268, Note_on_c, 0, 94, 0
2, 266304, Note_on_c, 0, 67, 79
2, 266364, Note_on_c, 0, 67, 0
2, 266424, Note_on_c, 0, 68, 81
2, 266456, Control_c, 0, 64, 72
2, 266464, Control_c, 0, 64, 24
2, 266476, Control_c, 0, 64, 0
2, 266508, Note_on_c, 0, 68, 0
2, 266520, Note_on_c, 0, 72, 77
2, 266520, Control_c, 0, 64, 24
2, 266528, Control_c, 0, 64, 104
2, 266540, Control_c, 0, 64, 127
2, 266596, Note_on_c, 0, 75, 51
2, 266608, Note_on_c, 0, 72, 0
2, 266640, Note_on_c, 0, 75, 0
2, 266640, Note_on_c, 0, 80, 49
2, 266704, Note_on_c, 0, 84, 59
2, 266752, Note_on_c, 0, 87, 52
2, 266788, Note_on_c, 0, 80, 0
2, 266800, Note_on_c, 0, 84, 0
2, 266816, Note_on_c, 0, 92, 64
2, 266828, Note_on_c, 0, 87, 0
2, 266896, Note_on_c, 0, 92, 0
2, 266920, Note_on_c, 0, 65, 78
2, 266960, Note_on_c, 0, 65, 0
2, 267028, Note_on_c, 0, 63, 77
2, 267048, Control_c, 0, 64, 88
2, 267060, Control_c, 0, 64, 24
2, 267072, Control_c, 0, 64, 0
2, 267128, Control_c, 0, 64, 40
2, 267132, Note_on_c, 0, 67, 62
2, 267140, Control_c, 0, 64, 127
2, 267216, Note_on_c, 0, 70, 51
2, 267260, Note_on_c, 0, 67, 0
2, 267264, Note_on_c, 0, 63, 0
2, 267272, Note_on_c, 0, 70, 0
2, 267304, Note_on_c, 0, 75, 52
2, 267368, Note_on_c, 0, 79, 50
2, 267400, Note_on_c, 0, 82, 56
2, 267408, Note_on_c, 0, 75, 0
2, 267436, Note_on_c, 0, 79, 0
2, 267464, Note_on_c, 0, 82, 0
2, 267464, Note_on_c, 0, 87, 56
2, 267508, Note_on_c, 0, 87, 0
2, 267540, Note_on_c, 0, 58, 74
2, 267540, Control_c, 0, 64, 72
2, 267548, Control_c, 0, 64, 24
2, 267560, Control_c, 0, 64, 0
2, 267580, Control_c, 0, 64, 56
2, 267592, Control_c, 0, 64, 127
2, 267628, Note_on_c, 0, 58, 0
2, 267668, Note_on_c, 0, 67, 82
2, 267680, Control_c, 0, 64, 56
2, 267692, Control_c, 0, 64, 0
2, 267724, Control_c, 0, 64, 24
2, 267736, Control_c, 0, 64, 88
2, 267744, Control_c, 0, 64, 127
2, 267788, Note_on_c, 0, 70, 64
2, 267812, Note_on_c, 0, 67, 0
2, 267828, Control_c, 0, 64, 72
2, 267840, Control_c, 0, 64, 127
2, 267868, Note_on_c, 0, 74, 54
2, 267920, Note_on_c, 0, 70, 0
2, 267928, Note_on_c, 0, 80, 50
2, 267940, Note_on_c, 0, 74, 0
2, 267988, Note_on_c, 0, 82, 56
2, 267996, Note_on_c, 0, 80, 0
2, 268044, Note_on_c, 0, 82, 0
2, 268044, Note_on_c, 0, 86, 72
2, 268092, Note_on_c, 0, 86, 0
2, 268112, Note_on_c, 0, 94, 73
2, 268152, Note_on_c, 0, 94, 0
2, 268284, Note_on_c, 0, 65, 73
2, 268336, Note_on_c, 0, 65, 0
2, 268412, Note_on_c, 0, 63, 73
2, 268460, Control_c, 0, 64, 104
2, 268472, Control_c, 0, 64, 56
2, 268484, Control_c, 0, 64, 0
2, 268516, Note_on_c, 0, 67, 59
2, 268548, Control_c, 0, 64, 56
2, 268556, Control_c, 0, 64, 127
2, 268596, Note_on_c, 0, 70, 49
2, 268604, Note_on_c, 0, 67, 0
2, 268608, Note_on_c, 0, 63, 0
2, 268648, Note_on_c, 0, 70, 0
2, 268672, Note_on_c, 0, 75, 39
2, 268712, Note_on_c, 0, 75, 39
2, 268728, Note_on_c, 0, 75, 0
2, 268728, Note_on_c, 0, 75, 0
2, 268744, Note_on_c, 0, 79, 35
2, 268784, Note_on_c, 0, 82, 50
2, 268796, Note_on_c, 0, 79, 0
2, 268832, Note_on_c, 0, 87, 65
2, 268836, Note_on_c, 0, 82, 0
2, 268872, Note_on_c, 0, 87, 0
2, 269000, Control_c, 0, 64, 24
2, 269012, Control_c, 0, 64, 72
2, 269024, Control_c, 0, 64, 127
2, 269052, Note_on_c, 0, 75, 52
2, 269064, Note_on_c, 0, 66, 37
2, 269140, Note_on_c, 0, 75, 0
2, 269152, Note_on_c, 0, 83, 66
2, 269156, Note_on_c, 0, 66, 0
2, 269180, Note_on_c, 0, 69, 37
2, 269232, Note_on_c, 0, 69, 0
2, 269240, Note_on_c, 0, 83, 0
2, 269244, Note_on_c, 0, 75, 58
2, 269288, Note_on_c, 0, 72, 39
2, 269348, Note_on_c, 0, 75, 0
2, 269360, Note_on_c, 0, 76, 79
2, 269372, Control_c, 0, 64, 104
2, 269384, Note_on_c, 0, 67, 49
2, 269384, Control_c, 0, 64, 56
2, 269388, Note_on_c, 0, 72, 0
2, 269396, Control_c, 0, 64, 40
2, 269408, Control_c, 0, 64, 24
2, 269416, Control_c, 0, 64, 40
2, 269428, Control_c, 0, 64, 72
2, 269440, Note_on_c, 0, 76, 0
2, 269440, Control_c, 0, 64, 127
2, 269444, Note_on_c, 0, 84, 70
2, 269468, Note_on_c, 0, 67, 0
2, 269468, Note_on_c, 0, 70, 56
2, 269520, Note_on_c, 0, 84, 0
2, 269528, Note_on_c, 0, 70, 0
2, 269548, Note_on_c, 0, 76, 77
2, 269580, Note_on_c, 0, 73, 26
2, 269632, Note_on_c, 0, 76, 0
2, 269644, Note_on_c, 0, 77, 88
2, 269652, Control_c, 0, 64, 104
2, 269664, Note_on_c, 0, 73, 0
2, 269664, Control_c, 0, 64, 72
2, 269668, Note_on_c, 0, 68, 49
2, 269676, Control_c, 0, 64, 56
2, 269700, Control_c, 0, 64, 88
2, 269708, Control_c, 0, 64, 127
2, 269724, Note_on_c, 0, 77, 0
2, 269736, Note_on_c, 0, 85, 67
2, 269744, Note_on_c, 0, 68, 0
2, 269748, Note_on_c, 0, 70, 42
2, 269812, Note_on_c, 0, 85, 0
2, 269816, Note_on_c, 0, 70, 0
2, 269828, Note_on_c, 0, 77, 75
2, 269856, Note_on_c, 0, 74, 43
2, 269904, Note_on_c, 0, 74, 0
2, 269912, Note_on_c, 0, 77, 0
2, 269920, Note_on_c, 0, 78, 73
2, 269952, Note_on_c, 0, 69, 56
2, 269956, Control_c, 0, 64, 72
2, 269968, Control_c, 0, 64, 40
2, 269976, Control_c, 0, 64, 0
2, 270012, Note_on_c, 0, 78, 0
2, 270016, Note_on_c, 0, 86, 74
2, 270024, Control_c, 0, 64, 72
2, 270036, Control_c, 0, 64, 127
2, 270044, Note_on_c, 0, 69, 0
2, 270060, Note_on_c, 0, 72, 54
2, 270108, Note_on_c, 0, 86, 0
2, 270108, Note_on_c, 0, 78, 79
2, 270112, Note_on_c, 0, 72, 0
2, 270152, Note_on_c, 0, 74, 39
2, 270196, Note_on_c, 0, 78, 0
2, 270200, Note_on_c, 0, 74, 0
2, 270212, Note_on_c, 0, 79, 86
2, 270224, Control_c, 0, 64, 88
2, 270236, Note_on_c, 0, 70, 52
2, 270236, Control_c, 0, 64, 56
2, 270248, Control_c, 0, 64, 24
2, 270284, Control_c, 0, 64, 72
2, 270292, Control_c, 0, 64, 127
2, 270304, Note_on_c, 0, 87, 70
2, 270308, Note_on_c, 0, 79, 0
2, 270340, Note_on_c, 0, 70, 0
2, 270344, Note_on_c, 0, 73, 52
2, 270384, Note_on_c, 0, 87, 0
2, 270396, Note_on_c, 0, 79, 78
2, 270400, Note_on_c, 0, 73, 0
2, 270428, Note_on_c, 0, 75, 39
2, 270480, Note_on_c, 0, 79, 0
2, 270492, Note_on_c, 0, 75, 0
2, 270500, Note_on_c, 0, 80, 79
2, 270508, Control_c, 0, 64, 104
2, 270520, Control_c, 0, 64, 56
2, 270524, Note_on_c, 0, 71, 62
2, 270528, Control_c, 0, 64, 40
2, 270540, Control_c, 0, 64, 24
2, 270564, Control_c, 0, 64, 56
2, 270572, Control_c, 0, 64, 104
2, 270584, Control_c, 0, 64, 127
2, 270592, Note_on_c, 0, 80, 0
2, 270600, Note_on_c, 0, 88, 73
2, 270604, Note_on_c, 0, 71, 0
2, 270620, Note_on_c, 0, 74, 48
2, 270656, Note_on_c, 0, 74, 0
2, 270676, Note_on_c, 0, 88, 0
2, 270692, Note_on_c, 0, 80, 70
2, 270696, Note_on_c, 0, 76, 46
2, 270740, Note_on_c, 0, 76, 0
2, 270784, Note_on_c, 0, 80, 0
2, 270788, Note_on_c, 0, 79, 86
2, 270788, Control_c, 0, 64, 88
2, 270796, Note_on_c, 0, 70, 58
2, 270800, Control_c, 0, 64, 56
2, 270808, Control_c, 0, 64, 24
2, 270820, Control_c, 0, 64, 0
2, 270856, Control_c, 0, 64, 88
2, 270864, Control_c, 0, 64, 127
2, 270872, Note_on_c, 0, 79, 0
2, 270876, Note_on_c, 0, 87, 81
2, 270888, Note_on_c, 0, 73, 60
2, 270892, Note_on_c, 0, 70, 0
2, 270940, Note_on_c, 0, 73, 0
2, 270976, Note_on_c, 0, 87, 0
2, 270976, Note_on_c, 0, 79, 80
2, 270976, Note_on_c, 0, 75, 41
2, 271064, Note_on_c, 0, 80, 86
2, 271072, Note_on_c, 0, 75, 0
2, 271076, Note_on_c, 0, 79, 0
2, 271088, Note_on_c, 0, 71, 62
2, 271092, Control_c, 0, 64, 72
2, 271100, Control_c, 0, 64, 40
2, 271112, Control_c, 0, 64, 24
2, 271148, Control_c, 0, 64, 88
2, 271156, Control_c, 0, 64, 127
2, 271168, Note_on_c, 0, 88, 75
2, 271176, Note_on_c, 0, 71, 0
2, 271180, Note_on_c, 0, 80, 0
2, 271188, Note_on_c, 0, 74, 56
2, 271244, Note_on_c, 0, 74, 0
2, 271252, Note_on_c, 0, 80, 74
2, 271256, Note_on_c, 0, 88, 0
2, 271280, Note_on_c, 0, 76, 46
2, 271324, Note_on_c, 0, 76, 0
2, 271340, Note_on_c, 0, 80, 0
2, 271364, Note_on_c, 0, 81, 81
2, 271372, Control_c, 0, 64, 88
2, 271384, Control_c, 0, 64, 40
2, 271392, Note_on_c, 0, 72, 58
2, 271392, Control_c, 0, 64, 24
2, 271428, Control_c, 0, 64, 104
2, 271440, Control_c, 0, 64, 127
2, 271460, Note_on_c, 0, 89, 80
2, 271464, Note_on_c, 0, 81, 0
2, 271476, Note_on_c, 0, 75, 57
2, 271480, Note_on_c, 0, 72, 0
2, 271548, Note_on_c, 0, 75, 0
2, 271560, Note_on_c, 0, 89, 0
2, 271572, Note_on_c, 0, 81, 71
2, 271584, Note_on_c, 0, 77, 44
2, 271684, Note_on_c, 0, 77, 0
2, 271688, Note_on_c, 0, 81, 0
2, 271688, Note_on_c, 0, 90, 79
2, 271696, Control_c, 0, 64, 72
2, 271708, Note_on_c, 0, 71, 50
2, 271708, Control_c, 0, 64, 24
2, 271720, Control_c, 0, 64, 0
2, 271756, Control_c, 0, 64, 56
2, 271764, Control_c, 0, 64, 127
2, 271788, Note_on_c, 0, 90, 0
2, 271796, Note_on_c, 0, 81, 71
2, 271804, Note_on_c, 0, 71, 0
2, 271804, Note_on_c, 0, 75, 52
2, 271912, Note_on_c, 0, 81, 0
2, 271912, Note_on_c, 0, 90, 66
2, 271932, Note_on_c, 0, 75, 0
2, 271940, Note_on_c, 0, 78, 51
2, 271972, Note_on_c, 0, 90, 0
2, 271996, Note_on_c, 0, 78, 0
2, 272048, Control_c, 0, 64, 40
2, 272056, Control_c, 0, 64, 0
2, 272068, Note_on_c, 0, 79, 72
2, 272112, Control_c, 0, 64, 104
2, 272124, Note_on_c, 0, 79, 0
2, 272124, Control_c, 0, 64, 127
2, 272152, Note_on_c, 0, 73, 40
2, 272212, Note_on_c, 0, 73, 0
2, 272216, Note_on_c, 0, 70, 46
2, 272292, Note_on_c, 0, 70, 0
2, 272308, Note_on_c, 0, 63, 42
2, 272368, Note_on_c, 0, 63, 0
2, 272388, Note_on_c, 0, 80, 74
2, 272460, Note_on_c, 0, 85, 66
2, 272504, Note_on_c, 0, 80, 0
2, 272532, Note_on_c, 0, 92, 79
2, 272552, Note_on_c, 0, 85, 0
2, 272584, Note_on_c, 0, 92, 0
2, 272636, Note_on_c, 0, 82, 83
2, 272636, Control_c, 0, 64, 88
2, 272640, Control_c, 0, 64, 40
2, 272652, Control_c, 0, 64, 0
2, 272664, Control_c, 0, 64, 40
2, 272676, Control_c, 0, 64, 104
2, 272684, Control_c, 0, 64, 127
2, 272716, Note_on_c, 0, 79, 60
2, 272720, Note_on_c, 0, 82, 0
2, 272784, Note_on_c, 0, 79, 0
2, 272796, Note_on_c, 0, 73, 51
2, 272864, Note_on_c, 0, 70, 48
2, 272892, Note_on_c, 0, 73, 0
2, 272932, Note_on_c, 0, 70, 0
2, 272944, Note_on_c, 0, 84, 85
2, 273000, Note_on_c, 0, 87, 65
2, 273052, Note_on_c, 0, 84, 0
2, 273072, Note_on_c, 0, 91, 57
2, 273096, Note_on_c, 0, 87, 0
2, 273132, Note_on_c, 0, 91, 0
2, 273140, Note_on_c, 0, 96, 59
2, 273164, Note_on_c, 0, 96, 0
2, 273216, Note_on_c, 0, 85, 89
2, 273236, Control_c, 0, 64, 56
2, 273248, Control_c, 0, 64, 24
2, 273280, Control_c, 0, 64, 127
2, 273308, Note_on_c, 0, 85, 0
2, 273312, Note_on_c, 0, 79, 47
2, 273356, Note_on_c, 0, 79, 0
2, 273392, Note_on_c, 0, 76, 42
2, 273424, Note_on_c, 0, 76, 0
2, 273432, Note_on_c, 0, 73, 64
2, 273488, Note_on_c, 0, 73, 0
2, 273516, Note_on_c, 0, 82, 77
2, 273584, Note_on_c, 0, 85, 62
2, 273600, Note_on_c, 0, 82, 0
2, 273628, Note_on_c, 0, 87, 66
2, 273656, Note_on_c, 0, 85, 0
2, 273696, Note_on_c, 0, 94, 60
2, 273700, Note_on_c, 0, 87, 0
2, 273736, Note_on_c, 0, 94, 0
2, 273768, Note_on_c, 0, 79, 75
2, 273776, Control_c, 0, 64, 56
2, 273784, Control_c, 0, 64, 24
2, 273796, Control_c, 0, 64, 56
2, 273808, Control_c, 0, 64, 104
2, 273820, Control_c, 0, 64, 127
2, 273836, Note_on_c, 0, 79, 0
2, 273856, Note_on_c, 0, 73, 42
2, 273904, Note_on_c, 0, 73, 0
2, 273916, Note_on_c, 0, 70, 44
2, 274000, Note_on_c, 0, 70, 0
2, 274012, Note_on_c, 0, 63, 39
2, 274060, Note_on_c, 0, 63, 0
2, 274092, Note_on_c, 0, 75, 70
2, 274176, Note_on_c, 0, 79, 42
2, 274188, Note_on_c, 0, 75, 0
2, 274188, Note_on_c, 0, 82, 58
2, 274224, Note_on_c, 0, 79, 0
2, 274248, Note_on_c, 0, 87, 70
2, 274264, Note_on_c, 0, 82, 0
2, 274296, Note_on_c, 0, 87, 0
2, 274324, Note_on_c, 0, 77, 82
2, 274348, Control_c, 0, 64, 88
2, 274356, Control_c, 0, 64, 40
2, 274392, Control_c, 0, 64, 127
2, 274412, Note_on_c, 0, 77, 0
2, 274420, Note_on_c, 0, 72, 57
2, 274504, Note_on_c, 0, 72, 0
2, 274508, Note_on_c, 0, 68, 50
2, 274576, Note_on_c, 0, 68, 0
2, 274612, Note_on_c, 0, 75, 69
2, 274672, Note_on_c, 0, 80, 59
2, 274720, Note_on_c, 0, 75, 0
2, 274724, Note_on_c, 0, 84, 66
2, 274752, Note_on_c, 0, 80, 0
2, 274776, Note_on_c, 0, 87, 56
2, 274784, Note_on_c, 0, 84, 0
2, 274828, Note_on_c, 0, 87, 0
2, 274852, Note_on_c, 0, 74, 78
2, 274884, Control_c, 0, 64, 88
2, 274896, Control_c, 0, 64, 24
2, 274908, Control_c, 0, 64, 0
2, 274920, Control_c, 0, 64, 24
2, 274932, Control_c, 0, 64, 88
2, 274944, Control_c, 0, 64, 127
2, 274948, Note_on_c, 0, 72, 59
2, 274952, Note_on_c, 0, 74, 0
2, 275020, Note_on_c, 0, 72, 0
2, 275040, Note_on_c, 0, 68, 43
2, 275100, Note_on_c, 0, 68, 0
2, 275132, Note_on_c, 0, 75, 70
2, 275188, Note_on_c, 0, 80, 59
2, 275244, Note_on_c, 0, 84, 66
2, 275256, Note_on_c, 0, 75, 0
2, 275300, Note_on_c, 0, 80, 0
2, 275304, Note_on_c, 0, 87, 56
2, 275308, Note_on_c, 0, 84, 0
2, 275348, Note_on_c, 0, 87, 0
2, 275392, Note_on_c, 0, 71, 70
2, 275392, Control_c, 0, 64, 104
2, 275404, Control_c, 0, 64, 56
2, 275412, Control_c, 0, 64, 24
2, 275436, Control_c, 0, 64, 72
2, 275448, Control_c, 0, 64, 127
2, 275472, Note_on_c, 0, 68, 42
2, 275484, Note_on_c, 0, 71, 0
2, 275520, Note_on_c, 0, 68, 0
2, 275536, Note_on_c, 0, 63, 46
2, 275648, Note_on_c, 0, 56, 36
2, 275648, Control_c, 0, 64, 72
2, 275660, Control_c, 0, 64, 0
2, 275668, Note_on_c, 0, 72, 80
2, 275696, Control_c, 0, 64, 40
2, 275704, Control_c, 0, 64, 127
2, 275744, Note_on_c, 0, 75, 62
2, 275776, Note_on_c, 0, 72, 0
2, 275792, Note_on_c, 0, 63, 0
2, 275812, Note_on_c, 0, 80, 66
2, 275816, Note_on_c, 0, 75, 0
2, 275856, Note_on_c, 0, 80, 0
2, 275892, Note_on_c, 0, 56, 0
2, 275916, Note_on_c, 0, 84, 56
2, 275972, Note_on_c, 0, 87, 63
2, 275976, Note_on_c, 0, 84, 0
2, 276032, Note_on_c, 0, 92, 70
2, 276060, Note_on_c, 0, 87, 0
2, 276092, Note_on_c, 0, 92, 0
2, 276104, Note_on_c, 0, 96, 70
2, 276140, Note_on_c, 0, 96, 0
2, 276332, Note_on_c, 0, 75, 74
2, 276508, Note_on_c, 0, 75, 0
2, 276520, Note_on_c, 0, 79, 81
2, 276524, Control_c, 0, 64, 24
2, 276536, Control_c, 0, 64, 0
2, 276596, Control_c, 0, 64, 127
2, 276600, Note_on_c, 0, 79, 0
2, 276612, Note_on_c, 0, 73, 57
2, 276676, Note_on_c, 0, 73, 0
2, 276676, Note_on_c, 0, 70, 54
2, 276756, Note_on_c, 0, 70, 0
2, 276768, Note_on_c, 0, 63, 51
2, 276820, Note_on_c, 0, 63, 0
2, 276844, Note_on_c, 0, 80, 79
2, 276916, Note_on_c, 0, 85, 63
2, 276960, Note_on_c, 0, 80, 0
2, 277000, Note_on_c, 0, 92, 74
2, 277008, Note_on_c, 0, 85, 0
2, 277048, Note_on_c, 0, 92, 0
2, 277096, Note_on_c, 0, 82, 74
2, 277112, Control_c, 0, 64, 104
2, 277124, Control_c, 0, 64, 40
2, 277132, Control_c, 0, 64, 24
2, 277144, Control_c, 0, 64, 72
2, 277156, Control_c, 0, 64, 127
2, 277192, Note_on_c, 0, 79, 54
2, 277228, Note_on_c, 0, 82, 0
2, 277256, Note_on_c, 0, 79, 0
2, 277264, Note_on_c, 0, 73, 50
2, 277324, Note_on_c, 0, 70, 49
2, 277352, Note_on_c, 0, 73, 0
2, 277396, Note_on_c, 0, 70, 0
2, 277404, Note_on_c, 0, 84, 85
2, 277460, Note_on_c, 0, 87, 59
2, 277516, Note_on_c, 0, 91, 73
2, 277544, Note_on_c, 0, 84, 0
2, 277548, Note_on_c, 0, 87, 0
2, 277580, Note_on_c, 0, 96, 64
2, 277584, Note_on_c, 0, 91, 0
2, 277616, Note_on_c, 0, 96, 0
2, 277672, Note_on_c, 0, 85, 81
2, 277696, Control_c, 0, 64, 88
2, 277704, Control_c, 0, 64, 24
2, 277716, Control_c, 0, 64, 0
2, 277740, Control_c, 0, 64, 24
2, 277752, Control_c, 0, 64, 104
2, 277756, Note_on_c, 0, 82, 55
2, 277760, Control_c, 0, 64, 127
2, 277772, Note_on_c, 0, 85, 0
2, 277820, Note_on_c, 0, 82, 0
2, 277824, Note_on_c, 0, 79, 55
2, 277892, Note_on_c, 0, 75, 52
2, 277896, Note_on_c, 0, 79, 0
2, 277948, Note_on_c, 0, 75, 0
2, 277964, Note_on_c, 0, 82, 72
2, 278028, Note_on_c, 0, 85, 55
2, 278040, Note_on_c, 0, 82, 0
2, 278068, Note_on_c, 0, 87, 70
2, 278096, Note_on_c, 0, 85, 0
2, 278136, Note_on_c, 0, 87, 0
2, 278136, Note_on_c, 0, 94, 62
2, 278176, Note_on_c, 0, 94, 0
2, 278216, Note_on_c, 0, 79, 77
2, 278232, Control_c, 0, 64, 88
2, 278244, Control_c, 0, 64, 40
2, 278280, Control_c, 0, 64, 127
2, 278292, Note_on_c, 0, 79, 0
2, 278300, Note_on_c, 0, 73, 55
2, 278360, Note_on_c, 0, 73, 0
2, 278364, Note_on_c, 0, 70, 51
2, 278428, Note_on_c, 0, 70, 0
2, 278444, Note_on_c, 0, 63, 41
2, 278516, Note_on_c, 0, 63, 0
2, 278516, Note_on_c, 0, 75, 74
2, 278600, Note_on_c, 0, 79, 43
2, 278604, Note_on_c, 0, 75, 0
2, 278608, Note_on_c, 0, 82, 50
2, 278660, Note_on_c, 0, 79, 0
2, 278676, Note_on_c, 0, 87, 59
2, 278696, Note_on_c, 0, 82, 0
2, 278720, Note_on_c, 0, 87, 0
2, 278784, Note_on_c, 0, 77, 73
2, 278804, Control_c, 0, 64, 88
2, 278816, Control_c, 0, 64, 40
2, 278828, Control_c, 0, 64, 56
2, 278840, Control_c, 0, 64, 104
2, 278852, Control_c, 0, 64, 127
2, 278896, Note_on_c, 0, 77, 0
2, 278896, Note_on_c, 0, 72, 47
2, 278992, Note_on_c, 0, 72, 0
2, 278992, Note_on_c, 0, 68, 44
2, 279056, Note_on_c, 0, 68, 0
2, 279064, Note_on_c, 0, 75, 63
2, 279124, Note_on_c, 0, 80, 46
2, 279168, Note_on_c, 0, 84, 63
2, 279172, Note_on_c, 0, 75, 0
2, 279204, Note_on_c, 0, 80, 0
2, 279216, Note_on_c, 0, 87, 56
2, 279232, Note_on_c, 0, 84, 0
2, 279280, Note_on_c, 0, 87, 0
2, 279308, Note_on_c, 0, 74, 79
2, 279332, Control_c, 0, 64, 104
2, 279344, Control_c, 0, 64, 40
2, 279352, Control_c, 0, 64, 0
2, 279380, Control_c, 0, 64, 56
2, 279388, Control_c, 0, 64, 127
2, 279396, Note_on_c, 0, 74, 0
2, 279404, Note_on_c, 0, 72, 59
2, 279476, Note_on_c, 0, 72, 0
2, 279476, Note_on_c, 0, 68, 55
2, 279552, Note_on_c, 0, 68, 0
2, 279572, Note_on_c, 0, 75, 58
2, 279636, Note_on_c, 0, 80, 59
2, 279684, Note_on_c, 0, 84, 69
2, 279704, Note_on_c, 0, 75, 0
2, 279736, Note_on_c, 0, 80, 0
2, 279748, Note_on_c, 0, 84, 0
2, 279752, Note_on_c, 0, 87, 34
2, 279776, Note_on_c, 0, 87, 0
2, 279836, Note_on_c, 0, 71, 75
2, 279860, Control_c, 0, 64, 88
2, 279872, Control_c, 0, 64, 56
2, 279884, Control_c, 0, 64, 72
2, 279896, Control_c, 0, 64, 127
2, 279916, Note_on_c, 0, 68, 48
2, 279932, Note_on_c, 0, 71, 0
2, 279972, Note_on_c, 0, 68, 0
2, 279988, Note_on_c, 0, 63, 43
2, 280108, Note_on_c, 0, 72, 86
2, 280112, Note_on_c, 0, 56, 34
2, 280116, Control_c, 0, 64, 88
2, 280128, Control_c, 0, 64, 24
2, 280140, Control_c, 0, 64, 0
2, 280152, Control_c, 0, 64, 72
2, 280164, Control_c, 0, 64, 127
2, 280192, Note_on_c, 0, 75, 56
2, 280220, Note_on_c, 0, 72, 0
2, 280248, Note_on_c, 0, 80, 69
2, 280252, Note_on_c, 0, 75, 0
2, 280276, Note_on_c, 0, 56, 0
2, 280292, Note_on_c, 0, 80, 0
2, 280296, Note_on_c, 0, 63, 0
2, 280352, Note_on_c, 0, 84, 70
2, 280416, Note_on_c, 0, 84, 0
2, 280416, Note_on_c, 0, 87, 56
2, 280464, Note_on_c, 0, 92, 73
2, 280488, Note_on_c, 0, 87, 0
2, 280524, Note_on_c, 0, 92, 0
2, 280544, Note_on_c, 0, 96, 58
2, 280568, Note_on_c, 0, 96, 0
2, 280720, Note_on_c, 0, 72, 78
2, 280900, Note_on_c, 0, 72, 0
2, 280916, Control_c, 0, 64, 56
2, 280920, Note_on_c, 0, 76, 81
2, 280928, Control_c, 0, 64, 0
2, 280960, Control_c, 0, 64, 104
2, 280972, Control_c, 0, 64, 127
2, 281024, Note_on_c, 0, 76, 0
2, 281040, Note_on_c, 0, 70, 57
2, 281104, Note_on_c, 0, 70, 0
2, 281112, Note_on_c, 0, 67, 49
2, 281192, Note_on_c, 0, 67, 0
2, 281208, Note_on_c, 0, 60, 50
2, 281252, Note_on_c, 0, 60, 0
2, 281268, Note_on_c, 0, 77, 74
2, 281332, Note_on_c, 0, 82, 66
2, 281372, Note_on_c, 0, 77, 0
2, 281416, Note_on_c, 0, 89, 64
2, 281424, Note_on_c, 0, 82, 0
2, 281472, Note_on_c, 0, 89, 0
2, 281516, Note_on_c, 0, 79, 83
2, 281536, Control_c, 0, 64, 88
2, 281544, Control_c, 0, 64, 56
2, 281556, Control_c, 0, 64, 88
2, 281568, Control_c, 0, 64, 127
2, 281596, Note_on_c, 0, 76, 63
2, 281600, Note_on_c, 0, 79, 0
2, 281656, Note_on_c, 0, 76, 0
2, 281672, Note_on_c, 0, 72, 57
2, 281736, Note_on_c, 0, 72, 0
2, 281740, Note_on_c, 0, 67, 60
2, 281796, Note_on_c, 0, 80, 74
2, 281808, Note_on_c, 0, 67, 0
2, 281888, Note_on_c, 0, 88, 69
2, 281920, Note_on_c, 0, 80, 0
2, 281948, Note_on_c, 0, 92, 79
2, 281956, Note_on_c, 0, 88, 0
2, 281996, Note_on_c, 0, 92, 0
2, 282052, Control_c, 0, 64, 104
2, 282064, Control_c, 0, 64, 56
2, 282084, Note_on_c, 0, 82, 75
2, 282096, Control_c, 0, 64, 127
2, 282132, Note_on_c, 0, 82, 0
2, 282176, Note_on_c, 0, 79, 72
2, 282228, Note_on_c, 0, 79, 0
2, 282236, Note_on_c, 0, 76, 72
2, 282292, Note_on_c, 0, 76, 0
2, 282292, Note_on_c, 0, 72, 50
2, 282328, Note_on_c, 0, 72, 0
2, 282332, Note_on_c, 0, 83, 85
2, 282416, Note_on_c, 0, 88, 59
2, 282456, Note_on_c, 0, 83, 0
2, 282464, Note_on_c, 0, 91, 73
2, 282520, Note_on_c, 0, 88, 0
2, 282524, Note_on_c, 0, 91, 0
2, 282532, Note_on_c, 0, 95, 79
2, 282572, Note_on_c, 0, 95, 0
2, 282612, Note_on_c, 0, 84, 85
2, 282624, Control_c, 0, 64, 72
2, 282636, Control_c, 0, 64, 0
2, 282668, Control_c, 0, 64, 127
2, 282688, Note_on_c, 0, 84, 0
2, 282692, Note_on_c, 0, 79, 62
2, 282744, Note_on_c, 0, 79, 0
2, 282756, Note_on_c, 0, 76, 64
2, 282816, Note_on_c, 0, 76, 0
2, 282824, Note_on_c, 0, 72, 60
2, 282852, Note_on_c, 0, 72, 0
2, 282904, Note_on_c, 0, 79, 73
2, 282960, Note_on_c, 0, 84, 70
2, 283008, Note_on_c, 0, 88, 62
2, 283028, Note_on_c, 0, 79, 0
2, 283072, Note_on_c, 0, 84, 0
2, 283072, Note_on_c, 0, 91, 64
2, 283080, Note_on_c, 0, 88, 0
2, 283108, Note_on_c, 0, 91, 0
2, 283172, Control_c, 0, 64, 56
2, 283180, Note_on_c, 0, 82, 73
2, 283184, Control_c, 0, 64, 0
2, 283200, Note_on_c, 0, 82, 0
2, 283208, Control_c, 0, 64, 72
2, 283220, Control_c, 0, 64, 127
2, 283280, Note_on_c, 0, 77, 52
2, 283332, Note_on_c, 0, 77, 0
2, 283340, Note_on_c, 0, 73, 62
2, 283432, Note_on_c, 0, 73, 0
2, 283448, Note_on_c, 0, 65, 57
2, 283516, Note_on_c, 0, 82, 60
2, 283544, Note_on_c, 0, 65, 0
2, 283580, Note_on_c, 0, 85, 52
2, 283644, Note_on_c, 0, 89, 66
2, 283656, Note_on_c, 0, 82, 0
2, 283672, Note_on_c, 0, 85, 0
2, 283696, Note_on_c, 0, 94, 73
2, 283708, Note_on_c, 0, 89, 0
2, 283756, Note_on_c, 0, 94, 0
2, 283812, Note_on_c, 0, 81, 80
2, 283828, Control_c, 0, 64, 104
2, 283836, Control_c, 0, 64, 56
2, 283872, Control_c, 0, 64, 127
2, 283896, Note_on_c, 0, 81, 0
2, 283908, Note_on_c, 0, 77, 55
2, 283952, Note_on_c, 0, 77, 0
2, 283956, Note_on_c, 0, 73, 58
2, 284036, Note_on_c, 0, 73, 0
2, 284144, Note_on_c, 0, 81, 52
2, 284212, Note_on_c, 0, 85, 59
2, 284236, Note_on_c, 0, 81, 0
2, 284292, Note_on_c, 0, 89, 58
2, 284320, Note_on_c, 0, 85, 0
2, 284368, Note_on_c, 0, 93, 48
2, 284388, Note_on_c, 0, 89, 0
2, 284412, Note_on_c, 0, 93, 0
2, 284468, Note_on_c, 0, 80, 67
2, 284512, Control_c, 0, 64, 40
2, 284520, Control_c, 0, 64, 0
2, 284564, Control_c, 0, 64, 127
2, 284576, Note_on_c, 0, 76, 52
2, 284580, Note_on_c, 0, 80, 0
2, 284632, Note_on_c, 0, 76, 0
2, 284652, Note_on_c, 0, 71, 51
2, 284740, Note_on_c, 0, 71, 0
2, 284740, Note_on_c, 0, 68, 37
2, 284800, Note_on_c, 0, 68, 0
2, 284820, Note_on_c, 0, 80, 51
2, 284900, Note_on_c, 0, 83, 50
2, 284912, Note_on_c, 0, 80, 0
2, 284956, Note_on_c, 0, 88, 49
2, 284968, Note_on_c, 0, 83, 0
2, 285024, Note_on_c, 0, 92, 70
2, 285028, Note_on_c, 0, 88, 0
2, 285096, Note_on_c, 0, 92, 0
2, 285104, Note_on_c, 0, 88, 63
2, 285180, Note_on_c, 0, 88, 0
2, 285204, Note_on_c, 0, 83, 33
2, 285260, Note_on_c, 0, 83, 0
2, 285272, Note_on_c, 0, 80, 58
2, 285284, Control_c, 0, 64, 72
2, 285296, Control_c, 0, 64, 40
2, 285300, Note_on_c, 0, 71, 44
2, 285308, Control_c, 0, 64, 56
2, 285320, Control_c, 0, 64, 104
2, 285328, Control_c, 0, 64, 127
2, 285364, Note_on_c, 0, 80, 0
2, 285372, Note_on_c, 0, 88, 54
2, 285392, Note_on_c, 0, 71, 0
2, 285416, Note_on_c, 0, 76, 44
2, 285436, Note_on_c, 0, 80, 42
2, 285440, Note_on_c, 0, 88, 0
2, 285460, Note_on_c, 0, 76, 0
2, 285508, Note_on_c, 0, 80, 0
2, 285524, Note_on_c, 0, 81, 73
2, 285532, Note_on_c, 0, 72, 54
2, 285556, Control_c, 0, 64, 104
2, 285564, Control_c, 0, 64, 127
2, 285600, Note_on_c, 0, 81, 0
2, 285604, Note_on_c, 0, 89, 73
2, 285616, Note_on_c, 0, 72, 0
2, 285644, Note_on_c, 0, 77, 48
2, 285672, Note_on_c, 0, 89, 0
2, 285688, Note_on_c, 0, 81, 63
2, 285692, Note_on_c, 0, 77, 0
2, 285748, Note_on_c, 0, 73, 43
2, 285760, Note_on_c, 0, 82, 77
2, 285780, Note_on_c, 0, 81, 0
2, 285832, Note_on_c, 0, 73, 0
2, 285840, Note_on_c, 0, 82, 0
2, 285840, Note_on_c, 0, 90, 69
2, 285852, Note_on_c, 0, 78, 35
2, 285912, Note_on_c, 0, 82, 71
2, 285948, Note_on_c, 0, 90, 0
2, 285964, Note_on_c, 0, 78, 0
2, 285972, Note_on_c, 0, 74, 43
2, 285976, Note_on_c, 0, 83, 93
2, 285984, Note_on_c, 0, 82, 0
2, 286004, Control_c, 0, 64, 88
2, 286012, Control_c, 0, 64, 104
2, 286028, Control_c, 0, 64, 127
2, 286052, Note_on_c, 0, 91, 85
2, 286056, Note_on_c, 0, 83, 0
2, 286056, Note_on_c, 0, 74, 0
2, 286072, Note_on_c, 0, 79, 41
2, 286128, Note_on_c, 0, 83, 75
2, 286132, Note_on_c, 0, 91, 0
2, 286144, Note_on_c, 0, 79, 0
2, 286192, Note_on_c, 0, 75, 50
2, 286208, Note_on_c, 0, 84, 88
2, 286208, Control_c, 0, 64, 104
2, 286228, Note_on_c, 0, 83, 0
2, 286240, Control_c, 0, 64, 127
2, 286280, Note_on_c, 0, 92, 83
2, 286284, Note_on_c, 0, 75, 0
2, 286292, Note_on_c, 0, 84, 0
2, 286304, Note_on_c, 0, 80, 42
2, 286364, Note_on_c, 0, 84, 66
2, 286380, Note_on_c, 0, 92, 0
2, 286444, Note_on_c, 0, 83, 86
2, 286456, Note_on_c, 0, 84, 0
2, 286460, Note_on_c, 0, 80, 0
2, 286460, Note_on_c, 0, 74, 41
2, 286500, Control_c, 0, 64, 72
2, 286516, Note_on_c, 0, 83, 0
2, 286520, Control_c, 0, 64, 104
2, 286524, Note_on_c, 0, 91, 77
2, 286532, Control_c, 0, 64, 127
2, 286568, Note_on_c, 0, 74, 0
2, 286600, Note_on_c, 0, 79, 34
2, 286600, Note_on_c, 0, 83, 66
2, 286604, Note_on_c, 0, 91, 0
2, 286676, Control_c, 0, 64, 88
2, 286680, Note_on_c, 0, 82, 79
2, 286688, Control_c, 0, 64, 127
2, 286692, Note_on_c, 0, 83, 0
2, 286696, Note_on_c, 0, 79, 0
2, 286720, Note_on_c, 0, 73, 41
2, 286764, Note_on_c, 0, 82, 0
2, 286772, Note_on_c, 0, 90, 73
2, 286800, Note_on_c, 0, 73, 0
2, 286832, Note_on_c, 0, 78, 37
2, 286848, Note_on_c, 0, 82, 56
2, 286868, Note_on_c, 0, 90, 0
2, 286908, Note_on_c, 0, 81, 73
2, 286924, Note_on_c, 0, 82, 0
2, 286948, Note_on_c, 0, 78, 0
2, 286968, Note_on_c, 0, 72, 44
2, 286984, Control_c, 0, 64, 104
2, 286988, Note_on_c, 0, 81, 0
2, 287004, Control_c, 0, 64, 127
2, 287016, Note_on_c, 0, 89, 72
2, 287068, Note_on_c, 0, 72, 0
2, 287092, Note_on_c, 0, 89, 0
2, 287096, Note_on_c, 0, 77, 46
2, 287096, Note_on_c, 0, 81, 56
2, 287144, Note_on_c, 0, 77, 0
2, 287176, Note_on_c, 0, 81, 0
2, 287208, Note_on_c, 0, 80, 56
2, 287256, Note_on_c, 0, 71, 39
2, 287264, Control_c, 0, 64, 88
2, 287276, Control_c, 0, 64, 72
2, 287284, Control_c, 0, 64, 88
2, 287296, Control_c, 0, 64, 127
2, 287300, Note_on_c, 0, 80, 0
2, 287304, Note_on_c, 0, 88, 66
2, 287396, Note_on_c, 0, 80, 56
2, 287404, Note_on_c, 0, 88, 0
2, 287412, Note_on_c, 0, 76, 31
2, 287424, Note_on_c, 0, 71, 0
2, 287452, Note_on_c, 0, 76, 0
2, 287452, Note_on_c, 0, 80, 0
2, 287556, Control_c, 0, 64, 72
2, 287564, Control_c, 0, 64, 24
2, 287576, Note_on_c, 0, 80, 58
2, 287576, Control_c, 0, 64, 40
2, 287584, Control_c, 0, 64, 88
2, 287596, Control_c, 0, 64, 127
2, 287672, Note_on_c, 0, 80, 0
2, 287676, Note_on_c, 0, 75, 58
2, 287716, Note_on_c, 0, 75, 0
2, 287736, Note_on_c, 0, 71, 56
2, 287760, Note_on_c, 0, 71, 0
2, 287828, Note_on_c, 0, 63, 70
2, 287876, Note_on_c, 0, 63, 0
2, 287896, Note_on_c, 0, 80, 60
2, 287988, Note_on_c, 0, 83, 43
2, 288044, Note_on_c, 0, 87, 63
2, 288052, Note_on_c, 0, 80, 0
2, 288072, Note_on_c, 0, 83, 0
2, 288116, Note_on_c, 0, 87, 0
2, 288116, Note_on_c, 0, 92, 69
2, 288168, Note_on_c, 0, 92, 0
2, 288184, Note_on_c, 0, 79, 77
2, 288192, Control_c, 0, 64, 104
2, 288204, Control_c, 0, 64, 72
2, 288216, Control_c, 0, 64, 56
2, 288228, Control_c, 0, 64, 88
2, 288240, Control_c, 0, 64, 127
2, 288260, Note_on_c, 0, 79, 0
2, 288264, Note_on_c, 0, 75, 50
2, 288296, Note_on_c, 0, 75, 0
2, 288320, Note_on_c, 0, 70, 44
2, 288400, Note_on_c, 0, 70, 0
2, 288424, Note_on_c, 0, 63, 32
2, 288476, Note_on_c, 0, 63, 0
2, 288492, Note_on_c, 0, 79, 66
2, 288560, Note_on_c, 0, 82, 52
2, 288628, Note_on_c, 0, 79, 0
2, 288632, Note_on_c, 0, 87, 67
2, 288668, Note_on_c, 0, 82, 0
2, 288712, Note_on_c, 0, 91, 69
2, 288720, Note_on_c, 0, 87, 0
2, 288756, Note_on_c, 0, 91, 0
2, 288812, Note_on_c, 0, 78, 77
2, 288848, Control_c, 0, 64, 0
2, 288904, Control_c, 0, 64, 40
2, 288912, Control_c, 0, 64, 127
2, 288916, Note_on_c, 0, 78, 0
2, 288916, Note_on_c, 0, 74, 54
2, 288980, Note_on_c, 0, 74, 0
2, 289008, Note_on_c, 0, 69, 42
2, 289080, Note_on_c, 0, 69, 0
2, 289096, Note_on_c, 0, 66, 41
2, 289148, Note_on_c, 0, 66, 0
2, 289180, Note_on_c, 0, 78, 57
2, 289256, Note_on_c, 0, 81, 60
2, 289260, Note_on_c, 0, 78, 0
2, 289316, Note_on_c, 0, 86, 60
2, 289336, Note_on_c, 0, 81, 0
2, 289400, Note_on_c, 0, 86, 0
2, 289400, Note_on_c, 0, 90, 65
2, 289472, Note_on_c, 0, 90, 0
2, 289476, Note_on_c, 0, 86, 63
2, 289552, Note_on_c, 0, 86, 0
2, 289560, Note_on_c, 0, 81, 56
2, 289636, Note_on_c, 0, 81, 0
2, 289640, Note_on_c, 0, 78, 63
2, 289668, Control_c, 0, 64, 104
2, 289676, Note_on_c, 0, 69, 43
2, 289676, Control_c, 0, 64, 88
2, 289700, Control_c, 0, 64, 127
2, 289740, Note_on_c, 0, 78, 0
2, 289748, Note_on_c, 0, 86, 58
2, 289764, Note_on_c, 0, 69, 0
2, 289792, Note_on_c, 0, 74, 31
2, 289804, Note_on_c, 0, 78, 37
2, 289832, Note_on_c, 0, 86, 0
2, 289860, Note_on_c, 0, 78, 0
2, 289868, Note_on_c, 0, 74, 0
2, 289896, Note_on_c, 0, 79, 75
2, 289904, Note_on_c, 0, 70, 49
2, 289912, Control_c, 0, 64, 104
2, 289948, Control_c, 0, 64, 127
2, 289972, Note_on_c, 0, 87, 73
2, 289984, Note_on_c, 0, 79, 0
2, 289992, Note_on_c, 0, 70, 0
2, 290012, Note_on_c, 0, 75, 39
2, 290068, Note_on_c, 0, 79, 73
2, 290072, Note_on_c, 0, 87, 0
2, 290120, Note_on_c, 0, 75, 0
2, 290128, Note_on_c, 0, 80, 79
2, 290128, Note_on_c, 0, 71, 48
2, 290152, Note_on_c, 0, 79, 0
2, 290160, Control_c, 0, 64, 104
2, 290172, Control_c, 0, 64, 88
2, 290184, Control_c, 0, 64, 127
2, 290204, Note_on_c, 0, 88, 78
2, 290212, Note_on_c, 0, 80, 0
2, 290220, Note_on_c, 0, 71, 0
2, 290236, Note_on_c, 0, 76, 48
2, 290280, Note_on_c, 0, 80, 79
2, 290304, Note_on_c, 0, 88, 0
2, 290324, Note_on_c, 0, 76, 0
2, 290356, Note_on_c, 0, 72, 54
2, 290360, Note_on_c, 0, 81, 86
2, 290364, Note_on_c, 0, 80, 0
2, 290396, Control_c, 0, 64, 88
2, 290404, Control_c, 0, 64, 72
2, 290420, Control_c, 0, 64, 88
2, 290432, Control_c, 0, 64, 127
2, 290436, Note_on_c, 0, 81, 0
2, 290436, Note_on_c, 0, 89, 89
2, 290452, Note_on_c, 0, 72, 0
2, 290480, Note_on_c, 0, 77, 39
2, 290516, Note_on_c, 0, 89, 0
2, 290516, Note_on_c, 0, 81, 66
2, 290576, Note_on_c, 0, 77, 0
2, 290604, Note_on_c, 0, 82, 90
2, 290604, Note_on_c, 0, 73, 48
2, 290632, Note_on_c, 0, 81, 0
2, 290632, Control_c, 0, 64, 88
2, 290664, Control_c, 0, 64, 127
2, 290676, Note_on_c, 0, 90, 77
2, 290684, Note_on_c, 0, 82, 0
2, 290696, Note_on_c, 0, 73, 0
2, 290712, Note_on_c, 0, 78, 42
2, 290760, Note_on_c, 0, 82, 66
2, 290772, Note_on_c, 0, 90, 0
2, 290828, Note_on_c, 0, 81, 80
2, 290836, Note_on_c, 0, 82, 0
2, 290836, Note_on_c, 0, 78, 0
2, 290856, Note_on_c, 0, 72, 36
2, 290876, Control_c, 0, 64, 88
2, 290908, Note_on_c, 0, 81, 0
2, 290912, Note_on_c, 0, 89, 75
2, 290912, Control_c, 0, 64, 127
2, 290932, Note_on_c, 0, 72, 0
2, 290960, Note_on_c, 0, 77, 46
2, 290980, Note_on_c, 0, 89, 0
2, 290996, Note_on_c, 0, 81, 69
2, 291052, Note_on_c, 0, 77, 0
2, 291076, Note_on_c, 0, 80, 78
2, 291084, Note_on_c, 0, 71, 40
2, 291088, Note_on_c, 0, 81, 0
2, 291092, Control_c, 0, 64, 104
2, 291104, Control_c, 0, 64, 72
2, 291112, Control_c, 0, 64, 88
2, 291124, Control_c, 0, 64, 127
2, 291156, Note_on_c, 0, 80, 0
2, 291164, Note_on_c, 0, 88, 70
2, 291176, Note_on_c, 0, 71, 0
2, 291220, Note_on_c, 0, 76, 25
2, 291232, Note_on_c, 0, 80, 57
2, 291244, Note_on_c, 0, 88, 0
2, 291272, Note_on_c, 0, 76, 0
2, 291308, Note_on_c, 0, 80, 0
2, 291308, Note_on_c, 0, 79, 73
2, 291316, Note_on_c, 0, 70, 37
2, 291328, Control_c, 0, 64, 88
2, 291352, Control_c, 0, 64, 127
2, 291392, Note_on_c, 0, 79, 0
2, 291404, Note_on_c, 0, 87, 69
2, 291432, Note_on_c, 0, 70, 0
2, 291440, Note_on_c, 0, 75, 23
2, 291492, Note_on_c, 0, 87, 0
2, 291504, Note_on_c, 0, 79, 63
2, 291576, Note_on_c, 0, 79, 0
2, 291580, Note_on_c, 0, 75, 0
2, 291600, Note_on_c, 0, 78, 63
2, 291616, Note_on_c, 0, 69, 37
2, 291640, Control_c, 0, 64, 88
2, 291652, Control_c, 0, 64, 40
2, 291688, Note_on_c, 0, 78, 0
2, 291688, Control_c, 0, 64, 127
2, 291696, Note_on_c, 0, 86, 60
2, 291752, Note_on_c, 0, 74, 35
2, 291784, Note_on_c, 0, 86, 0
2, 291792, Note_on_c, 0, 78, 62
2, 291800, Note_on_c, 0, 69, 0
2, 291820, Note_on_c, 0, 74, 0
2, 291840, Note_on_c, 0, 78, 0
2, 291932, Control_c, 0, 64, 40
2, 291944, Control_c, 0, 64, 0
2, 291960, Note_on_c, 0, 78, 73
2, 291992, Control_c, 0, 64, 56
2, 292004, Control_c, 0, 64, 127
2, 292048, Note_on_c, 0, 78, 0
2, 292052, Note_on_c, 0, 73, 57
2, 292104, Note_on_c, 0, 73, 0
2, 292212, Note_on_c, 0, 61, 54
2, 292272, Note_on_c, 0, 61, 0
2, 292312, Note_on_c, 0, 78, 58
2, 292400, Note_on_c, 0, 81, 40
2, 292436, Note_on_c, 0, 78, 0
2, 292484, Note_on_c, 0, 85, 49
2, 292508, Note_on_c, 0, 81, 0
2, 292548, Note_on_c, 0, 90, 55
2, 292556, Note_on_c, 0, 85, 0
2, 292592, Note_on_c, 0, 90, 0
2, 292632, Note_on_c, 0, 77, 78
2, 292640, Control_c, 0, 64, 104
2, 292652, Control_c, 0, 64, 40
2, 292664, Control_c, 0, 64, 24
2, 292676, Control_c, 0, 64, 40
2, 292688, Control_c, 0, 64, 104
2, 292696, Control_c, 0, 64, 127
2, 292708, Note_on_c, 0, 77, 0
2, 292720, Note_on_c, 0, 73, 43
2, 292752, Note_on_c, 0, 73, 0
2, 292768, Note_on_c, 0, 68, 39
2, 292872, Note_on_c, 0, 68, 0
2, 292888, Note_on_c, 0, 61, 28
2, 292932, Note_on_c, 0, 61, 0
2, 292964, Note_on_c, 0, 77, 67
2, 293032, Note_on_c, 0, 80, 49
2, 293088, Note_on_c, 0, 77, 0
2, 293104, Note_on_c, 0, 85, 58
2, 293140, Note_on_c, 0, 80, 0
2, 293172, Note_on_c, 0, 89, 67
2, 293184, Note_on_c, 0, 85, 0
2, 293216, Note_on_c, 0, 89, 0
2, 293280, Note_on_c, 0, 76, 73
2, 293316, Control_c, 0, 64, 56
2, 293328, Control_c, 0, 64, 0
2, 293352, Control_c, 0, 64, 24
2, 293360, Control_c, 0, 64, 88
2, 293372, Note_on_c, 0, 76, 0
2, 293372, Control_c, 0, 64, 127
2, 293376, Note_on_c, 0, 72, 63
2, 293432, Note_on_c, 0, 72, 0
2, 293452, Note_on_c, 0, 67, 44
2, 293544, Note_on_c, 0, 64, 35
2, 293548, Note_on_c, 0, 67, 0
2, 293584, Note_on_c, 0, 64, 0
2, 293616, Note_on_c, 0, 76, 47
2, 293672, Note_on_c, 0, 79, 64
2, 293696, Note_on_c, 0, 76, 0
2, 293744, Note_on_c, 0, 84, 66
2, 293748, Note_on_c, 0, 79, 0
2, 293816, Note_on_c, 0, 84, 0
2, 293832, Note_on_c, 0, 88, 52
2, 293876, Note_on_c, 0, 88, 0
2, 293900, Note_on_c, 0, 84, 73
2, 293972, Note_on_c, 0, 84, 0
2, 293988, Note_on_c, 0, 79, 59
2, 294040, Note_on_c, 0, 79, 0
2, 294044, Note_on_c, 0, 76, 75
2, 294068, Control_c, 0, 64, 104
2, 294080, Control_c, 0, 64, 56
2, 294084, Note_on_c, 0, 67, 40
2, 294088, Control_c, 0, 64, 40
2, 294100, Control_c, 0, 64, 56
2, 294112, Control_c, 0, 64, 104
2, 294124, Control_c, 0, 64, 127
2, 294132, Note_on_c, 0, 84, 63
2, 294136, Note_on_c, 0, 76, 0
2, 294172, Note_on_c, 0, 67, 0
2, 294192, Note_on_c, 0, 72, 43
2, 294204, Note_on_c, 0, 84, 0
2, 294216, Note_on_c, 0, 76, 75
2, 294280, Note_on_c, 0, 72, 0
2, 294288, Note_on_c, 0, 77, 89
2, 294292, Note_on_c, 0, 76, 0
2, 294304, Note_on_c, 0, 68, 49
2, 294304, Control_c, 0, 64, 104
2, 294336, Control_c, 0, 64, 127
2, 294352, Note_on_c, 0, 77, 0
2, 294372, Note_on_c, 0, 85, 69
2, 294388, Note_on_c, 0, 68, 0
2, 294416, Note_on_c, 0, 73, 28
2, 294444, Note_on_c, 0, 85, 0
2, 294456, Note_on_c, 0, 77, 48
2, 294504, Note_on_c, 0, 78, 74
2, 294508, Note_on_c, 0, 77, 0
2, 294512, Note_on_c, 0, 73, 0
2, 294528, Note_on_c, 0, 69, 44
2, 294528, Control_c, 0, 64, 104
2, 294540, Control_c, 0, 64, 56
2, 294552, Control_c, 0, 64, 40
2, 294560, Control_c, 0, 64, 72
2, 294572, Control_c, 0, 64, 127
2, 294576, Note_on_c, 0, 78, 0
2, 294596, Note_on_c, 0, 86, 70
2, 294608, Note_on_c, 0, 69, 0
2, 294628, Note_on_c, 0, 74, 43
2, 294664, Note_on_c, 0, 86, 0
2, 294664, Note_on_c, 0, 78, 46
2, 294688, Note_on_c, 0, 74, 0
2, 294736, Note_on_c, 0, 78, 0
2, 294740, Note_on_c, 0, 79, 69
2, 294744, Control_c, 0, 64, 104
2, 294752, Note_on_c, 0, 70, 43
2, 294752, Control_c, 0, 64, 88
2, 294764, Control_c, 0, 64, 104
2, 294776, Control_c, 0, 64, 127
2, 294804, Note_on_c, 0, 79, 0
2, 294816, Note_on_c, 0, 70, 0
2, 294816, Note_on_c, 0, 87, 55
2, 294836, Note_on_c, 0, 75, 40
2, 294884, Note_on_c, 0, 87, 0
2, 294896, Note_on_c, 0, 79, 48
2, 294936, Note_on_c, 0, 75, 0
2, 294948, Note_on_c, 0, 71, 50
2, 294952, Note_on_c, 0, 80, 71
2, 294968, Note_on_c, 0, 79, 0
2, 294968, Control_c, 0, 64, 88
2, 294980, Control_c, 0, 64, 104
2, 294988, Control_c, 0, 64, 127
2, 295016, Note_on_c, 0, 80, 0
2, 295024, Note_on_c, 0, 71, 0
2, 295044, Note_on_c, 0, 88, 57
2, 295048, Note_on_c, 0, 76, 51
2, 295112, Note_on_c, 0, 88, 0
2, 295112, Note_on_c, 0, 80, 69
2, 295128, Note_on_c, 0, 76, 0
2, 295176, Note_on_c, 0, 72, 44
2, 295180, Note_on_c, 0, 81, 81
2, 295180, Control_c, 0, 64, 88
2, 295184, Note_on_c, 0, 80, 0
2, 295216, Control_c, 0, 64, 127
2, 295248, Note_on_c, 0, 72, 0
2, 295252, Note_on_c, 0, 81, 0
2, 295264, Note_on_c, 0, 89, 73
2, 295272, Note_on_c, 0, 77, 51
2, 295324, Note_on_c, 0, 89, 0
2, 295336, Note_on_c, 0, 81, 65
2, 295372, Note_on_c, 0, 77, 0
2, 295392, Note_on_c, 0, 73, 51
2, 295392, Control_c, 0, 64, 104
2, 295404, Control_c, 0, 64, 88
2, 295412, Note_on_c, 0, 82, 79
2, 295416, Control_c, 0, 64, 104
2, 295424, Note_on_c, 0, 81, 0
2, 295428, Control_c, 0, 64, 127
2, 295472, Note_on_c, 0, 73, 0
2, 295484, Note_on_c, 0, 82, 0
2, 295488, Note_on_c, 0, 78, 49
2, 295496, Note_on_c, 0, 90, 65
2, 295560, Note_on_c, 0, 82, 51
2, 295588, Note_on_c, 0, 90, 0
2, 295592, Note_on_c, 0, 78, 0
2, 295616, Note_on_c, 0, 74, 52
2, 295624, Note_on_c, 0, 83, 88
2, 295628, Control_c, 0, 64, 104
2, 295636, Note_on_c, 0, 82, 0
2, 295640, Control_c, 0, 64, 88
2, 295652, Control_c, 0, 64, 104
2, 295664, Control_c, 0, 64, 127
2, 295692, Note_on_c, 0, 83, 0
2, 295700, Note_on_c, 0, 74, 0
2, 295704, Note_on_c, 0, 91, 77
2, 295720, Note_on_c, 0, 79, 50
2, 295772, Note_on_c, 0, 91, 0
2, 295780, Note_on_c, 0, 83, 62
2, 295812, Note_on_c, 0, 79, 0
2, 295848, Note_on_c, 0, 75, 48
2, 295848, Note_on_c, 0, 84, 85
2, 295852, Control_c, 0, 64, 104
2, 295868, Note_on_c, 0, 83, 0
2, 295876, Control_c, 0, 64, 127
2, 295912, Note_on_c, 0, 84, 0
2, 295928, Note_on_c, 0, 92, 71
2, 295932, Note_on_c, 0, 75, 0
2, 295952, Note_on_c, 0, 80, 46
2, 296000, Note_on_c, 0, 92, 0
2, 296000, Note_on_c, 0, 84, 72
2, 296068, Note_on_c, 0, 85, 79
2, 296076, Note_on_c, 0, 80, 0
2, 296088, Note_on_c, 0, 84, 0
2, 296088, Note_on_c, 0, 76, 47
2, 296100, Control_c, 0, 64, 104
2, 296136, Control_c, 0, 64, 127
2, 296140, Note_on_c, 0, 85, 0
2, 296156, Note_on_c, 0, 93, 74
2, 296168, Note_on_c, 0, 76, 0
2, 296184, Note_on_c, 0, 81, 43
2, 296216, Note_on_c, 0, 85, 70
2, 296228, Note_on_c, 0, 93, 0
2, 296280, Note_on_c, 0, 81, 0
2, 296300, Note_on_c, 0, 85, 0
2, 296300, Note_on_c, 0, 86, 86
2, 296312, Note_on_c, 0, 77, 55
2, 296324, Control_c, 0, 64, 88
2, 296336, Control_c, 0, 64, 104
2, 296348, Control_c, 0, 64, 127
2, 296368, Note_on_c, 0, 86, 0
2, 296372, Note_on_c, 0, 94, 79
2, 296380, Note_on_c, 0, 77, 0
2, 296392, Note_on_c, 0, 82, 50
2, 296452, Note_on_c, 0, 94, 0
2, 296452, Note_on_c, 0, 86, 71
2, 296508, Note_on_c, 0, 82, 0
2, 296508, Note_on_c, 0, 78, 54
2, 296512, Note_on_c, 0, 87, 87
2, 296540, Note_on_c, 0, 86, 0
2, 296540, Control_c, 0, 64, 104
2, 296572, Control_c, 0, 64, 127
2, 296596, Note_on_c, 0, 87, 0
2, 296596, Note_on_c, 0, 78, 0
2, 296596, Note_on_c, 0, 95, 82
2, 296612, Note_on_c, 0, 83, 62
2, 296664, Note_on_c, 0, 87, 74
2, 296684, Note_on_c, 0, 95, 0
2, 296708, Note_on_c, 0, 83, 0
2, 296736, Note_on_c, 0, 88, 92
2, 296736, Note_on_c, 0, 79, 60
2, 296748, Note_on_c, 0, 87, 0
2, 296764, Control_c, 0, 64, 104
2, 296800, Control_c, 0, 64, 127
2, 296812, Note_on_c, 0, 88, 0
2, 296820, Note_on_c, 0, 96, 90
2, 296836, Note_on_c, 0, 79, 0
2, 296848, Note_on_c, 0, 84, 57
2, 296896, Note_on_c, 0, 88, 69
2, 296908, Note_on_c, 0, 96, 0
2, 296924, Note_on_c, 0, 84, 0
2, 296972, Note_on_c, 0, 78, 57
2, 296972, Note_on_c, 0, 87, 88
2, 296992, Note_on_c, 0, 88, 0
2, 297000, Control_c, 0, 64, 104
2, 297012, Control_c, 0, 64, 88
2, 297024, Control_c, 0, 64, 104
2, 297036, Control_c, 0, 64, 127
2, 297044, Note_on_c, 0, 95, 86
2, 297048, Note_on_c, 0, 87, 0
2, 297056, Note_on_c, 0, 78, 0
2, 297072, Note_on_c, 0, 83, 60
2, 297108, Note_on_c, 0, 87, 52
2, 297136, Note_on_c, 0, 95, 0
2, 297160, Note_on_c, 0, 83, 0
2, 297180, Note_on_c, 0, 86, 80
2, 297208, Note_on_c, 0, 87, 0
2, 297212, Note_on_c, 0, 77, 50
2, 297212, Control_c, 0, 64, 104
2, 297224, Control_c, 0, 64, 72
2, 297236, Control_c, 0, 64, 88
2, 297244, Control_c, 0, 64, 127
2, 297252, Note_on_c, 0, 86, 0
2, 297260, Note_on_c, 0, 94, 71
2, 297300, Note_on_c, 0, 77, 0
2, 297312, Note_on_c, 0, 82, 34
2, 297332, Note_on_c, 0, 86, 72
2, 297340, Note_on_c, 0, 94, 0
2, 297408, Note_on_c, 0, 86, 0
2, 297408, Note_on_c, 0, 85, 81
2, 297420, Note_on_c, 0, 82, 0
2, 297448, Note_on_c, 0, 76, 42
2, 297460, Control_c, 0, 64, 88
2, 297472, Control_c, 0, 64, 72
2, 297480, Note_on_c, 0, 85, 0
2, 297480, Control_c, 0, 64, 88
2, 297488, Note_on_c, 0, 93, 78
2, 297492, Control_c, 0, 64, 127
2, 297524, Note_on_c, 0, 76, 0
2, 297540, Note_on_c, 0, 81, 37
2, 297556, Note_on_c, 0, 85, 70
2, 297568, Note_on_c, 0, 93, 0
2, 297592, Note_on_c, 0, 81, 0
2, 297624, Note_on_c, 0, 84, 80
2, 297632, Note_on_c, 0, 85, 0
2, 297656, Note_on_c, 0, 75, 50
2, 297664, Control_c, 0, 64, 104
2, 297672, Control_c, 0, 64, 72
2, 297692, Note_on_c, 0, 84, 0
2, 297704, Note_on_c, 0, 92, 62
2, 297708, Control_c, 0, 64, 127
2, 297736, Note_on_c, 0, 75, 0
2, 297768, Note_on_c, 0, 80, 36
2, 297776, Note_on_c, 0, 84, 71
2, 297784, Note_on_c, 0, 92, 0
2, 297852, Note_on_c, 0, 83, 81
2, 297860, Note_on_c, 0, 84, 0
2, 297864, Note_on_c, 0, 80, 0
2, 297880, Note_on_c, 0, 74, 43
2, 297900, Control_c, 0, 64, 104
2, 297908, Control_c, 0, 64, 88
2, 297920, Note_on_c, 0, 83, 0
2, 297920, Control_c, 0, 64, 104
2, 297932, Note_on_c, 0, 91, 70
2, 297932, Control_c, 0, 64, 127
2, 297948, Note_on_c, 0, 74, 0
2, 297964, Note_on_c, 0, 79, 44
2, 298004, Note_on_c, 0, 91, 0
2, 298008, Note_on_c, 0, 83, 62
2, 298060, Note_on_c, 0, 79, 0
2, 298076, Note_on_c, 0, 83, 0
2, 298080, Note_on_c, 0, 82, 78
2, 298096, Note_on_c, 0, 73, 43
2, 298112, Control_c, 0, 64, 104
2, 298120, Control_c, 0, 64, 88
2, 298136, Control_c, 0, 64, 104
2, 298144, Control_c, 0, 64, 127
2, 298152, Note_on_c, 0, 82, 0
2, 298160, Note_on_c, 0, 90, 67
2, 298172, Note_on_c, 0, 73, 0
2, 298196, Note_on_c, 0, 78, 37
2, 298212, Note_on_c, 0, 82, 64
2, 298236, Note_on_c, 0, 90, 0
2, 298280, Note_on_c, 0, 82, 0
2, 298304, Note_on_c, 0, 78, 0
2, 298320, Note_on_c, 0, 81, 85
2, 298324, Note_on_c, 0, 72, 49
2, 298336, Control_c, 0, 64, 104
2, 298348, Control_c, 0, 64, 72
2, 298360, Control_c, 0, 64, 88
2, 298372, Control_c, 0, 64, 127
2, 298396, Note_on_c, 0, 81, 0
2, 298412, Note_on_c, 0, 72, 0
2, 298412, Note_on_c, 0, 89, 71
2, 298436, Note_on_c, 0, 77, 47
2, 298488, Note_on_c, 0, 89, 0
2, 298488, Note_on_c, 0, 81, 57
2, 298504, Note_on_c, 0, 77, 0
2, 298564, Note_on_c, 0, 80, 81
2, 298572, Note_on_c, 0, 71, 36
2, 298576, Note_on_c, 0, 81, 0
2, 298584, Control_c, 0, 64, 104
2, 298596, Control_c, 0, 64, 72
2, 298608, Control_c, 0, 64, 88
2, 298616, Control_c, 0, 64, 127
2, 298632, Note_on_c, 0, 80, 0
2, 298648, Note_on_c, 0, 88, 64
2, 298656, Note_on_c, 0, 71, 0
2, 298676, Note_on_c, 0, 76, 37
2, 298712, Note_on_c, 0, 80, 44
2, 298732, Note_on_c, 0, 88, 0
2, 298764, Note_on_c, 0, 76, 0
2, 298780, Note_on_c, 0, 79, 73
2, 298788, Note_on_c, 0, 70, 40
2, 298792, Note_on_c, 0, 80, 0
2, 298808, Control_c, 0, 64, 88
2, 298844, Control_c, 0, 64, 127
2, 298848, Note_on_c, 0, 79, 0
2, 298860, Note_on_c, 0, 87, 64
2, 298868, Note_on_c, 0, 70, 0
2, 298900, Note_on_c, 0, 75, 39
2, 298940, Note_on_c, 0, 79, 62
2, 298948, Note_on_c, 0, 87, 0
2, 298996, Note_on_c, 0, 75, 0
2, 299016, Note_on_c, 0, 78, 78
2, 299020, Note_on_c, 0, 69, 44
2, 299024, Note_on_c, 0, 79, 0
2, 299044, Control_c, 0, 64, 72
2, 299056, Control_c, 0, 64, 56
2, 299068, Control_c, 0, 64, 72
2, 299080, Control_c, 0, 64, 127
2, 299084, Note_on_c, 0, 78, 0
2, 299100, Note_on_c, 0, 69, 0
2, 299100, Note_on_c, 0, 86, 63
2, 299124, Note_on_c, 0, 74, 37
2, 299172, Note_on_c, 0, 86, 0
2, 299172, Note_on_c, 0, 78, 43
2, 299176, Note_on_c, 0, 74, 0
2, 299236, Note_on_c, 0, 77, 73
2, 299240, Note_on_c, 0, 78, 0
2, 299240, Note_on_c, 0, 68, 37
2, 299256, Control_c, 0, 64, 88
2, 299268, Control_c, 0, 64, 72
2, 299280, Control_c, 0, 64, 104
2, 299292, Note_on_c, 0, 77, 0
2, 299292, Control_c, 0, 64, 127
2, 299312, Note_on_c, 0, 85, 55
2, 299316, Note_on_c, 0, 68, 0
2, 299340, Note_on_c, 0, 73, 41
2, 299392, Note_on_c, 0, 77, 63
2, 299400, Note_on_c, 0, 85, 0
2, 299440, Note_on_c, 0, 73, 0
2, 299460, Note_on_c, 0, 67, 41
2, 299468, Note_on_c, 0, 77, 0
2, 299468, Note_on_c, 0, 76, 73
2, 299480, Control_c, 0, 64, 88
2, 299492, Control_c, 0, 64, 72
2, 299504, Control_c, 0, 64, 88
2, 299516, Control_c, 0, 64, 127
2, 299528, Note_on_c, 0, 76, 0
2, 299540, Note_on_c, 0, 67, 0
2, 299552, Note_on_c, 0, 84, 55
2, 299572, Note_on_c, 0, 72, 41
2, 299624, Note_on_c, 0, 84, 0
2, 299624, Note_on_c, 0, 76, 55
2, 299652, Note_on_c, 0, 72, 0
2, 299688, Note_on_c, 0, 66, 39
2, 299692, Note_on_c, 0, 76, 0
2, 299704, Note_on_c, 0, 75, 79
2, 299740, Control_c, 0, 64, 72
2, 299752, Control_c, 0, 64, 56
2, 299764, Control_c, 0, 64, 72
2, 299772, Control_c, 0, 64, 127
2, 299784, Note_on_c, 0, 75, 0
2, 299788, Note_on_c, 0, 66, 0
2, 299792, Note_on_c, 0, 83, 62
2, 299812, Note_on_c, 0, 69, 29
2, 299852, Note_on_c, 0, 83, 0
2, 299860, Note_on_c, 0, 69, 0
2, 299860, Note_on_c, 0, 75, 69
2, 299920, Note_on_c, 0, 75, 0
2, 299944, Note_on_c, 0, 67, 54
2, 299948, Note_on_c, 0, 76, 87
2, 299964, Control_c, 0, 64, 88
2, 299976, Control_c, 0, 64, 72
2, 299988, Control_c, 0, 64, 88
2, 300000, Control_c, 0, 64, 127
2, 300028, Note_on_c, 0, 76, 0
2, 300028, Note_on_c, 0, 67, 0
2, 300032, Note_on_c, 0, 84, 79
2, 300036, Note_on_c, 0, 70, 48
2, 300108, Note_on_c, 0, 84, 0
2, 300112, Note_on_c, 0, 76, 62
2, 300144, Note_on_c, 0, 70, 0
2, 300172, Note_on_c, 0, 66, 44
2, 300176, Note_on_c, 0, 76, 0
2, 300176, Note_on_c, 0, 75, 82
2, 300212, Control_c, 0, 64, 56
2, 300236, Control_c, 0, 64, 88
2, 300244, Control_c, 0, 64, 127
2, 300248, Note_on_c, 0, 75, 0
2, 300260, Note_on_c, 0, 83, 69
2, 300276, Note_on_c, 0, 66, 0
2, 300300, Note_on_c, 0, 69, 48
2, 300328, Note_on_c, 0, 75, 65
2, 300332, Note_on_c, 0, 83, 0
2, 300384, Note_on_c, 0, 69, 0
2, 300408, Note_on_c, 0, 75, 0
2, 300428, Note_on_c, 0, 76, 74
2, 300432, Note_on_c, 0, 67, 35
2, 300436, Control_c, 0, 64, 88
2, 300448, Control_c, 0, 64, 56
2, 300460, Control_c, 0, 64, 72
2, 300472, Control_c, 0, 64, 127
2, 300492, Note_on_c, 0, 76, 0
2, 300504, Note_on_c, 0, 84, 66
2, 300512, Note_on_c, 0, 67, 0
2, 300528, Note_on_c, 0, 70, 33
2, 300584, Note_on_c, 0, 84, 0
2, 300588, Note_on_c, 0, 76, 50
2, 300612, Note_on_c, 0, 70, 0
2, 300636, Note_on_c, 0, 66, 43
2, 300644, Note_on_c, 0, 76, 0
2, 300644, Note_on_c, 0, 75, 67
2, 300664, Control_c, 0, 64, 72
2, 300672, Control_c, 0, 64, 40
2, 300684, Control_c, 0, 64, 72
2, 300696, Control_c, 0, 64, 104
2, 300704, Control_c, 0, 64, 127
2, 300716, Note_on_c, 0, 75, 0
2, 300732, Note_on_c, 0, 83, 64
2, 300736, Note_on_c, 0, 66, 0
2, 300760, Note_on_c, 0, 69, 36
2, 300812, Note_on_c, 0, 75, 42
2, 300816, Note_on_c, 0, 83, 0
2, 300840, Note_on_c, 0, 69, 0
2, 300888, Note_on_c, 0, 75, 0
2, 300888, Note_on_c, 0, 67, 29
2, 300896, Note_on_c, 0, 76, 62
2, 300908, Control_c, 0, 64, 72
2, 300920, Control_c, 0, 64, 56
2, 300932, Control_c, 0, 64, 72
2, 300944, Control_c, 0, 64, 104
2, 300952, Control_c, 0, 64, 127
2, 300968, Note_on_c, 0, 67, 0
2, 300968, Note_on_c, 0, 84, 67
2, 300976, Note_on_c, 0, 76, 0
2, 300980, Note_on_c, 0, 70, 36
2, 301056, Note_on_c, 0, 84, 0
2, 301060, Note_on_c, 0, 76, 47
2, 301076, Note_on_c, 0, 70, 0
2, 301100, Note_on_c, 0, 66, 46
2, 301124, Control_c, 0, 64, 88
2, 301132, Note_on_c, 0, 76, 0
2, 301132, Note_on_c, 0, 75, 58
2, 301136, Control_c, 0, 64, 72
2, 301156, Control_c, 0, 64, 104
2, 301168, Control_c, 0, 64, 127
2, 301204, Note_on_c, 0, 66, 0
2, 301208, Note_on_c, 0, 75, 0
2, 301224, Note_on_c, 0, 83, 54
2, 301240, Note_on_c, 0, 69, 24
2, 301308, Note_on_c, 0, 83, 0
2, 301308, Note_on_c, 0, 75, 48
2, 301324, Note_on_c, 0, 69, 0
2, 301360, Note_on_c, 0, 67, 28
2, 301392, Note_on_c, 0, 75, 0
2, 301404, Control_c, 0, 64, 72
2, 301408, Note_on_c, 0, 76, 66
2, 301416, Control_c, 0, 64, 0
2, 301448, Control_c, 0, 64, 40
2, 301452, Note_on_c, 0, 70, 39
2, 301460, Control_c, 0, 64, 104
2, 301468, Control_c, 0, 64, 127
2, 301492, Note_on_c, 0, 76, 0
2, 301496, Note_on_c, 0, 84, 59
2, 301564, Note_on_c, 0, 70, 0
2, 301568, Note_on_c, 0, 84, 0
2, 301576, Note_on_c, 0, 67, 0
2, 301588, Note_on_c, 0, 76, 41
2, 301620, Note_on_c, 0, 76, 0
2, 301704, Note_on_c, 0, 76, 73
2, 301752, Note_on_c, 0, 76, 0
2, 301788, Note_on_c, 0, 76, 71
2, 301800, Control_c, 0, 64, 40
2, 301808, Control_c, 0, 64, 56
2, 301816, Control_c, 0, 64, 72
2, 301824, Control_c, 0, 64, 88
2, 301836, Note_on_c, 0, 76, 0
2, 301836, Control_c, 0, 64, 104
2, 301844, Control_c, 0, 64, 127
2, 301892, Note_on_c, 0, 76, 71
2, 301928, Note_on_c, 0, 76, 0
2, 301984, Note_on_c, 0, 76, 64
2, 302040, Note_on_c, 0, 76, 0
2, 302076, Note_on_c, 0, 88, 73
2, 302112, Note_on_c, 0, 88, 0
2, 302160, Control_c, 0, 64, 104
2, 302168, Control_c, 0, 64, 40
2, 302172, Note_on_c, 0, 78, 73
2, 302176, Control_c, 0, 64, 0
2, 302212, Control_c, 0, 64, 72
2, 302220, Control_c, 0, 64, 127
2, 302224, Note_on_c, 0, 78, 0
2, 302236, Note_on_c, 0, 59, 28
2, 302244, Note_on_c, 0, 64, 49
2, 302260, Note_on_c, 0, 59, 0
2, 302276, Note_on_c, 0, 68, 36
2, 302288, Note_on_c, 0, 80, 79
2, 302300, Note_on_c, 0, 71, 44
2, 302308, Note_on_c, 0, 64, 0
2, 302328, Note_on_c, 0, 71, 0
2, 302332, Note_on_c, 0, 80, 0
2, 302332, Note_on_c, 0, 68, 0
2, 302368, Note_on_c, 0, 80, 65
2, 302416, Note_on_c, 0, 80, 0
2, 302472, Note_on_c, 0, 80, 66
2, 302512, Note_on_c, 0, 80, 0
2, 302560, Note_on_c, 0, 80, 69
2, 302620, Note_on_c, 0, 80, 0
2, 302652, Note_on_c, 0, 92, 74
2, 302696, Note_on_c, 0, 92, 0
2, 302752, Note_on_c, 0, 81, 72
2, 302792, Note_on_c, 0, 81, 0
2, 302848, Note_on_c, 0, 83, 73
2, 302888, Note_on_c, 0, 83, 0
2, 302940, Note_on_c, 0, 83, 80
2, 302984, Note_on_c, 0, 83, 0
2, 303044, Note_on_c, 0, 83, 87
2, 303080, Note_on_c, 0, 83, 0
2, 303128, Note_on_c, 0, 83, 78
2, 303188, Note_on_c, 0, 83, 0
2, 303232, Note_on_c, 0, 95, 82
2, 303280, Note_on_c, 0, 95, 0
2, 303300, Control_c, 0, 64, 88
2, 303308, Control_c, 0, 64, 0
2, 303316, Note_on_c, 0, 83, 79
2, 303344, Note_on_c, 0, 59, 57
2, 303352, Control_c, 0, 64, 40
2, 303360, Control_c, 0, 64, 127
2, 303376, Note_on_c, 0, 83, 0
2, 303384, Note_on_c, 0, 64, 52
2, 303392, Note_on_c, 0, 59, 0
2, 303400, Note_on_c, 0, 68, 55
2, 303432, Note_on_c, 0, 85, 86
2, 303432, Note_on_c, 0, 71, 55
2, 303436, Note_on_c, 0, 64, 0
2, 303456, Note_on_c, 0, 68, 0
2, 303476, Note_on_c, 0, 85, 0
2, 303488, Note_on_c, 0, 71, 0
2, 303520, Note_on_c, 0, 85, 81
2, 303560, Note_on_c, 0, 85, 0
2, 303620, Note_on_c, 0, 85, 77
2, 303656, Note_on_c, 0, 85, 0
2, 303704, Note_on_c, 0, 85, 73
2, 303760, Note_on_c, 0, 85, 0
2, 303796, Note_on_c, 0, 97, 78
2, 303860, Note_on_c, 0, 97, 0
2, 303896, Note_on_c, 0, 83, 67
2, 303928, Note_on_c, 0, 83, 0
2, 303992, Note_on_c, 0, 83, 86
2, 304024, Note_on_c, 0, 83, 0
2, 304084, Note_on_c, 0, 83, 88
2, 304120, Note_on_c, 0, 83, 0
2, 304180, Note_on_c, 0, 83, 78
2, 304208, Note_on_c, 0, 83, 0
2, 304268, Note_on_c, 0, 83, 75
2, 304316, Note_on_c, 0, 83, 0
2, 304356, Note_on_c, 0, 95, 80
2, 304388, Control_c, 0, 64, 56
2, 304396, Control_c, 0, 64, 0
2, 304400, Note_on_c, 0, 95, 0
2, 304416, Control_c, 0, 64, 24
2, 304424, Control_c, 0, 64, 72
2, 304432, Control_c, 0, 64, 127
2, 304444, Note_on_c, 0, 82, 74
2, 304444, Note_on_c, 0, 59, 57
2, 304480, Note_on_c, 0, 82, 0
2, 304488, Note_on_c, 0, 59, 0
2, 304500, Note_on_c, 0, 66, 51
2, 304528, Note_on_c, 0, 69, 55
2, 304560, Note_on_c, 0, 81, 77
2, 304564, Note_on_c, 0, 66, 0
2, 304572, Note_on_c, 0, 75, 59
2, 304596, Note_on_c, 0, 69, 0
2, 304600, Note_on_c, 0, 81, 0
2, 304648, Note_on_c, 0, 75, 0
2, 304652, Note_on_c, 0, 81, 78
2, 304692, Note_on_c, 0, 81, 0
2, 304748, Note_on_c, 0, 81, 80
2, 304784, Note_on_c, 0, 81, 0
2, 304840, Note_on_c, 0, 81, 67
2, 304892, Note_on_c, 0, 81, 0
2, 304936, Note_on_c, 0, 93, 87
2, 304976, Note_on_c, 0, 93, 0
2, 305028, Note_on_c, 0, 80, 77
2, 305072, Note_on_c, 0, 80, 0
2, 305124, Note_on_c, 0, 78, 74
2, 305160, Note_on_c, 0, 78, 0
2, 305220, Note_on_c, 0, 78, 74
2, 305260, Note_on_c, 0, 78, 0
2, 305316, Note_on_c, 0, 78, 70
2, 305352, Note_on_c, 0, 78, 0
2, 305408, Note_on_c, 0, 78, 69
2, 305464, Note_on_c, 0, 78, 0
2, 305496, Note_on_c, 0, 90, 74
2, 305528, Note_on_c, 0, 90, 0
2, 305588, Note_on_c, 0, 71, 80
2, 305636, Note_on_c, 0, 71, 0
2, 305648, Note_on_c, 0, 59, 47
2, 305664, Note_on_c, 0, 63, 46
2, 305680, Note_on_c, 0, 66, 42
2, 305680, Control_c, 0, 64, 104
2, 305688, Control_c, 0, 64, 56
2, 305696, Note_on_c, 0, 72, 89
2, 305696, Control_c, 0, 64, 40
2, 305704, Note_on_c, 0, 69, 51
2, 305724, Control_c, 0, 64, 127
2, 305736, Note_on_c, 0, 72, 0
2, 305788, Note_on_c, 0, 72, 73
2, 305792, Note_on_c, 0, 59, 0
2, 305796, Note_on_c, 0, 66, 0
2, 305800, Note_on_c, 0, 63, 0
2, 305800, Note_on_c, 0, 69, 0
2, 305820, Note_on_c, 0, 72, 0
2, 305880, Note_on_c, 0, 72, 78
2, 305916, Note_on_c, 0, 72, 0
2, 305976, Note_on_c, 0, 72, 73
2, 306028, Note_on_c, 0, 72, 0
2, 306068, Note_on_c, 0, 84, 70
2, 306092, Note_on_c, 0, 84, 0
2, 306160, Note_on_c, 0, 71, 66
2, 306216, Note_on_c, 0, 71, 0
2, 306264, Note_on_c, 0, 78, 81
2, 306312, Control_c, 0, 64, 88
2, 306324, Note_on_c, 0, 78, 0
2, 306336, Control_c, 0, 64, 127
2, 306348, Note_on_c, 0, 78, 87
2, 306392, Note_on_c, 0, 78, 0
2, 306440, Note_on_c, 0, 78, 71
2, 306484, Note_on_c, 0, 78, 0
2, 306524, Note_on_c, 0, 78, 60
2, 306572, Note_on_c, 0, 78, 0
2, 306612, Note_on_c, 0, 90, 77
2, 306672, Note_on_c, 0, 90, 0
2, 306708, Note_on_c, 0, 81, 86
2, 306708, Control_c, 0, 64, 56
2, 306716, Control_c, 0, 64, 0
2, 306732, Note_on_c, 0, 59, 57
2, 306732, Control_c, 0, 64, 40
2, 306740, Control_c, 0, 64, 88
2, 306752, Control_c, 0, 64, 127
2, 306764, Note_on_c, 0, 81, 0
2, 306772, Note_on_c, 0, 59, 0
2, 306780, Note_on_c, 0, 66, 52
2, 306804, Note_on_c, 0, 69, 56
2, 306824, Note_on_c, 0, 85, 88
2, 306852, Note_on_c, 0, 75, 60
2, 306876, Note_on_c, 0, 85, 0
2, 306896, Note_on_c, 0, 69, 0
2, 306912, Note_on_c, 0, 85, 73
2, 306956, Note_on_c, 0, 85, 0
2, 307008, Note_on_c, 0, 85, 73
2, 307048, Note_on_c, 0, 85, 0
2, 307096, Note_on_c, 0, 85, 66
2, 307148, Note_on_c, 0, 85, 0
2, 307176, Note_on_c, 0, 75, 0
2, 307180, Note_on_c, 0, 97, 78
2, 307188, Note_on_c, 0, 66, 0
2, 307236, Note_on_c, 0, 97, 0
2, 307276, Note_on_c, 0, 83, 79
2, 307320, Note_on_c, 0, 83, 0
2, 307376, Note_on_c, 0, 83, 95
2, 307400, Control_c, 0, 64, 88
2, 307408, Control_c, 0, 64, 72
2, 307416, Note_on_c, 0, 83, 0
2, 307416, Control_c, 0, 64, 88
2, 307428, Control_c, 0, 64, 127
2, 307472, Note_on_c, 0, 83, 82
2, 307508, Note_on_c, 0, 83, 0
2, 307560, Note_on_c, 0, 83, 80
2, 307592, Note_on_c, 0, 83, 0
2, 307652, Note_on_c, 0, 83, 83
2, 307700, Note_on_c, 0, 83, 0
2, 307744, Note_on_c, 0, 95, 75
2, 307780, Control_c, 0, 64, 104
2, 307788, Control_c, 0, 64, 72
2, 307796, Control_c, 0, 64, 88
2, 307804, Control_c, 0, 64, 127
2, 307812, Note_on_c, 0, 95, 0
2, 307828, Note_on_c, 0, 59, 59
2, 307828, Note_on_c, 0, 83, 75
2, 307860, Note_on_c, 0, 59, 0
2, 307868, Note_on_c, 0, 65, 55
2, 307876, Note_on_c, 0, 83, 0
2, 307888, Note_on_c, 0, 68, 59
2, 307940, Note_on_c, 0, 65, 0
2, 307948, Note_on_c, 0, 80, 79
2, 307952, Note_on_c, 0, 74, 60
2, 307976, Note_on_c, 0, 68, 0
2, 307996, Note_on_c, 0, 80, 0
2, 308000, Note_on_c, 0, 74, 0
2, 308036, Note_on_c, 0, 80, 73
2, 308076, Note_on_c, 0, 80, 0
2, 308136, Note_on_c, 0, 80, 65
2, 308168, Note_on_c, 0, 80, 0
2, 308228, Note_on_c, 0, 80, 65
2, 308284, Note_on_c, 0, 80, 0
2, 308324, Note_on_c, 0, 92, 79
2, 308384, Note_on_c, 0, 92, 0
2, 308408, Note_on_c, 0, 80, 80
2, 308452, Note_on_c, 0, 80, 0
2, 308516, Note_on_c, 0, 81, 78
2, 308552, Note_on_c, 0, 81, 0
2, 308608, Note_on_c, 0, 81, 74
2, 308656, Note_on_c, 0, 81, 0
2, 308708, Note_on_c, 0, 81, 70
2, 308744, Note_on_c, 0, 81, 0
2, 308792, Note_on_c, 0, 81, 71
2, 308852, Note_on_c, 0, 81, 0
2, 308888, Note_on_c, 0, 93, 79
2, 308952, Control_c, 0, 64, 104
2, 308960, Note_on_c, 0, 93, 0
2, 308964, Control_c, 0, 64, 88
2, 308972, Control_c, 0, 64, 104
2, 308976, Note_on_c, 0, 81, 73
2, 308980, Control_c, 0, 64, 127
2, 308996, Note_on_c, 0, 60, 59
2, 309016, Note_on_c, 0, 64, 51
2, 309020, Note_on_c, 0, 81, 0
2, 309048, Note_on_c, 0, 60, 0
2, 309052, Note_on_c, 0, 69, 52
2, 309084, Note_on_c, 0, 64, 0
2, 309088, Note_on_c, 0, 76, 81
2, 309088, Note_on_c, 0, 72, 47
2, 309104, Note_on_c, 0, 69, 0
2, 309112, Note_on_c, 0, 72, 0
2, 309124, Note_on_c, 0, 76, 0
2, 309184, Note_on_c, 0, 76, 62
2, 309220, Note_on_c, 0, 76, 0
2, 309276, Note_on_c, 0, 76, 75
2, 309316, Note_on_c, 0, 76, 0
2, 309364, Note_on_c, 0, 76, 74
2, 309412, Note_on_c, 0, 76, 0
2, 309460, Note_on_c, 0, 88, 70
2, 309504, Note_on_c, 0, 88, 0
2, 309540, Note_on_c, 0, 76, 74
2, 309612, Note_on_c, 0, 76, 0
2, 309648, Note_on_c, 0, 79, 83
2, 309648, Control_c, 0, 64, 40
2, 309656, Control_c, 0, 64, 0
2, 309700, Control_c, 0, 64, 40
2, 309708, Note_on_c, 0, 79, 0
2, 309708, Control_c, 0, 64, 127
2, 309736, Note_on_c, 0, 79, 71
2, 309792, Note_on_c, 0, 79, 0
2, 309848, Note_on_c, 0, 79, 69
2, 309880, Note_on_c, 0, 79, 0
2, 309940, Note_on_c, 0, 79, 71
2, 310000, Note_on_c, 0, 79, 0
2, 310028, Note_on_c, 0, 91, 82
2, 310028, Control_c, 0, 64, 72
2, 310036, Control_c, 0, 64, 40
2, 310044, Control_c, 0, 64, 56
2, 310052, Control_c, 0, 64, 127
2, 310096, Note_on_c, 0, 91, 0
2, 310120, Note_on_c, 0, 79, 78
2, 310124, Note_on_c, 0, 61, 57
2, 310172, Note_on_c, 0, 61, 0
2, 310176, Note_on_c, 0, 79, 0
2, 310184, Note_on_c, 0, 67, 51
2, 310204, Note_on_c, 0, 70, 52
2, 310240, Note_on_c, 0, 79, 77
2, 310256, Note_on_c, 0, 75, 75
2, 310276, Note_on_c, 0, 79, 0
2, 310280, Note_on_c, 0, 67, 0
2, 310324, Note_on_c, 0, 75, 0
2, 310340, Note_on_c, 0, 70, 0
2, 310340, Note_on_c, 0, 79, 80
2, 310388, Note_on_c, 0, 79, 0
2, 310436, Note_on_c, 0, 79, 47
2, 310472, Note_on_c, 0, 79, 0
2, 310536, Note_on_c, 0, 79, 59
2, 310592, Note_on_c, 0, 79, 0
2, 310632, Note_on_c, 0, 91, 71
2, 310688, Note_on_c, 0, 91, 0
2, 310716, Note_on_c, 0, 79, 77
2, 310760, Note_on_c, 0, 79, 0
2, 310812, Note_on_c, 0, 79, 69
2, 310852, Note_on_c, 0, 79, 0
2, 310912, Note_on_c, 0, 79, 66
2, 310952, Note_on_c, 0, 79, 0
2, 311020, Note_on_c, 0, 79, 67
2, 311052, Note_on_c, 0, 79, 0
2, 311128, Note_on_c, 0, 79, 72
2, 311184, Note_on_c, 0, 79, 0
2, 311224, Note_on_c, 0, 91, 66
2, 311256, Control_c, 0, 64, 104
2, 311264, Control_c, 0, 64, 56
2, 311272, Control_c, 0, 64, 0
2, 311284, Note_on_c, 0, 91, 0
2, 311300, Control_c, 0, 64, 88
2, 311308, Control_c, 0, 64, 127
2, 311316, Note_on_c, 0, 79, 66
2, 311340, Note_on_c, 0, 61, 43
2, 311380, Note_on_c, 0, 79, 0
2, 311384, Note_on_c, 0, 61, 0
2, 311404, Note_on_c, 0, 67, 47
2, 311416, Note_on_c, 0, 70, 46
2, 311456, Note_on_c, 0, 79, 71
2, 311472, Note_on_c, 0, 67, 0
2, 311472, Note_on_c, 0, 76, 66
2, 311496, Note_on_c, 0, 79, 0
2, 311500, Note_on_c, 0, 70, 0
2, 311512, Note_on_c, 0, 76, 0
2, 311568, Note_on_c, 0, 79, 66
2, 311616, Note_on_c, 0, 79, 0
2, 311680, Note_on_c, 0, 79, 59
2, 311724, Note_on_c, 0, 79, 0
2, 311780, Note_on_c, 0, 79, 63
2, 311848, Note_on_c, 0, 79, 0
2, 311892, Note_on_c, 0, 91, 63
2, 311956, Note_on_c, 0, 91, 0
2, 312024, Note_on_c, 0, 79, 50
2, 312092, Note_on_c, 0, 79, 0
2, 312176, Note_on_c, 0, 79, 75
2, 312176, Control_c, 0, 64, 56
2, 312184, Control_c, 0, 64, 24
2, 312212, Control_c, 0, 64, 127
2, 312224, Note_on_c, 0, 79, 0
2, 312268, Note_on_c, 0, 79, 73
2, 312316, Note_on_c, 0, 79, 0
2, 312372, Note_on_c, 0, 79, 73
2, 312408, Note_on_c, 0, 79, 0
2, 312468, Note_on_c, 0, 79, 69
2, 312516, Note_on_c, 0, 79, 0
2, 312564, Note_on_c, 0, 91, 75
2, 312612, Note_on_c, 0, 91, 0
2, 312656, Note_on_c, 0, 81, 82
2, 312676, Control_c, 0, 64, 72
2, 312684, Control_c, 0, 64, 24
2, 312692, Note_on_c, 0, 62, 44
2, 312712, Control_c, 0, 64, 127
2, 312716, Note_on_c, 0, 67, 35
2, 312728, Note_on_c, 0, 81, 0
2, 312736, Note_on_c, 0, 62, 0
2, 312736, Note_on_c, 0, 71, 44
2, 312764, Note_on_c, 0, 83, 89
2, 312768, Note_on_c, 0, 74, 59
2, 312776, Note_on_c, 0, 67, 0
2, 312796, Note_on_c, 0, 71, 0
2, 312800, Note_on_c, 0, 74, 0
2, 312808, Note_on_c, 0, 83, 0
2, 312860, Note_on_c, 0, 83, 82
2, 312900, Note_on_c, 0, 83, 0
2, 312956, Note_on_c, 0, 83, 73
2, 312992, Note_on_c, 0, 83, 0
2, 313040, Note_on_c, 0, 83, 67
2, 313088, Note_on_c, 0, 83, 0
2, 313136, Note_on_c, 0, 95, 73
2, 313180, Note_on_c, 0, 95, 0
2, 313224, Note_on_c, 0, 84, 73
2, 313288, Note_on_c, 0, 84, 0
2, 313320, Note_on_c, 0, 86, 89
2, 313364, Note_on_c, 0, 86, 0
2, 313412, Note_on_c, 0, 86, 75
2, 313452, Note_on_c, 0, 86, 0
2, 313508, Note_on_c, 0, 86, 71
2, 313536, Note_on_c, 0, 86, 0
2, 313596, Note_on_c, 0, 86, 73
2, 313652, Note_on_c, 0, 86, 0
2, 313700, Note_on_c, 0, 98, 79
2, 313756, Note_on_c, 0, 98, 0
2, 313784, Note_on_c, 0, 86, 75
2, 313800, Control_c, 0, 64, 88
2, 313808, Control_c, 0, 64, 40
2, 313816, Control_c, 0, 64, 0
2, 313828, Control_c, 0, 64, 40
2, 313832, Note_on_c, 0, 62, 66
2, 313836, Control_c, 0, 64, 88
2, 313844, Control_c, 0, 64, 127
2, 313856, Note_on_c, 0, 86, 0
2, 313856, Note_on_c, 0, 67, 42
2, 313872, Note_on_c, 0, 62, 0
2, 313880, Note_on_c, 0, 71, 48
2, 313900, Note_on_c, 0, 88, 83
2, 313908, Note_on_c, 0, 74, 62
2, 313920, Note_on_c, 0, 67, 0
2, 313936, Note_on_c, 0, 71, 0
2, 313948, Note_on_c, 0, 88, 0
2, 313952, Note_on_c, 0, 74, 0
2, 313992, Note_on_c, 0, 88, 83
2, 314032, Note_on_c, 0, 88, 0
2, 314084, Note_on_c, 0, 88, 78
2, 314124, Note_on_c, 0, 88, 0
2, 314176, Note_on_c, 0, 88, 71
2, 314236, Note_on_c, 0, 88, 0
2, 314260, Note_on_c, 0, 100, 73
2, 314312, Note_on_c, 0, 100, 0
2, 314352, Note_on_c, 0, 86, 87
2, 314400, Note_on_c, 0, 86, 0
2, 314448, Note_on_c, 0, 86, 69
2, 314488, Note_on_c, 0, 86, 0
2, 314540, Note_on_c, 0, 86, 87
2, 314576, Note_on_c, 0, 86, 0
2, 314632, Note_on_c, 0, 86, 82
2, 314668, Note_on_c, 0, 86, 0
2, 314724, Note_on_c, 0, 86, 73
2, 314784, Note_on_c, 0, 86, 0
2, 314812, Note_on_c, 0, 98, 77
2, 314856, Note_on_c, 0, 98, 0
2, 314896, Control_c, 0, 64, 88
2, 314904, Note_on_c, 0, 85, 77
2, 314908, Control_c, 0, 64, 40
2, 314928, Note_on_c, 0, 62, 59
2, 314932, Control_c, 0, 64, 127
2, 314940, Note_on_c, 0, 85, 0
2, 314972, Note_on_c, 0, 62, 0
2, 314976, Note_on_c, 0, 69, 58
2, 315000, Note_on_c, 0, 72, 49
2, 315024, Note_on_c, 0, 84, 78
2, 315036, Note_on_c, 0, 78, 57
2, 315048, Note_on_c, 0, 69, 0
2, 315056, Note_on_c, 0, 72, 0
2, 315064, Note_on_c, 0, 84, 0
2, 315080, Note_on_c, 0, 78, 0
2, 315108, Note_on_c, 0, 84, 75
2, 315152, Note_on_c, 0, 84, 0
2, 315200, Note_on_c, 0, 84, 77
2, 315240, Note_on_c, 0, 84, 0
2, 315284, Note_on_c, 0, 84, 75
2, 315352, Note_on_c, 0, 84, 0
2, 315372, Note_on_c, 0, 96, 78
2, 315428, Note_on_c, 0, 96, 0
2, 315460, Note_on_c, 0, 83, 77
2, 315508, Note_on_c, 0, 83, 0
2, 315556, Note_on_c, 0, 81, 82
2, 315592, Note_on_c, 0, 81, 0
2, 315648, Note_on_c, 0, 81, 80
2, 315688, Note_on_c, 0, 81, 0
2, 315744, Note_on_c, 0, 81, 74
2, 315784, Note_on_c, 0, 81, 0
2, 315832, Note_on_c, 0, 81, 64
2, 315888, Note_on_c, 0, 81, 0
2, 315916, Note_on_c, 0, 93, 85
2, 315956, Note_on_c, 0, 93, 0
2, 316012, Note_on_c, 0, 74, 72
2, 316056, Note_on_c, 0, 74, 0
2, 316072, Note_on_c, 0, 62, 35
2, 316080, Note_on_c, 0, 66, 46
2, 316084, Control_c, 0, 64, 104
2, 316092, Control_c, 0, 64, 40
2, 316100, Control_c, 0, 64, 0
2, 316104, Note_on_c, 0, 69, 56
2, 316120, Note_on_c, 0, 75, 73
2, 316128, Control_c, 0, 64, 88
2, 316136, Control_c, 0, 64, 127
2, 316140, Note_on_c, 0, 72, 41
2, 316160, Note_on_c, 0, 75, 0
2, 316172, Note_on_c, 0, 62, 0
2, 316180, Note_on_c, 0, 66, 0
2, 316180, Note_on_c, 0, 69, 0
2, 316192, Note_on_c, 0, 72, 0
2, 316208, Note_on_c, 0, 75, 79
2, 316252, Note_on_c, 0, 75, 0
2, 316300, Note_on_c, 0, 75, 74
2, 316344, Note_on_c, 0, 75, 0
2, 316396, Note_on_c, 0, 75, 64
2, 316460, Note_on_c, 0, 75, 0
2, 316484, Note_on_c, 0, 87, 79
2, 316528, Note_on_c, 0, 87, 0
2, 316576, Note_on_c, 0, 74, 75
2, 316628, Note_on_c, 0, 74, 0
2, 316680, Note_on_c, 0, 78, 85
2, 316688, Control_c, 0, 64, 104
2, 316700, Control_c, 0, 64, 56
2, 316708, Control_c, 0, 64, 40
2, 316716, Control_c, 0, 64, 56
2, 316724, Note_on_c, 0, 78, 0
2, 316724, Control_c, 0, 64, 104
2, 316732, Control_c, 0, 64, 127
2, 316764, Note_on_c, 0, 78, 72
2, 316808, Note_on_c, 0, 78, 0
2, 316860, Note_on_c, 0, 78, 78
2, 316900, Note_on_c, 0, 78, 0
2, 316956, Note_on_c, 0, 78, 67
2, 317008, Note_on_c, 0, 78, 0
2, 317048, Note_on_c, 0, 90, 83
2, 317104, Note_on_c, 0, 90, 0
2, 317144, Control_c, 0, 64, 104
2, 317148, Note_on_c, 0, 81, 79
2, 317156, Control_c, 0, 64, 56
2, 317164, Control_c, 0, 64, 40
2, 317168, Note_on_c, 0, 62, 60
2, 317172, Control_c, 0, 64, 72
2, 317180, Control_c, 0, 64, 127
2, 317196, Note_on_c, 0, 62, 0
2, 317204, Note_on_c, 0, 81, 0
2, 317220, Note_on_c, 0, 69, 50
2, 317232, Note_on_c, 0, 72, 54
2, 317252, Note_on_c, 0, 88, 89
2, 317264, Note_on_c, 0, 78, 66
2, 317280, Note_on_c, 0, 69, 0
2, 317288, Note_on_c, 0, 72, 0
2, 317296, Note_on_c, 0, 88, 0
2, 317316, Note_on_c, 0, 78, 0
2, 317340, Note_on_c, 0, 88, 81
2, 317384, Note_on_c, 0, 88, 0
2, 317440, Note_on_c, 0, 88, 80
2, 317480, Note_on_c, 0, 88, 0
2, 317532, Note_on_c, 0, 88, 77
2, 317596, Note_on_c, 0, 88, 0
2, 317624, Note_on_c, 0, 100, 82
2, 317680, Note_on_c, 0, 100, 0
2, 317700, Note_on_c, 0, 86, 87
2, 317724, Control_c, 0, 64, 104
2, 317736, Control_c, 0, 64, 56
2, 317744, Control_c, 0, 64, 40
2, 317748, Note_on_c, 0, 62, 57
2, 317752, Note_on_c, 0, 86, 0
2, 317752, Control_c, 0, 64, 72
2, 317760, Control_c, 0, 64, 127
2, 317768, Note_on_c, 0, 65, 50
2, 317776, Note_on_c, 0, 62, 0
2, 317780, Note_on_c, 0, 68, 56
2, 317800, Note_on_c, 0, 71, 58
2, 317816, Note_on_c, 0, 65, 0
2, 317832, Note_on_c, 0, 77, 59
2, 317832, Note_on_c, 0, 86, 87
2, 317844, Note_on_c, 0, 68, 0
2, 317860, Note_on_c, 0, 71, 0
2, 317872, Note_on_c, 0, 77, 0
2, 317872, Note_on_c, 0, 86, 0
2, 317932, Note_on_c, 0, 86, 92
2, 317972, Note_on_c, 0, 86, 0
2, 318024, Note_on_c, 0, 86, 92
2, 318060, Note_on_c, 0, 86, 0
2, 318108, Note_on_c, 0, 86, 87
2, 318168, Note_on_c, 0, 86, 0
2, 318200, Note_on_c, 0, 98, 85
2, 318276, Note_on_c, 0, 98, 0
2, 318292, Note_on_c, 0, 86, 75
2, 318328, Note_on_c, 0, 86, 0
2, 318392, Note_on_c, 0, 83, 79
2, 318396, Note_on_c, 0, 80, 42
2, 318400, Note_on_c, 0, 77, 48
2, 318408, Note_on_c, 0, 74, 49
2, 318428, Note_on_c, 0, 83, 0
2, 318480, Note_on_c, 0, 83, 92
2, 318516, Note_on_c, 0, 83, 0
2, 318576, Note_on_c, 0, 83, 88
2, 318616, Note_on_c, 0, 83, 0
2, 318648, Note_on_c, 0, 77, 0
2, 318660, Note_on_c, 0, 80, 0
2, 318668, Note_on_c, 0, 74, 0
2, 318668, Note_on_c, 0, 83, 77
2, 318716, Note_on_c, 0, 83, 0
2, 318756, Note_on_c, 0, 95, 74
2, 318804, Note_on_c, 0, 95, 0
2, 318844, Note_on_c, 0, 83, 69
2, 318892, Control_c, 0, 64, 88
2, 318900, Note_on_c, 0, 83, 0
2, 318904, Control_c, 0, 64, 0
2, 318908, Note_on_c, 0, 62, 20
2, 318924, Note_on_c, 0, 67, 43
2, 318936, Note_on_c, 0, 70, 40
2, 318952, Note_on_c, 0, 62, 0
2, 318956, Control_c, 0, 64, 104
2, 318964, Control_c, 0, 64, 127
2, 318968, Note_on_c, 0, 85, 81
2, 318972, Note_on_c, 0, 76, 71
2, 319016, Note_on_c, 0, 85, 0
2, 319028, Note_on_c, 0, 67, 0
2, 319056, Note_on_c, 0, 85, 79
2, 319096, Note_on_c, 0, 85, 0
2, 319144, Note_on_c, 0, 85, 79
2, 319184, Note_on_c, 0, 76, 0
2, 319192, Note_on_c, 0, 85, 0
2, 319200, Note_on_c, 0, 70, 0
2, 319232, Note_on_c, 0, 85, 71
2, 319292, Note_on_c, 0, 85, 0
2, 319320, Note_on_c, 0, 97, 83
2, 319400, Note_on_c, 0, 97, 0
2, 319408, Note_on_c, 0, 85, 73
2, 319452, Note_on_c, 0, 85, 0
2, 319504, Note_on_c, 0, 82, 69
2, 319520, Note_on_c, 0, 79, 43
2, 319524, Note_on_c, 0, 76, 40
2, 319532, Note_on_c, 0, 73, 37
2, 319544, Note_on_c, 0, 82, 0
2, 319600, Note_on_c, 0, 82, 73
2, 319636, Note_on_c, 0, 82, 0
2, 319692, Note_on_c, 0, 82, 72
2, 319728, Note_on_c, 0, 82, 0
2, 319780, Note_on_c, 0, 82, 69
2, 319820, Note_on_c, 0, 79, 0
2, 319828, Note_on_c, 0, 76, 0
2, 319832, Note_on_c, 0, 82, 0
2, 319856, Note_on_c, 0, 73, 0
2, 319876, Note_on_c, 0, 94, 77
2, 319936, Note_on_c, 0, 94, 0
2, 319948, Note_on_c, 0, 82, 71
2, 319984, Control_c, 0, 64, 104
2, 319992, Note_on_c, 0, 82, 0
2, 319992, Control_c, 0, 64, 40
2, 320000, Control_c, 0, 64, 0
2, 320008, Note_on_c, 0, 62, 65
2, 320028, Note_on_c, 0, 66, 48
2, 320028, Control_c, 0, 64, 56
2, 320032, Control_c, 0, 64, 127
2, 320048, Note_on_c, 0, 62, 0
2, 320052, Note_on_c, 0, 69, 55
2, 320076, Note_on_c, 0, 72, 54
2, 320088, Note_on_c, 0, 84, 82
2, 320092, Note_on_c, 0, 66, 0
2, 320104, Note_on_c, 0, 75, 58
2, 320124, Note_on_c, 0, 69, 0
2, 320124, Note_on_c, 0, 84, 0
2, 320136, Note_on_c, 0, 72, 0
2, 320148, Note_on_c, 0, 75, 0
2, 320176, Note_on_c, 0, 84, 74
2, 320216, Note_on_c, 0, 84, 0
2, 320268, Note_on_c, 0, 84, 75
2, 320304, Note_on_c, 0, 84, 0
2, 320364, Note_on_c, 0, 84, 73
2, 320412, Note_on_c, 0, 84, 0
2, 320452, Note_on_c, 0, 96, 69
2, 320520, Note_on_c, 0, 96, 0
2, 320544, Note_on_c, 0, 84, 75
2, 320580, Note_on_c, 0, 84, 0
2, 320648, Note_on_c, 0, 81, 80
2, 320652, Note_on_c, 0, 75, 49
2, 320660, Note_on_c, 0, 78, 50
2, 320672, Note_on_c, 0, 72, 49
2, 320688, Note_on_c, 0, 81, 0
2, 320744, Note_on_c, 0, 81, 75
2, 320788, Note_on_c, 0, 81, 0
2, 320836, Note_on_c, 0, 81, 63
2, 320876, Note_on_c, 0, 81, 0
2, 320912, Note_on_c, 0, 75, 0
2, 320912, Note_on_c, 0, 78, 0
2, 320916, Note_on_c, 0, 72, 0
2, 320928, Note_on_c, 0, 81, 63
2, 320984, Note_on_c, 0, 81, 0
2, 321028, Note_on_c, 0, 93, 71
2, 321076, Note_on_c, 0, 93, 0
2, 321104, Note_on_c, 0, 81, 71
2, 321132, Control_c, 0, 64, 104
2, 321140, Control_c, 0, 64, 24
2, 321144, Note_on_c, 0, 62, 60
2, 321148, Control_c, 0, 64, 0
2, 321176, Note_on_c, 0, 81, 0
2, 321176, Control_c, 0, 64, 56
2, 321184, Control_c, 0, 64, 127
2, 321188, Note_on_c, 0, 68, 50
2, 321200, Note_on_c, 0, 62, 0
2, 321212, Note_on_c, 0, 71, 25
2, 321220, Note_on_c, 0, 83, 73
2, 321236, Note_on_c, 0, 74, 63
2, 321260, Note_on_c, 0, 71, 0
2, 321260, Note_on_c, 0, 68, 0
2, 321264, Note_on_c, 0, 83, 0
2, 321280, Note_on_c, 0, 74, 0
2, 321312, Note_on_c, 0, 83, 79
2, 321356, Note_on_c, 0, 83, 0
2, 321416, Note_on_c, 0, 83, 80
2, 321452, Note_on_c, 0, 83, 0
2, 321504, Note_on_c, 0, 83, 73
2, 321548, Note_on_c, 0, 83, 0
2, 321608, Note_on_c, 0, 95, 62
2, 321656, Note_on_c, 0, 95, 0
2, 321680, Note_on_c, 0, 83, 59
2, 321716, Note_on_c, 0, 83, 0
2, 321772, Note_on_c, 0, 80, 74
2, 321784, Note_on_c, 0, 74, 46
2, 321784, Note_on_c, 0, 71, 47
2, 321788, Note_on_c, 0, 77, 50
2, 321816, Note_on_c, 0, 80, 0
2, 321868, Note_on_c, 0, 80, 77
2, 321912, Note_on_c, 0, 80, 0
2, 321968, Note_on_c, 0, 80, 74
2, 322012, Note_on_c, 0, 80, 0
2, 322060, Note_on_c, 0, 80, 62
2, 322124, Note_on_c, 0, 80, 0
2, 322124, Note_on_c, 0, 77, 0
2, 322128, Note_on_c, 0, 74, 0
2, 322152, Note_on_c, 0, 71, 0
2, 322152, Note_on_c, 0, 92, 81
2, 322208, Note_on_c, 0, 92, 0
2, 322240, Note_on_c, 0, 80, 71
2, 322288, Control_c, 0, 64, 104
2, 322296, Control_c, 0, 64, 40
2, 322304, Control_c, 0, 64, 0
2, 322308, Note_on_c, 0, 62, 62
2, 322320, Note_on_c, 0, 64, 51
2, 322328, Note_on_c, 0, 80, 0
2, 322336, Note_on_c, 0, 67, 66
2, 322348, Control_c, 0, 64, 104
2, 322356, Control_c, 0, 64, 127
2, 322376, Note_on_c, 0, 82, 78
2, 322388, Note_on_c, 0, 73, 63
2, 322420, Note_on_c, 0, 82, 0
2, 322428, Note_on_c, 0, 62, 0
2, 322452, Note_on_c, 0, 67, 0
2, 322456, Note_on_c, 0, 64, 0
2, 322468, Note_on_c, 0, 73, 0
2, 322472, Note_on_c, 0, 82, 81
2, 322512, Note_on_c, 0, 82, 0
2, 322564, Note_on_c, 0, 82, 74
2, 322604, Note_on_c, 0, 82, 0
2, 322652, Note_on_c, 0, 82, 74
2, 322708, Note_on_c, 0, 82, 0
2, 322748, Note_on_c, 0, 94, 71
2, 322812, Note_on_c, 0, 94, 0
2, 322856, Note_on_c, 0, 82, 69
2, 322868, Note_on_c, 0, 82, 0
2, 322972, Note_on_c, 0, 70, 46
2, 322976, Note_on_c, 0, 79, 69
2, 322976, Note_on_c, 0, 73, 37
2, 322976, Note_on_c, 0, 76, 43
2, 323004, Note_on_c, 0, 79, 0
2, 323028, Note_on_c, 0, 76, 0
2, 323028, Note_on_c, 0, 73, 0
2, 323032, Note_on_c, 0, 70, 0
2, 323068, Note_on_c, 0, 79, 72
2, 323096, Note_on_c, 0, 79, 0
2, 323164, Note_on_c, 0, 79, 73
2, 323200, Note_on_c, 0, 79, 0
2, 323260, Note_on_c, 0, 79, 80
2, 323316, Note_on_c, 0, 79, 0
2, 323364, Note_on_c, 0, 91, 70
2, 323412, Note_on_c, 0, 91, 0
2, 323468, Note_on_c, 0, 79, 57
2, 323512, Note_on_c, 0, 79, 0
2, 323616, Note_on_c, 0, 87, 73
2, 323616, Note_on_c, 0, 75, 66
2, 323632, Note_on_c, 0, 82, 49
2, 323708, Control_c, 0, 64, 40
2, 323720, Control_c, 0, 64, 104
2, 323732, Control_c, 0, 64, 127
2, 323744, Note_on_c, 0, 73, 49
2, 323748, Note_on_c, 0, 75, 0
2, 323752, Note_on_c, 0, 63, 39
2, 323756, Note_on_c, 0, 70, 42
2, 323764, Note_on_c, 0, 67, 36
2, 323780, Note_on_c, 0, 70, 0
2, 323784, Note_on_c, 0, 82, 0
2, 323796, Note_on_c, 0, 73, 0
2, 323796, Note_on_c, 0, 67, 0
2, 323808, Note_on_c, 0, 63, 0
2, 323808, Note_on_c, 0, 87, 0
2, 323852, Note_on_c, 0, 63, 32
2, 323856, Note_on_c, 0, 73, 43
2, 323860, Note_on_c, 0, 70, 44
2, 323892, Note_on_c, 0, 70, 0
2, 323896, Note_on_c, 0, 73, 0
2, 323908, Note_on_c, 0, 63, 0
2, 323988, Note_on_c, 0, 78, 74
2, 323988, Note_on_c, 0, 90, 72
2, 323992, Note_on_c, 0, 87, 69
2, 324044, Note_on_c, 0, 78, 0
2, 324060, Note_on_c, 0, 90, 0
2, 324064, Note_on_c, 0, 87, 0
2, 324116, Note_on_c, 0, 91, 81
2, 324116, Note_on_c, 0, 87, 39
2, 324124, Note_on_c, 0, 79, 64
2, 324136, Control_c, 0, 64, 72
2, 324144, Control_c, 0, 64, 0
2, 324228, Note_on_c, 0, 61, 56
2, 324232, Note_on_c, 0, 70, 52
2, 324232, Note_on_c, 0, 67, 55
2, 324248, Note_on_c, 0, 79, 0
2, 324248, Note_on_c, 0, 63, 29
2, 324248, Control_c, 0, 64, 104
2, 324260, Control_c, 0, 64, 127
2, 324264, Note_on_c, 0, 91, 0
2, 324268, Note_on_c, 0, 87, 0
2, 324276, Note_on_c, 0, 70, 0
2, 324276, Note_on_c, 0, 67, 0
2, 324276, Note_on_c, 0, 63, 0
2, 324284, Note_on_c, 0, 61, 0
2, 324340, Note_on_c, 0, 61, 49
2, 324340, Note_on_c, 0, 70, 62
2, 324344, Note_on_c, 0, 67, 41
2, 324364, Note_on_c, 0, 63, 25
2, 324376, Note_on_c, 0, 67, 0
2, 324384, Note_on_c, 0, 63, 0
2, 324384, Note_on_c, 0, 61, 0
2, 324388, Note_on_c, 0, 70, 0
2, 324464, Note_on_c, 0, 93, 97
2, 324464, Note_on_c, 0, 81, 80
2, 324468, Note_on_c, 0, 87, 71
2, 324500, Note_on_c, 0, 81, 0
2, 324512, Note_on_c, 0, 93, 0
2, 324532, Note_on_c, 0, 87, 0
2, 324588, Note_on_c, 0, 82, 71
2, 324588, Note_on_c, 0, 94, 95
2, 324592, Note_on_c, 0, 87, 66
2, 324616, Control_c, 0, 64, 104
2, 324628, Control_c, 0, 64, 24
2, 324640, Control_c, 0, 64, 0
2, 324708, Note_on_c, 0, 67, 71
2, 324712, Note_on_c, 0, 63, 55
2, 324712, Note_on_c, 0, 58, 51
2, 324716, Note_on_c, 0, 61, 46
2, 324720, Control_c, 0, 64, 88
2, 324732, Control_c, 0, 64, 127
2, 324756, Note_on_c, 0, 61, 0
2, 324760, Note_on_c, 0, 63, 0
2, 324760, Note_on_c, 0, 67, 0
2, 324760, Note_on_c, 0, 58, 0
2, 324788, Note_on_c, 0, 82, 0
2, 324824, Note_on_c, 0, 67, 58
2, 324824, Note_on_c, 0, 58, 52
2, 324828, Note_on_c, 0, 87, 0
2, 324828, Note_on_c, 0, 63, 57
2, 324832, Note_on_c, 0, 94, 0
2, 324836, Note_on_c, 0, 61, 35
2, 324856, Note_on_c, 0, 63, 0
2, 324856, Note_on_c, 0, 67, 0
2, 324860, Note_on_c, 0, 61, 0
2, 324864, Note_on_c, 0, 58, 0
2, 324948, Note_on_c, 0, 82, 83
2, 324952, Note_on_c, 0, 94, 95
2, 324952, Note_on_c, 0, 87, 81
2, 324996, Note_on_c, 0, 82, 0
2, 325008, Note_on_c, 0, 87, 0
2, 325020, Note_on_c, 0, 94, 0
2, 325064, Note_on_c, 0, 96, 98
2, 325064, Note_on_c, 0, 84, 81
2, 325068, Note_on_c, 0, 87, 66
2, 325088, Control_c, 0, 64, 104
2, 325100, Control_c, 0, 64, 24
2, 325112, Control_c, 0, 64, 0
2, 325188, Control_c, 0, 64, 56
2, 325196, Note_on_c, 0, 63, 39
2, 325196, Note_on_c, 0, 58, 35
2, 325200, Note_on_c, 0, 61, 41
2, 325200, Note_on_c, 0, 55, 50
2, 325204, Control_c, 0, 64, 127
2, 325224, Note_on_c, 0, 61, 0
2, 325232, Note_on_c, 0, 55, 0
2, 325236, Note_on_c, 0, 63, 0
2, 325240, Note_on_c, 0, 96, 0
2, 325244, Note_on_c, 0, 58, 0
2, 325260, Note_on_c, 0, 84, 0
2, 325296, Note_on_c, 0, 87, 0
2, 325296, Note_on_c, 0, 55, 59
2, 325296, Note_on_c, 0, 63, 60
2, 325296, Note_on_c, 0, 58, 42
2, 325300, Note_on_c, 0, 61, 42
2, 325320, Note_on_c, 0, 55, 0
2, 325324, Note_on_c, 0, 61, 0
2, 325336, Note_on_c, 0, 58, 0
2, 325352, Note_on_c, 0, 63, 0
2, 325416, Note_on_c, 0, 94, 87
2, 325420, Note_on_c, 0, 82, 78
2, 325424, Note_on_c, 0, 87, 72
2, 325448, Note_on_c, 0, 87, 0
2, 325452, Note_on_c, 0, 82, 0
2, 325464, Note_on_c, 0, 94, 0
2, 325528, Note_on_c, 0, 94, 95
2, 325532, Note_on_c, 0, 82, 69
2, 325536, Note_on_c, 0, 87, 72
2, 325540, Control_c, 0, 64, 104
2, 325552, Control_c, 0, 64, 24
2, 325560, Control_c, 0, 64, 0
2, 325628, Control_c, 0, 64, 56
2, 325636, Note_on_c, 0, 63, 48
2, 325640, Note_on_c, 0, 70, 54
2, 325640, Note_on_c, 0, 73, 42
2, 325640, Control_c, 0, 64, 127
2, 325672, Note_on_c, 0, 73, 0
2, 325672, Note_on_c, 0, 67, 39
2, 325684, Note_on_c, 0, 70, 0
2, 325688, Note_on_c, 0, 63, 0
2, 325708, Note_on_c, 0, 67, 0
2, 325736, Note_on_c, 0, 94, 0
2, 325736, Note_on_c, 0, 63, 48
2, 325736, Note_on_c, 0, 67, 49
2, 325736, Note_on_c, 0, 73, 69
2, 325744, Note_on_c, 0, 82, 0
2, 325744, Note_on_c, 0, 70, 46
2, 325768, Note_on_c, 0, 70, 0
2, 325772, Note_on_c, 0, 67, 0
2, 325780, Note_on_c, 0, 73, 0
2, 325784, Note_on_c, 0, 63, 0
2, 325792, Note_on_c, 0, 87, 0
2, 325860, Note_on_c, 0, 93, 97
2, 325864, Note_on_c, 0, 81, 78
2, 325900, Note_on_c, 0, 81, 0
2, 325904, Note_on_c, 0, 93, 0
2, 325976, Note_on_c, 0, 92, 97
2, 325980, Control_c, 0, 64, 40
2, 325984, Note_on_c, 0, 80, 83
2, 325988, Control_c, 0, 64, 0
2, 326056, Control_c, 0, 64, 72
2, 326064, Control_c, 0, 64, 127
2, 326084, Note_on_c, 0, 67, 58
2, 326088, Note_on_c, 0, 61, 42
2, 326088, Note_on_c, 0, 70, 42
2, 326100, Note_on_c, 0, 63, 35
2, 326108, Note_on_c, 0, 92, 0
2, 326120, Note_on_c, 0, 70, 0
2, 326124, Note_on_c, 0, 67, 0
2, 326132, Note_on_c, 0, 63, 0
2, 326144, Note_on_c, 0, 61, 0
2, 326148, Note_on_c, 0, 80, 0
2, 326192, Note_on_c, 0, 70, 70
2, 326196, Note_on_c, 0, 61, 49
2, 326212, Note_on_c, 0, 63, 31
2, 326240, Note_on_c, 0, 63, 0
2, 326240, Note_on_c, 0, 70, 0
2, 326252, Note_on_c, 0, 61, 0
2, 326312, Note_on_c, 0, 91, 97
2, 326312, Note_on_c, 0, 79, 88
2, 326316, Note_on_c, 0, 82, 82
2, 326348, Note_on_c, 0, 91, 0
2, 326352, Note_on_c, 0, 79, 0
2, 326364, Note_on_c, 0, 82, 0
2, 326424, Control_c, 0, 64, 56
2, 326428, Note_on_c, 0, 90, 95
2, 326432, Note_on_c, 0, 78, 88
2, 326436, Control_c, 0, 64, 0
2, 326508, Control_c, 0, 64, 72
2, 326516, Control_c, 0, 64, 127
2, 326552, Note_on_c, 0, 58, 50
2, 326560, Note_on_c, 0, 63, 48
2, 326560, Note_on_c, 0, 61, 40
2, 326560, Note_on_c, 0, 67, 43
2, 326580, Note_on_c, 0, 61, 0
2, 326584, Note_on_c, 0, 63, 0
2, 326592, Note_on_c, 0, 67, 0
2, 326604, Note_on_c, 0, 78, 0
2, 326604, Note_on_c, 0, 58, 0
2, 326648, Note_on_c, 0, 90, 0
2, 326656, Note_on_c, 0, 63, 54
2, 326656, Note_on_c, 0, 58, 37
2, 326660, Note_on_c, 0, 61, 43
2, 326660, Note_on_c, 0, 67, 41
2, 326688, Note_on_c, 0, 61, 0
2, 326688, Note_on_c, 0, 58, 0
2, 326692, Note_on_c, 0, 63, 0
2, 326692, Note_on_c, 0, 67, 0
2, 326776, Note_on_c, 0, 89, 90
2, 326780, Note_on_c, 0, 77, 75
2, 326780, Note_on_c, 0, 82, 69
2, 326812, Note_on_c, 0, 77, 0
2, 326820, Note_on_c, 0, 89, 0
2, 326824, Note_on_c, 0, 82, 0
2, 326892, Note_on_c, 0, 88, 93
2, 326900, Note_on_c, 0, 76, 69
2, 326900, Note_on_c, 0, 82, 56
2, 326920, Control_c, 0, 64, 40
2, 326932, Control_c, 0, 64, 0
2, 327000, Control_c, 0, 64, 88
2, 327004, Note_on_c, 0, 55, 64
2, 327004, Note_on_c, 0, 61, 56
2, 327004, Note_on_c, 0, 63, 54
2, 327004, Note_on_c, 0, 58, 40
2, 327008, Control_c, 0, 64, 127
2, 327020, Note_on_c, 0, 76, 0
2, 327036, Note_on_c, 0, 55, 0
2, 327036, Note_on_c, 0, 58, 0
2, 327044, Note_on_c, 0, 61, 0
2, 327044, Note_on_c, 0, 63, 0
2, 327104, Note_on_c, 0, 63, 67
2, 327108, Note_on_c, 0, 55, 46
2, 327116, Note_on_c, 0, 58, 43
2, 327120, Note_on_c, 0, 88, 0
2, 327120, Note_on_c, 0, 61, 46
2, 327136, Note_on_c, 0, 55, 0
2, 327140, Note_on_c, 0, 61, 0
2, 327144, Note_on_c, 0, 58, 0
2, 327156, Note_on_c, 0, 82, 0
2, 327160, Note_on_c, 0, 63, 0
2, 327224, Note_on_c, 0, 87, 95
2, 327224, Note_on_c, 0, 75, 87
2, 327272, Note_on_c, 0, 75, 0
2, 327276, Note_on_c, 0, 87, 0
2, 327340, Note_on_c, 0, 87, 100
2, 327344, Note_on_c, 0, 75, 88
2, 327344, Note_on_c, 0, 82, 86
2, 327372, Control_c, 0, 64, 88
2, 327380, Control_c, 0, 64, 0
2, 327448, Control_c, 0, 64, 40
2, 327456, Note_on_c, 0, 73, 62
2, 327460, Note_on_c, 0, 70, 60
2, 327460, Control_c, 0, 64, 127
2, 327464, Note_on_c, 0, 75, 0
2, 327472, Note_on_c, 0, 63, 31
2, 327476, Note_on_c, 0, 67, 36
2, 327488, Note_on_c, 0, 82, 0
2, 327496, Note_on_c, 0, 73, 0
2, 327500, Note_on_c, 0, 63, 0
2, 327504, Note_on_c, 0, 70, 0
2, 327504, Note_on_c, 0, 67, 0
2, 327512, Note_on_c, 0, 87, 0
2, 327548, Note_on_c, 0, 63, 44
2, 327552, Note_on_c, 0, 73, 63
2, 327552, Note_on_c, 0, 70, 58
2, 327556, Note_on_c, 0, 67, 33
2, 327592, Note_on_c, 0, 67, 0
2, 327592, Note_on_c, 0, 73, 0
2, 327596, Note_on_c, 0, 70, 0
2, 327600, Note_on_c, 0, 63, 0
2, 327676, Note_on_c, 0, 78, 86
2, 327676, Note_on_c, 0, 90, 98
2, 327684, Note_on_c, 0, 87, 71
2, 327724, Note_on_c, 0, 78, 0
2, 327728, Note_on_c, 0, 90, 0
2, 327732, Note_on_c, 0, 87, 0
2, 327788, Note_on_c, 0, 91, 96
2, 327796, Note_on_c, 0, 87, 66
2, 327796, Note_on_c, 0, 79, 82
2, 327808, Control_c, 0, 64, 88
2, 327820, Control_c, 0, 64, 0
2, 327884, Control_c, 0, 64, 56
2, 327896, Control_c, 0, 64, 127
2, 327904, Note_on_c, 0, 79, 0
2, 327904, Note_on_c, 0, 70, 69
2, 327908, Note_on_c, 0, 67, 67
2, 327912, Note_on_c, 0, 61, 52
2, 327912, Note_on_c, 0, 63, 52
2, 327920, Note_on_c, 0, 91, 0
2, 327948, Note_on_c, 0, 61, 0
2, 327948, Note_on_c, 0, 87, 0
2, 327948, Note_on_c, 0, 70, 0
2, 327956, Note_on_c, 0, 67, 0
2, 327956, Note_on_c, 0, 63, 0
2, 328004, Note_on_c, 0, 61, 42
2, 328004, Note_on_c, 0, 70, 70
2, 328008, Note_on_c, 0, 67, 49
2, 328008, Note_on_c, 0, 63, 42
2, 328040, Note_on_c, 0, 67, 0
2, 328044, Note_on_c, 0, 63, 0
2, 328048, Note_on_c, 0, 70, 0
2, 328056, Note_on_c, 0, 61, 0
2, 328112, Note_on_c, 0, 93, 106
2, 328112, Note_on_c, 0, 87, 81
2, 328116, Note_on_c, 0, 81, 80
2, 328148, Note_on_c, 0, 81, 0
2, 328160, Note_on_c, 0, 93, 0
2, 328176, Note_on_c, 0, 87, 0
2, 328228, Note_on_c, 0, 94, 101
2, 328232, Note_on_c, 0, 82, 88
2, 328236, Note_on_c, 0, 87, 63
2, 328256, Control_c, 0, 64, 56
2, 328268, Control_c, 0, 64, 0
2, 328324, Control_c, 0, 64, 40
2, 328336, Note_on_c, 0, 63, 51
2, 328336, Note_on_c, 0, 58, 43
2, 328336, Control_c, 0, 64, 127
2, 328340, Note_on_c, 0, 67, 47
2, 328344, Note_on_c, 0, 61, 37
2, 328364, Note_on_c, 0, 82, 0
2, 328368, Note_on_c, 0, 61, 0
2, 328372, Note_on_c, 0, 63, 0
2, 328372, Note_on_c, 0, 67, 0
2, 328380, Note_on_c, 0, 87, 0
2, 328388, Note_on_c, 0, 58, 0
2, 328400, Note_on_c, 0, 94, 0
2, 328436, Note_on_c, 0, 58, 51
2, 328436, Note_on_c, 0, 67, 58
2, 328440, Note_on_c, 0, 63, 65
2, 328440, Note_on_c, 0, 61, 57
2, 328468, Note_on_c, 0, 61, 0
2, 328468, Note_on_c, 0, 63, 0
2, 328468, Note_on_c, 0, 67, 0
2, 328476, Note_on_c, 0, 58, 0
2, 328560, Note_on_c, 0, 94, 96
2, 328564, Note_on_c, 0, 82, 90
2, 328564, Note_on_c, 0, 87, 87
2, 328604, Note_on_c, 0, 82, 0
2, 328624, Note_on_c, 0, 87, 0
2, 328624, Note_on_c, 0, 94, 0
2, 328680, Note_on_c, 0, 96, 105
2, 328680, Note_on_c, 0, 84, 94
2, 328684, Note_on_c, 0, 87, 83
2, 328696, Control_c, 0, 64, 88
2, 328708, Control_c, 0, 64, 0
2, 328764, Control_c, 0, 64, 24
2, 328772, Control_c, 0, 64, 104
2, 328784, Control_c, 0, 64, 127
2, 328804, Note_on_c, 0, 61, 50
2, 328804, Note_on_c, 0, 63, 46
2, 328804, Note_on_c, 0, 58, 42
2, 328808, Note_on_c, 0, 96, 0
2, 328808, Note_on_c, 0, 55, 55
2, 328832, Note_on_c, 0, 55, 0
2, 328832, Note_on_c, 0, 84, 0
2, 328832, Note_on_c, 0, 61, 0
2, 328844, Note_on_c, 0, 58, 0
2, 328844, Note_on_c, 0, 63, 0
2, 328904, Note_on_c, 0, 63, 60
2, 328908, Note_on_c, 0, 55, 49
2, 328908, Note_on_c, 0, 58, 41
2, 328908, Note_on_c, 0, 61, 44
2, 328928, Note_on_c, 0, 55, 0
2, 328928, Note_on_c, 0, 87, 0
2, 328932, Note_on_c, 0, 61, 0
2, 328932, Note_on_c, 0, 58, 0
2, 328948, Note_on_c, 0, 63, 0
2, 329028, Note_on_c, 0, 94, 96
2, 329032, Note_on_c, 0, 82, 87
2, 329036, Note_on_c, 0, 87, 74
2, 329056, Note_on_c, 0, 87, 0
2, 329068, Note_on_c, 0, 82, 0
2, 329076, Note_on_c, 0, 94, 0
2, 329140, Note_on_c, 0, 94, 102
2, 329144, Note_on_c, 0, 82, 83
2, 329148, Note_on_c, 0, 87, 81
2, 329148, Control_c, 0, 64, 72
2, 329156, Control_c, 0, 64, 0
2, 329224, Control_c, 0, 64, 72
2, 329236, Control_c, 0, 64, 127
2, 329240, Note_on_c, 0, 73, 60
2, 329244, Note_on_c, 0, 70, 60
2, 329244, Note_on_c, 0, 63, 48
2, 329260, Note_on_c, 0, 67, 36
2, 329284, Note_on_c, 0, 73, 0
2, 329288, Note_on_c, 0, 70, 0
2, 329288, Note_on_c, 0, 63, 0
2, 329292, Note_on_c, 0, 67, 0
2, 329300, Note_on_c, 0, 94, 0
2, 329316, Note_on_c, 0, 82, 0
2, 329340, Note_on_c, 0, 63, 48
2, 329344, Note_on_c, 0, 73, 73
2, 329348, Note_on_c, 0, 70, 56
2, 329348, Note_on_c, 0, 67, 37
2, 329376, Note_on_c, 0, 70, 0
2, 329380, Note_on_c, 0, 67, 0
2, 329384, Note_on_c, 0, 73, 0
2, 329396, Note_on_c, 0, 63, 0
2, 329408, Note_on_c, 0, 87, 0
2, 329460, Note_on_c, 0, 93, 103
2, 329464, Note_on_c, 0, 81, 85
2, 329500, Note_on_c, 0, 81, 0
2, 329508, Note_on_c, 0, 93, 0
2, 329576, Note_on_c, 0, 92, 101
2, 329580, Note_on_c, 0, 80, 98
2, 329596, Control_c, 0, 64, 56
2, 329608, Control_c, 0, 64, 0
2, 329652, Control_c, 0, 64, 72
2, 329664, Control_c, 0, 64, 127
2, 329676, Note_on_c, 0, 67, 63
2, 329676, Note_on_c, 0, 70, 51
2, 329676, Note_on_c, 0, 63, 50
2, 329680, Note_on_c, 0, 61, 46
2, 329716, Note_on_c, 0, 61, 0
2, 329716, Note_on_c, 0, 70, 0
2, 329720, Note_on_c, 0, 92, 0
2, 329724, Note_on_c, 0, 63, 0
2, 329724, Note_on_c, 0, 67, 0
2, 329752, Note_on_c, 0, 80, 0
2, 329788, Note_on_c, 0, 70, 66
2, 329788, Note_on_c, 0, 61, 48
2, 329792, Note_on_c, 0, 67, 41
2, 329792, Note_on_c, 0, 63, 39
2, 329820, Note_on_c, 0, 67, 0
2, 329824, Note_on_c, 0, 63, 0
2, 329832, Note_on_c, 0, 70, 0
2, 329836, Note_on_c, 0, 61, 0
2, 329900, Note_on_c, 0, 91, 94
2, 329900, Note_on_c, 0, 79, 93
2, 329940, Note_on_c, 0, 79, 0
2, 329940, Note_on_c, 0, 91, 0
2, 330008, Control_c, 0, 64, 88
2, 330012, Note_on_c, 0, 90, 97
2, 330016, Note_on_c, 0, 78, 89
2, 330020, Note_on_c, 0, 82, 74
2, 330020, Control_c, 0, 64, 0
2, 330080, Control_c, 0, 64, 56
2, 330088, Control_c, 0, 64, 127
2, 330112, Note_on_c, 0, 58, 48
2, 330116, Note_on_c, 0, 61, 37
2, 330120, Note_on_c, 0, 63, 40
2, 330120, Note_on_c, 0, 67, 44
2, 330144, Note_on_c, 0, 63, 0
2, 330144, Note_on_c, 0, 61, 0
2, 330152, Note_on_c, 0, 67, 0
2, 330164, Note_on_c, 0, 58, 0
2, 330172, Note_on_c, 0, 78, 0
2, 330212, Note_on_c, 0, 90, 0
2, 330216, Note_on_c, 0, 58, 44
2, 330224, Note_on_c, 0, 61, 44
2, 330224, Note_on_c, 0, 67, 64
2, 330232, Note_on_c, 0, 63, 48
2, 330252, Note_on_c, 0, 63, 0
2, 330252, Note_on_c, 0, 61, 0
2, 330252, Note_on_c, 0, 67, 0
2, 330260, Note_on_c, 0, 82, 0
2, 330272, Note_on_c, 0, 58, 0
2, 330332, Note_on_c, 0, 89, 95
2, 330336, Note_on_c, 0, 77, 78
2, 330360, Note_on_c, 0, 79, 43
2, 330380, Note_on_c, 0, 77, 0
2, 330384, Note_on_c, 0, 79, 0
2, 330388, Note_on_c, 0, 89, 0
2, 330452, Note_on_c, 0, 88, 98
2, 330456, Note_on_c, 0, 76, 80
2, 330460, Note_on_c, 0, 82, 64
2, 330480, Control_c, 0, 64, 72
2, 330492, Control_c, 0, 64, 0
2, 330532, Note_on_c, 0, 55, 54
2, 330536, Note_on_c, 0, 58, 33
2, 330536, Note_on_c, 0, 61, 33
2, 330540, Control_c, 0, 64, 72
2, 330544, Note_on_c, 0, 63, 21
2, 330548, Control_c, 0, 64, 127
2, 330564, Note_on_c, 0, 61, 0
2, 330568, Note_on_c, 0, 76, 0
2, 330568, Note_on_c, 0, 55, 0
2, 330572, Note_on_c, 0, 58, 0
2, 330572, Note_on_c, 0, 63, 0
2, 330636, Note_on_c, 0, 63, 66
2, 330640, Note_on_c, 0, 55, 56
2, 330644, Note_on_c, 0, 58, 55
2, 330652, Note_on_c, 0, 61, 41
2, 330660, Note_on_c, 0, 88, 0
2, 330672, Note_on_c, 0, 61, 0
2, 330676, Note_on_c, 0, 55, 0
2, 330688, Note_on_c, 0, 58, 0
2, 330688, Note_on_c, 0, 63, 0
2, 330724, Note_on_c, 0, 82, 0
2, 330760, Note_on_c, 0, 75, 89
2, 330764, Note_on_c, 0, 87, 97
2, 330800, Note_on_c, 0, 75, 0
2, 330820, Note_on_c, 0, 87, 0
2, 330900, Note_on_c, 0, 93, 117
2, 330900, Note_on_c, 0, 81, 98
2, 330944, Control_c, 0, 64, 56
2, 330956, Control_c, 0, 64, 0
2, 330988, Note_on_c, 0, 81, 0
2, 330988, Control_c, 0, 64, 24
2, 331000, Control_c, 0, 64, 88
2, 331008, Note_on_c, 0, 75, 65
2, 331008, Control_c, 0, 64, 127
2, 331016, Note_on_c, 0, 72, 59
2, 331016, Note_on_c, 0, 67, 50
2, 331028, Note_on_c, 0, 69, 43
2, 331036, Note_on_c, 0, 93, 0
2, 331044, Note_on_c, 0, 67, 0
2, 331044, Note_on_c, 0, 75, 0
2, 331044, Note_on_c, 0, 72, 0
2, 331056, Note_on_c, 0, 69, 0
2, 331096, Note_on_c, 0, 67, 50
2, 331100, Note_on_c, 0, 75, 78
2, 331100, Note_on_c, 0, 69, 54
2, 331104, Note_on_c, 0, 72, 57
2, 331132, Note_on_c, 0, 72, 0
2, 331136, Note_on_c, 0, 69, 0
2, 331136, Note_on_c, 0, 67, 0
2, 331140, Note_on_c, 0, 75, 0
2, 331212, Note_on_c, 0, 82, 82
2, 331212, Note_on_c, 0, 94, 100
2, 331260, Note_on_c, 0, 82, 0
2, 331284, Note_on_c, 0, 94, 0
2, 331336, Note_on_c, 0, 96, 110
2, 331340, Note_on_c, 0, 84, 96
2, 331380, Control_c, 0, 64, 56
2, 331392, Control_c, 0, 64, 0
2, 331416, Control_c, 0, 64, 24
2, 331428, Control_c, 0, 64, 72
2, 331436, Control_c, 0, 64, 127
2, 331448, Note_on_c, 0, 84, 0
2, 331452, Note_on_c, 0, 72, 80
2, 331452, Note_on_c, 0, 63, 58
2, 331456, Note_on_c, 0, 69, 66
2, 331460, Note_on_c, 0, 67, 55
2, 331484, Note_on_c, 0, 72, 0
2, 331488, Note_on_c, 0, 69, 0
2, 331488, Note_on_c, 0, 67, 0
2, 331500, Note_on_c, 0, 63, 0
2, 331536, Note_on_c, 0, 63, 66
2, 331544, Note_on_c, 0, 72, 78
2, 331544, Note_on_c, 0, 69, 51
2, 331548, Note_on_c, 0, 67, 43
2, 331572, Note_on_c, 0, 69, 0
2, 331572, Note_on_c, 0, 72, 0
2, 331580, Note_on_c, 0, 96, 0
2, 331584, Note_on_c, 0, 67, 0
2, 331592, Note_on_c, 0, 63, 0
2, 331648, Note_on_c, 0, 98, 110
2, 331648, Note_on_c, 0, 86, 98
2, 331688, Note_on_c, 0, 86, 0
2, 331704, Note_on_c, 0, 98, 0
2, 331764, Note_on_c, 0, 99, 106
2, 331764, Note_on_c, 0, 87, 111
2, 331808, Control_c, 0, 64, 88
2, 331820, Control_c, 0, 64, 0
2, 331852, Control_c, 0, 64, 40
2, 331864, Control_c, 0, 64, 104
2, 331876, Control_c, 0, 64, 127
2, 331880, Note_on_c, 0, 67, 73
2, 331880, Note_on_c, 0, 69, 71
2, 331884, Note_on_c, 0, 63, 56
2, 331884, Note_on_c, 0, 60, 64
2, 331916, Note_on_c, 0, 60, 0
2, 331916, Note_on_c, 0, 63, 0
2, 331920, Note_on_c, 0, 69, 0
2, 331924, Note_on_c, 0, 67, 0
2, 331972, Note_on_c, 0, 87, 0
2, 331972, Note_on_c, 0, 67, 67
2, 331972, Note_on_c, 0, 69, 73
2, 331972, Note_on_c, 0, 60, 64
2, 331972, Note_on_c, 0, 63, 56
2, 331996, Note_on_c, 0, 99, 0
2, 332004, Note_on_c, 0, 67, 0
2, 332008, Note_on_c, 0, 69, 0
2, 332012, Note_on_c, 0, 60, 0
2, 332012, Note_on_c, 0, 63, 0
2, 332076, Note_on_c, 0, 99, 111
2, 332076, Note_on_c, 0, 87, 101
2, 332132, Note_on_c, 0, 87, 0
2, 332160, Note_on_c, 0, 99, 0
2, 332196, Note_on_c, 0, 101, 111
2, 332196, Note_on_c, 0, 92, 58
2, 332200, Note_on_c, 0, 89, 100
2, 332204, Note_on_c, 0, 93, 103
2, 332236, Control_c, 0, 64, 72
2, 332244, Control_c, 0, 64, 0
2, 332304, Note_on_c, 0, 63, 56
2, 332308, Note_on_c, 0, 55, 57
2, 332308, Note_on_c, 0, 60, 62
2, 332312, Control_c, 0, 64, 104
2, 332316, Note_on_c, 0, 57, 46
2, 332324, Control_c, 0, 64, 127
2, 332328, Note_on_c, 0, 55, 0
2, 332340, Note_on_c, 0, 57, 0
2, 332340, Note_on_c, 0, 60, 0
2, 332348, Note_on_c, 0, 63, 0
2, 332360, Note_on_c, 0, 92, 0
2, 332380, Note_on_c, 0, 101, 0
2, 332392, Note_on_c, 0, 55, 63
2, 332396, Note_on_c, 0, 60, 64
2, 332396, Note_on_c, 0, 63, 63
2, 332400, Note_on_c, 0, 89, 0
2, 332400, Note_on_c, 0, 57, 35
2, 332416, Note_on_c, 0, 55, 0
2, 332428, Note_on_c, 0, 60, 0
2, 332428, Note_on_c, 0, 57, 0
2, 332448, Note_on_c, 0, 93, 0
2, 332452, Note_on_c, 0, 63, 0
2, 332508, Note_on_c, 0, 99, 102
2, 332512, Note_on_c, 0, 87, 96
2, 332560, Note_on_c, 0, 87, 0
2, 332576, Note_on_c, 0, 99, 0
2, 332616, Note_on_c, 0, 99, 97
2, 332624, Note_on_c, 0, 87, 103
2, 332628, Note_on_c, 0, 93, 98
2, 332652, Control_c, 0, 64, 24
2, 332664, Control_c, 0, 64, 0
2, 332708, Control_c, 0, 64, 40
2, 332720, Control_c, 0, 64, 127
2, 332728, Note_on_c, 0, 75, 82
2, 332732, Note_on_c, 0, 67, 62
2, 332736, Note_on_c, 0, 72, 75
2, 332740, Note_on_c, 0, 69, 65
2, 332764, Note_on_c, 0, 67, 0
2, 332768, Note_on_c, 0, 99, 0
2, 332768, Note_on_c, 0, 69, 0
2, 332772, Note_on_c, 0, 75, 0
2, 332776, Note_on_c, 0, 72, 0
2, 332788, Note_on_c, 0, 87, 0
2, 332832, Note_on_c, 0, 75, 86
2, 332840, Note_on_c, 0, 67, 52
2, 332844, Note_on_c, 0, 72, 52
2, 332844, Note_on_c, 0, 69, 47
2, 332868, Note_on_c, 0, 72, 0
2, 332868, Note_on_c, 0, 67, 0
2, 332876, Note_on_c, 0, 69, 0
2, 332884, Note_on_c, 0, 75, 0
2, 332892, Note_on_c, 0, 93, 0
2, 332932, Note_on_c, 0, 98, 97
2, 332940, Note_on_c, 0, 86, 89
2, 332984, Note_on_c, 0, 86, 0
2, 332996, Note_on_c, 0, 98, 0
2, 333044, Note_on_c, 0, 97, 102
2, 333056, Note_on_c, 0, 85, 104
2, 333064, Control_c, 0, 64, 104
2, 333076, Control_c, 0, 64, 24
2, 333088, Control_c, 0, 64, 0
2, 333136, Control_c, 0, 64, 88
2, 333144, Note_on_c, 0, 63, 52
2, 333144, Note_on_c, 0, 72, 71
2, 333144, Note_on_c, 0, 69, 65
2, 333144, Note_on_c, 0, 67, 57
2, 333144, Control_c, 0, 64, 127
2, 333180, Note_on_c, 0, 72, 0
2, 333184, Note_on_c, 0, 69, 0
2, 333188, Note_on_c, 0, 67, 0
2, 333200, Note_on_c, 0, 63, 0
2, 333204, Note_on_c, 0, 85, 0
2, 333220, Note_on_c, 0, 97, 0
2, 333240, Note_on_c, 0, 63, 57
2, 333244, Note_on_c, 0, 67, 50
2, 333248, Note_on_c, 0, 72, 74
2, 333252, Note_on_c, 0, 69, 44
2, 333276, Note_on_c, 0, 69, 0
2, 333276, Note_on_c, 0, 72, 0
2, 333284, Note_on_c, 0, 67, 0
2, 333300, Note_on_c, 0, 63, 0
2, 333356, Note_on_c, 0, 84, 101
2, 333356, Note_on_c, 0, 96, 103
2, 333360, Note_on_c, 0, 87, 85
2, 333408, Note_on_c, 0, 87, 0
2, 333412, Note_on_c, 0, 96, 0
2, 333412, Note_on_c, 0, 84, 0
2, 333468, Note_on_c, 0, 95, 105
2, 333472, Note_on_c, 0, 83, 90
2, 333476, Note_on_c, 0, 87, 90
2, 333504, Control_c, 0, 64, 56
2, 333516, Control_c, 0, 64, 0
2, 333548, Control_c, 0, 64, 40
2, 333560, Control_c, 0, 64, 104
2, 333572, Note_on_c, 0, 95, 0
2, 333572, Control_c, 0, 64, 127
2, 333576, Note_on_c, 0, 69, 59
2, 333576, Note_on_c, 0, 67, 57
2, 333576, Note_on_c, 0, 63, 43
2, 333580, Note_on_c, 0, 83, 0
2, 333584, Note_on_c, 0, 60, 52
2, 333612, Note_on_c, 0, 60, 0
2, 333612, Note_on_c, 0, 67, 0
2, 333616, Note_on_c, 0, 63, 0
2, 333616, Note_on_c, 0, 69, 0
2, 333680, Note_on_c, 0, 69, 66
2, 333680, Note_on_c, 0, 63, 52
2, 333680, Note_on_c, 0, 67, 58
2, 333684, Note_on_c, 0, 60, 44
2, 333704, Note_on_c, 0, 67, 0
2, 333708, Note_on_c, 0, 87, 0
2, 333716, Note_on_c, 0, 69, 0
2, 333716, Note_on_c, 0, 60, 0
2, 333724, Note_on_c, 0, 63, 0
2, 333780, Note_on_c, 0, 94, 94
2, 333784, Note_on_c, 0, 82, 83
2, 333796, Note_on_c, 0, 87, 63
2, 333820, Note_on_c, 0, 87, 0
2, 333832, Note_on_c, 0, 82, 0
2, 333840, Note_on_c, 0, 94, 0
2, 333896, Note_on_c, 0, 93, 108
2, 333900, Note_on_c, 0, 87, 73
2, 333900, Note_on_c, 0, 81, 86
2, 333932, Control_c, 0, 64, 56
2, 333944, Control_c, 0, 64, 0
2, 333976, Note_on_c, 0, 93, 0
2, 333976, Control_c, 0, 64, 40
2, 333988, Control_c, 0, 64, 127
2, 333992, Note_on_c, 0, 81, 0
2, 333992, Note_on_c, 0, 63, 58
2, 333996, Note_on_c, 0, 87, 0
2, 333996, Note_on_c, 0, 55, 59
2, 334000, Note_on_c, 0, 60, 52
2, 334008, Note_on_c, 0, 57, 44
2, 334032, Note_on_c, 0, 60, 0
2, 334036, Note_on_c, 0, 55, 0
2, 334040, Note_on_c, 0, 63, 0
2, 334040, Note_on_c, 0, 57, 0
2, 334088, Note_on_c, 0, 55, 71
2, 334092, Note_on_c, 0, 63, 77
2, 334096, Note_on_c, 0, 57, 46
2, 334096, Note_on_c, 0, 60, 67
2, 334120, Note_on_c, 0, 60, 0
2, 334120, Note_on_c, 0, 55, 0
2, 334124, Note_on_c, 0, 57, 0
2, 334148, Note_on_c, 0, 63, 0
2, 334212, Note_on_c, 0, 87, 102
2, 334212, Note_on_c, 0, 75, 89
2, 334236, Note_on_c, 0, 75, 0
2, 334260, Note_on_c, 0, 87, 0
2, 334332, Note_on_c, 0, 93, 117
2, 334336, Note_on_c, 0, 81, 103
2, 334368, Control_c, 0, 64, 88
2, 334376, Note_on_c, 0, 81, 0
2, 334380, Control_c, 0, 64, 0
2, 334428, Control_c, 0, 64, 72
2, 334436, Control_c, 0, 64, 127
2, 334444, Note_on_c, 0, 75, 77
2, 334448, Note_on_c, 0, 72, 67
2, 334452, Note_on_c, 0, 69, 57
2, 334452, Note_on_c, 0, 67, 50
2, 334476, Note_on_c, 0, 67, 0
2, 334484, Note_on_c, 0, 72, 0
2, 334488, Note_on_c, 0, 75, 0
2, 334504, Note_on_c, 0, 93, 0
2, 334504, Note_on_c, 0, 69, 0
2, 334536, Note_on_c, 0, 75, 66
2, 334540, Note_on_c, 0, 67, 58
2, 334548, Note_on_c, 0, 72, 59
2, 334556, Note_on_c, 0, 69, 41
2, 334572, Note_on_c, 0, 72, 0
2, 334584, Note_on_c, 0, 69, 0
2, 334588, Note_on_c, 0, 75, 0
2, 334592, Note_on_c, 0, 67, 0
2, 334648, Note_on_c, 0, 94, 101
2, 334652, Note_on_c, 0, 82, 96
2, 334692, Note_on_c, 0, 82, 0
2, 334712, Note_on_c, 0, 94, 0
2, 334756, Note_on_c, 0, 96, 113
2, 334760, Note_on_c, 0, 84, 101
2, 334796, Control_c, 0, 64, 40
2, 334808, Control_c, 0, 64, 0
2, 334840, Control_c, 0, 64, 88
2, 334852, Control_c, 0, 64, 127
2, 334856, Note_on_c, 0, 63, 54
2, 334860, Note_on_c, 0, 69, 66
2, 334860, Note_on_c, 0, 72, 66
2, 334864, Note_on_c, 0, 67, 50
2, 334880, Note_on_c, 0, 84, 0
2, 334888, Note_on_c, 0, 72, 0
2, 334896, Note_on_c, 0, 67, 0
2, 334900, Note_on_c, 0, 63, 0
2, 334900, Note_on_c, 0, 69, 0
2, 334944, Note_on_c, 0, 63, 65
2, 334948, Note_on_c, 0, 69, 66
2, 334952, Note_on_c, 0, 72, 74
2, 334952, Note_on_c, 0, 67, 54
2, 334956, Note_on_c, 0, 96, 0
2, 334980, Note_on_c, 0, 72, 0
2, 334984, Note_on_c, 0, 67, 0
2, 334992, Note_on_c, 0, 69, 0
2, 335004, Note_on_c, 0, 63, 0
2, 335060, Note_on_c, 0, 86, 101
2, 335060, Note_on_c, 0, 98, 111
2, 335104, Note_on_c, 0, 86, 0
2, 335116, Note_on_c, 0, 98, 0
2, 335176, Note_on_c, 0, 99, 111
2, 335176, Note_on_c, 0, 87, 118
2, 335200, Control_c, 0, 64, 104
2, 335212, Control_c, 0, 64, 24
2, 335220, Control_c, 0, 64, 0
2, 335248, Control_c, 0, 64, 40
2, 335256, Control_c, 0, 64, 127
2, 335276, Note_on_c, 0, 67, 67
2, 335276, Note_on_c, 0, 69, 64
2, 335280, Note_on_c, 0, 63, 49
2, 335280, Note_on_c, 0, 60, 64
2, 335312, Note_on_c, 0, 63, 0
2, 335312, Note_on_c, 0, 69, 0
2, 335316, Note_on_c, 0, 60, 0
2, 335320, Note_on_c, 0, 67, 0
2, 335368, Note_on_c, 0, 67, 70
2, 335372, Note_on_c, 0, 69, 74
2, 335372, Note_on_c, 0, 63, 69
2, 335372, Note_on_c, 0, 60, 60
2, 335396, Note_on_c, 0, 87, 0
2, 335404, Note_on_c, 0, 67, 0
2, 335408, Note_on_c, 0, 99, 0
2, 335412, Note_on_c, 0, 69, 0
2, 335416, Note_on_c, 0, 60, 0
2, 335420, Note_on_c, 0, 63, 0
2, 335472, Note_on_c, 0, 99, 117
2, 335476, Note_on_c, 0, 87, 106
2, 335528, Note_on_c, 0, 87, 0
2, 335556, Note_on_c, 0, 99, 0
2, 335588, Note_on_c, 0, 101, 115
2, 335588, Note_on_c, 0, 89, 105
2, 335592, Note_on_c, 0, 93, 103
2, 335604, Note_on_c, 0, 100, 54
2, 335616, Control_c, 0, 64, 88
2, 335628, Note_on_c, 0, 100, 0
2, 335628, Control_c, 0, 64, 0
2, 335696, Note_on_c, 0, 60, 72
2, 335696, Note_on_c, 0, 63, 62
2, 335696, Note_on_c, 0, 55, 60
2, 335708, Note_on_c, 0, 57, 43
2, 335708, Control_c, 0, 64, 127
2, 335724, Note_on_c, 0, 101, 0
2, 335740, Note_on_c, 0, 55, 0
2, 335740, Note_on_c, 0, 63, 0
2, 335740, Note_on_c, 0, 57, 0
2, 335748, Note_on_c, 0, 60, 0
2, 335760, Note_on_c, 0, 89, 0
2, 335788, Note_on_c, 0, 63, 54
2, 335792, Note_on_c, 0, 60, 64
2, 335792, Note_on_c, 0, 55, 69
2, 335800, Note_on_c, 0, 57, 36
2, 335808, Note_on_c, 0, 93, 0
2, 335816, Note_on_c, 0, 55, 0
2, 335816, Note_on_c, 0, 60, 0
2, 335824, Note_on_c, 0, 57, 0
2, 335852, Note_on_c, 0, 63, 0
2, 335896, Note_on_c, 0, 99, 104
2, 335900, Note_on_c, 0, 87, 104
2, 335948, Note_on_c, 0, 87, 0
2, 335960, Note_on_c, 0, 99, 0
2, 336008, Note_on_c, 0, 99, 105
2, 336012, Note_on_c, 0, 87, 103
2, 336016, Note_on_c, 0, 93, 103
2, 336044, Control_c, 0, 64, 40
2, 336056, Control_c, 0, 64, 0
2, 336100, Control_c, 0, 64, 72
2, 336112, Note_on_c, 0, 75, 87
2, 336112, Control_c, 0, 64, 127
2, 336116, Note_on_c, 0, 72, 78
2, 336120, Note_on_c, 0, 67, 54
2, 336124, Note_on_c, 0, 69, 60
2, 336148, Note_on_c, 0, 67, 0
2, 336156, Note_on_c, 0, 75, 0
2, 336164, Note_on_c, 0, 72, 0
2, 336172, Note_on_c, 0, 87, 0
2, 336172, Note_on_c, 0, 99, 0
2, 336172, Note_on_c, 0, 69, 0
2, 336212, Note_on_c, 0, 75, 73
2, 336216, Note_on_c, 0, 72, 63
2, 336216, Note_on_c, 0, 67, 50
2, 336224, Note_on_c, 0, 69, 56
2, 336248, Note_on_c, 0, 72, 0
2, 336252, Note_on_c, 0, 67, 0
2, 336252, Note_on_c, 0, 69, 0
2, 336256, Note_on_c, 0, 93, 0
2, 336260, Note_on_c, 0, 75, 0
2, 336308, Note_on_c, 0, 98, 103
2, 336312, Note_on_c, 0, 86, 93
2, 336352, Note_on_c, 0, 86, 0
2, 336368, Note_on_c, 0, 98, 0
2, 336416, Note_on_c, 0, 97, 105
2, 336424, Note_on_c, 0, 85, 104
2, 336436, Control_c, 0, 64, 88
2, 336448, Control_c, 0, 64, 0
2, 336492, Control_c, 0, 64, 72
2, 336504, Control_c, 0, 64, 127
2, 336512, Note_on_c, 0, 69, 77
2, 336512, Note_on_c, 0, 63, 60
2, 336516, Note_on_c, 0, 72, 65
2, 336520, Note_on_c, 0, 67, 57
2, 336548, Note_on_c, 0, 72, 0
2, 336548, Note_on_c, 0, 97, 0
2, 336552, Note_on_c, 0, 67, 0
2, 336556, Note_on_c, 0, 69, 0
2, 336556, Note_on_c, 0, 85, 0
2, 336572, Note_on_c, 0, 63, 0
2, 336604, Note_on_c, 0, 63, 52
2, 336612, Note_on_c, 0, 72, 80
2, 336616, Note_on_c, 0, 67, 54
2, 336620, Note_on_c, 0, 69, 35
2, 336648, Note_on_c, 0, 69, 0
2, 336648, Note_on_c, 0, 67, 0
2, 336652, Note_on_c, 0, 72, 0
2, 336668, Note_on_c, 0, 63, 0
2, 336724, Note_on_c, 0, 96, 106
2, 336728, Note_on_c, 0, 84, 105
2, 336744, Note_on_c, 0, 87, 56
2, 336764, Note_on_c, 0, 87, 0
2, 336776, Note_on_c, 0, 96, 0
2, 336780, Note_on_c, 0, 84, 0
2, 336840, Note_on_c, 0, 95, 106
2, 336840, Note_on_c, 0, 87, 86
2, 336844, Note_on_c, 0, 83, 96
2, 336864, Control_c, 0, 64, 72
2, 336876, Control_c, 0, 64, 0
2, 336920, Control_c, 0, 64, 56
2, 336932, Control_c, 0, 64, 127
2, 336952, Note_on_c, 0, 95, 0
2, 336952, Note_on_c, 0, 63, 69
2, 336956, Note_on_c, 0, 69, 89
2, 336956, Note_on_c, 0, 67, 85
2, 336960, Note_on_c, 0, 60, 67
2, 336964, Note_on_c, 0, 83, 0
2, 337000, Note_on_c, 0, 67, 0
2, 337000, Note_on_c, 0, 69, 0
2, 337004, Note_on_c, 0, 63, 0
2, 337004, Note_on_c, 0, 60, 0
2, 337056, Note_on_c, 0, 69, 71
2, 337056, Note_on_c, 0, 67, 60
2, 337060, Note_on_c, 0, 63, 44
2, 337064, Note_on_c, 0, 60, 51
2, 337084, Note_on_c, 0, 87, 0
2, 337092, Note_on_c, 0, 67, 0
2, 337096, Note_on_c, 0, 60, 0
2, 337100, Note_on_c, 0, 63, 0
2, 337104, Note_on_c, 0, 69, 0
2, 337160, Note_on_c, 0, 94, 98
2, 337164, Note_on_c, 0, 82, 95
2, 337172, Note_on_c, 0, 87, 86
2, 337208, Note_on_c, 0, 82, 0
2, 337212, Note_on_c, 0, 94, 0
2, 337224, Note_on_c, 0, 87, 0
2, 337272, Note_on_c, 0, 93, 115
2, 337276, Note_on_c, 0, 81, 96
2, 337276, Note_on_c, 0, 87, 73
2, 337336, Control_c, 0, 64, 56
2, 337348, Note_on_c, 0, 81, 0
2, 337348, Control_c, 0, 64, 0
2, 337352, Note_on_c, 0, 93, 0
2, 337368, Note_on_c, 0, 87, 0
2, 337392, Note_on_c, 0, 63, 79
2, 337396, Note_on_c, 0, 60, 71
2, 337396, Note_on_c, 0, 55, 65
2, 337404, Control_c, 0, 64, 104
2, 337412, Note_on_c, 0, 57, 37
2, 337416, Control_c, 0, 64, 127
2, 337424, Note_on_c, 0, 55, 0
2, 337436, Note_on_c, 0, 63, 0
2, 337440, Note_on_c, 0, 57, 0
2, 337448, Note_on_c, 0, 60, 0
2, 337488, Note_on_c, 0, 63, 66
2, 337488, Note_on_c, 0, 55, 66
2, 337488, Note_on_c, 0, 60, 73
2, 337512, Note_on_c, 0, 60, 0
2, 337524, Note_on_c, 0, 63, 0
2, 337540, Note_on_c, 0, 55, 0
2, 337620, Note_on_c, 0, 63, 101
2, 337624, Note_on_c, 0, 75, 111
2, 337676, Note_on_c, 0, 63, 0
2, 337684, Note_on_c, 0, 75, 0
2, 337740, Note_on_c, 0, 74, 113
2, 337744, Note_on_c, 0, 62, 98
2, 337784, Control_c, 0, 64, 0
2, 337852, Control_c, 0, 64, 88
2, 337864, Note_on_c, 0, 50, 77
2, 337864, Control_c, 0, 64, 127
2, 337876, Note_on_c, 0, 38, 69
2, 337892, Note_on_c, 0, 50, 0
2, 337900, Note_on_c, 0, 38, 0
2, 337912, Note_on_c, 0, 62, 0
2, 337956, Note_on_c, 0, 74, 0
2, 337964, Note_on_c, 0, 51, 86
2, 337972, Note_on_c, 0, 39, 73
2, 337988, Note_on_c, 0, 39, 0
2, 338000, Note_on_c, 0, 51, 0
2, 338072, Note_on_c, 0, 75, 104
2, 338076, Note_on_c, 0, 63, 92
2, 338108, Note_on_c, 0, 63, 0
2, 338124, Note_on_c, 0, 75, 0
2, 338188, Note_on_c, 0, 78, 98
2, 338192, Note_on_c, 0, 66, 89
2, 338200, Control_c, 0, 64, 72
2, 338212, Control_c, 0, 64, 0
2, 338280, Control_c, 0, 64, 104
2, 338284, Note_on_c, 0, 42, 74
2, 338292, Note_on_c, 0, 54, 78
2, 338292, Control_c, 0, 64, 127
2, 338312, Note_on_c, 0, 66, 0
2, 338316, Note_on_c, 0, 54, 0
2, 338328, Note_on_c, 0, 42, 0
2, 338392, Note_on_c, 0, 78, 0
2, 338396, Note_on_c, 0, 55, 90
2, 338400, Note_on_c, 0, 43, 80
2, 338420, Note_on_c, 0, 43, 0
2, 338440, Note_on_c, 0, 55, 0
2, 338492, Note_on_c, 0, 79, 105
2, 338496, Note_on_c, 0, 67, 92
2, 338536, Note_on_c, 0, 67, 0
2, 338548, Note_on_c, 0, 79, 0
2, 338608, Note_on_c, 0, 81, 103
2, 338612, Note_on_c, 0, 69, 94
2, 338640, Control_c, 0, 64, 56
2, 338648, Control_c, 0, 64, 0
2, 338708, Note_on_c, 0, 57, 77
2, 338712, Note_on_c, 0, 45, 79
2, 338720, Control_c, 0, 64, 88
2, 338728, Control_c, 0, 64, 127
2, 338740, Note_on_c, 0, 45, 0
2, 338752, Note_on_c, 0, 57, 0
2, 338820, Note_on_c, 0, 57, 75
2, 338824, Note_on_c, 0, 45, 78
2, 338848, Note_on_c, 0, 45, 0
2, 338848, Note_on_c, 0, 69, 0
2, 338860, Note_on_c, 0, 81, 0
2, 338868, Note_on_c, 0, 57, 0
2, 338932, Note_on_c, 0, 69, 98
2, 338932, Note_on_c, 0, 81, 108
2, 338980, Note_on_c, 0, 81, 0
2, 338980, Note_on_c, 0, 69, 0
2, 339040, Note_on_c, 0, 82, 109
2, 339044, Note_on_c, 0, 70, 100
2, 339064, Control_c, 0, 64, 0
2, 339144, Control_c, 0, 64, 127
2, 339148, Note_on_c, 0, 46, 80
2, 339148, Note_on_c, 0, 58, 85
2, 339184, Note_on_c, 0, 46, 0
2, 339188, Note_on_c, 0, 58, 0
2, 339252, Note_on_c, 0, 57, 81
2, 339260, Note_on_c, 0, 82, 0
2, 339272, Note_on_c, 0, 70, 0
2, 339296, Note_on_c, 0, 57, 0
2, 339356, Note_on_c, 0, 81, 95
2, 339364, Note_on_c, 0, 69, 88
2, 339404, Note_on_c, 0, 69, 0
2, 339408, Note_on_c, 0, 81, 0
2, 339472, Note_on_c, 0, 80, 94
2, 339480, Note_on_c, 0, 68, 83
2, 339492, Control_c, 0, 64, 88
2, 339504, Control_c, 0, 64, 0
2, 339560, Control_c, 0, 64, 40
2, 339572, Note_on_c, 0, 44, 78
2, 339572, Control_c, 0, 64, 127
2, 339576, Note_on_c, 0, 56, 79
2, 339604, Note_on_c, 0, 80, 0
2, 339612, Note_on_c, 0, 56, 0
2, 339620, Note_on_c, 0, 44, 0
2, 339632, Note_on_c, 0, 68, 0
2, 339684, Note_on_c, 0, 55, 85
2, 339696, Note_on_c, 0, 43, 75
2, 339716, Note_on_c, 0, 55, 0
2, 339728, Note_on_c, 0, 43, 0
2, 339788, Note_on_c, 0, 79, 94
2, 339792, Note_on_c, 0, 67, 80
2, 339824, Note_on_c, 0, 67, 0
2, 339828, Note_on_c, 0, 79, 0
2, 339900, Note_on_c, 0, 78, 93
2, 339904, Note_on_c, 0, 66, 79
2, 339920, Control_c, 0, 64, 72
2, 339932, Control_c, 0, 64, 0
2, 339976, Control_c, 0, 64, 24
2, 339984, Control_c, 0, 64, 88
2, 339996, Control_c, 0, 64, 127
2, 340004, Note_on_c, 0, 54, 81
2, 340004, Note_on_c, 0, 42, 78
2, 340008, Note_on_c, 0, 78, 0
2, 340028, Note_on_c, 0, 42, 0
2, 340032, Note_on_c, 0, 66, 0
2, 340040, Note_on_c, 0, 54, 0
2, 340112, Note_on_c, 0, 53, 81
2, 340120, Note_on_c, 0, 41, 78
2, 340136, Note_on_c, 0, 53, 0
2, 340140, Note_on_c, 0, 41, 0
2, 340196, Note_on_c, 0, 77, 94
2, 340200, Note_on_c, 0, 65, 78
2, 340236, Note_on_c, 0, 77, 0
2, 340240, Note_on_c, 0, 65, 0
2, 340312, Note_on_c, 0, 76, 96
2, 340312, Note_on_c, 0, 64, 83
2, 340368, Control_c, 0, 64, 40
2, 340380, Control_c, 0, 64, 0
2, 340424, Note_on_c, 0, 40, 74
2, 340424, Note_on_c, 0, 52, 78
2, 340424, Control_c, 0, 64, 40
2, 340436, Control_c, 0, 64, 127
2, 340456, Note_on_c, 0, 52, 0
2, 340472, Note_on_c, 0, 40, 0
2, 340472, Note_on_c, 0, 64, 0
2, 340512, Note_on_c, 0, 76, 0
2, 340524, Note_on_c, 0, 39, 80
2, 340524, Note_on_c, 0, 51, 87
2, 340560, Note_on_c, 0, 51, 0
2, 340560, Note_on_c, 0, 39, 0
2, 340624, Note_on_c, 0, 75, 98
2, 340624, Note_on_c, 0, 63, 83
2, 340668, Note_on_c, 0, 63, 0
2, 340676, Note_on_c, 0, 75, 0
2, 340736, Note_on_c, 0, 66, 88
2, 340740, Note_on_c, 0, 78, 98
2, 340740, Control_c, 0, 64, 24
2, 340748, Control_c, 0, 64, 0
2, 340800, Note_on_c, 0, 66, 0
2, 340804, Control_c, 0, 64, 72
2, 340816, Note_on_c, 0, 78, 0
2, 340820, Control_c, 0, 64, 127
2, 340836, Note_on_c, 0, 54, 89
2, 340836, Note_on_c, 0, 42, 78
2, 340868, Note_on_c, 0, 42, 0
2, 340876, Note_on_c, 0, 54, 0
2, 340944, Note_on_c, 0, 57, 90
2, 340948, Note_on_c, 0, 45, 93
2, 340988, Note_on_c, 0, 45, 0
2, 340988, Note_on_c, 0, 57, 0
2, 341044, Note_on_c, 0, 69, 98
2, 341048, Note_on_c, 0, 81, 105
2, 341084, Note_on_c, 0, 69, 0
2, 341108, Note_on_c, 0, 81, 0
2, 341168, Note_on_c, 0, 74, 101
2, 341168, Note_on_c, 0, 86, 110
2, 341212, Control_c, 0, 64, 0
2, 341264, Note_on_c, 0, 62, 86
2, 341264, Note_on_c, 0, 50, 83
2, 341268, Control_c, 0, 64, 40
2, 341276, Control_c, 0, 64, 127
2, 341288, Note_on_c, 0, 50, 0
2, 341288, Note_on_c, 0, 74, 0
2, 341304, Note_on_c, 0, 86, 0
2, 341308, Note_on_c, 0, 62, 0
2, 341360, Note_on_c, 0, 51, 88
2, 341360, Note_on_c, 0, 63, 93
2, 341400, Note_on_c, 0, 63, 0
2, 341400, Note_on_c, 0, 51, 0
2, 341472, Note_on_c, 0, 75, 90
2, 341472, Note_on_c, 0, 87, 94
2, 341508, Note_on_c, 0, 87, 0
2, 341512, Note_on_c, 0, 75, 0
2, 341588, Note_on_c, 0, 78, 111
2, 341588, Note_on_c, 0, 90, 121
2, 341600, Note_on_c, 0, 87, 57
2, 341620, Note_on_c, 0, 87, 0
2, 341628, Note_on_c, 0, 78, 0
2, 341660, Control_c, 0, 64, 56
2, 341672, Control_c, 0, 64, 0
2, 341684, Note_on_c, 0, 78, 55
2, 341688, Note_on_c, 0, 66, 100
2, 341692, Note_on_c, 0, 54, 82
2, 341716, Note_on_c, 0, 78, 0
2, 341716, Control_c, 0, 64, 72
2, 341728, Control_c, 0, 64, 127
2, 341740, Note_on_c, 0, 54, 0
2, 341740, Note_on_c, 0, 66, 0
2, 341776, Note_on_c, 0, 90, 0
2, 341796, Note_on_c, 0, 67, 86
2, 341824, Note_on_c, 0, 55, 85
2, 341852, Note_on_c, 0, 55, 0
2, 341856, Note_on_c, 0, 67, 0
2, 341892, Note_on_c, 0, 91, 115
2, 341892, Note_on_c, 0, 79, 108
2, 341924, Note_on_c, 0, 79, 0
2, 341932, Note_on_c, 0, 91, 0
2, 341992, Note_on_c, 0, 93, 113
2, 341996, Note_on_c, 0, 81, 96
2, 342032, Control_c, 0, 64, 88
2, 342040, Control_c, 0, 64, 0
2, 342088, Note_on_c, 0, 69, 81
2, 342092, Note_on_c, 0, 57, 79
2, 342096, Control_c, 0, 64, 56
2, 342108, Control_c, 0, 64, 127
2, 342120, Note_on_c, 0, 57, 0
2, 342128, Note_on_c, 0, 69, 0
2, 342200, Note_on_c, 0, 69, 85
2, 342204, Note_on_c, 0, 57, 80
2, 342236, Note_on_c, 0, 57, 0
2, 342236, Note_on_c, 0, 93, 0
2, 342236, Note_on_c, 0, 81, 0
2, 342248, Note_on_c, 0, 69, 0
2, 342308, Note_on_c, 0, 93, 111
2, 342308, Note_on_c, 0, 81, 96
2, 342356, Note_on_c, 0, 81, 0
2, 342356, Note_on_c, 0, 93, 0
2, 342412, Note_on_c, 0, 94, 106
2, 342416, Note_on_c, 0, 82, 97
2, 342460, Control_c, 0, 64, 24
2, 342468, Control_c, 0, 64, 0
2, 342508, Note_on_c, 0, 58, 81
2, 342508, Note_on_c, 0, 70, 87
2, 342512, Control_c, 0, 64, 56
2, 342524, Control_c, 0, 64, 127
2, 342548, Note_on_c, 0, 70, 0
2, 342552, Note_on_c, 0, 58, 0
2, 342604, Note_on_c, 0, 82, 0
2, 342608, Note_on_c, 0, 94, 0
2, 342616, Note_on_c, 0, 69, 89
2, 342624, Note_on_c, 0, 57, 80
2, 342656, Note_on_c, 0, 57, 0
2, 342660, Note_on_c, 0, 69, 0
2, 342724, Note_on_c, 0, 93, 108
2, 342724, Note_on_c, 0, 81, 95
2, 342768, Note_on_c, 0, 81, 0
2, 342776, Note_on_c, 0, 93, 0
2, 342832, Note_on_c, 0, 92, 109
2, 342836, Note_on_c, 0, 80, 100
2, 342872, Control_c, 0, 64, 88
2, 342884, Control_c, 0, 64, 0
2, 342936, Note_on_c, 0, 56, 82
2, 342936, Note_on_c, 0, 68, 82
2, 342940, Control_c, 0, 64, 40
2, 342952, Control_c, 0, 64, 127
2, 342976, Note_on_c, 0, 56, 0
2, 342980, Note_on_c, 0, 68, 0
2, 343004, Note_on_c, 0, 92, 0
2, 343012, Note_on_c, 0, 80, 0
2, 343036, Note_on_c, 0, 67, 90
2, 343044, Note_on_c, 0, 55, 80
2, 343076, Note_on_c, 0, 55, 0
2, 343080, Note_on_c, 0, 67, 0
2, 343140, Note_on_c, 0, 91, 102
2, 343140, Note_on_c, 0, 79, 98
2, 343184, Note_on_c, 0, 79, 0
2, 343188, Note_on_c, 0, 66, 32
2, 343192, Note_on_c, 0, 91, 0
2, 343212, Note_on_c, 0, 66, 0
2, 343256, Note_on_c, 0, 90, 100
2, 343260, Note_on_c, 0, 78, 98
2, 343268, Control_c, 0, 64, 40
2, 343276, Control_c, 0, 64, 0
2, 343312, Control_c, 0, 64, 40
2, 343324, Control_c, 0, 64, 104
2, 343332, Control_c, 0, 64, 127
2, 343344, Note_on_c, 0, 54, 80
2, 343348, Note_on_c, 0, 66, 78
2, 343372, Note_on_c, 0, 66, 0
2, 343384, Note_on_c, 0, 54, 0
2, 343384, Note_on_c, 0, 78, 0
2, 343388, Note_on_c, 0, 90, 0
2, 343444, Note_on_c, 0, 65, 78
2, 343448, Note_on_c, 0, 53, 79
2, 343472, Note_on_c, 0, 53, 0
2, 343484, Note_on_c, 0, 65, 0
2, 343540, Note_on_c, 0, 89, 100
2, 343540, Note_on_c, 0, 77, 94
2, 343576, Note_on_c, 0, 89, 0
2, 343584, Note_on_c, 0, 77, 0
2, 343648, Note_on_c, 0, 88, 103
2, 343652, Note_on_c, 0, 76, 94
2, 343680, Control_c, 0, 64, 40
2, 343692, Control_c, 0, 64, 0
2, 343728, Control_c, 0, 64, 56
2, 343736, Note_on_c, 0, 64, 80
2, 343740, Note_on_c, 0, 52, 79
2, 343740, Control_c, 0, 64, 127
2, 343776, Note_on_c, 0, 64, 0
2, 343780, Note_on_c, 0, 76, 0
2, 343784, Note_on_c, 0, 52, 0
2, 343840, Note_on_c, 0, 51, 88
2, 343840, Note_on_c, 0, 63, 85
2, 343852, Note_on_c, 0, 88, 0
2, 343880, Note_on_c, 0, 63, 0
2, 343880, Note_on_c, 0, 51, 0
2, 343944, Note_on_c, 0, 75, 98
2, 343944, Note_on_c, 0, 87, 103
2, 343980, Note_on_c, 0, 75, 0
2, 344000, Note_on_c, 0, 87, 0
2, 344056, Note_on_c, 0, 78, 109
2, 344060, Note_on_c, 0, 90, 104
2, 344096, Control_c, 0, 64, 40
2, 344108, Control_c, 0, 64, 0
2, 344116, Note_on_c, 0, 78, 0
2, 344140, Note_on_c, 0, 90, 0
2, 344140, Control_c, 0, 64, 88
2, 344152, Note_on_c, 0, 66, 87
2, 344152, Note_on_c, 0, 54, 81
2, 344152, Control_c, 0, 64, 127
2, 344176, Note_on_c, 0, 54, 0
2, 344192, Note_on_c, 0, 66, 0
2, 344260, Note_on_c, 0, 69, 97
2, 344268, Note_on_c, 0, 57, 82
2, 344288, Note_on_c, 0, 57, 0
2, 344300, Note_on_c, 0, 69, 0
2, 344356, Note_on_c, 0, 81, 102
2, 344360, Note_on_c, 0, 93, 115
2, 344392, Note_on_c, 0, 81, 0
2, 344412, Note_on_c, 0, 93, 0
2, 344476, Note_on_c, 0, 98, 120
2, 344476, Note_on_c, 0, 86, 108
2, 344524, Control_c, 0, 64, 56
2, 344536, Control_c, 0, 64, 0
2, 344568, Control_c, 0, 64, 40
2, 344572, Note_on_c, 0, 74, 96
2, 344580, Note_on_c, 0, 62, 87
2, 344580, Control_c, 0, 64, 127
2, 344600, Note_on_c, 0, 86, 0
2, 344612, Note_on_c, 0, 62, 0
2, 344620, Note_on_c, 0, 74, 0
2, 344624, Note_on_c, 0, 98, 0
2, 344680, Note_on_c, 0, 75, 100
2, 344680, Note_on_c, 0, 63, 88
2, 344716, Note_on_c, 0, 75, 0
2, 344720, Note_on_c, 0, 63, 0
2, 344776, Note_on_c, 0, 99, 109
2, 344776, Note_on_c, 0, 87, 105
2, 344816, Note_on_c, 0, 87, 0
2, 344828, Note_on_c, 0, 99, 0
2, 344888, Note_on_c, 0, 95, 108
2, 344892, Note_on_c, 0, 83, 108
2, 344940, Control_c, 0, 64, 72
2, 344952, Note_on_c, 0, 83, 0
2, 344952, Control_c, 0, 64, 0
2, 344976, Note_on_c, 0, 71, 92
2, 344976, Note_on_c, 0, 59, 80
2, 344980, Note_on_c, 0, 95, 0
2, 344984, Control_c, 0, 64, 56
2, 344996, Control_c, 0, 64, 127
2, 345016, Note_on_c, 0, 59, 0
2, 345020, Note_on_c, 0, 71, 0
2, 345072, Note_on_c, 0, 72, 98
2, 345080, Note_on_c, 0, 60, 85
2, 345096, Note_on_c, 0, 60, 0
2, 345112, Note_on_c, 0, 72, 0
2, 345172, Note_on_c, 0, 96, 101
2, 345176, Note_on_c, 0, 84, 96
2, 345216, Note_on_c, 0, 84, 0
2, 345216, Note_on_c, 0, 96, 0
2, 345224, Note_on_c, 0, 68, 28
2, 345252, Note_on_c, 0, 68, 0
2, 345280, Note_on_c, 0, 92, 115
2, 345284, Note_on_c, 0, 80, 105
2, 345324, Control_c, 0, 64, 72
2, 345332, Control_c, 0, 64, 0
2, 345368, Control_c, 0, 64, 127
2, 345372, Note_on_c, 0, 68, 87
2, 345372, Note_on_c, 0, 56, 80
2, 345412, Note_on_c, 0, 56, 0
2, 345416, Note_on_c, 0, 68, 0
2, 345424, Note_on_c, 0, 80, 0
2, 345480, Note_on_c, 0, 69, 93
2, 345484, Note_on_c, 0, 92, 0
2, 345492, Note_on_c, 0, 57, 75
2, 345512, Note_on_c, 0, 57, 0
2, 345520, Note_on_c, 0, 69, 0
2, 345576, Note_on_c, 0, 93, 98
2, 345584, Note_on_c, 0, 81, 86
2, 345616, Note_on_c, 0, 93, 0
2, 345620, Note_on_c, 0, 81, 0
2, 345692, Note_on_c, 0, 89, 103
2, 345696, Note_on_c, 0, 77, 100
2, 345760, Control_c, 0, 64, 56
2, 345772, Control_c, 0, 64, 0
2, 345780, Note_on_c, 0, 65, 86
2, 345788, Note_on_c, 0, 53, 80
2, 345796, Note_on_c, 0, 89, 0
2, 345804, Note_on_c, 0, 77, 0
2, 345804, Control_c, 0, 64, 88
2, 345816, Control_c, 0, 64, 127
2, 345824, Note_on_c, 0, 65, 0
2, 345824, Note_on_c, 0, 53, 0
2, 345876, Note_on_c, 0, 66, 89
2, 345880, Note_on_c, 0, 54, 83
2, 345916, Note_on_c, 0, 66, 0
2, 345920, Note_on_c, 0, 54, 0
2, 345968, Note_on_c, 0, 90, 88
2, 345976, Note_on_c, 0, 78, 85
2, 346012, Note_on_c, 0, 78, 0
2, 346020, Note_on_c, 0, 90, 0
2, 346080, Note_on_c, 0, 86, 100
2, 346084, Note_on_c, 0, 74, 93
2, 346144, Control_c, 0, 64, 56
2, 346152, Control_c, 0, 64, 0
2, 346172, Control_c, 0, 64, 56
2, 346176, Note_on_c, 0, 62, 94
2, 346180, Note_on_c, 0, 50, 85
2, 346184, Control_c, 0, 64, 127
2, 346188, Note_on_c, 0, 74, 0
2, 346192, Note_on_c, 0, 86, 0
2, 346216, Note_on_c, 0, 50, 0
2, 346224, Note_on_c, 0, 62, 0
2, 346272, Note_on_c, 0, 63, 93
2, 346284, Note_on_c, 0, 51, 85
2, 346308, Note_on_c, 0, 51, 0
2, 346312, Note_on_c, 0, 63, 0
2, 346368, Note_on_c, 0, 87, 97
2, 346372, Note_on_c, 0, 75, 100
2, 346416, Note_on_c, 0, 75, 0
2, 346420, Note_on_c, 0, 87, 0
2, 346480, Note_on_c, 0, 71, 96
2, 346484, Note_on_c, 0, 83, 110
2, 346536, Note_on_c, 0, 71, 0
2, 346536, Control_c, 0, 64, 88
2, 346544, Control_c, 0, 64, 0
2, 346556, Note_on_c, 0, 83, 0
2, 346568, Note_on_c, 0, 59, 94
2, 346568, Note_on_c, 0, 47, 86
2, 346588, Control_c, 0, 64, 56
2, 346600, Control_c, 0, 64, 127
2, 346608, Note_on_c, 0, 47, 0
2, 346608, Note_on_c, 0, 59, 0
2, 346664, Note_on_c, 0, 60, 97
2, 346668, Note_on_c, 0, 48, 90
2, 346692, Note_on_c, 0, 48, 0
2, 346708, Note_on_c, 0, 60, 0
2, 346752, Note_on_c, 0, 84, 100
2, 346756, Note_on_c, 0, 72, 92
2, 346800, Note_on_c, 0, 72, 0
2, 346804, Note_on_c, 0, 84, 0
2, 346868, Note_on_c, 0, 80, 103
2, 346872, Note_on_c, 0, 68, 92
2, 346916, Control_c, 0, 64, 72
2, 346928, Control_c, 0, 64, 0
2, 346940, Control_c, 0, 64, 24
2, 346952, Note_on_c, 0, 56, 95
2, 346952, Note_on_c, 0, 44, 83
2, 346952, Control_c, 0, 64, 72
2, 346960, Control_c, 0, 64, 127
2, 346988, Note_on_c, 0, 56, 0
2, 346992, Note_on_c, 0, 44, 0
2, 347020, Note_on_c, 0, 68, 0
2, 347052, Note_on_c, 0, 57, 88
2, 347056, Note_on_c, 0, 80, 0
2, 347056, Note_on_c, 0, 45, 80
2, 347080, Note_on_c, 0, 45, 0
2, 347088, Note_on_c, 0, 57, 0
2, 347140, Note_on_c, 0, 81, 97
2, 347144, Note_on_c, 0, 69, 90
2, 347180, Note_on_c, 0, 81, 0
2, 347184, Note_on_c, 0, 69, 0
2, 347248, Note_on_c, 0, 77, 110
2, 347252, Note_on_c, 0, 65, 94
2, 347288, Control_c, 0, 64, 56
2, 347296, Control_c, 0, 64, 0
2, 347340, Note_on_c, 0, 53, 97
2, 347344, Note_on_c, 0, 41, 80
2, 347344, Control_c, 0, 64, 88
2, 347352, Control_c, 0, 64, 127
2, 347360, Note_on_c, 0, 65, 0
2, 347360, Note_on_c, 0, 77, 0
2, 347380, Note_on_c, 0, 53, 0
2, 347380, Note_on_c, 0, 41, 0
2, 347432, Note_on_c, 0, 54, 94
2, 347440, Note_on_c, 0, 42, 81
2, 347472, Note_on_c, 0, 54, 0
2, 347480, Note_on_c, 0, 42, 0
2, 347524, Note_on_c, 0, 78, 93
2, 347528, Note_on_c, 0, 66, 83
2, 347572, Note_on_c, 0, 66, 0
2, 347576, Note_on_c, 0, 78, 0
2, 347644, Note_on_c, 0, 74, 103
2, 347644, Note_on_c, 0, 62, 93
2, 347692, Control_c, 0, 64, 24
2, 347704, Control_c, 0, 64, 0
2, 347724, Note_on_c, 0, 50, 98
2, 347732, Note_on_c, 0, 38, 81
2, 347736, Control_c, 0, 64, 72
2, 347748, Control_c, 0, 64, 127
2, 347760, Note_on_c, 0, 62, 0
2, 347760, Note_on_c, 0, 74, 0
2, 347768, Note_on_c, 0, 50, 0
2, 347768, Note_on_c, 0, 38, 0
2, 347816, Note_on_c, 0, 51, 100
2, 347816, Note_on_c, 0, 39, 81
2, 347856, Note_on_c, 0, 51, 0
2, 347860, Note_on_c, 0, 39, 0
2, 347912, Note_on_c, 0, 75, 95
2, 347916, Note_on_c, 0, 63, 81
2, 347956, Note_on_c, 0, 63, 0
2, 347960, Note_on_c, 0, 75, 0
2, 348016, Note_on_c, 0, 71, 103
2, 348016, Note_on_c, 0, 59, 89
2, 348072, Control_c, 0, 64, 104
2, 348076, Note_on_c, 0, 59, 0
2, 348084, Control_c, 0, 64, 40
2, 348092, Note_on_c, 0, 71, 0
2, 348104, Note_on_c, 0, 35, 82
2, 348104, Note_on_c, 0, 47, 94
2, 348116, Control_c, 0, 64, 127
2, 348140, Note_on_c, 0, 47, 0
2, 348148, Note_on_c, 0, 35, 0
2, 348196, Note_on_c, 0, 48, 101
2, 348196, Note_on_c, 0, 36, 81
2, 348236, Note_on_c, 0, 36, 0
2, 348236, Note_on_c, 0, 48, 0
2, 348288, Note_on_c, 0, 72, 97
2, 348292, Note_on_c, 0, 60, 83
2, 348324, Note_on_c, 0, 72, 0
2, 348340, Note_on_c, 0, 60, 0
2, 348400, Note_on_c, 0, 68, 98
2, 348400, Note_on_c, 0, 56, 89
2, 348420, Control_c, 0, 64, 104
2, 348432, Control_c, 0, 64, 56
2, 348444, Control_c, 0, 64, 72
2, 348456, Control_c, 0, 64, 127
2, 348468, Note_on_c, 0, 44, 97
2, 348468, Note_on_c, 0, 32, 87
2, 348484, Note_on_c, 0, 56, 0
2, 348504, Note_on_c, 0, 44, 0
2, 348508, Note_on_c, 0, 68, 0
2, 348516, Note_on_c, 0, 32, 0
2, 348564, Note_on_c, 0, 45, 101
2, 348576, Note_on_c, 0, 33, 78
2, 348604, Note_on_c, 0, 33, 0
2, 348608, Note_on_c, 0, 45, 0
2, 348660, Note_on_c, 0, 69, 98
2, 348664, Note_on_c, 0, 57, 80
2, 348700, Note_on_c, 0, 57, 0
2, 348704, Note_on_c, 0, 69, 0
2, 348776, Note_on_c, 0, 65, 105
2, 348776, Note_on_c, 0, 53, 89
2, 348800, Control_c, 0, 64, 40
2, 348812, Control_c, 0, 64, 0
2, 348832, Note_on_c, 0, 53, 0
2, 348832, Control_c, 0, 64, 40
2, 348844, Control_c, 0, 64, 127
2, 348848, Note_on_c, 0, 65, 0
2, 348852, Note_on_c, 0, 41, 103
2, 348864, Note_on_c, 0, 29, 97
2, 348892, Note_on_c, 0, 41, 0
2, 348900, Note_on_c, 0, 29, 0
2, 348956, Note_on_c, 0, 42, 102
2, 348964, Note_on_c, 0, 30, 90
2, 348988, Note_on_c, 0, 30, 0
2, 348996, Note_on_c, 0, 42, 0
2, 349052, Note_on_c, 0, 66, 92
2, 349052, Note_on_c, 0, 54, 95
2, 349088, Note_on_c, 0, 54, 0
2, 349100, Note_on_c, 0, 66, 0
2, 349160, Note_on_c, 0, 62, 101
2, 349160, Note_on_c, 0, 50, 98
2, 349192, Control_c, 0, 64, 104
2, 349204, Control_c, 0, 64, 0
2, 349248, Note_on_c, 0, 50, 0
2, 349260, Note_on_c, 0, 38, 96
2, 349264, Note_on_c, 0, 62, 0
2, 349272, Control_c, 0, 64, 72
2, 349284, Control_c, 0, 64, 127
2, 349316, Note_on_c, 0, 38, 0
2, 349348, Note_on_c, 0, 39, 98
2, 349404, Note_on_c, 0, 39, 0
2, 349436, Note_on_c, 0, 63, 100
2, 349440, Note_on_c, 0, 51, 98
2, 349476, Note_on_c, 0, 51, 0
2, 349504, Note_on_c, 0, 63, 0
2, 349540, Note_on_c, 0, 59, 103
2, 349564, Control_c, 0, 64, 88
2, 349576, Control_c, 0, 64, 0
2, 349628, Note_on_c, 0, 35, 80
2, 349632, Note_on_c, 0, 47, 93
2, 349640, Control_c, 0, 64, 72
2, 349652, Control_c, 0, 64, 127
2, 349668, Note_on_c, 0, 35, 0
2, 349672, Note_on_c, 0, 47, 0
2, 349692, Note_on_c, 0, 59, 0
2, 349732, Note_on_c, 0, 48, 97
2, 349736, Note_on_c, 0, 36, 81
2, 349768, Note_on_c, 0, 48, 0
2, 349772, Note_on_c, 0, 36, 0
2, 349816, Note_on_c, 0, 60, 106
2, 349836, Note_on_c, 0, 58, 34
2, 349844, Note_on_c, 0, 54, 29
2, 349864, Note_on_c, 0, 54, 0
2, 349864, Note_on_c, 0, 58, 0
2, 349884, Note_on_c, 0, 60, 0
2, 349924, Note_on_c, 0, 56, 109
2, 349932, Control_c, 0, 64, 56
2, 349944, Control_c, 0, 64, 0
2, 349996, Note_on_c, 0, 32, 86
2, 349996, Note_on_c, 0, 44, 95
2, 350004, Control_c, 0, 64, 56
2, 350012, Control_c, 0, 64, 127
2, 350036, Note_on_c, 0, 44, 0
2, 350048, Note_on_c, 0, 32, 0
2, 350100, Note_on_c, 0, 45, 103
2, 350104, Note_on_c, 0, 33, 82
2, 350112, Note_on_c, 0, 56, 0
2, 350132, Note_on_c, 0, 33, 0
2, 350140, Note_on_c, 0, 45, 0
2, 350192, Note_on_c, 0, 57, 110
2, 350264, Note_on_c, 0, 57, 0
2, 350300, Note_on_c, 0, 53, 103
2, 350304, Control_c, 0, 64, 40
2, 350316, Control_c, 0, 64, 0
2, 350364, Note_on_c, 0, 53, 0
2, 350384, Note_on_c, 0, 41, 93
2, 350384, Control_c, 0, 64, 72
2, 350388, Note_on_c, 0, 29, 79
2, 350392, Control_c, 0, 64, 127
2, 350424, Note_on_c, 0, 41, 0
2, 350436, Note_on_c, 0, 29, 0
2, 350476, Note_on_c, 0, 42, 97
2, 350480, Note_on_c, 0, 30, 82
2, 350512, Note_on_c, 0, 42, 0
2, 350520, Note_on_c, 0, 30, 0
2, 350580, Note_on_c, 0, 54, 104
2, 350604, Note_on_c, 0, 51, 33
2, 350628, Note_on_c, 0, 51, 0
2, 350652, Note_on_c, 0, 54, 0
2, 350676, Control_c, 0, 64, 56
2, 350696, Note_on_c, 0, 50, 118
2, 350708, Note_on_c, 0, 38, 98
2, 350708, Note_on_c, 0, 26, 102
2, 350800, Note_on_c, 0, 50, 0
2, 350964, Note_on_c, 0, 61, 83
2, 350968, Note_on_c, 0, 54, 77
2, 351024, Note_on_c, 0, 61, 0
2, 351032, Note_on_c, 0, 54, 0
2, 351060, Note_on_c, 0, 62, 89
2, 351060, Note_on_c, 0, 57, 80
2, 351092, Note_on_c, 0, 26, 0
2, 351092, Note_on_c, 0, 38, 0
2, 351096, Note_on_c, 0, 57, 0
2, 351108, Note_on_c, 0, 62, 0
2, 351140, Note_on_c, 0, 62, 96
2, 351140, Note_on_c, 0, 57, 74
2, 351208, Note_on_c, 0, 57, 0
2, 351228, Note_on_c, 0, 62, 0
2, 351228, Note_on_c, 0, 63, 97
2, 351236, Note_on_c, 0, 54, 83
2, 351304, Note_on_c, 0, 63, 0
2, 351308, Note_on_c, 0, 54, 0
2, 351324, Note_on_c, 0, 62, 85
2, 351328, Note_on_c, 0, 57, 77
2, 351352, Note_on_c, 0, 57, 0
2, 351368, Note_on_c, 0, 62, 0
2, 351404, Note_on_c, 0, 62, 90
2, 351412, Note_on_c, 0, 57, 72
2, 351472, Note_on_c, 0, 57, 0
2, 351492, Note_on_c, 0, 62, 0
2, 351504, Note_on_c, 0, 61, 85
2, 351504, Note_on_c, 0, 54, 79
2, 351564, Note_on_c, 0, 54, 0
2, 351576, Note_on_c, 0, 61, 0
2, 351592, Note_on_c, 0, 62, 75
2, 351600, Note_on_c, 0, 57, 50
2, 351624, Note_on_c, 0, 57, 0
2, 351640, Note_on_c, 0, 62, 0
2, 351676, Note_on_c, 0, 62, 78
2, 351684, Note_on_c, 0, 57, 56
2, 351760, Note_on_c, 0, 62, 0
2, 351764, Note_on_c, 0, 57, 0
2, 351772, Note_on_c, 0, 63, 101
2, 351776, Note_on_c, 0, 58, 89
2, 351848, Note_on_c, 0, 58, 0
2, 351852, Note_on_c, 0, 63, 0
2, 351868, Note_on_c, 0, 62, 93
2, 351876, Note_on_c, 0, 55, 85
2, 351916, Note_on_c, 0, 55, 0
2, 351920, Note_on_c, 0, 62, 0
2, 351960, Note_on_c, 0, 62, 83
2, 351960, Note_on_c, 0, 55, 72
2, 352036, Note_on_c, 0, 55, 0
2, 352052, Note_on_c, 0, 62, 0
2, 352052, Note_on_c, 0, 61, 83
2, 352052, Note_on_c, 0, 58, 79
2, 352112, Note_on_c, 0, 58, 0
2, 352116, Note_on_c, 0, 61, 0
2, 352140, Note_on_c, 0, 62, 79
2, 352144, Note_on_c, 0, 55, 78
2, 352188, Note_on_c, 0, 55, 0
2, 352188, Note_on_c, 0, 62, 0
2, 352240, Note_on_c, 0, 62, 71
2, 352240, Note_on_c, 0, 55, 73
2, 352304, Note_on_c, 0, 55, 0
2, 352316, Note_on_c, 0, 62, 0
2, 352332, Note_on_c, 0, 64, 102
2, 352332, Note_on_c, 0, 56, 81
2, 352336, Note_on_c, 0, 60, 94
2, 352372, Note_on_c, 0, 56, 0
2, 352396, Note_on_c, 0, 60, 0
2, 352396, Note_on_c, 0, 64, 0
2, 352432, Note_on_c, 0, 62, 89
2, 352440, Note_on_c, 0, 59, 60
2, 352464, Note_on_c, 0, 59, 0
2, 352480, Note_on_c, 0, 62, 0
2, 352520, Note_on_c, 0, 62, 75
2, 352528, Note_on_c, 0, 59, 67
2, 352584, Note_on_c, 0, 59, 0
2, 352604, Note_on_c, 0, 62, 0
2, 352612, Note_on_c, 0, 65, 100
2, 352612, Note_on_c, 0, 56, 81
2, 352616, Note_on_c, 0, 60, 83
2, 352652, Note_on_c, 0, 56, 0
2, 352668, Note_on_c, 0, 60, 0
2, 352676, Note_on_c, 0, 65, 0
2, 352700, Note_on_c, 0, 62, 85
2, 352704, Note_on_c, 0, 59, 72
2, 352724, Note_on_c, 0, 59, 0
2, 352744, Note_on_c, 0, 62, 0
2, 352784, Note_on_c, 0, 62, 81
2, 352796, Note_on_c, 0, 59, 77
2, 352844, Note_on_c, 0, 59, 0
2, 352864, Note_on_c, 0, 62, 0
2, 352884, Note_on_c, 0, 66, 103
2, 352892, Note_on_c, 0, 57, 85
2, 352892, Note_on_c, 0, 63, 83
2, 352976, Note_on_c, 0, 63, 0
2, 352980, Note_on_c, 0, 62, 93
2, 352984, Note_on_c, 0, 66, 0
2, 352988, Note_on_c, 0, 57, 0
2, 352988, Note_on_c, 0, 60, 83
2, 353008, Note_on_c, 0, 60, 0
2, 353024, Note_on_c, 0, 62, 0
2, 353068, Note_on_c, 0, 62, 82
2, 353080, Note_on_c, 0, 60, 72
2, 353132, Note_on_c, 0, 60, 0
2, 353152, Note_on_c, 0, 62, 0
2, 353156, Note_on_c, 0, 61, 83
2, 353224, Note_on_c, 0, 61, 0
2, 353236, Note_on_c, 0, 62, 80
2, 353252, Note_on_c, 0, 60, 65
2, 353272, Note_on_c, 0, 60, 0
2, 353288, Note_on_c, 0, 62, 0
2, 353332, Note_on_c, 0, 62, 85
2, 353348, Note_on_c, 0, 60, 81
2, 353396, Note_on_c, 0, 60, 0
2, 353420, Note_on_c, 0, 62, 0
2, 353428, Note_on_c, 0, 63, 83
2, 353428, Note_on_c, 0, 66, 88
2, 353432, Note_on_c, 0, 57, 75
2, 353492, Note_on_c, 0, 57, 0
2, 353492, Note_on_c, 0, 63, 0
2, 353500, Note_on_c, 0, 66, 0
2, 353508, Note_on_c, 0, 62, 88
2, 353516, Note_on_c, 0, 60, 79
2, 353548, Note_on_c, 0, 60, 0
2, 353564, Note_on_c, 0, 62, 0
2, 353604, Note_on_c, 0, 62, 85
2, 353612, Note_on_c, 0, 60, 75
2, 353660, Note_on_c, 0, 60, 0
2, 353684, Note_on_c, 0, 62, 0
2, 353696, Note_on_c, 0, 61, 90
2, 353764, Note_on_c, 0, 61, 0
2, 353768, Note_on_c, 0, 62, 87
2, 353776, Note_on_c, 0, 60, 78
2, 353800, Note_on_c, 0, 60, 0
2, 353820, Note_on_c, 0, 62, 0
2, 353864, Note_on_c, 0, 62, 81
2, 353876, Note_on_c, 0, 60, 85
2, 353924, Note_on_c, 0, 60, 0
2, 353952, Note_on_c, 0, 62, 0
2, 353972, Note_on_c, 0, 66, 95
2, 353972, Note_on_c, 0, 63, 79
2, 353976, Note_on_c, 0, 57, 70
2, 354032, Note_on_c, 0, 57, 0
2, 354032, Note_on_c, 0, 63, 0
2, 354044, Note_on_c, 0, 66, 0
2, 354060, Note_on_c, 0, 62, 85
2, 354064, Note_on_c, 0, 60, 78
2, 354088, Note_on_c, 0, 60, 0
2, 354108, Note_on_c, 0, 62, 0
2, 354148, Note_on_c, 0, 62, 81
2, 354160, Note_on_c, 0, 60, 79
2, 354208, Note_on_c, 0, 60, 0
2, 354232, Note_on_c, 0, 62, 0
2, 354236, Note_on_c, 0, 61, 92
2, 354300, Note_on_c, 0, 61, 0
2, 354328, Note_on_c, 0, 62, 88
2, 354364, Note_on_c, 0, 62, 0
2, 354424, Note_on_c, 0, 62, 81
2, 354488, Note_on_c, 0, 62, 0
2, 354504, Note_on_c, 0, 63, 96
2, 354556, Note_on_c, 0, 63, 0
2, 354592, Note_on_c, 0, 62, 86
2, 354636, Note_on_c, 0, 62, 0
2, 354684, Note_on_c, 0, 62, 73
2, 354756, Note_on_c, 0, 62, 0
2, 354768, Note_on_c, 0, 61, 83
2, 354824, Note_on_c, 0, 61, 0
2, 354856, Note_on_c, 0, 62, 90
2, 354904, Note_on_c, 0, 62, 0
2, 354952, Note_on_c, 0, 62, 67
2, 355020, Note_on_c, 0, 62, 0
2, 355044, Note_on_c, 0, 63, 93
2, 355092, Note_on_c, 0, 63, 0
2, 355124, Note_on_c, 0, 62, 90
2, 355168, Note_on_c, 0, 62, 0
2, 355220, Note_on_c, 0, 62, 70
2, 355288, Note_on_c, 0, 62, 0
2, 355312, Note_on_c, 0, 61, 82
2, 355368, Note_on_c, 0, 61, 0
2, 355400, Note_on_c, 0, 62, 86
2, 355448, Note_on_c, 0, 62, 0
2, 355504, Note_on_c, 0, 62, 78
2, 355568, Note_on_c, 0, 62, 0
2, 355604, Note_on_c, 0, 64, 100
2, 355664, Note_on_c, 0, 64, 0
2, 355700, Note_on_c, 0, 62, 87
2, 355744, Note_on_c, 0, 62, 0
2, 355804, Note_on_c, 0, 62, 80
2, 355868, Note_on_c, 0, 62, 0
2, 355912, Note_on_c, 0, 61, 72
2, 355964, Note_on_c, 0, 61, 0
2, 356020, Note_on_c, 0, 62, 82
2, 356064, Note_on_c, 0, 62, 0
2, 356128, Note_on_c, 0, 62, 78
2, 356160, Control_c, 0, 64, 0
2, 356172, Note_on_c, 0, 62, 0
2, 356260, Note_on_c, 0, 59, 69
2, 356260, Note_on_c, 0, 62, 71
2, 356260, Note_on_c, 0, 67, 73
2, 356276, Note_on_c, 0, 62, 0
2, 356276, Note_on_c, 0, 59, 0
2, 356296, Note_on_c, 0, 67, 0
2, 356364, Note_on_c, 0, 61, 56
2, 356372, Note_on_c, 0, 55, 54
2, 356396, Note_on_c, 0, 61, 0
2, 356396, Note_on_c, 0, 62, 79
2, 356416, Note_on_c, 0, 55, 0
2, 356432, Note_on_c, 0, 62, 0
2, 356492, Note_on_c, 0, 69, 87
2, 356496, Note_on_c, 0, 62, 62
2, 356496, Note_on_c, 0, 66, 56
2, 356516, Note_on_c, 0, 62, 0
2, 356520, Note_on_c, 0, 66, 0
2, 356540, Note_on_c, 0, 69, 0
2, 356600, Note_on_c, 0, 71, 82
2, 356600, Note_on_c, 0, 67, 74
2, 356604, Note_on_c, 0, 62, 69
2, 356620, Note_on_c, 0, 62, 0
2, 356636, Note_on_c, 0, 67, 0
2, 356644, Note_on_c, 0, 71, 0
2, 356684, Note_on_c, 0, 55, 63
2, 356688, Note_on_c, 0, 61, 62
2, 356716, Note_on_c, 0, 62, 74
2, 356720, Note_on_c, 0, 61, 0
2, 356724, Note_on_c, 0, 55, 0
2, 356744, Note_on_c, 0, 62, 0
2, 356812, Note_on_c, 0, 72, 82
2, 356812, Note_on_c, 0, 67, 69
2, 356812, Note_on_c, 0, 69, 69
2, 356836, Note_on_c, 0, 69, 0
2, 356840, Note_on_c, 0, 67, 0
2, 356848, Note_on_c, 0, 72, 0
2, 356912, Note_on_c, 0, 74, 90
2, 356916, Note_on_c, 0, 71, 73
2, 356920, Note_on_c, 0, 67, 66
2, 356944, Note_on_c, 0, 67, 0
2, 356948, Note_on_c, 0, 71, 0
2, 356952, Note_on_c, 0, 74, 0
2, 356988, Note_on_c, 0, 55, 46
2, 357000, Note_on_c, 0, 61, 51
2, 357028, Note_on_c, 0, 61, 0
2, 357032, Note_on_c, 0, 62, 67
2, 357040, Note_on_c, 0, 55, 0
2, 357052, Note_on_c, 0, 62, 0
2, 357124, Note_on_c, 0, 74, 83
2, 357128, Note_on_c, 0, 67, 66
2, 357128, Note_on_c, 0, 71, 71
2, 357156, Note_on_c, 0, 71, 0
2, 357160, Note_on_c, 0, 67, 0
2, 357168, Note_on_c, 0, 74, 0
2, 357232, Note_on_c, 0, 76, 93
2, 357232, Note_on_c, 0, 72, 83
2, 357236, Note_on_c, 0, 67, 72
2, 357264, Note_on_c, 0, 67, 0
2, 357268, Note_on_c, 0, 72, 0
2, 357268, Note_on_c, 0, 76, 0
2, 357316, Note_on_c, 0, 55, 63
2, 357324, Note_on_c, 0, 61, 73
2, 357352, Note_on_c, 0, 61, 0
2, 357356, Note_on_c, 0, 55, 0
2, 357356, Note_on_c, 0, 62, 75
2, 357372, Note_on_c, 0, 62, 0
2, 357448, Note_on_c, 0, 74, 87
2, 357448, Note_on_c, 0, 66, 65
2, 357452, Note_on_c, 0, 71, 69
2, 357480, Note_on_c, 0, 66, 0
2, 357484, Note_on_c, 0, 74, 0
2, 357488, Note_on_c, 0, 71, 0
2, 357556, Note_on_c, 0, 74, 87
2, 357560, Note_on_c, 0, 71, 73
2, 357560, Note_on_c, 0, 66, 65
2, 357596, Note_on_c, 0, 66, 0
2, 357596, Note_on_c, 0, 74, 0
2, 357600, Note_on_c, 0, 71, 0
2, 357644, Note_on_c, 0, 55, 51
2, 357652, Note_on_c, 0, 61, 64
2, 357680, Note_on_c, 0, 61, 0
2, 357684, Note_on_c, 0, 62, 65
2, 357688, Note_on_c, 0, 55, 0
2, 357700, Note_on_c, 0, 62, 0
2, 357764, Note_on_c, 0, 73, 82
2, 357768, Note_on_c, 0, 70, 69
2, 357772, Note_on_c, 0, 64, 66
2, 357780, Note_on_c, 0, 66, 32
2, 357792, Note_on_c, 0, 64, 0
2, 357796, Note_on_c, 0, 66, 0
2, 357812, Note_on_c, 0, 70, 0
2, 357812, Note_on_c, 0, 73, 0
2, 357864, Note_on_c, 0, 72, 97
2, 357872, Note_on_c, 0, 66, 71
2, 357876, Note_on_c, 0, 69, 60
2, 357904, Note_on_c, 0, 66, 0
2, 357908, Note_on_c, 0, 69, 0
2, 357912, Note_on_c, 0, 72, 0
2, 357984, Note_on_c, 0, 61, 70
2, 357988, Note_on_c, 0, 55, 63
2, 358020, Note_on_c, 0, 61, 0
2, 358024, Note_on_c, 0, 62, 71
2, 358036, Note_on_c, 0, 55, 0
2, 358060, Note_on_c, 0, 62, 0
2, 358068, Note_on_c, 0, 71, 90
2, 358076, Note_on_c, 0, 67, 67
2, 358088, Note_on_c, 0, 67, 0
2, 358112, Note_on_c, 0, 71, 0
2, 358180, Note_on_c, 0, 66, 72
2, 358180, Note_on_c, 0, 69, 79
2, 358216, Note_on_c, 0, 66, 0
2, 358220, Note_on_c, 0, 69, 0
2, 358252, Note_on_c, 0, 61, 46
2, 358260, Note_on_c, 0, 55, 35
2, 358284, Note_on_c, 0, 61, 0
2, 358288, Note_on_c, 0, 62, 78
2, 358296, Note_on_c, 0, 55, 0
2, 358312, Note_on_c, 0, 62, 0
2, 358376, Note_on_c, 0, 62, 92
2, 358424, Note_on_c, 0, 62, 0
2, 358476, Note_on_c, 0, 63, 96
2, 358516, Note_on_c, 0, 63, 0
2, 358552, Note_on_c, 0, 61, 63
2, 358552, Note_on_c, 0, 55, 49
2, 358584, Note_on_c, 0, 61, 0
2, 358588, Note_on_c, 0, 62, 80
2, 358592, Note_on_c, 0, 55, 0
2, 358604, Note_on_c, 0, 62, 0
2, 358676, Note_on_c, 0, 62, 92
2, 358720, Note_on_c, 0, 62, 0
2, 358780, Note_on_c, 0, 62, 73
2, 358780, Note_on_c, 0, 66, 83
2, 358796, Note_on_c, 0, 62, 0
2, 358816, Note_on_c, 0, 66, 0
2, 358860, Note_on_c, 0, 61, 67
2, 358860, Note_on_c, 0, 55, 52
2, 358884, Note_on_c, 0, 55, 0
2, 358896, Note_on_c, 0, 61, 0
2, 358896, Note_on_c, 0, 62, 77
2, 358912, Note_on_c, 0, 62, 0
2, 358976, Note_on_c, 0, 69, 85
2, 358976, Note_on_c, 0, 66, 63
2, 359012, Note_on_c, 0, 66, 0
2, 359024, Note_on_c, 0, 69, 0
2, 359080, Note_on_c, 0, 76, 89
2, 359084, Note_on_c, 0, 66, 74
2, 359084, Note_on_c, 0, 72, 83
2, 359116, Note_on_c, 0, 76, 0
2, 359120, Note_on_c, 0, 66, 0
2, 359128, Note_on_c, 0, 72, 0
2, 359160, Note_on_c, 0, 55, 62
2, 359160, Note_on_c, 0, 61, 64
2, 359192, Note_on_c, 0, 61, 0
2, 359196, Note_on_c, 0, 55, 0
2, 359196, Note_on_c, 0, 62, 64
2, 359212, Note_on_c, 0, 62, 0
2, 359284, Note_on_c, 0, 74, 86
2, 359288, Note_on_c, 0, 66, 69
2, 359292, Note_on_c, 0, 71, 71
2, 359324, Note_on_c, 0, 66, 0
2, 359324, Note_on_c, 0, 74, 0
2, 359332, Note_on_c, 0, 71, 0
2, 359392, Note_on_c, 0, 74, 97
2, 359392, Note_on_c, 0, 71, 78
2, 359396, Note_on_c, 0, 65, 73
2, 359428, Note_on_c, 0, 65, 0
2, 359436, Note_on_c, 0, 71, 0
2, 359436, Note_on_c, 0, 74, 0
2, 359468, Note_on_c, 0, 61, 51
2, 359480, Note_on_c, 0, 55, 40
2, 359504, Note_on_c, 0, 61, 0
2, 359504, Note_on_c, 0, 62, 74
2, 359512, Note_on_c, 0, 55, 0
2, 359520, Note_on_c, 0, 62, 0
2, 359600, Note_on_c, 0, 71, 87
2, 359608, Note_on_c, 0, 65, 71
2, 359608, Note_on_c, 0, 67, 72
2, 359616, Note_on_c, 0, 70, 37
2, 359628, Note_on_c, 0, 70, 0
2, 359628, Note_on_c, 0, 67, 0
2, 359632, Note_on_c, 0, 65, 0
2, 359648, Note_on_c, 0, 71, 0
2, 359704, Note_on_c, 0, 72, 96
2, 359708, Note_on_c, 0, 67, 74
2, 359708, Note_on_c, 0, 64, 71
2, 359728, Note_on_c, 0, 67, 0
2, 359736, Note_on_c, 0, 64, 0
2, 359744, Note_on_c, 0, 72, 0
2, 359768, Note_on_c, 0, 55, 56
2, 359792, Note_on_c, 0, 59, 50
2, 359824, Note_on_c, 0, 60, 73
2, 359832, Note_on_c, 0, 59, 0
2, 359840, Note_on_c, 0, 55, 0
2, 359856, Note_on_c, 0, 60, 0
2, 359920, Note_on_c, 0, 69, 89
2, 359920, Note_on_c, 0, 60, 71
2, 359924, Note_on_c, 0, 63, 62
2, 359960, Note_on_c, 0, 60, 0
2, 359964, Note_on_c, 0, 63, 0
2, 359964, Note_on_c, 0, 69, 0
2, 360012, Note_on_c, 0, 67, 83
2, 360020, Note_on_c, 0, 62, 74
2, 360020, Note_on_c, 0, 59, 67
2, 360044, Note_on_c, 0, 59, 0
2, 360044, Note_on_c, 0, 62, 0
2, 360060, Note_on_c, 0, 67, 0
2, 360084, Note_on_c, 0, 49, 55
2, 360128, Note_on_c, 0, 49, 0
2, 360128, Note_on_c, 0, 50, 74
2, 360148, Note_on_c, 0, 50, 0
2, 360224, Note_on_c, 0, 59, 69
2, 360228, Note_on_c, 0, 62, 80
2, 360248, Note_on_c, 0, 59, 0
2, 360252, Note_on_c, 0, 62, 0
2, 360336, Note_on_c, 0, 62, 74
2, 360336, Note_on_c, 0, 71, 87
2, 360376, Note_on_c, 0, 62, 0
2, 360380, Note_on_c, 0, 71, 0
2, 360400, Note_on_c, 0, 61, 56
2, 360444, Note_on_c, 0, 61, 0
2, 360444, Note_on_c, 0, 62, 72
2, 360476, Note_on_c, 0, 62, 0
2, 360544, Note_on_c, 0, 69, 92
2, 360544, Note_on_c, 0, 60, 82
2, 360544, Note_on_c, 0, 66, 65
2, 360576, Note_on_c, 0, 60, 0
2, 360576, Note_on_c, 0, 69, 0
2, 360584, Note_on_c, 0, 66, 0
2, 360640, Note_on_c, 0, 67, 78
2, 360640, Note_on_c, 0, 62, 70
2, 360640, Note_on_c, 0, 59, 66
2, 360684, Note_on_c, 0, 59, 0
2, 360684, Note_on_c, 0, 62, 0
2, 360688, Note_on_c, 0, 67, 0
2, 360696, Note_on_c, 0, 54, 60
2, 360748, Note_on_c, 0, 54, 0
2, 360752, Note_on_c, 0, 55, 67
2, 360768, Note_on_c, 0, 55, 0
2, 360840, Note_on_c, 0, 59, 70
2, 360844, Note_on_c, 0, 62, 78
2, 360876, Note_on_c, 0, 62, 0
2, 360876, Note_on_c, 0, 59, 0
2, 360936, Note_on_c, 0, 67, 92
2, 360940, Note_on_c, 0, 59, 73
2, 360944, Note_on_c, 0, 62, 56
2, 360964, Note_on_c, 0, 62, 0
2, 360968, Note_on_c, 0, 59, 0
2, 360992, Note_on_c, 0, 67, 0
2, 361004, Note_on_c, 0, 58, 60
2, 361040, Note_on_c, 0, 58, 0
2, 361040, Note_on_c, 0, 59, 94
2, 361064, Note_on_c, 0, 59, 0
2, 361136, Note_on_c, 0, 67, 85
2, 361136, Note_on_c, 0, 62, 73
2, 361168, Note_on_c, 0, 62, 0
2, 361172, Note_on_c, 0, 67, 0
2, 361232, Note_on_c, 0, 71, 89
2, 361232, Note_on_c, 0, 62, 73
2, 361236, Note_on_c, 0, 67, 77
2, 361252, Note_on_c, 0, 62, 0
2, 361256, Note_on_c, 0, 67, 0
2, 361284, Note_on_c, 0, 71, 0
2, 361288, Note_on_c, 0, 61, 58
2, 361332, Note_on_c, 0, 62, 85
2, 361336, Note_on_c, 0, 61, 0
2, 361352, Note_on_c, 0, 62, 0
2, 361432, Note_on_c, 0, 67, 75
2, 361436, Note_on_c, 0, 71, 78
2, 361472, Note_on_c, 0, 67, 0
2, 361476, Note_on_c, 0, 71, 0
2, 361532, Note_on_c, 0, 67, 67
2, 361536, Note_on_c, 0, 74, 81
2, 361536, Note_on_c, 0, 71, 75
2, 361552, Note_on_c, 0, 71, 0
2, 361556, Note_on_c, 0, 67, 0
2, 361584, Note_on_c, 0, 74, 0
2, 361592, Note_on_c, 0, 66, 44
2, 361648, Note_on_c, 0, 67, 78
2, 361652, Note_on_c, 0, 66, 0
2, 361676, Note_on_c, 0, 67, 0
2, 361748, Note_on_c, 0, 74, 83
2, 361748, Note_on_c, 0, 71, 71
2, 361784, Note_on_c, 0, 71, 0
2, 361788, Note_on_c, 0, 74, 0
2, 361848, Note_on_c, 0, 71, 69
2, 361852, Note_on_c, 0, 79, 94
2, 361860, Note_on_c, 0, 74, 52
2, 361872, Note_on_c, 0, 71, 0
2, 361876, Note_on_c, 0, 74, 0
2, 361900, Note_on_c, 0, 79, 0
2, 361932, Note_on_c, 0, 67, 51
2, 361956, Note_on_c, 0, 73, 69
2, 361988, Note_on_c, 0, 74, 85
2, 362000, Note_on_c, 0, 73, 0
2, 362000, Note_on_c, 0, 67, 0
2, 362016, Note_on_c, 0, 74, 0
2, 362064, Note_on_c, 0, 81, 75
2, 362072, Note_on_c, 0, 78, 52
2, 362072, Note_on_c, 0, 74, 59
2, 362092, Note_on_c, 0, 74, 0
2, 362100, Note_on_c, 0, 78, 0
2, 362116, Note_on_c, 0, 81, 0
2, 362168, Note_on_c, 0, 83, 87
2, 362172, Note_on_c, 0, 79, 80
2, 362176, Note_on_c, 0, 74, 60
2, 362192, Note_on_c, 0, 74, 0
2, 362204, Note_on_c, 0, 79, 0
2, 362216, Note_on_c, 0, 83, 0
2, 362244, Note_on_c, 0, 55, 63
2, 362252, Note_on_c, 0, 61, 62
2, 362284, Note_on_c, 0, 61, 0
2, 362284, Note_on_c, 0, 62, 88
2, 362292, Note_on_c, 0, 55, 0
2, 362312, Note_on_c, 0, 62, 0
2, 362380, Note_on_c, 0, 84, 87
2, 362384, Note_on_c, 0, 79, 72
2, 362388, Note_on_c, 0, 81, 71
2, 362404, Note_on_c, 0, 81, 0
2, 362412, Note_on_c, 0, 79, 0
2, 362432, Note_on_c, 0, 84, 0
2, 362480, Note_on_c, 0, 86, 94
2, 362484, Note_on_c, 0, 83, 80
2, 362488, Note_on_c, 0, 79, 73
2, 362512, Note_on_c, 0, 79, 0
2, 362520, Note_on_c, 0, 83, 0
2, 362536, Note_on_c, 0, 86, 0
2, 362564, Note_on_c, 0, 67, 59
2, 362572, Note_on_c, 0, 73, 66
2, 362608, Note_on_c, 0, 73, 0
2, 362608, Note_on_c, 0, 74, 77
2, 362616, Note_on_c, 0, 67, 0
2, 362628, Note_on_c, 0, 74, 0
2, 362692, Note_on_c, 0, 86, 80
2, 362696, Note_on_c, 0, 83, 73
2, 362700, Note_on_c, 0, 79, 50
2, 362720, Note_on_c, 0, 79, 0
2, 362724, Note_on_c, 0, 83, 0
2, 362740, Note_on_c, 0, 86, 0
2, 362792, Note_on_c, 0, 88, 90
2, 362800, Note_on_c, 0, 79, 80
2, 362800, Note_on_c, 0, 86, 79
2, 362812, Note_on_c, 0, 84, 65
2, 362824, Note_on_c, 0, 84, 0
2, 362824, Note_on_c, 0, 86, 0
2, 362836, Note_on_c, 0, 79, 0
2, 362856, Note_on_c, 0, 88, 0
2, 362880, Note_on_c, 0, 61, 52
2, 362884, Note_on_c, 0, 55, 72
2, 362904, Note_on_c, 0, 62, 69
2, 362916, Note_on_c, 0, 55, 0
2, 362920, Note_on_c, 0, 61, 0
2, 362928, Note_on_c, 0, 62, 0
2, 363004, Note_on_c, 0, 86, 93
2, 363004, Note_on_c, 0, 78, 74
2, 363008, Note_on_c, 0, 83, 75
2, 363036, Note_on_c, 0, 78, 0
2, 363036, Note_on_c, 0, 86, 0
2, 363048, Note_on_c, 0, 83, 0
2, 363100, Note_on_c, 0, 86, 90
2, 363100, Note_on_c, 0, 78, 77
2, 363108, Note_on_c, 0, 83, 78
2, 363136, Note_on_c, 0, 78, 0
2, 363144, Note_on_c, 0, 83, 0
2, 363144, Note_on_c, 0, 86, 0
2, 363172, Note_on_c, 0, 67, 50
2, 363184, Note_on_c, 0, 73, 67
2, 363224, Note_on_c, 0, 74, 75
2, 363232, Note_on_c, 0, 73, 0
2, 363236, Note_on_c, 0, 67, 0
2, 363248, Note_on_c, 0, 74, 0
2, 363304, Note_on_c, 0, 85, 79
2, 363308, Note_on_c, 0, 82, 71
2, 363316, Note_on_c, 0, 76, 50
2, 363320, Note_on_c, 0, 78, 37
2, 363340, Note_on_c, 0, 78, 0
2, 363340, Note_on_c, 0, 76, 0
2, 363356, Note_on_c, 0, 85, 0
2, 363360, Note_on_c, 0, 82, 0
2, 363404, Note_on_c, 0, 84, 94
2, 363412, Note_on_c, 0, 81, 70
2, 363452, Note_on_c, 0, 81, 0
2, 363460, Note_on_c, 0, 84, 0
2, 363504, Note_on_c, 0, 55, 69
2, 363504, Note_on_c, 0, 61, 72
2, 363544, Note_on_c, 0, 61, 0
2, 363572, Note_on_c, 0, 62, 24
2, 363580, Note_on_c, 0, 55, 0
2, 363608, Note_on_c, 0, 83, 86
2, 363608, Note_on_c, 0, 79, 80
2, 363616, Note_on_c, 0, 62, 0
2, 363644, Note_on_c, 0, 79, 0
2, 363656, Note_on_c, 0, 83, 0
2, 363712, Note_on_c, 0, 81, 85
2, 363712, Note_on_c, 0, 78, 74
2, 363744, Note_on_c, 0, 78, 0
2, 363752, Note_on_c, 0, 81, 0
2, 363780, Note_on_c, 0, 73, 60
2, 363780, Note_on_c, 0, 67, 47
2, 363816, Note_on_c, 0, 73, 0
2, 363824, Note_on_c, 0, 74, 86
2, 363840, Note_on_c, 0, 67, 0
2, 363852, Note_on_c, 0, 74, 0
2, 363916, Note_on_c, 0, 74, 89
2, 363964, Note_on_c, 0, 74, 0
2, 364016, Note_on_c, 0, 75, 88
2, 364064, Note_on_c, 0, 75, 0
2, 364096, Note_on_c, 0, 61, 63
2, 364100, Note_on_c, 0, 55, 54
2, 364124, Note_on_c, 0, 62, 86
2, 364132, Note_on_c, 0, 61, 0
2, 364136, Note_on_c, 0, 55, 0
2, 364152, Note_on_c, 0, 62, 0
2, 364220, Note_on_c, 0, 74, 85
2, 364268, Note_on_c, 0, 74, 0
2, 364312, Note_on_c, 0, 78, 88
2, 364356, Note_on_c, 0, 78, 0
2, 364392, Note_on_c, 0, 67, 46
2, 364400, Note_on_c, 0, 73, 57
2, 364440, Note_on_c, 0, 73, 0
2, 364440, Note_on_c, 0, 74, 80
2, 364448, Note_on_c, 0, 67, 0
2, 364452, Note_on_c, 0, 74, 0
2, 364520, Note_on_c, 0, 81, 85
2, 364520, Note_on_c, 0, 78, 71
2, 364552, Note_on_c, 0, 78, 0
2, 364568, Note_on_c, 0, 81, 0
2, 364616, Note_on_c, 0, 88, 88
2, 364620, Note_on_c, 0, 78, 77
2, 364624, Note_on_c, 0, 84, 79
2, 364664, Note_on_c, 0, 78, 0
2, 364664, Note_on_c, 0, 88, 0
2, 364668, Note_on_c, 0, 84, 0
2, 364700, Note_on_c, 0, 61, 63
2, 364704, Note_on_c, 0, 55, 51
2, 364728, Note_on_c, 0, 62, 67
2, 364736, Note_on_c, 0, 55, 0
2, 364736, Note_on_c, 0, 61, 0
2, 364744, Note_on_c, 0, 62, 0
2, 364808, Note_on_c, 0, 86, 93
2, 364808, Note_on_c, 0, 78, 79
2, 364812, Note_on_c, 0, 83, 74
2, 364840, Note_on_c, 0, 78, 0
2, 364848, Note_on_c, 0, 83, 0
2, 364848, Note_on_c, 0, 86, 0
2, 364908, Note_on_c, 0, 86, 92
2, 364916, Note_on_c, 0, 83, 72
2, 364920, Note_on_c, 0, 77, 62
2, 364940, Note_on_c, 0, 77, 0
2, 364948, Note_on_c, 0, 83, 0
2, 364956, Note_on_c, 0, 86, 0
2, 364984, Note_on_c, 0, 73, 60
2, 364992, Note_on_c, 0, 67, 33
2, 365028, Note_on_c, 0, 74, 81
2, 365040, Note_on_c, 0, 73, 0
2, 365052, Note_on_c, 0, 74, 0
2, 365056, Note_on_c, 0, 67, 0
2, 365116, Note_on_c, 0, 83, 90
2, 365120, Note_on_c, 0, 79, 80
2, 365156, Note_on_c, 0, 79, 0
2, 365168, Note_on_c, 0, 83, 0
2, 365208, Note_on_c, 0, 84, 86
2, 365216, Note_on_c, 0, 79, 66
2, 365228, Note_on_c, 0, 76, 31
2, 365236, Note_on_c, 0, 79, 0
2, 365240, Note_on_c, 0, 76, 0
2, 365256, Note_on_c, 0, 84, 0
2, 365260, Note_on_c, 0, 67, 50
2, 365280, Note_on_c, 0, 71, 50
2, 365324, Note_on_c, 0, 72, 81
2, 365336, Note_on_c, 0, 71, 0
2, 365352, Note_on_c, 0, 67, 0
2, 365356, Note_on_c, 0, 72, 0
2, 365424, Note_on_c, 0, 81, 85
2, 365432, Note_on_c, 0, 72, 75
2, 365432, Note_on_c, 0, 76, 70
2, 365448, Note_on_c, 0, 76, 0
2, 365456, Note_on_c, 0, 72, 0
2, 365460, Note_on_c, 0, 81, 0
2, 365528, Note_on_c, 0, 79, 88
2, 365532, Note_on_c, 0, 71, 67
2, 365536, Note_on_c, 0, 74, 67
2, 365572, Note_on_c, 0, 74, 0
2, 365572, Note_on_c, 0, 71, 0
2, 365572, Note_on_c, 0, 61, 55
2, 365580, Note_on_c, 0, 79, 0
2, 365632, Note_on_c, 0, 62, 74
2, 365640, Note_on_c, 0, 61, 0
2, 365652, Note_on_c, 0, 62, 0
2, 365732, Note_on_c, 0, 74, 81
2, 365736, Note_on_c, 0, 71, 58
2, 365756, Note_on_c, 0, 71, 0
2, 365764, Note_on_c, 0, 74, 0
2, 365836, Note_on_c, 0, 83, 94
2, 365836, Note_on_c, 0, 74, 82
2, 365836, Note_on_c, 0, 78, 74
2, 365864, Note_on_c, 0, 74, 0
2, 365868, Note_on_c, 0, 83, 0
2, 365872, Note_on_c, 0, 78, 0
2, 365908, Note_on_c, 0, 73, 69
2, 365952, Note_on_c, 0, 73, 0
2, 365956, Note_on_c, 0, 74, 83
2, 365980, Note_on_c, 0, 74, 0
2, 366044, Note_on_c, 0, 81, 82
2, 366048, Note_on_c, 0, 78, 69
2, 366052, Note_on_c, 0, 72, 75
2, 366088, Note_on_c, 0, 72, 0
2, 366088, Note_on_c, 0, 81, 0
2, 366092, Note_on_c, 0, 78, 0
2, 366144, Note_on_c, 0, 79, 78
2, 366148, Note_on_c, 0, 71, 64
2, 366152, Note_on_c, 0, 74, 70
2, 366192, Note_on_c, 0, 74, 0
2, 366208, Note_on_c, 0, 71, 0
2, 366212, Note_on_c, 0, 79, 0
2, 366216, Note_on_c, 0, 66, 63
2, 366256, Note_on_c, 0, 67, 67
2, 366260, Note_on_c, 0, 66, 0
2, 366280, Note_on_c, 0, 67, 0
2, 366344, Note_on_c, 0, 74, 81
2, 366344, Note_on_c, 0, 71, 63
2, 366380, Note_on_c, 0, 71, 0
2, 366380, Note_on_c, 0, 74, 0
2, 366440, Note_on_c, 0, 79, 92
2, 366444, Note_on_c, 0, 71, 72
2, 366452, Note_on_c, 0, 74, 72
2, 366464, Note_on_c, 0, 74, 0
2, 366476, Note_on_c, 0, 71, 0
2, 366500, Note_on_c, 0, 79, 0
2, 366520, Note_on_c, 0, 70, 69
2, 366560, Note_on_c, 0, 70, 0
2, 366564, Note_on_c, 0, 71, 77
2, 366588, Note_on_c, 0, 71, 0
2, 366644, Note_on_c, 0, 79, 90
2, 366644, Note_on_c, 0, 74, 69
2, 366676, Note_on_c, 0, 74, 0
2, 366680, Note_on_c, 0, 79, 0
2, 366740, Note_on_c, 0, 83, 96
2, 366744, Note_on_c, 0, 74, 69
2, 366744, Note_on_c, 0, 79, 72
2, 366760, Note_on_c, 0, 79, 0
2, 366764, Note_on_c, 0, 74, 0
2, 366796, Note_on_c, 0, 83, 0
2, 366812, Note_on_c, 0, 73, 67
2, 366848, Note_on_c, 0, 73, 0
2, 366848, Note_on_c, 0, 74, 94
2, 366880, Note_on_c, 0, 74, 0
2, 366948, Note_on_c, 0, 83, 85
2, 366948, Note_on_c, 0, 79, 74
2, 366984, Note_on_c, 0, 79, 0
2, 366988, Note_on_c, 0, 83, 0
2, 367044, Note_on_c, 0, 86, 90
2, 367048, Note_on_c, 0, 79, 70
2, 367048, Note_on_c, 0, 83, 72
2, 367064, Note_on_c, 0, 83, 0
2, 367068, Note_on_c, 0, 79, 0
2, 367096, Note_on_c, 0, 86, 0
2, 367112, Note_on_c, 0, 78, 66
2, 367156, Note_on_c, 0, 79, 85
2, 367160, Note_on_c, 0, 78, 0
2, 367172, Note_on_c, 0, 79, 0
2, 367252, Note_on_c, 0, 86, 78
2, 367252, Note_on_c, 0, 83, 51
2, 367288, Note_on_c, 0, 83, 0
2, 367288, Note_on_c, 0, 86, 0
2, 367356, Note_on_c, 0, 91, 94
2, 367364, Note_on_c, 0, 83, 72
2, 367364, Note_on_c, 0, 86, 75
2, 367392, Note_on_c, 0, 86, 0
2, 367400, Note_on_c, 0, 83, 0
2, 367428, Note_on_c, 0, 91, 0
2, 367588, Note_on_c, 0, 67, 80
2, 367588, Note_on_c, 0, 55, 82
2, 367588, Note_on_c, 0, 43, 73
2, 367612, Note_on_c, 0, 43, 0
2, 367632, Note_on_c, 0, 55, 0
2, 367632, Note_on_c, 0, 67, 0
2, 367696, Note_on_c, 0, 55, 97
2, 367700, Note_on_c, 0, 67, 102
2, 367700, Note_on_c, 0, 59, 93
2, 367704, Note_on_c, 0, 47, 75
2, 367704, Note_on_c, 0, 43, 62
2, 367720, Control_c, 0, 64, 56
2, 367732, Note_on_c, 0, 43, 0
2, 367732, Control_c, 0, 64, 127
2, 367736, Note_on_c, 0, 55, 0
2, 367740, Note_on_c, 0, 59, 0
2, 367744, Note_on_c, 0, 47, 0
2, 367756, Note_on_c, 0, 67, 0
2, 367920, Note_on_c, 0, 60, 82
2, 367920, Note_on_c, 0, 67, 89
2, 367924, Note_on_c, 0, 55, 75
2, 367928, Note_on_c, 0, 48, 75
2, 367932, Note_on_c, 0, 45, 66
2, 367940, Control_c, 0, 64, 72
2, 367952, Control_c, 0, 64, 40
2, 367956, Note_on_c, 0, 45, 0
2, 367960, Note_on_c, 0, 55, 0
2, 367960, Note_on_c, 0, 48, 0
2, 367964, Control_c, 0, 64, 0
2, 367968, Note_on_c, 0, 67, 0
2, 367968, Note_on_c, 0, 60, 0
2, 368024, Note_on_c, 0, 62, 90
2, 368024, Note_on_c, 0, 67, 77
2, 368028, Note_on_c, 0, 47, 89
2, 368028, Note_on_c, 0, 50, 79
2, 368028, Note_on_c, 0, 55, 80
2, 368048, Note_on_c, 0, 47, 0
2, 368052, Note_on_c, 0, 55, 0
2, 368060, Note_on_c, 0, 50, 0
2, 368068, Note_on_c, 0, 67, 0
2, 368068, Note_on_c, 0, 62, 0
2, 368240, Note_on_c, 0, 67, 90
2, 368240, Note_on_c, 0, 55, 83
2, 368244, Note_on_c, 0, 64, 82
2, 368244, Note_on_c, 0, 48, 79
2, 368248, Note_on_c, 0, 52, 74
2, 368268, Note_on_c, 0, 52, 0
2, 368272, Note_on_c, 0, 48, 0
2, 368280, Note_on_c, 0, 55, 0
2, 368284, Note_on_c, 0, 64, 0
2, 368292, Note_on_c, 0, 67, 0
2, 368344, Note_on_c, 0, 67, 88
2, 368352, Note_on_c, 0, 55, 85
2, 368352, Note_on_c, 0, 65, 82
2, 368356, Note_on_c, 0, 50, 82
2, 368356, Note_on_c, 0, 53, 73
2, 368380, Control_c, 0, 64, 104
2, 368388, Control_c, 0, 64, 127
2, 368408, Note_on_c, 0, 50, 0
2, 368412, Note_on_c, 0, 55, 0
2, 368420, Note_on_c, 0, 53, 0
2, 368428, Note_on_c, 0, 67, 0
2, 368432, Note_on_c, 0, 65, 0
2, 368572, Note_on_c, 0, 67, 88
2, 368572, Note_on_c, 0, 47, 72
2, 368572, Note_on_c, 0, 62, 80
2, 368576, Note_on_c, 0, 55, 81
2, 368576, Note_on_c, 0, 50, 80
2, 368612, Note_on_c, 0, 50, 0
2, 368616, Note_on_c, 0, 55, 0
2, 368624, Note_on_c, 0, 67, 0
2, 368628, Note_on_c, 0, 62, 0
2, 368628, Note_on_c, 0, 47, 0
2, 368676, Note_on_c, 0, 55, 90
2, 368680, Note_on_c, 0, 67, 85
2, 368680, Note_on_c, 0, 50, 90
2, 368684, Note_on_c, 0, 59, 82
2, 368692, Note_on_c, 0, 43, 65
2, 368720, Note_on_c, 0, 43, 0
2, 368720, Note_on_c, 0, 50, 0
2, 368720, Note_on_c, 0, 55, 0
2, 368724, Note_on_c, 0, 59, 0
2, 368748, Note_on_c, 0, 67, 0
2, 368768, Control_c, 0, 64, 88
2, 368776, Control_c, 0, 64, 56
2, 368788, Control_c, 0, 64, 24
2, 368800, Control_c, 0, 64, 0
2, 368908, Note_on_c, 0, 67, 98
2, 368912, Note_on_c, 0, 62, 78
2, 368916, Note_on_c, 0, 59, 72
2, 368916, Note_on_c, 0, 53, 73
2, 368924, Note_on_c, 0, 41, 58
2, 368936, Note_on_c, 0, 53, 0
2, 368936, Note_on_c, 0, 59, 0
2, 368940, Note_on_c, 0, 62, 0
2, 368956, Note_on_c, 0, 41, 0
2, 368976, Note_on_c, 0, 67, 0
2, 369020, Note_on_c, 0, 69, 110
2, 369024, Note_on_c, 0, 64, 95
2, 369024, Note_on_c, 0, 60, 90
2, 369036, Note_on_c, 0, 52, 80
2, 369040, Note_on_c, 0, 40, 74
2, 369048, Control_c, 0, 64, 56
2, 369060, Note_on_c, 0, 40, 0
2, 369060, Control_c, 0, 64, 127
2, 369084, Note_on_c, 0, 52, 0
2, 369100, Note_on_c, 0, 64, 0
2, 369152, Note_on_c, 0, 60, 0
2, 369180, Note_on_c, 0, 69, 0
2, 369240, Note_on_c, 0, 55, 79
2, 369244, Note_on_c, 0, 67, 94
2, 369244, Note_on_c, 0, 64, 81
2, 369248, Note_on_c, 0, 52, 71
2, 369252, Note_on_c, 0, 60, 77
2, 369280, Note_on_c, 0, 52, 0
2, 369284, Note_on_c, 0, 64, 0
2, 369284, Note_on_c, 0, 55, 0
2, 369292, Note_on_c, 0, 60, 0
2, 369308, Note_on_c, 0, 67, 0
2, 369332, Control_c, 0, 64, 72
2, 369340, Note_on_c, 0, 66, 96
2, 369340, Control_c, 0, 64, 0
2, 369344, Note_on_c, 0, 63, 89
2, 369348, Note_on_c, 0, 60, 83
2, 369348, Note_on_c, 0, 54, 82
2, 369356, Note_on_c, 0, 51, 86
2, 369384, Control_c, 0, 64, 56
2, 369396, Control_c, 0, 64, 104
2, 369400, Note_on_c, 0, 54, 0
2, 369400, Note_on_c, 0, 60, 0
2, 369404, Control_c, 0, 64, 127
2, 369416, Note_on_c, 0, 51, 0
2, 369424, Note_on_c, 0, 63, 0
2, 369448, Note_on_c, 0, 66, 0
2, 369552, Note_on_c, 0, 52, 88
2, 369552, Note_on_c, 0, 67, 101
2, 369556, Note_on_c, 0, 64, 93
2, 369556, Note_on_c, 0, 60, 87
2, 369560, Note_on_c, 0, 55, 66
2, 369572, Control_c, 0, 64, 104
2, 369584, Control_c, 0, 64, 56
2, 369592, Note_on_c, 0, 55, 0
2, 369596, Note_on_c, 0, 64, 0
2, 369596, Control_c, 0, 64, 0
2, 369600, Note_on_c, 0, 52, 0
2, 369604, Note_on_c, 0, 60, 0
2, 369616, Note_on_c, 0, 67, 0
2, 369668, Note_on_c, 0, 64, 120
2, 369668, Note_on_c, 0, 55, 83
2, 369668, Note_on_c, 0, 52, 80
2, 369672, Note_on_c, 0, 60, 89
2, 369700, Control_c, 0, 64, 127
2, 369708, Note_on_c, 0, 52, 0
2, 369712, Note_on_c, 0, 55, 0
2, 369724, Note_on_c, 0, 60, 0
2, 369816, Note_on_c, 0, 64, 0
2, 369892, Note_on_c, 0, 60, 94
2, 369896, Note_on_c, 0, 48, 78
2, 369896, Note_on_c, 0, 36, 79
2, 369920, Note_on_c, 0, 48, 0
2, 369924, Note_on_c, 0, 36, 0
2, 369976, Note_on_c, 0, 60, 0
2, 370000, Note_on_c, 0, 64, 105
2, 370000, Note_on_c, 0, 52, 79
2, 370008, Note_on_c, 0, 40, 93
2, 370020, Note_on_c, 0, 52, 0
2, 370028, Note_on_c, 0, 40, 0
2, 370048, Note_on_c, 0, 64, 0
2, 370116, Control_c, 0, 64, 104
2, 370128, Control_c, 0, 64, 40
2, 370136, Control_c, 0, 64, 0
2, 370204, Note_on_c, 0, 67, 98
2, 370208, Note_on_c, 0, 79, 105
2, 370212, Note_on_c, 0, 43, 63
2, 370212, Note_on_c, 0, 55, 79
2, 370232, Note_on_c, 0, 43, 0
2, 370232, Control_c, 0, 64, 40
2, 370240, Control_c, 0, 64, 56
2, 370248, Note_on_c, 0, 55, 0
2, 370252, Control_c, 0, 64, 40
2, 370256, Note_on_c, 0, 67, 0
2, 370260, Note_on_c, 0, 79, 0
2, 370264, Control_c, 0, 64, 0
2, 370324, Note_on_c, 0, 79, 105
2, 370324, Note_on_c, 0, 59, 87
2, 370324, Note_on_c, 0, 71, 98
2, 370324, Note_on_c, 0, 67, 96
2, 370328, Note_on_c, 0, 55, 75
2, 370368, Control_c, 0, 64, 56
2, 370380, Control_c, 0, 64, 127
2, 370392, Note_on_c, 0, 59, 0
2, 370396, Note_on_c, 0, 55, 0
2, 370400, Note_on_c, 0, 71, 0
2, 370420, Note_on_c, 0, 67, 0
2, 370448, Note_on_c, 0, 79, 0
2, 370524, Note_on_c, 0, 72, 106
2, 370528, Note_on_c, 0, 79, 101
2, 370532, Note_on_c, 0, 67, 85
2, 370536, Note_on_c, 0, 60, 75
2, 370536, Note_on_c, 0, 57, 66
2, 370564, Note_on_c, 0, 57, 0
2, 370572, Note_on_c, 0, 67, 0
2, 370572, Note_on_c, 0, 60, 0
2, 370576, Control_c, 0, 64, 104
2, 370584, Note_on_c, 0, 79, 0
2, 370584, Note_on_c, 0, 72, 0
2, 370588, Control_c, 0, 64, 56
2, 370600, Control_c, 0, 64, 0
2, 370636, Note_on_c, 0, 79, 93
2, 370636, Note_on_c, 0, 74, 100
2, 370640, Note_on_c, 0, 67, 87
2, 370640, Note_on_c, 0, 59, 79
2, 370648, Note_on_c, 0, 62, 65
2, 370680, Control_c, 0, 64, 40
2, 370688, Note_on_c, 0, 62, 0
2, 370692, Note_on_c, 0, 59, 0
2, 370692, Control_c, 0, 64, 127
2, 370716, Note_on_c, 0, 74, 0
2, 370724, Note_on_c, 0, 67, 0
2, 370744, Note_on_c, 0, 79, 0
2, 370828, Control_c, 0, 64, 104
2, 370836, Note_on_c, 0, 79, 97
2, 370836, Note_on_c, 0, 60, 82
2, 370836, Note_on_c, 0, 76, 94
2, 370836, Note_on_c, 0, 67, 90
2, 370836, Note_on_c, 0, 64, 73
2, 370840, Control_c, 0, 64, 72
2, 370848, Control_c, 0, 64, 40
2, 370860, Control_c, 0, 64, 0
2, 370876, Note_on_c, 0, 67, 0
2, 370876, Note_on_c, 0, 60, 0
2, 370880, Note_on_c, 0, 64, 0
2, 370880, Note_on_c, 0, 76, 0
2, 370888, Note_on_c, 0, 79, 0
2, 370948, Note_on_c, 0, 67, 108
2, 370948, Note_on_c, 0, 79, 89
2, 370948, Note_on_c, 0, 77, 101
2, 370948, Note_on_c, 0, 65, 93
2, 370952, Note_on_c, 0, 62, 90
2, 370952, Note_on_c, 0, 81, 97
2, 370968, Note_on_c, 0, 81, 0
2, 370984, Control_c, 0, 64, 104
2, 370996, Control_c, 0, 64, 127
2, 371052, Note_on_c, 0, 65, 0
2, 371056, Note_on_c, 0, 62, 0
2, 371060, Note_on_c, 0, 79, 0
2, 371064, Note_on_c, 0, 77, 0
2, 371072, Note_on_c, 0, 67, 0
2, 371160, Note_on_c, 0, 79, 97
2, 371164, Note_on_c, 0, 74, 89
2, 371164, Note_on_c, 0, 67, 87
2, 371168, Note_on_c, 0, 59, 69
2, 371176, Note_on_c, 0, 62, 73
2, 371184, Control_c, 0, 64, 88
2, 371192, Control_c, 0, 64, 56
2, 371200, Note_on_c, 0, 62, 0
2, 371204, Control_c, 0, 64, 40
2, 371208, Note_on_c, 0, 67, 0
2, 371212, Note_on_c, 0, 74, 0
2, 371216, Note_on_c, 0, 59, 0
2, 371216, Control_c, 0, 64, 0
2, 371220, Note_on_c, 0, 79, 0
2, 371276, Note_on_c, 0, 62, 83
2, 371276, Note_on_c, 0, 79, 96
2, 371276, Note_on_c, 0, 67, 87
2, 371276, Note_on_c, 0, 71, 89
2, 371284, Note_on_c, 0, 55, 64
2, 371288, Control_c, 0, 64, 40
2, 371300, Control_c, 0, 64, 104
2, 371308, Control_c, 0, 64, 127
2, 371312, Note_on_c, 0, 62, 0
2, 371320, Note_on_c, 0, 71, 0
2, 371320, Note_on_c, 0, 67, 0
2, 371324, Note_on_c, 0, 55, 0
2, 371344, Note_on_c, 0, 79, 0
2, 371380, Control_c, 0, 64, 88
2, 371392, Control_c, 0, 64, 40
2, 371404, Control_c, 0, 64, 0
2, 371464, Control_c, 0, 64, 72
2, 371476, Note_on_c, 0, 79, 103
2, 371476, Control_c, 0, 64, 127
2, 371480, Note_on_c, 0, 65, 77
2, 371484, Note_on_c, 0, 71, 82
2, 371484, Note_on_c, 0, 53, 73
2, 371488, Note_on_c, 0, 74, 67
2, 371508, Note_on_c, 0, 74, 0
2, 371512, Note_on_c, 0, 53, 0
2, 371516, Control_c, 0, 64, 104
2, 371524, Note_on_c, 0, 71, 0
2, 371524, Note_on_c, 0, 65, 0
2, 371528, Control_c, 0, 64, 40
2, 371540, Control_c, 0, 64, 0
2, 371552, Note_on_c, 0, 79, 0
2, 371580, Note_on_c, 0, 81, 110
2, 371588, Note_on_c, 0, 76, 97
2, 371588, Note_on_c, 0, 72, 94
2, 371596, Note_on_c, 0, 52, 80
2, 371596, Note_on_c, 0, 64, 75
2, 371616, Note_on_c, 0, 52, 0
2, 371624, Control_c, 0, 64, 72
2, 371632, Control_c, 0, 64, 127
2, 371652, Note_on_c, 0, 64, 0
2, 371656, Note_on_c, 0, 76, 0
2, 371724, Note_on_c, 0, 72, 0
2, 371752, Note_on_c, 0, 81, 0
2, 371800, Note_on_c, 0, 79, 101
2, 371804, Note_on_c, 0, 67, 73
2, 371804, Note_on_c, 0, 64, 72
2, 371804, Note_on_c, 0, 76, 85
2, 371808, Note_on_c, 0, 72, 85
2, 371828, Note_on_c, 0, 76, 0
2, 371852, Note_on_c, 0, 64, 0
2, 371852, Note_on_c, 0, 72, 0
2, 371852, Note_on_c, 0, 67, 0
2, 371860, Control_c, 0, 64, 104
2, 371872, Note_on_c, 0, 79, 0
2, 371872, Control_c, 0, 64, 40
2, 371884, Control_c, 0, 64, 0
2, 371904, Note_on_c, 0, 78, 97
2, 371904, Note_on_c, 0, 75, 88
2, 371908, Note_on_c, 0, 72, 74
2, 371912, Note_on_c, 0, 66, 70
2, 371912, Note_on_c, 0, 63, 72
2, 371936, Control_c, 0, 64, 56
2, 371948, Control_c, 0, 64, 127
2, 371976, Note_on_c, 0, 63, 0
2, 371976, Note_on_c, 0, 72, 0
2, 372000, Note_on_c, 0, 75, 0
2, 372012, Note_on_c, 0, 66, 0
2, 372036, Note_on_c, 0, 78, 0
2, 372100, Note_on_c, 0, 79, 106
2, 372104, Note_on_c, 0, 64, 75
2, 372108, Note_on_c, 0, 76, 93
2, 372108, Note_on_c, 0, 72, 93
2, 372108, Note_on_c, 0, 67, 69
2, 372148, Note_on_c, 0, 67, 0
2, 372148, Note_on_c, 0, 76, 0
2, 372152, Note_on_c, 0, 72, 0
2, 372160, Note_on_c, 0, 64, 0
2, 372168, Control_c, 0, 64, 104
2, 372176, Note_on_c, 0, 79, 0
2, 372176, Control_c, 0, 64, 24
2, 372188, Control_c, 0, 64, 0
2, 372212, Note_on_c, 0, 64, 73
2, 372216, Note_on_c, 0, 67, 74
2, 372220, Note_on_c, 0, 76, 117
2, 372224, Note_on_c, 0, 72, 94
2, 372252, Note_on_c, 0, 67, 0
2, 372252, Note_on_c, 0, 64, 0
2, 372252, Control_c, 0, 64, 104
2, 372260, Note_on_c, 0, 72, 0
2, 372260, Control_c, 0, 64, 127
2, 372280, Note_on_c, 0, 76, 0
2, 372440, Note_on_c, 0, 72, 110
2, 372440, Note_on_c, 0, 84, 113
2, 372444, Note_on_c, 0, 60, 90
2, 372448, Note_on_c, 0, 48, 81
2, 372468, Note_on_c, 0, 48, 0
2, 372476, Note_on_c, 0, 72, 0
2, 372484, Note_on_c, 0, 60, 0
2, 372492, Note_on_c, 0, 84, 0
2, 372564, Note_on_c, 0, 88, 123
2, 372564, Note_on_c, 0, 76, 108
2, 372564, Control_c, 0, 64, 56
2, 372572, Note_on_c, 0, 64, 95
2, 372576, Control_c, 0, 64, 0
2, 372580, Note_on_c, 0, 52, 88
2, 372596, Control_c, 0, 64, 24
2, 372604, Control_c, 0, 64, 104
2, 372608, Note_on_c, 0, 76, 0
2, 372616, Control_c, 0, 64, 127
2, 372624, Note_on_c, 0, 52, 0
2, 372624, Note_on_c, 0, 64, 0
2, 372628, Note_on_c, 0, 88, 0
2, 372836, Control_c, 0, 64, 0
2, 372852, Note_on_c, 0, 68, 88
2, 372852, Note_on_c, 0, 56, 71
2, 372860, Note_on_c, 0, 64, 74
2, 372860, Note_on_c, 0, 40, 64
2, 372864, Note_on_c, 0, 52, 64
2, 372904, Note_on_c, 0, 52, 0
2, 372904, Note_on_c, 0, 56, 0
2, 372904, Note_on_c, 0, 40, 0
2, 372908, Control_c, 0, 64, 127
2, 372916, Note_on_c, 0, 64, 0
2, 372920, Note_on_c, 0, 68, 0
2, 372968, Note_on_c, 0, 68, 81
2, 372968, Note_on_c, 0, 56, 80
2, 372972, Note_on_c, 0, 64, 72
2, 372972, Control_c, 0, 64, 40
2, 372984, Control_c, 0, 64, 0
2, 372988, Note_on_c, 0, 52, 66
2, 372988, Note_on_c, 0, 40, 57
2, 372992, Control_c, 0, 64, 24
2, 373004, Control_c, 0, 64, 56
2, 373016, Control_c, 0, 64, 104
2, 373020, Note_on_c, 0, 56, 0
2, 373024, Note_on_c, 0, 64, 0
2, 373024, Control_c, 0, 64, 127
2, 373040, Note_on_c, 0, 68, 0
2, 373044, Note_on_c, 0, 52, 0
2, 373048, Note_on_c, 0, 40, 0
2, 373128, Control_c, 0, 64, 104
2, 373140, Control_c, 0, 64, 24
2, 373148, Control_c, 0, 64, 0
2, 373160, Control_c, 0, 64, 24
2, 373172, Control_c, 0, 64, 72
2, 373180, Control_c, 0, 64, 127
2, 373184, Note_on_c, 0, 69, 95
2, 373184, Note_on_c, 0, 57, 71
2, 373188, Note_on_c, 0, 66, 64
2, 373188, Note_on_c, 0, 51, 62
2, 373188, Note_on_c, 0, 39, 60
2, 373200, Note_on_c, 0, 59, 51
2, 373212, Note_on_c, 0, 66, 0
2, 373216, Note_on_c, 0, 51, 0
2, 373216, Note_on_c, 0, 57, 0
2, 373224, Note_on_c, 0, 59, 0
2, 373228, Note_on_c, 0, 39, 0
2, 373228, Note_on_c, 0, 69, 0
2, 373264, Control_c, 0, 64, 40
2, 373276, Control_c, 0, 64, 0
2, 373288, Note_on_c, 0, 71, 98
2, 373288, Note_on_c, 0, 68, 85
2, 373288, Note_on_c, 0, 59, 90
2, 373292, Note_on_c, 0, 50, 75
2, 373296, Note_on_c, 0, 38, 71
2, 373296, Control_c, 0, 64, 56
2, 373308, Control_c, 0, 64, 104
2, 373316, Control_c, 0, 64, 127
2, 373320, Note_on_c, 0, 38, 0
2, 373324, Note_on_c, 0, 50, 0
2, 373328, Note_on_c, 0, 59, 0
2, 373348, Note_on_c, 0, 68, 0
2, 373352, Note_on_c, 0, 71, 0
2, 373452, Control_c, 0, 64, 88
2, 373464, Control_c, 0, 64, 40
2, 373476, Control_c, 0, 64, 56
2, 373484, Control_c, 0, 64, 88
2, 373488, Note_on_c, 0, 72, 96
2, 373488, Note_on_c, 0, 60, 88
2, 373492, Note_on_c, 0, 69, 88
2, 373496, Control_c, 0, 64, 127
2, 373500, Note_on_c, 0, 48, 72
2, 373520, Note_on_c, 0, 48, 0
2, 373528, Note_on_c, 0, 60, 0
2, 373532, Note_on_c, 0, 69, 0
2, 373536, Note_on_c, 0, 72, 0
2, 373568, Control_c, 0, 64, 40
2, 373580, Control_c, 0, 64, 0
2, 373600, Note_on_c, 0, 74, 96
2, 373600, Note_on_c, 0, 62, 89
2, 373604, Note_on_c, 0, 71, 78
2, 373608, Note_on_c, 0, 47, 77
2, 373616, Note_on_c, 0, 35, 47
2, 373620, Control_c, 0, 64, 24
2, 373632, Control_c, 0, 64, 72
2, 373640, Control_c, 0, 64, 127
2, 373656, Note_on_c, 0, 62, 0
2, 373660, Note_on_c, 0, 47, 0
2, 373660, Note_on_c, 0, 74, 0
2, 373660, Note_on_c, 0, 35, 0
2, 373680, Note_on_c, 0, 71, 0
2, 373800, Note_on_c, 0, 75, 101
2, 373804, Note_on_c, 0, 63, 94
2, 373808, Note_on_c, 0, 71, 92
2, 373816, Note_on_c, 0, 45, 69
2, 373836, Note_on_c, 0, 45, 0
2, 373840, Note_on_c, 0, 63, 0
2, 373852, Control_c, 0, 64, 24
2, 373856, Note_on_c, 0, 71, 0
2, 373860, Note_on_c, 0, 75, 0
2, 373860, Control_c, 0, 64, 0
2, 373900, Note_on_c, 0, 71, 74
2, 373904, Note_on_c, 0, 76, 98
2, 373904, Control_c, 0, 64, 40
2, 373908, Note_on_c, 0, 64, 86
2, 373908, Note_on_c, 0, 44, 66
2, 373916, Note_on_c, 0, 32, 69
2, 373916, Control_c, 0, 64, 104
2, 373924, Control_c, 0, 64, 127
2, 373932, Note_on_c, 0, 64, 0
2, 373936, Note_on_c, 0, 32, 0
2, 373940, Note_on_c, 0, 76, 0
2, 373944, Note_on_c, 0, 71, 0
2, 373944, Note_on_c, 0, 44, 0
2, 374108, Note_on_c, 0, 71, 98
2, 374108, Note_on_c, 0, 59, 89
2, 374112, Note_on_c, 0, 68, 77
2, 374112, Note_on_c, 0, 28, 64
2, 374116, Note_on_c, 0, 40, 69
2, 374136, Note_on_c, 0, 28, 0
2, 374140, Note_on_c, 0, 40, 0
2, 374144, Note_on_c, 0, 59, 0
2, 374156, Note_on_c, 0, 68, 0
2, 374156, Note_on_c, 0, 71, 0
2, 374196, Control_c, 0, 64, 104
2, 374208, Control_c, 0, 64, 0
2, 374216, Note_on_c, 0, 74, 103
2, 374220, Note_on_c, 0, 62, 97
2, 374220, Note_on_c, 0, 71, 86
2, 374228, Note_on_c, 0, 45, 83
2, 374232, Note_on_c, 0, 33, 67
2, 374248, Control_c, 0, 64, 40
2, 374256, Note_on_c, 0, 33, 0
2, 374260, Note_on_c, 0, 62, 0
2, 374260, Control_c, 0, 64, 104
2, 374264, Note_on_c, 0, 71, 0
2, 374268, Note_on_c, 0, 45, 0
2, 374268, Control_c, 0, 64, 127
2, 374276, Note_on_c, 0, 74, 0
2, 374432, Note_on_c, 0, 73, 95
2, 374436, Note_on_c, 0, 61, 81
2, 374436, Note_on_c, 0, 69, 81
2, 374444, Note_on_c, 0, 40, 71
2, 374448, Note_on_c, 0, 52, 63
2, 374472, Note_on_c, 0, 40, 0
2, 374476, Note_on_c, 0, 61, 0
2, 374480, Note_on_c, 0, 69, 0
2, 374484, Note_on_c, 0, 52, 0
2, 374488, Note_on_c, 0, 73, 0
2, 374508, Control_c, 0, 64, 88
2, 374520, Control_c, 0, 64, 0
2, 374532, Note_on_c, 0, 72, 103
2, 374532, Note_on_c, 0, 69, 73
2, 374536, Note_on_c, 0, 60, 93
2, 374548, Note_on_c, 0, 40, 77
2, 374552, Note_on_c, 0, 52, 71
2, 374560, Control_c, 0, 64, 56
2, 374568, Note_on_c, 0, 40, 0
2, 374572, Control_c, 0, 64, 127
2, 374580, Note_on_c, 0, 60, 0
2, 374580, Note_on_c, 0, 69, 0
2, 374592, Note_on_c, 0, 72, 0
2, 374596, Note_on_c, 0, 52, 0
2, 374736, Note_on_c, 0, 68, 83
2, 374744, Note_on_c, 0, 59, 78
2, 374748, Note_on_c, 0, 71, 75
2, 374748, Note_on_c, 0, 72, 85
2, 374752, Note_on_c, 0, 52, 78
2, 374752, Note_on_c, 0, 57, 71
2, 374756, Note_on_c, 0, 45, 71
2, 374780, Note_on_c, 0, 45, 0
2, 374784, Note_on_c, 0, 59, 0
2, 374784, Note_on_c, 0, 57, 0
2, 374788, Note_on_c, 0, 72, 0
2, 374788, Note_on_c, 0, 68, 0
2, 374792, Note_on_c, 0, 71, 0
2, 374792, Note_on_c, 0, 52, 0
2, 374824, Control_c, 0, 64, 72
2, 374832, Control_c, 0, 64, 0
2, 374844, Note_on_c, 0, 72, 102
2, 374848, Note_on_c, 0, 60, 97
2, 374848, Note_on_c, 0, 69, 96
2, 374856, Note_on_c, 0, 52, 82
2, 374856, Note_on_c, 0, 57, 81
2, 374860, Note_on_c, 0, 45, 80
2, 374888, Control_c, 0, 64, 40
2, 374896, Note_on_c, 0, 52, 0
2, 374896, Control_c, 0, 64, 127
2, 374900, Note_on_c, 0, 57, 0
2, 374904, Note_on_c, 0, 45, 0
2, 374908, Note_on_c, 0, 69, 0
2, 374912, Note_on_c, 0, 72, 0
2, 374928, Note_on_c, 0, 60, 0
2, 375052, Note_on_c, 0, 51, 66
2, 375052, Note_on_c, 0, 39, 64
2, 375068, Note_on_c, 0, 63, 86
2, 375100, Note_on_c, 0, 51, 0
2, 375108, Note_on_c, 0, 39, 0
2, 375128, Note_on_c, 0, 63, 0
2, 375128, Control_c, 0, 64, 88
2, 375140, Control_c, 0, 64, 0
2, 375160, Note_on_c, 0, 64, 98
2, 375160, Note_on_c, 0, 40, 75
2, 375164, Note_on_c, 0, 52, 83
2, 375200, Note_on_c, 0, 40, 0
2, 375208, Note_on_c, 0, 64, 0
2, 375212, Note_on_c, 0, 52, 0
2, 375212, Control_c, 0, 64, 104
2, 375220, Control_c, 0, 64, 127
2, 375324, Control_c, 0, 64, 72
2, 375336, Control_c, 0, 64, 0
2, 375368, Control_c, 0, 64, 40
2, 375372, Note_on_c, 0, 80, 97
2, 375376, Note_on_c, 0, 68, 88
2, 375376, Note_on_c, 0, 76, 94
2, 375380, Control_c, 0, 64, 104
2, 375388, Note_on_c, 0, 64, 80
2, 375388, Control_c, 0, 64, 127
2, 375400, Note_on_c, 0, 52, 73
2, 375420, Note_on_c, 0, 64, 0
2, 375420, Note_on_c, 0, 68, 0
2, 375424, Note_on_c, 0, 80, 0
2, 375436, Note_on_c, 0, 76, 0
2, 375440, Note_on_c, 0, 52, 0
2, 375460, Control_c, 0, 64, 56
2, 375472, Control_c, 0, 64, 0
2, 375480, Note_on_c, 0, 80, 102
2, 375480, Note_on_c, 0, 76, 92
2, 375480, Note_on_c, 0, 68, 92
2, 375500, Note_on_c, 0, 64, 78
2, 375504, Note_on_c, 0, 52, 77
2, 375536, Control_c, 0, 64, 56
2, 375544, Note_on_c, 0, 68, 0
2, 375548, Control_c, 0, 64, 127
2, 375556, Note_on_c, 0, 52, 0
2, 375560, Note_on_c, 0, 76, 0
2, 375564, Note_on_c, 0, 80, 0
2, 375572, Note_on_c, 0, 64, 0
2, 375688, Note_on_c, 0, 63, 71
2, 375692, Note_on_c, 0, 81, 100
2, 375692, Note_on_c, 0, 78, 83
2, 375692, Note_on_c, 0, 69, 93
2, 375696, Note_on_c, 0, 51, 69
2, 375716, Note_on_c, 0, 51, 0
2, 375728, Note_on_c, 0, 63, 0
2, 375728, Note_on_c, 0, 69, 0
2, 375736, Note_on_c, 0, 78, 0
2, 375740, Note_on_c, 0, 81, 0
2, 375776, Control_c, 0, 64, 104
2, 375784, Control_c, 0, 64, 24
2, 375796, Note_on_c, 0, 80, 93
2, 375796, Note_on_c, 0, 83, 102
2, 375796, Control_c, 0, 64, 0
2, 375800, Note_on_c, 0, 71, 92
2, 375800, Note_on_c, 0, 62, 78
2, 375804, Note_on_c, 0, 50, 78
2, 375840, Control_c, 0, 64, 72
2, 375844, Note_on_c, 0, 71, 0
2, 375848, Control_c, 0, 64, 127
2, 375852, Note_on_c, 0, 62, 0
2, 375852, Note_on_c, 0, 50, 0
2, 375876, Note_on_c, 0, 83, 0
2, 375876, Note_on_c, 0, 80, 0
2, 375996, Note_on_c, 0, 84, 98
2, 376000, Note_on_c, 0, 72, 94
2, 376000, Note_on_c, 0, 81, 94
2, 376004, Note_on_c, 0, 60, 78
2, 376008, Note_on_c, 0, 48, 82
2, 376028, Note_on_c, 0, 48, 0
2, 376036, Note_on_c, 0, 72, 0
2, 376040, Note_on_c, 0, 60, 0
2, 376040, Note_on_c, 0, 81, 0
2, 376048, Note_on_c, 0, 84, 0
2, 376056, Control_c, 0, 64, 72
2, 376068, Control_c, 0, 64, 0
2, 376100, Note_on_c, 0, 86, 104
2, 376100, Note_on_c, 0, 74, 87
2, 376100, Note_on_c, 0, 83, 92
2, 376112, Note_on_c, 0, 59, 80
2, 376112, Control_c, 0, 64, 24
2, 376116, Note_on_c, 0, 47, 85
2, 376120, Control_c, 0, 64, 88
2, 376132, Control_c, 0, 64, 127
2, 376152, Note_on_c, 0, 74, 0
2, 376156, Note_on_c, 0, 86, 0
2, 376160, Note_on_c, 0, 59, 0
2, 376160, Note_on_c, 0, 47, 0
2, 376172, Note_on_c, 0, 83, 0
2, 376296, Note_on_c, 0, 87, 106
2, 376296, Note_on_c, 0, 75, 102
2, 376300, Note_on_c, 0, 83, 101
2, 376308, Note_on_c, 0, 57, 77
2, 376316, Note_on_c, 0, 45, 60
2, 376344, Note_on_c, 0, 45, 0
2, 376348, Note_on_c, 0, 75, 0
2, 376348, Note_on_c, 0, 57, 0
2, 376356, Note_on_c, 0, 87, 0
2, 376360, Note_on_c, 0, 83, 0
2, 376372, Control_c, 0, 64, 88
2, 376384, Control_c, 0, 64, 0
2, 376400, Note_on_c, 0, 83, 102
2, 376400, Note_on_c, 0, 88, 111
2, 376404, Note_on_c, 0, 76, 102
2, 376412, Note_on_c, 0, 56, 78
2, 376416, Note_on_c, 0, 44, 74
2, 376424, Control_c, 0, 64, 40
2, 376436, Note_on_c, 0, 88, 0
2, 376436, Control_c, 0, 64, 127
2, 376440, Note_on_c, 0, 44, 0
2, 376444, Note_on_c, 0, 76, 0
2, 376448, Note_on_c, 0, 83, 0
2, 376452, Note_on_c, 0, 56, 0
2, 376604, Note_on_c, 0, 83, 110
2, 376608, Note_on_c, 0, 71, 103
2, 376608, Note_on_c, 0, 80, 89
2, 376608, Note_on_c, 0, 40, 73
2, 376612, Note_on_c, 0, 52, 73
2, 376632, Note_on_c, 0, 52, 0
2, 376636, Note_on_c, 0, 40, 0
2, 376640, Note_on_c, 0, 71, 0
2, 376660, Note_on_c, 0, 83, 0
2, 376668, Note_on_c, 0, 80, 0
2, 376684, Control_c, 0, 64, 104
2, 376696, Control_c, 0, 64, 0
2, 376712, Note_on_c, 0, 86, 103
2, 376712, Note_on_c, 0, 74, 103
2, 376716, Note_on_c, 0, 83, 97
2, 376724, Note_on_c, 0, 57, 82
2, 376728, Note_on_c, 0, 45, 92
2, 376744, Note_on_c, 0, 45, 0
2, 376748, Control_c, 0, 64, 72
2, 376752, Note_on_c, 0, 83, 0
2, 376752, Note_on_c, 0, 74, 0
2, 376756, Control_c, 0, 64, 127
2, 376764, Note_on_c, 0, 57, 0
2, 376776, Note_on_c, 0, 86, 0
2, 376916, Note_on_c, 0, 85, 96
2, 376920, Note_on_c, 0, 73, 88
2, 376924, Note_on_c, 0, 81, 92
2, 376932, Note_on_c, 0, 64, 74
2, 376936, Note_on_c, 0, 52, 75
2, 376968, Note_on_c, 0, 81, 0
2, 376968, Note_on_c, 0, 73, 0
2, 376972, Note_on_c, 0, 85, 0
2, 376972, Note_on_c, 0, 64, 0
2, 376976, Note_on_c, 0, 52, 0
2, 376988, Control_c, 0, 64, 40
2, 377000, Control_c, 0, 64, 0
2, 377024, Note_on_c, 0, 84, 103
2, 377028, Note_on_c, 0, 72, 101
2, 377028, Note_on_c, 0, 81, 97
2, 377032, Note_on_c, 0, 52, 57
2, 377032, Note_on_c, 0, 64, 73
2, 377044, Control_c, 0, 64, 72
2, 377052, Control_c, 0, 64, 127
2, 377064, Note_on_c, 0, 72, 0
2, 377072, Note_on_c, 0, 52, 0
2, 377072, Note_on_c, 0, 81, 0
2, 377084, Note_on_c, 0, 84, 0
2, 377088, Note_on_c, 0, 64, 0
2, 377228, Note_on_c, 0, 80, 81
2, 377232, Note_on_c, 0, 83, 94
2, 377232, Note_on_c, 0, 71, 85
2, 377244, Note_on_c, 0, 69, 73
2, 377244, Note_on_c, 0, 64, 73
2, 377248, Note_on_c, 0, 57, 69
2, 377272, Note_on_c, 0, 71, 0
2, 377280, Note_on_c, 0, 83, 0
2, 377288, Note_on_c, 0, 69, 0
2, 377288, Note_on_c, 0, 57, 0
2, 377292, Note_on_c, 0, 80, 0
2, 377296, Note_on_c, 0, 64, 0
2, 377312, Control_c, 0, 64, 24
2, 377324, Control_c, 0, 64, 0
2, 377336, Note_on_c, 0, 84, 100
2, 377340, Note_on_c, 0, 81, 98
2, 377340, Note_on_c, 0, 72, 98
2, 377348, Note_on_c, 0, 64, 74
2, 377352, Note_on_c, 0, 69, 82
2, 377356, Note_on_c, 0, 57, 72
2, 377388, Note_on_c, 0, 84, 0
2, 377388, Control_c, 0, 64, 127
2, 377392, Note_on_c, 0, 69, 0
2, 377392, Note_on_c, 0, 64, 0
2, 377396, Note_on_c, 0, 81, 0
2, 377404, Note_on_c, 0, 72, 0
2, 377408, Note_on_c, 0, 57, 0
2, 377560, Note_on_c, 0, 51, 79
2, 377560, Note_on_c, 0, 63, 88
2, 377564, Note_on_c, 0, 39, 77
2, 377596, Note_on_c, 0, 51, 0
2, 377608, Note_on_c, 0, 39, 0
2, 377620, Note_on_c, 0, 63, 0
2, 377656, Control_c, 0, 64, 40
2, 377664, Note_on_c, 0, 64, 111
2, 377664, Note_on_c, 0, 52, 92
2, 377668, Control_c, 0, 64, 0
2, 377672, Note_on_c, 0, 40, 77
2, 377704, Note_on_c, 0, 52, 0
2, 377708, Control_c, 0, 64, 88
2, 377712, Note_on_c, 0, 40, 0
2, 377724, Control_c, 0, 64, 127
2, 377740, Note_on_c, 0, 64, 0
2, 377892, Note_on_c, 0, 59, 94
2, 377896, Note_on_c, 0, 35, 78
2, 377896, Note_on_c, 0, 47, 80
2, 377932, Note_on_c, 0, 47, 0
2, 377932, Note_on_c, 0, 35, 0
2, 377960, Note_on_c, 0, 59, 0
2, 377984, Control_c, 0, 64, 104
2, 377992, Control_c, 0, 64, 0
2, 378004, Note_on_c, 0, 60, 118
2, 378020, Note_on_c, 0, 48, 98
2, 378020, Note_on_c, 0, 36, 96
2, 378088, Control_c, 0, 64, 127
2, 378100, Note_on_c, 0, 60, 0
2, 378112, Note_on_c, 0, 36, 0
2, 378112, Note_on_c, 0, 48, 0
2, 378316, Note_on_c, 0, 93, 102
2, 378316, Note_on_c, 0, 81, 85
2, 378320, Note_on_c, 0, 88, 87
2, 378320, Note_on_c, 0, 60, 73
2, 378320, Note_on_c, 0, 69, 78
2, 378324, Note_on_c, 0, 64, 67
2, 378348, Note_on_c, 0, 64, 0
2, 378356, Note_on_c, 0, 81, 0
2, 378356, Note_on_c, 0, 93, 0
2, 378356, Note_on_c, 0, 60, 0
2, 378360, Note_on_c, 0, 88, 0
2, 378360, Note_on_c, 0, 69, 0
2, 378408, Note_on_c, 0, 81, 85
2, 378408, Note_on_c, 0, 93, 98
2, 378408, Note_on_c, 0, 88, 82
2, 378408, Note_on_c, 0, 69, 75
2, 378412, Note_on_c, 0, 64, 72
2, 378412, Note_on_c, 0, 60, 58
2, 378440, Note_on_c, 0, 60, 0
2, 378444, Note_on_c, 0, 81, 0
2, 378448, Note_on_c, 0, 69, 0
2, 378452, Note_on_c, 0, 93, 0
2, 378452, Note_on_c, 0, 88, 0
2, 378456, Note_on_c, 0, 64, 0
2, 378492, Note_on_c, 0, 93, 102
2, 378496, Note_on_c, 0, 88, 94
2, 378496, Note_on_c, 0, 81, 89
2, 378500, Note_on_c, 0, 64, 67
2, 378504, Note_on_c, 0, 69, 74
2, 378508, Note_on_c, 0, 60, 73
2, 378548, Note_on_c, 0, 60, 0
2, 378548, Note_on_c, 0, 64, 0
2, 378552, Note_on_c, 0, 81, 0
2, 378552, Note_on_c, 0, 69, 0
2, 378556, Note_on_c, 0, 88, 0
2, 378572, Note_on_c, 0, 93, 0
2, 378620, Note_on_c, 0, 95, 117
2, 378624, Note_on_c, 0, 83, 108
2, 378628, Note_on_c, 0, 87, 95
2, 378632, Note_on_c, 0, 71, 92
2, 378632, Note_on_c, 0, 60, 85
2, 378632, Note_on_c, 0, 63, 74
2, 378660, Control_c, 0, 64, 56
2, 378676, Control_c, 0, 64, 0
2, 378728, Control_c, 0, 64, 88
2, 378736, Control_c, 0, 64, 127
2, 378816, Note_on_c, 0, 95, 0
2, 378824, Note_on_c, 0, 83, 0
2, 378860, Note_on_c, 0, 71, 0
2, 378936, Note_on_c, 0, 93, 92
2, 378940, Note_on_c, 0, 81, 86
2, 378948, Note_on_c, 0, 69, 80
2, 378980, Note_on_c, 0, 87, 0
2, 378984, Note_on_c, 0, 81, 0
2, 378984, Note_on_c, 0, 93, 0
2, 378992, Note_on_c, 0, 69, 0
2, 379000, Note_on_c, 0, 60, 0
2, 379008, Note_on_c, 0, 63, 0
2, 379160, Note_on_c, 0, 61, 80
2, 379160, Note_on_c, 0, 37, 80
2, 379160, Note_on_c, 0, 49, 81
2, 379204, Note_on_c, 0, 37, 0
2, 379208, Note_on_c, 0, 49, 0
2, 379208, Note_on_c, 0, 61, 0
2, 379248, Note_on_c, 0, 62, 110
2, 379248, Control_c, 0, 64, 104
2, 379252, Note_on_c, 0, 50, 94
2, 379256, Note_on_c, 0, 38, 101
2, 379260, Control_c, 0, 64, 0
2, 379320, Control_c, 0, 64, 127
2, 379324, Note_on_c, 0, 50, 0
2, 379328, Note_on_c, 0, 62, 0
2, 379344, Note_on_c, 0, 38, 0
2, 379540, Note_on_c, 0, 91, 94
2, 379540, Note_on_c, 0, 86, 87
2, 379544, Note_on_c, 0, 79, 80
2, 379544, Note_on_c, 0, 67, 67
2, 379544, Note_on_c, 0, 59, 67
2, 379552, Note_on_c, 0, 62, 49
2, 379576, Note_on_c, 0, 59, 0
2, 379580, Note_on_c, 0, 91, 0
2, 379580, Note_on_c, 0, 79, 0
2, 379580, Note_on_c, 0, 67, 0
2, 379580, Note_on_c, 0, 62, 0
2, 379588, Note_on_c, 0, 86, 0
2, 379632, Note_on_c, 0, 86, 82
2, 379632, Note_on_c, 0, 91, 92
2, 379636, Note_on_c, 0, 67, 70
2, 379636, Note_on_c, 0, 79, 78
2, 379636, Note_on_c, 0, 59, 59
2, 379644, Note_on_c, 0, 62, 54
2, 379664, Note_on_c, 0, 62, 0
2, 379672, Note_on_c, 0, 79, 0
2, 379672, Note_on_c, 0, 59, 0
2, 379676, Note_on_c, 0, 86, 0
2, 379676, Note_on_c, 0, 67, 0
2, 379676, Note_on_c, 0, 91, 0
2, 379716, Note_on_c, 0, 91, 101
2, 379716, Note_on_c, 0, 86, 93
2, 379720, Note_on_c, 0, 79, 87
2, 379720, Note_on_c, 0, 67, 67
2, 379720, Note_on_c, 0, 59, 59
2, 379728, Note_on_c, 0, 62, 71
2, 379776, Note_on_c, 0, 79, 0
2, 379788, Note_on_c, 0, 59, 0
2, 379788, Note_on_c, 0, 67, 0
2, 379792, Note_on_c, 0, 91, 0
2, 379792, Note_on_c, 0, 62, 0
2, 379808, Note_on_c, 0, 86, 0
2, 379844, Note_on_c, 0, 93, 125
2, 379844, Note_on_c, 0, 86, 95
2, 379848, Note_on_c, 0, 81, 101
2, 379856, Note_on_c, 0, 69, 92
2, 379856, Note_on_c, 0, 62, 69
2, 379856, Note_on_c, 0, 59, 62
2, 380020, Note_on_c, 0, 81, 0
2, 380084, Note_on_c, 0, 93, 0
2, 380100, Note_on_c, 0, 69, 0
2, 380160, Note_on_c, 0, 91, 85
2, 380164, Note_on_c, 0, 67, 79
2, 380164, Note_on_c, 0, 79, 78
2, 380196, Note_on_c, 0, 86, 0
2, 380200, Note_on_c, 0, 91, 0
2, 380204, Note_on_c, 0, 67, 0
2, 380204, Note_on_c, 0, 62, 0
2, 380208, Note_on_c, 0, 79, 0
2, 380208, Note_on_c, 0, 59, 0
2, 380384, Note_on_c, 0, 62, 96
2, 380388, Note_on_c, 0, 50, 82
2, 380392, Note_on_c, 0, 38, 89
2, 380420, Note_on_c, 0, 50, 0
2, 380440, Note_on_c, 0, 38, 0
2, 380448, Control_c, 0, 64, 72
2, 380452, Note_on_c, 0, 62, 0
2, 380460, Control_c, 0, 64, 0
2, 380480, Note_on_c, 0, 63, 110
2, 380488, Note_on_c, 0, 51, 102
2, 380488, Note_on_c, 0, 39, 96
2, 380540, Note_on_c, 0, 39, 0
2, 380544, Control_c, 0, 64, 127
2, 380552, Note_on_c, 0, 63, 0
2, 380560, Note_on_c, 0, 51, 0
2, 380752, Note_on_c, 0, 90, 97
2, 380752, Note_on_c, 0, 78, 89
2, 380752, Note_on_c, 0, 66, 79
2, 380752, Note_on_c, 0, 84, 95
2, 380764, Note_on_c, 0, 57, 63
2, 380764, Note_on_c, 0, 60, 54
2, 380792, Note_on_c, 0, 60, 0
2, 380792, Note_on_c, 0, 78, 0
2, 380796, Note_on_c, 0, 84, 0
2, 380796, Note_on_c, 0, 90, 0
2, 380796, Note_on_c, 0, 66, 0
2, 380796, Note_on_c, 0, 57, 0
2, 380840, Note_on_c, 0, 90, 104
2, 380840, Note_on_c, 0, 84, 95
2, 380844, Note_on_c, 0, 78, 98
2, 380844, Note_on_c, 0, 66, 83
2, 380848, Note_on_c, 0, 57, 59
2, 380848, Note_on_c, 0, 60, 67
2, 380884, Note_on_c, 0, 66, 0
2, 380884, Note_on_c, 0, 78, 0
2, 380892, Note_on_c, 0, 57, 0
2, 380896, Note_on_c, 0, 90, 0
2, 380896, Note_on_c, 0, 84, 0
2, 380900, Note_on_c, 0, 60, 0
2, 380932, Note_on_c, 0, 90, 98
2, 380936, Note_on_c, 0, 84, 100
2, 380936, Note_on_c, 0, 78, 109
2, 380936, Note_on_c, 0, 66, 81
2, 380940, Note_on_c, 0, 60, 78
2, 380940, Note_on_c, 0, 57, 60
2, 381000, Note_on_c, 0, 66, 0
2, 381000, Note_on_c, 0, 78, 0
2, 381008, Note_on_c, 0, 84, 0
2, 381008, Note_on_c, 0, 57, 0
2, 381012, Note_on_c, 0, 60, 0
2, 381016, Note_on_c, 0, 90, 0
2, 381044, Note_on_c, 0, 89, 111
2, 381048, Note_on_c, 0, 84, 100
2, 381052, Note_on_c, 0, 77, 105
2, 381056, Note_on_c, 0, 65, 94
2, 381060, Note_on_c, 0, 60, 80
2, 381060, Note_on_c, 0, 57, 67
2, 381092, Control_c, 0, 64, 24
2, 381100, Control_c, 0, 64, 0
2, 381132, Control_c, 0, 64, 40
2, 381144, Control_c, 0, 64, 127
2, 381208, Note_on_c, 0, 77, 0
2, 381252, Note_on_c, 0, 65, 0
2, 381288, Note_on_c, 0, 89, 0
2, 381352, Note_on_c, 0, 66, 83
2, 381352, Note_on_c, 0, 78, 88
2, 381352, Note_on_c, 0, 90, 97
2, 381372, Note_on_c, 0, 84, 0
2, 381392, Note_on_c, 0, 66, 0
2, 381392, Note_on_c, 0, 57, 0
2, 381392, Note_on_c, 0, 60, 0
2, 381400, Note_on_c, 0, 78, 0
2, 381408, Note_on_c, 0, 90, 0
2, 381548, Note_on_c, 0, 51, 90
2, 381548, Note_on_c, 0, 63, 96
2, 381552, Note_on_c, 0, 39, 96
2, 381568, Note_on_c, 0, 51, 0
2, 381608, Note_on_c, 0, 39, 0
2, 381612, Note_on_c, 0, 63, 0
2, 381656, Note_on_c, 0, 64, 106
2, 381656, Control_c, 0, 64, 72
2, 381664, Note_on_c, 0, 40, 104
2, 381664, Note_on_c, 0, 52, 95
2, 381664, Control_c, 0, 64, 0
2, 381736, Control_c, 0, 64, 127
2, 381744, Note_on_c, 0, 64, 0
2, 381760, Note_on_c, 0, 52, 0
2, 381800, Note_on_c, 0, 40, 0
2, 381984, Note_on_c, 0, 93, 127
2, 381984, Note_on_c, 0, 81, 105
2, 381984, Note_on_c, 0, 85, 101
2, 381992, Note_on_c, 0, 69, 98
2, 381996, Note_on_c, 0, 58, 74
2, 381996, Note_on_c, 0, 61, 70
2, 382000, Note_on_c, 0, 64, 79
2, 382348, Note_on_c, 0, 93, 0
2, 382388, Note_on_c, 0, 81, 0
2, 382448, Note_on_c, 0, 69, 0
2, 382544, Note_on_c, 0, 91, 102
2, 382552, Note_on_c, 0, 79, 92
2, 382552, Note_on_c, 0, 67, 70
2, 382572, Note_on_c, 0, 67, 0
2, 382572, Note_on_c, 0, 64, 0
2, 382576, Note_on_c, 0, 85, 0
2, 382584, Note_on_c, 0, 91, 0
2, 382584, Note_on_c, 0, 79, 0
2, 382588, Note_on_c, 0, 61, 0
2, 382592, Note_on_c, 0, 58, 0
2, 382776, Note_on_c, 0, 64, 93
2, 382776, Note_on_c, 0, 52, 87
2, 382776, Note_on_c, 0, 40, 78
2, 382816, Note_on_c, 0, 64, 0
2, 382820, Note_on_c, 0, 40, 0
2, 382820, Note_on_c, 0, 52, 0
2, 382868, Note_on_c, 0, 65, 110
2, 382868, Note_on_c, 0, 41, 105
2, 382868, Note_on_c, 0, 53, 93
2, 382868, Control_c, 0, 64, 72
2, 382880, Control_c, 0, 64, 0
2, 382940, Note_on_c, 0, 53, 0
2, 382940, Note_on_c, 0, 65, 0
2, 382940, Control_c, 0, 64, 127
2, 382964, Note_on_c, 0, 41, 0
2, 383144, Note_on_c, 0, 98, 100
2, 383144, Note_on_c, 0, 94, 88
2, 383148, Note_on_c, 0, 86, 94
2, 383152, Note_on_c, 0, 74, 80
2, 383152, Note_on_c, 0, 65, 78
2, 383152, Note_on_c, 0, 70, 71
2, 383184, Note_on_c, 0, 86, 0
2, 383192, Note_on_c, 0, 94, 0
2, 383192, Note_on_c, 0, 74, 0
2, 383192, Note_on_c, 0, 98, 0
2, 383192, Note_on_c, 0, 70, 0
2, 383196, Note_on_c, 0, 65, 0
2, 383236, Note_on_c, 0, 98, 94
2, 383236, Note_on_c, 0, 94, 81
2, 383240, Note_on_c, 0, 86, 98
2, 383240, Note_on_c, 0, 65, 67
2, 383240, Note_on_c, 0, 74, 79
2, 383240, Note_on_c, 0, 70, 70
2, 383280, Note_on_c, 0, 70, 0
2, 383280, Note_on_c, 0, 94, 0
2, 383280, Note_on_c, 0, 86, 0
2, 383280, Note_on_c, 0, 98, 0
2, 383280, Note_on_c, 0, 74, 0
2, 383280, Note_on_c, 0, 65, 0
2, 383328, Note_on_c, 0, 98, 96
2, 383328, Note_on_c, 0, 86, 105
2, 383328, Note_on_c, 0, 94, 93
2, 383332, Note_on_c, 0, 74, 85
2, 383336, Note_on_c, 0, 70, 77
2, 383336, Note_on_c, 0, 65, 71
2, 383372, Note_on_c, 0, 86, 0
2, 383388, Note_on_c, 0, 98, 0
2, 383404, Note_on_c, 0, 74, 0
2, 383408, Note_on_c, 0, 94, 0
2, 383416, Note_on_c, 0, 70, 0
2, 383452, Note_on_c, 0, 99, 111
2, 383452, Note_on_c, 0, 87, 117
2, 383452, Note_on_c, 0, 94, 88
2, 383456, Note_on_c, 0, 70, 56
2, 383460, Note_on_c, 0, 75, 100
2, 383496, Control_c, 0, 64, 88
2, 383524, Control_c, 0, 64, 127
2, 383604, Note_on_c, 0, 87, 0
2, 383624, Note_on_c, 0, 99, 0
2, 383656, Note_on_c, 0, 75, 0
2, 383712, Note_on_c, 0, 94, 0
2, 383744, Note_on_c, 0, 86, 94
2, 383744, Note_on_c, 0, 74, 86
2, 383744, Note_on_c, 0, 98, 93
2, 383764, Note_on_c, 0, 74, 0
2, 383780, Note_on_c, 0, 86, 0
2, 383780, Note_on_c, 0, 65, 0
2, 383780, Note_on_c, 0, 70, 0
2, 383780, Note_on_c, 0, 98, 0
2, 383948, Note_on_c, 0, 65, 95
2, 383956, Note_on_c, 0, 53, 80
2, 383960, Note_on_c, 0, 41, 63
2, 383980, Note_on_c, 0, 53, 0
2, 384008, Note_on_c, 0, 41, 0
2, 384016, Note_on_c, 0, 65, 0
2, 384040, Control_c, 0, 64, 56
2, 384044, Note_on_c, 0, 66, 106
2, 384048, Control_c, 0, 64, 0
2, 384052, Note_on_c, 0, 54, 105
2, 384056, Note_on_c, 0, 42, 90
2, 384100, Control_c, 0, 64, 72
2, 384108, Control_c, 0, 64, 127
2, 384116, Note_on_c, 0, 66, 0
2, 384120, Note_on_c, 0, 42, 0
2, 384132, Note_on_c, 0, 54, 0
2, 384332, Note_on_c, 0, 72, 82
2, 384336, Note_on_c, 0, 96, 98
2, 384340, Note_on_c, 0, 93, 96
2, 384340, Note_on_c, 0, 84, 95
2, 384340, Note_on_c, 0, 69, 66
2, 384344, Note_on_c, 0, 63, 54
2, 384352, Note_on_c, 0, 66, 39
2, 384372, Note_on_c, 0, 66, 0
2, 384372, Note_on_c, 0, 84, 0
2, 384376, Note_on_c, 0, 93, 0
2, 384376, Note_on_c, 0, 72, 0
2, 384376, Note_on_c, 0, 96, 0
2, 384380, Note_on_c, 0, 63, 0
2, 384380, Note_on_c, 0, 69, 0
2, 384420, Note_on_c, 0, 93, 94
2, 384420, Note_on_c, 0, 96, 95
2, 384424, Note_on_c, 0, 63, 60
2, 384424, Note_on_c, 0, 72, 85
2, 384424, Note_on_c, 0, 84, 100
2, 384432, Note_on_c, 0, 69, 59
2, 384436, Note_on_c, 0, 66, 60
2, 384460, Note_on_c, 0, 66, 0
2, 384460, Note_on_c, 0, 84, 0
2, 384464, Note_on_c, 0, 93, 0
2, 384468, Note_on_c, 0, 72, 0
2, 384468, Note_on_c, 0, 63, 0
2, 384468, Note_on_c, 0, 69, 0
2, 384472, Note_on_c, 0, 96, 0
2, 384508, Note_on_c, 0, 96, 98
2, 384512, Note_on_c, 0, 84, 105
2, 384512, Note_on_c, 0, 93, 102
2, 384512, Note_on_c, 0, 63, 58
2, 384512, Note_on_c, 0, 72, 79
2, 384520, Note_on_c, 0, 66, 70
2, 384524, Note_on_c, 0, 69, 58
2, 384568, Note_on_c, 0, 84, 0
2, 384580, Note_on_c, 0, 72, 0
2, 384580, Note_on_c, 0, 96, 0
2, 384584, Note_on_c, 0, 66, 0
2, 384584, Note_on_c, 0, 63, 0
2, 384584, Note_on_c, 0, 69, 0
2, 384600, Note_on_c, 0, 93, 0
2, 384632, Note_on_c, 0, 93, 110
2, 384632, Note_on_c, 0, 98, 117
2, 384632, Note_on_c, 0, 86, 110
2, 384632, Note_on_c, 0, 66, 51
2, 384636, Note_on_c, 0, 74, 96
2, 384636, Note_on_c, 0, 69, 62
2, 384636, Note_on_c, 0, 63, 58
2, 384780, Note_on_c, 0, 98, 0
2, 384816, Note_on_c, 0, 86, 0
2, 384856, Note_on_c, 0, 74, 0
2, 384920, Note_on_c, 0, 96, 97
2, 384920, Note_on_c, 0, 72, 94
2, 384920, Note_on_c, 0, 84, 92
2, 384948, Note_on_c, 0, 93, 0
2, 384948, Note_on_c, 0, 69, 0
2, 384956, Note_on_c, 0, 72, 0
2, 384956, Note_on_c, 0, 66, 0
2, 384956, Note_on_c, 0, 84, 0
2, 384960, Note_on_c, 0, 96, 0
2, 384972, Note_on_c, 0, 63, 0
2, 385116, Note_on_c, 0, 66, 95
2, 385116, Note_on_c, 0, 54, 89
2, 385116, Note_on_c, 0, 42, 97
2, 385160, Note_on_c, 0, 42, 0
2, 385160, Note_on_c, 0, 54, 0
2, 385172, Note_on_c, 0, 66, 0
2, 385220, Control_c, 0, 64, 104
2, 385224, Note_on_c, 0, 67, 120
2, 385224, Note_on_c, 0, 43, 110
2, 385224, Note_on_c, 0, 55, 102
2, 385232, Control_c, 0, 64, 0
2, 385264, Note_on_c, 0, 43, 0
2, 385292, Note_on_c, 0, 67, 0
2, 385296, Note_on_c, 0, 55, 0
2, 385296, Control_c, 0, 64, 127
2, 385532, Note_on_c, 0, 95, 111
2, 385532, Note_on_c, 0, 71, 94
2, 385532, Note_on_c, 0, 67, 78
2, 385532, Note_on_c, 0, 62, 77
2, 385532, Note_on_c, 0, 86, 96
2, 385532, Note_on_c, 0, 91, 95
2, 385532, Note_on_c, 0, 83, 103
2, 385576, Note_on_c, 0, 71, 0
2, 385588, Note_on_c, 0, 67, 0
2, 385588, Note_on_c, 0, 95, 0
2, 385588, Note_on_c, 0, 83, 0
2, 385592, Note_on_c, 0, 91, 0
2, 385596, Note_on_c, 0, 62, 0
2, 385600, Note_on_c, 0, 86, 0
2, 385844, Note_on_c, 0, 67, 111
2, 385844, Note_on_c, 0, 43, 85
2, 385844, Note_on_c, 0, 55, 100
2, 385848, Control_c, 0, 64, 72
2, 385860, Control_c, 0, 64, 0
2, 385880, Note_on_c, 0, 43, 0
2, 385904, Note_on_c, 0, 67, 0
2, 385908, Note_on_c, 0, 55, 0
2, 385912, Control_c, 0, 64, 104
2, 385924, Control_c, 0, 64, 127
2, 386176, Note_on_c, 0, 82, 94
2, 386176, Note_on_c, 0, 67, 85
2, 386176, Note_on_c, 0, 86, 89
2, 386176, Note_on_c, 0, 91, 89
2, 386176, Note_on_c, 0, 70, 85
2, 386176, Note_on_c, 0, 62, 77
2, 386176, Note_on_c, 0, 74, 89
2, 386176, Note_on_c, 0, 94, 113
2, 386220, Note_on_c, 0, 82, 0
2, 386240, Note_on_c, 0, 94, 0
2, 386240, Note_on_c, 0, 91, 0
2, 386240, Note_on_c, 0, 86, 0
2, 386248, Note_on_c, 0, 74, 0
2, 386264, Note_on_c, 0, 67, 0
2, 386268, Note_on_c, 0, 70, 0
2, 386292, Note_on_c, 0, 62, 0
2, 386512, Note_on_c, 0, 60, 115
2, 386512, Note_on_c, 0, 48, 108
2, 386512, Note_on_c, 0, 36, 90
2, 386516, Control_c, 0, 64, 40
2, 386528, Control_c, 0, 64, 0
2, 386564, Note_on_c, 0, 36, 0
2, 386580, Control_c, 0, 64, 127
2, 386584, Note_on_c, 0, 60, 0
2, 386588, Note_on_c, 0, 48, 0
2, 386856, Note_on_c, 0, 93, 120
2, 386856, Note_on_c, 0, 87, 95
2, 386856, Note_on_c, 0, 84, 96
2, 386856, Note_on_c, 0, 60, 77
2, 386856, Note_on_c, 0, 57, 80
2, 386856, Note_on_c, 0, 69, 94
2, 386856, Note_on_c, 0, 63, 77
2, 386856, Note_on_c, 0, 81, 103
2, 386908, Note_on_c, 0, 69, 0
2, 386916, Note_on_c, 0, 57, 0
2, 386928, Note_on_c, 0, 81, 0
2, 386928, Note_on_c, 0, 93, 0
2, 386928, Note_on_c, 0, 63, 0
2, 386932, Note_on_c, 0, 60, 0
2, 386940, Note_on_c, 0, 84, 0
2, 386944, Note_on_c, 0, 87, 0
2, 387232, Note_on_c, 0, 60, 117
2, 387232, Note_on_c, 0, 36, 94
2, 387232, Note_on_c, 0, 48, 117
2, 387240, Control_c, 0, 64, 0
2, 387284, Note_on_c, 0, 36, 0
2, 387288, Control_c, 0, 64, 127
2, 387296, Note_on_c, 0, 48, 0
2, 387308, Note_on_c, 0, 60, 0
2, 387672, Note_on_c, 0, 92, 115
2, 387672, Note_on_c, 0, 80, 109
2, 387672, Note_on_c, 0, 56, 77
2, 387672, Note_on_c, 0, 84, 101
2, 387672, Note_on_c, 0, 63, 81
2, 387672, Note_on_c, 0, 60, 78
2, 387672, Note_on_c, 0, 87, 97
2, 387672, Note_on_c, 0, 68, 100
2, 387700, Note_on_c, 0, 60, 0
2, 387716, Note_on_c, 0, 56, 0
2, 387720, Note_on_c, 0, 68, 0
2, 387728, Note_on_c, 0, 63, 0
2, 387732, Note_on_c, 0, 84, 0
2, 387736, Note_on_c, 0, 80, 0
2, 387752, Note_on_c, 0, 87, 0
2, 387756, Note_on_c, 0, 92, 0
2, 388428, Control_c, 0, 64, 56
2, 388436, Control_c, 0, 64, 127
2, 388456, Note_on_c, 0, 76, 108
2, 388532, Note_on_c, 0, 76, 0
2, 388564, Note_on_c, 0, 88, 93
2, 388568, Note_on_c, 0, 84, 75
2, 388576, Note_on_c, 0, 80, 67
2, 388616, Note_on_c, 0, 80, 0
2, 388632, Note_on_c, 0, 84, 0
2, 388636, Note_on_c, 0, 88, 0
2, 388656, Note_on_c, 0, 75, 98
2, 388692, Note_on_c, 0, 75, 0
2, 388736, Note_on_c, 0, 87, 73
2, 388740, Note_on_c, 0, 84, 78
2, 388740, Note_on_c, 0, 80, 73
2, 388776, Note_on_c, 0, 80, 0
2, 388780, Note_on_c, 0, 84, 0
2, 388784, Note_on_c, 0, 87, 0
2, 388828, Note_on_c, 0, 72, 103
2, 388892, Note_on_c, 0, 72, 0
2, 388916, Note_on_c, 0, 80, 73
2, 388920, Note_on_c, 0, 84, 87
2, 388924, Note_on_c, 0, 75, 79
2, 388964, Note_on_c, 0, 75, 0
2, 388972, Note_on_c, 0, 80, 0
2, 388976, Note_on_c, 0, 84, 0
2, 389000, Note_on_c, 0, 69, 96
2, 389092, Note_on_c, 0, 81, 87
2, 389096, Note_on_c, 0, 75, 73
2, 389100, Note_on_c, 0, 72, 71
2, 389120, Note_on_c, 0, 69, 0
2, 389144, Note_on_c, 0, 81, 0
2, 389144, Note_on_c, 0, 72, 0
2, 389172, Note_on_c, 0, 75, 0
2, 389176, Note_on_c, 0, 68, 89
2, 389220, Note_on_c, 0, 68, 0
2, 389264, Note_on_c, 0, 80, 81
2, 389264, Note_on_c, 0, 75, 81
2, 389276, Note_on_c, 0, 72, 75
2, 389300, Note_on_c, 0, 72, 0
2, 389300, Note_on_c, 0, 80, 0
2, 389304, Note_on_c, 0, 75, 0
2, 389348, Note_on_c, 0, 64, 96
2, 389412, Note_on_c, 0, 64, 0
2, 389440, Note_on_c, 0, 76, 90
2, 389440, Note_on_c, 0, 68, 62
2, 389452, Note_on_c, 0, 72, 72
2, 389472, Note_on_c, 0, 72, 0
2, 389488, Note_on_c, 0, 68, 0
2, 389512, Note_on_c, 0, 76, 0
2, 389528, Note_on_c, 0, 63, 90
2, 389564, Note_on_c, 0, 63, 0
2, 389604, Note_on_c, 0, 75, 73
2, 389612, Note_on_c, 0, 72, 80
2, 389612, Note_on_c, 0, 68, 65
2, 389648, Note_on_c, 0, 72, 0
2, 389648, Note_on_c, 0, 75, 0
2, 389656, Note_on_c, 0, 68, 0
2, 389696, Note_on_c, 0, 60, 101
2, 389764, Note_on_c, 0, 60, 0
2, 389784, Note_on_c, 0, 68, 69
2, 389784, Note_on_c, 0, 72, 80
2, 389788, Note_on_c, 0, 63, 72
2, 389844, Note_on_c, 0, 63, 0
2, 389848, Note_on_c, 0, 68, 0
2, 389852, Note_on_c, 0, 72, 0
2, 389864, Note_on_c, 0, 57, 96
2, 389936, Note_on_c, 0, 57, 0
2, 389944, Note_on_c, 0, 69, 80
2, 389956, Note_on_c, 0, 60, 58
2, 389956, Note_on_c, 0, 63, 50
2, 390004, Note_on_c, 0, 60, 0
2, 390004, Note_on_c, 0, 69, 0
2, 390028, Note_on_c, 0, 56, 90
2, 390040, Note_on_c, 0, 63, 0
2, 390072, Note_on_c, 0, 56, 0
2, 390108, Note_on_c, 0, 68, 73
2, 390108, Note_on_c, 0, 63, 63
2, 390120, Note_on_c, 0, 60, 66
2, 390144, Note_on_c, 0, 60, 0
2, 390152, Note_on_c, 0, 63, 0
2, 390152, Note_on_c, 0, 68, 0
2, 390208, Note_on_c, 0, 52, 95
2, 390276, Note_on_c, 0, 52, 0
2, 390292, Note_on_c, 0, 64, 81
2, 390292, Note_on_c, 0, 56, 57
2, 390304, Note_on_c, 0, 60, 64
2, 390360, Note_on_c, 0, 60, 0
2, 390360, Note_on_c, 0, 56, 0
2, 390380, Note_on_c, 0, 51, 97
2, 390388, Note_on_c, 0, 64, 0
2, 390460, Note_on_c, 0, 63, 90
2, 390468, Note_on_c, 0, 60, 73
2, 390468, Note_on_c, 0, 56, 57
2, 390488, Note_on_c, 0, 60, 0
2, 390504, Note_on_c, 0, 51, 0
2, 390504, Note_on_c, 0, 63, 0
2, 390508, Note_on_c, 0, 56, 0
2, 390552, Note_on_c, 0, 48, 101
2, 390636, Note_on_c, 0, 56, 69
2, 390640, Note_on_c, 0, 60, 81
2, 390644, Note_on_c, 0, 51, 77
2, 390684, Note_on_c, 0, 48, 0
2, 390704, Note_on_c, 0, 60, 0
2, 390708, Note_on_c, 0, 56, 0
2, 390720, Note_on_c, 0, 51, 0
2, 390720, Note_on_c, 0, 45, 98
2, 390768, Note_on_c, 0, 45, 0
2, 390804, Note_on_c, 0, 57, 82
2, 390808, Note_on_c, 0, 51, 74
2, 390812, Note_on_c, 0, 48, 85
2, 390860, Note_on_c, 0, 48, 0
2, 390868, Note_on_c, 0, 57, 0
2, 390892, Note_on_c, 0, 44, 100
2, 390924, Note_on_c, 0, 51, 0
2, 390940, Note_on_c, 0, 44, 0
2, 390984, Note_on_c, 0, 56, 83
2, 390984, Note_on_c, 0, 51, 73
2, 390992, Note_on_c, 0, 48, 85
2, 391020, Note_on_c, 0, 51, 0
2, 391024, Note_on_c, 0, 48, 0
2, 391028, Note_on_c, 0, 56, 0
2, 391060, Note_on_c, 0, 40, 94
2, 391088, Control_c, 0, 64, 104
2, 391096, Control_c, 0, 64, 127
2, 391148, Note_on_c, 0, 52, 89
2, 391152, Note_on_c, 0, 44, 69
2, 391156, Note_on_c, 0, 48, 83
2, 391168, Note_on_c, 0, 48, 0
2, 391176, Note_on_c, 0, 40, 0
2, 391224, Note_on_c, 0, 44, 0
2, 391228, Note_on_c, 0, 39, 101
2, 391244, Note_on_c, 0, 52, 0
2, 391276, Note_on_c, 0, 39, 0
2, 391320, Note_on_c, 0, 51, 94
2, 391320, Note_on_c, 0, 44, 81
2, 391364, Note_on_c, 0, 44, 0
2, 391384, Note_on_c, 0, 51, 0
2, 391412, Note_on_c, 0, 36, 98
2, 391488, Note_on_c, 0, 56, 86
2, 391488, Note_on_c, 0, 44, 88
2, 391520, Note_on_c, 0, 36, 0
2, 391524, Note_on_c, 0, 44, 0
2, 391532, Note_on_c, 0, 56, 0
2, 391568, Note_on_c, 0, 44, 110
2, 391568, Note_on_c, 0, 32, 87
2, 391608, Note_on_c, 0, 44, 0
2, 391612, Note_on_c, 0, 32, 0
2, 391652, Note_on_c, 0, 60, 102
2, 391652, Note_on_c, 0, 48, 97
2, 391680, Note_on_c, 0, 48, 0
2, 391700, Note_on_c, 0, 60, 0
2, 391740, Note_on_c, 0, 36, 79
2, 391740, Note_on_c, 0, 48, 103
2, 391768, Note_on_c, 0, 36, 0
2, 391776, Note_on_c, 0, 48, 0
2, 391816, Note_on_c, 0, 51, 92
2, 391816, Note_on_c, 0, 63, 97
2, 391844, Note_on_c, 0, 51, 0
2, 391860, Note_on_c, 0, 63, 0
2, 391904, Note_on_c, 0, 51, 109
2, 391904, Note_on_c, 0, 39, 82
2, 391932, Note_on_c, 0, 39, 0
2, 391932, Note_on_c, 0, 51, 0
2, 391980, Note_on_c, 0, 56, 88
2, 391980, Note_on_c, 0, 68, 98
2, 392012, Note_on_c, 0, 56, 0
2, 392020, Note_on_c, 0, 68, 0
2, 392064, Note_on_c, 0, 56, 106
2, 392068, Note_on_c, 0, 44, 87
2, 392096, Note_on_c, 0, 44, 0
2, 392104, Note_on_c, 0, 56, 0
2, 392136, Note_on_c, 0, 72, 105
2, 392144, Note_on_c, 0, 60, 71
2, 392144, Note_on_c, 0, 59, 43
2, 392160, Note_on_c, 0, 60, 0
2, 392168, Note_on_c, 0, 59, 0
2, 392180, Note_on_c, 0, 72, 0
2, 392220, Note_on_c, 0, 60, 97
2, 392220, Note_on_c, 0, 48, 80
2, 392256, Note_on_c, 0, 48, 0
2, 392272, Note_on_c, 0, 60, 0
2, 392288, Note_on_c, 0, 63, 83
2, 392288, Note_on_c, 0, 75, 103
2, 392320, Note_on_c, 0, 63, 0
2, 392336, Note_on_c, 0, 75, 0
2, 392380, Note_on_c, 0, 63, 101
2, 392384, Note_on_c, 0, 51, 90
2, 392420, Note_on_c, 0, 63, 0
2, 392440, Note_on_c, 0, 68, 93
2, 392440, Note_on_c, 0, 80, 102
2, 392476, Note_on_c, 0, 51, 0
2, 392488, Note_on_c, 0, 80, 0
2, 392488, Note_on_c, 0, 68, 0
2, 392524, Note_on_c, 0, 68, 110
2, 392528, Note_on_c, 0, 56, 81
2, 392572, Note_on_c, 0, 56, 0
2, 392572, Note_on_c, 0, 68, 0
2, 392608, Note_on_c, 0, 84, 105
2, 392612, Note_on_c, 0, 72, 98
2, 392644, Note_on_c, 0, 72, 0
2, 392660, Note_on_c, 0, 84, 0
2, 392688, Note_on_c, 0, 63, 106
2, 392692, Note_on_c, 0, 51, 96
2, 392724, Note_on_c, 0, 51, 0
2, 392728, Note_on_c, 0, 63, 0
2, 392760, Note_on_c, 0, 75, 88
2, 392760, Note_on_c, 0, 87, 95
2, 392796, Note_on_c, 0, 75, 0
2, 392812, Note_on_c, 0, 87, 0
2, 392844, Note_on_c, 0, 48, 102
2, 392844, Note_on_c, 0, 60, 108
2, 392880, Note_on_c, 0, 60, 0
2, 392888, Note_on_c, 0, 48, 0
2, 392916, Note_on_c, 0, 92, 109
2, 392916, Note_on_c, 0, 80, 97
2, 392956, Note_on_c, 0, 80, 0
2, 392968, Note_on_c, 0, 92, 0
2, 393004, Note_on_c, 0, 56, 101
2, 393008, Note_on_c, 0, 44, 94
2, 393040, Note_on_c, 0, 56, 0
2, 393052, Note_on_c, 0, 44, 0
2, 393076, Note_on_c, 0, 95, 113
2, 393080, Note_on_c, 0, 83, 101
2, 393116, Note_on_c, 0, 83, 0
2, 393136, Note_on_c, 0, 95, 0
2, 393156, Note_on_c, 0, 51, 117
2, 393156, Note_on_c, 0, 39, 95
2, 393196, Note_on_c, 0, 51, 0
2, 393216, Note_on_c, 0, 39, 0
2, 393232, Note_on_c, 0, 84, 101
2, 393232, Note_on_c, 0, 96, 117
2, 393276, Note_on_c, 0, 84, 0
2, 393280, Note_on_c, 0, 96, 0
2, 393308, Note_on_c, 0, 36, 102
2, 393308, Note_on_c, 0, 48, 117
2, 393356, Note_on_c, 0, 48, 0
2, 393360, Note_on_c, 0, 36, 0
2, 393392, Note_on_c, 0, 99, 120
2, 393392, Note_on_c, 0, 87, 111
2, 393392, Note_on_c, 0, 92, 100
2, 393392, Note_on_c, 0, 96, 101
2, 393424, Note_on_c, 0, 87, 0
2, 393428, Note_on_c, 0, 96, 0
2, 393428, Note_on_c, 0, 92, 0
2, 393436, Note_on_c, 0, 99, 0
2, 394044, Note_on_c, 0, 87, 111
2, 394044, Note_on_c, 0, 75, 106
2, 394044, Note_on_c, 0, 48, 94
2, 394044, Note_on_c, 0, 81, 98
2, 394044, Note_on_c, 0, 60, 95
2, 394044, Note_on_c, 0, 57, 78
2, 394044, Note_on_c, 0, 78, 88
2, 394044, Note_on_c, 0, 54, 77
2, 394056, Control_c, 0, 64, 56
2, 394068, Control_c, 0, 64, 104
2, 394084, Control_c, 0, 64, 127
2, 394096, Note_on_c, 0, 48, 0
2, 394112, Note_on_c, 0, 54, 0
2, 394112, Note_on_c, 0, 57, 0
2, 394124, Note_on_c, 0, 78, 0
2, 394128, Note_on_c, 0, 60, 0
2, 394132, Note_on_c, 0, 81, 0
2, 394132, Note_on_c, 0, 75, 0
2, 394152, Note_on_c, 0, 87, 0
2, 394200, Control_c, 0, 64, 72
2, 394216, Control_c, 0, 64, 24
2, 394228, Control_c, 0, 64, 0
2, 394400, Note_on_c, 0, 86, 110
2, 394400, Note_on_c, 0, 74, 103
2, 394400, Note_on_c, 0, 81, 96
2, 394400, Note_on_c, 0, 78, 83
2, 394400, Note_on_c, 0, 62, 82
2, 394400, Note_on_c, 0, 57, 73
2, 394400, Note_on_c, 0, 50, 80
2, 394400, Note_on_c, 0, 54, 74
2, 394440, Control_c, 0, 64, 72
2, 394448, Note_on_c, 0, 57, 0
2, 394448, Note_on_c, 0, 62, 0
2, 394452, Note_on_c, 0, 78, 0
2, 394456, Control_c, 0, 64, 127
2, 394460, Note_on_c, 0, 74, 0
2, 394468, Note_on_c, 0, 50, 0
2, 394472, Note_on_c, 0, 54, 0
2, 394476, Note_on_c, 0, 81, 0
2, 394496, Note_on_c, 0, 86, 0
2, 394716, Note_on_c, 0, 91, 110
2, 394716, Note_on_c, 0, 86, 98
2, 394720, Note_on_c, 0, 79, 96
2, 394724, Note_on_c, 0, 83, 85
2, 394732, Note_on_c, 0, 43, 85
2, 394736, Note_on_c, 0, 38, 78
2, 394736, Note_on_c, 0, 31, 72
2, 394740, Note_on_c, 0, 83, 0
2, 394740, Control_c, 0, 64, 40
2, 394748, Control_c, 0, 64, 88
2, 394752, Note_on_c, 0, 79, 0
2, 394760, Control_c, 0, 64, 127
2, 394764, Note_on_c, 0, 86, 0
2, 394768, Note_on_c, 0, 38, 0
2, 394780, Note_on_c, 0, 91, 0
2, 394780, Note_on_c, 0, 43, 0
2, 394780, Note_on_c, 0, 31, 0
2, 394848, Control_c, 0, 64, 104
2, 394856, Control_c, 0, 64, 72
2, 394868, Control_c, 0, 64, 40
2, 394876, Control_c, 0, 64, 0
2, 394916, Note_on_c, 0, 95, 102
2, 394916, Note_on_c, 0, 83, 94
2, 394920, Note_on_c, 0, 91, 93
2, 394928, Note_on_c, 0, 38, 82
2, 394932, Note_on_c, 0, 43, 70
2, 394936, Note_on_c, 0, 31, 64
2, 394940, Control_c, 0, 64, 40
2, 394948, Control_c, 0, 64, 72
2, 394956, Note_on_c, 0, 43, 0
2, 394956, Note_on_c, 0, 91, 0
2, 394956, Note_on_c, 0, 83, 0
2, 394960, Control_c, 0, 64, 88
2, 394968, Note_on_c, 0, 31, 0
2, 394972, Note_on_c, 0, 38, 0
2, 394972, Note_on_c, 0, 95, 0
2, 395000, Control_c, 0, 64, 72
2, 395008, Note_on_c, 0, 38, 75
2, 395008, Note_on_c, 0, 96, 103
2, 395008, Note_on_c, 0, 84, 103
2, 395008, Control_c, 0, 64, 104
2, 395012, Note_on_c, 0, 93, 108
2, 395020, Note_on_c, 0, 43, 72
2, 395020, Note_on_c, 0, 95, 60
2, 395020, Note_on_c, 0, 31, 52
2, 395020, Control_c, 0, 64, 127
2, 395036, Note_on_c, 0, 95, 0
2, 395040, Note_on_c, 0, 31, 0
2, 395044, Note_on_c, 0, 84, 0
2, 395048, Note_on_c, 0, 93, 0
2, 395052, Note_on_c, 0, 38, 0
2, 395056, Note_on_c, 0, 96, 0
2, 395068, Note_on_c, 0, 43, 0
2, 395196, Note_on_c, 0, 85, 85
2, 395200, Note_on_c, 0, 94, 86
2, 395208, Note_on_c, 0, 98, 87
2, 395232, Control_c, 0, 64, 72
2, 395240, Control_c, 0, 64, 24
2, 395244, Note_on_c, 0, 98, 0
2, 395244, Note_on_c, 0, 85, 0
2, 395252, Note_on_c, 0, 94, 0
2, 395252, Control_c, 0, 64, 0
2, 395284, Note_on_c, 0, 98, 101
2, 395288, Note_on_c, 0, 86, 102
2, 395288, Note_on_c, 0, 95, 110
2, 395288, Note_on_c, 0, 54, 83
2, 395292, Note_on_c, 0, 62, 86
2, 395300, Note_on_c, 0, 50, 78
2, 395312, Control_c, 0, 64, 72
2, 395320, Control_c, 0, 64, 127
2, 395340, Note_on_c, 0, 62, 0
2, 395344, Note_on_c, 0, 50, 0
2, 395348, Note_on_c, 0, 95, 0
2, 395348, Note_on_c, 0, 86, 0
2, 395352, Note_on_c, 0, 54, 0
2, 395364, Note_on_c, 0, 98, 0
2, 395472, Note_on_c, 0, 98, 103
2, 395472, Note_on_c, 0, 86, 97
2, 395472, Note_on_c, 0, 95, 96
2, 395472, Note_on_c, 0, 54, 81
2, 395480, Note_on_c, 0, 50, 78
2, 395480, Note_on_c, 0, 62, 80
2, 395500, Note_on_c, 0, 50, 0
2, 395504, Note_on_c, 0, 62, 0
2, 395508, Note_on_c, 0, 95, 0
2, 395512, Note_on_c, 0, 86, 0
2, 395516, Note_on_c, 0, 98, 0
2, 395516, Note_on_c, 0, 54, 0
2, 395520, Control_c, 0, 64, 56
2, 395532, Control_c, 0, 64, 0
2, 395560, Note_on_c, 0, 100, 110
2, 395564, Note_on_c, 0, 96, 111
2, 395564, Note_on_c, 0, 88, 101
2, 395568, Note_on_c, 0, 54, 79
2, 395572, Note_on_c, 0, 62, 90
2, 395572, Note_on_c, 0, 50, 80
2, 395592, Control_c, 0, 64, 56
2, 395596, Note_on_c, 0, 62, 0
2, 395604, Control_c, 0, 64, 127
2, 395608, Note_on_c, 0, 96, 0
2, 395612, Note_on_c, 0, 54, 0
2, 395616, Note_on_c, 0, 88, 0
2, 395624, Note_on_c, 0, 100, 0
2, 395628, Note_on_c, 0, 50, 0
2, 395744, Note_on_c, 0, 95, 108
2, 395744, Note_on_c, 0, 86, 101
2, 395752, Note_on_c, 0, 98, 39
2, 395772, Note_on_c, 0, 98, 0
2, 395780, Note_on_c, 0, 86, 0
2, 395788, Note_on_c, 0, 95, 0
2, 395804, Control_c, 0, 64, 88
2, 395816, Control_c, 0, 64, 24
2, 395824, Control_c, 0, 64, 0
2, 395840, Note_on_c, 0, 98, 123
2, 395840, Note_on_c, 0, 95, 97
2, 395840, Note_on_c, 0, 86, 110
2, 395856, Note_on_c, 0, 38, 80
2, 395860, Note_on_c, 0, 43, 80
2, 395864, Note_on_c, 0, 31, 70
2, 395876, Note_on_c, 0, 95, 0
2, 395876, Control_c, 0, 64, 56
2, 395884, Control_c, 0, 64, 104
2, 395896, Note_on_c, 0, 98, 0
2, 395896, Control_c, 0, 64, 127
2, 395900, Note_on_c, 0, 38, 0
2, 395904, Note_on_c, 0, 86, 0
2, 395912, Note_on_c, 0, 43, 0
2, 395928, Note_on_c, 0, 31, 0
2, 396028, Note_on_c, 0, 95, 115
2, 396028, Note_on_c, 0, 83, 106
2, 396028, Note_on_c, 0, 91, 108
2, 396040, Note_on_c, 0, 38, 75
2, 396044, Note_on_c, 0, 43, 71
2, 396048, Note_on_c, 0, 31, 65
2, 396060, Note_on_c, 0, 91, 0
2, 396064, Note_on_c, 0, 83, 0
2, 396068, Note_on_c, 0, 43, 0
2, 396068, Control_c, 0, 64, 104
2, 396072, Note_on_c, 0, 38, 0
2, 396076, Note_on_c, 0, 31, 0
2, 396076, Note_on_c, 0, 95, 0
2, 396076, Control_c, 0, 64, 56
2, 396088, Control_c, 0, 64, 0
2, 396120, Note_on_c, 0, 96, 111
2, 396120, Note_on_c, 0, 93, 111
2, 396120, Note_on_c, 0, 84, 115
2, 396128, Note_on_c, 0, 38, 78
2, 396128, Note_on_c, 0, 31, 60
2, 396128, Note_on_c, 0, 43, 67
2, 396140, Control_c, 0, 64, 24
2, 396148, Note_on_c, 0, 31, 0
2, 396148, Control_c, 0, 64, 88
2, 396152, Note_on_c, 0, 84, 0
2, 396160, Note_on_c, 0, 93, 0
2, 396160, Control_c, 0, 64, 127
2, 396164, Note_on_c, 0, 38, 0
2, 396168, Note_on_c, 0, 96, 0
2, 396184, Note_on_c, 0, 43, 0
2, 396304, Note_on_c, 0, 85, 85
2, 396304, Note_on_c, 0, 97, 90
2, 396304, Note_on_c, 0, 94, 80
2, 396348, Note_on_c, 0, 85, 0
2, 396348, Control_c, 0, 64, 56
2, 396352, Note_on_c, 0, 97, 0
2, 396360, Note_on_c, 0, 94, 0
2, 396360, Control_c, 0, 64, 0
2, 396396, Note_on_c, 0, 95, 103
2, 396396, Note_on_c, 0, 98, 105
2, 396400, Note_on_c, 0, 86, 94
2, 396404, Note_on_c, 0, 54, 74
2, 396404, Note_on_c, 0, 62, 78
2, 396408, Note_on_c, 0, 50, 78
2, 396408, Control_c, 0, 64, 40
2, 396420, Control_c, 0, 64, 88
2, 396428, Control_c, 0, 64, 127
2, 396440, Note_on_c, 0, 86, 0
2, 396452, Note_on_c, 0, 62, 0
2, 396456, Note_on_c, 0, 50, 0
2, 396460, Note_on_c, 0, 54, 0
2, 396472, Note_on_c, 0, 98, 0
2, 396472, Note_on_c, 0, 95, 0
2, 396528, Control_c, 0, 64, 88
2, 396540, Control_c, 0, 64, 40
2, 396548, Control_c, 0, 64, 24
2, 396556, Note_on_c, 0, 98, 102
2, 396556, Note_on_c, 0, 95, 98
2, 396560, Note_on_c, 0, 54, 82
2, 396560, Note_on_c, 0, 86, 92
2, 396560, Control_c, 0, 64, 40
2, 396564, Note_on_c, 0, 62, 85
2, 396564, Note_on_c, 0, 50, 78
2, 396572, Control_c, 0, 64, 56
2, 396580, Control_c, 0, 64, 88
2, 396584, Note_on_c, 0, 50, 0
2, 396588, Note_on_c, 0, 62, 0
2, 396592, Note_on_c, 0, 86, 0
2, 396592, Control_c, 0, 64, 104
2, 396596, Note_on_c, 0, 95, 0
2, 396600, Note_on_c, 0, 54, 0
2, 396600, Note_on_c, 0, 98, 0
2, 396600, Control_c, 0, 64, 88
2, 396612, Control_c, 0, 64, 56
2, 396620, Control_c, 0, 64, 0
2, 396640, Note_on_c, 0, 100, 110
2, 396644, Note_on_c, 0, 96, 110
2, 396648, Note_on_c, 0, 88, 102
2, 396648, Note_on_c, 0, 54, 70
2, 396656, Note_on_c, 0, 62, 80
2, 396656, Note_on_c, 0, 50, 74
2, 396660, Control_c, 0, 64, 40
2, 396668, Control_c, 0, 64, 88
2, 396672, Note_on_c, 0, 62, 0
2, 396680, Control_c, 0, 64, 127
2, 396692, Note_on_c, 0, 54, 0
2, 396700, Note_on_c, 0, 50, 0
2, 396704, Note_on_c, 0, 96, 0
2, 396708, Note_on_c, 0, 100, 0
2, 396712, Note_on_c, 0, 88, 0
2, 396812, Note_on_c, 0, 98, 101
2, 396812, Note_on_c, 0, 95, 102
2, 396812, Note_on_c, 0, 86, 101
2, 396848, Note_on_c, 0, 86, 0
2, 396848, Note_on_c, 0, 95, 0
2, 396856, Note_on_c, 0, 98, 0
2, 396864, Control_c, 0, 64, 104
2, 396872, Control_c, 0, 64, 56
2, 396880, Control_c, 0, 64, 0
2, 396908, Note_on_c, 0, 98, 103
2, 396908, Note_on_c, 0, 43, 77
2, 396908, Note_on_c, 0, 50, 85
2, 396908, Note_on_c, 0, 95, 110
2, 396908, Note_on_c, 0, 55, 80
2, 396912, Note_on_c, 0, 47, 83
2, 396912, Note_on_c, 0, 86, 111
2, 396932, Control_c, 0, 64, 24
2, 396940, Note_on_c, 0, 43, 0
2, 396944, Control_c, 0, 64, 88
2, 396948, Note_on_c, 0, 50, 0
2, 396952, Note_on_c, 0, 47, 0
2, 396952, Control_c, 0, 64, 127
2, 396960, Note_on_c, 0, 55, 0
2, 396984, Note_on_c, 0, 98, 0
2, 396988, Note_on_c, 0, 86, 0
2, 396992, Note_on_c, 0, 95, 0
2, 397088, Note_on_c, 0, 95, 106
2, 397088, Note_on_c, 0, 86, 102
2, 397088, Note_on_c, 0, 98, 101
2, 397116, Note_on_c, 0, 98, 0
2, 397120, Note_on_c, 0, 86, 0
2, 397120, Note_on_c, 0, 95, 0
2, 397136, Control_c, 0, 64, 104
2, 397144, Control_c, 0, 64, 40
2, 397156, Control_c, 0, 64, 0
2, 397176, Note_on_c, 0, 100, 108
2, 397176, Note_on_c, 0, 96, 111
2, 397176, Note_on_c, 0, 88, 106
2, 397180, Note_on_c, 0, 54, 77
2, 397180, Note_on_c, 0, 50, 75
2, 397180, Note_on_c, 0, 62, 78
2, 397188, Note_on_c, 0, 57, 69
2, 397196, Control_c, 0, 64, 24
2, 397200, Note_on_c, 0, 50, 0
2, 397204, Control_c, 0, 64, 88
2, 397208, Note_on_c, 0, 57, 0
2, 397216, Control_c, 0, 64, 127
2, 397220, Note_on_c, 0, 54, 0
2, 397232, Note_on_c, 0, 62, 0
2, 397236, Note_on_c, 0, 100, 0
2, 397236, Note_on_c, 0, 96, 0
2, 397240, Note_on_c, 0, 88, 0
2, 397340, Note_on_c, 0, 98, 97
2, 397340, Note_on_c, 0, 95, 102
2, 397340, Note_on_c, 0, 86, 100
2, 397372, Note_on_c, 0, 98, 0
2, 397376, Note_on_c, 0, 86, 0
2, 397376, Note_on_c, 0, 95, 0
2, 397396, Control_c, 0, 64, 56
2, 397408, Control_c, 0, 64, 0
2, 397436, Note_on_c, 0, 98, 120
2, 397436, Note_on_c, 0, 86, 120
2, 397436, Note_on_c, 0, 62, 86
2, 397436, Note_on_c, 0, 67, 85
2, 397436, Note_on_c, 0, 95, 106
2, 397440, Note_on_c, 0, 55, 71
2, 397440, Note_on_c, 0, 59, 72
2, 397456, Control_c, 0, 64, 40
2, 397460, Note_on_c, 0, 55, 0
2, 397468, Note_on_c, 0, 59, 0
2, 397468, Control_c, 0, 64, 127
2, 397476, Note_on_c, 0, 62, 0
2, 397484, Note_on_c, 0, 67, 0
2, 397508, Note_on_c, 0, 98, 0
2, 397516, Note_on_c, 0, 86, 0
2, 397516, Note_on_c, 0, 95, 0
2, 397608, Note_on_c, 0, 98, 101
2, 397608, Note_on_c, 0, 86, 100
2, 397608, Note_on_c, 0, 95, 96
2, 397640, Note_on_c, 0, 98, 0
2, 397644, Note_on_c, 0, 95, 0
2, 397644, Note_on_c, 0, 86, 0
2, 397660, Control_c, 0, 64, 88
2, 397668, Control_c, 0, 64, 0
2, 397692, Note_on_c, 0, 66, 73
2, 397696, Note_on_c, 0, 100, 111
2, 397696, Note_on_c, 0, 96, 108
2, 397696, Note_on_c, 0, 88, 108
2, 397700, Note_on_c, 0, 74, 81
2, 397700, Note_on_c, 0, 69, 75
2, 397700, Note_on_c, 0, 62, 72
2, 397720, Note_on_c, 0, 62, 0
2, 397720, Control_c, 0, 64, 72
2, 397724, Note_on_c, 0, 69, 0
2, 397728, Control_c, 0, 64, 127
2, 397736, Note_on_c, 0, 96, 0
2, 397736, Note_on_c, 0, 88, 0
2, 397740, Note_on_c, 0, 66, 0
2, 397740, Note_on_c, 0, 74, 0
2, 397748, Note_on_c, 0, 100, 0
2, 397860, Note_on_c, 0, 98, 100
2, 397864, Note_on_c, 0, 86, 101
2, 397864, Note_on_c, 0, 95, 98
2, 397892, Note_on_c, 0, 98, 0
2, 397900, Note_on_c, 0, 95, 0
2, 397900, Note_on_c, 0, 86, 0
2, 397920, Control_c, 0, 64, 104
2, 397928, Control_c, 0, 64, 24
2, 397940, Control_c, 0, 64, 0
2, 397948, Note_on_c, 0, 98, 98
2, 397952, Note_on_c, 0, 86, 106
2, 397952, Note_on_c, 0, 95, 94
2, 397952, Note_on_c, 0, 79, 85
2, 397956, Note_on_c, 0, 74, 78
2, 397956, Note_on_c, 0, 67, 71
2, 397960, Note_on_c, 0, 71, 71
2, 397972, Control_c, 0, 64, 24
2, 397980, Control_c, 0, 64, 88
2, 397984, Note_on_c, 0, 71, 0
2, 397984, Note_on_c, 0, 79, 0
2, 397988, Note_on_c, 0, 95, 0
2, 397992, Note_on_c, 0, 74, 0
2, 397992, Control_c, 0, 64, 127
2, 398000, Note_on_c, 0, 98, 0
2, 398000, Note_on_c, 0, 86, 0
2, 398008, Note_on_c, 0, 67, 0
2, 398152, Control_c, 0, 64, 88
2, 398164, Control_c, 0, 64, 24
2, 398172, Control_c, 0, 64, 0
2, 398196, Note_on_c, 0, 95, 111
2, 398200, Note_on_c, 0, 83, 105
2, 398200, Note_on_c, 0, 90, 92
2, 398204, Note_on_c, 0, 71, 82
2, 398204, Note_on_c, 0, 87, 86
2, 398204, Note_on_c, 0, 66, 71
2, 398204, Note_on_c, 0, 63, 71
2, 398204, Note_on_c, 0, 59, 69
2, 398224, Control_c, 0, 64, 56
2, 398232, Note_on_c, 0, 59, 0
2, 398232, Control_c, 0, 64, 127
2, 398240, Note_on_c, 0, 66, 0
2, 398248, Note_on_c, 0, 71, 0
2, 398248, Note_on_c, 0, 95, 0
2, 398248, Note_on_c, 0, 63, 0
2, 398252, Note_on_c, 0, 83, 0
2, 398260, Note_on_c, 0, 87, 0
2, 398264, Note_on_c, 0, 90, 0
2, 398396, Control_c, 0, 64, 72
2, 398404, Control_c, 0, 64, 24
2, 398416, Control_c, 0, 64, 0
2, 398452, Note_on_c, 0, 92, 103
2, 398456, Note_on_c, 0, 80, 100
2, 398460, Note_on_c, 0, 76, 81
2, 398460, Note_on_c, 0, 68, 73
2, 398460, Note_on_c, 0, 64, 75
2, 398460, Note_on_c, 0, 83, 94
2, 398464, Note_on_c, 0, 71, 83
2, 398464, Note_on_c, 0, 88, 87
2, 398476, Control_c, 0, 64, 56
2, 398484, Control_c, 0, 64, 127
2, 398496, Note_on_c, 0, 76, 0
2, 398500, Note_on_c, 0, 71, 0
2, 398512, Note_on_c, 0, 68, 0
2, 398512, Note_on_c, 0, 83, 0
2, 398516, Note_on_c, 0, 64, 0
2, 398516, Note_on_c, 0, 88, 0
2, 398524, Note_on_c, 0, 80, 0
2, 398532, Note_on_c, 0, 92, 0
2, 398644, Control_c, 0, 64, 88
2, 398656, Control_c, 0, 64, 56
2, 398668, Control_c, 0, 64, 0
2, 398704, Note_on_c, 0, 91, 108
2, 398708, Note_on_c, 0, 79, 103
2, 398708, Note_on_c, 0, 86, 98
2, 398712, Note_on_c, 0, 67, 81
2, 398712, Note_on_c, 0, 83, 94
2, 398712, Note_on_c, 0, 62, 83
2, 398712, Note_on_c, 0, 55, 79
2, 398716, Note_on_c, 0, 59, 70
2, 398736, Control_c, 0, 64, 88
2, 398740, Note_on_c, 0, 59, 0
2, 398740, Note_on_c, 0, 55, 0
2, 398744, Control_c, 0, 64, 127
2, 398752, Note_on_c, 0, 62, 0
2, 398760, Note_on_c, 0, 67, 0
2, 398764, Note_on_c, 0, 86, 0
2, 398764, Note_on_c, 0, 83, 0
2, 398768, Note_on_c, 0, 91, 0
2, 398776, Note_on_c, 0, 79, 0
2, 398920, Control_c, 0, 64, 104
2, 398928, Control_c, 0, 64, 40
2, 398940, Control_c, 0, 64, 0
2, 398952, Note_on_c, 0, 88, 106
2, 398956, Note_on_c, 0, 76, 100
2, 398960, Note_on_c, 0, 79, 94
2, 398960, Note_on_c, 0, 67, 85
2, 398960, Note_on_c, 0, 84, 89
2, 398960, Note_on_c, 0, 72, 95
2, 398964, Note_on_c, 0, 60, 78
2, 398964, Note_on_c, 0, 64, 80
2, 398988, Control_c, 0, 64, 40
2, 398996, Note_on_c, 0, 67, 0
2, 399000, Note_on_c, 0, 72, 0
2, 399000, Control_c, 0, 64, 104
2, 399004, Note_on_c, 0, 64, 0
2, 399008, Note_on_c, 0, 60, 0
2, 399008, Control_c, 0, 64, 127
2, 399012, Note_on_c, 0, 76, 0
2, 399020, Note_on_c, 0, 88, 0
2, 399028, Note_on_c, 0, 84, 0
2, 399036, Note_on_c, 0, 79, 0
2, 399160, Control_c, 0, 64, 104
2, 399168, Control_c, 0, 64, 56
2, 399180, Control_c, 0, 64, 0
2, 399196, Note_on_c, 0, 87, 103
2, 399196, Note_on_c, 0, 63, 85
2, 399196, Note_on_c, 0, 51, 80
2, 399200, Note_on_c, 0, 75, 104
2, 399200, Note_on_c, 0, 82, 94
2, 399200, Note_on_c, 0, 58, 74
2, 399208, Note_on_c, 0, 55, 77
2, 399208, Note_on_c, 0, 79, 92
2, 399224, Note_on_c, 0, 55, 0
2, 399228, Control_c, 0, 64, 24
2, 399236, Note_on_c, 0, 51, 0
2, 399240, Note_on_c, 0, 58, 0
2, 399240, Note_on_c, 0, 63, 0
2, 399240, Control_c, 0, 64, 88
2, 399248, Control_c, 0, 64, 127
2, 399252, Note_on_c, 0, 79, 0
2, 399260, Note_on_c, 0, 75, 0
2, 399264, Note_on_c, 0, 82, 0
2, 399268, Note_on_c, 0, 87, 0
2, 399412, Control_c, 0, 64, 72
2, 399420, Control_c, 0, 64, 0
2, 399448, Note_on_c, 0, 84, 103
2, 399448, Note_on_c, 0, 80, 93
2, 399448, Note_on_c, 0, 72, 105
2, 399452, Note_on_c, 0, 75, 87
2, 399452, Note_on_c, 0, 68, 88
2, 399452, Note_on_c, 0, 63, 79
2, 399456, Note_on_c, 0, 56, 70
2, 399460, Note_on_c, 0, 60, 72
2, 399484, Note_on_c, 0, 60, 0
2, 399492, Note_on_c, 0, 63, 0
2, 399492, Control_c, 0, 64, 104
2, 399496, Note_on_c, 0, 68, 0
2, 399500, Note_on_c, 0, 75, 0
2, 399500, Note_on_c, 0, 72, 0
2, 399500, Control_c, 0, 64, 127
2, 399504, Note_on_c, 0, 56, 0
2, 399528, Note_on_c, 0, 80, 0
2, 399532, Note_on_c, 0, 84, 0
2, 399664, Control_c, 0, 64, 72
2, 399672, Control_c, 0, 64, 0
2, 399688, Note_on_c, 0, 54, 80
2, 399692, Note_on_c, 0, 86, 105
2, 399696, Note_on_c, 0, 62, 78
2, 399696, Note_on_c, 0, 74, 105
2, 399696, Note_on_c, 0, 81, 101
2, 399696, Note_on_c, 0, 50, 80
2, 399700, Note_on_c, 0, 78, 89
2, 399700, Note_on_c, 0, 57, 79
2, 399728, Note_on_c, 0, 50, 0
2, 399732, Control_c, 0, 64, 56
2, 399736, Note_on_c, 0, 57, 0
2, 399744, Note_on_c, 0, 54, 0
2, 399744, Control_c, 0, 64, 127
2, 399748, Note_on_c, 0, 74, 0
2, 399752, Note_on_c, 0, 62, 0
2, 399756, Note_on_c, 0, 86, 0
2, 399756, Note_on_c, 0, 81, 0
2, 399764, Note_on_c, 0, 78, 0
2, 399916, Control_c, 0, 64, 104
2, 399924, Control_c, 0, 64, 24
2, 399936, Control_c, 0, 64, 0
2, 399940, Note_on_c, 0, 83, 110
2, 399944, Note_on_c, 0, 74, 103
2, 399944, Note_on_c, 0, 71, 103
2, 399948, Note_on_c, 0, 79, 96
2, 399948, Note_on_c, 0, 67, 88
2, 399948, Note_on_c, 0, 62, 87
2, 399948, Note_on_c, 0, 59, 78
2, 399956, Note_on_c, 0, 55, 72
2, 399976, Control_c, 0, 64, 24
2, 399984, Note_on_c, 0, 67, 0
2, 399984, Control_c, 0, 64, 104
2, 399988, Note_on_c, 0, 62, 0
2, 399992, Note_on_c, 0, 59, 0
2, 399996, Note_on_c, 0, 55, 0
2, 399996, Control_c, 0, 64, 127
2, 400004, Note_on_c, 0, 71, 0
2, 400004, Note_on_c, 0, 74, 0
2, 400020, Note_on_c, 0, 79, 0
2, 400024, Note_on_c, 0, 83, 0
2, 400184, Note_on_c, 0, 83, 113
2, 400188, Note_on_c, 0, 71, 102
2, 400188, Note_on_c, 0, 78, 95
2, 400188, Note_on_c, 0, 75, 96
2, 400188, Note_on_c, 0, 51, 79
2, 400188, Control_c, 0, 64, 104
2, 400192, Note_on_c, 0, 54, 74
2, 400192, Note_on_c, 0, 47, 75
2, 400192, Note_on_c, 0, 59, 78
2, 400196, Control_c, 0, 64, 24
2, 400208, Control_c, 0, 64, 0
2, 400232, Note_on_c, 0, 54, 0
2, 400236, Note_on_c, 0, 47, 0
2, 400236, Note_on_c, 0, 51, 0
2, 400240, Note_on_c, 0, 59, 0
2, 400248, Note_on_c, 0, 71, 0
2, 400248, Control_c, 0, 64, 24
2, 400252, Note_on_c, 0, 75, 0
2, 400256, Note_on_c, 0, 83, 0
2, 400256, Note_on_c, 0, 78, 0
2, 400260, Control_c, 0, 64, 104
2, 400268, Control_c, 0, 64, 127
2, 400408, Control_c, 0, 64, 40
2, 400420, Control_c, 0, 64, 0
2, 400424, Note_on_c, 0, 80, 102
2, 400428, Note_on_c, 0, 68, 100
2, 400432, Note_on_c, 0, 71, 94
2, 400432, Note_on_c, 0, 64, 89
2, 400432, Note_on_c, 0, 56, 79
2, 400432, Note_on_c, 0, 76, 90
2, 400436, Note_on_c, 0, 52, 78
2, 400436, Note_on_c, 0, 59, 85
2, 400456, Control_c, 0, 64, 40
2, 400468, Note_on_c, 0, 64, 0
2, 400468, Control_c, 0, 64, 104
2, 400472, Note_on_c, 0, 59, 0
2, 400476, Control_c, 0, 64, 127
2, 400484, Note_on_c, 0, 56, 0
2, 400484, Note_on_c, 0, 71, 0
2, 400484, Note_on_c, 0, 52, 0
2, 400500, Note_on_c, 0, 68, 0
2, 400500, Note_on_c, 0, 76, 0
2, 400504, Note_on_c, 0, 80, 0
2, 400660, Control_c, 0, 64, 72
2, 400664, Note_on_c, 0, 79, 108
2, 400668, Note_on_c, 0, 71, 94
2, 400672, Note_on_c, 0, 67, 100
2, 400672, Note_on_c, 0, 74, 97
2, 400672, Note_on_c, 0, 55, 85
2, 400672, Control_c, 0, 64, 0
2, 400676, Note_on_c, 0, 50, 86
2, 400676, Note_on_c, 0, 43, 80
2, 400676, Note_on_c, 0, 47, 80
2, 400704, Note_on_c, 0, 47, 0
2, 400704, Note_on_c, 0, 43, 0
2, 400708, Note_on_c, 0, 50, 0
2, 400716, Note_on_c, 0, 67, 0
2, 400716, Note_on_c, 0, 55, 0
2, 400720, Note_on_c, 0, 71, 0
2, 400720, Note_on_c, 0, 74, 0
2, 400720, Control_c, 0, 64, 56
2, 400724, Note_on_c, 0, 79, 0
2, 400732, Control_c, 0, 64, 127
2, 400904, Note_on_c, 0, 76, 106
2, 400908, Note_on_c, 0, 64, 101
2, 400908, Note_on_c, 0, 60, 95
2, 400912, Note_on_c, 0, 72, 95
2, 400912, Control_c, 0, 64, 24
2, 400916, Note_on_c, 0, 55, 87
2, 400916, Note_on_c, 0, 52, 82
2, 400916, Note_on_c, 0, 67, 89
2, 400916, Note_on_c, 0, 48, 80
2, 400920, Control_c, 0, 64, 0
2, 400948, Note_on_c, 0, 55, 0
2, 400948, Note_on_c, 0, 60, 0
2, 400960, Note_on_c, 0, 48, 0
2, 400960, Note_on_c, 0, 64, 0
2, 400960, Note_on_c, 0, 52, 0
2, 400964, Control_c, 0, 64, 40
2, 400972, Note_on_c, 0, 76, 0
2, 400972, Control_c, 0, 64, 127
2, 400976, Note_on_c, 0, 72, 0
2, 400984, Note_on_c, 0, 67, 0
2, 401140, Note_on_c, 0, 39, 73
2, 401144, Note_on_c, 0, 51, 85
2, 401144, Control_c, 0, 64, 40
2, 401148, Note_on_c, 0, 75, 103
2, 401148, Note_on_c, 0, 63, 98
2, 401148, Note_on_c, 0, 46, 77
2, 401152, Note_on_c, 0, 70, 89
2, 401152, Note_on_c, 0, 67, 89
2, 401156, Note_on_c, 0, 43, 69
2, 401156, Control_c, 0, 64, 0
2, 401172, Note_on_c, 0, 43, 0
2, 401184, Note_on_c, 0, 46, 0
2, 401184, Note_on_c, 0, 39, 0
2, 401188, Note_on_c, 0, 51, 0
2, 401196, Note_on_c, 0, 67, 0
2, 401196, Control_c, 0, 64, 56
2, 401204, Note_on_c, 0, 63, 0
2, 401204, Note_on_c, 0, 70, 0
2, 401204, Control_c, 0, 64, 127
2, 401208, Note_on_c, 0, 75, 0
2, 401384, Control_c, 0, 64, 40
2, 401388, Note_on_c, 0, 56, 89
2, 401388, Note_on_c, 0, 60, 118
2, 401392, Note_on_c, 0, 72, 115
2, 401392, Note_on_c, 0, 68, 95
2, 401392, Note_on_c, 0, 51, 83
2, 401392, Note_on_c, 0, 63, 86
2, 401396, Note_on_c, 0, 44, 71
2, 401396, Control_c, 0, 64, 0
2, 401404, Note_on_c, 0, 48, 78
2, 401420, Note_on_c, 0, 48, 0
2, 401428, Note_on_c, 0, 63, 0
2, 401428, Note_on_c, 0, 51, 0
2, 401428, Control_c, 0, 64, 24
2, 401432, Note_on_c, 0, 56, 0
2, 401436, Control_c, 0, 64, 72
2, 401440, Note_on_c, 0, 60, 0
2, 401440, Note_on_c, 0, 44, 0
2, 401448, Control_c, 0, 64, 127
2, 401460, Note_on_c, 0, 68, 0
2, 401468, Note_on_c, 0, 72, 0
2, 401608, Control_c, 0, 64, 72
2, 401616, Note_on_c, 0, 74, 106
2, 401616, Note_on_c, 0, 69, 103
2, 401620, Note_on_c, 0, 66, 88
2, 401620, Note_on_c, 0, 62, 103
2, 401620, Note_on_c, 0, 38, 81
2, 401620, Note_on_c, 0, 50, 85
2, 401620, Note_on_c, 0, 42, 80
2, 401620, Control_c, 0, 64, 0
2, 401624, Note_on_c, 0, 45, 87
2, 401648, Note_on_c, 0, 38, 0
2, 401652, Note_on_c, 0, 45, 0
2, 401660, Note_on_c, 0, 42, 0
2, 401668, Note_on_c, 0, 62, 0
2, 401668, Note_on_c, 0, 69, 0
2, 401668, Control_c, 0, 64, 56
2, 401672, Note_on_c, 0, 74, 0
2, 401672, Note_on_c, 0, 66, 0
2, 401676, Note_on_c, 0, 50, 0
2, 401680, Control_c, 0, 64, 127
2, 401836, Control_c, 0, 64, 56
2, 401848, Control_c, 0, 64, 0
2, 401852, Note_on_c, 0, 71, 105
2, 401852, Note_on_c, 0, 59, 105
2, 401856, Note_on_c, 0, 55, 94
2, 401856, Note_on_c, 0, 43, 86
2, 401856, Note_on_c, 0, 67, 94
2, 401856, Note_on_c, 0, 62, 98
2, 401856, Note_on_c, 0, 50, 93
2, 401864, Note_on_c, 0, 47, 81
2, 401880, Note_on_c, 0, 47, 0
2, 401884, Note_on_c, 0, 50, 0
2, 401888, Note_on_c, 0, 55, 0
2, 401896, Note_on_c, 0, 62, 0
2, 401900, Note_on_c, 0, 43, 0
2, 401900, Control_c, 0, 64, 72
2, 401908, Note_on_c, 0, 59, 0
2, 401908, Control_c, 0, 64, 127
2, 401916, Note_on_c, 0, 67, 0
2, 401928, Note_on_c, 0, 71, 0
2, 402076, Note_on_c, 0, 42, 83
2, 402076, Note_on_c, 0, 35, 80
2, 402080, Note_on_c, 0, 71, 105
2, 402080, Note_on_c, 0, 47, 92
2, 402080, Note_on_c, 0, 66, 96
2, 402080, Note_on_c, 0, 39, 67
2, 402080, Note_on_c, 0, 59, 102
2, 402080, Note_on_c, 0, 63, 89
2, 402080, Control_c, 0, 64, 56
2, 402088, Control_c, 0, 64, 0
2, 402108, Note_on_c, 0, 35, 0
2, 402108, Note_on_c, 0, 42, 0
2, 402116, Note_on_c, 0, 39, 0
2, 402124, Note_on_c, 0, 59, 0
2, 402128, Note_on_c, 0, 47, 0
2, 402128, Note_on_c, 0, 63, 0
2, 402128, Note_on_c, 0, 71, 0
2, 402132, Control_c, 0, 64, 40
2, 402136, Note_on_c, 0, 66, 0
2, 402140, Control_c, 0, 64, 127
2, 402300, Control_c, 0, 64, 40
2, 402308, Note_on_c, 0, 68, 97
2, 402312, Note_on_c, 0, 56, 102
2, 402312, Note_on_c, 0, 52, 95
2, 402312, Note_on_c, 0, 44, 80
2, 402312, Control_c, 0, 64, 0
2, 402316, Note_on_c, 0, 47, 95
2, 402316, Note_on_c, 0, 59, 94
2, 402316, Note_on_c, 0, 40, 83
2, 402316, Note_on_c, 0, 64, 87
2, 402340, Control_c, 0, 64, 40
2, 402348, Note_on_c, 0, 52, 0
2, 402352, Note_on_c, 0, 47, 0
2, 402352, Control_c, 0, 64, 104
2, 402364, Note_on_c, 0, 44, 0
2, 402364, Control_c, 0, 64, 127
2, 402368, Note_on_c, 0, 59, 0
2, 402368, Note_on_c, 0, 40, 0
2, 402372, Note_on_c, 0, 64, 0
2, 402380, Note_on_c, 0, 56, 0
2, 402396, Note_on_c, 0, 68, 0
2, 402456, Note_on_c, 0, 39, 28
2, 402480, Note_on_c, 0, 39, 0
2, 402524, Control_c, 0, 64, 88
2, 402532, Control_c, 0, 64, 0
2, 402540, Note_on_c, 0, 67, 108
2, 402540, Note_on_c, 0, 31, 85
2, 402540, Note_on_c, 0, 43, 86
2, 402540, Note_on_c, 0, 55, 115
2, 402544, Note_on_c, 0, 38, 87
2, 402544, Note_on_c, 0, 59, 93
2, 402544, Note_on_c, 0, 62, 97
2, 402544, Note_on_c, 0, 35, 80
2, 402572, Control_c, 0, 64, 40
2, 402576, Note_on_c, 0, 38, 0
2, 402580, Note_on_c, 0, 31, 0
2, 402584, Note_on_c, 0, 35, 0
2, 402584, Control_c, 0, 64, 127
2, 402592, Note_on_c, 0, 55, 0
2, 402596, Note_on_c, 0, 67, 0
2, 402596, Note_on_c, 0, 43, 0
2, 402600, Note_on_c, 0, 62, 0
2, 402604, Note_on_c, 0, 59, 0
2, 402756, Control_c, 0, 64, 72
2, 402764, Control_c, 0, 64, 0
2, 402768, Note_on_c, 0, 64, 105
2, 402772, Note_on_c, 0, 52, 110
2, 402776, Note_on_c, 0, 55, 102
2, 402776, Note_on_c, 0, 43, 103
2, 402776, Note_on_c, 0, 36, 89
2, 402776, Note_on_c, 0, 60, 97
2, 402780, Note_on_c, 0, 48, 108
2, 402780, Note_on_c, 0, 40, 87
2, 402804, Control_c, 0, 64, 56
2, 402812, Note_on_c, 0, 48, 0
2, 402816, Control_c, 0, 64, 127
2, 402820, Note_on_c, 0, 40, 0
2, 402820, Note_on_c, 0, 43, 0
2, 402820, Note_on_c, 0, 36, 0
2, 402828, Note_on_c, 0, 52, 0
2, 402844, Note_on_c, 0, 55, 0
2, 402848, Note_on_c, 0, 64, 0
2, 402852, Note_on_c, 0, 60, 0
2, 403036, Control_c, 0, 64, 104
2, 403048, Control_c, 0, 64, 72
2, 403056, Control_c, 0, 64, 24
2, 403068, Control_c, 0, 64, 0
2, 403208, Note_on_c, 0, 63, 104
2, 403212, Note_on_c, 0, 51, 111
2, 403212, Note_on_c, 0, 58, 83
2, 403212, Note_on_c, 0, 27, 85
2, 403216, Note_on_c, 0, 55, 100
2, 403216, Note_on_c, 0, 34, 95
2, 403216, Note_on_c, 0, 39, 104
2, 403220, Note_on_c, 0, 31, 89
2, 403228, Control_c, 0, 64, 40
2, 403236, Control_c, 0, 64, 127
2, 403240, Note_on_c, 0, 31, 0
2, 403252, Note_on_c, 0, 39, 0
2, 403256, Note_on_c, 0, 27, 0
2, 403264, Note_on_c, 0, 51, 0
2, 403264, Note_on_c, 0, 34, 0
2, 403276, Note_on_c, 0, 55, 0
2, 403280, Note_on_c, 0, 63, 0
2, 403284, Note_on_c, 0, 58, 0
2, 403480, Control_c, 0, 64, 72
2, 403488, Control_c, 0, 64, 40
2, 403500, Control_c, 0, 64, 0
2, 403664, Note_on_c, 0, 60, 111
2, 403664, Note_on_c, 0, 56, 92
2, 403664, Note_on_c, 0, 48, 118
2, 403668, Note_on_c, 0, 51, 98
2, 403672, Note_on_c, 0, 39, 94
2, 403672, Note_on_c, 0, 32, 85
2, 403672, Note_on_c, 0, 44, 104
2, 403676, Note_on_c, 0, 36, 87
2, 403692, Control_c, 0, 64, 40
2, 403700, Control_c, 0, 64, 127
2, 403720, Note_on_c, 0, 44, 0
2, 403724, Note_on_c, 0, 36, 0
2, 403724, Note_on_c, 0, 32, 0
2, 403728, Note_on_c, 0, 48, 0
2, 403728, Note_on_c, 0, 39, 0
2, 403732, Note_on_c, 0, 51, 0
2, 403752, Note_on_c, 0, 56, 0
2, 403760, Note_on_c, 0, 60, 0
2, 403972, Control_c, 0, 64, 104
2, 403984, Control_c, 0, 64, 72
2, 403992, Control_c, 0, 64, 40
2, 404004, Control_c, 0, 64, 0
2, 404140, Note_on_c, 0, 62, 111
2, 404140, Note_on_c, 0, 54, 100
2, 404140, Note_on_c, 0, 30, 81
2, 404140, Note_on_c, 0, 33, 95
2, 404140, Note_on_c, 0, 38, 103
2, 404140, Note_on_c, 0, 26, 94
2, 404140, Note_on_c, 0, 57, 100
2, 404140, Note_on_c, 0, 50, 117
2, 404176, Control_c, 0, 64, 88
2, 404184, Note_on_c, 0, 26, 0
2, 404184, Control_c, 0, 64, 127
2, 404192, Note_on_c, 0, 33, 0
2, 404192, Note_on_c, 0, 38, 0
2, 404196, Note_on_c, 0, 30, 0
2, 404200, Note_on_c, 0, 50, 0
2, 404224, Note_on_c, 0, 54, 0
2, 404224, Note_on_c, 0, 57, 0
2, 404228, Note_on_c, 0, 62, 0
2, 404620, Note_on_c, 0, 43, 118
2, 404620, Note_on_c, 0, 38, 105
2, 404620, Note_on_c, 0, 31, 88
2, 404624, Note_on_c, 0, 35, 87
2, 404632, Control_c, 0, 64, 104
2, 404640, Note_on_c, 0, 35, 0
2, 404644, Control_c, 0, 64, 127
2, 404648, Note_on_c, 0, 31, 0
2, 404656, Note_on_c, 0, 38, 0
2, 404672, Note_on_c, 0, 43, 0
2, 404732, Note_on_c, 0, 59, 94
2, 404732, Note_on_c, 0, 47, 100
2, 404736, Note_on_c, 0, 55, 94
2, 404780, Note_on_c, 0, 47, 0
2, 404796, Note_on_c, 0, 55, 0
2, 404804, Note_on_c, 0, 59, 0
2, 404820, Note_on_c, 0, 46, 117
2, 404824, Note_on_c, 0, 34, 96
2, 404852, Note_on_c, 0, 46, 0
2, 404856, Note_on_c, 0, 34, 0
2, 404916, Note_on_c, 0, 47, 96
2, 404916, Note_on_c, 0, 59, 95
2, 404916, Note_on_c, 0, 55, 89
2, 404948, Note_on_c, 0, 47, 0
2, 404952, Note_on_c, 0, 55, 0
2, 404964, Note_on_c, 0, 59, 0
2, 405012, Control_c, 0, 64, 72
2, 405020, Note_on_c, 0, 47, 118
2, 405020, Note_on_c, 0, 35, 97
2, 405020, Control_c, 0, 64, 24
2, 405028, Control_c, 0, 64, 0
2, 405040, Control_c, 0, 64, 24
2, 405048, Control_c, 0, 64, 72
2, 405052, Note_on_c, 0, 35, 0
2, 405056, Control_c, 0, 64, 127
2, 405060, Note_on_c, 0, 47, 0
2, 405116, Note_on_c, 0, 50, 96
2, 405116, Note_on_c, 0, 62, 94
2, 405120, Note_on_c, 0, 59, 71
2, 405120, Note_on_c, 0, 55, 80
2, 405144, Note_on_c, 0, 55, 0
2, 405160, Note_on_c, 0, 50, 0
2, 405180, Note_on_c, 0, 59, 0
2, 405188, Note_on_c, 0, 62, 0
2, 405200, Note_on_c, 0, 49, 117
2, 405204, Note_on_c, 0, 37, 88
2, 405236, Note_on_c, 0, 37, 0
2, 405236, Note_on_c, 0, 49, 0
2, 405300, Note_on_c, 0, 50, 100
2, 405300, Note_on_c, 0, 62, 96
2, 405304, Note_on_c, 0, 55, 78
2, 405308, Note_on_c, 0, 59, 69
2, 405324, Note_on_c, 0, 59, 0
2, 405324, Note_on_c, 0, 55, 0
2, 405340, Note_on_c, 0, 50, 0
2, 405356, Note_on_c, 0, 62, 0
2, 405388, Control_c, 0, 64, 56
2, 405396, Control_c, 0, 64, 0
2, 405400, Note_on_c, 0, 50, 118
2, 405400, Note_on_c, 0, 38, 101
2, 405436, Note_on_c, 0, 38, 0
2, 405436, Control_c, 0, 64, 56
2, 405444, Note_on_c, 0, 50, 0
2, 405444, Control_c, 0, 64, 127
2, 405492, Note_on_c, 0, 67, 96
2, 405492, Note_on_c, 0, 55, 96
2, 405496, Note_on_c, 0, 62, 80
2, 405496, Note_on_c, 0, 59, 77
2, 405532, Note_on_c, 0, 55, 0
2, 405536, Note_on_c, 0, 59, 0
2, 405548, Note_on_c, 0, 62, 0
2, 405564, Note_on_c, 0, 67, 0
2, 405584, Note_on_c, 0, 54, 106
2, 405588, Note_on_c, 0, 42, 89
2, 405620, Note_on_c, 0, 42, 0
2, 405620, Note_on_c, 0, 54, 0
2, 405672, Note_on_c, 0, 55, 97
2, 405672, Note_on_c, 0, 62, 94
2, 405672, Note_on_c, 0, 67, 96
2, 405676, Note_on_c, 0, 59, 63
2, 405696, Note_on_c, 0, 59, 0
2, 405708, Note_on_c, 0, 55, 0
2, 405708, Note_on_c, 0, 62, 0
2, 405728, Note_on_c, 0, 67, 0
2, 405764, Control_c, 0, 64, 40
2, 405768, Note_on_c, 0, 55, 118
2, 405772, Note_on_c, 0, 43, 97
2, 405772, Control_c, 0, 64, 0
2, 405784, Control_c, 0, 64, 24
2, 405792, Control_c, 0, 64, 72
2, 405800, Note_on_c, 0, 43, 0
2, 405800, Control_c, 0, 64, 127
2, 405812, Note_on_c, 0, 55, 0
2, 405856, Note_on_c, 0, 71, 93
2, 405860, Note_on_c, 0, 59, 93
2, 405860, Note_on_c, 0, 67, 78
2, 405860, Note_on_c, 0, 62, 80
2, 405908, Note_on_c, 0, 62, 0
2, 405912, Note_on_c, 0, 59, 0
2, 405928, Note_on_c, 0, 71, 0
2, 405932, Note_on_c, 0, 67, 0
2, 405944, Note_on_c, 0, 58, 106
2, 405948, Note_on_c, 0, 46, 93
2, 405988, Note_on_c, 0, 46, 0
2, 405992, Note_on_c, 0, 58, 0
2, 406028, Note_on_c, 0, 71, 96
2, 406032, Note_on_c, 0, 59, 92
2, 406032, Note_on_c, 0, 62, 78
2, 406032, Note_on_c, 0, 67, 77
2, 406052, Note_on_c, 0, 62, 0
2, 406056, Note_on_c, 0, 59, 0
2, 406060, Note_on_c, 0, 67, 0
2, 406076, Note_on_c, 0, 71, 0
2, 406112, Control_c, 0, 64, 88
2, 406120, Note_on_c, 0, 59, 106
2, 406120, Note_on_c, 0, 47, 94
2, 406124, Control_c, 0, 64, 40
2, 406132, Control_c, 0, 64, 56
2, 406140, Control_c, 0, 64, 104
2, 406152, Control_c, 0, 64, 127
2, 406160, Note_on_c, 0, 47, 0
2, 406164, Note_on_c, 0, 59, 0
2, 406204, Note_on_c, 0, 74, 102
2, 406208, Note_on_c, 0, 62, 94
2, 406208, Note_on_c, 0, 67, 90
2, 406212, Note_on_c, 0, 71, 81
2, 406224, Note_on_c, 0, 64, 37
2, 406240, Note_on_c, 0, 64, 0
2, 406244, Note_on_c, 0, 62, 0
2, 406248, Note_on_c, 0, 67, 0
2, 406252, Note_on_c, 0, 71, 0
2, 406272, Note_on_c, 0, 74, 0
2, 406300, Note_on_c, 0, 61, 110
2, 406304, Note_on_c, 0, 49, 98
2, 406344, Note_on_c, 0, 49, 0
2, 406364, Note_on_c, 0, 61, 0
2, 406376, Note_on_c, 0, 74, 102
2, 406380, Note_on_c, 0, 62, 95
2, 406380, Note_on_c, 0, 67, 85
2, 406384, Note_on_c, 0, 71, 75
2, 406396, Note_on_c, 0, 67, 0
2, 406396, Note_on_c, 0, 62, 0
2, 406400, Note_on_c, 0, 71, 0
2, 406428, Note_on_c, 0, 74, 0
2, 406460, Control_c, 0, 64, 72
2, 406464, Note_on_c, 0, 62, 115
2, 406464, Note_on_c, 0, 50, 92
2, 406472, Control_c, 0, 64, 24
2, 406480, Control_c, 0, 64, 40
2, 406488, Control_c, 0, 64, 88
2, 406500, Note_on_c, 0, 50, 0
2, 406500, Control_c, 0, 64, 127
2, 406508, Note_on_c, 0, 62, 0
2, 406552, Note_on_c, 0, 79, 102
2, 406552, Note_on_c, 0, 67, 94
2, 406552, Note_on_c, 0, 71, 83
2, 406556, Note_on_c, 0, 74, 83
2, 406604, Note_on_c, 0, 67, 0
2, 406616, Note_on_c, 0, 74, 0
2, 406616, Note_on_c, 0, 71, 0
2, 406636, Note_on_c, 0, 79, 0
2, 406636, Note_on_c, 0, 66, 110
2, 406640, Note_on_c, 0, 54, 94
2, 406688, Note_on_c, 0, 54, 0
2, 406688, Note_on_c, 0, 66, 0
2, 406716, Note_on_c, 0, 67, 93
2, 406720, Note_on_c, 0, 79, 105
2, 406720, Note_on_c, 0, 74, 92
2, 406728, Note_on_c, 0, 71, 67
2, 406740, Note_on_c, 0, 71, 0
2, 406748, Note_on_c, 0, 67, 0
2, 406760, Note_on_c, 0, 74, 0
2, 406776, Note_on_c, 0, 79, 0
2, 406800, Control_c, 0, 64, 104
2, 406808, Note_on_c, 0, 67, 113
2, 406812, Note_on_c, 0, 55, 94
2, 406812, Control_c, 0, 64, 40
2, 406820, Control_c, 0, 64, 24
2, 406828, Control_c, 0, 64, 56
2, 406840, Control_c, 0, 64, 104
2, 406848, Note_on_c, 0, 55, 0
2, 406848, Note_on_c, 0, 67, 0
2, 406848, Control_c, 0, 64, 127
2, 406896, Note_on_c, 0, 71, 98
2, 406896, Note_on_c, 0, 83, 101
2, 406896, Note_on_c, 0, 74, 90
2, 406900, Note_on_c, 0, 79, 82
2, 406912, Note_on_c, 0, 61, 39
2, 406932, Note_on_c, 0, 61, 0
2, 406960, Note_on_c, 0, 71, 0
2, 406968, Note_on_c, 0, 83, 0
2, 406968, Note_on_c, 0, 74, 0
2, 406972, Note_on_c, 0, 79, 0
2, 406980, Note_on_c, 0, 61, 113
2, 406984, Note_on_c, 0, 49, 101
2, 407024, Note_on_c, 0, 49, 0
2, 407032, Note_on_c, 0, 61, 0
2, 407064, Note_on_c, 0, 83, 111
2, 407068, Note_on_c, 0, 74, 97
2, 407068, Note_on_c, 0, 71, 102
2, 407072, Note_on_c, 0, 79, 89
2, 407088, Note_on_c, 0, 74, 0
2, 407100, Note_on_c, 0, 71, 0
2, 407112, Note_on_c, 0, 79, 0
2, 407124, Note_on_c, 0, 83, 0
2, 407152, Note_on_c, 0, 62, 117
2, 407152, Control_c, 0, 64, 104
2, 407156, Note_on_c, 0, 50, 103
2, 407160, Control_c, 0, 64, 88
2, 407168, Control_c, 0, 64, 127
2, 407188, Note_on_c, 0, 62, 0
2, 407192, Note_on_c, 0, 50, 0
2, 407244, Note_on_c, 0, 86, 102
2, 407244, Note_on_c, 0, 74, 105
2, 407248, Note_on_c, 0, 83, 97
2, 407248, Note_on_c, 0, 79, 93
2, 407296, Note_on_c, 0, 74, 0
2, 407304, Note_on_c, 0, 79, 0
2, 407316, Note_on_c, 0, 83, 0
2, 407324, Note_on_c, 0, 86, 0
2, 407324, Note_on_c, 0, 58, 118
2, 407328, Note_on_c, 0, 46, 106
2, 407364, Note_on_c, 0, 46, 0
2, 407364, Note_on_c, 0, 58, 0
2, 407408, Note_on_c, 0, 86, 113
2, 407408, Note_on_c, 0, 74, 103
2, 407412, Note_on_c, 0, 79, 90
2, 407416, Note_on_c, 0, 83, 78
2, 407428, Note_on_c, 0, 79, 0
2, 407428, Note_on_c, 0, 82, 26
2, 407432, Note_on_c, 0, 83, 0
2, 407440, Note_on_c, 0, 74, 0
2, 407444, Note_on_c, 0, 82, 0
2, 407468, Note_on_c, 0, 86, 0
2, 407488, Control_c, 0, 64, 72
2, 407492, Note_on_c, 0, 59, 117
2, 407496, Note_on_c, 0, 47, 94
2, 407500, Control_c, 0, 64, 24
2, 407516, Control_c, 0, 64, 72
2, 407528, Control_c, 0, 64, 127
2, 407532, Note_on_c, 0, 47, 0
2, 407532, Note_on_c, 0, 59, 0
2, 407576, Note_on_c, 0, 91, 113
2, 407576, Note_on_c, 0, 86, 100
2, 407576, Note_on_c, 0, 79, 106
2, 407576, Note_on_c, 0, 83, 96
2, 407588, Note_on_c, 0, 54, 52
2, 407596, Note_on_c, 0, 42, 32
2, 407604, Note_on_c, 0, 54, 0
2, 407612, Note_on_c, 0, 42, 0
2, 407636, Note_on_c, 0, 79, 0
2, 407640, Note_on_c, 0, 83, 0
2, 407640, Note_on_c, 0, 86, 0
2, 407656, Note_on_c, 0, 91, 0
2, 407656, Note_on_c, 0, 54, 118
2, 407660, Note_on_c, 0, 42, 97
2, 407696, Note_on_c, 0, 42, 0
2, 407728, Note_on_c, 0, 54, 0
2, 407748, Note_on_c, 0, 79, 105
2, 407748, Note_on_c, 0, 91, 115
2, 407748, Note_on_c, 0, 86, 98
2, 407752, Note_on_c, 0, 83, 83
2, 407768, Note_on_c, 0, 83, 0
2, 407776, Note_on_c, 0, 79, 0
2, 407788, Note_on_c, 0, 86, 0
2, 407804, Note_on_c, 0, 91, 0
2, 407828, Note_on_c, 0, 55, 118
2, 407828, Control_c, 0, 64, 88
2, 407832, Note_on_c, 0, 43, 87
2, 407840, Control_c, 0, 64, 40
2, 407864, Control_c, 0, 64, 127
2, 407872, Note_on_c, 0, 43, 0
2, 407872, Note_on_c, 0, 55, 0
2, 407908, Note_on_c, 0, 95, 115
2, 407912, Note_on_c, 0, 83, 101
2, 407912, Note_on_c, 0, 86, 92
2, 407912, Note_on_c, 0, 91, 93
2, 407976, Note_on_c, 0, 86, 0
2, 407980, Note_on_c, 0, 83, 0
2, 407984, Note_on_c, 0, 91, 0
2, 407992, Note_on_c, 0, 95, 0
2, 407996, Note_on_c, 0, 49, 124
2, 407996, Note_on_c, 0, 37, 96
2, 408008, Note_on_c, 0, 42, 46
2, 408028, Note_on_c, 0, 42, 0
2, 408040, Note_on_c, 0, 37, 0
2, 408068, Note_on_c, 0, 95, 113
2, 408068, Note_on_c, 0, 91, 98
2, 408072, Note_on_c, 0, 83, 100
2, 408072, Note_on_c, 0, 86, 94
2, 408076, Note_on_c, 0, 49, 0
2, 408088, Note_on_c, 0, 86, 0
2, 408096, Note_on_c, 0, 83, 0
2, 408108, Note_on_c, 0, 91, 0
2, 408116, Note_on_c, 0, 95, 0
2, 408144, Note_on_c, 0, 50, 123
2, 408148, Note_on_c, 0, 38, 102
2, 408184, Note_on_c, 0, 50, 0
2, 408188, Note_on_c, 0, 38, 0
2, 408228, Note_on_c, 0, 98, 115
2, 408232, Note_on_c, 0, 86, 110
2, 408232, Note_on_c, 0, 95, 95
2, 408232, Note_on_c, 0, 91, 94
2, 408280, Note_on_c, 0, 91, 0
2, 408288, Note_on_c, 0, 86, 0
2, 408296, Note_on_c, 0, 95, 0
2, 408308, Note_on_c, 0, 46, 127
2, 408308, Note_on_c, 0, 34, 105
2, 408312, Note_on_c, 0, 98, 0
2, 408372, Note_on_c, 0, 34, 0
2, 408376, Note_on_c, 0, 98, 111
2, 408380, Note_on_c, 0, 86, 106
2, 408384, Note_on_c, 0, 95, 92
2, 408384, Note_on_c, 0, 91, 90
2, 408396, Note_on_c, 0, 46, 0
2, 408400, Note_on_c, 0, 95, 0
2, 408400, Note_on_c, 0, 91, 0
2, 408412, Note_on_c, 0, 86, 0
2, 408432, Note_on_c, 0, 98, 0
2, 408456, Note_on_c, 0, 47, 125
2, 408456, Note_on_c, 0, 35, 100
2, 408464, Note_on_c, 0, 37, 48
2, 408484, Note_on_c, 0, 37, 0
2, 408492, Note_on_c, 0, 47, 0
2, 408496, Note_on_c, 0, 35, 0
2, 408544, Note_on_c, 0, 103, 118
2, 408544, Note_on_c, 0, 91, 102
2, 408544, Note_on_c, 0, 98, 102
2, 408544, Note_on_c, 0, 95, 98
2, 408596, Note_on_c, 0, 95, 0
2, 408600, Note_on_c, 0, 98, 0
2, 408604, Note_on_c, 0, 91, 0
2, 408620, Note_on_c, 0, 103, 0
2, 408620, Note_on_c, 0, 42, 126
2, 408624, Note_on_c, 0, 30, 102
2, 408636, Note_on_c, 0, 34, 42
2, 408652, Note_on_c, 0, 34, 0
2, 408684, Note_on_c, 0, 30, 0
2, 408692, Note_on_c, 0, 103, 115
2, 408692, Note_on_c, 0, 95, 102
2, 408692, Note_on_c, 0, 98, 106
2, 408692, Note_on_c, 0, 91, 108
2, 408716, Note_on_c, 0, 42, 0
2, 408732, Note_on_c, 0, 95, 0
2, 408736, Note_on_c, 0, 98, 0
2, 408744, Note_on_c, 0, 91, 0
2, 408756, Note_on_c, 0, 103, 0
2, 408788, Note_on_c, 0, 43, 127
2, 408788, Note_on_c, 0, 31, 101
2, 408824, Note_on_c, 0, 31, 0
2, 408836, Note_on_c, 0, 43, 0
2, 409140, Control_c, 0, 64, 104
2, 409148, Control_c, 0, 64, 24
2, 409160, Control_c, 0, 64, 0
2, 409316, Note_on_c, 0, 79, 118
2, 409320, Note_on_c, 0, 67, 113
2, 409320, Note_on_c, 0, 75, 100
2, 409324, Note_on_c, 0, 72, 106
2, 409324, Note_on_c, 0, 60, 111
2, 409324, Note_on_c, 0, 48, 103
2, 409328, Note_on_c, 0, 55, 106
2, 409328, Note_on_c, 0, 51, 94
2, 409328, Control_c, 0, 64, 72
2, 409340, Control_c, 0, 64, 127
2, 409356, Note_on_c, 0, 48, 0
2, 409364, Note_on_c, 0, 72, 0
2, 409364, Note_on_c, 0, 67, 0
2, 409364, Note_on_c, 0, 60, 0
2, 409372, Note_on_c, 0, 55, 0
2, 409372, Note_on_c, 0, 51, 0
2, 409384, Note_on_c, 0, 75, 0
2, 409392, Note_on_c, 0, 79, 0
2, 409688, Control_c, 0, 64, 104
2, 409696, Control_c, 0, 64, 56
2, 409704, Control_c, 0, 64, 0
2, 409832, Note_on_c, 0, 95, 126
2, 409832, Note_on_c, 0, 38, 103
2, 409836, Note_on_c, 0, 43, 115
2, 409836, Note_on_c, 0, 83, 117
2, 409836, Note_on_c, 0, 31, 92
2, 409836, Note_on_c, 0, 91, 111
2, 409836, Note_on_c, 0, 86, 103
2, 409836, Note_on_c, 0, 35, 94
2, 409844, Control_c, 0, 64, 72
2, 409856, Control_c, 0, 64, 127
2, 409860, Note_on_c, 0, 38, 0
2, 409864, Note_on_c, 0, 35, 0
2, 409868, Note_on_c, 0, 31, 0
2, 409876, Note_on_c, 0, 43, 0
2, 409880, Note_on_c, 0, 95, 0
2, 409880, Note_on_c, 0, 91, 0
2, 409888, Note_on_c, 0, 83, 0
2, 409888, Note_on_c, 0, 86, 0
2, 410124, Note_on_c, 0, 79, 113
2, 410128, Note_on_c, 0, 67, 108
2, 410128, Note_on_c, 0, 62, 105
2, 410128, Note_on_c, 0, 50, 94
2, 410128, Note_on_c, 0, 59, 98
2, 410132, Note_on_c, 0, 74, 101
2, 410132, Note_on_c, 0, 55, 90
2, 410132, Note_on_c, 0, 71, 96
2, 410156, Note_on_c, 0, 62, 0
2, 410164, Note_on_c, 0, 59, 0
2, 410172, Note_on_c, 0, 55, 0
2, 410176, Note_on_c, 0, 50, 0
2, 410176, Note_on_c, 0, 67, 0
2, 410180, Note_on_c, 0, 79, 0
2, 410184, Note_on_c, 0, 71, 0
2, 410184, Note_on_c, 0, 74, 0
2, 410392, Note_on_c, 0, 55, 115
2, 410392, Note_on_c, 0, 43, 117
2, 410396, Note_on_c, 0, 31, 87
2, 410408, Note_on_c, 0, 38, 55
2, 410428, Note_on_c, 0, 38, 0
2, 410428, Note_on_c, 0, 31, 0
2, 410436, Note_on_c, 0, 43, 0
2, 410436, Note_on_c, 0, 55, 0
2, 410664, Note_on_c, 0, 67, 102
2, 410664, Note_on_c, 0, 79, 120
2, 410668, Note_on_c, 0, 74, 106
2, 410668, Note_on_c, 0, 71, 98
2, 410672, Note_on_c, 0, 59, 95
2, 410672, Note_on_c, 0, 50, 94
2, 410672, Note_on_c, 0, 62, 100
2, 410676, Note_on_c, 0, 55, 88
2, 410700, Note_on_c, 0, 67, 0
2, 410704, Note_on_c, 0, 50, 0
2, 410708, Note_on_c, 0, 71, 0
2, 410712, Note_on_c, 0, 55, 0
2, 410712, Note_on_c, 0, 62, 0
2, 410720, Note_on_c, 0, 74, 0
2, 410720, Note_on_c, 0, 59, 0
2, 410736, Note_on_c, 0, 79, 0
2, 410992, Note_on_c, 0, 95, 126
2, 410996, Note_on_c, 0, 83, 120
2, 410996, Note_on_c, 0, 86, 110
2, 411000, Note_on_c, 0, 91, 102
2, 411000, Note_on_c, 0, 62, 94
2, 411000, Note_on_c, 0, 71, 95
2, 411000, Note_on_c, 0, 67, 90
2, 411000, Note_on_c, 0, 74, 111
2, 411040, Note_on_c, 0, 74, 0
2, 411040, Note_on_c, 0, 67, 0
2, 411040, Note_on_c, 0, 83, 0
2, 411040, Note_on_c, 0, 62, 0
2, 411048, Note_on_c, 0, 71, 0
2, 411048, Note_on_c, 0, 86, 0
2, 411056, Note_on_c, 0, 95, 0
2, 411056, Note_on_c, 0, 91, 0
2, 411588, Note_on_c, 0, 55, 113
2, 411588, Note_on_c, 0, 67, 120
2, 411592, Note_on_c, 0, 31, 108
2, 411592, Note_on_c, 0, 43, 125
2, 411628, Note_on_c, 0, 43, 0
2, 411632, Note_on_c, 0, 31, 0
2, 411636, Note_on_c, 0, 55, 0
2, 411652, Note_on_c, 0, 67, 0
2, 411692, Note_on_c, 0, 67, 121
2, 411696, Note_on_c, 0, 55, 127
2, 411704, Note_on_c, 0, 43, 115
2, 411708, Note_on_c, 0, 31, 117
2, 411736, Note_on_c, 0, 31, 0
2, 411740, Note_on_c, 0, 43, 0
2, 411740, Note_on_c, 0, 55, 0
2, 411752, Note_on_c, 0, 67, 0
2, 412580, Control_c, 0, 64, 104
2, 412588, Control_c, 0, 64, 56
2, 412600, Control_c, 0, 64, 0
2, 413524, Control_c, 0, 64, 56
2, 413536, Control_c, 0, 64, 127
2, 413744, Control_c, 0, 64, 72
2, 413756, Control_c, 0, 64, 40
2, 413768, Control_c, 0, 64, 0
2, 414184, Control_c, 0, 64, 104
2, 414192, Control_c, 0, 64, 127
2, 414192, End_track
3, 0, Start_track
3, 0, Title_t, "Robert Finley, Piano"
3, 0, End_track
0, 0, End_of_file
