0, 0, Header, 0, 1, 480
1, 0, Start_track
1, 0, Title_t, "Bilder einer Ausstellung"
1, 0, Title_t, "Baba-Yaga  - Das groﬂe Tor von Kiew"
1, 0, Copyright_t, "Copyright © 2000 by Bernd Krueger"
1, 0, Text_t, "Modest Mussorgski"
1, 0, Text_t, "Fertiggestellt am 12.3.2000\012"
1, 0, Text_t, "Update am 9.5.2000\012"
1, 0, Text_t, "Update am 1.7.2000\012"
1, 0, Text_t, "Update am 18.11.2000\012"
1, 0, Text_t, "Normierung: 23.12.2002\012"
1, 0, Text_t, "Update am 3.9.2008\012"
1, 0, Text_t, "Update am 28.12.2013\012"
1, 0, Text_t, "Dauer: 7:20 Minuten\012"
1, 0, SMPTE_offset, 96, 0, 3, 0, 0
1, 0, Time_signature, 2, 2, 24, 8
1, 0, Key_signature, 0, "major"
1, 0, Tempo, 358209
1, 0, Marker_t, "Baba-Yaga"
1, 0, Program_c, 0, 0
1, 0, Control_c, 0, 7, 127
1, 0, Control_c, 0, 10, 64
1, 0, Control_c, 0, 91, 127
1, 0, Control_c, 0, 91, 127
1, 0, Text_t, "bdca426d104a26ac9dcb070447587523"
1, 0, Program_c, 0, 0
1, 0, Control_c, 0, 7, 127
1, 0, Control_c, 0, 10, 64
1, 0, Control_c, 0, 91, 127
1, 0, Control_c, 0, 64, 0
1, 1, Note_on_c, 0, 54, 76
1, 1, Note_on_c, 0, 66, 90
1, 1, Note_on_c, 0, 42, 74
1, 240, Note_on_c, 0, 42, 0
1, 240, Note_on_c, 0, 66, 0
1, 240, Note_on_c, 0, 54, 0
1, 480, Tempo, 352941
1, 480, Note_on_c, 0, 55, 96
1, 480, Note_on_c, 0, 43, 77
1, 480, Note_on_c, 0, 31, 65
1, 960, Note_on_c, 0, 31, 0
1, 960, Note_on_c, 0, 43, 0
1, 960, Note_on_c, 0, 55, 0
1, 1920, Tempo, 352941
1, 1920, Note_on_c, 0, 66, 86
1, 1920, Note_on_c, 0, 54, 73
1, 1920, Note_on_c, 0, 42, 69
1, 2040, Note_on_c, 0, 42, 0
1, 2040, Note_on_c, 0, 54, 0
1, 2040, Note_on_c, 0, 66, 0
1, 2160, Tempo, 361446
1, 2160, Note_on_c, 0, 54, 69
1, 2160, Note_on_c, 0, 66, 82
1, 2160, Note_on_c, 0, 42, 66
1, 2280, Note_on_c, 0, 42, 0
1, 2280, Note_on_c, 0, 66, 0
1, 2280, Note_on_c, 0, 54, 0
1, 2400, Tempo, 352941
1, 2400, Note_on_c, 0, 55, 91
1, 2400, Note_on_c, 0, 31, 63
1, 2400, Note_on_c, 0, 43, 74
1, 2880, Note_on_c, 0, 43, 0
1, 2880, Note_on_c, 0, 31, 0
1, 2880, Note_on_c, 0, 55, 0
1, 3840, Note_on_c, 0, 53, 76
1, 3840, Note_on_c, 0, 65, 90
1, 3840, Note_on_c, 0, 41, 72
1, 4080, Note_on_c, 0, 41, 0
1, 4080, Note_on_c, 0, 65, 0
1, 4080, Note_on_c, 0, 53, 0
1, 4320, Tempo, 337079
1, 4320, Note_on_c, 0, 56, 93
1, 4320, Note_on_c, 0, 32, 63
1, 4320, Note_on_c, 0, 44, 75
1, 4560, Tempo, 352941
1, 4560, Note_on_c, 0, 44, 0
1, 4560, Note_on_c, 0, 32, 0
1, 4560, Note_on_c, 0, 56, 0
1, 4560, Note_on_c, 0, 55, 87
1, 4560, Note_on_c, 0, 43, 70
1, 4560, Note_on_c, 0, 31, 59
1, 4800, Note_on_c, 0, 31, 0
1, 4800, Note_on_c, 0, 43, 0
1, 4800, Note_on_c, 0, 55, 0
1, 5760, Note_on_c, 0, 65, 86
1, 5760, Note_on_c, 0, 53, 73
1, 5760, Note_on_c, 0, 41, 68
1, 5880, Note_on_c, 0, 41, 0
1, 5880, Note_on_c, 0, 53, 0
1, 5880, Note_on_c, 0, 65, 0
1, 6000, Tempo, 358209
1, 6000, Note_on_c, 0, 53, 69
1, 6000, Note_on_c, 0, 65, 82
1, 6000, Note_on_c, 0, 41, 65
1, 6120, Note_on_c, 0, 41, 0
1, 6120, Note_on_c, 0, 65, 0
1, 6120, Note_on_c, 0, 53, 0
1, 6240, Tempo, 339943
1, 6240, Note_on_c, 0, 56, 90
1, 6240, Note_on_c, 0, 32, 60
1, 6240, Note_on_c, 0, 44, 71
1, 6480, Tempo, 357143
1, 6480, Note_on_c, 0, 44, 0
1, 6480, Note_on_c, 0, 32, 0
1, 6480, Note_on_c, 0, 56, 0
1, 6480, Note_on_c, 0, 55, 85
1, 6480, Note_on_c, 0, 43, 68
1, 6480, Note_on_c, 0, 31, 57
1, 6660, Note_on_c, 0, 31, 0
1, 6660, Note_on_c, 0, 43, 0
1, 6660, Note_on_c, 0, 55, 0
1, 6720, Tempo, 344828
1, 6720, Note_on_c, 0, 56, 90
1, 6720, Note_on_c, 0, 44, 72
1, 6720, Note_on_c, 0, 32, 61
1, 6960, Note_on_c, 0, 32, 0
1, 6960, Note_on_c, 0, 44, 0
1, 6960, Note_on_c, 0, 56, 0
1, 6960, Note_on_c, 0, 55, 87
1, 6960, Note_on_c, 0, 31, 56
1, 6960, Note_on_c, 0, 43, 67
1, 7140, Note_on_c, 0, 43, 0
1, 7140, Note_on_c, 0, 31, 0
1, 7140, Note_on_c, 0, 55, 0
1, 7200, Tempo, 352941
1, 7680, Note_on_c, 0, 55, 86
1, 7680, Note_on_c, 0, 31, 68
1, 7680, Note_on_c, 0, 43, 68
1, 8160, Note_on_c, 0, 43, 0
1, 8160, Note_on_c, 0, 31, 0
1, 8160, Note_on_c, 0, 55, 0
1, 8160, Note_on_c, 0, 55, 82
1, 8160, Note_on_c, 0, 43, 65
1, 8160, Note_on_c, 0, 31, 65
1, 8640, Tempo, 333333
1, 8640, Note_on_c, 0, 31, 0
1, 8640, Note_on_c, 0, 43, 0
1, 8640, Note_on_c, 0, 55, 0
1, 8640, Note_on_c, 0, 55, 95
1, 8640, Note_on_c, 0, 31, 75
1, 8640, Note_on_c, 0, 43, 75
1, 8760, Note_on_c, 0, 43, 0
1, 8760, Note_on_c, 0, 31, 0
1, 8880, Tempo, 321716
1, 8880, Note_on_c, 0, 56, 85
1, 8880, Note_on_c, 0, 44, 68
1, 9000, Note_on_c, 0, 44, 0
1, 9000, Note_on_c, 0, 56, 0
1, 9120, Tempo, 337079
1, 9120, Note_on_c, 0, 55, 0
1, 9120, Note_on_c, 0, 55, 83
1, 9120, Note_on_c, 0, 43, 66
1, 9360, Tempo, 359281
1, 9360, Note_on_c, 0, 65, 77
1, 9360, Note_on_c, 0, 53, 61
1, 9480, Note_on_c, 0, 53, 0
1, 9480, Note_on_c, 0, 65, 0
1, 9600, Tempo, 352941
1, 9600, Note_on_c, 0, 43, 0
1, 9600, Note_on_c, 0, 55, 0
1, 9600, Note_on_c, 0, 55, 85
1, 9600, Note_on_c, 0, 43, 68
1, 9600, Note_on_c, 0, 31, 57
1, 10080, Note_on_c, 0, 31, 0
1, 10080, Note_on_c, 0, 43, 0
1, 10080, Note_on_c, 0, 55, 0
1, 10080, Note_on_c, 0, 55, 83
1, 10080, Note_on_c, 0, 43, 66
1, 10080, Note_on_c, 0, 31, 55
1, 10560, Tempo, 334262
1, 10560, Note_on_c, 0, 31, 0
1, 10560, Note_on_c, 0, 43, 0
1, 10560, Note_on_c, 0, 55, 0
1, 10560, Note_on_c, 0, 55, 94
1, 10560, Note_on_c, 0, 31, 63
1, 10560, Note_on_c, 0, 43, 75
1, 10800, Tempo, 321716
1, 10800, Note_on_c, 0, 43, 0
1, 10800, Note_on_c, 0, 31, 0
1, 10800, Note_on_c, 0, 56, 84
1, 10800, Note_on_c, 0, 44, 66
1, 11040, Tempo, 338983
1, 11040, Note_on_c, 0, 44, 0
1, 11040, Note_on_c, 0, 56, 0
1, 11040, Note_on_c, 0, 55, 0
1, 11040, Note_on_c, 0, 55, 83
1, 11040, Note_on_c, 0, 43, 66
1, 11280, Tempo, 326975
1, 11280, Note_on_c, 0, 61, 77
1, 11280, Note_on_c, 0, 49, 61
1, 11400, Note_on_c, 0, 49, 0
1, 11400, Note_on_c, 0, 61, 0
1, 11520, Tempo, 332410
1, 11520, Note_on_c, 0, 43, 0
1, 11520, Note_on_c, 0, 55, 0
1, 11520, Note_on_c, 0, 55, 88
1, 11520, Note_on_c, 0, 43, 71
1, 11520, Note_on_c, 0, 31, 60
1, 11760, Tempo, 321716
1, 11760, Note_on_c, 0, 31, 0
1, 11760, Note_on_c, 0, 43, 0
1, 11760, Note_on_c, 0, 56, 82
1, 11760, Note_on_c, 0, 44, 64
1, 12000, Tempo, 339943
1, 12000, Note_on_c, 0, 44, 0
1, 12000, Note_on_c, 0, 56, 0
1, 12000, Note_on_c, 0, 55, 0
1, 12000, Note_on_c, 0, 55, 84
1, 12000, Note_on_c, 0, 43, 67
1, 12240, Note_on_c, 0, 65, 75
1, 12240, Note_on_c, 0, 53, 60
1, 12360, Note_on_c, 0, 53, 0
1, 12360, Note_on_c, 0, 65, 0
1, 12480, Tempo, 330579
1, 12480, Note_on_c, 0, 43, 0
1, 12480, Note_on_c, 0, 55, 0
1, 12480, Note_on_c, 0, 55, 83
1, 12480, Note_on_c, 0, 31, 55
1, 12480, Note_on_c, 0, 43, 66
1, 12720, Tempo, 320000
1, 12720, Note_on_c, 0, 43, 0
1, 12720, Note_on_c, 0, 31, 0
1, 12720, Note_on_c, 0, 56, 76
1, 12720, Note_on_c, 0, 44, 61
1, 12960, Tempo, 335196
1, 12960, Note_on_c, 0, 44, 0
1, 12960, Note_on_c, 0, 56, 0
1, 12960, Note_on_c, 0, 55, 0
1, 12960, Note_on_c, 0, 55, 82
1, 12960, Note_on_c, 0, 43, 66
1, 13200, Tempo, 358209
1, 13200, Note_on_c, 0, 61, 77
1, 13200, Note_on_c, 0, 49, 61
1, 13440, Tempo, 353982
1, 13440, Note_on_c, 0, 49, 0
1, 13440, Note_on_c, 0, 55, 0
1, 13440, Note_on_c, 0, 43, 0
1, 13440, Note_on_c, 0, 61, 0
1, 13440, Note_on_c, 0, 55, 84
1, 13440, Note_on_c, 0, 31, 56
1, 13440, Note_on_c, 0, 43, 67
1, 13920, Note_on_c, 0, 43, 0
1, 13920, Note_on_c, 0, 31, 0
1, 13920, Note_on_c, 0, 55, 0
1, 13920, Note_on_c, 0, 55, 82
1, 13920, Note_on_c, 0, 43, 65
1, 13920, Note_on_c, 0, 31, 55
1, 14400, Note_on_c, 0, 31, 0
1, 14400, Note_on_c, 0, 43, 0
1, 14400, Note_on_c, 0, 55, 0
1, 14400, Note_on_c, 0, 55, 85
1, 14400, Note_on_c, 0, 31, 56
1, 14400, Note_on_c, 0, 43, 67
1, 14880, Note_on_c, 0, 43, 0
1, 14880, Note_on_c, 0, 31, 0
1, 14880, Note_on_c, 0, 55, 0
1, 14880, Note_on_c, 0, 55, 84
1, 14880, Note_on_c, 0, 43, 63
1, 14880, Note_on_c, 0, 31, 54
1, 15360, Tempo, 337079
1, 15360, Note_on_c, 0, 31, 0
1, 15360, Note_on_c, 0, 43, 0
1, 15360, Note_on_c, 0, 55, 0
1, 15360, Note_on_c, 0, 55, 71
1, 15360, Note_on_c, 0, 31, 47
1, 15360, Note_on_c, 0, 43, 56
1, 15480, Note_on_c, 0, 43, 0
1, 15480, Note_on_c, 0, 31, 0
1, 15480, Note_on_c, 0, 55, 0
1, 15600, Tempo, 320856
1, 15600, Note_on_c, 0, 60, 65
1, 15600, Note_on_c, 0, 36, 44
1, 15600, Note_on_c, 0, 48, 52
1, 15720, Note_on_c, 0, 48, 0
1, 15720, Note_on_c, 0, 36, 0
1, 15720, Note_on_c, 0, 60, 0
1, 15840, Tempo, 332410
1, 15840, Note_on_c, 0, 56, 84
1, 15840, Note_on_c, 0, 44, 67
1, 15840, Note_on_c, 0, 32, 56
1, 15960, Note_on_c, 0, 32, 0
1, 15960, Note_on_c, 0, 44, 0
1, 15960, Note_on_c, 0, 56, 0
1, 16080, Tempo, 324324
1, 16080, Note_on_c, 0, 61, 73
1, 16080, Note_on_c, 0, 49, 58
1, 16080, Note_on_c, 0, 37, 49
1, 16200, Note_on_c, 0, 37, 0
1, 16200, Note_on_c, 0, 49, 0
1, 16200, Note_on_c, 0, 61, 0
1, 16320, Tempo, 327869
1, 16320, Note_on_c, 0, 57, 72
1, 16320, Note_on_c, 0, 33, 48
1, 16320, Note_on_c, 0, 45, 57
1, 16440, Note_on_c, 0, 45, 0
1, 16440, Note_on_c, 0, 33, 0
1, 16440, Note_on_c, 0, 57, 0
1, 16560, Tempo, 322581
1, 16560, Note_on_c, 0, 62, 71
1, 16560, Note_on_c, 0, 50, 56
1, 16560, Note_on_c, 0, 38, 47
1, 16680, Note_on_c, 0, 38, 0
1, 16680, Note_on_c, 0, 50, 0
1, 16680, Note_on_c, 0, 62, 0
1, 16800, Tempo, 338983
1, 16800, Note_on_c, 0, 58, 81
1, 16800, Note_on_c, 0, 34, 53
1, 16800, Note_on_c, 0, 46, 63
1, 16920, Note_on_c, 0, 46, 0
1, 16920, Note_on_c, 0, 34, 0
1, 16920, Note_on_c, 0, 58, 0
1, 17040, Tempo, 329670
1, 17040, Note_on_c, 0, 63, 70
1, 17040, Note_on_c, 0, 51, 55
1, 17040, Note_on_c, 0, 39, 46
1, 17160, Note_on_c, 0, 39, 0
1, 17160, Note_on_c, 0, 51, 0
1, 17160, Note_on_c, 0, 63, 0
1, 17280, Tempo, 337079
1, 17280, Note_on_c, 0, 55, 73
1, 17280, Note_on_c, 0, 31, 50
1, 17280, Note_on_c, 0, 43, 59
1, 17400, Note_on_c, 0, 43, 0
1, 17400, Note_on_c, 0, 31, 0
1, 17400, Note_on_c, 0, 55, 0
1, 17520, Tempo, 321716
1, 17520, Note_on_c, 0, 60, 68
1, 17520, Note_on_c, 0, 36, 45
1, 17520, Note_on_c, 0, 48, 54
1, 17640, Note_on_c, 0, 48, 0
1, 17640, Note_on_c, 0, 36, 0
1, 17640, Note_on_c, 0, 60, 0
1, 17760, Tempo, 334262
1, 17760, Note_on_c, 0, 56, 88
1, 17760, Note_on_c, 0, 44, 70
1, 17760, Note_on_c, 0, 32, 59
1, 17880, Note_on_c, 0, 32, 0
1, 17880, Note_on_c, 0, 44, 0
1, 17880, Note_on_c, 0, 56, 0
1, 18000, Tempo, 328767
1, 18000, Note_on_c, 0, 61, 77
1, 18000, Note_on_c, 0, 49, 61
1, 18000, Note_on_c, 0, 37, 51
1, 18120, Note_on_c, 0, 37, 0
1, 18120, Note_on_c, 0, 49, 0
1, 18120, Note_on_c, 0, 61, 0
1, 18240, Tempo, 333333
1, 18240, Note_on_c, 0, 57, 75
1, 18240, Note_on_c, 0, 33, 50
1, 18240, Note_on_c, 0, 45, 60
1, 18360, Note_on_c, 0, 45, 0
1, 18360, Note_on_c, 0, 33, 0
1, 18360, Note_on_c, 0, 57, 0
1, 18480, Tempo, 322581
1, 18480, Note_on_c, 0, 62, 74
1, 18480, Note_on_c, 0, 38, 50
1, 18480, Note_on_c, 0, 50, 59
1, 18600, Note_on_c, 0, 50, 0
1, 18600, Note_on_c, 0, 38, 0
1, 18600, Note_on_c, 0, 62, 0
1, 18720, Tempo, 337079
1, 18720, Note_on_c, 0, 58, 87
1, 18720, Note_on_c, 0, 46, 68
1, 18720, Note_on_c, 0, 34, 58
1, 18840, Note_on_c, 0, 34, 0
1, 18840, Note_on_c, 0, 46, 0
1, 18840, Note_on_c, 0, 58, 0
1, 18960, Tempo, 324324
1, 18960, Note_on_c, 0, 63, 74
1, 18960, Note_on_c, 0, 39, 59
1, 18960, Note_on_c, 0, 51, 59
1, 19080, Note_on_c, 0, 51, 0
1, 19080, Note_on_c, 0, 39, 0
1, 19080, Note_on_c, 0, 63, 0
1, 19200, Tempo, 335196
1, 19200, Note_on_c, 0, 55, 76
1, 19200, Note_on_c, 0, 43, 61
1, 19200, Note_on_c, 0, 31, 51
1, 19320, Note_on_c, 0, 31, 0
1, 19320, Note_on_c, 0, 43, 0
1, 19320, Note_on_c, 0, 55, 0
1, 19440, Tempo, 328767
1, 19440, Note_on_c, 0, 60, 70
1, 19440, Note_on_c, 0, 36, 46
1, 19440, Note_on_c, 0, 48, 55
1, 19480, Tempo, 320856
1, 19560, Note_on_c, 0, 48, 0
1, 19560, Note_on_c, 0, 36, 0
1, 19560, Note_on_c, 0, 60, 0
1, 19680, Tempo, 333333
1, 19680, Note_on_c, 0, 56, 90
1, 19680, Note_on_c, 0, 44, 72
1, 19680, Note_on_c, 0, 32, 61
1, 19800, Note_on_c, 0, 32, 0
1, 19800, Note_on_c, 0, 44, 0
1, 19800, Note_on_c, 0, 56, 0
1, 19920, Tempo, 326975
1, 19920, Note_on_c, 0, 61, 80
1, 19920, Note_on_c, 0, 49, 63
1, 19920, Note_on_c, 0, 37, 53
1, 20040, Note_on_c, 0, 37, 0
1, 20040, Note_on_c, 0, 49, 0
1, 20040, Note_on_c, 0, 61, 0
1, 20160, Tempo, 335196
1, 20160, Note_on_c, 0, 57, 78
1, 20160, Note_on_c, 0, 33, 52
1, 20160, Note_on_c, 0, 45, 62
1, 20280, Note_on_c, 0, 45, 0
1, 20280, Note_on_c, 0, 33, 0
1, 20280, Note_on_c, 0, 57, 0
1, 20400, Tempo, 318302
1, 20400, Note_on_c, 0, 62, 77
1, 20400, Note_on_c, 0, 38, 52
1, 20400, Note_on_c, 0, 50, 62
1, 20520, Note_on_c, 0, 50, 0
1, 20520, Note_on_c, 0, 38, 0
1, 20520, Note_on_c, 0, 62, 0
1, 20640, Tempo, 337079
1, 20640, Note_on_c, 0, 58, 89
1, 20640, Note_on_c, 0, 46, 70
1, 20640, Note_on_c, 0, 34, 59
1, 20760, Note_on_c, 0, 34, 0
1, 20760, Note_on_c, 0, 46, 0
1, 20760, Note_on_c, 0, 58, 0
1, 20880, Tempo, 324324
1, 20880, Note_on_c, 0, 63, 76
1, 20880, Note_on_c, 0, 39, 61
1, 20880, Note_on_c, 0, 51, 61
1, 21000, Note_on_c, 0, 51, 0
1, 21000, Note_on_c, 0, 39, 0
1, 21000, Note_on_c, 0, 63, 0
1, 21120, Tempo, 332410
1, 21120, Note_on_c, 0, 55, 81
1, 21120, Note_on_c, 0, 43, 65
1, 21120, Note_on_c, 0, 31, 55
1, 21240, Note_on_c, 0, 31, 0
1, 21240, Note_on_c, 0, 43, 0
1, 21240, Note_on_c, 0, 55, 0
1, 21360, Tempo, 318302
1, 21360, Note_on_c, 0, 60, 75
1, 21360, Note_on_c, 0, 36, 50
1, 21360, Note_on_c, 0, 48, 59
1, 21480, Note_on_c, 0, 48, 0
1, 21480, Note_on_c, 0, 36, 0
1, 21480, Note_on_c, 0, 60, 0
1, 21600, Tempo, 334262
1, 21600, Note_on_c, 0, 56, 99
1, 21600, Note_on_c, 0, 44, 79
1, 21600, Note_on_c, 0, 32, 66
1, 21720, Note_on_c, 0, 32, 0
1, 21720, Note_on_c, 0, 44, 0
1, 21720, Note_on_c, 0, 56, 0
1, 21840, Tempo, 326975
1, 21840, Note_on_c, 0, 61, 86
1, 21840, Note_on_c, 0, 37, 57
1, 21840, Note_on_c, 0, 49, 68
1, 21960, Note_on_c, 0, 49, 0
1, 21960, Note_on_c, 0, 37, 0
1, 21960, Note_on_c, 0, 61, 0
1, 22080, Tempo, 332410
1, 22080, Note_on_c, 0, 57, 88
1, 22080, Note_on_c, 0, 45, 70
1, 22080, Note_on_c, 0, 33, 59
1, 22200, Note_on_c, 0, 33, 0
1, 22200, Note_on_c, 0, 45, 0
1, 22200, Note_on_c, 0, 57, 0
1, 22320, Tempo, 314961
1, 22320, Note_on_c, 0, 62, 83
1, 22320, Note_on_c, 0, 38, 55
1, 22320, Note_on_c, 0, 50, 66
1, 22440, Note_on_c, 0, 50, 0
1, 22440, Note_on_c, 0, 38, 0
1, 22440, Note_on_c, 0, 62, 0
1, 22560, Tempo, 339943
1, 22560, Note_on_c, 0, 58, 99
1, 22560, Note_on_c, 0, 46, 77
1, 22560, Note_on_c, 0, 34, 64
1, 22680, Note_on_c, 0, 34, 0
1, 22680, Note_on_c, 0, 46, 0
1, 22680, Note_on_c, 0, 58, 0
1, 22800, Tempo, 331492
1, 22800, Note_on_c, 0, 63, 84
1, 22800, Note_on_c, 0, 39, 56
1, 22800, Note_on_c, 0, 51, 67
1, 22920, Note_on_c, 0, 51, 0
1, 22920, Note_on_c, 0, 39, 0
1, 22920, Note_on_c, 0, 63, 0
1, 22980, Note_on_c, 0, 89, 62
1, 23040, Tempo, 322581
1, 23040, Note_on_c, 0, 89, 0
1, 23040, Note_on_c, 0, 76, 64
1, 23040, Note_on_c, 0, 84, 76
1, 23040, Note_on_c, 0, 88, 76
1, 23040, Note_on_c, 0, 31, 61
1, 23040, Note_on_c, 0, 43, 72
1, 23160, Note_on_c, 0, 43, 0
1, 23160, Note_on_c, 0, 88, 0
1, 23160, Note_on_c, 0, 76, 0
1, 23160, Note_on_c, 0, 84, 0
1, 23160, Note_on_c, 0, 31, 0
1, 23280, Tempo, 314136
1, 23280, Note_on_c, 0, 48, 66
1, 23280, Note_on_c, 0, 36, 55
1, 23400, Note_on_c, 0, 36, 0
1, 23400, Note_on_c, 0, 48, 0
1, 23460, Note_on_c, 0, 87, 60
1, 23520, Tempo, 323450
1, 23520, Note_on_c, 0, 87, 0
1, 23520, Note_on_c, 0, 80, 72
1, 23520, Note_on_c, 0, 85, 72
1, 23520, Note_on_c, 0, 77, 61
1, 23520, Note_on_c, 0, 44, 69
1, 23520, Note_on_c, 0, 32, 58
1, 23640, Note_on_c, 0, 32, 0
1, 23640, Note_on_c, 0, 77, 0
1, 23640, Note_on_c, 0, 80, 0
1, 23640, Note_on_c, 0, 85, 0
1, 23640, Note_on_c, 0, 44, 0
1, 23760, Tempo, 315789
1, 23760, Note_on_c, 0, 49, 63
1, 23760, Note_on_c, 0, 37, 54
1, 23880, Note_on_c, 0, 37, 0
1, 23880, Note_on_c, 0, 49, 0
1, 23940, Note_on_c, 0, 86, 58
1, 24000, Tempo, 323450
1, 24000, Note_on_c, 0, 86, 0
1, 24000, Note_on_c, 0, 74, 61
1, 24000, Note_on_c, 0, 78, 72
1, 24000, Note_on_c, 0, 84, 72
1, 24000, Note_on_c, 0, 33, 61
1, 24000, Note_on_c, 0, 45, 72
1, 24120, Note_on_c, 0, 45, 0
1, 24120, Note_on_c, 0, 84, 0
1, 24120, Note_on_c, 0, 74, 0
1, 24120, Note_on_c, 0, 78, 0
1, 24120, Note_on_c, 0, 33, 0
1, 24240, Tempo, 314136
1, 24240, Note_on_c, 0, 38, 55
1, 24240, Note_on_c, 0, 50, 65
1, 24360, Note_on_c, 0, 50, 0
1, 24360, Note_on_c, 0, 38, 0
1, 24420, Note_on_c, 0, 84, 55
1, 24480, Tempo, 321716
1, 24480, Note_on_c, 0, 84, 0
1, 24480, Note_on_c, 0, 70, 58
1, 24480, Note_on_c, 0, 82, 69
1, 24480, Note_on_c, 0, 79, 69
1, 24480, Note_on_c, 0, 46, 70
1, 24480, Note_on_c, 0, 34, 59
1, 24600, Note_on_c, 0, 34, 0
1, 24600, Note_on_c, 0, 79, 0
1, 24600, Note_on_c, 0, 70, 0
1, 24600, Note_on_c, 0, 82, 0
1, 24600, Note_on_c, 0, 46, 0
1, 24720, Tempo, 315789
1, 24720, Note_on_c, 0, 39, 54
1, 24720, Note_on_c, 0, 51, 63
1, 24840, Note_on_c, 0, 51, 0
1, 24840, Note_on_c, 0, 39, 0
1, 24900, Note_on_c, 0, 77, 58
1, 24960, Tempo, 322581
1, 24960, Note_on_c, 0, 77, 0
1, 24960, Note_on_c, 0, 76, 72
1, 24960, Note_on_c, 0, 72, 72
1, 24960, Note_on_c, 0, 64, 61
1, 24960, Note_on_c, 0, 43, 61
1, 24960, Note_on_c, 0, 31, 61
1, 25080, Note_on_c, 0, 31, 0
1, 25080, Note_on_c, 0, 64, 0
1, 25080, Note_on_c, 0, 76, 0
1, 25080, Note_on_c, 0, 72, 0
1, 25080, Note_on_c, 0, 43, 0
1, 25200, Tempo, 314136
1, 25200, Note_on_c, 0, 36, 55
1, 25200, Note_on_c, 0, 48, 66
1, 25320, Note_on_c, 0, 48, 0
1, 25320, Note_on_c, 0, 36, 0
1, 25380, Note_on_c, 0, 75, 56
1, 25440, Tempo, 323450
1, 25440, Note_on_c, 0, 75, 0
1, 25440, Note_on_c, 0, 73, 68
1, 25440, Note_on_c, 0, 65, 57
1, 25440, Note_on_c, 0, 68, 68
1, 25440, Note_on_c, 0, 44, 69
1, 25440, Note_on_c, 0, 32, 58
1, 25560, Note_on_c, 0, 32, 0
1, 25560, Note_on_c, 0, 68, 0
1, 25560, Note_on_c, 0, 73, 0
1, 25560, Note_on_c, 0, 65, 0
1, 25560, Note_on_c, 0, 44, 0
1, 25680, Tempo, 315789
1, 25680, Note_on_c, 0, 37, 54
1, 25680, Note_on_c, 0, 49, 63
1, 25800, Note_on_c, 0, 49, 0
1, 25800, Note_on_c, 0, 37, 0
1, 25860, Note_on_c, 0, 74, 54
1, 25920, Tempo, 323450
1, 25920, Note_on_c, 0, 74, 0
1, 25920, Note_on_c, 0, 66, 68
1, 25920, Note_on_c, 0, 62, 57
1, 25920, Note_on_c, 0, 72, 68
1, 25920, Note_on_c, 0, 45, 72
1, 25920, Note_on_c, 0, 33, 61
1, 26040, Note_on_c, 0, 33, 0
1, 26040, Note_on_c, 0, 72, 0
1, 26040, Note_on_c, 0, 66, 0
1, 26040, Note_on_c, 0, 62, 0
1, 26040, Note_on_c, 0, 45, 0
1, 26160, Tempo, 311688
1, 26160, Note_on_c, 0, 38, 55
1, 26160, Note_on_c, 0, 50, 65
1, 26280, Note_on_c, 0, 50, 0
1, 26280, Note_on_c, 0, 38, 0
1, 26340, Note_on_c, 0, 72, 52
1, 26400, Tempo, 321716
1, 26400, Note_on_c, 0, 72, 0
1, 26400, Note_on_c, 0, 70, 65
1, 26400, Note_on_c, 0, 67, 65
1, 26400, Note_on_c, 0, 58, 55
1, 26400, Note_on_c, 0, 46, 70
1, 26400, Note_on_c, 0, 34, 59
1, 26520, Note_on_c, 0, 34, 0
1, 26520, Note_on_c, 0, 58, 0
1, 26520, Note_on_c, 0, 70, 0
1, 26520, Note_on_c, 0, 67, 0
1, 26520, Note_on_c, 0, 46, 0
1, 26640, Tempo, 315789
1, 26640, Note_on_c, 0, 39, 54
1, 26640, Note_on_c, 0, 51, 63
1, 26760, Note_on_c, 0, 51, 0
1, 26760, Note_on_c, 0, 39, 0
1, 26820, Note_on_c, 0, 65, 55
1, 26880, Tempo, 325203
1, 26880, Note_on_c, 0, 65, 0
1, 26880, Note_on_c, 0, 55, 57
1, 26880, Note_on_c, 0, 60, 68
1, 26880, Note_on_c, 0, 64, 68
1, 26880, Note_on_c, 0, 31, 61
1, 26880, Note_on_c, 0, 43, 72
1, 27000, Note_on_c, 0, 43, 0
1, 27000, Note_on_c, 0, 64, 0
1, 27000, Note_on_c, 0, 55, 0
1, 27000, Note_on_c, 0, 60, 0
1, 27000, Note_on_c, 0, 31, 0
1, 27120, Tempo, 320000
1, 27120, Note_on_c, 0, 48, 66
1, 27120, Note_on_c, 0, 36, 55
1, 27240, Note_on_c, 0, 36, 0
1, 27240, Note_on_c, 0, 48, 0
1, 27300, Note_on_c, 0, 63, 54
1, 27360, Tempo, 327869
1, 27360, Note_on_c, 0, 63, 0
1, 27360, Note_on_c, 0, 56, 64
1, 27360, Note_on_c, 0, 61, 64
1, 27360, Note_on_c, 0, 53, 54
1, 27360, Note_on_c, 0, 44, 69
1, 27360, Note_on_c, 0, 32, 58
1, 27480, Note_on_c, 0, 32, 0
1, 27480, Note_on_c, 0, 53, 0
1, 27480, Note_on_c, 0, 56, 0
1, 27480, Note_on_c, 0, 61, 0
1, 27480, Note_on_c, 0, 44, 0
1, 27600, Tempo, 322581
1, 27600, Note_on_c, 0, 37, 54
1, 27600, Note_on_c, 0, 49, 63
1, 27720, Note_on_c, 0, 49, 0
1, 27720, Note_on_c, 0, 37, 0
1, 27780, Note_on_c, 0, 62, 52
1, 27840, Tempo, 329670
1, 27840, Note_on_c, 0, 62, 0
1, 27840, Note_on_c, 0, 50, 54
1, 27840, Note_on_c, 0, 54, 64
1, 27840, Note_on_c, 0, 60, 64
1, 27840, Note_on_c, 0, 45, 72
1, 27840, Note_on_c, 0, 33, 61
1, 27960, Note_on_c, 0, 33, 0
1, 27960, Note_on_c, 0, 60, 0
1, 27960, Note_on_c, 0, 50, 0
1, 27960, Note_on_c, 0, 54, 0
1, 27960, Note_on_c, 0, 45, 0
1, 28080, Tempo, 324324
1, 28080, Note_on_c, 0, 38, 55
1, 28080, Note_on_c, 0, 50, 65
1, 28200, Note_on_c, 0, 50, 0
1, 28200, Note_on_c, 0, 38, 0
1, 28260, Note_on_c, 0, 60, 49
1, 28320, Tempo, 329670
1, 28320, Note_on_c, 0, 60, 0
1, 28320, Note_on_c, 0, 51, 52
1, 28320, Note_on_c, 0, 58, 62
1, 28320, Note_on_c, 0, 55, 62
1, 28320, Note_on_c, 0, 46, 70
1, 28320, Note_on_c, 0, 34, 59
1, 28440, Note_on_c, 0, 34, 0
1, 28440, Note_on_c, 0, 55, 0
1, 28440, Note_on_c, 0, 51, 0
1, 28440, Note_on_c, 0, 58, 0
1, 28440, Note_on_c, 0, 46, 0
1, 28560, Tempo, 321716
1, 28560, Note_on_c, 0, 39, 54
1, 28560, Note_on_c, 0, 51, 63
1, 28680, Note_on_c, 0, 51, 0
1, 28680, Note_on_c, 0, 39, 0
1, 28800, Tempo, 333333
1, 28800, Note_on_c, 0, 55, 88
1, 28800, Note_on_c, 0, 31, 63
1, 28800, Note_on_c, 0, 43, 76
1, 28920, Note_on_c, 0, 43, 0
1, 28920, Note_on_c, 0, 31, 0
1, 28920, Note_on_c, 0, 55, 0
1, 29040, Tempo, 320000
1, 29040, Note_on_c, 0, 60, 73
1, 29040, Note_on_c, 0, 48, 66
1, 29040, Note_on_c, 0, 36, 55
1, 29160, Note_on_c, 0, 36, 0
1, 29160, Note_on_c, 0, 48, 0
1, 29160, Note_on_c, 0, 60, 0
1, 29280, Tempo, 331492
1, 29280, Note_on_c, 0, 56, 85
1, 29280, Note_on_c, 0, 44, 72
1, 29280, Note_on_c, 0, 32, 61
1, 29400, Note_on_c, 0, 32, 0
1, 29400, Note_on_c, 0, 44, 0
1, 29400, Note_on_c, 0, 56, 0
1, 29520, Tempo, 326975
1, 29520, Note_on_c, 0, 61, 71
1, 29520, Note_on_c, 0, 37, 54
1, 29520, Note_on_c, 0, 49, 63
1, 29640, Note_on_c, 0, 49, 0
1, 29640, Note_on_c, 0, 37, 0
1, 29640, Note_on_c, 0, 61, 0
1, 29760, Tempo, 329670
1, 29760, Note_on_c, 0, 57, 87
1, 29760, Note_on_c, 0, 33, 63
1, 29760, Note_on_c, 0, 45, 75
1, 29880, Note_on_c, 0, 45, 0
1, 29880, Note_on_c, 0, 33, 0
1, 29880, Note_on_c, 0, 57, 0
1, 30000, Tempo, 319149
1, 30000, Note_on_c, 0, 62, 72
1, 30000, Note_on_c, 0, 50, 65
1, 30000, Note_on_c, 0, 38, 55
1, 30120, Note_on_c, 0, 38, 0
1, 30120, Note_on_c, 0, 50, 0
1, 30120, Note_on_c, 0, 62, 0
1, 30240, Tempo, 329670
1, 30240, Note_on_c, 0, 58, 87
1, 30240, Note_on_c, 0, 34, 62
1, 30240, Note_on_c, 0, 46, 72
1, 30360, Note_on_c, 0, 46, 0
1, 30360, Note_on_c, 0, 34, 0
1, 30360, Note_on_c, 0, 58, 0
1, 30480, Tempo, 321716
1, 30480, Note_on_c, 0, 63, 72
1, 30480, Note_on_c, 0, 51, 63
1, 30480, Note_on_c, 0, 39, 54
1, 30600, Tempo, 353982
1, 30600, Note_on_c, 0, 39, 0
1, 30600, Note_on_c, 0, 51, 0
1, 30600, Note_on_c, 0, 63, 0
1, 30720, Tempo, 334262
1, 30720, Note_on_c, 0, 64, 67
1, 30720, Note_on_c, 0, 72, 79
1, 30720, Note_on_c, 0, 67, 67
1, 30720, Note_on_c, 0, 60, 67
1, 30720, Note_on_c, 0, 31, 59
1, 30720, Note_on_c, 0, 43, 70
1, 30800, Control_c, 0, 64, 127
1, 30960, Note_on_c, 0, 43, 0
1, 30960, Note_on_c, 0, 72, 0
1, 30960, Note_on_c, 0, 67, 0
1, 30960, Note_on_c, 0, 64, 0
1, 30960, Note_on_c, 0, 31, 0
1, 30960, Note_on_c, 0, 60, 0
1, 30960, Note_on_c, 0, 42, 65
1, 31200, Tempo, 329670
1, 31200, Note_on_c, 0, 42, 0
1, 31200, Note_on_c, 0, 67, 61
1, 31200, Note_on_c, 0, 79, 72
1, 31200, Note_on_c, 0, 72, 61
1, 31200, Note_on_c, 0, 76, 61
1, 31200, Note_on_c, 0, 31, 59
1, 31200, Note_on_c, 0, 43, 70
1, 31206, Control_c, 0, 64, 0
1, 31315, Control_c, 0, 64, 127
1, 31440, Note_on_c, 0, 43, 0
1, 31440, Note_on_c, 0, 31, 0
1, 31440, Note_on_c, 0, 42, 65
1, 31680, Note_on_c, 0, 42, 0
1, 31680, Note_on_c, 0, 76, 0
1, 31680, Note_on_c, 0, 67, 0
1, 31680, Note_on_c, 0, 79, 0
1, 31680, Note_on_c, 0, 72, 0
1, 31680, Note_on_c, 0, 76, 63
1, 31680, Note_on_c, 0, 67, 63
1, 31680, Note_on_c, 0, 72, 63
1, 31680, Note_on_c, 0, 79, 75
1, 31680, Note_on_c, 0, 43, 70
1, 31680, Note_on_c, 0, 31, 59
1, 31689, Control_c, 0, 64, 0
1, 31746, Control_c, 0, 64, 127
1, 31920, Note_on_c, 0, 31, 0
1, 31920, Note_on_c, 0, 43, 0
1, 31920, Note_on_c, 0, 42, 65
1, 32160, Note_on_c, 0, 42, 0
1, 32160, Note_on_c, 0, 79, 0
1, 32160, Note_on_c, 0, 76, 0
1, 32160, Note_on_c, 0, 67, 0
1, 32160, Note_on_c, 0, 72, 0
1, 32160, Note_on_c, 0, 72, 61
1, 32160, Note_on_c, 0, 79, 72
1, 32160, Note_on_c, 0, 76, 61
1, 32160, Note_on_c, 0, 67, 61
1, 32160, Note_on_c, 0, 31, 59
1, 32160, Note_on_c, 0, 43, 70
1, 32171, Control_c, 0, 64, 0
1, 32226, Control_c, 0, 64, 127
1, 32400, Note_on_c, 0, 43, 0
1, 32400, Note_on_c, 0, 31, 0
1, 32400, Note_on_c, 0, 42, 65
1, 32580, Tempo, 356083
1, 32580, Note_on_c, 0, 76, 0
1, 32580, Note_on_c, 0, 67, 0
1, 32580, Note_on_c, 0, 72, 0
1, 32580, Note_on_c, 0, 79, 0
1, 32580, Note_on_c, 0, 68, 54
1, 32580, Note_on_c, 0, 80, 64
1, 32640, Tempo, 336134
1, 32640, Note_on_c, 0, 80, 0
1, 32640, Note_on_c, 0, 68, 0
1, 32640, Note_on_c, 0, 42, 0
1, 32640, Note_on_c, 0, 79, 72
1, 32640, Note_on_c, 0, 67, 61
1, 32640, Note_on_c, 0, 31, 59
1, 32640, Note_on_c, 0, 43, 70
1, 32649, Control_c, 0, 64, 0
1, 32766, Control_c, 0, 64, 127
1, 32880, Note_on_c, 0, 43, 0
1, 32880, Note_on_c, 0, 79, 0
1, 32880, Note_on_c, 0, 67, 0
1, 32880, Note_on_c, 0, 31, 0
1, 32880, Note_on_c, 0, 42, 67
1, 33120, Tempo, 340909
1, 33120, Note_on_c, 0, 42, 0
1, 33120, Note_on_c, 0, 60, 58
1, 33120, Note_on_c, 0, 72, 69
1, 33120, Note_on_c, 0, 64, 58
1, 33120, Note_on_c, 0, 67, 58
1, 33120, Note_on_c, 0, 43, 70
1, 33120, Note_on_c, 0, 31, 59
1, 33130, Control_c, 0, 64, 0
1, 33235, Control_c, 0, 64, 127
1, 33360, Note_on_c, 0, 31, 0
1, 33360, Note_on_c, 0, 43, 0
1, 33360, Note_on_c, 0, 42, 67
1, 33600, Tempo, 338028
1, 33600, Note_on_c, 0, 42, 0
1, 33600, Note_on_c, 0, 67, 0
1, 33600, Note_on_c, 0, 60, 0
1, 33600, Note_on_c, 0, 72, 0
1, 33600, Note_on_c, 0, 64, 0
1, 33600, Note_on_c, 0, 68, 62
1, 33600, Note_on_c, 0, 74, 73
1, 33600, Note_on_c, 0, 65, 62
1, 33600, Note_on_c, 0, 62, 62
1, 33600, Note_on_c, 0, 36, 61
1, 33600, Note_on_c, 0, 48, 72
1, 33615, Control_c, 0, 64, 0
1, 33726, Control_c, 0, 64, 127
1, 33840, Note_on_c, 0, 48, 0
1, 33840, Note_on_c, 0, 36, 0
1, 33840, Note_on_c, 0, 46, 71
1, 33840, Note_on_c, 0, 34, 60
1, 34080, Note_on_c, 0, 34, 0
1, 34080, Note_on_c, 0, 46, 0
1, 34080, Note_on_c, 0, 33, 59
1, 34080, Note_on_c, 0, 45, 70
1, 34096, Control_c, 0, 64, 0
1, 34172, Control_c, 0, 64, 127
1, 34320, Note_on_c, 0, 45, 0
1, 34320, Note_on_c, 0, 74, 0
1, 34320, Note_on_c, 0, 65, 0
1, 34320, Note_on_c, 0, 68, 0
1, 34320, Note_on_c, 0, 33, 0
1, 34320, Note_on_c, 0, 62, 0
1, 34320, Note_on_c, 0, 32, 58
1, 34320, Note_on_c, 0, 44, 69
1, 34440, Tempo, 350877
1, 34560, Tempo, 335196
1, 34560, Note_on_c, 0, 44, 0
1, 34560, Note_on_c, 0, 32, 0
1, 34560, Note_on_c, 0, 64, 67
1, 34560, Note_on_c, 0, 60, 67
1, 34560, Note_on_c, 0, 67, 67
1, 34560, Note_on_c, 0, 72, 79
1, 34560, Note_on_c, 0, 43, 70
1, 34560, Note_on_c, 0, 31, 59
1, 34572, Control_c, 0, 64, 0
1, 34663, Control_c, 0, 64, 127
1, 34800, Note_on_c, 0, 31, 0
1, 34800, Note_on_c, 0, 60, 0
1, 34800, Note_on_c, 0, 67, 0
1, 34800, Note_on_c, 0, 64, 0
1, 34800, Note_on_c, 0, 43, 0
1, 34800, Note_on_c, 0, 72, 0
1, 34800, Note_on_c, 0, 42, 65
1, 35040, Tempo, 329670
1, 35040, Note_on_c, 0, 42, 0
1, 35040, Note_on_c, 0, 67, 61
1, 35040, Note_on_c, 0, 79, 72
1, 35040, Note_on_c, 0, 72, 61
1, 35040, Note_on_c, 0, 76, 61
1, 35040, Note_on_c, 0, 31, 59
1, 35040, Note_on_c, 0, 43, 70
1, 35052, Control_c, 0, 64, 0
1, 35155, Control_c, 0, 64, 127
1, 35280, Note_on_c, 0, 43, 0
1, 35280, Note_on_c, 0, 31, 0
1, 35280, Note_on_c, 0, 42, 65
1, 35520, Note_on_c, 0, 42, 0
1, 35520, Note_on_c, 0, 76, 0
1, 35520, Note_on_c, 0, 67, 0
1, 35520, Note_on_c, 0, 79, 0
1, 35520, Note_on_c, 0, 72, 0
1, 35520, Note_on_c, 0, 76, 63
1, 35520, Note_on_c, 0, 79, 75
1, 35520, Note_on_c, 0, 72, 63
1, 35520, Note_on_c, 0, 67, 63
1, 35520, Note_on_c, 0, 31, 59
1, 35520, Note_on_c, 0, 43, 70
1, 35529, Control_c, 0, 64, 0
1, 35584, Control_c, 0, 64, 127
1, 35760, Note_on_c, 0, 43, 0
1, 35760, Note_on_c, 0, 31, 0
1, 35760, Note_on_c, 0, 42, 65
1, 36000, Note_on_c, 0, 42, 0
1, 36000, Note_on_c, 0, 67, 0
1, 36000, Note_on_c, 0, 76, 0
1, 36000, Note_on_c, 0, 79, 0
1, 36000, Note_on_c, 0, 72, 0
1, 36000, Note_on_c, 0, 72, 61
1, 36000, Note_on_c, 0, 67, 61
1, 36000, Note_on_c, 0, 79, 72
1, 36000, Note_on_c, 0, 76, 61
1, 36000, Note_on_c, 0, 43, 70
1, 36000, Note_on_c, 0, 31, 59
1, 36014, Control_c, 0, 64, 0
1, 36060, Control_c, 0, 64, 127
1, 36240, Note_on_c, 0, 31, 0
1, 36240, Note_on_c, 0, 43, 0
1, 36240, Note_on_c, 0, 42, 65
1, 36420, Tempo, 355030
1, 36420, Note_on_c, 0, 79, 0
1, 36420, Note_on_c, 0, 76, 0
1, 36420, Note_on_c, 0, 72, 0
1, 36420, Note_on_c, 0, 67, 0
1, 36420, Note_on_c, 0, 81, 64
1, 36420, Note_on_c, 0, 69, 54
1, 36480, Tempo, 336134
1, 36480, Note_on_c, 0, 69, 0
1, 36480, Note_on_c, 0, 81, 0
1, 36480, Note_on_c, 0, 42, 0
1, 36480, Note_on_c, 0, 67, 61
1, 36480, Note_on_c, 0, 79, 72
1, 36480, Note_on_c, 0, 43, 70
1, 36480, Note_on_c, 0, 31, 59
1, 36492, Control_c, 0, 64, 0
1, 36572, Control_c, 0, 64, 127
1, 36720, Note_on_c, 0, 31, 0
1, 36720, Note_on_c, 0, 67, 0
1, 36720, Note_on_c, 0, 79, 0
1, 36720, Note_on_c, 0, 43, 0
1, 36720, Note_on_c, 0, 42, 67
1, 36960, Tempo, 340909
1, 36960, Note_on_c, 0, 42, 0
1, 36960, Note_on_c, 0, 60, 58
1, 36960, Note_on_c, 0, 72, 69
1, 36960, Note_on_c, 0, 64, 58
1, 36960, Note_on_c, 0, 67, 58
1, 36960, Note_on_c, 0, 43, 70
1, 36960, Note_on_c, 0, 31, 59
1, 36975, Control_c, 0, 64, 0
1, 37086, Control_c, 0, 64, 127
1, 37200, Note_on_c, 0, 31, 0
1, 37200, Note_on_c, 0, 43, 0
1, 37200, Note_on_c, 0, 42, 67
1, 37440, Tempo, 338028
1, 37440, Note_on_c, 0, 42, 0
1, 37440, Note_on_c, 0, 67, 0
1, 37440, Note_on_c, 0, 60, 0
1, 37440, Note_on_c, 0, 72, 0
1, 37440, Note_on_c, 0, 64, 0
1, 37440, Note_on_c, 0, 69, 62
1, 37440, Note_on_c, 0, 62, 62
1, 37440, Note_on_c, 0, 66, 62
1, 37440, Note_on_c, 0, 74, 73
1, 37440, Note_on_c, 0, 36, 61
1, 37440, Note_on_c, 0, 48, 72
1, 37449, Control_c, 0, 64, 0
1, 37532, Control_c, 0, 64, 127
1, 37680, Note_on_c, 0, 48, 0
1, 37680, Note_on_c, 0, 36, 0
1, 37680, Note_on_c, 0, 47, 71
1, 37680, Note_on_c, 0, 35, 60
1, 37920, Note_on_c, 0, 35, 0
1, 37920, Note_on_c, 0, 47, 0
1, 37920, Note_on_c, 0, 46, 70
1, 37920, Note_on_c, 0, 34, 59
1, 37932, Control_c, 0, 64, 0
1, 38023, Control_c, 0, 64, 127
1, 38160, Note_on_c, 0, 34, 0
1, 38160, Note_on_c, 0, 62, 0
1, 38160, Note_on_c, 0, 66, 0
1, 38160, Note_on_c, 0, 69, 0
1, 38160, Note_on_c, 0, 46, 0
1, 38160, Note_on_c, 0, 74, 0
1, 38160, Note_on_c, 0, 45, 69
1, 38160, Note_on_c, 0, 33, 58
1, 38280, Tempo, 356083
1, 38400, Tempo, 337079
1, 38400, Note_on_c, 0, 33, 0
1, 38400, Note_on_c, 0, 45, 0
1, 38400, Note_on_c, 0, 75, 83
1, 38400, Note_on_c, 0, 69, 70
1, 38400, Note_on_c, 0, 78, 83
1, 38400, Note_on_c, 0, 66, 70
1, 38417, Control_c, 0, 64, 0
1, 38491, Control_c, 0, 64, 127
1, 38640, Note_on_c, 0, 78, 0
1, 38640, Note_on_c, 0, 75, 0
1, 38640, Note_on_c, 0, 69, 0
1, 38880, Tempo, 334262
1, 38880, Note_on_c, 0, 75, 61
1, 38880, Note_on_c, 0, 69, 61
1, 38880, Note_on_c, 0, 78, 72
1, 38880, Note_on_c, 0, 81, 72
1, 38880, Note_on_c, 0, 48, 50
1, 38880, Note_on_c, 0, 60, 59
1, 38888, Control_c, 0, 64, 0
1, 38965, Control_c, 0, 64, 127
1, 39360, Note_on_c, 0, 60, 0
1, 39360, Note_on_c, 0, 81, 0
1, 39360, Note_on_c, 0, 75, 0
1, 39360, Note_on_c, 0, 69, 0
1, 39360, Note_on_c, 0, 78, 0
1, 39360, Note_on_c, 0, 48, 0
1, 39360, Note_on_c, 0, 69, 63
1, 39360, Note_on_c, 0, 81, 75
1, 39360, Note_on_c, 0, 75, 63
1, 39360, Note_on_c, 0, 78, 75
1, 39360, Note_on_c, 0, 48, 63
1, 39360, Note_on_c, 0, 36, 54
1, 39840, Note_on_c, 0, 36, 0
1, 39840, Note_on_c, 0, 78, 0
1, 39840, Note_on_c, 0, 69, 0
1, 39840, Note_on_c, 0, 81, 0
1, 39840, Note_on_c, 0, 75, 0
1, 39840, Note_on_c, 0, 48, 0
1, 39840, Note_on_c, 0, 78, 72
1, 39840, Note_on_c, 0, 81, 72
1, 39840, Note_on_c, 0, 75, 61
1, 39840, Note_on_c, 0, 69, 61
1, 39840, Note_on_c, 0, 60, 60
1, 39840, Note_on_c, 0, 48, 50
1, 40320, Tempo, 326087
1, 40320, Note_on_c, 0, 48, 0
1, 40320, Note_on_c, 0, 69, 0
1, 40320, Note_on_c, 0, 78, 0
1, 40320, Note_on_c, 0, 81, 0
1, 40320, Note_on_c, 0, 66, 0
1, 40320, Note_on_c, 0, 60, 0
1, 40320, Note_on_c, 0, 75, 0
1, 40320, Note_on_c, 0, 87, 82
1, 40320, Note_on_c, 0, 79, 69
1, 40320, Note_on_c, 0, 82, 69
1, 40320, Note_on_c, 0, 91, 82
1, 40320, Note_on_c, 0, 70, 70
1, 40332, Control_c, 0, 64, 0
1, 40457, Control_c, 0, 64, 127
1, 40560, Tempo, 332410
1, 40560, Note_on_c, 0, 91, 0
1, 40560, Note_on_c, 0, 82, 0
1, 40560, Note_on_c, 0, 87, 0
1, 40560, Note_on_c, 0, 79, 0
1, 40560, Note_on_c, 0, 74, 61
1, 40560, Note_on_c, 0, 86, 72
1, 40800, Tempo, 326975
1, 40800, Note_on_c, 0, 86, 0
1, 40800, Note_on_c, 0, 74, 0
1, 40800, Note_on_c, 0, 75, 65
1, 40800, Note_on_c, 0, 87, 77
1, 40800, Note_on_c, 0, 55, 59
1, 40800, Note_on_c, 0, 43, 50
1, 40812, Control_c, 0, 64, 0
1, 40926, Control_c, 0, 64, 127
1, 41040, Tempo, 333333
1, 41040, Note_on_c, 0, 87, 0
1, 41040, Note_on_c, 0, 75, 0
1, 41040, Note_on_c, 0, 70, 61
1, 41040, Note_on_c, 0, 82, 72
1, 41280, Tempo, 327869
1, 41280, Note_on_c, 0, 82, 0
1, 41280, Note_on_c, 0, 43, 0
1, 41280, Note_on_c, 0, 70, 0
1, 41280, Note_on_c, 0, 55, 0
1, 41280, Note_on_c, 0, 91, 80
1, 41280, Note_on_c, 0, 79, 68
1, 41280, Note_on_c, 0, 87, 80
1, 41280, Note_on_c, 0, 82, 68
1, 41280, Note_on_c, 0, 43, 54
1, 41280, Note_on_c, 0, 31, 54
1, 41294, Control_c, 0, 64, 0
1, 41406, Control_c, 0, 64, 127
1, 41520, Tempo, 333333
1, 41520, Note_on_c, 0, 82, 0
1, 41520, Note_on_c, 0, 87, 0
1, 41520, Note_on_c, 0, 79, 0
1, 41520, Note_on_c, 0, 91, 0
1, 41520, Note_on_c, 0, 74, 61
1, 41520, Note_on_c, 0, 86, 72
1, 41760, Tempo, 333333
1, 41760, Note_on_c, 0, 86, 0
1, 41760, Note_on_c, 0, 43, 0
1, 41760, Note_on_c, 0, 74, 0
1, 41760, Note_on_c, 0, 31, 0
1, 41760, Note_on_c, 0, 87, 77
1, 41760, Note_on_c, 0, 75, 65
1, 41760, Note_on_c, 0, 55, 60
1, 41760, Note_on_c, 0, 43, 50
1, 41770, Control_c, 0, 64, 0
1, 41886, Control_c, 0, 64, 127
1, 42000, Note_on_c, 0, 75, 0
1, 42000, Note_on_c, 0, 87, 0
1, 42000, Note_on_c, 0, 82, 72
1, 42000, Note_on_c, 0, 70, 61
1, 42240, Tempo, 337079
1, 42240, Note_on_c, 0, 70, 0
1, 42240, Note_on_c, 0, 70, 0
1, 42240, Note_on_c, 0, 43, 0
1, 42240, Note_on_c, 0, 55, 0
1, 42240, Note_on_c, 0, 82, 0
1, 42240, Note_on_c, 0, 78, 83
1, 42240, Note_on_c, 0, 69, 70
1, 42240, Note_on_c, 0, 75, 83
1, 42240, Note_on_c, 0, 66, 70
1, 42250, Control_c, 0, 64, 0
1, 42330, Control_c, 0, 64, 127
1, 42480, Note_on_c, 0, 75, 0
1, 42480, Note_on_c, 0, 78, 0
1, 42480, Note_on_c, 0, 69, 0
1, 42720, Tempo, 334262
1, 42720, Note_on_c, 0, 78, 72
1, 42720, Note_on_c, 0, 81, 72
1, 42720, Note_on_c, 0, 69, 61
1, 42720, Note_on_c, 0, 75, 61
1, 42720, Note_on_c, 0, 60, 59
1, 42720, Note_on_c, 0, 48, 50
1, 42733, Control_c, 0, 64, 0
1, 42856, Control_c, 0, 64, 127
1, 43200, Note_on_c, 0, 48, 0
1, 43200, Note_on_c, 0, 75, 0
1, 43200, Note_on_c, 0, 78, 0
1, 43200, Note_on_c, 0, 81, 0
1, 43200, Note_on_c, 0, 69, 0
1, 43200, Note_on_c, 0, 60, 0
1, 43200, Note_on_c, 0, 78, 75
1, 43200, Note_on_c, 0, 69, 63
1, 43200, Note_on_c, 0, 75, 63
1, 43200, Note_on_c, 0, 81, 75
1, 43200, Note_on_c, 0, 36, 54
1, 43200, Note_on_c, 0, 48, 63
1, 43680, Note_on_c, 0, 48, 0
1, 43680, Note_on_c, 0, 81, 0
1, 43680, Note_on_c, 0, 78, 0
1, 43680, Note_on_c, 0, 69, 0
1, 43680, Note_on_c, 0, 75, 0
1, 43680, Note_on_c, 0, 36, 0
1, 43680, Note_on_c, 0, 75, 61
1, 43680, Note_on_c, 0, 81, 72
1, 43680, Note_on_c, 0, 78, 72
1, 43680, Note_on_c, 0, 69, 61
1, 43680, Note_on_c, 0, 60, 60
1, 43680, Note_on_c, 0, 48, 50
1, 44160, Note_on_c, 0, 48, 0
1, 44160, Note_on_c, 0, 69, 0
1, 44160, Note_on_c, 0, 75, 0
1, 44160, Note_on_c, 0, 81, 0
1, 44160, Note_on_c, 0, 66, 0
1, 44160, Note_on_c, 0, 60, 0
1, 44160, Note_on_c, 0, 78, 0
1, 44160, Note_on_c, 0, 91, 82
1, 44160, Note_on_c, 0, 94, 82
1, 44160, Note_on_c, 0, 87, 69
1, 44160, Note_on_c, 0, 82, 69
1, 44160, Note_on_c, 0, 70, 70
1, 44168, Control_c, 0, 64, 0
1, 44286, Control_c, 0, 64, 127
1, 44400, Note_on_c, 0, 82, 0
1, 44400, Note_on_c, 0, 87, 0
1, 44400, Note_on_c, 0, 91, 0
1, 44400, Note_on_c, 0, 94, 0
1, 44640, Tempo, 325203
1, 44640, Note_on_c, 0, 94, 80
1, 44640, Note_on_c, 0, 82, 68
1, 44640, Note_on_c, 0, 55, 59
1, 44640, Note_on_c, 0, 43, 50
1, 44653, Control_c, 0, 64, 0
1, 44777, Control_c, 0, 64, 127
1, 44880, Tempo, 331492
1, 44880, Note_on_c, 0, 82, 0
1, 44880, Note_on_c, 0, 94, 0
1, 44880, Note_on_c, 0, 77, 61
1, 44880, Note_on_c, 0, 89, 72
1, 45120, Tempo, 326975
1, 45120, Note_on_c, 0, 89, 0
1, 45120, Note_on_c, 0, 43, 0
1, 45120, Note_on_c, 0, 77, 0
1, 45120, Note_on_c, 0, 55, 0
1, 45120, Note_on_c, 0, 87, 73
1, 45120, Note_on_c, 0, 79, 62
1, 45120, Note_on_c, 0, 82, 62
1, 45120, Note_on_c, 0, 91, 73
1, 45120, Note_on_c, 0, 43, 63
1, 45120, Note_on_c, 0, 31, 54
1, 45136, Control_c, 0, 64, 0
1, 45223, Control_c, 0, 64, 127
1, 45360, Tempo, 330579
1, 45360, Note_on_c, 0, 91, 0
1, 45360, Note_on_c, 0, 82, 0
1, 45360, Note_on_c, 0, 79, 0
1, 45360, Note_on_c, 0, 87, 0
1, 45360, Note_on_c, 0, 75, 58
1, 45360, Note_on_c, 0, 87, 69
1, 45600, Tempo, 326087
1, 45600, Note_on_c, 0, 87, 0
1, 45600, Note_on_c, 0, 43, 0
1, 45600, Note_on_c, 0, 75, 0
1, 45600, Note_on_c, 0, 31, 0
1, 45600, Note_on_c, 0, 74, 65
1, 45600, Note_on_c, 0, 86, 77
1, 45600, Note_on_c, 0, 43, 50
1, 45600, Note_on_c, 0, 55, 60
1, 45612, Control_c, 0, 64, 0
1, 45692, Control_c, 0, 64, 127
1, 45840, Tempo, 331492
1, 45840, Note_on_c, 0, 86, 0
1, 45840, Note_on_c, 0, 74, 0
1, 45840, Note_on_c, 0, 70, 61
1, 45840, Note_on_c, 0, 82, 72
1, 46080, Tempo, 337079
1, 46080, Note_on_c, 0, 82, 0
1, 46080, Note_on_c, 0, 70, 0
1, 46080, Note_on_c, 0, 55, 0
1, 46080, Note_on_c, 0, 43, 0
1, 46080, Note_on_c, 0, 70, 0
1, 46080, Note_on_c, 0, 75, 70
1, 46080, Note_on_c, 0, 71, 70
1, 46080, Note_on_c, 0, 81, 83
1, 46080, Note_on_c, 0, 83, 83
1, 46080, Note_on_c, 0, 66, 70
1, 46090, Control_c, 0, 64, 0
1, 46180, Control_c, 0, 64, 127
1, 46320, Note_on_c, 0, 83, 0
1, 46320, Note_on_c, 0, 81, 0
1, 46320, Note_on_c, 0, 75, 0
1, 46320, Note_on_c, 0, 71, 0
1, 46560, Tempo, 334262
1, 46560, Note_on_c, 0, 75, 61
1, 46560, Note_on_c, 0, 87, 72
1, 46560, Note_on_c, 0, 78, 72
1, 46560, Note_on_c, 0, 83, 72
1, 46560, Note_on_c, 0, 45, 50
1, 46560, Note_on_c, 0, 57, 59
1, 46575, Control_c, 0, 64, 0
1, 46734, Control_c, 0, 64, 127
1, 47040, Note_on_c, 0, 57, 0
1, 47040, Note_on_c, 0, 83, 0
1, 47040, Note_on_c, 0, 75, 0
1, 47040, Note_on_c, 0, 87, 0
1, 47040, Note_on_c, 0, 78, 0
1, 47040, Note_on_c, 0, 45, 0
1, 47040, Note_on_c, 0, 83, 75
1, 47040, Note_on_c, 0, 87, 75
1, 47040, Note_on_c, 0, 78, 75
1, 47040, Note_on_c, 0, 75, 63
1, 47040, Note_on_c, 0, 33, 54
1, 47040, Note_on_c, 0, 45, 63
1, 47520, Note_on_c, 0, 45, 0
1, 47520, Note_on_c, 0, 75, 0
1, 47520, Note_on_c, 0, 83, 0
1, 47520, Note_on_c, 0, 87, 0
1, 47520, Note_on_c, 0, 78, 0
1, 47520, Note_on_c, 0, 33, 0
1, 47520, Note_on_c, 0, 78, 72
1, 47520, Note_on_c, 0, 75, 61
1, 47520, Note_on_c, 0, 83, 72
1, 47520, Note_on_c, 0, 87, 72
1, 47520, Note_on_c, 0, 45, 50
1, 47520, Note_on_c, 0, 57, 60
1, 48000, Tempo, 326975
1, 48000, Note_on_c, 0, 57, 0
1, 48000, Note_on_c, 0, 87, 0
1, 48000, Note_on_c, 0, 78, 0
1, 48000, Note_on_c, 0, 75, 0
1, 48000, Note_on_c, 0, 66, 0
1, 48000, Note_on_c, 0, 45, 0
1, 48000, Note_on_c, 0, 83, 0
1, 48000, Note_on_c, 0, 91, 78
1, 48000, Note_on_c, 0, 79, 66
1, 48000, Note_on_c, 0, 88, 78
1, 48000, Note_on_c, 0, 84, 66
1, 48000, Note_on_c, 0, 70, 70
1, 48009, Control_c, 0, 64, 0
1, 48113, Control_c, 0, 64, 127
1, 48240, Tempo, 331492
1, 48240, Note_on_c, 0, 84, 0
1, 48240, Note_on_c, 0, 88, 0
1, 48240, Note_on_c, 0, 91, 0
1, 48240, Note_on_c, 0, 79, 0
1, 48240, Note_on_c, 0, 86, 72
1, 48240, Note_on_c, 0, 74, 61
1, 48480, Tempo, 326087
1, 48480, Note_on_c, 0, 74, 0
1, 48480, Note_on_c, 0, 86, 0
1, 48480, Note_on_c, 0, 76, 64
1, 48480, Note_on_c, 0, 88, 76
1, 48480, Note_on_c, 0, 40, 50
1, 48480, Note_on_c, 0, 52, 59
1, 48490, Control_c, 0, 64, 0
1, 48579, Control_c, 0, 64, 127
1, 48720, Tempo, 331492
1, 48720, Note_on_c, 0, 88, 0
1, 48720, Note_on_c, 0, 76, 0
1, 48720, Note_on_c, 0, 72, 56
1, 48720, Note_on_c, 0, 84, 67
1, 48960, Tempo, 326975
1, 48960, Note_on_c, 0, 84, 0
1, 48960, Note_on_c, 0, 52, 0
1, 48960, Note_on_c, 0, 72, 0
1, 48960, Note_on_c, 0, 40, 0
1, 48960, Note_on_c, 0, 91, 78
1, 48960, Note_on_c, 0, 79, 66
1, 48960, Note_on_c, 0, 88, 78
1, 48960, Note_on_c, 0, 84, 66
1, 48960, Note_on_c, 0, 28, 54
1, 48960, Note_on_c, 0, 40, 63
1, 48979, Control_c, 0, 64, 0
1, 49116, Control_c, 0, 64, 127
1, 49200, Tempo, 331492
1, 49200, Note_on_c, 0, 84, 0
1, 49200, Note_on_c, 0, 88, 0
1, 49200, Note_on_c, 0, 79, 0
1, 49200, Note_on_c, 0, 91, 0
1, 49200, Note_on_c, 0, 74, 57
1, 49200, Note_on_c, 0, 86, 68
1, 49440, Note_on_c, 0, 86, 0
1, 49440, Note_on_c, 0, 28, 0
1, 49440, Note_on_c, 0, 74, 0
1, 49440, Note_on_c, 0, 40, 0
1, 49440, Note_on_c, 0, 88, 73
1, 49440, Note_on_c, 0, 76, 62
1, 49440, Note_on_c, 0, 52, 60
1, 49440, Note_on_c, 0, 40, 50
1, 49457, Control_c, 0, 64, 0
1, 49581, Control_c, 0, 64, 127
1, 49680, Note_on_c, 0, 76, 0
1, 49680, Note_on_c, 0, 88, 0
1, 49680, Note_on_c, 0, 84, 66
1, 49680, Note_on_c, 0, 72, 56
1, 49920, Tempo, 337079
1, 49920, Note_on_c, 0, 72, 0
1, 49920, Note_on_c, 0, 70, 0
1, 49920, Note_on_c, 0, 40, 0
1, 49920, Note_on_c, 0, 52, 0
1, 49920, Note_on_c, 0, 84, 0
1, 49920, Note_on_c, 0, 81, 83
1, 49920, Note_on_c, 0, 71, 70
1, 49920, Note_on_c, 0, 75, 70
1, 49920, Note_on_c, 0, 83, 83
1, 49920, Note_on_c, 0, 66, 70
1, 49931, Control_c, 0, 64, 0
1, 50028, Control_c, 0, 64, 127
1, 50160, Note_on_c, 0, 83, 0
1, 50160, Note_on_c, 0, 75, 0
1, 50160, Note_on_c, 0, 81, 0
1, 50160, Note_on_c, 0, 71, 0
1, 50400, Tempo, 334262
1, 50400, Note_on_c, 0, 78, 61
1, 50400, Note_on_c, 0, 87, 72
1, 50400, Note_on_c, 0, 83, 72
1, 50400, Note_on_c, 0, 75, 61
1, 50400, Note_on_c, 0, 45, 50
1, 50400, Note_on_c, 0, 57, 59
1, 50410, Control_c, 0, 64, 0
1, 50549, Control_c, 0, 64, 127
1, 50880, Note_on_c, 0, 57, 0
1, 50880, Note_on_c, 0, 75, 0
1, 50880, Note_on_c, 0, 78, 0
1, 50880, Note_on_c, 0, 87, 0
1, 50880, Note_on_c, 0, 83, 0
1, 50880, Note_on_c, 0, 45, 0
1, 50880, Note_on_c, 0, 75, 63
1, 50880, Note_on_c, 0, 87, 75
1, 50880, Note_on_c, 0, 83, 75
1, 50880, Note_on_c, 0, 78, 63
1, 50880, Note_on_c, 0, 45, 63
1, 50880, Note_on_c, 0, 33, 54
1, 51360, Note_on_c, 0, 33, 0
1, 51360, Note_on_c, 0, 78, 0
1, 51360, Note_on_c, 0, 75, 0
1, 51360, Note_on_c, 0, 87, 0
1, 51360, Note_on_c, 0, 83, 0
1, 51360, Note_on_c, 0, 45, 0
1, 51360, Note_on_c, 0, 78, 61
1, 51360, Note_on_c, 0, 87, 72
1, 51360, Note_on_c, 0, 83, 72
1, 51360, Note_on_c, 0, 75, 61
1, 51360, Note_on_c, 0, 57, 60
1, 51360, Note_on_c, 0, 45, 50
1, 51840, Tempo, 331492
1, 51840, Note_on_c, 0, 45, 0
1, 51840, Note_on_c, 0, 75, 0
1, 51840, Note_on_c, 0, 78, 0
1, 51840, Note_on_c, 0, 87, 0
1, 51840, Note_on_c, 0, 66, 0
1, 51840, Note_on_c, 0, 57, 0
1, 51840, Note_on_c, 0, 83, 0
1, 51840, Note_on_c, 0, 91, 78
1, 51840, Note_on_c, 0, 96, 78
1, 51840, Note_on_c, 0, 88, 66
1, 51840, Note_on_c, 0, 84, 66
1, 51840, Note_on_c, 0, 72, 70
1, 51849, Control_c, 0, 64, 0
1, 51967, Control_c, 0, 64, 127
1, 52080, Note_on_c, 0, 84, 0
1, 52080, Note_on_c, 0, 88, 0
1, 52080, Note_on_c, 0, 91, 0
1, 52080, Note_on_c, 0, 96, 0
1, 52320, Tempo, 323450
1, 52320, Note_on_c, 0, 96, 76
1, 52320, Note_on_c, 0, 84, 64
1, 52320, Note_on_c, 0, 52, 59
1, 52320, Note_on_c, 0, 40, 50
1, 52329, Control_c, 0, 64, 0
1, 52476, Control_c, 0, 64, 127
1, 52560, Tempo, 327869
1, 52560, Note_on_c, 0, 84, 0
1, 52560, Note_on_c, 0, 96, 0
1, 52560, Note_on_c, 0, 79, 56
1, 52560, Note_on_c, 0, 91, 67
1, 52800, Tempo, 329670
1, 52800, Note_on_c, 0, 91, 0
1, 52800, Note_on_c, 0, 40, 0
1, 52800, Note_on_c, 0, 79, 0
1, 52800, Note_on_c, 0, 52, 0
1, 52800, Note_on_c, 0, 88, 68
1, 52800, Note_on_c, 0, 81, 57
1, 52800, Note_on_c, 0, 84, 57
1, 52800, Note_on_c, 0, 93, 68
1, 52800, Note_on_c, 0, 28, 54
1, 52800, Note_on_c, 0, 40, 63
1, 52811, Control_c, 0, 64, 0
1, 52927, Control_c, 0, 64, 127
1, 53040, Tempo, 337079
1, 53040, Note_on_c, 0, 93, 0
1, 53040, Note_on_c, 0, 84, 0
1, 53040, Note_on_c, 0, 81, 0
1, 53040, Note_on_c, 0, 88, 0
1, 53040, Note_on_c, 0, 77, 54
1, 53040, Note_on_c, 0, 89, 64
1, 53280, Note_on_c, 0, 89, 0
1, 53280, Note_on_c, 0, 28, 0
1, 53280, Note_on_c, 0, 77, 0
1, 53280, Note_on_c, 0, 40, 0
1, 53280, Note_on_c, 0, 76, 62
1, 53280, Note_on_c, 0, 88, 73
1, 53280, Note_on_c, 0, 40, 50
1, 53280, Note_on_c, 0, 52, 60
1, 53297, Control_c, 0, 64, 0
1, 53436, Control_c, 0, 64, 127
1, 53520, Note_on_c, 0, 88, 0
1, 53520, Note_on_c, 0, 76, 0
1, 53520, Note_on_c, 0, 72, 56
1, 53520, Note_on_c, 0, 84, 66
1, 53760, Tempo, 339943
1, 53760, Note_on_c, 0, 84, 0
1, 53760, Note_on_c, 0, 72, 0
1, 53760, Note_on_c, 0, 52, 0
1, 53760, Note_on_c, 0, 40, 0
1, 53760, Note_on_c, 0, 72, 0
1, 53760, Note_on_c, 0, 55, 66
1, 53760, Note_on_c, 0, 67, 78
1, 53760, Note_on_c, 0, 31, 57
1, 53760, Note_on_c, 0, 43, 68
1, 53778, Control_c, 0, 64, 0
1, 54000, Note_on_c, 0, 43, 0
1, 54000, Note_on_c, 0, 55, 0
1, 54000, Note_on_c, 0, 67, 0
1, 54000, Note_on_c, 0, 31, 0
1, 54240, Tempo, 328767
1, 54240, Note_on_c, 0, 91, 62
1, 54240, Note_on_c, 0, 103, 73
1, 54240, Note_on_c, 0, 79, 66
1, 54325, Control_c, 0, 64, 127
1, 54480, Tempo, 334262
1, 54480, Note_on_c, 0, 79, 0
1, 54480, Note_on_c, 0, 103, 0
1, 54480, Note_on_c, 0, 91, 0
1, 54480, Note_on_c, 0, 98, 67
1, 54480, Note_on_c, 0, 86, 56
1, 54480, Note_on_c, 0, 74, 60
1, 54720, Tempo, 329670
1, 54720, Note_on_c, 0, 74, 0
1, 54720, Note_on_c, 0, 86, 0
1, 54720, Note_on_c, 0, 98, 0
1, 54720, Note_on_c, 0, 87, 59
1, 54720, Note_on_c, 0, 99, 70
1, 54720, Note_on_c, 0, 75, 65
1, 54734, Control_c, 0, 64, 0
1, 54846, Control_c, 0, 64, 127
1, 54960, Tempo, 335196
1, 54960, Note_on_c, 0, 75, 0
1, 54960, Note_on_c, 0, 99, 0
1, 54960, Note_on_c, 0, 87, 0
1, 54960, Note_on_c, 0, 98, 65
1, 54960, Note_on_c, 0, 86, 55
1, 54960, Note_on_c, 0, 74, 60
1, 55200, Tempo, 329670
1, 55200, Note_on_c, 0, 74, 0
1, 55200, Note_on_c, 0, 86, 0
1, 55200, Note_on_c, 0, 98, 0
1, 55200, Note_on_c, 0, 82, 59
1, 55200, Note_on_c, 0, 94, 70
1, 55200, Note_on_c, 0, 70, 65
1, 55215, Control_c, 0, 64, 0
1, 55315, Control_c, 0, 64, 127
1, 55440, Tempo, 335196
1, 55440, Note_on_c, 0, 70, 0
1, 55440, Note_on_c, 0, 94, 0
1, 55440, Note_on_c, 0, 82, 0
1, 55440, Note_on_c, 0, 91, 67
1, 55440, Note_on_c, 0, 79, 56
1, 55440, Note_on_c, 0, 67, 60
1, 55680, Tempo, 329670
1, 55680, Note_on_c, 0, 67, 0
1, 55680, Note_on_c, 0, 79, 0
1, 55680, Note_on_c, 0, 91, 0
1, 55680, Note_on_c, 0, 80, 59
1, 55680, Note_on_c, 0, 92, 70
1, 55680, Note_on_c, 0, 68, 64
1, 55696, Control_c, 0, 64, 0
1, 55806, Control_c, 0, 64, 127
1, 55920, Tempo, 335196
1, 55920, Note_on_c, 0, 68, 0
1, 55920, Note_on_c, 0, 92, 0
1, 55920, Note_on_c, 0, 80, 0
1, 55920, Note_on_c, 0, 99, 64
1, 55920, Note_on_c, 0, 87, 54
1, 55920, Note_on_c, 0, 75, 58
1, 56160, Tempo, 330579
1, 56160, Note_on_c, 0, 75, 0
1, 56160, Note_on_c, 0, 87, 0
1, 56160, Note_on_c, 0, 99, 0
1, 56160, Note_on_c, 0, 83, 56
1, 56160, Note_on_c, 0, 95, 67
1, 56160, Note_on_c, 0, 71, 62
1, 56177, Control_c, 0, 64, 0
1, 56343, Control_c, 0, 64, 127
1, 56400, Tempo, 341880
1, 56400, Note_on_c, 0, 71, 0
1, 56400, Note_on_c, 0, 95, 0
1, 56400, Note_on_c, 0, 83, 0
1, 56400, Note_on_c, 0, 99, 59
1, 56400, Note_on_c, 0, 87, 50
1, 56400, Note_on_c, 0, 75, 58
1, 56640, Tempo, 355030
1, 56640, Note_on_c, 0, 75, 0
1, 56640, Note_on_c, 0, 87, 0
1, 56640, Note_on_c, 0, 99, 0
1, 56640, Note_on_c, 0, 86, 62
1, 56640, Note_on_c, 0, 98, 74
1, 56640, Note_on_c, 0, 74, 63
1, 56654, Control_c, 0, 64, 0
1, 56880, Note_on_c, 0, 74, 0
1, 56880, Note_on_c, 0, 98, 0
1, 56880, Note_on_c, 0, 86, 0
1, 57120, Note_on_c, 0, 91, 68
1, 57120, Note_on_c, 0, 79, 57
1, 57120, Note_on_c, 0, 67, 61
1, 57360, Note_on_c, 0, 67, 0
1, 57360, Note_on_c, 0, 79, 0
1, 57360, Note_on_c, 0, 91, 0
1, 57600, Tempo, 339943
1, 57600, Note_on_c, 0, 91, 78
1, 57600, Note_on_c, 0, 79, 66
1, 57600, Note_on_c, 0, 67, 68
1, 57600, Note_on_c, 0, 55, 57
1, 57600, Control_c, 0, 64, 127
1, 58080, Tempo, 328767
1, 58080, Note_on_c, 0, 55, 0
1, 58080, Note_on_c, 0, 91, 0
1, 58080, Note_on_c, 0, 79, 0
1, 58080, Note_on_c, 0, 67, 0
1, 58080, Note_on_c, 0, 79, 62
1, 58080, Note_on_c, 0, 91, 73
1, 58080, Note_on_c, 0, 55, 55
1, 58080, Note_on_c, 0, 67, 66
1, 58094, Control_c, 0, 64, 0
1, 58193, Control_c, 0, 64, 127
1, 58320, Tempo, 334262
1, 58320, Note_on_c, 0, 67, 0
1, 58320, Note_on_c, 0, 79, 0
1, 58320, Note_on_c, 0, 91, 0
1, 58320, Note_on_c, 0, 55, 0
1, 58320, Note_on_c, 0, 86, 67
1, 58320, Note_on_c, 0, 74, 56
1, 58320, Note_on_c, 0, 50, 50
1, 58320, Note_on_c, 0, 62, 60
1, 58560, Tempo, 329670
1, 58560, Note_on_c, 0, 62, 0
1, 58560, Note_on_c, 0, 86, 0
1, 58560, Note_on_c, 0, 74, 0
1, 58560, Note_on_c, 0, 50, 0
1, 58560, Note_on_c, 0, 87, 70
1, 58560, Note_on_c, 0, 75, 59
1, 58560, Note_on_c, 0, 63, 65
1, 58560, Note_on_c, 0, 51, 55
1, 58572, Control_c, 0, 64, 0
1, 58686, Control_c, 0, 64, 127
1, 58800, Tempo, 335196
1, 58800, Note_on_c, 0, 51, 0
1, 58800, Note_on_c, 0, 87, 0
1, 58800, Note_on_c, 0, 75, 0
1, 58800, Note_on_c, 0, 63, 0
1, 58800, Note_on_c, 0, 74, 55
1, 58800, Note_on_c, 0, 86, 65
1, 58800, Note_on_c, 0, 50, 50
1, 58800, Note_on_c, 0, 62, 60
1, 59040, Tempo, 329670
1, 59040, Note_on_c, 0, 62, 0
1, 59040, Note_on_c, 0, 74, 0
1, 59040, Note_on_c, 0, 86, 0
1, 59040, Note_on_c, 0, 50, 0
1, 59040, Note_on_c, 0, 70, 59
1, 59040, Note_on_c, 0, 82, 70
1, 59040, Note_on_c, 0, 46, 55
1, 59040, Note_on_c, 0, 58, 65
1, 59058, Control_c, 0, 64, 0
1, 59166, Control_c, 0, 64, 127
1, 59280, Tempo, 335196
1, 59280, Note_on_c, 0, 58, 0
1, 59280, Note_on_c, 0, 70, 0
1, 59280, Note_on_c, 0, 82, 0
1, 59280, Note_on_c, 0, 46, 0
1, 59280, Note_on_c, 0, 67, 56
1, 59280, Note_on_c, 0, 79, 67
1, 59280, Note_on_c, 0, 55, 60
1, 59280, Note_on_c, 0, 43, 50
1, 59520, Tempo, 329670
1, 59520, Note_on_c, 0, 43, 0
1, 59520, Note_on_c, 0, 67, 0
1, 59520, Note_on_c, 0, 79, 0
1, 59520, Note_on_c, 0, 55, 0
1, 59520, Note_on_c, 0, 80, 70
1, 59520, Note_on_c, 0, 68, 59
1, 59520, Note_on_c, 0, 56, 64
1, 59520, Note_on_c, 0, 44, 54
1, 59532, Control_c, 0, 64, 0
1, 59623, Control_c, 0, 64, 127
1, 59760, Tempo, 335196
1, 59760, Note_on_c, 0, 44, 0
1, 59760, Note_on_c, 0, 80, 0
1, 59760, Note_on_c, 0, 68, 0
1, 59760, Note_on_c, 0, 56, 0
1, 59760, Note_on_c, 0, 87, 64
1, 59760, Note_on_c, 0, 75, 54
1, 59760, Note_on_c, 0, 63, 58
1, 59760, Note_on_c, 0, 51, 49
1, 60000, Tempo, 330579
1, 60000, Note_on_c, 0, 51, 0
1, 60000, Note_on_c, 0, 87, 0
1, 60000, Note_on_c, 0, 75, 0
1, 60000, Note_on_c, 0, 63, 0
1, 60000, Note_on_c, 0, 83, 67
1, 60000, Note_on_c, 0, 71, 56
1, 60000, Note_on_c, 0, 47, 52
1, 60000, Note_on_c, 0, 59, 62
1, 60012, Control_c, 0, 64, 0
1, 60103, Control_c, 0, 64, 127
1, 60240, Tempo, 341880
1, 60240, Note_on_c, 0, 59, 0
1, 60240, Note_on_c, 0, 83, 0
1, 60240, Note_on_c, 0, 71, 0
1, 60240, Note_on_c, 0, 47, 0
1, 60240, Note_on_c, 0, 75, 50
1, 60240, Note_on_c, 0, 87, 59
1, 60240, Note_on_c, 0, 51, 49
1, 60240, Note_on_c, 0, 63, 58
1, 60480, Tempo, 358209
1, 60480, Note_on_c, 0, 63, 0
1, 60480, Note_on_c, 0, 75, 0
1, 60480, Note_on_c, 0, 87, 0
1, 60480, Note_on_c, 0, 51, 0
1, 60480, Note_on_c, 0, 74, 67
1, 60480, Note_on_c, 0, 86, 79
1, 60480, Note_on_c, 0, 62, 63
1, 60480, Note_on_c, 0, 50, 54
1, 60496, Control_c, 0, 64, 0
1, 60720, Note_on_c, 0, 50, 0
1, 60720, Note_on_c, 0, 74, 0
1, 60720, Note_on_c, 0, 86, 0
1, 60720, Note_on_c, 0, 62, 0
1, 60960, Note_on_c, 0, 67, 56
1, 60960, Note_on_c, 0, 79, 67
1, 60960, Note_on_c, 0, 43, 51
1, 60960, Note_on_c, 0, 55, 61
1, 61200, Note_on_c, 0, 55, 0
1, 61200, Note_on_c, 0, 67, 0
1, 61200, Note_on_c, 0, 79, 0
1, 61200, Note_on_c, 0, 43, 0
1, 61440, Tempo, 339943
1, 61440, Note_on_c, 0, 79, 78
1, 61440, Note_on_c, 0, 67, 66
1, 61440, Note_on_c, 0, 55, 68
1, 61440, Note_on_c, 0, 43, 57
1, 61440, Control_c, 0, 64, 127
1, 61920, Tempo, 328767
1, 61920, Note_on_c, 0, 43, 0
1, 61920, Note_on_c, 0, 79, 0
1, 61920, Note_on_c, 0, 67, 0
1, 61920, Note_on_c, 0, 55, 0
1, 61920, Note_on_c, 0, 79, 73
1, 61920, Note_on_c, 0, 67, 62
1, 61920, Note_on_c, 0, 55, 66
1, 61920, Note_on_c, 0, 43, 55
1, 61929, Control_c, 0, 64, 0
1, 62076, Control_c, 0, 64, 127
1, 62160, Tempo, 334262
1, 62160, Note_on_c, 0, 43, 0
1, 62160, Note_on_c, 0, 79, 0
1, 62160, Note_on_c, 0, 67, 0
1, 62160, Note_on_c, 0, 55, 0
1, 62160, Note_on_c, 0, 62, 56
1, 62160, Note_on_c, 0, 74, 67
1, 62160, Note_on_c, 0, 38, 50
1, 62160, Note_on_c, 0, 50, 60
1, 62400, Tempo, 329670
1, 62400, Note_on_c, 0, 50, 0
1, 62400, Note_on_c, 0, 62, 0
1, 62400, Note_on_c, 0, 74, 0
1, 62400, Note_on_c, 0, 38, 0
1, 62400, Note_on_c, 0, 75, 70
1, 62400, Note_on_c, 0, 63, 59
1, 62400, Note_on_c, 0, 39, 55
1, 62400, Note_on_c, 0, 51, 65
1, 62409, Control_c, 0, 64, 0
1, 62572, Control_c, 0, 64, 127
1, 62640, Tempo, 335196
1, 62640, Note_on_c, 0, 51, 0
1, 62640, Note_on_c, 0, 75, 0
1, 62640, Note_on_c, 0, 63, 0
1, 62640, Note_on_c, 0, 39, 0
1, 62640, Note_on_c, 0, 74, 65
1, 62640, Note_on_c, 0, 62, 55
1, 62640, Note_on_c, 0, 38, 50
1, 62640, Note_on_c, 0, 50, 60
1, 62880, Tempo, 329670
1, 62880, Note_on_c, 0, 50, 0
1, 62880, Note_on_c, 0, 74, 0
1, 62880, Note_on_c, 0, 62, 0
1, 62880, Note_on_c, 0, 38, 0
1, 62880, Note_on_c, 0, 70, 70
1, 62880, Note_on_c, 0, 58, 59
1, 62880, Note_on_c, 0, 34, 55
1, 62880, Note_on_c, 0, 46, 65
1, 62896, Control_c, 0, 64, 0
1, 62983, Control_c, 0, 64, 127
1, 63120, Tempo, 335196
1, 63120, Note_on_c, 0, 46, 0
1, 63120, Note_on_c, 0, 70, 0
1, 63120, Note_on_c, 0, 58, 0
1, 63120, Note_on_c, 0, 34, 0
1, 63120, Note_on_c, 0, 55, 56
1, 63120, Note_on_c, 0, 67, 67
1, 63120, Note_on_c, 0, 43, 60
1, 63120, Note_on_c, 0, 31, 50
1, 63360, Tempo, 355030
1, 63360, Note_on_c, 0, 31, 0
1, 63360, Note_on_c, 0, 55, 0
1, 63360, Note_on_c, 0, 67, 0
1, 63360, Note_on_c, 0, 43, 0
1, 63360, Note_on_c, 0, 54, 87
1, 63360, Note_on_c, 0, 30, 59
1, 63360, Note_on_c, 0, 42, 70
1, 63370, Control_c, 0, 64, 0
1, 63487, Control_c, 0, 64, 127
1, 63840, Tempo, 328767
1, 63840, Note_on_c, 0, 79, 73
1, 63840, Note_on_c, 0, 67, 62
1, 63840, Note_on_c, 0, 55, 66
1, 63840, Note_on_c, 0, 43, 55
1, 63857, Control_c, 0, 64, 0
1, 63981, Control_c, 0, 64, 127
1, 64080, Tempo, 334262
1, 64080, Note_on_c, 0, 43, 0
1, 64080, Note_on_c, 0, 67, 0
1, 64080, Note_on_c, 0, 30, 0
1, 64080, Note_on_c, 0, 42, 0
1, 64080, Note_on_c, 0, 54, 0
1, 64080, Note_on_c, 0, 55, 0
1, 64080, Note_on_c, 0, 79, 0
1, 64080, Note_on_c, 0, 74, 67
1, 64080, Note_on_c, 0, 62, 56
1, 64080, Note_on_c, 0, 38, 50
1, 64080, Note_on_c, 0, 50, 60
1, 64320, Tempo, 329670
1, 64320, Note_on_c, 0, 50, 0
1, 64320, Note_on_c, 0, 74, 0
1, 64320, Note_on_c, 0, 62, 0
1, 64320, Note_on_c, 0, 38, 0
1, 64320, Note_on_c, 0, 63, 59
1, 64320, Note_on_c, 0, 75, 70
1, 64320, Note_on_c, 0, 39, 55
1, 64320, Note_on_c, 0, 51, 65
1, 64331, Control_c, 0, 64, 0
1, 64435, Control_c, 0, 64, 127
1, 64560, Tempo, 335196
1, 64560, Note_on_c, 0, 51, 0
1, 64560, Note_on_c, 0, 63, 0
1, 64560, Note_on_c, 0, 75, 0
1, 64560, Note_on_c, 0, 39, 0
1, 64560, Note_on_c, 0, 74, 65
1, 64560, Note_on_c, 0, 62, 55
1, 64560, Note_on_c, 0, 50, 60
1, 64560, Note_on_c, 0, 38, 50
1, 64800, Tempo, 334262
1, 64800, Note_on_c, 0, 38, 0
1, 64800, Note_on_c, 0, 74, 0
1, 64800, Note_on_c, 0, 62, 0
1, 64800, Note_on_c, 0, 50, 0
1, 64800, Note_on_c, 0, 58, 59
1, 64800, Note_on_c, 0, 70, 70
1, 64800, Note_on_c, 0, 34, 55
1, 64800, Note_on_c, 0, 46, 65
1, 64816, Control_c, 0, 64, 0
1, 64926, Control_c, 0, 64, 127
1, 65040, Tempo, 342857
1, 65040, Note_on_c, 0, 46, 0
1, 65040, Note_on_c, 0, 58, 0
1, 65040, Note_on_c, 0, 70, 0
1, 65040, Note_on_c, 0, 34, 0
1, 65040, Note_on_c, 0, 55, 56
1, 65040, Note_on_c, 0, 67, 67
1, 65040, Note_on_c, 0, 31, 50
1, 65040, Note_on_c, 0, 43, 60
1, 65280, Tempo, 351906
1, 65280, Note_on_c, 0, 43, 0
1, 65280, Note_on_c, 0, 55, 0
1, 65280, Note_on_c, 0, 67, 0
1, 65280, Note_on_c, 0, 31, 0
1, 65280, Note_on_c, 0, 53, 87
1, 65280, Note_on_c, 0, 29, 59
1, 65280, Note_on_c, 0, 41, 70
1, 65294, Control_c, 0, 64, 0
1, 65379, Control_c, 0, 64, 127
1, 65760, Tempo, 328767
1, 65760, Note_on_c, 0, 67, 62
1, 65760, Note_on_c, 0, 79, 73
1, 65760, Note_on_c, 0, 43, 55
1, 65760, Note_on_c, 0, 55, 66
1, 65774, Control_c, 0, 64, 0
1, 65873, Control_c, 0, 64, 127
1, 66000, Tempo, 334262
1, 66000, Note_on_c, 0, 55, 0
1, 66000, Note_on_c, 0, 79, 0
1, 66000, Note_on_c, 0, 29, 0
1, 66000, Note_on_c, 0, 41, 0
1, 66000, Note_on_c, 0, 53, 0
1, 66000, Note_on_c, 0, 43, 0
1, 66000, Note_on_c, 0, 67, 0
1, 66000, Note_on_c, 0, 74, 67
1, 66000, Note_on_c, 0, 62, 56
1, 66000, Note_on_c, 0, 50, 60
1, 66000, Note_on_c, 0, 38, 50
1, 66240, Tempo, 329670
1, 66240, Note_on_c, 0, 38, 0
1, 66240, Note_on_c, 0, 74, 0
1, 66240, Note_on_c, 0, 62, 0
1, 66240, Note_on_c, 0, 50, 0
1, 66240, Note_on_c, 0, 75, 70
1, 66240, Note_on_c, 0, 63, 59
1, 66240, Note_on_c, 0, 51, 65
1, 66240, Note_on_c, 0, 39, 55
1, 66249, Control_c, 0, 64, 0
1, 66355, Control_c, 0, 64, 127
1, 66480, Tempo, 335196
1, 66480, Note_on_c, 0, 39, 0
1, 66480, Note_on_c, 0, 75, 0
1, 66480, Note_on_c, 0, 63, 0
1, 66480, Note_on_c, 0, 51, 0
1, 66480, Note_on_c, 0, 62, 55
1, 66480, Note_on_c, 0, 74, 65
1, 66480, Note_on_c, 0, 50, 60
1, 66480, Note_on_c, 0, 38, 50
1, 66720, Tempo, 336134
1, 66720, Note_on_c, 0, 38, 0
1, 66720, Note_on_c, 0, 62, 0
1, 66720, Note_on_c, 0, 74, 0
1, 66720, Note_on_c, 0, 50, 0
1, 66720, Note_on_c, 0, 58, 59
1, 66720, Note_on_c, 0, 70, 70
1, 66720, Note_on_c, 0, 34, 55
1, 66720, Note_on_c, 0, 46, 65
1, 66732, Control_c, 0, 64, 0
1, 66823, Control_c, 0, 64, 127
1, 66960, Tempo, 344828
1, 66960, Note_on_c, 0, 46, 0
1, 66960, Note_on_c, 0, 58, 0
1, 66960, Note_on_c, 0, 70, 0
1, 66960, Note_on_c, 0, 34, 0
1, 66960, Note_on_c, 0, 55, 56
1, 66960, Note_on_c, 0, 67, 67
1, 66960, Note_on_c, 0, 31, 50
1, 66960, Note_on_c, 0, 43, 60
1, 67200, Tempo, 353982
1, 67200, Note_on_c, 0, 43, 0
1, 67200, Note_on_c, 0, 55, 0
1, 67200, Note_on_c, 0, 67, 0
1, 67200, Note_on_c, 0, 31, 0
1, 67200, Note_on_c, 0, 52, 87
1, 67200, Note_on_c, 0, 40, 70
1, 67200, Note_on_c, 0, 28, 59
1, 67219, Control_c, 0, 64, 0
1, 67327, Control_c, 0, 64, 127
1, 67680, Tempo, 328767
1, 67680, Note_on_c, 0, 79, 73
1, 67680, Note_on_c, 0, 67, 62
1, 67680, Note_on_c, 0, 43, 55
1, 67680, Note_on_c, 0, 55, 66
1, 67695, Control_c, 0, 64, 0
1, 67807, Control_c, 0, 64, 127
1, 67920, Tempo, 334262
1, 67920, Note_on_c, 0, 55, 0
1, 67920, Note_on_c, 0, 67, 0
1, 67920, Note_on_c, 0, 40, 0
1, 67920, Note_on_c, 0, 28, 0
1, 67920, Note_on_c, 0, 52, 0
1, 67920, Note_on_c, 0, 43, 0
1, 67920, Note_on_c, 0, 79, 0
1, 67920, Note_on_c, 0, 62, 56
1, 67920, Note_on_c, 0, 74, 67
1, 67920, Note_on_c, 0, 38, 50
1, 67920, Note_on_c, 0, 50, 60
1, 68160, Tempo, 329670
1, 68160, Note_on_c, 0, 50, 0
1, 68160, Note_on_c, 0, 62, 0
1, 68160, Note_on_c, 0, 74, 0
1, 68160, Note_on_c, 0, 38, 0
1, 68160, Note_on_c, 0, 75, 70
1, 68160, Note_on_c, 0, 63, 59
1, 68160, Note_on_c, 0, 51, 65
1, 68160, Note_on_c, 0, 39, 55
1, 68172, Control_c, 0, 64, 0
1, 68252, Control_c, 0, 64, 127
1, 68400, Tempo, 335196
1, 68400, Note_on_c, 0, 39, 0
1, 68400, Note_on_c, 0, 75, 0
1, 68400, Note_on_c, 0, 63, 0
1, 68400, Note_on_c, 0, 51, 0
1, 68400, Note_on_c, 0, 74, 65
1, 68400, Note_on_c, 0, 62, 55
1, 68400, Note_on_c, 0, 50, 60
1, 68400, Note_on_c, 0, 38, 50
1, 68640, Tempo, 336134
1, 68640, Note_on_c, 0, 38, 0
1, 68640, Note_on_c, 0, 74, 0
1, 68640, Note_on_c, 0, 62, 0
1, 68640, Note_on_c, 0, 50, 0
1, 68640, Note_on_c, 0, 70, 70
1, 68640, Note_on_c, 0, 58, 59
1, 68640, Note_on_c, 0, 46, 65
1, 68640, Note_on_c, 0, 34, 55
1, 68651, Control_c, 0, 64, 0
1, 68743, Control_c, 0, 64, 127
1, 68880, Tempo, 344828
1, 68880, Note_on_c, 0, 34, 0
1, 68880, Note_on_c, 0, 70, 0
1, 68880, Note_on_c, 0, 58, 0
1, 68880, Note_on_c, 0, 46, 0
1, 68880, Note_on_c, 0, 67, 67
1, 68880, Note_on_c, 0, 55, 56
1, 68880, Note_on_c, 0, 31, 50
1, 68880, Note_on_c, 0, 43, 60
1, 69120, Tempo, 358209
1, 69120, Note_on_c, 0, 43, 0
1, 69120, Note_on_c, 0, 67, 0
1, 69120, Note_on_c, 0, 55, 0
1, 69120, Note_on_c, 0, 31, 0
1, 69120, Note_on_c, 0, 51, 87
1, 69120, Note_on_c, 0, 27, 59
1, 69120, Note_on_c, 0, 39, 70
1, 69134, Control_c, 0, 64, 0
1, 69261, Control_c, 0, 64, 127
1, 69600, Tempo, 339943
1, 69600, Note_on_c, 0, 39, 0
1, 69600, Note_on_c, 0, 27, 0
1, 69600, Note_on_c, 0, 51, 0
1, 69600, Note_on_c, 0, 50, 87
1, 69600, Note_on_c, 0, 26, 59
1, 69600, Note_on_c, 0, 38, 70
1, 69617, Control_c, 0, 64, 0
1, 69840, Note_on_c, 0, 50, 0
1, 70080, Note_on_c, 0, 38, 0
1, 70080, Note_on_c, 0, 26, 0
1, 70080, Note_on_c, 0, 59, 73
1, 70080, Note_on_c, 0, 71, 87
1, 70080, Note_on_c, 0, 47, 70
1, 70080, Note_on_c, 0, 35, 59
1, 70183, Control_c, 0, 64, 127
1, 70560, Note_on_c, 0, 92, 83
1, 70560, Note_on_c, 0, 80, 70
1, 70560, Note_on_c, 0, 68, 72
1, 70560, Note_on_c, 0, 56, 72
1, 70580, Control_c, 0, 64, 0
1, 70800, Note_on_c, 0, 56, 0
1, 70800, Note_on_c, 0, 59, 0
1, 70800, Note_on_c, 0, 92, 0
1, 70800, Note_on_c, 0, 71, 0
1, 70800, Note_on_c, 0, 47, 0
1, 70800, Note_on_c, 0, 35, 0
1, 70800, Note_on_c, 0, 80, 0
1, 70800, Note_on_c, 0, 68, 0
1, 71010, Tempo, 338983
1, 71040, Note_on_c, 0, 91, 76
1, 71074, Control_c, 0, 64, 127
1, 71160, Note_on_c, 0, 91, 0
1, 71160, Note_on_c, 0, 103, 72
1, 71280, Note_on_c, 0, 103, 0
1, 71280, Note_on_c, 0, 86, 69
1, 71289, Control_c, 0, 64, 0
1, 71343, Control_c, 0, 64, 127
1, 71400, Note_on_c, 0, 86, 0
1, 71400, Note_on_c, 0, 98, 65
1, 71520, Note_on_c, 0, 98, 0
1, 71520, Note_on_c, 0, 87, 73
1, 71526, Control_c, 0, 64, 0
1, 71589, Control_c, 0, 64, 127
1, 71640, Note_on_c, 0, 87, 0
1, 71640, Note_on_c, 0, 99, 69
1, 71650, Tempo, 338028
1, 71760, Note_on_c, 0, 99, 0
1, 71760, Note_on_c, 0, 83, 70
1, 71769, Control_c, 0, 64, 0
1, 71812, Control_c, 0, 64, 127
1, 71880, Note_on_c, 0, 83, 0
1, 71880, Note_on_c, 0, 95, 66
1, 72000, Note_on_c, 0, 95, 0
1, 72000, Note_on_c, 0, 84, 73
1, 72000, Control_c, 0, 64, 0
1, 72063, Control_c, 0, 64, 127
1, 72120, Note_on_c, 0, 84, 0
1, 72120, Note_on_c, 0, 96, 69
1, 72240, Note_on_c, 0, 96, 0
1, 72240, Note_on_c, 0, 79, 69
1, 72250, Tempo, 337079
1, 72251, Control_c, 0, 64, 0
1, 72332, Control_c, 0, 64, 127
1, 72360, Note_on_c, 0, 79, 0
1, 72360, Note_on_c, 0, 91, 65
1, 72480, Note_on_c, 0, 91, 0
1, 72480, Note_on_c, 0, 80, 72
1, 72486, Control_c, 0, 64, 0
1, 72555, Control_c, 0, 64, 127
1, 72600, Note_on_c, 0, 80, 0
1, 72600, Note_on_c, 0, 92, 69
1, 72720, Note_on_c, 0, 92, 0
1, 72720, Note_on_c, 0, 74, 70
1, 72733, Control_c, 0, 64, 0
1, 72800, Control_c, 0, 64, 127
1, 72840, Note_on_c, 0, 74, 0
1, 72840, Note_on_c, 0, 86, 65
1, 72850, Tempo, 336134
1, 72960, Tempo, 335196
1, 72960, Note_on_c, 0, 86, 0
1, 72960, Note_on_c, 0, 75, 76
1, 72964, Control_c, 0, 64, 0
1, 73052, Control_c, 0, 64, 127
1, 73080, Note_on_c, 0, 75, 0
1, 73080, Note_on_c, 0, 87, 72
1, 73200, Note_on_c, 0, 87, 0
1, 73200, Note_on_c, 0, 71, 66
1, 73206, Control_c, 0, 64, 0
1, 73280, Control_c, 0, 64, 127
1, 73320, Note_on_c, 0, 71, 0
1, 73320, Note_on_c, 0, 83, 65
1, 73440, Note_on_c, 0, 83, 0
1, 73440, Note_on_c, 0, 72, 72
1, 73447, Control_c, 0, 64, 0
1, 73520, Control_c, 0, 64, 127
1, 73560, Note_on_c, 0, 72, 0
1, 73560, Note_on_c, 0, 84, 69
1, 73680, Note_on_c, 0, 84, 0
1, 73680, Note_on_c, 0, 67, 66
1, 73690, Control_c, 0, 64, 0
1, 73777, Control_c, 0, 64, 127
1, 73800, Note_on_c, 0, 67, 0
1, 73800, Note_on_c, 0, 79, 65
1, 73920, Note_on_c, 0, 79, 0
1, 73920, Note_on_c, 0, 68, 72
1, 73930, Control_c, 0, 64, 0
1, 73989, Control_c, 0, 64, 127
1, 74040, Note_on_c, 0, 68, 0
1, 74040, Note_on_c, 0, 80, 68
1, 74160, Note_on_c, 0, 80, 0
1, 74160, Note_on_c, 0, 62, 67
1, 74174, Control_c, 0, 64, 0
1, 74252, Control_c, 0, 64, 127
1, 74280, Note_on_c, 0, 62, 0
1, 74280, Note_on_c, 0, 74, 63
1, 74400, Note_on_c, 0, 74, 0
1, 74400, Note_on_c, 0, 63, 72
1, 74417, Control_c, 0, 64, 0
1, 74497, Control_c, 0, 64, 127
1, 74520, Note_on_c, 0, 63, 0
1, 74520, Note_on_c, 0, 75, 69
1, 74640, Note_on_c, 0, 75, 0
1, 74640, Note_on_c, 0, 59, 67
1, 74651, Control_c, 0, 64, 0
1, 74732, Control_c, 0, 64, 127
1, 74760, Note_on_c, 0, 59, 0
1, 74760, Note_on_c, 0, 71, 66
1, 74880, Tempo, 333333
1, 74880, Note_on_c, 0, 71, 0
1, 74880, Note_on_c, 0, 60, 76
1, 74886, Control_c, 0, 64, 0
1, 74989, Control_c, 0, 64, 127
1, 75000, Note_on_c, 0, 60, 0
1, 75000, Note_on_c, 0, 72, 72
1, 75120, Note_on_c, 0, 72, 0
1, 75120, Note_on_c, 0, 55, 67
1, 75133, Control_c, 0, 64, 0
1, 75217, Control_c, 0, 64, 127
1, 75240, Note_on_c, 0, 55, 0
1, 75240, Note_on_c, 0, 67, 63
1, 75360, Note_on_c, 0, 67, 0
1, 75360, Note_on_c, 0, 56, 73
1, 75366, Control_c, 0, 64, 0
1, 75417, Control_c, 0, 64, 127
1, 75480, Note_on_c, 0, 56, 0
1, 75480, Note_on_c, 0, 68, 69
1, 75520, Tempo, 332410
1, 75600, Note_on_c, 0, 68, 0
1, 75600, Note_on_c, 0, 50, 67
1, 75611, Control_c, 0, 64, 0
1, 75675, Control_c, 0, 64, 127
1, 75720, Note_on_c, 0, 50, 0
1, 75720, Note_on_c, 0, 62, 66
1, 75840, Note_on_c, 0, 62, 0
1, 75840, Note_on_c, 0, 51, 73
1, 75845, Control_c, 0, 64, 0
1, 75926, Control_c, 0, 64, 127
1, 75960, Note_on_c, 0, 51, 0
1, 75960, Note_on_c, 0, 63, 69
1, 76080, Note_on_c, 0, 63, 0
1, 76080, Note_on_c, 0, 47, 70
1, 76091, Control_c, 0, 64, 0
1, 76160, Tempo, 331492
1, 76189, Control_c, 0, 64, 127
1, 76200, Note_on_c, 0, 47, 0
1, 76200, Note_on_c, 0, 59, 66
1, 76320, Note_on_c, 0, 59, 0
1, 76320, Note_on_c, 0, 48, 74
1, 76326, Control_c, 0, 64, 0
1, 76412, Control_c, 0, 64, 127
1, 76440, Note_on_c, 0, 48, 0
1, 76440, Note_on_c, 0, 60, 75
1, 76560, Note_on_c, 0, 60, 0
1, 76560, Note_on_c, 0, 43, 72
1, 76571, Control_c, 0, 64, 0
1, 76657, Control_c, 0, 64, 127
1, 76680, Note_on_c, 0, 43, 0
1, 76680, Note_on_c, 0, 55, 69
1, 76800, Tempo, 330579
1, 76800, Note_on_c, 0, 55, 0
1, 76800, Note_on_c, 0, 44, 76
1, 76804, Control_c, 0, 64, 0
1, 76869, Control_c, 0, 64, 127
1, 76920, Note_on_c, 0, 44, 0
1, 76920, Note_on_c, 0, 56, 78
1, 77040, Note_on_c, 0, 56, 0
1, 77040, Note_on_c, 0, 38, 71
1, 77045, Control_c, 0, 64, 0
1, 77103, Control_c, 0, 64, 127
1, 77160, Note_on_c, 0, 38, 0
1, 77160, Note_on_c, 0, 50, 71
1, 77280, Note_on_c, 0, 50, 0
1, 77280, Note_on_c, 0, 39, 76
1, 77284, Control_c, 0, 64, 0
1, 77343, Control_c, 0, 64, 127
1, 77400, Note_on_c, 0, 39, 0
1, 77400, Note_on_c, 0, 51, 81
1, 77520, Note_on_c, 0, 51, 0
1, 77520, Note_on_c, 0, 35, 72
1, 77531, Control_c, 0, 64, 0
1, 77600, Control_c, 0, 64, 127
1, 77640, Note_on_c, 0, 35, 0
1, 77640, Note_on_c, 0, 47, 74
1, 77760, Note_on_c, 0, 47, 0
1, 77760, Note_on_c, 0, 36, 76
1, 77764, Control_c, 0, 64, 0
1, 77840, Control_c, 0, 64, 127
1, 77880, Note_on_c, 0, 36, 0
1, 77880, Note_on_c, 0, 48, 82
1, 78000, Note_on_c, 0, 48, 0
1, 78000, Note_on_c, 0, 31, 71
1, 78008, Control_c, 0, 64, 0
1, 78086, Control_c, 0, 64, 127
1, 78120, Note_on_c, 0, 31, 0
1, 78120, Note_on_c, 0, 43, 77
1, 78240, Note_on_c, 0, 43, 0
1, 78240, Note_on_c, 0, 32, 77
1, 78246, Control_c, 0, 64, 0
1, 78326, Control_c, 0, 64, 127
1, 78360, Note_on_c, 0, 32, 0
1, 78360, Note_on_c, 0, 44, 82
1, 78480, Note_on_c, 0, 44, 0
1, 78480, Note_on_c, 0, 31, 72
1, 78485, Control_c, 0, 64, 0
1, 78572, Control_c, 0, 64, 127
1, 78600, Note_on_c, 0, 31, 0
1, 78600, Note_on_c, 0, 43, 77
1, 78680, Tempo, 333333
1, 78720, Note_on_c, 0, 43, 0
1, 78720, Note_on_c, 0, 32, 76
1, 78723, Control_c, 0, 64, 0
1, 78772, Control_c, 0, 64, 127
1, 78840, Note_on_c, 0, 32, 0
1, 78840, Note_on_c, 0, 44, 82
1, 78880, Tempo, 334262
1, 78960, Note_on_c, 0, 44, 0
1, 78960, Note_on_c, 0, 31, 71
1, 78968, Control_c, 0, 64, 0
1, 79040, Tempo, 335196
1, 79052, Control_c, 0, 64, 127
1, 79080, Note_on_c, 0, 31, 0
1, 79080, Note_on_c, 0, 43, 76
1, 79200, Note_on_c, 0, 43, 0
1, 79200, Note_on_c, 0, 35, 76
1, 79211, Control_c, 0, 64, 0
1, 79240, Tempo, 336134
1, 79286, Control_c, 0, 64, 127
1, 79320, Note_on_c, 0, 35, 0
1, 79320, Note_on_c, 0, 47, 82
1, 79400, Tempo, 337079
1, 79440, Note_on_c, 0, 47, 0
1, 79440, Note_on_c, 0, 31, 69
1, 79451, Control_c, 0, 64, 0
1, 79526, Control_c, 0, 64, 127
1, 79560, Tempo, 338028
1, 79560, Note_on_c, 0, 31, 0
1, 79560, Note_on_c, 0, 43, 79
1, 79680, Note_on_c, 0, 43, 0
1, 79680, Note_on_c, 0, 44, 74
1, 79680, Note_on_c, 0, 32, 63
1, 79686, Control_c, 0, 64, 0
1, 79755, Control_c, 0, 64, 127
1, 79760, Tempo, 338983
1, 79800, Note_on_c, 0, 32, 0
1, 79800, Note_on_c, 0, 44, 0
1, 79800, Note_on_c, 0, 56, 82
1, 79920, Tempo, 339943
1, 79920, Note_on_c, 0, 56, 0
1, 79920, Note_on_c, 0, 31, 60
1, 79920, Note_on_c, 0, 43, 71
1, 79931, Control_c, 0, 64, 0
1, 79983, Control_c, 0, 64, 127
1, 80040, Note_on_c, 0, 43, 0
1, 80040, Note_on_c, 0, 31, 0
1, 80040, Note_on_c, 0, 55, 76
1, 80080, Tempo, 340909
1, 80160, Note_on_c, 0, 55, 0
1, 80160, Note_on_c, 0, 47, 73
1, 80160, Note_on_c, 0, 35, 62
1, 80175, Control_c, 0, 64, 0
1, 80240, Control_c, 0, 64, 127
1, 80280, Tempo, 341880
1, 80280, Note_on_c, 0, 35, 0
1, 80280, Note_on_c, 0, 47, 0
1, 80280, Note_on_c, 0, 59, 82
1, 80400, Note_on_c, 0, 59, 0
1, 80400, Note_on_c, 0, 31, 60
1, 80400, Note_on_c, 0, 43, 71
1, 80414, Control_c, 0, 64, 0
1, 80440, Tempo, 342857
1, 80492, Control_c, 0, 64, 127
1, 80520, Note_on_c, 0, 43, 0
1, 80520, Note_on_c, 0, 31, 0
1, 80520, Note_on_c, 0, 55, 79
1, 80600, Tempo, 343840
1, 80640, Tempo, 353982
1, 80640, Note_on_c, 0, 55, 0
1, 80640, Note_on_c, 0, 56, 85
1, 80640, Note_on_c, 0, 44, 76
1, 80640, Note_on_c, 0, 32, 64
1, 80640, Control_c, 0, 64, 0
1, 80880, Note_on_c, 0, 32, 0
1, 80880, Note_on_c, 0, 44, 0
1, 80880, Note_on_c, 0, 56, 0
1, 81120, Note_on_c, 0, 56, 84
1, 81120, Note_on_c, 0, 32, 61
1, 81120, Note_on_c, 0, 44, 72
1, 81360, Note_on_c, 0, 44, 0
1, 81360, Note_on_c, 0, 32, 0
1, 81360, Note_on_c, 0, 56, 0
1, 81600, Note_on_c, 0, 67, 73
1, 81600, Note_on_c, 0, 79, 86
1, 81600, Note_on_c, 0, 55, 76
1, 81600, Note_on_c, 0, 43, 64
1, 81840, Note_on_c, 0, 43, 0
1, 81840, Note_on_c, 0, 67, 0
1, 81840, Note_on_c, 0, 79, 0
1, 81840, Note_on_c, 0, 55, 0
1, 82080, Note_on_c, 0, 79, 83
1, 82080, Note_on_c, 0, 67, 70
1, 82080, Note_on_c, 0, 43, 61
1, 82080, Note_on_c, 0, 55, 72
1, 82320, Note_on_c, 0, 55, 0
1, 82320, Note_on_c, 0, 79, 0
1, 82320, Note_on_c, 0, 67, 0
1, 82320, Note_on_c, 0, 43, 0
1, 82560, Tempo, 353982
1, 82560, Note_on_c, 0, 56, 85
1, 82560, Note_on_c, 0, 44, 76
1, 82560, Note_on_c, 0, 32, 64
1, 82800, Note_on_c, 0, 32, 0
1, 82800, Note_on_c, 0, 44, 0
1, 82800, Note_on_c, 0, 56, 0
1, 83040, Note_on_c, 0, 56, 84
1, 83040, Note_on_c, 0, 32, 61
1, 83040, Note_on_c, 0, 44, 72
1, 83280, Note_on_c, 0, 44, 0
1, 83280, Note_on_c, 0, 32, 0
1, 83280, Note_on_c, 0, 56, 0
1, 83520, Note_on_c, 0, 79, 86
1, 83520, Note_on_c, 0, 67, 73
1, 83520, Note_on_c, 0, 43, 64
1, 83520, Note_on_c, 0, 55, 76
1, 83760, Note_on_c, 0, 55, 0
1, 83760, Note_on_c, 0, 79, 0
1, 83760, Note_on_c, 0, 67, 0
1, 83760, Note_on_c, 0, 43, 0
1, 84000, Note_on_c, 0, 79, 83
1, 84000, Note_on_c, 0, 67, 70
1, 84000, Note_on_c, 0, 55, 72
1, 84000, Note_on_c, 0, 43, 61
1, 84240, Note_on_c, 0, 43, 0
1, 84240, Note_on_c, 0, 79, 0
1, 84240, Note_on_c, 0, 67, 0
1, 84240, Note_on_c, 0, 55, 0
1, 84480, Note_on_c, 0, 56, 85
1, 84480, Note_on_c, 0, 44, 76
1, 84507, Control_c, 0, 64, 127
1, 85440, Note_on_c, 0, 44, 0
1, 85440, Note_on_c, 0, 56, 0
1, 85440, Note_on_c, 0, 79, 84
1, 85440, Note_on_c, 0, 67, 71
1, 85440, Note_on_c, 0, 55, 70
1, 85459, Control_c, 0, 64, 0
1, 85707, Control_c, 0, 64, 127
1, 86400, Note_on_c, 0, 55, 0
1, 86400, Note_on_c, 0, 67, 0
1, 86400, Note_on_c, 0, 79, 0
1, 86400, Note_on_c, 0, 56, 85
1, 86400, Note_on_c, 0, 44, 76
1, 86410, Control_c, 0, 64, 0
1, 86614, Control_c, 0, 64, 127
1, 87360, Tempo, 400000
1, 87360, Note_on_c, 0, 44, 0
1, 87360, Note_on_c, 0, 56, 0
1, 87360, Note_on_c, 0, 79, 83
1, 87360, Note_on_c, 0, 67, 70
1, 87360, Note_on_c, 0, 55, 71
1, 87369, Control_c, 0, 64, 0
1, 87600, Control_c, 0, 64, 127
1, 88320, Tempo, 398671
1, 88320, Note_on_c, 0, 55, 0
1, 88320, Note_on_c, 0, 67, 0
1, 88320, Note_on_c, 0, 79, 0
1, 88320, Note_on_c, 0, 67, 61
1, 88330, Control_c, 0, 64, 0
1, 88400, Tempo, 400000
1, 88480, Tempo, 401338
1, 88560, Tempo, 402685
1, 88640, Tempo, 404040
1, 88640, Control_c, 0, 64, 127
1, 88720, Tempo, 405405
1, 88800, Tempo, 406780
1, 88800, Note_on_c, 0, 67, 0
1, 88800, Note_on_c, 0, 67, 54
1, 88880, Tempo, 408163
1, 88960, Tempo, 409556
1, 89040, Tempo, 410959
1, 89080, Tempo, 412371
1, 89160, Tempo, 413793
1, 89240, Tempo, 415225
1, 89280, Note_on_c, 0, 67, 0
1, 89280, Note_on_c, 0, 67, 51
1, 89320, Tempo, 416667
1, 89400, Tempo, 418118
1, 89480, Tempo, 419580
1, 89560, Tempo, 421053
1, 89640, Tempo, 422535
1, 89720, Tempo, 424028
1, 89760, Tempo, 425532
1, 89760, Note_on_c, 0, 67, 0
1, 89760, Note_on_c, 0, 67, 47
1, 89973, Control_c, 0, 64, 0
1, 90220, Tempo, 666667
1, 90240, Time_signature, 4, 2, 24, 8
1, 90240, Tempo, 627090
1, 90240, Marker_t, "Andante mosso"
1, 90240, Note_on_c, 0, 67, 0
1, 90240, Note_on_c, 0, 67, 36
1, 90265, Control_c, 0, 64, 127
1, 90300, Tempo, 620283
1, 90320, Note_on_c, 0, 64, 31
1, 90330, Note_on_c, 0, 67, 0
1, 90340, Tempo, 623765
1, 90360, Tempo, 634249
1, 90380, Tempo, 630782
1, 90400, Tempo, 620283
1, 90400, Note_on_c, 0, 67, 36
1, 90410, Note_on_c, 0, 64, 0
1, 90420, Tempo, 616903
1, 90440, Tempo, 613622
1, 90460, Tempo, 620283
1, 90480, Tempo, 634249
1, 90480, Note_on_c, 0, 64, 31
1, 90490, Note_on_c, 0, 67, 0
1, 90500, Tempo, 637891
1, 90520, Tempo, 627090
1, 90540, Tempo, 620283
1, 90560, Tempo, 616903
1, 90560, Note_on_c, 0, 67, 36
1, 90570, Note_on_c, 0, 64, 0
1, 90580, Tempo, 620283
1, 90600, Tempo, 623765
1, 90620, Tempo, 630782
1, 90640, Note_on_c, 0, 64, 31
1, 90650, Note_on_c, 0, 67, 0
1, 90660, Tempo, 627090
1, 90680, Tempo, 630782
1, 90700, Tempo, 637891
1, 90720, Note_on_c, 0, 67, 36
1, 90730, Note_on_c, 0, 64, 0
1, 90740, Tempo, 623765
1, 90760, Tempo, 620283
1, 90780, Tempo, 613622
1, 90800, Tempo, 610190
1, 90800, Note_on_c, 0, 64, 31
1, 90810, Note_on_c, 0, 67, 0
1, 90820, Tempo, 606919
1, 90840, Tempo, 613622
1, 90860, Tempo, 616903
1, 90880, Note_on_c, 0, 67, 36
1, 90890, Note_on_c, 0, 64, 0
1, 90900, Tempo, 623765
1, 90920, Tempo, 627090
1, 90940, Tempo, 634249
1, 90960, Tempo, 630782
1, 90960, Note_on_c, 0, 64, 32
1, 90970, Note_on_c, 0, 67, 0
1, 90980, Tempo, 627090
1, 91020, Tempo, 623765
1, 91040, Tempo, 616903
1, 91040, Note_on_c, 0, 67, 36
1, 91050, Note_on_c, 0, 64, 0
1, 91060, Tempo, 620283
1, 91080, Tempo, 623765
1, 91100, Tempo, 627090
1, 91120, Tempo, 623765
1, 91120, Note_on_c, 0, 64, 31
1, 91130, Note_on_c, 0, 67, 0
1, 91140, Tempo, 613622
1, 91180, Tempo, 616903
1, 91200, Tempo, 630782
1, 91200, Note_on_c, 0, 67, 36
1, 91210, Note_on_c, 0, 64, 0
1, 91240, Tempo, 634249
1, 91280, Note_on_c, 0, 64, 31
1, 91290, Note_on_c, 0, 67, 0
1, 91320, Tempo, 630782
1, 91340, Tempo, 620283
1, 91360, Tempo, 616903
1, 91360, Note_on_c, 0, 67, 36
1, 91370, Note_on_c, 0, 64, 0
1, 91420, Tempo, 630782
1, 91440, Note_on_c, 0, 64, 31
1, 91450, Note_on_c, 0, 67, 0
1, 91500, Tempo, 620283
1, 91520, Tempo, 616903
1, 91520, Note_on_c, 0, 67, 36
1, 91530, Note_on_c, 0, 64, 0
1, 91540, Tempo, 613622
1, 91580, Tempo, 616903
1, 91600, Tempo, 623765
1, 91600, Note_on_c, 0, 64, 30
1, 91610, Note_on_c, 0, 67, 0
1, 91620, Tempo, 627090
1, 91680, Note_on_c, 0, 67, 36
1, 91690, Note_on_c, 0, 64, 0
1, 91700, Tempo, 623765
1, 91720, Tempo, 620283
1, 91760, Tempo, 616903
1, 91760, Note_on_c, 0, 64, 30
1, 91770, Note_on_c, 0, 67, 0
1, 91780, Tempo, 613622
1, 91820, Tempo, 616903
1, 91840, Tempo, 627090
1, 91840, Note_on_c, 0, 67, 36
1, 91850, Note_on_c, 0, 64, 0
1, 91860, Tempo, 630782
1, 91900, Tempo, 623765
1, 91920, Tempo, 620283
1, 91920, Note_on_c, 0, 64, 32
1, 91930, Note_on_c, 0, 67, 0
1, 91940, Tempo, 613622
1, 91980, Tempo, 616903
1, 92000, Tempo, 623765
1, 92000, Note_on_c, 0, 67, 36
1, 92010, Note_on_c, 0, 64, 0
1, 92020, Tempo, 627090
1, 92040, Tempo, 630782
1, 92080, Note_on_c, 0, 64, 31
1, 92090, Note_on_c, 0, 67, 0
1, 92100, Tempo, 627090
1, 92160, Tempo, 681818
1, 92160, Note_on_c, 0, 64, 0
1, 92160, Note_on_c, 0, 67, 37
1, 92160, Note_on_c, 0, 58, 48
1, 92160, Note_on_c, 0, 46, 40
1, 92169, Control_c, 0, 64, 0
1, 92172, Tempo, 677966
1, 92184, Tempo, 670391
1, 92212, Tempo, 677966
1, 92224, Tempo, 681818
1, 92240, Tempo, 685714
1, 92240, Note_on_c, 0, 64, 32
1, 92252, Tempo, 681818
1, 92277, Note_on_c, 0, 67, 0
1, 92280, Tempo, 677966
1, 92292, Tempo, 681818
1, 92320, Note_on_c, 0, 67, 36
1, 92344, Tempo, 677966
1, 92357, Note_on_c, 0, 64, 0
1, 92372, Tempo, 697674
1, 92384, Tempo, 693642
1, 92400, Note_on_c, 0, 58, 0
1, 92400, Note_on_c, 0, 46, 0
1, 92400, Note_on_c, 0, 64, 32
1, 92412, Tempo, 689655
1, 92437, Note_on_c, 0, 67, 0
1, 92452, Tempo, 697674
1, 92464, Tempo, 701754
1, 92480, Note_on_c, 0, 67, 37
1, 92492, Tempo, 689655
1, 92504, Tempo, 681818
1, 92517, Note_on_c, 0, 64, 0
1, 92532, Tempo, 685714
1, 92544, Tempo, 689655
1, 92560, Note_on_c, 0, 64, 31
1, 92572, Tempo, 685714
1, 92584, Tempo, 681818
1, 92597, Note_on_c, 0, 67, 0
1, 92640, Tempo, 630782
1, 92640, Note_on_c, 0, 67, 36
1, 92640, Note_on_c, 0, 40, 35
1, 92640, Note_on_c, 0, 52, 42
1, 92650, Note_on_c, 0, 64, 0
1, 92660, Tempo, 620283
1, 92680, Tempo, 616903
1, 92700, Tempo, 613622
1, 92700, Control_c, 0, 64, 127
1, 92720, Tempo, 623765
1, 92720, Note_on_c, 0, 64, 31
1, 92730, Note_on_c, 0, 67, 0
1, 92740, Tempo, 627090
1, 92760, Tempo, 634249
1, 92780, Tempo, 627090
1, 92800, Tempo, 623765
1, 92800, Note_on_c, 0, 67, 36
1, 92810, Note_on_c, 0, 64, 0
1, 92820, Tempo, 627090
1, 92840, Tempo, 634249
1, 92860, Tempo, 637891
1, 92880, Note_on_c, 0, 64, 32
1, 92890, Note_on_c, 0, 67, 0
1, 92900, Tempo, 627090
1, 92920, Tempo, 616903
1, 92960, Note_on_c, 0, 67, 36
1, 92970, Note_on_c, 0, 64, 0
1, 93000, Tempo, 634249
1, 93020, Tempo, 630782
1, 93040, Tempo, 620283
1, 93040, Note_on_c, 0, 64, 31
1, 93050, Note_on_c, 0, 67, 0
1, 93080, Tempo, 630782
1, 93100, Tempo, 637891
1, 93120, Note_on_c, 0, 67, 36
1, 93130, Note_on_c, 0, 64, 0
1, 93160, Tempo, 620283
1, 93180, Tempo, 616903
1, 93200, Note_on_c, 0, 64, 31
1, 93210, Note_on_c, 0, 67, 0
1, 93220, Tempo, 627090
1, 93240, Tempo, 645092
1, 93280, Note_on_c, 0, 67, 36
1, 93290, Note_on_c, 0, 64, 0
1, 93300, Tempo, 641437
1, 93320, Tempo, 627090
1, 93340, Tempo, 623765
1, 93360, Note_on_c, 0, 64, 31
1, 93370, Note_on_c, 0, 67, 0
1, 93380, Tempo, 627090
1, 93400, Tempo, 634249
1, 93420, Tempo, 637891
1, 93440, Note_on_c, 0, 67, 36
1, 93450, Note_on_c, 0, 64, 0
1, 93460, Tempo, 623765
1, 93480, Tempo, 620283
1, 93500, Tempo, 616903
1, 93520, Note_on_c, 0, 64, 30
1, 93530, Note_on_c, 0, 67, 0
1, 93540, Tempo, 630782
1, 93560, Tempo, 641437
1, 93580, Tempo, 645092
1, 93600, Tempo, 641437
1, 93600, Note_on_c, 0, 52, 0
1, 93600, Note_on_c, 0, 40, 0
1, 93600, Note_on_c, 0, 67, 36
1, 93610, Note_on_c, 0, 64, 0
1, 93620, Tempo, 630782
1, 93640, Tempo, 627090
1, 93660, Tempo, 623765
1, 93680, Tempo, 620283
1, 93680, Note_on_c, 0, 64, 30
1, 93690, Note_on_c, 0, 67, 0
1, 93700, Tempo, 616903
1, 93720, Tempo, 627090
1, 93740, Tempo, 630782
1, 93760, Note_on_c, 0, 67, 36
1, 93770, Note_on_c, 0, 64, 0
1, 93840, Tempo, 623765
1, 93840, Note_on_c, 0, 64, 32
1, 93850, Note_on_c, 0, 67, 0
1, 93860, Tempo, 620283
1, 93920, Note_on_c, 0, 67, 36
1, 93930, Note_on_c, 0, 64, 0
1, 93940, Tempo, 623765
1, 93960, Tempo, 634249
1, 94000, Tempo, 630782
1, 94000, Note_on_c, 0, 64, 31
1, 94010, Note_on_c, 0, 67, 0
1, 94020, Tempo, 627090
1, 94060, Tempo, 668077
1, 94080, Tempo, 697674
1, 94080, Note_on_c, 0, 64, 0
1, 94080, Note_on_c, 0, 67, 39
1, 94080, Note_on_c, 0, 58, 47
1, 94080, Note_on_c, 0, 46, 40
1, 94089, Control_c, 0, 64, 0
1, 94100, Tempo, 693642
1, 94120, Tempo, 689655
1, 94140, Tempo, 693642
1, 94160, Tempo, 701754
1, 94160, Note_on_c, 0, 64, 33
1, 94170, Note_on_c, 0, 67, 0
1, 94200, Tempo, 697674
1, 94200, Note_on_c, 0, 58, 0
1, 94200, Note_on_c, 0, 46, 0
1, 94220, Tempo, 705882
1, 94240, Note_on_c, 0, 67, 38
1, 94250, Note_on_c, 0, 64, 0
1, 94260, Tempo, 701754
1, 94280, Tempo, 697674
1, 94300, Tempo, 701754
1, 94320, Tempo, 714286
1, 94320, Note_on_c, 0, 64, 33
1, 94320, Note_on_c, 0, 46, 38
1, 94320, Note_on_c, 0, 58, 45
1, 94330, Note_on_c, 0, 67, 0
1, 94332, Tempo, 705882
1, 94344, Tempo, 701754
1, 94360, Tempo, 697674
1, 94384, Tempo, 701754
1, 94400, Tempo, 705882
1, 94400, Note_on_c, 0, 67, 38
1, 94410, Note_on_c, 0, 64, 0
1, 94412, Tempo, 710059
1, 94440, Tempo, 705882
1, 94440, Note_on_c, 0, 58, 0
1, 94440, Note_on_c, 0, 46, 0
1, 94452, Tempo, 693642
1, 94480, Tempo, 701754
1, 94480, Note_on_c, 0, 64, 34
1, 94490, Note_on_c, 0, 67, 0
1, 94492, Tempo, 705882
1, 94504, Tempo, 701754
1, 94520, Tempo, 697674
1, 94560, Tempo, 627090
1, 94560, Note_on_c, 0, 67, 36
1, 94560, Note_on_c, 0, 52, 40
1, 94560, Note_on_c, 0, 40, 34
1, 94570, Note_on_c, 0, 64, 0
1, 94580, Tempo, 623765
1, 94620, Tempo, 616903
1, 94620, Control_c, 0, 64, 127
1, 94640, Tempo, 613622
1, 94640, Note_on_c, 0, 64, 31
1, 94650, Note_on_c, 0, 67, 0
1, 94660, Tempo, 620283
1, 94680, Tempo, 627090
1, 94700, Tempo, 630782
1, 94720, Tempo, 634249
1, 94720, Note_on_c, 0, 67, 36
1, 94730, Note_on_c, 0, 64, 0
1, 94780, Tempo, 630782
1, 94800, Tempo, 613622
1, 94800, Note_on_c, 0, 64, 32
1, 94810, Note_on_c, 0, 67, 0
1, 94820, Tempo, 610190
1, 94860, Tempo, 620283
1, 94880, Tempo, 627090
1, 94880, Note_on_c, 0, 67, 36
1, 94890, Note_on_c, 0, 64, 0
1, 94920, Tempo, 620283
1, 94940, Tempo, 613622
1, 94960, Note_on_c, 0, 64, 31
1, 94970, Note_on_c, 0, 67, 0
1, 95000, Tempo, 627090
1, 95020, Tempo, 630782
1, 95040, Tempo, 637891
1, 95040, Note_on_c, 0, 67, 36
1, 95050, Note_on_c, 0, 64, 0
1, 95060, Tempo, 616903
1, 95080, Tempo, 613622
1, 95120, Note_on_c, 0, 64, 31
1, 95130, Note_on_c, 0, 67, 0
1, 95140, Tempo, 627090
1, 95180, Tempo, 630782
1, 95200, Note_on_c, 0, 67, 36
1, 95210, Note_on_c, 0, 64, 0
1, 95220, Tempo, 616903
1, 95280, Tempo, 613622
1, 95280, Note_on_c, 0, 64, 31
1, 95290, Note_on_c, 0, 67, 0
1, 95300, Tempo, 623765
1, 95320, Tempo, 627090
1, 95360, Tempo, 630782
1, 95360, Note_on_c, 0, 67, 36
1, 95370, Note_on_c, 0, 64, 0
1, 95400, Tempo, 627090
1, 95420, Tempo, 613622
1, 95440, Tempo, 610190
1, 95440, Note_on_c, 0, 64, 30
1, 95450, Note_on_c, 0, 67, 0
1, 95460, Tempo, 623765
1, 95480, Tempo, 630782
1, 95520, Note_on_c, 0, 40, 0
1, 95520, Note_on_c, 0, 52, 0
1, 95520, Note_on_c, 0, 67, 36
1, 95530, Note_on_c, 0, 64, 0
1, 95540, Tempo, 623765
1, 95560, Tempo, 616903
1, 95600, Tempo, 620283
1, 95600, Note_on_c, 0, 64, 30
1, 95610, Note_on_c, 0, 67, 0
1, 95620, Tempo, 627090
1, 95640, Tempo, 630782
1, 95660, Tempo, 634249
1, 95680, Note_on_c, 0, 67, 36
1, 95690, Note_on_c, 0, 64, 0
1, 95700, Tempo, 623765
1, 95720, Tempo, 613622
1, 95760, Tempo, 610190
1, 95760, Note_on_c, 0, 64, 32
1, 95770, Note_on_c, 0, 67, 0
1, 95780, Tempo, 620283
1, 95800, Tempo, 623765
1, 95820, Tempo, 627090
1, 95840, Tempo, 630782
1, 95840, Note_on_c, 0, 67, 36
1, 95850, Note_on_c, 0, 64, 0
1, 95880, Tempo, 634249
1, 95920, Tempo, 623765
1, 95920, Note_on_c, 0, 64, 31
1, 95930, Note_on_c, 0, 67, 0
1, 95980, Tempo, 652600
1, 96000, Tempo, 645092
1, 96000, Note_on_c, 0, 64, 0
1, 96000, Note_on_c, 0, 67, 36
1, 96000, Note_on_c, 0, 46, 41
1, 96000, Note_on_c, 0, 58, 49
1, 96011, Control_c, 0, 64, 0
1, 96020, Tempo, 641437
1, 96040, Tempo, 660284
1, 96080, Tempo, 652600
1, 96080, Note_on_c, 0, 64, 31
1, 96090, Note_on_c, 0, 67, 0
1, 96100, Tempo, 641437
1, 96120, Tempo, 637891
1, 96120, Note_on_c, 0, 46, 0
1, 96120, Note_on_c, 0, 58, 0
1, 96140, Tempo, 645092
1, 96160, Tempo, 652600
1, 96160, Note_on_c, 0, 67, 36
1, 96170, Note_on_c, 0, 64, 0
1, 96200, Tempo, 648929
1, 96240, Tempo, 634249
1, 96240, Note_on_c, 0, 64, 31
1, 96240, Note_on_c, 0, 50, 45
1, 96240, Note_on_c, 0, 62, 45
1, 96250, Note_on_c, 0, 67, 0
1, 96260, Tempo, 634249
1, 96280, Tempo, 623765
1, 96320, Note_on_c, 0, 67, 36
1, 96330, Note_on_c, 0, 64, 0
1, 96340, Tempo, 634249
1, 96360, Tempo, 641437
1, 96360, Note_on_c, 0, 62, 0
1, 96360, Note_on_c, 0, 50, 0
1, 96400, Note_on_c, 0, 64, 31
1, 96410, Note_on_c, 0, 67, 0
1, 96420, Tempo, 637891
1, 96440, Tempo, 627090
1, 96460, Tempo, 623765
1, 96480, Tempo, 616903
1, 96480, Note_on_c, 0, 67, 36
1, 96480, Note_on_c, 0, 60, 45
1, 96480, Note_on_c, 0, 48, 38
1, 96490, Note_on_c, 0, 64, 0
1, 96500, Tempo, 613622
1, 96520, Tempo, 616903
1, 96540, Tempo, 627090
1, 96560, Tempo, 630782
1, 96560, Note_on_c, 0, 64, 31
1, 96570, Note_on_c, 0, 67, 0
1, 96600, Tempo, 627090
1, 96600, Note_on_c, 0, 48, 0
1, 96600, Note_on_c, 0, 60, 0
1, 96620, Tempo, 623765
1, 96640, Tempo, 620283
1, 96640, Note_on_c, 0, 67, 36
1, 96650, Note_on_c, 0, 64, 0
1, 96660, Tempo, 634249
1, 96680, Tempo, 637891
1, 96720, Note_on_c, 0, 64, 32
1, 96720, Note_on_c, 0, 62, 45
1, 96720, Note_on_c, 0, 50, 45
1, 96730, Note_on_c, 0, 67, 0
1, 96760, Tempo, 630782
1, 96780, Tempo, 627090
1, 96800, Tempo, 620283
1, 96800, Note_on_c, 0, 67, 36
1, 96810, Note_on_c, 0, 64, 0
1, 96820, Tempo, 630782
1, 96840, Tempo, 634249
1, 96840, Note_on_c, 0, 50, 0
1, 96840, Note_on_c, 0, 62, 0
1, 96860, Tempo, 637891
1, 96880, Tempo, 645092
1, 96880, Note_on_c, 0, 64, 31
1, 96890, Note_on_c, 0, 67, 0
1, 96920, Tempo, 637891
1, 96940, Tempo, 630782
1, 96960, Tempo, 623765
1, 96960, Note_on_c, 0, 67, 36
1, 96960, Note_on_c, 0, 46, 39
1, 96960, Note_on_c, 0, 58, 46
1, 96970, Note_on_c, 0, 64, 0
1, 96974, Control_c, 0, 64, 127
1, 96980, Tempo, 620283
1, 97000, Tempo, 623765
1, 97040, Tempo, 634249
1, 97040, Note_on_c, 0, 64, 31
1, 97050, Note_on_c, 0, 67, 0
1, 97060, Tempo, 637891
1, 97100, Tempo, 634249
1, 97120, Tempo, 627090
1, 97120, Note_on_c, 0, 67, 36
1, 97130, Note_on_c, 0, 64, 0
1, 97140, Tempo, 623765
1, 97160, Tempo, 620283
1, 97200, Note_on_c, 0, 64, 31
1, 97210, Note_on_c, 0, 67, 0
1, 97220, Tempo, 634249
1, 97240, Tempo, 637891
1, 97280, Note_on_c, 0, 67, 36
1, 97290, Note_on_c, 0, 64, 0
1, 97340, Tempo, 634249
1, 97360, Tempo, 623765
1, 97360, Note_on_c, 0, 64, 30
1, 97370, Note_on_c, 0, 67, 0
1, 97400, Tempo, 630782
1, 97420, Tempo, 634249
1, 97440, Tempo, 641437
1, 97440, Note_on_c, 0, 58, 0
1, 97440, Note_on_c, 0, 46, 0
1, 97440, Note_on_c, 0, 64, 0
1, 97440, Note_on_c, 0, 67, 38
1, 97440, Note_on_c, 0, 48, 39
1, 97440, Note_on_c, 0, 60, 46
1, 97448, Control_c, 0, 64, 0
1, 97500, Tempo, 637891
1, 97520, Tempo, 634249
1, 97520, Note_on_c, 0, 64, 35
1, 97540, Tempo, 627090
1, 97557, Note_on_c, 0, 67, 0
1, 97560, Note_on_c, 0, 48, 0
1, 97560, Note_on_c, 0, 60, 0
1, 97600, Tempo, 630782
1, 97600, Note_on_c, 0, 67, 38
1, 97637, Note_on_c, 0, 64, 0
1, 97660, Tempo, 668077
1, 97680, Tempo, 660284
1, 97680, Note_on_c, 0, 64, 32
1, 97680, Note_on_c, 0, 58, 44
1, 97680, Note_on_c, 0, 46, 36
1, 97717, Note_on_c, 0, 67, 0
1, 97720, Tempo, 664084
1, 97740, Tempo, 675980
1, 97760, Note_on_c, 0, 67, 36
1, 97780, Tempo, 672043
1, 97797, Note_on_c, 0, 64, 0
1, 97800, Tempo, 664084
1, 97800, Note_on_c, 0, 46, 0
1, 97800, Note_on_c, 0, 58, 0
1, 97820, Tempo, 660284
1, 97840, Tempo, 668077
1, 97840, Note_on_c, 0, 64, 31
1, 97877, Note_on_c, 0, 67, 0
1, 97920, Time_signature, 2, 2, 24, 8
1, 97920, Tempo, 652600
1, 97920, Note_on_c, 0, 67, 40
1, 97920, Note_on_c, 0, 50, 41
1, 97920, Note_on_c, 0, 62, 49
1, 97934, Control_c, 0, 64, 127
1, 97960, Tempo, 648929
1, 97960, Note_on_c, 0, 64, 0
1, 97980, Tempo, 641437
1, 98000, Note_on_c, 0, 64, 36
1, 98010, Note_on_c, 0, 67, 0
1, 98040, Tempo, 648929
1, 98060, Tempo, 656312
1, 98080, Tempo, 660284
1, 98080, Note_on_c, 0, 67, 39
1, 98090, Note_on_c, 0, 64, 0
1, 98120, Tempo, 648929
1, 98140, Tempo, 637891
1, 98160, Note_on_c, 0, 64, 34
1, 98170, Note_on_c, 0, 67, 0
1, 98200, Tempo, 648929
1, 98220, Tempo, 656312
1, 98240, Note_on_c, 0, 67, 39
1, 98250, Note_on_c, 0, 64, 0
1, 98280, Tempo, 652600
1, 98300, Tempo, 648929
1, 98320, Note_on_c, 0, 64, 33
1, 98330, Note_on_c, 0, 67, 0
1, 98400, Tempo, 645092
1, 98400, Note_on_c, 0, 62, 0
1, 98400, Note_on_c, 0, 50, 0
1, 98400, Note_on_c, 0, 67, 38
1, 98400, Note_on_c, 0, 60, 45
1, 98400, Note_on_c, 0, 48, 37
1, 98410, Note_on_c, 0, 64, 0
1, 98414, Control_c, 0, 64, 0
1, 98440, Tempo, 641437
1, 98460, Tempo, 637891
1, 98480, Tempo, 634249
1, 98480, Note_on_c, 0, 64, 32
1, 98500, Tempo, 637891
1, 98517, Note_on_c, 0, 67, 0
1, 98520, Tempo, 648929
1, 98520, Note_on_c, 0, 48, 0
1, 98520, Note_on_c, 0, 60, 0
1, 98560, Tempo, 637891
1, 98560, Note_on_c, 0, 67, 36
1, 98597, Note_on_c, 0, 64, 0
1, 98600, Tempo, 634249
1, 98620, Tempo, 648929
1, 98640, Note_on_c, 0, 64, 32
1, 98640, Note_on_c, 0, 58, 43
1, 98640, Note_on_c, 0, 46, 36
1, 98677, Note_on_c, 0, 67, 0
1, 98700, Tempo, 645092
1, 98720, Tempo, 637891
1, 98720, Note_on_c, 0, 67, 36
1, 98740, Tempo, 634249
1, 98757, Note_on_c, 0, 64, 0
1, 98760, Tempo, 630782
1, 98760, Note_on_c, 0, 46, 0
1, 98760, Note_on_c, 0, 58, 0
1, 98780, Tempo, 645092
1, 98800, Note_on_c, 0, 64, 31
1, 98837, Note_on_c, 0, 67, 0
1, 98860, Tempo, 668077
1, 98880, Time_signature, 4, 2, 24, 8
1, 98880, Tempo, 664084
1, 98880, Note_on_c, 0, 66, 37
1, 98880, Note_on_c, 0, 47, 37
1, 98880, Note_on_c, 0, 59, 45
1, 98904, Note_on_c, 0, 64, 0
1, 98920, Tempo, 656312
1, 98940, Tempo, 652600
1, 98960, Note_on_c, 0, 63, 32
1, 98980, Tempo, 664084
1, 98997, Note_on_c, 0, 66, 0
1, 99000, Tempo, 668077
1, 99040, Note_on_c, 0, 66, 36
1, 99060, Tempo, 664084
1, 99077, Note_on_c, 0, 63, 0
1, 99080, Tempo, 652600
1, 99100, Tempo, 656312
1, 99120, Tempo, 664084
1, 99120, Note_on_c, 0, 59, 0
1, 99120, Note_on_c, 0, 47, 0
1, 99120, Note_on_c, 0, 63, 32
1, 99140, Tempo, 668077
1, 99157, Note_on_c, 0, 66, 0
1, 99160, Tempo, 664084
1, 99180, Tempo, 656312
1, 99200, Tempo, 652600
1, 99200, Note_on_c, 0, 66, 37
1, 99237, Note_on_c, 0, 63, 0
1, 99240, Tempo, 660284
1, 99280, Note_on_c, 0, 63, 31
1, 99317, Note_on_c, 0, 66, 0
1, 99340, Tempo, 630782
1, 99360, Tempo, 627090
1, 99360, Note_on_c, 0, 66, 34
1, 99360, Note_on_c, 0, 40, 35
1, 99360, Note_on_c, 0, 52, 42
1, 99370, Note_on_c, 0, 63, 0
1, 99383, Control_c, 0, 64, 127
1, 99400, Tempo, 623765
1, 99420, Tempo, 620283
1, 99440, Note_on_c, 0, 63, 29
1, 99450, Note_on_c, 0, 66, 0
1, 99480, Tempo, 627090
1, 99500, Tempo, 630782
1, 99520, Tempo, 634249
1, 99520, Note_on_c, 0, 66, 34
1, 99530, Note_on_c, 0, 63, 0
1, 99540, Tempo, 630782
1, 99560, Tempo, 627090
1, 99580, Tempo, 623765
1, 99600, Tempo, 620283
1, 99600, Note_on_c, 0, 63, 30
1, 99610, Note_on_c, 0, 66, 0
1, 99620, Tempo, 623765
1, 99640, Tempo, 630782
1, 99660, Tempo, 634249
1, 99680, Tempo, 637891
1, 99680, Note_on_c, 0, 66, 33
1, 99690, Note_on_c, 0, 63, 0
1, 99740, Tempo, 627090
1, 99760, Tempo, 616903
1, 99760, Note_on_c, 0, 63, 28
1, 99770, Note_on_c, 0, 66, 0
1, 99780, Tempo, 620283
1, 99800, Tempo, 627090
1, 99820, Tempo, 630782
1, 99840, Note_on_c, 0, 66, 33
1, 99850, Note_on_c, 0, 63, 0
1, 99860, Tempo, 634249
1, 99920, Note_on_c, 0, 63, 28
1, 99930, Note_on_c, 0, 66, 0
1, 99940, Tempo, 623765
1, 99980, Tempo, 627090
1, 100000, Tempo, 630782
1, 100000, Note_on_c, 0, 66, 33
1, 100010, Note_on_c, 0, 63, 0
1, 100020, Tempo, 637891
1, 100080, Note_on_c, 0, 63, 28
1, 100090, Note_on_c, 0, 66, 0
1, 100100, Tempo, 627090
1, 100120, Tempo, 623765
1, 100140, Tempo, 620283
1, 100160, Note_on_c, 0, 66, 33
1, 100170, Note_on_c, 0, 63, 0
1, 100180, Tempo, 630782
1, 100200, Tempo, 634249
1, 100240, Note_on_c, 0, 63, 27
1, 100250, Note_on_c, 0, 66, 0
1, 100260, Tempo, 627090
1, 100280, Tempo, 623765
1, 100320, Tempo, 620283
1, 100320, Note_on_c, 0, 52, 0
1, 100320, Note_on_c, 0, 40, 0
1, 100320, Note_on_c, 0, 66, 32
1, 100330, Note_on_c, 0, 63, 0
1, 100340, Tempo, 616903
1, 100360, Tempo, 630782
1, 100400, Tempo, 634249
1, 100400, Note_on_c, 0, 63, 27
1, 100410, Note_on_c, 0, 66, 0
1, 100480, Tempo, 623765
1, 100480, Note_on_c, 0, 66, 32
1, 100490, Note_on_c, 0, 63, 0
1, 100500, Tempo, 620283
1, 100520, Tempo, 616903
1, 100540, Tempo, 613622
1, 100560, Note_on_c, 0, 63, 28
1, 100570, Note_on_c, 0, 66, 0
1, 100580, Tempo, 630782
1, 100600, Tempo, 634249
1, 100640, Tempo, 637891
1, 100640, Note_on_c, 0, 66, 32
1, 100650, Note_on_c, 0, 63, 0
1, 100680, Tempo, 634249
1, 100720, Tempo, 630782
1, 100720, Note_on_c, 0, 63, 27
1, 100730, Note_on_c, 0, 66, 0
1, 100800, Tempo, 664084
1, 100800, Note_on_c, 0, 63, 0
1, 100800, Note_on_c, 0, 66, 39
1, 100800, Note_on_c, 0, 59, 45
1, 100800, Note_on_c, 0, 47, 37
1, 100809, Control_c, 0, 64, 0
1, 100820, Tempo, 660284
1, 100860, Tempo, 664084
1, 100880, Tempo, 675980
1, 100880, Note_on_c, 0, 63, 33
1, 100900, Tempo, 680118
1, 100917, Note_on_c, 0, 66, 0
1, 100920, Note_on_c, 0, 59, 0
1, 100920, Note_on_c, 0, 47, 0
1, 100960, Tempo, 672043
1, 100960, Note_on_c, 0, 66, 38
1, 100980, Tempo, 664084
1, 100997, Note_on_c, 0, 63, 0
1, 101000, Tempo, 660284
1, 101040, Tempo, 656312
1, 101040, Note_on_c, 0, 63, 33
1, 101040, Note_on_c, 0, 47, 36
1, 101040, Note_on_c, 0, 59, 43
1, 101060, Tempo, 664084
1, 101077, Note_on_c, 0, 66, 0
1, 101080, Tempo, 675980
1, 101120, Tempo, 668077
1, 101120, Note_on_c, 0, 66, 38
1, 101140, Tempo, 660284
1, 101157, Note_on_c, 0, 63, 0
1, 101160, Note_on_c, 0, 59, 0
1, 101160, Note_on_c, 0, 47, 0
1, 101200, Tempo, 668077
1, 101200, Note_on_c, 0, 63, 34
1, 101237, Note_on_c, 0, 66, 0
1, 101280, Tempo, 623765
1, 101280, Note_on_c, 0, 66, 34
1, 101280, Note_on_c, 0, 52, 40
1, 101280, Note_on_c, 0, 40, 34
1, 101290, Note_on_c, 0, 63, 0
1, 101300, Tempo, 616903
1, 101303, Control_c, 0, 64, 127
1, 101320, Tempo, 613622
1, 101340, Tempo, 620283
1, 101360, Tempo, 623765
1, 101360, Note_on_c, 0, 63, 29
1, 101370, Note_on_c, 0, 66, 0
1, 101380, Tempo, 627090
1, 101400, Tempo, 634249
1, 101440, Note_on_c, 0, 66, 34
1, 101450, Note_on_c, 0, 63, 0
1, 101460, Tempo, 630782
1, 101480, Tempo, 627090
1, 101500, Tempo, 623765
1, 101520, Tempo, 616903
1, 101520, Note_on_c, 0, 63, 30
1, 101530, Note_on_c, 0, 66, 0
1, 101540, Tempo, 613622
1, 101580, Tempo, 623765
1, 101600, Tempo, 627090
1, 101600, Note_on_c, 0, 66, 33
1, 101610, Note_on_c, 0, 63, 0
1, 101620, Tempo, 637891
1, 101660, Tempo, 634249
1, 101680, Tempo, 623765
1, 101680, Note_on_c, 0, 63, 28
1, 101690, Note_on_c, 0, 66, 0
1, 101700, Tempo, 620283
1, 101720, Tempo, 616903
1, 101760, Tempo, 630782
1, 101760, Note_on_c, 0, 66, 33
1, 101770, Note_on_c, 0, 63, 0
1, 101780, Tempo, 634249
1, 101820, Tempo, 627090
1, 101840, Tempo, 620283
1, 101840, Note_on_c, 0, 63, 28
1, 101850, Note_on_c, 0, 66, 0
1, 101860, Tempo, 616903
1, 101880, Tempo, 613622
1, 101900, Tempo, 610190
1, 101920, Note_on_c, 0, 66, 33
1, 101930, Note_on_c, 0, 63, 0
1, 101940, Tempo, 616903
1, 101980, Tempo, 623765
1, 102000, Tempo, 634249
1, 102000, Note_on_c, 0, 63, 28
1, 102010, Note_on_c, 0, 66, 0
1, 102060, Tempo, 623765
1, 102080, Tempo, 613622
1, 102080, Note_on_c, 0, 66, 33
1, 102090, Note_on_c, 0, 63, 0
1, 102120, Tempo, 620283
1, 102140, Tempo, 630782
1, 102160, Note_on_c, 0, 63, 27
1, 102170, Note_on_c, 0, 66, 0
1, 102220, Tempo, 623765
1, 102240, Tempo, 616903
1, 102240, Note_on_c, 0, 40, 0
1, 102240, Note_on_c, 0, 52, 0
1, 102240, Note_on_c, 0, 66, 32
1, 102250, Note_on_c, 0, 63, 0
1, 102260, Tempo, 613622
1, 102320, Tempo, 620283
1, 102320, Note_on_c, 0, 63, 27
1, 102330, Note_on_c, 0, 66, 0
1, 102340, Tempo, 623765
1, 102360, Tempo, 627090
1, 102400, Tempo, 630782
1, 102400, Note_on_c, 0, 66, 32
1, 102410, Note_on_c, 0, 63, 0
1, 102440, Tempo, 627090
1, 102460, Tempo, 623765
1, 102480, Tempo, 616903
1, 102480, Note_on_c, 0, 63, 28
1, 102490, Note_on_c, 0, 66, 0
1, 102500, Tempo, 620283
1, 102520, Tempo, 627090
1, 102540, Tempo, 630782
1, 102560, Note_on_c, 0, 66, 32
1, 102570, Note_on_c, 0, 63, 0
1, 102600, Tempo, 627090
1, 102620, Tempo, 623765
1, 102640, Note_on_c, 0, 63, 27
1, 102650, Note_on_c, 0, 66, 0
1, 102720, Tempo, 648929
1, 102720, Note_on_c, 0, 63, 0
1, 102720, Note_on_c, 0, 65, 36
1, 102720, Note_on_c, 0, 44, 37
1, 102720, Note_on_c, 0, 56, 45
1, 102730, Control_c, 0, 64, 0
1, 102740, Tempo, 641437
1, 102760, Tempo, 656312
1, 102800, Note_on_c, 0, 62, 31
1, 102820, Tempo, 652600
1, 102837, Note_on_c, 0, 65, 0
1, 102840, Tempo, 645092
1, 102840, Note_on_c, 0, 44, 0
1, 102840, Note_on_c, 0, 56, 0
1, 102860, Tempo, 652600
1, 102880, Note_on_c, 0, 65, 36
1, 102900, Tempo, 648929
1, 102917, Note_on_c, 0, 62, 0
1, 102940, Tempo, 630782
1, 102960, Note_on_c, 0, 62, 31
1, 102960, Note_on_c, 0, 48, 35
1, 102960, Note_on_c, 0, 60, 42
1, 102980, Tempo, 627090
1, 102997, Note_on_c, 0, 65, 0
1, 103000, Tempo, 623765
1, 103020, Tempo, 616903
1, 103040, Tempo, 623765
1, 103040, Note_on_c, 0, 65, 36
1, 103060, Tempo, 634249
1, 103077, Note_on_c, 0, 62, 0
1, 103080, Tempo, 637891
1, 103080, Note_on_c, 0, 60, 0
1, 103080, Note_on_c, 0, 48, 0
1, 103100, Tempo, 627090
1, 103120, Tempo, 623765
1, 103120, Note_on_c, 0, 62, 31
1, 103157, Note_on_c, 0, 65, 0
1, 103160, Tempo, 616903
1, 103180, Tempo, 623765
1, 103200, Tempo, 634249
1, 103200, Note_on_c, 0, 65, 36
1, 103200, Note_on_c, 0, 59, 45
1, 103200, Note_on_c, 0, 47, 38
1, 103220, Tempo, 637891
1, 103237, Note_on_c, 0, 62, 0
1, 103240, Tempo, 634249
1, 103260, Tempo, 623765
1, 103280, Tempo, 620283
1, 103280, Note_on_c, 0, 62, 31
1, 103300, Tempo, 616903
1, 103317, Note_on_c, 0, 65, 0
1, 103320, Tempo, 620283
1, 103320, Note_on_c, 0, 47, 0
1, 103320, Note_on_c, 0, 59, 0
1, 103340, Tempo, 634249
1, 103360, Tempo, 641437
1, 103360, Note_on_c, 0, 65, 36
1, 103397, Note_on_c, 0, 62, 0
1, 103400, Tempo, 623765
1, 103440, Tempo, 616903
1, 103440, Note_on_c, 0, 62, 32
1, 103440, Note_on_c, 0, 48, 37
1, 103440, Note_on_c, 0, 60, 45
1, 103460, Tempo, 613622
1, 103477, Note_on_c, 0, 65, 0
1, 103500, Tempo, 627090
1, 103520, Tempo, 630782
1, 103520, Note_on_c, 0, 65, 36
1, 103540, Tempo, 634249
1, 103557, Note_on_c, 0, 62, 0
1, 103560, Note_on_c, 0, 60, 0
1, 103560, Note_on_c, 0, 48, 0
1, 103600, Note_on_c, 0, 62, 31
1, 103620, Tempo, 627090
1, 103637, Note_on_c, 0, 65, 0
1, 103640, Tempo, 613622
1, 103660, Tempo, 616903
1, 103680, Tempo, 623765
1, 103680, Note_on_c, 0, 65, 36
1, 103680, Note_on_c, 0, 56, 46
1, 103680, Note_on_c, 0, 44, 39
1, 103690, Note_on_c, 0, 62, 0
1, 103700, Tempo, 634249
1, 103712, Control_c, 0, 64, 127
1, 103760, Note_on_c, 0, 62, 31
1, 103770, Note_on_c, 0, 65, 0
1, 103780, Tempo, 627090
1, 103800, Tempo, 623765
1, 103820, Tempo, 630782
1, 103840, Tempo, 634249
1, 103840, Note_on_c, 0, 65, 36
1, 103850, Note_on_c, 0, 62, 0
1, 103860, Tempo, 637891
1, 103880, Tempo, 630782
1, 103900, Tempo, 627090
1, 103920, Tempo, 620283
1, 103920, Note_on_c, 0, 62, 31
1, 103930, Note_on_c, 0, 65, 0
1, 103940, Tempo, 616903
1, 103960, Tempo, 613622
1, 103980, Tempo, 620283
1, 104000, Tempo, 623765
1, 104000, Note_on_c, 0, 65, 36
1, 104010, Note_on_c, 0, 62, 0
1, 104020, Tempo, 634249
1, 104060, Tempo, 630782
1, 104080, Note_on_c, 0, 62, 30
1, 104090, Note_on_c, 0, 65, 0
1, 104160, Tempo, 603743
1, 104160, Note_on_c, 0, 44, 0
1, 104160, Note_on_c, 0, 56, 0
1, 104160, Note_on_c, 0, 62, 0
1, 104160, Note_on_c, 0, 65, 38
1, 104160, Note_on_c, 0, 57, 46
1, 104160, Note_on_c, 0, 45, 39
1, 104169, Control_c, 0, 64, 0
1, 104180, Tempo, 600480
1, 104200, Tempo, 597372
1, 104220, Tempo, 606919
1, 104240, Tempo, 610190
1, 104240, Note_on_c, 0, 62, 35
1, 104260, Tempo, 616903
1, 104277, Note_on_c, 0, 65, 0
1, 104280, Note_on_c, 0, 57, 0
1, 104280, Note_on_c, 0, 45, 0
1, 104300, Tempo, 613622
1, 104320, Tempo, 610190
1, 104320, Note_on_c, 0, 65, 38
1, 104357, Note_on_c, 0, 62, 0
1, 104400, Tempo, 656312
1, 104400, Note_on_c, 0, 62, 32
1, 104400, Note_on_c, 0, 44, 36
1, 104400, Note_on_c, 0, 56, 43
1, 104420, Tempo, 652600
1, 104437, Note_on_c, 0, 65, 0
1, 104460, Tempo, 664084
1, 104480, Note_on_c, 0, 65, 36
1, 104500, Tempo, 668077
1, 104517, Note_on_c, 0, 62, 0
1, 104520, Tempo, 664084
1, 104520, Note_on_c, 0, 56, 0
1, 104520, Note_on_c, 0, 44, 0
1, 104540, Tempo, 660284
1, 104560, Note_on_c, 0, 62, 31
1, 104597, Note_on_c, 0, 65, 0
1, 104640, Time_signature, 2, 2, 24, 8
1, 104640, Tempo, 648929
1, 104640, Note_on_c, 0, 65, 40
1, 104640, Note_on_c, 0, 60, 47
1, 104640, Note_on_c, 0, 48, 40
1, 104650, Note_on_c, 0, 62, 0
1, 104660, Tempo, 645092
1, 104680, Tempo, 641437
1, 104686, Control_c, 0, 64, 127
1, 104700, Tempo, 637891
1, 104720, Tempo, 645092
1, 104720, Note_on_c, 0, 62, 36
1, 104730, Note_on_c, 0, 65, 0
1, 104740, Tempo, 648929
1, 104760, Tempo, 652600
1, 104800, Tempo, 645092
1, 104800, Note_on_c, 0, 65, 39
1, 104810, Note_on_c, 0, 62, 0
1, 104820, Tempo, 641437
1, 104860, Tempo, 652600
1, 104880, Tempo, 660284
1, 104880, Note_on_c, 0, 62, 34
1, 104890, Note_on_c, 0, 65, 0
1, 104920, Tempo, 664084
1, 104940, Tempo, 648929
1, 104960, Tempo, 645092
1, 104960, Note_on_c, 0, 65, 39
1, 104970, Note_on_c, 0, 62, 0
1, 104980, Tempo, 641437
1, 105000, Tempo, 645092
1, 105020, Tempo, 648929
1, 105040, Note_on_c, 0, 62, 33
1, 105050, Note_on_c, 0, 65, 0
1, 105120, Tempo, 645092
1, 105120, Note_on_c, 0, 48, 0
1, 105120, Note_on_c, 0, 60, 0
1, 105120, Note_on_c, 0, 62, 0
1, 105120, Note_on_c, 0, 65, 38
1, 105120, Note_on_c, 0, 47, 37
1, 105120, Note_on_c, 0, 59, 45
1, 105136, Control_c, 0, 64, 0
1, 105160, Tempo, 641437
1, 105180, Tempo, 637891
1, 105200, Note_on_c, 0, 62, 32
1, 105237, Note_on_c, 0, 65, 0
1, 105240, Tempo, 648929
1, 105240, Note_on_c, 0, 47, 0
1, 105240, Note_on_c, 0, 59, 0
1, 105260, Tempo, 645092
1, 105280, Tempo, 637891
1, 105280, Note_on_c, 0, 65, 36
1, 105300, Tempo, 634249
1, 105317, Note_on_c, 0, 62, 0
1, 105320, Tempo, 630782
1, 105340, Tempo, 634249
1, 105360, Tempo, 645092
1, 105360, Note_on_c, 0, 62, 32
1, 105360, Note_on_c, 0, 56, 43
1, 105360, Note_on_c, 0, 44, 36
1, 105397, Note_on_c, 0, 65, 0
1, 105400, Tempo, 652600
1, 105420, Tempo, 656312
1, 105440, Tempo, 645092
1, 105440, Note_on_c, 0, 65, 36
1, 105460, Tempo, 641437
1, 105477, Note_on_c, 0, 62, 0
1, 105480, Tempo, 637891
1, 105480, Note_on_c, 0, 44, 0
1, 105480, Note_on_c, 0, 56, 0
1, 105500, Tempo, 634249
1, 105520, Note_on_c, 0, 62, 31
1, 105557, Note_on_c, 0, 65, 0
1, 105580, Tempo, 660284
1, 105600, Time_signature, 4, 2, 24, 8
1, 105600, Note_on_c, 0, 64, 37
1, 105600, Note_on_c, 0, 45, 37
1, 105600, Note_on_c, 0, 57, 45
1, 105610, Note_on_c, 0, 62, 0
1, 105620, Tempo, 656312
1, 105640, Control_c, 0, 64, 127
1, 105680, Tempo, 652600
1, 105680, Note_on_c, 0, 61, 32
1, 105690, Note_on_c, 0, 64, 0
1, 105720, Tempo, 664084
1, 105740, Tempo, 668077
1, 105760, Note_on_c, 0, 64, 36
1, 105770, Note_on_c, 0, 61, 0
1, 105780, Tempo, 656312
1, 105800, Tempo, 648929
1, 105840, Note_on_c, 0, 57, 0
1, 105840, Note_on_c, 0, 45, 0
1, 105840, Note_on_c, 0, 61, 32
1, 105850, Note_on_c, 0, 64, 0
1, 105860, Tempo, 664084
1, 105880, Tempo, 656312
1, 105900, Tempo, 648929
1, 105920, Tempo, 660284
1, 105920, Note_on_c, 0, 64, 37
1, 105930, Note_on_c, 0, 61, 0
1, 105940, Tempo, 668077
1, 105980, Tempo, 664084
1, 106000, Note_on_c, 0, 61, 31
1, 106010, Note_on_c, 0, 64, 0
1, 106080, Tempo, 627090
1, 106080, Note_on_c, 0, 61, 0
1, 106080, Note_on_c, 0, 63, 36
1, 106080, Note_on_c, 0, 52, 42
1, 106080, Note_on_c, 0, 40, 35
1, 106091, Control_c, 0, 64, 0
1, 106100, Tempo, 620283
1, 106120, Tempo, 616903
1, 106126, Control_c, 0, 64, 127
1, 106140, Tempo, 623765
1, 106160, Tempo, 627090
1, 106160, Note_on_c, 0, 59, 31
1, 106170, Note_on_c, 0, 63, 0
1, 106180, Tempo, 634249
1, 106240, Tempo, 630782
1, 106240, Note_on_c, 0, 63, 36
1, 106250, Note_on_c, 0, 59, 0
1, 106260, Tempo, 620283
1, 106300, Tempo, 627090
1, 106320, Note_on_c, 0, 52, 0
1, 106320, Note_on_c, 0, 40, 0
1, 106320, Note_on_c, 0, 59, 32
1, 106330, Note_on_c, 0, 63, 0
1, 106340, Tempo, 637891
1, 106380, Tempo, 634249
1, 106400, Tempo, 627090
1, 106400, Note_on_c, 0, 63, 36
1, 106410, Note_on_c, 0, 59, 0
1, 106440, Tempo, 623765
1, 106460, Tempo, 630782
1, 106480, Note_on_c, 0, 59, 31
1, 106490, Note_on_c, 0, 63, 0
1, 106560, Tempo, 645092
1, 106560, Note_on_c, 0, 59, 0
1, 106560, Note_on_c, 0, 81, 54
1, 106560, Note_on_c, 0, 69, 49
1, 106560, Note_on_c, 0, 62, 40
1, 106576, Control_c, 0, 64, 0
1, 106580, Tempo, 645092
1, 106620, Tempo, 634249
1, 106629, Control_c, 0, 64, 127
1, 106640, Tempo, 641437
1, 106640, Note_on_c, 0, 58, 32
1, 106650, Note_on_c, 0, 62, 0
1, 106660, Tempo, 652600
1, 106720, Tempo, 641437
1, 106720, Note_on_c, 0, 62, 38
1, 106730, Note_on_c, 0, 58, 0
1, 106740, Tempo, 637891
1, 106760, Tempo, 634249
1, 106800, Tempo, 648929
1, 106800, Note_on_c, 0, 58, 31
1, 106810, Note_on_c, 0, 62, 0
1, 106840, Tempo, 645092
1, 106860, Tempo, 641437
1, 106880, Tempo, 634249
1, 106880, Note_on_c, 0, 62, 37
1, 106890, Note_on_c, 0, 58, 0
1, 106920, Tempo, 641437
1, 106960, Note_on_c, 0, 58, 32
1, 106970, Note_on_c, 0, 62, 0
1, 107040, Tempo, 627090
1, 107040, Note_on_c, 0, 81, 0
1, 107040, Note_on_c, 0, 69, 0
1, 107040, Note_on_c, 0, 58, 0
1, 107040, Note_on_c, 0, 76, 53
1, 107040, Note_on_c, 0, 88, 57
1, 107040, Note_on_c, 0, 60, 36
1, 107050, Control_c, 0, 64, 0
1, 107060, Tempo, 627090
1, 107080, Tempo, 623765
1, 107089, Control_c, 0, 64, 127
1, 107100, Tempo, 616903
1, 107120, Tempo, 613622
1, 107120, Note_on_c, 0, 57, 30
1, 107130, Note_on_c, 0, 60, 0
1, 107140, Tempo, 616903
1, 107160, Tempo, 627090
1, 107180, Tempo, 630782
1, 107200, Tempo, 627090
1, 107200, Note_on_c, 0, 60, 36
1, 107210, Note_on_c, 0, 57, 0
1, 107240, Tempo, 620283
1, 107260, Tempo, 613622
1, 107280, Tempo, 620283
1, 107280, Note_on_c, 0, 76, 0
1, 107280, Note_on_c, 0, 88, 0
1, 107280, Note_on_c, 0, 57, 31
1, 107290, Note_on_c, 0, 60, 0
1, 107300, Tempo, 627090
1, 107320, Tempo, 630782
1, 107340, Tempo, 620283
1, 107360, Note_on_c, 0, 60, 36
1, 107370, Note_on_c, 0, 57, 0
1, 107380, Tempo, 623765
1, 107420, Tempo, 627090
1, 107440, Note_on_c, 0, 57, 31
1, 107450, Note_on_c, 0, 60, 0
1, 107520, Tempo, 652600
1, 107520, Note_on_c, 0, 59, 37
1, 107520, Note_on_c, 0, 45, 49
1, 107528, Control_c, 0, 64, 0
1, 107530, Note_on_c, 0, 57, 0
1, 107540, Tempo, 656312
1, 107555, Control_c, 0, 64, 127
1, 107560, Tempo, 675980
1, 107600, Tempo, 672043
1, 107600, Note_on_c, 0, 56, 32
1, 107610, Note_on_c, 0, 59, 0
1, 107620, Tempo, 660284
1, 107640, Tempo, 656312
1, 107660, Tempo, 652600
1, 107680, Tempo, 648929
1, 107680, Note_on_c, 0, 59, 36
1, 107690, Note_on_c, 0, 56, 0
1, 107720, Tempo, 668077
1, 107740, Tempo, 672043
1, 107760, Tempo, 675980
1, 107760, Note_on_c, 0, 45, 0
1, 107760, Note_on_c, 0, 56, 32
1, 107770, Note_on_c, 0, 59, 0
1, 107780, Tempo, 672043
1, 107800, Tempo, 660284
1, 107820, Tempo, 652600
1, 107840, Tempo, 645092
1, 107840, Note_on_c, 0, 59, 37
1, 107850, Note_on_c, 0, 56, 0
1, 107860, Tempo, 641437
1, 107880, Tempo, 664084
1, 107920, Tempo, 660284
1, 107920, Note_on_c, 0, 56, 31
1, 107930, Note_on_c, 0, 59, 0
1, 108000, Tempo, 623765
1, 108000, Note_on_c, 0, 56, 0
1, 108000, Note_on_c, 0, 58, 36
1, 108000, Note_on_c, 0, 40, 45
1, 108013, Control_c, 0, 64, 0
1, 108020, Tempo, 616903
1, 108060, Tempo, 623765
1, 108063, Control_c, 0, 64, 127
1, 108080, Tempo, 627090
1, 108080, Note_on_c, 0, 55, 31
1, 108090, Note_on_c, 0, 58, 0
1, 108160, Note_on_c, 0, 58, 36
1, 108170, Note_on_c, 0, 55, 0
1, 108180, Tempo, 616903
1, 108200, Tempo, 613622
1, 108240, Tempo, 634249
1, 108240, Note_on_c, 0, 40, 0
1, 108240, Note_on_c, 0, 55, 32
1, 108250, Note_on_c, 0, 58, 0
1, 108260, Tempo, 641437
1, 108280, Tempo, 637891
1, 108300, Tempo, 630782
1, 108320, Tempo, 623765
1, 108320, Note_on_c, 0, 58, 36
1, 108330, Note_on_c, 0, 55, 0
1, 108340, Tempo, 630782
1, 108400, Note_on_c, 0, 55, 31
1, 108410, Note_on_c, 0, 58, 0
1, 108480, Tempo, 652600
1, 108480, Note_on_c, 0, 55, 0
1, 108480, Note_on_c, 0, 69, 49
1, 108480, Note_on_c, 0, 81, 54
1, 108480, Note_on_c, 0, 57, 40
1, 108486, Control_c, 0, 64, 0
1, 108500, Tempo, 648929
1, 108520, Tempo, 645092
1, 108523, Control_c, 0, 64, 127
1, 108540, Tempo, 641437
1, 108560, Tempo, 652600
1, 108560, Note_on_c, 0, 53, 32
1, 108570, Note_on_c, 0, 57, 0
1, 108600, Tempo, 641437
1, 108620, Tempo, 634249
1, 108640, Note_on_c, 0, 57, 38
1, 108650, Note_on_c, 0, 53, 0
1, 108660, Tempo, 645092
1, 108680, Tempo, 652600
1, 108700, Tempo, 656312
1, 108720, Tempo, 668077
1, 108720, Note_on_c, 0, 53, 31
1, 108730, Note_on_c, 0, 57, 0
1, 108740, Tempo, 645092
1, 108760, Tempo, 641437
1, 108800, Tempo, 652600
1, 108800, Note_on_c, 0, 57, 37
1, 108810, Note_on_c, 0, 53, 0
1, 108880, Note_on_c, 0, 53, 32
1, 108890, Note_on_c, 0, 57, 0
1, 108960, Tempo, 627090
1, 108960, Note_on_c, 0, 69, 0
1, 108960, Note_on_c, 0, 81, 0
1, 108960, Note_on_c, 0, 53, 0
1, 108960, Note_on_c, 0, 88, 57
1, 108960, Note_on_c, 0, 76, 53
1, 108960, Note_on_c, 0, 56, 36
1, 108970, Control_c, 0, 64, 0
1, 108980, Tempo, 620283
1, 109000, Tempo, 613622
1, 109009, Control_c, 0, 64, 127
1, 109040, Note_on_c, 0, 52, 30
1, 109050, Note_on_c, 0, 56, 0
1, 109060, Tempo, 623765
1, 109080, Tempo, 627090
1, 109100, Tempo, 620283
1, 109120, Tempo, 616903
1, 109120, Note_on_c, 0, 56, 36
1, 109130, Note_on_c, 0, 52, 0
1, 109140, Tempo, 620283
1, 109160, Tempo, 630782
1, 109180, Tempo, 637891
1, 109200, Tempo, 634249
1, 109200, Note_on_c, 0, 88, 0
1, 109200, Note_on_c, 0, 76, 0
1, 109200, Note_on_c, 0, 52, 31
1, 109210, Note_on_c, 0, 56, 0
1, 109220, Tempo, 623765
1, 109240, Tempo, 613622
1, 109260, Tempo, 616903
1, 109280, Tempo, 630782
1, 109280, Note_on_c, 0, 56, 36
1, 109290, Note_on_c, 0, 52, 0
1, 109320, Tempo, 627090
1, 109340, Tempo, 620283
1, 109360, Note_on_c, 0, 52, 31
1, 109370, Note_on_c, 0, 56, 0
1, 109380, Tempo, 623765
1, 109420, Tempo, 656312
1, 109440, Tempo, 652600
1, 109440, Note_on_c, 0, 55, 37
1, 109440, Note_on_c, 0, 45, 49
1, 109440, Control_c, 0, 64, 0
1, 109450, Note_on_c, 0, 52, 0
1, 109480, Tempo, 660284
1, 109486, Control_c, 0, 64, 127
1, 109500, Tempo, 668077
1, 109520, Note_on_c, 0, 51, 32
1, 109530, Note_on_c, 0, 55, 0
1, 109540, Tempo, 672043
1, 109560, Tempo, 660284
1, 109580, Tempo, 652600
1, 109600, Note_on_c, 0, 55, 36
1, 109610, Note_on_c, 0, 51, 0
1, 109620, Tempo, 668077
1, 109640, Tempo, 660284
1, 109660, Tempo, 656312
1, 109680, Note_on_c, 0, 45, 0
1, 109680, Note_on_c, 0, 51, 32
1, 109690, Note_on_c, 0, 55, 0
1, 109700, Tempo, 648929
1, 109720, Tempo, 656312
1, 109740, Tempo, 664084
1, 109760, Note_on_c, 0, 55, 37
1, 109770, Note_on_c, 0, 51, 0
1, 109780, Tempo, 660284
1, 109800, Tempo, 656312
1, 109840, Note_on_c, 0, 51, 31
1, 109850, Note_on_c, 0, 55, 0
1, 109900, Tempo, 630782
1, 109920, Tempo, 620283
1, 109920, Note_on_c, 0, 51, 0
1, 109920, Note_on_c, 0, 54, 36
1, 109920, Note_on_c, 0, 40, 42
1, 109933, Control_c, 0, 64, 0
1, 109940, Tempo, 616903
1, 109980, Tempo, 630782
1, 109980, Control_c, 0, 64, 127
1, 110000, Tempo, 637891
1, 110000, Note_on_c, 0, 50, 31
1, 110010, Note_on_c, 0, 54, 0
1, 110020, Tempo, 641437
1, 110080, Tempo, 630782
1, 110080, Note_on_c, 0, 54, 36
1, 110090, Note_on_c, 0, 50, 0
1, 110100, Tempo, 627090
1, 110120, Tempo, 623765
1, 110140, Tempo, 620283
1, 110160, Tempo, 637891
1, 110160, Note_on_c, 0, 40, 0
1, 110160, Note_on_c, 0, 50, 32
1, 110170, Note_on_c, 0, 54, 0
1, 110180, Tempo, 641437
1, 110240, Tempo, 627090
1, 110240, Note_on_c, 0, 54, 36
1, 110250, Note_on_c, 0, 50, 0
1, 110260, Tempo, 620283
1, 110280, Tempo, 623765
1, 110320, Note_on_c, 0, 50, 31
1, 110330, Note_on_c, 0, 54, 0
1, 110380, Tempo, 664084
1, 110386, Control_c, 0, 64, 0
1, 110400, Note_on_c, 0, 50, 0
1, 110400, Note_on_c, 0, 69, 49
1, 110400, Note_on_c, 0, 81, 54
1, 110400, Note_on_c, 0, 53, 33
1, 110420, Tempo, 660284
1, 110443, Control_c, 0, 64, 127
1, 110480, Tempo, 672043
1, 110480, Note_on_c, 0, 49, 26
1, 110490, Note_on_c, 0, 53, 0
1, 110500, Tempo, 675980
1, 110520, Tempo, 672043
1, 110560, Tempo, 656312
1, 110560, Note_on_c, 0, 53, 32
1, 110570, Note_on_c, 0, 49, 0
1, 110580, Tempo, 652600
1, 110600, Tempo, 660284
1, 110620, Tempo, 664084
1, 110640, Tempo, 672043
1, 110640, Note_on_c, 0, 49, 27
1, 110650, Note_on_c, 0, 53, 0
1, 110660, Tempo, 668077
1, 110680, Tempo, 660284
1, 110720, Tempo, 648929
1, 110720, Note_on_c, 0, 53, 32
1, 110730, Note_on_c, 0, 49, 0
1, 110740, Tempo, 664084
1, 110760, Tempo, 668077
1, 110800, Note_on_c, 0, 49, 26
1, 110810, Note_on_c, 0, 53, 0
1, 110880, Tempo, 627090
1, 110880, Note_on_c, 0, 69, 0
1, 110880, Note_on_c, 0, 81, 0
1, 110880, Note_on_c, 0, 49, 0
1, 110880, Note_on_c, 0, 88, 57
1, 110880, Note_on_c, 0, 76, 53
1, 110880, Note_on_c, 0, 52, 32
1, 110889, Control_c, 0, 64, 0
1, 110900, Tempo, 620283
1, 110920, Tempo, 616903
1, 110937, Control_c, 0, 64, 127
1, 110960, Tempo, 637891
1, 110960, Note_on_c, 0, 48, 27
1, 110970, Note_on_c, 0, 52, 0
1, 111000, Tempo, 630782
1, 111020, Tempo, 623765
1, 111040, Tempo, 620283
1, 111040, Note_on_c, 0, 52, 32
1, 111050, Note_on_c, 0, 48, 0
1, 111060, Tempo, 616903
1, 111100, Tempo, 613622
1, 111120, Tempo, 641437
1, 111120, Note_on_c, 0, 88, 0
1, 111120, Note_on_c, 0, 76, 0
1, 111120, Note_on_c, 0, 48, 27
1, 111130, Note_on_c, 0, 52, 0
1, 111160, Tempo, 637891
1, 111180, Tempo, 630782
1, 111200, Tempo, 620283
1, 111200, Note_on_c, 0, 52, 33
1, 111210, Note_on_c, 0, 48, 0
1, 111220, Tempo, 616903
1, 111280, Tempo, 634249
1, 111280, Note_on_c, 0, 48, 27
1, 111290, Note_on_c, 0, 52, 0
1, 111360, Time_signature, 2, 2, 24, 8
1, 111360, Tempo, 645092
1, 111360, Note_on_c, 0, 48, 0
1, 111360, Note_on_c, 0, 51, 32
1, 111372, Control_c, 0, 64, 0
1, 111400, Tempo, 637891
1, 111406, Control_c, 0, 64, 127
1, 111440, Note_on_c, 0, 47, 26
1, 111450, Note_on_c, 0, 51, 0
1, 111480, Tempo, 641437
1, 111500, Tempo, 648929
1, 111520, Note_on_c, 0, 51, 31
1, 111530, Note_on_c, 0, 47, 0
1, 111560, Tempo, 623765
1, 111600, Tempo, 634249
1, 111600, Note_on_c, 0, 47, 27
1, 111610, Note_on_c, 0, 51, 0
1, 111620, Tempo, 645092
1, 111640, Tempo, 648929
1, 111680, Tempo, 645092
1, 111680, Note_on_c, 0, 51, 30
1, 111690, Note_on_c, 0, 47, 0
1, 111760, Note_on_c, 0, 47, 26
1, 111770, Note_on_c, 0, 51, 0
1, 111840, Tempo, 620283
1, 111840, Note_on_c, 0, 47, 0
1, 111840, Note_on_c, 0, 67, 32
1, 111860, Tempo, 616903
1, 111862, Control_c, 0, 64, 0
1, 111900, Control_c, 0, 64, 127
1, 111920, Tempo, 623765
1, 111920, Note_on_c, 0, 63, 27
1, 111930, Note_on_c, 0, 67, 0
1, 111940, Tempo, 630782
1, 111960, Tempo, 634249
1, 112000, Tempo, 627090
1, 112000, Note_on_c, 0, 67, 32
1, 112010, Note_on_c, 0, 63, 0
1, 112020, Tempo, 623765
1, 112040, Tempo, 620283
1, 112060, Tempo, 616903
1, 112080, Tempo, 613622
1, 112080, Note_on_c, 0, 63, 27
1, 112090, Note_on_c, 0, 67, 0
1, 112100, Tempo, 634249
1, 112140, Tempo, 620283
1, 112160, Note_on_c, 0, 67, 33
1, 112170, Note_on_c, 0, 63, 0
1, 112180, Tempo, 630782
1, 112240, Note_on_c, 0, 63, 27
1, 112250, Note_on_c, 0, 67, 0
1, 112320, Time_signature, 4, 2, 24, 8
1, 112320, Tempo, 660284
1, 112320, Note_on_c, 0, 63, 0
1, 112320, Note_on_c, 0, 67, 36
1, 112320, Note_on_c, 0, 46, 40
1, 112320, Note_on_c, 0, 58, 47
1, 112331, Control_c, 0, 64, 0
1, 112366, Control_c, 0, 64, 127
1, 112380, Note_on_c, 0, 64, 31
1, 112400, Tempo, 656312
1, 112400, Note_on_c, 0, 67, 0
1, 112440, Tempo, 660284
1, 112440, Note_on_c, 0, 67, 36
1, 112460, Tempo, 668077
1, 112460, Note_on_c, 0, 64, 0
1, 112480, Tempo, 660284
1, 112500, Tempo, 648929
1, 112500, Note_on_c, 0, 64, 32
1, 112520, Note_on_c, 0, 67, 0
1, 112560, Tempo, 668077
1, 112560, Note_on_c, 0, 46, 0
1, 112560, Note_on_c, 0, 58, 0
1, 112560, Note_on_c, 0, 67, 36
1, 112580, Tempo, 664084
1, 112580, Note_on_c, 0, 64, 0
1, 112600, Tempo, 660284
1, 112620, Tempo, 652600
1, 112620, Note_on_c, 0, 64, 31
1, 112640, Note_on_c, 0, 67, 0
1, 112660, Tempo, 668077
1, 112680, Note_on_c, 0, 67, 36
1, 112700, Note_on_c, 0, 64, 0
1, 112740, Note_on_c, 0, 64, 31
1, 112760, Note_on_c, 0, 67, 0
1, 112800, Tempo, 627090
1, 112800, Note_on_c, 0, 64, 0
1, 112800, Note_on_c, 0, 67, 34
1, 112800, Note_on_c, 0, 52, 42
1, 112800, Note_on_c, 0, 40, 35
1, 112810, Control_c, 0, 64, 0
1, 112820, Tempo, 623765
1, 112840, Tempo, 616903
1, 112843, Control_c, 0, 64, 127
1, 112860, Tempo, 613622
1, 112860, Note_on_c, 0, 64, 29
1, 112880, Note_on_c, 0, 67, 0
1, 112920, Tempo, 637891
1, 112920, Note_on_c, 0, 67, 34
1, 112940, Note_on_c, 0, 64, 0
1, 112960, Tempo, 630782
1, 112980, Tempo, 623765
1, 112980, Note_on_c, 0, 64, 29
1, 113000, Note_on_c, 0, 67, 0
1, 113020, Tempo, 620283
1, 113040, Note_on_c, 0, 67, 33
1, 113060, Tempo, 627090
1, 113060, Note_on_c, 0, 64, 0
1, 113080, Tempo, 634249
1, 113100, Tempo, 641437
1, 113100, Note_on_c, 0, 64, 29
1, 113120, Tempo, 637891
1, 113120, Note_on_c, 0, 67, 0
1, 113160, Tempo, 627090
1, 113160, Note_on_c, 0, 67, 34
1, 113180, Tempo, 623765
1, 113180, Note_on_c, 0, 64, 0
1, 113200, Tempo, 616903
1, 113220, Note_on_c, 0, 64, 29
1, 113240, Note_on_c, 0, 67, 0
1, 113260, Tempo, 630782
1, 113280, Tempo, 637891
1, 113280, Note_on_c, 0, 64, 0
1, 113280, Note_on_c, 0, 67, 33
1, 113294, Control_c, 0, 64, 0
1, 113300, Tempo, 641437
1, 113340, Tempo, 637891
1, 113340, Note_on_c, 0, 64, 28
1, 113354, Control_c, 0, 64, 127
1, 113360, Tempo, 630782
1, 113360, Note_on_c, 0, 67, 0
1, 113380, Tempo, 627090
1, 113400, Tempo, 616903
1, 113400, Note_on_c, 0, 67, 33
1, 113420, Note_on_c, 0, 64, 0
1, 113440, Tempo, 620283
1, 113460, Tempo, 627090
1, 113460, Note_on_c, 0, 64, 29
1, 113480, Tempo, 641437
1, 113480, Note_on_c, 0, 67, 0
1, 113500, Tempo, 656312
1, 113520, Note_on_c, 0, 79, 60
1, 113520, Note_on_c, 0, 67, 33
1, 113520, Note_on_c, 0, 76, 60
1, 113520, Note_on_c, 0, 70, 50
1, 113540, Note_on_c, 0, 64, 0
1, 113560, Tempo, 648929
1, 113580, Tempo, 634249
1, 113580, Note_on_c, 0, 64, 31
1, 113600, Tempo, 630782
1, 113600, Note_on_c, 0, 67, 0
1, 113620, Tempo, 627090
1, 113640, Tempo, 623765
1, 113640, Note_on_c, 0, 67, 34
1, 113660, Tempo, 616903
1, 113660, Note_on_c, 0, 64, 0
1, 113700, Note_on_c, 0, 64, 30
1, 113720, Tempo, 620283
1, 113720, Note_on_c, 0, 67, 0
1, 113740, Tempo, 623765
1, 113760, Tempo, 627090
1, 113760, Note_on_c, 0, 70, 0
1, 113760, Note_on_c, 0, 40, 0
1, 113760, Note_on_c, 0, 79, 0
1, 113760, Note_on_c, 0, 52, 0
1, 113760, Note_on_c, 0, 64, 0
1, 113760, Note_on_c, 0, 76, 0
1, 113760, Note_on_c, 0, 88, 65
1, 113760, Note_on_c, 0, 67, 65
1, 113760, Note_on_c, 0, 82, 55
1, 113760, Note_on_c, 0, 91, 65
1, 113775, Control_c, 0, 64, 0
1, 113780, Tempo, 634249
1, 113800, Tempo, 641437
1, 113820, Note_on_c, 0, 64, 31
1, 113820, Control_c, 0, 64, 127
1, 113840, Tempo, 634249
1, 113840, Note_on_c, 0, 67, 0
1, 113880, Tempo, 627090
1, 113880, Note_on_c, 0, 67, 34
1, 113900, Tempo, 623765
1, 113900, Note_on_c, 0, 64, 0
1, 113940, Tempo, 620283
1, 113940, Note_on_c, 0, 64, 32
1, 113960, Note_on_c, 0, 67, 0
1, 113980, Tempo, 627090
1, 114000, Tempo, 634249
1, 114000, Note_on_c, 0, 91, 0
1, 114000, Note_on_c, 0, 88, 0
1, 114000, Note_on_c, 0, 82, 0
1, 114000, Note_on_c, 0, 67, 35
1, 114020, Tempo, 641437
1, 114020, Note_on_c, 0, 64, 0
1, 114040, Tempo, 637891
1, 114060, Tempo, 634249
1, 114060, Note_on_c, 0, 64, 31
1, 114080, Tempo, 630782
1, 114080, Note_on_c, 0, 67, 0
1, 114100, Tempo, 627090
1, 114120, Tempo, 623765
1, 114120, Note_on_c, 0, 67, 34
1, 114140, Tempo, 620283
1, 114140, Note_on_c, 0, 64, 0
1, 114180, Note_on_c, 0, 64, 30
1, 114200, Note_on_c, 0, 67, 0
1, 114240, Tempo, 664084
1, 114240, Note_on_c, 0, 64, 0
1, 114240, Note_on_c, 0, 67, 36
1, 114240, Note_on_c, 0, 46, 40
1, 114240, Note_on_c, 0, 58, 48
1, 114247, Control_c, 0, 64, 0
1, 114280, Tempo, 660284
1, 114300, Tempo, 656312
1, 114300, Note_on_c, 0, 64, 31
1, 114320, Tempo, 668077
1, 114320, Note_on_c, 0, 67, 0
1, 114340, Tempo, 675980
1, 114360, Tempo, 664084
1, 114360, Note_on_c, 0, 46, 0
1, 114360, Note_on_c, 0, 58, 0
1, 114360, Note_on_c, 0, 67, 36
1, 114380, Tempo, 652600
1, 114380, Note_on_c, 0, 64, 0
1, 114400, Tempo, 688468
1, 114420, Note_on_c, 0, 64, 32
1, 114440, Tempo, 692681
1, 114440, Note_on_c, 0, 67, 0
1, 114480, Note_on_c, 0, 67, 36
1, 114480, Note_on_c, 0, 58, 45
1, 114480, Note_on_c, 0, 46, 38
1, 114500, Tempo, 688468
1, 114500, Note_on_c, 0, 64, 0
1, 114520, Tempo, 672043
1, 114540, Tempo, 660284
1, 114540, Note_on_c, 0, 64, 31
1, 114560, Tempo, 652600
1, 114560, Note_on_c, 0, 67, 0
1, 114600, Tempo, 668077
1, 114600, Note_on_c, 0, 46, 0
1, 114600, Note_on_c, 0, 58, 0
1, 114600, Note_on_c, 0, 67, 36
1, 114620, Tempo, 672043
1, 114620, Note_on_c, 0, 64, 0
1, 114660, Note_on_c, 0, 64, 31
1, 114680, Note_on_c, 0, 67, 0
1, 114720, Tempo, 627090
1, 114720, Note_on_c, 0, 67, 34
1, 114720, Note_on_c, 0, 52, 40
1, 114720, Note_on_c, 0, 40, 34
1, 114740, Tempo, 613622
1, 114740, Note_on_c, 0, 64, 0
1, 114756, Control_c, 0, 64, 127
1, 114780, Tempo, 620283
1, 114780, Note_on_c, 0, 64, 29
1, 114800, Tempo, 627090
1, 114800, Note_on_c, 0, 67, 0
1, 114840, Tempo, 623765
1, 114840, Note_on_c, 0, 67, 34
1, 114860, Tempo, 620283
1, 114860, Note_on_c, 0, 64, 0
1, 114880, Tempo, 616903
1, 114900, Tempo, 610190
1, 114900, Note_on_c, 0, 64, 29
1, 114920, Note_on_c, 0, 67, 0
1, 114940, Tempo, 620283
1, 114960, Tempo, 630782
1, 114960, Note_on_c, 0, 67, 33
1, 114980, Note_on_c, 0, 64, 0
1, 115000, Tempo, 627090
1, 115020, Tempo, 623765
1, 115020, Note_on_c, 0, 64, 29
1, 115040, Tempo, 620283
1, 115040, Note_on_c, 0, 67, 0
1, 115060, Tempo, 610190
1, 115080, Note_on_c, 0, 67, 34
1, 115100, Tempo, 613622
1, 115100, Note_on_c, 0, 64, 0
1, 115120, Tempo, 630782
1, 115140, Tempo, 637891
1, 115140, Note_on_c, 0, 64, 29
1, 115160, Note_on_c, 0, 67, 0
1, 115180, Tempo, 634249
1, 115200, Tempo, 627090
1, 115200, Note_on_c, 0, 64, 0
1, 115200, Note_on_c, 0, 67, 33
1, 115211, Control_c, 0, 64, 0
1, 115220, Tempo, 616903
1, 115240, Tempo, 613622
1, 115257, Control_c, 0, 64, 127
1, 115260, Note_on_c, 0, 64, 28
1, 115280, Tempo, 620283
1, 115280, Note_on_c, 0, 67, 0
1, 115300, Tempo, 634249
1, 115320, Note_on_c, 0, 67, 33
1, 115340, Note_on_c, 0, 64, 0
1, 115360, Tempo, 623765
1, 115380, Tempo, 616903
1, 115380, Note_on_c, 0, 64, 29
1, 115400, Note_on_c, 0, 67, 0
1, 115420, Tempo, 613622
1, 115440, Note_on_c, 0, 76, 62
1, 115440, Note_on_c, 0, 67, 33
1, 115440, Note_on_c, 0, 79, 62
1, 115440, Note_on_c, 0, 70, 52
1, 115460, Tempo, 627090
1, 115460, Note_on_c, 0, 64, 0
1, 115480, Tempo, 630782
1, 115500, Tempo, 634249
1, 115500, Note_on_c, 0, 64, 31
1, 115520, Tempo, 623765
1, 115520, Note_on_c, 0, 67, 0
1, 115540, Tempo, 613622
1, 115560, Tempo, 610190
1, 115560, Note_on_c, 0, 67, 34
1, 115580, Note_on_c, 0, 64, 0
1, 115620, Tempo, 613622
1, 115620, Note_on_c, 0, 64, 30
1, 115640, Tempo, 630782
1, 115640, Note_on_c, 0, 67, 0
1, 115660, Tempo, 634249
1, 115680, Note_on_c, 0, 70, 0
1, 115680, Note_on_c, 0, 52, 0
1, 115680, Note_on_c, 0, 76, 0
1, 115680, Note_on_c, 0, 40, 0
1, 115680, Note_on_c, 0, 64, 0
1, 115680, Note_on_c, 0, 79, 0
1, 115680, Note_on_c, 0, 91, 66
1, 115680, Note_on_c, 0, 88, 66
1, 115680, Note_on_c, 0, 82, 55
1, 115680, Note_on_c, 0, 67, 66
1, 115696, Control_c, 0, 64, 0
1, 115720, Tempo, 623765
1, 115737, Control_c, 0, 64, 127
1, 115740, Tempo, 620283
1, 115740, Note_on_c, 0, 64, 31
1, 115760, Tempo, 613622
1, 115760, Note_on_c, 0, 67, 0
1, 115780, Tempo, 610190
1, 115800, Tempo, 613622
1, 115800, Note_on_c, 0, 67, 36
1, 115820, Tempo, 620283
1, 115820, Note_on_c, 0, 64, 0
1, 115840, Tempo, 634249
1, 115860, Note_on_c, 0, 64, 32
1, 115880, Tempo, 627090
1, 115880, Note_on_c, 0, 67, 0
1, 115920, Tempo, 613622
1, 115920, Note_on_c, 0, 82, 0
1, 115920, Note_on_c, 0, 91, 0
1, 115920, Note_on_c, 0, 88, 0
1, 115920, Note_on_c, 0, 67, 38
1, 115940, Note_on_c, 0, 64, 0
1, 115960, Tempo, 610190
1, 115980, Tempo, 623765
1, 115980, Note_on_c, 0, 64, 31
1, 116000, Tempo, 630782
1, 116000, Note_on_c, 0, 67, 0
1, 116040, Tempo, 627090
1, 116040, Note_on_c, 0, 67, 38
1, 116060, Note_on_c, 0, 64, 0
1, 116080, Tempo, 623765
1, 116100, Tempo, 620283
1, 116100, Note_on_c, 0, 64, 33
1, 116120, Note_on_c, 0, 67, 0
1, 116160, Tempo, 645092
1, 116160, Note_on_c, 0, 64, 0
1, 116160, Note_on_c, 0, 67, 40
1, 116160, Note_on_c, 0, 46, 40
1, 116160, Note_on_c, 0, 58, 48
1, 116170, Control_c, 0, 64, 0
1, 116180, Tempo, 641437
1, 116200, Tempo, 637891
1, 116220, Tempo, 652600
1, 116220, Note_on_c, 0, 64, 31
1, 116240, Tempo, 656312
1, 116240, Note_on_c, 0, 67, 0
1, 116260, Tempo, 652600
1, 116280, Tempo, 648929
1, 116280, Note_on_c, 0, 46, 0
1, 116280, Note_on_c, 0, 58, 0
1, 116280, Note_on_c, 0, 67, 36
1, 116300, Tempo, 645092
1, 116300, Note_on_c, 0, 64, 0
1, 116340, Note_on_c, 0, 64, 32
1, 116360, Note_on_c, 0, 67, 0
1, 116400, Tempo, 630782
1, 116400, Note_on_c, 0, 67, 38
1, 116400, Note_on_c, 0, 50, 36
1, 116400, Note_on_c, 0, 62, 44
1, 116420, Note_on_c, 0, 64, 0
1, 116460, Tempo, 627090
1, 116460, Note_on_c, 0, 64, 31
1, 116480, Note_on_c, 0, 67, 0
1, 116520, Tempo, 620283
1, 116520, Note_on_c, 0, 62, 0
1, 116520, Note_on_c, 0, 50, 0
1, 116520, Note_on_c, 0, 67, 36
1, 116540, Tempo, 616903
1, 116540, Note_on_c, 0, 64, 0
1, 116560, Tempo, 637891
1, 116580, Note_on_c, 0, 64, 30
1, 116600, Tempo, 641437
1, 116600, Note_on_c, 0, 67, 0
1, 116620, Tempo, 637891
1, 116640, Tempo, 630782
1, 116640, Note_on_c, 0, 67, 34
1, 116640, Note_on_c, 0, 48, 38
1, 116640, Note_on_c, 0, 60, 45
1, 116660, Tempo, 620283
1, 116660, Note_on_c, 0, 64, 0
1, 116700, Tempo, 627090
1, 116700, Note_on_c, 0, 64, 29
1, 116720, Note_on_c, 0, 67, 0
1, 116740, Tempo, 634249
1, 116760, Note_on_c, 0, 60, 0
1, 116760, Note_on_c, 0, 48, 0
1, 116760, Note_on_c, 0, 67, 34
1, 116780, Tempo, 627090
1, 116780, Note_on_c, 0, 64, 0
1, 116800, Tempo, 620283
1, 116820, Note_on_c, 0, 64, 29
1, 116840, Tempo, 623765
1, 116840, Note_on_c, 0, 67, 0
1, 116860, Tempo, 627090
1, 116880, Tempo, 630782
1, 116880, Note_on_c, 0, 67, 33
1, 116880, Note_on_c, 0, 50, 37
1, 116880, Note_on_c, 0, 62, 45
1, 116900, Tempo, 634249
1, 116900, Note_on_c, 0, 64, 0
1, 116920, Tempo, 623765
1, 116940, Tempo, 616903
1, 116940, Note_on_c, 0, 64, 29
1, 116960, Note_on_c, 0, 67, 0
1, 116980, Tempo, 623765
1, 117000, Tempo, 627090
1, 117000, Note_on_c, 0, 62, 0
1, 117000, Note_on_c, 0, 50, 0
1, 117000, Note_on_c, 0, 67, 34
1, 117020, Note_on_c, 0, 64, 0
1, 117060, Note_on_c, 0, 64, 29
1, 117080, Note_on_c, 0, 67, 0
1, 117120, Tempo, 610190
1, 117120, Note_on_c, 0, 67, 36
1, 117120, Note_on_c, 0, 46, 39
1, 117120, Note_on_c, 0, 58, 46
1, 117140, Tempo, 606919
1, 117140, Note_on_c, 0, 64, 0
1, 117141, Control_c, 0, 64, 127
1, 117160, Tempo, 620283
1, 117180, Tempo, 623765
1, 117180, Note_on_c, 0, 64, 31
1, 117200, Note_on_c, 0, 67, 0
1, 117220, Tempo, 613622
1, 117240, Tempo, 606919
1, 117240, Note_on_c, 0, 67, 36
1, 117260, Tempo, 616903
1, 117260, Note_on_c, 0, 64, 0
1, 117280, Tempo, 620283
1, 117300, Tempo, 623765
1, 117300, Note_on_c, 0, 64, 32
1, 117320, Tempo, 620283
1, 117320, Note_on_c, 0, 67, 0
1, 117360, Tempo, 627090
1, 117360, Note_on_c, 0, 67, 36
1, 117380, Note_on_c, 0, 64, 0
1, 117400, Tempo, 627090
1, 117420, Tempo, 623765
1, 117420, Note_on_c, 0, 64, 31
1, 117440, Note_on_c, 0, 67, 0
1, 117460, Tempo, 620283
1, 117480, Tempo, 616903
1, 117480, Note_on_c, 0, 67, 36
1, 117500, Note_on_c, 0, 64, 0
1, 117520, Tempo, 620283
1, 117540, Tempo, 627090
1, 117540, Note_on_c, 0, 64, 31
1, 117560, Tempo, 630782
1, 117560, Note_on_c, 0, 67, 0
1, 117580, Tempo, 627090
1, 117600, Tempo, 623765
1, 117600, Note_on_c, 0, 58, 0
1, 117600, Note_on_c, 0, 46, 0
1, 117600, Note_on_c, 0, 64, 0
1, 117600, Note_on_c, 0, 67, 34
1, 117600, Note_on_c, 0, 60, 46
1, 117600, Note_on_c, 0, 48, 39
1, 117612, Control_c, 0, 64, 0
1, 117620, Tempo, 620283
1, 117640, Tempo, 613622
1, 117660, Tempo, 616903
1, 117660, Note_on_c, 0, 64, 29
1, 117680, Tempo, 623765
1, 117680, Note_on_c, 0, 67, 0
1, 117700, Tempo, 630782
1, 117720, Note_on_c, 0, 60, 0
1, 117720, Note_on_c, 0, 48, 0
1, 117720, Note_on_c, 0, 67, 34
1, 117740, Tempo, 627090
1, 117740, Note_on_c, 0, 64, 0
1, 117760, Tempo, 623765
1, 117780, Tempo, 620283
1, 117780, Note_on_c, 0, 64, 29
1, 117800, Note_on_c, 0, 67, 0
1, 117840, Tempo, 668077
1, 117840, Note_on_c, 0, 67, 33
1, 117840, Note_on_c, 0, 58, 43
1, 117840, Note_on_c, 0, 46, 36
1, 117860, Tempo, 668077
1, 117860, Note_on_c, 0, 64, 0
1, 117880, Tempo, 656312
1, 117900, Tempo, 664084
1, 117900, Note_on_c, 0, 64, 29
1, 117920, Tempo, 675980
1, 117920, Note_on_c, 0, 67, 0
1, 117940, Tempo, 672043
1, 117960, Tempo, 660284
1, 117960, Note_on_c, 0, 46, 0
1, 117960, Note_on_c, 0, 58, 0
1, 117960, Note_on_c, 0, 67, 34
1, 117980, Note_on_c, 0, 64, 0
1, 118020, Note_on_c, 0, 64, 29
1, 118040, Note_on_c, 0, 67, 0
1, 118060, Tempo, 652600
1, 118080, Time_signature, 2, 2, 24, 8
1, 118080, Tempo, 648929
1, 118080, Note_on_c, 0, 67, 37
1, 118080, Note_on_c, 0, 50, 40
1, 118080, Note_on_c, 0, 62, 47
1, 118100, Tempo, 645092
1, 118100, Note_on_c, 0, 64, 0
1, 118120, Tempo, 641437
1, 118126, Control_c, 0, 64, 127
1, 118140, Tempo, 652600
1, 118140, Note_on_c, 0, 64, 32
1, 118160, Tempo, 656312
1, 118160, Note_on_c, 0, 67, 0
1, 118180, Tempo, 664084
1, 118200, Tempo, 660284
1, 118200, Note_on_c, 0, 67, 37
1, 118220, Tempo, 652600
1, 118220, Note_on_c, 0, 64, 0
1, 118240, Tempo, 645092
1, 118260, Tempo, 641437
1, 118260, Note_on_c, 0, 64, 32
1, 118280, Tempo, 637891
1, 118280, Note_on_c, 0, 67, 0
1, 118300, Tempo, 634249
1, 118320, Tempo, 637891
1, 118320, Note_on_c, 0, 67, 37
1, 118340, Tempo, 648929
1, 118340, Note_on_c, 0, 64, 0
1, 118360, Tempo, 656312
1, 118380, Tempo, 645092
1, 118380, Note_on_c, 0, 64, 31
1, 118400, Tempo, 637891
1, 118400, Note_on_c, 0, 67, 0
1, 118440, Tempo, 648929
1, 118440, Note_on_c, 0, 67, 38
1, 118460, Tempo, 652600
1, 118460, Note_on_c, 0, 64, 0
1, 118500, Note_on_c, 0, 64, 31
1, 118520, Note_on_c, 0, 67, 0
1, 118560, Tempo, 641437
1, 118560, Note_on_c, 0, 62, 0
1, 118560, Note_on_c, 0, 50, 0
1, 118560, Note_on_c, 0, 64, 0
1, 118560, Note_on_c, 0, 67, 39
1, 118560, Note_on_c, 0, 48, 37
1, 118560, Note_on_c, 0, 60, 45
1, 118577, Control_c, 0, 64, 0
1, 118600, Tempo, 634249
1, 118620, Note_on_c, 0, 64, 31
1, 118640, Note_on_c, 0, 67, 0
1, 118660, Tempo, 637891
1, 118680, Tempo, 648929
1, 118680, Note_on_c, 0, 48, 0
1, 118680, Note_on_c, 0, 60, 0
1, 118680, Note_on_c, 0, 67, 37
1, 118700, Tempo, 652600
1, 118700, Note_on_c, 0, 64, 0
1, 118720, Tempo, 648929
1, 118740, Tempo, 637891
1, 118740, Note_on_c, 0, 64, 32
1, 118760, Tempo, 630782
1, 118760, Note_on_c, 0, 67, 0
1, 118780, Tempo, 634249
1, 118800, Tempo, 641437
1, 118800, Note_on_c, 0, 67, 36
1, 118800, Note_on_c, 0, 46, 36
1, 118800, Note_on_c, 0, 58, 43
1, 118820, Tempo, 648929
1, 118820, Note_on_c, 0, 64, 0
1, 118840, Tempo, 641437
1, 118860, Tempo, 637891
1, 118860, Note_on_c, 0, 64, 31
1, 118880, Note_on_c, 0, 67, 0
1, 118900, Tempo, 652600
1, 118920, Tempo, 645092
1, 118920, Note_on_c, 0, 58, 0
1, 118920, Note_on_c, 0, 46, 0
1, 118920, Note_on_c, 0, 67, 34
1, 118940, Tempo, 637891
1, 118940, Note_on_c, 0, 64, 0
1, 118980, Note_on_c, 0, 64, 29
1, 119000, Note_on_c, 0, 67, 0
1, 119040, Time_signature, 4, 2, 24, 8
1, 119040, Tempo, 664084
1, 119040, Note_on_c, 0, 66, 38
1, 119040, Note_on_c, 0, 59, 45
1, 119040, Note_on_c, 0, 47, 37
1, 119060, Tempo, 660284
1, 119060, Note_on_c, 0, 64, 0
1, 119080, Tempo, 656312
1, 119080, Control_c, 0, 64, 127
1, 119100, Note_on_c, 0, 63, 31
1, 119120, Note_on_c, 0, 66, 0
1, 119140, Tempo, 664084
1, 119160, Tempo, 660284
1, 119160, Note_on_c, 0, 66, 38
1, 119180, Tempo, 652600
1, 119180, Note_on_c, 0, 63, 0
1, 119200, Tempo, 648929
1, 119220, Note_on_c, 0, 63, 32
1, 119240, Tempo, 664084
1, 119240, Note_on_c, 0, 66, 0
1, 119260, Tempo, 668077
1, 119280, Note_on_c, 0, 47, 0
1, 119280, Note_on_c, 0, 59, 0
1, 119280, Note_on_c, 0, 66, 38
1, 119300, Tempo, 672043
1, 119300, Note_on_c, 0, 63, 0
1, 119320, Tempo, 656312
1, 119340, Tempo, 660284
1, 119340, Note_on_c, 0, 63, 31
1, 119360, Note_on_c, 0, 66, 0
1, 119400, Note_on_c, 0, 66, 38
1, 119420, Note_on_c, 0, 63, 0
1, 119440, Tempo, 656312
1, 119460, Note_on_c, 0, 63, 31
1, 119480, Note_on_c, 0, 66, 0
1, 119520, Tempo, 627090
1, 119520, Note_on_c, 0, 63, 0
1, 119520, Note_on_c, 0, 66, 34
1, 119520, Note_on_c, 0, 40, 35
1, 119520, Note_on_c, 0, 52, 42
1, 119531, Control_c, 0, 64, 0
1, 119560, Tempo, 623765
1, 119580, Tempo, 620283
1, 119580, Note_on_c, 0, 63, 29
1, 119586, Control_c, 0, 64, 127
1, 119600, Tempo, 616903
1, 119600, Note_on_c, 0, 66, 0
1, 119620, Tempo, 623765
1, 119640, Tempo, 630782
1, 119640, Note_on_c, 0, 66, 34
1, 119660, Tempo, 634249
1, 119660, Note_on_c, 0, 63, 0
1, 119680, Tempo, 630782
1, 119700, Tempo, 623765
1, 119700, Note_on_c, 0, 63, 29
1, 119720, Tempo, 616903
1, 119720, Note_on_c, 0, 66, 0
1, 119760, Note_on_c, 0, 66, 33
1, 119780, Tempo, 623765
1, 119780, Note_on_c, 0, 63, 0
1, 119800, Tempo, 627090
1, 119820, Tempo, 634249
1, 119820, Note_on_c, 0, 63, 29
1, 119840, Note_on_c, 0, 66, 0
1, 119860, Tempo, 627090
1, 119880, Tempo, 634249
1, 119880, Note_on_c, 0, 66, 34
1, 119900, Tempo, 637891
1, 119900, Note_on_c, 0, 63, 0
1, 119940, Tempo, 641437
1, 119940, Note_on_c, 0, 63, 29
1, 119960, Note_on_c, 0, 66, 0
1, 119980, Tempo, 637891
1, 120000, Note_on_c, 0, 66, 33
1, 120020, Tempo, 630782
1, 120020, Note_on_c, 0, 63, 0
1, 120040, Tempo, 623765
1, 120060, Tempo, 620283
1, 120060, Note_on_c, 0, 63, 28
1, 120080, Note_on_c, 0, 66, 0
1, 120100, Tempo, 616903
1, 120120, Note_on_c, 0, 66, 33
1, 120140, Tempo, 620283
1, 120140, Note_on_c, 0, 63, 0
1, 120160, Tempo, 623765
1, 120180, Tempo, 630782
1, 120180, Note_on_c, 0, 63, 29
1, 120200, Tempo, 637891
1, 120200, Note_on_c, 0, 66, 0
1, 120240, Tempo, 630782
1, 120240, Note_on_c, 0, 63, 0
1, 120240, Note_on_c, 0, 79, 63
1, 120240, Note_on_c, 0, 70, 53
1, 120240, Note_on_c, 0, 76, 63
1, 120240, Note_on_c, 0, 67, 33
1, 120246, Control_c, 0, 64, 0
1, 120260, Tempo, 623765
1, 120280, Tempo, 620283
1, 120292, Control_c, 0, 64, 127
1, 120300, Tempo, 627090
1, 120300, Note_on_c, 0, 64, 31
1, 120320, Tempo, 630782
1, 120320, Note_on_c, 0, 67, 0
1, 120360, Tempo, 637891
1, 120360, Note_on_c, 0, 67, 34
1, 120380, Note_on_c, 0, 64, 0
1, 120400, Tempo, 634249
1, 120420, Tempo, 630782
1, 120420, Note_on_c, 0, 64, 30
1, 120440, Tempo, 623765
1, 120440, Note_on_c, 0, 67, 0
1, 120480, Tempo, 620283
1, 120480, Note_on_c, 0, 76, 0
1, 120480, Note_on_c, 0, 52, 0
1, 120480, Note_on_c, 0, 79, 0
1, 120480, Note_on_c, 0, 40, 0
1, 120480, Note_on_c, 0, 64, 0
1, 120480, Note_on_c, 0, 70, 0
1, 120480, Note_on_c, 0, 88, 66
1, 120480, Note_on_c, 0, 91, 66
1, 120480, Note_on_c, 0, 67, 66
1, 120480, Note_on_c, 0, 82, 55
1, 120492, Control_c, 0, 64, 0
1, 120500, Tempo, 616903
1, 120520, Tempo, 620283
1, 120520, Control_c, 0, 64, 127
1, 120540, Tempo, 627090
1, 120540, Note_on_c, 0, 64, 31
1, 120560, Tempo, 630782
1, 120560, Note_on_c, 0, 67, 0
1, 120580, Tempo, 637891
1, 120600, Tempo, 634249
1, 120600, Note_on_c, 0, 67, 34
1, 120620, Tempo, 630782
1, 120620, Note_on_c, 0, 64, 0
1, 120640, Tempo, 627090
1, 120660, Tempo, 620283
1, 120660, Note_on_c, 0, 64, 32
1, 120680, Note_on_c, 0, 67, 0
1, 120700, Tempo, 630782
1, 120720, Tempo, 634249
1, 120720, Note_on_c, 0, 82, 0
1, 120720, Note_on_c, 0, 88, 0
1, 120720, Note_on_c, 0, 91, 0
1, 120720, Note_on_c, 0, 67, 35
1, 120740, Tempo, 641437
1, 120740, Note_on_c, 0, 64, 0
1, 120760, Tempo, 637891
1, 120780, Tempo, 634249
1, 120780, Note_on_c, 0, 64, 31
1, 120800, Tempo, 630782
1, 120800, Note_on_c, 0, 67, 0
1, 120840, Note_on_c, 0, 67, 34
1, 120860, Note_on_c, 0, 64, 0
1, 120900, Note_on_c, 0, 64, 30
1, 120920, Note_on_c, 0, 67, 0
1, 120960, Tempo, 672043
1, 120960, Note_on_c, 0, 66, 36
1, 120960, Note_on_c, 0, 47, 37
1, 120960, Note_on_c, 0, 59, 45
1, 120966, Control_c, 0, 64, 0
1, 120980, Tempo, 668077
1, 120980, Note_on_c, 0, 64, 0
1, 121000, Tempo, 656312
1, 121020, Tempo, 664084
1, 121020, Note_on_c, 0, 63, 31
1, 121040, Tempo, 675980
1, 121040, Note_on_c, 0, 66, 0
1, 121080, Note_on_c, 0, 59, 0
1, 121080, Note_on_c, 0, 47, 0
1, 121080, Note_on_c, 0, 66, 36
1, 121100, Tempo, 672043
1, 121100, Note_on_c, 0, 63, 0
1, 121120, Tempo, 664084
1, 121140, Tempo, 656312
1, 121140, Note_on_c, 0, 63, 32
1, 121160, Note_on_c, 0, 66, 0
1, 121180, Tempo, 675980
1, 121200, Note_on_c, 0, 66, 36
1, 121200, Note_on_c, 0, 47, 36
1, 121200, Note_on_c, 0, 59, 43
1, 121220, Tempo, 672043
1, 121220, Note_on_c, 0, 63, 0
1, 121240, Tempo, 668077
1, 121260, Tempo, 664084
1, 121260, Note_on_c, 0, 63, 31
1, 121280, Tempo, 656312
1, 121280, Note_on_c, 0, 66, 0
1, 121300, Tempo, 652600
1, 121320, Tempo, 664084
1, 121320, Note_on_c, 0, 59, 0
1, 121320, Note_on_c, 0, 47, 0
1, 121320, Note_on_c, 0, 66, 36
1, 121340, Tempo, 668077
1, 121340, Note_on_c, 0, 63, 0
1, 121380, Note_on_c, 0, 63, 31
1, 121400, Note_on_c, 0, 66, 0
1, 121440, Tempo, 627090
1, 121440, Note_on_c, 0, 66, 34
1, 121440, Note_on_c, 0, 52, 40
1, 121440, Note_on_c, 0, 40, 34
1, 121460, Tempo, 623765
1, 121460, Note_on_c, 0, 63, 0
1, 121466, Control_c, 0, 64, 127
1, 121480, Tempo, 620283
1, 121500, Tempo, 616903
1, 121500, Note_on_c, 0, 63, 29
1, 121520, Note_on_c, 0, 66, 0
1, 121560, Tempo, 630782
1, 121560, Note_on_c, 0, 66, 34
1, 121580, Tempo, 634249
1, 121580, Note_on_c, 0, 63, 0
1, 121600, Tempo, 630782
1, 121620, Note_on_c, 0, 63, 29
1, 121640, Tempo, 627090
1, 121640, Note_on_c, 0, 66, 0
1, 121660, Tempo, 620283
1, 121680, Tempo, 616903
1, 121680, Note_on_c, 0, 66, 33
1, 121700, Tempo, 613622
1, 121700, Note_on_c, 0, 63, 0
1, 121740, Tempo, 637891
1, 121740, Note_on_c, 0, 63, 29
1, 121760, Note_on_c, 0, 66, 0
1, 121800, Tempo, 634249
1, 121800, Note_on_c, 0, 66, 34
1, 121820, Tempo, 627090
1, 121820, Note_on_c, 0, 63, 0
1, 121840, Tempo, 623765
1, 121860, Note_on_c, 0, 63, 29
1, 121880, Tempo, 620283
1, 121880, Note_on_c, 0, 66, 0
1, 121900, Tempo, 613622
1, 121920, Tempo, 623765
1, 121920, Note_on_c, 0, 66, 33
1, 121940, Tempo, 630782
1, 121940, Note_on_c, 0, 63, 0
1, 121960, Tempo, 641437
1, 121980, Note_on_c, 0, 63, 28
1, 122000, Tempo, 634249
1, 122000, Note_on_c, 0, 66, 0
1, 122020, Tempo, 630782
1, 122040, Tempo, 623765
1, 122040, Note_on_c, 0, 66, 33
1, 122060, Tempo, 613622
1, 122060, Note_on_c, 0, 63, 0
1, 122080, Tempo, 616903
1, 122100, Tempo, 620283
1, 122100, Note_on_c, 0, 63, 29
1, 122120, Tempo, 623765
1, 122120, Note_on_c, 0, 66, 0
1, 122140, Tempo, 627090
1, 122160, Note_on_c, 0, 63, 0
1, 122160, Note_on_c, 0, 79, 64
1, 122160, Note_on_c, 0, 70, 54
1, 122160, Note_on_c, 0, 76, 64
1, 122160, Note_on_c, 0, 67, 33
1, 122175, Control_c, 0, 64, 0
1, 122200, Tempo, 623765
1, 122209, Control_c, 0, 64, 127
1, 122220, Tempo, 616903
1, 122220, Note_on_c, 0, 64, 31
1, 122240, Tempo, 613622
1, 122240, Note_on_c, 0, 67, 0
1, 122260, Tempo, 610190
1, 122280, Tempo, 616903
1, 122280, Note_on_c, 0, 67, 34
1, 122300, Tempo, 623765
1, 122300, Note_on_c, 0, 64, 0
1, 122320, Tempo, 627090
1, 122340, Tempo, 630782
1, 122340, Note_on_c, 0, 64, 30
1, 122360, Note_on_c, 0, 67, 0
1, 122380, Tempo, 616903
1, 122400, Tempo, 623765
1, 122400, Note_on_c, 0, 76, 0
1, 122400, Note_on_c, 0, 52, 0
1, 122400, Note_on_c, 0, 79, 0
1, 122400, Note_on_c, 0, 40, 0
1, 122400, Note_on_c, 0, 64, 0
1, 122400, Note_on_c, 0, 70, 0
1, 122400, Note_on_c, 0, 67, 67
1, 122400, Note_on_c, 0, 88, 67
1, 122400, Note_on_c, 0, 91, 67
1, 122400, Note_on_c, 0, 82, 56
1, 122412, Control_c, 0, 64, 0
1, 122420, Tempo, 630782
1, 122455, Control_c, 0, 64, 127
1, 122460, Note_on_c, 0, 64, 31
1, 122480, Note_on_c, 0, 67, 0
1, 122520, Note_on_c, 0, 67, 34
1, 122540, Tempo, 620283
1, 122540, Note_on_c, 0, 64, 0
1, 122560, Tempo, 613622
1, 122580, Note_on_c, 0, 64, 32
1, 122600, Tempo, 620283
1, 122600, Note_on_c, 0, 67, 0
1, 122620, Tempo, 623765
1, 122640, Note_on_c, 0, 82, 0
1, 122640, Note_on_c, 0, 88, 0
1, 122640, Note_on_c, 0, 91, 0
1, 122640, Note_on_c, 0, 67, 35
1, 122660, Tempo, 627090
1, 122660, Note_on_c, 0, 64, 0
1, 122700, Note_on_c, 0, 64, 31
1, 122720, Note_on_c, 0, 67, 0
1, 122760, Note_on_c, 0, 67, 34
1, 122780, Note_on_c, 0, 64, 0
1, 122820, Note_on_c, 0, 64, 30
1, 122840, Note_on_c, 0, 67, 0
1, 122860, Tempo, 648929
1, 122880, Note_on_c, 0, 64, 0
1, 122880, Note_on_c, 0, 65, 40
1, 122880, Note_on_c, 0, 56, 45
1, 122880, Note_on_c, 0, 44, 37
1, 122889, Control_c, 0, 64, 0
1, 122920, Tempo, 641437
1, 122940, Tempo, 656312
1, 122940, Note_on_c, 0, 62, 31
1, 122960, Note_on_c, 0, 65, 0
1, 122980, Tempo, 648929
1, 123000, Tempo, 641437
1, 123000, Note_on_c, 0, 56, 0
1, 123000, Note_on_c, 0, 44, 0
1, 123000, Note_on_c, 0, 65, 36
1, 123020, Tempo, 652600
1, 123020, Note_on_c, 0, 62, 0
1, 123060, Note_on_c, 0, 62, 32
1, 123080, Note_on_c, 0, 65, 0
1, 123120, Tempo, 634249
1, 123120, Note_on_c, 0, 65, 38
1, 123120, Note_on_c, 0, 60, 42
1, 123120, Note_on_c, 0, 48, 35
1, 123140, Note_on_c, 0, 62, 0
1, 123180, Note_on_c, 0, 62, 31
1, 123200, Note_on_c, 0, 65, 0
1, 123240, Note_on_c, 0, 48, 0
1, 123240, Note_on_c, 0, 60, 0
1, 123240, Note_on_c, 0, 65, 36
1, 123260, Tempo, 627090
1, 123260, Note_on_c, 0, 62, 0
1, 123280, Tempo, 623765
1, 123300, Tempo, 620283
1, 123300, Note_on_c, 0, 62, 30
1, 123320, Tempo, 634249
1, 123320, Note_on_c, 0, 65, 0
1, 123340, Tempo, 645092
1, 123360, Note_on_c, 0, 65, 34
1, 123360, Note_on_c, 0, 47, 38
1, 123360, Note_on_c, 0, 59, 45
1, 123380, Note_on_c, 0, 62, 0
1, 123420, Tempo, 634249
1, 123420, Note_on_c, 0, 62, 29
1, 123440, Note_on_c, 0, 65, 0
1, 123460, Tempo, 630782
1, 123480, Tempo, 627090
1, 123480, Note_on_c, 0, 59, 0
1, 123480, Note_on_c, 0, 47, 0
1, 123480, Note_on_c, 0, 65, 34
1, 123500, Tempo, 620283
1, 123500, Note_on_c, 0, 62, 0
1, 123540, Tempo, 623765
1, 123540, Note_on_c, 0, 62, 29
1, 123560, Tempo, 637891
1, 123560, Note_on_c, 0, 65, 0
1, 123580, Tempo, 641437
1, 123600, Tempo, 637891
1, 123600, Note_on_c, 0, 65, 33
1, 123600, Note_on_c, 0, 48, 37
1, 123600, Note_on_c, 0, 60, 45
1, 123620, Tempo, 634249
1, 123620, Note_on_c, 0, 62, 0
1, 123640, Tempo, 623765
1, 123660, Tempo, 620283
1, 123660, Note_on_c, 0, 62, 29
1, 123680, Tempo, 616903
1, 123680, Note_on_c, 0, 65, 0
1, 123700, Tempo, 613622
1, 123720, Tempo, 616903
1, 123720, Note_on_c, 0, 60, 0
1, 123720, Note_on_c, 0, 48, 0
1, 123720, Note_on_c, 0, 65, 34
1, 123740, Tempo, 623765
1, 123740, Note_on_c, 0, 62, 0
1, 123760, Tempo, 634249
1, 123780, Note_on_c, 0, 62, 29
1, 123800, Note_on_c, 0, 65, 0
1, 123840, Note_on_c, 0, 65, 36
1, 123840, Note_on_c, 0, 44, 39
1, 123840, Note_on_c, 0, 56, 46
1, 123860, Tempo, 630782
1, 123860, Note_on_c, 0, 62, 0
1, 123861, Control_c, 0, 64, 127
1, 123880, Tempo, 623765
1, 123900, Tempo, 620283
1, 123900, Note_on_c, 0, 62, 31
1, 123920, Tempo, 627090
1, 123920, Note_on_c, 0, 65, 0
1, 123940, Tempo, 630782
1, 123960, Tempo, 634249
1, 123960, Note_on_c, 0, 65, 36
1, 123980, Note_on_c, 0, 62, 0
1, 124020, Note_on_c, 0, 62, 32
1, 124040, Tempo, 630782
1, 124040, Note_on_c, 0, 65, 0
1, 124060, Tempo, 623765
1, 124080, Tempo, 620283
1, 124080, Note_on_c, 0, 65, 36
1, 124100, Tempo, 627090
1, 124100, Note_on_c, 0, 62, 0
1, 124120, Tempo, 630782
1, 124140, Tempo, 634249
1, 124140, Note_on_c, 0, 62, 31
1, 124160, Tempo, 641437
1, 124160, Note_on_c, 0, 65, 0
1, 124200, Note_on_c, 0, 65, 36
1, 124220, Tempo, 637891
1, 124220, Note_on_c, 0, 62, 0
1, 124240, Tempo, 606919
1, 124260, Tempo, 603743
1, 124260, Note_on_c, 0, 62, 31
1, 124280, Tempo, 597372
1, 124280, Note_on_c, 0, 65, 0
1, 124300, Tempo, 606919
1, 124320, Tempo, 620283
1, 124320, Note_on_c, 0, 56, 0
1, 124320, Note_on_c, 0, 44, 0
1, 124320, Note_on_c, 0, 62, 0
1, 124320, Note_on_c, 0, 65, 34
1, 124320, Note_on_c, 0, 45, 39
1, 124320, Note_on_c, 0, 57, 46
1, 124329, Control_c, 0, 64, 0
1, 124340, Tempo, 627090
1, 124360, Tempo, 630782
1, 124380, Note_on_c, 0, 62, 29
1, 124400, Note_on_c, 0, 65, 0
1, 124440, Note_on_c, 0, 45, 0
1, 124440, Note_on_c, 0, 57, 0
1, 124440, Note_on_c, 0, 65, 34
1, 124460, Note_on_c, 0, 62, 0
1, 124500, Note_on_c, 0, 62, 29
1, 124520, Note_on_c, 0, 65, 0
1, 124540, Tempo, 660284
1, 124560, Tempo, 656312
1, 124560, Note_on_c, 0, 65, 33
1, 124560, Note_on_c, 0, 44, 36
1, 124560, Note_on_c, 0, 56, 43
1, 124580, Tempo, 652600
1, 124580, Note_on_c, 0, 62, 0
1, 124620, Tempo, 672043
1, 124620, Note_on_c, 0, 62, 29
1, 124640, Tempo, 675980
1, 124640, Note_on_c, 0, 65, 0
1, 124680, Tempo, 668077
1, 124680, Note_on_c, 0, 56, 0
1, 124680, Note_on_c, 0, 44, 0
1, 124680, Note_on_c, 0, 65, 34
1, 124700, Tempo, 660284
1, 124700, Note_on_c, 0, 62, 0
1, 124740, Note_on_c, 0, 62, 29
1, 124760, Note_on_c, 0, 65, 0
1, 124800, Time_signature, 2, 2, 24, 8
1, 124800, Tempo, 652600
1, 124800, Note_on_c, 0, 65, 36
1, 124800, Note_on_c, 0, 48, 40
1, 124800, Note_on_c, 0, 60, 47
1, 124820, Tempo, 645092
1, 124820, Note_on_c, 0, 62, 0
1, 124832, Control_c, 0, 64, 127
1, 124840, Tempo, 641437
1, 124860, Note_on_c, 0, 62, 31
1, 124880, Tempo, 637891
1, 124880, Note_on_c, 0, 65, 0
1, 124900, Tempo, 634249
1, 124920, Tempo, 637891
1, 124920, Note_on_c, 0, 65, 36
1, 124940, Tempo, 652600
1, 124940, Note_on_c, 0, 62, 0
1, 124960, Tempo, 656312
1, 124980, Note_on_c, 0, 62, 32
1, 125000, Tempo, 648929
1, 125000, Note_on_c, 0, 65, 0
1, 125020, Tempo, 641437
1, 125040, Tempo, 634249
1, 125040, Note_on_c, 0, 65, 36
1, 125060, Note_on_c, 0, 62, 0
1, 125080, Tempo, 641437
1, 125100, Tempo, 648929
1, 125100, Note_on_c, 0, 62, 31
1, 125120, Tempo, 656312
1, 125120, Note_on_c, 0, 65, 0
1, 125160, Note_on_c, 0, 65, 36
1, 125180, Tempo, 648929
1, 125180, Note_on_c, 0, 62, 0
1, 125200, Tempo, 645092
1, 125220, Note_on_c, 0, 62, 31
1, 125240, Note_on_c, 0, 65, 0
1, 125260, Tempo, 641437
1, 125280, Note_on_c, 0, 60, 0
1, 125280, Note_on_c, 0, 48, 0
1, 125280, Note_on_c, 0, 62, 0
1, 125280, Note_on_c, 0, 65, 34
1, 125280, Note_on_c, 0, 59, 45
1, 125280, Note_on_c, 0, 47, 37
1, 125289, Control_c, 0, 64, 0
1, 125300, Tempo, 637891
1, 125320, Tempo, 634249
1, 125340, Tempo, 630782
1, 125340, Note_on_c, 0, 62, 29
1, 125360, Tempo, 641437
1, 125360, Note_on_c, 0, 65, 0
1, 125380, Tempo, 645092
1, 125400, Tempo, 652600
1, 125400, Note_on_c, 0, 59, 0
1, 125400, Note_on_c, 0, 47, 0
1, 125400, Note_on_c, 0, 65, 34
1, 125420, Tempo, 648929
1, 125420, Note_on_c, 0, 62, 0
1, 125440, Tempo, 645092
1, 125460, Tempo, 641437
1, 125460, Note_on_c, 0, 62, 29
1, 125480, Tempo, 634249
1, 125480, Note_on_c, 0, 65, 0
1, 125500, Tempo, 630782
1, 125520, Tempo, 634249
1, 125520, Note_on_c, 0, 65, 33
1, 125520, Note_on_c, 0, 44, 36
1, 125520, Note_on_c, 0, 56, 43
1, 125540, Tempo, 641437
1, 125540, Note_on_c, 0, 62, 0
1, 125560, Tempo, 645092
1, 125580, Note_on_c, 0, 62, 29
1, 125600, Note_on_c, 0, 65, 0
1, 125620, Tempo, 648929
1, 125640, Note_on_c, 0, 56, 0
1, 125640, Note_on_c, 0, 44, 0
1, 125640, Note_on_c, 0, 65, 34
1, 125660, Note_on_c, 0, 62, 0
1, 125680, Tempo, 645092
1, 125700, Note_on_c, 0, 62, 29
1, 125720, Tempo, 645092
1, 125720, Note_on_c, 0, 65, 0
1, 125740, Tempo, 634249
1, 125760, Time_signature, 4, 2, 24, 8
1, 125760, Note_on_c, 0, 64, 36
1, 125760, Note_on_c, 0, 45, 52
1, 125780, Tempo, 637891
1, 125780, Note_on_c, 0, 62, 0
1, 125789, Control_c, 0, 64, 127
1, 125800, Tempo, 641437
1, 125820, Tempo, 648929
1, 125820, Note_on_c, 0, 61, 32
1, 125840, Tempo, 641437
1, 125840, Note_on_c, 0, 64, 0
1, 125860, Tempo, 634249
1, 125880, Tempo, 630782
1, 125880, Note_on_c, 0, 64, 37
1, 125900, Tempo, 627090
1, 125900, Note_on_c, 0, 61, 0
1, 125920, Tempo, 637891
1, 125940, Tempo, 645092
1, 125940, Note_on_c, 0, 61, 32
1, 125960, Tempo, 648929
1, 125960, Note_on_c, 0, 64, 0
1, 126000, Tempo, 645092
1, 126000, Note_on_c, 0, 64, 36
1, 126020, Tempo, 637891
1, 126020, Note_on_c, 0, 61, 0
1, 126060, Tempo, 627090
1, 126060, Note_on_c, 0, 61, 33
1, 126080, Tempo, 630782
1, 126080, Note_on_c, 0, 64, 0
1, 126100, Tempo, 634249
1, 126120, Tempo, 637891
1, 126120, Note_on_c, 0, 64, 38
1, 126140, Note_on_c, 0, 61, 0
1, 126160, Tempo, 641437
1, 126180, Note_on_c, 0, 61, 33
1, 126200, Note_on_c, 0, 64, 0
1, 126220, Tempo, 637891
1, 126240, Tempo, 623765
1, 126240, Note_on_c, 0, 61, 0
1, 126240, Note_on_c, 0, 63, 39
1, 126251, Control_c, 0, 64, 0
1, 126300, Tempo, 634249
1, 126300, Note_on_c, 0, 59, 34
1, 126300, Control_c, 0, 64, 127
1, 126320, Tempo, 637891
1, 126320, Note_on_c, 0, 63, 0
1, 126340, Tempo, 641437
1, 126360, Tempo, 645092
1, 126360, Note_on_c, 0, 63, 39
1, 126380, Tempo, 641437
1, 126380, Note_on_c, 0, 59, 0
1, 126400, Tempo, 637891
1, 126420, Tempo, 634249
1, 126420, Note_on_c, 0, 59, 34
1, 126440, Tempo, 630782
1, 126440, Note_on_c, 0, 63, 0
1, 126460, Tempo, 623765
1, 126480, Tempo, 620283
1, 126480, Note_on_c, 0, 63, 39
1, 126500, Note_on_c, 0, 59, 0
1, 126520, Tempo, 623765
1, 126540, Tempo, 630782
1, 126540, Note_on_c, 0, 59, 35
1, 126560, Tempo, 634249
1, 126560, Note_on_c, 0, 63, 0
1, 126600, Note_on_c, 0, 63, 40
1, 126620, Note_on_c, 0, 59, 0
1, 126660, Tempo, 630782
1, 126660, Note_on_c, 0, 59, 35
1, 126680, Tempo, 623765
1, 126680, Note_on_c, 0, 63, 0
1, 126720, Tempo, 623765
1, 126720, Note_on_c, 0, 59, 0
1, 126720, Note_on_c, 0, 45, 0
1, 126720, Note_on_c, 0, 62, 41
1, 126720, Note_on_c, 0, 40, 61
1, 126729, Control_c, 0, 64, 0
1, 126740, Tempo, 623765
1, 126763, Control_c, 0, 64, 127
1, 126780, Note_on_c, 0, 58, 36
1, 126800, Tempo, 620283
1, 126800, Note_on_c, 0, 62, 0
1, 126840, Note_on_c, 0, 62, 41
1, 126860, Note_on_c, 0, 58, 0
1, 126880, Tempo, 630782
1, 126900, Tempo, 634249
1, 126900, Note_on_c, 0, 58, 36
1, 126920, Note_on_c, 0, 62, 0
1, 126960, Tempo, 627090
1, 126960, Note_on_c, 0, 62, 41
1, 126980, Note_on_c, 0, 58, 0
1, 127000, Tempo, 620283
1, 127020, Tempo, 616903
1, 127020, Note_on_c, 0, 58, 36
1, 127040, Note_on_c, 0, 62, 0
1, 127060, Tempo, 620283
1, 127080, Tempo, 627090
1, 127080, Note_on_c, 0, 62, 42
1, 127100, Tempo, 634249
1, 127100, Note_on_c, 0, 58, 0
1, 127120, Tempo, 637891
1, 127140, Tempo, 641437
1, 127140, Note_on_c, 0, 58, 36
1, 127160, Tempo, 637891
1, 127160, Note_on_c, 0, 62, 0
1, 127180, Tempo, 627090
1, 127200, Note_on_c, 0, 58, 0
1, 127200, Note_on_c, 0, 60, 43
1, 127216, Control_c, 0, 64, 0
1, 127220, Tempo, 623765
1, 127240, Tempo, 620283
1, 127252, Control_c, 0, 64, 127
1, 127260, Note_on_c, 0, 57, 37
1, 127280, Note_on_c, 0, 60, 0
1, 127300, Tempo, 623765
1, 127320, Tempo, 630782
1, 127320, Note_on_c, 0, 60, 44
1, 127340, Tempo, 637891
1, 127340, Note_on_c, 0, 57, 0
1, 127380, Tempo, 645092
1, 127380, Note_on_c, 0, 57, 37
1, 127400, Note_on_c, 0, 60, 0
1, 127420, Tempo, 641437
1, 127440, Tempo, 637891
1, 127440, Note_on_c, 0, 60, 43
1, 127460, Tempo, 634249
1, 127460, Note_on_c, 0, 57, 0
1, 127480, Tempo, 627090
1, 127500, Tempo, 623765
1, 127500, Note_on_c, 0, 57, 38
1, 127520, Note_on_c, 0, 60, 0
1, 127560, Tempo, 630782
1, 127560, Note_on_c, 0, 60, 45
1, 127580, Tempo, 641437
1, 127580, Note_on_c, 0, 57, 0
1, 127600, Tempo, 648929
1, 127620, Note_on_c, 0, 57, 38
1, 127640, Note_on_c, 0, 60, 0
1, 127660, Tempo, 648929
1, 127680, Tempo, 645092
1, 127680, Note_on_c, 0, 57, 0
1, 127680, Note_on_c, 0, 40, 0
1, 127680, Note_on_c, 0, 59, 45
1, 127680, Note_on_c, 0, 33, 69
1, 127694, Control_c, 0, 64, 0
1, 127700, Tempo, 637891
1, 127723, Control_c, 0, 64, 127
1, 127740, Note_on_c, 0, 56, 39
1, 127760, Note_on_c, 0, 59, 0
1, 127780, Tempo, 645092
1, 127800, Tempo, 648929
1, 127800, Note_on_c, 0, 59, 45
1, 127820, Note_on_c, 0, 56, 0
1, 127860, Tempo, 637891
1, 127860, Note_on_c, 0, 56, 39
1, 127880, Tempo, 634249
1, 127880, Note_on_c, 0, 59, 0
1, 127900, Tempo, 630782
1, 127920, Note_on_c, 0, 59, 45
1, 127940, Tempo, 637891
1, 127940, Note_on_c, 0, 56, 0
1, 127960, Tempo, 641437
1, 127980, Note_on_c, 0, 56, 40
1, 128000, Tempo, 645092
1, 128000, Note_on_c, 0, 59, 0
1, 128020, Tempo, 648929
1, 128040, Tempo, 645092
1, 128040, Note_on_c, 0, 59, 46
1, 128060, Tempo, 641437
1, 128060, Note_on_c, 0, 56, 0
1, 128080, Tempo, 637891
1, 128100, Tempo, 630782
1, 128100, Note_on_c, 0, 56, 41
1, 128120, Tempo, 627090
1, 128120, Note_on_c, 0, 59, 0
1, 128160, Tempo, 623765
1, 128160, Note_on_c, 0, 56, 0
1, 128160, Note_on_c, 0, 58, 47
1, 128172, Control_c, 0, 64, 0
1, 128180, Tempo, 634249
1, 128200, Tempo, 641437
1, 128200, Control_c, 0, 64, 127
1, 128220, Tempo, 645092
1, 128220, Note_on_c, 0, 55, 41
1, 128240, Note_on_c, 0, 58, 0
1, 128280, Note_on_c, 0, 58, 47
1, 128300, Tempo, 641437
1, 128300, Note_on_c, 0, 55, 0
1, 128320, Tempo, 637891
1, 128340, Tempo, 634249
1, 128340, Note_on_c, 0, 55, 42
1, 128360, Tempo, 630782
1, 128360, Note_on_c, 0, 58, 0
1, 128380, Tempo, 627090
1, 128400, Tempo, 623765
1, 128400, Note_on_c, 0, 58, 46
1, 128420, Note_on_c, 0, 55, 0
1, 128440, Tempo, 627090
1, 128460, Note_on_c, 0, 55, 42
1, 128480, Tempo, 637891
1, 128480, Note_on_c, 0, 58, 0
1, 128500, Tempo, 645092
1, 128520, Note_on_c, 0, 58, 49
1, 128540, Tempo, 641437
1, 128540, Note_on_c, 0, 55, 0
1, 128560, Tempo, 637891
1, 128580, Tempo, 634249
1, 128580, Note_on_c, 0, 55, 43
1, 128600, Tempo, 627090
1, 128600, Note_on_c, 0, 58, 0
1, 128640, Tempo, 623765
1, 128640, Note_on_c, 0, 55, 0
1, 128640, Note_on_c, 0, 57, 49
1, 128652, Control_c, 0, 64, 0
1, 128660, Tempo, 620283
1, 128695, Control_c, 0, 64, 127
1, 128700, Note_on_c, 0, 53, 43
1, 128720, Tempo, 623765
1, 128720, Note_on_c, 0, 57, 0
1, 128740, Tempo, 630782
1, 128760, Note_on_c, 0, 57, 50
1, 128780, Tempo, 634249
1, 128780, Note_on_c, 0, 53, 0
1, 128800, Tempo, 637891
1, 128820, Note_on_c, 0, 53, 44
1, 128840, Note_on_c, 0, 57, 0
1, 128880, Tempo, 627090
1, 128880, Note_on_c, 0, 57, 49
1, 128900, Tempo, 623765
1, 128900, Note_on_c, 0, 53, 0
1, 128940, Note_on_c, 0, 53, 44
1, 128960, Tempo, 620283
1, 128960, Note_on_c, 0, 57, 0
1, 128980, Tempo, 627090
1, 129000, Tempo, 630782
1, 129000, Note_on_c, 0, 57, 51
1, 129020, Note_on_c, 0, 53, 0
1, 129060, Note_on_c, 0, 53, 45
1, 129080, Tempo, 627090
1, 129080, Note_on_c, 0, 57, 0
1, 129120, Tempo, 630782
1, 129120, Note_on_c, 0, 53, 0
1, 129120, Note_on_c, 0, 56, 52
1, 129139, Control_c, 0, 64, 0
1, 129160, Tempo, 627090
1, 129172, Control_c, 0, 64, 127
1, 129180, Note_on_c, 0, 52, 45
1, 129200, Tempo, 634249
1, 129200, Note_on_c, 0, 56, 0
1, 129240, Tempo, 630782
1, 129240, Note_on_c, 0, 56, 52
1, 129260, Tempo, 620283
1, 129260, Note_on_c, 0, 52, 0
1, 129280, Tempo, 616903
1, 129300, Tempo, 613622
1, 129300, Note_on_c, 0, 52, 45
1, 129320, Tempo, 627090
1, 129320, Note_on_c, 0, 56, 0
1, 129340, Tempo, 637891
1, 129360, Tempo, 634249
1, 129360, Note_on_c, 0, 56, 51
1, 129380, Tempo, 630782
1, 129380, Note_on_c, 0, 52, 0
1, 129400, Tempo, 627090
1, 129420, Tempo, 616903
1, 129420, Note_on_c, 0, 52, 45
1, 129440, Tempo, 623765
1, 129440, Note_on_c, 0, 56, 0
1, 129460, Tempo, 637891
1, 129480, Note_on_c, 0, 56, 53
1, 129500, Tempo, 634249
1, 129500, Note_on_c, 0, 52, 0
1, 129520, Tempo, 630782
1, 129540, Tempo, 627090
1, 129540, Note_on_c, 0, 52, 46
1, 129560, Note_on_c, 0, 56, 0
1, 129580, Tempo, 620283
1, 129600, Tempo, 616903
1, 129600, Note_on_c, 0, 52, 0
1, 129600, Note_on_c, 0, 33, 0
1, 129600, Note_on_c, 0, 55, 51
1, 129600, Note_on_c, 0, 31, 71
1, 129610, Control_c, 0, 64, 0
1, 129640, Tempo, 613622
1, 129640, Control_c, 0, 64, 127
1, 129660, Tempo, 627090
1, 129660, Note_on_c, 0, 51, 45
1, 129680, Tempo, 637891
1, 129680, Note_on_c, 0, 55, 0
1, 129700, Tempo, 634249
1, 129720, Tempo, 630782
1, 129720, Note_on_c, 0, 55, 49
1, 129740, Tempo, 616903
1, 129740, Note_on_c, 0, 51, 0
1, 129780, Tempo, 620283
1, 129780, Note_on_c, 0, 51, 44
1, 129800, Tempo, 627090
1, 129800, Note_on_c, 0, 55, 0
1, 129840, Note_on_c, 0, 55, 47
1, 129860, Note_on_c, 0, 51, 0
1, 129880, Tempo, 630782
1, 129900, Note_on_c, 0, 51, 43
1, 129920, Note_on_c, 0, 55, 0
1, 129960, Note_on_c, 0, 55, 46
1, 129980, Note_on_c, 0, 51, 0
1, 130020, Note_on_c, 0, 51, 42
1, 130040, Tempo, 627090
1, 130040, Note_on_c, 0, 55, 0
1, 130080, Tempo, 627090
1, 130080, Note_on_c, 0, 51, 0
1, 130080, Note_on_c, 0, 54, 47
1, 130094, Control_c, 0, 64, 0
1, 130100, Tempo, 623765
1, 130126, Control_c, 0, 64, 127
1, 130140, Note_on_c, 0, 50, 41
1, 130160, Tempo, 627090
1, 130160, Note_on_c, 0, 54, 0
1, 130200, Tempo, 630782
1, 130200, Note_on_c, 0, 54, 45
1, 130220, Tempo, 627090
1, 130220, Note_on_c, 0, 50, 0
1, 130240, Tempo, 620283
1, 130260, Note_on_c, 0, 50, 40
1, 130280, Tempo, 623765
1, 130280, Note_on_c, 0, 54, 0
1, 130300, Tempo, 634249
1, 130320, Tempo, 641437
1, 130320, Note_on_c, 0, 54, 43
1, 130340, Tempo, 630782
1, 130340, Note_on_c, 0, 50, 0
1, 130360, Tempo, 623765
1, 130380, Tempo, 616903
1, 130380, Note_on_c, 0, 50, 39
1, 130400, Tempo, 620283
1, 130400, Note_on_c, 0, 54, 0
1, 130420, Tempo, 623765
1, 130440, Tempo, 630782
1, 130440, Note_on_c, 0, 54, 42
1, 130460, Note_on_c, 0, 50, 0
1, 130500, Tempo, 627090
1, 130500, Note_on_c, 0, 50, 38
1, 130520, Tempo, 630782
1, 130520, Note_on_c, 0, 54, 0
1, 130540, Tempo, 630782
1, 130560, Note_on_c, 0, 50, 0
1, 130560, Note_on_c, 0, 53, 43
1, 130577, Control_c, 0, 64, 0
1, 130620, Note_on_c, 0, 49, 37
1, 130623, Control_c, 0, 64, 127
1, 130640, Note_on_c, 0, 53, 0
1, 130680, Tempo, 627090
1, 130680, Note_on_c, 0, 53, 41
1, 130700, Tempo, 623765
1, 130700, Note_on_c, 0, 49, 0
1, 130740, Tempo, 620283
1, 130740, Note_on_c, 0, 49, 36
1, 130760, Tempo, 627090
1, 130760, Note_on_c, 0, 53, 0
1, 130780, Tempo, 630782
1, 130800, Tempo, 637891
1, 130800, Note_on_c, 0, 53, 39
1, 130820, Note_on_c, 0, 49, 0
1, 130840, Tempo, 634249
1, 130860, Tempo, 630782
1, 130860, Note_on_c, 0, 49, 36
1, 130880, Tempo, 627090
1, 130880, Note_on_c, 0, 53, 0
1, 130920, Tempo, 637891
1, 130920, Note_on_c, 0, 53, 38
1, 130940, Note_on_c, 0, 49, 0
1, 130980, Note_on_c, 0, 49, 35
1, 131000, Tempo, 634249
1, 131000, Note_on_c, 0, 53, 0
1, 131040, Tempo, 634249
1, 131040, Note_on_c, 0, 49, 0
1, 131040, Note_on_c, 0, 52, 38
1, 131055, Control_c, 0, 64, 0
1, 131060, Tempo, 630782
1, 131089, Control_c, 0, 64, 127
1, 131100, Tempo, 627090
1, 131100, Note_on_c, 0, 48, 34
1, 131120, Note_on_c, 0, 52, 0
1, 131140, Tempo, 623765
1, 131160, Note_on_c, 0, 52, 37
1, 131180, Tempo, 630782
1, 131180, Note_on_c, 0, 48, 0
1, 131220, Tempo, 641437
1, 131220, Note_on_c, 0, 48, 33
1, 131240, Note_on_c, 0, 52, 0
1, 131280, Note_on_c, 0, 52, 36
1, 131300, Tempo, 637891
1, 131300, Note_on_c, 0, 48, 0
1, 131320, Tempo, 630782
1, 131340, Tempo, 623765
1, 131340, Note_on_c, 0, 48, 32
1, 131360, Note_on_c, 0, 52, 0
1, 131380, Tempo, 630782
1, 131400, Tempo, 637891
1, 131400, Note_on_c, 0, 52, 35
1, 131420, Note_on_c, 0, 48, 0
1, 131460, Note_on_c, 0, 48, 31
1, 131480, Tempo, 637891
1, 131480, Note_on_c, 0, 52, 0
1, 131520, Tempo, 648929
1, 131520, Note_on_c, 0, 48, 0
1, 131520, Note_on_c, 0, 31, 0
1, 131520, Note_on_c, 0, 56, 32
1, 131520, Note_on_c, 0, 52, 27
1, 131532, Control_c, 0, 64, 0
1, 131540, Tempo, 645092
1, 131566, Control_c, 0, 64, 127
1, 131580, Tempo, 641437
1, 131580, Note_on_c, 0, 60, 28
1, 131600, Note_on_c, 0, 52, 0
1, 131600, Note_on_c, 0, 56, 0
1, 131640, Tempo, 652600
1, 131640, Note_on_c, 0, 52, 27
1, 131640, Note_on_c, 0, 56, 32
1, 131660, Tempo, 656312
1, 131660, Note_on_c, 0, 60, 0
1, 131680, Tempo, 652600
1, 131700, Tempo, 645092
1, 131700, Note_on_c, 0, 60, 28
1, 131720, Tempo, 637891
1, 131720, Note_on_c, 0, 56, 0
1, 131720, Note_on_c, 0, 52, 0
1, 131740, Tempo, 630782
1, 131760, Note_on_c, 0, 56, 33
1, 131760, Note_on_c, 0, 52, 27
1, 131780, Note_on_c, 0, 60, 0
1, 131800, Tempo, 641437
1, 131820, Tempo, 645092
1, 131820, Note_on_c, 0, 60, 28
1, 131840, Note_on_c, 0, 52, 0
1, 131840, Note_on_c, 0, 56, 0
1, 131880, Tempo, 641437
1, 131880, Note_on_c, 0, 56, 34
1, 131880, Note_on_c, 0, 52, 28
1, 131900, Tempo, 637891
1, 131900, Note_on_c, 0, 60, 0
1, 131920, Tempo, 627090
1, 131940, Tempo, 620283
1, 131940, Note_on_c, 0, 60, 29
1, 131960, Tempo, 627090
1, 131960, Note_on_c, 0, 52, 0
1, 131960, Note_on_c, 0, 56, 0
1, 131980, Tempo, 637891
1, 132000, Tempo, 641437
1, 132000, Note_on_c, 0, 60, 0
1, 132000, Note_on_c, 0, 55, 36
1, 132000, Note_on_c, 0, 51, 30
1, 132012, Control_c, 0, 64, 0
1, 132037, Control_c, 0, 64, 127
1, 132040, Tempo, 645092
1, 132060, Tempo, 641437
1, 132060, Note_on_c, 0, 59, 32
1, 132080, Tempo, 630782
1, 132080, Note_on_c, 0, 51, 0
1, 132080, Note_on_c, 0, 55, 0
1, 132100, Tempo, 627090
1, 132120, Tempo, 616903
1, 132120, Note_on_c, 0, 51, 30
1, 132120, Note_on_c, 0, 55, 36
1, 132140, Tempo, 620283
1, 132140, Note_on_c, 0, 59, 0
1, 132160, Tempo, 627090
1, 132180, Tempo, 630782
1, 132180, Note_on_c, 0, 59, 32
1, 132200, Tempo, 634249
1, 132200, Note_on_c, 0, 55, 0
1, 132200, Note_on_c, 0, 51, 0
1, 132220, Tempo, 630782
1, 132240, Tempo, 627090
1, 132240, Note_on_c, 0, 51, 33
1, 132240, Note_on_c, 0, 55, 39
1, 132260, Tempo, 620283
1, 132260, Note_on_c, 0, 59, 0
1, 132280, Tempo, 616903
1, 132300, Tempo, 613622
1, 132300, Note_on_c, 0, 59, 34
1, 132320, Note_on_c, 0, 55, 0
1, 132320, Note_on_c, 0, 51, 0
1, 132340, Tempo, 616903
1, 132360, Tempo, 623765
1, 132360, Note_on_c, 0, 55, 40
1, 132360, Note_on_c, 0, 51, 34
1, 132380, Note_on_c, 0, 59, 0
1, 132400, Tempo, 620283
1, 132420, Note_on_c, 0, 59, 34
1, 132440, Note_on_c, 0, 51, 0
1, 132440, Note_on_c, 0, 55, 0
1, 132460, Tempo, 620283
1, 132480, Note_on_c, 0, 59, 0
1, 132480, Note_on_c, 0, 50, 34
1, 132480, Note_on_c, 0, 53, 40
1, 132489, Control_c, 0, 64, 0
1, 132529, Control_c, 0, 64, 127
1, 132540, Tempo, 616903
1, 132540, Note_on_c, 0, 58, 36
1, 132560, Tempo, 613622
1, 132560, Note_on_c, 0, 53, 0
1, 132560, Note_on_c, 0, 50, 0
1, 132580, Tempo, 606919
1, 132600, Note_on_c, 0, 53, 39
1, 132600, Note_on_c, 0, 50, 33
1, 132620, Note_on_c, 0, 58, 0
1, 132640, Tempo, 613622
1, 132660, Tempo, 630782
1, 132660, Note_on_c, 0, 58, 34
1, 132680, Tempo, 637891
1, 132680, Note_on_c, 0, 50, 0
1, 132680, Note_on_c, 0, 53, 0
1, 132720, Tempo, 634249
1, 132720, Note_on_c, 0, 50, 33
1, 132720, Note_on_c, 0, 53, 39
1, 132740, Tempo, 627090
1, 132740, Note_on_c, 0, 58, 0
1, 132760, Tempo, 620283
1, 132780, Note_on_c, 0, 58, 33
1, 132800, Note_on_c, 0, 53, 0
1, 132800, Note_on_c, 0, 50, 0
1, 132820, Tempo, 637891
1, 132840, Note_on_c, 0, 50, 30
1, 132840, Note_on_c, 0, 53, 36
1, 132860, Note_on_c, 0, 58, 0
1, 132900, Note_on_c, 0, 58, 32
1, 132920, Note_on_c, 0, 53, 0
1, 132920, Note_on_c, 0, 50, 0
1, 132960, Note_on_c, 0, 58, 0
1, 132960, Note_on_c, 0, 52, 36
1, 132960, Note_on_c, 0, 48, 30
1, 132966, Control_c, 0, 64, 0
1, 132980, Tempo, 634249
1, 133003, Control_c, 0, 64, 127
1, 133020, Tempo, 630782
1, 133020, Note_on_c, 0, 57, 31
1, 133040, Tempo, 627090
1, 133040, Note_on_c, 0, 48, 0
1, 133040, Note_on_c, 0, 52, 0
1, 133060, Tempo, 623765
1, 133080, Tempo, 627090
1, 133080, Note_on_c, 0, 52, 36
1, 133080, Note_on_c, 0, 48, 30
1, 133100, Tempo, 637891
1, 133100, Note_on_c, 0, 57, 0
1, 133140, Note_on_c, 0, 57, 31
1, 133160, Note_on_c, 0, 48, 0
1, 133160, Note_on_c, 0, 52, 0
1, 133200, Note_on_c, 0, 48, 28
1, 133200, Note_on_c, 0, 52, 34
1, 133220, Note_on_c, 0, 57, 0
1, 133240, Tempo, 634249
1, 133260, Tempo, 630782
1, 133260, Note_on_c, 0, 57, 30
1, 133280, Note_on_c, 0, 52, 0
1, 133280, Note_on_c, 0, 48, 0
1, 133320, Tempo, 688468
1, 133320, Note_on_c, 0, 76, 65
1, 133320, Note_on_c, 0, 64, 65
1, 133320, Note_on_c, 0, 48, 27
1, 133320, Note_on_c, 0, 52, 33
1, 133340, Note_on_c, 0, 57, 0
1, 133380, Note_on_c, 0, 57, 28
1, 133400, Note_on_c, 0, 48, 0
1, 133400, Note_on_c, 0, 52, 0
1, 133440, Tempo, 645092
1, 133440, Note_on_c, 0, 76, 0
1, 133440, Note_on_c, 0, 64, 0
1, 133440, Note_on_c, 0, 57, 0
1, 133440, Note_on_c, 0, 88, 72
1, 133440, Note_on_c, 0, 76, 72
1, 133440, Note_on_c, 0, 52, 27
1, 133440, Note_on_c, 0, 56, 32
1, 133449, Control_c, 0, 64, 0
1, 133460, Tempo, 641437
1, 133477, Control_c, 0, 64, 127
1, 133480, Tempo, 637891
1, 133500, Tempo, 634249
1, 133500, Note_on_c, 0, 60, 28
1, 133520, Note_on_c, 0, 56, 0
1, 133520, Note_on_c, 0, 52, 0
1, 133540, Tempo, 641437
1, 133560, Tempo, 648929
1, 133560, Note_on_c, 0, 52, 27
1, 133560, Note_on_c, 0, 56, 32
1, 133580, Tempo, 652600
1, 133580, Note_on_c, 0, 60, 0
1, 133600, Tempo, 645092
1, 133620, Tempo, 634249
1, 133620, Note_on_c, 0, 60, 28
1, 133640, Note_on_c, 0, 52, 0
1, 133640, Note_on_c, 0, 56, 0
1, 133660, Tempo, 630782
1, 133680, Note_on_c, 0, 56, 33
1, 133680, Note_on_c, 0, 52, 27
1, 133700, Tempo, 652600
1, 133700, Note_on_c, 0, 60, 0
1, 133720, Tempo, 645092
1, 133740, Tempo, 634249
1, 133740, Note_on_c, 0, 60, 28
1, 133760, Note_on_c, 0, 56, 0
1, 133760, Note_on_c, 0, 52, 0
1, 133780, Tempo, 630782
1, 133800, Tempo, 634249
1, 133800, Note_on_c, 0, 52, 28
1, 133800, Note_on_c, 0, 56, 34
1, 133820, Tempo, 645092
1, 133820, Note_on_c, 0, 60, 0
1, 133840, Tempo, 648929
1, 133860, Note_on_c, 0, 60, 29
1, 133880, Tempo, 645092
1, 133880, Note_on_c, 0, 52, 0
1, 133880, Note_on_c, 0, 56, 0
1, 133900, Tempo, 641437
1, 133920, Tempo, 637891
1, 133920, Note_on_c, 0, 60, 0
1, 133920, Note_on_c, 0, 51, 30
1, 133920, Note_on_c, 0, 55, 36
1, 133933, Control_c, 0, 64, 0
1, 133940, Tempo, 634249
1, 133960, Tempo, 630782
1, 133975, Control_c, 0, 64, 127
1, 133980, Tempo, 627090
1, 133980, Note_on_c, 0, 59, 32
1, 134000, Tempo, 623765
1, 134000, Note_on_c, 0, 55, 0
1, 134000, Note_on_c, 0, 51, 0
1, 134040, Tempo, 637891
1, 134040, Note_on_c, 0, 51, 30
1, 134040, Note_on_c, 0, 55, 36
1, 134060, Tempo, 641437
1, 134060, Note_on_c, 0, 59, 0
1, 134080, Tempo, 645092
1, 134100, Note_on_c, 0, 59, 32
1, 134120, Tempo, 641437
1, 134120, Note_on_c, 0, 51, 0
1, 134120, Note_on_c, 0, 55, 0
1, 134140, Tempo, 630782
1, 134160, Tempo, 623765
1, 134160, Note_on_c, 0, 88, 0
1, 134160, Note_on_c, 0, 76, 0
1, 134160, Note_on_c, 0, 55, 39
1, 134160, Note_on_c, 0, 51, 33
1, 134180, Tempo, 616903
1, 134180, Note_on_c, 0, 59, 0
1, 134220, Tempo, 627090
1, 134220, Note_on_c, 0, 59, 34
1, 134240, Tempo, 630782
1, 134240, Note_on_c, 0, 51, 0
1, 134240, Note_on_c, 0, 55, 0
1, 134260, Tempo, 637891
1, 134280, Note_on_c, 0, 51, 34
1, 134280, Note_on_c, 0, 55, 40
1, 134300, Tempo, 630782
1, 134300, Note_on_c, 0, 59, 0
1, 134340, Tempo, 623765
1, 134340, Note_on_c, 0, 59, 34
1, 134360, Tempo, 620283
1, 134360, Note_on_c, 0, 55, 0
1, 134360, Note_on_c, 0, 51, 0
1, 134380, Tempo, 616903
1, 134400, Note_on_c, 0, 59, 0
1, 134400, Note_on_c, 0, 50, 34
1, 134400, Note_on_c, 0, 53, 40
1, 134409, Control_c, 0, 64, 0
1, 134420, Tempo, 637891
1, 134449, Control_c, 0, 64, 127
1, 134460, Note_on_c, 0, 58, 36
1, 134480, Note_on_c, 0, 53, 0
1, 134480, Note_on_c, 0, 50, 0
1, 134500, Tempo, 634249
1, 134520, Tempo, 630782
1, 134520, Note_on_c, 0, 53, 39
1, 134520, Note_on_c, 0, 50, 33
1, 134540, Tempo, 627090
1, 134540, Note_on_c, 0, 58, 0
1, 134580, Tempo, 620283
1, 134580, Note_on_c, 0, 58, 34
1, 134600, Tempo, 623765
1, 134600, Note_on_c, 0, 50, 0
1, 134600, Note_on_c, 0, 53, 0
1, 134620, Tempo, 630782
1, 134640, Tempo, 637891
1, 134640, Note_on_c, 0, 50, 33
1, 134640, Note_on_c, 0, 53, 39
1, 134660, Note_on_c, 0, 58, 0
1, 134680, Tempo, 634249
1, 134700, Note_on_c, 0, 58, 33
1, 134720, Tempo, 630782
1, 134720, Note_on_c, 0, 53, 0
1, 134720, Note_on_c, 0, 50, 0
1, 134740, Tempo, 627090
1, 134760, Tempo, 623765
1, 134760, Note_on_c, 0, 53, 36
1, 134760, Note_on_c, 0, 50, 30
1, 134780, Tempo, 620283
1, 134780, Note_on_c, 0, 58, 0
1, 134820, Tempo, 637891
1, 134820, Note_on_c, 0, 58, 32
1, 134840, Note_on_c, 0, 50, 0
1, 134840, Note_on_c, 0, 53, 0
1, 134880, Tempo, 630782
1, 134880, Note_on_c, 0, 58, 0
1, 134880, Note_on_c, 0, 48, 30
1, 134880, Note_on_c, 0, 52, 36
1, 134892, Control_c, 0, 64, 0
1, 134900, Tempo, 627090
1, 134920, Tempo, 623765
1, 134923, Control_c, 0, 64, 127
1, 134940, Tempo, 620283
1, 134940, Note_on_c, 0, 57, 31
1, 134960, Note_on_c, 0, 52, 0
1, 134960, Note_on_c, 0, 48, 0
1, 134980, Tempo, 641437
1, 135000, Note_on_c, 0, 48, 30
1, 135000, Note_on_c, 0, 52, 36
1, 135020, Tempo, 634249
1, 135020, Note_on_c, 0, 57, 0
1, 135060, Tempo, 630782
1, 135060, Note_on_c, 0, 57, 31
1, 135080, Tempo, 634249
1, 135080, Note_on_c, 0, 52, 0
1, 135080, Note_on_c, 0, 48, 0
1, 135120, Tempo, 637891
1, 135120, Note_on_c, 0, 48, 34
1, 135120, Note_on_c, 0, 52, 34
1, 135140, Note_on_c, 0, 57, 0
1, 135180, Note_on_c, 0, 57, 30
1, 135200, Note_on_c, 0, 52, 0
1, 135200, Note_on_c, 0, 48, 0
1, 135240, Tempo, 696783
1, 135240, Note_on_c, 0, 76, 65
1, 135240, Note_on_c, 0, 64, 65
1, 135240, Note_on_c, 0, 52, 33
1, 135240, Note_on_c, 0, 48, 27
1, 135260, Note_on_c, 0, 57, 0
1, 135300, Note_on_c, 0, 57, 28
1, 135320, Note_on_c, 0, 52, 0
1, 135320, Note_on_c, 0, 48, 0
1, 135360, Tempo, 637891
1, 135360, Note_on_c, 0, 76, 0
1, 135360, Note_on_c, 0, 64, 0
1, 135360, Note_on_c, 0, 57, 0
1, 135360, Note_on_c, 0, 88, 72
1, 135360, Note_on_c, 0, 76, 72
1, 135360, Note_on_c, 0, 40, 30
1, 135360, Note_on_c, 0, 44, 36
1, 135370, Control_c, 0, 64, 0
1, 135397, Control_c, 0, 64, 127
1, 135400, Tempo, 634249
1, 135420, Tempo, 630782
1, 135420, Note_on_c, 0, 48, 29
1, 135440, Tempo, 627090
1, 135440, Note_on_c, 0, 44, 0
1, 135440, Note_on_c, 0, 40, 0
1, 135480, Tempo, 630782
1, 135480, Note_on_c, 0, 40, 30
1, 135480, Note_on_c, 0, 44, 36
1, 135500, Tempo, 645092
1, 135500, Note_on_c, 0, 48, 0
1, 135540, Tempo, 641437
1, 135540, Note_on_c, 0, 48, 30
1, 135560, Tempo, 637891
1, 135560, Note_on_c, 0, 40, 0
1, 135560, Note_on_c, 0, 44, 0
1, 135580, Tempo, 627090
1, 135600, Note_on_c, 0, 44, 36
1, 135600, Note_on_c, 0, 40, 30
1, 135620, Note_on_c, 0, 48, 0
1, 135640, Tempo, 637891
1, 135660, Tempo, 648929
1, 135660, Note_on_c, 0, 48, 30
1, 135680, Tempo, 645092
1, 135680, Note_on_c, 0, 44, 0
1, 135680, Note_on_c, 0, 40, 0
1, 135700, Tempo, 637891
1, 135720, Tempo, 634249
1, 135720, Note_on_c, 0, 40, 30
1, 135720, Note_on_c, 0, 44, 36
1, 135740, Tempo, 630782
1, 135740, Note_on_c, 0, 48, 0
1, 135760, Tempo, 623765
1, 135780, Tempo, 645092
1, 135780, Note_on_c, 0, 48, 30
1, 135800, Note_on_c, 0, 40, 0
1, 135800, Note_on_c, 0, 44, 0
1, 135840, Tempo, 641437
1, 135840, Note_on_c, 0, 48, 0
1, 135840, Note_on_c, 0, 43, 34
1, 135840, Note_on_c, 0, 39, 28
1, 135849, Control_c, 0, 64, 0
1, 135860, Tempo, 634249
1, 135880, Tempo, 627090
1, 135883, Control_c, 0, 64, 127
1, 135900, Note_on_c, 0, 47, 28
1, 135920, Tempo, 630782
1, 135920, Note_on_c, 0, 39, 0
1, 135920, Note_on_c, 0, 43, 0
1, 135940, Tempo, 637891
1, 135960, Tempo, 645092
1, 135960, Note_on_c, 0, 39, 28
1, 135960, Note_on_c, 0, 43, 34
1, 135980, Note_on_c, 0, 47, 0
1, 136020, Tempo, 637891
1, 136020, Note_on_c, 0, 47, 28
1, 136040, Tempo, 630782
1, 136040, Note_on_c, 0, 39, 0
1, 136040, Note_on_c, 0, 43, 0
1, 136060, Tempo, 627090
1, 136080, Tempo, 637891
1, 136080, Note_on_c, 0, 88, 0
1, 136080, Note_on_c, 0, 76, 0
1, 136080, Note_on_c, 0, 39, 28
1, 136080, Note_on_c, 0, 43, 34
1, 136100, Tempo, 641437
1, 136100, Note_on_c, 0, 47, 0
1, 136120, Tempo, 648929
1, 136140, Note_on_c, 0, 47, 27
1, 136160, Note_on_c, 0, 43, 0
1, 136160, Note_on_c, 0, 39, 0
1, 136200, Tempo, 637891
1, 136200, Note_on_c, 0, 39, 28
1, 136200, Note_on_c, 0, 43, 34
1, 136220, Tempo, 630782
1, 136220, Note_on_c, 0, 47, 0
1, 136260, Note_on_c, 0, 47, 27
1, 136280, Note_on_c, 0, 43, 0
1, 136280, Note_on_c, 0, 39, 0
1, 136300, Tempo, 634249
1, 136320, Note_on_c, 0, 47, 0
1, 136320, Note_on_c, 0, 41, 30
1, 136320, Note_on_c, 0, 38, 25
1, 136332, Control_c, 0, 64, 0
1, 136366, Control_c, 0, 64, 127
1, 136380, Note_on_c, 0, 46, 21
1, 136400, Note_on_c, 0, 38, 0
1, 136400, Note_on_c, 0, 41, 0
1, 136440, Tempo, 630782
1, 136440, Note_on_c, 0, 41, 30
1, 136440, Note_on_c, 0, 38, 25
1, 136460, Tempo, 627090
1, 136460, Note_on_c, 0, 46, 0
1, 136480, Tempo, 645092
1, 136500, Note_on_c, 0, 46, 19
1, 136520, Tempo, 641437
1, 136520, Note_on_c, 0, 38, 0
1, 136520, Note_on_c, 0, 41, 0
1, 136540, Tempo, 634249
1, 136560, Tempo, 627090
1, 136560, Note_on_c, 0, 38, 25
1, 136560, Note_on_c, 0, 41, 29
1, 136580, Note_on_c, 0, 46, 0
1, 136600, Tempo, 648929
1, 136620, Note_on_c, 0, 46, 18
1, 136640, Note_on_c, 0, 41, 0
1, 136640, Note_on_c, 0, 38, 0
1, 136680, Note_on_c, 0, 41, 29
1, 136680, Note_on_c, 0, 38, 25
1, 136700, Tempo, 641437
1, 136700, Note_on_c, 0, 46, 0
1, 136720, Tempo, 637891
1, 136740, Tempo, 634249
1, 136740, Note_on_c, 0, 46, 17
1, 136760, Tempo, 630782
1, 136760, Note_on_c, 0, 38, 0
1, 136760, Note_on_c, 0, 41, 0
1, 136780, Tempo, 652600
1, 136800, Note_on_c, 0, 46, 0
1, 136800, Note_on_c, 0, 36, 24
1, 136800, Note_on_c, 0, 40, 28
1, 136809, Control_c, 0, 64, 0
1, 136837, Control_c, 0, 64, 127
1, 136840, Tempo, 648929
1, 136860, Tempo, 645092
1, 136860, Note_on_c, 0, 45, 16
1, 136880, Tempo, 641437
1, 136880, Note_on_c, 0, 40, 0
1, 136880, Note_on_c, 0, 36, 0
1, 136900, Tempo, 637891
1, 136920, Note_on_c, 0, 40, 27
1, 136920, Note_on_c, 0, 36, 23
1, 136940, Tempo, 648929
1, 136940, Note_on_c, 0, 45, 0
1, 136960, Tempo, 656312
1, 136980, Note_on_c, 0, 45, 16
1, 137000, Tempo, 660284
1, 137000, Note_on_c, 0, 36, 0
1, 137000, Note_on_c, 0, 40, 0
1, 137040, Tempo, 656312
1, 137040, Note_on_c, 0, 40, 27
1, 137040, Note_on_c, 0, 36, 23
1, 137060, Tempo, 652600
1, 137060, Note_on_c, 0, 45, 0
1, 137080, Tempo, 648929
1, 137100, Tempo, 645092
1, 137100, Note_on_c, 0, 45, 16
1, 137120, Tempo, 652600
1, 137120, Note_on_c, 0, 36, 0
1, 137120, Note_on_c, 0, 40, 0
1, 137140, Tempo, 660284
1, 137160, Note_on_c, 0, 36, 22
1, 137160, Note_on_c, 0, 40, 27
1, 137180, Note_on_c, 0, 45, 0
1, 137220, Note_on_c, 0, 45, 16
1, 137240, Note_on_c, 0, 40, 0
1, 137240, Note_on_c, 0, 36, 0
1, 137280, Tempo, 652600
1, 137280, Note_on_c, 0, 45, 0
1, 137280, Note_on_c, 0, 35, 23
1, 137280, Note_on_c, 0, 39, 27
1, 137292, Control_c, 0, 64, 0
1, 137300, Tempo, 645092
1, 137317, Control_c, 0, 64, 127
1, 137320, Tempo, 641437
1, 137340, Tempo, 645092
1, 137340, Note_on_c, 0, 43, 15
1, 137360, Tempo, 652600
1, 137360, Note_on_c, 0, 39, 0
1, 137360, Note_on_c, 0, 35, 0
1, 137380, Tempo, 664084
1, 137400, Note_on_c, 0, 35, 22
1, 137400, Note_on_c, 0, 39, 27
1, 137420, Tempo, 660284
1, 137420, Note_on_c, 0, 43, 0
1, 137460, Tempo, 652600
1, 137460, Note_on_c, 0, 43, 15
1, 137480, Tempo, 645092
1, 137480, Note_on_c, 0, 39, 0
1, 137480, Note_on_c, 0, 35, 0
1, 137500, Tempo, 660284
1, 137520, Note_on_c, 0, 43, 0
1, 137520, Note_on_c, 0, 35, 22
1, 137520, Note_on_c, 0, 39, 27
1, 137540, Tempo, 664084
1, 137560, Tempo, 648929
1, 137580, Tempo, 641437
1, 137580, Note_on_c, 0, 43, 15
1, 137600, Note_on_c, 0, 39, 0
1, 137600, Note_on_c, 0, 35, 0
1, 137620, Tempo, 660284
1, 137640, Tempo, 675980
1, 137640, Note_on_c, 0, 39, 27
1, 137640, Note_on_c, 0, 35, 22
1, 137660, Note_on_c, 0, 43, 0
1, 137680, Tempo, 672043
1, 137700, Tempo, 668077
1, 137700, Note_on_c, 0, 43, 14
1, 137720, Tempo, 648929
1, 137720, Note_on_c, 0, 35, 0
1, 137720, Note_on_c, 0, 39, 0
1, 137740, Tempo, 641437
1, 137760, Note_on_c, 0, 43, 0
1, 137760, Note_on_c, 0, 39, 26
1, 137760, Note_on_c, 0, 35, 21
1, 137764, Tempo, 655738
1, 137780, Tempo, 652174
1, 137792, Tempo, 648649
1, 137820, Note_on_c, 0, 43, 15
1, 137832, Tempo, 655738
1, 137840, Note_on_c, 0, 35, 0
1, 137840, Note_on_c, 0, 39, 0
1, 137844, Tempo, 666667
1, 137860, Tempo, 662983
1, 137872, Tempo, 652174
1, 137880, Note_on_c, 0, 35, 21
1, 137880, Note_on_c, 0, 39, 26
1, 137900, Tempo, 648649
1, 137900, Note_on_c, 0, 43, 0
1, 137924, Tempo, 655738
1, 137940, Tempo, 659341
1, 137940, Note_on_c, 0, 43, 15
1, 137952, Tempo, 666667
1, 137960, Note_on_c, 0, 39, 0
1, 137960, Note_on_c, 0, 35, 0
1, 137964, Tempo, 659341
1, 137980, Tempo, 655738
1, 137992, Tempo, 652174
1, 138000, Note_on_c, 0, 39, 26
1, 138000, Note_on_c, 0, 35, 21
1, 138004, Tempo, 648649
1, 138020, Tempo, 655738
1, 138020, Note_on_c, 0, 43, 0
1, 138032, Tempo, 662983
1, 138060, Tempo, 674157
1, 138060, Note_on_c, 0, 43, 15
1, 138072, Tempo, 666667
1, 138080, Note_on_c, 0, 35, 0
1, 138080, Note_on_c, 0, 39, 0
1, 138084, Tempo, 662983
1, 138100, Tempo, 659341
1, 138112, Tempo, 652174
1, 138120, Note_on_c, 0, 39, 26
1, 138120, Note_on_c, 0, 35, 21
1, 138124, Tempo, 648649
1, 138140, Tempo, 652174
1, 138140, Note_on_c, 0, 43, 0
1, 138152, Tempo, 659341
1, 138164, Tempo, 662983
1, 138180, Tempo, 674157
1, 138180, Note_on_c, 0, 43, 14
1, 138200, Note_on_c, 0, 35, 0
1, 138200, Note_on_c, 0, 39, 0
1, 138204, Tempo, 666667
1, 138220, Tempo, 662983
1, 138232, Tempo, 659341
1, 138240, Note_on_c, 0, 43, 0
1, 138240, Note_on_c, 0, 39, 26
1, 138240, Note_on_c, 0, 35, 21
1, 138244, Tempo, 655738
1, 138284, Tempo, 662983
1, 138300, Tempo, 670391
1, 138300, Note_on_c, 0, 43, 15
1, 138320, Note_on_c, 0, 35, 0
1, 138320, Note_on_c, 0, 39, 0
1, 138324, Tempo, 674157
1, 138352, Tempo, 666667
1, 138360, Note_on_c, 0, 35, 20
1, 138360, Note_on_c, 0, 39, 25
1, 138364, Tempo, 662983
1, 138380, Tempo, 655738
1, 138380, Note_on_c, 0, 43, 0
1, 138392, Tempo, 652174
1, 138404, Tempo, 655738
1, 138420, Note_on_c, 0, 43, 15
1, 138432, Tempo, 659341
1, 138440, Note_on_c, 0, 39, 0
1, 138440, Note_on_c, 0, 35, 0
1, 138444, Tempo, 666667
1, 138460, Tempo, 670391
1, 138480, Note_on_c, 0, 35, 20
1, 138480, Note_on_c, 0, 39, 25
1, 138484, Tempo, 674157
1, 138500, Tempo, 670391
1, 138500, Note_on_c, 0, 43, 0
1, 138512, Tempo, 666667
1, 138524, Tempo, 662983
1, 138540, Tempo, 659341
1, 138540, Note_on_c, 0, 43, 15
1, 138552, Tempo, 655738
1, 138560, Note_on_c, 0, 39, 0
1, 138560, Note_on_c, 0, 35, 0
1, 138580, Tempo, 662983
1, 138592, Tempo, 666667
1, 138600, Note_on_c, 0, 35, 19
1, 138600, Note_on_c, 0, 39, 24
1, 138604, Tempo, 674157
1, 138620, Note_on_c, 0, 43, 0
1, 138660, Tempo, 662983
1, 138660, Note_on_c, 0, 43, 14
1, 138672, Tempo, 659341
1, 138680, Note_on_c, 0, 39, 0
1, 138680, Note_on_c, 0, 35, 0
1, 138700, Tempo, 655738
1, 138712, Tempo, 662983
1, 138720, Tempo, 2000000
1, 138720, Note_on_c, 0, 43, 0
1, 138720, Note_on_c, 0, 35, 21
1, 138720, Note_on_c, 0, 39, 26
1, 139200, Time_signature, 2, 2, 24, 8
1, 139200, Tempo, 352941
1, 139200, Marker_t, "Allegro molto"
1, 139200, Note_on_c, 0, 39, 0
1, 139200, Note_on_c, 0, 35, 0
1, 139200, Note_on_c, 0, 55, 86
1, 139200, Note_on_c, 0, 43, 68
1, 139200, Note_on_c, 0, 31, 57
1, 139200, Control_c, 0, 64, 0
1, 139680, Note_on_c, 0, 31, 0
1, 139680, Note_on_c, 0, 43, 0
1, 139680, Note_on_c, 0, 55, 0
1, 141120, Note_on_c, 0, 55, 86
1, 141120, Note_on_c, 0, 31, 57
1, 141120, Note_on_c, 0, 43, 68
1, 141600, Note_on_c, 0, 43, 0
1, 141600, Note_on_c, 0, 31, 0
1, 141600, Note_on_c, 0, 55, 0
1, 141600, Note_on_c, 0, 55, 82
1, 141600, Note_on_c, 0, 43, 65
1, 141600, Note_on_c, 0, 31, 55
1, 142080, Note_on_c, 0, 31, 0
1, 142080, Note_on_c, 0, 43, 0
1, 142080, Note_on_c, 0, 55, 0
1, 143040, Tempo, 352941
1, 143040, Note_on_c, 0, 55, 86
1, 143040, Note_on_c, 0, 43, 68
1, 143040, Note_on_c, 0, 31, 57
1, 143520, Note_on_c, 0, 31, 0
1, 143520, Note_on_c, 0, 43, 0
1, 143520, Note_on_c, 0, 55, 0
1, 143520, Note_on_c, 0, 55, 82
1, 143520, Note_on_c, 0, 31, 55
1, 143520, Note_on_c, 0, 43, 65
1, 144000, Tempo, 333333
1, 144000, Note_on_c, 0, 43, 0
1, 144000, Note_on_c, 0, 31, 0
1, 144000, Note_on_c, 0, 55, 0
1, 144000, Note_on_c, 0, 55, 95
1, 144000, Note_on_c, 0, 31, 63
1, 144000, Note_on_c, 0, 43, 75
1, 144120, Note_on_c, 0, 43, 0
1, 144240, Tempo, 321716
1, 144240, Note_on_c, 0, 56, 85
1, 144240, Note_on_c, 0, 44, 68
1, 144360, Note_on_c, 0, 44, 0
1, 144360, Note_on_c, 0, 56, 0
1, 144480, Tempo, 337079
1, 144480, Note_on_c, 0, 31, 0
1, 144480, Note_on_c, 0, 55, 0
1, 144480, Note_on_c, 0, 55, 83
1, 144480, Note_on_c, 0, 43, 66
1, 144720, Tempo, 359281
1, 144720, Note_on_c, 0, 65, 77
1, 144720, Note_on_c, 0, 53, 61
1, 144840, Note_on_c, 0, 53, 0
1, 144840, Note_on_c, 0, 65, 0
1, 144960, Tempo, 352941
1, 144960, Note_on_c, 0, 43, 0
1, 144960, Note_on_c, 0, 55, 0
1, 144960, Note_on_c, 0, 55, 85
1, 144960, Note_on_c, 0, 31, 57
1, 144960, Note_on_c, 0, 43, 68
1, 145440, Note_on_c, 0, 43, 0
1, 145440, Note_on_c, 0, 31, 0
1, 145440, Note_on_c, 0, 55, 0
1, 145440, Note_on_c, 0, 55, 83
1, 145440, Note_on_c, 0, 31, 55
1, 145440, Note_on_c, 0, 43, 66
1, 145920, Tempo, 334262
1, 145920, Note_on_c, 0, 43, 0
1, 145920, Note_on_c, 0, 31, 0
1, 145920, Note_on_c, 0, 55, 0
1, 145920, Note_on_c, 0, 55, 94
1, 145920, Note_on_c, 0, 31, 63
1, 145920, Note_on_c, 0, 43, 75
1, 146160, Tempo, 321716
1, 146160, Note_on_c, 0, 43, 0
1, 146160, Note_on_c, 0, 56, 84
1, 146160, Note_on_c, 0, 44, 66
1, 146400, Tempo, 338983
1, 146400, Note_on_c, 0, 44, 0
1, 146400, Note_on_c, 0, 55, 0
1, 146400, Note_on_c, 0, 31, 0
1, 146400, Note_on_c, 0, 56, 0
1, 146400, Note_on_c, 0, 55, 83
1, 146400, Note_on_c, 0, 43, 66
1, 146640, Tempo, 326975
1, 146640, Note_on_c, 0, 61, 77
1, 146640, Note_on_c, 0, 49, 61
1, 146760, Note_on_c, 0, 49, 0
1, 146760, Note_on_c, 0, 61, 0
1, 146880, Tempo, 353982
1, 146880, Note_on_c, 0, 43, 0
1, 146880, Note_on_c, 0, 55, 0
1, 146880, Note_on_c, 0, 55, 80
1, 146880, Note_on_c, 0, 43, 57
1, 146880, Note_on_c, 0, 31, 48
1, 147360, Note_on_c, 0, 31, 0
1, 147360, Note_on_c, 0, 43, 0
1, 147360, Note_on_c, 0, 55, 0
1, 147360, Note_on_c, 0, 55, 78
1, 147360, Note_on_c, 0, 43, 54
1, 147360, Note_on_c, 0, 31, 45
1, 147840, Note_on_c, 0, 31, 0
1, 147840, Note_on_c, 0, 43, 0
1, 147840, Note_on_c, 0, 55, 0
1, 147840, Note_on_c, 0, 55, 81
1, 147840, Note_on_c, 0, 43, 58
1, 147840, Note_on_c, 0, 31, 49
1, 148320, Note_on_c, 0, 31, 0
1, 148320, Note_on_c, 0, 43, 0
1, 148320, Note_on_c, 0, 55, 0
1, 148320, Note_on_c, 0, 55, 85
1, 148320, Note_on_c, 0, 43, 64
1, 148320, Note_on_c, 0, 31, 54
1, 148800, Tempo, 337079
1, 148800, Note_on_c, 0, 31, 0
1, 148800, Note_on_c, 0, 43, 0
1, 148800, Note_on_c, 0, 55, 0
1, 148800, Note_on_c, 0, 55, 71
1, 148800, Note_on_c, 0, 43, 56
1, 148800, Note_on_c, 0, 31, 47
1, 148920, Note_on_c, 0, 31, 0
1, 148920, Note_on_c, 0, 43, 0
1, 148920, Note_on_c, 0, 55, 0
1, 149040, Tempo, 320856
1, 149040, Note_on_c, 0, 60, 65
1, 149040, Note_on_c, 0, 36, 44
1, 149040, Note_on_c, 0, 48, 52
1, 149160, Note_on_c, 0, 48, 0
1, 149160, Note_on_c, 0, 36, 0
1, 149160, Note_on_c, 0, 60, 0
1, 149280, Tempo, 332410
1, 149280, Note_on_c, 0, 56, 84
1, 149280, Note_on_c, 0, 32, 57
1, 149280, Note_on_c, 0, 44, 67
1, 149400, Note_on_c, 0, 44, 0
1, 149400, Note_on_c, 0, 32, 0
1, 149400, Note_on_c, 0, 56, 0
1, 149520, Tempo, 324324
1, 149520, Note_on_c, 0, 61, 73
1, 149520, Note_on_c, 0, 37, 49
1, 149520, Note_on_c, 0, 49, 58
1, 149640, Note_on_c, 0, 49, 0
1, 149640, Note_on_c, 0, 37, 0
1, 149640, Note_on_c, 0, 61, 0
1, 149760, Tempo, 327869
1, 149760, Note_on_c, 0, 57, 72
1, 149760, Note_on_c, 0, 45, 57
1, 149760, Note_on_c, 0, 33, 48
1, 149880, Note_on_c, 0, 33, 0
1, 149880, Note_on_c, 0, 45, 0
1, 149880, Note_on_c, 0, 57, 0
1, 150000, Tempo, 322581
1, 150000, Note_on_c, 0, 62, 71
1, 150000, Note_on_c, 0, 50, 56
1, 150000, Note_on_c, 0, 38, 47
1, 150040, Tempo, 320856
1, 150120, Note_on_c, 0, 38, 0
1, 150120, Note_on_c, 0, 50, 0
1, 150120, Note_on_c, 0, 62, 0
1, 150240, Tempo, 338983
1, 150240, Note_on_c, 0, 58, 81
1, 150240, Note_on_c, 0, 46, 64
1, 150240, Note_on_c, 0, 34, 54
1, 150360, Note_on_c, 0, 34, 0
1, 150360, Note_on_c, 0, 46, 0
1, 150360, Note_on_c, 0, 58, 0
1, 150480, Tempo, 329670
1, 150480, Note_on_c, 0, 63, 70
1, 150480, Note_on_c, 0, 39, 46
1, 150480, Note_on_c, 0, 51, 55
1, 150600, Note_on_c, 0, 51, 0
1, 150600, Note_on_c, 0, 39, 0
1, 150600, Note_on_c, 0, 63, 0
1, 150720, Tempo, 337079
1, 150720, Note_on_c, 0, 55, 73
1, 150720, Note_on_c, 0, 31, 50
1, 150720, Note_on_c, 0, 43, 59
1, 150840, Note_on_c, 0, 43, 0
1, 150840, Note_on_c, 0, 31, 0
1, 150840, Note_on_c, 0, 55, 0
1, 150960, Tempo, 321716
1, 150960, Note_on_c, 0, 60, 68
1, 150960, Note_on_c, 0, 36, 45
1, 150960, Note_on_c, 0, 48, 54
1, 151080, Note_on_c, 0, 48, 0
1, 151080, Note_on_c, 0, 36, 0
1, 151080, Note_on_c, 0, 60, 0
1, 151200, Tempo, 334262
1, 151200, Note_on_c, 0, 56, 88
1, 151200, Note_on_c, 0, 44, 70
1, 151200, Note_on_c, 0, 32, 59
1, 151320, Note_on_c, 0, 32, 0
1, 151320, Note_on_c, 0, 44, 0
1, 151320, Note_on_c, 0, 56, 0
1, 151440, Tempo, 328767
1, 151440, Note_on_c, 0, 61, 77
1, 151440, Note_on_c, 0, 37, 51
1, 151440, Note_on_c, 0, 49, 61
1, 151560, Note_on_c, 0, 49, 0
1, 151560, Note_on_c, 0, 37, 0
1, 151560, Note_on_c, 0, 61, 0
1, 151680, Tempo, 333333
1, 151680, Note_on_c, 0, 57, 79
1, 151680, Note_on_c, 0, 33, 52
1, 151680, Note_on_c, 0, 45, 63
1, 151800, Note_on_c, 0, 45, 0
1, 151800, Note_on_c, 0, 33, 0
1, 151800, Note_on_c, 0, 57, 0
1, 151920, Tempo, 322581
1, 151920, Note_on_c, 0, 62, 74
1, 151920, Note_on_c, 0, 38, 50
1, 151920, Note_on_c, 0, 50, 59
1, 152040, Note_on_c, 0, 50, 0
1, 152040, Note_on_c, 0, 38, 0
1, 152040, Note_on_c, 0, 62, 0
1, 152160, Tempo, 337079
1, 152160, Note_on_c, 0, 58, 87
1, 152160, Note_on_c, 0, 46, 68
1, 152160, Note_on_c, 0, 34, 58
1, 152280, Note_on_c, 0, 34, 0
1, 152280, Note_on_c, 0, 46, 0
1, 152280, Note_on_c, 0, 58, 0
1, 152400, Tempo, 326087
1, 152400, Note_on_c, 0, 63, 74
1, 152400, Note_on_c, 0, 51, 59
1, 152400, Note_on_c, 0, 39, 50
1, 152520, Note_on_c, 0, 39, 0
1, 152520, Note_on_c, 0, 51, 0
1, 152520, Note_on_c, 0, 63, 0
1, 152580, Note_on_c, 0, 89, 62
1, 152640, Tempo, 322581
1, 152640, Note_on_c, 0, 89, 0
1, 152640, Note_on_c, 0, 76, 64
1, 152640, Note_on_c, 0, 84, 76
1, 152640, Note_on_c, 0, 88, 76
1, 152640, Note_on_c, 0, 31, 61
1, 152640, Note_on_c, 0, 43, 72
1, 152760, Note_on_c, 0, 43, 0
1, 152760, Note_on_c, 0, 88, 0
1, 152760, Note_on_c, 0, 76, 0
1, 152760, Note_on_c, 0, 84, 0
1, 152760, Note_on_c, 0, 31, 0
1, 152880, Tempo, 310881
1, 152880, Note_on_c, 0, 48, 66
1, 152880, Note_on_c, 0, 36, 55
1, 153000, Note_on_c, 0, 36, 0
1, 153000, Note_on_c, 0, 48, 0
1, 153060, Note_on_c, 0, 87, 60
1, 153120, Tempo, 323450
1, 153120, Note_on_c, 0, 87, 0
1, 153120, Note_on_c, 0, 80, 72
1, 153120, Note_on_c, 0, 85, 72
1, 153120, Note_on_c, 0, 77, 61
1, 153120, Note_on_c, 0, 44, 69
1, 153120, Note_on_c, 0, 32, 58
1, 153240, Note_on_c, 0, 32, 0
1, 153240, Note_on_c, 0, 77, 0
1, 153240, Note_on_c, 0, 80, 0
1, 153240, Note_on_c, 0, 85, 0
1, 153240, Note_on_c, 0, 44, 0
1, 153360, Tempo, 315789
1, 153360, Note_on_c, 0, 49, 63
1, 153360, Note_on_c, 0, 37, 54
1, 153480, Note_on_c, 0, 37, 0
1, 153480, Note_on_c, 0, 49, 0
1, 153540, Note_on_c, 0, 86, 58
1, 153600, Tempo, 323450
1, 153600, Note_on_c, 0, 86, 0
1, 153600, Note_on_c, 0, 78, 72
1, 153600, Note_on_c, 0, 74, 61
1, 153600, Note_on_c, 0, 84, 72
1, 153600, Note_on_c, 0, 33, 61
1, 153600, Note_on_c, 0, 45, 72
1, 153720, Note_on_c, 0, 45, 0
1, 153720, Note_on_c, 0, 84, 0
1, 153720, Note_on_c, 0, 78, 0
1, 153720, Note_on_c, 0, 74, 0
1, 153720, Note_on_c, 0, 33, 0
1, 153840, Tempo, 311688
1, 153840, Note_on_c, 0, 50, 65
1, 153840, Note_on_c, 0, 38, 55
1, 153960, Note_on_c, 0, 38, 0
1, 153960, Note_on_c, 0, 50, 0
1, 154020, Note_on_c, 0, 84, 55
1, 154080, Tempo, 321716
1, 154080, Note_on_c, 0, 84, 0
1, 154080, Note_on_c, 0, 82, 69
1, 154080, Note_on_c, 0, 79, 69
1, 154080, Note_on_c, 0, 70, 58
1, 154080, Note_on_c, 0, 46, 70
1, 154080, Note_on_c, 0, 34, 59
1, 154200, Note_on_c, 0, 34, 0
1, 154200, Note_on_c, 0, 70, 0
1, 154200, Note_on_c, 0, 82, 0
1, 154200, Note_on_c, 0, 79, 0
1, 154200, Note_on_c, 0, 46, 0
1, 154320, Tempo, 315789
1, 154320, Note_on_c, 0, 51, 63
1, 154320, Note_on_c, 0, 39, 54
1, 154440, Note_on_c, 0, 39, 0
1, 154440, Note_on_c, 0, 51, 0
1, 154500, Note_on_c, 0, 77, 58
1, 154560, Tempo, 322581
1, 154560, Note_on_c, 0, 77, 0
1, 154560, Note_on_c, 0, 64, 61
1, 154560, Note_on_c, 0, 72, 72
1, 154560, Note_on_c, 0, 76, 72
1, 154560, Note_on_c, 0, 43, 72
1, 154560, Note_on_c, 0, 31, 61
1, 154680, Note_on_c, 0, 31, 0
1, 154680, Note_on_c, 0, 76, 0
1, 154680, Note_on_c, 0, 64, 0
1, 154680, Note_on_c, 0, 72, 0
1, 154680, Note_on_c, 0, 43, 0
1, 154800, Tempo, 310881
1, 154800, Note_on_c, 0, 36, 55
1, 154800, Note_on_c, 0, 48, 66
1, 154920, Note_on_c, 0, 48, 0
1, 154920, Note_on_c, 0, 36, 0
1, 154980, Note_on_c, 0, 75, 56
1, 155040, Tempo, 323450
1, 155040, Note_on_c, 0, 75, 0
1, 155040, Note_on_c, 0, 68, 68
1, 155040, Note_on_c, 0, 73, 68
1, 155040, Note_on_c, 0, 65, 57
1, 155040, Note_on_c, 0, 44, 69
1, 155040, Note_on_c, 0, 32, 58
1, 155160, Note_on_c, 0, 32, 0
1, 155160, Note_on_c, 0, 65, 0
1, 155160, Note_on_c, 0, 68, 0
1, 155160, Note_on_c, 0, 73, 0
1, 155160, Note_on_c, 0, 44, 0
1, 155280, Tempo, 315789
1, 155280, Note_on_c, 0, 37, 54
1, 155280, Note_on_c, 0, 49, 63
1, 155400, Note_on_c, 0, 49, 0
1, 155400, Note_on_c, 0, 37, 0
1, 155460, Note_on_c, 0, 74, 54
1, 155520, Tempo, 323450
1, 155520, Note_on_c, 0, 74, 0
1, 155520, Note_on_c, 0, 62, 57
1, 155520, Note_on_c, 0, 66, 68
1, 155520, Note_on_c, 0, 72, 68
1, 155520, Note_on_c, 0, 45, 72
1, 155520, Note_on_c, 0, 33, 61
1, 155640, Note_on_c, 0, 33, 0
1, 155640, Note_on_c, 0, 72, 0
1, 155640, Note_on_c, 0, 62, 0
1, 155640, Note_on_c, 0, 66, 0
1, 155640, Note_on_c, 0, 45, 0
1, 155760, Tempo, 311688
1, 155760, Note_on_c, 0, 50, 65
1, 155760, Note_on_c, 0, 38, 55
1, 155880, Note_on_c, 0, 38, 0
1, 155880, Note_on_c, 0, 50, 0
1, 155940, Note_on_c, 0, 72, 52
1, 156000, Tempo, 321716
1, 156000, Note_on_c, 0, 72, 0
1, 156000, Note_on_c, 0, 58, 55
1, 156000, Note_on_c, 0, 70, 65
1, 156000, Note_on_c, 0, 67, 65
1, 156000, Note_on_c, 0, 46, 70
1, 156000, Note_on_c, 0, 34, 59
1, 156120, Note_on_c, 0, 34, 0
1, 156120, Note_on_c, 0, 67, 0
1, 156120, Note_on_c, 0, 58, 0
1, 156120, Note_on_c, 0, 70, 0
1, 156120, Note_on_c, 0, 46, 0
1, 156240, Note_on_c, 0, 51, 63
1, 156240, Note_on_c, 0, 39, 54
1, 156280, Tempo, 315789
1, 156360, Note_on_c, 0, 39, 0
1, 156360, Note_on_c, 0, 51, 0
1, 156480, Tempo, 335196
1, 156480, Note_on_c, 0, 55, 76
1, 156480, Note_on_c, 0, 31, 51
1, 156480, Note_on_c, 0, 43, 61
1, 156600, Note_on_c, 0, 43, 0
1, 156600, Note_on_c, 0, 31, 0
1, 156600, Note_on_c, 0, 55, 0
1, 156720, Tempo, 328767
1, 156720, Note_on_c, 0, 60, 70
1, 156720, Note_on_c, 0, 36, 46
1, 156720, Note_on_c, 0, 48, 55
1, 156760, Tempo, 320856
1, 156840, Note_on_c, 0, 48, 0
1, 156840, Note_on_c, 0, 36, 0
1, 156840, Note_on_c, 0, 60, 0
1, 156960, Tempo, 333333
1, 156960, Note_on_c, 0, 56, 90
1, 156960, Note_on_c, 0, 44, 72
1, 156960, Note_on_c, 0, 32, 61
1, 157080, Note_on_c, 0, 32, 0
1, 157080, Note_on_c, 0, 44, 0
1, 157080, Note_on_c, 0, 56, 0
1, 157200, Tempo, 326975
1, 157200, Note_on_c, 0, 61, 80
1, 157200, Note_on_c, 0, 37, 53
1, 157200, Note_on_c, 0, 49, 63
1, 157320, Note_on_c, 0, 49, 0
1, 157320, Note_on_c, 0, 37, 0
1, 157320, Note_on_c, 0, 61, 0
1, 157440, Tempo, 335196
1, 157440, Note_on_c, 0, 57, 78
1, 157440, Note_on_c, 0, 45, 62
1, 157440, Note_on_c, 0, 33, 52
1, 157560, Note_on_c, 0, 33, 0
1, 157560, Note_on_c, 0, 45, 0
1, 157560, Note_on_c, 0, 57, 0
1, 157680, Tempo, 318302
1, 157680, Note_on_c, 0, 62, 77
1, 157680, Note_on_c, 0, 50, 62
1, 157680, Note_on_c, 0, 38, 52
1, 157800, Note_on_c, 0, 38, 0
1, 157800, Note_on_c, 0, 50, 0
1, 157800, Note_on_c, 0, 62, 0
1, 157920, Tempo, 337079
1, 157920, Note_on_c, 0, 58, 89
1, 157920, Note_on_c, 0, 46, 70
1, 157920, Note_on_c, 0, 34, 59
1, 158040, Note_on_c, 0, 34, 0
1, 158040, Note_on_c, 0, 46, 0
1, 158040, Note_on_c, 0, 58, 0
1, 158160, Tempo, 324324
1, 158160, Note_on_c, 0, 63, 76
1, 158160, Note_on_c, 0, 39, 51
1, 158160, Note_on_c, 0, 51, 61
1, 158280, Note_on_c, 0, 51, 0
1, 158280, Note_on_c, 0, 39, 0
1, 158280, Note_on_c, 0, 63, 0
1, 158400, Tempo, 332410
1, 158400, Note_on_c, 0, 55, 81
1, 158400, Note_on_c, 0, 31, 55
1, 158400, Note_on_c, 0, 43, 65
1, 158520, Note_on_c, 0, 43, 0
1, 158520, Note_on_c, 0, 31, 0
1, 158520, Note_on_c, 0, 55, 0
1, 158640, Tempo, 318302
1, 158640, Note_on_c, 0, 60, 75
1, 158640, Note_on_c, 0, 48, 59
1, 158640, Note_on_c, 0, 36, 50
1, 158760, Note_on_c, 0, 36, 0
1, 158760, Note_on_c, 0, 48, 0
1, 158760, Note_on_c, 0, 60, 0
1, 158880, Tempo, 334262
1, 158880, Note_on_c, 0, 56, 99
1, 158880, Note_on_c, 0, 44, 79
1, 158880, Note_on_c, 0, 32, 66
1, 159000, Note_on_c, 0, 32, 0
1, 159000, Note_on_c, 0, 44, 0
1, 159000, Note_on_c, 0, 56, 0
1, 159120, Tempo, 326975
1, 159120, Note_on_c, 0, 61, 86
1, 159120, Note_on_c, 0, 37, 57
1, 159120, Note_on_c, 0, 49, 68
1, 159240, Note_on_c, 0, 49, 0
1, 159240, Note_on_c, 0, 37, 0
1, 159240, Note_on_c, 0, 61, 0
1, 159360, Tempo, 332410
1, 159360, Note_on_c, 0, 57, 88
1, 159360, Note_on_c, 0, 45, 70
1, 159360, Note_on_c, 0, 33, 59
1, 159480, Note_on_c, 0, 33, 0
1, 159480, Note_on_c, 0, 45, 0
1, 159480, Note_on_c, 0, 57, 0
1, 159600, Tempo, 314961
1, 159600, Note_on_c, 0, 62, 83
1, 159600, Note_on_c, 0, 50, 66
1, 159600, Note_on_c, 0, 38, 55
1, 159720, Note_on_c, 0, 38, 0
1, 159720, Note_on_c, 0, 50, 0
1, 159720, Note_on_c, 0, 62, 0
1, 159840, Tempo, 339943
1, 159840, Note_on_c, 0, 58, 99
1, 159840, Note_on_c, 0, 46, 77
1, 159840, Note_on_c, 0, 34, 64
1, 159960, Note_on_c, 0, 34, 0
1, 159960, Note_on_c, 0, 46, 0
1, 159960, Note_on_c, 0, 58, 0
1, 160080, Tempo, 331492
1, 160080, Note_on_c, 0, 63, 84
1, 160080, Note_on_c, 0, 51, 67
1, 160080, Note_on_c, 0, 39, 56
1, 160200, Note_on_c, 0, 39, 0
1, 160200, Note_on_c, 0, 51, 0
1, 160200, Note_on_c, 0, 63, 0
1, 160320, Tempo, 334262
1, 160320, Note_on_c, 0, 67, 79
1, 160320, Note_on_c, 0, 60, 67
1, 160320, Note_on_c, 0, 64, 67
1, 160320, Note_on_c, 0, 72, 79
1, 160320, Note_on_c, 0, 43, 70
1, 160320, Note_on_c, 0, 31, 59
1, 160320, Control_c, 0, 64, 127
1, 160560, Note_on_c, 0, 31, 0
1, 160560, Note_on_c, 0, 60, 0
1, 160560, Note_on_c, 0, 64, 0
1, 160560, Note_on_c, 0, 67, 0
1, 160560, Note_on_c, 0, 43, 0
1, 160560, Note_on_c, 0, 72, 0
1, 160560, Note_on_c, 0, 42, 65
1, 160800, Tempo, 329670
1, 160800, Note_on_c, 0, 42, 0
1, 160800, Note_on_c, 0, 72, 61
1, 160800, Note_on_c, 0, 79, 72
1, 160800, Note_on_c, 0, 76, 72
1, 160800, Note_on_c, 0, 67, 61
1, 160800, Note_on_c, 0, 31, 59
1, 160800, Note_on_c, 0, 43, 70
1, 160818, Control_c, 0, 64, 0
1, 160926, Control_c, 0, 64, 127
1, 161040, Note_on_c, 0, 43, 0
1, 161040, Note_on_c, 0, 31, 0
1, 161040, Note_on_c, 0, 42, 65
1, 161280, Note_on_c, 0, 42, 0
1, 161280, Note_on_c, 0, 67, 0
1, 161280, Note_on_c, 0, 72, 0
1, 161280, Note_on_c, 0, 79, 0
1, 161280, Note_on_c, 0, 76, 0
1, 161280, Note_on_c, 0, 67, 63
1, 161280, Note_on_c, 0, 79, 75
1, 161280, Note_on_c, 0, 72, 63
1, 161280, Note_on_c, 0, 76, 75
1, 161280, Note_on_c, 0, 43, 70
1, 161280, Note_on_c, 0, 31, 59
1, 161297, Control_c, 0, 64, 0
1, 161329, Control_c, 0, 64, 127
1, 161520, Note_on_c, 0, 31, 0
1, 161520, Note_on_c, 0, 43, 0
1, 161520, Note_on_c, 0, 42, 65
1, 161760, Note_on_c, 0, 42, 0
1, 161760, Note_on_c, 0, 76, 0
1, 161760, Note_on_c, 0, 67, 0
1, 161760, Note_on_c, 0, 79, 0
1, 161760, Note_on_c, 0, 72, 0
1, 161760, Note_on_c, 0, 67, 61
1, 161760, Note_on_c, 0, 79, 72
1, 161760, Note_on_c, 0, 72, 61
1, 161760, Note_on_c, 0, 76, 72
1, 161760, Note_on_c, 0, 31, 59
1, 161760, Note_on_c, 0, 43, 70
1, 161771, Control_c, 0, 64, 0
1, 161803, Control_c, 0, 64, 127
1, 162000, Note_on_c, 0, 43, 0
1, 162000, Note_on_c, 0, 31, 0
1, 162000, Note_on_c, 0, 42, 65
1, 162180, Tempo, 352941
1, 162180, Note_on_c, 0, 72, 0
1, 162180, Note_on_c, 0, 76, 0
1, 162180, Note_on_c, 0, 67, 0
1, 162180, Note_on_c, 0, 79, 0
1, 162180, Note_on_c, 0, 68, 54
1, 162180, Note_on_c, 0, 80, 64
1, 162240, Tempo, 336134
1, 162240, Note_on_c, 0, 80, 0
1, 162240, Note_on_c, 0, 68, 0
1, 162240, Note_on_c, 0, 42, 0
1, 162240, Note_on_c, 0, 67, 61
1, 162240, Note_on_c, 0, 79, 72
1, 162240, Note_on_c, 0, 31, 59
1, 162240, Note_on_c, 0, 43, 70
1, 162256, Control_c, 0, 64, 0
1, 162355, Control_c, 0, 64, 127
1, 162480, Note_on_c, 0, 43, 0
1, 162480, Note_on_c, 0, 67, 0
1, 162480, Note_on_c, 0, 79, 0
1, 162480, Note_on_c, 0, 31, 0
1, 162480, Note_on_c, 0, 42, 67
1, 162720, Tempo, 340909
1, 162720, Note_on_c, 0, 42, 0
1, 162720, Note_on_c, 0, 64, 58
1, 162720, Note_on_c, 0, 60, 58
1, 162720, Note_on_c, 0, 67, 69
1, 162720, Note_on_c, 0, 72, 69
1, 162720, Note_on_c, 0, 43, 70
1, 162720, Note_on_c, 0, 31, 59
1, 162739, Control_c, 0, 64, 0
1, 162812, Control_c, 0, 64, 127
1, 162960, Note_on_c, 0, 31, 0
1, 162960, Note_on_c, 0, 43, 0
1, 162960, Note_on_c, 0, 42, 67
1, 163200, Tempo, 338028
1, 163200, Note_on_c, 0, 42, 0
1, 163200, Note_on_c, 0, 72, 0
1, 163200, Note_on_c, 0, 64, 0
1, 163200, Note_on_c, 0, 60, 0
1, 163200, Note_on_c, 0, 67, 0
1, 163200, Note_on_c, 0, 62, 62
1, 163200, Note_on_c, 0, 74, 73
1, 163200, Note_on_c, 0, 65, 62
1, 163200, Note_on_c, 0, 68, 73
1, 163200, Note_on_c, 0, 36, 61
1, 163200, Note_on_c, 0, 48, 72
1, 163215, Control_c, 0, 64, 0
1, 163315, Control_c, 0, 64, 127
1, 163440, Tempo, 334262
1, 163440, Note_on_c, 0, 48, 0
1, 163440, Note_on_c, 0, 36, 0
1, 163440, Note_on_c, 0, 46, 71
1, 163440, Note_on_c, 0, 34, 60
1, 163680, Note_on_c, 0, 34, 0
1, 163680, Note_on_c, 0, 46, 0
1, 163680, Note_on_c, 0, 33, 59
1, 163680, Note_on_c, 0, 45, 70
1, 163692, Control_c, 0, 64, 0
1, 163772, Control_c, 0, 64, 127
1, 163920, Note_on_c, 0, 45, 0
1, 163920, Note_on_c, 0, 74, 0
1, 163920, Note_on_c, 0, 65, 0
1, 163920, Note_on_c, 0, 62, 0
1, 163920, Note_on_c, 0, 33, 0
1, 163920, Note_on_c, 0, 68, 0
1, 163920, Note_on_c, 0, 44, 69
1, 163920, Note_on_c, 0, 32, 58
1, 164040, Tempo, 350877
1, 164160, Tempo, 335196
1, 164160, Note_on_c, 0, 32, 0
1, 164160, Note_on_c, 0, 44, 0
1, 164160, Note_on_c, 0, 67, 79
1, 164160, Note_on_c, 0, 72, 79
1, 164160, Note_on_c, 0, 64, 67
1, 164160, Note_on_c, 0, 60, 67
1, 164160, Note_on_c, 0, 43, 70
1, 164160, Note_on_c, 0, 31, 59
1, 164170, Control_c, 0, 64, 0
1, 164240, Control_c, 0, 64, 127
1, 164400, Note_on_c, 0, 31, 0
1, 164400, Note_on_c, 0, 72, 0
1, 164400, Note_on_c, 0, 64, 0
1, 164400, Note_on_c, 0, 67, 0
1, 164400, Note_on_c, 0, 43, 0
1, 164400, Note_on_c, 0, 60, 0
1, 164400, Note_on_c, 0, 42, 65
1, 164640, Tempo, 329670
1, 164640, Note_on_c, 0, 42, 0
1, 164640, Note_on_c, 0, 72, 61
1, 164640, Note_on_c, 0, 67, 61
1, 164640, Note_on_c, 0, 79, 72
1, 164640, Note_on_c, 0, 76, 72
1, 164640, Note_on_c, 0, 31, 59
1, 164640, Note_on_c, 0, 43, 70
1, 164649, Control_c, 0, 64, 0
1, 164789, Control_c, 0, 64, 127
1, 164880, Note_on_c, 0, 43, 0
1, 164880, Note_on_c, 0, 31, 0
1, 164880, Note_on_c, 0, 42, 65
1, 165120, Note_on_c, 0, 42, 0
1, 165120, Note_on_c, 0, 76, 0
1, 165120, Note_on_c, 0, 72, 0
1, 165120, Note_on_c, 0, 67, 0
1, 165120, Note_on_c, 0, 79, 0
1, 165120, Note_on_c, 0, 76, 75
1, 165120, Note_on_c, 0, 79, 75
1, 165120, Note_on_c, 0, 72, 63
1, 165120, Note_on_c, 0, 67, 63
1, 165120, Note_on_c, 0, 31, 59
1, 165120, Note_on_c, 0, 43, 70
1, 165129, Control_c, 0, 64, 0
1, 165166, Control_c, 0, 64, 127
1, 165360, Note_on_c, 0, 43, 0
1, 165360, Note_on_c, 0, 31, 0
1, 165360, Note_on_c, 0, 42, 65
1, 165600, Note_on_c, 0, 42, 0
1, 165600, Note_on_c, 0, 67, 0
1, 165600, Note_on_c, 0, 76, 0
1, 165600, Note_on_c, 0, 79, 0
1, 165600, Note_on_c, 0, 72, 0
1, 165600, Note_on_c, 0, 76, 72
1, 165600, Note_on_c, 0, 67, 61
1, 165600, Note_on_c, 0, 72, 61
1, 165600, Note_on_c, 0, 79, 72
1, 165600, Note_on_c, 0, 43, 70
1, 165600, Note_on_c, 0, 31, 59
1, 165609, Control_c, 0, 64, 0
1, 165696, Control_c, 0, 64, 127
1, 165840, Note_on_c, 0, 31, 0
1, 165840, Note_on_c, 0, 43, 0
1, 165840, Note_on_c, 0, 42, 65
1, 166020, Tempo, 353982
1, 166020, Note_on_c, 0, 72, 0
1, 166020, Note_on_c, 0, 79, 0
1, 166020, Note_on_c, 0, 76, 0
1, 166020, Note_on_c, 0, 67, 0
1, 166020, Note_on_c, 0, 81, 64
1, 166020, Note_on_c, 0, 69, 54
1, 166080, Tempo, 336134
1, 166080, Note_on_c, 0, 69, 0
1, 166080, Note_on_c, 0, 81, 0
1, 166080, Note_on_c, 0, 42, 0
1, 166080, Note_on_c, 0, 67, 61
1, 166080, Note_on_c, 0, 79, 72
1, 166080, Note_on_c, 0, 43, 70
1, 166080, Note_on_c, 0, 31, 59
1, 166090, Control_c, 0, 64, 0
1, 166206, Control_c, 0, 64, 127
1, 166320, Note_on_c, 0, 31, 0
1, 166320, Note_on_c, 0, 67, 0
1, 166320, Note_on_c, 0, 79, 0
1, 166320, Note_on_c, 0, 43, 0
1, 166320, Note_on_c, 0, 42, 67
1, 166560, Tempo, 340909
1, 166560, Note_on_c, 0, 42, 0
1, 166560, Note_on_c, 0, 60, 58
1, 166560, Note_on_c, 0, 72, 69
1, 166560, Note_on_c, 0, 64, 58
1, 166560, Note_on_c, 0, 67, 69
1, 166560, Note_on_c, 0, 43, 70
1, 166560, Note_on_c, 0, 31, 59
1, 166576, Control_c, 0, 64, 0
1, 166663, Control_c, 0, 64, 127
1, 166800, Note_on_c, 0, 31, 0
1, 166800, Note_on_c, 0, 43, 0
1, 166800, Note_on_c, 0, 42, 67
1, 167040, Tempo, 338028
1, 167040, Note_on_c, 0, 42, 0
1, 167040, Note_on_c, 0, 67, 0
1, 167040, Note_on_c, 0, 60, 0
1, 167040, Note_on_c, 0, 72, 0
1, 167040, Note_on_c, 0, 64, 0
1, 167040, Note_on_c, 0, 69, 73
1, 167040, Note_on_c, 0, 62, 62
1, 167040, Note_on_c, 0, 66, 62
1, 167040, Note_on_c, 0, 74, 73
1, 167040, Note_on_c, 0, 36, 61
1, 167040, Note_on_c, 0, 48, 72
1, 167057, Control_c, 0, 64, 0
1, 167143, Control_c, 0, 64, 127
1, 167280, Tempo, 336134
1, 167280, Note_on_c, 0, 48, 0
1, 167280, Note_on_c, 0, 36, 0
1, 167280, Note_on_c, 0, 47, 71
1, 167280, Note_on_c, 0, 35, 60
1, 167520, Note_on_c, 0, 35, 0
1, 167520, Note_on_c, 0, 47, 0
1, 167520, Note_on_c, 0, 46, 70
1, 167520, Note_on_c, 0, 34, 59
1, 167536, Control_c, 0, 64, 0
1, 167646, Control_c, 0, 64, 127
1, 167760, Note_on_c, 0, 34, 0
1, 167760, Note_on_c, 0, 62, 0
1, 167760, Note_on_c, 0, 66, 0
1, 167760, Note_on_c, 0, 69, 0
1, 167760, Note_on_c, 0, 46, 0
1, 167760, Note_on_c, 0, 74, 0
1, 167760, Note_on_c, 0, 45, 69
1, 167760, Note_on_c, 0, 33, 58
1, 167880, Tempo, 356083
1, 168000, Tempo, 337079
1, 168000, Note_on_c, 0, 33, 0
1, 168000, Note_on_c, 0, 45, 0
1, 168000, Note_on_c, 0, 75, 83
1, 168000, Note_on_c, 0, 69, 70
1, 168000, Note_on_c, 0, 78, 83
1, 168000, Note_on_c, 0, 66, 70
1, 168011, Control_c, 0, 64, 0
1, 168072, Control_c, 0, 64, 127
1, 168240, Note_on_c, 0, 78, 0
1, 168240, Note_on_c, 0, 75, 0
1, 168240, Note_on_c, 0, 69, 0
1, 168480, Tempo, 334262
1, 168480, Note_on_c, 0, 75, 61
1, 168480, Note_on_c, 0, 69, 61
1, 168480, Note_on_c, 0, 81, 72
1, 168480, Note_on_c, 0, 78, 72
1, 168480, Note_on_c, 0, 48, 50
1, 168480, Note_on_c, 0, 60, 59
1, 168493, Control_c, 0, 64, 0
1, 168552, Control_c, 0, 64, 127
1, 168960, Note_on_c, 0, 60, 0
1, 168960, Note_on_c, 0, 78, 0
1, 168960, Note_on_c, 0, 75, 0
1, 168960, Note_on_c, 0, 69, 0
1, 168960, Note_on_c, 0, 81, 0
1, 168960, Note_on_c, 0, 48, 0
1, 168960, Note_on_c, 0, 75, 63
1, 168960, Note_on_c, 0, 81, 75
1, 168960, Note_on_c, 0, 78, 75
1, 168960, Note_on_c, 0, 69, 63
1, 168960, Note_on_c, 0, 48, 63
1, 168960, Note_on_c, 0, 36, 54
1, 169440, Note_on_c, 0, 36, 0
1, 169440, Note_on_c, 0, 69, 0
1, 169440, Note_on_c, 0, 75, 0
1, 169440, Note_on_c, 0, 81, 0
1, 169440, Note_on_c, 0, 78, 0
1, 169440, Note_on_c, 0, 48, 0
1, 169440, Note_on_c, 0, 69, 61
1, 169440, Note_on_c, 0, 81, 72
1, 169440, Note_on_c, 0, 75, 61
1, 169440, Note_on_c, 0, 78, 72
1, 169440, Note_on_c, 0, 60, 60
1, 169440, Note_on_c, 0, 48, 50
1, 169920, Tempo, 326087
1, 169920, Note_on_c, 0, 48, 0
1, 169920, Note_on_c, 0, 78, 0
1, 169920, Note_on_c, 0, 69, 0
1, 169920, Note_on_c, 0, 81, 0
1, 169920, Note_on_c, 0, 66, 0
1, 169920, Note_on_c, 0, 60, 0
1, 169920, Note_on_c, 0, 75, 0
1, 169920, Note_on_c, 0, 82, 69
1, 169920, Note_on_c, 0, 91, 82
1, 169920, Note_on_c, 0, 87, 82
1, 169920, Note_on_c, 0, 79, 69
1, 169920, Note_on_c, 0, 70, 70
1, 169930, Control_c, 0, 64, 0
1, 170012, Control_c, 0, 64, 127
1, 170160, Tempo, 328767
1, 170160, Note_on_c, 0, 79, 0
1, 170160, Note_on_c, 0, 87, 0
1, 170160, Note_on_c, 0, 82, 0
1, 170160, Note_on_c, 0, 91, 0
1, 170160, Note_on_c, 0, 86, 72
1, 170160, Note_on_c, 0, 74, 61
1, 170400, Tempo, 326975
1, 170400, Note_on_c, 0, 74, 0
1, 170400, Note_on_c, 0, 86, 0
1, 170400, Note_on_c, 0, 87, 77
1, 170400, Note_on_c, 0, 75, 65
1, 170400, Note_on_c, 0, 55, 59
1, 170400, Note_on_c, 0, 43, 50
1, 170412, Control_c, 0, 64, 0
1, 170503, Control_c, 0, 64, 127
1, 170640, Tempo, 330579
1, 170640, Note_on_c, 0, 75, 0
1, 170640, Note_on_c, 0, 87, 0
1, 170640, Note_on_c, 0, 70, 61
1, 170640, Note_on_c, 0, 82, 72
1, 170880, Tempo, 327869
1, 170880, Note_on_c, 0, 82, 0
1, 170880, Note_on_c, 0, 43, 0
1, 170880, Note_on_c, 0, 70, 0
1, 170880, Note_on_c, 0, 55, 0
1, 170880, Note_on_c, 0, 87, 80
1, 170880, Note_on_c, 0, 79, 68
1, 170880, Note_on_c, 0, 82, 68
1, 170880, Note_on_c, 0, 91, 80
1, 170880, Note_on_c, 0, 43, 63
1, 170880, Note_on_c, 0, 31, 54
1, 170889, Control_c, 0, 64, 0
1, 170960, Control_c, 0, 64, 127
1, 171120, Tempo, 333333
1, 171120, Note_on_c, 0, 91, 0
1, 171120, Note_on_c, 0, 82, 0
1, 171120, Note_on_c, 0, 79, 0
1, 171120, Note_on_c, 0, 87, 0
1, 171120, Note_on_c, 0, 74, 61
1, 171120, Note_on_c, 0, 86, 72
1, 171360, Tempo, 333333
1, 171360, Note_on_c, 0, 86, 0
1, 171360, Note_on_c, 0, 43, 0
1, 171360, Note_on_c, 0, 74, 0
1, 171360, Note_on_c, 0, 31, 0
1, 171360, Note_on_c, 0, 75, 65
1, 171360, Note_on_c, 0, 87, 77
1, 171360, Note_on_c, 0, 55, 60
1, 171360, Note_on_c, 0, 43, 50
1, 171369, Control_c, 0, 64, 0
1, 171463, Control_c, 0, 64, 127
1, 171600, Note_on_c, 0, 87, 0
1, 171600, Note_on_c, 0, 75, 0
1, 171600, Note_on_c, 0, 70, 61
1, 171600, Note_on_c, 0, 82, 72
1, 171840, Tempo, 337079
1, 171840, Note_on_c, 0, 82, 0
1, 171840, Note_on_c, 0, 70, 0
1, 171840, Note_on_c, 0, 43, 0
1, 171840, Note_on_c, 0, 55, 0
1, 171840, Note_on_c, 0, 70, 0
1, 171840, Note_on_c, 0, 75, 83
1, 171840, Note_on_c, 0, 69, 70
1, 171840, Note_on_c, 0, 78, 83
1, 171840, Note_on_c, 0, 66, 70
1, 171848, Control_c, 0, 64, 0
1, 171912, Control_c, 0, 64, 127
1, 172080, Note_on_c, 0, 78, 0
1, 172080, Note_on_c, 0, 75, 0
1, 172080, Note_on_c, 0, 69, 0
1, 172320, Tempo, 334262
1, 172320, Note_on_c, 0, 75, 61
1, 172320, Note_on_c, 0, 81, 72
1, 172320, Note_on_c, 0, 78, 72
1, 172320, Note_on_c, 0, 69, 61
1, 172320, Note_on_c, 0, 60, 59
1, 172320, Note_on_c, 0, 48, 50
1, 172327, Control_c, 0, 64, 0
1, 172398, Control_c, 0, 64, 127
1, 172800, Note_on_c, 0, 48, 0
1, 172800, Note_on_c, 0, 69, 0
1, 172800, Note_on_c, 0, 75, 0
1, 172800, Note_on_c, 0, 81, 0
1, 172800, Note_on_c, 0, 78, 0
1, 172800, Note_on_c, 0, 60, 0
1, 172800, Note_on_c, 0, 69, 63
1, 172800, Note_on_c, 0, 81, 75
1, 172800, Note_on_c, 0, 75, 63
1, 172800, Note_on_c, 0, 78, 75
1, 172800, Note_on_c, 0, 36, 54
1, 172800, Note_on_c, 0, 48, 63
1, 173280, Note_on_c, 0, 48, 0
1, 173280, Note_on_c, 0, 78, 0
1, 173280, Note_on_c, 0, 69, 0
1, 173280, Note_on_c, 0, 81, 0
1, 173280, Note_on_c, 0, 75, 0
1, 173280, Note_on_c, 0, 36, 0
1, 173280, Note_on_c, 0, 78, 72
1, 173280, Note_on_c, 0, 69, 61
1, 173280, Note_on_c, 0, 75, 61
1, 173280, Note_on_c, 0, 81, 72
1, 173280, Note_on_c, 0, 60, 60
1, 173280, Note_on_c, 0, 48, 50
1, 173760, Note_on_c, 0, 48, 0
1, 173760, Note_on_c, 0, 81, 0
1, 173760, Note_on_c, 0, 78, 0
1, 173760, Note_on_c, 0, 69, 0
1, 173760, Note_on_c, 0, 66, 0
1, 173760, Note_on_c, 0, 60, 0
1, 173760, Note_on_c, 0, 75, 0
1, 173760, Note_on_c, 0, 87, 69
1, 173760, Note_on_c, 0, 94, 82
1, 173760, Note_on_c, 0, 82, 69
1, 173760, Note_on_c, 0, 91, 82
1, 173760, Note_on_c, 0, 70, 70
1, 173766, Control_c, 0, 64, 0
1, 173886, Control_c, 0, 64, 127
1, 174000, Note_on_c, 0, 91, 0
1, 174000, Note_on_c, 0, 82, 0
1, 174000, Note_on_c, 0, 87, 0
1, 174000, Note_on_c, 0, 94, 0
1, 174240, Tempo, 322581
1, 174240, Note_on_c, 0, 94, 80
1, 174240, Note_on_c, 0, 82, 68
1, 174240, Note_on_c, 0, 43, 50
1, 174240, Note_on_c, 0, 55, 59
1, 174246, Control_c, 0, 64, 0
1, 174400, Control_c, 0, 64, 127
1, 174480, Tempo, 331492
1, 174480, Note_on_c, 0, 82, 0
1, 174480, Note_on_c, 0, 94, 0
1, 174480, Note_on_c, 0, 89, 72
1, 174480, Note_on_c, 0, 77, 61
1, 174720, Tempo, 326975
1, 174720, Note_on_c, 0, 77, 0
1, 174720, Note_on_c, 0, 55, 0
1, 174720, Note_on_c, 0, 89, 0
1, 174720, Note_on_c, 0, 43, 0
1, 174720, Note_on_c, 0, 91, 73
1, 174720, Note_on_c, 0, 79, 62
1, 174720, Note_on_c, 0, 87, 73
1, 174720, Note_on_c, 0, 82, 62
1, 174720, Note_on_c, 0, 43, 63
1, 174720, Note_on_c, 0, 31, 54
1, 174732, Control_c, 0, 64, 0
1, 174823, Control_c, 0, 64, 127
1, 174960, Tempo, 330579
1, 174960, Note_on_c, 0, 82, 0
1, 174960, Note_on_c, 0, 87, 0
1, 174960, Note_on_c, 0, 79, 0
1, 174960, Note_on_c, 0, 91, 0
1, 174960, Note_on_c, 0, 75, 58
1, 174960, Note_on_c, 0, 87, 69
1, 175200, Tempo, 326087
1, 175200, Note_on_c, 0, 87, 0
1, 175200, Note_on_c, 0, 43, 0
1, 175200, Note_on_c, 0, 75, 0
1, 175200, Note_on_c, 0, 31, 0
1, 175200, Note_on_c, 0, 86, 77
1, 175200, Note_on_c, 0, 74, 65
1, 175200, Note_on_c, 0, 43, 50
1, 175200, Note_on_c, 0, 55, 60
1, 175212, Control_c, 0, 64, 0
1, 175315, Control_c, 0, 64, 127
1, 175440, Tempo, 331492
1, 175440, Note_on_c, 0, 74, 0
1, 175440, Note_on_c, 0, 86, 0
1, 175440, Note_on_c, 0, 82, 72
1, 175440, Note_on_c, 0, 70, 61
1, 175680, Tempo, 337079
1, 175680, Note_on_c, 0, 70, 0
1, 175680, Note_on_c, 0, 70, 0
1, 175680, Note_on_c, 0, 55, 0
1, 175680, Note_on_c, 0, 43, 0
1, 175680, Note_on_c, 0, 82, 0
1, 175680, Note_on_c, 0, 81, 83
1, 175680, Note_on_c, 0, 83, 83
1, 175680, Note_on_c, 0, 75, 70
1, 175680, Note_on_c, 0, 71, 70
1, 175680, Note_on_c, 0, 66, 70
1, 175686, Control_c, 0, 64, 0
1, 175780, Control_c, 0, 64, 127
1, 175920, Note_on_c, 0, 71, 0
1, 175920, Note_on_c, 0, 75, 0
1, 175920, Note_on_c, 0, 81, 0
1, 175920, Note_on_c, 0, 83, 0
1, 176160, Tempo, 334262
1, 176160, Note_on_c, 0, 78, 72
1, 176160, Note_on_c, 0, 75, 61
1, 176160, Note_on_c, 0, 83, 72
1, 176160, Note_on_c, 0, 87, 72
1, 176160, Note_on_c, 0, 57, 59
1, 176160, Note_on_c, 0, 45, 50
1, 176179, Control_c, 0, 64, 0
1, 176251, Control_c, 0, 64, 127
1, 176640, Note_on_c, 0, 45, 0
1, 176640, Note_on_c, 0, 87, 0
1, 176640, Note_on_c, 0, 78, 0
1, 176640, Note_on_c, 0, 75, 0
1, 176640, Note_on_c, 0, 83, 0
1, 176640, Note_on_c, 0, 57, 0
1, 176640, Note_on_c, 0, 75, 63
1, 176640, Note_on_c, 0, 87, 75
1, 176640, Note_on_c, 0, 78, 75
1, 176640, Note_on_c, 0, 83, 75
1, 176640, Note_on_c, 0, 33, 54
1, 176640, Note_on_c, 0, 45, 63
1, 177120, Note_on_c, 0, 45, 0
1, 177120, Note_on_c, 0, 83, 0
1, 177120, Note_on_c, 0, 75, 0
1, 177120, Note_on_c, 0, 87, 0
1, 177120, Note_on_c, 0, 78, 0
1, 177120, Note_on_c, 0, 33, 0
1, 177120, Note_on_c, 0, 83, 72
1, 177120, Note_on_c, 0, 87, 72
1, 177120, Note_on_c, 0, 75, 61
1, 177120, Note_on_c, 0, 78, 72
1, 177120, Note_on_c, 0, 45, 50
1, 177120, Note_on_c, 0, 57, 60
1, 177600, Tempo, 326975
1, 177600, Note_on_c, 0, 57, 0
1, 177600, Note_on_c, 0, 78, 0
1, 177600, Note_on_c, 0, 83, 0
1, 177600, Note_on_c, 0, 87, 0
1, 177600, Note_on_c, 0, 66, 0
1, 177600, Note_on_c, 0, 45, 0
1, 177600, Note_on_c, 0, 75, 0
1, 177600, Note_on_c, 0, 91, 78
1, 177600, Note_on_c, 0, 79, 66
1, 177600, Note_on_c, 0, 88, 78
1, 177600, Note_on_c, 0, 84, 66
1, 177600, Note_on_c, 0, 70, 70
1, 177610, Control_c, 0, 64, 0
1, 177741, Control_c, 0, 64, 127
1, 177840, Tempo, 331492
1, 177840, Note_on_c, 0, 84, 0
1, 177840, Note_on_c, 0, 88, 0
1, 177840, Note_on_c, 0, 91, 0
1, 177840, Note_on_c, 0, 79, 0
1, 177840, Note_on_c, 0, 74, 61
1, 177840, Note_on_c, 0, 86, 72
1, 178080, Tempo, 326087
1, 178080, Note_on_c, 0, 86, 0
1, 178080, Note_on_c, 0, 74, 0
1, 178080, Note_on_c, 0, 88, 76
1, 178080, Note_on_c, 0, 76, 64
1, 178080, Note_on_c, 0, 52, 59
1, 178080, Note_on_c, 0, 40, 50
1, 178098, Control_c, 0, 64, 0
1, 178193, Control_c, 0, 64, 127
1, 178320, Tempo, 331492
1, 178320, Note_on_c, 0, 76, 0
1, 178320, Note_on_c, 0, 88, 0
1, 178320, Note_on_c, 0, 84, 67
1, 178320, Note_on_c, 0, 72, 56
1, 178560, Tempo, 324324
1, 178560, Note_on_c, 0, 72, 0
1, 178560, Note_on_c, 0, 40, 0
1, 178560, Note_on_c, 0, 84, 0
1, 178560, Note_on_c, 0, 52, 0
1, 178560, Note_on_c, 0, 84, 78
1, 178560, Note_on_c, 0, 79, 66
1, 178560, Note_on_c, 0, 88, 78
1, 178560, Note_on_c, 0, 91, 78
1, 178560, Note_on_c, 0, 28, 54
1, 178560, Note_on_c, 0, 40, 63
1, 178573, Control_c, 0, 64, 0
1, 178687, Control_c, 0, 64, 127
1, 178800, Tempo, 331492
1, 178800, Note_on_c, 0, 91, 0
1, 178800, Note_on_c, 0, 88, 0
1, 178800, Note_on_c, 0, 79, 0
1, 178800, Note_on_c, 0, 84, 0
1, 178800, Note_on_c, 0, 86, 68
1, 178800, Note_on_c, 0, 74, 57
1, 179040, Note_on_c, 0, 74, 0
1, 179040, Note_on_c, 0, 28, 0
1, 179040, Note_on_c, 0, 86, 0
1, 179040, Note_on_c, 0, 40, 0
1, 179040, Note_on_c, 0, 88, 73
1, 179040, Note_on_c, 0, 76, 62
1, 179040, Note_on_c, 0, 40, 50
1, 179040, Note_on_c, 0, 52, 60
1, 179055, Control_c, 0, 64, 0
1, 179167, Control_c, 0, 64, 127
1, 179280, Note_on_c, 0, 76, 0
1, 179280, Note_on_c, 0, 88, 0
1, 179280, Note_on_c, 0, 72, 56
1, 179280, Note_on_c, 0, 84, 66
1, 179520, Tempo, 337079
1, 179520, Note_on_c, 0, 84, 0
1, 179520, Note_on_c, 0, 70, 0
1, 179520, Note_on_c, 0, 52, 0
1, 179520, Note_on_c, 0, 40, 0
1, 179520, Note_on_c, 0, 72, 0
1, 179520, Note_on_c, 0, 75, 70
1, 179520, Note_on_c, 0, 71, 70
1, 179520, Note_on_c, 0, 83, 83
1, 179520, Note_on_c, 0, 81, 83
1, 179520, Note_on_c, 0, 66, 70
1, 179538, Control_c, 0, 64, 0
1, 179603, Control_c, 0, 64, 127
1, 179760, Note_on_c, 0, 81, 0
1, 179760, Note_on_c, 0, 83, 0
1, 179760, Note_on_c, 0, 75, 0
1, 179760, Note_on_c, 0, 71, 0
1, 180000, Tempo, 334262
1, 180000, Note_on_c, 0, 78, 61
1, 180000, Note_on_c, 0, 87, 72
1, 180000, Note_on_c, 0, 83, 72
1, 180000, Note_on_c, 0, 75, 61
1, 180000, Note_on_c, 0, 45, 50
1, 180000, Note_on_c, 0, 57, 59
1, 180019, Control_c, 0, 64, 0
1, 180066, Control_c, 0, 64, 127
1, 180480, Note_on_c, 0, 57, 0
1, 180480, Note_on_c, 0, 75, 0
1, 180480, Note_on_c, 0, 78, 0
1, 180480, Note_on_c, 0, 87, 0
1, 180480, Note_on_c, 0, 83, 0
1, 180480, Note_on_c, 0, 45, 0
1, 180480, Note_on_c, 0, 75, 63
1, 180480, Note_on_c, 0, 87, 75
1, 180480, Note_on_c, 0, 78, 63
1, 180480, Note_on_c, 0, 83, 75
1, 180480, Note_on_c, 0, 45, 63
1, 180480, Note_on_c, 0, 33, 54
1, 180960, Note_on_c, 0, 33, 0
1, 180960, Note_on_c, 0, 83, 0
1, 180960, Note_on_c, 0, 75, 0
1, 180960, Note_on_c, 0, 87, 0
1, 180960, Note_on_c, 0, 78, 0
1, 180960, Note_on_c, 0, 45, 0
1, 180960, Note_on_c, 0, 83, 72
1, 180960, Note_on_c, 0, 75, 61
1, 180960, Note_on_c, 0, 78, 61
1, 180960, Note_on_c, 0, 87, 72
1, 180960, Note_on_c, 0, 45, 50
1, 180960, Note_on_c, 0, 57, 60
1, 181440, Tempo, 331492
1, 181440, Note_on_c, 0, 57, 0
1, 181440, Note_on_c, 0, 87, 0
1, 181440, Note_on_c, 0, 83, 0
1, 181440, Note_on_c, 0, 75, 0
1, 181440, Note_on_c, 0, 66, 0
1, 181440, Note_on_c, 0, 45, 0
1, 181440, Note_on_c, 0, 78, 0
1, 181440, Note_on_c, 0, 88, 66
1, 181440, Note_on_c, 0, 96, 78
1, 181440, Note_on_c, 0, 84, 66
1, 181440, Note_on_c, 0, 91, 78
1, 181440, Note_on_c, 0, 72, 70
1, 181448, Control_c, 0, 64, 0
1, 181553, Control_c, 0, 64, 127
1, 181680, Note_on_c, 0, 91, 0
1, 181680, Note_on_c, 0, 84, 0
1, 181680, Note_on_c, 0, 88, 0
1, 181680, Note_on_c, 0, 96, 0
1, 181920, Tempo, 325203
1, 181920, Note_on_c, 0, 96, 76
1, 181920, Note_on_c, 0, 84, 64
1, 181920, Note_on_c, 0, 40, 50
1, 181920, Note_on_c, 0, 52, 59
1, 181933, Control_c, 0, 64, 0
1, 182047, Control_c, 0, 64, 127
1, 182160, Tempo, 327869
1, 182160, Note_on_c, 0, 84, 0
1, 182160, Note_on_c, 0, 96, 0
1, 182160, Note_on_c, 0, 91, 67
1, 182160, Note_on_c, 0, 79, 56
1, 182400, Tempo, 333333
1, 182400, Note_on_c, 0, 79, 0
1, 182400, Note_on_c, 0, 52, 0
1, 182400, Note_on_c, 0, 91, 0
1, 182400, Note_on_c, 0, 40, 0
1, 182400, Note_on_c, 0, 84, 57
1, 182400, Note_on_c, 0, 93, 68
1, 182400, Note_on_c, 0, 88, 68
1, 182400, Note_on_c, 0, 81, 57
1, 182400, Note_on_c, 0, 28, 54
1, 182400, Note_on_c, 0, 40, 63
1, 182417, Control_c, 0, 64, 0
1, 182485, Control_c, 0, 64, 127
1, 182640, Tempo, 337079
1, 182640, Note_on_c, 0, 81, 0
1, 182640, Note_on_c, 0, 88, 0
1, 182640, Note_on_c, 0, 93, 0
1, 182640, Note_on_c, 0, 84, 0
1, 182640, Note_on_c, 0, 89, 64
1, 182640, Note_on_c, 0, 77, 54
1, 182880, Note_on_c, 0, 77, 0
1, 182880, Note_on_c, 0, 28, 0
1, 182880, Note_on_c, 0, 89, 0
1, 182880, Note_on_c, 0, 40, 0
1, 182880, Note_on_c, 0, 88, 73
1, 182880, Note_on_c, 0, 76, 62
1, 182880, Note_on_c, 0, 40, 50
1, 182880, Note_on_c, 0, 52, 60
1, 182887, Control_c, 0, 64, 0
1, 182993, Control_c, 0, 64, 127
1, 183120, Note_on_c, 0, 76, 0
1, 183120, Note_on_c, 0, 88, 0
1, 183120, Note_on_c, 0, 84, 66
1, 183120, Note_on_c, 0, 72, 56
1, 183360, Tempo, 339943
1, 183360, Note_on_c, 0, 72, 0
1, 183360, Note_on_c, 0, 72, 0
1, 183360, Note_on_c, 0, 52, 0
1, 183360, Note_on_c, 0, 40, 0
1, 183360, Note_on_c, 0, 84, 0
1, 183360, Note_on_c, 0, 55, 66
1, 183360, Note_on_c, 0, 67, 78
1, 183360, Note_on_c, 0, 31, 57
1, 183360, Note_on_c, 0, 43, 68
1, 183369, Control_c, 0, 64, 0
1, 183600, Note_on_c, 0, 43, 0
1, 183600, Note_on_c, 0, 55, 0
1, 183600, Note_on_c, 0, 67, 0
1, 183600, Note_on_c, 0, 31, 0
1, 183840, Tempo, 328767
1, 183840, Note_on_c, 0, 103, 73
1, 183840, Note_on_c, 0, 91, 73
1, 183840, Note_on_c, 0, 79, 66
1, 183883, Control_c, 0, 64, 127
1, 184080, Tempo, 334262
1, 184080, Note_on_c, 0, 79, 0
1, 184080, Note_on_c, 0, 91, 0
1, 184080, Note_on_c, 0, 103, 0
1, 184080, Note_on_c, 0, 86, 56
1, 184080, Note_on_c, 0, 98, 67
1, 184080, Note_on_c, 0, 74, 60
1, 184320, Tempo, 329670
1, 184320, Note_on_c, 0, 74, 0
1, 184320, Note_on_c, 0, 98, 0
1, 184320, Note_on_c, 0, 86, 0
1, 184320, Note_on_c, 0, 99, 70
1, 184320, Note_on_c, 0, 87, 59
1, 184320, Note_on_c, 0, 75, 65
1, 184333, Control_c, 0, 64, 0
1, 184423, Control_c, 0, 64, 127
1, 184560, Tempo, 335196
1, 184560, Note_on_c, 0, 75, 0
1, 184560, Note_on_c, 0, 87, 0
1, 184560, Note_on_c, 0, 99, 0
1, 184560, Note_on_c, 0, 98, 65
1, 184560, Note_on_c, 0, 86, 55
1, 184560, Note_on_c, 0, 74, 60
1, 184800, Tempo, 329670
1, 184800, Note_on_c, 0, 74, 0
1, 184800, Note_on_c, 0, 86, 0
1, 184800, Note_on_c, 0, 98, 0
1, 184800, Note_on_c, 0, 94, 70
1, 184800, Note_on_c, 0, 82, 59
1, 184800, Note_on_c, 0, 70, 65
1, 184819, Control_c, 0, 64, 0
1, 184903, Control_c, 0, 64, 127
1, 185040, Tempo, 335196
1, 185040, Note_on_c, 0, 70, 0
1, 185040, Note_on_c, 0, 82, 0
1, 185040, Note_on_c, 0, 94, 0
1, 185040, Note_on_c, 0, 79, 56
1, 185040, Note_on_c, 0, 91, 67
1, 185040, Note_on_c, 0, 67, 60
1, 185280, Tempo, 326975
1, 185280, Note_on_c, 0, 67, 0
1, 185280, Note_on_c, 0, 91, 0
1, 185280, Note_on_c, 0, 79, 0
1, 185280, Note_on_c, 0, 80, 59
1, 185280, Note_on_c, 0, 92, 70
1, 185280, Note_on_c, 0, 68, 64
1, 185299, Control_c, 0, 64, 0
1, 185395, Control_c, 0, 64, 127
1, 185520, Tempo, 335196
1, 185520, Note_on_c, 0, 68, 0
1, 185520, Note_on_c, 0, 92, 0
1, 185520, Note_on_c, 0, 80, 0
1, 185520, Note_on_c, 0, 87, 54
1, 185520, Note_on_c, 0, 99, 64
1, 185520, Note_on_c, 0, 75, 58
1, 185760, Tempo, 330579
1, 185760, Note_on_c, 0, 75, 0
1, 185760, Note_on_c, 0, 99, 0
1, 185760, Note_on_c, 0, 87, 0
1, 185760, Note_on_c, 0, 83, 56
1, 185760, Note_on_c, 0, 95, 67
1, 185760, Note_on_c, 0, 71, 62
1, 185772, Control_c, 0, 64, 0
1, 185863, Control_c, 0, 64, 127
1, 186000, Tempo, 341880
1, 186000, Note_on_c, 0, 71, 0
1, 186000, Note_on_c, 0, 95, 0
1, 186000, Note_on_c, 0, 83, 0
1, 186000, Note_on_c, 0, 87, 50
1, 186000, Note_on_c, 0, 99, 59
1, 186000, Note_on_c, 0, 75, 58
1, 186240, Tempo, 355030
1, 186240, Note_on_c, 0, 75, 0
1, 186240, Note_on_c, 0, 99, 0
1, 186240, Note_on_c, 0, 87, 0
1, 186240, Note_on_c, 0, 86, 74
1, 186240, Note_on_c, 0, 98, 74
1, 186240, Note_on_c, 0, 74, 63
1, 186251, Control_c, 0, 64, 0
1, 186480, Note_on_c, 0, 74, 0
1, 186480, Note_on_c, 0, 98, 0
1, 186480, Note_on_c, 0, 86, 0
1, 186720, Note_on_c, 0, 79, 57
1, 186720, Note_on_c, 0, 91, 68
1, 186720, Note_on_c, 0, 67, 61
1, 186960, Note_on_c, 0, 67, 0
1, 186960, Note_on_c, 0, 91, 0
1, 186960, Note_on_c, 0, 79, 0
1, 187200, Tempo, 339943
1, 187200, Note_on_c, 0, 91, 78
1, 187200, Note_on_c, 0, 79, 66
1, 187200, Note_on_c, 0, 67, 68
1, 187200, Note_on_c, 0, 55, 57
1, 187214, Control_c, 0, 64, 127
1, 187680, Tempo, 324324
1, 187680, Note_on_c, 0, 55, 0
1, 187680, Note_on_c, 0, 91, 0
1, 187680, Note_on_c, 0, 79, 0
1, 187680, Note_on_c, 0, 67, 0
1, 187680, Note_on_c, 0, 91, 73
1, 187680, Note_on_c, 0, 79, 62
1, 187680, Note_on_c, 0, 67, 66
1, 187680, Note_on_c, 0, 55, 55
1, 187690, Control_c, 0, 64, 0
1, 187793, Control_c, 0, 64, 127
1, 187920, Tempo, 334262
1, 187920, Note_on_c, 0, 55, 0
1, 187920, Note_on_c, 0, 91, 0
1, 187920, Note_on_c, 0, 79, 0
1, 187920, Note_on_c, 0, 67, 0
1, 187920, Note_on_c, 0, 86, 67
1, 187920, Note_on_c, 0, 74, 56
1, 187920, Note_on_c, 0, 50, 50
1, 187920, Note_on_c, 0, 62, 60
1, 188160, Tempo, 329670
1, 188160, Note_on_c, 0, 62, 0
1, 188160, Note_on_c, 0, 86, 0
1, 188160, Note_on_c, 0, 74, 0
1, 188160, Note_on_c, 0, 50, 0
1, 188160, Note_on_c, 0, 75, 59
1, 188160, Note_on_c, 0, 87, 70
1, 188160, Note_on_c, 0, 51, 55
1, 188160, Note_on_c, 0, 63, 65
1, 188179, Control_c, 0, 64, 0
1, 188297, Control_c, 0, 64, 127
1, 188400, Tempo, 335196
1, 188400, Note_on_c, 0, 63, 0
1, 188400, Note_on_c, 0, 75, 0
1, 188400, Note_on_c, 0, 87, 0
1, 188400, Note_on_c, 0, 51, 0
1, 188400, Note_on_c, 0, 86, 65
1, 188400, Note_on_c, 0, 74, 55
1, 188400, Note_on_c, 0, 50, 50
1, 188400, Note_on_c, 0, 62, 60
1, 188640, Tempo, 329670
1, 188640, Note_on_c, 0, 62, 0
1, 188640, Note_on_c, 0, 86, 0
1, 188640, Note_on_c, 0, 74, 0
1, 188640, Note_on_c, 0, 50, 0
1, 188640, Note_on_c, 0, 70, 59
1, 188640, Note_on_c, 0, 82, 70
1, 188640, Note_on_c, 0, 58, 65
1, 188640, Note_on_c, 0, 46, 55
1, 188655, Control_c, 0, 64, 0
1, 188777, Control_c, 0, 64, 127
1, 188880, Tempo, 335196
1, 188880, Note_on_c, 0, 46, 0
1, 188880, Note_on_c, 0, 70, 0
1, 188880, Note_on_c, 0, 82, 0
1, 188880, Note_on_c, 0, 58, 0
1, 188880, Note_on_c, 0, 79, 67
1, 188880, Note_on_c, 0, 67, 56
1, 188880, Note_on_c, 0, 55, 60
1, 188880, Note_on_c, 0, 43, 50
1, 189120, Tempo, 326975
1, 189120, Note_on_c, 0, 43, 0
1, 189120, Note_on_c, 0, 79, 0
1, 189120, Note_on_c, 0, 67, 0
1, 189120, Note_on_c, 0, 55, 0
1, 189120, Note_on_c, 0, 68, 59
1, 189120, Note_on_c, 0, 80, 70
1, 189120, Note_on_c, 0, 56, 64
1, 189120, Note_on_c, 0, 44, 54
1, 189130, Control_c, 0, 64, 0
1, 189235, Control_c, 0, 64, 127
1, 189360, Tempo, 335196
1, 189360, Note_on_c, 0, 44, 0
1, 189360, Note_on_c, 0, 68, 0
1, 189360, Note_on_c, 0, 80, 0
1, 189360, Note_on_c, 0, 56, 0
1, 189360, Note_on_c, 0, 87, 64
1, 189360, Note_on_c, 0, 75, 54
1, 189360, Note_on_c, 0, 51, 49
1, 189360, Note_on_c, 0, 63, 58
1, 189600, Tempo, 330579
1, 189600, Note_on_c, 0, 63, 0
1, 189600, Note_on_c, 0, 87, 0
1, 189600, Note_on_c, 0, 75, 0
1, 189600, Note_on_c, 0, 51, 0
1, 189600, Note_on_c, 0, 83, 67
1, 189600, Note_on_c, 0, 71, 56
1, 189600, Note_on_c, 0, 47, 52
1, 189600, Note_on_c, 0, 59, 62
1, 189615, Control_c, 0, 64, 0
1, 189703, Control_c, 0, 64, 127
1, 189840, Tempo, 341880
1, 189840, Note_on_c, 0, 59, 0
1, 189840, Note_on_c, 0, 83, 0
1, 189840, Note_on_c, 0, 71, 0
1, 189840, Note_on_c, 0, 47, 0
1, 189840, Note_on_c, 0, 75, 50
1, 189840, Note_on_c, 0, 87, 59
1, 189840, Note_on_c, 0, 63, 58
1, 189840, Note_on_c, 0, 51, 58
1, 190080, Tempo, 358209
1, 190080, Note_on_c, 0, 51, 0
1, 190080, Note_on_c, 0, 75, 0
1, 190080, Note_on_c, 0, 87, 0
1, 190080, Note_on_c, 0, 63, 0
1, 190080, Note_on_c, 0, 74, 67
1, 190080, Note_on_c, 0, 86, 79
1, 190080, Note_on_c, 0, 62, 63
1, 190080, Note_on_c, 0, 50, 54
1, 190097, Control_c, 0, 64, 0
1, 190320, Note_on_c, 0, 50, 0
1, 190320, Note_on_c, 0, 74, 0
1, 190320, Note_on_c, 0, 86, 0
1, 190320, Note_on_c, 0, 62, 0
1, 190560, Note_on_c, 0, 79, 67
1, 190560, Note_on_c, 0, 67, 56
1, 190560, Note_on_c, 0, 43, 51
1, 190560, Note_on_c, 0, 55, 61
1, 190800, Note_on_c, 0, 55, 0
1, 190800, Note_on_c, 0, 79, 0
1, 190800, Note_on_c, 0, 67, 0
1, 190800, Note_on_c, 0, 43, 0
1, 191040, Tempo, 339943
1, 191040, Note_on_c, 0, 67, 66
1, 191040, Note_on_c, 0, 79, 78
1, 191040, Note_on_c, 0, 55, 68
1, 191040, Note_on_c, 0, 43, 57
1, 191153, Control_c, 0, 64, 127
1, 191520, Tempo, 328767
1, 191520, Note_on_c, 0, 43, 0
1, 191520, Note_on_c, 0, 67, 0
1, 191520, Note_on_c, 0, 79, 0
1, 191520, Note_on_c, 0, 55, 0
1, 191520, Note_on_c, 0, 79, 73
1, 191520, Note_on_c, 0, 67, 62
1, 191520, Note_on_c, 0, 55, 66
1, 191520, Note_on_c, 0, 43, 55
1, 191538, Control_c, 0, 64, 0
1, 191676, Control_c, 0, 64, 127
1, 191760, Tempo, 334262
1, 191760, Note_on_c, 0, 43, 0
1, 191760, Note_on_c, 0, 79, 0
1, 191760, Note_on_c, 0, 67, 0
1, 191760, Note_on_c, 0, 55, 0
1, 191760, Note_on_c, 0, 62, 56
1, 191760, Note_on_c, 0, 74, 67
1, 191760, Note_on_c, 0, 38, 50
1, 191760, Note_on_c, 0, 50, 60
1, 192000, Tempo, 327869
1, 192000, Note_on_c, 0, 50, 0
1, 192000, Note_on_c, 0, 62, 0
1, 192000, Note_on_c, 0, 74, 0
1, 192000, Note_on_c, 0, 38, 0
1, 192000, Note_on_c, 0, 75, 70
1, 192000, Note_on_c, 0, 63, 59
1, 192000, Note_on_c, 0, 39, 55
1, 192000, Note_on_c, 0, 51, 65
1, 192009, Control_c, 0, 64, 0
1, 192092, Control_c, 0, 64, 127
1, 192240, Tempo, 335196
1, 192240, Note_on_c, 0, 51, 0
1, 192240, Note_on_c, 0, 75, 0
1, 192240, Note_on_c, 0, 63, 0
1, 192240, Note_on_c, 0, 39, 0
1, 192240, Note_on_c, 0, 74, 65
1, 192240, Note_on_c, 0, 62, 55
1, 192240, Note_on_c, 0, 50, 60
1, 192240, Note_on_c, 0, 38, 50
1, 192480, Tempo, 329670
1, 192480, Note_on_c, 0, 38, 0
1, 192480, Note_on_c, 0, 74, 0
1, 192480, Note_on_c, 0, 62, 0
1, 192480, Note_on_c, 0, 50, 0
1, 192480, Note_on_c, 0, 70, 70
1, 192480, Note_on_c, 0, 58, 59
1, 192480, Note_on_c, 0, 46, 65
1, 192480, Note_on_c, 0, 34, 55
1, 192495, Control_c, 0, 64, 0
1, 192583, Control_c, 0, 64, 127
1, 192720, Tempo, 335196
1, 192720, Note_on_c, 0, 34, 0
1, 192720, Note_on_c, 0, 70, 0
1, 192720, Note_on_c, 0, 58, 0
1, 192720, Note_on_c, 0, 46, 0
1, 192720, Note_on_c, 0, 55, 56
1, 192720, Note_on_c, 0, 67, 67
1, 192720, Note_on_c, 0, 43, 60
1, 192720, Note_on_c, 0, 31, 50
1, 192960, Tempo, 355030
1, 192960, Note_on_c, 0, 31, 0
1, 192960, Note_on_c, 0, 55, 0
1, 192960, Note_on_c, 0, 67, 0
1, 192960, Note_on_c, 0, 43, 0
1, 192960, Note_on_c, 0, 54, 87
1, 192960, Note_on_c, 0, 30, 59
1, 192960, Note_on_c, 0, 42, 70
1, 192971, Control_c, 0, 64, 0
1, 193087, Control_c, 0, 64, 127
1, 193440, Tempo, 328767
1, 193440, Note_on_c, 0, 79, 73
1, 193440, Note_on_c, 0, 67, 62
1, 193440, Note_on_c, 0, 55, 66
1, 193440, Note_on_c, 0, 43, 55
1, 193458, Control_c, 0, 64, 0
1, 193539, Control_c, 0, 64, 127
1, 193680, Tempo, 334262
1, 193680, Note_on_c, 0, 43, 0
1, 193680, Note_on_c, 0, 67, 0
1, 193680, Note_on_c, 0, 30, 0
1, 193680, Note_on_c, 0, 42, 0
1, 193680, Note_on_c, 0, 54, 0
1, 193680, Note_on_c, 0, 55, 0
1, 193680, Note_on_c, 0, 79, 0
1, 193680, Note_on_c, 0, 74, 67
1, 193680, Note_on_c, 0, 62, 56
1, 193680, Note_on_c, 0, 38, 50
1, 193680, Note_on_c, 0, 50, 60
1, 193920, Tempo, 329670
1, 193920, Note_on_c, 0, 50, 0
1, 193920, Note_on_c, 0, 74, 0
1, 193920, Note_on_c, 0, 62, 0
1, 193920, Note_on_c, 0, 38, 0
1, 193920, Note_on_c, 0, 63, 59
1, 193920, Note_on_c, 0, 75, 70
1, 193920, Note_on_c, 0, 51, 65
1, 193920, Note_on_c, 0, 39, 55
1, 193929, Control_c, 0, 64, 0
1, 194023, Control_c, 0, 64, 127
1, 194160, Tempo, 335196
1, 194160, Note_on_c, 0, 39, 0
1, 194160, Note_on_c, 0, 63, 0
1, 194160, Note_on_c, 0, 75, 0
1, 194160, Note_on_c, 0, 51, 0
1, 194160, Note_on_c, 0, 74, 65
1, 194160, Note_on_c, 0, 62, 55
1, 194160, Note_on_c, 0, 50, 60
1, 194160, Note_on_c, 0, 38, 50
1, 194400, Tempo, 334262
1, 194400, Note_on_c, 0, 38, 0
1, 194400, Note_on_c, 0, 74, 0
1, 194400, Note_on_c, 0, 62, 0
1, 194400, Note_on_c, 0, 50, 0
1, 194400, Note_on_c, 0, 70, 70
1, 194400, Note_on_c, 0, 58, 59
1, 194400, Note_on_c, 0, 34, 55
1, 194400, Note_on_c, 0, 46, 65
1, 194418, Control_c, 0, 64, 0
1, 194503, Control_c, 0, 64, 127
1, 194640, Tempo, 342857
1, 194640, Note_on_c, 0, 46, 0
1, 194640, Note_on_c, 0, 70, 0
1, 194640, Note_on_c, 0, 58, 0
1, 194640, Note_on_c, 0, 34, 0
1, 194640, Note_on_c, 0, 55, 56
1, 194640, Note_on_c, 0, 67, 67
1, 194640, Note_on_c, 0, 31, 50
1, 194640, Note_on_c, 0, 43, 60
1, 194880, Tempo, 351906
1, 194880, Note_on_c, 0, 43, 0
1, 194880, Note_on_c, 0, 55, 0
1, 194880, Note_on_c, 0, 67, 0
1, 194880, Note_on_c, 0, 31, 0
1, 194880, Note_on_c, 0, 53, 87
1, 194880, Note_on_c, 0, 41, 70
1, 194880, Note_on_c, 0, 29, 59
1, 194894, Control_c, 0, 64, 0
1, 195007, Control_c, 0, 64, 127
1, 195360, Tempo, 328767
1, 195360, Note_on_c, 0, 79, 73
1, 195360, Note_on_c, 0, 67, 62
1, 195360, Note_on_c, 0, 55, 66
1, 195360, Note_on_c, 0, 43, 55
1, 195377, Control_c, 0, 64, 0
1, 195487, Control_c, 0, 64, 127
1, 195600, Tempo, 334262
1, 195600, Note_on_c, 0, 43, 0
1, 195600, Note_on_c, 0, 67, 0
1, 195600, Note_on_c, 0, 41, 0
1, 195600, Note_on_c, 0, 29, 0
1, 195600, Note_on_c, 0, 53, 0
1, 195600, Note_on_c, 0, 55, 0
1, 195600, Note_on_c, 0, 79, 0
1, 195600, Note_on_c, 0, 74, 67
1, 195600, Note_on_c, 0, 62, 56
1, 195600, Note_on_c, 0, 50, 60
1, 195600, Note_on_c, 0, 38, 50
1, 195840, Tempo, 329670
1, 195840, Note_on_c, 0, 38, 0
1, 195840, Note_on_c, 0, 74, 0
1, 195840, Note_on_c, 0, 62, 0
1, 195840, Note_on_c, 0, 50, 0
1, 195840, Note_on_c, 0, 63, 59
1, 195840, Note_on_c, 0, 75, 70
1, 195840, Note_on_c, 0, 39, 55
1, 195840, Note_on_c, 0, 51, 65
1, 195848, Control_c, 0, 64, 0
1, 195932, Control_c, 0, 64, 127
1, 196080, Tempo, 335196
1, 196080, Note_on_c, 0, 51, 0
1, 196080, Note_on_c, 0, 63, 0
1, 196080, Note_on_c, 0, 75, 0
1, 196080, Note_on_c, 0, 39, 0
1, 196080, Note_on_c, 0, 74, 65
1, 196080, Note_on_c, 0, 62, 55
1, 196080, Note_on_c, 0, 50, 60
1, 196080, Note_on_c, 0, 38, 50
1, 196320, Tempo, 336134
1, 196320, Note_on_c, 0, 38, 0
1, 196320, Note_on_c, 0, 74, 0
1, 196320, Note_on_c, 0, 62, 0
1, 196320, Note_on_c, 0, 50, 0
1, 196320, Note_on_c, 0, 58, 59
1, 196320, Note_on_c, 0, 70, 70
1, 196320, Note_on_c, 0, 34, 55
1, 196320, Note_on_c, 0, 46, 65
1, 196335, Control_c, 0, 64, 0
1, 196412, Control_c, 0, 64, 127
1, 196560, Tempo, 344828
1, 196560, Note_on_c, 0, 46, 0
1, 196560, Note_on_c, 0, 58, 0
1, 196560, Note_on_c, 0, 70, 0
1, 196560, Note_on_c, 0, 34, 0
1, 196560, Note_on_c, 0, 67, 67
1, 196560, Note_on_c, 0, 55, 56
1, 196560, Note_on_c, 0, 31, 50
1, 196560, Note_on_c, 0, 43, 60
1, 196800, Tempo, 353982
1, 196800, Note_on_c, 0, 43, 0
1, 196800, Note_on_c, 0, 67, 0
1, 196800, Note_on_c, 0, 55, 0
1, 196800, Note_on_c, 0, 31, 0
1, 196800, Note_on_c, 0, 52, 87
1, 196800, Note_on_c, 0, 28, 59
1, 196800, Note_on_c, 0, 40, 70
1, 196817, Control_c, 0, 64, 0
1, 196927, Control_c, 0, 64, 127
1, 197280, Tempo, 328767
1, 197280, Note_on_c, 0, 67, 62
1, 197280, Note_on_c, 0, 79, 73
1, 197280, Note_on_c, 0, 55, 66
1, 197280, Note_on_c, 0, 43, 55
1, 197296, Control_c, 0, 64, 0
1, 197407, Control_c, 0, 64, 127
1, 197520, Tempo, 334262
1, 197520, Note_on_c, 0, 43, 0
1, 197520, Note_on_c, 0, 79, 0
1, 197520, Note_on_c, 0, 28, 0
1, 197520, Note_on_c, 0, 40, 0
1, 197520, Note_on_c, 0, 52, 0
1, 197520, Note_on_c, 0, 55, 0
1, 197520, Note_on_c, 0, 67, 0
1, 197520, Note_on_c, 0, 62, 56
1, 197520, Note_on_c, 0, 74, 67
1, 197520, Note_on_c, 0, 38, 50
1, 197520, Note_on_c, 0, 50, 60
1, 197760, Tempo, 329670
1, 197760, Note_on_c, 0, 50, 0
1, 197760, Note_on_c, 0, 62, 0
1, 197760, Note_on_c, 0, 74, 0
1, 197760, Note_on_c, 0, 38, 0
1, 197760, Note_on_c, 0, 63, 59
1, 197760, Note_on_c, 0, 75, 70
1, 197760, Note_on_c, 0, 39, 55
1, 197760, Note_on_c, 0, 51, 65
1, 197768, Control_c, 0, 64, 0
1, 197852, Control_c, 0, 64, 127
1, 198000, Tempo, 335196
1, 198000, Note_on_c, 0, 51, 0
1, 198000, Note_on_c, 0, 63, 0
1, 198000, Note_on_c, 0, 75, 0
1, 198000, Note_on_c, 0, 39, 0
1, 198000, Note_on_c, 0, 74, 65
1, 198000, Note_on_c, 0, 62, 55
1, 198000, Note_on_c, 0, 38, 50
1, 198000, Note_on_c, 0, 50, 60
1, 198240, Tempo, 336134
1, 198240, Note_on_c, 0, 50, 0
1, 198240, Note_on_c, 0, 74, 0
1, 198240, Note_on_c, 0, 62, 0
1, 198240, Note_on_c, 0, 38, 0
1, 198240, Note_on_c, 0, 58, 59
1, 198240, Note_on_c, 0, 70, 70
1, 198240, Note_on_c, 0, 46, 65
1, 198240, Note_on_c, 0, 34, 55
1, 198256, Control_c, 0, 64, 0
1, 198332, Control_c, 0, 64, 127
1, 198480, Tempo, 344828
1, 198480, Note_on_c, 0, 34, 0
1, 198480, Note_on_c, 0, 58, 0
1, 198480, Note_on_c, 0, 70, 0
1, 198480, Note_on_c, 0, 46, 0
1, 198480, Note_on_c, 0, 67, 67
1, 198480, Note_on_c, 0, 55, 56
1, 198480, Note_on_c, 0, 43, 60
1, 198480, Note_on_c, 0, 31, 50
1, 198720, Tempo, 358209
1, 198720, Note_on_c, 0, 31, 0
1, 198720, Note_on_c, 0, 67, 0
1, 198720, Note_on_c, 0, 55, 0
1, 198720, Note_on_c, 0, 43, 0
1, 198720, Note_on_c, 0, 51, 87
1, 198720, Note_on_c, 0, 27, 59
1, 198720, Note_on_c, 0, 39, 70
1, 198729, Control_c, 0, 64, 0
1, 198847, Control_c, 0, 64, 127
1, 199200, Tempo, 339943
1, 199200, Note_on_c, 0, 39, 0
1, 199200, Note_on_c, 0, 27, 0
1, 199200, Note_on_c, 0, 51, 0
1, 199200, Note_on_c, 0, 50, 87
1, 199200, Note_on_c, 0, 38, 70
1, 199200, Note_on_c, 0, 26, 59
1, 199217, Control_c, 0, 64, 0
1, 199440, Note_on_c, 0, 26, 0
1, 199440, Note_on_c, 0, 38, 0
1, 199440, Note_on_c, 0, 50, 0
1, 199680, Note_on_c, 0, 59, 73
1, 199680, Note_on_c, 0, 71, 87
1, 199680, Note_on_c, 0, 35, 59
1, 199680, Note_on_c, 0, 47, 70
1, 199680, Control_c, 0, 64, 127
1, 200160, Note_on_c, 0, 80, 70
1, 200160, Note_on_c, 0, 92, 83
1, 200160, Note_on_c, 0, 68, 72
1, 200160, Note_on_c, 0, 56, 61
1, 200172, Control_c, 0, 64, 0
1, 200400, Note_on_c, 0, 56, 0
1, 200400, Note_on_c, 0, 59, 0
1, 200400, Note_on_c, 0, 80, 0
1, 200400, Note_on_c, 0, 71, 0
1, 200400, Note_on_c, 0, 35, 0
1, 200400, Note_on_c, 0, 47, 0
1, 200400, Note_on_c, 0, 92, 0
1, 200400, Note_on_c, 0, 68, 0
1, 200640, Note_on_c, 0, 91, 76
1, 200640, Control_c, 0, 64, 127
1, 200760, Note_on_c, 0, 91, 0
1, 200760, Note_on_c, 0, 103, 72
1, 200880, Note_on_c, 0, 103, 0
1, 200880, Note_on_c, 0, 86, 69
1, 200891, Control_c, 0, 64, 0
1, 200955, Control_c, 0, 64, 127
1, 201000, Note_on_c, 0, 86, 0
1, 201000, Note_on_c, 0, 98, 65
1, 201120, Note_on_c, 0, 98, 0
1, 201120, Note_on_c, 0, 87, 73
1, 201128, Control_c, 0, 64, 0
1, 201195, Control_c, 0, 64, 127
1, 201240, Note_on_c, 0, 87, 0
1, 201240, Note_on_c, 0, 99, 69
1, 201250, Tempo, 338028
1, 201360, Note_on_c, 0, 99, 0
1, 201360, Note_on_c, 0, 83, 70
1, 201364, Control_c, 0, 64, 0
1, 201435, Control_c, 0, 64, 127
1, 201480, Note_on_c, 0, 83, 0
1, 201480, Note_on_c, 0, 95, 66
1, 201600, Note_on_c, 0, 95, 0
1, 201600, Note_on_c, 0, 84, 73
1, 201602, Control_c, 0, 64, 0
1, 201663, Control_c, 0, 64, 127
1, 201720, Note_on_c, 0, 84, 0
1, 201720, Note_on_c, 0, 96, 69
1, 201840, Note_on_c, 0, 96, 0
1, 201840, Note_on_c, 0, 79, 69
1, 201844, Control_c, 0, 64, 0
1, 201850, Tempo, 337079
1, 201920, Control_c, 0, 64, 127
1, 201960, Note_on_c, 0, 79, 0
1, 201960, Note_on_c, 0, 91, 65
1, 202080, Note_on_c, 0, 91, 0
1, 202080, Note_on_c, 0, 80, 72
1, 202086, Control_c, 0, 64, 0
1, 202155, Control_c, 0, 64, 127
1, 202200, Note_on_c, 0, 80, 0
1, 202200, Note_on_c, 0, 92, 69
1, 202320, Note_on_c, 0, 92, 0
1, 202320, Note_on_c, 0, 74, 70
1, 202331, Control_c, 0, 64, 0
1, 202423, Control_c, 0, 64, 127
1, 202440, Note_on_c, 0, 74, 0
1, 202440, Note_on_c, 0, 86, 65
1, 202450, Tempo, 336134
1, 202560, Tempo, 335196
1, 202560, Note_on_c, 0, 86, 0
1, 202560, Note_on_c, 0, 75, 76
1, 202564, Control_c, 0, 64, 0
1, 202617, Control_c, 0, 64, 127
1, 202680, Note_on_c, 0, 75, 0
1, 202680, Note_on_c, 0, 87, 72
1, 202800, Note_on_c, 0, 87, 0
1, 202800, Note_on_c, 0, 71, 66
1, 202812, Control_c, 0, 64, 0
1, 202886, Control_c, 0, 64, 127
1, 202920, Note_on_c, 0, 71, 0
1, 202920, Note_on_c, 0, 83, 65
1, 203040, Note_on_c, 0, 83, 0
1, 203040, Note_on_c, 0, 72, 72
1, 203051, Control_c, 0, 64, 0
1, 203137, Control_c, 0, 64, 127
1, 203160, Note_on_c, 0, 72, 0
1, 203160, Note_on_c, 0, 84, 69
1, 203280, Note_on_c, 0, 84, 0
1, 203280, Note_on_c, 0, 67, 66
1, 203290, Control_c, 0, 64, 0
1, 203400, Note_on_c, 0, 67, 0
1, 203400, Note_on_c, 0, 79, 65
1, 203406, Control_c, 0, 64, 127
1, 203520, Note_on_c, 0, 79, 0
1, 203520, Note_on_c, 0, 68, 72
1, 203524, Control_c, 0, 64, 0
1, 203600, Control_c, 0, 64, 127
1, 203640, Note_on_c, 0, 68, 0
1, 203640, Note_on_c, 0, 80, 68
1, 203760, Note_on_c, 0, 80, 0
1, 203760, Note_on_c, 0, 62, 67
1, 203767, Control_c, 0, 64, 0
1, 203835, Control_c, 0, 64, 127
1, 203880, Note_on_c, 0, 62, 0
1, 203880, Note_on_c, 0, 74, 63
1, 204000, Note_on_c, 0, 74, 0
1, 204000, Note_on_c, 0, 63, 72
1, 204006, Control_c, 0, 64, 0
1, 204086, Control_c, 0, 64, 127
1, 204120, Note_on_c, 0, 63, 0
1, 204120, Note_on_c, 0, 75, 69
1, 204240, Note_on_c, 0, 75, 0
1, 204240, Note_on_c, 0, 59, 67
1, 204253, Control_c, 0, 64, 0
1, 204309, Control_c, 0, 64, 127
1, 204360, Note_on_c, 0, 59, 0
1, 204360, Note_on_c, 0, 71, 66
1, 204480, Tempo, 333333
1, 204480, Note_on_c, 0, 71, 0
1, 204480, Note_on_c, 0, 60, 76
1, 204480, Control_c, 0, 64, 0
1, 204549, Control_c, 0, 64, 127
1, 204600, Note_on_c, 0, 60, 0
1, 204600, Note_on_c, 0, 72, 72
1, 204720, Note_on_c, 0, 72, 0
1, 204720, Note_on_c, 0, 55, 67
1, 204734, Control_c, 0, 64, 0
1, 204817, Control_c, 0, 64, 127
1, 204840, Note_on_c, 0, 55, 0
1, 204840, Note_on_c, 0, 67, 63
1, 204960, Note_on_c, 0, 67, 0
1, 204960, Note_on_c, 0, 56, 73
1, 204973, Control_c, 0, 64, 0
1, 205035, Control_c, 0, 64, 127
1, 205080, Note_on_c, 0, 56, 0
1, 205080, Note_on_c, 0, 68, 69
1, 205120, Tempo, 332410
1, 205200, Note_on_c, 0, 68, 0
1, 205200, Note_on_c, 0, 50, 67
1, 205205, Control_c, 0, 64, 0
1, 205315, Control_c, 0, 64, 127
1, 205320, Note_on_c, 0, 50, 0
1, 205320, Note_on_c, 0, 62, 66
1, 205440, Note_on_c, 0, 62, 0
1, 205440, Note_on_c, 0, 51, 73
1, 205440, Control_c, 0, 64, 0
1, 205503, Control_c, 0, 64, 127
1, 205560, Note_on_c, 0, 51, 0
1, 205560, Note_on_c, 0, 63, 69
1, 205680, Note_on_c, 0, 63, 0
1, 205680, Note_on_c, 0, 47, 70
1, 205687, Control_c, 0, 64, 0
1, 205760, Tempo, 331492
1, 205777, Control_c, 0, 64, 127
1, 205800, Note_on_c, 0, 47, 0
1, 205800, Note_on_c, 0, 59, 66
1, 205920, Note_on_c, 0, 59, 0
1, 205920, Note_on_c, 0, 48, 74
1, 205926, Control_c, 0, 64, 0
1, 206012, Control_c, 0, 64, 127
1, 206040, Note_on_c, 0, 48, 0
1, 206040, Note_on_c, 0, 60, 75
1, 206160, Note_on_c, 0, 60, 0
1, 206160, Note_on_c, 0, 43, 68
1, 206171, Control_c, 0, 64, 0
1, 206252, Control_c, 0, 64, 127
1, 206280, Note_on_c, 0, 43, 0
1, 206280, Note_on_c, 0, 55, 69
1, 206400, Tempo, 330579
1, 206400, Note_on_c, 0, 55, 0
1, 206400, Note_on_c, 0, 44, 72
1, 206407, Control_c, 0, 64, 0
1, 206475, Control_c, 0, 64, 127
1, 206520, Note_on_c, 0, 44, 0
1, 206520, Note_on_c, 0, 56, 77
1, 206640, Note_on_c, 0, 56, 0
1, 206640, Note_on_c, 0, 38, 66
1, 206651, Control_c, 0, 64, 0
1, 206737, Control_c, 0, 64, 127
1, 206760, Note_on_c, 0, 38, 0
1, 206760, Note_on_c, 0, 50, 71
1, 206880, Note_on_c, 0, 50, 0
1, 206880, Note_on_c, 0, 39, 71
1, 206895, Control_c, 0, 64, 0
1, 206955, Control_c, 0, 64, 127
1, 207000, Note_on_c, 0, 39, 0
1, 207000, Note_on_c, 0, 51, 76
1, 207120, Note_on_c, 0, 51, 0
1, 207120, Note_on_c, 0, 35, 64
1, 207133, Control_c, 0, 64, 0
1, 207200, Control_c, 0, 64, 127
1, 207240, Note_on_c, 0, 35, 0
1, 207240, Note_on_c, 0, 47, 68
1, 207360, Note_on_c, 0, 47, 0
1, 207360, Note_on_c, 0, 36, 66
1, 207364, Control_c, 0, 64, 0
1, 207457, Control_c, 0, 64, 127
1, 207480, Note_on_c, 0, 36, 0
1, 207480, Note_on_c, 0, 48, 72
1, 207600, Note_on_c, 0, 48, 0
1, 207600, Note_on_c, 0, 31, 60
1, 207611, Control_c, 0, 64, 0
1, 207703, Control_c, 0, 64, 127
1, 207720, Note_on_c, 0, 31, 0
1, 207720, Note_on_c, 0, 43, 63
1, 207840, Note_on_c, 0, 43, 0
1, 207840, Note_on_c, 0, 32, 67
1, 207846, Control_c, 0, 64, 0
1, 207915, Control_c, 0, 64, 127
1, 207960, Note_on_c, 0, 32, 0
1, 207960, Note_on_c, 0, 44, 72
1, 208080, Note_on_c, 0, 44, 0
1, 208080, Note_on_c, 0, 31, 61
1, 208085, Control_c, 0, 64, 0
1, 208166, Control_c, 0, 64, 127
1, 208200, Note_on_c, 0, 31, 0
1, 208200, Note_on_c, 0, 43, 63
1, 208280, Tempo, 333333
1, 208320, Note_on_c, 0, 43, 0
1, 208320, Note_on_c, 0, 32, 66
1, 208324, Control_c, 0, 64, 0
1, 208412, Control_c, 0, 64, 127
1, 208440, Note_on_c, 0, 32, 0
1, 208440, Note_on_c, 0, 44, 70
1, 208480, Tempo, 334262
1, 208560, Note_on_c, 0, 44, 0
1, 208560, Note_on_c, 0, 31, 63
1, 208566, Control_c, 0, 64, 0
1, 208640, Tempo, 335196
1, 208652, Control_c, 0, 64, 127
1, 208680, Note_on_c, 0, 31, 0
1, 208680, Note_on_c, 0, 43, 63
1, 208800, Note_on_c, 0, 43, 0
1, 208800, Note_on_c, 0, 35, 71
1, 208817, Control_c, 0, 64, 0
1, 208840, Tempo, 336134
1, 208892, Control_c, 0, 64, 127
1, 208920, Note_on_c, 0, 35, 0
1, 208920, Note_on_c, 0, 47, 75
1, 209000, Tempo, 337079
1, 209040, Note_on_c, 0, 47, 0
1, 209040, Note_on_c, 0, 31, 60
1, 209043, Control_c, 0, 64, 0
1, 209132, Control_c, 0, 64, 127
1, 209160, Tempo, 338028
1, 209160, Note_on_c, 0, 31, 0
1, 209160, Note_on_c, 0, 43, 63
1, 209280, Note_on_c, 0, 43, 0
1, 209280, Note_on_c, 0, 32, 67
1, 209285, Control_c, 0, 64, 0
1, 209337, Control_c, 0, 64, 127
1, 209400, Note_on_c, 0, 32, 0
1, 209400, Note_on_c, 0, 44, 69
1, 209440, Tempo, 334262
1, 209520, Note_on_c, 0, 44, 0
1, 209520, Note_on_c, 0, 31, 61
1, 209526, Control_c, 0, 64, 0
1, 209600, Tempo, 335196
1, 209600, Control_c, 0, 64, 127
1, 209640, Note_on_c, 0, 31, 0
1, 209640, Note_on_c, 0, 43, 63
1, 209760, Note_on_c, 0, 43, 0
1, 209760, Note_on_c, 0, 35, 73
1, 209773, Control_c, 0, 64, 0
1, 209800, Tempo, 336134
1, 209835, Control_c, 0, 64, 127
1, 209880, Note_on_c, 0, 35, 0
1, 209880, Note_on_c, 0, 47, 73
1, 209960, Tempo, 337079
1, 210000, Note_on_c, 0, 47, 0
1, 210000, Note_on_c, 0, 31, 63
1, 210008, Control_c, 0, 64, 0
1, 210092, Control_c, 0, 64, 127
1, 210120, Tempo, 338028
1, 210120, Note_on_c, 0, 31, 0
1, 210120, Note_on_c, 0, 43, 61
1, 210200, Tempo, 338983
1, 210240, Note_on_c, 0, 43, 0
1, 210240, Note_on_c, 0, 32, 72
1, 210240, Control_c, 0, 64, 0
1, 210280, Tempo, 338028
1, 210297, Control_c, 0, 64, 127
1, 210360, Note_on_c, 0, 32, 0
1, 210360, Note_on_c, 0, 44, 68
1, 210480, Note_on_c, 0, 44, 0
1, 210480, Note_on_c, 0, 31, 67
1, 210491, Control_c, 0, 64, 0
1, 210549, Control_c, 0, 64, 127
1, 210600, Note_on_c, 0, 31, 0
1, 210600, Note_on_c, 0, 43, 62
1, 210720, Note_on_c, 0, 43, 0
1, 210720, Note_on_c, 0, 32, 70
1, 210731, Control_c, 0, 64, 0
1, 210760, Tempo, 337079
1, 210829, Control_c, 0, 64, 127
1, 210840, Note_on_c, 0, 32, 0
1, 210840, Note_on_c, 0, 44, 67
1, 210960, Note_on_c, 0, 44, 0
1, 210960, Note_on_c, 0, 34, 66
1, 210971, Control_c, 0, 64, 0
1, 211040, Control_c, 0, 64, 127
1, 211080, Note_on_c, 0, 34, 0
1, 211080, Note_on_c, 0, 46, 63
1, 211200, Note_on_c, 0, 46, 0
1, 211200, Note_on_c, 0, 35, 72
1, 211207, Control_c, 0, 64, 0
1, 211240, Tempo, 336134
1, 211246, Control_c, 0, 64, 127
1, 211320, Note_on_c, 0, 35, 0
1, 211320, Note_on_c, 0, 47, 64
1, 211440, Note_on_c, 0, 47, 0
1, 211440, Note_on_c, 0, 38, 66
1, 211450, Control_c, 0, 64, 0
1, 211520, Control_c, 0, 64, 127
1, 211560, Note_on_c, 0, 38, 0
1, 211560, Note_on_c, 0, 50, 62
1, 211680, Note_on_c, 0, 50, 0
1, 211680, Note_on_c, 0, 39, 69
1, 211695, Control_c, 0, 64, 0
1, 211720, Tempo, 335196
1, 211755, Control_c, 0, 64, 127
1, 211800, Note_on_c, 0, 39, 0
1, 211800, Note_on_c, 0, 51, 64
1, 211920, Note_on_c, 0, 51, 0
1, 211920, Note_on_c, 0, 41, 73
1, 211931, Control_c, 0, 64, 0
1, 212012, Control_c, 0, 64, 127
1, 212040, Note_on_c, 0, 41, 0
1, 212040, Note_on_c, 0, 53, 68
1, 212160, Note_on_c, 0, 53, 0
1, 212160, Note_on_c, 0, 31, 61
1, 212160, Note_on_c, 0, 43, 72
1, 212166, Control_c, 0, 64, 0
1, 212200, Tempo, 334262
1, 212235, Control_c, 0, 64, 127
1, 212280, Note_on_c, 0, 43, 0
1, 212280, Note_on_c, 0, 31, 0
1, 212280, Note_on_c, 0, 55, 68
1, 212400, Note_on_c, 0, 55, 0
1, 212400, Note_on_c, 0, 44, 68
1, 212400, Note_on_c, 0, 32, 57
1, 212404, Control_c, 0, 64, 0
1, 212475, Control_c, 0, 64, 127
1, 212520, Note_on_c, 0, 32, 0
1, 212520, Note_on_c, 0, 44, 0
1, 212520, Note_on_c, 0, 56, 64
1, 212640, Note_on_c, 0, 56, 0
1, 212640, Note_on_c, 0, 46, 69
1, 212640, Note_on_c, 0, 34, 58
1, 212651, Control_c, 0, 64, 0
1, 212680, Tempo, 333333
1, 212726, Control_c, 0, 64, 127
1, 212760, Note_on_c, 0, 34, 0
1, 212760, Note_on_c, 0, 46, 0
1, 212760, Note_on_c, 0, 58, 65
1, 212880, Note_on_c, 0, 58, 0
1, 212880, Note_on_c, 0, 47, 70
1, 212880, Note_on_c, 0, 35, 59
1, 212885, Control_c, 0, 64, 0
1, 212943, Control_c, 0, 64, 127
1, 213000, Note_on_c, 0, 35, 0
1, 213000, Note_on_c, 0, 47, 0
1, 213000, Note_on_c, 0, 59, 65
1, 213120, Note_on_c, 0, 59, 0
1, 213120, Note_on_c, 0, 38, 64
1, 213120, Note_on_c, 0, 50, 76
1, 213127, Control_c, 0, 64, 0
1, 213160, Tempo, 332410
1, 213183, Control_c, 0, 64, 127
1, 213240, Note_on_c, 0, 50, 0
1, 213240, Note_on_c, 0, 38, 0
1, 213240, Note_on_c, 0, 62, 76
1, 213360, Note_on_c, 0, 62, 0
1, 213360, Note_on_c, 0, 39, 59
1, 213360, Note_on_c, 0, 51, 70
1, 213371, Control_c, 0, 64, 0
1, 213452, Control_c, 0, 64, 127
1, 213480, Note_on_c, 0, 51, 0
1, 213480, Note_on_c, 0, 39, 0
1, 213480, Note_on_c, 0, 63, 69
1, 213600, Note_on_c, 0, 63, 0
1, 213600, Note_on_c, 0, 41, 59
1, 213600, Note_on_c, 0, 53, 70
1, 213615, Control_c, 0, 64, 0
1, 213640, Tempo, 331492
1, 213697, Control_c, 0, 64, 127
1, 213720, Note_on_c, 0, 53, 0
1, 213720, Note_on_c, 0, 41, 0
1, 213720, Note_on_c, 0, 65, 69
1, 213840, Note_on_c, 0, 65, 0
1, 213840, Note_on_c, 0, 55, 70
1, 213840, Note_on_c, 0, 43, 59
1, 213851, Control_c, 0, 64, 0
1, 213932, Control_c, 0, 64, 127
1, 213960, Note_on_c, 0, 43, 0
1, 213960, Note_on_c, 0, 55, 0
1, 213960, Note_on_c, 0, 67, 69
1, 214080, Note_on_c, 0, 67, 0
1, 214080, Note_on_c, 0, 44, 64
1, 214080, Note_on_c, 0, 56, 76
1, 214083, Control_c, 0, 64, 0
1, 214120, Tempo, 330579
1, 214137, Control_c, 0, 64, 127
1, 214200, Note_on_c, 0, 56, 0
1, 214200, Note_on_c, 0, 44, 0
1, 214200, Note_on_c, 0, 68, 76
1, 214320, Note_on_c, 0, 68, 0
1, 214320, Note_on_c, 0, 58, 70
1, 214320, Note_on_c, 0, 46, 59
1, 214325, Control_c, 0, 64, 0
1, 214394, Control_c, 0, 64, 127
1, 214440, Note_on_c, 0, 46, 0
1, 214440, Note_on_c, 0, 58, 0
1, 214440, Note_on_c, 0, 70, 70
1, 214560, Note_on_c, 0, 70, 0
1, 214560, Note_on_c, 0, 47, 59
1, 214560, Note_on_c, 0, 59, 70
1, 214570, Control_c, 0, 64, 0
1, 214600, Tempo, 329670
1, 214646, Control_c, 0, 64, 127
1, 214680, Note_on_c, 0, 59, 0
1, 214680, Note_on_c, 0, 47, 0
1, 214680, Note_on_c, 0, 71, 70
1, 214800, Note_on_c, 0, 71, 0
1, 214800, Note_on_c, 0, 62, 70
1, 214800, Note_on_c, 0, 50, 59
1, 214811, Control_c, 0, 64, 0
1, 214915, Control_c, 0, 64, 127
1, 214920, Note_on_c, 0, 50, 0
1, 214920, Note_on_c, 0, 62, 0
1, 214920, Note_on_c, 0, 74, 72
1, 215040, Tempo, 328767
1, 215040, Note_on_c, 0, 74, 0
1, 215040, Note_on_c, 0, 51, 65
1, 215040, Note_on_c, 0, 63, 78
1, 215051, Control_c, 0, 64, 0
1, 215109, Control_c, 0, 64, 127
1, 215160, Note_on_c, 0, 63, 0
1, 215160, Note_on_c, 0, 51, 0
1, 215160, Note_on_c, 0, 75, 78
1, 215280, Note_on_c, 0, 75, 0
1, 215280, Note_on_c, 0, 53, 60
1, 215280, Note_on_c, 0, 65, 71
1, 215287, Control_c, 0, 64, 0
1, 215360, Control_c, 0, 64, 127
1, 215400, Note_on_c, 0, 65, 0
1, 215400, Note_on_c, 0, 53, 0
1, 215400, Note_on_c, 0, 77, 72
1, 215520, Note_on_c, 0, 77, 0
1, 215520, Note_on_c, 0, 55, 61
1, 215520, Note_on_c, 0, 67, 72
1, 215531, Control_c, 0, 64, 0
1, 215623, Control_c, 0, 64, 127
1, 215640, Note_on_c, 0, 67, 0
1, 215640, Note_on_c, 0, 55, 0
1, 215640, Note_on_c, 0, 79, 72
1, 215760, Note_on_c, 0, 79, 0
1, 215760, Note_on_c, 0, 68, 72
1, 215760, Note_on_c, 0, 56, 61
1, 215767, Control_c, 0, 64, 0
1, 215846, Control_c, 0, 64, 127
1, 215880, Note_on_c, 0, 56, 0
1, 215880, Note_on_c, 0, 68, 0
1, 215880, Note_on_c, 0, 80, 72
1, 216000, Note_on_c, 0, 80, 0
1, 216000, Note_on_c, 0, 71, 80
1, 216000, Note_on_c, 0, 59, 67
1, 216000, Control_c, 0, 64, 0
1, 216069, Control_c, 0, 64, 127
1, 216120, Note_on_c, 0, 59, 0
1, 216120, Note_on_c, 0, 71, 0
1, 216120, Note_on_c, 0, 83, 80
1, 216240, Note_on_c, 0, 83, 0
1, 216240, Note_on_c, 0, 62, 72
1, 216251, Control_c, 0, 64, 0
1, 216349, Control_c, 0, 64, 127
1, 216360, Note_on_c, 0, 62, 0
1, 216360, Note_on_c, 0, 74, 63
1, 216360, Note_on_c, 0, 86, 71
1, 216480, Note_on_c, 0, 86, 0
1, 216480, Note_on_c, 0, 74, 0
1, 216480, Note_on_c, 0, 63, 72
1, 216491, Control_c, 0, 64, 0
1, 216572, Control_c, 0, 64, 127
1, 216600, Note_on_c, 0, 63, 0
1, 216600, Note_on_c, 0, 87, 71
1, 216600, Note_on_c, 0, 75, 63
1, 216720, Note_on_c, 0, 75, 0
1, 216720, Note_on_c, 0, 87, 0
1, 216720, Note_on_c, 0, 65, 72
1, 216733, Control_c, 0, 64, 0
1, 216840, Note_on_c, 0, 65, 0
1, 216840, Note_on_c, 0, 89, 72
1, 216840, Note_on_c, 0, 77, 64
1, 216852, Control_c, 0, 64, 127
1, 216960, Note_on_c, 0, 77, 0
1, 216960, Note_on_c, 0, 89, 0
1, 216960, Note_on_c, 0, 67, 81
1, 216960, Control_c, 0, 64, 0
1, 217063, Control_c, 0, 64, 127
1, 217080, Note_on_c, 0, 67, 0
1, 217080, Note_on_c, 0, 79, 64
1, 217080, Note_on_c, 0, 91, 72
1, 217200, Note_on_c, 0, 91, 0
1, 217200, Note_on_c, 0, 79, 0
1, 217200, Note_on_c, 0, 68, 74
1, 217212, Control_c, 0, 64, 0
1, 217303, Control_c, 0, 64, 127
1, 217320, Note_on_c, 0, 68, 0
1, 217320, Note_on_c, 0, 92, 70
1, 217320, Note_on_c, 0, 80, 63
1, 217440, Note_on_c, 0, 80, 0
1, 217440, Note_on_c, 0, 92, 0
1, 217440, Note_on_c, 0, 70, 74
1, 217450, Control_c, 0, 64, 0
1, 217520, Control_c, 0, 64, 127
1, 217560, Note_on_c, 0, 70, 0
1, 217560, Note_on_c, 0, 94, 70
1, 217560, Note_on_c, 0, 82, 63
1, 217680, Note_on_c, 0, 82, 0
1, 217680, Note_on_c, 0, 94, 0
1, 217680, Note_on_c, 0, 71, 74
1, 217686, Control_c, 0, 64, 0
1, 217772, Control_c, 0, 64, 127
1, 217800, Note_on_c, 0, 71, 0
1, 217800, Note_on_c, 0, 83, 63
1, 217800, Note_on_c, 0, 95, 71
1, 217880, Tempo, 327869
1, 217891, Control_c, 0, 64, 0
1, 217920, Note_on_c, 0, 95, 0
1, 217920, Note_on_c, 0, 83, 0
1, 217920, Note_on_c, 0, 74, 81
1, 218017, Control_c, 0, 64, 127
1, 218040, Tempo, 328767
1, 218040, Note_on_c, 0, 74, 0
1, 218040, Note_on_c, 0, 98, 77
1, 218040, Note_on_c, 0, 86, 69
1, 218160, Tempo, 329670
1, 218160, Note_on_c, 0, 86, 0
1, 218160, Note_on_c, 0, 98, 0
1, 218160, Note_on_c, 0, 75, 75
1, 218170, Control_c, 0, 64, 0
1, 218240, Control_c, 0, 64, 127
1, 218280, Note_on_c, 0, 75, 0
1, 218280, Note_on_c, 0, 99, 71
1, 218280, Note_on_c, 0, 87, 63
1, 218320, Tempo, 330579
1, 218400, Note_on_c, 0, 87, 0
1, 218400, Note_on_c, 0, 99, 0
1, 218400, Note_on_c, 0, 77, 76
1, 218417, Control_c, 0, 64, 0
1, 218440, Tempo, 331492
1, 218515, Control_c, 0, 64, 127
1, 218520, Note_on_c, 0, 77, 0
1, 218520, Note_on_c, 0, 89, 64
1, 218520, Note_on_c, 0, 101, 72
1, 218600, Tempo, 332410
1, 218640, Note_on_c, 0, 101, 0
1, 218640, Note_on_c, 0, 89, 0
1, 218640, Note_on_c, 0, 79, 77
1, 218645, Control_c, 0, 64, 0
1, 218720, Tempo, 333333
1, 218726, Control_c, 0, 64, 127
1, 218760, Note_on_c, 0, 79, 0
1, 218760, Note_on_c, 0, 91, 64
1, 218760, Note_on_c, 0, 103, 72
1, 218840, Tempo, 334262
1, 218880, Tempo, 335196
1, 218880, Note_on_c, 0, 103, 0
1, 218880, Note_on_c, 0, 91, 0
1, 218880, Note_on_c, 0, 75, 85
1, 218889, Control_c, 0, 64, 0
1, 218960, Control_c, 0, 64, 127
1, 219000, Note_on_c, 0, 75, 0
1, 219000, Note_on_c, 0, 99, 74
1, 219000, Note_on_c, 0, 87, 66
1, 219120, Note_on_c, 0, 87, 0
1, 219120, Note_on_c, 0, 99, 0
1, 219120, Note_on_c, 0, 77, 75
1, 219131, Control_c, 0, 64, 0
1, 219206, Control_c, 0, 64, 127
1, 219240, Note_on_c, 0, 77, 0
1, 219240, Note_on_c, 0, 101, 67
1, 219240, Note_on_c, 0, 89, 60
1, 219360, Note_on_c, 0, 89, 0
1, 219360, Note_on_c, 0, 101, 0
1, 219360, Note_on_c, 0, 71, 81
1, 219365, Control_c, 0, 64, 0
1, 219446, Control_c, 0, 64, 127
1, 219480, Note_on_c, 0, 71, 0
1, 219480, Note_on_c, 0, 95, 72
1, 219480, Note_on_c, 0, 83, 64
1, 219600, Note_on_c, 0, 83, 0
1, 219600, Note_on_c, 0, 95, 0
1, 219600, Note_on_c, 0, 74, 74
1, 219615, Control_c, 0, 64, 0
1, 219697, Control_c, 0, 64, 127
1, 219720, Note_on_c, 0, 74, 0
1, 219720, Note_on_c, 0, 86, 61
1, 219720, Note_on_c, 0, 98, 68
1, 219840, Note_on_c, 0, 98, 0
1, 219840, Note_on_c, 0, 86, 0
1, 219840, Note_on_c, 0, 75, 83
1, 219840, Control_c, 0, 64, 0
1, 219909, Control_c, 0, 64, 127
1, 219960, Note_on_c, 0, 75, 0
1, 219960, Note_on_c, 0, 87, 67
1, 219960, Note_on_c, 0, 99, 75
1, 220080, Note_on_c, 0, 99, 0
1, 220080, Note_on_c, 0, 87, 0
1, 220080, Note_on_c, 0, 77, 74
1, 220089, Control_c, 0, 64, 0
1, 220160, Control_c, 0, 64, 127
1, 220200, Note_on_c, 0, 77, 0
1, 220200, Note_on_c, 0, 101, 68
1, 220200, Note_on_c, 0, 89, 61
1, 220320, Note_on_c, 0, 89, 0
1, 220320, Note_on_c, 0, 101, 0
1, 220320, Note_on_c, 0, 71, 79
1, 220328, Control_c, 0, 64, 0
1, 220406, Control_c, 0, 64, 127
1, 220440, Note_on_c, 0, 71, 0
1, 220440, Note_on_c, 0, 83, 64
1, 220440, Note_on_c, 0, 95, 72
1, 220560, Note_on_c, 0, 95, 0
1, 220560, Note_on_c, 0, 83, 0
1, 220560, Note_on_c, 0, 74, 75
1, 220573, Control_c, 0, 64, 0
1, 220635, Control_c, 0, 64, 127
1, 220680, Note_on_c, 0, 74, 0
1, 220680, Note_on_c, 0, 98, 68
1, 220680, Note_on_c, 0, 86, 61
1, 220800, Note_on_c, 0, 86, 0
1, 220800, Note_on_c, 0, 98, 0
1, 220800, Note_on_c, 0, 63, 74
1, 220800, Note_on_c, 0, 75, 79
1, 220805, Control_c, 0, 64, 0
1, 220875, Control_c, 0, 64, 127
1, 220920, Note_on_c, 0, 75, 0
1, 220920, Note_on_c, 0, 63, 0
1, 220920, Note_on_c, 0, 99, 72
1, 220920, Note_on_c, 0, 87, 64
1, 221040, Note_on_c, 0, 87, 0
1, 221040, Note_on_c, 0, 99, 0
1, 221040, Note_on_c, 0, 77, 73
1, 221040, Note_on_c, 0, 65, 69
1, 221050, Control_c, 0, 64, 0
1, 221115, Control_c, 0, 64, 127
1, 221160, Note_on_c, 0, 65, 0
1, 221160, Note_on_c, 0, 77, 0
1, 221160, Note_on_c, 0, 89, 62
1, 221160, Note_on_c, 0, 101, 69
1, 221280, Tempo, 332410
1, 221280, Note_on_c, 0, 101, 0
1, 221280, Note_on_c, 0, 89, 0
1, 221280, Note_on_c, 0, 65, 67
1, 221280, Note_on_c, 0, 53, 53
1, 221291, Control_c, 0, 64, 0
1, 221360, Control_c, 0, 64, 127
1, 221400, Note_on_c, 0, 53, 0
1, 221400, Note_on_c, 0, 65, 0
1, 221400, Note_on_c, 0, 89, 63
1, 221400, Note_on_c, 0, 77, 56
1, 221440, Tempo, 333333
1, 221520, Note_on_c, 0, 77, 0
1, 221520, Note_on_c, 0, 89, 0
1, 221520, Note_on_c, 0, 54, 52
1, 221520, Note_on_c, 0, 66, 65
1, 221531, Control_c, 0, 64, 0
1, 221600, Tempo, 334262
1, 221606, Control_c, 0, 64, 127
1, 221640, Note_on_c, 0, 66, 0
1, 221640, Note_on_c, 0, 54, 0
1, 221640, Note_on_c, 0, 90, 62
1, 221640, Note_on_c, 0, 78, 55
1, 221760, Tempo, 335196
1, 221760, Note_on_c, 0, 78, 0
1, 221760, Note_on_c, 0, 90, 0
1, 221760, Note_on_c, 0, 55, 54
1, 221760, Note_on_c, 0, 67, 69
1, 221764, Control_c, 0, 64, 0
1, 221840, Control_c, 0, 64, 127
1, 221880, Note_on_c, 0, 67, 0
1, 221880, Note_on_c, 0, 55, 0
1, 221880, Note_on_c, 0, 79, 56
1, 221880, Note_on_c, 0, 91, 63
1, 221920, Tempo, 336134
1, 222000, Note_on_c, 0, 91, 0
1, 222000, Note_on_c, 0, 79, 0
1, 222000, Note_on_c, 0, 56, 63
1, 222000, Note_on_c, 0, 68, 67
1, 222006, Control_c, 0, 64, 0
1, 222051, Control_c, 0, 64, 127
1, 222080, Tempo, 337079
1, 222120, Note_on_c, 0, 68, 0
1, 222120, Note_on_c, 0, 56, 0
1, 222120, Note_on_c, 0, 92, 64
1, 222120, Note_on_c, 0, 80, 57
1, 222200, Tempo, 338028
1, 222240, Note_on_c, 0, 80, 0
1, 222240, Note_on_c, 0, 92, 0
1, 222240, Note_on_c, 0, 57, 64
1, 222240, Note_on_c, 0, 69, 68
1, 222245, Control_c, 0, 64, 0
1, 222315, Control_c, 0, 64, 127
1, 222360, Tempo, 338983
1, 222360, Note_on_c, 0, 69, 0
1, 222360, Note_on_c, 0, 57, 0
1, 222360, Note_on_c, 0, 81, 58
1, 222360, Note_on_c, 0, 93, 65
1, 222480, Note_on_c, 0, 93, 0
1, 222480, Note_on_c, 0, 81, 0
1, 222480, Note_on_c, 0, 70, 69
1, 222480, Note_on_c, 0, 58, 65
1, 222490, Control_c, 0, 64, 0
1, 222520, Tempo, 339943
1, 222560, Control_c, 0, 64, 127
1, 222600, Note_on_c, 0, 58, 0
1, 222600, Note_on_c, 0, 70, 0
1, 222600, Note_on_c, 0, 94, 66
1, 222600, Note_on_c, 0, 82, 59
1, 222680, Tempo, 340909
1, 222720, Note_on_c, 0, 82, 0
1, 222720, Note_on_c, 0, 94, 0
1, 222720, Note_on_c, 0, 59, 65
1, 222720, Note_on_c, 0, 71, 69
1, 222720, Control_c, 0, 64, 0
1, 222783, Control_c, 0, 64, 127
1, 222840, Tempo, 341880
1, 222840, Note_on_c, 0, 71, 0
1, 222840, Note_on_c, 0, 59, 0
1, 222840, Note_on_c, 0, 95, 67
1, 222840, Note_on_c, 0, 83, 60
1, 222960, Tempo, 342857
1, 222960, Note_on_c, 0, 83, 0
1, 222960, Note_on_c, 0, 95, 0
1, 222960, Note_on_c, 0, 60, 66
1, 222960, Note_on_c, 0, 72, 70
1, 222965, Control_c, 0, 64, 0
1, 223040, Control_c, 0, 64, 127
1, 223080, Note_on_c, 0, 72, 0
1, 223080, Note_on_c, 0, 60, 0
1, 223080, Note_on_c, 0, 84, 61
1, 223080, Note_on_c, 0, 96, 68
1, 223120, Tempo, 343840
1, 223200, Note_on_c, 0, 96, 0
1, 223200, Note_on_c, 0, 84, 0
1, 223200, Note_on_c, 0, 73, 71
1, 223200, Note_on_c, 0, 61, 67
1, 223211, Control_c, 0, 64, 0
1, 223280, Tempo, 344828
1, 223292, Control_c, 0, 64, 127
1, 223320, Note_on_c, 0, 61, 0
1, 223320, Note_on_c, 0, 73, 0
1, 223320, Note_on_c, 0, 97, 68
1, 223320, Note_on_c, 0, 85, 61
1, 223440, Tempo, 345821
1, 223440, Note_on_c, 0, 85, 0
1, 223440, Note_on_c, 0, 97, 0
1, 223440, Note_on_c, 0, 74, 71
1, 223440, Note_on_c, 0, 62, 67
1, 223451, Control_c, 0, 64, 0
1, 223526, Control_c, 0, 64, 127
1, 223560, Note_on_c, 0, 62, 0
1, 223560, Note_on_c, 0, 74, 0
1, 223560, Note_on_c, 0, 98, 69
1, 223560, Note_on_c, 0, 86, 62
1, 223600, Tempo, 346821
1, 223680, Note_on_c, 0, 86, 0
1, 223680, Note_on_c, 0, 98, 0
1, 223680, Note_on_c, 0, 63, 68
1, 223680, Note_on_c, 0, 75, 72
1, 223683, Control_c, 0, 64, 0
1, 223760, Tempo, 347826
1, 223760, Control_c, 0, 64, 127
1, 223800, Note_on_c, 0, 75, 0
1, 223800, Note_on_c, 0, 63, 0
1, 223800, Note_on_c, 0, 87, 63
1, 223800, Note_on_c, 0, 99, 70
1, 223880, Tempo, 348837
1, 223920, Note_on_c, 0, 99, 0
1, 223920, Note_on_c, 0, 87, 0
1, 223920, Note_on_c, 0, 77, 72
1, 223920, Note_on_c, 0, 65, 68
1, 223925, Control_c, 0, 64, 0
1, 224017, Control_c, 0, 64, 127
1, 224040, Tempo, 349854
1, 224040, Note_on_c, 0, 65, 0
1, 224040, Note_on_c, 0, 77, 0
1, 224040, Note_on_c, 0, 101, 71
1, 224040, Note_on_c, 0, 89, 63
1, 224160, Note_on_c, 0, 89, 0
1, 224160, Note_on_c, 0, 101, 0
1, 224160, Note_on_c, 0, 66, 69
1, 224160, Note_on_c, 0, 78, 73
1, 224165, Control_c, 0, 64, 0
1, 224200, Tempo, 350877
1, 224235, Control_c, 0, 64, 127
1, 224280, Note_on_c, 0, 78, 0
1, 224280, Note_on_c, 0, 66, 0
1, 224280, Note_on_c, 0, 102, 72
1, 224280, Note_on_c, 0, 90, 64
1, 224360, Tempo, 351906
1, 224400, Note_on_c, 0, 90, 0
1, 224400, Note_on_c, 0, 102, 0
1, 224400, Note_on_c, 0, 67, 69
1, 224400, Note_on_c, 0, 79, 73
1, 224416, Control_c, 0, 64, 0
1, 224492, Control_c, 0, 64, 127
1, 224520, Tempo, 352941
1, 224520, Note_on_c, 0, 79, 0
1, 224520, Note_on_c, 0, 67, 0
1, 224520, Note_on_c, 0, 91, 65
1, 224520, Note_on_c, 0, 103, 73
1, 224580, Tempo, 1000000
1, 224640, Time_signature, 4, 2, 24, 8
1, 224640, Key_signature, -3, "major"
1, 224640, Tempo, 824856
1, 224640, Marker_t, "Das grosse Tor von Kiew"
1, 224640, Note_on_c, 0, 103, 0
1, 224640, Note_on_c, 0, 91, 0
1, 224640, Note_on_c, 0, 43, 96
1, 224640, Control_c, 0, 64, 0
1, 224718, Control_c, 0, 64, 127
1, 224760, Tempo, 406036
1, 224760, Note_on_c, 0, 63, 75
1, 224760, Note_on_c, 0, 67, 75
1, 224760, Note_on_c, 0, 70, 90
1, 224760, Note_on_c, 0, 75, 90
1, 224760, Note_on_c, 0, 46, 62
1, 224760, Note_on_c, 0, 51, 62
1, 224760, Note_on_c, 0, 55, 72
1, 226440, Tempo, 729129
1, 226440, Note_on_c, 0, 55, 0
1, 226440, Note_on_c, 0, 43, 0
1, 226440, Note_on_c, 0, 75, 0
1, 226440, Note_on_c, 0, 63, 0
1, 226440, Note_on_c, 0, 67, 0
1, 226440, Note_on_c, 0, 70, 0
1, 226440, Note_on_c, 0, 46, 0
1, 226440, Note_on_c, 0, 51, 0
1, 226440, Note_on_c, 0, 41, 87
1, 226453, Control_c, 0, 64, 0
1, 226560, Tempo, 404804
1, 226560, Note_on_c, 0, 65, 71
1, 226560, Note_on_c, 0, 70, 71
1, 226560, Note_on_c, 0, 74, 85
1, 226560, Note_on_c, 0, 77, 85
1, 226560, Note_on_c, 0, 46, 57
1, 226560, Note_on_c, 0, 50, 57
1, 226560, Note_on_c, 0, 53, 68
1, 226567, Control_c, 0, 64, 127
1, 228360, Tempo, 729129
1, 228360, Note_on_c, 0, 53, 0
1, 228360, Note_on_c, 0, 41, 0
1, 228360, Note_on_c, 0, 77, 0
1, 228360, Note_on_c, 0, 65, 0
1, 228360, Note_on_c, 0, 70, 0
1, 228360, Note_on_c, 0, 74, 0
1, 228360, Note_on_c, 0, 46, 0
1, 228360, Note_on_c, 0, 50, 0
1, 228360, Note_on_c, 0, 39, 87
1, 228367, Control_c, 0, 64, 0
1, 228460, Tempo, 399893
1, 228480, Note_on_c, 0, 67, 75
1, 228480, Note_on_c, 0, 70, 75
1, 228480, Note_on_c, 0, 75, 90
1, 228480, Note_on_c, 0, 79, 90
1, 228480, Note_on_c, 0, 43, 62
1, 228480, Note_on_c, 0, 46, 62
1, 228480, Note_on_c, 0, 51, 72
1, 228487, Control_c, 0, 64, 127
1, 229320, Tempo, 602591
1, 229320, Note_on_c, 0, 79, 0
1, 229320, Note_on_c, 0, 75, 0
1, 229320, Note_on_c, 0, 70, 0
1, 229320, Note_on_c, 0, 67, 0
1, 229320, Note_on_c, 0, 36, 81
1, 229327, Control_c, 0, 64, 0
1, 229440, Tempo, 397351
1, 229440, Note_on_c, 0, 39, 0
1, 229440, Note_on_c, 0, 46, 0
1, 229440, Note_on_c, 0, 51, 0
1, 229440, Note_on_c, 0, 43, 0
1, 229440, Note_on_c, 0, 63, 72
1, 229440, Note_on_c, 0, 67, 72
1, 229440, Note_on_c, 0, 72, 86
1, 229440, Note_on_c, 0, 75, 86
1, 229440, Note_on_c, 0, 39, 57
1, 229440, Note_on_c, 0, 43, 57
1, 229440, Note_on_c, 0, 48, 68
1, 229468, Control_c, 0, 64, 127
1, 229920, Tempo, 399893
1, 229920, Note_on_c, 0, 75, 0
1, 229920, Note_on_c, 0, 72, 0
1, 229920, Note_on_c, 0, 67, 0
1, 229920, Note_on_c, 0, 63, 0
1, 229920, Note_on_c, 0, 67, 79
1, 229920, Note_on_c, 0, 79, 79
1, 230280, Tempo, 476417
1, 230280, Note_on_c, 0, 79, 0
1, 230280, Note_on_c, 0, 39, 0
1, 230280, Note_on_c, 0, 43, 0
1, 230280, Note_on_c, 0, 48, 0
1, 230280, Note_on_c, 0, 67, 0
1, 230280, Note_on_c, 0, 36, 0
1, 230280, Note_on_c, 0, 38, 82
1, 230294, Control_c, 0, 64, 0
1, 230400, Tempo, 404804
1, 230400, Note_on_c, 0, 65, 69
1, 230400, Note_on_c, 0, 70, 69
1, 230400, Note_on_c, 0, 74, 82
1, 230400, Note_on_c, 0, 77, 82
1, 230400, Note_on_c, 0, 41, 54
1, 230400, Note_on_c, 0, 46, 54
1, 230400, Note_on_c, 0, 50, 65
1, 230400, Control_c, 0, 64, 127
1, 231360, Note_on_c, 0, 50, 0
1, 231360, Note_on_c, 0, 38, 0
1, 231360, Note_on_c, 0, 77, 0
1, 231360, Note_on_c, 0, 65, 0
1, 231360, Note_on_c, 0, 70, 0
1, 231360, Note_on_c, 0, 74, 0
1, 231360, Note_on_c, 0, 41, 0
1, 231360, Note_on_c, 0, 46, 0
1, 231360, Note_on_c, 0, 58, 71
1, 231360, Note_on_c, 0, 70, 71
1, 231360, Note_on_c, 0, 46, 66
1, 231378, Control_c, 0, 64, 0
1, 231400, Tempo, 404804
1, 231607, Control_c, 0, 64, 127
1, 232200, Tempo, 597134
1, 232200, Note_on_c, 0, 46, 0
1, 232200, Note_on_c, 0, 70, 0
1, 232200, Note_on_c, 0, 58, 0
1, 232200, Note_on_c, 0, 39, 87
1, 232217, Control_c, 0, 64, 0
1, 232320, Tempo, 393933
1, 232320, Note_on_c, 0, 67, 72
1, 232320, Note_on_c, 0, 70, 72
1, 232320, Note_on_c, 0, 79, 86
1, 232320, Note_on_c, 0, 75, 86
1, 232320, Note_on_c, 0, 46, 57
1, 232320, Note_on_c, 0, 51, 68
1, 232320, Control_c, 0, 64, 127
1, 232800, Tempo, 398698
1, 232800, Note_on_c, 0, 75, 0
1, 232800, Note_on_c, 0, 79, 0
1, 232800, Note_on_c, 0, 70, 0
1, 232800, Note_on_c, 0, 67, 0
1, 232800, Note_on_c, 0, 70, 80
1, 232800, Note_on_c, 0, 82, 80
1, 233280, Tempo, 394737
1, 233280, Note_on_c, 0, 82, 0
1, 233280, Note_on_c, 0, 39, 0
1, 233280, Note_on_c, 0, 46, 0
1, 233280, Note_on_c, 0, 51, 0
1, 233280, Note_on_c, 0, 70, 0
1, 233280, Note_on_c, 0, 70, 85
1, 233280, Note_on_c, 0, 65, 71
1, 233280, Note_on_c, 0, 77, 85
1, 233280, Note_on_c, 0, 38, 62
1, 233280, Note_on_c, 0, 50, 72
1, 233280, Note_on_c, 0, 46, 72
1, 233291, Control_c, 0, 64, 0
1, 233494, Control_c, 0, 64, 127
1, 233760, Tempo, 398671
1, 233760, Note_on_c, 0, 50, 0
1, 233760, Note_on_c, 0, 38, 0
1, 233760, Note_on_c, 0, 77, 0
1, 233760, Note_on_c, 0, 65, 0
1, 233760, Note_on_c, 0, 63, 69
1, 233760, Note_on_c, 0, 75, 83
1, 233760, Note_on_c, 0, 36, 62
1, 233760, Note_on_c, 0, 48, 72
1, 233778, Control_c, 0, 64, 0
1, 234027, Control_c, 0, 64, 127
1, 234240, Note_on_c, 0, 48, 0
1, 234240, Note_on_c, 0, 70, 0
1, 234240, Note_on_c, 0, 63, 0
1, 234240, Note_on_c, 0, 46, 0
1, 234240, Note_on_c, 0, 36, 0
1, 234240, Note_on_c, 0, 75, 0
1, 234240, Note_on_c, 0, 62, 69
1, 234240, Note_on_c, 0, 70, 82
1, 234240, Note_on_c, 0, 74, 82
1, 234240, Note_on_c, 0, 34, 54
1, 234240, Note_on_c, 0, 41, 54
1, 234240, Note_on_c, 0, 46, 65
1, 234254, Control_c, 0, 64, 0
1, 234438, Control_c, 0, 64, 127
1, 235200, Note_on_c, 0, 46, 0
1, 235200, Note_on_c, 0, 70, 0
1, 235200, Note_on_c, 0, 74, 0
1, 235200, Note_on_c, 0, 62, 0
1, 235200, Note_on_c, 0, 41, 0
1, 235200, Note_on_c, 0, 34, 0
1, 235200, Note_on_c, 0, 58, 57
1, 235200, Note_on_c, 0, 67, 68
1, 235200, Note_on_c, 0, 70, 68
1, 235200, Note_on_c, 0, 31, 41
1, 235200, Note_on_c, 0, 39, 48
1, 235200, Note_on_c, 0, 43, 48
1, 235209, Control_c, 0, 64, 0
1, 235370, Control_c, 0, 64, 127
1, 236040, Tempo, 599880
1, 236040, Note_on_c, 0, 43, 0
1, 236040, Note_on_c, 0, 67, 0
1, 236040, Note_on_c, 0, 70, 0
1, 236040, Note_on_c, 0, 58, 0
1, 236040, Note_on_c, 0, 39, 0
1, 236040, Note_on_c, 0, 31, 0
1, 236040, Note_on_c, 0, 39, 87
1, 236047, Control_c, 0, 64, 0
1, 236160, Tempo, 393933
1, 236160, Note_on_c, 0, 67, 72
1, 236160, Note_on_c, 0, 70, 72
1, 236160, Note_on_c, 0, 79, 86
1, 236160, Note_on_c, 0, 75, 86
1, 236160, Note_on_c, 0, 46, 57
1, 236160, Note_on_c, 0, 51, 68
1, 236160, Control_c, 0, 64, 127
1, 236640, Tempo, 398698
1, 236640, Note_on_c, 0, 75, 0
1, 236640, Note_on_c, 0, 79, 0
1, 236640, Note_on_c, 0, 70, 0
1, 236640, Note_on_c, 0, 67, 0
1, 236640, Note_on_c, 0, 70, 67
1, 236640, Note_on_c, 0, 82, 80
1, 237120, Tempo, 394737
1, 237120, Note_on_c, 0, 82, 0
1, 237120, Note_on_c, 0, 39, 0
1, 237120, Note_on_c, 0, 46, 0
1, 237120, Note_on_c, 0, 51, 0
1, 237120, Note_on_c, 0, 70, 0
1, 237120, Note_on_c, 0, 70, 69
1, 237120, Note_on_c, 0, 65, 83
1, 237120, Note_on_c, 0, 77, 83
1, 237120, Note_on_c, 0, 38, 62
1, 237120, Note_on_c, 0, 50, 72
1, 237120, Note_on_c, 0, 46, 72
1, 237133, Control_c, 0, 64, 0
1, 237334, Control_c, 0, 64, 127
1, 237600, Tempo, 398671
1, 237600, Note_on_c, 0, 50, 0
1, 237600, Note_on_c, 0, 38, 0
1, 237600, Note_on_c, 0, 77, 0
1, 237600, Note_on_c, 0, 65, 0
1, 237600, Note_on_c, 0, 63, 81
1, 237600, Note_on_c, 0, 75, 81
1, 237600, Note_on_c, 0, 36, 62
1, 237600, Note_on_c, 0, 48, 72
1, 237615, Control_c, 0, 64, 0
1, 237787, Control_c, 0, 64, 127
1, 238080, Note_on_c, 0, 48, 0
1, 238080, Note_on_c, 0, 70, 0
1, 238080, Note_on_c, 0, 63, 0
1, 238080, Note_on_c, 0, 46, 0
1, 238080, Note_on_c, 0, 36, 0
1, 238080, Note_on_c, 0, 75, 0
1, 238080, Note_on_c, 0, 62, 64
1, 238080, Note_on_c, 0, 70, 76
1, 238080, Note_on_c, 0, 74, 76
1, 238080, Note_on_c, 0, 34, 54
1, 238080, Note_on_c, 0, 41, 54
1, 238080, Note_on_c, 0, 46, 65
1, 238094, Control_c, 0, 64, 0
1, 238427, Control_c, 0, 64, 127
1, 239040, Note_on_c, 0, 46, 0
1, 239040, Note_on_c, 0, 70, 0
1, 239040, Note_on_c, 0, 74, 0
1, 239040, Note_on_c, 0, 62, 0
1, 239040, Note_on_c, 0, 41, 0
1, 239040, Note_on_c, 0, 34, 0
1, 239040, Note_on_c, 0, 58, 57
1, 239040, Note_on_c, 0, 67, 69
1, 239040, Note_on_c, 0, 70, 69
1, 239040, Note_on_c, 0, 31, 42
1, 239040, Note_on_c, 0, 39, 48
1, 239040, Note_on_c, 0, 43, 48
1, 239054, Control_c, 0, 64, 0
1, 239254, Control_c, 0, 64, 127
1, 240000, Tempo, 670391
1, 240000, Note_on_c, 0, 43, 0
1, 240000, Note_on_c, 0, 67, 0
1, 240000, Note_on_c, 0, 70, 0
1, 240000, Note_on_c, 0, 58, 0
1, 240000, Note_on_c, 0, 39, 0
1, 240000, Note_on_c, 0, 31, 0
1, 240000, Note_on_c, 0, 43, 86
1, 240007, Control_c, 0, 64, 0
1, 240106, Control_c, 0, 64, 127
1, 240120, Tempo, 406036
1, 240120, Note_on_c, 0, 63, 75
1, 240120, Note_on_c, 0, 67, 75
1, 240120, Note_on_c, 0, 70, 90
1, 240120, Note_on_c, 0, 75, 90
1, 240120, Note_on_c, 0, 46, 62
1, 240120, Note_on_c, 0, 51, 62
1, 240120, Note_on_c, 0, 55, 72
1, 241800, Tempo, 666667
1, 241800, Note_on_c, 0, 55, 0
1, 241800, Note_on_c, 0, 43, 0
1, 241800, Note_on_c, 0, 75, 0
1, 241800, Note_on_c, 0, 63, 0
1, 241800, Note_on_c, 0, 67, 0
1, 241800, Note_on_c, 0, 70, 0
1, 241800, Note_on_c, 0, 46, 0
1, 241800, Note_on_c, 0, 51, 0
1, 241800, Note_on_c, 0, 41, 87
1, 241816, Control_c, 0, 64, 0
1, 241920, Tempo, 404804
1, 241920, Note_on_c, 0, 65, 71
1, 241920, Note_on_c, 0, 70, 85
1, 241920, Note_on_c, 0, 74, 85
1, 241920, Note_on_c, 0, 77, 85
1, 241920, Note_on_c, 0, 46, 57
1, 241920, Note_on_c, 0, 50, 57
1, 241920, Note_on_c, 0, 53, 68
1, 241927, Control_c, 0, 64, 127
1, 243720, Tempo, 729129
1, 243720, Note_on_c, 0, 53, 0
1, 243720, Note_on_c, 0, 41, 0
1, 243720, Note_on_c, 0, 77, 0
1, 243720, Note_on_c, 0, 65, 0
1, 243720, Note_on_c, 0, 70, 0
1, 243720, Note_on_c, 0, 74, 0
1, 243720, Note_on_c, 0, 46, 0
1, 243720, Note_on_c, 0, 50, 0
1, 243720, Note_on_c, 0, 39, 87
1, 243727, Control_c, 0, 64, 0
1, 243820, Tempo, 399893
1, 243840, Note_on_c, 0, 67, 75
1, 243840, Note_on_c, 0, 70, 75
1, 243840, Note_on_c, 0, 75, 90
1, 243840, Note_on_c, 0, 79, 90
1, 243840, Note_on_c, 0, 43, 62
1, 243840, Note_on_c, 0, 46, 62
1, 243840, Note_on_c, 0, 51, 72
1, 243840, Control_c, 0, 64, 127
1, 244680, Tempo, 602591
1, 244680, Note_on_c, 0, 79, 0
1, 244680, Note_on_c, 0, 75, 0
1, 244680, Note_on_c, 0, 70, 0
1, 244680, Note_on_c, 0, 67, 0
1, 244680, Note_on_c, 0, 36, 81
1, 244696, Control_c, 0, 64, 0
1, 244800, Tempo, 397351
1, 244800, Note_on_c, 0, 39, 0
1, 244800, Note_on_c, 0, 46, 0
1, 244800, Note_on_c, 0, 51, 0
1, 244800, Note_on_c, 0, 43, 0
1, 244800, Note_on_c, 0, 63, 72
1, 244800, Note_on_c, 0, 67, 72
1, 244800, Note_on_c, 0, 72, 86
1, 244800, Note_on_c, 0, 75, 86
1, 244800, Note_on_c, 0, 39, 57
1, 244800, Note_on_c, 0, 43, 57
1, 244800, Note_on_c, 0, 48, 68
1, 244850, Control_c, 0, 64, 127
1, 245280, Tempo, 399893
1, 245280, Note_on_c, 0, 75, 0
1, 245280, Note_on_c, 0, 72, 0
1, 245280, Note_on_c, 0, 67, 0
1, 245280, Note_on_c, 0, 63, 0
1, 245280, Note_on_c, 0, 67, 66
1, 245280, Note_on_c, 0, 79, 79
1, 245640, Tempo, 476417
1, 245640, Note_on_c, 0, 79, 0
1, 245640, Note_on_c, 0, 39, 0
1, 245640, Note_on_c, 0, 43, 0
1, 245640, Note_on_c, 0, 48, 0
1, 245640, Note_on_c, 0, 67, 0
1, 245640, Note_on_c, 0, 36, 0
1, 245640, Note_on_c, 0, 38, 82
1, 245645, Control_c, 0, 64, 0
1, 245760, Tempo, 404804
1, 245760, Note_on_c, 0, 65, 69
1, 245760, Note_on_c, 0, 70, 69
1, 245760, Note_on_c, 0, 74, 82
1, 245760, Note_on_c, 0, 77, 82
1, 245760, Note_on_c, 0, 41, 54
1, 245760, Note_on_c, 0, 46, 54
1, 245760, Note_on_c, 0, 50, 54
1, 245787, Control_c, 0, 64, 127
1, 246720, Note_on_c, 0, 50, 0
1, 246720, Note_on_c, 0, 38, 0
1, 246720, Note_on_c, 0, 77, 0
1, 246720, Note_on_c, 0, 65, 0
1, 246720, Note_on_c, 0, 70, 0
1, 246720, Note_on_c, 0, 74, 0
1, 246720, Note_on_c, 0, 41, 0
1, 246720, Note_on_c, 0, 46, 0
1, 246720, Note_on_c, 0, 58, 63
1, 246720, Note_on_c, 0, 70, 75
1, 246720, Note_on_c, 0, 46, 70
1, 246730, Control_c, 0, 64, 0
1, 246760, Tempo, 404804
1, 247067, Control_c, 0, 64, 127
1, 247200, Tempo, 415225
1, 247680, Tempo, 408163
1, 247680, Note_on_c, 0, 46, 0
1, 247680, Note_on_c, 0, 70, 0
1, 247680, Note_on_c, 0, 58, 0
1, 247680, Note_on_c, 0, 80, 73
1, 247680, Note_on_c, 0, 87, 73
1, 247680, Note_on_c, 0, 75, 63
1, 247680, Note_on_c, 0, 56, 63
1, 247680, Note_on_c, 0, 60, 63
1, 247680, Note_on_c, 0, 48, 51
1, 247686, Control_c, 0, 64, 0
1, 247947, Control_c, 0, 64, 127
1, 248160, Note_on_c, 0, 48, 0
1, 248160, Note_on_c, 0, 87, 0
1, 248160, Note_on_c, 0, 75, 0
1, 248160, Note_on_c, 0, 60, 0
1, 248160, Note_on_c, 0, 87, 70
1, 248160, Note_on_c, 0, 75, 59
1, 248160, Note_on_c, 0, 60, 59
1, 248160, Note_on_c, 0, 48, 49
1, 248640, Tempo, 398671
1, 248640, Note_on_c, 0, 48, 0
1, 248640, Note_on_c, 0, 80, 0
1, 248640, Note_on_c, 0, 87, 0
1, 248640, Note_on_c, 0, 56, 0
1, 248640, Note_on_c, 0, 60, 0
1, 248640, Note_on_c, 0, 75, 0
1, 248640, Note_on_c, 0, 80, 73
1, 248640, Note_on_c, 0, 86, 65
1, 248640, Note_on_c, 0, 74, 54
1, 248640, Note_on_c, 0, 51, 63
1, 248640, Note_on_c, 0, 58, 54
1, 248640, Note_on_c, 0, 46, 46
1, 248651, Control_c, 0, 64, 0
1, 248680, Tempo, 400000
1, 248907, Control_c, 0, 64, 127
1, 249120, Note_on_c, 0, 46, 0
1, 249120, Note_on_c, 0, 86, 0
1, 249120, Note_on_c, 0, 74, 0
1, 249120, Note_on_c, 0, 58, 0
1, 249120, Note_on_c, 0, 82, 63
1, 249120, Note_on_c, 0, 70, 52
1, 249120, Note_on_c, 0, 55, 51
1, 249120, Note_on_c, 0, 43, 44
1, 249600, Note_on_c, 0, 43, 0
1, 249600, Note_on_c, 0, 80, 0
1, 249600, Note_on_c, 0, 82, 0
1, 249600, Note_on_c, 0, 51, 0
1, 249600, Note_on_c, 0, 55, 0
1, 249600, Note_on_c, 0, 70, 0
1, 249600, Note_on_c, 0, 75, 68
1, 249600, Note_on_c, 0, 72, 56
1, 249600, Note_on_c, 0, 84, 68
1, 249600, Note_on_c, 0, 51, 51
1, 249600, Note_on_c, 0, 44, 52
1, 249600, Note_on_c, 0, 56, 59
1, 249608, Control_c, 0, 64, 0
1, 249814, Control_c, 0, 64, 127
1, 250080, Tempo, 405405
1, 250080, Note_on_c, 0, 56, 0
1, 250080, Note_on_c, 0, 72, 0
1, 250080, Note_on_c, 0, 84, 0
1, 250080, Note_on_c, 0, 44, 0
1, 250080, Note_on_c, 0, 84, 62
1, 250080, Note_on_c, 0, 72, 51
1, 250080, Note_on_c, 0, 56, 51
1, 250080, Note_on_c, 0, 44, 39
1, 250560, Note_on_c, 0, 44, 0
1, 250560, Note_on_c, 0, 72, 0
1, 250560, Note_on_c, 0, 84, 0
1, 250560, Note_on_c, 0, 56, 0
1, 250560, Note_on_c, 0, 80, 65
1, 250560, Note_on_c, 0, 68, 53
1, 250560, Note_on_c, 0, 53, 53
1, 250560, Note_on_c, 0, 41, 41
1, 250570, Control_c, 0, 64, 0
1, 250774, Control_c, 0, 64, 127
1, 251040, Note_on_c, 0, 41, 0
1, 251040, Note_on_c, 0, 68, 0
1, 251040, Note_on_c, 0, 80, 0
1, 251040, Note_on_c, 0, 53, 0
1, 251040, Note_on_c, 0, 72, 52
1, 251040, Note_on_c, 0, 84, 63
1, 251040, Note_on_c, 0, 44, 39
1, 251040, Note_on_c, 0, 56, 51
1, 251520, Note_on_c, 0, 56, 0
1, 251520, Note_on_c, 0, 75, 0
1, 251520, Note_on_c, 0, 72, 0
1, 251520, Note_on_c, 0, 51, 0
1, 251520, Note_on_c, 0, 44, 0
1, 251520, Note_on_c, 0, 84, 0
1, 251520, Note_on_c, 0, 75, 66
1, 251520, Note_on_c, 0, 70, 64
1, 251520, Note_on_c, 0, 82, 76
1, 251520, Note_on_c, 0, 51, 56
1, 251520, Note_on_c, 0, 43, 54
1, 251520, Note_on_c, 0, 55, 65
1, 251534, Control_c, 0, 64, 0
1, 251814, Control_c, 0, 64, 127
1, 252480, Tempo, 409556
1, 252480, Note_on_c, 0, 55, 0
1, 252480, Note_on_c, 0, 70, 0
1, 252480, Note_on_c, 0, 82, 0
1, 252480, Note_on_c, 0, 43, 0
1, 252480, Note_on_c, 0, 68, 63
1, 252480, Note_on_c, 0, 80, 72
1, 252480, Note_on_c, 0, 41, 50
1, 252480, Note_on_c, 0, 53, 60
1, 252499, Control_c, 0, 64, 0
1, 252774, Control_c, 0, 64, 127
1, 252960, Tempo, 419580
1, 252960, Note_on_c, 0, 53, 0
1, 252960, Note_on_c, 0, 75, 0
1, 252960, Note_on_c, 0, 68, 0
1, 252960, Note_on_c, 0, 51, 0
1, 252960, Note_on_c, 0, 41, 0
1, 252960, Note_on_c, 0, 80, 0
1, 252960, Note_on_c, 0, 67, 67
1, 252960, Note_on_c, 0, 79, 80
1, 252960, Note_on_c, 0, 39, 51
1, 252960, Note_on_c, 0, 51, 62
1, 253440, Note_on_c, 0, 51, 0
1, 253440, Note_on_c, 0, 67, 0
1, 253440, Note_on_c, 0, 79, 0
1, 253440, Note_on_c, 0, 39, 0
1, 253440, Note_on_c, 0, 65, 69
1, 253440, Note_on_c, 0, 68, 69
1, 253440, Note_on_c, 0, 72, 83
1, 253440, Note_on_c, 0, 77, 83
1, 253440, Note_on_c, 0, 53, 51
1, 253440, Note_on_c, 0, 56, 51
1, 253440, Note_on_c, 0, 60, 62
1, 253449, Control_c, 0, 64, 0
1, 253814, Control_c, 0, 64, 127
1, 255360, Note_on_c, 0, 60, 0
1, 255360, Note_on_c, 0, 53, 0
1, 255360, Note_on_c, 0, 68, 0
1, 255360, Note_on_c, 0, 72, 0
1, 255360, Note_on_c, 0, 65, 0
1, 255360, Note_on_c, 0, 56, 0
1, 255360, Note_on_c, 0, 77, 0
1, 255360, Note_on_c, 0, 70, 70
1, 255360, Note_on_c, 0, 74, 70
1, 255360, Note_on_c, 0, 77, 83
1, 255360, Note_on_c, 0, 82, 83
1, 255360, Note_on_c, 0, 50, 53
1, 255360, Note_on_c, 0, 53, 53
1, 255360, Note_on_c, 0, 62, 64
1, 255360, Note_on_c, 0, 58, 64
1, 255371, Control_c, 0, 64, 0
1, 255530, Control_c, 0, 64, 127
1, 256320, Note_on_c, 0, 58, 0
1, 256320, Note_on_c, 0, 70, 0
1, 256320, Note_on_c, 0, 50, 0
1, 256320, Note_on_c, 0, 74, 0
1, 256320, Note_on_c, 0, 77, 0
1, 256320, Note_on_c, 0, 82, 0
1, 256320, Note_on_c, 0, 53, 0
1, 256320, Note_on_c, 0, 62, 0
1, 256320, Note_on_c, 0, 84, 81
1, 256320, Note_on_c, 0, 79, 81
1, 256320, Note_on_c, 0, 75, 67
1, 256320, Note_on_c, 0, 72, 67
1, 256320, Note_on_c, 0, 63, 59
1, 256320, Note_on_c, 0, 55, 49
1, 256320, Note_on_c, 0, 48, 49
1, 256333, Control_c, 0, 64, 0
1, 256490, Control_c, 0, 64, 127
1, 257160, Tempo, 600000
1, 257160, Note_on_c, 0, 48, 0
1, 257160, Note_on_c, 0, 63, 0
1, 257160, Note_on_c, 0, 55, 0
1, 257160, Note_on_c, 0, 32, 72
1, 257174, Control_c, 0, 64, 0
1, 257280, Tempo, 412371
1, 257280, Note_on_c, 0, 32, 0
1, 257280, Note_on_c, 0, 72, 0
1, 257280, Note_on_c, 0, 84, 0
1, 257280, Note_on_c, 0, 79, 0
1, 257280, Note_on_c, 0, 75, 0
1, 257280, Note_on_c, 0, 75, 83
1, 257280, Note_on_c, 0, 63, 69
1, 257280, Note_on_c, 0, 60, 67
1, 257280, Note_on_c, 0, 48, 56
1, 257280, Control_c, 0, 64, 127
1, 257760, Note_on_c, 0, 48, 0
1, 257760, Note_on_c, 0, 75, 0
1, 257760, Note_on_c, 0, 63, 0
1, 257760, Note_on_c, 0, 60, 0
1, 257760, Note_on_c, 0, 75, 76
1, 257760, Note_on_c, 0, 63, 64
1, 257760, Note_on_c, 0, 60, 63
1, 257760, Note_on_c, 0, 48, 51
1, 258240, Tempo, 406780
1, 258240, Note_on_c, 0, 48, 0
1, 258240, Note_on_c, 0, 75, 0
1, 258240, Note_on_c, 0, 63, 0
1, 258240, Note_on_c, 0, 60, 0
1, 258240, Note_on_c, 0, 68, 66
1, 258240, Note_on_c, 0, 74, 76
1, 258240, Note_on_c, 0, 62, 64
1, 258240, Note_on_c, 0, 51, 45
1, 258240, Note_on_c, 0, 58, 60
1, 258240, Note_on_c, 0, 46, 50
1, 258258, Control_c, 0, 64, 0
1, 258454, Control_c, 0, 64, 127
1, 258720, Tempo, 422535
1, 258720, Note_on_c, 0, 46, 0
1, 258720, Note_on_c, 0, 74, 0
1, 258720, Note_on_c, 0, 62, 0
1, 258720, Note_on_c, 0, 58, 0
1, 258720, Note_on_c, 0, 72, 75
1, 258720, Note_on_c, 0, 60, 63
1, 258720, Note_on_c, 0, 56, 57
1, 258720, Note_on_c, 0, 44, 48
1, 259200, Tempo, 409556
1, 259200, Note_on_c, 0, 44, 0
1, 259200, Note_on_c, 0, 68, 0
1, 259200, Note_on_c, 0, 72, 0
1, 259200, Note_on_c, 0, 51, 0
1, 259200, Note_on_c, 0, 56, 0
1, 259200, Note_on_c, 0, 60, 0
1, 259200, Note_on_c, 0, 63, 69
1, 259200, Note_on_c, 0, 58, 69
1, 259200, Note_on_c, 0, 70, 82
1, 259200, Note_on_c, 0, 51, 54
1, 259200, Note_on_c, 0, 43, 52
1, 259200, Note_on_c, 0, 55, 63
1, 259219, Control_c, 0, 64, 0
1, 259387, Control_c, 0, 64, 127
1, 260160, Tempo, 415225
1, 260160, Note_on_c, 0, 55, 0
1, 260160, Note_on_c, 0, 58, 0
1, 260160, Note_on_c, 0, 70, 0
1, 260160, Note_on_c, 0, 43, 0
1, 260160, Note_on_c, 0, 56, 69
1, 260160, Note_on_c, 0, 68, 83
1, 260160, Note_on_c, 0, 41, 52
1, 260160, Note_on_c, 0, 53, 63
1, 260174, Control_c, 0, 64, 0
1, 260400, Control_c, 0, 64, 127
1, 260640, Tempo, 419580
1, 260640, Note_on_c, 0, 53, 0
1, 260640, Note_on_c, 0, 63, 0
1, 260640, Note_on_c, 0, 56, 0
1, 260640, Note_on_c, 0, 51, 0
1, 260640, Note_on_c, 0, 41, 0
1, 260640, Note_on_c, 0, 68, 0
1, 260640, Note_on_c, 0, 55, 67
1, 260640, Note_on_c, 0, 67, 80
1, 260640, Note_on_c, 0, 39, 54
1, 260640, Note_on_c, 0, 51, 65
1, 261120, Note_on_c, 0, 51, 0
1, 261120, Note_on_c, 0, 55, 0
1, 261120, Note_on_c, 0, 67, 0
1, 261120, Note_on_c, 0, 39, 0
1, 261120, Note_on_c, 0, 53, 70
1, 261120, Note_on_c, 0, 60, 70
1, 261120, Note_on_c, 0, 65, 84
1, 261120, Note_on_c, 0, 63, 84
1, 261120, Note_on_c, 0, 44, 56
1, 261120, Note_on_c, 0, 56, 68
1, 261128, Control_c, 0, 64, 0
1, 261494, Control_c, 0, 64, 127
1, 263040, Note_on_c, 0, 56, 0
1, 263040, Note_on_c, 0, 60, 0
1, 263040, Note_on_c, 0, 65, 0
1, 263040, Note_on_c, 0, 53, 0
1, 263040, Note_on_c, 0, 44, 0
1, 263040, Note_on_c, 0, 63, 0
1, 263040, Note_on_c, 0, 58, 72
1, 263040, Note_on_c, 0, 62, 72
1, 263040, Note_on_c, 0, 67, 87
1, 263040, Note_on_c, 0, 70, 87
1, 263040, Note_on_c, 0, 43, 60
1, 263040, Note_on_c, 0, 55, 71
1, 263051, Control_c, 0, 64, 0
1, 263467, Control_c, 0, 64, 127
1, 264960, Tempo, 857143
1, 264960, Note_on_c, 0, 55, 0
1, 264960, Note_on_c, 0, 62, 0
1, 264960, Note_on_c, 0, 67, 0
1, 264960, Note_on_c, 0, 58, 0
1, 264960, Note_on_c, 0, 43, 0
1, 264960, Note_on_c, 0, 70, 0
1, 264960, Note_on_c, 0, 51, 100
1, 264960, Note_on_c, 0, 27, 85
1, 264960, Note_on_c, 0, 39, 90
1, 264973, Control_c, 0, 64, 0
1, 265080, Tempo, 406036
1, 265080, Note_on_c, 0, 63, 80
1, 265080, Note_on_c, 0, 67, 80
1, 265080, Note_on_c, 0, 70, 94
1, 265080, Note_on_c, 0, 75, 94
1, 265080, Note_on_c, 0, 43, 63
1, 265080, Note_on_c, 0, 46, 63
1, 265080, Note_on_c, 0, 51, 76
1, 265080, Note_on_c, 0, 55, 76
1, 265123, Control_c, 0, 64, 127
1, 266760, Tempo, 800000
1, 266760, Note_on_c, 0, 55, 0
1, 266760, Note_on_c, 0, 43, 0
1, 266760, Note_on_c, 0, 39, 0
1, 266760, Note_on_c, 0, 63, 0
1, 266760, Note_on_c, 0, 51, 0
1, 266760, Note_on_c, 0, 67, 0
1, 266760, Note_on_c, 0, 27, 0
1, 266760, Note_on_c, 0, 46, 0
1, 266760, Note_on_c, 0, 75, 0
1, 266760, Note_on_c, 0, 70, 0
1, 266760, Note_on_c, 0, 51, 0
1, 266760, Note_on_c, 0, 51, 90
1, 266760, Note_on_c, 0, 27, 76
1, 266760, Note_on_c, 0, 39, 90
1, 266774, Control_c, 0, 64, 0
1, 266880, Tempo, 404804
1, 266880, Note_on_c, 0, 65, 73
1, 266880, Note_on_c, 0, 70, 73
1, 266880, Note_on_c, 0, 74, 89
1, 266880, Note_on_c, 0, 77, 89
1, 266880, Note_on_c, 0, 41, 62
1, 266880, Note_on_c, 0, 46, 62
1, 266880, Note_on_c, 0, 50, 62
1, 266880, Note_on_c, 0, 53, 71
1, 266965, Control_c, 0, 64, 127
1, 268680, Tempo, 729129
1, 268680, Note_on_c, 0, 53, 0
1, 268680, Note_on_c, 0, 41, 0
1, 268680, Note_on_c, 0, 39, 0
1, 268680, Note_on_c, 0, 65, 0
1, 268680, Note_on_c, 0, 51, 0
1, 268680, Note_on_c, 0, 70, 0
1, 268680, Note_on_c, 0, 27, 0
1, 268680, Note_on_c, 0, 46, 0
1, 268680, Note_on_c, 0, 77, 0
1, 268680, Note_on_c, 0, 74, 0
1, 268680, Note_on_c, 0, 50, 0
1, 268680, Note_on_c, 0, 51, 90
1, 268680, Note_on_c, 0, 29, 84
1, 268688, Control_c, 0, 64, 0
1, 268780, Tempo, 399893
1, 268800, Note_on_c, 0, 67, 80
1, 268800, Note_on_c, 0, 70, 80
1, 268800, Note_on_c, 0, 75, 94
1, 268800, Note_on_c, 0, 79, 94
1, 268800, Note_on_c, 0, 39, 63
1, 268800, Note_on_c, 0, 43, 63
1, 268800, Note_on_c, 0, 46, 76
1, 268800, Note_on_c, 0, 51, 76
1, 268827, Control_c, 0, 64, 127
1, 269640, Tempo, 602591
1, 269760, Tempo, 405405
1, 269760, Note_on_c, 0, 51, 0
1, 269760, Note_on_c, 0, 67, 0
1, 269760, Note_on_c, 0, 70, 0
1, 269760, Note_on_c, 0, 46, 0
1, 269760, Note_on_c, 0, 75, 0
1, 269760, Note_on_c, 0, 29, 0
1, 269760, Note_on_c, 0, 43, 0
1, 269760, Note_on_c, 0, 39, 0
1, 269760, Note_on_c, 0, 79, 0
1, 269760, Note_on_c, 0, 63, 75
1, 269760, Note_on_c, 0, 67, 75
1, 269760, Note_on_c, 0, 72, 90
1, 269760, Note_on_c, 0, 75, 90
1, 269760, Note_on_c, 0, 36, 62
1, 269760, Note_on_c, 0, 39, 62
1, 269760, Note_on_c, 0, 43, 71
1, 269760, Note_on_c, 0, 48, 71
1, 269779, Control_c, 0, 64, 0
1, 270027, Control_c, 0, 64, 127
1, 270240, Tempo, 413793
1, 270240, Note_on_c, 0, 75, 0
1, 270240, Note_on_c, 0, 72, 0
1, 270240, Note_on_c, 0, 67, 0
1, 270240, Note_on_c, 0, 63, 0
1, 270240, Note_on_c, 0, 67, 69
1, 270240, Note_on_c, 0, 79, 82
1, 270720, Tempo, 404804
1, 270720, Note_on_c, 0, 79, 0
1, 270720, Note_on_c, 0, 36, 0
1, 270720, Note_on_c, 0, 39, 0
1, 270720, Note_on_c, 0, 43, 0
1, 270720, Note_on_c, 0, 48, 0
1, 270720, Note_on_c, 0, 67, 0
1, 270720, Note_on_c, 0, 51, 0
1, 270720, Note_on_c, 0, 65, 71
1, 270720, Note_on_c, 0, 70, 71
1, 270720, Note_on_c, 0, 74, 85
1, 270720, Note_on_c, 0, 77, 85
1, 270720, Note_on_c, 0, 38, 57
1, 270720, Note_on_c, 0, 41, 57
1, 270720, Note_on_c, 0, 46, 68
1, 270720, Note_on_c, 0, 50, 68
1, 270739, Control_c, 0, 64, 0
1, 270826, Control_c, 0, 64, 127
1, 271680, Note_on_c, 0, 50, 0
1, 271680, Note_on_c, 0, 65, 0
1, 271680, Note_on_c, 0, 38, 0
1, 271680, Note_on_c, 0, 70, 0
1, 271680, Note_on_c, 0, 74, 0
1, 271680, Note_on_c, 0, 77, 0
1, 271680, Note_on_c, 0, 41, 0
1, 271680, Note_on_c, 0, 46, 0
1, 271680, Note_on_c, 0, 58, 67
1, 271680, Note_on_c, 0, 70, 80
1, 271680, Note_on_c, 0, 34, 63
1, 271680, Note_on_c, 0, 46, 72
1, 271697, Control_c, 0, 64, 0
1, 271720, Tempo, 404804
1, 271814, Control_c, 0, 64, 127
1, 272520, Tempo, 666667
1, 272520, Note_on_c, 0, 46, 0
1, 272520, Note_on_c, 0, 58, 0
1, 272520, Note_on_c, 0, 70, 0
1, 272520, Note_on_c, 0, 34, 0
1, 272520, Note_on_c, 0, 51, 90
1, 272520, Note_on_c, 0, 27, 76
1, 272520, Note_on_c, 0, 39, 90
1, 272536, Control_c, 0, 64, 0
1, 272640, Tempo, 393933
1, 272640, Note_on_c, 0, 67, 75
1, 272640, Note_on_c, 0, 70, 75
1, 272640, Note_on_c, 0, 79, 90
1, 272640, Note_on_c, 0, 75, 90
1, 272640, Note_on_c, 0, 43, 71
1, 272640, Note_on_c, 0, 55, 71
1, 272640, Note_on_c, 0, 46, 71
1, 272667, Control_c, 0, 64, 127
1, 273120, Tempo, 398698
1, 273120, Note_on_c, 0, 75, 0
1, 273120, Note_on_c, 0, 67, 0
1, 273120, Note_on_c, 0, 79, 0
1, 273120, Note_on_c, 0, 70, 0
1, 273120, Note_on_c, 0, 70, 69
1, 273120, Note_on_c, 0, 82, 83
1, 273600, Tempo, 394737
1, 273600, Note_on_c, 0, 82, 0
1, 273600, Note_on_c, 0, 70, 0
1, 273600, Note_on_c, 0, 43, 0
1, 273600, Note_on_c, 0, 46, 0
1, 273600, Note_on_c, 0, 55, 0
1, 273600, Note_on_c, 0, 70, 89
1, 273600, Note_on_c, 0, 65, 73
1, 273600, Note_on_c, 0, 77, 89
1, 273600, Note_on_c, 0, 38, 63
1, 273600, Note_on_c, 0, 50, 75
1, 273600, Note_on_c, 0, 46, 75
1, 273614, Control_c, 0, 64, 0
1, 273867, Control_c, 0, 64, 127
1, 274080, Tempo, 398671
1, 274080, Note_on_c, 0, 50, 0
1, 274080, Note_on_c, 0, 38, 0
1, 274080, Note_on_c, 0, 77, 0
1, 274080, Note_on_c, 0, 65, 0
1, 274080, Note_on_c, 0, 63, 72
1, 274080, Note_on_c, 0, 75, 87
1, 274080, Note_on_c, 0, 36, 63
1, 274080, Note_on_c, 0, 48, 75
1, 274100, Control_c, 0, 64, 0
1, 274294, Control_c, 0, 64, 127
1, 274560, Note_on_c, 0, 48, 0
1, 274560, Note_on_c, 0, 46, 0
1, 274560, Note_on_c, 0, 36, 0
1, 274560, Note_on_c, 0, 70, 0
1, 274560, Note_on_c, 0, 75, 0
1, 274560, Note_on_c, 0, 63, 0
1, 274560, Note_on_c, 0, 62, 71
1, 274560, Note_on_c, 0, 70, 85
1, 274560, Note_on_c, 0, 74, 85
1, 274560, Note_on_c, 0, 34, 50
1, 274560, Note_on_c, 0, 43, 62
1, 274560, Note_on_c, 0, 46, 62
1, 274571, Control_c, 0, 64, 0
1, 274843, Control_c, 0, 64, 127
1, 275520, Note_on_c, 0, 46, 0
1, 275520, Note_on_c, 0, 62, 0
1, 275520, Note_on_c, 0, 43, 0
1, 275520, Note_on_c, 0, 70, 0
1, 275520, Note_on_c, 0, 34, 0
1, 275520, Note_on_c, 0, 74, 0
1, 275520, Note_on_c, 0, 58, 63
1, 275520, Note_on_c, 0, 67, 75
1, 275520, Note_on_c, 0, 70, 75
1, 275520, Note_on_c, 0, 38, 45
1, 275520, Note_on_c, 0, 46, 54
1, 275520, Note_on_c, 0, 50, 54
1, 275538, Control_c, 0, 64, 0
1, 275683, Control_c, 0, 64, 127
1, 276360, Tempo, 745342
1, 276360, Note_on_c, 0, 50, 0
1, 276360, Note_on_c, 0, 58, 0
1, 276360, Note_on_c, 0, 39, 0
1, 276360, Note_on_c, 0, 67, 0
1, 276360, Note_on_c, 0, 51, 0
1, 276360, Note_on_c, 0, 27, 0
1, 276360, Note_on_c, 0, 38, 0
1, 276360, Note_on_c, 0, 70, 0
1, 276360, Note_on_c, 0, 46, 0
1, 276360, Note_on_c, 0, 51, 90
1, 276360, Note_on_c, 0, 27, 76
1, 276360, Note_on_c, 0, 39, 81
1, 276370, Control_c, 0, 64, 0
1, 276480, Tempo, 393933
1, 276480, Note_on_c, 0, 67, 75
1, 276480, Note_on_c, 0, 70, 90
1, 276480, Note_on_c, 0, 79, 90
1, 276480, Note_on_c, 0, 75, 90
1, 276480, Note_on_c, 0, 46, 71
1, 276480, Note_on_c, 0, 51, 71
1, 276480, Control_c, 0, 64, 127
1, 276960, Tempo, 398698
1, 276960, Note_on_c, 0, 75, 0
1, 276960, Note_on_c, 0, 67, 0
1, 276960, Note_on_c, 0, 79, 0
1, 276960, Note_on_c, 0, 70, 0
1, 276960, Note_on_c, 0, 70, 69
1, 276960, Note_on_c, 0, 82, 83
1, 277440, Tempo, 394737
1, 277440, Note_on_c, 0, 82, 0
1, 277440, Note_on_c, 0, 46, 0
1, 277440, Note_on_c, 0, 51, 0
1, 277440, Note_on_c, 0, 70, 0
1, 277440, Note_on_c, 0, 70, 87
1, 277440, Note_on_c, 0, 65, 72
1, 277440, Note_on_c, 0, 77, 87
1, 277440, Note_on_c, 0, 38, 63
1, 277440, Note_on_c, 0, 50, 75
1, 277440, Note_on_c, 0, 46, 75
1, 277457, Control_c, 0, 64, 0
1, 277654, Control_c, 0, 64, 127
1, 277920, Tempo, 398671
1, 277920, Note_on_c, 0, 50, 0
1, 277920, Note_on_c, 0, 38, 0
1, 277920, Note_on_c, 0, 77, 0
1, 277920, Note_on_c, 0, 65, 0
1, 277920, Note_on_c, 0, 63, 70
1, 277920, Note_on_c, 0, 75, 84
1, 277920, Note_on_c, 0, 36, 63
1, 277920, Note_on_c, 0, 48, 75
1, 277940, Control_c, 0, 64, 0
1, 278134, Control_c, 0, 64, 127
1, 278400, Note_on_c, 0, 48, 0
1, 278400, Note_on_c, 0, 46, 0
1, 278400, Note_on_c, 0, 36, 0
1, 278400, Note_on_c, 0, 70, 0
1, 278400, Note_on_c, 0, 75, 0
1, 278400, Note_on_c, 0, 63, 0
1, 278400, Note_on_c, 0, 62, 81
1, 278400, Note_on_c, 0, 70, 81
1, 278400, Note_on_c, 0, 74, 81
1, 278400, Note_on_c, 0, 34, 56
1, 278400, Note_on_c, 0, 43, 68
1, 278400, Note_on_c, 0, 46, 68
1, 278410, Control_c, 0, 64, 0
1, 278694, Control_c, 0, 64, 127
1, 279360, Tempo, 408163
1, 279360, Note_on_c, 0, 46, 0
1, 279360, Note_on_c, 0, 62, 0
1, 279360, Note_on_c, 0, 43, 0
1, 279360, Note_on_c, 0, 70, 0
1, 279360, Note_on_c, 0, 34, 0
1, 279360, Note_on_c, 0, 74, 0
1, 279360, Note_on_c, 0, 58, 63
1, 279360, Note_on_c, 0, 67, 73
1, 279360, Note_on_c, 0, 70, 73
1, 279360, Note_on_c, 0, 38, 45
1, 279360, Note_on_c, 0, 46, 52
1, 279360, Note_on_c, 0, 50, 52
1, 279378, Control_c, 0, 64, 0
1, 279627, Control_c, 0, 64, 127
1, 280320, Note_on_c, 0, 50, 0
1, 280320, Note_on_c, 0, 58, 0
1, 280320, Note_on_c, 0, 27, 0
1, 280320, Note_on_c, 0, 67, 0
1, 280320, Note_on_c, 0, 39, 0
1, 280320, Note_on_c, 0, 51, 0
1, 280320, Note_on_c, 0, 38, 0
1, 280320, Note_on_c, 0, 70, 0
1, 280320, Note_on_c, 0, 46, 0
1, 280320, Note_on_c, 0, 59, 50
1, 280320, Note_on_c, 0, 63, 50
1, 280320, Note_on_c, 0, 68, 50
1, 280320, Note_on_c, 0, 51, 50
1, 280320, Note_on_c, 0, 44, 50
1, 280330, Control_c, 0, 64, 0
1, 280694, Control_c, 0, 64, 127
1, 280800, Tempo, 388350
1, 282240, Tempo, 373739
1, 282240, Note_on_c, 0, 44, 0
1, 282240, Note_on_c, 0, 68, 0
1, 282240, Note_on_c, 0, 59, 0
1, 282240, Note_on_c, 0, 63, 0
1, 282240, Note_on_c, 0, 51, 0
1, 282240, Note_on_c, 0, 59, 49
1, 282240, Note_on_c, 0, 63, 49
1, 282240, Note_on_c, 0, 44, 42
1, 282240, Note_on_c, 0, 51, 42
1, 282251, Control_c, 0, 64, 0
1, 282587, Control_c, 0, 64, 127
1, 283200, Tempo, 366345
1, 283200, Note_on_c, 0, 51, 0
1, 283200, Note_on_c, 0, 59, 0
1, 283200, Note_on_c, 0, 63, 0
1, 283200, Note_on_c, 0, 44, 0
1, 283200, Note_on_c, 0, 59, 47
1, 283200, Note_on_c, 0, 63, 47
1, 283200, Note_on_c, 0, 47, 41
1, 283200, Note_on_c, 0, 56, 41
1, 283213, Control_c, 0, 64, 0
1, 283387, Control_c, 0, 64, 127
1, 284160, Note_on_c, 0, 56, 0
1, 284160, Note_on_c, 0, 59, 0
1, 284160, Note_on_c, 0, 63, 0
1, 284160, Note_on_c, 0, 47, 0
1, 284160, Note_on_c, 0, 61, 50
1, 284160, Note_on_c, 0, 64, 50
1, 284160, Note_on_c, 0, 49, 43
1, 284160, Note_on_c, 0, 56, 43
1, 284177, Control_c, 0, 64, 0
1, 284347, Control_c, 0, 64, 127
1, 285120, Tempo, 362757
1, 285120, Note_on_c, 0, 56, 0
1, 285120, Note_on_c, 0, 61, 0
1, 285120, Note_on_c, 0, 64, 0
1, 285120, Note_on_c, 0, 49, 0
1, 285120, Note_on_c, 0, 63, 50
1, 285120, Note_on_c, 0, 66, 50
1, 285120, Note_on_c, 0, 47, 43
1, 285120, Note_on_c, 0, 59, 43
1, 285143, Control_c, 0, 64, 0
1, 285387, Control_c, 0, 64, 127
1, 286080, Tempo, 368777
1, 286080, Note_on_c, 0, 59, 0
1, 286080, Note_on_c, 0, 63, 0
1, 286080, Note_on_c, 0, 66, 0
1, 286080, Note_on_c, 0, 47, 0
1, 286080, Note_on_c, 0, 64, 53
1, 286080, Note_on_c, 0, 68, 53
1, 286080, Note_on_c, 0, 52, 45
1, 286080, Note_on_c, 0, 59, 45
1, 286093, Control_c, 0, 64, 0
1, 286400, Control_c, 0, 64, 127
1, 288000, Note_on_c, 0, 59, 0
1, 288000, Note_on_c, 0, 64, 0
1, 288000, Note_on_c, 0, 68, 0
1, 288000, Note_on_c, 0, 52, 0
1, 288000, Note_on_c, 0, 63, 50
1, 288000, Note_on_c, 0, 66, 50
1, 288000, Note_on_c, 0, 59, 43
1, 288012, Control_c, 0, 64, 0
1, 288267, Control_c, 0, 64, 127
1, 289920, Tempo, 361576
1, 289920, Note_on_c, 0, 59, 0
1, 289920, Note_on_c, 0, 66, 0
1, 289920, Note_on_c, 0, 63, 0
1, 289920, Note_on_c, 0, 64, 51
1, 289920, Note_on_c, 0, 68, 51
1, 289920, Note_on_c, 0, 59, 43
1, 289920, Note_on_c, 0, 56, 43
1, 289930, Control_c, 0, 64, 0
1, 290187, Control_c, 0, 64, 127
1, 290880, Note_on_c, 0, 56, 0
1, 290880, Note_on_c, 0, 64, 0
1, 290880, Note_on_c, 0, 68, 0
1, 290880, Note_on_c, 0, 59, 0
1, 290880, Note_on_c, 0, 66, 52
1, 290880, Note_on_c, 0, 69, 52
1, 290880, Note_on_c, 0, 61, 44
1, 290880, Note_on_c, 0, 54, 44
1, 290890, Control_c, 0, 64, 0
1, 291120, Control_c, 0, 64, 127
1, 291840, Tempo, 360404
1, 291840, Note_on_c, 0, 54, 0
1, 291840, Note_on_c, 0, 66, 0
1, 291840, Note_on_c, 0, 69, 0
1, 291840, Note_on_c, 0, 61, 0
1, 291840, Note_on_c, 0, 68, 53
1, 291840, Note_on_c, 0, 71, 53
1, 291840, Note_on_c, 0, 52, 46
1, 291840, Note_on_c, 0, 64, 46
1, 291859, Control_c, 0, 64, 0
1, 292187, Control_c, 0, 64, 127
1, 292800, Tempo, 365141
1, 292800, Note_on_c, 0, 64, 0
1, 292800, Note_on_c, 0, 68, 0
1, 292800, Note_on_c, 0, 71, 0
1, 292800, Note_on_c, 0, 52, 0
1, 292800, Note_on_c, 0, 68, 50
1, 292800, Note_on_c, 0, 71, 50
1, 292800, Note_on_c, 0, 52, 43
1, 292800, Note_on_c, 0, 64, 43
1, 293760, Tempo, 358081
1, 293760, Note_on_c, 0, 64, 0
1, 293760, Note_on_c, 0, 68, 0
1, 293760, Note_on_c, 0, 71, 0
1, 293760, Note_on_c, 0, 52, 0
1, 293760, Note_on_c, 0, 66, 53
1, 293760, Note_on_c, 0, 69, 53
1, 293760, Note_on_c, 0, 57, 45
1, 293760, Note_on_c, 0, 64, 45
1, 293770, Control_c, 0, 64, 0
1, 294027, Control_c, 0, 64, 127
1, 294720, Tempo, 362757
1, 294720, Note_on_c, 0, 64, 0
1, 294720, Note_on_c, 0, 66, 0
1, 294720, Note_on_c, 0, 69, 0
1, 294720, Note_on_c, 0, 57, 0
1, 294720, Note_on_c, 0, 68, 54
1, 294720, Note_on_c, 0, 71, 54
1, 294720, Note_on_c, 0, 52, 46
1, 294720, Note_on_c, 0, 64, 46
1, 294739, Control_c, 0, 64, 0
1, 295040, Control_c, 0, 64, 127
1, 295680, Note_on_c, 0, 64, 0
1, 295680, Note_on_c, 0, 68, 0
1, 295680, Note_on_c, 0, 71, 0
1, 295680, Note_on_c, 0, 52, 0
1, 295680, Note_on_c, 0, 69, 56
1, 295680, Note_on_c, 0, 73, 56
1, 295680, Note_on_c, 0, 64, 47
1, 295680, Note_on_c, 0, 57, 47
1, 295689, Control_c, 0, 64, 0
1, 295947, Control_c, 0, 64, 127
1, 296640, Tempo, 358081
1, 297600, Tempo, 354652
1, 297600, Note_on_c, 0, 57, 0
1, 297600, Note_on_c, 0, 69, 0
1, 297600, Note_on_c, 0, 73, 0
1, 297600, Note_on_c, 0, 64, 0
1, 297600, Note_on_c, 0, 66, 63
1, 297600, Note_on_c, 0, 74, 63
1, 297600, Note_on_c, 0, 62, 52
1, 297600, Note_on_c, 0, 59, 52
1, 297611, Control_c, 0, 64, 0
1, 297867, Control_c, 0, 64, 127
1, 298560, Tempo, 359238
1, 298560, Note_on_c, 0, 59, 0
1, 298560, Note_on_c, 0, 66, 0
1, 298560, Note_on_c, 0, 74, 0
1, 298560, Note_on_c, 0, 62, 0
1, 298560, Note_on_c, 0, 69, 56
1, 298560, Note_on_c, 0, 73, 56
1, 298560, Note_on_c, 0, 64, 49
1, 298560, Note_on_c, 0, 57, 49
1, 298575, Control_c, 0, 64, 0
1, 298880, Control_c, 0, 64, 127
1, 299520, Tempo, 359238
1, 299520, Note_on_c, 0, 57, 0
1, 299520, Note_on_c, 0, 69, 0
1, 299520, Note_on_c, 0, 73, 0
1, 299520, Note_on_c, 0, 64, 0
1, 299520, Note_on_c, 0, 68, 53
1, 299520, Note_on_c, 0, 71, 53
1, 299520, Note_on_c, 0, 52, 47
1, 299520, Note_on_c, 0, 64, 47
1, 299532, Control_c, 0, 64, 0
1, 299787, Control_c, 0, 64, 127
1, 301440, Note_on_c, 0, 64, 0
1, 301440, Note_on_c, 0, 68, 0
1, 301440, Note_on_c, 0, 71, 0
1, 301440, Note_on_c, 0, 52, 0
1, 301440, Note_on_c, 0, 64, 54
1, 301440, Note_on_c, 0, 73, 54
1, 301440, Note_on_c, 0, 57, 48
1, 301440, Note_on_c, 0, 61, 48
1, 301452, Control_c, 0, 64, 0
1, 301680, Control_c, 0, 64, 127
1, 302400, Tempo, 361576
1, 302400, Note_on_c, 0, 61, 0
1, 302400, Note_on_c, 0, 64, 0
1, 302400, Note_on_c, 0, 73, 0
1, 302400, Note_on_c, 0, 57, 0
1, 302400, Note_on_c, 0, 71, 52
1, 302400, Note_on_c, 0, 68, 52
1, 302400, Note_on_c, 0, 52, 47
1, 302400, Note_on_c, 0, 59, 47
1, 302414, Control_c, 0, 64, 0
1, 302614, Control_c, 0, 64, 127
1, 303360, Note_on_c, 0, 59, 0
1, 303360, Note_on_c, 0, 71, 0
1, 303360, Note_on_c, 0, 68, 0
1, 303360, Note_on_c, 0, 52, 0
1, 303360, Note_on_c, 0, 61, 51
1, 303360, Note_on_c, 0, 69, 51
1, 303360, Note_on_c, 0, 57, 45
1, 303360, Note_on_c, 0, 54, 45
1, 303369, Control_c, 0, 64, 0
1, 303627, Control_c, 0, 64, 127
1, 304320, Note_on_c, 0, 54, 0
1, 304320, Note_on_c, 0, 61, 0
1, 304320, Note_on_c, 0, 69, 0
1, 304320, Note_on_c, 0, 57, 0
1, 304320, Note_on_c, 0, 64, 49
1, 304320, Note_on_c, 0, 68, 49
1, 304320, Note_on_c, 0, 49, 41
1, 304320, Note_on_c, 0, 56, 41
1, 304329, Control_c, 0, 64, 0
1, 304560, Control_c, 0, 64, 127
1, 305280, Tempo, 363945
1, 305280, Note_on_c, 0, 56, 0
1, 305280, Note_on_c, 0, 64, 0
1, 305280, Note_on_c, 0, 68, 0
1, 305280, Note_on_c, 0, 49, 0
1, 305280, Note_on_c, 0, 63, 52
1, 305280, Note_on_c, 0, 66, 52
1, 305280, Note_on_c, 0, 51, 47
1, 305280, Note_on_c, 0, 54, 47
1, 305294, Control_c, 0, 64, 0
1, 305574, Control_c, 0, 64, 127
1, 307200, Note_on_c, 0, 54, 0
1, 307200, Note_on_c, 0, 63, 0
1, 307200, Note_on_c, 0, 66, 0
1, 307200, Note_on_c, 0, 51, 0
1, 307200, Note_on_c, 0, 61, 50
1, 307200, Note_on_c, 0, 64, 50
1, 307200, Note_on_c, 0, 52, 43
1, 307200, Note_on_c, 0, 56, 43
1, 307218, Control_c, 0, 64, 0
1, 307240, Tempo, 377572
1, 307547, Control_c, 0, 64, 127
1, 309120, Tempo, 384098
1, 309120, Note_on_c, 0, 56, 0
1, 309120, Note_on_c, 0, 61, 0
1, 309120, Note_on_c, 0, 64, 0
1, 309120, Note_on_c, 0, 52, 0
1, 309120, Note_on_c, 0, 56, 46
1, 309120, Note_on_c, 0, 63, 46
1, 309120, Note_on_c, 0, 51, 39
1, 309120, Note_on_c, 0, 44, 39
1, 309133, Control_c, 0, 64, 0
1, 309387, Control_c, 0, 64, 127
1, 311040, Tempo, 393443
1, 311040, Note_on_c, 0, 44, 0
1, 311040, Note_on_c, 0, 56, 0
1, 311040, Note_on_c, 0, 63, 0
1, 311040, Note_on_c, 0, 51, 0
1, 311040, Note_on_c, 0, 56, 37
1, 311040, Note_on_c, 0, 63, 37
1, 311040, Note_on_c, 0, 44, 36
1, 311040, Note_on_c, 0, 51, 36
1, 312000, Note_on_c, 0, 51, 0
1, 312000, Note_on_c, 0, 56, 0
1, 312000, Note_on_c, 0, 63, 0
1, 312000, Note_on_c, 0, 44, 0
1, 312000, Note_on_c, 0, 56, 35
1, 312000, Note_on_c, 0, 63, 35
1, 312000, Note_on_c, 0, 44, 34
1, 312000, Note_on_c, 0, 51, 34
1, 312480, Control_c, 0, 64, 0
1, 312840, Tempo, 556225
1, 312840, Note_on_c, 0, 51, 0
1, 312840, Note_on_c, 0, 56, 0
1, 312840, Note_on_c, 0, 63, 0
1, 312840, Note_on_c, 0, 44, 0
1, 312840, Note_on_c, 0, 39, 81
1, 312942, Tempo, 358209
1, 312958, Note_on_c, 0, 91, 71
1, 312960, Note_on_c, 0, 103, 90
1, 312960, Note_on_c, 0, 43, 72
1, 312960, Note_on_c, 0, 46, 72
1, 312960, Note_on_c, 0, 51, 88
1, 312970, Tempo, 356083
1, 312994, Tempo, 355030
1, 313022, Tempo, 357143
1, 313034, Tempo, 358209
1, 313038, Control_c, 0, 64, 127
1, 313050, Tempo, 361446
1, 313062, Tempo, 360360
1, 313074, Tempo, 359281
1, 313090, Tempo, 358209
1, 313102, Tempo, 357143
1, 313114, Tempo, 356083
1, 313130, Tempo, 358209
1, 313142, Tempo, 359281
1, 313154, Tempo, 361446
1, 313170, Tempo, 362538
1, 313198, Note_on_c, 0, 91, 0
1, 313200, Note_on_c, 0, 103, 0
1, 313200, Note_on_c, 0, 101, 83
1, 313201, Note_on_c, 0, 89, 65
1, 313210, Tempo, 360360
1, 313222, Tempo, 359281
1, 313234, Tempo, 358209
1, 313250, Tempo, 357143
1, 313262, Tempo, 358209
1, 313274, Tempo, 361446
1, 313290, Tempo, 362538
1, 313370, Tempo, 360360
1, 313382, Tempo, 359281
1, 313394, Tempo, 358209
1, 313422, Tempo, 356083
1, 313434, Tempo, 360360
1, 313439, Note_on_c, 0, 87, 71
1, 313440, Note_on_c, 0, 101, 0
1, 313440, Note_on_c, 0, 99, 90
1, 313441, Note_on_c, 0, 89, 0
1, 313450, Tempo, 361446
1, 313462, Tempo, 362538
1, 313474, Tempo, 363636
1, 313514, Tempo, 362538
1, 313530, Tempo, 361446
1, 313542, Tempo, 360360
1, 313554, Tempo, 359281
1, 313582, Tempo, 358209
1, 313650, Tempo, 361446
1, 313662, Tempo, 362538
1, 313674, Tempo, 363636
1, 313679, Note_on_c, 0, 87, 0
1, 313680, Note_on_c, 0, 99, 0
1, 313680, Note_on_c, 0, 98, 82
1, 313682, Note_on_c, 0, 86, 64
1, 313690, Tempo, 364742
1, 313714, Tempo, 362538
1, 313742, Tempo, 360360
1, 313754, Tempo, 359281
1, 313794, Tempo, 358209
1, 313822, Tempo, 359281
1, 313834, Tempo, 361446
1, 313850, Tempo, 362538
1, 313862, Tempo, 363636
1, 313874, Tempo, 364742
1, 313914, Tempo, 363636
1, 313920, Note_on_c, 0, 98, 0
1, 313920, Note_on_c, 0, 96, 88
1, 313921, Note_on_c, 0, 84, 70
1, 313922, Note_on_c, 0, 86, 0
1, 313930, Tempo, 362538
1, 313931, Control_c, 0, 64, 0
1, 313954, Tempo, 360360
1, 313982, Tempo, 359281
1, 314010, Tempo, 361446
1, 314012, Control_c, 0, 64, 127
1, 314022, Tempo, 362538
1, 314034, Tempo, 363636
1, 314090, Tempo, 362538
1, 314114, Tempo, 361446
1, 314130, Tempo, 360360
1, 314154, Tempo, 359281
1, 314160, Note_on_c, 0, 96, 0
1, 314160, Note_on_c, 0, 82, 64
1, 314160, Note_on_c, 0, 94, 82
1, 314161, Note_on_c, 0, 84, 0
1, 314170, Tempo, 361446
1, 314182, Tempo, 363636
1, 314194, Tempo, 364742
1, 314210, Tempo, 365854
1, 314250, Tempo, 364742
1, 314262, Tempo, 363636
1, 314274, Tempo, 362538
1, 314314, Tempo, 361446
1, 314330, Tempo, 360360
1, 314394, Tempo, 363636
1, 314400, Note_on_c, 0, 82, 0
1, 314400, Note_on_c, 0, 94, 0
1, 314400, Note_on_c, 0, 92, 88
1, 314400, Note_on_c, 0, 80, 70
1, 314410, Tempo, 365854
1, 314422, Tempo, 368098
1, 314474, Tempo, 366972
1, 314490, Tempo, 364742
1, 314502, Tempo, 363636
1, 314530, Tempo, 362538
1, 314554, Tempo, 361446
1, 314594, Tempo, 363636
1, 314610, Tempo, 365854
1, 314640, Note_on_c, 0, 80, 0
1, 314640, Note_on_c, 0, 92, 0
1, 314640, Note_on_c, 0, 91, 82
1, 314643, Note_on_c, 0, 79, 64
1, 314720, Tempo, 365854
1, 314760, Tempo, 427838
1, 314760, Note_on_c, 0, 46, 0
1, 314760, Note_on_c, 0, 43, 0
1, 314760, Note_on_c, 0, 39, 0
1, 314760, Note_on_c, 0, 51, 0
1, 314760, Note_on_c, 0, 41, 75
1, 314874, Tempo, 363636
1, 314880, Note_on_c, 0, 91, 0
1, 314880, Note_on_c, 0, 89, 87
1, 314880, Note_on_c, 0, 46, 70
1, 314880, Note_on_c, 0, 50, 70
1, 314880, Note_on_c, 0, 53, 86
1, 314882, Note_on_c, 0, 77, 70
1, 314883, Note_on_c, 0, 79, 0
1, 314890, Control_c, 0, 64, 0
1, 314902, Tempo, 360360
1, 314914, Tempo, 359281
1, 314954, Tempo, 362538
1, 314965, Control_c, 0, 64, 127
1, 314970, Tempo, 363636
1, 314982, Tempo, 364742
1, 314994, Tempo, 365854
1, 315022, Tempo, 363636
1, 315034, Tempo, 362538
1, 315050, Tempo, 360360
1, 315074, Tempo, 359281
1, 315102, Tempo, 361446
1, 315114, Tempo, 365854
1, 315120, Note_on_c, 0, 89, 0
1, 315120, Note_on_c, 0, 87, 81
1, 315122, Note_on_c, 0, 77, 0
1, 315122, Note_on_c, 0, 75, 63
1, 315142, Tempo, 364742
1, 315154, Tempo, 363636
1, 315170, Tempo, 362538
1, 315182, Tempo, 361446
1, 315194, Tempo, 360360
1, 315222, Tempo, 362538
1, 315234, Tempo, 364742
1, 315250, Tempo, 365854
1, 315262, Tempo, 366972
1, 315314, Tempo, 364742
1, 315330, Tempo, 363636
1, 315342, Tempo, 362538
1, 315359, Note_on_c, 0, 74, 68
1, 315360, Note_on_c, 0, 87, 0
1, 315360, Note_on_c, 0, 86, 86
1, 315362, Note_on_c, 0, 75, 0
1, 315382, Tempo, 361446
1, 315410, Tempo, 362538
1, 315422, Tempo, 365854
1, 315434, Tempo, 368098
1, 315462, Tempo, 366972
1, 315474, Tempo, 365854
1, 315490, Tempo, 364742
1, 315502, Tempo, 363636
1, 315514, Tempo, 362538
1, 315542, Tempo, 361446
1, 315554, Tempo, 360360
1, 315570, Tempo, 362538
1, 315582, Tempo, 365854
1, 315594, Tempo, 364742
1, 315599, Note_on_c, 0, 74, 0
1, 315600, Note_on_c, 0, 86, 0
1, 315600, Note_on_c, 0, 84, 80
1, 315603, Note_on_c, 0, 72, 63
1, 315622, Tempo, 363636
1, 315634, Tempo, 362538
1, 315650, Tempo, 361446
1, 315674, Tempo, 360360
1, 315690, Tempo, 359281
1, 315702, Tempo, 362538
1, 315714, Tempo, 363636
1, 315742, Tempo, 364742
1, 315782, Tempo, 363636
1, 315810, Tempo, 362538
1, 315822, Tempo, 361446
1, 315840, Note_on_c, 0, 84, 0
1, 315840, Note_on_c, 0, 82, 86
1, 315842, Note_on_c, 0, 70, 68
1, 315843, Note_on_c, 0, 72, 0
1, 315850, Tempo, 360360
1, 315857, Control_c, 0, 64, 0
1, 315862, Tempo, 359281
1, 315902, Tempo, 363636
1, 315914, Tempo, 365854
1, 315930, Tempo, 366972
1, 315932, Control_c, 0, 64, 127
1, 315970, Tempo, 364742
1, 315982, Tempo, 363636
1, 316010, Tempo, 362538
1, 316034, Tempo, 360360
1, 316050, Tempo, 361446
1, 316062, Tempo, 362538
1, 316074, Tempo, 365854
1, 316080, Note_on_c, 0, 82, 0
1, 316080, Note_on_c, 0, 80, 80
1, 316081, Note_on_c, 0, 68, 63
1, 316082, Note_on_c, 0, 70, 0
1, 316114, Tempo, 363636
1, 316130, Tempo, 362538
1, 316154, Tempo, 361446
1, 316170, Tempo, 360360
1, 316182, Tempo, 359281
1, 316222, Tempo, 362538
1, 316234, Tempo, 364742
1, 316250, Tempo, 365854
1, 316262, Tempo, 366972
1, 316290, Tempo, 368098
1, 316319, Note_on_c, 0, 67, 68
1, 316320, Note_on_c, 0, 80, 0
1, 316320, Note_on_c, 0, 79, 86
1, 316321, Note_on_c, 0, 68, 0
1, 316330, Tempo, 366972
1, 316342, Tempo, 364742
1, 316354, Tempo, 363636
1, 316410, Tempo, 364742
1, 316422, Tempo, 366972
1, 316434, Tempo, 368098
1, 316450, Tempo, 369231
1, 316462, Tempo, 368098
1, 316474, Tempo, 366972
1, 316490, Tempo, 365854
1, 316502, Tempo, 364742
1, 316558, Note_on_c, 0, 65, 63
1, 316559, Note_on_c, 0, 67, 0
1, 316560, Note_on_c, 0, 79, 0
1, 316560, Note_on_c, 0, 77, 80
1, 316600, Tempo, 366972
1, 316680, Tempo, 426227
1, 316680, Note_on_c, 0, 46, 0
1, 316680, Note_on_c, 0, 41, 0
1, 316680, Note_on_c, 0, 50, 0
1, 316680, Note_on_c, 0, 53, 0
1, 316680, Note_on_c, 0, 43, 80
1, 316780, Tempo, 370691
1, 316798, Note_on_c, 0, 65, 0
1, 316798, Note_on_c, 0, 63, 66
1, 316800, Tempo, 369231
1, 316800, Note_on_c, 0, 77, 0
1, 316800, Note_on_c, 0, 75, 84
1, 316800, Note_on_c, 0, 46, 70
1, 316800, Note_on_c, 0, 51, 70
1, 316800, Note_on_c, 0, 55, 87
1, 316809, Control_c, 0, 64, 0
1, 316878, Control_c, 0, 64, 127
1, 317038, Note_on_c, 0, 63, 0
1, 317040, Note_on_c, 0, 75, 0
1, 317040, Note_on_c, 0, 62, 63
1, 317040, Note_on_c, 0, 74, 79
1, 317278, Note_on_c, 0, 60, 66
1, 317280, Note_on_c, 0, 74, 0
1, 317280, Note_on_c, 0, 62, 0
1, 317280, Note_on_c, 0, 72, 84
1, 317518, Note_on_c, 0, 60, 0
1, 317518, Note_on_c, 0, 58, 62
1, 317520, Note_on_c, 0, 72, 0
1, 317520, Note_on_c, 0, 70, 76
1, 317640, Tempo, 403063
1, 317640, Note_on_c, 0, 46, 0
1, 317640, Note_on_c, 0, 43, 0
1, 317640, Note_on_c, 0, 51, 0
1, 317640, Note_on_c, 0, 55, 0
1, 317640, Note_on_c, 0, 39, 66
1, 317758, Note_on_c, 0, 58, 0
1, 317760, Tempo, 368347
1, 317760, Note_on_c, 0, 70, 0
1, 317760, Note_on_c, 0, 68, 83
1, 317760, Note_on_c, 0, 46, 67
1, 317760, Note_on_c, 0, 51, 82
1, 317763, Note_on_c, 0, 56, 65
1, 317776, Control_c, 0, 64, 0
1, 317831, Control_c, 0, 64, 127
1, 318000, Note_on_c, 0, 68, 0
1, 318000, Note_on_c, 0, 55, 61
1, 318000, Note_on_c, 0, 67, 73
1, 318003, Note_on_c, 0, 56, 0
1, 318120, Note_on_c, 0, 51, 0
1, 318120, Note_on_c, 0, 39, 0
1, 318120, Note_on_c, 0, 46, 0
1, 318120, Note_on_c, 0, 43, 63
1, 318238, Note_on_c, 0, 53, 64
1, 318240, Tempo, 370691
1, 318240, Note_on_c, 0, 67, 0
1, 318240, Note_on_c, 0, 55, 0
1, 318240, Note_on_c, 0, 65, 82
1, 318240, Note_on_c, 0, 46, 64
1, 318240, Note_on_c, 0, 55, 80
1, 318257, Control_c, 0, 64, 0
1, 318325, Control_c, 0, 64, 127
1, 318478, Note_on_c, 0, 53, 0
1, 318478, Note_on_c, 0, 51, 61
1, 318480, Note_on_c, 0, 65, 0
1, 318480, Note_on_c, 0, 63, 73
1, 318600, Tempo, 391696
1, 318600, Note_on_c, 0, 55, 0
1, 318600, Note_on_c, 0, 43, 0
1, 318600, Note_on_c, 0, 46, 0
1, 318600, Note_on_c, 0, 41, 63
1, 318718, Note_on_c, 0, 51, 0
1, 318718, Note_on_c, 0, 50, 63
1, 318720, Tempo, 375258
1, 318720, Note_on_c, 0, 63, 0
1, 318720, Note_on_c, 0, 62, 80
1, 318720, Note_on_c, 0, 46, 63
1, 318720, Note_on_c, 0, 53, 79
1, 318734, Control_c, 0, 64, 0
1, 318798, Control_c, 0, 64, 127
1, 318958, Note_on_c, 0, 50, 0
1, 318960, Note_on_c, 0, 62, 0
1, 318960, Note_on_c, 0, 48, 59
1, 318960, Note_on_c, 0, 60, 72
1, 319200, Note_on_c, 0, 60, 0
1, 319200, Note_on_c, 0, 48, 0
1, 319200, Note_on_c, 0, 58, 80
1, 319201, Note_on_c, 0, 46, 63
1, 319440, Note_on_c, 0, 58, 0
1, 319440, Note_on_c, 0, 56, 71
1, 319441, Note_on_c, 0, 46, 0
1, 319441, Note_on_c, 0, 44, 57
1, 319560, Tempo, 397272
1, 319560, Note_on_c, 0, 53, 0
1, 319560, Note_on_c, 0, 41, 0
1, 319560, Note_on_c, 0, 46, 0
1, 319560, Note_on_c, 0, 34, 54
1, 319680, Note_on_c, 0, 56, 0
1, 319680, Note_on_c, 0, 55, 79
1, 319680, Note_on_c, 0, 38, 59
1, 319680, Note_on_c, 0, 46, 71
1, 319681, Note_on_c, 0, 44, 0
1, 319681, Note_on_c, 0, 43, 62
1, 319692, Control_c, 0, 64, 0
1, 319720, Tempo, 375258
1, 319779, Control_c, 0, 64, 127
1, 319920, Note_on_c, 0, 55, 0
1, 319920, Note_on_c, 0, 53, 69
1, 319921, Note_on_c, 0, 43, 0
1, 319921, Note_on_c, 0, 41, 54
1, 320158, Note_on_c, 0, 39, 62
1, 320160, Note_on_c, 0, 53, 0
1, 320160, Note_on_c, 0, 51, 79
1, 320161, Note_on_c, 0, 41, 0
1, 320398, Note_on_c, 0, 39, 0
1, 320400, Note_on_c, 0, 51, 0
1, 320400, Note_on_c, 0, 50, 68
1, 320401, Note_on_c, 0, 38, 54
1, 320640, Tempo, 365186
1, 320640, Note_on_c, 0, 50, 0
1, 320640, Note_on_c, 0, 34, 0
1, 320640, Note_on_c, 0, 38, 0
1, 320640, Note_on_c, 0, 46, 0
1, 320640, Note_on_c, 0, 51, 76
1, 320640, Note_on_c, 0, 43, 67
1, 320640, Note_on_c, 0, 46, 67
1, 320640, Note_on_c, 0, 55, 82
1, 320641, Note_on_c, 0, 38, 0
1, 320654, Control_c, 0, 64, 0
1, 320711, Control_c, 0, 64, 127
1, 320880, Note_on_c, 0, 51, 0
1, 320880, Note_on_c, 0, 53, 67
1, 321120, Tempo, 369617
1, 321120, Note_on_c, 0, 53, 0
1, 321120, Note_on_c, 0, 55, 0
1, 321120, Note_on_c, 0, 43, 0
1, 321120, Note_on_c, 0, 46, 0
1, 321120, Note_on_c, 0, 55, 76
1, 321120, Note_on_c, 0, 51, 63
1, 321120, Note_on_c, 0, 46, 63
1, 321120, Note_on_c, 0, 58, 76
1, 321134, Control_c, 0, 64, 0
1, 321177, Control_c, 0, 64, 127
1, 321360, Note_on_c, 0, 55, 0
1, 321360, Note_on_c, 0, 56, 68
1, 321600, Tempo, 365921
1, 321600, Note_on_c, 0, 56, 0
1, 321600, Note_on_c, 0, 58, 0
1, 321600, Note_on_c, 0, 46, 0
1, 321600, Note_on_c, 0, 51, 0
1, 321600, Note_on_c, 0, 58, 79
1, 321600, Note_on_c, 0, 46, 65
1, 321600, Note_on_c, 0, 41, 65
1, 321600, Note_on_c, 0, 53, 81
1, 321614, Control_c, 0, 64, 0
1, 321678, Control_c, 0, 64, 127
1, 321840, Note_on_c, 0, 58, 0
1, 321840, Note_on_c, 0, 60, 68
1, 322080, Tempo, 369595
1, 322080, Note_on_c, 0, 60, 0
1, 322080, Note_on_c, 0, 53, 0
1, 322080, Note_on_c, 0, 41, 0
1, 322080, Note_on_c, 0, 62, 80
1, 322080, Note_on_c, 0, 39, 63
1, 322080, Note_on_c, 0, 51, 79
1, 322101, Control_c, 0, 64, 0
1, 322165, Control_c, 0, 64, 127
1, 322320, Note_on_c, 0, 62, 0
1, 322320, Note_on_c, 0, 63, 69
1, 322440, Tempo, 427838
1, 322440, Note_on_c, 0, 46, 0
1, 322440, Note_on_c, 0, 51, 0
1, 322440, Note_on_c, 0, 39, 0
1, 322440, Note_on_c, 0, 38, 63
1, 322560, Tempo, 365854
1, 322560, Note_on_c, 0, 63, 0
1, 322560, Note_on_c, 0, 53, 65
1, 322560, Note_on_c, 0, 65, 72
1, 322560, Note_on_c, 0, 46, 63
1, 322560, Note_on_c, 0, 50, 79
1, 322570, Control_c, 0, 64, 0
1, 322638, Control_c, 0, 64, 127
1, 322800, Note_on_c, 0, 65, 0
1, 322800, Note_on_c, 0, 53, 0
1, 322800, Note_on_c, 0, 55, 60
1, 322800, Note_on_c, 0, 67, 67
1, 323038, Note_on_c, 0, 56, 70
1, 323040, Note_on_c, 0, 67, 0
1, 323040, Note_on_c, 0, 55, 0
1, 323040, Note_on_c, 0, 68, 79
1, 323278, Note_on_c, 0, 56, 0
1, 323280, Note_on_c, 0, 68, 0
1, 323280, Note_on_c, 0, 70, 70
1, 323281, Note_on_c, 0, 58, 63
1, 323400, Tempo, 427838
1, 323400, Note_on_c, 0, 50, 0
1, 323400, Note_on_c, 0, 46, 0
1, 323400, Note_on_c, 0, 38, 0
1, 323400, Note_on_c, 0, 34, 54
1, 323520, Tempo, 368098
1, 323520, Note_on_c, 0, 70, 0
1, 323520, Note_on_c, 0, 72, 83
1, 323520, Note_on_c, 0, 43, 54
1, 323520, Note_on_c, 0, 46, 68
1, 323521, Note_on_c, 0, 58, 0
1, 323522, Note_on_c, 0, 60, 72
1, 323538, Control_c, 0, 64, 0
1, 323619, Control_c, 0, 64, 127
1, 323760, Note_on_c, 0, 72, 0
1, 323760, Note_on_c, 0, 74, 73
1, 323762, Note_on_c, 0, 60, 0
1, 323762, Note_on_c, 0, 62, 67
1, 324000, Note_on_c, 0, 74, 0
1, 324000, Note_on_c, 0, 75, 85
1, 324001, Note_on_c, 0, 63, 75
1, 324002, Note_on_c, 0, 62, 0
1, 324239, Note_on_c, 0, 65, 68
1, 324240, Note_on_c, 0, 75, 0
1, 324240, Note_on_c, 0, 77, 75
1, 324241, Note_on_c, 0, 63, 0
1, 324479, Note_on_c, 0, 65, 0
1, 324480, Tempo, 361446
1, 324480, Note_on_c, 0, 46, 0
1, 324480, Note_on_c, 0, 34, 0
1, 324480, Note_on_c, 0, 77, 0
1, 324480, Note_on_c, 0, 43, 0
1, 324480, Note_on_c, 0, 79, 88
1, 324480, Note_on_c, 0, 43, 67
1, 324480, Note_on_c, 0, 55, 82
1, 324480, Note_on_c, 0, 51, 67
1, 324483, Note_on_c, 0, 67, 80
1, 324506, Control_c, 0, 64, 0
1, 324572, Control_c, 0, 64, 127
1, 324720, Note_on_c, 0, 79, 0
1, 324720, Note_on_c, 0, 80, 80
1, 324722, Note_on_c, 0, 68, 70
1, 324723, Note_on_c, 0, 67, 0
1, 324960, Tempo, 368098
1, 324960, Note_on_c, 0, 80, 0
1, 324960, Note_on_c, 0, 43, 0
1, 324960, Note_on_c, 0, 55, 0
1, 324960, Note_on_c, 0, 82, 90
1, 324960, Note_on_c, 0, 46, 63
1, 324960, Note_on_c, 0, 58, 76
1, 324962, Note_on_c, 0, 68, 0
1, 324963, Note_on_c, 0, 70, 81
1, 324974, Control_c, 0, 64, 0
1, 325045, Control_c, 0, 64, 127
1, 325200, Note_on_c, 0, 82, 0
1, 325200, Note_on_c, 0, 84, 81
1, 325203, Note_on_c, 0, 70, 0
1, 325203, Note_on_c, 0, 72, 71
1, 325440, Tempo, 362538
1, 325440, Note_on_c, 0, 58, 0
1, 325440, Note_on_c, 0, 84, 0
1, 325440, Note_on_c, 0, 51, 0
1, 325440, Note_on_c, 0, 46, 0
1, 325440, Note_on_c, 0, 86, 91
1, 325440, Note_on_c, 0, 46, 65
1, 325440, Note_on_c, 0, 41, 65
1, 325440, Note_on_c, 0, 53, 81
1, 325441, Note_on_c, 0, 74, 82
1, 325443, Note_on_c, 0, 72, 0
1, 325454, Control_c, 0, 64, 0
1, 325532, Control_c, 0, 64, 127
1, 325678, Note_on_c, 0, 75, 70
1, 325680, Note_on_c, 0, 86, 0
1, 325680, Note_on_c, 0, 87, 80
1, 325681, Note_on_c, 0, 74, 0
1, 325918, Note_on_c, 0, 75, 0
1, 325920, Tempo, 369595
1, 325920, Note_on_c, 0, 53, 0
1, 325920, Note_on_c, 0, 41, 0
1, 325920, Note_on_c, 0, 87, 0
1, 325920, Note_on_c, 0, 89, 92
1, 325920, Note_on_c, 0, 77, 83
1, 325920, Note_on_c, 0, 39, 63
1, 325920, Note_on_c, 0, 51, 79
1, 325937, Control_c, 0, 64, 0
1, 326012, Control_c, 0, 64, 127
1, 326159, Note_on_c, 0, 79, 73
1, 326160, Note_on_c, 0, 77, 0
1, 326160, Note_on_c, 0, 89, 0
1, 326160, Note_on_c, 0, 91, 84
1, 326280, Tempo, 421378
1, 326280, Note_on_c, 0, 39, 0
1, 326280, Note_on_c, 0, 51, 0
1, 326280, Note_on_c, 0, 46, 0
1, 326280, Note_on_c, 0, 38, 64
1, 326399, Note_on_c, 0, 79, 0
1, 326400, Tempo, 369595
1, 326400, Note_on_c, 0, 91, 0
1, 326400, Note_on_c, 0, 89, 92
1, 326400, Note_on_c, 0, 46, 63
1, 326400, Note_on_c, 0, 50, 79
1, 326403, Note_on_c, 0, 77, 83
1, 326418, Control_c, 0, 64, 0
1, 326506, Control_c, 0, 64, 127
1, 326639, Note_on_c, 0, 75, 80
1, 326640, Note_on_c, 0, 89, 0
1, 326640, Note_on_c, 0, 87, 88
1, 326643, Note_on_c, 0, 77, 0
1, 326879, Note_on_c, 0, 75, 0
1, 326880, Note_on_c, 0, 87, 0
1, 326880, Note_on_c, 0, 86, 92
1, 326882, Note_on_c, 0, 74, 83
1, 327120, Note_on_c, 0, 86, 0
1, 327120, Note_on_c, 0, 84, 87
1, 327122, Note_on_c, 0, 74, 0
1, 327123, Note_on_c, 0, 72, 79
1, 327240, Tempo, 426227
1, 327240, Note_on_c, 0, 38, 0
1, 327240, Note_on_c, 0, 46, 0
1, 327240, Note_on_c, 0, 50, 0
1, 327240, Note_on_c, 0, 34, 54
1, 327360, Tempo, 370805
1, 327360, Note_on_c, 0, 84, 0
1, 327360, Note_on_c, 0, 82, 91
1, 327360, Note_on_c, 0, 43, 54
1, 327360, Note_on_c, 0, 46, 68
1, 327363, Note_on_c, 0, 72, 0
1, 327363, Note_on_c, 0, 70, 82
1, 327374, Control_c, 0, 64, 0
1, 327445, Control_c, 0, 64, 127
1, 327600, Note_on_c, 0, 82, 0
1, 327600, Note_on_c, 0, 80, 84
1, 327603, Note_on_c, 0, 70, 0
1, 327603, Note_on_c, 0, 68, 73
1, 327840, Note_on_c, 0, 80, 0
1, 327840, Note_on_c, 0, 79, 90
1, 327841, Note_on_c, 0, 67, 81
1, 327843, Note_on_c, 0, 68, 0
1, 328080, Note_on_c, 0, 79, 0
1, 328080, Note_on_c, 0, 77, 84
1, 328080, Note_on_c, 0, 65, 73
1, 328081, Note_on_c, 0, 67, 0
1, 328200, Tempo, 392157
1, 328312, Tempo, 369231
1, 328319, Note_on_c, 0, 63, 72
1, 328320, Note_on_c, 0, 46, 0
1, 328320, Note_on_c, 0, 77, 0
1, 328320, Note_on_c, 0, 43, 0
1, 328320, Note_on_c, 0, 34, 0
1, 328320, Note_on_c, 0, 65, 0
1, 328320, Note_on_c, 0, 63, 85
1, 328320, Note_on_c, 0, 67, 85
1, 328320, Note_on_c, 0, 70, 85
1, 328320, Note_on_c, 0, 75, 96
1, 328320, Note_on_c, 0, 75, 82
1, 328324, Tempo, 366972
1, 328333, Control_c, 0, 64, 0
1, 328352, Tempo, 368098
1, 328364, Tempo, 369231
1, 328380, Tempo, 371517
1, 328404, Tempo, 372671
1, 328432, Tempo, 371517
1, 328444, Tempo, 370370
1, 328460, Tempo, 369231
1, 328461, Control_c, 0, 64, 127
1, 328472, Tempo, 368098
1, 328484, Tempo, 366972
1, 328500, Tempo, 365854
1, 328512, Tempo, 366972
1, 328524, Tempo, 369231
1, 328540, Tempo, 371517
1, 328559, Note_on_c, 0, 63, 0
1, 328559, Note_on_c, 0, 62, 68
1, 328560, Note_on_c, 0, 75, 0
1, 328560, Note_on_c, 0, 74, 75
1, 328564, Tempo, 372671
1, 328580, Tempo, 370370
1, 328592, Tempo, 369231
1, 328604, Tempo, 368098
1, 328632, Tempo, 369231
1, 328644, Tempo, 370370
1, 328660, Tempo, 371517
1, 328700, Tempo, 370370
1, 328724, Tempo, 368098
1, 328764, Tempo, 366972
1, 328780, Tempo, 370370
1, 328792, Tempo, 371517
1, 328799, Note_on_c, 0, 62, 0
1, 328800, Note_on_c, 0, 74, 0
1, 328800, Note_on_c, 0, 72, 82
1, 328803, Note_on_c, 0, 60, 72
1, 328844, Tempo, 370370
1, 328860, Tempo, 369231
1, 328872, Tempo, 368098
1, 328884, Tempo, 366972
1, 328912, Tempo, 368098
1, 328924, Tempo, 371517
1, 328940, Tempo, 372671
1, 329004, Tempo, 370370
1, 329020, Tempo, 369231
1, 329032, Tempo, 368098
1, 329038, Note_on_c, 0, 58, 67
1, 329040, Note_on_c, 0, 72, 0
1, 329040, Note_on_c, 0, 70, 73
1, 329043, Note_on_c, 0, 60, 0
1, 329060, Tempo, 366972
1, 329112, Tempo, 371517
1, 329124, Tempo, 372671
1, 329180, Tempo, 371517
1, 329192, Tempo, 370370
1, 329204, Tempo, 369231
1, 329232, Tempo, 368098
1, 329272, Tempo, 366972
1, 329278, Note_on_c, 0, 58, 0
1, 329280, Note_on_c, 0, 70, 0
1, 329280, Note_on_c, 0, 56, 72
1, 329280, Note_on_c, 0, 68, 82
1, 329312, Tempo, 369231
1, 329324, Tempo, 372671
1, 329340, Tempo, 373832
1, 329404, Tempo, 372671
1, 329420, Tempo, 371517
1, 329432, Tempo, 369231
1, 329444, Tempo, 368098
1, 329472, Tempo, 366972
1, 329484, Tempo, 365854
1, 329518, Note_on_c, 0, 55, 67
1, 329520, Note_on_c, 0, 68, 0
1, 329520, Note_on_c, 0, 56, 0
1, 329520, Note_on_c, 0, 67, 73
1, 329540, Tempo, 366972
1, 329552, Tempo, 368098
1, 329564, Tempo, 370370
1, 329580, Tempo, 371517
1, 329644, Tempo, 370370
1, 329660, Tempo, 369231
1, 329684, Tempo, 368098
1, 329724, Tempo, 369231
1, 329740, Tempo, 372671
1, 329758, Note_on_c, 0, 55, 0
1, 329760, Note_on_c, 0, 67, 0
1, 329760, Note_on_c, 0, 65, 82
1, 329762, Note_on_c, 0, 53, 82
1, 329820, Tempo, 370370
1, 329844, Tempo, 369231
1, 329872, Tempo, 368098
1, 329952, Tempo, 372671
1, 329992, Tempo, 371517
1, 329998, Note_on_c, 0, 51, 66
1, 330000, Note_on_c, 0, 65, 0
1, 330000, Note_on_c, 0, 63, 72
1, 330002, Note_on_c, 0, 53, 0
1, 330004, Tempo, 369231
1, 330020, Tempo, 368098
1, 330072, Tempo, 369231
1, 330120, Tempo, 387097
1, 330232, Tempo, 372671
1, 330238, Note_on_c, 0, 51, 0
1, 330238, Note_on_c, 0, 50, 72
1, 330240, Note_on_c, 0, 67, 0
1, 330240, Note_on_c, 0, 70, 0
1, 330240, Note_on_c, 0, 75, 0
1, 330240, Note_on_c, 0, 63, 0
1, 330240, Note_on_c, 0, 63, 0
1, 330240, Note_on_c, 0, 65, 81
1, 330240, Note_on_c, 0, 70, 90
1, 330240, Note_on_c, 0, 74, 90
1, 330240, Note_on_c, 0, 77, 90
1, 330240, Note_on_c, 0, 62, 82
1, 330258, Control_c, 0, 64, 0
1, 330260, Tempo, 371517
1, 330272, Tempo, 370370
1, 330284, Tempo, 369231
1, 330324, Tempo, 370370
1, 330340, Tempo, 373832
1, 330352, Tempo, 375000
1, 330367, Control_c, 0, 64, 127
1, 330392, Tempo, 372671
1, 330404, Tempo, 371517
1, 330478, Note_on_c, 0, 50, 0
1, 330480, Note_on_c, 0, 62, 0
1, 330480, Note_on_c, 0, 60, 72
1, 330483, Note_on_c, 0, 48, 65
1, 330484, Tempo, 375000
1, 330500, Tempo, 376176
1, 330512, Tempo, 375000
1, 330524, Tempo, 373832
1, 330540, Tempo, 371517
1, 330552, Tempo, 369231
1, 330580, Tempo, 368098
1, 330604, Tempo, 369231
1, 330620, Tempo, 370370
1, 330632, Tempo, 371517
1, 330644, Tempo, 372671
1, 330660, Tempo, 373832
1, 330700, Tempo, 372671
1, 330712, Tempo, 371517
1, 330719, Note_on_c, 0, 46, 72
1, 330720, Note_on_c, 0, 60, 0
1, 330720, Note_on_c, 0, 58, 82
1, 330723, Note_on_c, 0, 48, 0
1, 330724, Tempo, 369231
1, 330752, Tempo, 368098
1, 330792, Tempo, 370370
1, 330804, Tempo, 372671
1, 330820, Tempo, 373832
1, 330860, Tempo, 372671
1, 330872, Tempo, 371517
1, 330900, Tempo, 370370
1, 330912, Tempo, 369231
1, 330940, Tempo, 368098
1, 330952, Tempo, 369231
1, 330959, Note_on_c, 0, 46, 0
1, 330959, Note_on_c, 0, 44, 68
1, 330960, Note_on_c, 0, 58, 0
1, 330960, Note_on_c, 0, 56, 75
1, 330964, Tempo, 371517
1, 330980, Tempo, 372671
1, 331044, Tempo, 371517
1, 331072, Tempo, 369231
1, 331084, Tempo, 368098
1, 331124, Tempo, 370370
1, 331140, Tempo, 372671
1, 331164, Tempo, 373832
1, 331192, Tempo, 372671
1, 331199, Note_on_c, 0, 44, 0
1, 331200, Note_on_c, 0, 56, 0
1, 331200, Note_on_c, 0, 55, 82
1, 331201, Note_on_c, 0, 43, 72
1, 331220, Tempo, 371517
1, 331244, Tempo, 369231
1, 331260, Tempo, 368098
1, 331284, Tempo, 370370
1, 331300, Tempo, 371517
1, 331312, Tempo, 372671
1, 331364, Tempo, 371517
1, 331404, Tempo, 370370
1, 331432, Tempo, 369231
1, 331440, Note_on_c, 0, 55, 0
1, 331440, Note_on_c, 0, 53, 73
1, 331441, Note_on_c, 0, 43, 0
1, 331442, Note_on_c, 0, 41, 67
1, 331460, Tempo, 370370
1, 331472, Tempo, 372671
1, 331484, Tempo, 373832
1, 331500, Tempo, 375000
1, 331512, Tempo, 376176
1, 331552, Tempo, 373832
1, 331564, Tempo, 372671
1, 331592, Tempo, 371517
1, 331620, Tempo, 369231
1, 331660, Tempo, 370370
1, 331680, Note_on_c, 0, 53, 0
1, 331680, Note_on_c, 0, 51, 82
1, 331682, Note_on_c, 0, 41, 0
1, 331683, Note_on_c, 0, 39, 72
1, 331684, Tempo, 372671
1, 331700, Tempo, 375000
1, 331724, Tempo, 373832
1, 331740, Tempo, 371517
1, 331752, Tempo, 370370
1, 331764, Tempo, 369231
1, 331844, Tempo, 370370
1, 331860, Tempo, 371517
1, 331884, Tempo, 373832
1, 331900, Tempo, 375000
1, 331920, Note_on_c, 0, 51, 0
1, 331920, Note_on_c, 0, 50, 72
1, 331922, Note_on_c, 0, 38, 66
1, 331923, Note_on_c, 0, 39, 0
1, 331924, Tempo, 372671
1, 332040, Tempo, 385852
1, 332140, Tempo, 369231
1, 332160, Note_on_c, 0, 77, 0
1, 332160, Note_on_c, 0, 70, 0
1, 332160, Note_on_c, 0, 74, 0
1, 332160, Note_on_c, 0, 65, 0
1, 332160, Note_on_c, 0, 50, 0
1, 332160, Note_on_c, 0, 67, 85
1, 332160, Note_on_c, 0, 70, 85
1, 332160, Note_on_c, 0, 75, 85
1, 332160, Note_on_c, 0, 79, 96
1, 332160, Note_on_c, 0, 36, 82
1, 332160, Note_on_c, 0, 48, 82
1, 332162, Note_on_c, 0, 38, 0
1, 332178, Control_c, 0, 64, 0
1, 332192, Tempo, 368098
1, 332220, Tempo, 366972
1, 332260, Tempo, 368098
1, 332272, Tempo, 369231
1, 332284, Tempo, 370370
1, 332300, Tempo, 369231
1, 332301, Control_c, 0, 64, 127
1, 332312, Tempo, 366972
1, 332324, Tempo, 365854
1, 332340, Tempo, 364742
1, 332352, Tempo, 363636
1, 332380, Tempo, 365854
1, 332392, Tempo, 370370
1, 332399, Note_on_c, 0, 34, 65
1, 332400, Note_on_c, 0, 36, 0
1, 332400, Note_on_c, 0, 48, 0
1, 332400, Note_on_c, 0, 46, 72
1, 332420, Tempo, 369231
1, 332432, Tempo, 368098
1, 332444, Tempo, 365854
1, 332460, Tempo, 364742
1, 332500, Tempo, 363636
1, 332540, Tempo, 368098
1, 332552, Tempo, 369231
1, 332564, Tempo, 370370
1, 332639, Note_on_c, 0, 34, 0
1, 332640, Note_on_c, 0, 46, 0
1, 332640, Note_on_c, 0, 44, 76
1, 332642, Note_on_c, 0, 32, 68
1, 332644, Tempo, 366972
1, 332660, Tempo, 365854
1, 332700, Tempo, 364742
1, 332712, Tempo, 368098
1, 332724, Tempo, 369231
1, 332752, Tempo, 370370
1, 332804, Tempo, 368098
1, 332820, Tempo, 366972
1, 332832, Tempo, 365854
1, 332860, Tempo, 366972
1, 332872, Tempo, 369231
1, 332880, Note_on_c, 0, 44, 0
1, 332880, Note_on_c, 0, 31, 60
1, 332880, Note_on_c, 0, 43, 68
1, 332882, Note_on_c, 0, 32, 0
1, 332940, Tempo, 368098
1, 333004, Tempo, 366972
1, 333120, Tempo, 367264
1, 333120, Note_on_c, 0, 31, 0
1, 333120, Note_on_c, 0, 70, 0
1, 333120, Note_on_c, 0, 79, 0
1, 333120, Note_on_c, 0, 67, 0
1, 333120, Note_on_c, 0, 43, 0
1, 333120, Note_on_c, 0, 75, 0
1, 333120, Note_on_c, 0, 63, 82
1, 333120, Note_on_c, 0, 67, 82
1, 333120, Note_on_c, 0, 72, 82
1, 333120, Note_on_c, 0, 75, 91
1, 333120, Note_on_c, 0, 29, 67
1, 333120, Note_on_c, 0, 41, 73
1, 333138, Control_c, 0, 64, 0
1, 333261, Control_c, 0, 64, 127
1, 333360, Note_on_c, 0, 41, 0
1, 333360, Note_on_c, 0, 29, 0
1, 333360, Note_on_c, 0, 39, 65
1, 333363, Note_on_c, 0, 27, 57
1, 333600, Tempo, 369617
1, 333600, Note_on_c, 0, 39, 0
1, 333600, Note_on_c, 0, 72, 0
1, 333600, Note_on_c, 0, 75, 0
1, 333600, Note_on_c, 0, 63, 0
1, 333600, Note_on_c, 0, 67, 0
1, 333600, Note_on_c, 0, 70, 73
1, 333600, Note_on_c, 0, 75, 73
1, 333600, Note_on_c, 0, 67, 73
1, 333600, Note_on_c, 0, 79, 84
1, 333600, Note_on_c, 0, 38, 72
1, 333602, Note_on_c, 0, 26, 66
1, 333603, Note_on_c, 0, 27, 0
1, 333838, Note_on_c, 0, 24, 56
1, 333840, Note_on_c, 0, 38, 0
1, 333840, Note_on_c, 0, 36, 63
1, 333842, Note_on_c, 0, 26, 0
1, 333960, Tempo, 379747
1, 334078, Note_on_c, 0, 24, 0
1, 334080, Tempo, 374135
1, 334080, Note_on_c, 0, 75, 0
1, 334080, Note_on_c, 0, 67, 0
1, 334080, Note_on_c, 0, 70, 0
1, 334080, Note_on_c, 0, 36, 0
1, 334080, Note_on_c, 0, 79, 0
1, 334080, Note_on_c, 0, 65, 79
1, 334080, Note_on_c, 0, 70, 79
1, 334080, Note_on_c, 0, 74, 79
1, 334080, Note_on_c, 0, 77, 88
1, 334080, Note_on_c, 0, 38, 66
1, 334081, Note_on_c, 0, 26, 57
1, 334089, Control_c, 0, 64, 0
1, 334229, Control_c, 0, 64, 127
1, 334320, Note_on_c, 0, 38, 0
1, 334320, Note_on_c, 0, 27, 51
1, 334320, Note_on_c, 0, 39, 59
1, 334321, Note_on_c, 0, 26, 0
1, 334560, Note_on_c, 0, 27, 0
1, 334560, Note_on_c, 0, 39, 0
1, 334560, Note_on_c, 0, 41, 67
1, 334562, Note_on_c, 0, 29, 59
1, 334800, Note_on_c, 0, 41, 0
1, 334800, Note_on_c, 0, 43, 62
1, 334801, Note_on_c, 0, 31, 54
1, 334802, Note_on_c, 0, 29, 0
1, 335040, Note_on_c, 0, 74, 0
1, 335040, Note_on_c, 0, 70, 0
1, 335040, Note_on_c, 0, 77, 0
1, 335040, Note_on_c, 0, 65, 0
1, 335040, Note_on_c, 0, 43, 0
1, 335040, Note_on_c, 0, 58, 72
1, 335040, Note_on_c, 0, 70, 81
1, 335040, Note_on_c, 0, 45, 68
1, 335041, Note_on_c, 0, 31, 0
1, 335041, Note_on_c, 0, 33, 60
1, 335056, Control_c, 0, 64, 0
1, 335080, Tempo, 374135
1, 335132, Control_c, 0, 64, 127
1, 335280, Note_on_c, 0, 45, 0
1, 335280, Note_on_c, 0, 34, 56
1, 335280, Note_on_c, 0, 46, 63
1, 335281, Note_on_c, 0, 33, 0
1, 335518, Note_on_c, 0, 36, 62
1, 335520, Tempo, 383779
1, 335520, Note_on_c, 0, 34, 0
1, 335520, Note_on_c, 0, 46, 0
1, 335520, Note_on_c, 0, 48, 70
1, 335758, Note_on_c, 0, 36, 0
1, 335759, Note_on_c, 0, 38, 57
1, 335760, Note_on_c, 0, 48, 0
1, 335760, Note_on_c, 0, 50, 66
1, 335999, Note_on_c, 0, 38, 0
1, 336000, Tempo, 377264
1, 336000, Note_on_c, 0, 58, 0
1, 336000, Note_on_c, 0, 70, 0
1, 336000, Note_on_c, 0, 50, 0
1, 336000, Note_on_c, 0, 84, 72
1, 336000, Note_on_c, 0, 80, 72
1, 336000, Note_on_c, 0, 87, 81
1, 336000, Note_on_c, 0, 75, 72
1, 336000, Note_on_c, 0, 39, 62
1, 336000, Note_on_c, 0, 51, 70
1, 336013, Control_c, 0, 64, 0
1, 336212, Control_c, 0, 64, 127
1, 336240, Note_on_c, 0, 51, 0
1, 336240, Note_on_c, 0, 39, 0
1, 336240, Note_on_c, 0, 53, 67
1, 336242, Note_on_c, 0, 41, 59
1, 336480, Note_on_c, 0, 53, 0
1, 336480, Note_on_c, 0, 87, 0
1, 336480, Note_on_c, 0, 75, 0
1, 336480, Note_on_c, 0, 87, 81
1, 336480, Note_on_c, 0, 75, 72
1, 336480, Note_on_c, 0, 55, 72
1, 336481, Note_on_c, 0, 43, 66
1, 336482, Note_on_c, 0, 41, 0
1, 336720, Note_on_c, 0, 55, 0
1, 336720, Note_on_c, 0, 56, 67
1, 336721, Note_on_c, 0, 43, 0
1, 336723, Note_on_c, 0, 44, 59
1, 336960, Tempo, 368482
1, 336960, Note_on_c, 0, 84, 0
1, 336960, Note_on_c, 0, 75, 0
1, 336960, Note_on_c, 0, 87, 0
1, 336960, Note_on_c, 0, 80, 0
1, 336960, Note_on_c, 0, 56, 0
1, 336960, Note_on_c, 0, 79, 72
1, 336960, Note_on_c, 0, 82, 72
1, 336960, Note_on_c, 0, 86, 81
1, 336960, Note_on_c, 0, 74, 72
1, 336960, Note_on_c, 0, 58, 76
1, 336962, Note_on_c, 0, 46, 68
1, 336963, Note_on_c, 0, 44, 0
1, 336980, Control_c, 0, 64, 0
1, 337000, Tempo, 369709
1, 337144, Control_c, 0, 64, 127
1, 337200, Note_on_c, 0, 58, 0
1, 337200, Note_on_c, 0, 48, 70
1, 337200, Note_on_c, 0, 60, 70
1, 337202, Note_on_c, 0, 46, 0
1, 337439, Note_on_c, 0, 50, 72
1, 337440, Note_on_c, 0, 48, 0
1, 337440, Note_on_c, 0, 74, 0
1, 337440, Note_on_c, 0, 86, 0
1, 337440, Note_on_c, 0, 60, 0
1, 337440, Note_on_c, 0, 82, 76
1, 337440, Note_on_c, 0, 70, 68
1, 337440, Note_on_c, 0, 62, 81
1, 337679, Note_on_c, 0, 50, 0
1, 337680, Note_on_c, 0, 62, 0
1, 337680, Note_on_c, 0, 58, 76
1, 337681, Note_on_c, 0, 46, 68
1, 337920, Note_on_c, 0, 58, 0
1, 337920, Note_on_c, 0, 82, 0
1, 337920, Note_on_c, 0, 70, 0
1, 337920, Note_on_c, 0, 79, 0
1, 337920, Note_on_c, 0, 82, 0
1, 337920, Note_on_c, 0, 80, 79
1, 337920, Note_on_c, 0, 77, 70
1, 337920, Note_on_c, 0, 72, 70
1, 337920, Note_on_c, 0, 84, 79
1, 337920, Note_on_c, 0, 44, 71
1, 337920, Note_on_c, 0, 56, 80
1, 337921, Note_on_c, 0, 46, 0
1, 337934, Control_c, 0, 64, 0
1, 338061, Control_c, 0, 64, 127
1, 338158, Note_on_c, 0, 43, 68
1, 338160, Note_on_c, 0, 44, 0
1, 338160, Note_on_c, 0, 56, 0
1, 338160, Note_on_c, 0, 55, 75
1, 338398, Note_on_c, 0, 43, 0
1, 338400, Tempo, 374696
1, 338400, Note_on_c, 0, 84, 0
1, 338400, Note_on_c, 0, 72, 0
1, 338400, Note_on_c, 0, 55, 0
1, 338400, Note_on_c, 0, 84, 75
1, 338400, Note_on_c, 0, 72, 68
1, 338400, Note_on_c, 0, 53, 75
1, 338402, Note_on_c, 0, 41, 68
1, 338640, Note_on_c, 0, 53, 0
1, 338640, Note_on_c, 0, 51, 72
1, 338641, Note_on_c, 0, 39, 63
1, 338642, Note_on_c, 0, 41, 0
1, 338878, Note_on_c, 0, 38, 67
1, 338880, Note_on_c, 0, 72, 0
1, 338880, Note_on_c, 0, 84, 0
1, 338880, Note_on_c, 0, 51, 0
1, 338880, Note_on_c, 0, 80, 73
1, 338880, Note_on_c, 0, 68, 67
1, 338880, Note_on_c, 0, 50, 73
1, 338881, Note_on_c, 0, 39, 0
1, 338897, Control_c, 0, 64, 0
1, 338979, Control_c, 0, 64, 127
1, 339118, Note_on_c, 0, 38, 0
1, 339120, Note_on_c, 0, 50, 0
1, 339120, Note_on_c, 0, 48, 68
1, 339123, Note_on_c, 0, 36, 60
1, 339358, Note_on_c, 0, 34, 66
1, 339360, Note_on_c, 0, 48, 0
1, 339360, Note_on_c, 0, 80, 0
1, 339360, Note_on_c, 0, 68, 0
1, 339360, Note_on_c, 0, 72, 63
1, 339360, Note_on_c, 0, 84, 71
1, 339360, Note_on_c, 0, 46, 72
1, 339363, Note_on_c, 0, 36, 0
1, 339598, Note_on_c, 0, 34, 0
1, 339600, Note_on_c, 0, 46, 0
1, 339600, Note_on_c, 0, 44, 59
1, 339603, Note_on_c, 0, 32, 59
1, 339840, Note_on_c, 0, 44, 0
1, 339840, Note_on_c, 0, 72, 0
1, 339840, Note_on_c, 0, 84, 0
1, 339840, Note_on_c, 0, 77, 0
1, 339840, Note_on_c, 0, 80, 0
1, 339840, Note_on_c, 0, 74, 82
1, 339840, Note_on_c, 0, 79, 82
1, 339840, Note_on_c, 0, 70, 72
1, 339840, Note_on_c, 0, 82, 82
1, 339840, Note_on_c, 0, 43, 72
1, 339842, Note_on_c, 0, 31, 65
1, 339843, Note_on_c, 0, 32, 0
1, 339852, Control_c, 0, 64, 0
1, 339989, Control_c, 0, 64, 127
1, 340079, Note_on_c, 0, 29, 57
1, 340080, Note_on_c, 0, 43, 0
1, 340080, Note_on_c, 0, 41, 65
1, 340082, Note_on_c, 0, 31, 0
1, 340319, Note_on_c, 0, 29, 0
1, 340320, Note_on_c, 0, 41, 0
1, 340320, Note_on_c, 0, 27, 65
1, 340320, Note_on_c, 0, 39, 72
1, 340558, Note_on_c, 0, 26, 57
1, 340560, Note_on_c, 0, 39, 0
1, 340560, Note_on_c, 0, 27, 0
1, 340560, Note_on_c, 0, 38, 66
1, 340798, Note_on_c, 0, 26, 0
1, 340800, Tempo, 378549
1, 340800, Note_on_c, 0, 79, 0
1, 340800, Note_on_c, 0, 82, 0
1, 340800, Note_on_c, 0, 74, 0
1, 340800, Note_on_c, 0, 38, 0
1, 340800, Note_on_c, 0, 70, 0
1, 340800, Note_on_c, 0, 72, 70
1, 340800, Note_on_c, 0, 68, 70
1, 340800, Note_on_c, 0, 80, 79
1, 340800, Note_on_c, 0, 39, 72
1, 340803, Note_on_c, 0, 27, 63
1, 340816, Control_c, 0, 64, 0
1, 340949, Control_c, 0, 64, 127
1, 341040, Note_on_c, 0, 39, 0
1, 341040, Note_on_c, 0, 40, 66
1, 341042, Note_on_c, 0, 28, 57
1, 341043, Note_on_c, 0, 27, 0
1, 341278, Note_on_c, 0, 29, 62
1, 341280, Tempo, 387797
1, 341280, Note_on_c, 0, 40, 0
1, 341280, Note_on_c, 0, 80, 0
1, 341280, Note_on_c, 0, 68, 0
1, 341280, Note_on_c, 0, 67, 75
1, 341280, Note_on_c, 0, 79, 84
1, 341280, Note_on_c, 0, 41, 70
1, 341282, Note_on_c, 0, 28, 0
1, 341518, Note_on_c, 0, 29, 0
1, 341520, Note_on_c, 0, 41, 0
1, 341520, Note_on_c, 0, 43, 65
1, 341523, Note_on_c, 0, 31, 57
1, 341720, Tempo, 359281
1, 341760, Note_on_c, 0, 43, 0
1, 341760, Note_on_c, 0, 72, 0
1, 341760, Note_on_c, 0, 79, 0
1, 341760, Note_on_c, 0, 67, 0
1, 341760, Note_on_c, 0, 65, 79
1, 341760, Note_on_c, 0, 75, 79
1, 341760, Note_on_c, 0, 72, 79
1, 341760, Note_on_c, 0, 77, 89
1, 341760, Note_on_c, 0, 44, 67
1, 341762, Note_on_c, 0, 32, 59
1, 341763, Note_on_c, 0, 31, 0
1, 341774, Control_c, 0, 64, 0
1, 341880, Tempo, 360360
1, 341901, Control_c, 0, 64, 127
1, 342000, Tempo, 361446
1, 342000, Note_on_c, 0, 44, 0
1, 342000, Note_on_c, 0, 46, 63
1, 342001, Note_on_c, 0, 34, 56
1, 342002, Note_on_c, 0, 32, 0
1, 342120, Tempo, 362538
1, 342239, Note_on_c, 0, 36, 70
1, 342240, Tempo, 363636
1, 342240, Note_on_c, 0, 46, 0
1, 342240, Note_on_c, 0, 48, 70
1, 342241, Note_on_c, 0, 34, 0
1, 342360, Tempo, 364742
1, 342479, Note_on_c, 0, 36, 0
1, 342479, Note_on_c, 0, 38, 65
1, 342480, Tempo, 365854
1, 342480, Note_on_c, 0, 48, 0
1, 342480, Note_on_c, 0, 50, 65
1, 342600, Tempo, 366972
1, 342719, Note_on_c, 0, 38, 0
1, 342720, Tempo, 368098
1, 342720, Note_on_c, 0, 50, 0
1, 342720, Note_on_c, 0, 51, 72
1, 342722, Note_on_c, 0, 39, 65
1, 342960, Note_on_c, 0, 51, 0
1, 342960, Note_on_c, 0, 41, 57
1, 342960, Note_on_c, 0, 53, 66
1, 342962, Note_on_c, 0, 39, 0
1, 343198, Note_on_c, 0, 43, 68
1, 343200, Note_on_c, 0, 41, 0
1, 343200, Note_on_c, 0, 53, 0
1, 343200, Note_on_c, 0, 55, 75
1, 343438, Note_on_c, 0, 43, 0
1, 343440, Note_on_c, 0, 55, 0
1, 343440, Note_on_c, 0, 56, 68
1, 343441, Note_on_c, 0, 44, 60
1, 343680, Note_on_c, 0, 56, 0
1, 343680, Note_on_c, 0, 77, 0
1, 343680, Note_on_c, 0, 72, 0
1, 343680, Note_on_c, 0, 65, 0
1, 343680, Note_on_c, 0, 75, 0
1, 343680, Note_on_c, 0, 70, 84
1, 343680, Note_on_c, 0, 74, 84
1, 343680, Note_on_c, 0, 77, 84
1, 343680, Note_on_c, 0, 82, 95
1, 343680, Note_on_c, 0, 58, 79
1, 343681, Note_on_c, 0, 44, 0
1, 343682, Note_on_c, 0, 46, 70
1, 343698, Control_c, 0, 64, 0
1, 343793, Control_c, 0, 64, 127
1, 343920, Note_on_c, 0, 58, 0
1, 343920, Note_on_c, 0, 48, 63
1, 343920, Note_on_c, 0, 60, 72
1, 343922, Note_on_c, 0, 46, 0
1, 344159, Note_on_c, 0, 50, 72
1, 344160, Note_on_c, 0, 48, 0
1, 344160, Note_on_c, 0, 60, 0
1, 344160, Note_on_c, 0, 62, 81
1, 344399, Note_on_c, 0, 50, 0
1, 344400, Note_on_c, 0, 74, 0
1, 344400, Note_on_c, 0, 77, 0
1, 344400, Note_on_c, 0, 70, 0
1, 344400, Note_on_c, 0, 62, 0
1, 344400, Note_on_c, 0, 82, 0
1, 344400, Note_on_c, 0, 63, 72
1, 344401, Note_on_c, 0, 51, 66
1, 344640, Note_on_c, 0, 63, 0
1, 344640, Note_on_c, 0, 65, 84
1, 344641, Note_on_c, 0, 51, 0
1, 344642, Note_on_c, 0, 53, 73
1, 344880, Note_on_c, 0, 65, 0
1, 344880, Note_on_c, 0, 67, 75
1, 344882, Note_on_c, 0, 53, 0
1, 344882, Note_on_c, 0, 55, 68
1, 345120, Note_on_c, 0, 67, 0
1, 345120, Note_on_c, 0, 68, 88
1, 345122, Note_on_c, 0, 55, 0
1, 345122, Note_on_c, 0, 56, 79
1, 345360, Note_on_c, 0, 68, 0
1, 345360, Note_on_c, 0, 58, 72
1, 345360, Note_on_c, 0, 70, 81
1, 345362, Note_on_c, 0, 56, 0
1, 345480, Tempo, 603015
1, 345600, Tempo, 373297
1, 345600, Note_on_c, 0, 70, 0
1, 345600, Note_on_c, 0, 58, 0
1, 345600, Note_on_c, 0, 66, 67
1, 345600, Note_on_c, 0, 70, 67
1, 345600, Note_on_c, 0, 58, 59
1, 345600, Note_on_c, 0, 51, 59
1, 345614, Control_c, 0, 64, 0
1, 345974, Control_c, 0, 64, 127
1, 347520, Tempo, 369731
1, 347520, Note_on_c, 0, 51, 0
1, 347520, Note_on_c, 0, 66, 0
1, 347520, Note_on_c, 0, 70, 0
1, 347520, Note_on_c, 0, 58, 0
1, 347520, Note_on_c, 0, 66, 65
1, 347520, Note_on_c, 0, 70, 65
1, 347520, Note_on_c, 0, 51, 54
1, 347520, Note_on_c, 0, 58, 54
1, 347532, Control_c, 0, 64, 0
1, 347734, Control_c, 0, 64, 127
1, 348480, Tempo, 362406
1, 348480, Note_on_c, 0, 58, 0
1, 348480, Note_on_c, 0, 66, 0
1, 348480, Note_on_c, 0, 70, 0
1, 348480, Note_on_c, 0, 51, 0
1, 348480, Note_on_c, 0, 66, 63
1, 348480, Note_on_c, 0, 70, 63
1, 348480, Note_on_c, 0, 54, 52
1, 348480, Note_on_c, 0, 63, 52
1, 348494, Control_c, 0, 64, 0
1, 348720, Control_c, 0, 64, 127
1, 349440, Note_on_c, 0, 63, 0
1, 349440, Note_on_c, 0, 66, 0
1, 349440, Note_on_c, 0, 70, 0
1, 349440, Note_on_c, 0, 54, 0
1, 349440, Note_on_c, 0, 68, 66
1, 349440, Note_on_c, 0, 71, 66
1, 349440, Note_on_c, 0, 56, 54
1, 349440, Note_on_c, 0, 63, 54
1, 349448, Control_c, 0, 64, 0
1, 349680, Control_c, 0, 64, 127
1, 350400, Tempo, 358852
1, 350400, Note_on_c, 0, 63, 0
1, 350400, Note_on_c, 0, 68, 0
1, 350400, Note_on_c, 0, 71, 0
1, 350400, Note_on_c, 0, 56, 0
1, 350400, Note_on_c, 0, 70, 66
1, 350400, Note_on_c, 0, 73, 66
1, 350400, Note_on_c, 0, 54, 54
1, 350400, Note_on_c, 0, 66, 54
1, 350411, Control_c, 0, 64, 0
1, 350720, Control_c, 0, 64, 127
1, 351360, Tempo, 364808
1, 351360, Note_on_c, 0, 66, 0
1, 351360, Note_on_c, 0, 70, 0
1, 351360, Note_on_c, 0, 73, 0
1, 351360, Note_on_c, 0, 54, 0
1, 351360, Note_on_c, 0, 71, 66
1, 351360, Note_on_c, 0, 75, 66
1, 351360, Note_on_c, 0, 59, 54
1, 351360, Note_on_c, 0, 66, 54
1, 351371, Control_c, 0, 64, 0
1, 351654, Control_c, 0, 64, 127
1, 353280, Note_on_c, 0, 66, 0
1, 353280, Note_on_c, 0, 71, 0
1, 353280, Note_on_c, 0, 75, 0
1, 353280, Note_on_c, 0, 59, 0
1, 353280, Note_on_c, 0, 70, 66
1, 353280, Note_on_c, 0, 73, 66
1, 353280, Note_on_c, 0, 66, 54
1, 353292, Control_c, 0, 64, 0
1, 353547, Control_c, 0, 64, 127
1, 355200, Tempo, 357675
1, 355200, Note_on_c, 0, 66, 0
1, 355200, Note_on_c, 0, 73, 0
1, 355200, Note_on_c, 0, 70, 0
1, 355200, Note_on_c, 0, 71, 65
1, 355200, Note_on_c, 0, 75, 65
1, 355200, Note_on_c, 0, 66, 52
1, 355200, Note_on_c, 0, 63, 52
1, 355210, Control_c, 0, 64, 0
1, 355440, Control_c, 0, 64, 127
1, 356160, Note_on_c, 0, 63, 0
1, 356160, Note_on_c, 0, 71, 0
1, 356160, Note_on_c, 0, 75, 0
1, 356160, Note_on_c, 0, 66, 0
1, 356160, Note_on_c, 0, 73, 66
1, 356160, Note_on_c, 0, 76, 66
1, 356160, Note_on_c, 0, 68, 54
1, 356160, Note_on_c, 0, 61, 54
1, 356173, Control_c, 0, 64, 0
1, 356400, Control_c, 0, 64, 127
1, 357120, Tempo, 356506
1, 357120, Note_on_c, 0, 61, 0
1, 357120, Note_on_c, 0, 73, 0
1, 357120, Note_on_c, 0, 76, 0
1, 357120, Note_on_c, 0, 68, 0
1, 357120, Note_on_c, 0, 75, 67
1, 357120, Note_on_c, 0, 78, 67
1, 357120, Note_on_c, 0, 59, 57
1, 357120, Note_on_c, 0, 71, 57
1, 357132, Control_c, 0, 64, 0
1, 357360, Control_c, 0, 64, 127
1, 358080, Tempo, 361228
1, 358080, Note_on_c, 0, 71, 0
1, 358080, Note_on_c, 0, 75, 0
1, 358080, Note_on_c, 0, 78, 0
1, 358080, Note_on_c, 0, 59, 0
1, 358080, Note_on_c, 0, 75, 64
1, 358080, Note_on_c, 0, 78, 64
1, 358080, Note_on_c, 0, 59, 52
1, 358080, Note_on_c, 0, 71, 52
1, 359040, Tempo, 354212
1, 359040, Note_on_c, 0, 71, 0
1, 359040, Note_on_c, 0, 75, 0
1, 359040, Note_on_c, 0, 78, 0
1, 359040, Note_on_c, 0, 59, 0
1, 359040, Note_on_c, 0, 73, 67
1, 359040, Note_on_c, 0, 76, 67
1, 359040, Note_on_c, 0, 64, 54
1, 359040, Note_on_c, 0, 71, 54
1, 359058, Control_c, 0, 64, 0
1, 359307, Control_c, 0, 64, 127
1, 360000, Tempo, 358852
1, 360000, Note_on_c, 0, 71, 0
1, 360000, Note_on_c, 0, 73, 0
1, 360000, Note_on_c, 0, 76, 0
1, 360000, Note_on_c, 0, 64, 0
1, 360000, Note_on_c, 0, 75, 68
1, 360000, Note_on_c, 0, 78, 68
1, 360000, Note_on_c, 0, 59, 57
1, 360000, Note_on_c, 0, 71, 57
1, 360014, Control_c, 0, 64, 0
1, 360187, Control_c, 0, 64, 127
1, 360960, Note_on_c, 0, 71, 0
1, 360960, Note_on_c, 0, 75, 0
1, 360960, Note_on_c, 0, 78, 0
1, 360960, Note_on_c, 0, 59, 0
1, 360960, Note_on_c, 0, 76, 71
1, 360960, Note_on_c, 0, 80, 71
1, 360960, Note_on_c, 0, 71, 59
1, 360960, Note_on_c, 0, 64, 59
1, 360976, Control_c, 0, 64, 0
1, 361227, Control_c, 0, 64, 127
1, 361920, Tempo, 354212
1, 362880, Tempo, 350836
1, 362880, Note_on_c, 0, 64, 0
1, 362880, Note_on_c, 0, 76, 0
1, 362880, Note_on_c, 0, 80, 0
1, 362880, Note_on_c, 0, 71, 0
1, 362880, Note_on_c, 0, 73, 75
1, 362880, Note_on_c, 0, 81, 75
1, 362880, Note_on_c, 0, 69, 63
1, 362880, Note_on_c, 0, 66, 63
1, 362892, Control_c, 0, 64, 0
1, 363147, Control_c, 0, 64, 127
1, 363840, Tempo, 355366
1, 363840, Note_on_c, 0, 66, 0
1, 363840, Note_on_c, 0, 73, 0
1, 363840, Note_on_c, 0, 81, 0
1, 363840, Note_on_c, 0, 69, 0
1, 363840, Note_on_c, 0, 76, 67
1, 363840, Note_on_c, 0, 80, 67
1, 363840, Note_on_c, 0, 71, 59
1, 363840, Note_on_c, 0, 64, 59
1, 363851, Control_c, 0, 64, 0
1, 364107, Control_c, 0, 64, 127
1, 364800, Tempo, 355366
1, 364800, Note_on_c, 0, 64, 0
1, 364800, Note_on_c, 0, 76, 0
1, 364800, Note_on_c, 0, 80, 0
1, 364800, Note_on_c, 0, 71, 0
1, 364800, Note_on_c, 0, 75, 64
1, 364800, Note_on_c, 0, 78, 64
1, 364800, Note_on_c, 0, 59, 56
1, 364800, Note_on_c, 0, 71, 56
1, 364812, Control_c, 0, 64, 0
1, 365040, Control_c, 0, 64, 127
1, 366720, Note_on_c, 0, 71, 0
1, 366720, Note_on_c, 0, 75, 0
1, 366720, Note_on_c, 0, 78, 0
1, 366720, Note_on_c, 0, 59, 0
1, 366720, Note_on_c, 0, 71, 64
1, 366720, Note_on_c, 0, 80, 64
1, 366720, Note_on_c, 0, 64, 54
1, 366720, Note_on_c, 0, 68, 54
1, 366730, Control_c, 0, 64, 0
1, 366960, Control_c, 0, 64, 127
1, 367680, Tempo, 357675
1, 367680, Note_on_c, 0, 68, 0
1, 367680, Note_on_c, 0, 71, 0
1, 367680, Note_on_c, 0, 80, 0
1, 367680, Note_on_c, 0, 64, 0
1, 367680, Note_on_c, 0, 78, 60
1, 367680, Note_on_c, 0, 75, 60
1, 367680, Note_on_c, 0, 59, 53
1, 367680, Note_on_c, 0, 66, 53
1, 367701, Control_c, 0, 64, 0
1, 367894, Control_c, 0, 64, 127
1, 368640, Note_on_c, 0, 66, 0
1, 368640, Note_on_c, 0, 78, 0
1, 368640, Note_on_c, 0, 75, 0
1, 368640, Note_on_c, 0, 59, 0
1, 368640, Note_on_c, 0, 68, 57
1, 368640, Note_on_c, 0, 76, 57
1, 368640, Note_on_c, 0, 64, 50
1, 368640, Note_on_c, 0, 61, 50
1, 368651, Control_c, 0, 64, 0
1, 368827, Control_c, 0, 64, 127
1, 369600, Note_on_c, 0, 61, 0
1, 369600, Note_on_c, 0, 68, 0
1, 369600, Note_on_c, 0, 76, 0
1, 369600, Note_on_c, 0, 64, 0
1, 369600, Note_on_c, 0, 71, 54
1, 369600, Note_on_c, 0, 75, 54
1, 369600, Note_on_c, 0, 56, 45
1, 369600, Note_on_c, 0, 63, 45
1, 369615, Control_c, 0, 64, 0
1, 369920, Control_c, 0, 64, 127
1, 370560, Tempo, 360014
1, 370560, Note_on_c, 0, 63, 0
1, 370560, Note_on_c, 0, 71, 0
1, 370560, Note_on_c, 0, 75, 0
1, 370560, Note_on_c, 0, 56, 0
1, 370560, Note_on_c, 0, 70, 57
1, 370560, Note_on_c, 0, 73, 57
1, 370560, Note_on_c, 0, 58, 51
1, 370560, Note_on_c, 0, 61, 51
1, 370576, Control_c, 0, 64, 0
1, 370827, Control_c, 0, 64, 127
1, 372480, Note_on_c, 0, 61, 0
1, 372480, Note_on_c, 0, 70, 0
1, 372480, Note_on_c, 0, 73, 0
1, 372480, Note_on_c, 0, 58, 0
1, 372480, Note_on_c, 0, 68, 54
1, 372480, Note_on_c, 0, 71, 54
1, 372480, Note_on_c, 0, 59, 45
1, 372480, Note_on_c, 0, 63, 45
1, 372493, Control_c, 0, 64, 0
1, 372520, Tempo, 373506
1, 372694, Control_c, 0, 64, 127
1, 374400, Tempo, 379963
1, 374400, Note_on_c, 0, 63, 0
1, 374400, Note_on_c, 0, 68, 0
1, 374400, Note_on_c, 0, 71, 0
1, 374400, Note_on_c, 0, 59, 0
1, 374400, Note_on_c, 0, 63, 48
1, 374400, Note_on_c, 0, 70, 48
1, 374400, Note_on_c, 0, 58, 41
1, 374400, Note_on_c, 0, 51, 41
1, 374417, Control_c, 0, 64, 0
1, 374694, Control_c, 0, 64, 127
1, 376320, Tempo, 389206
1, 376320, Note_on_c, 0, 51, 0
1, 376320, Note_on_c, 0, 63, 0
1, 376320, Note_on_c, 0, 70, 0
1, 376320, Note_on_c, 0, 58, 0
1, 376320, Note_on_c, 0, 63, 39
1, 376320, Note_on_c, 0, 70, 39
1, 376320, Note_on_c, 0, 51, 37
1, 376320, Note_on_c, 0, 58, 37
1, 377280, Note_on_c, 0, 58, 0
1, 377280, Note_on_c, 0, 63, 0
1, 377280, Note_on_c, 0, 70, 0
1, 377280, Note_on_c, 0, 51, 0
1, 377280, Note_on_c, 0, 63, 35
1, 377280, Note_on_c, 0, 70, 35
1, 377280, Note_on_c, 0, 51, 34
1, 377280, Note_on_c, 0, 58, 34
1, 378240, Tempo, 392157
1, 378240, Note_on_c, 0, 58, 0
1, 378240, Note_on_c, 0, 63, 0
1, 378240, Note_on_c, 0, 70, 0
1, 378240, Note_on_c, 0, 51, 0
1, 378240, Note_on_c, 0, 53, 85
1, 378240, Note_on_c, 0, 63, 85
1, 378240, Note_on_c, 0, 59, 71
1, 378249, Control_c, 0, 64, 0
1, 378507, Control_c, 0, 64, 127
1, 379200, Tempo, 384615
1, 379200, Note_on_c, 0, 44, 79
1, 380160, Tempo, 389610
1, 380160, Note_on_c, 0, 44, 0
1, 380160, Note_on_c, 0, 53, 0
1, 380160, Note_on_c, 0, 63, 0
1, 380160, Note_on_c, 0, 59, 0
1, 380160, Note_on_c, 0, 52, 84
1, 380160, Note_on_c, 0, 63, 84
1, 380160, Note_on_c, 0, 56, 71
1, 380176, Control_c, 0, 64, 0
1, 380427, Control_c, 0, 64, 127
1, 381120, Tempo, 384615
1, 381120, Note_on_c, 0, 35, 79
1, 382080, Tempo, 389610
1, 382080, Note_on_c, 0, 35, 0
1, 382080, Note_on_c, 0, 52, 0
1, 382080, Note_on_c, 0, 63, 0
1, 382080, Note_on_c, 0, 56, 0
1, 382080, Note_on_c, 0, 53, 85
1, 382080, Note_on_c, 0, 63, 85
1, 382080, Note_on_c, 0, 59, 71
1, 382092, Control_c, 0, 64, 0
1, 382320, Control_c, 0, 64, 127
1, 383040, Tempo, 384615
1, 383040, Note_on_c, 0, 44, 77
1, 384000, Tempo, 387097
1, 384000, Note_on_c, 0, 44, 0
1, 384000, Note_on_c, 0, 53, 0
1, 384000, Note_on_c, 0, 63, 0
1, 384000, Note_on_c, 0, 59, 0
1, 384000, Note_on_c, 0, 52, 84
1, 384000, Note_on_c, 0, 63, 84
1, 384000, Note_on_c, 0, 56, 71
1, 384019, Control_c, 0, 64, 0
1, 384267, Control_c, 0, 64, 127
1, 384960, Tempo, 384615
1, 384960, Note_on_c, 0, 35, 79
1, 385920, Tempo, 363636
1, 385920, Note_on_c, 0, 35, 0
1, 385920, Note_on_c, 0, 52, 0
1, 385920, Note_on_c, 0, 63, 0
1, 385920, Note_on_c, 0, 56, 0
1, 385920, Note_on_c, 0, 68, 84
1, 385920, Note_on_c, 0, 75, 84
1, 385920, Note_on_c, 0, 77, 84
1, 385920, Note_on_c, 0, 63, 71
1, 385920, Note_on_c, 0, 59, 71
1, 385920, Note_on_c, 0, 53, 71
1, 385932, Control_c, 0, 64, 0
1, 386122, Control_c, 0, 64, 127
1, 386240, Note_on_c, 0, 77, 0
1, 386240, Note_on_c, 0, 68, 0
1, 386240, Note_on_c, 0, 75, 0
1, 386240, Note_on_c, 0, 65, 60
1, 386560, Note_on_c, 0, 65, 0
1, 386560, Note_on_c, 0, 68, 50
1, 386560, Note_on_c, 0, 75, 50
1, 386560, Note_on_c, 0, 77, 50
1, 386880, Note_on_c, 0, 77, 0
1, 386880, Note_on_c, 0, 68, 0
1, 386880, Note_on_c, 0, 75, 0
1, 386880, Note_on_c, 0, 65, 62
1, 386880, Note_on_c, 0, 44, 80
1, 387200, Note_on_c, 0, 65, 0
1, 387200, Note_on_c, 0, 68, 48
1, 387200, Note_on_c, 0, 75, 48
1, 387200, Note_on_c, 0, 77, 48
1, 387520, Note_on_c, 0, 77, 0
1, 387520, Note_on_c, 0, 68, 0
1, 387520, Note_on_c, 0, 75, 0
1, 387520, Note_on_c, 0, 65, 54
1, 387840, Tempo, 363636
1, 387840, Note_on_c, 0, 65, 0
1, 387840, Note_on_c, 0, 63, 0
1, 387840, Note_on_c, 0, 59, 0
1, 387840, Note_on_c, 0, 53, 0
1, 387840, Note_on_c, 0, 44, 0
1, 387840, Note_on_c, 0, 68, 77
1, 387840, Note_on_c, 0, 75, 77
1, 387840, Note_on_c, 0, 71, 77
1, 387840, Note_on_c, 0, 52, 71
1, 387840, Note_on_c, 0, 63, 71
1, 387840, Note_on_c, 0, 56, 71
1, 387851, Control_c, 0, 64, 0
1, 387977, Control_c, 0, 64, 127
1, 388160, Note_on_c, 0, 71, 0
1, 388160, Note_on_c, 0, 68, 0
1, 388160, Note_on_c, 0, 75, 0
1, 388160, Note_on_c, 0, 64, 60
1, 388480, Note_on_c, 0, 64, 0
1, 388480, Note_on_c, 0, 68, 48
1, 388480, Note_on_c, 0, 75, 48
1, 388480, Note_on_c, 0, 71, 48
1, 388800, Note_on_c, 0, 71, 0
1, 388800, Note_on_c, 0, 68, 0
1, 388800, Note_on_c, 0, 75, 0
1, 388800, Note_on_c, 0, 64, 62
1, 388800, Note_on_c, 0, 35, 71
1, 389120, Note_on_c, 0, 64, 0
1, 389120, Note_on_c, 0, 68, 45
1, 389120, Note_on_c, 0, 75, 45
1, 389120, Note_on_c, 0, 71, 45
1, 389440, Note_on_c, 0, 71, 0
1, 389440, Note_on_c, 0, 68, 0
1, 389440, Note_on_c, 0, 75, 0
1, 389440, Note_on_c, 0, 64, 50
1, 389760, Tempo, 363636
1, 389760, Note_on_c, 0, 64, 0
1, 389760, Note_on_c, 0, 52, 0
1, 389760, Note_on_c, 0, 63, 0
1, 389760, Note_on_c, 0, 56, 0
1, 389760, Note_on_c, 0, 35, 0
1, 389760, Note_on_c, 0, 68, 79
1, 389760, Note_on_c, 0, 75, 79
1, 389760, Note_on_c, 0, 77, 79
1, 389760, Note_on_c, 0, 53, 71
1, 389760, Note_on_c, 0, 59, 71
1, 389760, Note_on_c, 0, 63, 71
1, 389773, Control_c, 0, 64, 0
1, 389887, Control_c, 0, 64, 127
1, 390080, Note_on_c, 0, 77, 0
1, 390080, Note_on_c, 0, 68, 0
1, 390080, Note_on_c, 0, 75, 0
1, 390080, Note_on_c, 0, 65, 60
1, 390400, Note_on_c, 0, 65, 0
1, 390400, Note_on_c, 0, 68, 48
1, 390400, Note_on_c, 0, 75, 48
1, 390400, Note_on_c, 0, 77, 48
1, 390720, Note_on_c, 0, 77, 0
1, 390720, Note_on_c, 0, 68, 0
1, 390720, Note_on_c, 0, 75, 0
1, 390720, Note_on_c, 0, 65, 63
1, 390720, Note_on_c, 0, 44, 84
1, 391040, Note_on_c, 0, 65, 0
1, 391040, Note_on_c, 0, 68, 47
1, 391040, Note_on_c, 0, 75, 47
1, 391040, Note_on_c, 0, 77, 47
1, 391360, Note_on_c, 0, 77, 0
1, 391360, Note_on_c, 0, 68, 0
1, 391360, Note_on_c, 0, 75, 0
1, 391360, Note_on_c, 0, 65, 54
1, 391680, Tempo, 363636
1, 391680, Note_on_c, 0, 65, 0
1, 391680, Note_on_c, 0, 53, 0
1, 391680, Note_on_c, 0, 59, 0
1, 391680, Note_on_c, 0, 63, 0
1, 391680, Note_on_c, 0, 44, 0
1, 391680, Note_on_c, 0, 68, 77
1, 391680, Note_on_c, 0, 75, 77
1, 391680, Note_on_c, 0, 71, 77
1, 391680, Note_on_c, 0, 52, 71
1, 391680, Note_on_c, 0, 63, 71
1, 391680, Note_on_c, 0, 56, 71
1, 391693, Control_c, 0, 64, 0
1, 391840, Control_c, 0, 64, 127
1, 392000, Note_on_c, 0, 71, 0
1, 392000, Note_on_c, 0, 68, 0
1, 392000, Note_on_c, 0, 75, 0
1, 392000, Note_on_c, 0, 64, 60
1, 392320, Note_on_c, 0, 64, 0
1, 392320, Note_on_c, 0, 68, 47
1, 392320, Note_on_c, 0, 75, 47
1, 392320, Note_on_c, 0, 71, 47
1, 392640, Note_on_c, 0, 71, 0
1, 392640, Note_on_c, 0, 68, 0
1, 392640, Note_on_c, 0, 75, 0
1, 392640, Note_on_c, 0, 64, 62
1, 392640, Note_on_c, 0, 35, 73
1, 392960, Note_on_c, 0, 64, 0
1, 392960, Note_on_c, 0, 68, 45
1, 392960, Note_on_c, 0, 75, 45
1, 392960, Note_on_c, 0, 71, 45
1, 393280, Note_on_c, 0, 71, 0
1, 393280, Note_on_c, 0, 68, 0
1, 393280, Note_on_c, 0, 75, 0
1, 393280, Note_on_c, 0, 64, 51
1, 393600, Tempo, 363636
1, 393600, Note_on_c, 0, 64, 0
1, 393600, Note_on_c, 0, 52, 0
1, 393600, Note_on_c, 0, 63, 0
1, 393600, Note_on_c, 0, 56, 0
1, 393600, Note_on_c, 0, 35, 0
1, 393600, Note_on_c, 0, 101, 77
1, 393600, Note_on_c, 0, 99, 77
1, 393600, Note_on_c, 0, 53, 71
1, 393600, Note_on_c, 0, 59, 71
1, 393600, Note_on_c, 0, 63, 71
1, 393612, Control_c, 0, 64, 0
1, 393764, Control_c, 0, 64, 127
1, 393840, Note_on_c, 0, 99, 0
1, 393840, Note_on_c, 0, 101, 0
1, 393840, Note_on_c, 0, 89, 59
1, 394080, Tempo, 360360
1, 394080, Note_on_c, 0, 89, 0
1, 394080, Note_on_c, 0, 87, 63
1, 394080, Note_on_c, 0, 89, 63
1, 394320, Note_on_c, 0, 89, 0
1, 394320, Note_on_c, 0, 87, 0
1, 394320, Note_on_c, 0, 77, 57
1, 394560, Tempo, 357143
1, 394560, Note_on_c, 0, 77, 0
1, 394560, Note_on_c, 0, 89, 64
1, 394560, Note_on_c, 0, 87, 64
1, 394560, Note_on_c, 0, 44, 82
1, 394800, Note_on_c, 0, 87, 0
1, 394800, Note_on_c, 0, 89, 0
1, 394800, Note_on_c, 0, 89, 54
1, 395040, Note_on_c, 0, 89, 0
1, 395040, Note_on_c, 0, 99, 69
1, 395040, Note_on_c, 0, 101, 69
1, 395280, Note_on_c, 0, 101, 0
1, 395280, Note_on_c, 0, 99, 0
1, 395280, Note_on_c, 0, 89, 64
1, 395520, Tempo, 363636
1, 395520, Note_on_c, 0, 89, 0
1, 395520, Note_on_c, 0, 53, 0
1, 395520, Note_on_c, 0, 59, 0
1, 395520, Note_on_c, 0, 44, 0
1, 395520, Note_on_c, 0, 63, 0
1, 395520, Note_on_c, 0, 95, 77
1, 395520, Note_on_c, 0, 99, 77
1, 395520, Note_on_c, 0, 52, 71
1, 395520, Note_on_c, 0, 63, 71
1, 395520, Note_on_c, 0, 56, 71
1, 395532, Control_c, 0, 64, 0
1, 395646, Control_c, 0, 64, 127
1, 395760, Note_on_c, 0, 99, 0
1, 395760, Note_on_c, 0, 95, 0
1, 395760, Note_on_c, 0, 88, 57
1, 396000, Tempo, 360360
1, 396000, Note_on_c, 0, 88, 0
1, 396000, Note_on_c, 0, 87, 63
1, 396000, Note_on_c, 0, 83, 63
1, 396240, Note_on_c, 0, 83, 0
1, 396240, Note_on_c, 0, 87, 0
1, 396240, Note_on_c, 0, 76, 57
1, 396480, Tempo, 357143
1, 396480, Note_on_c, 0, 76, 0
1, 396480, Note_on_c, 0, 83, 65
1, 396480, Note_on_c, 0, 87, 65
1, 396480, Note_on_c, 0, 35, 75
1, 396720, Note_on_c, 0, 87, 0
1, 396720, Note_on_c, 0, 83, 0
1, 396720, Note_on_c, 0, 88, 59
1, 396960, Note_on_c, 0, 88, 0
1, 396960, Note_on_c, 0, 99, 71
1, 396960, Note_on_c, 0, 95, 71
1, 397200, Note_on_c, 0, 95, 0
1, 397200, Note_on_c, 0, 99, 0
1, 397200, Note_on_c, 0, 88, 63
1, 397440, Tempo, 363636
1, 397440, Note_on_c, 0, 88, 0
1, 397440, Note_on_c, 0, 52, 0
1, 397440, Note_on_c, 0, 63, 0
1, 397440, Note_on_c, 0, 35, 0
1, 397440, Note_on_c, 0, 56, 0
1, 397440, Note_on_c, 0, 101, 80
1, 397440, Note_on_c, 0, 99, 80
1, 397440, Note_on_c, 0, 53, 72
1, 397440, Note_on_c, 0, 59, 72
1, 397440, Note_on_c, 0, 63, 72
1, 397454, Control_c, 0, 64, 0
1, 397554, Control_c, 0, 64, 127
1, 397680, Note_on_c, 0, 99, 0
1, 397680, Note_on_c, 0, 101, 0
1, 397680, Note_on_c, 0, 89, 59
1, 397920, Tempo, 359281
1, 397920, Note_on_c, 0, 89, 0
1, 397920, Note_on_c, 0, 87, 66
1, 397920, Note_on_c, 0, 89, 66
1, 398160, Note_on_c, 0, 89, 0
1, 398160, Note_on_c, 0, 87, 0
1, 398160, Note_on_c, 0, 77, 59
1, 398400, Tempo, 357143
1, 398400, Note_on_c, 0, 77, 0
1, 398400, Note_on_c, 0, 89, 65
1, 398400, Note_on_c, 0, 87, 65
1, 398400, Note_on_c, 0, 44, 82
1, 398640, Note_on_c, 0, 87, 0
1, 398640, Note_on_c, 0, 89, 0
1, 398640, Note_on_c, 0, 89, 57
1, 398880, Note_on_c, 0, 89, 0
1, 398880, Note_on_c, 0, 99, 70
1, 398880, Note_on_c, 0, 101, 70
1, 399120, Note_on_c, 0, 101, 0
1, 399120, Note_on_c, 0, 99, 0
1, 399120, Note_on_c, 0, 89, 63
1, 399360, Tempo, 363636
1, 399360, Note_on_c, 0, 89, 0
1, 399360, Note_on_c, 0, 53, 0
1, 399360, Note_on_c, 0, 59, 0
1, 399360, Note_on_c, 0, 44, 0
1, 399360, Note_on_c, 0, 63, 0
1, 399360, Note_on_c, 0, 95, 81
1, 399360, Note_on_c, 0, 99, 81
1, 399360, Note_on_c, 0, 52, 73
1, 399360, Note_on_c, 0, 63, 73
1, 399360, Note_on_c, 0, 56, 73
1, 399372, Control_c, 0, 64, 0
1, 399497, Control_c, 0, 64, 127
1, 399600, Note_on_c, 0, 99, 0
1, 399600, Note_on_c, 0, 95, 0
1, 399600, Note_on_c, 0, 88, 60
1, 399840, Tempo, 359281
1, 399840, Note_on_c, 0, 88, 0
1, 399840, Note_on_c, 0, 87, 65
1, 399840, Note_on_c, 0, 83, 65
1, 400080, Note_on_c, 0, 83, 0
1, 400080, Note_on_c, 0, 87, 0
1, 400080, Note_on_c, 0, 76, 59
1, 400320, Tempo, 356083
1, 400320, Note_on_c, 0, 76, 0
1, 400320, Note_on_c, 0, 83, 65
1, 400320, Note_on_c, 0, 87, 65
1, 400320, Note_on_c, 0, 35, 75
1, 400560, Note_on_c, 0, 87, 0
1, 400560, Note_on_c, 0, 83, 0
1, 400560, Note_on_c, 0, 88, 59
1, 400800, Note_on_c, 0, 88, 0
1, 400800, Note_on_c, 0, 99, 72
1, 400800, Note_on_c, 0, 95, 72
1, 401040, Note_on_c, 0, 95, 0
1, 401040, Note_on_c, 0, 99, 0
1, 401040, Note_on_c, 0, 88, 64
1, 401280, Tempo, 363636
1, 401280, Note_on_c, 0, 88, 0
1, 401280, Note_on_c, 0, 52, 0
1, 401280, Note_on_c, 0, 63, 0
1, 401280, Note_on_c, 0, 35, 0
1, 401280, Note_on_c, 0, 56, 0
1, 401280, Note_on_c, 0, 92, 83
1, 401280, Note_on_c, 0, 96, 83
1, 401280, Note_on_c, 0, 99, 83
1, 401280, Note_on_c, 0, 63, 80
1, 401291, Control_c, 0, 64, 0
1, 401436, Control_c, 0, 64, 127
1, 401520, Note_on_c, 0, 99, 0
1, 401520, Note_on_c, 0, 92, 0
1, 401520, Note_on_c, 0, 96, 0
1, 401520, Note_on_c, 0, 89, 63
1, 401760, Tempo, 359281
1, 401760, Note_on_c, 0, 89, 0
1, 401760, Note_on_c, 0, 80, 60
1, 401760, Note_on_c, 0, 87, 60
1, 401760, Note_on_c, 0, 84, 60
1, 402000, Note_on_c, 0, 84, 0
1, 402000, Note_on_c, 0, 87, 0
1, 402000, Note_on_c, 0, 80, 0
1, 402000, Note_on_c, 0, 77, 62
1, 402240, Tempo, 357143
1, 402240, Note_on_c, 0, 77, 0
1, 402240, Note_on_c, 0, 80, 57
1, 402240, Note_on_c, 0, 84, 57
1, 402240, Note_on_c, 0, 87, 57
1, 402240, Note_on_c, 0, 34, 77
1, 402480, Note_on_c, 0, 87, 0
1, 402480, Note_on_c, 0, 84, 0
1, 402480, Note_on_c, 0, 80, 0
1, 402480, Note_on_c, 0, 89, 60
1, 402720, Note_on_c, 0, 89, 0
1, 402720, Note_on_c, 0, 92, 67
1, 402720, Note_on_c, 0, 99, 67
1, 402720, Note_on_c, 0, 96, 67
1, 402960, Note_on_c, 0, 96, 0
1, 402960, Note_on_c, 0, 92, 0
1, 402960, Note_on_c, 0, 99, 0
1, 402960, Note_on_c, 0, 89, 64
1, 403200, Tempo, 363636
1, 403200, Note_on_c, 0, 89, 0
1, 403200, Note_on_c, 0, 63, 0
1, 403200, Note_on_c, 0, 34, 0
1, 403200, Note_on_c, 0, 91, 84
1, 403200, Note_on_c, 0, 94, 84
1, 403200, Note_on_c, 0, 98, 84
1, 403200, Note_on_c, 0, 63, 77
1, 403218, Control_c, 0, 64, 0
1, 403313, Control_c, 0, 64, 127
1, 403440, Note_on_c, 0, 98, 0
1, 403440, Note_on_c, 0, 91, 0
1, 403440, Note_on_c, 0, 94, 0
1, 403440, Note_on_c, 0, 87, 63
1, 403680, Tempo, 359281
1, 403680, Note_on_c, 0, 87, 0
1, 403680, Note_on_c, 0, 79, 54
1, 403680, Note_on_c, 0, 86, 54
1, 403680, Note_on_c, 0, 82, 54
1, 403920, Note_on_c, 0, 82, 0
1, 403920, Note_on_c, 0, 86, 0
1, 403920, Note_on_c, 0, 79, 0
1, 403920, Note_on_c, 0, 75, 62
1, 404160, Tempo, 357143
1, 404160, Note_on_c, 0, 75, 0
1, 404160, Note_on_c, 0, 79, 56
1, 404160, Note_on_c, 0, 82, 56
1, 404160, Note_on_c, 0, 86, 56
1, 404160, Note_on_c, 0, 34, 76
1, 404400, Note_on_c, 0, 86, 0
1, 404400, Note_on_c, 0, 82, 0
1, 404400, Note_on_c, 0, 79, 0
1, 404400, Note_on_c, 0, 87, 62
1, 404640, Note_on_c, 0, 87, 0
1, 404640, Note_on_c, 0, 91, 71
1, 404640, Note_on_c, 0, 98, 71
1, 404640, Note_on_c, 0, 94, 71
1, 404880, Note_on_c, 0, 94, 0
1, 404880, Note_on_c, 0, 91, 0
1, 404880, Note_on_c, 0, 98, 0
1, 404880, Note_on_c, 0, 87, 65
1, 405120, Tempo, 363636
1, 405120, Note_on_c, 0, 87, 0
1, 405120, Note_on_c, 0, 63, 0
1, 405120, Note_on_c, 0, 34, 0
1, 405120, Note_on_c, 0, 87, 81
1, 405120, Note_on_c, 0, 94, 81
1, 405120, Note_on_c, 0, 92, 81
1, 405120, Note_on_c, 0, 63, 79
1, 405132, Control_c, 0, 64, 0
1, 405235, Control_c, 0, 64, 127
1, 405360, Note_on_c, 0, 92, 0
1, 405360, Note_on_c, 0, 87, 0
1, 405360, Note_on_c, 0, 94, 0
1, 405360, Note_on_c, 0, 83, 64
1, 405600, Tempo, 359281
1, 405600, Note_on_c, 0, 83, 0
1, 405600, Note_on_c, 0, 75, 68
1, 405600, Note_on_c, 0, 80, 68
1, 405600, Note_on_c, 0, 82, 68
1, 405840, Note_on_c, 0, 82, 0
1, 405840, Note_on_c, 0, 80, 0
1, 405840, Note_on_c, 0, 75, 0
1, 405840, Note_on_c, 0, 71, 63
1, 406080, Tempo, 356083
1, 406080, Note_on_c, 0, 71, 0
1, 406080, Note_on_c, 0, 75, 68
1, 406080, Note_on_c, 0, 82, 68
1, 406080, Note_on_c, 0, 80, 68
1, 406080, Note_on_c, 0, 34, 77
1, 406320, Note_on_c, 0, 80, 0
1, 406320, Note_on_c, 0, 82, 0
1, 406320, Note_on_c, 0, 75, 0
1, 406320, Note_on_c, 0, 83, 61
1, 406560, Note_on_c, 0, 83, 0
1, 406560, Note_on_c, 0, 87, 73
1, 406560, Note_on_c, 0, 92, 73
1, 406560, Note_on_c, 0, 94, 73
1, 406800, Note_on_c, 0, 94, 0
1, 406800, Note_on_c, 0, 87, 0
1, 406800, Note_on_c, 0, 92, 0
1, 406800, Note_on_c, 0, 83, 64
1, 407040, Tempo, 363636
1, 407040, Note_on_c, 0, 83, 0
1, 407040, Note_on_c, 0, 63, 0
1, 407040, Note_on_c, 0, 34, 0
1, 407040, Note_on_c, 0, 86, 84
1, 407040, Note_on_c, 0, 91, 84
1, 407040, Note_on_c, 0, 63, 81
1, 407050, Control_c, 0, 64, 0
1, 407181, Control_c, 0, 64, 127
1, 407280, Note_on_c, 0, 91, 0
1, 407280, Note_on_c, 0, 86, 0
1, 407280, Note_on_c, 0, 82, 65
1, 407520, Tempo, 359281
1, 407520, Note_on_c, 0, 82, 0
1, 407520, Note_on_c, 0, 74, 69
1, 407520, Note_on_c, 0, 79, 69
1, 407760, Note_on_c, 0, 79, 0
1, 407760, Note_on_c, 0, 74, 0
1, 407760, Note_on_c, 0, 70, 63
1, 408000, Tempo, 358209
1, 408000, Note_on_c, 0, 70, 0
1, 408000, Note_on_c, 0, 74, 72
1, 408000, Note_on_c, 0, 79, 72
1, 408000, Note_on_c, 0, 34, 77
1, 408240, Note_on_c, 0, 79, 0
1, 408240, Note_on_c, 0, 74, 0
1, 408240, Note_on_c, 0, 82, 65
1, 408480, Note_on_c, 0, 82, 0
1, 408480, Note_on_c, 0, 86, 80
1, 408480, Note_on_c, 0, 91, 80
1, 408720, Note_on_c, 0, 91, 0
1, 408720, Note_on_c, 0, 86, 0
1, 408720, Note_on_c, 0, 82, 69
1, 408960, Tempo, 363636
1, 408960, Note_on_c, 0, 82, 0
1, 408960, Note_on_c, 0, 63, 0
1, 408960, Note_on_c, 0, 34, 0
1, 408960, Note_on_c, 0, 79, 85
1, 408960, Note_on_c, 0, 84, 92
1, 408960, Note_on_c, 0, 63, 82
1, 408972, Control_c, 0, 64, 0
1, 409144, Control_c, 0, 64, 127
1, 409200, Note_on_c, 0, 84, 0
1, 409200, Note_on_c, 0, 79, 0
1, 409200, Note_on_c, 0, 75, 66
1, 409440, Tempo, 359281
1, 409440, Note_on_c, 0, 75, 0
1, 409440, Note_on_c, 0, 67, 64
1, 409440, Note_on_c, 0, 72, 71
1, 409680, Note_on_c, 0, 72, 0
1, 409680, Note_on_c, 0, 67, 0
1, 409680, Note_on_c, 0, 63, 64
1, 409920, Note_on_c, 0, 63, 0
1, 409920, Note_on_c, 0, 77, 73
1, 409920, Note_on_c, 0, 82, 73
1, 409920, Note_on_c, 0, 34, 80
1, 410160, Note_on_c, 0, 82, 0
1, 410160, Note_on_c, 0, 77, 0
1, 410160, Note_on_c, 0, 74, 66
1, 410400, Note_on_c, 0, 74, 0
1, 410400, Note_on_c, 0, 65, 63
1, 410400, Note_on_c, 0, 70, 71
1, 410640, Note_on_c, 0, 70, 0
1, 410640, Note_on_c, 0, 65, 0
1, 410640, Note_on_c, 0, 62, 70
1, 410880, Tempo, 363636
1, 410880, Note_on_c, 0, 62, 0
1, 410880, Note_on_c, 0, 63, 0
1, 410880, Note_on_c, 0, 34, 0
1, 410880, Note_on_c, 0, 79, 84
1, 410880, Note_on_c, 0, 84, 91
1, 410880, Note_on_c, 0, 63, 82
1, 410890, Control_c, 0, 64, 0
1, 411007, Control_c, 0, 64, 127
1, 411120, Note_on_c, 0, 84, 0
1, 411120, Note_on_c, 0, 79, 0
1, 411120, Note_on_c, 0, 75, 66
1, 411360, Note_on_c, 0, 75, 0
1, 411360, Note_on_c, 0, 67, 71
1, 411360, Note_on_c, 0, 72, 71
1, 411600, Note_on_c, 0, 72, 0
1, 411600, Note_on_c, 0, 67, 0
1, 411600, Note_on_c, 0, 63, 64
1, 411840, Tempo, 358209
1, 411840, Note_on_c, 0, 63, 0
1, 411840, Note_on_c, 0, 89, 84
1, 411840, Note_on_c, 0, 82, 62
1, 411840, Note_on_c, 0, 86, 62
1, 411840, Note_on_c, 0, 34, 79
1, 412080, Note_on_c, 0, 86, 0
1, 412080, Note_on_c, 0, 82, 0
1, 412080, Note_on_c, 0, 89, 0
1, 412080, Note_on_c, 0, 77, 66
1, 412320, Tempo, 363636
1, 412320, Note_on_c, 0, 77, 0
1, 412320, Note_on_c, 0, 86, 63
1, 412320, Note_on_c, 0, 89, 63
1, 412320, Note_on_c, 0, 94, 87
1, 412560, Note_on_c, 0, 94, 0
1, 412560, Note_on_c, 0, 86, 0
1, 412560, Note_on_c, 0, 89, 0
1, 412560, Note_on_c, 0, 82, 70
1, 412800, Note_on_c, 0, 82, 0
1, 412800, Note_on_c, 0, 63, 0
1, 412800, Note_on_c, 0, 34, 0
1, 412800, Note_on_c, 0, 91, 96
1, 412800, Note_on_c, 0, 87, 66
1, 412800, Note_on_c, 0, 84, 66
1, 412800, Note_on_c, 0, 63, 82
1, 412815, Control_c, 0, 64, 0
1, 413012, Control_c, 0, 64, 127
1, 413040, Note_on_c, 0, 84, 0
1, 413040, Note_on_c, 0, 91, 0
1, 413040, Note_on_c, 0, 87, 0
1, 413040, Note_on_c, 0, 82, 66
1, 413280, Note_on_c, 0, 82, 0
1, 413280, Note_on_c, 0, 72, 61
1, 413280, Note_on_c, 0, 75, 63
1, 413280, Note_on_c, 0, 79, 71
1, 413520, Note_on_c, 0, 79, 0
1, 413520, Note_on_c, 0, 75, 0
1, 413520, Note_on_c, 0, 72, 0
1, 413520, Note_on_c, 0, 70, 64
1, 413760, Tempo, 359281
1, 413760, Note_on_c, 0, 70, 0
1, 413760, Note_on_c, 0, 89, 82
1, 413760, Note_on_c, 0, 82, 59
1, 413760, Note_on_c, 0, 86, 59
1, 413760, Note_on_c, 0, 34, 80
1, 414000, Note_on_c, 0, 86, 0
1, 414000, Note_on_c, 0, 82, 0
1, 414000, Note_on_c, 0, 89, 0
1, 414000, Note_on_c, 0, 77, 66
1, 414240, Note_on_c, 0, 77, 0
1, 414240, Note_on_c, 0, 86, 64
1, 414240, Note_on_c, 0, 89, 64
1, 414240, Note_on_c, 0, 94, 88
1, 414480, Note_on_c, 0, 94, 0
1, 414480, Note_on_c, 0, 86, 0
1, 414480, Note_on_c, 0, 89, 0
1, 414480, Note_on_c, 0, 82, 70
1, 414720, Tempo, 363636
1, 414720, Note_on_c, 0, 82, 0
1, 414720, Note_on_c, 0, 63, 0
1, 414720, Note_on_c, 0, 34, 0
1, 414720, Note_on_c, 0, 91, 95
1, 414720, Note_on_c, 0, 87, 45
1, 414720, Note_on_c, 0, 86, 45
1, 414720, Note_on_c, 0, 63, 82
1, 414732, Control_c, 0, 64, 0
1, 414847, Control_c, 0, 64, 127
1, 414960, Note_on_c, 0, 86, 0
1, 414960, Note_on_c, 0, 91, 0
1, 414960, Note_on_c, 0, 87, 0
1, 414960, Note_on_c, 0, 84, 66
1, 415200, Note_on_c, 0, 84, 0
1, 415200, Note_on_c, 0, 74, 61
1, 415200, Note_on_c, 0, 75, 61
1, 415200, Note_on_c, 0, 79, 71
1, 415440, Note_on_c, 0, 79, 0
1, 415440, Note_on_c, 0, 75, 0
1, 415440, Note_on_c, 0, 74, 0
1, 415440, Note_on_c, 0, 72, 64
1, 415680, Note_on_c, 0, 72, 0
1, 415680, Note_on_c, 0, 87, 92
1, 415680, Note_on_c, 0, 84, 44
1, 415680, Note_on_c, 0, 82, 44
1, 415680, Note_on_c, 0, 34, 80
1, 415920, Note_on_c, 0, 82, 0
1, 415920, Note_on_c, 0, 84, 0
1, 415920, Note_on_c, 0, 87, 0
1, 415920, Note_on_c, 0, 79, 62
1, 416160, Tempo, 368098
1, 416160, Note_on_c, 0, 79, 0
1, 416160, Note_on_c, 0, 70, 56
1, 416160, Note_on_c, 0, 72, 56
1, 416160, Note_on_c, 0, 75, 67
1, 416400, Note_on_c, 0, 75, 0
1, 416400, Note_on_c, 0, 70, 0
1, 416400, Note_on_c, 0, 72, 0
1, 416400, Note_on_c, 0, 67, 64
1, 416640, Tempo, 365854
1, 416640, Note_on_c, 0, 67, 0
1, 416640, Note_on_c, 0, 63, 0
1, 416640, Note_on_c, 0, 34, 0
1, 416640, Note_on_c, 0, 89, 90
1, 416640, Note_on_c, 0, 87, 65
1, 416640, Note_on_c, 0, 84, 65
1, 416640, Note_on_c, 0, 63, 82
1, 416650, Control_c, 0, 64, 0
1, 416779, Control_c, 0, 64, 127
1, 416880, Note_on_c, 0, 84, 0
1, 416880, Note_on_c, 0, 89, 0
1, 416880, Note_on_c, 0, 87, 0
1, 416880, Note_on_c, 0, 80, 66
1, 417120, Note_on_c, 0, 80, 0
1, 417120, Note_on_c, 0, 72, 61
1, 417120, Note_on_c, 0, 75, 61
1, 417120, Note_on_c, 0, 77, 71
1, 417360, Note_on_c, 0, 77, 0
1, 417360, Note_on_c, 0, 75, 0
1, 417360, Note_on_c, 0, 72, 0
1, 417360, Note_on_c, 0, 68, 64
1, 417600, Note_on_c, 0, 68, 0
1, 417600, Note_on_c, 0, 84, 90
1, 417600, Note_on_c, 0, 80, 64
1, 417600, Note_on_c, 0, 77, 64
1, 417840, Note_on_c, 0, 77, 0
1, 417840, Note_on_c, 0, 80, 0
1, 417840, Note_on_c, 0, 84, 0
1, 417840, Note_on_c, 0, 75, 66
1, 418080, Note_on_c, 0, 75, 0
1, 418080, Note_on_c, 0, 65, 61
1, 418080, Note_on_c, 0, 68, 61
1, 418080, Note_on_c, 0, 72, 71
1, 418320, Note_on_c, 0, 72, 0
1, 418320, Note_on_c, 0, 68, 0
1, 418320, Note_on_c, 0, 65, 0
1, 418320, Note_on_c, 0, 63, 64
1, 418560, Tempo, 363636
1, 418560, Note_on_c, 0, 63, 0
1, 418560, Note_on_c, 0, 63, 0
1, 418560, Note_on_c, 0, 70, 87
1, 418560, Note_on_c, 0, 68, 49
1, 418560, Note_on_c, 0, 65, 49
1, 418560, Note_on_c, 0, 34, 85
1, 418572, Control_c, 0, 64, 0
1, 418712, Control_c, 0, 64, 127
1, 418800, Note_on_c, 0, 65, 0
1, 418800, Note_on_c, 0, 70, 0
1, 418800, Note_on_c, 0, 68, 0
1, 418800, Note_on_c, 0, 62, 66
1, 419040, Tempo, 362538
1, 419040, Note_on_c, 0, 62, 0
1, 419040, Note_on_c, 0, 68, 45
1, 419040, Note_on_c, 0, 70, 45
1, 419040, Note_on_c, 0, 74, 79
1, 419280, Note_on_c, 0, 74, 0
1, 419280, Note_on_c, 0, 70, 0
1, 419280, Note_on_c, 0, 68, 0
1, 419280, Note_on_c, 0, 65, 64
1, 419520, Tempo, 361446
1, 419520, Note_on_c, 0, 65, 0
1, 419520, Note_on_c, 0, 77, 86
1, 419520, Note_on_c, 0, 74, 48
1, 419520, Note_on_c, 0, 70, 48
1, 419533, Control_c, 0, 64, 0
1, 419647, Control_c, 0, 64, 127
1, 419760, Note_on_c, 0, 70, 0
1, 419760, Note_on_c, 0, 74, 0
1, 419760, Note_on_c, 0, 77, 0
1, 419760, Note_on_c, 0, 68, 66
1, 420000, Tempo, 360360
1, 420000, Note_on_c, 0, 68, 0
1, 420000, Note_on_c, 0, 74, 51
1, 420000, Note_on_c, 0, 77, 51
1, 420000, Note_on_c, 0, 82, 90
1, 420240, Note_on_c, 0, 82, 0
1, 420240, Note_on_c, 0, 77, 0
1, 420240, Note_on_c, 0, 74, 0
1, 420240, Note_on_c, 0, 70, 72
1, 420440, Tempo, 359281
1, 420480, Note_on_c, 0, 70, 0
1, 420480, Note_on_c, 0, 34, 0
1, 420480, Note_on_c, 0, 79, 54
1, 420480, Note_on_c, 0, 84, 95
1, 420480, Note_on_c, 0, 63, 89
1, 420486, Control_c, 0, 64, 0
1, 420636, Control_c, 0, 64, 127
1, 420720, Note_on_c, 0, 84, 0
1, 420720, Note_on_c, 0, 79, 0
1, 420720, Note_on_c, 0, 75, 66
1, 420960, Note_on_c, 0, 75, 0
1, 420960, Note_on_c, 0, 67, 62
1, 420960, Note_on_c, 0, 72, 71
1, 421200, Note_on_c, 0, 72, 0
1, 421200, Note_on_c, 0, 67, 0
1, 421200, Note_on_c, 0, 63, 64
1, 421440, Tempo, 359281
1, 421440, Note_on_c, 0, 63, 0
1, 421440, Note_on_c, 0, 89, 82
1, 421440, Note_on_c, 0, 82, 46
1, 421440, Note_on_c, 0, 86, 46
1, 421440, Note_on_c, 0, 34, 83
1, 421462, Control_c, 0, 64, 0
1, 421624, Control_c, 0, 64, 127
1, 421680, Note_on_c, 0, 86, 0
1, 421680, Note_on_c, 0, 82, 0
1, 421680, Note_on_c, 0, 89, 0
1, 421680, Note_on_c, 0, 77, 66
1, 421920, Tempo, 364742
1, 421920, Note_on_c, 0, 77, 0
1, 421920, Note_on_c, 0, 86, 50
1, 421920, Note_on_c, 0, 89, 50
1, 421920, Note_on_c, 0, 94, 88
1, 422160, Note_on_c, 0, 94, 0
1, 422160, Note_on_c, 0, 86, 0
1, 422160, Note_on_c, 0, 89, 0
1, 422160, Note_on_c, 0, 82, 70
1, 422400, Tempo, 363636
1, 422400, Note_on_c, 0, 82, 0
1, 422400, Note_on_c, 0, 63, 0
1, 422400, Note_on_c, 0, 34, 0
1, 422400, Note_on_c, 0, 91, 97
1, 422400, Note_on_c, 0, 87, 54
1, 422400, Note_on_c, 0, 84, 54
1, 422400, Note_on_c, 0, 63, 89
1, 422410, Control_c, 0, 64, 0
1, 422556, Control_c, 0, 64, 127
1, 422640, Note_on_c, 0, 84, 0
1, 422640, Note_on_c, 0, 91, 0
1, 422640, Note_on_c, 0, 87, 0
1, 422640, Note_on_c, 0, 82, 66
1, 422880, Note_on_c, 0, 82, 0
1, 422880, Note_on_c, 0, 72, 60
1, 422880, Note_on_c, 0, 75, 64
1, 422880, Note_on_c, 0, 79, 71
1, 423120, Note_on_c, 0, 79, 0
1, 423120, Note_on_c, 0, 75, 0
1, 423120, Note_on_c, 0, 72, 0
1, 423120, Note_on_c, 0, 70, 64
1, 423360, Tempo, 360360
1, 423360, Note_on_c, 0, 70, 0
1, 423360, Note_on_c, 0, 89, 82
1, 423360, Note_on_c, 0, 82, 46
1, 423360, Note_on_c, 0, 86, 46
1, 423360, Note_on_c, 0, 34, 83
1, 423374, Control_c, 0, 64, 0
1, 423487, Control_c, 0, 64, 127
1, 423600, Note_on_c, 0, 86, 0
1, 423600, Note_on_c, 0, 82, 0
1, 423600, Note_on_c, 0, 89, 0
1, 423600, Note_on_c, 0, 77, 66
1, 423840, Note_on_c, 0, 77, 0
1, 423840, Note_on_c, 0, 86, 50
1, 423840, Note_on_c, 0, 89, 50
1, 423840, Note_on_c, 0, 94, 88
1, 423880, Tempo, 364742
1, 424080, Note_on_c, 0, 94, 0
1, 424080, Note_on_c, 0, 86, 0
1, 424080, Note_on_c, 0, 89, 0
1, 424080, Note_on_c, 0, 82, 70
1, 424320, Tempo, 361446
1, 424320, Note_on_c, 0, 82, 0
1, 424320, Note_on_c, 0, 63, 0
1, 424320, Note_on_c, 0, 34, 0
1, 424320, Note_on_c, 0, 68, 60
1, 424320, Note_on_c, 0, 72, 83
1, 424320, Note_on_c, 0, 67, 60
1, 424320, Note_on_c, 0, 63, 87
1, 424338, Control_c, 0, 64, 0
1, 424447, Control_c, 0, 64, 127
1, 424560, Note_on_c, 0, 67, 0
1, 424560, Note_on_c, 0, 68, 0
1, 424560, Note_on_c, 0, 72, 0
1, 424560, Note_on_c, 0, 65, 65
1, 424800, Note_on_c, 0, 65, 0
1, 424800, Note_on_c, 0, 70, 57
1, 424800, Note_on_c, 0, 74, 57
1, 424800, Note_on_c, 0, 75, 81
1, 424920, Tempo, 360360
1, 425040, Note_on_c, 0, 75, 0
1, 425040, Note_on_c, 0, 74, 0
1, 425040, Note_on_c, 0, 70, 0
1, 425040, Note_on_c, 0, 67, 64
1, 425280, Note_on_c, 0, 67, 0
1, 425280, Note_on_c, 0, 63, 0
1, 425280, Note_on_c, 0, 77, 83
1, 425280, Note_on_c, 0, 75, 60
1, 425280, Note_on_c, 0, 72, 60
1, 425280, Note_on_c, 0, 34, 83
1, 425293, Control_c, 0, 64, 0
1, 425432, Control_c, 0, 64, 127
1, 425520, Tempo, 359281
1, 425520, Note_on_c, 0, 72, 0
1, 425520, Note_on_c, 0, 77, 0
1, 425520, Note_on_c, 0, 75, 0
1, 425520, Note_on_c, 0, 68, 66
1, 425760, Note_on_c, 0, 68, 0
1, 425760, Note_on_c, 0, 74, 63
1, 425760, Note_on_c, 0, 77, 63
1, 425760, Note_on_c, 0, 80, 87
1, 426000, Note_on_c, 0, 80, 0
1, 426000, Note_on_c, 0, 77, 0
1, 426000, Note_on_c, 0, 74, 0
1, 426000, Note_on_c, 0, 72, 71
1, 426120, Tempo, 358209
1, 426200, Tempo, 357143
1, 426240, Note_on_c, 0, 72, 0
1, 426240, Note_on_c, 0, 34, 0
1, 426240, Note_on_c, 0, 75, 81
1, 426240, Note_on_c, 0, 79, 88
1, 426240, Note_on_c, 0, 74, 64
1, 426240, Note_on_c, 0, 63, 90
1, 426253, Control_c, 0, 64, 0
1, 426377, Control_c, 0, 64, 127
1, 426480, Tempo, 356083
1, 426480, Note_on_c, 0, 74, 0
1, 426480, Note_on_c, 0, 75, 0
1, 426480, Note_on_c, 0, 79, 0
1, 426480, Note_on_c, 0, 71, 66
1, 426720, Note_on_c, 0, 71, 0
1, 426720, Note_on_c, 0, 75, 60
1, 426720, Note_on_c, 0, 79, 60
1, 426720, Note_on_c, 0, 80, 83
1, 426760, Tempo, 355030
1, 426960, Note_on_c, 0, 80, 0
1, 426960, Note_on_c, 0, 79, 0
1, 426960, Note_on_c, 0, 75, 0
1, 426960, Note_on_c, 0, 72, 64
1, 427040, Tempo, 353982
1, 427200, Note_on_c, 0, 72, 0
1, 427200, Note_on_c, 0, 63, 0
1, 427200, Note_on_c, 0, 84, 87
1, 427200, Note_on_c, 0, 80, 63
1, 427200, Note_on_c, 0, 79, 63
1, 427200, Note_on_c, 0, 34, 83
1, 427219, Control_c, 0, 64, 0
1, 427320, Tempo, 352941
1, 427326, Control_c, 0, 64, 127
1, 427440, Note_on_c, 0, 79, 0
1, 427440, Note_on_c, 0, 84, 0
1, 427440, Note_on_c, 0, 80, 0
1, 427440, Note_on_c, 0, 77, 66
1, 427600, Tempo, 351906
1, 427680, Note_on_c, 0, 77, 0
1, 427680, Note_on_c, 0, 84, 63
1, 427680, Note_on_c, 0, 86, 63
1, 427680, Note_on_c, 0, 89, 87
1, 427880, Tempo, 350877
1, 427920, Note_on_c, 0, 89, 0
1, 427920, Note_on_c, 0, 86, 0
1, 427920, Note_on_c, 0, 84, 0
1, 427920, Note_on_c, 0, 80, 72
1, 428120, Tempo, 349854
1, 428144, Tempo, 362538
1, 428160, Note_on_c, 0, 80, 0
1, 428160, Note_on_c, 0, 34, 0
1, 428160, Note_on_c, 0, 92, 90
1, 428160, Note_on_c, 0, 87, 59
1, 428160, Note_on_c, 0, 58, 59
1, 428160, Note_on_c, 0, 65, 59
1, 428160, Note_on_c, 0, 63, 59
1, 428160, Note_on_c, 0, 70, 82
1, 428166, Control_c, 0, 64, 0
1, 428172, Tempo, 361446
1, 428184, Tempo, 360360
1, 428200, Tempo, 359281
1, 428280, Tempo, 360360
1, 428292, Tempo, 363636
1, 428332, Tempo, 362538
1, 428344, Tempo, 361446
1, 428350, Control_c, 0, 64, 127
1, 428360, Tempo, 360360
1, 428372, Tempo, 359281
1, 428384, Tempo, 358209
1, 428400, Tempo, 357143
1, 428400, Note_on_c, 0, 87, 0
1, 428400, Note_on_c, 0, 92, 0
1, 428400, Note_on_c, 0, 80, 35
1, 428400, Note_on_c, 0, 94, 66
1, 428440, Tempo, 359281
1, 428452, Tempo, 361446
1, 428464, Tempo, 363636
1, 428480, Tempo, 364742
1, 428532, Tempo, 363636
1, 428544, Tempo, 361446
1, 428560, Tempo, 360360
1, 428572, Tempo, 359281
1, 428624, Tempo, 360360
1, 428640, Tempo, 362538
1, 428640, Note_on_c, 0, 94, 0
1, 428640, Note_on_c, 0, 80, 0
1, 428640, Note_on_c, 0, 87, 57
1, 428640, Note_on_c, 0, 92, 89
1, 428652, Tempo, 363636
1, 428720, Tempo, 362538
1, 428732, Tempo, 361446
1, 428744, Tempo, 360360
1, 428760, Tempo, 359281
1, 428852, Tempo, 361446
1, 428864, Tempo, 363636
1, 428880, Note_on_c, 0, 92, 0
1, 428880, Note_on_c, 0, 87, 0
1, 428880, Note_on_c, 0, 80, 35
1, 428880, Note_on_c, 0, 94, 66
1, 428920, Tempo, 362538
1, 428932, Tempo, 361446
1, 428944, Tempo, 360360
1, 428960, Tempo, 359281
1, 428972, Tempo, 358209
1, 429024, Tempo, 361446
1, 429040, Tempo, 363636
1, 429064, Tempo, 364742
1, 429104, Tempo, 363636
1, 429120, Tempo, 362538
1, 429120, Note_on_c, 0, 94, 0
1, 429120, Note_on_c, 0, 80, 0
1, 429120, Note_on_c, 0, 92, 90
1, 429120, Note_on_c, 0, 87, 59
1, 429120, Note_on_c, 0, 27, 65
1, 429120, Note_on_c, 0, 39, 82
1, 429144, Tempo, 360360
1, 429172, Tempo, 359281
1, 429184, Tempo, 358209
1, 429240, Tempo, 360360
1, 429252, Tempo, 361446
1, 429280, Tempo, 363636
1, 429292, Tempo, 364742
1, 429320, Tempo, 363636
1, 429332, Tempo, 362538
1, 429344, Tempo, 361446
1, 429360, Tempo, 360360
1, 429360, Note_on_c, 0, 87, 0
1, 429360, Note_on_c, 0, 92, 0
1, 429360, Note_on_c, 0, 80, 35
1, 429360, Note_on_c, 0, 94, 66
1, 429372, Tempo, 359281
1, 429384, Tempo, 358209
1, 429400, Tempo, 356083
1, 429412, Tempo, 355030
1, 429424, Tempo, 353982
1, 429452, Tempo, 357143
1, 429464, Tempo, 359281
1, 429480, Tempo, 360360
1, 429492, Tempo, 361446
1, 429504, Tempo, 363636
1, 429532, Tempo, 364742
1, 429544, Tempo, 365854
1, 429584, Tempo, 364742
1, 429600, Tempo, 363636
1, 429600, Note_on_c, 0, 94, 0
1, 429600, Note_on_c, 0, 80, 0
1, 429600, Note_on_c, 0, 87, 56
1, 429600, Note_on_c, 0, 92, 87
1, 429612, Tempo, 361446
1, 429624, Tempo, 360360
1, 429640, Tempo, 359281
1, 429652, Tempo, 358209
1, 429664, Tempo, 357143
1, 429720, Tempo, 359281
1, 429732, Tempo, 361446
1, 429760, Tempo, 362538
1, 429800, Tempo, 361446
1, 429824, Tempo, 360360
1, 429840, Tempo, 359281
1, 429840, Note_on_c, 0, 92, 0
1, 429840, Note_on_c, 0, 87, 0
1, 429840, Note_on_c, 0, 58, 0
1, 429840, Note_on_c, 0, 65, 0
1, 429840, Note_on_c, 0, 63, 0
1, 429840, Note_on_c, 0, 70, 0
1, 429840, Note_on_c, 0, 80, 35
1, 429840, Note_on_c, 0, 94, 66
1, 429846, Control_c, 0, 64, 0
1, 429864, Tempo, 358209
1, 429880, Tempo, 357143
1, 429892, Tempo, 356083
1, 429920, Tempo, 357143
1, 429932, Tempo, 359281
1, 429944, Tempo, 360360
1, 429960, Tempo, 362538
1, 429972, Tempo, 363636
1, 430052, Tempo, 362538
1, 430080, Tempo, 361446
1, 430080, Note_on_c, 0, 94, 0
1, 430080, Note_on_c, 0, 39, 0
1, 430080, Note_on_c, 0, 27, 0
1, 430080, Note_on_c, 0, 80, 0
1, 430080, Note_on_c, 0, 92, 92
1, 430080, Note_on_c, 0, 87, 60
1, 430080, Note_on_c, 0, 58, 60
1, 430080, Note_on_c, 0, 63, 60
1, 430080, Note_on_c, 0, 65, 60
1, 430080, Note_on_c, 0, 70, 84
1, 430104, Tempo, 360360
1, 430132, Tempo, 359281
1, 430144, Tempo, 358209
1, 430172, Tempo, 357143
1, 430200, Tempo, 358209
1, 430257, Control_c, 0, 64, 127
1, 430280, Tempo, 360360
1, 430292, Tempo, 362538
1, 430304, Tempo, 363636
1, 430320, Note_on_c, 0, 87, 0
1, 430320, Note_on_c, 0, 92, 0
1, 430320, Note_on_c, 0, 80, 37
1, 430320, Note_on_c, 0, 94, 70
1, 430344, Tempo, 362538
1, 430372, Tempo, 361446
1, 430400, Tempo, 360360
1, 430424, Tempo, 359281
1, 430440, Tempo, 358209
1, 430480, Tempo, 357143
1, 430504, Tempo, 360360
1, 430520, Tempo, 362538
1, 430544, Tempo, 363636
1, 430560, Note_on_c, 0, 94, 0
1, 430560, Note_on_c, 0, 80, 0
1, 430560, Note_on_c, 0, 87, 60
1, 430560, Note_on_c, 0, 92, 91
1, 430572, Tempo, 364742
1, 430584, Tempo, 365854
1, 430680, Tempo, 364742
1, 430704, Tempo, 362538
1, 430720, Tempo, 361446
1, 430760, Tempo, 360360
1, 430784, Tempo, 359281
1, 430800, Tempo, 358209
1, 430800, Note_on_c, 0, 92, 0
1, 430800, Note_on_c, 0, 87, 0
1, 430800, Note_on_c, 0, 80, 36
1, 430800, Note_on_c, 0, 94, 69
1, 430824, Tempo, 360360
1, 430840, Tempo, 362538
1, 430920, Tempo, 361446
1, 430944, Tempo, 360360
1, 430984, Tempo, 358209
1, 431012, Tempo, 359281
1, 431040, Tempo, 362538
1, 431040, Note_on_c, 0, 94, 0
1, 431040, Note_on_c, 0, 80, 0
1, 431040, Note_on_c, 0, 92, 95
1, 431040, Note_on_c, 0, 87, 63
1, 431040, Note_on_c, 0, 27, 68
1, 431040, Note_on_c, 0, 39, 86
1, 431064, Tempo, 363636
1, 431080, Tempo, 364742
1, 431104, Tempo, 363636
1, 431132, Tempo, 362538
1, 431144, Tempo, 360360
1, 431172, Tempo, 359281
1, 431184, Tempo, 358209
1, 431200, Tempo, 357143
1, 431252, Tempo, 359281
1, 431264, Tempo, 360360
1, 431280, Tempo, 361446
1, 431280, Note_on_c, 0, 87, 0
1, 431280, Note_on_c, 0, 92, 0
1, 431280, Note_on_c, 0, 80, 37
1, 431280, Note_on_c, 0, 94, 70
1, 431304, Tempo, 362538
1, 431332, Tempo, 364742
1, 431360, Tempo, 362538
1, 431372, Tempo, 361446
1, 431384, Tempo, 360360
1, 431412, Tempo, 358209
1, 431480, Tempo, 360360
1, 431504, Tempo, 361446
1, 431520, Note_on_c, 0, 94, 0
1, 431520, Note_on_c, 0, 80, 0
1, 431520, Note_on_c, 0, 87, 59
1, 431520, Note_on_c, 0, 92, 90
1, 431532, Tempo, 363636
1, 431560, Tempo, 364742
1, 431612, Tempo, 363636
1, 431624, Tempo, 362538
1, 431652, Tempo, 361446
1, 431664, Tempo, 360360
1, 431680, Tempo, 359281
1, 431692, Tempo, 358209
1, 431760, Note_on_c, 0, 92, 0
1, 431760, Note_on_c, 0, 87, 0
1, 431760, Note_on_c, 0, 58, 0
1, 431760, Note_on_c, 0, 63, 0
1, 431760, Note_on_c, 0, 65, 0
1, 431760, Note_on_c, 0, 70, 0
1, 431760, Note_on_c, 0, 80, 36
1, 431760, Note_on_c, 0, 94, 69
1, 431771, Control_c, 0, 64, 0
1, 431772, Tempo, 359281
1, 431784, Tempo, 360360
1, 431824, Tempo, 361446
1, 432000, Tempo, 361446
1, 432000, Note_on_c, 0, 94, 0
1, 432000, Note_on_c, 0, 39, 0
1, 432000, Note_on_c, 0, 27, 0
1, 432000, Note_on_c, 0, 80, 0
1, 432000, Note_on_c, 0, 89, 96
1, 432000, Note_on_c, 0, 87, 64
1, 432000, Note_on_c, 0, 58, 62
1, 432000, Note_on_c, 0, 63, 62
1, 432000, Note_on_c, 0, 65, 62
1, 432000, Note_on_c, 0, 70, 87
1, 432038, Control_c, 0, 64, 127
1, 432240, Note_on_c, 0, 87, 0
1, 432240, Note_on_c, 0, 89, 0
1, 432240, Note_on_c, 0, 80, 37
1, 432240, Note_on_c, 0, 94, 72
1, 432280, Tempo, 362538
1, 432480, Note_on_c, 0, 94, 0
1, 432480, Note_on_c, 0, 80, 0
1, 432480, Note_on_c, 0, 87, 63
1, 432480, Note_on_c, 0, 89, 95
1, 432560, Tempo, 363636
1, 432720, Note_on_c, 0, 89, 0
1, 432720, Note_on_c, 0, 87, 0
1, 432720, Note_on_c, 0, 80, 37
1, 432720, Note_on_c, 0, 94, 71
1, 432840, Tempo, 364742
1, 432960, Note_on_c, 0, 94, 0
1, 432960, Note_on_c, 0, 80, 0
1, 432960, Note_on_c, 0, 89, 99
1, 432960, Note_on_c, 0, 87, 65
1, 432960, Note_on_c, 0, 27, 70
1, 432960, Note_on_c, 0, 39, 89
1, 433120, Tempo, 365854
1, 433200, Note_on_c, 0, 87, 0
1, 433200, Note_on_c, 0, 89, 0
1, 433200, Note_on_c, 0, 80, 37
1, 433200, Note_on_c, 0, 94, 72
1, 433360, Tempo, 366972
1, 433440, Note_on_c, 0, 94, 0
1, 433440, Note_on_c, 0, 80, 0
1, 433440, Note_on_c, 0, 87, 84
1, 433440, Note_on_c, 0, 89, 94
1, 433640, Tempo, 368098
1, 433680, Note_on_c, 0, 89, 0
1, 433680, Note_on_c, 0, 87, 0
1, 433680, Note_on_c, 0, 58, 0
1, 433680, Note_on_c, 0, 63, 0
1, 433680, Note_on_c, 0, 65, 0
1, 433680, Note_on_c, 0, 70, 0
1, 433680, Note_on_c, 0, 80, 37
1, 433680, Note_on_c, 0, 94, 71
1, 433701, Control_c, 0, 64, 0
1, 433920, Tempo, 369231
1, 433920, Note_on_c, 0, 94, 0
1, 433920, Note_on_c, 0, 39, 0
1, 433920, Note_on_c, 0, 27, 0
1, 433920, Note_on_c, 0, 80, 0
1, 433920, Note_on_c, 0, 89, 100
1, 433920, Note_on_c, 0, 87, 66
1, 433920, Note_on_c, 0, 58, 64
1, 433920, Note_on_c, 0, 63, 64
1, 433920, Note_on_c, 0, 65, 64
1, 433920, Note_on_c, 0, 70, 90
1, 433996, Control_c, 0, 64, 127
1, 434160, Note_on_c, 0, 87, 0
1, 434160, Note_on_c, 0, 89, 0
1, 434160, Note_on_c, 0, 80, 40
1, 434160, Note_on_c, 0, 94, 75
1, 434200, Tempo, 370370
1, 434400, Note_on_c, 0, 94, 0
1, 434400, Note_on_c, 0, 80, 0
1, 434400, Note_on_c, 0, 87, 66
1, 434400, Note_on_c, 0, 89, 99
1, 434480, Tempo, 371517
1, 434640, Note_on_c, 0, 89, 0
1, 434640, Note_on_c, 0, 87, 0
1, 434640, Note_on_c, 0, 80, 39
1, 434640, Note_on_c, 0, 94, 73
1, 434720, Tempo, 372671
1, 434880, Note_on_c, 0, 94, 0
1, 434880, Note_on_c, 0, 80, 0
1, 434880, Note_on_c, 0, 89, 103
1, 434880, Note_on_c, 0, 87, 67
1, 434880, Note_on_c, 0, 27, 72
1, 434880, Note_on_c, 0, 39, 91
1, 435000, Tempo, 373832
1, 435120, Note_on_c, 0, 87, 0
1, 435120, Note_on_c, 0, 89, 0
1, 435120, Note_on_c, 0, 80, 40
1, 435120, Note_on_c, 0, 94, 75
1, 435280, Tempo, 375000
1, 435360, Note_on_c, 0, 94, 0
1, 435360, Note_on_c, 0, 80, 0
1, 435360, Note_on_c, 0, 87, 65
1, 435360, Note_on_c, 0, 89, 97
1, 435560, Tempo, 376176
1, 435600, Note_on_c, 0, 89, 0
1, 435600, Note_on_c, 0, 87, 0
1, 435600, Note_on_c, 0, 58, 0
1, 435600, Note_on_c, 0, 63, 0
1, 435600, Note_on_c, 0, 65, 0
1, 435600, Note_on_c, 0, 70, 0
1, 435600, Note_on_c, 0, 80, 39
1, 435600, Note_on_c, 0, 94, 73
1, 435620, Control_c, 0, 64, 0
1, 435720, Tempo, 497925
1, 435800, Tempo, 375000
1, 435814, Tempo, 364742
1, 435830, Tempo, 363636
1, 435838, Note_on_c, 0, 92, 68
1, 435840, Note_on_c, 0, 94, 0
1, 435840, Note_on_c, 0, 80, 0
1, 435840, Note_on_c, 0, 39, 0
1, 435840, Note_on_c, 0, 27, 0
1, 435840, Note_on_c, 0, 104, 85
1, 435842, Tempo, 362538
1, 435876, Control_c, 0, 64, 127
1, 435958, Note_on_c, 0, 92, 0
1, 435960, Note_on_c, 0, 104, 0
1, 435960, Note_on_c, 0, 103, 80
1, 435960, Note_on_c, 0, 91, 60
1, 435962, Tempo, 361446
1, 436002, Tempo, 363636
1, 436014, Tempo, 364742
1, 436054, Tempo, 363636
1, 436070, Tempo, 360360
1, 436080, Note_on_c, 0, 91, 0
1, 436080, Note_on_c, 0, 103, 0
1, 436080, Note_on_c, 0, 101, 85
1, 436082, Tempo, 359281
1, 436083, Note_on_c, 0, 89, 64
1, 436094, Tempo, 360360
1, 436110, Tempo, 362538
1, 436122, Tempo, 363636
1, 436134, Tempo, 365854
1, 436150, Tempo, 366972
1, 436190, Tempo, 365854
1, 436198, Note_on_c, 0, 87, 59
1, 436200, Note_on_c, 0, 101, 0
1, 436200, Note_on_c, 0, 99, 78
1, 436202, Tempo, 364742
1, 436203, Note_on_c, 0, 89, 0
1, 436214, Tempo, 363636
1, 436230, Tempo, 361446
1, 436242, Tempo, 358209
1, 436282, Tempo, 359281
1, 436294, Tempo, 362538
1, 436310, Tempo, 363636
1, 436318, Note_on_c, 0, 87, 0
1, 436320, Note_on_c, 0, 99, 0
1, 436320, Note_on_c, 0, 98, 83
1, 436321, Note_on_c, 0, 86, 63
1, 436350, Tempo, 362538
1, 436374, Tempo, 361446
1, 436390, Tempo, 360360
1, 436402, Tempo, 357143
1, 436440, Note_on_c, 0, 98, 0
1, 436440, Note_on_c, 0, 96, 77
1, 436441, Note_on_c, 0, 86, 0
1, 436441, Note_on_c, 0, 84, 57
1, 436442, Tempo, 363636
1, 436454, Tempo, 364742
1, 436494, Tempo, 361446
1, 436510, Tempo, 360360
1, 436522, Tempo, 359281
1, 436550, Tempo, 358209
1, 436560, Note_on_c, 0, 96, 0
1, 436560, Note_on_c, 0, 94, 83
1, 436560, Note_on_c, 0, 82, 63
1, 436561, Note_on_c, 0, 84, 0
1, 436562, Tempo, 357143
1, 436574, Tempo, 358209
1, 436590, Tempo, 359281
1, 436602, Tempo, 360360
1, 436614, Tempo, 362538
1, 436630, Tempo, 363636
1, 436678, Note_on_c, 0, 80, 57
1, 436680, Note_on_c, 0, 82, 0
1, 436680, Note_on_c, 0, 94, 0
1, 436680, Note_on_c, 0, 92, 76
1, 436682, Tempo, 362538
1, 436710, Tempo, 360360
1, 436722, Tempo, 359281
1, 436734, Tempo, 358209
1, 436750, Tempo, 357143
1, 436762, Tempo, 356083
1, 436774, Tempo, 355030
1, 436790, Tempo, 353982
1, 436798, Note_on_c, 0, 80, 0
1, 436800, Note_on_c, 0, 92, 0
1, 436800, Note_on_c, 0, 91, 82
1, 436802, Tempo, 352941
1, 436803, Note_on_c, 0, 79, 63
1, 436814, Tempo, 355030
1, 436830, Tempo, 358209
1, 436920, Note_on_c, 0, 91, 0
1, 436920, Note_on_c, 0, 89, 79
1, 436923, Note_on_c, 0, 79, 0
1, 436923, Note_on_c, 0, 77, 57
1, 436934, Tempo, 357143
1, 436950, Tempo, 356083
1, 436962, Tempo, 355030
1, 436990, Tempo, 352941
1, 437040, Note_on_c, 0, 89, 0
1, 437040, Note_on_c, 0, 87, 81
1, 437041, Note_on_c, 0, 75, 63
1, 437042, Tempo, 355030
1, 437043, Note_on_c, 0, 77, 0
1, 437070, Tempo, 361446
1, 437122, Tempo, 360360
1, 437134, Tempo, 358209
1, 437150, Tempo, 357143
1, 437160, Note_on_c, 0, 87, 0
1, 437160, Note_on_c, 0, 86, 76
1, 437160, Note_on_c, 0, 74, 56
1, 437161, Note_on_c, 0, 75, 0
1, 437162, Tempo, 355030
1, 437174, Tempo, 353982
1, 437190, Tempo, 352941
1, 437202, Tempo, 351906
1, 437254, Tempo, 355030
1, 437280, Note_on_c, 0, 74, 0
1, 437280, Note_on_c, 0, 86, 0
1, 437280, Note_on_c, 0, 84, 81
1, 437280, Note_on_c, 0, 72, 62
1, 437294, Tempo, 356083
1, 437310, Tempo, 357143
1, 437362, Tempo, 355030
1, 437374, Tempo, 353982
1, 437400, Note_on_c, 0, 72, 0
1, 437400, Note_on_c, 0, 84, 0
1, 437400, Note_on_c, 0, 82, 76
1, 437400, Note_on_c, 0, 70, 54
1, 437402, Tempo, 351906
1, 437414, Tempo, 350877
1, 437442, Tempo, 351906
1, 437470, Tempo, 353982
1, 437482, Tempo, 355030
1, 437510, Tempo, 356083
1, 437520, Note_on_c, 0, 70, 0
1, 437520, Note_on_c, 0, 82, 0
1, 437520, Note_on_c, 0, 80, 80
1, 437523, Note_on_c, 0, 68, 62
1, 437562, Tempo, 355030
1, 437574, Tempo, 353982
1, 437590, Tempo, 351906
1, 437602, Tempo, 350877
1, 437614, Tempo, 349854
1, 437630, Tempo, 348837
1, 437639, Note_on_c, 0, 67, 54
1, 437640, Note_on_c, 0, 80, 0
1, 437640, Note_on_c, 0, 79, 75
1, 437642, Tempo, 347826
1, 437643, Note_on_c, 0, 68, 0
1, 437654, Tempo, 346821
1, 437670, Tempo, 347826
1, 437682, Tempo, 350877
1, 437722, Tempo, 351906
1, 437734, Tempo, 353982
1, 437759, Note_on_c, 0, 67, 0
1, 437760, Note_on_c, 0, 79, 0
1, 437760, Note_on_c, 0, 77, 79
1, 437760, Note_on_c, 0, 65, 61
1, 437814, Tempo, 352941
1, 437830, Tempo, 351906
1, 437842, Tempo, 349854
1, 437854, Tempo, 347826
1, 437879, Note_on_c, 0, 63, 54
1, 437880, Note_on_c, 0, 65, 0
1, 437880, Note_on_c, 0, 77, 0
1, 437880, Note_on_c, 0, 75, 73
1, 437894, Tempo, 348837
1, 437922, Tempo, 349854
1, 437934, Tempo, 350877
1, 437950, Tempo, 352941
1, 437999, Note_on_c, 0, 63, 0
1, 438000, Note_on_c, 0, 75, 0
1, 438000, Note_on_c, 0, 74, 79
1, 438002, Tempo, 351906
1, 438003, Note_on_c, 0, 62, 61
1, 438014, Tempo, 349854
1, 438042, Tempo, 347826
1, 438054, Tempo, 346821
1, 438070, Tempo, 347826
1, 438094, Tempo, 348837
1, 438110, Tempo, 349854
1, 438119, Note_on_c, 0, 60, 54
1, 438120, Note_on_c, 0, 74, 0
1, 438120, Note_on_c, 0, 72, 75
1, 438123, Note_on_c, 0, 62, 0
1, 438162, Tempo, 347826
1, 438174, Tempo, 346821
1, 438202, Tempo, 344828
1, 438214, Tempo, 343840
1, 438230, Tempo, 342857
1, 438239, Note_on_c, 0, 60, 0
1, 438240, Note_on_c, 0, 72, 0
1, 438240, Note_on_c, 0, 70, 79
1, 438242, Note_on_c, 0, 58, 61
1, 438282, Tempo, 344828
1, 438294, Tempo, 345821
1, 438310, Tempo, 346821
1, 438322, Tempo, 348837
1, 438360, Note_on_c, 0, 70, 0
1, 438360, Note_on_c, 0, 68, 73
1, 438361, Note_on_c, 0, 56, 54
1, 438362, Note_on_c, 0, 58, 0
1, 438414, Tempo, 346821
1, 438430, Tempo, 344828
1, 438442, Tempo, 343840
1, 438479, Note_on_c, 0, 55, 61
1, 438480, Note_on_c, 0, 68, 0
1, 438480, Note_on_c, 0, 67, 79
1, 438481, Note_on_c, 0, 56, 0
1, 438494, Tempo, 344828
1, 438522, Tempo, 345821
1, 438534, Tempo, 346821
1, 438599, Note_on_c, 0, 55, 0
1, 438600, Note_on_c, 0, 67, 0
1, 438600, Note_on_c, 0, 65, 72
1, 438602, Tempo, 345821
1, 438602, Note_on_c, 0, 53, 54
1, 438614, Tempo, 344828
1, 438630, Tempo, 343840
1, 438642, Tempo, 342857
1, 438654, Tempo, 340909
1, 438710, Tempo, 342857
1, 438720, Note_on_c, 0, 65, 0
1, 438720, Note_on_c, 0, 63, 79
1, 438722, Tempo, 344828
1, 438722, Note_on_c, 0, 53, 0
1, 438723, Note_on_c, 0, 51, 61
1, 438750, Tempo, 345821
1, 438762, Tempo, 346821
1, 438774, Tempo, 347826
1, 438814, Tempo, 346821
1, 438830, Tempo, 345821
1, 438840, Note_on_c, 0, 63, 0
1, 438840, Note_on_c, 0, 62, 73
1, 438840, Note_on_c, 0, 50, 54
1, 438842, Tempo, 344828
1, 438843, Note_on_c, 0, 51, 0
1, 438870, Tempo, 343840
1, 438894, Tempo, 342857
1, 438910, Tempo, 341880
1, 438934, Tempo, 340909
1, 438960, Note_on_c, 0, 50, 0
1, 438960, Note_on_c, 0, 62, 0
1, 438960, Note_on_c, 0, 60, 78
1, 438961, Note_on_c, 0, 48, 61
1, 438974, Tempo, 342857
1, 438990, Tempo, 343840
1, 439002, Tempo, 344828
1, 439080, Note_on_c, 0, 60, 0
1, 439080, Note_on_c, 0, 58, 73
1, 439081, Note_on_c, 0, 48, 0
1, 439083, Note_on_c, 0, 46, 54
1, 439094, Tempo, 342857
1, 439110, Tempo, 341880
1, 439122, Tempo, 340909
1, 439134, Tempo, 339943
1, 439198, Note_on_c, 0, 44, 57
1, 439200, Note_on_c, 0, 58, 0
1, 439200, Note_on_c, 0, 56, 77
1, 439203, Note_on_c, 0, 46, 0
1, 439254, Tempo, 340909
1, 439282, Tempo, 341880
1, 439310, Tempo, 342857
1, 439318, Note_on_c, 0, 44, 0
1, 439320, Note_on_c, 0, 56, 0
1, 439320, Note_on_c, 0, 55, 72
1, 439323, Note_on_c, 0, 43, 53
1, 439362, Tempo, 341880
1, 439374, Tempo, 340909
1, 439390, Tempo, 338983
1, 439440, Note_on_c, 0, 55, 0
1, 439440, Note_on_c, 0, 53, 79
1, 439441, Note_on_c, 0, 41, 59
1, 439442, Tempo, 341880
1, 439443, Note_on_c, 0, 43, 0
1, 439522, Tempo, 338983
1, 439534, Tempo, 337079
1, 439550, Tempo, 336134
1, 439558, Note_on_c, 0, 39, 59
1, 439560, Note_on_c, 0, 53, 0
1, 439560, Note_on_c, 0, 51, 73
1, 439561, Note_on_c, 0, 41, 0
1, 439602, Tempo, 338028
1, 439630, Tempo, 338983
1, 439642, Tempo, 340909
1, 439678, Note_on_c, 0, 39, 0
1, 439680, Time_signature, 5, 2, 24, 8
1, 439680, Note_on_c, 0, 51, 0
1, 439680, Note_on_c, 0, 50, 78
1, 439681, Note_on_c, 0, 38, 61
1, 439694, Tempo, 339943
1, 439710, Tempo, 338983
1, 439734, Tempo, 338028
1, 439750, Tempo, 337079
1, 439762, Tempo, 336134
1, 439790, Tempo, 335196
1, 439800, Note_on_c, 0, 50, 0
1, 439800, Note_on_c, 0, 48, 73
1, 439801, Note_on_c, 0, 38, 0
1, 439801, Note_on_c, 0, 36, 54
1, 439882, Tempo, 337079
1, 439910, Tempo, 338028
1, 439920, Note_on_c, 0, 48, 0
1, 439920, Note_on_c, 0, 46, 79
1, 439921, Note_on_c, 0, 36, 0
1, 439921, Note_on_c, 0, 34, 62
1, 439922, Tempo, 338983
1, 439962, Tempo, 338028
1, 439974, Tempo, 337079
1, 439990, Tempo, 336134
1, 440002, Tempo, 335196
1, 440030, Tempo, 334262
1, 440039, Note_on_c, 0, 32, 57
1, 440040, Note_on_c, 0, 46, 0
1, 440040, Note_on_c, 0, 44, 75
1, 440041, Note_on_c, 0, 34, 0
1, 440042, Tempo, 333333
1, 440054, Tempo, 332410
1, 440070, Tempo, 331492
1, 440094, Tempo, 331492
1, 440122, Tempo, 330579
1, 440134, Tempo, 329670
1, 440159, Note_on_c, 0, 32, 0
1, 440160, Note_on_c, 0, 44, 0
1, 440160, Note_on_c, 0, 43, 80
1, 440163, Note_on_c, 0, 31, 63
1, 440214, Tempo, 330579
1, 440230, Tempo, 332410
1, 440242, Tempo, 336134
1, 440278, Note_on_c, 0, 29, 54
1, 440280, Note_on_c, 0, 43, 0
1, 440280, Note_on_c, 0, 41, 76
1, 440282, Tempo, 335196
1, 440283, Note_on_c, 0, 31, 0
1, 440310, Tempo, 334262
1, 440322, Tempo, 333333
1, 440350, Tempo, 332410
1, 440398, Note_on_c, 0, 29, 0
1, 440398, Note_on_c, 0, 27, 63
1, 440400, Note_on_c, 0, 41, 0
1, 440400, Note_on_c, 0, 39, 82
1, 440402, Tempo, 333333
1, 440414, Tempo, 337079
1, 440430, Tempo, 338983
1, 440454, Tempo, 340909
1, 440470, Tempo, 341880
1, 440494, Tempo, 340909
1, 440510, Tempo, 338028
1, 440518, Note_on_c, 0, 27, 0
1, 440520, Note_on_c, 0, 39, 0
1, 440520, Note_on_c, 0, 38, 76
1, 440522, Tempo, 335196
1, 440522, Note_on_c, 0, 26, 63
1, 440562, Tempo, 334262
1, 440602, Tempo, 336134
1, 440614, Tempo, 338028
1, 440630, Tempo, 339943
1, 440639, Note_on_c, 0, 24, 57
1, 440640, Note_on_c, 0, 38, 0
1, 440640, Note_on_c, 0, 36, 83
1, 440642, Tempo, 340909
1, 440642, Note_on_c, 0, 26, 0
1, 440670, Tempo, 341880
1, 440682, Tempo, 342857
1, 440734, Tempo, 341880
1, 440750, Tempo, 338983
1, 440759, Note_on_c, 0, 24, 0
1, 440760, Note_on_c, 0, 36, 0
1, 440760, Note_on_c, 0, 34, 78
1, 440762, Tempo, 338028
1, 440774, Tempo, 337079
1, 440830, Tempo, 338028
1, 440842, Tempo, 339943
1, 440854, Tempo, 343840
1, 440870, Tempo, 345821
1, 440880, Note_on_c, 0, 34, 0
1, 440880, Note_on_c, 0, 32, 85
1, 440882, Tempo, 346821
1, 440910, Tempo, 345821
1, 440922, Tempo, 344828
1, 440934, Tempo, 343840
1, 440950, Tempo, 340909
1, 441000, Note_on_c, 0, 32, 0
1, 441000, Note_on_c, 0, 31, 78
1, 441042, Tempo, 343840
1, 441054, Tempo, 346821
1, 441070, Tempo, 347826
1, 441094, Tempo, 348837
1, 441110, Tempo, 349854
1, 441120, Note_on_c, 0, 31, 0
1, 441120, Note_on_c, 0, 29, 86
1, 441122, Tempo, 347826
1, 441134, Tempo, 346821
1, 441150, Tempo, 345821
1, 441214, Tempo, 346821
1, 441230, Tempo, 347826
1, 441240, Note_on_c, 0, 29, 0
1, 441240, Note_on_c, 0, 27, 81
1, 441242, Tempo, 348837
1, 441254, Tempo, 350877
1, 441360, Note_on_c, 0, 27, 0
1, 441360, Note_on_c, 0, 26, 87
1, 441390, Tempo, 351906
1, 441450, Tempo, 352941
1, 441480, Tempo, 4000000
1, 441480, Note_on_c, 0, 26, 0
1, 441480, Note_on_c, 0, 24, 83
1, 441600, Tempo, 857143
1, 441840, Note_on_c, 0, 24, 0
1, 441861, Control_c, 0, 64, 0
1, 442080, Time_signature, 2, 2, 24, 8
1, 442080, Tempo, 539326
1, 442080, Marker_t, "Meno mosso, sempre maestoso"
1, 442080, Note_on_c, 0, 87, 102
1, 442080, Note_on_c, 0, 82, 100
1, 442080, Note_on_c, 0, 79, 85
1, 442080, Note_on_c, 0, 75, 85
1, 442080, Note_on_c, 0, 31, 65
1, 442080, Note_on_c, 0, 34, 65
1, 442080, Note_on_c, 0, 39, 80
1, 442080, Note_on_c, 0, 43, 80
1, 442151, Control_c, 0, 64, 127
1, 442397, Note_on_c, 0, 43, 0
1, 442397, Note_on_c, 0, 87, 0
1, 442397, Note_on_c, 0, 31, 0
1, 442397, Note_on_c, 0, 82, 0
1, 442397, Note_on_c, 0, 79, 0
1, 442397, Note_on_c, 0, 75, 0
1, 442397, Note_on_c, 0, 34, 0
1, 442397, Note_on_c, 0, 39, 0
1, 442400, Tempo, 487845
1, 442400, Note_on_c, 0, 63, 79
1, 442400, Note_on_c, 0, 58, 66
1, 442400, Note_on_c, 0, 51, 64
1, 442400, Note_on_c, 0, 55, 73
1, 442560, Tempo, 489836
1, 442717, Note_on_c, 0, 55, 0
1, 442717, Note_on_c, 0, 63, 0
1, 442717, Note_on_c, 0, 58, 0
1, 442717, Note_on_c, 0, 51, 0
1, 442720, Tempo, 476228
1, 442720, Note_on_c, 0, 87, 89
1, 442720, Note_on_c, 0, 82, 89
1, 442720, Note_on_c, 0, 79, 73
1, 442720, Note_on_c, 0, 75, 73
1, 442720, Note_on_c, 0, 31, 69
1, 442720, Note_on_c, 0, 43, 82
1, 443037, Note_on_c, 0, 43, 0
1, 443037, Note_on_c, 0, 82, 0
1, 443037, Note_on_c, 0, 79, 0
1, 443037, Note_on_c, 0, 87, 0
1, 443037, Note_on_c, 0, 31, 0
1, 443037, Note_on_c, 0, 75, 0
1, 443040, Tempo, 478050
1, 443040, Note_on_c, 0, 63, 71
1, 443040, Note_on_c, 0, 58, 59
1, 443040, Note_on_c, 0, 51, 53
1, 443040, Note_on_c, 0, 55, 65
1, 443200, Tempo, 497925
1, 443280, Tempo, 493827
1, 443357, Note_on_c, 0, 55, 0
1, 443357, Note_on_c, 0, 63, 0
1, 443357, Note_on_c, 0, 58, 0
1, 443357, Note_on_c, 0, 51, 0
1, 443360, Tempo, 476228
1, 443360, Note_on_c, 0, 87, 90
1, 443360, Note_on_c, 0, 82, 90
1, 443360, Note_on_c, 0, 79, 73
1, 443360, Note_on_c, 0, 75, 73
1, 443360, Note_on_c, 0, 31, 66
1, 443360, Note_on_c, 0, 34, 66
1, 443360, Note_on_c, 0, 39, 79
1, 443360, Note_on_c, 0, 43, 79
1, 443520, Tempo, 485791
1, 443677, Note_on_c, 0, 43, 0
1, 443677, Note_on_c, 0, 87, 0
1, 443677, Note_on_c, 0, 31, 0
1, 443677, Note_on_c, 0, 82, 0
1, 443677, Note_on_c, 0, 79, 0
1, 443677, Note_on_c, 0, 75, 0
1, 443677, Note_on_c, 0, 34, 0
1, 443677, Note_on_c, 0, 39, 0
1, 443680, Tempo, 540589
1, 443680, Note_on_c, 0, 63, 70
1, 443680, Note_on_c, 0, 58, 57
1, 443680, Note_on_c, 0, 51, 54
1, 443680, Note_on_c, 0, 55, 67
1, 443760, Tempo, 533381
1, 443997, Note_on_c, 0, 55, 0
1, 443997, Note_on_c, 0, 63, 0
1, 443997, Note_on_c, 0, 58, 0
1, 443997, Note_on_c, 0, 51, 0
1, 444000, Tempo, 476153
1, 444000, Note_on_c, 0, 89, 98
1, 444000, Note_on_c, 0, 86, 98
1, 444000, Note_on_c, 0, 82, 84
1, 444000, Note_on_c, 0, 77, 84
1, 444000, Note_on_c, 0, 29, 63
1, 444000, Note_on_c, 0, 34, 63
1, 444000, Note_on_c, 0, 38, 63
1, 444000, Note_on_c, 0, 41, 78
1, 444011, Control_c, 0, 64, 0
1, 444141, Control_c, 0, 64, 127
1, 444240, Tempo, 489796
1, 444317, Note_on_c, 0, 41, 0
1, 444317, Note_on_c, 0, 89, 0
1, 444317, Note_on_c, 0, 29, 0
1, 444317, Note_on_c, 0, 86, 0
1, 444317, Note_on_c, 0, 82, 0
1, 444317, Note_on_c, 0, 77, 0
1, 444317, Note_on_c, 0, 34, 0
1, 444317, Note_on_c, 0, 38, 0
1, 444320, Tempo, 481966
1, 444320, Note_on_c, 0, 65, 72
1, 444320, Note_on_c, 0, 62, 62
1, 444320, Note_on_c, 0, 58, 63
1, 444320, Note_on_c, 0, 50, 50
1, 444320, Note_on_c, 0, 53, 50
1, 444637, Note_on_c, 0, 53, 0
1, 444637, Note_on_c, 0, 58, 0
1, 444637, Note_on_c, 0, 65, 0
1, 444637, Note_on_c, 0, 62, 0
1, 444637, Note_on_c, 0, 50, 0
1, 444640, Tempo, 461574
1, 444640, Note_on_c, 0, 89, 89
1, 444640, Note_on_c, 0, 86, 89
1, 444640, Note_on_c, 0, 82, 72
1, 444640, Note_on_c, 0, 77, 72
1, 444640, Note_on_c, 0, 29, 61
1, 444640, Note_on_c, 0, 41, 72
1, 444957, Note_on_c, 0, 41, 0
1, 444957, Note_on_c, 0, 86, 0
1, 444957, Note_on_c, 0, 82, 0
1, 444957, Note_on_c, 0, 89, 0
1, 444957, Note_on_c, 0, 29, 0
1, 444957, Note_on_c, 0, 77, 0
1, 444960, Tempo, 478126
1, 444960, Note_on_c, 0, 65, 71
1, 444960, Note_on_c, 0, 62, 59
1, 444960, Note_on_c, 0, 58, 65
1, 444960, Note_on_c, 0, 50, 52
1, 444960, Note_on_c, 0, 53, 65
1, 445277, Note_on_c, 0, 53, 0
1, 445277, Note_on_c, 0, 58, 0
1, 445277, Note_on_c, 0, 65, 0
1, 445277, Note_on_c, 0, 62, 0
1, 445277, Note_on_c, 0, 50, 0
1, 445280, Tempo, 470588
1, 445280, Note_on_c, 0, 89, 88
1, 445280, Note_on_c, 0, 86, 88
1, 445280, Note_on_c, 0, 82, 72
1, 445280, Note_on_c, 0, 77, 72
1, 445280, Note_on_c, 0, 29, 59
1, 445280, Note_on_c, 0, 34, 59
1, 445280, Note_on_c, 0, 38, 70
1, 445280, Note_on_c, 0, 41, 70
1, 445597, Note_on_c, 0, 41, 0
1, 445597, Note_on_c, 0, 89, 0
1, 445597, Note_on_c, 0, 29, 0
1, 445597, Note_on_c, 0, 86, 0
1, 445597, Note_on_c, 0, 82, 0
1, 445597, Note_on_c, 0, 77, 0
1, 445597, Note_on_c, 0, 34, 0
1, 445597, Note_on_c, 0, 38, 0
1, 445600, Tempo, 524063
1, 445600, Note_on_c, 0, 65, 70
1, 445600, Note_on_c, 0, 62, 58
1, 445600, Note_on_c, 0, 58, 65
1, 445600, Note_on_c, 0, 50, 54
1, 445600, Note_on_c, 0, 53, 54
1, 445917, Note_on_c, 0, 53, 0
1, 445917, Note_on_c, 0, 58, 0
1, 445917, Note_on_c, 0, 65, 0
1, 445917, Note_on_c, 0, 62, 0
1, 445917, Note_on_c, 0, 50, 0
1, 445920, Tempo, 510943
1, 445920, Note_on_c, 0, 91, 99
1, 445920, Note_on_c, 0, 87, 99
1, 445920, Note_on_c, 0, 82, 84
1, 445920, Note_on_c, 0, 79, 84
1, 445920, Note_on_c, 0, 27, 63
1, 445920, Note_on_c, 0, 31, 63
1, 445920, Note_on_c, 0, 34, 77
1, 445920, Note_on_c, 0, 39, 77
1, 445930, Control_c, 0, 64, 0
1, 446118, Control_c, 0, 64, 127
1, 446237, Note_on_c, 0, 39, 0
1, 446237, Note_on_c, 0, 91, 0
1, 446237, Note_on_c, 0, 27, 0
1, 446237, Note_on_c, 0, 87, 0
1, 446237, Note_on_c, 0, 82, 0
1, 446237, Note_on_c, 0, 79, 0
1, 446237, Note_on_c, 0, 31, 0
1, 446237, Note_on_c, 0, 34, 0
1, 446240, Tempo, 491039
1, 446240, Note_on_c, 0, 67, 68
1, 446240, Note_on_c, 0, 75, 80
1, 446240, Note_on_c, 0, 70, 80
1, 446240, Note_on_c, 0, 63, 69
1, 446240, Note_on_c, 0, 55, 56
1, 446240, Note_on_c, 0, 58, 56
1, 446557, Note_on_c, 0, 58, 0
1, 446557, Note_on_c, 0, 75, 0
1, 446557, Note_on_c, 0, 70, 0
1, 446557, Note_on_c, 0, 67, 0
1, 446557, Note_on_c, 0, 55, 0
1, 446557, Note_on_c, 0, 63, 0
1, 446560, Tempo, 479846
1, 446560, Note_on_c, 0, 91, 92
1, 446560, Note_on_c, 0, 87, 92
1, 446560, Note_on_c, 0, 82, 77
1, 446560, Note_on_c, 0, 79, 77
1, 446560, Note_on_c, 0, 27, 72
1, 446560, Note_on_c, 0, 39, 86
1, 446877, Note_on_c, 0, 39, 0
1, 446877, Note_on_c, 0, 87, 0
1, 446877, Note_on_c, 0, 82, 0
1, 446877, Note_on_c, 0, 91, 0
1, 446877, Note_on_c, 0, 27, 0
1, 446877, Note_on_c, 0, 79, 0
1, 446880, Tempo, 492975
1, 446880, Note_on_c, 0, 87, 91
1, 446880, Note_on_c, 0, 84, 91
1, 446880, Note_on_c, 0, 79, 76
1, 446880, Note_on_c, 0, 75, 76
1, 446880, Note_on_c, 0, 48, 81
1, 446880, Note_on_c, 0, 43, 81
1, 446880, Note_on_c, 0, 36, 69
1, 446880, Note_on_c, 0, 39, 69
1, 447197, Note_on_c, 0, 39, 0
1, 447197, Note_on_c, 0, 87, 0
1, 447197, Note_on_c, 0, 48, 0
1, 447197, Note_on_c, 0, 84, 0
1, 447197, Note_on_c, 0, 79, 0
1, 447197, Note_on_c, 0, 75, 0
1, 447197, Note_on_c, 0, 43, 0
1, 447197, Note_on_c, 0, 36, 0
1, 447200, Note_on_c, 0, 72, 80
1, 447200, Note_on_c, 0, 67, 68
1, 447200, Note_on_c, 0, 63, 68
1, 447200, Note_on_c, 0, 60, 69
1, 447200, Note_on_c, 0, 51, 56
1, 447200, Note_on_c, 0, 55, 56
1, 447517, Note_on_c, 0, 55, 0
1, 447517, Note_on_c, 0, 67, 0
1, 447517, Note_on_c, 0, 63, 0
1, 447517, Note_on_c, 0, 72, 0
1, 447517, Note_on_c, 0, 51, 0
1, 447517, Note_on_c, 0, 60, 0
1, 447520, Note_on_c, 0, 87, 87
1, 447520, Note_on_c, 0, 84, 72
1, 447520, Note_on_c, 0, 91, 87
1, 447520, Note_on_c, 0, 79, 72
1, 447520, Note_on_c, 0, 39, 56
1, 447520, Note_on_c, 0, 51, 71
1, 447837, Note_on_c, 0, 51, 0
1, 447837, Note_on_c, 0, 84, 0
1, 447837, Note_on_c, 0, 91, 0
1, 447837, Note_on_c, 0, 87, 0
1, 447837, Note_on_c, 0, 39, 0
1, 447837, Note_on_c, 0, 79, 0
1, 447840, Note_on_c, 0, 89, 87
1, 447840, Note_on_c, 0, 86, 87
1, 447840, Note_on_c, 0, 82, 72
1, 447840, Note_on_c, 0, 77, 72
1, 447840, Note_on_c, 0, 50, 76
1, 447840, Note_on_c, 0, 46, 76
1, 447840, Note_on_c, 0, 38, 65
1, 447840, Note_on_c, 0, 41, 65
1, 447854, Control_c, 0, 64, 0
1, 447967, Control_c, 0, 64, 127
1, 448157, Note_on_c, 0, 41, 0
1, 448157, Note_on_c, 0, 89, 0
1, 448157, Note_on_c, 0, 50, 0
1, 448157, Note_on_c, 0, 86, 0
1, 448157, Note_on_c, 0, 82, 0
1, 448157, Note_on_c, 0, 77, 0
1, 448157, Note_on_c, 0, 46, 0
1, 448157, Note_on_c, 0, 38, 0
1, 448160, Tempo, 481696
1, 448160, Note_on_c, 0, 58, 79
1, 448160, Note_on_c, 0, 62, 79
1, 448160, Note_on_c, 0, 50, 63
1, 448160, Note_on_c, 0, 53, 63
1, 448186, Control_c, 0, 64, 0
1, 448334, Control_c, 0, 64, 127
1, 448474, Note_on_c, 0, 53, 0
1, 448474, Note_on_c, 0, 58, 0
1, 448474, Note_on_c, 0, 62, 0
1, 448474, Note_on_c, 0, 50, 0
1, 448480, Tempo, 479846
1, 448480, Note_on_c, 0, 65, 81
1, 448480, Note_on_c, 0, 62, 81
1, 448480, Note_on_c, 0, 53, 64
1, 448480, Note_on_c, 0, 58, 64
1, 448794, Note_on_c, 0, 58, 0
1, 448794, Note_on_c, 0, 65, 0
1, 448794, Note_on_c, 0, 62, 0
1, 448794, Note_on_c, 0, 53, 0
1, 448800, Tempo, 478050
1, 448800, Note_on_c, 0, 65, 83
1, 448800, Note_on_c, 0, 70, 83
1, 448800, Note_on_c, 0, 58, 67
1, 448800, Note_on_c, 0, 62, 67
1, 449114, Note_on_c, 0, 62, 0
1, 449114, Note_on_c, 0, 65, 0
1, 449114, Note_on_c, 0, 70, 0
1, 449114, Note_on_c, 0, 58, 0
1, 449120, Tempo, 476228
1, 449120, Note_on_c, 0, 74, 87
1, 449120, Note_on_c, 0, 70, 87
1, 449120, Note_on_c, 0, 65, 68
1, 449120, Note_on_c, 0, 62, 68
1, 449434, Note_on_c, 0, 62, 0
1, 449434, Note_on_c, 0, 74, 0
1, 449434, Note_on_c, 0, 70, 0
1, 449434, Note_on_c, 0, 65, 0
1, 449440, Tempo, 474458
1, 449440, Note_on_c, 0, 74, 90
1, 449440, Note_on_c, 0, 77, 90
1, 449440, Note_on_c, 0, 65, 70
1, 449440, Note_on_c, 0, 70, 70
1, 449720, Tempo, 472664
1, 449754, Note_on_c, 0, 70, 0
1, 449754, Note_on_c, 0, 74, 0
1, 449754, Note_on_c, 0, 77, 0
1, 449754, Note_on_c, 0, 65, 0
1, 449760, Tempo, 500793
1, 449760, Note_on_c, 0, 67, 80
1, 449760, Note_on_c, 0, 75, 95
1, 449760, Note_on_c, 0, 79, 95
1, 449760, Note_on_c, 0, 39, 65
1, 449760, Note_on_c, 0, 46, 77
1, 449760, Note_on_c, 0, 51, 77
1, 449770, Control_c, 0, 64, 0
1, 449974, Control_c, 0, 64, 127
1, 450235, Note_on_c, 0, 51, 0
1, 450235, Note_on_c, 0, 75, 0
1, 450235, Note_on_c, 0, 79, 0
1, 450235, Note_on_c, 0, 67, 0
1, 450235, Note_on_c, 0, 46, 0
1, 450235, Note_on_c, 0, 39, 0
1, 450240, Note_on_c, 0, 70, 75
1, 450240, Note_on_c, 0, 75, 90
1, 450240, Note_on_c, 0, 82, 90
1, 450240, Note_on_c, 0, 43, 57
1, 450240, Note_on_c, 0, 51, 70
1, 450240, Note_on_c, 0, 55, 70
1, 450715, Note_on_c, 0, 55, 0
1, 450715, Note_on_c, 0, 75, 0
1, 450715, Note_on_c, 0, 82, 0
1, 450715, Note_on_c, 0, 70, 0
1, 450715, Note_on_c, 0, 51, 0
1, 450715, Note_on_c, 0, 43, 0
1, 450720, Tempo, 492975
1, 450720, Note_on_c, 0, 65, 73
1, 450720, Note_on_c, 0, 70, 89
1, 450720, Note_on_c, 0, 77, 89
1, 450720, Note_on_c, 0, 38, 54
1, 450720, Note_on_c, 0, 50, 66
1, 450720, Note_on_c, 0, 43, 66
1, 450733, Control_c, 0, 64, 0
1, 450907, Control_c, 0, 64, 127
1, 451195, Note_on_c, 0, 43, 0
1, 451195, Note_on_c, 0, 70, 0
1, 451195, Note_on_c, 0, 77, 0
1, 451195, Note_on_c, 0, 65, 0
1, 451195, Note_on_c, 0, 50, 0
1, 451195, Note_on_c, 0, 38, 0
1, 451200, Tempo, 500793
1, 451200, Note_on_c, 0, 63, 72
1, 451200, Note_on_c, 0, 70, 85
1, 451200, Note_on_c, 0, 75, 85
1, 451200, Note_on_c, 0, 36, 51
1, 451200, Note_on_c, 0, 43, 72
1, 451200, Note_on_c, 0, 48, 72
1, 451214, Control_c, 0, 64, 0
1, 451440, Control_c, 0, 64, 127
1, 451675, Note_on_c, 0, 48, 0
1, 451675, Note_on_c, 0, 70, 0
1, 451675, Note_on_c, 0, 75, 0
1, 451675, Note_on_c, 0, 63, 0
1, 451675, Note_on_c, 0, 43, 0
1, 451675, Note_on_c, 0, 36, 0
1, 451680, Note_on_c, 0, 74, 87
1, 451680, Note_on_c, 0, 70, 87
1, 451680, Note_on_c, 0, 62, 72
1, 451680, Note_on_c, 0, 46, 75
1, 451680, Note_on_c, 0, 34, 65
1, 451680, Note_on_c, 0, 43, 75
1, 451689, Control_c, 0, 64, 0
1, 451793, Control_c, 0, 64, 127
1, 451997, Note_on_c, 0, 43, 0
1, 451997, Note_on_c, 0, 70, 0
1, 451997, Note_on_c, 0, 62, 0
1, 451997, Note_on_c, 0, 74, 0
1, 451997, Note_on_c, 0, 34, 0
1, 451997, Note_on_c, 0, 46, 0
1, 452000, Tempo, 481696
1, 452000, Note_on_c, 0, 58, 79
1, 452000, Note_on_c, 0, 62, 79
1, 452000, Note_on_c, 0, 50, 63
1, 452000, Note_on_c, 0, 53, 63
1, 452005, Control_c, 0, 64, 0
1, 452132, Control_c, 0, 64, 127
1, 452317, Note_on_c, 0, 53, 0
1, 452317, Note_on_c, 0, 58, 0
1, 452317, Note_on_c, 0, 62, 0
1, 452317, Note_on_c, 0, 50, 0
1, 452320, Tempo, 479846
1, 452320, Note_on_c, 0, 65, 81
1, 452320, Note_on_c, 0, 62, 81
1, 452320, Note_on_c, 0, 53, 64
1, 452320, Note_on_c, 0, 58, 64
1, 452634, Note_on_c, 0, 58, 0
1, 452634, Note_on_c, 0, 65, 0
1, 452634, Note_on_c, 0, 62, 0
1, 452634, Note_on_c, 0, 53, 0
1, 452640, Tempo, 478050
1, 452640, Note_on_c, 0, 65, 83
1, 452640, Note_on_c, 0, 70, 83
1, 452640, Note_on_c, 0, 58, 67
1, 452640, Note_on_c, 0, 62, 67
1, 452954, Note_on_c, 0, 62, 0
1, 452954, Note_on_c, 0, 65, 0
1, 452954, Note_on_c, 0, 70, 0
1, 452954, Note_on_c, 0, 58, 0
1, 452960, Tempo, 476228
1, 452960, Note_on_c, 0, 74, 87
1, 452960, Note_on_c, 0, 70, 87
1, 452960, Note_on_c, 0, 65, 68
1, 452960, Note_on_c, 0, 62, 68
1, 453274, Note_on_c, 0, 62, 0
1, 453274, Note_on_c, 0, 74, 0
1, 453274, Note_on_c, 0, 70, 0
1, 453274, Note_on_c, 0, 65, 0
1, 453280, Tempo, 474458
1, 453280, Note_on_c, 0, 74, 90
1, 453280, Note_on_c, 0, 77, 90
1, 453280, Note_on_c, 0, 65, 70
1, 453280, Note_on_c, 0, 70, 70
1, 453560, Tempo, 472664
1, 453594, Note_on_c, 0, 70, 0
1, 453594, Note_on_c, 0, 74, 0
1, 453594, Note_on_c, 0, 77, 0
1, 453594, Note_on_c, 0, 65, 0
1, 453600, Tempo, 500793
1, 453600, Note_on_c, 0, 67, 80
1, 453600, Note_on_c, 0, 75, 95
1, 453600, Note_on_c, 0, 79, 95
1, 453600, Note_on_c, 0, 39, 65
1, 453600, Note_on_c, 0, 46, 77
1, 453600, Note_on_c, 0, 51, 77
1, 453613, Control_c, 0, 64, 0
1, 453787, Control_c, 0, 64, 127
1, 454075, Note_on_c, 0, 51, 0
1, 454075, Note_on_c, 0, 75, 0
1, 454075, Note_on_c, 0, 79, 0
1, 454075, Note_on_c, 0, 67, 0
1, 454075, Note_on_c, 0, 46, 0
1, 454075, Note_on_c, 0, 39, 0
1, 454080, Note_on_c, 0, 70, 75
1, 454080, Note_on_c, 0, 75, 90
1, 454080, Note_on_c, 0, 82, 90
1, 454080, Note_on_c, 0, 43, 57
1, 454080, Note_on_c, 0, 51, 70
1, 454080, Note_on_c, 0, 55, 70
1, 454555, Note_on_c, 0, 55, 0
1, 454555, Note_on_c, 0, 75, 0
1, 454555, Note_on_c, 0, 82, 0
1, 454555, Note_on_c, 0, 70, 0
1, 454555, Note_on_c, 0, 51, 0
1, 454555, Note_on_c, 0, 43, 0
1, 454560, Tempo, 492975
1, 454560, Note_on_c, 0, 65, 73
1, 454560, Note_on_c, 0, 70, 89
1, 454560, Note_on_c, 0, 77, 89
1, 454560, Note_on_c, 0, 38, 54
1, 454560, Note_on_c, 0, 50, 66
1, 454560, Note_on_c, 0, 43, 66
1, 454572, Control_c, 0, 64, 0
1, 454720, Control_c, 0, 64, 127
1, 455035, Note_on_c, 0, 43, 0
1, 455035, Note_on_c, 0, 70, 0
1, 455035, Note_on_c, 0, 77, 0
1, 455035, Note_on_c, 0, 65, 0
1, 455035, Note_on_c, 0, 50, 0
1, 455035, Note_on_c, 0, 38, 0
1, 455040, Tempo, 500793
1, 455040, Note_on_c, 0, 63, 61
1, 455040, Note_on_c, 0, 70, 85
1, 455040, Note_on_c, 0, 75, 85
1, 455040, Note_on_c, 0, 36, 51
1, 455040, Note_on_c, 0, 43, 72
1, 455040, Note_on_c, 0, 48, 72
1, 455054, Control_c, 0, 64, 0
1, 455280, Control_c, 0, 64, 127
1, 455515, Note_on_c, 0, 48, 0
1, 455515, Note_on_c, 0, 70, 0
1, 455515, Note_on_c, 0, 75, 0
1, 455515, Note_on_c, 0, 63, 0
1, 455515, Note_on_c, 0, 43, 0
1, 455515, Note_on_c, 0, 36, 0
1, 455520, Note_on_c, 0, 74, 87
1, 455520, Note_on_c, 0, 70, 87
1, 455520, Note_on_c, 0, 62, 72
1, 455520, Note_on_c, 0, 46, 75
1, 455520, Note_on_c, 0, 34, 65
1, 455520, Note_on_c, 0, 43, 75
1, 455532, Control_c, 0, 64, 0
1, 455647, Control_c, 0, 64, 127
1, 455837, Note_on_c, 0, 43, 0
1, 455837, Note_on_c, 0, 70, 0
1, 455837, Note_on_c, 0, 62, 0
1, 455837, Note_on_c, 0, 74, 0
1, 455837, Note_on_c, 0, 34, 0
1, 455837, Note_on_c, 0, 46, 0
1, 455840, Tempo, 481696
1, 455840, Note_on_c, 0, 58, 79
1, 455840, Note_on_c, 0, 62, 79
1, 455840, Note_on_c, 0, 50, 63
1, 455840, Note_on_c, 0, 55, 63
1, 455865, Control_c, 0, 64, 0
1, 455958, Control_c, 0, 64, 127
1, 456154, Note_on_c, 0, 55, 0
1, 456154, Note_on_c, 0, 58, 0
1, 456154, Note_on_c, 0, 62, 0
1, 456154, Note_on_c, 0, 50, 0
1, 456160, Tempo, 479846
1, 456160, Note_on_c, 0, 67, 81
1, 456160, Note_on_c, 0, 62, 81
1, 456160, Note_on_c, 0, 55, 64
1, 456160, Note_on_c, 0, 58, 64
1, 456474, Note_on_c, 0, 58, 0
1, 456474, Note_on_c, 0, 67, 0
1, 456474, Note_on_c, 0, 62, 0
1, 456474, Note_on_c, 0, 55, 0
1, 456480, Tempo, 478050
1, 456480, Note_on_c, 0, 68, 83
1, 456480, Note_on_c, 0, 65, 70
1, 456480, Note_on_c, 0, 70, 83
1, 456480, Note_on_c, 0, 56, 54
1, 456480, Note_on_c, 0, 58, 67
1, 456480, Note_on_c, 0, 62, 67
1, 456794, Note_on_c, 0, 62, 0
1, 456794, Note_on_c, 0, 65, 0
1, 456794, Note_on_c, 0, 70, 0
1, 456794, Note_on_c, 0, 68, 0
1, 456794, Note_on_c, 0, 58, 0
1, 456794, Note_on_c, 0, 56, 0
1, 456800, Tempo, 476228
1, 456800, Note_on_c, 0, 68, 83
1, 456800, Note_on_c, 0, 74, 87
1, 456800, Note_on_c, 0, 70, 87
1, 456800, Note_on_c, 0, 58, 54
1, 456800, Note_on_c, 0, 65, 68
1, 456800, Note_on_c, 0, 62, 68
1, 457114, Note_on_c, 0, 62, 0
1, 457114, Note_on_c, 0, 74, 0
1, 457114, Note_on_c, 0, 70, 0
1, 457114, Note_on_c, 0, 68, 0
1, 457114, Note_on_c, 0, 65, 0
1, 457114, Note_on_c, 0, 58, 0
1, 457120, Tempo, 474458
1, 457120, Note_on_c, 0, 70, 83
1, 457120, Note_on_c, 0, 74, 90
1, 457120, Note_on_c, 0, 77, 90
1, 457120, Note_on_c, 0, 62, 54
1, 457120, Note_on_c, 0, 65, 70
1, 457120, Note_on_c, 0, 68, 70
1, 457400, Tempo, 472664
1, 457434, Note_on_c, 0, 68, 0
1, 457434, Note_on_c, 0, 74, 0
1, 457434, Note_on_c, 0, 77, 0
1, 457434, Note_on_c, 0, 70, 0
1, 457434, Note_on_c, 0, 65, 0
1, 457434, Note_on_c, 0, 62, 0
1, 457440, Tempo, 483520
1, 457440, Note_on_c, 0, 87, 91
1, 457440, Note_on_c, 0, 80, 91
1, 457440, Note_on_c, 0, 75, 76
1, 457440, Note_on_c, 0, 72, 81
1, 457440, Note_on_c, 0, 68, 81
1, 457440, Note_on_c, 0, 60, 69
1, 457449, Control_c, 0, 64, 0
1, 457581, Control_c, 0, 64, 127
1, 457757, Note_on_c, 0, 60, 0
1, 457757, Note_on_c, 0, 80, 0
1, 457757, Note_on_c, 0, 75, 0
1, 457757, Note_on_c, 0, 87, 0
1, 457757, Note_on_c, 0, 68, 0
1, 457757, Note_on_c, 0, 72, 0
1, 457760, Note_on_c, 0, 63, 72
1, 457760, Note_on_c, 0, 56, 72
1, 457760, Note_on_c, 0, 51, 62
1, 457760, Note_on_c, 0, 48, 57
1, 457760, Note_on_c, 0, 36, 48
1, 457760, Note_on_c, 0, 44, 57
1, 458077, Note_on_c, 0, 44, 0
1, 458077, Note_on_c, 0, 56, 0
1, 458077, Note_on_c, 0, 51, 0
1, 458077, Note_on_c, 0, 63, 0
1, 458077, Note_on_c, 0, 36, 0
1, 458077, Note_on_c, 0, 48, 0
1, 458080, Tempo, 500793
1, 458080, Note_on_c, 0, 87, 86
1, 458080, Note_on_c, 0, 80, 86
1, 458080, Note_on_c, 0, 75, 72
1, 458080, Note_on_c, 0, 56, 70
1, 458080, Note_on_c, 0, 48, 57
1, 458080, Note_on_c, 0, 60, 70
1, 458397, Note_on_c, 0, 60, 0
1, 458397, Note_on_c, 0, 80, 0
1, 458397, Note_on_c, 0, 75, 0
1, 458397, Note_on_c, 0, 87, 0
1, 458397, Note_on_c, 0, 48, 0
1, 458397, Note_on_c, 0, 56, 0
1, 458400, Tempo, 492975
1, 458400, Note_on_c, 0, 86, 91
1, 458400, Note_on_c, 0, 80, 91
1, 458400, Note_on_c, 0, 74, 76
1, 458400, Note_on_c, 0, 46, 65
1, 458400, Note_on_c, 0, 51, 77
1, 458400, Note_on_c, 0, 58, 77
1, 458411, Control_c, 0, 64, 0
1, 458587, Control_c, 0, 64, 127
1, 458875, Note_on_c, 0, 58, 0
1, 458875, Note_on_c, 0, 80, 0
1, 458875, Note_on_c, 0, 74, 0
1, 458875, Note_on_c, 0, 86, 0
1, 458875, Note_on_c, 0, 51, 0
1, 458875, Note_on_c, 0, 46, 0
1, 458880, Note_on_c, 0, 70, 72
1, 458880, Note_on_c, 0, 75, 86
1, 458880, Note_on_c, 0, 82, 86
1, 458880, Note_on_c, 0, 43, 57
1, 458880, Note_on_c, 0, 51, 70
1, 458880, Note_on_c, 0, 55, 70
1, 458898, Control_c, 0, 64, 0
1, 459120, Control_c, 0, 64, 127
1, 459355, Note_on_c, 0, 55, 0
1, 459355, Note_on_c, 0, 75, 0
1, 459355, Note_on_c, 0, 82, 0
1, 459355, Note_on_c, 0, 70, 0
1, 459355, Note_on_c, 0, 51, 0
1, 459355, Note_on_c, 0, 43, 0
1, 459360, Tempo, 483520
1, 459360, Note_on_c, 0, 84, 90
1, 459360, Note_on_c, 0, 75, 90
1, 459360, Note_on_c, 0, 72, 75
1, 459360, Note_on_c, 0, 56, 72
1, 459360, Note_on_c, 0, 51, 72
1, 459360, Note_on_c, 0, 44, 62
1, 459368, Control_c, 0, 64, 0
1, 459473, Control_c, 0, 64, 127
1, 459677, Note_on_c, 0, 44, 0
1, 459677, Note_on_c, 0, 75, 0
1, 459677, Note_on_c, 0, 72, 0
1, 459677, Note_on_c, 0, 84, 0
1, 459677, Note_on_c, 0, 51, 0
1, 459677, Note_on_c, 0, 56, 0
1, 459680, Note_on_c, 0, 63, 72
1, 459680, Note_on_c, 0, 56, 72
1, 459680, Note_on_c, 0, 51, 62
1, 459680, Note_on_c, 0, 48, 57
1, 459680, Note_on_c, 0, 36, 48
1, 459680, Note_on_c, 0, 44, 57
1, 459997, Note_on_c, 0, 44, 0
1, 459997, Note_on_c, 0, 56, 0
1, 459997, Note_on_c, 0, 51, 0
1, 459997, Note_on_c, 0, 63, 0
1, 459997, Note_on_c, 0, 36, 0
1, 459997, Note_on_c, 0, 48, 0
1, 460000, Note_on_c, 0, 84, 86
1, 460000, Note_on_c, 0, 75, 86
1, 460000, Note_on_c, 0, 72, 72
1, 460000, Note_on_c, 0, 51, 70
1, 460000, Note_on_c, 0, 44, 57
1, 460000, Note_on_c, 0, 56, 70
1, 460317, Note_on_c, 0, 56, 0
1, 460317, Note_on_c, 0, 75, 0
1, 460317, Note_on_c, 0, 72, 0
1, 460317, Note_on_c, 0, 84, 0
1, 460317, Note_on_c, 0, 44, 0
1, 460317, Note_on_c, 0, 51, 0
1, 460320, Tempo, 492975
1, 460320, Note_on_c, 0, 80, 90
1, 460320, Note_on_c, 0, 75, 90
1, 460320, Note_on_c, 0, 68, 75
1, 460320, Note_on_c, 0, 41, 57
1, 460320, Note_on_c, 0, 48, 70
1, 460320, Note_on_c, 0, 53, 70
1, 460340, Control_c, 0, 64, 0
1, 460534, Control_c, 0, 64, 127
1, 460795, Note_on_c, 0, 53, 0
1, 460795, Note_on_c, 0, 75, 0
1, 460795, Note_on_c, 0, 68, 0
1, 460795, Note_on_c, 0, 80, 0
1, 460795, Note_on_c, 0, 48, 0
1, 460795, Note_on_c, 0, 41, 0
1, 460800, Note_on_c, 0, 72, 69
1, 460800, Note_on_c, 0, 75, 82
1, 460800, Note_on_c, 0, 84, 82
1, 460800, Note_on_c, 0, 44, 54
1, 460800, Note_on_c, 0, 48, 67
1, 460800, Note_on_c, 0, 56, 67
1, 461275, Note_on_c, 0, 56, 0
1, 461275, Note_on_c, 0, 75, 0
1, 461275, Note_on_c, 0, 84, 0
1, 461275, Note_on_c, 0, 72, 0
1, 461275, Note_on_c, 0, 48, 0
1, 461275, Note_on_c, 0, 44, 0
1, 461280, Note_on_c, 0, 70, 75
1, 461280, Note_on_c, 0, 75, 90
1, 461280, Note_on_c, 0, 82, 90
1, 461280, Note_on_c, 0, 43, 57
1, 461280, Note_on_c, 0, 51, 70
1, 461280, Note_on_c, 0, 55, 70
1, 461291, Control_c, 0, 64, 0
1, 461467, Control_c, 0, 64, 127
1, 461755, Note_on_c, 0, 55, 0
1, 461755, Note_on_c, 0, 75, 0
1, 461755, Note_on_c, 0, 82, 0
1, 461755, Note_on_c, 0, 70, 0
1, 461755, Note_on_c, 0, 51, 0
1, 461755, Note_on_c, 0, 43, 0
1, 461760, Note_on_c, 0, 58, 64
1, 461760, Note_on_c, 0, 63, 76
1, 461760, Note_on_c, 0, 70, 76
1, 461760, Note_on_c, 0, 31, 46
1, 461760, Note_on_c, 0, 39, 54
1, 461760, Note_on_c, 0, 43, 54
1, 462235, Note_on_c, 0, 43, 0
1, 462235, Note_on_c, 0, 63, 0
1, 462235, Note_on_c, 0, 70, 0
1, 462235, Note_on_c, 0, 58, 0
1, 462235, Note_on_c, 0, 39, 0
1, 462235, Note_on_c, 0, 31, 0
1, 462240, Note_on_c, 0, 68, 73
1, 462240, Note_on_c, 0, 70, 88
1, 462240, Note_on_c, 0, 80, 88
1, 462240, Note_on_c, 0, 41, 54
1, 462240, Note_on_c, 0, 46, 68
1, 462240, Note_on_c, 0, 53, 68
1, 462249, Control_c, 0, 64, 0
1, 462442, Control_c, 0, 64, 127
1, 462715, Note_on_c, 0, 53, 0
1, 462715, Note_on_c, 0, 70, 0
1, 462715, Note_on_c, 0, 80, 0
1, 462715, Note_on_c, 0, 68, 0
1, 462715, Note_on_c, 0, 46, 0
1, 462715, Note_on_c, 0, 41, 0
1, 462720, Tempo, 468750
1, 462720, Note_on_c, 0, 67, 70
1, 462720, Note_on_c, 0, 70, 70
1, 462720, Note_on_c, 0, 79, 83
1, 462720, Note_on_c, 0, 39, 53
1, 462720, Note_on_c, 0, 46, 64
1, 462720, Note_on_c, 0, 51, 64
1, 462737, Control_c, 0, 64, 0
1, 462998, Control_c, 0, 64, 127
1, 463195, Note_on_c, 0, 51, 0
1, 463195, Note_on_c, 0, 70, 0
1, 463195, Note_on_c, 0, 79, 0
1, 463195, Note_on_c, 0, 67, 0
1, 463195, Note_on_c, 0, 46, 0
1, 463195, Note_on_c, 0, 39, 0
1, 463200, Tempo, 472441
1, 463200, Note_on_c, 0, 65, 47
1, 463200, Note_on_c, 0, 72, 47
1, 463200, Note_on_c, 0, 75, 53
1, 463200, Note_on_c, 0, 77, 53
1, 463200, Note_on_c, 0, 32, 35
1, 463200, Note_on_c, 0, 44, 39
1, 463218, Control_c, 0, 64, 0
1, 463301, Control_c, 0, 64, 127
1, 463517, Note_on_c, 0, 44, 0
1, 463517, Note_on_c, 0, 72, 0
1, 463517, Note_on_c, 0, 75, 0
1, 463517, Note_on_c, 0, 65, 0
1, 463517, Note_on_c, 0, 32, 0
1, 463517, Note_on_c, 0, 77, 0
1, 463520, Tempo, 459770
1, 463520, Note_on_c, 0, 65, 44
1, 463520, Note_on_c, 0, 72, 44
1, 463520, Note_on_c, 0, 75, 49
1, 463520, Note_on_c, 0, 77, 49
1, 463520, Note_on_c, 0, 56, 35
1, 463520, Note_on_c, 0, 44, 32
1, 463680, Tempo, 442837
1, 463837, Note_on_c, 0, 44, 0
1, 463837, Note_on_c, 0, 72, 0
1, 463837, Note_on_c, 0, 75, 0
1, 463837, Note_on_c, 0, 65, 0
1, 463837, Note_on_c, 0, 56, 0
1, 463837, Note_on_c, 0, 77, 0
1, 463840, Note_on_c, 0, 65, 44
1, 463840, Note_on_c, 0, 72, 44
1, 463840, Note_on_c, 0, 75, 49
1, 463840, Note_on_c, 0, 77, 49
1, 463840, Note_on_c, 0, 32, 32
1, 463840, Note_on_c, 0, 44, 36
1, 464157, Note_on_c, 0, 44, 0
1, 464157, Note_on_c, 0, 72, 0
1, 464157, Note_on_c, 0, 75, 0
1, 464157, Note_on_c, 0, 65, 0
1, 464157, Note_on_c, 0, 32, 0
1, 464157, Note_on_c, 0, 77, 0
1, 464160, Tempo, 436395
1, 464160, Note_on_c, 0, 65, 43
1, 464160, Note_on_c, 0, 72, 43
1, 464160, Note_on_c, 0, 75, 48
1, 464160, Note_on_c, 0, 77, 48
1, 464160, Note_on_c, 0, 44, 30
1, 464160, Note_on_c, 0, 56, 34
1, 464477, Note_on_c, 0, 56, 0
1, 464477, Note_on_c, 0, 72, 0
1, 464477, Note_on_c, 0, 75, 0
1, 464477, Note_on_c, 0, 65, 0
1, 464477, Note_on_c, 0, 44, 0
1, 464477, Note_on_c, 0, 77, 0
1, 464480, Note_on_c, 0, 65, 43
1, 464480, Note_on_c, 0, 72, 43
1, 464480, Note_on_c, 0, 75, 48
1, 464480, Note_on_c, 0, 77, 48
1, 464480, Note_on_c, 0, 44, 35
1, 464480, Note_on_c, 0, 32, 30
1, 464797, Note_on_c, 0, 32, 0
1, 464797, Note_on_c, 0, 72, 0
1, 464797, Note_on_c, 0, 75, 0
1, 464797, Note_on_c, 0, 65, 0
1, 464797, Note_on_c, 0, 44, 0
1, 464797, Note_on_c, 0, 77, 0
1, 464800, Tempo, 461752
1, 464800, Note_on_c, 0, 65, 43
1, 464800, Note_on_c, 0, 72, 43
1, 464800, Note_on_c, 0, 75, 48
1, 464800, Note_on_c, 0, 77, 48
1, 464800, Note_on_c, 0, 44, 27
1, 464800, Note_on_c, 0, 56, 33
1, 465117, Note_on_c, 0, 56, 0
1, 465117, Note_on_c, 0, 72, 0
1, 465117, Note_on_c, 0, 75, 0
1, 465117, Note_on_c, 0, 65, 0
1, 465117, Note_on_c, 0, 44, 0
1, 465117, Note_on_c, 0, 77, 0
1, 465120, Tempo, 431686
1, 465120, Note_on_c, 0, 67, 53
1, 465120, Note_on_c, 0, 70, 53
1, 465120, Note_on_c, 0, 74, 53
1, 465120, Note_on_c, 0, 79, 60
1, 465120, Note_on_c, 0, 34, 40
1, 465120, Note_on_c, 0, 46, 46
1, 465138, Control_c, 0, 64, 0
1, 465276, Control_c, 0, 64, 127
1, 465437, Note_on_c, 0, 46, 0
1, 465437, Note_on_c, 0, 70, 0
1, 465437, Note_on_c, 0, 74, 0
1, 465437, Note_on_c, 0, 67, 0
1, 465437, Note_on_c, 0, 34, 0
1, 465437, Note_on_c, 0, 79, 0
1, 465440, Note_on_c, 0, 67, 48
1, 465440, Note_on_c, 0, 70, 48
1, 465440, Note_on_c, 0, 74, 48
1, 465440, Note_on_c, 0, 79, 54
1, 465440, Note_on_c, 0, 58, 36
1, 465440, Note_on_c, 0, 46, 33
1, 465757, Note_on_c, 0, 46, 0
1, 465757, Note_on_c, 0, 70, 0
1, 465757, Note_on_c, 0, 74, 0
1, 465757, Note_on_c, 0, 67, 0
1, 465757, Note_on_c, 0, 58, 0
1, 465757, Note_on_c, 0, 79, 0
1, 465760, Note_on_c, 0, 67, 49
1, 465760, Note_on_c, 0, 70, 49
1, 465760, Note_on_c, 0, 74, 49
1, 465760, Note_on_c, 0, 79, 54
1, 465760, Note_on_c, 0, 34, 34
1, 465760, Note_on_c, 0, 46, 38
1, 465920, Tempo, 436364
1, 466077, Note_on_c, 0, 46, 0
1, 466077, Note_on_c, 0, 70, 0
1, 466077, Note_on_c, 0, 74, 0
1, 466077, Note_on_c, 0, 67, 0
1, 466077, Note_on_c, 0, 34, 0
1, 466077, Note_on_c, 0, 79, 0
1, 466080, Tempo, 425562
1, 466080, Note_on_c, 0, 67, 49
1, 466080, Note_on_c, 0, 70, 49
1, 466080, Note_on_c, 0, 75, 54
1, 466080, Note_on_c, 0, 79, 54
1, 466080, Note_on_c, 0, 46, 34
1, 466080, Note_on_c, 0, 58, 38
1, 466097, Control_c, 0, 64, 0
1, 466306, Control_c, 0, 64, 127
1, 466397, Note_on_c, 0, 58, 0
1, 466397, Note_on_c, 0, 70, 0
1, 466397, Note_on_c, 0, 75, 0
1, 466397, Note_on_c, 0, 67, 0
1, 466397, Note_on_c, 0, 46, 0
1, 466397, Note_on_c, 0, 79, 0
1, 466400, Note_on_c, 0, 67, 49
1, 466400, Note_on_c, 0, 70, 49
1, 466400, Note_on_c, 0, 75, 55
1, 466400, Note_on_c, 0, 79, 55
1, 466400, Note_on_c, 0, 46, 39
1, 466400, Note_on_c, 0, 34, 35
1, 466717, Note_on_c, 0, 34, 0
1, 466717, Note_on_c, 0, 70, 0
1, 466717, Note_on_c, 0, 75, 0
1, 466717, Note_on_c, 0, 67, 0
1, 466717, Note_on_c, 0, 46, 0
1, 466717, Note_on_c, 0, 79, 0
1, 466720, Tempo, 452830
1, 466720, Note_on_c, 0, 67, 49
1, 466720, Note_on_c, 0, 70, 49
1, 466720, Note_on_c, 0, 75, 55
1, 466720, Note_on_c, 0, 79, 55
1, 466720, Note_on_c, 0, 46, 35
1, 466720, Note_on_c, 0, 58, 39
1, 467037, Note_on_c, 0, 58, 0
1, 467037, Note_on_c, 0, 70, 0
1, 467037, Note_on_c, 0, 75, 0
1, 467037, Note_on_c, 0, 67, 0
1, 467037, Note_on_c, 0, 46, 0
1, 467037, Note_on_c, 0, 79, 0
1, 467040, Tempo, 422565
1, 467040, Note_on_c, 0, 82, 61
1, 467040, Note_on_c, 0, 70, 55
1, 467040, Note_on_c, 0, 73, 55
1, 467040, Note_on_c, 0, 79, 61
1, 467040, Note_on_c, 0, 34, 41
1, 467040, Note_on_c, 0, 46, 47
1, 467053, Control_c, 0, 64, 0
1, 467177, Control_c, 0, 64, 127
1, 467357, Note_on_c, 0, 46, 0
1, 467357, Note_on_c, 0, 70, 0
1, 467357, Note_on_c, 0, 73, 0
1, 467357, Note_on_c, 0, 82, 0
1, 467357, Note_on_c, 0, 34, 0
1, 467357, Note_on_c, 0, 79, 0
1, 467360, Note_on_c, 0, 82, 56
1, 467360, Note_on_c, 0, 70, 51
1, 467360, Note_on_c, 0, 73, 51
1, 467360, Note_on_c, 0, 79, 56
1, 467360, Note_on_c, 0, 58, 42
1, 467360, Note_on_c, 0, 46, 37
1, 467677, Note_on_c, 0, 46, 0
1, 467677, Note_on_c, 0, 70, 0
1, 467677, Note_on_c, 0, 73, 0
1, 467677, Note_on_c, 0, 82, 0
1, 467677, Note_on_c, 0, 58, 0
1, 467677, Note_on_c, 0, 79, 0
1, 467680, Note_on_c, 0, 82, 57
1, 467680, Note_on_c, 0, 70, 51
1, 467680, Note_on_c, 0, 73, 51
1, 467680, Note_on_c, 0, 79, 57
1, 467680, Note_on_c, 0, 34, 38
1, 467680, Note_on_c, 0, 46, 42
1, 467840, Tempo, 444444
1, 467997, Note_on_c, 0, 46, 0
1, 467997, Note_on_c, 0, 70, 0
1, 467997, Note_on_c, 0, 73, 0
1, 467997, Note_on_c, 0, 82, 0
1, 467997, Note_on_c, 0, 34, 0
1, 467997, Note_on_c, 0, 79, 0
1, 468000, Note_on_c, 0, 68, 56
1, 468000, Note_on_c, 0, 71, 56
1, 468000, Note_on_c, 0, 75, 56
1, 468000, Note_on_c, 0, 80, 63
1, 468000, Note_on_c, 0, 47, 41
1, 468000, Note_on_c, 0, 59, 46
1, 468008, Control_c, 0, 64, 0
1, 468149, Control_c, 0, 64, 127
1, 468317, Note_on_c, 0, 59, 0
1, 468317, Note_on_c, 0, 71, 0
1, 468317, Note_on_c, 0, 75, 0
1, 468317, Note_on_c, 0, 68, 0
1, 468317, Note_on_c, 0, 47, 0
1, 468317, Note_on_c, 0, 80, 0
1, 468320, Tempo, 425532
1, 468320, Note_on_c, 0, 68, 52
1, 468320, Note_on_c, 0, 71, 52
1, 468320, Note_on_c, 0, 75, 52
1, 468320, Note_on_c, 0, 80, 58
1, 468320, Note_on_c, 0, 47, 38
1, 468320, Note_on_c, 0, 35, 34
1, 468480, Tempo, 422565
1, 468637, Note_on_c, 0, 35, 0
1, 468637, Note_on_c, 0, 71, 0
1, 468637, Note_on_c, 0, 75, 0
1, 468637, Note_on_c, 0, 68, 0
1, 468637, Note_on_c, 0, 47, 0
1, 468637, Note_on_c, 0, 80, 0
1, 468640, Note_on_c, 0, 68, 52
1, 468640, Note_on_c, 0, 71, 52
1, 468640, Note_on_c, 0, 75, 52
1, 468640, Note_on_c, 0, 80, 59
1, 468640, Note_on_c, 0, 47, 34
1, 468640, Note_on_c, 0, 59, 38
1, 468957, Note_on_c, 0, 59, 0
1, 468957, Note_on_c, 0, 71, 0
1, 468957, Note_on_c, 0, 75, 0
1, 468957, Note_on_c, 0, 68, 0
1, 468957, Note_on_c, 0, 47, 0
1, 468957, Note_on_c, 0, 80, 0
1, 468960, Tempo, 413822
1, 468960, Note_on_c, 0, 68, 58
1, 468960, Note_on_c, 0, 75, 58
1, 468960, Note_on_c, 0, 80, 67
1, 468960, Note_on_c, 0, 35, 38
1, 468960, Note_on_c, 0, 47, 38
1, 469277, Note_on_c, 0, 47, 0
1, 469277, Note_on_c, 0, 80, 0
1, 469277, Note_on_c, 0, 68, 0
1, 469277, Note_on_c, 0, 75, 0
1, 469277, Note_on_c, 0, 35, 0
1, 469280, Note_on_c, 0, 68, 58
1, 469280, Note_on_c, 0, 75, 58
1, 469280, Note_on_c, 0, 80, 67
1, 469280, Note_on_c, 0, 59, 38
1, 469280, Note_on_c, 0, 47, 38
1, 469597, Note_on_c, 0, 47, 0
1, 469597, Note_on_c, 0, 80, 0
1, 469597, Note_on_c, 0, 68, 0
1, 469597, Note_on_c, 0, 75, 0
1, 469597, Note_on_c, 0, 59, 0
1, 469600, Note_on_c, 0, 68, 59
1, 469600, Note_on_c, 0, 75, 59
1, 469600, Note_on_c, 0, 80, 67
1, 469600, Note_on_c, 0, 35, 38
1, 469600, Note_on_c, 0, 47, 38
1, 469800, Tempo, 444444
1, 469917, Note_on_c, 0, 47, 0
1, 469917, Note_on_c, 0, 80, 0
1, 469917, Note_on_c, 0, 68, 0
1, 469917, Note_on_c, 0, 75, 0
1, 469917, Note_on_c, 0, 35, 0
1, 469920, Tempo, 416696
1, 469920, Note_on_c, 0, 68, 58
1, 469920, Note_on_c, 0, 74, 58
1, 469920, Note_on_c, 0, 80, 63
1, 469920, Note_on_c, 0, 46, 38
1, 469920, Note_on_c, 0, 58, 41
1, 469932, Control_c, 0, 64, 0
1, 470026, Control_c, 0, 64, 127
1, 470237, Note_on_c, 0, 58, 0
1, 470237, Note_on_c, 0, 80, 0
1, 470237, Note_on_c, 0, 68, 0
1, 470237, Note_on_c, 0, 74, 0
1, 470237, Note_on_c, 0, 46, 0
1, 470240, Note_on_c, 0, 68, 58
1, 470240, Note_on_c, 0, 74, 58
1, 470240, Note_on_c, 0, 80, 64
1, 470240, Note_on_c, 0, 46, 42
1, 470240, Note_on_c, 0, 34, 38
1, 470557, Note_on_c, 0, 34, 0
1, 470557, Note_on_c, 0, 80, 0
1, 470557, Note_on_c, 0, 68, 0
1, 470557, Note_on_c, 0, 74, 0
1, 470557, Note_on_c, 0, 46, 0
1, 470560, Note_on_c, 0, 68, 59
1, 470560, Note_on_c, 0, 74, 59
1, 470560, Note_on_c, 0, 80, 64
1, 470560, Note_on_c, 0, 46, 39
1, 470560, Note_on_c, 0, 58, 42
1, 470720, Tempo, 410959
1, 470760, Tempo, 444444
1, 470877, Note_on_c, 0, 58, 0
1, 470877, Note_on_c, 0, 80, 0
1, 470877, Note_on_c, 0, 68, 0
1, 470877, Note_on_c, 0, 74, 0
1, 470877, Note_on_c, 0, 46, 0
1, 470880, Tempo, 424028
1, 470880, Note_on_c, 0, 68, 64
1, 470880, Note_on_c, 0, 73, 64
1, 470880, Note_on_c, 0, 80, 64
1, 470880, Note_on_c, 0, 33, 38
1, 470880, Note_on_c, 0, 45, 42
1, 470899, Control_c, 0, 64, 0
1, 470995, Control_c, 0, 64, 127
1, 471197, Note_on_c, 0, 45, 0
1, 471197, Note_on_c, 0, 80, 0
1, 471197, Note_on_c, 0, 68, 0
1, 471197, Note_on_c, 0, 73, 0
1, 471197, Note_on_c, 0, 33, 0
1, 471200, Note_on_c, 0, 68, 64
1, 471200, Note_on_c, 0, 73, 64
1, 471200, Note_on_c, 0, 80, 64
1, 471200, Note_on_c, 0, 57, 43
1, 471200, Note_on_c, 0, 45, 39
1, 471517, Note_on_c, 0, 45, 0
1, 471517, Note_on_c, 0, 80, 0
1, 471517, Note_on_c, 0, 68, 0
1, 471517, Note_on_c, 0, 73, 0
1, 471517, Note_on_c, 0, 57, 0
1, 471520, Note_on_c, 0, 68, 61
1, 471520, Note_on_c, 0, 73, 61
1, 471520, Note_on_c, 0, 80, 61
1, 471520, Note_on_c, 0, 33, 42
1, 471520, Note_on_c, 0, 45, 42
1, 471680, Tempo, 442804
1, 471800, Tempo, 435951
1, 471837, Note_on_c, 0, 45, 0
1, 471837, Note_on_c, 0, 80, 0
1, 471837, Note_on_c, 0, 68, 0
1, 471837, Note_on_c, 0, 73, 0
1, 471837, Note_on_c, 0, 33, 0
1, 471840, Tempo, 430108
1, 471840, Note_on_c, 0, 67, 69
1, 471840, Note_on_c, 0, 73, 69
1, 471840, Note_on_c, 0, 79, 69
1, 471840, Note_on_c, 0, 45, 48
1, 471840, Note_on_c, 0, 57, 48
1, 471852, Control_c, 0, 64, 0
1, 471946, Control_c, 0, 64, 127
1, 472000, Tempo, 425532
1, 472157, Note_on_c, 0, 57, 0
1, 472157, Note_on_c, 0, 79, 0
1, 472157, Note_on_c, 0, 67, 0
1, 472157, Note_on_c, 0, 73, 0
1, 472157, Note_on_c, 0, 45, 0
1, 472160, Note_on_c, 0, 67, 65
1, 472160, Note_on_c, 0, 73, 65
1, 472160, Note_on_c, 0, 79, 65
1, 472160, Note_on_c, 0, 45, 43
1, 472160, Note_on_c, 0, 33, 43
1, 472477, Note_on_c, 0, 33, 0
1, 472477, Note_on_c, 0, 79, 0
1, 472477, Note_on_c, 0, 67, 0
1, 472477, Note_on_c, 0, 73, 0
1, 472477, Note_on_c, 0, 45, 0
1, 472480, Note_on_c, 0, 67, 64
1, 472480, Note_on_c, 0, 73, 64
1, 472480, Note_on_c, 0, 79, 64
1, 472480, Note_on_c, 0, 45, 42
1, 472480, Note_on_c, 0, 57, 42
1, 472797, Note_on_c, 0, 57, 0
1, 472797, Note_on_c, 0, 79, 0
1, 472797, Note_on_c, 0, 67, 0
1, 472797, Note_on_c, 0, 73, 0
1, 472797, Note_on_c, 0, 45, 0
1, 472800, Note_on_c, 0, 66, 68
1, 472800, Note_on_c, 0, 73, 68
1, 472800, Note_on_c, 0, 78, 76
1, 472800, Note_on_c, 0, 33, 49
1, 472800, Note_on_c, 0, 45, 56
1, 472808, Control_c, 0, 64, 0
1, 472960, Tempo, 436364
1, 472983, Control_c, 0, 64, 127
1, 473117, Note_on_c, 0, 45, 0
1, 473117, Note_on_c, 0, 78, 0
1, 473117, Note_on_c, 0, 66, 0
1, 473117, Note_on_c, 0, 73, 0
1, 473117, Note_on_c, 0, 33, 0
1, 473120, Note_on_c, 0, 66, 61
1, 473120, Note_on_c, 0, 73, 61
1, 473120, Note_on_c, 0, 78, 68
1, 473120, Note_on_c, 0, 57, 47
1, 473120, Note_on_c, 0, 45, 42
1, 473437, Note_on_c, 0, 45, 0
1, 473437, Note_on_c, 0, 78, 0
1, 473437, Note_on_c, 0, 66, 0
1, 473437, Note_on_c, 0, 73, 0
1, 473437, Note_on_c, 0, 57, 0
1, 473440, Note_on_c, 0, 66, 62
1, 473440, Note_on_c, 0, 73, 62
1, 473440, Note_on_c, 0, 78, 69
1, 473440, Note_on_c, 0, 33, 43
1, 473440, Note_on_c, 0, 45, 48
1, 473600, Tempo, 439560
1, 473757, Note_on_c, 0, 45, 0
1, 473757, Note_on_c, 0, 78, 0
1, 473757, Note_on_c, 0, 66, 0
1, 473757, Note_on_c, 0, 73, 0
1, 473757, Note_on_c, 0, 33, 0
1, 473760, Note_on_c, 0, 65, 70
1, 473760, Note_on_c, 0, 72, 80
1, 473760, Note_on_c, 0, 77, 80
1, 473760, Note_on_c, 0, 45, 52
1, 473760, Note_on_c, 0, 57, 60
1, 473769, Control_c, 0, 64, 0
1, 473863, Control_c, 0, 64, 127
1, 474077, Note_on_c, 0, 57, 0
1, 474077, Note_on_c, 0, 77, 0
1, 474077, Note_on_c, 0, 65, 0
1, 474077, Note_on_c, 0, 72, 0
1, 474077, Note_on_c, 0, 45, 0
1, 474080, Note_on_c, 0, 65, 65
1, 474080, Note_on_c, 0, 72, 73
1, 474080, Note_on_c, 0, 77, 73
1, 474080, Note_on_c, 0, 45, 50
1, 474080, Note_on_c, 0, 33, 46
1, 474397, Note_on_c, 0, 33, 0
1, 474397, Note_on_c, 0, 77, 0
1, 474397, Note_on_c, 0, 65, 0
1, 474397, Note_on_c, 0, 72, 0
1, 474397, Note_on_c, 0, 45, 0
1, 474400, Note_on_c, 0, 65, 66
1, 474400, Note_on_c, 0, 75, 74
1, 474400, Note_on_c, 0, 77, 74
1, 474400, Note_on_c, 0, 57, 51
1, 474400, Note_on_c, 0, 45, 46
1, 474717, Note_on_c, 0, 45, 0
1, 474717, Note_on_c, 0, 77, 0
1, 474717, Note_on_c, 0, 65, 0
1, 474717, Note_on_c, 0, 75, 0
1, 474717, Note_on_c, 0, 57, 0
1, 474720, Tempo, 449438
1, 474720, Note_on_c, 0, 89, 83
1, 474720, Note_on_c, 0, 87, 83
1, 474720, Note_on_c, 0, 82, 73
1, 474720, Note_on_c, 0, 77, 73
1, 474720, Note_on_c, 0, 34, 60
1, 474720, Note_on_c, 0, 46, 68
1, 474733, Control_c, 0, 64, 0
1, 474821, Control_c, 0, 64, 127
1, 475037, Note_on_c, 0, 46, 0
1, 475037, Note_on_c, 0, 87, 0
1, 475037, Note_on_c, 0, 82, 0
1, 475037, Note_on_c, 0, 89, 0
1, 475037, Note_on_c, 0, 34, 0
1, 475037, Note_on_c, 0, 77, 0
1, 475040, Note_on_c, 0, 77, 72
1, 475040, Note_on_c, 0, 75, 72
1, 475040, Note_on_c, 0, 70, 65
1, 475040, Note_on_c, 0, 65, 65
1, 475040, Note_on_c, 0, 58, 52
1, 475040, Note_on_c, 0, 46, 47
1, 475357, Note_on_c, 0, 46, 0
1, 475357, Note_on_c, 0, 75, 0
1, 475357, Note_on_c, 0, 70, 0
1, 475357, Note_on_c, 0, 77, 0
1, 475357, Note_on_c, 0, 58, 0
1, 475357, Note_on_c, 0, 65, 0
1, 475360, Tempo, 442804
1, 475360, Note_on_c, 0, 89, 77
1, 475360, Note_on_c, 0, 87, 77
1, 475360, Note_on_c, 0, 82, 69
1, 475360, Note_on_c, 0, 77, 69
1, 475360, Note_on_c, 0, 34, 51
1, 475360, Note_on_c, 0, 46, 57
1, 475677, Note_on_c, 0, 46, 0
1, 475677, Note_on_c, 0, 87, 0
1, 475677, Note_on_c, 0, 82, 0
1, 475677, Note_on_c, 0, 89, 0
1, 475677, Note_on_c, 0, 34, 0
1, 475677, Note_on_c, 0, 77, 0
1, 475680, Note_on_c, 0, 65, 65
1, 475680, Note_on_c, 0, 68, 65
1, 475680, Note_on_c, 0, 75, 72
1, 475680, Note_on_c, 0, 77, 72
1, 475680, Note_on_c, 0, 47, 64
1, 475680, Note_on_c, 0, 59, 71
1, 475698, Control_c, 0, 64, 0
1, 475783, Control_c, 0, 64, 127
1, 475997, Note_on_c, 0, 59, 0
1, 475997, Note_on_c, 0, 68, 0
1, 475997, Note_on_c, 0, 75, 0
1, 475997, Note_on_c, 0, 65, 0
1, 475997, Note_on_c, 0, 47, 0
1, 475997, Note_on_c, 0, 77, 0
1, 476000, Tempo, 443230
1, 476000, Note_on_c, 0, 77, 69
1, 476000, Note_on_c, 0, 80, 69
1, 476000, Note_on_c, 0, 87, 77
1, 476000, Note_on_c, 0, 89, 77
1, 476000, Note_on_c, 0, 47, 54
1, 476000, Note_on_c, 0, 35, 48
1, 476040, Tempo, 437956
1, 476317, Note_on_c, 0, 35, 0
1, 476317, Note_on_c, 0, 80, 0
1, 476317, Note_on_c, 0, 87, 0
1, 476317, Note_on_c, 0, 77, 0
1, 476317, Note_on_c, 0, 47, 0
1, 476317, Note_on_c, 0, 89, 0
1, 476320, Note_on_c, 0, 65, 65
1, 476320, Note_on_c, 0, 68, 65
1, 476320, Note_on_c, 0, 75, 72
1, 476320, Note_on_c, 0, 77, 72
1, 476320, Note_on_c, 0, 47, 45
1, 476320, Note_on_c, 0, 59, 50
1, 476637, Note_on_c, 0, 59, 0
1, 476637, Note_on_c, 0, 68, 0
1, 476637, Note_on_c, 0, 75, 0
1, 476637, Note_on_c, 0, 65, 0
1, 476637, Note_on_c, 0, 47, 0
1, 476637, Note_on_c, 0, 77, 0
1, 476640, Tempo, 446097
1, 476640, Note_on_c, 0, 89, 83
1, 476640, Note_on_c, 0, 87, 83
1, 476640, Note_on_c, 0, 82, 73
1, 476640, Note_on_c, 0, 77, 73
1, 476640, Note_on_c, 0, 34, 54
1, 476640, Note_on_c, 0, 46, 62
1, 476650, Control_c, 0, 64, 0
1, 476817, Control_c, 0, 64, 127
1, 476957, Note_on_c, 0, 46, 0
1, 476957, Note_on_c, 0, 87, 0
1, 476957, Note_on_c, 0, 82, 0
1, 476957, Note_on_c, 0, 89, 0
1, 476957, Note_on_c, 0, 34, 0
1, 476957, Note_on_c, 0, 77, 0
1, 476960, Note_on_c, 0, 77, 72
1, 476960, Note_on_c, 0, 75, 72
1, 476960, Note_on_c, 0, 70, 65
1, 476960, Note_on_c, 0, 65, 65
1, 476960, Note_on_c, 0, 58, 52
1, 476960, Note_on_c, 0, 46, 47
1, 477277, Note_on_c, 0, 46, 0
1, 477277, Note_on_c, 0, 75, 0
1, 477277, Note_on_c, 0, 70, 0
1, 477277, Note_on_c, 0, 77, 0
1, 477277, Note_on_c, 0, 58, 0
1, 477277, Note_on_c, 0, 65, 0
1, 477280, Tempo, 439560
1, 477280, Note_on_c, 0, 89, 77
1, 477280, Note_on_c, 0, 87, 77
1, 477280, Note_on_c, 0, 82, 69
1, 477280, Note_on_c, 0, 77, 69
1, 477280, Note_on_c, 0, 34, 51
1, 477280, Note_on_c, 0, 46, 57
1, 477597, Note_on_c, 0, 46, 0
1, 477597, Note_on_c, 0, 87, 0
1, 477597, Note_on_c, 0, 82, 0
1, 477597, Note_on_c, 0, 89, 0
1, 477597, Note_on_c, 0, 34, 0
1, 477597, Note_on_c, 0, 77, 0
1, 477600, Note_on_c, 0, 65, 65
1, 477600, Note_on_c, 0, 71, 65
1, 477600, Note_on_c, 0, 75, 72
1, 477600, Note_on_c, 0, 77, 72
1, 477600, Note_on_c, 0, 44, 65
1, 477600, Note_on_c, 0, 56, 72
1, 477617, Control_c, 0, 64, 0
1, 477691, Control_c, 0, 64, 127
1, 477917, Note_on_c, 0, 56, 0
1, 477917, Note_on_c, 0, 71, 0
1, 477917, Note_on_c, 0, 75, 0
1, 477917, Note_on_c, 0, 65, 0
1, 477917, Note_on_c, 0, 44, 0
1, 477917, Note_on_c, 0, 77, 0
1, 477920, Note_on_c, 0, 77, 69
1, 477920, Note_on_c, 0, 83, 69
1, 477920, Note_on_c, 0, 87, 77
1, 477920, Note_on_c, 0, 89, 77
1, 477920, Note_on_c, 0, 44, 54
1, 477920, Note_on_c, 0, 32, 48
1, 478237, Note_on_c, 0, 32, 0
1, 478237, Note_on_c, 0, 83, 0
1, 478237, Note_on_c, 0, 87, 0
1, 478237, Note_on_c, 0, 77, 0
1, 478237, Note_on_c, 0, 44, 0
1, 478237, Note_on_c, 0, 89, 0
1, 478240, Note_on_c, 0, 65, 65
1, 478240, Note_on_c, 0, 71, 65
1, 478240, Note_on_c, 0, 75, 72
1, 478240, Note_on_c, 0, 77, 72
1, 478240, Note_on_c, 0, 44, 45
1, 478240, Note_on_c, 0, 56, 50
1, 478557, Note_on_c, 0, 56, 0
1, 478557, Note_on_c, 0, 71, 0
1, 478557, Note_on_c, 0, 75, 0
1, 478557, Note_on_c, 0, 65, 0
1, 478557, Note_on_c, 0, 44, 0
1, 478557, Note_on_c, 0, 77, 0
1, 478560, Tempo, 451501
1, 478560, Note_on_c, 0, 89, 83
1, 478560, Note_on_c, 0, 87, 83
1, 478560, Note_on_c, 0, 82, 73
1, 478560, Note_on_c, 0, 77, 73
1, 478560, Note_on_c, 0, 34, 54
1, 478560, Note_on_c, 0, 46, 62
1, 478578, Control_c, 0, 64, 0
1, 478699, Control_c, 0, 64, 127
1, 478877, Note_on_c, 0, 46, 0
1, 478877, Note_on_c, 0, 87, 0
1, 478877, Note_on_c, 0, 82, 0
1, 478877, Note_on_c, 0, 89, 0
1, 478877, Note_on_c, 0, 34, 0
1, 478877, Note_on_c, 0, 77, 0
1, 478880, Note_on_c, 0, 77, 72
1, 478880, Note_on_c, 0, 75, 72
1, 478880, Note_on_c, 0, 70, 65
1, 478880, Note_on_c, 0, 65, 65
1, 478880, Note_on_c, 0, 58, 52
1, 478880, Note_on_c, 0, 46, 47
1, 479197, Note_on_c, 0, 46, 0
1, 479197, Note_on_c, 0, 75, 0
1, 479197, Note_on_c, 0, 70, 0
1, 479197, Note_on_c, 0, 77, 0
1, 479197, Note_on_c, 0, 58, 0
1, 479197, Note_on_c, 0, 65, 0
1, 479200, Tempo, 441631
1, 479200, Note_on_c, 0, 89, 77
1, 479200, Note_on_c, 0, 87, 77
1, 479200, Note_on_c, 0, 82, 69
1, 479200, Note_on_c, 0, 77, 69
1, 479200, Note_on_c, 0, 34, 51
1, 479200, Note_on_c, 0, 46, 57
1, 479517, Note_on_c, 0, 46, 0
1, 479517, Note_on_c, 0, 87, 0
1, 479517, Note_on_c, 0, 82, 0
1, 479517, Note_on_c, 0, 89, 0
1, 479517, Note_on_c, 0, 34, 0
1, 479517, Note_on_c, 0, 77, 0
1, 479520, Note_on_c, 0, 65, 67
1, 479520, Note_on_c, 0, 69, 67
1, 479520, Note_on_c, 0, 75, 73
1, 479520, Note_on_c, 0, 77, 73
1, 479520, Note_on_c, 0, 48, 65
1, 479520, Note_on_c, 0, 60, 72
1, 479534, Control_c, 0, 64, 0
1, 479578, Control_c, 0, 64, 127
1, 479837, Note_on_c, 0, 60, 0
1, 479837, Note_on_c, 0, 69, 0
1, 479837, Note_on_c, 0, 75, 0
1, 479837, Note_on_c, 0, 65, 0
1, 479837, Note_on_c, 0, 48, 0
1, 479837, Note_on_c, 0, 77, 0
1, 479840, Note_on_c, 0, 77, 72
1, 479840, Note_on_c, 0, 81, 72
1, 479840, Note_on_c, 0, 87, 82
1, 479840, Note_on_c, 0, 89, 82
1, 479840, Note_on_c, 0, 48, 56
1, 479840, Note_on_c, 0, 36, 50
1, 480157, Note_on_c, 0, 36, 0
1, 480157, Note_on_c, 0, 81, 0
1, 480157, Note_on_c, 0, 87, 0
1, 480157, Note_on_c, 0, 77, 0
1, 480157, Note_on_c, 0, 48, 0
1, 480157, Note_on_c, 0, 89, 0
1, 480160, Note_on_c, 0, 65, 69
1, 480160, Note_on_c, 0, 69, 69
1, 480160, Note_on_c, 0, 75, 76
1, 480160, Note_on_c, 0, 77, 76
1, 480160, Note_on_c, 0, 48, 47
1, 480160, Note_on_c, 0, 60, 53
1, 480477, Note_on_c, 0, 60, 0
1, 480477, Note_on_c, 0, 69, 0
1, 480477, Note_on_c, 0, 75, 0
1, 480477, Note_on_c, 0, 65, 0
1, 480477, Note_on_c, 0, 48, 0
1, 480477, Note_on_c, 0, 77, 0
1, 480480, Tempo, 448163
1, 480480, Note_on_c, 0, 89, 90
1, 480480, Note_on_c, 0, 87, 90
1, 480480, Note_on_c, 0, 82, 80
1, 480480, Note_on_c, 0, 77, 80
1, 480480, Note_on_c, 0, 34, 59
1, 480480, Note_on_c, 0, 46, 67
1, 480491, Control_c, 0, 64, 0
1, 480607, Control_c, 0, 64, 127
1, 480797, Note_on_c, 0, 46, 0
1, 480797, Note_on_c, 0, 87, 0
1, 480797, Note_on_c, 0, 82, 0
1, 480797, Note_on_c, 0, 89, 0
1, 480797, Note_on_c, 0, 34, 0
1, 480797, Note_on_c, 0, 77, 0
1, 480800, Note_on_c, 0, 77, 80
1, 480800, Note_on_c, 0, 75, 80
1, 480800, Note_on_c, 0, 70, 70
1, 480800, Note_on_c, 0, 65, 70
1, 480800, Note_on_c, 0, 58, 57
1, 480800, Note_on_c, 0, 46, 50
1, 481117, Note_on_c, 0, 46, 0
1, 481117, Note_on_c, 0, 75, 0
1, 481117, Note_on_c, 0, 70, 0
1, 481117, Note_on_c, 0, 77, 0
1, 481117, Note_on_c, 0, 58, 0
1, 481117, Note_on_c, 0, 65, 0
1, 481120, Note_on_c, 0, 89, 86
1, 481120, Note_on_c, 0, 87, 86
1, 481120, Note_on_c, 0, 82, 77
1, 481120, Note_on_c, 0, 77, 77
1, 481120, Note_on_c, 0, 34, 57
1, 481120, Note_on_c, 0, 46, 64
1, 481160, Tempo, 441631
1, 481437, Note_on_c, 0, 46, 0
1, 481437, Note_on_c, 0, 87, 0
1, 481437, Note_on_c, 0, 82, 0
1, 481437, Note_on_c, 0, 89, 0
1, 481437, Note_on_c, 0, 34, 0
1, 481437, Note_on_c, 0, 77, 0
1, 481440, Note_on_c, 0, 65, 72
1, 481440, Note_on_c, 0, 72, 72
1, 481440, Note_on_c, 0, 75, 82
1, 481440, Note_on_c, 0, 77, 82
1, 481440, Note_on_c, 0, 45, 72
1, 481440, Note_on_c, 0, 57, 82
1, 481452, Control_c, 0, 64, 0
1, 481566, Control_c, 0, 64, 127
1, 481757, Note_on_c, 0, 57, 0
1, 481757, Note_on_c, 0, 72, 0
1, 481757, Note_on_c, 0, 75, 0
1, 481757, Note_on_c, 0, 65, 0
1, 481757, Note_on_c, 0, 45, 0
1, 481757, Note_on_c, 0, 77, 0
1, 481760, Note_on_c, 0, 77, 80
1, 481760, Note_on_c, 0, 84, 80
1, 481760, Note_on_c, 0, 87, 89
1, 481760, Note_on_c, 0, 89, 89
1, 481760, Note_on_c, 0, 45, 63
1, 481760, Note_on_c, 0, 33, 56
1, 482077, Note_on_c, 0, 33, 0
1, 482077, Note_on_c, 0, 84, 0
1, 482077, Note_on_c, 0, 87, 0
1, 482077, Note_on_c, 0, 77, 0
1, 482077, Note_on_c, 0, 45, 0
1, 482077, Note_on_c, 0, 89, 0
1, 482080, Tempo, 585423
1, 482080, Note_on_c, 0, 65, 75
1, 482080, Note_on_c, 0, 72, 75
1, 482080, Note_on_c, 0, 75, 84
1, 482080, Note_on_c, 0, 77, 84
1, 482080, Note_on_c, 0, 45, 52
1, 482080, Note_on_c, 0, 57, 59
1, 482397, Note_on_c, 0, 57, 0
1, 482397, Note_on_c, 0, 72, 0
1, 482397, Note_on_c, 0, 75, 0
1, 482397, Note_on_c, 0, 65, 0
1, 482397, Note_on_c, 0, 45, 0
1, 482397, Note_on_c, 0, 77, 0
1, 482400, Tempo, 462285
1, 482400, Note_on_c, 0, 91, 106
1, 482400, Note_on_c, 0, 87, 106
1, 482400, Note_on_c, 0, 79, 95
1, 482400, Note_on_c, 0, 34, 76
1, 482400, Note_on_c, 0, 46, 86
1, 482417, Control_c, 0, 64, 0
1, 482492, Control_c, 0, 64, 127
1, 482720, Note_on_c, 0, 46, 0
1, 482720, Note_on_c, 0, 34, 0
1, 482720, Note_on_c, 0, 50, 64
1, 482720, Note_on_c, 0, 62, 72
1, 483040, Note_on_c, 0, 62, 0
1, 483040, Note_on_c, 0, 91, 0
1, 483040, Note_on_c, 0, 79, 0
1, 483040, Note_on_c, 0, 87, 0
1, 483040, Note_on_c, 0, 50, 0
1, 483040, Note_on_c, 0, 79, 97
1, 483040, Note_on_c, 0, 75, 97
1, 483040, Note_on_c, 0, 67, 87
1, 483040, Note_on_c, 0, 51, 71
1, 483040, Note_on_c, 0, 63, 80
1, 483053, Control_c, 0, 64, 0
1, 483113, Control_c, 0, 64, 127
1, 483360, Note_on_c, 0, 63, 0
1, 483360, Note_on_c, 0, 51, 0
1, 483360, Note_on_c, 0, 38, 67
1, 483360, Note_on_c, 0, 50, 73
1, 483680, Tempo, 474458
1, 483680, Note_on_c, 0, 50, 0
1, 483680, Note_on_c, 0, 79, 0
1, 483680, Note_on_c, 0, 67, 0
1, 483680, Note_on_c, 0, 75, 0
1, 483680, Note_on_c, 0, 38, 0
1, 483680, Note_on_c, 0, 55, 80
1, 483680, Note_on_c, 0, 63, 90
1, 483680, Note_on_c, 0, 67, 90
1, 483680, Note_on_c, 0, 39, 70
1, 483680, Note_on_c, 0, 51, 79
1, 483690, Control_c, 0, 64, 0
1, 483738, Control_c, 0, 64, 127
1, 484000, Tempo, 519346
1, 484000, Note_on_c, 0, 51, 0
1, 484000, Note_on_c, 0, 39, 0
1, 484000, Note_on_c, 0, 34, 65
1, 484000, Note_on_c, 0, 46, 72
1, 484320, Tempo, 571048
1, 484320, Note_on_c, 0, 46, 0
1, 484320, Note_on_c, 0, 55, 0
1, 484320, Note_on_c, 0, 67, 0
1, 484320, Note_on_c, 0, 63, 0
1, 484320, Note_on_c, 0, 34, 0
1, 484320, Note_on_c, 0, 59, 81
1, 484320, Note_on_c, 0, 63, 81
1, 484320, Note_on_c, 0, 66, 88
1, 484320, Note_on_c, 0, 71, 88
1, 484320, Note_on_c, 0, 47, 62
1, 484320, Note_on_c, 0, 51, 67
1, 484320, Note_on_c, 0, 54, 67
1, 484333, Control_c, 0, 64, 0
1, 484480, Control_c, 0, 64, 127
1, 484800, Tempo, 609694
1, 484800, Note_on_c, 0, 54, 0
1, 484800, Note_on_c, 0, 47, 0
1, 484800, Note_on_c, 0, 63, 0
1, 484800, Note_on_c, 0, 66, 0
1, 484800, Note_on_c, 0, 59, 0
1, 484800, Note_on_c, 0, 51, 0
1, 484800, Note_on_c, 0, 71, 0
1, 484800, Note_on_c, 0, 61, 75
1, 484800, Note_on_c, 0, 66, 75
1, 484800, Note_on_c, 0, 70, 85
1, 484800, Note_on_c, 0, 73, 85
1, 484800, Note_on_c, 0, 42, 54
1, 484800, Note_on_c, 0, 49, 54
1, 484800, Note_on_c, 0, 54, 63
1, 484812, Control_c, 0, 64, 0
1, 485052, Control_c, 0, 64, 127
1, 485280, Tempo, 469153
1, 485280, Note_on_c, 0, 54, 0
1, 485280, Note_on_c, 0, 42, 0
1, 485280, Note_on_c, 0, 66, 0
1, 485280, Note_on_c, 0, 70, 0
1, 485280, Note_on_c, 0, 61, 0
1, 485280, Note_on_c, 0, 49, 0
1, 485280, Note_on_c, 0, 73, 0
1, 485280, Note_on_c, 0, 91, 106
1, 485280, Note_on_c, 0, 87, 106
1, 485280, Note_on_c, 0, 79, 95
1, 485280, Note_on_c, 0, 34, 76
1, 485280, Note_on_c, 0, 46, 86
1, 485289, Control_c, 0, 64, 0
1, 485337, Control_c, 0, 64, 127
1, 485600, Note_on_c, 0, 46, 0
1, 485600, Note_on_c, 0, 34, 0
1, 485600, Note_on_c, 0, 50, 64
1, 485600, Note_on_c, 0, 62, 72
1, 485920, Note_on_c, 0, 62, 0
1, 485920, Note_on_c, 0, 91, 0
1, 485920, Note_on_c, 0, 79, 0
1, 485920, Note_on_c, 0, 87, 0
1, 485920, Note_on_c, 0, 50, 0
1, 485920, Note_on_c, 0, 79, 97
1, 485920, Note_on_c, 0, 75, 97
1, 485920, Note_on_c, 0, 67, 87
1, 485920, Note_on_c, 0, 51, 71
1, 485920, Note_on_c, 0, 63, 80
1, 485937, Control_c, 0, 64, 0
1, 485986, Control_c, 0, 64, 127
1, 486240, Note_on_c, 0, 63, 0
1, 486240, Note_on_c, 0, 51, 0
1, 486240, Note_on_c, 0, 38, 67
1, 486240, Note_on_c, 0, 50, 73
1, 486560, Tempo, 487250
1, 486560, Note_on_c, 0, 50, 0
1, 486560, Note_on_c, 0, 79, 0
1, 486560, Note_on_c, 0, 67, 0
1, 486560, Note_on_c, 0, 75, 0
1, 486560, Note_on_c, 0, 38, 0
1, 486560, Note_on_c, 0, 55, 80
1, 486560, Note_on_c, 0, 63, 90
1, 486560, Note_on_c, 0, 67, 90
1, 486560, Note_on_c, 0, 39, 70
1, 486560, Note_on_c, 0, 51, 79
1, 486577, Control_c, 0, 64, 0
1, 486650, Control_c, 0, 64, 127
1, 486880, Tempo, 530270
1, 486880, Note_on_c, 0, 51, 0
1, 486880, Note_on_c, 0, 39, 0
1, 486880, Note_on_c, 0, 34, 65
1, 486880, Note_on_c, 0, 46, 72
1, 487200, Tempo, 637416
1, 487200, Note_on_c, 0, 46, 0
1, 487200, Note_on_c, 0, 55, 0
1, 487200, Note_on_c, 0, 67, 0
1, 487200, Note_on_c, 0, 63, 0
1, 487200, Note_on_c, 0, 34, 0
1, 487200, Note_on_c, 0, 60, 81
1, 487200, Note_on_c, 0, 63, 81
1, 487200, Note_on_c, 0, 67, 88
1, 487200, Note_on_c, 0, 72, 88
1, 487200, Note_on_c, 0, 48, 62
1, 487200, Note_on_c, 0, 51, 67
1, 487200, Note_on_c, 0, 55, 67
1, 487211, Control_c, 0, 64, 0
1, 487387, Control_c, 0, 64, 127
1, 487680, Tempo, 769527
1, 487680, Note_on_c, 0, 55, 0
1, 487680, Note_on_c, 0, 48, 0
1, 487680, Note_on_c, 0, 63, 0
1, 487680, Note_on_c, 0, 67, 0
1, 487680, Note_on_c, 0, 60, 0
1, 487680, Note_on_c, 0, 51, 0
1, 487680, Note_on_c, 0, 72, 0
1, 487680, Note_on_c, 0, 62, 75
1, 487680, Note_on_c, 0, 65, 75
1, 487680, Note_on_c, 0, 70, 85
1, 487680, Note_on_c, 0, 74, 85
1, 487680, Note_on_c, 0, 46, 54
1, 487680, Note_on_c, 0, 53, 63
1, 487680, Note_on_c, 0, 58, 63
1, 487694, Control_c, 0, 64, 0
1, 487947, Control_c, 0, 64, 127
1, 488160, Time_signature, 4, 2, 24, 8
1, 488160, Tempo, 1205788
1, 488160, Note_on_c, 0, 58, 0
1, 488160, Note_on_c, 0, 46, 0
1, 488160, Note_on_c, 0, 65, 0
1, 488160, Note_on_c, 0, 70, 0
1, 488160, Note_on_c, 0, 62, 0
1, 488160, Note_on_c, 0, 53, 0
1, 488160, Note_on_c, 0, 74, 0
1, 488160, Note_on_c, 0, 51, 105
1, 488160, Note_on_c, 0, 27, 89
1, 488160, Note_on_c, 0, 39, 92
1, 488171, Control_c, 0, 64, 0
1, 488238, Control_c, 0, 64, 127
1, 488280, Tempo, 605694
1, 488280, Note_on_c, 0, 63, 83
1, 488280, Note_on_c, 0, 67, 83
1, 488280, Note_on_c, 0, 70, 99
1, 488280, Note_on_c, 0, 75, 99
1, 488280, Note_on_c, 0, 43, 66
1, 488280, Note_on_c, 0, 46, 66
1, 488280, Note_on_c, 0, 51, 80
1, 488280, Note_on_c, 0, 55, 80
1, 489960, Tempo, 1216052
1, 489960, Note_on_c, 0, 55, 0
1, 489960, Note_on_c, 0, 43, 0
1, 489960, Note_on_c, 0, 39, 0
1, 489960, Note_on_c, 0, 63, 0
1, 489960, Note_on_c, 0, 51, 0
1, 489960, Note_on_c, 0, 67, 0
1, 489960, Note_on_c, 0, 27, 0
1, 489960, Note_on_c, 0, 46, 0
1, 489960, Note_on_c, 0, 75, 0
1, 489960, Note_on_c, 0, 70, 0
1, 489960, Note_on_c, 0, 51, 0
1, 489960, Note_on_c, 0, 51, 95
1, 489960, Note_on_c, 0, 27, 80
1, 489960, Note_on_c, 0, 39, 91
1, 489966, Control_c, 0, 64, 0
1, 490080, Tempo, 611808
1, 490080, Note_on_c, 0, 65, 77
1, 490080, Note_on_c, 0, 70, 77
1, 490080, Note_on_c, 0, 74, 92
1, 490080, Note_on_c, 0, 77, 92
1, 490080, Note_on_c, 0, 41, 63
1, 490080, Note_on_c, 0, 46, 63
1, 490080, Note_on_c, 0, 50, 63
1, 490080, Note_on_c, 0, 53, 75
1, 490080, Control_c, 0, 64, 127
1, 491880, Tempo, 1205788
1, 491880, Note_on_c, 0, 53, 0
1, 491880, Note_on_c, 0, 41, 0
1, 491880, Note_on_c, 0, 39, 0
1, 491880, Note_on_c, 0, 65, 0
1, 491880, Note_on_c, 0, 51, 0
1, 491880, Note_on_c, 0, 70, 0
1, 491880, Note_on_c, 0, 27, 0
1, 491880, Note_on_c, 0, 46, 0
1, 491880, Note_on_c, 0, 77, 0
1, 491880, Note_on_c, 0, 74, 0
1, 491880, Note_on_c, 0, 50, 0
1, 491880, Note_on_c, 0, 51, 95
1, 491880, Note_on_c, 0, 39, 90
1, 491880, Note_on_c, 0, 27, 89
1, 491894, Control_c, 0, 64, 0
1, 491980, Tempo, 405680
1, 492000, Tempo, 411269
1, 492000, Note_on_c, 0, 67, 83
1, 492000, Note_on_c, 0, 70, 83
1, 492000, Note_on_c, 0, 75, 99
1, 492000, Note_on_c, 0, 79, 99
1, 492000, Note_on_c, 0, 43, 66
1, 492000, Note_on_c, 0, 46, 80
1, 492000, Note_on_c, 0, 51, 80
1, 492000, Control_c, 0, 64, 127
1, 493920, Tempo, 401768
1, 493920, Note_on_c, 0, 51, 0
1, 493920, Note_on_c, 0, 27, 0
1, 493920, Note_on_c, 0, 67, 0
1, 493920, Note_on_c, 0, 51, 0
1, 493920, Note_on_c, 0, 70, 0
1, 493920, Note_on_c, 0, 39, 0
1, 493920, Note_on_c, 0, 43, 0
1, 493920, Note_on_c, 0, 79, 0
1, 493920, Note_on_c, 0, 75, 0
1, 493920, Note_on_c, 0, 46, 0
1, 493920, Note_on_c, 0, 63, 79
1, 493920, Note_on_c, 0, 67, 79
1, 493920, Note_on_c, 0, 72, 94
1, 493920, Note_on_c, 0, 75, 94
1, 493920, Note_on_c, 0, 36, 63
1, 493920, Note_on_c, 0, 39, 63
1, 493920, Note_on_c, 0, 43, 75
1, 493920, Note_on_c, 0, 48, 75
1, 493932, Control_c, 0, 64, 0
1, 494160, Control_c, 0, 64, 127
1, 494880, Note_on_c, 0, 48, 0
1, 494880, Note_on_c, 0, 63, 0
1, 494880, Note_on_c, 0, 36, 0
1, 494880, Note_on_c, 0, 67, 0
1, 494880, Note_on_c, 0, 72, 0
1, 494880, Note_on_c, 0, 75, 0
1, 494880, Note_on_c, 0, 39, 0
1, 494880, Note_on_c, 0, 43, 0
1, 494880, Note_on_c, 0, 72, 72
1, 494880, Note_on_c, 0, 75, 86
1, 494880, Note_on_c, 0, 67, 72
1, 494880, Note_on_c, 0, 79, 86
1, 494880, Note_on_c, 0, 39, 61
1, 494880, Note_on_c, 0, 43, 61
1, 494880, Note_on_c, 0, 48, 70
1, 494880, Note_on_c, 0, 51, 70
1, 494889, Control_c, 0, 64, 0
1, 494920, Tempo, 410650
1, 495094, Control_c, 0, 64, 127
1, 495840, Tempo, 410650
1, 495840, Note_on_c, 0, 51, 0
1, 495840, Note_on_c, 0, 72, 0
1, 495840, Note_on_c, 0, 39, 0
1, 495840, Note_on_c, 0, 75, 0
1, 495840, Note_on_c, 0, 67, 0
1, 495840, Note_on_c, 0, 79, 0
1, 495840, Note_on_c, 0, 43, 0
1, 495840, Note_on_c, 0, 48, 0
1, 495840, Note_on_c, 0, 65, 73
1, 495840, Note_on_c, 0, 70, 73
1, 495840, Note_on_c, 0, 74, 89
1, 495840, Note_on_c, 0, 77, 89
1, 495840, Note_on_c, 0, 38, 61
1, 495840, Note_on_c, 0, 41, 61
1, 495840, Note_on_c, 0, 46, 70
1, 495840, Note_on_c, 0, 50, 70
1, 495849, Control_c, 0, 64, 0
1, 496080, Control_c, 0, 64, 127
1, 497760, Note_on_c, 0, 50, 0
1, 497760, Note_on_c, 0, 65, 0
1, 497760, Note_on_c, 0, 38, 0
1, 497760, Note_on_c, 0, 70, 0
1, 497760, Note_on_c, 0, 74, 0
1, 497760, Note_on_c, 0, 77, 0
1, 497760, Note_on_c, 0, 41, 0
1, 497760, Note_on_c, 0, 46, 0
1, 497760, Note_on_c, 0, 58, 81
1, 497760, Note_on_c, 0, 70, 95
1, 497760, Note_on_c, 0, 34, 80
1, 497760, Note_on_c, 0, 46, 80
1, 497770, Control_c, 0, 64, 0
1, 497958, Control_c, 0, 64, 127
1, 499560, Tempo, 1006543
1, 499560, Note_on_c, 0, 46, 0
1, 499560, Note_on_c, 0, 58, 0
1, 499560, Note_on_c, 0, 70, 0
1, 499560, Note_on_c, 0, 34, 0
1, 499560, Note_on_c, 0, 63, 99
1, 499560, Note_on_c, 0, 60, 99
1, 499560, Note_on_c, 0, 53, 82
1, 499560, Note_on_c, 0, 56, 82
1, 499576, Control_c, 0, 64, 0
1, 499663, Control_c, 0, 64, 127
1, 499680, Tempo, 507271
1, 499680, Note_on_c, 0, 56, 0
1, 499680, Note_on_c, 0, 63, 0
1, 499680, Note_on_c, 0, 60, 0
1, 499680, Note_on_c, 0, 53, 0
1, 499680, Note_on_c, 0, 68, 81
1, 499680, Note_on_c, 0, 72, 81
1, 499680, Note_on_c, 0, 75, 97
1, 499680, Note_on_c, 0, 80, 97
1, 499680, Note_on_c, 0, 29, 77
1, 499680, Note_on_c, 0, 41, 77
1, 501480, Tempo, 1006543
1, 501480, Note_on_c, 0, 41, 0
1, 501480, Note_on_c, 0, 72, 0
1, 501480, Note_on_c, 0, 75, 0
1, 501480, Note_on_c, 0, 68, 0
1, 501480, Note_on_c, 0, 29, 0
1, 501480, Note_on_c, 0, 80, 0
1, 501480, Note_on_c, 0, 67, 92
1, 501480, Note_on_c, 0, 62, 92
1, 501480, Note_on_c, 0, 55, 73
1, 501480, Note_on_c, 0, 58, 73
1, 501494, Control_c, 0, 64, 0
1, 501563, Control_c, 0, 64, 127
1, 501600, Tempo, 507271
1, 501600, Note_on_c, 0, 58, 0
1, 501600, Note_on_c, 0, 67, 0
1, 501600, Note_on_c, 0, 62, 0
1, 501600, Note_on_c, 0, 55, 0
1, 501600, Note_on_c, 0, 70, 81
1, 501600, Note_on_c, 0, 74, 81
1, 501600, Note_on_c, 0, 79, 97
1, 501600, Note_on_c, 0, 82, 97
1, 501600, Note_on_c, 0, 31, 77
1, 501600, Note_on_c, 0, 43, 77
1, 503400, Tempo, 991736
1, 503400, Note_on_c, 0, 43, 0
1, 503400, Note_on_c, 0, 74, 0
1, 503400, Note_on_c, 0, 79, 0
1, 503400, Note_on_c, 0, 70, 0
1, 503400, Note_on_c, 0, 31, 0
1, 503400, Note_on_c, 0, 82, 0
1, 503400, Note_on_c, 0, 63, 92
1, 503400, Note_on_c, 0, 67, 92
1, 503400, Note_on_c, 0, 51, 73
1, 503400, Note_on_c, 0, 58, 73
1, 503407, Control_c, 0, 64, 0
1, 503496, Control_c, 0, 64, 127
1, 503520, Tempo, 488958
1, 503520, Note_on_c, 0, 58, 0
1, 503520, Note_on_c, 0, 63, 0
1, 503520, Note_on_c, 0, 67, 0
1, 503520, Note_on_c, 0, 51, 0
1, 503520, Note_on_c, 0, 79, 89
1, 503520, Note_on_c, 0, 82, 89
1, 503520, Note_on_c, 0, 87, 108
1, 503520, Note_on_c, 0, 91, 108
1, 503520, Note_on_c, 0, 27, 77
1, 503520, Note_on_c, 0, 39, 86
1, 504480, Note_on_c, 0, 39, 0
1, 504480, Note_on_c, 0, 82, 0
1, 504480, Note_on_c, 0, 87, 0
1, 504480, Note_on_c, 0, 79, 0
1, 504480, Note_on_c, 0, 27, 0
1, 504480, Note_on_c, 0, 91, 0
1, 504480, Note_on_c, 0, 63, 84
1, 504480, Note_on_c, 0, 67, 84
1, 504480, Note_on_c, 0, 70, 99
1, 504480, Note_on_c, 0, 55, 67
1, 504480, Note_on_c, 0, 58, 67
1, 505440, Note_on_c, 0, 58, 0
1, 505440, Note_on_c, 0, 70, 0
1, 505440, Note_on_c, 0, 63, 0
1, 505440, Note_on_c, 0, 67, 0
1, 505440, Note_on_c, 0, 55, 0
1, 505440, Note_on_c, 0, 79, 89
1, 505440, Note_on_c, 0, 82, 89
1, 505440, Note_on_c, 0, 87, 108
1, 505440, Note_on_c, 0, 91, 108
1, 505440, Note_on_c, 0, 27, 77
1, 505440, Note_on_c, 0, 39, 86
1, 506400, Note_on_c, 0, 39, 0
1, 506400, Note_on_c, 0, 82, 0
1, 506400, Note_on_c, 0, 87, 0
1, 506400, Note_on_c, 0, 79, 0
1, 506400, Note_on_c, 0, 27, 0
1, 506400, Note_on_c, 0, 91, 0
1, 506400, Note_on_c, 0, 63, 84
1, 506400, Note_on_c, 0, 67, 85
1, 506400, Note_on_c, 0, 70, 99
1, 506400, Note_on_c, 0, 55, 67
1, 506400, Note_on_c, 0, 58, 67
1, 507320, Tempo, 471884
1, 507340, Tempo, 427046
1, 507360, Note_on_c, 0, 58, 0
1, 507360, Note_on_c, 0, 70, 0
1, 507360, Note_on_c, 0, 63, 0
1, 507360, Note_on_c, 0, 67, 0
1, 507360, Note_on_c, 0, 55, 0
1, 507360, Note_on_c, 0, 51, 95
1, 507360, Note_on_c, 0, 63, 108
1, 507360, Note_on_c, 0, 27, 70
1, 507368, Control_c, 0, 64, 0
1, 507380, Tempo, 424028
1, 507417, Control_c, 0, 64, 127
1, 507420, Tempo, 422535
1, 507480, Tempo, 424028
1, 507480, Note_on_c, 0, 27, 0
1, 507480, Note_on_c, 0, 39, 62
1, 507500, Tempo, 427046
1, 507520, Tempo, 428571
1, 507600, Note_on_c, 0, 39, 0
1, 507600, Note_on_c, 0, 27, 70
1, 507620, Tempo, 427046
1, 507640, Tempo, 422535
1, 507660, Tempo, 421053
1, 507700, Tempo, 419580
1, 507720, Note_on_c, 0, 27, 0
1, 507720, Note_on_c, 0, 39, 59
1, 507740, Tempo, 422535
1, 507780, Tempo, 425532
1, 507800, Tempo, 427046
1, 507840, Note_on_c, 0, 39, 0
1, 507840, Note_on_c, 0, 27, 70
1, 507860, Tempo, 425532
1, 507880, Tempo, 421053
1, 507900, Tempo, 418118
1, 507960, Note_on_c, 0, 27, 0
1, 507960, Note_on_c, 0, 39, 63
1, 507980, Tempo, 421053
1, 508000, Tempo, 422535
1, 508040, Tempo, 424028
1, 508080, Note_on_c, 0, 39, 0
1, 508080, Note_on_c, 0, 27, 71
1, 508120, Tempo, 419580
1, 508140, Tempo, 415225
1, 508200, Tempo, 416667
1, 508200, Note_on_c, 0, 27, 0
1, 508200, Note_on_c, 0, 39, 62
1, 508220, Tempo, 418118
1, 508240, Tempo, 419580
1, 508300, Tempo, 421053
1, 508320, Tempo, 422535
1, 508320, Note_on_c, 0, 39, 0
1, 508320, Note_on_c, 0, 27, 70
1, 508360, Tempo, 415225
1, 508440, Note_on_c, 0, 27, 0
1, 508440, Note_on_c, 0, 39, 62
1, 508500, Tempo, 418118
1, 508520, Tempo, 421053
1, 508540, Tempo, 424028
1, 508560, Note_on_c, 0, 39, 0
1, 508560, Note_on_c, 0, 27, 71
1, 508580, Tempo, 419580
1, 508600, Tempo, 418118
1, 508620, Tempo, 416667
1, 508660, Tempo, 415225
1, 508680, Note_on_c, 0, 27, 0
1, 508680, Note_on_c, 0, 39, 64
1, 508700, Tempo, 413793
1, 508800, Tempo, 415225
1, 508800, Note_on_c, 0, 39, 0
1, 508800, Note_on_c, 0, 27, 73
1, 508820, Tempo, 418118
1, 508860, Tempo, 419580
1, 508880, Tempo, 421053
1, 508920, Note_on_c, 0, 27, 0
1, 508920, Note_on_c, 0, 39, 65
1, 508940, Tempo, 413793
1, 508960, Tempo, 409556
1, 509040, Note_on_c, 0, 39, 0
1, 509040, Note_on_c, 0, 27, 76
1, 509080, Tempo, 410959
1, 509100, Tempo, 412371
1, 509140, Tempo, 413793
1, 509160, Tempo, 415225
1, 509160, Note_on_c, 0, 27, 0
1, 509160, Note_on_c, 0, 39, 66
1, 509220, Tempo, 413793
1, 509240, Tempo, 410959
1, 509260, Tempo, 409556
1, 509280, Note_on_c, 0, 39, 0
1, 509280, Note_on_c, 0, 27, 79
1, 509300, Tempo, 408163
1, 509380, Tempo, 409556
1, 509400, Tempo, 412371
1, 509400, Note_on_c, 0, 27, 0
1, 509400, Note_on_c, 0, 39, 70
1, 509460, Tempo, 415225
1, 509520, Note_on_c, 0, 39, 0
1, 509520, Note_on_c, 0, 27, 81
1, 509560, Tempo, 413793
1, 509580, Tempo, 410959
1, 509620, Tempo, 408163
1, 509640, Tempo, 405405
1, 509640, Note_on_c, 0, 27, 0
1, 509640, Note_on_c, 0, 39, 72
1, 509760, Tempo, 406780
1, 509760, Note_on_c, 0, 39, 0
1, 509760, Note_on_c, 0, 27, 83
1, 509800, Tempo, 408163
1, 509840, Tempo, 409556
1, 509880, Note_on_c, 0, 27, 0
1, 509880, Note_on_c, 0, 39, 77
1, 509920, Tempo, 408163
1, 509940, Tempo, 406780
1, 509960, Tempo, 405405
1, 509980, Tempo, 404040
1, 510000, Tempo, 402685
1, 510000, Note_on_c, 0, 39, 0
1, 510000, Note_on_c, 0, 27, 86
1, 510100, Tempo, 405405
1, 510120, Note_on_c, 0, 27, 0
1, 510120, Note_on_c, 0, 39, 80
1, 510140, Tempo, 406780
1, 510180, Tempo, 405405
1, 510200, Tempo, 402685
1, 510240, Tempo, 401338
1, 510240, Note_on_c, 0, 39, 0
1, 510240, Note_on_c, 0, 27, 88
1, 510260, Tempo, 400000
1, 510280, Tempo, 398671
1, 510360, Tempo, 400000
1, 510360, Note_on_c, 0, 27, 0
1, 510360, Note_on_c, 0, 39, 80
1, 510400, Tempo, 402685
1, 510420, Tempo, 404040
1, 510440, Tempo, 405405
1, 510460, Tempo, 406780
1, 510480, Note_on_c, 0, 39, 0
1, 510480, Note_on_c, 0, 27, 91
1, 510560, Tempo, 405405
1, 510580, Tempo, 402685
1, 510600, Tempo, 401338
1, 510600, Note_on_c, 0, 27, 0
1, 510600, Note_on_c, 0, 39, 84
1, 510640, Tempo, 400000
1, 510660, Tempo, 397351
1, 510680, Tempo, 396040
1, 510700, Tempo, 394737
1, 510720, Note_on_c, 0, 39, 0
1, 510720, Note_on_c, 0, 27, 99
1, 510760, Tempo, 396040
1, 510800, Tempo, 398671
1, 510820, Tempo, 400000
1, 510840, Tempo, 401338
1, 510840, Note_on_c, 0, 27, 0
1, 510840, Note_on_c, 0, 39, 89
1, 510880, Tempo, 402685
1, 510900, Tempo, 404040
1, 510940, Tempo, 402685
1, 510960, Tempo, 401338
1, 510960, Note_on_c, 0, 39, 0
1, 510960, Note_on_c, 0, 27, 103
1, 510980, Tempo, 400000
1, 511020, Tempo, 398671
1, 511060, Tempo, 397351
1, 511080, Note_on_c, 0, 27, 0
1, 511080, Note_on_c, 0, 39, 92
1, 511200, Tempo, 396537
1, 511200, Note_on_c, 0, 39, 0
1, 511200, Note_on_c, 0, 63, 0
1, 511200, Note_on_c, 0, 51, 0
1, 511200, Note_on_c, 0, 51, 110
1, 511200, Note_on_c, 0, 27, 96
1, 511200, Note_on_c, 0, 39, 104
1, 512640, Marker_t, "Fine"
1, 512640, Note_on_c, 0, 39, 0
1, 512640, Note_on_c, 0, 27, 0
1, 512640, Note_on_c, 0, 51, 0
1, 513120, Tempo, 545455
1, 516320, Control_c, 0, 64, 0
1, 516320, End_track
0, 0, End_of_file
