0, 0, Header, 1, 3, 384
1, 0, Start_track
1, 0, Title_t, "Cecile Chaminade Album des Enfants 2nd serie"
1, 0, Title_t, "Opus 126 No.2 Aubade"
1, 0, Text_t, "Cecile Chaminade"
1, 0, Text_t, "\012"
1, 0, Time_signature, 2, 2, 24, 8
1, 0, Key_signature, 0, "major"
1, 0, Tempo, 629393
1, 576, Tempo, 720548
1, 768, Tempo, 631712
1, 1344, Tempo, 720548
1, 1536, Tempo, 631712
1, 2112, Tempo, 713182
1, 2304, Tempo, 631712
1, 2496, Tempo, 688310
1, 2688, Tempo, 627484
1, 2880, Tempo, 705882
1, 3072, Tempo, 631712
1, 3648, Tempo, 737826
1, 3840, Tempo, 631712
1, 4416, Tempo, 720548
1, 4608, Tempo, 640547
1, 5184, Tempo, 720548
1, 5376, Tempo, 772798
1, 5952, Tempo, 830795
1, 6528, Tempo, 636132
1, 6720, Tempo, 720548
1, 6912, Tempo, 631712
1, 7488, Tempo, 720548
1, 7680, Tempo, 631712
1, 8256, Tempo, 713182
1, 8448, Tempo, 631712
1, 8640, Tempo, 688310
1, 8832, Tempo, 627484
1, 9024, Tempo, 705882
1, 9216, Tempo, 631712
1, 9792, Tempo, 737826
1, 9984, Tempo, 631712
1, 10560, Tempo, 720548
1, 10752, Tempo, 640547
1, 11328, Tempo, 774194
1, 11904, Tempo, 916031
1, 12672, Tempo, 645023
1, 13056, Tempo, 649562
1, 13632, Tempo, 737826
1, 13824, Tempo, 645023
1, 15264, Tempo, 886656
1, 15360, Tempo, 645023
1, 16128, Tempo, 649562
1, 16704, Tempo, 737826
1, 16896, Tempo, 645023
1, 18336, Tempo, 658834
1, 25728, Tempo, 704060
1, 26880, Tempo, 806668
1, 27264, Tempo, 875912
1, 28032, Tempo, 674840
1, 32640, Tempo, 835887
1, 32832, Tempo, 931388
1, 33408, Tempo, 1061947
1, 33408, End_track
2, 0, Start_track
2, 0, Title_t, "Piano RH"
2, 0, Control_c, 0, 7, 105
2, 0, Control_c, 0, 10, 80
2, 0, Control_c, 0, 91, 100
2, 16, Control_c, 0, 121, 0
2, 384, Note_on_c, 0, 69, 76
2, 576, Note_on_c, 0, 72, 76
2, 674, Note_on_c, 0, 72, 0
2, 748, Note_on_c, 0, 69, 0
2, 768, Note_on_c, 0, 71, 90
2, 1102, Note_on_c, 0, 71, 0
2, 1152, Note_on_c, 0, 68, 76
2, 1344, Note_on_c, 0, 71, 76
2, 1442, Note_on_c, 0, 71, 0
2, 1516, Note_on_c, 0, 68, 0
2, 1536, Note_on_c, 0, 64, 90
2, 1870, Note_on_c, 0, 64, 0
2, 1920, Note_on_c, 0, 69, 67
2, 2016, Note_on_c, 0, 71, 76
2, 2102, Note_on_c, 0, 69, 0
2, 2112, Note_on_c, 0, 76, 80
2, 2198, Note_on_c, 0, 71, 0
2, 2210, Note_on_c, 0, 76, 0
2, 2304, Note_on_c, 0, 71, 70
2, 2400, Note_on_c, 0, 72, 76
2, 2486, Note_on_c, 0, 71, 0
2, 2496, Note_on_c, 0, 77, 78
2, 2582, Note_on_c, 0, 72, 0
2, 2688, Note_on_c, 0, 68, 76
2, 2758, Note_on_c, 0, 77, 0
2, 2880, Note_on_c, 0, 76, 76
2, 2978, Note_on_c, 0, 76, 0
2, 2989, Note_on_c, 0, 68, 0
2, 3072, Note_on_c, 0, 64, 90
2, 3406, Note_on_c, 0, 64, 0
2, 3456, Note_on_c, 0, 76, 87
2, 3648, Note_on_c, 0, 79, 92
2, 3743, Note_on_c, 0, 76, 0
2, 3840, Note_on_c, 0, 79, 0
2, 3840, Note_on_c, 0, 69, 98
2, 4174, Note_on_c, 0, 69, 0
2, 4224, Note_on_c, 0, 74, 87
2, 4416, Note_on_c, 0, 77, 87
2, 4512, Note_on_c, 0, 74, 0
2, 4608, Note_on_c, 0, 77, 0
2, 4608, Note_on_c, 0, 68, 88
2, 4942, Note_on_c, 0, 68, 0
2, 4992, Note_on_c, 0, 69, 81
2, 5174, Note_on_c, 0, 69, 0
2, 5184, Note_on_c, 0, 72, 74
2, 5376, Note_on_c, 0, 72, 0
2, 5376, Note_on_c, 0, 71, 65
2, 5568, Note_on_c, 0, 71, 0
2, 5568, Note_on_c, 0, 76, 69
2, 5760, Note_on_c, 0, 76, 0
2, 5760, Note_on_c, 0, 69, 63
2, 5952, Note_on_c, 0, 69, 0
2, 5952, Note_on_c, 0, 75, 63
2, 6144, Note_on_c, 0, 75, 0
2, 6144, Note_on_c, 0, 76, 63
2, 6528, Note_on_c, 0, 76, 0
2, 6528, Note_on_c, 0, 69, 63
2, 6720, Note_on_c, 0, 72, 63
2, 6816, Note_on_c, 0, 69, 0
2, 6912, Note_on_c, 0, 72, 0
2, 6912, Note_on_c, 0, 76, 75
2, 7246, Note_on_c, 0, 76, 0
2, 7296, Note_on_c, 0, 68, 63
2, 7488, Note_on_c, 0, 71, 63
2, 7584, Note_on_c, 0, 68, 0
2, 7586, Note_on_c, 0, 71, 0
2, 7680, Note_on_c, 0, 64, 75
2, 8014, Note_on_c, 0, 64, 0
2, 8064, Note_on_c, 0, 69, 63
2, 8160, Note_on_c, 0, 71, 63
2, 8208, Note_on_c, 0, 69, 0
2, 8256, Note_on_c, 0, 76, 63
2, 8304, Note_on_c, 0, 71, 0
2, 8354, Note_on_c, 0, 76, 0
2, 8448, Note_on_c, 0, 71, 63
2, 8544, Note_on_c, 0, 72, 63
2, 8592, Note_on_c, 0, 71, 0
2, 8640, Note_on_c, 0, 77, 63
2, 8688, Note_on_c, 0, 72, 0
2, 8738, Note_on_c, 0, 77, 0
2, 8832, Note_on_c, 0, 68, 63
2, 9024, Note_on_c, 0, 76, 63
2, 9120, Note_on_c, 0, 68, 0
2, 9122, Note_on_c, 0, 76, 0
2, 9216, Note_on_c, 0, 64, 74
2, 9550, Note_on_c, 0, 64, 0
2, 9600, Note_on_c, 0, 76, 85
2, 9792, Note_on_c, 0, 79, 88
2, 9888, Note_on_c, 0, 76, 0
2, 9984, Note_on_c, 0, 79, 0
2, 9984, Note_on_c, 0, 69, 96
2, 10318, Note_on_c, 0, 69, 0
2, 10368, Note_on_c, 0, 74, 78
2, 10560, Note_on_c, 0, 77, 83
2, 10656, Note_on_c, 0, 74, 0
2, 10752, Note_on_c, 0, 77, 0
2, 10752, Note_on_c, 0, 68, 89
2, 11136, Note_on_c, 0, 68, 0
2, 11136, Note_on_c, 0, 69, 77
2, 11283, Note_on_c, 0, 69, 0
2, 11328, Note_on_c, 0, 76, 70
2, 11426, Note_on_c, 0, 76, 0
2, 11520, Note_on_c, 0, 70, 60
2, 11667, Note_on_c, 0, 70, 0
2, 11712, Note_on_c, 0, 77, 72
2, 11810, Note_on_c, 0, 77, 0
2, 11904, Note_on_c, 0, 68, 63
2, 12051, Note_on_c, 0, 68, 0
2, 12096, Note_on_c, 0, 80, 74
2, 12194, Note_on_c, 0, 80, 0
2, 12288, Note_on_c, 0, 81, 74
2, 12672, Note_on_c, 0, 81, 0
2, 12672, Note_on_c, 0, 72, 87
2, 12770, Note_on_c, 0, 72, 0
2, 12864, Note_on_c, 0, 72, 85
2, 12962, Note_on_c, 0, 72, 0
2, 13056, Note_on_c, 0, 60, 88
2, 13344, Note_on_c, 0, 64, 87
2, 13440, Note_on_c, 0, 62, 78
2, 13488, Note_on_c, 0, 64, 0
2, 13488, Note_on_c, 0, 60, 0
2, 13536, Note_on_c, 0, 65, 87
2, 13584, Note_on_c, 0, 62, 0
2, 13632, Note_on_c, 0, 64, 80
2, 13680, Note_on_c, 0, 65, 0
2, 13728, Note_on_c, 0, 67, 87
2, 13776, Note_on_c, 0, 64, 0
2, 13824, Note_on_c, 0, 67, 0
2, 13824, Note_on_c, 0, 65, 80
2, 13920, Note_on_c, 0, 67, 87
2, 13968, Note_on_c, 0, 65, 0
2, 14016, Note_on_c, 0, 69, 83
2, 14064, Note_on_c, 0, 67, 0
2, 14112, Note_on_c, 0, 72, 90
2, 14160, Note_on_c, 0, 69, 0
2, 14208, Note_on_c, 0, 72, 0
2, 14208, Note_on_c, 0, 71, 88
2, 14592, Note_on_c, 0, 71, 0
2, 14592, Note_on_c, 0, 67, 82
2, 14688, Note_on_c, 0, 69, 77
2, 14736, Note_on_c, 0, 67, 0
2, 14784, Note_on_c, 0, 71, 83
2, 14832, Note_on_c, 0, 69, 0
2, 14880, Note_on_c, 0, 72, 85
2, 14928, Note_on_c, 0, 71, 0
2, 14976, Note_on_c, 0, 72, 0
2, 14976, Note_on_c, 0, 74, 90
2, 15160, Note_on_c, 0, 74, 0
2, 15168, Note_on_c, 0, 74, 85
2, 15264, Note_on_c, 0, 74, 0
2, 15264, Note_on_c, 0, 76, 96
2, 15360, Note_on_c, 0, 76, 0
2, 15360, Note_on_c, 0, 72, 85
2, 15744, Note_on_c, 0, 72, 0
2, 15744, Note_on_c, 0, 76, 88
2, 15842, Note_on_c, 0, 76, 0
2, 15936, Note_on_c, 0, 76, 88
2, 16034, Note_on_c, 0, 76, 0
2, 16128, Note_on_c, 0, 64, 82
2, 16416, Note_on_c, 0, 68, 85
2, 16510, Note_on_c, 0, 64, 0
2, 16512, Note_on_c, 0, 66, 78
2, 16560, Note_on_c, 0, 68, 0
2, 16608, Note_on_c, 0, 69, 85
2, 16656, Note_on_c, 0, 66, 0
2, 16704, Note_on_c, 0, 68, 80
2, 16752, Note_on_c, 0, 69, 0
2, 16800, Note_on_c, 0, 71, 88
2, 16848, Note_on_c, 0, 68, 0
2, 16896, Note_on_c, 0, 71, 0
2, 16896, Note_on_c, 0, 69, 87
2, 16992, Note_on_c, 0, 71, 79
2, 17040, Note_on_c, 0, 69, 0
2, 17088, Note_on_c, 0, 72, 74
2, 17136, Note_on_c, 0, 71, 0
2, 17184, Note_on_c, 0, 69, 70
2, 17232, Note_on_c, 0, 72, 0
2, 17280, Note_on_c, 0, 77, 63
2, 17328, Note_on_c, 0, 69, 0
2, 17378, Note_on_c, 0, 77, 0
2, 17472, Note_on_c, 0, 77, 63
2, 17570, Note_on_c, 0, 77, 0
2, 17664, Note_on_c, 0, 65, 75
2, 17952, Note_on_c, 0, 69, 63
2, 18046, Note_on_c, 0, 65, 0
2, 18048, Note_on_c, 0, 67, 57
2, 18096, Note_on_c, 0, 69, 0
2, 18144, Note_on_c, 0, 70, 63
2, 18192, Note_on_c, 0, 67, 0
2, 18240, Note_on_c, 0, 69, 59
2, 18288, Note_on_c, 0, 70, 0
2, 18336, Note_on_c, 0, 72, 69
2, 18384, Note_on_c, 0, 69, 0
2, 18432, Note_on_c, 0, 72, 0
2, 18432, Note_on_c, 0, 70, 63
2, 18816, Note_on_c, 0, 70, 0
2, 18816, Note_on_c, 0, 77, 88
2, 18914, Note_on_c, 0, 77, 0
2, 19008, Note_on_c, 0, 77, 85
2, 19106, Note_on_c, 0, 77, 0
2, 19200, Note_on_c, 0, 70, 95
2, 19342, Note_on_c, 0, 70, 0
2, 19392, Note_on_c, 0, 69, 87
2, 19490, Note_on_c, 0, 69, 0
2, 19584, Note_on_c, 0, 77, 63
2, 19682, Note_on_c, 0, 77, 0
2, 19776, Note_on_c, 0, 77, 63
2, 19874, Note_on_c, 0, 77, 0
2, 19968, Note_on_c, 0, 69, 98
2, 20110, Note_on_c, 0, 69, 0
2, 20160, Note_on_c, 0, 68, 88
2, 20258, Note_on_c, 0, 68, 0
2, 20352, Note_on_c, 0, 76, 72
2, 20450, Note_on_c, 0, 76, 0
2, 20544, Note_on_c, 0, 76, 72
2, 20642, Note_on_c, 0, 76, 0
2, 20736, Note_on_c, 0, 67, 78
2, 20832, Note_on_c, 0, 69, 85
2, 20880, Note_on_c, 0, 67, 0
2, 20928, Note_on_c, 0, 66, 78
2, 20976, Note_on_c, 0, 69, 0
2, 21120, Note_on_c, 0, 66, 0
2, 21120, Note_on_c, 0, 65, 74
2, 21216, Note_on_c, 0, 67, 85
2, 21264, Note_on_c, 0, 65, 0
2, 21312, Note_on_c, 0, 64, 77
2, 21360, Note_on_c, 0, 67, 0
2, 21456, Note_on_c, 0, 64, 0
2, 21504, Note_on_c, 0, 62, 85
2, 21838, Note_on_c, 0, 62, 0
2, 21888, Note_on_c, 0, 69, 75
2, 22076, Note_on_c, 0, 69, 0
2, 22080, Note_on_c, 0, 69, 72
2, 22272, Note_on_c, 0, 69, 0
2, 22272, Note_on_c, 0, 74, 72
2, 22656, Note_on_c, 0, 74, 0
2, 22656, Note_on_c, 0, 72, 63
2, 22840, Note_on_c, 0, 72, 0
2, 22848, Note_on_c, 0, 72, 63
2, 23040, Note_on_c, 0, 72, 0
2, 23040, Note_on_c, 0, 67, 63
2, 23424, Note_on_c, 0, 67, 0
2, 23424, Note_on_c, 0, 69, 63
2, 23613, Note_on_c, 0, 69, 0
2, 23616, Note_on_c, 0, 69, 63
2, 23808, Note_on_c, 0, 69, 0
2, 23808, Note_on_c, 0, 74, 74
2, 23992, Note_on_c, 0, 74, 0
2, 24000, Note_on_c, 0, 74, 69
2, 24192, Note_on_c, 0, 74, 0
2, 24192, Note_on_c, 0, 72, 67
2, 24288, Note_on_c, 0, 71, 57
2, 24336, Note_on_c, 0, 72, 0
2, 24384, Note_on_c, 0, 72, 63
2, 24432, Note_on_c, 0, 71, 0
2, 24480, Note_on_c, 0, 69, 57
2, 24528, Note_on_c, 0, 72, 0
2, 24576, Note_on_c, 0, 69, 0
2, 24576, Note_on_c, 0, 67, 59
2, 24960, Note_on_c, 0, 67, 0
2, 24960, Note_on_c, 0, 76, 96
2, 25152, Note_on_c, 0, 76, 0
2, 25152, Note_on_c, 0, 74, 85
2, 25248, Note_on_c, 0, 76, 96
2, 25296, Note_on_c, 0, 74, 0
2, 25344, Note_on_c, 0, 72, 85
2, 25392, Note_on_c, 0, 76, 0
2, 25536, Note_on_c, 0, 72, 0
2, 25536, Note_on_c, 0, 71, 82
2, 25632, Note_on_c, 0, 72, 88
2, 25680, Note_on_c, 0, 71, 0
2, 25728, Note_on_c, 0, 69, 87
2, 25776, Note_on_c, 0, 72, 0
2, 25920, Note_on_c, 0, 69, 0
2, 25920, Note_on_c, 0, 67, 85
2, 26112, Note_on_c, 0, 67, 0
2, 26112, Note_on_c, 0, 66, 92
2, 26496, Note_on_c, 0, 66, 0
2, 26496, Note_on_c, 0, 65, 63
2, 26643, Note_on_c, 0, 65, 0
2, 26688, Note_on_c, 0, 72, 74
2, 26786, Note_on_c, 0, 72, 0
2, 26880, Note_on_c, 0, 64, 63
2, 27027, Note_on_c, 0, 64, 0
2, 27072, Note_on_c, 0, 72, 77
2, 27170, Note_on_c, 0, 72, 0
2, 27264, Note_on_c, 0, 62, 63
2, 27411, Note_on_c, 0, 62, 0
2, 27456, Note_on_c, 0, 71, 75
2, 27554, Note_on_c, 0, 71, 0
2, 27648, Note_on_c, 0, 72, 72
2, 28032, Note_on_c, 0, 72, 0
2, 28032, Note_on_c, 0, 69, 85
2, 28224, Note_on_c, 0, 72, 85
2, 28320, Note_on_c, 0, 69, 0
2, 28322, Note_on_c, 0, 72, 0
2, 28416, Note_on_c, 0, 71, 96
2, 28750, Note_on_c, 0, 71, 0
2, 28800, Note_on_c, 0, 68, 85
2, 28992, Note_on_c, 0, 71, 85
2, 29088, Note_on_c, 0, 68, 0
2, 29090, Note_on_c, 0, 71, 0
2, 29184, Note_on_c, 0, 64, 95
2, 29518, Note_on_c, 0, 64, 0
2, 29568, Note_on_c, 0, 69, 78
2, 29664, Note_on_c, 0, 71, 85
2, 29712, Note_on_c, 0, 69, 0
2, 29760, Note_on_c, 0, 76, 88
2, 29808, Note_on_c, 0, 71, 0
2, 29858, Note_on_c, 0, 76, 0
2, 29952, Note_on_c, 0, 71, 80
2, 30048, Note_on_c, 0, 72, 85
2, 30096, Note_on_c, 0, 71, 0
2, 30144, Note_on_c, 0, 77, 90
2, 30192, Note_on_c, 0, 72, 0
2, 30242, Note_on_c, 0, 77, 0
2, 30336, Note_on_c, 0, 68, 85
2, 30528, Note_on_c, 0, 76, 93
2, 30624, Note_on_c, 0, 68, 0
2, 30626, Note_on_c, 0, 76, 0
2, 30720, Note_on_c, 0, 64, 101
2, 31054, Note_on_c, 0, 64, 0
2, 31104, Note_on_c, 0, 76, 95
2, 31296, Note_on_c, 0, 79, 93
2, 31392, Note_on_c, 0, 76, 0
2, 31488, Note_on_c, 0, 79, 0
2, 31488, Note_on_c, 0, 69, 100
2, 31822, Note_on_c, 0, 69, 0
2, 31872, Note_on_c, 0, 74, 92
2, 32064, Note_on_c, 0, 77, 95
2, 32160, Note_on_c, 0, 74, 0
2, 32256, Note_on_c, 0, 77, 0
2, 32256, Note_on_c, 0, 68, 96
2, 32640, Note_on_c, 0, 68, 0
2, 32640, Note_on_c, 0, 69, 72
2, 32787, Note_on_c, 0, 69, 0
2, 32832, Note_on_c, 0, 76, 77
2, 32930, Note_on_c, 0, 76, 0
2, 33024, Note_on_c, 0, 70, 69
2, 33171, Note_on_c, 0, 70, 0
2, 33216, Note_on_c, 0, 77, 72
2, 33314, Note_on_c, 0, 77, 0
2, 33408, Note_on_c, 0, 68, 63
2, 33555, Note_on_c, 0, 68, 0
2, 33600, Note_on_c, 0, 80, 72
2, 33698, Note_on_c, 0, 80, 0
2, 33792, Note_on_c, 0, 81, 63
2, 34176, Note_on_c, 0, 81, 0
2, 34176, End_track
3, 0, Start_track
3, 0, Title_t, "Piano LH"
3, 0, Program_c, 0, 0
3, 0, Control_c, 0, 7, 105
3, 0, Control_c, 0, 10, 48
3, 0, Control_c, 0, 91, 100
3, 16, Control_c, 0, 121, 0
3, 384, Note_on_c, 0, 60, 57
3, 576, Note_on_c, 0, 64, 57
3, 674, Note_on_c, 0, 64, 0
3, 748, Note_on_c, 0, 60, 0
3, 768, Control_c, 0, 64, 127
3, 768, Note_on_c, 0, 57, 72
3, 768, Note_on_c, 0, 62, 72
3, 768, Note_on_c, 0, 65, 72
3, 1102, Note_on_c, 0, 65, 0
3, 1102, Note_on_c, 0, 62, 0
3, 1102, Note_on_c, 0, 57, 0
3, 1125, Control_c, 0, 64, 0
3, 1152, Note_on_c, 0, 59, 57
3, 1344, Note_on_c, 0, 62, 57
3, 1442, Note_on_c, 0, 62, 0
3, 1516, Note_on_c, 0, 59, 0
3, 1536, Note_on_c, 0, 45, 70
3, 1536, Note_on_c, 0, 52, 70
3, 1536, Note_on_c, 0, 60, 70
3, 1550, Control_c, 0, 64, 127
3, 1870, Note_on_c, 0, 60, 0
3, 1870, Note_on_c, 0, 52, 0
3, 1870, Note_on_c, 0, 45, 0
3, 1893, Control_c, 0, 64, 0
3, 1920, Note_on_c, 0, 60, 57
3, 2016, Note_on_c, 0, 59, 57
3, 2102, Note_on_c, 0, 60, 0
3, 2112, Note_on_c, 0, 57, 57
3, 2112, Note_on_c, 0, 72, 57
3, 2198, Note_on_c, 0, 59, 0
3, 2210, Note_on_c, 0, 72, 0
3, 2210, Note_on_c, 0, 57, 0
3, 2304, Note_on_c, 0, 62, 57
3, 2400, Note_on_c, 0, 60, 57
3, 2486, Note_on_c, 0, 62, 0
3, 2496, Note_on_c, 0, 59, 57
3, 2496, Note_on_c, 0, 74, 57
3, 2582, Note_on_c, 0, 60, 0
3, 2688, Note_on_c, 0, 64, 57
3, 2758, Note_on_c, 0, 74, 0
3, 2758, Note_on_c, 0, 59, 0
3, 2880, Note_on_c, 0, 62, 57
3, 2880, Note_on_c, 0, 71, 57
3, 2975, Note_on_c, 0, 64, 0
3, 2978, Note_on_c, 0, 71, 0
3, 2978, Note_on_c, 0, 62, 0
3, 3072, Note_on_c, 0, 45, 69
3, 3072, Note_on_c, 0, 52, 69
3, 3072, Note_on_c, 0, 60, 69
3, 3086, Control_c, 0, 64, 127
3, 3406, Note_on_c, 0, 60, 0
3, 3406, Note_on_c, 0, 52, 0
3, 3406, Note_on_c, 0, 45, 0
3, 3436, Control_c, 0, 64, 0
3, 3456, Note_on_c, 0, 60, 67
3, 3456, Note_on_c, 0, 72, 57
3, 3648, Note_on_c, 0, 71, 57
3, 3790, Note_on_c, 0, 60, 0
3, 3840, Note_on_c, 0, 53, 67
3, 3840, Note_on_c, 0, 65, 77
3, 3847, Note_on_c, 0, 72, 0
3, 3854, Note_on_c, 0, 71, 0
3, 4032, Note_on_c, 0, 53, 0
3, 4032, Note_on_c, 0, 64, 57
3, 4174, Note_on_c, 0, 65, 0
3, 4224, Note_on_c, 0, 64, 0
3, 4224, Note_on_c, 0, 62, 67
3, 4224, Note_on_c, 0, 71, 57
3, 4224, Note_on_c, 0, 74, 57
3, 4416, Note_on_c, 0, 69, 57
3, 4512, Note_on_c, 0, 74, 0
3, 4512, Note_on_c, 0, 71, 0
3, 4608, Note_on_c, 0, 62, 0
3, 4608, Note_on_c, 0, 69, 0
3, 4608, Note_on_c, 0, 52, 57
3, 4608, Note_on_c, 0, 64, 77
3, 4704, Note_on_c, 0, 53, 70
3, 4752, Note_on_c, 0, 52, 0
3, 4800, Note_on_c, 0, 50, 70
3, 4848, Note_on_c, 0, 53, 0
3, 4942, Note_on_c, 0, 64, 0
3, 4992, Note_on_c, 0, 50, 0
3, 4992, Note_on_c, 0, 48, 62
3, 4992, Note_on_c, 0, 64, 62
3, 5020, Control_c, 0, 64, 127
3, 5184, Note_on_c, 0, 45, 62
3, 5184, Note_on_c, 0, 69, 62
3, 5280, Note_on_c, 0, 64, 0
3, 5280, Note_on_c, 0, 48, 0
3, 5342, Control_c, 0, 64, 0
3, 5376, Note_on_c, 0, 45, 0
3, 5376, Note_on_c, 0, 69, 0
3, 5376, Note_on_c, 0, 55, 60
3, 5376, Note_on_c, 0, 64, 60
3, 5397, Control_c, 0, 64, 127
3, 5568, Note_on_c, 0, 64, 0
3, 5568, Note_on_c, 0, 55, 0
3, 5568, Note_on_c, 0, 43, 57
3, 5568, Note_on_c, 0, 71, 57
3, 5719, Control_c, 0, 64, 0
3, 5760, Note_on_c, 0, 71, 0
3, 5760, Note_on_c, 0, 43, 0
3, 5760, Note_on_c, 0, 42, 57
3, 5760, Note_on_c, 0, 64, 57
3, 5952, Note_on_c, 0, 64, 0
3, 5952, Note_on_c, 0, 42, 0
3, 5952, Note_on_c, 0, 41, 57
3, 5952, Note_on_c, 0, 69, 57
3, 6144, Note_on_c, 0, 69, 0
3, 6144, Note_on_c, 0, 41, 0
3, 6144, Note_on_c, 0, 40, 57
3, 6144, Note_on_c, 0, 47, 57
3, 6144, Note_on_c, 0, 68, 57
3, 6165, Control_c, 0, 64, 127
3, 6508, Control_c, 0, 64, 0
3, 6528, Note_on_c, 0, 68, 0
3, 6528, Note_on_c, 0, 47, 0
3, 6528, Note_on_c, 0, 40, 0
3, 6528, Note_on_c, 0, 60, 57
3, 6720, Note_on_c, 0, 64, 57
3, 6816, Note_on_c, 0, 60, 0
3, 6912, Note_on_c, 0, 64, 0
3, 6912, Note_on_c, 0, 52, 77
3, 6912, Note_on_c, 0, 62, 77
3, 6912, Note_on_c, 0, 71, 77
3, 6926, Control_c, 0, 64, 127
3, 7246, Note_on_c, 0, 71, 0
3, 7246, Note_on_c, 0, 62, 0
3, 7246, Note_on_c, 0, 52, 0
3, 7262, Control_c, 0, 64, 0
3, 7296, Note_on_c, 0, 59, 57
3, 7488, Note_on_c, 0, 62, 57
3, 7584, Note_on_c, 0, 59, 0
3, 7586, Note_on_c, 0, 62, 0
3, 7680, Note_on_c, 0, 45, 77
3, 7680, Note_on_c, 0, 52, 77
3, 7680, Note_on_c, 0, 60, 77
3, 7701, Control_c, 0, 64, 127
3, 8014, Note_on_c, 0, 60, 0
3, 8014, Note_on_c, 0, 52, 0
3, 8014, Note_on_c, 0, 45, 0
3, 8037, Control_c, 0, 64, 0
3, 8064, Note_on_c, 0, 60, 57
3, 8160, Note_on_c, 0, 59, 57
3, 8208, Note_on_c, 0, 60, 0
3, 8256, Note_on_c, 0, 57, 57
3, 8256, Note_on_c, 0, 72, 57
3, 8304, Note_on_c, 0, 59, 0
3, 8354, Note_on_c, 0, 72, 0
3, 8354, Note_on_c, 0, 57, 0
3, 8448, Note_on_c, 0, 62, 57
3, 8544, Note_on_c, 0, 60, 57
3, 8592, Note_on_c, 0, 62, 0
3, 8640, Note_on_c, 0, 59, 57
3, 8640, Note_on_c, 0, 74, 57
3, 8688, Note_on_c, 0, 60, 0
3, 8738, Note_on_c, 0, 74, 0
3, 8738, Note_on_c, 0, 59, 0
3, 8832, Note_on_c, 0, 64, 57
3, 9024, Note_on_c, 0, 62, 57
3, 9024, Note_on_c, 0, 71, 57
3, 9120, Note_on_c, 0, 64, 0
3, 9122, Note_on_c, 0, 71, 0
3, 9122, Note_on_c, 0, 62, 0
3, 9216, Note_on_c, 0, 45, 77
3, 9216, Note_on_c, 0, 52, 77
3, 9216, Note_on_c, 0, 60, 77
3, 9223, Control_c, 0, 64, 127
3, 9550, Note_on_c, 0, 60, 0
3, 9550, Note_on_c, 0, 52, 0
3, 9550, Note_on_c, 0, 45, 0
3, 9573, Control_c, 0, 64, 0
3, 9600, Note_on_c, 0, 60, 81
3, 9600, Note_on_c, 0, 72, 81
3, 9792, Note_on_c, 0, 70, 77
3, 9888, Note_on_c, 0, 72, 0
3, 9984, Note_on_c, 0, 70, 0
3, 9984, Note_on_c, 0, 60, 0
3, 9984, Note_on_c, 0, 53, 79
3, 9984, Note_on_c, 0, 65, 89
3, 10176, Note_on_c, 0, 53, 0
3, 10176, Note_on_c, 0, 64, 77
3, 10318, Note_on_c, 0, 65, 0
3, 10368, Note_on_c, 0, 64, 0
3, 10368, Note_on_c, 0, 62, 75
3, 10368, Note_on_c, 0, 71, 75
3, 10560, Note_on_c, 0, 69, 77
3, 10656, Note_on_c, 0, 71, 0
3, 10752, Note_on_c, 0, 69, 0
3, 10752, Note_on_c, 0, 62, 0
3, 10752, Note_on_c, 0, 52, 77
3, 10752, Note_on_c, 0, 64, 77
3, 10848, Note_on_c, 0, 53, 72
3, 10896, Note_on_c, 0, 52, 0
3, 10944, Note_on_c, 0, 50, 66
3, 10992, Note_on_c, 0, 53, 0
3, 11136, Note_on_c, 0, 50, 0
3, 11136, Note_on_c, 0, 64, 0
3, 11136, Note_on_c, 0, 48, 57
3, 11136, Note_on_c, 0, 57, 57
3, 11136, Note_on_c, 0, 64, 57
3, 11150, Control_c, 0, 64, 127
3, 11283, Note_on_c, 0, 64, 0
3, 11328, Note_on_c, 0, 69, 57
3, 11426, Note_on_c, 0, 69, 0
3, 11493, Control_c, 0, 64, 0
3, 11520, Note_on_c, 0, 57, 0
3, 11520, Note_on_c, 0, 48, 0
3, 11520, Note_on_c, 0, 50, 57
3, 11520, Note_on_c, 0, 58, 57
3, 11520, Note_on_c, 0, 65, 57
3, 11534, Control_c, 0, 64, 127
3, 11667, Note_on_c, 0, 65, 0
3, 11712, Note_on_c, 0, 70, 57
3, 11810, Note_on_c, 0, 70, 0
3, 11814, Note_on_c, 0, 58, 0
3, 11821, Note_on_c, 0, 50, 0
3, 11877, Control_c, 0, 64, 0
3, 11904, Note_on_c, 0, 52, 57
3, 11904, Note_on_c, 0, 59, 57
3, 11904, Note_on_c, 0, 64, 57
3, 11925, Control_c, 0, 64, 127
3, 12051, Note_on_c, 0, 64, 0
3, 12096, Note_on_c, 0, 74, 57
3, 12194, Note_on_c, 0, 74, 0
3, 12198, Note_on_c, 0, 59, 0
3, 12198, Note_on_c, 0, 52, 0
3, 12268, Control_c, 0, 64, 0
3, 12288, Note_on_c, 0, 45, 57
3, 12288, Note_on_c, 0, 52, 57
3, 12288, Note_on_c, 0, 72, 57
3, 12309, Control_c, 0, 64, 127
3, 12638, Control_c, 0, 64, 0
3, 12664, Note_on_c, 0, 72, 0
3, 12672, Note_on_c, 0, 52, 0
3, 12672, Note_on_c, 0, 45, 0
3, 13056, Note_on_c, 0, 48, 87
3, 13056, Note_on_c, 0, 52, 85
3, 13077, Control_c, 0, 64, 127
3, 13413, Control_c, 0, 64, 0
3, 13440, Note_on_c, 0, 53, 57
3, 13632, Note_on_c, 0, 52, 0
3, 13632, Note_on_c, 0, 48, 0
3, 13632, Note_on_c, 0, 55, 57
3, 13728, Note_on_c, 0, 53, 0
3, 13824, Note_on_c, 0, 55, 0
3, 13824, Note_on_c, 0, 57, 57
3, 14016, Note_on_c, 0, 57, 0
3, 14208, Note_on_c, 0, 55, 57
3, 14208, Note_on_c, 0, 62, 74
3, 14208, Note_on_c, 0, 65, 57
3, 14350, Note_on_c, 0, 62, 0
3, 14400, Note_on_c, 0, 62, 57
3, 14496, Note_on_c, 0, 64, 57
3, 14544, Note_on_c, 0, 62, 0
3, 14592, Note_on_c, 0, 55, 0
3, 14592, Note_on_c, 0, 65, 0
3, 14592, Note_on_c, 0, 60, 57
3, 14640, Note_on_c, 0, 64, 0
3, 14784, Note_on_c, 0, 60, 0
3, 14976, Note_on_c, 0, 55, 57
3, 14976, Note_on_c, 0, 59, 57
3, 14976, Note_on_c, 0, 65, 57
3, 14976, Note_on_c, 0, 67, 57
3, 15156, Note_on_c, 0, 67, 0
3, 15156, Note_on_c, 0, 55, 0
3, 15156, Note_on_c, 0, 59, 0
3, 15156, Note_on_c, 0, 65, 0
3, 15168, Note_on_c, 0, 55, 57
3, 15168, Note_on_c, 0, 59, 57
3, 15168, Note_on_c, 0, 65, 57
3, 15168, Note_on_c, 0, 67, 57
3, 15348, Note_on_c, 0, 67, 0
3, 15348, Note_on_c, 0, 55, 0
3, 15348, Note_on_c, 0, 59, 0
3, 15348, Note_on_c, 0, 65, 0
3, 15360, Note_on_c, 0, 60, 57
3, 15360, Note_on_c, 0, 64, 57
3, 15360, Note_on_c, 0, 67, 57
3, 15744, Note_on_c, 0, 67, 0
3, 15744, Note_on_c, 0, 64, 0
3, 15744, Note_on_c, 0, 60, 0
3, 16128, Note_on_c, 0, 56, 83
3, 16128, Note_on_c, 0, 59, 78
3, 16512, Note_on_c, 0, 57, 57
3, 16572, Note_on_c, 0, 56, 0
3, 16680, Note_on_c, 0, 59, 0
3, 16704, Note_on_c, 0, 59, 57
3, 16800, Note_on_c, 0, 57, 0
3, 16896, Note_on_c, 0, 59, 0
3, 16896, Note_on_c, 0, 60, 57
3, 17088, Note_on_c, 0, 60, 0
3, 17664, Note_on_c, 0, 57, 87
3, 17664, Note_on_c, 0, 60, 82
3, 18048, Note_on_c, 0, 60, 0
3, 18048, Note_on_c, 0, 57, 0
3, 18048, Note_on_c, 0, 58, 57
3, 18240, Note_on_c, 0, 58, 0
3, 18240, Note_on_c, 0, 60, 57
3, 18432, Note_on_c, 0, 60, 0
3, 18432, Note_on_c, 0, 62, 57
3, 18816, Note_on_c, 0, 62, 0
3, 19200, Note_on_c, 0, 50, 77
3, 19200, Note_on_c, 0, 58, 77
3, 19200, Note_on_c, 0, 65, 77
3, 19342, Note_on_c, 0, 65, 0
3, 19342, Note_on_c, 0, 58, 0
3, 19342, Note_on_c, 0, 50, 0
3, 19392, Note_on_c, 0, 51, 57
3, 19392, Note_on_c, 0, 60, 57
3, 19392, Note_on_c, 0, 65, 57
3, 19490, Note_on_c, 0, 65, 0
3, 19490, Note_on_c, 0, 60, 0
3, 19490, Note_on_c, 0, 51, 0
3, 19968, Note_on_c, 0, 51, 77
3, 19968, Note_on_c, 0, 60, 77
3, 19968, Note_on_c, 0, 65, 77
3, 20110, Note_on_c, 0, 65, 0
3, 20110, Note_on_c, 0, 60, 0
3, 20110, Note_on_c, 0, 51, 0
3, 20160, Note_on_c, 0, 52, 57
3, 20160, Note_on_c, 0, 59, 57
3, 20160, Note_on_c, 0, 64, 57
3, 20258, Note_on_c, 0, 64, 0
3, 20258, Note_on_c, 0, 59, 0
3, 20258, Note_on_c, 0, 52, 0
3, 20736, Note_on_c, 0, 49, 57
3, 20736, Note_on_c, 0, 58, 57
3, 20736, Note_on_c, 0, 64, 57
3, 20928, Note_on_c, 0, 64, 0
3, 20928, Note_on_c, 0, 58, 0
3, 20928, Note_on_c, 0, 49, 0
3, 20928, Note_on_c, 0, 50, 57
3, 20928, Note_on_c, 0, 57, 57
3, 20928, Note_on_c, 0, 62, 57
3, 21120, Note_on_c, 0, 62, 0
3, 21120, Note_on_c, 0, 57, 0
3, 21120, Note_on_c, 0, 50, 0
3, 21120, Note_on_c, 0, 47, 57
3, 21120, Note_on_c, 0, 55, 57
3, 21120, Note_on_c, 0, 62, 57
3, 21312, Note_on_c, 0, 62, 0
3, 21312, Note_on_c, 0, 55, 0
3, 21312, Note_on_c, 0, 47, 0
3, 21312, Note_on_c, 0, 48, 57
3, 21312, Note_on_c, 0, 55, 57
3, 21312, Note_on_c, 0, 60, 57
3, 21428, Note_on_c, 0, 55, 0
3, 21435, Note_on_c, 0, 48, 0
3, 21449, Note_on_c, 0, 60, 0
3, 21504, Note_on_c, 0, 53, 77
3, 21504, Note_on_c, 0, 57, 77
3, 21504, Note_on_c, 0, 60, 77
3, 21525, Control_c, 0, 64, 127
3, 21838, Note_on_c, 0, 60, 0
3, 22238, Control_c, 0, 64, 0
3, 22272, Note_on_c, 0, 55, 49
3, 22272, Note_on_c, 0, 59, 49
3, 22272, Note_on_c, 0, 65, 49
3, 22279, Note_on_c, 0, 57, 0
3, 22286, Note_on_c, 0, 53, 0
3, 22286, Control_c, 0, 64, 127
3, 22464, Note_on_c, 0, 43, 49
3, 22560, Note_on_c, 0, 59, 0
3, 22560, Note_on_c, 0, 55, 0
3, 22629, Control_c, 0, 64, 0
3, 22656, Note_on_c, 0, 65, 0
3, 22656, Note_on_c, 0, 43, 0
3, 22656, Note_on_c, 0, 55, 49
3, 22656, Note_on_c, 0, 60, 49
3, 22656, Note_on_c, 0, 64, 49
3, 22670, Control_c, 0, 64, 127
3, 23013, Control_c, 0, 64, 0
3, 23040, Note_on_c, 0, 64, 0
3, 23040, Note_on_c, 0, 60, 0
3, 23040, Note_on_c, 0, 55, 0
3, 23040, Note_on_c, 0, 55, 49
3, 23040, Note_on_c, 0, 59, 49
3, 23040, Note_on_c, 0, 65, 49
3, 23054, Control_c, 0, 64, 127
3, 23232, Note_on_c, 0, 43, 49
3, 23328, Note_on_c, 0, 59, 0
3, 23328, Note_on_c, 0, 55, 0
3, 23397, Control_c, 0, 64, 0
3, 23424, Note_on_c, 0, 65, 0
3, 23424, Note_on_c, 0, 43, 0
3, 23424, Note_on_c, 0, 55, 49
3, 23424, Note_on_c, 0, 60, 49
3, 23424, Note_on_c, 0, 64, 49
3, 23445, Control_c, 0, 64, 127
3, 23781, Control_c, 0, 64, 0
3, 23808, Note_on_c, 0, 64, 0
3, 23808, Note_on_c, 0, 60, 0
3, 23808, Note_on_c, 0, 55, 0
3, 23808, Note_on_c, 0, 55, 49
3, 23808, Note_on_c, 0, 59, 49
3, 23808, Note_on_c, 0, 65, 49
3, 23829, Control_c, 0, 64, 127
3, 24000, Note_on_c, 0, 43, 49
3, 24096, Note_on_c, 0, 59, 0
3, 24096, Note_on_c, 0, 55, 0
3, 24165, Control_c, 0, 64, 0
3, 24192, Note_on_c, 0, 65, 0
3, 24192, Note_on_c, 0, 43, 0
3, 24192, Note_on_c, 0, 55, 49
3, 24192, Note_on_c, 0, 60, 49
3, 24192, Note_on_c, 0, 64, 49
3, 24220, Control_c, 0, 64, 127
3, 24542, Control_c, 0, 64, 0
3, 24576, Note_on_c, 0, 64, 0
3, 24576, Note_on_c, 0, 60, 0
3, 24576, Note_on_c, 0, 55, 0
3, 24576, Note_on_c, 0, 55, 49
3, 24576, Note_on_c, 0, 59, 49
3, 24576, Note_on_c, 0, 65, 49
3, 24597, Control_c, 0, 64, 127
3, 24768, Note_on_c, 0, 43, 49
3, 24864, Note_on_c, 0, 59, 0
3, 24864, Note_on_c, 0, 55, 0
3, 24926, Control_c, 0, 64, 0
3, 24960, Note_on_c, 0, 65, 0
3, 24960, Note_on_c, 0, 43, 0
3, 24960, Note_on_c, 0, 60, 57
3, 24960, Note_on_c, 0, 64, 57
3, 24960, Note_on_c, 0, 67, 57
3, 24974, Control_c, 0, 64, 127
3, 25152, Note_on_c, 0, 67, 0
3, 25152, Note_on_c, 0, 64, 0
3, 25152, Note_on_c, 0, 60, 0
3, 25152, Note_on_c, 0, 59, 57
3, 25152, Note_on_c, 0, 64, 57
3, 25152, Note_on_c, 0, 67, 57
3, 25310, Control_c, 0, 64, 0
3, 25344, Note_on_c, 0, 67, 0
3, 25344, Note_on_c, 0, 64, 0
3, 25344, Note_on_c, 0, 59, 0
3, 25344, Note_on_c, 0, 57, 57
3, 25344, Note_on_c, 0, 64, 57
3, 25344, Note_on_c, 0, 67, 57
3, 25536, Note_on_c, 0, 67, 0
3, 25536, Note_on_c, 0, 64, 0
3, 25536, Note_on_c, 0, 57, 0
3, 25536, Note_on_c, 0, 55, 57
3, 25536, Note_on_c, 0, 64, 57
3, 25728, Note_on_c, 0, 64, 0
3, 25728, Note_on_c, 0, 55, 0
3, 25728, Note_on_c, 0, 53, 57
3, 25728, Note_on_c, 0, 60, 57
3, 25920, Note_on_c, 0, 60, 0
3, 25920, Note_on_c, 0, 53, 0
3, 25920, Note_on_c, 0, 52, 57
3, 25920, Note_on_c, 0, 60, 57
3, 26112, Note_on_c, 0, 60, 0
3, 26112, Note_on_c, 0, 52, 0
3, 26112, Note_on_c, 0, 51, 67
3, 26112, Note_on_c, 0, 57, 67
3, 26112, Note_on_c, 0, 60, 67
3, 26126, Control_c, 0, 64, 127
3, 26462, Control_c, 0, 64, 0
3, 26496, Note_on_c, 0, 60, 0
3, 26496, Note_on_c, 0, 57, 0
3, 26496, Note_on_c, 0, 51, 0
3, 26496, Note_on_c, 0, 50, 49
3, 26496, Note_on_c, 0, 56, 49
3, 26496, Note_on_c, 0, 60, 49
3, 26517, Control_c, 0, 64, 127
3, 26643, Note_on_c, 0, 60, 0
3, 26688, Note_on_c, 0, 65, 49
3, 26786, Note_on_c, 0, 65, 0
3, 26797, Note_on_c, 0, 56, 0
3, 26797, Note_on_c, 0, 50, 0
3, 26846, Control_c, 0, 64, 0
3, 26880, Note_on_c, 0, 55, 49
3, 26880, Note_on_c, 0, 60, 49
3, 26894, Control_c, 0, 64, 127
3, 27027, Note_on_c, 0, 60, 0
3, 27072, Note_on_c, 0, 64, 49
3, 27170, Note_on_c, 0, 64, 0
3, 27188, Note_on_c, 0, 55, 0
3, 27230, Control_c, 0, 64, 0
3, 27264, Note_on_c, 0, 53, 49
3, 27264, Note_on_c, 0, 59, 49
3, 27278, Control_c, 0, 64, 127
3, 27411, Note_on_c, 0, 59, 0
3, 27456, Note_on_c, 0, 53, 0
3, 27456, Note_on_c, 0, 43, 49
3, 27456, Note_on_c, 0, 62, 49
3, 27554, Note_on_c, 0, 62, 0
3, 27628, Control_c, 0, 64, 0
3, 27648, Note_on_c, 0, 43, 0
3, 27648, Note_on_c, 0, 36, 57
3, 27648, Note_on_c, 0, 43, 57
3, 27648, Note_on_c, 0, 64, 57
3, 27676, Control_c, 0, 64, 127
3, 27998, Control_c, 0, 64, 0
3, 28032, Note_on_c, 0, 64, 0
3, 28032, Note_on_c, 0, 43, 0
3, 28032, Note_on_c, 0, 36, 0
3, 28032, Note_on_c, 0, 60, 57
3, 28032, Note_on_c, 0, 64, 57
3, 28224, Note_on_c, 0, 64, 0
3, 28224, Note_on_c, 0, 60, 0
3, 28224, Note_on_c, 0, 64, 57
3, 28322, Note_on_c, 0, 64, 0
3, 28416, Note_on_c, 0, 57, 77
3, 28416, Note_on_c, 0, 62, 77
3, 28416, Note_on_c, 0, 65, 77
3, 28437, Control_c, 0, 64, 127
3, 28750, Note_on_c, 0, 65, 0
3, 28750, Note_on_c, 0, 62, 0
3, 28750, Note_on_c, 0, 57, 0
3, 28780, Control_c, 0, 64, 0
3, 28800, Note_on_c, 0, 59, 57
3, 28992, Note_on_c, 0, 62, 57
3, 29088, Note_on_c, 0, 59, 0
3, 29090, Note_on_c, 0, 62, 0
3, 29184, Note_on_c, 0, 45, 77
3, 29184, Note_on_c, 0, 52, 77
3, 29184, Note_on_c, 0, 60, 77
3, 29198, Control_c, 0, 64, 127
3, 29518, Note_on_c, 0, 60, 0
3, 29518, Note_on_c, 0, 52, 0
3, 29518, Note_on_c, 0, 45, 0
3, 29534, Control_c, 0, 64, 0
3, 29568, Note_on_c, 0, 60, 57
3, 29664, Note_on_c, 0, 59, 57
3, 29712, Note_on_c, 0, 60, 0
3, 29760, Note_on_c, 0, 57, 57
3, 29760, Note_on_c, 0, 72, 57
3, 29808, Note_on_c, 0, 59, 0
3, 29858, Note_on_c, 0, 72, 0
3, 29858, Note_on_c, 0, 57, 0
3, 29952, Note_on_c, 0, 62, 57
3, 30048, Note_on_c, 0, 60, 57
3, 30096, Note_on_c, 0, 62, 0
3, 30144, Note_on_c, 0, 59, 57
3, 30144, Note_on_c, 0, 74, 57
3, 30192, Note_on_c, 0, 60, 0
3, 30242, Note_on_c, 0, 74, 0
3, 30242, Note_on_c, 0, 59, 0
3, 30336, Note_on_c, 0, 64, 57
3, 30528, Note_on_c, 0, 62, 57
3, 30528, Note_on_c, 0, 71, 57
3, 30624, Note_on_c, 0, 64, 0
3, 30626, Note_on_c, 0, 71, 0
3, 30626, Note_on_c, 0, 62, 0
3, 30720, Note_on_c, 0, 45, 77
3, 30720, Note_on_c, 0, 52, 77
3, 30720, Note_on_c, 0, 60, 77
3, 30734, Control_c, 0, 64, 127
3, 31054, Note_on_c, 0, 60, 0
3, 31054, Note_on_c, 0, 52, 0
3, 31054, Note_on_c, 0, 45, 0
3, 31063, Control_c, 0, 64, 0
3, 31104, Note_on_c, 0, 60, 79
3, 31104, Note_on_c, 0, 72, 69
3, 31132, Control_c, 0, 64, 127
3, 31296, Note_on_c, 0, 70, 69
3, 31392, Note_on_c, 0, 72, 0
3, 31461, Control_c, 0, 64, 0
3, 31488, Note_on_c, 0, 70, 0
3, 31488, Note_on_c, 0, 60, 0
3, 31488, Note_on_c, 0, 53, 89
3, 31488, Note_on_c, 0, 65, 89
3, 31516, Control_c, 0, 64, 127
3, 31630, Note_on_c, 0, 53, 0
3, 31680, Note_on_c, 0, 64, 69
3, 31822, Note_on_c, 0, 65, 0
3, 31845, Control_c, 0, 64, 0
3, 31872, Note_on_c, 0, 64, 0
3, 31872, Note_on_c, 0, 62, 69
3, 31872, Note_on_c, 0, 71, 69
3, 31900, Control_c, 0, 64, 127
3, 32064, Note_on_c, 0, 69, 69
3, 32160, Note_on_c, 0, 71, 0
3, 32229, Control_c, 0, 64, 0
3, 32256, Note_on_c, 0, 69, 0
3, 32256, Note_on_c, 0, 62, 0
3, 32256, Note_on_c, 0, 52, 79
3, 32256, Note_on_c, 0, 64, 69
3, 32302, Note_on_c, 0, 52, 0
3, 32352, Note_on_c, 0, 53, 69
3, 32448, Note_on_c, 0, 53, 0
3, 32448, Note_on_c, 0, 50, 69
3, 32640, Note_on_c, 0, 50, 0
3, 32640, Note_on_c, 0, 64, 0
3, 32640, Note_on_c, 0, 48, 57
3, 32640, Note_on_c, 0, 57, 57
3, 32640, Note_on_c, 0, 64, 57
3, 32654, Control_c, 0, 64, 127
3, 32787, Note_on_c, 0, 64, 0
3, 32832, Note_on_c, 0, 69, 57
3, 32930, Note_on_c, 0, 69, 0
3, 32934, Note_on_c, 0, 48, 0
3, 32941, Note_on_c, 0, 57, 0
3, 32997, Control_c, 0, 64, 0
3, 33024, Note_on_c, 0, 50, 57
3, 33024, Note_on_c, 0, 58, 57
3, 33024, Note_on_c, 0, 65, 57
3, 33059, Control_c, 0, 64, 127
3, 33171, Note_on_c, 0, 65, 0
3, 33216, Note_on_c, 0, 70, 57
3, 33314, Note_on_c, 0, 70, 0
3, 33318, Note_on_c, 0, 50, 0
3, 33325, Note_on_c, 0, 58, 0
3, 33374, Control_c, 0, 64, 0
3, 33408, Note_on_c, 0, 52, 57
3, 33408, Note_on_c, 0, 59, 57
3, 33422, Control_c, 0, 64, 127
3, 33541, Note_on_c, 0, 52, 0
3, 33555, Note_on_c, 0, 59, 0
3, 33600, Note_on_c, 0, 40, 57
3, 33600, Note_on_c, 0, 71, 57
3, 33698, Note_on_c, 0, 71, 0
3, 33758, Control_c, 0, 64, 0
3, 33792, Note_on_c, 0, 40, 0
3, 33792, Note_on_c, 0, 33, 57
3, 33792, Note_on_c, 0, 40, 57
3, 33792, Note_on_c, 0, 72, 57
3, 33806, Control_c, 0, 64, 127
3, 34176, Note_on_c, 0, 72, 0
3, 34176, Note_on_c, 0, 40, 0
3, 34176, Note_on_c, 0, 33, 0
3, 34540, Control_c, 0, 64, 0
3, 34540, End_track
0, 0, End_of_file
