0, 0, Header, 1, 4, 384
1, 0, Start_track
1, 0, Title_t, "Album des Enfants 2nd serie Op-126 No-07 "
1, 0, Title_t, "Elegie "
1, 0, Text_t, "Cecile Chaminade"
1, 0, Text_t, "\012"
1, 0, Time_signature, 6, 3, 12, 8
1, 0, Key_signature, 0, "major"
1, 0, Tempo, 1211632
1, 11520, Tempo, 1431981
1, 11712, Tempo, 1615509
1, 12096, Tempo, 1217532
1, 12672, Tempo, 1473839
1, 12864, Tempo, 1647446
1, 13248, Tempo, 1235330
1, 23616, Tempo, 1473477
1, 23904, Tempo, 1909612
1, 24192, Tempo, 1253918
1, 32832, Tempo, 1589404
1, 33120, Tempo, 1777778
1, 33408, Tempo, 2000000
1, 33408, End_track
2, 0, Start_track
2, 0, Title_t, "soprano"
2, 0, Program_c, 0, 0
2, 0, Control_c, 0, 7, 105
2, 0, Control_c, 0, 10, 80
2, 0, Control_c, 0, 91, 100
2, 28, Control_c, 0, 121, 0
2, 576, Note_on_c, 0, 50, 70
2, 960, Note_on_c, 0, 69, 63
2, 1056, Note_on_c, 0, 50, 0
2, 1152, Note_on_c, 0, 74, 75
2, 1248, Note_on_c, 0, 69, 0
2, 1344, Note_on_c, 0, 74, 0
2, 1344, Note_on_c, 0, 74, 77
2, 1632, Note_on_c, 0, 76, 63
2, 1712, Note_on_c, 0, 74, 0
2, 1728, Note_on_c, 0, 67, 52
2, 1728, Note_on_c, 0, 72, 63
2, 1808, Note_on_c, 0, 76, 0
2, 2112, Note_on_c, 0, 72, 0
2, 2112, Note_on_c, 0, 67, 0
2, 2112, Note_on_c, 0, 67, 63
2, 2208, Note_on_c, 0, 69, 67
2, 2288, Note_on_c, 0, 67, 0
2, 2304, Note_on_c, 0, 69, 0
2, 2304, Note_on_c, 0, 70, 75
2, 2496, Note_on_c, 0, 70, 0
2, 2496, Note_on_c, 0, 70, 70
2, 2784, Note_on_c, 0, 72, 63
2, 2864, Note_on_c, 0, 70, 0
2, 2880, Note_on_c, 0, 72, 0
2, 2880, Note_on_c, 0, 70, 72
2, 3072, Note_on_c, 0, 69, 63
2, 3152, Note_on_c, 0, 70, 0
2, 3264, Note_on_c, 0, 69, 0
2, 3264, Note_on_c, 0, 69, 63
2, 3456, Note_on_c, 0, 69, 0
2, 3456, Note_on_c, 0, 74, 70
2, 3552, Note_on_c, 0, 77, 74
2, 3632, Note_on_c, 0, 74, 0
2, 3744, Note_on_c, 0, 76, 63
2, 3824, Note_on_c, 0, 77, 0
2, 3840, Note_on_c, 0, 74, 63
2, 3920, Note_on_c, 0, 76, 0
2, 3936, Note_on_c, 0, 76, 63
2, 4016, Note_on_c, 0, 74, 0
2, 4032, Note_on_c, 0, 76, 0
2, 4032, Note_on_c, 0, 74, 70
2, 4224, Note_on_c, 0, 72, 63
2, 4304, Note_on_c, 0, 74, 0
2, 4416, Note_on_c, 0, 72, 0
2, 4416, Note_on_c, 0, 67, 63
2, 4512, Note_on_c, 0, 69, 63
2, 4592, Note_on_c, 0, 67, 0
2, 4608, Note_on_c, 0, 69, 0
2, 4608, Note_on_c, 0, 70, 70
2, 4704, Note_on_c, 0, 74, 77
2, 4784, Note_on_c, 0, 70, 0
2, 4896, Note_on_c, 0, 72, 63
2, 4976, Note_on_c, 0, 74, 0
2, 4992, Note_on_c, 0, 70, 63
2, 5072, Note_on_c, 0, 72, 0
2, 5088, Note_on_c, 0, 72, 63
2, 5168, Note_on_c, 0, 70, 0
2, 5184, Note_on_c, 0, 72, 0
2, 5184, Note_on_c, 0, 69, 70
2, 5568, Note_on_c, 0, 69, 0
2, 5568, Note_on_c, 0, 69, 77
2, 5664, Note_on_c, 0, 70, 77
2, 5744, Note_on_c, 0, 69, 0
2, 5760, Note_on_c, 0, 70, 0
2, 5760, Note_on_c, 0, 69, 82
2, 5760, Note_on_c, 0, 72, 82
2, 5952, Note_on_c, 0, 72, 0
2, 5952, Note_on_c, 0, 69, 0
2, 5952, Note_on_c, 0, 69, 69
2, 5952, Note_on_c, 0, 72, 84
2, 6240, Note_on_c, 0, 74, 77
2, 6320, Note_on_c, 0, 72, 0
2, 6320, Note_on_c, 0, 69, 0
2, 6336, Note_on_c, 0, 74, 0
2, 6336, Note_on_c, 0, 69, 82
2, 6336, Note_on_c, 0, 72, 82
2, 6720, Note_on_c, 0, 72, 0
2, 6720, Note_on_c, 0, 69, 0
2, 6720, Note_on_c, 0, 69, 77
2, 6816, Note_on_c, 0, 70, 80
2, 6896, Note_on_c, 0, 69, 0
2, 6912, Note_on_c, 0, 70, 0
2, 6912, Note_on_c, 0, 69, 85
2, 6912, Note_on_c, 0, 72, 85
2, 7007, Note_on_c, 0, 72, 0
2, 7008, Note_on_c, 0, 72, 77
2, 7088, Note_on_c, 0, 69, 0
2, 7104, Note_on_c, 0, 81, 77
2, 7184, Note_on_c, 0, 72, 0
2, 7392, Note_on_c, 0, 72, 77
2, 7472, Note_on_c, 0, 81, 0
2, 7488, Note_on_c, 0, 72, 0
2, 7488, Note_on_c, 0, 69, 83
2, 7488, Note_on_c, 0, 72, 83
2, 7680, Note_on_c, 0, 67, 69
2, 7680, Note_on_c, 0, 70, 77
2, 7760, Note_on_c, 0, 72, 0
2, 7760, Note_on_c, 0, 69, 0
2, 7872, Note_on_c, 0, 67, 0
2, 7872, Note_on_c, 0, 70, 0
2, 7872, Note_on_c, 0, 67, 77
2, 7968, Note_on_c, 0, 69, 77
2, 8048, Note_on_c, 0, 67, 0
2, 8064, Note_on_c, 0, 69, 0
2, 8064, Note_on_c, 0, 67, 78
2, 8064, Note_on_c, 0, 70, 78
2, 8154, Note_on_c, 0, 70, 0
2, 8160, Note_on_c, 0, 67, 0
2, 8160, Note_on_c, 0, 70, 67
2, 8256, Note_on_c, 0, 79, 67
2, 8336, Note_on_c, 0, 70, 0
2, 8544, Note_on_c, 0, 70, 66
2, 8624, Note_on_c, 0, 79, 0
2, 8637, Note_on_c, 0, 70, 0
2, 8640, Note_on_c, 0, 67, 58
2, 8640, Note_on_c, 0, 70, 66
2, 8832, Note_on_c, 0, 65, 58
2, 8832, Note_on_c, 0, 69, 66
2, 8912, Note_on_c, 0, 70, 0
2, 8912, Note_on_c, 0, 67, 0
2, 9024, Note_on_c, 0, 65, 0
2, 9024, Note_on_c, 0, 69, 0
2, 9024, Note_on_c, 0, 64, 58
2, 9024, Note_on_c, 0, 67, 66
2, 9344, Note_on_c, 0, 69, 55
2, 9368, Note_on_c, 0, 67, 0
2, 9376, Note_on_c, 0, 67, 59
2, 9408, Note_on_c, 0, 62, 65
2, 9408, Note_on_c, 0, 65, 65
2, 9488, Note_on_c, 0, 69, 0
2, 9488, Note_on_c, 0, 64, 0
2, 9520, Note_on_c, 0, 67, 0
2, 9600, Note_on_c, 0, 61, 47
2, 9600, Note_on_c, 0, 64, 55
2, 9680, Note_on_c, 0, 62, 0
2, 9680, Note_on_c, 0, 65, 0
2, 9792, Note_on_c, 0, 61, 0
2, 9792, Note_on_c, 0, 64, 0
2, 9792, Note_on_c, 0, 53, 47
2, 9792, Note_on_c, 0, 62, 66
2, 10176, Note_on_c, 0, 62, 0
2, 10176, Note_on_c, 0, 53, 0
2, 10176, Note_on_c, 0, 69, 67
2, 10272, Note_on_c, 0, 70, 71
2, 10352, Note_on_c, 0, 69, 0
2, 10368, Note_on_c, 0, 70, 0
2, 10368, Note_on_c, 0, 69, 69
2, 10368, Note_on_c, 0, 72, 77
2, 10560, Note_on_c, 0, 72, 0
2, 10560, Note_on_c, 0, 69, 0
2, 10560, Note_on_c, 0, 69, 76
2, 10560, Note_on_c, 0, 72, 84
2, 10848, Note_on_c, 0, 74, 77
2, 10928, Note_on_c, 0, 72, 0
2, 10928, Note_on_c, 0, 69, 0
2, 10944, Note_on_c, 0, 69, 83
2, 10944, Note_on_c, 0, 72, 83
2, 11024, Note_on_c, 0, 74, 0
2, 11328, Note_on_c, 0, 72, 0
2, 11328, Note_on_c, 0, 69, 0
2, 11328, Note_on_c, 0, 69, 77
2, 11424, Note_on_c, 0, 70, 77
2, 11485, Note_on_c, 0, 69, 0
2, 11488, Note_on_c, 0, 69, 77
2, 11520, Note_on_c, 0, 70, 0
2, 11520, Note_on_c, 0, 72, 85
2, 11584, Note_on_c, 0, 69, 0
2, 11616, Note_on_c, 0, 72, 0
2, 11616, Note_on_c, 0, 72, 77
2, 11712, Note_on_c, 0, 81, 77
2, 11792, Note_on_c, 0, 72, 0
2, 12000, Note_on_c, 0, 72, 77
2, 12080, Note_on_c, 0, 81, 0
2, 12096, Note_on_c, 0, 72, 0
2, 12096, Note_on_c, 0, 69, 83
2, 12096, Note_on_c, 0, 72, 83
2, 12288, Note_on_c, 0, 67, 69
2, 12288, Note_on_c, 0, 70, 77
2, 12368, Note_on_c, 0, 72, 0
2, 12368, Note_on_c, 0, 69, 0
2, 12480, Note_on_c, 0, 67, 0
2, 12480, Note_on_c, 0, 70, 0
2, 12480, Note_on_c, 0, 67, 77
2, 12576, Note_on_c, 0, 69, 77
2, 12635, Note_on_c, 0, 67, 0
2, 12640, Note_on_c, 0, 67, 77
2, 12672, Note_on_c, 0, 69, 0
2, 12672, Note_on_c, 0, 70, 85
2, 12736, Note_on_c, 0, 67, 0
2, 12768, Note_on_c, 0, 70, 0
2, 12768, Note_on_c, 0, 70, 77
2, 12864, Note_on_c, 0, 79, 77
2, 12944, Note_on_c, 0, 70, 0
2, 13152, Note_on_c, 0, 70, 77
2, 13232, Note_on_c, 0, 79, 0
2, 13248, Note_on_c, 0, 70, 0
2, 13248, Note_on_c, 0, 67, 69
2, 13248, Note_on_c, 0, 70, 82
2, 13440, Note_on_c, 0, 65, 69
2, 13440, Note_on_c, 0, 69, 77
2, 13520, Note_on_c, 0, 70, 0
2, 13520, Note_on_c, 0, 67, 0
2, 13632, Note_on_c, 0, 65, 0
2, 13632, Note_on_c, 0, 69, 0
2, 13632, Note_on_c, 0, 64, 76
2, 13632, Note_on_c, 0, 67, 84
2, 13952, Note_on_c, 0, 69, 77
2, 13974, Note_on_c, 0, 67, 0
2, 13984, Note_on_c, 0, 67, 77
2, 14016, Note_on_c, 0, 69, 0
2, 14016, Note_on_c, 0, 64, 0
2, 14016, Note_on_c, 0, 62, 69
2, 14016, Note_on_c, 0, 65, 77
2, 14048, Note_on_c, 0, 67, 0
2, 14208, Note_on_c, 0, 65, 0
2, 14208, Note_on_c, 0, 62, 0
2, 14208, Note_on_c, 0, 61, 69
2, 14208, Note_on_c, 0, 64, 77
2, 14400, Note_on_c, 0, 64, 0
2, 14400, Note_on_c, 0, 61, 0
2, 14400, Note_on_c, 0, 53, 69
2, 14400, Note_on_c, 0, 62, 81
2, 14784, Note_on_c, 0, 62, 0
2, 14784, Note_on_c, 0, 53, 0
2, 14784, Note_on_c, 0, 65, 77
2, 14880, Note_on_c, 0, 67, 77
2, 14960, Note_on_c, 0, 65, 0
2, 14976, Note_on_c, 0, 67, 0
2, 14976, Note_on_c, 0, 65, 69
2, 14976, Note_on_c, 0, 69, 83
2, 15168, Note_on_c, 0, 69, 0
2, 15168, Note_on_c, 0, 65, 0
2, 15168, Note_on_c, 0, 65, 76
2, 15168, Note_on_c, 0, 69, 84
2, 15456, Note_on_c, 0, 69, 0
2, 15456, Note_on_c, 0, 71, 77
2, 15520, Note_on_c, 0, 74, 77
2, 15552, Note_on_c, 0, 65, 0
2, 15552, Note_on_c, 0, 72, 82
2, 15632, Note_on_c, 0, 74, 0
2, 15632, Note_on_c, 0, 71, 0
2, 15648, Note_on_c, 0, 71, 77
2, 15728, Note_on_c, 0, 72, 0
2, 15744, Note_on_c, 0, 72, 77
2, 15824, Note_on_c, 0, 71, 0
2, 15936, Note_on_c, 0, 72, 0
2, 15936, Note_on_c, 0, 67, 77
2, 16032, Note_on_c, 0, 69, 77
2, 16112, Note_on_c, 0, 67, 0
2, 16128, Note_on_c, 0, 69, 0
2, 16128, Note_on_c, 0, 70, 84
2, 16224, Note_on_c, 0, 72, 80
2, 16304, Note_on_c, 0, 70, 0
2, 16320, Note_on_c, 0, 74, 80
2, 16400, Note_on_c, 0, 72, 0
2, 16608, Note_on_c, 0, 76, 84
2, 16688, Note_on_c, 0, 74, 0
2, 16704, Note_on_c, 0, 76, 0
2, 16704, Note_on_c, 0, 77, 90
2, 16800, Note_on_c, 0, 76, 83
2, 16880, Note_on_c, 0, 77, 0
2, 16896, Note_on_c, 0, 74, 80
2, 16976, Note_on_c, 0, 76, 0
2, 17088, Note_on_c, 0, 69, 80
2, 17168, Note_on_c, 0, 74, 0
2, 17184, Note_on_c, 0, 71, 80
2, 17264, Note_on_c, 0, 69, 0
2, 17280, Note_on_c, 0, 71, 0
2, 17280, Note_on_c, 0, 69, 72
2, 17280, Note_on_c, 0, 73, 89
2, 17472, Note_on_c, 0, 73, 0
2, 17472, Note_on_c, 0, 69, 0
2, 17472, Note_on_c, 0, 69, 79
2, 17472, Note_on_c, 0, 73, 87
2, 17760, Note_on_c, 0, 73, 0
2, 17760, Note_on_c, 0, 69, 0
2, 17760, Note_on_c, 0, 70, 72
2, 17760, Note_on_c, 0, 74, 80
2, 17856, Note_on_c, 0, 74, 0
2, 17856, Note_on_c, 0, 70, 0
2, 17856, Note_on_c, 0, 69, 72
2, 17856, Note_on_c, 0, 73, 89
2, 18048, Note_on_c, 0, 73, 0
2, 18048, Note_on_c, 0, 69, 0
2, 18048, Note_on_c, 0, 69, 72
2, 18048, Note_on_c, 0, 73, 80
2, 18240, Note_on_c, 0, 73, 0
2, 18240, Note_on_c, 0, 69, 0
2, 18240, Note_on_c, 0, 66, 72
2, 18240, Note_on_c, 0, 69, 80
2, 18432, Note_on_c, 0, 69, 0
2, 18432, Note_on_c, 0, 66, 0
2, 18432, Note_on_c, 0, 65, 72
2, 18464, Note_on_c, 0, 68, 76
2, 18496, Note_on_c, 0, 73, 82
2, 18816, Note_on_c, 0, 71, 72
2, 18960, Note_on_c, 0, 73, 0
2, 19008, Note_on_c, 0, 64, 64
2, 19008, Note_on_c, 0, 69, 82
2, 19088, Note_on_c, 0, 71, 0
2, 19088, Note_on_c, 0, 65, 0
2, 19120, Note_on_c, 0, 68, 0
2, 19392, Note_on_c, 0, 69, 0
2, 19392, Note_on_c, 0, 64, 0
2, 19392, Note_on_c, 0, 60, 63
2, 19488, Note_on_c, 0, 60, 0
2, 19488, Note_on_c, 0, 62, 63
2, 19584, Note_on_c, 0, 62, 0
2, 19584, Note_on_c, 0, 64, 74
2, 19680, Note_on_c, 0, 64, 0
2, 19680, Note_on_c, 0, 67, 63
2, 19776, Note_on_c, 0, 70, 63
2, 19856, Note_on_c, 0, 67, 0
2, 19872, Note_on_c, 0, 69, 63
2, 19952, Note_on_c, 0, 70, 0
2, 19968, Note_on_c, 0, 67, 63
2, 20048, Note_on_c, 0, 69, 0
2, 20064, Note_on_c, 0, 65, 63
2, 20144, Note_on_c, 0, 67, 0
2, 20160, Note_on_c, 0, 64, 73
2, 20240, Note_on_c, 0, 65, 0
2, 20256, Note_on_c, 0, 62, 63
2, 20336, Note_on_c, 0, 64, 0
2, 20352, Note_on_c, 0, 62, 0
2, 20352, Note_on_c, 0, 61, 70
2, 20448, Note_on_c, 0, 64, 70
2, 20528, Note_on_c, 0, 61, 0
2, 20544, Note_on_c, 0, 67, 75
2, 20624, Note_on_c, 0, 64, 0
2, 20640, Note_on_c, 0, 69, 79
2, 20720, Note_on_c, 0, 67, 0
2, 20736, Note_on_c, 0, 69, 0
2, 20736, Note_on_c, 0, 70, 88
2, 20832, Note_on_c, 0, 73, 74
2, 20912, Note_on_c, 0, 70, 0
2, 20928, Note_on_c, 0, 76, 72
2, 21008, Note_on_c, 0, 73, 0
2, 21024, Note_on_c, 0, 74, 63
2, 21104, Note_on_c, 0, 76, 0
2, 21120, Note_on_c, 0, 73, 63
2, 21200, Note_on_c, 0, 74, 0
2, 21216, Note_on_c, 0, 70, 63
2, 21296, Note_on_c, 0, 73, 0
2, 21312, Note_on_c, 0, 69, 74
2, 21392, Note_on_c, 0, 70, 0
2, 21408, Note_on_c, 0, 68, 63
2, 21488, Note_on_c, 0, 69, 0
2, 21504, Note_on_c, 0, 68, 0
2, 21504, Note_on_c, 0, 67, 70
2, 21600, Note_on_c, 0, 70, 74
2, 21680, Note_on_c, 0, 67, 0
2, 21692, Note_on_c, 0, 70, 0
2, 21696, Note_on_c, 0, 70, 77
2, 21792, Note_on_c, 0, 73, 85
2, 21872, Note_on_c, 0, 70, 0
2, 21888, Note_on_c, 0, 73, 0
2, 21888, Note_on_c, 0, 76, 103
2, 21984, Note_on_c, 0, 79, 96
2, 22064, Note_on_c, 0, 76, 0
2, 22080, Note_on_c, 0, 82, 96
2, 22160, Note_on_c, 0, 79, 0
2, 22176, Note_on_c, 0, 81, 100
2, 22256, Note_on_c, 0, 82, 0
2, 22272, Note_on_c, 0, 79, 96
2, 22352, Note_on_c, 0, 81, 0
2, 22368, Note_on_c, 0, 77, 96
2, 22448, Note_on_c, 0, 79, 0
2, 22464, Note_on_c, 0, 76, 103
2, 22544, Note_on_c, 0, 77, 0
2, 22560, Note_on_c, 0, 74, 96
2, 22640, Note_on_c, 0, 76, 0
2, 22656, Note_on_c, 0, 73, 96
2, 22736, Note_on_c, 0, 74, 0
2, 22752, Note_on_c, 0, 70, 100
2, 22832, Note_on_c, 0, 73, 0
2, 22848, Note_on_c, 0, 69, 96
2, 22928, Note_on_c, 0, 70, 0
2, 22944, Note_on_c, 0, 68, 96
2, 23024, Note_on_c, 0, 69, 0
2, 23040, Note_on_c, 0, 68, 0
2, 23040, Note_on_c, 0, 67, 103
2, 23136, Note_on_c, 0, 65, 94
2, 23216, Note_on_c, 0, 67, 0
2, 23232, Note_on_c, 0, 64, 91
2, 23312, Note_on_c, 0, 65, 0
2, 23328, Note_on_c, 0, 62, 92
2, 23408, Note_on_c, 0, 64, 0
2, 23424, Note_on_c, 0, 61, 85
2, 23504, Note_on_c, 0, 62, 0
2, 23520, Note_on_c, 0, 58, 83
2, 23600, Note_on_c, 0, 61, 0
2, 23616, Note_on_c, 0, 57, 87
2, 23696, Note_on_c, 0, 58, 0
2, 23712, Note_on_c, 0, 56, 77
2, 23792, Note_on_c, 0, 57, 0
2, 23808, Note_on_c, 0, 55, 74
2, 23888, Note_on_c, 0, 56, 0
2, 23904, Note_on_c, 0, 54, 74
2, 23984, Note_on_c, 0, 55, 0
2, 24000, Note_on_c, 0, 53, 69
2, 24000, Note_on_c, 0, 69, 69
2, 24080, Note_on_c, 0, 54, 0
2, 24096, Note_on_c, 0, 52, 66
2, 24176, Note_on_c, 0, 53, 0
2, 24192, Note_on_c, 0, 52, 0
2, 24192, Note_on_c, 0, 74, 73
2, 24272, Note_on_c, 0, 69, 0
2, 24384, Note_on_c, 0, 74, 0
2, 24384, Note_on_c, 0, 69, 57
2, 24384, Note_on_c, 0, 74, 70
2, 24672, Note_on_c, 0, 74, 0
2, 24672, Note_on_c, 0, 69, 0
2, 24672, Note_on_c, 0, 76, 63
2, 24768, Note_on_c, 0, 76, 0
2, 24768, Note_on_c, 0, 67, 55
2, 24768, Note_on_c, 0, 72, 70
2, 25152, Note_on_c, 0, 72, 0
2, 25152, Note_on_c, 0, 67, 0
2, 25152, Note_on_c, 0, 67, 63
2, 25248, Note_on_c, 0, 69, 63
2, 25328, Note_on_c, 0, 67, 0
2, 25344, Note_on_c, 0, 69, 0
2, 25344, Note_on_c, 0, 70, 70
2, 25536, Note_on_c, 0, 70, 0
2, 25536, Note_on_c, 0, 70, 63
2, 25824, Note_on_c, 0, 72, 63
2, 25904, Note_on_c, 0, 70, 0
2, 25920, Note_on_c, 0, 72, 0
2, 25920, Note_on_c, 0, 70, 68
2, 26112, Note_on_c, 0, 69, 63
2, 26192, Note_on_c, 0, 70, 0
2, 26304, Note_on_c, 0, 69, 0
2, 26304, Note_on_c, 0, 69, 63
2, 26496, Note_on_c, 0, 69, 0
2, 26496, Note_on_c, 0, 74, 68
2, 26592, Note_on_c, 0, 77, 70
2, 26672, Note_on_c, 0, 74, 0
2, 26784, Note_on_c, 0, 76, 63
2, 26864, Note_on_c, 0, 77, 0
2, 26880, Note_on_c, 0, 74, 63
2, 26960, Note_on_c, 0, 76, 0
2, 26976, Note_on_c, 0, 76, 63
2, 27056, Note_on_c, 0, 74, 0
2, 27072, Note_on_c, 0, 76, 0
2, 27072, Note_on_c, 0, 74, 70
2, 27264, Note_on_c, 0, 72, 63
2, 27344, Note_on_c, 0, 74, 0
2, 27456, Note_on_c, 0, 72, 0
2, 27456, Note_on_c, 0, 67, 63
2, 27552, Note_on_c, 0, 67, 0
2, 27552, Note_on_c, 0, 69, 63
2, 27648, Note_on_c, 0, 69, 0
2, 27648, Note_on_c, 0, 70, 69
2, 27744, Note_on_c, 0, 74, 70
2, 27824, Note_on_c, 0, 70, 0
2, 27936, Note_on_c, 0, 72, 63
2, 28016, Note_on_c, 0, 74, 0
2, 28032, Note_on_c, 0, 70, 63
2, 28112, Note_on_c, 0, 72, 0
2, 28128, Note_on_c, 0, 72, 63
2, 28208, Note_on_c, 0, 70, 0
2, 28224, Note_on_c, 0, 72, 0
2, 28224, Note_on_c, 0, 69, 68
2, 28608, Note_on_c, 0, 69, 0
2, 28608, Note_on_c, 0, 69, 63
2, 28704, Note_on_c, 0, 70, 63
2, 28784, Note_on_c, 0, 69, 0
2, 28800, Note_on_c, 0, 70, 0
2, 28800, Note_on_c, 0, 69, 55
2, 28800, Note_on_c, 0, 72, 72
2, 28992, Note_on_c, 0, 72, 0
2, 28992, Note_on_c, 0, 69, 0
2, 28992, Note_on_c, 0, 69, 62
2, 28992, Note_on_c, 0, 72, 70
2, 29280, Note_on_c, 0, 72, 0
2, 29280, Note_on_c, 0, 69, 0
2, 29280, Note_on_c, 0, 74, 63
2, 29376, Note_on_c, 0, 74, 0
2, 29376, Note_on_c, 0, 69, 55
2, 29376, Note_on_c, 0, 72, 70
2, 29760, Note_on_c, 0, 72, 0
2, 29760, Note_on_c, 0, 69, 0
2, 29760, Note_on_c, 0, 69, 63
2, 29856, Note_on_c, 0, 70, 63
2, 29909, Note_on_c, 0, 69, 0
2, 29920, Note_on_c, 0, 69, 63
2, 29952, Note_on_c, 0, 70, 0
2, 29952, Note_on_c, 0, 72, 69
2, 30016, Note_on_c, 0, 69, 0
2, 30040, Note_on_c, 0, 72, 0
2, 30048, Note_on_c, 0, 72, 63
2, 30144, Note_on_c, 0, 81, 63
2, 30224, Note_on_c, 0, 72, 0
2, 30432, Note_on_c, 0, 72, 63
2, 30512, Note_on_c, 0, 81, 0
2, 30528, Note_on_c, 0, 72, 0
2, 30528, Note_on_c, 0, 69, 55
2, 30528, Note_on_c, 0, 72, 72
2, 30720, Note_on_c, 0, 67, 55
2, 30720, Note_on_c, 0, 70, 63
2, 30800, Note_on_c, 0, 72, 0
2, 30800, Note_on_c, 0, 69, 0
2, 30912, Note_on_c, 0, 67, 0
2, 30912, Note_on_c, 0, 70, 0
2, 30912, Note_on_c, 0, 67, 63
2, 31008, Note_on_c, 0, 69, 63
2, 31063, Note_on_c, 0, 67, 0
2, 31072, Note_on_c, 0, 67, 63
2, 31104, Note_on_c, 0, 69, 0
2, 31104, Note_on_c, 0, 70, 72
2, 31200, Note_on_c, 0, 70, 0
2, 31200, Note_on_c, 0, 70, 63
2, 31248, Note_on_c, 0, 67, 0
2, 31296, Note_on_c, 0, 79, 63
2, 31376, Note_on_c, 0, 70, 0
2, 31584, Note_on_c, 0, 70, 63
2, 31664, Note_on_c, 0, 79, 0
2, 31680, Note_on_c, 0, 70, 0
2, 31680, Note_on_c, 0, 67, 55
2, 31680, Note_on_c, 0, 70, 72
2, 31872, Note_on_c, 0, 65, 55
2, 31872, Note_on_c, 0, 69, 63
2, 31952, Note_on_c, 0, 70, 0
2, 31952, Note_on_c, 0, 67, 0
2, 32064, Note_on_c, 0, 65, 0
2, 32064, Note_on_c, 0, 69, 0
2, 32064, Note_on_c, 0, 64, 55
2, 32064, Note_on_c, 0, 67, 63
2, 32384, Note_on_c, 0, 69, 60
2, 32411, Note_on_c, 0, 67, 0
2, 32416, Note_on_c, 0, 67, 63
2, 32448, Note_on_c, 0, 64, 0
2, 32448, Note_on_c, 0, 62, 69
2, 32448, Note_on_c, 0, 65, 69
2, 32560, Note_on_c, 0, 69, 0
2, 32592, Note_on_c, 0, 67, 0
2, 32640, Note_on_c, 0, 61, 55
2, 32640, Note_on_c, 0, 64, 63
2, 32720, Note_on_c, 0, 62, 0
2, 32720, Note_on_c, 0, 65, 0
2, 32832, Note_on_c, 0, 61, 0
2, 32832, Note_on_c, 0, 64, 0
2, 32832, Note_on_c, 0, 53, 55
2, 32832, Note_on_c, 0, 62, 68
2, 33600, Note_on_c, 0, 53, 0
2, 33607, Note_on_c, 0, 62, 0
2, 33607, End_track
3, 0, Start_track
3, 0, Title_t, "alto"
3, 0, Program_c, 0, 0
3, 0, Control_c, 0, 7, 105
3, 0, Control_c, 0, 10, 63
3, 0, Control_c, 0, 91, 100
3, 28, Control_c, 0, 121, 0
3, 2304, Control_c, 0, 10, 80
3, 2304, Control_c, 0, 10, 80
3, 2304, Control_c, 0, 10, 80
3, 2304, Control_c, 0, 10, 80
3, 2304, Note_on_c, 0, 65, 65
3, 2496, Note_on_c, 0, 65, 0
3, 2496, Note_on_c, 0, 65, 68
3, 2880, Note_on_c, 0, 64, 63
3, 3055, Note_on_c, 0, 65, 0
3, 3334, Note_on_c, 0, 64, 0
3, 3456, Note_on_c, 0, 69, 58
3, 4032, Note_on_c, 0, 67, 68
3, 4238, Note_on_c, 0, 69, 0
3, 4417, Note_on_c, 0, 67, 0
3, 4608, Note_on_c, 0, 65, 64
3, 5184, Note_on_c, 0, 64, 60
3, 5383, Note_on_c, 0, 65, 0
3, 5743, Note_on_c, 0, 64, 0
3, 15552, Note_on_c, 0, 64, 54
3, 15744, Note_on_c, 0, 64, 0
3, 15744, Note_on_c, 0, 64, 55
3, 15936, Note_on_c, 0, 64, 0
3, 16128, Note_on_c, 0, 67, 78
3, 16320, Note_on_c, 0, 67, 0
3, 16320, Note_on_c, 0, 70, 70
3, 16512, Note_on_c, 0, 70, 0
3, 16512, Note_on_c, 0, 69, 70
3, 16704, Note_on_c, 0, 69, 0
3, 16704, Note_on_c, 0, 69, 67
3, 16896, Note_on_c, 0, 69, 0
3, 16896, Note_on_c, 0, 69, 65
3, 17088, Note_on_c, 0, 69, 0
3, 25344, Note_on_c, 0, 65, 59
3, 25536, Note_on_c, 0, 65, 0
3, 25536, Note_on_c, 0, 65, 58
3, 25920, Note_on_c, 0, 65, 0
3, 25920, Note_on_c, 0, 64, 61
3, 26304, Note_on_c, 0, 64, 0
3, 26496, Note_on_c, 0, 69, 65
3, 27072, Note_on_c, 0, 69, 0
3, 27072, Note_on_c, 0, 67, 68
3, 27425, Note_on_c, 0, 67, 0
3, 27648, Note_on_c, 0, 65, 63
3, 28224, Note_on_c, 0, 65, 0
3, 28224, Note_on_c, 0, 64, 62
3, 28800, Note_on_c, 0, 64, 0
3, 28800, End_track
4, 0, Start_track
4, 0, Title_t, "bass"
4, 0, Program_c, 0, 0
4, 0, Control_c, 0, 7, 105
4, 0, Control_c, 0, 10, 48
4, 0, Control_c, 0, 91, 100
4, 0, Control_c, 0, 64, 127
4, 0, Note_on_c, 0, 65, 42
4, 28, Control_c, 0, 121, 0
4, 96, Note_on_c, 0, 57, 38
4, 176, Note_on_c, 0, 65, 0
4, 192, Note_on_c, 0, 65, 43
4, 272, Note_on_c, 0, 57, 0
4, 288, Note_on_c, 0, 57, 34
4, 368, Note_on_c, 0, 65, 0
4, 384, Note_on_c, 0, 65, 51
4, 464, Note_on_c, 0, 57, 0
4, 480, Note_on_c, 0, 57, 40
4, 560, Note_on_c, 0, 65, 0
4, 576, Note_on_c, 0, 65, 51
4, 656, Note_on_c, 0, 57, 0
4, 672, Note_on_c, 0, 57, 42
4, 752, Note_on_c, 0, 65, 0
4, 768, Note_on_c, 0, 65, 51
4, 848, Note_on_c, 0, 57, 0
4, 864, Note_on_c, 0, 57, 41
4, 944, Note_on_c, 0, 65, 0
4, 960, Note_on_c, 0, 65, 46
4, 1040, Note_on_c, 0, 57, 0
4, 1056, Note_on_c, 0, 57, 30
4, 1136, Note_on_c, 0, 65, 0
4, 1152, Note_on_c, 0, 57, 0
4, 1152, Note_on_c, 0, 65, 46
4, 1248, Note_on_c, 0, 57, 39
4, 1328, Note_on_c, 0, 65, 0
4, 1344, Note_on_c, 0, 65, 42
4, 1424, Note_on_c, 0, 57, 0
4, 1440, Note_on_c, 0, 57, 36
4, 1520, Note_on_c, 0, 65, 0
4, 1536, Note_on_c, 0, 65, 48
4, 1616, Note_on_c, 0, 57, 0
4, 1632, Control_c, 0, 64, 0
4, 1632, Note_on_c, 0, 57, 42
4, 1712, Note_on_c, 0, 65, 0
4, 1728, Note_on_c, 0, 57, 0
4, 1728, Note_on_c, 0, 64, 43
4, 1742, Control_c, 0, 64, 127
4, 1824, Note_on_c, 0, 57, 39
4, 1904, Note_on_c, 0, 64, 0
4, 1920, Note_on_c, 0, 64, 43
4, 2000, Note_on_c, 0, 57, 0
4, 2016, Note_on_c, 0, 57, 38
4, 2096, Note_on_c, 0, 64, 0
4, 2112, Note_on_c, 0, 64, 39
4, 2192, Note_on_c, 0, 57, 0
4, 2208, Note_on_c, 0, 57, 41
4, 2259, Control_c, 0, 64, 0
4, 2288, Note_on_c, 0, 64, 0
4, 2304, Note_on_c, 0, 57, 0
4, 2304, Note_on_c, 0, 62, 51
4, 2332, Control_c, 0, 64, 127
4, 2400, Note_on_c, 0, 57, 43
4, 2480, Note_on_c, 0, 62, 0
4, 2496, Note_on_c, 0, 62, 44
4, 2576, Note_on_c, 0, 57, 0
4, 2592, Note_on_c, 0, 57, 40
4, 2672, Note_on_c, 0, 62, 0
4, 2688, Note_on_c, 0, 62, 44
4, 2768, Note_on_c, 0, 57, 0
4, 2784, Note_on_c, 0, 57, 45
4, 2864, Note_on_c, 0, 62, 0
4, 2870, Control_c, 0, 64, 0
4, 2880, Note_on_c, 0, 57, 0
4, 2880, Note_on_c, 0, 61, 48
4, 2901, Control_c, 0, 64, 127
4, 2976, Note_on_c, 0, 57, 43
4, 3056, Note_on_c, 0, 61, 0
4, 3072, Note_on_c, 0, 61, 45
4, 3152, Note_on_c, 0, 57, 0
4, 3168, Note_on_c, 0, 57, 43
4, 3248, Note_on_c, 0, 61, 0
4, 3264, Note_on_c, 0, 61, 46
4, 3344, Note_on_c, 0, 57, 0
4, 3360, Note_on_c, 0, 57, 44
4, 3411, Control_c, 0, 64, 0
4, 3440, Note_on_c, 0, 61, 0
4, 3456, Note_on_c, 0, 57, 0
4, 3456, Note_on_c, 0, 65, 57
4, 3470, Control_c, 0, 64, 127
4, 3552, Note_on_c, 0, 57, 40
4, 3632, Note_on_c, 0, 65, 0
4, 3648, Note_on_c, 0, 65, 50
4, 3728, Note_on_c, 0, 57, 0
4, 3744, Note_on_c, 0, 57, 46
4, 3824, Note_on_c, 0, 65, 0
4, 3840, Note_on_c, 0, 65, 48
4, 3920, Note_on_c, 0, 57, 0
4, 3936, Note_on_c, 0, 57, 42
4, 4015, Control_c, 0, 64, 0
4, 4016, Note_on_c, 0, 65, 0
4, 4032, Note_on_c, 0, 57, 0
4, 4032, Note_on_c, 0, 64, 50
4, 4046, Control_c, 0, 64, 127
4, 4128, Note_on_c, 0, 57, 40
4, 4208, Note_on_c, 0, 64, 0
4, 4224, Note_on_c, 0, 64, 44
4, 4304, Note_on_c, 0, 57, 0
4, 4320, Note_on_c, 0, 57, 42
4, 4400, Note_on_c, 0, 64, 0
4, 4416, Note_on_c, 0, 64, 44
4, 4496, Note_on_c, 0, 57, 0
4, 4512, Note_on_c, 0, 57, 43
4, 4577, Control_c, 0, 64, 0
4, 4592, Note_on_c, 0, 64, 0
4, 4608, Note_on_c, 0, 57, 0
4, 4608, Note_on_c, 0, 62, 50
4, 4636, Control_c, 0, 64, 127
4, 4704, Note_on_c, 0, 57, 39
4, 4784, Note_on_c, 0, 62, 0
4, 4800, Note_on_c, 0, 62, 43
4, 4880, Note_on_c, 0, 57, 0
4, 4896, Note_on_c, 0, 57, 43
4, 4976, Note_on_c, 0, 62, 0
4, 4992, Note_on_c, 0, 62, 46
4, 5072, Note_on_c, 0, 57, 0
4, 5088, Note_on_c, 0, 57, 45
4, 5160, Control_c, 0, 64, 0
4, 5168, Note_on_c, 0, 62, 0
4, 5184, Note_on_c, 0, 57, 0
4, 5184, Note_on_c, 0, 61, 48
4, 5212, Control_c, 0, 64, 127
4, 5280, Note_on_c, 0, 57, 44
4, 5360, Note_on_c, 0, 61, 0
4, 5376, Note_on_c, 0, 61, 51
4, 5456, Note_on_c, 0, 57, 0
4, 5472, Note_on_c, 0, 57, 38
4, 5552, Note_on_c, 0, 61, 0
4, 5568, Note_on_c, 0, 61, 46
4, 5648, Note_on_c, 0, 57, 0
4, 5664, Note_on_c, 0, 57, 47
4, 5729, Control_c, 0, 64, 0
4, 5744, Note_on_c, 0, 61, 0
4, 5760, Note_on_c, 0, 57, 0
4, 5760, Note_on_c, 0, 63, 56
4, 5781, Control_c, 0, 64, 127
4, 5856, Note_on_c, 0, 60, 56
4, 5936, Note_on_c, 0, 63, 0
4, 5952, Note_on_c, 0, 55, 54
4, 6032, Note_on_c, 0, 60, 0
4, 6048, Note_on_c, 0, 60, 53
4, 6128, Note_on_c, 0, 55, 0
4, 6144, Note_on_c, 0, 63, 51
4, 6224, Note_on_c, 0, 60, 0
4, 6240, Note_on_c, 0, 60, 50
4, 6305, Control_c, 0, 64, 0
4, 6320, Note_on_c, 0, 63, 0
4, 6336, Note_on_c, 0, 60, 0
4, 6336, Note_on_c, 0, 54, 59
4, 6364, Control_c, 0, 64, 127
4, 6432, Note_on_c, 0, 60, 47
4, 6512, Note_on_c, 0, 54, 0
4, 6528, Note_on_c, 0, 63, 47
4, 6608, Note_on_c, 0, 60, 0
4, 6624, Note_on_c, 0, 60, 52
4, 6704, Note_on_c, 0, 63, 0
4, 6720, Note_on_c, 0, 63, 39
4, 6800, Note_on_c, 0, 60, 0
4, 6816, Note_on_c, 0, 60, 50
4, 6881, Control_c, 0, 64, 0
4, 6896, Note_on_c, 0, 63, 0
4, 6912, Note_on_c, 0, 60, 0
4, 6912, Note_on_c, 0, 55, 56
4, 6926, Control_c, 0, 64, 127
4, 7008, Note_on_c, 0, 60, 41
4, 7088, Note_on_c, 0, 55, 0
4, 7104, Note_on_c, 0, 63, 47
4, 7184, Note_on_c, 0, 60, 0
4, 7200, Note_on_c, 0, 60, 51
4, 7280, Note_on_c, 0, 63, 0
4, 7296, Note_on_c, 0, 54, 60
4, 7376, Note_on_c, 0, 60, 0
4, 7392, Note_on_c, 0, 63, 48
4, 7464, Control_c, 0, 64, 0
4, 7472, Note_on_c, 0, 54, 0
4, 7488, Note_on_c, 0, 63, 0
4, 7488, Note_on_c, 0, 55, 58
4, 7502, Control_c, 0, 64, 127
4, 7584, Note_on_c, 0, 62, 50
4, 7664, Note_on_c, 0, 55, 0
4, 7680, Note_on_c, 0, 55, 54
4, 7760, Note_on_c, 0, 62, 0
4, 7776, Note_on_c, 0, 62, 43
4, 7856, Note_on_c, 0, 55, 0
4, 7872, Note_on_c, 0, 53, 65
4, 7952, Note_on_c, 0, 62, 0
4, 7968, Note_on_c, 0, 62, 44
4, 8033, Control_c, 0, 64, 0
4, 8048, Note_on_c, 0, 53, 0
4, 8064, Note_on_c, 0, 62, 0
4, 8064, Note_on_c, 0, 51, 65
4, 8085, Control_c, 0, 64, 127
4, 8160, Note_on_c, 0, 58, 44
4, 8240, Note_on_c, 0, 51, 0
4, 8256, Note_on_c, 0, 50, 65
4, 8336, Note_on_c, 0, 58, 0
4, 8352, Note_on_c, 0, 58, 49
4, 8432, Note_on_c, 0, 50, 0
4, 8448, Note_on_c, 0, 49, 61
4, 8528, Note_on_c, 0, 58, 0
4, 8544, Note_on_c, 0, 58, 49
4, 8623, Control_c, 0, 64, 0
4, 8624, Note_on_c, 0, 49, 0
4, 8640, Note_on_c, 0, 58, 0
4, 8640, Note_on_c, 0, 50, 60
4, 8736, Note_on_c, 0, 58, 46
4, 8816, Note_on_c, 0, 50, 0
4, 8832, Note_on_c, 0, 50, 57
4, 8912, Note_on_c, 0, 58, 0
4, 8928, Note_on_c, 0, 57, 55
4, 9008, Note_on_c, 0, 50, 0
4, 9024, Note_on_c, 0, 58, 50
4, 9104, Note_on_c, 0, 57, 0
4, 9120, Note_on_c, 0, 55, 52
4, 9200, Note_on_c, 0, 58, 0
4, 9216, Note_on_c, 0, 55, 0
4, 9216, Note_on_c, 0, 57, 54
4, 9312, Note_on_c, 0, 56, 49
4, 9392, Note_on_c, 0, 57, 0
4, 9408, Note_on_c, 0, 57, 50
4, 9488, Note_on_c, 0, 56, 0
4, 9504, Note_on_c, 0, 45, 56
4, 9584, Note_on_c, 0, 57, 0
4, 9600, Note_on_c, 0, 55, 54
4, 9680, Note_on_c, 0, 45, 0
4, 9696, Note_on_c, 0, 45, 47
4, 9776, Note_on_c, 0, 55, 0
4, 9792, Note_on_c, 0, 45, 0
4, 9792, Note_on_c, 0, 50, 56
4, 9806, Control_c, 0, 64, 127
4, 9888, Note_on_c, 0, 45, 54
4, 9968, Note_on_c, 0, 50, 0
4, 9984, Note_on_c, 0, 41, 52
4, 10064, Note_on_c, 0, 45, 0
4, 10080, Note_on_c, 0, 45, 51
4, 10160, Note_on_c, 0, 41, 0
4, 10176, Note_on_c, 0, 38, 52
4, 10256, Note_on_c, 0, 45, 0
4, 10351, Control_c, 0, 64, 0
4, 10368, Note_on_c, 0, 38, 0
4, 10368, Note_on_c, 0, 63, 36
4, 10389, Control_c, 0, 64, 127
4, 10464, Note_on_c, 0, 60, 38
4, 10544, Note_on_c, 0, 63, 0
4, 10560, Note_on_c, 0, 55, 37
4, 10640, Note_on_c, 0, 60, 0
4, 10656, Note_on_c, 0, 60, 34
4, 10736, Note_on_c, 0, 55, 0
4, 10752, Note_on_c, 0, 63, 37
4, 10832, Note_on_c, 0, 60, 0
4, 10848, Note_on_c, 0, 60, 35
4, 10927, Control_c, 0, 64, 0
4, 10928, Note_on_c, 0, 63, 0
4, 10944, Note_on_c, 0, 60, 0
4, 10944, Note_on_c, 0, 54, 50
4, 10972, Control_c, 0, 64, 127
4, 11040, Note_on_c, 0, 60, 36
4, 11120, Note_on_c, 0, 54, 0
4, 11136, Note_on_c, 0, 63, 28
4, 11216, Note_on_c, 0, 60, 0
4, 11232, Note_on_c, 0, 60, 37
4, 11312, Note_on_c, 0, 63, 0
4, 11328, Note_on_c, 0, 63, 40
4, 11408, Note_on_c, 0, 60, 0
4, 11424, Note_on_c, 0, 60, 39
4, 11489, Control_c, 0, 64, 0
4, 11504, Note_on_c, 0, 63, 0
4, 11520, Note_on_c, 0, 60, 0
4, 11520, Note_on_c, 0, 55, 55
4, 11548, Control_c, 0, 64, 127
4, 11616, Note_on_c, 0, 60, 46
4, 11696, Note_on_c, 0, 55, 0
4, 11712, Note_on_c, 0, 63, 50
4, 11792, Note_on_c, 0, 60, 0
4, 11808, Note_on_c, 0, 60, 54
4, 11888, Note_on_c, 0, 63, 0
4, 11904, Note_on_c, 0, 54, 64
4, 11984, Note_on_c, 0, 60, 0
4, 12000, Note_on_c, 0, 63, 52
4, 12065, Control_c, 0, 64, 0
4, 12080, Note_on_c, 0, 54, 0
4, 12096, Note_on_c, 0, 63, 0
4, 12096, Note_on_c, 0, 55, 48
4, 12117, Control_c, 0, 64, 127
4, 12192, Note_on_c, 0, 62, 40
4, 12272, Note_on_c, 0, 55, 0
4, 12288, Note_on_c, 0, 55, 39
4, 12368, Note_on_c, 0, 62, 0
4, 12384, Note_on_c, 0, 62, 38
4, 12464, Note_on_c, 0, 55, 0
4, 12480, Note_on_c, 0, 53, 40
4, 12560, Note_on_c, 0, 62, 0
4, 12576, Note_on_c, 0, 62, 35
4, 12648, Control_c, 0, 64, 0
4, 12656, Note_on_c, 0, 53, 0
4, 12672, Note_on_c, 0, 62, 0
4, 12672, Note_on_c, 0, 51, 48
4, 12768, Note_on_c, 0, 58, 40
4, 12848, Note_on_c, 0, 51, 0
4, 12864, Note_on_c, 0, 50, 44
4, 12944, Note_on_c, 0, 58, 0
4, 12960, Note_on_c, 0, 58, 36
4, 13040, Note_on_c, 0, 50, 0
4, 13056, Note_on_c, 0, 49, 42
4, 13136, Note_on_c, 0, 58, 0
4, 13152, Note_on_c, 0, 58, 31
4, 13232, Note_on_c, 0, 49, 0
4, 13248, Note_on_c, 0, 58, 0
4, 13248, Note_on_c, 0, 50, 38
4, 13344, Note_on_c, 0, 58, 33
4, 13424, Note_on_c, 0, 50, 0
4, 13440, Note_on_c, 0, 50, 42
4, 13520, Note_on_c, 0, 58, 0
4, 13536, Note_on_c, 0, 57, 38
4, 13616, Note_on_c, 0, 50, 0
4, 13632, Note_on_c, 0, 58, 38
4, 13712, Note_on_c, 0, 57, 0
4, 13728, Note_on_c, 0, 55, 38
4, 13808, Note_on_c, 0, 58, 0
4, 13824, Note_on_c, 0, 55, 0
4, 13824, Note_on_c, 0, 57, 46
4, 13920, Note_on_c, 0, 56, 38
4, 14000, Note_on_c, 0, 57, 0
4, 14016, Note_on_c, 0, 57, 40
4, 14096, Note_on_c, 0, 56, 0
4, 14112, Note_on_c, 0, 45, 45
4, 14192, Note_on_c, 0, 57, 0
4, 14208, Note_on_c, 0, 55, 53
4, 14288, Note_on_c, 0, 45, 0
4, 14304, Note_on_c, 0, 45, 41
4, 14384, Note_on_c, 0, 55, 0
4, 14400, Note_on_c, 0, 45, 0
4, 14400, Note_on_c, 0, 50, 49
4, 14421, Control_c, 0, 64, 127
4, 14496, Note_on_c, 0, 45, 39
4, 14576, Note_on_c, 0, 50, 0
4, 14592, Note_on_c, 0, 41, 38
4, 14672, Note_on_c, 0, 45, 0
4, 14688, Note_on_c, 0, 45, 36
4, 14768, Note_on_c, 0, 41, 0
4, 14784, Note_on_c, 0, 38, 39
4, 14864, Note_on_c, 0, 45, 0
4, 14959, Control_c, 0, 64, 0
4, 14976, Note_on_c, 0, 38, 0
4, 14976, Note_on_c, 0, 62, 35
4, 15004, Control_c, 0, 64, 127
4, 15360, Note_on_c, 0, 62, 0
4, 15360, Note_on_c, 0, 55, 41
4, 15542, Control_c, 0, 64, 0
4, 15552, Note_on_c, 0, 55, 0
4, 15552, Note_on_c, 0, 48, 40
4, 15552, Note_on_c, 0, 55, 37
4, 15580, Control_c, 0, 64, 127
4, 15744, Note_on_c, 0, 55, 0
4, 15744, Note_on_c, 0, 48, 0
4, 15744, Note_on_c, 0, 48, 42
4, 15744, Note_on_c, 0, 55, 39
4, 16111, Control_c, 0, 64, 0
4, 16128, Note_on_c, 0, 55, 0
4, 16128, Note_on_c, 0, 48, 0
4, 16128, Note_on_c, 0, 55, 35
4, 16128, Note_on_c, 0, 62, 40
4, 16128, Note_on_c, 0, 64, 34
4, 16156, Control_c, 0, 64, 127
4, 16320, Note_on_c, 0, 64, 0
4, 16320, Note_on_c, 0, 62, 0
4, 16320, Note_on_c, 0, 55, 0
4, 16320, Note_on_c, 0, 55, 40
4, 16320, Note_on_c, 0, 62, 36
4, 16320, Note_on_c, 0, 64, 34
4, 16512, Note_on_c, 0, 64, 0
4, 16512, Note_on_c, 0, 62, 0
4, 16512, Note_on_c, 0, 55, 0
4, 16512, Note_on_c, 0, 57, 41
4, 16512, Note_on_c, 0, 61, 43
4, 16687, Control_c, 0, 64, 0
4, 16704, Note_on_c, 0, 61, 0
4, 16704, Note_on_c, 0, 57, 0
4, 16704, Note_on_c, 0, 50, 47
4, 16704, Note_on_c, 0, 57, 36
4, 16718, Control_c, 0, 64, 127
4, 16896, Note_on_c, 0, 57, 0
4, 16896, Note_on_c, 0, 50, 0
4, 16896, Note_on_c, 0, 62, 43
4, 16896, Note_on_c, 0, 65, 45
4, 17263, Control_c, 0, 64, 0
4, 17280, Note_on_c, 0, 65, 0
4, 17280, Note_on_c, 0, 62, 0
4, 17280, Note_on_c, 0, 57, 40
4, 17280, Note_on_c, 0, 64, 38
4, 17301, Control_c, 0, 64, 127
4, 17472, Note_on_c, 0, 64, 0
4, 17472, Note_on_c, 0, 57, 0
4, 17472, Note_on_c, 0, 57, 37
4, 17472, Note_on_c, 0, 64, 34
4, 17760, Note_on_c, 0, 64, 0
4, 17760, Note_on_c, 0, 57, 0
4, 17760, Note_on_c, 0, 65, 49
4, 17839, Control_c, 0, 64, 0
4, 17856, Note_on_c, 0, 65, 0
4, 17856, Note_on_c, 0, 57, 37
4, 17856, Note_on_c, 0, 64, 42
4, 17877, Control_c, 0, 64, 127
4, 18048, Note_on_c, 0, 64, 0
4, 18048, Note_on_c, 0, 57, 0
4, 18048, Note_on_c, 0, 57, 42
4, 18048, Note_on_c, 0, 64, 41
4, 18240, Note_on_c, 0, 64, 0
4, 18240, Note_on_c, 0, 57, 0
4, 18240, Note_on_c, 0, 63, 48
4, 18401, Control_c, 0, 64, 0
4, 18432, Note_on_c, 0, 63, 0
4, 18432, Note_on_c, 0, 62, 48
4, 18460, Control_c, 0, 64, 127
4, 18624, Note_on_c, 0, 52, 49
4, 18704, Note_on_c, 0, 62, 0
4, 18816, Note_on_c, 0, 62, 40
4, 18896, Note_on_c, 0, 52, 0
4, 18977, Control_c, 0, 64, 0
4, 19008, Note_on_c, 0, 62, 0
4, 19008, Note_on_c, 0, 57, 37
4, 19008, Note_on_c, 0, 61, 39
4, 19015, Control_c, 0, 64, 127
4, 19200, Note_on_c, 0, 45, 45
4, 19280, Note_on_c, 0, 61, 0
4, 19280, Note_on_c, 0, 57, 0
4, 19392, Note_on_c, 0, 45, 0
4, 19560, Control_c, 0, 64, 0
4, 23040, Control_c, 0, 10, 20
4, 23040, Control_c, 0, 10, 20
4, 23040, Control_c, 0, 10, 20
4, 23040, Control_c, 0, 10, 20
4, 23040, Program_c, 0, 0
4, 23054, Control_c, 0, 64, 127
4, 23592, Control_c, 0, 64, 0
4, 23623, Control_c, 0, 64, 127
4, 24168, Control_c, 0, 64, 0
4, 24192, Note_on_c, 0, 50, 53
4, 24213, Control_c, 0, 64, 127
4, 24288, Note_on_c, 0, 57, 43
4, 24368, Note_on_c, 0, 50, 0
4, 24384, Note_on_c, 0, 65, 49
4, 24464, Note_on_c, 0, 57, 0
4, 24480, Note_on_c, 0, 57, 46
4, 24560, Note_on_c, 0, 65, 0
4, 24576, Note_on_c, 0, 65, 52
4, 24656, Note_on_c, 0, 57, 0
4, 24672, Note_on_c, 0, 57, 38
4, 24752, Note_on_c, 0, 65, 0
4, 24758, Control_c, 0, 64, 0
4, 24768, Note_on_c, 0, 57, 0
4, 24768, Note_on_c, 0, 64, 58
4, 24789, Control_c, 0, 64, 127
4, 24864, Note_on_c, 0, 57, 43
4, 24944, Note_on_c, 0, 64, 0
4, 24960, Note_on_c, 0, 64, 58
4, 25040, Note_on_c, 0, 57, 0
4, 25056, Note_on_c, 0, 57, 43
4, 25136, Note_on_c, 0, 64, 0
4, 25152, Note_on_c, 0, 64, 42
4, 25232, Note_on_c, 0, 57, 0
4, 25248, Note_on_c, 0, 57, 43
4, 25313, Control_c, 0, 64, 0
4, 25328, Note_on_c, 0, 64, 0
4, 25344, Note_on_c, 0, 57, 0
4, 25344, Note_on_c, 0, 62, 59
4, 25358, Control_c, 0, 64, 127
4, 25440, Note_on_c, 0, 57, 40
4, 25520, Note_on_c, 0, 62, 0
4, 25536, Note_on_c, 0, 50, 53
4, 25616, Note_on_c, 0, 57, 0
4, 25632, Note_on_c, 0, 57, 44
4, 25712, Note_on_c, 0, 50, 0
4, 25728, Note_on_c, 0, 62, 55
4, 25808, Note_on_c, 0, 57, 0
4, 25824, Note_on_c, 0, 57, 41
4, 25904, Note_on_c, 0, 62, 0
4, 25910, Control_c, 0, 64, 0
4, 25920, Note_on_c, 0, 57, 0
4, 25920, Note_on_c, 0, 61, 55
4, 25941, Control_c, 0, 64, 127
4, 26016, Note_on_c, 0, 57, 44
4, 26096, Note_on_c, 0, 61, 0
4, 26112, Note_on_c, 0, 61, 50
4, 26192, Note_on_c, 0, 57, 0
4, 26208, Note_on_c, 0, 57, 41
4, 26288, Note_on_c, 0, 61, 0
4, 26304, Note_on_c, 0, 61, 45
4, 26384, Note_on_c, 0, 57, 0
4, 26400, Note_on_c, 0, 57, 44
4, 26465, Control_c, 0, 64, 0
4, 26480, Note_on_c, 0, 61, 0
4, 26496, Note_on_c, 0, 57, 0
4, 26496, Note_on_c, 0, 65, 62
4, 26517, Control_c, 0, 64, 127
4, 26592, Note_on_c, 0, 57, 41
4, 26672, Note_on_c, 0, 65, 0
4, 26688, Note_on_c, 0, 50, 39
4, 26768, Note_on_c, 0, 57, 0
4, 26784, Note_on_c, 0, 57, 52
4, 26864, Note_on_c, 0, 50, 0
4, 26880, Note_on_c, 0, 65, 59
4, 26960, Note_on_c, 0, 57, 0
4, 26976, Note_on_c, 0, 57, 37
4, 27055, Control_c, 0, 64, 0
4, 27056, Note_on_c, 0, 65, 0
4, 27072, Note_on_c, 0, 57, 0
4, 27072, Note_on_c, 0, 64, 57
4, 27107, Control_c, 0, 64, 127
4, 27168, Note_on_c, 0, 57, 48
4, 27248, Note_on_c, 0, 64, 0
4, 27264, Note_on_c, 0, 64, 49
4, 27344, Note_on_c, 0, 57, 0
4, 27360, Note_on_c, 0, 57, 43
4, 27440, Note_on_c, 0, 64, 0
4, 27456, Note_on_c, 0, 64, 55
4, 27536, Note_on_c, 0, 57, 0
4, 27552, Note_on_c, 0, 57, 45
4, 27624, Control_c, 0, 64, 0
4, 27632, Note_on_c, 0, 64, 0
4, 27648, Note_on_c, 0, 57, 0
4, 27648, Note_on_c, 0, 62, 60
4, 27676, Control_c, 0, 64, 127
4, 27744, Note_on_c, 0, 57, 40
4, 27824, Note_on_c, 0, 62, 0
4, 27840, Note_on_c, 0, 50, 49
4, 27920, Note_on_c, 0, 57, 0
4, 27936, Note_on_c, 0, 57, 47
4, 28016, Note_on_c, 0, 50, 0
4, 28032, Note_on_c, 0, 62, 55
4, 28112, Note_on_c, 0, 57, 0
4, 28128, Note_on_c, 0, 57, 42
4, 28193, Control_c, 0, 64, 0
4, 28208, Note_on_c, 0, 62, 0
4, 28224, Note_on_c, 0, 57, 0
4, 28224, Note_on_c, 0, 61, 54
4, 28231, Control_c, 0, 64, 127
4, 28320, Note_on_c, 0, 57, 48
4, 28400, Note_on_c, 0, 61, 0
4, 28416, Note_on_c, 0, 61, 43
4, 28496, Note_on_c, 0, 57, 0
4, 28512, Note_on_c, 0, 57, 42
4, 28592, Note_on_c, 0, 61, 0
4, 28608, Note_on_c, 0, 61, 41
4, 28688, Note_on_c, 0, 57, 0
4, 28704, Note_on_c, 0, 57, 36
4, 28776, Control_c, 0, 64, 0
4, 28784, Note_on_c, 0, 61, 0
4, 28800, Note_on_c, 0, 57, 0
4, 28800, Note_on_c, 0, 63, 56
4, 28828, Control_c, 0, 64, 127
4, 28896, Note_on_c, 0, 60, 52
4, 28976, Note_on_c, 0, 63, 0
4, 28992, Note_on_c, 0, 55, 48
4, 29072, Note_on_c, 0, 60, 0
4, 29088, Note_on_c, 0, 60, 46
4, 29168, Note_on_c, 0, 55, 0
4, 29184, Note_on_c, 0, 63, 47
4, 29264, Note_on_c, 0, 60, 0
4, 29280, Note_on_c, 0, 60, 44
4, 29359, Control_c, 0, 64, 0
4, 29360, Note_on_c, 0, 63, 0
4, 29376, Note_on_c, 0, 60, 0
4, 29376, Note_on_c, 0, 54, 60
4, 29397, Control_c, 0, 64, 127
4, 29472, Note_on_c, 0, 60, 45
4, 29552, Note_on_c, 0, 54, 0
4, 29568, Note_on_c, 0, 63, 44
4, 29648, Note_on_c, 0, 60, 0
4, 29664, Note_on_c, 0, 60, 49
4, 29744, Note_on_c, 0, 63, 0
4, 29760, Note_on_c, 0, 63, 50
4, 29840, Note_on_c, 0, 60, 0
4, 29856, Note_on_c, 0, 60, 46
4, 29928, Control_c, 0, 64, 0
4, 29936, Note_on_c, 0, 63, 0
4, 29952, Note_on_c, 0, 60, 0
4, 29952, Note_on_c, 0, 55, 60
4, 30048, Note_on_c, 0, 60, 46
4, 30128, Note_on_c, 0, 55, 0
4, 30144, Note_on_c, 0, 63, 48
4, 30224, Note_on_c, 0, 60, 0
4, 30240, Note_on_c, 0, 60, 46
4, 30320, Note_on_c, 0, 63, 0
4, 30336, Note_on_c, 0, 54, 56
4, 30416, Note_on_c, 0, 60, 0
4, 30432, Note_on_c, 0, 63, 44
4, 30512, Note_on_c, 0, 54, 0
4, 30528, Note_on_c, 0, 63, 0
4, 30528, Note_on_c, 0, 55, 64
4, 30624, Note_on_c, 0, 62, 51
4, 30704, Note_on_c, 0, 55, 0
4, 30720, Note_on_c, 0, 55, 56
4, 30800, Note_on_c, 0, 62, 0
4, 30816, Note_on_c, 0, 62, 44
4, 30896, Note_on_c, 0, 55, 0
4, 30912, Note_on_c, 0, 53, 63
4, 30992, Note_on_c, 0, 62, 0
4, 31008, Note_on_c, 0, 62, 49
4, 31088, Note_on_c, 0, 53, 0
4, 31104, Note_on_c, 0, 62, 0
4, 31104, Note_on_c, 0, 51, 63
4, 31200, Note_on_c, 0, 58, 47
4, 31280, Note_on_c, 0, 51, 0
4, 31296, Note_on_c, 0, 50, 59
4, 31376, Note_on_c, 0, 58, 0
4, 31392, Note_on_c, 0, 58, 42
4, 31472, Note_on_c, 0, 50, 0
4, 31488, Note_on_c, 0, 49, 57
4, 31568, Note_on_c, 0, 58, 0
4, 31584, Note_on_c, 0, 58, 42
4, 31664, Note_on_c, 0, 49, 0
4, 31680, Note_on_c, 0, 58, 0
4, 31680, Note_on_c, 0, 50, 59
4, 31776, Note_on_c, 0, 58, 40
4, 31856, Note_on_c, 0, 50, 0
4, 31872, Note_on_c, 0, 50, 56
4, 31952, Note_on_c, 0, 58, 0
4, 31968, Note_on_c, 0, 57, 52
4, 32048, Note_on_c, 0, 50, 0
4, 32064, Note_on_c, 0, 58, 56
4, 32144, Note_on_c, 0, 57, 0
4, 32160, Note_on_c, 0, 55, 53
4, 32240, Note_on_c, 0, 58, 0
4, 32256, Note_on_c, 0, 55, 0
4, 32256, Note_on_c, 0, 57, 46
4, 32277, Control_c, 0, 64, 127
4, 32352, Note_on_c, 0, 56, 53
4, 32432, Note_on_c, 0, 57, 0
4, 32448, Note_on_c, 0, 57, 55
4, 32528, Note_on_c, 0, 56, 0
4, 32544, Note_on_c, 0, 45, 50
4, 32624, Note_on_c, 0, 57, 0
4, 32640, Note_on_c, 0, 55, 57
4, 32720, Note_on_c, 0, 45, 0
4, 32736, Note_on_c, 0, 45, 51
4, 32816, Note_on_c, 0, 55, 0
4, 32832, Note_on_c, 0, 45, 0
4, 32832, Note_on_c, 0, 50, 58
4, 32928, Note_on_c, 0, 45, 46
4, 33008, Note_on_c, 0, 50, 0
4, 33024, Note_on_c, 0, 41, 48
4, 33104, Note_on_c, 0, 45, 0
4, 33120, Note_on_c, 0, 45, 52
4, 33200, Note_on_c, 0, 41, 0
4, 33216, Note_on_c, 0, 38, 59
4, 33296, Note_on_c, 0, 45, 0
4, 33576, Control_c, 0, 64, 0
4, 33614, Note_on_c, 0, 38, 0
4, 33614, End_track
0, 0, End_of_file
