0, 0, Header, 1, 5, 480
1, 0, Start_track
1, 0, Title_t, "Contes Bleus"
1, 0, Title_t, "Op-122 No-02"
1, 0, Text_t, "Cecile Chaminade"
1, 0, Time_signature, 2, 2, 24, 8
1, 0, Key_signature, 0, "major"
1, 0, Tempo, 500000
1, 1920, Time_signature, 6, 2, 24, 8
1, 1920, Tempo, 603015
1, 39360, Time_signature, 3, 2, 24, 8
1, 39360, Tempo, 802676
1, 40800, Time_signature, 6, 2, 24, 8
1, 40800, Tempo, 603015
1, 58080, Tempo, 668524
1, 66720, Tempo, 764331
1, 69480, Tempo, 603015
1, 78120, Tempo, 603015
1, 112800, Time_signature, 3, 2, 24, 8
1, 112800, Tempo, 674157
1, 114240, Time_signature, 6, 2, 24, 8
1, 114240, Tempo, 631579
1, 120000, Tempo, 662983
1, 122880, Tempo, 697674
1, 122880, End_track
2, 0, Start_track
2, 0, Title_t, "Piano"
2, 0, Program_c, 0, 0
2, 0, Control_c, 0, 7, 105
2, 0, Control_c, 0, 10, 83
2, 0, Control_c, 0, 91, 91
2, 0, Control_c, 0, 11, 110
2, 1920, Note_on_c, 0, 74, 45
2, 1920, Note_on_c, 0, 62, 45
2, 2040, Control_c, 0, 64, 127
2, 2160, Note_on_c, 0, 62, 0
2, 2160, Note_on_c, 0, 74, 0
2, 2160, Note_on_c, 0, 74, 40
2, 2160, Note_on_c, 0, 62, 40
2, 2400, Note_on_c, 0, 62, 0
2, 2400, Note_on_c, 0, 74, 0
2, 2400, Note_on_c, 0, 74, 46
2, 2400, Note_on_c, 0, 62, 46
2, 2880, Note_on_c, 0, 62, 0
2, 2880, Note_on_c, 0, 74, 0
2, 2880, Note_on_c, 0, 74, 41
2, 2880, Note_on_c, 0, 62, 41
2, 3120, Note_on_c, 0, 62, 0
2, 3120, Note_on_c, 0, 74, 0
2, 3120, Note_on_c, 0, 74, 41
2, 3120, Note_on_c, 0, 62, 41
2, 3360, Note_on_c, 0, 62, 0
2, 3360, Note_on_c, 0, 74, 0
2, 3360, Note_on_c, 0, 74, 41
2, 3360, Note_on_c, 0, 62, 41
2, 3600, Note_on_c, 0, 62, 0
2, 3600, Note_on_c, 0, 74, 0
2, 3600, Note_on_c, 0, 74, 41
2, 3600, Note_on_c, 0, 62, 41
2, 3840, Note_on_c, 0, 62, 0
2, 3840, Note_on_c, 0, 74, 0
2, 3840, Note_on_c, 0, 74, 40
2, 3840, Note_on_c, 0, 62, 40
2, 4080, Note_on_c, 0, 62, 0
2, 4080, Note_on_c, 0, 74, 0
2, 4080, Note_on_c, 0, 74, 39
2, 4080, Note_on_c, 0, 62, 39
2, 4320, Note_on_c, 0, 62, 0
2, 4320, Note_on_c, 0, 74, 0
2, 4320, Note_on_c, 0, 74, 39
2, 4320, Note_on_c, 0, 62, 39
2, 4560, Note_on_c, 0, 62, 0
2, 4560, Note_on_c, 0, 74, 0
2, 4560, Note_on_c, 0, 74, 40
2, 4560, Note_on_c, 0, 62, 40
2, 4620, Note_on_c, 0, 62, 0
2, 4620, Note_on_c, 0, 62, 45
2, 4800, Note_on_c, 0, 74, 0
2, 4800, Note_on_c, 0, 74, 45
2, 4860, Note_on_c, 0, 62, 0
2, 5040, Note_on_c, 0, 74, 0
2, 5040, Note_on_c, 0, 62, 40
2, 5040, Note_on_c, 0, 74, 40
2, 5280, Note_on_c, 0, 74, 0
2, 5280, Note_on_c, 0, 62, 0
2, 5280, Note_on_c, 0, 62, 46
2, 5280, Note_on_c, 0, 74, 46
2, 5760, Note_on_c, 0, 74, 0
2, 5760, Note_on_c, 0, 62, 0
2, 5760, Note_on_c, 0, 62, 40
2, 5760, Note_on_c, 0, 74, 40
2, 6000, Note_on_c, 0, 74, 0
2, 6000, Note_on_c, 0, 62, 0
2, 6000, Note_on_c, 0, 62, 40
2, 6000, Note_on_c, 0, 74, 40
2, 6060, Note_on_c, 0, 62, 0
2, 6060, Note_on_c, 0, 62, 41
2, 6240, Note_on_c, 0, 74, 0
2, 6240, Note_on_c, 0, 74, 41
2, 6300, Note_on_c, 0, 62, 0
2, 6480, Note_on_c, 0, 74, 0
2, 6480, Note_on_c, 0, 62, 41
2, 6480, Note_on_c, 0, 74, 41
2, 6720, Note_on_c, 0, 74, 0
2, 6720, Note_on_c, 0, 62, 0
2, 6720, Note_on_c, 0, 62, 41
2, 6720, Note_on_c, 0, 74, 41
2, 6960, Note_on_c, 0, 74, 0
2, 6960, Note_on_c, 0, 62, 0
2, 6960, Note_on_c, 0, 62, 41
2, 6960, Note_on_c, 0, 74, 41
2, 7200, Note_on_c, 0, 74, 0
2, 7200, Note_on_c, 0, 62, 0
2, 7200, Note_on_c, 0, 62, 41
2, 7200, Note_on_c, 0, 74, 41
2, 7440, Note_on_c, 0, 74, 0
2, 7440, Note_on_c, 0, 62, 0
2, 7440, Note_on_c, 0, 62, 41
2, 7440, Note_on_c, 0, 74, 41
2, 7635, Control_c, 0, 64, 0
2, 7680, Note_on_c, 0, 74, 0
2, 7680, Note_on_c, 0, 62, 0
2, 7680, Note_on_c, 0, 62, 52
2, 7680, Note_on_c, 0, 74, 52
2, 7680, Note_on_c, 0, 66, 52
2, 7710, Control_c, 0, 64, 127
2, 7920, Note_on_c, 0, 66, 0
2, 7920, Note_on_c, 0, 74, 0
2, 7920, Note_on_c, 0, 62, 0
2, 7920, Note_on_c, 0, 66, 45
2, 7920, Note_on_c, 0, 74, 45
2, 7920, Note_on_c, 0, 62, 45
2, 8160, Note_on_c, 0, 62, 0
2, 8160, Note_on_c, 0, 74, 0
2, 8160, Note_on_c, 0, 66, 0
2, 8160, Note_on_c, 0, 66, 49
2, 8160, Note_on_c, 0, 74, 49
2, 8160, Note_on_c, 0, 62, 49
2, 8400, Note_on_c, 0, 62, 0
2, 8400, Note_on_c, 0, 74, 0
2, 8400, Note_on_c, 0, 66, 0
2, 8400, Note_on_c, 0, 66, 45
2, 8400, Note_on_c, 0, 74, 45
2, 8400, Note_on_c, 0, 62, 45
2, 8640, Note_on_c, 0, 62, 0
2, 8640, Note_on_c, 0, 74, 0
2, 8640, Note_on_c, 0, 66, 0
2, 8640, Note_on_c, 0, 62, 49
2, 8640, Note_on_c, 0, 66, 49
2, 8640, Note_on_c, 0, 74, 49
2, 8880, Note_on_c, 0, 74, 0
2, 8880, Note_on_c, 0, 66, 0
2, 8880, Note_on_c, 0, 62, 0
2, 8880, Note_on_c, 0, 62, 45
2, 8880, Note_on_c, 0, 66, 45
2, 8880, Note_on_c, 0, 74, 45
2, 9060, Control_c, 0, 64, 0
2, 9120, Note_on_c, 0, 74, 0
2, 9120, Note_on_c, 0, 66, 0
2, 9120, Note_on_c, 0, 62, 0
2, 9120, Note_on_c, 0, 67, 48
2, 9120, Note_on_c, 0, 64, 48
2, 9120, Note_on_c, 0, 74, 48
2, 9150, Control_c, 0, 64, 127
2, 9360, Note_on_c, 0, 74, 0
2, 9360, Note_on_c, 0, 64, 0
2, 9360, Note_on_c, 0, 67, 0
2, 9360, Note_on_c, 0, 74, 45
2, 9360, Note_on_c, 0, 67, 45
2, 9360, Note_on_c, 0, 64, 45
2, 9600, Note_on_c, 0, 64, 0
2, 9600, Note_on_c, 0, 67, 0
2, 9600, Note_on_c, 0, 74, 0
2, 9600, Note_on_c, 0, 74, 48
2, 9600, Note_on_c, 0, 64, 48
2, 9600, Note_on_c, 0, 67, 48
2, 9840, Note_on_c, 0, 67, 0
2, 9840, Note_on_c, 0, 64, 0
2, 9840, Note_on_c, 0, 74, 0
2, 9840, Note_on_c, 0, 64, 45
2, 9840, Note_on_c, 0, 67, 45
2, 9840, Note_on_c, 0, 74, 45
2, 10080, Note_on_c, 0, 74, 0
2, 10080, Note_on_c, 0, 67, 0
2, 10080, Note_on_c, 0, 64, 0
2, 10080, Note_on_c, 0, 64, 48
2, 10080, Note_on_c, 0, 74, 48
2, 10080, Note_on_c, 0, 67, 48
2, 10320, Note_on_c, 0, 67, 0
2, 10320, Note_on_c, 0, 74, 0
2, 10320, Note_on_c, 0, 64, 0
2, 10320, Note_on_c, 0, 64, 45
2, 10320, Note_on_c, 0, 74, 45
2, 10320, Note_on_c, 0, 67, 45
2, 10485, Control_c, 0, 64, 0
2, 10560, Note_on_c, 0, 67, 0
2, 10560, Note_on_c, 0, 74, 0
2, 10560, Note_on_c, 0, 64, 0
2, 10560, Note_on_c, 0, 66, 52
2, 10560, Note_on_c, 0, 62, 52
2, 10560, Note_on_c, 0, 74, 52
2, 10605, Control_c, 0, 64, 127
2, 10800, Note_on_c, 0, 74, 0
2, 10800, Note_on_c, 0, 62, 0
2, 10800, Note_on_c, 0, 66, 0
2, 10800, Note_on_c, 0, 66, 48
2, 10800, Note_on_c, 0, 74, 48
2, 10800, Note_on_c, 0, 62, 48
2, 11040, Note_on_c, 0, 62, 0
2, 11040, Note_on_c, 0, 74, 0
2, 11040, Note_on_c, 0, 66, 0
2, 11040, Note_on_c, 0, 74, 47
2, 11040, Note_on_c, 0, 66, 47
2, 11040, Note_on_c, 0, 62, 47
2, 11280, Note_on_c, 0, 62, 0
2, 11280, Note_on_c, 0, 66, 0
2, 11280, Note_on_c, 0, 74, 0
2, 11280, Note_on_c, 0, 62, 47
2, 11280, Note_on_c, 0, 74, 47
2, 11280, Note_on_c, 0, 66, 47
2, 11520, Note_on_c, 0, 66, 0
2, 11520, Note_on_c, 0, 74, 0
2, 11520, Note_on_c, 0, 62, 0
2, 11520, Note_on_c, 0, 62, 47
2, 11520, Note_on_c, 0, 66, 47
2, 11520, Note_on_c, 0, 74, 47
2, 11760, Note_on_c, 0, 74, 0
2, 11760, Note_on_c, 0, 66, 0
2, 11760, Note_on_c, 0, 62, 0
2, 11760, Note_on_c, 0, 66, 47
2, 11760, Note_on_c, 0, 74, 47
2, 11760, Note_on_c, 0, 62, 47
2, 11955, Control_c, 0, 64, 0
2, 12000, Note_on_c, 0, 62, 0
2, 12000, Note_on_c, 0, 74, 0
2, 12000, Note_on_c, 0, 66, 0
2, 12000, Note_on_c, 0, 71, 47
2, 12000, Note_on_c, 0, 67, 47
2, 12000, Note_on_c, 0, 74, 47
2, 12030, Control_c, 0, 64, 127
2, 12240, Note_on_c, 0, 74, 0
2, 12240, Note_on_c, 0, 67, 0
2, 12240, Note_on_c, 0, 71, 0
2, 12240, Note_on_c, 0, 71, 47
2, 12240, Note_on_c, 0, 74, 47
2, 12240, Note_on_c, 0, 67, 47
2, 12480, Note_on_c, 0, 67, 0
2, 12480, Note_on_c, 0, 74, 0
2, 12480, Note_on_c, 0, 71, 0
2, 12480, Note_on_c, 0, 74, 47
2, 12480, Note_on_c, 0, 71, 47
2, 12480, Note_on_c, 0, 67, 47
2, 12720, Note_on_c, 0, 67, 0
2, 12720, Note_on_c, 0, 71, 0
2, 12720, Note_on_c, 0, 74, 0
2, 12720, Note_on_c, 0, 71, 51
2, 12720, Note_on_c, 0, 74, 51
2, 12720, Note_on_c, 0, 67, 51
2, 12960, Note_on_c, 0, 67, 0
2, 12960, Note_on_c, 0, 74, 0
2, 12960, Note_on_c, 0, 71, 0
2, 12960, Note_on_c, 0, 71, 53
2, 12960, Note_on_c, 0, 74, 53
2, 12960, Note_on_c, 0, 67, 53
2, 13200, Note_on_c, 0, 67, 0
2, 13200, Note_on_c, 0, 74, 0
2, 13200, Note_on_c, 0, 71, 0
2, 13200, Note_on_c, 0, 74, 57
2, 13200, Note_on_c, 0, 71, 57
2, 13200, Note_on_c, 0, 67, 57
2, 13395, Control_c, 0, 64, 0
2, 13440, Note_on_c, 0, 67, 0
2, 13440, Note_on_c, 0, 71, 0
2, 13440, Note_on_c, 0, 74, 0
2, 13440, Note_on_c, 0, 75, 60
2, 13440, Note_on_c, 0, 79, 60
2, 13440, Note_on_c, 0, 73, 60
2, 13440, Note_on_c, 0, 67, 60
2, 13470, Control_c, 0, 64, 127
2, 13680, Note_on_c, 0, 67, 0
2, 13680, Note_on_c, 0, 75, 0
2, 13680, Note_on_c, 0, 79, 0
2, 13680, Note_on_c, 0, 73, 0
2, 13680, Note_on_c, 0, 79, 55
2, 13680, Note_on_c, 0, 75, 55
2, 13680, Note_on_c, 0, 67, 55
2, 13920, Note_on_c, 0, 67, 0
2, 13920, Note_on_c, 0, 75, 0
2, 13920, Note_on_c, 0, 79, 0
2, 13920, Note_on_c, 0, 79, 54
2, 13920, Note_on_c, 0, 75, 54
2, 13920, Note_on_c, 0, 67, 54
2, 14160, Note_on_c, 0, 67, 0
2, 14160, Note_on_c, 0, 75, 0
2, 14160, Note_on_c, 0, 79, 0
2, 14160, Note_on_c, 0, 73, 54
2, 14160, Note_on_c, 0, 79, 54
2, 14160, Note_on_c, 0, 75, 54
2, 14160, Note_on_c, 0, 67, 54
2, 14400, Note_on_c, 0, 67, 0
2, 14400, Note_on_c, 0, 73, 0
2, 14400, Note_on_c, 0, 79, 0
2, 14400, Note_on_c, 0, 75, 0
2, 14400, Note_on_c, 0, 79, 35
2, 14400, Note_on_c, 0, 73, 45
2, 14400, Note_on_c, 0, 75, 42
2, 14400, Note_on_c, 0, 67, 50
2, 14640, Note_on_c, 0, 67, 0
2, 14640, Note_on_c, 0, 79, 0
2, 14640, Note_on_c, 0, 73, 0
2, 14640, Note_on_c, 0, 75, 0
2, 14640, Note_on_c, 0, 79, 39
2, 14640, Note_on_c, 0, 73, 47
2, 14640, Note_on_c, 0, 67, 50
2, 14640, Note_on_c, 0, 75, 46
2, 14820, Control_c, 0, 64, 0
2, 14880, Note_on_c, 0, 75, 0
2, 14880, Note_on_c, 0, 79, 0
2, 14880, Note_on_c, 0, 73, 0
2, 14880, Note_on_c, 0, 67, 0
2, 14880, Note_on_c, 0, 74, 49
2, 14880, Note_on_c, 0, 72, 49
2, 14880, Note_on_c, 0, 66, 49
2, 14880, Note_on_c, 0, 78, 49
2, 14925, Control_c, 0, 64, 127
2, 15120, Note_on_c, 0, 78, 0
2, 15120, Note_on_c, 0, 74, 0
2, 15120, Note_on_c, 0, 72, 0
2, 15120, Note_on_c, 0, 66, 0
2, 15120, Note_on_c, 0, 74, 49
2, 15120, Note_on_c, 0, 72, 49
2, 15120, Note_on_c, 0, 78, 49
2, 15120, Note_on_c, 0, 66, 49
2, 15360, Note_on_c, 0, 66, 0
2, 15360, Note_on_c, 0, 74, 0
2, 15360, Note_on_c, 0, 72, 0
2, 15360, Note_on_c, 0, 78, 0
2, 15360, Note_on_c, 0, 74, 49
2, 15360, Note_on_c, 0, 72, 49
2, 15360, Note_on_c, 0, 78, 49
2, 15360, Note_on_c, 0, 66, 49
2, 15600, Note_on_c, 0, 66, 0
2, 15600, Note_on_c, 0, 74, 0
2, 15600, Note_on_c, 0, 72, 0
2, 15600, Note_on_c, 0, 78, 0
2, 15600, Note_on_c, 0, 72, 49
2, 15600, Note_on_c, 0, 74, 49
2, 15600, Note_on_c, 0, 78, 49
2, 15600, Note_on_c, 0, 66, 49
2, 15840, Note_on_c, 0, 66, 0
2, 15840, Note_on_c, 0, 72, 0
2, 15840, Note_on_c, 0, 74, 0
2, 15840, Note_on_c, 0, 78, 0
2, 15840, Note_on_c, 0, 72, 49
2, 15840, Note_on_c, 0, 74, 49
2, 15840, Note_on_c, 0, 78, 49
2, 15840, Note_on_c, 0, 66, 49
2, 16080, Note_on_c, 0, 66, 0
2, 16080, Note_on_c, 0, 72, 0
2, 16080, Note_on_c, 0, 74, 0
2, 16080, Note_on_c, 0, 78, 0
2, 16080, Note_on_c, 0, 74, 49
2, 16080, Note_on_c, 0, 72, 49
2, 16080, Note_on_c, 0, 78, 49
2, 16080, Note_on_c, 0, 66, 49
2, 16245, Control_c, 0, 64, 0
2, 16320, Note_on_c, 0, 66, 0
2, 16320, Note_on_c, 0, 74, 0
2, 16320, Note_on_c, 0, 72, 0
2, 16320, Note_on_c, 0, 78, 0
2, 16320, Note_on_c, 0, 79, 62
2, 16320, Note_on_c, 0, 76, 62
2, 16320, Note_on_c, 0, 67, 62
2, 16320, Note_on_c, 0, 71, 62
2, 16350, Control_c, 0, 64, 127
2, 16560, Note_on_c, 0, 71, 0
2, 16560, Note_on_c, 0, 79, 0
2, 16560, Note_on_c, 0, 76, 0
2, 16560, Note_on_c, 0, 67, 0
2, 16560, Note_on_c, 0, 71, 58
2, 16560, Note_on_c, 0, 76, 58
2, 16560, Note_on_c, 0, 67, 58
2, 16560, Note_on_c, 0, 79, 58
2, 16800, Note_on_c, 0, 79, 0
2, 16800, Note_on_c, 0, 71, 0
2, 16800, Note_on_c, 0, 76, 0
2, 16800, Note_on_c, 0, 67, 0
2, 16800, Note_on_c, 0, 79, 45
2, 16800, Note_on_c, 0, 71, 58
2, 16800, Note_on_c, 0, 76, 54
2, 16800, Note_on_c, 0, 67, 49
2, 17040, Note_on_c, 0, 67, 0
2, 17040, Note_on_c, 0, 79, 0
2, 17040, Note_on_c, 0, 71, 0
2, 17040, Note_on_c, 0, 76, 0
2, 17040, Note_on_c, 0, 67, 51
2, 17040, Note_on_c, 0, 71, 51
2, 17040, Note_on_c, 0, 76, 51
2, 17040, Note_on_c, 0, 79, 51
2, 17280, Note_on_c, 0, 79, 0
2, 17280, Note_on_c, 0, 67, 0
2, 17280, Note_on_c, 0, 71, 0
2, 17280, Note_on_c, 0, 76, 0
2, 17280, Note_on_c, 0, 67, 51
2, 17280, Note_on_c, 0, 71, 51
2, 17280, Note_on_c, 0, 76, 51
2, 17280, Note_on_c, 0, 79, 51
2, 17520, Note_on_c, 0, 79, 0
2, 17520, Note_on_c, 0, 67, 0
2, 17520, Note_on_c, 0, 71, 0
2, 17520, Note_on_c, 0, 76, 0
2, 17520, Note_on_c, 0, 71, 51
2, 17520, Note_on_c, 0, 67, 51
2, 17520, Note_on_c, 0, 76, 51
2, 17520, Note_on_c, 0, 79, 51
2, 17715, Control_c, 0, 64, 0
2, 17760, Note_on_c, 0, 79, 0
2, 17760, Note_on_c, 0, 71, 0
2, 17760, Note_on_c, 0, 67, 0
2, 17760, Note_on_c, 0, 76, 0
2, 17760, Note_on_c, 0, 74, 48
2, 17760, Note_on_c, 0, 72, 48
2, 17760, Note_on_c, 0, 78, 48
2, 17760, Note_on_c, 0, 66, 48
2, 17805, Control_c, 0, 64, 127
2, 18000, Note_on_c, 0, 66, 0
2, 18000, Note_on_c, 0, 74, 0
2, 18000, Note_on_c, 0, 72, 0
2, 18000, Note_on_c, 0, 78, 0
2, 18000, Note_on_c, 0, 72, 48
2, 18000, Note_on_c, 0, 74, 48
2, 18000, Note_on_c, 0, 78, 48
2, 18000, Note_on_c, 0, 66, 48
2, 18240, Note_on_c, 0, 66, 0
2, 18240, Note_on_c, 0, 72, 0
2, 18240, Note_on_c, 0, 74, 0
2, 18240, Note_on_c, 0, 78, 0
2, 18240, Note_on_c, 0, 72, 48
2, 18240, Note_on_c, 0, 74, 48
2, 18240, Note_on_c, 0, 78, 48
2, 18240, Note_on_c, 0, 66, 48
2, 18480, Note_on_c, 0, 66, 0
2, 18480, Note_on_c, 0, 72, 0
2, 18480, Note_on_c, 0, 74, 0
2, 18480, Note_on_c, 0, 78, 0
2, 18480, Note_on_c, 0, 72, 48
2, 18480, Note_on_c, 0, 74, 48
2, 18480, Note_on_c, 0, 78, 48
2, 18480, Note_on_c, 0, 66, 48
2, 18720, Note_on_c, 0, 66, 0
2, 18720, Note_on_c, 0, 72, 0
2, 18720, Note_on_c, 0, 74, 0
2, 18720, Note_on_c, 0, 78, 0
2, 18720, Note_on_c, 0, 74, 48
2, 18720, Note_on_c, 0, 72, 48
2, 18720, Note_on_c, 0, 78, 48
2, 18720, Note_on_c, 0, 66, 48
2, 18960, Note_on_c, 0, 66, 0
2, 18960, Note_on_c, 0, 74, 0
2, 18960, Note_on_c, 0, 72, 0
2, 18960, Note_on_c, 0, 78, 0
2, 18960, Note_on_c, 0, 72, 48
2, 18960, Note_on_c, 0, 74, 48
2, 18960, Note_on_c, 0, 78, 48
2, 18960, Note_on_c, 0, 66, 48
2, 19155, Control_c, 0, 64, 0
2, 19200, Note_on_c, 0, 66, 0
2, 19200, Note_on_c, 0, 72, 0
2, 19200, Note_on_c, 0, 74, 0
2, 19200, Note_on_c, 0, 78, 0
2, 19200, Control_c, 0, 64, 127
2, 19200, Note_on_c, 0, 83, 57
2, 19200, Note_on_c, 0, 71, 57
2, 19200, Note_on_c, 0, 74, 57
2, 19440, Note_on_c, 0, 74, 0
2, 19440, Note_on_c, 0, 71, 0
2, 19440, Note_on_c, 0, 83, 0
2, 19440, Note_on_c, 0, 83, 49
2, 19440, Note_on_c, 0, 74, 49
2, 19440, Note_on_c, 0, 71, 49
2, 19680, Note_on_c, 0, 71, 0
2, 19680, Note_on_c, 0, 74, 0
2, 19680, Note_on_c, 0, 83, 0
2, 19680, Note_on_c, 0, 83, 54
2, 19680, Note_on_c, 0, 71, 54
2, 19680, Note_on_c, 0, 74, 54
2, 19920, Note_on_c, 0, 74, 0
2, 19920, Note_on_c, 0, 71, 0
2, 19920, Note_on_c, 0, 83, 0
2, 19920, Note_on_c, 0, 83, 45
2, 19920, Note_on_c, 0, 74, 48
2, 19920, Note_on_c, 0, 71, 46
2, 20160, Note_on_c, 0, 71, 0
2, 20160, Note_on_c, 0, 74, 0
2, 20160, Note_on_c, 0, 83, 0
2, 20160, Note_on_c, 0, 83, 54
2, 20160, Note_on_c, 0, 71, 54
2, 20160, Note_on_c, 0, 74, 54
2, 20400, Note_on_c, 0, 74, 0
2, 20400, Note_on_c, 0, 71, 0
2, 20400, Note_on_c, 0, 83, 0
2, 20400, Note_on_c, 0, 71, 38
2, 20400, Note_on_c, 0, 83, 38
2, 20400, Note_on_c, 0, 74, 47
2, 20640, Note_on_c, 0, 74, 0
2, 20640, Note_on_c, 0, 83, 0
2, 20640, Note_on_c, 0, 71, 0
2, 20640, Note_on_c, 0, 71, 50
2, 20640, Note_on_c, 0, 78, 50
2, 20640, Note_on_c, 0, 74, 50
2, 20640, Note_on_c, 0, 83, 50
2, 20880, Note_on_c, 0, 83, 0
2, 20880, Note_on_c, 0, 71, 0
2, 20880, Note_on_c, 0, 78, 0
2, 20880, Note_on_c, 0, 74, 0
2, 20880, Note_on_c, 0, 83, 40
2, 20880, Note_on_c, 0, 71, 41
2, 20880, Note_on_c, 0, 78, 41
2, 20880, Note_on_c, 0, 74, 46
2, 21120, Note_on_c, 0, 74, 0
2, 21120, Note_on_c, 0, 83, 0
2, 21120, Note_on_c, 0, 71, 0
2, 21120, Note_on_c, 0, 78, 0
2, 21120, Note_on_c, 0, 71, 50
2, 21120, Note_on_c, 0, 74, 50
2, 21120, Note_on_c, 0, 83, 50
2, 21120, Note_on_c, 0, 78, 50
2, 21360, Note_on_c, 0, 78, 0
2, 21360, Note_on_c, 0, 71, 0
2, 21360, Note_on_c, 0, 74, 0
2, 21360, Note_on_c, 0, 83, 0
2, 21360, Note_on_c, 0, 83, 44
2, 21360, Note_on_c, 0, 78, 44
2, 21360, Note_on_c, 0, 71, 44
2, 21360, Note_on_c, 0, 74, 44
2, 21600, Note_on_c, 0, 74, 0
2, 21600, Note_on_c, 0, 83, 0
2, 21600, Note_on_c, 0, 78, 0
2, 21600, Note_on_c, 0, 71, 0
2, 21600, Note_on_c, 0, 83, 51
2, 21600, Note_on_c, 0, 78, 51
2, 21600, Note_on_c, 0, 71, 51
2, 21600, Note_on_c, 0, 74, 51
2, 21840, Note_on_c, 0, 74, 0
2, 21840, Note_on_c, 0, 83, 0
2, 21840, Note_on_c, 0, 78, 0
2, 21840, Note_on_c, 0, 71, 0
2, 21840, Note_on_c, 0, 83, 46
2, 21840, Note_on_c, 0, 71, 46
2, 21840, Note_on_c, 0, 78, 46
2, 21840, Note_on_c, 0, 74, 46
2, 22035, Control_c, 0, 64, 0
2, 22080, Note_on_c, 0, 74, 0
2, 22080, Note_on_c, 0, 83, 0
2, 22080, Note_on_c, 0, 71, 0
2, 22080, Note_on_c, 0, 78, 0
2, 22080, Note_on_c, 0, 69, 64
2, 22080, Note_on_c, 0, 66, 64
2, 22155, Control_c, 0, 64, 127
2, 22320, Note_on_c, 0, 66, 0
2, 22320, Note_on_c, 0, 69, 0
2, 22320, Note_on_c, 0, 69, 55
2, 22320, Note_on_c, 0, 66, 55
2, 22560, Note_on_c, 0, 66, 0
2, 22560, Note_on_c, 0, 69, 0
2, 22560, Note_on_c, 0, 69, 59
2, 22560, Note_on_c, 0, 66, 59
2, 22800, Note_on_c, 0, 66, 0
2, 22800, Note_on_c, 0, 69, 0
2, 22800, Note_on_c, 0, 69, 54
2, 22800, Note_on_c, 0, 66, 54
2, 23040, Note_on_c, 0, 66, 0
2, 23040, Note_on_c, 0, 69, 0
2, 23040, Note_on_c, 0, 69, 58
2, 23040, Note_on_c, 0, 66, 58
2, 23280, Note_on_c, 0, 66, 0
2, 23280, Note_on_c, 0, 69, 0
2, 23280, Note_on_c, 0, 69, 53
2, 23280, Note_on_c, 0, 66, 53
2, 23460, Control_c, 0, 64, 0
2, 23520, Note_on_c, 0, 66, 0
2, 23520, Note_on_c, 0, 69, 0
2, 23520, Note_on_c, 0, 67, 55
2, 23520, Note_on_c, 0, 65, 49
2, 23520, Note_on_c, 0, 71, 48
2, 23565, Control_c, 0, 64, 127
2, 23760, Note_on_c, 0, 71, 0
2, 23760, Note_on_c, 0, 65, 0
2, 23760, Note_on_c, 0, 67, 0
2, 23760, Note_on_c, 0, 65, 46
2, 23760, Note_on_c, 0, 67, 46
2, 23760, Note_on_c, 0, 71, 46
2, 24000, Note_on_c, 0, 71, 0
2, 24000, Note_on_c, 0, 67, 0
2, 24000, Note_on_c, 0, 65, 0
2, 24000, Note_on_c, 0, 65, 53
2, 24000, Note_on_c, 0, 67, 53
2, 24000, Note_on_c, 0, 71, 53
2, 24240, Note_on_c, 0, 71, 0
2, 24240, Note_on_c, 0, 67, 0
2, 24240, Note_on_c, 0, 65, 0
2, 24240, Note_on_c, 0, 71, 32
2, 24240, Note_on_c, 0, 65, 37
2, 24240, Note_on_c, 0, 67, 47
2, 24480, Note_on_c, 0, 67, 0
2, 24480, Note_on_c, 0, 65, 0
2, 24480, Note_on_c, 0, 71, 0
2, 24480, Note_on_c, 0, 65, 52
2, 24480, Note_on_c, 0, 71, 52
2, 24480, Note_on_c, 0, 67, 52
2, 24720, Note_on_c, 0, 67, 0
2, 24720, Note_on_c, 0, 71, 0
2, 24720, Note_on_c, 0, 65, 0
2, 24720, Note_on_c, 0, 65, 47
2, 24720, Note_on_c, 0, 67, 47
2, 24720, Note_on_c, 0, 71, 47
2, 24900, Control_c, 0, 64, 0
2, 24960, Note_on_c, 0, 71, 0
2, 24960, Note_on_c, 0, 67, 0
2, 24960, Note_on_c, 0, 65, 0
2, 24960, Note_on_c, 0, 76, 53
2, 24960, Note_on_c, 0, 71, 62
2, 24960, Note_on_c, 0, 64, 53
2, 25020, Control_c, 0, 64, 127
2, 25200, Note_on_c, 0, 64, 0
2, 25200, Note_on_c, 0, 71, 0
2, 25200, Note_on_c, 0, 76, 0
2, 25200, Note_on_c, 0, 76, 47
2, 25200, Note_on_c, 0, 71, 57
2, 25200, Note_on_c, 0, 64, 43
2, 25440, Note_on_c, 0, 64, 0
2, 25440, Note_on_c, 0, 71, 0
2, 25440, Note_on_c, 0, 76, 0
2, 25440, Note_on_c, 0, 64, 45
2, 25440, Note_on_c, 0, 71, 57
2, 25440, Note_on_c, 0, 76, 54
2, 25680, Note_on_c, 0, 76, 0
2, 25680, Note_on_c, 0, 71, 0
2, 25680, Note_on_c, 0, 64, 0
2, 25680, Note_on_c, 0, 64, 42
2, 25680, Note_on_c, 0, 71, 55
2, 25680, Note_on_c, 0, 76, 53
2, 25920, Note_on_c, 0, 76, 0
2, 25920, Note_on_c, 0, 71, 0
2, 25920, Note_on_c, 0, 64, 0
2, 25920, Note_on_c, 0, 64, 43
2, 25920, Note_on_c, 0, 76, 50
2, 25920, Note_on_c, 0, 71, 57
2, 26160, Note_on_c, 0, 71, 0
2, 26160, Note_on_c, 0, 76, 0
2, 26160, Note_on_c, 0, 64, 0
2, 26160, Note_on_c, 0, 64, 43
2, 26160, Note_on_c, 0, 76, 46
2, 26160, Note_on_c, 0, 71, 57
2, 26400, Note_on_c, 0, 71, 0
2, 26400, Note_on_c, 0, 76, 0
2, 26400, Note_on_c, 0, 64, 0
2, 26400, Note_on_c, 0, 76, 44
2, 26400, Note_on_c, 0, 71, 58
2, 26400, Note_on_c, 0, 64, 40
2, 26640, Note_on_c, 0, 64, 0
2, 26640, Note_on_c, 0, 71, 0
2, 26640, Note_on_c, 0, 76, 0
2, 26640, Note_on_c, 0, 64, 42
2, 26640, Note_on_c, 0, 76, 45
2, 26640, Note_on_c, 0, 71, 52
2, 26835, Control_c, 0, 64, 0
2, 26880, Note_on_c, 0, 71, 0
2, 26880, Note_on_c, 0, 76, 0
2, 26880, Note_on_c, 0, 64, 0
2, 26880, Note_on_c, 0, 76, 43
2, 26880, Note_on_c, 0, 64, 41
2, 26880, Note_on_c, 0, 69, 51
2, 26925, Control_c, 0, 64, 127
2, 27120, Note_on_c, 0, 69, 0
2, 27120, Note_on_c, 0, 64, 0
2, 27120, Note_on_c, 0, 76, 0
2, 27120, Note_on_c, 0, 76, 40
2, 27120, Note_on_c, 0, 64, 47
2, 27120, Note_on_c, 0, 69, 51
2, 27360, Note_on_c, 0, 69, 0
2, 27360, Note_on_c, 0, 64, 0
2, 27360, Note_on_c, 0, 76, 0
2, 27360, Note_on_c, 0, 64, 43
2, 27360, Note_on_c, 0, 76, 40
2, 27360, Note_on_c, 0, 69, 48
2, 27600, Note_on_c, 0, 69, 0
2, 27600, Note_on_c, 0, 76, 0
2, 27600, Note_on_c, 0, 64, 0
2, 27600, Note_on_c, 0, 64, 41
2, 27600, Note_on_c, 0, 76, 43
2, 27600, Note_on_c, 0, 69, 51
2, 27795, Control_c, 0, 64, 0
2, 27840, Note_on_c, 0, 69, 0
2, 27840, Note_on_c, 0, 76, 0
2, 27840, Note_on_c, 0, 64, 0
2, 27840, Note_on_c, 0, 71, 62
2, 27840, Note_on_c, 0, 75, 45
2, 27840, Note_on_c, 0, 63, 53
2, 27885, Control_c, 0, 64, 127
2, 28080, Note_on_c, 0, 63, 0
2, 28080, Note_on_c, 0, 75, 0
2, 28080, Note_on_c, 0, 71, 0
2, 28080, Note_on_c, 0, 71, 58
2, 28080, Note_on_c, 0, 75, 40
2, 28080, Note_on_c, 0, 63, 47
2, 28320, Note_on_c, 0, 63, 0
2, 28320, Note_on_c, 0, 75, 0
2, 28320, Note_on_c, 0, 71, 0
2, 28320, Note_on_c, 0, 71, 61
2, 28320, Note_on_c, 0, 75, 33
2, 28320, Note_on_c, 0, 63, 48
2, 28560, Note_on_c, 0, 63, 0
2, 28560, Note_on_c, 0, 75, 0
2, 28560, Note_on_c, 0, 71, 0
2, 28560, Note_on_c, 0, 71, 61
2, 28560, Note_on_c, 0, 75, 34
2, 28560, Note_on_c, 0, 63, 42
2, 28800, Note_on_c, 0, 63, 0
2, 28800, Note_on_c, 0, 75, 0
2, 28800, Note_on_c, 0, 71, 0
2, 28800, Note_on_c, 0, 75, 26
2, 28800, Note_on_c, 0, 71, 58
2, 28800, Note_on_c, 0, 63, 41
2, 29040, Note_on_c, 0, 63, 0
2, 29040, Note_on_c, 0, 71, 0
2, 29040, Note_on_c, 0, 75, 0
2, 29040, Note_on_c, 0, 75, 37
2, 29040, Note_on_c, 0, 71, 58
2, 29040, Note_on_c, 0, 63, 41
2, 29235, Control_c, 0, 64, 0
2, 29280, Note_on_c, 0, 63, 0
2, 29280, Note_on_c, 0, 71, 0
2, 29280, Note_on_c, 0, 75, 0
2, 29280, Note_on_c, 0, 74, 48
2, 29280, Note_on_c, 0, 72, 54
2, 29280, Note_on_c, 0, 66, 44
2, 29325, Control_c, 0, 64, 127
2, 29520, Note_on_c, 0, 66, 0
2, 29520, Note_on_c, 0, 72, 0
2, 29520, Note_on_c, 0, 74, 0
2, 29520, Note_on_c, 0, 74, 48
2, 29520, Note_on_c, 0, 72, 52
2, 29520, Note_on_c, 0, 66, 36
2, 29760, Note_on_c, 0, 66, 0
2, 29760, Note_on_c, 0, 72, 0
2, 29760, Note_on_c, 0, 74, 0
2, 29760, Note_on_c, 0, 74, 47
2, 29760, Note_on_c, 0, 72, 51
2, 29760, Note_on_c, 0, 66, 38
2, 30000, Note_on_c, 0, 66, 0
2, 30000, Note_on_c, 0, 72, 0
2, 30000, Note_on_c, 0, 74, 0
2, 30000, Note_on_c, 0, 74, 48
2, 30000, Note_on_c, 0, 72, 52
2, 30000, Note_on_c, 0, 66, 38
2, 30240, Note_on_c, 0, 66, 0
2, 30240, Note_on_c, 0, 72, 0
2, 30240, Note_on_c, 0, 74, 0
2, 30240, Note_on_c, 0, 74, 44
2, 30240, Note_on_c, 0, 72, 48
2, 30240, Note_on_c, 0, 66, 42
2, 30480, Note_on_c, 0, 66, 0
2, 30480, Note_on_c, 0, 72, 0
2, 30480, Note_on_c, 0, 74, 0
2, 30480, Note_on_c, 0, 74, 49
2, 30480, Note_on_c, 0, 72, 51
2, 30480, Note_on_c, 0, 66, 41
2, 30660, Control_c, 0, 64, 0
2, 30720, Note_on_c, 0, 66, 0
2, 30720, Note_on_c, 0, 72, 0
2, 30720, Note_on_c, 0, 74, 0
2, 30720, Note_on_c, 0, 67, 54
2, 30720, Note_on_c, 0, 71, 64
2, 30720, Note_on_c, 0, 74, 56
2, 30780, Control_c, 0, 64, 127
2, 30960, Note_on_c, 0, 74, 0
2, 30960, Note_on_c, 0, 71, 0
2, 30960, Note_on_c, 0, 67, 0
2, 30960, Note_on_c, 0, 71, 61
2, 30960, Note_on_c, 0, 67, 49
2, 30960, Note_on_c, 0, 74, 55
2, 31200, Note_on_c, 0, 74, 0
2, 31200, Note_on_c, 0, 67, 0
2, 31200, Note_on_c, 0, 71, 0
2, 31200, Note_on_c, 0, 71, 54
2, 31200, Note_on_c, 0, 67, 48
2, 31200, Note_on_c, 0, 74, 48
2, 31440, Note_on_c, 0, 74, 0
2, 31440, Note_on_c, 0, 67, 0
2, 31440, Note_on_c, 0, 71, 0
2, 31440, Note_on_c, 0, 67, 46
2, 31440, Note_on_c, 0, 71, 54
2, 31440, Note_on_c, 0, 74, 45
2, 31680, Note_on_c, 0, 74, 0
2, 31680, Note_on_c, 0, 71, 0
2, 31680, Note_on_c, 0, 67, 0
2, 31680, Note_on_c, 0, 67, 45
2, 31680, Note_on_c, 0, 71, 55
2, 31680, Note_on_c, 0, 74, 46
2, 31920, Note_on_c, 0, 74, 0
2, 31920, Note_on_c, 0, 71, 0
2, 31920, Note_on_c, 0, 67, 0
2, 31920, Note_on_c, 0, 67, 51
2, 31920, Note_on_c, 0, 74, 51
2, 31920, Note_on_c, 0, 71, 51
2, 32100, Control_c, 0, 64, 0
2, 32160, Note_on_c, 0, 71, 0
2, 32160, Note_on_c, 0, 74, 0
2, 32160, Note_on_c, 0, 67, 0
2, 32160, Note_on_c, 0, 72, 45
2, 32160, Note_on_c, 0, 74, 45
2, 32160, Note_on_c, 0, 67, 54
2, 32235, Control_c, 0, 64, 127
2, 32400, Note_on_c, 0, 67, 0
2, 32400, Note_on_c, 0, 74, 0
2, 32400, Note_on_c, 0, 72, 0
2, 32400, Note_on_c, 0, 74, 46
2, 32400, Note_on_c, 0, 72, 44
2, 32400, Note_on_c, 0, 67, 56
2, 32640, Note_on_c, 0, 67, 0
2, 32640, Note_on_c, 0, 72, 0
2, 32640, Note_on_c, 0, 74, 0
2, 32640, Note_on_c, 0, 72, 42
2, 32640, Note_on_c, 0, 74, 44
2, 32640, Note_on_c, 0, 67, 52
2, 32880, Note_on_c, 0, 67, 0
2, 32880, Note_on_c, 0, 74, 0
2, 32880, Note_on_c, 0, 72, 0
2, 32880, Note_on_c, 0, 74, 45
2, 32880, Note_on_c, 0, 72, 46
2, 32880, Note_on_c, 0, 67, 58
2, 33060, Control_c, 0, 64, 0
2, 33120, Note_on_c, 0, 67, 0
2, 33120, Note_on_c, 0, 72, 0
2, 33120, Note_on_c, 0, 74, 0
2, 33120, Note_on_c, 0, 74, 44
2, 33120, Note_on_c, 0, 72, 52
2, 33120, Note_on_c, 0, 66, 48
2, 33135, Control_c, 0, 64, 127
2, 33360, Note_on_c, 0, 66, 0
2, 33360, Note_on_c, 0, 72, 0
2, 33360, Note_on_c, 0, 74, 0
2, 33360, Note_on_c, 0, 74, 46
2, 33360, Note_on_c, 0, 72, 52
2, 33360, Note_on_c, 0, 66, 47
2, 33555, Control_c, 0, 64, 0
2, 33600, Note_on_c, 0, 66, 0
2, 33600, Note_on_c, 0, 72, 0
2, 33600, Note_on_c, 0, 74, 0
2, 33600, Note_on_c, 0, 67, 55
2, 33600, Note_on_c, 0, 71, 64
2, 33600, Note_on_c, 0, 74, 56
2, 33645, Control_c, 0, 64, 127
2, 33840, Note_on_c, 0, 74, 0
2, 33840, Note_on_c, 0, 71, 0
2, 33840, Note_on_c, 0, 67, 0
2, 33840, Note_on_c, 0, 74, 46
2, 33840, Note_on_c, 0, 71, 57
2, 33840, Note_on_c, 0, 67, 51
2, 34080, Note_on_c, 0, 67, 0
2, 34080, Note_on_c, 0, 71, 0
2, 34080, Note_on_c, 0, 74, 0
2, 34080, Note_on_c, 0, 74, 42
2, 34080, Note_on_c, 0, 67, 48
2, 34080, Note_on_c, 0, 71, 54
2, 34320, Note_on_c, 0, 71, 0
2, 34320, Note_on_c, 0, 67, 0
2, 34320, Note_on_c, 0, 74, 0
2, 34320, Note_on_c, 0, 74, 39
2, 34320, Note_on_c, 0, 71, 54
2, 34320, Note_on_c, 0, 67, 46
2, 34560, Note_on_c, 0, 67, 0
2, 34560, Note_on_c, 0, 71, 0
2, 34560, Note_on_c, 0, 74, 0
2, 34560, Note_on_c, 0, 67, 49
2, 34560, Note_on_c, 0, 74, 44
2, 34560, Note_on_c, 0, 71, 55
2, 34800, Note_on_c, 0, 71, 0
2, 34800, Note_on_c, 0, 74, 0
2, 34800, Note_on_c, 0, 67, 0
2, 34800, Note_on_c, 0, 74, 41
2, 34800, Note_on_c, 0, 67, 51
2, 34800, Note_on_c, 0, 71, 54
2, 34980, Control_c, 0, 64, 0
2, 35040, Note_on_c, 0, 71, 0
2, 35040, Note_on_c, 0, 67, 0
2, 35040, Note_on_c, 0, 74, 0
2, 35040, Note_on_c, 0, 74, 46
2, 35040, Note_on_c, 0, 72, 45
2, 35040, Note_on_c, 0, 67, 49
2, 35085, Control_c, 0, 64, 127
2, 35280, Note_on_c, 0, 67, 0
2, 35280, Note_on_c, 0, 72, 0
2, 35280, Note_on_c, 0, 74, 0
2, 35280, Note_on_c, 0, 74, 43
2, 35280, Note_on_c, 0, 72, 43
2, 35280, Note_on_c, 0, 67, 51
2, 35520, Note_on_c, 0, 67, 0
2, 35520, Note_on_c, 0, 72, 0
2, 35520, Note_on_c, 0, 74, 0
2, 35520, Note_on_c, 0, 74, 44
2, 35520, Note_on_c, 0, 72, 46
2, 35520, Note_on_c, 0, 67, 50
2, 35760, Note_on_c, 0, 67, 0
2, 35760, Note_on_c, 0, 72, 0
2, 35760, Note_on_c, 0, 74, 0
2, 35760, Note_on_c, 0, 74, 51
2, 35760, Note_on_c, 0, 72, 51
2, 35760, Note_on_c, 0, 67, 51
2, 36000, Note_on_c, 0, 67, 0
2, 36000, Note_on_c, 0, 72, 0
2, 36000, Note_on_c, 0, 74, 0
2, 36000, Note_on_c, 0, 74, 49
2, 36000, Note_on_c, 0, 72, 49
2, 36000, Note_on_c, 0, 66, 49
2, 36240, Note_on_c, 0, 66, 0
2, 36240, Note_on_c, 0, 72, 0
2, 36240, Note_on_c, 0, 74, 0
2, 36240, Note_on_c, 0, 74, 47
2, 36240, Note_on_c, 0, 72, 52
2, 36240, Note_on_c, 0, 66, 53
2, 36435, Control_c, 0, 64, 0
2, 36480, Note_on_c, 0, 66, 0
2, 36480, Note_on_c, 0, 72, 0
2, 36480, Note_on_c, 0, 74, 0
2, 36480, Note_on_c, 0, 74, 55
2, 36480, Note_on_c, 0, 71, 63
2, 36480, Note_on_c, 0, 67, 60
2, 36525, Control_c, 0, 64, 127
2, 36720, Note_on_c, 0, 67, 0
2, 36720, Note_on_c, 0, 71, 0
2, 36720, Note_on_c, 0, 74, 0
2, 36720, Note_on_c, 0, 67, 51
2, 36720, Note_on_c, 0, 74, 48
2, 36720, Note_on_c, 0, 71, 51
2, 36960, Note_on_c, 0, 71, 0
2, 36960, Note_on_c, 0, 74, 0
2, 36960, Note_on_c, 0, 67, 0
2, 36960, Note_on_c, 0, 67, 49
2, 36960, Note_on_c, 0, 74, 44
2, 36960, Note_on_c, 0, 71, 53
2, 37200, Note_on_c, 0, 71, 0
2, 37200, Note_on_c, 0, 74, 0
2, 37200, Note_on_c, 0, 67, 0
2, 37200, Note_on_c, 0, 74, 44
2, 37200, Note_on_c, 0, 67, 49
2, 37200, Note_on_c, 0, 71, 52
2, 37440, Note_on_c, 0, 71, 0
2, 37440, Note_on_c, 0, 67, 0
2, 37440, Note_on_c, 0, 74, 0
2, 37440, Note_on_c, 0, 67, 52
2, 37440, Note_on_c, 0, 74, 45
2, 37440, Note_on_c, 0, 71, 53
2, 37680, Note_on_c, 0, 71, 0
2, 37680, Note_on_c, 0, 74, 0
2, 37680, Note_on_c, 0, 67, 0
2, 37680, Note_on_c, 0, 74, 42
2, 37680, Note_on_c, 0, 67, 50
2, 37680, Note_on_c, 0, 71, 53
2, 37920, Note_on_c, 0, 71, 0
2, 37920, Note_on_c, 0, 67, 0
2, 37920, Note_on_c, 0, 74, 0
2, 37920, Note_on_c, 0, 74, 35
2, 37920, Note_on_c, 0, 67, 45
2, 37920, Note_on_c, 0, 71, 47
2, 38160, Note_on_c, 0, 71, 0
2, 38160, Note_on_c, 0, 67, 0
2, 38160, Note_on_c, 0, 74, 0
2, 38160, Note_on_c, 0, 74, 41
2, 38160, Note_on_c, 0, 67, 43
2, 38160, Note_on_c, 0, 71, 52
2, 38355, Control_c, 0, 64, 0
2, 38400, Note_on_c, 0, 71, 0
2, 38400, Note_on_c, 0, 67, 0
2, 38400, Note_on_c, 0, 74, 0
2, 38400, Note_on_c, 0, 67, 44
2, 38400, Note_on_c, 0, 70, 41
2, 38400, Note_on_c, 0, 73, 49
2, 38445, Control_c, 0, 64, 127
2, 38640, Note_on_c, 0, 73, 0
2, 38640, Note_on_c, 0, 70, 0
2, 38640, Note_on_c, 0, 67, 0
2, 38640, Note_on_c, 0, 70, 41
2, 38640, Note_on_c, 0, 73, 45
2, 38640, Note_on_c, 0, 67, 51
2, 38880, Note_on_c, 0, 73, 0
2, 38880, Note_on_c, 0, 70, 0
2, 38880, Note_on_c, 0, 67, 52
2, 38880, Note_on_c, 0, 73, 39
2, 38880, Note_on_c, 0, 70, 40
2, 39000, Note_on_c, 0, 67, 0
2, 39120, Note_on_c, 0, 67, 0
2, 39120, Note_on_c, 0, 73, 0
2, 39120, Note_on_c, 0, 70, 0
2, 39120, Note_on_c, 0, 67, 50
2, 39120, Note_on_c, 0, 70, 44
2, 39120, Note_on_c, 0, 73, 41
2, 39330, Control_c, 0, 64, 0
2, 39360, Note_on_c, 0, 73, 0
2, 39360, Note_on_c, 0, 70, 0
2, 39360, Note_on_c, 0, 67, 0
2, 39840, Note_on_c, 0, 72, 49
2, 39840, Note_on_c, 0, 74, 44
2, 39840, Note_on_c, 0, 66, 46
2, 39885, Control_c, 0, 64, 127
2, 40080, Note_on_c, 0, 66, 0
2, 40080, Note_on_c, 0, 74, 0
2, 40080, Note_on_c, 0, 72, 0
2, 40080, Note_on_c, 0, 72, 45
2, 40080, Note_on_c, 0, 74, 41
2, 40080, Note_on_c, 0, 66, 39
2, 40320, Note_on_c, 0, 66, 0
2, 40320, Note_on_c, 0, 74, 0
2, 40320, Note_on_c, 0, 72, 0
2, 40320, Note_on_c, 0, 74, 42
2, 40320, Note_on_c, 0, 72, 51
2, 40320, Note_on_c, 0, 66, 42
2, 40560, Note_on_c, 0, 66, 0
2, 40560, Note_on_c, 0, 72, 0
2, 40560, Note_on_c, 0, 74, 0
2, 40560, Note_on_c, 0, 72, 50
2, 40560, Note_on_c, 0, 74, 45
2, 40560, Note_on_c, 0, 66, 42
2, 40770, Control_c, 0, 64, 0
2, 40800, Note_on_c, 0, 66, 0
2, 40800, Note_on_c, 0, 74, 0
2, 40800, Note_on_c, 0, 72, 0
2, 40800, Note_on_c, 0, 71, 41
2, 40800, Note_on_c, 0, 79, 64
2, 40800, Note_on_c, 0, 74, 55
2, 41040, Note_on_c, 0, 74, 0
2, 41040, Note_on_c, 0, 79, 0
2, 41040, Note_on_c, 0, 71, 0
2, 41040, Note_on_c, 0, 71, 41
2, 41040, Note_on_c, 0, 74, 51
2, 41040, Note_on_c, 0, 79, 57
2, 41280, Note_on_c, 0, 79, 0
2, 41280, Note_on_c, 0, 74, 0
2, 41280, Note_on_c, 0, 71, 0
2, 41280, Note_on_c, 0, 79, 62
2, 41280, Note_on_c, 0, 71, 46
2, 41280, Note_on_c, 0, 74, 53
2, 41520, Note_on_c, 0, 74, 0
2, 41520, Note_on_c, 0, 71, 0
2, 41520, Note_on_c, 0, 79, 0
2, 41520, Note_on_c, 0, 74, 56
2, 41520, Note_on_c, 0, 78, 65
2, 41520, Note_on_c, 0, 71, 50
2, 41760, Note_on_c, 0, 71, 0
2, 41760, Note_on_c, 0, 78, 0
2, 41760, Note_on_c, 0, 74, 0
2, 41760, Note_on_c, 0, 74, 52
2, 41760, Note_on_c, 0, 77, 71
2, 41760, Note_on_c, 0, 71, 45
2, 42000, Note_on_c, 0, 71, 0
2, 42000, Note_on_c, 0, 77, 0
2, 42000, Note_on_c, 0, 74, 0
2, 42000, Note_on_c, 0, 71, 52
2, 42000, Note_on_c, 0, 74, 53
2, 42000, Note_on_c, 0, 76, 63
2, 42120, Note_on_c, 0, 71, 0
2, 42120, Note_on_c, 0, 65, 48
2, 42180, Note_on_c, 0, 71, 57
2, 42240, Note_on_c, 0, 76, 0
2, 42240, Note_on_c, 0, 74, 0
2, 42240, Note_on_c, 0, 75, 70
2, 42360, Note_on_c, 0, 65, 0
2, 42420, Note_on_c, 0, 71, 0
2, 42480, Note_on_c, 0, 75, 0
2, 42480, Note_on_c, 0, 65, 54
2, 42480, Note_on_c, 0, 74, 65
2, 42480, Note_on_c, 0, 71, 58
2, 42720, Note_on_c, 0, 71, 0
2, 42720, Note_on_c, 0, 74, 0
2, 42720, Note_on_c, 0, 65, 0
2, 42720, Note_on_c, 0, 74, 64
2, 42840, Note_on_c, 0, 74, 0
2, 42840, Note_on_c, 0, 75, 65
2, 42840, Note_on_c, 0, 71, 60
2, 42960, Note_on_c, 0, 71, 0
2, 42960, Note_on_c, 0, 75, 0
2, 42960, Note_on_c, 0, 71, 59
2, 42960, Note_on_c, 0, 74, 59
2, 42960, Note_on_c, 0, 76, 64
2, 43200, Note_on_c, 0, 76, 0
2, 43200, Note_on_c, 0, 74, 0
2, 43200, Note_on_c, 0, 71, 0
2, 43200, Note_on_c, 0, 74, 60
2, 43200, Note_on_c, 0, 77, 66
2, 43200, Note_on_c, 0, 72, 56
2, 43440, Note_on_c, 0, 72, 0
2, 43440, Note_on_c, 0, 77, 0
2, 43440, Note_on_c, 0, 74, 0
2, 43440, Note_on_c, 0, 78, 70
2, 43440, Note_on_c, 0, 72, 63
2, 43440, Note_on_c, 0, 74, 66
2, 43680, Note_on_c, 0, 74, 0
2, 43680, Note_on_c, 0, 72, 0
2, 43680, Note_on_c, 0, 78, 0
2, 43680, Note_on_c, 0, 69, 46
2, 43680, Note_on_c, 0, 74, 54
2, 43680, Note_on_c, 0, 81, 65
2, 43920, Note_on_c, 0, 81, 0
2, 43920, Note_on_c, 0, 74, 0
2, 43920, Note_on_c, 0, 69, 0
2, 43920, Note_on_c, 0, 67, 58
2, 43920, Note_on_c, 0, 74, 56
2, 43920, Note_on_c, 0, 79, 69
2, 44160, Note_on_c, 0, 79, 0
2, 44160, Note_on_c, 0, 74, 0
2, 44160, Note_on_c, 0, 67, 0
2, 44160, Note_on_c, 0, 78, 77
2, 44160, Note_on_c, 0, 74, 60
2, 44160, Note_on_c, 0, 71, 62
2, 44400, Note_on_c, 0, 71, 0
2, 44400, Note_on_c, 0, 74, 0
2, 44400, Note_on_c, 0, 78, 0
2, 44400, Note_on_c, 0, 74, 62
2, 44400, Note_on_c, 0, 79, 81
2, 44400, Note_on_c, 0, 71, 56
2, 44640, Note_on_c, 0, 71, 0
2, 44640, Note_on_c, 0, 79, 0
2, 44640, Note_on_c, 0, 74, 0
2, 44640, Note_on_c, 0, 71, 59
2, 44640, Note_on_c, 0, 83, 84
2, 44640, Note_on_c, 0, 79, 65
2, 44640, Note_on_c, 0, 74, 62
2, 44880, Note_on_c, 0, 74, 0
2, 44880, Note_on_c, 0, 71, 0
2, 44880, Note_on_c, 0, 83, 0
2, 44880, Note_on_c, 0, 79, 0
2, 44880, Note_on_c, 0, 69, 64
2, 44880, Note_on_c, 0, 81, 71
2, 45120, Note_on_c, 0, 81, 0
2, 45120, Note_on_c, 0, 69, 0
2, 45120, Note_on_c, 0, 72, 58
2, 45120, Note_on_c, 0, 80, 57
2, 45120, Note_on_c, 0, 84, 77
2, 45120, Note_on_c, 0, 77, 52
2, 45360, Note_on_c, 0, 77, 0
2, 45360, Note_on_c, 0, 72, 0
2, 45360, Note_on_c, 0, 80, 0
2, 45360, Note_on_c, 0, 84, 0
2, 45360, Note_on_c, 0, 77, 67
2, 45360, Note_on_c, 0, 71, 58
2, 45360, Note_on_c, 0, 83, 81
2, 45600, Note_on_c, 0, 83, 0
2, 45600, Note_on_c, 0, 71, 0
2, 45600, Note_on_c, 0, 77, 0
2, 45600, Note_on_c, 0, 82, 80
2, 45600, Note_on_c, 0, 74, 62
2, 45600, Note_on_c, 0, 77, 63
2, 45840, Note_on_c, 0, 77, 0
2, 45840, Note_on_c, 0, 74, 0
2, 45840, Note_on_c, 0, 82, 0
2, 45840, Note_on_c, 0, 83, 86
2, 45840, Note_on_c, 0, 77, 65
2, 45840, Note_on_c, 0, 74, 59
2, 46080, Note_on_c, 0, 74, 0
2, 46080, Note_on_c, 0, 77, 0
2, 46080, Note_on_c, 0, 83, 0
2, 46080, Note_on_c, 0, 79, 67
2, 46080, Note_on_c, 0, 86, 76
2, 46080, Note_on_c, 0, 74, 55
2, 46320, Note_on_c, 0, 74, 0
2, 46320, Note_on_c, 0, 86, 0
2, 46320, Note_on_c, 0, 79, 0
2, 46320, Note_on_c, 0, 85, 83
2, 46320, Note_on_c, 0, 73, 68
2, 46560, Note_on_c, 0, 73, 0
2, 46560, Note_on_c, 0, 85, 0
2, 46560, Note_on_c, 0, 84, 62
2, 46560, Note_on_c, 0, 81, 58
2, 46560, Note_on_c, 0, 75, 47
2, 46800, Note_on_c, 0, 75, 0
2, 46800, Note_on_c, 0, 81, 0
2, 46800, Note_on_c, 0, 84, 0
2, 46800, Note_on_c, 0, 84, 51
2, 46800, Note_on_c, 0, 81, 51
2, 46800, Note_on_c, 0, 75, 51
2, 47040, Note_on_c, 0, 75, 0
2, 47040, Note_on_c, 0, 81, 0
2, 47040, Note_on_c, 0, 84, 0
2, 47040, Note_on_c, 0, 84, 52
2, 47040, Note_on_c, 0, 81, 50
2, 47040, Note_on_c, 0, 75, 44
2, 47280, Note_on_c, 0, 75, 0
2, 47280, Note_on_c, 0, 81, 0
2, 47280, Note_on_c, 0, 84, 0
2, 47280, Note_on_c, 0, 84, 49
2, 47280, Note_on_c, 0, 81, 49
2, 47280, Note_on_c, 0, 75, 44
2, 47520, Note_on_c, 0, 75, 0
2, 47520, Note_on_c, 0, 81, 0
2, 47520, Note_on_c, 0, 84, 0
2, 47520, Note_on_c, 0, 84, 53
2, 47520, Note_on_c, 0, 75, 53
2, 47520, Note_on_c, 0, 81, 53
2, 47760, Note_on_c, 0, 81, 0
2, 47760, Note_on_c, 0, 75, 0
2, 47760, Note_on_c, 0, 84, 0
2, 47760, Note_on_c, 0, 84, 48
2, 47760, Note_on_c, 0, 81, 48
2, 47760, Note_on_c, 0, 75, 48
2, 48000, Note_on_c, 0, 75, 0
2, 48000, Note_on_c, 0, 81, 0
2, 48000, Note_on_c, 0, 84, 0
2, 48000, Note_on_c, 0, 84, 56
2, 48000, Note_on_c, 0, 81, 53
2, 48000, Note_on_c, 0, 75, 45
2, 48240, Note_on_c, 0, 75, 0
2, 48240, Note_on_c, 0, 81, 0
2, 48240, Note_on_c, 0, 84, 0
2, 48240, Note_on_c, 0, 75, 49
2, 48240, Note_on_c, 0, 84, 49
2, 48240, Note_on_c, 0, 81, 49
2, 48480, Note_on_c, 0, 81, 0
2, 48480, Note_on_c, 0, 84, 0
2, 48480, Note_on_c, 0, 75, 0
2, 48480, Note_on_c, 0, 84, 53
2, 48480, Note_on_c, 0, 75, 53
2, 48480, Note_on_c, 0, 81, 53
2, 48720, Note_on_c, 0, 81, 0
2, 48720, Note_on_c, 0, 75, 0
2, 48720, Note_on_c, 0, 84, 0
2, 48720, Note_on_c, 0, 75, 48
2, 48720, Note_on_c, 0, 84, 48
2, 48720, Note_on_c, 0, 81, 48
2, 48960, Note_on_c, 0, 81, 0
2, 48960, Note_on_c, 0, 84, 0
2, 48960, Note_on_c, 0, 75, 0
2, 48960, Note_on_c, 0, 75, 52
2, 48960, Note_on_c, 0, 84, 52
2, 48960, Note_on_c, 0, 81, 52
2, 49200, Note_on_c, 0, 81, 0
2, 49200, Note_on_c, 0, 84, 0
2, 49200, Note_on_c, 0, 75, 0
2, 49200, Note_on_c, 0, 75, 41
2, 49200, Note_on_c, 0, 84, 48
2, 49200, Note_on_c, 0, 81, 43
2, 49440, Note_on_c, 0, 81, 0
2, 49440, Note_on_c, 0, 84, 0
2, 49440, Note_on_c, 0, 75, 0
2, 49440, Note_on_c, 0, 77, 58
2, 49440, Note_on_c, 0, 80, 58
2, 49440, Note_on_c, 0, 68, 58
2, 49680, Note_on_c, 0, 68, 0
2, 49680, Note_on_c, 0, 80, 0
2, 49680, Note_on_c, 0, 77, 0
2, 49680, Note_on_c, 0, 80, 51
2, 49680, Note_on_c, 0, 77, 51
2, 49680, Note_on_c, 0, 68, 51
2, 49920, Note_on_c, 0, 68, 0
2, 49920, Note_on_c, 0, 77, 0
2, 49920, Note_on_c, 0, 80, 0
2, 49920, Note_on_c, 0, 77, 53
2, 49920, Note_on_c, 0, 68, 53
2, 49920, Note_on_c, 0, 80, 53
2, 50160, Note_on_c, 0, 80, 0
2, 50160, Note_on_c, 0, 68, 0
2, 50160, Note_on_c, 0, 77, 0
2, 50160, Note_on_c, 0, 77, 47
2, 50160, Note_on_c, 0, 68, 47
2, 50160, Note_on_c, 0, 80, 47
2, 50400, Note_on_c, 0, 80, 0
2, 50400, Note_on_c, 0, 68, 0
2, 50400, Note_on_c, 0, 77, 0
2, 50400, Note_on_c, 0, 80, 53
2, 50400, Note_on_c, 0, 68, 53
2, 50400, Note_on_c, 0, 77, 53
2, 50640, Note_on_c, 0, 77, 0
2, 50640, Note_on_c, 0, 68, 0
2, 50640, Note_on_c, 0, 80, 0
2, 50640, Note_on_c, 0, 80, 49
2, 50640, Note_on_c, 0, 77, 49
2, 50640, Note_on_c, 0, 68, 49
2, 50880, Note_on_c, 0, 68, 0
2, 50880, Note_on_c, 0, 77, 0
2, 50880, Note_on_c, 0, 80, 0
2, 50880, Note_on_c, 0, 77, 51
2, 50880, Note_on_c, 0, 74, 51
2, 50880, Note_on_c, 0, 68, 51
2, 51120, Note_on_c, 0, 68, 0
2, 51120, Note_on_c, 0, 74, 0
2, 51120, Note_on_c, 0, 77, 0
2, 51120, Note_on_c, 0, 77, 48
2, 51120, Note_on_c, 0, 74, 48
2, 51120, Note_on_c, 0, 68, 48
2, 51360, Note_on_c, 0, 68, 0
2, 51360, Note_on_c, 0, 74, 0
2, 51360, Note_on_c, 0, 77, 0
2, 51360, Note_on_c, 0, 76, 51
2, 51360, Note_on_c, 0, 74, 51
2, 51360, Note_on_c, 0, 68, 51
2, 51600, Note_on_c, 0, 68, 0
2, 51600, Note_on_c, 0, 74, 0
2, 51600, Note_on_c, 0, 76, 0
2, 51600, Note_on_c, 0, 76, 47
2, 51600, Note_on_c, 0, 74, 47
2, 51600, Note_on_c, 0, 68, 47
2, 51840, Note_on_c, 0, 68, 0
2, 51840, Note_on_c, 0, 74, 0
2, 51840, Note_on_c, 0, 76, 0
2, 51840, Note_on_c, 0, 76, 50
2, 51840, Note_on_c, 0, 74, 50
2, 51840, Note_on_c, 0, 68, 50
2, 52080, Note_on_c, 0, 68, 0
2, 52080, Note_on_c, 0, 74, 0
2, 52080, Note_on_c, 0, 76, 0
2, 52080, Note_on_c, 0, 76, 45
2, 52080, Note_on_c, 0, 68, 45
2, 52080, Note_on_c, 0, 74, 45
2, 52320, Note_on_c, 0, 74, 0
2, 52320, Note_on_c, 0, 68, 0
2, 52320, Note_on_c, 0, 76, 0
2, 52560, Note_on_c, 0, 64, 53
2, 52560, Note_on_c, 0, 69, 47
2, 52800, Note_on_c, 0, 69, 0
2, 52800, Note_on_c, 0, 64, 0
2, 52800, Note_on_c, 0, 69, 53
2, 52800, Note_on_c, 0, 64, 55
2, 53040, Note_on_c, 0, 64, 0
2, 53040, Note_on_c, 0, 69, 0
2, 53040, Note_on_c, 0, 64, 53
2, 53280, Note_on_c, 0, 64, 0
2, 53280, Note_on_c, 0, 64, 52
2, 53520, Note_on_c, 0, 64, 0
2, 53520, Note_on_c, 0, 64, 53
2, 53760, Note_on_c, 0, 64, 0
2, 53760, Note_on_c, 0, 65, 58
2, 54000, Note_on_c, 0, 65, 0
2, 54000, Note_on_c, 0, 65, 59
2, 54240, Note_on_c, 0, 65, 0
2, 54240, Note_on_c, 0, 65, 60
2, 54480, Note_on_c, 0, 65, 0
2, 54480, Note_on_c, 0, 65, 57
2, 54720, Note_on_c, 0, 65, 0
2, 54720, Note_on_c, 0, 65, 55
2, 54960, Note_on_c, 0, 65, 0
2, 54960, Note_on_c, 0, 65, 57
2, 55200, Note_on_c, 0, 65, 0
2, 55440, Note_on_c, 0, 69, 44
2, 55440, Note_on_c, 0, 64, 53
2, 55680, Note_on_c, 0, 64, 0
2, 55680, Note_on_c, 0, 69, 0
2, 55680, Note_on_c, 0, 69, 51
2, 55680, Note_on_c, 0, 64, 55
2, 55920, Note_on_c, 0, 64, 0
2, 55920, Note_on_c, 0, 69, 0
2, 55920, Note_on_c, 0, 64, 55
2, 56160, Note_on_c, 0, 64, 0
2, 56160, Note_on_c, 0, 64, 51
2, 56400, Note_on_c, 0, 64, 0
2, 56400, Note_on_c, 0, 64, 57
2, 56520, Note_on_c, 0, 63, 65
2, 56580, Note_on_c, 0, 69, 72
2, 56640, Note_on_c, 0, 64, 0
2, 56760, Note_on_c, 0, 63, 0
2, 56820, Note_on_c, 0, 69, 0
2, 56880, Note_on_c, 0, 63, 50
2, 57120, Note_on_c, 0, 63, 0
2, 57120, Note_on_c, 0, 63, 46
2, 57360, Note_on_c, 0, 63, 0
2, 57360, Note_on_c, 0, 63, 50
2, 57600, Note_on_c, 0, 63, 0
2, 57600, Note_on_c, 0, 63, 49
2, 57840, Note_on_c, 0, 63, 0
2, 57840, Note_on_c, 0, 63, 48
2, 57900, Note_on_c, 0, 62, 54
2, 57960, Note_on_c, 0, 69, 59
2, 58020, Note_on_c, 0, 72, 67
2, 58080, Note_on_c, 0, 63, 0
2, 58140, Note_on_c, 0, 62, 0
2, 58200, Note_on_c, 0, 69, 0
2, 58260, Note_on_c, 0, 72, 0
2, 58320, Note_on_c, 0, 72, 49
2, 58320, Note_on_c, 0, 62, 43
2, 58320, Note_on_c, 0, 69, 51
2, 58560, Note_on_c, 0, 69, 0
2, 58560, Note_on_c, 0, 62, 0
2, 58560, Note_on_c, 0, 72, 0
2, 58560, Note_on_c, 0, 72, 53
2, 58560, Note_on_c, 0, 69, 56
2, 58560, Note_on_c, 0, 62, 50
2, 58800, Note_on_c, 0, 62, 0
2, 58800, Note_on_c, 0, 69, 0
2, 58800, Note_on_c, 0, 72, 0
2, 58800, Note_on_c, 0, 67, 67
2, 58800, Note_on_c, 0, 62, 44
2, 58800, Note_on_c, 0, 71, 61
2, 59040, Note_on_c, 0, 71, 0
2, 59040, Note_on_c, 0, 62, 0
2, 59040, Note_on_c, 0, 67, 0
2, 59040, Note_on_c, 0, 62, 53
2, 59040, Note_on_c, 0, 69, 59
2, 59280, Note_on_c, 0, 69, 0
2, 59280, Note_on_c, 0, 62, 0
2, 59280, Note_on_c, 0, 67, 67
2, 59280, Note_on_c, 0, 62, 51
2, 59520, Note_on_c, 0, 62, 0
2, 59520, Note_on_c, 0, 67, 0
2, 59520, Note_on_c, 0, 66, 65
2, 59520, Note_on_c, 0, 62, 58
2, 59760, Note_on_c, 0, 62, 0
2, 59760, Note_on_c, 0, 66, 0
2, 59760, Note_on_c, 0, 67, 68
2, 59760, Note_on_c, 0, 62, 55
2, 60000, Note_on_c, 0, 62, 0
2, 60000, Note_on_c, 0, 67, 0
2, 60000, Note_on_c, 0, 71, 76
2, 60000, Note_on_c, 0, 62, 76
2, 60240, Note_on_c, 0, 62, 0
2, 60240, Note_on_c, 0, 71, 0
2, 60240, Note_on_c, 0, 62, 59
2, 60240, Note_on_c, 0, 69, 65
2, 60480, Note_on_c, 0, 69, 0
2, 60480, Note_on_c, 0, 62, 0
2, 60480, Note_on_c, 0, 72, 76
2, 60480, Note_on_c, 0, 62, 76
2, 60720, Note_on_c, 0, 62, 0
2, 60720, Note_on_c, 0, 72, 0
2, 60720, Note_on_c, 0, 71, 58
2, 60720, Note_on_c, 0, 62, 62
2, 60780, Note_on_c, 0, 64, 75
2, 60840, Note_on_c, 0, 71, 0
2, 60840, Note_on_c, 0, 71, 77
2, 60900, Note_on_c, 0, 74, 84
2, 60960, Note_on_c, 0, 62, 0
2, 61020, Note_on_c, 0, 64, 0
2, 61080, Note_on_c, 0, 71, 0
2, 61140, Note_on_c, 0, 74, 0
2, 61200, Note_on_c, 0, 74, 66
2, 61200, Note_on_c, 0, 71, 72
2, 61200, Note_on_c, 0, 64, 67
2, 61440, Note_on_c, 0, 64, 0
2, 61440, Note_on_c, 0, 71, 0
2, 61440, Note_on_c, 0, 74, 0
2, 61440, Note_on_c, 0, 74, 68
2, 61440, Note_on_c, 0, 64, 67
2, 61440, Note_on_c, 0, 71, 75
2, 61680, Note_on_c, 0, 71, 0
2, 61680, Note_on_c, 0, 64, 0
2, 61680, Note_on_c, 0, 74, 0
2, 61680, Note_on_c, 0, 72, 71
2, 61680, Note_on_c, 0, 69, 71
2, 61680, Note_on_c, 0, 64, 65
2, 61920, Note_on_c, 0, 64, 0
2, 61920, Note_on_c, 0, 69, 0
2, 61920, Note_on_c, 0, 72, 0
2, 61920, Note_on_c, 0, 71, 83
2, 61920, Note_on_c, 0, 64, 76
2, 62160, Note_on_c, 0, 64, 0
2, 62160, Note_on_c, 0, 71, 0
2, 62160, Note_on_c, 0, 69, 73
2, 62160, Note_on_c, 0, 64, 70
2, 62400, Note_on_c, 0, 64, 0
2, 62400, Note_on_c, 0, 69, 0
2, 62400, Note_on_c, 0, 64, 70
2, 62400, Note_on_c, 0, 68, 76
2, 62640, Note_on_c, 0, 68, 0
2, 62640, Note_on_c, 0, 64, 0
2, 62640, Note_on_c, 0, 64, 67
2, 62640, Note_on_c, 0, 69, 72
2, 62880, Note_on_c, 0, 69, 0
2, 62880, Note_on_c, 0, 64, 0
2, 62880, Note_on_c, 0, 72, 89
2, 62880, Note_on_c, 0, 64, 89
2, 63120, Note_on_c, 0, 64, 0
2, 63120, Note_on_c, 0, 72, 0
2, 63120, Note_on_c, 0, 71, 80
2, 63120, Note_on_c, 0, 64, 70
2, 63360, Note_on_c, 0, 64, 0
2, 63360, Note_on_c, 0, 71, 0
2, 63360, Note_on_c, 0, 74, 83
2, 63360, Note_on_c, 0, 64, 83
2, 63600, Note_on_c, 0, 64, 0
2, 63600, Note_on_c, 0, 74, 0
2, 63600, Note_on_c, 0, 64, 80
2, 63600, Note_on_c, 0, 73, 80
2, 63840, Note_on_c, 0, 73, 0
2, 63840, Note_on_c, 0, 64, 0
2, 63840, Note_on_c, 0, 70, 77
2, 63840, Note_on_c, 0, 67, 77
2, 64080, Note_on_c, 0, 67, 0
2, 64080, Note_on_c, 0, 70, 0
2, 64080, Note_on_c, 0, 70, 70
2, 64080, Note_on_c, 0, 67, 70
2, 64320, Note_on_c, 0, 67, 0
2, 64320, Note_on_c, 0, 70, 0
2, 64320, Note_on_c, 0, 67, 72
2, 64320, Note_on_c, 0, 70, 72
2, 64560, Note_on_c, 0, 70, 0
2, 64560, Note_on_c, 0, 67, 0
2, 64560, Note_on_c, 0, 70, 66
2, 64560, Note_on_c, 0, 67, 66
2, 64800, Note_on_c, 0, 67, 0
2, 64800, Note_on_c, 0, 70, 0
2, 64800, Note_on_c, 0, 67, 78
2, 64800, Note_on_c, 0, 70, 78
2, 65040, Note_on_c, 0, 70, 0
2, 65040, Note_on_c, 0, 67, 0
2, 65040, Note_on_c, 0, 67, 67
2, 65040, Note_on_c, 0, 70, 67
2, 65280, Note_on_c, 0, 70, 0
2, 65280, Note_on_c, 0, 67, 0
2, 65280, Note_on_c, 0, 72, 72
2, 65280, Note_on_c, 0, 70, 72
2, 65520, Note_on_c, 0, 70, 0
2, 65520, Note_on_c, 0, 72, 0
2, 65520, Note_on_c, 0, 70, 62
2, 65520, Note_on_c, 0, 72, 62
2, 65760, Note_on_c, 0, 72, 0
2, 65760, Note_on_c, 0, 70, 0
2, 65760, Note_on_c, 0, 72, 65
2, 65760, Note_on_c, 0, 70, 65
2, 66000, Note_on_c, 0, 70, 0
2, 66000, Note_on_c, 0, 72, 0
2, 66000, Note_on_c, 0, 70, 55
2, 66000, Note_on_c, 0, 72, 55
2, 66240, Note_on_c, 0, 72, 0
2, 66240, Note_on_c, 0, 70, 0
2, 66240, Note_on_c, 0, 70, 59
2, 66240, Note_on_c, 0, 72, 59
2, 66480, Note_on_c, 0, 72, 0
2, 66480, Note_on_c, 0, 70, 0
2, 66480, Note_on_c, 0, 70, 49
2, 66480, Note_on_c, 0, 72, 51
2, 66720, Note_on_c, 0, 72, 0
2, 66720, Note_on_c, 0, 70, 0
2, 66720, Note_on_c, 0, 73, 60
2, 66720, Note_on_c, 0, 82, 70
2, 66960, Note_on_c, 0, 82, 0
2, 66960, Note_on_c, 0, 73, 0
2, 66960, Note_on_c, 0, 73, 54
2, 66960, Note_on_c, 0, 76, 54
2, 66960, Note_on_c, 0, 81, 64
2, 67200, Note_on_c, 0, 81, 0
2, 67200, Note_on_c, 0, 76, 0
2, 67200, Note_on_c, 0, 73, 0
2, 67200, Note_on_c, 0, 73, 59
2, 67200, Note_on_c, 0, 76, 59
2, 67200, Note_on_c, 0, 80, 69
2, 67440, Note_on_c, 0, 80, 0
2, 67440, Note_on_c, 0, 76, 0
2, 67440, Note_on_c, 0, 73, 0
2, 67440, Note_on_c, 0, 76, 53
2, 67440, Note_on_c, 0, 79, 63
2, 67440, Note_on_c, 0, 73, 53
2, 67680, Note_on_c, 0, 73, 0
2, 67680, Note_on_c, 0, 79, 0
2, 67680, Note_on_c, 0, 76, 0
2, 67680, Note_on_c, 0, 85, 69
2, 67680, Note_on_c, 0, 76, 59
2, 67680, Note_on_c, 0, 79, 59
2, 67920, Note_on_c, 0, 79, 0
2, 67920, Note_on_c, 0, 76, 0
2, 67920, Note_on_c, 0, 85, 0
2, 67920, Note_on_c, 0, 76, 53
2, 67920, Note_on_c, 0, 79, 53
2, 67920, Note_on_c, 0, 84, 63
2, 68160, Note_on_c, 0, 84, 0
2, 68160, Note_on_c, 0, 79, 0
2, 68160, Note_on_c, 0, 76, 0
2, 68160, Note_on_c, 0, 76, 58
2, 68160, Note_on_c, 0, 79, 58
2, 68160, Note_on_c, 0, 83, 68
2, 68400, Note_on_c, 0, 83, 0
2, 68400, Note_on_c, 0, 79, 0
2, 68400, Note_on_c, 0, 76, 0
2, 68400, Note_on_c, 0, 76, 50
2, 68400, Note_on_c, 0, 79, 50
2, 68400, Note_on_c, 0, 82, 60
2, 68640, Note_on_c, 0, 82, 0
2, 68640, Note_on_c, 0, 79, 0
2, 68640, Note_on_c, 0, 76, 0
2, 68640, Note_on_c, 0, 79, 55
2, 68640, Note_on_c, 0, 88, 65
2, 68640, Note_on_c, 0, 82, 55
2, 68880, Note_on_c, 0, 82, 0
2, 68880, Note_on_c, 0, 88, 0
2, 68880, Note_on_c, 0, 79, 0
2, 68880, Note_on_c, 0, 79, 48
2, 68880, Note_on_c, 0, 87, 58
2, 68880, Note_on_c, 0, 82, 48
2, 69120, Note_on_c, 0, 82, 0
2, 69120, Note_on_c, 0, 87, 0
2, 69120, Note_on_c, 0, 79, 0
2, 69120, Note_on_c, 0, 79, 53
2, 69120, Note_on_c, 0, 86, 63
2, 69120, Note_on_c, 0, 82, 53
2, 69360, Note_on_c, 0, 82, 0
2, 69360, Note_on_c, 0, 86, 0
2, 69360, Note_on_c, 0, 79, 0
2, 69360, Note_on_c, 0, 79, 47
2, 69360, Note_on_c, 0, 85, 57
2, 69360, Note_on_c, 0, 82, 47
2, 69600, Note_on_c, 0, 82, 0
2, 69600, Note_on_c, 0, 85, 0
2, 69600, Note_on_c, 0, 79, 0
2, 69600, Note_on_c, 0, 83, 63
2, 69600, Note_on_c, 0, 86, 54
2, 69600, Note_on_c, 0, 79, 53
2, 69840, Note_on_c, 0, 79, 0
2, 69840, Note_on_c, 0, 86, 0
2, 69840, Note_on_c, 0, 83, 0
2, 69840, Note_on_c, 0, 86, 38
2, 69840, Note_on_c, 0, 79, 44
2, 69840, Note_on_c, 0, 83, 52
2, 70080, Note_on_c, 0, 83, 0
2, 70080, Note_on_c, 0, 79, 0
2, 70080, Note_on_c, 0, 86, 0
2, 70080, Note_on_c, 0, 79, 48
2, 70080, Note_on_c, 0, 86, 38
2, 70080, Note_on_c, 0, 83, 55
2, 70320, Note_on_c, 0, 83, 0
2, 70320, Note_on_c, 0, 86, 0
2, 70320, Note_on_c, 0, 79, 0
2, 70320, Note_on_c, 0, 79, 51
2, 70320, Note_on_c, 0, 83, 57
2, 70560, Note_on_c, 0, 83, 0
2, 70560, Note_on_c, 0, 79, 0
2, 70560, Note_on_c, 0, 79, 48
2, 70560, Note_on_c, 0, 83, 58
2, 70800, Note_on_c, 0, 83, 0
2, 70800, Note_on_c, 0, 79, 0
2, 70800, Note_on_c, 0, 83, 57
2, 70800, Note_on_c, 0, 79, 52
2, 71040, Note_on_c, 0, 79, 0
2, 71040, Note_on_c, 0, 83, 0
2, 71040, Note_on_c, 0, 77, 56
2, 71040, Note_on_c, 0, 83, 55
2, 71280, Note_on_c, 0, 83, 0
2, 71280, Note_on_c, 0, 77, 0
2, 71280, Note_on_c, 0, 83, 51
2, 71280, Note_on_c, 0, 77, 57
2, 71520, Note_on_c, 0, 77, 0
2, 71520, Note_on_c, 0, 83, 0
2, 71520, Note_on_c, 0, 74, 55
2, 71520, Note_on_c, 0, 77, 55
2, 71760, Note_on_c, 0, 77, 0
2, 71760, Note_on_c, 0, 74, 0
2, 71760, Note_on_c, 0, 74, 53
2, 71760, Note_on_c, 0, 77, 57
2, 72000, Note_on_c, 0, 77, 0
2, 72000, Note_on_c, 0, 74, 0
2, 72000, Note_on_c, 0, 74, 53
2, 72000, Note_on_c, 0, 77, 51
2, 72240, Note_on_c, 0, 77, 0
2, 72240, Note_on_c, 0, 74, 0
2, 72240, Note_on_c, 0, 74, 54
2, 72240, Note_on_c, 0, 77, 51
2, 72480, Note_on_c, 0, 77, 0
2, 72480, Note_on_c, 0, 74, 0
2, 72480, Note_on_c, 0, 79, 51
2, 72480, Note_on_c, 0, 81, 48
2, 72480, Note_on_c, 0, 73, 52
2, 72480, Note_on_c, 0, 69, 38
2, 72540, Control_c, 0, 64, 127
2, 72705, Note_on_c, 0, 69, 0
2, 72705, Note_on_c, 0, 79, 0
2, 72705, Note_on_c, 0, 81, 0
2, 72705, Note_on_c, 0, 73, 0
2, 72720, Note_on_c, 0, 79, 50
2, 72720, Note_on_c, 0, 81, 47
2, 72720, Note_on_c, 0, 73, 53
2, 72720, Note_on_c, 0, 69, 47
2, 72945, Note_on_c, 0, 69, 0
2, 72945, Note_on_c, 0, 79, 0
2, 72945, Note_on_c, 0, 81, 0
2, 72945, Note_on_c, 0, 73, 0
2, 72960, Note_on_c, 0, 79, 50
2, 72960, Note_on_c, 0, 81, 50
2, 72960, Note_on_c, 0, 69, 50
2, 72960, Note_on_c, 0, 73, 50
2, 73185, Note_on_c, 0, 73, 0
2, 73185, Note_on_c, 0, 79, 0
2, 73185, Note_on_c, 0, 81, 0
2, 73185, Note_on_c, 0, 69, 0
2, 73200, Note_on_c, 0, 79, 41
2, 73200, Note_on_c, 0, 81, 40
2, 73200, Note_on_c, 0, 69, 45
2, 73200, Note_on_c, 0, 73, 55
2, 73425, Note_on_c, 0, 73, 0
2, 73425, Note_on_c, 0, 79, 0
2, 73425, Note_on_c, 0, 81, 0
2, 73425, Note_on_c, 0, 69, 0
2, 73440, Note_on_c, 0, 79, 49
2, 73440, Note_on_c, 0, 81, 49
2, 73440, Note_on_c, 0, 69, 49
2, 73440, Note_on_c, 0, 73, 49
2, 73665, Note_on_c, 0, 73, 0
2, 73665, Note_on_c, 0, 79, 0
2, 73665, Note_on_c, 0, 81, 0
2, 73665, Note_on_c, 0, 69, 0
2, 73680, Note_on_c, 0, 79, 42
2, 73680, Note_on_c, 0, 81, 41
2, 73680, Note_on_c, 0, 69, 46
2, 73680, Note_on_c, 0, 73, 54
2, 73905, Note_on_c, 0, 73, 0
2, 73905, Note_on_c, 0, 79, 0
2, 73905, Note_on_c, 0, 81, 0
2, 73905, Note_on_c, 0, 69, 0
2, 73920, Note_on_c, 0, 79, 47
2, 73920, Note_on_c, 0, 81, 47
2, 73920, Note_on_c, 0, 69, 47
2, 73920, Note_on_c, 0, 73, 47
2, 74145, Note_on_c, 0, 73, 0
2, 74145, Note_on_c, 0, 79, 0
2, 74145, Note_on_c, 0, 81, 0
2, 74145, Note_on_c, 0, 69, 0
2, 74160, Note_on_c, 0, 79, 44
2, 74160, Note_on_c, 0, 81, 41
2, 74160, Note_on_c, 0, 69, 46
2, 74160, Note_on_c, 0, 73, 53
2, 74385, Note_on_c, 0, 73, 0
2, 74385, Note_on_c, 0, 79, 0
2, 74385, Note_on_c, 0, 81, 0
2, 74385, Note_on_c, 0, 69, 0
2, 74400, Note_on_c, 0, 79, 47
2, 74400, Note_on_c, 0, 81, 47
2, 74400, Note_on_c, 0, 73, 47
2, 74400, Note_on_c, 0, 69, 47
2, 74625, Note_on_c, 0, 69, 0
2, 74625, Note_on_c, 0, 79, 0
2, 74625, Note_on_c, 0, 81, 0
2, 74625, Note_on_c, 0, 73, 0
2, 74640, Note_on_c, 0, 79, 40
2, 74640, Note_on_c, 0, 81, 37
2, 74640, Note_on_c, 0, 69, 44
2, 74640, Note_on_c, 0, 73, 53
2, 74865, Note_on_c, 0, 73, 0
2, 74865, Note_on_c, 0, 79, 0
2, 74865, Note_on_c, 0, 81, 0
2, 74865, Note_on_c, 0, 69, 0
2, 74880, Note_on_c, 0, 79, 37
2, 74880, Note_on_c, 0, 81, 35
2, 74880, Note_on_c, 0, 69, 41
2, 74880, Note_on_c, 0, 73, 48
2, 75105, Note_on_c, 0, 73, 0
2, 75105, Note_on_c, 0, 79, 0
2, 75105, Note_on_c, 0, 81, 0
2, 75105, Note_on_c, 0, 69, 0
2, 75120, Note_on_c, 0, 79, 47
2, 75120, Note_on_c, 0, 81, 43
2, 75120, Note_on_c, 0, 69, 48
2, 75120, Note_on_c, 0, 73, 53
2, 75300, Control_c, 0, 64, 0
2, 75360, Note_on_c, 0, 73, 0
2, 75360, Note_on_c, 0, 79, 0
2, 75360, Note_on_c, 0, 81, 0
2, 75360, Note_on_c, 0, 69, 0
2, 75600, Note_on_c, 0, 67, 51
2, 75600, Note_on_c, 0, 62, 50
2, 76080, Note_on_c, 0, 62, 0
2, 76080, Note_on_c, 0, 67, 0
2, 76080, Note_on_c, 0, 67, 50
2, 76080, Note_on_c, 0, 62, 52
2, 76440, Note_on_c, 0, 62, 0
2, 76440, Note_on_c, 0, 67, 0
2, 76440, Note_on_c, 0, 62, 55
2, 76500, Note_on_c, 0, 67, 60
2, 76680, Note_on_c, 0, 62, 0
2, 76740, Note_on_c, 0, 67, 0
2, 77040, Note_on_c, 0, 64, 55
2, 77040, Note_on_c, 0, 67, 57
2, 77280, Note_on_c, 0, 67, 0
2, 77280, Note_on_c, 0, 64, 0
2, 77520, Note_on_c, 0, 70, 50
2, 77520, Note_on_c, 0, 67, 65
2, 78000, Note_on_c, 0, 67, 0
2, 78000, Note_on_c, 0, 70, 0
2, 78000, Note_on_c, 0, 67, 60
2, 78000, Note_on_c, 0, 70, 43
2, 78240, Note_on_c, 0, 70, 0
2, 78240, Note_on_c, 0, 67, 0
2, 78480, Note_on_c, 0, 65, 61
2, 78960, Note_on_c, 0, 65, 0
2, 78960, Note_on_c, 0, 65, 71
2, 78960, Note_on_c, 0, 69, 71
2, 79440, Note_on_c, 0, 69, 0
2, 79440, Note_on_c, 0, 65, 0
2, 79440, Note_on_c, 0, 69, 60
2, 79440, Note_on_c, 0, 65, 60
2, 79920, Note_on_c, 0, 65, 0
2, 79920, Note_on_c, 0, 69, 0
2, 79920, Note_on_c, 0, 69, 62
2, 79920, Note_on_c, 0, 65, 62
2, 80400, Note_on_c, 0, 65, 0
2, 80400, Note_on_c, 0, 69, 0
2, 80400, Note_on_c, 0, 69, 52
2, 80400, Note_on_c, 0, 65, 52
2, 80880, Note_on_c, 0, 65, 0
2, 80880, Note_on_c, 0, 69, 0
2, 80880, Note_on_c, 0, 69, 53
2, 80880, Note_on_c, 0, 65, 53
2, 81120, Note_on_c, 0, 65, 0
2, 81120, Note_on_c, 0, 69, 0
2, 81360, Note_on_c, 0, 74, 54
2, 81360, Note_on_c, 0, 72, 54
2, 81360, Note_on_c, 0, 66, 54
2, 81600, Note_on_c, 0, 66, 0
2, 81600, Note_on_c, 0, 72, 0
2, 81600, Note_on_c, 0, 74, 0
2, 81600, Note_on_c, 0, 74, 59
2, 81600, Note_on_c, 0, 72, 59
2, 81600, Note_on_c, 0, 66, 59
2, 81840, Note_on_c, 0, 66, 0
2, 81840, Note_on_c, 0, 72, 0
2, 81840, Note_on_c, 0, 74, 0
2, 81840, Note_on_c, 0, 74, 52
2, 81840, Note_on_c, 0, 72, 52
2, 81840, Note_on_c, 0, 66, 52
2, 82080, Note_on_c, 0, 66, 0
2, 82080, Note_on_c, 0, 72, 0
2, 82080, Note_on_c, 0, 74, 0
2, 82080, Note_on_c, 0, 74, 55
2, 82080, Note_on_c, 0, 72, 55
2, 82080, Note_on_c, 0, 66, 55
2, 82320, Note_on_c, 0, 66, 0
2, 82320, Note_on_c, 0, 72, 0
2, 82320, Note_on_c, 0, 74, 0
2, 82320, Note_on_c, 0, 74, 50
2, 82320, Note_on_c, 0, 72, 50
2, 82320, Note_on_c, 0, 66, 50
2, 82560, Note_on_c, 0, 66, 0
2, 82560, Note_on_c, 0, 72, 0
2, 82560, Note_on_c, 0, 74, 0
2, 82560, Note_on_c, 0, 74, 57
2, 82560, Note_on_c, 0, 67, 57
2, 82560, Note_on_c, 0, 71, 57
2, 82800, Note_on_c, 0, 71, 0
2, 82800, Note_on_c, 0, 67, 0
2, 82800, Note_on_c, 0, 74, 0
2, 82800, Note_on_c, 0, 74, 50
2, 82800, Note_on_c, 0, 67, 50
2, 82800, Note_on_c, 0, 71, 50
2, 83040, Note_on_c, 0, 71, 0
2, 83040, Note_on_c, 0, 67, 0
2, 83040, Note_on_c, 0, 74, 0
2, 83040, Note_on_c, 0, 67, 54
2, 83040, Note_on_c, 0, 71, 54
2, 83040, Note_on_c, 0, 74, 54
2, 83280, Note_on_c, 0, 74, 0
2, 83280, Note_on_c, 0, 71, 0
2, 83280, Note_on_c, 0, 67, 0
2, 83280, Note_on_c, 0, 74, 50
2, 83280, Note_on_c, 0, 71, 50
2, 83280, Note_on_c, 0, 67, 50
2, 83520, Note_on_c, 0, 67, 0
2, 83520, Note_on_c, 0, 71, 0
2, 83520, Note_on_c, 0, 74, 0
2, 83520, Note_on_c, 0, 74, 54
2, 83520, Note_on_c, 0, 71, 54
2, 83520, Note_on_c, 0, 67, 54
2, 83760, Note_on_c, 0, 67, 0
2, 83760, Note_on_c, 0, 71, 0
2, 83760, Note_on_c, 0, 74, 0
2, 83760, Note_on_c, 0, 74, 50
2, 83760, Note_on_c, 0, 71, 50
2, 83760, Note_on_c, 0, 67, 50
2, 84000, Note_on_c, 0, 67, 0
2, 84000, Note_on_c, 0, 71, 0
2, 84000, Note_on_c, 0, 74, 0
2, 84000, Note_on_c, 0, 72, 63
2, 84000, Note_on_c, 0, 74, 54
2, 84000, Note_on_c, 0, 66, 60
2, 84240, Note_on_c, 0, 66, 0
2, 84240, Note_on_c, 0, 74, 0
2, 84240, Note_on_c, 0, 72, 0
2, 84240, Note_on_c, 0, 74, 51
2, 84240, Note_on_c, 0, 72, 51
2, 84240, Note_on_c, 0, 66, 51
2, 84480, Note_on_c, 0, 66, 0
2, 84480, Note_on_c, 0, 72, 0
2, 84480, Note_on_c, 0, 74, 0
2, 84480, Note_on_c, 0, 72, 55
2, 84480, Note_on_c, 0, 74, 55
2, 84480, Note_on_c, 0, 66, 55
2, 84720, Note_on_c, 0, 66, 0
2, 84720, Note_on_c, 0, 74, 0
2, 84720, Note_on_c, 0, 72, 0
2, 84720, Note_on_c, 0, 72, 51
2, 84720, Note_on_c, 0, 74, 51
2, 84720, Note_on_c, 0, 66, 51
2, 84960, Note_on_c, 0, 66, 0
2, 84960, Note_on_c, 0, 74, 0
2, 84960, Note_on_c, 0, 72, 0
2, 84960, Note_on_c, 0, 72, 57
2, 84960, Note_on_c, 0, 74, 57
2, 84960, Note_on_c, 0, 66, 57
2, 85200, Note_on_c, 0, 66, 0
2, 85200, Note_on_c, 0, 74, 0
2, 85200, Note_on_c, 0, 72, 0
2, 85200, Note_on_c, 0, 72, 50
2, 85200, Note_on_c, 0, 74, 50
2, 85200, Note_on_c, 0, 66, 50
2, 85260, Note_on_c, 0, 67, 59
2, 85320, Note_on_c, 0, 71, 64
2, 85380, Note_on_c, 0, 74, 70
2, 85440, Note_on_c, 0, 66, 0
2, 85440, Note_on_c, 0, 72, 0
2, 85440, Note_on_c, 0, 74, 0
2, 85500, Note_on_c, 0, 67, 0
2, 85560, Note_on_c, 0, 71, 0
2, 85620, Note_on_c, 0, 74, 0
2, 85680, Note_on_c, 0, 74, 50
2, 85680, Note_on_c, 0, 67, 50
2, 85680, Note_on_c, 0, 71, 50
2, 85920, Note_on_c, 0, 71, 0
2, 85920, Note_on_c, 0, 67, 0
2, 85920, Note_on_c, 0, 74, 0
2, 85920, Note_on_c, 0, 74, 61
2, 85920, Note_on_c, 0, 71, 61
2, 85920, Note_on_c, 0, 67, 61
2, 86160, Note_on_c, 0, 67, 0
2, 86160, Note_on_c, 0, 71, 0
2, 86160, Note_on_c, 0, 74, 0
2, 86160, Note_on_c, 0, 74, 54
2, 86160, Note_on_c, 0, 71, 54
2, 86160, Note_on_c, 0, 67, 54
2, 86400, Note_on_c, 0, 67, 0
2, 86400, Note_on_c, 0, 71, 0
2, 86400, Note_on_c, 0, 74, 0
2, 86400, Note_on_c, 0, 67, 66
2, 86400, Note_on_c, 0, 71, 66
2, 86400, Note_on_c, 0, 74, 66
2, 86640, Note_on_c, 0, 74, 0
2, 86640, Note_on_c, 0, 71, 0
2, 86640, Note_on_c, 0, 67, 0
2, 86640, Note_on_c, 0, 74, 43
2, 86640, Note_on_c, 0, 71, 60
2, 86640, Note_on_c, 0, 67, 52
2, 86700, Note_on_c, 0, 67, 0
2, 86700, Note_on_c, 0, 67, 72
2, 86760, Note_on_c, 0, 72, 74
2, 86820, Note_on_c, 0, 75, 75
2, 86880, Note_on_c, 0, 71, 0
2, 86880, Note_on_c, 0, 74, 0
2, 86940, Note_on_c, 0, 67, 0
2, 87000, Note_on_c, 0, 72, 0
2, 87060, Note_on_c, 0, 75, 0
2, 87120, Note_on_c, 0, 75, 45
2, 87120, Note_on_c, 0, 72, 58
2, 87120, Note_on_c, 0, 67, 62
2, 87360, Note_on_c, 0, 67, 0
2, 87360, Note_on_c, 0, 72, 0
2, 87360, Note_on_c, 0, 75, 0
2, 87360, Note_on_c, 0, 72, 66
2, 87360, Note_on_c, 0, 75, 66
2, 87360, Note_on_c, 0, 67, 66
2, 87600, Note_on_c, 0, 67, 0
2, 87600, Note_on_c, 0, 75, 0
2, 87600, Note_on_c, 0, 72, 0
2, 87600, Note_on_c, 0, 72, 58
2, 87600, Note_on_c, 0, 67, 57
2, 87600, Note_on_c, 0, 75, 42
2, 87840, Note_on_c, 0, 75, 0
2, 87840, Note_on_c, 0, 67, 0
2, 87840, Note_on_c, 0, 72, 0
2, 87840, Note_on_c, 0, 72, 65
2, 87840, Note_on_c, 0, 75, 65
2, 87840, Note_on_c, 0, 67, 65
2, 88080, Note_on_c, 0, 67, 0
2, 88080, Note_on_c, 0, 75, 0
2, 88080, Note_on_c, 0, 72, 0
2, 88080, Note_on_c, 0, 72, 59
2, 88080, Note_on_c, 0, 67, 59
2, 88080, Note_on_c, 0, 75, 59
2, 88140, Note_on_c, 0, 66, 64
2, 88200, Note_on_c, 0, 72, 0
2, 88200, Note_on_c, 0, 72, 68
2, 88260, Note_on_c, 0, 74, 72
2, 88320, Note_on_c, 0, 67, 0
2, 88320, Note_on_c, 0, 75, 0
2, 88380, Note_on_c, 0, 66, 0
2, 88440, Note_on_c, 0, 72, 0
2, 88500, Note_on_c, 0, 74, 0
2, 88560, Note_on_c, 0, 74, 55
2, 88560, Note_on_c, 0, 72, 60
2, 88560, Note_on_c, 0, 66, 56
2, 88800, Note_on_c, 0, 66, 0
2, 88800, Note_on_c, 0, 72, 0
2, 88800, Note_on_c, 0, 74, 0
2, 88800, Note_on_c, 0, 74, 63
2, 88800, Note_on_c, 0, 72, 63
2, 88800, Note_on_c, 0, 66, 63
2, 89040, Note_on_c, 0, 66, 0
2, 89040, Note_on_c, 0, 72, 0
2, 89040, Note_on_c, 0, 74, 0
2, 89040, Note_on_c, 0, 74, 51
2, 89040, Note_on_c, 0, 72, 57
2, 89040, Note_on_c, 0, 66, 48
2, 89280, Note_on_c, 0, 66, 0
2, 89280, Note_on_c, 0, 72, 0
2, 89280, Note_on_c, 0, 74, 0
2, 89280, Note_on_c, 0, 74, 53
2, 89280, Note_on_c, 0, 72, 57
2, 89280, Note_on_c, 0, 66, 50
2, 89520, Note_on_c, 0, 66, 0
2, 89520, Note_on_c, 0, 72, 0
2, 89520, Note_on_c, 0, 74, 0
2, 89520, Note_on_c, 0, 74, 53
2, 89520, Note_on_c, 0, 72, 57
2, 89520, Note_on_c, 0, 66, 44
2, 89580, Note_on_c, 0, 67, 66
2, 89640, Note_on_c, 0, 71, 72
2, 89700, Note_on_c, 0, 76, 78
2, 89760, Note_on_c, 0, 66, 0
2, 89760, Note_on_c, 0, 74, 0
2, 89760, Note_on_c, 0, 72, 0
2, 89820, Note_on_c, 0, 67, 0
2, 89880, Note_on_c, 0, 71, 0
2, 89940, Note_on_c, 0, 76, 0
2, 90000, Note_on_c, 0, 67, 52
2, 90000, Note_on_c, 0, 76, 55
2, 90000, Note_on_c, 0, 71, 63
2, 90240, Note_on_c, 0, 71, 0
2, 90240, Note_on_c, 0, 76, 0
2, 90240, Note_on_c, 0, 67, 0
2, 90240, Note_on_c, 0, 67, 55
2, 90240, Note_on_c, 0, 76, 51
2, 90240, Note_on_c, 0, 71, 64
2, 90480, Note_on_c, 0, 71, 0
2, 90480, Note_on_c, 0, 76, 0
2, 90480, Note_on_c, 0, 67, 0
2, 90480, Note_on_c, 0, 67, 48
2, 90480, Note_on_c, 0, 76, 50
2, 90480, Note_on_c, 0, 71, 64
2, 90720, Note_on_c, 0, 71, 0
2, 90720, Note_on_c, 0, 76, 0
2, 90720, Note_on_c, 0, 67, 0
2, 90720, Note_on_c, 0, 67, 52
2, 90720, Note_on_c, 0, 71, 64
2, 90720, Note_on_c, 0, 76, 48
2, 90960, Note_on_c, 0, 76, 0
2, 90960, Note_on_c, 0, 71, 0
2, 90960, Note_on_c, 0, 67, 0
2, 90960, Note_on_c, 0, 67, 50
2, 90960, Note_on_c, 0, 71, 63
2, 90960, Note_on_c, 0, 76, 51
2, 91020, Note_on_c, 0, 66, 71
2, 91080, Note_on_c, 0, 72, 74
2, 91140, Note_on_c, 0, 74, 79
2, 91200, Note_on_c, 0, 76, 0
2, 91200, Note_on_c, 0, 67, 0
2, 91200, Note_on_c, 0, 71, 0
2, 91260, Note_on_c, 0, 66, 0
2, 91320, Note_on_c, 0, 72, 0
2, 91380, Note_on_c, 0, 74, 0
2, 91440, Note_on_c, 0, 74, 59
2, 91440, Note_on_c, 0, 72, 63
2, 91440, Note_on_c, 0, 66, 57
2, 91680, Note_on_c, 0, 66, 0
2, 91680, Note_on_c, 0, 72, 0
2, 91680, Note_on_c, 0, 74, 0
2, 91680, Note_on_c, 0, 72, 60
2, 91680, Note_on_c, 0, 74, 53
2, 91680, Note_on_c, 0, 66, 55
2, 91920, Note_on_c, 0, 66, 0
2, 91920, Note_on_c, 0, 74, 0
2, 91920, Note_on_c, 0, 72, 0
2, 91920, Note_on_c, 0, 74, 52
2, 91920, Note_on_c, 0, 72, 55
2, 91920, Note_on_c, 0, 66, 52
2, 92160, Note_on_c, 0, 66, 0
2, 92160, Note_on_c, 0, 72, 0
2, 92160, Note_on_c, 0, 74, 0
2, 92160, Note_on_c, 0, 74, 55
2, 92160, Note_on_c, 0, 72, 60
2, 92160, Note_on_c, 0, 66, 56
2, 92400, Note_on_c, 0, 66, 0
2, 92400, Note_on_c, 0, 72, 0
2, 92400, Note_on_c, 0, 74, 0
2, 92400, Note_on_c, 0, 74, 59
2, 92400, Note_on_c, 0, 72, 64
2, 92400, Note_on_c, 0, 66, 58
2, 92640, Note_on_c, 0, 66, 0
2, 92640, Note_on_c, 0, 72, 0
2, 92640, Note_on_c, 0, 74, 0
2, 92640, Control_c, 0, 64, 127
2, 92640, Note_on_c, 0, 83, 57
2, 92640, Note_on_c, 0, 71, 57
2, 92640, Note_on_c, 0, 74, 57
2, 92880, Note_on_c, 0, 74, 0
2, 92880, Note_on_c, 0, 71, 0
2, 92880, Note_on_c, 0, 83, 0
2, 92880, Note_on_c, 0, 83, 49
2, 92880, Note_on_c, 0, 74, 49
2, 92880, Note_on_c, 0, 71, 49
2, 93120, Note_on_c, 0, 71, 0
2, 93120, Note_on_c, 0, 74, 0
2, 93120, Note_on_c, 0, 83, 0
2, 93120, Note_on_c, 0, 83, 54
2, 93120, Note_on_c, 0, 71, 54
2, 93120, Note_on_c, 0, 74, 54
2, 93360, Note_on_c, 0, 74, 0
2, 93360, Note_on_c, 0, 71, 0
2, 93360, Note_on_c, 0, 83, 0
2, 93360, Note_on_c, 0, 83, 45
2, 93360, Note_on_c, 0, 74, 48
2, 93360, Note_on_c, 0, 71, 46
2, 93600, Note_on_c, 0, 71, 0
2, 93600, Note_on_c, 0, 74, 0
2, 93600, Note_on_c, 0, 83, 0
2, 93600, Note_on_c, 0, 83, 54
2, 93600, Note_on_c, 0, 71, 54
2, 93600, Note_on_c, 0, 74, 54
2, 93840, Note_on_c, 0, 74, 0
2, 93840, Note_on_c, 0, 71, 0
2, 93840, Note_on_c, 0, 83, 0
2, 93840, Note_on_c, 0, 71, 38
2, 93840, Note_on_c, 0, 83, 38
2, 93840, Note_on_c, 0, 74, 47
2, 94080, Note_on_c, 0, 74, 0
2, 94080, Note_on_c, 0, 83, 0
2, 94080, Note_on_c, 0, 71, 0
2, 94080, Note_on_c, 0, 71, 50
2, 94080, Note_on_c, 0, 78, 50
2, 94080, Note_on_c, 0, 74, 50
2, 94080, Note_on_c, 0, 83, 50
2, 94320, Note_on_c, 0, 83, 0
2, 94320, Note_on_c, 0, 71, 0
2, 94320, Note_on_c, 0, 78, 0
2, 94320, Note_on_c, 0, 74, 0
2, 94320, Note_on_c, 0, 83, 40
2, 94320, Note_on_c, 0, 71, 41
2, 94320, Note_on_c, 0, 78, 41
2, 94320, Note_on_c, 0, 74, 46
2, 94560, Note_on_c, 0, 74, 0
2, 94560, Note_on_c, 0, 83, 0
2, 94560, Note_on_c, 0, 71, 0
2, 94560, Note_on_c, 0, 78, 0
2, 94560, Note_on_c, 0, 71, 50
2, 94560, Note_on_c, 0, 74, 50
2, 94560, Note_on_c, 0, 83, 50
2, 94560, Note_on_c, 0, 78, 50
2, 94800, Note_on_c, 0, 78, 0
2, 94800, Note_on_c, 0, 71, 0
2, 94800, Note_on_c, 0, 74, 0
2, 94800, Note_on_c, 0, 83, 0
2, 94800, Note_on_c, 0, 83, 44
2, 94800, Note_on_c, 0, 78, 44
2, 94800, Note_on_c, 0, 71, 44
2, 94800, Note_on_c, 0, 74, 44
2, 95040, Note_on_c, 0, 74, 0
2, 95040, Note_on_c, 0, 83, 0
2, 95040, Note_on_c, 0, 78, 0
2, 95040, Note_on_c, 0, 71, 0
2, 95040, Note_on_c, 0, 83, 51
2, 95040, Note_on_c, 0, 78, 51
2, 95040, Note_on_c, 0, 71, 51
2, 95040, Note_on_c, 0, 74, 51
2, 95280, Note_on_c, 0, 74, 0
2, 95280, Note_on_c, 0, 83, 0
2, 95280, Note_on_c, 0, 78, 0
2, 95280, Note_on_c, 0, 71, 0
2, 95280, Note_on_c, 0, 83, 46
2, 95280, Note_on_c, 0, 71, 46
2, 95280, Note_on_c, 0, 78, 46
2, 95280, Note_on_c, 0, 74, 46
2, 95475, Control_c, 0, 64, 0
2, 95520, Note_on_c, 0, 74, 0
2, 95520, Note_on_c, 0, 83, 0
2, 95520, Note_on_c, 0, 71, 0
2, 95520, Note_on_c, 0, 78, 0
2, 95520, Note_on_c, 0, 69, 64
2, 95520, Note_on_c, 0, 66, 64
2, 95595, Control_c, 0, 64, 127
2, 95760, Note_on_c, 0, 66, 0
2, 95760, Note_on_c, 0, 69, 0
2, 95760, Note_on_c, 0, 69, 55
2, 95760, Note_on_c, 0, 66, 55
2, 96000, Note_on_c, 0, 66, 0
2, 96000, Note_on_c, 0, 69, 0
2, 96000, Note_on_c, 0, 69, 59
2, 96000, Note_on_c, 0, 66, 59
2, 96240, Note_on_c, 0, 66, 0
2, 96240, Note_on_c, 0, 69, 0
2, 96240, Note_on_c, 0, 69, 54
2, 96240, Note_on_c, 0, 66, 54
2, 96480, Note_on_c, 0, 66, 0
2, 96480, Note_on_c, 0, 69, 0
2, 96480, Note_on_c, 0, 69, 58
2, 96480, Note_on_c, 0, 66, 58
2, 96720, Note_on_c, 0, 66, 0
2, 96720, Note_on_c, 0, 69, 0
2, 96720, Note_on_c, 0, 69, 53
2, 96720, Note_on_c, 0, 66, 53
2, 96900, Control_c, 0, 64, 0
2, 96960, Note_on_c, 0, 66, 0
2, 96960, Note_on_c, 0, 69, 0
2, 96960, Note_on_c, 0, 67, 55
2, 96960, Note_on_c, 0, 65, 49
2, 96960, Note_on_c, 0, 71, 48
2, 97005, Control_c, 0, 64, 127
2, 97200, Note_on_c, 0, 71, 0
2, 97200, Note_on_c, 0, 65, 0
2, 97200, Note_on_c, 0, 67, 0
2, 97200, Note_on_c, 0, 65, 46
2, 97200, Note_on_c, 0, 67, 46
2, 97200, Note_on_c, 0, 71, 46
2, 97440, Note_on_c, 0, 71, 0
2, 97440, Note_on_c, 0, 67, 0
2, 97440, Note_on_c, 0, 65, 0
2, 97440, Note_on_c, 0, 65, 53
2, 97440, Note_on_c, 0, 67, 53
2, 97440, Note_on_c, 0, 71, 53
2, 97680, Note_on_c, 0, 71, 0
2, 97680, Note_on_c, 0, 67, 0
2, 97680, Note_on_c, 0, 65, 0
2, 97680, Note_on_c, 0, 71, 32
2, 97680, Note_on_c, 0, 65, 37
2, 97680, Note_on_c, 0, 67, 47
2, 97920, Note_on_c, 0, 67, 0
2, 97920, Note_on_c, 0, 65, 0
2, 97920, Note_on_c, 0, 71, 0
2, 97920, Note_on_c, 0, 65, 52
2, 97920, Note_on_c, 0, 71, 52
2, 97920, Note_on_c, 0, 67, 52
2, 98160, Note_on_c, 0, 67, 0
2, 98160, Note_on_c, 0, 71, 0
2, 98160, Note_on_c, 0, 65, 0
2, 98160, Note_on_c, 0, 65, 47
2, 98160, Note_on_c, 0, 67, 47
2, 98160, Note_on_c, 0, 71, 47
2, 98340, Control_c, 0, 64, 0
2, 98400, Note_on_c, 0, 71, 0
2, 98400, Note_on_c, 0, 67, 0
2, 98400, Note_on_c, 0, 65, 0
2, 98400, Note_on_c, 0, 76, 53
2, 98400, Note_on_c, 0, 71, 62
2, 98400, Note_on_c, 0, 64, 53
2, 98460, Control_c, 0, 64, 127
2, 98640, Note_on_c, 0, 64, 0
2, 98640, Note_on_c, 0, 71, 0
2, 98640, Note_on_c, 0, 76, 0
2, 98640, Note_on_c, 0, 76, 47
2, 98640, Note_on_c, 0, 71, 57
2, 98640, Note_on_c, 0, 64, 43
2, 98880, Note_on_c, 0, 64, 0
2, 98880, Note_on_c, 0, 71, 0
2, 98880, Note_on_c, 0, 76, 0
2, 98880, Note_on_c, 0, 64, 45
2, 98880, Note_on_c, 0, 71, 57
2, 98880, Note_on_c, 0, 76, 54
2, 99120, Note_on_c, 0, 76, 0
2, 99120, Note_on_c, 0, 71, 0
2, 99120, Note_on_c, 0, 64, 0
2, 99120, Note_on_c, 0, 64, 42
2, 99120, Note_on_c, 0, 71, 55
2, 99120, Note_on_c, 0, 76, 53
2, 99360, Note_on_c, 0, 76, 0
2, 99360, Note_on_c, 0, 71, 0
2, 99360, Note_on_c, 0, 64, 0
2, 99360, Note_on_c, 0, 64, 43
2, 99360, Note_on_c, 0, 76, 50
2, 99360, Note_on_c, 0, 71, 57
2, 99600, Note_on_c, 0, 71, 0
2, 99600, Note_on_c, 0, 76, 0
2, 99600, Note_on_c, 0, 64, 0
2, 99600, Note_on_c, 0, 64, 43
2, 99600, Note_on_c, 0, 76, 46
2, 99600, Note_on_c, 0, 71, 57
2, 99840, Note_on_c, 0, 71, 0
2, 99840, Note_on_c, 0, 76, 0
2, 99840, Note_on_c, 0, 64, 0
2, 99840, Note_on_c, 0, 76, 44
2, 99840, Note_on_c, 0, 71, 58
2, 99840, Note_on_c, 0, 64, 40
2, 100080, Note_on_c, 0, 64, 0
2, 100080, Note_on_c, 0, 71, 0
2, 100080, Note_on_c, 0, 76, 0
2, 100080, Note_on_c, 0, 64, 42
2, 100080, Note_on_c, 0, 76, 45
2, 100080, Note_on_c, 0, 71, 52
2, 100275, Control_c, 0, 64, 0
2, 100320, Note_on_c, 0, 71, 0
2, 100320, Note_on_c, 0, 76, 0
2, 100320, Note_on_c, 0, 64, 0
2, 100320, Note_on_c, 0, 76, 43
2, 100320, Note_on_c, 0, 64, 41
2, 100320, Note_on_c, 0, 69, 51
2, 100365, Control_c, 0, 64, 127
2, 100560, Note_on_c, 0, 69, 0
2, 100560, Note_on_c, 0, 64, 0
2, 100560, Note_on_c, 0, 76, 0
2, 100560, Note_on_c, 0, 76, 40
2, 100560, Note_on_c, 0, 64, 47
2, 100560, Note_on_c, 0, 69, 51
2, 100800, Note_on_c, 0, 69, 0
2, 100800, Note_on_c, 0, 64, 0
2, 100800, Note_on_c, 0, 76, 0
2, 100800, Note_on_c, 0, 64, 43
2, 100800, Note_on_c, 0, 76, 40
2, 100800, Note_on_c, 0, 69, 48
2, 101040, Note_on_c, 0, 69, 0
2, 101040, Note_on_c, 0, 76, 0
2, 101040, Note_on_c, 0, 64, 0
2, 101040, Note_on_c, 0, 64, 41
2, 101040, Note_on_c, 0, 76, 43
2, 101040, Note_on_c, 0, 69, 51
2, 101235, Control_c, 0, 64, 0
2, 101280, Note_on_c, 0, 69, 0
2, 101280, Note_on_c, 0, 76, 0
2, 101280, Note_on_c, 0, 64, 0
2, 101280, Note_on_c, 0, 71, 62
2, 101280, Note_on_c, 0, 75, 45
2, 101280, Note_on_c, 0, 63, 53
2, 101325, Control_c, 0, 64, 127
2, 101520, Note_on_c, 0, 63, 0
2, 101520, Note_on_c, 0, 75, 0
2, 101520, Note_on_c, 0, 71, 0
2, 101520, Note_on_c, 0, 71, 58
2, 101520, Note_on_c, 0, 75, 40
2, 101520, Note_on_c, 0, 63, 47
2, 101760, Note_on_c, 0, 63, 0
2, 101760, Note_on_c, 0, 75, 0
2, 101760, Note_on_c, 0, 71, 0
2, 101760, Note_on_c, 0, 71, 61
2, 101760, Note_on_c, 0, 75, 33
2, 101760, Note_on_c, 0, 63, 48
2, 102000, Note_on_c, 0, 63, 0
2, 102000, Note_on_c, 0, 75, 0
2, 102000, Note_on_c, 0, 71, 0
2, 102000, Note_on_c, 0, 71, 61
2, 102000, Note_on_c, 0, 75, 34
2, 102000, Note_on_c, 0, 63, 42
2, 102240, Note_on_c, 0, 63, 0
2, 102240, Note_on_c, 0, 75, 0
2, 102240, Note_on_c, 0, 71, 0
2, 102240, Note_on_c, 0, 75, 26
2, 102240, Note_on_c, 0, 71, 58
2, 102240, Note_on_c, 0, 63, 41
2, 102480, Note_on_c, 0, 63, 0
2, 102480, Note_on_c, 0, 71, 0
2, 102480, Note_on_c, 0, 75, 0
2, 102480, Note_on_c, 0, 75, 37
2, 102480, Note_on_c, 0, 71, 58
2, 102480, Note_on_c, 0, 63, 41
2, 102675, Control_c, 0, 64, 0
2, 102720, Note_on_c, 0, 63, 0
2, 102720, Note_on_c, 0, 71, 0
2, 102720, Note_on_c, 0, 75, 0
2, 102720, Note_on_c, 0, 74, 48
2, 102720, Note_on_c, 0, 72, 54
2, 102720, Note_on_c, 0, 66, 44
2, 102765, Control_c, 0, 64, 127
2, 102960, Note_on_c, 0, 66, 0
2, 102960, Note_on_c, 0, 72, 0
2, 102960, Note_on_c, 0, 74, 0
2, 102960, Note_on_c, 0, 74, 48
2, 102960, Note_on_c, 0, 72, 52
2, 102960, Note_on_c, 0, 66, 36
2, 103200, Note_on_c, 0, 66, 0
2, 103200, Note_on_c, 0, 72, 0
2, 103200, Note_on_c, 0, 74, 0
2, 103200, Note_on_c, 0, 74, 47
2, 103200, Note_on_c, 0, 72, 51
2, 103200, Note_on_c, 0, 66, 38
2, 103440, Note_on_c, 0, 66, 0
2, 103440, Note_on_c, 0, 72, 0
2, 103440, Note_on_c, 0, 74, 0
2, 103440, Note_on_c, 0, 74, 48
2, 103440, Note_on_c, 0, 72, 52
2, 103440, Note_on_c, 0, 66, 38
2, 103680, Note_on_c, 0, 66, 0
2, 103680, Note_on_c, 0, 72, 0
2, 103680, Note_on_c, 0, 74, 0
2, 103680, Note_on_c, 0, 74, 44
2, 103680, Note_on_c, 0, 72, 48
2, 103680, Note_on_c, 0, 66, 42
2, 103920, Note_on_c, 0, 66, 0
2, 103920, Note_on_c, 0, 72, 0
2, 103920, Note_on_c, 0, 74, 0
2, 103920, Note_on_c, 0, 74, 49
2, 103920, Note_on_c, 0, 72, 51
2, 103920, Note_on_c, 0, 66, 41
2, 104100, Control_c, 0, 64, 0
2, 104160, Note_on_c, 0, 66, 0
2, 104160, Note_on_c, 0, 72, 0
2, 104160, Note_on_c, 0, 74, 0
2, 104160, Note_on_c, 0, 67, 54
2, 104160, Note_on_c, 0, 71, 64
2, 104160, Note_on_c, 0, 74, 56
2, 104220, Control_c, 0, 64, 127
2, 104400, Note_on_c, 0, 74, 0
2, 104400, Note_on_c, 0, 71, 0
2, 104400, Note_on_c, 0, 67, 0
2, 104400, Note_on_c, 0, 71, 61
2, 104400, Note_on_c, 0, 67, 49
2, 104400, Note_on_c, 0, 74, 55
2, 104640, Note_on_c, 0, 74, 0
2, 104640, Note_on_c, 0, 67, 0
2, 104640, Note_on_c, 0, 71, 0
2, 104640, Note_on_c, 0, 71, 54
2, 104640, Note_on_c, 0, 67, 48
2, 104640, Note_on_c, 0, 74, 48
2, 104880, Note_on_c, 0, 74, 0
2, 104880, Note_on_c, 0, 67, 0
2, 104880, Note_on_c, 0, 71, 0
2, 104880, Note_on_c, 0, 67, 46
2, 104880, Note_on_c, 0, 71, 54
2, 104880, Note_on_c, 0, 74, 45
2, 105120, Note_on_c, 0, 74, 0
2, 105120, Note_on_c, 0, 71, 0
2, 105120, Note_on_c, 0, 67, 0
2, 105120, Note_on_c, 0, 67, 45
2, 105120, Note_on_c, 0, 71, 55
2, 105120, Note_on_c, 0, 74, 46
2, 105360, Note_on_c, 0, 74, 0
2, 105360, Note_on_c, 0, 71, 0
2, 105360, Note_on_c, 0, 67, 0
2, 105360, Note_on_c, 0, 67, 51
2, 105360, Note_on_c, 0, 74, 51
2, 105360, Note_on_c, 0, 71, 51
2, 105540, Control_c, 0, 64, 0
2, 105600, Note_on_c, 0, 71, 0
2, 105600, Note_on_c, 0, 74, 0
2, 105600, Note_on_c, 0, 67, 0
2, 105600, Note_on_c, 0, 72, 45
2, 105600, Note_on_c, 0, 74, 45
2, 105600, Note_on_c, 0, 67, 54
2, 105675, Control_c, 0, 64, 127
2, 105840, Note_on_c, 0, 67, 0
2, 105840, Note_on_c, 0, 74, 0
2, 105840, Note_on_c, 0, 72, 0
2, 105840, Note_on_c, 0, 74, 46
2, 105840, Note_on_c, 0, 72, 44
2, 105840, Note_on_c, 0, 67, 56
2, 106080, Note_on_c, 0, 67, 0
2, 106080, Note_on_c, 0, 72, 0
2, 106080, Note_on_c, 0, 74, 0
2, 106080, Note_on_c, 0, 72, 42
2, 106080, Note_on_c, 0, 74, 44
2, 106080, Note_on_c, 0, 67, 52
2, 106320, Note_on_c, 0, 67, 0
2, 106320, Note_on_c, 0, 74, 0
2, 106320, Note_on_c, 0, 72, 0
2, 106320, Note_on_c, 0, 74, 45
2, 106320, Note_on_c, 0, 72, 46
2, 106320, Note_on_c, 0, 67, 58
2, 106500, Control_c, 0, 64, 0
2, 106560, Note_on_c, 0, 67, 0
2, 106560, Note_on_c, 0, 72, 0
2, 106560, Note_on_c, 0, 74, 0
2, 106560, Note_on_c, 0, 74, 44
2, 106560, Note_on_c, 0, 72, 52
2, 106560, Note_on_c, 0, 66, 48
2, 106575, Control_c, 0, 64, 127
2, 106800, Note_on_c, 0, 66, 0
2, 106800, Note_on_c, 0, 72, 0
2, 106800, Note_on_c, 0, 74, 0
2, 106800, Note_on_c, 0, 74, 46
2, 106800, Note_on_c, 0, 72, 52
2, 106800, Note_on_c, 0, 66, 47
2, 106995, Control_c, 0, 64, 0
2, 107040, Note_on_c, 0, 66, 0
2, 107040, Note_on_c, 0, 72, 0
2, 107040, Note_on_c, 0, 74, 0
2, 107040, Note_on_c, 0, 67, 55
2, 107040, Note_on_c, 0, 71, 64
2, 107040, Note_on_c, 0, 74, 56
2, 107085, Control_c, 0, 64, 127
2, 107280, Note_on_c, 0, 74, 0
2, 107280, Note_on_c, 0, 71, 0
2, 107280, Note_on_c, 0, 67, 0
2, 107280, Note_on_c, 0, 74, 46
2, 107280, Note_on_c, 0, 71, 57
2, 107280, Note_on_c, 0, 67, 51
2, 107520, Note_on_c, 0, 67, 0
2, 107520, Note_on_c, 0, 71, 0
2, 107520, Note_on_c, 0, 74, 0
2, 107520, Note_on_c, 0, 74, 42
2, 107520, Note_on_c, 0, 67, 48
2, 107520, Note_on_c, 0, 71, 54
2, 107760, Note_on_c, 0, 71, 0
2, 107760, Note_on_c, 0, 67, 0
2, 107760, Note_on_c, 0, 74, 0
2, 107760, Note_on_c, 0, 74, 39
2, 107760, Note_on_c, 0, 71, 54
2, 107760, Note_on_c, 0, 67, 46
2, 108000, Note_on_c, 0, 67, 0
2, 108000, Note_on_c, 0, 71, 0
2, 108000, Note_on_c, 0, 74, 0
2, 108000, Note_on_c, 0, 67, 49
2, 108000, Note_on_c, 0, 74, 44
2, 108000, Note_on_c, 0, 71, 55
2, 108240, Note_on_c, 0, 71, 0
2, 108240, Note_on_c, 0, 74, 0
2, 108240, Note_on_c, 0, 67, 0
2, 108240, Note_on_c, 0, 74, 41
2, 108240, Note_on_c, 0, 67, 51
2, 108240, Note_on_c, 0, 71, 54
2, 108420, Control_c, 0, 64, 0
2, 108480, Note_on_c, 0, 71, 0
2, 108480, Note_on_c, 0, 67, 0
2, 108480, Note_on_c, 0, 74, 0
2, 108480, Note_on_c, 0, 74, 46
2, 108480, Note_on_c, 0, 72, 45
2, 108480, Note_on_c, 0, 67, 49
2, 108525, Control_c, 0, 64, 127
2, 108720, Note_on_c, 0, 67, 0
2, 108720, Note_on_c, 0, 72, 0
2, 108720, Note_on_c, 0, 74, 0
2, 108720, Note_on_c, 0, 74, 43
2, 108720, Note_on_c, 0, 72, 43
2, 108720, Note_on_c, 0, 67, 51
2, 108960, Note_on_c, 0, 67, 0
2, 108960, Note_on_c, 0, 72, 0
2, 108960, Note_on_c, 0, 74, 0
2, 108960, Note_on_c, 0, 74, 44
2, 108960, Note_on_c, 0, 72, 46
2, 108960, Note_on_c, 0, 67, 50
2, 109200, Note_on_c, 0, 67, 0
2, 109200, Note_on_c, 0, 72, 0
2, 109200, Note_on_c, 0, 74, 0
2, 109200, Note_on_c, 0, 74, 51
2, 109200, Note_on_c, 0, 72, 51
2, 109200, Note_on_c, 0, 67, 51
2, 109440, Note_on_c, 0, 67, 0
2, 109440, Note_on_c, 0, 72, 0
2, 109440, Note_on_c, 0, 74, 0
2, 109440, Note_on_c, 0, 74, 49
2, 109440, Note_on_c, 0, 72, 49
2, 109440, Note_on_c, 0, 66, 49
2, 109680, Note_on_c, 0, 66, 0
2, 109680, Note_on_c, 0, 72, 0
2, 109680, Note_on_c, 0, 74, 0
2, 109680, Note_on_c, 0, 74, 47
2, 109680, Note_on_c, 0, 72, 52
2, 109680, Note_on_c, 0, 66, 53
2, 109875, Control_c, 0, 64, 0
2, 109920, Note_on_c, 0, 66, 0
2, 109920, Note_on_c, 0, 72, 0
2, 109920, Note_on_c, 0, 74, 0
2, 109920, Note_on_c, 0, 74, 55
2, 109920, Note_on_c, 0, 71, 63
2, 109920, Note_on_c, 0, 67, 60
2, 109965, Control_c, 0, 64, 127
2, 110160, Note_on_c, 0, 67, 0
2, 110160, Note_on_c, 0, 71, 0
2, 110160, Note_on_c, 0, 74, 0
2, 110160, Note_on_c, 0, 67, 51
2, 110160, Note_on_c, 0, 74, 48
2, 110160, Note_on_c, 0, 71, 51
2, 110400, Note_on_c, 0, 71, 0
2, 110400, Note_on_c, 0, 74, 0
2, 110400, Note_on_c, 0, 67, 0
2, 110400, Note_on_c, 0, 67, 49
2, 110400, Note_on_c, 0, 74, 44
2, 110400, Note_on_c, 0, 71, 53
2, 110640, Note_on_c, 0, 71, 0
2, 110640, Note_on_c, 0, 74, 0
2, 110640, Note_on_c, 0, 67, 0
2, 110640, Note_on_c, 0, 74, 44
2, 110640, Note_on_c, 0, 67, 49
2, 110640, Note_on_c, 0, 71, 52
2, 110880, Note_on_c, 0, 71, 0
2, 110880, Note_on_c, 0, 67, 0
2, 110880, Note_on_c, 0, 74, 0
2, 110880, Note_on_c, 0, 67, 52
2, 110880, Note_on_c, 0, 74, 45
2, 110880, Note_on_c, 0, 71, 53
2, 111120, Note_on_c, 0, 71, 0
2, 111120, Note_on_c, 0, 74, 0
2, 111120, Note_on_c, 0, 67, 0
2, 111120, Note_on_c, 0, 74, 42
2, 111120, Note_on_c, 0, 67, 50
2, 111120, Note_on_c, 0, 71, 53
2, 111360, Note_on_c, 0, 71, 0
2, 111360, Note_on_c, 0, 67, 0
2, 111360, Note_on_c, 0, 74, 0
2, 111360, Note_on_c, 0, 74, 35
2, 111360, Note_on_c, 0, 67, 45
2, 111360, Note_on_c, 0, 71, 47
2, 111600, Note_on_c, 0, 71, 0
2, 111600, Note_on_c, 0, 67, 0
2, 111600, Note_on_c, 0, 74, 0
2, 111600, Note_on_c, 0, 74, 41
2, 111600, Note_on_c, 0, 67, 43
2, 111600, Note_on_c, 0, 71, 52
2, 111795, Control_c, 0, 64, 0
2, 111840, Note_on_c, 0, 71, 0
2, 111840, Note_on_c, 0, 67, 0
2, 111840, Note_on_c, 0, 74, 0
2, 111840, Note_on_c, 0, 67, 44
2, 111840, Note_on_c, 0, 70, 41
2, 111840, Note_on_c, 0, 73, 49
2, 111885, Control_c, 0, 64, 127
2, 112080, Note_on_c, 0, 73, 0
2, 112080, Note_on_c, 0, 70, 0
2, 112080, Note_on_c, 0, 67, 0
2, 112080, Note_on_c, 0, 70, 41
2, 112080, Note_on_c, 0, 73, 45
2, 112080, Note_on_c, 0, 67, 51
2, 112320, Note_on_c, 0, 73, 0
2, 112320, Note_on_c, 0, 70, 0
2, 112320, Note_on_c, 0, 67, 52
2, 112320, Note_on_c, 0, 73, 39
2, 112320, Note_on_c, 0, 70, 40
2, 112440, Note_on_c, 0, 67, 0
2, 112560, Note_on_c, 0, 67, 0
2, 112560, Note_on_c, 0, 73, 0
2, 112560, Note_on_c, 0, 70, 0
2, 112560, Note_on_c, 0, 67, 50
2, 112560, Note_on_c, 0, 70, 44
2, 112560, Note_on_c, 0, 73, 41
2, 112770, Control_c, 0, 64, 0
2, 112800, Note_on_c, 0, 73, 0
2, 112800, Note_on_c, 0, 70, 0
2, 112800, Note_on_c, 0, 67, 0
2, 113280, Note_on_c, 0, 72, 49
2, 113280, Note_on_c, 0, 74, 44
2, 113280, Note_on_c, 0, 66, 46
2, 113325, Control_c, 0, 64, 127
2, 113520, Note_on_c, 0, 66, 0
2, 113520, Note_on_c, 0, 74, 0
2, 113520, Note_on_c, 0, 72, 0
2, 113520, Note_on_c, 0, 72, 45
2, 113520, Note_on_c, 0, 74, 41
2, 113520, Note_on_c, 0, 66, 39
2, 113760, Note_on_c, 0, 66, 0
2, 113760, Note_on_c, 0, 74, 0
2, 113760, Note_on_c, 0, 72, 0
2, 113760, Note_on_c, 0, 74, 42
2, 113760, Note_on_c, 0, 72, 51
2, 113760, Note_on_c, 0, 66, 42
2, 114000, Note_on_c, 0, 66, 0
2, 114000, Note_on_c, 0, 72, 0
2, 114000, Note_on_c, 0, 74, 0
2, 114000, Note_on_c, 0, 72, 50
2, 114000, Note_on_c, 0, 74, 45
2, 114000, Note_on_c, 0, 66, 42
2, 114120, Note_on_c, 0, 67, 62
2, 114180, Note_on_c, 0, 71, 70
2, 114210, Control_c, 0, 64, 0
2, 114240, Note_on_c, 0, 66, 0
2, 114240, Note_on_c, 0, 72, 0
2, 114240, Note_on_c, 0, 74, 0
2, 114360, Note_on_c, 0, 67, 0
2, 114420, Note_on_c, 0, 71, 0
2, 114480, Note_on_c, 0, 71, 51
2, 114480, Note_on_c, 0, 67, 51
2, 114600, Note_on_c, 0, 74, 65
2, 114660, Note_on_c, 0, 79, 75
2, 114720, Note_on_c, 0, 67, 0
2, 114720, Note_on_c, 0, 71, 0
2, 114840, Note_on_c, 0, 74, 0
2, 114900, Note_on_c, 0, 79, 0
2, 114960, Note_on_c, 0, 79, 51
2, 114960, Note_on_c, 0, 74, 51
2, 115200, Note_on_c, 0, 74, 0
2, 115200, Note_on_c, 0, 79, 0
2, 115200, Note_on_c, 0, 79, 49
2, 115200, Note_on_c, 0, 74, 55
2, 115440, Note_on_c, 0, 74, 0
2, 115440, Note_on_c, 0, 79, 0
2, 115440, Note_on_c, 0, 79, 52
2, 115440, Note_on_c, 0, 74, 52
2, 115680, Note_on_c, 0, 74, 0
2, 115680, Note_on_c, 0, 79, 0
2, 115680, Note_on_c, 0, 72, 60
2, 115680, Note_on_c, 0, 79, 52
2, 115920, Note_on_c, 0, 79, 0
2, 115920, Note_on_c, 0, 72, 0
2, 115920, Note_on_c, 0, 72, 51
2, 116160, Note_on_c, 0, 72, 0
2, 116160, Note_on_c, 0, 71, 55
2, 116160, Note_on_c, 0, 74, 52
2, 116400, Note_on_c, 0, 74, 0
2, 116400, Note_on_c, 0, 71, 0
2, 116400, Note_on_c, 0, 74, 51
2, 116400, Note_on_c, 0, 71, 51
2, 116640, Note_on_c, 0, 71, 0
2, 116640, Note_on_c, 0, 74, 0
2, 116640, Note_on_c, 0, 74, 51
2, 116640, Note_on_c, 0, 69, 56
2, 116880, Note_on_c, 0, 69, 0
2, 116880, Note_on_c, 0, 74, 0
2, 116880, Note_on_c, 0, 74, 51
2, 116880, Note_on_c, 0, 69, 51
2, 117120, Note_on_c, 0, 69, 0
2, 117120, Note_on_c, 0, 74, 0
2, 117120, Note_on_c, 0, 67, 65
2, 117360, Note_on_c, 0, 67, 0
2, 117360, Note_on_c, 0, 67, 52
2, 117600, Note_on_c, 0, 67, 0
2, 117600, Note_on_c, 0, 66, 58
2, 117840, Note_on_c, 0, 66, 0
2, 117840, Note_on_c, 0, 66, 51
2, 118080, Note_on_c, 0, 66, 0
2, 118080, Note_on_c, 0, 66, 54
2, 118320, Note_on_c, 0, 66, 0
2, 118320, Note_on_c, 0, 66, 50
2, 118560, Note_on_c, 0, 66, 0
2, 118560, Note_on_c, 0, 66, 54
2, 118800, Note_on_c, 0, 66, 0
2, 118800, Note_on_c, 0, 66, 49
2, 119040, Note_on_c, 0, 66, 0
2, 119040, Note_on_c, 0, 72, 55
2, 119040, Note_on_c, 0, 66, 55
2, 119280, Note_on_c, 0, 66, 0
2, 119280, Note_on_c, 0, 72, 0
2, 119280, Note_on_c, 0, 72, 47
2, 119280, Note_on_c, 0, 66, 47
2, 119520, Note_on_c, 0, 66, 0
2, 119520, Note_on_c, 0, 72, 0
2, 119520, Note_on_c, 0, 72, 52
2, 119520, Note_on_c, 0, 66, 52
2, 119760, Note_on_c, 0, 66, 0
2, 119760, Note_on_c, 0, 72, 0
2, 119760, Note_on_c, 0, 72, 50
2, 119760, Note_on_c, 0, 66, 50
2, 120000, Note_on_c, 0, 66, 0
2, 120000, Note_on_c, 0, 72, 0
2, 120000, Note_on_c, 0, 67, 59
2, 120000, Note_on_c, 0, 71, 60
2, 120480, Note_on_c, 0, 71, 0
2, 120480, Note_on_c, 0, 67, 0
2, 120480, Note_on_c, 0, 71, 55
2, 120480, Note_on_c, 0, 73, 56
2, 120480, Note_on_c, 0, 67, 61
2, 121320, Note_on_c, 0, 67, 0
2, 121320, Note_on_c, 0, 71, 0
2, 121320, Note_on_c, 0, 66, 62
2, 121380, Note_on_c, 0, 71, 69
2, 121440, Note_on_c, 0, 73, 0
2, 121800, Note_on_c, 0, 66, 0
2, 121860, Note_on_c, 0, 71, 0
2, 123120, Note_on_c, 0, 61, 53
2, 123360, Note_on_c, 0, 61, 0
2, 123360, Control_c, 0, 64, 127
2, 123360, Note_on_c, 0, 62, 52
2, 123600, Note_on_c, 0, 62, 0
2, 123600, Note_on_c, 0, 64, 44
2, 123840, Note_on_c, 0, 64, 0
2, 123840, Note_on_c, 0, 62, 50
2, 124080, Note_on_c, 0, 62, 0
2, 124080, Note_on_c, 0, 70, 42
2, 124320, Note_on_c, 0, 70, 0
2, 124320, Note_on_c, 0, 71, 48
2, 124560, Note_on_c, 0, 71, 0
2, 124560, Note_on_c, 0, 72, 39
2, 124800, Note_on_c, 0, 72, 0
2, 124800, Note_on_c, 0, 74, 46
2, 125040, Note_on_c, 0, 74, 0
2, 125040, Note_on_c, 0, 76, 38
2, 125280, Note_on_c, 0, 76, 0
2, 125280, Note_on_c, 0, 74, 44
2, 125520, Note_on_c, 0, 74, 0
2, 125520, Note_on_c, 0, 83, 37
2, 125760, Note_on_c, 0, 83, 0
2, 125760, Note_on_c, 0, 86, 43
2, 126000, Note_on_c, 0, 86, 0
2, 126000, Control_c, 0, 64, 0
2, 126000, End_track
3, 0, Start_track
3, 0, Title_t, "Piano"
3, 0, Program_c, 0, 0
3, 0, Control_c, 0, 7, 105
3, 0, Control_c, 0, 10, 73
3, 0, Control_c, 0, 91, 91
3, 0, Control_c, 0, 11, 110
3, 3840, Control_c, 0, 64, 0
3, 4680, Note_on_c, 0, 66, 55
3, 4680, Control_c, 0, 64, 127
3, 4740, Note_on_c, 0, 70, 59
3, 4740, Note_on_c, 0, 78, 59
3, 4800, Note_on_c, 0, 82, 64
3, 4920, Note_on_c, 0, 66, 0
3, 4980, Note_on_c, 0, 70, 0
3, 4980, Note_on_c, 0, 78, 0
3, 5040, Note_on_c, 0, 82, 0
3, 6030, Control_c, 0, 64, 0
3, 6105, Control_c, 0, 64, 127
3, 6120, Note_on_c, 0, 66, 52
3, 6180, Note_on_c, 0, 71, 55
3, 6180, Note_on_c, 0, 78, 55
3, 6240, Note_on_c, 0, 83, 59
3, 6360, Note_on_c, 0, 66, 0
3, 6420, Note_on_c, 0, 71, 0
3, 6420, Note_on_c, 0, 78, 0
3, 6480, Note_on_c, 0, 83, 0
3, 7665, Control_c, 0, 64, 0
3, 7680, Note_on_c, 0, 57, 83
3, 8160, Note_on_c, 0, 57, 0
3, 8160, Note_on_c, 0, 61, 92
3, 9120, Note_on_c, 0, 61, 0
3, 9120, Note_on_c, 0, 59, 87
3, 9360, Note_on_c, 0, 55, 82
3, 9435, Note_on_c, 0, 59, 0
3, 9600, Note_on_c, 0, 52, 79
3, 9675, Note_on_c, 0, 55, 0
3, 10560, Note_on_c, 0, 52, 0
3, 10560, Note_on_c, 0, 57, 78
3, 11040, Note_on_c, 0, 57, 0
3, 11040, Note_on_c, 0, 60, 86
3, 12000, Note_on_c, 0, 60, 0
3, 12000, Note_on_c, 0, 59, 83
3, 12240, Note_on_c, 0, 55, 77
3, 12315, Note_on_c, 0, 59, 0
3, 12480, Note_on_c, 0, 62, 84
3, 12555, Note_on_c, 0, 55, 0
3, 13440, Note_on_c, 0, 62, 0
3, 13440, Note_on_c, 0, 63, 95
3, 13920, Note_on_c, 0, 58, 87
3, 13995, Note_on_c, 0, 63, 0
3, 14640, Note_on_c, 0, 60, 83
3, 14715, Note_on_c, 0, 58, 0
3, 14880, Note_on_c, 0, 60, 0
3, 14880, Note_on_c, 0, 62, 88
3, 15360, Note_on_c, 0, 57, 81
3, 15435, Note_on_c, 0, 62, 0
3, 15840, Note_on_c, 0, 57, 0
3, 16320, Note_on_c, 0, 64, 87
3, 16800, Note_on_c, 0, 59, 80
3, 16875, Note_on_c, 0, 64, 0
3, 17520, Note_on_c, 0, 60, 77
3, 17595, Note_on_c, 0, 59, 0
3, 17760, Note_on_c, 0, 60, 0
3, 17760, Note_on_c, 0, 62, 85
3, 18240, Note_on_c, 0, 57, 76
3, 18360, Note_on_c, 0, 62, 0
3, 18720, Note_on_c, 0, 57, 0
3, 19200, Note_on_c, 0, 62, 82
3, 19680, Note_on_c, 0, 62, 0
3, 19680, Note_on_c, 0, 67, 87
3, 20640, Note_on_c, 0, 67, 0
3, 20640, Note_on_c, 0, 66, 86
3, 20880, Note_on_c, 0, 62, 83
3, 21000, Note_on_c, 0, 66, 0
3, 21120, Note_on_c, 0, 59, 88
3, 21240, Note_on_c, 0, 62, 0
3, 22080, Note_on_c, 0, 59, 0
3, 22080, Note_on_c, 0, 60, 87
3, 22560, Note_on_c, 0, 60, 0
3, 22560, Note_on_c, 0, 64, 93
3, 23520, Note_on_c, 0, 64, 0
3, 23520, Note_on_c, 0, 62, 90
3, 23760, Note_on_c, 0, 59, 79
3, 23880, Note_on_c, 0, 62, 0
3, 24000, Note_on_c, 0, 55, 85
3, 24120, Note_on_c, 0, 59, 0
3, 24960, Note_on_c, 0, 55, 0
3, 24960, Note_on_c, 0, 52, 86
3, 25440, Note_on_c, 0, 59, 91
3, 25560, Note_on_c, 0, 52, 0
3, 26400, Note_on_c, 0, 59, 0
3, 26400, Note_on_c, 0, 52, 85
3, 26445, Control_c, 0, 64, 127
3, 26880, Note_on_c, 0, 57, 90
3, 27000, Note_on_c, 0, 52, 0
3, 27772, Control_c, 0, 64, 0
3, 27840, Note_on_c, 0, 57, 0
3, 27840, Note_on_c, 0, 51, 91
3, 28320, Note_on_c, 0, 59, 80
3, 28440, Note_on_c, 0, 51, 0
3, 29280, Note_on_c, 0, 59, 0
3, 29280, Note_on_c, 0, 50, 91
3, 29392, Control_c, 0, 64, 127
3, 29760, Note_on_c, 0, 57, 80
3, 29880, Note_on_c, 0, 50, 0
3, 30697, Control_c, 0, 64, 0
3, 30720, Note_on_c, 0, 57, 0
3, 30720, Note_on_c, 0, 50, 90
3, 31200, Note_on_c, 0, 55, 82
3, 31320, Note_on_c, 0, 50, 0
3, 32160, Note_on_c, 0, 55, 0
3, 32160, Note_on_c, 0, 52, 83
3, 32400, Note_on_c, 0, 54, 87
3, 32520, Note_on_c, 0, 52, 0
3, 32640, Note_on_c, 0, 55, 91
3, 32760, Note_on_c, 0, 54, 0
3, 33120, Note_on_c, 0, 57, 92
3, 33240, Note_on_c, 0, 55, 0
3, 33600, Note_on_c, 0, 57, 0
3, 33600, Note_on_c, 0, 50, 93
3, 34080, Note_on_c, 0, 59, 86
3, 34200, Note_on_c, 0, 50, 0
3, 35040, Note_on_c, 0, 59, 0
3, 35040, Note_on_c, 0, 55, 84
3, 35280, Note_on_c, 0, 57, 85
3, 35400, Note_on_c, 0, 55, 0
3, 35520, Note_on_c, 0, 59, 93
3, 35640, Note_on_c, 0, 57, 0
3, 36000, Note_on_c, 0, 60, 95
3, 36120, Note_on_c, 0, 59, 0
3, 36480, Note_on_c, 0, 60, 0
3, 36480, Note_on_c, 0, 50, 95
3, 36960, Note_on_c, 0, 62, 98
3, 37080, Note_on_c, 0, 50, 0
3, 37920, Note_on_c, 0, 62, 0
3, 37920, Note_on_c, 0, 59, 93
3, 38160, Note_on_c, 0, 62, 97
3, 38280, Note_on_c, 0, 59, 0
3, 38400, Note_on_c, 0, 66, 100
3, 38520, Note_on_c, 0, 62, 0
3, 38880, Note_on_c, 0, 64, 83
3, 39000, Note_on_c, 0, 66, 0
3, 39360, Note_on_c, 0, 64, 0
3, 39360, Note_on_c, 0, 52, 73
3, 39600, Note_on_c, 0, 55, 70
3, 39720, Note_on_c, 0, 52, 0
3, 39720, Note_on_c, 0, 50, 73
3, 39840, Note_on_c, 0, 59, 78
3, 39960, Note_on_c, 0, 55, 0
3, 40320, Note_on_c, 0, 50, 0
3, 40320, Note_on_c, 0, 57, 74
3, 40440, Note_on_c, 0, 59, 0
3, 40800, Note_on_c, 0, 57, 0
3, 41280, Note_on_c, 0, 55, 66
3, 41280, Note_on_c, 0, 59, 66
3, 41280, Note_on_c, 0, 62, 66
3, 41280, Note_on_c, 0, 50, 66
3, 42240, Note_on_c, 0, 50, 0
3, 42240, Note_on_c, 0, 55, 0
3, 42240, Note_on_c, 0, 59, 0
3, 42240, Note_on_c, 0, 62, 0
3, 42720, Note_on_c, 0, 62, 63
3, 42720, Note_on_c, 0, 50, 63
3, 43680, Note_on_c, 0, 50, 0
3, 43680, Note_on_c, 0, 62, 0
3, 44160, Note_on_c, 0, 66, 69
3, 44400, Note_on_c, 0, 66, 0
3, 44400, Note_on_c, 0, 67, 75
3, 44640, Note_on_c, 0, 67, 0
3, 45000, Note_on_c, 0, 50, 76
3, 45120, Note_on_c, 0, 62, 76
3, 45480, Note_on_c, 0, 50, 0
3, 45600, Note_on_c, 0, 62, 0
3, 45600, Note_on_c, 0, 62, 62
3, 45600, Note_on_c, 0, 70, 54
3, 45600, Note_on_c, 0, 65, 60
3, 45840, Note_on_c, 0, 65, 0
3, 45840, Note_on_c, 0, 70, 0
3, 45840, Note_on_c, 0, 62, 0
3, 45840, Note_on_c, 0, 71, 69
3, 45960, Note_on_c, 0, 64, 64
3, 46020, Note_on_c, 0, 67, 71
3, 46080, Note_on_c, 0, 71, 0
3, 46080, Note_on_c, 0, 76, 79
3, 46440, Note_on_c, 0, 64, 0
3, 46500, Note_on_c, 0, 67, 0
3, 46560, Note_on_c, 0, 76, 0
3, 46560, Note_on_c, 0, 66, 91
3, 47040, Note_on_c, 0, 66, 0
3, 47040, Note_on_c, 0, 69, 97
3, 48000, Note_on_c, 0, 69, 0
3, 48000, Note_on_c, 0, 67, 93
3, 48240, Note_on_c, 0, 67, 0
3, 48240, Note_on_c, 0, 66, 86
3, 48480, Note_on_c, 0, 66, 0
3, 48480, Note_on_c, 0, 64, 85
3, 48960, Note_on_c, 0, 64, 0
3, 48960, Note_on_c, 0, 63, 76
3, 49440, Note_on_c, 0, 63, 0
3, 49440, Note_on_c, 0, 62, 67
3, 49920, Note_on_c, 0, 62, 0
3, 49920, Note_on_c, 0, 65, 76
3, 50880, Note_on_c, 0, 65, 0
3, 50880, Note_on_c, 0, 64, 78
3, 51120, Note_on_c, 0, 64, 0
3, 51120, Note_on_c, 0, 62, 74
3, 51360, Note_on_c, 0, 62, 0
3, 51360, Note_on_c, 0, 60, 71
3, 51840, Note_on_c, 0, 60, 0
3, 51840, Note_on_c, 0, 59, 73
3, 52320, Note_on_c, 0, 59, 0
3, 52320, Note_on_c, 0, 76, 87
3, 53040, Note_on_c, 0, 76, 0
3, 53040, Note_on_c, 0, 72, 79
3, 53280, Note_on_c, 0, 72, 0
3, 53280, Note_on_c, 0, 71, 80
3, 53520, Note_on_c, 0, 71, 0
3, 53520, Note_on_c, 0, 69, 75
3, 53760, Note_on_c, 0, 69, 0
3, 53760, Note_on_c, 0, 68, 83
3, 54000, Note_on_c, 0, 68, 0
3, 54000, Note_on_c, 0, 69, 72
3, 54240, Note_on_c, 0, 69, 0
3, 54240, Note_on_c, 0, 70, 80
3, 54480, Note_on_c, 0, 70, 0
3, 54480, Note_on_c, 0, 71, 73
3, 54720, Note_on_c, 0, 71, 0
3, 54720, Note_on_c, 0, 72, 82
3, 54960, Note_on_c, 0, 72, 0
3, 54960, Note_on_c, 0, 71, 76
3, 55200, Note_on_c, 0, 71, 0
3, 55200, Note_on_c, 0, 76, 89
3, 55920, Note_on_c, 0, 76, 0
3, 55920, Note_on_c, 0, 72, 73
3, 56160, Note_on_c, 0, 72, 0
3, 56160, Note_on_c, 0, 71, 76
3, 56400, Note_on_c, 0, 71, 0
3, 56400, Note_on_c, 0, 69, 69
3, 56640, Note_on_c, 0, 69, 0
3, 56640, Note_on_c, 0, 75, 86
3, 57360, Note_on_c, 0, 75, 0
3, 57360, Note_on_c, 0, 72, 73
3, 57600, Note_on_c, 0, 72, 0
3, 57600, Note_on_c, 0, 71, 78
3, 57840, Note_on_c, 0, 71, 0
3, 57840, Note_on_c, 0, 69, 67
3, 58080, Note_on_c, 0, 69, 0
3, 58080, Note_on_c, 0, 74, 87
3, 60960, Note_on_c, 0, 74, 0
3, 60960, Note_on_c, 0, 76, 92
3, 63840, Note_on_c, 0, 76, 0
3, 63840, Note_on_c, 0, 76, 96
3, 64560, Note_on_c, 0, 76, 0
3, 64560, Note_on_c, 0, 75, 86
3, 64800, Note_on_c, 0, 75, 0
3, 64800, Note_on_c, 0, 74, 76
3, 65040, Note_on_c, 0, 74, 0
3, 65040, Note_on_c, 0, 73, 82
3, 65280, Note_on_c, 0, 73, 0
3, 65280, Note_on_c, 0, 79, 92
3, 66000, Note_on_c, 0, 79, 0
3, 66000, Note_on_c, 0, 78, 71
3, 66240, Note_on_c, 0, 78, 0
3, 66240, Note_on_c, 0, 77, 76
3, 66480, Note_on_c, 0, 77, 0
3, 66480, Note_on_c, 0, 76, 71
3, 66720, Note_on_c, 0, 76, 0
3, 66720, Note_on_c, 0, 67, 76
3, 66720, Note_on_c, 0, 55, 76
3, 67680, Note_on_c, 0, 55, 0
3, 67680, Note_on_c, 0, 67, 0
3, 67680, Note_on_c, 0, 70, 67
3, 67680, Note_on_c, 0, 58, 67
3, 68640, Note_on_c, 0, 58, 0
3, 68640, Note_on_c, 0, 70, 0
3, 68640, Note_on_c, 0, 73, 66
3, 68640, Note_on_c, 0, 61, 68
3, 69600, Note_on_c, 0, 61, 0
3, 69600, Note_on_c, 0, 73, 0
3, 69600, Note_on_c, 0, 91, 69
3, 70320, Note_on_c, 0, 91, 0
3, 70320, Note_on_c, 0, 90, 63
3, 70560, Note_on_c, 0, 90, 0
3, 70560, Note_on_c, 0, 89, 73
3, 70800, Note_on_c, 0, 89, 0
3, 70800, Note_on_c, 0, 88, 68
3, 71040, Note_on_c, 0, 88, 0
3, 71040, Note_on_c, 0, 87, 72
3, 71280, Note_on_c, 0, 87, 0
3, 71280, Note_on_c, 0, 86, 65
3, 71520, Note_on_c, 0, 86, 0
3, 71520, Note_on_c, 0, 85, 72
3, 71760, Note_on_c, 0, 85, 0
3, 71760, Note_on_c, 0, 84, 64
3, 72000, Note_on_c, 0, 84, 0
3, 72000, Note_on_c, 0, 83, 71
3, 72240, Note_on_c, 0, 83, 0
3, 72240, Note_on_c, 0, 82, 64
3, 72480, Note_on_c, 0, 82, 0
3, 72480, Note_on_c, 0, 67, 88
3, 73200, Note_on_c, 0, 67, 0
3, 73200, Note_on_c, 0, 66, 78
3, 73440, Note_on_c, 0, 66, 0
3, 73440, Note_on_c, 0, 65, 83
3, 73680, Note_on_c, 0, 65, 0
3, 73680, Note_on_c, 0, 64, 78
3, 73920, Note_on_c, 0, 64, 0
3, 73920, Note_on_c, 0, 63, 81
3, 74160, Note_on_c, 0, 63, 0
3, 74160, Note_on_c, 0, 62, 77
3, 74400, Note_on_c, 0, 62, 0
3, 74400, Note_on_c, 0, 61, 81
3, 74640, Note_on_c, 0, 61, 0
3, 74640, Note_on_c, 0, 64, 76
3, 74880, Note_on_c, 0, 64, 0
3, 74880, Note_on_c, 0, 67, 80
3, 75240, Note_on_c, 0, 67, 0
3, 75240, Note_on_c, 0, 71, 77
3, 75360, Note_on_c, 0, 71, 0
3, 75360, Note_on_c, 0, 71, 80
3, 75840, Note_on_c, 0, 71, 0
3, 75840, Note_on_c, 0, 74, 84
3, 76560, Note_on_c, 0, 74, 0
3, 76560, Note_on_c, 0, 71, 75
3, 76800, Note_on_c, 0, 71, 0
3, 76800, Note_on_c, 0, 70, 73
3, 77280, Note_on_c, 0, 70, 0
3, 77280, Note_on_c, 0, 76, 90
3, 78240, Note_on_c, 0, 76, 0
3, 78240, Note_on_c, 0, 69, 79
3, 78720, Note_on_c, 0, 69, 0
3, 78720, Note_on_c, 0, 77, 93
3, 81120, Note_on_c, 0, 77, 0
3, 81120, Note_on_c, 0, 78, 73
3, 82560, Note_on_c, 0, 78, 0
3, 82560, Note_on_c, 0, 76, 70
3, 84000, Note_on_c, 0, 76, 0
3, 84000, Note_on_c, 0, 78, 69
3, 85440, Note_on_c, 0, 78, 0
3, 85440, Note_on_c, 0, 79, 73
3, 86880, Note_on_c, 0, 79, 0
3, 86880, Note_on_c, 0, 79, 72
3, 88320, Note_on_c, 0, 79, 0
3, 88320, Note_on_c, 0, 78, 69
3, 89760, Note_on_c, 0, 78, 0
3, 89760, Note_on_c, 0, 79, 72
3, 91200, Note_on_c, 0, 79, 0
3, 91200, Note_on_c, 0, 78, 77
3, 92640, Note_on_c, 0, 78, 0
3, 92640, Note_on_c, 0, 62, 82
3, 93120, Note_on_c, 0, 62, 0
3, 93120, Note_on_c, 0, 67, 87
3, 94080, Note_on_c, 0, 67, 0
3, 94080, Note_on_c, 0, 66, 86
3, 94320, Note_on_c, 0, 62, 83
3, 94440, Note_on_c, 0, 66, 0
3, 94560, Note_on_c, 0, 59, 88
3, 94680, Note_on_c, 0, 62, 0
3, 95520, Note_on_c, 0, 59, 0
3, 95520, Note_on_c, 0, 60, 87
3, 96000, Note_on_c, 0, 60, 0
3, 96000, Note_on_c, 0, 64, 93
3, 96960, Note_on_c, 0, 64, 0
3, 96960, Note_on_c, 0, 62, 90
3, 97200, Note_on_c, 0, 59, 79
3, 97320, Note_on_c, 0, 62, 0
3, 97440, Note_on_c, 0, 55, 85
3, 97560, Note_on_c, 0, 59, 0
3, 98400, Note_on_c, 0, 55, 0
3, 98400, Note_on_c, 0, 52, 86
3, 98880, Note_on_c, 0, 59, 91
3, 99000, Note_on_c, 0, 52, 0
3, 99840, Note_on_c, 0, 59, 0
3, 99840, Note_on_c, 0, 52, 85
3, 100320, Note_on_c, 0, 57, 90
3, 100440, Note_on_c, 0, 52, 0
3, 101280, Note_on_c, 0, 57, 0
3, 101280, Note_on_c, 0, 51, 91
3, 101760, Note_on_c, 0, 59, 80
3, 101880, Note_on_c, 0, 51, 0
3, 102720, Note_on_c, 0, 59, 0
3, 102720, Note_on_c, 0, 50, 91
3, 103200, Note_on_c, 0, 57, 80
3, 103320, Note_on_c, 0, 50, 0
3, 104160, Note_on_c, 0, 57, 0
3, 104160, Note_on_c, 0, 50, 90
3, 104640, Note_on_c, 0, 55, 82
3, 104760, Note_on_c, 0, 50, 0
3, 105600, Note_on_c, 0, 55, 0
3, 105600, Note_on_c, 0, 52, 83
3, 105840, Note_on_c, 0, 54, 87
3, 105960, Note_on_c, 0, 52, 0
3, 106080, Note_on_c, 0, 55, 91
3, 106200, Note_on_c, 0, 54, 0
3, 106560, Note_on_c, 0, 57, 92
3, 106680, Note_on_c, 0, 55, 0
3, 107040, Note_on_c, 0, 57, 0
3, 107040, Note_on_c, 0, 50, 93
3, 107520, Note_on_c, 0, 59, 86
3, 107640, Note_on_c, 0, 50, 0
3, 108480, Note_on_c, 0, 59, 0
3, 108480, Note_on_c, 0, 55, 84
3, 108720, Note_on_c, 0, 57, 85
3, 108840, Note_on_c, 0, 55, 0
3, 108960, Note_on_c, 0, 59, 93
3, 109080, Note_on_c, 0, 57, 0
3, 109440, Note_on_c, 0, 60, 95
3, 109560, Note_on_c, 0, 59, 0
3, 109920, Note_on_c, 0, 60, 0
3, 109920, Note_on_c, 0, 50, 95
3, 110400, Note_on_c, 0, 62, 98
3, 110520, Note_on_c, 0, 50, 0
3, 111360, Note_on_c, 0, 62, 0
3, 111360, Note_on_c, 0, 59, 93
3, 111600, Note_on_c, 0, 62, 97
3, 111720, Note_on_c, 0, 59, 0
3, 111840, Note_on_c, 0, 66, 100
3, 111960, Note_on_c, 0, 62, 0
3, 112320, Note_on_c, 0, 64, 83
3, 112440, Note_on_c, 0, 66, 0
3, 112800, Note_on_c, 0, 64, 0
3, 112800, Note_on_c, 0, 52, 73
3, 113040, Note_on_c, 0, 55, 70
3, 113160, Note_on_c, 0, 52, 0
3, 113160, Note_on_c, 0, 50, 73
3, 113280, Note_on_c, 0, 59, 78
3, 113400, Note_on_c, 0, 55, 0
3, 113760, Note_on_c, 0, 50, 0
3, 113760, Note_on_c, 0, 57, 74
3, 113880, Note_on_c, 0, 59, 0
3, 114240, Note_on_c, 0, 57, 0
3, 114240, Note_on_c, 0, 79, 80
3, 114720, Note_on_c, 0, 79, 0
3, 114720, Note_on_c, 0, 86, 87
3, 115680, Note_on_c, 0, 86, 0
3, 115680, Note_on_c, 0, 84, 84
3, 115920, Note_on_c, 0, 84, 0
3, 115920, Note_on_c, 0, 79, 72
3, 116160, Note_on_c, 0, 79, 0
3, 116160, Note_on_c, 0, 83, 78
3, 116640, Note_on_c, 0, 83, 0
3, 116640, Note_on_c, 0, 81, 70
3, 117120, Note_on_c, 0, 81, 0
3, 117120, Note_on_c, 0, 74, 79
3, 117600, Note_on_c, 0, 74, 0
3, 117600, Note_on_c, 0, 78, 89
3, 118320, Note_on_c, 0, 78, 0
3, 118320, Note_on_c, 0, 76, 73
3, 118560, Note_on_c, 0, 76, 0
3, 118560, Note_on_c, 0, 75, 80
3, 119040, Note_on_c, 0, 75, 0
3, 119040, Note_on_c, 0, 78, 89
3, 119760, Note_on_c, 0, 78, 0
3, 119760, Note_on_c, 0, 76, 79
3, 120000, Note_on_c, 0, 76, 0
3, 120000, Note_on_c, 0, 74, 84
3, 120480, Note_on_c, 0, 74, 0
3, 120480, Note_on_c, 0, 79, 86
3, 121440, Note_on_c, 0, 79, 0
3, 121440, Note_on_c, 0, 78, 70
3, 121680, Note_on_c, 0, 78, 0
3, 121680, Note_on_c, 0, 74, 73
3, 121920, Note_on_c, 0, 74, 0
3, 121920, Note_on_c, 0, 67, 66
3, 121920, Note_on_c, 0, 64, 66
3, 121920, Note_on_c, 0, 71, 66
3, 122400, Note_on_c, 0, 71, 0
3, 122400, Note_on_c, 0, 64, 0
3, 122400, Note_on_c, 0, 67, 0
3, 122400, Note_on_c, 0, 60, 62
3, 122400, Note_on_c, 0, 66, 62
3, 122400, Note_on_c, 0, 69, 62
3, 122880, Note_on_c, 0, 69, 0
3, 122880, Note_on_c, 0, 66, 0
3, 122880, Note_on_c, 0, 60, 0
3, 122880, Note_on_c, 0, 59, 62
3, 122880, Note_on_c, 0, 67, 62
3, 122940, Control_c, 0, 64, 127
3, 123120, Note_on_c, 0, 67, 0
3, 123120, Note_on_c, 0, 59, 0
3, 123120, Note_on_c, 0, 65, 53
3, 123120, Note_on_c, 0, 68, 53
3, 123360, Note_on_c, 0, 68, 0
3, 123360, Note_on_c, 0, 65, 0
3, 123360, Note_on_c, 0, 71, 60
3, 123360, Note_on_c, 0, 67, 60
3, 123600, Note_on_c, 0, 67, 0
3, 123600, Note_on_c, 0, 71, 0
3, 123600, Note_on_c, 0, 69, 53
3, 123600, Note_on_c, 0, 73, 53
3, 123840, Note_on_c, 0, 73, 0
3, 123840, Note_on_c, 0, 69, 0
3, 123840, Note_on_c, 0, 74, 57
3, 123840, Note_on_c, 0, 71, 57
3, 124080, Note_on_c, 0, 71, 0
3, 124080, Note_on_c, 0, 74, 0
3, 124080, Note_on_c, 0, 78, 52
3, 124080, Note_on_c, 0, 72, 52
3, 124320, Note_on_c, 0, 72, 0
3, 124320, Note_on_c, 0, 78, 0
3, 124320, Note_on_c, 0, 79, 55
3, 124320, Note_on_c, 0, 74, 55
3, 124560, Note_on_c, 0, 74, 0
3, 124560, Note_on_c, 0, 79, 0
3, 124560, Note_on_c, 0, 82, 50
3, 124560, Note_on_c, 0, 78, 50
3, 124800, Note_on_c, 0, 78, 0
3, 124800, Note_on_c, 0, 82, 0
3, 124800, Note_on_c, 0, 83, 52
3, 124800, Note_on_c, 0, 79, 52
3, 125040, Note_on_c, 0, 79, 0
3, 125040, Note_on_c, 0, 83, 0
3, 125040, Note_on_c, 0, 85, 48
3, 125040, Note_on_c, 0, 82, 48
3, 125280, Note_on_c, 0, 82, 0
3, 125280, Note_on_c, 0, 85, 0
3, 125280, Note_on_c, 0, 86, 50
3, 125280, Note_on_c, 0, 83, 50
3, 125520, Note_on_c, 0, 83, 0
3, 125520, Note_on_c, 0, 86, 0
3, 125520, Note_on_c, 0, 86, 46
3, 125520, Note_on_c, 0, 91, 46
3, 125760, Note_on_c, 0, 91, 0
3, 125760, Note_on_c, 0, 86, 0
3, 125760, Note_on_c, 0, 95, 47
3, 125760, Note_on_c, 0, 91, 47
3, 126000, Note_on_c, 0, 91, 0
3, 126000, Note_on_c, 0, 95, 0
3, 126000, Control_c, 0, 64, 0
3, 127200, Note_on_c, 0, 55, 45
3, 127260, Control_c, 0, 64, 127
3, 127440, Note_on_c, 0, 55, 0
3, 127680, Control_c, 0, 64, 0
3, 127680, End_track
4, 0, Start_track
4, 0, Title_t, "Piano"
4, 0, Program_c, 0, 0
4, 0, Control_c, 0, 7, 105
4, 0, Control_c, 0, 10, 54
4, 0, Control_c, 0, 91, 91
4, 0, Control_c, 0, 11, 110
4, 8640, Note_on_c, 0, 43, 55
4, 8640, Note_on_c, 0, 31, 55
4, 8692, Control_c, 0, 64, 127
4, 9360, Note_on_c, 0, 31, 0
4, 9360, Note_on_c, 0, 43, 0
4, 10155, Control_c, 0, 64, 0
4, 11520, Note_on_c, 0, 31, 57
4, 11520, Note_on_c, 0, 43, 57
4, 11572, Control_c, 0, 64, 127
4, 12240, Note_on_c, 0, 43, 0
4, 12240, Note_on_c, 0, 31, 0
4, 12832, Control_c, 0, 64, 0
4, 15802, Control_c, 0, 64, 127
4, 15840, Note_on_c, 0, 31, 58
4, 15840, Note_on_c, 0, 43, 56
4, 16560, Note_on_c, 0, 43, 0
4, 16560, Note_on_c, 0, 31, 0
4, 17265, Control_c, 0, 64, 0
4, 18705, Control_c, 0, 64, 127
4, 18720, Note_on_c, 0, 31, 61
4, 18720, Note_on_c, 0, 43, 54
4, 19440, Note_on_c, 0, 43, 0
4, 19440, Note_on_c, 0, 31, 0
4, 19965, Control_c, 0, 64, 0
4, 20145, Control_c, 0, 64, 127
4, 20160, Note_on_c, 0, 43, 60
4, 20160, Note_on_c, 0, 31, 60
4, 21990, Control_c, 0, 64, 0
4, 22080, Note_on_c, 0, 31, 0
4, 22080, Note_on_c, 0, 43, 0
4, 23025, Control_c, 0, 64, 127
4, 23040, Note_on_c, 0, 43, 61
4, 23040, Note_on_c, 0, 31, 61
4, 23760, Note_on_c, 0, 31, 0
4, 23760, Note_on_c, 0, 43, 0
4, 24195, Control_c, 0, 64, 0
4, 24667, Control_c, 0, 64, 127
4, 24720, Note_on_c, 0, 36, 70
4, 24840, Note_on_c, 0, 48, 74
4, 26640, Note_on_c, 0, 36, 0
4, 26760, Note_on_c, 0, 48, 0
4, 26985, Control_c, 0, 64, 0
4, 27547, Control_c, 0, 64, 127
4, 27600, Note_on_c, 0, 36, 65
4, 27720, Note_on_c, 0, 48, 71
4, 29032, Control_c, 0, 64, 0
4, 29040, Note_on_c, 0, 36, 0
4, 29160, Note_on_c, 0, 48, 0
4, 29160, Note_on_c, 0, 38, 67
4, 29212, Control_c, 0, 64, 127
4, 30120, Note_on_c, 0, 38, 0
4, 30202, Control_c, 0, 64, 0
4, 30427, Control_c, 0, 64, 127
4, 30480, Note_on_c, 0, 31, 65
4, 30600, Note_on_c, 0, 43, 73
4, 32400, Note_on_c, 0, 31, 0
4, 32520, Note_on_c, 0, 43, 0
4, 32722, Control_c, 0, 64, 0
4, 33330, Control_c, 0, 64, 127
4, 33360, Note_on_c, 0, 31, 66
4, 33480, Note_on_c, 0, 43, 73
4, 35280, Note_on_c, 0, 31, 0
4, 35400, Note_on_c, 0, 43, 0
4, 35647, Control_c, 0, 64, 0
4, 36210, Control_c, 0, 64, 127
4, 36240, Note_on_c, 0, 31, 65
4, 36360, Note_on_c, 0, 43, 71
4, 38160, Note_on_c, 0, 31, 0
4, 38280, Note_on_c, 0, 43, 0
4, 38325, Control_c, 0, 64, 0
4, 40080, Note_on_c, 0, 38, 57
4, 40560, Note_on_c, 0, 38, 0
4, 40800, Note_on_c, 0, 43, 60
4, 40800, Note_on_c, 0, 31, 60
4, 40860, Control_c, 0, 64, 127
4, 42180, Control_c, 0, 64, 0
4, 42240, Note_on_c, 0, 31, 0
4, 42240, Note_on_c, 0, 43, 0
4, 42240, Note_on_c, 0, 32, 64
4, 42240, Note_on_c, 0, 44, 58
4, 42300, Control_c, 0, 64, 127
4, 43200, Note_on_c, 0, 44, 0
4, 43200, Note_on_c, 0, 32, 0
4, 43200, Note_on_c, 0, 45, 61
4, 43200, Note_on_c, 0, 33, 66
4, 43680, Note_on_c, 0, 33, 0
4, 43680, Note_on_c, 0, 45, 0
4, 43680, Note_on_c, 0, 47, 61
4, 43680, Note_on_c, 0, 35, 60
4, 44160, Note_on_c, 0, 59, 63
4, 44160, Note_on_c, 0, 62, 63
4, 44640, Note_on_c, 0, 62, 0
4, 44640, Note_on_c, 0, 47, 0
4, 44640, Note_on_c, 0, 35, 0
4, 44640, Note_on_c, 0, 59, 0
4, 44640, Note_on_c, 0, 48, 59
4, 44640, Note_on_c, 0, 36, 63
4, 45060, Control_c, 0, 64, 0
4, 45120, Note_on_c, 0, 36, 0
4, 45120, Note_on_c, 0, 48, 0
4, 47520, Note_on_c, 0, 47, 52
4, 47520, Note_on_c, 0, 35, 61
4, 47580, Control_c, 0, 64, 127
4, 48480, Note_on_c, 0, 35, 0
4, 48480, Note_on_c, 0, 47, 0
4, 48660, Control_c, 0, 64, 0
4, 50400, Control_c, 0, 64, 127
4, 50400, Note_on_c, 0, 40, 55
4, 50400, Note_on_c, 0, 28, 58
4, 51360, Note_on_c, 0, 28, 0
4, 51360, Note_on_c, 0, 40, 0
4, 51360, Control_c, 0, 64, 0
4, 52320, Note_on_c, 0, 57, 60
4, 52320, Note_on_c, 0, 60, 51
4, 52320, Note_on_c, 0, 52, 53
4, 52380, Control_c, 0, 64, 127
4, 53040, Note_on_c, 0, 52, 0
4, 53040, Note_on_c, 0, 60, 0
4, 53040, Note_on_c, 0, 57, 0
4, 53040, Note_on_c, 0, 57, 59
4, 53280, Note_on_c, 0, 57, 0
4, 53280, Note_on_c, 0, 59, 67
4, 53520, Note_on_c, 0, 59, 0
4, 53520, Note_on_c, 0, 60, 66
4, 53700, Control_c, 0, 64, 0
4, 53760, Note_on_c, 0, 60, 0
4, 53760, Note_on_c, 0, 58, 60
4, 53760, Note_on_c, 0, 62, 56
4, 54000, Note_on_c, 0, 62, 0
4, 54000, Note_on_c, 0, 58, 0
4, 54000, Note_on_c, 0, 62, 56
4, 54000, Note_on_c, 0, 58, 56
4, 54240, Note_on_c, 0, 58, 0
4, 54240, Note_on_c, 0, 62, 0
4, 54240, Note_on_c, 0, 57, 59
4, 54240, Note_on_c, 0, 62, 56
4, 54480, Note_on_c, 0, 62, 0
4, 54480, Note_on_c, 0, 57, 0
4, 54480, Note_on_c, 0, 62, 57
4, 54480, Note_on_c, 0, 57, 61
4, 54720, Note_on_c, 0, 57, 0
4, 54720, Note_on_c, 0, 62, 0
4, 54720, Note_on_c, 0, 62, 64
4, 54720, Note_on_c, 0, 56, 64
4, 54960, Note_on_c, 0, 56, 0
4, 54960, Note_on_c, 0, 62, 0
4, 54960, Note_on_c, 0, 62, 57
4, 54960, Note_on_c, 0, 56, 57
4, 55200, Note_on_c, 0, 56, 0
4, 55200, Note_on_c, 0, 62, 0
4, 55260, Control_c, 0, 64, 127
4, 55440, Note_on_c, 0, 57, 56
4, 55440, Note_on_c, 0, 60, 48
4, 55440, Note_on_c, 0, 52, 57
4, 55680, Note_on_c, 0, 52, 0
4, 55680, Note_on_c, 0, 60, 0
4, 55680, Note_on_c, 0, 57, 0
4, 55680, Note_on_c, 0, 60, 44
4, 55680, Note_on_c, 0, 57, 49
4, 55680, Note_on_c, 0, 52, 56
4, 55920, Note_on_c, 0, 52, 0
4, 55920, Note_on_c, 0, 57, 0
4, 55920, Note_on_c, 0, 60, 0
4, 55920, Note_on_c, 0, 60, 43
4, 55920, Note_on_c, 0, 57, 53
4, 55920, Note_on_c, 0, 52, 58
4, 56160, Note_on_c, 0, 52, 0
4, 56160, Note_on_c, 0, 57, 0
4, 56160, Note_on_c, 0, 60, 0
4, 56160, Note_on_c, 0, 60, 38
4, 56160, Note_on_c, 0, 57, 49
4, 56160, Note_on_c, 0, 52, 53
4, 56400, Note_on_c, 0, 52, 0
4, 56400, Note_on_c, 0, 57, 0
4, 56400, Note_on_c, 0, 60, 0
4, 56400, Control_c, 0, 64, 0
4, 56400, Note_on_c, 0, 57, 54
4, 56400, Note_on_c, 0, 60, 43
4, 56400, Note_on_c, 0, 52, 53
4, 56460, Control_c, 0, 64, 127
4, 56520, Note_on_c, 0, 57, 0
4, 56520, Note_on_c, 0, 55, 61
4, 56580, Note_on_c, 0, 57, 65
4, 56640, Note_on_c, 0, 52, 0
4, 56640, Note_on_c, 0, 60, 0
4, 56640, Note_on_c, 0, 60, 70
4, 56760, Note_on_c, 0, 55, 0
4, 56820, Note_on_c, 0, 57, 0
4, 56880, Note_on_c, 0, 60, 0
4, 56880, Note_on_c, 0, 57, 54
4, 56880, Note_on_c, 0, 60, 47
4, 56880, Note_on_c, 0, 55, 54
4, 57120, Note_on_c, 0, 55, 0
4, 57120, Note_on_c, 0, 60, 0
4, 57120, Note_on_c, 0, 57, 0
4, 57120, Note_on_c, 0, 57, 55
4, 57120, Note_on_c, 0, 55, 57
4, 57120, Note_on_c, 0, 60, 51
4, 57360, Note_on_c, 0, 60, 0
4, 57360, Note_on_c, 0, 55, 0
4, 57360, Note_on_c, 0, 57, 0
4, 57360, Note_on_c, 0, 57, 57
4, 57360, Note_on_c, 0, 55, 58
4, 57360, Note_on_c, 0, 60, 49
4, 57600, Note_on_c, 0, 60, 0
4, 57600, Note_on_c, 0, 55, 0
4, 57600, Note_on_c, 0, 57, 0
4, 57600, Note_on_c, 0, 57, 55
4, 57600, Note_on_c, 0, 55, 55
4, 57600, Note_on_c, 0, 60, 46
4, 57840, Note_on_c, 0, 60, 0
4, 57840, Note_on_c, 0, 55, 0
4, 57840, Note_on_c, 0, 57, 0
4, 57840, Note_on_c, 0, 57, 57
4, 57840, Note_on_c, 0, 60, 46
4, 57840, Note_on_c, 0, 55, 60
4, 58020, Control_c, 0, 64, 0
4, 58080, Note_on_c, 0, 55, 0
4, 58080, Note_on_c, 0, 60, 0
4, 58080, Note_on_c, 0, 57, 0
4, 58560, Note_on_c, 0, 50, 79
4, 59520, Note_on_c, 0, 50, 0
4, 61440, Note_on_c, 0, 52, 82
4, 61920, Note_on_c, 0, 52, 0
4, 63840, Note_on_c, 0, 58, 67
4, 65160, Note_on_c, 0, 52, 77
4, 65280, Note_on_c, 0, 58, 0
4, 65280, Note_on_c, 0, 64, 71
4, 66600, Note_on_c, 0, 52, 0
4, 66720, Note_on_c, 0, 64, 0
4, 69600, Note_on_c, 0, 67, 66
4, 69600, Note_on_c, 0, 62, 65
4, 69600, Note_on_c, 0, 71, 57
4, 69600, Note_on_c, 0, 59, 57
4, 71040, Note_on_c, 0, 59, 0
4, 71040, Note_on_c, 0, 67, 0
4, 71040, Note_on_c, 0, 62, 0
4, 71040, Note_on_c, 0, 71, 0
4, 71040, Note_on_c, 0, 62, 66
4, 71040, Note_on_c, 0, 59, 67
4, 71040, Note_on_c, 0, 53, 55
4, 71040, Note_on_c, 0, 68, 50
4, 72480, Note_on_c, 0, 68, 0
4, 72480, Note_on_c, 0, 62, 0
4, 72480, Note_on_c, 0, 59, 0
4, 72480, Note_on_c, 0, 53, 0
4, 75840, Note_on_c, 0, 59, 56
4, 75840, Note_on_c, 0, 50, 69
4, 76800, Note_on_c, 0, 50, 0
4, 76800, Note_on_c, 0, 59, 0
4, 76800, Note_on_c, 0, 61, 76
4, 77280, Note_on_c, 0, 61, 0
4, 77280, Note_on_c, 0, 67, 83
4, 78240, Note_on_c, 0, 67, 0
4, 78240, Note_on_c, 0, 60, 67
4, 78720, Note_on_c, 0, 60, 0
4, 78720, Note_on_c, 0, 63, 74
4, 79680, Note_on_c, 0, 63, 0
4, 79680, Note_on_c, 0, 60, 55
4, 80160, Note_on_c, 0, 60, 0
4, 80160, Note_on_c, 0, 63, 62
4, 81120, Note_on_c, 0, 63, 0
4, 81120, Note_on_c, 0, 57, 70
4, 81600, Note_on_c, 0, 57, 0
4, 81600, Note_on_c, 0, 60, 82
4, 82560, Note_on_c, 0, 60, 0
4, 82560, Note_on_c, 0, 59, 83
4, 82800, Note_on_c, 0, 59, 0
4, 82800, Note_on_c, 0, 55, 76
4, 83040, Note_on_c, 0, 55, 0
4, 83040, Note_on_c, 0, 52, 78
4, 84000, Note_on_c, 0, 52, 0
4, 84000, Note_on_c, 0, 57, 79
4, 84480, Note_on_c, 0, 57, 0
4, 84480, Note_on_c, 0, 60, 70
4, 85440, Note_on_c, 0, 60, 0
4, 85440, Note_on_c, 0, 59, 75
4, 85680, Note_on_c, 0, 59, 0
4, 85680, Note_on_c, 0, 55, 65
4, 85920, Note_on_c, 0, 55, 0
4, 85920, Note_on_c, 0, 62, 78
4, 86880, Note_on_c, 0, 62, 0
4, 86880, Note_on_c, 0, 63, 82
4, 87360, Note_on_c, 0, 63, 0
4, 87360, Note_on_c, 0, 58, 74
4, 88080, Note_on_c, 0, 58, 0
4, 88080, Note_on_c, 0, 60, 78
4, 88320, Note_on_c, 0, 60, 0
4, 88320, Note_on_c, 0, 62, 84
4, 88800, Note_on_c, 0, 62, 0
4, 88800, Note_on_c, 0, 57, 74
4, 89280, Note_on_c, 0, 57, 0
4, 89760, Note_on_c, 0, 64, 85
4, 90240, Note_on_c, 0, 64, 0
4, 90240, Note_on_c, 0, 59, 75
4, 90960, Note_on_c, 0, 59, 0
4, 90960, Note_on_c, 0, 60, 75
4, 91200, Note_on_c, 0, 60, 0
4, 91200, Note_on_c, 0, 62, 84
4, 91680, Note_on_c, 0, 62, 0
4, 91680, Note_on_c, 0, 57, 72
4, 92160, Note_on_c, 0, 57, 0
4, 93405, Control_c, 0, 64, 0
4, 93585, Control_c, 0, 64, 127
4, 93600, Note_on_c, 0, 43, 60
4, 93600, Note_on_c, 0, 31, 60
4, 95430, Control_c, 0, 64, 0
4, 95520, Note_on_c, 0, 31, 0
4, 95520, Note_on_c, 0, 43, 0
4, 96465, Control_c, 0, 64, 127
4, 96480, Note_on_c, 0, 43, 61
4, 96480, Note_on_c, 0, 31, 61
4, 97200, Note_on_c, 0, 31, 0
4, 97200, Note_on_c, 0, 43, 0
4, 97635, Control_c, 0, 64, 0
4, 98107, Control_c, 0, 64, 127
4, 98160, Note_on_c, 0, 36, 70
4, 98280, Note_on_c, 0, 48, 74
4, 99360, Note_on_c, 0, 36, 0
4, 99480, Note_on_c, 0, 48, 0
4, 99600, Note_on_c, 0, 36, 70
4, 99720, Note_on_c, 0, 48, 74
4, 100425, Control_c, 0, 64, 0
4, 100987, Control_c, 0, 64, 127
4, 101040, Note_on_c, 0, 36, 65
4, 101160, Note_on_c, 0, 48, 71
4, 101280, Note_on_c, 0, 48, 0
4, 101280, Note_on_c, 0, 36, 0
4, 102472, Control_c, 0, 64, 0
4, 102480, Note_on_c, 0, 36, 0
4, 102600, Note_on_c, 0, 48, 0
4, 102600, Note_on_c, 0, 38, 67
4, 102652, Control_c, 0, 64, 127
4, 103560, Note_on_c, 0, 38, 0
4, 103642, Control_c, 0, 64, 0
4, 103867, Control_c, 0, 64, 127
4, 103920, Note_on_c, 0, 31, 65
4, 104040, Note_on_c, 0, 43, 73
4, 105840, Note_on_c, 0, 31, 0
4, 105960, Note_on_c, 0, 43, 0
4, 106162, Control_c, 0, 64, 0
4, 106770, Control_c, 0, 64, 127
4, 106800, Note_on_c, 0, 31, 66
4, 106920, Note_on_c, 0, 43, 73
4, 108720, Note_on_c, 0, 31, 0
4, 108840, Note_on_c, 0, 43, 0
4, 109087, Control_c, 0, 64, 0
4, 109650, Control_c, 0, 64, 127
4, 109680, Note_on_c, 0, 31, 65
4, 109800, Note_on_c, 0, 43, 71
4, 111600, Note_on_c, 0, 31, 0
4, 111720, Note_on_c, 0, 43, 0
4, 111765, Control_c, 0, 64, 0
4, 113520, Control_c, 0, 64, 127
4, 113520, Note_on_c, 0, 38, 57
4, 114000, Note_on_c, 0, 38, 0
4, 114240, Control_c, 0, 64, 0
4, 114720, Note_on_c, 0, 67, 58
4, 114720, Note_on_c, 0, 66, 58
4, 114720, Note_on_c, 0, 71, 58
4, 114960, Note_on_c, 0, 71, 0
4, 114960, Note_on_c, 0, 66, 0
4, 114960, Note_on_c, 0, 67, 0
4, 114960, Note_on_c, 0, 67, 51
4, 114960, Note_on_c, 0, 66, 51
4, 114960, Note_on_c, 0, 71, 51
4, 115200, Note_on_c, 0, 71, 0
4, 115200, Note_on_c, 0, 66, 0
4, 115200, Note_on_c, 0, 67, 0
4, 115200, Note_on_c, 0, 65, 57
4, 115200, Note_on_c, 0, 67, 57
4, 115200, Note_on_c, 0, 71, 57
4, 115440, Note_on_c, 0, 71, 0
4, 115440, Note_on_c, 0, 67, 0
4, 115440, Note_on_c, 0, 65, 0
4, 115440, Note_on_c, 0, 67, 48
4, 115440, Note_on_c, 0, 65, 48
4, 115440, Note_on_c, 0, 71, 48
4, 115680, Note_on_c, 0, 71, 0
4, 115680, Note_on_c, 0, 65, 0
4, 115680, Note_on_c, 0, 67, 0
4, 115680, Note_on_c, 0, 64, 54
4, 115680, Note_on_c, 0, 67, 54
4, 115920, Note_on_c, 0, 67, 0
4, 115920, Note_on_c, 0, 64, 0
4, 115920, Note_on_c, 0, 67, 50
4, 115920, Note_on_c, 0, 63, 50
4, 116160, Note_on_c, 0, 63, 0
4, 116160, Note_on_c, 0, 67, 0
4, 116160, Note_on_c, 0, 62, 54
4, 116160, Note_on_c, 0, 67, 54
4, 116400, Note_on_c, 0, 67, 0
4, 116400, Note_on_c, 0, 62, 0
4, 116400, Note_on_c, 0, 67, 50
4, 116400, Note_on_c, 0, 62, 50
4, 116640, Note_on_c, 0, 62, 0
4, 116640, Note_on_c, 0, 67, 0
4, 116640, Note_on_c, 0, 66, 55
4, 116640, Note_on_c, 0, 62, 55
4, 116640, Note_on_c, 0, 60, 55
4, 116880, Note_on_c, 0, 60, 0
4, 116880, Note_on_c, 0, 62, 0
4, 116880, Note_on_c, 0, 66, 0
4, 116880, Note_on_c, 0, 62, 50
4, 116880, Note_on_c, 0, 66, 50
4, 116880, Note_on_c, 0, 60, 50
4, 117120, Note_on_c, 0, 60, 0
4, 117120, Note_on_c, 0, 66, 0
4, 117120, Note_on_c, 0, 62, 0
4, 117120, Note_on_c, 0, 59, 60
4, 117120, Note_on_c, 0, 62, 50
4, 117600, Note_on_c, 0, 62, 0
4, 117600, Note_on_c, 0, 59, 0
4, 117600, Note_on_c, 0, 61, 64
4, 117600, Note_on_c, 0, 58, 64
4, 117840, Note_on_c, 0, 58, 0
4, 117840, Note_on_c, 0, 61, 0
4, 117840, Note_on_c, 0, 61, 50
4, 117840, Note_on_c, 0, 58, 50
4, 118080, Note_on_c, 0, 58, 0
4, 118080, Note_on_c, 0, 61, 0
4, 118080, Note_on_c, 0, 61, 55
4, 118080, Note_on_c, 0, 58, 55
4, 118320, Note_on_c, 0, 58, 0
4, 118320, Note_on_c, 0, 61, 0
4, 118320, Note_on_c, 0, 58, 49
4, 118320, Note_on_c, 0, 61, 46
4, 118560, Note_on_c, 0, 61, 0
4, 118560, Note_on_c, 0, 58, 0
4, 118560, Note_on_c, 0, 59, 60
4, 118560, Note_on_c, 0, 63, 60
4, 119040, Note_on_c, 0, 63, 0
4, 119040, Note_on_c, 0, 59, 0
4, 119040, Note_on_c, 0, 57, 66
4, 119040, Note_on_c, 0, 62, 66
4, 119280, Note_on_c, 0, 62, 0
4, 119280, Note_on_c, 0, 57, 0
4, 119280, Note_on_c, 0, 57, 52
4, 119280, Note_on_c, 0, 62, 52
4, 119520, Note_on_c, 0, 62, 0
4, 119520, Note_on_c, 0, 57, 0
4, 119520, Note_on_c, 0, 50, 58
4, 119760, Note_on_c, 0, 50, 0
4, 119760, Note_on_c, 0, 50, 52
4, 120000, Note_on_c, 0, 50, 0
4, 120000, Note_on_c, 0, 59, 62
4, 120360, Note_on_c, 0, 59, 0
4, 120360, Note_on_c, 0, 52, 64
4, 120420, Note_on_c, 0, 59, 69
4, 120480, Note_on_c, 0, 64, 74
4, 121320, Note_on_c, 0, 52, 0
4, 121320, Note_on_c, 0, 47, 62
4, 121380, Note_on_c, 0, 59, 0
4, 121380, Note_on_c, 0, 54, 69
4, 121440, Note_on_c, 0, 64, 0
4, 121440, Note_on_c, 0, 62, 75
4, 121800, Note_on_c, 0, 47, 0
4, 121860, Note_on_c, 0, 54, 0
4, 121920, Note_on_c, 0, 62, 0
4, 121920, Note_on_c, 0, 55, 63
4, 121920, Note_on_c, 0, 59, 63
4, 121920, Note_on_c, 0, 48, 63
4, 122400, Note_on_c, 0, 48, 0
4, 122400, Note_on_c, 0, 59, 0
4, 122400, Note_on_c, 0, 55, 0
4, 122400, Note_on_c, 0, 38, 54
4, 122400, Note_on_c, 0, 50, 54
4, 122880, Note_on_c, 0, 50, 0
4, 122880, Note_on_c, 0, 38, 0
4, 127200, Note_on_c, 0, 43, 42
4, 127200, Note_on_c, 0, 31, 42
4, 127440, Note_on_c, 0, 31, 0
4, 127440, Note_on_c, 0, 43, 0
4, 127440, End_track
5, 0, Start_track
5, 0, Title_t, "Piano"
5, 0, Program_c, 0, 0
5, 0, Control_c, 0, 7, 105
5, 0, Control_c, 0, 10, 44
5, 0, Control_c, 0, 91, 91
5, 0, Control_c, 0, 11, 110
5, 52320, Control_c, 0, 64, 127
5, 52800, Note_on_c, 0, 45, 62
5, 52800, Note_on_c, 0, 33, 66
5, 53280, Note_on_c, 0, 33, 0
5, 53280, Note_on_c, 0, 45, 0
5, 53760, Control_c, 0, 64, 0
5, 55200, Control_c, 0, 64, 127
5, 55200, Note_on_c, 0, 45, 64
5, 55200, Note_on_c, 0, 33, 64
5, 56640, Note_on_c, 0, 33, 0
5, 56640, Note_on_c, 0, 45, 0
5, 56640, Control_c, 0, 64, 0
5, 58080, Note_on_c, 0, 42, 70
5, 58080, Note_on_c, 0, 30, 72
5, 58140, Control_c, 0, 64, 127
5, 58800, Note_on_c, 0, 30, 0
5, 58800, Note_on_c, 0, 42, 0
5, 58800, Note_on_c, 0, 43, 81
5, 58800, Note_on_c, 0, 31, 81
5, 58860, Control_c, 0, 64, 0
5, 59040, Note_on_c, 0, 31, 0
5, 59040, Note_on_c, 0, 43, 0
5, 59040, Note_on_c, 0, 33, 82
5, 59040, Note_on_c, 0, 45, 82
5, 59280, Note_on_c, 0, 45, 0
5, 59280, Note_on_c, 0, 33, 0
5, 59280, Note_on_c, 0, 47, 72
5, 59280, Note_on_c, 0, 35, 78
5, 59520, Note_on_c, 0, 35, 0
5, 59520, Note_on_c, 0, 47, 0
5, 59520, Note_on_c, 0, 48, 89
5, 59520, Note_on_c, 0, 36, 89
5, 59760, Note_on_c, 0, 36, 0
5, 59760, Note_on_c, 0, 48, 0
5, 59760, Note_on_c, 0, 35, 84
5, 59760, Note_on_c, 0, 47, 84
5, 60000, Note_on_c, 0, 47, 0
5, 60000, Note_on_c, 0, 35, 0
5, 60000, Note_on_c, 0, 42, 82
5, 60000, Note_on_c, 0, 30, 82
5, 60480, Note_on_c, 0, 30, 0
5, 60480, Note_on_c, 0, 42, 0
5, 60480, Note_on_c, 0, 43, 84
5, 60480, Note_on_c, 0, 31, 84
5, 60960, Note_on_c, 0, 31, 0
5, 60960, Note_on_c, 0, 43, 0
5, 60960, Control_c, 0, 64, 127
5, 60960, Note_on_c, 0, 44, 90
5, 60960, Note_on_c, 0, 32, 90
5, 61680, Note_on_c, 0, 32, 0
5, 61680, Note_on_c, 0, 44, 0
5, 61680, Control_c, 0, 64, 0
5, 61680, Note_on_c, 0, 45, 74
5, 61680, Note_on_c, 0, 33, 82
5, 61920, Note_on_c, 0, 33, 0
5, 61920, Note_on_c, 0, 45, 0
5, 61920, Note_on_c, 0, 47, 89
5, 61920, Note_on_c, 0, 35, 89
5, 62160, Note_on_c, 0, 35, 0
5, 62160, Note_on_c, 0, 47, 0
5, 62160, Note_on_c, 0, 48, 80
5, 62160, Note_on_c, 0, 36, 86
5, 62400, Note_on_c, 0, 36, 0
5, 62400, Note_on_c, 0, 48, 0
5, 62400, Note_on_c, 0, 50, 95
5, 62400, Note_on_c, 0, 38, 95
5, 62640, Note_on_c, 0, 38, 0
5, 62640, Note_on_c, 0, 50, 0
5, 62640, Note_on_c, 0, 48, 89
5, 62640, Note_on_c, 0, 36, 89
5, 62880, Note_on_c, 0, 36, 0
5, 62880, Note_on_c, 0, 48, 0
5, 62880, Note_on_c, 0, 43, 92
5, 62880, Note_on_c, 0, 31, 92
5, 63360, Note_on_c, 0, 31, 0
5, 63360, Note_on_c, 0, 43, 0
5, 63360, Note_on_c, 0, 33, 84
5, 63360, Note_on_c, 0, 45, 77
5, 63840, Note_on_c, 0, 45, 0
5, 63840, Note_on_c, 0, 33, 0
5, 64320, Note_on_c, 0, 42, 58
5, 64320, Note_on_c, 0, 30, 65
5, 65280, Note_on_c, 0, 30, 0
5, 65280, Note_on_c, 0, 42, 0
5, 65760, Note_on_c, 0, 42, 55
5, 65760, Note_on_c, 0, 30, 64
5, 66720, Note_on_c, 0, 30, 0
5, 66720, Note_on_c, 0, 42, 0
5, 67200, Note_on_c, 0, 42, 59
5, 67200, Note_on_c, 0, 30, 65
5, 68160, Note_on_c, 0, 30, 0
5, 68160, Note_on_c, 0, 42, 0
5, 68160, Note_on_c, 0, 30, 62
5, 68160, Note_on_c, 0, 42, 62
5, 69120, Note_on_c, 0, 42, 0
5, 69120, Note_on_c, 0, 30, 0
5, 69120, Note_on_c, 0, 30, 63
5, 69120, Note_on_c, 0, 42, 54
5, 69600, Note_on_c, 0, 42, 0
5, 69600, Note_on_c, 0, 30, 0
5, 70080, Note_on_c, 0, 26, 67
5, 70080, Note_on_c, 0, 38, 60
5, 71040, Note_on_c, 0, 38, 0
5, 71040, Note_on_c, 0, 26, 0
5, 71520, Note_on_c, 0, 38, 58
5, 71520, Note_on_c, 0, 26, 66
5, 72480, Note_on_c, 0, 26, 0
5, 72480, Note_on_c, 0, 38, 0
5, 76320, Note_on_c, 0, 26, 73
5, 76320, Note_on_c, 0, 38, 73
5, 76800, Note_on_c, 0, 38, 0
5, 76800, Note_on_c, 0, 26, 0
5, 77760, Note_on_c, 0, 26, 73
5, 77760, Note_on_c, 0, 38, 73
5, 78240, Note_on_c, 0, 38, 0
5, 78240, Note_on_c, 0, 26, 0
5, 79200, Note_on_c, 0, 38, 72
5, 79200, Note_on_c, 0, 26, 72
5, 81120, Note_on_c, 0, 26, 0
5, 81120, Note_on_c, 0, 38, 0
5, 82080, Note_on_c, 0, 43, 56
5, 82080, Note_on_c, 0, 31, 66
5, 82800, Note_on_c, 0, 31, 0
5, 82800, Note_on_c, 0, 43, 0
5, 84960, Note_on_c, 0, 43, 61
5, 84960, Note_on_c, 0, 31, 64
5, 85680, Note_on_c, 0, 31, 0
5, 85680, Note_on_c, 0, 43, 0
5, 87840, Note_on_c, 0, 43, 53
5, 87840, Note_on_c, 0, 31, 58
5, 88320, Note_on_c, 0, 31, 0
5, 88320, Note_on_c, 0, 43, 0
5, 89280, Note_on_c, 0, 43, 46
5, 89280, Note_on_c, 0, 31, 58
5, 90000, Note_on_c, 0, 31, 0
5, 90000, Note_on_c, 0, 43, 0
5, 90720, Note_on_c, 0, 31, 56
5, 90720, Note_on_c, 0, 43, 59
5, 91200, Note_on_c, 0, 43, 0
5, 91200, Note_on_c, 0, 31, 0
5, 92160, Note_on_c, 0, 43, 56
5, 92160, Note_on_c, 0, 31, 62
5, 92880, Note_on_c, 0, 31, 0
5, 92880, Note_on_c, 0, 43, 0
5, 114240, Note_on_c, 0, 43, 59
5, 114240, Note_on_c, 0, 31, 66
5, 117120, Note_on_c, 0, 31, 0
5, 117120, Note_on_c, 0, 43, 0
5, 120000, Note_on_c, 0, 55, 69
5, 120240, Note_on_c, 0, 55, 0
5, 120240, Note_on_c, 0, 54, 66
5, 120480, Note_on_c, 0, 54, 0
5, 122880, Note_on_c, 0, 31, 52
5, 122880, Note_on_c, 0, 43, 52
5, 122940, Control_c, 0, 64, 127
5, 128580, Control_c, 0, 64, 0
5, 128640, Note_on_c, 0, 43, 0
5, 128640, Note_on_c, 0, 31, 0
5, 128640, End_track
0, 0, End_of_file
