0, 0, Header, 1, 6, 240
1, 0, Start_track
1, 0, Title_t, "Danse Créole in Eb Minor, Opus 96"
1, 0, Text_t, "By Cécile Chaminade  ((1857-1944)"
1, 0, System_exclusive, 5, 126, 127, 9, 1, 247
1, 0, Time_signature, 4, 2, 24, 8
1, 0, Key_signature, -6, "major"
1, 0, Tempo, 625000
1, 960, Marker_t, "à ma Nièce, Antoinette Chaminade"
1, 1920, Tempo, 645161
1, 2100, Tempo, 625000
1, 2400, Tempo, 618557
1, 2880, Tempo, 645161
1, 3120, Tempo, 594059
1, 3540, Tempo, 625000
1, 3840, Tempo, 659341
1, 4020, Tempo, 588235
1, 4080, Tempo, 594059
1, 4320, Tempo, 625000
1, 4560, Tempo, 606061
1, 4800, Tempo, 612245
1, 5040, Tempo, 618557
1, 5280, Tempo, 625000
1, 5281, Tempo, 625000
1, 5760, Tempo, 612245
1, 5914, Tempo, 625000
1, 6360, Tempo, 600000
1, 6720, Tempo, 625000
1, 6960, Tempo, 612245
1, 7380, Tempo, 588235
1, 7680, Tempo, 606061
1, 8160, Tempo, 618557
1, 8400, Tempo, 600000
1, 8550, Tempo, 588235
1, 8640, Tempo, 612245
1, 9120, Tempo, 625000
1, 9300, Tempo, 600000
1, 9600, Tempo, 618557
1, 9840, Tempo, 606061
1, 10080, Tempo, 612245
1, 10560, Tempo, 638298
1, 10800, Tempo, 618557
1, 11220, Tempo, 600000
1, 11520, Tempo, 618557
1, 11700, Tempo, 606061
1, 12000, Tempo, 625000
1, 12180, Tempo, 600000
1, 12480, Tempo, 625000
1, 12720, Tempo, 612245
1, 13140, Tempo, 588235
1, 13440, Tempo, 631579
1, 13680, Tempo, 625000
1, 13800, Tempo, 588235
1, 13920, Tempo, 606061
1, 14400, Tempo, 588235
1, 14640, Tempo, 625000
1, 15060, Tempo, 600000
1, 15360, Tempo, 625000
1, 15840, Tempo, 612245
1, 16080, Tempo, 631579
1, 16260, Tempo, 588235
1, 16800, Tempo, 666667
1, 16980, Tempo, 625000
1, 17280, Tempo, 652174
1, 17460, Tempo, 588235
1, 17760, Tempo, 652174
1, 17940, Tempo, 588235
1, 18780, Tempo, 600000
1, 19200, Tempo, 625000
1, 19320, Tempo, 594059
1, 19680, Tempo, 625000
1, 19800, Tempo, 600000
1, 20160, Tempo, 588235
1, 20280, Tempo, 666667
1, 20400, Tempo, 1000000
1, 20640, Tempo, 625000
1, 20820, Tempo, 588235
1, 21120, Tempo, 625000
1, 21360, Tempo, 606061
1, 21720, Tempo, 588235
1, 22080, Tempo, 638298
1, 22320, Tempo, 612245
1, 22740, Tempo, 618557
1, 23040, Tempo, 666667
1, 23220, Tempo, 600000
1, 23520, Tempo, 666667
1, 23700, Tempo, 600000
1, 24000, Tempo, 666667
1, 24009, Tempo, 674157
1, 24018, Tempo, 681818
1, 24027, Tempo, 689655
1, 24036, Tempo, 697674
1, 24045, Tempo, 705882
1, 24054, Tempo, 714286
1, 24063, Tempo, 722892
1, 24072, Tempo, 731707
1, 24081, Tempo, 740741
1, 24090, Tempo, 750000
1, 24099, Tempo, 759494
1, 24108, Tempo, 769231
1, 24117, Tempo, 779221
1, 24126, Tempo, 789474
1, 24135, Tempo, 800000
1, 24144, Tempo, 810811
1, 24153, Tempo, 821918
1, 24162, Tempo, 833333
1, 24171, Tempo, 845070
1, 24180, Tempo, 857143
1, 24270, Tempo, 869565
1, 24360, Tempo, 882353
1, 24450, Tempo, 895522
1, 24540, Tempo, 909091
1, 24630, Tempo, 923077
1, 24631, Tempo, 833333
1, 24650, Tempo, 845070
1, 24660, Tempo, 625000
1, 24960, Tempo, 625000
1, 25140, Tempo, 588235
1, 25440, Tempo, 625000
1, 25620, Tempo, 588235
1, 26160, Tempo, 625000
1, 26460, Tempo, 588235
1, 26880, Tempo, 625000
1, 27060, Tempo, 588235
1, 27360, Tempo, 625000
1, 27540, Tempo, 606061
1, 27840, Tempo, 600000
1, 28080, Tempo, 666667
1, 28500, Tempo, 625000
1, 28800, Tempo, 666667
1, 28920, Tempo, 588235
1, 29280, Tempo, 666667
1, 29400, Tempo, 588235
1, 29760, Tempo, 666667
1, 29880, Tempo, 588235
1, 30240, Tempo, 666667
1, 30360, Tempo, 588235
1, 30720, Tempo, 606061
1, 31200, Tempo, 625000
1, 31320, Tempo, 625000
1, 31680, Tempo, 666667
1, 31860, Tempo, 588235
1, 32160, Tempo, 674157
1, 32340, Tempo, 588235
1, 32640, Tempo, 674157
1, 32820, Tempo, 588235
1, 33120, Tempo, 714286
1, 33300, Tempo, 638298
1, 33600, Tempo, 625000
1, 34560, Tempo, 588235
1, 34800, Tempo, 625000
1, 35220, Tempo, 588235
1, 35520, Tempo, 625000
1, 35700, Tempo, 588235
1, 36000, Tempo, 612245
1, 36180, Tempo, 588235
1, 36480, Tempo, 606061
1, 36720, Tempo, 625000
1, 37440, Tempo, 645161
1, 37680, Tempo, 625000
1, 37920, Tempo, 606061
1, 38400, Tempo, 638298
1, 38640, Tempo, 625000
1, 39060, Tempo, 588235
1, 39360, Tempo, 631579
1, 39540, Tempo, 588235
1, 39840, Tempo, 612245
1, 39960, Tempo, 588235
1, 40320, Tempo, 625000
1, 40500, Tempo, 606061
1, 40800, Tempo, 625000
1, 40980, Tempo, 606061
1, 41280, Tempo, 631579
1, 41520, Tempo, 618557
1, 41880, Tempo, 600000
1, 42240, Tempo, 631579
1, 42480, Tempo, 612245
1, 42900, Tempo, 600000
1, 43200, Tempo, 631579
1, 43680, Tempo, 612245
1, 43860, Tempo, 600000
1, 44160, Tempo, 631579
1, 44400, Tempo, 612245
1, 44820, Tempo, 600000
1, 45120, Tempo, 631579
1, 45360, Tempo, 612245
1, 45720, Tempo, 600000
1, 46080, Tempo, 631579
1, 46320, Tempo, 612245
1, 46740, Tempo, 600000
1, 47040, Tempo, 612245
1, 47220, Tempo, 600000
1, 47520, Tempo, 612245
1, 47760, Tempo, 600000
1, 48720, Tempo, 6000000
1, 48720, End_track
2, 0, Start_track
2, 0, Title_t, "Danse Créole in Eb Minor, Opus 96"
2, 241, Program_c, 0, 0
2, 241, Control_c, 0, 7, 105
2, 241, Control_c, 0, 10, 79
2, 1620, Note_on_c, 0, 70, 76
2, 1680, Control_c, 0, 10, 73
2, 1681, Note_on_c, 0, 70, 0
2, 1681, Note_on_c, 0, 73, 76
2, 1774, Note_on_c, 0, 73, 0
2, 1798, Control_c, 0, 10, 68
2, 1799, Note_on_c, 0, 68, 74
2, 1890, Note_on_c, 0, 68, 0
2, 1916, Control_c, 0, 10, 71
2, 1917, Note_on_c, 0, 71, 80
2, 2012, Note_on_c, 0, 71, 0
2, 2159, Control_c, 0, 10, 66
2, 2160, Control_c, 0, 10, 70
2, 2160, Note_on_c, 0, 66, 76
2, 2161, Note_on_c, 0, 70, 72
2, 2395, Control_c, 0, 10, 65
2, 2396, Note_on_c, 0, 65, 80
2, 2397, Note_on_c, 0, 66, 0
2, 2403, Control_c, 0, 10, 59
2, 2404, Note_on_c, 0, 59, 76
2, 2515, Control_c, 0, 10, 68
2, 2516, Note_on_c, 0, 68, 78
2, 2519, Note_on_c, 0, 70, 0
2, 2612, Control_c, 0, 10, 70
2, 2613, Note_on_c, 0, 70, 79
2, 2632, Note_on_c, 0, 68, 0
2, 2633, Note_on_c, 0, 65, 0
2, 2638, Note_on_c, 0, 70, 0
2, 2638, Control_c, 0, 10, 68
2, 2639, Note_on_c, 0, 68, 71
2, 2718, Note_on_c, 0, 68, 0
2, 2719, Control_c, 0, 10, 66
2, 2720, Note_on_c, 0, 66, 73
2, 2796, Note_on_c, 0, 66, 0
2, 2803, Control_c, 0, 10, 65
2, 2804, Note_on_c, 0, 65, 77
2, 2880, Control_c, 0, 10, 68
2, 2881, Note_on_c, 0, 68, 79
2, 2883, Note_on_c, 0, 65, 0
2, 2996, Note_on_c, 0, 68, 0
2, 3000, Note_on_c, 0, 59, 0
2, 3117, Control_c, 0, 10, 62
2, 3118, Note_on_c, 0, 58, 73
2, 3118, Note_on_c, 0, 66, 71
2, 3533, Note_on_c, 0, 58, 0
2, 3539, Note_on_c, 0, 66, 0
2, 3539, Control_c, 0, 10, 70
2, 3540, Note_on_c, 0, 70, 67
2, 3540, Control_c, 0, 10, 61
2, 3541, Note_on_c, 0, 61, 63
2, 3596, Control_c, 0, 10, 73
2, 3597, Note_on_c, 0, 61, 0
2, 3597, Control_c, 0, 10, 66
2, 3597, Note_on_c, 0, 73, 67
2, 3598, Note_on_c, 0, 66, 66
2, 3599, Note_on_c, 0, 70, 0
2, 3689, Note_on_c, 0, 66, 0
2, 3691, Note_on_c, 0, 73, 0
2, 3721, Control_c, 0, 10, 70
2, 3722, Note_on_c, 0, 70, 66
2, 3723, Control_c, 0, 10, 75
2, 3724, Note_on_c, 0, 75, 68
2, 3813, Note_on_c, 0, 70, 0
2, 3819, Note_on_c, 0, 75, 0
2, 3839, Control_c, 0, 10, 73
2, 3840, Note_on_c, 0, 73, 74
2, 3841, Control_c, 0, 10, 78
2, 3842, Note_on_c, 0, 78, 72
2, 3933, Note_on_c, 0, 73, 0
2, 3938, Note_on_c, 0, 78, 0
2, 4018, Control_c, 0, 10, 72
2, 4019, Note_on_c, 0, 70, 63
2, 4019, Note_on_c, 0, 75, 61
2, 4075, Note_on_c, 0, 70, 0
2, 4079, Note_on_c, 0, 75, 0
2, 4080, Control_c, 0, 10, 69
2, 4081, Note_on_c, 0, 73, 65
2, 4081, Note_on_c, 0, 66, 69
2, 4172, Note_on_c, 0, 73, 0
2, 4177, Note_on_c, 0, 66, 0
2, 4202, Control_c, 0, 10, 70
2, 4203, Control_c, 0, 10, 61
2, 4203, Note_on_c, 0, 70, 65
2, 4204, Note_on_c, 0, 61, 61
2, 4295, Note_on_c, 0, 70, 0
2, 4297, Note_on_c, 0, 61, 0
2, 4323, Control_c, 0, 10, 77
2, 4324, Note_on_c, 0, 77, 69
2, 4416, Note_on_c, 0, 77, 0
2, 4498, Control_c, 0, 10, 68
2, 4499, Note_on_c, 0, 68, 67
2, 4502, Control_c, 0, 10, 72
2, 4503, Note_on_c, 0, 72, 63
2, 4556, Control_c, 0, 10, 70
2, 4557, Note_on_c, 0, 70, 64
2, 4558, Note_on_c, 0, 72, 0
2, 4559, Note_on_c, 0, 68, 0
2, 4560, Control_c, 0, 10, 66
2, 4561, Note_on_c, 0, 66, 66
2, 4653, Note_on_c, 0, 66, 0
2, 4653, Note_on_c, 0, 70, 0
2, 4680, Control_c, 0, 10, 60
2, 4681, Note_on_c, 0, 60, 62
2, 4778, Note_on_c, 0, 60, 0
2, 4802, Control_c, 0, 10, 75
2, 4803, Note_on_c, 0, 75, 75
2, 4899, Note_on_c, 0, 75, 0
2, 5035, Control_c, 0, 10, 68
2, 5036, Note_on_c, 0, 68, 76
2, 5041, Control_c, 0, 10, 73
2, 5042, Note_on_c, 0, 73, 69
2, 5273, Note_on_c, 0, 68, 0
2, 5276, Control_c, 0, 10, 67
2, 5277, Note_on_c, 0, 67, 73
2, 5456, Control_c, 0, 10, 71
2, 5457, Note_on_c, 0, 73, 0
2, 5457, Note_on_c, 0, 71, 68
2, 5513, Note_on_c, 0, 71, 0
2, 5520, Control_c, 0, 10, 75
2, 5521, Note_on_c, 0, 75, 74
2, 5612, Note_on_c, 0, 75, 0
2, 5638, Control_c, 0, 10, 70
2, 5639, Note_on_c, 0, 70, 74
2, 5731, Note_on_c, 0, 70, 0
2, 5753, Note_on_c, 0, 67, 0
2, 5760, Control_c, 0, 10, 73
2, 5761, Note_on_c, 0, 73, 81
2, 5854, Note_on_c, 0, 73, 0
2, 5997, Control_c, 0, 10, 68
2, 5998, Note_on_c, 0, 68, 79
2, 6003, Control_c, 0, 10, 71
2, 6004, Note_on_c, 0, 71, 75
2, 6233, Note_on_c, 0, 68, 0
2, 6235, Control_c, 0, 10, 67
2, 6236, Note_on_c, 0, 67, 83
2, 6242, Control_c, 0, 10, 64
2, 6243, Note_on_c, 0, 64, 76
2, 6355, Control_c, 0, 10, 70
2, 6356, Note_on_c, 0, 70, 72
2, 6362, Note_on_c, 0, 71, 0
2, 6453, Control_c, 0, 10, 71
2, 6454, Note_on_c, 0, 71, 74
2, 6471, Note_on_c, 0, 70, 0
2, 6475, Note_on_c, 0, 67, 0
2, 6482, Note_on_c, 0, 64, 0
2, 6482, Control_c, 0, 10, 70
2, 6483, Control_c, 0, 10, 64
2, 6483, Note_on_c, 0, 70, 76
2, 6484, Note_on_c, 0, 71, 0
2, 6484, Note_on_c, 0, 64, 79
2, 6558, Control_c, 0, 10, 68
2, 6559, Note_on_c, 0, 68, 79
2, 6561, Note_on_c, 0, 70, 0
2, 6638, Note_on_c, 0, 68, 0
2, 6640, Control_c, 0, 10, 67
2, 6641, Note_on_c, 0, 67, 78
2, 6716, Note_on_c, 0, 67, 0
2, 6718, Control_c, 0, 10, 64
2, 6719, Note_on_c, 0, 64, 87
2, 6721, Control_c, 0, 10, 70
2, 6722, Note_on_c, 0, 64, 0
2, 6722, Note_on_c, 0, 70, 82
2, 6834, Note_on_c, 0, 64, 0
2, 6837, Note_on_c, 0, 70, 0
2, 6957, Control_c, 0, 10, 68
2, 6958, Note_on_c, 0, 68, 71
2, 6963, Control_c, 0, 10, 63
2, 6964, Note_on_c, 0, 63, 79
2, 7317, Note_on_c, 0, 68, 0
2, 7322, Note_on_c, 0, 63, 0
2, 7377, Control_c, 0, 10, 66
2, 7378, Note_on_c, 0, 66, 68
2, 7383, Control_c, 0, 10, 75
2, 7384, Note_on_c, 0, 75, 61
2, 7436, Control_c, 0, 10, 71
2, 7437, Control_c, 0, 10, 78
2, 7437, Note_on_c, 0, 71, 63
2, 7438, Note_on_c, 0, 66, 0
2, 7438, Note_on_c, 0, 78, 62
2, 7440, Note_on_c, 0, 75, 0
2, 7528, Note_on_c, 0, 71, 0
2, 7529, Note_on_c, 0, 78, 0
2, 7557, Control_c, 0, 10, 65
2, 7558, Note_on_c, 0, 65, 66
2, 7561, Control_c, 0, 10, 75
2, 7562, Note_on_c, 0, 75, 65
2, 7652, Note_on_c, 0, 65, 0
2, 7658, Note_on_c, 0, 75, 0
2, 7677, Control_c, 0, 10, 73
2, 7678, Control_c, 0, 10, 66
2, 7678, Note_on_c, 0, 73, 70
2, 7679, Note_on_c, 0, 66, 77
2, 7857, Control_c, 0, 10, 70
2, 7858, Note_on_c, 0, 73, 0
2, 7858, Note_on_c, 0, 70, 61
2, 7859, Note_on_c, 0, 66, 0
2, 7862, Control_c, 0, 10, 61
2, 7863, Note_on_c, 0, 61, 62
2, 7913, Note_on_c, 0, 70, 0
2, 7916, Control_c, 0, 10, 66
2, 7917, Note_on_c, 0, 66, 69
2, 7919, Note_on_c, 0, 61, 0
2, 7922, Control_c, 0, 10, 58
2, 7923, Note_on_c, 0, 58, 65
2, 8014, Note_on_c, 0, 66, 0
2, 8017, Note_on_c, 0, 58, 0
2, 8041, Control_c, 0, 10, 63
2, 8042, Note_on_c, 0, 63, 69
2, 8137, Note_on_c, 0, 63, 0
2, 8155, Control_c, 0, 10, 59
2, 8156, Note_on_c, 0, 59, 65
2, 8159, Control_c, 0, 10, 63
2, 8160, Control_c, 0, 10, 68
2, 8160, Note_on_c, 0, 63, 73
2, 8161, Note_on_c, 0, 68, 73
2, 8396, Note_on_c, 0, 68, 0
2, 8396, Control_c, 0, 10, 65
2, 8397, Note_on_c, 0, 63, 0
2, 8397, Note_on_c, 0, 65, 65
2, 8403, Control_c, 0, 10, 70
2, 8404, Note_on_c, 0, 70, 63
2, 8576, Note_on_c, 0, 70, 68
2, 8579, Note_on_c, 0, 70, 0
2, 8602, Note_on_c, 0, 70, 0
2, 8609, Control_c, 0, 10, 68
2, 8610, Note_on_c, 0, 68, 66
2, 8632, Note_on_c, 0, 59, 0
2, 8635, Note_on_c, 0, 65, 0
2, 8637, Control_c, 0, 10, 58
2, 8638, Note_on_c, 0, 58, 77
2, 8639, Note_on_c, 0, 68, 0
2, 8641, Control_c, 0, 10, 66
2, 8642, Note_on_c, 0, 66, 70
2, 9234, Note_on_c, 0, 58, 0
2, 9238, Note_on_c, 0, 66, 0
2, 9300, Control_c, 0, 10, 73
2, 9301, Note_on_c, 0, 73, 93
2, 9301, Control_c, 0, 10, 82
2, 9302, Note_on_c, 0, 82, 93
2, 9355, Control_c, 0, 10, 85
2, 9356, Note_on_c, 0, 85, 92
2, 9356, Control_c, 0, 10, 78
2, 9357, Note_on_c, 0, 78, 97
2, 9360, Note_on_c, 0, 82, 0
2, 9362, Note_on_c, 0, 73, 0
2, 9450, Note_on_c, 0, 78, 0
2, 9453, Note_on_c, 0, 85, 0
2, 9478, Control_c, 0, 10, 80
2, 9479, Note_on_c, 0, 80, 98
2, 9482, Control_c, 0, 10, 73
2, 9483, Note_on_c, 0, 73, 96
2, 9573, Note_on_c, 0, 80, 0
2, 9574, Note_on_c, 0, 73, 0
2, 9599, Control_c, 0, 10, 83
2, 9600, Note_on_c, 0, 83, 99
2, 9602, Control_c, 0, 10, 78
2, 9603, Note_on_c, 0, 78, 103
2, 9719, Note_on_c, 0, 83, 0
2, 9724, Note_on_c, 0, 78, 0
2, 9838, Control_c, 0, 10, 82
2, 9839, Note_on_c, 0, 82, 106
2, 9842, Control_c, 0, 10, 78
2, 9843, Control_c, 0, 10, 73
2, 9843, Note_on_c, 0, 78, 107
2, 9844, Note_on_c, 0, 73, 105
2, 10077, Control_c, 0, 10, 71
2, 10078, Note_on_c, 0, 71, 96
2, 10080, Control_c, 0, 10, 77
2, 10081, Note_on_c, 0, 77, 100
2, 10082, Note_on_c, 0, 78, 0
2, 10084, Note_on_c, 0, 73, 0
2, 10196, Note_on_c, 0, 82, 0
2, 10196, Control_c, 0, 10, 80
2, 10197, Note_on_c, 0, 80, 98
2, 10290, Control_c, 0, 10, 82
2, 10291, Note_on_c, 0, 82, 91
2, 10316, Note_on_c, 0, 80, 0
2, 10316, Note_on_c, 0, 71, 0
2, 10317, Note_on_c, 0, 82, 0
2, 10319, Note_on_c, 0, 77, 0
2, 10319, Control_c, 0, 10, 75
2, 10320, Note_on_c, 0, 80, 92
2, 10320, Note_on_c, 0, 71, 94
2, 10398, Note_on_c, 0, 80, 0
2, 10401, Control_c, 0, 10, 78
2, 10402, Note_on_c, 0, 78, 99
2, 10479, Note_on_c, 0, 78, 0
2, 10479, Control_c, 0, 10, 77
2, 10480, Note_on_c, 0, 77, 94
2, 10556, Control_c, 0, 10, 80
2, 10557, Note_on_c, 0, 80, 103
2, 10560, Note_on_c, 0, 77, 0
2, 10675, Note_on_c, 0, 80, 0
2, 10679, Note_on_c, 0, 71, 0
2, 10796, Control_c, 0, 10, 78
2, 10797, Note_on_c, 0, 78, 96
2, 10800, Control_c, 0, 10, 70
2, 10801, Note_on_c, 0, 70, 91
2, 11213, Note_on_c, 0, 78, 0
2, 11215, Control_c, 0, 10, 82
2, 11216, Note_on_c, 0, 82, 94
2, 11218, Control_c, 0, 10, 73
2, 11219, Note_on_c, 0, 73, 94
2, 11222, Note_on_c, 0, 70, 0
2, 11274, Note_on_c, 0, 82, 0
2, 11278, Note_on_c, 0, 73, 0
2, 11278, Control_c, 0, 10, 85
2, 11279, Note_on_c, 0, 85, 93
2, 11281, Control_c, 0, 10, 78
2, 11282, Note_on_c, 0, 78, 95
2, 11371, Note_on_c, 0, 85, 0
2, 11378, Note_on_c, 0, 78, 0
2, 11399, Control_c, 0, 10, 89
2, 11400, Note_on_c, 0, 87, 93
2, 11401, Control_c, 0, 10, 82
2, 11402, Note_on_c, 0, 82, 99
2, 11494, Note_on_c, 0, 82, 0
2, 11497, Note_on_c, 0, 87, 0
2, 11515, Control_c, 0, 10, 85
2, 11516, Control_c, 0, 10, 90
2, 11516, Note_on_c, 0, 85, 99
2, 11517, Note_on_c, 0, 90, 104
2, 11609, Note_on_c, 0, 85, 0
2, 11614, Note_on_c, 0, 90, 0
2, 11700, Control_c, 0, 10, 83
2, 11701, Note_on_c, 0, 82, 93
2, 11702, Control_c, 0, 10, 89
2, 11703, Note_on_c, 0, 87, 97
2, 11760, Control_c, 0, 10, 81
2, 11761, Note_on_c, 0, 87, 0
2, 11761, Note_on_c, 0, 82, 0
2, 11761, Note_on_c, 0, 78, 93
2, 11761, Note_on_c, 0, 85, 93
2, 11852, Note_on_c, 0, 85, 0
2, 11856, Note_on_c, 0, 78, 0
2, 11876, Control_c, 0, 10, 82
2, 11877, Note_on_c, 0, 82, 92
2, 11880, Control_c, 0, 10, 73
2, 11881, Note_on_c, 0, 73, 95
2, 11971, Note_on_c, 0, 82, 0
2, 11974, Note_on_c, 0, 73, 0
2, 11998, Control_c, 0, 10, 89
2, 11999, Note_on_c, 0, 89, 102
2, 12001, Control_c, 0, 10, 84
2, 12002, Note_on_c, 0, 84, 99
2, 12094, Note_on_c, 0, 89, 0
2, 12097, Note_on_c, 0, 84, 0
2, 12182, Control_c, 0, 10, 80
2, 12183, Control_c, 0, 10, 85
2, 12183, Note_on_c, 0, 80, 96
2, 12184, Note_on_c, 0, 84, 95
2, 12235, Control_c, 0, 10, 82
2, 12236, Note_on_c, 0, 82, 98
2, 12240, Control_c, 0, 10, 78
2, 12241, Note_on_c, 0, 78, 91
2, 12242, Note_on_c, 0, 80, 0
2, 12245, Note_on_c, 0, 84, 0
2, 12332, Note_on_c, 0, 78, 0
2, 12333, Note_on_c, 0, 82, 0
2, 12358, Control_c, 0, 10, 72
2, 12359, Note_on_c, 0, 72, 92
2, 12455, Note_on_c, 0, 72, 0
2, 12481, Control_c, 0, 10, 87
2, 12482, Note_on_c, 0, 87, 102
2, 12575, Note_on_c, 0, 87, 0
2, 12716, Control_c, 0, 10, 85
2, 12717, Note_on_c, 0, 85, 105
2, 12720, Control_c, 0, 10, 73
2, 12721, Note_on_c, 0, 73, 107
2, 12722, Control_c, 0, 10, 80
2, 12723, Note_on_c, 0, 80, 101
2, 12959, Control_c, 0, 10, 78
2, 12960, Note_on_c, 0, 79, 96
2, 12962, Note_on_c, 0, 80, 0
2, 13137, Note_on_c, 0, 85, 0
2, 13139, Note_on_c, 0, 73, 0
2, 13139, Control_c, 0, 10, 83
2, 13140, Note_on_c, 0, 83, 96
2, 13141, Control_c, 0, 10, 71
2, 13142, Note_on_c, 0, 71, 95
2, 13197, Control_c, 0, 10, 75
2, 13198, Note_on_c, 0, 75, 96
2, 13199, Control_c, 0, 10, 87
2, 13200, Note_on_c, 0, 87, 92
2, 13201, Note_on_c, 0, 71, 0
2, 13201, Note_on_c, 0, 79, 0
2, 13201, Note_on_c, 0, 83, 0
2, 13293, Note_on_c, 0, 75, 0
2, 13294, Note_on_c, 0, 87, 0
2, 13316, Control_c, 0, 10, 82
2, 13317, Note_on_c, 0, 82, 94
2, 13323, Control_c, 0, 10, 70
2, 13324, Note_on_c, 0, 70, 94
2, 13414, Note_on_c, 0, 82, 0
2, 13419, Note_on_c, 0, 70, 0
2, 13436, Control_c, 0, 10, 73
2, 13437, Note_on_c, 0, 73, 100
2, 13442, Control_c, 0, 10, 85
2, 13443, Note_on_c, 0, 85, 105
2, 13556, Note_on_c, 0, 73, 0
2, 13561, Note_on_c, 0, 85, 0
2, 13675, Control_c, 0, 10, 83
2, 13676, Note_on_c, 0, 83, 107
2, 13676, Control_c, 0, 10, 73
2, 13677, Note_on_c, 0, 71, 102
2, 13677, Note_on_c, 0, 75, 106
2, 13917, Note_on_c, 0, 75, 0
2, 13923, Control_c, 0, 10, 76
2, 13924, Note_on_c, 0, 76, 96
2, 14035, Note_on_c, 0, 83, 0
2, 14036, Note_on_c, 0, 71, 0
2, 14038, Control_c, 0, 10, 82
2, 14039, Control_c, 0, 10, 70
2, 14039, Note_on_c, 0, 82, 92
2, 14040, Note_on_c, 0, 70, 95
2, 14154, Note_on_c, 0, 82, 0
2, 14159, Note_on_c, 0, 70, 0
2, 14159, Control_c, 0, 10, 76
2, 14160, Note_on_c, 0, 82, 92
2, 14160, Note_on_c, 0, 70, 96
2, 14162, Note_on_c, 0, 76, 0
2, 14237, Note_on_c, 0, 82, 0
2, 14239, Note_on_c, 0, 70, 0
2, 14241, Control_c, 0, 10, 68
2, 14242, Note_on_c, 0, 68, 99
2, 14242, Control_c, 0, 10, 80
2, 14243, Note_on_c, 0, 80, 95
2, 14315, Control_c, 0, 10, 73
2, 14316, Note_on_c, 0, 79, 99
2, 14316, Note_on_c, 0, 67, 92
2, 14319, Note_on_c, 0, 80, 0
2, 14319, Note_on_c, 0, 68, 0
2, 14392, Note_on_c, 0, 67, 0
2, 14395, Control_c, 0, 10, 76
2, 14396, Note_on_c, 0, 79, 0
2, 14396, Note_on_c, 0, 82, 106
2, 14396, Note_on_c, 0, 70, 100
2, 14517, Note_on_c, 0, 70, 0
2, 14517, Note_on_c, 0, 82, 0
2, 14638, Control_c, 0, 10, 68
2, 14639, Note_on_c, 0, 68, 107
2, 14639, Control_c, 0, 10, 75
2, 14640, Note_on_c, 0, 75, 107
2, 14642, Control_c, 0, 10, 80
2, 14643, Note_on_c, 0, 80, 106
2, 14995, Note_on_c, 0, 68, 0
2, 14996, Note_on_c, 0, 75, 0
2, 15000, Note_on_c, 0, 80, 0
2, 15056, Control_c, 0, 10, 66
2, 15057, Note_on_c, 0, 66, 56
2, 15061, Control_c, 0, 10, 75
2, 15062, Note_on_c, 0, 75, 59
2, 15118, Note_on_c, 0, 75, 0
2, 15118, Note_on_c, 0, 66, 0
2, 15120, Control_c, 0, 10, 71
2, 15121, Note_on_c, 0, 71, 59
2, 15123, Control_c, 0, 10, 78
2, 15124, Note_on_c, 0, 78, 59
2, 15218, Note_on_c, 0, 71, 0
2, 15221, Note_on_c, 0, 78, 0
2, 15235, Control_c, 0, 10, 65
2, 15236, Note_on_c, 0, 65, 55
2, 15240, Control_c, 0, 10, 75
2, 15241, Note_on_c, 0, 75, 51
2, 15331, Note_on_c, 0, 65, 0
2, 15337, Note_on_c, 0, 75, 0
2, 15361, Control_c, 0, 10, 69
2, 15362, Note_on_c, 0, 73, 67
2, 15362, Note_on_c, 0, 66, 66
2, 15535, Control_c, 0, 10, 65
2, 15536, Note_on_c, 0, 61, 52
2, 15536, Note_on_c, 0, 70, 55
2, 15540, Note_on_c, 0, 73, 0
2, 15541, Note_on_c, 0, 66, 0
2, 15591, Note_on_c, 0, 70, 0
2, 15595, Control_c, 0, 10, 58
2, 15596, Note_on_c, 0, 61, 0
2, 15596, Note_on_c, 0, 58, 53
2, 15601, Control_c, 0, 10, 66
2, 15602, Note_on_c, 0, 66, 56
2, 15714, Note_on_c, 0, 58, 0
2, 15715, Control_c, 0, 10, 63
2, 15716, Note_on_c, 0, 63, 54
2, 15720, Note_on_c, 0, 66, 0
2, 15832, Note_on_c, 0, 63, 0
2, 15837, Note_on_c, 0, 63, 58
2, 15842, Note_on_c, 0, 68, 56
2, 15842, Note_on_c, 0, 59, 62
2, 16077, Note_on_c, 0, 68, 0
2, 16078, Note_on_c, 0, 63, 0
2, 16081, Control_c, 0, 10, 70
2, 16082, Note_on_c, 0, 70, 59
2, 16083, Control_c, 0, 10, 65
2, 16084, Note_on_c, 0, 65, 54
2, 16259, Note_on_c, 0, 70, 0
2, 16261, Control_c, 0, 10, 70
2, 16262, Note_on_c, 0, 70, 52
2, 16290, Control_c, 0, 10, 68
2, 16291, Note_on_c, 0, 68, 56
2, 16292, Note_on_c, 0, 70, 0
2, 16318, Control_c, 0, 10, 66
2, 16319, Note_on_c, 0, 66, 59
2, 16320, Control_c, 0, 10, 58
2, 16321, Note_on_c, 0, 59, 0
2, 16321, Note_on_c, 0, 58, 67
2, 16322, Note_on_c, 0, 68, 0
2, 16324, Note_on_c, 0, 65, 0
2, 16559, Note_on_c, 0, 66, 0
2, 16679, Control_c, 0, 10, 73
2, 16680, Note_on_c, 0, 73, 58
2, 16681, Control_c, 0, 10, 66
2, 16682, Note_on_c, 0, 66, 53
2, 16795, Note_on_c, 0, 73, 0
2, 16797, Note_on_c, 0, 58, 0
2, 16801, Control_c, 0, 10, 78
2, 16802, Note_on_c, 0, 78, 59
2, 16803, Control_c, 0, 10, 70
2, 16804, Note_on_c, 0, 70, 61
2, 16918, Note_on_c, 0, 78, 0
2, 16919, Note_on_c, 0, 70, 0
2, 16980, Note_on_c, 0, 70, 86
2, 17037, Note_on_c, 0, 66, 0
2, 17042, Control_c, 0, 10, 73
2, 17043, Note_on_c, 0, 73, 81
2, 17119, Note_on_c, 0, 70, 0
2, 17139, Note_on_c, 0, 73, 0
2, 17156, Control_c, 0, 10, 75
2, 17157, Note_on_c, 0, 75, 88
2, 17162, Control_c, 0, 10, 72
2, 17163, Note_on_c, 0, 72, 87
2, 17249, Note_on_c, 0, 75, 0
2, 17257, Note_on_c, 0, 72, 0
2, 17280, Control_c, 0, 10, 77
2, 17281, Note_on_c, 0, 77, 102
2, 17282, Control_c, 0, 10, 73
2, 17283, Note_on_c, 0, 73, 104
2, 17458, Note_on_c, 0, 73, 0
2, 17459, Control_c, 0, 10, 82
2, 17460, Note_on_c, 0, 77, 0
2, 17460, Note_on_c, 0, 82, 83
2, 17520, Control_c, 0, 10, 73
2, 17521, Note_on_c, 0, 82, 0
2, 17521, Control_c, 0, 10, 77
2, 17521, Note_on_c, 0, 73, 86
2, 17522, Note_on_c, 0, 77, 83
2, 17636, Note_on_c, 0, 73, 0
2, 17639, Note_on_c, 0, 77, 0
2, 17639, Control_c, 0, 10, 72
2, 17640, Note_on_c, 0, 72, 85
2, 17640, Control_c, 0, 10, 75
2, 17641, Note_on_c, 0, 75, 89
2, 17757, Control_c, 0, 10, 73
2, 17758, Note_on_c, 0, 73, 96
2, 17759, Control_c, 0, 10, 77
2, 17760, Note_on_c, 0, 75, 0
2, 17760, Note_on_c, 0, 77, 98
2, 17761, Note_on_c, 0, 72, 0
2, 17933, Note_on_c, 0, 73, 0
2, 17935, Note_on_c, 0, 77, 0
2, 17936, Control_c, 0, 10, 82
2, 17937, Note_on_c, 0, 82, 88
2, 17998, Note_on_c, 0, 82, 0
2, 18000, Control_c, 0, 10, 77
2, 18001, Control_c, 0, 10, 73
2, 18001, Note_on_c, 0, 77, 86
2, 18002, Note_on_c, 0, 73, 84
2, 18116, Note_on_c, 0, 77, 0
2, 18120, Control_c, 0, 10, 72
2, 18121, Note_on_c, 0, 72, 81
2, 18122, Note_on_c, 0, 73, 0
2, 18122, Control_c, 0, 10, 75
2, 18123, Note_on_c, 0, 75, 85
2, 18237, Control_c, 0, 10, 73
2, 18238, Note_on_c, 0, 73, 92
2, 18241, Note_on_c, 0, 75, 0
2, 18242, Note_on_c, 0, 72, 0
2, 18296, Note_on_c, 0, 73, 0
2, 18296, Control_c, 0, 10, 75
2, 18297, Note_on_c, 0, 75, 89
2, 18354, Note_on_c, 0, 75, 0
2, 18359, Control_c, 0, 10, 72
2, 18360, Note_on_c, 0, 72, 81
2, 18421, Note_on_c, 0, 72, 0
2, 18421, Control_c, 0, 10, 73
2, 18422, Note_on_c, 0, 73, 84
2, 18479, Note_on_c, 0, 73, 0
2, 18480, Control_c, 0, 10, 70
2, 18481, Note_on_c, 0, 70, 82
2, 18776, Control_c, 0, 10, 72
2, 18777, Note_on_c, 0, 70, 0
2, 18777, Note_on_c, 0, 72, 62
2, 18836, Note_on_c, 0, 72, 0
2, 18842, Control_c, 0, 10, 68
2, 18843, Note_on_c, 0, 68, 61
2, 18896, Control_c, 0, 10, 70
2, 18897, Note_on_c, 0, 70, 65
2, 18901, Note_on_c, 0, 68, 0
2, 18955, Control_c, 0, 10, 66
2, 18956, Note_on_c, 0, 70, 0
2, 18956, Note_on_c, 0, 66, 69
2, 19011, Note_on_c, 0, 66, 0
2, 19023, Control_c, 0, 10, 68
2, 19024, Note_on_c, 0, 68, 63
2, 19078, Control_c, 0, 10, 65
2, 19079, Note_on_c, 0, 65, 65
2, 19083, Note_on_c, 0, 68, 0
2, 19137, Control_c, 0, 10, 66
2, 19138, Note_on_c, 0, 66, 69
2, 19139, Note_on_c, 0, 65, 0
2, 19194, Note_on_c, 0, 66, 0
2, 19197, Control_c, 0, 10, 63
2, 19198, Note_on_c, 0, 63, 77
2, 19375, Control_c, 0, 10, 68
2, 19376, Note_on_c, 0, 63, 0
2, 19376, Note_on_c, 0, 70, 64
2, 19376, Note_on_c, 0, 66, 69
2, 19435, Note_on_c, 0, 66, 0
2, 19435, Note_on_c, 0, 70, 0
2, 19440, Control_c, 0, 10, 63
2, 19441, Note_on_c, 0, 63, 65
2, 19533, Note_on_c, 0, 63, 0
2, 19560, Control_c, 0, 10, 61
2, 19561, Note_on_c, 0, 61, 69
2, 19654, Note_on_c, 0, 61, 0
2, 19675, Control_c, 0, 10, 63
2, 19676, Note_on_c, 0, 63, 70
2, 19854, Note_on_c, 0, 63, 0
2, 19857, Control_c, 0, 10, 70
2, 19858, Note_on_c, 0, 70, 65
2, 19861, Control_c, 0, 10, 66
2, 19862, Note_on_c, 0, 66, 67
2, 19913, Note_on_c, 0, 70, 0
2, 19915, Control_c, 0, 10, 63
2, 19916, Note_on_c, 0, 63, 67
2, 19918, Note_on_c, 0, 66, 0
2, 20010, Note_on_c, 0, 63, 0
2, 20038, Control_c, 0, 10, 61
2, 20039, Note_on_c, 0, 61, 69
2, 20134, Note_on_c, 0, 61, 0
2, 20157, Control_c, 0, 10, 63
2, 20158, Note_on_c, 0, 63, 72
2, 20215, Note_on_c, 0, 63, 0
2, 20219, Control_c, 0, 10, 65
2, 20220, Note_on_c, 0, 65, 67
2, 20276, Note_on_c, 0, 65, 0
2, 20276, Control_c, 0, 10, 61
2, 20277, Note_on_c, 0, 61, 62
2, 20333, Note_on_c, 0, 61, 0
2, 20343, Control_c, 0, 10, 63
2, 20344, Note_on_c, 0, 63, 62
2, 20396, Control_c, 0, 10, 65
2, 20397, Note_on_c, 0, 65, 64
2, 20402, Note_on_c, 0, 63, 0
2, 20752, Note_on_c, 0, 65, 0
2, 20820, Control_c, 0, 10, 77
2, 20821, Note_on_c, 0, 77, 77
2, 20875, Control_c, 0, 10, 80
2, 20876, Note_on_c, 0, 80, 73
2, 20879, Note_on_c, 0, 77, 0
2, 20970, Note_on_c, 0, 80, 0
2, 20995, Control_c, 0, 10, 75
2, 20996, Note_on_c, 0, 75, 74
2, 21088, Note_on_c, 0, 75, 0
2, 21115, Control_c, 0, 10, 78
2, 21116, Note_on_c, 0, 78, 82
2, 21208, Note_on_c, 0, 78, 0
2, 21355, Control_c, 0, 10, 73
2, 21356, Note_on_c, 0, 73, 82
2, 21357, Control_c, 0, 10, 77
2, 21358, Note_on_c, 0, 77, 85
2, 21593, Note_on_c, 0, 73, 0
2, 21598, Control_c, 0, 10, 72
2, 21599, Note_on_c, 0, 72, 75
2, 21714, Note_on_c, 0, 77, 0
2, 21721, Control_c, 0, 10, 75
2, 21722, Note_on_c, 0, 75, 75
2, 21808, Control_c, 0, 10, 77
2, 21809, Note_on_c, 0, 77, 75
2, 21834, Note_on_c, 0, 77, 0
2, 21835, Control_c, 0, 10, 75
2, 21836, Note_on_c, 0, 75, 73
2, 21841, Note_on_c, 0, 75, 0
2, 21913, Note_on_c, 0, 75, 0
2, 21921, Control_c, 0, 10, 73
2, 21922, Note_on_c, 0, 73, 72
2, 21954, Note_on_c, 0, 72, 0
2, 21999, Note_on_c, 0, 73, 0
2, 22000, Control_c, 0, 10, 72
2, 22001, Note_on_c, 0, 72, 73
2, 22075, Control_c, 0, 10, 75
2, 22076, Note_on_c, 0, 75, 87
2, 22080, Note_on_c, 0, 72, 0
2, 22196, Note_on_c, 0, 75, 0
2, 22315, Control_c, 0, 10, 73
2, 22316, Control_c, 0, 10, 68
2, 22316, Note_on_c, 0, 73, 79
2, 22317, Note_on_c, 0, 68, 72
2, 22674, Note_on_c, 0, 68, 0
2, 22674, Note_on_c, 0, 73, 0
2, 22743, Control_c, 0, 10, 61
2, 22744, Note_on_c, 0, 61, 81
2, 22800, Note_on_c, 0, 61, 0
2, 22802, Control_c, 0, 10, 65
2, 22803, Note_on_c, 0, 65, 88
2, 22900, Note_on_c, 0, 65, 0
2, 22915, Control_c, 0, 10, 64
2, 22916, Note_on_c, 0, 64, 99
2, 22921, Control_c, 0, 10, 67
2, 22922, Note_on_c, 0, 67, 97
2, 22923, Control_c, 0, 10, 55
2, 22924, Note_on_c, 0, 55, 96
2, 23032, Note_on_c, 0, 64, 0
2, 23040, Control_c, 0, 10, 66
2, 23041, Note_on_c, 0, 68, 105
2, 23041, Note_on_c, 0, 65, 105
2, 23041, Control_c, 0, 10, 56
2, 23042, Note_on_c, 0, 55, 0
2, 23042, Note_on_c, 0, 56, 108
2, 23043, Note_on_c, 0, 67, 0
2, 23219, Note_on_c, 0, 65, 0
2, 23219, Control_c, 0, 10, 65
2, 23220, Note_on_c, 0, 65, 87
2, 23221, Note_on_c, 0, 56, 0
2, 23222, Note_on_c, 0, 68, 0
2, 23277, Control_c, 0, 10, 68
2, 23278, Note_on_c, 0, 68, 89
2, 23281, Note_on_c, 0, 65, 0
2, 23374, Note_on_c, 0, 68, 0
2, 23396, Control_c, 0, 10, 67
2, 23397, Note_on_c, 0, 67, 97
2, 23399, Control_c, 0, 10, 70
2, 23400, Note_on_c, 0, 70, 96
2, 23400, Control_c, 0, 10, 58
2, 23401, Note_on_c, 0, 58, 100
2, 23514, Note_on_c, 0, 67, 0
2, 23515, Note_on_c, 0, 70, 0
2, 23517, Note_on_c, 0, 58, 0
2, 23517, Control_c, 0, 10, 60
2, 23518, Note_on_c, 0, 60, 97
2, 23519, Control_c, 0, 10, 72
2, 23520, Note_on_c, 0, 72, 96
2, 23520, Control_c, 0, 10, 68
2, 23521, Note_on_c, 0, 68, 100
2, 23695, Note_on_c, 0, 72, 0
2, 23699, Note_on_c, 0, 60, 0
2, 23702, Note_on_c, 0, 68, 0
2, 23702, Note_on_c, 0, 68, 85
2, 23755, Control_c, 0, 10, 72
2, 23756, Note_on_c, 0, 72, 89
2, 23760, Note_on_c, 0, 68, 0
2, 23851, Note_on_c, 0, 72, 0
2, 23881, Note_on_c, 0, 71, 92
2, 23881, Note_on_c, 0, 74, 94
2, 23882, Control_c, 0, 10, 62
2, 23883, Note_on_c, 0, 62, 93
2, 23995, Control_c, 0, 10, 76
2, 23996, Note_on_c, 0, 76, 100
2, 23996, Control_c, 0, 10, 68
2, 23997, Note_on_c, 0, 64, 108
2, 23997, Note_on_c, 0, 72, 102
2, 23998, Note_on_c, 0, 62, 0
2, 23998, Note_on_c, 0, 71, 0
2, 23998, Note_on_c, 0, 74, 0
2, 23998, Control_c, 0, 10, 67
2, 23999, Note_on_c, 0, 67, 100
2, 24172, Note_on_c, 0, 72, 0
2, 24174, Note_on_c, 0, 67, 0
2, 24175, Note_on_c, 0, 76, 0
2, 24175, Control_c, 0, 10, 72
2, 24176, Note_on_c, 0, 64, 0
2, 24176, Note_on_c, 0, 72, 94
2, 24176, Control_c, 0, 10, 65
2, 24177, Note_on_c, 0, 65, 96
2, 24177, Control_c, 0, 10, 77
2, 24178, Note_on_c, 0, 77, 92
2, 24180, Control_c, 0, 10, 69
2, 24181, Note_on_c, 0, 69, 99
2, 24593, Note_on_c, 0, 72, 0
2, 24598, Note_on_c, 0, 65, 0
2, 24598, Note_on_c, 0, 77, 0
2, 24600, Note_on_c, 0, 69, 0
2, 24657, Control_c, 0, 10, 70
2, 24658, Note_on_c, 0, 70, 92
2, 24661, Control_c, 0, 10, 82
2, 24662, Note_on_c, 0, 82, 98
2, 24714, Note_on_c, 0, 70, 0
2, 24718, Control_c, 0, 10, 85
2, 24719, Note_on_c, 0, 85, 94
2, 24719, Control_c, 0, 10, 73
2, 24720, Note_on_c, 0, 73, 93
2, 24722, Note_on_c, 0, 82, 0
2, 24813, Note_on_c, 0, 73, 0
2, 24814, Note_on_c, 0, 85, 0
2, 24840, Control_c, 0, 10, 84
2, 24841, Note_on_c, 0, 84, 94
2, 24841, Control_c, 0, 10, 87
2, 24842, Note_on_c, 0, 87, 95
2, 24843, Control_c, 0, 10, 75
2, 24844, Note_on_c, 0, 75, 94
2, 24938, Note_on_c, 0, 87, 0
2, 24938, Note_on_c, 0, 84, 0
2, 24939, Note_on_c, 0, 75, 0
2, 24958, Control_c, 0, 10, 77
2, 24959, Note_on_c, 0, 77, 103
2, 24961, Control_c, 0, 10, 89
2, 24962, Note_on_c, 0, 89, 107
2, 24962, Control_c, 0, 10, 85
2, 24963, Note_on_c, 0, 85, 104
2, 25138, Note_on_c, 0, 77, 0
2, 25140, Control_c, 0, 10, 94
2, 25141, Note_on_c, 0, 94, 97
2, 25142, Note_on_c, 0, 85, 0
2, 25143, Note_on_c, 0, 89, 0
2, 25143, Control_c, 0, 10, 82
2, 25144, Note_on_c, 0, 82, 91
2, 25196, Control_c, 0, 10, 89
2, 25197, Note_on_c, 0, 89, 94
2, 25198, Note_on_c, 0, 94, 0
2, 25204, Note_on_c, 0, 82, 0
2, 25314, Note_on_c, 0, 89, 0
2, 25315, Control_c, 0, 10, 87
2, 25316, Note_on_c, 0, 87, 103
2, 25317, Control_c, 0, 10, 84
2, 25318, Note_on_c, 0, 84, 104
2, 25319, Control_c, 0, 10, 75
2, 25320, Note_on_c, 0, 75, 108
2, 25433, Note_on_c, 0, 87, 0
2, 25436, Control_c, 0, 10, 89
2, 25437, Note_on_c, 0, 84, 0
2, 25437, Note_on_c, 0, 89, 112
2, 25438, Note_on_c, 0, 75, 0
2, 25438, Control_c, 0, 10, 77
2, 25439, Note_on_c, 0, 77, 112
2, 25441, Control_c, 0, 10, 85
2, 25442, Note_on_c, 0, 85, 107
2, 25614, Note_on_c, 0, 89, 0
2, 25616, Control_c, 0, 10, 82
2, 25617, Note_on_c, 0, 85, 0
2, 25617, Note_on_c, 0, 82, 91
2, 25617, Control_c, 0, 10, 94
2, 25618, Note_on_c, 0, 94, 97
2, 25619, Note_on_c, 0, 77, 0
2, 25675, Note_on_c, 0, 82, 0
2, 25679, Note_on_c, 0, 94, 0
2, 25683, Control_c, 0, 10, 89
2, 25684, Note_on_c, 0, 89, 98
2, 25799, Control_c, 0, 10, 72
2, 25800, Note_on_c, 0, 72, 98
2, 25802, Control_c, 0, 10, 75
2, 25803, Note_on_c, 0, 75, 99
2, 25805, Note_on_c, 0, 89, 0
2, 25920, Note_on_c, 0, 75, 0
2, 25920, Note_on_c, 0, 72, 0
2, 25922, Control_c, 0, 10, 71
2, 25923, Note_on_c, 0, 73, 105
2, 25923, Note_on_c, 0, 70, 109
2, 25979, Note_on_c, 0, 70, 0
2, 25981, Note_on_c, 0, 73, 0
2, 25982, Control_c, 0, 10, 75
2, 25983, Note_on_c, 0, 75, 95
2, 26040, Control_c, 0, 10, 65
2, 26041, Note_on_c, 0, 65, 108
2, 26041, Control_c, 0, 10, 72
2, 26042, Note_on_c, 0, 72, 104
2, 26043, Note_on_c, 0, 75, 0
2, 26096, Note_on_c, 0, 65, 0
2, 26101, Note_on_c, 0, 72, 0
2, 26101, Control_c, 0, 10, 73
2, 26102, Note_on_c, 0, 73, 99
2, 26155, Control_c, 0, 10, 65
2, 26156, Note_on_c, 0, 65, 91
2, 26163, Note_on_c, 0, 73, 0
2, 26163, Control_c, 0, 10, 70
2, 26164, Note_on_c, 0, 70, 92
2, 26453, Note_on_c, 0, 65, 0
2, 26461, Note_on_c, 0, 70, 0
2, 26463, Control_c, 0, 10, 72
2, 26464, Note_on_c, 0, 72, 47
2, 26516, Control_c, 0, 10, 68
2, 26517, Note_on_c, 0, 68, 46
2, 26525, Note_on_c, 0, 72, 0
2, 26572, Note_on_c, 0, 68, 0
2, 26582, Control_c, 0, 10, 70
2, 26583, Note_on_c, 0, 70, 49
2, 26635, Control_c, 0, 10, 66
2, 26636, Note_on_c, 0, 66, 53
2, 26643, Note_on_c, 0, 70, 0
2, 26693, Note_on_c, 0, 66, 0
2, 26696, Control_c, 0, 10, 68
2, 26697, Note_on_c, 0, 68, 48
2, 26752, Note_on_c, 0, 68, 0
2, 26758, Control_c, 0, 10, 65
2, 26759, Note_on_c, 0, 65, 48
2, 26819, Note_on_c, 0, 65, 0
2, 26822, Control_c, 0, 10, 66
2, 26823, Note_on_c, 0, 66, 52
2, 26880, Note_on_c, 0, 66, 0
2, 26883, Control_c, 0, 10, 63
2, 26884, Note_on_c, 0, 63, 56
2, 27055, Control_c, 0, 10, 66
2, 27056, Note_on_c, 0, 66, 54
2, 27062, Note_on_c, 0, 63, 0
2, 27062, Control_c, 0, 10, 70
2, 27063, Note_on_c, 0, 70, 58
2, 27113, Note_on_c, 0, 66, 0
2, 27118, Note_on_c, 0, 70, 0
2, 27119, Control_c, 0, 10, 63
2, 27120, Note_on_c, 0, 63, 58
2, 27216, Note_on_c, 0, 63, 0
2, 27243, Control_c, 0, 10, 61
2, 27244, Note_on_c, 0, 61, 53
2, 27336, Note_on_c, 0, 61, 0
2, 27360, Control_c, 0, 10, 63
2, 27361, Note_on_c, 0, 63, 60
2, 27539, Note_on_c, 0, 63, 0
2, 27539, Control_c, 0, 10, 70
2, 27540, Note_on_c, 0, 70, 61
2, 27543, Control_c, 0, 10, 66
2, 27544, Note_on_c, 0, 66, 60
2, 27595, Note_on_c, 0, 70, 0
2, 27603, Control_c, 0, 10, 63
2, 27604, Note_on_c, 0, 66, 0
2, 27604, Note_on_c, 0, 63, 61
2, 27700, Note_on_c, 0, 63, 0
2, 27721, Control_c, 0, 10, 61
2, 27722, Note_on_c, 0, 61, 60
2, 27819, Note_on_c, 0, 61, 0
2, 27837, Control_c, 0, 10, 63
2, 27838, Note_on_c, 0, 63, 72
2, 27895, Note_on_c, 0, 63, 0
2, 27900, Control_c, 0, 10, 65
2, 27901, Note_on_c, 0, 65, 65
2, 27959, Note_on_c, 0, 65, 0
2, 27959, Control_c, 0, 10, 61
2, 27960, Note_on_c, 0, 61, 67
2, 28020, Note_on_c, 0, 61, 0
2, 28021, Control_c, 0, 10, 63
2, 28022, Note_on_c, 0, 63, 63
2, 28075, Control_c, 0, 10, 65
2, 28076, Note_on_c, 0, 65, 66
2, 28079, Note_on_c, 0, 63, 0
2, 28432, Note_on_c, 0, 65, 0
2, 28920, Control_c, 0, 10, 70
2, 28921, Note_on_c, 0, 70, 82
2, 28922, Control_c, 0, 10, 62
2, 28923, Note_on_c, 0, 64, 80
2, 28923, Note_on_c, 0, 61, 77
2, 28976, Note_on_c, 0, 70, 0
2, 28978, Note_on_c, 0, 61, 0
2, 28980, Note_on_c, 0, 64, 0
2, 29398, Control_c, 0, 10, 63
2, 29399, Note_on_c, 0, 63, 97
2, 29400, Control_c, 0, 10, 65
2, 29401, Note_on_c, 0, 65, 92
2, 29403, Control_c, 0, 10, 57
2, 29404, Note_on_c, 0, 57, 99
2, 29458, Note_on_c, 0, 63, 0
2, 29459, Note_on_c, 0, 57, 0
2, 29461, Note_on_c, 0, 65, 0
2, 29877, Control_c, 0, 10, 73
2, 29878, Note_on_c, 0, 73, 100
2, 29881, Control_c, 0, 10, 70
2, 29882, Note_on_c, 0, 70, 99
2, 29883, Control_c, 0, 10, 79
2, 29884, Note_on_c, 0, 76, 99
2, 29884, Note_on_c, 0, 82, 102
2, 29939, Note_on_c, 0, 73, 0
2, 29941, Note_on_c, 0, 76, 0
2, 29943, Note_on_c, 0, 70, 0
2, 29943, Note_on_c, 0, 82, 0
2, 30357, Control_c, 0, 10, 82
2, 30358, Note_on_c, 0, 77, 101
2, 30358, Note_on_c, 0, 81, 107
2, 30358, Note_on_c, 0, 89, 101
2, 30359, Control_c, 0, 10, 87
2, 30360, Note_on_c, 0, 87, 101
2, 30413, Note_on_c, 0, 77, 0
2, 30415, Note_on_c, 0, 87, 0
2, 30417, Note_on_c, 0, 89, 0
2, 30417, Note_on_c, 0, 81, 0
2, 30779, Control_c, 0, 10, 48
2, 30780, Note_on_c, 0, 48, 66
2, 30839, Note_on_c, 0, 48, 0
2, 30896, Control_c, 0, 10, 46
2, 30897, Note_on_c, 0, 46, 61
2, 30956, Note_on_c, 0, 46, 0
2, 31018, Control_c, 0, 10, 44
2, 31019, Note_on_c, 0, 44, 54
2, 31077, Note_on_c, 0, 44, 0
2, 31138, Control_c, 0, 10, 42
2, 31139, Note_on_c, 0, 42, 53
2, 31200, Note_on_c, 0, 42, 0
2, 31320, Control_c, 0, 10, 56
2, 31321, Control_c, 0, 10, 49
2, 31321, Note_on_c, 0, 58, 51
2, 31321, Note_on_c, 0, 54, 50
2, 31322, Note_on_c, 0, 49, 53
2, 31437, Note_on_c, 0, 58, 0
2, 31439, Note_on_c, 0, 54, 0
2, 31443, Note_on_c, 0, 49, 0
2, 31556, Control_c, 0, 10, 53
2, 31557, Note_on_c, 0, 53, 42
2, 31557, Control_c, 0, 10, 57
2, 31558, Note_on_c, 0, 57, 41
2, 31562, Control_c, 0, 10, 48
2, 31563, Note_on_c, 0, 48, 43
2, 31676, Note_on_c, 0, 53, 0
2, 31679, Note_on_c, 0, 57, 0
2, 31680, Note_on_c, 0, 48, 0
2, 31863, Control_c, 0, 10, 73
2, 31864, Note_on_c, 0, 73, 73
2, 31915, Control_c, 0, 10, 77
2, 31916, Note_on_c, 0, 77, 74
2, 31921, Note_on_c, 0, 73, 0
2, 32009, Note_on_c, 0, 77, 0
2, 32035, Control_c, 0, 10, 72
2, 32036, Note_on_c, 0, 72, 77
2, 32132, Note_on_c, 0, 72, 0
2, 32156, Control_c, 0, 10, 75
2, 32157, Note_on_c, 0, 75, 81
2, 32276, Control_c, 0, 10, 65
2, 32277, Note_on_c, 0, 65, 72
2, 32337, Note_on_c, 0, 75, 0
2, 32342, Control_c, 0, 10, 73
2, 32343, Note_on_c, 0, 73, 77
2, 32398, Note_on_c, 0, 73, 0
2, 32400, Control_c, 0, 10, 77
2, 32401, Note_on_c, 0, 77, 75
2, 32494, Note_on_c, 0, 77, 0
2, 32519, Control_c, 0, 10, 72
2, 32520, Note_on_c, 0, 72, 76
2, 32611, Note_on_c, 0, 72, 0
2, 32635, Control_c, 0, 10, 75
2, 32636, Note_on_c, 0, 75, 82
2, 32757, Note_on_c, 0, 65, 0
2, 32761, Control_c, 0, 10, 65
2, 32762, Note_on_c, 0, 65, 77
2, 32811, Note_on_c, 0, 75, 0
2, 32820, Control_c, 0, 10, 73
2, 32821, Note_on_c, 0, 73, 79
2, 32879, Control_c, 0, 10, 77
2, 32880, Note_on_c, 0, 73, 0
2, 32880, Note_on_c, 0, 77, 72
2, 32977, Note_on_c, 0, 77, 0
2, 32998, Control_c, 0, 10, 71
2, 32999, Note_on_c, 0, 71, 74
2, 33092, Note_on_c, 0, 71, 0
2, 33116, Control_c, 0, 10, 75
2, 33117, Note_on_c, 0, 75, 78
2, 33242, Note_on_c, 0, 65, 0
2, 33242, Control_c, 0, 10, 65
2, 33243, Note_on_c, 0, 65, 73
2, 33292, Note_on_c, 0, 75, 0
2, 33299, Control_c, 0, 10, 70
2, 33300, Note_on_c, 0, 70, 65
2, 33357, Note_on_c, 0, 70, 0
2, 33360, Control_c, 0, 10, 73
2, 33361, Note_on_c, 0, 73, 66
2, 33454, Note_on_c, 0, 73, 0
2, 33475, Control_c, 0, 10, 68
2, 33476, Note_on_c, 0, 68, 66
2, 33570, Note_on_c, 0, 68, 0
2, 33598, Note_on_c, 0, 65, 0
2, 33602, Control_c, 0, 10, 71
2, 33603, Note_on_c, 0, 71, 73
2, 33698, Note_on_c, 0, 71, 0
2, 33839, Control_c, 0, 10, 68
2, 33840, Note_on_c, 0, 70, 61
2, 33840, Note_on_c, 0, 66, 64
2, 34075, Control_c, 0, 10, 59
2, 34076, Note_on_c, 0, 59, 67
2, 34077, Control_c, 0, 10, 65
2, 34078, Note_on_c, 0, 65, 71
2, 34081, Note_on_c, 0, 66, 0
2, 34195, Control_c, 0, 10, 68
2, 34196, Note_on_c, 0, 68, 67
2, 34200, Note_on_c, 0, 70, 0
2, 34287, Control_c, 0, 10, 70
2, 34288, Note_on_c, 0, 70, 63
2, 34311, Note_on_c, 0, 68, 0
2, 34314, Note_on_c, 0, 65, 0
2, 34315, Note_on_c, 0, 70, 0
2, 34322, Control_c, 0, 10, 68
2, 34323, Note_on_c, 0, 68, 66
2, 34398, Note_on_c, 0, 68, 0
2, 34399, Control_c, 0, 10, 66
2, 34400, Note_on_c, 0, 66, 61
2, 34475, Control_c, 0, 10, 65
2, 34476, Note_on_c, 0, 65, 63
2, 34481, Note_on_c, 0, 66, 0
2, 34555, Note_on_c, 0, 65, 0
2, 34560, Control_c, 0, 10, 68
2, 34561, Note_on_c, 0, 68, 73
2, 34674, Note_on_c, 0, 59, 0
2, 34676, Note_on_c, 0, 68, 0
2, 34797, Control_c, 0, 10, 58
2, 34798, Note_on_c, 0, 58, 66
2, 34800, Control_c, 0, 10, 66
2, 34801, Note_on_c, 0, 66, 63
2, 35214, Note_on_c, 0, 58, 0
2, 35217, Note_on_c, 0, 66, 0
2, 35217, Control_c, 0, 10, 61
2, 35218, Note_on_c, 0, 61, 65
2, 35221, Control_c, 0, 10, 70
2, 35222, Note_on_c, 0, 70, 66
2, 35274, Note_on_c, 0, 61, 0
2, 35276, Control_c, 0, 10, 73
2, 35277, Note_on_c, 0, 73, 63
2, 35278, Control_c, 0, 10, 66
2, 35279, Note_on_c, 0, 70, 0
2, 35279, Note_on_c, 0, 66, 68
2, 35369, Note_on_c, 0, 73, 0
2, 35376, Note_on_c, 0, 66, 0
2, 35397, Control_c, 0, 10, 70
2, 35398, Note_on_c, 0, 70, 69
2, 35402, Control_c, 0, 10, 75
2, 35403, Note_on_c, 0, 75, 62
2, 35495, Note_on_c, 0, 70, 0
2, 35500, Note_on_c, 0, 75, 0
2, 35519, Control_c, 0, 10, 78
2, 35520, Note_on_c, 0, 78, 72
2, 35521, Control_c, 0, 10, 73
2, 35522, Note_on_c, 0, 73, 76
2, 35613, Note_on_c, 0, 73, 0
2, 35613, Note_on_c, 0, 78, 0
2, 35699, Control_c, 0, 10, 70
2, 35700, Note_on_c, 0, 70, 62
2, 35703, Control_c, 0, 10, 75
2, 35704, Note_on_c, 0, 75, 62
2, 35755, Control_c, 0, 10, 73
2, 35756, Note_on_c, 0, 73, 67
2, 35760, Control_c, 0, 10, 66
2, 35761, Note_on_c, 0, 75, 0
2, 35761, Note_on_c, 0, 70, 0
2, 35761, Note_on_c, 0, 66, 65
2, 35847, Note_on_c, 0, 73, 0
2, 35857, Note_on_c, 0, 66, 0
2, 35881, Control_c, 0, 10, 70
2, 35882, Note_on_c, 0, 70, 63
2, 35882, Control_c, 0, 10, 61
2, 35883, Note_on_c, 0, 61, 61
2, 35979, Note_on_c, 0, 70, 0
2, 35980, Note_on_c, 0, 61, 0
2, 35998, Control_c, 0, 10, 77
2, 35999, Note_on_c, 0, 77, 65
2, 36095, Note_on_c, 0, 77, 0
2, 36175, Control_c, 0, 10, 68
2, 36176, Note_on_c, 0, 68, 65
2, 36180, Control_c, 0, 10, 72
2, 36181, Note_on_c, 0, 72, 63
2, 36231, Note_on_c, 0, 68, 0
2, 36240, Note_on_c, 0, 72, 0
2, 36243, Control_c, 0, 10, 68
2, 36244, Note_on_c, 0, 66, 63
2, 36244, Note_on_c, 0, 70, 63
2, 36340, Note_on_c, 0, 70, 0
2, 36341, Note_on_c, 0, 66, 0
2, 36355, Control_c, 0, 10, 60
2, 36356, Note_on_c, 0, 60, 63
2, 36449, Note_on_c, 0, 60, 0
2, 36481, Control_c, 0, 10, 75
2, 36482, Note_on_c, 0, 75, 69
2, 36579, Note_on_c, 0, 75, 0
2, 36716, Control_c, 0, 10, 68
2, 36717, Note_on_c, 0, 68, 73
2, 36722, Control_c, 0, 10, 73
2, 36723, Note_on_c, 0, 73, 70
2, 36958, Note_on_c, 0, 68, 0
2, 36958, Control_c, 0, 10, 67
2, 36959, Note_on_c, 0, 67, 74
2, 37137, Control_c, 0, 10, 71
2, 37138, Note_on_c, 0, 73, 0
2, 37138, Note_on_c, 0, 71, 76
2, 37196, Note_on_c, 0, 71, 0
2, 37200, Control_c, 0, 10, 75
2, 37201, Note_on_c, 0, 75, 71
2, 37296, Note_on_c, 0, 75, 0
2, 37319, Control_c, 0, 10, 70
2, 37320, Note_on_c, 0, 70, 74
2, 37417, Note_on_c, 0, 70, 0
2, 37438, Note_on_c, 0, 67, 0
2, 37441, Control_c, 0, 10, 73
2, 37442, Note_on_c, 0, 73, 77
2, 37533, Note_on_c, 0, 73, 0
2, 37676, Control_c, 0, 10, 69
2, 37677, Note_on_c, 0, 71, 79
2, 37677, Note_on_c, 0, 68, 82
2, 37913, Note_on_c, 0, 68, 0
2, 37916, Control_c, 0, 10, 67
2, 37917, Note_on_c, 0, 67, 86
2, 37919, Control_c, 0, 10, 64
2, 37920, Note_on_c, 0, 64, 85
2, 38033, Note_on_c, 0, 71, 0
2, 38041, Control_c, 0, 10, 70
2, 38042, Note_on_c, 0, 70, 82
2, 38126, Control_c, 0, 10, 71
2, 38127, Note_on_c, 0, 71, 79
2, 38155, Note_on_c, 0, 71, 0
2, 38155, Note_on_c, 0, 64, 0
2, 38157, Note_on_c, 0, 70, 0
2, 38158, Note_on_c, 0, 67, 0
2, 38159, Control_c, 0, 10, 64
2, 38160, Note_on_c, 0, 64, 76
2, 38162, Control_c, 0, 10, 70
2, 38163, Note_on_c, 0, 70, 77
2, 38235, Control_c, 0, 10, 68
2, 38236, Note_on_c, 0, 68, 81
2, 38243, Note_on_c, 0, 70, 0
2, 38314, Note_on_c, 0, 68, 0
2, 38319, Control_c, 0, 10, 67
2, 38320, Note_on_c, 0, 67, 83
2, 38396, Note_on_c, 0, 67, 0
2, 38397, Control_c, 0, 10, 70
2, 38398, Note_on_c, 0, 64, 0
2, 38398, Note_on_c, 0, 70, 90
2, 38403, Control_c, 0, 10, 64
2, 38404, Note_on_c, 0, 64, 83
2, 38513, Note_on_c, 0, 70, 0
2, 38522, Note_on_c, 0, 64, 0
2, 38642, Control_c, 0, 10, 65
2, 38643, Note_on_c, 0, 68, 75
2, 38643, Note_on_c, 0, 63, 79
2, 38998, Note_on_c, 0, 68, 0
2, 39002, Note_on_c, 0, 63, 0
2, 39055, Control_c, 0, 10, 75
2, 39056, Note_on_c, 0, 75, 62
2, 39061, Control_c, 0, 10, 66
2, 39062, Note_on_c, 0, 66, 69
2, 39111, Note_on_c, 0, 75, 0
2, 39117, Control_c, 0, 10, 78
2, 39118, Note_on_c, 0, 78, 63
2, 39121, Control_c, 0, 10, 71
2, 39122, Note_on_c, 0, 71, 66
2, 39123, Note_on_c, 0, 66, 0
2, 39213, Note_on_c, 0, 78, 0
2, 39218, Note_on_c, 0, 71, 0
2, 39235, Control_c, 0, 10, 75
2, 39236, Note_on_c, 0, 75, 68
2, 39242, Control_c, 0, 10, 65
2, 39243, Note_on_c, 0, 65, 63
2, 39328, Note_on_c, 0, 75, 0
2, 39339, Note_on_c, 0, 65, 0
2, 39356, Control_c, 0, 10, 73
2, 39357, Note_on_c, 0, 73, 77
2, 39361, Control_c, 0, 10, 66
2, 39362, Note_on_c, 0, 66, 70
2, 39535, Control_c, 0, 10, 61
2, 39536, Note_on_c, 0, 61, 69
2, 39537, Note_on_c, 0, 66, 0
2, 39537, Control_c, 0, 10, 70
2, 39538, Note_on_c, 0, 73, 0
2, 39538, Note_on_c, 0, 70, 68
2, 39593, Note_on_c, 0, 61, 0
2, 39595, Note_on_c, 0, 70, 0
2, 39597, Control_c, 0, 10, 66
2, 39598, Note_on_c, 0, 66, 63
2, 39599, Control_c, 0, 10, 58
2, 39600, Note_on_c, 0, 58, 68
2, 39690, Note_on_c, 0, 66, 0
2, 39696, Note_on_c, 0, 58, 0
2, 39720, Control_c, 0, 10, 63
2, 39721, Note_on_c, 0, 63, 66
2, 39818, Note_on_c, 0, 63, 0
2, 39840, Control_c, 0, 10, 59
2, 39841, Note_on_c, 0, 59, 67
2, 39841, Control_c, 0, 10, 65
2, 39842, Note_on_c, 0, 63, 72
2, 39842, Note_on_c, 0, 68, 65
2, 40080, Note_on_c, 0, 68, 0
2, 40080, Note_on_c, 0, 63, 0
2, 40080, Control_c, 0, 10, 70
2, 40081, Note_on_c, 0, 70, 61
2, 40082, Control_c, 0, 10, 65
2, 40083, Note_on_c, 0, 65, 66
2, 40259, Control_c, 0, 10, 70
2, 40260, Note_on_c, 0, 70, 65
2, 40262, Note_on_c, 0, 70, 0
2, 40285, Control_c, 0, 10, 68
2, 40286, Note_on_c, 0, 68, 66
2, 40289, Note_on_c, 0, 70, 0
2, 40311, Note_on_c, 0, 68, 0
2, 40319, Control_c, 0, 10, 66
2, 40320, Note_on_c, 0, 66, 69
2, 40322, Note_on_c, 0, 65, 0
2, 40322, Note_on_c, 0, 59, 0
2, 40323, Control_c, 0, 10, 58
2, 40324, Note_on_c, 0, 58, 71
2, 40683, Note_on_c, 0, 58, 0
2, 40918, Note_on_c, 0, 66, 0
2, 40977, Control_c, 0, 10, 73
2, 40978, Note_on_c, 0, 73, 99
2, 40980, Control_c, 0, 10, 82
2, 40981, Note_on_c, 0, 82, 92
2, 41037, Note_on_c, 0, 73, 0
2, 41039, Note_on_c, 0, 82, 0
2, 41041, Control_c, 0, 10, 81
2, 41042, Note_on_c, 0, 78, 91
2, 41042, Note_on_c, 0, 85, 91
2, 41135, Note_on_c, 0, 85, 0
2, 41135, Note_on_c, 0, 78, 0
2, 41156, Control_c, 0, 10, 80
2, 41157, Note_on_c, 0, 80, 92
2, 41161, Control_c, 0, 10, 73
2, 41162, Note_on_c, 0, 73, 96
2, 41248, Note_on_c, 0, 80, 0
2, 41256, Note_on_c, 0, 73, 0
2, 41277, Control_c, 0, 10, 78
2, 41278, Note_on_c, 0, 78, 105
2, 41279, Control_c, 0, 10, 83
2, 41280, Note_on_c, 0, 83, 103
2, 41395, Note_on_c, 0, 83, 0
2, 41395, Note_on_c, 0, 78, 0
2, 41515, Control_c, 0, 10, 78
2, 41516, Note_on_c, 0, 78, 102
2, 41521, Control_c, 0, 10, 82
2, 41522, Note_on_c, 0, 82, 105
2, 41523, Control_c, 0, 10, 73
2, 41524, Note_on_c, 0, 73, 99
2, 41754, Note_on_c, 0, 78, 0
2, 41755, Control_c, 0, 10, 77
2, 41756, Note_on_c, 0, 77, 99
2, 41757, Control_c, 0, 10, 71
2, 41758, Note_on_c, 0, 71, 95
2, 41763, Note_on_c, 0, 73, 0
2, 41881, Note_on_c, 0, 82, 0
2, 41881, Control_c, 0, 10, 80
2, 41882, Note_on_c, 0, 80, 98
2, 41968, Control_c, 0, 10, 82
2, 41969, Note_on_c, 0, 82, 94
2, 41993, Note_on_c, 0, 71, 0
2, 41994, Note_on_c, 0, 77, 0
2, 41997, Control_c, 0, 10, 80
2, 41998, Note_on_c, 0, 80, 92
2, 41999, Note_on_c, 0, 82, 0
2, 42000, Control_c, 0, 10, 71
2, 42001, Note_on_c, 0, 80, 0
2, 42001, Note_on_c, 0, 71, 96
2, 42077, Note_on_c, 0, 80, 0
2, 42080, Control_c, 0, 10, 78
2, 42081, Note_on_c, 0, 78, 91
2, 42158, Control_c, 0, 10, 77
2, 42159, Note_on_c, 0, 77, 97
2, 42161, Note_on_c, 0, 78, 0
2, 42235, Note_on_c, 0, 77, 0
2, 42239, Control_c, 0, 10, 80
2, 42240, Note_on_c, 0, 80, 101
2, 42355, Note_on_c, 0, 80, 0
2, 42361, Note_on_c, 0, 71, 0
2, 42478, Control_c, 0, 10, 70
2, 42479, Control_c, 0, 10, 78
2, 42479, Note_on_c, 0, 70, 98
2, 42480, Note_on_c, 0, 78, 92
2, 42895, Note_on_c, 0, 78, 0
2, 42897, Note_on_c, 0, 70, 0
2, 42901, Control_c, 0, 10, 77
2, 42902, Note_on_c, 0, 82, 98
2, 42902, Note_on_c, 0, 73, 95
2, 42955, Control_c, 0, 10, 78
2, 42956, Note_on_c, 0, 78, 97
2, 42957, Note_on_c, 0, 82, 0
2, 42957, Control_c, 0, 10, 85
2, 42958, Note_on_c, 0, 85, 97
2, 42961, Note_on_c, 0, 73, 0
2, 43051, Note_on_c, 0, 78, 0
2, 43052, Note_on_c, 0, 85, 0
2, 43075, Control_c, 0, 10, 82
2, 43076, Note_on_c, 0, 82, 95
2, 43078, Control_c, 0, 10, 87
2, 43079, Note_on_c, 0, 87, 98
2, 43171, Note_on_c, 0, 82, 0
2, 43176, Note_on_c, 0, 87, 0
2, 43196, Control_c, 0, 10, 90
2, 43197, Note_on_c, 0, 90, 101
2, 43202, Control_c, 0, 10, 85
2, 43203, Note_on_c, 0, 85, 106
2, 43291, Note_on_c, 0, 90, 0
2, 43300, Note_on_c, 0, 85, 0
2, 43377, Control_c, 0, 10, 87
2, 43378, Note_on_c, 0, 87, 95
2, 43381, Control_c, 0, 10, 82
2, 43382, Note_on_c, 0, 82, 91
2, 43436, Note_on_c, 0, 87, 0
2, 43436, Control_c, 0, 10, 78
2, 43437, Note_on_c, 0, 78, 97
2, 43439, Note_on_c, 0, 82, 0
2, 43442, Control_c, 0, 10, 85
2, 43443, Note_on_c, 0, 85, 94
2, 43529, Note_on_c, 0, 78, 0
2, 43536, Note_on_c, 0, 85, 0
2, 43555, Control_c, 0, 10, 73
2, 43556, Note_on_c, 0, 73, 98
2, 43559, Control_c, 0, 10, 82
2, 43560, Note_on_c, 0, 82, 98
2, 43647, Note_on_c, 0, 73, 0
2, 43657, Note_on_c, 0, 82, 0
2, 43676, Control_c, 0, 10, 84
2, 43677, Note_on_c, 0, 84, 98
2, 43681, Control_c, 0, 10, 89
2, 43682, Note_on_c, 0, 89, 101
2, 43771, Note_on_c, 0, 84, 0
2, 43778, Note_on_c, 0, 89, 0
2, 43858, Control_c, 0, 10, 84
2, 43859, Note_on_c, 0, 84, 97
2, 43860, Control_c, 0, 10, 80
2, 43861, Note_on_c, 0, 80, 95
2, 43914, Note_on_c, 0, 84, 0
2, 43916, Control_c, 0, 10, 78
2, 43917, Note_on_c, 0, 78, 98
2, 43920, Note_on_c, 0, 80, 0
2, 43922, Control_c, 0, 10, 82
2, 43923, Note_on_c, 0, 82, 95
2, 44008, Note_on_c, 0, 78, 0
2, 44019, Note_on_c, 0, 82, 0
2, 44036, Control_c, 0, 10, 72
2, 44037, Note_on_c, 0, 72, 91
2, 44152, Note_on_c, 0, 72, 0
2, 44162, Control_c, 0, 10, 87
2, 44163, Note_on_c, 0, 87, 101
2, 44259, Note_on_c, 0, 87, 0
2, 44396, Control_c, 0, 10, 85
2, 44397, Control_c, 0, 10, 76
2, 44397, Note_on_c, 0, 85, 103
2, 44398, Note_on_c, 0, 80, 105
2, 44398, Note_on_c, 0, 73, 101
2, 44634, Note_on_c, 0, 80, 0
2, 44638, Control_c, 0, 10, 79
2, 44639, Note_on_c, 0, 79, 101
2, 44814, Note_on_c, 0, 73, 0
2, 44817, Note_on_c, 0, 85, 0
2, 44820, Control_c, 0, 10, 77
2, 44821, Note_on_c, 0, 83, 97
2, 44821, Note_on_c, 0, 71, 96
2, 44877, Note_on_c, 0, 71, 0
2, 44878, Control_c, 0, 10, 75
2, 44879, Note_on_c, 0, 79, 0
2, 44879, Note_on_c, 0, 75, 97
2, 44881, Control_c, 0, 10, 87
2, 44882, Note_on_c, 0, 83, 0
2, 44882, Note_on_c, 0, 87, 94
2, 44972, Note_on_c, 0, 75, 0
2, 44979, Note_on_c, 0, 87, 0
2, 44997, Control_c, 0, 10, 82
2, 44998, Note_on_c, 0, 82, 98
2, 44999, Control_c, 0, 10, 70
2, 45000, Note_on_c, 0, 70, 94
2, 45093, Note_on_c, 0, 82, 0
2, 45095, Note_on_c, 0, 70, 0
2, 45119, Control_c, 0, 10, 85
2, 45120, Note_on_c, 0, 85, 106
2, 45121, Control_c, 0, 10, 73
2, 45122, Note_on_c, 0, 73, 102
2, 45237, Note_on_c, 0, 85, 0
2, 45242, Note_on_c, 0, 73, 0
2, 45359, Control_c, 0, 10, 71
2, 45360, Note_on_c, 0, 71, 104
2, 45361, Control_c, 0, 10, 79
2, 45362, Note_on_c, 0, 75, 107
2, 45362, Note_on_c, 0, 83, 100
2, 45602, Control_c, 0, 10, 76
2, 45603, Note_on_c, 0, 75, 0
2, 45603, Note_on_c, 0, 76, 99
2, 45715, Control_c, 0, 10, 70
2, 45716, Control_c, 0, 10, 82
2, 45716, Note_on_c, 0, 70, 91
2, 45717, Note_on_c, 0, 82, 91
2, 45720, Note_on_c, 0, 83, 0
2, 45721, Note_on_c, 0, 71, 0
2, 45834, Note_on_c, 0, 70, 0
2, 45837, Note_on_c, 0, 82, 0
2, 45838, Note_on_c, 0, 76, 0
2, 45841, Control_c, 0, 10, 70
2, 45841, Note_on_c, 0, 82, 91
2, 45842, Note_on_c, 0, 70, 93
2, 45916, Control_c, 0, 10, 68
2, 45917, Note_on_c, 0, 70, 0
2, 45917, Note_on_c, 0, 68, 99
2, 45918, Note_on_c, 0, 82, 0
2, 45920, Control_c, 0, 10, 80
2, 45921, Note_on_c, 0, 80, 92
2, 45995, Note_on_c, 0, 68, 0
2, 45996, Control_c, 0, 10, 79
2, 45997, Note_on_c, 0, 79, 96
2, 45999, Note_on_c, 0, 80, 0
2, 46001, Control_c, 0, 10, 67
2, 46002, Note_on_c, 0, 67, 91
2, 46075, Control_c, 0, 10, 70
2, 46076, Note_on_c, 0, 70, 103
2, 46077, Note_on_c, 0, 67, 0
2, 46077, Note_on_c, 0, 79, 0
2, 46081, Control_c, 0, 10, 82
2, 46082, Note_on_c, 0, 82, 101
2, 46195, Note_on_c, 0, 70, 0
2, 46199, Note_on_c, 0, 82, 0
2, 46315, Control_c, 0, 10, 75
2, 46316, Note_on_c, 0, 75, 107
2, 46319, Control_c, 0, 10, 80
2, 46320, Note_on_c, 0, 80, 105
2, 46320, Control_c, 0, 10, 68
2, 46321, Note_on_c, 0, 68, 100
2, 46671, Note_on_c, 0, 75, 0
2, 46678, Note_on_c, 0, 68, 0
2, 46680, Note_on_c, 0, 80, 0
2, 46738, Control_c, 0, 10, 75
2, 46739, Note_on_c, 0, 75, 55
2, 46743, Control_c, 0, 10, 66
2, 46744, Note_on_c, 0, 66, 53
2, 46796, Control_c, 0, 10, 74
2, 46797, Note_on_c, 0, 71, 55
2, 46797, Note_on_c, 0, 78, 51
2, 46798, Note_on_c, 0, 75, 0
2, 46805, Note_on_c, 0, 66, 0
2, 46891, Note_on_c, 0, 78, 0
2, 46892, Note_on_c, 0, 71, 0
2, 46917, Control_c, 0, 10, 75
2, 46918, Note_on_c, 0, 75, 52
2, 46919, Control_c, 0, 10, 65
2, 46920, Note_on_c, 0, 65, 53
2, 47015, Note_on_c, 0, 75, 0
2, 47017, Note_on_c, 0, 65, 0
2, 47039, Control_c, 0, 10, 66
2, 47040, Note_on_c, 0, 66, 63
2, 47042, Control_c, 0, 10, 73
2, 47043, Note_on_c, 0, 73, 67
2, 47216, Note_on_c, 0, 66, 0
2, 47221, Control_c, 0, 10, 61
2, 47222, Note_on_c, 0, 73, 0
2, 47222, Control_c, 0, 10, 70
2, 47222, Note_on_c, 0, 61, 57
2, 47223, Note_on_c, 0, 70, 57
2, 47277, Note_on_c, 0, 61, 0
2, 47279, Control_c, 0, 10, 66
2, 47280, Note_on_c, 0, 70, 0
2, 47280, Note_on_c, 0, 66, 52
2, 47281, Control_c, 0, 10, 58
2, 47282, Note_on_c, 0, 58, 57
2, 47376, Note_on_c, 0, 58, 0
2, 47376, Note_on_c, 0, 66, 0
2, 47397, Control_c, 0, 10, 63
2, 47398, Note_on_c, 0, 63, 56
2, 47491, Note_on_c, 0, 63, 0
2, 47518, Note_on_c, 0, 63, 59
2, 47519, Control_c, 0, 10, 68
2, 47520, Note_on_c, 0, 68, 61
2, 47521, Control_c, 0, 10, 59
2, 47522, Note_on_c, 0, 59, 56
2, 47758, Note_on_c, 0, 63, 0
2, 47759, Control_c, 0, 10, 65
2, 47760, Note_on_c, 0, 68, 0
2, 47760, Note_on_c, 0, 65, 52
2, 47763, Control_c, 0, 10, 70
2, 47764, Note_on_c, 0, 70, 56
2, 47939, Note_on_c, 0, 70, 57
2, 47943, Note_on_c, 0, 70, 0
2, 47968, Control_c, 0, 10, 68
2, 47969, Note_on_c, 0, 70, 0
2, 47969, Note_on_c, 0, 68, 55
2, 47996, Note_on_c, 0, 65, 0
2, 47998, Note_on_c, 0, 68, 0
2, 47998, Note_on_c, 0, 59, 0
2, 48000, Control_c, 0, 10, 62
2, 48001, Note_on_c, 0, 66, 64
2, 48001, Note_on_c, 0, 58, 60
2, 48479, Note_on_c, 0, 66, 0
2, 48482, Note_on_c, 0, 58, 0
2, 48508, Control_c, 0, 10, 82
2, 48509, Note_on_c, 0, 82, 95
2, 48518, Control_c, 0, 10, 85
2, 48519, Note_on_c, 0, 85, 95
2, 48529, Control_c, 0, 10, 90
2, 48530, Note_on_c, 0, 90, 97
2, 48541, Control_c, 0, 10, 94
2, 48542, Note_on_c, 0, 94, 104
2, 48551, Control_c, 0, 10, 102
2, 48552, Note_on_c, 0, 102, 98
2, 48717, Note_on_c, 0, 85, 0
2, 48718, Note_on_c, 0, 94, 0
2, 48718, Note_on_c, 0, 82, 0
2, 48718, Note_on_c, 0, 90, 0
2, 48718, Note_on_c, 0, 102, 0
2, 48718, End_track
3, 0, Start_track
3, 0, Title_t, "           -  1898"
3, 241, Program_c, 0, 0
3, 241, Control_c, 0, 7, 105
3, 241, Control_c, 0, 10, 47
3, 1918, Note_on_c, 0, 30, 84
3, 1919, Control_c, 0, 10, 42
3, 1920, Note_on_c, 0, 42, 86
3, 2096, Note_on_c, 0, 30, 0
3, 2100, Note_on_c, 0, 42, 0
3, 2100, Control_c, 0, 10, 49
3, 2101, Note_on_c, 0, 49, 76
3, 2160, Note_on_c, 0, 49, 0
3, 2160, Control_c, 0, 10, 61
3, 2161, Note_on_c, 0, 61, 77
3, 2257, Note_on_c, 0, 61, 0
3, 2281, Control_c, 0, 10, 49
3, 2282, Note_on_c, 0, 49, 75
3, 2375, Note_on_c, 0, 49, 0
3, 2396, Control_c, 0, 10, 61
3, 2397, Note_on_c, 0, 61, 77
3, 2635, Note_on_c, 0, 61, 0
3, 2639, Control_c, 0, 10, 37
3, 2640, Note_on_c, 0, 37, 75
3, 2876, Control_c, 0, 10, 42
3, 2877, Note_on_c, 0, 42, 82
3, 2880, Note_on_c, 0, 37, 0
3, 2880, Control_c, 0, 10, 30
3, 2881, Note_on_c, 0, 30, 83
3, 3054, Note_on_c, 0, 42, 0
3, 3060, Control_c, 0, 10, 49
3, 3061, Note_on_c, 0, 49, 73
3, 3062, Note_on_c, 0, 30, 0
3, 3120, Control_c, 0, 10, 61
3, 3121, Note_on_c, 0, 61, 79
3, 3122, Note_on_c, 0, 49, 0
3, 3218, Note_on_c, 0, 61, 0
3, 3237, Control_c, 0, 10, 49
3, 3238, Note_on_c, 0, 49, 71
3, 3332, Note_on_c, 0, 49, 0
3, 3360, Control_c, 0, 10, 42
3, 3361, Note_on_c, 0, 42, 83
3, 3600, Note_on_c, 0, 42, 0
3, 3835, Control_c, 0, 10, 27
3, 3836, Note_on_c, 0, 27, 82
3, 3843, Control_c, 0, 10, 39
3, 3844, Note_on_c, 0, 39, 79
3, 4012, Note_on_c, 0, 27, 0
3, 4015, Control_c, 0, 10, 58
3, 4016, Note_on_c, 0, 58, 62
3, 4020, Note_on_c, 0, 39, 0
3, 4020, Control_c, 0, 10, 51
3, 4021, Note_on_c, 0, 51, 66
3, 4071, Note_on_c, 0, 58, 0
3, 4076, Control_c, 0, 10, 61
3, 4077, Note_on_c, 0, 61, 62
3, 4081, Note_on_c, 0, 51, 0
3, 4083, Control_c, 0, 10, 54
3, 4084, Note_on_c, 0, 54, 64
3, 4195, Note_on_c, 0, 61, 0
3, 4202, Note_on_c, 0, 54, 0
3, 4323, Control_c, 0, 10, 38
3, 4324, Note_on_c, 0, 44, 76
3, 4324, Note_on_c, 0, 32, 73
3, 4496, Control_c, 0, 10, 60
3, 4497, Note_on_c, 0, 60, 64
3, 4498, Control_c, 0, 10, 51
3, 4499, Note_on_c, 0, 32, 0
3, 4499, Note_on_c, 0, 44, 0
3, 4499, Note_on_c, 0, 51, 62
3, 4556, Note_on_c, 0, 60, 0
3, 4559, Control_c, 0, 10, 63
3, 4560, Note_on_c, 0, 51, 0
3, 4560, Note_on_c, 0, 63, 62
3, 4563, Control_c, 0, 10, 56
3, 4564, Note_on_c, 0, 56, 66
3, 4675, Note_on_c, 0, 63, 0
3, 4680, Note_on_c, 0, 56, 0
3, 4799, Control_c, 0, 10, 37
3, 4800, Note_on_c, 0, 37, 81
3, 4975, Note_on_c, 0, 37, 0
3, 4977, Control_c, 0, 10, 53
3, 4978, Note_on_c, 0, 53, 67
3, 4982, Control_c, 0, 10, 61
3, 4983, Note_on_c, 0, 61, 68
3, 5037, Note_on_c, 0, 53, 0
3, 5037, Control_c, 0, 10, 65
3, 5038, Note_on_c, 0, 61, 0
3, 5038, Note_on_c, 0, 65, 67
3, 5043, Control_c, 0, 10, 56
3, 5044, Note_on_c, 0, 56, 63
3, 5130, Note_on_c, 0, 65, 0
3, 5135, Note_on_c, 0, 56, 0
3, 5160, Control_c, 0, 10, 53
3, 5161, Control_c, 0, 10, 61
3, 5161, Note_on_c, 0, 53, 66
3, 5162, Note_on_c, 0, 61, 71
3, 5252, Note_on_c, 0, 53, 0
3, 5254, Note_on_c, 0, 61, 0
3, 5276, Control_c, 0, 10, 63
3, 5277, Note_on_c, 0, 63, 78
3, 5514, Note_on_c, 0, 63, 0
3, 5520, Control_c, 0, 10, 51
3, 5521, Note_on_c, 0, 51, 71
3, 5757, Control_c, 0, 10, 32
3, 5758, Note_on_c, 0, 32, 88
3, 5759, Control_c, 0, 10, 44
3, 5760, Note_on_c, 0, 51, 0
3, 5760, Note_on_c, 0, 44, 83
3, 5938, Note_on_c, 0, 32, 0
3, 5940, Note_on_c, 0, 44, 0
3, 5940, Control_c, 0, 10, 51
3, 5941, Note_on_c, 0, 51, 67
3, 5999, Note_on_c, 0, 51, 0
3, 6002, Control_c, 0, 10, 63
3, 6003, Note_on_c, 0, 63, 74
3, 6099, Note_on_c, 0, 63, 0
3, 6116, Control_c, 0, 10, 51
3, 6117, Note_on_c, 0, 51, 73
3, 6210, Note_on_c, 0, 51, 0
3, 6236, Control_c, 0, 10, 61
3, 6237, Note_on_c, 0, 61, 83
3, 6476, Note_on_c, 0, 61, 0
3, 6478, Note_on_c, 0, 61, 73
3, 6556, Note_on_c, 0, 61, 0
3, 6557, Control_c, 0, 10, 59
3, 6558, Note_on_c, 0, 59, 72
3, 6634, Note_on_c, 0, 59, 0
3, 6636, Control_c, 0, 10, 58
3, 6637, Note_on_c, 0, 58, 74
3, 6713, Note_on_c, 0, 58, 0
3, 6715, Control_c, 0, 10, 56
3, 6716, Note_on_c, 0, 56, 87
3, 6718, Control_c, 0, 10, 61
3, 6719, Note_on_c, 0, 61, 80
3, 6834, Note_on_c, 0, 61, 0
3, 6836, Note_on_c, 0, 56, 0
3, 6961, Control_c, 0, 10, 59
3, 6962, Note_on_c, 0, 59, 79
3, 7321, Note_on_c, 0, 59, 0
3, 7380, Note_on_c, 0, 59, 61
3, 7440, Note_on_c, 0, 59, 0
3, 7441, Control_c, 0, 10, 63
3, 7442, Note_on_c, 0, 63, 66
3, 7538, Note_on_c, 0, 63, 0
3, 7563, Control_c, 0, 10, 59
3, 7564, Note_on_c, 0, 59, 66
3, 7659, Note_on_c, 0, 59, 0
3, 7675, Control_c, 0, 10, 58
3, 7676, Note_on_c, 0, 58, 75
3, 7857, Note_on_c, 0, 58, 0
3, 7861, Control_c, 0, 10, 54
3, 7862, Note_on_c, 0, 54, 64
3, 7917, Control_c, 0, 10, 51
3, 7918, Note_on_c, 0, 54, 0
3, 7918, Note_on_c, 0, 51, 69
3, 8013, Note_on_c, 0, 51, 0
3, 8042, Control_c, 0, 10, 47
3, 8043, Note_on_c, 0, 47, 68
3, 8138, Note_on_c, 0, 47, 0
3, 8163, Control_c, 0, 10, 49
3, 8164, Note_on_c, 0, 49, 69
3, 8276, Control_c, 0, 10, 37
3, 8277, Note_on_c, 0, 37, 68
3, 8282, Note_on_c, 0, 49, 0
3, 8372, Note_on_c, 0, 37, 0
3, 8399, Control_c, 0, 10, 61
3, 8400, Note_on_c, 0, 61, 68
3, 8637, Control_c, 0, 10, 42
3, 8638, Note_on_c, 0, 42, 76
3, 8639, Control_c, 0, 10, 30
3, 8640, Note_on_c, 0, 30, 76
3, 8641, Note_on_c, 0, 61, 0
3, 8815, Control_c, 0, 10, 49
3, 8816, Note_on_c, 0, 49, 62
3, 8820, Control_c, 0, 10, 58
3, 8821, Note_on_c, 0, 58, 64
3, 8876, Note_on_c, 0, 49, 0
3, 8878, Control_c, 0, 10, 54
3, 8879, Note_on_c, 0, 54, 61
3, 8879, Control_c, 0, 10, 61
3, 8880, Note_on_c, 0, 61, 64
3, 8882, Note_on_c, 0, 58, 0
3, 8974, Note_on_c, 0, 54, 0
3, 8975, Note_on_c, 0, 61, 0
3, 8997, Control_c, 0, 10, 66
3, 8998, Note_on_c, 0, 66, 69
3, 8998, Control_c, 0, 10, 58
3, 8999, Note_on_c, 0, 58, 67
3, 9089, Note_on_c, 0, 66, 0
3, 9094, Note_on_c, 0, 58, 0
3, 9119, Control_c, 0, 10, 61
3, 9120, Note_on_c, 0, 61, 73
3, 9121, Control_c, 0, 10, 70
3, 9122, Note_on_c, 0, 70, 70
3, 9212, Note_on_c, 0, 61, 0
3, 9213, Note_on_c, 0, 70, 0
3, 9355, Note_on_c, 0, 42, 0
3, 9356, Control_c, 0, 10, 37
3, 9357, Note_on_c, 0, 37, 106
3, 9358, Note_on_c, 0, 30, 0
3, 9362, Control_c, 0, 10, 49
3, 9363, Note_on_c, 0, 49, 106
3, 9592, Note_on_c, 0, 37, 0
3, 9596, Control_c, 0, 10, 42
3, 9597, Note_on_c, 0, 42, 96
3, 9599, Control_c, 0, 10, 30
3, 9600, Note_on_c, 0, 30, 94
3, 9603, Note_on_c, 0, 49, 0
3, 9780, Control_c, 0, 10, 49
3, 9781, Note_on_c, 0, 49, 92
3, 9838, Control_c, 0, 10, 61
3, 9839, Note_on_c, 0, 61, 99
3, 9842, Note_on_c, 0, 49, 0
3, 9958, Note_on_c, 0, 61, 0
3, 9960, Note_on_c, 0, 61, 98
3, 10055, Note_on_c, 0, 61, 0
3, 10075, Control_c, 0, 10, 73
3, 10076, Note_on_c, 0, 73, 96
3, 10316, Note_on_c, 0, 73, 0
3, 10317, Control_c, 0, 10, 49
3, 10318, Note_on_c, 0, 49, 98
3, 10323, Control_c, 0, 10, 37
3, 10324, Note_on_c, 0, 37, 93
3, 10555, Note_on_c, 0, 30, 0
3, 10555, Note_on_c, 0, 42, 0
3, 10556, Control_c, 0, 10, 30
3, 10557, Note_on_c, 0, 30, 93
3, 10559, Note_on_c, 0, 49, 0
3, 10562, Control_c, 0, 10, 42
3, 10563, Note_on_c, 0, 42, 96
3, 10564, Note_on_c, 0, 37, 0
3, 10737, Control_c, 0, 10, 58
3, 10738, Note_on_c, 0, 58, 95
3, 10742, Control_c, 0, 10, 49
3, 10743, Note_on_c, 0, 49, 93
3, 10795, Note_on_c, 0, 58, 0
3, 10795, Control_c, 0, 10, 57
3, 10796, Note_on_c, 0, 54, 95
3, 10796, Note_on_c, 0, 61, 95
3, 10803, Note_on_c, 0, 49, 0
3, 10916, Note_on_c, 0, 54, 0
3, 10916, Note_on_c, 0, 61, 0
3, 10919, Control_c, 0, 10, 66
3, 10920, Note_on_c, 0, 66, 98
3, 10923, Control_c, 0, 10, 58
3, 10924, Note_on_c, 0, 58, 99
3, 11013, Note_on_c, 0, 66, 0
3, 11015, Note_on_c, 0, 58, 0
3, 11039, Control_c, 0, 10, 61
3, 11040, Note_on_c, 0, 61, 97
3, 11041, Control_c, 0, 10, 70
3, 11042, Note_on_c, 0, 70, 98
3, 11277, Note_on_c, 0, 61, 0
3, 11279, Note_on_c, 0, 70, 0
3, 11282, Control_c, 0, 10, 66
3, 11283, Control_c, 0, 10, 58
3, 11283, Note_on_c, 0, 66, 92
3, 11284, Note_on_c, 0, 58, 97
3, 11515, Control_c, 0, 10, 27
3, 11516, Note_on_c, 0, 27, 103
3, 11518, Note_on_c, 0, 30, 0
3, 11518, Control_c, 0, 10, 39
3, 11519, Note_on_c, 0, 39, 110
3, 11521, Note_on_c, 0, 42, 0
3, 11522, Note_on_c, 0, 58, 0
3, 11524, Note_on_c, 0, 66, 0
3, 11699, Control_c, 0, 10, 54
3, 11700, Note_on_c, 0, 54, 92
3, 11701, Control_c, 0, 10, 61
3, 11702, Note_on_c, 0, 61, 92
3, 11756, Control_c, 0, 10, 58
3, 11757, Note_on_c, 0, 58, 99
3, 11761, Note_on_c, 0, 54, 0
3, 11762, Note_on_c, 0, 61, 0
3, 11763, Control_c, 0, 10, 66
3, 11764, Note_on_c, 0, 66, 94
3, 11876, Note_on_c, 0, 58, 0
3, 11883, Note_on_c, 0, 66, 0
3, 11995, Note_on_c, 0, 27, 0
3, 11995, Control_c, 0, 10, 44
3, 11996, Note_on_c, 0, 44, 112
3, 11999, Control_c, 0, 10, 32
3, 12000, Note_on_c, 0, 39, 0
3, 12000, Note_on_c, 0, 32, 108
3, 12178, Control_c, 0, 10, 51
3, 12179, Note_on_c, 0, 51, 98
3, 12183, Control_c, 0, 10, 60
3, 12184, Note_on_c, 0, 60, 99
3, 12236, Control_c, 0, 10, 66
3, 12237, Note_on_c, 0, 66, 93
3, 12238, Control_c, 0, 10, 56
3, 12239, Note_on_c, 0, 51, 0
3, 12239, Note_on_c, 0, 56, 99
3, 12244, Note_on_c, 0, 60, 0
3, 12357, Note_on_c, 0, 66, 0
3, 12357, Note_on_c, 0, 56, 0
3, 12472, Note_on_c, 0, 44, 0
3, 12477, Note_on_c, 0, 32, 0
3, 12477, Control_c, 0, 10, 37
3, 12478, Note_on_c, 0, 37, 105
3, 12481, Control_c, 0, 10, 25
3, 12482, Note_on_c, 0, 25, 102
3, 12656, Control_c, 0, 10, 57
3, 12657, Note_on_c, 0, 61, 92
3, 12657, Note_on_c, 0, 53, 92
3, 12713, Note_on_c, 0, 53, 0
3, 12716, Note_on_c, 0, 61, 0
3, 12719, Control_c, 0, 10, 56
3, 12720, Note_on_c, 0, 56, 96
3, 12721, Control_c, 0, 10, 65
3, 12722, Note_on_c, 0, 65, 93
3, 12837, Control_c, 0, 10, 61
3, 12838, Note_on_c, 0, 61, 94
3, 12841, Note_on_c, 0, 56, 0
3, 12841, Control_c, 0, 10, 53
3, 12842, Note_on_c, 0, 65, 0
3, 12842, Note_on_c, 0, 53, 95
3, 12955, Note_on_c, 0, 61, 0
3, 12955, Note_on_c, 0, 37, 0
3, 12955, Control_c, 0, 10, 39
3, 12956, Note_on_c, 0, 39, 108
3, 12957, Note_on_c, 0, 25, 0
3, 12958, Note_on_c, 0, 53, 0
3, 12961, Control_c, 0, 10, 27
3, 12962, Note_on_c, 0, 27, 112
3, 13195, Control_c, 0, 10, 61
3, 13196, Control_c, 0, 10, 63
3, 13196, Note_on_c, 0, 61, 93
3, 13197, Control_c, 0, 10, 67
3, 13197, Note_on_c, 0, 63, 99
3, 13198, Note_on_c, 0, 67, 91
3, 13431, Note_on_c, 0, 39, 0
3, 13434, Note_on_c, 0, 61, 0
3, 13436, Note_on_c, 0, 67, 0
3, 13437, Control_c, 0, 10, 32
3, 13438, Note_on_c, 0, 63, 0
3, 13438, Note_on_c, 0, 32, 102
3, 13439, Note_on_c, 0, 27, 0
3, 13441, Control_c, 0, 10, 44
3, 13442, Note_on_c, 0, 44, 106
3, 13620, Control_c, 0, 10, 51
3, 13621, Note_on_c, 0, 51, 91
3, 13675, Control_c, 0, 10, 63
3, 13676, Note_on_c, 0, 63, 96
3, 13678, Note_on_c, 0, 51, 0
3, 13793, Note_on_c, 0, 63, 0
3, 13795, Control_c, 0, 10, 51
3, 13796, Note_on_c, 0, 51, 93
3, 13912, Note_on_c, 0, 51, 0
3, 13917, Note_on_c, 0, 32, 0
3, 13918, Control_c, 0, 10, 61
3, 13919, Note_on_c, 0, 61, 95
3, 13922, Note_on_c, 0, 44, 0
3, 13922, Control_c, 0, 10, 64
3, 13923, Note_on_c, 0, 64, 98
3, 14039, Control_c, 0, 10, 51
3, 14040, Note_on_c, 0, 51, 94
3, 14156, Note_on_c, 0, 64, 0
3, 14157, Control_c, 0, 10, 64
3, 14158, Note_on_c, 0, 61, 0
3, 14158, Note_on_c, 0, 64, 99
3, 14159, Control_c, 0, 10, 61
3, 14160, Note_on_c, 0, 61, 91
3, 14161, Note_on_c, 0, 51, 0
3, 14239, Control_c, 0, 10, 59
3, 14240, Note_on_c, 0, 61, 0
3, 14240, Note_on_c, 0, 59, 95
3, 14319, Control_c, 0, 10, 58
3, 14320, Note_on_c, 0, 58, 99
3, 14321, Note_on_c, 0, 59, 0
3, 14395, Note_on_c, 0, 58, 0
3, 14395, Note_on_c, 0, 64, 0
3, 14400, Control_c, 0, 10, 64
3, 14401, Note_on_c, 0, 64, 103
3, 14402, Control_c, 0, 10, 61
3, 14403, Note_on_c, 0, 61, 105
3, 14517, Note_on_c, 0, 64, 0
3, 14519, Note_on_c, 0, 61, 0
3, 14635, Control_c, 0, 10, 63
3, 14636, Note_on_c, 0, 63, 107
3, 14642, Control_c, 0, 10, 59
3, 14643, Note_on_c, 0, 59, 107
3, 14991, Note_on_c, 0, 63, 0
3, 15001, Note_on_c, 0, 59, 0
3, 15057, Note_on_c, 0, 59, 54
3, 15117, Note_on_c, 0, 59, 0
3, 15117, Control_c, 0, 10, 63
3, 15118, Note_on_c, 0, 63, 56
3, 15210, Note_on_c, 0, 63, 0
3, 15237, Control_c, 0, 10, 59
3, 15238, Note_on_c, 0, 59, 58
3, 15332, Note_on_c, 0, 59, 0
3, 15360, Control_c, 0, 10, 58
3, 15361, Note_on_c, 0, 58, 66
3, 15539, Note_on_c, 0, 58, 0
3, 15539, Control_c, 0, 10, 54
3, 15540, Note_on_c, 0, 54, 58
3, 15597, Note_on_c, 0, 54, 0
3, 15603, Control_c, 0, 10, 51
3, 15604, Note_on_c, 0, 51, 54
3, 15696, Note_on_c, 0, 51, 0
3, 15721, Control_c, 0, 10, 47
3, 15722, Note_on_c, 0, 47, 54
3, 15819, Note_on_c, 0, 47, 0
3, 15836, Control_c, 0, 10, 49
3, 15837, Note_on_c, 0, 49, 56
3, 15958, Note_on_c, 0, 49, 0
3, 15959, Control_c, 0, 10, 37
3, 15960, Note_on_c, 0, 37, 51
3, 16052, Note_on_c, 0, 37, 0
3, 16083, Control_c, 0, 10, 61
3, 16084, Note_on_c, 0, 61, 56
3, 16319, Control_c, 0, 10, 36
3, 16320, Note_on_c, 0, 30, 67
3, 16320, Note_on_c, 0, 42, 61
3, 16325, Note_on_c, 0, 61, 0
3, 16503, Control_c, 0, 10, 57
3, 16504, Note_on_c, 0, 61, 56
3, 16504, Note_on_c, 0, 54, 55
3, 16555, Control_c, 0, 10, 58
3, 16556, Note_on_c, 0, 58, 54
3, 16561, Note_on_c, 0, 54, 0
3, 16563, Control_c, 0, 10, 66
3, 16564, Note_on_c, 0, 66, 54
3, 16565, Note_on_c, 0, 61, 0
3, 16677, Note_on_c, 0, 58, 0
3, 16681, Note_on_c, 0, 66, 0
3, 16918, Note_on_c, 0, 30, 0
3, 16921, Note_on_c, 0, 42, 0
3, 17280, Control_c, 0, 10, 70
3, 17281, Note_on_c, 0, 70, 94
3, 17282, Control_c, 0, 10, 58
3, 17283, Note_on_c, 0, 58, 90
3, 17283, Control_c, 0, 10, 65
3, 17284, Note_on_c, 0, 65, 96
3, 17637, Control_c, 0, 10, 66
3, 17638, Note_on_c, 0, 58, 0
3, 17638, Note_on_c, 0, 66, 85
3, 17639, Note_on_c, 0, 70, 0
3, 17643, Control_c, 0, 10, 70
3, 17644, Note_on_c, 0, 70, 84
3, 17645, Note_on_c, 0, 65, 0
3, 17754, Note_on_c, 0, 66, 0
3, 17758, Control_c, 0, 10, 65
3, 17759, Control_c, 0, 10, 58
3, 17759, Note_on_c, 0, 65, 91
3, 17760, Note_on_c, 0, 70, 0
3, 17760, Note_on_c, 0, 58, 90
3, 17761, Control_c, 0, 10, 70
3, 17762, Note_on_c, 0, 70, 86
3, 18117, Note_on_c, 0, 65, 0
3, 18117, Control_c, 0, 10, 66
3, 18118, Note_on_c, 0, 66, 85
3, 18119, Note_on_c, 0, 58, 0
3, 18121, Note_on_c, 0, 70, 0
3, 18237, Control_c, 0, 10, 65
3, 18238, Note_on_c, 0, 66, 0
3, 18238, Note_on_c, 0, 65, 92
3, 18241, Control_c, 0, 10, 58
3, 18242, Note_on_c, 0, 58, 96
3, 18355, Control_c, 0, 10, 63
3, 18356, Note_on_c, 0, 63, 83
3, 18358, Note_on_c, 0, 65, 0
3, 18474, Note_on_c, 0, 63, 0
3, 18477, Note_on_c, 0, 58, 0
3, 18478, Control_c, 0, 10, 58
3, 18479, Note_on_c, 0, 58, 86
3, 18480, Control_c, 0, 10, 61
3, 18481, Note_on_c, 0, 61, 86
3, 18717, Note_on_c, 0, 61, 0
3, 18718, Note_on_c, 0, 58, 0
3, 18840, Control_c, 0, 10, 56
3, 18841, Note_on_c, 0, 56, 62
3, 18938, Note_on_c, 0, 56, 0
3, 18962, Control_c, 0, 10, 54
3, 18963, Note_on_c, 0, 54, 65
3, 19060, Note_on_c, 0, 54, 0
3, 19082, Control_c, 0, 10, 53
3, 19083, Note_on_c, 0, 53, 63
3, 19175, Note_on_c, 0, 53, 0
3, 19196, Control_c, 0, 10, 51
3, 19197, Note_on_c, 0, 51, 71
3, 19202, Control_c, 0, 10, 39
3, 19203, Note_on_c, 0, 39, 69
3, 19290, Note_on_c, 0, 51, 0
3, 19299, Note_on_c, 0, 39, 0
3, 19315, Control_c, 0, 10, 54
3, 19316, Note_on_c, 0, 54, 67
3, 19323, Note_on_c, 0, 51, 68
3, 19323, Note_on_c, 0, 58, 65
3, 19411, Note_on_c, 0, 54, 0
3, 19415, Note_on_c, 0, 58, 0
3, 19417, Note_on_c, 0, 51, 0
3, 19556, Control_c, 0, 10, 37
3, 19557, Note_on_c, 0, 37, 64
3, 19560, Control_c, 0, 10, 49
3, 19561, Note_on_c, 0, 49, 67
3, 19649, Note_on_c, 0, 37, 0
3, 19657, Note_on_c, 0, 49, 0
3, 19676, Control_c, 0, 10, 51
3, 19677, Note_on_c, 0, 51, 67
3, 19680, Control_c, 0, 10, 39
3, 19681, Note_on_c, 0, 39, 73
3, 19771, Note_on_c, 0, 51, 0
3, 19774, Note_on_c, 0, 39, 0
3, 19796, Control_c, 0, 10, 58
3, 19797, Note_on_c, 0, 58, 66
3, 19802, Control_c, 0, 10, 54
3, 19803, Control_c, 0, 10, 51
3, 19803, Note_on_c, 0, 54, 61
3, 19804, Note_on_c, 0, 51, 66
3, 19891, Note_on_c, 0, 58, 0
3, 19898, Note_on_c, 0, 54, 0
3, 19899, Note_on_c, 0, 51, 0
3, 20037, Control_c, 0, 10, 37
3, 20038, Note_on_c, 0, 37, 67
3, 20041, Control_c, 0, 10, 49
3, 20042, Note_on_c, 0, 49, 64
3, 20132, Note_on_c, 0, 37, 0
3, 20139, Note_on_c, 0, 49, 0
3, 20159, Control_c, 0, 10, 51
3, 20160, Note_on_c, 0, 51, 74
3, 20162, Control_c, 0, 10, 39
3, 20163, Note_on_c, 0, 39, 73
3, 20216, Note_on_c, 0, 51, 0
3, 20219, Note_on_c, 0, 39, 0
3, 20276, Control_c, 0, 10, 49
3, 20277, Note_on_c, 0, 49, 61
3, 20279, Control_c, 0, 10, 37
3, 20280, Note_on_c, 0, 37, 62
3, 20333, Note_on_c, 0, 49, 0
3, 20338, Note_on_c, 0, 37, 0
3, 20395, Control_c, 0, 10, 41
3, 20396, Note_on_c, 0, 41, 62
3, 20400, Control_c, 0, 10, 53
3, 20401, Note_on_c, 0, 53, 63
3, 20756, Note_on_c, 0, 41, 0
3, 20761, Note_on_c, 0, 53, 0
3, 21122, Control_c, 0, 10, 37
3, 21123, Note_on_c, 0, 37, 79
3, 21300, Control_c, 0, 10, 56
3, 21301, Note_on_c, 0, 56, 71
3, 21357, Note_on_c, 0, 56, 0
3, 21358, Control_c, 0, 10, 65
3, 21359, Note_on_c, 0, 65, 79
3, 21450, Note_on_c, 0, 65, 0
3, 21483, Control_c, 0, 10, 56
3, 21484, Note_on_c, 0, 56, 77
3, 21579, Note_on_c, 0, 56, 0
3, 21596, Control_c, 0, 10, 69
3, 21597, Note_on_c, 0, 69, 91
3, 21598, Note_on_c, 0, 37, 0
3, 21601, Control_c, 0, 10, 66
3, 21602, Note_on_c, 0, 66, 88
3, 21836, Note_on_c, 0, 69, 0
3, 21838, Control_c, 0, 10, 56
3, 21839, Note_on_c, 0, 66, 0
3, 21839, Note_on_c, 0, 56, 74
3, 22077, Control_c, 0, 10, 49
3, 22078, Note_on_c, 0, 56, 0
3, 22078, Note_on_c, 0, 49, 82
3, 22083, Control_c, 0, 10, 37
3, 22084, Note_on_c, 0, 37, 84
3, 22257, Control_c, 0, 10, 61
3, 22258, Note_on_c, 0, 61, 78
3, 22262, Control_c, 0, 10, 53
3, 22263, Note_on_c, 0, 53, 74
3, 22315, Note_on_c, 0, 61, 0
3, 22323, Note_on_c, 0, 53, 0
3, 22323, Control_c, 0, 10, 60
3, 22324, Note_on_c, 0, 65, 72
3, 22324, Note_on_c, 0, 56, 77
3, 22417, Note_on_c, 0, 65, 0
3, 22421, Note_on_c, 0, 56, 0
3, 22438, Control_c, 0, 10, 61
3, 22439, Note_on_c, 0, 61, 75
3, 22440, Control_c, 0, 10, 53
3, 22441, Note_on_c, 0, 53, 71
3, 22535, Note_on_c, 0, 61, 0
3, 22538, Note_on_c, 0, 53, 0
3, 22556, Note_on_c, 0, 49, 0
3, 22557, Control_c, 0, 10, 56
3, 22558, Note_on_c, 0, 56, 81
3, 22563, Note_on_c, 0, 37, 0
3, 22563, Control_c, 0, 10, 65
3, 22564, Note_on_c, 0, 65, 76
3, 22651, Note_on_c, 0, 56, 0
3, 22655, Note_on_c, 0, 65, 0
3, 22743, Control_c, 0, 10, 49
3, 22744, Note_on_c, 0, 49, 88
3, 22800, Control_c, 0, 10, 53
3, 22801, Note_on_c, 0, 53, 81
3, 22802, Note_on_c, 0, 49, 0
3, 22897, Note_on_c, 0, 53, 0
3, 22916, Control_c, 0, 10, 36
3, 22917, Note_on_c, 0, 36, 98
3, 22920, Control_c, 0, 10, 48
3, 22921, Note_on_c, 0, 48, 95
3, 23038, Note_on_c, 0, 36, 0
3, 23038, Control_c, 0, 10, 41
3, 23039, Note_on_c, 0, 48, 0
3, 23039, Note_on_c, 0, 41, 107
3, 23043, Control_c, 0, 10, 29
3, 23044, Note_on_c, 0, 29, 101
3, 23219, Note_on_c, 0, 29, 0
3, 23219, Note_on_c, 0, 41, 0
3, 23221, Control_c, 0, 10, 53
3, 23222, Note_on_c, 0, 53, 88
3, 23276, Control_c, 0, 10, 56
3, 23277, Note_on_c, 0, 56, 86
3, 23283, Note_on_c, 0, 53, 0
3, 23370, Note_on_c, 0, 56, 0
3, 23397, Control_c, 0, 10, 51
3, 23398, Note_on_c, 0, 51, 97
3, 23402, Control_c, 0, 10, 39
3, 23403, Note_on_c, 0, 39, 94
3, 23515, Control_c, 0, 10, 32
3, 23516, Note_on_c, 0, 32, 104
3, 23518, Note_on_c, 0, 51, 0
3, 23520, Control_c, 0, 10, 44
3, 23521, Note_on_c, 0, 44, 104
3, 23522, Note_on_c, 0, 39, 0
3, 23696, Note_on_c, 0, 44, 0
3, 23696, Note_on_c, 0, 32, 0
3, 23696, Control_c, 0, 10, 56
3, 23697, Note_on_c, 0, 56, 88
3, 23753, Note_on_c, 0, 56, 0
3, 23755, Control_c, 0, 10, 60
3, 23756, Note_on_c, 0, 60, 89
3, 23847, Note_on_c, 0, 60, 0
3, 23877, Control_c, 0, 10, 43
3, 23878, Note_on_c, 0, 43, 98
3, 23878, Control_c, 0, 10, 55
3, 23879, Note_on_c, 0, 55, 98
3, 23993, Note_on_c, 0, 43, 0
3, 23996, Note_on_c, 0, 55, 0
3, 24001, Control_c, 0, 10, 48
3, 24002, Note_on_c, 0, 48, 100
3, 24002, Control_c, 0, 10, 36
3, 24003, Note_on_c, 0, 36, 105
3, 24178, Control_c, 0, 10, 41
3, 24179, Note_on_c, 0, 41, 95
3, 24180, Note_on_c, 0, 36, 0
3, 24181, Note_on_c, 0, 48, 0
3, 24182, Control_c, 0, 10, 29
3, 24183, Note_on_c, 0, 29, 97
3, 24235, Control_c, 0, 10, 53
3, 24236, Note_on_c, 0, 53, 92
3, 24239, Control_c, 0, 10, 48
3, 24240, Note_on_c, 0, 48, 97
3, 24242, Control_c, 0, 10, 57
3, 24243, Note_on_c, 0, 57, 94
3, 24596, Note_on_c, 0, 48, 0
3, 24596, Note_on_c, 0, 41, 0
3, 24597, Note_on_c, 0, 53, 0
3, 24601, Note_on_c, 0, 29, 0
3, 24601, Note_on_c, 0, 57, 0
3, 24659, Control_c, 0, 10, 58
3, 24660, Note_on_c, 0, 58, 96
3, 24721, Note_on_c, 0, 58, 0
3, 24722, Control_c, 0, 10, 61
3, 24723, Note_on_c, 0, 61, 92
3, 24817, Note_on_c, 0, 61, 0
3, 24835, Control_c, 0, 10, 63
3, 24836, Note_on_c, 0, 63, 94
3, 24837, Control_c, 0, 10, 60
3, 24838, Note_on_c, 0, 60, 95
3, 24931, Note_on_c, 0, 63, 0
3, 24933, Note_on_c, 0, 60, 0
3, 24956, Control_c, 0, 10, 61
3, 24957, Note_on_c, 0, 61, 110
3, 24961, Control_c, 0, 10, 65
3, 24962, Note_on_c, 0, 65, 102
3, 25137, Control_c, 0, 10, 46
3, 25138, Note_on_c, 0, 46, 98
3, 25143, Control_c, 0, 10, 34
3, 25144, Note_on_c, 0, 34, 97
3, 25195, Note_on_c, 0, 46, 0
3, 25196, Control_c, 0, 10, 46
3, 25197, Note_on_c, 0, 34, 0
3, 25197, Note_on_c, 0, 46, 105
3, 25198, Control_c, 0, 10, 34
3, 25199, Note_on_c, 0, 34, 108
3, 25315, Note_on_c, 0, 61, 0
3, 25321, Note_on_c, 0, 65, 0
3, 25321, Control_c, 0, 10, 63
3, 25322, Note_on_c, 0, 63, 110
3, 25323, Control_c, 0, 10, 60
3, 25324, Note_on_c, 0, 60, 106
3, 25437, Note_on_c, 0, 46, 0
3, 25437, Control_c, 0, 10, 61
3, 25438, Note_on_c, 0, 61, 108
3, 25440, Note_on_c, 0, 34, 0
3, 25441, Note_on_c, 0, 63, 0
3, 25441, Control_c, 0, 10, 65
3, 25442, Note_on_c, 0, 65, 110
3, 25445, Note_on_c, 0, 60, 0
3, 25616, Control_c, 0, 10, 46
3, 25617, Note_on_c, 0, 46, 97
3, 25623, Control_c, 0, 10, 34
3, 25624, Note_on_c, 0, 34, 92
3, 25674, Note_on_c, 0, 34, 0
3, 25675, Note_on_c, 0, 46, 0
3, 25676, Control_c, 0, 10, 46
3, 25676, Note_on_c, 0, 34, 104
3, 25677, Note_on_c, 0, 46, 104
3, 25793, Note_on_c, 0, 61, 0
3, 25797, Note_on_c, 0, 65, 0
3, 25798, Control_c, 0, 10, 63
3, 25799, Note_on_c, 0, 63, 102
3, 25800, Control_c, 0, 10, 60
3, 25801, Note_on_c, 0, 60, 104
3, 25914, Note_on_c, 0, 34, 0
3, 25915, Note_on_c, 0, 63, 0
3, 25917, Note_on_c, 0, 46, 0
3, 25918, Control_c, 0, 10, 61
3, 25919, Note_on_c, 0, 61, 110
3, 25921, Note_on_c, 0, 60, 0
3, 25921, Control_c, 0, 10, 58
3, 25922, Note_on_c, 0, 58, 103
3, 26034, Note_on_c, 0, 61, 0
3, 26036, Control_c, 0, 10, 60
3, 26037, Note_on_c, 0, 60, 109
3, 26038, Note_on_c, 0, 58, 0
3, 26043, Control_c, 0, 10, 53
3, 26044, Note_on_c, 0, 53, 110
3, 26152, Note_on_c, 0, 60, 0
3, 26156, Control_c, 0, 10, 49
3, 26157, Note_on_c, 0, 49, 102
3, 26160, Note_on_c, 0, 53, 0
3, 26161, Control_c, 0, 10, 58
3, 26162, Note_on_c, 0, 58, 104
3, 26397, Note_on_c, 0, 49, 0
3, 26398, Note_on_c, 0, 58, 0
3, 26517, Control_c, 0, 10, 44
3, 26518, Note_on_c, 0, 44, 49
3, 26521, Control_c, 0, 10, 56
3, 26522, Note_on_c, 0, 56, 49
3, 26613, Note_on_c, 0, 56, 0
3, 26613, Note_on_c, 0, 44, 0
3, 26638, Control_c, 0, 10, 54
3, 26639, Note_on_c, 0, 54, 48
3, 26641, Control_c, 0, 10, 42
3, 26642, Note_on_c, 0, 42, 51
3, 26734, Note_on_c, 0, 42, 0
3, 26735, Note_on_c, 0, 54, 0
3, 26760, Control_c, 0, 10, 53
3, 26761, Note_on_c, 0, 53, 50
3, 26763, Control_c, 0, 10, 41
3, 26764, Note_on_c, 0, 41, 48
3, 26858, Note_on_c, 0, 41, 0
3, 26858, Note_on_c, 0, 53, 0
3, 26878, Control_c, 0, 10, 39
3, 26879, Note_on_c, 0, 39, 58
3, 26880, Control_c, 0, 10, 51
3, 26881, Note_on_c, 0, 51, 61
3, 26971, Note_on_c, 0, 39, 0
3, 26972, Note_on_c, 0, 51, 0
3, 26996, Control_c, 0, 10, 52
3, 26997, Note_on_c, 0, 51, 51
3, 26997, Note_on_c, 0, 54, 51
3, 27000, Control_c, 0, 10, 58
3, 27001, Note_on_c, 0, 58, 51
3, 27091, Note_on_c, 0, 51, 0
3, 27093, Note_on_c, 0, 54, 0
3, 27098, Note_on_c, 0, 58, 0
3, 27238, Control_c, 0, 10, 43
3, 27239, Note_on_c, 0, 49, 55
3, 27239, Note_on_c, 0, 37, 57
3, 27330, Note_on_c, 0, 37, 0
3, 27333, Note_on_c, 0, 49, 0
3, 27355, Control_c, 0, 10, 51
3, 27356, Note_on_c, 0, 51, 60
3, 27361, Control_c, 0, 10, 39
3, 27362, Note_on_c, 0, 39, 60
3, 27447, Note_on_c, 0, 51, 0
3, 27454, Note_on_c, 0, 39, 0
3, 27476, Control_c, 0, 10, 56
3, 27477, Note_on_c, 0, 54, 55
3, 27477, Note_on_c, 0, 58, 57
3, 27481, Control_c, 0, 10, 51
3, 27482, Note_on_c, 0, 51, 60
3, 27571, Note_on_c, 0, 54, 0
3, 27574, Note_on_c, 0, 58, 0
3, 27575, Note_on_c, 0, 51, 0
3, 27716, Control_c, 0, 10, 49
3, 27717, Note_on_c, 0, 49, 62
3, 27720, Control_c, 0, 10, 37
3, 27721, Note_on_c, 0, 37, 58
3, 27810, Note_on_c, 0, 49, 0
3, 27815, Note_on_c, 0, 37, 0
3, 27836, Control_c, 0, 10, 39
3, 27837, Control_c, 0, 10, 51
3, 27837, Note_on_c, 0, 39, 66
3, 27838, Note_on_c, 0, 51, 74
3, 27895, Note_on_c, 0, 39, 0
3, 27896, Note_on_c, 0, 51, 0
3, 27960, Control_c, 0, 10, 49
3, 27961, Note_on_c, 0, 49, 63
3, 27963, Control_c, 0, 10, 37
3, 27964, Note_on_c, 0, 37, 62
3, 28017, Note_on_c, 0, 49, 0
3, 28023, Note_on_c, 0, 37, 0
3, 28079, Control_c, 0, 10, 41
3, 28080, Note_on_c, 0, 41, 65
3, 28083, Control_c, 0, 10, 53
3, 28084, Note_on_c, 0, 53, 69
3, 28497, Note_on_c, 0, 41, 0
3, 28499, Note_on_c, 0, 53, 0
3, 28501, Note_on_c, 0, 53, 61
3, 28559, Note_on_c, 0, 53, 0
3, 28563, Control_c, 0, 10, 49
3, 28564, Note_on_c, 0, 49, 62
3, 28659, Note_on_c, 0, 49, 0
3, 28681, Control_c, 0, 10, 48
3, 28682, Note_on_c, 0, 48, 63
3, 28778, Note_on_c, 0, 48, 0
3, 28796, Control_c, 0, 10, 46
3, 28797, Note_on_c, 0, 46, 85
3, 28973, Note_on_c, 0, 46, 0
3, 28979, Control_c, 0, 10, 48
3, 28980, Note_on_c, 0, 48, 72
3, 29035, Control_c, 0, 10, 49
3, 29036, Note_on_c, 0, 49, 71
3, 29040, Note_on_c, 0, 48, 0
3, 29128, Note_on_c, 0, 49, 0
3, 29158, Control_c, 0, 10, 51
3, 29159, Note_on_c, 0, 51, 76
3, 29252, Note_on_c, 0, 51, 0
3, 29278, Control_c, 0, 10, 52
3, 29279, Note_on_c, 0, 52, 89
3, 29456, Note_on_c, 0, 52, 0
3, 29458, Control_c, 0, 10, 53
3, 29459, Note_on_c, 0, 53, 82
3, 29520, Note_on_c, 0, 53, 0
3, 29522, Control_c, 0, 10, 49
3, 29523, Note_on_c, 0, 49, 87
3, 29618, Note_on_c, 0, 49, 0
3, 29639, Control_c, 0, 10, 48
3, 29640, Note_on_c, 0, 48, 89
3, 29735, Note_on_c, 0, 48, 0
3, 29760, Control_c, 0, 10, 40
3, 29761, Note_on_c, 0, 46, 103
3, 29761, Note_on_c, 0, 34, 98
3, 29935, Control_c, 0, 10, 36
3, 29936, Note_on_c, 0, 34, 0
3, 29936, Note_on_c, 0, 36, 87
3, 29939, Note_on_c, 0, 46, 0
3, 29940, Control_c, 0, 10, 48
3, 29941, Note_on_c, 0, 48, 94
3, 29992, Note_on_c, 0, 36, 0
3, 29997, Control_c, 0, 10, 49
3, 29998, Note_on_c, 0, 49, 93
3, 29999, Note_on_c, 0, 48, 0
3, 29999, Control_c, 0, 10, 37
3, 30000, Note_on_c, 0, 37, 91
3, 30094, Note_on_c, 0, 37, 0
3, 30095, Note_on_c, 0, 49, 0
3, 30117, Control_c, 0, 10, 39
3, 30118, Note_on_c, 0, 39, 96
3, 30119, Control_c, 0, 10, 51
3, 30120, Note_on_c, 0, 51, 99
3, 30213, Note_on_c, 0, 51, 0
3, 30214, Note_on_c, 0, 39, 0
3, 30240, Control_c, 0, 10, 52
3, 30241, Note_on_c, 0, 52, 106
3, 30243, Control_c, 0, 10, 40
3, 30244, Note_on_c, 0, 40, 108
3, 30421, Note_on_c, 0, 52, 0
3, 30423, Note_on_c, 0, 40, 0
3, 30423, Control_c, 0, 10, 47
3, 30424, Note_on_c, 0, 53, 104
3, 30424, Note_on_c, 0, 41, 97
3, 30477, Control_c, 0, 10, 37
3, 30478, Note_on_c, 0, 37, 96
3, 30479, Note_on_c, 0, 41, 0
3, 30480, Note_on_c, 0, 53, 0
3, 30481, Control_c, 0, 10, 49
3, 30482, Note_on_c, 0, 49, 89
3, 30572, Note_on_c, 0, 37, 0
3, 30574, Note_on_c, 0, 49, 0
3, 30598, Control_c, 0, 10, 48
3, 30599, Note_on_c, 0, 48, 83
3, 30599, Control_c, 0, 10, 36
3, 30600, Note_on_c, 0, 36, 83
3, 30693, Note_on_c, 0, 48, 0
3, 30694, Note_on_c, 0, 36, 0
3, 30720, Control_c, 0, 10, 34
3, 30721, Control_c, 0, 10, 46
3, 30721, Note_on_c, 0, 34, 74
3, 30722, Note_on_c, 0, 46, 71
3, 30782, Note_on_c, 0, 34, 0
3, 30783, Note_on_c, 0, 46, 0
3, 30835, Control_c, 0, 10, 44
3, 30836, Note_on_c, 0, 44, 59
3, 30843, Control_c, 0, 10, 32
3, 30844, Note_on_c, 0, 32, 61
3, 30892, Note_on_c, 0, 44, 0
3, 30902, Note_on_c, 0, 32, 0
3, 30960, Control_c, 0, 10, 42
3, 30961, Note_on_c, 0, 42, 59
3, 30963, Control_c, 0, 10, 30
3, 30964, Note_on_c, 0, 30, 56
3, 31021, Note_on_c, 0, 42, 0
3, 31023, Note_on_c, 0, 30, 0
3, 31081, Control_c, 0, 10, 35
3, 31082, Note_on_c, 0, 41, 57
3, 31082, Note_on_c, 0, 29, 57
3, 31139, Note_on_c, 0, 41, 0
3, 31141, Note_on_c, 0, 29, 0
3, 31197, Control_c, 0, 10, 39
3, 31198, Note_on_c, 0, 39, 53
3, 31200, Control_c, 0, 10, 27
3, 31201, Note_on_c, 0, 27, 53
3, 31315, Note_on_c, 0, 39, 0
3, 31322, Note_on_c, 0, 27, 0
3, 31441, Control_c, 0, 10, 29
3, 31442, Note_on_c, 0, 29, 45
3, 31442, Control_c, 0, 10, 41
3, 31443, Note_on_c, 0, 41, 49
3, 31558, Note_on_c, 0, 41, 0
3, 31561, Note_on_c, 0, 29, 0
3, 31677, Control_c, 0, 10, 34
3, 31678, Note_on_c, 0, 34, 79
3, 31683, Control_c, 0, 10, 22
3, 31684, Note_on_c, 0, 22, 77
3, 32034, Note_on_c, 0, 34, 0
3, 32045, Note_on_c, 0, 22, 0
3, 32156, Note_on_c, 0, 22, 86
3, 32161, Control_c, 0, 10, 34
3, 32162, Note_on_c, 0, 34, 90
3, 32515, Note_on_c, 0, 22, 0
3, 32520, Note_on_c, 0, 34, 0
3, 32636, Note_on_c, 0, 34, 84
3, 32637, Control_c, 0, 10, 22
3, 32638, Note_on_c, 0, 22, 81
3, 32993, Note_on_c, 0, 34, 0
3, 32998, Note_on_c, 0, 22, 0
3, 33115, Control_c, 0, 10, 37
3, 33116, Note_on_c, 0, 37, 76
3, 33122, Control_c, 0, 10, 49
3, 33123, Note_on_c, 0, 49, 77
3, 33595, Note_on_c, 0, 37, 0
3, 33597, Control_c, 0, 10, 42
3, 33598, Note_on_c, 0, 42, 69
3, 33599, Note_on_c, 0, 49, 0
3, 33601, Control_c, 0, 10, 30
3, 33602, Note_on_c, 0, 30, 74
3, 33775, Note_on_c, 0, 42, 0
3, 33781, Control_c, 0, 10, 49
3, 33782, Note_on_c, 0, 49, 62
3, 33783, Note_on_c, 0, 30, 0
3, 33837, Note_on_c, 0, 49, 0
3, 33843, Control_c, 0, 10, 61
3, 33844, Note_on_c, 0, 61, 67
3, 33940, Note_on_c, 0, 61, 0
3, 33959, Control_c, 0, 10, 49
3, 33960, Note_on_c, 0, 49, 68
3, 34054, Note_on_c, 0, 49, 0
3, 34076, Control_c, 0, 10, 61
3, 34077, Note_on_c, 0, 61, 66
3, 34313, Note_on_c, 0, 61, 0
3, 34315, Control_c, 0, 10, 49
3, 34316, Note_on_c, 0, 49, 61
3, 34556, Note_on_c, 0, 49, 0
3, 34560, Control_c, 0, 10, 30
3, 34561, Note_on_c, 0, 30, 77
3, 34561, Control_c, 0, 10, 42
3, 34562, Note_on_c, 0, 42, 76
3, 34738, Note_on_c, 0, 42, 0
3, 34739, Note_on_c, 0, 30, 0
3, 34741, Control_c, 0, 10, 49
3, 34742, Note_on_c, 0, 49, 67
3, 34797, Note_on_c, 0, 49, 0
3, 34800, Control_c, 0, 10, 61
3, 34801, Note_on_c, 0, 61, 69
3, 34892, Note_on_c, 0, 61, 0
3, 34916, Control_c, 0, 10, 49
3, 34917, Note_on_c, 0, 49, 69
3, 35009, Note_on_c, 0, 49, 0
3, 35041, Control_c, 0, 10, 42
3, 35042, Note_on_c, 0, 42, 69
3, 35278, Note_on_c, 0, 42, 0
3, 35517, Control_c, 0, 10, 39
3, 35518, Note_on_c, 0, 39, 78
3, 35522, Control_c, 0, 10, 27
3, 35523, Note_on_c, 0, 27, 81
3, 35693, Note_on_c, 0, 39, 0
3, 35695, Control_c, 0, 10, 51
3, 35696, Control_c, 0, 10, 58
3, 35696, Note_on_c, 0, 51, 68
3, 35697, Note_on_c, 0, 58, 65
3, 35698, Note_on_c, 0, 27, 0
3, 35756, Note_on_c, 0, 51, 0
3, 35756, Control_c, 0, 10, 61
3, 35757, Note_on_c, 0, 58, 0
3, 35757, Note_on_c, 0, 61, 66
3, 35761, Control_c, 0, 10, 54
3, 35762, Note_on_c, 0, 54, 68
3, 35875, Note_on_c, 0, 61, 0
3, 35878, Note_on_c, 0, 54, 0
3, 35999, Control_c, 0, 10, 32
3, 36000, Control_c, 0, 10, 44
3, 36000, Note_on_c, 0, 32, 80
3, 36001, Note_on_c, 0, 44, 76
3, 36179, Control_c, 0, 10, 51
3, 36180, Note_on_c, 0, 44, 0
3, 36180, Note_on_c, 0, 32, 0
3, 36180, Note_on_c, 0, 51, 64
3, 36181, Control_c, 0, 10, 60
3, 36182, Note_on_c, 0, 60, 62
3, 36237, Note_on_c, 0, 60, 0
3, 36240, Control_c, 0, 10, 56
3, 36241, Note_on_c, 0, 51, 0
3, 36241, Note_on_c, 0, 56, 61
3, 36242, Control_c, 0, 10, 63
3, 36243, Note_on_c, 0, 63, 68
3, 36356, Note_on_c, 0, 56, 0
3, 36364, Note_on_c, 0, 63, 0
3, 36475, Control_c, 0, 10, 37
3, 36476, Note_on_c, 0, 37, 73
3, 36654, Note_on_c, 0, 37, 0
3, 36658, Control_c, 0, 10, 61
3, 36659, Control_c, 0, 10, 53
3, 36659, Note_on_c, 0, 61, 69
3, 36660, Note_on_c, 0, 53, 64
3, 36717, Control_c, 0, 10, 56
3, 36718, Note_on_c, 0, 61, 0
3, 36718, Note_on_c, 0, 56, 67
3, 36719, Control_c, 0, 10, 65
3, 36720, Note_on_c, 0, 53, 0
3, 36720, Note_on_c, 0, 65, 61
3, 36812, Note_on_c, 0, 56, 0
3, 36815, Note_on_c, 0, 65, 0
3, 36839, Control_c, 0, 10, 53
3, 36840, Note_on_c, 0, 53, 64
3, 36842, Control_c, 0, 10, 61
3, 36843, Note_on_c, 0, 61, 65
3, 36934, Note_on_c, 0, 53, 0
3, 36937, Note_on_c, 0, 61, 0
3, 36960, Control_c, 0, 10, 63
3, 36961, Note_on_c, 0, 63, 72
3, 37199, Control_c, 0, 10, 51
3, 37200, Note_on_c, 0, 63, 0
3, 37200, Note_on_c, 0, 51, 76
3, 37437, Note_on_c, 0, 51, 0
3, 37439, Control_c, 0, 10, 44
3, 37440, Note_on_c, 0, 44, 88
3, 37440, Control_c, 0, 10, 32
3, 37441, Note_on_c, 0, 32, 89
3, 37616, Note_on_c, 0, 32, 0
3, 37617, Note_on_c, 0, 44, 0
3, 37618, Control_c, 0, 10, 51
3, 37619, Note_on_c, 0, 51, 75
3, 37674, Note_on_c, 0, 51, 0
3, 37682, Control_c, 0, 10, 63
3, 37683, Note_on_c, 0, 63, 75
3, 37774, Note_on_c, 0, 63, 0
3, 37797, Control_c, 0, 10, 51
3, 37798, Note_on_c, 0, 51, 73
3, 37891, Note_on_c, 0, 51, 0
3, 37917, Control_c, 0, 10, 61
3, 37918, Note_on_c, 0, 61, 84
3, 38154, Note_on_c, 0, 61, 0
3, 38157, Note_on_c, 0, 61, 83
3, 38232, Note_on_c, 0, 61, 0
3, 38243, Control_c, 0, 10, 59
3, 38244, Note_on_c, 0, 59, 78
3, 38316, Control_c, 0, 10, 58
3, 38317, Note_on_c, 0, 58, 79
3, 38321, Note_on_c, 0, 59, 0
3, 38397, Note_on_c, 0, 58, 0
3, 38399, Control_c, 0, 10, 61
3, 38400, Note_on_c, 0, 61, 91
3, 38403, Control_c, 0, 10, 56
3, 38404, Note_on_c, 0, 56, 84
3, 38515, Note_on_c, 0, 61, 0
3, 38524, Note_on_c, 0, 56, 0
3, 38636, Control_c, 0, 10, 59
3, 38637, Note_on_c, 0, 59, 81
3, 38994, Note_on_c, 0, 59, 0
3, 39058, Note_on_c, 0, 59, 67
3, 39115, Note_on_c, 0, 59, 0
3, 39119, Control_c, 0, 10, 63
3, 39120, Note_on_c, 0, 63, 63
3, 39213, Note_on_c, 0, 63, 0
3, 39242, Control_c, 0, 10, 59
3, 39243, Note_on_c, 0, 59, 69
3, 39340, Note_on_c, 0, 59, 0
3, 39361, Control_c, 0, 10, 58
3, 39362, Note_on_c, 0, 58, 73
3, 39535, Control_c, 0, 10, 54
3, 39536, Note_on_c, 0, 54, 66
3, 39543, Note_on_c, 0, 58, 0
3, 39595, Control_c, 0, 10, 51
3, 39596, Note_on_c, 0, 54, 0
3, 39596, Note_on_c, 0, 51, 62
3, 39711, Note_on_c, 0, 51, 0
3, 39718, Control_c, 0, 10, 47
3, 39719, Note_on_c, 0, 47, 62
3, 39835, Note_on_c, 0, 47, 0
3, 39837, Control_c, 0, 10, 49
3, 39838, Note_on_c, 0, 49, 67
3, 39956, Note_on_c, 0, 49, 0
3, 39959, Control_c, 0, 10, 37
3, 39960, Note_on_c, 0, 37, 69
3, 40077, Control_c, 0, 10, 61
3, 40078, Note_on_c, 0, 61, 62
3, 40081, Note_on_c, 0, 37, 0
3, 40314, Note_on_c, 0, 61, 0
3, 40319, Control_c, 0, 10, 30
3, 40320, Note_on_c, 0, 30, 73
3, 40322, Control_c, 0, 10, 42
3, 40323, Note_on_c, 0, 42, 69
3, 40496, Control_c, 0, 10, 49
3, 40497, Note_on_c, 0, 49, 64
3, 40503, Control_c, 0, 10, 58
3, 40504, Note_on_c, 0, 58, 68
3, 40554, Note_on_c, 0, 49, 0
3, 40555, Control_c, 0, 10, 61
3, 40556, Note_on_c, 0, 61, 61
3, 40561, Note_on_c, 0, 58, 0
3, 40562, Control_c, 0, 10, 54
3, 40563, Note_on_c, 0, 54, 62
3, 40652, Note_on_c, 0, 61, 0
3, 40656, Note_on_c, 0, 54, 0
3, 40681, Control_c, 0, 10, 66
3, 40682, Control_c, 0, 10, 58
3, 40682, Note_on_c, 0, 66, 67
3, 40683, Note_on_c, 0, 58, 69
3, 40776, Note_on_c, 0, 58, 0
3, 40778, Note_on_c, 0, 66, 0
3, 40795, Control_c, 0, 10, 61
3, 40796, Note_on_c, 0, 61, 70
3, 40801, Control_c, 0, 10, 70
3, 40802, Note_on_c, 0, 70, 69
3, 40911, Note_on_c, 0, 61, 0
3, 40922, Note_on_c, 0, 70, 0
3, 41037, Control_c, 0, 10, 49
3, 41038, Note_on_c, 0, 49, 110
3, 41038, Control_c, 0, 10, 37
3, 41039, Note_on_c, 0, 37, 103
3, 41275, Note_on_c, 0, 37, 0
3, 41275, Note_on_c, 0, 30, 0
3, 41279, Note_on_c, 0, 49, 0
3, 41280, Note_on_c, 0, 42, 0
3, 41280, Control_c, 0, 10, 42
3, 41281, Note_on_c, 0, 42, 106
3, 41282, Control_c, 0, 10, 30
3, 41283, Note_on_c, 0, 30, 104
3, 41463, Control_c, 0, 10, 49
3, 41464, Note_on_c, 0, 49, 93
3, 41522, Control_c, 0, 10, 61
3, 41523, Note_on_c, 0, 61, 91
3, 41525, Note_on_c, 0, 49, 0
3, 41639, Note_on_c, 0, 61, 0
3, 41641, Note_on_c, 0, 61, 99
3, 41736, Note_on_c, 0, 61, 0
3, 41763, Control_c, 0, 10, 73
3, 41764, Note_on_c, 0, 73, 95
3, 41997, Control_c, 0, 10, 49
3, 41998, Note_on_c, 0, 49, 93
3, 42000, Control_c, 0, 10, 37
3, 42001, Note_on_c, 0, 73, 0
3, 42001, Note_on_c, 0, 37, 99
3, 42235, Note_on_c, 0, 42, 0
3, 42236, Control_c, 0, 10, 42
3, 42237, Note_on_c, 0, 37, 0
3, 42237, Note_on_c, 0, 42, 107
3, 42238, Note_on_c, 0, 49, 0
3, 42240, Note_on_c, 0, 30, 0
3, 42241, Control_c, 0, 10, 30
3, 42242, Note_on_c, 0, 30, 102
3, 42415, Control_c, 0, 10, 58
3, 42416, Note_on_c, 0, 58, 96
3, 42419, Control_c, 0, 10, 49
3, 42420, Note_on_c, 0, 49, 95
3, 42472, Note_on_c, 0, 58, 0
3, 42477, Note_on_c, 0, 49, 0
3, 42480, Control_c, 0, 10, 61
3, 42481, Note_on_c, 0, 61, 99
3, 42481, Control_c, 0, 10, 54
3, 42482, Note_on_c, 0, 54, 96
3, 42597, Note_on_c, 0, 54, 0
3, 42598, Note_on_c, 0, 61, 0
3, 42599, Control_c, 0, 10, 62
3, 42600, Note_on_c, 0, 58, 94
3, 42600, Note_on_c, 0, 66, 92
3, 42694, Note_on_c, 0, 58, 0
3, 42695, Note_on_c, 0, 66, 0
3, 42721, Control_c, 0, 10, 70
3, 42722, Note_on_c, 0, 70, 97
3, 42723, Control_c, 0, 10, 61
3, 42724, Note_on_c, 0, 61, 96
3, 42955, Control_c, 0, 10, 58
3, 42956, Control_c, 0, 10, 66
3, 42956, Note_on_c, 0, 58, 95
3, 42957, Note_on_c, 0, 66, 99
3, 42960, Note_on_c, 0, 70, 0
3, 42961, Note_on_c, 0, 61, 0
3, 43193, Note_on_c, 0, 58, 0
3, 43196, Note_on_c, 0, 66, 0
3, 43196, Control_c, 0, 10, 39
3, 43197, Note_on_c, 0, 30, 0
3, 43197, Note_on_c, 0, 39, 102
3, 43198, Note_on_c, 0, 42, 0
3, 43201, Control_c, 0, 10, 27
3, 43202, Note_on_c, 0, 27, 108
3, 43377, Control_c, 0, 10, 61
3, 43378, Note_on_c, 0, 61, 96
3, 43383, Control_c, 0, 10, 54
3, 43384, Note_on_c, 0, 54, 97
3, 43437, Note_on_c, 0, 61, 0
3, 43439, Note_on_c, 0, 54, 0
3, 43439, Control_c, 0, 10, 66
3, 43440, Note_on_c, 0, 66, 98
3, 43442, Control_c, 0, 10, 58
3, 43443, Note_on_c, 0, 58, 96
3, 43561, Note_on_c, 0, 66, 0
3, 43564, Note_on_c, 0, 58, 0
3, 43675, Note_on_c, 0, 39, 0
3, 43679, Control_c, 0, 10, 32
3, 43680, Note_on_c, 0, 27, 0
3, 43680, Note_on_c, 0, 32, 112
3, 43682, Control_c, 0, 10, 44
3, 43683, Note_on_c, 0, 44, 106
3, 43858, Control_c, 0, 10, 51
3, 43859, Note_on_c, 0, 51, 96
3, 43859, Control_c, 0, 10, 60
3, 43860, Note_on_c, 0, 60, 97
3, 43918, Control_c, 0, 10, 66
3, 43919, Note_on_c, 0, 66, 95
3, 43920, Note_on_c, 0, 51, 0
3, 43921, Note_on_c, 0, 60, 0
3, 43923, Control_c, 0, 10, 56
3, 43924, Note_on_c, 0, 56, 93
3, 44039, Note_on_c, 0, 56, 0
3, 44039, Note_on_c, 0, 66, 0
3, 44159, Control_c, 0, 10, 37
3, 44160, Note_on_c, 0, 32, 0
3, 44160, Control_c, 0, 10, 25
3, 44160, Note_on_c, 0, 37, 110
3, 44161, Note_on_c, 0, 25, 102
3, 44163, Note_on_c, 0, 44, 0
3, 44335, Control_c, 0, 10, 53
3, 44336, Note_on_c, 0, 53, 94
3, 44342, Control_c, 0, 10, 61
3, 44343, Note_on_c, 0, 61, 95
3, 44392, Note_on_c, 0, 53, 0
3, 44396, Control_c, 0, 10, 65
3, 44397, Note_on_c, 0, 65, 91
3, 44399, Control_c, 0, 10, 56
3, 44400, Note_on_c, 0, 56, 91
3, 44401, Note_on_c, 0, 61, 0
3, 44490, Note_on_c, 0, 65, 0
3, 44496, Note_on_c, 0, 56, 0
3, 44519, Control_c, 0, 10, 53
3, 44520, Note_on_c, 0, 53, 96
3, 44523, Control_c, 0, 10, 61
3, 44524, Note_on_c, 0, 61, 95
3, 44617, Note_on_c, 0, 53, 0
3, 44619, Note_on_c, 0, 61, 0
3, 44640, Control_c, 0, 10, 39
3, 44641, Note_on_c, 0, 37, 0
3, 44641, Note_on_c, 0, 39, 111
3, 44642, Note_on_c, 0, 25, 0
3, 44642, Control_c, 0, 10, 27
3, 44643, Note_on_c, 0, 27, 107
3, 44876, Control_c, 0, 10, 63
3, 44877, Note_on_c, 0, 63, 94
3, 44877, Control_c, 0, 10, 67
3, 44878, Note_on_c, 0, 67, 95
3, 44883, Control_c, 0, 10, 61
3, 44884, Note_on_c, 0, 61, 98
3, 45116, Note_on_c, 0, 67, 0
3, 45116, Control_c, 0, 10, 32
3, 45117, Note_on_c, 0, 63, 0
3, 45117, Note_on_c, 0, 32, 103
3, 45120, Note_on_c, 0, 61, 0
3, 45121, Note_on_c, 0, 39, 0
3, 45121, Note_on_c, 0, 27, 0
3, 45123, Control_c, 0, 10, 44
3, 45124, Note_on_c, 0, 44, 100
3, 45296, Control_c, 0, 10, 51
3, 45297, Note_on_c, 0, 51, 97
3, 45353, Note_on_c, 0, 51, 0
3, 45361, Control_c, 0, 10, 63
3, 45362, Note_on_c, 0, 63, 96
3, 45480, Control_c, 0, 10, 51
3, 45481, Note_on_c, 0, 63, 0
3, 45481, Note_on_c, 0, 51, 97
3, 45572, Note_on_c, 0, 51, 0
3, 45593, Note_on_c, 0, 32, 0
3, 45599, Control_c, 0, 10, 61
3, 45600, Note_on_c, 0, 44, 0
3, 45600, Note_on_c, 0, 61, 103
3, 45602, Control_c, 0, 10, 64
3, 45603, Note_on_c, 0, 64, 102
3, 45722, Control_c, 0, 10, 51
3, 45723, Note_on_c, 0, 51, 99
3, 45836, Note_on_c, 0, 61, 0
3, 45838, Note_on_c, 0, 51, 0
3, 45839, Note_on_c, 0, 64, 0
3, 45840, Control_c, 0, 10, 62
3, 45841, Note_on_c, 0, 61, 92
3, 45841, Note_on_c, 0, 64, 98
3, 45921, Note_on_c, 0, 61, 0
3, 45923, Control_c, 0, 10, 59
3, 45924, Note_on_c, 0, 59, 96
3, 45996, Control_c, 0, 10, 58
3, 45997, Note_on_c, 0, 58, 96
3, 46005, Note_on_c, 0, 59, 0
3, 46072, Note_on_c, 0, 58, 0
3, 46075, Control_c, 0, 10, 61
3, 46076, Note_on_c, 0, 61, 107
3, 46081, Note_on_c, 0, 64, 0
3, 46082, Control_c, 0, 10, 64
3, 46083, Note_on_c, 0, 64, 107
3, 46197, Note_on_c, 0, 61, 0
3, 46204, Note_on_c, 0, 64, 0
3, 46315, Control_c, 0, 10, 59
3, 46316, Note_on_c, 0, 59, 109
3, 46322, Control_c, 0, 10, 63
3, 46323, Note_on_c, 0, 63, 104
3, 46674, Note_on_c, 0, 59, 0
3, 46678, Note_on_c, 0, 63, 0
3, 46743, Control_c, 0, 10, 59
3, 46744, Note_on_c, 0, 59, 57
3, 46799, Control_c, 0, 10, 63
3, 46800, Note_on_c, 0, 63, 54
3, 46804, Note_on_c, 0, 59, 0
3, 46896, Note_on_c, 0, 63, 0
3, 46918, Control_c, 0, 10, 59
3, 46919, Note_on_c, 0, 59, 59
3, 47016, Note_on_c, 0, 59, 0
3, 47035, Control_c, 0, 10, 58
3, 47036, Note_on_c, 0, 58, 65
3, 47217, Note_on_c, 0, 58, 0
3, 47219, Control_c, 0, 10, 54
3, 47220, Note_on_c, 0, 54, 54
3, 47276, Note_on_c, 0, 54, 0
3, 47278, Control_c, 0, 10, 51
3, 47279, Note_on_c, 0, 51, 58
3, 47397, Control_c, 0, 10, 47
3, 47398, Note_on_c, 0, 47, 52
3, 47400, Note_on_c, 0, 51, 0
3, 47518, Note_on_c, 0, 47, 0
3, 47522, Control_c, 0, 10, 49
3, 47523, Note_on_c, 0, 49, 61
3, 47635, Control_c, 0, 10, 37
3, 47636, Note_on_c, 0, 37, 57
3, 47642, Note_on_c, 0, 49, 0
3, 47731, Note_on_c, 0, 37, 0
3, 47756, Control_c, 0, 10, 61
3, 47757, Note_on_c, 0, 61, 57
3, 47994, Note_on_c, 0, 61, 0
3, 47996, Control_c, 0, 10, 42
3, 47997, Note_on_c, 0, 42, 65
3, 48001, Control_c, 0, 10, 30
3, 48002, Note_on_c, 0, 30, 61
3, 48176, Control_c, 0, 10, 66
3, 48177, Note_on_c, 0, 66, 57
3, 48179, Control_c, 0, 10, 58
3, 48180, Note_on_c, 0, 58, 60
3, 48233, Note_on_c, 0, 66, 0
3, 48235, Control_c, 0, 10, 61
3, 48236, Note_on_c, 0, 61, 64
3, 48238, Note_on_c, 0, 58, 0
3, 48242, Control_c, 0, 10, 70
3, 48243, Note_on_c, 0, 70, 63
3, 48353, Note_on_c, 0, 61, 0
3, 48361, Control_c, 0, 10, 73
3, 48362, Note_on_c, 0, 70, 0
3, 48362, Note_on_c, 0, 73, 75
3, 48363, Control_c, 0, 10, 66
3, 48364, Note_on_c, 0, 66, 79
3, 48479, Note_on_c, 0, 66, 0
3, 48481, Note_on_c, 0, 66, 87
3, 48483, Note_on_c, 0, 73, 0
3, 48491, Control_c, 0, 10, 73
3, 48492, Note_on_c, 0, 73, 90
3, 48499, Control_c, 0, 10, 78
3, 48500, Note_on_c, 0, 78, 84
3, 48719, Note_on_c, 0, 73, 0
3, 48721, Note_on_c, 0, 66, 0
3, 48721, Note_on_c, 0, 78, 0
3, 48958, Note_on_c, 0, 30, 0
3, 48958, Note_on_c, 0, 42, 0
3, 48958, End_track
4, 0, Start_track
4, 0, Title_t, "By Cécile Chaminade  ((1857-1944)"
4, 0, End_track
5, 0, Start_track
5, 0, Title_t, "Entered by John Cowles  (04/22/96)"
5, 0, End_track
6, 0, Start_track
6, 0, Title_t, "cowles@hydra.rsn.hp.com"
6, 0, End_track
0, 0, End_of_file
