0, 0, Header, 1, 4, 960
1, 0, Start_track
1, 0, Title_t, "La Lisonjera"
1, 0, Text_t, "Cecile Chamiande"
1, 0, Time_signature, 4, 2, 24, 8
1, 0, Key_signature, 0, "major"
1, 0, Tempo, 511814
1, 4800, Tempo, 604656
1, 6240, Tempo, 518448
1, 8640, Tempo, 591250
1, 10080, Tempo, 511814
1, 16320, Tempo, 582637
1, 17760, Tempo, 518448
1, 20160, Tempo, 595652
1, 21600, Tempo, 518448
1, 24000, Tempo, 595652
1, 25440, Tempo, 539035
1, 26880, Tempo, 495458
1, 30720, Tempo, 473634
1, 34320, Tempo, 539035
1, 35520, Tempo, 638434
1, 36960, Tempo, 511814
1, 39360, Tempo, 604656
1, 40800, Tempo, 495950
1, 47040, Tempo, 609261
1, 48480, Tempo, 535666
1, 50880, Tempo, 600120
1, 52320, Tempo, 535666
1, 52800, Tempo, 620861
1, 53280, Tempo, 708048
1, 54240, Tempo, 508561
1, 57600, Tempo, 539423
1, 62400, Tempo, 604656
1, 63840, Tempo, 508561
1, 66240, Tempo, 600120
1, 67680, Tempo, 511814
1, 70080, Tempo, 582920
1, 71520, Tempo, 515110
1, 74880, Tempo, 543085
1, 75840, Tempo, 578425
1, 77760, Tempo, 609261
1, 79200, Tempo, 535666
1, 81600, Tempo, 582920
1, 83040, Tempo, 535666
1, 85440, Tempo, 582920
1, 86880, Tempo, 535810
1, 88320, Tempo, 571429
1, 93120, Tempo, 961847
1, 94560, Tempo, 664231
1, 96000, Tempo, 535762
1, 100800, Tempo, 582920
1, 102240, Tempo, 535666
1, 105600, Tempo, 570180
1, 106560, Tempo, 623571
1, 108480, Tempo, 595652
1, 109920, Tempo, 535666
1, 112320, Tempo, 600120
1, 113760, Tempo, 535666
1, 119040, Tempo, 481657
1, 120960, Tempo, 458540
1, 122880, Tempo, 595179
1, 124800, Tempo, 680041
1, 126720, Tempo, 473821
1, 127680, Tempo, 566145
1, 129120, Tempo, 507614
1, 131520, Tempo, 562166
1, 132960, Tempo, 507614
1, 139200, Tempo, 574273
1, 140640, Tempo, 510769
1, 143040, Tempo, 591250
1, 144480, Tempo, 510769
1, 146880, Tempo, 582637
1, 148320, Tempo, 510769
1, 149760, Tempo, 469520
1, 153600, Tempo, 448833
1, 157200, Tempo, 510769
1, 158400, Tempo, 595652
1, 159840, Tempo, 510769
1, 162240, Tempo, 586912
1, 163680, Tempo, 510769
1, 169920, Tempo, 591250
1, 171360, Tempo, 507614
1, 173760, Tempo, 586912
1, 174720, Tempo, 638434
1, 175200, Tempo, 633379
1, 175680, Tempo, 676285
1, 175920, Tempo, 682051
1, 176160, Tempo, 699953
1, 177120, Tempo, 507614
1, 185280, Tempo, 591250
1, 186720, Tempo, 507614
1, 189120, Tempo, 595652
1, 190560, Tempo, 507614
1, 192960, Tempo, 600120
1, 194400, Tempo, 507614
1, 197520, Tempo, 546797
1, 198720, Tempo, 595652
1, 200640, Tempo, 591250
1, 202080, Tempo, 507614
1, 204480, Tempo, 604656
1, 205920, Tempo, 507614
1, 208320, Tempo, 595652
1, 209760, Tempo, 507614
1, 211200, Tempo, 578425
1, 216000, Tempo, 911439
1, 217440, Tempo, 629459
1, 218880, Tempo, 507700
1, 223680, Tempo, 582637
1, 225120, Tempo, 507614
1, 228480, Tempo, 558243
1, 231360, Tempo, 586912
1, 232800, Tempo, 507614
1, 235200, Tempo, 591250
1, 236640, Tempo, 507614
1, 241920, Tempo, 456447
1, 243840, Tempo, 434531
1, 245760, Tempo, 564016
1, 247680, Tempo, 644399
1, 248640, Tempo, 640820
1, 249600, Tempo, 438532
1, 250560, Tempo, 486894
1, 252000, Tempo, 438532
1, 254400, Tempo, 489876
1, 255840, Tempo, 438532
1, 258240, Tempo, 489876
1, 259680, Tempo, 438532
1, 262080, Tempo, 471958
1, 263520, Tempo, 438532
1, 265920, Tempo, 478164
1, 267360, Tempo, 438532
1, 269760, Tempo, 489876
1, 271200, Tempo, 438532
1, 273600, Tempo, 486894
1, 275040, Tempo, 438532
1, 281280, Tempo, 499043
1, 282720, Tempo, 438532
1, 285120, Tempo, 499043
1, 286560, Tempo, 438532
1, 292800, Tempo, 502176
1, 294240, Tempo, 438532
1, 296640, Tempo, 495950
1, 297600, Tempo, 543085
1, 298080, Tempo, 566145
1, 299520, Tempo, 464288
1, 302400, Tempo, 417043
1, 308160, Tempo, 578425
1, 309600, Tempo, 486894
1, 312000, Tempo, 586912
1, 313440, Tempo, 486894
1, 315840, Tempo, 591250
1, 317280, Tempo, 483949
1, 319680, Tempo, 595652
1, 321120, Tempo, 483949
1, 323280, Tempo, 586912
1, 324960, Tempo, 486894
1, 327360, Tempo, 586912
1, 328800, Tempo, 511814
1, 345600, Tempo, 486894
1, 351360, Tempo, 451196
1, 357120, Tempo, 562166
1, 359040, Tempo, 699953
1, 359040, End_track
2, 0, Start_track
2, 0, Title_t, "Piano melody"
2, 0, Control_c, 0, 7, 105
2, 0, Control_c, 0, 91, 100
2, 2400, Note_on_c, 0, 61, 61
2, 2635, Note_on_c, 0, 61, 0
2, 2880, Note_on_c, 0, 63, 68
2, 3130, Note_on_c, 0, 63, 0
2, 3360, Note_on_c, 0, 65, 68
2, 3580, Note_on_c, 0, 65, 0
2, 3840, Note_on_c, 0, 68, 81
2, 4320, Note_on_c, 0, 68, 0
2, 4800, Note_on_c, 0, 66, 70
2, 6200, Note_on_c, 0, 66, 0
2, 6240, Note_on_c, 0, 66, 63
2, 6480, Note_on_c, 0, 66, 0
2, 6720, Note_on_c, 0, 66, 78
2, 7040, Note_on_c, 0, 66, 0
2, 7200, Note_on_c, 0, 65, 72
2, 7480, Note_on_c, 0, 65, 0
2, 7680, Note_on_c, 0, 68, 87
2, 8160, Note_on_c, 0, 68, 0
2, 8640, Note_on_c, 0, 66, 72
2, 10080, Note_on_c, 0, 66, 0
2, 10080, Note_on_c, 0, 61, 82
2, 10360, Note_on_c, 0, 61, 0
2, 10560, Note_on_c, 0, 63, 88
2, 10840, Note_on_c, 0, 63, 0
2, 11040, Note_on_c, 0, 65, 86
2, 11320, Note_on_c, 0, 65, 0
2, 11520, Note_on_c, 0, 68, 101
2, 11865, Note_on_c, 0, 68, 0
2, 12000, Note_on_c, 0, 66, 82
2, 12315, Note_on_c, 0, 66, 0
2, 12480, Note_on_c, 0, 73, 92
2, 12765, Note_on_c, 0, 73, 0
2, 12960, Note_on_c, 0, 70, 78
2, 13275, Note_on_c, 0, 70, 0
2, 13440, Note_on_c, 0, 68, 88
2, 13680, Note_on_c, 0, 68, 0
2, 13920, Note_on_c, 0, 66, 72
2, 14175, Note_on_c, 0, 66, 0
2, 14400, Note_on_c, 0, 65, 80
2, 14670, Note_on_c, 0, 65, 0
2, 14880, Note_on_c, 0, 63, 72
2, 15120, Note_on_c, 0, 63, 0
2, 15360, Note_on_c, 0, 66, 85
2, 15840, Note_on_c, 0, 66, 0
2, 16320, Note_on_c, 0, 65, 72
2, 17760, Note_on_c, 0, 65, 0
2, 17760, Note_on_c, 0, 63, 68
2, 17995, Note_on_c, 0, 63, 0
2, 18240, Note_on_c, 0, 65, 76
2, 18460, Note_on_c, 0, 65, 0
2, 18720, Note_on_c, 0, 66, 72
2, 18940, Note_on_c, 0, 66, 0
2, 19200, Note_on_c, 0, 70, 87
2, 19680, Note_on_c, 0, 70, 0
2, 20160, Note_on_c, 0, 68, 72
2, 21560, Note_on_c, 0, 68, 0
2, 21600, Note_on_c, 0, 68, 70
2, 22050, Note_on_c, 0, 68, 0
2, 22080, Note_on_c, 0, 70, 80
2, 22560, Note_on_c, 0, 70, 0
2, 22560, Note_on_c, 0, 66, 70
2, 23040, Note_on_c, 0, 66, 0
2, 23040, Note_on_c, 0, 70, 85
2, 23520, Note_on_c, 0, 70, 0
2, 24000, Note_on_c, 0, 68, 72
2, 25440, Note_on_c, 0, 68, 0
2, 25440, Note_on_c, 0, 66, 70
2, 25720, Note_on_c, 0, 66, 0
2, 25920, Note_on_c, 0, 68, 78
2, 26200, Note_on_c, 0, 68, 0
2, 26400, Note_on_c, 0, 70, 70
2, 26680, Note_on_c, 0, 70, 0
2, 26880, Note_on_c, 0, 72, 87
2, 27160, Note_on_c, 0, 72, 0
2, 27360, Note_on_c, 0, 68, 72
2, 27640, Note_on_c, 0, 68, 0
2, 27840, Note_on_c, 0, 70, 80
2, 28120, Note_on_c, 0, 70, 0
2, 28320, Note_on_c, 0, 72, 72
2, 28600, Note_on_c, 0, 72, 0
2, 28800, Note_on_c, 0, 73, 88
2, 29080, Note_on_c, 0, 73, 0
2, 29280, Note_on_c, 0, 70, 72
2, 29560, Note_on_c, 0, 70, 0
2, 29760, Note_on_c, 0, 72, 78
2, 30040, Note_on_c, 0, 72, 0
2, 30240, Note_on_c, 0, 73, 79
2, 30520, Note_on_c, 0, 73, 0
2, 30760, Note_on_c, 0, 75, 94
2, 31040, Note_on_c, 0, 72, 78
2, 31200, Note_on_c, 0, 75, 0
2, 31360, Note_on_c, 0, 73, 80
2, 31520, Note_on_c, 0, 72, 0
2, 31680, Note_on_c, 0, 74, 89
2, 31800, Note_on_c, 0, 73, 0
2, 32000, Note_on_c, 0, 75, 86
2, 32120, Note_on_c, 0, 74, 0
2, 32320, Note_on_c, 0, 76, 90
2, 32440, Note_on_c, 0, 75, 0
2, 32640, Note_on_c, 0, 76, 0
2, 32640, Note_on_c, 0, 77, 98
2, 32960, Note_on_c, 0, 77, 0
2, 32960, Note_on_c, 0, 73, 88
2, 33280, Note_on_c, 0, 74, 89
2, 33400, Note_on_c, 0, 73, 0
2, 33600, Note_on_c, 0, 74, 0
2, 33600, Note_on_c, 0, 75, 96
2, 33920, Note_on_c, 0, 76, 86
2, 34040, Note_on_c, 0, 75, 0
2, 34240, Note_on_c, 0, 77, 86
2, 34360, Note_on_c, 0, 76, 0
2, 34560, Note_on_c, 0, 77, 0
2, 34560, Note_on_c, 0, 80, 98
2, 35040, Note_on_c, 0, 80, 0
2, 35520, Note_on_c, 0, 78, 82
2, 36920, Note_on_c, 0, 78, 0
2, 36960, Note_on_c, 0, 78, 76
2, 37400, Note_on_c, 0, 78, 0
2, 37440, Note_on_c, 0, 78, 82
2, 37920, Note_on_c, 0, 78, 0
2, 37920, Note_on_c, 0, 77, 76
2, 38400, Note_on_c, 0, 77, 0
2, 38400, Note_on_c, 0, 80, 82
2, 38880, Note_on_c, 0, 80, 0
2, 39360, Note_on_c, 0, 78, 82
2, 40800, Note_on_c, 0, 78, 0
2, 40800, Note_on_c, 0, 73, 68
2, 41280, Note_on_c, 0, 75, 78
2, 41480, Note_on_c, 0, 73, 0
2, 41760, Note_on_c, 0, 77, 88
2, 41960, Note_on_c, 0, 75, 0
2, 42240, Note_on_c, 0, 80, 96
2, 42400, Note_on_c, 0, 77, 0
2, 42720, Note_on_c, 0, 80, 0
2, 42720, Note_on_c, 0, 78, 86
2, 43200, Note_on_c, 0, 78, 0
2, 43200, Note_on_c, 0, 85, 94
2, 43680, Note_on_c, 0, 85, 0
2, 43680, Note_on_c, 0, 82, 86
2, 44160, Note_on_c, 0, 82, 0
2, 44160, Note_on_c, 0, 80, 90
2, 44640, Note_on_c, 0, 80, 0
2, 44640, Note_on_c, 0, 78, 78
2, 45120, Note_on_c, 0, 78, 0
2, 45120, Note_on_c, 0, 77, 88
2, 45600, Note_on_c, 0, 77, 0
2, 45600, Note_on_c, 0, 75, 78
2, 46080, Note_on_c, 0, 75, 0
2, 46080, Note_on_c, 0, 78, 94
2, 46560, Note_on_c, 0, 78, 0
2, 47040, Note_on_c, 0, 77, 89
2, 48480, Note_on_c, 0, 77, 0
2, 48480, Note_on_c, 0, 65, 68
2, 48960, Note_on_c, 0, 72, 72
2, 49150, Note_on_c, 0, 65, 0
2, 49440, Note_on_c, 0, 75, 64
2, 49630, Note_on_c, 0, 72, 0
2, 49800, Note_on_c, 0, 75, 0
2, 49840, Note_on_c, 0, 75, 74
2, 49920, Note_on_c, 0, 78, 83
2, 50160, Note_on_c, 0, 75, 0
2, 50240, Note_on_c, 0, 78, 0
2, 50880, Note_on_c, 0, 65, 70
2, 50880, Note_on_c, 0, 73, 67
2, 50880, Note_on_c, 0, 77, 78
2, 51840, Note_on_c, 0, 77, 0
2, 51840, Note_on_c, 0, 73, 0
2, 52160, Note_on_c, 0, 68, 68
2, 52280, Note_on_c, 0, 65, 0
2, 52480, Note_on_c, 0, 69, 66
2, 52600, Note_on_c, 0, 68, 0
2, 52800, Note_on_c, 0, 69, 0
2, 52800, Note_on_c, 0, 70, 76
2, 53120, Note_on_c, 0, 71, 65
2, 53280, Note_on_c, 0, 70, 0
2, 53440, Note_on_c, 0, 72, 59
2, 53560, Note_on_c, 0, 71, 0
2, 53760, Note_on_c, 0, 75, 72
2, 53920, Note_on_c, 0, 72, 0
2, 54080, Note_on_c, 0, 75, 0
2, 54720, Note_on_c, 0, 64, 52
2, 54720, Note_on_c, 0, 70, 47
2, 54720, Note_on_c, 0, 73, 60
2, 55680, Note_on_c, 0, 73, 0
2, 55680, Note_on_c, 0, 70, 0
2, 56120, Note_on_c, 0, 64, 0
2, 56160, Note_on_c, 0, 63, 47
2, 56480, Note_on_c, 0, 63, 0
2, 56640, Note_on_c, 0, 65, 55
2, 56960, Note_on_c, 0, 65, 0
2, 57120, Note_on_c, 0, 66, 57
2, 57440, Note_on_c, 0, 66, 0
2, 57600, Note_on_c, 0, 68, 70
2, 57960, Note_on_c, 0, 68, 0
2, 58080, Note_on_c, 0, 70, 62
2, 58400, Note_on_c, 0, 70, 0
2, 58560, Note_on_c, 0, 71, 66
2, 58960, Note_on_c, 0, 71, 0
2, 59040, Note_on_c, 0, 73, 62
2, 59360, Note_on_c, 0, 73, 0
2, 59520, Note_on_c, 0, 75, 72
2, 60000, Note_on_c, 0, 66, 57
2, 60000, Note_on_c, 0, 71, 57
2, 60280, Note_on_c, 0, 75, 0
2, 60400, Note_on_c, 0, 71, 0
2, 60400, Note_on_c, 0, 65, 48
2, 60440, Note_on_c, 0, 71, 62
2, 60480, Note_on_c, 0, 77, 70
2, 60680, Note_on_c, 0, 66, 0
2, 60960, Note_on_c, 0, 73, 42
2, 61070, Note_on_c, 0, 65, 0
2, 61110, Note_on_c, 0, 71, 0
2, 61150, Note_on_c, 0, 77, 0
2, 61280, Note_on_c, 0, 66, 52
2, 61360, Note_on_c, 0, 70, 66
2, 61480, Note_on_c, 0, 78, 80
2, 61630, Note_on_c, 0, 73, 0
2, 61760, Note_on_c, 0, 66, 0
2, 61840, Note_on_c, 0, 70, 0
2, 61960, Note_on_c, 0, 78, 0
2, 62400, Note_on_c, 0, 66, 62
2, 62400, Note_on_c, 0, 70, 62
2, 62400, Note_on_c, 0, 78, 68
2, 63360, Note_on_c, 0, 78, 0
2, 63360, Note_on_c, 0, 70, 0
2, 63360, Note_on_c, 0, 66, 0
2, 63840, Note_on_c, 0, 72, 76
2, 64240, Note_on_c, 0, 72, 0
2, 64320, Note_on_c, 0, 73, 84
2, 64720, Note_on_c, 0, 73, 0
2, 64800, Note_on_c, 0, 75, 78
2, 65160, Note_on_c, 0, 75, 0
2, 65280, Note_on_c, 0, 73, 92
2, 65600, Note_on_c, 0, 75, 82
2, 65728, Note_on_c, 0, 73, 0
2, 65920, Note_on_c, 0, 72, 78
2, 66048, Note_on_c, 0, 75, 0
2, 66240, Note_on_c, 0, 70, 86
2, 66368, Note_on_c, 0, 72, 0
2, 67680, Note_on_c, 0, 70, 0
2, 67680, Note_on_c, 0, 72, 74
2, 68000, Note_on_c, 0, 72, 0
2, 68160, Note_on_c, 0, 73, 82
2, 68480, Note_on_c, 0, 73, 0
2, 68640, Note_on_c, 0, 75, 82
2, 68960, Note_on_c, 0, 75, 0
2, 69120, Note_on_c, 0, 73, 88
2, 69440, Note_on_c, 0, 75, 82
2, 69568, Note_on_c, 0, 73, 0
2, 69760, Note_on_c, 0, 72, 74
2, 69888, Note_on_c, 0, 75, 0
2, 70080, Note_on_c, 0, 70, 76
2, 70208, Note_on_c, 0, 72, 0
2, 71520, Note_on_c, 0, 70, 0
2, 71520, Note_on_c, 0, 72, 72
2, 71835, Note_on_c, 0, 72, 0
2, 72000, Note_on_c, 0, 73, 82
2, 72285, Note_on_c, 0, 73, 0
2, 72480, Note_on_c, 0, 75, 76
2, 72735, Note_on_c, 0, 75, 0
2, 72960, Note_on_c, 0, 77, 86
2, 73440, Note_on_c, 0, 82, 72
2, 73640, Note_on_c, 0, 77, 0
2, 73725, Note_on_c, 0, 82, 0
2, 73920, Note_on_c, 0, 77, 84
2, 74400, Note_on_c, 0, 82, 68
2, 74600, Note_on_c, 0, 77, 0
2, 74700, Note_on_c, 0, 82, 0
2, 74880, Note_on_c, 0, 77, 77
2, 75200, Note_on_c, 0, 82, 68
2, 75328, Note_on_c, 0, 77, 0
2, 75520, Note_on_c, 0, 77, 74
2, 75648, Note_on_c, 0, 82, 0
2, 75840, Note_on_c, 0, 82, 80
2, 75968, Note_on_c, 0, 77, 0
2, 76160, Note_on_c, 0, 77, 68
2, 76288, Note_on_c, 0, 82, 0
2, 76480, Note_on_c, 0, 82, 67
2, 76608, Note_on_c, 0, 77, 0
2, 76800, Note_on_c, 0, 80, 78
2, 76928, Note_on_c, 0, 82, 0
2, 77280, Note_on_c, 0, 80, 0
2, 77760, Note_on_c, 0, 77, 81
2, 79200, Note_on_c, 0, 73, 72
2, 79520, Note_on_c, 0, 77, 0
2, 79530, Note_on_c, 0, 73, 0
2, 79680, Note_on_c, 0, 75, 82
2, 79965, Note_on_c, 0, 75, 0
2, 80160, Note_on_c, 0, 77, 72
2, 80430, Note_on_c, 0, 77, 0
2, 80640, Note_on_c, 0, 75, 82
2, 80960, Note_on_c, 0, 77, 74
2, 81088, Note_on_c, 0, 75, 0
2, 81280, Note_on_c, 0, 73, 74
2, 81408, Note_on_c, 0, 77, 0
2, 81600, Note_on_c, 0, 75, 82
2, 81728, Note_on_c, 0, 73, 0
2, 83040, Note_on_c, 0, 73, 68
2, 83240, Note_on_c, 0, 75, 0
2, 83310, Note_on_c, 0, 73, 0
2, 83520, Note_on_c, 0, 75, 78
2, 83805, Note_on_c, 0, 75, 0
2, 84000, Note_on_c, 0, 77, 72
2, 84255, Note_on_c, 0, 77, 0
2, 84480, Note_on_c, 0, 75, 82
2, 84720, Note_on_c, 0, 77, 76
2, 84815, Note_on_c, 0, 75, 0
2, 84960, Note_on_c, 0, 75, 73
2, 85055, Note_on_c, 0, 77, 0
2, 85200, Note_on_c, 0, 73, 68
2, 85295, Note_on_c, 0, 75, 0
2, 85440, Note_on_c, 0, 75, 77
2, 85535, Note_on_c, 0, 73, 0
2, 86880, Note_on_c, 0, 73, 67
2, 87080, Note_on_c, 0, 75, 0
2, 87210, Note_on_c, 0, 73, 0
2, 87360, Note_on_c, 0, 75, 76
2, 87645, Note_on_c, 0, 75, 0
2, 87840, Note_on_c, 0, 77, 86
2, 88110, Note_on_c, 0, 77, 0
2, 88320, Note_on_c, 0, 78, 88
2, 88480, Note_on_c, 0, 80, 73
2, 88543, Note_on_c, 0, 78, 0
2, 88640, Note_on_c, 0, 82, 78
2, 88703, Note_on_c, 0, 80, 0
2, 88800, Note_on_c, 0, 83, 94
2, 88863, Note_on_c, 0, 82, 0
2, 88960, Note_on_c, 0, 82, 84
2, 89023, Note_on_c, 0, 83, 0
2, 89120, Note_on_c, 0, 80, 80
2, 89183, Note_on_c, 0, 82, 0
2, 89280, Note_on_c, 0, 78, 96
2, 89343, Note_on_c, 0, 80, 0
2, 89440, Note_on_c, 0, 77, 86
2, 89503, Note_on_c, 0, 78, 0
2, 89600, Note_on_c, 0, 75, 82
2, 89663, Note_on_c, 0, 77, 0
2, 89760, Note_on_c, 0, 73, 90
2, 89823, Note_on_c, 0, 75, 0
2, 89920, Note_on_c, 0, 72, 80
2, 89983, Note_on_c, 0, 73, 0
2, 90080, Note_on_c, 0, 70, 76
2, 90143, Note_on_c, 0, 72, 0
2, 90240, Note_on_c, 0, 68, 82
2, 90303, Note_on_c, 0, 70, 0
2, 90360, Note_on_c, 0, 68, 0
2, 91080, Note_on_c, 0, 66, 55
2, 91120, Note_on_c, 0, 68, 61
2, 91193, Note_on_c, 0, 66, 0
2, 91200, Note_on_c, 0, 66, 92
2, 91320, Note_on_c, 0, 68, 0
2, 91560, Note_on_c, 0, 66, 0
2, 92160, Note_on_c, 0, 60, 77
2, 92160, Note_on_c, 0, 65, 88
2, 93120, Note_on_c, 0, 65, 0
2, 93120, Note_on_c, 0, 60, 0
2, 94080, Note_on_c, 0, 66, 53
2, 94160, Note_on_c, 0, 67, 48
2, 94233, Note_on_c, 0, 66, 0
2, 94240, Note_on_c, 0, 68, 48
2, 94313, Note_on_c, 0, 67, 0
2, 94320, Note_on_c, 0, 69, 59
2, 94393, Note_on_c, 0, 68, 0
2, 94400, Note_on_c, 0, 70, 56
2, 94473, Note_on_c, 0, 69, 0
2, 94480, Note_on_c, 0, 71, 60
2, 94553, Note_on_c, 0, 70, 0
2, 94560, Note_on_c, 0, 72, 64
2, 94633, Note_on_c, 0, 71, 0
2, 94920, Note_on_c, 0, 72, 0
2, 95040, Note_on_c, 0, 73, 70
2, 95360, Note_on_c, 0, 73, 0
2, 95520, Note_on_c, 0, 75, 62
2, 95840, Note_on_c, 0, 75, 0
2, 96000, Note_on_c, 0, 73, 72
2, 96320, Note_on_c, 0, 75, 54
2, 96448, Note_on_c, 0, 73, 0
2, 96640, Note_on_c, 0, 72, 54
2, 96768, Note_on_c, 0, 75, 0
2, 96960, Note_on_c, 0, 70, 63
2, 97088, Note_on_c, 0, 72, 0
2, 98400, Note_on_c, 0, 72, 64
2, 98600, Note_on_c, 0, 70, 0
2, 98800, Note_on_c, 0, 72, 0
2, 98880, Note_on_c, 0, 73, 74
2, 99240, Note_on_c, 0, 73, 0
2, 99360, Note_on_c, 0, 75, 68
2, 99720, Note_on_c, 0, 75, 0
2, 99840, Note_on_c, 0, 73, 78
2, 100160, Note_on_c, 0, 75, 70
2, 100288, Note_on_c, 0, 73, 0
2, 100480, Note_on_c, 0, 72, 66
2, 100608, Note_on_c, 0, 75, 0
2, 100800, Note_on_c, 0, 70, 74
2, 100928, Note_on_c, 0, 72, 0
2, 102240, Note_on_c, 0, 72, 69
2, 102480, Note_on_c, 0, 70, 0
2, 102640, Note_on_c, 0, 72, 0
2, 102720, Note_on_c, 0, 73, 78
2, 103080, Note_on_c, 0, 73, 0
2, 103200, Note_on_c, 0, 75, 74
2, 103560, Note_on_c, 0, 75, 0
2, 103680, Note_on_c, 0, 77, 88
2, 104160, Note_on_c, 0, 82, 75
2, 104350, Note_on_c, 0, 77, 0
2, 104560, Note_on_c, 0, 82, 0
2, 104640, Note_on_c, 0, 77, 86
2, 105120, Note_on_c, 0, 82, 79
2, 105310, Note_on_c, 0, 77, 0
2, 105440, Note_on_c, 0, 82, 0
2, 105600, Note_on_c, 0, 77, 88
2, 105920, Note_on_c, 0, 82, 81
2, 106048, Note_on_c, 0, 77, 0
2, 106240, Note_on_c, 0, 77, 82
2, 106368, Note_on_c, 0, 82, 0
2, 106560, Note_on_c, 0, 82, 90
2, 106688, Note_on_c, 0, 77, 0
2, 106880, Note_on_c, 0, 77, 85
2, 107008, Note_on_c, 0, 82, 0
2, 107200, Note_on_c, 0, 82, 86
2, 107328, Note_on_c, 0, 77, 0
2, 107520, Note_on_c, 0, 78, 96
2, 107648, Note_on_c, 0, 82, 0
2, 107920, Note_on_c, 0, 78, 0
2, 108480, Note_on_c, 0, 66, 96
2, 109920, Note_on_c, 0, 66, 0
2, 109920, Note_on_c, 0, 58, 68
2, 110400, Note_on_c, 0, 60, 78
2, 110490, Note_on_c, 0, 58, 0
2, 110880, Note_on_c, 0, 61, 76
2, 110925, Note_on_c, 0, 60, 0
2, 111360, Note_on_c, 0, 60, 84
2, 111435, Note_on_c, 0, 61, 0
2, 111680, Note_on_c, 0, 61, 78
2, 111735, Note_on_c, 0, 60, 0
2, 112000, Note_on_c, 0, 58, 72
2, 112050, Note_on_c, 0, 61, 0
2, 112320, Note_on_c, 0, 60, 86
2, 112380, Note_on_c, 0, 58, 0
2, 113760, Note_on_c, 0, 58, 78
2, 113835, Note_on_c, 0, 60, 0
2, 114240, Note_on_c, 0, 60, 72
2, 114315, Note_on_c, 0, 58, 0
2, 114720, Note_on_c, 0, 61, 62
2, 114825, Note_on_c, 0, 60, 0
2, 115200, Note_on_c, 0, 60, 66
2, 115245, Note_on_c, 0, 61, 0
2, 115520, Note_on_c, 0, 61, 69
2, 115648, Note_on_c, 0, 60, 0
2, 115840, Note_on_c, 0, 58, 62
2, 115968, Note_on_c, 0, 61, 0
2, 116160, Note_on_c, 0, 60, 64
2, 116288, Note_on_c, 0, 58, 0
2, 117560, Note_on_c, 0, 60, 0
2, 117600, Note_on_c, 0, 60, 64
2, 118080, Note_on_c, 0, 61, 66
2, 118270, Note_on_c, 0, 60, 0
2, 118560, Note_on_c, 0, 63, 64
2, 118750, Note_on_c, 0, 61, 0
2, 118800, Note_on_c, 0, 61, 54
2, 118920, Note_on_c, 0, 63, 0
2, 118920, Note_on_c, 0, 63, 56
2, 119018, Note_on_c, 0, 61, 0
2, 119040, Note_on_c, 0, 61, 74
2, 119100, Note_on_c, 0, 63, 0
2, 119520, Note_on_c, 0, 60, 52
2, 119710, Note_on_c, 0, 61, 0
2, 120000, Note_on_c, 0, 61, 62
2, 120190, Note_on_c, 0, 60, 0
2, 120480, Note_on_c, 0, 63, 52
2, 120670, Note_on_c, 0, 61, 0
2, 120720, Note_on_c, 0, 61, 51
2, 120818, Note_on_c, 0, 63, 0
2, 120840, Note_on_c, 0, 63, 54
2, 120945, Note_on_c, 0, 61, 0
2, 120960, Note_on_c, 0, 61, 70
2, 121080, Note_on_c, 0, 63, 0
2, 121440, Note_on_c, 0, 60, 52
2, 121630, Note_on_c, 0, 61, 0
2, 121920, Note_on_c, 0, 61, 62
2, 122110, Note_on_c, 0, 60, 0
2, 122400, Note_on_c, 0, 63, 52
2, 122590, Note_on_c, 0, 61, 0
2, 122640, Note_on_c, 0, 61, 54
2, 122760, Note_on_c, 0, 63, 58
2, 122765, Note_on_c, 0, 63, 0
2, 122863, Note_on_c, 0, 61, 0
2, 122880, Note_on_c, 0, 61, 70
2, 122940, Note_on_c, 0, 63, 0
2, 123360, Note_on_c, 0, 60, 51
2, 123550, Note_on_c, 0, 61, 0
2, 123600, Note_on_c, 0, 61, 54
2, 123720, Note_on_c, 0, 63, 56
2, 123810, Note_on_c, 0, 61, 0
2, 123840, Note_on_c, 0, 61, 64
2, 123958, Note_on_c, 0, 63, 0
2, 124030, Note_on_c, 0, 60, 0
2, 124320, Note_on_c, 0, 65, 55
2, 124510, Note_on_c, 0, 61, 0
2, 124560, Note_on_c, 0, 63, 51
2, 124673, Note_on_c, 0, 65, 0
2, 124680, Note_on_c, 0, 65, 66
2, 124798, Note_on_c, 0, 63, 0
2, 124928, Note_on_c, 0, 65, 0
2, 125280, Note_on_c, 0, 61, 55
2, 125715, Note_on_c, 0, 61, 0
2, 125760, Note_on_c, 0, 63, 66
2, 126210, Note_on_c, 0, 63, 0
2, 126240, Note_on_c, 0, 65, 62
2, 126660, Note_on_c, 0, 65, 0
2, 126720, Note_on_c, 0, 68, 68
2, 127200, Note_on_c, 0, 68, 0
2, 127680, Note_on_c, 0, 66, 62
2, 129080, Note_on_c, 0, 66, 0
2, 129120, Note_on_c, 0, 66, 69
2, 129560, Note_on_c, 0, 66, 0
2, 129600, Note_on_c, 0, 66, 69
2, 130080, Note_on_c, 0, 65, 71
2, 130120, Note_on_c, 0, 66, 0
2, 130560, Note_on_c, 0, 65, 0
2, 130560, Note_on_c, 0, 68, 81
2, 131040, Note_on_c, 0, 68, 0
2, 131520, Note_on_c, 0, 66, 65
2, 132960, Note_on_c, 0, 66, 0
2, 132960, Note_on_c, 0, 61, 70
2, 133440, Note_on_c, 0, 61, 0
2, 133440, Note_on_c, 0, 63, 81
2, 133920, Note_on_c, 0, 63, 0
2, 133920, Note_on_c, 0, 65, 74
2, 134400, Note_on_c, 0, 65, 0
2, 134400, Note_on_c, 0, 68, 89
2, 134745, Note_on_c, 0, 68, 0
2, 134880, Note_on_c, 0, 66, 75
2, 135195, Note_on_c, 0, 66, 0
2, 135360, Note_on_c, 0, 73, 86
2, 135645, Note_on_c, 0, 73, 0
2, 135840, Note_on_c, 0, 70, 71
2, 136155, Note_on_c, 0, 70, 0
2, 136320, Note_on_c, 0, 68, 82
2, 136560, Note_on_c, 0, 68, 0
2, 136800, Note_on_c, 0, 66, 65
2, 137055, Note_on_c, 0, 66, 0
2, 137280, Note_on_c, 0, 65, 74
2, 137550, Note_on_c, 0, 65, 0
2, 137760, Note_on_c, 0, 63, 65
2, 138000, Note_on_c, 0, 63, 0
2, 138240, Note_on_c, 0, 66, 80
2, 138720, Note_on_c, 0, 66, 0
2, 139200, Note_on_c, 0, 65, 72
2, 140640, Note_on_c, 0, 65, 0
2, 140640, Note_on_c, 0, 63, 65
2, 141075, Note_on_c, 0, 63, 0
2, 141120, Note_on_c, 0, 65, 78
2, 141540, Note_on_c, 0, 65, 0
2, 141600, Note_on_c, 0, 66, 66
2, 142020, Note_on_c, 0, 66, 0
2, 142080, Note_on_c, 0, 70, 75
2, 142560, Note_on_c, 0, 70, 0
2, 143040, Note_on_c, 0, 68, 72
2, 144440, Note_on_c, 0, 68, 0
2, 144480, Note_on_c, 0, 68, 65
2, 144930, Note_on_c, 0, 68, 0
2, 144960, Note_on_c, 0, 70, 73
2, 145440, Note_on_c, 0, 70, 0
2, 145440, Note_on_c, 0, 66, 65
2, 145920, Note_on_c, 0, 66, 0
2, 145920, Note_on_c, 0, 70, 73
2, 146400, Note_on_c, 0, 70, 0
2, 146880, Note_on_c, 0, 68, 65
2, 148320, Note_on_c, 0, 68, 0
2, 148320, Note_on_c, 0, 66, 64
2, 148800, Note_on_c, 0, 66, 0
2, 148800, Note_on_c, 0, 68, 71
2, 149280, Note_on_c, 0, 68, 0
2, 149280, Note_on_c, 0, 70, 64
2, 149760, Note_on_c, 0, 70, 0
2, 149760, Note_on_c, 0, 72, 76
2, 150240, Note_on_c, 0, 72, 0
2, 150240, Note_on_c, 0, 68, 68
2, 150720, Note_on_c, 0, 68, 0
2, 150720, Note_on_c, 0, 70, 80
2, 151200, Note_on_c, 0, 70, 0
2, 151200, Note_on_c, 0, 72, 72
2, 151680, Note_on_c, 0, 72, 0
2, 151680, Note_on_c, 0, 73, 83
2, 152160, Note_on_c, 0, 73, 0
2, 152160, Note_on_c, 0, 70, 72
2, 152640, Note_on_c, 0, 70, 0
2, 152640, Note_on_c, 0, 72, 76
2, 153120, Note_on_c, 0, 72, 0
2, 153120, Note_on_c, 0, 73, 70
2, 153600, Note_on_c, 0, 73, 0
2, 153640, Note_on_c, 0, 75, 89
2, 153920, Note_on_c, 0, 72, 76
2, 154080, Note_on_c, 0, 75, 0
2, 154240, Note_on_c, 0, 73, 80
2, 154400, Note_on_c, 0, 72, 0
2, 154560, Note_on_c, 0, 74, 89
2, 154680, Note_on_c, 0, 73, 0
2, 154880, Note_on_c, 0, 75, 84
2, 155000, Note_on_c, 0, 74, 0
2, 155200, Note_on_c, 0, 76, 84
2, 155320, Note_on_c, 0, 75, 0
2, 155520, Note_on_c, 0, 76, 0
2, 155520, Note_on_c, 0, 77, 98
2, 155840, Note_on_c, 0, 77, 0
2, 155840, Note_on_c, 0, 73, 82
2, 156160, Note_on_c, 0, 74, 82
2, 156280, Note_on_c, 0, 73, 0
2, 156480, Note_on_c, 0, 74, 0
2, 156480, Note_on_c, 0, 75, 90
2, 156800, Note_on_c, 0, 76, 82
2, 156920, Note_on_c, 0, 75, 0
2, 157120, Note_on_c, 0, 77, 84
2, 157240, Note_on_c, 0, 76, 0
2, 157440, Note_on_c, 0, 77, 0
2, 157440, Note_on_c, 0, 80, 92
2, 157920, Note_on_c, 0, 80, 0
2, 158400, Note_on_c, 0, 78, 82
2, 159800, Note_on_c, 0, 78, 0
2, 159840, Note_on_c, 0, 78, 82
2, 160280, Note_on_c, 0, 78, 0
2, 160320, Note_on_c, 0, 78, 94
2, 160800, Note_on_c, 0, 78, 0
2, 160800, Note_on_c, 0, 77, 82
2, 161280, Note_on_c, 0, 77, 0
2, 161280, Note_on_c, 0, 80, 88
2, 161760, Note_on_c, 0, 80, 0
2, 162240, Note_on_c, 0, 78, 82
2, 163680, Note_on_c, 0, 78, 0
2, 163680, Note_on_c, 0, 73, 76
2, 164160, Note_on_c, 0, 75, 88
2, 164360, Note_on_c, 0, 73, 0
2, 164640, Note_on_c, 0, 77, 82
2, 164840, Note_on_c, 0, 75, 0
2, 165120, Note_on_c, 0, 80, 96
2, 165280, Note_on_c, 0, 77, 0
2, 165600, Note_on_c, 0, 80, 0
2, 165600, Note_on_c, 0, 78, 84
2, 166080, Note_on_c, 0, 78, 0
2, 166080, Note_on_c, 0, 85, 94
2, 166560, Note_on_c, 0, 85, 0
2, 166560, Note_on_c, 0, 82, 82
2, 167040, Note_on_c, 0, 82, 0
2, 167040, Note_on_c, 0, 80, 90
2, 167520, Note_on_c, 0, 80, 0
2, 167520, Note_on_c, 0, 78, 78
2, 168000, Note_on_c, 0, 78, 0
2, 168000, Note_on_c, 0, 77, 88
2, 168480, Note_on_c, 0, 77, 0
2, 168480, Note_on_c, 0, 75, 84
2, 168960, Note_on_c, 0, 75, 0
2, 168960, Note_on_c, 0, 78, 94
2, 169440, Note_on_c, 0, 78, 0
2, 169920, Note_on_c, 0, 77, 98
2, 171360, Note_on_c, 0, 77, 0
2, 171360, Note_on_c, 0, 65, 68
2, 171840, Note_on_c, 0, 72, 82
2, 172030, Note_on_c, 0, 65, 0
2, 172320, Note_on_c, 0, 75, 72
2, 172510, Note_on_c, 0, 72, 0
2, 172720, Note_on_c, 0, 75, 0
2, 172720, Note_on_c, 0, 65, 62
2, 172800, Note_on_c, 0, 75, 74
2, 172920, Note_on_c, 0, 78, 88
2, 173040, Note_on_c, 0, 65, 0
2, 173120, Note_on_c, 0, 75, 0
2, 173240, Note_on_c, 0, 78, 0
2, 173760, Note_on_c, 0, 65, 71
2, 173760, Note_on_c, 0, 73, 74
2, 173760, Note_on_c, 0, 77, 80
2, 174720, Note_on_c, 0, 77, 0
2, 174720, Note_on_c, 0, 73, 0
2, 175040, Note_on_c, 0, 68, 64
2, 175160, Note_on_c, 0, 65, 0
2, 175360, Note_on_c, 0, 69, 64
2, 175480, Note_on_c, 0, 68, 0
2, 175680, Note_on_c, 0, 69, 0
2, 175680, Note_on_c, 0, 70, 76
2, 176000, Note_on_c, 0, 71, 65
2, 176160, Note_on_c, 0, 70, 0
2, 176320, Note_on_c, 0, 72, 59
2, 176440, Note_on_c, 0, 71, 0
2, 176640, Note_on_c, 0, 75, 69
2, 176800, Note_on_c, 0, 72, 0
2, 176960, Note_on_c, 0, 75, 0
2, 177600, Note_on_c, 0, 64, 45
2, 177600, Note_on_c, 0, 70, 48
2, 177600, Note_on_c, 0, 73, 64
2, 178560, Note_on_c, 0, 73, 0
2, 178560, Note_on_c, 0, 70, 0
2, 179000, Note_on_c, 0, 64, 0
2, 179040, Note_on_c, 0, 63, 47
2, 179360, Note_on_c, 0, 63, 0
2, 179520, Note_on_c, 0, 65, 57
2, 179840, Note_on_c, 0, 65, 0
2, 180000, Note_on_c, 0, 66, 49
2, 180320, Note_on_c, 0, 66, 0
2, 180480, Note_on_c, 0, 68, 62
2, 180840, Note_on_c, 0, 68, 0
2, 180960, Note_on_c, 0, 70, 51
2, 181280, Note_on_c, 0, 70, 0
2, 181440, Note_on_c, 0, 71, 59
2, 181840, Note_on_c, 0, 71, 0
2, 181920, Note_on_c, 0, 73, 53
2, 182240, Note_on_c, 0, 73, 0
2, 182400, Note_on_c, 0, 75, 62
2, 182880, Note_on_c, 0, 66, 37
2, 182880, Note_on_c, 0, 71, 53
2, 183160, Note_on_c, 0, 75, 0
2, 183280, Note_on_c, 0, 71, 0
2, 183280, Note_on_c, 0, 65, 54
2, 183360, Note_on_c, 0, 71, 69
2, 183440, Note_on_c, 0, 77, 79
2, 183560, Note_on_c, 0, 66, 0
2, 183840, Note_on_c, 0, 73, 60
2, 183950, Note_on_c, 0, 65, 0
2, 184030, Note_on_c, 0, 71, 0
2, 184110, Note_on_c, 0, 77, 0
2, 184200, Note_on_c, 0, 66, 56
2, 184280, Note_on_c, 0, 70, 69
2, 184400, Note_on_c, 0, 78, 76
2, 184510, Note_on_c, 0, 73, 0
2, 184680, Note_on_c, 0, 66, 0
2, 184760, Note_on_c, 0, 70, 0
2, 184880, Note_on_c, 0, 78, 0
2, 185280, Note_on_c, 0, 66, 62
2, 185280, Note_on_c, 0, 70, 62
2, 185280, Note_on_c, 0, 78, 62
2, 186240, Note_on_c, 0, 78, 0
2, 186240, Note_on_c, 0, 70, 0
2, 186240, Note_on_c, 0, 66, 0
2, 186720, Note_on_c, 0, 72, 79
2, 187120, Note_on_c, 0, 72, 0
2, 187200, Note_on_c, 0, 73, 84
2, 187600, Note_on_c, 0, 73, 0
2, 187680, Note_on_c, 0, 75, 84
2, 188040, Note_on_c, 0, 75, 0
2, 188160, Note_on_c, 0, 73, 96
2, 188480, Note_on_c, 0, 75, 80
2, 188608, Note_on_c, 0, 73, 0
2, 188800, Note_on_c, 0, 72, 78
2, 188928, Note_on_c, 0, 75, 0
2, 189120, Note_on_c, 0, 70, 86
2, 189248, Note_on_c, 0, 72, 0
2, 190560, Note_on_c, 0, 70, 0
2, 190560, Note_on_c, 0, 72, 74
2, 190880, Note_on_c, 0, 72, 0
2, 191040, Note_on_c, 0, 73, 82
2, 191360, Note_on_c, 0, 73, 0
2, 191520, Note_on_c, 0, 75, 76
2, 191840, Note_on_c, 0, 75, 0
2, 192000, Note_on_c, 0, 73, 88
2, 192320, Note_on_c, 0, 75, 74
2, 192448, Note_on_c, 0, 73, 0
2, 192640, Note_on_c, 0, 72, 74
2, 192768, Note_on_c, 0, 75, 0
2, 192960, Note_on_c, 0, 70, 82
2, 193088, Note_on_c, 0, 72, 0
2, 194400, Note_on_c, 0, 70, 0
2, 194400, Note_on_c, 0, 72, 70
2, 194715, Note_on_c, 0, 72, 0
2, 194880, Note_on_c, 0, 73, 82
2, 195165, Note_on_c, 0, 73, 0
2, 195360, Note_on_c, 0, 75, 74
2, 195615, Note_on_c, 0, 75, 0
2, 195840, Note_on_c, 0, 77, 82
2, 196320, Note_on_c, 0, 82, 72
2, 196520, Note_on_c, 0, 77, 0
2, 196605, Note_on_c, 0, 82, 0
2, 196800, Note_on_c, 0, 77, 84
2, 197280, Note_on_c, 0, 82, 68
2, 197480, Note_on_c, 0, 77, 0
2, 197580, Note_on_c, 0, 82, 0
2, 197760, Note_on_c, 0, 77, 77
2, 198080, Note_on_c, 0, 82, 68
2, 198208, Note_on_c, 0, 77, 0
2, 198400, Note_on_c, 0, 77, 68
2, 198528, Note_on_c, 0, 82, 0
2, 198720, Note_on_c, 0, 82, 80
2, 198848, Note_on_c, 0, 77, 0
2, 199040, Note_on_c, 0, 77, 68
2, 199168, Note_on_c, 0, 82, 0
2, 199360, Note_on_c, 0, 82, 67
2, 199488, Note_on_c, 0, 77, 0
2, 199680, Note_on_c, 0, 80, 78
2, 199808, Note_on_c, 0, 82, 0
2, 200160, Note_on_c, 0, 80, 0
2, 200640, Note_on_c, 0, 77, 81
2, 202080, Note_on_c, 0, 73, 72
2, 202400, Note_on_c, 0, 77, 0
2, 202410, Note_on_c, 0, 73, 0
2, 202560, Note_on_c, 0, 75, 82
2, 202845, Note_on_c, 0, 75, 0
2, 203040, Note_on_c, 0, 77, 70
2, 203310, Note_on_c, 0, 77, 0
2, 203520, Note_on_c, 0, 75, 82
2, 203840, Note_on_c, 0, 77, 72
2, 203968, Note_on_c, 0, 75, 0
2, 204160, Note_on_c, 0, 73, 74
2, 204288, Note_on_c, 0, 77, 0
2, 204480, Note_on_c, 0, 75, 80
2, 204608, Note_on_c, 0, 73, 0
2, 205920, Note_on_c, 0, 73, 71
2, 206120, Note_on_c, 0, 75, 0
2, 206190, Note_on_c, 0, 73, 0
2, 206400, Note_on_c, 0, 75, 82
2, 206685, Note_on_c, 0, 75, 0
2, 206880, Note_on_c, 0, 77, 72
2, 207135, Note_on_c, 0, 77, 0
2, 207360, Note_on_c, 0, 75, 82
2, 207600, Note_on_c, 0, 77, 74
2, 207695, Note_on_c, 0, 75, 0
2, 207840, Note_on_c, 0, 75, 73
2, 207935, Note_on_c, 0, 77, 0
2, 208080, Note_on_c, 0, 73, 73
2, 208175, Note_on_c, 0, 75, 0
2, 208320, Note_on_c, 0, 75, 84
2, 208415, Note_on_c, 0, 73, 0
2, 209760, Note_on_c, 0, 73, 67
2, 209960, Note_on_c, 0, 75, 0
2, 210090, Note_on_c, 0, 73, 0
2, 210240, Note_on_c, 0, 75, 84
2, 210525, Note_on_c, 0, 75, 0
2, 210720, Note_on_c, 0, 77, 74
2, 210990, Note_on_c, 0, 77, 0
2, 211200, Note_on_c, 0, 78, 88
2, 211360, Note_on_c, 0, 80, 73
2, 211423, Note_on_c, 0, 78, 0
2, 211520, Note_on_c, 0, 82, 78
2, 211583, Note_on_c, 0, 80, 0
2, 211680, Note_on_c, 0, 83, 94
2, 211743, Note_on_c, 0, 82, 0
2, 211840, Note_on_c, 0, 82, 84
2, 211903, Note_on_c, 0, 83, 0
2, 212000, Note_on_c, 0, 80, 80
2, 212063, Note_on_c, 0, 82, 0
2, 212160, Note_on_c, 0, 78, 96
2, 212223, Note_on_c, 0, 80, 0
2, 212320, Note_on_c, 0, 77, 86
2, 212383, Note_on_c, 0, 78, 0
2, 212480, Note_on_c, 0, 75, 82
2, 212543, Note_on_c, 0, 77, 0
2, 212640, Note_on_c, 0, 73, 90
2, 212703, Note_on_c, 0, 75, 0
2, 212800, Note_on_c, 0, 72, 80
2, 212863, Note_on_c, 0, 73, 0
2, 212960, Note_on_c, 0, 70, 76
2, 213023, Note_on_c, 0, 72, 0
2, 213120, Note_on_c, 0, 68, 82
2, 213183, Note_on_c, 0, 70, 0
2, 213240, Note_on_c, 0, 68, 0
2, 213960, Note_on_c, 0, 66, 55
2, 214000, Note_on_c, 0, 68, 61
2, 214073, Note_on_c, 0, 66, 0
2, 214080, Note_on_c, 0, 66, 92
2, 214200, Note_on_c, 0, 68, 0
2, 214440, Note_on_c, 0, 66, 0
2, 215040, Note_on_c, 0, 60, 77
2, 215040, Note_on_c, 0, 65, 88
2, 216000, Note_on_c, 0, 65, 0
2, 216000, Note_on_c, 0, 60, 0
2, 216960, Note_on_c, 0, 66, 60
2, 217040, Note_on_c, 0, 67, 56
2, 217113, Note_on_c, 0, 66, 0
2, 217120, Note_on_c, 0, 68, 54
2, 217193, Note_on_c, 0, 67, 0
2, 217200, Note_on_c, 0, 69, 66
2, 217273, Note_on_c, 0, 68, 0
2, 217280, Note_on_c, 0, 70, 60
2, 217353, Note_on_c, 0, 69, 0
2, 217360, Note_on_c, 0, 71, 64
2, 217433, Note_on_c, 0, 70, 0
2, 217440, Note_on_c, 0, 72, 70
2, 217513, Note_on_c, 0, 71, 0
2, 217800, Note_on_c, 0, 72, 0
2, 217920, Note_on_c, 0, 73, 72
2, 218240, Note_on_c, 0, 73, 0
2, 218400, Note_on_c, 0, 75, 66
2, 218720, Note_on_c, 0, 75, 0
2, 218880, Note_on_c, 0, 73, 66
2, 219200, Note_on_c, 0, 75, 54
2, 219328, Note_on_c, 0, 73, 0
2, 219520, Note_on_c, 0, 72, 54
2, 219648, Note_on_c, 0, 75, 0
2, 219840, Note_on_c, 0, 70, 63
2, 219968, Note_on_c, 0, 72, 0
2, 221280, Note_on_c, 0, 72, 64
2, 221480, Note_on_c, 0, 70, 0
2, 221680, Note_on_c, 0, 72, 0
2, 221760, Note_on_c, 0, 73, 70
2, 222120, Note_on_c, 0, 73, 0
2, 222240, Note_on_c, 0, 75, 66
2, 222600, Note_on_c, 0, 75, 0
2, 222720, Note_on_c, 0, 73, 78
2, 223040, Note_on_c, 0, 75, 66
2, 223168, Note_on_c, 0, 73, 0
2, 223360, Note_on_c, 0, 72, 66
2, 223488, Note_on_c, 0, 75, 0
2, 223680, Note_on_c, 0, 70, 74
2, 223808, Note_on_c, 0, 72, 0
2, 225120, Note_on_c, 0, 72, 69
2, 225360, Note_on_c, 0, 70, 0
2, 225520, Note_on_c, 0, 72, 0
2, 225600, Note_on_c, 0, 73, 78
2, 225960, Note_on_c, 0, 73, 0
2, 226080, Note_on_c, 0, 75, 76
2, 226440, Note_on_c, 0, 75, 0
2, 226560, Note_on_c, 0, 77, 88
2, 227040, Note_on_c, 0, 82, 75
2, 227230, Note_on_c, 0, 77, 0
2, 227440, Note_on_c, 0, 82, 0
2, 227520, Note_on_c, 0, 77, 86
2, 228000, Note_on_c, 0, 82, 79
2, 228190, Note_on_c, 0, 77, 0
2, 228320, Note_on_c, 0, 82, 0
2, 228480, Note_on_c, 0, 77, 88
2, 228800, Note_on_c, 0, 82, 81
2, 228928, Note_on_c, 0, 77, 0
2, 229120, Note_on_c, 0, 77, 82
2, 229248, Note_on_c, 0, 82, 0
2, 229440, Note_on_c, 0, 82, 90
2, 229568, Note_on_c, 0, 77, 0
2, 229760, Note_on_c, 0, 77, 76
2, 229888, Note_on_c, 0, 82, 0
2, 230080, Note_on_c, 0, 82, 80
2, 230208, Note_on_c, 0, 77, 0
2, 230400, Note_on_c, 0, 78, 96
2, 230528, Note_on_c, 0, 82, 0
2, 230800, Note_on_c, 0, 78, 0
2, 231360, Note_on_c, 0, 66, 96
2, 232800, Note_on_c, 0, 66, 0
2, 232800, Note_on_c, 0, 58, 66
2, 233280, Note_on_c, 0, 60, 78
2, 233370, Note_on_c, 0, 58, 0
2, 233760, Note_on_c, 0, 61, 70
2, 233805, Note_on_c, 0, 60, 0
2, 234240, Note_on_c, 0, 60, 84
2, 234315, Note_on_c, 0, 61, 0
2, 234560, Note_on_c, 0, 61, 78
2, 234615, Note_on_c, 0, 60, 0
2, 234880, Note_on_c, 0, 58, 78
2, 234930, Note_on_c, 0, 61, 0
2, 235200, Note_on_c, 0, 60, 86
2, 235260, Note_on_c, 0, 58, 0
2, 236640, Note_on_c, 0, 58, 68
2, 236715, Note_on_c, 0, 60, 0
2, 237120, Note_on_c, 0, 60, 76
2, 237195, Note_on_c, 0, 58, 0
2, 237600, Note_on_c, 0, 61, 62
2, 237705, Note_on_c, 0, 60, 0
2, 238080, Note_on_c, 0, 60, 62
2, 238125, Note_on_c, 0, 61, 0
2, 238400, Note_on_c, 0, 61, 54
2, 238528, Note_on_c, 0, 60, 0
2, 238720, Note_on_c, 0, 58, 54
2, 238848, Note_on_c, 0, 61, 0
2, 239040, Note_on_c, 0, 60, 66
2, 239168, Note_on_c, 0, 58, 0
2, 240440, Note_on_c, 0, 60, 0
2, 240480, Note_on_c, 0, 60, 57
2, 240960, Note_on_c, 0, 61, 66
2, 241150, Note_on_c, 0, 60, 0
2, 241440, Note_on_c, 0, 63, 57
2, 241630, Note_on_c, 0, 61, 0
2, 241680, Note_on_c, 0, 61, 54
2, 241800, Note_on_c, 0, 63, 0
2, 241800, Note_on_c, 0, 63, 56
2, 241898, Note_on_c, 0, 61, 0
2, 241920, Note_on_c, 0, 61, 66
2, 241980, Note_on_c, 0, 63, 0
2, 242400, Note_on_c, 0, 60, 52
2, 242590, Note_on_c, 0, 61, 0
2, 242880, Note_on_c, 0, 61, 62
2, 243070, Note_on_c, 0, 60, 0
2, 243360, Note_on_c, 0, 63, 52
2, 243550, Note_on_c, 0, 61, 0
2, 243600, Note_on_c, 0, 61, 51
2, 243698, Note_on_c, 0, 63, 0
2, 243720, Note_on_c, 0, 63, 54
2, 243825, Note_on_c, 0, 61, 0
2, 243840, Note_on_c, 0, 61, 66
2, 243960, Note_on_c, 0, 63, 0
2, 244320, Note_on_c, 0, 60, 52
2, 244510, Note_on_c, 0, 61, 0
2, 244800, Note_on_c, 0, 61, 62
2, 244990, Note_on_c, 0, 60, 0
2, 245280, Note_on_c, 0, 63, 52
2, 245470, Note_on_c, 0, 61, 0
2, 245520, Note_on_c, 0, 61, 54
2, 245640, Note_on_c, 0, 63, 58
2, 245645, Note_on_c, 0, 63, 0
2, 245743, Note_on_c, 0, 61, 0
2, 245760, Note_on_c, 0, 61, 70
2, 245820, Note_on_c, 0, 63, 0
2, 246240, Note_on_c, 0, 60, 51
2, 246430, Note_on_c, 0, 61, 0
2, 246720, Note_on_c, 0, 61, 64
2, 246910, Note_on_c, 0, 60, 0
2, 247200, Note_on_c, 0, 65, 47
2, 247390, Note_on_c, 0, 61, 0
2, 247440, Note_on_c, 0, 63, 53
2, 247535, Note_on_c, 0, 65, 0
2, 247560, Note_on_c, 0, 65, 56
2, 247678, Note_on_c, 0, 63, 0
2, 247680, Note_on_c, 0, 63, 68
2, 247808, Note_on_c, 0, 65, 0
2, 247920, Note_on_c, 0, 63, 0
2, 248160, Note_on_c, 0, 61, 70
2, 248595, Note_on_c, 0, 61, 0
2, 248640, Note_on_c, 0, 63, 82
2, 249090, Note_on_c, 0, 63, 0
2, 249120, Note_on_c, 0, 65, 66
2, 249540, Note_on_c, 0, 65, 0
2, 249600, Note_on_c, 0, 68, 76
2, 250080, Note_on_c, 0, 68, 0
2, 250560, Note_on_c, 0, 66, 72
2, 251960, Note_on_c, 0, 66, 0
2, 252000, Note_on_c, 0, 66, 63
2, 252440, Note_on_c, 0, 66, 0
2, 252480, Note_on_c, 0, 66, 80
2, 252960, Note_on_c, 0, 65, 66
2, 253000, Note_on_c, 0, 66, 0
2, 253440, Note_on_c, 0, 65, 0
2, 253440, Note_on_c, 0, 68, 82
2, 253920, Note_on_c, 0, 68, 0
2, 254400, Note_on_c, 0, 66, 72
2, 255840, Note_on_c, 0, 66, 0
2, 255840, Note_on_c, 0, 61, 76
2, 256320, Note_on_c, 0, 61, 0
2, 256320, Note_on_c, 0, 63, 88
2, 256800, Note_on_c, 0, 63, 0
2, 256800, Note_on_c, 0, 65, 78
2, 257280, Note_on_c, 0, 65, 0
2, 257280, Note_on_c, 0, 68, 96
2, 257625, Note_on_c, 0, 68, 0
2, 257760, Note_on_c, 0, 66, 82
2, 258075, Note_on_c, 0, 66, 0
2, 258240, Note_on_c, 0, 73, 86
2, 258690, Note_on_c, 0, 73, 0
2, 258720, Note_on_c, 0, 70, 74
2, 259035, Note_on_c, 0, 70, 0
2, 259200, Note_on_c, 0, 68, 84
2, 259440, Note_on_c, 0, 68, 0
2, 259680, Note_on_c, 0, 66, 72
2, 259935, Note_on_c, 0, 66, 0
2, 260160, Note_on_c, 0, 65, 80
2, 260430, Note_on_c, 0, 65, 0
2, 260640, Note_on_c, 0, 63, 72
2, 260880, Note_on_c, 0, 63, 0
2, 261120, Note_on_c, 0, 66, 80
2, 261600, Note_on_c, 0, 66, 0
2, 262080, Note_on_c, 0, 65, 72
2, 263520, Note_on_c, 0, 65, 0
2, 263520, Note_on_c, 0, 63, 64
2, 263955, Note_on_c, 0, 63, 0
2, 264000, Note_on_c, 0, 65, 76
2, 264420, Note_on_c, 0, 65, 0
2, 264480, Note_on_c, 0, 66, 72
2, 264900, Note_on_c, 0, 66, 0
2, 264960, Note_on_c, 0, 70, 82
2, 265440, Note_on_c, 0, 70, 0
2, 265920, Note_on_c, 0, 68, 78
2, 267320, Note_on_c, 0, 68, 0
2, 267360, Note_on_c, 0, 68, 70
2, 267810, Note_on_c, 0, 68, 0
2, 267840, Note_on_c, 0, 70, 80
2, 268320, Note_on_c, 0, 70, 0
2, 268320, Note_on_c, 0, 66, 68
2, 268800, Note_on_c, 0, 66, 0
2, 268800, Note_on_c, 0, 70, 80
2, 269280, Note_on_c, 0, 70, 0
2, 269760, Note_on_c, 0, 68, 72
2, 271200, Note_on_c, 0, 68, 0
2, 271200, Note_on_c, 0, 66, 68
2, 271680, Note_on_c, 0, 66, 0
2, 271680, Note_on_c, 0, 68, 78
2, 272160, Note_on_c, 0, 68, 0
2, 272160, Note_on_c, 0, 70, 70
2, 272640, Note_on_c, 0, 70, 0
2, 272640, Note_on_c, 0, 72, 84
2, 273120, Note_on_c, 0, 72, 0
2, 273120, Note_on_c, 0, 68, 74
2, 273600, Note_on_c, 0, 68, 0
2, 273600, Note_on_c, 0, 70, 80
2, 274080, Note_on_c, 0, 70, 0
2, 274080, Note_on_c, 0, 72, 76
2, 274560, Note_on_c, 0, 72, 0
2, 274560, Note_on_c, 0, 73, 83
2, 275040, Note_on_c, 0, 73, 0
2, 275040, Note_on_c, 0, 70, 72
2, 275520, Note_on_c, 0, 70, 0
2, 275520, Note_on_c, 0, 72, 80
2, 276000, Note_on_c, 0, 72, 0
2, 276000, Note_on_c, 0, 73, 70
2, 276480, Note_on_c, 0, 73, 0
2, 276520, Note_on_c, 0, 75, 89
2, 276800, Note_on_c, 0, 72, 80
2, 276960, Note_on_c, 0, 75, 0
2, 277120, Note_on_c, 0, 73, 76
2, 277280, Note_on_c, 0, 72, 0
2, 277440, Note_on_c, 0, 74, 89
2, 277560, Note_on_c, 0, 73, 0
2, 277760, Note_on_c, 0, 75, 76
2, 277880, Note_on_c, 0, 74, 0
2, 278080, Note_on_c, 0, 76, 78
2, 278200, Note_on_c, 0, 75, 0
2, 278400, Note_on_c, 0, 76, 0
2, 278400, Note_on_c, 0, 77, 98
2, 278720, Note_on_c, 0, 77, 0
2, 278720, Note_on_c, 0, 73, 88
2, 279040, Note_on_c, 0, 74, 86
2, 279160, Note_on_c, 0, 73, 0
2, 279360, Note_on_c, 0, 74, 0
2, 279360, Note_on_c, 0, 75, 96
2, 279680, Note_on_c, 0, 76, 76
2, 279800, Note_on_c, 0, 75, 0
2, 280000, Note_on_c, 0, 77, 80
2, 280120, Note_on_c, 0, 76, 0
2, 280320, Note_on_c, 0, 77, 0
2, 280320, Note_on_c, 0, 80, 96
2, 280800, Note_on_c, 0, 80, 0
2, 281280, Note_on_c, 0, 78, 82
2, 282680, Note_on_c, 0, 78, 0
2, 282720, Note_on_c, 0, 78, 76
2, 283160, Note_on_c, 0, 78, 0
2, 283200, Note_on_c, 0, 78, 88
2, 283680, Note_on_c, 0, 78, 0
2, 283680, Note_on_c, 0, 77, 72
2, 284160, Note_on_c, 0, 77, 0
2, 284160, Note_on_c, 0, 80, 82
2, 284640, Note_on_c, 0, 80, 0
2, 285120, Note_on_c, 0, 78, 82
2, 286560, Note_on_c, 0, 78, 0
2, 286560, Note_on_c, 0, 73, 76
2, 287040, Note_on_c, 0, 75, 88
2, 287240, Note_on_c, 0, 73, 0
2, 287520, Note_on_c, 0, 77, 82
2, 287720, Note_on_c, 0, 75, 0
2, 288000, Note_on_c, 0, 80, 96
2, 288160, Note_on_c, 0, 77, 0
2, 288480, Note_on_c, 0, 80, 0
2, 288480, Note_on_c, 0, 78, 88
2, 288960, Note_on_c, 0, 78, 0
2, 288960, Note_on_c, 0, 85, 94
2, 289440, Note_on_c, 0, 85, 0
2, 289440, Note_on_c, 0, 82, 84
2, 289920, Note_on_c, 0, 82, 0
2, 289920, Note_on_c, 0, 80, 90
2, 290400, Note_on_c, 0, 80, 0
2, 290400, Note_on_c, 0, 78, 80
2, 290880, Note_on_c, 0, 78, 0
2, 290880, Note_on_c, 0, 77, 88
2, 291360, Note_on_c, 0, 77, 0
2, 291360, Note_on_c, 0, 75, 82
2, 291840, Note_on_c, 0, 75, 0
2, 291840, Note_on_c, 0, 78, 94
2, 292320, Note_on_c, 0, 78, 0
2, 292800, Note_on_c, 0, 77, 98
2, 294240, Note_on_c, 0, 77, 0
2, 294240, Note_on_c, 0, 65, 68
2, 294720, Note_on_c, 0, 72, 80
2, 294910, Note_on_c, 0, 65, 0
2, 295200, Note_on_c, 0, 75, 72
2, 295390, Note_on_c, 0, 72, 0
2, 295520, Note_on_c, 0, 65, 62
2, 295600, Note_on_c, 0, 75, 0
2, 295640, Note_on_c, 0, 75, 74
2, 295760, Note_on_c, 0, 78, 88
2, 295840, Note_on_c, 0, 65, 0
2, 295960, Note_on_c, 0, 75, 0
2, 296080, Note_on_c, 0, 78, 0
2, 296640, Note_on_c, 0, 65, 76
2, 296640, Note_on_c, 0, 73, 76
2, 296640, Note_on_c, 0, 77, 89
2, 297600, Note_on_c, 0, 77, 0
2, 297600, Note_on_c, 0, 73, 0
2, 297920, Note_on_c, 0, 68, 68
2, 298040, Note_on_c, 0, 65, 0
2, 298240, Note_on_c, 0, 69, 70
2, 298360, Note_on_c, 0, 68, 0
2, 298560, Note_on_c, 0, 69, 0
2, 298560, Note_on_c, 0, 70, 82
2, 298880, Note_on_c, 0, 71, 65
2, 299040, Note_on_c, 0, 70, 0
2, 299200, Note_on_c, 0, 72, 59
2, 299320, Note_on_c, 0, 71, 0
2, 299520, Note_on_c, 0, 75, 71
2, 299680, Note_on_c, 0, 72, 0
2, 299840, Note_on_c, 0, 75, 0
2, 300480, Note_on_c, 0, 64, 50
2, 300480, Note_on_c, 0, 70, 48
2, 300480, Note_on_c, 0, 73, 64
2, 301440, Note_on_c, 0, 73, 0
2, 301440, Note_on_c, 0, 70, 0
2, 301880, Note_on_c, 0, 64, 0
2, 301920, Note_on_c, 0, 63, 47
2, 302240, Note_on_c, 0, 63, 0
2, 302400, Note_on_c, 0, 65, 62
2, 302720, Note_on_c, 0, 65, 0
2, 302880, Note_on_c, 0, 66, 49
2, 303200, Note_on_c, 0, 66, 0
2, 303360, Note_on_c, 0, 68, 62
2, 303720, Note_on_c, 0, 68, 0
2, 303840, Note_on_c, 0, 70, 53
2, 304160, Note_on_c, 0, 70, 0
2, 304320, Note_on_c, 0, 71, 62
2, 304720, Note_on_c, 0, 71, 0
2, 304800, Note_on_c, 0, 73, 55
2, 305120, Note_on_c, 0, 73, 0
2, 305280, Note_on_c, 0, 75, 64
2, 305760, Note_on_c, 0, 66, 51
2, 305760, Note_on_c, 0, 71, 51
2, 306040, Note_on_c, 0, 75, 0
2, 306040, Note_on_c, 0, 65, 55
2, 306060, Note_on_c, 0, 71, 0
2, 306188, Note_on_c, 0, 71, 59
2, 306320, Note_on_c, 0, 77, 68
2, 306440, Note_on_c, 0, 66, 0
2, 306710, Note_on_c, 0, 65, 0
2, 306720, Note_on_c, 0, 73, 42
2, 306858, Note_on_c, 0, 71, 0
2, 306990, Note_on_c, 0, 77, 0
2, 307033, Note_on_c, 0, 66, 49
2, 307125, Note_on_c, 0, 70, 64
2, 307280, Note_on_c, 0, 78, 83
2, 307390, Note_on_c, 0, 73, 0
2, 307513, Note_on_c, 0, 66, 0
2, 307605, Note_on_c, 0, 70, 0
2, 307760, Note_on_c, 0, 78, 0
2, 308160, Note_on_c, 0, 66, 50
2, 308160, Note_on_c, 0, 70, 52
2, 308160, Note_on_c, 0, 78, 71
2, 309600, Note_on_c, 0, 61, 59
2, 309800, Note_on_c, 0, 78, 0
2, 309800, Note_on_c, 0, 66, 0
2, 309800, Note_on_c, 0, 70, 0
2, 310080, Note_on_c, 0, 70, 78
2, 310280, Note_on_c, 0, 61, 0
2, 310560, Note_on_c, 0, 73, 61
2, 310760, Note_on_c, 0, 70, 0
2, 310880, Note_on_c, 0, 65, 60
2, 310960, Note_on_c, 0, 70, 70
2, 311000, Note_on_c, 0, 73, 0
2, 311040, Note_on_c, 0, 73, 74
2, 311120, Note_on_c, 0, 77, 87
2, 311360, Note_on_c, 0, 65, 0
2, 311440, Note_on_c, 0, 70, 0
2, 311520, Note_on_c, 0, 73, 0
2, 311600, Note_on_c, 0, 77, 0
2, 312000, Note_on_c, 0, 65, 55
2, 312000, Note_on_c, 0, 70, 53
2, 312000, Note_on_c, 0, 73, 53
2, 312000, Note_on_c, 0, 77, 75
2, 313440, Note_on_c, 0, 61, 65
2, 313640, Note_on_c, 0, 77, 0
2, 313640, Note_on_c, 0, 73, 0
2, 313640, Note_on_c, 0, 65, 0
2, 313640, Note_on_c, 0, 70, 0
2, 313920, Note_on_c, 0, 70, 78
2, 314120, Note_on_c, 0, 61, 0
2, 314400, Note_on_c, 0, 73, 66
2, 314600, Note_on_c, 0, 70, 0
2, 314720, Note_on_c, 0, 64, 59
2, 314800, Note_on_c, 0, 70, 65
2, 314880, Note_on_c, 0, 73, 0
2, 314920, Note_on_c, 0, 73, 70
2, 315000, Note_on_c, 0, 76, 85
2, 315200, Note_on_c, 0, 64, 0
2, 315280, Note_on_c, 0, 70, 0
2, 315400, Note_on_c, 0, 73, 0
2, 315480, Note_on_c, 0, 76, 0
2, 315840, Note_on_c, 0, 64, 51
2, 315840, Note_on_c, 0, 70, 53
2, 315840, Note_on_c, 0, 73, 55
2, 315840, Note_on_c, 0, 76, 77
2, 317280, Note_on_c, 0, 58, 72
2, 317480, Note_on_c, 0, 76, 0
2, 317480, Note_on_c, 0, 73, 0
2, 317480, Note_on_c, 0, 64, 0
2, 317480, Note_on_c, 0, 70, 0
2, 317760, Note_on_c, 0, 59, 80
2, 317960, Note_on_c, 0, 58, 0
2, 318240, Note_on_c, 0, 61, 70
2, 318440, Note_on_c, 0, 59, 0
2, 318720, Note_on_c, 0, 61, 0
2, 318720, Note_on_c, 0, 63, 82
2, 319200, Note_on_c, 0, 65, 70
2, 319400, Note_on_c, 0, 63, 0
2, 319680, Note_on_c, 0, 66, 80
2, 319880, Note_on_c, 0, 65, 0
2, 320160, Note_on_c, 0, 68, 67
2, 320360, Note_on_c, 0, 66, 0
2, 320640, Note_on_c, 0, 70, 80
2, 320840, Note_on_c, 0, 68, 0
2, 321600, Note_on_c, 0, 71, 78
2, 321800, Note_on_c, 0, 70, 0
2, 322080, Note_on_c, 0, 68, 66
2, 322280, Note_on_c, 0, 71, 0
2, 322440, Note_on_c, 0, 78, 47
2, 322520, Note_on_c, 0, 82, 53
2, 322560, Note_on_c, 0, 68, 0
2, 322600, Note_on_c, 0, 85, 61
2, 322680, Note_on_c, 0, 90, 84
2, 322920, Note_on_c, 0, 78, 0
2, 323000, Note_on_c, 0, 82, 0
2, 323080, Note_on_c, 0, 85, 0
2, 323160, Note_on_c, 0, 90, 0
2, 323520, Note_on_c, 0, 78, 52
2, 323520, Note_on_c, 0, 82, 52
2, 323520, Note_on_c, 0, 85, 54
2, 323520, Note_on_c, 0, 90, 76
2, 324960, Note_on_c, 0, 73, 46
2, 325160, Note_on_c, 0, 90, 0
2, 325160, Note_on_c, 0, 85, 0
2, 325160, Note_on_c, 0, 78, 0
2, 325160, Note_on_c, 0, 82, 0
2, 325440, Note_on_c, 0, 82, 49
2, 325640, Note_on_c, 0, 73, 0
2, 325920, Note_on_c, 0, 85, 47
2, 326120, Note_on_c, 0, 82, 0
2, 326240, Note_on_c, 0, 77, 58
2, 326320, Note_on_c, 0, 82, 61
2, 326360, Note_on_c, 0, 85, 0
2, 326400, Note_on_c, 0, 85, 67
2, 326480, Note_on_c, 0, 89, 86
2, 326720, Note_on_c, 0, 77, 0
2, 326800, Note_on_c, 0, 82, 0
2, 326880, Note_on_c, 0, 85, 0
2, 326960, Note_on_c, 0, 89, 0
2, 327360, Note_on_c, 0, 77, 66
2, 327360, Note_on_c, 0, 82, 66
2, 327360, Note_on_c, 0, 85, 66
2, 327360, Note_on_c, 0, 89, 79
2, 328800, Note_on_c, 0, 73, 47
2, 329000, Note_on_c, 0, 89, 0
2, 329000, Note_on_c, 0, 85, 0
2, 329000, Note_on_c, 0, 77, 0
2, 329000, Note_on_c, 0, 82, 0
2, 329280, Note_on_c, 0, 82, 64
2, 329480, Note_on_c, 0, 73, 0
2, 329760, Note_on_c, 0, 85, 47
2, 329960, Note_on_c, 0, 82, 0
2, 330080, Note_on_c, 0, 76, 54
2, 330160, Note_on_c, 0, 82, 59
2, 330200, Note_on_c, 0, 85, 0
2, 330240, Note_on_c, 0, 85, 65
2, 330320, Note_on_c, 0, 88, 82
2, 330560, Note_on_c, 0, 76, 0
2, 330640, Note_on_c, 0, 82, 0
2, 330720, Note_on_c, 0, 85, 0
2, 330800, Note_on_c, 0, 88, 0
2, 331200, Note_on_c, 0, 76, 62
2, 331200, Note_on_c, 0, 82, 62
2, 331200, Note_on_c, 0, 85, 62
2, 331200, Note_on_c, 0, 88, 76
2, 332640, Note_on_c, 0, 70, 46
2, 332840, Note_on_c, 0, 88, 0
2, 332840, Note_on_c, 0, 85, 0
2, 332840, Note_on_c, 0, 76, 0
2, 332840, Note_on_c, 0, 82, 0
2, 333120, Note_on_c, 0, 71, 62
2, 333320, Note_on_c, 0, 70, 0
2, 333600, Note_on_c, 0, 73, 47
2, 333800, Note_on_c, 0, 71, 0
2, 334080, Note_on_c, 0, 73, 0
2, 334080, Note_on_c, 0, 75, 72
2, 334560, Note_on_c, 0, 77, 64
2, 334760, Note_on_c, 0, 75, 0
2, 335040, Note_on_c, 0, 78, 74
2, 335240, Note_on_c, 0, 77, 0
2, 335520, Note_on_c, 0, 80, 59
2, 335720, Note_on_c, 0, 78, 0
2, 336000, Note_on_c, 0, 82, 70
2, 336200, Note_on_c, 0, 80, 0
2, 336480, Note_on_c, 0, 71, 57
2, 336480, Note_on_c, 0, 77, 64
2, 336680, Note_on_c, 0, 82, 0
2, 336960, Note_on_c, 0, 83, 76
2, 337440, Note_on_c, 0, 80, 62
2, 337640, Note_on_c, 0, 83, 0
2, 337760, Note_on_c, 0, 70, 59
2, 337840, Note_on_c, 0, 78, 61
2, 337920, Note_on_c, 0, 71, 0
2, 337920, Note_on_c, 0, 80, 0
2, 337920, Note_on_c, 0, 77, 0
2, 337920, Note_on_c, 0, 82, 66
2, 338000, Note_on_c, 0, 85, 84
2, 338240, Note_on_c, 0, 70, 0
2, 338320, Note_on_c, 0, 78, 0
2, 338400, Note_on_c, 0, 82, 0
2, 338480, Note_on_c, 0, 85, 0
2, 338880, Note_on_c, 0, 85, 62
2, 339840, Note_on_c, 0, 71, 53
2, 339840, Note_on_c, 0, 77, 56
2, 339840, Note_on_c, 0, 82, 62
2, 340040, Note_on_c, 0, 85, 0
2, 340800, Note_on_c, 0, 83, 63
2, 341000, Note_on_c, 0, 82, 0
2, 341280, Note_on_c, 0, 80, 60
2, 341480, Note_on_c, 0, 83, 0
2, 341680, Note_on_c, 0, 70, 55
2, 341760, Note_on_c, 0, 71, 0
2, 341760, Note_on_c, 0, 80, 0
2, 341760, Note_on_c, 0, 77, 0
2, 341760, Note_on_c, 0, 78, 60
2, 341840, Note_on_c, 0, 82, 64
2, 341920, Note_on_c, 0, 85, 88
2, 342160, Note_on_c, 0, 70, 0
2, 342240, Note_on_c, 0, 78, 0
2, 342320, Note_on_c, 0, 82, 0
2, 342400, Note_on_c, 0, 85, 0
2, 342720, Note_on_c, 0, 85, 64
2, 343600, Note_on_c, 0, 59, 61
2, 343680, Note_on_c, 0, 65, 65
2, 343800, Note_on_c, 0, 70, 86
2, 343880, Note_on_c, 0, 85, 0
2, 344640, Note_on_c, 0, 71, 64
2, 344960, Note_on_c, 0, 70, 0
2, 345120, Note_on_c, 0, 68, 59
2, 345320, Note_on_c, 0, 71, 0
2, 345560, Note_on_c, 0, 59, 0
2, 345600, Note_on_c, 0, 65, 0
2, 345600, Note_on_c, 0, 68, 0
2, 345640, Note_on_c, 0, 61, 41
2, 345680, Note_on_c, 0, 66, 62
2, 345720, Note_on_c, 0, 73, 80
2, 345920, Note_on_c, 0, 78, 60
2, 346120, Note_on_c, 0, 61, 0
2, 346240, Note_on_c, 0, 75, 55
2, 346360, Note_on_c, 0, 66, 0
2, 346400, Note_on_c, 0, 73, 0
2, 346440, Note_on_c, 0, 78, 0
2, 346560, Note_on_c, 0, 73, 70
2, 346760, Note_on_c, 0, 75, 0
2, 346880, Note_on_c, 0, 70, 50
2, 347080, Note_on_c, 0, 73, 0
2, 347200, Note_on_c, 0, 71, 57
2, 347400, Note_on_c, 0, 70, 0
2, 347520, Note_on_c, 0, 73, 74
2, 347720, Note_on_c, 0, 71, 0
2, 347840, Note_on_c, 0, 78, 56
2, 348040, Note_on_c, 0, 73, 0
2, 348160, Note_on_c, 0, 75, 58
2, 348360, Note_on_c, 0, 78, 0
2, 348480, Note_on_c, 0, 73, 74
2, 348680, Note_on_c, 0, 75, 0
2, 348800, Note_on_c, 0, 70, 54
2, 349000, Note_on_c, 0, 73, 0
2, 349120, Note_on_c, 0, 71, 61
2, 349320, Note_on_c, 0, 70, 0
2, 349440, Note_on_c, 0, 73, 76
2, 349640, Note_on_c, 0, 71, 0
2, 349760, Note_on_c, 0, 78, 54
2, 349960, Note_on_c, 0, 73, 0
2, 350080, Note_on_c, 0, 75, 57
2, 350280, Note_on_c, 0, 78, 0
2, 350400, Note_on_c, 0, 73, 74
2, 350600, Note_on_c, 0, 75, 0
2, 350720, Note_on_c, 0, 70, 53
2, 350920, Note_on_c, 0, 73, 0
2, 351040, Note_on_c, 0, 71, 59
2, 351240, Note_on_c, 0, 70, 0
2, 351360, Note_on_c, 0, 73, 72
2, 351560, Note_on_c, 0, 71, 0
2, 351680, Note_on_c, 0, 78, 57
2, 351880, Note_on_c, 0, 73, 0
2, 352000, Note_on_c, 0, 75, 57
2, 352200, Note_on_c, 0, 78, 0
2, 352320, Note_on_c, 0, 73, 72
2, 352520, Note_on_c, 0, 75, 0
2, 352640, Note_on_c, 0, 70, 55
2, 352840, Note_on_c, 0, 73, 0
2, 352960, Note_on_c, 0, 71, 59
2, 353160, Note_on_c, 0, 70, 0
2, 353280, Note_on_c, 0, 73, 73
2, 353480, Note_on_c, 0, 71, 0
2, 353600, Note_on_c, 0, 78, 59
2, 353800, Note_on_c, 0, 73, 0
2, 353920, Note_on_c, 0, 82, 62
2, 354120, Note_on_c, 0, 78, 0
2, 354240, Note_on_c, 0, 87, 72
2, 354440, Note_on_c, 0, 82, 0
2, 354560, Note_on_c, 0, 85, 58
2, 354760, Note_on_c, 0, 87, 0
2, 354880, Note_on_c, 0, 82, 56
2, 355080, Note_on_c, 0, 85, 0
2, 355200, Note_on_c, 0, 78, 72
2, 355400, Note_on_c, 0, 82, 0
2, 355520, Note_on_c, 0, 75, 52
2, 355720, Note_on_c, 0, 78, 0
2, 355840, Note_on_c, 0, 73, 50
2, 356040, Note_on_c, 0, 75, 0
2, 356160, Note_on_c, 0, 70, 66
2, 356360, Note_on_c, 0, 73, 0
2, 356480, Note_on_c, 0, 66, 46
2, 356680, Note_on_c, 0, 70, 0
2, 356800, Note_on_c, 0, 65, 44
2, 357000, Note_on_c, 0, 66, 0
2, 357120, Note_on_c, 0, 59, 49
2, 357120, Note_on_c, 0, 63, 69
2, 357320, Note_on_c, 0, 65, 0
2, 357600, Note_on_c, 0, 63, 0
2, 357600, Note_on_c, 0, 59, 0
2, 359140, Note_on_c, 0, 59, 53
2, 359220, Note_on_c, 0, 65, 55
2, 359300, Note_on_c, 0, 68, 58
2, 359380, Note_on_c, 0, 71, 60
2, 359460, Note_on_c, 0, 73, 80
2, 359940, Note_on_c, 0, 73, 0
2, 359940, Note_on_c, 0, 68, 0
2, 359940, Note_on_c, 0, 59, 0
2, 359940, Note_on_c, 0, 65, 0
2, 359940, Note_on_c, 0, 71, 0
2, 361160, Note_on_c, 0, 58, 42
2, 361200, Note_on_c, 0, 61, 48
2, 361240, Note_on_c, 0, 66, 55
2, 361280, Note_on_c, 0, 70, 62
2, 361380, Note_on_c, 0, 78, 76
2, 361860, Note_on_c, 0, 78, 0
2, 361860, Note_on_c, 0, 66, 0
2, 361860, Note_on_c, 0, 58, 0
2, 361860, Note_on_c, 0, 61, 0
2, 361860, Note_on_c, 0, 70, 0
2, 361860, End_track
3, 0, Start_track
3, 0, Title_t, "Piano RH"
3, 0, Control_c, 0, 7, 105
3, 0, Control_c, 0, 10, 73
3, 0, Control_c, 0, 91, 100
3, 2420, Note_on_c, 0, 70, 45
3, 2420, Note_on_c, 0, 73, 52
3, 2665, Note_on_c, 0, 73, 0
3, 2665, Note_on_c, 0, 70, 0
3, 2900, Note_on_c, 0, 70, 45
3, 2900, Note_on_c, 0, 73, 52
3, 3145, Note_on_c, 0, 73, 0
3, 3145, Note_on_c, 0, 70, 0
3, 3380, Note_on_c, 0, 70, 45
3, 3380, Note_on_c, 0, 73, 52
3, 3625, Note_on_c, 0, 73, 0
3, 3625, Note_on_c, 0, 70, 0
3, 3860, Note_on_c, 0, 70, 55
3, 3860, Note_on_c, 0, 73, 62
3, 4340, Note_on_c, 0, 73, 0
3, 4340, Note_on_c, 0, 70, 0
3, 4820, Note_on_c, 0, 70, 45
3, 4820, Note_on_c, 0, 73, 52
3, 6225, Note_on_c, 0, 73, 0
3, 6225, Note_on_c, 0, 70, 0
3, 6260, Note_on_c, 0, 70, 45
3, 6260, Note_on_c, 0, 73, 52
3, 6505, Note_on_c, 0, 73, 0
3, 6505, Note_on_c, 0, 70, 0
3, 6740, Note_on_c, 0, 70, 45
3, 6740, Note_on_c, 0, 73, 52
3, 6985, Note_on_c, 0, 73, 0
3, 6985, Note_on_c, 0, 70, 0
3, 7220, Note_on_c, 0, 70, 45
3, 7220, Note_on_c, 0, 73, 52
3, 7465, Note_on_c, 0, 73, 0
3, 7465, Note_on_c, 0, 70, 0
3, 7700, Note_on_c, 0, 70, 55
3, 7700, Note_on_c, 0, 73, 62
3, 8180, Note_on_c, 0, 73, 0
3, 8180, Note_on_c, 0, 70, 0
3, 8660, Note_on_c, 0, 70, 45
3, 8660, Note_on_c, 0, 73, 52
3, 10065, Note_on_c, 0, 73, 0
3, 10065, Note_on_c, 0, 70, 0
3, 10100, Note_on_c, 0, 70, 45
3, 10100, Note_on_c, 0, 73, 52
3, 10345, Note_on_c, 0, 73, 0
3, 10345, Note_on_c, 0, 70, 0
3, 10580, Note_on_c, 0, 70, 45
3, 10580, Note_on_c, 0, 73, 52
3, 10825, Note_on_c, 0, 73, 0
3, 10825, Note_on_c, 0, 70, 0
3, 11060, Note_on_c, 0, 70, 45
3, 11060, Note_on_c, 0, 73, 52
3, 11305, Note_on_c, 0, 73, 0
3, 11305, Note_on_c, 0, 70, 0
3, 11540, Note_on_c, 0, 70, 55
3, 11540, Note_on_c, 0, 73, 62
3, 11985, Note_on_c, 0, 73, 0
3, 11985, Note_on_c, 0, 70, 0
3, 12020, Note_on_c, 0, 73, 52
3, 12235, Note_on_c, 0, 73, 0
3, 12980, Note_on_c, 0, 73, 52
3, 13225, Note_on_c, 0, 73, 0
3, 13460, Note_on_c, 0, 73, 57
3, 13705, Note_on_c, 0, 73, 0
3, 13940, Note_on_c, 0, 73, 52
3, 14185, Note_on_c, 0, 73, 0
3, 14420, Note_on_c, 0, 73, 52
3, 14665, Note_on_c, 0, 73, 0
3, 14900, Note_on_c, 0, 73, 52
3, 15145, Note_on_c, 0, 73, 0
3, 15380, Note_on_c, 0, 71, 55
3, 15380, Note_on_c, 0, 73, 62
3, 15860, Note_on_c, 0, 73, 0
3, 15860, Note_on_c, 0, 71, 0
3, 16340, Note_on_c, 0, 71, 45
3, 16340, Note_on_c, 0, 73, 52
3, 17745, Note_on_c, 0, 73, 0
3, 17745, Note_on_c, 0, 71, 0
3, 17780, Note_on_c, 0, 71, 45
3, 17780, Note_on_c, 0, 73, 52
3, 18025, Note_on_c, 0, 73, 0
3, 18025, Note_on_c, 0, 71, 0
3, 18260, Note_on_c, 0, 71, 45
3, 18260, Note_on_c, 0, 73, 52
3, 18505, Note_on_c, 0, 73, 0
3, 18505, Note_on_c, 0, 71, 0
3, 18740, Note_on_c, 0, 71, 45
3, 18740, Note_on_c, 0, 73, 52
3, 18985, Note_on_c, 0, 73, 0
3, 18985, Note_on_c, 0, 71, 0
3, 19220, Note_on_c, 0, 73, 62
3, 19700, Note_on_c, 0, 73, 0
3, 20180, Note_on_c, 0, 73, 52
3, 21585, Note_on_c, 0, 73, 0
3, 21620, Note_on_c, 0, 73, 52
3, 21865, Note_on_c, 0, 73, 0
3, 22100, Note_on_c, 0, 73, 52
3, 22345, Note_on_c, 0, 73, 0
3, 22580, Note_on_c, 0, 73, 52
3, 22825, Note_on_c, 0, 73, 0
3, 23060, Note_on_c, 0, 73, 62
3, 23540, Note_on_c, 0, 73, 0
3, 24020, Note_on_c, 0, 73, 52
3, 25425, Note_on_c, 0, 73, 0
3, 25460, Note_on_c, 0, 73, 52
3, 25705, Note_on_c, 0, 73, 0
3, 25940, Note_on_c, 0, 73, 52
3, 26185, Note_on_c, 0, 73, 0
3, 26420, Note_on_c, 0, 73, 52
3, 26665, Note_on_c, 0, 73, 0
3, 26900, Note_on_c, 0, 78, 63
3, 27145, Note_on_c, 0, 78, 0
3, 27380, Note_on_c, 0, 78, 54
3, 27625, Note_on_c, 0, 78, 0
3, 27860, Note_on_c, 0, 78, 54
3, 28105, Note_on_c, 0, 78, 0
3, 28340, Note_on_c, 0, 78, 55
3, 28585, Note_on_c, 0, 78, 0
3, 28820, Note_on_c, 0, 78, 66
3, 29065, Note_on_c, 0, 78, 0
3, 29300, Note_on_c, 0, 78, 57
3, 29545, Note_on_c, 0, 78, 0
3, 29780, Note_on_c, 0, 78, 57
3, 30025, Note_on_c, 0, 78, 0
3, 30260, Note_on_c, 0, 78, 58
3, 30505, Note_on_c, 0, 78, 0
3, 30780, Note_on_c, 0, 78, 62
3, 30780, Note_on_c, 0, 80, 69
3, 31260, Note_on_c, 0, 80, 0
3, 31260, Note_on_c, 0, 78, 0
3, 32660, Note_on_c, 0, 80, 69
3, 32660, Note_on_c, 0, 83, 80
3, 33140, Note_on_c, 0, 83, 0
3, 33140, Note_on_c, 0, 80, 0
3, 34580, Note_on_c, 0, 82, 60
3, 34580, Note_on_c, 0, 85, 67
3, 35060, Note_on_c, 0, 85, 0
3, 35060, Note_on_c, 0, 82, 0
3, 35540, Note_on_c, 0, 82, 55
3, 35540, Note_on_c, 0, 85, 62
3, 36945, Note_on_c, 0, 85, 0
3, 36945, Note_on_c, 0, 82, 0
3, 36980, Note_on_c, 0, 82, 55
3, 36980, Note_on_c, 0, 85, 62
3, 37425, Note_on_c, 0, 85, 0
3, 37425, Note_on_c, 0, 82, 0
3, 37460, Note_on_c, 0, 82, 55
3, 37460, Note_on_c, 0, 85, 62
3, 37905, Note_on_c, 0, 85, 0
3, 37905, Note_on_c, 0, 82, 0
3, 37940, Note_on_c, 0, 82, 55
3, 37940, Note_on_c, 0, 85, 62
3, 38385, Note_on_c, 0, 85, 0
3, 38385, Note_on_c, 0, 82, 0
3, 38420, Note_on_c, 0, 82, 55
3, 38420, Note_on_c, 0, 85, 62
3, 38900, Note_on_c, 0, 85, 0
3, 38900, Note_on_c, 0, 82, 0
3, 39380, Note_on_c, 0, 82, 50
3, 39380, Note_on_c, 0, 85, 57
3, 40785, Note_on_c, 0, 85, 0
3, 40785, Note_on_c, 0, 82, 0
3, 40820, Note_on_c, 0, 82, 50
3, 40820, Note_on_c, 0, 85, 57
3, 41265, Note_on_c, 0, 85, 0
3, 41265, Note_on_c, 0, 82, 0
3, 41300, Note_on_c, 0, 82, 50
3, 41300, Note_on_c, 0, 85, 57
3, 41745, Note_on_c, 0, 85, 0
3, 41745, Note_on_c, 0, 82, 0
3, 41780, Note_on_c, 0, 82, 50
3, 41780, Note_on_c, 0, 85, 57
3, 42225, Note_on_c, 0, 85, 0
3, 42225, Note_on_c, 0, 82, 0
3, 42260, Note_on_c, 0, 82, 55
3, 42260, Note_on_c, 0, 85, 62
3, 42705, Note_on_c, 0, 85, 0
3, 42705, Note_on_c, 0, 82, 0
3, 42740, Note_on_c, 0, 82, 50
3, 42740, Note_on_c, 0, 85, 57
3, 43185, Note_on_c, 0, 85, 0
3, 43220, Note_on_c, 0, 82, 0
3, 43700, Note_on_c, 0, 85, 57
3, 44145, Note_on_c, 0, 85, 0
3, 44180, Note_on_c, 0, 85, 62
3, 44625, Note_on_c, 0, 85, 0
3, 44660, Note_on_c, 0, 85, 57
3, 45105, Note_on_c, 0, 85, 0
3, 45140, Note_on_c, 0, 85, 57
3, 45585, Note_on_c, 0, 85, 0
3, 45620, Note_on_c, 0, 85, 57
3, 46100, Note_on_c, 0, 85, 0
3, 46100, Note_on_c, 0, 84, 67
3, 46100, Note_on_c, 0, 84, 67
3, 46100, Note_on_c, 0, 87, 72
3, 46100, Note_on_c, 0, 87, 72
3, 46580, Note_on_c, 0, 87, 0
3, 46580, Note_on_c, 0, 84, 0
3, 46580, Note_on_c, 0, 84, 0
3, 46580, Note_on_c, 0, 87, 0
3, 47060, Note_on_c, 0, 84, 58
3, 47060, Note_on_c, 0, 87, 63
3, 48500, Note_on_c, 0, 87, 0
3, 48500, Note_on_c, 0, 84, 0
3, 125300, Note_on_c, 0, 71, 32
3, 125300, Note_on_c, 0, 73, 39
3, 125545, Note_on_c, 0, 73, 0
3, 125545, Note_on_c, 0, 71, 0
3, 125780, Note_on_c, 0, 71, 32
3, 125780, Note_on_c, 0, 73, 39
3, 126025, Note_on_c, 0, 73, 0
3, 126025, Note_on_c, 0, 71, 0
3, 126260, Note_on_c, 0, 71, 32
3, 126260, Note_on_c, 0, 73, 39
3, 126505, Note_on_c, 0, 73, 0
3, 126505, Note_on_c, 0, 71, 0
3, 126740, Note_on_c, 0, 70, 37
3, 126740, Note_on_c, 0, 73, 44
3, 127020, Note_on_c, 0, 73, 0
3, 127020, Note_on_c, 0, 70, 0
3, 127700, Note_on_c, 0, 70, 32
3, 127700, Note_on_c, 0, 73, 39
3, 129105, Note_on_c, 0, 73, 0
3, 129105, Note_on_c, 0, 70, 0
3, 129140, Note_on_c, 0, 70, 38
3, 129140, Note_on_c, 0, 73, 45
3, 129385, Note_on_c, 0, 73, 0
3, 129385, Note_on_c, 0, 70, 0
3, 129620, Note_on_c, 0, 70, 38
3, 129620, Note_on_c, 0, 73, 45
3, 129865, Note_on_c, 0, 73, 0
3, 129865, Note_on_c, 0, 70, 0
3, 130100, Note_on_c, 0, 70, 38
3, 130100, Note_on_c, 0, 73, 45
3, 130345, Note_on_c, 0, 73, 0
3, 130345, Note_on_c, 0, 70, 0
3, 130580, Note_on_c, 0, 70, 43
3, 130580, Note_on_c, 0, 73, 50
3, 131060, Note_on_c, 0, 73, 0
3, 131060, Note_on_c, 0, 70, 0
3, 131540, Note_on_c, 0, 70, 38
3, 131540, Note_on_c, 0, 73, 45
3, 132945, Note_on_c, 0, 73, 0
3, 132945, Note_on_c, 0, 70, 0
3, 132980, Note_on_c, 0, 70, 38
3, 132980, Note_on_c, 0, 73, 45
3, 133225, Note_on_c, 0, 73, 0
3, 133225, Note_on_c, 0, 70, 0
3, 133460, Note_on_c, 0, 70, 38
3, 133460, Note_on_c, 0, 73, 45
3, 133705, Note_on_c, 0, 73, 0
3, 133705, Note_on_c, 0, 70, 0
3, 133940, Note_on_c, 0, 70, 38
3, 133940, Note_on_c, 0, 73, 45
3, 134385, Note_on_c, 0, 73, 0
3, 134385, Note_on_c, 0, 70, 0
3, 134420, Note_on_c, 0, 70, 43
3, 134420, Note_on_c, 0, 73, 50
3, 134665, Note_on_c, 0, 73, 0
3, 134665, Note_on_c, 0, 70, 0
3, 134900, Note_on_c, 0, 73, 45
3, 135115, Note_on_c, 0, 73, 0
3, 135860, Note_on_c, 0, 73, 45
3, 136105, Note_on_c, 0, 73, 0
3, 136340, Note_on_c, 0, 73, 50
3, 136585, Note_on_c, 0, 73, 0
3, 136820, Note_on_c, 0, 73, 45
3, 137065, Note_on_c, 0, 73, 0
3, 137300, Note_on_c, 0, 73, 45
3, 137545, Note_on_c, 0, 73, 0
3, 137780, Note_on_c, 0, 73, 45
3, 138025, Note_on_c, 0, 73, 0
3, 138260, Note_on_c, 0, 71, 43
3, 138260, Note_on_c, 0, 73, 50
3, 138740, Note_on_c, 0, 73, 0
3, 138740, Note_on_c, 0, 71, 0
3, 139220, Note_on_c, 0, 71, 38
3, 139220, Note_on_c, 0, 73, 45
3, 140625, Note_on_c, 0, 73, 0
3, 140625, Note_on_c, 0, 71, 0
3, 140660, Note_on_c, 0, 71, 38
3, 140660, Note_on_c, 0, 73, 45
3, 140905, Note_on_c, 0, 73, 0
3, 140905, Note_on_c, 0, 71, 0
3, 141140, Note_on_c, 0, 71, 38
3, 141140, Note_on_c, 0, 73, 45
3, 141385, Note_on_c, 0, 73, 0
3, 141385, Note_on_c, 0, 71, 0
3, 141620, Note_on_c, 0, 71, 38
3, 141620, Note_on_c, 0, 73, 45
3, 141865, Note_on_c, 0, 73, 0
3, 141865, Note_on_c, 0, 71, 0
3, 142100, Note_on_c, 0, 73, 50
3, 142580, Note_on_c, 0, 73, 0
3, 143060, Note_on_c, 0, 73, 45
3, 144465, Note_on_c, 0, 73, 0
3, 144500, Note_on_c, 0, 73, 45
3, 144745, Note_on_c, 0, 73, 0
3, 144980, Note_on_c, 0, 73, 45
3, 145225, Note_on_c, 0, 73, 0
3, 145460, Note_on_c, 0, 73, 45
3, 145705, Note_on_c, 0, 73, 0
3, 145940, Note_on_c, 0, 73, 50
3, 146420, Note_on_c, 0, 73, 0
3, 146900, Note_on_c, 0, 73, 45
3, 148305, Note_on_c, 0, 73, 0
3, 148340, Note_on_c, 0, 73, 45
3, 148585, Note_on_c, 0, 73, 0
3, 148820, Note_on_c, 0, 73, 45
3, 149065, Note_on_c, 0, 73, 0
3, 149300, Note_on_c, 0, 73, 45
3, 149545, Note_on_c, 0, 73, 0
3, 149780, Note_on_c, 0, 78, 58
3, 150025, Note_on_c, 0, 78, 0
3, 150260, Note_on_c, 0, 78, 54
3, 150505, Note_on_c, 0, 78, 0
3, 150740, Note_on_c, 0, 78, 54
3, 150985, Note_on_c, 0, 78, 0
3, 151220, Note_on_c, 0, 78, 55
3, 151465, Note_on_c, 0, 78, 0
3, 151700, Note_on_c, 0, 78, 61
3, 151945, Note_on_c, 0, 78, 0
3, 152180, Note_on_c, 0, 78, 57
3, 152425, Note_on_c, 0, 78, 0
3, 152660, Note_on_c, 0, 78, 57
3, 152905, Note_on_c, 0, 78, 0
3, 153140, Note_on_c, 0, 78, 58
3, 153385, Note_on_c, 0, 78, 0
3, 153660, Note_on_c, 0, 78, 57
3, 153660, Note_on_c, 0, 80, 64
3, 154140, Note_on_c, 0, 80, 0
3, 154140, Note_on_c, 0, 78, 0
3, 155540, Note_on_c, 0, 80, 69
3, 155540, Note_on_c, 0, 83, 80
3, 156020, Note_on_c, 0, 83, 0
3, 156020, Note_on_c, 0, 80, 0
3, 157460, Note_on_c, 0, 82, 60
3, 157460, Note_on_c, 0, 85, 67
3, 157740, Note_on_c, 0, 85, 0
3, 157740, Note_on_c, 0, 82, 0
3, 158420, Note_on_c, 0, 82, 55
3, 158420, Note_on_c, 0, 85, 62
3, 159625, Note_on_c, 0, 85, 0
3, 159625, Note_on_c, 0, 82, 0
3, 159860, Note_on_c, 0, 82, 55
3, 159860, Note_on_c, 0, 85, 62
3, 160105, Note_on_c, 0, 85, 0
3, 160105, Note_on_c, 0, 82, 0
3, 160340, Note_on_c, 0, 82, 55
3, 160340, Note_on_c, 0, 85, 62
3, 160585, Note_on_c, 0, 85, 0
3, 160585, Note_on_c, 0, 82, 0
3, 160820, Note_on_c, 0, 82, 55
3, 160820, Note_on_c, 0, 85, 62
3, 161065, Note_on_c, 0, 85, 0
3, 161065, Note_on_c, 0, 82, 0
3, 161300, Note_on_c, 0, 82, 55
3, 161300, Note_on_c, 0, 85, 62
3, 161580, Note_on_c, 0, 85, 0
3, 161580, Note_on_c, 0, 82, 0
3, 162260, Note_on_c, 0, 82, 50
3, 162260, Note_on_c, 0, 85, 57
3, 163465, Note_on_c, 0, 85, 0
3, 163465, Note_on_c, 0, 82, 0
3, 163700, Note_on_c, 0, 82, 50
3, 163700, Note_on_c, 0, 85, 57
3, 163945, Note_on_c, 0, 85, 0
3, 163945, Note_on_c, 0, 82, 0
3, 164180, Note_on_c, 0, 82, 50
3, 164180, Note_on_c, 0, 85, 57
3, 164425, Note_on_c, 0, 85, 0
3, 164425, Note_on_c, 0, 82, 0
3, 164660, Note_on_c, 0, 82, 50
3, 164660, Note_on_c, 0, 85, 57
3, 164905, Note_on_c, 0, 85, 0
3, 164905, Note_on_c, 0, 82, 0
3, 165140, Note_on_c, 0, 82, 55
3, 165140, Note_on_c, 0, 85, 62
3, 165385, Note_on_c, 0, 85, 0
3, 165385, Note_on_c, 0, 82, 0
3, 165620, Note_on_c, 0, 82, 50
3, 165620, Note_on_c, 0, 85, 57
3, 165865, Note_on_c, 0, 85, 0
3, 165900, Note_on_c, 0, 82, 0
3, 166580, Note_on_c, 0, 85, 57
3, 166825, Note_on_c, 0, 85, 0
3, 167060, Note_on_c, 0, 85, 62
3, 167305, Note_on_c, 0, 85, 0
3, 167540, Note_on_c, 0, 85, 57
3, 167785, Note_on_c, 0, 85, 0
3, 168020, Note_on_c, 0, 85, 57
3, 168265, Note_on_c, 0, 85, 0
3, 168500, Note_on_c, 0, 85, 57
3, 168780, Note_on_c, 0, 85, 0
3, 168980, Note_on_c, 0, 84, 67
3, 168980, Note_on_c, 0, 84, 67
3, 168980, Note_on_c, 0, 87, 72
3, 168980, Note_on_c, 0, 87, 72
3, 169260, Note_on_c, 0, 87, 0
3, 169260, Note_on_c, 0, 84, 0
3, 169260, Note_on_c, 0, 84, 0
3, 169260, Note_on_c, 0, 87, 0
3, 169940, Note_on_c, 0, 84, 58
3, 169940, Note_on_c, 0, 87, 63
3, 171180, Note_on_c, 0, 87, 0
3, 171180, Note_on_c, 0, 84, 0
3, 248160, Note_on_c, 0, 71, 32
3, 248160, Note_on_c, 0, 73, 39
3, 248405, Note_on_c, 0, 73, 0
3, 248405, Note_on_c, 0, 71, 0
3, 248640, Note_on_c, 0, 71, 32
3, 248640, Note_on_c, 0, 73, 39
3, 248885, Note_on_c, 0, 73, 0
3, 248885, Note_on_c, 0, 71, 0
3, 249120, Note_on_c, 0, 71, 32
3, 249120, Note_on_c, 0, 73, 39
3, 249365, Note_on_c, 0, 73, 0
3, 249365, Note_on_c, 0, 71, 0
3, 249600, Note_on_c, 0, 70, 37
3, 249600, Note_on_c, 0, 73, 44
3, 249880, Note_on_c, 0, 73, 0
3, 249880, Note_on_c, 0, 70, 0
3, 250560, Note_on_c, 0, 70, 45
3, 250560, Note_on_c, 0, 73, 39
3, 251765, Note_on_c, 0, 73, 0
3, 251765, Note_on_c, 0, 70, 0
3, 252020, Note_on_c, 0, 70, 45
3, 252020, Note_on_c, 0, 73, 52
3, 252265, Note_on_c, 0, 73, 0
3, 252265, Note_on_c, 0, 70, 0
3, 252500, Note_on_c, 0, 70, 45
3, 252500, Note_on_c, 0, 73, 52
3, 252745, Note_on_c, 0, 73, 0
3, 252745, Note_on_c, 0, 70, 0
3, 252980, Note_on_c, 0, 70, 45
3, 252980, Note_on_c, 0, 73, 52
3, 253225, Note_on_c, 0, 73, 0
3, 253225, Note_on_c, 0, 70, 0
3, 253460, Note_on_c, 0, 70, 50
3, 253460, Note_on_c, 0, 73, 57
3, 253740, Note_on_c, 0, 73, 0
3, 253740, Note_on_c, 0, 70, 0
3, 254420, Note_on_c, 0, 70, 45
3, 254420, Note_on_c, 0, 73, 52
3, 255625, Note_on_c, 0, 73, 0
3, 255625, Note_on_c, 0, 70, 0
3, 255860, Note_on_c, 0, 70, 45
3, 255860, Note_on_c, 0, 73, 52
3, 256105, Note_on_c, 0, 73, 0
3, 256105, Note_on_c, 0, 70, 0
3, 256340, Note_on_c, 0, 70, 45
3, 256340, Note_on_c, 0, 73, 52
3, 256585, Note_on_c, 0, 73, 0
3, 256585, Note_on_c, 0, 70, 0
3, 256820, Note_on_c, 0, 70, 45
3, 256820, Note_on_c, 0, 73, 52
3, 257065, Note_on_c, 0, 73, 0
3, 257065, Note_on_c, 0, 70, 0
3, 257300, Note_on_c, 0, 70, 50
3, 257300, Note_on_c, 0, 73, 57
3, 257545, Note_on_c, 0, 73, 0
3, 257545, Note_on_c, 0, 70, 0
3, 257780, Note_on_c, 0, 73, 52
3, 257995, Note_on_c, 0, 73, 0
3, 258740, Note_on_c, 0, 73, 52
3, 258985, Note_on_c, 0, 73, 0
3, 259220, Note_on_c, 0, 73, 57
3, 259465, Note_on_c, 0, 73, 0
3, 259700, Note_on_c, 0, 73, 52
3, 259945, Note_on_c, 0, 73, 0
3, 260180, Note_on_c, 0, 73, 52
3, 260425, Note_on_c, 0, 73, 0
3, 260660, Note_on_c, 0, 73, 52
3, 260905, Note_on_c, 0, 73, 0
3, 261140, Note_on_c, 0, 71, 50
3, 261140, Note_on_c, 0, 73, 57
3, 261420, Note_on_c, 0, 73, 0
3, 261420, Note_on_c, 0, 71, 0
3, 262100, Note_on_c, 0, 71, 45
3, 262100, Note_on_c, 0, 73, 52
3, 263305, Note_on_c, 0, 73, 0
3, 263305, Note_on_c, 0, 71, 0
3, 263540, Note_on_c, 0, 71, 45
3, 263540, Note_on_c, 0, 73, 52
3, 263785, Note_on_c, 0, 73, 0
3, 263785, Note_on_c, 0, 71, 0
3, 264020, Note_on_c, 0, 71, 45
3, 264020, Note_on_c, 0, 73, 52
3, 264265, Note_on_c, 0, 73, 0
3, 264265, Note_on_c, 0, 71, 0
3, 264500, Note_on_c, 0, 71, 45
3, 264500, Note_on_c, 0, 73, 52
3, 264745, Note_on_c, 0, 73, 0
3, 264745, Note_on_c, 0, 71, 0
3, 264980, Note_on_c, 0, 73, 57
3, 265260, Note_on_c, 0, 73, 0
3, 265940, Note_on_c, 0, 73, 52
3, 267145, Note_on_c, 0, 73, 0
3, 267380, Note_on_c, 0, 73, 52
3, 267625, Note_on_c, 0, 73, 0
3, 267860, Note_on_c, 0, 73, 52
3, 268105, Note_on_c, 0, 73, 0
3, 268340, Note_on_c, 0, 73, 52
3, 268585, Note_on_c, 0, 73, 0
3, 268820, Note_on_c, 0, 73, 57
3, 269100, Note_on_c, 0, 73, 0
3, 269780, Note_on_c, 0, 73, 52
3, 270985, Note_on_c, 0, 73, 0
3, 271220, Note_on_c, 0, 73, 52
3, 271465, Note_on_c, 0, 73, 0
3, 271700, Note_on_c, 0, 73, 52
3, 271945, Note_on_c, 0, 73, 0
3, 272180, Note_on_c, 0, 73, 52
3, 272425, Note_on_c, 0, 73, 0
3, 272660, Note_on_c, 0, 78, 58
3, 272905, Note_on_c, 0, 78, 0
3, 273140, Note_on_c, 0, 78, 54
3, 273385, Note_on_c, 0, 78, 0
3, 273620, Note_on_c, 0, 78, 54
3, 273865, Note_on_c, 0, 78, 0
3, 274100, Note_on_c, 0, 78, 55
3, 274345, Note_on_c, 0, 78, 0
3, 274580, Note_on_c, 0, 78, 61
3, 274825, Note_on_c, 0, 78, 0
3, 275060, Note_on_c, 0, 78, 57
3, 275305, Note_on_c, 0, 78, 0
3, 275540, Note_on_c, 0, 78, 57
3, 275785, Note_on_c, 0, 78, 0
3, 276020, Note_on_c, 0, 78, 58
3, 276265, Note_on_c, 0, 78, 0
3, 276540, Note_on_c, 0, 78, 57
3, 276540, Note_on_c, 0, 80, 64
3, 276820, Note_on_c, 0, 80, 0
3, 276820, Note_on_c, 0, 78, 0
3, 278420, Note_on_c, 0, 80, 69
3, 278420, Note_on_c, 0, 83, 80
3, 278700, Note_on_c, 0, 83, 0
3, 278700, Note_on_c, 0, 80, 0
3, 280340, Note_on_c, 0, 82, 60
3, 280340, Note_on_c, 0, 85, 67
3, 280620, Note_on_c, 0, 85, 0
3, 280620, Note_on_c, 0, 82, 0
3, 281300, Note_on_c, 0, 82, 55
3, 281300, Note_on_c, 0, 85, 62
3, 282505, Note_on_c, 0, 85, 0
3, 282505, Note_on_c, 0, 82, 0
3, 282740, Note_on_c, 0, 82, 55
3, 282740, Note_on_c, 0, 85, 62
3, 282985, Note_on_c, 0, 85, 0
3, 282985, Note_on_c, 0, 82, 0
3, 283220, Note_on_c, 0, 82, 55
3, 283220, Note_on_c, 0, 85, 62
3, 283465, Note_on_c, 0, 85, 0
3, 283465, Note_on_c, 0, 82, 0
3, 283700, Note_on_c, 0, 82, 55
3, 283700, Note_on_c, 0, 85, 62
3, 283945, Note_on_c, 0, 85, 0
3, 283945, Note_on_c, 0, 82, 0
3, 284180, Note_on_c, 0, 82, 55
3, 284180, Note_on_c, 0, 85, 62
3, 284460, Note_on_c, 0, 85, 0
3, 284460, Note_on_c, 0, 82, 0
3, 285140, Note_on_c, 0, 82, 50
3, 285140, Note_on_c, 0, 85, 57
3, 286345, Note_on_c, 0, 85, 0
3, 286345, Note_on_c, 0, 82, 0
3, 286580, Note_on_c, 0, 82, 50
3, 286580, Note_on_c, 0, 85, 57
3, 286825, Note_on_c, 0, 85, 0
3, 286825, Note_on_c, 0, 82, 0
3, 287060, Note_on_c, 0, 82, 50
3, 287060, Note_on_c, 0, 85, 57
3, 287305, Note_on_c, 0, 85, 0
3, 287305, Note_on_c, 0, 82, 0
3, 287540, Note_on_c, 0, 82, 50
3, 287540, Note_on_c, 0, 85, 57
3, 287785, Note_on_c, 0, 85, 0
3, 287785, Note_on_c, 0, 82, 0
3, 288020, Note_on_c, 0, 82, 55
3, 288020, Note_on_c, 0, 85, 62
3, 288265, Note_on_c, 0, 85, 0
3, 288265, Note_on_c, 0, 82, 0
3, 288500, Note_on_c, 0, 82, 50
3, 288500, Note_on_c, 0, 85, 57
3, 288745, Note_on_c, 0, 85, 0
3, 288780, Note_on_c, 0, 82, 0
3, 289460, Note_on_c, 0, 85, 57
3, 289705, Note_on_c, 0, 85, 0
3, 289940, Note_on_c, 0, 85, 62
3, 290185, Note_on_c, 0, 85, 0
3, 290420, Note_on_c, 0, 85, 57
3, 290665, Note_on_c, 0, 85, 0
3, 290900, Note_on_c, 0, 85, 57
3, 291145, Note_on_c, 0, 85, 0
3, 291380, Note_on_c, 0, 85, 57
3, 291660, Note_on_c, 0, 85, 0
3, 291860, Note_on_c, 0, 84, 67
3, 291860, Note_on_c, 0, 84, 67
3, 291860, Note_on_c, 0, 87, 72
3, 291860, Note_on_c, 0, 87, 72
3, 292140, Note_on_c, 0, 87, 0
3, 292140, Note_on_c, 0, 84, 0
3, 292140, Note_on_c, 0, 84, 0
3, 292140, Note_on_c, 0, 87, 0
3, 292820, Note_on_c, 0, 84, 58
3, 292820, Note_on_c, 0, 87, 63
3, 294060, Note_on_c, 0, 87, 0
3, 294060, Note_on_c, 0, 84, 0
3, 321120, Note_on_c, 0, 59, 52
3, 321120, Note_on_c, 0, 65, 57
3, 322560, Note_on_c, 0, 65, 0
3, 322560, Note_on_c, 0, 59, 0
3, 323040, Note_on_c, 0, 58, 31
3, 323040, Note_on_c, 0, 66, 28
3, 323520, Note_on_c, 0, 66, 0
3, 323520, Note_on_c, 0, 58, 0
3, 323520, Note_on_c, 0, 61, 35
3, 323520, Note_on_c, 0, 70, 29
3, 324000, Note_on_c, 0, 70, 0
3, 324000, Note_on_c, 0, 61, 0
3, 324000, Note_on_c, 0, 58, 32
3, 324000, Note_on_c, 0, 66, 37
3, 324480, Note_on_c, 0, 66, 0
3, 324480, Note_on_c, 0, 58, 0
3, 324480, Note_on_c, 0, 49, 42
3, 324960, Note_on_c, 0, 49, 0
3, 326880, Note_on_c, 0, 58, 37
3, 326880, Note_on_c, 0, 66, 33
3, 327360, Note_on_c, 0, 66, 0
3, 327360, Note_on_c, 0, 58, 0
3, 327360, Note_on_c, 0, 61, 33
3, 327360, Note_on_c, 0, 70, 30
3, 327840, Note_on_c, 0, 70, 0
3, 327840, Note_on_c, 0, 61, 0
3, 327840, Note_on_c, 0, 58, 35
3, 327840, Note_on_c, 0, 66, 39
3, 328320, Note_on_c, 0, 66, 0
3, 328320, Note_on_c, 0, 58, 0
3, 328320, Note_on_c, 0, 49, 49
3, 328800, Note_on_c, 0, 49, 0
3, 330720, Note_on_c, 0, 58, 35
3, 330720, Note_on_c, 0, 64, 43
3, 331200, Note_on_c, 0, 64, 0
3, 331200, Note_on_c, 0, 58, 0
3, 331200, Note_on_c, 0, 61, 34
3, 331200, Note_on_c, 0, 67, 42
3, 331680, Note_on_c, 0, 67, 0
3, 331680, Note_on_c, 0, 61, 0
3, 331680, Note_on_c, 0, 58, 38
3, 331680, Note_on_c, 0, 64, 37
3, 332160, Note_on_c, 0, 64, 0
3, 332160, Note_on_c, 0, 58, 0
3, 332160, Note_on_c, 0, 51, 47
3, 332640, Note_on_c, 0, 51, 0
3, 334560, Note_on_c, 0, 59, 47
3, 334560, Note_on_c, 0, 68, 47
3, 335040, Note_on_c, 0, 68, 0
3, 335040, Note_on_c, 0, 59, 0
3, 335040, Note_on_c, 0, 63, 53
3, 335040, Note_on_c, 0, 71, 46
3, 335520, Note_on_c, 0, 71, 0
3, 335520, Note_on_c, 0, 63, 0
3, 338640, Note_on_c, 0, 73, 30
3, 338760, Note_on_c, 0, 75, 24
3, 338808, Note_on_c, 0, 73, 0
3, 338880, Note_on_c, 0, 73, 33
3, 338928, Note_on_c, 0, 75, 0
3, 339000, Note_on_c, 0, 75, 26
3, 339048, Note_on_c, 0, 73, 0
3, 339120, Note_on_c, 0, 73, 35
3, 339168, Note_on_c, 0, 75, 0
3, 339240, Note_on_c, 0, 75, 29
3, 339288, Note_on_c, 0, 73, 0
3, 339360, Note_on_c, 0, 73, 38
3, 339408, Note_on_c, 0, 75, 0
3, 339480, Note_on_c, 0, 75, 31
3, 339528, Note_on_c, 0, 73, 0
3, 339600, Note_on_c, 0, 73, 40
3, 339648, Note_on_c, 0, 75, 0
3, 339720, Note_on_c, 0, 75, 33
3, 339768, Note_on_c, 0, 73, 0
3, 339840, Note_on_c, 0, 73, 43
3, 339888, Note_on_c, 0, 75, 0
3, 339960, Note_on_c, 0, 75, 36
3, 340008, Note_on_c, 0, 73, 0
3, 340080, Note_on_c, 0, 73, 45
3, 340128, Note_on_c, 0, 75, 0
3, 340200, Note_on_c, 0, 75, 38
3, 340248, Note_on_c, 0, 73, 0
3, 340320, Note_on_c, 0, 73, 47
3, 340368, Note_on_c, 0, 75, 0
3, 340440, Note_on_c, 0, 75, 41
3, 340488, Note_on_c, 0, 73, 0
3, 340560, Note_on_c, 0, 73, 50
3, 340608, Note_on_c, 0, 75, 0
3, 340680, Note_on_c, 0, 75, 43
3, 340728, Note_on_c, 0, 73, 0
3, 340800, Note_on_c, 0, 73, 52
3, 340848, Note_on_c, 0, 75, 0
3, 340920, Note_on_c, 0, 75, 46
3, 340968, Note_on_c, 0, 73, 0
3, 341040, Note_on_c, 0, 73, 55
3, 341088, Note_on_c, 0, 75, 0
3, 341160, Note_on_c, 0, 75, 48
3, 341208, Note_on_c, 0, 73, 0
3, 341280, Note_on_c, 0, 73, 57
3, 341328, Note_on_c, 0, 75, 0
3, 341400, Note_on_c, 0, 75, 52
3, 341448, Note_on_c, 0, 73, 0
3, 341520, Note_on_c, 0, 72, 57
3, 341568, Note_on_c, 0, 75, 0
3, 341640, Note_on_c, 0, 73, 60
3, 341688, Note_on_c, 0, 72, 0
3, 341808, Note_on_c, 0, 73, 0
3, 342480, Note_on_c, 0, 61, 30
3, 342600, Note_on_c, 0, 63, 24
3, 342648, Note_on_c, 0, 61, 0
3, 342720, Note_on_c, 0, 61, 33
3, 342768, Note_on_c, 0, 63, 0
3, 342840, Note_on_c, 0, 63, 26
3, 342888, Note_on_c, 0, 61, 0
3, 342960, Note_on_c, 0, 61, 35
3, 343008, Note_on_c, 0, 63, 0
3, 343080, Note_on_c, 0, 63, 28
3, 343128, Note_on_c, 0, 61, 0
3, 343200, Note_on_c, 0, 61, 38
3, 343248, Note_on_c, 0, 63, 0
3, 343320, Note_on_c, 0, 63, 31
3, 343368, Note_on_c, 0, 61, 0
3, 343440, Note_on_c, 0, 61, 40
3, 343488, Note_on_c, 0, 63, 0
3, 343560, Note_on_c, 0, 63, 33
3, 343608, Note_on_c, 0, 61, 0
3, 343680, Note_on_c, 0, 61, 42
3, 343728, Note_on_c, 0, 63, 0
3, 343800, Note_on_c, 0, 63, 35
3, 343848, Note_on_c, 0, 61, 0
3, 343920, Note_on_c, 0, 61, 45
3, 343968, Note_on_c, 0, 63, 0
3, 344040, Note_on_c, 0, 63, 38
3, 344088, Note_on_c, 0, 61, 0
3, 344160, Note_on_c, 0, 61, 47
3, 344208, Note_on_c, 0, 63, 0
3, 344280, Note_on_c, 0, 63, 40
3, 344328, Note_on_c, 0, 61, 0
3, 344400, Note_on_c, 0, 61, 49
3, 344448, Note_on_c, 0, 63, 0
3, 344520, Note_on_c, 0, 63, 43
3, 344568, Note_on_c, 0, 61, 0
3, 344640, Note_on_c, 0, 61, 52
3, 344688, Note_on_c, 0, 63, 0
3, 344760, Note_on_c, 0, 63, 43
3, 344808, Note_on_c, 0, 61, 0
3, 344880, Note_on_c, 0, 61, 57
3, 344928, Note_on_c, 0, 63, 0
3, 345000, Note_on_c, 0, 63, 44
3, 345048, Note_on_c, 0, 61, 0
3, 345120, Note_on_c, 0, 61, 61
3, 345168, Note_on_c, 0, 63, 0
3, 345240, Note_on_c, 0, 63, 50
3, 345288, Note_on_c, 0, 61, 0
3, 345360, Note_on_c, 0, 60, 69
3, 345408, Note_on_c, 0, 63, 0
3, 345480, Note_on_c, 0, 61, 67
3, 345528, Note_on_c, 0, 60, 0
3, 345600, Note_on_c, 0, 61, 0
3, 345600, End_track
4, 0, Start_track
4, 0, Title_t, "Piano LH"
4, 0, Program_c, 0, 0
4, 0, Control_c, 0, 7, 105
4, 0, Control_c, 0, 10, 54
4, 0, Control_c, 0, 91, 100
4, 3840, Note_on_c, 0, 42, 48
4, 3880, Control_c, 0, 64, 127
4, 4320, Note_on_c, 0, 49, 46
4, 4510, Note_on_c, 0, 42, 0
4, 4800, Note_on_c, 0, 58, 52
4, 4990, Note_on_c, 0, 49, 0
4, 5280, Note_on_c, 0, 49, 44
4, 5470, Note_on_c, 0, 58, 0
4, 5760, Note_on_c, 0, 37, 48
4, 5950, Note_on_c, 0, 49, 0
4, 6240, Note_on_c, 0, 37, 0
4, 6680, Control_c, 0, 64, 0
4, 7680, Note_on_c, 0, 42, 52
4, 7720, Control_c, 0, 64, 127
4, 8160, Note_on_c, 0, 49, 44
4, 8350, Note_on_c, 0, 42, 0
4, 8640, Note_on_c, 0, 58, 54
4, 8830, Note_on_c, 0, 49, 0
4, 9120, Note_on_c, 0, 49, 46
4, 9310, Note_on_c, 0, 58, 0
4, 9600, Note_on_c, 0, 37, 50
4, 9790, Note_on_c, 0, 49, 0
4, 10080, Note_on_c, 0, 37, 0
4, 10520, Control_c, 0, 64, 0
4, 11520, Note_on_c, 0, 46, 48
4, 11560, Control_c, 0, 64, 127
4, 12000, Note_on_c, 0, 49, 46
4, 12190, Note_on_c, 0, 46, 0
4, 12480, Note_on_c, 0, 61, 58
4, 12670, Note_on_c, 0, 49, 0
4, 12960, Note_on_c, 0, 49, 46
4, 13150, Note_on_c, 0, 61, 0
4, 13440, Note_on_c, 0, 37, 52
4, 13630, Note_on_c, 0, 49, 0
4, 13920, Note_on_c, 0, 37, 0
4, 14360, Control_c, 0, 64, 0
4, 15360, Note_on_c, 0, 44, 50
4, 15400, Control_c, 0, 64, 127
4, 15840, Note_on_c, 0, 49, 48
4, 16030, Note_on_c, 0, 44, 0
4, 16320, Note_on_c, 0, 61, 58
4, 16510, Note_on_c, 0, 49, 0
4, 16800, Note_on_c, 0, 49, 48
4, 16990, Note_on_c, 0, 61, 0
4, 17280, Note_on_c, 0, 37, 52
4, 17470, Note_on_c, 0, 49, 0
4, 17760, Note_on_c, 0, 37, 0
4, 18200, Control_c, 0, 64, 0
4, 19200, Note_on_c, 0, 59, 50
4, 19680, Note_on_c, 0, 61, 48
4, 20160, Note_on_c, 0, 65, 54
4, 20350, Note_on_c, 0, 61, 0
4, 20640, Note_on_c, 0, 61, 54
4, 20830, Note_on_c, 0, 65, 0
4, 21120, Note_on_c, 0, 65, 61
4, 21310, Note_on_c, 0, 61, 0
4, 22000, Note_on_c, 0, 63, 57
4, 22080, Note_on_c, 0, 65, 0
4, 22080, Note_on_c, 0, 66, 69
4, 22480, Note_on_c, 0, 63, 0
4, 22560, Note_on_c, 0, 66, 0
4, 23000, Note_on_c, 0, 59, 0
4, 23040, Note_on_c, 0, 59, 48
4, 23520, Note_on_c, 0, 61, 44
4, 24000, Note_on_c, 0, 65, 52
4, 24190, Note_on_c, 0, 61, 0
4, 24480, Note_on_c, 0, 61, 58
4, 24670, Note_on_c, 0, 65, 0
4, 24960, Note_on_c, 0, 65, 62
4, 25150, Note_on_c, 0, 61, 0
4, 25440, Note_on_c, 0, 65, 0
4, 25440, Note_on_c, 0, 59, 0
4, 25920, Note_on_c, 0, 58, 55
4, 25920, Note_on_c, 0, 61, 61
4, 26880, Note_on_c, 0, 61, 0
4, 26880, Note_on_c, 0, 58, 0
4, 26880, Note_on_c, 0, 51, 52
4, 26920, Control_c, 0, 64, 127
4, 27360, Note_on_c, 0, 66, 44
4, 27550, Note_on_c, 0, 51, 0
4, 27840, Note_on_c, 0, 56, 40
4, 27840, Note_on_c, 0, 60, 49
4, 28030, Note_on_c, 0, 66, 0
4, 28320, Note_on_c, 0, 66, 46
4, 28510, Note_on_c, 0, 60, 0
4, 28510, Note_on_c, 0, 56, 0
4, 28720, Control_c, 0, 64, 0
4, 28800, Note_on_c, 0, 66, 0
4, 28800, Note_on_c, 0, 51, 54
4, 28840, Control_c, 0, 64, 127
4, 29280, Note_on_c, 0, 66, 42
4, 29470, Note_on_c, 0, 51, 0
4, 29760, Note_on_c, 0, 58, 43
4, 29760, Note_on_c, 0, 61, 54
4, 29950, Note_on_c, 0, 66, 0
4, 30240, Note_on_c, 0, 66, 44
4, 30430, Note_on_c, 0, 61, 0
4, 30430, Note_on_c, 0, 58, 0
4, 30465, Note_on_c, 0, 51, 46
4, 30560, Note_on_c, 0, 56, 57
4, 30640, Note_on_c, 0, 60, 65
4, 30680, Note_on_c, 0, 66, 0
4, 30680, Control_c, 0, 64, 0
4, 30760, Control_c, 0, 64, 127
4, 30760, Note_on_c, 0, 66, 75
4, 31545, Note_on_c, 0, 51, 0
4, 31600, Note_on_c, 0, 56, 0
4, 31640, Note_on_c, 0, 60, 0
4, 31720, Note_on_c, 0, 66, 0
4, 32560, Control_c, 0, 64, 0
4, 32640, Note_on_c, 0, 37, 68
4, 32640, Note_on_c, 0, 49, 68
4, 32680, Control_c, 0, 64, 127
4, 33120, Note_on_c, 0, 49, 0
4, 33120, Note_on_c, 0, 37, 0
4, 34520, Control_c, 0, 64, 0
4, 34600, Control_c, 0, 64, 127
4, 35040, Note_on_c, 0, 61, 59
4, 35520, Note_on_c, 0, 70, 54
4, 35710, Note_on_c, 0, 61, 0
4, 36000, Note_on_c, 0, 61, 65
4, 36190, Note_on_c, 0, 70, 0
4, 36480, Note_on_c, 0, 49, 61
4, 36670, Note_on_c, 0, 61, 0
4, 37440, Note_on_c, 0, 49, 0
4, 37440, Note_on_c, 0, 30, 58
4, 37440, Note_on_c, 0, 42, 58
4, 38880, Note_on_c, 0, 61, 57
4, 39360, Note_on_c, 0, 70, 64
4, 39550, Note_on_c, 0, 61, 0
4, 39840, Note_on_c, 0, 61, 56
4, 40030, Note_on_c, 0, 70, 0
4, 40320, Note_on_c, 0, 30, 0
4, 40320, Note_on_c, 0, 54, 65
4, 40360, Note_on_c, 0, 42, 0
4, 40510, Note_on_c, 0, 61, 0
4, 41240, Control_c, 0, 64, 0
4, 41280, Note_on_c, 0, 54, 0
4, 42240, Note_on_c, 0, 34, 48
4, 42240, Note_on_c, 0, 46, 48
4, 42320, Control_c, 0, 64, 127
4, 42720, Note_on_c, 0, 66, 60
4, 43200, Note_on_c, 0, 73, 70
4, 43390, Note_on_c, 0, 66, 0
4, 43680, Note_on_c, 0, 70, 72
4, 43870, Note_on_c, 0, 73, 0
4, 44160, Note_on_c, 0, 34, 0
4, 44160, Note_on_c, 0, 46, 0
4, 44160, Note_on_c, 0, 68, 64
4, 44350, Note_on_c, 0, 70, 0
4, 44640, Note_on_c, 0, 66, 54
4, 44830, Note_on_c, 0, 68, 0
4, 45120, Note_on_c, 0, 65, 58
4, 45310, Note_on_c, 0, 66, 0
4, 45600, Note_on_c, 0, 63, 60
4, 45790, Note_on_c, 0, 65, 0
4, 46000, Control_c, 0, 64, 0
4, 46080, Note_on_c, 0, 63, 0
4, 46080, Note_on_c, 0, 57, 57
4, 46120, Control_c, 0, 64, 127
4, 46560, Note_on_c, 0, 63, 45
4, 46560, Note_on_c, 0, 65, 52
4, 46750, Note_on_c, 0, 57, 0
4, 47040, Note_on_c, 0, 72, 59
4, 47230, Note_on_c, 0, 65, 0
4, 47230, Note_on_c, 0, 63, 0
4, 47520, Note_on_c, 0, 63, 45
4, 47520, Note_on_c, 0, 65, 52
4, 47710, Note_on_c, 0, 72, 0
4, 48000, Note_on_c, 0, 53, 57
4, 48190, Note_on_c, 0, 65, 0
4, 48190, Note_on_c, 0, 63, 0
4, 48480, Note_on_c, 0, 53, 0
4, 49800, Control_c, 0, 64, 0
4, 49920, Note_on_c, 0, 34, 57
4, 49920, Note_on_c, 0, 46, 57
4, 49960, Control_c, 0, 64, 127
4, 50400, Note_on_c, 0, 53, 54
4, 50590, Note_on_c, 0, 46, 0
4, 50590, Note_on_c, 0, 34, 0
4, 50880, Note_on_c, 0, 61, 63
4, 51070, Note_on_c, 0, 53, 0
4, 51360, Note_on_c, 0, 53, 57
4, 51550, Note_on_c, 0, 61, 0
4, 51800, Control_c, 0, 64, 127
4, 51840, Note_on_c, 0, 53, 0
4, 51840, Note_on_c, 0, 59, 65
4, 52720, Control_c, 0, 64, 0
4, 52800, Note_on_c, 0, 49, 40
4, 53183, Note_on_c, 0, 59, 0
4, 53760, Note_on_c, 0, 49, 0
4, 53760, Note_on_c, 0, 30, 46
4, 53760, Note_on_c, 0, 42, 46
4, 53840, Control_c, 0, 64, 127
4, 54240, Note_on_c, 0, 54, 30
4, 54430, Note_on_c, 0, 42, 0
4, 54430, Note_on_c, 0, 30, 0
4, 54720, Note_on_c, 0, 58, 42
4, 54910, Note_on_c, 0, 54, 0
4, 55200, Note_on_c, 0, 54, 34
4, 55390, Note_on_c, 0, 58, 0
4, 55680, Note_on_c, 0, 54, 0
4, 55680, Note_on_c, 0, 47, 46
4, 55680, Note_on_c, 0, 59, 46
4, 56640, Note_on_c, 0, 46, 44
4, 57023, Note_on_c, 0, 59, 0
4, 57023, Note_on_c, 0, 47, 0
4, 57520, Control_c, 0, 64, 0
4, 57600, Note_on_c, 0, 46, 0
4, 57600, Note_on_c, 0, 44, 44
4, 57680, Control_c, 0, 64, 127
4, 58080, Note_on_c, 0, 51, 34
4, 58270, Note_on_c, 0, 44, 0
4, 58560, Note_on_c, 0, 59, 41
4, 58750, Note_on_c, 0, 51, 0
4, 59040, Note_on_c, 0, 51, 34
4, 59230, Note_on_c, 0, 59, 0
4, 59520, Note_on_c, 0, 51, 0
4, 59520, Note_on_c, 0, 49, 46
4, 60400, Control_c, 0, 64, 0
4, 60480, Note_on_c, 0, 37, 18
4, 60520, Control_c, 0, 64, 127
4, 60863, Note_on_c, 0, 49, 0
4, 61360, Control_c, 0, 64, 0
4, 61440, Note_on_c, 0, 37, 0
4, 61440, Note_on_c, 0, 30, 30
4, 61440, Note_on_c, 0, 42, 30
4, 61480, Control_c, 0, 64, 127
4, 61920, Note_on_c, 0, 49, 26
4, 62110, Note_on_c, 0, 42, 0
4, 62110, Note_on_c, 0, 30, 0
4, 62400, Note_on_c, 0, 58, 34
4, 62590, Note_on_c, 0, 49, 0
4, 62880, Note_on_c, 0, 49, 28
4, 63070, Note_on_c, 0, 58, 0
4, 63360, Note_on_c, 0, 42, 44
4, 63550, Note_on_c, 0, 49, 0
4, 63800, Control_c, 0, 64, 0
4, 63840, Note_on_c, 0, 42, 0
4, 65280, Note_on_c, 0, 34, 44
4, 65280, Note_on_c, 0, 46, 44
4, 65360, Control_c, 0, 64, 127
4, 66240, Note_on_c, 0, 58, 46
4, 66240, Note_on_c, 0, 65, 52
4, 66720, Note_on_c, 0, 53, 35
4, 66720, Note_on_c, 0, 61, 39
4, 66910, Note_on_c, 0, 65, 0
4, 66910, Note_on_c, 0, 58, 0
4, 67200, Note_on_c, 0, 34, 0
4, 67200, Note_on_c, 0, 46, 0
4, 67200, Note_on_c, 0, 58, 53
4, 67200, Note_on_c, 0, 66, 59
4, 67390, Note_on_c, 0, 61, 0
4, 67390, Note_on_c, 0, 53, 0
4, 68160, Note_on_c, 0, 54, 57
4, 68160, Note_on_c, 0, 61, 57
4, 68543, Note_on_c, 0, 58, 0
4, 68543, Note_on_c, 0, 66, 0
4, 69000, Control_c, 0, 64, 0
4, 69120, Note_on_c, 0, 54, 0
4, 69120, Note_on_c, 0, 61, 0
4, 69120, Note_on_c, 0, 34, 48
4, 69120, Note_on_c, 0, 46, 48
4, 69160, Control_c, 0, 64, 127
4, 70080, Note_on_c, 0, 58, 38
4, 70080, Note_on_c, 0, 65, 44
4, 70560, Note_on_c, 0, 53, 60
4, 70560, Note_on_c, 0, 61, 66
4, 70750, Note_on_c, 0, 65, 0
4, 70750, Note_on_c, 0, 58, 0
4, 71040, Note_on_c, 0, 34, 0
4, 71040, Note_on_c, 0, 46, 0
4, 71040, Note_on_c, 0, 58, 59
4, 71040, Note_on_c, 0, 66, 59
4, 71230, Note_on_c, 0, 61, 0
4, 71230, Note_on_c, 0, 53, 0
4, 71720, Control_c, 0, 64, 0
4, 72000, Note_on_c, 0, 54, 57
4, 72000, Note_on_c, 0, 61, 57
4, 72383, Note_on_c, 0, 58, 0
4, 72383, Note_on_c, 0, 66, 0
4, 72960, Note_on_c, 0, 54, 0
4, 72960, Note_on_c, 0, 61, 0
4, 72960, Note_on_c, 0, 34, 40
4, 72960, Note_on_c, 0, 46, 40
4, 73000, Control_c, 0, 64, 127
4, 73920, Note_on_c, 0, 58, 44
4, 73920, Note_on_c, 0, 65, 50
4, 74400, Note_on_c, 0, 53, 53
4, 74400, Note_on_c, 0, 61, 59
4, 74590, Note_on_c, 0, 65, 0
4, 74590, Note_on_c, 0, 58, 0
4, 74880, Note_on_c, 0, 34, 0
4, 74880, Note_on_c, 0, 46, 0
4, 74880, Note_on_c, 0, 58, 59
4, 74880, Note_on_c, 0, 65, 59
4, 75070, Note_on_c, 0, 61, 0
4, 75070, Note_on_c, 0, 53, 0
4, 75840, Note_on_c, 0, 53, 57
4, 75840, Note_on_c, 0, 61, 57
4, 76223, Note_on_c, 0, 58, 0
4, 76223, Note_on_c, 0, 65, 0
4, 76720, Control_c, 0, 64, 0
4, 76800, Note_on_c, 0, 53, 0
4, 76800, Note_on_c, 0, 61, 0
4, 76800, Note_on_c, 0, 37, 38
4, 76800, Note_on_c, 0, 44, 38
4, 76840, Control_c, 0, 64, 127
4, 77760, Note_on_c, 0, 56, 42
4, 77760, Note_on_c, 0, 65, 48
4, 78240, Note_on_c, 0, 53, 53
4, 78240, Note_on_c, 0, 61, 59
4, 78430, Note_on_c, 0, 65, 0
4, 78430, Note_on_c, 0, 56, 0
4, 78720, Note_on_c, 0, 37, 0
4, 78720, Note_on_c, 0, 44, 0
4, 78720, Note_on_c, 0, 56, 40
4, 78720, Note_on_c, 0, 65, 46
4, 78910, Note_on_c, 0, 61, 0
4, 78910, Note_on_c, 0, 53, 0
4, 79680, Note_on_c, 0, 53, 44
4, 79680, Note_on_c, 0, 61, 46
4, 79720, Control_c, 0, 64, 0
4, 80063, Note_on_c, 0, 56, 0
4, 80063, Note_on_c, 0, 65, 0
4, 80640, Note_on_c, 0, 53, 0
4, 80640, Note_on_c, 0, 61, 0
4, 80640, Note_on_c, 0, 37, 46
4, 80640, Note_on_c, 0, 46, 46
4, 80680, Control_c, 0, 64, 127
4, 81600, Note_on_c, 0, 58, 46
4, 81600, Note_on_c, 0, 65, 52
4, 82080, Note_on_c, 0, 53, 55
4, 82080, Note_on_c, 0, 61, 61
4, 82270, Note_on_c, 0, 65, 0
4, 82270, Note_on_c, 0, 58, 0
4, 82560, Note_on_c, 0, 37, 0
4, 82560, Note_on_c, 0, 46, 0
4, 82560, Note_on_c, 0, 58, 42
4, 82560, Note_on_c, 0, 65, 48
4, 82750, Note_on_c, 0, 61, 0
4, 82750, Note_on_c, 0, 53, 0
4, 83520, Note_on_c, 0, 56, 49
4, 83520, Note_on_c, 0, 61, 55
4, 83903, Note_on_c, 0, 58, 0
4, 83903, Note_on_c, 0, 65, 0
4, 84320, Control_c, 0, 64, 0
4, 84480, Note_on_c, 0, 56, 0
4, 84480, Note_on_c, 0, 61, 0
4, 84480, Note_on_c, 0, 37, 40
4, 84480, Note_on_c, 0, 46, 40
4, 84560, Control_c, 0, 64, 127
4, 85440, Note_on_c, 0, 58, 42
4, 85440, Note_on_c, 0, 65, 48
4, 85920, Note_on_c, 0, 53, 53
4, 85920, Note_on_c, 0, 61, 59
4, 86110, Note_on_c, 0, 65, 0
4, 86110, Note_on_c, 0, 58, 0
4, 86400, Note_on_c, 0, 37, 0
4, 86400, Note_on_c, 0, 46, 0
4, 86400, Note_on_c, 0, 58, 40
4, 86400, Note_on_c, 0, 65, 46
4, 86590, Note_on_c, 0, 61, 0
4, 86590, Note_on_c, 0, 53, 0
4, 87360, Note_on_c, 0, 56, 51
4, 87360, Note_on_c, 0, 61, 57
4, 87743, Note_on_c, 0, 58, 0
4, 87743, Note_on_c, 0, 65, 0
4, 88200, Note_on_c, 0, 51, 46
4, 88200, Control_c, 0, 64, 0
4, 88280, Note_on_c, 0, 58, 59
4, 88320, Note_on_c, 0, 56, 0
4, 88320, Note_on_c, 0, 61, 0
4, 88400, Note_on_c, 0, 66, 75
4, 88400, Control_c, 0, 64, 127
4, 89543, Note_on_c, 0, 51, 0
4, 89623, Note_on_c, 0, 58, 0
4, 89743, Note_on_c, 0, 66, 0
4, 92080, Control_c, 0, 64, 0
4, 92160, Note_on_c, 0, 48, 62
4, 92160, Note_on_c, 0, 53, 66
4, 92160, Note_on_c, 0, 57, 56
4, 92200, Control_c, 0, 64, 127
4, 93120, Note_on_c, 0, 57, 0
4, 93120, Note_on_c, 0, 53, 0
4, 93120, Note_on_c, 0, 48, 0
4, 93120, Note_on_c, 0, 29, 67
4, 93600, Note_on_c, 0, 29, 0
4, 95920, Control_c, 0, 64, 0
4, 96000, Note_on_c, 0, 34, 41
4, 96000, Note_on_c, 0, 46, 41
4, 96040, Control_c, 0, 64, 127
4, 96960, Note_on_c, 0, 58, 33
4, 96960, Note_on_c, 0, 65, 39
4, 97440, Note_on_c, 0, 53, 43
4, 97440, Note_on_c, 0, 61, 49
4, 97630, Note_on_c, 0, 65, 0
4, 97630, Note_on_c, 0, 58, 0
4, 97920, Note_on_c, 0, 34, 0
4, 97920, Note_on_c, 0, 46, 0
4, 97920, Note_on_c, 0, 58, 52
4, 97920, Note_on_c, 0, 66, 52
4, 98110, Note_on_c, 0, 61, 0
4, 98110, Note_on_c, 0, 53, 0
4, 98800, Control_c, 0, 64, 0
4, 98880, Note_on_c, 0, 54, 39
4, 98880, Note_on_c, 0, 61, 38
4, 99263, Note_on_c, 0, 58, 0
4, 99263, Note_on_c, 0, 66, 0
4, 99840, Note_on_c, 0, 54, 0
4, 99840, Note_on_c, 0, 61, 0
4, 99840, Note_on_c, 0, 34, 42
4, 99840, Note_on_c, 0, 46, 42
4, 99920, Control_c, 0, 64, 127
4, 100800, Note_on_c, 0, 58, 33
4, 100800, Note_on_c, 0, 65, 39
4, 101280, Note_on_c, 0, 53, 43
4, 101280, Note_on_c, 0, 61, 49
4, 101470, Note_on_c, 0, 65, 0
4, 101470, Note_on_c, 0, 58, 0
4, 101760, Note_on_c, 0, 34, 0
4, 101760, Note_on_c, 0, 46, 0
4, 101760, Note_on_c, 0, 58, 52
4, 101760, Note_on_c, 0, 66, 52
4, 101950, Note_on_c, 0, 61, 0
4, 101950, Note_on_c, 0, 53, 0
4, 102720, Note_on_c, 0, 54, 40
4, 102720, Note_on_c, 0, 61, 46
4, 103103, Note_on_c, 0, 58, 0
4, 103103, Note_on_c, 0, 66, 0
4, 103600, Control_c, 0, 64, 0
4, 103680, Note_on_c, 0, 54, 0
4, 103680, Note_on_c, 0, 61, 0
4, 103680, Note_on_c, 0, 37, 46
4, 103680, Note_on_c, 0, 49, 46
4, 103760, Control_c, 0, 64, 127
4, 104640, Note_on_c, 0, 59, 35
4, 104640, Note_on_c, 0, 65, 41
4, 105120, Note_on_c, 0, 53, 43
4, 105120, Note_on_c, 0, 61, 49
4, 105310, Note_on_c, 0, 65, 0
4, 105310, Note_on_c, 0, 59, 0
4, 105600, Note_on_c, 0, 37, 0
4, 105600, Note_on_c, 0, 49, 0
4, 105600, Note_on_c, 0, 59, 52
4, 105600, Note_on_c, 0, 65, 52
4, 105790, Note_on_c, 0, 61, 0
4, 105790, Note_on_c, 0, 53, 0
4, 106560, Note_on_c, 0, 53, 40
4, 106560, Note_on_c, 0, 61, 46
4, 106943, Note_on_c, 0, 59, 0
4, 106943, Note_on_c, 0, 65, 0
4, 107440, Control_c, 0, 64, 0
4, 107520, Note_on_c, 0, 53, 0
4, 107520, Note_on_c, 0, 61, 0
4, 107520, Note_on_c, 0, 30, 37
4, 107520, Note_on_c, 0, 42, 44
4, 107560, Control_c, 0, 64, 127
4, 108480, Note_on_c, 0, 58, 41
4, 108960, Note_on_c, 0, 49, 52
4, 109150, Note_on_c, 0, 58, 0
4, 109440, Note_on_c, 0, 30, 0
4, 109440, Note_on_c, 0, 42, 0
4, 109440, Note_on_c, 0, 58, 44
4, 109630, Note_on_c, 0, 49, 0
4, 109860, Note_on_c, 0, 58, 0
4, 110400, Note_on_c, 0, 49, 51
4, 111280, Control_c, 0, 64, 0
4, 111360, Note_on_c, 0, 49, 0
4, 111360, Note_on_c, 0, 39, 51
4, 112320, Note_on_c, 0, 39, 0
4, 112320, Note_on_c, 0, 54, 50
4, 112800, Note_on_c, 0, 51, 54
4, 112990, Note_on_c, 0, 54, 0
4, 113280, Note_on_c, 0, 54, 57
4, 113470, Note_on_c, 0, 51, 0
4, 114240, Note_on_c, 0, 51, 55
4, 114623, Note_on_c, 0, 54, 0
4, 115200, Note_on_c, 0, 51, 0
4, 115200, Note_on_c, 0, 55, 43
4, 115680, Note_on_c, 0, 52, 30
4, 115870, Note_on_c, 0, 55, 0
4, 116160, Note_on_c, 0, 55, 38
4, 116350, Note_on_c, 0, 52, 0
4, 116640, Note_on_c, 0, 52, 30
4, 116830, Note_on_c, 0, 55, 0
4, 117120, Note_on_c, 0, 55, 50
4, 117310, Note_on_c, 0, 52, 0
4, 118080, Note_on_c, 0, 55, 0
4, 118080, Note_on_c, 0, 53, 37
4, 118080, Note_on_c, 0, 57, 43
4, 119025, Note_on_c, 0, 53, 0
4, 119040, Note_on_c, 0, 57, 0
4, 119040, Note_on_c, 0, 46, 34
4, 119040, Note_on_c, 0, 53, 34
4, 119040, Note_on_c, 0, 58, 40
4, 120000, Note_on_c, 0, 58, 0
4, 120000, Note_on_c, 0, 53, 0
4, 120000, Note_on_c, 0, 46, 0
4, 120000, Note_on_c, 0, 54, 26
4, 120000, Note_on_c, 0, 57, 32
4, 120960, Note_on_c, 0, 57, 0
4, 120960, Note_on_c, 0, 54, 0
4, 120960, Note_on_c, 0, 46, 44
4, 120960, Note_on_c, 0, 53, 44
4, 120960, Note_on_c, 0, 58, 44
4, 121920, Note_on_c, 0, 58, 0
4, 121920, Note_on_c, 0, 53, 0
4, 121920, Note_on_c, 0, 46, 0
4, 121920, Note_on_c, 0, 54, 44
4, 121920, Note_on_c, 0, 57, 44
4, 122880, Note_on_c, 0, 57, 0
4, 122880, Note_on_c, 0, 54, 0
4, 122880, Note_on_c, 0, 46, 38
4, 122880, Note_on_c, 0, 53, 38
4, 122880, Note_on_c, 0, 58, 44
4, 123840, Note_on_c, 0, 58, 0
4, 123840, Note_on_c, 0, 53, 0
4, 123840, Note_on_c, 0, 46, 0
4, 124600, Note_on_c, 0, 44, 40
4, 124720, Note_on_c, 0, 53, 50
4, 124720, Control_c, 0, 64, 127
4, 124840, Note_on_c, 0, 59, 59
4, 125760, Note_on_c, 0, 53, 0
4, 125800, Note_on_c, 0, 59, 0
4, 125800, Note_on_c, 0, 44, 0
4, 126720, Note_on_c, 0, 42, 35
4, 126760, Control_c, 0, 64, 127
4, 127200, Note_on_c, 0, 49, 33
4, 127390, Note_on_c, 0, 42, 0
4, 127680, Note_on_c, 0, 58, 46
4, 127870, Note_on_c, 0, 49, 0
4, 128160, Note_on_c, 0, 49, 31
4, 128350, Note_on_c, 0, 58, 0
4, 128640, Note_on_c, 0, 37, 48
4, 128830, Note_on_c, 0, 49, 0
4, 129120, Note_on_c, 0, 37, 0
4, 129560, Control_c, 0, 64, 0
4, 130560, Note_on_c, 0, 42, 45
4, 130600, Control_c, 0, 64, 127
4, 131040, Note_on_c, 0, 49, 37
4, 131230, Note_on_c, 0, 42, 0
4, 131520, Note_on_c, 0, 58, 47
4, 131710, Note_on_c, 0, 49, 0
4, 132000, Note_on_c, 0, 49, 39
4, 132190, Note_on_c, 0, 58, 0
4, 132480, Note_on_c, 0, 37, 52
4, 132670, Note_on_c, 0, 49, 0
4, 132960, Note_on_c, 0, 37, 0
4, 133400, Control_c, 0, 64, 0
4, 134400, Note_on_c, 0, 46, 41
4, 134440, Control_c, 0, 64, 127
4, 134880, Note_on_c, 0, 49, 39
4, 135070, Note_on_c, 0, 46, 0
4, 135360, Note_on_c, 0, 61, 51
4, 135550, Note_on_c, 0, 49, 0
4, 135840, Note_on_c, 0, 49, 39
4, 136030, Note_on_c, 0, 61, 0
4, 136320, Note_on_c, 0, 37, 50
4, 136510, Note_on_c, 0, 49, 0
4, 136800, Note_on_c, 0, 37, 0
4, 137240, Control_c, 0, 64, 0
4, 138240, Note_on_c, 0, 44, 50
4, 138280, Control_c, 0, 64, 127
4, 138720, Note_on_c, 0, 49, 41
4, 138910, Note_on_c, 0, 44, 0
4, 139200, Note_on_c, 0, 61, 57
4, 139390, Note_on_c, 0, 49, 0
4, 139680, Note_on_c, 0, 49, 41
4, 139870, Note_on_c, 0, 61, 0
4, 140160, Note_on_c, 0, 37, 52
4, 140350, Note_on_c, 0, 49, 0
4, 140640, Note_on_c, 0, 37, 0
4, 141080, Control_c, 0, 64, 0
4, 142080, Note_on_c, 0, 59, 43
4, 142560, Note_on_c, 0, 61, 41
4, 143040, Note_on_c, 0, 65, 47
4, 143230, Note_on_c, 0, 61, 0
4, 143520, Note_on_c, 0, 61, 47
4, 143710, Note_on_c, 0, 65, 0
4, 144000, Note_on_c, 0, 65, 54
4, 144190, Note_on_c, 0, 61, 0
4, 144920, Note_on_c, 0, 63, 57
4, 144960, Note_on_c, 0, 65, 0
4, 144960, Note_on_c, 0, 66, 67
4, 145400, Note_on_c, 0, 63, 0
4, 145440, Note_on_c, 0, 66, 0
4, 145880, Note_on_c, 0, 59, 0
4, 145920, Note_on_c, 0, 59, 50
4, 146400, Note_on_c, 0, 61, 37
4, 146880, Note_on_c, 0, 65, 45
4, 147070, Note_on_c, 0, 61, 0
4, 147360, Note_on_c, 0, 61, 51
4, 147550, Note_on_c, 0, 65, 0
4, 147840, Note_on_c, 0, 65, 55
4, 148030, Note_on_c, 0, 61, 0
4, 148320, Note_on_c, 0, 65, 0
4, 148320, Note_on_c, 0, 59, 0
4, 148800, Note_on_c, 0, 58, 48
4, 148800, Note_on_c, 0, 61, 54
4, 149760, Note_on_c, 0, 61, 0
4, 149760, Note_on_c, 0, 58, 0
4, 149760, Note_on_c, 0, 51, 52
4, 149800, Control_c, 0, 64, 127
4, 150240, Note_on_c, 0, 66, 44
4, 150430, Note_on_c, 0, 51, 0
4, 150720, Note_on_c, 0, 56, 40
4, 150720, Note_on_c, 0, 60, 49
4, 150910, Note_on_c, 0, 66, 0
4, 151200, Note_on_c, 0, 66, 46
4, 151390, Note_on_c, 0, 60, 0
4, 151390, Note_on_c, 0, 56, 0
4, 151600, Control_c, 0, 64, 0
4, 151680, Note_on_c, 0, 66, 0
4, 151680, Note_on_c, 0, 51, 54
4, 151720, Control_c, 0, 64, 127
4, 152160, Note_on_c, 0, 66, 42
4, 152350, Note_on_c, 0, 51, 0
4, 152640, Note_on_c, 0, 58, 43
4, 152640, Note_on_c, 0, 61, 54
4, 152830, Note_on_c, 0, 66, 0
4, 153120, Note_on_c, 0, 66, 44
4, 153310, Note_on_c, 0, 61, 0
4, 153310, Note_on_c, 0, 58, 0
4, 153345, Note_on_c, 0, 51, 46
4, 153440, Note_on_c, 0, 56, 57
4, 153520, Note_on_c, 0, 60, 67
4, 153560, Note_on_c, 0, 66, 0
4, 153560, Control_c, 0, 64, 0
4, 153640, Control_c, 0, 64, 127
4, 153680, Note_on_c, 0, 66, 79
4, 154425, Note_on_c, 0, 51, 0
4, 154480, Note_on_c, 0, 56, 0
4, 154520, Note_on_c, 0, 60, 0
4, 154640, Note_on_c, 0, 66, 0
4, 155440, Control_c, 0, 64, 0
4, 155520, Note_on_c, 0, 37, 68
4, 155520, Note_on_c, 0, 49, 68
4, 155560, Control_c, 0, 64, 127
4, 156000, Note_on_c, 0, 49, 0
4, 156000, Note_on_c, 0, 37, 0
4, 157400, Control_c, 0, 64, 0
4, 157480, Control_c, 0, 64, 127
4, 157920, Note_on_c, 0, 61, 59
4, 158400, Note_on_c, 0, 70, 54
4, 158590, Note_on_c, 0, 61, 0
4, 158880, Note_on_c, 0, 61, 65
4, 159070, Note_on_c, 0, 70, 0
4, 159360, Note_on_c, 0, 49, 61
4, 159550, Note_on_c, 0, 61, 0
4, 160320, Note_on_c, 0, 49, 0
4, 160320, Note_on_c, 0, 30, 59
4, 160320, Note_on_c, 0, 42, 59
4, 161760, Note_on_c, 0, 61, 57
4, 162240, Note_on_c, 0, 70, 64
4, 162430, Note_on_c, 0, 61, 0
4, 162720, Note_on_c, 0, 61, 56
4, 162910, Note_on_c, 0, 70, 0
4, 163160, Control_c, 0, 64, 0
4, 163200, Note_on_c, 0, 30, 0
4, 163200, Note_on_c, 0, 54, 65
4, 163240, Note_on_c, 0, 42, 0
4, 163390, Note_on_c, 0, 61, 0
4, 164160, Note_on_c, 0, 54, 0
4, 165120, Note_on_c, 0, 34, 48
4, 165120, Note_on_c, 0, 46, 48
4, 165160, Control_c, 0, 64, 127
4, 165600, Note_on_c, 0, 66, 60
4, 166080, Note_on_c, 0, 73, 70
4, 166270, Note_on_c, 0, 66, 0
4, 166560, Note_on_c, 0, 70, 72
4, 166750, Note_on_c, 0, 73, 0
4, 167040, Note_on_c, 0, 34, 0
4, 167040, Note_on_c, 0, 46, 0
4, 167040, Note_on_c, 0, 68, 64
4, 167230, Note_on_c, 0, 70, 0
4, 167520, Note_on_c, 0, 66, 54
4, 167710, Note_on_c, 0, 68, 0
4, 168000, Note_on_c, 0, 65, 58
4, 168190, Note_on_c, 0, 66, 0
4, 168480, Note_on_c, 0, 63, 60
4, 168670, Note_on_c, 0, 65, 0
4, 168880, Control_c, 0, 64, 0
4, 168960, Note_on_c, 0, 63, 0
4, 168960, Note_on_c, 0, 57, 57
4, 169000, Control_c, 0, 64, 127
4, 169440, Note_on_c, 0, 63, 45
4, 169440, Note_on_c, 0, 65, 52
4, 169630, Note_on_c, 0, 57, 0
4, 169920, Note_on_c, 0, 72, 59
4, 170110, Note_on_c, 0, 65, 0
4, 170110, Note_on_c, 0, 63, 0
4, 170400, Note_on_c, 0, 63, 45
4, 170400, Note_on_c, 0, 65, 52
4, 170590, Note_on_c, 0, 72, 0
4, 170880, Note_on_c, 0, 53, 61
4, 171070, Note_on_c, 0, 65, 0
4, 171070, Note_on_c, 0, 63, 0
4, 171360, Note_on_c, 0, 53, 0
4, 172680, Control_c, 0, 64, 0
4, 172800, Note_on_c, 0, 34, 57
4, 172800, Note_on_c, 0, 46, 57
4, 172840, Control_c, 0, 64, 127
4, 173280, Note_on_c, 0, 53, 54
4, 173470, Note_on_c, 0, 46, 0
4, 173470, Note_on_c, 0, 34, 0
4, 173760, Note_on_c, 0, 61, 63
4, 173950, Note_on_c, 0, 53, 0
4, 174240, Note_on_c, 0, 53, 57
4, 174430, Note_on_c, 0, 61, 0
4, 174680, Control_c, 0, 64, 0
4, 174720, Note_on_c, 0, 53, 0
4, 174720, Note_on_c, 0, 59, 65
4, 175680, Note_on_c, 0, 49, 57
4, 176063, Note_on_c, 0, 59, 0
4, 176640, Note_on_c, 0, 49, 0
4, 176640, Note_on_c, 0, 30, 44
4, 176640, Note_on_c, 0, 42, 44
4, 176680, Control_c, 0, 64, 127
4, 177120, Note_on_c, 0, 54, 26
4, 177310, Note_on_c, 0, 42, 0
4, 177310, Note_on_c, 0, 30, 0
4, 177600, Note_on_c, 0, 58, 33
4, 177790, Note_on_c, 0, 54, 0
4, 178080, Note_on_c, 0, 54, 28
4, 178270, Note_on_c, 0, 58, 0
4, 178480, Control_c, 0, 64, 0
4, 178560, Note_on_c, 0, 54, 0
4, 178560, Note_on_c, 0, 47, 44
4, 178560, Note_on_c, 0, 59, 44
4, 179520, Note_on_c, 0, 46, 42
4, 179903, Note_on_c, 0, 59, 0
4, 179903, Note_on_c, 0, 47, 0
4, 180480, Note_on_c, 0, 46, 0
4, 180480, Note_on_c, 0, 44, 44
4, 180520, Control_c, 0, 64, 127
4, 180960, Note_on_c, 0, 51, 38
4, 181150, Note_on_c, 0, 44, 0
4, 181440, Note_on_c, 0, 59, 46
4, 181630, Note_on_c, 0, 51, 0
4, 181920, Note_on_c, 0, 51, 38
4, 182110, Note_on_c, 0, 59, 0
4, 182400, Note_on_c, 0, 51, 0
4, 182400, Note_on_c, 0, 49, 46
4, 183280, Control_c, 0, 64, 0
4, 183360, Note_on_c, 0, 37, 38
4, 183400, Control_c, 0, 64, 127
4, 183743, Note_on_c, 0, 49, 0
4, 184240, Control_c, 0, 64, 0
4, 184320, Note_on_c, 0, 37, 0
4, 184320, Note_on_c, 0, 30, 38
4, 184320, Note_on_c, 0, 42, 38
4, 184360, Control_c, 0, 64, 127
4, 184800, Note_on_c, 0, 49, 26
4, 184990, Note_on_c, 0, 42, 0
4, 184990, Note_on_c, 0, 30, 0
4, 185280, Note_on_c, 0, 58, 38
4, 185470, Note_on_c, 0, 49, 0
4, 185760, Note_on_c, 0, 49, 28
4, 185950, Note_on_c, 0, 58, 0
4, 186240, Note_on_c, 0, 42, 44
4, 186430, Note_on_c, 0, 49, 0
4, 186680, Control_c, 0, 64, 0
4, 186720, Note_on_c, 0, 42, 0
4, 188160, Note_on_c, 0, 34, 44
4, 188160, Note_on_c, 0, 46, 44
4, 188240, Control_c, 0, 64, 127
4, 189120, Note_on_c, 0, 58, 46
4, 189120, Note_on_c, 0, 65, 52
4, 189600, Note_on_c, 0, 53, 35
4, 189600, Note_on_c, 0, 61, 39
4, 189790, Note_on_c, 0, 65, 0
4, 189790, Note_on_c, 0, 58, 0
4, 190080, Note_on_c, 0, 34, 0
4, 190080, Note_on_c, 0, 46, 0
4, 190080, Note_on_c, 0, 58, 53
4, 190080, Note_on_c, 0, 66, 59
4, 190270, Note_on_c, 0, 61, 0
4, 190270, Note_on_c, 0, 53, 0
4, 191040, Note_on_c, 0, 54, 57
4, 191040, Note_on_c, 0, 61, 57
4, 191423, Note_on_c, 0, 58, 0
4, 191423, Note_on_c, 0, 66, 0
4, 191880, Control_c, 0, 64, 0
4, 192000, Note_on_c, 0, 54, 0
4, 192000, Note_on_c, 0, 61, 0
4, 192000, Note_on_c, 0, 34, 48
4, 192000, Note_on_c, 0, 46, 48
4, 192040, Control_c, 0, 64, 127
4, 192960, Note_on_c, 0, 58, 57
4, 192960, Note_on_c, 0, 65, 57
4, 193440, Note_on_c, 0, 53, 54
4, 193440, Note_on_c, 0, 61, 54
4, 193630, Note_on_c, 0, 65, 0
4, 193630, Note_on_c, 0, 58, 0
4, 193920, Note_on_c, 0, 34, 0
4, 193920, Note_on_c, 0, 46, 0
4, 193920, Note_on_c, 0, 58, 57
4, 193920, Note_on_c, 0, 66, 57
4, 194110, Note_on_c, 0, 61, 0
4, 194110, Note_on_c, 0, 53, 0
4, 194600, Control_c, 0, 64, 0
4, 194880, Note_on_c, 0, 54, 54
4, 194880, Note_on_c, 0, 61, 54
4, 195263, Note_on_c, 0, 58, 0
4, 195263, Note_on_c, 0, 66, 0
4, 195840, Note_on_c, 0, 54, 0
4, 195840, Note_on_c, 0, 61, 0
4, 195840, Note_on_c, 0, 34, 50
4, 195840, Note_on_c, 0, 46, 50
4, 195880, Control_c, 0, 64, 127
4, 196800, Note_on_c, 0, 58, 44
4, 196800, Note_on_c, 0, 65, 50
4, 197280, Note_on_c, 0, 53, 54
4, 197280, Note_on_c, 0, 61, 54
4, 197470, Note_on_c, 0, 65, 0
4, 197470, Note_on_c, 0, 58, 0
4, 197760, Note_on_c, 0, 34, 0
4, 197760, Note_on_c, 0, 46, 0
4, 197760, Note_on_c, 0, 58, 57
4, 197760, Note_on_c, 0, 65, 57
4, 197950, Note_on_c, 0, 61, 0
4, 197950, Note_on_c, 0, 53, 0
4, 198720, Note_on_c, 0, 53, 57
4, 198720, Note_on_c, 0, 61, 57
4, 199103, Note_on_c, 0, 58, 0
4, 199103, Note_on_c, 0, 65, 0
4, 199600, Control_c, 0, 64, 0
4, 199680, Note_on_c, 0, 53, 0
4, 199680, Note_on_c, 0, 61, 0
4, 199680, Note_on_c, 0, 37, 50
4, 199680, Note_on_c, 0, 44, 50
4, 199720, Control_c, 0, 64, 127
4, 200640, Note_on_c, 0, 56, 42
4, 200640, Note_on_c, 0, 65, 48
4, 201120, Note_on_c, 0, 53, 53
4, 201120, Note_on_c, 0, 61, 59
4, 201310, Note_on_c, 0, 65, 0
4, 201310, Note_on_c, 0, 56, 0
4, 201600, Note_on_c, 0, 37, 0
4, 201600, Note_on_c, 0, 44, 0
4, 201600, Note_on_c, 0, 56, 40
4, 201600, Note_on_c, 0, 65, 46
4, 201790, Note_on_c, 0, 61, 0
4, 201790, Note_on_c, 0, 53, 0
4, 202560, Note_on_c, 0, 53, 44
4, 202560, Note_on_c, 0, 61, 46
4, 202600, Control_c, 0, 64, 0
4, 202943, Note_on_c, 0, 56, 0
4, 202943, Note_on_c, 0, 65, 0
4, 203520, Note_on_c, 0, 53, 0
4, 203520, Note_on_c, 0, 61, 0
4, 203520, Note_on_c, 0, 37, 46
4, 203520, Note_on_c, 0, 46, 46
4, 203560, Control_c, 0, 64, 127
4, 204480, Note_on_c, 0, 58, 46
4, 204480, Note_on_c, 0, 65, 52
4, 204960, Note_on_c, 0, 53, 55
4, 204960, Note_on_c, 0, 61, 61
4, 205150, Note_on_c, 0, 65, 0
4, 205150, Note_on_c, 0, 58, 0
4, 205440, Note_on_c, 0, 37, 0
4, 205440, Note_on_c, 0, 46, 0
4, 205440, Note_on_c, 0, 58, 42
4, 205440, Note_on_c, 0, 65, 48
4, 205630, Note_on_c, 0, 61, 0
4, 205630, Note_on_c, 0, 53, 0
4, 206400, Note_on_c, 0, 56, 49
4, 206400, Note_on_c, 0, 61, 55
4, 206783, Note_on_c, 0, 58, 0
4, 206783, Note_on_c, 0, 65, 0
4, 207200, Control_c, 0, 64, 0
4, 207360, Note_on_c, 0, 56, 0
4, 207360, Note_on_c, 0, 61, 0
4, 207360, Note_on_c, 0, 37, 40
4, 207360, Note_on_c, 0, 46, 40
4, 207440, Control_c, 0, 64, 127
4, 208320, Note_on_c, 0, 58, 42
4, 208320, Note_on_c, 0, 65, 48
4, 208800, Note_on_c, 0, 53, 53
4, 208800, Note_on_c, 0, 61, 59
4, 208990, Note_on_c, 0, 65, 0
4, 208990, Note_on_c, 0, 58, 0
4, 209280, Note_on_c, 0, 37, 0
4, 209280, Note_on_c, 0, 46, 0
4, 209280, Note_on_c, 0, 58, 40
4, 209280, Note_on_c, 0, 65, 46
4, 209470, Note_on_c, 0, 61, 0
4, 209470, Note_on_c, 0, 53, 0
4, 210240, Note_on_c, 0, 56, 51
4, 210240, Note_on_c, 0, 61, 57
4, 210623, Note_on_c, 0, 58, 0
4, 210623, Note_on_c, 0, 65, 0
4, 211080, Control_c, 0, 64, 0
4, 211120, Note_on_c, 0, 51, 63
4, 211200, Note_on_c, 0, 56, 0
4, 211200, Note_on_c, 0, 61, 0
4, 211200, Note_on_c, 0, 58, 73
4, 211280, Note_on_c, 0, 66, 83
4, 211280, Control_c, 0, 64, 127
4, 212463, Note_on_c, 0, 51, 0
4, 212543, Note_on_c, 0, 58, 0
4, 212623, Note_on_c, 0, 66, 0
4, 214960, Control_c, 0, 64, 0
4, 215040, Note_on_c, 0, 48, 62
4, 215040, Note_on_c, 0, 53, 66
4, 215040, Note_on_c, 0, 57, 56
4, 215080, Control_c, 0, 64, 127
4, 216000, Note_on_c, 0, 57, 0
4, 216000, Note_on_c, 0, 53, 0
4, 216000, Note_on_c, 0, 48, 0
4, 216000, Note_on_c, 0, 29, 67
4, 216480, Note_on_c, 0, 29, 0
4, 218800, Control_c, 0, 64, 0
4, 218880, Note_on_c, 0, 34, 46
4, 218880, Note_on_c, 0, 46, 46
4, 218920, Control_c, 0, 64, 127
4, 219840, Note_on_c, 0, 58, 33
4, 219840, Note_on_c, 0, 65, 39
4, 220320, Note_on_c, 0, 53, 43
4, 220320, Note_on_c, 0, 61, 49
4, 220510, Note_on_c, 0, 65, 0
4, 220510, Note_on_c, 0, 58, 0
4, 220800, Note_on_c, 0, 34, 0
4, 220800, Note_on_c, 0, 46, 0
4, 220800, Note_on_c, 0, 58, 44
4, 220800, Note_on_c, 0, 66, 44
4, 220990, Note_on_c, 0, 61, 0
4, 220990, Note_on_c, 0, 53, 0
4, 221680, Control_c, 0, 64, 0
4, 221760, Note_on_c, 0, 54, 44
4, 221760, Note_on_c, 0, 61, 44
4, 222143, Note_on_c, 0, 58, 0
4, 222143, Note_on_c, 0, 66, 0
4, 222720, Note_on_c, 0, 54, 0
4, 222720, Note_on_c, 0, 61, 0
4, 222720, Note_on_c, 0, 34, 42
4, 222720, Note_on_c, 0, 46, 42
4, 222800, Control_c, 0, 64, 127
4, 223680, Note_on_c, 0, 58, 33
4, 223680, Note_on_c, 0, 65, 39
4, 224160, Note_on_c, 0, 53, 43
4, 224160, Note_on_c, 0, 61, 49
4, 224350, Note_on_c, 0, 65, 0
4, 224350, Note_on_c, 0, 58, 0
4, 224640, Note_on_c, 0, 34, 0
4, 224640, Note_on_c, 0, 46, 0
4, 224640, Note_on_c, 0, 58, 52
4, 224640, Note_on_c, 0, 66, 52
4, 224830, Note_on_c, 0, 61, 0
4, 224830, Note_on_c, 0, 53, 0
4, 225600, Note_on_c, 0, 54, 40
4, 225600, Note_on_c, 0, 61, 46
4, 225983, Note_on_c, 0, 58, 0
4, 225983, Note_on_c, 0, 66, 0
4, 226480, Control_c, 0, 64, 0
4, 226560, Note_on_c, 0, 54, 0
4, 226560, Note_on_c, 0, 61, 0
4, 226560, Note_on_c, 0, 37, 46
4, 226560, Note_on_c, 0, 49, 46
4, 226640, Control_c, 0, 64, 127
4, 227520, Note_on_c, 0, 59, 35
4, 227520, Note_on_c, 0, 65, 41
4, 228000, Note_on_c, 0, 53, 43
4, 228000, Note_on_c, 0, 61, 49
4, 228190, Note_on_c, 0, 65, 0
4, 228190, Note_on_c, 0, 59, 0
4, 228480, Note_on_c, 0, 37, 0
4, 228480, Note_on_c, 0, 49, 0
4, 228480, Note_on_c, 0, 59, 52
4, 228480, Note_on_c, 0, 65, 52
4, 228670, Note_on_c, 0, 61, 0
4, 228670, Note_on_c, 0, 53, 0
4, 229440, Note_on_c, 0, 53, 40
4, 229440, Note_on_c, 0, 61, 46
4, 229823, Note_on_c, 0, 59, 0
4, 229823, Note_on_c, 0, 65, 0
4, 230320, Control_c, 0, 64, 0
4, 230400, Note_on_c, 0, 53, 0
4, 230400, Note_on_c, 0, 61, 0
4, 230400, Note_on_c, 0, 30, 50
4, 230400, Note_on_c, 0, 42, 50
4, 230440, Control_c, 0, 64, 127
4, 231360, Note_on_c, 0, 58, 41
4, 231840, Note_on_c, 0, 49, 52
4, 232030, Note_on_c, 0, 58, 0
4, 232320, Note_on_c, 0, 30, 0
4, 232320, Note_on_c, 0, 42, 0
4, 232320, Note_on_c, 0, 58, 52
4, 232510, Note_on_c, 0, 49, 0
4, 232740, Note_on_c, 0, 58, 0
4, 233220, Control_c, 0, 64, 0
4, 233280, Note_on_c, 0, 49, 51
4, 234240, Note_on_c, 0, 49, 0
4, 234240, Note_on_c, 0, 39, 51
4, 235200, Note_on_c, 0, 39, 0
4, 235200, Note_on_c, 0, 54, 50
4, 235680, Note_on_c, 0, 51, 54
4, 235870, Note_on_c, 0, 54, 0
4, 236160, Note_on_c, 0, 54, 54
4, 236350, Note_on_c, 0, 51, 0
4, 237120, Note_on_c, 0, 51, 55
4, 237503, Note_on_c, 0, 54, 0
4, 238080, Note_on_c, 0, 51, 0
4, 238080, Note_on_c, 0, 55, 43
4, 238560, Note_on_c, 0, 52, 30
4, 238750, Note_on_c, 0, 55, 0
4, 239040, Note_on_c, 0, 55, 38
4, 239230, Note_on_c, 0, 52, 0
4, 239520, Note_on_c, 0, 52, 30
4, 239710, Note_on_c, 0, 55, 0
4, 240000, Note_on_c, 0, 55, 38
4, 240190, Note_on_c, 0, 52, 0
4, 240960, Note_on_c, 0, 55, 0
4, 240960, Note_on_c, 0, 53, 37
4, 240960, Note_on_c, 0, 57, 43
4, 241905, Note_on_c, 0, 53, 0
4, 241920, Note_on_c, 0, 57, 0
4, 241920, Note_on_c, 0, 46, 50
4, 241920, Note_on_c, 0, 53, 50
4, 241920, Note_on_c, 0, 58, 50
4, 242880, Note_on_c, 0, 58, 0
4, 242880, Note_on_c, 0, 53, 0
4, 242880, Note_on_c, 0, 46, 0
4, 242880, Note_on_c, 0, 54, 26
4, 242880, Note_on_c, 0, 57, 32
4, 243840, Note_on_c, 0, 57, 0
4, 243840, Note_on_c, 0, 54, 0
4, 243840, Note_on_c, 0, 46, 52
4, 243840, Note_on_c, 0, 53, 52
4, 243840, Note_on_c, 0, 58, 52
4, 244800, Note_on_c, 0, 58, 0
4, 244800, Note_on_c, 0, 53, 0
4, 244800, Note_on_c, 0, 46, 0
4, 244800, Note_on_c, 0, 54, 30
4, 244800, Note_on_c, 0, 57, 36
4, 245760, Note_on_c, 0, 57, 0
4, 245760, Note_on_c, 0, 54, 0
4, 245760, Note_on_c, 0, 46, 50
4, 245760, Note_on_c, 0, 53, 50
4, 245760, Note_on_c, 0, 58, 50
4, 246720, Note_on_c, 0, 58, 0
4, 246720, Note_on_c, 0, 53, 0
4, 246720, Note_on_c, 0, 46, 0
4, 247520, Note_on_c, 0, 44, 36
4, 247600, Control_c, 0, 64, 127
4, 247640, Note_on_c, 0, 53, 44
4, 247760, Note_on_c, 0, 59, 54
4, 248480, Note_on_c, 0, 44, 0
4, 248600, Note_on_c, 0, 53, 0
4, 248720, Note_on_c, 0, 59, 0
4, 249600, Note_on_c, 0, 42, 48
4, 249640, Control_c, 0, 64, 127
4, 250080, Note_on_c, 0, 49, 46
4, 250270, Note_on_c, 0, 42, 0
4, 250560, Note_on_c, 0, 58, 52
4, 250750, Note_on_c, 0, 49, 0
4, 251040, Note_on_c, 0, 49, 44
4, 251230, Note_on_c, 0, 58, 0
4, 251520, Note_on_c, 0, 37, 54
4, 251710, Note_on_c, 0, 49, 0
4, 252000, Note_on_c, 0, 37, 0
4, 252440, Control_c, 0, 64, 0
4, 253440, Note_on_c, 0, 42, 52
4, 253480, Control_c, 0, 64, 127
4, 253920, Note_on_c, 0, 49, 44
4, 254110, Note_on_c, 0, 42, 0
4, 254400, Note_on_c, 0, 58, 54
4, 254590, Note_on_c, 0, 49, 0
4, 254880, Note_on_c, 0, 49, 46
4, 255070, Note_on_c, 0, 58, 0
4, 255360, Note_on_c, 0, 37, 61
4, 255550, Note_on_c, 0, 49, 0
4, 255840, Note_on_c, 0, 37, 0
4, 256280, Control_c, 0, 64, 0
4, 257280, Note_on_c, 0, 46, 48
4, 257320, Control_c, 0, 64, 127
4, 257760, Note_on_c, 0, 49, 46
4, 257950, Note_on_c, 0, 46, 0
4, 258240, Note_on_c, 0, 61, 58
4, 258430, Note_on_c, 0, 49, 0
4, 258720, Note_on_c, 0, 49, 46
4, 258910, Note_on_c, 0, 61, 0
4, 259200, Note_on_c, 0, 37, 59
4, 259390, Note_on_c, 0, 49, 0
4, 259680, Note_on_c, 0, 37, 0
4, 260120, Control_c, 0, 64, 0
4, 261120, Note_on_c, 0, 44, 50
4, 261160, Control_c, 0, 64, 127
4, 261600, Note_on_c, 0, 49, 48
4, 261790, Note_on_c, 0, 44, 0
4, 262080, Note_on_c, 0, 61, 58
4, 262270, Note_on_c, 0, 49, 0
4, 262560, Note_on_c, 0, 49, 48
4, 262750, Note_on_c, 0, 61, 0
4, 263040, Note_on_c, 0, 37, 61
4, 263230, Note_on_c, 0, 49, 0
4, 263520, Note_on_c, 0, 37, 0
4, 263960, Control_c, 0, 64, 0
4, 264960, Note_on_c, 0, 59, 50
4, 265440, Note_on_c, 0, 61, 48
4, 265920, Note_on_c, 0, 65, 54
4, 266110, Note_on_c, 0, 61, 0
4, 266400, Note_on_c, 0, 61, 54
4, 266590, Note_on_c, 0, 65, 0
4, 266880, Note_on_c, 0, 65, 61
4, 267070, Note_on_c, 0, 61, 0
4, 267800, Note_on_c, 0, 63, 57
4, 267840, Note_on_c, 0, 65, 0
4, 267840, Note_on_c, 0, 66, 69
4, 268280, Note_on_c, 0, 63, 0
4, 268320, Note_on_c, 0, 66, 0
4, 268760, Note_on_c, 0, 59, 0
4, 268800, Note_on_c, 0, 59, 48
4, 269280, Note_on_c, 0, 61, 44
4, 269760, Note_on_c, 0, 65, 52
4, 269950, Note_on_c, 0, 61, 0
4, 270240, Note_on_c, 0, 61, 58
4, 270430, Note_on_c, 0, 65, 0
4, 270720, Note_on_c, 0, 65, 62
4, 270910, Note_on_c, 0, 61, 0
4, 271200, Note_on_c, 0, 65, 0
4, 271200, Note_on_c, 0, 59, 0
4, 271680, Note_on_c, 0, 58, 55
4, 271680, Note_on_c, 0, 61, 61
4, 272640, Note_on_c, 0, 61, 0
4, 272640, Note_on_c, 0, 58, 0
4, 272640, Note_on_c, 0, 51, 52
4, 272680, Control_c, 0, 64, 71
4, 273120, Note_on_c, 0, 66, 44
4, 273310, Note_on_c, 0, 51, 0
4, 273600, Note_on_c, 0, 56, 40
4, 273600, Note_on_c, 0, 60, 49
4, 273790, Note_on_c, 0, 66, 0
4, 274080, Note_on_c, 0, 66, 46
4, 274270, Note_on_c, 0, 60, 0
4, 274270, Note_on_c, 0, 56, 0
4, 274480, Control_c, 0, 64, 74
4, 274560, Note_on_c, 0, 66, 0
4, 274560, Note_on_c, 0, 51, 54
4, 274600, Control_c, 0, 64, 74
4, 275040, Note_on_c, 0, 66, 42
4, 275230, Note_on_c, 0, 51, 0
4, 275520, Note_on_c, 0, 58, 43
4, 275520, Note_on_c, 0, 61, 54
4, 275710, Note_on_c, 0, 66, 0
4, 276000, Note_on_c, 0, 66, 44
4, 276190, Note_on_c, 0, 61, 0
4, 276190, Note_on_c, 0, 58, 0
4, 276225, Note_on_c, 0, 51, 46
4, 276320, Note_on_c, 0, 56, 57
4, 276400, Note_on_c, 0, 60, 69
4, 276440, Note_on_c, 0, 66, 0
4, 276440, Control_c, 0, 64, 77
4, 276520, Control_c, 0, 64, 77
4, 276560, Note_on_c, 0, 66, 79
4, 277305, Note_on_c, 0, 51, 0
4, 277360, Note_on_c, 0, 56, 0
4, 277400, Note_on_c, 0, 60, 0
4, 277520, Note_on_c, 0, 66, 0
4, 278320, Control_c, 0, 64, 79
4, 278400, Note_on_c, 0, 37, 68
4, 278400, Note_on_c, 0, 49, 68
4, 278440, Control_c, 0, 64, 127
4, 278880, Note_on_c, 0, 49, 0
4, 278880, Note_on_c, 0, 37, 0
4, 280280, Control_c, 0, 64, 0
4, 280360, Control_c, 0, 64, 127
4, 280800, Note_on_c, 0, 61, 59
4, 281280, Note_on_c, 0, 70, 54
4, 281470, Note_on_c, 0, 61, 0
4, 281760, Note_on_c, 0, 61, 65
4, 281950, Note_on_c, 0, 70, 0
4, 282240, Note_on_c, 0, 49, 61
4, 282430, Note_on_c, 0, 61, 0
4, 283200, Note_on_c, 0, 49, 0
4, 283200, Note_on_c, 0, 30, 58
4, 283200, Note_on_c, 0, 42, 58
4, 284640, Note_on_c, 0, 61, 57
4, 285120, Note_on_c, 0, 70, 64
4, 285310, Note_on_c, 0, 61, 0
4, 285600, Note_on_c, 0, 61, 56
4, 285790, Note_on_c, 0, 70, 0
4, 286040, Control_c, 0, 64, 0
4, 286080, Note_on_c, 0, 30, 0
4, 286080, Note_on_c, 0, 54, 65
4, 286120, Note_on_c, 0, 42, 0
4, 286270, Note_on_c, 0, 61, 0
4, 287040, Note_on_c, 0, 54, 0
4, 288000, Note_on_c, 0, 34, 48
4, 288000, Note_on_c, 0, 46, 48
4, 288040, Control_c, 0, 64, 127
4, 288480, Note_on_c, 0, 66, 60
4, 288960, Note_on_c, 0, 73, 70
4, 289150, Note_on_c, 0, 66, 0
4, 289440, Note_on_c, 0, 70, 72
4, 289630, Note_on_c, 0, 73, 0
4, 289920, Note_on_c, 0, 34, 0
4, 289920, Note_on_c, 0, 46, 0
4, 289920, Note_on_c, 0, 68, 64
4, 290110, Note_on_c, 0, 70, 0
4, 290400, Note_on_c, 0, 66, 54
4, 290590, Note_on_c, 0, 68, 0
4, 290880, Note_on_c, 0, 65, 58
4, 291070, Note_on_c, 0, 66, 0
4, 291360, Note_on_c, 0, 63, 60
4, 291550, Note_on_c, 0, 65, 0
4, 291760, Control_c, 0, 64, 0
4, 291840, Note_on_c, 0, 63, 0
4, 291840, Note_on_c, 0, 57, 57
4, 291880, Control_c, 0, 64, 127
4, 292320, Note_on_c, 0, 63, 45
4, 292320, Note_on_c, 0, 65, 52
4, 292510, Note_on_c, 0, 57, 0
4, 292800, Note_on_c, 0, 72, 59
4, 292990, Note_on_c, 0, 65, 0
4, 292990, Note_on_c, 0, 63, 0
4, 293280, Note_on_c, 0, 63, 45
4, 293280, Note_on_c, 0, 65, 52
4, 293470, Note_on_c, 0, 72, 0
4, 293760, Note_on_c, 0, 53, 57
4, 293950, Note_on_c, 0, 65, 0
4, 293950, Note_on_c, 0, 63, 0
4, 294240, Note_on_c, 0, 53, 0
4, 295560, Control_c, 0, 64, 0
4, 295680, Note_on_c, 0, 34, 57
4, 295680, Note_on_c, 0, 46, 57
4, 295720, Control_c, 0, 64, 127
4, 296160, Note_on_c, 0, 53, 54
4, 296350, Note_on_c, 0, 46, 0
4, 296350, Note_on_c, 0, 34, 0
4, 296640, Note_on_c, 0, 61, 63
4, 296830, Note_on_c, 0, 53, 0
4, 297120, Note_on_c, 0, 53, 57
4, 297310, Note_on_c, 0, 61, 0
4, 297560, Control_c, 0, 64, 0
4, 297600, Note_on_c, 0, 53, 0
4, 297600, Note_on_c, 0, 59, 65
4, 298560, Note_on_c, 0, 49, 40
4, 298943, Note_on_c, 0, 59, 0
4, 299520, Note_on_c, 0, 49, 0
4, 299520, Note_on_c, 0, 30, 34
4, 299520, Note_on_c, 0, 42, 34
4, 299560, Control_c, 0, 64, 127
4, 300000, Note_on_c, 0, 54, 26
4, 300190, Note_on_c, 0, 42, 0
4, 300190, Note_on_c, 0, 30, 0
4, 300480, Note_on_c, 0, 58, 33
4, 300670, Note_on_c, 0, 54, 0
4, 300960, Note_on_c, 0, 54, 28
4, 301150, Note_on_c, 0, 58, 0
4, 301360, Control_c, 0, 64, 0
4, 301440, Note_on_c, 0, 54, 0
4, 301440, Note_on_c, 0, 47, 36
4, 301440, Note_on_c, 0, 59, 36
4, 302400, Note_on_c, 0, 46, 22
4, 302783, Note_on_c, 0, 59, 0
4, 302783, Note_on_c, 0, 47, 0
4, 303360, Note_on_c, 0, 46, 0
4, 303360, Note_on_c, 0, 44, 48
4, 303400, Control_c, 0, 64, 127
4, 303840, Note_on_c, 0, 51, 30
4, 304030, Note_on_c, 0, 44, 0
4, 304320, Note_on_c, 0, 59, 50
4, 304510, Note_on_c, 0, 51, 0
4, 304800, Note_on_c, 0, 51, 30
4, 304990, Note_on_c, 0, 59, 0
4, 305280, Note_on_c, 0, 51, 0
4, 305280, Note_on_c, 0, 49, 46
4, 306160, Control_c, 0, 64, 0
4, 306240, Note_on_c, 0, 37, 32
4, 306280, Control_c, 0, 64, 127
4, 306623, Note_on_c, 0, 49, 0
4, 307120, Control_c, 0, 64, 0
4, 307200, Note_on_c, 0, 37, 0
4, 307200, Note_on_c, 0, 30, 53
4, 307200, Note_on_c, 0, 42, 45
4, 307240, Control_c, 0, 64, 127
4, 307680, Note_on_c, 0, 49, 42
4, 308160, Note_on_c, 0, 49, 0
4, 308160, Note_on_c, 0, 61, 49
4, 308640, Note_on_c, 0, 61, 0
4, 308640, Note_on_c, 0, 49, 40
4, 309120, Note_on_c, 0, 49, 0
4, 309120, Note_on_c, 0, 37, 45
4, 309600, Note_on_c, 0, 37, 0
4, 310960, Control_c, 0, 64, 0
4, 311000, Note_on_c, 0, 42, 0
4, 311000, Note_on_c, 0, 30, 0
4, 311040, Note_on_c, 0, 30, 51
4, 311040, Note_on_c, 0, 42, 48
4, 311080, Control_c, 0, 64, 127
4, 311520, Note_on_c, 0, 49, 38
4, 312000, Note_on_c, 0, 49, 0
4, 312000, Note_on_c, 0, 61, 45
4, 312480, Note_on_c, 0, 61, 0
4, 312480, Note_on_c, 0, 49, 36
4, 312960, Note_on_c, 0, 49, 0
4, 312960, Note_on_c, 0, 37, 45
4, 313440, Note_on_c, 0, 37, 0
4, 314760, Control_c, 0, 64, 0
4, 314840, Note_on_c, 0, 42, 0
4, 314840, Note_on_c, 0, 30, 0
4, 314880, Note_on_c, 0, 30, 59
4, 314880, Note_on_c, 0, 42, 59
4, 314920, Control_c, 0, 64, 127
4, 315360, Note_on_c, 0, 49, 46
4, 315840, Note_on_c, 0, 49, 0
4, 315840, Note_on_c, 0, 61, 53
4, 316320, Note_on_c, 0, 61, 0
4, 316320, Note_on_c, 0, 49, 47
4, 316800, Note_on_c, 0, 49, 0
4, 316800, Note_on_c, 0, 37, 49
4, 317280, Note_on_c, 0, 37, 0
4, 318640, Control_c, 0, 64, 0
4, 318680, Note_on_c, 0, 42, 0
4, 318680, Note_on_c, 0, 30, 0
4, 318720, Note_on_c, 0, 30, 57
4, 318720, Note_on_c, 0, 42, 57
4, 318760, Control_c, 0, 64, 127
4, 319200, Note_on_c, 0, 51, 49
4, 319680, Note_on_c, 0, 51, 0
4, 319680, Note_on_c, 0, 59, 51
4, 320160, Note_on_c, 0, 59, 0
4, 320160, Note_on_c, 0, 51, 46
4, 320560, Control_c, 0, 64, 0
4, 320640, Note_on_c, 0, 51, 0
4, 320640, Note_on_c, 0, 42, 0
4, 320640, Note_on_c, 0, 30, 0
4, 320640, Note_on_c, 0, 61, 52
4, 320680, Control_c, 0, 64, 127
4, 321600, Note_on_c, 0, 61, 0
4, 321600, Note_on_c, 0, 49, 47
4, 322520, Control_c, 0, 64, 0
4, 322560, Note_on_c, 0, 49, 0
4, 322560, Note_on_c, 0, 30, 39
4, 322560, Note_on_c, 0, 42, 33
4, 322600, Control_c, 0, 64, 127
4, 326360, Note_on_c, 0, 42, 0
4, 326360, Note_on_c, 0, 30, 0
4, 326400, Note_on_c, 0, 30, 37
4, 326400, Note_on_c, 0, 42, 31
4, 330200, Control_c, 0, 64, 0
4, 330240, Note_on_c, 0, 42, 0
4, 330240, Note_on_c, 0, 30, 0
4, 330240, Note_on_c, 0, 27, 40
4, 330240, Note_on_c, 0, 39, 35
4, 330320, Control_c, 0, 64, 127
4, 333960, Control_c, 0, 64, 0
4, 334080, Note_on_c, 0, 39, 0
4, 334080, Note_on_c, 0, 27, 0
4, 334080, Note_on_c, 0, 32, 56
4, 334080, Note_on_c, 0, 44, 43
4, 334120, Control_c, 0, 64, 127
4, 335960, Control_c, 0, 64, 0
4, 336000, Note_on_c, 0, 44, 0
4, 336000, Note_on_c, 0, 32, 0
4, 336000, Note_on_c, 0, 61, 43
4, 336040, Control_c, 0, 64, 127
4, 336960, Note_on_c, 0, 61, 0
4, 336960, Note_on_c, 0, 49, 43
4, 337840, Control_c, 0, 64, 0
4, 337920, Note_on_c, 0, 49, 0
4, 337920, Note_on_c, 0, 30, 41
4, 337920, Note_on_c, 0, 42, 34
4, 337960, Control_c, 0, 64, 127
4, 339840, Note_on_c, 0, 42, 0
4, 339840, Note_on_c, 0, 30, 0
4, 341720, Control_c, 0, 64, 0
4, 341760, Note_on_c, 0, 30, 42
4, 341760, Note_on_c, 0, 42, 43
4, 341800, Control_c, 0, 64, 127
4, 343680, Note_on_c, 0, 42, 0
4, 343680, Note_on_c, 0, 30, 0
4, 345520, Control_c, 0, 64, 0
4, 345520, Note_on_c, 0, 42, 52
4, 345560, Note_on_c, 0, 49, 67
4, 345600, Note_on_c, 0, 58, 73
4, 345640, Control_c, 0, 64, 127
4, 346000, Note_on_c, 0, 42, 0
4, 346040, Note_on_c, 0, 49, 0
4, 346080, Note_on_c, 0, 58, 0
4, 353240, Control_c, 0, 64, 0
4, 353320, Control_c, 0, 64, 127
4, 357040, Control_c, 0, 64, 0
4, 359040, Note_on_c, 0, 37, 53
4, 359060, Note_on_c, 0, 49, 56
4, 359120, Control_c, 0, 64, 127
4, 359880, Note_on_c, 0, 49, 0
4, 359880, Note_on_c, 0, 37, 0
4, 360480, Control_c, 0, 64, 0
4, 360960, Control_c, 0, 64, 127
4, 360960, Note_on_c, 0, 30, 42
4, 361060, Note_on_c, 0, 42, 50
4, 361800, Note_on_c, 0, 42, 0
4, 361800, Note_on_c, 0, 30, 0
4, 362280, Control_c, 0, 64, 0
4, 362280, End_track
0, 0, End_of_file
