0, 0, Header, 1, 3, 480
1, 0, Start_track
1, 0, Title_t, "Lolita"
1, 0, Title_t, "Op-54"
1, 0, Text_t, "Cecile Chaminade"
1, 0, Time_signature, 3, 2, 24, 8
1, 0, Key_signature, 0, "major"
1, 0, Tempo, 302267
1, 20160, Tempo, 295567
1, 31200, Tempo, 302267
1, 41760, Tempo, 685714
1, 42240, Tempo, 854093
1, 42720, Tempo, 1085973
1, 43200, Tempo, 309278
1, 48960, Tempo, 301129
1, 57600, Tempo, 311688
1, 60480, Tempo, 302267
1, 64793, Tempo, 685714
1, 65273, Tempo, 854093
1, 65753, Tempo, 1085973
1, 66240, Tempo, 306905
1, 72000, Tempo, 302267
1, 77700, Tempo, 324324
1, 83520, Tempo, 303413
1, 87840, Tempo, 323015
1, 95040, Tempo, 345324
1, 100800, Tempo, 331034
1, 102960, Tempo, 369231
1, 103680, Tempo, 331034
1, 105840, Tempo, 367534
1, 106560, Tempo, 315375
1, 110880, Tempo, 463320
1, 111120, Tempo, 302267
1, 122400, Tempo, 323015
1, 126960, Tempo, 302267
1, 129600, Tempo, 311688
1, 132480, Tempo, 324324
1, 135360, Tempo, 346821
1, 138240, Tempo, 323015
1, 139680, Tempo, 309278
1, 141120, Tempo, 302267
1, 155520, Tempo, 312907
1, 161280, Tempo, 325645
1, 166560, Tempo, 311688
1, 177118, Tempo, 685714
1, 177598, Tempo, 854093
1, 178078, Tempo, 1085973
1, 178560, Tempo, 302267
1, 178560, End_track
2, 0, Start_track
2, 0, Title_t, "Piano"
2, 0, Program_c, 0, 0
2, 0, Control_c, 0, 7, 105
2, 0, Control_c, 0, 10, 82
2, 0, Control_c, 0, 91, 91
2, 0, Control_c, 0, 11, 110
2, 8640, Note_on_c, 0, 85, 92
2, 8640, Note_on_c, 0, 77, 85
2, 8760, Note_on_c, 0, 77, 0
2, 8760, Note_on_c, 0, 85, 0
2, 8880, Note_on_c, 0, 80, 77
2, 8880, Note_on_c, 0, 84, 84
2, 9000, Note_on_c, 0, 84, 0
2, 9000, Note_on_c, 0, 80, 0
2, 9120, Note_on_c, 0, 77, 83
2, 9120, Note_on_c, 0, 85, 90
2, 9240, Note_on_c, 0, 85, 0
2, 9240, Note_on_c, 0, 77, 0
2, 9360, Note_on_c, 0, 80, 75
2, 9360, Note_on_c, 0, 84, 82
2, 9480, Note_on_c, 0, 84, 0
2, 9480, Note_on_c, 0, 80, 0
2, 9600, Note_on_c, 0, 77, 81
2, 9600, Note_on_c, 0, 82, 88
2, 9720, Note_on_c, 0, 82, 0
2, 9720, Note_on_c, 0, 77, 0
2, 9840, Note_on_c, 0, 80, 74
2, 9840, Note_on_c, 0, 84, 81
2, 9960, Note_on_c, 0, 84, 0
2, 9960, Note_on_c, 0, 80, 0
2, 10080, Note_on_c, 0, 77, 82
2, 10080, Note_on_c, 0, 85, 89
2, 10200, Note_on_c, 0, 85, 0
2, 10200, Note_on_c, 0, 77, 0
2, 10320, Note_on_c, 0, 84, 79
2, 10320, Note_on_c, 0, 80, 72
2, 10440, Note_on_c, 0, 80, 0
2, 10440, Note_on_c, 0, 84, 0
2, 10560, Note_on_c, 0, 77, 77
2, 10560, Note_on_c, 0, 82, 84
2, 10680, Note_on_c, 0, 82, 0
2, 10680, Note_on_c, 0, 77, 0
2, 10800, Note_on_c, 0, 80, 78
2, 10920, Note_on_c, 0, 80, 0
2, 11040, Note_on_c, 0, 78, 86
2, 11040, Note_on_c, 0, 73, 79
2, 11160, Note_on_c, 0, 73, 0
2, 11160, Note_on_c, 0, 78, 0
2, 11280, Note_on_c, 0, 77, 81
2, 11400, Note_on_c, 0, 77, 0
2, 11520, Note_on_c, 0, 70, 62
2, 11520, Note_on_c, 0, 78, 88
2, 11640, Note_on_c, 0, 78, 0
2, 11760, Note_on_c, 0, 80, 89
2, 11880, Note_on_c, 0, 80, 0
2, 12000, Note_on_c, 0, 70, 0
2, 12000, Note_on_c, 0, 82, 89
2, 12000, Note_on_c, 0, 78, 82
2, 12000, Note_on_c, 0, 73, 82
2, 12480, Note_on_c, 0, 73, 0
2, 12480, Note_on_c, 0, 78, 0
2, 12480, Note_on_c, 0, 82, 0
2, 12480, Note_on_c, 0, 84, 97
2, 12480, Note_on_c, 0, 78, 90
2, 12480, Note_on_c, 0, 72, 90
2, 12960, Note_on_c, 0, 72, 0
2, 12960, Note_on_c, 0, 78, 0
2, 12960, Note_on_c, 0, 84, 0
2, 12960, Note_on_c, 0, 77, 94
2, 12960, Note_on_c, 0, 73, 94
2, 12960, Note_on_c, 0, 80, 101
2, 14400, Note_on_c, 0, 80, 0
2, 14400, Note_on_c, 0, 73, 0
2, 14400, Note_on_c, 0, 77, 0
2, 14400, Note_on_c, 0, 77, 92
2, 14400, Note_on_c, 0, 82, 96
2, 14520, Note_on_c, 0, 82, 0
2, 14520, Note_on_c, 0, 77, 0
2, 14640, Note_on_c, 0, 73, 83
2, 14640, Note_on_c, 0, 80, 87
2, 14760, Note_on_c, 0, 80, 0
2, 14760, Note_on_c, 0, 73, 0
2, 14880, Note_on_c, 0, 77, 91
2, 14880, Note_on_c, 0, 82, 95
2, 15000, Note_on_c, 0, 82, 0
2, 15000, Note_on_c, 0, 77, 0
2, 15120, Note_on_c, 0, 73, 82
2, 15120, Note_on_c, 0, 80, 86
2, 15240, Note_on_c, 0, 80, 0
2, 15240, Note_on_c, 0, 73, 0
2, 15360, Note_on_c, 0, 73, 91
2, 15360, Note_on_c, 0, 78, 95
2, 15480, Note_on_c, 0, 78, 0
2, 15480, Note_on_c, 0, 73, 0
2, 15600, Note_on_c, 0, 77, 87
2, 15600, Note_on_c, 0, 68, 83
2, 15720, Note_on_c, 0, 68, 0
2, 15720, Note_on_c, 0, 77, 0
2, 15840, Note_on_c, 0, 73, 91
2, 15840, Note_on_c, 0, 78, 95
2, 15960, Note_on_c, 0, 78, 0
2, 15960, Note_on_c, 0, 73, 0
2, 16080, Note_on_c, 0, 77, 87
2, 16080, Note_on_c, 0, 70, 83
2, 16200, Note_on_c, 0, 70, 0
2, 16200, Note_on_c, 0, 77, 0
2, 16320, Note_on_c, 0, 70, 90
2, 16320, Note_on_c, 0, 75, 94
2, 16440, Note_on_c, 0, 75, 0
2, 16440, Note_on_c, 0, 70, 0
2, 16560, Note_on_c, 0, 73, 86
2, 16560, Note_on_c, 0, 65, 82
2, 16680, Note_on_c, 0, 65, 0
2, 16680, Note_on_c, 0, 73, 0
2, 16800, Note_on_c, 0, 72, 94
2, 16800, Note_on_c, 0, 65, 90
2, 16920, Note_on_c, 0, 65, 0
2, 16920, Note_on_c, 0, 72, 0
2, 17040, Note_on_c, 0, 70, 86
2, 17040, Note_on_c, 0, 61, 82
2, 17160, Note_on_c, 0, 61, 0
2, 17160, Note_on_c, 0, 70, 0
2, 17280, Note_on_c, 0, 58, 89
2, 17280, Note_on_c, 0, 68, 93
2, 17400, Note_on_c, 0, 68, 0
2, 17520, Note_on_c, 0, 63, 81
2, 17520, Note_on_c, 0, 66, 85
2, 17640, Note_on_c, 0, 66, 0
2, 17640, Note_on_c, 0, 63, 0
2, 17760, Note_on_c, 0, 58, 0
2, 17760, Note_on_c, 0, 65, 93
2, 17760, Note_on_c, 0, 61, 89
2, 18240, Note_on_c, 0, 61, 0
2, 18240, Note_on_c, 0, 65, 0
2, 18240, Note_on_c, 0, 60, 84
2, 18240, Note_on_c, 0, 63, 88
2, 18240, Note_on_c, 0, 54, 84
2, 18720, Note_on_c, 0, 54, 0
2, 18720, Note_on_c, 0, 63, 0
2, 18720, Note_on_c, 0, 60, 0
2, 18720, Note_on_c, 0, 53, 88
2, 18720, Note_on_c, 0, 61, 91
2, 19440, Note_on_c, 0, 61, 0
2, 19440, Note_on_c, 0, 53, 0
2, 19440, Note_on_c, 0, 75, 80
2, 19560, Note_on_c, 0, 75, 0
2, 19560, Note_on_c, 0, 77, 79
2, 19680, Note_on_c, 0, 77, 0
2, 19680, Note_on_c, 0, 78, 89
2, 19800, Note_on_c, 0, 78, 0
2, 19800, Note_on_c, 0, 80, 88
2, 19920, Note_on_c, 0, 80, 0
2, 19920, Note_on_c, 0, 82, 93
2, 20040, Note_on_c, 0, 82, 0
2, 20040, Note_on_c, 0, 84, 100
2, 20160, Note_on_c, 0, 84, 0
2, 20160, Note_on_c, 0, 77, 91
2, 20160, Note_on_c, 0, 85, 98
2, 20280, Note_on_c, 0, 85, 0
2, 20280, Note_on_c, 0, 77, 0
2, 20400, Note_on_c, 0, 84, 84
2, 20400, Note_on_c, 0, 80, 77
2, 20520, Note_on_c, 0, 80, 0
2, 20520, Note_on_c, 0, 84, 0
2, 20640, Note_on_c, 0, 85, 90
2, 20640, Note_on_c, 0, 77, 83
2, 20760, Note_on_c, 0, 77, 0
2, 20760, Note_on_c, 0, 85, 0
2, 20880, Note_on_c, 0, 84, 82
2, 20880, Note_on_c, 0, 80, 75
2, 21000, Note_on_c, 0, 80, 0
2, 21000, Note_on_c, 0, 84, 0
2, 21120, Note_on_c, 0, 82, 88
2, 21120, Note_on_c, 0, 77, 81
2, 21240, Note_on_c, 0, 77, 0
2, 21240, Note_on_c, 0, 82, 0
2, 21360, Note_on_c, 0, 84, 81
2, 21360, Note_on_c, 0, 80, 74
2, 21480, Note_on_c, 0, 80, 0
2, 21480, Note_on_c, 0, 84, 0
2, 21600, Note_on_c, 0, 85, 89
2, 21600, Note_on_c, 0, 77, 82
2, 21720, Note_on_c, 0, 77, 0
2, 21720, Note_on_c, 0, 85, 0
2, 21840, Note_on_c, 0, 80, 72
2, 21840, Note_on_c, 0, 84, 79
2, 21960, Note_on_c, 0, 84, 0
2, 21960, Note_on_c, 0, 80, 0
2, 22080, Note_on_c, 0, 82, 84
2, 22080, Note_on_c, 0, 77, 77
2, 22200, Note_on_c, 0, 77, 0
2, 22200, Note_on_c, 0, 82, 0
2, 22320, Note_on_c, 0, 80, 78
2, 22440, Note_on_c, 0, 80, 0
2, 22560, Note_on_c, 0, 73, 79
2, 22560, Note_on_c, 0, 78, 86
2, 22680, Note_on_c, 0, 78, 0
2, 22680, Note_on_c, 0, 73, 0
2, 22800, Note_on_c, 0, 77, 81
2, 22920, Note_on_c, 0, 77, 0
2, 23040, Note_on_c, 0, 78, 88
2, 23040, Note_on_c, 0, 70, 62
2, 23160, Note_on_c, 0, 78, 0
2, 23280, Note_on_c, 0, 80, 89
2, 23400, Note_on_c, 0, 80, 0
2, 23520, Note_on_c, 0, 70, 0
2, 23520, Note_on_c, 0, 73, 82
2, 23520, Note_on_c, 0, 78, 82
2, 23520, Note_on_c, 0, 82, 89
2, 24000, Note_on_c, 0, 82, 0
2, 24000, Note_on_c, 0, 78, 0
2, 24000, Note_on_c, 0, 73, 0
2, 24000, Note_on_c, 0, 72, 90
2, 24000, Note_on_c, 0, 78, 90
2, 24000, Note_on_c, 0, 84, 97
2, 24480, Note_on_c, 0, 84, 0
2, 24480, Note_on_c, 0, 78, 0
2, 24480, Note_on_c, 0, 72, 0
2, 24480, Note_on_c, 0, 80, 101
2, 24480, Note_on_c, 0, 73, 94
2, 24480, Note_on_c, 0, 77, 94
2, 25920, Note_on_c, 0, 77, 0
2, 25920, Note_on_c, 0, 73, 0
2, 25920, Note_on_c, 0, 80, 0
2, 25920, Note_on_c, 0, 82, 70
2, 25920, Note_on_c, 0, 77, 62
2, 26040, Note_on_c, 0, 77, 0
2, 26040, Note_on_c, 0, 82, 0
2, 26160, Note_on_c, 0, 80, 61
2, 26160, Note_on_c, 0, 73, 53
2, 26280, Note_on_c, 0, 73, 0
2, 26280, Note_on_c, 0, 80, 0
2, 26400, Note_on_c, 0, 82, 69
2, 26400, Note_on_c, 0, 77, 61
2, 26520, Note_on_c, 0, 77, 0
2, 26520, Note_on_c, 0, 82, 0
2, 26640, Note_on_c, 0, 80, 60
2, 26640, Note_on_c, 0, 73, 52
2, 26760, Note_on_c, 0, 73, 0
2, 26760, Note_on_c, 0, 80, 0
2, 26880, Note_on_c, 0, 78, 69
2, 26880, Note_on_c, 0, 73, 61
2, 27000, Note_on_c, 0, 73, 0
2, 27000, Note_on_c, 0, 78, 0
2, 27120, Note_on_c, 0, 68, 53
2, 27120, Note_on_c, 0, 77, 61
2, 27240, Note_on_c, 0, 77, 0
2, 27240, Note_on_c, 0, 68, 0
2, 27360, Note_on_c, 0, 78, 69
2, 27360, Note_on_c, 0, 73, 61
2, 27480, Note_on_c, 0, 73, 0
2, 27480, Note_on_c, 0, 78, 0
2, 27600, Note_on_c, 0, 70, 53
2, 27600, Note_on_c, 0, 77, 61
2, 27720, Note_on_c, 0, 77, 0
2, 27720, Note_on_c, 0, 70, 0
2, 27840, Note_on_c, 0, 75, 68
2, 27840, Note_on_c, 0, 70, 60
2, 27960, Note_on_c, 0, 70, 0
2, 27960, Note_on_c, 0, 75, 0
2, 28080, Note_on_c, 0, 65, 52
2, 28080, Note_on_c, 0, 73, 60
2, 28200, Note_on_c, 0, 73, 0
2, 28200, Note_on_c, 0, 65, 0
2, 28320, Note_on_c, 0, 65, 60
2, 28320, Note_on_c, 0, 72, 68
2, 28440, Note_on_c, 0, 72, 0
2, 28440, Note_on_c, 0, 65, 0
2, 28560, Note_on_c, 0, 61, 52
2, 28560, Note_on_c, 0, 70, 60
2, 28680, Note_on_c, 0, 70, 0
2, 28680, Note_on_c, 0, 61, 0
2, 28800, Note_on_c, 0, 68, 67
2, 28800, Note_on_c, 0, 58, 59
2, 28920, Note_on_c, 0, 68, 0
2, 29040, Note_on_c, 0, 66, 59
2, 29040, Note_on_c, 0, 63, 51
2, 29160, Note_on_c, 0, 63, 0
2, 29160, Note_on_c, 0, 66, 0
2, 29280, Note_on_c, 0, 58, 0
2, 29280, Note_on_c, 0, 61, 59
2, 29280, Note_on_c, 0, 65, 67
2, 29760, Note_on_c, 0, 65, 0
2, 29760, Note_on_c, 0, 61, 0
2, 29760, Note_on_c, 0, 54, 54
2, 29760, Note_on_c, 0, 63, 62
2, 29760, Note_on_c, 0, 60, 54
2, 30240, Note_on_c, 0, 60, 0
2, 30240, Note_on_c, 0, 63, 0
2, 30240, Note_on_c, 0, 54, 0
2, 30240, Note_on_c, 0, 61, 53
2, 30240, Note_on_c, 0, 53, 66
2, 30960, Note_on_c, 0, 53, 0
2, 30960, Note_on_c, 0, 61, 0
2, 31200, Note_on_c, 0, 68, 73
2, 31320, Note_on_c, 0, 68, 0
2, 31320, Note_on_c, 0, 70, 69
2, 31440, Note_on_c, 0, 70, 0
2, 31440, Note_on_c, 0, 72, 79
2, 31560, Note_on_c, 0, 72, 0
2, 31560, Note_on_c, 0, 73, 75
2, 31680, Note_on_c, 0, 73, 0
2, 31680, Note_on_c, 0, 75, 83
2, 31840, Note_on_c, 0, 75, 0
2, 31840, Note_on_c, 0, 77, 86
2, 32000, Note_on_c, 0, 77, 0
2, 32000, Note_on_c, 0, 75, 80
2, 32160, Note_on_c, 0, 75, 0
2, 32160, Note_on_c, 0, 68, 83
2, 32320, Note_on_c, 0, 68, 0
2, 32480, Note_on_c, 0, 72, 77
2, 32640, Note_on_c, 0, 72, 0
2, 32640, Note_on_c, 0, 73, 88
2, 32800, Note_on_c, 0, 73, 0
2, 32800, Note_on_c, 0, 75, 82
2, 32960, Note_on_c, 0, 75, 0
2, 32960, Note_on_c, 0, 77, 83
2, 33120, Note_on_c, 0, 77, 0
2, 33120, Note_on_c, 0, 75, 64
2, 33280, Note_on_c, 0, 75, 0
2, 33280, Note_on_c, 0, 77, 60
2, 33440, Note_on_c, 0, 77, 0
2, 33440, Note_on_c, 0, 75, 59
2, 33600, Note_on_c, 0, 75, 0
2, 33600, Note_on_c, 0, 68, 59
2, 33760, Note_on_c, 0, 68, 0
2, 33920, Note_on_c, 0, 72, 71
2, 34080, Note_on_c, 0, 72, 0
2, 34080, Note_on_c, 0, 73, 67
2, 34240, Note_on_c, 0, 73, 0
2, 34240, Note_on_c, 0, 75, 63
2, 34400, Note_on_c, 0, 75, 0
2, 34400, Note_on_c, 0, 77, 72
2, 34560, Note_on_c, 0, 77, 0
2, 34560, Note_on_c, 0, 75, 67
2, 34720, Note_on_c, 0, 75, 0
2, 34720, Note_on_c, 0, 77, 73
2, 34880, Note_on_c, 0, 77, 0
2, 34880, Note_on_c, 0, 78, 68
2, 35040, Note_on_c, 0, 78, 0
2, 35040, Note_on_c, 0, 80, 68
2, 35200, Note_on_c, 0, 80, 0
2, 35200, Note_on_c, 0, 82, 60
2, 35360, Note_on_c, 0, 82, 0
2, 35360, Note_on_c, 0, 84, 73
2, 35520, Note_on_c, 0, 84, 0
2, 35520, Note_on_c, 0, 85, 67
2, 35680, Note_on_c, 0, 85, 0
2, 35680, Note_on_c, 0, 87, 66
2, 35840, Note_on_c, 0, 87, 0
2, 35840, Note_on_c, 0, 89, 70
2, 36000, Note_on_c, 0, 89, 0
2, 36000, Note_on_c, 0, 90, 66
2, 36160, Note_on_c, 0, 90, 0
2, 36160, Note_on_c, 0, 89, 66
2, 36320, Note_on_c, 0, 89, 0
2, 36320, Note_on_c, 0, 87, 62
2, 36480, Note_on_c, 0, 87, 0
2, 36480, Note_on_c, 0, 85, 65
2, 36640, Note_on_c, 0, 85, 0
2, 36640, Note_on_c, 0, 84, 59
2, 36800, Note_on_c, 0, 84, 0
2, 36800, Note_on_c, 0, 82, 58
2, 36960, Note_on_c, 0, 82, 0
2, 36960, Note_on_c, 0, 80, 66
2, 37120, Note_on_c, 0, 80, 0
2, 37120, Note_on_c, 0, 78, 64
2, 37280, Note_on_c, 0, 78, 0
2, 37280, Note_on_c, 0, 77, 70
2, 37440, Note_on_c, 0, 77, 0
2, 37440, Note_on_c, 0, 75, 65
2, 37600, Note_on_c, 0, 75, 0
2, 37600, Note_on_c, 0, 77, 69
2, 37760, Note_on_c, 0, 77, 0
2, 37760, Note_on_c, 0, 75, 65
2, 37920, Note_on_c, 0, 75, 0
2, 37920, Note_on_c, 0, 68, 64
2, 38080, Note_on_c, 0, 68, 0
2, 38240, Note_on_c, 0, 72, 73
2, 38400, Note_on_c, 0, 72, 0
2, 38400, Note_on_c, 0, 73, 68
2, 38560, Note_on_c, 0, 73, 0
2, 38560, Note_on_c, 0, 75, 65
2, 38720, Note_on_c, 0, 75, 0
2, 38720, Note_on_c, 0, 77, 72
2, 38880, Note_on_c, 0, 77, 0
2, 38880, Note_on_c, 0, 78, 71
2, 39040, Note_on_c, 0, 78, 0
2, 39040, Note_on_c, 0, 80, 58
2, 39200, Note_on_c, 0, 80, 0
2, 39200, Note_on_c, 0, 78, 63
2, 39360, Note_on_c, 0, 78, 0
2, 39360, Note_on_c, 0, 73, 70
2, 39520, Note_on_c, 0, 73, 0
2, 39680, Note_on_c, 0, 75, 70
2, 39840, Note_on_c, 0, 75, 0
2, 39840, Note_on_c, 0, 77, 71
2, 40000, Note_on_c, 0, 77, 0
2, 40000, Note_on_c, 0, 78, 63
2, 40160, Note_on_c, 0, 78, 0
2, 40160, Note_on_c, 0, 80, 64
2, 40320, Note_on_c, 0, 80, 0
2, 40320, Note_on_c, 0, 81, 69
2, 40480, Note_on_c, 0, 81, 0
2, 40480, Note_on_c, 0, 83, 78
2, 40640, Note_on_c, 0, 83, 0
2, 40640, Note_on_c, 0, 81, 70
2, 40800, Note_on_c, 0, 81, 0
2, 40800, Note_on_c, 0, 76, 75
2, 40960, Note_on_c, 0, 76, 0
2, 41120, Note_on_c, 0, 78, 71
2, 41280, Note_on_c, 0, 78, 0
2, 41280, Note_on_c, 0, 80, 71
2, 41400, Note_on_c, 0, 80, 0
2, 41400, Note_on_c, 0, 81, 65
2, 41520, Note_on_c, 0, 82, 71
2, 41560, Note_on_c, 0, 81, 0
2, 41640, Note_on_c, 0, 83, 74
2, 41680, Note_on_c, 0, 82, 0
2, 41800, Note_on_c, 0, 83, 0
2, 41985, Control_c, 0, 64, 127
2, 42000, Note_on_c, 0, 84, 73
2, 42060, Note_on_c, 0, 85, 62
2, 42105, Note_on_c, 0, 84, 0
2, 42120, Note_on_c, 0, 84, 70
2, 42165, Note_on_c, 0, 85, 0
2, 42180, Note_on_c, 0, 85, 61
2, 42225, Note_on_c, 0, 84, 0
2, 42240, Note_on_c, 0, 84, 67
2, 42285, Note_on_c, 0, 85, 0
2, 42300, Note_on_c, 0, 85, 57
2, 42345, Note_on_c, 0, 84, 0
2, 42360, Note_on_c, 0, 84, 61
2, 42405, Note_on_c, 0, 85, 0
2, 42420, Note_on_c, 0, 85, 55
2, 42465, Note_on_c, 0, 84, 0
2, 42480, Note_on_c, 0, 84, 62
2, 42525, Note_on_c, 0, 85, 0
2, 42540, Note_on_c, 0, 85, 55
2, 42585, Note_on_c, 0, 84, 0
2, 42600, Note_on_c, 0, 84, 61
2, 42645, Note_on_c, 0, 85, 0
2, 42660, Note_on_c, 0, 85, 54
2, 42705, Note_on_c, 0, 84, 0
2, 42720, Note_on_c, 0, 84, 60
2, 42765, Note_on_c, 0, 85, 0
2, 42780, Note_on_c, 0, 85, 51
2, 42825, Note_on_c, 0, 84, 0
2, 42840, Note_on_c, 0, 84, 60
2, 42885, Note_on_c, 0, 85, 0
2, 42900, Note_on_c, 0, 85, 50
2, 42945, Note_on_c, 0, 84, 0
2, 42960, Note_on_c, 0, 84, 54
2, 43005, Note_on_c, 0, 85, 0
2, 43020, Note_on_c, 0, 85, 48
2, 43065, Note_on_c, 0, 84, 0
2, 43080, Note_on_c, 0, 82, 64
2, 43125, Note_on_c, 0, 85, 0
2, 43140, Note_on_c, 0, 84, 74
2, 43170, Control_c, 0, 64, 0
2, 43185, Note_on_c, 0, 82, 0
2, 43200, Note_on_c, 0, 77, 63
2, 43200, Note_on_c, 0, 85, 69
2, 43245, Note_on_c, 0, 84, 0
2, 43320, Note_on_c, 0, 85, 0
2, 43320, Note_on_c, 0, 77, 0
2, 43440, Note_on_c, 0, 84, 60
2, 43440, Note_on_c, 0, 80, 54
2, 43560, Note_on_c, 0, 80, 0
2, 43560, Note_on_c, 0, 84, 0
2, 43680, Note_on_c, 0, 85, 66
2, 43680, Note_on_c, 0, 77, 60
2, 43800, Note_on_c, 0, 77, 0
2, 43800, Note_on_c, 0, 85, 0
2, 43920, Note_on_c, 0, 84, 64
2, 43920, Note_on_c, 0, 80, 58
2, 44040, Note_on_c, 0, 80, 0
2, 44040, Note_on_c, 0, 84, 0
2, 44160, Note_on_c, 0, 82, 66
2, 44160, Note_on_c, 0, 77, 60
2, 44280, Note_on_c, 0, 77, 0
2, 44280, Note_on_c, 0, 82, 0
2, 44400, Note_on_c, 0, 84, 69
2, 44400, Note_on_c, 0, 80, 63
2, 44520, Note_on_c, 0, 80, 0
2, 44520, Note_on_c, 0, 84, 0
2, 44640, Note_on_c, 0, 85, 80
2, 44640, Note_on_c, 0, 77, 67
2, 44760, Note_on_c, 0, 77, 0
2, 44760, Note_on_c, 0, 85, 0
2, 44880, Note_on_c, 0, 80, 57
2, 44880, Note_on_c, 0, 84, 70
2, 45000, Note_on_c, 0, 84, 0
2, 45000, Note_on_c, 0, 80, 0
2, 45120, Note_on_c, 0, 82, 75
2, 45120, Note_on_c, 0, 77, 62
2, 45240, Note_on_c, 0, 77, 0
2, 45240, Note_on_c, 0, 82, 0
2, 45360, Note_on_c, 0, 80, 69
2, 45480, Note_on_c, 0, 80, 0
2, 45600, Note_on_c, 0, 73, 64
2, 45600, Note_on_c, 0, 78, 77
2, 45720, Note_on_c, 0, 78, 0
2, 45720, Note_on_c, 0, 73, 0
2, 45840, Note_on_c, 0, 77, 72
2, 45960, Note_on_c, 0, 77, 0
2, 46080, Note_on_c, 0, 78, 88
2, 46080, Note_on_c, 0, 70, 62
2, 46200, Note_on_c, 0, 78, 0
2, 46320, Note_on_c, 0, 80, 89
2, 46440, Note_on_c, 0, 80, 0
2, 46560, Note_on_c, 0, 70, 0
2, 46560, Note_on_c, 0, 73, 82
2, 46560, Note_on_c, 0, 78, 82
2, 46560, Note_on_c, 0, 82, 89
2, 47040, Note_on_c, 0, 82, 0
2, 47040, Note_on_c, 0, 78, 0
2, 47040, Note_on_c, 0, 73, 0
2, 47040, Note_on_c, 0, 72, 90
2, 47040, Note_on_c, 0, 78, 90
2, 47040, Note_on_c, 0, 84, 97
2, 47520, Note_on_c, 0, 84, 0
2, 47520, Note_on_c, 0, 78, 0
2, 47520, Note_on_c, 0, 72, 0
2, 47520, Note_on_c, 0, 80, 101
2, 47520, Note_on_c, 0, 73, 94
2, 47520, Note_on_c, 0, 77, 94
2, 48960, Note_on_c, 0, 77, 0
2, 48960, Note_on_c, 0, 73, 0
2, 48960, Note_on_c, 0, 80, 0
2, 48960, Note_on_c, 0, 82, 96
2, 48960, Note_on_c, 0, 77, 86
2, 49080, Note_on_c, 0, 77, 0
2, 49080, Note_on_c, 0, 82, 0
2, 49200, Note_on_c, 0, 80, 87
2, 49200, Note_on_c, 0, 73, 77
2, 49320, Note_on_c, 0, 73, 0
2, 49320, Note_on_c, 0, 80, 0
2, 49440, Note_on_c, 0, 82, 95
2, 49440, Note_on_c, 0, 77, 85
2, 49560, Note_on_c, 0, 77, 0
2, 49560, Note_on_c, 0, 82, 0
2, 49680, Note_on_c, 0, 80, 86
2, 49680, Note_on_c, 0, 73, 76
2, 49800, Note_on_c, 0, 73, 0
2, 49800, Note_on_c, 0, 80, 0
2, 49920, Note_on_c, 0, 78, 95
2, 49920, Note_on_c, 0, 73, 85
2, 50040, Note_on_c, 0, 73, 0
2, 50040, Note_on_c, 0, 78, 0
2, 50160, Note_on_c, 0, 68, 77
2, 50160, Note_on_c, 0, 77, 87
2, 50280, Note_on_c, 0, 77, 0
2, 50280, Note_on_c, 0, 68, 0
2, 50400, Note_on_c, 0, 78, 95
2, 50400, Note_on_c, 0, 73, 85
2, 50520, Note_on_c, 0, 73, 0
2, 50520, Note_on_c, 0, 78, 0
2, 50640, Note_on_c, 0, 70, 77
2, 50640, Note_on_c, 0, 77, 87
2, 50760, Note_on_c, 0, 77, 0
2, 50760, Note_on_c, 0, 70, 0
2, 50880, Note_on_c, 0, 75, 94
2, 50880, Note_on_c, 0, 70, 84
2, 51000, Note_on_c, 0, 70, 0
2, 51000, Note_on_c, 0, 75, 0
2, 51120, Note_on_c, 0, 65, 76
2, 51120, Note_on_c, 0, 73, 86
2, 51240, Note_on_c, 0, 73, 0
2, 51240, Note_on_c, 0, 65, 0
2, 51360, Note_on_c, 0, 65, 84
2, 51360, Note_on_c, 0, 72, 94
2, 51480, Note_on_c, 0, 72, 0
2, 51480, Note_on_c, 0, 65, 0
2, 51600, Note_on_c, 0, 61, 76
2, 51600, Note_on_c, 0, 70, 86
2, 51720, Note_on_c, 0, 70, 0
2, 51720, Note_on_c, 0, 61, 0
2, 51840, Note_on_c, 0, 68, 93
2, 51840, Note_on_c, 0, 58, 89
2, 51960, Note_on_c, 0, 68, 0
2, 52080, Note_on_c, 0, 66, 85
2, 52080, Note_on_c, 0, 63, 81
2, 52200, Note_on_c, 0, 63, 0
2, 52200, Note_on_c, 0, 66, 0
2, 52320, Note_on_c, 0, 58, 0
2, 52320, Note_on_c, 0, 61, 89
2, 52320, Note_on_c, 0, 65, 93
2, 52800, Note_on_c, 0, 65, 0
2, 52800, Note_on_c, 0, 61, 0
2, 52800, Note_on_c, 0, 54, 84
2, 52800, Note_on_c, 0, 63, 88
2, 52800, Note_on_c, 0, 60, 84
2, 53280, Note_on_c, 0, 60, 0
2, 53280, Note_on_c, 0, 63, 0
2, 53280, Note_on_c, 0, 54, 0
2, 53280, Note_on_c, 0, 53, 89
2, 53280, Note_on_c, 0, 61, 76
2, 54000, Note_on_c, 0, 61, 0
2, 54000, Note_on_c, 0, 53, 0
2, 54240, Note_on_c, 0, 68, 73
2, 54360, Note_on_c, 0, 68, 0
2, 54360, Note_on_c, 0, 70, 69
2, 54480, Note_on_c, 0, 70, 0
2, 54480, Note_on_c, 0, 72, 79
2, 54600, Note_on_c, 0, 72, 0
2, 54600, Note_on_c, 0, 73, 75
2, 54720, Note_on_c, 0, 73, 0
2, 54720, Note_on_c, 0, 75, 83
2, 54880, Note_on_c, 0, 75, 0
2, 54880, Note_on_c, 0, 77, 86
2, 55040, Note_on_c, 0, 77, 0
2, 55040, Note_on_c, 0, 75, 80
2, 55200, Note_on_c, 0, 75, 0
2, 55200, Note_on_c, 0, 68, 83
2, 55360, Note_on_c, 0, 68, 0
2, 55520, Note_on_c, 0, 72, 77
2, 55680, Note_on_c, 0, 72, 0
2, 55680, Note_on_c, 0, 73, 88
2, 55840, Note_on_c, 0, 73, 0
2, 55840, Note_on_c, 0, 75, 82
2, 56000, Note_on_c, 0, 75, 0
2, 56000, Note_on_c, 0, 77, 83
2, 56160, Note_on_c, 0, 77, 0
2, 56160, Note_on_c, 0, 75, 64
2, 56320, Note_on_c, 0, 75, 0
2, 56320, Note_on_c, 0, 77, 60
2, 56480, Note_on_c, 0, 77, 0
2, 56480, Note_on_c, 0, 75, 59
2, 56640, Note_on_c, 0, 75, 0
2, 56640, Note_on_c, 0, 68, 59
2, 56800, Note_on_c, 0, 68, 0
2, 56960, Note_on_c, 0, 72, 71
2, 57120, Note_on_c, 0, 72, 0
2, 57120, Note_on_c, 0, 73, 67
2, 57280, Note_on_c, 0, 73, 0
2, 57280, Note_on_c, 0, 75, 63
2, 57440, Note_on_c, 0, 75, 0
2, 57440, Note_on_c, 0, 77, 72
2, 57600, Note_on_c, 0, 77, 0
2, 57600, Note_on_c, 0, 75, 67
2, 57760, Note_on_c, 0, 75, 0
2, 57760, Note_on_c, 0, 77, 73
2, 57920, Note_on_c, 0, 77, 0
2, 57920, Note_on_c, 0, 78, 68
2, 58080, Note_on_c, 0, 78, 0
2, 58080, Note_on_c, 0, 80, 68
2, 58240, Note_on_c, 0, 80, 0
2, 58240, Note_on_c, 0, 82, 60
2, 58400, Note_on_c, 0, 82, 0
2, 58400, Note_on_c, 0, 84, 73
2, 58560, Note_on_c, 0, 84, 0
2, 58560, Note_on_c, 0, 85, 67
2, 58720, Note_on_c, 0, 85, 0
2, 58720, Note_on_c, 0, 87, 66
2, 58880, Note_on_c, 0, 87, 0
2, 58880, Note_on_c, 0, 89, 70
2, 59040, Note_on_c, 0, 89, 0
2, 59040, Note_on_c, 0, 90, 66
2, 59200, Note_on_c, 0, 90, 0
2, 59200, Note_on_c, 0, 89, 66
2, 59360, Note_on_c, 0, 89, 0
2, 59360, Note_on_c, 0, 87, 62
2, 59520, Note_on_c, 0, 87, 0
2, 59520, Note_on_c, 0, 85, 65
2, 59680, Note_on_c, 0, 85, 0
2, 59680, Note_on_c, 0, 84, 59
2, 59840, Note_on_c, 0, 84, 0
2, 59840, Note_on_c, 0, 82, 58
2, 60000, Note_on_c, 0, 82, 0
2, 60000, Note_on_c, 0, 80, 66
2, 60160, Note_on_c, 0, 80, 0
2, 60160, Note_on_c, 0, 78, 64
2, 60320, Note_on_c, 0, 78, 0
2, 60320, Note_on_c, 0, 77, 70
2, 60480, Note_on_c, 0, 77, 0
2, 60480, Note_on_c, 0, 75, 65
2, 60640, Note_on_c, 0, 75, 0
2, 60640, Note_on_c, 0, 77, 69
2, 60800, Note_on_c, 0, 77, 0
2, 60800, Note_on_c, 0, 75, 65
2, 60960, Note_on_c, 0, 75, 0
2, 60960, Note_on_c, 0, 68, 64
2, 61120, Note_on_c, 0, 68, 0
2, 61280, Note_on_c, 0, 72, 73
2, 61440, Note_on_c, 0, 72, 0
2, 61440, Note_on_c, 0, 73, 68
2, 61600, Note_on_c, 0, 73, 0
2, 61600, Note_on_c, 0, 75, 65
2, 61760, Note_on_c, 0, 75, 0
2, 61760, Note_on_c, 0, 77, 72
2, 61920, Note_on_c, 0, 77, 0
2, 61920, Note_on_c, 0, 78, 71
2, 62080, Note_on_c, 0, 78, 0
2, 62080, Note_on_c, 0, 80, 58
2, 62240, Note_on_c, 0, 80, 0
2, 62240, Note_on_c, 0, 78, 63
2, 62400, Note_on_c, 0, 78, 0
2, 62400, Note_on_c, 0, 73, 70
2, 62560, Note_on_c, 0, 73, 0
2, 62720, Note_on_c, 0, 75, 70
2, 62880, Note_on_c, 0, 75, 0
2, 62880, Note_on_c, 0, 77, 71
2, 63040, Note_on_c, 0, 77, 0
2, 63040, Note_on_c, 0, 78, 63
2, 63200, Note_on_c, 0, 78, 0
2, 63200, Note_on_c, 0, 80, 64
2, 63360, Note_on_c, 0, 80, 0
2, 63360, Note_on_c, 0, 81, 69
2, 63520, Note_on_c, 0, 81, 0
2, 63520, Note_on_c, 0, 83, 78
2, 63680, Note_on_c, 0, 83, 0
2, 63680, Note_on_c, 0, 81, 70
2, 63840, Note_on_c, 0, 81, 0
2, 63840, Note_on_c, 0, 76, 75
2, 64000, Note_on_c, 0, 76, 0
2, 64160, Note_on_c, 0, 78, 71
2, 64320, Note_on_c, 0, 78, 0
2, 64320, Note_on_c, 0, 80, 71
2, 64440, Note_on_c, 0, 80, 0
2, 64440, Note_on_c, 0, 81, 65
2, 64560, Note_on_c, 0, 82, 71
2, 64600, Note_on_c, 0, 81, 0
2, 64680, Note_on_c, 0, 83, 74
2, 64720, Note_on_c, 0, 82, 0
2, 64840, Note_on_c, 0, 83, 0
2, 65040, Note_on_c, 0, 84, 73
2, 65100, Note_on_c, 0, 85, 62
2, 65145, Note_on_c, 0, 84, 0
2, 65160, Note_on_c, 0, 84, 70
2, 65205, Note_on_c, 0, 85, 0
2, 65220, Note_on_c, 0, 85, 61
2, 65265, Note_on_c, 0, 84, 0
2, 65280, Note_on_c, 0, 84, 67
2, 65325, Note_on_c, 0, 85, 0
2, 65340, Note_on_c, 0, 85, 57
2, 65385, Note_on_c, 0, 84, 0
2, 65400, Note_on_c, 0, 84, 61
2, 65445, Note_on_c, 0, 85, 0
2, 65460, Note_on_c, 0, 85, 55
2, 65505, Note_on_c, 0, 84, 0
2, 65520, Note_on_c, 0, 84, 62
2, 65565, Note_on_c, 0, 85, 0
2, 65580, Note_on_c, 0, 85, 55
2, 65625, Note_on_c, 0, 84, 0
2, 65640, Note_on_c, 0, 84, 61
2, 65685, Note_on_c, 0, 85, 0
2, 65700, Note_on_c, 0, 85, 54
2, 65745, Note_on_c, 0, 84, 0
2, 65760, Note_on_c, 0, 84, 60
2, 65805, Note_on_c, 0, 85, 0
2, 65820, Note_on_c, 0, 85, 51
2, 65865, Note_on_c, 0, 84, 0
2, 65880, Note_on_c, 0, 84, 60
2, 65925, Note_on_c, 0, 85, 0
2, 65940, Note_on_c, 0, 85, 50
2, 65985, Note_on_c, 0, 84, 0
2, 66000, Note_on_c, 0, 84, 54
2, 66045, Note_on_c, 0, 85, 0
2, 66060, Note_on_c, 0, 85, 48
2, 66105, Note_on_c, 0, 84, 0
2, 66120, Note_on_c, 0, 82, 64
2, 66165, Note_on_c, 0, 85, 0
2, 66180, Note_on_c, 0, 84, 74
2, 66225, Note_on_c, 0, 82, 0
2, 66240, Note_on_c, 0, 85, 69
2, 66240, Note_on_c, 0, 77, 59
2, 66285, Note_on_c, 0, 84, 0
2, 66360, Note_on_c, 0, 77, 0
2, 66360, Note_on_c, 0, 85, 0
2, 66480, Note_on_c, 0, 80, 50
2, 66480, Note_on_c, 0, 84, 60
2, 66600, Note_on_c, 0, 84, 0
2, 66600, Note_on_c, 0, 80, 0
2, 66720, Note_on_c, 0, 77, 56
2, 66720, Note_on_c, 0, 85, 66
2, 66840, Note_on_c, 0, 85, 0
2, 66840, Note_on_c, 0, 77, 0
2, 66960, Note_on_c, 0, 80, 54
2, 66960, Note_on_c, 0, 84, 64
2, 67080, Note_on_c, 0, 84, 0
2, 67080, Note_on_c, 0, 80, 0
2, 67200, Note_on_c, 0, 77, 56
2, 67200, Note_on_c, 0, 82, 66
2, 67320, Note_on_c, 0, 82, 0
2, 67320, Note_on_c, 0, 77, 0
2, 67440, Note_on_c, 0, 80, 59
2, 67440, Note_on_c, 0, 84, 69
2, 67560, Note_on_c, 0, 84, 0
2, 67560, Note_on_c, 0, 80, 0
2, 67680, Note_on_c, 0, 77, 63
2, 67680, Note_on_c, 0, 85, 80
2, 67800, Note_on_c, 0, 85, 0
2, 67800, Note_on_c, 0, 77, 0
2, 67920, Note_on_c, 0, 84, 70
2, 67920, Note_on_c, 0, 80, 53
2, 68040, Note_on_c, 0, 80, 0
2, 68040, Note_on_c, 0, 84, 0
2, 68160, Note_on_c, 0, 77, 58
2, 68160, Note_on_c, 0, 82, 75
2, 68280, Note_on_c, 0, 82, 0
2, 68280, Note_on_c, 0, 77, 0
2, 68400, Note_on_c, 0, 80, 69
2, 68520, Note_on_c, 0, 80, 0
2, 68640, Note_on_c, 0, 78, 77
2, 68640, Note_on_c, 0, 73, 60
2, 68760, Note_on_c, 0, 73, 0
2, 68760, Note_on_c, 0, 78, 0
2, 68880, Note_on_c, 0, 77, 72
2, 69000, Note_on_c, 0, 77, 0
2, 69120, Note_on_c, 0, 70, 62
2, 69120, Note_on_c, 0, 78, 88
2, 69240, Note_on_c, 0, 78, 0
2, 69360, Note_on_c, 0, 80, 89
2, 69480, Note_on_c, 0, 80, 0
2, 69600, Note_on_c, 0, 70, 0
2, 69600, Note_on_c, 0, 82, 89
2, 69600, Note_on_c, 0, 78, 82
2, 69600, Note_on_c, 0, 73, 82
2, 70080, Note_on_c, 0, 73, 0
2, 70080, Note_on_c, 0, 78, 0
2, 70080, Note_on_c, 0, 82, 0
2, 70080, Note_on_c, 0, 84, 97
2, 70080, Note_on_c, 0, 78, 90
2, 70080, Note_on_c, 0, 72, 90
2, 70560, Note_on_c, 0, 72, 0
2, 70560, Note_on_c, 0, 78, 0
2, 70560, Note_on_c, 0, 84, 0
2, 70560, Note_on_c, 0, 77, 94
2, 70560, Note_on_c, 0, 73, 94
2, 70560, Note_on_c, 0, 80, 101
2, 72000, Note_on_c, 0, 80, 0
2, 72000, Note_on_c, 0, 73, 0
2, 72000, Note_on_c, 0, 77, 0
2, 72000, Note_on_c, 0, 77, 82
2, 72000, Note_on_c, 0, 82, 96
2, 72120, Note_on_c, 0, 82, 0
2, 72120, Note_on_c, 0, 77, 0
2, 72240, Note_on_c, 0, 73, 73
2, 72240, Note_on_c, 0, 80, 87
2, 72360, Note_on_c, 0, 80, 0
2, 72360, Note_on_c, 0, 73, 0
2, 72480, Note_on_c, 0, 77, 81
2, 72480, Note_on_c, 0, 82, 95
2, 72600, Note_on_c, 0, 82, 0
2, 72600, Note_on_c, 0, 77, 0
2, 72720, Note_on_c, 0, 73, 72
2, 72720, Note_on_c, 0, 80, 86
2, 72840, Note_on_c, 0, 80, 0
2, 72840, Note_on_c, 0, 73, 0
2, 72960, Note_on_c, 0, 73, 81
2, 72960, Note_on_c, 0, 78, 95
2, 73080, Note_on_c, 0, 78, 0
2, 73080, Note_on_c, 0, 73, 0
2, 73200, Note_on_c, 0, 77, 87
2, 73200, Note_on_c, 0, 68, 73
2, 73320, Note_on_c, 0, 68, 0
2, 73320, Note_on_c, 0, 77, 0
2, 73440, Note_on_c, 0, 73, 81
2, 73440, Note_on_c, 0, 78, 95
2, 73560, Note_on_c, 0, 78, 0
2, 73560, Note_on_c, 0, 73, 0
2, 73680, Note_on_c, 0, 77, 87
2, 73680, Note_on_c, 0, 70, 73
2, 73800, Note_on_c, 0, 70, 0
2, 73800, Note_on_c, 0, 77, 0
2, 73920, Note_on_c, 0, 70, 80
2, 73920, Note_on_c, 0, 75, 94
2, 74040, Note_on_c, 0, 75, 0
2, 74040, Note_on_c, 0, 70, 0
2, 74160, Note_on_c, 0, 73, 86
2, 74160, Note_on_c, 0, 65, 72
2, 74280, Note_on_c, 0, 65, 0
2, 74280, Note_on_c, 0, 73, 0
2, 74400, Note_on_c, 0, 72, 94
2, 74400, Note_on_c, 0, 65, 80
2, 74520, Note_on_c, 0, 65, 0
2, 74520, Note_on_c, 0, 72, 0
2, 74640, Note_on_c, 0, 70, 86
2, 74640, Note_on_c, 0, 61, 72
2, 74760, Note_on_c, 0, 61, 0
2, 74760, Note_on_c, 0, 70, 0
2, 74880, Note_on_c, 0, 58, 89
2, 74880, Note_on_c, 0, 68, 93
2, 75000, Note_on_c, 0, 68, 0
2, 75120, Note_on_c, 0, 63, 81
2, 75120, Note_on_c, 0, 66, 85
2, 75240, Note_on_c, 0, 66, 0
2, 75240, Note_on_c, 0, 63, 0
2, 75360, Note_on_c, 0, 58, 0
2, 75360, Note_on_c, 0, 65, 93
2, 75360, Note_on_c, 0, 61, 89
2, 75840, Note_on_c, 0, 61, 0
2, 75840, Note_on_c, 0, 65, 0
2, 75840, Note_on_c, 0, 60, 84
2, 75840, Note_on_c, 0, 63, 88
2, 75840, Note_on_c, 0, 54, 84
2, 76320, Note_on_c, 0, 54, 0
2, 76320, Note_on_c, 0, 63, 0
2, 76320, Note_on_c, 0, 60, 0
2, 76320, Note_on_c, 0, 61, 90
2, 76320, Note_on_c, 0, 53, 90
2, 77040, Note_on_c, 0, 53, 0
2, 77040, Note_on_c, 0, 61, 0
2, 78000, Note_on_c, 0, 56, 84
2, 78240, Note_on_c, 0, 56, 0
2, 78240, Note_on_c, 0, 61, 88
2, 78480, Note_on_c, 0, 61, 0
2, 78480, Note_on_c, 0, 68, 84
2, 78720, Note_on_c, 0, 68, 0
2, 78720, Note_on_c, 0, 73, 90
2, 78960, Note_on_c, 0, 73, 0
2, 78960, Note_on_c, 0, 72, 86
2, 79200, Note_on_c, 0, 72, 0
2, 79200, Note_on_c, 0, 75, 93
2, 79440, Note_on_c, 0, 75, 0
2, 79680, Note_on_c, 0, 73, 87
2, 80400, Note_on_c, 0, 73, 0
2, 80400, Note_on_c, 0, 68, 83
2, 80640, Note_on_c, 0, 68, 0
2, 80640, Note_on_c, 0, 59, 83
2, 80640, Note_on_c, 0, 66, 83
2, 80640, Note_on_c, 0, 71, 83
2, 80760, Note_on_c, 0, 71, 0
2, 80760, Note_on_c, 0, 66, 0
2, 80760, Note_on_c, 0, 59, 0
2, 81120, Note_on_c, 0, 60, 78
2, 81120, Note_on_c, 0, 66, 78
2, 81120, Note_on_c, 0, 69, 83
2, 82080, Note_on_c, 0, 69, 0
2, 82080, Note_on_c, 0, 66, 0
2, 82080, Note_on_c, 0, 60, 0
2, 82080, Note_on_c, 0, 68, 85
2, 82080, Note_on_c, 0, 64, 80
2, 82080, Note_on_c, 0, 61, 80
2, 83520, Note_on_c, 0, 61, 0
2, 83520, Note_on_c, 0, 64, 0
2, 83520, Note_on_c, 0, 68, 0
2, 83520, Note_on_c, 0, 97, 86
2, 83640, Note_on_c, 0, 97, 0
2, 83640, Note_on_c, 0, 99, 72
2, 83760, Note_on_c, 0, 99, 0
2, 83760, Note_on_c, 0, 100, 79
2, 83880, Note_on_c, 0, 100, 0
2, 83880, Note_on_c, 0, 99, 78
2, 84000, Note_on_c, 0, 99, 0
2, 84000, Note_on_c, 0, 97, 82
2, 84120, Note_on_c, 0, 97, 0
2, 84120, Note_on_c, 0, 95, 74
2, 84240, Note_on_c, 0, 95, 0
2, 84240, Note_on_c, 0, 93, 80
2, 84360, Note_on_c, 0, 93, 0
2, 84360, Note_on_c, 0, 92, 71
2, 84480, Note_on_c, 0, 92, 0
2, 84480, Note_on_c, 0, 90, 78
2, 84600, Note_on_c, 0, 90, 0
2, 84600, Note_on_c, 0, 88, 69
2, 84720, Note_on_c, 0, 88, 0
2, 84720, Note_on_c, 0, 87, 75
2, 84840, Note_on_c, 0, 87, 0
2, 84840, Note_on_c, 0, 85, 66
2, 84960, Note_on_c, 0, 85, 0
2, 84960, Note_on_c, 0, 81, 83
2, 85080, Note_on_c, 0, 81, 0
2, 85080, Note_on_c, 0, 83, 68
2, 85200, Note_on_c, 0, 83, 0
2, 85200, Note_on_c, 0, 85, 74
2, 85320, Note_on_c, 0, 85, 0
2, 85320, Note_on_c, 0, 83, 69
2, 85440, Note_on_c, 0, 83, 0
2, 85440, Note_on_c, 0, 81, 81
2, 85560, Note_on_c, 0, 81, 0
2, 85560, Note_on_c, 0, 80, 72
2, 85680, Note_on_c, 0, 80, 0
2, 85680, Note_on_c, 0, 78, 77
2, 85800, Note_on_c, 0, 78, 0
2, 85800, Note_on_c, 0, 76, 73
2, 85920, Note_on_c, 0, 76, 0
2, 85920, Note_on_c, 0, 75, 82
2, 86040, Note_on_c, 0, 75, 0
2, 86040, Note_on_c, 0, 73, 73
2, 86160, Note_on_c, 0, 73, 0
2, 86160, Note_on_c, 0, 71, 78
2, 86280, Note_on_c, 0, 71, 0
2, 86280, Note_on_c, 0, 69, 73
2, 86400, Note_on_c, 0, 69, 0
2, 86400, Note_on_c, 0, 71, 81
2, 86520, Note_on_c, 0, 71, 0
2, 86520, Note_on_c, 0, 73, 72
2, 86640, Note_on_c, 0, 73, 0
2, 86640, Note_on_c, 0, 75, 77
2, 86760, Note_on_c, 0, 75, 0
2, 86760, Note_on_c, 0, 73, 73
2, 86880, Note_on_c, 0, 73, 0
2, 86880, Note_on_c, 0, 71, 79
2, 87000, Note_on_c, 0, 71, 0
2, 87000, Note_on_c, 0, 69, 72
2, 87120, Note_on_c, 0, 69, 0
2, 87120, Note_on_c, 0, 68, 78
2, 87240, Note_on_c, 0, 68, 0
2, 87240, Note_on_c, 0, 66, 71
2, 87360, Note_on_c, 0, 66, 0
2, 87360, Note_on_c, 0, 64, 80
2, 87420, Note_on_c, 0, 64, 0
2, 87420, Note_on_c, 0, 63, 72
2, 87480, Note_on_c, 0, 63, 0
2, 87480, Note_on_c, 0, 61, 72
2, 87540, Note_on_c, 0, 61, 0
2, 87540, Note_on_c, 0, 59, 78
2, 87600, Note_on_c, 0, 59, 0
2, 87600, Note_on_c, 0, 57, 73
2, 87660, Note_on_c, 0, 57, 0
2, 87660, Note_on_c, 0, 56, 76
2, 87720, Note_on_c, 0, 56, 0
2, 87720, Note_on_c, 0, 54, 71
2, 87780, Note_on_c, 0, 54, 0
2, 87840, Note_on_c, 0, 52, 93
2, 88560, Note_on_c, 0, 52, 0
2, 89520, Note_on_c, 0, 59, 83
2, 89760, Note_on_c, 0, 59, 0
2, 89760, Note_on_c, 0, 64, 88
2, 90000, Note_on_c, 0, 64, 0
2, 90000, Note_on_c, 0, 68, 83
2, 90240, Note_on_c, 0, 68, 0
2, 90240, Note_on_c, 0, 76, 89
2, 90480, Note_on_c, 0, 76, 0
2, 90480, Note_on_c, 0, 75, 84
2, 90720, Note_on_c, 0, 75, 0
2, 90720, Note_on_c, 0, 78, 92
2, 90840, Note_on_c, 0, 78, 0
2, 91200, Note_on_c, 0, 76, 84
2, 91920, Note_on_c, 0, 76, 0
2, 91920, Note_on_c, 0, 72, 82
2, 92160, Note_on_c, 0, 72, 0
2, 92160, Note_on_c, 0, 75, 87
2, 92280, Note_on_c, 0, 75, 0
2, 92640, Note_on_c, 0, 69, 85
2, 92640, Note_on_c, 0, 73, 85
2, 92640, Note_on_c, 0, 61, 85
2, 93600, Note_on_c, 0, 61, 0
2, 93600, Note_on_c, 0, 73, 0
2, 93600, Note_on_c, 0, 69, 0
2, 93600, Note_on_c, 0, 59, 82
2, 93600, Note_on_c, 0, 71, 82
2, 93600, Note_on_c, 0, 68, 82
2, 95040, Note_on_c, 0, 68, 0
2, 95040, Note_on_c, 0, 71, 0
2, 95040, Note_on_c, 0, 59, 0
2, 95280, Note_on_c, 0, 59, 57
2, 95520, Note_on_c, 0, 59, 0
2, 95520, Note_on_c, 0, 64, 66
2, 95760, Note_on_c, 0, 64, 0
2, 95760, Note_on_c, 0, 71, 59
2, 96000, Note_on_c, 0, 71, 0
2, 96000, Note_on_c, 0, 83, 72
2, 96240, Note_on_c, 0, 83, 0
2, 96240, Note_on_c, 0, 80, 66
2, 96480, Note_on_c, 0, 80, 0
2, 96480, Note_on_c, 0, 78, 79
2, 96720, Note_on_c, 0, 78, 0
2, 96960, Note_on_c, 0, 66, 58
2, 97200, Note_on_c, 0, 66, 0
2, 97200, Note_on_c, 0, 70, 63
2, 97440, Note_on_c, 0, 70, 0
2, 97440, Note_on_c, 0, 76, 72
2, 97680, Note_on_c, 0, 76, 0
2, 97680, Note_on_c, 0, 75, 65
2, 97920, Note_on_c, 0, 75, 0
2, 97920, Note_on_c, 0, 73, 76
2, 98160, Note_on_c, 0, 73, 0
2, 98280, Note_on_c, 0, 57, 68
2, 98340, Note_on_c, 0, 63, 71
2, 98400, Note_on_c, 0, 71, 78
2, 98760, Note_on_c, 0, 57, 0
2, 98820, Note_on_c, 0, 63, 0
2, 98880, Note_on_c, 0, 71, 0
2, 98880, Note_on_c, 0, 57, 61
2, 98880, Note_on_c, 0, 68, 68
2, 98880, Note_on_c, 0, 63, 61
2, 99360, Note_on_c, 0, 63, 0
2, 99360, Note_on_c, 0, 68, 0
2, 99360, Note_on_c, 0, 57, 0
2, 99360, Note_on_c, 0, 56, 64
2, 99360, Note_on_c, 0, 64, 71
2, 100800, Note_on_c, 0, 64, 0
2, 100800, Note_on_c, 0, 56, 0
2, 100800, Note_on_c, 0, 80, 56
2, 100920, Note_on_c, 0, 80, 0
2, 100920, Note_on_c, 0, 78, 49
2, 101040, Note_on_c, 0, 78, 0
2, 101040, Note_on_c, 0, 76, 55
2, 101160, Note_on_c, 0, 76, 0
2, 101160, Note_on_c, 0, 78, 49
2, 101280, Note_on_c, 0, 78, 0
2, 101280, Note_on_c, 0, 80, 60
2, 101400, Note_on_c, 0, 80, 0
2, 101400, Note_on_c, 0, 81, 52
2, 101520, Note_on_c, 0, 81, 0
2, 101520, Note_on_c, 0, 83, 59
2, 101640, Note_on_c, 0, 83, 0
2, 101640, Note_on_c, 0, 85, 54
2, 101760, Note_on_c, 0, 85, 0
2, 101760, Note_on_c, 0, 87, 63
2, 101880, Note_on_c, 0, 87, 0
2, 101880, Note_on_c, 0, 88, 58
2, 102000, Note_on_c, 0, 88, 0
2, 102000, Note_on_c, 0, 90, 62
2, 102120, Note_on_c, 0, 90, 0
2, 102120, Note_on_c, 0, 92, 58
2, 102240, Note_on_c, 0, 92, 0
2, 102240, Note_on_c, 0, 94, 66
2, 102360, Note_on_c, 0, 94, 0
2, 102720, Note_on_c, 0, 75, 74
2, 103200, Note_on_c, 0, 75, 0
2, 103680, Note_on_c, 0, 78, 55
2, 103800, Note_on_c, 0, 78, 0
2, 103800, Note_on_c, 0, 76, 49
2, 103920, Note_on_c, 0, 76, 0
2, 103920, Note_on_c, 0, 74, 54
2, 104040, Note_on_c, 0, 74, 0
2, 104040, Note_on_c, 0, 76, 47
2, 104160, Note_on_c, 0, 76, 0
2, 104160, Note_on_c, 0, 78, 59
2, 104280, Note_on_c, 0, 78, 0
2, 104280, Note_on_c, 0, 80, 50
2, 104400, Note_on_c, 0, 80, 0
2, 104400, Note_on_c, 0, 81, 58
2, 104520, Note_on_c, 0, 81, 0
2, 104520, Note_on_c, 0, 83, 53
2, 104640, Note_on_c, 0, 83, 0
2, 104640, Note_on_c, 0, 85, 63
2, 104760, Note_on_c, 0, 85, 0
2, 104760, Note_on_c, 0, 86, 57
2, 104880, Note_on_c, 0, 86, 0
2, 104880, Note_on_c, 0, 88, 61
2, 105000, Note_on_c, 0, 88, 0
2, 105000, Note_on_c, 0, 90, 59
2, 105120, Note_on_c, 0, 90, 0
2, 105120, Note_on_c, 0, 92, 68
2, 105240, Note_on_c, 0, 92, 0
2, 105600, Note_on_c, 0, 73, 72
2, 106080, Note_on_c, 0, 73, 0
2, 106560, Note_on_c, 0, 73, 79
2, 106680, Note_on_c, 0, 73, 0
2, 106680, Note_on_c, 0, 71, 61
2, 106800, Note_on_c, 0, 71, 0
2, 106800, Note_on_c, 0, 69, 66
2, 106920, Note_on_c, 0, 69, 0
2, 106920, Note_on_c, 0, 71, 62
2, 107040, Note_on_c, 0, 71, 0
2, 107040, Note_on_c, 0, 73, 71
2, 107160, Note_on_c, 0, 73, 0
2, 107160, Note_on_c, 0, 75, 68
2, 107280, Note_on_c, 0, 75, 0
2, 107280, Note_on_c, 0, 76, 70
2, 107400, Note_on_c, 0, 76, 0
2, 107400, Note_on_c, 0, 78, 68
2, 107520, Note_on_c, 0, 78, 0
2, 107520, Note_on_c, 0, 80, 77
2, 107640, Note_on_c, 0, 80, 0
2, 107640, Note_on_c, 0, 81, 71
2, 107760, Note_on_c, 0, 81, 0
2, 107760, Note_on_c, 0, 83, 78
2, 107880, Note_on_c, 0, 83, 0
2, 107880, Note_on_c, 0, 85, 77
2, 108000, Note_on_c, 0, 85, 0
2, 108000, Note_on_c, 0, 87, 91
2, 108120, Note_on_c, 0, 87, 0
2, 108120, Note_on_c, 0, 88, 75
2, 108240, Note_on_c, 0, 88, 0
2, 108240, Note_on_c, 0, 87, 78
2, 108360, Note_on_c, 0, 87, 0
2, 108360, Note_on_c, 0, 85, 74
2, 108480, Note_on_c, 0, 85, 0
2, 108480, Note_on_c, 0, 83, 82
2, 108600, Note_on_c, 0, 83, 0
2, 108600, Note_on_c, 0, 81, 74
2, 108720, Note_on_c, 0, 81, 0
2, 108720, Note_on_c, 0, 80, 78
2, 108840, Note_on_c, 0, 80, 0
2, 108840, Note_on_c, 0, 78, 75
2, 108960, Note_on_c, 0, 78, 0
2, 108960, Note_on_c, 0, 76, 79
2, 109080, Note_on_c, 0, 76, 0
2, 109080, Note_on_c, 0, 75, 72
2, 109200, Note_on_c, 0, 75, 0
2, 109200, Note_on_c, 0, 73, 78
2, 109320, Note_on_c, 0, 73, 0
2, 109320, Note_on_c, 0, 71, 73
2, 109440, Note_on_c, 0, 71, 0
2, 109440, Note_on_c, 0, 69, 91
2, 109560, Note_on_c, 0, 69, 0
2, 109560, Note_on_c, 0, 68, 75
2, 109680, Note_on_c, 0, 68, 0
2, 109680, Note_on_c, 0, 66, 80
2, 109800, Note_on_c, 0, 66, 0
2, 109800, Note_on_c, 0, 64, 77
2, 109920, Note_on_c, 0, 64, 0
2, 109920, Note_on_c, 0, 63, 85
2, 110040, Note_on_c, 0, 63, 0
2, 110040, Note_on_c, 0, 61, 78
2, 110160, Note_on_c, 0, 61, 0
2, 110160, Note_on_c, 0, 60, 84
2, 110280, Note_on_c, 0, 60, 0
2, 110280, Note_on_c, 0, 57, 80
2, 110400, Note_on_c, 0, 57, 0
2, 110400, Note_on_c, 0, 56, 88
2, 110520, Note_on_c, 0, 56, 0
2, 110520, Note_on_c, 0, 54, 81
2, 110640, Note_on_c, 0, 54, 0
2, 110640, Note_on_c, 0, 52, 87
2, 110760, Note_on_c, 0, 52, 0
2, 110760, Note_on_c, 0, 51, 82
2, 110880, Note_on_c, 0, 51, 0
2, 110880, Note_on_c, 0, 49, 93
2, 111000, Note_on_c, 0, 49, 0
2, 111120, Note_on_c, 0, 61, 81
2, 111120, Note_on_c, 0, 53, 71
2, 111240, Note_on_c, 0, 53, 0
2, 111240, Note_on_c, 0, 61, 0
2, 111360, Note_on_c, 0, 65, 88
2, 111360, Note_on_c, 0, 56, 78
2, 111480, Note_on_c, 0, 56, 0
2, 111480, Note_on_c, 0, 65, 0
2, 111600, Note_on_c, 0, 53, 69
2, 111600, Note_on_c, 0, 61, 79
2, 111720, Note_on_c, 0, 61, 0
2, 111720, Note_on_c, 0, 53, 0
2, 112080, Note_on_c, 0, 53, 78
2, 112080, Note_on_c, 0, 61, 88
2, 112200, Note_on_c, 0, 61, 0
2, 112200, Note_on_c, 0, 53, 0
2, 112560, Note_on_c, 0, 53, 70
2, 112560, Note_on_c, 0, 61, 80
2, 112680, Note_on_c, 0, 61, 0
2, 112680, Note_on_c, 0, 53, 0
2, 112800, Note_on_c, 0, 65, 87
2, 112800, Note_on_c, 0, 56, 77
2, 112920, Note_on_c, 0, 56, 0
2, 112920, Note_on_c, 0, 65, 0
2, 113040, Note_on_c, 0, 53, 71
2, 113040, Note_on_c, 0, 61, 81
2, 113160, Note_on_c, 0, 61, 0
2, 113160, Note_on_c, 0, 53, 0
2, 113520, Note_on_c, 0, 53, 76
2, 113520, Note_on_c, 0, 61, 86
2, 113640, Note_on_c, 0, 61, 0
2, 113640, Note_on_c, 0, 53, 0
2, 114000, Note_on_c, 0, 53, 70
2, 114000, Note_on_c, 0, 61, 80
2, 114120, Note_on_c, 0, 61, 0
2, 114120, Note_on_c, 0, 53, 0
2, 114240, Note_on_c, 0, 65, 86
2, 114240, Note_on_c, 0, 56, 76
2, 114360, Note_on_c, 0, 56, 0
2, 114360, Note_on_c, 0, 65, 0
2, 114480, Note_on_c, 0, 53, 70
2, 114480, Note_on_c, 0, 61, 80
2, 114600, Note_on_c, 0, 61, 0
2, 114600, Note_on_c, 0, 53, 0
2, 114960, Note_on_c, 0, 53, 75
2, 114960, Note_on_c, 0, 61, 85
2, 115080, Note_on_c, 0, 61, 0
2, 115080, Note_on_c, 0, 53, 0
2, 115440, Note_on_c, 0, 53, 70
2, 115440, Note_on_c, 0, 61, 80
2, 115560, Note_on_c, 0, 61, 0
2, 115560, Note_on_c, 0, 53, 0
2, 115680, Note_on_c, 0, 65, 85
2, 115680, Note_on_c, 0, 56, 75
2, 115800, Note_on_c, 0, 56, 0
2, 115800, Note_on_c, 0, 65, 0
2, 115920, Note_on_c, 0, 53, 68
2, 115920, Note_on_c, 0, 61, 78
2, 116040, Note_on_c, 0, 61, 0
2, 116040, Note_on_c, 0, 53, 0
2, 116400, Note_on_c, 0, 53, 71
2, 116400, Note_on_c, 0, 61, 81
2, 116520, Note_on_c, 0, 61, 0
2, 116520, Note_on_c, 0, 53, 0
2, 116880, Note_on_c, 0, 65, 86
2, 117120, Note_on_c, 0, 65, 0
2, 117120, Note_on_c, 0, 73, 86
2, 117360, Note_on_c, 0, 73, 0
2, 117360, Note_on_c, 0, 77, 86
2, 117600, Note_on_c, 0, 77, 0
2, 117600, Note_on_c, 0, 85, 87
2, 117840, Note_on_c, 0, 85, 0
2, 117840, Note_on_c, 0, 84, 88
2, 118080, Note_on_c, 0, 84, 0
2, 118080, Note_on_c, 0, 87, 93
2, 118320, Note_on_c, 0, 87, 0
2, 118560, Note_on_c, 0, 73, 90
2, 118560, Note_on_c, 0, 85, 90
2, 119280, Note_on_c, 0, 85, 0
2, 119280, Note_on_c, 0, 73, 0
2, 119280, Note_on_c, 0, 81, 83
2, 119520, Note_on_c, 0, 81, 0
2, 119520, Note_on_c, 0, 72, 92
2, 119520, Note_on_c, 0, 84, 92
2, 119760, Note_on_c, 0, 84, 0
2, 119760, Note_on_c, 0, 72, 0
2, 120000, Note_on_c, 0, 73, 85
2, 120000, Note_on_c, 0, 85, 85
2, 120000, Note_on_c, 0, 82, 85
2, 120960, Note_on_c, 0, 82, 0
2, 120960, Note_on_c, 0, 85, 0
2, 120960, Note_on_c, 0, 73, 0
2, 120960, Note_on_c, 0, 77, 90
2, 120960, Note_on_c, 0, 80, 90
2, 120960, Note_on_c, 0, 68, 90
2, 122400, Note_on_c, 0, 68, 0
2, 122400, Note_on_c, 0, 80, 0
2, 122400, Note_on_c, 0, 77, 0
2, 122640, Note_on_c, 0, 65, 62
2, 122880, Note_on_c, 0, 65, 0
2, 122880, Note_on_c, 0, 73, 67
2, 123120, Note_on_c, 0, 73, 0
2, 123120, Note_on_c, 0, 80, 58
2, 123360, Note_on_c, 0, 80, 0
2, 123360, Note_on_c, 0, 92, 63
2, 123600, Note_on_c, 0, 92, 0
2, 123600, Note_on_c, 0, 89, 55
2, 123840, Note_on_c, 0, 89, 0
2, 123840, Note_on_c, 0, 87, 62
2, 123840, Note_on_c, 0, 79, 62
2, 124080, Note_on_c, 0, 79, 0
2, 124080, Note_on_c, 0, 87, 0
2, 124320, Note_on_c, 0, 73, 63
2, 124560, Note_on_c, 0, 79, 54
2, 124800, Note_on_c, 0, 79, 0
2, 124800, Note_on_c, 0, 85, 57
2, 125040, Note_on_c, 0, 85, 0
2, 125040, Note_on_c, 0, 84, 53
2, 125280, Note_on_c, 0, 84, 0
2, 125280, Note_on_c, 0, 73, 0
2, 125280, Note_on_c, 0, 72, 59
2, 125280, Note_on_c, 0, 82, 59
2, 125280, Note_on_c, 0, 78, 59
2, 125520, Note_on_c, 0, 78, 0
2, 125520, Note_on_c, 0, 82, 0
2, 125520, Note_on_c, 0, 72, 0
2, 125760, Note_on_c, 0, 80, 55
2, 125760, Note_on_c, 0, 72, 55
2, 125760, Note_on_c, 0, 78, 55
2, 126240, Note_on_c, 0, 78, 0
2, 126240, Note_on_c, 0, 72, 0
2, 126240, Note_on_c, 0, 80, 0
2, 126240, Note_on_c, 0, 72, 54
2, 126240, Note_on_c, 0, 66, 54
2, 126240, Note_on_c, 0, 77, 54
2, 126720, Note_on_c, 0, 77, 0
2, 126720, Note_on_c, 0, 66, 0
2, 126720, Note_on_c, 0, 72, 0
2, 126720, Note_on_c, 0, 65, 56
2, 126720, Note_on_c, 0, 73, 56
2, 126960, Note_on_c, 0, 73, 0
2, 126960, Note_on_c, 0, 65, 0
2, 126960, Note_on_c, 0, 61, 94
2, 126960, Note_on_c, 0, 53, 81
2, 127200, Note_on_c, 0, 53, 0
2, 127200, Note_on_c, 0, 61, 0
2, 127200, Note_on_c, 0, 56, 86
2, 127200, Note_on_c, 0, 65, 99
2, 127440, Note_on_c, 0, 65, 0
2, 127440, Note_on_c, 0, 56, 0
2, 127440, Note_on_c, 0, 53, 79
2, 127440, Note_on_c, 0, 61, 92
2, 127680, Note_on_c, 0, 61, 0
2, 127680, Note_on_c, 0, 53, 0
2, 127920, Note_on_c, 0, 61, 91
2, 127920, Note_on_c, 0, 53, 78
2, 128160, Note_on_c, 0, 53, 0
2, 128160, Note_on_c, 0, 61, 0
2, 128400, Note_on_c, 0, 52, 83
2, 128400, Note_on_c, 0, 61, 96
2, 128640, Note_on_c, 0, 61, 0
2, 128640, Note_on_c, 0, 52, 0
2, 128640, Note_on_c, 0, 64, 99
2, 128640, Note_on_c, 0, 55, 86
2, 128880, Note_on_c, 0, 55, 0
2, 128880, Note_on_c, 0, 64, 0
2, 128880, Note_on_c, 0, 52, 80
2, 128880, Note_on_c, 0, 61, 93
2, 129120, Note_on_c, 0, 61, 0
2, 129120, Note_on_c, 0, 52, 0
2, 129360, Note_on_c, 0, 52, 82
2, 129360, Note_on_c, 0, 61, 95
2, 129600, Note_on_c, 0, 61, 0
2, 129600, Note_on_c, 0, 52, 0
2, 129840, Note_on_c, 0, 53, 41
2, 129840, Note_on_c, 0, 61, 57
2, 130080, Note_on_c, 0, 61, 0
2, 130080, Note_on_c, 0, 53, 0
2, 130080, Note_on_c, 0, 65, 64
2, 130080, Note_on_c, 0, 56, 48
2, 130320, Note_on_c, 0, 56, 0
2, 130320, Note_on_c, 0, 65, 0
2, 130320, Note_on_c, 0, 53, 40
2, 130320, Note_on_c, 0, 61, 56
2, 130560, Note_on_c, 0, 61, 0
2, 130560, Note_on_c, 0, 53, 0
2, 130800, Note_on_c, 0, 53, 43
2, 130800, Note_on_c, 0, 61, 59
2, 131040, Note_on_c, 0, 61, 0
2, 131040, Note_on_c, 0, 53, 0
2, 131280, Note_on_c, 0, 52, 43
2, 131280, Note_on_c, 0, 61, 59
2, 131520, Note_on_c, 0, 61, 0
2, 131520, Note_on_c, 0, 52, 0
2, 131520, Note_on_c, 0, 64, 65
2, 131520, Note_on_c, 0, 55, 49
2, 131760, Note_on_c, 0, 55, 0
2, 131760, Note_on_c, 0, 64, 0
2, 131760, Note_on_c, 0, 61, 58
2, 131760, Note_on_c, 0, 52, 42
2, 132000, Note_on_c, 0, 52, 0
2, 132000, Note_on_c, 0, 61, 0
2, 132240, Note_on_c, 0, 52, 47
2, 132240, Note_on_c, 0, 61, 63
2, 132480, Note_on_c, 0, 61, 0
2, 132480, Note_on_c, 0, 52, 0
2, 132480, Note_on_c, 0, 51, 66
2, 132525, Note_on_c, 0, 56, 67
2, 132585, Note_on_c, 0, 60, 70
2, 132630, Note_on_c, 0, 63, 74
2, 132705, Note_on_c, 0, 60, 0
2, 132720, Note_on_c, 0, 51, 0
2, 132720, Note_on_c, 0, 60, 75
2, 132765, Note_on_c, 0, 56, 0
2, 132870, Note_on_c, 0, 63, 0
2, 132960, Note_on_c, 0, 60, 0
2, 132960, Note_on_c, 0, 68, 74
2, 133200, Note_on_c, 0, 68, 0
2, 133200, Note_on_c, 0, 72, 78
2, 133440, Note_on_c, 0, 72, 0
2, 133440, Note_on_c, 0, 80, 75
2, 133680, Note_on_c, 0, 80, 0
2, 133680, Note_on_c, 0, 79, 82
2, 133920, Note_on_c, 0, 79, 0
2, 133920, Note_on_c, 0, 82, 81
2, 134160, Note_on_c, 0, 82, 0
2, 134400, Note_on_c, 0, 80, 74
2, 135360, Note_on_c, 0, 80, 0
2, 135600, Note_on_c, 0, 64, 47
2, 135840, Note_on_c, 0, 64, 0
2, 135840, Note_on_c, 0, 69, 52
2, 136080, Note_on_c, 0, 69, 0
2, 136080, Note_on_c, 0, 76, 50
2, 136320, Note_on_c, 0, 76, 0
2, 136320, Note_on_c, 0, 81, 46
2, 136560, Note_on_c, 0, 81, 0
2, 136560, Note_on_c, 0, 80, 51
2, 136800, Note_on_c, 0, 80, 0
2, 136800, Note_on_c, 0, 83, 61
2, 136920, Note_on_c, 0, 83, 0
2, 137280, Note_on_c, 0, 81, 52
2, 138240, Note_on_c, 0, 81, 0
2, 138480, Note_on_c, 0, 62, 74
2, 138720, Note_on_c, 0, 62, 0
2, 138720, Note_on_c, 0, 70, 80
2, 138960, Note_on_c, 0, 70, 0
2, 138960, Note_on_c, 0, 74, 79
2, 139200, Note_on_c, 0, 74, 0
2, 139200, Note_on_c, 0, 82, 83
2, 139440, Note_on_c, 0, 82, 0
2, 139440, Note_on_c, 0, 94, 81
2, 139680, Note_on_c, 0, 94, 0
2, 139920, Note_on_c, 0, 63, 78
2, 140160, Note_on_c, 0, 63, 0
2, 140160, Note_on_c, 0, 71, 80
2, 140400, Note_on_c, 0, 71, 0
2, 140400, Note_on_c, 0, 75, 82
2, 140640, Note_on_c, 0, 75, 0
2, 140640, Note_on_c, 0, 83, 82
2, 140880, Note_on_c, 0, 83, 0
2, 140880, Note_on_c, 0, 95, 87
2, 141120, Note_on_c, 0, 95, 0
2, 141120, Note_on_c, 0, 84, 84
2, 141150, Control_c, 0, 64, 127
2, 141180, Note_on_c, 0, 85, 76
2, 141210, Note_on_c, 0, 84, 0
2, 141240, Note_on_c, 0, 84, 81
2, 141270, Note_on_c, 0, 85, 0
2, 141300, Note_on_c, 0, 85, 74
2, 141330, Note_on_c, 0, 84, 0
2, 141360, Note_on_c, 0, 84, 78
2, 141390, Note_on_c, 0, 85, 0
2, 141420, Note_on_c, 0, 85, 72
2, 141450, Note_on_c, 0, 84, 0
2, 141480, Note_on_c, 0, 84, 76
2, 141510, Note_on_c, 0, 85, 0
2, 141540, Note_on_c, 0, 85, 71
2, 141570, Note_on_c, 0, 84, 0
2, 141600, Note_on_c, 0, 84, 77
2, 141630, Note_on_c, 0, 85, 0
2, 141660, Note_on_c, 0, 85, 68
2, 141690, Note_on_c, 0, 84, 0
2, 141720, Note_on_c, 0, 84, 78
2, 141750, Note_on_c, 0, 85, 0
2, 141780, Note_on_c, 0, 85, 70
2, 141810, Note_on_c, 0, 84, 0
2, 141840, Note_on_c, 0, 84, 76
2, 141870, Note_on_c, 0, 85, 0
2, 141900, Note_on_c, 0, 85, 71
2, 141930, Note_on_c, 0, 84, 0
2, 141960, Note_on_c, 0, 84, 77
2, 141990, Note_on_c, 0, 85, 0
2, 142020, Note_on_c, 0, 85, 72
2, 142050, Note_on_c, 0, 84, 0
2, 142080, Note_on_c, 0, 84, 76
2, 142110, Note_on_c, 0, 85, 0
2, 142140, Note_on_c, 0, 85, 68
2, 142170, Note_on_c, 0, 84, 0
2, 142200, Note_on_c, 0, 84, 76
2, 142230, Note_on_c, 0, 85, 0
2, 142260, Note_on_c, 0, 85, 69
2, 142290, Note_on_c, 0, 84, 0
2, 142320, Note_on_c, 0, 84, 74
2, 142350, Note_on_c, 0, 85, 0
2, 142380, Note_on_c, 0, 85, 71
2, 142410, Note_on_c, 0, 84, 0
2, 142440, Note_on_c, 0, 84, 77
2, 142470, Note_on_c, 0, 85, 0
2, 142500, Control_c, 0, 64, 0
2, 142530, Note_on_c, 0, 84, 0
2, 142530, Note_on_c, 0, 82, 52
2, 142560, Note_on_c, 0, 72, 64
2, 142590, Note_on_c, 0, 82, 0
2, 142635, Control_c, 0, 64, 127
2, 142650, Note_on_c, 0, 73, 59
2, 142695, Note_on_c, 0, 72, 0
2, 142740, Note_on_c, 0, 75, 61
2, 142785, Note_on_c, 0, 73, 0
2, 142830, Note_on_c, 0, 77, 69
2, 142875, Note_on_c, 0, 75, 0
2, 142920, Note_on_c, 0, 78, 65
2, 142965, Note_on_c, 0, 77, 0
2, 143010, Note_on_c, 0, 80, 67
2, 143055, Note_on_c, 0, 78, 0
2, 143100, Note_on_c, 0, 82, 74
2, 143145, Note_on_c, 0, 80, 0
2, 143190, Note_on_c, 0, 84, 69
2, 143235, Note_on_c, 0, 82, 0
2, 143280, Note_on_c, 0, 85, 72
2, 143325, Note_on_c, 0, 84, 0
2, 143370, Note_on_c, 0, 87, 79
2, 143415, Note_on_c, 0, 85, 0
2, 143460, Note_on_c, 0, 89, 74
2, 143505, Note_on_c, 0, 87, 0
2, 143550, Note_on_c, 0, 90, 77
2, 143595, Note_on_c, 0, 89, 0
2, 143640, Note_on_c, 0, 92, 84
2, 143685, Note_on_c, 0, 90, 0
2, 143730, Note_on_c, 0, 94, 80
2, 143775, Note_on_c, 0, 92, 0
2, 143820, Note_on_c, 0, 96, 81
2, 143865, Note_on_c, 0, 94, 0
2, 143940, Control_c, 0, 64, 0
2, 143955, Note_on_c, 0, 96, 0
2, 144000, Note_on_c, 0, 85, 91
2, 144240, Note_on_c, 0, 85, 0
2, 144240, Note_on_c, 0, 84, 84
2, 144240, Note_on_c, 0, 80, 77
2, 144360, Note_on_c, 0, 80, 0
2, 144360, Note_on_c, 0, 84, 0
2, 144480, Note_on_c, 0, 85, 90
2, 144480, Note_on_c, 0, 77, 83
2, 144600, Note_on_c, 0, 77, 0
2, 144600, Note_on_c, 0, 85, 0
2, 144720, Note_on_c, 0, 84, 82
2, 144720, Note_on_c, 0, 80, 75
2, 144840, Note_on_c, 0, 80, 0
2, 144840, Note_on_c, 0, 84, 0
2, 144960, Note_on_c, 0, 82, 88
2, 144960, Note_on_c, 0, 77, 81
2, 145080, Note_on_c, 0, 77, 0
2, 145080, Note_on_c, 0, 82, 0
2, 145200, Note_on_c, 0, 84, 81
2, 145200, Note_on_c, 0, 80, 74
2, 145320, Note_on_c, 0, 80, 0
2, 145320, Note_on_c, 0, 84, 0
2, 145440, Note_on_c, 0, 85, 89
2, 145440, Note_on_c, 0, 77, 82
2, 145560, Note_on_c, 0, 77, 0
2, 145560, Note_on_c, 0, 85, 0
2, 145680, Note_on_c, 0, 80, 72
2, 145680, Note_on_c, 0, 84, 79
2, 145800, Note_on_c, 0, 84, 0
2, 145800, Note_on_c, 0, 80, 0
2, 145920, Note_on_c, 0, 82, 84
2, 145920, Note_on_c, 0, 77, 77
2, 146040, Note_on_c, 0, 77, 0
2, 146040, Note_on_c, 0, 82, 0
2, 146160, Note_on_c, 0, 80, 78
2, 146280, Note_on_c, 0, 80, 0
2, 146400, Note_on_c, 0, 73, 79
2, 146400, Note_on_c, 0, 78, 86
2, 146520, Note_on_c, 0, 78, 0
2, 146520, Note_on_c, 0, 73, 0
2, 146640, Note_on_c, 0, 77, 81
2, 146760, Note_on_c, 0, 77, 0
2, 146880, Note_on_c, 0, 78, 88
2, 146880, Note_on_c, 0, 70, 62
2, 147000, Note_on_c, 0, 78, 0
2, 147120, Note_on_c, 0, 80, 89
2, 147240, Note_on_c, 0, 80, 0
2, 147360, Note_on_c, 0, 70, 0
2, 147360, Note_on_c, 0, 73, 82
2, 147360, Note_on_c, 0, 78, 82
2, 147360, Note_on_c, 0, 82, 89
2, 147840, Note_on_c, 0, 82, 0
2, 147840, Note_on_c, 0, 78, 0
2, 147840, Note_on_c, 0, 73, 0
2, 147840, Note_on_c, 0, 72, 90
2, 147840, Note_on_c, 0, 78, 90
2, 147840, Note_on_c, 0, 84, 97
2, 148320, Note_on_c, 0, 84, 0
2, 148320, Note_on_c, 0, 78, 0
2, 148320, Note_on_c, 0, 72, 0
2, 148320, Note_on_c, 0, 80, 101
2, 148320, Note_on_c, 0, 73, 94
2, 148320, Note_on_c, 0, 77, 94
2, 149760, Note_on_c, 0, 77, 0
2, 149760, Note_on_c, 0, 73, 0
2, 149760, Note_on_c, 0, 80, 0
2, 149760, Note_on_c, 0, 82, 96
2, 149760, Note_on_c, 0, 77, 86
2, 149880, Note_on_c, 0, 77, 0
2, 149880, Note_on_c, 0, 82, 0
2, 150000, Note_on_c, 0, 80, 87
2, 150000, Note_on_c, 0, 73, 77
2, 150120, Note_on_c, 0, 73, 0
2, 150120, Note_on_c, 0, 80, 0
2, 150240, Note_on_c, 0, 82, 95
2, 150240, Note_on_c, 0, 77, 85
2, 150360, Note_on_c, 0, 77, 0
2, 150360, Note_on_c, 0, 82, 0
2, 150480, Note_on_c, 0, 80, 86
2, 150480, Note_on_c, 0, 73, 76
2, 150600, Note_on_c, 0, 73, 0
2, 150600, Note_on_c, 0, 80, 0
2, 150720, Note_on_c, 0, 78, 95
2, 150720, Note_on_c, 0, 73, 85
2, 150840, Note_on_c, 0, 73, 0
2, 150840, Note_on_c, 0, 78, 0
2, 150960, Note_on_c, 0, 68, 77
2, 150960, Note_on_c, 0, 77, 87
2, 151080, Note_on_c, 0, 77, 0
2, 151080, Note_on_c, 0, 68, 0
2, 151200, Note_on_c, 0, 78, 95
2, 151200, Note_on_c, 0, 73, 85
2, 151320, Note_on_c, 0, 73, 0
2, 151320, Note_on_c, 0, 78, 0
2, 151440, Note_on_c, 0, 70, 77
2, 151440, Note_on_c, 0, 77, 87
2, 151560, Note_on_c, 0, 77, 0
2, 151560, Note_on_c, 0, 70, 0
2, 151680, Note_on_c, 0, 75, 94
2, 151680, Note_on_c, 0, 70, 84
2, 151800, Note_on_c, 0, 70, 0
2, 151800, Note_on_c, 0, 75, 0
2, 151920, Note_on_c, 0, 65, 76
2, 151920, Note_on_c, 0, 73, 86
2, 152040, Note_on_c, 0, 73, 0
2, 152040, Note_on_c, 0, 65, 0
2, 152160, Note_on_c, 0, 65, 84
2, 152160, Note_on_c, 0, 72, 94
2, 152280, Note_on_c, 0, 72, 0
2, 152280, Note_on_c, 0, 65, 0
2, 152400, Note_on_c, 0, 61, 76
2, 152400, Note_on_c, 0, 70, 86
2, 152520, Note_on_c, 0, 70, 0
2, 152520, Note_on_c, 0, 61, 0
2, 152640, Note_on_c, 0, 68, 93
2, 152640, Note_on_c, 0, 58, 89
2, 152760, Note_on_c, 0, 68, 0
2, 152880, Note_on_c, 0, 66, 85
2, 152880, Note_on_c, 0, 63, 75
2, 153000, Note_on_c, 0, 63, 0
2, 153000, Note_on_c, 0, 66, 0
2, 153120, Note_on_c, 0, 58, 0
2, 153120, Note_on_c, 0, 61, 89
2, 153120, Note_on_c, 0, 65, 93
2, 153600, Note_on_c, 0, 65, 0
2, 153600, Note_on_c, 0, 61, 0
2, 153600, Note_on_c, 0, 54, 84
2, 153600, Note_on_c, 0, 63, 88
2, 153600, Note_on_c, 0, 60, 84
2, 154080, Note_on_c, 0, 60, 0
2, 154080, Note_on_c, 0, 63, 0
2, 154080, Note_on_c, 0, 54, 0
2, 154080, Note_on_c, 0, 61, 88
2, 154080, Note_on_c, 0, 53, 88
2, 154800, Note_on_c, 0, 53, 0
2, 154800, Note_on_c, 0, 61, 0
2, 154800, Note_on_c, 0, 75, 73
2, 154920, Note_on_c, 0, 75, 0
2, 154920, Note_on_c, 0, 77, 77
2, 155040, Note_on_c, 0, 77, 0
2, 155040, Note_on_c, 0, 78, 87
2, 155160, Note_on_c, 0, 78, 0
2, 155160, Note_on_c, 0, 80, 81
2, 155280, Note_on_c, 0, 80, 0
2, 155280, Note_on_c, 0, 82, 87
2, 155400, Note_on_c, 0, 82, 0
2, 155400, Note_on_c, 0, 84, 85
2, 155520, Note_on_c, 0, 84, 0
2, 155520, Note_on_c, 0, 77, 84
2, 155520, Note_on_c, 0, 85, 94
2, 155640, Note_on_c, 0, 85, 0
2, 155640, Note_on_c, 0, 77, 0
2, 155760, Note_on_c, 0, 84, 87
2, 155760, Note_on_c, 0, 80, 77
2, 155880, Note_on_c, 0, 80, 0
2, 155880, Note_on_c, 0, 84, 0
2, 156000, Note_on_c, 0, 85, 93
2, 156000, Note_on_c, 0, 77, 83
2, 156120, Note_on_c, 0, 77, 0
2, 156120, Note_on_c, 0, 85, 0
2, 156240, Note_on_c, 0, 84, 91
2, 156240, Note_on_c, 0, 80, 81
2, 156360, Note_on_c, 0, 80, 0
2, 156360, Note_on_c, 0, 84, 0
2, 156480, Note_on_c, 0, 82, 93
2, 156480, Note_on_c, 0, 77, 83
2, 156600, Note_on_c, 0, 77, 0
2, 156600, Note_on_c, 0, 82, 0
2, 156720, Note_on_c, 0, 84, 96
2, 156720, Note_on_c, 0, 80, 86
2, 156840, Note_on_c, 0, 80, 0
2, 156840, Note_on_c, 0, 84, 0
2, 156960, Note_on_c, 0, 85, 96
2, 156960, Note_on_c, 0, 77, 79
2, 157080, Note_on_c, 0, 77, 0
2, 157080, Note_on_c, 0, 85, 0
2, 157200, Note_on_c, 0, 80, 69
2, 157200, Note_on_c, 0, 84, 86
2, 157320, Note_on_c, 0, 84, 0
2, 157320, Note_on_c, 0, 80, 0
2, 157440, Note_on_c, 0, 82, 91
2, 157440, Note_on_c, 0, 77, 74
2, 157560, Note_on_c, 0, 77, 0
2, 157560, Note_on_c, 0, 82, 0
2, 157680, Note_on_c, 0, 80, 85
2, 157800, Note_on_c, 0, 80, 0
2, 157920, Note_on_c, 0, 73, 76
2, 157920, Note_on_c, 0, 78, 93
2, 158040, Note_on_c, 0, 78, 0
2, 158040, Note_on_c, 0, 73, 0
2, 158160, Note_on_c, 0, 77, 88
2, 158280, Note_on_c, 0, 77, 0
2, 158400, Note_on_c, 0, 78, 88
2, 158400, Note_on_c, 0, 70, 62
2, 158520, Note_on_c, 0, 78, 0
2, 158640, Note_on_c, 0, 80, 89
2, 158760, Note_on_c, 0, 80, 0
2, 158880, Note_on_c, 0, 70, 0
2, 158880, Note_on_c, 0, 73, 82
2, 158880, Note_on_c, 0, 78, 82
2, 158880, Note_on_c, 0, 82, 89
2, 159360, Note_on_c, 0, 82, 0
2, 159360, Note_on_c, 0, 78, 0
2, 159360, Note_on_c, 0, 73, 0
2, 159360, Note_on_c, 0, 72, 90
2, 159360, Note_on_c, 0, 78, 90
2, 159360, Note_on_c, 0, 84, 97
2, 159840, Note_on_c, 0, 84, 0
2, 159840, Note_on_c, 0, 78, 0
2, 159840, Note_on_c, 0, 72, 0
2, 159840, Note_on_c, 0, 80, 101
2, 159840, Note_on_c, 0, 73, 94
2, 159840, Note_on_c, 0, 77, 94
2, 161280, Note_on_c, 0, 77, 0
2, 161280, Note_on_c, 0, 73, 0
2, 161280, Note_on_c, 0, 80, 0
2, 161280, Note_on_c, 0, 82, 61
2, 161280, Note_on_c, 0, 77, 52
2, 161400, Note_on_c, 0, 77, 0
2, 161400, Note_on_c, 0, 82, 0
2, 161520, Note_on_c, 0, 80, 52
2, 161520, Note_on_c, 0, 73, 43
2, 161640, Note_on_c, 0, 73, 0
2, 161640, Note_on_c, 0, 80, 0
2, 161760, Note_on_c, 0, 82, 60
2, 161760, Note_on_c, 0, 77, 51
2, 161880, Note_on_c, 0, 77, 0
2, 161880, Note_on_c, 0, 82, 0
2, 162000, Note_on_c, 0, 80, 51
2, 162000, Note_on_c, 0, 73, 42
2, 162120, Note_on_c, 0, 73, 0
2, 162120, Note_on_c, 0, 80, 0
2, 162240, Note_on_c, 0, 78, 60
2, 162240, Note_on_c, 0, 73, 51
2, 162360, Note_on_c, 0, 73, 0
2, 162360, Note_on_c, 0, 78, 0
2, 162480, Note_on_c, 0, 68, 43
2, 162480, Note_on_c, 0, 77, 52
2, 162600, Note_on_c, 0, 77, 0
2, 162600, Note_on_c, 0, 68, 0
2, 162720, Note_on_c, 0, 78, 60
2, 162720, Note_on_c, 0, 73, 51
2, 162840, Note_on_c, 0, 73, 0
2, 162840, Note_on_c, 0, 78, 0
2, 162960, Note_on_c, 0, 70, 43
2, 162960, Note_on_c, 0, 77, 52
2, 163080, Note_on_c, 0, 77, 0
2, 163080, Note_on_c, 0, 70, 0
2, 163200, Note_on_c, 0, 75, 59
2, 163200, Note_on_c, 0, 70, 50
2, 163320, Note_on_c, 0, 70, 0
2, 163320, Note_on_c, 0, 75, 0
2, 163440, Note_on_c, 0, 65, 42
2, 163440, Note_on_c, 0, 73, 51
2, 163560, Note_on_c, 0, 73, 0
2, 163560, Note_on_c, 0, 65, 0
2, 163680, Note_on_c, 0, 65, 50
2, 163680, Note_on_c, 0, 72, 59
2, 163800, Note_on_c, 0, 72, 0
2, 163800, Note_on_c, 0, 65, 0
2, 163920, Note_on_c, 0, 61, 42
2, 163920, Note_on_c, 0, 70, 51
2, 164040, Note_on_c, 0, 70, 0
2, 164040, Note_on_c, 0, 61, 0
2, 164160, Note_on_c, 0, 68, 58
2, 164160, Note_on_c, 0, 58, 49
2, 164280, Note_on_c, 0, 68, 0
2, 164400, Note_on_c, 0, 66, 50
2, 164400, Note_on_c, 0, 63, 41
2, 164520, Note_on_c, 0, 63, 0
2, 164520, Note_on_c, 0, 66, 0
2, 164640, Note_on_c, 0, 58, 0
2, 164640, Note_on_c, 0, 61, 49
2, 164640, Note_on_c, 0, 65, 58
2, 165120, Note_on_c, 0, 65, 0
2, 165120, Note_on_c, 0, 61, 0
2, 165120, Note_on_c, 0, 54, 44
2, 165120, Note_on_c, 0, 63, 53
2, 165120, Note_on_c, 0, 60, 44
2, 165600, Note_on_c, 0, 60, 0
2, 165600, Note_on_c, 0, 63, 0
2, 165600, Note_on_c, 0, 54, 0
2, 165600, Note_on_c, 0, 53, 49
2, 165600, Note_on_c, 0, 61, 48
2, 166320, Note_on_c, 0, 61, 0
2, 166320, Note_on_c, 0, 53, 0
2, 166560, Note_on_c, 0, 68, 73
2, 166680, Note_on_c, 0, 68, 0
2, 166680, Note_on_c, 0, 70, 69
2, 166800, Note_on_c, 0, 70, 0
2, 166800, Note_on_c, 0, 72, 79
2, 166920, Note_on_c, 0, 72, 0
2, 166920, Note_on_c, 0, 73, 75
2, 167040, Note_on_c, 0, 73, 0
2, 167040, Note_on_c, 0, 75, 83
2, 167200, Note_on_c, 0, 75, 0
2, 167200, Note_on_c, 0, 77, 86
2, 167360, Note_on_c, 0, 77, 0
2, 167360, Note_on_c, 0, 75, 80
2, 167520, Note_on_c, 0, 75, 0
2, 167520, Note_on_c, 0, 68, 83
2, 167680, Note_on_c, 0, 68, 0
2, 167840, Note_on_c, 0, 72, 77
2, 168000, Note_on_c, 0, 72, 0
2, 168000, Note_on_c, 0, 73, 88
2, 168160, Note_on_c, 0, 73, 0
2, 168160, Note_on_c, 0, 75, 82
2, 168320, Note_on_c, 0, 75, 0
2, 168320, Note_on_c, 0, 77, 83
2, 168480, Note_on_c, 0, 77, 0
2, 168480, Note_on_c, 0, 75, 64
2, 168640, Note_on_c, 0, 75, 0
2, 168640, Note_on_c, 0, 77, 60
2, 168800, Note_on_c, 0, 77, 0
2, 168800, Note_on_c, 0, 75, 59
2, 168960, Note_on_c, 0, 75, 0
2, 168960, Note_on_c, 0, 68, 59
2, 169120, Note_on_c, 0, 68, 0
2, 169280, Note_on_c, 0, 72, 71
2, 169440, Note_on_c, 0, 72, 0
2, 169440, Note_on_c, 0, 73, 67
2, 169600, Note_on_c, 0, 73, 0
2, 169600, Note_on_c, 0, 75, 63
2, 169760, Note_on_c, 0, 75, 0
2, 169760, Note_on_c, 0, 77, 72
2, 169920, Note_on_c, 0, 77, 0
2, 169920, Note_on_c, 0, 75, 67
2, 170080, Note_on_c, 0, 75, 0
2, 170080, Note_on_c, 0, 77, 73
2, 170240, Note_on_c, 0, 77, 0
2, 170240, Note_on_c, 0, 78, 68
2, 170400, Note_on_c, 0, 78, 0
2, 170400, Note_on_c, 0, 80, 68
2, 170560, Note_on_c, 0, 80, 0
2, 170560, Note_on_c, 0, 82, 60
2, 170720, Note_on_c, 0, 82, 0
2, 170720, Note_on_c, 0, 84, 63
2, 170880, Note_on_c, 0, 84, 0
2, 170880, Note_on_c, 0, 85, 57
2, 171040, Note_on_c, 0, 85, 0
2, 171040, Note_on_c, 0, 87, 56
2, 171200, Note_on_c, 0, 87, 0
2, 171200, Note_on_c, 0, 89, 60
2, 171360, Note_on_c, 0, 89, 0
2, 171360, Note_on_c, 0, 90, 56
2, 171520, Note_on_c, 0, 90, 0
2, 171520, Note_on_c, 0, 89, 56
2, 171680, Note_on_c, 0, 89, 0
2, 171680, Note_on_c, 0, 87, 52
2, 171840, Note_on_c, 0, 87, 0
2, 171840, Note_on_c, 0, 85, 55
2, 172000, Note_on_c, 0, 85, 0
2, 172000, Note_on_c, 0, 84, 49
2, 172160, Note_on_c, 0, 84, 0
2, 172160, Note_on_c, 0, 82, 48
2, 172320, Note_on_c, 0, 82, 0
2, 172320, Note_on_c, 0, 80, 56
2, 172480, Note_on_c, 0, 80, 0
2, 172480, Note_on_c, 0, 78, 54
2, 172640, Note_on_c, 0, 78, 0
2, 172640, Note_on_c, 0, 77, 60
2, 172800, Note_on_c, 0, 77, 0
2, 172800, Note_on_c, 0, 75, 74
2, 172960, Note_on_c, 0, 75, 0
2, 172960, Note_on_c, 0, 77, 78
2, 173120, Note_on_c, 0, 77, 0
2, 173120, Note_on_c, 0, 75, 74
2, 173280, Note_on_c, 0, 75, 0
2, 173280, Note_on_c, 0, 68, 73
2, 173440, Note_on_c, 0, 68, 0
2, 173600, Note_on_c, 0, 72, 66
2, 173760, Note_on_c, 0, 72, 0
2, 173760, Note_on_c, 0, 73, 61
2, 173920, Note_on_c, 0, 73, 0
2, 173920, Note_on_c, 0, 75, 58
2, 174080, Note_on_c, 0, 75, 0
2, 174080, Note_on_c, 0, 77, 65
2, 174240, Note_on_c, 0, 77, 0
2, 174240, Note_on_c, 0, 78, 64
2, 174400, Note_on_c, 0, 78, 0
2, 174400, Note_on_c, 0, 80, 51
2, 174560, Note_on_c, 0, 80, 0
2, 174560, Note_on_c, 0, 78, 56
2, 174720, Note_on_c, 0, 78, 0
2, 174720, Note_on_c, 0, 73, 63
2, 174880, Note_on_c, 0, 73, 0
2, 175040, Note_on_c, 0, 75, 63
2, 175200, Note_on_c, 0, 75, 0
2, 175200, Note_on_c, 0, 77, 64
2, 175360, Note_on_c, 0, 77, 0
2, 175360, Note_on_c, 0, 78, 56
2, 175520, Note_on_c, 0, 78, 0
2, 175520, Note_on_c, 0, 80, 57
2, 175680, Note_on_c, 0, 80, 0
2, 175680, Note_on_c, 0, 81, 54
2, 175840, Note_on_c, 0, 81, 0
2, 175840, Note_on_c, 0, 83, 63
2, 176000, Note_on_c, 0, 83, 0
2, 176000, Note_on_c, 0, 81, 55
2, 176160, Note_on_c, 0, 81, 0
2, 176160, Note_on_c, 0, 76, 60
2, 176320, Note_on_c, 0, 76, 0
2, 176480, Note_on_c, 0, 78, 56
2, 176640, Note_on_c, 0, 78, 0
2, 176640, Note_on_c, 0, 80, 56
2, 176760, Note_on_c, 0, 80, 0
2, 176760, Note_on_c, 0, 81, 50
2, 176880, Note_on_c, 0, 82, 56
2, 176920, Note_on_c, 0, 81, 0
2, 177000, Note_on_c, 0, 83, 59
2, 177040, Note_on_c, 0, 82, 0
2, 177160, Note_on_c, 0, 83, 0
2, 177360, Note_on_c, 0, 84, 61
2, 177420, Note_on_c, 0, 85, 50
2, 177465, Note_on_c, 0, 84, 0
2, 177480, Note_on_c, 0, 84, 58
2, 177525, Note_on_c, 0, 85, 0
2, 177540, Note_on_c, 0, 85, 49
2, 177585, Note_on_c, 0, 84, 0
2, 177600, Note_on_c, 0, 84, 55
2, 177645, Note_on_c, 0, 85, 0
2, 177660, Note_on_c, 0, 85, 45
2, 177705, Note_on_c, 0, 84, 0
2, 177720, Note_on_c, 0, 84, 49
2, 177765, Note_on_c, 0, 85, 0
2, 177780, Note_on_c, 0, 85, 43
2, 177825, Note_on_c, 0, 84, 0
2, 177840, Note_on_c, 0, 84, 50
2, 177885, Note_on_c, 0, 85, 0
2, 177900, Note_on_c, 0, 85, 43
2, 177945, Note_on_c, 0, 84, 0
2, 177960, Note_on_c, 0, 84, 49
2, 178005, Note_on_c, 0, 85, 0
2, 178020, Note_on_c, 0, 85, 42
2, 178065, Note_on_c, 0, 84, 0
2, 178080, Note_on_c, 0, 84, 48
2, 178125, Note_on_c, 0, 85, 0
2, 178140, Note_on_c, 0, 85, 39
2, 178185, Note_on_c, 0, 84, 0
2, 178200, Note_on_c, 0, 84, 48
2, 178245, Note_on_c, 0, 85, 0
2, 178260, Note_on_c, 0, 85, 38
2, 178305, Note_on_c, 0, 84, 0
2, 178320, Note_on_c, 0, 84, 42
2, 178365, Note_on_c, 0, 85, 0
2, 178380, Note_on_c, 0, 85, 36
2, 178425, Note_on_c, 0, 84, 0
2, 178440, Note_on_c, 0, 82, 52
2, 178485, Note_on_c, 0, 85, 0
2, 178500, Note_on_c, 0, 84, 55
2, 178545, Note_on_c, 0, 82, 0
2, 178560, Note_on_c, 0, 85, 60
2, 178560, Note_on_c, 0, 81, 60
2, 178605, Note_on_c, 0, 84, 0
2, 178800, Note_on_c, 0, 81, 0
2, 178800, Note_on_c, 0, 85, 0
2, 178800, Note_on_c, 0, 76, 52
2, 178800, Note_on_c, 0, 83, 52
2, 179040, Note_on_c, 0, 83, 0
2, 179040, Note_on_c, 0, 76, 0
2, 179040, Note_on_c, 0, 85, 56
2, 179040, Note_on_c, 0, 81, 56
2, 179280, Note_on_c, 0, 81, 0
2, 179280, Note_on_c, 0, 85, 0
2, 179280, Note_on_c, 0, 76, 48
2, 179280, Note_on_c, 0, 83, 48
2, 179520, Note_on_c, 0, 83, 0
2, 179520, Note_on_c, 0, 76, 0
2, 179520, Note_on_c, 0, 73, 55
2, 179520, Note_on_c, 0, 81, 55
2, 179760, Note_on_c, 0, 81, 0
2, 179760, Note_on_c, 0, 73, 0
2, 179760, Note_on_c, 0, 76, 45
2, 179760, Note_on_c, 0, 83, 45
2, 180000, Note_on_c, 0, 83, 0
2, 180000, Note_on_c, 0, 76, 0
2, 180000, Note_on_c, 0, 85, 51
2, 180000, Note_on_c, 0, 81, 54
2, 180240, Note_on_c, 0, 81, 0
2, 180240, Note_on_c, 0, 85, 0
2, 180240, Note_on_c, 0, 76, 47
2, 180240, Note_on_c, 0, 83, 47
2, 180480, Note_on_c, 0, 83, 0
2, 180480, Note_on_c, 0, 76, 0
2, 180480, Note_on_c, 0, 81, 53
2, 180480, Note_on_c, 0, 85, 53
2, 180960, Note_on_c, 0, 85, 0
2, 180960, Note_on_c, 0, 81, 0
2, 180960, Note_on_c, 0, 87, 49
2, 180960, Note_on_c, 0, 83, 49
2, 181440, Note_on_c, 0, 83, 0
2, 181440, Note_on_c, 0, 87, 0
2, 181440, Note_on_c, 0, 85, 82
2, 181440, Note_on_c, 0, 89, 82
2, 181680, Note_on_c, 0, 89, 0
2, 181680, Note_on_c, 0, 85, 0
2, 181680, Note_on_c, 0, 80, 72
2, 181680, Note_on_c, 0, 87, 72
2, 181920, Note_on_c, 0, 87, 0
2, 181920, Note_on_c, 0, 80, 0
2, 181920, Note_on_c, 0, 77, 81
2, 181920, Note_on_c, 0, 85, 81
2, 182160, Note_on_c, 0, 85, 0
2, 182160, Note_on_c, 0, 77, 0
2, 182160, Note_on_c, 0, 87, 71
2, 182160, Note_on_c, 0, 80, 71
2, 182400, Note_on_c, 0, 80, 0
2, 182400, Note_on_c, 0, 87, 0
2, 182400, Note_on_c, 0, 89, 80
2, 182400, Note_on_c, 0, 85, 80
2, 182640, Note_on_c, 0, 85, 0
2, 182640, Note_on_c, 0, 89, 0
2, 182640, Note_on_c, 0, 92, 70
2, 182640, Note_on_c, 0, 87, 70
2, 182880, Note_on_c, 0, 87, 0
2, 182880, Note_on_c, 0, 92, 0
2, 182880, Note_on_c, 0, 89, 81
2, 182880, Note_on_c, 0, 85, 81
2, 183120, Note_on_c, 0, 85, 0
2, 183120, Note_on_c, 0, 89, 0
2, 183120, Note_on_c, 0, 80, 66
2, 183120, Note_on_c, 0, 87, 66
2, 183360, Note_on_c, 0, 87, 0
2, 183360, Note_on_c, 0, 80, 0
2, 183360, Note_on_c, 0, 85, 71
2, 183360, Note_on_c, 0, 77, 71
2, 183840, Note_on_c, 0, 77, 0
2, 183840, Note_on_c, 0, 85, 0
2, 183840, Note_on_c, 0, 83, 60
2, 183840, Note_on_c, 0, 75, 60
2, 184320, Note_on_c, 0, 75, 0
2, 184320, Note_on_c, 0, 83, 0
2, 184320, Note_on_c, 0, 73, 56
2, 184320, Note_on_c, 0, 81, 56
2, 184560, Note_on_c, 0, 81, 0
2, 184560, Note_on_c, 0, 73, 0
2, 184560, Note_on_c, 0, 71, 48
2, 184560, Note_on_c, 0, 76, 48
2, 184800, Note_on_c, 0, 76, 0
2, 184800, Note_on_c, 0, 71, 0
2, 184800, Note_on_c, 0, 81, 56
2, 184800, Note_on_c, 0, 73, 56
2, 185040, Note_on_c, 0, 73, 0
2, 185040, Note_on_c, 0, 81, 0
2, 185040, Note_on_c, 0, 71, 49
2, 185040, Note_on_c, 0, 76, 49
2, 185280, Note_on_c, 0, 76, 0
2, 185280, Note_on_c, 0, 71, 0
2, 185280, Note_on_c, 0, 73, 56
2, 185280, Note_on_c, 0, 69, 56
2, 185520, Note_on_c, 0, 69, 0
2, 185520, Note_on_c, 0, 73, 0
2, 185520, Note_on_c, 0, 71, 49
2, 185520, Note_on_c, 0, 64, 49
2, 185760, Note_on_c, 0, 64, 0
2, 185760, Note_on_c, 0, 71, 0
2, 185760, Note_on_c, 0, 69, 59
2, 185760, Note_on_c, 0, 61, 59
2, 186000, Note_on_c, 0, 61, 0
2, 186000, Note_on_c, 0, 69, 0
2, 186000, Note_on_c, 0, 59, 47
2, 186000, Note_on_c, 0, 64, 48
2, 186240, Note_on_c, 0, 64, 0
2, 186240, Note_on_c, 0, 59, 0
2, 186240, Note_on_c, 0, 57, 56
2, 186240, Note_on_c, 0, 61, 56
2, 186720, Note_on_c, 0, 61, 0
2, 186720, Note_on_c, 0, 57, 0
2, 186720, Note_on_c, 0, 52, 52
2, 186720, Note_on_c, 0, 59, 52
2, 187200, Note_on_c, 0, 59, 0
2, 187200, Note_on_c, 0, 52, 0
2, 187200, Note_on_c, 0, 57, 53
2, 187296, Note_on_c, 0, 57, 0
2, 187296, Note_on_c, 0, 59, 46
2, 187392, Note_on_c, 0, 59, 0
2, 187392, Note_on_c, 0, 57, 56
2, 187488, Note_on_c, 0, 57, 0
2, 187488, Note_on_c, 0, 59, 52
2, 187584, Note_on_c, 0, 59, 0
2, 187584, Note_on_c, 0, 57, 54
2, 187680, Note_on_c, 0, 57, 0
2, 187680, Note_on_c, 0, 59, 62
2, 187840, Note_on_c, 0, 59, 0
2, 187840, Note_on_c, 0, 61, 59
2, 188000, Note_on_c, 0, 61, 0
2, 188000, Note_on_c, 0, 62, 61
2, 188160, Note_on_c, 0, 62, 0
2, 188160, Note_on_c, 0, 64, 71
2, 188320, Note_on_c, 0, 64, 0
2, 188320, Note_on_c, 0, 66, 66
2, 188480, Note_on_c, 0, 66, 0
2, 188480, Note_on_c, 0, 68, 68
2, 188640, Note_on_c, 0, 68, 0
2, 188640, Note_on_c, 0, 69, 79
2, 188730, Note_on_c, 0, 69, 0
2, 188730, Note_on_c, 0, 71, 73
2, 188820, Note_on_c, 0, 71, 0
2, 188820, Note_on_c, 0, 73, 81
2, 188910, Note_on_c, 0, 73, 0
2, 188910, Note_on_c, 0, 74, 77
2, 189000, Note_on_c, 0, 74, 0
2, 189000, Note_on_c, 0, 76, 84
2, 189090, Note_on_c, 0, 76, 0
2, 189090, Note_on_c, 0, 78, 79
2, 189180, Note_on_c, 0, 78, 0
2, 189180, Note_on_c, 0, 80, 86
2, 189270, Note_on_c, 0, 80, 0
2, 189270, Note_on_c, 0, 81, 82
2, 189360, Note_on_c, 0, 81, 0
2, 189360, Note_on_c, 0, 83, 89
2, 189450, Note_on_c, 0, 83, 0
2, 189450, Note_on_c, 0, 85, 84
2, 189540, Note_on_c, 0, 85, 0
2, 189540, Note_on_c, 0, 86, 92
2, 189630, Note_on_c, 0, 86, 0
2, 189630, Note_on_c, 0, 88, 85
2, 189720, Note_on_c, 0, 88, 0
2, 189720, Note_on_c, 0, 90, 94
2, 189810, Note_on_c, 0, 90, 0
2, 189810, Note_on_c, 0, 92, 90
2, 189900, Note_on_c, 0, 92, 0
2, 189900, Note_on_c, 0, 93, 97
2, 189990, Note_on_c, 0, 93, 0
2, 189990, Note_on_c, 0, 95, 91
2, 190080, Note_on_c, 0, 95, 0
2, 190080, Note_on_c, 0, 97, 99
2, 190160, Control_c, 0, 64, 127
2, 190320, Note_on_c, 0, 97, 0
2, 190320, Note_on_c, 0, 61, 93
2, 190320, Note_on_c, 0, 53, 85
2, 190480, Note_on_c, 0, 53, 0
2, 190480, Note_on_c, 0, 61, 0
2, 190560, Note_on_c, 0, 65, 103
2, 190560, Note_on_c, 0, 56, 95
2, 190720, Note_on_c, 0, 56, 0
2, 190720, Note_on_c, 0, 65, 0
2, 190800, Note_on_c, 0, 61, 95
2, 190800, Note_on_c, 0, 53, 87
2, 190960, Note_on_c, 0, 53, 0
2, 190960, Note_on_c, 0, 61, 0
2, 191280, Note_on_c, 0, 53, 88
2, 191280, Note_on_c, 0, 61, 96
2, 191440, Note_on_c, 0, 61, 0
2, 191440, Note_on_c, 0, 53, 0
2, 191440, Control_c, 0, 64, 0
2, 191600, Control_c, 0, 64, 127
2, 191760, Note_on_c, 0, 53, 86
2, 191760, Note_on_c, 0, 61, 94
2, 191920, Note_on_c, 0, 61, 0
2, 191920, Note_on_c, 0, 53, 0
2, 192000, Note_on_c, 0, 65, 102
2, 192000, Note_on_c, 0, 56, 94
2, 192160, Note_on_c, 0, 56, 0
2, 192160, Note_on_c, 0, 65, 0
2, 192240, Note_on_c, 0, 61, 95
2, 192240, Note_on_c, 0, 53, 87
2, 192400, Note_on_c, 0, 53, 0
2, 192400, Note_on_c, 0, 61, 0
2, 192720, Note_on_c, 0, 61, 94
2, 192720, Note_on_c, 0, 53, 86
2, 192880, Note_on_c, 0, 53, 0
2, 192880, Note_on_c, 0, 61, 0
2, 192880, Control_c, 0, 64, 0
2, 193040, Control_c, 0, 64, 127
2, 193200, Note_on_c, 0, 53, 85
2, 193200, Note_on_c, 0, 61, 93
2, 193360, Note_on_c, 0, 61, 0
2, 193360, Note_on_c, 0, 53, 0
2, 193440, Note_on_c, 0, 65, 99
2, 193440, Note_on_c, 0, 56, 91
2, 193600, Note_on_c, 0, 56, 0
2, 193600, Note_on_c, 0, 65, 0
2, 193680, Note_on_c, 0, 53, 83
2, 193680, Note_on_c, 0, 61, 91
2, 193840, Note_on_c, 0, 61, 0
2, 193840, Note_on_c, 0, 53, 0
2, 193920, Note_on_c, 0, 65, 99
2, 193920, Note_on_c, 0, 56, 91
2, 194080, Note_on_c, 0, 56, 0
2, 194080, Note_on_c, 0, 65, 0
2, 194160, Note_on_c, 0, 53, 84
2, 194160, Note_on_c, 0, 61, 92
2, 194320, Note_on_c, 0, 61, 0
2, 194320, Note_on_c, 0, 53, 0
2, 194400, Note_on_c, 0, 65, 101
2, 194400, Note_on_c, 0, 56, 93
2, 194560, Note_on_c, 0, 56, 0
2, 194560, Note_on_c, 0, 65, 0
2, 194640, Note_on_c, 0, 53, 83
2, 194640, Note_on_c, 0, 61, 91
2, 194800, Note_on_c, 0, 61, 0
2, 194800, Note_on_c, 0, 53, 0
2, 194880, Note_on_c, 0, 65, 100
2, 194880, Note_on_c, 0, 56, 92
2, 195040, Note_on_c, 0, 56, 0
2, 195040, Note_on_c, 0, 65, 0
2, 195120, Note_on_c, 0, 61, 91
2, 195120, Note_on_c, 0, 53, 83
2, 195280, Note_on_c, 0, 53, 0
2, 195280, Note_on_c, 0, 61, 0
2, 195360, Note_on_c, 0, 65, 102
2, 195360, Note_on_c, 0, 56, 94
2, 195520, Note_on_c, 0, 56, 0
2, 195520, Note_on_c, 0, 65, 0
2, 195600, Note_on_c, 0, 53, 83
2, 195600, Note_on_c, 0, 61, 91
2, 195760, Note_on_c, 0, 61, 0
2, 195760, Note_on_c, 0, 53, 0
2, 196320, Note_on_c, 0, 77, 90
2, 196320, Note_on_c, 0, 73, 90
2, 196320, Note_on_c, 0, 80, 95
2, 196320, Note_on_c, 0, 68, 95
2, 196800, Note_on_c, 0, 68, 0
2, 196800, Note_on_c, 0, 77, 0
2, 196800, Note_on_c, 0, 73, 0
2, 196800, Note_on_c, 0, 80, 0
2, 197280, Note_on_c, 0, 80, 93
2, 197280, Note_on_c, 0, 85, 98
2, 197280, Note_on_c, 0, 73, 98
2, 197760, Note_on_c, 0, 73, 0
2, 197760, Note_on_c, 0, 85, 0
2, 197760, Note_on_c, 0, 80, 0
2, 198240, Note_on_c, 0, 97, 100
2, 198240, Note_on_c, 0, 92, 100
2, 198240, Note_on_c, 0, 85, 100
2, 198480, Note_on_c, 0, 85, 0
2, 198480, Note_on_c, 0, 92, 0
2, 198480, Note_on_c, 0, 97, 0
2, 198720, Note_on_c, 0, 49, 103
2, 199680, Note_on_c, 0, 49, 0
2, 199680, Control_c, 0, 64, 0
2, 199680, End_track
3, 0, Start_track
3, 0, Title_t, "Piano"
3, 0, Program_c, 0, 0
3, 0, Control_c, 0, 7, 105
3, 0, Control_c, 0, 10, 44
3, 0, Control_c, 0, 91, 91
3, 0, Control_c, 0, 11, 110
3, 2880, Control_c, 0, 64, 127
3, 2880, Note_on_c, 0, 37, 86
3, 2880, Note_on_c, 0, 25, 86
3, 3045, Note_on_c, 0, 25, 0
3, 3045, Note_on_c, 0, 37, 0
3, 3120, Note_on_c, 0, 44, 72
3, 3285, Note_on_c, 0, 44, 0
3, 3360, Note_on_c, 0, 56, 76
3, 3525, Note_on_c, 0, 56, 0
3, 3600, Note_on_c, 0, 44, 73
3, 3765, Note_on_c, 0, 44, 0
3, 3840, Note_on_c, 0, 32, 77
3, 3840, Note_on_c, 0, 44, 77
3, 4005, Note_on_c, 0, 44, 0
3, 4005, Note_on_c, 0, 32, 0
3, 4080, Control_c, 0, 64, 0
3, 4320, Control_c, 0, 64, 127
3, 4320, Note_on_c, 0, 25, 86
3, 4320, Note_on_c, 0, 37, 86
3, 4485, Note_on_c, 0, 37, 0
3, 4485, Note_on_c, 0, 25, 0
3, 4560, Note_on_c, 0, 44, 72
3, 4725, Note_on_c, 0, 44, 0
3, 4800, Note_on_c, 0, 56, 76
3, 4965, Note_on_c, 0, 56, 0
3, 5040, Note_on_c, 0, 44, 73
3, 5205, Note_on_c, 0, 44, 0
3, 5280, Note_on_c, 0, 44, 77
3, 5280, Note_on_c, 0, 32, 77
3, 5445, Note_on_c, 0, 32, 0
3, 5445, Note_on_c, 0, 44, 0
3, 5520, Control_c, 0, 64, 0
3, 5760, Control_c, 0, 64, 127
3, 5760, Note_on_c, 0, 25, 86
3, 5760, Note_on_c, 0, 37, 86
3, 5925, Note_on_c, 0, 37, 0
3, 5925, Note_on_c, 0, 25, 0
3, 6000, Note_on_c, 0, 44, 72
3, 6165, Note_on_c, 0, 44, 0
3, 6240, Note_on_c, 0, 56, 76
3, 6405, Note_on_c, 0, 56, 0
3, 6480, Note_on_c, 0, 44, 73
3, 6645, Note_on_c, 0, 44, 0
3, 6720, Note_on_c, 0, 44, 77
3, 6720, Note_on_c, 0, 32, 77
3, 6885, Note_on_c, 0, 32, 0
3, 6885, Note_on_c, 0, 44, 0
3, 6960, Control_c, 0, 64, 0
3, 7200, Control_c, 0, 64, 127
3, 7200, Note_on_c, 0, 37, 86
3, 7200, Note_on_c, 0, 25, 86
3, 7365, Note_on_c, 0, 25, 0
3, 7365, Note_on_c, 0, 37, 0
3, 7440, Note_on_c, 0, 44, 72
3, 7605, Note_on_c, 0, 44, 0
3, 7680, Note_on_c, 0, 56, 76
3, 7845, Note_on_c, 0, 56, 0
3, 7920, Note_on_c, 0, 44, 73
3, 8085, Note_on_c, 0, 44, 0
3, 8160, Note_on_c, 0, 32, 77
3, 8160, Note_on_c, 0, 44, 77
3, 8325, Note_on_c, 0, 44, 0
3, 8325, Note_on_c, 0, 32, 0
3, 8400, Control_c, 0, 64, 0
3, 8640, Control_c, 0, 64, 127
3, 8640, Note_on_c, 0, 25, 79
3, 8640, Note_on_c, 0, 37, 79
3, 8790, Note_on_c, 0, 37, 0
3, 8790, Note_on_c, 0, 25, 0
3, 8880, Note_on_c, 0, 44, 65
3, 9030, Note_on_c, 0, 44, 0
3, 9120, Note_on_c, 0, 56, 69
3, 9270, Note_on_c, 0, 56, 0
3, 9360, Note_on_c, 0, 44, 66
3, 9510, Note_on_c, 0, 44, 0
3, 9600, Note_on_c, 0, 44, 70
3, 9600, Note_on_c, 0, 32, 70
3, 9750, Note_on_c, 0, 32, 0
3, 9750, Note_on_c, 0, 44, 0
3, 9840, Control_c, 0, 64, 0
3, 10080, Control_c, 0, 64, 127
3, 10080, Note_on_c, 0, 37, 79
3, 10080, Note_on_c, 0, 25, 79
3, 10230, Note_on_c, 0, 25, 0
3, 10230, Note_on_c, 0, 37, 0
3, 10320, Note_on_c, 0, 44, 65
3, 10470, Note_on_c, 0, 44, 0
3, 10560, Note_on_c, 0, 56, 69
3, 10710, Note_on_c, 0, 56, 0
3, 10800, Note_on_c, 0, 44, 66
3, 10950, Note_on_c, 0, 44, 0
3, 11040, Note_on_c, 0, 32, 70
3, 11040, Note_on_c, 0, 44, 70
3, 11190, Note_on_c, 0, 44, 0
3, 11190, Note_on_c, 0, 32, 0
3, 11280, Control_c, 0, 64, 0
3, 11520, Control_c, 0, 64, 127
3, 11520, Note_on_c, 0, 37, 79
3, 11520, Note_on_c, 0, 25, 79
3, 11670, Note_on_c, 0, 25, 0
3, 11670, Note_on_c, 0, 37, 0
3, 11760, Note_on_c, 0, 44, 65
3, 11910, Note_on_c, 0, 44, 0
3, 12000, Note_on_c, 0, 56, 69
3, 12150, Note_on_c, 0, 56, 0
3, 12240, Note_on_c, 0, 44, 66
3, 12390, Note_on_c, 0, 44, 0
3, 12480, Note_on_c, 0, 32, 70
3, 12480, Note_on_c, 0, 44, 70
3, 12630, Note_on_c, 0, 44, 0
3, 12630, Note_on_c, 0, 32, 0
3, 12720, Control_c, 0, 64, 0
3, 12960, Control_c, 0, 64, 127
3, 12960, Note_on_c, 0, 25, 79
3, 12960, Note_on_c, 0, 37, 79
3, 13110, Note_on_c, 0, 37, 0
3, 13110, Note_on_c, 0, 25, 0
3, 13200, Note_on_c, 0, 44, 65
3, 13350, Note_on_c, 0, 44, 0
3, 13440, Note_on_c, 0, 56, 69
3, 13590, Note_on_c, 0, 56, 0
3, 13680, Note_on_c, 0, 44, 66
3, 13830, Note_on_c, 0, 44, 0
3, 13920, Note_on_c, 0, 44, 70
3, 13920, Note_on_c, 0, 32, 70
3, 14070, Note_on_c, 0, 32, 0
3, 14070, Note_on_c, 0, 44, 0
3, 14160, Control_c, 0, 64, 0
3, 14400, Control_c, 0, 64, 127
3, 14400, Note_on_c, 0, 25, 79
3, 14400, Note_on_c, 0, 37, 79
3, 14550, Note_on_c, 0, 37, 0
3, 14550, Note_on_c, 0, 25, 0
3, 14640, Note_on_c, 0, 44, 65
3, 14790, Note_on_c, 0, 44, 0
3, 14880, Note_on_c, 0, 56, 69
3, 15030, Note_on_c, 0, 56, 0
3, 15120, Note_on_c, 0, 44, 66
3, 15270, Note_on_c, 0, 44, 0
3, 15360, Note_on_c, 0, 44, 70
3, 15360, Note_on_c, 0, 32, 70
3, 15510, Note_on_c, 0, 32, 0
3, 15510, Note_on_c, 0, 44, 0
3, 15600, Control_c, 0, 64, 0
3, 15840, Control_c, 0, 64, 127
3, 15840, Note_on_c, 0, 37, 79
3, 15840, Note_on_c, 0, 25, 79
3, 16005, Note_on_c, 0, 25, 0
3, 16005, Note_on_c, 0, 37, 0
3, 16080, Note_on_c, 0, 44, 65
3, 16245, Note_on_c, 0, 44, 0
3, 16320, Note_on_c, 0, 56, 69
3, 16485, Note_on_c, 0, 56, 0
3, 16560, Note_on_c, 0, 44, 66
3, 16725, Note_on_c, 0, 44, 0
3, 16800, Note_on_c, 0, 32, 70
3, 16800, Note_on_c, 0, 44, 70
3, 16965, Note_on_c, 0, 44, 0
3, 16965, Note_on_c, 0, 32, 0
3, 17040, Control_c, 0, 64, 0
3, 17280, Control_c, 0, 64, 127
3, 17280, Note_on_c, 0, 37, 79
3, 17280, Note_on_c, 0, 25, 79
3, 17445, Note_on_c, 0, 25, 0
3, 17445, Note_on_c, 0, 37, 0
3, 17520, Note_on_c, 0, 44, 65
3, 17685, Note_on_c, 0, 44, 0
3, 17760, Note_on_c, 0, 56, 69
3, 17925, Note_on_c, 0, 56, 0
3, 18000, Note_on_c, 0, 44, 66
3, 18165, Note_on_c, 0, 44, 0
3, 18240, Note_on_c, 0, 32, 70
3, 18240, Note_on_c, 0, 44, 70
3, 18405, Note_on_c, 0, 44, 0
3, 18405, Note_on_c, 0, 32, 0
3, 18480, Control_c, 0, 64, 0
3, 18720, Control_c, 0, 64, 127
3, 18720, Note_on_c, 0, 25, 79
3, 18720, Note_on_c, 0, 37, 79
3, 18885, Note_on_c, 0, 37, 0
3, 18885, Note_on_c, 0, 25, 0
3, 18960, Note_on_c, 0, 44, 65
3, 19125, Note_on_c, 0, 44, 0
3, 19200, Note_on_c, 0, 56, 69
3, 19365, Note_on_c, 0, 56, 0
3, 19440, Note_on_c, 0, 44, 66
3, 19605, Note_on_c, 0, 44, 0
3, 19680, Note_on_c, 0, 44, 70
3, 19680, Note_on_c, 0, 32, 70
3, 19845, Note_on_c, 0, 32, 0
3, 19845, Note_on_c, 0, 44, 0
3, 19920, Control_c, 0, 64, 0
3, 20160, Control_c, 0, 64, 127
3, 20160, Note_on_c, 0, 37, 92
3, 20160, Note_on_c, 0, 25, 92
3, 20325, Note_on_c, 0, 25, 0
3, 20325, Note_on_c, 0, 37, 0
3, 20400, Note_on_c, 0, 44, 78
3, 20565, Note_on_c, 0, 44, 0
3, 20640, Note_on_c, 0, 56, 82
3, 20805, Note_on_c, 0, 56, 0
3, 20880, Note_on_c, 0, 44, 79
3, 21045, Note_on_c, 0, 44, 0
3, 21120, Note_on_c, 0, 32, 83
3, 21120, Note_on_c, 0, 44, 83
3, 21285, Note_on_c, 0, 44, 0
3, 21285, Note_on_c, 0, 32, 0
3, 21360, Control_c, 0, 64, 0
3, 21600, Control_c, 0, 64, 127
3, 21600, Note_on_c, 0, 25, 92
3, 21600, Note_on_c, 0, 37, 92
3, 21765, Note_on_c, 0, 37, 0
3, 21765, Note_on_c, 0, 25, 0
3, 21840, Note_on_c, 0, 44, 78
3, 22005, Note_on_c, 0, 44, 0
3, 22080, Note_on_c, 0, 56, 82
3, 22245, Note_on_c, 0, 56, 0
3, 22320, Note_on_c, 0, 44, 79
3, 22485, Note_on_c, 0, 44, 0
3, 22560, Note_on_c, 0, 44, 83
3, 22560, Note_on_c, 0, 32, 83
3, 22725, Note_on_c, 0, 32, 0
3, 22725, Note_on_c, 0, 44, 0
3, 22800, Control_c, 0, 64, 0
3, 23040, Control_c, 0, 64, 127
3, 23040, Note_on_c, 0, 25, 92
3, 23040, Note_on_c, 0, 37, 92
3, 23205, Note_on_c, 0, 37, 0
3, 23205, Note_on_c, 0, 25, 0
3, 23280, Note_on_c, 0, 44, 78
3, 23445, Note_on_c, 0, 44, 0
3, 23520, Note_on_c, 0, 56, 82
3, 23685, Note_on_c, 0, 56, 0
3, 23760, Note_on_c, 0, 44, 79
3, 23925, Note_on_c, 0, 44, 0
3, 24000, Note_on_c, 0, 44, 83
3, 24000, Note_on_c, 0, 32, 83
3, 24165, Note_on_c, 0, 32, 0
3, 24165, Note_on_c, 0, 44, 0
3, 24240, Control_c, 0, 64, 0
3, 24480, Control_c, 0, 64, 127
3, 24480, Note_on_c, 0, 37, 92
3, 24480, Note_on_c, 0, 25, 92
3, 24645, Note_on_c, 0, 25, 0
3, 24645, Note_on_c, 0, 37, 0
3, 24720, Note_on_c, 0, 44, 78
3, 24885, Note_on_c, 0, 44, 0
3, 24960, Note_on_c, 0, 56, 82
3, 25125, Note_on_c, 0, 56, 0
3, 25200, Note_on_c, 0, 44, 79
3, 25365, Note_on_c, 0, 44, 0
3, 25440, Note_on_c, 0, 32, 83
3, 25440, Note_on_c, 0, 44, 83
3, 25605, Note_on_c, 0, 44, 0
3, 25605, Note_on_c, 0, 32, 0
3, 25680, Control_c, 0, 64, 0
3, 25920, Control_c, 0, 64, 127
3, 25920, Note_on_c, 0, 25, 62
3, 25920, Note_on_c, 0, 37, 62
3, 26085, Note_on_c, 0, 37, 0
3, 26085, Note_on_c, 0, 25, 0
3, 26160, Note_on_c, 0, 44, 48
3, 26325, Note_on_c, 0, 44, 0
3, 26400, Note_on_c, 0, 56, 52
3, 26565, Note_on_c, 0, 56, 0
3, 26640, Note_on_c, 0, 44, 49
3, 26805, Note_on_c, 0, 44, 0
3, 26880, Note_on_c, 0, 44, 53
3, 26880, Note_on_c, 0, 32, 53
3, 27045, Note_on_c, 0, 32, 0
3, 27045, Note_on_c, 0, 44, 0
3, 27120, Control_c, 0, 64, 0
3, 27360, Control_c, 0, 64, 127
3, 27360, Note_on_c, 0, 37, 62
3, 27360, Note_on_c, 0, 25, 62
3, 27525, Note_on_c, 0, 25, 0
3, 27525, Note_on_c, 0, 37, 0
3, 27600, Note_on_c, 0, 44, 48
3, 27765, Note_on_c, 0, 44, 0
3, 27840, Note_on_c, 0, 56, 52
3, 28005, Note_on_c, 0, 56, 0
3, 28080, Note_on_c, 0, 44, 49
3, 28245, Note_on_c, 0, 44, 0
3, 28320, Note_on_c, 0, 32, 53
3, 28320, Note_on_c, 0, 44, 53
3, 28485, Note_on_c, 0, 44, 0
3, 28485, Note_on_c, 0, 32, 0
3, 28560, Control_c, 0, 64, 0
3, 28800, Control_c, 0, 64, 127
3, 28800, Note_on_c, 0, 37, 62
3, 28800, Note_on_c, 0, 25, 62
3, 28965, Note_on_c, 0, 25, 0
3, 28965, Note_on_c, 0, 37, 0
3, 29040, Note_on_c, 0, 44, 48
3, 29205, Note_on_c, 0, 44, 0
3, 29280, Note_on_c, 0, 56, 52
3, 29445, Note_on_c, 0, 56, 0
3, 29520, Note_on_c, 0, 44, 49
3, 29685, Note_on_c, 0, 44, 0
3, 29760, Note_on_c, 0, 32, 53
3, 29760, Note_on_c, 0, 44, 53
3, 29925, Note_on_c, 0, 44, 0
3, 29925, Note_on_c, 0, 32, 0
3, 30000, Control_c, 0, 64, 0
3, 30240, Control_c, 0, 64, 127
3, 30240, Note_on_c, 0, 25, 62
3, 30240, Note_on_c, 0, 37, 62
3, 30405, Note_on_c, 0, 37, 0
3, 30405, Note_on_c, 0, 25, 0
3, 30480, Note_on_c, 0, 44, 48
3, 30645, Note_on_c, 0, 44, 0
3, 30720, Note_on_c, 0, 56, 52
3, 30885, Note_on_c, 0, 56, 0
3, 30960, Note_on_c, 0, 44, 49
3, 31125, Note_on_c, 0, 44, 0
3, 31200, Control_c, 0, 64, 0
3, 31680, Note_on_c, 0, 60, 60
3, 31680, Note_on_c, 0, 66, 60
3, 31800, Note_on_c, 0, 66, 0
3, 31800, Note_on_c, 0, 60, 0
3, 31920, Note_on_c, 0, 56, 48
3, 32040, Note_on_c, 0, 56, 0
3, 32160, Note_on_c, 0, 60, 58
3, 32160, Note_on_c, 0, 66, 58
3, 32280, Note_on_c, 0, 66, 0
3, 32280, Note_on_c, 0, 60, 0
3, 32400, Note_on_c, 0, 56, 47
3, 32520, Note_on_c, 0, 56, 0
3, 32640, Note_on_c, 0, 61, 57
3, 32640, Note_on_c, 0, 58, 57
3, 32640, Note_on_c, 0, 66, 57
3, 32760, Note_on_c, 0, 66, 0
3, 32760, Note_on_c, 0, 58, 0
3, 32760, Note_on_c, 0, 61, 0
3, 32880, Note_on_c, 0, 56, 47
3, 33000, Note_on_c, 0, 56, 0
3, 33120, Note_on_c, 0, 66, 60
3, 33120, Note_on_c, 0, 60, 60
3, 33240, Note_on_c, 0, 60, 0
3, 33240, Note_on_c, 0, 66, 0
3, 33360, Note_on_c, 0, 56, 48
3, 33480, Note_on_c, 0, 56, 0
3, 33600, Note_on_c, 0, 66, 58
3, 33600, Note_on_c, 0, 60, 58
3, 33720, Note_on_c, 0, 60, 0
3, 33720, Note_on_c, 0, 66, 0
3, 33840, Note_on_c, 0, 56, 47
3, 33960, Note_on_c, 0, 56, 0
3, 34080, Note_on_c, 0, 66, 57
3, 34080, Note_on_c, 0, 58, 57
3, 34080, Note_on_c, 0, 61, 57
3, 34200, Note_on_c, 0, 61, 0
3, 34200, Note_on_c, 0, 58, 0
3, 34200, Note_on_c, 0, 66, 0
3, 34320, Note_on_c, 0, 56, 47
3, 34440, Note_on_c, 0, 56, 0
3, 34560, Note_on_c, 0, 68, 54
3, 34560, Note_on_c, 0, 63, 67
3, 34560, Note_on_c, 0, 60, 64
3, 35040, Note_on_c, 0, 60, 0
3, 35040, Note_on_c, 0, 63, 0
3, 35040, Note_on_c, 0, 68, 0
3, 35040, Note_on_c, 0, 56, 71
3, 35520, Note_on_c, 0, 56, 0
3, 36000, Note_on_c, 0, 58, 73
3, 36000, Note_on_c, 0, 63, 53
3, 36000, Note_on_c, 0, 54, 65
3, 36480, Note_on_c, 0, 54, 0
3, 36480, Note_on_c, 0, 63, 0
3, 36480, Note_on_c, 0, 58, 0
3, 36480, Note_on_c, 0, 51, 76
3, 36960, Note_on_c, 0, 51, 0
3, 37440, Note_on_c, 0, 66, 65
3, 37440, Note_on_c, 0, 60, 65
3, 37560, Note_on_c, 0, 60, 0
3, 37560, Note_on_c, 0, 66, 0
3, 37680, Note_on_c, 0, 56, 53
3, 37800, Note_on_c, 0, 56, 0
3, 37920, Note_on_c, 0, 66, 63
3, 37920, Note_on_c, 0, 60, 63
3, 38040, Note_on_c, 0, 60, 0
3, 38040, Note_on_c, 0, 66, 0
3, 38160, Note_on_c, 0, 56, 52
3, 38280, Note_on_c, 0, 56, 0
3, 38880, Note_on_c, 0, 70, 48
3, 38880, Note_on_c, 0, 61, 55
3, 39000, Note_on_c, 0, 61, 0
3, 39000, Note_on_c, 0, 70, 0
3, 39120, Note_on_c, 0, 54, 52
3, 39240, Note_on_c, 0, 54, 0
3, 39360, Note_on_c, 0, 70, 52
3, 39360, Note_on_c, 0, 61, 52
3, 39480, Note_on_c, 0, 61, 0
3, 39480, Note_on_c, 0, 70, 0
3, 39600, Note_on_c, 0, 54, 58
3, 39720, Note_on_c, 0, 54, 0
3, 40320, Note_on_c, 0, 72, 44
3, 40320, Note_on_c, 0, 64, 49
3, 40440, Note_on_c, 0, 64, 0
3, 40440, Note_on_c, 0, 72, 0
3, 40560, Note_on_c, 0, 57, 51
3, 40680, Note_on_c, 0, 57, 0
3, 40800, Note_on_c, 0, 72, 47
3, 40800, Note_on_c, 0, 64, 51
3, 40920, Note_on_c, 0, 64, 0
3, 40920, Note_on_c, 0, 72, 0
3, 41040, Note_on_c, 0, 57, 53
3, 41160, Note_on_c, 0, 57, 0
3, 41760, Note_on_c, 0, 56, 71
3, 41805, Control_c, 0, 64, 127
3, 41820, Note_on_c, 0, 63, 70
3, 41880, Note_on_c, 0, 66, 75
3, 41940, Note_on_c, 0, 72, 80
3, 42000, Note_on_c, 0, 63, 0
3, 42000, Note_on_c, 0, 56, 0
3, 42060, Note_on_c, 0, 66, 0
3, 42120, Note_on_c, 0, 72, 0
3, 42240, Note_on_c, 0, 56, 50
3, 42240, Note_on_c, 0, 44, 60
3, 42360, Note_on_c, 0, 44, 0
3, 42360, Note_on_c, 0, 56, 0
3, 42720, Note_on_c, 0, 44, 49
3, 42720, Note_on_c, 0, 32, 59
3, 42840, Note_on_c, 0, 32, 0
3, 42840, Note_on_c, 0, 44, 0
3, 43125, Control_c, 0, 64, 0
3, 43200, Note_on_c, 0, 37, 64
3, 43200, Note_on_c, 0, 25, 64
3, 43320, Note_on_c, 0, 25, 0
3, 43320, Note_on_c, 0, 37, 0
3, 43440, Note_on_c, 0, 44, 50
3, 43560, Note_on_c, 0, 44, 0
3, 43680, Note_on_c, 0, 56, 54
3, 43800, Note_on_c, 0, 56, 0
3, 43920, Note_on_c, 0, 44, 51
3, 44040, Note_on_c, 0, 44, 0
3, 44160, Note_on_c, 0, 32, 55
3, 44160, Note_on_c, 0, 44, 55
3, 44280, Note_on_c, 0, 44, 0
3, 44280, Note_on_c, 0, 32, 0
3, 44640, Note_on_c, 0, 25, 68
3, 44640, Note_on_c, 0, 37, 68
3, 44760, Note_on_c, 0, 37, 0
3, 44760, Note_on_c, 0, 25, 0
3, 44880, Note_on_c, 0, 44, 54
3, 45000, Note_on_c, 0, 44, 0
3, 45120, Note_on_c, 0, 56, 58
3, 45240, Note_on_c, 0, 56, 0
3, 45360, Note_on_c, 0, 44, 55
3, 45480, Note_on_c, 0, 44, 0
3, 45600, Note_on_c, 0, 44, 59
3, 45600, Note_on_c, 0, 32, 59
3, 45720, Note_on_c, 0, 32, 0
3, 45720, Note_on_c, 0, 44, 0
3, 46080, Note_on_c, 0, 25, 74
3, 46080, Note_on_c, 0, 37, 74
3, 46200, Note_on_c, 0, 37, 0
3, 46200, Note_on_c, 0, 25, 0
3, 46320, Note_on_c, 0, 44, 60
3, 46440, Note_on_c, 0, 44, 0
3, 46560, Note_on_c, 0, 56, 64
3, 46680, Note_on_c, 0, 56, 0
3, 46800, Note_on_c, 0, 44, 61
3, 46920, Note_on_c, 0, 44, 0
3, 47040, Note_on_c, 0, 44, 65
3, 47040, Note_on_c, 0, 32, 65
3, 47160, Note_on_c, 0, 32, 0
3, 47160, Note_on_c, 0, 44, 0
3, 47520, Note_on_c, 0, 37, 74
3, 47520, Note_on_c, 0, 25, 74
3, 47640, Note_on_c, 0, 25, 0
3, 47640, Note_on_c, 0, 37, 0
3, 47760, Note_on_c, 0, 44, 60
3, 47880, Note_on_c, 0, 44, 0
3, 48000, Note_on_c, 0, 56, 64
3, 48120, Note_on_c, 0, 56, 0
3, 48240, Note_on_c, 0, 44, 61
3, 48360, Note_on_c, 0, 44, 0
3, 48480, Note_on_c, 0, 32, 65
3, 48480, Note_on_c, 0, 44, 65
3, 48600, Note_on_c, 0, 44, 0
3, 48600, Note_on_c, 0, 32, 0
3, 48960, Note_on_c, 0, 37, 74
3, 48960, Note_on_c, 0, 25, 74
3, 49080, Note_on_c, 0, 25, 0
3, 49080, Note_on_c, 0, 37, 0
3, 49200, Note_on_c, 0, 44, 60
3, 49320, Note_on_c, 0, 44, 0
3, 49440, Note_on_c, 0, 56, 64
3, 49560, Note_on_c, 0, 56, 0
3, 49680, Note_on_c, 0, 44, 61
3, 49800, Note_on_c, 0, 44, 0
3, 49920, Note_on_c, 0, 32, 65
3, 49920, Note_on_c, 0, 44, 65
3, 50040, Note_on_c, 0, 44, 0
3, 50040, Note_on_c, 0, 32, 0
3, 50400, Note_on_c, 0, 25, 74
3, 50400, Note_on_c, 0, 37, 74
3, 50520, Note_on_c, 0, 37, 0
3, 50520, Note_on_c, 0, 25, 0
3, 50640, Note_on_c, 0, 44, 60
3, 50760, Note_on_c, 0, 44, 0
3, 50880, Note_on_c, 0, 56, 64
3, 51000, Note_on_c, 0, 56, 0
3, 51120, Note_on_c, 0, 44, 61
3, 51240, Note_on_c, 0, 44, 0
3, 51360, Note_on_c, 0, 44, 65
3, 51360, Note_on_c, 0, 32, 65
3, 51480, Note_on_c, 0, 32, 0
3, 51480, Note_on_c, 0, 44, 0
3, 51840, Note_on_c, 0, 25, 74
3, 51840, Note_on_c, 0, 37, 74
3, 51960, Note_on_c, 0, 37, 0
3, 51960, Note_on_c, 0, 25, 0
3, 52080, Note_on_c, 0, 44, 60
3, 52200, Note_on_c, 0, 44, 0
3, 52320, Note_on_c, 0, 56, 64
3, 52440, Note_on_c, 0, 56, 0
3, 52560, Note_on_c, 0, 44, 61
3, 52680, Note_on_c, 0, 44, 0
3, 52800, Note_on_c, 0, 44, 65
3, 52800, Note_on_c, 0, 32, 65
3, 52920, Note_on_c, 0, 32, 0
3, 52920, Note_on_c, 0, 44, 0
3, 53280, Note_on_c, 0, 37, 67
3, 53280, Note_on_c, 0, 25, 67
3, 53400, Note_on_c, 0, 25, 0
3, 53400, Note_on_c, 0, 37, 0
3, 53520, Note_on_c, 0, 44, 43
3, 53640, Note_on_c, 0, 44, 0
3, 53760, Note_on_c, 0, 56, 47
3, 53880, Note_on_c, 0, 56, 0
3, 54000, Note_on_c, 0, 44, 44
3, 54120, Note_on_c, 0, 44, 0
3, 54720, Note_on_c, 0, 66, 65
3, 54720, Note_on_c, 0, 60, 65
3, 54840, Note_on_c, 0, 60, 0
3, 54840, Note_on_c, 0, 66, 0
3, 54960, Note_on_c, 0, 56, 53
3, 55080, Note_on_c, 0, 56, 0
3, 55200, Note_on_c, 0, 66, 63
3, 55200, Note_on_c, 0, 60, 63
3, 55320, Note_on_c, 0, 60, 0
3, 55320, Note_on_c, 0, 66, 0
3, 55440, Note_on_c, 0, 56, 52
3, 55560, Note_on_c, 0, 56, 0
3, 55680, Note_on_c, 0, 66, 62
3, 55680, Note_on_c, 0, 58, 62
3, 55680, Note_on_c, 0, 61, 62
3, 55800, Note_on_c, 0, 61, 0
3, 55800, Note_on_c, 0, 58, 0
3, 55800, Note_on_c, 0, 66, 0
3, 55920, Note_on_c, 0, 56, 52
3, 56040, Note_on_c, 0, 56, 0
3, 56160, Note_on_c, 0, 60, 65
3, 56160, Note_on_c, 0, 66, 65
3, 56280, Note_on_c, 0, 66, 0
3, 56280, Note_on_c, 0, 60, 0
3, 56400, Note_on_c, 0, 56, 53
3, 56520, Note_on_c, 0, 56, 0
3, 56640, Note_on_c, 0, 60, 63
3, 56640, Note_on_c, 0, 66, 63
3, 56760, Note_on_c, 0, 66, 0
3, 56760, Note_on_c, 0, 60, 0
3, 56880, Note_on_c, 0, 56, 52
3, 57000, Note_on_c, 0, 56, 0
3, 57120, Note_on_c, 0, 61, 62
3, 57120, Note_on_c, 0, 58, 62
3, 57120, Note_on_c, 0, 66, 62
3, 57240, Note_on_c, 0, 66, 0
3, 57240, Note_on_c, 0, 58, 0
3, 57240, Note_on_c, 0, 61, 0
3, 57360, Note_on_c, 0, 56, 52
3, 57480, Note_on_c, 0, 56, 0
3, 57600, Note_on_c, 0, 60, 64
3, 57600, Note_on_c, 0, 63, 67
3, 57600, Note_on_c, 0, 68, 54
3, 58080, Note_on_c, 0, 68, 0
3, 58080, Note_on_c, 0, 63, 0
3, 58080, Note_on_c, 0, 60, 0
3, 58080, Note_on_c, 0, 56, 71
3, 58560, Note_on_c, 0, 56, 0
3, 59040, Note_on_c, 0, 54, 65
3, 59040, Note_on_c, 0, 63, 53
3, 59040, Note_on_c, 0, 58, 73
3, 59520, Note_on_c, 0, 58, 0
3, 59520, Note_on_c, 0, 63, 0
3, 59520, Note_on_c, 0, 54, 0
3, 59520, Note_on_c, 0, 51, 76
3, 60000, Note_on_c, 0, 51, 0
3, 60480, Note_on_c, 0, 60, 66
3, 60480, Note_on_c, 0, 66, 66
3, 60600, Note_on_c, 0, 66, 0
3, 60600, Note_on_c, 0, 60, 0
3, 60720, Note_on_c, 0, 56, 54
3, 60840, Note_on_c, 0, 56, 0
3, 60960, Note_on_c, 0, 60, 64
3, 60960, Note_on_c, 0, 66, 64
3, 61080, Note_on_c, 0, 66, 0
3, 61080, Note_on_c, 0, 60, 0
3, 61200, Note_on_c, 0, 56, 53
3, 61320, Note_on_c, 0, 56, 0
3, 61920, Note_on_c, 0, 61, 56
3, 61920, Note_on_c, 0, 70, 49
3, 62040, Note_on_c, 0, 70, 0
3, 62040, Note_on_c, 0, 61, 0
3, 62160, Note_on_c, 0, 54, 53
3, 62280, Note_on_c, 0, 54, 0
3, 62400, Note_on_c, 0, 61, 53
3, 62400, Note_on_c, 0, 70, 53
3, 62520, Note_on_c, 0, 70, 0
3, 62520, Note_on_c, 0, 61, 0
3, 62640, Note_on_c, 0, 54, 59
3, 62760, Note_on_c, 0, 54, 0
3, 63360, Note_on_c, 0, 64, 50
3, 63360, Note_on_c, 0, 72, 45
3, 63480, Note_on_c, 0, 72, 0
3, 63480, Note_on_c, 0, 64, 0
3, 63600, Note_on_c, 0, 57, 52
3, 63720, Note_on_c, 0, 57, 0
3, 63840, Note_on_c, 0, 64, 52
3, 63840, Note_on_c, 0, 72, 48
3, 63960, Note_on_c, 0, 72, 0
3, 63960, Note_on_c, 0, 64, 0
3, 64080, Note_on_c, 0, 57, 54
3, 64200, Note_on_c, 0, 57, 0
3, 64800, Note_on_c, 0, 56, 71
3, 64860, Note_on_c, 0, 63, 70
3, 64920, Note_on_c, 0, 66, 75
3, 64980, Note_on_c, 0, 72, 80
3, 65040, Note_on_c, 0, 63, 0
3, 65040, Note_on_c, 0, 56, 0
3, 65100, Note_on_c, 0, 66, 0
3, 65160, Note_on_c, 0, 72, 0
3, 65280, Note_on_c, 0, 44, 65
3, 65280, Note_on_c, 0, 56, 55
3, 65400, Note_on_c, 0, 56, 0
3, 65400, Note_on_c, 0, 44, 0
3, 65760, Note_on_c, 0, 32, 64
3, 65760, Note_on_c, 0, 44, 54
3, 65880, Note_on_c, 0, 44, 0
3, 65880, Note_on_c, 0, 32, 0
3, 66240, Note_on_c, 0, 25, 69
3, 66240, Note_on_c, 0, 37, 69
3, 66360, Note_on_c, 0, 37, 0
3, 66360, Note_on_c, 0, 25, 0
3, 66480, Note_on_c, 0, 44, 55
3, 66600, Note_on_c, 0, 44, 0
3, 66720, Note_on_c, 0, 56, 59
3, 66840, Note_on_c, 0, 56, 0
3, 66960, Note_on_c, 0, 44, 56
3, 67080, Note_on_c, 0, 44, 0
3, 67200, Note_on_c, 0, 44, 60
3, 67200, Note_on_c, 0, 32, 60
3, 67320, Note_on_c, 0, 32, 0
3, 67320, Note_on_c, 0, 44, 0
3, 67680, Note_on_c, 0, 37, 73
3, 67680, Note_on_c, 0, 25, 73
3, 67800, Note_on_c, 0, 25, 0
3, 67800, Note_on_c, 0, 37, 0
3, 67920, Note_on_c, 0, 44, 59
3, 68040, Note_on_c, 0, 44, 0
3, 68160, Note_on_c, 0, 56, 63
3, 68280, Note_on_c, 0, 56, 0
3, 68400, Note_on_c, 0, 44, 60
3, 68520, Note_on_c, 0, 44, 0
3, 68640, Note_on_c, 0, 32, 64
3, 68640, Note_on_c, 0, 44, 64
3, 68760, Note_on_c, 0, 44, 0
3, 68760, Note_on_c, 0, 32, 0
3, 69120, Note_on_c, 0, 37, 79
3, 69120, Note_on_c, 0, 25, 79
3, 69240, Note_on_c, 0, 25, 0
3, 69240, Note_on_c, 0, 37, 0
3, 69360, Note_on_c, 0, 44, 65
3, 69480, Note_on_c, 0, 44, 0
3, 69600, Note_on_c, 0, 56, 69
3, 69720, Note_on_c, 0, 56, 0
3, 69840, Note_on_c, 0, 44, 66
3, 69960, Note_on_c, 0, 44, 0
3, 70080, Note_on_c, 0, 32, 70
3, 70080, Note_on_c, 0, 44, 70
3, 70200, Note_on_c, 0, 44, 0
3, 70200, Note_on_c, 0, 32, 0
3, 70560, Note_on_c, 0, 25, 79
3, 70560, Note_on_c, 0, 37, 79
3, 70725, Note_on_c, 0, 37, 0
3, 70725, Note_on_c, 0, 25, 0
3, 70800, Note_on_c, 0, 44, 65
3, 70965, Note_on_c, 0, 44, 0
3, 71040, Note_on_c, 0, 56, 69
3, 71205, Note_on_c, 0, 56, 0
3, 71280, Note_on_c, 0, 44, 66
3, 71445, Note_on_c, 0, 44, 0
3, 71520, Note_on_c, 0, 44, 70
3, 71520, Note_on_c, 0, 32, 70
3, 71685, Note_on_c, 0, 32, 0
3, 71685, Note_on_c, 0, 44, 0
3, 72000, Note_on_c, 0, 25, 79
3, 72000, Note_on_c, 0, 37, 79
3, 72165, Note_on_c, 0, 37, 0
3, 72165, Note_on_c, 0, 25, 0
3, 72240, Note_on_c, 0, 44, 65
3, 72405, Note_on_c, 0, 44, 0
3, 72480, Note_on_c, 0, 56, 69
3, 72645, Note_on_c, 0, 56, 0
3, 72720, Note_on_c, 0, 44, 66
3, 72885, Note_on_c, 0, 44, 0
3, 72960, Note_on_c, 0, 44, 70
3, 72960, Note_on_c, 0, 32, 70
3, 73125, Note_on_c, 0, 32, 0
3, 73125, Note_on_c, 0, 44, 0
3, 73440, Note_on_c, 0, 37, 79
3, 73440, Note_on_c, 0, 25, 79
3, 73605, Note_on_c, 0, 25, 0
3, 73605, Note_on_c, 0, 37, 0
3, 73680, Note_on_c, 0, 44, 65
3, 73845, Note_on_c, 0, 44, 0
3, 73920, Note_on_c, 0, 56, 69
3, 74085, Note_on_c, 0, 56, 0
3, 74160, Note_on_c, 0, 44, 66
3, 74325, Note_on_c, 0, 44, 0
3, 74400, Note_on_c, 0, 32, 70
3, 74400, Note_on_c, 0, 44, 70
3, 74565, Note_on_c, 0, 44, 0
3, 74565, Note_on_c, 0, 32, 0
3, 74880, Note_on_c, 0, 37, 79
3, 74880, Note_on_c, 0, 25, 79
3, 75045, Note_on_c, 0, 25, 0
3, 75045, Note_on_c, 0, 37, 0
3, 75120, Note_on_c, 0, 44, 65
3, 75285, Note_on_c, 0, 44, 0
3, 75360, Note_on_c, 0, 56, 69
3, 75525, Note_on_c, 0, 56, 0
3, 75600, Note_on_c, 0, 44, 66
3, 75765, Note_on_c, 0, 44, 0
3, 75840, Note_on_c, 0, 32, 70
3, 75840, Note_on_c, 0, 44, 70
3, 76005, Note_on_c, 0, 44, 0
3, 76005, Note_on_c, 0, 32, 0
3, 76320, Note_on_c, 0, 25, 80
3, 76320, Note_on_c, 0, 37, 80
3, 76485, Note_on_c, 0, 37, 0
3, 76485, Note_on_c, 0, 25, 0
3, 76560, Note_on_c, 0, 44, 67
3, 76725, Note_on_c, 0, 44, 0
3, 76800, Note_on_c, 0, 56, 75
3, 76965, Note_on_c, 0, 56, 0
3, 77040, Note_on_c, 0, 44, 66
3, 77205, Note_on_c, 0, 44, 0
3, 77280, Note_on_c, 0, 32, 72
3, 77280, Note_on_c, 0, 44, 72
3, 77445, Note_on_c, 0, 44, 0
3, 77445, Note_on_c, 0, 32, 0
3, 77760, Note_on_c, 0, 37, 71
3, 78000, Note_on_c, 0, 44, 51
3, 78150, Note_on_c, 0, 44, 0
3, 78240, Note_on_c, 0, 52, 61
3, 78390, Note_on_c, 0, 52, 0
3, 78480, Note_on_c, 0, 44, 46
3, 78630, Note_on_c, 0, 44, 0
3, 78720, Note_on_c, 0, 37, 0
3, 78720, Note_on_c, 0, 37, 66
3, 78960, Note_on_c, 0, 44, 49
3, 79110, Note_on_c, 0, 44, 0
3, 79200, Note_on_c, 0, 37, 0
3, 79200, Note_on_c, 0, 37, 66
3, 79440, Note_on_c, 0, 44, 49
3, 79590, Note_on_c, 0, 44, 0
3, 79680, Note_on_c, 0, 52, 56
3, 79830, Note_on_c, 0, 52, 0
3, 79920, Note_on_c, 0, 44, 46
3, 80070, Note_on_c, 0, 44, 0
3, 80160, Note_on_c, 0, 37, 0
3, 80160, Note_on_c, 0, 37, 61
3, 80400, Note_on_c, 0, 44, 54
3, 80550, Note_on_c, 0, 44, 0
3, 80640, Note_on_c, 0, 37, 0
3, 80640, Note_on_c, 0, 37, 67
3, 80880, Note_on_c, 0, 44, 49
3, 81030, Note_on_c, 0, 44, 0
3, 81120, Note_on_c, 0, 52, 60
3, 81270, Note_on_c, 0, 52, 0
3, 81360, Note_on_c, 0, 44, 54
3, 81510, Note_on_c, 0, 44, 0
3, 81600, Note_on_c, 0, 37, 0
3, 81600, Note_on_c, 0, 37, 60
3, 81840, Note_on_c, 0, 44, 53
3, 81990, Note_on_c, 0, 44, 0
3, 82080, Note_on_c, 0, 37, 0
3, 82080, Note_on_c, 0, 37, 65
3, 82320, Note_on_c, 0, 44, 49
3, 82470, Note_on_c, 0, 44, 0
3, 82560, Note_on_c, 0, 52, 56
3, 82710, Note_on_c, 0, 52, 0
3, 82800, Note_on_c, 0, 44, 47
3, 82950, Note_on_c, 0, 44, 0
3, 83040, Note_on_c, 0, 37, 0
3, 83040, Note_on_c, 0, 37, 56
3, 83280, Note_on_c, 0, 44, 47
3, 83430, Note_on_c, 0, 44, 0
3, 83520, Note_on_c, 0, 37, 0
3, 83520, Note_on_c, 0, 37, 63
3, 83760, Note_on_c, 0, 44, 52
3, 83910, Note_on_c, 0, 44, 0
3, 84000, Note_on_c, 0, 52, 59
3, 84150, Note_on_c, 0, 52, 0
3, 84240, Note_on_c, 0, 44, 49
3, 84390, Note_on_c, 0, 44, 0
3, 84480, Note_on_c, 0, 37, 0
3, 84480, Note_on_c, 0, 37, 59
3, 84720, Note_on_c, 0, 44, 50
3, 84870, Note_on_c, 0, 44, 0
3, 84960, Note_on_c, 0, 37, 0
3, 84960, Note_on_c, 0, 37, 58
3, 85200, Note_on_c, 0, 45, 49
3, 85350, Note_on_c, 0, 45, 0
3, 85440, Note_on_c, 0, 52, 54
3, 85590, Note_on_c, 0, 52, 0
3, 85680, Note_on_c, 0, 45, 47
3, 85830, Note_on_c, 0, 45, 0
3, 85920, Note_on_c, 0, 37, 0
3, 85920, Note_on_c, 0, 37, 53
3, 86160, Note_on_c, 0, 45, 45
3, 86310, Note_on_c, 0, 45, 0
3, 86400, Note_on_c, 0, 37, 0
3, 86400, Note_on_c, 0, 35, 59
3, 86640, Note_on_c, 0, 47, 47
3, 86805, Note_on_c, 0, 47, 0
3, 86880, Note_on_c, 0, 51, 55
3, 87045, Note_on_c, 0, 51, 0
3, 87120, Note_on_c, 0, 47, 44
3, 87285, Note_on_c, 0, 47, 0
3, 87360, Note_on_c, 0, 35, 0
3, 87360, Note_on_c, 0, 35, 54
3, 87840, Note_on_c, 0, 35, 0
3, 87840, Note_on_c, 0, 28, 89
3, 88080, Note_on_c, 0, 47, 65
3, 88245, Note_on_c, 0, 47, 0
3, 88320, Note_on_c, 0, 56, 70
3, 88485, Note_on_c, 0, 56, 0
3, 88560, Note_on_c, 0, 47, 64
3, 88725, Note_on_c, 0, 47, 0
3, 88800, Note_on_c, 0, 28, 0
3, 88800, Note_on_c, 0, 40, 70
3, 89040, Note_on_c, 0, 47, 62
3, 89205, Note_on_c, 0, 47, 0
3, 89280, Note_on_c, 0, 40, 0
3, 89280, Note_on_c, 0, 40, 74
3, 89520, Note_on_c, 0, 47, 61
3, 89685, Note_on_c, 0, 47, 0
3, 89760, Note_on_c, 0, 56, 70
3, 89925, Note_on_c, 0, 56, 0
3, 90000, Note_on_c, 0, 47, 63
3, 90165, Note_on_c, 0, 47, 0
3, 90240, Note_on_c, 0, 40, 0
3, 90240, Note_on_c, 0, 40, 71
3, 90480, Note_on_c, 0, 47, 61
3, 90645, Note_on_c, 0, 47, 0
3, 90720, Note_on_c, 0, 40, 0
3, 90720, Note_on_c, 0, 40, 72
3, 90960, Note_on_c, 0, 48, 65
3, 91125, Note_on_c, 0, 48, 0
3, 91200, Note_on_c, 0, 56, 70
3, 91365, Note_on_c, 0, 56, 0
3, 91440, Note_on_c, 0, 48, 62
3, 91605, Note_on_c, 0, 48, 0
3, 91680, Note_on_c, 0, 40, 0
3, 91680, Note_on_c, 0, 40, 71
3, 91920, Note_on_c, 0, 48, 65
3, 92085, Note_on_c, 0, 48, 0
3, 92160, Note_on_c, 0, 40, 0
3, 92160, Note_on_c, 0, 40, 72
3, 92400, Note_on_c, 0, 47, 64
3, 92565, Note_on_c, 0, 47, 0
3, 92640, Note_on_c, 0, 57, 71
3, 92805, Note_on_c, 0, 57, 0
3, 92880, Note_on_c, 0, 51, 62
3, 93045, Note_on_c, 0, 51, 0
3, 93120, Note_on_c, 0, 40, 0
3, 93120, Note_on_c, 0, 47, 69
3, 93285, Note_on_c, 0, 47, 0
3, 93360, Note_on_c, 0, 51, 61
3, 93525, Note_on_c, 0, 51, 0
3, 93600, Note_on_c, 0, 40, 73
3, 93840, Note_on_c, 0, 47, 66
3, 94005, Note_on_c, 0, 47, 0
3, 94080, Note_on_c, 0, 56, 70
3, 94245, Note_on_c, 0, 56, 0
3, 94320, Note_on_c, 0, 47, 60
3, 94485, Note_on_c, 0, 47, 0
3, 94560, Note_on_c, 0, 40, 0
3, 94560, Note_on_c, 0, 40, 68
3, 94800, Note_on_c, 0, 47, 57
3, 94965, Note_on_c, 0, 47, 0
3, 95040, Note_on_c, 0, 40, 0
3, 95040, Note_on_c, 0, 44, 56
3, 95040, Note_on_c, 0, 32, 56
3, 95760, Note_on_c, 0, 32, 0
3, 95760, Note_on_c, 0, 44, 0
3, 95760, Note_on_c, 0, 59, 53
3, 95910, Note_on_c, 0, 59, 0
3, 96000, Note_on_c, 0, 52, 48
3, 96150, Note_on_c, 0, 52, 0
3, 96240, Note_on_c, 0, 47, 45
3, 96390, Note_on_c, 0, 47, 0
3, 96480, Note_on_c, 0, 49, 56
3, 96480, Note_on_c, 0, 37, 56
3, 96720, Note_on_c, 0, 54, 43
3, 96870, Note_on_c, 0, 54, 0
3, 96960, Note_on_c, 0, 64, 46
3, 97110, Note_on_c, 0, 64, 0
3, 97200, Note_on_c, 0, 58, 43
3, 97350, Note_on_c, 0, 58, 0
3, 97440, Note_on_c, 0, 37, 0
3, 97440, Note_on_c, 0, 49, 0
3, 97440, Note_on_c, 0, 54, 48
3, 97920, Note_on_c, 0, 54, 0
3, 97920, Note_on_c, 0, 35, 52
3, 98160, Note_on_c, 0, 47, 43
3, 98310, Note_on_c, 0, 47, 0
3, 98400, Note_on_c, 0, 54, 50
3, 98550, Note_on_c, 0, 54, 0
3, 98640, Note_on_c, 0, 47, 41
3, 98790, Note_on_c, 0, 47, 0
3, 98880, Note_on_c, 0, 35, 0
3, 98880, Note_on_c, 0, 35, 48
3, 99120, Note_on_c, 0, 47, 41
3, 99270, Note_on_c, 0, 47, 0
3, 99360, Note_on_c, 0, 35, 0
3, 99360, Note_on_c, 0, 40, 49
3, 99360, Note_on_c, 0, 28, 49
3, 99600, Note_on_c, 0, 47, 41
3, 99750, Note_on_c, 0, 47, 0
3, 99840, Note_on_c, 0, 56, 46
3, 99990, Note_on_c, 0, 56, 0
3, 100080, Note_on_c, 0, 47, 40
3, 100230, Note_on_c, 0, 47, 0
3, 100320, Note_on_c, 0, 28, 0
3, 100320, Note_on_c, 0, 40, 0
3, 100320, Note_on_c, 0, 40, 46
3, 100560, Note_on_c, 0, 40, 0
3, 100560, Note_on_c, 0, 47, 41
3, 100710, Note_on_c, 0, 47, 0
3, 100800, Note_on_c, 0, 52, 55
3, 100920, Note_on_c, 0, 52, 0
3, 101040, Note_on_c, 0, 59, 44
3, 101160, Note_on_c, 0, 59, 0
3, 101280, Note_on_c, 0, 68, 57
3, 101400, Note_on_c, 0, 68, 0
3, 101520, Note_on_c, 0, 59, 50
3, 101640, Note_on_c, 0, 59, 0
3, 101760, Note_on_c, 0, 52, 48
3, 101880, Note_on_c, 0, 52, 0
3, 102000, Note_on_c, 0, 59, 53
3, 102120, Note_on_c, 0, 59, 0
3, 102240, Note_on_c, 0, 51, 50
3, 102360, Note_on_c, 0, 51, 0
3, 102480, Note_on_c, 0, 58, 44
3, 102600, Note_on_c, 0, 58, 0
3, 102720, Note_on_c, 0, 67, 54
3, 102960, Note_on_c, 0, 58, 44
3, 103080, Note_on_c, 0, 58, 0
3, 103200, Note_on_c, 0, 67, 0
3, 103200, Note_on_c, 0, 51, 48
3, 103320, Note_on_c, 0, 51, 0
3, 103440, Note_on_c, 0, 58, 43
3, 103560, Note_on_c, 0, 58, 0
3, 103680, Note_on_c, 0, 50, 53
3, 103800, Note_on_c, 0, 50, 0
3, 103920, Note_on_c, 0, 57, 44
3, 104040, Note_on_c, 0, 57, 0
3, 104160, Note_on_c, 0, 63, 50
3, 104280, Note_on_c, 0, 63, 0
3, 104400, Note_on_c, 0, 57, 43
3, 104520, Note_on_c, 0, 57, 0
3, 104640, Note_on_c, 0, 50, 47
3, 104760, Note_on_c, 0, 50, 0
3, 104880, Note_on_c, 0, 57, 43
3, 105000, Note_on_c, 0, 57, 0
3, 105120, Note_on_c, 0, 49, 52
3, 105120, Note_on_c, 0, 37, 52
3, 105240, Note_on_c, 0, 37, 0
3, 105240, Note_on_c, 0, 49, 0
3, 105360, Note_on_c, 0, 56, 44
3, 105480, Note_on_c, 0, 56, 0
3, 105600, Note_on_c, 0, 65, 50
3, 105840, Note_on_c, 0, 56, 43
3, 105960, Note_on_c, 0, 56, 0
3, 106080, Note_on_c, 0, 65, 0
3, 106080, Note_on_c, 0, 49, 50
3, 106200, Note_on_c, 0, 49, 0
3, 106320, Note_on_c, 0, 56, 45
3, 106440, Note_on_c, 0, 56, 0
3, 106560, Note_on_c, 0, 45, 63
3, 106680, Note_on_c, 0, 45, 0
3, 106800, Note_on_c, 0, 52, 56
3, 106920, Note_on_c, 0, 52, 0
3, 107040, Note_on_c, 0, 61, 65
3, 107160, Note_on_c, 0, 61, 0
3, 107280, Note_on_c, 0, 52, 60
3, 107400, Note_on_c, 0, 52, 0
3, 107520, Note_on_c, 0, 45, 65
3, 107640, Note_on_c, 0, 45, 0
3, 107760, Note_on_c, 0, 52, 60
3, 107880, Note_on_c, 0, 52, 0
3, 108000, Note_on_c, 0, 42, 74
3, 108120, Note_on_c, 0, 42, 0
3, 108240, Note_on_c, 0, 51, 65
3, 108360, Note_on_c, 0, 51, 0
3, 108480, Note_on_c, 0, 61, 69
3, 108600, Note_on_c, 0, 61, 0
3, 108720, Note_on_c, 0, 51, 65
3, 108840, Note_on_c, 0, 51, 0
3, 108960, Note_on_c, 0, 42, 72
3, 109080, Note_on_c, 0, 42, 0
3, 109200, Note_on_c, 0, 51, 69
3, 109320, Note_on_c, 0, 51, 0
3, 109440, Note_on_c, 0, 44, 74
3, 109560, Note_on_c, 0, 44, 0
3, 109680, Note_on_c, 0, 51, 77
3, 109800, Note_on_c, 0, 51, 0
3, 109920, Note_on_c, 0, 60, 84
3, 110040, Note_on_c, 0, 60, 0
3, 110400, Note_on_c, 0, 44, 84
3, 110400, Note_on_c, 0, 32, 84
3, 110880, Note_on_c, 0, 32, 0
3, 110880, Note_on_c, 0, 44, 0
3, 110880, Note_on_c, 0, 37, 84
3, 110880, Note_on_c, 0, 25, 84
3, 111000, Note_on_c, 0, 25, 0
3, 111000, Note_on_c, 0, 37, 0
3, 111120, Note_on_c, 0, 44, 69
3, 111240, Note_on_c, 0, 44, 0
3, 111360, Note_on_c, 0, 49, 75
3, 111480, Note_on_c, 0, 49, 0
3, 111600, Note_on_c, 0, 44, 68
3, 111720, Note_on_c, 0, 44, 0
3, 111840, Note_on_c, 0, 32, 73
3, 111840, Note_on_c, 0, 44, 73
3, 111960, Note_on_c, 0, 44, 0
3, 111960, Note_on_c, 0, 32, 0
3, 112320, Note_on_c, 0, 37, 82
3, 112320, Note_on_c, 0, 25, 82
3, 112440, Note_on_c, 0, 25, 0
3, 112440, Note_on_c, 0, 37, 0
3, 112560, Note_on_c, 0, 44, 68
3, 112680, Note_on_c, 0, 44, 0
3, 112800, Note_on_c, 0, 49, 73
3, 112920, Note_on_c, 0, 49, 0
3, 113040, Note_on_c, 0, 44, 66
3, 113160, Note_on_c, 0, 44, 0
3, 113280, Note_on_c, 0, 32, 72
3, 113280, Note_on_c, 0, 44, 72
3, 113400, Note_on_c, 0, 44, 0
3, 113400, Note_on_c, 0, 32, 0
3, 113760, Note_on_c, 0, 37, 80
3, 113760, Note_on_c, 0, 25, 80
3, 113880, Note_on_c, 0, 25, 0
3, 113880, Note_on_c, 0, 37, 0
3, 114000, Note_on_c, 0, 44, 67
3, 114120, Note_on_c, 0, 44, 0
3, 114240, Note_on_c, 0, 49, 72
3, 114360, Note_on_c, 0, 49, 0
3, 114480, Note_on_c, 0, 44, 65
3, 114600, Note_on_c, 0, 44, 0
3, 114720, Note_on_c, 0, 44, 70
3, 114720, Note_on_c, 0, 32, 70
3, 114840, Note_on_c, 0, 32, 0
3, 114840, Note_on_c, 0, 44, 0
3, 115200, Note_on_c, 0, 37, 80
3, 115200, Note_on_c, 0, 25, 80
3, 115320, Note_on_c, 0, 25, 0
3, 115320, Note_on_c, 0, 37, 0
3, 115440, Note_on_c, 0, 44, 67
3, 115560, Note_on_c, 0, 44, 0
3, 115680, Note_on_c, 0, 49, 73
3, 115800, Note_on_c, 0, 49, 0
3, 115920, Note_on_c, 0, 44, 68
3, 116040, Note_on_c, 0, 44, 0
3, 116160, Note_on_c, 0, 44, 71
3, 116160, Note_on_c, 0, 32, 71
3, 116280, Note_on_c, 0, 32, 0
3, 116280, Note_on_c, 0, 44, 0
3, 116640, Note_on_c, 0, 49, 81
3, 116640, Note_on_c, 0, 37, 81
3, 116880, Note_on_c, 0, 56, 74
3, 117120, Note_on_c, 0, 56, 0
3, 117120, Note_on_c, 0, 61, 80
3, 117120, Note_on_c, 0, 65, 80
3, 117360, Note_on_c, 0, 65, 0
3, 117360, Note_on_c, 0, 61, 0
3, 117360, Note_on_c, 0, 56, 73
3, 117600, Note_on_c, 0, 56, 0
3, 117600, Note_on_c, 0, 61, 77
3, 117600, Note_on_c, 0, 65, 77
3, 117840, Note_on_c, 0, 65, 0
3, 117840, Note_on_c, 0, 61, 0
3, 117840, Note_on_c, 0, 56, 70
3, 118035, Note_on_c, 0, 37, 0
3, 118035, Note_on_c, 0, 49, 0
3, 118080, Note_on_c, 0, 56, 0
3, 118080, Note_on_c, 0, 37, 80
3, 118080, Note_on_c, 0, 49, 80
3, 118320, Note_on_c, 0, 57, 69
3, 118560, Note_on_c, 0, 57, 0
3, 118560, Note_on_c, 0, 65, 74
3, 118560, Note_on_c, 0, 61, 74
3, 118800, Note_on_c, 0, 61, 0
3, 118800, Note_on_c, 0, 65, 0
3, 118800, Note_on_c, 0, 57, 68
3, 119040, Note_on_c, 0, 57, 0
3, 119040, Note_on_c, 0, 61, 73
3, 119040, Note_on_c, 0, 65, 73
3, 119280, Note_on_c, 0, 65, 0
3, 119280, Note_on_c, 0, 61, 0
3, 119280, Note_on_c, 0, 57, 68
3, 119475, Note_on_c, 0, 49, 0
3, 119475, Note_on_c, 0, 37, 0
3, 119520, Note_on_c, 0, 57, 0
3, 119520, Note_on_c, 0, 49, 77
3, 119520, Note_on_c, 0, 37, 77
3, 119760, Note_on_c, 0, 56, 64
3, 120000, Note_on_c, 0, 56, 0
3, 120000, Note_on_c, 0, 60, 68
3, 120000, Note_on_c, 0, 66, 68
3, 120240, Note_on_c, 0, 66, 0
3, 120240, Note_on_c, 0, 60, 0
3, 120240, Note_on_c, 0, 56, 62
3, 120480, Note_on_c, 0, 56, 0
3, 120480, Note_on_c, 0, 60, 68
3, 120480, Note_on_c, 0, 66, 68
3, 120720, Note_on_c, 0, 66, 0
3, 120720, Note_on_c, 0, 60, 0
3, 120720, Note_on_c, 0, 56, 59
3, 120915, Note_on_c, 0, 37, 0
3, 120915, Note_on_c, 0, 49, 0
3, 120960, Note_on_c, 0, 56, 0
3, 120960, Note_on_c, 0, 49, 74
3, 120960, Note_on_c, 0, 37, 74
3, 121200, Note_on_c, 0, 56, 57
3, 121440, Note_on_c, 0, 56, 0
3, 121440, Note_on_c, 0, 65, 61
3, 121440, Note_on_c, 0, 61, 61
3, 121680, Note_on_c, 0, 61, 0
3, 121680, Note_on_c, 0, 65, 0
3, 121680, Note_on_c, 0, 56, 51
3, 121920, Note_on_c, 0, 56, 0
3, 121920, Note_on_c, 0, 65, 56
3, 121920, Note_on_c, 0, 61, 56
3, 122160, Note_on_c, 0, 61, 0
3, 122160, Note_on_c, 0, 65, 0
3, 122160, Note_on_c, 0, 56, 48
3, 122355, Note_on_c, 0, 37, 0
3, 122355, Note_on_c, 0, 49, 0
3, 122400, Note_on_c, 0, 56, 0
3, 122400, Note_on_c, 0, 53, 48
3, 122640, Note_on_c, 0, 53, 0
3, 122640, Note_on_c, 0, 56, 39
3, 122880, Note_on_c, 0, 56, 0
3, 122880, Note_on_c, 0, 68, 43
3, 122880, Note_on_c, 0, 61, 43
3, 123120, Note_on_c, 0, 61, 0
3, 123120, Note_on_c, 0, 68, 0
3, 123120, Note_on_c, 0, 56, 38
3, 123360, Note_on_c, 0, 56, 0
3, 123360, Note_on_c, 0, 68, 41
3, 123360, Note_on_c, 0, 61, 41
3, 123600, Note_on_c, 0, 61, 0
3, 123600, Note_on_c, 0, 68, 0
3, 123840, Note_on_c, 0, 46, 46
3, 123840, Note_on_c, 0, 34, 46
3, 124080, Note_on_c, 0, 58, 36
3, 124320, Note_on_c, 0, 58, 0
3, 124320, Note_on_c, 0, 67, 40
3, 124320, Note_on_c, 0, 61, 40
3, 124560, Note_on_c, 0, 61, 0
3, 124560, Note_on_c, 0, 67, 0
3, 124560, Note_on_c, 0, 58, 35
3, 124800, Note_on_c, 0, 58, 0
3, 124800, Note_on_c, 0, 51, 39
3, 125040, Note_on_c, 0, 51, 0
3, 125265, Note_on_c, 0, 34, 0
3, 125265, Note_on_c, 0, 46, 0
3, 125280, Note_on_c, 0, 44, 40
3, 125280, Note_on_c, 0, 32, 40
3, 125520, Note_on_c, 0, 56, 34
3, 125760, Note_on_c, 0, 56, 0
3, 125760, Note_on_c, 0, 66, 37
3, 125760, Note_on_c, 0, 60, 37
3, 126000, Note_on_c, 0, 60, 0
3, 126000, Note_on_c, 0, 66, 0
3, 126000, Note_on_c, 0, 56, 30
3, 126195, Note_on_c, 0, 44, 0
3, 126240, Note_on_c, 0, 56, 0
3, 126240, Note_on_c, 0, 44, 34
3, 126480, Note_on_c, 0, 44, 0
3, 126705, Note_on_c, 0, 32, 0
3, 126720, Note_on_c, 0, 25, 64
3, 126720, Note_on_c, 0, 37, 54
3, 126960, Note_on_c, 0, 37, 0
3, 126960, Note_on_c, 0, 25, 0
3, 126960, Note_on_c, 0, 44, 61
3, 127200, Note_on_c, 0, 44, 0
3, 127200, Note_on_c, 0, 49, 69
3, 127440, Note_on_c, 0, 49, 0
3, 127440, Note_on_c, 0, 44, 59
3, 127680, Note_on_c, 0, 44, 0
3, 127680, Note_on_c, 0, 49, 69
3, 127680, Note_on_c, 0, 37, 70
3, 127920, Note_on_c, 0, 37, 0
3, 127920, Note_on_c, 0, 49, 0
3, 127920, Note_on_c, 0, 44, 64
3, 128160, Note_on_c, 0, 44, 0
3, 128160, Note_on_c, 0, 33, 76
3, 128160, Note_on_c, 0, 45, 65
3, 128400, Note_on_c, 0, 45, 0
3, 128400, Note_on_c, 0, 33, 0
3, 128400, Note_on_c, 0, 40, 67
3, 128640, Note_on_c, 0, 40, 0
3, 128640, Note_on_c, 0, 45, 74
3, 128880, Note_on_c, 0, 45, 0
3, 128880, Note_on_c, 0, 40, 66
3, 129120, Note_on_c, 0, 40, 0
3, 129120, Note_on_c, 0, 33, 71
3, 129120, Note_on_c, 0, 45, 69
3, 129360, Note_on_c, 0, 45, 0
3, 129360, Note_on_c, 0, 33, 0
3, 129360, Note_on_c, 0, 40, 65
3, 129600, Note_on_c, 0, 40, 0
3, 129600, Note_on_c, 0, 49, 46
3, 129600, Note_on_c, 0, 37, 46
3, 129840, Note_on_c, 0, 37, 0
3, 129840, Note_on_c, 0, 49, 0
3, 129840, Note_on_c, 0, 44, 35
3, 130080, Note_on_c, 0, 44, 0
3, 130080, Note_on_c, 0, 49, 40
3, 130320, Note_on_c, 0, 49, 0
3, 130320, Note_on_c, 0, 44, 36
3, 130560, Note_on_c, 0, 44, 0
3, 130560, Note_on_c, 0, 49, 44
3, 130560, Note_on_c, 0, 37, 44
3, 130800, Note_on_c, 0, 37, 0
3, 130800, Note_on_c, 0, 49, 0
3, 130800, Note_on_c, 0, 44, 38
3, 131040, Note_on_c, 0, 44, 0
3, 131040, Note_on_c, 0, 45, 43
3, 131040, Note_on_c, 0, 33, 47
3, 131280, Note_on_c, 0, 33, 0
3, 131280, Note_on_c, 0, 45, 0
3, 131280, Note_on_c, 0, 40, 40
3, 131520, Note_on_c, 0, 40, 0
3, 131520, Note_on_c, 0, 33, 46
3, 131520, Note_on_c, 0, 45, 46
3, 131760, Note_on_c, 0, 45, 0
3, 131760, Note_on_c, 0, 33, 0
3, 131760, Note_on_c, 0, 40, 39
3, 132000, Note_on_c, 0, 40, 0
3, 132000, Note_on_c, 0, 33, 47
3, 132000, Note_on_c, 0, 45, 47
3, 132240, Note_on_c, 0, 45, 0
3, 132240, Note_on_c, 0, 33, 0
3, 132240, Note_on_c, 0, 39, 39
3, 132480, Note_on_c, 0, 39, 0
3, 132480, Note_on_c, 0, 32, 50
3, 132480, Note_on_c, 0, 44, 44
3, 132960, Note_on_c, 0, 44, 0
3, 132960, Note_on_c, 0, 32, 0
3, 132960, Note_on_c, 0, 60, 68
3, 133200, Note_on_c, 0, 60, 0
3, 133200, Note_on_c, 0, 51, 71
3, 133440, Note_on_c, 0, 51, 0
3, 133440, Note_on_c, 0, 44, 51
3, 133680, Note_on_c, 0, 44, 0
3, 133680, Note_on_c, 0, 51, 62
3, 133920, Note_on_c, 0, 51, 0
3, 133920, Note_on_c, 0, 44, 48
3, 134160, Note_on_c, 0, 44, 0
3, 134160, Note_on_c, 0, 51, 60
3, 134400, Note_on_c, 0, 51, 0
3, 134400, Note_on_c, 0, 60, 60
3, 134640, Note_on_c, 0, 60, 0
3, 134640, Note_on_c, 0, 51, 60
3, 134880, Note_on_c, 0, 51, 0
3, 134880, Note_on_c, 0, 44, 47
3, 135120, Note_on_c, 0, 44, 0
3, 135120, Note_on_c, 0, 51, 60
3, 135360, Note_on_c, 0, 51, 0
3, 135360, Note_on_c, 0, 43, 44
3, 135600, Note_on_c, 0, 43, 0
3, 135600, Note_on_c, 0, 52, 40
3, 135840, Note_on_c, 0, 52, 0
3, 135840, Note_on_c, 0, 61, 44
3, 136080, Note_on_c, 0, 61, 0
3, 136080, Note_on_c, 0, 52, 36
3, 136320, Note_on_c, 0, 52, 0
3, 136320, Note_on_c, 0, 43, 43
3, 136560, Note_on_c, 0, 43, 0
3, 136560, Note_on_c, 0, 52, 36
3, 136800, Note_on_c, 0, 52, 0
3, 136800, Note_on_c, 0, 43, 44
3, 137040, Note_on_c, 0, 43, 0
3, 137040, Note_on_c, 0, 52, 38
3, 137280, Note_on_c, 0, 52, 0
3, 137280, Note_on_c, 0, 61, 40
3, 137520, Note_on_c, 0, 61, 0
3, 137520, Note_on_c, 0, 52, 34
3, 137760, Note_on_c, 0, 52, 0
3, 137760, Note_on_c, 0, 43, 42
3, 138000, Note_on_c, 0, 43, 0
3, 138000, Note_on_c, 0, 52, 34
3, 138240, Note_on_c, 0, 52, 0
3, 138240, Note_on_c, 0, 56, 78
3, 138480, Note_on_c, 0, 56, 0
3, 138480, Note_on_c, 0, 53, 63
3, 138720, Note_on_c, 0, 53, 0
3, 138720, Note_on_c, 0, 46, 70
3, 138960, Note_on_c, 0, 46, 0
3, 138960, Note_on_c, 0, 41, 72
3, 139200, Note_on_c, 0, 41, 0
3, 139200, Note_on_c, 0, 34, 77
3, 139440, Note_on_c, 0, 34, 0
3, 139680, Note_on_c, 0, 57, 85
3, 139920, Note_on_c, 0, 57, 0
3, 139920, Note_on_c, 0, 54, 78
3, 140160, Note_on_c, 0, 54, 0
3, 140160, Note_on_c, 0, 47, 81
3, 140400, Note_on_c, 0, 47, 0
3, 140400, Note_on_c, 0, 42, 74
3, 140640, Note_on_c, 0, 42, 0
3, 140640, Note_on_c, 0, 35, 78
3, 140880, Note_on_c, 0, 35, 0
3, 141465, Note_on_c, 0, 51, 57
3, 141510, Note_on_c, 0, 56, 64
3, 141555, Note_on_c, 0, 60, 75
3, 141600, Note_on_c, 0, 66, 85
3, 141945, Note_on_c, 0, 51, 0
3, 141990, Note_on_c, 0, 56, 0
3, 142035, Note_on_c, 0, 60, 0
3, 142080, Note_on_c, 0, 66, 0
3, 142080, Note_on_c, 0, 32, 82
3, 142560, Note_on_c, 0, 32, 0
3, 142560, Note_on_c, 0, 68, 83
3, 143520, Note_on_c, 0, 68, 0
3, 144000, Note_on_c, 0, 37, 79
3, 144000, Note_on_c, 0, 25, 79
3, 144150, Note_on_c, 0, 25, 0
3, 144150, Note_on_c, 0, 37, 0
3, 144240, Note_on_c, 0, 44, 65
3, 144390, Note_on_c, 0, 44, 0
3, 144480, Note_on_c, 0, 56, 69
3, 144630, Note_on_c, 0, 56, 0
3, 144720, Note_on_c, 0, 44, 66
3, 144870, Note_on_c, 0, 44, 0
3, 144960, Note_on_c, 0, 32, 70
3, 144960, Note_on_c, 0, 44, 70
3, 145110, Note_on_c, 0, 44, 0
3, 145110, Note_on_c, 0, 32, 0
3, 145440, Note_on_c, 0, 25, 79
3, 145440, Note_on_c, 0, 37, 79
3, 145590, Note_on_c, 0, 37, 0
3, 145590, Note_on_c, 0, 25, 0
3, 145680, Note_on_c, 0, 44, 65
3, 145830, Note_on_c, 0, 44, 0
3, 145920, Note_on_c, 0, 56, 69
3, 146070, Note_on_c, 0, 56, 0
3, 146160, Note_on_c, 0, 44, 66
3, 146310, Note_on_c, 0, 44, 0
3, 146400, Note_on_c, 0, 44, 70
3, 146400, Note_on_c, 0, 32, 70
3, 146550, Note_on_c, 0, 32, 0
3, 146550, Note_on_c, 0, 44, 0
3, 146880, Note_on_c, 0, 25, 79
3, 146880, Note_on_c, 0, 37, 79
3, 147030, Note_on_c, 0, 37, 0
3, 147030, Note_on_c, 0, 25, 0
3, 147120, Note_on_c, 0, 44, 65
3, 147270, Note_on_c, 0, 44, 0
3, 147360, Note_on_c, 0, 56, 69
3, 147510, Note_on_c, 0, 56, 0
3, 147600, Note_on_c, 0, 44, 66
3, 147750, Note_on_c, 0, 44, 0
3, 147840, Note_on_c, 0, 44, 70
3, 147840, Note_on_c, 0, 32, 70
3, 147990, Note_on_c, 0, 32, 0
3, 147990, Note_on_c, 0, 44, 0
3, 148320, Note_on_c, 0, 37, 79
3, 148320, Note_on_c, 0, 25, 79
3, 148470, Note_on_c, 0, 25, 0
3, 148470, Note_on_c, 0, 37, 0
3, 148560, Note_on_c, 0, 44, 65
3, 148710, Note_on_c, 0, 44, 0
3, 148800, Note_on_c, 0, 56, 69
3, 148950, Note_on_c, 0, 56, 0
3, 149040, Note_on_c, 0, 44, 66
3, 149190, Note_on_c, 0, 44, 0
3, 149280, Note_on_c, 0, 32, 70
3, 149280, Note_on_c, 0, 44, 70
3, 149430, Note_on_c, 0, 44, 0
3, 149430, Note_on_c, 0, 32, 0
3, 149760, Note_on_c, 0, 37, 79
3, 149760, Note_on_c, 0, 25, 79
3, 149910, Note_on_c, 0, 25, 0
3, 149910, Note_on_c, 0, 37, 0
3, 150000, Note_on_c, 0, 44, 65
3, 150150, Note_on_c, 0, 44, 0
3, 150240, Note_on_c, 0, 56, 69
3, 150390, Note_on_c, 0, 56, 0
3, 150480, Note_on_c, 0, 44, 66
3, 150630, Note_on_c, 0, 44, 0
3, 150720, Note_on_c, 0, 32, 70
3, 150720, Note_on_c, 0, 44, 70
3, 150870, Note_on_c, 0, 44, 0
3, 150870, Note_on_c, 0, 32, 0
3, 151200, Note_on_c, 0, 25, 79
3, 151200, Note_on_c, 0, 37, 79
3, 151365, Note_on_c, 0, 37, 0
3, 151365, Note_on_c, 0, 25, 0
3, 151440, Note_on_c, 0, 44, 65
3, 151605, Note_on_c, 0, 44, 0
3, 151680, Note_on_c, 0, 56, 69
3, 151845, Note_on_c, 0, 56, 0
3, 151920, Note_on_c, 0, 44, 66
3, 152085, Note_on_c, 0, 44, 0
3, 152160, Note_on_c, 0, 44, 70
3, 152160, Note_on_c, 0, 32, 70
3, 152325, Note_on_c, 0, 32, 0
3, 152325, Note_on_c, 0, 44, 0
3, 152640, Note_on_c, 0, 25, 79
3, 152640, Note_on_c, 0, 37, 79
3, 152805, Note_on_c, 0, 37, 0
3, 152805, Note_on_c, 0, 25, 0
3, 152880, Note_on_c, 0, 44, 65
3, 153045, Note_on_c, 0, 44, 0
3, 153120, Note_on_c, 0, 56, 69
3, 153285, Note_on_c, 0, 56, 0
3, 153360, Note_on_c, 0, 44, 66
3, 153525, Note_on_c, 0, 44, 0
3, 153600, Note_on_c, 0, 44, 70
3, 153600, Note_on_c, 0, 32, 70
3, 153765, Note_on_c, 0, 32, 0
3, 153765, Note_on_c, 0, 44, 0
3, 154080, Note_on_c, 0, 37, 79
3, 154080, Note_on_c, 0, 25, 79
3, 154245, Note_on_c, 0, 25, 0
3, 154245, Note_on_c, 0, 37, 0
3, 154320, Note_on_c, 0, 44, 65
3, 154485, Note_on_c, 0, 44, 0
3, 154560, Note_on_c, 0, 56, 69
3, 154725, Note_on_c, 0, 56, 0
3, 154800, Note_on_c, 0, 44, 66
3, 154965, Note_on_c, 0, 44, 0
3, 155040, Note_on_c, 0, 32, 70
3, 155040, Note_on_c, 0, 44, 70
3, 155205, Note_on_c, 0, 44, 0
3, 155205, Note_on_c, 0, 32, 0
3, 155520, Note_on_c, 0, 37, 86
3, 155520, Note_on_c, 0, 25, 86
3, 155640, Note_on_c, 0, 25, 0
3, 155640, Note_on_c, 0, 37, 0
3, 155760, Note_on_c, 0, 44, 72
3, 155880, Note_on_c, 0, 44, 0
3, 156000, Note_on_c, 0, 56, 76
3, 156120, Note_on_c, 0, 56, 0
3, 156240, Note_on_c, 0, 44, 73
3, 156360, Note_on_c, 0, 44, 0
3, 156480, Note_on_c, 0, 32, 77
3, 156480, Note_on_c, 0, 44, 77
3, 156600, Note_on_c, 0, 44, 0
3, 156600, Note_on_c, 0, 32, 0
3, 156960, Note_on_c, 0, 25, 90
3, 156960, Note_on_c, 0, 37, 90
3, 157080, Note_on_c, 0, 37, 0
3, 157080, Note_on_c, 0, 25, 0
3, 157200, Note_on_c, 0, 44, 76
3, 157320, Note_on_c, 0, 44, 0
3, 157440, Note_on_c, 0, 56, 80
3, 157560, Note_on_c, 0, 56, 0
3, 157680, Note_on_c, 0, 44, 77
3, 157800, Note_on_c, 0, 44, 0
3, 157920, Note_on_c, 0, 44, 81
3, 157920, Note_on_c, 0, 32, 81
3, 158040, Note_on_c, 0, 32, 0
3, 158040, Note_on_c, 0, 44, 0
3, 158400, Note_on_c, 0, 25, 89
3, 158400, Note_on_c, 0, 37, 89
3, 158520, Note_on_c, 0, 37, 0
3, 158520, Note_on_c, 0, 25, 0
3, 158640, Note_on_c, 0, 44, 75
3, 158760, Note_on_c, 0, 44, 0
3, 158880, Note_on_c, 0, 56, 79
3, 159000, Note_on_c, 0, 56, 0
3, 159120, Note_on_c, 0, 44, 76
3, 159240, Note_on_c, 0, 44, 0
3, 159360, Note_on_c, 0, 44, 80
3, 159360, Note_on_c, 0, 32, 80
3, 159480, Note_on_c, 0, 32, 0
3, 159480, Note_on_c, 0, 44, 0
3, 159840, Note_on_c, 0, 37, 89
3, 159840, Note_on_c, 0, 25, 89
3, 159960, Note_on_c, 0, 25, 0
3, 159960, Note_on_c, 0, 37, 0
3, 160080, Note_on_c, 0, 44, 75
3, 160200, Note_on_c, 0, 44, 0
3, 160320, Note_on_c, 0, 56, 79
3, 160440, Note_on_c, 0, 56, 0
3, 160560, Note_on_c, 0, 44, 76
3, 160680, Note_on_c, 0, 44, 0
3, 160800, Note_on_c, 0, 32, 80
3, 160800, Note_on_c, 0, 44, 80
3, 160920, Note_on_c, 0, 44, 0
3, 160920, Note_on_c, 0, 32, 0
3, 161280, Note_on_c, 0, 37, 51
3, 161280, Note_on_c, 0, 25, 51
3, 161400, Note_on_c, 0, 25, 0
3, 161400, Note_on_c, 0, 37, 0
3, 161520, Note_on_c, 0, 44, 37
3, 161640, Note_on_c, 0, 44, 0
3, 161760, Note_on_c, 0, 56, 41
3, 161880, Note_on_c, 0, 56, 0
3, 162000, Note_on_c, 0, 44, 38
3, 162120, Note_on_c, 0, 44, 0
3, 162240, Note_on_c, 0, 32, 42
3, 162240, Note_on_c, 0, 44, 42
3, 162360, Note_on_c, 0, 44, 0
3, 162360, Note_on_c, 0, 32, 0
3, 162720, Note_on_c, 0, 25, 51
3, 162720, Note_on_c, 0, 37, 51
3, 162840, Note_on_c, 0, 37, 0
3, 162840, Note_on_c, 0, 25, 0
3, 162960, Note_on_c, 0, 44, 37
3, 163080, Note_on_c, 0, 44, 0
3, 163200, Note_on_c, 0, 56, 41
3, 163320, Note_on_c, 0, 56, 0
3, 163440, Note_on_c, 0, 44, 38
3, 163560, Note_on_c, 0, 44, 0
3, 163680, Note_on_c, 0, 44, 42
3, 163680, Note_on_c, 0, 32, 42
3, 163800, Note_on_c, 0, 32, 0
3, 163800, Note_on_c, 0, 44, 0
3, 164160, Note_on_c, 0, 25, 51
3, 164160, Note_on_c, 0, 37, 51
3, 164280, Note_on_c, 0, 37, 0
3, 164280, Note_on_c, 0, 25, 0
3, 164400, Note_on_c, 0, 44, 37
3, 164520, Note_on_c, 0, 44, 0
3, 164640, Note_on_c, 0, 56, 41
3, 164760, Note_on_c, 0, 56, 0
3, 164880, Note_on_c, 0, 44, 38
3, 165000, Note_on_c, 0, 44, 0
3, 165120, Note_on_c, 0, 44, 42
3, 165120, Note_on_c, 0, 32, 42
3, 165240, Note_on_c, 0, 32, 0
3, 165240, Note_on_c, 0, 44, 0
3, 165600, Note_on_c, 0, 37, 44
3, 165600, Note_on_c, 0, 25, 44
3, 165720, Note_on_c, 0, 25, 0
3, 165720, Note_on_c, 0, 37, 0
3, 165840, Note_on_c, 0, 44, 43
3, 165960, Note_on_c, 0, 44, 0
3, 166080, Note_on_c, 0, 56, 47
3, 166200, Note_on_c, 0, 56, 0
3, 166320, Note_on_c, 0, 44, 44
3, 166440, Note_on_c, 0, 44, 0
3, 167040, Note_on_c, 0, 66, 65
3, 167040, Note_on_c, 0, 60, 65
3, 167160, Note_on_c, 0, 60, 0
3, 167160, Note_on_c, 0, 66, 0
3, 167280, Note_on_c, 0, 56, 53
3, 167400, Note_on_c, 0, 56, 0
3, 167520, Note_on_c, 0, 66, 63
3, 167520, Note_on_c, 0, 60, 63
3, 167640, Note_on_c, 0, 60, 0
3, 167640, Note_on_c, 0, 66, 0
3, 167760, Note_on_c, 0, 56, 52
3, 167880, Note_on_c, 0, 56, 0
3, 168000, Note_on_c, 0, 66, 62
3, 168000, Note_on_c, 0, 58, 62
3, 168000, Note_on_c, 0, 61, 62
3, 168120, Note_on_c, 0, 61, 0
3, 168120, Note_on_c, 0, 58, 0
3, 168120, Note_on_c, 0, 66, 0
3, 168240, Note_on_c, 0, 56, 52
3, 168360, Note_on_c, 0, 56, 0
3, 168480, Note_on_c, 0, 60, 65
3, 168480, Note_on_c, 0, 66, 65
3, 168600, Note_on_c, 0, 66, 0
3, 168600, Note_on_c, 0, 60, 0
3, 168720, Note_on_c, 0, 56, 53
3, 168840, Note_on_c, 0, 56, 0
3, 168960, Note_on_c, 0, 60, 63
3, 168960, Note_on_c, 0, 66, 63
3, 169080, Note_on_c, 0, 66, 0
3, 169080, Note_on_c, 0, 60, 0
3, 169200, Note_on_c, 0, 56, 52
3, 169320, Note_on_c, 0, 56, 0
3, 169440, Note_on_c, 0, 61, 62
3, 169440, Note_on_c, 0, 58, 62
3, 169440, Note_on_c, 0, 66, 62
3, 169560, Note_on_c, 0, 66, 0
3, 169560, Note_on_c, 0, 58, 0
3, 169560, Note_on_c, 0, 61, 0
3, 169680, Note_on_c, 0, 56, 52
3, 169800, Note_on_c, 0, 56, 0
3, 169920, Note_on_c, 0, 60, 64
3, 169920, Note_on_c, 0, 63, 67
3, 169920, Note_on_c, 0, 68, 54
3, 170400, Note_on_c, 0, 68, 0
3, 170400, Note_on_c, 0, 63, 0
3, 170400, Note_on_c, 0, 60, 0
3, 170400, Note_on_c, 0, 56, 71
3, 170880, Note_on_c, 0, 56, 0
3, 171360, Note_on_c, 0, 54, 51
3, 171360, Note_on_c, 0, 63, 39
3, 171360, Note_on_c, 0, 58, 59
3, 171840, Note_on_c, 0, 58, 0
3, 171840, Note_on_c, 0, 63, 0
3, 171840, Note_on_c, 0, 54, 0
3, 171840, Note_on_c, 0, 51, 62
3, 172320, Note_on_c, 0, 51, 0
3, 172800, Note_on_c, 0, 60, 66
3, 172800, Note_on_c, 0, 66, 66
3, 172920, Note_on_c, 0, 66, 0
3, 172920, Note_on_c, 0, 60, 0
3, 173040, Note_on_c, 0, 56, 54
3, 173160, Note_on_c, 0, 56, 0
3, 173280, Note_on_c, 0, 60, 64
3, 173280, Note_on_c, 0, 66, 64
3, 173400, Note_on_c, 0, 66, 0
3, 173400, Note_on_c, 0, 60, 0
3, 173520, Note_on_c, 0, 56, 53
3, 173640, Note_on_c, 0, 56, 0
3, 174240, Note_on_c, 0, 61, 56
3, 174240, Note_on_c, 0, 70, 49
3, 174360, Note_on_c, 0, 70, 0
3, 174360, Note_on_c, 0, 61, 0
3, 174480, Note_on_c, 0, 54, 45
3, 174600, Note_on_c, 0, 54, 0
3, 174720, Note_on_c, 0, 61, 53
3, 174720, Note_on_c, 0, 70, 53
3, 174840, Note_on_c, 0, 70, 0
3, 174840, Note_on_c, 0, 61, 0
3, 174960, Note_on_c, 0, 54, 46
3, 175080, Note_on_c, 0, 54, 0
3, 175680, Note_on_c, 0, 64, 50
3, 175680, Note_on_c, 0, 72, 45
3, 175800, Note_on_c, 0, 72, 0
3, 175800, Note_on_c, 0, 64, 0
3, 175920, Note_on_c, 0, 57, 45
3, 176040, Note_on_c, 0, 57, 0
3, 176160, Note_on_c, 0, 64, 52
3, 176160, Note_on_c, 0, 72, 48
3, 176280, Note_on_c, 0, 72, 0
3, 176280, Note_on_c, 0, 64, 0
3, 176400, Note_on_c, 0, 57, 44
3, 176520, Note_on_c, 0, 57, 0
3, 177120, Note_on_c, 0, 56, 55
3, 177180, Note_on_c, 0, 63, 54
3, 177240, Note_on_c, 0, 66, 59
3, 177300, Note_on_c, 0, 72, 64
3, 177360, Note_on_c, 0, 63, 0
3, 177360, Note_on_c, 0, 56, 0
3, 177420, Note_on_c, 0, 66, 0
3, 177480, Note_on_c, 0, 72, 0
3, 177600, Note_on_c, 0, 44, 49
3, 177600, Note_on_c, 0, 56, 39
3, 177720, Note_on_c, 0, 56, 0
3, 177720, Note_on_c, 0, 44, 0
3, 178080, Note_on_c, 0, 32, 48
3, 178080, Note_on_c, 0, 44, 38
3, 178200, Note_on_c, 0, 44, 0
3, 178200, Note_on_c, 0, 32, 0
3, 178560, Note_on_c, 0, 33, 58
3, 178800, Note_on_c, 0, 33, 0
3, 178800, Note_on_c, 0, 40, 60
3, 179040, Note_on_c, 0, 40, 0
3, 179040, Note_on_c, 0, 45, 56
3, 179280, Note_on_c, 0, 45, 0
3, 179280, Note_on_c, 0, 40, 65
3, 179520, Note_on_c, 0, 40, 0
3, 179520, Note_on_c, 0, 45, 58
3, 179760, Note_on_c, 0, 45, 0
3, 179760, Note_on_c, 0, 40, 61
3, 180000, Note_on_c, 0, 40, 0
3, 180000, Note_on_c, 0, 33, 64
3, 180240, Note_on_c, 0, 33, 0
3, 180240, Note_on_c, 0, 40, 65
3, 180480, Note_on_c, 0, 40, 0
3, 180480, Note_on_c, 0, 45, 63
3, 180720, Note_on_c, 0, 45, 0
3, 180720, Note_on_c, 0, 40, 63
3, 180960, Note_on_c, 0, 40, 0
3, 180960, Note_on_c, 0, 33, 60
3, 181200, Note_on_c, 0, 33, 0
3, 181440, Note_on_c, 0, 37, 53
3, 181440, Note_on_c, 0, 25, 63
3, 181680, Note_on_c, 0, 25, 0
3, 181680, Note_on_c, 0, 37, 0
3, 181680, Note_on_c, 0, 44, 52
3, 181920, Note_on_c, 0, 44, 0
3, 181920, Note_on_c, 0, 49, 63
3, 182160, Note_on_c, 0, 49, 0
3, 182160, Note_on_c, 0, 53, 56
3, 182400, Note_on_c, 0, 53, 0
3, 182400, Note_on_c, 0, 56, 58
3, 182640, Note_on_c, 0, 56, 0
3, 182640, Note_on_c, 0, 61, 59
3, 182880, Note_on_c, 0, 61, 0
3, 182880, Note_on_c, 0, 65, 61
3, 183120, Note_on_c, 0, 65, 0
3, 183120, Note_on_c, 0, 68, 55
3, 183360, Note_on_c, 0, 68, 0
3, 183360, Note_on_c, 0, 73, 63
3, 183600, Note_on_c, 0, 73, 0
3, 184320, Note_on_c, 0, 33, 58
3, 184560, Note_on_c, 0, 33, 0
3, 184560, Note_on_c, 0, 40, 60
3, 184800, Note_on_c, 0, 40, 0
3, 184800, Note_on_c, 0, 45, 56
3, 185040, Note_on_c, 0, 45, 0
3, 185040, Note_on_c, 0, 40, 65
3, 185280, Note_on_c, 0, 40, 0
3, 185280, Note_on_c, 0, 45, 58
3, 185520, Note_on_c, 0, 45, 0
3, 185520, Note_on_c, 0, 40, 61
3, 185760, Note_on_c, 0, 40, 0
3, 185760, Note_on_c, 0, 33, 64
3, 186000, Note_on_c, 0, 33, 0
3, 186000, Note_on_c, 0, 40, 58
3, 186240, Note_on_c, 0, 40, 0
3, 186240, Note_on_c, 0, 45, 63
3, 186480, Note_on_c, 0, 45, 0
3, 186480, Note_on_c, 0, 40, 57
3, 186720, Note_on_c, 0, 40, 0
3, 186720, Note_on_c, 0, 45, 60
3, 186960, Note_on_c, 0, 45, 0
3, 186960, Note_on_c, 0, 40, 59
3, 187120, Note_on_c, 0, 33, 74
3, 187200, Note_on_c, 0, 40, 0
3, 187200, Note_on_c, 0, 40, 76
3, 187280, Control_c, 0, 64, 127
3, 187280, Note_on_c, 0, 49, 78
3, 188480, Control_c, 0, 64, 0
3, 188560, Note_on_c, 0, 33, 0
3, 188560, Note_on_c, 0, 45, 78
3, 188640, Note_on_c, 0, 40, 0
3, 188640, Note_on_c, 0, 52, 82
3, 188720, Note_on_c, 0, 49, 0
3, 188720, Control_c, 0, 64, 127
3, 188720, Note_on_c, 0, 61, 87
3, 190000, Note_on_c, 0, 45, 0
3, 190000, Control_c, 0, 64, 0
3, 190080, Note_on_c, 0, 52, 0
3, 190080, Control_c, 0, 64, 127
3, 190080, Note_on_c, 0, 37, 84
3, 190080, Note_on_c, 0, 25, 84
3, 190160, Note_on_c, 0, 61, 0
3, 190240, Note_on_c, 0, 25, 0
3, 190240, Note_on_c, 0, 37, 0
3, 190320, Note_on_c, 0, 44, 73
3, 190480, Note_on_c, 0, 44, 0
3, 190560, Note_on_c, 0, 49, 84
3, 190720, Note_on_c, 0, 49, 0
3, 190800, Note_on_c, 0, 44, 72
3, 190960, Note_on_c, 0, 44, 0
3, 191040, Note_on_c, 0, 44, 83
3, 191040, Note_on_c, 0, 32, 83
3, 191200, Note_on_c, 0, 32, 0
3, 191200, Note_on_c, 0, 44, 0
3, 191440, Control_c, 0, 64, 0
3, 191520, Note_on_c, 0, 25, 81
3, 191520, Note_on_c, 0, 37, 81
3, 191600, Control_c, 0, 64, 127
3, 191680, Note_on_c, 0, 37, 0
3, 191680, Note_on_c, 0, 25, 0
3, 191760, Note_on_c, 0, 44, 70
3, 191920, Note_on_c, 0, 44, 0
3, 192000, Note_on_c, 0, 49, 80
3, 192160, Note_on_c, 0, 49, 0
3, 192240, Note_on_c, 0, 44, 69
3, 192400, Note_on_c, 0, 44, 0
3, 192480, Note_on_c, 0, 44, 82
3, 192480, Note_on_c, 0, 32, 82
3, 192640, Note_on_c, 0, 32, 0
3, 192640, Note_on_c, 0, 44, 0
3, 192880, Control_c, 0, 64, 0
3, 192960, Note_on_c, 0, 37, 81
3, 192960, Note_on_c, 0, 25, 81
3, 193040, Control_c, 0, 64, 127
3, 193120, Note_on_c, 0, 25, 0
3, 193120, Note_on_c, 0, 37, 0
3, 193200, Note_on_c, 0, 44, 70
3, 193360, Note_on_c, 0, 44, 0
3, 193440, Note_on_c, 0, 49, 80
3, 193600, Note_on_c, 0, 49, 0
3, 193680, Note_on_c, 0, 44, 69
3, 193840, Note_on_c, 0, 44, 0
3, 193920, Note_on_c, 0, 32, 82
3, 193920, Note_on_c, 0, 44, 82
3, 194080, Note_on_c, 0, 44, 0
3, 194080, Note_on_c, 0, 32, 0
3, 194400, Note_on_c, 0, 37, 81
3, 194400, Note_on_c, 0, 25, 81
3, 194560, Note_on_c, 0, 25, 0
3, 194560, Note_on_c, 0, 37, 0
3, 194640, Note_on_c, 0, 44, 70
3, 194800, Note_on_c, 0, 44, 0
3, 194880, Note_on_c, 0, 49, 80
3, 195040, Note_on_c, 0, 49, 0
3, 195120, Note_on_c, 0, 44, 69
3, 195280, Note_on_c, 0, 44, 0
3, 195360, Note_on_c, 0, 32, 82
3, 195360, Note_on_c, 0, 44, 82
3, 195520, Note_on_c, 0, 44, 0
3, 195520, Note_on_c, 0, 32, 0
3, 195840, Note_on_c, 0, 37, 92
3, 195840, Note_on_c, 0, 25, 92
3, 196320, Note_on_c, 0, 25, 0
3, 196320, Note_on_c, 0, 37, 0
3, 196320, Note_on_c, 0, 56, 87
3, 196320, Note_on_c, 0, 65, 87
3, 196320, Note_on_c, 0, 53, 87
3, 196320, Note_on_c, 0, 61, 87
3, 196800, Note_on_c, 0, 61, 0
3, 196800, Note_on_c, 0, 56, 0
3, 196800, Note_on_c, 0, 65, 0
3, 196800, Note_on_c, 0, 53, 0
3, 196800, Note_on_c, 0, 25, 92
3, 196800, Note_on_c, 0, 37, 92
3, 197280, Note_on_c, 0, 37, 0
3, 197280, Note_on_c, 0, 25, 0
3, 197280, Note_on_c, 0, 56, 84
3, 197280, Note_on_c, 0, 61, 84
3, 197280, Note_on_c, 0, 65, 84
3, 197280, Note_on_c, 0, 53, 84
3, 197760, Note_on_c, 0, 53, 0
3, 197760, Note_on_c, 0, 56, 0
3, 197760, Note_on_c, 0, 61, 0
3, 197760, Note_on_c, 0, 65, 0
3, 197760, Note_on_c, 0, 25, 92
3, 197760, Note_on_c, 0, 37, 92
3, 198240, Note_on_c, 0, 37, 0
3, 198240, Note_on_c, 0, 25, 0
3, 198240, Note_on_c, 0, 56, 98
3, 198240, Note_on_c, 0, 61, 98
3, 198240, Note_on_c, 0, 65, 98
3, 198240, Note_on_c, 0, 53, 98
3, 198480, Note_on_c, 0, 53, 0
3, 198480, Note_on_c, 0, 56, 0
3, 198480, Note_on_c, 0, 61, 0
3, 198480, Note_on_c, 0, 65, 0
3, 198720, Note_on_c, 0, 37, 97
3, 198720, Note_on_c, 0, 25, 101
3, 199680, Note_on_c, 0, 25, 0
3, 199680, Note_on_c, 0, 37, 0
3, 199680, Control_c, 0, 64, 0
3, 199680, End_track
0, 0, End_of_file
