0, 0, Header, 1, 2, 192
1, 0, Start_track
1, 0, Title_t, "Promenade, "
1, 0, Title_t, "Op-98, No-01"
1, 0, Copyright_t, "May NOT be used for commercial purposes."
1, 0, Text_t, "cb pb Cecile Chaminade"
1, 0, Text_t, "Angelus 88939\012"
1, 0, Text_t, "Scanned by Larry Doe\012"
1, 0, Text_t, "Roll expression/accent tracks, where present, converted to MIDI velocties.\012"
1, 0, Text_t, "cb Chaminade\012"
1, 0, Text_t, "/music_category: Piano_Roll\012"
1, 0, Text_t, "/title: Promenade, Op. 98, No. 1.\012"
1, 0, Text_t, "/subtitle: \012"
1, 0, Text_t, "/roll_type: 88n\012"
1, 0, Text_t, "/roll_manufacturer: Angelus\012"
1, 0, Text_t, "/roll_number: 88939\012"
1, 0, Text_t, "/original roll #: \012"
1, 0, Text_t, "/original manufacturer: \012"
1, 0, Text_t, "/performer: \012"
1, 0, Text_t, "/composer:  Chaminade, Cecile\012"
1, 0, Text_t, "/lyricist: \012"
1, 0, Text_t, "/copyright: 1901\012"
1, 0, Text_t, "/scanned_by:  Larry Doe\012"
1, 0, Text_t, "/scan_system:  Mk3a Scanner\012"
1, 0, Text_t, "/date_scanned: June 2005\012"
1, 0, Text_t, "/owner: Larry Doe\012"
1, 0, Time_signature, 4, 2, 24, 8
1, 0, Key_signature, 0, "major"
1, 0, Tempo, 500000
1, 0, End_track
2, 0, Start_track
2, 0, Title_t, "Promenade, Op. 98, No. 1."
2, 0, Program_c, 0, 0
2, 0, Control_c, 0, 7, 110
2, 7, Note_on_c, 0, 42, 52
2, 7, Note_on_c, 0, 66, 52
2, 10, Control_c, 0, 64, 127
2, 98, Note_on_c, 0, 49, 52
2, 98, Note_on_c, 0, 58, 52
2, 98, Note_on_c, 0, 61, 52
2, 167, Note_on_c, 0, 61, 0
2, 184, Note_on_c, 0, 70, 58
2, 210, Note_on_c, 0, 66, 0
2, 225, Note_on_c, 0, 58, 0
2, 225, Note_on_c, 0, 49, 0
2, 271, Note_on_c, 0, 58, 52
2, 271, Note_on_c, 0, 61, 52
2, 271, Note_on_c, 0, 66, 52
2, 272, Note_on_c, 0, 49, 52
2, 340, Note_on_c, 0, 66, 0
2, 340, Note_on_c, 0, 61, 0
2, 357, Note_on_c, 0, 73, 58
2, 382, Note_on_c, 0, 70, 0
2, 398, Note_on_c, 0, 58, 0
2, 399, Note_on_c, 0, 49, 0
2, 444, Note_on_c, 0, 66, 52
2, 444, Note_on_c, 0, 70, 52
2, 445, Note_on_c, 0, 58, 52
2, 446, Note_on_c, 0, 49, 52
2, 511, Note_on_c, 0, 70, 0
2, 512, Note_on_c, 0, 66, 0
2, 529, Note_on_c, 0, 75, 58
2, 530, Control_c, 0, 64, 0
2, 553, Note_on_c, 0, 73, 0
2, 570, Note_on_c, 0, 49, 0
2, 570, Note_on_c, 0, 58, 0
2, 615, Note_on_c, 0, 66, 52
2, 615, Note_on_c, 0, 70, 52
2, 616, Note_on_c, 0, 58, 52
2, 617, Note_on_c, 0, 49, 52
2, 657, Note_on_c, 0, 42, 0
2, 681, Note_on_c, 0, 70, 0
2, 681, Note_on_c, 0, 66, 0
2, 682, Note_on_c, 0, 49, 0
2, 682, Note_on_c, 0, 58, 0
2, 697, Note_on_c, 0, 77, 58
2, 701, Note_on_c, 0, 42, 52
2, 723, Note_on_c, 0, 75, 0
2, 783, Note_on_c, 0, 78, 58
2, 784, Note_on_c, 0, 58, 52
2, 784, Note_on_c, 0, 61, 52
2, 785, Note_on_c, 0, 49, 52
2, 794, Note_on_c, 0, 77, 0
2, 867, Note_on_c, 0, 77, 58
2, 891, Note_on_c, 0, 78, 0
2, 907, Note_on_c, 0, 61, 0
2, 907, Note_on_c, 0, 58, 0
2, 908, Note_on_c, 0, 49, 0
2, 951, Note_on_c, 0, 75, 58
2, 952, Note_on_c, 0, 58, 52
2, 953, Note_on_c, 0, 49, 52
2, 976, Note_on_c, 0, 77, 0
2, 1035, Note_on_c, 0, 73, 58
2, 1061, Note_on_c, 0, 75, 0
2, 1077, Note_on_c, 0, 49, 0
2, 1077, Note_on_c, 0, 58, 0
2, 1123, Note_on_c, 0, 70, 58
2, 1124, Note_on_c, 0, 54, 52
2, 1124, Note_on_c, 0, 58, 52
2, 1125, Note_on_c, 0, 49, 52
2, 1148, Note_on_c, 0, 73, 0
2, 1208, Note_on_c, 0, 68, 58
2, 1234, Note_on_c, 0, 70, 0
2, 1249, Note_on_c, 0, 58, 0
2, 1249, Note_on_c, 0, 54, 0
2, 1250, Note_on_c, 0, 49, 0
2, 1295, Note_on_c, 0, 70, 58
2, 1296, Note_on_c, 0, 49, 52
2, 1296, Note_on_c, 0, 58, 52
2, 1320, Note_on_c, 0, 68, 0
2, 1364, Note_on_c, 0, 58, 0
2, 1365, Note_on_c, 0, 42, 0
2, 1365, Note_on_c, 0, 49, 0
2, 1381, Note_on_c, 0, 66, 58
2, 1384, Note_on_c, 0, 39, 52
2, 1391, Note_on_c, 0, 70, 0
2, 1413, Control_c, 0, 64, 127
2, 1466, Note_on_c, 0, 51, 52
2, 1466, Note_on_c, 0, 58, 52
2, 1466, Note_on_c, 0, 61, 52
2, 1533, Note_on_c, 0, 61, 0
2, 1549, Note_on_c, 0, 70, 58
2, 1575, Note_on_c, 0, 66, 0
2, 1588, Note_on_c, 0, 58, 0
2, 1589, Note_on_c, 0, 51, 0
2, 1634, Note_on_c, 0, 51, 52
2, 1634, Note_on_c, 0, 58, 52
2, 1634, Note_on_c, 0, 61, 52
2, 1634, Note_on_c, 0, 66, 52
2, 1701, Note_on_c, 0, 66, 0
2, 1701, Note_on_c, 0, 61, 0
2, 1718, Note_on_c, 0, 73, 58
2, 1744, Note_on_c, 0, 70, 0
2, 1759, Note_on_c, 0, 58, 0
2, 1759, Note_on_c, 0, 51, 0
2, 1804, Note_on_c, 0, 70, 52
2, 1805, Note_on_c, 0, 51, 52
2, 1805, Note_on_c, 0, 58, 52
2, 1805, Note_on_c, 0, 66, 52
2, 1871, Note_on_c, 0, 66, 0
2, 1871, Note_on_c, 0, 70, 0
2, 1877, Control_c, 0, 64, 0
2, 1890, Note_on_c, 0, 75, 58
2, 1916, Note_on_c, 0, 73, 0
2, 1931, Note_on_c, 0, 58, 0
2, 1932, Note_on_c, 0, 51, 0
2, 1977, Note_on_c, 0, 70, 52
2, 1977, Note_on_c, 0, 73, 52
2, 1978, Note_on_c, 0, 51, 52
2, 1978, Note_on_c, 0, 58, 52
2, 2043, Note_on_c, 0, 73, 0
2, 2043, Note_on_c, 0, 70, 0
2, 2044, Note_on_c, 0, 51, 0
2, 2044, Note_on_c, 0, 58, 0
2, 2045, Note_on_c, 0, 39, 0
2, 2060, Note_on_c, 0, 77, 58
2, 2061, Note_on_c, 0, 44, 52
2, 2085, Note_on_c, 0, 75, 0
2, 2145, Note_on_c, 0, 80, 58
2, 2146, Note_on_c, 0, 56, 52
2, 2146, Note_on_c, 0, 60, 52
2, 2147, Note_on_c, 0, 54, 52
2, 2170, Note_on_c, 0, 77, 0
2, 2230, Note_on_c, 0, 77, 58
2, 2254, Note_on_c, 0, 80, 0
2, 2269, Note_on_c, 0, 60, 0
2, 2269, Note_on_c, 0, 56, 0
2, 2269, Note_on_c, 0, 54, 0
2, 2313, Note_on_c, 0, 75, 58
2, 2314, Note_on_c, 0, 54, 52
2, 2314, Note_on_c, 0, 56, 52
2, 2314, Note_on_c, 0, 60, 52
2, 2337, Note_on_c, 0, 77, 0
2, 2381, Note_on_c, 0, 56, 0
2, 2381, Note_on_c, 0, 54, 0
2, 2381, Note_on_c, 0, 60, 0
2, 2397, Note_on_c, 0, 73, 58
2, 2400, Note_on_c, 0, 49, 52
2, 2411, Note_on_c, 0, 44, 0
2, 2423, Note_on_c, 0, 75, 0
2, 2483, Note_on_c, 0, 56, 52
2, 2483, Note_on_c, 0, 61, 52
2, 2483, Note_on_c, 0, 65, 52
2, 2483, Note_on_c, 0, 68, 52
2, 2549, Note_on_c, 0, 68, 0
2, 2550, Note_on_c, 0, 61, 0
2, 2550, Note_on_c, 0, 56, 0
2, 2550, Note_on_c, 0, 65, 0
2, 2566, Note_on_c, 0, 71, 58
2, 2567, Note_on_c, 0, 51, 52
2, 2577, Note_on_c, 0, 73, 0
2, 2578, Note_on_c, 0, 49, 0
2, 2651, Note_on_c, 0, 70, 58
2, 2652, Note_on_c, 0, 55, 52
2, 2652, Note_on_c, 0, 61, 52
2, 2662, Note_on_c, 0, 71, 0
2, 2719, Note_on_c, 0, 55, 0
2, 2719, Note_on_c, 0, 51, 0
2, 2719, Note_on_c, 0, 61, 0
2, 2736, Note_on_c, 0, 68, 58
2, 2737, Note_on_c, 0, 44, 52
2, 2745, Note_on_c, 0, 70, 0
2, 2768, Control_c, 0, 64, 127
2, 2821, Note_on_c, 0, 59, 52
2, 2821, Note_on_c, 0, 63, 52
2, 2822, Note_on_c, 0, 51, 52
2, 2822, Note_on_c, 0, 56, 52
2, 2888, Note_on_c, 0, 63, 0
2, 2888, Note_on_c, 0, 59, 0
2, 2905, Note_on_c, 0, 75, 58
2, 2931, Note_on_c, 0, 68, 0
2, 2946, Note_on_c, 0, 56, 0
2, 2947, Note_on_c, 0, 51, 0
2, 2991, Note_on_c, 0, 68, 52
2, 2992, Note_on_c, 0, 51, 52
2, 2992, Note_on_c, 0, 59, 52
2, 2992, Note_on_c, 0, 63, 52
2, 3057, Note_on_c, 0, 68, 0
2, 3058, Note_on_c, 0, 59, 0
2, 3058, Note_on_c, 0, 51, 0
2, 3058, Note_on_c, 0, 63, 0
2, 3074, Note_on_c, 0, 80, 58
2, 3077, Note_on_c, 0, 47, 52
2, 3090, Note_on_c, 0, 44, 0
2, 3099, Note_on_c, 0, 75, 0
2, 3162, Note_on_c, 0, 56, 52
2, 3162, Note_on_c, 0, 63, 52
2, 3162, Note_on_c, 0, 68, 52
2, 3229, Note_on_c, 0, 68, 0
2, 3245, Note_on_c, 0, 75, 58
2, 3269, Note_on_c, 0, 80, 0
2, 3284, Note_on_c, 0, 63, 0
2, 3284, Note_on_c, 0, 56, 0
2, 3328, Note_on_c, 0, 68, 52
2, 3329, Note_on_c, 0, 56, 52
2, 3329, Note_on_c, 0, 63, 52
2, 3396, Note_on_c, 0, 63, 0
2, 3396, Note_on_c, 0, 68, 0
2, 3396, Note_on_c, 0, 56, 0
2, 3400, Control_c, 0, 64, 0
2, 3410, Note_on_c, 0, 78, 58
2, 3414, Note_on_c, 0, 46, 52
2, 3422, Note_on_c, 0, 75, 0
2, 3423, Note_on_c, 0, 47, 0
2, 3495, Note_on_c, 0, 77, 58
2, 3496, Note_on_c, 0, 62, 52
2, 3497, Note_on_c, 0, 56, 52
2, 3497, Note_on_c, 0, 58, 52
2, 3506, Note_on_c, 0, 78, 0
2, 3580, Note_on_c, 0, 75, 58
2, 3593, Note_on_c, 0, 77, 0
2, 3621, Note_on_c, 0, 56, 0
2, 3621, Note_on_c, 0, 62, 0
2, 3621, Note_on_c, 0, 58, 0
2, 3668, Note_on_c, 0, 74, 58
2, 3669, Note_on_c, 0, 56, 52
2, 3669, Note_on_c, 0, 58, 52
2, 3669, Note_on_c, 0, 62, 52
2, 3678, Note_on_c, 0, 75, 0
2, 3737, Note_on_c, 0, 58, 0
2, 3737, Note_on_c, 0, 56, 0
2, 3737, Note_on_c, 0, 62, 0
2, 3754, Note_on_c, 0, 75, 58
2, 3755, Note_on_c, 0, 51, 52
2, 3765, Note_on_c, 0, 46, 0
2, 3765, Note_on_c, 0, 74, 0
2, 3788, Control_c, 0, 64, 127
2, 3838, Note_on_c, 0, 58, 52
2, 3838, Note_on_c, 0, 63, 52
2, 3838, Note_on_c, 0, 66, 52
2, 3905, Note_on_c, 0, 66, 0
2, 3919, Note_on_c, 0, 70, 58
2, 3945, Note_on_c, 0, 75, 0
2, 3961, Note_on_c, 0, 63, 0
2, 3961, Note_on_c, 0, 58, 0
2, 4005, Note_on_c, 0, 58, 52
2, 4005, Note_on_c, 0, 63, 52
2, 4005, Note_on_c, 0, 66, 52
2, 4035, Control_c, 0, 64, 0
2, 4072, Note_on_c, 0, 63, 0
2, 4073, Note_on_c, 0, 58, 0
2, 4073, Note_on_c, 0, 66, 0
2, 4089, Note_on_c, 0, 73, 58
2, 4092, Note_on_c, 0, 46, 52
2, 4102, Note_on_c, 0, 51, 0
2, 4115, Note_on_c, 0, 70, 0
2, 4125, Control_c, 0, 64, 127
2, 4175, Note_on_c, 0, 58, 52
2, 4175, Note_on_c, 0, 61, 52
2, 4175, Note_on_c, 0, 65, 52
2, 4176, Note_on_c, 0, 53, 52
2, 4244, Note_on_c, 0, 65, 0
2, 4258, Note_on_c, 0, 70, 58
2, 4284, Note_on_c, 0, 73, 0
2, 4300, Note_on_c, 0, 58, 0
2, 4300, Note_on_c, 0, 61, 0
2, 4300, Note_on_c, 0, 53, 0
2, 4346, Note_on_c, 0, 53, 52
2, 4346, Note_on_c, 0, 61, 52
2, 4346, Note_on_c, 0, 65, 52
2, 4347, Note_on_c, 0, 58, 52
2, 4406, Control_c, 0, 64, 0
2, 4415, Note_on_c, 0, 58, 0
2, 4415, Note_on_c, 0, 61, 0
2, 4415, Note_on_c, 0, 53, 0
2, 4415, Note_on_c, 0, 65, 0
2, 4433, Note_on_c, 0, 73, 58
2, 4434, Note_on_c, 0, 51, 52
2, 4444, Note_on_c, 0, 46, 0
2, 4457, Note_on_c, 0, 70, 0
2, 4509, Control_c, 0, 64, 127
2, 4519, Note_on_c, 0, 61, 52
2, 4519, Note_on_c, 0, 66, 52
2, 4520, Note_on_c, 0, 58, 52
2, 4587, Note_on_c, 0, 66, 0
2, 4604, Note_on_c, 0, 70, 58
2, 4629, Note_on_c, 0, 73, 0
2, 4644, Note_on_c, 0, 58, 0
2, 4644, Note_on_c, 0, 61, 0
2, 4688, Note_on_c, 0, 61, 52
2, 4688, Note_on_c, 0, 66, 52
2, 4689, Note_on_c, 0, 58, 52
2, 4745, Control_c, 0, 64, 0
2, 4754, Note_on_c, 0, 58, 0
2, 4754, Note_on_c, 0, 66, 0
2, 4755, Note_on_c, 0, 61, 0
2, 4772, Note_on_c, 0, 73, 58
2, 4774, Note_on_c, 0, 41, 52
2, 4785, Note_on_c, 0, 51, 0
2, 4797, Note_on_c, 0, 70, 0
2, 4858, Note_on_c, 0, 72, 58
2, 4859, Note_on_c, 0, 53, 52
2, 4859, Note_on_c, 0, 57, 52
2, 4859, Note_on_c, 0, 63, 52
2, 4869, Note_on_c, 0, 73, 0
2, 4925, Note_on_c, 0, 63, 0
2, 4941, Note_on_c, 0, 70, 58
2, 4954, Note_on_c, 0, 72, 0
2, 4983, Note_on_c, 0, 53, 0
2, 4984, Note_on_c, 0, 57, 0
2, 5030, Note_on_c, 0, 69, 58
2, 5031, Note_on_c, 0, 53, 52
2, 5031, Note_on_c, 0, 60, 52
2, 5031, Note_on_c, 0, 63, 52
2, 5040, Note_on_c, 0, 70, 0
2, 5097, Note_on_c, 0, 53, 0
2, 5097, Note_on_c, 0, 63, 0
2, 5098, Note_on_c, 0, 60, 0
2, 5114, Note_on_c, 0, 70, 58
2, 5115, Note_on_c, 0, 46, 52
2, 5125, Note_on_c, 0, 69, 0
2, 5128, Note_on_c, 0, 41, 0
2, 5147, Control_c, 0, 64, 127
2, 5200, Note_on_c, 0, 65, 52
2, 5201, Note_on_c, 0, 53, 52
2, 5201, Note_on_c, 0, 58, 52
2, 5201, Note_on_c, 0, 61, 52
2, 5324, Note_on_c, 0, 61, 0
2, 5324, Note_on_c, 0, 53, 0
2, 5324, Note_on_c, 0, 65, 0
2, 5324, Note_on_c, 0, 58, 0
2, 5373, Note_on_c, 0, 53, 52
2, 5373, Note_on_c, 0, 58, 52
2, 5373, Note_on_c, 0, 61, 52
2, 5373, Note_on_c, 0, 65, 52
2, 5387, Control_c, 0, 64, 0
2, 5397, Note_on_c, 0, 46, 0
2, 5397, Note_on_c, 0, 70, 0
2, 5441, Note_on_c, 0, 61, 0
2, 5441, Note_on_c, 0, 58, 0
2, 5441, Note_on_c, 0, 65, 0
2, 5441, Note_on_c, 0, 53, 0
2, 5457, Note_on_c, 0, 73, 58
2, 5460, Note_on_c, 0, 37, 52
2, 5490, Control_c, 0, 64, 127
2, 5540, Note_on_c, 0, 68, 52
2, 5541, Note_on_c, 0, 44, 52
2, 5541, Note_on_c, 0, 53, 52
2, 5608, Note_on_c, 0, 68, 0
2, 5622, Note_on_c, 0, 80, 58
2, 5648, Note_on_c, 0, 73, 0
2, 5662, Note_on_c, 0, 53, 0
2, 5662, Note_on_c, 0, 44, 0
2, 5707, Note_on_c, 0, 68, 52
2, 5708, Note_on_c, 0, 53, 52
2, 5709, Note_on_c, 0, 44, 52
2, 5748, Note_on_c, 0, 37, 0
2, 5774, Note_on_c, 0, 68, 0
2, 5775, Note_on_c, 0, 53, 0
2, 5776, Note_on_c, 0, 44, 0
2, 5790, Note_on_c, 0, 73, 58
2, 5793, Note_on_c, 0, 37, 52
2, 5814, Note_on_c, 0, 80, 0
2, 5877, Note_on_c, 0, 53, 52
2, 5877, Note_on_c, 0, 68, 52
2, 5877, Note_on_c, 0, 44, 52
2, 5944, Note_on_c, 0, 68, 0
2, 5961, Note_on_c, 0, 80, 58
2, 5987, Note_on_c, 0, 73, 0
2, 6001, Note_on_c, 0, 53, 0
2, 6002, Note_on_c, 0, 44, 0
2, 6048, Note_on_c, 0, 53, 52
2, 6048, Note_on_c, 0, 68, 52
2, 6049, Note_on_c, 0, 44, 52
2, 6075, Note_on_c, 0, 37, 0
2, 6090, Control_c, 0, 64, 0
2, 6116, Note_on_c, 0, 68, 0
2, 6116, Note_on_c, 0, 53, 0
2, 6117, Note_on_c, 0, 44, 0
2, 6131, Note_on_c, 0, 73, 58
2, 6134, Note_on_c, 0, 37, 52
2, 6157, Note_on_c, 0, 80, 0
2, 6217, Note_on_c, 0, 75, 58
2, 6218, Note_on_c, 0, 53, 52
2, 6218, Note_on_c, 0, 56, 52
2, 6219, Note_on_c, 0, 44, 52
2, 6229, Note_on_c, 0, 73, 0
2, 6303, Note_on_c, 0, 73, 58
2, 6312, Note_on_c, 0, 75, 0
2, 6342, Note_on_c, 0, 56, 0
2, 6343, Note_on_c, 0, 53, 0
2, 6343, Note_on_c, 0, 44, 0
2, 6387, Note_on_c, 0, 53, 52
2, 6387, Note_on_c, 0, 56, 52
2, 6387, Note_on_c, 0, 72, 58
2, 6388, Note_on_c, 0, 44, 52
2, 6398, Note_on_c, 0, 73, 0
2, 6428, Note_on_c, 0, 37, 0
2, 6454, Note_on_c, 0, 53, 0
2, 6454, Note_on_c, 0, 56, 0
2, 6454, Note_on_c, 0, 44, 0
2, 6471, Note_on_c, 0, 70, 58
2, 6474, Note_on_c, 0, 37, 52
2, 6481, Note_on_c, 0, 72, 0
2, 6557, Note_on_c, 0, 68, 58
2, 6558, Note_on_c, 0, 44, 52
2, 6558, Note_on_c, 0, 51, 52
2, 6558, Note_on_c, 0, 54, 52
2, 6558, Note_on_c, 0, 60, 52
2, 6568, Note_on_c, 0, 70, 0
2, 6624, Note_on_c, 0, 54, 0
2, 6624, Note_on_c, 0, 60, 0
2, 6641, Note_on_c, 0, 70, 58
2, 6651, Note_on_c, 0, 68, 0
2, 6681, Note_on_c, 0, 51, 0
2, 6682, Note_on_c, 0, 44, 0
2, 6725, Note_on_c, 0, 72, 58
2, 6726, Note_on_c, 0, 51, 52
2, 6726, Note_on_c, 0, 54, 52
2, 6726, Note_on_c, 0, 60, 52
2, 6727, Note_on_c, 0, 44, 52
2, 6735, Note_on_c, 0, 70, 0
2, 6765, Note_on_c, 0, 37, 0
2, 6792, Note_on_c, 0, 60, 0
2, 6792, Note_on_c, 0, 54, 0
2, 6792, Note_on_c, 0, 51, 0
2, 6792, Note_on_c, 0, 44, 0
2, 6809, Note_on_c, 0, 73, 58
2, 6812, Note_on_c, 0, 37, 52
2, 6821, Note_on_c, 0, 72, 0
2, 6842, Control_c, 0, 64, 127
2, 6895, Note_on_c, 0, 61, 52
2, 6895, Note_on_c, 0, 68, 52
2, 6896, Note_on_c, 0, 44, 52
2, 6896, Note_on_c, 0, 53, 52
2, 7020, Note_on_c, 0, 53, 0
2, 7020, Note_on_c, 0, 61, 0
2, 7020, Note_on_c, 0, 68, 0
2, 7021, Note_on_c, 0, 44, 0
2, 7065, Note_on_c, 0, 53, 52
2, 7065, Note_on_c, 0, 61, 52
2, 7065, Note_on_c, 0, 68, 52
2, 7066, Note_on_c, 0, 44, 52
2, 7108, Control_c, 0, 64, 0
2, 7132, Note_on_c, 0, 68, 0
2, 7132, Note_on_c, 0, 61, 0
2, 7132, Note_on_c, 0, 53, 0
2, 7133, Note_on_c, 0, 44, 0
2, 7149, Note_on_c, 0, 80, 58
2, 7152, Note_on_c, 0, 38, 52
2, 7162, Note_on_c, 0, 37, 0
2, 7175, Note_on_c, 0, 73, 0
2, 7196, Control_c, 0, 64, 127
2, 7233, Note_on_c, 0, 72, 52
2, 7234, Note_on_c, 0, 44, 52
2, 7234, Note_on_c, 0, 56, 52
2, 7234, Note_on_c, 0, 66, 52
2, 7357, Note_on_c, 0, 72, 0
2, 7358, Note_on_c, 0, 56, 0
2, 7358, Note_on_c, 0, 44, 0
2, 7358, Note_on_c, 0, 66, 0
2, 7402, Note_on_c, 0, 56, 52
2, 7402, Note_on_c, 0, 66, 52
2, 7402, Note_on_c, 0, 72, 52
2, 7403, Note_on_c, 0, 44, 52
2, 7459, Control_c, 0, 64, 0
2, 7469, Note_on_c, 0, 72, 0
2, 7469, Note_on_c, 0, 66, 0
2, 7469, Note_on_c, 0, 56, 0
2, 7470, Note_on_c, 0, 44, 0
2, 7486, Note_on_c, 0, 73, 58
2, 7487, Note_on_c, 0, 37, 52
2, 7495, Note_on_c, 0, 80, 0
2, 7499, Note_on_c, 0, 38, 0
2, 7518, Control_c, 0, 64, 127
2, 7572, Note_on_c, 0, 44, 52
2, 7572, Note_on_c, 0, 53, 52
2, 7572, Note_on_c, 0, 61, 52
2, 7572, Note_on_c, 0, 68, 52
2, 7696, Note_on_c, 0, 68, 0
2, 7696, Note_on_c, 0, 53, 0
2, 7696, Note_on_c, 0, 61, 0
2, 7697, Note_on_c, 0, 44, 0
2, 7741, Note_on_c, 0, 53, 52
2, 7741, Note_on_c, 0, 61, 52
2, 7741, Note_on_c, 0, 68, 52
2, 7742, Note_on_c, 0, 44, 52
2, 7754, Control_c, 0, 64, 0
2, 7807, Note_on_c, 0, 68, 0
2, 7807, Note_on_c, 0, 61, 0
2, 7808, Note_on_c, 0, 53, 0
2, 7808, Note_on_c, 0, 44, 0
2, 7828, Note_on_c, 0, 47, 52
2, 7839, Note_on_c, 0, 37, 0
2, 7859, Control_c, 0, 64, 127
2, 7910, Note_on_c, 0, 53, 52
2, 7910, Note_on_c, 0, 61, 52
2, 7910, Note_on_c, 0, 68, 52
2, 7911, Note_on_c, 0, 49, 52
2, 8004, Note_on_c, 0, 73, 0
2, 8031, Note_on_c, 0, 68, 0
2, 8032, Note_on_c, 0, 61, 0
2, 8032, Note_on_c, 0, 53, 0
2, 8033, Note_on_c, 0, 49, 0
2, 8077, Control_c, 0, 64, 0
2, 8077, Note_on_c, 0, 53, 52
2, 8077, Note_on_c, 0, 68, 52
2, 8078, Note_on_c, 0, 49, 52
2, 8078, Note_on_c, 0, 61, 52
2, 8142, Note_on_c, 0, 61, 0
2, 8142, Note_on_c, 0, 68, 0
2, 8142, Note_on_c, 0, 53, 0
2, 8143, Note_on_c, 0, 47, 0
2, 8143, Note_on_c, 0, 49, 0
2, 8159, Note_on_c, 0, 57, 52
2, 8189, Control_c, 0, 64, 127
2, 8243, Note_on_c, 0, 45, 52
2, 8243, Note_on_c, 0, 52, 52
2, 8314, Note_on_c, 0, 33, 52
2, 8325, Note_on_c, 0, 64, 58
2, 8350, Note_on_c, 0, 57, 0
2, 8351, Note_on_c, 0, 45, 0
2, 8351, Note_on_c, 0, 52, 0
2, 8409, Note_on_c, 0, 69, 52
2, 8410, Note_on_c, 0, 73, 52
2, 8477, Note_on_c, 0, 73, 0
2, 8477, Note_on_c, 0, 69, 0
2, 8478, Note_on_c, 0, 64, 0
2, 8479, Note_on_c, 0, 33, 0
2, 8493, Note_on_c, 0, 57, 52
2, 8578, Note_on_c, 0, 52, 52
2, 8579, Note_on_c, 0, 45, 52
2, 8652, Note_on_c, 0, 33, 52
2, 8664, Note_on_c, 0, 64, 58
2, 8690, Note_on_c, 0, 45, 0
2, 8690, Note_on_c, 0, 57, 0
2, 8690, Note_on_c, 0, 52, 0
2, 8747, Note_on_c, 0, 69, 52
2, 8747, Note_on_c, 0, 73, 52
2, 8791, Control_c, 0, 64, 0
2, 8814, Note_on_c, 0, 73, 0
2, 8814, Note_on_c, 0, 69, 0
2, 8815, Note_on_c, 0, 64, 0
2, 8818, Note_on_c, 0, 33, 0
2, 8831, Note_on_c, 0, 57, 52
2, 8915, Note_on_c, 0, 69, 52
2, 8915, Note_on_c, 0, 73, 52
2, 8916, Note_on_c, 0, 59, 52
2, 8926, Note_on_c, 0, 57, 0
2, 8983, Note_on_c, 0, 69, 0
2, 8983, Note_on_c, 0, 73, 0
2, 9002, Note_on_c, 0, 57, 52
2, 9013, Note_on_c, 0, 59, 0
2, 9086, Note_on_c, 0, 69, 52
2, 9086, Note_on_c, 0, 73, 52
2, 9087, Note_on_c, 0, 56, 52
2, 9097, Note_on_c, 0, 57, 0
2, 9153, Note_on_c, 0, 69, 0
2, 9153, Note_on_c, 0, 73, 0
2, 9172, Note_on_c, 0, 54, 52
2, 9183, Note_on_c, 0, 56, 0
2, 9256, Note_on_c, 0, 74, 52
2, 9257, Note_on_c, 0, 53, 52
2, 9257, Note_on_c, 0, 69, 52
2, 9267, Note_on_c, 0, 54, 0
2, 9323, Note_on_c, 0, 74, 0
2, 9324, Note_on_c, 0, 69, 0
2, 9343, Note_on_c, 0, 54, 52
2, 9354, Note_on_c, 0, 53, 0
2, 9428, Note_on_c, 0, 74, 52
2, 9429, Note_on_c, 0, 56, 52
2, 9429, Note_on_c, 0, 65, 52
2, 9429, Note_on_c, 0, 71, 52
2, 9439, Note_on_c, 0, 54, 0
2, 9495, Note_on_c, 0, 74, 0
2, 9496, Note_on_c, 0, 65, 0
2, 9496, Note_on_c, 0, 71, 0
2, 9512, Note_on_c, 0, 57, 52
2, 9523, Note_on_c, 0, 56, 0
2, 9543, Control_c, 0, 64, 127
2, 9596, Note_on_c, 0, 64, 52
2, 9596, Note_on_c, 0, 69, 52
2, 9596, Note_on_c, 0, 73, 52
2, 9597, Note_on_c, 0, 45, 52
2, 9597, Note_on_c, 0, 52, 52
2, 9684, Note_on_c, 0, 33, 52
2, 9705, Note_on_c, 0, 73, 0
2, 9705, Note_on_c, 0, 69, 0
2, 9706, Note_on_c, 0, 64, 0
2, 9706, Note_on_c, 0, 45, 0
2, 9706, Note_on_c, 0, 52, 0
2, 9764, Note_on_c, 0, 73, 52
2, 9765, Note_on_c, 0, 64, 52
2, 9765, Note_on_c, 0, 69, 52
2, 9778, Control_c, 0, 64, 0
2, 9832, Note_on_c, 0, 69, 0
2, 9832, Note_on_c, 0, 73, 0
2, 9832, Note_on_c, 0, 64, 0
2, 9833, Note_on_c, 0, 57, 0
2, 9834, Note_on_c, 0, 33, 0
2, 9850, Note_on_c, 0, 61, 52
2, 9884, Control_c, 0, 64, 127
2, 9934, Note_on_c, 0, 65, 52
2, 9934, Note_on_c, 0, 69, 52
2, 9934, Note_on_c, 0, 73, 52
2, 9935, Note_on_c, 0, 50, 52
2, 9935, Note_on_c, 0, 57, 52
2, 10023, Note_on_c, 0, 38, 52
2, 10043, Note_on_c, 0, 73, 0
2, 10044, Note_on_c, 0, 50, 0
2, 10044, Note_on_c, 0, 65, 0
2, 10044, Note_on_c, 0, 69, 0
2, 10044, Note_on_c, 0, 57, 0
2, 10104, Note_on_c, 0, 65, 52
2, 10104, Note_on_c, 0, 69, 52
2, 10104, Note_on_c, 0, 73, 52
2, 10119, Control_c, 0, 64, 0
2, 10172, Note_on_c, 0, 73, 0
2, 10172, Note_on_c, 0, 65, 0
2, 10172, Note_on_c, 0, 69, 0
2, 10173, Note_on_c, 0, 61, 0
2, 10173, Note_on_c, 0, 38, 0
2, 10191, Note_on_c, 0, 57, 52
2, 10223, Control_c, 0, 64, 127
2, 10276, Note_on_c, 0, 64, 52
2, 10276, Note_on_c, 0, 69, 52
2, 10276, Note_on_c, 0, 73, 52
2, 10277, Note_on_c, 0, 52, 52
2, 10278, Note_on_c, 0, 45, 52
2, 10365, Note_on_c, 0, 33, 52
2, 10385, Note_on_c, 0, 73, 0
2, 10385, Note_on_c, 0, 69, 0
2, 10385, Note_on_c, 0, 64, 0
2, 10386, Note_on_c, 0, 45, 0
2, 10387, Note_on_c, 0, 52, 0
2, 10443, Note_on_c, 0, 64, 52
2, 10443, Note_on_c, 0, 69, 52
2, 10443, Note_on_c, 0, 73, 52
2, 10458, Control_c, 0, 64, 0
2, 10510, Note_on_c, 0, 73, 0
2, 10510, Note_on_c, 0, 69, 0
2, 10511, Note_on_c, 0, 64, 0
2, 10511, Note_on_c, 0, 57, 0
2, 10512, Note_on_c, 0, 33, 0
2, 10527, Note_on_c, 0, 61, 52
2, 10557, Control_c, 0, 64, 127
2, 10610, Note_on_c, 0, 65, 52
2, 10610, Note_on_c, 0, 69, 52
2, 10610, Note_on_c, 0, 73, 52
2, 10611, Note_on_c, 0, 49, 52
2, 10611, Note_on_c, 0, 57, 52
2, 10696, Note_on_c, 0, 37, 52
2, 10719, Note_on_c, 0, 57, 0
2, 10719, Note_on_c, 0, 69, 0
2, 10719, Note_on_c, 0, 65, 0
2, 10719, Note_on_c, 0, 73, 0
2, 10720, Note_on_c, 0, 49, 0
2, 10779, Note_on_c, 0, 69, 52
2, 10779, Note_on_c, 0, 73, 52
2, 10780, Note_on_c, 0, 65, 52
2, 10846, Note_on_c, 0, 73, 0
2, 10846, Note_on_c, 0, 69, 0
2, 10847, Note_on_c, 0, 65, 0
2, 10847, Note_on_c, 0, 61, 0
2, 10848, Note_on_c, 0, 37, 0
2, 10851, Control_c, 0, 64, 0
2, 10865, Note_on_c, 0, 75, 58
2, 10868, Note_on_c, 0, 42, 52
2, 10869, Note_on_c, 0, 30, 52
2, 10950, Note_on_c, 0, 58, 52
2, 10950, Note_on_c, 0, 61, 52
2, 10950, Note_on_c, 0, 66, 52
2, 10951, Note_on_c, 0, 49, 52
2, 11017, Note_on_c, 0, 66, 0
2, 11017, Note_on_c, 0, 61, 0
2, 11037, Note_on_c, 0, 73, 58
2, 11061, Note_on_c, 0, 75, 0
2, 11075, Note_on_c, 0, 58, 0
2, 11076, Note_on_c, 0, 49, 0
2, 11084, Control_c, 0, 64, 127
2, 11120, Note_on_c, 0, 61, 52
2, 11120, Note_on_c, 0, 66, 52
2, 11121, Note_on_c, 0, 58, 52
2, 11122, Note_on_c, 0, 49, 52
2, 11186, Note_on_c, 0, 58, 0
2, 11186, Note_on_c, 0, 61, 0
2, 11186, Note_on_c, 0, 66, 0
2, 11187, Note_on_c, 0, 49, 0
2, 11202, Note_on_c, 0, 70, 58
2, 11226, Note_on_c, 0, 73, 0
2, 11286, Note_on_c, 0, 58, 52
2, 11286, Note_on_c, 0, 61, 52
2, 11287, Note_on_c, 0, 49, 52
2, 11353, Note_on_c, 0, 61, 0
2, 11373, Note_on_c, 0, 66, 58
2, 11396, Note_on_c, 0, 70, 0
2, 11410, Note_on_c, 0, 58, 0
2, 11411, Note_on_c, 0, 49, 0
2, 11455, Note_on_c, 0, 58, 52
2, 11455, Note_on_c, 0, 61, 52
2, 11456, Note_on_c, 0, 49, 52
2, 11520, Note_on_c, 0, 61, 0
2, 11521, Note_on_c, 0, 58, 0
2, 11521, Note_on_c, 0, 49, 0
2, 11522, Note_on_c, 0, 42, 0
2, 11523, Note_on_c, 0, 30, 0
2, 11524, Control_c, 0, 64, 0
2, 11537, Note_on_c, 0, 65, 58
2, 11538, Note_on_c, 0, 44, 52
2, 11561, Note_on_c, 0, 66, 0
2, 11590, Note_on_c, 0, 65, 0
2, 11623, Note_on_c, 0, 53, 52
2, 11623, Note_on_c, 0, 59, 52
2, 11623, Note_on_c, 0, 62, 52
2, 11623, Note_on_c, 0, 66, 58
2, 11708, Note_on_c, 0, 67, 58
2, 11718, Note_on_c, 0, 66, 0
2, 11746, Note_on_c, 0, 62, 0
2, 11746, Note_on_c, 0, 59, 0
2, 11746, Note_on_c, 0, 53, 0
2, 11759, Note_on_c, 0, 67, 0
2, 11792, Note_on_c, 0, 53, 52
2, 11792, Note_on_c, 0, 59, 52
2, 11792, Note_on_c, 0, 62, 52
2, 11792, Note_on_c, 0, 68, 58
2, 11879, Note_on_c, 0, 69, 58
2, 11889, Note_on_c, 0, 68, 0
2, 11919, Note_on_c, 0, 62, 0
2, 11919, Note_on_c, 0, 59, 0
2, 11919, Note_on_c, 0, 53, 0
2, 11933, Note_on_c, 0, 69, 0
2, 11963, Note_on_c, 0, 53, 52
2, 11963, Note_on_c, 0, 59, 52
2, 11963, Note_on_c, 0, 62, 52
2, 11963, Note_on_c, 0, 70, 58
2, 12047, Note_on_c, 0, 71, 58
2, 12057, Note_on_c, 0, 70, 0
2, 12087, Note_on_c, 0, 62, 0
2, 12087, Note_on_c, 0, 59, 0
2, 12087, Note_on_c, 0, 53, 0
2, 12100, Note_on_c, 0, 71, 0
2, 12133, Note_on_c, 0, 53, 52
2, 12133, Note_on_c, 0, 59, 52
2, 12133, Note_on_c, 0, 62, 52
2, 12133, Note_on_c, 0, 72, 58
2, 12200, Note_on_c, 0, 59, 0
2, 12200, Note_on_c, 0, 53, 0
2, 12201, Note_on_c, 0, 44, 0
2, 12215, Note_on_c, 0, 75, 58
2, 12216, Note_on_c, 0, 46, 52
2, 12227, Note_on_c, 0, 62, 0
2, 12240, Note_on_c, 0, 72, 0
2, 12300, Note_on_c, 0, 61, 52
2, 12300, Note_on_c, 0, 66, 52
2, 12300, Note_on_c, 0, 70, 52
2, 12301, Note_on_c, 0, 49, 52
2, 12301, Note_on_c, 0, 54, 52
2, 12367, Note_on_c, 0, 70, 0
2, 12367, Note_on_c, 0, 66, 0
2, 12384, Note_on_c, 0, 73, 58
2, 12408, Note_on_c, 0, 75, 0
2, 12425, Note_on_c, 0, 61, 0
2, 12425, Note_on_c, 0, 54, 0
2, 12426, Note_on_c, 0, 49, 0
2, 12446, Control_c, 0, 64, 127
2, 12470, Note_on_c, 0, 70, 52
2, 12471, Note_on_c, 0, 54, 52
2, 12471, Note_on_c, 0, 61, 52
2, 12471, Note_on_c, 0, 66, 52
2, 12507, Note_on_c, 0, 70, 0
2, 12535, Note_on_c, 0, 66, 0
2, 12552, Note_on_c, 0, 70, 58
2, 12578, Note_on_c, 0, 73, 0
2, 12592, Note_on_c, 0, 61, 0
2, 12593, Note_on_c, 0, 54, 0
2, 12640, Note_on_c, 0, 58, 52
2, 12640, Note_on_c, 0, 61, 52
2, 12641, Note_on_c, 0, 54, 52
2, 12707, Note_on_c, 0, 61, 0
2, 12724, Note_on_c, 0, 66, 58
2, 12747, Note_on_c, 0, 70, 0
2, 12762, Note_on_c, 0, 54, 0
2, 12762, Note_on_c, 0, 58, 0
2, 12808, Note_on_c, 0, 61, 52
2, 12809, Note_on_c, 0, 54, 52
2, 12809, Note_on_c, 0, 58, 52
2, 12875, Note_on_c, 0, 61, 0
2, 12876, Note_on_c, 0, 54, 0
2, 12876, Note_on_c, 0, 58, 0
2, 12876, Note_on_c, 0, 46, 0
2, 12879, Control_c, 0, 64, 0
2, 12892, Note_on_c, 0, 77, 58
2, 12893, Note_on_c, 0, 48, 52
2, 12893, Note_on_c, 0, 65, 58
2, 12904, Note_on_c, 0, 66, 0
2, 12931, Note_on_c, 0, 77, 0
2, 12975, Note_on_c, 0, 77, 58
2, 12976, Note_on_c, 0, 53, 52
2, 12976, Note_on_c, 0, 57, 52
2, 12976, Note_on_c, 0, 63, 52
2, 12976, Note_on_c, 0, 66, 58
2, 12986, Note_on_c, 0, 65, 0
2, 13013, Note_on_c, 0, 77, 0
2, 13057, Note_on_c, 0, 77, 58
2, 13058, Note_on_c, 0, 67, 58
2, 13069, Note_on_c, 0, 66, 0
2, 13097, Note_on_c, 0, 77, 0
2, 13098, Note_on_c, 0, 57, 0
2, 13098, Note_on_c, 0, 53, 0
2, 13098, Note_on_c, 0, 63, 0
2, 13141, Note_on_c, 0, 77, 58
2, 13142, Note_on_c, 0, 57, 52
2, 13142, Note_on_c, 0, 63, 52
2, 13142, Note_on_c, 0, 68, 58
2, 13143, Note_on_c, 0, 53, 52
2, 13152, Note_on_c, 0, 67, 0
2, 13180, Note_on_c, 0, 77, 0
2, 13226, Note_on_c, 0, 69, 58
2, 13226, Note_on_c, 0, 77, 58
2, 13237, Note_on_c, 0, 68, 0
2, 13265, Note_on_c, 0, 77, 0
2, 13266, Note_on_c, 0, 63, 0
2, 13266, Note_on_c, 0, 57, 0
2, 13266, Note_on_c, 0, 53, 0
2, 13312, Note_on_c, 0, 57, 52
2, 13312, Note_on_c, 0, 70, 58
2, 13312, Note_on_c, 0, 77, 58
2, 13313, Note_on_c, 0, 53, 52
2, 13313, Note_on_c, 0, 63, 52
2, 13322, Note_on_c, 0, 69, 0
2, 13350, Note_on_c, 0, 77, 0
2, 13396, Note_on_c, 0, 71, 58
2, 13396, Note_on_c, 0, 77, 58
2, 13407, Note_on_c, 0, 70, 0
2, 13435, Note_on_c, 0, 77, 0
2, 13436, Note_on_c, 0, 53, 0
2, 13436, Note_on_c, 0, 63, 0
2, 13437, Note_on_c, 0, 57, 0
2, 13481, Note_on_c, 0, 72, 58
2, 13481, Note_on_c, 0, 77, 58
2, 13482, Note_on_c, 0, 53, 52
2, 13482, Note_on_c, 0, 57, 52
2, 13482, Note_on_c, 0, 63, 52
2, 13491, Note_on_c, 0, 71, 0
2, 13546, Note_on_c, 0, 77, 0
2, 13546, Note_on_c, 0, 72, 0
2, 13547, Note_on_c, 0, 53, 0
2, 13547, Note_on_c, 0, 63, 0
2, 13547, Note_on_c, 0, 57, 0
2, 13548, Note_on_c, 0, 48, 0
2, 13561, Note_on_c, 0, 75, 58
2, 13561, Note_on_c, 0, 78, 58
2, 13565, Note_on_c, 0, 46, 52
2, 13645, Note_on_c, 0, 72, 58
2, 13646, Note_on_c, 0, 66, 58
2, 13646, Note_on_c, 0, 69, 58
2, 13712, Note_on_c, 0, 69, 0
2, 13712, Note_on_c, 0, 72, 0
2, 13729, Note_on_c, 0, 73, 58
2, 13729, Note_on_c, 0, 77, 58
2, 13730, Note_on_c, 0, 65, 58
2, 13740, Note_on_c, 0, 78, 0
2, 13740, Note_on_c, 0, 75, 0
2, 13754, Note_on_c, 0, 66, 0
2, 13814, Note_on_c, 0, 70, 58
2, 13815, Note_on_c, 0, 61, 52
2, 13839, Note_on_c, 0, 65, 0
2, 13882, Note_on_c, 0, 70, 0
2, 13883, Note_on_c, 0, 46, 0
2, 13883, Note_on_c, 0, 61, 0
2, 13900, Note_on_c, 0, 65, 58
2, 13901, Note_on_c, 0, 37, 52
2, 13901, Note_on_c, 0, 49, 52
2, 13911, Note_on_c, 0, 73, 0
2, 13984, Note_on_c, 0, 71, 58
2, 13984, Note_on_c, 0, 75, 58
2, 13985, Note_on_c, 0, 63, 52
2, 14009, Note_on_c, 0, 77, 0
2, 14009, Note_on_c, 0, 65, 0
2, 14023, Note_on_c, 0, 63, 0
2, 14037, Note_on_c, 0, 71, 0
2, 14050, Note_on_c, 0, 75, 0
2, 14069, Note_on_c, 0, 63, 52
2, 14069, Note_on_c, 0, 65, 58
2, 14083, Note_on_c, 0, 71, 58
2, 14097, Note_on_c, 0, 75, 58
2, 14108, Note_on_c, 0, 65, 0
2, 14154, Note_on_c, 0, 77, 58
2, 14155, Note_on_c, 0, 65, 58
2, 14181, Note_on_c, 0, 63, 0
2, 14181, Note_on_c, 0, 75, 0
2, 14225, Note_on_c, 0, 49, 0
2, 14226, Note_on_c, 0, 37, 0
2, 14240, Note_on_c, 0, 63, 52
2, 14240, Note_on_c, 0, 75, 58
2, 14251, Note_on_c, 0, 71, 0
2, 14252, Note_on_c, 0, 65, 0
2, 14264, Note_on_c, 0, 77, 0
2, 14325, Note_on_c, 0, 70, 52
2, 14325, Note_on_c, 0, 61, 52
2, 14325, Note_on_c, 0, 66, 52
2, 14349, Note_on_c, 0, 63, 0
2, 14407, Note_on_c, 0, 73, 58
2, 14408, Note_on_c, 0, 58, 52
2, 14431, Note_on_c, 0, 75, 0
2, 14431, Note_on_c, 0, 70, 0
2, 14432, Note_on_c, 0, 66, 0
2, 14432, Note_on_c, 0, 61, 0
2, 14492, Note_on_c, 0, 70, 52
2, 14493, Note_on_c, 0, 66, 52
2, 14493, Note_on_c, 0, 49, 52
2, 14517, Note_on_c, 0, 58, 0
2, 14560, Note_on_c, 0, 66, 0
2, 14560, Note_on_c, 0, 70, 0
2, 14577, Note_on_c, 0, 63, 52
2, 14578, Note_on_c, 0, 44, 52
2, 14604, Note_on_c, 0, 49, 0
2, 14661, Note_on_c, 0, 71, 58
2, 14661, Note_on_c, 0, 61, 52
2, 14662, Note_on_c, 0, 49, 52
2, 14662, Note_on_c, 0, 53, 52
2, 14672, Note_on_c, 0, 73, 0
2, 14700, Note_on_c, 0, 71, 0
2, 14747, Note_on_c, 0, 65, 58
2, 14747, Note_on_c, 0, 71, 58
2, 14757, Note_on_c, 0, 63, 0
2, 14785, Note_on_c, 0, 53, 0
2, 14785, Note_on_c, 0, 61, 0
2, 14786, Note_on_c, 0, 49, 0
2, 14830, Note_on_c, 0, 61, 52
2, 14830, Note_on_c, 0, 73, 58
2, 14831, Note_on_c, 0, 49, 52
2, 14831, Note_on_c, 0, 53, 52
2, 14854, Note_on_c, 0, 71, 0
2, 14898, Note_on_c, 0, 73, 0
2, 14898, Note_on_c, 0, 61, 0
2, 14899, Note_on_c, 0, 44, 0
2, 14899, Note_on_c, 0, 53, 0
2, 14900, Note_on_c, 0, 49, 0
2, 14914, Note_on_c, 0, 66, 58
2, 14914, Note_on_c, 0, 71, 58
2, 14915, Note_on_c, 0, 46, 52
2, 14925, Note_on_c, 0, 65, 0
2, 14998, Note_on_c, 0, 61, 52
2, 14998, Note_on_c, 0, 70, 58
2, 14999, Note_on_c, 0, 54, 52
2, 15022, Note_on_c, 0, 71, 0
2, 15069, Note_on_c, 0, 61, 0
2, 15069, Note_on_c, 0, 54, 0
2, 15086, Note_on_c, 0, 63, 52
2, 15086, Note_on_c, 0, 68, 58
2, 15087, Note_on_c, 0, 47, 52
2, 15096, Note_on_c, 0, 66, 0
2, 15097, Note_on_c, 0, 46, 0
2, 15110, Note_on_c, 0, 70, 0
2, 15169, Note_on_c, 0, 70, 58
2, 15170, Note_on_c, 0, 59, 52
2, 15193, Note_on_c, 0, 68, 0
2, 15235, Note_on_c, 0, 59, 0
2, 15252, Note_on_c, 0, 66, 58
2, 15253, Note_on_c, 0, 49, 52
2, 15262, Note_on_c, 0, 70, 0
2, 15263, Note_on_c, 0, 63, 0
2, 15264, Note_on_c, 0, 47, 0
2, 15335, Note_on_c, 0, 58, 52
2, 15335, Note_on_c, 0, 61, 52
2, 15403, Note_on_c, 0, 61, 0
2, 15403, Note_on_c, 0, 58, 0
2, 15420, Note_on_c, 0, 65, 58
2, 15423, Note_on_c, 0, 37, 52
2, 15430, Note_on_c, 0, 49, 0
2, 15444, Note_on_c, 0, 66, 0
2, 15504, Note_on_c, 0, 59, 52
2, 15505, Note_on_c, 0, 56, 52
2, 15573, Note_on_c, 0, 56, 0
2, 15573, Note_on_c, 0, 37, 0
2, 15573, Note_on_c, 0, 65, 0
2, 15573, Note_on_c, 0, 59, 0
2, 15587, Note_on_c, 0, 87, 52
2, 15588, Note_on_c, 0, 75, 52
2, 15591, Note_on_c, 0, 42, 52
2, 15592, Note_on_c, 0, 30, 52
2, 15672, Note_on_c, 0, 82, 52
2, 15673, Note_on_c, 0, 61, 52
2, 15673, Note_on_c, 0, 78, 52
2, 15674, Note_on_c, 0, 54, 52
2, 15674, Note_on_c, 0, 58, 52
2, 15675, Note_on_c, 0, 49, 52
2, 15740, Note_on_c, 0, 78, 0
2, 15740, Note_on_c, 0, 82, 0
2, 15753, Note_on_c, 0, 87, 0
2, 15754, Note_on_c, 0, 75, 0
2, 15757, Note_on_c, 0, 85, 52
2, 15758, Note_on_c, 0, 73, 52
2, 15790, Control_c, 0, 64, 127
2, 15796, Note_on_c, 0, 61, 0
2, 15797, Note_on_c, 0, 58, 0
2, 15797, Note_on_c, 0, 54, 0
2, 15797, Note_on_c, 0, 49, 0
2, 15840, Note_on_c, 0, 78, 52
2, 15840, Note_on_c, 0, 82, 52
2, 15841, Note_on_c, 0, 61, 52
2, 15842, Note_on_c, 0, 49, 52
2, 15842, Note_on_c, 0, 54, 52
2, 15842, Note_on_c, 0, 58, 52
2, 15879, Note_on_c, 0, 82, 0
2, 15909, Note_on_c, 0, 78, 0
2, 15923, Note_on_c, 0, 85, 0
2, 15924, Note_on_c, 0, 73, 0
2, 15927, Note_on_c, 0, 82, 52
2, 15928, Note_on_c, 0, 70, 52
2, 15967, Note_on_c, 0, 61, 0
2, 15967, Note_on_c, 0, 54, 0
2, 15967, Note_on_c, 0, 58, 0
2, 15968, Note_on_c, 0, 49, 0
2, 16009, Note_on_c, 0, 78, 52
2, 16010, Note_on_c, 0, 61, 52
2, 16011, Note_on_c, 0, 49, 52
2, 16011, Note_on_c, 0, 54, 52
2, 16011, Note_on_c, 0, 58, 52
2, 16048, Note_on_c, 0, 78, 0
2, 16089, Note_on_c, 0, 70, 0
2, 16089, Note_on_c, 0, 82, 0
2, 16093, Note_on_c, 0, 66, 52
2, 16093, Note_on_c, 0, 78, 52
2, 16133, Note_on_c, 0, 49, 0
2, 16133, Note_on_c, 0, 54, 0
2, 16133, Note_on_c, 0, 58, 0
2, 16133, Note_on_c, 0, 61, 0
2, 16177, Note_on_c, 0, 73, 52
2, 16178, Note_on_c, 0, 54, 52
2, 16178, Note_on_c, 0, 58, 52
2, 16178, Note_on_c, 0, 61, 52
2, 16179, Note_on_c, 0, 49, 52
2, 16236, Control_c, 0, 64, 0
2, 16245, Note_on_c, 0, 61, 0
2, 16245, Note_on_c, 0, 58, 0
2, 16245, Note_on_c, 0, 73, 0
2, 16246, Note_on_c, 0, 49, 0
2, 16246, Note_on_c, 0, 54, 0
2, 16247, Note_on_c, 0, 42, 0
2, 16248, Note_on_c, 0, 30, 0
2, 16258, Note_on_c, 0, 78, 0
2, 16258, Note_on_c, 0, 66, 0
2, 16261, Note_on_c, 0, 74, 52
2, 16261, Note_on_c, 0, 77, 52
2, 16262, Note_on_c, 0, 53, 52
2, 16262, Note_on_c, 0, 65, 52
2, 16263, Note_on_c, 0, 44, 52
2, 16263, Note_on_c, 0, 59, 52
2, 16276, Note_on_c, 0, 50, 52
2, 16299, Note_on_c, 0, 74, 0
2, 16300, Note_on_c, 0, 77, 0
2, 16300, Note_on_c, 0, 59, 0
2, 16343, Note_on_c, 0, 74, 52
2, 16343, Note_on_c, 0, 77, 52
2, 16344, Note_on_c, 0, 59, 52
2, 16344, Note_on_c, 0, 62, 52
2, 16344, Note_on_c, 0, 66, 52
2, 16345, Note_on_c, 0, 54, 52
2, 16356, Note_on_c, 0, 65, 0
2, 16356, Note_on_c, 0, 53, 0
2, 16382, Note_on_c, 0, 74, 0
2, 16383, Note_on_c, 0, 62, 0
2, 16383, Note_on_c, 0, 59, 0
2, 16383, Note_on_c, 0, 77, 0
2, 16428, Note_on_c, 0, 74, 52
2, 16428, Note_on_c, 0, 77, 52
2, 16429, Note_on_c, 0, 55, 52
2, 16429, Note_on_c, 0, 59, 52
2, 16429, Note_on_c, 0, 62, 52
2, 16429, Note_on_c, 0, 67, 52
2, 16439, Note_on_c, 0, 66, 0
2, 16440, Note_on_c, 0, 54, 0
2, 16466, Note_on_c, 0, 74, 0
2, 16466, Note_on_c, 0, 77, 0
2, 16467, Note_on_c, 0, 59, 0
2, 16467, Note_on_c, 0, 62, 0
2, 16512, Note_on_c, 0, 62, 52
2, 16512, Note_on_c, 0, 68, 52
2, 16512, Note_on_c, 0, 74, 52
2, 16512, Note_on_c, 0, 77, 52
2, 16513, Note_on_c, 0, 56, 52
2, 16513, Note_on_c, 0, 59, 52
2, 16523, Note_on_c, 0, 67, 0
2, 16524, Note_on_c, 0, 55, 0
2, 16550, Note_on_c, 0, 74, 0
2, 16551, Note_on_c, 0, 59, 0
2, 16551, Note_on_c, 0, 62, 0
2, 16551, Note_on_c, 0, 77, 0
2, 16596, Note_on_c, 0, 69, 52
2, 16596, Note_on_c, 0, 74, 52
2, 16596, Note_on_c, 0, 77, 52
2, 16597, Note_on_c, 0, 57, 52
2, 16606, Note_on_c, 0, 68, 0
2, 16607, Note_on_c, 0, 56, 0
2, 16607, Note_on_c, 0, 50, 0
2, 16608, Note_on_c, 0, 44, 0
2, 16632, Note_on_c, 0, 74, 0
2, 16633, Note_on_c, 0, 77, 0
2, 16680, Note_on_c, 0, 70, 52
2, 16680, Note_on_c, 0, 74, 52
2, 16680, Note_on_c, 0, 77, 52
2, 16681, Note_on_c, 0, 58, 52
2, 16691, Note_on_c, 0, 69, 0
2, 16692, Note_on_c, 0, 57, 0
2, 16719, Note_on_c, 0, 77, 0
2, 16719, Note_on_c, 0, 74, 0
2, 16764, Note_on_c, 0, 74, 52
2, 16764, Note_on_c, 0, 77, 52
2, 16765, Note_on_c, 0, 59, 52
2, 16765, Note_on_c, 0, 71, 52
2, 16774, Note_on_c, 0, 70, 0
2, 16775, Note_on_c, 0, 58, 0
2, 16802, Note_on_c, 0, 77, 0
2, 16802, Note_on_c, 0, 74, 0
2, 16847, Note_on_c, 0, 72, 52
2, 16847, Note_on_c, 0, 77, 52
2, 16848, Note_on_c, 0, 60, 52
2, 16858, Note_on_c, 0, 71, 0
2, 16859, Note_on_c, 0, 59, 0
2, 16914, Note_on_c, 0, 77, 0
2, 16914, Note_on_c, 0, 72, 0
2, 16915, Note_on_c, 0, 60, 0
2, 16929, Note_on_c, 0, 87, 52
2, 16930, Note_on_c, 0, 75, 52
2, 16933, Note_on_c, 0, 46, 52
2, 16934, Note_on_c, 0, 34, 52
2, 17013, Note_on_c, 0, 78, 52
2, 17013, Note_on_c, 0, 82, 52
2, 17013, Note_on_c, 0, 61, 52
2, 17014, Note_on_c, 0, 49, 52
2, 17014, Note_on_c, 0, 54, 52
2, 17014, Note_on_c, 0, 58, 52
2, 17078, Note_on_c, 0, 82, 0
2, 17079, Note_on_c, 0, 78, 0
2, 17092, Note_on_c, 0, 87, 0
2, 17093, Note_on_c, 0, 75, 0
2, 17094, Note_on_c, 0, 85, 52
2, 17095, Note_on_c, 0, 73, 52
2, 17114, Control_c, 0, 64, 127
2, 17134, Note_on_c, 0, 58, 0
2, 17135, Note_on_c, 0, 54, 0
2, 17135, Note_on_c, 0, 49, 0
2, 17135, Note_on_c, 0, 61, 0
2, 17180, Note_on_c, 0, 78, 52
2, 17180, Note_on_c, 0, 82, 52
2, 17181, Note_on_c, 0, 58, 52
2, 17181, Note_on_c, 0, 61, 52
2, 17181, Note_on_c, 0, 49, 52
2, 17181, Note_on_c, 0, 54, 52
2, 17219, Note_on_c, 0, 82, 0
2, 17246, Note_on_c, 0, 78, 0
2, 17260, Note_on_c, 0, 85, 0
2, 17260, Note_on_c, 0, 73, 0
2, 17263, Note_on_c, 0, 82, 52
2, 17264, Note_on_c, 0, 70, 52
2, 17304, Note_on_c, 0, 58, 0
2, 17304, Note_on_c, 0, 61, 0
2, 17304, Note_on_c, 0, 54, 0
2, 17305, Note_on_c, 0, 49, 0
2, 17349, Note_on_c, 0, 61, 52
2, 17349, Note_on_c, 0, 78, 52
2, 17349, Note_on_c, 0, 49, 52
2, 17349, Note_on_c, 0, 54, 52
2, 17349, Note_on_c, 0, 58, 52
2, 17387, Note_on_c, 0, 78, 0
2, 17428, Note_on_c, 0, 70, 0
2, 17428, Note_on_c, 0, 82, 0
2, 17432, Note_on_c, 0, 66, 52
2, 17432, Note_on_c, 0, 78, 52
2, 17470, Note_on_c, 0, 58, 0
2, 17470, Note_on_c, 0, 61, 0
2, 17471, Note_on_c, 0, 49, 0
2, 17471, Note_on_c, 0, 54, 0
2, 17516, Note_on_c, 0, 73, 52
2, 17517, Note_on_c, 0, 58, 52
2, 17517, Note_on_c, 0, 61, 52
2, 17517, Note_on_c, 0, 49, 52
2, 17517, Note_on_c, 0, 54, 52
2, 17528, Note_on_c, 0, 46, 0
2, 17531, Note_on_c, 0, 34, 0
2, 17583, Note_on_c, 0, 73, 0
2, 17583, Note_on_c, 0, 61, 0
2, 17583, Note_on_c, 0, 58, 0
2, 17584, Note_on_c, 0, 54, 0
2, 17584, Note_on_c, 0, 49, 0
2, 17596, Note_on_c, 0, 78, 0
2, 17596, Note_on_c, 0, 66, 0
2, 17600, Note_on_c, 0, 65, 52
2, 17600, Note_on_c, 0, 69, 52
2, 17600, Note_on_c, 0, 75, 52
2, 17600, Note_on_c, 0, 77, 52
2, 17601, Note_on_c, 0, 48, 52
2, 17602, Note_on_c, 0, 36, 52
2, 17614, Control_c, 0, 64, 0
2, 17637, Note_on_c, 0, 77, 0
2, 17637, Note_on_c, 0, 65, 0
2, 17664, Note_on_c, 0, 75, 0
2, 17665, Note_on_c, 0, 69, 0
2, 17682, Note_on_c, 0, 70, 52
2, 17682, Note_on_c, 0, 77, 52
2, 17682, Note_on_c, 0, 81, 52
2, 17683, Note_on_c, 0, 58, 52
2, 17683, Note_on_c, 0, 63, 52
2, 17683, Note_on_c, 0, 65, 52
2, 17719, Note_on_c, 0, 81, 0
2, 17719, Note_on_c, 0, 77, 0
2, 17720, Note_on_c, 0, 65, 0
2, 17720, Note_on_c, 0, 63, 0
2, 17748, Note_on_c, 0, 70, 0
2, 17749, Note_on_c, 0, 58, 0
2, 17763, Note_on_c, 0, 77, 52
2, 17763, Note_on_c, 0, 81, 52
2, 17764, Note_on_c, 0, 59, 52
2, 17764, Note_on_c, 0, 63, 52
2, 17764, Note_on_c, 0, 65, 52
2, 17764, Note_on_c, 0, 71, 52
2, 17801, Note_on_c, 0, 81, 0
2, 17802, Note_on_c, 0, 77, 0
2, 17802, Note_on_c, 0, 65, 0
2, 17803, Note_on_c, 0, 63, 0
2, 17829, Note_on_c, 0, 71, 0
2, 17830, Note_on_c, 0, 59, 0
2, 17844, Note_on_c, 0, 77, 52
2, 17844, Note_on_c, 0, 81, 52
2, 17845, Note_on_c, 0, 63, 52
2, 17845, Note_on_c, 0, 65, 52
2, 17845, Note_on_c, 0, 72, 52
2, 17846, Note_on_c, 0, 60, 52
2, 17882, Note_on_c, 0, 81, 0
2, 17882, Note_on_c, 0, 77, 0
2, 17883, Note_on_c, 0, 63, 0
2, 17883, Note_on_c, 0, 65, 0
2, 17911, Note_on_c, 0, 72, 0
2, 17912, Note_on_c, 0, 60, 0
2, 17925, Note_on_c, 0, 81, 52
2, 17926, Note_on_c, 0, 61, 52
2, 17926, Note_on_c, 0, 69, 52
2, 17926, Note_on_c, 0, 73, 52
2, 17926, Note_on_c, 0, 77, 52
2, 17927, Note_on_c, 0, 65, 52
2, 17940, Note_on_c, 0, 48, 0
2, 17941, Note_on_c, 0, 36, 0
2, 17965, Note_on_c, 0, 81, 0
2, 17965, Note_on_c, 0, 77, 0
2, 17966, Note_on_c, 0, 69, 0
2, 17966, Note_on_c, 0, 65, 0
2, 17993, Note_on_c, 0, 73, 0
2, 17994, Note_on_c, 0, 61, 0
2, 18010, Note_on_c, 0, 69, 52
2, 18010, Note_on_c, 0, 74, 52
2, 18010, Note_on_c, 0, 77, 52
2, 18010, Note_on_c, 0, 81, 52
2, 18011, Note_on_c, 0, 62, 52
2, 18011, Note_on_c, 0, 65, 52
2, 18048, Note_on_c, 0, 65, 0
2, 18048, Note_on_c, 0, 69, 0
2, 18048, Note_on_c, 0, 77, 0
2, 18048, Note_on_c, 0, 81, 0
2, 18076, Note_on_c, 0, 74, 0
2, 18077, Note_on_c, 0, 62, 0
2, 18093, Note_on_c, 0, 69, 52
2, 18093, Note_on_c, 0, 75, 52
2, 18093, Note_on_c, 0, 77, 52
2, 18093, Note_on_c, 0, 81, 52
2, 18094, Note_on_c, 0, 63, 52
2, 18094, Note_on_c, 0, 65, 52
2, 18132, Note_on_c, 0, 81, 0
2, 18160, Note_on_c, 0, 75, 0
2, 18160, Note_on_c, 0, 77, 0
2, 18160, Note_on_c, 0, 69, 0
2, 18160, Note_on_c, 0, 65, 0
2, 18161, Note_on_c, 0, 63, 0
2, 18177, Note_on_c, 0, 76, 52
2, 18177, Note_on_c, 0, 81, 52
2, 18178, Note_on_c, 0, 64, 52
2, 18243, Note_on_c, 0, 64, 0
2, 18243, Note_on_c, 0, 81, 0
2, 18243, Note_on_c, 0, 76, 0
2, 18258, Note_on_c, 0, 90, 58
2, 18259, Note_on_c, 0, 78, 58
2, 18260, Note_on_c, 0, 66, 58
2, 18344, Note_on_c, 0, 82, 52
2, 18344, Note_on_c, 0, 85, 52
2, 18345, Note_on_c, 0, 58, 52
2, 18345, Note_on_c, 0, 61, 52
2, 18395, Note_on_c, 0, 85, 0
2, 18396, Note_on_c, 0, 82, 0
2, 18423, Note_on_c, 0, 90, 0
2, 18423, Note_on_c, 0, 78, 0
2, 18424, Note_on_c, 0, 66, 0
2, 18425, Note_on_c, 0, 89, 58
2, 18426, Note_on_c, 0, 77, 58
2, 18427, Note_on_c, 0, 65, 58
2, 18464, Note_on_c, 0, 61, 0
2, 18465, Note_on_c, 0, 58, 0
2, 18506, Note_on_c, 0, 85, 52
2, 18507, Note_on_c, 0, 82, 52
2, 18508, Note_on_c, 0, 58, 52
2, 18508, Note_on_c, 0, 61, 52
2, 18547, Note_on_c, 0, 65, 0
2, 18573, Note_on_c, 0, 85, 0
2, 18574, Note_on_c, 0, 82, 0
2, 18574, Note_on_c, 0, 61, 0
2, 18575, Note_on_c, 0, 58, 0
2, 18586, Note_on_c, 0, 89, 0
2, 18587, Note_on_c, 0, 77, 0
2, 18593, Note_on_c, 0, 49, 52
2, 18593, Note_on_c, 0, 65, 58
2, 18594, Note_on_c, 0, 37, 52
2, 18625, Control_c, 0, 64, 127
2, 18676, Note_on_c, 0, 63, 52
2, 18676, Note_on_c, 0, 71, 58
2, 18676, Note_on_c, 0, 75, 58
2, 18715, Note_on_c, 0, 63, 0
2, 18715, Note_on_c, 0, 65, 0
2, 18728, Note_on_c, 0, 71, 0
2, 18728, Note_on_c, 0, 75, 0
2, 18759, Note_on_c, 0, 65, 58
2, 18760, Note_on_c, 0, 63, 52
2, 18773, Note_on_c, 0, 71, 58
2, 18787, Note_on_c, 0, 75, 58
2, 18799, Note_on_c, 0, 65, 0
2, 18844, Note_on_c, 0, 65, 58
2, 18844, Note_on_c, 0, 77, 58
2, 18845, Control_c, 0, 64, 0
2, 18868, Note_on_c, 0, 75, 0
2, 18869, Note_on_c, 0, 63, 0
2, 18913, Note_on_c, 0, 49, 0
2, 18914, Note_on_c, 0, 37, 0
2, 18928, Note_on_c, 0, 75, 58
2, 18929, Note_on_c, 0, 63, 52
2, 18939, Note_on_c, 0, 77, 0
2, 18939, Note_on_c, 0, 71, 0
2, 18939, Note_on_c, 0, 65, 0
2, 19014, Note_on_c, 0, 61, 52
2, 19014, Note_on_c, 0, 66, 52
2, 19014, Note_on_c, 0, 70, 52
2, 19039, Note_on_c, 0, 63, 0
2, 19100, Note_on_c, 0, 58, 52
2, 19100, Note_on_c, 0, 73, 58
2, 19124, Note_on_c, 0, 75, 0
2, 19124, Note_on_c, 0, 70, 0
2, 19124, Note_on_c, 0, 61, 0
2, 19125, Note_on_c, 0, 66, 0
2, 19181, Note_on_c, 0, 66, 52
2, 19181, Note_on_c, 0, 70, 52
2, 19182, Note_on_c, 0, 49, 52
2, 19206, Note_on_c, 0, 58, 0
2, 19246, Note_on_c, 0, 70, 0
2, 19247, Note_on_c, 0, 66, 0
2, 19248, Note_on_c, 0, 49, 0
2, 19265, Note_on_c, 0, 63, 52
2, 19266, Note_on_c, 0, 44, 52
2, 19317, Note_on_c, 0, 73, 0
2, 19348, Note_on_c, 0, 61, 52
2, 19348, Note_on_c, 0, 71, 58
2, 19349, Note_on_c, 0, 53, 52
2, 19350, Note_on_c, 0, 49, 52
2, 19385, Note_on_c, 0, 71, 0
2, 19430, Note_on_c, 0, 65, 58
2, 19430, Note_on_c, 0, 71, 58
2, 19442, Note_on_c, 0, 63, 0
2, 19472, Note_on_c, 0, 53, 0
2, 19472, Note_on_c, 0, 61, 0
2, 19473, Note_on_c, 0, 49, 0
2, 19517, Note_on_c, 0, 73, 58
2, 19518, Note_on_c, 0, 53, 52
2, 19518, Note_on_c, 0, 61, 52
2, 19519, Note_on_c, 0, 49, 52
2, 19529, Note_on_c, 0, 71, 0
2, 19570, Note_on_c, 0, 73, 0
2, 19586, Note_on_c, 0, 61, 0
2, 19586, Note_on_c, 0, 53, 0
2, 19586, Note_on_c, 0, 44, 0
2, 19586, Note_on_c, 0, 49, 0
2, 19603, Note_on_c, 0, 66, 58
2, 19603, Note_on_c, 0, 71, 58
2, 19604, Note_on_c, 0, 46, 52
2, 19613, Note_on_c, 0, 65, 0
2, 19687, Note_on_c, 0, 70, 58
2, 19688, Note_on_c, 0, 61, 52
2, 19689, Note_on_c, 0, 54, 52
2, 19712, Note_on_c, 0, 71, 0
2, 19755, Note_on_c, 0, 61, 0
2, 19756, Note_on_c, 0, 54, 0
2, 19773, Note_on_c, 0, 63, 52
2, 19773, Note_on_c, 0, 68, 58
2, 19775, Note_on_c, 0, 47, 52
2, 19783, Note_on_c, 0, 66, 0
2, 19784, Note_on_c, 0, 46, 0
2, 19797, Note_on_c, 0, 70, 0
2, 19858, Note_on_c, 0, 70, 58
2, 19859, Note_on_c, 0, 59, 52
2, 19882, Note_on_c, 0, 68, 0
2, 19925, Note_on_c, 0, 59, 0
2, 19942, Note_on_c, 0, 66, 58
2, 19945, Note_on_c, 0, 49, 52
2, 19953, Note_on_c, 0, 70, 0
2, 19954, Note_on_c, 0, 63, 0
2, 19955, Note_on_c, 0, 47, 0
2, 20026, Note_on_c, 0, 58, 52
2, 20026, Note_on_c, 0, 61, 52
2, 20091, Note_on_c, 0, 61, 0
2, 20092, Note_on_c, 0, 58, 0
2, 20109, Note_on_c, 0, 65, 58
2, 20112, Note_on_c, 0, 37, 52
2, 20119, Note_on_c, 0, 66, 0
2, 20122, Note_on_c, 0, 49, 0
2, 20194, Note_on_c, 0, 56, 52
2, 20194, Note_on_c, 0, 59, 52
2, 20259, Note_on_c, 0, 59, 0
2, 20259, Note_on_c, 0, 65, 0
2, 20260, Note_on_c, 0, 56, 0
2, 20261, Note_on_c, 0, 37, 0
2, 20275, Note_on_c, 0, 66, 58
2, 20278, Note_on_c, 0, 30, 52
2, 20293, Control_c, 0, 64, 127
2, 20360, Note_on_c, 0, 57, 52
2, 20445, Note_on_c, 0, 73, 58
2, 20445, Note_on_c, 0, 49, 52
2, 20459, Note_on_c, 0, 30, 0
2, 20469, Note_on_c, 0, 57, 0
2, 20532, Note_on_c, 0, 42, 52
2, 20556, Note_on_c, 0, 49, 0
2, 20586, Note_on_c, 0, 42, 0
2, 20613, Note_on_c, 0, 78, 58
2, 20638, Note_on_c, 0, 73, 0
2, 20639, Note_on_c, 0, 66, 0
2, 20700, Note_on_c, 0, 69, 52
2, 20784, Note_on_c, 0, 61, 52
2, 20808, Note_on_c, 0, 69, 0
2, 20839, Control_c, 0, 64, 0
2, 20866, Note_on_c, 0, 77, 58
2, 20867, Note_on_c, 0, 54, 52
2, 20877, Note_on_c, 0, 78, 0
2, 20893, Note_on_c, 0, 61, 0
2, 20921, Note_on_c, 0, 54, 0
2, 20933, Note_on_c, 0, 77, 0
2, 20950, Note_on_c, 0, 65, 58
2, 20950, Note_on_c, 0, 76, 58
2, 20991, Note_on_c, 0, 65, 0
2, 21018, Note_on_c, 0, 76, 0
2, 21035, Note_on_c, 0, 75, 58
2, 21036, Note_on_c, 0, 56, 52
2, 21036, Note_on_c, 0, 65, 58
2, 21073, Note_on_c, 0, 65, 0
2, 21101, Note_on_c, 0, 75, 0
2, 21117, Note_on_c, 0, 74, 58
2, 21118, Note_on_c, 0, 65, 58
2, 21119, Note_on_c, 0, 49, 52
2, 21143, Note_on_c, 0, 56, 0
2, 21156, Note_on_c, 0, 65, 0
2, 21184, Note_on_c, 0, 74, 0
2, 21202, Note_on_c, 0, 65, 58
2, 21202, Note_on_c, 0, 73, 58
2, 21205, Note_on_c, 0, 42, 52
2, 21229, Note_on_c, 0, 49, 0
2, 21241, Note_on_c, 0, 65, 0
2, 21259, Note_on_c, 0, 42, 0
2, 21269, Note_on_c, 0, 73, 0
2, 21286, Note_on_c, 0, 65, 58
2, 21286, Note_on_c, 0, 72, 58
2, 21325, Note_on_c, 0, 65, 0
2, 21355, Note_on_c, 0, 72, 0
2, 21371, Note_on_c, 0, 65, 58
2, 21371, Note_on_c, 0, 71, 58
2, 21372, Note_on_c, 0, 56, 52
2, 21409, Note_on_c, 0, 65, 0
2, 21437, Note_on_c, 0, 71, 0
2, 21455, Note_on_c, 0, 61, 52
2, 21455, Note_on_c, 0, 65, 58
2, 21455, Note_on_c, 0, 69, 58
2, 21466, Note_on_c, 0, 56, 0
2, 21494, Note_on_c, 0, 65, 0
2, 21522, Note_on_c, 0, 69, 0
2, 21540, Note_on_c, 0, 65, 58
2, 21540, Note_on_c, 0, 68, 58
2, 21541, Note_on_c, 0, 54, 52
2, 21565, Note_on_c, 0, 61, 0
2, 21605, Note_on_c, 0, 65, 0
2, 21605, Note_on_c, 0, 68, 0
2, 21606, Note_on_c, 0, 54, 0
2, 21622, Note_on_c, 0, 66, 58
2, 21622, Note_on_c, 0, 69, 58
2, 21654, Control_c, 0, 64, 127
2, 21708, Note_on_c, 0, 57, 52
2, 21746, Note_on_c, 0, 66, 0
2, 21789, Note_on_c, 0, 66, 58
2, 21789, Note_on_c, 0, 73, 58
2, 21790, Note_on_c, 0, 49, 52
2, 21801, Note_on_c, 0, 69, 0
2, 21815, Note_on_c, 0, 57, 0
2, 21876, Note_on_c, 0, 42, 52
2, 21901, Note_on_c, 0, 49, 0
2, 21911, Note_on_c, 0, 66, 0
2, 21929, Note_on_c, 0, 42, 0
2, 21957, Note_on_c, 0, 66, 58
2, 21967, Note_on_c, 0, 73, 0
2, 21983, Note_on_c, 0, 78, 52
2, 22044, Note_on_c, 0, 54, 52
2, 22128, Note_on_c, 0, 45, 52
2, 22152, Note_on_c, 0, 54, 0
2, 22197, Control_c, 0, 64, 0
2, 22210, Note_on_c, 0, 77, 58
2, 22211, Note_on_c, 0, 65, 58
2, 22214, Note_on_c, 0, 38, 52
2, 22221, Note_on_c, 0, 66, 0
2, 22221, Note_on_c, 0, 78, 0
2, 22238, Note_on_c, 0, 45, 0
2, 22268, Note_on_c, 0, 38, 0
2, 22297, Note_on_c, 0, 76, 58
2, 22298, Note_on_c, 0, 64, 58
2, 22308, Note_on_c, 0, 77, 0
2, 22308, Note_on_c, 0, 65, 0
2, 22338, Note_on_c, 0, 64, 0
2, 22381, Note_on_c, 0, 71, 58
2, 22382, Note_on_c, 0, 64, 58
2, 22383, Note_on_c, 0, 56, 52
2, 22390, Note_on_c, 0, 76, 0
2, 22420, Note_on_c, 0, 64, 0
2, 22464, Note_on_c, 0, 73, 58
2, 22465, Note_on_c, 0, 64, 58
2, 22466, Note_on_c, 0, 47, 52
2, 22474, Note_on_c, 0, 71, 0
2, 22488, Note_on_c, 0, 56, 0
2, 22503, Note_on_c, 0, 64, 0
2, 22533, Note_on_c, 0, 76, 58
2, 22547, Note_on_c, 0, 74, 58
2, 22548, Note_on_c, 0, 64, 58
2, 22549, Note_on_c, 0, 40, 52
2, 22557, Note_on_c, 0, 73, 0
2, 22570, Note_on_c, 0, 76, 0
2, 22573, Note_on_c, 0, 47, 0
2, 22585, Note_on_c, 0, 64, 0
2, 22602, Note_on_c, 0, 40, 0
2, 22631, Note_on_c, 0, 64, 58
2, 22631, Note_on_c, 0, 73, 58
2, 22641, Note_on_c, 0, 74, 0
2, 22662, Control_c, 0, 64, 127
2, 22717, Note_on_c, 0, 45, 52
2, 22801, Note_on_c, 0, 40, 52
2, 22825, Note_on_c, 0, 45, 0
2, 22886, Note_on_c, 0, 33, 52
2, 22893, Note_on_c, 0, 73, 0
2, 22894, Note_on_c, 0, 64, 0
2, 22897, Control_c, 0, 64, 0
2, 22911, Note_on_c, 0, 40, 0
2, 22941, Note_on_c, 0, 33, 0
2, 22970, Note_on_c, 0, 57, 52
2, 23002, Control_c, 0, 64, 127
2, 23054, Note_on_c, 0, 61, 52
2, 23138, Note_on_c, 0, 76, 58
2, 23141, Note_on_c, 0, 52, 52
2, 23162, Note_on_c, 0, 61, 0
2, 23163, Note_on_c, 0, 57, 0
2, 23222, Note_on_c, 0, 45, 52
2, 23245, Note_on_c, 0, 52, 0
2, 23273, Note_on_c, 0, 45, 0
2, 23301, Note_on_c, 0, 85, 58
2, 23301, Note_on_c, 0, 73, 58
2, 23325, Note_on_c, 0, 76, 0
2, 23386, Note_on_c, 0, 69, 52
2, 23471, Note_on_c, 0, 64, 52
2, 23495, Note_on_c, 0, 69, 0
2, 23554, Note_on_c, 0, 81, 58
2, 23557, Note_on_c, 0, 57, 52
2, 23580, Note_on_c, 0, 85, 0
2, 23580, Note_on_c, 0, 73, 0
2, 23581, Note_on_c, 0, 64, 0
2, 23584, Control_c, 0, 64, 0
2, 23594, Note_on_c, 0, 81, 0
2, 23609, Note_on_c, 0, 57, 0
2, 23625, Note_on_c, 0, 81, 58
2, 23639, Note_on_c, 0, 72, 58
2, 23639, Note_on_c, 0, 80, 58
2, 23663, Note_on_c, 0, 81, 0
2, 23680, Note_on_c, 0, 72, 0
2, 23708, Note_on_c, 0, 80, 0
2, 23725, Note_on_c, 0, 78, 58
2, 23726, Note_on_c, 0, 57, 52
2, 23726, Note_on_c, 0, 72, 58
2, 23764, Note_on_c, 0, 72, 0
2, 23791, Note_on_c, 0, 78, 0
2, 23809, Note_on_c, 0, 72, 58
2, 23809, Note_on_c, 0, 80, 58
2, 23810, Note_on_c, 0, 63, 52
2, 23835, Note_on_c, 0, 57, 0
2, 23849, Note_on_c, 0, 72, 0
2, 23877, Note_on_c, 0, 80, 0
2, 23894, Note_on_c, 0, 72, 58
2, 23894, Note_on_c, 0, 81, 58
2, 23895, Note_on_c, 0, 57, 52
2, 23919, Note_on_c, 0, 63, 0
2, 23949, Note_on_c, 0, 57, 0
2, 23961, Note_on_c, 0, 81, 0
2, 23962, Note_on_c, 0, 72, 0
2, 23976, Note_on_c, 0, 82, 58
2, 23977, Note_on_c, 0, 71, 58
2, 24016, Note_on_c, 0, 71, 0
2, 24056, Note_on_c, 0, 82, 0
2, 24060, Note_on_c, 0, 71, 58
2, 24060, Note_on_c, 0, 83, 58
2, 24061, Note_on_c, 0, 56, 52
2, 24099, Note_on_c, 0, 71, 0
2, 24126, Note_on_c, 0, 83, 0
2, 24144, Note_on_c, 0, 71, 58
2, 24144, Note_on_c, 0, 80, 58
2, 24145, Note_on_c, 0, 64, 58
2, 24169, Note_on_c, 0, 56, 0
2, 24183, Note_on_c, 0, 71, 0
2, 24210, Note_on_c, 0, 80, 0
2, 24228, Note_on_c, 0, 71, 58
2, 24228, Note_on_c, 0, 76, 58
2, 24229, Note_on_c, 0, 56, 52
2, 24253, Note_on_c, 0, 64, 0
2, 24281, Note_on_c, 0, 56, 0
2, 24294, Note_on_c, 0, 76, 0
2, 24294, Note_on_c, 0, 71, 0
2, 24311, Note_on_c, 0, 73, 58
2, 24311, Note_on_c, 0, 81, 58
2, 24312, Note_on_c, 0, 69, 58
2, 24331, Control_c, 0, 64, 127
2, 24396, Note_on_c, 0, 67, 58
2, 24434, Note_on_c, 0, 69, 0
2, 24434, Note_on_c, 0, 73, 0
2, 24479, Note_on_c, 0, 69, 58
2, 24479, Note_on_c, 0, 73, 58
2, 24479, Note_on_c, 0, 76, 58
2, 24480, Note_on_c, 0, 57, 52
2, 24480, Note_on_c, 0, 61, 52
2, 24490, Note_on_c, 0, 81, 0
2, 24504, Note_on_c, 0, 67, 0
2, 24565, Note_on_c, 0, 55, 52
2, 24579, Control_c, 0, 64, 0
2, 24589, Note_on_c, 0, 57, 0
2, 24589, Note_on_c, 0, 61, 0
2, 24602, Note_on_c, 0, 69, 0
2, 24619, Note_on_c, 0, 55, 0
2, 24649, Note_on_c, 0, 74, 58
2, 24649, Note_on_c, 0, 81, 58
2, 24650, Note_on_c, 0, 69, 58
2, 24661, Note_on_c, 0, 73, 0
2, 24661, Note_on_c, 0, 76, 0
2, 24682, Control_c, 0, 64, 127
2, 24734, Note_on_c, 0, 66, 52
2, 24816, Note_on_c, 0, 62, 52
2, 24817, Note_on_c, 0, 57, 52
2, 24840, Note_on_c, 0, 66, 0
2, 24901, Note_on_c, 0, 54, 52
2, 24914, Control_c, 0, 64, 0
2, 24924, Note_on_c, 0, 62, 0
2, 24924, Note_on_c, 0, 69, 0
2, 24924, Note_on_c, 0, 81, 0
2, 24924, Note_on_c, 0, 74, 0
2, 24925, Note_on_c, 0, 57, 0
2, 24953, Note_on_c, 0, 54, 0
2, 24982, Note_on_c, 0, 80, 58
2, 24983, Note_on_c, 0, 68, 58
2, 24983, Note_on_c, 0, 72, 58
2, 25015, Control_c, 0, 64, 127
2, 25067, Note_on_c, 0, 66, 52
2, 25105, Note_on_c, 0, 72, 0
2, 25105, Note_on_c, 0, 68, 0
2, 25149, Note_on_c, 0, 72, 58
2, 25149, Note_on_c, 0, 75, 58
2, 25150, Note_on_c, 0, 68, 58
2, 25151, Note_on_c, 0, 56, 52
2, 25151, Note_on_c, 0, 60, 52
2, 25159, Note_on_c, 0, 80, 0
2, 25175, Note_on_c, 0, 66, 0
2, 25236, Control_c, 0, 64, 0
2, 25237, Note_on_c, 0, 54, 52
2, 25261, Note_on_c, 0, 56, 0
2, 25261, Note_on_c, 0, 60, 0
2, 25275, Note_on_c, 0, 68, 0
2, 25290, Note_on_c, 0, 54, 0
2, 25319, Note_on_c, 0, 80, 58
2, 25320, Note_on_c, 0, 68, 58
2, 25320, Note_on_c, 0, 73, 58
2, 25330, Note_on_c, 0, 75, 0
2, 25331, Note_on_c, 0, 72, 0
2, 25354, Control_c, 0, 64, 127
2, 25405, Note_on_c, 0, 65, 52
2, 25489, Note_on_c, 0, 56, 52
2, 25489, Note_on_c, 0, 61, 52
2, 25513, Note_on_c, 0, 65, 0
2, 25575, Note_on_c, 0, 53, 52
2, 25599, Note_on_c, 0, 68, 0
2, 25599, Note_on_c, 0, 73, 0
2, 25599, Note_on_c, 0, 80, 0
2, 25600, Note_on_c, 0, 61, 0
2, 25600, Note_on_c, 0, 56, 0
2, 25604, Control_c, 0, 64, 0
2, 25614, Note_on_c, 0, 53, 0
2, 25656, Note_on_c, 0, 71, 58
2, 25656, Note_on_c, 0, 74, 58
2, 25657, Note_on_c, 0, 53, 52
2, 25699, Note_on_c, 0, 56, 52
2, 25723, Note_on_c, 0, 53, 0
2, 25740, Note_on_c, 0, 59, 52
2, 25765, Note_on_c, 0, 56, 0
2, 25782, Note_on_c, 0, 62, 52
2, 25807, Note_on_c, 0, 59, 0
2, 25823, Note_on_c, 0, 61, 52
2, 25823, Note_on_c, 0, 65, 58
2, 25823, Note_on_c, 0, 68, 58
2, 25835, Note_on_c, 0, 71, 0
2, 25835, Note_on_c, 0, 74, 0
2, 25848, Note_on_c, 0, 62, 0
2, 25866, Note_on_c, 0, 60, 52
2, 25876, Note_on_c, 0, 61, 0
2, 25907, Note_on_c, 0, 59, 52
2, 25918, Note_on_c, 0, 60, 0
2, 25949, Note_on_c, 0, 58, 52
2, 25959, Note_on_c, 0, 59, 0
2, 25989, Note_on_c, 0, 71, 58
2, 25989, Note_on_c, 0, 74, 58
2, 25990, Note_on_c, 0, 57, 52
2, 26001, Note_on_c, 0, 65, 0
2, 26001, Note_on_c, 0, 58, 0
2, 26001, Note_on_c, 0, 68, 0
2, 26033, Note_on_c, 0, 56, 52
2, 26043, Note_on_c, 0, 57, 0
2, 26075, Note_on_c, 0, 55, 52
2, 26085, Note_on_c, 0, 56, 0
2, 26117, Note_on_c, 0, 54, 52
2, 26128, Note_on_c, 0, 55, 0
2, 26159, Note_on_c, 0, 53, 52
2, 26170, Note_on_c, 0, 54, 0
2, 26202, Note_on_c, 0, 52, 52
2, 26212, Note_on_c, 0, 53, 0
2, 26240, Note_on_c, 0, 73, 58
2, 26241, Note_on_c, 0, 65, 58
2, 26242, Note_on_c, 0, 51, 52
2, 26252, Note_on_c, 0, 71, 0
2, 26252, Note_on_c, 0, 74, 0
2, 26253, Note_on_c, 0, 52, 0
2, 26279, Note_on_c, 0, 65, 0
2, 26285, Note_on_c, 0, 50, 52
2, 26296, Note_on_c, 0, 51, 0
2, 26326, Note_on_c, 0, 72, 58
2, 26327, Note_on_c, 0, 65, 58
2, 26328, Note_on_c, 0, 49, 52
2, 26336, Note_on_c, 0, 73, 0
2, 26337, Note_on_c, 0, 50, 0
2, 26364, Note_on_c, 0, 65, 0
2, 26395, Note_on_c, 0, 49, 0
2, 26405, Note_on_c, 0, 72, 0
2, 26409, Note_on_c, 0, 65, 58
2, 26409, Note_on_c, 0, 71, 58
2, 26447, Note_on_c, 0, 65, 0
2, 26488, Note_on_c, 0, 71, 0
2, 26492, Note_on_c, 0, 65, 58
2, 26492, Note_on_c, 0, 70, 58
2, 26530, Note_on_c, 0, 65, 0
2, 26571, Note_on_c, 0, 70, 0
2, 26575, Note_on_c, 0, 65, 58
2, 26575, Note_on_c, 0, 69, 58
2, 26613, Note_on_c, 0, 65, 0
2, 26657, Note_on_c, 0, 69, 0
2, 26658, Note_on_c, 0, 65, 58
2, 26658, Note_on_c, 0, 68, 58
2, 26696, Note_on_c, 0, 65, 0
2, 26724, Note_on_c, 0, 68, 0
2, 26741, Note_on_c, 0, 65, 58
2, 26741, Note_on_c, 0, 67, 58
2, 26823, Note_on_c, 0, 67, 0
2, 26823, Note_on_c, 0, 65, 0
2, 26826, Note_on_c, 0, 66, 58
2, 26907, Note_on_c, 0, 66, 0
2, 26911, Note_on_c, 0, 65, 58
2, 26977, Note_on_c, 0, 65, 0
2, 26992, Note_on_c, 0, 74, 58
2, 26992, Note_on_c, 0, 83, 58
2, 26992, Note_on_c, 0, 86, 58
2, 26995, Note_on_c, 0, 37, 52
2, 26995, Note_on_c, 0, 49, 52
2, 27036, Note_on_c, 0, 56, 52
2, 27076, Note_on_c, 0, 49, 0
2, 27076, Note_on_c, 0, 37, 0
2, 27077, Note_on_c, 0, 59, 52
2, 27104, Note_on_c, 0, 56, 0
2, 27117, Note_on_c, 0, 74, 0
2, 27121, Note_on_c, 0, 62, 52
2, 27146, Note_on_c, 0, 59, 0
2, 27161, Note_on_c, 0, 74, 58
2, 27162, Note_on_c, 0, 61, 52
2, 27162, Note_on_c, 0, 71, 58
2, 27171, Note_on_c, 0, 83, 0
2, 27171, Note_on_c, 0, 86, 0
2, 27172, Note_on_c, 0, 62, 0
2, 27204, Note_on_c, 0, 60, 52
2, 27213, Note_on_c, 0, 61, 0
2, 27244, Note_on_c, 0, 59, 52
2, 27256, Note_on_c, 0, 60, 0
2, 27281, Note_on_c, 0, 74, 0
2, 27285, Note_on_c, 0, 58, 52
2, 27295, Note_on_c, 0, 59, 0
2, 27323, Note_on_c, 0, 83, 58
2, 27323, Note_on_c, 0, 86, 58
2, 27324, Note_on_c, 0, 74, 58
2, 27325, Note_on_c, 0, 57, 52
2, 27335, Note_on_c, 0, 58, 0
2, 27335, Note_on_c, 0, 71, 0
2, 27367, Note_on_c, 0, 56, 52
2, 27378, Note_on_c, 0, 57, 0
2, 27408, Note_on_c, 0, 55, 52
2, 27418, Note_on_c, 0, 56, 0
2, 27450, Note_on_c, 0, 54, 52
2, 27460, Note_on_c, 0, 55, 0
2, 27488, Note_on_c, 0, 53, 52
2, 27500, Note_on_c, 0, 54, 0
2, 27530, Note_on_c, 0, 52, 52
2, 27541, Note_on_c, 0, 53, 0
2, 27572, Note_on_c, 0, 51, 52
2, 27583, Note_on_c, 0, 52, 0
2, 27595, Note_on_c, 0, 83, 0
2, 27595, Note_on_c, 0, 86, 0
2, 27595, Note_on_c, 0, 74, 0
2, 27612, Note_on_c, 0, 50, 52
2, 27623, Note_on_c, 0, 51, 0
2, 27654, Note_on_c, 0, 72, 58
2, 27654, Note_on_c, 0, 75, 58
2, 27655, Note_on_c, 0, 49, 52
2, 27665, Note_on_c, 0, 50, 0
2, 27694, Note_on_c, 0, 49, 0
2, 27695, Note_on_c, 0, 57, 52
2, 27738, Note_on_c, 0, 60, 52
2, 27748, Note_on_c, 0, 57, 0
2, 27779, Note_on_c, 0, 63, 52
2, 27789, Note_on_c, 0, 60, 0
2, 27820, Note_on_c, 0, 62, 52
2, 27820, Note_on_c, 0, 69, 58
2, 27821, Note_on_c, 0, 66, 58
2, 27831, Note_on_c, 0, 63, 0
2, 27831, Note_on_c, 0, 75, 0
2, 27832, Note_on_c, 0, 72, 0
2, 27861, Note_on_c, 0, 61, 52
2, 27873, Note_on_c, 0, 62, 0
2, 27905, Note_on_c, 0, 60, 52
2, 27915, Note_on_c, 0, 61, 0
2, 27946, Note_on_c, 0, 59, 52
2, 27957, Note_on_c, 0, 60, 0
2, 27985, Note_on_c, 0, 72, 58
2, 27985, Note_on_c, 0, 75, 58
2, 27986, Note_on_c, 0, 58, 52
2, 27996, Note_on_c, 0, 69, 0
2, 27997, Note_on_c, 0, 59, 0
2, 27997, Note_on_c, 0, 66, 0
2, 28027, Note_on_c, 0, 57, 52
2, 28037, Note_on_c, 0, 58, 0
2, 28068, Note_on_c, 0, 56, 52
2, 28078, Note_on_c, 0, 57, 0
2, 28109, Note_on_c, 0, 55, 52
2, 28120, Note_on_c, 0, 56, 0
2, 28151, Note_on_c, 0, 54, 52
2, 28162, Note_on_c, 0, 55, 0
2, 28193, Note_on_c, 0, 53, 52
2, 28203, Note_on_c, 0, 54, 0
2, 28239, Note_on_c, 0, 52, 52
2, 28249, Note_on_c, 0, 53, 0
2, 28261, Note_on_c, 0, 75, 0
2, 28262, Note_on_c, 0, 72, 0
2, 28279, Note_on_c, 0, 51, 52
2, 28290, Note_on_c, 0, 52, 0
2, 28317, Note_on_c, 0, 51, 0
2, 28321, Note_on_c, 0, 55, 52
2, 28322, Note_on_c, 0, 37, 52
2, 28322, Note_on_c, 0, 49, 52
2, 28363, Note_on_c, 0, 58, 52
2, 28373, Note_on_c, 0, 55, 0
2, 28405, Note_on_c, 0, 61, 52
2, 28415, Note_on_c, 0, 58, 0
2, 28446, Note_on_c, 0, 64, 52
2, 28457, Note_on_c, 0, 61, 0
2, 28488, Note_on_c, 0, 63, 52
2, 28500, Note_on_c, 0, 64, 0
2, 28531, Note_on_c, 0, 62, 52
2, 28542, Note_on_c, 0, 63, 0
2, 28572, Note_on_c, 0, 61, 52
2, 28583, Note_on_c, 0, 62, 0
2, 28584, Note_on_c, 0, 49, 0
2, 28585, Note_on_c, 0, 37, 0
2, 28616, Note_on_c, 0, 60, 52
2, 28627, Note_on_c, 0, 61, 0
2, 28657, Note_on_c, 0, 67, 58
2, 28657, Note_on_c, 0, 70, 58
2, 28657, Note_on_c, 0, 73, 58
2, 28657, Note_on_c, 0, 76, 58
2, 28658, Note_on_c, 0, 59, 52
2, 28669, Note_on_c, 0, 60, 0
2, 28700, Note_on_c, 0, 58, 52
2, 28711, Note_on_c, 0, 59, 0
2, 28742, Note_on_c, 0, 57, 52
2, 28752, Note_on_c, 0, 58, 0
2, 28781, Note_on_c, 0, 56, 52
2, 28792, Note_on_c, 0, 57, 0
2, 28822, Note_on_c, 0, 55, 52
2, 28833, Note_on_c, 0, 56, 0
2, 28865, Note_on_c, 0, 54, 52
2, 28874, Note_on_c, 0, 55, 0
2, 28906, Note_on_c, 0, 53, 52
2, 28916, Note_on_c, 0, 67, 0
2, 28916, Note_on_c, 0, 70, 0
2, 28917, Note_on_c, 0, 76, 0
2, 28917, Note_on_c, 0, 73, 0
2, 28917, Note_on_c, 0, 54, 0
2, 28950, Note_on_c, 0, 52, 52
2, 28960, Note_on_c, 0, 53, 0
2, 28988, Note_on_c, 0, 52, 0
2, 28990, Note_on_c, 0, 51, 52
2, 29033, Note_on_c, 0, 50, 52
2, 29043, Note_on_c, 0, 51, 0
2, 29075, Note_on_c, 0, 49, 52
2, 29085, Note_on_c, 0, 50, 0
2, 29119, Note_on_c, 0, 48, 52
2, 29130, Note_on_c, 0, 49, 0
2, 29160, Note_on_c, 0, 47, 52
2, 29172, Note_on_c, 0, 48, 0
2, 29204, Note_on_c, 0, 46, 52
2, 29214, Note_on_c, 0, 47, 0
2, 29245, Note_on_c, 0, 45, 52
2, 29255, Note_on_c, 0, 46, 0
2, 29287, Note_on_c, 0, 44, 52
2, 29299, Note_on_c, 0, 45, 0
2, 29326, Note_on_c, 0, 44, 0
2, 29327, Note_on_c, 0, 56, 52
2, 29327, Note_on_c, 0, 59, 52
2, 29327, Note_on_c, 0, 65, 58
2, 29328, Note_on_c, 0, 43, 52
2, 29371, Note_on_c, 0, 42, 52
2, 29381, Note_on_c, 0, 43, 0
2, 29413, Note_on_c, 0, 41, 52
2, 29423, Note_on_c, 0, 42, 0
2, 29457, Note_on_c, 0, 40, 52
2, 29468, Note_on_c, 0, 41, 0
2, 29498, Note_on_c, 0, 39, 52
2, 29510, Note_on_c, 0, 40, 0
2, 29555, Note_on_c, 0, 38, 52
2, 29565, Note_on_c, 0, 39, 0
2, 29589, Note_on_c, 0, 65, 0
2, 29589, Note_on_c, 0, 56, 0
2, 29589, Note_on_c, 0, 59, 0
2, 29610, Note_on_c, 0, 37, 52
2, 29621, Note_on_c, 0, 38, 0
2, 29661, Note_on_c, 0, 66, 52
2, 29661, Note_on_c, 0, 78, 52
2, 29664, Note_on_c, 0, 42, 52
2, 29665, Note_on_c, 0, 30, 52
2, 29675, Note_on_c, 0, 37, 0
2, 29681, Control_c, 0, 64, 127
2, 29719, Note_on_c, 0, 49, 52
2, 29774, Note_on_c, 0, 54, 52
2, 29829, Note_on_c, 0, 73, 52
2, 29829, Note_on_c, 0, 85, 52
2, 29829, Note_on_c, 0, 57, 52
2, 29840, Note_on_c, 0, 49, 0
2, 29852, Note_on_c, 0, 78, 0
2, 29853, Note_on_c, 0, 66, 0
2, 29884, Note_on_c, 0, 61, 52
2, 29894, Note_on_c, 0, 54, 0
2, 29936, Note_on_c, 0, 57, 0
2, 29939, Note_on_c, 0, 66, 52
2, 29949, Note_on_c, 0, 85, 0
2, 29965, Note_on_c, 0, 61, 0
2, 29994, Note_on_c, 0, 85, 52
2, 29994, Note_on_c, 0, 90, 52
2, 29995, Note_on_c, 0, 69, 52
2, 29995, Note_on_c, 0, 78, 52
2, 30005, Note_on_c, 0, 66, 0
2, 30019, Note_on_c, 0, 73, 0
2, 30052, Note_on_c, 0, 66, 52
2, 30110, Note_on_c, 0, 61, 52
2, 30119, Note_on_c, 0, 69, 0
2, 30167, Note_on_c, 0, 57, 52
2, 30177, Note_on_c, 0, 66, 0
2, 30209, Control_c, 0, 64, 0
2, 30219, Note_on_c, 0, 61, 0
2, 30223, Note_on_c, 0, 54, 52
2, 30247, Note_on_c, 0, 57, 0
2, 30250, Note_on_c, 0, 77, 52
2, 30250, Note_on_c, 0, 89, 52
2, 30260, Note_on_c, 0, 90, 0
2, 30261, Note_on_c, 0, 78, 0
2, 30261, Note_on_c, 0, 85, 0
2, 30281, Note_on_c, 0, 49, 52
2, 30292, Note_on_c, 0, 42, 0
2, 30293, Note_on_c, 0, 30, 0
2, 30304, Note_on_c, 0, 54, 0
2, 30331, Note_on_c, 0, 89, 0
2, 30332, Note_on_c, 0, 77, 0
2, 30333, Note_on_c, 0, 49, 0
2, 30333, Note_on_c, 0, 83, 52
2, 30333, Note_on_c, 0, 88, 52
2, 30334, Note_on_c, 0, 76, 52
2, 30337, Note_on_c, 0, 42, 52
2, 30338, Note_on_c, 0, 30, 52
2, 30389, Note_on_c, 0, 53, 52
2, 30416, Note_on_c, 0, 75, 52
2, 30416, Note_on_c, 0, 87, 52
2, 30427, Note_on_c, 0, 88, 0
2, 30428, Note_on_c, 0, 76, 0
2, 30445, Note_on_c, 0, 56, 52
2, 30498, Note_on_c, 0, 74, 52
2, 30498, Note_on_c, 0, 80, 52
2, 30498, Note_on_c, 0, 86, 52
2, 30499, Note_on_c, 0, 59, 52
2, 30508, Note_on_c, 0, 87, 0
2, 30508, Note_on_c, 0, 83, 0
2, 30508, Note_on_c, 0, 75, 0
2, 30525, Note_on_c, 0, 53, 0
2, 30552, Note_on_c, 0, 56, 0
2, 30555, Note_on_c, 0, 62, 52
2, 30582, Note_on_c, 0, 73, 52
2, 30582, Note_on_c, 0, 85, 52
2, 30593, Note_on_c, 0, 74, 0
2, 30593, Note_on_c, 0, 86, 0
2, 30607, Note_on_c, 0, 59, 0
2, 30611, Note_on_c, 0, 65, 52
2, 30636, Note_on_c, 0, 62, 0
2, 30665, Note_on_c, 0, 72, 52
2, 30665, Note_on_c, 0, 77, 52
2, 30665, Note_on_c, 0, 84, 52
2, 30666, Note_on_c, 0, 68, 52
2, 30675, Note_on_c, 0, 85, 0
2, 30675, Note_on_c, 0, 80, 0
2, 30676, Note_on_c, 0, 65, 0
2, 30676, Note_on_c, 0, 73, 0
2, 30720, Note_on_c, 0, 65, 52
2, 30747, Note_on_c, 0, 83, 52
2, 30748, Note_on_c, 0, 71, 52
2, 30758, Note_on_c, 0, 84, 0
2, 30759, Note_on_c, 0, 72, 0
2, 30776, Note_on_c, 0, 62, 52
2, 30800, Note_on_c, 0, 68, 0
2, 30832, Note_on_c, 0, 69, 52
2, 30832, Note_on_c, 0, 74, 52
2, 30832, Note_on_c, 0, 81, 52
2, 30833, Note_on_c, 0, 59, 52
2, 30842, Note_on_c, 0, 71, 0
2, 30842, Note_on_c, 0, 83, 0
2, 30843, Note_on_c, 0, 77, 0
2, 30843, Note_on_c, 0, 65, 0
2, 30885, Note_on_c, 0, 62, 0
2, 30888, Note_on_c, 0, 56, 52
2, 30913, Note_on_c, 0, 59, 0
2, 30916, Note_on_c, 0, 68, 52
2, 30916, Note_on_c, 0, 80, 52
2, 30927, Note_on_c, 0, 69, 0
2, 30927, Note_on_c, 0, 81, 0
2, 30945, Note_on_c, 0, 53, 52
2, 30957, Note_on_c, 0, 42, 0
2, 30957, Note_on_c, 0, 30, 0
2, 30968, Note_on_c, 0, 56, 0
2, 30996, Note_on_c, 0, 53, 0
2, 30997, Note_on_c, 0, 69, 52
2, 30997, Note_on_c, 0, 78, 52
2, 30997, Note_on_c, 0, 81, 52
2, 31000, Note_on_c, 0, 42, 52
2, 31007, Note_on_c, 0, 80, 0
2, 31007, Note_on_c, 0, 74, 0
2, 31008, Note_on_c, 0, 68, 0
2, 31015, Control_c, 0, 64, 127
2, 31056, Note_on_c, 0, 49, 52
2, 31112, Note_on_c, 0, 54, 52
2, 31124, Note_on_c, 0, 42, 0
2, 31165, Note_on_c, 0, 85, 52
2, 31166, Note_on_c, 0, 49, 0
2, 31166, Note_on_c, 0, 73, 52
2, 31167, Note_on_c, 0, 57, 52
2, 31176, Note_on_c, 0, 78, 0
2, 31176, Note_on_c, 0, 81, 0
2, 31177, Note_on_c, 0, 69, 0
2, 31192, Note_on_c, 0, 54, 0
2, 31233, Note_on_c, 0, 57, 0
2, 31264, Control_c, 0, 64, 0
2, 31332, Note_on_c, 0, 86, 52
2, 31332, Note_on_c, 0, 90, 52
2, 31333, Note_on_c, 0, 78, 52
2, 31336, Note_on_c, 0, 38, 52
2, 31342, Note_on_c, 0, 85, 0
2, 31343, Note_on_c, 0, 73, 0
2, 31365, Control_c, 0, 64, 127
2, 31389, Note_on_c, 0, 45, 52
2, 31444, Note_on_c, 0, 50, 52
2, 31485, Note_on_c, 0, 38, 0
2, 31500, Note_on_c, 0, 54, 52
2, 31524, Note_on_c, 0, 45, 0
2, 31541, Note_on_c, 0, 57, 52
2, 31565, Note_on_c, 0, 50, 0
2, 31582, Note_on_c, 0, 62, 52
2, 31609, Note_on_c, 0, 54, 0
2, 31626, Note_on_c, 0, 66, 52
2, 31636, Note_on_c, 0, 57, 0
2, 31664, Note_on_c, 0, 62, 0
2, 31667, Note_on_c, 0, 69, 52
2, 31692, Note_on_c, 0, 66, 0
2, 31760, Note_on_c, 0, 90, 0
2, 31760, Note_on_c, 0, 86, 0
2, 31761, Note_on_c, 0, 78, 0
2, 31821, Control_c, 0, 64, 0
2, 31835, Note_on_c, 0, 66, 52
2, 31835, Note_on_c, 0, 78, 52
2, 31972, Note_on_c, 0, 78, 0
2, 31972, Note_on_c, 0, 66, 0
2, 31972, Note_on_c, 0, 69, 0
2, 32001, Note_on_c, 0, 89, 52
2, 32001, Note_on_c, 0, 92, 52
2, 32002, Note_on_c, 0, 80, 52
2, 32005, Note_on_c, 0, 38, 52
2, 32034, Control_c, 0, 64, 127
2, 32044, Note_on_c, 0, 50, 52
2, 32085, Note_on_c, 0, 53, 52
2, 32128, Note_on_c, 0, 56, 52
2, 32169, Note_on_c, 0, 59, 52
2, 32180, Note_on_c, 0, 50, 0
2, 32206, Note_on_c, 0, 53, 0
2, 32212, Note_on_c, 0, 62, 52
2, 32236, Note_on_c, 0, 56, 0
2, 32253, Note_on_c, 0, 65, 52
2, 32277, Note_on_c, 0, 59, 0
2, 32294, Note_on_c, 0, 68, 52
2, 32305, Note_on_c, 0, 62, 0
2, 32333, Note_on_c, 0, 65, 0
2, 32334, Note_on_c, 0, 71, 52
2, 32349, Note_on_c, 0, 38, 0
2, 32359, Note_on_c, 0, 68, 0
2, 32442, Note_on_c, 0, 92, 0
2, 32442, Note_on_c, 0, 89, 0
2, 32443, Note_on_c, 0, 80, 0
2, 32474, Control_c, 0, 64, 0
2, 32502, Note_on_c, 0, 78, 52
2, 32503, Note_on_c, 0, 66, 52
2, 32625, Note_on_c, 0, 78, 0
2, 32625, Note_on_c, 0, 71, 0
2, 32626, Note_on_c, 0, 66, 0
2, 32668, Note_on_c, 0, 90, 52
2, 32668, Note_on_c, 0, 93, 52
2, 32669, Note_on_c, 0, 81, 52
2, 32673, Note_on_c, 0, 38, 52
2, 32702, Control_c, 0, 64, 127
2, 32754, Note_on_c, 0, 50, 52
2, 32834, Note_on_c, 0, 54, 52
2, 32917, Note_on_c, 0, 57, 52
2, 32983, Note_on_c, 0, 50, 0
2, 33001, Note_on_c, 0, 60, 52
2, 33009, Note_on_c, 0, 93, 0
2, 33009, Note_on_c, 0, 90, 0
2, 33010, Note_on_c, 0, 81, 0
2, 33039, Note_on_c, 0, 54, 0
2, 33084, Note_on_c, 0, 62, 52
2, 33095, Note_on_c, 0, 57, 0
2, 33167, Note_on_c, 0, 66, 52
2, 33179, Note_on_c, 0, 60, 0
2, 33235, Note_on_c, 0, 62, 0
2, 33252, Note_on_c, 0, 69, 52
2, 33320, Note_on_c, 0, 66, 0
2, 33337, Note_on_c, 0, 72, 52
2, 33418, Note_on_c, 0, 69, 0
2, 33421, Note_on_c, 0, 74, 52
2, 33490, Note_on_c, 0, 72, 0
2, 33506, Note_on_c, 0, 78, 52
2, 33521, Note_on_c, 0, 38, 0
2, 33558, Note_on_c, 0, 74, 0
2, 33589, Note_on_c, 0, 81, 52
2, 33655, Note_on_c, 0, 78, 0
2, 33671, Note_on_c, 0, 84, 52
2, 33726, Note_on_c, 0, 81, 0
2, 33757, Note_on_c, 0, 86, 52
2, 33810, Note_on_c, 0, 84, 0
2, 33838, Note_on_c, 0, 90, 52
2, 33880, Note_on_c, 0, 86, 0
2, 33925, Note_on_c, 0, 93, 52
2, 33950, Note_on_c, 0, 90, 0
2, 34008, Note_on_c, 0, 96, 52
2, 34032, Note_on_c, 0, 93, 0
2, 34092, Note_on_c, 0, 102, 52
2, 34102, Note_on_c, 0, 96, 0
2, 34192, Control_c, 0, 64, 0
2, 34199, Note_on_c, 0, 102, 0
2, 34776, Note_on_c, 0, 66, 52
2, 34779, Note_on_c, 0, 37, 52
2, 34782, Control_c, 0, 64, 127
2, 34863, Note_on_c, 0, 58, 52
2, 34863, Note_on_c, 0, 61, 52
2, 34864, Note_on_c, 0, 49, 52
2, 34929, Note_on_c, 0, 61, 0
2, 34945, Note_on_c, 0, 70, 58
2, 34970, Note_on_c, 0, 66, 0
2, 34985, Note_on_c, 0, 58, 0
2, 34986, Note_on_c, 0, 49, 0
2, 35028, Note_on_c, 0, 61, 52
2, 35028, Note_on_c, 0, 66, 52
2, 35029, Note_on_c, 0, 49, 52
2, 35029, Note_on_c, 0, 58, 52
2, 35094, Note_on_c, 0, 66, 0
2, 35094, Note_on_c, 0, 61, 0
2, 35112, Note_on_c, 0, 73, 58
2, 35137, Note_on_c, 0, 70, 0
2, 35152, Note_on_c, 0, 58, 0
2, 35153, Note_on_c, 0, 49, 0
2, 35195, Note_on_c, 0, 70, 52
2, 35196, Note_on_c, 0, 58, 52
2, 35196, Note_on_c, 0, 66, 52
2, 35197, Note_on_c, 0, 49, 52
2, 35259, Note_on_c, 0, 70, 0
2, 35260, Note_on_c, 0, 66, 0
2, 35277, Note_on_c, 0, 75, 58
2, 35279, Control_c, 0, 64, 0
2, 35301, Note_on_c, 0, 73, 0
2, 35316, Note_on_c, 0, 58, 0
2, 35317, Note_on_c, 0, 49, 0
2, 35361, Note_on_c, 0, 70, 52
2, 35362, Note_on_c, 0, 58, 52
2, 35362, Note_on_c, 0, 66, 52
2, 35363, Note_on_c, 0, 49, 52
2, 35401, Note_on_c, 0, 37, 0
2, 35426, Note_on_c, 0, 66, 0
2, 35426, Note_on_c, 0, 70, 0
2, 35427, Note_on_c, 0, 49, 0
2, 35427, Note_on_c, 0, 58, 0
2, 35442, Note_on_c, 0, 77, 58
2, 35445, Note_on_c, 0, 37, 52
2, 35468, Note_on_c, 0, 75, 0
2, 35524, Note_on_c, 0, 78, 58
2, 35525, Note_on_c, 0, 58, 52
2, 35525, Note_on_c, 0, 61, 52
2, 35526, Note_on_c, 0, 49, 52
2, 35548, Note_on_c, 0, 77, 0
2, 35607, Note_on_c, 0, 77, 58
2, 35632, Note_on_c, 0, 78, 0
2, 35646, Note_on_c, 0, 61, 0
2, 35647, Note_on_c, 0, 58, 0
2, 35647, Note_on_c, 0, 49, 0
2, 35691, Note_on_c, 0, 75, 58
2, 35692, Note_on_c, 0, 58, 52
2, 35693, Note_on_c, 0, 49, 52
2, 35714, Note_on_c, 0, 77, 0
2, 35774, Note_on_c, 0, 73, 58
2, 35799, Note_on_c, 0, 75, 0
2, 35813, Note_on_c, 0, 58, 0
2, 35814, Note_on_c, 0, 49, 0
2, 35858, Note_on_c, 0, 70, 58
2, 35859, Note_on_c, 0, 58, 52
2, 35860, Note_on_c, 0, 49, 52
2, 35860, Note_on_c, 0, 54, 52
2, 35881, Note_on_c, 0, 73, 0
2, 35942, Note_on_c, 0, 68, 58
2, 35966, Note_on_c, 0, 70, 0
2, 35980, Note_on_c, 0, 58, 0
2, 35980, Note_on_c, 0, 54, 0
2, 35981, Note_on_c, 0, 49, 0
2, 36023, Note_on_c, 0, 70, 58
2, 36024, Note_on_c, 0, 49, 52
2, 36024, Note_on_c, 0, 58, 52
2, 36048, Note_on_c, 0, 68, 0
2, 36091, Note_on_c, 0, 58, 0
2, 36092, Note_on_c, 0, 37, 0
2, 36092, Note_on_c, 0, 49, 0
2, 36108, Note_on_c, 0, 66, 58
2, 36109, Note_on_c, 0, 39, 52
2, 36117, Note_on_c, 0, 70, 0
2, 36139, Control_c, 0, 64, 127
2, 36190, Note_on_c, 0, 51, 52
2, 36190, Note_on_c, 0, 58, 52
2, 36190, Note_on_c, 0, 61, 52
2, 36256, Note_on_c, 0, 61, 0
2, 36272, Note_on_c, 0, 70, 58
2, 36297, Note_on_c, 0, 66, 0
2, 36311, Note_on_c, 0, 58, 0
2, 36311, Note_on_c, 0, 51, 0
2, 36357, Note_on_c, 0, 61, 52
2, 36357, Note_on_c, 0, 66, 52
2, 36357, Note_on_c, 0, 51, 52
2, 36357, Note_on_c, 0, 58, 52
2, 36424, Note_on_c, 0, 66, 0
2, 36424, Note_on_c, 0, 61, 0
2, 36440, Note_on_c, 0, 73, 58
2, 36464, Note_on_c, 0, 70, 0
2, 36480, Note_on_c, 0, 58, 0
2, 36481, Note_on_c, 0, 51, 0
2, 36524, Note_on_c, 0, 70, 52
2, 36525, Note_on_c, 0, 58, 52
2, 36525, Note_on_c, 0, 66, 52
2, 36525, Note_on_c, 0, 51, 52
2, 36589, Note_on_c, 0, 66, 0
2, 36589, Note_on_c, 0, 70, 0
2, 36606, Note_on_c, 0, 75, 58
2, 36607, Control_c, 0, 64, 0
2, 36631, Note_on_c, 0, 73, 0
2, 36645, Note_on_c, 0, 51, 0
2, 36645, Note_on_c, 0, 58, 0
2, 36691, Note_on_c, 0, 70, 52
2, 36691, Note_on_c, 0, 73, 52
2, 36692, Note_on_c, 0, 51, 52
2, 36692, Note_on_c, 0, 58, 52
2, 36757, Note_on_c, 0, 73, 0
2, 36757, Note_on_c, 0, 70, 0
2, 36758, Note_on_c, 0, 51, 0
2, 36758, Note_on_c, 0, 58, 0
2, 36759, Note_on_c, 0, 39, 0
2, 36772, Note_on_c, 0, 77, 58
2, 36775, Note_on_c, 0, 44, 52
2, 36797, Note_on_c, 0, 75, 0
2, 36854, Note_on_c, 0, 80, 58
2, 36855, Note_on_c, 0, 56, 52
2, 36856, Note_on_c, 0, 54, 52
2, 36856, Note_on_c, 0, 60, 52
2, 36877, Note_on_c, 0, 77, 0
2, 36936, Note_on_c, 0, 77, 58
2, 36961, Note_on_c, 0, 80, 0
2, 36975, Note_on_c, 0, 56, 0
2, 36975, Note_on_c, 0, 60, 0
2, 36976, Note_on_c, 0, 54, 0
2, 37018, Note_on_c, 0, 56, 52
2, 37018, Note_on_c, 0, 75, 58
2, 37019, Note_on_c, 0, 54, 52
2, 37019, Note_on_c, 0, 60, 52
2, 37041, Note_on_c, 0, 77, 0
2, 37083, Note_on_c, 0, 56, 0
2, 37083, Note_on_c, 0, 54, 0
2, 37083, Note_on_c, 0, 60, 0
2, 37100, Note_on_c, 0, 73, 58
2, 37101, Note_on_c, 0, 49, 52
2, 37112, Note_on_c, 0, 44, 0
2, 37123, Note_on_c, 0, 75, 0
2, 37182, Note_on_c, 0, 56, 52
2, 37182, Note_on_c, 0, 61, 52
2, 37182, Note_on_c, 0, 65, 52
2, 37182, Note_on_c, 0, 68, 52
2, 37248, Note_on_c, 0, 68, 0
2, 37248, Note_on_c, 0, 61, 0
2, 37248, Note_on_c, 0, 65, 0
2, 37249, Note_on_c, 0, 56, 0
2, 37266, Note_on_c, 0, 71, 58
2, 37267, Note_on_c, 0, 51, 52
2, 37276, Note_on_c, 0, 73, 0
2, 37279, Note_on_c, 0, 49, 0
2, 37349, Note_on_c, 0, 70, 58
2, 37350, Note_on_c, 0, 55, 52
2, 37350, Note_on_c, 0, 61, 52
2, 37360, Note_on_c, 0, 71, 0
2, 37415, Note_on_c, 0, 61, 0
2, 37416, Note_on_c, 0, 51, 0
2, 37416, Note_on_c, 0, 55, 0
2, 37433, Note_on_c, 0, 68, 58
2, 37434, Note_on_c, 0, 44, 52
2, 37443, Note_on_c, 0, 70, 0
2, 37465, Control_c, 0, 64, 127
2, 37518, Note_on_c, 0, 51, 52
2, 37518, Note_on_c, 0, 56, 52
2, 37518, Note_on_c, 0, 59, 52
2, 37518, Note_on_c, 0, 63, 52
2, 37581, Note_on_c, 0, 63, 0
2, 37581, Note_on_c, 0, 59, 0
2, 37598, Note_on_c, 0, 75, 58
2, 37622, Note_on_c, 0, 68, 0
2, 37638, Note_on_c, 0, 56, 0
2, 37638, Note_on_c, 0, 51, 0
2, 37680, Note_on_c, 0, 68, 52
2, 37681, Note_on_c, 0, 51, 52
2, 37681, Note_on_c, 0, 59, 52
2, 37681, Note_on_c, 0, 63, 52
2, 37748, Note_on_c, 0, 63, 0
2, 37748, Note_on_c, 0, 51, 0
2, 37748, Note_on_c, 0, 68, 0
2, 37748, Note_on_c, 0, 59, 0
2, 37762, Note_on_c, 0, 80, 58
2, 37766, Note_on_c, 0, 47, 52
2, 37776, Note_on_c, 0, 44, 0
2, 37788, Note_on_c, 0, 75, 0
2, 37848, Note_on_c, 0, 56, 52
2, 37848, Note_on_c, 0, 63, 52
2, 37848, Note_on_c, 0, 68, 52
2, 37915, Note_on_c, 0, 68, 0
2, 37931, Note_on_c, 0, 75, 58
2, 37955, Note_on_c, 0, 80, 0
2, 37971, Note_on_c, 0, 63, 0
2, 37971, Note_on_c, 0, 56, 0
2, 38014, Note_on_c, 0, 68, 52
2, 38015, Note_on_c, 0, 56, 52
2, 38015, Note_on_c, 0, 63, 52
2, 38082, Note_on_c, 0, 63, 0
2, 38082, Note_on_c, 0, 68, 0
2, 38082, Note_on_c, 0, 56, 0
2, 38085, Control_c, 0, 64, 0
2, 38099, Note_on_c, 0, 78, 58
2, 38102, Note_on_c, 0, 46, 52
2, 38109, Note_on_c, 0, 75, 0
2, 38112, Note_on_c, 0, 47, 0
2, 38183, Note_on_c, 0, 77, 58
2, 38184, Note_on_c, 0, 56, 52
2, 38184, Note_on_c, 0, 62, 52
2, 38185, Note_on_c, 0, 58, 52
2, 38193, Note_on_c, 0, 78, 0
2, 38267, Note_on_c, 0, 75, 58
2, 38277, Note_on_c, 0, 77, 0
2, 38306, Note_on_c, 0, 62, 0
2, 38306, Note_on_c, 0, 56, 0
2, 38306, Note_on_c, 0, 58, 0
2, 38348, Note_on_c, 0, 74, 58
2, 38349, Note_on_c, 0, 56, 52
2, 38349, Note_on_c, 0, 62, 52
2, 38349, Note_on_c, 0, 58, 52
2, 38359, Note_on_c, 0, 75, 0
2, 38414, Note_on_c, 0, 62, 0
2, 38415, Note_on_c, 0, 56, 0
2, 38415, Note_on_c, 0, 58, 0
2, 38431, Note_on_c, 0, 75, 58
2, 38432, Note_on_c, 0, 51, 52
2, 38442, Note_on_c, 0, 74, 0
2, 38445, Note_on_c, 0, 46, 0
2, 38479, Control_c, 0, 64, 127
2, 38517, Note_on_c, 0, 58, 52
2, 38517, Note_on_c, 0, 63, 52
2, 38517, Note_on_c, 0, 66, 52
2, 38583, Note_on_c, 0, 66, 0
2, 38599, Note_on_c, 0, 70, 58
2, 38624, Note_on_c, 0, 75, 0
2, 38638, Note_on_c, 0, 63, 0
2, 38638, Note_on_c, 0, 58, 0
2, 38686, Note_on_c, 0, 58, 52
2, 38686, Note_on_c, 0, 63, 52
2, 38686, Note_on_c, 0, 66, 52
2, 38715, Control_c, 0, 64, 0
2, 38753, Note_on_c, 0, 66, 0
2, 38753, Note_on_c, 0, 58, 0
2, 38753, Note_on_c, 0, 63, 0
2, 38769, Note_on_c, 0, 73, 58
2, 38772, Note_on_c, 0, 46, 52
2, 38782, Note_on_c, 0, 51, 0
2, 38794, Note_on_c, 0, 70, 0
2, 38844, Control_c, 0, 64, 127
2, 38854, Note_on_c, 0, 53, 52
2, 38854, Note_on_c, 0, 58, 52
2, 38854, Note_on_c, 0, 61, 52
2, 38854, Note_on_c, 0, 65, 52
2, 38920, Note_on_c, 0, 65, 0
2, 38937, Note_on_c, 0, 70, 58
2, 38961, Note_on_c, 0, 73, 0
2, 38977, Note_on_c, 0, 61, 0
2, 38977, Note_on_c, 0, 58, 0
2, 38978, Note_on_c, 0, 53, 0
2, 39023, Note_on_c, 0, 53, 52
2, 39023, Note_on_c, 0, 58, 52
2, 39023, Note_on_c, 0, 61, 52
2, 39023, Note_on_c, 0, 65, 52
2, 39082, Control_c, 0, 64, 0
2, 39090, Note_on_c, 0, 65, 0
2, 39091, Note_on_c, 0, 58, 0
2, 39091, Note_on_c, 0, 53, 0
2, 39091, Note_on_c, 0, 61, 0
2, 39108, Note_on_c, 0, 73, 58
2, 39109, Note_on_c, 0, 51, 52
2, 39119, Note_on_c, 0, 46, 0
2, 39131, Note_on_c, 0, 70, 0
2, 39181, Control_c, 0, 64, 127
2, 39190, Note_on_c, 0, 58, 52
2, 39190, Note_on_c, 0, 61, 52
2, 39190, Note_on_c, 0, 66, 52
2, 39257, Note_on_c, 0, 66, 0
2, 39271, Note_on_c, 0, 70, 58
2, 39296, Note_on_c, 0, 73, 0
2, 39312, Note_on_c, 0, 61, 0
2, 39312, Note_on_c, 0, 58, 0
2, 39356, Note_on_c, 0, 58, 52
2, 39356, Note_on_c, 0, 61, 52
2, 39356, Note_on_c, 0, 66, 52
2, 39398, Control_c, 0, 64, 0
2, 39420, Note_on_c, 0, 66, 0
2, 39421, Note_on_c, 0, 58, 0
2, 39421, Note_on_c, 0, 61, 0
2, 39435, Note_on_c, 0, 73, 58
2, 39439, Note_on_c, 0, 41, 52
2, 39449, Note_on_c, 0, 51, 0
2, 39460, Note_on_c, 0, 70, 0
2, 39520, Note_on_c, 0, 72, 58
2, 39521, Note_on_c, 0, 53, 52
2, 39521, Note_on_c, 0, 57, 52
2, 39521, Note_on_c, 0, 63, 52
2, 39530, Note_on_c, 0, 73, 0
2, 39586, Note_on_c, 0, 63, 0
2, 39603, Note_on_c, 0, 70, 58
2, 39615, Note_on_c, 0, 72, 0
2, 39643, Note_on_c, 0, 57, 0
2, 39643, Note_on_c, 0, 53, 0
2, 39688, Note_on_c, 0, 69, 58
2, 39689, Note_on_c, 0, 53, 52
2, 39689, Note_on_c, 0, 60, 52
2, 39689, Note_on_c, 0, 63, 52
2, 39698, Note_on_c, 0, 70, 0
2, 39757, Note_on_c, 0, 60, 0
2, 39757, Note_on_c, 0, 53, 0
2, 39757, Note_on_c, 0, 63, 0
2, 39773, Note_on_c, 0, 70, 58
2, 39776, Note_on_c, 0, 46, 52
2, 39784, Note_on_c, 0, 69, 0
2, 39788, Note_on_c, 0, 41, 0
2, 39806, Control_c, 0, 64, 127
2, 39858, Note_on_c, 0, 61, 52
2, 39858, Note_on_c, 0, 65, 52
2, 39859, Note_on_c, 0, 53, 52
2, 39859, Note_on_c, 0, 58, 52
2, 39979, Note_on_c, 0, 65, 0
2, 39979, Note_on_c, 0, 61, 0
2, 39980, Note_on_c, 0, 53, 0
2, 39980, Note_on_c, 0, 58, 0
2, 40022, Note_on_c, 0, 53, 52
2, 40022, Note_on_c, 0, 58, 52
2, 40022, Note_on_c, 0, 61, 52
2, 40022, Note_on_c, 0, 65, 52
2, 40036, Control_c, 0, 64, 0
2, 40046, Note_on_c, 0, 70, 0
2, 40049, Note_on_c, 0, 46, 0
2, 40088, Note_on_c, 0, 61, 0
2, 40088, Note_on_c, 0, 58, 0
2, 40088, Note_on_c, 0, 65, 0
2, 40088, Note_on_c, 0, 53, 0
2, 40104, Note_on_c, 0, 73, 58
2, 40107, Note_on_c, 0, 37, 52
2, 40152, Control_c, 0, 64, 127
2, 40190, Note_on_c, 0, 68, 52
2, 40191, Note_on_c, 0, 53, 52
2, 40192, Note_on_c, 0, 44, 52
2, 40255, Note_on_c, 0, 68, 0
2, 40269, Note_on_c, 0, 80, 58
2, 40296, Note_on_c, 0, 73, 0
2, 40311, Note_on_c, 0, 53, 0
2, 40312, Note_on_c, 0, 44, 0
2, 40354, Note_on_c, 0, 68, 52
2, 40355, Note_on_c, 0, 53, 52
2, 40356, Note_on_c, 0, 44, 52
2, 40394, Note_on_c, 0, 37, 0
2, 40419, Note_on_c, 0, 68, 0
2, 40420, Note_on_c, 0, 53, 0
2, 40421, Note_on_c, 0, 44, 0
2, 40436, Note_on_c, 0, 73, 58
2, 40439, Note_on_c, 0, 37, 52
2, 40461, Note_on_c, 0, 80, 0
2, 40520, Note_on_c, 0, 68, 52
2, 40521, Note_on_c, 0, 44, 52
2, 40521, Note_on_c, 0, 53, 52
2, 40585, Note_on_c, 0, 68, 0
2, 40603, Note_on_c, 0, 80, 58
2, 40628, Note_on_c, 0, 73, 0
2, 40642, Note_on_c, 0, 53, 0
2, 40643, Note_on_c, 0, 44, 0
2, 40688, Note_on_c, 0, 53, 52
2, 40688, Note_on_c, 0, 68, 52
2, 40689, Note_on_c, 0, 44, 52
2, 40714, Note_on_c, 0, 37, 0
2, 40730, Control_c, 0, 64, 0
2, 40752, Note_on_c, 0, 68, 0
2, 40752, Note_on_c, 0, 53, 0
2, 40753, Note_on_c, 0, 44, 0
2, 40768, Note_on_c, 0, 73, 58
2, 40772, Note_on_c, 0, 37, 52
2, 40793, Note_on_c, 0, 80, 0
2, 40851, Note_on_c, 0, 75, 58
2, 40852, Note_on_c, 0, 44, 52
2, 40852, Note_on_c, 0, 53, 52
2, 40852, Note_on_c, 0, 56, 52
2, 40863, Note_on_c, 0, 73, 0
2, 40934, Note_on_c, 0, 73, 58
2, 40944, Note_on_c, 0, 75, 0
2, 40973, Note_on_c, 0, 53, 0
2, 40973, Note_on_c, 0, 56, 0
2, 40974, Note_on_c, 0, 44, 0
2, 41016, Note_on_c, 0, 53, 52
2, 41016, Note_on_c, 0, 72, 58
2, 41017, Note_on_c, 0, 44, 52
2, 41017, Note_on_c, 0, 56, 52
2, 41027, Note_on_c, 0, 73, 0
2, 41058, Note_on_c, 0, 37, 0
2, 41083, Note_on_c, 0, 53, 0
2, 41083, Note_on_c, 0, 56, 0
2, 41084, Note_on_c, 0, 44, 0
2, 41098, Note_on_c, 0, 70, 58
2, 41101, Note_on_c, 0, 37, 52
2, 41110, Note_on_c, 0, 72, 0
2, 41183, Note_on_c, 0, 68, 58
2, 41184, Note_on_c, 0, 44, 52
2, 41184, Note_on_c, 0, 51, 52
2, 41184, Note_on_c, 0, 54, 52
2, 41184, Note_on_c, 0, 60, 52
2, 41194, Note_on_c, 0, 70, 0
2, 41251, Note_on_c, 0, 54, 0
2, 41251, Note_on_c, 0, 60, 0
2, 41267, Note_on_c, 0, 70, 58
2, 41277, Note_on_c, 0, 68, 0
2, 41306, Note_on_c, 0, 51, 0
2, 41306, Note_on_c, 0, 44, 0
2, 41349, Note_on_c, 0, 72, 58
2, 41350, Note_on_c, 0, 44, 52
2, 41350, Note_on_c, 0, 51, 52
2, 41350, Note_on_c, 0, 54, 52
2, 41350, Note_on_c, 0, 60, 52
2, 41360, Note_on_c, 0, 70, 0
2, 41391, Note_on_c, 0, 37, 0
2, 41419, Note_on_c, 0, 54, 0
2, 41419, Note_on_c, 0, 51, 0
2, 41419, Note_on_c, 0, 44, 0
2, 41419, Note_on_c, 0, 60, 0
2, 41435, Note_on_c, 0, 73, 58
2, 41438, Note_on_c, 0, 37, 52
2, 41445, Note_on_c, 0, 72, 0
2, 41483, Control_c, 0, 64, 127
2, 41518, Note_on_c, 0, 68, 52
2, 41519, Note_on_c, 0, 53, 52
2, 41519, Note_on_c, 0, 61, 52
2, 41520, Note_on_c, 0, 44, 52
2, 41639, Note_on_c, 0, 61, 0
2, 41639, Note_on_c, 0, 53, 0
2, 41639, Note_on_c, 0, 68, 0
2, 41640, Note_on_c, 0, 44, 0
2, 41684, Note_on_c, 0, 53, 52
2, 41684, Note_on_c, 0, 61, 52
2, 41684, Note_on_c, 0, 68, 52
2, 41685, Note_on_c, 0, 44, 52
2, 41712, Control_c, 0, 64, 0
2, 41750, Note_on_c, 0, 44, 0
2, 41750, Note_on_c, 0, 61, 0
2, 41750, Note_on_c, 0, 53, 0
2, 41750, Note_on_c, 0, 68, 0
2, 41766, Note_on_c, 0, 80, 58
2, 41769, Note_on_c, 0, 38, 52
2, 41780, Note_on_c, 0, 37, 0
2, 41791, Note_on_c, 0, 73, 0
2, 41812, Control_c, 0, 64, 127
2, 41848, Note_on_c, 0, 72, 52
2, 41849, Note_on_c, 0, 44, 52
2, 41849, Note_on_c, 0, 56, 52
2, 41849, Note_on_c, 0, 66, 52
2, 41971, Note_on_c, 0, 66, 0
2, 41971, Note_on_c, 0, 44, 0
2, 41971, Note_on_c, 0, 72, 0
2, 41971, Note_on_c, 0, 56, 0
2, 42016, Note_on_c, 0, 72, 52
2, 42017, Note_on_c, 0, 44, 52
2, 42017, Note_on_c, 0, 56, 52
2, 42017, Note_on_c, 0, 66, 52
2, 42058, Control_c, 0, 64, 0
2, 42082, Note_on_c, 0, 72, 0
2, 42083, Note_on_c, 0, 56, 0
2, 42083, Note_on_c, 0, 66, 0
2, 42084, Note_on_c, 0, 44, 0
2, 42100, Note_on_c, 0, 73, 58
2, 42103, Note_on_c, 0, 37, 52
2, 42111, Note_on_c, 0, 80, 0
2, 42114, Note_on_c, 0, 38, 0
2, 42148, Control_c, 0, 64, 127
2, 42185, Note_on_c, 0, 53, 52
2, 42185, Note_on_c, 0, 61, 52
2, 42185, Note_on_c, 0, 68, 52
2, 42186, Note_on_c, 0, 44, 52
2, 42306, Note_on_c, 0, 68, 0
2, 42306, Note_on_c, 0, 61, 0
2, 42306, Note_on_c, 0, 53, 0
2, 42307, Note_on_c, 0, 44, 0
2, 42349, Note_on_c, 0, 68, 52
2, 42350, Note_on_c, 0, 44, 52
2, 42350, Note_on_c, 0, 53, 52
2, 42350, Note_on_c, 0, 61, 52
2, 42376, Control_c, 0, 64, 0
2, 42412, Note_on_c, 0, 61, 0
2, 42412, Note_on_c, 0, 68, 0
2, 42412, Note_on_c, 0, 53, 0
2, 42413, Note_on_c, 0, 44, 0
2, 42430, Note_on_c, 0, 47, 52
2, 42442, Note_on_c, 0, 37, 0
2, 42474, Control_c, 0, 64, 127
2, 42512, Note_on_c, 0, 53, 52
2, 42512, Note_on_c, 0, 61, 52
2, 42512, Note_on_c, 0, 68, 52
2, 42513, Note_on_c, 0, 49, 52
2, 42605, Note_on_c, 0, 73, 0
2, 42633, Note_on_c, 0, 68, 0
2, 42633, Note_on_c, 0, 61, 0
2, 42633, Note_on_c, 0, 53, 0
2, 42634, Note_on_c, 0, 49, 0
2, 42679, Note_on_c, 0, 49, 52
2, 42679, Note_on_c, 0, 53, 52
2, 42679, Note_on_c, 0, 61, 52
2, 42679, Note_on_c, 0, 68, 52
2, 42693, Control_c, 0, 64, 0
2, 42743, Note_on_c, 0, 68, 0
2, 42744, Note_on_c, 0, 53, 0
2, 42744, Note_on_c, 0, 61, 0
2, 42745, Note_on_c, 0, 49, 0
2, 42745, Note_on_c, 0, 47, 0
2, 42761, Note_on_c, 0, 57, 52
2, 42821, Control_c, 0, 64, 127
2, 42846, Note_on_c, 0, 45, 52
2, 42846, Note_on_c, 0, 52, 52
2, 42917, Note_on_c, 0, 33, 52
2, 42929, Note_on_c, 0, 64, 52
2, 42954, Note_on_c, 0, 52, 0
2, 42954, Note_on_c, 0, 57, 0
2, 42955, Note_on_c, 0, 45, 0
2, 43011, Note_on_c, 0, 73, 52
2, 43012, Note_on_c, 0, 69, 52
2, 43078, Note_on_c, 0, 69, 0
2, 43078, Note_on_c, 0, 73, 0
2, 43079, Note_on_c, 0, 64, 0
2, 43082, Note_on_c, 0, 33, 0
2, 43096, Note_on_c, 0, 57, 52
2, 43179, Note_on_c, 0, 45, 52
2, 43179, Note_on_c, 0, 52, 52
2, 43250, Note_on_c, 0, 33, 52
2, 43261, Note_on_c, 0, 64, 52
2, 43287, Note_on_c, 0, 52, 0
2, 43287, Note_on_c, 0, 57, 0
2, 43287, Note_on_c, 0, 45, 0
2, 43343, Note_on_c, 0, 73, 52
2, 43344, Note_on_c, 0, 69, 52
2, 43409, Note_on_c, 0, 69, 0
2, 43409, Note_on_c, 0, 73, 0
2, 43409, Note_on_c, 0, 64, 0
2, 43412, Note_on_c, 0, 33, 0
2, 43427, Note_on_c, 0, 57, 52
2, 43469, Control_c, 0, 64, 0
2, 43510, Note_on_c, 0, 69, 52
2, 43510, Note_on_c, 0, 73, 52
2, 43511, Note_on_c, 0, 59, 52
2, 43521, Note_on_c, 0, 57, 0
2, 43577, Note_on_c, 0, 69, 0
2, 43577, Note_on_c, 0, 73, 0
2, 43594, Note_on_c, 0, 57, 52
2, 43605, Note_on_c, 0, 59, 0
2, 43677, Note_on_c, 0, 56, 52
2, 43677, Note_on_c, 0, 69, 52
2, 43677, Note_on_c, 0, 73, 52
2, 43687, Note_on_c, 0, 57, 0
2, 43743, Note_on_c, 0, 73, 0
2, 43743, Note_on_c, 0, 69, 0
2, 43761, Note_on_c, 0, 54, 52
2, 43771, Note_on_c, 0, 56, 0
2, 43844, Note_on_c, 0, 74, 52
2, 43845, Note_on_c, 0, 53, 52
2, 43845, Note_on_c, 0, 69, 52
2, 43855, Note_on_c, 0, 54, 0
2, 43908, Note_on_c, 0, 74, 0
2, 43909, Note_on_c, 0, 69, 0
2, 43926, Note_on_c, 0, 54, 52
2, 43937, Note_on_c, 0, 53, 0
2, 44008, Note_on_c, 0, 65, 52
2, 44008, Note_on_c, 0, 71, 52
2, 44008, Note_on_c, 0, 74, 52
2, 44009, Note_on_c, 0, 56, 52
2, 44019, Note_on_c, 0, 54, 0
2, 44072, Note_on_c, 0, 74, 0
2, 44073, Note_on_c, 0, 65, 0
2, 44073, Note_on_c, 0, 71, 0
2, 44091, Note_on_c, 0, 57, 52
2, 44102, Note_on_c, 0, 56, 0
2, 44136, Control_c, 0, 64, 127
2, 44173, Note_on_c, 0, 69, 52
2, 44173, Note_on_c, 0, 73, 52
2, 44174, Note_on_c, 0, 52, 52
2, 44174, Note_on_c, 0, 64, 52
2, 44175, Note_on_c, 0, 45, 52
2, 44258, Note_on_c, 0, 33, 52
2, 44279, Note_on_c, 0, 73, 0
2, 44279, Note_on_c, 0, 69, 0
2, 44280, Note_on_c, 0, 64, 0
2, 44280, Note_on_c, 0, 52, 0
2, 44281, Note_on_c, 0, 45, 0
2, 44338, Note_on_c, 0, 69, 52
2, 44338, Note_on_c, 0, 73, 52
2, 44339, Note_on_c, 0, 64, 52
2, 44367, Control_c, 0, 64, 0
2, 44405, Note_on_c, 0, 73, 0
2, 44405, Note_on_c, 0, 69, 0
2, 44406, Note_on_c, 0, 64, 0
2, 44406, Note_on_c, 0, 57, 0
2, 44409, Note_on_c, 0, 33, 0
2, 44422, Note_on_c, 0, 61, 52
2, 44469, Control_c, 0, 64, 127
2, 44506, Note_on_c, 0, 65, 52
2, 44506, Note_on_c, 0, 69, 52
2, 44506, Note_on_c, 0, 73, 52
2, 44507, Note_on_c, 0, 50, 52
2, 44507, Note_on_c, 0, 57, 52
2, 44591, Note_on_c, 0, 38, 52
2, 44613, Note_on_c, 0, 57, 0
2, 44613, Note_on_c, 0, 73, 0
2, 44613, Note_on_c, 0, 65, 0
2, 44613, Note_on_c, 0, 69, 0
2, 44613, Note_on_c, 0, 50, 0
2, 44674, Note_on_c, 0, 65, 52
2, 44674, Note_on_c, 0, 69, 52
2, 44674, Note_on_c, 0, 73, 52
2, 44700, Control_c, 0, 64, 0
2, 44738, Note_on_c, 0, 73, 0
2, 44738, Note_on_c, 0, 69, 0
2, 44739, Note_on_c, 0, 65, 0
2, 44739, Note_on_c, 0, 61, 0
2, 44740, Note_on_c, 0, 38, 0
2, 44756, Note_on_c, 0, 57, 52
2, 44786, Control_c, 0, 64, 127
2, 44836, Note_on_c, 0, 73, 52
2, 44837, Note_on_c, 0, 64, 52
2, 44837, Note_on_c, 0, 69, 52
2, 44838, Note_on_c, 0, 45, 52
2, 44838, Note_on_c, 0, 52, 52
2, 44924, Note_on_c, 0, 33, 52
2, 44945, Note_on_c, 0, 69, 0
2, 44945, Note_on_c, 0, 64, 0
2, 44945, Note_on_c, 0, 73, 0
2, 44946, Note_on_c, 0, 52, 0
2, 44947, Note_on_c, 0, 45, 0
2, 45000, Note_on_c, 0, 73, 52
2, 45001, Note_on_c, 0, 64, 52
2, 45001, Note_on_c, 0, 69, 52
2, 45016, Control_c, 0, 64, 0
2, 45066, Note_on_c, 0, 69, 0
2, 45066, Note_on_c, 0, 73, 0
2, 45067, Note_on_c, 0, 64, 0
2, 45067, Note_on_c, 0, 57, 0
2, 45069, Note_on_c, 0, 33, 0
2, 45084, Note_on_c, 0, 61, 52
2, 45116, Control_c, 0, 64, 127
2, 45167, Note_on_c, 0, 65, 52
2, 45167, Note_on_c, 0, 69, 52
2, 45167, Note_on_c, 0, 73, 52
2, 45168, Note_on_c, 0, 49, 52
2, 45168, Note_on_c, 0, 57, 52
2, 45253, Note_on_c, 0, 37, 52
2, 45275, Note_on_c, 0, 57, 0
2, 45275, Note_on_c, 0, 69, 0
2, 45275, Note_on_c, 0, 65, 0
2, 45275, Note_on_c, 0, 73, 0
2, 45276, Note_on_c, 0, 49, 0
2, 45333, Note_on_c, 0, 65, 52
2, 45333, Note_on_c, 0, 69, 52
2, 45333, Note_on_c, 0, 73, 52
2, 45347, Control_c, 0, 64, 0
2, 45400, Note_on_c, 0, 73, 0
2, 45400, Note_on_c, 0, 65, 0
2, 45400, Note_on_c, 0, 69, 0
2, 45401, Note_on_c, 0, 61, 0
2, 45402, Note_on_c, 0, 37, 0
2, 45416, Note_on_c, 0, 75, 58
2, 45419, Note_on_c, 0, 42, 52
2, 45420, Note_on_c, 0, 30, 52
2, 45501, Note_on_c, 0, 58, 52
2, 45501, Note_on_c, 0, 61, 52
2, 45501, Note_on_c, 0, 66, 52
2, 45501, Note_on_c, 0, 49, 52
2, 45566, Note_on_c, 0, 66, 0
2, 45566, Note_on_c, 0, 61, 0
2, 45581, Note_on_c, 0, 73, 58
2, 45606, Note_on_c, 0, 75, 0
2, 45607, Note_on_c, 0, 49, 0
2, 45621, Note_on_c, 0, 58, 0
2, 45627, Control_c, 0, 64, 127
2, 45666, Note_on_c, 0, 58, 52
2, 45666, Note_on_c, 0, 61, 52
2, 45666, Note_on_c, 0, 66, 52
2, 45667, Note_on_c, 0, 49, 52
2, 45730, Note_on_c, 0, 66, 0
2, 45731, Note_on_c, 0, 58, 0
2, 45731, Note_on_c, 0, 61, 0
2, 45732, Note_on_c, 0, 49, 0
2, 45745, Note_on_c, 0, 70, 58
2, 45770, Note_on_c, 0, 73, 0
2, 45830, Note_on_c, 0, 49, 52
2, 45830, Note_on_c, 0, 58, 52
2, 45830, Note_on_c, 0, 61, 52
2, 45896, Note_on_c, 0, 61, 0
2, 45913, Note_on_c, 0, 66, 58
2, 45938, Note_on_c, 0, 70, 0
2, 45953, Note_on_c, 0, 58, 0
2, 45954, Note_on_c, 0, 49, 0
2, 45997, Note_on_c, 0, 58, 52
2, 45997, Note_on_c, 0, 61, 52
2, 45998, Note_on_c, 0, 49, 52
2, 46062, Note_on_c, 0, 61, 0
2, 46062, Note_on_c, 0, 58, 0
2, 46063, Note_on_c, 0, 42, 0
2, 46063, Note_on_c, 0, 49, 0
2, 46064, Note_on_c, 0, 30, 0
2, 46065, Control_c, 0, 64, 0
2, 46078, Note_on_c, 0, 65, 58
2, 46079, Note_on_c, 0, 44, 52
2, 46101, Note_on_c, 0, 66, 0
2, 46129, Note_on_c, 0, 65, 0
2, 46160, Note_on_c, 0, 62, 52
2, 46160, Note_on_c, 0, 66, 58
2, 46161, Note_on_c, 0, 53, 52
2, 46161, Note_on_c, 0, 59, 52
2, 46245, Note_on_c, 0, 67, 58
2, 46256, Note_on_c, 0, 66, 0
2, 46284, Note_on_c, 0, 59, 0
2, 46284, Note_on_c, 0, 53, 0
2, 46284, Note_on_c, 0, 62, 0
2, 46297, Note_on_c, 0, 67, 0
2, 46328, Note_on_c, 0, 53, 52
2, 46328, Note_on_c, 0, 59, 52
2, 46328, Note_on_c, 0, 62, 52
2, 46328, Note_on_c, 0, 68, 58
2, 46409, Note_on_c, 0, 69, 58
2, 46420, Note_on_c, 0, 68, 0
2, 46448, Note_on_c, 0, 62, 0
2, 46448, Note_on_c, 0, 59, 0
2, 46448, Note_on_c, 0, 53, 0
2, 46461, Note_on_c, 0, 69, 0
2, 46492, Note_on_c, 0, 70, 58
2, 46493, Note_on_c, 0, 53, 52
2, 46493, Note_on_c, 0, 59, 52
2, 46493, Note_on_c, 0, 62, 52
2, 46572, Note_on_c, 0, 71, 58
2, 46582, Note_on_c, 0, 70, 0
2, 46611, Note_on_c, 0, 62, 0
2, 46611, Note_on_c, 0, 59, 0
2, 46611, Note_on_c, 0, 53, 0
2, 46625, Note_on_c, 0, 71, 0
2, 46655, Note_on_c, 0, 53, 52
2, 46655, Note_on_c, 0, 59, 52
2, 46655, Note_on_c, 0, 62, 52
2, 46655, Note_on_c, 0, 72, 58
2, 46722, Note_on_c, 0, 59, 0
2, 46722, Note_on_c, 0, 53, 0
2, 46723, Note_on_c, 0, 44, 0
2, 46737, Note_on_c, 0, 75, 58
2, 46740, Note_on_c, 0, 46, 52
2, 46749, Note_on_c, 0, 62, 0
2, 46763, Note_on_c, 0, 72, 0
2, 46822, Note_on_c, 0, 61, 52
2, 46822, Note_on_c, 0, 66, 52
2, 46822, Note_on_c, 0, 70, 52
2, 46823, Note_on_c, 0, 49, 52
2, 46823, Note_on_c, 0, 54, 52
2, 46887, Note_on_c, 0, 70, 0
2, 46888, Note_on_c, 0, 66, 0
2, 46903, Note_on_c, 0, 73, 58
2, 46928, Note_on_c, 0, 75, 0
2, 46942, Note_on_c, 0, 61, 0
2, 46942, Note_on_c, 0, 54, 0
2, 46943, Note_on_c, 0, 49, 0
2, 46950, Control_c, 0, 64, 127
2, 46987, Note_on_c, 0, 70, 52
2, 46988, Note_on_c, 0, 54, 52
2, 46988, Note_on_c, 0, 61, 52
2, 46988, Note_on_c, 0, 66, 52
2, 47026, Note_on_c, 0, 70, 0
2, 47054, Note_on_c, 0, 66, 0
2, 47069, Note_on_c, 0, 70, 58
2, 47093, Note_on_c, 0, 73, 0
2, 47108, Note_on_c, 0, 61, 0
2, 47108, Note_on_c, 0, 54, 0
2, 47151, Note_on_c, 0, 61, 52
2, 47152, Note_on_c, 0, 54, 52
2, 47152, Note_on_c, 0, 58, 52
2, 47216, Note_on_c, 0, 61, 0
2, 47231, Note_on_c, 0, 66, 58
2, 47256, Note_on_c, 0, 70, 0
2, 47271, Note_on_c, 0, 58, 0
2, 47271, Note_on_c, 0, 54, 0
2, 47316, Note_on_c, 0, 58, 52
2, 47316, Note_on_c, 0, 61, 52
2, 47317, Note_on_c, 0, 54, 52
2, 47373, Control_c, 0, 64, 0
2, 47383, Note_on_c, 0, 54, 0
2, 47383, Note_on_c, 0, 58, 0
2, 47383, Note_on_c, 0, 61, 0
2, 47384, Note_on_c, 0, 46, 0
2, 47398, Note_on_c, 0, 65, 58
2, 47398, Note_on_c, 0, 77, 58
2, 47401, Note_on_c, 0, 48, 52
2, 47411, Note_on_c, 0, 66, 0
2, 47437, Note_on_c, 0, 77, 0
2, 47482, Note_on_c, 0, 53, 52
2, 47482, Note_on_c, 0, 57, 52
2, 47482, Note_on_c, 0, 63, 52
2, 47482, Note_on_c, 0, 66, 58
2, 47482, Note_on_c, 0, 77, 58
2, 47493, Note_on_c, 0, 65, 0
2, 47520, Note_on_c, 0, 77, 0
2, 47565, Note_on_c, 0, 67, 58
2, 47565, Note_on_c, 0, 77, 58
2, 47577, Note_on_c, 0, 66, 0
2, 47603, Note_on_c, 0, 77, 0
2, 47604, Note_on_c, 0, 63, 0
2, 47604, Note_on_c, 0, 57, 0
2, 47604, Note_on_c, 0, 53, 0
2, 47649, Note_on_c, 0, 53, 52
2, 47649, Note_on_c, 0, 63, 52
2, 47649, Note_on_c, 0, 68, 58
2, 47649, Note_on_c, 0, 77, 58
2, 47650, Note_on_c, 0, 57, 52
2, 47660, Note_on_c, 0, 67, 0
2, 47688, Note_on_c, 0, 77, 0
2, 47733, Note_on_c, 0, 77, 58
2, 47734, Note_on_c, 0, 69, 58
2, 47744, Note_on_c, 0, 68, 0
2, 47773, Note_on_c, 0, 63, 0
2, 47773, Note_on_c, 0, 77, 0
2, 47774, Note_on_c, 0, 53, 0
2, 47774, Note_on_c, 0, 57, 0
2, 47817, Note_on_c, 0, 70, 58
2, 47817, Note_on_c, 0, 77, 58
2, 47818, Note_on_c, 0, 53, 52
2, 47818, Note_on_c, 0, 57, 52
2, 47818, Note_on_c, 0, 63, 52
2, 47828, Note_on_c, 0, 69, 0
2, 47855, Note_on_c, 0, 77, 0
2, 47898, Note_on_c, 0, 71, 58
2, 47898, Note_on_c, 0, 77, 58
2, 47908, Note_on_c, 0, 70, 0
2, 47934, Note_on_c, 0, 77, 0
2, 47935, Note_on_c, 0, 63, 0
2, 47935, Note_on_c, 0, 53, 0
2, 47936, Note_on_c, 0, 57, 0
2, 47979, Note_on_c, 0, 72, 58
2, 47979, Note_on_c, 0, 77, 58
2, 47980, Note_on_c, 0, 53, 52
2, 47980, Note_on_c, 0, 57, 52
2, 47980, Note_on_c, 0, 63, 52
2, 47990, Note_on_c, 0, 71, 0
2, 48046, Note_on_c, 0, 57, 0
2, 48046, Note_on_c, 0, 72, 0
2, 48046, Note_on_c, 0, 77, 0
2, 48046, Note_on_c, 0, 53, 0
2, 48046, Note_on_c, 0, 63, 0
2, 48047, Note_on_c, 0, 48, 0
2, 48061, Note_on_c, 0, 78, 58
2, 48062, Note_on_c, 0, 75, 58
2, 48063, Note_on_c, 0, 46, 52
2, 48144, Note_on_c, 0, 69, 58
2, 48144, Note_on_c, 0, 72, 58
2, 48145, Note_on_c, 0, 66, 58
2, 48213, Note_on_c, 0, 72, 0
2, 48213, Note_on_c, 0, 69, 0
2, 48230, Note_on_c, 0, 65, 58
2, 48230, Note_on_c, 0, 73, 58
2, 48230, Note_on_c, 0, 77, 58
2, 48239, Note_on_c, 0, 75, 0
2, 48240, Note_on_c, 0, 78, 0
2, 48255, Note_on_c, 0, 66, 0
2, 48312, Note_on_c, 0, 70, 58
2, 48313, Note_on_c, 0, 61, 52
2, 48337, Note_on_c, 0, 65, 0
2, 48378, Note_on_c, 0, 70, 0
2, 48379, Note_on_c, 0, 61, 0
2, 48380, Note_on_c, 0, 46, 0
2, 48395, Note_on_c, 0, 65, 58
2, 48396, Note_on_c, 0, 37, 52
2, 48396, Note_on_c, 0, 49, 52
2, 48405, Note_on_c, 0, 73, 0
2, 48477, Note_on_c, 0, 71, 58
2, 48477, Note_on_c, 0, 75, 58
2, 48478, Note_on_c, 0, 63, 52
2, 48501, Note_on_c, 0, 77, 0
2, 48501, Note_on_c, 0, 65, 0
2, 48515, Note_on_c, 0, 63, 0
2, 48530, Note_on_c, 0, 71, 0
2, 48544, Note_on_c, 0, 75, 0
2, 48562, Note_on_c, 0, 63, 52
2, 48562, Note_on_c, 0, 65, 58
2, 48575, Note_on_c, 0, 71, 58
2, 48590, Note_on_c, 0, 75, 58
2, 48599, Note_on_c, 0, 65, 0
2, 48645, Note_on_c, 0, 77, 58
2, 48645, Note_on_c, 0, 65, 58
2, 48668, Note_on_c, 0, 75, 0
2, 48669, Note_on_c, 0, 63, 0
2, 48714, Note_on_c, 0, 49, 0
2, 48715, Note_on_c, 0, 37, 0
2, 48726, Note_on_c, 0, 63, 52
2, 48726, Note_on_c, 0, 75, 58
2, 48737, Note_on_c, 0, 71, 0
2, 48738, Note_on_c, 0, 65, 0
2, 48749, Note_on_c, 0, 77, 0
2, 48809, Note_on_c, 0, 70, 52
2, 48810, Note_on_c, 0, 61, 52
2, 48810, Note_on_c, 0, 66, 52
2, 48834, Note_on_c, 0, 63, 0
2, 48890, Note_on_c, 0, 73, 58
2, 48891, Note_on_c, 0, 58, 52
2, 48913, Note_on_c, 0, 70, 0
2, 48914, Note_on_c, 0, 66, 0
2, 48914, Note_on_c, 0, 75, 0
2, 48914, Note_on_c, 0, 61, 0
2, 48972, Note_on_c, 0, 70, 52
2, 48973, Note_on_c, 0, 66, 52
2, 48974, Note_on_c, 0, 49, 52
2, 48998, Note_on_c, 0, 58, 0
2, 49037, Note_on_c, 0, 66, 0
2, 49037, Note_on_c, 0, 70, 0
2, 49055, Note_on_c, 0, 63, 52
2, 49056, Note_on_c, 0, 44, 52
2, 49080, Note_on_c, 0, 49, 0
2, 49138, Note_on_c, 0, 53, 52
2, 49138, Note_on_c, 0, 71, 58
2, 49139, Note_on_c, 0, 49, 52
2, 49139, Note_on_c, 0, 61, 52
2, 49149, Note_on_c, 0, 73, 0
2, 49176, Note_on_c, 0, 71, 0
2, 49222, Note_on_c, 0, 71, 58
2, 49233, Note_on_c, 0, 63, 0
2, 49262, Note_on_c, 0, 61, 0
2, 49262, Note_on_c, 0, 53, 0
2, 49263, Note_on_c, 0, 49, 0
2, 49306, Note_on_c, 0, 53, 52
2, 49306, Note_on_c, 0, 61, 52
2, 49306, Note_on_c, 0, 73, 58
2, 49307, Note_on_c, 0, 49, 52
2, 49329, Note_on_c, 0, 71, 0
2, 49371, Note_on_c, 0, 73, 0
2, 49372, Note_on_c, 0, 61, 0
2, 49372, Note_on_c, 0, 44, 0
2, 49372, Note_on_c, 0, 53, 0
2, 49373, Note_on_c, 0, 49, 0
2, 49389, Note_on_c, 0, 71, 58
2, 49391, Note_on_c, 0, 46, 52
2, 49470, Note_on_c, 0, 70, 58
2, 49471, Note_on_c, 0, 61, 52
2, 49472, Note_on_c, 0, 54, 52
2, 49493, Note_on_c, 0, 71, 0
2, 49535, Note_on_c, 0, 61, 0
2, 49535, Note_on_c, 0, 54, 0
2, 49551, Note_on_c, 0, 63, 52
2, 49551, Note_on_c, 0, 68, 58
2, 49552, Note_on_c, 0, 47, 52
2, 49563, Note_on_c, 0, 46, 0
2, 49574, Note_on_c, 0, 70, 0
2, 49633, Note_on_c, 0, 70, 58
2, 49634, Note_on_c, 0, 59, 52
2, 49658, Note_on_c, 0, 68, 0
2, 49701, Note_on_c, 0, 59, 0
2, 49716, Note_on_c, 0, 66, 58
2, 49717, Note_on_c, 0, 49, 52
2, 49726, Note_on_c, 0, 70, 0
2, 49727, Note_on_c, 0, 63, 0
2, 49728, Note_on_c, 0, 47, 0
2, 49798, Note_on_c, 0, 61, 52
2, 49799, Note_on_c, 0, 58, 52
2, 49864, Note_on_c, 0, 58, 0
2, 49864, Note_on_c, 0, 61, 0
2, 49881, Note_on_c, 0, 65, 58
2, 49882, Note_on_c, 0, 37, 52
2, 49893, Note_on_c, 0, 49, 0
2, 49904, Note_on_c, 0, 66, 0
2, 49964, Note_on_c, 0, 59, 52
2, 49965, Note_on_c, 0, 56, 52
2, 50029, Note_on_c, 0, 56, 0
2, 50030, Note_on_c, 0, 59, 0
2, 50030, Note_on_c, 0, 65, 0
2, 50031, Note_on_c, 0, 37, 0
2, 50045, Note_on_c, 0, 75, 52
2, 50045, Note_on_c, 0, 87, 52
2, 50048, Note_on_c, 0, 30, 52
2, 50048, Note_on_c, 0, 42, 52
2, 50128, Note_on_c, 0, 78, 52
2, 50129, Note_on_c, 0, 61, 52
2, 50129, Note_on_c, 0, 82, 52
2, 50130, Note_on_c, 0, 49, 52
2, 50130, Note_on_c, 0, 54, 52
2, 50130, Note_on_c, 0, 58, 52
2, 50194, Note_on_c, 0, 82, 0
2, 50194, Note_on_c, 0, 78, 0
2, 50207, Note_on_c, 0, 87, 0
2, 50208, Note_on_c, 0, 75, 0
2, 50211, Note_on_c, 0, 85, 52
2, 50212, Note_on_c, 0, 73, 52
2, 50242, Control_c, 0, 64, 127
2, 50249, Note_on_c, 0, 61, 0
2, 50250, Note_on_c, 0, 54, 0
2, 50250, Note_on_c, 0, 58, 0
2, 50251, Note_on_c, 0, 49, 0
2, 50291, Note_on_c, 0, 78, 52
2, 50291, Note_on_c, 0, 82, 52
2, 50292, Note_on_c, 0, 54, 52
2, 50292, Note_on_c, 0, 58, 52
2, 50292, Note_on_c, 0, 61, 52
2, 50293, Note_on_c, 0, 49, 52
2, 50328, Note_on_c, 0, 82, 0
2, 50357, Note_on_c, 0, 78, 0
2, 50371, Note_on_c, 0, 73, 0
2, 50371, Note_on_c, 0, 85, 0
2, 50374, Note_on_c, 0, 70, 52
2, 50374, Note_on_c, 0, 82, 52
2, 50414, Note_on_c, 0, 58, 0
2, 50414, Note_on_c, 0, 61, 0
2, 50414, Note_on_c, 0, 54, 0
2, 50415, Note_on_c, 0, 49, 0
2, 50457, Note_on_c, 0, 61, 52
2, 50457, Note_on_c, 0, 78, 52
2, 50458, Note_on_c, 0, 49, 52
2, 50458, Note_on_c, 0, 54, 52
2, 50458, Note_on_c, 0, 58, 52
2, 50493, Note_on_c, 0, 78, 0
2, 50534, Note_on_c, 0, 70, 0
2, 50535, Note_on_c, 0, 82, 0
2, 50538, Note_on_c, 0, 78, 52
2, 50539, Note_on_c, 0, 66, 52
2, 50575, Note_on_c, 0, 61, 0
2, 50576, Note_on_c, 0, 58, 0
2, 50576, Note_on_c, 0, 54, 0
2, 50577, Note_on_c, 0, 49, 0
2, 50619, Note_on_c, 0, 61, 52
2, 50619, Note_on_c, 0, 73, 52
2, 50620, Note_on_c, 0, 49, 52
2, 50620, Note_on_c, 0, 54, 52
2, 50620, Note_on_c, 0, 58, 52
2, 50685, Note_on_c, 0, 58, 0
2, 50685, Note_on_c, 0, 54, 0
2, 50685, Note_on_c, 0, 73, 0
2, 50685, Note_on_c, 0, 61, 0
2, 50686, Note_on_c, 0, 42, 0
2, 50686, Note_on_c, 0, 49, 0
2, 50687, Note_on_c, 0, 30, 0
2, 50688, Control_c, 0, 64, 0
2, 50698, Note_on_c, 0, 78, 0
2, 50698, Note_on_c, 0, 66, 0
2, 50702, Note_on_c, 0, 53, 52
2, 50702, Note_on_c, 0, 59, 52
2, 50702, Note_on_c, 0, 65, 52
2, 50702, Note_on_c, 0, 74, 52
2, 50702, Note_on_c, 0, 77, 52
2, 50703, Note_on_c, 0, 44, 52
2, 50716, Note_on_c, 0, 50, 52
2, 50740, Note_on_c, 0, 77, 0
2, 50740, Note_on_c, 0, 74, 0
2, 50740, Note_on_c, 0, 59, 0
2, 50785, Note_on_c, 0, 59, 52
2, 50785, Note_on_c, 0, 62, 52
2, 50785, Note_on_c, 0, 66, 52
2, 50785, Note_on_c, 0, 74, 52
2, 50785, Note_on_c, 0, 77, 52
2, 50786, Note_on_c, 0, 54, 52
2, 50796, Note_on_c, 0, 65, 0
2, 50797, Note_on_c, 0, 53, 0
2, 50823, Note_on_c, 0, 77, 0
2, 50823, Note_on_c, 0, 74, 0
2, 50823, Note_on_c, 0, 59, 0
2, 50823, Note_on_c, 0, 62, 0
2, 50866, Note_on_c, 0, 62, 52
2, 50866, Note_on_c, 0, 67, 52
2, 50866, Note_on_c, 0, 74, 52
2, 50866, Note_on_c, 0, 77, 52
2, 50867, Note_on_c, 0, 55, 52
2, 50867, Note_on_c, 0, 59, 52
2, 50877, Note_on_c, 0, 66, 0
2, 50877, Note_on_c, 0, 54, 0
2, 50906, Note_on_c, 0, 62, 0
2, 50906, Note_on_c, 0, 77, 0
2, 50906, Note_on_c, 0, 59, 0
2, 50906, Note_on_c, 0, 74, 0
2, 50950, Note_on_c, 0, 68, 52
2, 50950, Note_on_c, 0, 74, 52
2, 50950, Note_on_c, 0, 77, 52
2, 50951, Note_on_c, 0, 56, 52
2, 50951, Note_on_c, 0, 59, 52
2, 50951, Note_on_c, 0, 62, 52
2, 50961, Note_on_c, 0, 67, 0
2, 50962, Note_on_c, 0, 55, 0
2, 50987, Note_on_c, 0, 77, 0
2, 50988, Note_on_c, 0, 59, 0
2, 50988, Note_on_c, 0, 62, 0
2, 50988, Note_on_c, 0, 74, 0
2, 51031, Note_on_c, 0, 69, 52
2, 51031, Note_on_c, 0, 74, 52
2, 51031, Note_on_c, 0, 77, 52
2, 51032, Note_on_c, 0, 57, 52
2, 51042, Note_on_c, 0, 68, 0
2, 51043, Note_on_c, 0, 56, 0
2, 51043, Note_on_c, 0, 50, 0
2, 51044, Note_on_c, 0, 44, 0
2, 51069, Note_on_c, 0, 74, 0
2, 51069, Note_on_c, 0, 77, 0
2, 51113, Note_on_c, 0, 74, 52
2, 51114, Note_on_c, 0, 58, 52
2, 51114, Note_on_c, 0, 70, 52
2, 51114, Note_on_c, 0, 77, 52
2, 51124, Note_on_c, 0, 57, 0
2, 51124, Note_on_c, 0, 69, 0
2, 51150, Note_on_c, 0, 74, 0
2, 51151, Note_on_c, 0, 77, 0
2, 51195, Note_on_c, 0, 71, 52
2, 51195, Note_on_c, 0, 74, 52
2, 51195, Note_on_c, 0, 77, 52
2, 51196, Note_on_c, 0, 59, 52
2, 51206, Note_on_c, 0, 70, 0
2, 51207, Note_on_c, 0, 58, 0
2, 51232, Note_on_c, 0, 77, 0
2, 51232, Note_on_c, 0, 74, 0
2, 51276, Note_on_c, 0, 72, 52
2, 51276, Note_on_c, 0, 77, 52
2, 51277, Note_on_c, 0, 60, 52
2, 51286, Note_on_c, 0, 71, 0
2, 51287, Note_on_c, 0, 59, 0
2, 51341, Note_on_c, 0, 77, 0
2, 51341, Note_on_c, 0, 72, 0
2, 51342, Note_on_c, 0, 60, 0
2, 51357, Note_on_c, 0, 75, 52
2, 51357, Note_on_c, 0, 87, 52
2, 51359, Note_on_c, 0, 46, 52
2, 51360, Note_on_c, 0, 34, 52
2, 51439, Note_on_c, 0, 78, 52
2, 51439, Note_on_c, 0, 82, 52
2, 51440, Note_on_c, 0, 54, 52
2, 51440, Note_on_c, 0, 58, 52
2, 51440, Note_on_c, 0, 61, 52
2, 51441, Note_on_c, 0, 49, 52
2, 51504, Note_on_c, 0, 82, 0
2, 51504, Note_on_c, 0, 78, 0
2, 51519, Note_on_c, 0, 87, 0
2, 51519, Note_on_c, 0, 75, 0
2, 51522, Note_on_c, 0, 85, 52
2, 51523, Note_on_c, 0, 73, 52
2, 51554, Control_c, 0, 64, 127
2, 51561, Note_on_c, 0, 61, 0
2, 51561, Note_on_c, 0, 58, 0
2, 51562, Note_on_c, 0, 54, 0
2, 51562, Note_on_c, 0, 49, 0
2, 51605, Note_on_c, 0, 78, 52
2, 51605, Note_on_c, 0, 82, 52
2, 51606, Note_on_c, 0, 58, 52
2, 51606, Note_on_c, 0, 61, 52
2, 51607, Note_on_c, 0, 49, 52
2, 51607, Note_on_c, 0, 54, 52
2, 51644, Note_on_c, 0, 82, 0
2, 51671, Note_on_c, 0, 78, 0
2, 51685, Note_on_c, 0, 85, 0
2, 51685, Note_on_c, 0, 73, 0
2, 51689, Note_on_c, 0, 70, 52
2, 51689, Note_on_c, 0, 82, 52
2, 51727, Note_on_c, 0, 58, 0
2, 51728, Note_on_c, 0, 49, 0
2, 51728, Note_on_c, 0, 61, 0
2, 51728, Note_on_c, 0, 54, 0
2, 51771, Note_on_c, 0, 61, 52
2, 51771, Note_on_c, 0, 78, 52
2, 51772, Note_on_c, 0, 49, 52
2, 51772, Note_on_c, 0, 54, 52
2, 51772, Note_on_c, 0, 58, 52
2, 51808, Note_on_c, 0, 78, 0
2, 51850, Note_on_c, 0, 82, 0
2, 51850, Note_on_c, 0, 70, 0
2, 51851, Note_on_c, 0, 66, 52
2, 51851, Note_on_c, 0, 78, 52
2, 51889, Note_on_c, 0, 61, 0
2, 51890, Note_on_c, 0, 58, 0
2, 51890, Note_on_c, 0, 54, 0
2, 51890, Note_on_c, 0, 49, 0
2, 51933, Note_on_c, 0, 73, 52
2, 51933, Note_on_c, 0, 58, 52
2, 51933, Note_on_c, 0, 61, 52
2, 51934, Note_on_c, 0, 49, 52
2, 51934, Note_on_c, 0, 54, 52
2, 51945, Note_on_c, 0, 46, 0
2, 51946, Note_on_c, 0, 34, 0
2, 52000, Note_on_c, 0, 54, 0
2, 52000, Note_on_c, 0, 58, 0
2, 52000, Note_on_c, 0, 73, 0
2, 52000, Note_on_c, 0, 61, 0
2, 52001, Note_on_c, 0, 49, 0
2, 52004, Control_c, 0, 64, 0
2, 52013, Note_on_c, 0, 66, 0
2, 52013, Note_on_c, 0, 78, 0
2, 52016, Note_on_c, 0, 65, 52
2, 52016, Note_on_c, 0, 69, 52
2, 52016, Note_on_c, 0, 75, 52
2, 52016, Note_on_c, 0, 77, 52
2, 52017, Note_on_c, 0, 48, 52
2, 52018, Note_on_c, 0, 36, 52
2, 52053, Note_on_c, 0, 77, 0
2, 52054, Note_on_c, 0, 65, 0
2, 52080, Note_on_c, 0, 69, 0
2, 52080, Note_on_c, 0, 75, 0
2, 52098, Note_on_c, 0, 70, 52
2, 52098, Note_on_c, 0, 77, 52
2, 52098, Note_on_c, 0, 81, 52
2, 52099, Note_on_c, 0, 58, 52
2, 52099, Note_on_c, 0, 63, 52
2, 52099, Note_on_c, 0, 65, 52
2, 52137, Note_on_c, 0, 65, 0
2, 52137, Note_on_c, 0, 63, 0
2, 52137, Note_on_c, 0, 77, 0
2, 52137, Note_on_c, 0, 81, 0
2, 52165, Note_on_c, 0, 70, 0
2, 52166, Note_on_c, 0, 58, 0
2, 52180, Note_on_c, 0, 77, 52
2, 52180, Note_on_c, 0, 81, 52
2, 52181, Note_on_c, 0, 59, 52
2, 52181, Note_on_c, 0, 63, 52
2, 52181, Note_on_c, 0, 65, 52
2, 52181, Note_on_c, 0, 71, 52
2, 52218, Note_on_c, 0, 81, 0
2, 52219, Note_on_c, 0, 77, 0
2, 52219, Note_on_c, 0, 65, 0
2, 52220, Note_on_c, 0, 63, 0
2, 52245, Note_on_c, 0, 71, 0
2, 52246, Note_on_c, 0, 59, 0
2, 52262, Note_on_c, 0, 77, 52
2, 52262, Note_on_c, 0, 81, 52
2, 52263, Note_on_c, 0, 63, 52
2, 52263, Note_on_c, 0, 65, 52
2, 52263, Note_on_c, 0, 72, 52
2, 52264, Note_on_c, 0, 60, 52
2, 52299, Note_on_c, 0, 81, 0
2, 52299, Note_on_c, 0, 77, 0
2, 52300, Note_on_c, 0, 63, 0
2, 52300, Note_on_c, 0, 65, 0
2, 52329, Note_on_c, 0, 72, 0
2, 52329, Note_on_c, 0, 60, 0
2, 52344, Note_on_c, 0, 69, 52
2, 52344, Note_on_c, 0, 73, 52
2, 52344, Note_on_c, 0, 77, 52
2, 52344, Note_on_c, 0, 81, 52
2, 52345, Note_on_c, 0, 61, 52
2, 52345, Note_on_c, 0, 65, 52
2, 52357, Note_on_c, 0, 48, 0
2, 52358, Note_on_c, 0, 36, 0
2, 52382, Note_on_c, 0, 81, 0
2, 52383, Note_on_c, 0, 65, 0
2, 52383, Note_on_c, 0, 77, 0
2, 52383, Note_on_c, 0, 69, 0
2, 52411, Note_on_c, 0, 73, 0
2, 52412, Note_on_c, 0, 61, 0
2, 52427, Note_on_c, 0, 74, 52
2, 52427, Note_on_c, 0, 77, 52
2, 52427, Note_on_c, 0, 81, 52
2, 52428, Note_on_c, 0, 62, 52
2, 52428, Note_on_c, 0, 65, 52
2, 52428, Note_on_c, 0, 69, 52
2, 52464, Note_on_c, 0, 81, 0
2, 52464, Note_on_c, 0, 77, 0
2, 52465, Note_on_c, 0, 65, 0
2, 52465, Note_on_c, 0, 69, 0
2, 52493, Note_on_c, 0, 74, 0
2, 52494, Note_on_c, 0, 62, 0
2, 52509, Note_on_c, 0, 65, 52
2, 52509, Note_on_c, 0, 69, 52
2, 52509, Note_on_c, 0, 75, 52
2, 52509, Note_on_c, 0, 77, 52
2, 52509, Note_on_c, 0, 81, 52
2, 52510, Note_on_c, 0, 63, 52
2, 52547, Note_on_c, 0, 81, 0
2, 52575, Note_on_c, 0, 69, 0
2, 52575, Note_on_c, 0, 75, 0
2, 52575, Note_on_c, 0, 65, 0
2, 52575, Note_on_c, 0, 63, 0
2, 52575, Note_on_c, 0, 77, 0
2, 52590, Note_on_c, 0, 76, 52
2, 52590, Note_on_c, 0, 81, 52
2, 52591, Note_on_c, 0, 64, 52
2, 52654, Note_on_c, 0, 81, 0
2, 52655, Note_on_c, 0, 64, 0
2, 52655, Note_on_c, 0, 76, 0
2, 52671, Note_on_c, 0, 90, 58
2, 52672, Note_on_c, 0, 66, 58
2, 52672, Note_on_c, 0, 78, 58
2, 52754, Note_on_c, 0, 82, 52
2, 52754, Note_on_c, 0, 85, 52
2, 52755, Note_on_c, 0, 61, 52
2, 52756, Note_on_c, 0, 58, 52
2, 52803, Note_on_c, 0, 85, 0
2, 52804, Note_on_c, 0, 82, 0
2, 52832, Note_on_c, 0, 90, 0
2, 52833, Note_on_c, 0, 66, 0
2, 52833, Note_on_c, 0, 78, 0
2, 52836, Note_on_c, 0, 77, 58
2, 52836, Note_on_c, 0, 89, 58
2, 52837, Note_on_c, 0, 65, 58
2, 52875, Note_on_c, 0, 61, 0
2, 52875, Note_on_c, 0, 58, 0
2, 52918, Note_on_c, 0, 85, 52
2, 52919, Note_on_c, 0, 82, 52
2, 52920, Note_on_c, 0, 58, 52
2, 52920, Note_on_c, 0, 61, 52
2, 52959, Note_on_c, 0, 65, 0
2, 52985, Note_on_c, 0, 82, 0
2, 52985, Note_on_c, 0, 85, 0
2, 52986, Note_on_c, 0, 58, 0
2, 52986, Note_on_c, 0, 61, 0
2, 52997, Note_on_c, 0, 89, 0
2, 52998, Note_on_c, 0, 77, 0
2, 53002, Note_on_c, 0, 65, 58
2, 53003, Note_on_c, 0, 49, 52
2, 53004, Note_on_c, 0, 37, 52
2, 53019, Control_c, 0, 64, 127
2, 53084, Note_on_c, 0, 71, 58
2, 53084, Note_on_c, 0, 75, 58
2, 53085, Note_on_c, 0, 63, 52
2, 53121, Note_on_c, 0, 63, 0
2, 53121, Note_on_c, 0, 65, 0
2, 53134, Note_on_c, 0, 71, 0
2, 53134, Note_on_c, 0, 75, 0
2, 53166, Note_on_c, 0, 65, 58
2, 53167, Note_on_c, 0, 63, 52
2, 53179, Note_on_c, 0, 71, 58
2, 53193, Note_on_c, 0, 75, 58
2, 53204, Note_on_c, 0, 65, 0
2, 53250, Note_on_c, 0, 77, 58
2, 53251, Note_on_c, 0, 65, 58
2, 53265, Control_c, 0, 64, 0
2, 53273, Note_on_c, 0, 75, 0
2, 53274, Note_on_c, 0, 63, 0
2, 53318, Note_on_c, 0, 49, 0
2, 53318, Note_on_c, 0, 37, 0
2, 53332, Note_on_c, 0, 63, 52
2, 53332, Note_on_c, 0, 75, 58
2, 53342, Note_on_c, 0, 77, 0
2, 53342, Note_on_c, 0, 71, 0
2, 53343, Note_on_c, 0, 65, 0
2, 53412, Note_on_c, 0, 66, 52
2, 53412, Note_on_c, 0, 70, 52
2, 53413, Note_on_c, 0, 61, 52
2, 53437, Note_on_c, 0, 63, 0
2, 53493, Note_on_c, 0, 73, 58
2, 53494, Note_on_c, 0, 58, 52
2, 53517, Note_on_c, 0, 70, 0
2, 53517, Note_on_c, 0, 75, 0
2, 53517, Note_on_c, 0, 66, 0
2, 53518, Note_on_c, 0, 61, 0
2, 53575, Note_on_c, 0, 70, 52
2, 53576, Note_on_c, 0, 66, 52
2, 53577, Note_on_c, 0, 49, 52
2, 53598, Note_on_c, 0, 58, 0
2, 53640, Note_on_c, 0, 66, 0
2, 53640, Note_on_c, 0, 70, 0
2, 53641, Note_on_c, 0, 49, 0
2, 53657, Note_on_c, 0, 63, 52
2, 53658, Note_on_c, 0, 44, 52
2, 53709, Note_on_c, 0, 73, 0
2, 53740, Note_on_c, 0, 53, 52
2, 53740, Note_on_c, 0, 61, 52
2, 53740, Note_on_c, 0, 71, 58
2, 53741, Note_on_c, 0, 49, 52
2, 53778, Note_on_c, 0, 71, 0
2, 53822, Note_on_c, 0, 65, 58
2, 53822, Note_on_c, 0, 71, 58
2, 53833, Note_on_c, 0, 63, 0
2, 53861, Note_on_c, 0, 61, 0
2, 53862, Note_on_c, 0, 53, 0
2, 53862, Note_on_c, 0, 49, 0
2, 53905, Note_on_c, 0, 73, 58
2, 53906, Note_on_c, 0, 53, 52
2, 53906, Note_on_c, 0, 61, 52
2, 53907, Note_on_c, 0, 49, 52
2, 53917, Note_on_c, 0, 71, 0
2, 53956, Note_on_c, 0, 73, 0
2, 53972, Note_on_c, 0, 53, 0
2, 53972, Note_on_c, 0, 61, 0
2, 53973, Note_on_c, 0, 44, 0
2, 53973, Note_on_c, 0, 49, 0
2, 53987, Note_on_c, 0, 71, 58
2, 53988, Note_on_c, 0, 66, 58
2, 53989, Note_on_c, 0, 46, 52
2, 53998, Note_on_c, 0, 65, 0
2, 54069, Note_on_c, 0, 70, 58
2, 54070, Note_on_c, 0, 61, 52
2, 54071, Note_on_c, 0, 54, 52
2, 54093, Note_on_c, 0, 71, 0
2, 54137, Note_on_c, 0, 61, 0
2, 54137, Note_on_c, 0, 54, 0
2, 54152, Note_on_c, 0, 63, 52
2, 54152, Note_on_c, 0, 68, 58
2, 54155, Note_on_c, 0, 47, 52
2, 54163, Note_on_c, 0, 66, 0
2, 54165, Note_on_c, 0, 46, 0
2, 54176, Note_on_c, 0, 70, 0
2, 54235, Note_on_c, 0, 70, 58
2, 54236, Note_on_c, 0, 59, 52
2, 54260, Note_on_c, 0, 68, 0
2, 54300, Note_on_c, 0, 59, 0
2, 54317, Note_on_c, 0, 66, 58
2, 54318, Note_on_c, 0, 49, 52
2, 54326, Note_on_c, 0, 70, 0
2, 54327, Note_on_c, 0, 63, 0
2, 54328, Note_on_c, 0, 47, 0
2, 54400, Note_on_c, 0, 58, 52
2, 54400, Note_on_c, 0, 61, 52
2, 54465, Note_on_c, 0, 61, 0
2, 54465, Note_on_c, 0, 58, 0
2, 54480, Note_on_c, 0, 65, 58
2, 54481, Note_on_c, 0, 37, 52
2, 54491, Note_on_c, 0, 66, 0
2, 54492, Note_on_c, 0, 49, 0
2, 54563, Note_on_c, 0, 56, 52
2, 54563, Note_on_c, 0, 59, 52
2, 54628, Note_on_c, 0, 59, 0
2, 54628, Note_on_c, 0, 56, 0
2, 54628, Note_on_c, 0, 65, 0
2, 54631, Note_on_c, 0, 37, 0
2, 54645, Note_on_c, 0, 66, 58
2, 54649, Note_on_c, 0, 30, 52
2, 54678, Control_c, 0, 64, 127
2, 54731, Note_on_c, 0, 58, 52
2, 54813, Note_on_c, 0, 61, 52
2, 54813, Note_on_c, 0, 73, 58
2, 54815, Note_on_c, 0, 49, 52
2, 54837, Note_on_c, 0, 58, 0
2, 54837, Note_on_c, 0, 66, 0
2, 54899, Note_on_c, 0, 42, 52
2, 54923, Note_on_c, 0, 49, 0
2, 54978, Note_on_c, 0, 78, 58
2, 55003, Note_on_c, 0, 73, 0
2, 55004, Note_on_c, 0, 61, 0
2, 55060, Note_on_c, 0, 70, 52
2, 55140, Note_on_c, 0, 85, 58
2, 55141, Note_on_c, 0, 73, 58
2, 55142, Note_on_c, 0, 61, 52
2, 55164, Note_on_c, 0, 70, 0
2, 55164, Note_on_c, 0, 78, 0
2, 55224, Note_on_c, 0, 54, 52
2, 55248, Note_on_c, 0, 61, 0
2, 55260, Note_on_c, 0, 85, 0
2, 55261, Note_on_c, 0, 73, 0
2, 55290, Note_on_c, 0, 54, 0
2, 55293, Control_c, 0, 64, 0
2, 55305, Note_on_c, 0, 66, 52
2, 55318, Note_on_c, 0, 42, 0
2, 55319, Note_on_c, 0, 30, 0
2, 55389, Note_on_c, 0, 68, 58
2, 55389, Note_on_c, 0, 58, 52
2, 55413, Note_on_c, 0, 66, 0
2, 55471, Note_on_c, 0, 66, 58
2, 55474, Note_on_c, 0, 49, 52
2, 55496, Note_on_c, 0, 68, 0
2, 55497, Note_on_c, 0, 58, 0
2, 55554, Note_on_c, 0, 65, 58
2, 55557, Note_on_c, 0, 42, 52
2, 55578, Note_on_c, 0, 66, 0
2, 55581, Note_on_c, 0, 49, 0
2, 55623, Note_on_c, 0, 42, 0
2, 55638, Note_on_c, 0, 63, 52
2, 55663, Note_on_c, 0, 65, 0
2, 55707, Note_on_c, 0, 59, 52
2, 55721, Note_on_c, 0, 62, 52
2, 55746, Note_on_c, 0, 63, 0
2, 55790, Note_on_c, 0, 50, 52
2, 55801, Note_on_c, 0, 63, 52
2, 55825, Note_on_c, 0, 62, 0
2, 55826, Note_on_c, 0, 59, 0
2, 55883, Note_on_c, 0, 65, 58
2, 55886, Note_on_c, 0, 42, 52
2, 55908, Note_on_c, 0, 63, 0
2, 55909, Note_on_c, 0, 50, 0
2, 55951, Note_on_c, 0, 42, 0
2, 55965, Note_on_c, 0, 66, 58
2, 55976, Note_on_c, 0, 65, 0
2, 55997, Control_c, 0, 64, 127
2, 56045, Note_on_c, 0, 58, 52
2, 56129, Note_on_c, 0, 49, 52
2, 56151, Note_on_c, 0, 58, 0
2, 56211, Note_on_c, 0, 42, 52
2, 56236, Note_on_c, 0, 49, 0
2, 56253, Control_c, 0, 64, 0
2, 56278, Note_on_c, 0, 42, 0
2, 56292, Note_on_c, 0, 70, 58
2, 56293, Note_on_c, 0, 59, 52
2, 56317, Note_on_c, 0, 66, 0
2, 56355, Control_c, 0, 64, 127
2, 56377, Note_on_c, 0, 50, 52
2, 56461, Note_on_c, 0, 49, 52
2, 56485, Note_on_c, 0, 50, 0
2, 56543, Note_on_c, 0, 37, 52
2, 56558, Control_c, 0, 64, 0
2, 56565, Note_on_c, 0, 49, 0
2, 56622, Note_on_c, 0, 58, 52
2, 56622, Note_on_c, 0, 66, 58
2, 56623, Note_on_c, 0, 37, 0
2, 56624, Note_on_c, 0, 42, 52
2, 56631, Note_on_c, 0, 70, 0
2, 56646, Note_on_c, 0, 59, 0
2, 56668, Control_c, 0, 64, 127
2, 56705, Note_on_c, 0, 54, 52
2, 56731, Note_on_c, 0, 42, 0
2, 56788, Note_on_c, 0, 50, 52
2, 56812, Note_on_c, 0, 54, 0
2, 56858, Control_c, 0, 64, 0
2, 56872, Note_on_c, 0, 49, 52
2, 56896, Note_on_c, 0, 50, 0
2, 56950, Note_on_c, 0, 70, 58
2, 56951, Note_on_c, 0, 59, 52
2, 56952, Note_on_c, 0, 50, 52
2, 56962, Note_on_c, 0, 58, 0
2, 56962, Note_on_c, 0, 66, 0
2, 56965, Note_on_c, 0, 49, 0
2, 57000, Control_c, 0, 64, 127
2, 57039, Note_on_c, 0, 39, 52
2, 57061, Note_on_c, 0, 50, 0
2, 57123, Note_on_c, 0, 37, 52
2, 57147, Note_on_c, 0, 39, 0
2, 57206, Note_on_c, 0, 49, 52
2, 57207, Control_c, 0, 64, 0
2, 57232, Note_on_c, 0, 37, 0
2, 57271, Note_on_c, 0, 49, 0
2, 57285, Note_on_c, 0, 66, 58
2, 57288, Note_on_c, 0, 42, 52
2, 57295, Note_on_c, 0, 70, 0
2, 57296, Note_on_c, 0, 59, 0
2, 57320, Control_c, 0, 64, 127
2, 57366, Note_on_c, 0, 58, 52
2, 57367, Note_on_c, 0, 54, 52
2, 57393, Note_on_c, 0, 42, 0
2, 57451, Note_on_c, 0, 50, 52
2, 57476, Note_on_c, 0, 54, 0
2, 57487, Note_on_c, 0, 58, 0
2, 57523, Control_c, 0, 64, 0
2, 57532, Note_on_c, 0, 58, 52
2, 57533, Note_on_c, 0, 49, 52
2, 57557, Note_on_c, 0, 50, 0
2, 57619, Note_on_c, 0, 42, 52
2, 57643, Note_on_c, 0, 49, 0
2, 57654, Note_on_c, 0, 58, 0
2, 57700, Note_on_c, 0, 54, 52
2, 57700, Note_on_c, 0, 58, 52
2, 57726, Note_on_c, 0, 42, 0
2, 57783, Note_on_c, 0, 50, 52
2, 57808, Note_on_c, 0, 54, 0
2, 57821, Note_on_c, 0, 58, 0
2, 57867, Note_on_c, 0, 58, 52
2, 57868, Note_on_c, 0, 49, 52
2, 57892, Note_on_c, 0, 50, 0
2, 57935, Note_on_c, 0, 49, 0
2, 57954, Note_on_c, 0, 42, 52
2, 57989, Note_on_c, 0, 58, 0
2, 58035, Note_on_c, 0, 58, 52
2, 58036, Note_on_c, 0, 54, 52
2, 58062, Note_on_c, 0, 42, 0
2, 58117, Note_on_c, 0, 50, 52
2, 58126, Note_on_c, 0, 66, 0
2, 58142, Note_on_c, 0, 54, 0
2, 58200, Note_on_c, 0, 49, 52
2, 58222, Note_on_c, 0, 50, 0
2, 58281, Note_on_c, 0, 50, 52
2, 58305, Note_on_c, 0, 49, 0
2, 58363, Note_on_c, 0, 49, 52
2, 58387, Note_on_c, 0, 50, 0
2, 58448, Note_on_c, 0, 38, 52
2, 58455, Note_on_c, 0, 58, 0
2, 58469, Note_on_c, 0, 49, 0
2, 58530, Note_on_c, 0, 37, 52
2, 58555, Note_on_c, 0, 38, 0
2, 58613, Note_on_c, 0, 42, 52
2, 58614, Note_on_c, 0, 30, 52
2, 58624, Note_on_c, 0, 37, 0
2, 58625, Note_on_c, 0, 54, 52
2, 58638, Note_on_c, 0, 58, 52
2, 58653, Note_on_c, 0, 61, 52
2, 58666, Note_on_c, 0, 66, 52
2, 58673, Control_c, 0, 64, 127
2, 58680, Note_on_c, 0, 70, 52
2, 58692, Note_on_c, 0, 78, 58
2, 59094, Control_c, 0, 64, 0
2, 59112, Note_on_c, 0, 78, 0
2, 59113, Note_on_c, 0, 70, 0
2, 59113, Note_on_c, 0, 61, 0
2, 59113, Note_on_c, 0, 66, 0
2, 59114, Note_on_c, 0, 54, 0
2, 59114, Note_on_c, 0, 58, 0
2, 59117, Note_on_c, 0, 42, 0
2, 59118, Note_on_c, 0, 30, 0
2, 59118, End_track
0, 0, End_of_file
