0, 0, Header, 1, 7, 480
1, 0, Start_track
1, 0, Title_t, "Seq-1"
1, 0, SMPTE_offset, 96, 0, 0, 0, 0
1, 0, Time_signature, 4, 2, 24, 8
1, 0, Tempo, 500000
1, 0, End_track
2, 0, Start_track
2, 0, Title_t, "Franz Liszt"
2, 5145, Control_c, 0, 7, 127
2, 6715, Control_c, 0, 67, 127
2, 7032, Control_c, 0, 64, 127
2, 7106, Note_on_c, 0, 37, 36
2, 7411, Note_on_c, 0, 53, 22
2, 7716, Note_on_c, 0, 61, 25
2, 7756, Note_off_c, 0, 53, 64
2, 8020, Note_on_c, 0, 56, 27
2, 8049, Note_off_c, 0, 61, 64
2, 8330, Note_on_c, 0, 65, 31
2, 8424, Note_off_c, 0, 56, 64
2, 8630, Note_off_c, 0, 65, 64
2, 8635, Note_on_c, 0, 61, 34
2, 8940, Note_on_c, 0, 56, 36
2, 9057, Note_off_c, 0, 61, 64
2, 9244, Note_on_c, 0, 53, 40
2, 9268, Note_off_c, 0, 56, 64
2, 9549, Note_on_c, 0, 61, 36
2, 9602, Note_off_c, 0, 53, 64
2, 9816, Note_off_c, 0, 61, 64
2, 9854, Note_on_c, 0, 56, 32
2, 10154, Note_off_c, 0, 56, 64
2, 10161, Note_on_c, 0, 65, 27
2, 10471, Note_on_c, 0, 61, 22
2, 10476, Note_off_c, 0, 65, 64
2, 10696, Note_off_c, 0, 37, 64
2, 10759, Note_off_c, 0, 61, 64
2, 10773, Note_on_c, 0, 37, 33
2, 11073, Note_on_c, 0, 53, 25
2, 11388, Note_on_c, 0, 61, 28
2, 11395, Note_off_c, 0, 53, 64
2, 11644, Note_off_c, 0, 61, 64
2, 11690, Note_on_c, 0, 56, 31
2, 11954, Note_off_c, 0, 56, 64
2, 11997, Note_on_c, 0, 65, 34
2, 12300, Note_on_c, 0, 61, 36
2, 12304, Note_off_c, 0, 65, 64
2, 12607, Note_on_c, 0, 56, 39
2, 12609, Note_off_c, 0, 61, 64
2, 12914, Note_on_c, 0, 53, 42
2, 12950, Note_off_c, 0, 56, 64
2, 13219, Note_on_c, 0, 61, 38
2, 13228, Note_off_c, 0, 53, 64
2, 13447, Note_off_c, 0, 61, 64
2, 13524, Note_on_c, 0, 56, 34
2, 13826, Note_on_c, 0, 65, 30
2, 13869, Note_off_c, 0, 56, 64
2, 14056, Note_off_c, 0, 65, 64
2, 14133, Note_on_c, 0, 61, 30
2, 14368, Note_off_c, 0, 37, 64
2, 14419, Note_off_c, 0, 61, 64
2, 14445, Note_on_c, 0, 37, 34
2, 14512, Control_c, 0, 64, 0
2, 14611, Control_c, 0, 64, 127
2, 14745, Note_on_c, 0, 53, 19
2, 15052, Note_on_c, 0, 61, 19
2, 15072, Note_off_c, 0, 53, 64
2, 15362, Note_on_c, 0, 56, 25
2, 15434, Note_off_c, 0, 61, 64
2, 15662, Note_off_c, 0, 56, 64
2, 15664, Note_on_c, 0, 65, 30
2, 15972, Note_on_c, 0, 61, 29
2, 15988, Note_off_c, 0, 65, 64
2, 16276, Note_on_c, 0, 56, 30
2, 16310, Note_off_c, 0, 61, 64
2, 16574, Note_off_c, 0, 56, 64
2, 16581, Note_on_c, 0, 53, 25
2, 16891, Note_on_c, 0, 61, 24
2, 16915, Note_off_c, 0, 53, 64
2, 16920, Note_off_c, 0, 37, 64
2, 17181, Note_on_c, 0, 77, 57
2, 17193, Note_on_c, 0, 56, 22
2, 17263, Note_off_c, 0, 61, 64
2, 17500, Note_on_c, 0, 65, 18
2, 17563, Note_off_c, 0, 56, 64
2, 17803, Note_on_c, 0, 61, 17
2, 17832, Note_off_c, 0, 65, 64
2, 18086, Note_off_c, 0, 61, 64
2, 18088, Note_off_c, 0, 77, 64
2, 18112, Note_on_c, 0, 77, 72
2, 18170, Control_c, 0, 64, 0
2, 18261, Control_c, 0, 64, 127
2, 18417, Note_on_c, 0, 55, 20
2, 18693, Note_off_c, 0, 55, 64
2, 18722, Note_on_c, 0, 61, 24
2, 19027, Note_on_c, 0, 58, 25
2, 19070, Note_off_c, 0, 61, 64
2, 19288, Note_off_c, 0, 58, 64
2, 19332, Note_on_c, 0, 65, 32
2, 19636, Note_on_c, 0, 61, 32
2, 19663, Note_off_c, 0, 65, 64
2, 19941, Note_on_c, 0, 58, 30
2, 19944, Note_on_c, 0, 70, 53
2, 19946, Note_off_c, 0, 77, 64
2, 19968, Note_off_c, 0, 61, 64
2, 20246, Note_on_c, 0, 55, 25
2, 20289, Note_off_c, 0, 58, 64
2, 20404, Note_on_c, 0, 72, 55
2, 20529, Note_off_c, 0, 70, 64
2, 20551, Note_on_c, 0, 61, 24
2, 20587, Note_off_c, 0, 55, 64
2, 20858, Note_on_c, 0, 73, 59
2, 20860, Note_on_c, 0, 58, 24
2, 20868, Note_off_c, 0, 61, 64
2, 20887, Note_off_c, 0, 72, 64
2, 21134, Note_off_c, 0, 58, 64
2, 21165, Note_on_c, 0, 65, 21
2, 21319, Note_on_c, 0, 77, 63
2, 21343, Note_off_c, 0, 73, 64
2, 21470, Note_on_c, 0, 61, 17
2, 21508, Note_off_c, 0, 65, 64
2, 21717, Note_off_c, 0, 77, 64
2, 21782, Note_on_c, 0, 77, 67
2, 21804, Note_off_c, 0, 61, 64
2, 21864, Control_c, 0, 64, 0
2, 21964, Control_c, 0, 64, 127
2, 22087, Note_on_c, 0, 54, 22
2, 22380, Note_off_c, 0, 54, 64
2, 22387, Note_on_c, 0, 60, 26
2, 22696, Note_on_c, 0, 56, 29
2, 22720, Note_off_c, 0, 60, 64
2, 22980, Note_off_c, 0, 56, 64
2, 23001, Note_on_c, 0, 65, 30
2, 23260, Note_off_c, 0, 65, 64
2, 23306, Note_on_c, 0, 60, 32
2, 23572, Note_off_c, 0, 60, 64
2, 23611, Note_on_c, 0, 56, 30
2, 23916, Note_off_c, 0, 56, 64
2, 23916, Note_on_c, 0, 54, 28
2, 24072, Note_off_c, 0, 77, 64
2, 24072, Note_on_c, 0, 75, 62
2, 24223, Note_on_c, 0, 60, 24
2, 24256, Note_off_c, 0, 54, 64
2, 24530, Note_on_c, 0, 56, 22
2, 24530, Note_on_c, 0, 77, 58
2, 24566, Note_off_c, 0, 60, 64
2, 24600, Note_off_c, 0, 75, 64
2, 24835, Note_on_c, 0, 63, 19
2, 24876, Note_off_c, 0, 56, 64
2, 24988, Note_on_c, 0, 75, 57
2, 25003, Note_off_c, 0, 77, 64
2, 25132, Note_off_c, 0, 63, 64
2, 25142, Note_on_c, 0, 60, 18
2, 25406, Note_off_c, 0, 60, 64
2, 25449, Note_on_c, 0, 73, 54
2, 25507, Note_off_c, 0, 75, 64
2, 25521, Control_c, 0, 64, 0
2, 25624, Control_c, 0, 64, 127
2, 25749, Note_on_c, 0, 53, 20
2, 26028, Note_off_c, 0, 53, 64
2, 26054, Note_on_c, 0, 61, 24
2, 26364, Note_on_c, 0, 56, 26
2, 26388, Note_off_c, 0, 61, 64
2, 26668, Note_on_c, 0, 65, 31
2, 26685, Note_off_c, 0, 56, 64
2, 26942, Note_off_c, 0, 65, 64
2, 26971, Note_on_c, 0, 61, 31
2, 27280, Note_on_c, 0, 56, 28
2, 27288, Note_off_c, 0, 61, 64
2, 27568, Note_off_c, 0, 56, 64
2, 27588, Note_on_c, 0, 53, 25
2, 27856, Note_off_c, 0, 53, 64
2, 27895, Note_on_c, 0, 61, 26
2, 28164, Note_off_c, 0, 61, 64
2, 28197, Note_on_c, 0, 56, 24
2, 28418, Note_off_c, 0, 73, 64
2, 28418, Note_on_c, 0, 77, 50
2, 28483, Note_on_c, 0, 65, 20
2, 28507, Note_off_c, 0, 56, 64
2, 28629, Note_off_c, 0, 77, 64
2, 28629, Note_on_c, 0, 73, 47
2, 28744, Note_off_c, 0, 65, 64
2, 28766, Note_on_c, 0, 61, 20
2, 28836, Note_off_c, 0, 73, 64
2, 28836, Note_on_c, 0, 82, 44
2, 29044, Note_off_c, 0, 82, 64
2, 29052, Note_on_c, 0, 80, 40
2, 29054, Note_off_c, 0, 61, 64
2, 29337, Note_on_c, 0, 53, 20
2, 29644, Note_off_c, 0, 53, 64
2, 29644, Note_on_c, 0, 61, 25
2, 29947, Note_off_c, 0, 80, 64
2, 29949, Note_off_c, 0, 61, 64
2, 29954, Note_on_c, 0, 56, 29
2, 30228, Note_off_c, 0, 56, 64
2, 30254, Note_on_c, 0, 65, 29
2, 30535, Note_off_c, 0, 65, 64
2, 30564, Note_on_c, 0, 61, 31
2, 30866, Note_on_c, 0, 56, 27
2, 30880, Note_off_c, 0, 61, 64
2, 31173, Note_on_c, 0, 53, 27
2, 31183, Note_off_c, 0, 56, 64
2, 31476, Note_on_c, 0, 61, 25
2, 31500, Note_off_c, 0, 53, 64
2, 31740, Note_off_c, 0, 61, 64
2, 31783, Note_on_c, 0, 56, 22
2, 31785, Note_on_c, 0, 77, 52
2, 32085, Note_off_c, 0, 56, 64
2, 32085, Note_on_c, 0, 65, 19
2, 32395, Note_on_c, 0, 61, 20
2, 32400, Note_off_c, 0, 65, 64
2, 32637, Note_off_c, 0, 77, 64
2, 32695, Note_off_c, 0, 61, 64
2, 32695, Note_on_c, 0, 37, 34
2, 32702, Note_on_c, 0, 77, 67
2, 32868, Control_c, 0, 64, 0
2, 32968, Control_c, 0, 64, 127
2, 33004, Note_on_c, 0, 55, 20
2, 33292, Note_off_c, 0, 55, 64
2, 33309, Note_on_c, 0, 61, 20
2, 33602, Note_off_c, 0, 61, 64
2, 33621, Note_on_c, 0, 58, 17
2, 33895, Note_off_c, 0, 58, 64
2, 33924, Note_on_c, 0, 65, 32
2, 34099, Note_off_c, 0, 37, 64
2, 34188, Note_off_c, 0, 65, 64
2, 34228, Note_on_c, 0, 61, 32
2, 34502, Note_off_c, 0, 61, 64
2, 34533, Note_off_c, 0, 77, 64
2, 34538, Note_on_c, 0, 70, 45
2, 34538, Note_on_c, 0, 58, 30
2, 34828, Note_off_c, 0, 58, 64
2, 34838, Note_on_c, 0, 55, 27
2, 34992, Note_on_c, 0, 72, 55
2, 34999, Note_off_c, 0, 70, 64
2, 35143, Note_off_c, 0, 55, 64
2, 35145, Note_on_c, 0, 61, 26
2, 35450, Note_on_c, 0, 73, 59
2, 35452, Note_on_c, 0, 58, 23
2, 35460, Note_off_c, 0, 61, 64
2, 35500, Note_off_c, 0, 72, 64
2, 35733, Note_off_c, 0, 58, 64
2, 35757, Note_on_c, 0, 65, 19
2, 35911, Note_on_c, 0, 77, 63
2, 35983, Note_off_c, 0, 73, 64
2, 36062, Note_on_c, 0, 61, 19
2, 36067, Note_off_c, 0, 65, 64
2, 36316, Note_off_c, 0, 77, 64
2, 36367, Note_on_c, 0, 77, 66
2, 36369, Note_off_c, 0, 61, 64
2, 36676, Note_on_c, 0, 55, 21
2, 36984, Note_on_c, 0, 61, 22
2, 37032, Note_off_c, 0, 55, 64
2, 37255, Note_off_c, 0, 61, 64
2, 37288, Note_on_c, 0, 58, 23
2, 37593, Note_on_c, 0, 65, 28
2, 37660, Note_off_c, 0, 58, 64
2, 37898, Note_on_c, 0, 61, 28
2, 37905, Note_off_c, 0, 65, 64
2, 38203, Note_on_c, 0, 36, 39
2, 38222, Note_off_c, 0, 61, 64
2, 38265, Control_c, 0, 64, 0
2, 38373, Control_c, 0, 64, 127
2, 38508, Note_on_c, 0, 55, 20
2, 38656, Note_off_c, 0, 77, 64
2, 38664, Note_on_c, 0, 76, 62
2, 38798, Note_off_c, 0, 55, 64
2, 38812, Note_on_c, 0, 61, 21
2, 38990, Note_off_c, 0, 36, 64
2, 39088, Note_off_c, 0, 61, 64
2, 39122, Note_on_c, 0, 80, 60
2, 39124, Note_on_c, 0, 58, 23
2, 39220, Note_off_c, 0, 76, 64
2, 39427, Note_on_c, 0, 64, 25
2, 39441, Note_off_c, 0, 58, 64
2, 39580, Note_on_c, 0, 79, 60
2, 39669, Note_off_c, 0, 80, 64
2, 39732, Note_on_c, 0, 60, 29
2, 39736, Note_off_c, 0, 64, 64
2, 40032, Note_off_c, 0, 60, 64
2, 40036, Note_on_c, 0, 77, 55
2, 40063, Note_on_c, 0, 41, 51
2, 40123, Control_c, 0, 64, 0
2, 40190, Note_off_c, 0, 79, 64
2, 40216, Control_c, 0, 64, 127
2, 40344, Note_on_c, 0, 56, 14
2, 40651, Note_on_c, 0, 65, 15
2, 40660, Note_off_c, 0, 56, 64
2, 40951, Note_off_c, 0, 41, 64
2, 40953, Note_on_c, 0, 60, 15
2, 40987, Note_off_c, 0, 65, 64
2, 41251, Note_off_c, 0, 60, 64
2, 41260, Note_on_c, 0, 68, 27
2, 41536, Note_off_c, 0, 68, 64
2, 41565, Note_on_c, 0, 65, 27
2, 41872, Note_on_c, 0, 60, 23
2, 41908, Note_off_c, 0, 65, 64
2, 42177, Note_on_c, 0, 56, 22
2, 42216, Note_off_c, 0, 60, 64
2, 42465, Note_off_c, 0, 56, 64
2, 42482, Note_on_c, 0, 65, 18
2, 42787, Note_on_c, 0, 60, 16
2, 42808, Note_off_c, 0, 65, 64
2, 43003, Note_off_c, 0, 77, 64
2, 43008, Note_on_c, 0, 80, 49
2, 43072, Note_off_c, 0, 60, 64
2, 43082, Note_on_c, 0, 68, 16
2, 43219, Note_on_c, 0, 77, 47
2, 43221, Note_off_c, 0, 80, 64
2, 43358, Note_off_c, 0, 68, 64
2, 43363, Note_on_c, 0, 65, 15
2, 43425, Note_off_c, 0, 77, 64
2, 43428, Note_on_c, 0, 85, 48
2, 43644, Note_off_c, 0, 85, 64
2, 43644, Note_on_c, 0, 84, 44
2, 43761, Note_off_c, 0, 65, 64
2, 43932, Note_on_c, 0, 56, 17
2, 44232, Note_on_c, 0, 65, 19
2, 44239, Note_off_c, 0, 56, 64
2, 44539, Note_on_c, 0, 60, 24
2, 44541, Note_off_c, 0, 84, 64
2, 44599, Note_off_c, 0, 65, 64
2, 44829, Note_off_c, 0, 60, 64
2, 44848, Note_on_c, 0, 68, 24
2, 45151, Note_on_c, 0, 65, 25
2, 45240, Note_off_c, 0, 68, 64
2, 45458, Note_on_c, 0, 60, 30
2, 45556, Note_off_c, 0, 65, 64
2, 45765, Note_on_c, 0, 56, 27
2, 45772, Note_off_c, 0, 60, 64
2, 46058, Note_off_c, 0, 56, 64
2, 46068, Note_on_c, 0, 65, 25
2, 46358, Note_on_c, 0, 80, 54
2, 46375, Note_on_c, 0, 60, 23
2, 46382, Note_off_c, 0, 65, 64
2, 46656, Note_off_c, 0, 60, 64
2, 46680, Note_on_c, 0, 68, 21
2, 46984, Note_on_c, 0, 65, 20
2, 47001, Note_off_c, 0, 68, 64
2, 47275, Note_off_c, 0, 80, 64
2, 47277, Note_off_c, 0, 65, 64
2, 47294, Note_on_c, 0, 80, 66
2, 47294, Note_on_c, 0, 41, 42
2, 47344, Control_c, 0, 64, 0
2, 47445, Control_c, 0, 64, 127
2, 47594, Note_on_c, 0, 56, 17
2, 47887, Note_off_c, 0, 56, 64
2, 47904, Note_on_c, 0, 62, 17
2, 48108, Note_off_c, 0, 41, 64
2, 48211, Note_on_c, 0, 59, 18
2, 48213, Note_off_c, 0, 62, 64
2, 48513, Note_on_c, 0, 68, 30
2, 48516, Note_off_c, 0, 59, 64
2, 48816, Note_on_c, 0, 62, 29
2, 48842, Note_off_c, 0, 68, 64
2, 49108, Note_on_c, 0, 74, 54
2, 49120, Note_off_c, 0, 80, 64
2, 49125, Note_on_c, 0, 59, 27
2, 49168, Note_off_c, 0, 62, 64
2, 49432, Note_on_c, 0, 56, 25
2, 49466, Note_off_c, 0, 59, 64
2, 49567, Note_on_c, 0, 75, 56
2, 49723, Note_off_c, 0, 56, 64
2, 49740, Note_off_c, 0, 74, 64
2, 49740, Note_on_c, 0, 62, 26
2, 50025, Note_on_c, 0, 77, 64
2, 50042, Note_on_c, 0, 59, 22
2, 50088, Note_off_c, 0, 62, 64
2, 50217, Note_off_c, 0, 75, 64
2, 50318, Note_off_c, 0, 59, 64
2, 50344, Note_on_c, 0, 68, 21
2, 50491, Note_on_c, 0, 80, 65
2, 50608, Note_off_c, 0, 77, 64
2, 50642, Note_off_c, 0, 68, 64
2, 50652, Note_on_c, 0, 62, 19
2, 50942, Note_off_c, 0, 80, 64
2, 50964, Note_on_c, 0, 42, 39
2, 50968, Note_on_c, 0, 80, 71
2, 50985, Note_off_c, 0, 62, 64
2, 51019, Control_c, 0, 64, 0
2, 51120, Control_c, 0, 64, 127
2, 51266, Note_on_c, 0, 54, 23
2, 51571, Note_on_c, 0, 63, 22
2, 51614, Note_off_c, 0, 54, 64
2, 51758, Note_off_c, 0, 42, 64
2, 51871, Note_off_c, 0, 63, 64
2, 51878, Note_on_c, 0, 58, 28
2, 52180, Note_on_c, 0, 66, 34
2, 52236, Note_off_c, 0, 58, 64
2, 52468, Note_off_c, 0, 66, 64
2, 52488, Note_on_c, 0, 63, 36
2, 52795, Note_on_c, 0, 58, 34
2, 52848, Note_off_c, 0, 63, 64
2, 53083, Note_off_c, 0, 58, 64
2, 53097, Note_on_c, 0, 54, 33
2, 53251, Note_on_c, 0, 70, 49
2, 53263, Note_off_c, 0, 80, 64
2, 53404, Note_on_c, 0, 63, 31
2, 53450, Note_off_c, 0, 54, 64
2, 53488, Note_off_c, 0, 70, 64
2, 53707, Note_on_c, 0, 72, 56
2, 53709, Note_on_c, 0, 58, 27
2, 53719, Note_off_c, 0, 63, 64
2, 53947, Note_off_c, 0, 72, 64
2, 53983, Note_off_c, 0, 58, 64
2, 54014, Note_on_c, 0, 66, 28
2, 54170, Note_on_c, 0, 74, 62
2, 54292, Note_off_c, 0, 66, 64
2, 54328, Note_on_c, 0, 63, 26
2, 54448, Note_off_c, 0, 74, 64
2, 54655, Note_on_c, 0, 75, 48
2, 54712, Note_off_c, 0, 63, 64
2, 54775, Control_c, 0, 64, 0
2, 55082, Note_off_c, 0, 75, 64
2, 55176, Note_on_c, 0, 77, 51
2, 55596, Note_off_c, 0, 77, 64
2, 55732, Note_on_c, 0, 78, 55
2, 56186, Note_off_c, 0, 78, 64
2, 56325, Note_on_c, 0, 80, 63
2, 56827, Note_off_c, 0, 80, 64
2, 56949, Note_on_c, 0, 81, 66
2, 57604, Note_off_c, 0, 81, 64
2, 57604, Note_on_c, 0, 84, 78
2, 58929, Note_off_c, 0, 84, 64
2, 58929, Note_on_c, 0, 82, 58
2, 59272, Note_off_c, 0, 82, 64
2, 59388, Note_on_c, 0, 82, 70
2, 59388, Control_c, 0, 64, 127
2, 59392, Note_on_c, 0, 44, 38
2, 59690, Note_on_c, 0, 53, 24
2, 59990, Note_off_c, 0, 53, 64
2, 59997, Note_on_c, 0, 61, 23
2, 60304, Note_on_c, 0, 56, 31
2, 60340, Note_off_c, 0, 61, 64
2, 60604, Note_off_c, 0, 56, 64
2, 60609, Note_on_c, 0, 65, 36
2, 60679, Note_off_c, 0, 44, 64
2, 60916, Note_on_c, 0, 61, 35
2, 60938, Note_off_c, 0, 65, 64
2, 61221, Note_on_c, 0, 56, 35
2, 61269, Note_off_c, 0, 61, 64
2, 61507, Note_off_c, 0, 56, 64
2, 61526, Note_off_c, 0, 82, 64
2, 61526, Note_on_c, 0, 80, 53
2, 61531, Note_on_c, 0, 53, 32
2, 61819, Note_off_c, 0, 53, 64
2, 61833, Note_on_c, 0, 61, 30
2, 61833, Note_on_c, 0, 85, 52
2, 61860, Note_off_c, 0, 80, 64
2, 62102, Note_off_c, 0, 61, 64
2, 62136, Note_on_c, 0, 56, 28
2, 62140, Note_on_c, 0, 84, 50
2, 62152, Note_off_c, 0, 85, 64
2, 62443, Note_on_c, 0, 76, 49
2, 62443, Note_on_c, 0, 65, 25
2, 62462, Note_off_c, 0, 56, 64
2, 62481, Note_off_c, 0, 84, 64
2, 62750, Note_on_c, 0, 77, 47
2, 62752, Note_on_c, 0, 61, 25
2, 62781, Note_off_c, 0, 65, 64
2, 62822, Note_off_c, 0, 76, 64
2, 63052, Note_on_c, 0, 82, 60
2, 63060, Note_off_c, 0, 61, 64
2, 63108, Note_off_c, 0, 77, 64
2, 63360, Note_off_c, 0, 82, 64
2, 63360, Note_on_c, 0, 80, 59
2, 63669, Note_on_c, 0, 72, 35
2, 63732, Note_off_c, 0, 80, 64
2, 63981, Note_on_c, 0, 73, 36
2, 63988, Note_off_c, 0, 72, 64
2, 64305, Note_off_c, 0, 73, 64
2, 64308, Note_on_c, 0, 78, 49
2, 64651, Note_on_c, 0, 77, 47
2, 64711, Note_off_c, 0, 78, 64
2, 65013, Note_on_c, 0, 67, 37
2, 65085, Control_c, 0, 64, 0
2, 65112, Note_off_c, 0, 77, 64
2, 65320, Note_off_c, 0, 67, 64
2, 65428, Note_on_c, 0, 68, 37
2, 65755, Note_off_c, 0, 68, 64
2, 65858, Note_on_c, 0, 70, 45
2, 66177, Note_off_c, 0, 70, 64
2, 66278, Note_on_c, 0, 72, 51
2, 66602, Note_off_c, 0, 72, 64
2, 66708, Note_on_c, 0, 73, 60
2, 67003, Note_off_c, 0, 73, 64
2, 67099, Note_on_c, 0, 77, 59
2, 67399, Note_off_c, 0, 77, 64
2, 67502, Note_on_c, 0, 77, 61
2, 67502, Control_c, 0, 64, 127
2, 67504, Note_on_c, 0, 44, 37
2, 67807, Note_on_c, 0, 55, 23
2, 67946, Note_off_c, 0, 44, 64
2, 68085, Note_off_c, 0, 55, 64
2, 68112, Note_on_c, 0, 61, 23
2, 68404, Note_off_c, 0, 61, 64
2, 68414, Note_on_c, 0, 58, 25
2, 68724, Note_on_c, 0, 65, 29
2, 68767, Note_off_c, 0, 58, 64
2, 69031, Note_on_c, 0, 61, 31
2, 69052, Note_off_c, 0, 65, 64
2, 69333, Note_on_c, 0, 44, 40
2, 69338, Note_off_c, 0, 61, 64
2, 69369, Control_c, 0, 64, 0
2, 69484, Control_c, 0, 64, 127
2, 69640, Note_on_c, 0, 54, 23
2, 69792, Note_off_c, 0, 77, 64
2, 69792, Note_on_c, 0, 75, 43
2, 69868, Note_off_c, 0, 44, 64
2, 69945, Note_on_c, 0, 60, 24
2, 69969, Note_off_c, 0, 54, 64
2, 70252, Note_on_c, 0, 77, 42
2, 70252, Note_on_c, 0, 56, 27
2, 70288, Note_off_c, 0, 60, 64
2, 70320, Note_off_c, 0, 75, 64
2, 70519, Note_off_c, 0, 56, 64
2, 70560, Note_on_c, 0, 63, 28
2, 70713, Note_on_c, 0, 75, 40
2, 70843, Note_off_c, 0, 63, 64
2, 70860, Note_on_c, 0, 60, 34
2, 70876, Note_off_c, 0, 77, 64
2, 71160, Note_off_c, 0, 60, 64
2, 71169, Note_on_c, 0, 73, 34
2, 71169, Note_on_c, 0, 37, 34
2, 71203, Control_c, 0, 64, 0
2, 71292, Note_off_c, 0, 75, 64
2, 71313, Control_c, 0, 64, 127
2, 71472, Note_on_c, 0, 53, 22
2, 71570, Note_off_c, 0, 37, 64
2, 71781, Note_on_c, 0, 61, 25
2, 71798, Note_off_c, 0, 53, 64
2, 72079, Note_off_c, 0, 73, 64
2, 72086, Note_on_c, 0, 56, 29
2, 72127, Note_off_c, 0, 61, 64
2, 72391, Note_on_c, 0, 65, 34
2, 72415, Note_off_c, 0, 56, 64
2, 72698, Note_on_c, 0, 61, 36
2, 72715, Note_off_c, 0, 65, 64
2, 72972, Note_off_c, 0, 61, 64
2, 73000, Note_on_c, 0, 56, 34
2, 73308, Note_on_c, 0, 53, 31
2, 73324, Note_off_c, 0, 56, 64
2, 73610, Note_on_c, 0, 61, 31
2, 73670, Note_off_c, 0, 53, 64
2, 73920, Note_on_c, 0, 56, 27
2, 73960, Note_off_c, 0, 61, 64
2, 74208, Note_off_c, 0, 56, 64
2, 74227, Note_on_c, 0, 65, 26
2, 74527, Note_on_c, 0, 61, 22
2, 74553, Note_off_c, 0, 65, 64
2, 74834, Note_off_c, 0, 61, 64
2, 74872, Note_on_c, 0, 37, 36
2, 74925, Control_c, 0, 64, 0
2, 74978, Control_c, 0, 64, 127
2, 75141, Note_on_c, 0, 53, 23
2, 75446, Note_on_c, 0, 61, 22
2, 75463, Note_off_c, 0, 53, 64
2, 75693, Note_off_c, 0, 37, 64
2, 75756, Note_on_c, 0, 56, 31
2, 75760, Note_off_c, 0, 61, 64
2, 76063, Note_off_c, 0, 56, 64
2, 76063, Note_on_c, 0, 65, 37
2, 76363, Note_off_c, 0, 65, 64
2, 76365, Note_on_c, 0, 61, 35
2, 76670, Note_on_c, 0, 56, 34
2, 76716, Note_off_c, 0, 61, 64
2, 76975, Note_on_c, 0, 53, 33
2, 77016, Note_off_c, 0, 56, 64
2, 77282, Note_on_c, 0, 61, 31
2, 77301, Note_off_c, 0, 53, 64
2, 77577, Note_on_c, 0, 89, 52
2, 77584, Note_on_c, 0, 77, 42
2, 77592, Note_on_c, 0, 56, 28
2, 77637, Note_off_c, 0, 61, 64
2, 77892, Note_on_c, 0, 65, 27
2, 77918, Note_off_c, 0, 56, 64
2, 78199, Note_on_c, 0, 61, 22
2, 78240, Note_off_c, 0, 65, 64
2, 78415, Note_off_c, 0, 77, 64
2, 78492, Note_off_c, 0, 89, 64
2, 78499, Note_on_c, 0, 37, 34
2, 78504, Note_on_c, 0, 77, 51
2, 78566, Note_off_c, 0, 61, 64
2, 78616, Note_on_c, 0, 89, 67
2, 78616, Control_c, 0, 64, 0
2, 78619, Control_c, 0, 64, 127
2, 78888, Note_off_c, 0, 37, 64
2, 78919, Note_on_c, 0, 55, 26
2, 79228, Note_on_c, 0, 61, 30
2, 79238, Note_off_c, 0, 55, 64
2, 79536, Note_on_c, 0, 58, 31
2, 79545, Note_off_c, 0, 61, 64
2, 79838, Note_on_c, 0, 65, 36
2, 79881, Note_off_c, 0, 58, 64
2, 80145, Note_on_c, 0, 61, 35
2, 80186, Note_off_c, 0, 65, 64
2, 80359, Note_off_c, 0, 77, 64
2, 80448, Note_on_c, 0, 82, 53
2, 80450, Note_on_c, 0, 70, 48
2, 80452, Note_off_c, 0, 61, 64
2, 80452, Note_off_c, 0, 89, 64
2, 80455, Note_on_c, 0, 58, 33
2, 80752, Note_off_c, 0, 58, 64
2, 80760, Note_on_c, 0, 55, 30
2, 80858, Note_off_c, 0, 70, 64
2, 80906, Note_on_c, 0, 84, 53
2, 80911, Note_off_c, 0, 82, 64
2, 80913, Note_on_c, 0, 72, 48
2, 81064, Note_on_c, 0, 61, 31
2, 81088, Note_off_c, 0, 55, 64
2, 81321, Note_off_c, 0, 72, 64
2, 81367, Note_on_c, 0, 85, 57
2, 81369, Note_off_c, 0, 84, 64
2, 81369, Note_on_c, 0, 73, 52
2, 81372, Note_on_c, 0, 58, 28
2, 81384, Note_off_c, 0, 61, 64
2, 81674, Note_on_c, 0, 65, 26
2, 81708, Note_off_c, 0, 58, 64
2, 81777, Note_off_c, 0, 73, 64
2, 81823, Note_off_c, 0, 85, 64
2, 81825, Note_on_c, 0, 77, 54
2, 81830, Note_on_c, 0, 89, 59
2, 81957, Note_off_c, 0, 65, 64
2, 81976, Note_on_c, 0, 61, 22
2, 82214, Note_off_c, 0, 77, 64
2, 82281, Note_off_c, 0, 61, 64
2, 82281, Note_off_c, 0, 89, 64
2, 82288, Note_on_c, 0, 77, 59
2, 82396, Note_on_c, 0, 89, 65
2, 82476, Control_c, 0, 64, 0
2, 82567, Control_c, 0, 64, 127
2, 82704, Note_on_c, 0, 54, 25
2, 83016, Note_on_c, 0, 60, 29
2, 83085, Note_off_c, 0, 54, 64
2, 83318, Note_on_c, 0, 56, 33
2, 83335, Note_off_c, 0, 60, 64
2, 83623, Note_on_c, 0, 65, 35
2, 83654, Note_off_c, 0, 56, 64
2, 83928, Note_on_c, 0, 60, 35
2, 83978, Note_off_c, 0, 65, 64
2, 84237, Note_on_c, 0, 56, 33
2, 84297, Note_off_c, 0, 60, 64
2, 84542, Note_on_c, 0, 54, 34
2, 84571, Note_off_c, 0, 56, 64
2, 84633, Note_off_c, 0, 77, 64
2, 84684, Note_off_c, 0, 89, 64
2, 84686, Note_on_c, 0, 87, 60
2, 84693, Note_on_c, 0, 75, 55
2, 84844, Note_on_c, 0, 60, 29
2, 84921, Note_off_c, 0, 54, 64
2, 85092, Note_off_c, 0, 75, 64
2, 85137, Note_off_c, 0, 60, 64
2, 85142, Note_off_c, 0, 87, 64
2, 85144, Note_on_c, 0, 89, 58
2, 85154, Note_on_c, 0, 56, 29
2, 85154, Note_on_c, 0, 77, 54
2, 85454, Note_off_c, 0, 56, 64
2, 85459, Note_on_c, 0, 63, 27
2, 85557, Note_off_c, 0, 77, 64
2, 85600, Note_off_c, 0, 89, 64
2, 85603, Note_on_c, 0, 87, 58
2, 85610, Note_on_c, 0, 75, 52
2, 85764, Note_on_c, 0, 60, 27
2, 85807, Note_off_c, 0, 63, 64
2, 86016, Note_off_c, 0, 75, 64
2, 86061, Note_off_c, 0, 87, 64
2, 86133, Note_on_c, 0, 85, 55
2, 86143, Note_off_c, 0, 60, 64
2, 86145, Note_on_c, 0, 73, 47
2, 86188, Control_c, 0, 64, 0
2, 86292, Control_c, 0, 64, 127
2, 86448, Note_on_c, 0, 53, 25
2, 86750, Note_on_c, 0, 61, 22
2, 86808, Note_off_c, 0, 53, 64
2, 87052, Note_off_c, 0, 61, 64
2, 87055, Note_on_c, 0, 56, 29
2, 87362, Note_on_c, 0, 65, 34
2, 87405, Note_off_c, 0, 56, 64
2, 87664, Note_on_c, 0, 61, 36
2, 87732, Note_off_c, 0, 65, 64
2, 87962, Note_off_c, 0, 85, 64
2, 87972, Note_on_c, 0, 56, 33
2, 88044, Note_off_c, 0, 61, 64
2, 88200, Note_off_c, 0, 73, 64
2, 88200, Note_on_c, 0, 77, 48
2, 88272, Note_on_c, 0, 53, 33
2, 88332, Note_off_c, 0, 56, 64
2, 88413, Note_on_c, 0, 73, 46
2, 88428, Note_off_c, 0, 77, 64
2, 88555, Note_on_c, 0, 61, 31
2, 88574, Note_off_c, 0, 53, 64
2, 88622, Note_on_c, 0, 82, 45
2, 88632, Note_off_c, 0, 73, 64
2, 88831, Note_on_c, 0, 80, 43
2, 88833, Note_on_c, 0, 56, 29
2, 88862, Note_off_c, 0, 61, 64
2, 88879, Note_off_c, 0, 82, 64
2, 89042, Note_on_c, 0, 89, 39
2, 89090, Note_off_c, 0, 80, 64
2, 89112, Note_off_c, 0, 56, 64
2, 89112, Note_on_c, 0, 65, 24
2, 89251, Note_on_c, 0, 85, 39
2, 89289, Note_off_c, 0, 89, 64
2, 89390, Note_off_c, 0, 65, 64
2, 89395, Note_on_c, 0, 61, 22
2, 89448, Note_off_c, 0, 85, 64
2, 89464, Note_on_c, 0, 94, 38
2, 89673, Note_off_c, 0, 61, 64
2, 89673, Note_on_c, 0, 92, 37
2, 89709, Note_off_c, 0, 94, 64
2, 89959, Note_on_c, 0, 53, 27
2, 90261, Note_on_c, 0, 61, 30
2, 90304, Note_off_c, 0, 53, 64
2, 90568, Note_off_c, 0, 92, 64
2, 90571, Note_on_c, 0, 56, 33
2, 90595, Note_off_c, 0, 61, 64
2, 90859, Note_off_c, 0, 56, 64
2, 90876, Note_on_c, 0, 65, 37
2, 91156, Note_off_c, 0, 65, 64
2, 91185, Note_on_c, 0, 61, 35
2, 91488, Note_on_c, 0, 56, 34
2, 91504, Note_off_c, 0, 61, 64
2, 91795, Note_on_c, 0, 53, 32
2, 91814, Note_off_c, 0, 56, 64
2, 92097, Note_on_c, 0, 61, 30
2, 92150, Note_off_c, 0, 53, 64
2, 92404, Note_on_c, 0, 89, 55
2, 92407, Note_on_c, 0, 77, 41
2, 92407, Note_on_c, 0, 56, 28
2, 92433, Note_off_c, 0, 61, 64
2, 92714, Note_on_c, 0, 65, 25
2, 92769, Note_off_c, 0, 56, 64
2, 93014, Note_on_c, 0, 61, 22
2, 93050, Note_off_c, 0, 65, 64
2, 93211, Note_off_c, 0, 77, 64
2, 93254, Note_off_c, 0, 89, 64
2, 93326, Note_on_c, 0, 77, 55
2, 93328, Note_on_c, 0, 89, 67
2, 93328, Note_on_c, 0, 37, 37
2, 93340, Note_off_c, 0, 61, 64
2, 93391, Control_c, 0, 64, 0
2, 93482, Control_c, 0, 64, 127
2, 93626, Note_on_c, 0, 55, 24
2, 93933, Note_on_c, 0, 61, 23
2, 93986, Note_off_c, 0, 55, 64
2, 94236, Note_off_c, 0, 37, 64
2, 94236, Note_on_c, 0, 58, 29
2, 94269, Note_off_c, 0, 61, 64
2, 94543, Note_on_c, 0, 65, 34
2, 94588, Note_off_c, 0, 58, 64
2, 94852, Note_on_c, 0, 61, 36
2, 94881, Note_off_c, 0, 65, 64
2, 95107, Note_off_c, 0, 77, 64
2, 95136, Note_off_c, 0, 61, 64
2, 95152, Note_off_c, 0, 89, 64
2, 95152, Note_on_c, 0, 82, 54
2, 95155, Note_on_c, 0, 58, 34
2, 95160, Note_on_c, 0, 70, 40
2, 95455, Note_off_c, 0, 58, 64
2, 95460, Note_on_c, 0, 55, 32
2, 95565, Note_off_c, 0, 70, 64
2, 95608, Note_off_c, 0, 82, 64
2, 95613, Note_on_c, 0, 84, 56
2, 95616, Note_on_c, 0, 72, 43
2, 95769, Note_on_c, 0, 61, 31
2, 95798, Note_off_c, 0, 55, 64
2, 96024, Note_off_c, 0, 72, 64
2, 96072, Note_on_c, 0, 73, 47
2, 96072, Note_on_c, 0, 85, 57
2, 96076, Note_off_c, 0, 84, 64
2, 96076, Note_on_c, 0, 58, 27
2, 96129, Note_off_c, 0, 61, 64
2, 96376, Note_on_c, 0, 65, 25
2, 96398, Note_off_c, 0, 58, 64
2, 96477, Note_off_c, 0, 73, 64
2, 96528, Note_off_c, 0, 85, 64
2, 96532, Note_on_c, 0, 89, 62
2, 96535, Note_on_c, 0, 77, 48
2, 96681, Note_on_c, 0, 61, 25
2, 96698, Note_off_c, 0, 65, 64
2, 96916, Note_off_c, 0, 89, 64
2, 96919, Note_off_c, 0, 77, 64
2, 96981, Note_on_c, 0, 89, 72
2, 96991, Note_on_c, 0, 77, 47
2, 97027, Note_off_c, 0, 61, 64
2, 97296, Note_on_c, 0, 55, 25
2, 97600, Note_on_c, 0, 61, 29
2, 97641, Note_off_c, 0, 55, 64
2, 97908, Note_on_c, 0, 58, 30
2, 97951, Note_off_c, 0, 61, 64
2, 98215, Note_off_c, 0, 58, 64
2, 98217, Note_on_c, 0, 65, 33
2, 98520, Note_off_c, 0, 65, 64
2, 98520, Note_on_c, 0, 61, 33
2, 98827, Note_on_c, 0, 36, 40
2, 98834, Note_off_c, 0, 61, 64
2, 98844, Control_c, 0, 64, 0
2, 98952, Control_c, 0, 64, 127
2, 99129, Note_on_c, 0, 55, 23
2, 99134, Note_off_c, 0, 36, 64
2, 99182, Note_off_c, 0, 77, 64
2, 99276, Note_off_c, 0, 89, 64
2, 99276, Note_on_c, 0, 88, 63
2, 99288, Note_on_c, 0, 76, 48
2, 99408, Note_off_c, 0, 55, 64
2, 99436, Note_on_c, 0, 61, 26
2, 99691, Note_off_c, 0, 76, 64
2, 99729, Note_on_c, 0, 92, 59
2, 99736, Note_off_c, 0, 88, 64
2, 99744, Note_on_c, 0, 58, 29
2, 99744, Note_on_c, 0, 80, 46
2, 99799, Note_off_c, 0, 61, 64
2, 100048, Note_on_c, 0, 64, 31
2, 100070, Note_off_c, 0, 58, 64
2, 100142, Note_off_c, 0, 80, 64
2, 100188, Note_off_c, 0, 92, 64
2, 100192, Note_on_c, 0, 91, 56
2, 100202, Note_on_c, 0, 79, 45
2, 100353, Note_on_c, 0, 60, 31
2, 100387, Note_off_c, 0, 64, 64
2, 100600, Note_off_c, 0, 79, 64
2, 100648, Note_off_c, 0, 91, 64
2, 100653, Note_on_c, 0, 89, 55
2, 100663, Note_on_c, 0, 77, 40
2, 100663, Note_on_c, 0, 41, 41
2, 100708, Note_off_c, 0, 60, 64
2, 100713, Control_c, 0, 64, 0
2, 100828, Control_c, 0, 64, 127
2, 100963, Note_on_c, 0, 56, 25
2, 101044, Note_off_c, 0, 41, 64
2, 101253, Note_off_c, 0, 56, 64
2, 101268, Note_on_c, 0, 65, 24
2, 101553, Note_off_c, 0, 65, 64
2, 101575, Note_on_c, 0, 60, 29
2, 101882, Note_on_c, 0, 68, 34
2, 101884, Note_off_c, 0, 60, 64
2, 102189, Note_on_c, 0, 65, 35
2, 102225, Note_off_c, 0, 68, 64
2, 102492, Note_on_c, 0, 60, 34
2, 102504, Note_off_c, 0, 65, 64
2, 102657, Note_off_c, 0, 77, 64
2, 102698, Note_off_c, 0, 89, 64
2, 102710, Note_on_c, 0, 80, 46
2, 102777, Note_on_c, 0, 56, 32
2, 102811, Note_off_c, 0, 60, 64
2, 102919, Note_on_c, 0, 77, 43
2, 102967, Note_off_c, 0, 80, 64
2, 103058, Note_on_c, 0, 65, 31
2, 103099, Note_off_c, 0, 56, 64
2, 103130, Note_on_c, 0, 85, 41
2, 103166, Note_off_c, 0, 77, 64
2, 103324, Note_off_c, 0, 65, 64
2, 103341, Note_off_c, 0, 85, 64
2, 103341, Note_on_c, 0, 60, 27
2, 103344, Note_on_c, 0, 84, 42
2, 103550, Note_on_c, 0, 92, 38
2, 103579, Note_off_c, 0, 84, 64
2, 103624, Note_on_c, 0, 68, 25
2, 103656, Note_off_c, 0, 60, 64
2, 103764, Note_on_c, 0, 89, 37
2, 103809, Note_off_c, 0, 92, 64
2, 103903, Note_on_c, 0, 65, 24
2, 103917, Note_off_c, 0, 68, 64
2, 103960, Note_off_c, 0, 89, 64
2, 103975, Note_on_c, 0, 97, 37
2, 104160, Note_off_c, 0, 65, 64
2, 104181, Note_on_c, 0, 96, 34
2, 104215, Note_off_c, 0, 97, 64
2, 104469, Note_on_c, 0, 56, 26
2, 104774, Note_on_c, 0, 65, 28
2, 104791, Note_off_c, 0, 56, 64
2, 105072, Note_off_c, 0, 65, 64
2, 105079, Note_off_c, 0, 96, 64
2, 105086, Note_on_c, 0, 60, 34
2, 105379, Note_off_c, 0, 60, 64
2, 105391, Note_on_c, 0, 68, 36
2, 105696, Note_on_c, 0, 65, 35
2, 105751, Note_off_c, 0, 68, 64
2, 106000, Note_on_c, 0, 60, 34
2, 106046, Note_off_c, 0, 65, 64
2, 106305, Note_on_c, 0, 56, 33
2, 106358, Note_off_c, 0, 60, 64
2, 106581, Note_off_c, 0, 56, 64
2, 106610, Note_on_c, 0, 65, 31
2, 106910, Note_on_c, 0, 72, 49
2, 106917, Note_on_c, 0, 60, 28
2, 106944, Note_off_c, 0, 65, 64
2, 107220, Note_off_c, 0, 60, 64
2, 107224, Note_on_c, 0, 68, 27
2, 107527, Note_off_c, 0, 68, 64
2, 107529, Note_on_c, 0, 65, 24
2, 107647, Control_c, 0, 67, 0
2, 107827, Note_off_c, 0, 72, 64
2, 107834, Note_off_c, 0, 65, 64
2, 107836, Note_on_c, 0, 72, 78
2, 107877, Control_c, 0, 64, 0
2, 107976, Control_c, 0, 64, 127
2, 108136, Note_on_c, 0, 58, 25
2, 108439, Note_on_c, 0, 64, 30
2, 108456, Note_off_c, 0, 58, 64
2, 108744, Note_on_c, 0, 60, 33
2, 108780, Note_off_c, 0, 64, 64
2, 109046, Note_on_c, 0, 67, 34
2, 109099, Note_off_c, 0, 60, 64
2, 109312, Note_off_c, 0, 67, 64
2, 109344, Note_on_c, 0, 64, 34
2, 109632, Note_on_c, 0, 67, 70
2, 109636, Note_off_c, 0, 72, 64
2, 109639, Note_on_c, 0, 60, 32
2, 109658, Note_off_c, 0, 64, 64
2, 109936, Note_on_c, 0, 58, 31
2, 109982, Note_off_c, 0, 60, 64
2, 110073, Note_on_c, 0, 68, 73
2, 110179, Note_off_c, 0, 67, 64
2, 110232, Note_on_c, 0, 64, 31
2, 110282, Note_off_c, 0, 58, 64
2, 110515, Note_on_c, 0, 70, 72
2, 110529, Note_on_c, 0, 60, 26
2, 110548, Note_off_c, 0, 64, 64
2, 110548, Note_off_c, 0, 68, 64
2, 110820, Note_on_c, 0, 67, 26
2, 110868, Note_off_c, 0, 60, 64
2, 110966, Note_on_c, 0, 73, 68
2, 110990, Note_off_c, 0, 70, 64
2, 111112, Note_on_c, 0, 64, 24
2, 111134, Note_off_c, 0, 67, 64
2, 111398, Note_off_c, 0, 73, 64
2, 111420, Note_off_c, 0, 64, 64
2, 111465, Note_on_c, 0, 72, 67
2, 111501, Control_c, 0, 64, 0
2, 111602, Control_c, 0, 64, 127
2, 111748, Note_on_c, 0, 56, 35
2, 112039, Note_on_c, 0, 65, 36
2, 112092, Note_off_c, 0, 56, 64
2, 112324, Note_on_c, 0, 60, 39
2, 112329, Note_off_c, 0, 72, 64
2, 112370, Note_off_c, 0, 65, 64
2, 112579, Note_off_c, 0, 60, 64
2, 112608, Note_on_c, 0, 68, 38
2, 112891, Note_on_c, 0, 65, 41
2, 112924, Note_off_c, 0, 68, 64
2, 113174, Note_on_c, 0, 60, 42
2, 113222, Note_off_c, 0, 65, 64
2, 113445, Note_off_c, 0, 60, 64
2, 113462, Note_on_c, 0, 56, 43
2, 113743, Note_on_c, 0, 65, 43
2, 113748, Note_off_c, 0, 56, 64
2, 114019, Note_on_c, 0, 84, 70
2, 114021, Note_on_c, 0, 60, 45
2, 114038, Note_off_c, 0, 65, 64
2, 114273, Note_off_c, 0, 60, 64
2, 114300, Note_on_c, 0, 68, 44
2, 114559, Note_off_c, 0, 68, 64
2, 114578, Note_on_c, 0, 65, 47
2, 114840, Note_off_c, 0, 65, 64
2, 114852, Note_off_c, 0, 84, 64
2, 114856, Note_on_c, 0, 41, 59
2, 114859, Note_on_c, 0, 70, 75
2, 114902, Control_c, 0, 64, 0
2, 114926, Note_on_c, 0, 76, 76
2, 114991, Note_on_c, 0, 84, 79
2, 114998, Control_c, 0, 64, 127
2, 115125, Note_off_c, 0, 70, 64
2, 115132, Note_off_c, 0, 76, 64
2, 115132, Note_on_c, 0, 58, 36
2, 115368, Note_off_c, 0, 41, 64
2, 115399, Note_off_c, 0, 58, 64
2, 115406, Note_on_c, 0, 64, 34
2, 115680, Note_on_c, 0, 60, 38
2, 115735, Note_off_c, 0, 64, 64
2, 115956, Note_off_c, 0, 84, 64
2, 115960, Note_on_c, 0, 67, 38
2, 115977, Note_off_c, 0, 60, 64
2, 116220, Note_off_c, 0, 67, 64
2, 116234, Note_on_c, 0, 64, 39
2, 116484, Note_off_c, 0, 64, 64
2, 116500, Note_on_c, 0, 79, 54
2, 116510, Note_on_c, 0, 76, 46
2, 116510, Note_on_c, 0, 60, 40
2, 116786, Note_on_c, 0, 58, 40
2, 116796, Note_off_c, 0, 60, 64
2, 116812, Note_off_c, 0, 76, 64
2, 116911, Note_on_c, 0, 80, 64
2, 116916, Note_off_c, 0, 79, 64
2, 116923, Note_on_c, 0, 77, 55
2, 117064, Note_on_c, 0, 64, 42
2, 117069, Note_off_c, 0, 58, 64
2, 117300, Note_off_c, 0, 77, 64
2, 117326, Note_off_c, 0, 80, 64
2, 117331, Note_on_c, 0, 82, 74
2, 117343, Note_on_c, 0, 79, 63
2, 117345, Note_on_c, 0, 60, 45
2, 117386, Note_off_c, 0, 64, 64
2, 117597, Note_off_c, 0, 60, 64
2, 117616, Note_on_c, 0, 67, 45
2, 117717, Note_off_c, 0, 79, 64
2, 117732, Note_off_c, 0, 82, 64
2, 117753, Note_on_c, 0, 85, 86
2, 117758, Note_on_c, 0, 82, 76
2, 117878, Note_off_c, 0, 67, 64
2, 117900, Note_on_c, 0, 64, 46
2, 118168, Note_off_c, 0, 85, 64
2, 118168, Note_off_c, 0, 64, 64
2, 118178, Note_off_c, 0, 82, 64
2, 118377, Note_on_c, 0, 84, 65
2, 118382, Note_on_c, 0, 41, 36
2, 118384, Note_on_c, 0, 81, 40
2, 118461, Control_c, 0, 64, 0
2, 118574, Control_c, 0, 64, 127
2, 118663, Note_on_c, 0, 57, 35
2, 118932, Note_off_c, 0, 57, 64
2, 118948, Note_on_c, 0, 65, 34
2, 119229, Note_off_c, 0, 65, 64
2, 119232, Note_on_c, 0, 60, 33
2, 119272, Note_off_c, 0, 41, 64
2, 119515, Note_on_c, 0, 69, 31
2, 119532, Note_off_c, 0, 60, 64
2, 119786, Note_off_c, 0, 69, 64
2, 119805, Note_on_c, 0, 65, 31
2, 120069, Note_off_c, 0, 65, 64
2, 120088, Note_on_c, 0, 60, 31
2, 120379, Note_off_c, 0, 60, 64
2, 120379, Note_on_c, 0, 57, 28
2, 120518, Note_on_c, 0, 86, 76
2, 120520, Note_off_c, 0, 84, 64
2, 120523, Note_off_c, 0, 81, 64
2, 120528, Note_on_c, 0, 82, 63
2, 120664, Note_on_c, 0, 65, 26
2, 120681, Note_off_c, 0, 57, 64
2, 120885, Note_off_c, 0, 86, 64
2, 120907, Note_off_c, 0, 82, 64
2, 120952, Note_on_c, 0, 81, 72
2, 120960, Note_on_c, 0, 60, 25
2, 120962, Note_on_c, 0, 77, 58
2, 121008, Note_off_c, 0, 65, 64
2, 121252, Note_on_c, 0, 69, 24
2, 121274, Note_off_c, 0, 60, 64
2, 121334, Note_off_c, 0, 81, 64
2, 121351, Note_off_c, 0, 77, 64
2, 121389, Note_on_c, 0, 86, 71
2, 121401, Note_on_c, 0, 82, 57
2, 121519, Note_off_c, 0, 69, 64
2, 121543, Note_on_c, 0, 65, 22
2, 121804, Note_off_c, 0, 82, 64
2, 121809, Note_off_c, 0, 86, 64
2, 121819, Note_off_c, 0, 65, 64
2, 121831, Note_on_c, 0, 84, 62
2, 121838, Note_on_c, 0, 41, 36
2, 121838, Note_on_c, 0, 81, 55
2, 121862, Control_c, 0, 64, 0
2, 121963, Control_c, 0, 64, 127
2, 122128, Note_on_c, 0, 57, 25
2, 122198, Note_off_c, 0, 84, 64
2, 122234, Note_off_c, 0, 81, 64
2, 122272, Note_on_c, 0, 86, 64
2, 122280, Note_on_c, 0, 82, 50
2, 122400, Note_off_c, 0, 57, 64
2, 122428, Note_on_c, 0, 65, 26
2, 122678, Note_off_c, 0, 82, 64
2, 122688, Note_off_c, 0, 86, 64
2, 122714, Note_off_c, 0, 65, 64
2, 122721, Note_on_c, 0, 81, 61
2, 122726, Note_on_c, 0, 60, 29
2, 122728, Note_on_c, 0, 77, 48
2, 123014, Note_off_c, 0, 60, 64
2, 123019, Note_off_c, 0, 41, 64
2, 123021, Note_on_c, 0, 69, 28
2, 123100, Note_off_c, 0, 81, 64
2, 123141, Note_off_c, 0, 77, 64
2, 123163, Note_on_c, 0, 86, 55
2, 123170, Note_on_c, 0, 82, 45
2, 123285, Note_off_c, 0, 69, 64
2, 123321, Note_on_c, 0, 65, 31
2, 123552, Note_off_c, 0, 86, 64
2, 123588, Note_off_c, 0, 82, 64
2, 123590, Note_off_c, 0, 65, 64
2, 123614, Note_on_c, 0, 84, 49
2, 123621, Note_on_c, 0, 41, 34
2, 123621, Note_on_c, 0, 81, 44
2, 123919, Note_on_c, 0, 57, 24
2, 124012, Note_off_c, 0, 84, 64
2, 124036, Note_off_c, 0, 81, 64
2, 124068, Note_on_c, 0, 86, 51
2, 124072, Note_on_c, 0, 82, 41
2, 124221, Note_on_c, 0, 65, 25
2, 124291, Note_off_c, 0, 57, 64
2, 124476, Note_off_c, 0, 82, 64
2, 124485, Note_off_c, 0, 86, 64
2, 124519, Note_on_c, 0, 81, 46
2, 124528, Note_on_c, 0, 77, 37
2, 124531, Note_on_c, 0, 60, 27
2, 124600, Note_off_c, 0, 65, 64
2, 124795, Note_off_c, 0, 60, 64
2, 124828, Note_off_c, 0, 41, 64
2, 124828, Note_on_c, 0, 69, 31
2, 124833, Note_off_c, 0, 81, 64
2, 124944, Note_off_c, 0, 77, 64
2, 124975, Note_on_c, 0, 86, 45
2, 124982, Note_on_c, 0, 82, 34
2, 125138, Note_on_c, 0, 65, 32
2, 125174, Note_off_c, 0, 69, 64
2, 125335, Note_off_c, 0, 82, 64
2, 125378, Note_off_c, 0, 86, 64
2, 125397, Note_off_c, 0, 65, 64
2, 125553, Note_on_c, 0, 84, 34
2, 125565, Note_on_c, 0, 81, 21
2, 125570, Note_on_c, 0, 40, 28
2, 125592, Control_c, 0, 64, 0
2, 125695, Control_c, 0, 64, 127
2, 125872, Note_on_c, 0, 57, 25
2, 126122, Note_off_c, 0, 40, 64
2, 126175, Note_on_c, 0, 64, 23
2, 126220, Note_off_c, 0, 57, 64
2, 126482, Note_on_c, 0, 60, 22
2, 126547, Note_off_c, 0, 64, 64
2, 126782, Note_off_c, 0, 60, 64
2, 126789, Note_on_c, 0, 69, 27
2, 127092, Note_on_c, 0, 64, 30
2, 127116, Note_off_c, 0, 69, 64
2, 127358, Note_off_c, 0, 64, 64
2, 127399, Note_on_c, 0, 60, 33
2, 127586, Note_off_c, 0, 81, 64
2, 127682, Note_off_c, 0, 84, 64
2, 127704, Note_on_c, 0, 57, 33
2, 127761, Note_off_c, 0, 60, 64
2, 127852, Note_on_c, 0, 86, 61
2, 127860, Note_on_c, 0, 83, 47
2, 127972, Note_off_c, 0, 57, 64
2, 128013, Note_on_c, 0, 64, 37
2, 128258, Note_off_c, 0, 86, 64
2, 128284, Note_off_c, 0, 83, 64
2, 128311, Note_on_c, 0, 88, 72
2, 128313, Note_off_c, 0, 64, 64
2, 128318, Note_on_c, 0, 60, 38
2, 128318, Note_on_c, 0, 84, 61
2, 128618, Note_off_c, 0, 60, 64
2, 128620, Note_on_c, 0, 69, 40
2, 128697, Note_off_c, 0, 88, 64
2, 128752, Note_off_c, 0, 84, 64
2, 128764, Note_on_c, 0, 89, 84
2, 128776, Note_on_c, 0, 86, 73
2, 128877, Note_off_c, 0, 69, 64
2, 128928, Note_on_c, 0, 64, 43
2, 129144, Note_off_c, 0, 89, 64
2, 129201, Note_off_c, 0, 86, 64
2, 129211, Note_off_c, 0, 64, 64
2, 129228, Note_on_c, 0, 91, 99
2, 129237, Note_on_c, 0, 88, 86
2, 129237, Note_on_c, 0, 40, 48
2, 129292, Control_c, 0, 64, 0
2, 129398, Control_c, 0, 64, 127
2, 129655, Note_on_c, 0, 56, 35
2, 129813, Note_off_c, 0, 40, 64
2, 129962, Note_off_c, 0, 56, 64
2, 129962, Note_on_c, 0, 64, 36
2, 130104, Note_off_c, 0, 88, 64
2, 130120, Note_off_c, 0, 91, 64
2, 130260, Note_on_c, 0, 89, 76
2, 130262, Note_off_c, 0, 64, 64
2, 130269, Note_on_c, 0, 86, 63
2, 130269, Note_on_c, 0, 59, 33
2, 130684, Note_off_c, 0, 59, 64
2, 130684, Note_on_c, 0, 68, 26
2, 130989, Note_off_c, 0, 68, 64
2, 130989, Note_on_c, 0, 64, 22
2, 131172, Note_off_c, 0, 86, 64
2, 131174, Note_off_c, 0, 89, 64
2, 131289, Note_on_c, 0, 88, 70
2, 131296, Note_off_c, 0, 64, 64
2, 131299, Note_on_c, 0, 84, 58
2, 132172, Note_off_c, 0, 84, 64
2, 132196, Note_off_c, 0, 88, 64
2, 132319, Note_on_c, 0, 86, 60
2, 132331, Note_on_c, 0, 83, 51
2, 133274, Note_off_c, 0, 83, 64
2, 133286, Note_off_c, 0, 86, 64
2, 133353, Note_on_c, 0, 84, 52
2, 133360, Control_c, 0, 64, 0
2, 133363, Note_on_c, 0, 81, 40
2, 133363, Note_on_c, 0, 45, 37
2, 133459, Control_c, 0, 64, 127
2, 133665, Note_on_c, 0, 60, 22
2, 133852, Note_off_c, 0, 45, 64
2, 133970, Note_on_c, 0, 69, 25
2, 133992, Note_off_c, 0, 60, 64
2, 134193, Note_off_c, 0, 81, 64
2, 134220, Note_off_c, 0, 84, 64
2, 134265, Note_off_c, 0, 69, 64
2, 134275, Note_on_c, 0, 64, 29
2, 134584, Note_on_c, 0, 72, 34
2, 134618, Note_off_c, 0, 64, 64
2, 134889, Note_on_c, 0, 69, 34
2, 134952, Note_off_c, 0, 72, 64
2, 135192, Note_on_c, 0, 64, 34
2, 135235, Note_off_c, 0, 69, 64
2, 135499, Note_on_c, 0, 60, 32
2, 135504, Note_off_c, 0, 64, 64
2, 135801, Note_on_c, 0, 69, 27
2, 135864, Note_off_c, 0, 60, 64
2, 136087, Note_off_c, 0, 69, 64
2, 136101, Note_on_c, 0, 76, 71
2, 136111, Note_on_c, 0, 64, 27
2, 136418, Note_on_c, 0, 72, 23
2, 136454, Note_off_c, 0, 64, 64
2, 136718, Note_on_c, 0, 69, 23
2, 136783, Note_off_c, 0, 72, 64
2, 136987, Note_off_c, 0, 76, 64
2, 137006, Note_off_c, 0, 69, 64
2, 137020, Note_on_c, 0, 76, 66
2, 137049, Control_c, 0, 64, 0
2, 137152, Control_c, 0, 64, 127
2, 137318, Note_on_c, 0, 62, 22
2, 137611, Note_on_c, 0, 68, 26
2, 137618, Note_off_c, 0, 62, 64
2, 137868, Note_off_c, 0, 68, 64
2, 137904, Note_on_c, 0, 64, 24
2, 138204, Note_on_c, 0, 71, 25
2, 138213, Note_off_c, 0, 64, 64
2, 138494, Note_on_c, 0, 68, 29
2, 138525, Note_off_c, 0, 71, 64
2, 138751, Note_off_c, 0, 68, 64
2, 138784, Note_on_c, 0, 71, 60
2, 138787, Note_off_c, 0, 76, 64
2, 138787, Note_on_c, 0, 64, 30
2, 139063, Note_off_c, 0, 64, 64
2, 139077, Note_on_c, 0, 62, 31
2, 139219, Note_on_c, 0, 72, 63
2, 139336, Note_off_c, 0, 62, 64
2, 139368, Note_on_c, 0, 68, 30
2, 139372, Note_off_c, 0, 71, 64
2, 139646, Note_on_c, 0, 64, 31
2, 139651, Note_on_c, 0, 74, 75
2, 139699, Note_off_c, 0, 68, 64
2, 139802, Note_off_c, 0, 72, 64
2, 139929, Note_off_c, 0, 64, 64
2, 139934, Note_on_c, 0, 71, 31
2, 140073, Note_on_c, 0, 77, 87
2, 140157, Note_off_c, 0, 74, 64
2, 140212, Note_off_c, 0, 71, 64
2, 140217, Note_on_c, 0, 68, 35
2, 140500, Note_on_c, 0, 76, 67
2, 140508, Note_off_c, 0, 68, 64
2, 140541, Control_c, 0, 64, 0
2, 140577, Note_off_c, 0, 77, 64
2, 140649, Control_c, 0, 64, 127
2, 140776, Note_on_c, 0, 60, 38
2, 141055, Note_on_c, 0, 69, 39
2, 141076, Note_off_c, 0, 60, 64
2, 141316, Note_off_c, 0, 69, 64
2, 141333, Note_off_c, 0, 76, 64
2, 141338, Note_on_c, 0, 64, 40
2, 141612, Note_on_c, 0, 72, 38
2, 141616, Note_off_c, 0, 64, 64
2, 141859, Note_off_c, 0, 72, 64
2, 141885, Note_on_c, 0, 69, 40
2, 142137, Note_off_c, 0, 69, 64
2, 142154, Note_on_c, 0, 64, 40
2, 142425, Note_on_c, 0, 60, 42
2, 142473, Note_off_c, 0, 64, 64
2, 142692, Note_off_c, 0, 60, 64
2, 142699, Note_on_c, 0, 69, 44
2, 142963, Note_on_c, 0, 88, 80
2, 142970, Note_on_c, 0, 64, 43
2, 142982, Note_off_c, 0, 69, 64
2, 143232, Note_on_c, 0, 72, 47
2, 143265, Note_off_c, 0, 64, 64
2, 143496, Note_off_c, 0, 72, 64
2, 143498, Note_on_c, 0, 69, 48
2, 143750, Note_off_c, 0, 69, 64
2, 143767, Note_off_c, 0, 88, 64
2, 143769, Note_on_c, 0, 74, 85
2, 143772, Note_on_c, 0, 44, 61
2, 143834, Note_on_c, 0, 80, 84
2, 143892, Note_off_c, 0, 74, 64
2, 143892, Note_off_c, 0, 80, 64
2, 143899, Note_on_c, 0, 88, 82
2, 143908, Control_c, 0, 64, 0
2, 144007, Control_c, 0, 64, 127
2, 144026, Note_on_c, 0, 62, 47
2, 144187, Note_off_c, 0, 44, 64
2, 144297, Note_on_c, 0, 68, 48
2, 144326, Note_off_c, 0, 62, 64
2, 144561, Note_on_c, 0, 64, 47
2, 144600, Note_off_c, 0, 68, 64
2, 144820, Note_off_c, 0, 88, 64
2, 144828, Note_on_c, 0, 71, 49
2, 144880, Note_off_c, 0, 64, 64
2, 145084, Note_off_c, 0, 71, 64
2, 145087, Note_on_c, 0, 68, 53
2, 145351, Note_on_c, 0, 83, 58
2, 145358, Note_on_c, 0, 80, 50
2, 145360, Note_on_c, 0, 64, 54
2, 145406, Note_off_c, 0, 68, 64
2, 145624, Note_off_c, 0, 64, 64
2, 145634, Note_on_c, 0, 62, 56
2, 145711, Note_off_c, 0, 80, 64
2, 145759, Note_on_c, 0, 84, 62
2, 145764, Note_off_c, 0, 83, 64
2, 145773, Note_on_c, 0, 80, 52
2, 145896, Note_off_c, 0, 62, 64
2, 145908, Note_on_c, 0, 68, 56
2, 146179, Note_off_c, 0, 84, 64
2, 146184, Note_off_c, 0, 68, 64
2, 146186, Note_off_c, 0, 80, 64
2, 146188, Note_on_c, 0, 86, 73
2, 146188, Note_on_c, 0, 64, 58
2, 146191, Note_on_c, 0, 83, 60
2, 146472, Note_on_c, 0, 71, 57
2, 146515, Note_off_c, 0, 64, 64
2, 146548, Note_off_c, 0, 86, 64
2, 146606, Note_on_c, 0, 89, 80
2, 146616, Note_off_c, 0, 83, 64
2, 146618, Note_on_c, 0, 86, 69
2, 146757, Note_on_c, 0, 68, 60
2, 146791, Note_off_c, 0, 71, 64
2, 147038, Note_off_c, 0, 89, 64
2, 147045, Note_off_c, 0, 86, 64
2, 147091, Note_off_c, 0, 68, 64
2, 147240, Note_on_c, 0, 88, 61
2, 147249, Note_on_c, 0, 85, 41
2, 147249, Note_on_c, 0, 45, 38
2, 147278, Control_c, 0, 64, 0
2, 147381, Control_c, 0, 64, 127
2, 147537, Note_on_c, 0, 61, 36
2, 147763, Note_off_c, 0, 45, 64
2, 147835, Note_on_c, 0, 69, 36
2, 147849, Note_off_c, 0, 61, 64
2, 148132, Note_on_c, 0, 64, 34
2, 148171, Note_off_c, 0, 69, 64
2, 148430, Note_off_c, 0, 64, 64
2, 148442, Note_on_c, 0, 73, 34
2, 148742, Note_off_c, 0, 73, 64
2, 148749, Note_on_c, 0, 69, 32
2, 149061, Note_on_c, 0, 64, 31
2, 149071, Note_off_c, 0, 69, 64
2, 149376, Note_on_c, 0, 61, 28
2, 149412, Note_off_c, 0, 64, 64
2, 149524, Note_off_c, 0, 88, 64
2, 149529, Note_on_c, 0, 90, 66
2, 149536, Note_off_c, 0, 85, 64
2, 149536, Note_on_c, 0, 86, 56
2, 149695, Note_on_c, 0, 69, 27
2, 149757, Note_off_c, 0, 61, 64
2, 149959, Note_off_c, 0, 90, 64
2, 149968, Note_off_c, 0, 86, 64
2, 149978, Note_off_c, 0, 69, 64
2, 150012, Note_on_c, 0, 85, 63
2, 150021, Note_on_c, 0, 64, 27
2, 150021, Note_on_c, 0, 81, 51
2, 150316, Note_off_c, 0, 64, 64
2, 150348, Note_on_c, 0, 73, 24
2, 150465, Note_off_c, 0, 85, 64
2, 150482, Note_off_c, 0, 81, 64
2, 150508, Note_on_c, 0, 90, 60
2, 150516, Note_on_c, 0, 86, 49
2, 150648, Note_off_c, 0, 73, 64
2, 150676, Note_on_c, 0, 69, 25
2, 150969, Note_off_c, 0, 90, 64
2, 150979, Note_off_c, 0, 69, 64
2, 150986, Note_off_c, 0, 86, 64
2, 151015, Note_on_c, 0, 88, 58
2, 151022, Note_on_c, 0, 45, 48
2, 151027, Note_on_c, 0, 85, 46
2, 151056, Control_c, 0, 64, 0
2, 151147, Control_c, 0, 64, 127
2, 151363, Note_on_c, 0, 61, 25
2, 151394, Note_off_c, 0, 45, 64
2, 151447, Note_off_c, 0, 88, 64
2, 151447, Note_off_c, 0, 85, 64
2, 151531, Note_on_c, 0, 90, 56
2, 151536, Note_on_c, 0, 86, 43
2, 151708, Note_on_c, 0, 69, 22
2, 151773, Note_off_c, 0, 61, 64
2, 151992, Note_off_c, 0, 90, 64
2, 152011, Note_off_c, 0, 69, 64
2, 152037, Note_off_c, 0, 86, 64
2, 152054, Note_on_c, 0, 85, 52
2, 152061, Note_on_c, 0, 64, 25
2, 152061, Note_on_c, 0, 81, 39
2, 152416, Note_on_c, 0, 73, 31
2, 152455, Note_off_c, 0, 64, 64
2, 152541, Note_off_c, 0, 85, 64
2, 152546, Note_off_c, 0, 81, 64
2, 152592, Note_on_c, 0, 90, 51
2, 152599, Note_on_c, 0, 86, 40
2, 152755, Note_off_c, 0, 73, 64
2, 152779, Note_on_c, 0, 69, 34
2, 153088, Note_off_c, 0, 90, 64
2, 153098, Note_off_c, 0, 86, 64
2, 153144, Note_on_c, 0, 88, 47
2, 153156, Note_on_c, 0, 45, 35
2, 153156, Note_on_c, 0, 85, 35
2, 153184, Note_off_c, 0, 69, 64
2, 153184, Control_c, 0, 64, 0
2, 153297, Control_c, 0, 64, 127
2, 153523, Note_on_c, 0, 61, 22
2, 153650, Note_off_c, 0, 88, 64
2, 153652, Note_off_c, 0, 85, 64
2, 153705, Note_on_c, 0, 90, 51
2, 153715, Note_on_c, 0, 86, 33
2, 153796, Note_off_c, 0, 45, 64
2, 153902, Note_on_c, 0, 69, 24
2, 153988, Note_off_c, 0, 61, 64
2, 154180, Note_off_c, 0, 86, 64
2, 154209, Note_off_c, 0, 90, 64
2, 154274, Note_on_c, 0, 85, 36
2, 154291, Note_on_c, 0, 81, 24
2, 154296, Note_on_c, 0, 64, 27
2, 154310, Note_off_c, 0, 69, 64
2, 154687, Note_on_c, 0, 73, 31
2, 154711, Note_off_c, 0, 64, 64
2, 154790, Note_off_c, 0, 81, 64
2, 154819, Note_off_c, 0, 85, 64
2, 154874, Note_on_c, 0, 90, 40
2, 154881, Note_on_c, 0, 86, 22
2, 155083, Note_on_c, 0, 69, 33
2, 155181, Note_off_c, 0, 73, 64
2, 155378, Note_off_c, 0, 86, 64
2, 155438, Note_off_c, 0, 90, 64
2, 155464, Note_off_c, 0, 69, 64
2, 155479, Note_on_c, 0, 89, 52
2, 155481, Note_on_c, 0, 85, 37
2, 155488, Note_on_c, 0, 44, 37
2, 155515, Control_c, 0, 64, 0
2, 155613, Control_c, 0, 64, 127
2, 155870, Note_on_c, 0, 61, 24
2, 156153, Note_off_c, 0, 44, 64
2, 156249, Note_on_c, 0, 68, 24
2, 156314, Note_off_c, 0, 61, 64
2, 156472, Note_off_c, 0, 85, 64
2, 156525, Note_off_c, 0, 89, 64
2, 156612, Note_on_c, 0, 90, 64
2, 156621, Note_on_c, 0, 65, 25
2, 156624, Note_on_c, 0, 78, 49
2, 156626, Note_on_c, 0, 87, 50
2, 156684, Note_off_c, 0, 68, 64
2, 156967, Note_off_c, 0, 65, 64
2, 156976, Note_on_c, 0, 73, 30
2, 157336, Note_on_c, 0, 68, 31
2, 157418, Note_off_c, 0, 73, 64
2, 157612, Note_off_c, 0, 90, 64
2, 157622, Note_off_c, 0, 87, 64
2, 157636, Note_off_c, 0, 78, 64
2, 157672, Note_off_c, 0, 68, 64
2, 157675, Note_on_c, 0, 92, 71
2, 157682, Note_on_c, 0, 89, 60
2, 157682, Note_on_c, 0, 80, 58
2, 157687, Note_on_c, 0, 65, 35
2, 158018, Note_on_c, 0, 61, 38
2, 158023, Note_off_c, 0, 65, 64
2, 158352, Note_off_c, 0, 61, 64
2, 158352, Note_on_c, 0, 56, 38
2, 158517, Note_off_c, 0, 92, 64
2, 158553, Note_off_c, 0, 80, 64
2, 158565, Note_off_c, 0, 89, 64
2, 158664, Note_on_c, 0, 94, 80
2, 158676, Note_on_c, 0, 82, 65
2, 158676, Note_on_c, 0, 53, 42
2, 158678, Note_on_c, 0, 90, 69
2, 158740, Note_off_c, 0, 56, 64
2, 158990, Note_on_c, 0, 61, 45
2, 159043, Note_off_c, 0, 53, 64
2, 159297, Note_on_c, 0, 56, 47
2, 159307, Note_off_c, 0, 61, 64
2, 159489, Note_off_c, 0, 94, 64
2, 159530, Note_off_c, 0, 90, 64
2, 159544, Note_off_c, 0, 82, 64
2, 159604, Note_on_c, 0, 94, 103
2, 159614, Note_on_c, 0, 82, 74
2, 159614, Note_on_c, 0, 90, 76
2, 159614, Note_on_c, 0, 44, 59
2, 159621, Note_off_c, 0, 56, 64
2, 159660, Control_c, 0, 64, 0
2, 159763, Control_c, 0, 64, 127
2, 159909, Note_on_c, 0, 54, 47
2, 160219, Note_on_c, 0, 63, 46
2, 160226, Note_off_c, 0, 54, 64
2, 160497, Note_off_c, 0, 44, 64
2, 160524, Note_on_c, 0, 60, 47
2, 160540, Note_off_c, 0, 63, 64
2, 160809, Note_off_c, 0, 60, 64
2, 160833, Note_on_c, 0, 68, 45
2, 161028, Note_off_c, 0, 82, 64
2, 161136, Note_on_c, 0, 63, 45
2, 161203, Note_off_c, 0, 68, 64
2, 161224, Note_off_c, 0, 90, 64
2, 161464, Note_on_c, 0, 60, 44
2, 161517, Note_off_c, 0, 63, 64
2, 161817, Note_on_c, 0, 54, 43
2, 161880, Note_off_c, 0, 60, 64
2, 161923, Note_off_c, 0, 94, 64
2, 161992, Note_on_c, 0, 92, 81
2, 162002, Note_on_c, 0, 80, 69
2, 162002, Note_on_c, 0, 89, 69
2, 162194, Note_on_c, 0, 63, 39
2, 162264, Note_off_c, 0, 54, 64
2, 162523, Note_off_c, 0, 89, 64
2, 162609, Note_off_c, 0, 92, 64
2, 162609, Note_on_c, 0, 90, 77
2, 162612, Note_off_c, 0, 63, 64
2, 162616, Note_off_c, 0, 80, 64
2, 162621, Note_on_c, 0, 78, 62
2, 162624, Note_on_c, 0, 87, 65
2, 162626, Note_on_c, 0, 60, 39
2, 163087, Note_on_c, 0, 68, 37
2, 163106, Note_off_c, 0, 60, 64
2, 163123, Note_off_c, 0, 87, 64
2, 163200, Note_off_c, 0, 78, 64
2, 163317, Note_off_c, 0, 90, 64
2, 163324, Note_on_c, 0, 87, 70
2, 163334, Note_on_c, 0, 75, 58
2, 163344, Note_on_c, 0, 80, 58
2, 163579, Note_on_c, 0, 63, 38
2, 163644, Note_off_c, 0, 68, 64
2, 163922, Note_off_c, 0, 75, 64
2, 164042, Note_off_c, 0, 87, 64
2, 164052, Note_off_c, 0, 80, 64
2, 164073, Note_on_c, 0, 89, 66
2, 164076, Note_off_c, 0, 63, 64
2, 164078, Note_on_c, 0, 37, 35
2, 164083, Note_on_c, 0, 85, 54
2, 164083, Note_on_c, 0, 77, 52
2, 164119, Control_c, 0, 64, 0
2, 164227, Control_c, 0, 64, 127
2, 164383, Note_on_c, 0, 53, 25
2, 164534, Note_off_c, 0, 37, 64
2, 164688, Note_on_c, 0, 61, 23
2, 164731, Note_off_c, 0, 53, 64
2, 164995, Note_on_c, 0, 56, 34
2, 165048, Note_off_c, 0, 61, 64
2, 165302, Note_on_c, 0, 68, 35
2, 165348, Note_off_c, 0, 56, 64
2, 165532, Note_off_c, 0, 77, 64
2, 165607, Note_on_c, 0, 61, 35
2, 165669, Note_off_c, 0, 68, 64
2, 165686, Note_off_c, 0, 89, 64
2, 165772, Note_off_c, 0, 85, 64
2, 165912, Note_on_c, 0, 56, 32
2, 165924, Note_off_c, 0, 61, 64
2, 166197, Note_off_c, 0, 56, 64
2, 166214, Note_on_c, 0, 53, 32
2, 166521, Note_on_c, 0, 61, 29
2, 166540, Note_off_c, 0, 53, 64
2, 166788, Note_off_c, 0, 61, 64
2, 166831, Note_on_c, 0, 56, 26
2, 167100, Note_off_c, 0, 56, 64
2, 167133, Note_on_c, 0, 68, 25
2, 167400, Note_off_c, 0, 68, 64
2, 167440, Note_on_c, 0, 61, 24
2, 167748, Note_on_c, 0, 37, 35
2, 167820, Note_off_c, 0, 61, 64
2, 168050, Note_on_c, 0, 53, 25
2, 168357, Note_on_c, 0, 61, 23
2, 168424, Note_off_c, 0, 53, 64
2, 168624, Note_off_c, 0, 61, 64
2, 168662, Note_on_c, 0, 56, 28
2, 168969, Note_on_c, 0, 68, 34
2, 168993, Note_off_c, 0, 56, 64
2, 169272, Note_on_c, 0, 61, 36
2, 169317, Note_off_c, 0, 68, 64
2, 169351, Note_off_c, 0, 37, 64
2, 169545, Note_off_c, 0, 61, 64
2, 169579, Note_on_c, 0, 56, 33
2, 169881, Note_on_c, 0, 53, 30
2, 169941, Note_off_c, 0, 56, 64
2, 170191, Note_on_c, 0, 61, 30
2, 170215, Note_off_c, 0, 53, 64
2, 170498, Note_on_c, 0, 65, 48
2, 170498, Note_on_c, 0, 56, 28
2, 170568, Note_off_c, 0, 61, 64
2, 170800, Note_on_c, 0, 68, 25
2, 170860, Note_off_c, 0, 56, 64
2, 171105, Note_on_c, 0, 61, 22
2, 171110, Note_off_c, 0, 68, 64
2, 171364, Note_off_c, 0, 65, 64
2, 171372, Note_off_c, 0, 61, 64
2, 171417, Note_on_c, 0, 65, 59
2, 171468, Control_c, 0, 64, 0
2, 171566, Control_c, 0, 64, 127
2, 171722, Note_on_c, 0, 49, 27
2, 172024, Note_on_c, 0, 58, 28
2, 172027, Note_off_c, 0, 49, 64
2, 172334, Note_off_c, 0, 58, 64
2, 172336, Note_on_c, 0, 55, 34
2, 172620, Note_off_c, 0, 65, 64
2, 172636, Note_off_c, 0, 55, 64
2, 172663, Note_on_c, 0, 65, 34
2, 172989, Note_off_c, 0, 65, 64
2, 172996, Note_on_c, 0, 58, 20
2, 173299, Note_off_c, 0, 58, 64
2, 173335, Note_on_c, 0, 58, 59
2, 173880, Note_on_c, 0, 60, 49
2, 173899, Note_off_c, 0, 58, 64
2, 173932, Control_c, 0, 64, 0
2, 174393, Note_off_c, 0, 60, 64
2, 174439, Note_on_c, 0, 61, 51
2, 175036, Note_on_c, 0, 65, 57
2, 175171, Note_off_c, 0, 61, 64
2, 175485, Note_off_c, 0, 65, 64
2, 175632, Control_c, 0, 64, 127
2, 175634, Note_on_c, 0, 65, 61
2, 175939, Note_on_c, 0, 49, 25
2, 176239, Note_on_c, 0, 60, 30
2, 176275, Note_off_c, 0, 49, 64
2, 176558, Note_on_c, 0, 56, 34
2, 176611, Note_off_c, 0, 60, 64
2, 176877, Note_off_c, 0, 56, 64
2, 176882, Note_on_c, 0, 66, 34
2, 177213, Note_on_c, 0, 60, 22
2, 177300, Note_off_c, 0, 66, 64
2, 177571, Note_off_c, 0, 60, 64
2, 178092, Note_off_c, 0, 65, 64
2, 178092, Note_on_c, 0, 63, 53
2, 178092, Control_c, 0, 64, 0
2, 178658, Note_on_c, 0, 65, 47
2, 178684, Note_off_c, 0, 63, 64
2, 179251, Note_on_c, 0, 63, 40
2, 179280, Note_off_c, 0, 65, 64
2, 179695, Note_off_c, 0, 63, 64
2, 179848, Control_c, 0, 64, 127
2, 179851, Note_on_c, 0, 61, 34
2, 180230, Note_on_c, 0, 49, 24
2, 180602, Note_on_c, 0, 56, 27
2, 180621, Note_off_c, 0, 49, 64
2, 180957, Note_off_c, 0, 61, 64
2, 180957, Note_on_c, 0, 65, 29
2, 181017, Note_off_c, 0, 56, 64
2, 181300, Note_on_c, 0, 61, 32
2, 181303, Note_off_c, 0, 65, 64
2, 181636, Note_on_c, 0, 70, 36
2, 181656, Note_off_c, 0, 61, 64
2, 181963, Note_on_c, 0, 68, 40
2, 181972, Note_off_c, 0, 70, 64
2, 182277, Note_on_c, 0, 77, 41
2, 182306, Note_off_c, 0, 68, 64
2, 182582, Note_on_c, 0, 73, 44
2, 182589, Note_off_c, 0, 77, 64
2, 182889, Note_on_c, 0, 82, 49
2, 182961, Note_off_c, 0, 73, 64
2, 183187, Note_off_c, 0, 82, 64
2, 183192, Note_on_c, 0, 80, 46
2, 183489, Note_off_c, 0, 80, 64
2, 183494, Note_on_c, 0, 77, 43
2, 183801, Note_on_c, 0, 73, 40
2, 183847, Note_off_c, 0, 77, 64
2, 184111, Note_on_c, 0, 70, 38
2, 184120, Note_off_c, 0, 73, 64
2, 184418, Note_on_c, 0, 68, 37
2, 184420, Note_off_c, 0, 70, 64
2, 184725, Note_on_c, 0, 65, 34
2, 184766, Note_off_c, 0, 68, 64
2, 185030, Note_on_c, 0, 61, 49
2, 185088, Note_off_c, 0, 65, 64
2, 185335, Note_on_c, 0, 56, 46
2, 185383, Note_off_c, 0, 61, 64
2, 185611, Note_off_c, 0, 56, 64
2, 185640, Note_on_c, 0, 53, 35
2, 185947, Note_on_c, 0, 61, 37
2, 185961, Note_off_c, 0, 53, 64
2, 186249, Note_on_c, 0, 56, 43
2, 186309, Note_off_c, 0, 61, 64
2, 186547, Note_on_c, 0, 89, 55
2, 186554, Note_on_c, 0, 77, 41
2, 186556, Note_on_c, 0, 65, 46
2, 186585, Note_off_c, 0, 56, 64
2, 186864, Note_on_c, 0, 61, 49
2, 186868, Note_off_c, 0, 65, 64
2, 187164, Note_on_c, 0, 56, 34
2, 187202, Note_off_c, 0, 61, 64
2, 187430, Note_off_c, 0, 89, 64
2, 187432, Note_off_c, 0, 77, 64
2, 187468, Note_off_c, 0, 56, 64
2, 187476, Note_on_c, 0, 77, 53
2, 187476, Note_on_c, 0, 37, 42
2, 187538, Control_c, 0, 64, 0
2, 187588, Note_on_c, 0, 89, 66
2, 187641, Control_c, 0, 64, 127
2, 187780, Note_on_c, 0, 55, 23
2, 187888, Note_off_c, 0, 37, 64
2, 188059, Note_off_c, 0, 55, 64
2, 188085, Note_on_c, 0, 61, 25
2, 188392, Note_on_c, 0, 58, 28
2, 188404, Note_off_c, 0, 61, 64
2, 188656, Note_off_c, 0, 58, 64
2, 188695, Note_on_c, 0, 65, 37
2, 189000, Note_on_c, 0, 61, 34
2, 189031, Note_off_c, 0, 65, 64
2, 189302, Note_on_c, 0, 82, 54
2, 189304, Note_off_c, 0, 89, 64
2, 189309, Note_off_c, 0, 77, 64
2, 189312, Note_on_c, 0, 58, 32
2, 189312, Note_on_c, 0, 70, 41
2, 189357, Note_off_c, 0, 61, 64
2, 189612, Note_on_c, 0, 55, 30
2, 189684, Note_off_c, 0, 58, 64
2, 189710, Note_off_c, 0, 70, 64
2, 189753, Note_off_c, 0, 82, 64
2, 189760, Note_on_c, 0, 84, 56
2, 189765, Note_on_c, 0, 72, 42
2, 189919, Note_on_c, 0, 61, 28
2, 189940, Note_off_c, 0, 55, 64
2, 190161, Note_off_c, 0, 72, 64
2, 190214, Note_off_c, 0, 84, 64
2, 190214, Note_on_c, 0, 85, 57
2, 190224, Note_on_c, 0, 73, 47
2, 190228, Note_on_c, 0, 58, 25
2, 190245, Note_off_c, 0, 61, 64
2, 190504, Note_off_c, 0, 58, 64
2, 190528, Note_on_c, 0, 65, 24
2, 190620, Note_off_c, 0, 73, 64
2, 190672, Note_off_c, 0, 85, 64
2, 190675, Note_on_c, 0, 89, 61
2, 190682, Note_on_c, 0, 77, 49
2, 190838, Note_on_c, 0, 61, 22
2, 190860, Note_off_c, 0, 65, 64
2, 191080, Note_off_c, 0, 77, 64
2, 191131, Note_off_c, 0, 89, 64
2, 191133, Note_on_c, 0, 89, 66
2, 191145, Control_c, 0, 64, 0
2, 191148, Note_on_c, 0, 77, 52
2, 191148, Note_on_c, 0, 37, 42
2, 191157, Note_off_c, 0, 61, 64
2, 191244, Control_c, 0, 64, 127
2, 191445, Note_on_c, 0, 54, 22
2, 191671, Note_off_c, 0, 37, 64
2, 191750, Note_on_c, 0, 60, 22
2, 191776, Note_off_c, 0, 54, 64
2, 192040, Note_off_c, 0, 60, 64
2, 192060, Note_on_c, 0, 56, 31
2, 192362, Note_on_c, 0, 65, 35
2, 192379, Note_off_c, 0, 56, 64
2, 192667, Note_on_c, 0, 60, 36
2, 192696, Note_off_c, 0, 65, 64
2, 192972, Note_on_c, 0, 56, 34
2, 193039, Note_off_c, 0, 60, 64
2, 193284, Note_on_c, 0, 54, 31
2, 193332, Note_off_c, 0, 56, 64
2, 193375, Note_off_c, 0, 77, 64
2, 193425, Note_off_c, 0, 89, 64
2, 193428, Note_on_c, 0, 87, 63
2, 193435, Note_on_c, 0, 75, 50
2, 193586, Note_on_c, 0, 60, 29
2, 193658, Note_off_c, 0, 54, 64
2, 193828, Note_off_c, 0, 75, 64
2, 193881, Note_off_c, 0, 87, 64
2, 193884, Note_on_c, 0, 89, 58
2, 193893, Note_on_c, 0, 56, 26
2, 193893, Note_on_c, 0, 77, 46
2, 193903, Note_off_c, 0, 60, 64
2, 194176, Note_off_c, 0, 56, 64
2, 194198, Note_on_c, 0, 63, 24
2, 194292, Note_off_c, 0, 77, 64
2, 194340, Note_on_c, 0, 87, 51
2, 194344, Note_off_c, 0, 89, 64
2, 194349, Note_on_c, 0, 75, 39
2, 194505, Note_on_c, 0, 60, 25
2, 194524, Note_off_c, 0, 63, 64
2, 194750, Note_off_c, 0, 75, 64
2, 194798, Note_off_c, 0, 87, 64
2, 194805, Note_off_c, 0, 60, 64
2, 194911, Note_on_c, 0, 85, 34
2, 194920, Note_on_c, 0, 37, 37
2, 194923, Note_on_c, 0, 73, 22
2, 194961, Control_c, 0, 64, 0
2, 195069, Control_c, 0, 64, 127
2, 195223, Note_on_c, 0, 53, 25
2, 195345, Note_off_c, 0, 37, 64
2, 195528, Note_on_c, 0, 61, 25
2, 195585, Note_off_c, 0, 53, 64
2, 195801, Note_off_c, 0, 61, 64
2, 195832, Note_on_c, 0, 59, 30
2, 196096, Note_off_c, 0, 59, 64
2, 196140, Note_on_c, 0, 68, 36
2, 196447, Note_off_c, 0, 68, 64
2, 196447, Note_on_c, 0, 61, 37
2, 196562, Note_off_c, 0, 73, 64
2, 196752, Note_on_c, 0, 59, 34
2, 196783, Note_off_c, 0, 61, 64
2, 196970, Note_off_c, 0, 85, 64
2, 196972, Note_on_c, 0, 77, 34
2, 197047, Note_on_c, 0, 53, 31
2, 197078, Note_off_c, 0, 59, 64
2, 197188, Note_on_c, 0, 73, 40
2, 197191, Note_off_c, 0, 77, 64
2, 197316, Note_off_c, 0, 53, 64
2, 197325, Note_on_c, 0, 61, 28
2, 197395, Note_off_c, 0, 73, 64
2, 197395, Note_on_c, 0, 82, 45
2, 197580, Note_off_c, 0, 82, 64
2, 197604, Note_on_c, 0, 59, 26
2, 197606, Note_off_c, 0, 61, 64
2, 197606, Note_on_c, 0, 80, 48
2, 197803, Note_off_c, 0, 80, 64
2, 197812, Note_on_c, 0, 89, 54
2, 197860, Note_off_c, 0, 59, 64
2, 197887, Note_on_c, 0, 68, 26
2, 198024, Note_on_c, 0, 85, 58
2, 198038, Note_off_c, 0, 89, 64
2, 198160, Note_on_c, 0, 61, 22
2, 198216, Note_off_c, 0, 68, 64
2, 198228, Note_on_c, 0, 94, 59
2, 198280, Note_off_c, 0, 85, 64
2, 198427, Note_off_c, 0, 61, 64
2, 198439, Note_on_c, 0, 92, 46
2, 198463, Note_off_c, 0, 94, 64
2, 198722, Note_on_c, 0, 53, 24
2, 198967, Note_off_c, 0, 53, 64
2, 199029, Note_on_c, 0, 61, 28
2, 199336, Note_off_c, 0, 92, 64
2, 199339, Note_on_c, 0, 59, 30
2, 199380, Note_off_c, 0, 61, 64
2, 199639, Note_on_c, 0, 68, 37
2, 199692, Note_off_c, 0, 59, 64
2, 199948, Note_on_c, 0, 61, 36
2, 200032, Note_off_c, 0, 68, 64
2, 200256, Note_on_c, 0, 59, 30
2, 200318, Note_off_c, 0, 61, 64
2, 200558, Note_on_c, 0, 53, 24
2, 200594, Note_off_c, 0, 59, 64
2, 200829, Note_off_c, 0, 53, 64
2, 200865, Note_on_c, 0, 61, 22
2, 201168, Note_on_c, 0, 59, 28
2, 201235, Note_off_c, 0, 61, 64
2, 201472, Note_off_c, 0, 59, 64
2, 201475, Note_on_c, 0, 68, 37
2, 201626, Note_on_c, 0, 61, 48
2, 201633, Control_c, 0, 64, 0
2, 201732, Note_off_c, 0, 61, 64
2, 201784, Note_on_c, 0, 61, 48
2, 201784, Control_c, 0, 64, 127
2, 201787, Note_on_c, 0, 37, 37
2, 201828, Note_off_c, 0, 68, 64
2, 202087, Note_on_c, 0, 49, 23
2, 202111, Note_off_c, 0, 61, 64
2, 202396, Note_on_c, 0, 58, 24
2, 202404, Note_off_c, 0, 49, 64
2, 202699, Note_on_c, 0, 54, 29
2, 202728, Note_off_c, 0, 58, 64
2, 203006, Note_on_c, 0, 66, 36
2, 203020, Note_off_c, 0, 54, 64
2, 203284, Note_off_c, 0, 66, 64
2, 203318, Note_on_c, 0, 58, 34
2, 203620, Note_on_c, 0, 54, 35
2, 203649, Note_off_c, 0, 58, 64
2, 203841, Note_on_c, 0, 70, 53
2, 203904, Note_off_c, 0, 54, 64
2, 203913, Note_on_c, 0, 49, 32
2, 204060, Note_on_c, 0, 66, 56
2, 204064, Note_off_c, 0, 70, 64
2, 204204, Note_off_c, 0, 37, 64
2, 204211, Note_on_c, 0, 58, 31
2, 204276, Note_off_c, 0, 49, 64
2, 204276, Note_off_c, 0, 66, 64
2, 204283, Note_on_c, 0, 75, 57
2, 204499, Note_on_c, 0, 54, 26
2, 204504, Note_on_c, 0, 73, 58
2, 204506, Note_off_c, 0, 75, 64
2, 204542, Note_off_c, 0, 58, 64
2, 204717, Note_off_c, 0, 73, 64
2, 204724, Note_on_c, 0, 82, 60
2, 204796, Note_on_c, 0, 66, 26
2, 204842, Note_off_c, 0, 54, 64
2, 204940, Note_on_c, 0, 78, 60
2, 204943, Note_off_c, 0, 82, 64
2, 205089, Note_on_c, 0, 58, 25
2, 205094, Note_off_c, 0, 66, 64
2, 205161, Note_off_c, 0, 78, 64
2, 205164, Note_on_c, 0, 87, 60
2, 205380, Note_off_c, 0, 58, 64
2, 205382, Note_off_c, 0, 87, 64
2, 205382, Note_on_c, 0, 85, 47
2, 205680, Note_on_c, 0, 49, 25
2, 205953, Note_off_c, 0, 49, 64
2, 205980, Note_on_c, 0, 58, 29
2, 206280, Note_off_c, 0, 58, 64
2, 206289, Note_off_c, 0, 85, 64
2, 206289, Note_on_c, 0, 54, 32
2, 206582, Note_off_c, 0, 54, 64
2, 206596, Note_on_c, 0, 66, 36
2, 206899, Note_on_c, 0, 58, 37
2, 206908, Note_off_c, 0, 66, 64
2, 207206, Note_on_c, 0, 54, 33
2, 207216, Note_off_c, 0, 58, 64
2, 207511, Note_on_c, 0, 49, 33
2, 207523, Note_off_c, 0, 54, 64
2, 207806, Note_off_c, 0, 49, 64
2, 207818, Note_on_c, 0, 58, 28
2, 208125, Note_on_c, 0, 54, 28
2, 208149, Note_off_c, 0, 58, 64
2, 208406, Note_off_c, 0, 54, 64
2, 208425, Note_on_c, 0, 66, 23
2, 208584, Note_on_c, 0, 73, 47
2, 208735, Control_c, 0, 64, 0
2, 208737, Note_on_c, 0, 58, 22
2, 208742, Note_off_c, 0, 66, 64
2, 209018, Note_off_c, 0, 58, 64
2, 209042, Note_off_c, 0, 73, 64
2, 209042, Control_c, 0, 64, 127
2, 209044, Note_on_c, 0, 64, 49
2, 209044, Note_on_c, 0, 37, 34
2, 209116, Note_on_c, 0, 69, 52
2, 209188, Note_on_c, 0, 73, 63
2, 209344, Note_on_c, 0, 49, 23
2, 209426, Note_off_c, 0, 37, 64
2, 209625, Note_off_c, 0, 49, 64
2, 209652, Note_on_c, 0, 57, 24
2, 209961, Note_on_c, 0, 52, 29
2, 209966, Note_off_c, 0, 57, 64
2, 210139, Note_off_c, 0, 64, 64
2, 210235, Note_off_c, 0, 52, 64
2, 210266, Note_on_c, 0, 64, 37
2, 210573, Note_on_c, 0, 57, 34
2, 210588, Note_off_c, 0, 64, 64
2, 210837, Note_off_c, 0, 57, 64
2, 210873, Note_on_c, 0, 52, 33
2, 211180, Note_on_c, 0, 49, 32
2, 211219, Note_off_c, 0, 52, 64
2, 211485, Note_on_c, 0, 57, 28
2, 211500, Note_off_c, 0, 49, 64
2, 211792, Note_off_c, 0, 69, 64
2, 211795, Note_on_c, 0, 52, 26
2, 211836, Note_off_c, 0, 57, 64
2, 212020, Note_off_c, 0, 73, 64
2, 212020, Note_on_c, 0, 76, 67
2, 212095, Note_on_c, 0, 64, 26
2, 212109, Note_off_c, 0, 52, 64
2, 212248, Note_off_c, 0, 76, 64
2, 212251, Note_on_c, 0, 73, 72
2, 212253, Note_on_c, 0, 69, 69
2, 212400, Note_on_c, 0, 57, 24
2, 212438, Note_off_c, 0, 64, 64
2, 212474, Note_off_c, 0, 73, 64
2, 212481, Note_on_c, 0, 78, 73
2, 212541, Control_c, 0, 67, 127
2, 212707, Note_off_c, 0, 78, 64
2, 212709, Note_on_c, 0, 76, 60
2, 212745, Note_off_c, 0, 57, 64
2, 212904, Note_off_c, 0, 76, 64
2, 212906, Note_on_c, 0, 81, 59
2, 213048, Note_off_c, 0, 69, 64
2, 213105, Note_off_c, 0, 81, 64
2, 213105, Note_on_c, 0, 76, 56
2, 213108, Note_on_c, 0, 73, 57
2, 213309, Note_off_c, 0, 76, 64
2, 213309, Note_on_c, 0, 83, 55
2, 213511, Note_on_c, 0, 81, 54
2, 213513, Note_off_c, 0, 83, 64
2, 213710, Note_off_c, 0, 81, 64
2, 213710, Note_on_c, 0, 85, 54
2, 213760, Note_off_c, 0, 73, 64
2, 213914, Note_off_c, 0, 85, 64
2, 213921, Note_on_c, 0, 76, 53
2, 213921, Note_on_c, 0, 81, 52
2, 214125, Note_off_c, 0, 81, 64
2, 214125, Note_on_c, 0, 87, 51
2, 214329, Note_off_c, 0, 87, 64
2, 214329, Note_on_c, 0, 85, 51
2, 214540, Note_on_c, 0, 88, 51
2, 214545, Note_off_c, 0, 85, 64
2, 214639, Note_off_c, 0, 76, 64
2, 214752, Note_off_c, 0, 88, 64
2, 214752, Note_on_c, 0, 85, 50
2, 214752, Note_on_c, 0, 81, 48
2, 214963, Note_on_c, 0, 90, 48
2, 214965, Note_off_c, 0, 85, 64
2, 215176, Note_off_c, 0, 90, 64
2, 215176, Note_on_c, 0, 88, 48
2, 215388, Note_off_c, 0, 88, 64
2, 215390, Note_on_c, 0, 93, 44
2, 215548, Note_off_c, 0, 81, 64
2, 215606, Note_on_c, 0, 88, 43
2, 215608, Note_off_c, 0, 93, 64
2, 215608, Note_on_c, 0, 85, 45
2, 215820, Note_off_c, 0, 88, 64
2, 215820, Note_on_c, 0, 95, 45
2, 216040, Note_off_c, 0, 95, 64
2, 216043, Note_on_c, 0, 93, 40
2, 216261, Note_off_c, 0, 93, 64
2, 216268, Note_on_c, 0, 97, 40
2, 216350, Note_off_c, 0, 85, 64
2, 216480, Note_on_c, 0, 88, 38
2, 216489, Note_off_c, 0, 97, 64
2, 216489, Note_on_c, 0, 93, 41
2, 216712, Note_off_c, 0, 93, 64
2, 216712, Note_on_c, 0, 99, 37
2, 216936, Note_off_c, 0, 99, 64
2, 216938, Note_on_c, 0, 93, 36
2, 217168, Note_off_c, 0, 93, 64
2, 217168, Note_on_c, 0, 97, 35
2, 217221, Note_off_c, 0, 88, 64
2, 217389, Note_on_c, 0, 88, 34
2, 217394, Note_off_c, 0, 97, 64
2, 217399, Note_on_c, 0, 93, 35
2, 217622, Note_off_c, 0, 93, 64
2, 217624, Note_on_c, 0, 99, 36
2, 217857, Note_off_c, 0, 99, 64
2, 217860, Note_on_c, 0, 93, 33
2, 218092, Note_off_c, 0, 93, 64
2, 218095, Note_on_c, 0, 97, 32
2, 218140, Note_off_c, 0, 88, 64
2, 218320, Note_on_c, 0, 88, 31
2, 218330, Note_off_c, 0, 97, 64
2, 218330, Note_on_c, 0, 93, 32
2, 218565, Note_on_c, 0, 99, 31
2, 218568, Note_off_c, 0, 93, 64
2, 218808, Note_off_c, 0, 99, 64
2, 218808, Note_on_c, 0, 93, 27
2, 219045, Note_off_c, 0, 93, 64
2, 219045, Note_on_c, 0, 97, 26
2, 219091, Note_off_c, 0, 88, 64
2, 219292, Note_off_c, 0, 97, 64
2, 219292, Note_on_c, 0, 93, 25
2, 219297, Note_on_c, 0, 88, 28
2, 219535, Note_off_c, 0, 93, 64
2, 219537, Note_on_c, 0, 99, 25
2, 219780, Note_off_c, 0, 99, 64
2, 219784, Note_off_c, 0, 88, 64
2, 219784, Note_on_c, 0, 101, 30
2, 219792, Note_on_c, 0, 89, 15
2, 219792, Note_on_c, 0, 37, 37
2, 219794, Note_on_c, 0, 97, 19
2, 219806, Note_on_c, 0, 92, 17
2, 219837, Control_c, 0, 64, 0
2, 219936, Control_c, 0, 64, 127
2, 220118, Note_on_c, 0, 53, 23
2, 220200, Note_off_c, 0, 37, 64
2, 220444, Note_on_c, 0, 61, 25
2, 220459, Note_off_c, 0, 53, 64
2, 220732, Note_off_c, 0, 61, 64
2, 220776, Note_on_c, 0, 56, 30
2, 221104, Note_on_c, 0, 65, 37
2, 221181, Note_off_c, 0, 56, 64
2, 221436, Note_on_c, 0, 61, 37
2, 221498, Note_off_c, 0, 65, 64
2, 221656, Note_off_c, 0, 97, 64
2, 221755, Note_off_c, 0, 101, 64
2, 221764, Note_off_c, 0, 92, 64
2, 221764, Note_on_c, 0, 56, 33
2, 221772, Note_off_c, 0, 61, 64
2, 221887, Note_off_c, 0, 89, 64
2, 222074, Note_off_c, 0, 56, 64
2, 222098, Note_on_c, 0, 53, 33
2, 222256, Note_on_c, 0, 94, 42
2, 222266, Note_on_c, 0, 90, 29
2, 222386, Note_off_c, 0, 53, 64
2, 222427, Note_on_c, 0, 61, 30
2, 222712, Note_off_c, 0, 61, 64
2, 222720, Note_off_c, 0, 94, 64
2, 222751, Note_on_c, 0, 89, 42
2, 222756, Note_on_c, 0, 85, 29
2, 222756, Note_on_c, 0, 56, 25
2, 222852, Note_off_c, 0, 90, 64
2, 223087, Note_on_c, 0, 65, 24
2, 223118, Note_off_c, 0, 56, 64
2, 223243, Note_on_c, 0, 94, 44
2, 223255, Note_on_c, 0, 90, 30
2, 223324, Note_off_c, 0, 89, 64
2, 223353, Note_off_c, 0, 85, 64
2, 223413, Note_on_c, 0, 61, 25
2, 223428, Note_off_c, 0, 65, 64
2, 223740, Note_on_c, 0, 92, 46
2, 223749, Note_on_c, 0, 89, 34
2, 223771, Note_off_c, 0, 94, 64
2, 223780, Note_off_c, 0, 90, 64
2, 223790, Note_off_c, 0, 61, 64
2, 224078, Note_on_c, 0, 53, 26
2, 224164, Note_off_c, 0, 92, 64
2, 224196, Note_off_c, 0, 89, 64
2, 224229, Note_on_c, 0, 94, 45
2, 224239, Note_on_c, 0, 90, 33
2, 224404, Note_on_c, 0, 61, 28
2, 224416, Note_off_c, 0, 53, 64
2, 224695, Note_off_c, 0, 94, 64
2, 224695, Note_off_c, 0, 90, 64
2, 224738, Note_on_c, 0, 89, 47
2, 224738, Note_on_c, 0, 56, 34
2, 224738, Note_on_c, 0, 85, 33
2, 224738, Note_on_c, 0, 89, 47
2, 224769, Note_off_c, 0, 61, 64
2, 225067, Note_on_c, 0, 65, 35
2, 225084, Note_off_c, 0, 56, 64
2, 225230, Note_on_c, 0, 90, 37
2, 225235, Note_on_c, 0, 94, 49
2, 225247, Note_off_c, 0, 89, 64
2, 225247, Note_off_c, 0, 89, 64
2, 225278, Note_off_c, 0, 85, 64
2, 225396, Note_on_c, 0, 61, 34
2, 225429, Note_off_c, 0, 65, 64
2, 225657, Note_off_c, 0, 94, 64
2, 225715, Note_off_c, 0, 90, 64
2, 225727, Note_on_c, 0, 92, 50
2, 225727, Note_on_c, 0, 89, 35
2, 225739, Note_off_c, 0, 61, 64
2, 226056, Note_on_c, 0, 53, 23
2, 226130, Note_off_c, 0, 89, 64
2, 226137, Note_off_c, 0, 92, 64
2, 226221, Note_on_c, 0, 94, 51
2, 226224, Note_on_c, 0, 90, 37
2, 226382, Note_off_c, 0, 53, 64
2, 226382, Note_on_c, 0, 61, 25
2, 226612, Note_off_c, 0, 94, 64
2, 226641, Note_off_c, 0, 90, 64
2, 226718, Note_on_c, 0, 56, 29
2, 226718, Note_on_c, 0, 89, 51
2, 226718, Note_on_c, 0, 85, 40
2, 226740, Note_off_c, 0, 61, 64
2, 226999, Note_off_c, 0, 56, 64
2, 227047, Note_on_c, 0, 65, 36
2, 227109, Note_off_c, 0, 89, 64
2, 227155, Note_off_c, 0, 85, 64
2, 227208, Note_on_c, 0, 94, 51
2, 227215, Note_on_c, 0, 90, 40
2, 227323, Note_off_c, 0, 65, 64
2, 227373, Note_on_c, 0, 61, 22
2, 227654, Note_off_c, 0, 90, 64
2, 227673, Note_off_c, 0, 61, 64
2, 227673, Note_off_c, 0, 94, 64
2, 227707, Note_on_c, 0, 92, 52
2, 227709, Note_on_c, 0, 89, 40
2, 228086, Note_off_c, 0, 89, 64
2, 228139, Note_off_c, 0, 92, 64
2, 228204, Note_on_c, 0, 85, 43
2, 228204, Note_on_c, 0, 89, 52
2, 228592, Note_off_c, 0, 89, 64
2, 228600, Note_off_c, 0, 85, 64
2, 228698, Note_on_c, 0, 82, 40
2, 228700, Note_on_c, 0, 85, 52
2, 229106, Note_off_c, 0, 82, 64
2, 229204, Note_on_c, 0, 82, 51
2, 229209, Note_on_c, 0, 78, 41
2, 229272, Note_off_c, 0, 85, 64
2, 229713, Note_on_c, 0, 80, 51
2, 229716, Note_on_c, 0, 77, 36
2, 229720, Note_off_c, 0, 82, 64
2, 229788, Note_off_c, 0, 78, 64
2, 230176, Note_off_c, 0, 77, 64
2, 230234, Note_on_c, 0, 77, 49
2, 230236, Note_off_c, 0, 80, 64
2, 230241, Note_on_c, 0, 73, 38
2, 230724, Note_off_c, 0, 73, 64
2, 230767, Note_off_c, 0, 77, 64
2, 230767, Note_on_c, 0, 73, 46
2, 230774, Note_on_c, 0, 70, 34
2, 231254, Note_off_c, 0, 70, 64
2, 231307, Note_off_c, 0, 73, 64
2, 231312, Note_on_c, 0, 70, 45
2, 231319, Note_on_c, 0, 66, 33
2, 231861, Note_off_c, 0, 70, 64
2, 231868, Note_on_c, 0, 68, 42
2, 231876, Note_off_c, 0, 66, 64
2, 231880, Note_on_c, 0, 65, 33
2, 232941, Note_off_c, 0, 65, 64
2, 233025, Note_off_c, 0, 68, 64
2, 233035, Note_on_c, 0, 65, 42
2, 233052, Note_on_c, 0, 61, 29
2, 234103, Note_off_c, 0, 61, 64
2, 234244, Note_on_c, 0, 61, 36
2, 234254, Note_off_c, 0, 65, 64
2, 234254, Note_on_c, 0, 58, 26
2, 235444, Note_off_c, 0, 58, 64
2, 235516, Note_off_c, 0, 61, 64
2, 235519, Note_on_c, 0, 58, 35
2, 235526, Note_on_c, 0, 54, 24
2, 239652, Note_off_c, 0, 58, 64
2, 239652, Note_on_c, 0, 56, 25
2, 239659, Note_off_c, 0, 54, 64
2, 239661, Note_on_c, 0, 53, 13
2, 241135, Note_off_c, 0, 56, 64
2, 241144, Note_off_c, 0, 53, 64
2, 241864, Control_c, 0, 67, 0
2, 242035, Control_c, 0, 64, 0
2, 242037, Control_c, 0, 123, 0
2, 242037, End_track
3, 0, Start_track
3, 0, Title_t, "Consolation No. 3"
3, 0, Channel_prefix, 0
3, 0, End_track
4, 0, Start_track
4, 0, Title_t, "Richard Carlson"
4, 0, Channel_prefix, 0
4, 0, End_track
5, 0, Start_track
5, 0, Title_t, "lionheart2251@yahoo.com"
5, 0, Channel_prefix, 0
5, 0, End_track
6, 0, Start_track
6, 0, Title_t, "http://geocities.com/lionheart2251"
6, 0, Channel_prefix, 0
6, 0, End_track
7, 0, Start_track
7, 0, Title_t, "Copyright2006"
7, 0, Channel_prefix, 0
7, 0, End_track
0, 0, End_of_file
