0, 0, Header, 0, 1, 384
1, 0, Start_track
1, 0, Tempo, 512820
1, 0, Title_t, "Rhapsodie Nr. 12"
1, 0, Program_c, 0, 0
1, 0, Control_c, 0, 7, 100
1, 3, Control_c, 0, 10, 64
1, 3, Program_c, 0, 0
1, 3, Control_c, 0, 7, 100
1, 6, Control_c, 0, 10, 64
1, 6, Program_c, 0, 0
1, 1342, Control_c, 0, 64, 127
1, 1376, Note_on_c, 0, 49, 65
1, 1376, Note_on_c, 0, 61, 74
1, 1445, Note_on_c, 0, 61, 0
1, 1445, Note_on_c, 0, 49, 0
1, 1445, Note_on_c, 0, 49, 72
1, 1448, Note_on_c, 0, 61, 82
1, 2155, Control_c, 0, 64, 0
1, 2160, Note_on_c, 0, 61, 0
1, 2160, Note_on_c, 0, 49, 0
1, 2194, Note_on_c, 0, 54, 72
1, 2194, Note_on_c, 0, 66, 72
1, 2194, Control_c, 0, 64, 127
1, 2262, Note_on_c, 0, 66, 0
1, 2262, Note_on_c, 0, 54, 0
1, 2262, Note_on_c, 0, 66, 81
1, 2265, Note_on_c, 0, 54, 81
1, 2977, Note_on_c, 0, 54, 0
1, 2977, Note_on_c, 0, 66, 0
1, 3011, Note_on_c, 0, 52, 64
1, 3011, Note_on_c, 0, 64, 73
1, 3028, Control_c, 0, 64, 0
1, 3059, Control_c, 0, 64, 127
1, 3079, Note_on_c, 0, 64, 0
1, 3079, Note_on_c, 0, 52, 0
1, 3079, Note_on_c, 0, 52, 70
1, 3082, Note_on_c, 0, 64, 80
1, 3403, Note_on_c, 0, 64, 0
1, 3403, Note_on_c, 0, 52, 0
1, 3439, Note_on_c, 0, 51, 65
1, 3439, Note_on_c, 0, 63, 65
1, 3457, Control_c, 0, 64, 0
1, 3500, Control_c, 0, 64, 127
1, 3511, Note_on_c, 0, 63, 0
1, 3511, Note_on_c, 0, 51, 0
1, 3511, Note_on_c, 0, 51, 70
1, 3514, Note_on_c, 0, 63, 80
1, 3835, Note_on_c, 0, 63, 0
1, 3835, Note_on_c, 0, 51, 0
1, 3871, Note_on_c, 0, 49, 65
1, 3871, Note_on_c, 0, 61, 74
1, 3889, Control_c, 0, 64, 0
1, 3943, Note_on_c, 0, 61, 0
1, 3943, Note_on_c, 0, 49, 0
1, 3943, Note_on_c, 0, 49, 71
1, 3946, Note_on_c, 0, 61, 81
1, 3957, Control_c, 0, 64, 127
1, 4254, Note_on_c, 0, 61, 0
1, 4254, Note_on_c, 0, 49, 0
1, 4288, Note_on_c, 0, 48, 64
1, 4288, Note_on_c, 0, 60, 73
1, 4305, Control_c, 0, 64, 0
1, 4357, Note_on_c, 0, 60, 0
1, 4357, Note_on_c, 0, 48, 0
1, 4357, Note_on_c, 0, 48, 70
1, 4360, Note_on_c, 0, 60, 80
1, 4366, Control_c, 0, 64, 127
1, 4691, Note_on_c, 0, 60, 0
1, 4691, Note_on_c, 0, 48, 0
1, 4728, Note_on_c, 0, 49, 63
1, 4728, Note_on_c, 0, 61, 72
1, 4746, Control_c, 0, 64, 0
1, 4802, Note_on_c, 0, 61, 0
1, 4802, Note_on_c, 0, 49, 0
1, 4802, Note_on_c, 0, 49, 71
1, 4805, Note_on_c, 0, 61, 81
1, 4909, Control_c, 0, 64, 127
1, 4978, Control_c, 0, 64, 0
1, 5100, Note_on_c, 0, 61, 0
1, 5100, Note_on_c, 0, 49, 0
1, 5241, Control_c, 0, 91, 127
1, 5397, Note_on_c, 0, 46, 44
1, 5397, Note_on_c, 0, 31, 40
1, 5428, Control_c, 0, 64, 127
1, 5473, Note_on_c, 0, 46, 0
1, 5473, Note_on_c, 0, 49, 38
1, 5473, Note_on_c, 0, 31, 0
1, 5476, Note_on_c, 0, 40, 29
1, 5542, Note_on_c, 0, 49, 0
1, 5542, Note_on_c, 0, 46, 45
1, 5542, Note_on_c, 0, 40, 0
1, 5545, Note_on_c, 0, 31, 40
1, 5611, Note_on_c, 0, 46, 0
1, 5611, Note_on_c, 0, 49, 39
1, 5611, Note_on_c, 0, 31, 0
1, 5614, Note_on_c, 0, 40, 31
1, 5679, Note_on_c, 0, 49, 0
1, 5679, Note_on_c, 0, 46, 46
1, 5679, Note_on_c, 0, 40, 0
1, 5682, Note_on_c, 0, 31, 39
1, 5746, Note_on_c, 0, 49, 42
1, 5746, Note_on_c, 0, 31, 0
1, 5746, Note_on_c, 0, 40, 30
1, 5780, Note_on_c, 0, 46, 0
1, 5813, Note_on_c, 0, 49, 0
1, 5813, Note_on_c, 0, 46, 47
1, 5813, Note_on_c, 0, 40, 0
1, 5816, Note_on_c, 0, 31, 39
1, 5880, Note_on_c, 0, 46, 0
1, 5880, Note_on_c, 0, 49, 42
1, 5880, Note_on_c, 0, 31, 0
1, 5883, Note_on_c, 0, 40, 34
1, 5946, Note_on_c, 0, 49, 0
1, 5946, Note_on_c, 0, 46, 48
1, 5946, Note_on_c, 0, 40, 0
1, 5949, Note_on_c, 0, 31, 41
1, 6012, Note_on_c, 0, 46, 0
1, 6012, Note_on_c, 0, 49, 44
1, 6012, Note_on_c, 0, 31, 0
1, 6015, Note_on_c, 0, 40, 37
1, 6078, Note_on_c, 0, 49, 0
1, 6078, Note_on_c, 0, 46, 50
1, 6078, Note_on_c, 0, 40, 0
1, 6081, Note_on_c, 0, 31, 43
1, 6143, Note_on_c, 0, 49, 45
1, 6143, Note_on_c, 0, 31, 0
1, 6143, Note_on_c, 0, 40, 38
1, 6175, Note_on_c, 0, 46, 0
1, 6207, Note_on_c, 0, 49, 0
1, 6207, Note_on_c, 0, 46, 51
1, 6207, Note_on_c, 0, 40, 0
1, 6210, Note_on_c, 0, 31, 44
1, 6272, Note_on_c, 0, 46, 0
1, 6272, Note_on_c, 0, 49, 46
1, 6272, Note_on_c, 0, 31, 0
1, 6275, Note_on_c, 0, 40, 41
1, 6335, Note_on_c, 0, 49, 0
1, 6335, Note_on_c, 0, 46, 52
1, 6335, Note_on_c, 0, 40, 0
1, 6338, Note_on_c, 0, 31, 46
1, 6359, Control_c, 0, 64, 0
1, 6399, Note_on_c, 0, 46, 0
1, 6399, Note_on_c, 0, 49, 47
1, 6399, Note_on_c, 0, 31, 0
1, 6402, Note_on_c, 0, 40, 42
1, 6462, Note_on_c, 0, 49, 0
1, 6462, Note_on_c, 0, 46, 53
1, 6462, Note_on_c, 0, 40, 0
1, 6465, Note_on_c, 0, 31, 48
1, 6524, Note_on_c, 0, 49, 48
1, 6524, Note_on_c, 0, 31, 0
1, 6524, Note_on_c, 0, 40, 43
1, 6555, Note_on_c, 0, 46, 0
1, 6576, Control_c, 0, 64, 0
1, 6586, Note_on_c, 0, 49, 0
1, 6586, Note_on_c, 0, 46, 55
1, 6586, Note_on_c, 0, 40, 0
1, 6589, Note_on_c, 0, 31, 49
1, 6609, Control_c, 0, 64, 127
1, 6647, Note_on_c, 0, 46, 0
1, 6647, Note_on_c, 0, 49, 49
1, 6647, Note_on_c, 0, 31, 0
1, 6650, Note_on_c, 0, 40, 45
1, 6708, Note_on_c, 0, 49, 0
1, 6708, Note_on_c, 0, 46, 56
1, 6708, Note_on_c, 0, 40, 0
1, 6711, Note_on_c, 0, 31, 51
1, 6769, Note_on_c, 0, 46, 0
1, 6769, Note_on_c, 0, 49, 50
1, 6769, Note_on_c, 0, 31, 0
1, 6772, Note_on_c, 0, 40, 45
1, 6829, Note_on_c, 0, 49, 0
1, 6829, Note_on_c, 0, 46, 57
1, 6829, Note_on_c, 0, 40, 0
1, 6832, Note_on_c, 0, 31, 53
1, 6889, Note_on_c, 0, 49, 51
1, 6889, Note_on_c, 0, 31, 0
1, 6889, Note_on_c, 0, 40, 47
1, 6919, Note_on_c, 0, 46, 0
1, 6948, Note_on_c, 0, 49, 0
1, 6948, Note_on_c, 0, 46, 58
1, 6948, Note_on_c, 0, 40, 0
1, 6951, Note_on_c, 0, 31, 54
1, 7007, Note_on_c, 0, 46, 0
1, 7007, Note_on_c, 0, 49, 55
1, 7007, Note_on_c, 0, 31, 0
1, 7010, Note_on_c, 0, 40, 49
1, 7066, Note_on_c, 0, 49, 0
1, 7066, Note_on_c, 0, 46, 60
1, 7066, Note_on_c, 0, 40, 0
1, 7069, Note_on_c, 0, 31, 56
1, 7125, Note_on_c, 0, 46, 0
1, 7125, Note_on_c, 0, 49, 53
1, 7125, Note_on_c, 0, 31, 0
1, 7128, Note_on_c, 0, 40, 52
1, 7185, Note_on_c, 0, 49, 0
1, 7185, Note_on_c, 0, 46, 61
1, 7185, Note_on_c, 0, 40, 0
1, 7188, Note_on_c, 0, 31, 57
1, 7247, Note_on_c, 0, 49, 54
1, 7247, Note_on_c, 0, 31, 0
1, 7247, Note_on_c, 0, 40, 58
1, 7278, Note_on_c, 0, 46, 0
1, 7309, Note_on_c, 0, 49, 0
1, 7309, Note_on_c, 0, 46, 62
1, 7309, Note_on_c, 0, 40, 0
1, 7312, Note_on_c, 0, 31, 59
1, 7321, Control_c, 0, 64, 0
1, 7356, Control_c, 0, 64, 127
1, 7369, Note_on_c, 0, 46, 0
1, 7369, Note_on_c, 0, 49, 58
1, 7369, Note_on_c, 0, 31, 0
1, 7372, Note_on_c, 0, 40, 60
1, 7429, Note_on_c, 0, 49, 0
1, 7429, Note_on_c, 0, 46, 63
1, 7429, Note_on_c, 0, 40, 0
1, 7432, Note_on_c, 0, 31, 61
1, 7489, Note_on_c, 0, 46, 0
1, 7489, Note_on_c, 0, 49, 59
1, 7489, Note_on_c, 0, 31, 0
1, 7492, Note_on_c, 0, 40, 62
1, 7549, Note_on_c, 0, 49, 0
1, 7549, Note_on_c, 0, 46, 67
1, 7549, Note_on_c, 0, 40, 0
1, 7552, Note_on_c, 0, 31, 62
1, 7609, Note_on_c, 0, 49, 70
1, 7609, Note_on_c, 0, 31, 0
1, 7609, Note_on_c, 0, 40, 63
1, 7639, Note_on_c, 0, 46, 0
1, 7669, Note_on_c, 0, 49, 0
1, 7669, Note_on_c, 0, 46, 73
1, 7669, Note_on_c, 0, 40, 0
1, 7672, Note_on_c, 0, 31, 64
1, 7728, Note_on_c, 0, 46, 0
1, 7728, Note_on_c, 0, 49, 76
1, 7728, Note_on_c, 0, 31, 0
1, 7731, Note_on_c, 0, 40, 65
1, 7789, Note_on_c, 0, 49, 0
1, 7789, Note_on_c, 0, 46, 79
1, 7789, Note_on_c, 0, 40, 0
1, 7792, Note_on_c, 0, 31, 67
1, 7850, Note_on_c, 0, 46, 0
1, 7850, Note_on_c, 0, 49, 82
1, 7850, Note_on_c, 0, 31, 0
1, 7853, Note_on_c, 0, 40, 68
1, 7914, Note_on_c, 0, 49, 0
1, 7914, Note_on_c, 0, 46, 85
1, 7914, Note_on_c, 0, 40, 0
1, 7917, Note_on_c, 0, 31, 69
1, 7978, Note_on_c, 0, 49, 88
1, 7978, Note_on_c, 0, 31, 0
1, 7978, Note_on_c, 0, 40, 70
1, 8010, Note_on_c, 0, 46, 0
1, 8043, Note_on_c, 0, 49, 0
1, 8043, Note_on_c, 0, 40, 0
1, 8043, Control_c, 0, 64, 0
1, 8081, Note_on_c, 0, 45, 84
1, 8081, Note_on_c, 0, 48, 94
1, 8081, Note_on_c, 0, 31, 67
1, 8084, Note_on_c, 0, 39, 72
1, 8155, Note_on_c, 0, 48, 0
1, 8155, Note_on_c, 0, 45, 0
1, 8155, Note_on_c, 0, 46, 90
1, 8158, Note_on_c, 0, 49, 100
1, 8158, Note_on_c, 0, 39, 0
1, 8158, Note_on_c, 0, 31, 0
1, 8161, Note_on_c, 0, 31, 78
1, 8161, Note_on_c, 0, 40, 82
1, 8377, Note_on_c, 0, 49, 0
1, 8377, Note_on_c, 0, 46, 0
1, 8377, Note_on_c, 0, 40, 0
1, 8380, Note_on_c, 0, 31, 0
1, 9833, Control_c, 0, 64, 127
1, 9867, Note_on_c, 0, 68, 74
1, 9867, Note_on_c, 0, 56, 65
1, 9934, Note_on_c, 0, 56, 0
1, 9934, Note_on_c, 0, 68, 0
1, 9934, Note_on_c, 0, 56, 72
1, 9937, Note_on_c, 0, 68, 82
1, 10634, Control_c, 0, 64, 0
1, 10639, Note_on_c, 0, 68, 0
1, 10639, Note_on_c, 0, 56, 0
1, 10673, Note_on_c, 0, 61, 63
1, 10673, Note_on_c, 0, 73, 72
1, 10673, Control_c, 0, 64, 127
1, 10740, Note_on_c, 0, 73, 0
1, 10740, Note_on_c, 0, 61, 0
1, 10740, Note_on_c, 0, 61, 71
1, 10743, Note_on_c, 0, 73, 81
1, 11462, Note_on_c, 0, 73, 0
1, 11462, Note_on_c, 0, 61, 0
1, 11498, Note_on_c, 0, 59, 64
1, 11498, Note_on_c, 0, 71, 73
1, 11508, Control_c, 0, 64, 0
1, 11558, Control_c, 0, 64, 127
1, 11569, Note_on_c, 0, 71, 0
1, 11569, Note_on_c, 0, 59, 0
1, 11569, Note_on_c, 0, 59, 70
1, 11572, Note_on_c, 0, 71, 80
1, 11888, Note_on_c, 0, 71, 0
1, 11888, Note_on_c, 0, 59, 0
1, 11924, Note_on_c, 0, 58, 65
1, 11924, Note_on_c, 0, 70, 74
1, 11941, Control_c, 0, 64, 0
1, 11984, Control_c, 0, 64, 127
1, 11995, Note_on_c, 0, 70, 0
1, 11995, Note_on_c, 0, 58, 0
1, 11995, Note_on_c, 0, 58, 70
1, 11998, Note_on_c, 0, 70, 80
1, 12314, Note_on_c, 0, 70, 0
1, 12314, Note_on_c, 0, 58, 0
1, 12349, Note_on_c, 0, 56, 65
1, 12349, Note_on_c, 0, 68, 74
1, 12367, Control_c, 0, 64, 0
1, 12420, Note_on_c, 0, 68, 0
1, 12420, Note_on_c, 0, 56, 0
1, 12420, Note_on_c, 0, 56, 71
1, 12423, Note_on_c, 0, 68, 81
1, 12434, Control_c, 0, 64, 127
1, 12731, Note_on_c, 0, 68, 0
1, 12731, Note_on_c, 0, 56, 0
1, 12765, Note_on_c, 0, 67, 73
1, 12765, Note_on_c, 0, 55, 64
1, 12783, Control_c, 0, 64, 0
1, 12834, Note_on_c, 0, 55, 0
1, 12834, Note_on_c, 0, 67, 0
1, 12834, Note_on_c, 0, 55, 70
1, 12837, Note_on_c, 0, 67, 80
1, 12844, Control_c, 0, 64, 127
1, 13168, Note_on_c, 0, 67, 0
1, 13168, Note_on_c, 0, 55, 0
1, 13205, Note_on_c, 0, 56, 63
1, 13205, Note_on_c, 0, 68, 72
1, 13224, Control_c, 0, 64, 0
1, 13279, Note_on_c, 0, 68, 0
1, 13279, Note_on_c, 0, 56, 0
1, 13279, Note_on_c, 0, 56, 71
1, 13282, Note_on_c, 0, 68, 81
1, 13370, Control_c, 0, 64, 127
1, 13429, Control_c, 0, 64, 0
1, 13532, Note_on_c, 0, 68, 0
1, 13532, Note_on_c, 0, 56, 0
1, 13784, Note_on_c, 0, 50, 44
1, 13784, Note_on_c, 0, 47, 44
1, 13784, Note_on_c, 0, 29, 40
1, 13812, Control_c, 0, 64, 127
1, 13857, Note_on_c, 0, 47, 0
1, 13857, Note_on_c, 0, 50, 0
1, 13857, Note_on_c, 0, 56, 38
1, 13860, Note_on_c, 0, 29, 0
1, 13860, Note_on_c, 0, 38, 29
1, 13927, Note_on_c, 0, 56, 0
1, 13927, Note_on_c, 0, 50, 45
1, 13927, Note_on_c, 0, 47, 45
1, 13930, Note_on_c, 0, 38, 0
1, 13930, Note_on_c, 0, 29, 40
1, 13997, Note_on_c, 0, 47, 0
1, 13997, Note_on_c, 0, 50, 0
1, 13997, Note_on_c, 0, 56, 39
1, 14000, Note_on_c, 0, 29, 0
1, 14000, Note_on_c, 0, 38, 31
1, 14066, Note_on_c, 0, 56, 0
1, 14066, Note_on_c, 0, 50, 46
1, 14066, Note_on_c, 0, 47, 46
1, 14069, Note_on_c, 0, 38, 0
1, 14069, Note_on_c, 0, 29, 39
1, 14135, Note_on_c, 0, 56, 42
1, 14135, Note_on_c, 0, 29, 0
1, 14135, Note_on_c, 0, 38, 30
1, 14170, Note_on_c, 0, 47, 0
1, 14170, Note_on_c, 0, 50, 0
1, 14204, Note_on_c, 0, 56, 0
1, 14204, Note_on_c, 0, 50, 47
1, 14204, Note_on_c, 0, 47, 47
1, 14207, Note_on_c, 0, 38, 0
1, 14207, Note_on_c, 0, 29, 39
1, 14272, Note_on_c, 0, 47, 0
1, 14272, Note_on_c, 0, 50, 0
1, 14272, Note_on_c, 0, 56, 42
1, 14275, Note_on_c, 0, 29, 0
1, 14275, Note_on_c, 0, 38, 34
1, 14340, Note_on_c, 0, 56, 0
1, 14340, Note_on_c, 0, 50, 48
1, 14340, Note_on_c, 0, 47, 48
1, 14343, Note_on_c, 0, 38, 0
1, 14343, Note_on_c, 0, 29, 41
1, 14407, Note_on_c, 0, 47, 0
1, 14407, Note_on_c, 0, 50, 0
1, 14407, Note_on_c, 0, 56, 44
1, 14410, Note_on_c, 0, 29, 0
1, 14410, Note_on_c, 0, 38, 37
1, 14474, Note_on_c, 0, 56, 0
1, 14474, Note_on_c, 0, 50, 50
1, 14474, Note_on_c, 0, 47, 50
1, 14477, Note_on_c, 0, 38, 0
1, 14477, Note_on_c, 0, 29, 43
1, 14541, Note_on_c, 0, 56, 45
1, 14541, Note_on_c, 0, 29, 0
1, 14541, Note_on_c, 0, 38, 38
1, 14574, Note_on_c, 0, 47, 0
1, 14574, Note_on_c, 0, 50, 0
1, 14607, Note_on_c, 0, 56, 0
1, 14607, Note_on_c, 0, 50, 51
1, 14607, Note_on_c, 0, 47, 51
1, 14610, Note_on_c, 0, 38, 0
1, 14610, Note_on_c, 0, 29, 44
1, 14674, Note_on_c, 0, 47, 0
1, 14674, Note_on_c, 0, 50, 0
1, 14674, Note_on_c, 0, 56, 46
1, 14677, Note_on_c, 0, 29, 0
1, 14677, Note_on_c, 0, 38, 41
1, 14739, Note_on_c, 0, 56, 0
1, 14739, Note_on_c, 0, 50, 52
1, 14739, Note_on_c, 0, 47, 52
1, 14742, Note_on_c, 0, 38, 0
1, 14742, Note_on_c, 0, 29, 46
1, 14805, Note_on_c, 0, 47, 0
1, 14805, Note_on_c, 0, 50, 0
1, 14805, Note_on_c, 0, 56, 47
1, 14808, Note_on_c, 0, 29, 0
1, 14808, Note_on_c, 0, 38, 42
1, 14870, Note_on_c, 0, 56, 0
1, 14870, Note_on_c, 0, 50, 53
1, 14870, Note_on_c, 0, 47, 53
1, 14873, Note_on_c, 0, 38, 0
1, 14873, Note_on_c, 0, 29, 48
1, 14934, Note_on_c, 0, 56, 48
1, 14934, Note_on_c, 0, 29, 0
1, 14934, Note_on_c, 0, 38, 43
1, 14967, Note_on_c, 0, 47, 0
1, 14967, Note_on_c, 0, 50, 0
1, 14989, Control_c, 0, 64, 0
1, 14999, Note_on_c, 0, 56, 0
1, 14999, Note_on_c, 0, 50, 55
1, 14999, Note_on_c, 0, 47, 55
1, 15002, Note_on_c, 0, 38, 0
1, 15002, Note_on_c, 0, 29, 49
1, 15034, Control_c, 0, 64, 127
1, 15063, Note_on_c, 0, 47, 0
1, 15063, Note_on_c, 0, 50, 0
1, 15063, Note_on_c, 0, 56, 49
1, 15066, Note_on_c, 0, 29, 0
1, 15066, Note_on_c, 0, 38, 45
1, 15125, Note_on_c, 0, 56, 0
1, 15125, Note_on_c, 0, 50, 56
1, 15125, Note_on_c, 0, 47, 56
1, 15128, Note_on_c, 0, 38, 0
1, 15128, Note_on_c, 0, 29, 51
1, 15187, Note_on_c, 0, 47, 0
1, 15187, Note_on_c, 0, 50, 0
1, 15187, Note_on_c, 0, 56, 50
1, 15190, Note_on_c, 0, 29, 0
1, 15190, Note_on_c, 0, 38, 45
1, 15249, Note_on_c, 0, 56, 0
1, 15249, Note_on_c, 0, 50, 57
1, 15249, Note_on_c, 0, 47, 57
1, 15252, Note_on_c, 0, 38, 0
1, 15252, Note_on_c, 0, 29, 53
1, 15309, Note_on_c, 0, 56, 51
1, 15309, Note_on_c, 0, 29, 0
1, 15309, Note_on_c, 0, 38, 47
1, 15339, Note_on_c, 0, 47, 0
1, 15339, Note_on_c, 0, 50, 0
1, 15369, Note_on_c, 0, 56, 0
1, 15369, Note_on_c, 0, 50, 58
1, 15369, Note_on_c, 0, 47, 58
1, 15372, Note_on_c, 0, 38, 0
1, 15372, Note_on_c, 0, 29, 54
1, 15428, Note_on_c, 0, 47, 0
1, 15428, Note_on_c, 0, 50, 0
1, 15428, Note_on_c, 0, 56, 55
1, 15431, Note_on_c, 0, 29, 0
1, 15431, Note_on_c, 0, 38, 49
1, 15486, Note_on_c, 0, 56, 0
1, 15486, Note_on_c, 0, 50, 60
1, 15486, Note_on_c, 0, 47, 60
1, 15489, Note_on_c, 0, 38, 0
1, 15489, Note_on_c, 0, 29, 56
1, 15544, Note_on_c, 0, 47, 0
1, 15544, Note_on_c, 0, 50, 0
1, 15544, Note_on_c, 0, 56, 53
1, 15547, Note_on_c, 0, 29, 0
1, 15547, Note_on_c, 0, 38, 52
1, 15603, Note_on_c, 0, 56, 0
1, 15603, Note_on_c, 0, 50, 61
1, 15603, Note_on_c, 0, 47, 61
1, 15606, Note_on_c, 0, 38, 0
1, 15606, Note_on_c, 0, 29, 57
1, 15664, Note_on_c, 0, 56, 54
1, 15664, Note_on_c, 0, 29, 0
1, 15664, Note_on_c, 0, 38, 58
1, 15694, Note_on_c, 0, 47, 0
1, 15694, Note_on_c, 0, 50, 0
1, 15725, Note_on_c, 0, 56, 0
1, 15725, Note_on_c, 0, 50, 62
1, 15725, Note_on_c, 0, 47, 62
1, 15728, Note_on_c, 0, 38, 0
1, 15728, Note_on_c, 0, 29, 59
1, 15737, Control_c, 0, 64, 0
1, 15778, Control_c, 0, 64, 127
1, 15787, Note_on_c, 0, 47, 0
1, 15787, Note_on_c, 0, 50, 0
1, 15787, Note_on_c, 0, 56, 58
1, 15790, Note_on_c, 0, 29, 0
1, 15790, Note_on_c, 0, 38, 60
1, 15850, Note_on_c, 0, 56, 0
1, 15850, Note_on_c, 0, 50, 63
1, 15850, Note_on_c, 0, 47, 63
1, 15853, Note_on_c, 0, 38, 0
1, 15853, Note_on_c, 0, 29, 61
1, 15911, Note_on_c, 0, 47, 0
1, 15911, Note_on_c, 0, 50, 0
1, 15911, Note_on_c, 0, 56, 59
1, 15914, Note_on_c, 0, 29, 0
1, 15914, Note_on_c, 0, 38, 63
1, 15972, Note_on_c, 0, 56, 0
1, 15972, Note_on_c, 0, 50, 67
1, 15972, Note_on_c, 0, 47, 67
1, 15975, Note_on_c, 0, 38, 0
1, 15975, Note_on_c, 0, 29, 64
1, 16031, Note_on_c, 0, 56, 70
1, 16031, Note_on_c, 0, 29, 0
1, 16031, Note_on_c, 0, 38, 65
1, 16061, Note_on_c, 0, 47, 0
1, 16061, Note_on_c, 0, 50, 0
1, 16090, Note_on_c, 0, 56, 0
1, 16090, Note_on_c, 0, 50, 73
1, 16090, Note_on_c, 0, 47, 73
1, 16093, Note_on_c, 0, 38, 0
1, 16093, Note_on_c, 0, 29, 66
1, 16148, Note_on_c, 0, 47, 0
1, 16148, Note_on_c, 0, 50, 0
1, 16148, Note_on_c, 0, 56, 77
1, 16151, Note_on_c, 0, 29, 0
1, 16151, Note_on_c, 0, 38, 67
1, 16205, Note_on_c, 0, 56, 0
1, 16205, Note_on_c, 0, 50, 80
1, 16205, Note_on_c, 0, 47, 80
1, 16208, Note_on_c, 0, 38, 0
1, 16208, Note_on_c, 0, 29, 68
1, 16263, Note_on_c, 0, 47, 0
1, 16263, Note_on_c, 0, 50, 0
1, 16263, Note_on_c, 0, 56, 83
1, 16266, Note_on_c, 0, 29, 0
1, 16266, Note_on_c, 0, 38, 69
1, 16323, Note_on_c, 0, 56, 0
1, 16323, Note_on_c, 0, 50, 86
1, 16323, Note_on_c, 0, 47, 86
1, 16326, Note_on_c, 0, 38, 0
1, 16326, Note_on_c, 0, 29, 70
1, 16382, Note_on_c, 0, 56, 89
1, 16382, Note_on_c, 0, 29, 0
1, 16382, Note_on_c, 0, 38, 71
1, 16413, Note_on_c, 0, 47, 0
1, 16413, Note_on_c, 0, 50, 0
1, 16443, Note_on_c, 0, 56, 0
1, 16443, Note_on_c, 0, 49, 83
1, 16443, Note_on_c, 0, 55, 93
1, 16446, Note_on_c, 0, 38, 0
1, 16446, Note_on_c, 0, 37, 72
1, 16446, Note_on_c, 0, 28, 65
1, 16449, Control_c, 0, 64, 0
1, 16477, Note_on_c, 0, 46, 74
1, 16510, Note_on_c, 0, 55, 0
1, 16510, Note_on_c, 0, 28, 0
1, 16510, Note_on_c, 0, 37, 0
1, 16544, Note_on_c, 0, 46, 0
1, 16544, Note_on_c, 0, 49, 0
1, 16544, Note_on_c, 0, 47, 78
1, 16547, Note_on_c, 0, 50, 90
1, 16547, Note_on_c, 0, 56, 98
1, 16547, Note_on_c, 0, 29, 75
1, 16550, Note_on_c, 0, 38, 81
1, 16746, Note_on_c, 0, 56, 0
1, 16746, Note_on_c, 0, 50, 0
1, 16746, Note_on_c, 0, 47, 0
1, 16749, Note_on_c, 0, 38, 0
1, 16749, Note_on_c, 0, 29, 0
1, 18191, Note_on_c, 0, 56, 73
1, 18277, Note_on_c, 0, 56, 0
1, 18277, Note_on_c, 0, 56, 73
1, 18304, Control_c, 0, 64, 127
1, 18768, Note_on_c, 0, 40, 39
1, 18786, Note_on_c, 0, 47, 44
1, 18805, Note_on_c, 0, 50, 47
1, 18823, Note_on_c, 0, 56, 51
1, 18842, Note_on_c, 0, 62, 57
1, 18860, Note_on_c, 0, 68, 59
1, 18879, Note_on_c, 0, 71, 63
1, 18897, Note_on_c, 0, 76, 66
1, 19225, Note_on_c, 0, 76, 0
1, 19225, Note_on_c, 0, 62, 0
1, 19225, Note_on_c, 0, 68, 0
1, 19228, Note_on_c, 0, 71, 0
1, 19228, Note_on_c, 0, 56, 0
1, 19228, Note_on_c, 0, 40, 0
1, 19231, Note_on_c, 0, 47, 0
1, 19231, Note_on_c, 0, 50, 0
1, 19389, Note_on_c, 0, 56, 0
1, 19389, Note_on_c, 0, 57, 73
1, 19458, Note_on_c, 0, 57, 0
1, 19458, Note_on_c, 0, 59, 73
1, 19527, Note_on_c, 0, 59, 0
1, 19527, Note_on_c, 0, 52, 73
1, 19567, Control_c, 0, 64, 0
1, 19682, Control_c, 0, 64, 127
1, 20040, Note_on_c, 0, 40, 39
1, 20059, Note_on_c, 0, 47, 44
1, 20078, Note_on_c, 0, 50, 47
1, 20096, Note_on_c, 0, 56, 51
1, 20115, Note_on_c, 0, 62, 57
1, 20134, Note_on_c, 0, 68, 59
1, 20153, Note_on_c, 0, 71, 63
1, 20172, Note_on_c, 0, 76, 66
1, 20172, Note_on_c, 0, 52, 0
1, 20500, Note_on_c, 0, 76, 0
1, 20500, Note_on_c, 0, 62, 0
1, 20500, Note_on_c, 0, 68, 0
1, 20503, Note_on_c, 0, 71, 0
1, 20503, Note_on_c, 0, 56, 0
1, 20503, Note_on_c, 0, 40, 0
1, 20506, Note_on_c, 0, 47, 0
1, 20506, Note_on_c, 0, 50, 0
1, 20664, Note_on_c, 0, 52, 73
1, 20821, Note_on_c, 0, 52, 0
1, 20821, Note_on_c, 0, 54, 73
1, 20845, Control_c, 0, 64, 0
1, 20886, Control_c, 0, 64, 127
1, 21341, Note_on_c, 0, 40, 39
1, 21360, Note_on_c, 0, 47, 44
1, 21379, Note_on_c, 0, 50, 47
1, 21399, Note_on_c, 0, 54, 51
1, 21418, Note_on_c, 0, 62, 57
1, 21437, Note_on_c, 0, 66, 59
1, 21456, Note_on_c, 0, 69, 63
1, 21475, Note_on_c, 0, 76, 66
1, 21733, Note_on_c, 0, 54, 0
1, 21733, Note_on_c, 0, 57, 73
1, 21809, Note_on_c, 0, 76, 0
1, 21809, Note_on_c, 0, 62, 0
1, 21809, Note_on_c, 0, 66, 0
1, 21812, Note_on_c, 0, 69, 0
1, 21812, Note_on_c, 0, 57, 0
1, 21812, Note_on_c, 0, 56, 73
1, 21815, Note_on_c, 0, 54, 0
1, 21815, Note_on_c, 0, 40, 0
1, 21815, Note_on_c, 0, 47, 0
1, 21818, Note_on_c, 0, 50, 0
1, 21885, Note_on_c, 0, 56, 0
1, 21885, Note_on_c, 0, 54, 73
1, 21961, Note_on_c, 0, 54, 0
1, 21961, Note_on_c, 0, 56, 73
1, 22037, Note_on_c, 0, 56, 0
1, 22037, Note_on_c, 0, 57, 73
1, 22113, Note_on_c, 0, 57, 0
1, 22113, Note_on_c, 0, 56, 73
1, 22153, Control_c, 0, 64, 0
1, 22314, Control_c, 0, 64, 127
1, 22628, Note_on_c, 0, 40, 39
1, 22647, Note_on_c, 0, 47, 44
1, 22666, Note_on_c, 0, 50, 47
1, 22686, Note_on_c, 0, 56, 51
1, 22705, Note_on_c, 0, 62, 57
1, 22724, Note_on_c, 0, 68, 59
1, 22743, Note_on_c, 0, 71, 63
1, 22763, Note_on_c, 0, 76, 66
1, 22763, Note_on_c, 0, 56, 0
1, 23094, Note_on_c, 0, 76, 0
1, 23094, Note_on_c, 0, 62, 0
1, 23094, Note_on_c, 0, 68, 0
1, 23097, Note_on_c, 0, 71, 0
1, 23097, Note_on_c, 0, 56, 0
1, 23097, Note_on_c, 0, 40, 0
1, 23100, Note_on_c, 0, 47, 0
1, 23100, Note_on_c, 0, 50, 0
1, 23260, Note_on_c, 0, 52, 73
1, 23426, Note_on_c, 0, 52, 0
1, 23426, Note_on_c, 0, 61, 73
1, 23474, Control_c, 0, 64, 0
1, 23550, Control_c, 0, 64, 127
1, 23934, Note_on_c, 0, 40, 43
1, 23953, Note_on_c, 0, 49, 47
1, 23972, Note_on_c, 0, 52, 50
1, 23991, Note_on_c, 0, 57, 54
1, 24010, Note_on_c, 0, 64, 60
1, 24029, Note_on_c, 0, 69, 64
1, 24047, Note_on_c, 0, 73, 67
1, 24066, Note_on_c, 0, 81, 70
1, 24394, Note_on_c, 0, 81, 0
1, 24394, Note_on_c, 0, 64, 0
1, 24394, Note_on_c, 0, 69, 0
1, 24397, Note_on_c, 0, 73, 0
1, 24397, Note_on_c, 0, 57, 0
1, 24397, Note_on_c, 0, 40, 0
1, 24400, Note_on_c, 0, 49, 0
1, 24400, Note_on_c, 0, 52, 0
1, 24558, Note_on_c, 0, 61, 0
1, 24558, Note_on_c, 0, 62, 73
1, 24627, Note_on_c, 0, 62, 0
1, 24627, Note_on_c, 0, 64, 73
1, 24696, Note_on_c, 0, 64, 0
1, 24696, Note_on_c, 0, 57, 73
1, 24737, Control_c, 0, 64, 0
1, 24851, Control_c, 0, 64, 127
1, 25214, Note_on_c, 0, 40, 43
1, 25234, Note_on_c, 0, 49, 47
1, 25253, Note_on_c, 0, 52, 50
1, 25273, Note_on_c, 0, 57, 54
1, 25292, Note_on_c, 0, 64, 60
1, 25312, Note_on_c, 0, 69, 64
1, 25331, Note_on_c, 0, 73, 67
1, 25350, Note_on_c, 0, 81, 70
1, 25350, Note_on_c, 0, 57, 0
1, 25682, Note_on_c, 0, 81, 0
1, 25682, Note_on_c, 0, 64, 0
1, 25682, Note_on_c, 0, 69, 0
1, 25685, Note_on_c, 0, 73, 0
1, 25685, Note_on_c, 0, 57, 0
1, 25685, Note_on_c, 0, 40, 0
1, 25688, Note_on_c, 0, 49, 0
1, 25688, Note_on_c, 0, 52, 0
1, 25848, Note_on_c, 0, 57, 75
1, 26005, Note_on_c, 0, 57, 0
1, 26005, Note_on_c, 0, 60, 77
1, 26029, Control_c, 0, 64, 0
1, 26070, Control_c, 0, 64, 127
1, 26534, Note_on_c, 0, 40, 43
1, 26554, Note_on_c, 0, 48, 47
1, 26575, Note_on_c, 0, 51, 50
1, 26595, Note_on_c, 0, 57, 54
1, 26615, Note_on_c, 0, 66, 60
1, 26636, Note_on_c, 0, 72, 64
1, 26656, Note_on_c, 0, 75, 67
1, 26676, Note_on_c, 0, 81, 70
1, 26936, Note_on_c, 0, 60, 0
1, 26936, Note_on_c, 0, 63, 73
1, 27012, Note_on_c, 0, 81, 0
1, 27012, Note_on_c, 0, 66, 0
1, 27012, Note_on_c, 0, 72, 0
1, 27015, Note_on_c, 0, 75, 0
1, 27015, Note_on_c, 0, 63, 0
1, 27015, Note_on_c, 0, 61, 73
1, 27018, Note_on_c, 0, 57, 0
1, 27018, Note_on_c, 0, 40, 0
1, 27018, Note_on_c, 0, 48, 0
1, 27021, Note_on_c, 0, 51, 0
1, 27089, Note_on_c, 0, 61, 0
1, 27089, Note_on_c, 0, 60, 73
1, 27165, Note_on_c, 0, 60, 0
1, 27165, Note_on_c, 0, 61, 73
1, 27246, Note_on_c, 0, 61, 0
1, 27246, Note_on_c, 0, 63, 73
1, 27327, Note_on_c, 0, 63, 0
1, 27327, Note_on_c, 0, 61, 73
1, 27367, Control_c, 0, 64, 0
1, 27527, Control_c, 0, 64, 127
1, 27863, Note_on_c, 0, 40, 43
1, 27884, Note_on_c, 0, 49, 47
1, 27906, Note_on_c, 0, 52, 50
1, 27927, Note_on_c, 0, 57, 54
1, 27949, Note_on_c, 0, 64, 60
1, 27970, Note_on_c, 0, 69, 64
1, 27991, Note_on_c, 0, 73, 67
1, 28013, Note_on_c, 0, 81, 70
1, 28013, Note_on_c, 0, 61, 0
1, 28372, Note_on_c, 0, 81, 0
1, 28372, Note_on_c, 0, 64, 0
1, 28372, Note_on_c, 0, 69, 0
1, 28375, Note_on_c, 0, 73, 0
1, 28375, Note_on_c, 0, 57, 0
1, 28375, Note_on_c, 0, 40, 0
1, 28378, Note_on_c, 0, 49, 0
1, 28378, Note_on_c, 0, 52, 0
1, 28499, Note_on_c, 0, 61, 69
1, 28584, Note_on_c, 0, 61, 0
1, 28584, Note_on_c, 0, 39, 48
1, 28605, Note_on_c, 0, 49, 49
1, 28627, Note_on_c, 0, 54, 51
1, 28648, Note_on_c, 0, 57, 59
1, 28669, Note_on_c, 0, 61, 63
1, 28690, Note_on_c, 0, 66, 64
1, 28711, Note_on_c, 0, 69, 77
1, 28746, Control_c, 0, 64, 0
1, 28842, Control_c, 0, 64, 127
1, 29598, Note_on_c, 0, 69, 0
1, 29598, Note_on_c, 0, 71, 69
1, 29716, Note_on_c, 0, 71, 0
1, 29716, Note_on_c, 0, 73, 69
1, 29823, Note_on_c, 0, 57, 0
1, 29833, Note_on_c, 0, 73, 0
1, 29833, Note_on_c, 0, 66, 0
1, 29833, Note_on_c, 0, 73, 73
1, 29843, Note_on_c, 0, 61, 0
1, 29951, Note_on_c, 0, 73, 0
1, 29951, Note_on_c, 0, 66, 68
1, 30304, Note_on_c, 0, 66, 0
1, 30539, Control_c, 0, 64, 0
1, 30715, Note_on_c, 0, 66, 63
1, 30774, Note_on_c, 0, 66, 0
1, 30774, Note_on_c, 0, 66, 78
1, 30774, Note_on_c, 0, 54, 0
1, 30777, Note_on_c, 0, 49, 0
1, 30777, Note_on_c, 0, 39, 0
1, 31424, Note_on_c, 0, 66, 0
1, 31424, Note_on_c, 0, 68, 65
1, 31469, Control_c, 0, 64, 127
1, 31504, Note_on_c, 0, 69, 65
1, 31518, Note_on_c, 0, 68, 0
1, 31585, Note_on_c, 0, 61, 70
1, 31602, Note_on_c, 0, 69, 0
1, 31618, Control_c, 0, 64, 0
1, 31896, Note_on_c, 0, 61, 0
1, 31896, Note_on_c, 0, 63, 64
1, 31922, Control_c, 0, 64, 127
1, 31951, Note_on_c, 0, 64, 64
1, 31970, Note_on_c, 0, 63, 0
1, 32007, Note_on_c, 0, 57, 70
1, 32023, Note_on_c, 0, 64, 0
1, 32026, Control_c, 0, 64, 0
1, 32305, Note_on_c, 0, 57, 0
1, 32305, Note_on_c, 0, 59, 63
1, 32314, Control_c, 0, 64, 127
1, 32358, Note_on_c, 0, 61, 63
1, 32376, Note_on_c, 0, 59, 0
1, 32411, Note_on_c, 0, 54, 70
1, 32424, Control_c, 0, 64, 0
1, 32427, Note_on_c, 0, 61, 0
1, 32698, Note_on_c, 0, 54, 0
1, 32698, Note_on_c, 0, 56, 65
1, 32712, Control_c, 0, 64, 127
1, 32748, Note_on_c, 0, 57, 66
1, 32765, Note_on_c, 0, 56, 0
1, 32798, Note_on_c, 0, 49, 70
1, 32814, Note_on_c, 0, 57, 0
1, 32828, Control_c, 0, 64, 0
1, 33075, Note_on_c, 0, 49, 0
1, 33075, Note_on_c, 0, 51, 63
1, 33079, Control_c, 0, 64, 127
1, 33124, Note_on_c, 0, 52, 63
1, 33140, Note_on_c, 0, 51, 0
1, 33172, Note_on_c, 0, 45, 70
1, 33187, Note_on_c, 0, 52, 0
1, 33196, Control_c, 0, 64, 0
1, 33445, Note_on_c, 0, 45, 0
1, 33445, Note_on_c, 0, 47, 66
1, 33456, Control_c, 0, 64, 127
1, 33493, Note_on_c, 0, 49, 66
1, 33509, Note_on_c, 0, 47, 0
1, 33540, Note_on_c, 0, 42, 70
1, 33555, Note_on_c, 0, 49, 0
1, 33570, Control_c, 0, 64, 0
1, 33817, Note_on_c, 0, 42, 0
1, 33817, Note_on_c, 0, 44, 62
1, 33828, Control_c, 0, 64, 127
1, 33865, Note_on_c, 0, 45, 62
1, 33882, Note_on_c, 0, 44, 0
1, 33914, Note_on_c, 0, 39, 68
1, 33926, Control_c, 0, 64, 0
1, 33931, Note_on_c, 0, 45, 0
1, 33971, Control_c, 0, 64, 127
1, 34119, Note_on_c, 0, 39, 0
1, 34119, Note_on_c, 0, 40, 55
1, 34171, Note_on_c, 0, 40, 0
1, 34171, Note_on_c, 0, 39, 49
1, 34225, Note_on_c, 0, 39, 0
1, 34225, Note_on_c, 0, 40, 55
1, 34282, Note_on_c, 0, 40, 0
1, 34282, Note_on_c, 0, 39, 48
1, 34338, Note_on_c, 0, 39, 0
1, 34338, Note_on_c, 0, 40, 55
1, 34391, Note_on_c, 0, 40, 0
1, 34391, Note_on_c, 0, 39, 50
1, 34446, Note_on_c, 0, 39, 0
1, 34446, Note_on_c, 0, 40, 55
1, 34498, Note_on_c, 0, 40, 0
1, 34498, Note_on_c, 0, 39, 51
1, 34549, Note_on_c, 0, 39, 0
1, 34549, Note_on_c, 0, 40, 55
1, 34601, Note_on_c, 0, 40, 0
1, 34601, Note_on_c, 0, 39, 50
1, 34652, Note_on_c, 0, 39, 0
1, 34652, Note_on_c, 0, 40, 55
1, 34703, Note_on_c, 0, 40, 0
1, 34703, Note_on_c, 0, 39, 52
1, 34754, Note_on_c, 0, 39, 0
1, 34754, Note_on_c, 0, 40, 55
1, 34766, Control_c, 0, 64, 0
1, 34803, Note_on_c, 0, 40, 0
1, 34803, Note_on_c, 0, 39, 50
1, 34803, Control_c, 0, 64, 127
1, 34854, Note_on_c, 0, 39, 0
1, 34854, Note_on_c, 0, 40, 55
1, 34905, Note_on_c, 0, 40, 0
1, 34905, Note_on_c, 0, 39, 51
1, 34955, Note_on_c, 0, 39, 0
1, 34955, Note_on_c, 0, 40, 55
1, 35005, Note_on_c, 0, 40, 0
1, 35005, Note_on_c, 0, 39, 50
1, 35057, Note_on_c, 0, 39, 0
1, 35057, Note_on_c, 0, 40, 55
1, 35107, Note_on_c, 0, 40, 0
1, 35107, Note_on_c, 0, 39, 52
1, 35156, Note_on_c, 0, 39, 0
1, 35156, Note_on_c, 0, 40, 55
1, 35206, Note_on_c, 0, 40, 0
1, 35206, Note_on_c, 0, 39, 50
1, 35256, Note_on_c, 0, 39, 0
1, 35256, Note_on_c, 0, 40, 55
1, 35305, Note_on_c, 0, 40, 0
1, 35305, Note_on_c, 0, 39, 51
1, 35354, Note_on_c, 0, 39, 0
1, 35354, Note_on_c, 0, 40, 55
1, 35405, Note_on_c, 0, 40, 0
1, 35405, Note_on_c, 0, 39, 50
1, 35455, Note_on_c, 0, 39, 0
1, 35455, Note_on_c, 0, 40, 55
1, 35507, Note_on_c, 0, 40, 0
1, 35507, Note_on_c, 0, 39, 52
1, 35560, Note_on_c, 0, 39, 0
1, 35560, Note_on_c, 0, 38, 55
1, 35585, Control_c, 0, 64, 0
1, 35620, Note_on_c, 0, 39, 52
1, 35632, Note_on_c, 0, 38, 0
1, 35679, Note_on_c, 0, 40, 55
1, 35691, Note_on_c, 0, 39, 0
1, 35739, Note_on_c, 0, 39, 50
1, 35751, Note_on_c, 0, 40, 0
1, 35799, Note_on_c, 0, 37, 51
1, 35811, Note_on_c, 0, 39, 0
1, 35859, Note_on_c, 0, 35, 53
1, 35871, Note_on_c, 0, 37, 0
1, 35918, Note_on_c, 0, 33, 54
1, 35930, Note_on_c, 0, 35, 0
1, 35978, Note_on_c, 0, 32, 56
1, 35990, Note_on_c, 0, 33, 0
1, 36038, Note_on_c, 0, 33, 57
1, 36050, Note_on_c, 0, 32, 0
1, 36098, Note_on_c, 0, 29, 59
1, 36110, Note_on_c, 0, 33, 0
1, 36286, Note_on_c, 0, 29, 0
1, 36286, Note_on_c, 0, 30, 51
1, 36357, Note_on_c, 0, 32, 51
1, 36372, Note_on_c, 0, 30, 0
1, 36435, Note_on_c, 0, 33, 51
1, 36450, Note_on_c, 0, 32, 0
1, 36513, Note_on_c, 0, 35, 52
1, 36529, Note_on_c, 0, 33, 0
1, 36591, Note_on_c, 0, 37, 52
1, 36606, Note_on_c, 0, 35, 0
1, 36668, Note_on_c, 0, 37, 0
1, 36668, Note_on_c, 0, 39, 54
1, 36743, Note_on_c, 0, 40, 54
1, 36758, Note_on_c, 0, 39, 0
1, 36818, Note_on_c, 0, 42, 54
1, 36833, Note_on_c, 0, 40, 0
1, 36892, Note_on_c, 0, 44, 55
1, 36907, Note_on_c, 0, 42, 0
1, 36966, Note_on_c, 0, 45, 55
1, 36981, Note_on_c, 0, 44, 0
1, 37039, Note_on_c, 0, 47, 56
1, 37053, Note_on_c, 0, 45, 0
1, 37111, Note_on_c, 0, 49, 56
1, 37125, Note_on_c, 0, 47, 0
1, 37183, Note_on_c, 0, 51, 57
1, 37197, Note_on_c, 0, 49, 0
1, 37255, Note_on_c, 0, 52, 57
1, 37270, Note_on_c, 0, 51, 0
1, 37328, Note_on_c, 0, 48, 64
1, 37342, Note_on_c, 0, 52, 0
1, 37400, Note_on_c, 0, 51, 60
1, 37414, Note_on_c, 0, 48, 0
1, 37472, Note_on_c, 0, 49, 65
1, 37486, Note_on_c, 0, 51, 0
1, 37544, Note_on_c, 0, 47, 67
1, 37557, Note_on_c, 0, 49, 0
1, 37616, Note_on_c, 0, 45, 72
1, 37631, Note_on_c, 0, 47, 0
1, 37689, Note_on_c, 0, 44, 75
1, 37703, Note_on_c, 0, 45, 0
1, 37763, Note_on_c, 0, 45, 78
1, 37777, Note_on_c, 0, 44, 0
1, 37837, Note_on_c, 0, 41, 81
1, 37851, Note_on_c, 0, 45, 0
1, 37912, Note_on_c, 0, 42, 84
1, 37927, Note_on_c, 0, 41, 0
1, 37988, Note_on_c, 0, 43, 87
1, 38004, Note_on_c, 0, 42, 0
1, 38069, Note_on_c, 0, 44, 89
1, 38083, Note_on_c, 0, 43, 0
1, 38148, Note_on_c, 0, 44, 0
1, 38151, Note_on_c, 0, 44, 93
1, 38151, Control_c, 0, 64, 0
1, 38238, Control_c, 0, 64, 127
1, 38398, Note_on_c, 0, 44, 0
1, 38645, Note_on_c, 0, 32, 92
1, 38790, Control_c, 0, 64, 0
1, 38892, Note_on_c, 0, 32, 0
1, 39015, Note_on_c, 0, 85, 73
1, 39015, Note_on_c, 0, 88, 73
1, 39015, Note_on_c, 0, 76, 61
1, 39018, Note_on_c, 0, 64, 50
1, 39018, Note_on_c, 0, 73, 50
1, 39018, Note_on_c, 0, 61, 42
1, 39048, Control_c, 0, 64, 127
1, 39109, Note_on_c, 0, 76, 0
1, 39109, Note_on_c, 0, 88, 0
1, 39109, Note_on_c, 0, 85, 0
1, 39112, Note_on_c, 0, 88, 83
1, 39112, Note_on_c, 0, 85, 83
1, 39112, Note_on_c, 0, 76, 70
1, 39115, Note_on_c, 0, 61, 0
1, 39115, Note_on_c, 0, 73, 0
1, 39115, Note_on_c, 0, 64, 0
1, 39118, Note_on_c, 0, 73, 58
1, 39118, Note_on_c, 0, 61, 49
1, 39118, Note_on_c, 0, 64, 49
1, 40149, Note_on_c, 0, 76, 0
1, 40149, Note_on_c, 0, 85, 0
1, 40149, Note_on_c, 0, 88, 0
1, 40152, Note_on_c, 0, 87, 73
1, 40152, Note_on_c, 0, 83, 73
1, 40152, Note_on_c, 0, 75, 61
1, 40155, Note_on_c, 0, 64, 0
1, 40155, Note_on_c, 0, 61, 0
1, 40155, Note_on_c, 0, 73, 0
1, 40158, Note_on_c, 0, 71, 50
1, 40158, Note_on_c, 0, 59, 42
1, 40158, Note_on_c, 0, 63, 42
1, 40161, Control_c, 0, 64, 0
1, 40215, Control_c, 0, 64, 127
1, 40243, Note_on_c, 0, 75, 0
1, 40243, Note_on_c, 0, 83, 0
1, 40243, Note_on_c, 0, 87, 0
1, 40246, Note_on_c, 0, 87, 83
1, 40246, Note_on_c, 0, 83, 83
1, 40246, Note_on_c, 0, 75, 70
1, 40249, Note_on_c, 0, 63, 0
1, 40249, Note_on_c, 0, 59, 0
1, 40249, Note_on_c, 0, 71, 0
1, 40252, Note_on_c, 0, 71, 58
1, 40252, Note_on_c, 0, 59, 49
1, 40252, Note_on_c, 0, 63, 49
1, 40508, Note_on_c, 0, 75, 0
1, 40508, Note_on_c, 0, 83, 0
1, 40508, Note_on_c, 0, 87, 0
1, 40511, Note_on_c, 0, 85, 73
1, 40511, Note_on_c, 0, 81, 73
1, 40511, Note_on_c, 0, 73, 61
1, 40514, Note_on_c, 0, 63, 0
1, 40514, Note_on_c, 0, 59, 0
1, 40514, Note_on_c, 0, 71, 0
1, 40517, Note_on_c, 0, 69, 50
1, 40517, Note_on_c, 0, 57, 42
1, 40517, Note_on_c, 0, 61, 42
1, 40520, Control_c, 0, 64, 0
1, 40595, Note_on_c, 0, 73, 0
1, 40595, Note_on_c, 0, 81, 0
1, 40595, Note_on_c, 0, 85, 0
1, 40598, Note_on_c, 0, 81, 80
1, 40598, Note_on_c, 0, 85, 80
1, 40598, Note_on_c, 0, 73, 68
1, 40601, Note_on_c, 0, 61, 0
1, 40601, Note_on_c, 0, 57, 0
1, 40601, Note_on_c, 0, 69, 0
1, 40604, Note_on_c, 0, 69, 56
1, 40604, Note_on_c, 0, 57, 47
1, 40604, Note_on_c, 0, 61, 47
1, 40615, Control_c, 0, 64, 127
1, 40851, Note_on_c, 0, 73, 0
1, 40851, Note_on_c, 0, 85, 0
1, 40851, Note_on_c, 0, 81, 0
1, 40854, Note_on_c, 0, 81, 73
1, 40854, Note_on_c, 0, 78, 73
1, 40854, Note_on_c, 0, 69, 61
1, 40857, Note_on_c, 0, 61, 0
1, 40857, Note_on_c, 0, 57, 0
1, 40857, Note_on_c, 0, 69, 0
1, 40860, Note_on_c, 0, 66, 50
1, 40860, Note_on_c, 0, 54, 42
1, 40860, Note_on_c, 0, 57, 42
1, 40860, Control_c, 0, 64, 0
1, 40936, Note_on_c, 0, 69, 0
1, 40936, Note_on_c, 0, 78, 0
1, 40936, Note_on_c, 0, 81, 0
1, 40939, Note_on_c, 0, 81, 80
1, 40939, Note_on_c, 0, 78, 80
1, 40939, Note_on_c, 0, 69, 68
1, 40942, Note_on_c, 0, 57, 0
1, 40942, Note_on_c, 0, 54, 0
1, 40942, Note_on_c, 0, 66, 0
1, 40945, Note_on_c, 0, 66, 56
1, 40945, Note_on_c, 0, 54, 47
1, 40945, Note_on_c, 0, 57, 47
1, 40955, Control_c, 0, 64, 127
1, 41184, Note_on_c, 0, 69, 0
1, 41184, Note_on_c, 0, 78, 0
1, 41184, Note_on_c, 0, 81, 0
1, 41187, Note_on_c, 0, 80, 75
1, 41187, Note_on_c, 0, 76, 75
1, 41187, Note_on_c, 0, 68, 63
1, 41190, Note_on_c, 0, 57, 0
1, 41190, Note_on_c, 0, 54, 0
1, 41190, Note_on_c, 0, 66, 0
1, 41193, Note_on_c, 0, 64, 52
1, 41193, Note_on_c, 0, 52, 44
1, 41193, Note_on_c, 0, 56, 44
1, 41193, Control_c, 0, 64, 0
1, 41265, Note_on_c, 0, 68, 0
1, 41265, Note_on_c, 0, 76, 0
1, 41265, Note_on_c, 0, 80, 0
1, 41268, Note_on_c, 0, 80, 83
1, 41268, Note_on_c, 0, 76, 83
1, 41268, Note_on_c, 0, 68, 70
1, 41271, Note_on_c, 0, 56, 0
1, 41271, Note_on_c, 0, 52, 0
1, 41271, Note_on_c, 0, 64, 0
1, 41274, Note_on_c, 0, 64, 58
1, 41274, Note_on_c, 0, 52, 49
1, 41274, Note_on_c, 0, 56, 49
1, 41277, Control_c, 0, 64, 127
1, 41505, Note_on_c, 0, 68, 0
1, 41505, Note_on_c, 0, 76, 0
1, 41505, Note_on_c, 0, 80, 0
1, 41508, Note_on_c, 0, 76, 73
1, 41508, Note_on_c, 0, 73, 73
1, 41508, Note_on_c, 0, 64, 61
1, 41511, Note_on_c, 0, 56, 0
1, 41511, Note_on_c, 0, 52, 0
1, 41511, Note_on_c, 0, 64, 0
1, 41514, Note_on_c, 0, 61, 50
1, 41514, Note_on_c, 0, 49, 42
1, 41514, Note_on_c, 0, 52, 42
1, 41517, Control_c, 0, 64, 0
1, 41571, Control_c, 0, 64, 127
1, 41585, Note_on_c, 0, 64, 0
1, 41585, Note_on_c, 0, 73, 0
1, 41585, Note_on_c, 0, 76, 0
1, 41588, Note_on_c, 0, 73, 80
1, 41588, Note_on_c, 0, 76, 80
1, 41588, Note_on_c, 0, 64, 68
1, 41591, Note_on_c, 0, 52, 0
1, 41591, Note_on_c, 0, 49, 0
1, 41591, Note_on_c, 0, 61, 0
1, 41594, Note_on_c, 0, 61, 56
1, 41594, Note_on_c, 0, 49, 47
1, 41594, Note_on_c, 0, 52, 47
1, 41824, Note_on_c, 0, 64, 0
1, 41824, Note_on_c, 0, 76, 0
1, 41824, Note_on_c, 0, 73, 0
1, 41827, Note_on_c, 0, 75, 73
1, 41827, Note_on_c, 0, 71, 73
1, 41827, Note_on_c, 0, 63, 61
1, 41830, Note_on_c, 0, 52, 0
1, 41830, Note_on_c, 0, 49, 0
1, 41830, Note_on_c, 0, 61, 0
1, 41833, Note_on_c, 0, 59, 50
1, 41833, Note_on_c, 0, 47, 42
1, 41833, Note_on_c, 0, 51, 42
1, 41836, Control_c, 0, 64, 0
1, 41903, Note_on_c, 0, 63, 0
1, 41903, Note_on_c, 0, 71, 0
1, 41903, Note_on_c, 0, 75, 0
1, 41906, Note_on_c, 0, 75, 81
1, 41906, Note_on_c, 0, 71, 81
1, 41906, Note_on_c, 0, 63, 69
1, 41909, Note_on_c, 0, 51, 0
1, 41909, Note_on_c, 0, 47, 0
1, 41909, Note_on_c, 0, 59, 0
1, 41912, Note_on_c, 0, 59, 57
1, 41912, Note_on_c, 0, 47, 47
1, 41912, Note_on_c, 0, 51, 47
1, 41915, Control_c, 0, 64, 127
1, 42141, Note_on_c, 0, 63, 0
1, 42141, Note_on_c, 0, 71, 0
1, 42141, Note_on_c, 0, 75, 0
1, 42144, Note_on_c, 0, 73, 78
1, 42144, Note_on_c, 0, 69, 78
1, 42144, Note_on_c, 0, 61, 66
1, 42147, Note_on_c, 0, 51, 0
1, 42147, Note_on_c, 0, 47, 0
1, 42147, Note_on_c, 0, 59, 0
1, 42150, Note_on_c, 0, 57, 53
1, 42150, Note_on_c, 0, 45, 45
1, 42150, Note_on_c, 0, 49, 45
1, 42153, Control_c, 0, 64, 0
1, 42220, Note_on_c, 0, 61, 0
1, 42220, Note_on_c, 0, 69, 0
1, 42220, Note_on_c, 0, 73, 0
1, 42223, Note_on_c, 0, 73, 82
1, 42223, Note_on_c, 0, 69, 82
1, 42223, Note_on_c, 0, 61, 70
1, 42226, Note_on_c, 0, 49, 0
1, 42226, Note_on_c, 0, 45, 0
1, 42226, Note_on_c, 0, 57, 0
1, 42229, Note_on_c, 0, 57, 58
1, 42229, Note_on_c, 0, 45, 48
1, 42229, Note_on_c, 0, 49, 48
1, 42232, Control_c, 0, 64, 127
1, 42457, Note_on_c, 0, 61, 0
1, 42457, Note_on_c, 0, 69, 0
1, 42457, Note_on_c, 0, 73, 0
1, 42460, Note_on_c, 0, 69, 80
1, 42460, Note_on_c, 0, 66, 80
1, 42460, Note_on_c, 0, 57, 67
1, 42463, Note_on_c, 0, 49, 0
1, 42463, Note_on_c, 0, 45, 0
1, 42463, Note_on_c, 0, 57, 0
1, 42466, Note_on_c, 0, 54, 55
1, 42466, Note_on_c, 0, 42, 46
1, 42466, Note_on_c, 0, 45, 46
1, 42469, Control_c, 0, 64, 0
1, 42536, Note_on_c, 0, 57, 0
1, 42536, Note_on_c, 0, 66, 0
1, 42536, Note_on_c, 0, 69, 0
1, 42539, Note_on_c, 0, 69, 85
1, 42539, Note_on_c, 0, 66, 85
1, 42539, Note_on_c, 0, 57, 72
1, 42542, Note_on_c, 0, 45, 0
1, 42542, Note_on_c, 0, 42, 0
1, 42542, Note_on_c, 0, 54, 0
1, 42545, Note_on_c, 0, 54, 59
1, 42545, Note_on_c, 0, 42, 50
1, 42545, Note_on_c, 0, 45, 50
1, 42559, Control_c, 0, 64, 127
1, 42774, Note_on_c, 0, 57, 0
1, 42774, Note_on_c, 0, 66, 0
1, 42774, Note_on_c, 0, 69, 0
1, 42777, Note_on_c, 0, 68, 81
1, 42777, Note_on_c, 0, 64, 81
1, 42777, Note_on_c, 0, 56, 68
1, 42780, Note_on_c, 0, 45, 0
1, 42780, Note_on_c, 0, 42, 0
1, 42780, Note_on_c, 0, 54, 0
1, 42783, Note_on_c, 0, 52, 56
1, 42783, Note_on_c, 0, 40, 47
1, 42783, Note_on_c, 0, 44, 47
1, 42786, Control_c, 0, 64, 0
1, 42839, Control_c, 0, 64, 127
1, 42853, Note_on_c, 0, 56, 0
1, 42853, Note_on_c, 0, 64, 0
1, 42853, Note_on_c, 0, 68, 0
1, 42856, Note_on_c, 0, 68, 86
1, 42856, Note_on_c, 0, 64, 86
1, 42856, Note_on_c, 0, 56, 73
1, 42859, Note_on_c, 0, 44, 0
1, 42859, Note_on_c, 0, 40, 0
1, 42859, Note_on_c, 0, 52, 0
1, 42862, Note_on_c, 0, 52, 60
1, 42862, Note_on_c, 0, 40, 50
1, 42862, Note_on_c, 0, 44, 50
1, 43090, Note_on_c, 0, 56, 0
1, 43090, Note_on_c, 0, 64, 0
1, 43090, Note_on_c, 0, 68, 0
1, 43093, Note_on_c, 0, 64, 83
1, 43093, Note_on_c, 0, 61, 83
1, 43093, Note_on_c, 0, 52, 70
1, 43096, Note_on_c, 0, 44, 0
1, 43096, Note_on_c, 0, 40, 0
1, 43096, Note_on_c, 0, 52, 0
1, 43099, Note_on_c, 0, 49, 58
1, 43099, Note_on_c, 0, 37, 48
1, 43099, Note_on_c, 0, 40, 48
1, 43102, Control_c, 0, 64, 0
1, 43169, Note_on_c, 0, 52, 0
1, 43169, Note_on_c, 0, 61, 0
1, 43169, Note_on_c, 0, 64, 0
1, 43172, Note_on_c, 0, 64, 89
1, 43172, Note_on_c, 0, 61, 89
1, 43172, Note_on_c, 0, 52, 74
1, 43175, Note_on_c, 0, 40, 0
1, 43175, Note_on_c, 0, 37, 0
1, 43175, Note_on_c, 0, 49, 0
1, 43178, Note_on_c, 0, 49, 61
1, 43178, Note_on_c, 0, 37, 51
1, 43178, Note_on_c, 0, 40, 51
1, 43181, Control_c, 0, 64, 127
1, 43405, Note_on_c, 0, 52, 0
1, 43405, Note_on_c, 0, 61, 0
1, 43405, Note_on_c, 0, 64, 0
1, 43408, Note_on_c, 0, 63, 84
1, 43408, Note_on_c, 0, 59, 84
1, 43408, Note_on_c, 0, 51, 71
1, 43411, Note_on_c, 0, 40, 0
1, 43411, Note_on_c, 0, 37, 0
1, 43411, Note_on_c, 0, 49, 0
1, 43414, Note_on_c, 0, 47, 59
1, 43414, Note_on_c, 0, 35, 49
1, 43414, Note_on_c, 0, 39, 49
1, 43417, Control_c, 0, 64, 0
1, 43465, Control_c, 0, 64, 127
1, 43484, Note_on_c, 0, 51, 0
1, 43484, Note_on_c, 0, 59, 0
1, 43484, Note_on_c, 0, 63, 0
1, 43487, Note_on_c, 0, 63, 91
1, 43487, Note_on_c, 0, 59, 91
1, 43487, Note_on_c, 0, 51, 77
1, 43490, Note_on_c, 0, 39, 0
1, 43490, Note_on_c, 0, 35, 0
1, 43490, Note_on_c, 0, 47, 0
1, 43493, Note_on_c, 0, 47, 63
1, 43493, Note_on_c, 0, 35, 53
1, 43493, Note_on_c, 0, 39, 53
1, 43730, Note_on_c, 0, 51, 0
1, 43730, Note_on_c, 0, 59, 0
1, 43730, Note_on_c, 0, 63, 0
1, 43733, Note_on_c, 0, 61, 86
1, 43733, Note_on_c, 0, 57, 86
1, 43733, Note_on_c, 0, 49, 72
1, 43736, Note_on_c, 0, 39, 0
1, 43736, Note_on_c, 0, 35, 0
1, 43736, Note_on_c, 0, 47, 0
1, 43739, Note_on_c, 0, 45, 60
1, 43739, Note_on_c, 0, 33, 50
1, 43739, Note_on_c, 0, 40, 50
1, 43742, Control_c, 0, 64, 0
1, 43812, Control_c, 0, 64, 127
1, 43816, Note_on_c, 0, 49, 0
1, 43816, Note_on_c, 0, 57, 0
1, 43816, Note_on_c, 0, 61, 0
1, 43819, Note_on_c, 0, 61, 91
1, 43819, Note_on_c, 0, 49, 78
1, 43819, Note_on_c, 0, 57, 78
1, 43822, Note_on_c, 0, 40, 0
1, 43822, Note_on_c, 0, 33, 0
1, 43822, Note_on_c, 0, 45, 0
1, 43825, Note_on_c, 0, 45, 81
1, 43825, Note_on_c, 0, 33, 68
1, 43825, Note_on_c, 0, 40, 68
1, 44167, Note_on_c, 0, 40, 0
1, 44167, Note_on_c, 0, 33, 0
1, 44167, Note_on_c, 0, 45, 0
1, 44170, Note_on_c, 0, 43, 80
1, 44170, Note_on_c, 0, 31, 68
1, 44527, Note_on_c, 0, 57, 0
1, 44527, Note_on_c, 0, 49, 0
1, 44527, Note_on_c, 0, 61, 0
1, 44530, Note_on_c, 0, 62, 86
1, 44530, Note_on_c, 0, 50, 72
1, 44530, Note_on_c, 0, 53, 72
1, 44533, Note_on_c, 0, 57, 72
1, 44533, Note_on_c, 0, 31, 0
1, 44533, Note_on_c, 0, 43, 0
1, 44536, Note_on_c, 0, 41, 84
1, 44536, Note_on_c, 0, 29, 71
1, 44536, Control_c, 0, 64, 0
1, 44680, Control_c, 0, 64, 127
1, 44905, Note_on_c, 0, 29, 0
1, 44905, Note_on_c, 0, 41, 0
1, 44905, Note_on_c, 0, 40, 84
1, 44908, Note_on_c, 0, 28, 71
1, 45284, Note_on_c, 0, 57, 0
1, 45284, Note_on_c, 0, 62, 0
1, 45284, Note_on_c, 0, 50, 0
1, 45287, Note_on_c, 0, 53, 0
1, 45287, Note_on_c, 0, 66, 95
1, 45287, Note_on_c, 0, 54, 80
1, 45290, Note_on_c, 0, 57, 80
1, 45290, Note_on_c, 0, 62, 80
1, 45290, Note_on_c, 0, 28, 0
1, 45293, Note_on_c, 0, 40, 0
1, 45293, Note_on_c, 0, 38, 83
1, 45293, Note_on_c, 0, 26, 70
1, 45297, Control_c, 0, 64, 0
1, 45396, Control_c, 0, 64, 127
1, 45677, Note_on_c, 0, 26, 0
1, 45677, Note_on_c, 0, 38, 0
1, 45677, Note_on_c, 0, 25, 80
1, 46070, Note_on_c, 0, 62, 0
1, 46070, Note_on_c, 0, 66, 0
1, 46070, Note_on_c, 0, 54, 0
1, 46073, Note_on_c, 0, 57, 0
1, 46073, Note_on_c, 0, 68, 98
1, 46073, Note_on_c, 0, 54, 63
1, 46076, Note_on_c, 0, 56, 70
1, 46076, Note_on_c, 0, 60, 70
1, 46076, Note_on_c, 0, 63, 78
1, 46079, Note_on_c, 0, 25, 0
1, 46079, Note_on_c, 0, 36, 85
1, 46079, Note_on_c, 0, 24, 72
1, 46087, Control_c, 0, 64, 0
1, 46157, Control_c, 0, 64, 127
1, 46368, Note_on_c, 0, 24, 0
1, 46368, Note_on_c, 0, 36, 0
1, 46368, Note_on_c, 0, 45, 81
1, 46371, Note_on_c, 0, 33, 69
1, 46452, Control_c, 0, 64, 0
1, 46581, Control_c, 0, 64, 127
1, 47475, Control_c, 0, 64, 0
1, 47596, Note_on_c, 0, 33, 0
1, 47596, Note_on_c, 0, 45, 0
1, 47596, Note_on_c, 0, 44, 79
1, 47599, Note_on_c, 0, 32, 67
1, 48573, Note_on_c, 0, 32, 0
1, 48573, Note_on_c, 0, 44, 0
1, 49061, Control_c, 0, 64, 127
1, 49095, Note_on_c, 0, 61, 65
1, 49164, Note_on_c, 0, 61, 0
1, 49164, Note_on_c, 0, 54, 0
1, 49164, Note_on_c, 0, 56, 0
1, 49167, Note_on_c, 0, 68, 0
1, 49167, Note_on_c, 0, 63, 0
1, 49167, Note_on_c, 0, 60, 0
1, 49170, Note_on_c, 0, 61, 72
1, 49170, Note_on_c, 0, 56, 61
1, 49170, Note_on_c, 0, 52, 61
1, 49173, Note_on_c, 0, 49, 63
1, 49173, Note_on_c, 0, 37, 53
1, 49173, Note_on_c, 0, 44, 53
1, 49879, Note_on_c, 0, 52, 0
1, 49879, Note_on_c, 0, 56, 0
1, 49879, Note_on_c, 0, 61, 0
1, 49913, Note_on_c, 0, 66, 70
1, 49922, Control_c, 0, 64, 0
1, 49981, Note_on_c, 0, 66, 0
1, 49981, Note_on_c, 0, 66, 71
1, 49981, Note_on_c, 0, 57, 60
1, 49984, Note_on_c, 0, 54, 60
1, 49984, Note_on_c, 0, 44, 0
1, 49984, Note_on_c, 0, 37, 0
1, 49987, Note_on_c, 0, 49, 0
1, 49987, Note_on_c, 0, 51, 62
1, 49987, Note_on_c, 0, 36, 52
1, 49990, Note_on_c, 0, 45, 52
1, 50024, Control_c, 0, 64, 127
1, 50696, Note_on_c, 0, 54, 0
1, 50696, Note_on_c, 0, 57, 0
1, 50696, Note_on_c, 0, 66, 0
1, 50730, Note_on_c, 0, 64, 69
1, 50740, Control_c, 0, 64, 0
1, 50798, Note_on_c, 0, 64, 0
1, 50798, Note_on_c, 0, 64, 70
1, 50798, Note_on_c, 0, 56, 59
1, 50801, Note_on_c, 0, 52, 59
1, 50801, Note_on_c, 0, 45, 0
1, 50801, Note_on_c, 0, 36, 0
1, 50804, Note_on_c, 0, 51, 0
1, 50804, Note_on_c, 0, 49, 59
1, 50804, Note_on_c, 0, 37, 50
1, 50807, Note_on_c, 0, 44, 50
1, 50859, Control_c, 0, 64, 127
1, 51122, Note_on_c, 0, 52, 0
1, 51122, Note_on_c, 0, 56, 0
1, 51122, Note_on_c, 0, 64, 0
1, 51158, Note_on_c, 0, 63, 67
1, 51176, Control_c, 0, 64, 0
1, 51230, Note_on_c, 0, 63, 0
1, 51230, Note_on_c, 0, 63, 70
1, 51230, Note_on_c, 0, 54, 59
1, 51233, Note_on_c, 0, 51, 59
1, 51233, Note_on_c, 0, 44, 0
1, 51233, Note_on_c, 0, 37, 0
1, 51236, Note_on_c, 0, 49, 0
1, 51236, Note_on_c, 0, 45, 52
1, 51236, Note_on_c, 0, 30, 44
1, 51239, Note_on_c, 0, 42, 44
1, 51286, Control_c, 0, 64, 127
1, 51554, Note_on_c, 0, 51, 0
1, 51554, Note_on_c, 0, 54, 0
1, 51554, Note_on_c, 0, 63, 0
1, 51590, Note_on_c, 0, 61, 68
1, 51608, Control_c, 0, 64, 0
1, 51662, Note_on_c, 0, 61, 0
1, 51662, Note_on_c, 0, 61, 71
1, 51662, Note_on_c, 0, 52, 60
1, 51665, Note_on_c, 0, 49, 60
1, 51665, Note_on_c, 0, 42, 0
1, 51665, Note_on_c, 0, 30, 0
1, 51668, Note_on_c, 0, 45, 0
1, 51668, Note_on_c, 0, 44, 60
1, 51668, Note_on_c, 0, 32, 51
1, 51671, Note_on_c, 0, 40, 51
1, 51731, Control_c, 0, 64, 127
1, 51973, Note_on_c, 0, 49, 0
1, 51973, Note_on_c, 0, 52, 0
1, 51973, Note_on_c, 0, 61, 0
1, 52007, Note_on_c, 0, 60, 68
1, 52040, Control_c, 0, 64, 0
1, 52076, Note_on_c, 0, 60, 0
1, 52076, Note_on_c, 0, 60, 70
1, 52076, Note_on_c, 0, 51, 59
1, 52079, Note_on_c, 0, 48, 59
1, 52079, Note_on_c, 0, 40, 0
1, 52079, Note_on_c, 0, 32, 0
1, 52082, Note_on_c, 0, 44, 0
1, 52082, Note_on_c, 0, 44, 57
1, 52082, Note_on_c, 0, 42, 48
1, 52085, Note_on_c, 0, 39, 48
1, 52085, Note_on_c, 0, 32, 48
1, 52150, Control_c, 0, 64, 127
1, 52410, Note_on_c, 0, 48, 0
1, 52410, Note_on_c, 0, 51, 0
1, 52410, Note_on_c, 0, 60, 0
1, 52447, Note_on_c, 0, 61, 70
1, 52466, Control_c, 0, 64, 0
1, 52521, Note_on_c, 0, 61, 0
1, 52521, Note_on_c, 0, 61, 71
1, 52521, Note_on_c, 0, 52, 60
1, 52524, Note_on_c, 0, 49, 60
1, 52524, Note_on_c, 0, 32, 0
1, 52524, Note_on_c, 0, 44, 0
1, 52527, Note_on_c, 0, 42, 0
1, 52527, Note_on_c, 0, 39, 0
1, 52527, Note_on_c, 0, 37, 52
1, 52530, Note_on_c, 0, 40, 52
1, 52530, Note_on_c, 0, 44, 57
1, 52628, Control_c, 0, 64, 127
1, 52697, Control_c, 0, 64, 0
1, 52819, Note_on_c, 0, 49, 0
1, 52819, Note_on_c, 0, 52, 0
1, 52819, Note_on_c, 0, 61, 0
1, 52822, Note_on_c, 0, 44, 0
1, 52822, Note_on_c, 0, 40, 0
1, 52822, Note_on_c, 0, 37, 0
1, 52967, Note_on_c, 0, 49, 70
1, 53116, Note_on_c, 0, 49, 0
1, 53116, Note_on_c, 0, 45, 66
1, 53116, Note_on_c, 0, 51, 66
1, 53119, Note_on_c, 0, 30, 52
1, 53119, Note_on_c, 0, 37, 52
1, 53119, Note_on_c, 0, 42, 57
1, 53123, Control_c, 0, 64, 127
1, 53196, Note_on_c, 0, 51, 0
1, 53196, Note_on_c, 0, 49, 61
1, 53274, Note_on_c, 0, 49, 0
1, 53274, Note_on_c, 0, 51, 66
1, 53274, Note_on_c, 0, 42, 0
1, 53277, Note_on_c, 0, 37, 0
1, 53277, Note_on_c, 0, 30, 0
1, 53351, Note_on_c, 0, 51, 0
1, 53351, Note_on_c, 0, 49, 61
1, 53427, Note_on_c, 0, 49, 0
1, 53427, Note_on_c, 0, 51, 66
1, 53501, Note_on_c, 0, 51, 0
1, 53501, Note_on_c, 0, 49, 60
1, 53575, Note_on_c, 0, 49, 0
1, 53575, Note_on_c, 0, 51, 66
1, 53648, Note_on_c, 0, 51, 0
1, 53648, Note_on_c, 0, 49, 61
1, 53721, Note_on_c, 0, 49, 0
1, 53721, Note_on_c, 0, 51, 66
1, 53795, Note_on_c, 0, 51, 0
1, 53795, Note_on_c, 0, 49, 61
1, 53873, Note_on_c, 0, 49, 0
1, 53873, Note_on_c, 0, 48, 66
1, 53958, Note_on_c, 0, 48, 0
1, 53958, Note_on_c, 0, 49, 61
1, 54047, Note_on_c, 0, 49, 0
1, 54047, Note_on_c, 0, 45, 0
1, 54047, Note_on_c, 0, 52, 71
1, 54073, Control_c, 0, 64, 0
1, 54121, Control_c, 0, 64, 127
1, 54152, Note_on_c, 0, 52, 0
1, 54152, Note_on_c, 0, 51, 65
1, 54262, Note_on_c, 0, 51, 0
1, 54262, Note_on_c, 0, 49, 65
1, 54378, Note_on_c, 0, 49, 0
1, 54378, Note_on_c, 0, 44, 70
1, 54378, Note_on_c, 0, 49, 70
1, 54381, Note_on_c, 0, 37, 52
1, 54381, Note_on_c, 0, 40, 57
1, 54395, Control_c, 0, 64, 0
1, 54446, Control_c, 0, 64, 127
1, 54474, Note_on_c, 0, 49, 0
1, 54474, Note_on_c, 0, 44, 0
1, 54537, Control_c, 0, 64, 0
1, 54569, Note_on_c, 0, 40, 0
1, 54569, Note_on_c, 0, 37, 0
1, 55310, Control_c, 0, 64, 127
1, 55345, Note_on_c, 0, 68, 65
1, 55414, Note_on_c, 0, 68, 0
1, 55414, Note_on_c, 0, 68, 72
1, 55414, Note_on_c, 0, 63, 61
1, 55417, Note_on_c, 0, 59, 61
1, 55417, Note_on_c, 0, 56, 63
1, 55417, Note_on_c, 0, 44, 53
1, 55420, Note_on_c, 0, 51, 53
1, 56128, Note_on_c, 0, 59, 0
1, 56128, Note_on_c, 0, 63, 0
1, 56128, Note_on_c, 0, 68, 0
1, 56162, Note_on_c, 0, 73, 70
1, 56171, Control_c, 0, 64, 0
1, 56231, Note_on_c, 0, 73, 0
1, 56231, Note_on_c, 0, 73, 71
1, 56231, Note_on_c, 0, 64, 60
1, 56234, Note_on_c, 0, 61, 60
1, 56234, Note_on_c, 0, 51, 0
1, 56234, Note_on_c, 0, 44, 0
1, 56237, Note_on_c, 0, 56, 0
1, 56237, Note_on_c, 0, 58, 62
1, 56237, Note_on_c, 0, 43, 52
1, 56240, Note_on_c, 0, 52, 52
1, 56276, Control_c, 0, 64, 127
1, 56987, Note_on_c, 0, 61, 0
1, 56987, Note_on_c, 0, 64, 0
1, 56987, Note_on_c, 0, 73, 0
1, 57023, Note_on_c, 0, 71, 69
1, 57033, Control_c, 0, 64, 0
1, 57095, Note_on_c, 0, 71, 0
1, 57095, Note_on_c, 0, 71, 70
1, 57095, Note_on_c, 0, 63, 59
1, 57098, Note_on_c, 0, 59, 59
1, 57098, Note_on_c, 0, 52, 0
1, 57098, Note_on_c, 0, 43, 0
1, 57101, Note_on_c, 0, 58, 0
1, 57101, Note_on_c, 0, 56, 59
1, 57101, Note_on_c, 0, 44, 50
1, 57104, Note_on_c, 0, 51, 50
1, 57154, Control_c, 0, 64, 127
1, 57409, Note_on_c, 0, 59, 0
1, 57409, Note_on_c, 0, 63, 0
1, 57409, Note_on_c, 0, 71, 0
1, 57443, Note_on_c, 0, 69, 67
1, 57459, Control_c, 0, 64, 0
1, 57509, Note_on_c, 0, 69, 0
1, 57509, Note_on_c, 0, 69, 70
1, 57509, Note_on_c, 0, 61, 59
1, 57512, Note_on_c, 0, 57, 59
1, 57512, Note_on_c, 0, 51, 0
1, 57512, Note_on_c, 0, 44, 0
1, 57515, Note_on_c, 0, 56, 0
1, 57515, Note_on_c, 0, 52, 52
1, 57515, Note_on_c, 0, 37, 44
1, 57518, Note_on_c, 0, 49, 44
1, 57560, Control_c, 0, 64, 127
1, 57807, Note_on_c, 0, 57, 0
1, 57807, Note_on_c, 0, 61, 0
1, 57807, Note_on_c, 0, 69, 0
1, 57840, Note_on_c, 0, 56, 68
1, 57840, Note_on_c, 0, 68, 68
1, 57857, Control_c, 0, 64, 0
1, 57906, Note_on_c, 0, 68, 0
1, 57906, Note_on_c, 0, 56, 0
1, 57906, Note_on_c, 0, 68, 71
1, 57909, Note_on_c, 0, 59, 60
1, 57909, Note_on_c, 0, 56, 60
1, 57909, Note_on_c, 0, 49, 0
1, 57912, Note_on_c, 0, 37, 0
1, 57912, Note_on_c, 0, 52, 0
1, 57912, Note_on_c, 0, 51, 60
1, 57915, Note_on_c, 0, 39, 51
1, 57915, Note_on_c, 0, 47, 51
1, 57975, Control_c, 0, 64, 127
1, 58217, Note_on_c, 0, 56, 0
1, 58217, Note_on_c, 0, 59, 0
1, 58217, Note_on_c, 0, 68, 0
1, 58252, Note_on_c, 0, 67, 68
1, 58284, Control_c, 0, 64, 0
1, 58321, Note_on_c, 0, 67, 0
1, 58321, Note_on_c, 0, 67, 70
1, 58321, Note_on_c, 0, 58, 59
1, 58324, Note_on_c, 0, 55, 59
1, 58324, Note_on_c, 0, 47, 0
1, 58324, Note_on_c, 0, 39, 0
1, 58327, Note_on_c, 0, 51, 0
1, 58327, Note_on_c, 0, 51, 57
1, 58327, Note_on_c, 0, 49, 48
1, 58330, Note_on_c, 0, 46, 48
1, 58330, Note_on_c, 0, 39, 48
1, 58396, Control_c, 0, 64, 127
1, 58659, Note_on_c, 0, 55, 0
1, 58659, Note_on_c, 0, 58, 0
1, 58659, Note_on_c, 0, 67, 0
1, 58697, Note_on_c, 0, 68, 70
1, 58716, Control_c, 0, 64, 0
1, 58772, Note_on_c, 0, 68, 0
1, 58772, Note_on_c, 0, 68, 71
1, 58772, Note_on_c, 0, 59, 60
1, 58775, Note_on_c, 0, 56, 60
1, 58775, Note_on_c, 0, 39, 0
1, 58775, Note_on_c, 0, 51, 0
1, 58778, Note_on_c, 0, 49, 0
1, 58778, Note_on_c, 0, 46, 0
1, 58778, Note_on_c, 0, 44, 52
1, 58781, Note_on_c, 0, 47, 52
1, 58781, Note_on_c, 0, 51, 57
1, 58879, Control_c, 0, 64, 127
1, 58948, Control_c, 0, 64, 0
1, 59070, Note_on_c, 0, 56, 0
1, 59070, Note_on_c, 0, 59, 0
1, 59070, Note_on_c, 0, 68, 0
1, 59073, Note_on_c, 0, 51, 0
1, 59073, Note_on_c, 0, 47, 0
1, 59073, Note_on_c, 0, 44, 0
1, 59218, Note_on_c, 0, 56, 63
1, 59367, Note_on_c, 0, 56, 0
1, 59367, Note_on_c, 0, 52, 59
1, 59367, Note_on_c, 0, 58, 59
1, 59370, Note_on_c, 0, 37, 46
1, 59370, Note_on_c, 0, 46, 50
1, 59374, Control_c, 0, 64, 127
1, 59447, Note_on_c, 0, 58, 0
1, 59447, Note_on_c, 0, 56, 54
1, 59447, Note_on_c, 0, 46, 0
1, 59450, Note_on_c, 0, 44, 45
1, 59525, Note_on_c, 0, 56, 0
1, 59525, Note_on_c, 0, 58, 59
1, 59525, Note_on_c, 0, 44, 0
1, 59528, Note_on_c, 0, 46, 50
1, 59602, Note_on_c, 0, 58, 0
1, 59602, Note_on_c, 0, 56, 54
1, 59602, Note_on_c, 0, 46, 0
1, 59605, Note_on_c, 0, 44, 45
1, 59678, Note_on_c, 0, 56, 0
1, 59678, Note_on_c, 0, 58, 59
1, 59678, Note_on_c, 0, 44, 0
1, 59681, Note_on_c, 0, 46, 50
1, 59752, Note_on_c, 0, 58, 0
1, 59752, Note_on_c, 0, 56, 54
1, 59752, Note_on_c, 0, 46, 0
1, 59755, Note_on_c, 0, 44, 45
1, 59826, Note_on_c, 0, 56, 0
1, 59826, Note_on_c, 0, 58, 59
1, 59826, Note_on_c, 0, 44, 0
1, 59829, Note_on_c, 0, 46, 50
1, 59899, Note_on_c, 0, 58, 0
1, 59899, Note_on_c, 0, 56, 54
1, 59899, Note_on_c, 0, 46, 0
1, 59902, Note_on_c, 0, 44, 45
1, 59972, Note_on_c, 0, 56, 0
1, 59972, Note_on_c, 0, 58, 59
1, 59972, Note_on_c, 0, 44, 0
1, 59975, Note_on_c, 0, 46, 50
1, 60045, Note_on_c, 0, 58, 0
1, 60045, Note_on_c, 0, 56, 54
1, 60045, Note_on_c, 0, 46, 0
1, 60048, Note_on_c, 0, 44, 45
1, 60124, Note_on_c, 0, 56, 0
1, 60124, Note_on_c, 0, 55, 59
1, 60124, Note_on_c, 0, 44, 0
1, 60127, Note_on_c, 0, 43, 50
1, 60209, Note_on_c, 0, 55, 0
1, 60209, Note_on_c, 0, 56, 54
1, 60209, Note_on_c, 0, 43, 0
1, 60212, Note_on_c, 0, 44, 45
1, 60298, Note_on_c, 0, 56, 0
1, 60298, Note_on_c, 0, 52, 0
1, 60298, Note_on_c, 0, 59, 63
1, 60301, Note_on_c, 0, 44, 0
1, 60301, Note_on_c, 0, 37, 0
1, 60301, Note_on_c, 0, 47, 54
1, 60324, Control_c, 0, 64, 0
1, 60372, Control_c, 0, 64, 127
1, 60403, Note_on_c, 0, 59, 0
1, 60403, Note_on_c, 0, 58, 58
1, 60403, Note_on_c, 0, 47, 0
1, 60406, Note_on_c, 0, 46, 49
1, 60513, Note_on_c, 0, 58, 0
1, 60513, Note_on_c, 0, 56, 58
1, 60513, Note_on_c, 0, 46, 0
1, 60516, Note_on_c, 0, 44, 49
1, 60629, Note_on_c, 0, 56, 0
1, 60629, Note_on_c, 0, 47, 56
1, 60629, Note_on_c, 0, 51, 56
1, 60632, Note_on_c, 0, 56, 56
1, 60632, Note_on_c, 0, 44, 0
1, 60632, Note_on_c, 0, 32, 41
1, 60635, Note_on_c, 0, 39, 41
1, 60635, Note_on_c, 0, 44, 45
1, 60645, Control_c, 0, 64, 0
1, 60692, Control_c, 0, 64, 127
1, 60717, Note_on_c, 0, 56, 0
1, 60717, Note_on_c, 0, 51, 0
1, 60717, Note_on_c, 0, 47, 0
1, 60796, Control_c, 0, 64, 0
1, 60804, Note_on_c, 0, 44, 0
1, 60804, Note_on_c, 0, 39, 0
1, 60804, Note_on_c, 0, 32, 0
1, 61764, Note_on_c, 0, 68, 52
1, 61864, Control_c, 0, 64, 127
1, 61896, Note_on_c, 0, 40, 44
1, 61940, Note_on_c, 0, 68, 0
1, 61940, Note_on_c, 0, 47, 46
1, 61985, Note_on_c, 0, 56, 48
1, 62029, Note_on_c, 0, 59, 48
1, 62073, Note_on_c, 0, 64, 50
1, 62117, Note_on_c, 0, 68, 55
1, 63035, Note_on_c, 0, 68, 0
1, 63035, Note_on_c, 0, 69, 52
1, 63189, Note_on_c, 0, 69, 0
1, 63189, Note_on_c, 0, 71, 52
1, 63329, Note_on_c, 0, 71, 0
1, 63329, Note_on_c, 0, 71, 52
1, 63409, Note_on_c, 0, 71, 0
1, 63409, Note_on_c, 0, 64, 56
1, 64401, Note_on_c, 0, 64, 0
1, 64401, Note_on_c, 0, 63, 56
1, 64419, Control_c, 0, 64, 0
1, 64558, Note_on_c, 0, 63, 0
1, 64558, Note_on_c, 0, 64, 0
1, 64558, Note_on_c, 0, 59, 0
1, 64561, Note_on_c, 0, 63, 56
1, 64561, Note_on_c, 0, 56, 0
1, 64561, Note_on_c, 0, 47, 0
1, 64564, Note_on_c, 0, 40, 0
1, 64564, Note_on_c, 0, 51, 46
1, 64564, Note_on_c, 0, 35, 39
1, 64567, Control_c, 0, 64, 127
1, 64684, Note_on_c, 0, 57, 47
1, 64684, Note_on_c, 0, 66, 54
1, 64763, Note_on_c, 0, 63, 0
1, 65240, Note_on_c, 0, 64, 44
1, 65397, Note_on_c, 0, 64, 0
1, 65397, Note_on_c, 0, 66, 43
1, 65554, Note_on_c, 0, 66, 0
1, 65554, Note_on_c, 0, 68, 46
1, 65674, Note_on_c, 0, 68, 0
1, 65674, Note_on_c, 0, 66, 44
1, 65812, Note_on_c, 0, 66, 0
1, 65812, Note_on_c, 0, 64, 44
1, 65978, Note_on_c, 0, 64, 0
1, 65978, Note_on_c, 0, 66, 0
1, 65978, Note_on_c, 0, 57, 0
1, 65981, Note_on_c, 0, 56, 39
1, 65981, Note_on_c, 0, 64, 44
1, 65981, Note_on_c, 0, 35, 0
1, 65984, Note_on_c, 0, 51, 0
1, 65984, Note_on_c, 0, 47, 39
1, 65984, Note_on_c, 0, 40, 32
1, 66030, Control_c, 0, 64, 0
1, 66091, Control_c, 0, 64, 127
1, 67127, Control_c, 0, 64, 0
1, 67193, Note_on_c, 0, 64, 0
1, 67193, Note_on_c, 0, 56, 0
1, 67193, Note_on_c, 0, 40, 0
1, 67196, Note_on_c, 0, 47, 0
1, 67233, Note_on_c, 0, 68, 52
1, 67233, Note_on_c, 0, 59, 33
1, 67233, Note_on_c, 0, 64, 33
1, 67236, Note_on_c, 0, 52, 52
1, 67239, Control_c, 0, 64, 127
1, 67353, Note_on_c, 0, 64, 0
1, 67353, Note_on_c, 0, 59, 0
1, 67353, Note_on_c, 0, 68, 0
1, 67356, Note_on_c, 0, 68, 55
1, 67356, Note_on_c, 0, 59, 35
1, 67356, Note_on_c, 0, 64, 35
1, 67359, Note_on_c, 0, 52, 0
1, 67359, Note_on_c, 0, 40, 37
1, 67359, Note_on_c, 0, 47, 40
1, 67362, Note_on_c, 0, 52, 44
1, 68243, Note_on_c, 0, 64, 0
1, 68243, Note_on_c, 0, 59, 0
1, 68243, Note_on_c, 0, 68, 0
1, 68246, Note_on_c, 0, 69, 52
1, 68246, Note_on_c, 0, 66, 44
1, 68246, Note_on_c, 0, 52, 0
1, 68249, Note_on_c, 0, 54, 35
1, 68249, Note_on_c, 0, 57, 44
1, 68383, Note_on_c, 0, 66, 0
1, 68383, Note_on_c, 0, 69, 0
1, 68383, Note_on_c, 0, 71, 55
1, 68386, Note_on_c, 0, 59, 46
1, 68386, Note_on_c, 0, 68, 46
1, 68386, Note_on_c, 0, 54, 0
1, 68389, Note_on_c, 0, 56, 38
1, 68393, Note_on_c, 0, 57, 0
1, 68552, Note_on_c, 0, 71, 0
1, 68552, Note_on_c, 0, 59, 0
1, 68552, Note_on_c, 0, 68, 0
1, 68555, Note_on_c, 0, 73, 59
1, 68555, Note_on_c, 0, 61, 49
1, 68555, Note_on_c, 0, 69, 49
1, 68558, Note_on_c, 0, 56, 0
1, 68558, Note_on_c, 0, 47, 0
1, 68558, Note_on_c, 0, 40, 0
1, 68561, Note_on_c, 0, 45, 37
1, 68561, Note_on_c, 0, 52, 40
1, 68561, Note_on_c, 0, 57, 41
1, 68584, Control_c, 0, 64, 0
1, 68659, Control_c, 0, 64, 127
1, 68966, Note_on_c, 0, 69, 0
1, 68966, Note_on_c, 0, 61, 0
1, 68966, Note_on_c, 0, 73, 0
1, 68969, Note_on_c, 0, 73, 54
1, 68969, Note_on_c, 0, 61, 45
1, 68969, Note_on_c, 0, 69, 45
1, 68972, Note_on_c, 0, 57, 0
1, 68972, Note_on_c, 0, 57, 40
1, 69152, Note_on_c, 0, 69, 0
1, 69152, Note_on_c, 0, 61, 0
1, 69152, Note_on_c, 0, 73, 0
1, 69155, Note_on_c, 0, 73, 57
1, 69155, Note_on_c, 0, 61, 48
1, 69155, Note_on_c, 0, 69, 48
1, 69158, Note_on_c, 0, 57, 0
1, 69158, Note_on_c, 0, 57, 44
1, 69290, Note_on_c, 0, 69, 0
1, 69290, Note_on_c, 0, 61, 0
1, 69290, Note_on_c, 0, 73, 0
1, 69293, Note_on_c, 0, 57, 0
1, 69323, Note_on_c, 0, 71, 55
1, 69323, Note_on_c, 0, 59, 46
1, 69323, Note_on_c, 0, 68, 46
1, 69326, Note_on_c, 0, 56, 43
1, 69461, Note_on_c, 0, 68, 0
1, 69461, Note_on_c, 0, 59, 0
1, 69461, Note_on_c, 0, 71, 0
1, 69464, Note_on_c, 0, 56, 0
1, 69497, Note_on_c, 0, 70, 52
1, 69497, Note_on_c, 0, 58, 44
1, 69497, Note_on_c, 0, 67, 44
1, 69500, Note_on_c, 0, 55, 41
1, 69657, Note_on_c, 0, 67, 0
1, 69657, Note_on_c, 0, 58, 0
1, 69657, Note_on_c, 0, 70, 0
1, 69660, Note_on_c, 0, 55, 0
1, 69698, Note_on_c, 0, 71, 57
1, 69698, Note_on_c, 0, 59, 48
1, 69698, Note_on_c, 0, 68, 48
1, 69701, Note_on_c, 0, 52, 0
1, 69701, Note_on_c, 0, 45, 0
1, 69701, Note_on_c, 0, 56, 44
1, 69704, Note_on_c, 0, 44, 36
1, 69704, Note_on_c, 0, 52, 36
1, 69704, Control_c, 0, 64, 0
1, 69762, Control_c, 0, 64, 127
1, 70251, Note_on_c, 0, 68, 0
1, 70251, Note_on_c, 0, 59, 0
1, 70251, Note_on_c, 0, 71, 0
1, 70254, Note_on_c, 0, 64, 52
1, 70254, Note_on_c, 0, 56, 44
1, 70254, Note_on_c, 0, 61, 44
1, 70257, Note_on_c, 0, 52, 0
1, 70257, Note_on_c, 0, 44, 0
1, 70257, Note_on_c, 0, 56, 0
1, 70260, Note_on_c, 0, 52, 38
1, 70260, Note_on_c, 0, 37, 32
1, 70260, Control_c, 0, 64, 0
1, 70319, Control_c, 0, 64, 127
1, 70481, Note_on_c, 0, 63, 44
1, 70558, Note_on_c, 0, 63, 0
1, 70558, Note_on_c, 0, 64, 45
1, 70634, Note_on_c, 0, 64, 0
1, 70634, Note_on_c, 0, 66, 44
1, 70709, Note_on_c, 0, 66, 0
1, 70709, Note_on_c, 0, 64, 46
1, 70784, Note_on_c, 0, 64, 0
1, 70784, Note_on_c, 0, 63, 48
1, 70860, Note_on_c, 0, 63, 0
1, 70860, Note_on_c, 0, 64, 0
1, 70860, Note_on_c, 0, 56, 0
1, 70863, Note_on_c, 0, 61, 0
1, 70863, Note_on_c, 0, 63, 52
1, 70863, Note_on_c, 0, 57, 44
1, 70866, Note_on_c, 0, 37, 0
1, 70866, Note_on_c, 0, 52, 0
1, 70866, Note_on_c, 0, 54, 40
1, 70869, Note_on_c, 0, 35, 33
1, 70877, Control_c, 0, 64, 0
1, 70967, Control_c, 0, 64, 127
1, 71278, Note_on_c, 0, 63, 0
1, 71278, Note_on_c, 0, 64, 49
1, 71325, Note_on_c, 0, 64, 0
1, 71325, Note_on_c, 0, 68, 55
1, 71418, Note_on_c, 0, 68, 0
1, 71418, Note_on_c, 0, 57, 0
1, 71418, Note_on_c, 0, 66, 52
1, 71421, Note_on_c, 0, 57, 44
1, 71421, Note_on_c, 0, 35, 0
1, 71421, Note_on_c, 0, 54, 0
1, 71424, Note_on_c, 0, 51, 37
1, 71424, Note_on_c, 0, 47, 31
1, 71434, Control_c, 0, 64, 0
1, 71481, Control_c, 0, 64, 127
1, 71895, Note_on_c, 0, 66, 0
1, 71895, Note_on_c, 0, 64, 52
1, 72086, Note_on_c, 0, 64, 0
1, 72086, Note_on_c, 0, 57, 0
1, 72086, Note_on_c, 0, 64, 52
1, 72089, Note_on_c, 0, 56, 44
1, 72089, Note_on_c, 0, 47, 0
1, 72089, Note_on_c, 0, 51, 0
1, 72092, Note_on_c, 0, 52, 42
1, 72092, Note_on_c, 0, 40, 36
1, 72092, Note_on_c, 0, 47, 36
1, 72100, Control_c, 0, 64, 0
1, 72473, Control_c, 0, 64, 127
1, 72721, Note_on_c, 0, 56, 0
1, 72721, Note_on_c, 0, 64, 0
1, 72721, Note_on_c, 0, 47, 0
1, 72724, Note_on_c, 0, 40, 0
1, 72724, Note_on_c, 0, 52, 0
1, 73284, Control_c, 0, 64, 0
1, 74511, Note_on_c, 0, 76, 52
1, 74567, Control_c, 0, 64, 127
1, 74688, Note_on_c, 0, 76, 0
1, 74688, Note_on_c, 0, 64, 48
1, 74733, Note_on_c, 0, 68, 48
1, 74777, Note_on_c, 0, 73, 50
1, 74821, Note_on_c, 0, 76, 55
1, 74821, Note_on_c, 0, 37, 48
1, 75135, Note_on_c, 0, 37, 0
1, 75135, Note_on_c, 0, 64, 43
1, 75135, Note_on_c, 0, 61, 36
1, 75138, Note_on_c, 0, 56, 36
1, 75138, Note_on_c, 0, 52, 36
1, 75738, Note_on_c, 0, 76, 0
1, 75738, Note_on_c, 0, 78, 52
1, 75892, Note_on_c, 0, 78, 0
1, 75892, Note_on_c, 0, 80, 52
1, 76033, Note_on_c, 0, 80, 0
1, 76033, Note_on_c, 0, 64, 0
1, 76033, Note_on_c, 0, 68, 0
1, 76036, Note_on_c, 0, 73, 0
1, 76036, Note_on_c, 0, 80, 52
1, 76036, Note_on_c, 0, 52, 0
1, 76039, Note_on_c, 0, 64, 0
1, 76039, Note_on_c, 0, 61, 0
1, 76039, Note_on_c, 0, 56, 0
1, 76042, Note_on_c, 0, 37, 48
1, 76079, Control_c, 0, 64, 0
1, 76113, Note_on_c, 0, 80, 0
1, 76113, Note_on_c, 0, 73, 56
1, 76164, Control_c, 0, 64, 127
1, 76351, Note_on_c, 0, 37, 0
1, 76351, Note_on_c, 0, 68, 43
1, 76351, Note_on_c, 0, 64, 36
1, 76354, Note_on_c, 0, 61, 36
1, 76354, Note_on_c, 0, 56, 36
1, 77105, Note_on_c, 0, 73, 0
1, 77105, Note_on_c, 0, 72, 56
1, 77123, Control_c, 0, 64, 0
1, 77262, Note_on_c, 0, 72, 0
1, 77262, Note_on_c, 0, 72, 56
1, 77262, Note_on_c, 0, 56, 0
1, 77265, Note_on_c, 0, 68, 0
1, 77265, Note_on_c, 0, 64, 0
1, 77265, Note_on_c, 0, 61, 0
1, 77293, Note_on_c, 0, 60, 47
1, 77293, Control_c, 0, 64, 127
1, 77325, Note_on_c, 0, 66, 47
1, 77356, Note_on_c, 0, 68, 47
1, 77388, Note_on_c, 0, 75, 54
1, 77388, Note_on_c, 0, 32, 48
1, 77388, Note_on_c, 0, 44, 48
1, 77483, Note_on_c, 0, 72, 0
1, 77642, Note_on_c, 0, 44, 0
1, 77642, Note_on_c, 0, 32, 0
1, 77642, Note_on_c, 0, 54, 36
1, 77645, Note_on_c, 0, 56, 36
1, 77645, Note_on_c, 0, 60, 36
1, 77645, Note_on_c, 0, 63, 43
1, 77956, Note_on_c, 0, 73, 46
1, 78068, Note_on_c, 0, 73, 0
1, 78068, Note_on_c, 0, 75, 46
1, 78180, Note_on_c, 0, 75, 0
1, 78180, Note_on_c, 0, 76, 46
1, 78292, Note_on_c, 0, 76, 0
1, 78292, Note_on_c, 0, 75, 46
1, 78349, Note_on_c, 0, 75, 0
1, 78363, Note_on_c, 0, 75, 46
1, 78408, Note_on_c, 0, 75, 0
1, 78408, Note_on_c, 0, 73, 48
1, 78529, Note_on_c, 0, 73, 0
1, 78529, Note_on_c, 0, 72, 44
1, 78654, Note_on_c, 0, 72, 0
1, 78654, Note_on_c, 0, 75, 0
1, 78654, Note_on_c, 0, 60, 0
1, 78657, Note_on_c, 0, 66, 0
1, 78657, Note_on_c, 0, 68, 0
1, 78657, Note_on_c, 0, 64, 39
1, 78660, Note_on_c, 0, 63, 0
1, 78660, Note_on_c, 0, 54, 0
1, 78660, Note_on_c, 0, 56, 0
1, 78663, Note_on_c, 0, 60, 0
1, 78676, Note_on_c, 0, 68, 39
1, 78699, Note_on_c, 0, 73, 44
1, 78699, Note_on_c, 0, 37, 48
1, 78699, Note_on_c, 0, 49, 48
1, 78712, Control_c, 0, 64, 0
1, 78778, Control_c, 0, 64, 127
1, 79001, Note_on_c, 0, 49, 0
1, 79001, Note_on_c, 0, 37, 0
1, 79001, Note_on_c, 0, 52, 36
1, 79004, Note_on_c, 0, 56, 36
1, 79004, Note_on_c, 0, 61, 36
1, 79004, Note_on_c, 0, 64, 43
1, 79643, Note_on_c, 0, 73, 0
1, 79643, Note_on_c, 0, 68, 0
1, 79643, Note_on_c, 0, 64, 0
1, 79646, Note_on_c, 0, 64, 0
1, 79646, Note_on_c, 0, 52, 0
1, 79646, Note_on_c, 0, 56, 0
1, 79649, Note_on_c, 0, 61, 0
1, 79803, Note_on_c, 0, 65, 82
1, 79803, Note_on_c, 0, 59, 69
1, 79803, Note_on_c, 0, 61, 69
1, 79806, Note_on_c, 0, 56, 61
1, 79806, Note_on_c, 0, 49, 51
1, 79813, Control_c, 0, 64, 0
1, 79964, Note_on_c, 0, 61, 0
1, 79964, Note_on_c, 0, 59, 0
1, 79964, Note_on_c, 0, 65, 0
1, 79967, Note_on_c, 0, 66, 90
1, 79967, Note_on_c, 0, 57, 76
1, 79967, Note_on_c, 0, 61, 76
1, 79970, Note_on_c, 0, 49, 0
1, 79970, Note_on_c, 0, 56, 0
1, 79970, Note_on_c, 0, 54, 67
1, 79973, Note_on_c, 0, 42, 56
1, 79973, Note_on_c, 0, 49, 56
1, 80022, Control_c, 0, 64, 127
1, 80825, Note_on_c, 0, 61, 0
1, 80825, Note_on_c, 0, 57, 0
1, 80825, Note_on_c, 0, 66, 0
1, 80828, Note_on_c, 0, 81, 80
1, 80828, Note_on_c, 0, 69, 68
1, 80828, Note_on_c, 0, 78, 68
1, 80831, Note_on_c, 0, 49, 0
1, 80831, Note_on_c, 0, 42, 0
1, 80831, Note_on_c, 0, 54, 0
1, 80834, Note_on_c, 0, 66, 66
1, 81133, Note_on_c, 0, 78, 0
1, 81133, Note_on_c, 0, 69, 0
1, 81133, Note_on_c, 0, 81, 0
1, 81136, Note_on_c, 0, 78, 85
1, 81136, Note_on_c, 0, 81, 85
1, 81136, Note_on_c, 0, 69, 72
1, 81139, Note_on_c, 0, 66, 0
1, 81139, Note_on_c, 0, 66, 70
1, 81346, Note_on_c, 0, 69, 0
1, 81346, Note_on_c, 0, 81, 0
1, 81346, Note_on_c, 0, 78, 0
1, 81349, Note_on_c, 0, 80, 79
1, 81349, Note_on_c, 0, 68, 67
1, 81349, Note_on_c, 0, 76, 67
1, 81352, Note_on_c, 0, 66, 0
1, 81352, Note_on_c, 0, 64, 67
1, 81417, Note_on_c, 0, 76, 0
1, 81417, Note_on_c, 0, 68, 0
1, 81417, Note_on_c, 0, 80, 0
1, 81420, Note_on_c, 0, 80, 85
1, 81420, Note_on_c, 0, 68, 72
1, 81420, Note_on_c, 0, 76, 72
1, 81423, Note_on_c, 0, 64, 0
1, 81423, Note_on_c, 0, 64, 70
1, 81455, Control_c, 0, 64, 0
1, 81652, Note_on_c, 0, 76, 0
1, 81652, Note_on_c, 0, 68, 0
1, 81652, Note_on_c, 0, 80, 0
1, 81655, Note_on_c, 0, 78, 81
1, 81655, Note_on_c, 0, 66, 68
1, 81655, Note_on_c, 0, 75, 68
1, 81658, Note_on_c, 0, 64, 0
1, 81658, Note_on_c, 0, 63, 67
1, 81739, Note_on_c, 0, 75, 0
1, 81739, Note_on_c, 0, 66, 0
1, 81739, Note_on_c, 0, 78, 0
1, 81742, Note_on_c, 0, 78, 81
1, 81742, Note_on_c, 0, 66, 68
1, 81742, Note_on_c, 0, 75, 68
1, 81745, Note_on_c, 0, 63, 0
1, 81745, Note_on_c, 0, 63, 67
1, 82121, Note_on_c, 0, 75, 0
1, 82121, Note_on_c, 0, 66, 0
1, 82121, Note_on_c, 0, 78, 0
1, 82124, Note_on_c, 0, 63, 0
1, 82568, Note_on_c, 0, 75, 53
1, 82568, Note_on_c, 0, 66, 45
1, 82568, Note_on_c, 0, 69, 45
1, 82571, Note_on_c, 0, 63, 45
1, 82571, Note_on_c, 0, 54, 38
1, 82571, Note_on_c, 0, 57, 38
1, 82686, Note_on_c, 0, 69, 0
1, 82686, Note_on_c, 0, 66, 0
1, 82686, Note_on_c, 0, 75, 0
1, 82689, Note_on_c, 0, 57, 0
1, 82689, Note_on_c, 0, 54, 0
1, 82689, Note_on_c, 0, 63, 0
1, 82692, Note_on_c, 0, 44, 58
1, 82725, Note_on_c, 0, 76, 58
1, 82725, Note_on_c, 0, 64, 49
1, 82725, Note_on_c, 0, 68, 49
1, 82728, Note_on_c, 0, 61, 52
1, 82773, Control_c, 0, 64, 127
1, 83053, Note_on_c, 0, 68, 0
1, 83053, Note_on_c, 0, 64, 0
1, 83053, Note_on_c, 0, 76, 0
1, 83056, Note_on_c, 0, 75, 48
1, 83125, Note_on_c, 0, 75, 0
1, 83125, Note_on_c, 0, 76, 50
1, 83198, Note_on_c, 0, 76, 0
1, 83198, Note_on_c, 0, 78, 51
1, 83270, Note_on_c, 0, 78, 0
1, 83270, Note_on_c, 0, 76, 50
1, 83343, Note_on_c, 0, 76, 0
1, 83343, Note_on_c, 0, 75, 54
1, 83343, Note_on_c, 0, 68, 45
1, 83346, Note_on_c, 0, 61, 0
1, 83346, Note_on_c, 0, 44, 0
1, 83346, Note_on_c, 0, 64, 50
1, 83349, Note_on_c, 0, 56, 42
1, 83364, Control_c, 0, 64, 0
1, 83647, Note_on_c, 0, 68, 0
1, 83647, Note_on_c, 0, 75, 0
1, 83647, Note_on_c, 0, 56, 0
1, 83650, Note_on_c, 0, 64, 0
1, 83800, Note_on_c, 0, 73, 48
1, 83914, Note_on_c, 0, 44, 43
1, 83952, Note_on_c, 0, 73, 0
1, 83952, Note_on_c, 0, 75, 53
1, 83952, Note_on_c, 0, 66, 45
1, 83955, Note_on_c, 0, 68, 45
1, 83955, Note_on_c, 0, 60, 51
1, 83979, Control_c, 0, 64, 127
1, 84236, Note_on_c, 0, 68, 0
1, 84236, Note_on_c, 0, 75, 0
1, 84236, Note_on_c, 0, 68, 50
1, 84239, Note_on_c, 0, 60, 0
1, 84239, Note_on_c, 0, 44, 0
1, 84521, Note_on_c, 0, 68, 0
1, 84521, Note_on_c, 0, 66, 0
1, 84521, Note_on_c, 0, 80, 54
1, 84524, Note_on_c, 0, 66, 45
1, 84524, Note_on_c, 0, 72, 45
1, 84524, Note_on_c, 0, 63, 44
1, 84527, Note_on_c, 0, 56, 37
1, 84527, Control_c, 0, 64, 0
1, 84805, Note_on_c, 0, 56, 0
1, 84805, Note_on_c, 0, 63, 0
1, 84947, Note_on_c, 0, 72, 0
1, 84947, Note_on_c, 0, 66, 0
1, 84947, Note_on_c, 0, 80, 0
1, 84950, Note_on_c, 0, 72, 44
1, 85089, Note_on_c, 0, 72, 0
1, 85089, Note_on_c, 0, 73, 51
1, 85089, Note_on_c, 0, 64, 43
1, 85092, Note_on_c, 0, 68, 43
1, 85092, Note_on_c, 0, 61, 51
1, 85092, Note_on_c, 0, 49, 43
1, 85095, Note_on_c, 0, 56, 43
1, 85158, Control_c, 0, 64, 127
1, 85414, Note_on_c, 0, 68, 0
1, 85414, Note_on_c, 0, 64, 0
1, 85414, Note_on_c, 0, 73, 0
1, 85417, Note_on_c, 0, 72, 51
1, 85508, Note_on_c, 0, 72, 0
1, 85508, Note_on_c, 0, 73, 51
1, 85601, Note_on_c, 0, 73, 0
1, 85601, Note_on_c, 0, 75, 51
1, 85695, Note_on_c, 0, 75, 0
1, 85695, Note_on_c, 0, 73, 55
1, 85695, Note_on_c, 0, 63, 46
1, 85698, Note_on_c, 0, 68, 46
1, 85698, Note_on_c, 0, 56, 0
1, 85698, Note_on_c, 0, 49, 0
1, 85701, Note_on_c, 0, 61, 0
1, 85701, Note_on_c, 0, 54, 50
1, 85701, Note_on_c, 0, 44, 42
1, 85709, Control_c, 0, 64, 0
1, 85768, Control_c, 0, 64, 127
1, 86152, Note_on_c, 0, 73, 0
1, 86152, Note_on_c, 0, 72, 51
1, 86346, Note_on_c, 0, 72, 0
1, 86346, Note_on_c, 0, 68, 0
1, 86346, Note_on_c, 0, 63, 0
1, 86349, Note_on_c, 0, 73, 55
1, 86349, Note_on_c, 0, 61, 46
1, 86349, Note_on_c, 0, 68, 46
1, 86352, Note_on_c, 0, 44, 0
1, 86352, Note_on_c, 0, 54, 0
1, 86352, Note_on_c, 0, 52, 50
1, 86355, Note_on_c, 0, 37, 42
1, 86361, Control_c, 0, 64, 0
1, 86407, Control_c, 0, 64, 127
1, 86670, Note_on_c, 0, 68, 0
1, 86670, Note_on_c, 0, 61, 0
1, 86670, Note_on_c, 0, 73, 0
1, 86673, Note_on_c, 0, 37, 0
1, 86673, Note_on_c, 0, 52, 0
1, 87014, Control_c, 0, 64, 0
1, 87562, Control_c, 0, 64, 127
1, 87597, Note_on_c, 0, 61, 65
1, 87666, Note_on_c, 0, 61, 0
1, 87666, Note_on_c, 0, 61, 72
1, 87666, Note_on_c, 0, 56, 61
1, 87669, Note_on_c, 0, 52, 61
1, 87669, Note_on_c, 0, 49, 61
1, 87669, Note_on_c, 0, 37, 55
1, 87782, Note_on_c, 0, 49, 0
1, 87782, Note_on_c, 0, 48, 61
1, 87899, Note_on_c, 0, 48, 0
1, 87899, Note_on_c, 0, 47, 60
1, 88015, Note_on_c, 0, 47, 0
1, 88015, Note_on_c, 0, 46, 59
1, 88131, Note_on_c, 0, 46, 0
1, 88131, Note_on_c, 0, 45, 58
1, 88248, Note_on_c, 0, 45, 0
1, 88248, Note_on_c, 0, 44, 57
1, 88364, Note_on_c, 0, 44, 0
1, 88364, Note_on_c, 0, 43, 56
1, 88481, Note_on_c, 0, 52, 0
1, 88481, Note_on_c, 0, 56, 0
1, 88481, Note_on_c, 0, 61, 0
1, 88484, Note_on_c, 0, 43, 0
1, 88484, Note_on_c, 0, 44, 55
1, 88519, Note_on_c, 0, 66, 70
1, 88597, Note_on_c, 0, 66, 0
1, 88597, Note_on_c, 0, 66, 71
1, 88597, Note_on_c, 0, 57, 60
1, 88600, Note_on_c, 0, 54, 60
1, 88600, Note_on_c, 0, 44, 0
1, 88600, Note_on_c, 0, 37, 0
1, 88603, Note_on_c, 0, 45, 60
1, 88603, Note_on_c, 0, 36, 55
1, 88613, Control_c, 0, 64, 0
1, 88696, Control_c, 0, 64, 127
1, 88713, Note_on_c, 0, 45, 0
1, 88713, Note_on_c, 0, 44, 53
1, 88830, Note_on_c, 0, 44, 0
1, 88830, Note_on_c, 0, 43, 53
1, 88946, Note_on_c, 0, 43, 0
1, 88946, Note_on_c, 0, 42, 53
1, 89063, Note_on_c, 0, 42, 0
1, 89063, Note_on_c, 0, 41, 53
1, 89179, Note_on_c, 0, 41, 0
1, 89179, Note_on_c, 0, 40, 53
1, 89295, Note_on_c, 0, 40, 0
1, 89295, Note_on_c, 0, 39, 53
1, 89412, Note_on_c, 0, 54, 0
1, 89412, Note_on_c, 0, 57, 0
1, 89412, Note_on_c, 0, 66, 0
1, 89415, Note_on_c, 0, 39, 0
1, 89415, Note_on_c, 0, 36, 53
1, 89451, Note_on_c, 0, 64, 69
1, 89528, Note_on_c, 0, 64, 0
1, 89528, Note_on_c, 0, 64, 70
1, 89528, Note_on_c, 0, 56, 59
1, 89531, Note_on_c, 0, 52, 59
1, 89531, Note_on_c, 0, 36, 0
1, 89531, Note_on_c, 0, 36, 0
1, 89534, Note_on_c, 0, 37, 52
1, 89534, Control_c, 0, 64, 0
1, 89600, Control_c, 0, 64, 127
1, 89654, Note_on_c, 0, 38, 52
1, 89781, Note_on_c, 0, 38, 0
1, 89781, Note_on_c, 0, 39, 53
1, 89907, Note_on_c, 0, 52, 0
1, 89907, Note_on_c, 0, 56, 0
1, 89907, Note_on_c, 0, 64, 0
1, 89910, Note_on_c, 0, 39, 0
1, 89910, Note_on_c, 0, 40, 54
1, 89949, Note_on_c, 0, 63, 69
1, 90033, Note_on_c, 0, 63, 0
1, 90033, Note_on_c, 0, 63, 72
1, 90033, Note_on_c, 0, 54, 61
1, 90036, Note_on_c, 0, 51, 61
1, 90036, Note_on_c, 0, 40, 0
1, 90036, Note_on_c, 0, 37, 0
1, 90039, Note_on_c, 0, 41, 54
1, 90039, Note_on_c, 0, 30, 51
1, 90081, Control_c, 0, 64, 0
1, 90159, Note_on_c, 0, 41, 0
1, 90159, Note_on_c, 0, 42, 55
1, 90170, Control_c, 0, 64, 127
1, 90285, Note_on_c, 0, 42, 0
1, 90285, Note_on_c, 0, 41, 56
1, 90412, Note_on_c, 0, 51, 0
1, 90412, Note_on_c, 0, 54, 0
1, 90412, Note_on_c, 0, 63, 0
1, 90415, Note_on_c, 0, 41, 0
1, 90415, Note_on_c, 0, 42, 56
1, 90454, Note_on_c, 0, 49, 72
1, 90454, Note_on_c, 0, 61, 72
1, 90538, Note_on_c, 0, 61, 0
1, 90538, Note_on_c, 0, 49, 0
1, 90538, Note_on_c, 0, 61, 76
1, 90541, Note_on_c, 0, 52, 64
1, 90541, Note_on_c, 0, 49, 64
1, 90541, Note_on_c, 0, 42, 0
1, 90544, Note_on_c, 0, 30, 0
1, 90544, Note_on_c, 0, 43, 57
1, 90588, Control_c, 0, 64, 0
1, 90658, Note_on_c, 0, 43, 0
1, 90658, Note_on_c, 0, 44, 58
1, 90658, Control_c, 0, 64, 127
1, 90778, Note_on_c, 0, 44, 0
1, 90778, Note_on_c, 0, 43, 59
1, 90898, Note_on_c, 0, 49, 0
1, 90898, Note_on_c, 0, 52, 0
1, 90898, Note_on_c, 0, 61, 0
1, 90901, Note_on_c, 0, 43, 0
1, 90901, Note_on_c, 0, 44, 59
1, 90938, Note_on_c, 0, 60, 75
1, 91018, Note_on_c, 0, 60, 0
1, 91018, Note_on_c, 0, 60, 78
1, 91018, Note_on_c, 0, 51, 66
1, 91021, Note_on_c, 0, 48, 66
1, 91021, Note_on_c, 0, 44, 0
1, 91021, Note_on_c, 0, 45, 60
1, 91091, Control_c, 0, 64, 0
1, 91137, Note_on_c, 0, 45, 0
1, 91137, Note_on_c, 0, 44, 61
1, 91137, Control_c, 0, 64, 127
1, 91255, Note_on_c, 0, 44, 0
1, 91255, Note_on_c, 0, 45, 61
1, 91373, Note_on_c, 0, 48, 0
1, 91373, Note_on_c, 0, 51, 0
1, 91373, Note_on_c, 0, 60, 0
1, 91376, Note_on_c, 0, 45, 0
1, 91376, Note_on_c, 0, 44, 62
1, 91412, Note_on_c, 0, 61, 80
1, 91432, Control_c, 0, 64, 0
1, 91491, Note_on_c, 0, 61, 0
1, 91491, Note_on_c, 0, 61, 81
1, 91491, Note_on_c, 0, 52, 69
1, 91494, Note_on_c, 0, 49, 69
1, 91494, Note_on_c, 0, 44, 0
1, 91494, Note_on_c, 0, 37, 68
1, 91497, Note_on_c, 0, 40, 68
1, 91497, Note_on_c, 0, 44, 68
1, 91598, Control_c, 0, 64, 127
1, 91667, Control_c, 0, 64, 0
1, 91789, Note_on_c, 0, 49, 0
1, 91789, Note_on_c, 0, 52, 0
1, 91789, Note_on_c, 0, 61, 0
1, 91792, Note_on_c, 0, 44, 0
1, 91792, Note_on_c, 0, 40, 0
1, 91792, Note_on_c, 0, 37, 0
1, 92082, Note_on_c, 0, 45, 66
1, 92082, Note_on_c, 0, 51, 66
1, 92082, Note_on_c, 0, 30, 52
1, 92085, Note_on_c, 0, 39, 56
1, 92090, Control_c, 0, 64, 127
1, 92170, Note_on_c, 0, 51, 0
1, 92170, Note_on_c, 0, 49, 61
1, 92170, Note_on_c, 0, 39, 0
1, 92173, Note_on_c, 0, 37, 51
1, 92256, Note_on_c, 0, 49, 0
1, 92256, Note_on_c, 0, 51, 66
1, 92256, Note_on_c, 0, 37, 0
1, 92259, Note_on_c, 0, 30, 0
1, 92259, Note_on_c, 0, 39, 56
1, 92340, Note_on_c, 0, 51, 0
1, 92340, Note_on_c, 0, 49, 61
1, 92340, Note_on_c, 0, 39, 0
1, 92343, Note_on_c, 0, 37, 51
1, 92437, Note_on_c, 0, 49, 0
1, 92437, Note_on_c, 0, 48, 66
1, 92437, Note_on_c, 0, 37, 0
1, 92440, Note_on_c, 0, 36, 56
1, 92495, Control_c, 0, 64, 0
1, 92512, Note_on_c, 0, 48, 0
1, 92512, Note_on_c, 0, 49, 60
1, 92512, Note_on_c, 0, 36, 0
1, 92515, Note_on_c, 0, 37, 51
1, 92525, Control_c, 0, 64, 127
1, 92585, Note_on_c, 0, 49, 0
1, 92585, Note_on_c, 0, 51, 66
1, 92585, Note_on_c, 0, 37, 0
1, 92588, Note_on_c, 0, 39, 56
1, 92658, Note_on_c, 0, 51, 0
1, 92658, Note_on_c, 0, 52, 61
1, 92658, Note_on_c, 0, 39, 0
1, 92661, Note_on_c, 0, 40, 51
1, 92729, Note_on_c, 0, 52, 0
1, 92729, Note_on_c, 0, 40, 0
1, 92729, Note_on_c, 0, 54, 66
1, 92729, Note_on_c, 0, 42, 56
1, 92800, Note_on_c, 0, 54, 0
1, 92800, Note_on_c, 0, 56, 61
1, 92800, Note_on_c, 0, 42, 0
1, 92803, Note_on_c, 0, 44, 51
1, 92869, Note_on_c, 0, 56, 0
1, 92869, Note_on_c, 0, 57, 66
1, 92869, Note_on_c, 0, 44, 0
1, 92872, Note_on_c, 0, 45, 56
1, 92936, Note_on_c, 0, 57, 0
1, 92936, Note_on_c, 0, 56, 60
1, 92936, Note_on_c, 0, 45, 0
1, 92939, Note_on_c, 0, 44, 51
1, 93003, Note_on_c, 0, 56, 0
1, 93003, Note_on_c, 0, 54, 59
1, 93003, Note_on_c, 0, 44, 0
1, 93006, Note_on_c, 0, 42, 50
1, 93070, Note_on_c, 0, 54, 0
1, 93070, Note_on_c, 0, 42, 0
1, 93070, Note_on_c, 0, 52, 60
1, 93070, Note_on_c, 0, 40, 51
1, 93139, Note_on_c, 0, 52, 0
1, 93139, Note_on_c, 0, 51, 62
1, 93139, Note_on_c, 0, 40, 0
1, 93142, Note_on_c, 0, 39, 52
1, 93206, Note_on_c, 0, 51, 0
1, 93206, Note_on_c, 0, 49, 63
1, 93206, Note_on_c, 0, 39, 0
1, 93209, Note_on_c, 0, 37, 53
1, 93270, Note_on_c, 0, 45, 0
1, 93273, Note_on_c, 0, 49, 0
1, 93273, Note_on_c, 0, 48, 65
1, 93273, Note_on_c, 0, 37, 0
1, 93276, Note_on_c, 0, 36, 55
1, 93306, Control_c, 0, 64, 0
1, 93334, Control_c, 0, 64, 127
1, 93342, Note_on_c, 0, 48, 0
1, 93342, Note_on_c, 0, 49, 66
1, 93342, Note_on_c, 0, 36, 0
1, 93345, Note_on_c, 0, 37, 56
1, 93413, Note_on_c, 0, 49, 0
1, 93413, Note_on_c, 0, 37, 0
1, 93413, Note_on_c, 0, 51, 68
1, 93413, Note_on_c, 0, 39, 57
1, 93486, Note_on_c, 0, 51, 0
1, 93486, Note_on_c, 0, 52, 70
1, 93486, Note_on_c, 0, 39, 0
1, 93489, Note_on_c, 0, 40, 59
1, 93560, Note_on_c, 0, 52, 0
1, 93560, Note_on_c, 0, 51, 72
1, 93560, Note_on_c, 0, 40, 0
1, 93563, Note_on_c, 0, 39, 61
1, 93635, Note_on_c, 0, 51, 0
1, 93635, Note_on_c, 0, 49, 74
1, 93635, Note_on_c, 0, 39, 0
1, 93638, Note_on_c, 0, 37, 62
1, 93660, Note_on_c, 0, 25, 52
1, 93772, Note_on_c, 0, 49, 0
1, 93772, Note_on_c, 0, 37, 0
1, 93776, Note_on_c, 0, 44, 88
1, 93776, Note_on_c, 0, 49, 88
1, 93776, Note_on_c, 0, 40, 62
1, 93801, Control_c, 0, 64, 0
1, 93844, Control_c, 0, 64, 127
1, 93871, Note_on_c, 0, 49, 0
1, 93871, Note_on_c, 0, 44, 0
1, 93967, Note_on_c, 0, 40, 0
1, 93967, Note_on_c, 0, 25, 0
1, 94224, Control_c, 0, 64, 0
1, 94745, Control_c, 0, 64, 127
1, 94779, Note_on_c, 0, 68, 65
1, 94848, Note_on_c, 0, 68, 0
1, 94848, Note_on_c, 0, 68, 72
1, 94848, Note_on_c, 0, 63, 61
1, 94851, Note_on_c, 0, 59, 61
1, 94851, Note_on_c, 0, 56, 61
1, 94851, Note_on_c, 0, 44, 55
1, 94967, Note_on_c, 0, 56, 0
1, 94967, Note_on_c, 0, 55, 61
1, 95085, Note_on_c, 0, 55, 0
1, 95085, Note_on_c, 0, 54, 60
1, 95203, Note_on_c, 0, 54, 0
1, 95203, Note_on_c, 0, 53, 59
1, 95321, Note_on_c, 0, 53, 0
1, 95321, Note_on_c, 0, 52, 58
1, 95440, Note_on_c, 0, 52, 0
1, 95440, Note_on_c, 0, 51, 57
1, 95558, Note_on_c, 0, 51, 0
1, 95558, Note_on_c, 0, 50, 56
1, 95676, Note_on_c, 0, 59, 0
1, 95676, Note_on_c, 0, 63, 0
1, 95676, Note_on_c, 0, 68, 0
1, 95679, Note_on_c, 0, 50, 0
1, 95679, Note_on_c, 0, 51, 55
1, 95715, Note_on_c, 0, 73, 70
1, 95794, Note_on_c, 0, 73, 0
1, 95794, Note_on_c, 0, 73, 71
1, 95794, Note_on_c, 0, 64, 60
1, 95797, Note_on_c, 0, 61, 60
1, 95797, Note_on_c, 0, 51, 0
1, 95797, Note_on_c, 0, 44, 0
1, 95800, Note_on_c, 0, 43, 55
1, 95800, Note_on_c, 0, 52, 60
1, 95804, Control_c, 0, 64, 0
1, 95844, Control_c, 0, 64, 127
1, 95913, Note_on_c, 0, 52, 0
1, 95913, Note_on_c, 0, 51, 53
1, 96031, Note_on_c, 0, 51, 0
1, 96031, Note_on_c, 0, 50, 53
1, 96149, Note_on_c, 0, 50, 0
1, 96149, Note_on_c, 0, 49, 53
1, 96267, Note_on_c, 0, 49, 0
1, 96267, Note_on_c, 0, 48, 53
1, 96385, Note_on_c, 0, 48, 0
1, 96385, Note_on_c, 0, 47, 53
1, 96504, Note_on_c, 0, 47, 0
1, 96504, Note_on_c, 0, 46, 53
1, 96622, Note_on_c, 0, 61, 0
1, 96622, Note_on_c, 0, 64, 0
1, 96622, Note_on_c, 0, 73, 0
1, 96625, Note_on_c, 0, 46, 0
1, 96625, Note_on_c, 0, 43, 53
1, 96661, Note_on_c, 0, 71, 69
1, 96740, Note_on_c, 0, 71, 0
1, 96740, Note_on_c, 0, 71, 70
1, 96740, Note_on_c, 0, 63, 59
1, 96743, Note_on_c, 0, 59, 59
1, 96743, Note_on_c, 0, 43, 0
1, 96743, Note_on_c, 0, 43, 0
1, 96746, Note_on_c, 0, 44, 52
1, 96766, Control_c, 0, 64, 0
1, 96856, Control_c, 0, 64, 127
1, 96868, Note_on_c, 0, 45, 52
1, 96997, Note_on_c, 0, 45, 0
1, 96997, Note_on_c, 0, 46, 53
1, 97125, Note_on_c, 0, 59, 0
1, 97125, Note_on_c, 0, 63, 0
1, 97125, Note_on_c, 0, 71, 0
1, 97128, Note_on_c, 0, 46, 0
1, 97128, Note_on_c, 0, 47, 54
1, 97168, Note_on_c, 0, 69, 68
1, 97254, Note_on_c, 0, 69, 0
1, 97254, Note_on_c, 0, 69, 71
1, 97254, Note_on_c, 0, 61, 60
1, 97257, Note_on_c, 0, 57, 60
1, 97257, Note_on_c, 0, 47, 0
1, 97257, Note_on_c, 0, 44, 0
1, 97260, Note_on_c, 0, 37, 51
1, 97260, Note_on_c, 0, 48, 54
1, 97281, Control_c, 0, 64, 0
1, 97382, Note_on_c, 0, 48, 0
1, 97382, Note_on_c, 0, 49, 55
1, 97388, Control_c, 0, 64, 127
1, 97510, Note_on_c, 0, 49, 0
1, 97510, Note_on_c, 0, 48, 56
1, 97639, Note_on_c, 0, 57, 0
1, 97639, Note_on_c, 0, 61, 0
1, 97639, Note_on_c, 0, 69, 0
1, 97642, Note_on_c, 0, 48, 0
1, 97642, Note_on_c, 0, 49, 56
1, 97681, Note_on_c, 0, 68, 71
1, 97767, Note_on_c, 0, 68, 0
1, 97767, Note_on_c, 0, 68, 74
1, 97767, Note_on_c, 0, 59, 63
1, 97770, Note_on_c, 0, 56, 63
1, 97770, Note_on_c, 0, 49, 0
1, 97770, Note_on_c, 0, 37, 0
1, 97773, Note_on_c, 0, 50, 57
1, 97798, Control_c, 0, 64, 0
1, 97882, Note_on_c, 0, 50, 0
1, 97882, Note_on_c, 0, 51, 58
1, 97887, Control_c, 0, 64, 127
1, 97996, Note_on_c, 0, 51, 0
1, 97996, Note_on_c, 0, 50, 59
1, 98111, Note_on_c, 0, 56, 0
1, 98111, Note_on_c, 0, 59, 0
1, 98111, Note_on_c, 0, 68, 0
1, 98114, Note_on_c, 0, 50, 0
1, 98114, Note_on_c, 0, 51, 59
1, 98149, Note_on_c, 0, 67, 72
1, 98225, Note_on_c, 0, 67, 0
1, 98225, Note_on_c, 0, 67, 75
1, 98225, Note_on_c, 0, 58, 63
1, 98228, Note_on_c, 0, 55, 63
1, 98228, Note_on_c, 0, 51, 0
1, 98228, Note_on_c, 0, 52, 60
1, 98253, Control_c, 0, 64, 0
1, 98344, Note_on_c, 0, 52, 0
1, 98344, Note_on_c, 0, 51, 61
1, 98365, Control_c, 0, 64, 127
1, 98462, Note_on_c, 0, 51, 0
1, 98462, Note_on_c, 0, 52, 61
1, 98580, Note_on_c, 0, 55, 0
1, 98580, Note_on_c, 0, 58, 0
1, 98580, Note_on_c, 0, 67, 0
1, 98583, Note_on_c, 0, 52, 0
1, 98583, Note_on_c, 0, 51, 62
1, 98620, Note_on_c, 0, 68, 77
1, 98639, Control_c, 0, 64, 0
1, 98698, Note_on_c, 0, 68, 0
1, 98698, Note_on_c, 0, 68, 78
1, 98698, Note_on_c, 0, 59, 66
1, 98701, Note_on_c, 0, 56, 66
1, 98701, Note_on_c, 0, 51, 0
1, 98701, Note_on_c, 0, 44, 55
1, 98704, Note_on_c, 0, 51, 63
1, 98805, Control_c, 0, 64, 127
1, 98996, Note_on_c, 0, 56, 0
1, 98996, Note_on_c, 0, 59, 0
1, 98996, Note_on_c, 0, 68, 0
1, 98999, Note_on_c, 0, 51, 0
1, 98999, Note_on_c, 0, 44, 0
1, 99290, Note_on_c, 0, 52, 66
1, 99290, Note_on_c, 0, 57, 66
1, 99290, Note_on_c, 0, 37, 52
1, 99293, Note_on_c, 0, 45, 56
1, 99297, Control_c, 0, 64, 127
1, 99379, Note_on_c, 0, 57, 0
1, 99379, Note_on_c, 0, 56, 61
1, 99379, Note_on_c, 0, 45, 0
1, 99382, Note_on_c, 0, 44, 51
1, 99466, Note_on_c, 0, 56, 0
1, 99466, Note_on_c, 0, 57, 66
1, 99466, Note_on_c, 0, 44, 0
1, 99469, Note_on_c, 0, 37, 0
1, 99469, Note_on_c, 0, 45, 56
1, 99551, Note_on_c, 0, 57, 0
1, 99551, Note_on_c, 0, 56, 61
1, 99551, Note_on_c, 0, 45, 0
1, 99554, Note_on_c, 0, 44, 51
1, 99637, Note_on_c, 0, 56, 0
1, 99637, Note_on_c, 0, 55, 66
1, 99637, Note_on_c, 0, 44, 0
1, 99640, Note_on_c, 0, 43, 56
1, 99696, Control_c, 0, 64, 0
1, 99713, Note_on_c, 0, 55, 0
1, 99713, Note_on_c, 0, 56, 60
1, 99713, Note_on_c, 0, 43, 0
1, 99716, Note_on_c, 0, 44, 51
1, 99726, Control_c, 0, 64, 127
1, 99787, Note_on_c, 0, 56, 0
1, 99787, Note_on_c, 0, 58, 66
1, 99787, Note_on_c, 0, 44, 0
1, 99790, Note_on_c, 0, 46, 56
1, 99860, Note_on_c, 0, 58, 0
1, 99860, Note_on_c, 0, 59, 61
1, 99860, Note_on_c, 0, 46, 0
1, 99863, Note_on_c, 0, 47, 51
1, 99933, Note_on_c, 0, 59, 0
1, 99933, Note_on_c, 0, 47, 0
1, 99933, Note_on_c, 0, 61, 66
1, 99933, Note_on_c, 0, 49, 56
1, 100006, Note_on_c, 0, 61, 0
1, 100006, Note_on_c, 0, 63, 61
1, 100006, Note_on_c, 0, 49, 0
1, 100009, Note_on_c, 0, 51, 51
1, 100077, Note_on_c, 0, 63, 0
1, 100077, Note_on_c, 0, 64, 66
1, 100077, Note_on_c, 0, 51, 0
1, 100080, Note_on_c, 0, 52, 56
1, 100147, Note_on_c, 0, 64, 0
1, 100147, Note_on_c, 0, 63, 60
1, 100147, Note_on_c, 0, 52, 0
1, 100150, Note_on_c, 0, 51, 51
1, 100216, Note_on_c, 0, 63, 0
1, 100216, Note_on_c, 0, 61, 59
1, 100216, Note_on_c, 0, 51, 0
1, 100219, Note_on_c, 0, 49, 50
1, 100285, Note_on_c, 0, 61, 0
1, 100285, Note_on_c, 0, 49, 0
1, 100285, Note_on_c, 0, 59, 60
1, 100285, Note_on_c, 0, 47, 51
1, 100355, Note_on_c, 0, 59, 0
1, 100355, Note_on_c, 0, 58, 62
1, 100355, Note_on_c, 0, 47, 0
1, 100358, Note_on_c, 0, 46, 52
1, 100424, Note_on_c, 0, 58, 0
1, 100424, Note_on_c, 0, 56, 63
1, 100424, Note_on_c, 0, 46, 0
1, 100427, Note_on_c, 0, 44, 53
1, 100490, Note_on_c, 0, 52, 0
1, 100493, Note_on_c, 0, 56, 0
1, 100493, Note_on_c, 0, 55, 65
1, 100493, Note_on_c, 0, 44, 0
1, 100496, Note_on_c, 0, 43, 55
1, 100526, Control_c, 0, 64, 0
1, 100554, Control_c, 0, 64, 127
1, 100563, Note_on_c, 0, 55, 0
1, 100563, Note_on_c, 0, 56, 66
1, 100563, Note_on_c, 0, 43, 0
1, 100566, Note_on_c, 0, 44, 56
1, 100633, Note_on_c, 0, 56, 0
1, 100633, Note_on_c, 0, 44, 0
1, 100633, Note_on_c, 0, 58, 68
1, 100633, Note_on_c, 0, 46, 57
1, 100707, Note_on_c, 0, 58, 0
1, 100707, Note_on_c, 0, 59, 70
1, 100707, Note_on_c, 0, 46, 0
1, 100710, Note_on_c, 0, 47, 59
1, 100780, Note_on_c, 0, 59, 0
1, 100780, Note_on_c, 0, 58, 72
1, 100780, Note_on_c, 0, 47, 0
1, 100783, Note_on_c, 0, 46, 61
1, 100855, Note_on_c, 0, 58, 0
1, 100855, Note_on_c, 0, 56, 74
1, 100855, Note_on_c, 0, 46, 0
1, 100858, Note_on_c, 0, 44, 62
1, 100992, Note_on_c, 0, 56, 0
1, 100992, Note_on_c, 0, 44, 0
1, 100996, Note_on_c, 0, 47, 88
1, 100996, Note_on_c, 0, 51, 88
1, 100996, Note_on_c, 0, 56, 88
1, 100999, Note_on_c, 0, 39, 52
1, 100999, Note_on_c, 0, 32, 52
1, 100999, Note_on_c, 0, 44, 62
1, 101022, Control_c, 0, 64, 0
1, 101065, Control_c, 0, 64, 127
1, 101092, Note_on_c, 0, 56, 0
1, 101092, Note_on_c, 0, 51, 0
1, 101092, Note_on_c, 0, 47, 0
1, 101187, Note_on_c, 0, 44, 0
1, 101187, Note_on_c, 0, 32, 0
1, 101187, Note_on_c, 0, 39, 0
1, 101404, Control_c, 0, 64, 0
1, 102048, Note_on_c, 0, 64, 50
1, 102143, Note_on_c, 0, 80, 54
1, 102143, Note_on_c, 0, 83, 54
1, 102143, Note_on_c, 0, 92, 70
1, 102146, Note_on_c, 0, 64, 0
1, 102146, Note_on_c, 0, 76, 59
1, 102146, Note_on_c, 0, 71, 50
1, 102201, Note_on_c, 0, 92, 0
1, 102201, Note_on_c, 0, 83, 0
1, 102201, Note_on_c, 0, 80, 0
1, 102204, Note_on_c, 0, 71, 0
1, 102204, Note_on_c, 0, 76, 0
1, 102545, Note_on_c, 0, 59, 49
1, 102603, Note_on_c, 0, 80, 51
1, 102603, Note_on_c, 0, 83, 51
1, 102603, Note_on_c, 0, 92, 66
1, 102606, Note_on_c, 0, 59, 0
1, 102606, Note_on_c, 0, 76, 58
1, 102606, Note_on_c, 0, 71, 49
1, 102660, Note_on_c, 0, 92, 0
1, 102660, Note_on_c, 0, 83, 0
1, 102660, Note_on_c, 0, 80, 0
1, 102663, Note_on_c, 0, 71, 0
1, 102663, Note_on_c, 0, 76, 0
1, 103005, Note_on_c, 0, 64, 55
1, 103063, Note_on_c, 0, 80, 53
1, 103063, Note_on_c, 0, 83, 53
1, 103063, Note_on_c, 0, 92, 69
1, 103066, Note_on_c, 0, 64, 0
1, 103066, Note_on_c, 0, 76, 63
1, 103066, Note_on_c, 0, 71, 53
1, 103115, Control_c, 0, 64, 127
1, 103480, Note_on_c, 0, 71, 0
1, 103480, Note_on_c, 0, 76, 0
1, 103480, Note_on_c, 0, 59, 44
1, 103496, Control_c, 0, 64, 0
1, 103702, Note_on_c, 0, 92, 0
1, 103702, Note_on_c, 0, 90, 63
1, 103777, Note_on_c, 0, 90, 0
1, 103777, Note_on_c, 0, 88, 63
1, 103814, Note_on_c, 0, 59, 0
1, 103814, Note_on_c, 0, 63, 57
1, 103852, Note_on_c, 0, 88, 0
1, 103852, Note_on_c, 0, 83, 0
1, 103852, Note_on_c, 0, 80, 0
1, 103855, Note_on_c, 0, 81, 55
1, 103855, Note_on_c, 0, 83, 55
1, 103855, Note_on_c, 0, 87, 71
1, 103858, Note_on_c, 0, 63, 0
1, 103858, Note_on_c, 0, 78, 64
1, 103858, Note_on_c, 0, 71, 54
1, 103906, Note_on_c, 0, 87, 0
1, 104067, Note_on_c, 0, 88, 66
1, 104113, Note_on_c, 0, 88, 0
1, 104252, Note_on_c, 0, 83, 0
1, 104252, Note_on_c, 0, 81, 0
1, 104252, Note_on_c, 0, 81, 55
1, 104255, Note_on_c, 0, 83, 55
1, 104255, Note_on_c, 0, 90, 72
1, 104255, Note_on_c, 0, 71, 0
1, 104258, Note_on_c, 0, 78, 0
1, 104258, Note_on_c, 0, 59, 47
1, 104284, Control_c, 0, 64, 127
1, 104603, Note_on_c, 0, 64, 55
1, 104654, Note_on_c, 0, 90, 0
1, 104654, Note_on_c, 0, 83, 0
1, 104654, Note_on_c, 0, 81, 0
1, 104657, Note_on_c, 0, 80, 53
1, 104657, Note_on_c, 0, 83, 53
1, 104657, Note_on_c, 0, 92, 69
1, 104660, Note_on_c, 0, 64, 0
1, 104660, Note_on_c, 0, 59, 0
1, 104660, Note_on_c, 0, 76, 63
1, 104663, Note_on_c, 0, 71, 53
1, 104663, Control_c, 0, 64, 0
1, 104705, Control_c, 0, 64, 127
1, 105061, Note_on_c, 0, 71, 0
1, 105061, Note_on_c, 0, 76, 0
1, 105061, Note_on_c, 0, 59, 46
1, 105113, Control_c, 0, 64, 0
1, 105270, Note_on_c, 0, 92, 0
1, 105270, Note_on_c, 0, 90, 63
1, 105347, Note_on_c, 0, 90, 0
1, 105347, Note_on_c, 0, 88, 63
1, 105386, Note_on_c, 0, 59, 0
1, 105386, Note_on_c, 0, 63, 57
1, 105425, Note_on_c, 0, 88, 0
1, 105425, Note_on_c, 0, 83, 0
1, 105425, Note_on_c, 0, 80, 0
1, 105428, Note_on_c, 0, 81, 55
1, 105428, Note_on_c, 0, 83, 55
1, 105428, Note_on_c, 0, 87, 71
1, 105431, Note_on_c, 0, 63, 0
1, 105431, Note_on_c, 0, 78, 64
1, 105431, Note_on_c, 0, 71, 54
1, 105479, Note_on_c, 0, 87, 0
1, 105641, Note_on_c, 0, 88, 66
1, 105691, Note_on_c, 0, 88, 0
1, 105836, Control_c, 0, 64, 127
1, 105842, Note_on_c, 0, 83, 0
1, 105842, Note_on_c, 0, 81, 0
1, 105842, Note_on_c, 0, 81, 55
1, 105845, Note_on_c, 0, 83, 55
1, 105845, Note_on_c, 0, 90, 72
1, 105845, Note_on_c, 0, 71, 0
1, 105848, Note_on_c, 0, 78, 0
1, 105848, Note_on_c, 0, 59, 49
1, 106185, Note_on_c, 0, 64, 55
1, 106235, Note_on_c, 0, 90, 0
1, 106235, Note_on_c, 0, 83, 0
1, 106235, Note_on_c, 0, 81, 0
1, 106238, Note_on_c, 0, 80, 53
1, 106238, Note_on_c, 0, 83, 53
1, 106238, Note_on_c, 0, 92, 69
1, 106241, Note_on_c, 0, 64, 0
1, 106241, Note_on_c, 0, 59, 0
1, 106241, Note_on_c, 0, 76, 63
1, 106244, Note_on_c, 0, 71, 53
1, 106244, Control_c, 0, 64, 0
1, 106299, Control_c, 0, 64, 127
1, 106636, Note_on_c, 0, 71, 0
1, 106636, Note_on_c, 0, 76, 0
1, 106636, Note_on_c, 0, 59, 47
1, 106651, Control_c, 0, 64, 0
1, 106842, Note_on_c, 0, 92, 0
1, 106842, Note_on_c, 0, 90, 63
1, 106920, Note_on_c, 0, 90, 0
1, 106920, Note_on_c, 0, 88, 63
1, 106958, Note_on_c, 0, 59, 0
1, 106958, Note_on_c, 0, 63, 57
1, 106997, Note_on_c, 0, 88, 0
1, 106997, Note_on_c, 0, 83, 0
1, 106997, Note_on_c, 0, 80, 0
1, 107000, Note_on_c, 0, 81, 55
1, 107000, Note_on_c, 0, 83, 55
1, 107000, Note_on_c, 0, 87, 71
1, 107003, Note_on_c, 0, 63, 0
1, 107003, Note_on_c, 0, 78, 64
1, 107003, Note_on_c, 0, 71, 54
1, 107049, Note_on_c, 0, 87, 0
1, 107206, Note_on_c, 0, 88, 66
1, 107255, Note_on_c, 0, 88, 0
1, 107403, Note_on_c, 0, 83, 0
1, 107403, Note_on_c, 0, 81, 0
1, 107403, Note_on_c, 0, 81, 55
1, 107406, Note_on_c, 0, 83, 55
1, 107406, Note_on_c, 0, 90, 72
1, 107406, Note_on_c, 0, 71, 0
1, 107409, Note_on_c, 0, 78, 0
1, 107409, Note_on_c, 0, 59, 48
1, 107431, Control_c, 0, 64, 127
1, 107745, Note_on_c, 0, 68, 57
1, 107795, Note_on_c, 0, 90, 0
1, 107795, Note_on_c, 0, 83, 0
1, 107795, Note_on_c, 0, 81, 0
1, 107798, Note_on_c, 0, 80, 53
1, 107798, Note_on_c, 0, 83, 53
1, 107798, Note_on_c, 0, 92, 69
1, 107801, Note_on_c, 0, 68, 0
1, 107801, Note_on_c, 0, 59, 0
1, 107801, Note_on_c, 0, 76, 63
1, 107804, Note_on_c, 0, 71, 53
1, 107804, Control_c, 0, 64, 0
1, 107822, Control_c, 0, 64, 127
1, 108148, Note_on_c, 0, 71, 0
1, 108148, Note_on_c, 0, 76, 0
1, 108148, Note_on_c, 0, 64, 47
1, 108174, Note_on_c, 0, 71, 51
1, 108199, Note_on_c, 0, 80, 59
1, 108405, Note_on_c, 0, 92, 0
1, 108405, Note_on_c, 0, 90, 63
1, 108416, Control_c, 0, 64, 0
1, 108502, Note_on_c, 0, 90, 0
1, 108502, Note_on_c, 0, 88, 63
1, 108551, Note_on_c, 0, 80, 0
1, 108551, Note_on_c, 0, 71, 0
1, 108551, Note_on_c, 0, 64, 0
1, 108554, Note_on_c, 0, 63, 53
1, 108575, Note_on_c, 0, 71, 58
1, 108599, Note_on_c, 0, 88, 0
1, 108599, Note_on_c, 0, 83, 0
1, 108599, Note_on_c, 0, 80, 0
1, 108602, Note_on_c, 0, 83, 55
1, 108602, Note_on_c, 0, 87, 71
1, 108602, Note_on_c, 0, 78, 64
1, 108612, Control_c, 0, 64, 127
1, 108678, Note_on_c, 0, 87, 0
1, 108678, Note_on_c, 0, 88, 66
1, 108756, Note_on_c, 0, 88, 0
1, 108756, Note_on_c, 0, 90, 66
1, 108846, Note_on_c, 0, 90, 0
1, 108846, Note_on_c, 0, 92, 66
1, 108891, Note_on_c, 0, 78, 0
1, 108891, Note_on_c, 0, 71, 0
1, 108891, Note_on_c, 0, 63, 0
1, 108894, Note_on_c, 0, 61, 51
1, 108914, Note_on_c, 0, 68, 54
1, 108936, Note_on_c, 0, 92, 0
1, 108936, Note_on_c, 0, 83, 0
1, 108936, Note_on_c, 0, 80, 55
1, 108939, Note_on_c, 0, 90, 72
1, 108939, Note_on_c, 0, 76, 59
1, 108948, Control_c, 0, 64, 0
1, 108984, Note_on_c, 0, 90, 0
1, 109127, Note_on_c, 0, 88, 70
1, 109178, Note_on_c, 0, 88, 0
1, 109280, Note_on_c, 0, 76, 0
1, 109280, Note_on_c, 0, 68, 0
1, 109280, Note_on_c, 0, 61, 0
1, 109283, Note_on_c, 0, 60, 52
1, 109306, Note_on_c, 0, 68, 54
1, 109332, Note_on_c, 0, 80, 0
1, 109332, Note_on_c, 0, 80, 55
1, 109332, Note_on_c, 0, 87, 74
1, 109335, Note_on_c, 0, 75, 64
1, 109377, Note_on_c, 0, 87, 0
1, 109514, Note_on_c, 0, 88, 77
1, 109563, Note_on_c, 0, 88, 0
1, 109710, Note_on_c, 0, 80, 0
1, 109710, Note_on_c, 0, 90, 78
1, 109710, Note_on_c, 0, 75, 0
1, 109713, Note_on_c, 0, 68, 0
1, 109713, Note_on_c, 0, 60, 0
1, 109713, Note_on_c, 0, 56, 50
1, 109761, Control_c, 0, 64, 127
1, 110002, Note_on_c, 0, 90, 0
1, 110002, Note_on_c, 0, 88, 73
1, 110052, Note_on_c, 0, 61, 53
1, 110078, Note_on_c, 0, 68, 58
1, 110103, Note_on_c, 0, 88, 0
1, 110103, Note_on_c, 0, 80, 55
1, 110103, Note_on_c, 0, 87, 71
1, 110106, Note_on_c, 0, 56, 0
1, 110106, Note_on_c, 0, 76, 64
1, 110106, Control_c, 0, 64, 0
1, 110133, Control_c, 0, 64, 127
1, 110183, Note_on_c, 0, 87, 0
1, 110183, Note_on_c, 0, 88, 66
1, 110262, Note_on_c, 0, 88, 0
1, 110262, Note_on_c, 0, 90, 66
1, 110342, Note_on_c, 0, 90, 0
1, 110342, Note_on_c, 0, 92, 60
1, 110382, Note_on_c, 0, 76, 0
1, 110382, Note_on_c, 0, 68, 0
1, 110382, Note_on_c, 0, 61, 0
1, 110422, Note_on_c, 0, 92, 0
1, 110422, Note_on_c, 0, 80, 0
1, 110422, Note_on_c, 0, 80, 55
1, 110425, Note_on_c, 0, 90, 72
1, 110425, Note_on_c, 0, 56, 50
1, 110441, Control_c, 0, 64, 0
1, 110471, Note_on_c, 0, 90, 0
1, 110616, Note_on_c, 0, 88, 70
1, 110665, Note_on_c, 0, 88, 0
1, 110758, Note_on_c, 0, 60, 52
1, 110782, Note_on_c, 0, 68, 54
1, 110805, Note_on_c, 0, 80, 0
1, 110805, Note_on_c, 0, 80, 55
1, 110805, Note_on_c, 0, 87, 74
1, 110808, Note_on_c, 0, 56, 0
1, 110808, Note_on_c, 0, 75, 64
1, 110853, Note_on_c, 0, 87, 0
1, 110995, Note_on_c, 0, 88, 77
1, 111047, Note_on_c, 0, 88, 0
1, 111200, Note_on_c, 0, 80, 0
1, 111200, Note_on_c, 0, 90, 78
1, 111200, Note_on_c, 0, 75, 0
1, 111203, Note_on_c, 0, 68, 0
1, 111203, Note_on_c, 0, 60, 0
1, 111203, Note_on_c, 0, 56, 50
1, 111217, Control_c, 0, 64, 127
1, 111499, Note_on_c, 0, 90, 0
1, 111499, Note_on_c, 0, 88, 73
1, 111551, Note_on_c, 0, 61, 53
1, 111577, Note_on_c, 0, 68, 58
1, 111603, Note_on_c, 0, 88, 0
1, 111603, Note_on_c, 0, 80, 55
1, 111603, Note_on_c, 0, 87, 71
1, 111606, Note_on_c, 0, 56, 0
1, 111606, Note_on_c, 0, 76, 64
1, 111616, Control_c, 0, 64, 0
1, 111633, Control_c, 0, 64, 127
1, 111682, Note_on_c, 0, 87, 0
1, 111682, Note_on_c, 0, 88, 66
1, 111761, Note_on_c, 0, 88, 0
1, 111761, Note_on_c, 0, 90, 66
1, 111840, Note_on_c, 0, 90, 0
1, 111840, Note_on_c, 0, 92, 66
1, 111880, Note_on_c, 0, 76, 0
1, 111880, Note_on_c, 0, 68, 0
1, 111880, Note_on_c, 0, 61, 0
1, 111919, Note_on_c, 0, 92, 0
1, 111919, Note_on_c, 0, 80, 0
1, 111919, Note_on_c, 0, 80, 55
1, 111922, Note_on_c, 0, 90, 72
1, 111922, Note_on_c, 0, 56, 50
1, 111953, Control_c, 0, 64, 0
1, 111970, Note_on_c, 0, 90, 0
1, 112121, Note_on_c, 0, 88, 70
1, 112172, Note_on_c, 0, 88, 0
1, 112273, Note_on_c, 0, 60, 52
1, 112298, Note_on_c, 0, 68, 54
1, 112323, Note_on_c, 0, 80, 0
1, 112323, Note_on_c, 0, 80, 55
1, 112323, Note_on_c, 0, 87, 74
1, 112326, Note_on_c, 0, 56, 0
1, 112326, Note_on_c, 0, 75, 64
1, 112372, Note_on_c, 0, 87, 0
1, 112520, Note_on_c, 0, 85, 69
1, 112569, Note_on_c, 0, 85, 0
1, 112716, Note_on_c, 0, 80, 0
1, 112716, Note_on_c, 0, 84, 69
1, 112716, Note_on_c, 0, 75, 0
1, 112719, Note_on_c, 0, 68, 0
1, 112719, Note_on_c, 0, 60, 0
1, 112719, Note_on_c, 0, 56, 50
1, 112743, Control_c, 0, 64, 127
1, 113069, Note_on_c, 0, 61, 53
1, 113095, Note_on_c, 0, 68, 58
1, 113121, Note_on_c, 0, 84, 0
1, 113121, Note_on_c, 0, 80, 55
1, 113121, Note_on_c, 0, 87, 71
1, 113124, Note_on_c, 0, 56, 0
1, 113124, Note_on_c, 0, 76, 64
1, 113124, Control_c, 0, 64, 0
1, 113156, Control_c, 0, 64, 127
1, 113200, Note_on_c, 0, 87, 0
1, 113200, Note_on_c, 0, 88, 66
1, 113279, Note_on_c, 0, 88, 0
1, 113279, Note_on_c, 0, 90, 66
1, 113358, Note_on_c, 0, 90, 0
1, 113358, Note_on_c, 0, 92, 66
1, 113397, Note_on_c, 0, 76, 0
1, 113397, Note_on_c, 0, 68, 0
1, 113397, Note_on_c, 0, 61, 0
1, 113437, Note_on_c, 0, 92, 0
1, 113437, Note_on_c, 0, 80, 0
1, 113437, Note_on_c, 0, 85, 55
1, 113440, Note_on_c, 0, 81, 55
1, 113440, Note_on_c, 0, 90, 72
1, 113440, Note_on_c, 0, 76, 50
1, 113443, Note_on_c, 0, 69, 42
1, 113443, Note_on_c, 0, 73, 42
1, 113481, Control_c, 0, 64, 0
1, 113487, Note_on_c, 0, 90, 0
1, 113636, Note_on_c, 0, 88, 70
1, 113686, Note_on_c, 0, 88, 0
1, 113835, Note_on_c, 0, 81, 0
1, 113835, Note_on_c, 0, 85, 0
1, 113835, Note_on_c, 0, 81, 55
1, 113838, Note_on_c, 0, 85, 55
1, 113838, Note_on_c, 0, 87, 74
1, 113838, Note_on_c, 0, 73, 0
1, 113841, Note_on_c, 0, 69, 0
1, 113841, Note_on_c, 0, 76, 0
1, 113841, Note_on_c, 0, 66, 52
1, 113844, Note_on_c, 0, 73, 54
1, 113844, Note_on_c, 0, 75, 64
1, 113887, Note_on_c, 0, 87, 0
1, 114043, Note_on_c, 0, 88, 77
1, 114095, Note_on_c, 0, 88, 0
1, 114251, Note_on_c, 0, 85, 0
1, 114251, Note_on_c, 0, 81, 0
1, 114251, Note_on_c, 0, 81, 62
1, 114254, Note_on_c, 0, 85, 62
1, 114254, Note_on_c, 0, 90, 81
1, 114254, Note_on_c, 0, 75, 0
1, 114257, Note_on_c, 0, 73, 0
1, 114257, Note_on_c, 0, 66, 0
1, 114257, Note_on_c, 0, 78, 50
1, 114260, Note_on_c, 0, 63, 42
1, 114260, Note_on_c, 0, 69, 42
1, 114260, Note_on_c, 0, 73, 42
1, 114263, Control_c, 0, 64, 127
1, 114657, Note_on_c, 0, 90, 0
1, 114657, Note_on_c, 0, 85, 0
1, 114657, Note_on_c, 0, 81, 0
1, 114660, Note_on_c, 0, 88, 71
1, 114660, Note_on_c, 0, 80, 60
1, 114660, Note_on_c, 0, 73, 0
1, 114663, Note_on_c, 0, 78, 0
1, 114663, Note_on_c, 0, 63, 0
1, 114663, Note_on_c, 0, 69, 0
1, 114666, Note_on_c, 0, 68, 54
1, 114666, Note_on_c, 0, 73, 54
1, 114666, Note_on_c, 0, 76, 64
1, 114669, Control_c, 0, 64, 0
1, 114691, Control_c, 0, 64, 127
1, 114745, Note_on_c, 0, 88, 0
1, 114745, Note_on_c, 0, 87, 63
1, 114833, Note_on_c, 0, 87, 0
1, 114833, Note_on_c, 0, 85, 63
1, 114921, Note_on_c, 0, 85, 0
1, 114921, Note_on_c, 0, 88, 63
1, 115034, Note_on_c, 0, 88, 0
1, 115034, Note_on_c, 0, 80, 0
1, 115034, Note_on_c, 0, 87, 72
1, 115037, Note_on_c, 0, 80, 61
1, 115037, Note_on_c, 0, 76, 0
1, 115037, Note_on_c, 0, 73, 0
1, 115040, Note_on_c, 0, 68, 0
1, 115040, Note_on_c, 0, 68, 54
1, 115040, Note_on_c, 0, 75, 54
1, 115043, Note_on_c, 0, 78, 64
1, 115047, Control_c, 0, 64, 0
1, 115076, Control_c, 0, 64, 127
1, 115124, Note_on_c, 0, 87, 0
1, 115124, Note_on_c, 0, 85, 64
1, 115214, Note_on_c, 0, 85, 0
1, 115214, Note_on_c, 0, 84, 64
1, 115304, Note_on_c, 0, 84, 0
1, 115304, Note_on_c, 0, 87, 63
1, 115332, Note_on_c, 0, 78, 0
1, 115332, Note_on_c, 0, 75, 0
1, 115332, Note_on_c, 0, 68, 0
1, 115335, Note_on_c, 0, 61, 54
1, 115359, Note_on_c, 0, 68, 54
1, 115386, Note_on_c, 0, 73, 54
1, 115411, Note_on_c, 0, 87, 0
1, 115411, Note_on_c, 0, 80, 0
1, 115411, Note_on_c, 0, 80, 60
1, 115414, Note_on_c, 0, 85, 54
1, 115414, Note_on_c, 0, 76, 64
1, 115414, Control_c, 0, 64, 0
1, 115443, Control_c, 0, 64, 127
1, 115462, Note_on_c, 0, 85, 0
1, 115462, Note_on_c, 0, 87, 49
1, 115512, Note_on_c, 0, 87, 0
1, 115512, Note_on_c, 0, 85, 54
1, 115560, Note_on_c, 0, 85, 0
1, 115560, Note_on_c, 0, 87, 49
1, 115608, Note_on_c, 0, 87, 0
1, 115608, Note_on_c, 0, 85, 54
1, 115655, Note_on_c, 0, 85, 0
1, 115655, Note_on_c, 0, 87, 49
1, 115702, Note_on_c, 0, 87, 0
1, 115702, Note_on_c, 0, 85, 54
1, 115749, Note_on_c, 0, 85, 0
1, 115749, Note_on_c, 0, 87, 46
1, 115796, Note_on_c, 0, 87, 0
1, 115796, Note_on_c, 0, 80, 0
1, 115796, Note_on_c, 0, 85, 53
1, 115799, Note_on_c, 0, 76, 0
1, 115799, Note_on_c, 0, 61, 0
1, 115799, Note_on_c, 0, 68, 0
1, 115802, Note_on_c, 0, 73, 0
1, 115842, Note_on_c, 0, 85, 0
1, 115842, Note_on_c, 0, 87, 48
1, 115888, Note_on_c, 0, 87, 0
1, 115888, Note_on_c, 0, 85, 53
1, 115935, Note_on_c, 0, 85, 0
1, 115935, Note_on_c, 0, 87, 47
1, 115982, Note_on_c, 0, 87, 0
1, 115982, Note_on_c, 0, 85, 53
1, 116045, Note_on_c, 0, 85, 0
1, 116045, Note_on_c, 0, 87, 46
1, 116112, Note_on_c, 0, 87, 0
1, 116112, Note_on_c, 0, 85, 52
1, 116185, Note_on_c, 0, 85, 0
1, 116185, Control_c, 0, 64, 0
1, 116191, Control_c, 0, 64, 0
1, 116191, Note_on_c, 0, 84, 48
1, 116217, Control_c, 0, 64, 127
1, 116242, Note_on_c, 0, 84, 0
1, 116242, Note_on_c, 0, 85, 49
1, 116291, Note_on_c, 0, 85, 0
1, 116291, Note_on_c, 0, 86, 51
1, 116340, Note_on_c, 0, 86, 0
1, 116340, Note_on_c, 0, 87, 53
1, 116390, Note_on_c, 0, 87, 0
1, 116390, Note_on_c, 0, 88, 55
1, 116440, Note_on_c, 0, 88, 0
1, 116440, Note_on_c, 0, 89, 56
1, 116491, Note_on_c, 0, 89, 0
1, 116491, Note_on_c, 0, 90, 58
1, 116541, Note_on_c, 0, 90, 0
1, 116541, Note_on_c, 0, 91, 60
1, 116583, Note_on_c, 0, 92, 70
1, 116583, Note_on_c, 0, 64, 49
1, 116583, Control_c, 0, 64, 0
1, 116593, Note_on_c, 0, 91, 0
1, 116798, Note_on_c, 0, 80, 48
1, 116798, Note_on_c, 0, 83, 48
1, 116798, Note_on_c, 0, 71, 45
1, 116801, Note_on_c, 0, 76, 53
1, 116856, Note_on_c, 0, 83, 0
1, 116856, Note_on_c, 0, 80, 0
1, 116856, Note_on_c, 0, 76, 0
1, 116859, Note_on_c, 0, 71, 0
1, 117028, Note_on_c, 0, 92, 0
1, 117028, Note_on_c, 0, 92, 66
1, 117028, Note_on_c, 0, 64, 0
1, 117031, Note_on_c, 0, 59, 49
1, 117233, Note_on_c, 0, 80, 48
1, 117233, Note_on_c, 0, 83, 50
1, 117233, Note_on_c, 0, 71, 44
1, 117236, Note_on_c, 0, 76, 52
1, 117288, Note_on_c, 0, 83, 0
1, 117288, Note_on_c, 0, 80, 0
1, 117288, Note_on_c, 0, 76, 0
1, 117291, Note_on_c, 0, 71, 0
1, 117452, Note_on_c, 0, 92, 0
1, 117452, Note_on_c, 0, 92, 69
1, 117452, Note_on_c, 0, 59, 0
1, 117455, Note_on_c, 0, 64, 49
1, 117505, Control_c, 0, 64, 127
1, 117661, Note_on_c, 0, 80, 54
1, 117661, Note_on_c, 0, 83, 54
1, 117661, Note_on_c, 0, 71, 50
1, 117664, Note_on_c, 0, 76, 59
1, 117714, Note_on_c, 0, 83, 0
1, 117714, Note_on_c, 0, 80, 0
1, 117714, Note_on_c, 0, 76, 0
1, 117717, Note_on_c, 0, 71, 0
1, 117870, Note_on_c, 0, 64, 0
1, 117870, Note_on_c, 0, 59, 49
1, 117884, Control_c, 0, 64, 0
1, 118064, Note_on_c, 0, 92, 0
1, 118064, Note_on_c, 0, 80, 51
1, 118064, Note_on_c, 0, 83, 51
1, 118067, Note_on_c, 0, 90, 63
1, 118067, Note_on_c, 0, 76, 58
1, 118067, Note_on_c, 0, 71, 49
1, 118104, Note_on_c, 0, 83, 0
1, 118104, Note_on_c, 0, 80, 0
1, 118104, Note_on_c, 0, 71, 0
1, 118107, Note_on_c, 0, 76, 0
1, 118144, Note_on_c, 0, 90, 0
1, 118144, Note_on_c, 0, 88, 63
1, 118223, Note_on_c, 0, 88, 0
1, 118223, Note_on_c, 0, 87, 71
1, 118223, Note_on_c, 0, 59, 0
1, 118226, Note_on_c, 0, 63, 49
1, 118276, Note_on_c, 0, 87, 0
1, 118435, Note_on_c, 0, 81, 51
1, 118435, Note_on_c, 0, 83, 54
1, 118435, Note_on_c, 0, 88, 66
1, 118438, Note_on_c, 0, 78, 59
1, 118438, Note_on_c, 0, 71, 50
1, 118484, Note_on_c, 0, 88, 0
1, 118484, Note_on_c, 0, 83, 0
1, 118484, Note_on_c, 0, 81, 0
1, 118487, Note_on_c, 0, 71, 0
1, 118487, Note_on_c, 0, 78, 0
1, 118629, Note_on_c, 0, 90, 72
1, 118629, Note_on_c, 0, 63, 0
1, 118629, Note_on_c, 0, 59, 49
1, 118662, Control_c, 0, 64, 127
1, 118829, Note_on_c, 0, 81, 51
1, 118829, Note_on_c, 0, 83, 54
1, 118829, Note_on_c, 0, 75, 58
1, 118832, Note_on_c, 0, 71, 49
1, 118879, Note_on_c, 0, 83, 0
1, 118879, Note_on_c, 0, 81, 0
1, 118879, Note_on_c, 0, 71, 0
1, 118882, Note_on_c, 0, 75, 0
1, 119032, Note_on_c, 0, 90, 0
1, 119032, Note_on_c, 0, 92, 69
1, 119032, Note_on_c, 0, 59, 0
1, 119035, Note_on_c, 0, 64, 49
1, 119062, Control_c, 0, 64, 0
1, 119102, Control_c, 0, 64, 127
1, 119241, Note_on_c, 0, 80, 54
1, 119241, Note_on_c, 0, 83, 54
1, 119241, Note_on_c, 0, 71, 50
1, 119244, Note_on_c, 0, 76, 59
1, 119293, Note_on_c, 0, 83, 0
1, 119293, Note_on_c, 0, 80, 0
1, 119293, Note_on_c, 0, 76, 0
1, 119296, Note_on_c, 0, 71, 0
1, 119450, Note_on_c, 0, 64, 0
1, 119450, Note_on_c, 0, 59, 49
1, 119464, Control_c, 0, 64, 0
1, 119645, Note_on_c, 0, 92, 0
1, 119645, Note_on_c, 0, 80, 51
1, 119645, Note_on_c, 0, 83, 51
1, 119648, Note_on_c, 0, 90, 63
1, 119648, Note_on_c, 0, 76, 58
1, 119648, Note_on_c, 0, 71, 49
1, 119685, Note_on_c, 0, 83, 0
1, 119685, Note_on_c, 0, 80, 0
1, 119685, Note_on_c, 0, 71, 0
1, 119688, Note_on_c, 0, 76, 0
1, 119724, Note_on_c, 0, 90, 0
1, 119724, Note_on_c, 0, 88, 63
1, 119803, Note_on_c, 0, 88, 0
1, 119803, Note_on_c, 0, 87, 71
1, 119803, Note_on_c, 0, 59, 0
1, 119806, Note_on_c, 0, 63, 49
1, 119854, Note_on_c, 0, 87, 0
1, 120007, Note_on_c, 0, 81, 51
1, 120007, Note_on_c, 0, 83, 54
1, 120007, Note_on_c, 0, 88, 66
1, 120010, Note_on_c, 0, 78, 59
1, 120010, Note_on_c, 0, 71, 50
1, 120055, Note_on_c, 0, 88, 0
1, 120055, Note_on_c, 0, 83, 0
1, 120055, Note_on_c, 0, 81, 0
1, 120058, Note_on_c, 0, 71, 0
1, 120058, Note_on_c, 0, 78, 0
1, 120201, Note_on_c, 0, 90, 72
1, 120201, Note_on_c, 0, 63, 0
1, 120201, Note_on_c, 0, 59, 49
1, 120233, Control_c, 0, 64, 127
1, 120400, Note_on_c, 0, 81, 51
1, 120400, Note_on_c, 0, 83, 54
1, 120400, Note_on_c, 0, 75, 58
1, 120403, Note_on_c, 0, 71, 49
1, 120451, Note_on_c, 0, 83, 0
1, 120451, Note_on_c, 0, 81, 0
1, 120451, Note_on_c, 0, 71, 0
1, 120454, Note_on_c, 0, 75, 0
1, 120603, Note_on_c, 0, 90, 0
1, 120603, Note_on_c, 0, 92, 69
1, 120603, Note_on_c, 0, 59, 0
1, 120606, Note_on_c, 0, 64, 49
1, 120634, Control_c, 0, 64, 0
1, 120674, Control_c, 0, 64, 127
1, 120812, Note_on_c, 0, 80, 54
1, 120812, Note_on_c, 0, 83, 54
1, 120812, Note_on_c, 0, 71, 50
1, 120815, Note_on_c, 0, 76, 59
1, 120865, Note_on_c, 0, 83, 0
1, 120865, Note_on_c, 0, 80, 0
1, 120865, Note_on_c, 0, 76, 0
1, 120868, Note_on_c, 0, 71, 0
1, 121021, Note_on_c, 0, 64, 0
1, 121021, Note_on_c, 0, 64, 49
1, 121035, Control_c, 0, 64, 0
1, 121220, Note_on_c, 0, 92, 0
1, 121220, Note_on_c, 0, 80, 51
1, 121220, Note_on_c, 0, 83, 51
1, 121223, Note_on_c, 0, 90, 63
1, 121223, Note_on_c, 0, 80, 58
1, 121223, Note_on_c, 0, 71, 49
1, 121262, Note_on_c, 0, 83, 0
1, 121262, Note_on_c, 0, 80, 0
1, 121262, Note_on_c, 0, 71, 0
1, 121265, Note_on_c, 0, 80, 0
1, 121304, Note_on_c, 0, 90, 0
1, 121304, Note_on_c, 0, 88, 63
1, 121388, Note_on_c, 0, 88, 0
1, 121388, Note_on_c, 0, 87, 71
1, 121388, Note_on_c, 0, 64, 0
1, 121391, Note_on_c, 0, 63, 49
1, 121403, Control_c, 0, 64, 0
1, 121420, Control_c, 0, 64, 127
1, 121473, Note_on_c, 0, 87, 0
1, 121473, Note_on_c, 0, 88, 66
1, 121557, Note_on_c, 0, 88, 0
1, 121557, Note_on_c, 0, 80, 54
1, 121557, Note_on_c, 0, 90, 66
1, 121560, Note_on_c, 0, 78, 59
1, 121560, Note_on_c, 0, 71, 50
1, 121601, Note_on_c, 0, 80, 0
1, 121601, Note_on_c, 0, 71, 0
1, 121601, Note_on_c, 0, 78, 0
1, 121644, Note_on_c, 0, 90, 0
1, 121644, Note_on_c, 0, 92, 66
1, 121731, Note_on_c, 0, 92, 0
1, 121731, Note_on_c, 0, 90, 72
1, 121731, Note_on_c, 0, 61, 49
1, 121758, Control_c, 0, 64, 0
1, 121781, Note_on_c, 0, 90, 0
1, 121930, Note_on_c, 0, 80, 54
1, 121930, Note_on_c, 0, 88, 70
1, 121930, Note_on_c, 0, 68, 49
1, 121933, Note_on_c, 0, 76, 58
1, 121933, Note_on_c, 0, 73, 49
1, 121976, Note_on_c, 0, 88, 0
1, 121976, Note_on_c, 0, 80, 0
1, 121976, Note_on_c, 0, 73, 0
1, 121979, Note_on_c, 0, 68, 0
1, 121979, Note_on_c, 0, 76, 0
1, 122109, Note_on_c, 0, 87, 74
1, 122109, Note_on_c, 0, 63, 0
1, 122109, Note_on_c, 0, 60, 49
1, 122155, Note_on_c, 0, 87, 0
1, 122293, Note_on_c, 0, 80, 51
1, 122293, Note_on_c, 0, 88, 77
1, 122293, Note_on_c, 0, 75, 59
1, 122296, Note_on_c, 0, 68, 50
1, 122342, Note_on_c, 0, 88, 0
1, 122342, Note_on_c, 0, 80, 0
1, 122342, Note_on_c, 0, 68, 0
1, 122345, Note_on_c, 0, 75, 0
1, 122491, Note_on_c, 0, 90, 78
1, 122491, Note_on_c, 0, 61, 0
1, 122491, Note_on_c, 0, 56, 49
1, 122508, Control_c, 0, 64, 127
1, 122693, Note_on_c, 0, 80, 51
1, 122693, Note_on_c, 0, 63, 49
1, 122693, Note_on_c, 0, 72, 58
1, 122739, Note_on_c, 0, 80, 0
1, 122739, Note_on_c, 0, 72, 0
1, 122739, Note_on_c, 0, 63, 0
1, 122786, Note_on_c, 0, 90, 0
1, 122786, Note_on_c, 0, 88, 73
1, 122879, Note_on_c, 0, 88, 0
1, 122879, Note_on_c, 0, 87, 71
1, 122879, Note_on_c, 0, 60, 0
1, 122882, Note_on_c, 0, 61, 49
1, 122894, Control_c, 0, 64, 0
1, 122911, Control_c, 0, 64, 127
1, 122964, Note_on_c, 0, 87, 0
1, 122964, Note_on_c, 0, 88, 66
1, 123048, Note_on_c, 0, 88, 0
1, 123048, Note_on_c, 0, 80, 51
1, 123048, Note_on_c, 0, 90, 66
1, 123051, Note_on_c, 0, 76, 59
1, 123051, Note_on_c, 0, 68, 50
1, 123091, Note_on_c, 0, 80, 0
1, 123091, Note_on_c, 0, 68, 0
1, 123091, Note_on_c, 0, 76, 0
1, 123133, Note_on_c, 0, 90, 0
1, 123133, Note_on_c, 0, 92, 66
1, 123217, Note_on_c, 0, 92, 0
1, 123217, Note_on_c, 0, 90, 72
1, 123217, Note_on_c, 0, 56, 0
1, 123220, Note_on_c, 0, 56, 49
1, 123249, Control_c, 0, 64, 0
1, 123265, Note_on_c, 0, 90, 0
1, 123410, Note_on_c, 0, 80, 51
1, 123410, Note_on_c, 0, 88, 70
1, 123410, Note_on_c, 0, 73, 58
1, 123413, Note_on_c, 0, 68, 49
1, 123413, Note_on_c, 0, 64, 49
1, 123458, Note_on_c, 0, 88, 0
1, 123458, Note_on_c, 0, 80, 0
1, 123458, Note_on_c, 0, 64, 0
1, 123461, Note_on_c, 0, 73, 0
1, 123461, Note_on_c, 0, 68, 0
1, 123603, Note_on_c, 0, 87, 74
1, 123603, Note_on_c, 0, 61, 0
1, 123603, Note_on_c, 0, 60, 49
1, 123652, Note_on_c, 0, 87, 0
1, 123800, Note_on_c, 0, 80, 51
1, 123800, Note_on_c, 0, 85, 69
1, 123800, Note_on_c, 0, 66, 50
1, 123803, Note_on_c, 0, 75, 59
1, 123803, Note_on_c, 0, 68, 50
1, 123849, Note_on_c, 0, 85, 0
1, 123849, Note_on_c, 0, 80, 0
1, 123849, Note_on_c, 0, 68, 0
1, 123852, Note_on_c, 0, 66, 0
1, 123852, Note_on_c, 0, 75, 0
1, 123996, Note_on_c, 0, 84, 69
1, 123996, Note_on_c, 0, 60, 0
1, 123996, Note_on_c, 0, 56, 0
1, 123999, Note_on_c, 0, 56, 49
1, 124022, Control_c, 0, 64, 127
1, 124193, Note_on_c, 0, 80, 51
1, 124193, Note_on_c, 0, 66, 49
1, 124193, Note_on_c, 0, 63, 49
1, 124196, Note_on_c, 0, 72, 58
1, 124245, Note_on_c, 0, 80, 0
1, 124245, Note_on_c, 0, 72, 0
1, 124245, Note_on_c, 0, 63, 0
1, 124248, Note_on_c, 0, 66, 0
1, 124400, Note_on_c, 0, 84, 0
1, 124400, Note_on_c, 0, 87, 71
1, 124400, Note_on_c, 0, 56, 0
1, 124403, Note_on_c, 0, 61, 49
1, 124403, Control_c, 0, 64, 0
1, 124437, Control_c, 0, 64, 127
1, 124484, Note_on_c, 0, 87, 0
1, 124484, Note_on_c, 0, 88, 66
1, 124567, Note_on_c, 0, 88, 0
1, 124567, Note_on_c, 0, 80, 51
1, 124567, Note_on_c, 0, 90, 66
1, 124570, Note_on_c, 0, 76, 59
1, 124570, Note_on_c, 0, 68, 50
1, 124609, Note_on_c, 0, 80, 0
1, 124609, Note_on_c, 0, 68, 0
1, 124609, Note_on_c, 0, 76, 0
1, 124651, Note_on_c, 0, 90, 0
1, 124651, Note_on_c, 0, 92, 66
1, 124734, Note_on_c, 0, 92, 0
1, 124734, Note_on_c, 0, 90, 72
1, 124734, Note_on_c, 0, 61, 0
1, 124737, Note_on_c, 0, 64, 49
1, 124778, Control_c, 0, 64, 0
1, 124784, Note_on_c, 0, 90, 0
1, 124934, Note_on_c, 0, 80, 51
1, 124934, Note_on_c, 0, 88, 70
1, 124934, Note_on_c, 0, 64, 49
1, 124937, Note_on_c, 0, 73, 58
1, 124979, Note_on_c, 0, 88, 0
1, 124979, Note_on_c, 0, 80, 0
1, 124979, Note_on_c, 0, 73, 0
1, 124982, Note_on_c, 0, 64, 0
1, 125116, Note_on_c, 0, 87, 74
1, 125116, Note_on_c, 0, 64, 0
1, 125116, Note_on_c, 0, 66, 49
1, 125168, Note_on_c, 0, 87, 0
1, 125323, Note_on_c, 0, 81, 51
1, 125323, Note_on_c, 0, 85, 51
1, 125323, Note_on_c, 0, 88, 77
1, 125326, Note_on_c, 0, 73, 50
1, 125326, Note_on_c, 0, 75, 59
1, 125326, Note_on_c, 0, 69, 50
1, 125375, Note_on_c, 0, 88, 0
1, 125375, Note_on_c, 0, 85, 0
1, 125375, Note_on_c, 0, 81, 0
1, 125378, Note_on_c, 0, 69, 0
1, 125378, Note_on_c, 0, 75, 0
1, 125378, Note_on_c, 0, 73, 0
1, 125531, Note_on_c, 0, 90, 81
1, 125531, Note_on_c, 0, 66, 0
1, 125531, Note_on_c, 0, 63, 49
1, 125539, Control_c, 0, 64, 127
1, 125734, Note_on_c, 0, 81, 51
1, 125734, Note_on_c, 0, 85, 51
1, 125734, Note_on_c, 0, 69, 49
1, 125737, Note_on_c, 0, 78, 58
1, 125737, Note_on_c, 0, 73, 49
1, 125785, Note_on_c, 0, 85, 0
1, 125785, Note_on_c, 0, 81, 0
1, 125785, Note_on_c, 0, 78, 0
1, 125788, Note_on_c, 0, 69, 0
1, 125788, Note_on_c, 0, 73, 0
1, 125937, Note_on_c, 0, 90, 0
1, 125937, Note_on_c, 0, 88, 71
1, 125937, Note_on_c, 0, 63, 0
1, 125940, Note_on_c, 0, 67, 49
1, 125940, Control_c, 0, 64, 0
1, 125971, Control_c, 0, 64, 127
1, 126025, Note_on_c, 0, 88, 0
1, 126025, Note_on_c, 0, 87, 63
1, 126113, Note_on_c, 0, 87, 0
1, 126113, Note_on_c, 0, 79, 51
1, 126113, Note_on_c, 0, 82, 51
1, 126116, Note_on_c, 0, 85, 63
1, 126116, Note_on_c, 0, 76, 59
1, 126116, Note_on_c, 0, 73, 50
1, 126119, Note_on_c, 0, 70, 50
1, 126157, Note_on_c, 0, 82, 0
1, 126157, Note_on_c, 0, 79, 0
1, 126157, Note_on_c, 0, 70, 0
1, 126160, Note_on_c, 0, 73, 0
1, 126160, Note_on_c, 0, 76, 0
1, 126201, Note_on_c, 0, 85, 0
1, 126201, Note_on_c, 0, 88, 63
1, 126314, Note_on_c, 0, 88, 0
1, 126314, Note_on_c, 0, 87, 72
1, 126314, Note_on_c, 0, 67, 0
1, 126317, Note_on_c, 0, 68, 49
1, 126327, Control_c, 0, 64, 0
1, 126356, Control_c, 0, 64, 127
1, 126404, Note_on_c, 0, 87, 0
1, 126404, Note_on_c, 0, 85, 64
1, 126494, Note_on_c, 0, 85, 0
1, 126494, Note_on_c, 0, 80, 51
1, 126494, Note_on_c, 0, 84, 64
1, 126497, Note_on_c, 0, 75, 49
1, 126497, Note_on_c, 0, 72, 49
1, 126497, Note_on_c, 0, 78, 58
1, 126539, Note_on_c, 0, 80, 0
1, 126539, Note_on_c, 0, 78, 0
1, 126539, Note_on_c, 0, 72, 0
1, 126542, Note_on_c, 0, 75, 0
1, 126584, Note_on_c, 0, 84, 0
1, 126584, Note_on_c, 0, 87, 63
1, 126690, Note_on_c, 0, 87, 0
1, 126690, Note_on_c, 0, 85, 65
1, 126690, Note_on_c, 0, 68, 0
1, 126693, Note_on_c, 0, 61, 49
1, 126718, Control_c, 0, 64, 0
1, 126784, Note_on_c, 0, 85, 0
1, 126784, Note_on_c, 0, 80, 56
1, 126790, Control_c, 0, 64, 127
1, 126877, Note_on_c, 0, 80, 0
1, 126877, Note_on_c, 0, 92, 64
1, 126877, Note_on_c, 0, 68, 50
1, 126880, Note_on_c, 0, 73, 50
1, 126880, Note_on_c, 0, 76, 59
1, 126923, Note_on_c, 0, 76, 0
1, 126923, Note_on_c, 0, 73, 0
1, 126923, Note_on_c, 0, 68, 0
1, 126969, Note_on_c, 0, 92, 0
1, 126969, Note_on_c, 0, 80, 57
1, 127059, Note_on_c, 0, 80, 0
1, 127059, Note_on_c, 0, 85, 71
1, 127059, Note_on_c, 0, 61, 0
1, 127149, Note_on_c, 0, 85, 0
1, 127149, Note_on_c, 0, 80, 63
1, 127237, Note_on_c, 0, 80, 0
1, 127237, Note_on_c, 0, 92, 71
1, 127324, Note_on_c, 0, 92, 0
1, 127324, Note_on_c, 0, 80, 63
1, 127409, Note_on_c, 0, 80, 0
1, 127409, Note_on_c, 0, 85, 72
1, 127489, Note_on_c, 0, 85, 0
1, 127489, Note_on_c, 0, 80, 62
1, 127569, Note_on_c, 0, 80, 0
1, 127569, Note_on_c, 0, 92, 71
1, 127649, Note_on_c, 0, 92, 0
1, 127649, Note_on_c, 0, 80, 63
1, 127728, Note_on_c, 0, 80, 0
1, 127728, Note_on_c, 0, 85, 74
1, 127806, Note_on_c, 0, 85, 0
1, 127806, Note_on_c, 0, 80, 64
1, 127885, Note_on_c, 0, 80, 0
1, 127885, Note_on_c, 0, 92, 72
1, 127964, Note_on_c, 0, 92, 0
1, 127964, Note_on_c, 0, 80, 66
1, 128042, Note_on_c, 0, 80, 0
1, 128042, Note_on_c, 0, 85, 78
1, 128122, Note_on_c, 0, 85, 0
1, 128122, Note_on_c, 0, 80, 66
1, 128201, Note_on_c, 0, 80, 0
1, 128201, Note_on_c, 0, 92, 73
1, 128280, Note_on_c, 0, 92, 0
1, 128280, Note_on_c, 0, 80, 62
1, 128359, Note_on_c, 0, 80, 0
1, 128359, Note_on_c, 0, 85, 71
1, 128439, Note_on_c, 0, 85, 0
1, 128439, Note_on_c, 0, 80, 60
1, 128519, Note_on_c, 0, 80, 0
1, 128519, Note_on_c, 0, 92, 65
1, 128599, Note_on_c, 0, 92, 0
1, 128599, Note_on_c, 0, 80, 58
1, 128679, Note_on_c, 0, 80, 0
1, 128679, Note_on_c, 0, 85, 67
1, 128760, Note_on_c, 0, 85, 0
1, 128760, Note_on_c, 0, 80, 57
1, 128842, Note_on_c, 0, 80, 0
1, 128842, Note_on_c, 0, 92, 63
1, 128925, Note_on_c, 0, 92, 0
1, 128925, Note_on_c, 0, 80, 53
1, 129009, Note_on_c, 0, 80, 0
1, 129009, Note_on_c, 0, 85, 61
1, 129094, Note_on_c, 0, 85, 0
1, 129094, Note_on_c, 0, 80, 51
1, 129180, Note_on_c, 0, 80, 0
1, 129180, Note_on_c, 0, 92, 56
1, 129267, Note_on_c, 0, 92, 0
1, 129267, Note_on_c, 0, 80, 45
1, 129356, Note_on_c, 0, 80, 0
1, 129356, Note_on_c, 0, 92, 70
1, 129356, Note_on_c, 0, 64, 39
1, 129359, Control_c, 0, 64, 0
1, 129441, Note_on_c, 0, 83, 54
1, 129441, Note_on_c, 0, 71, 40
1, 129483, Note_on_c, 0, 83, 0
1, 129483, Note_on_c, 0, 71, 0
1, 129526, Note_on_c, 0, 92, 0
1, 129526, Note_on_c, 0, 95, 54
1, 129526, Note_on_c, 0, 64, 0
1, 129529, Note_on_c, 0, 68, 47
1, 129566, Note_on_c, 0, 95, 0
1, 129566, Note_on_c, 0, 68, 0
1, 129606, Note_on_c, 0, 83, 54
1, 129606, Note_on_c, 0, 71, 47
1, 129646, Note_on_c, 0, 83, 0
1, 129646, Note_on_c, 0, 71, 0
1, 129686, Note_on_c, 0, 92, 66
1, 129686, Note_on_c, 0, 59, 39
1, 129770, Note_on_c, 0, 83, 54
1, 129770, Note_on_c, 0, 71, 39
1, 129812, Note_on_c, 0, 83, 0
1, 129812, Note_on_c, 0, 71, 0
1, 129853, Note_on_c, 0, 92, 0
1, 129853, Note_on_c, 0, 95, 54
1, 129853, Note_on_c, 0, 59, 0
1, 129856, Note_on_c, 0, 68, 46
1, 129893, Note_on_c, 0, 95, 0
1, 129893, Note_on_c, 0, 68, 0
1, 129934, Note_on_c, 0, 83, 51
1, 129934, Note_on_c, 0, 71, 39
1, 129974, Note_on_c, 0, 83, 0
1, 129974, Note_on_c, 0, 71, 0
1, 130014, Note_on_c, 0, 92, 69
1, 130014, Note_on_c, 0, 64, 39
1, 130056, Control_c, 0, 64, 127
1, 130098, Note_on_c, 0, 83, 54
1, 130098, Note_on_c, 0, 71, 40
1, 130139, Note_on_c, 0, 83, 0
1, 130139, Note_on_c, 0, 71, 0
1, 130181, Note_on_c, 0, 95, 54
1, 130181, Note_on_c, 0, 64, 0
1, 130181, Note_on_c, 0, 68, 47
1, 130221, Note_on_c, 0, 95, 0
1, 130221, Note_on_c, 0, 68, 0
1, 130261, Note_on_c, 0, 83, 54
1, 130261, Note_on_c, 0, 71, 47
1, 130300, Note_on_c, 0, 83, 0
1, 130300, Note_on_c, 0, 71, 0
1, 130340, Note_on_c, 0, 90, 63
1, 130340, Note_on_c, 0, 59, 39
1, 130352, Control_c, 0, 64, 0
1, 130382, Note_on_c, 0, 90, 0
1, 130423, Note_on_c, 0, 83, 51
1, 130423, Note_on_c, 0, 71, 39
1, 130465, Note_on_c, 0, 83, 0
1, 130465, Note_on_c, 0, 71, 0
1, 130506, Note_on_c, 0, 92, 0
1, 130506, Note_on_c, 0, 88, 63
1, 130506, Note_on_c, 0, 59, 0
1, 130509, Note_on_c, 0, 68, 46
1, 130546, Note_on_c, 0, 88, 0
1, 130546, Note_on_c, 0, 68, 0
1, 130586, Note_on_c, 0, 83, 51
1, 130586, Note_on_c, 0, 71, 39
1, 130626, Note_on_c, 0, 83, 0
1, 130626, Note_on_c, 0, 71, 0
1, 130666, Note_on_c, 0, 87, 71
1, 130666, Note_on_c, 0, 66, 39
1, 130707, Note_on_c, 0, 87, 0
1, 130749, Note_on_c, 0, 83, 51
1, 130749, Note_on_c, 0, 71, 40
1, 130790, Note_on_c, 0, 83, 0
1, 130790, Note_on_c, 0, 71, 0
1, 130831, Note_on_c, 0, 95, 54
1, 130831, Note_on_c, 0, 88, 66
1, 130831, Note_on_c, 0, 66, 0
1, 130834, Note_on_c, 0, 69, 47
1, 130874, Note_on_c, 0, 88, 0
1, 130874, Note_on_c, 0, 95, 0
1, 130874, Note_on_c, 0, 69, 0
1, 130917, Note_on_c, 0, 83, 51
1, 130917, Note_on_c, 0, 71, 47
1, 130962, Note_on_c, 0, 83, 0
1, 130962, Note_on_c, 0, 71, 0
1, 131010, Note_on_c, 0, 90, 72
1, 131010, Note_on_c, 0, 59, 39
1, 131036, Control_c, 0, 64, 127
1, 131089, Note_on_c, 0, 83, 51
1, 131089, Note_on_c, 0, 71, 39
1, 131129, Note_on_c, 0, 83, 0
1, 131129, Note_on_c, 0, 71, 0
1, 131168, Note_on_c, 0, 95, 54
1, 131168, Note_on_c, 0, 59, 0
1, 131168, Note_on_c, 0, 69, 46
1, 131209, Note_on_c, 0, 95, 0
1, 131209, Note_on_c, 0, 69, 0
1, 131250, Note_on_c, 0, 83, 51
1, 131250, Note_on_c, 0, 71, 39
1, 131291, Note_on_c, 0, 83, 0
1, 131291, Note_on_c, 0, 71, 0
1, 131332, Note_on_c, 0, 90, 0
1, 131332, Note_on_c, 0, 92, 69
1, 131332, Note_on_c, 0, 64, 39
1, 131356, Control_c, 0, 64, 0
1, 131388, Control_c, 0, 64, 127
1, 131415, Note_on_c, 0, 83, 54
1, 131415, Note_on_c, 0, 71, 40
1, 131457, Note_on_c, 0, 83, 0
1, 131457, Note_on_c, 0, 71, 0
1, 131499, Note_on_c, 0, 95, 54
1, 131499, Note_on_c, 0, 64, 0
1, 131499, Note_on_c, 0, 68, 47
1, 131540, Note_on_c, 0, 95, 0
1, 131540, Note_on_c, 0, 68, 0
1, 131586, Note_on_c, 0, 83, 54
1, 131586, Note_on_c, 0, 71, 47
1, 131627, Note_on_c, 0, 83, 0
1, 131627, Note_on_c, 0, 71, 0
1, 131667, Note_on_c, 0, 90, 63
1, 131667, Note_on_c, 0, 59, 39
1, 131679, Control_c, 0, 64, 0
1, 131707, Note_on_c, 0, 90, 0
1, 131747, Note_on_c, 0, 83, 51
1, 131747, Note_on_c, 0, 71, 39
1, 131787, Note_on_c, 0, 83, 0
1, 131787, Note_on_c, 0, 71, 0
1, 131827, Note_on_c, 0, 92, 0
1, 131827, Note_on_c, 0, 95, 54
1, 131827, Note_on_c, 0, 88, 63
1, 131830, Note_on_c, 0, 59, 0
1, 131830, Note_on_c, 0, 68, 46
1, 131868, Note_on_c, 0, 88, 0
1, 131868, Note_on_c, 0, 95, 0
1, 131868, Note_on_c, 0, 68, 0
1, 131909, Note_on_c, 0, 83, 51
1, 131909, Note_on_c, 0, 71, 39
1, 131950, Note_on_c, 0, 83, 0
1, 131950, Note_on_c, 0, 71, 0
1, 131991, Note_on_c, 0, 87, 71
1, 131991, Note_on_c, 0, 66, 39
1, 132033, Note_on_c, 0, 87, 0
1, 132075, Note_on_c, 0, 83, 51
1, 132075, Note_on_c, 0, 71, 40
1, 132117, Note_on_c, 0, 83, 0
1, 132117, Note_on_c, 0, 71, 0
1, 132160, Note_on_c, 0, 95, 54
1, 132160, Note_on_c, 0, 88, 66
1, 132160, Note_on_c, 0, 66, 0
1, 132163, Note_on_c, 0, 69, 47
1, 132204, Note_on_c, 0, 88, 0
1, 132204, Note_on_c, 0, 95, 0
1, 132204, Note_on_c, 0, 69, 0
1, 132248, Note_on_c, 0, 83, 54
1, 132248, Note_on_c, 0, 71, 47
1, 132288, Note_on_c, 0, 83, 0
1, 132288, Note_on_c, 0, 71, 0
1, 132329, Note_on_c, 0, 90, 72
1, 132329, Note_on_c, 0, 59, 39
1, 132356, Control_c, 0, 64, 127
1, 132413, Note_on_c, 0, 83, 51
1, 132413, Note_on_c, 0, 71, 39
1, 132455, Note_on_c, 0, 83, 0
1, 132455, Note_on_c, 0, 71, 0
1, 132497, Note_on_c, 0, 95, 54
1, 132497, Note_on_c, 0, 59, 0
1, 132497, Note_on_c, 0, 69, 46
1, 132538, Note_on_c, 0, 95, 0
1, 132538, Note_on_c, 0, 69, 0
1, 132578, Note_on_c, 0, 83, 51
1, 132578, Note_on_c, 0, 71, 39
1, 132619, Note_on_c, 0, 83, 0
1, 132619, Note_on_c, 0, 71, 0
1, 132660, Note_on_c, 0, 90, 0
1, 132660, Note_on_c, 0, 92, 69
1, 132660, Note_on_c, 0, 64, 39
1, 132683, Control_c, 0, 64, 0
1, 132714, Control_c, 0, 64, 127
1, 132740, Note_on_c, 0, 83, 54
1, 132740, Note_on_c, 0, 71, 40
1, 132780, Note_on_c, 0, 83, 0
1, 132780, Note_on_c, 0, 71, 0
1, 132820, Note_on_c, 0, 95, 54
1, 132820, Note_on_c, 0, 64, 0
1, 132820, Note_on_c, 0, 68, 47
1, 132859, Note_on_c, 0, 95, 0
1, 132859, Note_on_c, 0, 68, 0
1, 132898, Note_on_c, 0, 83, 54
1, 132898, Note_on_c, 0, 71, 47
1, 132937, Note_on_c, 0, 83, 0
1, 132937, Note_on_c, 0, 71, 0
1, 132976, Note_on_c, 0, 90, 63
1, 132976, Note_on_c, 0, 64, 39
1, 132987, Control_c, 0, 64, 0
1, 133016, Note_on_c, 0, 90, 0
1, 133057, Note_on_c, 0, 83, 51
1, 133057, Note_on_c, 0, 71, 39
1, 133097, Note_on_c, 0, 83, 0
1, 133097, Note_on_c, 0, 71, 0
1, 133137, Note_on_c, 0, 92, 0
1, 133137, Note_on_c, 0, 88, 63
1, 133137, Note_on_c, 0, 95, 51
1, 133140, Note_on_c, 0, 64, 0
1, 133140, Note_on_c, 0, 68, 46
1, 133180, Note_on_c, 0, 95, 0
1, 133180, Note_on_c, 0, 88, 0
1, 133180, Note_on_c, 0, 68, 0
1, 133222, Note_on_c, 0, 83, 51
1, 133222, Note_on_c, 0, 71, 39
1, 133265, Note_on_c, 0, 83, 0
1, 133265, Note_on_c, 0, 71, 0
1, 133307, Note_on_c, 0, 87, 71
1, 133307, Note_on_c, 0, 63, 39
1, 133321, Control_c, 0, 64, 0
1, 133339, Control_c, 0, 64, 127
1, 133393, Note_on_c, 0, 87, 0
1, 133393, Note_on_c, 0, 88, 66
1, 133393, Note_on_c, 0, 71, 40
1, 133435, Note_on_c, 0, 71, 0
1, 133480, Note_on_c, 0, 88, 0
1, 133480, Note_on_c, 0, 90, 66
1, 133480, Note_on_c, 0, 63, 0
1, 133483, Note_on_c, 0, 66, 47
1, 133518, Note_on_c, 0, 66, 0
1, 133555, Note_on_c, 0, 90, 0
1, 133555, Note_on_c, 0, 92, 66
1, 133555, Note_on_c, 0, 71, 47
1, 133593, Note_on_c, 0, 71, 0
1, 133631, Note_on_c, 0, 92, 0
1, 133631, Note_on_c, 0, 90, 72
1, 133631, Note_on_c, 0, 61, 39
1, 133653, Control_c, 0, 64, 0
1, 133672, Note_on_c, 0, 90, 0
1, 133713, Note_on_c, 0, 83, 54
1, 133713, Note_on_c, 0, 68, 39
1, 133754, Note_on_c, 0, 83, 0
1, 133754, Note_on_c, 0, 68, 0
1, 133795, Note_on_c, 0, 92, 51
1, 133795, Note_on_c, 0, 88, 70
1, 133795, Note_on_c, 0, 61, 0
1, 133798, Note_on_c, 0, 64, 46
1, 133838, Note_on_c, 0, 88, 0
1, 133838, Note_on_c, 0, 92, 0
1, 133838, Note_on_c, 0, 64, 0
1, 133882, Note_on_c, 0, 83, 54
1, 133882, Note_on_c, 0, 68, 39
1, 133926, Note_on_c, 0, 83, 0
1, 133926, Note_on_c, 0, 68, 0
1, 133970, Note_on_c, 0, 87, 74
1, 133970, Note_on_c, 0, 60, 39
1, 134010, Note_on_c, 0, 87, 0
1, 134051, Note_on_c, 0, 80, 54
1, 134051, Note_on_c, 0, 68, 40
1, 134092, Note_on_c, 0, 80, 0
1, 134092, Note_on_c, 0, 68, 0
1, 134133, Note_on_c, 0, 92, 51
1, 134133, Note_on_c, 0, 88, 77
1, 134133, Note_on_c, 0, 60, 0
1, 134136, Note_on_c, 0, 63, 47
1, 134175, Note_on_c, 0, 88, 0
1, 134175, Note_on_c, 0, 92, 0
1, 134175, Note_on_c, 0, 63, 0
1, 134217, Note_on_c, 0, 80, 54
1, 134217, Note_on_c, 0, 68, 47
1, 134260, Note_on_c, 0, 80, 0
1, 134260, Note_on_c, 0, 68, 0
1, 134302, Note_on_c, 0, 90, 78
1, 134302, Note_on_c, 0, 56, 39
1, 134317, Control_c, 0, 64, 127
1, 134345, Note_on_c, 0, 90, 0
1, 134387, Note_on_c, 0, 80, 54
1, 134387, Note_on_c, 0, 68, 39
1, 134430, Note_on_c, 0, 80, 0
1, 134430, Note_on_c, 0, 68, 0
1, 134473, Note_on_c, 0, 92, 51
1, 134473, Note_on_c, 0, 88, 73
1, 134473, Note_on_c, 0, 56, 0
1, 134476, Note_on_c, 0, 63, 46
1, 134517, Note_on_c, 0, 88, 0
1, 134517, Note_on_c, 0, 92, 0
1, 134517, Note_on_c, 0, 63, 0
1, 134561, Note_on_c, 0, 80, 51
1, 134561, Note_on_c, 0, 68, 39
1, 134605, Note_on_c, 0, 80, 0
1, 134605, Note_on_c, 0, 68, 0
1, 134650, Note_on_c, 0, 87, 71
1, 134650, Note_on_c, 0, 61, 39
1, 134662, Control_c, 0, 64, 0
1, 134678, Control_c, 0, 64, 127
1, 134727, Note_on_c, 0, 87, 0
1, 134727, Note_on_c, 0, 88, 66
1, 134727, Note_on_c, 0, 68, 40
1, 134765, Note_on_c, 0, 68, 0
1, 134804, Note_on_c, 0, 88, 0
1, 134804, Note_on_c, 0, 90, 66
1, 134804, Note_on_c, 0, 61, 0
1, 134807, Note_on_c, 0, 64, 47
1, 134842, Note_on_c, 0, 64, 0
1, 134881, Note_on_c, 0, 90, 0
1, 134881, Note_on_c, 0, 92, 66
1, 134881, Note_on_c, 0, 68, 47
1, 134919, Note_on_c, 0, 68, 0
1, 134958, Note_on_c, 0, 92, 0
1, 134958, Note_on_c, 0, 90, 72
1, 134958, Note_on_c, 0, 56, 39
1, 134987, Control_c, 0, 64, 0
1, 135002, Note_on_c, 0, 90, 0
1, 135045, Note_on_c, 0, 80, 51
1, 135045, Note_on_c, 0, 68, 39
1, 135089, Note_on_c, 0, 80, 0
1, 135089, Note_on_c, 0, 68, 0
1, 135133, Note_on_c, 0, 92, 51
1, 135133, Note_on_c, 0, 88, 70
1, 135133, Note_on_c, 0, 56, 0
1, 135136, Note_on_c, 0, 64, 46
1, 135173, Note_on_c, 0, 88, 0
1, 135173, Note_on_c, 0, 92, 0
1, 135173, Note_on_c, 0, 64, 0
1, 135214, Note_on_c, 0, 80, 51
1, 135214, Note_on_c, 0, 68, 39
1, 135256, Note_on_c, 0, 80, 0
1, 135256, Note_on_c, 0, 68, 0
1, 135297, Note_on_c, 0, 87, 74
1, 135297, Note_on_c, 0, 60, 39
1, 135340, Note_on_c, 0, 87, 0
1, 135383, Note_on_c, 0, 80, 51
1, 135383, Note_on_c, 0, 68, 40
1, 135426, Note_on_c, 0, 80, 0
1, 135426, Note_on_c, 0, 68, 0
1, 135468, Note_on_c, 0, 92, 51
1, 135468, Note_on_c, 0, 85, 69
1, 135468, Note_on_c, 0, 60, 0
1, 135471, Note_on_c, 0, 63, 47
1, 135512, Note_on_c, 0, 85, 0
1, 135512, Note_on_c, 0, 92, 0
1, 135512, Note_on_c, 0, 63, 0
1, 135557, Note_on_c, 0, 80, 51
1, 135557, Note_on_c, 0, 68, 47
1, 135601, Note_on_c, 0, 80, 0
1, 135601, Note_on_c, 0, 68, 0
1, 135645, Note_on_c, 0, 84, 69
1, 135645, Note_on_c, 0, 56, 39
1, 135669, Control_c, 0, 64, 127
1, 135734, Note_on_c, 0, 80, 51
1, 135734, Note_on_c, 0, 68, 39
1, 135778, Note_on_c, 0, 80, 0
1, 135778, Note_on_c, 0, 68, 0
1, 135822, Note_on_c, 0, 92, 51
1, 135822, Note_on_c, 0, 56, 0
1, 135822, Note_on_c, 0, 63, 46
1, 135864, Note_on_c, 0, 92, 0
1, 135864, Note_on_c, 0, 63, 0
1, 135906, Note_on_c, 0, 80, 51
1, 135906, Note_on_c, 0, 68, 39
1, 135949, Note_on_c, 0, 80, 0
1, 135949, Note_on_c, 0, 68, 0
1, 135991, Note_on_c, 0, 84, 0
1, 135991, Note_on_c, 0, 87, 71
1, 135991, Note_on_c, 0, 61, 39
1, 135994, Control_c, 0, 64, 0
1, 136026, Control_c, 0, 64, 127
1, 136070, Note_on_c, 0, 87, 0
1, 136070, Note_on_c, 0, 88, 66
1, 136070, Note_on_c, 0, 68, 40
1, 136110, Note_on_c, 0, 68, 0
1, 136149, Note_on_c, 0, 88, 0
1, 136149, Note_on_c, 0, 90, 66
1, 136149, Note_on_c, 0, 61, 0
1, 136152, Note_on_c, 0, 64, 47
1, 136189, Note_on_c, 0, 64, 0
1, 136228, Note_on_c, 0, 90, 0
1, 136228, Note_on_c, 0, 92, 66
1, 136228, Note_on_c, 0, 68, 47
1, 136268, Note_on_c, 0, 68, 0
1, 136307, Note_on_c, 0, 92, 0
1, 136307, Note_on_c, 0, 90, 72
1, 136307, Note_on_c, 0, 56, 39
1, 136346, Control_c, 0, 64, 0
1, 136351, Note_on_c, 0, 90, 0
1, 136395, Note_on_c, 0, 80, 51
1, 136395, Note_on_c, 0, 68, 39
1, 136438, Note_on_c, 0, 80, 0
1, 136438, Note_on_c, 0, 68, 0
1, 136482, Note_on_c, 0, 92, 51
1, 136482, Note_on_c, 0, 88, 70
1, 136482, Note_on_c, 0, 56, 0
1, 136485, Note_on_c, 0, 64, 46
1, 136524, Note_on_c, 0, 88, 0
1, 136524, Note_on_c, 0, 92, 0
1, 136524, Note_on_c, 0, 64, 0
1, 136566, Note_on_c, 0, 80, 51
1, 136566, Note_on_c, 0, 68, 39
1, 136608, Note_on_c, 0, 80, 0
1, 136608, Note_on_c, 0, 68, 0
1, 136650, Note_on_c, 0, 87, 74
1, 136650, Note_on_c, 0, 60, 39
1, 136695, Note_on_c, 0, 87, 0
1, 136740, Note_on_c, 0, 80, 51
1, 136740, Note_on_c, 0, 68, 40
1, 136784, Note_on_c, 0, 80, 0
1, 136784, Note_on_c, 0, 68, 0
1, 136829, Note_on_c, 0, 92, 51
1, 136829, Note_on_c, 0, 85, 69
1, 136829, Note_on_c, 0, 60, 0
1, 136832, Note_on_c, 0, 63, 47
1, 136874, Note_on_c, 0, 85, 0
1, 136874, Note_on_c, 0, 92, 0
1, 136874, Note_on_c, 0, 63, 0
1, 136919, Note_on_c, 0, 80, 51
1, 136919, Note_on_c, 0, 68, 47
1, 136963, Note_on_c, 0, 80, 0
1, 136963, Note_on_c, 0, 68, 0
1, 137008, Note_on_c, 0, 84, 69
1, 137008, Note_on_c, 0, 56, 39
1, 137016, Control_c, 0, 64, 127
1, 137099, Note_on_c, 0, 80, 51
1, 137099, Note_on_c, 0, 68, 39
1, 137145, Note_on_c, 0, 80, 0
1, 137145, Note_on_c, 0, 68, 0
1, 137190, Note_on_c, 0, 92, 51
1, 137190, Note_on_c, 0, 56, 0
1, 137190, Note_on_c, 0, 63, 46
1, 137239, Note_on_c, 0, 92, 0
1, 137239, Note_on_c, 0, 63, 0
1, 137287, Note_on_c, 0, 80, 51
1, 137287, Note_on_c, 0, 68, 39
1, 137336, Note_on_c, 0, 80, 0
1, 137336, Note_on_c, 0, 68, 0
1, 137384, Note_on_c, 0, 84, 0
1, 137384, Note_on_c, 0, 88, 71
1, 137384, Note_on_c, 0, 61, 39
1, 137387, Control_c, 0, 64, 0
1, 137417, Control_c, 0, 64, 127
1, 137469, Note_on_c, 0, 88, 0
1, 137469, Note_on_c, 0, 87, 63
1, 137469, Note_on_c, 0, 68, 40
1, 137512, Note_on_c, 0, 68, 0
1, 137554, Note_on_c, 0, 87, 0
1, 137554, Note_on_c, 0, 80, 51
1, 137554, Note_on_c, 0, 92, 51
1, 137557, Note_on_c, 0, 85, 63
1, 137557, Note_on_c, 0, 61, 0
1, 137557, Note_on_c, 0, 64, 47
1, 137597, Note_on_c, 0, 92, 0
1, 137597, Note_on_c, 0, 80, 0
1, 137597, Note_on_c, 0, 64, 0
1, 137639, Note_on_c, 0, 85, 0
1, 137639, Note_on_c, 0, 88, 63
1, 137639, Note_on_c, 0, 68, 47
1, 137687, Note_on_c, 0, 68, 0
1, 137735, Note_on_c, 0, 88, 0
1, 137735, Note_on_c, 0, 87, 72
1, 137735, Note_on_c, 0, 56, 39
1, 137747, Control_c, 0, 64, 0
1, 137775, Control_c, 0, 64, 127
1, 137820, Note_on_c, 0, 87, 0
1, 137820, Note_on_c, 0, 85, 64
1, 137820, Note_on_c, 0, 68, 39
1, 137863, Note_on_c, 0, 68, 0
1, 137906, Note_on_c, 0, 85, 0
1, 137906, Note_on_c, 0, 92, 51
1, 137906, Note_on_c, 0, 84, 64
1, 137909, Note_on_c, 0, 80, 51
1, 137909, Note_on_c, 0, 56, 0
1, 137909, Note_on_c, 0, 63, 36
1, 137912, Note_on_c, 0, 66, 46
1, 137949, Note_on_c, 0, 80, 0
1, 137949, Note_on_c, 0, 92, 0
1, 137949, Note_on_c, 0, 66, 0
1, 137952, Note_on_c, 0, 63, 0
1, 137991, Note_on_c, 0, 84, 0
1, 137991, Note_on_c, 0, 87, 63
1, 137991, Note_on_c, 0, 68, 39
1, 138039, Note_on_c, 0, 68, 0
1, 138084, Note_on_c, 0, 87, 0
1, 138084, Note_on_c, 0, 85, 65
1, 138084, Note_on_c, 0, 61, 46
1, 138108, Control_c, 0, 64, 0
1, 138108, Control_c, 0, 64, 0
1, 138166, Note_on_c, 0, 85, 0
1, 138166, Note_on_c, 0, 80, 56
1, 138166, Note_on_c, 0, 77, 37
1, 138171, Control_c, 0, 64, 127
1, 138171, Control_c, 0, 64, 127
1, 138248, Note_on_c, 0, 80, 0
1, 138248, Note_on_c, 0, 92, 64
1, 138248, Note_on_c, 0, 77, 0
1, 138251, Note_on_c, 0, 61, 0
1, 138251, Note_on_c, 0, 68, 48
1, 138329, Note_on_c, 0, 92, 0
1, 138329, Note_on_c, 0, 80, 57
1, 138329, Note_on_c, 0, 68, 0
1, 138332, Note_on_c, 0, 77, 39
1, 138410, Note_on_c, 0, 80, 0
1, 138410, Note_on_c, 0, 85, 67
1, 138410, Note_on_c, 0, 77, 0
1, 138413, Note_on_c, 0, 73, 47
1, 138490, Note_on_c, 0, 85, 0
1, 138490, Note_on_c, 0, 80, 58
1, 138490, Note_on_c, 0, 73, 0
1, 138493, Note_on_c, 0, 77, 39
1, 138571, Note_on_c, 0, 80, 0
1, 138571, Note_on_c, 0, 92, 65
1, 138571, Note_on_c, 0, 77, 0
1, 138574, Note_on_c, 0, 68, 48
1, 138650, Note_on_c, 0, 92, 0
1, 138650, Note_on_c, 0, 80, 59
1, 138650, Note_on_c, 0, 68, 0
1, 138653, Note_on_c, 0, 77, 42
1, 138730, Note_on_c, 0, 80, 0
1, 138730, Note_on_c, 0, 85, 72
1, 138730, Note_on_c, 0, 77, 0
1, 138733, Note_on_c, 0, 61, 50
1, 138809, Note_on_c, 0, 85, 0
1, 138809, Note_on_c, 0, 80, 62
1, 138809, Note_on_c, 0, 77, 43
1, 138888, Note_on_c, 0, 80, 0
1, 138888, Note_on_c, 0, 92, 71
1, 138888, Note_on_c, 0, 77, 0
1, 138891, Note_on_c, 0, 61, 0
1, 138891, Note_on_c, 0, 68, 50
1, 138966, Note_on_c, 0, 92, 0
1, 138966, Note_on_c, 0, 80, 63
1, 138966, Note_on_c, 0, 68, 0
1, 138969, Note_on_c, 0, 77, 45
1, 139044, Note_on_c, 0, 80, 0
1, 139044, Note_on_c, 0, 85, 74
1, 139044, Note_on_c, 0, 77, 0
1, 139047, Note_on_c, 0, 73, 52
1, 139122, Note_on_c, 0, 85, 0
1, 139122, Note_on_c, 0, 80, 64
1, 139122, Note_on_c, 0, 73, 0
1, 139125, Note_on_c, 0, 77, 46
1, 139199, Note_on_c, 0, 80, 0
1, 139199, Note_on_c, 0, 92, 72
1, 139199, Note_on_c, 0, 77, 0
1, 139202, Note_on_c, 0, 68, 53
1, 139276, Note_on_c, 0, 92, 0
1, 139276, Note_on_c, 0, 80, 66
1, 139276, Note_on_c, 0, 68, 0
1, 139279, Note_on_c, 0, 77, 48
1, 139353, Note_on_c, 0, 80, 0
1, 139353, Note_on_c, 0, 92, 78
1, 139353, Note_on_c, 0, 77, 0
1, 139356, Note_on_c, 0, 61, 52
1, 139429, Note_on_c, 0, 92, 0
1, 139429, Note_on_c, 0, 85, 66
1, 139429, Note_on_c, 0, 77, 44
1, 139505, Note_on_c, 0, 85, 0
1, 139505, Note_on_c, 0, 97, 73
1, 139505, Note_on_c, 0, 77, 0
1, 139508, Note_on_c, 0, 61, 0
1, 139508, Note_on_c, 0, 68, 51
1, 139581, Note_on_c, 0, 97, 0
1, 139581, Note_on_c, 0, 85, 62
1, 139581, Note_on_c, 0, 68, 0
1, 139584, Note_on_c, 0, 77, 45
1, 139658, Note_on_c, 0, 85, 0
1, 139658, Note_on_c, 0, 92, 71
1, 139658, Note_on_c, 0, 77, 0
1, 139661, Note_on_c, 0, 73, 53
1, 139734, Note_on_c, 0, 92, 0
1, 139734, Note_on_c, 0, 85, 60
1, 139734, Note_on_c, 0, 73, 0
1, 139737, Note_on_c, 0, 77, 46
1, 139810, Note_on_c, 0, 85, 0
1, 139810, Note_on_c, 0, 97, 65
1, 139810, Note_on_c, 0, 77, 0
1, 139813, Note_on_c, 0, 68, 52
1, 139892, Note_on_c, 0, 97, 0
1, 139892, Note_on_c, 0, 85, 58
1, 139892, Note_on_c, 0, 68, 0
1, 139895, Note_on_c, 0, 77, 47
1, 139978, Note_on_c, 0, 85, 0
1, 139978, Note_on_c, 0, 92, 67
1, 139978, Note_on_c, 0, 77, 0
1, 139981, Note_on_c, 0, 61, 48
1, 140054, Note_on_c, 0, 92, 0
1, 140054, Note_on_c, 0, 85, 57
1, 140054, Note_on_c, 0, 77, 36
1, 140130, Note_on_c, 0, 85, 0
1, 140130, Note_on_c, 0, 97, 63
1, 140130, Note_on_c, 0, 77, 0
1, 140133, Note_on_c, 0, 61, 0
1, 140133, Note_on_c, 0, 68, 49
1, 140207, Note_on_c, 0, 97, 0
1, 140207, Note_on_c, 0, 85, 53
1, 140207, Note_on_c, 0, 68, 0
1, 140210, Note_on_c, 0, 77, 43
1, 140283, Note_on_c, 0, 85, 0
1, 140283, Note_on_c, 0, 92, 61
1, 140283, Note_on_c, 0, 77, 0
1, 140286, Note_on_c, 0, 73, 51
1, 140359, Note_on_c, 0, 92, 0
1, 140359, Note_on_c, 0, 85, 51
1, 140359, Note_on_c, 0, 73, 0
1, 140362, Note_on_c, 0, 77, 44
1, 140435, Note_on_c, 0, 85, 0
1, 140435, Note_on_c, 0, 97, 56
1, 140435, Note_on_c, 0, 77, 0
1, 140438, Note_on_c, 0, 68, 50
1, 140512, Note_on_c, 0, 97, 0
1, 140512, Note_on_c, 0, 85, 45
1, 140512, Note_on_c, 0, 68, 0
1, 140515, Note_on_c, 0, 77, 43
1, 140588, Note_on_c, 0, 85, 0
1, 140588, Note_on_c, 0, 92, 67
1, 140588, Note_on_c, 0, 77, 0
1, 140591, Note_on_c, 0, 61, 48
1, 140664, Note_on_c, 0, 92, 0
1, 140664, Note_on_c, 0, 85, 55
1, 140664, Note_on_c, 0, 61, 0
1, 140667, Note_on_c, 0, 77, 35
1, 140740, Note_on_c, 0, 85, 0
1, 140740, Note_on_c, 0, 97, 60
1, 140740, Note_on_c, 0, 77, 0
1, 140743, Note_on_c, 0, 68, 47
1, 140817, Note_on_c, 0, 97, 0
1, 140817, Note_on_c, 0, 85, 49
1, 140817, Note_on_c, 0, 68, 0
1, 140820, Note_on_c, 0, 77, 40
1, 140894, Note_on_c, 0, 85, 0
1, 140894, Note_on_c, 0, 92, 56
1, 140894, Note_on_c, 0, 77, 0
1, 140897, Note_on_c, 0, 61, 46
1, 140972, Note_on_c, 0, 92, 0
1, 140972, Note_on_c, 0, 85, 45
1, 140972, Note_on_c, 0, 61, 0
1, 140975, Note_on_c, 0, 77, 39
1, 141050, Note_on_c, 0, 85, 0
1, 141050, Note_on_c, 0, 97, 49
1, 141050, Note_on_c, 0, 77, 0
1, 141053, Note_on_c, 0, 68, 44
1, 141129, Note_on_c, 0, 97, 0
1, 141129, Note_on_c, 0, 85, 38
1, 141129, Note_on_c, 0, 68, 0
1, 141132, Note_on_c, 0, 77, 36
1, 141209, Note_on_c, 0, 85, 0
1, 141209, Note_on_c, 0, 92, 56
1, 141209, Note_on_c, 0, 77, 0
1, 141212, Note_on_c, 0, 61, 40
1, 141289, Note_on_c, 0, 92, 0
1, 141289, Note_on_c, 0, 85, 46
1, 141289, Note_on_c, 0, 61, 0
1, 141292, Note_on_c, 0, 77, 29
1, 141370, Note_on_c, 0, 85, 0
1, 141370, Note_on_c, 0, 97, 50
1, 141370, Note_on_c, 0, 77, 0
1, 141373, Note_on_c, 0, 68, 39
1, 141451, Note_on_c, 0, 97, 0
1, 141451, Note_on_c, 0, 85, 41
1, 141451, Note_on_c, 0, 68, 0
1, 141454, Note_on_c, 0, 77, 33
1, 141534, Note_on_c, 0, 85, 0
1, 141534, Note_on_c, 0, 92, 46
1, 141534, Note_on_c, 0, 77, 0
1, 141537, Note_on_c, 0, 61, 38
1, 141617, Note_on_c, 0, 92, 0
1, 141617, Note_on_c, 0, 85, 37
1, 141617, Note_on_c, 0, 61, 0
1, 141620, Note_on_c, 0, 77, 32
1, 141701, Note_on_c, 0, 85, 0
1, 141701, Note_on_c, 0, 97, 40
1, 141701, Note_on_c, 0, 77, 0
1, 141704, Note_on_c, 0, 68, 36
1, 141786, Note_on_c, 0, 97, 0
1, 141786, Note_on_c, 0, 85, 36
1, 141786, Note_on_c, 0, 68, 0
1, 141789, Note_on_c, 0, 77, 1
1, 141872, Note_on_c, 0, 85, 0
1, 141872, Note_on_c, 0, 92, 46
1, 141872, Note_on_c, 0, 77, 0
1, 141875, Note_on_c, 0, 61, 33
1, 141960, Note_on_c, 0, 92, 0
1, 141960, Note_on_c, 0, 85, 39
1, 141960, Note_on_c, 0, 61, 0
1, 141963, Note_on_c, 0, 77, 25
1, 142049, Note_on_c, 0, 85, 0
1, 142049, Note_on_c, 0, 97, 44
1, 142049, Note_on_c, 0, 77, 0
1, 142052, Note_on_c, 0, 68, 34
1, 142140, Note_on_c, 0, 97, 0
1, 142140, Note_on_c, 0, 85, 37
1, 142140, Note_on_c, 0, 68, 0
1, 142143, Note_on_c, 0, 77, 30
1, 142232, Note_on_c, 0, 85, 0
1, 142232, Note_on_c, 0, 92, 42
1, 142232, Note_on_c, 0, 77, 0
1, 142235, Note_on_c, 0, 61, 35
1, 142328, Note_on_c, 0, 92, 0
1, 142328, Note_on_c, 0, 85, 35
1, 142328, Note_on_c, 0, 61, 0
1, 142331, Note_on_c, 0, 77, 30
1, 142429, Note_on_c, 0, 85, 0
1, 142429, Note_on_c, 0, 97, 39
1, 142429, Note_on_c, 0, 77, 0
1, 142432, Note_on_c, 0, 68, 35
1, 142536, Note_on_c, 0, 97, 0
1, 142536, Note_on_c, 0, 85, 31
1, 142536, Note_on_c, 0, 68, 0
1, 142539, Note_on_c, 0, 77, 30
1, 142649, Note_on_c, 0, 85, 0
1, 142649, Note_on_c, 0, 92, 39
1, 142649, Note_on_c, 0, 77, 0
1, 142652, Note_on_c, 0, 61, 33
1, 142788, Note_on_c, 0, 92, 0
1, 142788, Note_on_c, 0, 85, 31
1, 142926, Note_on_c, 0, 85, 0
1, 142926, Note_on_c, 0, 97, 31
1, 142926, Note_on_c, 0, 61, 0
1, 142929, Note_on_c, 0, 77, 30
1, 142929, Note_on_c, 0, 68, 30
1, 143202, Note_on_c, 0, 97, 0
1, 143202, Note_on_c, 0, 68, 0
1, 143202, Note_on_c, 0, 77, 0
1, 143520, Control_c, 0, 64, 0
1, 144486, Note_on_c, 0, 73, 47
1, 144681, Note_on_c, 0, 73, 0
1, 144681, Note_on_c, 0, 73, 57
1, 144681, Note_on_c, 0, 45, 44
1, 144684, Control_c, 0, 64, 127
1, 144840, Note_on_c, 0, 45, 0
1, 144880, Note_on_c, 0, 73, 0
1, 144880, Note_on_c, 0, 85, 50
1, 144880, Note_on_c, 0, 52, 34
1, 145017, Note_on_c, 0, 52, 0
1, 145052, Note_on_c, 0, 85, 0
1, 145052, Note_on_c, 0, 85, 58
1, 145052, Note_on_c, 0, 57, 35
1, 145189, Note_on_c, 0, 57, 0
1, 145223, Note_on_c, 0, 85, 0
1, 145223, Note_on_c, 0, 83, 51
1, 145223, Note_on_c, 0, 61, 36
1, 145367, Note_on_c, 0, 61, 0
1, 145406, Note_on_c, 0, 83, 0
1, 145406, Note_on_c, 0, 83, 56
1, 145406, Note_on_c, 0, 64, 37
1, 145543, Note_on_c, 0, 64, 0
1, 145577, Note_on_c, 0, 83, 0
1, 145577, Note_on_c, 0, 81, 45
1, 145577, Note_on_c, 0, 69, 38
1, 145714, Note_on_c, 0, 69, 0
1, 145749, Note_on_c, 0, 81, 0
1, 145749, Note_on_c, 0, 81, 49
1, 145749, Note_on_c, 0, 73, 36
1, 145886, Note_on_c, 0, 73, 0
1, 145920, Note_on_c, 0, 81, 0
1, 145920, Note_on_c, 0, 80, 45
1, 146111, Note_on_c, 0, 80, 0
1, 146111, Note_on_c, 0, 83, 56
1, 146111, Note_on_c, 0, 44, 44
1, 146114, Control_c, 0, 64, 0
1, 146201, Control_c, 0, 64, 127
1, 146255, Note_on_c, 0, 44, 0
1, 146291, Note_on_c, 0, 83, 0
1, 146291, Note_on_c, 0, 53, 34
1, 146435, Note_on_c, 0, 53, 0
1, 146471, Note_on_c, 0, 81, 48
1, 146471, Note_on_c, 0, 59, 35
1, 146614, Note_on_c, 0, 59, 0
1, 146650, Note_on_c, 0, 81, 0
1, 146650, Note_on_c, 0, 61, 36
1, 146801, Note_on_c, 0, 61, 0
1, 146842, Note_on_c, 0, 80, 56
1, 146842, Note_on_c, 0, 65, 37
1, 146983, Note_on_c, 0, 65, 0
1, 147018, Note_on_c, 0, 71, 38
1, 147158, Note_on_c, 0, 71, 0
1, 147193, Note_on_c, 0, 73, 36
1, 147334, Note_on_c, 0, 73, 0
1, 147544, Note_on_c, 0, 80, 0
1, 147544, Note_on_c, 0, 73, 60
1, 147544, Note_on_c, 0, 83, 60
1, 147547, Note_on_c, 0, 42, 44
1, 147547, Control_c, 0, 64, 0
1, 147644, Control_c, 0, 64, 127
1, 147703, Note_on_c, 0, 42, 0
1, 147743, Note_on_c, 0, 83, 0
1, 147743, Note_on_c, 0, 73, 0
1, 147743, Note_on_c, 0, 81, 45
1, 147746, Note_on_c, 0, 49, 34
1, 147883, Note_on_c, 0, 49, 0
1, 147889, Note_on_c, 0, 81, 0
1, 147919, Note_on_c, 0, 81, 55
1, 147919, Note_on_c, 0, 54, 35
1, 147961, Note_on_c, 0, 81, 0
1, 147961, Note_on_c, 0, 83, 55
1, 148003, Note_on_c, 0, 83, 0
1, 148003, Note_on_c, 0, 81, 60
1, 148054, Note_on_c, 0, 54, 0
1, 148088, Note_on_c, 0, 80, 45
1, 148088, Note_on_c, 0, 57, 36
1, 148176, Note_on_c, 0, 81, 0
1, 148229, Note_on_c, 0, 57, 0
1, 148234, Note_on_c, 0, 80, 0
1, 148264, Note_on_c, 0, 80, 55
1, 148264, Note_on_c, 0, 61, 37
1, 148306, Note_on_c, 0, 80, 0
1, 148306, Note_on_c, 0, 81, 55
1, 148348, Note_on_c, 0, 81, 0
1, 148348, Note_on_c, 0, 80, 61
1, 148399, Note_on_c, 0, 61, 0
1, 148433, Note_on_c, 0, 80, 0
1, 148433, Note_on_c, 0, 78, 45
1, 148433, Note_on_c, 0, 66, 38
1, 148571, Note_on_c, 0, 66, 0
1, 148577, Note_on_c, 0, 78, 0
1, 148607, Note_on_c, 0, 78, 52
1, 148607, Note_on_c, 0, 69, 36
1, 148651, Note_on_c, 0, 78, 0
1, 148651, Note_on_c, 0, 80, 52
1, 148696, Note_on_c, 0, 80, 0
1, 148696, Note_on_c, 0, 78, 58
1, 148749, Note_on_c, 0, 69, 0
1, 148784, Note_on_c, 0, 78, 0
1, 148784, Note_on_c, 0, 77, 45
1, 148975, Note_on_c, 0, 77, 0
1, 148975, Note_on_c, 0, 80, 58
1, 148975, Note_on_c, 0, 37, 44
1, 148978, Control_c, 0, 64, 0
1, 149065, Control_c, 0, 64, 127
1, 149119, Note_on_c, 0, 37, 0
1, 149155, Note_on_c, 0, 80, 0
1, 149155, Note_on_c, 0, 49, 34
1, 149290, Note_on_c, 0, 68, 39
1, 149299, Note_on_c, 0, 49, 0
1, 149312, Note_on_c, 0, 73, 43
1, 149335, Note_on_c, 0, 77, 49
1, 149335, Note_on_c, 0, 53, 35
1, 149479, Note_on_c, 0, 53, 0
1, 149515, Note_on_c, 0, 77, 0
1, 149515, Note_on_c, 0, 73, 0
1, 149515, Note_on_c, 0, 68, 0
1, 149518, Note_on_c, 0, 56, 36
1, 149670, Note_on_c, 0, 56, 0
1, 149708, Note_on_c, 0, 73, 53
1, 149708, Note_on_c, 0, 61, 37
1, 149850, Note_on_c, 0, 61, 0
1, 149886, Note_on_c, 0, 65, 38
1, 150028, Note_on_c, 0, 65, 0
1, 150063, Note_on_c, 0, 68, 36
1, 150216, Note_on_c, 0, 68, 0
1, 150350, Note_on_c, 0, 73, 47
1, 150512, Note_on_c, 0, 73, 0
1, 150512, Note_on_c, 0, 73, 0
1, 150512, Note_on_c, 0, 73, 57
1, 150515, Note_on_c, 0, 45, 44
1, 150515, Control_c, 0, 64, 0
1, 150515, Control_c, 0, 64, 127
1, 150671, Note_on_c, 0, 45, 0
1, 150711, Note_on_c, 0, 73, 0
1, 150711, Note_on_c, 0, 85, 50
1, 150711, Note_on_c, 0, 52, 34
1, 150848, Note_on_c, 0, 52, 0
1, 150882, Note_on_c, 0, 85, 0
1, 150882, Note_on_c, 0, 85, 58
1, 150882, Note_on_c, 0, 57, 35
1, 151019, Note_on_c, 0, 57, 0
1, 151054, Note_on_c, 0, 85, 0
1, 151054, Note_on_c, 0, 83, 51
1, 151054, Note_on_c, 0, 61, 36
1, 151197, Note_on_c, 0, 61, 0
1, 151236, Note_on_c, 0, 83, 0
1, 151236, Note_on_c, 0, 83, 56
1, 151236, Note_on_c, 0, 64, 37
1, 151373, Note_on_c, 0, 64, 0
1, 151408, Note_on_c, 0, 83, 0
1, 151408, Note_on_c, 0, 81, 45
1, 151408, Note_on_c, 0, 69, 38
1, 151545, Note_on_c, 0, 69, 0
1, 151579, Note_on_c, 0, 81, 0
1, 151579, Note_on_c, 0, 81, 49
1, 151579, Note_on_c, 0, 73, 36
1, 151716, Note_on_c, 0, 73, 0
1, 151751, Note_on_c, 0, 81, 0
1, 151751, Note_on_c, 0, 80, 45
1, 151942, Note_on_c, 0, 80, 0
1, 151942, Note_on_c, 0, 83, 56
1, 151942, Note_on_c, 0, 44, 44
1, 151945, Control_c, 0, 64, 0
1, 152032, Control_c, 0, 64, 127
1, 152086, Note_on_c, 0, 44, 0
1, 152121, Note_on_c, 0, 83, 0
1, 152121, Note_on_c, 0, 53, 34
1, 152265, Note_on_c, 0, 53, 0
1, 152301, Note_on_c, 0, 81, 48
1, 152301, Note_on_c, 0, 59, 35
1, 152445, Note_on_c, 0, 59, 0
1, 152481, Note_on_c, 0, 81, 0
1, 152481, Note_on_c, 0, 61, 36
1, 152632, Note_on_c, 0, 61, 0
1, 152673, Note_on_c, 0, 80, 56
1, 152673, Note_on_c, 0, 65, 37
1, 152813, Note_on_c, 0, 65, 0
1, 152848, Note_on_c, 0, 71, 38
1, 152989, Note_on_c, 0, 71, 0
1, 153024, Note_on_c, 0, 73, 36
1, 153164, Note_on_c, 0, 73, 0
1, 153287, Note_on_c, 0, 81, 52
1, 153331, Note_on_c, 0, 81, 0
1, 153331, Note_on_c, 0, 83, 52
1, 153375, Note_on_c, 0, 83, 0
1, 153375, Note_on_c, 0, 80, 0
1, 153375, Note_on_c, 0, 81, 60
1, 153378, Note_on_c, 0, 42, 44
1, 153378, Control_c, 0, 64, 0
1, 153474, Control_c, 0, 64, 127
1, 153574, Note_on_c, 0, 81, 0
1, 153574, Note_on_c, 0, 80, 45
1, 153705, Note_on_c, 0, 80, 0
1, 153749, Note_on_c, 0, 73, 49
1, 153749, Note_on_c, 0, 78, 60
1, 153749, Note_on_c, 0, 42, 0
1, 153752, Note_on_c, 0, 66, 35
1, 153752, Note_on_c, 0, 61, 35
1, 153752, Note_on_c, 0, 69, 35
1, 153919, Note_on_c, 0, 78, 0
1, 153919, Note_on_c, 0, 81, 45
1, 154006, Note_on_c, 0, 80, 53
1, 154050, Note_on_c, 0, 80, 0
1, 154050, Note_on_c, 0, 81, 0
1, 154050, Note_on_c, 0, 81, 53
1, 154094, Note_on_c, 0, 81, 0
1, 154094, Note_on_c, 0, 73, 0
1, 154094, Note_on_c, 0, 80, 61
1, 154097, Note_on_c, 0, 69, 0
1, 154097, Note_on_c, 0, 61, 0
1, 154097, Note_on_c, 0, 66, 0
1, 154100, Note_on_c, 0, 37, 37
1, 154100, Control_c, 0, 64, 0
1, 154183, Control_c, 0, 64, 127
1, 154264, Note_on_c, 0, 80, 0
1, 154264, Note_on_c, 0, 78, 45
1, 154437, Note_on_c, 0, 78, 0
1, 154437, Note_on_c, 0, 77, 58
1, 154437, Note_on_c, 0, 73, 49
1, 154440, Note_on_c, 0, 37, 0
1, 154440, Note_on_c, 0, 65, 36
1, 154440, Note_on_c, 0, 59, 36
1, 154443, Note_on_c, 0, 68, 36
1, 154615, Note_on_c, 0, 77, 0
1, 154615, Note_on_c, 0, 80, 45
1, 154806, Note_on_c, 0, 80, 0
1, 154806, Note_on_c, 0, 73, 0
1, 154806, Note_on_c, 0, 78, 58
1, 154809, Note_on_c, 0, 68, 0
1, 154809, Note_on_c, 0, 59, 0
1, 154809, Note_on_c, 0, 65, 0
1, 154812, Note_on_c, 0, 42, 44
1, 154812, Control_c, 0, 64, 0
1, 154896, Control_c, 0, 64, 127
1, 155091, Note_on_c, 0, 78, 43
1, 155143, Note_on_c, 0, 78, 0
1, 155143, Note_on_c, 0, 80, 44
1, 155196, Note_on_c, 0, 80, 0
1, 155196, Note_on_c, 0, 78, 0
1, 155196, Note_on_c, 0, 73, 49
1, 155199, Note_on_c, 0, 78, 49
1, 155199, Note_on_c, 0, 42, 0
1, 155199, Note_on_c, 0, 58, 36
1, 155202, Note_on_c, 0, 70, 36
1, 155202, Note_on_c, 0, 66, 36
1, 155489, Note_on_c, 0, 78, 0
1, 155489, Note_on_c, 0, 77, 49
1, 155595, Note_on_c, 0, 77, 0
1, 155595, Note_on_c, 0, 78, 53
1, 155950, Note_on_c, 0, 73, 0
1, 156217, Note_on_c, 0, 73, 39
1, 156217, Note_on_c, 0, 85, 54
1, 156412, Note_on_c, 0, 85, 0
1, 156412, Note_on_c, 0, 73, 0
1, 156412, Note_on_c, 0, 78, 0
1, 156415, Note_on_c, 0, 85, 61
1, 156415, Note_on_c, 0, 73, 51
1, 156415, Note_on_c, 0, 66, 0
1, 156418, Note_on_c, 0, 70, 0
1, 156418, Note_on_c, 0, 58, 0
1, 156418, Note_on_c, 0, 45, 44
1, 156421, Control_c, 0, 64, 0
1, 156421, Control_c, 0, 64, 127
1, 156571, Note_on_c, 0, 45, 0
1, 156611, Note_on_c, 0, 73, 0
1, 156611, Note_on_c, 0, 85, 0
1, 156611, Note_on_c, 0, 97, 52
1, 156614, Note_on_c, 0, 85, 44
1, 156614, Note_on_c, 0, 52, 34
1, 156748, Note_on_c, 0, 52, 0
1, 156782, Note_on_c, 0, 85, 0
1, 156782, Note_on_c, 0, 97, 0
1, 156782, Note_on_c, 0, 85, 51
1, 156785, Note_on_c, 0, 97, 61
1, 156785, Note_on_c, 0, 57, 36
1, 156919, Note_on_c, 0, 57, 0
1, 156954, Note_on_c, 0, 97, 0
1, 156954, Note_on_c, 0, 85, 0
1, 156954, Note_on_c, 0, 95, 53
1, 156957, Note_on_c, 0, 83, 45
1, 156957, Note_on_c, 0, 61, 38
1, 157098, Note_on_c, 0, 61, 0
1, 157136, Note_on_c, 0, 83, 0
1, 157136, Note_on_c, 0, 95, 0
1, 157136, Note_on_c, 0, 95, 61
1, 157139, Note_on_c, 0, 83, 51
1, 157139, Note_on_c, 0, 64, 40
1, 157273, Note_on_c, 0, 64, 0
1, 157308, Note_on_c, 0, 83, 0
1, 157308, Note_on_c, 0, 95, 0
1, 157308, Note_on_c, 0, 81, 45
1, 157311, Note_on_c, 0, 93, 53
1, 157311, Note_on_c, 0, 69, 42
1, 157445, Note_on_c, 0, 69, 0
1, 157479, Note_on_c, 0, 93, 0
1, 157479, Note_on_c, 0, 81, 0
1, 157479, Note_on_c, 0, 81, 51
1, 157482, Note_on_c, 0, 93, 60
1, 157482, Note_on_c, 0, 73, 44
1, 157616, Note_on_c, 0, 73, 0
1, 157651, Note_on_c, 0, 93, 0
1, 157651, Note_on_c, 0, 81, 0
1, 157651, Note_on_c, 0, 80, 46
1, 157654, Note_on_c, 0, 92, 55
1, 157842, Note_on_c, 0, 92, 0
1, 157842, Note_on_c, 0, 80, 0
1, 157842, Note_on_c, 0, 95, 69
1, 157845, Note_on_c, 0, 83, 58
1, 157845, Note_on_c, 0, 44, 44
1, 157845, Control_c, 0, 64, 0
1, 157932, Control_c, 0, 64, 127
1, 157986, Note_on_c, 0, 44, 0
1, 158022, Note_on_c, 0, 83, 0
1, 158022, Note_on_c, 0, 95, 0
1, 158022, Note_on_c, 0, 53, 34
1, 158156, Note_on_c, 0, 81, 47
1, 158165, Note_on_c, 0, 53, 0
1, 158179, Note_on_c, 0, 85, 49
1, 158201, Note_on_c, 0, 93, 60
1, 158201, Note_on_c, 0, 59, 35
1, 158345, Note_on_c, 0, 59, 0
1, 158381, Note_on_c, 0, 93, 0
1, 158381, Note_on_c, 0, 85, 0
1, 158381, Note_on_c, 0, 81, 0
1, 158384, Note_on_c, 0, 61, 36
1, 158522, Note_on_c, 0, 80, 51
1, 158532, Note_on_c, 0, 61, 0
1, 158547, Note_on_c, 0, 85, 54
1, 158573, Note_on_c, 0, 92, 66
1, 158573, Note_on_c, 0, 65, 37
1, 158713, Note_on_c, 0, 65, 0
1, 158749, Note_on_c, 0, 71, 38
1, 158889, Note_on_c, 0, 71, 0
1, 158924, Note_on_c, 0, 73, 36
1, 159064, Note_on_c, 0, 73, 0
1, 159275, Note_on_c, 0, 92, 0
1, 159275, Note_on_c, 0, 85, 0
1, 159275, Note_on_c, 0, 80, 0
1, 159278, Note_on_c, 0, 95, 69
1, 159278, Note_on_c, 0, 83, 58
1, 159278, Note_on_c, 0, 42, 44
1, 159281, Control_c, 0, 64, 0
1, 159374, Control_c, 0, 64, 127
1, 159434, Note_on_c, 0, 42, 0
1, 159474, Note_on_c, 0, 83, 0
1, 159474, Note_on_c, 0, 95, 0
1, 159474, Note_on_c, 0, 81, 46
1, 159477, Note_on_c, 0, 93, 55
1, 159477, Note_on_c, 0, 49, 42
1, 159614, Note_on_c, 0, 49, 0
1, 159649, Note_on_c, 0, 93, 0
1, 159649, Note_on_c, 0, 81, 0
1, 159649, Note_on_c, 0, 81, 56
1, 159652, Note_on_c, 0, 93, 67
1, 159652, Note_on_c, 0, 54, 41
1, 159776, Note_on_c, 0, 93, 0
1, 159776, Note_on_c, 0, 81, 0
1, 159785, Note_on_c, 0, 54, 0
1, 159819, Note_on_c, 0, 92, 55
1, 159819, Note_on_c, 0, 57, 41
1, 159950, Note_on_c, 0, 93, 57
1, 159959, Note_on_c, 0, 57, 0
1, 159994, Note_on_c, 0, 93, 0
1, 159994, Note_on_c, 0, 92, 0
1, 159994, Note_on_c, 0, 92, 66
1, 159997, Note_on_c, 0, 80, 56
1, 159997, Note_on_c, 0, 61, 40
1, 160079, Note_on_c, 0, 80, 0
1, 160122, Note_on_c, 0, 92, 0
1, 160130, Note_on_c, 0, 61, 0
1, 160164, Note_on_c, 0, 90, 50
1, 160164, Note_on_c, 0, 78, 42
1, 160164, Note_on_c, 0, 66, 39
1, 160302, Note_on_c, 0, 66, 0
1, 160337, Note_on_c, 0, 78, 0
1, 160337, Note_on_c, 0, 90, 0
1, 160337, Note_on_c, 0, 90, 63
1, 160340, Note_on_c, 0, 78, 53
1, 160340, Note_on_c, 0, 69, 38
1, 160480, Note_on_c, 0, 69, 0
1, 160515, Note_on_c, 0, 78, 0
1, 160515, Note_on_c, 0, 90, 0
1, 160515, Note_on_c, 0, 89, 47
1, 160518, Note_on_c, 0, 77, 39
1, 160706, Note_on_c, 0, 77, 0
1, 160706, Note_on_c, 0, 89, 0
1, 160706, Note_on_c, 0, 92, 63
1, 160709, Note_on_c, 0, 80, 53
1, 160709, Note_on_c, 0, 37, 44
1, 160709, Control_c, 0, 64, 0
1, 160796, Control_c, 0, 64, 127
1, 160850, Note_on_c, 0, 37, 0
1, 160886, Note_on_c, 0, 80, 0
1, 160886, Note_on_c, 0, 92, 0
1, 160886, Note_on_c, 0, 49, 34
1, 160998, Note_on_c, 0, 77, 46
1, 161021, Note_on_c, 0, 80, 50
1, 161030, Note_on_c, 0, 49, 0
1, 161043, Note_on_c, 0, 85, 52
1, 161066, Note_on_c, 0, 89, 59
1, 161066, Note_on_c, 0, 53, 35
1, 161209, Note_on_c, 0, 53, 0
1, 161245, Note_on_c, 0, 89, 0
1, 161245, Note_on_c, 0, 77, 0
1, 161245, Note_on_c, 0, 80, 0
1, 161248, Note_on_c, 0, 85, 0
1, 161248, Note_on_c, 0, 56, 36
1, 161366, Note_on_c, 0, 73, 42
1, 161391, Note_on_c, 0, 77, 44
1, 161400, Note_on_c, 0, 56, 0
1, 161415, Note_on_c, 0, 80, 46
1, 161439, Note_on_c, 0, 85, 53
1, 161439, Note_on_c, 0, 61, 37
1, 161581, Note_on_c, 0, 61, 0
1, 161617, Note_on_c, 0, 65, 38
1, 161759, Note_on_c, 0, 65, 0
1, 161794, Note_on_c, 0, 68, 36
1, 161947, Note_on_c, 0, 68, 0
1, 162081, Note_on_c, 0, 85, 0
1, 162081, Note_on_c, 0, 73, 0
1, 162081, Note_on_c, 0, 77, 0
1, 162084, Note_on_c, 0, 80, 0
1, 162084, Note_on_c, 0, 73, 47
1, 162084, Note_on_c, 0, 85, 54
1, 162243, Note_on_c, 0, 85, 0
1, 162243, Note_on_c, 0, 73, 0
1, 162243, Note_on_c, 0, 85, 65
1, 162246, Note_on_c, 0, 73, 57
1, 162246, Note_on_c, 0, 45, 44
1, 162335, Control_c, 0, 64, 0
1, 162402, Note_on_c, 0, 45, 0
1, 162441, Note_on_c, 0, 73, 0
1, 162441, Note_on_c, 0, 85, 0
1, 162441, Note_on_c, 0, 85, 50
1, 162444, Note_on_c, 0, 97, 57
1, 162444, Note_on_c, 0, 52, 34
1, 162491, Control_c, 0, 64, 127
1, 162579, Note_on_c, 0, 52, 0
1, 162613, Note_on_c, 0, 97, 0
1, 162613, Note_on_c, 0, 85, 0
1, 162613, Note_on_c, 0, 85, 58
1, 162616, Note_on_c, 0, 97, 66
1, 162616, Note_on_c, 0, 57, 35
1, 162750, Note_on_c, 0, 57, 0
1, 162784, Note_on_c, 0, 97, 0
1, 162784, Note_on_c, 0, 85, 0
1, 162784, Note_on_c, 0, 95, 58
1, 162787, Note_on_c, 0, 83, 51
1, 162787, Note_on_c, 0, 61, 36
1, 162928, Note_on_c, 0, 61, 0
1, 162967, Note_on_c, 0, 83, 0
1, 162967, Note_on_c, 0, 95, 0
1, 162967, Note_on_c, 0, 95, 64
1, 162970, Note_on_c, 0, 83, 56
1, 162970, Note_on_c, 0, 64, 37
1, 163104, Note_on_c, 0, 64, 0
1, 163138, Note_on_c, 0, 83, 0
1, 163138, Note_on_c, 0, 95, 0
1, 163138, Note_on_c, 0, 93, 51
1, 163141, Note_on_c, 0, 81, 45
1, 163141, Note_on_c, 0, 69, 38
1, 163276, Note_on_c, 0, 69, 0
1, 163310, Note_on_c, 0, 81, 0
1, 163310, Note_on_c, 0, 93, 0
1, 163310, Note_on_c, 0, 81, 49
1, 163313, Note_on_c, 0, 93, 56
1, 163313, Note_on_c, 0, 73, 36
1, 163447, Note_on_c, 0, 73, 0
1, 163481, Note_on_c, 0, 93, 0
1, 163481, Note_on_c, 0, 81, 0
1, 163481, Note_on_c, 0, 92, 51
1, 163484, Note_on_c, 0, 80, 45
1, 163673, Note_on_c, 0, 80, 0
1, 163673, Note_on_c, 0, 92, 0
1, 163673, Note_on_c, 0, 83, 56
1, 163676, Note_on_c, 0, 95, 64
1, 163676, Note_on_c, 0, 44, 44
1, 163676, Control_c, 0, 64, 0
1, 163762, Control_c, 0, 64, 127
1, 163816, Note_on_c, 0, 44, 0
1, 163852, Note_on_c, 0, 95, 0
1, 163852, Note_on_c, 0, 83, 0
1, 163852, Note_on_c, 0, 53, 34
1, 163987, Note_on_c, 0, 81, 48
1, 163996, Note_on_c, 0, 53, 0
1, 164009, Note_on_c, 0, 85, 48
1, 164032, Note_on_c, 0, 93, 49
1, 164032, Note_on_c, 0, 59, 31
1, 164176, Note_on_c, 0, 59, 0
1, 164212, Note_on_c, 0, 93, 0
1, 164212, Note_on_c, 0, 85, 0
1, 164212, Note_on_c, 0, 81, 0
1, 164215, Note_on_c, 0, 61, 32
1, 164353, Note_on_c, 0, 80, 50
1, 164363, Note_on_c, 0, 61, 0
1, 164378, Note_on_c, 0, 85, 50
1, 164404, Note_on_c, 0, 92, 57
1, 164404, Note_on_c, 0, 65, 33
1, 164544, Note_on_c, 0, 65, 0
1, 164579, Note_on_c, 0, 71, 34
1, 164720, Note_on_c, 0, 71, 0
1, 164755, Note_on_c, 0, 73, 32
1, 164895, Note_on_c, 0, 73, 0
1, 165106, Note_on_c, 0, 92, 0
1, 165106, Note_on_c, 0, 85, 0
1, 165106, Note_on_c, 0, 80, 0
1, 165109, Note_on_c, 0, 93, 51
1, 165109, Note_on_c, 0, 81, 45
1, 165109, Note_on_c, 0, 42, 33
1, 165112, Control_c, 0, 64, 0
1, 165209, Control_c, 0, 64, 127
1, 165313, Note_on_c, 0, 81, 0
1, 165313, Note_on_c, 0, 93, 0
1, 165313, Note_on_c, 0, 80, 33
1, 165316, Note_on_c, 0, 92, 38
1, 165408, Note_on_c, 0, 80, 0
1, 165456, Note_on_c, 0, 92, 0
1, 165504, Note_on_c, 0, 90, 51
1, 165504, Note_on_c, 0, 85, 36
1, 165504, Note_on_c, 0, 78, 45
1, 165507, Note_on_c, 0, 42, 0
1, 165507, Note_on_c, 0, 61, 26
1, 165507, Note_on_c, 0, 69, 26
1, 165510, Note_on_c, 0, 66, 26
1, 165686, Note_on_c, 0, 78, 0
1, 165686, Note_on_c, 0, 90, 0
1, 165686, Note_on_c, 0, 81, 33
1, 165689, Note_on_c, 0, 93, 38
1, 165849, Note_on_c, 0, 93, 0
1, 165882, Note_on_c, 0, 81, 0
1, 165882, Note_on_c, 0, 85, 0
1, 165882, Note_on_c, 0, 80, 45
1, 165885, Note_on_c, 0, 92, 52
1, 165885, Note_on_c, 0, 66, 0
1, 165885, Note_on_c, 0, 69, 0
1, 165888, Note_on_c, 0, 61, 0
1, 165888, Note_on_c, 0, 37, 27
1, 165888, Control_c, 0, 64, 0
1, 165976, Control_c, 0, 64, 127
1, 166062, Note_on_c, 0, 92, 0
1, 166062, Note_on_c, 0, 80, 0
1, 166062, Note_on_c, 0, 78, 33
1, 166065, Note_on_c, 0, 90, 38
1, 166247, Note_on_c, 0, 90, 0
1, 166247, Note_on_c, 0, 78, 0
1, 166247, Note_on_c, 0, 89, 49
1, 166250, Note_on_c, 0, 85, 36
1, 166250, Note_on_c, 0, 77, 43
1, 166250, Note_on_c, 0, 37, 0
1, 166253, Note_on_c, 0, 65, 27
1, 166253, Note_on_c, 0, 59, 27
1, 166253, Note_on_c, 0, 68, 27
1, 166438, Note_on_c, 0, 77, 0
1, 166438, Note_on_c, 0, 89, 0
1, 166438, Note_on_c, 0, 92, 38
1, 166441, Note_on_c, 0, 80, 33
1, 166618, Note_on_c, 0, 92, 0
1, 166654, Note_on_c, 0, 80, 0
1, 166654, Note_on_c, 0, 85, 0
1, 166654, Note_on_c, 0, 78, 43
1, 166657, Note_on_c, 0, 90, 49
1, 166657, Note_on_c, 0, 68, 0
1, 166657, Note_on_c, 0, 59, 0
1, 166660, Note_on_c, 0, 65, 0
1, 166660, Note_on_c, 0, 42, 33
1, 166660, Control_c, 0, 64, 0
1, 166750, Control_c, 0, 64, 127
1, 166965, Note_on_c, 0, 58, 27
1, 166989, Note_on_c, 0, 61, 27
1, 167013, Note_on_c, 0, 66, 27
1, 167037, Note_on_c, 0, 90, 0
1, 167037, Note_on_c, 0, 78, 0
1, 167037, Note_on_c, 0, 85, 36
1, 167040, Note_on_c, 0, 90, 42
1, 167040, Note_on_c, 0, 78, 36
1, 167040, Note_on_c, 0, 42, 0
1, 167043, Note_on_c, 0, 70, 27
1, 167352, Note_on_c, 0, 78, 0
1, 167352, Note_on_c, 0, 90, 0
1, 167352, Note_on_c, 0, 77, 36
1, 167355, Note_on_c, 0, 89, 42
1, 167463, Note_on_c, 0, 89, 0
1, 167463, Note_on_c, 0, 77, 0
1, 167463, Note_on_c, 0, 85, 0
1, 167466, Note_on_c, 0, 85, 39
1, 167466, Note_on_c, 0, 90, 45
1, 167466, Note_on_c, 0, 78, 39
1, 168167, Note_on_c, 0, 78, 0
1, 168167, Note_on_c, 0, 90, 0
1, 168167, Note_on_c, 0, 85, 0
1, 168170, Note_on_c, 0, 56, 51
1, 168170, Note_on_c, 0, 52, 42
1, 168170, Note_on_c, 0, 70, 0
1, 168173, Note_on_c, 0, 66, 0
1, 168173, Note_on_c, 0, 61, 0
1, 168173, Note_on_c, 0, 58, 0
1, 168176, Note_on_c, 0, 49, 54
1, 168176, Note_on_c, 0, 37, 46
1, 168176, Control_c, 0, 64, 0
1, 168208, Control_c, 0, 64, 127
1, 168238, Note_on_c, 0, 52, 0
1, 168238, Note_on_c, 0, 56, 0
1, 168238, Note_on_c, 0, 61, 42
1, 168279, Note_on_c, 0, 37, 0
1, 168279, Note_on_c, 0, 49, 0
1, 168307, Note_on_c, 0, 61, 0
1, 168307, Note_on_c, 0, 52, 38
1, 168307, Note_on_c, 0, 56, 45
1, 168310, Note_on_c, 0, 48, 48
1, 168310, Note_on_c, 0, 36, 40
1, 168377, Note_on_c, 0, 56, 0
1, 168377, Note_on_c, 0, 52, 0
1, 168377, Note_on_c, 0, 61, 43
1, 168418, Note_on_c, 0, 36, 0
1, 168418, Note_on_c, 0, 48, 0
1, 168445, Note_on_c, 0, 61, 0
1, 168445, Note_on_c, 0, 56, 45
1, 168445, Note_on_c, 0, 52, 38
1, 168448, Note_on_c, 0, 35, 40
1, 168448, Note_on_c, 0, 47, 48
1, 168513, Note_on_c, 0, 52, 0
1, 168513, Note_on_c, 0, 56, 0
1, 168513, Note_on_c, 0, 61, 43
1, 168554, Note_on_c, 0, 47, 0
1, 168554, Note_on_c, 0, 35, 0
1, 168581, Note_on_c, 0, 61, 0
1, 168581, Note_on_c, 0, 52, 38
1, 168581, Note_on_c, 0, 56, 45
1, 168584, Note_on_c, 0, 46, 48
1, 168584, Note_on_c, 0, 34, 40
1, 168648, Note_on_c, 0, 56, 0
1, 168648, Note_on_c, 0, 52, 0
1, 168648, Note_on_c, 0, 61, 42
1, 168688, Note_on_c, 0, 34, 0
1, 168688, Note_on_c, 0, 46, 0
1, 168710, Control_c, 0, 64, 0
1, 168714, Note_on_c, 0, 61, 0
1, 168714, Note_on_c, 0, 56, 49
1, 168714, Note_on_c, 0, 52, 42
1, 168717, Note_on_c, 0, 45, 48
1, 168717, Note_on_c, 0, 33, 40
1, 168765, Control_c, 0, 64, 127
1, 168780, Note_on_c, 0, 52, 0
1, 168780, Note_on_c, 0, 56, 0
1, 168780, Note_on_c, 0, 61, 42
1, 168820, Note_on_c, 0, 33, 0
1, 168820, Note_on_c, 0, 45, 0
1, 168846, Note_on_c, 0, 61, 0
1, 168846, Note_on_c, 0, 52, 38
1, 168846, Note_on_c, 0, 56, 45
1, 168849, Note_on_c, 0, 32, 41
1, 168849, Note_on_c, 0, 44, 48
1, 168913, Note_on_c, 0, 56, 0
1, 168913, Note_on_c, 0, 52, 0
1, 168913, Note_on_c, 0, 61, 41
1, 168952, Note_on_c, 0, 44, 0
1, 168952, Note_on_c, 0, 32, 0
1, 168979, Note_on_c, 0, 61, 0
1, 168979, Note_on_c, 0, 52, 38
1, 168979, Note_on_c, 0, 56, 45
1, 168982, Note_on_c, 0, 43, 51
1, 168982, Note_on_c, 0, 31, 43
1, 169045, Note_on_c, 0, 56, 0
1, 169045, Note_on_c, 0, 52, 0
1, 169045, Note_on_c, 0, 61, 41
1, 169084, Note_on_c, 0, 31, 0
1, 169084, Note_on_c, 0, 43, 0
1, 169111, Note_on_c, 0, 61, 0
1, 169111, Note_on_c, 0, 56, 45
1, 169111, Note_on_c, 0, 52, 38
1, 169114, Note_on_c, 0, 44, 55
1, 169114, Note_on_c, 0, 32, 46
1, 169187, Note_on_c, 0, 52, 0
1, 169187, Note_on_c, 0, 56, 0
1, 169187, Note_on_c, 0, 61, 40
1, 169233, Note_on_c, 0, 32, 0
1, 169233, Note_on_c, 0, 44, 0
1, 169263, Note_on_c, 0, 61, 0
1, 169263, Note_on_c, 0, 54, 41
1, 169263, Note_on_c, 0, 57, 48
1, 169266, Note_on_c, 0, 33, 48
1, 169266, Note_on_c, 0, 45, 57
1, 169292, Control_c, 0, 64, 0
1, 169330, Note_on_c, 0, 57, 0
1, 169330, Note_on_c, 0, 54, 0
1, 169330, Note_on_c, 0, 66, 42
1, 169341, Control_c, 0, 64, 127
1, 169370, Note_on_c, 0, 45, 0
1, 169370, Note_on_c, 0, 33, 0
1, 169396, Note_on_c, 0, 66, 0
1, 169396, Note_on_c, 0, 57, 45
1, 169396, Note_on_c, 0, 54, 38
1, 169399, Note_on_c, 0, 44, 54
1, 169399, Note_on_c, 0, 32, 45
1, 169463, Note_on_c, 0, 54, 0
1, 169463, Note_on_c, 0, 57, 0
1, 169463, Note_on_c, 0, 66, 42
1, 169503, Note_on_c, 0, 32, 0
1, 169503, Note_on_c, 0, 44, 0
1, 169530, Note_on_c, 0, 66, 0
1, 169530, Note_on_c, 0, 54, 39
1, 169530, Note_on_c, 0, 57, 46
1, 169533, Note_on_c, 0, 43, 48
1, 169533, Note_on_c, 0, 31, 41
1, 169596, Note_on_c, 0, 57, 0
1, 169596, Note_on_c, 0, 54, 0
1, 169596, Note_on_c, 0, 66, 41
1, 169636, Note_on_c, 0, 31, 0
1, 169636, Note_on_c, 0, 43, 0
1, 169663, Note_on_c, 0, 66, 0
1, 169663, Note_on_c, 0, 54, 38
1, 169663, Note_on_c, 0, 57, 45
1, 169666, Note_on_c, 0, 42, 48
1, 169666, Note_on_c, 0, 30, 41
1, 169730, Note_on_c, 0, 57, 0
1, 169730, Note_on_c, 0, 54, 0
1, 169730, Note_on_c, 0, 66, 42
1, 169770, Note_on_c, 0, 30, 0
1, 169770, Note_on_c, 0, 42, 0
1, 169796, Note_on_c, 0, 66, 0
1, 169796, Note_on_c, 0, 57, 45
1, 169796, Note_on_c, 0, 54, 38
1, 169799, Note_on_c, 0, 29, 41
1, 169799, Note_on_c, 0, 41, 48
1, 169863, Note_on_c, 0, 54, 0
1, 169863, Note_on_c, 0, 57, 0
1, 169863, Note_on_c, 0, 66, 42
1, 169903, Note_on_c, 0, 41, 0
1, 169903, Note_on_c, 0, 29, 0
1, 169930, Note_on_c, 0, 66, 0
1, 169930, Note_on_c, 0, 54, 38
1, 169930, Note_on_c, 0, 57, 45
1, 169933, Note_on_c, 0, 40, 48
1, 169933, Note_on_c, 0, 28, 41
1, 169996, Note_on_c, 0, 57, 0
1, 169996, Note_on_c, 0, 54, 0
1, 169996, Note_on_c, 0, 66, 42
1, 170036, Note_on_c, 0, 28, 0
1, 170036, Note_on_c, 0, 40, 0
1, 170063, Note_on_c, 0, 66, 0
1, 170063, Note_on_c, 0, 57, 45
1, 170063, Note_on_c, 0, 54, 38
1, 170066, Note_on_c, 0, 39, 48
1, 170066, Note_on_c, 0, 27, 40
1, 170130, Note_on_c, 0, 54, 0
1, 170130, Note_on_c, 0, 57, 0
1, 170130, Note_on_c, 0, 66, 41
1, 170170, Note_on_c, 0, 27, 0
1, 170170, Note_on_c, 0, 39, 0
1, 170196, Note_on_c, 0, 66, 0
1, 170196, Note_on_c, 0, 54, 38
1, 170196, Note_on_c, 0, 57, 45
1, 170199, Note_on_c, 0, 24, 40
1, 170199, Note_on_c, 0, 36, 48
1, 170278, Note_on_c, 0, 57, 0
1, 170278, Note_on_c, 0, 54, 0
1, 170278, Note_on_c, 0, 66, 42
1, 170327, Note_on_c, 0, 36, 0
1, 170327, Note_on_c, 0, 24, 0
1, 170360, Note_on_c, 0, 66, 0
1, 170360, Note_on_c, 0, 52, 42
1, 170360, Note_on_c, 0, 56, 51
1, 170363, Note_on_c, 0, 25, 46
1, 170363, Note_on_c, 0, 37, 54
1, 170363, Control_c, 0, 64, 0
1, 170427, Note_on_c, 0, 56, 0
1, 170427, Note_on_c, 0, 52, 0
1, 170427, Note_on_c, 0, 64, 42
1, 170442, Control_c, 0, 64, 127
1, 170467, Note_on_c, 0, 37, 0
1, 170467, Note_on_c, 0, 25, 0
1, 170494, Note_on_c, 0, 64, 0
1, 170494, Note_on_c, 0, 56, 45
1, 170494, Note_on_c, 0, 52, 38
1, 170497, Note_on_c, 0, 38, 47
1, 170497, Note_on_c, 0, 26, 39
1, 170560, Note_on_c, 0, 52, 0
1, 170560, Note_on_c, 0, 56, 0
1, 170560, Note_on_c, 0, 64, 44
1, 170600, Note_on_c, 0, 26, 0
1, 170600, Note_on_c, 0, 38, 0
1, 170627, Note_on_c, 0, 64, 0
1, 170627, Note_on_c, 0, 52, 39
1, 170627, Note_on_c, 0, 56, 46
1, 170630, Note_on_c, 0, 39, 49
1, 170630, Note_on_c, 0, 27, 42
1, 170694, Note_on_c, 0, 56, 0
1, 170694, Note_on_c, 0, 52, 0
1, 170694, Note_on_c, 0, 64, 45
1, 170734, Note_on_c, 0, 27, 0
1, 170734, Note_on_c, 0, 39, 0
1, 170760, Note_on_c, 0, 64, 0
1, 170760, Note_on_c, 0, 52, 40
1, 170760, Note_on_c, 0, 56, 48
1, 170763, Note_on_c, 0, 28, 44
1, 170763, Note_on_c, 0, 40, 52
1, 170827, Note_on_c, 0, 56, 0
1, 170827, Note_on_c, 0, 52, 0
1, 170827, Note_on_c, 0, 64, 45
1, 170867, Note_on_c, 0, 40, 0
1, 170867, Note_on_c, 0, 28, 0
1, 170893, Note_on_c, 0, 64, 0
1, 170893, Note_on_c, 0, 50, 46
1, 170893, Note_on_c, 0, 54, 55
1, 170896, Note_on_c, 0, 41, 58
1, 170896, Note_on_c, 0, 29, 49
1, 170907, Control_c, 0, 64, 0
1, 170935, Control_c, 0, 64, 127
1, 170960, Note_on_c, 0, 54, 0
1, 170960, Note_on_c, 0, 50, 0
1, 170960, Note_on_c, 0, 62, 46
1, 171000, Note_on_c, 0, 29, 0
1, 171000, Note_on_c, 0, 41, 0
1, 171027, Note_on_c, 0, 62, 0
1, 171027, Note_on_c, 0, 50, 42
1, 171027, Note_on_c, 0, 54, 49
1, 171030, Note_on_c, 0, 42, 54
1, 171030, Note_on_c, 0, 30, 46
1, 171093, Note_on_c, 0, 54, 0
1, 171093, Note_on_c, 0, 50, 0
1, 171093, Note_on_c, 0, 62, 48
1, 171133, Note_on_c, 0, 30, 0
1, 171133, Note_on_c, 0, 42, 0
1, 171160, Note_on_c, 0, 62, 0
1, 171160, Note_on_c, 0, 54, 51
1, 171160, Note_on_c, 0, 50, 43
1, 171163, Note_on_c, 0, 29, 50
1, 171163, Note_on_c, 0, 41, 59
1, 171227, Note_on_c, 0, 50, 0
1, 171227, Note_on_c, 0, 54, 0
1, 171227, Note_on_c, 0, 62, 49
1, 171267, Note_on_c, 0, 41, 0
1, 171267, Note_on_c, 0, 29, 0
1, 171293, Note_on_c, 0, 62, 0
1, 171293, Note_on_c, 0, 50, 43
1, 171293, Note_on_c, 0, 54, 51
1, 171296, Note_on_c, 0, 42, 56
1, 171296, Note_on_c, 0, 30, 48
1, 171370, Note_on_c, 0, 54, 0
1, 171370, Note_on_c, 0, 50, 0
1, 171370, Note_on_c, 0, 62, 49
1, 171417, Note_on_c, 0, 30, 0
1, 171417, Note_on_c, 0, 42, 0
1, 171447, Note_on_c, 0, 62, 0
1, 171447, Note_on_c, 0, 56, 59
1, 171447, Note_on_c, 0, 52, 50
1, 171450, Note_on_c, 0, 43, 64
1, 171450, Note_on_c, 0, 31, 54
1, 171471, Control_c, 0, 64, 0
1, 171515, Note_on_c, 0, 52, 0
1, 171515, Note_on_c, 0, 56, 0
1, 171515, Note_on_c, 0, 61, 50
1, 171540, Control_c, 0, 64, 127
1, 171555, Note_on_c, 0, 31, 0
1, 171555, Note_on_c, 0, 43, 0
1, 171582, Note_on_c, 0, 61, 0
1, 171582, Note_on_c, 0, 56, 54
1, 171582, Note_on_c, 0, 52, 45
1, 171585, Note_on_c, 0, 32, 51
1, 171585, Note_on_c, 0, 44, 61
1, 171649, Note_on_c, 0, 52, 0
1, 171649, Note_on_c, 0, 56, 0
1, 171649, Note_on_c, 0, 61, 52
1, 171689, Note_on_c, 0, 44, 0
1, 171689, Note_on_c, 0, 32, 0
1, 171716, Note_on_c, 0, 61, 0
1, 171716, Note_on_c, 0, 52, 46
1, 171716, Note_on_c, 0, 56, 54
1, 171719, Note_on_c, 0, 43, 65
1, 171719, Note_on_c, 0, 31, 55
1, 171784, Note_on_c, 0, 56, 0
1, 171784, Note_on_c, 0, 52, 0
1, 171784, Note_on_c, 0, 61, 53
1, 171824, Note_on_c, 0, 31, 0
1, 171824, Note_on_c, 0, 43, 0
1, 171851, Note_on_c, 0, 61, 0
1, 171851, Note_on_c, 0, 56, 55
1, 171851, Note_on_c, 0, 52, 47
1, 171854, Note_on_c, 0, 44, 59
1, 171854, Note_on_c, 0, 32, 50
1, 171918, Note_on_c, 0, 52, 0
1, 171918, Note_on_c, 0, 56, 0
1, 171918, Note_on_c, 0, 61, 53
1, 171958, Note_on_c, 0, 32, 0
1, 171958, Note_on_c, 0, 44, 0
1, 171985, Note_on_c, 0, 61, 0
1, 171985, Note_on_c, 0, 51, 53
1, 171985, Note_on_c, 0, 54, 62
1, 171988, Note_on_c, 0, 33, 62
1, 171988, Note_on_c, 0, 45, 74
1, 172001, Control_c, 0, 64, 0
1, 172053, Note_on_c, 0, 54, 0
1, 172053, Note_on_c, 0, 51, 0
1, 172053, Note_on_c, 0, 60, 54
1, 172056, Control_c, 0, 64, 127
1, 172093, Note_on_c, 0, 45, 0
1, 172093, Note_on_c, 0, 33, 0
1, 172120, Note_on_c, 0, 60, 0
1, 172120, Note_on_c, 0, 54, 57
1, 172120, Note_on_c, 0, 51, 48
1, 172123, Note_on_c, 0, 44, 64
1, 172123, Note_on_c, 0, 32, 53
1, 172187, Note_on_c, 0, 51, 0
1, 172187, Note_on_c, 0, 54, 0
1, 172187, Note_on_c, 0, 60, 56
1, 172227, Note_on_c, 0, 32, 0
1, 172227, Note_on_c, 0, 44, 0
1, 172254, Note_on_c, 0, 60, 0
1, 172254, Note_on_c, 0, 54, 58
1, 172254, Note_on_c, 0, 51, 49
1, 172257, Note_on_c, 0, 45, 74
1, 172257, Note_on_c, 0, 33, 62
1, 172322, Note_on_c, 0, 51, 0
1, 172322, Note_on_c, 0, 54, 0
1, 172322, Note_on_c, 0, 60, 57
1, 172362, Note_on_c, 0, 33, 0
1, 172362, Note_on_c, 0, 45, 0
1, 172389, Note_on_c, 0, 60, 0
1, 172389, Note_on_c, 0, 51, 51
1, 172389, Note_on_c, 0, 54, 60
1, 172392, Note_on_c, 0, 32, 57
1, 172392, Note_on_c, 0, 44, 68
1, 172473, Note_on_c, 0, 54, 0
1, 172473, Note_on_c, 0, 51, 0
1, 172473, Note_on_c, 0, 60, 57
1, 172523, Note_on_c, 0, 44, 0
1, 172523, Note_on_c, 0, 32, 0
1, 172557, Note_on_c, 0, 60, 0
1, 172557, Note_on_c, 0, 61, 92
1, 172557, Note_on_c, 0, 49, 75
1, 172560, Note_on_c, 0, 52, 75
1, 172560, Note_on_c, 0, 37, 89
1, 172560, Note_on_c, 0, 25, 75
1, 172583, Control_c, 0, 64, 0
1, 172691, Note_on_c, 0, 52, 0
1, 172691, Note_on_c, 0, 49, 0
1, 172691, Note_on_c, 0, 61, 0
1, 172694, Note_on_c, 0, 25, 0
1, 172694, Note_on_c, 0, 37, 0
1, 172694, Control_c, 0, 64, 127
1, 173095, Note_on_c, 0, 61, 78
1, 173095, Note_on_c, 0, 57, 78
1, 173095, Note_on_c, 0, 54, 89
1, 173098, Note_on_c, 0, 42, 75
1, 173098, Note_on_c, 0, 49, 75
1, 173153, Note_on_c, 0, 57, 0
1, 173153, Note_on_c, 0, 61, 0
1, 173153, Note_on_c, 0, 66, 67
1, 173212, Note_on_c, 0, 69, 69
1, 173212, Note_on_c, 0, 66, 0
1, 173228, Note_on_c, 0, 49, 0
1, 173228, Note_on_c, 0, 42, 0
1, 173228, Note_on_c, 0, 54, 0
1, 173271, Note_on_c, 0, 69, 0
1, 173271, Note_on_c, 0, 73, 71
1, 173331, Note_on_c, 0, 78, 73
1, 173331, Note_on_c, 0, 73, 0
1, 173391, Note_on_c, 0, 78, 0
1, 173391, Note_on_c, 0, 81, 75
1, 173452, Note_on_c, 0, 81, 0
1, 173452, Note_on_c, 0, 85, 77
1, 173512, Note_on_c, 0, 90, 79
1, 173512, Note_on_c, 0, 85, 0
1, 173574, Note_on_c, 0, 93, 81
1, 173574, Note_on_c, 0, 90, 0
1, 173658, Note_on_c, 0, 93, 0
1, 173658, Note_on_c, 0, 92, 92
1, 173658, Note_on_c, 0, 85, 92
1, 173661, Note_on_c, 0, 97, 96
1, 173661, Note_on_c, 0, 52, 89
1, 173661, Note_on_c, 0, 37, 75
1, 173664, Note_on_c, 0, 44, 75
1, 173676, Control_c, 0, 64, 0
1, 173825, Control_c, 0, 64, 127
1, 173842, Note_on_c, 0, 97, 0
1, 173842, Note_on_c, 0, 85, 0
1, 173842, Note_on_c, 0, 92, 0
1, 173845, Note_on_c, 0, 44, 0
1, 173845, Note_on_c, 0, 37, 0
1, 173845, Note_on_c, 0, 52, 0
1, 174291, Control_c, 0, 64, 0
1, 175131, Note_on_c, 0, 63, 51
1, 175131, Note_on_c, 0, 59, 42
1, 175131, Note_on_c, 0, 56, 54
1, 175134, Note_on_c, 0, 44, 46
1, 175134, Control_c, 0, 64, 0
1, 175172, Control_c, 0, 64, 127
1, 175201, Note_on_c, 0, 59, 0
1, 175201, Note_on_c, 0, 63, 0
1, 175201, Note_on_c, 0, 68, 42
1, 175243, Note_on_c, 0, 44, 0
1, 175243, Note_on_c, 0, 56, 0
1, 175271, Note_on_c, 0, 68, 0
1, 175271, Note_on_c, 0, 59, 38
1, 175271, Note_on_c, 0, 63, 45
1, 175274, Note_on_c, 0, 43, 40
1, 175274, Note_on_c, 0, 55, 48
1, 175340, Note_on_c, 0, 63, 0
1, 175340, Note_on_c, 0, 59, 0
1, 175340, Note_on_c, 0, 68, 43
1, 175381, Note_on_c, 0, 55, 0
1, 175381, Note_on_c, 0, 43, 0
1, 175409, Note_on_c, 0, 68, 0
1, 175409, Note_on_c, 0, 59, 38
1, 175409, Note_on_c, 0, 63, 45
1, 175412, Note_on_c, 0, 54, 48
1, 175412, Note_on_c, 0, 42, 40
1, 175477, Note_on_c, 0, 63, 0
1, 175477, Note_on_c, 0, 59, 0
1, 175477, Note_on_c, 0, 68, 43
1, 175517, Note_on_c, 0, 42, 0
1, 175517, Note_on_c, 0, 54, 0
1, 175544, Note_on_c, 0, 68, 0
1, 175544, Note_on_c, 0, 59, 38
1, 175544, Note_on_c, 0, 63, 45
1, 175547, Note_on_c, 0, 53, 48
1, 175547, Note_on_c, 0, 41, 40
1, 175611, Note_on_c, 0, 63, 0
1, 175611, Note_on_c, 0, 59, 0
1, 175611, Note_on_c, 0, 68, 42
1, 175651, Note_on_c, 0, 41, 0
1, 175651, Note_on_c, 0, 53, 0
1, 175673, Control_c, 0, 64, 0
1, 175678, Note_on_c, 0, 68, 0
1, 175678, Note_on_c, 0, 59, 42
1, 175678, Note_on_c, 0, 63, 49
1, 175681, Note_on_c, 0, 40, 40
1, 175681, Note_on_c, 0, 52, 48
1, 175728, Control_c, 0, 64, 127
1, 175744, Note_on_c, 0, 63, 0
1, 175744, Note_on_c, 0, 59, 0
1, 175744, Note_on_c, 0, 68, 42
1, 175783, Note_on_c, 0, 52, 0
1, 175783, Note_on_c, 0, 40, 0
1, 175810, Note_on_c, 0, 68, 0
1, 175810, Note_on_c, 0, 63, 45
1, 175810, Note_on_c, 0, 59, 38
1, 175813, Note_on_c, 0, 51, 48
1, 175813, Note_on_c, 0, 39, 41
1, 175876, Note_on_c, 0, 59, 0
1, 175876, Note_on_c, 0, 63, 0
1, 175876, Note_on_c, 0, 68, 41
1, 175916, Note_on_c, 0, 39, 0
1, 175916, Note_on_c, 0, 51, 0
1, 175942, Note_on_c, 0, 68, 0
1, 175942, Note_on_c, 0, 59, 38
1, 175942, Note_on_c, 0, 63, 45
1, 175945, Note_on_c, 0, 50, 51
1, 175945, Note_on_c, 0, 38, 43
1, 176008, Note_on_c, 0, 63, 0
1, 176008, Note_on_c, 0, 59, 0
1, 176008, Note_on_c, 0, 68, 41
1, 176048, Note_on_c, 0, 38, 0
1, 176048, Note_on_c, 0, 50, 0
1, 176074, Note_on_c, 0, 68, 0
1, 176074, Note_on_c, 0, 63, 45
1, 176074, Note_on_c, 0, 59, 38
1, 176077, Note_on_c, 0, 39, 46
1, 176077, Note_on_c, 0, 51, 55
1, 176150, Note_on_c, 0, 59, 0
1, 176150, Note_on_c, 0, 63, 0
1, 176150, Note_on_c, 0, 68, 40
1, 176196, Note_on_c, 0, 51, 0
1, 176196, Note_on_c, 0, 39, 0
1, 176226, Note_on_c, 0, 68, 0
1, 176226, Note_on_c, 0, 64, 48
1, 176226, Note_on_c, 0, 61, 41
1, 176229, Note_on_c, 0, 52, 57
1, 176229, Note_on_c, 0, 40, 48
1, 176255, Control_c, 0, 64, 0
1, 176293, Note_on_c, 0, 61, 0
1, 176293, Note_on_c, 0, 64, 0
1, 176293, Note_on_c, 0, 73, 42
1, 176309, Control_c, 0, 64, 127
1, 176333, Note_on_c, 0, 40, 0
1, 176333, Note_on_c, 0, 52, 0
1, 176360, Note_on_c, 0, 73, 0
1, 176360, Note_on_c, 0, 61, 38
1, 176360, Note_on_c, 0, 64, 45
1, 176363, Note_on_c, 0, 51, 54
1, 176363, Note_on_c, 0, 39, 45
1, 176426, Note_on_c, 0, 64, 0
1, 176426, Note_on_c, 0, 61, 0
1, 176426, Note_on_c, 0, 73, 42
1, 176466, Note_on_c, 0, 39, 0
1, 176466, Note_on_c, 0, 51, 0
1, 176493, Note_on_c, 0, 73, 0
1, 176493, Note_on_c, 0, 64, 46
1, 176493, Note_on_c, 0, 61, 39
1, 176496, Note_on_c, 0, 38, 41
1, 176496, Note_on_c, 0, 50, 48
1, 176560, Note_on_c, 0, 61, 0
1, 176560, Note_on_c, 0, 64, 0
1, 176560, Note_on_c, 0, 73, 41
1, 176600, Note_on_c, 0, 50, 0
1, 176600, Note_on_c, 0, 38, 0
1, 176626, Note_on_c, 0, 73, 0
1, 176626, Note_on_c, 0, 61, 38
1, 176626, Note_on_c, 0, 64, 45
1, 176629, Note_on_c, 0, 49, 48
1, 176629, Note_on_c, 0, 37, 41
1, 176693, Note_on_c, 0, 64, 0
1, 176693, Note_on_c, 0, 61, 0
1, 176693, Note_on_c, 0, 73, 42
1, 176733, Note_on_c, 0, 37, 0
1, 176733, Note_on_c, 0, 49, 0
1, 176760, Note_on_c, 0, 73, 0
1, 176760, Note_on_c, 0, 64, 45
1, 176760, Note_on_c, 0, 61, 38
1, 176763, Note_on_c, 0, 48, 48
1, 176763, Note_on_c, 0, 36, 41
1, 176826, Note_on_c, 0, 61, 0
1, 176826, Note_on_c, 0, 64, 0
1, 176826, Note_on_c, 0, 73, 42
1, 176866, Note_on_c, 0, 36, 0
1, 176866, Note_on_c, 0, 48, 0
1, 176893, Note_on_c, 0, 73, 0
1, 176893, Note_on_c, 0, 64, 45
1, 176893, Note_on_c, 0, 61, 38
1, 176896, Note_on_c, 0, 35, 41
1, 176896, Note_on_c, 0, 47, 48
1, 176960, Note_on_c, 0, 61, 0
1, 176960, Note_on_c, 0, 64, 0
1, 176960, Note_on_c, 0, 73, 42
1, 177000, Note_on_c, 0, 47, 0
1, 177000, Note_on_c, 0, 35, 0
1, 177026, Note_on_c, 0, 73, 0
1, 177026, Note_on_c, 0, 61, 38
1, 177026, Note_on_c, 0, 64, 45
1, 177029, Note_on_c, 0, 46, 48
1, 177029, Note_on_c, 0, 34, 40
1, 177093, Note_on_c, 0, 64, 0
1, 177093, Note_on_c, 0, 61, 0
1, 177093, Note_on_c, 0, 73, 41
1, 177133, Note_on_c, 0, 34, 0
1, 177133, Note_on_c, 0, 46, 0
1, 177160, Note_on_c, 0, 73, 0
1, 177160, Note_on_c, 0, 64, 45
1, 177160, Note_on_c, 0, 61, 38
1, 177163, Note_on_c, 0, 43, 48
1, 177163, Note_on_c, 0, 31, 40
1, 177242, Note_on_c, 0, 61, 0
1, 177242, Note_on_c, 0, 64, 0
1, 177242, Note_on_c, 0, 73, 42
1, 177291, Note_on_c, 0, 31, 0
1, 177291, Note_on_c, 0, 43, 0
1, 177324, Note_on_c, 0, 73, 0
1, 177324, Note_on_c, 0, 59, 42
1, 177324, Note_on_c, 0, 63, 51
1, 177327, Note_on_c, 0, 32, 46
1, 177327, Note_on_c, 0, 44, 54
1, 177327, Control_c, 0, 64, 0
1, 177390, Note_on_c, 0, 63, 0
1, 177390, Note_on_c, 0, 59, 0
1, 177390, Note_on_c, 0, 71, 42
1, 177406, Control_c, 0, 64, 127
1, 177430, Note_on_c, 0, 44, 0
1, 177430, Note_on_c, 0, 32, 0
1, 177457, Note_on_c, 0, 71, 0
1, 177457, Note_on_c, 0, 63, 45
1, 177457, Note_on_c, 0, 59, 38
1, 177460, Note_on_c, 0, 45, 47
1, 177460, Note_on_c, 0, 33, 39
1, 177524, Note_on_c, 0, 59, 0
1, 177524, Note_on_c, 0, 63, 0
1, 177524, Note_on_c, 0, 71, 44
1, 177564, Note_on_c, 0, 33, 0
1, 177564, Note_on_c, 0, 45, 0
1, 177590, Note_on_c, 0, 71, 0
1, 177590, Note_on_c, 0, 63, 46
1, 177590, Note_on_c, 0, 59, 39
1, 177593, Note_on_c, 0, 46, 49
1, 177593, Note_on_c, 0, 34, 42
1, 177657, Note_on_c, 0, 59, 0
1, 177657, Note_on_c, 0, 63, 0
1, 177657, Note_on_c, 0, 71, 45
1, 177697, Note_on_c, 0, 34, 0
1, 177697, Note_on_c, 0, 46, 0
1, 177724, Note_on_c, 0, 71, 0
1, 177724, Note_on_c, 0, 59, 40
1, 177724, Note_on_c, 0, 63, 48
1, 177727, Note_on_c, 0, 35, 44
1, 177727, Note_on_c, 0, 47, 52
1, 177790, Note_on_c, 0, 63, 0
1, 177790, Note_on_c, 0, 59, 0
1, 177790, Note_on_c, 0, 71, 45
1, 177830, Note_on_c, 0, 47, 0
1, 177830, Note_on_c, 0, 35, 0
1, 177857, Note_on_c, 0, 71, 0
1, 177857, Note_on_c, 0, 61, 55
1, 177857, Note_on_c, 0, 57, 46
1, 177860, Note_on_c, 0, 48, 58
1, 177860, Note_on_c, 0, 36, 49
1, 177870, Control_c, 0, 64, 0
1, 177898, Control_c, 0, 64, 127
1, 177924, Note_on_c, 0, 57, 0
1, 177924, Note_on_c, 0, 61, 0
1, 177924, Note_on_c, 0, 69, 46
1, 177964, Note_on_c, 0, 36, 0
1, 177964, Note_on_c, 0, 48, 0
1, 177990, Note_on_c, 0, 69, 0
1, 177990, Note_on_c, 0, 57, 42
1, 177990, Note_on_c, 0, 61, 49
1, 177993, Note_on_c, 0, 49, 54
1, 177993, Note_on_c, 0, 37, 46
1, 178057, Note_on_c, 0, 61, 0
1, 178057, Note_on_c, 0, 57, 0
1, 178057, Note_on_c, 0, 69, 48
1, 178097, Note_on_c, 0, 37, 0
1, 178097, Note_on_c, 0, 49, 0
1, 178124, Note_on_c, 0, 69, 0
1, 178124, Note_on_c, 0, 57, 43
1, 178124, Note_on_c, 0, 61, 51
1, 178127, Note_on_c, 0, 36, 50
1, 178127, Note_on_c, 0, 48, 59
1, 178190, Note_on_c, 0, 61, 0
1, 178190, Note_on_c, 0, 57, 0
1, 178190, Note_on_c, 0, 69, 49
1, 178230, Note_on_c, 0, 48, 0
1, 178230, Note_on_c, 0, 36, 0
1, 178257, Note_on_c, 0, 69, 0
1, 178257, Note_on_c, 0, 57, 43
1, 178257, Note_on_c, 0, 61, 51
1, 178260, Note_on_c, 0, 49, 56
1, 178260, Note_on_c, 0, 37, 48
1, 178334, Note_on_c, 0, 61, 0
1, 178334, Note_on_c, 0, 57, 0
1, 178334, Note_on_c, 0, 69, 49
1, 178380, Note_on_c, 0, 37, 0
1, 178380, Note_on_c, 0, 49, 0
1, 178411, Note_on_c, 0, 69, 0
1, 178411, Note_on_c, 0, 59, 50
1, 178411, Note_on_c, 0, 63, 59
1, 178414, Note_on_c, 0, 50, 64
1, 178414, Note_on_c, 0, 38, 54
1, 178434, Control_c, 0, 64, 0
1, 178478, Note_on_c, 0, 63, 0
1, 178478, Note_on_c, 0, 59, 0
1, 178478, Note_on_c, 0, 68, 50
1, 178504, Control_c, 0, 64, 127
1, 178518, Note_on_c, 0, 38, 0
1, 178518, Note_on_c, 0, 50, 0
1, 178545, Note_on_c, 0, 68, 0
1, 178545, Note_on_c, 0, 59, 45
1, 178545, Note_on_c, 0, 63, 54
1, 178548, Note_on_c, 0, 51, 61
1, 178548, Note_on_c, 0, 39, 51
1, 178613, Note_on_c, 0, 63, 0
1, 178613, Note_on_c, 0, 59, 0
1, 178613, Note_on_c, 0, 68, 52
1, 178653, Note_on_c, 0, 39, 0
1, 178653, Note_on_c, 0, 51, 0
1, 178680, Note_on_c, 0, 68, 0
1, 178680, Note_on_c, 0, 63, 54
1, 178680, Note_on_c, 0, 59, 46
1, 178683, Note_on_c, 0, 50, 65
1, 178683, Note_on_c, 0, 38, 55
1, 178747, Note_on_c, 0, 59, 0
1, 178747, Note_on_c, 0, 63, 0
1, 178747, Note_on_c, 0, 68, 53
1, 178787, Note_on_c, 0, 38, 0
1, 178787, Note_on_c, 0, 50, 0
1, 178814, Note_on_c, 0, 68, 0
1, 178814, Note_on_c, 0, 59, 47
1, 178814, Note_on_c, 0, 63, 55
1, 178817, Note_on_c, 0, 51, 59
1, 178817, Note_on_c, 0, 39, 50
1, 178882, Note_on_c, 0, 63, 0
1, 178882, Note_on_c, 0, 59, 0
1, 178882, Note_on_c, 0, 68, 53
1, 178922, Note_on_c, 0, 39, 0
1, 178922, Note_on_c, 0, 51, 0
1, 178949, Note_on_c, 0, 68, 0
1, 178949, Note_on_c, 0, 61, 62
1, 178949, Note_on_c, 0, 58, 53
1, 178952, Note_on_c, 0, 52, 74
1, 178952, Note_on_c, 0, 40, 62
1, 178964, Control_c, 0, 64, 0
1, 179016, Note_on_c, 0, 58, 0
1, 179016, Note_on_c, 0, 61, 0
1, 179016, Note_on_c, 0, 67, 54
1, 179019, Control_c, 0, 64, 127
1, 179056, Note_on_c, 0, 40, 0
1, 179056, Note_on_c, 0, 52, 0
1, 179083, Note_on_c, 0, 67, 0
1, 179083, Note_on_c, 0, 58, 48
1, 179083, Note_on_c, 0, 61, 57
1, 179086, Note_on_c, 0, 39, 53
1, 179086, Note_on_c, 0, 51, 64
1, 179151, Note_on_c, 0, 61, 0
1, 179151, Note_on_c, 0, 58, 0
1, 179151, Note_on_c, 0, 67, 56
1, 179191, Note_on_c, 0, 51, 0
1, 179191, Note_on_c, 0, 39, 0
1, 179218, Note_on_c, 0, 67, 0
1, 179218, Note_on_c, 0, 58, 49
1, 179218, Note_on_c, 0, 61, 58
1, 179221, Note_on_c, 0, 52, 74
1, 179221, Note_on_c, 0, 40, 62
1, 179285, Note_on_c, 0, 61, 0
1, 179285, Note_on_c, 0, 58, 0
1, 179285, Note_on_c, 0, 67, 57
1, 179325, Note_on_c, 0, 40, 0
1, 179325, Note_on_c, 0, 52, 0
1, 179352, Note_on_c, 0, 67, 0
1, 179352, Note_on_c, 0, 61, 60
1, 179352, Note_on_c, 0, 58, 51
1, 179355, Note_on_c, 0, 51, 68
1, 179355, Note_on_c, 0, 39, 57
1, 179436, Note_on_c, 0, 58, 0
1, 179436, Note_on_c, 0, 61, 0
1, 179436, Note_on_c, 0, 67, 57
1, 179486, Note_on_c, 0, 39, 0
1, 179486, Note_on_c, 0, 51, 0
1, 179520, Note_on_c, 0, 67, 0
1, 179520, Note_on_c, 0, 56, 75
1, 179520, Note_on_c, 0, 68, 92
1, 179523, Note_on_c, 0, 59, 75
1, 179523, Note_on_c, 0, 32, 75
1, 179523, Note_on_c, 0, 44, 89
1, 179547, Control_c, 0, 64, 0
1, 179654, Note_on_c, 0, 59, 0
1, 179654, Note_on_c, 0, 68, 0
1, 179654, Note_on_c, 0, 56, 0
1, 179657, Note_on_c, 0, 44, 0
1, 179657, Note_on_c, 0, 32, 0
1, 179657, Control_c, 0, 64, 127
1, 180058, Note_on_c, 0, 64, 78
1, 180058, Note_on_c, 0, 68, 78
1, 180058, Note_on_c, 0, 56, 75
1, 180061, Note_on_c, 0, 61, 89
1, 180061, Note_on_c, 0, 49, 75
1, 180117, Note_on_c, 0, 68, 0
1, 180117, Note_on_c, 0, 64, 0
1, 180117, Note_on_c, 0, 73, 67
1, 180175, Note_on_c, 0, 76, 69
1, 180175, Note_on_c, 0, 73, 0
1, 180192, Note_on_c, 0, 49, 0
1, 180192, Note_on_c, 0, 61, 0
1, 180192, Note_on_c, 0, 56, 0
1, 180235, Note_on_c, 0, 76, 0
1, 180235, Note_on_c, 0, 80, 71
1, 180294, Note_on_c, 0, 85, 73
1, 180294, Note_on_c, 0, 80, 0
1, 180355, Note_on_c, 0, 85, 0
1, 180355, Note_on_c, 0, 88, 75
1, 180416, Note_on_c, 0, 88, 0
1, 180416, Note_on_c, 0, 92, 77
1, 180475, Note_on_c, 0, 97, 79
1, 180475, Note_on_c, 0, 92, 0
1, 180537, Note_on_c, 0, 100, 81
1, 180537, Note_on_c, 0, 97, 0
1, 180621, Note_on_c, 0, 100, 0
1, 180621, Note_on_c, 0, 92, 92
1, 180621, Note_on_c, 0, 104, 96
1, 180624, Note_on_c, 0, 99, 92
1, 180624, Note_on_c, 0, 51, 75
1, 180624, Note_on_c, 0, 59, 89
1, 180627, Note_on_c, 0, 44, 75
1, 180639, Control_c, 0, 64, 0
1, 180788, Control_c, 0, 64, 127
1, 180805, Note_on_c, 0, 99, 0
1, 180805, Note_on_c, 0, 104, 0
1, 180805, Note_on_c, 0, 92, 0
1, 180808, Note_on_c, 0, 44, 0
1, 180808, Note_on_c, 0, 59, 0
1, 180808, Note_on_c, 0, 51, 0
1, 181255, Control_c, 0, 64, 0
1, 181910, Note_on_c, 0, 47, 69
1, 181910, Note_on_c, 0, 35, 58
1, 182094, Note_on_c, 0, 80, 99
1, 182094, Note_on_c, 0, 68, 83
1, 182094, Note_on_c, 0, 35, 0
1, 182097, Note_on_c, 0, 47, 0
1, 182097, Note_on_c, 0, 52, 78
1, 182097, Note_on_c, 0, 40, 66
1, 182126, Control_c, 0, 64, 127
1, 182256, Note_on_c, 0, 40, 0
1, 182256, Note_on_c, 0, 52, 0
1, 182548, Note_on_c, 0, 56, 55
1, 182548, Note_on_c, 0, 64, 78
1, 182548, Note_on_c, 0, 59, 55
1, 182694, Note_on_c, 0, 59, 0
1, 182694, Note_on_c, 0, 64, 0
1, 182694, Note_on_c, 0, 56, 0
1, 182697, Note_on_c, 0, 56, 60
1, 182697, Note_on_c, 0, 64, 84
1, 182697, Note_on_c, 0, 59, 60
1, 183022, Note_on_c, 0, 59, 0
1, 183022, Note_on_c, 0, 64, 0
1, 183022, Note_on_c, 0, 56, 0
1, 183186, Note_on_c, 0, 68, 0
1, 183186, Note_on_c, 0, 80, 0
1, 183186, Note_on_c, 0, 81, 77
1, 183189, Note_on_c, 0, 69, 64
1, 183189, Note_on_c, 0, 35, 56
1, 183189, Note_on_c, 0, 47, 67
1, 183265, Note_on_c, 0, 69, 0
1, 183265, Note_on_c, 0, 81, 0
1, 183265, Note_on_c, 0, 83, 77
1, 183268, Note_on_c, 0, 71, 64
1, 183345, Note_on_c, 0, 71, 0
1, 183345, Note_on_c, 0, 83, 0
1, 183345, Note_on_c, 0, 64, 78
1, 183348, Note_on_c, 0, 76, 92
1, 183348, Note_on_c, 0, 47, 0
1, 183348, Note_on_c, 0, 35, 0
1, 183351, Note_on_c, 0, 52, 70
1, 183351, Note_on_c, 0, 40, 60
1, 183401, Control_c, 0, 64, 0
1, 183516, Note_on_c, 0, 40, 0
1, 183516, Note_on_c, 0, 52, 0
1, 183520, Control_c, 0, 64, 127
1, 183807, Note_on_c, 0, 59, 73
1, 183807, Note_on_c, 0, 56, 61
1, 183955, Note_on_c, 0, 56, 0
1, 183955, Note_on_c, 0, 59, 0
1, 183955, Note_on_c, 0, 56, 64
1, 183958, Note_on_c, 0, 59, 78
1, 184283, Note_on_c, 0, 76, 0
1, 184283, Note_on_c, 0, 64, 0
1, 184283, Note_on_c, 0, 59, 0
1, 184286, Note_on_c, 0, 56, 0
1, 184447, Note_on_c, 0, 63, 64
1, 184447, Note_on_c, 0, 75, 77
1, 184447, Note_on_c, 0, 47, 82
1, 184450, Note_on_c, 0, 35, 69
1, 184631, Note_on_c, 0, 75, 0
1, 184631, Note_on_c, 0, 63, 0
1, 184631, Note_on_c, 0, 66, 72
1, 184634, Note_on_c, 0, 78, 88
1, 184634, Note_on_c, 0, 35, 0
1, 184634, Note_on_c, 0, 47, 0
1, 184637, Note_on_c, 0, 51, 92
1, 184637, Note_on_c, 0, 39, 78
1, 184637, Control_c, 0, 64, 0
1, 184759, Control_c, 0, 64, 127
1, 184793, Note_on_c, 0, 39, 0
1, 184793, Note_on_c, 0, 51, 0
1, 185083, Note_on_c, 0, 59, 66
1, 185083, Note_on_c, 0, 57, 66
1, 185227, Note_on_c, 0, 57, 0
1, 185227, Note_on_c, 0, 59, 0
1, 185227, Note_on_c, 0, 57, 70
1, 185230, Note_on_c, 0, 59, 70
1, 185342, Note_on_c, 0, 78, 0
1, 185342, Note_on_c, 0, 66, 0
1, 185342, Note_on_c, 0, 64, 64
1, 185345, Note_on_c, 0, 76, 77
1, 185453, Note_on_c, 0, 76, 0
1, 185453, Note_on_c, 0, 64, 0
1, 185453, Note_on_c, 0, 66, 70
1, 185456, Note_on_c, 0, 78, 83
1, 185557, Note_on_c, 0, 78, 0
1, 185557, Note_on_c, 0, 66, 0
1, 185557, Note_on_c, 0, 80, 82
1, 185560, Note_on_c, 0, 68, 69
1, 185560, Note_on_c, 0, 59, 0
1, 185560, Note_on_c, 0, 57, 0
1, 185667, Note_on_c, 0, 68, 0
1, 185667, Note_on_c, 0, 80, 0
1, 185667, Note_on_c, 0, 78, 78
1, 185670, Note_on_c, 0, 66, 66
1, 185748, Note_on_c, 0, 66, 0
1, 185748, Note_on_c, 0, 78, 0
1, 185801, Note_on_c, 0, 35, 67
1, 185801, Note_on_c, 0, 47, 79
1, 185848, Note_on_c, 0, 64, 66
1, 185848, Note_on_c, 0, 76, 78
1, 185884, Control_c, 0, 64, 0
1, 185944, Note_on_c, 0, 76, 0
1, 185944, Note_on_c, 0, 64, 0
1, 185944, Note_on_c, 0, 64, 77
1, 185947, Note_on_c, 0, 76, 92
1, 185947, Note_on_c, 0, 47, 0
1, 185947, Note_on_c, 0, 40, 70
1, 185950, Note_on_c, 0, 52, 84
1, 185957, Note_on_c, 0, 35, 0
1, 186060, Control_c, 0, 64, 127
1, 186115, Note_on_c, 0, 52, 0
1, 186115, Note_on_c, 0, 40, 0
1, 186398, Note_on_c, 0, 59, 77
1, 186398, Note_on_c, 0, 56, 64
1, 186539, Note_on_c, 0, 56, 0
1, 186539, Note_on_c, 0, 59, 0
1, 186539, Note_on_c, 0, 59, 82
1, 186542, Note_on_c, 0, 56, 68
1, 186867, Note_on_c, 0, 76, 0
1, 186867, Note_on_c, 0, 64, 0
1, 186867, Note_on_c, 0, 56, 0
1, 186870, Note_on_c, 0, 59, 0
1, 187031, Note_on_c, 0, 68, 70
1, 187031, Note_on_c, 0, 76, 70
1, 187031, Note_on_c, 0, 80, 83
1, 187034, Note_on_c, 0, 47, 82
1, 187034, Note_on_c, 0, 35, 69
1, 187195, Note_on_c, 0, 80, 0
1, 187195, Note_on_c, 0, 76, 0
1, 187195, Note_on_c, 0, 68, 0
1, 187198, Note_on_c, 0, 80, 92
1, 187198, Note_on_c, 0, 76, 78
1, 187198, Note_on_c, 0, 68, 78
1, 187201, Note_on_c, 0, 35, 0
1, 187201, Note_on_c, 0, 47, 0
1, 187201, Note_on_c, 0, 52, 92
1, 187204, Note_on_c, 0, 40, 78
1, 187204, Control_c, 0, 64, 0
1, 187288, Control_c, 0, 64, 127
1, 187338, Note_on_c, 0, 40, 0
1, 187338, Note_on_c, 0, 52, 0
1, 187787, Note_on_c, 0, 68, 0
1, 187787, Note_on_c, 0, 76, 0
1, 187787, Note_on_c, 0, 80, 0
1, 187790, Note_on_c, 0, 68, 68
1, 187790, Note_on_c, 0, 80, 80
1, 187790, Note_on_c, 0, 64, 63
1, 187793, Note_on_c, 0, 52, 53
1, 187796, Control_c, 0, 64, 0
1, 187994, Note_on_c, 0, 80, 0
1, 187994, Note_on_c, 0, 68, 0
1, 187994, Note_on_c, 0, 81, 82
1, 187997, Note_on_c, 0, 69, 69
1, 187997, Note_on_c, 0, 52, 0
1, 187997, Note_on_c, 0, 64, 0
1, 188000, Note_on_c, 0, 54, 56
1, 188000, Note_on_c, 0, 66, 66
1, 188193, Note_on_c, 0, 69, 0
1, 188193, Note_on_c, 0, 81, 0
1, 188193, Note_on_c, 0, 83, 88
1, 188196, Note_on_c, 0, 71, 74
1, 188196, Note_on_c, 0, 66, 0
1, 188196, Note_on_c, 0, 54, 0
1, 188199, Note_on_c, 0, 56, 59
1, 188199, Note_on_c, 0, 68, 70
1, 188384, Note_on_c, 0, 71, 0
1, 188384, Note_on_c, 0, 83, 0
1, 188384, Note_on_c, 0, 73, 66
1, 188387, Note_on_c, 0, 85, 92
1, 188387, Note_on_c, 0, 68, 0
1, 188387, Note_on_c, 0, 56, 0
1, 188390, Note_on_c, 0, 57, 51
1, 188390, Note_on_c, 0, 69, 73
1, 188457, Control_c, 0, 64, 127
1, 188948, Note_on_c, 0, 85, 0
1, 188948, Note_on_c, 0, 73, 0
1, 188948, Note_on_c, 0, 61, 75
1, 188951, Note_on_c, 0, 64, 75
1, 188951, Note_on_c, 0, 73, 90
1, 188951, Note_on_c, 0, 69, 0
1, 188954, Note_on_c, 0, 57, 0
1, 188954, Note_on_c, 0, 45, 60
1, 188954, Note_on_c, 0, 57, 71
1, 188957, Note_on_c, 0, 52, 60
1, 188957, Control_c, 0, 64, 0
1, 189166, Note_on_c, 0, 73, 0
1, 189166, Note_on_c, 0, 64, 0
1, 189166, Note_on_c, 0, 61, 0
1, 189169, Note_on_c, 0, 71, 84
1, 189169, Note_on_c, 0, 59, 71
1, 189169, Note_on_c, 0, 64, 71
1, 189172, Note_on_c, 0, 52, 0
1, 189172, Note_on_c, 0, 57, 0
1, 189172, Note_on_c, 0, 45, 0
1, 189175, Note_on_c, 0, 44, 56
1, 189175, Note_on_c, 0, 56, 67
1, 189175, Note_on_c, 0, 52, 56
1, 189378, Note_on_c, 0, 64, 0
1, 189378, Note_on_c, 0, 59, 0
1, 189378, Note_on_c, 0, 71, 0
1, 189381, Note_on_c, 0, 64, 67
1, 189381, Note_on_c, 0, 70, 79
1, 189381, Note_on_c, 0, 58, 67
1, 189384, Note_on_c, 0, 52, 0
1, 189384, Note_on_c, 0, 56, 0
1, 189384, Note_on_c, 0, 44, 0
1, 189387, Note_on_c, 0, 52, 52
1, 189387, Note_on_c, 0, 43, 52
1, 189387, Note_on_c, 0, 55, 62
1, 189581, Note_on_c, 0, 58, 0
1, 189581, Note_on_c, 0, 70, 0
1, 189581, Note_on_c, 0, 64, 0
1, 189584, Note_on_c, 0, 59, 78
1, 189584, Note_on_c, 0, 64, 78
1, 189584, Note_on_c, 0, 71, 92
1, 189587, Note_on_c, 0, 55, 0
1, 189587, Note_on_c, 0, 43, 0
1, 189587, Note_on_c, 0, 52, 0
1, 189590, Note_on_c, 0, 52, 71
1, 189590, Note_on_c, 0, 44, 71
1, 189590, Note_on_c, 0, 56, 84
1, 189593, Control_c, 0, 64, 0
1, 190216, Note_on_c, 0, 71, 0
1, 190216, Note_on_c, 0, 64, 0
1, 190216, Note_on_c, 0, 59, 0
1, 190219, Note_on_c, 0, 64, 77
1, 190219, Note_on_c, 0, 56, 77
1, 190219, Note_on_c, 0, 52, 77
1, 190222, Note_on_c, 0, 56, 0
1, 190222, Note_on_c, 0, 44, 0
1, 190222, Note_on_c, 0, 52, 0
1, 190225, Note_on_c, 0, 44, 71
1, 190225, Note_on_c, 0, 37, 71
1, 190225, Note_on_c, 0, 49, 84
1, 190692, Note_on_c, 0, 52, 0
1, 190692, Note_on_c, 0, 64, 0
1, 190692, Note_on_c, 0, 63, 77
1, 190695, Note_on_c, 0, 51, 77
1, 190850, Control_c, 0, 64, 0
1, 190850, Note_on_c, 0, 51, 0
1, 190850, Note_on_c, 0, 63, 0
1, 190850, Note_on_c, 0, 56, 0
1, 190850, Note_on_c, 0, 63, 88
1, 190850, Note_on_c, 0, 51, 72
1, 190850, Note_on_c, 0, 57, 72
1, 190850, Note_on_c, 0, 49, 0
1, 190850, Note_on_c, 0, 37, 0
1, 190850, Note_on_c, 0, 44, 0
1, 190850, Note_on_c, 0, 42, 71
1, 190850, Note_on_c, 0, 35, 71
1, 190850, Note_on_c, 0, 45, 71
1, 190850, Note_on_c, 0, 47, 84
1, 190970, Control_c, 0, 64, 127
1, 191588, Note_on_c, 0, 64, 77
1, 191588, Note_on_c, 0, 52, 64
1, 191599, Note_on_c, 0, 57, 0
1, 191599, Note_on_c, 0, 63, 0
1, 191599, Note_on_c, 0, 51, 0
1, 191708, Note_on_c, 0, 64, 0
1, 191708, Note_on_c, 0, 52, 0
1, 191708, Note_on_c, 0, 54, 70
1, 191711, Note_on_c, 0, 66, 83
1, 191823, Note_on_c, 0, 66, 0
1, 191823, Note_on_c, 0, 54, 0
1, 191823, Note_on_c, 0, 68, 82
1, 191826, Note_on_c, 0, 56, 69
1, 191833, Note_on_c, 0, 47, 0
1, 191833, Note_on_c, 0, 42, 0
1, 191833, Note_on_c, 0, 35, 0
1, 191836, Note_on_c, 0, 45, 0
1, 191937, Note_on_c, 0, 56, 0
1, 191937, Note_on_c, 0, 68, 0
1, 191937, Note_on_c, 0, 66, 78
1, 191940, Note_on_c, 0, 54, 66
1, 192023, Note_on_c, 0, 54, 0
1, 192023, Note_on_c, 0, 66, 0
1, 192096, Note_on_c, 0, 28, 61
1, 192096, Note_on_c, 0, 40, 72
1, 192127, Note_on_c, 0, 52, 66
1, 192127, Note_on_c, 0, 64, 78
1, 192163, Control_c, 0, 64, 0
1, 192223, Note_on_c, 0, 64, 0
1, 192223, Note_on_c, 0, 52, 0
1, 192233, Note_on_c, 0, 64, 71
1, 192233, Note_on_c, 0, 52, 71
1, 192233, Note_on_c, 0, 40, 0
1, 192236, Note_on_c, 0, 28, 0
1, 192236, Note_on_c, 0, 40, 77
1, 192236, Note_on_c, 0, 28, 77
1, 192341, Note_on_c, 0, 52, 0
1, 192341, Note_on_c, 0, 64, 0
1, 192341, Note_on_c, 0, 56, 72
1, 192344, Note_on_c, 0, 28, 0
1, 192344, Note_on_c, 0, 40, 0
1, 192344, Note_on_c, 0, 44, 68
1, 192367, Control_c, 0, 64, 127
1, 192449, Note_on_c, 0, 56, 0
1, 192449, Note_on_c, 0, 59, 73
1, 192449, Note_on_c, 0, 44, 0
1, 192452, Note_on_c, 0, 47, 70
1, 192555, Note_on_c, 0, 59, 0
1, 192555, Note_on_c, 0, 64, 74
1, 192555, Note_on_c, 0, 47, 0
1, 192558, Note_on_c, 0, 52, 71
1, 192661, Note_on_c, 0, 64, 0
1, 192661, Note_on_c, 0, 68, 75
1, 192661, Note_on_c, 0, 52, 0
1, 192664, Note_on_c, 0, 56, 73
1, 192767, Note_on_c, 0, 68, 0
1, 192767, Note_on_c, 0, 71, 75
1, 192767, Note_on_c, 0, 56, 0
1, 192770, Note_on_c, 0, 59, 75
1, 192871, Note_on_c, 0, 71, 0
1, 192871, Note_on_c, 0, 76, 77
1, 192871, Note_on_c, 0, 59, 0
1, 192874, Note_on_c, 0, 64, 78
1, 192975, Note_on_c, 0, 76, 0
1, 192975, Note_on_c, 0, 80, 78
1, 192975, Note_on_c, 0, 64, 0
1, 192978, Note_on_c, 0, 59, 79
1, 193080, Note_on_c, 0, 80, 0
1, 193080, Note_on_c, 0, 83, 79
1, 193080, Note_on_c, 0, 59, 0
1, 193083, Note_on_c, 0, 56, 81
1, 193185, Note_on_c, 0, 83, 0
1, 193185, Note_on_c, 0, 88, 80
1, 193185, Note_on_c, 0, 56, 0
1, 193188, Note_on_c, 0, 52, 82
1, 193292, Note_on_c, 0, 88, 0
1, 193292, Note_on_c, 0, 92, 81
1, 193292, Note_on_c, 0, 52, 0
1, 193295, Note_on_c, 0, 47, 84
1, 193400, Note_on_c, 0, 92, 0
1, 193400, Note_on_c, 0, 95, 82
1, 193400, Note_on_c, 0, 47, 0
1, 193403, Note_on_c, 0, 44, 86
1, 193509, Note_on_c, 0, 95, 0
1, 193509, Note_on_c, 0, 92, 93
1, 193509, Note_on_c, 0, 88, 93
1, 193512, Note_on_c, 0, 100, 93
1, 193512, Note_on_c, 0, 44, 0
1, 193512, Note_on_c, 0, 40, 84
1, 193515, Note_on_c, 0, 52, 84
1, 193515, Note_on_c, 0, 47, 84
1, 193515, Control_c, 0, 64, 0
1, 193675, Note_on_c, 0, 100, 0
1, 193675, Note_on_c, 0, 88, 0
1, 193675, Note_on_c, 0, 92, 0
1, 193678, Note_on_c, 0, 47, 0
1, 193678, Note_on_c, 0, 52, 0
1, 193678, Note_on_c, 0, 40, 0
1, 194670, Note_on_c, 0, 32, 58
1, 194670, Note_on_c, 0, 44, 69
1, 194854, Note_on_c, 0, 80, 86
1, 194854, Note_on_c, 0, 88, 103
1, 194854, Note_on_c, 0, 76, 86
1, 194857, Note_on_c, 0, 85, 86
1, 194857, Note_on_c, 0, 44, 0
1, 194857, Note_on_c, 0, 32, 0
1, 194860, Note_on_c, 0, 49, 78
1, 194860, Note_on_c, 0, 37, 66
1, 194886, Control_c, 0, 64, 127
1, 195016, Note_on_c, 0, 37, 0
1, 195016, Note_on_c, 0, 49, 0
1, 195309, Note_on_c, 0, 61, 55
1, 195309, Note_on_c, 0, 64, 55
1, 195309, Note_on_c, 0, 68, 78
1, 195312, Note_on_c, 0, 56, 55
1, 195450, Note_on_c, 0, 56, 0
1, 195450, Note_on_c, 0, 61, 0
1, 195450, Note_on_c, 0, 64, 0
1, 195453, Note_on_c, 0, 68, 0
1, 195453, Note_on_c, 0, 56, 60
1, 195453, Note_on_c, 0, 64, 60
1, 195456, Note_on_c, 0, 68, 84
1, 195456, Note_on_c, 0, 61, 60
1, 195778, Note_on_c, 0, 61, 0
1, 195778, Note_on_c, 0, 56, 0
1, 195778, Note_on_c, 0, 64, 0
1, 195781, Note_on_c, 0, 68, 0
1, 195942, Note_on_c, 0, 85, 0
1, 195942, Note_on_c, 0, 80, 0
1, 195942, Note_on_c, 0, 88, 0
1, 195945, Note_on_c, 0, 76, 0
1, 195945, Note_on_c, 0, 90, 80
1, 195945, Note_on_c, 0, 78, 67
1, 195948, Note_on_c, 0, 32, 56
1, 195948, Note_on_c, 0, 44, 67
1, 196021, Note_on_c, 0, 78, 0
1, 196021, Note_on_c, 0, 90, 0
1, 196021, Note_on_c, 0, 80, 67
1, 196024, Note_on_c, 0, 92, 80
1, 196101, Note_on_c, 0, 92, 0
1, 196101, Note_on_c, 0, 80, 0
1, 196101, Note_on_c, 0, 85, 96
1, 196104, Note_on_c, 0, 73, 81
1, 196104, Note_on_c, 0, 44, 0
1, 196104, Note_on_c, 0, 32, 0
1, 196107, Note_on_c, 0, 49, 70
1, 196107, Note_on_c, 0, 37, 60
1, 196157, Control_c, 0, 64, 0
1, 196272, Note_on_c, 0, 37, 0
1, 196272, Note_on_c, 0, 49, 0
1, 196276, Control_c, 0, 64, 127
1, 196563, Note_on_c, 0, 64, 61
1, 196563, Note_on_c, 0, 56, 61
1, 196563, Note_on_c, 0, 61, 61
1, 196566, Note_on_c, 0, 68, 73
1, 196710, Note_on_c, 0, 68, 0
1, 196710, Note_on_c, 0, 64, 0
1, 196710, Note_on_c, 0, 56, 0
1, 196713, Note_on_c, 0, 61, 0
1, 196713, Note_on_c, 0, 68, 78
1, 196713, Note_on_c, 0, 56, 64
1, 196716, Note_on_c, 0, 61, 64
1, 196716, Note_on_c, 0, 64, 64
1, 197038, Note_on_c, 0, 73, 0
1, 197038, Note_on_c, 0, 85, 0
1, 197038, Note_on_c, 0, 64, 0
1, 197041, Note_on_c, 0, 68, 0
1, 197041, Note_on_c, 0, 56, 0
1, 197041, Note_on_c, 0, 61, 0
1, 197201, Note_on_c, 0, 84, 80
1, 197201, Note_on_c, 0, 72, 67
1, 197201, Note_on_c, 0, 32, 69
1, 197204, Note_on_c, 0, 44, 82
1, 197386, Note_on_c, 0, 72, 0
1, 197386, Note_on_c, 0, 84, 0
1, 197386, Note_on_c, 0, 75, 75
1, 197389, Note_on_c, 0, 87, 92
1, 197389, Note_on_c, 0, 44, 0
1, 197389, Note_on_c, 0, 32, 0
1, 197392, Note_on_c, 0, 48, 92
1, 197392, Note_on_c, 0, 36, 78
1, 197392, Control_c, 0, 64, 0
1, 197514, Control_c, 0, 64, 127
1, 197548, Note_on_c, 0, 36, 0
1, 197548, Note_on_c, 0, 48, 0
1, 197838, Note_on_c, 0, 68, 66
1, 197838, Note_on_c, 0, 66, 66
1, 197838, Note_on_c, 0, 63, 66
1, 197841, Note_on_c, 0, 56, 66
1, 197983, Note_on_c, 0, 56, 0
1, 197983, Note_on_c, 0, 68, 0
1, 197983, Note_on_c, 0, 66, 0
1, 197986, Note_on_c, 0, 63, 0
1, 197986, Note_on_c, 0, 56, 70
1, 197986, Note_on_c, 0, 66, 70
1, 197989, Note_on_c, 0, 63, 70
1, 197989, Note_on_c, 0, 68, 70
1, 198098, Note_on_c, 0, 87, 0
1, 198098, Note_on_c, 0, 75, 0
1, 198098, Note_on_c, 0, 73, 67
1, 198101, Note_on_c, 0, 85, 80
1, 198209, Note_on_c, 0, 85, 0
1, 198209, Note_on_c, 0, 73, 0
1, 198209, Note_on_c, 0, 75, 73
1, 198212, Note_on_c, 0, 87, 86
1, 198313, Note_on_c, 0, 87, 0
1, 198313, Note_on_c, 0, 75, 0
1, 198313, Note_on_c, 0, 88, 85
1, 198316, Note_on_c, 0, 76, 72
1, 198316, Note_on_c, 0, 68, 0
1, 198316, Note_on_c, 0, 56, 0
1, 198319, Note_on_c, 0, 66, 0
1, 198319, Note_on_c, 0, 63, 0
1, 198423, Note_on_c, 0, 76, 0
1, 198423, Note_on_c, 0, 88, 0
1, 198423, Note_on_c, 0, 87, 81
1, 198426, Note_on_c, 0, 75, 69
1, 198504, Note_on_c, 0, 75, 0
1, 198504, Note_on_c, 0, 87, 0
1, 198557, Note_on_c, 0, 32, 67
1, 198557, Note_on_c, 0, 44, 79
1, 198604, Note_on_c, 0, 73, 69
1, 198604, Note_on_c, 0, 85, 81
1, 198640, Control_c, 0, 64, 0
1, 198700, Note_on_c, 0, 85, 0
1, 198700, Note_on_c, 0, 73, 0
1, 198700, Note_on_c, 0, 73, 80
1, 198703, Note_on_c, 0, 85, 96
1, 198703, Note_on_c, 0, 44, 0
1, 198703, Note_on_c, 0, 32, 0
1, 198706, Note_on_c, 0, 49, 84
1, 198706, Note_on_c, 0, 37, 70
1, 198815, Control_c, 0, 64, 127
1, 198871, Note_on_c, 0, 37, 0
1, 198871, Note_on_c, 0, 49, 0
1, 199160, Note_on_c, 0, 56, 64
1, 199160, Note_on_c, 0, 64, 64
1, 199160, Note_on_c, 0, 61, 64
1, 199163, Note_on_c, 0, 68, 77
1, 199318, Note_on_c, 0, 68, 0
1, 199318, Note_on_c, 0, 56, 0
1, 199318, Note_on_c, 0, 64, 0
1, 199321, Note_on_c, 0, 61, 0
1, 199321, Note_on_c, 0, 68, 82
1, 199321, Note_on_c, 0, 64, 68
1, 199324, Note_on_c, 0, 61, 68
1, 199324, Note_on_c, 0, 56, 68
1, 199645, Note_on_c, 0, 85, 0
1, 199645, Note_on_c, 0, 73, 0
1, 199645, Note_on_c, 0, 56, 0
1, 199648, Note_on_c, 0, 68, 0
1, 199648, Note_on_c, 0, 64, 0
1, 199648, Note_on_c, 0, 61, 0
1, 199804, Control_c, 0, 64, 0
1, 199901, Note_on_c, 0, 29, 69
1, 199901, Note_on_c, 0, 53, 82
1, 199901, Note_on_c, 0, 41, 69
1, 199994, Note_on_c, 0, 41, 0
1, 199994, Note_on_c, 0, 53, 0
1, 199994, Note_on_c, 0, 29, 0
1, 199997, Note_on_c, 0, 42, 78
1, 199997, Note_on_c, 0, 54, 92
1, 199997, Note_on_c, 0, 30, 78
1, 200113, Control_c, 0, 64, 127
1, 200904, Note_on_c, 0, 30, 0
1, 200904, Note_on_c, 0, 54, 0
1, 200904, Note_on_c, 0, 42, 0
1, 201101, Note_on_c, 0, 85, 80
1, 201101, Note_on_c, 0, 73, 68
1, 201101, Note_on_c, 0, 81, 68
1, 201104, Note_on_c, 0, 57, 53
1, 201104, Note_on_c, 0, 69, 63
1, 201104, Note_on_c, 0, 61, 53
1, 201166, Note_on_c, 0, 81, 0
1, 201166, Note_on_c, 0, 73, 0
1, 201166, Note_on_c, 0, 85, 0
1, 201169, Note_on_c, 0, 81, 74
1, 201169, Note_on_c, 0, 85, 89
1, 201169, Note_on_c, 0, 73, 74
1, 201172, Note_on_c, 0, 61, 0
1, 201172, Note_on_c, 0, 69, 0
1, 201172, Note_on_c, 0, 57, 0
1, 201175, Note_on_c, 0, 57, 59
1, 201175, Note_on_c, 0, 69, 70
1, 201175, Note_on_c, 0, 61, 59
1, 201374, Note_on_c, 0, 73, 0
1, 201374, Note_on_c, 0, 85, 0
1, 201374, Note_on_c, 0, 81, 0
1, 201377, Note_on_c, 0, 71, 67
1, 201377, Note_on_c, 0, 80, 67
1, 201377, Note_on_c, 0, 83, 79
1, 201380, Note_on_c, 0, 61, 0
1, 201380, Note_on_c, 0, 69, 0
1, 201380, Note_on_c, 0, 57, 0
1, 201383, Note_on_c, 0, 56, 52
1, 201383, Note_on_c, 0, 68, 62
1, 201383, Note_on_c, 0, 59, 52
1, 201443, Note_on_c, 0, 83, 0
1, 201443, Note_on_c, 0, 80, 0
1, 201443, Note_on_c, 0, 71, 0
1, 201446, Note_on_c, 0, 80, 73
1, 201446, Note_on_c, 0, 83, 86
1, 201446, Note_on_c, 0, 71, 73
1, 201449, Note_on_c, 0, 59, 0
1, 201449, Note_on_c, 0, 68, 0
1, 201449, Note_on_c, 0, 56, 0
1, 201452, Note_on_c, 0, 56, 58
1, 201452, Note_on_c, 0, 68, 69
1, 201452, Note_on_c, 0, 59, 58
1, 201664, Note_on_c, 0, 71, 0
1, 201664, Note_on_c, 0, 83, 0
1, 201664, Note_on_c, 0, 80, 0
1, 201667, Note_on_c, 0, 81, 79
1, 201667, Note_on_c, 0, 69, 67
1, 201667, Note_on_c, 0, 78, 67
1, 201670, Note_on_c, 0, 59, 0
1, 201670, Note_on_c, 0, 68, 0
1, 201670, Note_on_c, 0, 56, 0
1, 201673, Note_on_c, 0, 54, 52
1, 201673, Note_on_c, 0, 66, 62
1, 201673, Note_on_c, 0, 57, 52
1, 201747, Note_on_c, 0, 78, 0
1, 201747, Note_on_c, 0, 69, 0
1, 201747, Note_on_c, 0, 81, 0
1, 201750, Note_on_c, 0, 81, 86
1, 201750, Note_on_c, 0, 69, 73
1, 201750, Note_on_c, 0, 78, 73
1, 201753, Note_on_c, 0, 57, 0
1, 201753, Note_on_c, 0, 66, 0
1, 201753, Note_on_c, 0, 54, 0
1, 201756, Note_on_c, 0, 54, 58
1, 201756, Note_on_c, 0, 66, 69
1, 201756, Note_on_c, 0, 57, 58
1, 201805, Control_c, 0, 64, 0
1, 202078, Note_on_c, 0, 78, 0
1, 202078, Note_on_c, 0, 69, 0
1, 202078, Note_on_c, 0, 81, 0
1, 202081, Note_on_c, 0, 57, 0
1, 202081, Note_on_c, 0, 66, 0
1, 202081, Note_on_c, 0, 54, 0
1, 202327, Note_on_c, 0, 61, 82
1, 202327, Note_on_c, 0, 49, 69
1, 202327, Note_on_c, 0, 37, 69
1, 202419, Note_on_c, 0, 61, 0
1, 202419, Note_on_c, 0, 62, 92
1, 202419, Note_on_c, 0, 37, 0
1, 202422, Note_on_c, 0, 49, 0
1, 202422, Note_on_c, 0, 50, 78
1, 202422, Note_on_c, 0, 38, 78
1, 202538, Control_c, 0, 64, 127
1, 203330, Note_on_c, 0, 62, 0
1, 203330, Note_on_c, 0, 38, 0
1, 203330, Note_on_c, 0, 50, 0
1, 203526, Note_on_c, 0, 78, 68
1, 203526, Note_on_c, 0, 81, 68
1, 203526, Note_on_c, 0, 90, 80
1, 203529, Note_on_c, 0, 69, 63
1, 203529, Note_on_c, 0, 66, 53
1, 203592, Note_on_c, 0, 90, 0
1, 203592, Note_on_c, 0, 81, 0
1, 203592, Note_on_c, 0, 78, 0
1, 203595, Note_on_c, 0, 90, 89
1, 203595, Note_on_c, 0, 81, 74
1, 203595, Note_on_c, 0, 78, 74
1, 203598, Note_on_c, 0, 66, 0
1, 203598, Note_on_c, 0, 69, 0
1, 203598, Note_on_c, 0, 66, 59
1, 203601, Note_on_c, 0, 69, 70
1, 203799, Note_on_c, 0, 78, 0
1, 203799, Note_on_c, 0, 81, 0
1, 203799, Note_on_c, 0, 90, 0
1, 203802, Note_on_c, 0, 76, 67
1, 203802, Note_on_c, 0, 88, 79
1, 203802, Note_on_c, 0, 80, 67
1, 203805, Note_on_c, 0, 69, 0
1, 203805, Note_on_c, 0, 66, 0
1, 203805, Note_on_c, 0, 68, 62
1, 203808, Note_on_c, 0, 64, 52
1, 203868, Note_on_c, 0, 80, 0
1, 203868, Note_on_c, 0, 88, 0
1, 203868, Note_on_c, 0, 76, 0
1, 203871, Note_on_c, 0, 76, 73
1, 203871, Note_on_c, 0, 88, 86
1, 203871, Note_on_c, 0, 80, 73
1, 203874, Note_on_c, 0, 64, 0
1, 203874, Note_on_c, 0, 68, 0
1, 203874, Note_on_c, 0, 68, 69
1, 203877, Note_on_c, 0, 64, 58
1, 204089, Note_on_c, 0, 80, 0
1, 204089, Note_on_c, 0, 88, 0
1, 204089, Note_on_c, 0, 76, 0
1, 204092, Note_on_c, 0, 78, 67
1, 204092, Note_on_c, 0, 74, 67
1, 204092, Note_on_c, 0, 86, 79
1, 204095, Note_on_c, 0, 64, 0
1, 204095, Note_on_c, 0, 68, 0
1, 204095, Note_on_c, 0, 62, 52
1, 204098, Note_on_c, 0, 66, 62
1, 204172, Note_on_c, 0, 86, 0
1, 204172, Note_on_c, 0, 74, 0
1, 204172, Note_on_c, 0, 78, 0
1, 204175, Note_on_c, 0, 74, 73
1, 204175, Note_on_c, 0, 78, 73
1, 204175, Note_on_c, 0, 86, 86
1, 204178, Note_on_c, 0, 66, 0
1, 204178, Note_on_c, 0, 62, 0
1, 204178, Note_on_c, 0, 66, 69
1, 204181, Note_on_c, 0, 62, 58
1, 204230, Control_c, 0, 64, 0
1, 204504, Note_on_c, 0, 86, 0
1, 204504, Note_on_c, 0, 78, 0
1, 204504, Note_on_c, 0, 74, 0
1, 204507, Note_on_c, 0, 62, 0
1, 204507, Note_on_c, 0, 66, 0
1, 204753, Note_on_c, 0, 58, 82
1, 204753, Note_on_c, 0, 34, 69
1, 204753, Note_on_c, 0, 46, 69
1, 204845, Note_on_c, 0, 58, 0
1, 204845, Note_on_c, 0, 59, 92
1, 204845, Note_on_c, 0, 46, 0
1, 204848, Note_on_c, 0, 34, 0
1, 204848, Note_on_c, 0, 47, 78
1, 204848, Note_on_c, 0, 35, 78
1, 205002, Control_c, 0, 64, 127
1, 205394, Note_on_c, 0, 90, 68
1, 205394, Note_on_c, 0, 93, 80
1, 205394, Note_on_c, 0, 85, 68
1, 205397, Note_on_c, 0, 57, 53
1, 205397, Note_on_c, 0, 69, 63
1, 205397, Note_on_c, 0, 66, 53
1, 205461, Note_on_c, 0, 85, 0
1, 205461, Note_on_c, 0, 59, 0
1, 205461, Note_on_c, 0, 90, 0
1, 205464, Note_on_c, 0, 93, 0
1, 205464, Note_on_c, 0, 93, 89
1, 205464, Note_on_c, 0, 85, 74
1, 205467, Note_on_c, 0, 90, 74
1, 205467, Note_on_c, 0, 66, 0
1, 205467, Note_on_c, 0, 57, 0
1, 205470, Note_on_c, 0, 47, 0
1, 205470, Note_on_c, 0, 35, 0
1, 205470, Note_on_c, 0, 69, 0
1, 205473, Note_on_c, 0, 66, 59
1, 205473, Note_on_c, 0, 69, 70
1, 205473, Note_on_c, 0, 57, 59
1, 205658, Note_on_c, 0, 90, 0
1, 205658, Note_on_c, 0, 85, 0
1, 205658, Note_on_c, 0, 93, 0
1, 205661, Note_on_c, 0, 92, 79
1, 205661, Note_on_c, 0, 80, 67
1, 205661, Note_on_c, 0, 88, 67
1, 205664, Note_on_c, 0, 57, 0
1, 205664, Note_on_c, 0, 69, 0
1, 205664, Note_on_c, 0, 66, 0
1, 205667, Note_on_c, 0, 68, 62
1, 205667, Note_on_c, 0, 56, 52
1, 205667, Note_on_c, 0, 64, 52
1, 205723, Note_on_c, 0, 88, 0
1, 205723, Note_on_c, 0, 80, 0
1, 205723, Note_on_c, 0, 92, 0
1, 205726, Note_on_c, 0, 88, 73
1, 205726, Note_on_c, 0, 92, 86
1, 205726, Note_on_c, 0, 80, 73
1, 205729, Note_on_c, 0, 64, 0
1, 205729, Note_on_c, 0, 56, 0
1, 205729, Note_on_c, 0, 68, 0
1, 205732, Note_on_c, 0, 68, 69
1, 205732, Note_on_c, 0, 56, 58
1, 205732, Note_on_c, 0, 64, 58
1, 205920, Note_on_c, 0, 80, 0
1, 205920, Note_on_c, 0, 92, 0
1, 205920, Note_on_c, 0, 88, 0
1, 205923, Note_on_c, 0, 78, 67
1, 205923, Note_on_c, 0, 87, 67
1, 205923, Note_on_c, 0, 90, 79
1, 205926, Note_on_c, 0, 64, 0
1, 205926, Note_on_c, 0, 56, 0
1, 205926, Note_on_c, 0, 68, 0
1, 205929, Note_on_c, 0, 66, 62
1, 205929, Note_on_c, 0, 54, 52
1, 205929, Note_on_c, 0, 63, 52
1, 206088, Note_on_c, 0, 90, 0
1, 206088, Note_on_c, 0, 87, 0
1, 206088, Note_on_c, 0, 78, 0
1, 206091, Note_on_c, 0, 60, 92
1, 206091, Note_on_c, 0, 63, 0
1, 206091, Note_on_c, 0, 54, 0
1, 206094, Note_on_c, 0, 66, 0
1, 206094, Note_on_c, 0, 36, 78
1, 206094, Note_on_c, 0, 48, 78
1, 206097, Control_c, 0, 64, 0
1, 206242, Control_c, 0, 64, 127
1, 206627, Note_on_c, 0, 90, 68
1, 206627, Note_on_c, 0, 93, 80
1, 206627, Note_on_c, 0, 85, 68
1, 206630, Note_on_c, 0, 66, 53
1, 206630, Note_on_c, 0, 57, 53
1, 206630, Note_on_c, 0, 69, 63
1, 206694, Note_on_c, 0, 85, 0
1, 206694, Note_on_c, 0, 60, 0
1, 206694, Note_on_c, 0, 90, 0
1, 206697, Note_on_c, 0, 93, 0
1, 206697, Note_on_c, 0, 93, 89
1, 206697, Note_on_c, 0, 85, 74
1, 206700, Note_on_c, 0, 90, 74
1, 206700, Note_on_c, 0, 69, 0
1, 206700, Note_on_c, 0, 66, 0
1, 206703, Note_on_c, 0, 36, 0
1, 206703, Note_on_c, 0, 48, 0
1, 206703, Note_on_c, 0, 57, 0
1, 206706, Note_on_c, 0, 66, 59
1, 206706, Note_on_c, 0, 57, 59
1, 206706, Note_on_c, 0, 69, 70
1, 206890, Note_on_c, 0, 90, 0
1, 206890, Note_on_c, 0, 85, 0
1, 206890, Note_on_c, 0, 93, 0
1, 206893, Note_on_c, 0, 88, 67
1, 206893, Note_on_c, 0, 92, 79
1, 206893, Note_on_c, 0, 80, 67
1, 206896, Note_on_c, 0, 69, 0
1, 206896, Note_on_c, 0, 57, 0
1, 206896, Note_on_c, 0, 66, 0
1, 206899, Note_on_c, 0, 64, 52
1, 206899, Note_on_c, 0, 56, 52
1, 206899, Note_on_c, 0, 68, 62
1, 206956, Note_on_c, 0, 80, 0
1, 206956, Note_on_c, 0, 92, 0
1, 206956, Note_on_c, 0, 88, 0
1, 206959, Note_on_c, 0, 80, 73
1, 206959, Note_on_c, 0, 88, 73
1, 206959, Note_on_c, 0, 92, 86
1, 206962, Note_on_c, 0, 68, 0
1, 206962, Note_on_c, 0, 56, 0
1, 206962, Note_on_c, 0, 64, 0
1, 206965, Note_on_c, 0, 64, 58
1, 206965, Note_on_c, 0, 56, 58
1, 206965, Note_on_c, 0, 68, 69
1, 207152, Note_on_c, 0, 92, 0
1, 207152, Note_on_c, 0, 88, 0
1, 207152, Note_on_c, 0, 80, 0
1, 207155, Note_on_c, 0, 90, 79
1, 207155, Note_on_c, 0, 78, 67
1, 207155, Note_on_c, 0, 87, 67
1, 207158, Note_on_c, 0, 68, 0
1, 207158, Note_on_c, 0, 56, 0
1, 207158, Note_on_c, 0, 64, 0
1, 207161, Note_on_c, 0, 63, 52
1, 207161, Note_on_c, 0, 54, 52
1, 207161, Note_on_c, 0, 66, 62
1, 207310, Note_on_c, 0, 87, 0
1, 207310, Note_on_c, 0, 78, 0
1, 207310, Note_on_c, 0, 90, 0
1, 207313, Note_on_c, 0, 55, 101
1, 207313, Note_on_c, 0, 66, 0
1, 207313, Note_on_c, 0, 54, 0
1, 207316, Note_on_c, 0, 63, 0
1, 207316, Note_on_c, 0, 43, 78
1, 207316, Note_on_c, 0, 31, 78
1, 207319, Control_c, 0, 64, 0
1, 207464, Control_c, 0, 64, 127
1, 207849, Note_on_c, 0, 88, 57
1, 207849, Note_on_c, 0, 100, 80
1, 207849, Note_on_c, 0, 91, 57
1, 207852, Note_on_c, 0, 82, 63
1, 207852, Note_on_c, 0, 79, 53
1, 207852, Note_on_c, 0, 70, 45
1, 207939, Note_on_c, 0, 91, 0
1, 207939, Note_on_c, 0, 55, 0
1, 207939, Note_on_c, 0, 88, 0
1, 207942, Note_on_c, 0, 100, 0
1, 207942, Note_on_c, 0, 100, 89
1, 207942, Note_on_c, 0, 88, 74
1, 207945, Note_on_c, 0, 91, 74
1, 207945, Note_on_c, 0, 70, 0
1, 207945, Note_on_c, 0, 82, 0
1, 207948, Note_on_c, 0, 43, 0
1, 207948, Note_on_c, 0, 31, 0
1, 207948, Note_on_c, 0, 79, 0
1, 207951, Note_on_c, 0, 82, 70
1, 207951, Note_on_c, 0, 79, 59
1, 207951, Note_on_c, 0, 70, 49
1, 208155, Note_on_c, 0, 91, 0
1, 208155, Note_on_c, 0, 88, 0
1, 208155, Note_on_c, 0, 100, 0
1, 208158, Note_on_c, 0, 90, 56
1, 208158, Note_on_c, 0, 99, 79
1, 208158, Note_on_c, 0, 87, 56
1, 208161, Note_on_c, 0, 70, 0
1, 208161, Note_on_c, 0, 79, 0
1, 208161, Note_on_c, 0, 82, 0
1, 208164, Note_on_c, 0, 81, 62
1, 208164, Note_on_c, 0, 78, 52
1, 208164, Note_on_c, 0, 69, 44
1, 208227, Note_on_c, 0, 87, 0
1, 208227, Note_on_c, 0, 99, 0
1, 208227, Note_on_c, 0, 90, 0
1, 208230, Note_on_c, 0, 87, 74
1, 208230, Note_on_c, 0, 90, 74
1, 208230, Note_on_c, 0, 99, 89
1, 208233, Note_on_c, 0, 69, 0
1, 208233, Note_on_c, 0, 78, 0
1, 208233, Note_on_c, 0, 81, 0
1, 208236, Note_on_c, 0, 81, 69
1, 208236, Note_on_c, 0, 78, 58
1, 208236, Note_on_c, 0, 69, 49
1, 208439, Note_on_c, 0, 99, 0
1, 208439, Note_on_c, 0, 90, 0
1, 208439, Note_on_c, 0, 87, 0
1, 208442, Note_on_c, 0, 97, 83
1, 208442, Note_on_c, 0, 88, 70
1, 208442, Note_on_c, 0, 85, 70
1, 208445, Note_on_c, 0, 69, 0
1, 208445, Note_on_c, 0, 78, 0
1, 208445, Note_on_c, 0, 81, 0
1, 208448, Note_on_c, 0, 79, 62
1, 208448, Note_on_c, 0, 76, 52
1, 208448, Note_on_c, 0, 67, 44
1, 208509, Note_on_c, 0, 85, 0
1, 208509, Note_on_c, 0, 88, 0
1, 208509, Note_on_c, 0, 97, 0
1, 208512, Note_on_c, 0, 97, 90
1, 208512, Note_on_c, 0, 85, 75
1, 208512, Note_on_c, 0, 88, 75
1, 208515, Note_on_c, 0, 67, 0
1, 208515, Note_on_c, 0, 76, 0
1, 208515, Note_on_c, 0, 79, 0
1, 208518, Note_on_c, 0, 76, 69
1, 208518, Note_on_c, 0, 79, 69
1, 208518, Note_on_c, 0, 67, 58
1, 208714, Note_on_c, 0, 88, 0
1, 208714, Note_on_c, 0, 85, 0
1, 208714, Note_on_c, 0, 97, 0
1, 208717, Note_on_c, 0, 94, 79
1, 208717, Note_on_c, 0, 82, 67
1, 208717, Note_on_c, 0, 85, 67
1, 208720, Note_on_c, 0, 67, 0
1, 208720, Note_on_c, 0, 79, 0
1, 208720, Note_on_c, 0, 76, 0
1, 208723, Note_on_c, 0, 73, 62
1, 208723, Note_on_c, 0, 76, 62
1, 208723, Note_on_c, 0, 64, 52
1, 208781, Note_on_c, 0, 85, 0
1, 208781, Note_on_c, 0, 82, 0
1, 208781, Note_on_c, 0, 94, 0
1, 208784, Note_on_c, 0, 82, 74
1, 208784, Note_on_c, 0, 85, 74
1, 208784, Note_on_c, 0, 94, 88
1, 208787, Note_on_c, 0, 64, 0
1, 208787, Note_on_c, 0, 76, 0
1, 208787, Note_on_c, 0, 73, 0
1, 208790, Note_on_c, 0, 73, 69
1, 208790, Note_on_c, 0, 76, 69
1, 208790, Note_on_c, 0, 64, 58
1, 208981, Note_on_c, 0, 94, 0
1, 208981, Note_on_c, 0, 85, 0
1, 208981, Note_on_c, 0, 82, 0
1, 208984, Note_on_c, 0, 84, 67
1, 208984, Note_on_c, 0, 81, 67
1, 208984, Note_on_c, 0, 93, 79
1, 208987, Note_on_c, 0, 64, 0
1, 208987, Note_on_c, 0, 76, 0
1, 208987, Note_on_c, 0, 73, 0
1, 208990, Note_on_c, 0, 72, 62
1, 208990, Note_on_c, 0, 75, 62
1, 208990, Note_on_c, 0, 63, 52
1, 209046, Note_on_c, 0, 93, 0
1, 209046, Note_on_c, 0, 81, 0
1, 209046, Note_on_c, 0, 84, 0
1, 209049, Note_on_c, 0, 81, 74
1, 209049, Note_on_c, 0, 84, 74
1, 209049, Note_on_c, 0, 93, 88
1, 209052, Note_on_c, 0, 63, 0
1, 209052, Note_on_c, 0, 75, 0
1, 209052, Note_on_c, 0, 72, 0
1, 209055, Note_on_c, 0, 72, 69
1, 209055, Note_on_c, 0, 75, 69
1, 209055, Note_on_c, 0, 63, 58
1, 209235, Note_on_c, 0, 93, 0
1, 209235, Note_on_c, 0, 84, 0
1, 209235, Note_on_c, 0, 81, 0
1, 209238, Note_on_c, 0, 82, 67
1, 209238, Note_on_c, 0, 91, 79
1, 209238, Note_on_c, 0, 79, 67
1, 209241, Note_on_c, 0, 63, 0
1, 209241, Note_on_c, 0, 75, 0
1, 209241, Note_on_c, 0, 72, 0
1, 209244, Note_on_c, 0, 70, 62
1, 209244, Note_on_c, 0, 73, 62
1, 209244, Note_on_c, 0, 61, 52
1, 209296, Note_on_c, 0, 79, 0
1, 209296, Note_on_c, 0, 91, 0
1, 209296, Note_on_c, 0, 82, 0
1, 209299, Note_on_c, 0, 91, 86
1, 209299, Note_on_c, 0, 79, 73
1, 209299, Note_on_c, 0, 82, 73
1, 209302, Note_on_c, 0, 61, 0
1, 209302, Note_on_c, 0, 73, 0
1, 209302, Note_on_c, 0, 70, 0
1, 209305, Note_on_c, 0, 70, 69
1, 209305, Note_on_c, 0, 73, 69
1, 209305, Note_on_c, 0, 61, 58
1, 209474, Note_on_c, 0, 82, 0
1, 209474, Note_on_c, 0, 79, 0
1, 209474, Note_on_c, 0, 91, 0
1, 209477, Note_on_c, 0, 88, 81
1, 209477, Note_on_c, 0, 79, 68
1, 209477, Note_on_c, 0, 76, 68
1, 209480, Note_on_c, 0, 61, 0
1, 209480, Note_on_c, 0, 73, 0
1, 209480, Note_on_c, 0, 70, 0
1, 209483, Note_on_c, 0, 67, 62
1, 209483, Note_on_c, 0, 70, 62
1, 209483, Note_on_c, 0, 58, 52
1, 209532, Note_on_c, 0, 76, 0
1, 209532, Note_on_c, 0, 79, 0
1, 209532, Note_on_c, 0, 88, 0
1, 209535, Note_on_c, 0, 79, 74
1, 209535, Note_on_c, 0, 88, 88
1, 209535, Note_on_c, 0, 76, 74
1, 209538, Note_on_c, 0, 58, 0
1, 209538, Note_on_c, 0, 70, 0
1, 209538, Note_on_c, 0, 67, 0
1, 209541, Note_on_c, 0, 70, 70
1, 209541, Note_on_c, 0, 67, 59
1, 209541, Note_on_c, 0, 58, 49
1, 209701, Note_on_c, 0, 76, 0
1, 209701, Note_on_c, 0, 88, 0
1, 209701, Note_on_c, 0, 79, 0
1, 209704, Note_on_c, 0, 75, 68
1, 209704, Note_on_c, 0, 78, 68
1, 209704, Note_on_c, 0, 87, 80
1, 209707, Note_on_c, 0, 58, 0
1, 209707, Note_on_c, 0, 67, 0
1, 209707, Note_on_c, 0, 70, 0
1, 209710, Note_on_c, 0, 69, 62
1, 209710, Note_on_c, 0, 66, 52
1, 209710, Note_on_c, 0, 57, 44
1, 209757, Note_on_c, 0, 87, 0
1, 209757, Note_on_c, 0, 78, 0
1, 209757, Note_on_c, 0, 75, 0
1, 209760, Note_on_c, 0, 78, 74
1, 209760, Note_on_c, 0, 87, 88
1, 209760, Note_on_c, 0, 75, 74
1, 209763, Note_on_c, 0, 57, 0
1, 209763, Note_on_c, 0, 66, 0
1, 209763, Note_on_c, 0, 69, 0
1, 209766, Note_on_c, 0, 69, 69
1, 209766, Note_on_c, 0, 66, 58
1, 209766, Note_on_c, 0, 57, 49
1, 209921, Note_on_c, 0, 75, 0
1, 209921, Note_on_c, 0, 87, 0
1, 209921, Note_on_c, 0, 78, 0
1, 209924, Note_on_c, 0, 85, 79
1, 209924, Note_on_c, 0, 73, 56
1, 209924, Note_on_c, 0, 76, 56
1, 209927, Note_on_c, 0, 57, 0
1, 209927, Note_on_c, 0, 66, 0
1, 209927, Note_on_c, 0, 69, 0
1, 209930, Note_on_c, 0, 67, 62
1, 209930, Note_on_c, 0, 64, 52
1, 209930, Note_on_c, 0, 55, 44
1, 209976, Note_on_c, 0, 76, 0
1, 209976, Note_on_c, 0, 73, 0
1, 209976, Note_on_c, 0, 85, 0
1, 209979, Note_on_c, 0, 85, 88
1, 209979, Note_on_c, 0, 73, 74
1, 209979, Note_on_c, 0, 76, 74
1, 209982, Note_on_c, 0, 55, 0
1, 209982, Note_on_c, 0, 64, 0
1, 209982, Note_on_c, 0, 67, 0
1, 209985, Note_on_c, 0, 64, 69
1, 209985, Note_on_c, 0, 67, 69
1, 209985, Note_on_c, 0, 55, 58
1, 210137, Note_on_c, 0, 76, 0
1, 210137, Note_on_c, 0, 73, 0
1, 210137, Note_on_c, 0, 85, 0
1, 210140, Note_on_c, 0, 73, 68
1, 210140, Note_on_c, 0, 82, 81
1, 210140, Note_on_c, 0, 70, 68
1, 210143, Note_on_c, 0, 55, 0
1, 210143, Note_on_c, 0, 67, 0
1, 210143, Note_on_c, 0, 64, 0
1, 210146, Note_on_c, 0, 61, 62
1, 210146, Note_on_c, 0, 64, 62
1, 210146, Note_on_c, 0, 52, 52
1, 210191, Note_on_c, 0, 70, 0
1, 210191, Note_on_c, 0, 82, 0
1, 210191, Note_on_c, 0, 73, 0
1, 210194, Note_on_c, 0, 70, 75
1, 210194, Note_on_c, 0, 73, 75
1, 210194, Note_on_c, 0, 82, 90
1, 210197, Note_on_c, 0, 52, 0
1, 210197, Note_on_c, 0, 64, 0
1, 210197, Note_on_c, 0, 61, 0
1, 210200, Note_on_c, 0, 61, 69
1, 210200, Note_on_c, 0, 52, 58
1, 210200, Note_on_c, 0, 64, 69
1, 210352, Note_on_c, 0, 82, 0
1, 210352, Note_on_c, 0, 73, 0
1, 210352, Note_on_c, 0, 70, 0
1, 210355, Note_on_c, 0, 72, 68
1, 210355, Note_on_c, 0, 81, 81
1, 210355, Note_on_c, 0, 69, 68
1, 210358, Note_on_c, 0, 64, 0
1, 210358, Note_on_c, 0, 52, 0
1, 210358, Note_on_c, 0, 61, 0
1, 210361, Note_on_c, 0, 60, 62
1, 210361, Note_on_c, 0, 51, 52
1, 210361, Note_on_c, 0, 63, 62
1, 210406, Note_on_c, 0, 69, 0
1, 210406, Note_on_c, 0, 81, 0
1, 210406, Note_on_c, 0, 72, 0
1, 210409, Note_on_c, 0, 81, 89
1, 210409, Note_on_c, 0, 69, 74
1, 210409, Note_on_c, 0, 72, 74
1, 210412, Note_on_c, 0, 63, 0
1, 210412, Note_on_c, 0, 51, 0
1, 210412, Note_on_c, 0, 60, 0
1, 210415, Note_on_c, 0, 60, 69
1, 210415, Note_on_c, 0, 51, 58
1, 210415, Note_on_c, 0, 63, 69
1, 210566, Note_on_c, 0, 72, 0
1, 210566, Note_on_c, 0, 69, 0
1, 210566, Note_on_c, 0, 81, 0
1, 210569, Note_on_c, 0, 79, 79
1, 210569, Note_on_c, 0, 67, 67
1, 210569, Note_on_c, 0, 70, 67
1, 210572, Note_on_c, 0, 63, 0
1, 210572, Note_on_c, 0, 51, 0
1, 210572, Note_on_c, 0, 60, 0
1, 210575, Note_on_c, 0, 58, 62
1, 210575, Note_on_c, 0, 49, 52
1, 210575, Note_on_c, 0, 61, 62
1, 210620, Note_on_c, 0, 70, 0
1, 210620, Note_on_c, 0, 67, 0
1, 210620, Note_on_c, 0, 79, 0
1, 210623, Note_on_c, 0, 70, 74
1, 210623, Note_on_c, 0, 79, 88
1, 210623, Note_on_c, 0, 67, 74
1, 210626, Note_on_c, 0, 61, 0
1, 210626, Note_on_c, 0, 49, 0
1, 210626, Note_on_c, 0, 58, 0
1, 210629, Note_on_c, 0, 61, 69
1, 210629, Note_on_c, 0, 58, 69
1, 210629, Note_on_c, 0, 49, 58
1, 210784, Note_on_c, 0, 67, 0
1, 210784, Note_on_c, 0, 79, 0
1, 210784, Note_on_c, 0, 70, 0
1, 210787, Note_on_c, 0, 67, 68
1, 210787, Note_on_c, 0, 64, 68
1, 210787, Note_on_c, 0, 76, 80
1, 210790, Note_on_c, 0, 49, 0
1, 210790, Note_on_c, 0, 58, 0
1, 210790, Note_on_c, 0, 61, 0
1, 210793, Note_on_c, 0, 58, 62
1, 210793, Note_on_c, 0, 55, 62
1, 210793, Note_on_c, 0, 46, 52
1, 210839, Note_on_c, 0, 76, 0
1, 210839, Note_on_c, 0, 64, 0
1, 210839, Note_on_c, 0, 67, 0
1, 210842, Note_on_c, 0, 67, 74
1, 210842, Note_on_c, 0, 76, 88
1, 210842, Note_on_c, 0, 64, 74
1, 210845, Note_on_c, 0, 46, 0
1, 210845, Note_on_c, 0, 55, 0
1, 210845, Note_on_c, 0, 58, 0
1, 210848, Note_on_c, 0, 55, 59
1, 210848, Note_on_c, 0, 58, 70
1, 210848, Note_on_c, 0, 46, 49
1, 211007, Note_on_c, 0, 64, 0
1, 211007, Note_on_c, 0, 76, 0
1, 211007, Note_on_c, 0, 67, 0
1, 211010, Note_on_c, 0, 75, 79
1, 211010, Note_on_c, 0, 63, 56
1, 211010, Note_on_c, 0, 66, 56
1, 211013, Note_on_c, 0, 46, 0
1, 211013, Note_on_c, 0, 58, 0
1, 211013, Note_on_c, 0, 55, 0
1, 211016, Note_on_c, 0, 54, 52
1, 211016, Note_on_c, 0, 57, 62
1, 211016, Note_on_c, 0, 45, 44
1, 211063, Note_on_c, 0, 66, 0
1, 211063, Note_on_c, 0, 63, 0
1, 211063, Note_on_c, 0, 75, 0
1, 211066, Note_on_c, 0, 75, 94
1, 211066, Note_on_c, 0, 66, 80
1, 211066, Note_on_c, 0, 63, 80
1, 211069, Note_on_c, 0, 45, 0
1, 211069, Note_on_c, 0, 57, 0
1, 211069, Note_on_c, 0, 54, 0
1, 211072, Note_on_c, 0, 54, 58
1, 211072, Note_on_c, 0, 57, 69
1, 211072, Note_on_c, 0, 45, 49
1, 211233, Note_on_c, 0, 63, 0
1, 211233, Note_on_c, 0, 66, 0
1, 211233, Note_on_c, 0, 75, 0
1, 211236, Note_on_c, 0, 61, 56
1, 211236, Note_on_c, 0, 64, 56
1, 211236, Note_on_c, 0, 73, 79
1, 211239, Note_on_c, 0, 45, 0
1, 211239, Note_on_c, 0, 57, 0
1, 211239, Note_on_c, 0, 54, 0
1, 211242, Note_on_c, 0, 52, 52
1, 211242, Note_on_c, 0, 55, 62
1, 211242, Note_on_c, 0, 43, 44
1, 211290, Note_on_c, 0, 73, 0
1, 211290, Note_on_c, 0, 64, 0
1, 211290, Note_on_c, 0, 61, 0
1, 211293, Note_on_c, 0, 61, 81
1, 211293, Note_on_c, 0, 64, 81
1, 211293, Note_on_c, 0, 73, 96
1, 211296, Note_on_c, 0, 43, 0
1, 211296, Note_on_c, 0, 55, 0
1, 211296, Note_on_c, 0, 52, 0
1, 211299, Note_on_c, 0, 55, 69
1, 211299, Note_on_c, 0, 52, 69
1, 211299, Note_on_c, 0, 43, 58
1, 211349, Control_c, 0, 64, 0
1, 211473, Note_on_c, 0, 73, 0
1, 211473, Note_on_c, 0, 64, 0
1, 211473, Note_on_c, 0, 61, 0
1, 211476, Note_on_c, 0, 43, 0
1, 211476, Note_on_c, 0, 52, 0
1, 211476, Note_on_c, 0, 55, 0
1, 212649, Note_on_c, 0, 64, 83
1, 212649, Note_on_c, 0, 52, 70
1, 212649, Note_on_c, 0, 58, 70
1, 212652, Note_on_c, 0, 31, 55
1, 212652, Note_on_c, 0, 43, 64
1, 212652, Note_on_c, 0, 37, 55
1, 212655, Note_on_c, 0, 40, 55
1, 212718, Note_on_c, 0, 58, 0
1, 212718, Note_on_c, 0, 52, 0
1, 212718, Note_on_c, 0, 64, 0
1, 212721, Note_on_c, 0, 52, 79
1, 212721, Note_on_c, 0, 64, 93
1, 212721, Note_on_c, 0, 58, 79
1, 212724, Note_on_c, 0, 40, 0
1, 212724, Note_on_c, 0, 31, 0
1, 212724, Note_on_c, 0, 43, 0
1, 212727, Note_on_c, 0, 37, 0
1, 212727, Note_on_c, 0, 44, 64
1, 212727, Note_on_c, 0, 40, 55
1, 212730, Note_on_c, 0, 32, 55
1, 212730, Note_on_c, 0, 37, 55
1, 212730, Control_c, 0, 64, 127
1, 212839, Note_on_c, 0, 58, 0
1, 212839, Note_on_c, 0, 64, 0
1, 212839, Note_on_c, 0, 52, 0
1, 212842, Note_on_c, 0, 37, 0
1, 212842, Note_on_c, 0, 44, 0
1, 212842, Note_on_c, 0, 40, 0
1, 212845, Note_on_c, 0, 32, 0
1, 213082, Note_on_c, 0, 63, 84
1, 213082, Note_on_c, 0, 56, 71
1, 213082, Note_on_c, 0, 51, 71
1, 213085, Note_on_c, 0, 37, 56
1, 213085, Note_on_c, 0, 44, 67
1, 213085, Note_on_c, 0, 32, 56
1, 213088, Note_on_c, 0, 40, 56
1, 213217, Note_on_c, 0, 51, 0
1, 213217, Note_on_c, 0, 56, 0
1, 213217, Note_on_c, 0, 63, 0
1, 213220, Note_on_c, 0, 58, 79
1, 213220, Note_on_c, 0, 63, 93
1, 213220, Note_on_c, 0, 51, 79
1, 213223, Note_on_c, 0, 40, 0
1, 213223, Note_on_c, 0, 37, 0
1, 213223, Note_on_c, 0, 44, 0
1, 213226, Note_on_c, 0, 32, 0
1, 213226, Note_on_c, 0, 32, 61
1, 213226, Note_on_c, 0, 44, 72
1, 213229, Note_on_c, 0, 37, 61
1, 213229, Note_on_c, 0, 40, 61
1, 213337, Note_on_c, 0, 51, 0
1, 213337, Note_on_c, 0, 63, 0
1, 213337, Note_on_c, 0, 58, 0
1, 213340, Note_on_c, 0, 40, 0
1, 213340, Note_on_c, 0, 32, 0
1, 213340, Note_on_c, 0, 44, 0
1, 213343, Note_on_c, 0, 37, 0
1, 213578, Note_on_c, 0, 49, 72
1, 213578, Note_on_c, 0, 56, 72
1, 213578, Note_on_c, 0, 61, 85
1, 213581, Note_on_c, 0, 44, 64
1, 213581, Note_on_c, 0, 40, 55
1, 213581, Note_on_c, 0, 32, 55
1, 213584, Note_on_c, 0, 37, 55
1, 213706, Note_on_c, 0, 61, 0
1, 213706, Note_on_c, 0, 56, 0
1, 213706, Note_on_c, 0, 49, 0
1, 213709, Note_on_c, 0, 68, 96
1, 213709, Note_on_c, 0, 56, 81
1, 213709, Note_on_c, 0, 60, 81
1, 213712, Note_on_c, 0, 37, 0
1, 213712, Note_on_c, 0, 44, 0
1, 213712, Note_on_c, 0, 40, 0
1, 213715, Note_on_c, 0, 32, 0
1, 213715, Note_on_c, 0, 39, 61
1, 213715, Note_on_c, 0, 44, 72
1, 213718, Note_on_c, 0, 32, 61
1, 213718, Note_on_c, 0, 42, 61
1, 213741, Control_c, 0, 64, 0
1, 213783, Control_c, 0, 64, 127
1, 214239, Note_on_c, 0, 60, 0
1, 214239, Note_on_c, 0, 56, 0
1, 214239, Note_on_c, 0, 68, 0
1, 214242, Note_on_c, 0, 48, 77
1, 214242, Note_on_c, 0, 60, 91
1, 214242, Note_on_c, 0, 56, 77
1, 214245, Note_on_c, 0, 42, 0
1, 214245, Note_on_c, 0, 39, 0
1, 214245, Note_on_c, 0, 44, 0
1, 214248, Note_on_c, 0, 32, 0
1, 214248, Note_on_c, 0, 32, 57
1, 214248, Note_on_c, 0, 44, 68
1, 214251, Note_on_c, 0, 39, 57
1, 214251, Note_on_c, 0, 42, 57
1, 214505, Control_c, 0, 64, 0
1, 214639, Note_on_c, 0, 56, 0
1, 214639, Note_on_c, 0, 60, 0
1, 214639, Note_on_c, 0, 48, 0
1, 214642, Note_on_c, 0, 42, 0
1, 214642, Note_on_c, 0, 32, 0
1, 214642, Note_on_c, 0, 44, 0
1, 214645, Note_on_c, 0, 39, 0
1, 214705, Note_on_c, 0, 44, 40
1, 214717, Note_on_c, 0, 52, 42
1, 214728, Note_on_c, 0, 56, 45
1, 214739, Note_on_c, 0, 61, 51
1, 214750, Note_on_c, 0, 64, 62
1, 214761, Note_on_c, 0, 68, 62
1, 214772, Note_on_c, 0, 76, 83
1, 214772, Control_c, 0, 64, 127
1, 215122, Note_on_c, 0, 76, 0
1, 215122, Note_on_c, 0, 75, 75
1, 215189, Note_on_c, 0, 75, 0
1, 215189, Note_on_c, 0, 75, 67
1, 215195, Note_on_c, 0, 56, 0
1, 215208, Note_on_c, 0, 44, 0
1, 215208, Note_on_c, 0, 52, 0
1, 215208, Note_on_c, 0, 61, 0
1, 215211, Note_on_c, 0, 44, 45
1, 215228, Note_on_c, 0, 75, 0
1, 215228, Note_on_c, 0, 76, 72
1, 215228, Note_on_c, 0, 52, 48
1, 215247, Note_on_c, 0, 56, 53
1, 215267, Note_on_c, 0, 76, 0
1, 215267, Note_on_c, 0, 68, 0
1, 215267, Note_on_c, 0, 64, 0
1, 215270, Note_on_c, 0, 68, 61
1, 215270, Note_on_c, 0, 64, 61
1, 215270, Note_on_c, 0, 75, 80
1, 215273, Note_on_c, 0, 61, 58
1, 215387, Note_on_c, 0, 75, 0
1, 215508, Note_on_c, 0, 73, 77
1, 215568, Note_on_c, 0, 73, 0
1, 215706, Note_on_c, 0, 61, 0
1, 215706, Note_on_c, 0, 44, 0
1, 215706, Note_on_c, 0, 52, 0
1, 215709, Note_on_c, 0, 56, 0
1, 215709, Note_on_c, 0, 44, 47
1, 215720, Note_on_c, 0, 51, 49
1, 215735, Note_on_c, 0, 56, 52
1, 215749, Note_on_c, 0, 60, 55
1, 215763, Note_on_c, 0, 66, 63
1, 215770, Note_on_c, 0, 64, 0
1, 215770, Note_on_c, 0, 68, 0
1, 215776, Note_on_c, 0, 72, 67
1, 215787, Note_on_c, 0, 80, 82
1, 215799, Control_c, 0, 64, 0
1, 215860, Control_c, 0, 64, 127
1, 216294, Note_on_c, 0, 80, 0
1, 216294, Note_on_c, 0, 72, 0
1, 216294, Note_on_c, 0, 66, 0
1, 216297, Note_on_c, 0, 72, 77
1, 216297, Note_on_c, 0, 60, 0
1, 216297, Note_on_c, 0, 44, 0
1, 216300, Note_on_c, 0, 51, 0
1, 216300, Note_on_c, 0, 56, 0
1, 216515, Control_c, 0, 64, 0
1, 216556, Note_on_c, 0, 72, 0
1, 216769, Note_on_c, 0, 56, 48
1, 216785, Note_on_c, 0, 64, 51
1, 216802, Note_on_c, 0, 68, 53
1, 216818, Note_on_c, 0, 88, 76
1, 216818, Note_on_c, 0, 76, 54
1, 216818, Note_on_c, 0, 80, 54
1, 216821, Note_on_c, 0, 73, 57
1, 216866, Control_c, 0, 64, 127
1, 217168, Note_on_c, 0, 88, 0
1, 217168, Note_on_c, 0, 87, 69
1, 217238, Note_on_c, 0, 87, 0
1, 217238, Note_on_c, 0, 85, 63
1, 217259, Note_on_c, 0, 73, 0
1, 217259, Note_on_c, 0, 56, 0
1, 217259, Note_on_c, 0, 64, 0
1, 217262, Note_on_c, 0, 68, 0
1, 217262, Note_on_c, 0, 56, 37
1, 217266, Note_on_c, 0, 85, 0
1, 217266, Note_on_c, 0, 87, 59
1, 217280, Note_on_c, 0, 64, 39
1, 217294, Note_on_c, 0, 87, 0
1, 217294, Note_on_c, 0, 88, 63
1, 217301, Note_on_c, 0, 68, 41
1, 217322, Note_on_c, 0, 88, 0
1, 217322, Note_on_c, 0, 80, 0
1, 217322, Note_on_c, 0, 76, 0
1, 217325, Note_on_c, 0, 76, 51
1, 217325, Note_on_c, 0, 80, 51
1, 217325, Note_on_c, 0, 87, 73
1, 217328, Note_on_c, 0, 73, 44
1, 217442, Note_on_c, 0, 87, 0
1, 217563, Note_on_c, 0, 85, 66
1, 217683, Note_on_c, 0, 85, 0
1, 217761, Note_on_c, 0, 73, 0
1, 217761, Note_on_c, 0, 56, 0
1, 217761, Note_on_c, 0, 64, 0
1, 217764, Note_on_c, 0, 68, 0
1, 217784, Note_on_c, 0, 56, 51
1, 217806, Note_on_c, 0, 66, 54
1, 217829, Note_on_c, 0, 80, 0
1, 217829, Note_on_c, 0, 76, 0
1, 217829, Note_on_c, 0, 80, 54
1, 217832, Note_on_c, 0, 87, 75
1, 217832, Note_on_c, 0, 75, 54
1, 217832, Note_on_c, 0, 72, 57
1, 217850, Control_c, 0, 64, 0
1, 217911, Control_c, 0, 64, 127
1, 218069, Note_on_c, 0, 75, 0
1, 218069, Note_on_c, 0, 87, 0
1, 218069, Note_on_c, 0, 80, 0
1, 218190, Note_on_c, 0, 80, 63
1, 218265, Note_on_c, 0, 72, 0
1, 218265, Note_on_c, 0, 66, 0
1, 218265, Note_on_c, 0, 56, 0
1, 218280, Note_on_c, 0, 56, 51
1, 218295, Note_on_c, 0, 66, 54
1, 218310, Note_on_c, 0, 80, 0
1, 218310, Note_on_c, 0, 92, 75
1, 218310, Note_on_c, 0, 80, 54
1, 218313, Note_on_c, 0, 72, 57
1, 218551, Note_on_c, 0, 80, 0
1, 218551, Note_on_c, 0, 92, 0
1, 218672, Note_on_c, 0, 80, 68
1, 218749, Note_on_c, 0, 72, 0
1, 218749, Note_on_c, 0, 66, 0
1, 218749, Note_on_c, 0, 56, 0
1, 218752, Note_on_c, 0, 56, 41
1, 218767, Note_on_c, 0, 64, 44
1, 218784, Note_on_c, 0, 68, 47
1, 218802, Note_on_c, 0, 80, 0
1, 218802, Note_on_c, 0, 80, 54
1, 218802, Note_on_c, 0, 88, 76
1, 218805, Note_on_c, 0, 76, 54
1, 218805, Note_on_c, 0, 73, 51
1, 218852, Control_c, 0, 64, 0
1, 218907, Control_c, 0, 64, 127
1, 219153, Note_on_c, 0, 88, 0
1, 219153, Note_on_c, 0, 87, 69
1, 219221, Note_on_c, 0, 87, 0
1, 219221, Note_on_c, 0, 85, 59
1, 219244, Note_on_c, 0, 73, 0
1, 219244, Note_on_c, 0, 56, 0
1, 219244, Note_on_c, 0, 64, 0
1, 219247, Note_on_c, 0, 68, 0
1, 219247, Note_on_c, 0, 56, 36
1, 219252, Note_on_c, 0, 85, 0
1, 219252, Note_on_c, 0, 87, 59
1, 219267, Note_on_c, 0, 64, 38
1, 219283, Note_on_c, 0, 87, 0
1, 219283, Note_on_c, 0, 88, 63
1, 219290, Note_on_c, 0, 68, 40
1, 219313, Note_on_c, 0, 88, 0
1, 219313, Note_on_c, 0, 76, 0
1, 219313, Note_on_c, 0, 80, 0
1, 219316, Note_on_c, 0, 87, 73
1, 219316, Note_on_c, 0, 76, 51
1, 219316, Note_on_c, 0, 80, 51
1, 219319, Note_on_c, 0, 73, 43
1, 219435, Note_on_c, 0, 87, 0
1, 219556, Note_on_c, 0, 85, 66
1, 219678, Note_on_c, 0, 85, 0
1, 219761, Note_on_c, 0, 73, 0
1, 219761, Note_on_c, 0, 56, 0
1, 219761, Note_on_c, 0, 64, 0
1, 219764, Note_on_c, 0, 68, 0
1, 219783, Note_on_c, 0, 56, 50
1, 219805, Note_on_c, 0, 66, 52
1, 219827, Note_on_c, 0, 80, 0
1, 219827, Note_on_c, 0, 76, 0
1, 219827, Note_on_c, 0, 75, 54
1, 219830, Note_on_c, 0, 87, 75
1, 219830, Note_on_c, 0, 80, 54
1, 219830, Note_on_c, 0, 72, 55
1, 219862, Control_c, 0, 64, 0
1, 219910, Control_c, 0, 64, 127
1, 220070, Note_on_c, 0, 80, 0
1, 220070, Note_on_c, 0, 87, 0
1, 220070, Note_on_c, 0, 75, 0
1, 220187, Note_on_c, 0, 80, 63
1, 220257, Note_on_c, 0, 72, 0
1, 220257, Note_on_c, 0, 66, 0
1, 220257, Note_on_c, 0, 56, 0
1, 220299, Note_on_c, 0, 80, 0
1, 220299, Note_on_c, 0, 92, 75
1, 220540, Note_on_c, 0, 92, 0
1, 220661, Note_on_c, 0, 80, 64
1, 220781, Note_on_c, 0, 80, 0
1, 220781, Note_on_c, 0, 87, 68
1, 220903, Note_on_c, 0, 87, 0
1, 220903, Note_on_c, 0, 80, 61
1, 221023, Note_on_c, 0, 80, 0
1, 221023, Note_on_c, 0, 92, 66
1, 221142, Note_on_c, 0, 92, 0
1, 221142, Note_on_c, 0, 80, 60
1, 221261, Note_on_c, 0, 80, 0
1, 221261, Note_on_c, 0, 87, 65
1, 221378, Note_on_c, 0, 87, 0
1, 221378, Note_on_c, 0, 80, 57
1, 221495, Note_on_c, 0, 80, 0
1, 221495, Note_on_c, 0, 92, 63
1, 221611, Note_on_c, 0, 92, 0
1, 221611, Note_on_c, 0, 80, 57
1, 221726, Note_on_c, 0, 80, 0
1, 221726, Note_on_c, 0, 87, 62
1, 221838, Note_on_c, 0, 87, 0
1, 221838, Note_on_c, 0, 80, 57
1, 221948, Note_on_c, 0, 80, 0
1, 221948, Note_on_c, 0, 92, 61
1, 222055, Note_on_c, 0, 92, 0
1, 222055, Note_on_c, 0, 80, 56
1, 222160, Note_on_c, 0, 80, 0
1, 222160, Note_on_c, 0, 87, 59
1, 222262, Note_on_c, 0, 87, 0
1, 222262, Note_on_c, 0, 80, 53
1, 222363, Note_on_c, 0, 80, 0
1, 222363, Note_on_c, 0, 92, 58
1, 222463, Note_on_c, 0, 92, 0
1, 222463, Note_on_c, 0, 80, 50
1, 222565, Note_on_c, 0, 80, 0
1, 222565, Note_on_c, 0, 87, 57
1, 222627, Note_on_c, 0, 87, 0
1, 222627, Note_on_c, 0, 80, 51
1, 222690, Note_on_c, 0, 80, 0
1, 222690, Note_on_c, 0, 92, 57
1, 222752, Note_on_c, 0, 92, 0
1, 222752, Note_on_c, 0, 80, 51
1, 222813, Note_on_c, 0, 80, 0
1, 222813, Note_on_c, 0, 87, 55
1, 222875, Note_on_c, 0, 87, 0
1, 222875, Note_on_c, 0, 80, 51
1, 222936, Note_on_c, 0, 80, 0
1, 222936, Note_on_c, 0, 92, 54
1, 222998, Note_on_c, 0, 92, 0
1, 222998, Note_on_c, 0, 80, 49
1, 223059, Note_on_c, 0, 80, 0
1, 223059, Note_on_c, 0, 87, 53
1, 223119, Note_on_c, 0, 87, 0
1, 223119, Note_on_c, 0, 80, 47
1, 223180, Note_on_c, 0, 80, 0
1, 223180, Note_on_c, 0, 92, 52
1, 223240, Note_on_c, 0, 92, 0
1, 223240, Note_on_c, 0, 80, 47
1, 223301, Note_on_c, 0, 80, 0
1, 223301, Note_on_c, 0, 87, 51
1, 223361, Note_on_c, 0, 87, 0
1, 223361, Note_on_c, 0, 80, 47
1, 223421, Note_on_c, 0, 80, 0
1, 223421, Note_on_c, 0, 92, 50
1, 223480, Note_on_c, 0, 92, 0
1, 223480, Note_on_c, 0, 80, 45
1, 223540, Note_on_c, 0, 80, 0
1, 223540, Note_on_c, 0, 87, 48
1, 223599, Note_on_c, 0, 87, 0
1, 223599, Note_on_c, 0, 80, 43
1, 223658, Note_on_c, 0, 80, 0
1, 223658, Note_on_c, 0, 92, 47
1, 223717, Note_on_c, 0, 92, 0
1, 223717, Note_on_c, 0, 80, 43
1, 223776, Note_on_c, 0, 80, 0
1, 223776, Note_on_c, 0, 87, 46
1, 223835, Note_on_c, 0, 87, 0
1, 223835, Note_on_c, 0, 80, 42
1, 223893, Note_on_c, 0, 80, 0
1, 223893, Note_on_c, 0, 92, 45
1, 223951, Note_on_c, 0, 92, 0
1, 223951, Note_on_c, 0, 80, 40
1, 224010, Note_on_c, 0, 80, 0
1, 224010, Note_on_c, 0, 87, 44
1, 224067, Note_on_c, 0, 87, 0
1, 224067, Note_on_c, 0, 80, 39
1, 224125, Note_on_c, 0, 80, 0
1, 224125, Note_on_c, 0, 92, 43
1, 224183, Note_on_c, 0, 92, 0
1, 224183, Note_on_c, 0, 80, 39
1, 224240, Note_on_c, 0, 80, 0
1, 224240, Note_on_c, 0, 87, 42
1, 224297, Note_on_c, 0, 87, 0
1, 224297, Note_on_c, 0, 80, 38
1, 224354, Note_on_c, 0, 80, 0
1, 224354, Note_on_c, 0, 92, 40
1, 224411, Note_on_c, 0, 92, 0
1, 224411, Note_on_c, 0, 80, 35
1, 224468, Note_on_c, 0, 80, 0
1, 224468, Control_c, 0, 64, 0
1, 224468, Note_on_c, 0, 91, 47
1, 224558, Note_on_c, 0, 91, 0
1, 224558, Note_on_c, 0, 92, 47
1, 224648, Note_on_c, 0, 92, 0
1, 224648, Note_on_c, 0, 94, 47
1, 224693, Control_c, 0, 64, 127
1, 224737, Note_on_c, 0, 92, 47
1, 224737, Note_on_c, 0, 94, 0
1, 224804, Note_on_c, 0, 92, 0
1, 224804, Note_on_c, 0, 94, 42
1, 224864, Note_on_c, 0, 94, 0
1, 224864, Note_on_c, 0, 92, 47
1, 224919, Note_on_c, 0, 92, 0
1, 224919, Note_on_c, 0, 94, 40
1, 224976, Note_on_c, 0, 94, 0
1, 224976, Note_on_c, 0, 92, 47
1, 225033, Note_on_c, 0, 92, 0
1, 225033, Note_on_c, 0, 94, 41
1, 225091, Note_on_c, 0, 94, 0
1, 225091, Note_on_c, 0, 92, 47
1, 225148, Note_on_c, 0, 92, 0
1, 225148, Note_on_c, 0, 94, 41
1, 225204, Note_on_c, 0, 94, 0
1, 225204, Note_on_c, 0, 92, 47
1, 225262, Note_on_c, 0, 92, 0
1, 225262, Note_on_c, 0, 94, 41
1, 225318, Note_on_c, 0, 94, 0
1, 225318, Note_on_c, 0, 92, 47
1, 225373, Note_on_c, 0, 92, 0
1, 225373, Note_on_c, 0, 94, 42
1, 225428, Note_on_c, 0, 94, 0
1, 225428, Note_on_c, 0, 92, 47
1, 225482, Note_on_c, 0, 92, 0
1, 225482, Note_on_c, 0, 94, 41
1, 225535, Note_on_c, 0, 94, 0
1, 225535, Note_on_c, 0, 92, 47
1, 225588, Note_on_c, 0, 92, 0
1, 225588, Note_on_c, 0, 94, 41
1, 225641, Note_on_c, 0, 94, 0
1, 225641, Note_on_c, 0, 92, 47
1, 225693, Note_on_c, 0, 92, 0
1, 225693, Note_on_c, 0, 94, 42
1, 225744, Note_on_c, 0, 94, 0
1, 225755, Note_on_c, 0, 92, 47
1, 225806, Note_on_c, 0, 92, 0
1, 225806, Note_on_c, 0, 94, 41
1, 225856, Note_on_c, 0, 94, 0
1, 225856, Note_on_c, 0, 92, 47
1, 225906, Note_on_c, 0, 92, 0
1, 225906, Note_on_c, 0, 94, 41
1, 225956, Note_on_c, 0, 94, 0
1, 225956, Note_on_c, 0, 92, 47
1, 226007, Note_on_c, 0, 92, 0
1, 226007, Note_on_c, 0, 94, 42
1, 226058, Note_on_c, 0, 94, 0
1, 226058, Note_on_c, 0, 92, 47
1, 226108, Note_on_c, 0, 92, 0
1, 226108, Note_on_c, 0, 94, 40
1, 226158, Note_on_c, 0, 94, 0
1, 226158, Note_on_c, 0, 92, 47
1, 226209, Note_on_c, 0, 92, 0
1, 226209, Note_on_c, 0, 94, 41
1, 226262, Note_on_c, 0, 94, 0
1, 226262, Note_on_c, 0, 92, 47
1, 226313, Note_on_c, 0, 92, 0
1, 226313, Note_on_c, 0, 94, 41
1, 226367, Note_on_c, 0, 94, 0
1, 226367, Note_on_c, 0, 92, 47
1, 226421, Note_on_c, 0, 92, 0
1, 226421, Note_on_c, 0, 94, 41
1, 226475, Note_on_c, 0, 94, 0
1, 226475, Note_on_c, 0, 92, 47
1, 226530, Note_on_c, 0, 92, 0
1, 226530, Note_on_c, 0, 94, 42
1, 226585, Note_on_c, 0, 94, 0
1, 226585, Note_on_c, 0, 92, 47
1, 226621, Note_on_c, 0, 68, 50
1, 226641, Note_on_c, 0, 92, 0
1, 226641, Note_on_c, 0, 94, 41
1, 226702, Note_on_c, 0, 94, 0
1, 226702, Note_on_c, 0, 92, 47
1, 226763, Note_on_c, 0, 92, 0
1, 226763, Note_on_c, 0, 94, 41
1, 226826, Note_on_c, 0, 94, 0
1, 226826, Note_on_c, 0, 92, 47
1, 226888, Note_on_c, 0, 92, 0
1, 226888, Note_on_c, 0, 94, 42
1, 226921, Note_on_c, 0, 68, 0
1, 226921, Note_on_c, 0, 61, 44
1, 226943, Note_on_c, 0, 68, 46
1, 226950, Note_on_c, 0, 94, 0
1, 226965, Note_on_c, 0, 89, 58
1, 226965, Note_on_c, 0, 77, 48
1, 226965, Note_on_c, 0, 92, 47
1, 226994, Control_c, 0, 64, 0
1, 227021, Note_on_c, 0, 92, 0
1, 227021, Note_on_c, 0, 94, 41
1, 227042, Control_c, 0, 64, 127
1, 227075, Note_on_c, 0, 94, 0
1, 227075, Note_on_c, 0, 92, 47
1, 227119, Note_on_c, 0, 77, 0
1, 227119, Note_on_c, 0, 68, 0
1, 227119, Note_on_c, 0, 61, 0
1, 227131, Note_on_c, 0, 92, 0
1, 227131, Note_on_c, 0, 94, 41
1, 227189, Note_on_c, 0, 94, 0
1, 227189, Note_on_c, 0, 92, 47
1, 227247, Note_on_c, 0, 92, 0
1, 227247, Note_on_c, 0, 94, 42
1, 227303, Note_on_c, 0, 94, 0
1, 227303, Note_on_c, 0, 92, 47
1, 227361, Note_on_c, 0, 92, 0
1, 227361, Note_on_c, 0, 94, 40
1, 227416, Note_on_c, 0, 94, 0
1, 227416, Note_on_c, 0, 92, 47
1, 227436, Note_on_c, 0, 89, 0
1, 227436, Note_on_c, 0, 87, 53
1, 227474, Note_on_c, 0, 92, 0
1, 227474, Note_on_c, 0, 94, 41
1, 227532, Note_on_c, 0, 94, 0
1, 227532, Note_on_c, 0, 92, 47
1, 227555, Note_on_c, 0, 68, 47
1, 227574, Note_on_c, 0, 75, 49
1, 227588, Note_on_c, 0, 92, 0
1, 227588, Note_on_c, 0, 94, 41
1, 227594, Note_on_c, 0, 87, 0
1, 227594, Note_on_c, 0, 90, 57
1, 227594, Note_on_c, 0, 78, 51
1, 227602, Control_c, 0, 64, 0
1, 227645, Note_on_c, 0, 94, 0
1, 227645, Control_c, 0, 64, 127
1, 227645, Note_on_c, 0, 92, 47
1, 227701, Note_on_c, 0, 92, 0
1, 227701, Note_on_c, 0, 94, 41
1, 227753, Note_on_c, 0, 78, 0
1, 227753, Note_on_c, 0, 75, 0
1, 227753, Note_on_c, 0, 68, 0
1, 227758, Note_on_c, 0, 94, 0
1, 227758, Note_on_c, 0, 92, 47
1, 227817, Note_on_c, 0, 92, 0
1, 227817, Note_on_c, 0, 94, 42
1, 227873, Note_on_c, 0, 94, 0
1, 227873, Note_on_c, 0, 92, 47
1, 227930, Note_on_c, 0, 92, 0
1, 227930, Note_on_c, 0, 94, 41
1, 227986, Note_on_c, 0, 94, 0
1, 227986, Note_on_c, 0, 92, 47
1, 228044, Note_on_c, 0, 92, 0
1, 228044, Note_on_c, 0, 94, 41
1, 228071, Note_on_c, 0, 90, 0
1, 228071, Note_on_c, 0, 84, 52
1, 228104, Note_on_c, 0, 94, 0
1, 228104, Note_on_c, 0, 92, 47
1, 228161, Note_on_c, 0, 92, 0
1, 228161, Note_on_c, 0, 94, 42
1, 228192, Note_on_c, 0, 61, 42
1, 228212, Note_on_c, 0, 68, 46
1, 228219, Note_on_c, 0, 94, 0
1, 228232, Note_on_c, 0, 84, 0
1, 228232, Note_on_c, 0, 87, 59
1, 228232, Note_on_c, 0, 77, 49
1, 228235, Note_on_c, 0, 92, 47
1, 228243, Control_c, 0, 64, 0
1, 228286, Note_on_c, 0, 92, 0
1, 228286, Control_c, 0, 64, 127
1, 228286, Note_on_c, 0, 94, 41
1, 228338, Note_on_c, 0, 94, 0
1, 228338, Note_on_c, 0, 92, 47
1, 228381, Note_on_c, 0, 77, 0
1, 228381, Note_on_c, 0, 68, 0
1, 228381, Note_on_c, 0, 61, 0
1, 228392, Note_on_c, 0, 92, 0
1, 228392, Note_on_c, 0, 94, 41
1, 228446, Note_on_c, 0, 94, 0
1, 228446, Note_on_c, 0, 92, 47
1, 228502, Note_on_c, 0, 92, 0
1, 228502, Note_on_c, 0, 94, 42
1, 228532, Note_on_c, 0, 87, 0
1, 228532, Note_on_c, 0, 85, 52
1, 228557, Note_on_c, 0, 94, 0
1, 228557, Note_on_c, 0, 92, 47
1, 228615, Note_on_c, 0, 92, 0
1, 228615, Note_on_c, 0, 94, 40
1, 228673, Note_on_c, 0, 94, 0
1, 228673, Note_on_c, 0, 92, 47
1, 228731, Note_on_c, 0, 92, 0
1, 228731, Note_on_c, 0, 94, 41
1, 228789, Note_on_c, 0, 94, 0
1, 228789, Note_on_c, 0, 92, 47
1, 228847, Note_on_c, 0, 92, 0
1, 228847, Note_on_c, 0, 94, 41
1, 228854, Note_on_c, 0, 85, 0
1, 228905, Note_on_c, 0, 94, 0
1, 228905, Note_on_c, 0, 92, 47
1, 228962, Note_on_c, 0, 92, 0
1, 228962, Note_on_c, 0, 94, 41
1, 229021, Note_on_c, 0, 94, 0
1, 229021, Note_on_c, 0, 92, 47
1, 229096, Note_on_c, 0, 92, 0
1, 229096, Note_on_c, 0, 94, 42
1, 229176, Note_on_c, 0, 73, 50
1, 229176, Note_on_c, 0, 94, 0
1, 229176, Note_on_c, 0, 92, 47
1, 229252, Note_on_c, 0, 92, 0
1, 229252, Note_on_c, 0, 94, 42
1, 229327, Note_on_c, 0, 91, 49
1, 229327, Note_on_c, 0, 94, 0
1, 229341, Control_c, 0, 64, 0
1, 229377, Note_on_c, 0, 92, 52
1, 229403, Note_on_c, 0, 91, 0
1, 229428, Note_on_c, 0, 92, 0
1, 229428, Note_on_c, 0, 93, 54
1, 229478, Note_on_c, 0, 93, 0
1, 229478, Note_on_c, 0, 94, 59
1, 229478, Note_on_c, 0, 73, 0
1, 229481, Note_on_c, 0, 82, 44
1, 229481, Note_on_c, 0, 66, 44
1, 229481, Note_on_c, 0, 73, 44
1, 229484, Note_on_c, 0, 94, 47
1, 229526, Control_c, 0, 64, 127
1, 229539, Note_on_c, 0, 94, 0
1, 229539, Note_on_c, 0, 96, 41
1, 229599, Note_on_c, 0, 96, 0
1, 229599, Note_on_c, 0, 94, 47
1, 229648, Note_on_c, 0, 82, 0
1, 229660, Note_on_c, 0, 94, 0
1, 229660, Note_on_c, 0, 96, 41
1, 229721, Note_on_c, 0, 96, 0
1, 229721, Note_on_c, 0, 94, 47
1, 229783, Note_on_c, 0, 94, 0
1, 229783, Note_on_c, 0, 96, 42
1, 229817, Note_on_c, 0, 94, 0
1, 229817, Note_on_c, 0, 94, 55
1, 229817, Note_on_c, 0, 73, 0
1, 229820, Note_on_c, 0, 66, 0
1, 229820, Note_on_c, 0, 82, 44
1, 229841, Note_on_c, 0, 96, 0
1, 229841, Note_on_c, 0, 94, 47
1, 229897, Note_on_c, 0, 94, 0
1, 229897, Note_on_c, 0, 96, 40
1, 229952, Note_on_c, 0, 96, 0
1, 229952, Note_on_c, 0, 94, 47
1, 229971, Note_on_c, 0, 82, 0
1, 230007, Note_on_c, 0, 94, 0
1, 230007, Note_on_c, 0, 96, 41
1, 230063, Note_on_c, 0, 96, 0
1, 230063, Note_on_c, 0, 94, 47
1, 230118, Note_on_c, 0, 94, 0
1, 230118, Note_on_c, 0, 96, 41
1, 230125, Note_on_c, 0, 94, 0
1, 230125, Note_on_c, 0, 92, 60
1, 230125, Note_on_c, 0, 80, 54
1, 230128, Note_on_c, 0, 65, 44
1, 230128, Note_on_c, 0, 74, 44
1, 230138, Control_c, 0, 64, 0
1, 230170, Control_c, 0, 64, 127
1, 230175, Note_on_c, 0, 96, 0
1, 230175, Note_on_c, 0, 94, 47
1, 230232, Note_on_c, 0, 94, 0
1, 230232, Note_on_c, 0, 96, 41
1, 230289, Note_on_c, 0, 96, 0
1, 230289, Note_on_c, 0, 94, 47
1, 230346, Note_on_c, 0, 94, 0
1, 230346, Note_on_c, 0, 96, 42
1, 230405, Note_on_c, 0, 96, 0
1, 230405, Note_on_c, 0, 94, 47
1, 230443, Note_on_c, 0, 74, 0
1, 230443, Note_on_c, 0, 65, 0
1, 230461, Note_on_c, 0, 94, 0
1, 230461, Note_on_c, 0, 96, 41
1, 230517, Note_on_c, 0, 96, 0
1, 230517, Note_on_c, 0, 94, 47
1, 230575, Note_on_c, 0, 94, 0
1, 230575, Note_on_c, 0, 96, 41
1, 230634, Note_on_c, 0, 96, 0
1, 230634, Note_on_c, 0, 94, 47
1, 230690, Note_on_c, 0, 94, 0
1, 230690, Note_on_c, 0, 96, 42
1, 230747, Note_on_c, 0, 96, 0
1, 230760, Note_on_c, 0, 92, 0
1, 230760, Note_on_c, 0, 90, 56
1, 230760, Note_on_c, 0, 80, 0
1, 230763, Note_on_c, 0, 63, 48
1, 230763, Note_on_c, 0, 70, 48
1, 230763, Note_on_c, 0, 78, 50
1, 230766, Note_on_c, 0, 94, 47
1, 230773, Control_c, 0, 64, 0
1, 230806, Control_c, 0, 64, 127
1, 230814, Note_on_c, 0, 94, 0
1, 230814, Note_on_c, 0, 96, 41
1, 230869, Note_on_c, 0, 96, 0
1, 230869, Note_on_c, 0, 94, 47
1, 230912, Note_on_c, 0, 90, 0
1, 230912, Note_on_c, 0, 78, 0
1, 230924, Note_on_c, 0, 94, 0
1, 230924, Note_on_c, 0, 96, 41
1, 230978, Note_on_c, 0, 96, 0
1, 230978, Note_on_c, 0, 94, 47
1, 231035, Note_on_c, 0, 94, 0
1, 231035, Note_on_c, 0, 96, 42
1, 231065, Note_on_c, 0, 90, 60
1, 231065, Note_on_c, 0, 70, 0
1, 231065, Note_on_c, 0, 63, 0
1, 231068, Note_on_c, 0, 78, 54
1, 231089, Note_on_c, 0, 96, 0
1, 231089, Note_on_c, 0, 94, 47
1, 231143, Note_on_c, 0, 94, 0
1, 231143, Note_on_c, 0, 96, 40
1, 231201, Note_on_c, 0, 96, 0
1, 231201, Note_on_c, 0, 94, 47
1, 231257, Note_on_c, 0, 94, 0
1, 231257, Note_on_c, 0, 96, 41
1, 231313, Note_on_c, 0, 96, 0
1, 231313, Note_on_c, 0, 94, 47
1, 231369, Note_on_c, 0, 94, 0
1, 231369, Note_on_c, 0, 96, 41
1, 231422, Note_on_c, 0, 96, 0
1, 231422, Note_on_c, 0, 94, 47
1, 231477, Note_on_c, 0, 94, 0
1, 231477, Note_on_c, 0, 96, 41
1, 231532, Note_on_c, 0, 96, 0
1, 231532, Note_on_c, 0, 94, 47
1, 231588, Note_on_c, 0, 94, 0
1, 231588, Note_on_c, 0, 96, 42
1, 231644, Note_on_c, 0, 96, 0
1, 231644, Note_on_c, 0, 94, 47
1, 231681, Note_on_c, 0, 90, 0
1, 231681, Note_on_c, 0, 78, 0
1, 231681, Note_on_c, 0, 75, 53
1, 231684, Note_on_c, 0, 78, 53
1, 231703, Note_on_c, 0, 94, 0
1, 231703, Note_on_c, 0, 96, 41
1, 231770, Note_on_c, 0, 96, 0
1, 231774, Note_on_c, 0, 93, 54
1, 231799, Control_c, 0, 64, 0
1, 231844, Note_on_c, 0, 93, 0
1, 231844, Note_on_c, 0, 94, 56
1, 231914, Note_on_c, 0, 94, 0
1, 231914, Note_on_c, 0, 95, 58
1, 231984, Note_on_c, 0, 95, 0
1, 231984, Note_on_c, 0, 96, 60
1, 232052, Note_on_c, 0, 96, 0
1, 232052, Note_on_c, 0, 97, 61
1, 232052, Note_on_c, 0, 78, 0
1, 232055, Note_on_c, 0, 75, 0
1, 232055, Note_on_c, 0, 82, 61
1, 232055, Note_on_c, 0, 85, 61
1, 232058, Control_c, 0, 64, 127
1, 232058, Note_on_c, 0, 97, 47
1, 232110, Note_on_c, 0, 97, 0
1, 232110, Note_on_c, 0, 99, 41
1, 232171, Note_on_c, 0, 99, 0
1, 232171, Note_on_c, 0, 97, 47
1, 232229, Note_on_c, 0, 97, 0
1, 232229, Note_on_c, 0, 99, 41
1, 232287, Note_on_c, 0, 99, 0
1, 232287, Note_on_c, 0, 97, 47
1, 232349, Note_on_c, 0, 97, 0
1, 232349, Note_on_c, 0, 99, 42
1, 232382, Note_on_c, 0, 97, 0
1, 232382, Note_on_c, 0, 97, 60
1, 232382, Note_on_c, 0, 85, 0
1, 232385, Note_on_c, 0, 82, 0
1, 232385, Note_on_c, 0, 82, 53
1, 232385, Note_on_c, 0, 85, 53
1, 232408, Note_on_c, 0, 99, 0
1, 232408, Note_on_c, 0, 97, 47
1, 232467, Note_on_c, 0, 97, 0
1, 232467, Note_on_c, 0, 99, 40
1, 232526, Note_on_c, 0, 99, 0
1, 232526, Note_on_c, 0, 97, 47
1, 232586, Note_on_c, 0, 97, 0
1, 232586, Note_on_c, 0, 99, 41
1, 232645, Note_on_c, 0, 99, 0
1, 232645, Note_on_c, 0, 97, 47
1, 232702, Note_on_c, 0, 97, 0
1, 232702, Note_on_c, 0, 99, 41
1, 232709, Note_on_c, 0, 97, 0
1, 232709, Note_on_c, 0, 96, 64
1, 232709, Note_on_c, 0, 85, 0
1, 232712, Note_on_c, 0, 82, 0
1, 232712, Note_on_c, 0, 80, 60
1, 232712, Note_on_c, 0, 84, 60
1, 232721, Control_c, 0, 64, 0
1, 232762, Note_on_c, 0, 99, 0
1, 232762, Note_on_c, 0, 97, 47
1, 232774, Control_c, 0, 64, 127
1, 232821, Note_on_c, 0, 97, 0
1, 232821, Note_on_c, 0, 99, 41
1, 232878, Note_on_c, 0, 99, 0
1, 232878, Note_on_c, 0, 97, 47
1, 232940, Note_on_c, 0, 97, 0
1, 232940, Note_on_c, 0, 99, 42
1, 232999, Note_on_c, 0, 99, 0
1, 232999, Note_on_c, 0, 97, 47
1, 233057, Note_on_c, 0, 97, 0
1, 233057, Note_on_c, 0, 99, 41
1, 233116, Note_on_c, 0, 99, 0
1, 233116, Note_on_c, 0, 97, 47
1, 233176, Note_on_c, 0, 97, 0
1, 233176, Note_on_c, 0, 99, 41
1, 233204, Note_on_c, 0, 96, 0
1, 233204, Note_on_c, 0, 94, 55
1, 233204, Note_on_c, 0, 84, 0
1, 233207, Note_on_c, 0, 80, 0
1, 233207, Note_on_c, 0, 78, 48
1, 233207, Note_on_c, 0, 82, 57
1, 233243, Note_on_c, 0, 99, 0
1, 233243, Note_on_c, 0, 97, 47
1, 233315, Note_on_c, 0, 97, 0
1, 233315, Note_on_c, 0, 99, 42
1, 233385, Note_on_c, 0, 99, 0
1, 233399, Note_on_c, 0, 94, 0
1, 233399, Note_on_c, 0, 92, 65
1, 233399, Note_on_c, 0, 82, 0
1, 233402, Note_on_c, 0, 78, 0
1, 233402, Note_on_c, 0, 77, 56
1, 233402, Note_on_c, 0, 80, 65
1, 233405, Note_on_c, 0, 97, 47
1, 233412, Control_c, 0, 64, 0
1, 233445, Control_c, 0, 64, 127
1, 233459, Note_on_c, 0, 97, 0
1, 233459, Note_on_c, 0, 99, 41
1, 233517, Note_on_c, 0, 99, 0
1, 233517, Note_on_c, 0, 97, 47
1, 233566, Note_on_c, 0, 80, 0
1, 233566, Note_on_c, 0, 77, 0
1, 233578, Note_on_c, 0, 97, 0
1, 233578, Note_on_c, 0, 99, 41
1, 233637, Note_on_c, 0, 99, 0
1, 233637, Note_on_c, 0, 97, 47
1, 233699, Note_on_c, 0, 97, 0
1, 233699, Note_on_c, 0, 99, 42
1, 233733, Note_on_c, 0, 68, 56
1, 233733, Note_on_c, 0, 77, 56
1, 233733, Note_on_c, 0, 80, 56
1, 233760, Note_on_c, 0, 99, 0
1, 233760, Note_on_c, 0, 97, 47
1, 233819, Note_on_c, 0, 97, 0
1, 233819, Note_on_c, 0, 99, 40
1, 233879, Note_on_c, 0, 99, 0
1, 233879, Note_on_c, 0, 97, 47
1, 233939, Note_on_c, 0, 97, 0
1, 233939, Note_on_c, 0, 99, 41
1, 234000, Note_on_c, 0, 99, 0
1, 234000, Note_on_c, 0, 97, 47
1, 234061, Note_on_c, 0, 97, 0
1, 234061, Note_on_c, 0, 99, 41
1, 234068, Note_on_c, 0, 92, 0
1, 234122, Note_on_c, 0, 99, 0
1, 234122, Note_on_c, 0, 97, 47
1, 234182, Note_on_c, 0, 97, 0
1, 234182, Note_on_c, 0, 99, 41
1, 234243, Note_on_c, 0, 99, 0
1, 234243, Note_on_c, 0, 97, 47
1, 234306, Note_on_c, 0, 97, 0
1, 234306, Note_on_c, 0, 99, 42
1, 234367, Note_on_c, 0, 99, 0
1, 234367, Note_on_c, 0, 97, 47
1, 234409, Note_on_c, 0, 96, 45
1, 234409, Note_on_c, 0, 80, 0
1, 234409, Note_on_c, 0, 77, 0
1, 234412, Note_on_c, 0, 68, 0
1, 234412, Note_on_c, 0, 77, 50
1, 234412, Note_on_c, 0, 81, 50
1, 234422, Note_on_c, 0, 97, 0
1, 234422, Note_on_c, 0, 99, 41
1, 234452, Control_c, 0, 64, 0
1, 234457, Note_on_c, 0, 99, 0
1, 234485, Note_on_c, 0, 96, 0
1, 234485, Note_on_c, 0, 97, 48
1, 234560, Note_on_c, 0, 97, 0
1, 234560, Note_on_c, 0, 98, 51
1, 234592, Note_on_c, 0, 81, 0
1, 234592, Note_on_c, 0, 77, 0
1, 234592, Note_on_c, 0, 68, 45
1, 234606, Note_on_c, 0, 72, 49
1, 234620, Note_on_c, 0, 78, 53
1, 234633, Note_on_c, 0, 98, 0
1, 234633, Note_on_c, 0, 101, 54
1, 234633, Note_on_c, 0, 82, 58
1, 234636, Control_c, 0, 64, 127
1, 234698, Note_on_c, 0, 101, 0
1, 234698, Note_on_c, 0, 99, 48
1, 234763, Note_on_c, 0, 99, 0
1, 234763, Note_on_c, 0, 97, 47
1, 234784, Note_on_c, 0, 82, 0
1, 234784, Note_on_c, 0, 68, 0
1, 234784, Note_on_c, 0, 72, 0
1, 234787, Note_on_c, 0, 78, 0
1, 234827, Note_on_c, 0, 97, 0
1, 234827, Note_on_c, 0, 96, 46
1, 234892, Note_on_c, 0, 96, 0
1, 234892, Note_on_c, 0, 94, 45
1, 234958, Note_on_c, 0, 94, 0
1, 234958, Note_on_c, 0, 92, 45
1, 235022, Note_on_c, 0, 92, 0
1, 235022, Note_on_c, 0, 90, 44
1, 235088, Note_on_c, 0, 90, 0
1, 235088, Note_on_c, 0, 89, 43
1, 235153, Note_on_c, 0, 89, 0
1, 235153, Note_on_c, 0, 87, 42
1, 235219, Note_on_c, 0, 87, 0
1, 235219, Note_on_c, 0, 85, 42
1, 235285, Note_on_c, 0, 85, 0
1, 235285, Note_on_c, 0, 84, 41
1, 235349, Note_on_c, 0, 84, 0
1, 235349, Note_on_c, 0, 82, 40
1, 235415, Note_on_c, 0, 82, 0
1, 235415, Note_on_c, 0, 80, 39
1, 235479, Note_on_c, 0, 80, 0
1, 235479, Note_on_c, 0, 78, 39
1, 235544, Note_on_c, 0, 78, 0
1, 235544, Note_on_c, 0, 77, 38
1, 235609, Note_on_c, 0, 77, 0
1, 235609, Note_on_c, 0, 75, 37
1, 235673, Note_on_c, 0, 75, 0
1, 235673, Note_on_c, 0, 73, 36
1, 235738, Note_on_c, 0, 73, 0
1, 235738, Note_on_c, 0, 72, 36
1, 235801, Note_on_c, 0, 72, 0
1, 235801, Note_on_c, 0, 70, 35
1, 235866, Note_on_c, 0, 70, 0
1, 235866, Note_on_c, 0, 68, 34
1, 235877, Control_c, 0, 64, 0
1, 235931, Note_on_c, 0, 68, 0
1, 235931, Note_on_c, 0, 66, 33
1, 235931, Control_c, 0, 64, 127
1, 235994, Note_on_c, 0, 66, 0
1, 235994, Note_on_c, 0, 65, 33
1, 236058, Note_on_c, 0, 65, 0
1, 236058, Note_on_c, 0, 63, 32
1, 236121, Note_on_c, 0, 63, 0
1, 236121, Note_on_c, 0, 61, 31
1, 236185, Note_on_c, 0, 61, 0
1, 236185, Note_on_c, 0, 60, 30
1, 236249, Note_on_c, 0, 60, 0
1, 236249, Note_on_c, 0, 58, 34
1, 236312, Note_on_c, 0, 58, 0
1, 236312, Note_on_c, 0, 56, 35
1, 236376, Note_on_c, 0, 56, 0
1, 236376, Note_on_c, 0, 54, 35
1, 236438, Note_on_c, 0, 54, 0
1, 236438, Note_on_c, 0, 53, 35
1, 236501, Note_on_c, 0, 53, 0
1, 236501, Note_on_c, 0, 51, 35
1, 236565, Note_on_c, 0, 51, 0
1, 236565, Note_on_c, 0, 49, 35
1, 236627, Note_on_c, 0, 49, 0
1, 236627, Note_on_c, 0, 48, 35
1, 236690, Note_on_c, 0, 48, 0
1, 236690, Note_on_c, 0, 46, 35
1, 236752, Note_on_c, 0, 46, 0
1, 236752, Note_on_c, 0, 44, 35
1, 236814, Note_on_c, 0, 44, 0
1, 236814, Note_on_c, 0, 42, 35
1, 236877, Note_on_c, 0, 42, 0
1, 236877, Note_on_c, 0, 41, 35
1, 236939, Note_on_c, 0, 39, 35
1, 236939, Note_on_c, 0, 41, 0
1, 237014, Note_on_c, 0, 39, 0
1, 237014, Note_on_c, 0, 37, 35
1, 237022, Control_c, 0, 64, 0
1, 237072, Control_c, 0, 64, 127
1, 237085, Note_on_c, 0, 37, 0
1, 237085, Note_on_c, 0, 41, 35
1, 237158, Note_on_c, 0, 41, 0
1, 237158, Note_on_c, 0, 44, 36
1, 237231, Note_on_c, 0, 44, 0
1, 237231, Note_on_c, 0, 49, 37
1, 237304, Note_on_c, 0, 49, 0
1, 237304, Note_on_c, 0, 53, 38
1, 237379, Note_on_c, 0, 53, 0
1, 237379, Note_on_c, 0, 56, 39
1, 237454, Note_on_c, 0, 56, 0
1, 237454, Note_on_c, 0, 61, 39
1, 237530, Note_on_c, 0, 61, 0
1, 237530, Note_on_c, 0, 65, 40
1, 237607, Note_on_c, 0, 68, 42
1, 237607, Note_on_c, 0, 65, 0
1, 237684, Note_on_c, 0, 68, 0
1, 237684, Note_on_c, 0, 73, 44
1, 237762, Note_on_c, 0, 73, 0
1, 237762, Note_on_c, 0, 77, 46
1, 237840, Note_on_c, 0, 77, 0
1, 237840, Note_on_c, 0, 80, 48
1, 237918, Note_on_c, 0, 80, 0
1, 237918, Note_on_c, 0, 85, 48
1, 237956, Note_on_c, 0, 89, 50
1, 237995, Note_on_c, 0, 92, 52
1, 238034, Note_on_c, 0, 97, 54
1, 238228, Note_on_c, 0, 97, 0
1, 238228, Note_on_c, 0, 85, 0
1, 238228, Note_on_c, 0, 89, 0
1, 238231, Note_on_c, 0, 92, 0
1, 238306, Control_c, 0, 64, 0
1, 239273, Note_on_c, 0, 68, 50
1, 239384, Note_on_c, 0, 68, 0
1, 239384, Note_on_c, 0, 77, 58
1, 239384, Note_on_c, 0, 49, 41
1, 239409, Control_c, 0, 64, 127
1, 239504, Note_on_c, 0, 49, 0
1, 239623, Note_on_c, 0, 65, 40
1, 239623, Note_on_c, 0, 68, 40
1, 239623, Note_on_c, 0, 56, 34
1, 239626, Note_on_c, 0, 61, 34
1, 239678, Note_on_c, 0, 68, 0
1, 239678, Note_on_c, 0, 65, 0
1, 239678, Note_on_c, 0, 61, 0
1, 239681, Note_on_c, 0, 56, 0
1, 239733, Note_on_c, 0, 77, 0
1, 239733, Note_on_c, 0, 75, 53
1, 239852, Note_on_c, 0, 75, 0
1, 239852, Note_on_c, 0, 78, 57
1, 239852, Note_on_c, 0, 44, 42
1, 239871, Control_c, 0, 64, 0
1, 239939, Control_c, 0, 64, 127
1, 239962, Note_on_c, 0, 44, 0
1, 240072, Note_on_c, 0, 66, 40
1, 240072, Note_on_c, 0, 68, 40
1, 240072, Note_on_c, 0, 56, 34
1, 240075, Note_on_c, 0, 63, 34
1, 240129, Note_on_c, 0, 68, 0
1, 240129, Note_on_c, 0, 66, 0
1, 240129, Note_on_c, 0, 78, 0
1, 240132, Note_on_c, 0, 63, 0
1, 240132, Note_on_c, 0, 56, 0
1, 240186, Note_on_c, 0, 72, 52
1, 240243, Note_on_c, 0, 72, 0
1, 240243, Note_on_c, 0, 75, 59
1, 240300, Note_on_c, 0, 75, 0
1, 240300, Note_on_c, 0, 73, 59
1, 240300, Note_on_c, 0, 49, 44
1, 240303, Control_c, 0, 64, 0
1, 240360, Note_on_c, 0, 73, 0
1, 240360, Note_on_c, 0, 49, 0
1, 240517, Control_c, 0, 64, 127
1, 240537, Note_on_c, 0, 65, 40
1, 240537, Note_on_c, 0, 68, 40
1, 240537, Note_on_c, 0, 73, 52
1, 240540, Note_on_c, 0, 56, 34
1, 240540, Note_on_c, 0, 61, 34
1, 240593, Note_on_c, 0, 68, 0
1, 240593, Note_on_c, 0, 65, 0
1, 240593, Note_on_c, 0, 61, 0
1, 240596, Note_on_c, 0, 56, 0
1, 240760, Note_on_c, 0, 49, 45
1, 240819, Note_on_c, 0, 49, 0
1, 240996, Note_on_c, 0, 73, 0
1, 240996, Note_on_c, 0, 65, 40
1, 240996, Note_on_c, 0, 68, 40
1, 240999, Note_on_c, 0, 73, 50
1, 240999, Note_on_c, 0, 56, 34
1, 240999, Note_on_c, 0, 61, 34
1, 241053, Note_on_c, 0, 68, 0
1, 241053, Note_on_c, 0, 65, 0
1, 241053, Note_on_c, 0, 61, 0
1, 241056, Note_on_c, 0, 56, 0
1, 241227, Note_on_c, 0, 73, 0
1, 241227, Note_on_c, 0, 82, 59
1, 241227, Note_on_c, 0, 54, 47
1, 241230, Control_c, 0, 64, 0
1, 241285, Note_on_c, 0, 82, 0
1, 241285, Note_on_c, 0, 54, 0
1, 241436, Control_c, 0, 64, 127
1, 241459, Note_on_c, 0, 70, 40
1, 241459, Note_on_c, 0, 82, 55
1, 241459, Note_on_c, 0, 66, 40
1, 241462, Note_on_c, 0, 66, 34
1, 241462, Note_on_c, 0, 61, 34
1, 241517, Note_on_c, 0, 66, 0
1, 241517, Note_on_c, 0, 70, 0
1, 241517, Note_on_c, 0, 61, 0
1, 241520, Note_on_c, 0, 66, 0
1, 241574, Note_on_c, 0, 82, 0
1, 241690, Note_on_c, 0, 80, 60
1, 241690, Note_on_c, 0, 53, 47
1, 241736, Control_c, 0, 64, 0
1, 241751, Note_on_c, 0, 53, 0
1, 241800, Control_c, 0, 64, 127
1, 241933, Note_on_c, 0, 70, 40
1, 241933, Note_on_c, 0, 68, 40
1, 241933, Note_on_c, 0, 65, 34
1, 241936, Note_on_c, 0, 62, 34
1, 241994, Note_on_c, 0, 68, 0
1, 241994, Note_on_c, 0, 70, 0
1, 241994, Note_on_c, 0, 62, 0
1, 241997, Note_on_c, 0, 65, 0
1, 242176, Note_on_c, 0, 80, 0
1, 242176, Note_on_c, 0, 78, 56
1, 242176, Note_on_c, 0, 51, 43
1, 242179, Control_c, 0, 64, 0
1, 242233, Note_on_c, 0, 78, 0
1, 242290, Note_on_c, 0, 51, 0
1, 242377, Control_c, 0, 64, 127
1, 242404, Note_on_c, 0, 70, 40
1, 242404, Note_on_c, 0, 66, 40
1, 242404, Note_on_c, 0, 78, 60
1, 242407, Note_on_c, 0, 63, 34
1, 242407, Note_on_c, 0, 58, 34
1, 242465, Note_on_c, 0, 66, 0
1, 242465, Note_on_c, 0, 70, 0
1, 242465, Note_on_c, 0, 58, 0
1, 242468, Note_on_c, 0, 63, 0
1, 242647, Note_on_c, 0, 51, 46
1, 242768, Note_on_c, 0, 51, 0
1, 242890, Note_on_c, 0, 78, 0
1, 242890, Note_on_c, 0, 66, 40
1, 242890, Note_on_c, 0, 70, 40
1, 242893, Note_on_c, 0, 78, 53
1, 242893, Note_on_c, 0, 63, 34
1, 242893, Note_on_c, 0, 58, 34
1, 242959, Note_on_c, 0, 70, 0
1, 242959, Note_on_c, 0, 66, 0
1, 242959, Note_on_c, 0, 58, 0
1, 242962, Note_on_c, 0, 63, 0
1, 243166, Note_on_c, 0, 78, 0
1, 243166, Note_on_c, 0, 85, 61
1, 243166, Note_on_c, 0, 42, 50
1, 243227, Control_c, 0, 64, 0
1, 243297, Note_on_c, 0, 85, 0
1, 243297, Note_on_c, 0, 42, 0
1, 243297, Control_c, 0, 64, 127
1, 243428, Note_on_c, 0, 85, 60
1, 243428, Note_on_c, 0, 73, 40
1, 243428, Note_on_c, 0, 82, 60
1, 243431, Note_on_c, 0, 61, 33
1, 243431, Note_on_c, 0, 70, 40
1, 243707, Note_on_c, 0, 82, 0
1, 243707, Note_on_c, 0, 73, 0
1, 243707, Note_on_c, 0, 85, 0
1, 243710, Note_on_c, 0, 80, 64
1, 243710, Note_on_c, 0, 84, 64
1, 243710, Note_on_c, 0, 72, 40
1, 243713, Note_on_c, 0, 70, 0
1, 243713, Note_on_c, 0, 61, 0
1, 243713, Note_on_c, 0, 61, 33
1, 243716, Note_on_c, 0, 68, 40
1, 243789, Control_c, 0, 64, 0
1, 243887, Control_c, 0, 64, 127
1, 244137, Note_on_c, 0, 72, 0
1, 244137, Note_on_c, 0, 84, 0
1, 244137, Note_on_c, 0, 80, 0
1, 244140, Note_on_c, 0, 82, 55
1, 244140, Note_on_c, 0, 70, 40
1, 244140, Note_on_c, 0, 78, 55
1, 244143, Note_on_c, 0, 68, 0
1, 244143, Note_on_c, 0, 66, 40
1, 244242, Note_on_c, 0, 78, 0
1, 244242, Note_on_c, 0, 70, 0
1, 244242, Note_on_c, 0, 82, 0
1, 244245, Note_on_c, 0, 78, 52
1, 244245, Note_on_c, 0, 82, 52
1, 244312, Note_on_c, 0, 82, 0
1, 244312, Note_on_c, 0, 78, 0
1, 244312, Note_on_c, 0, 77, 65
1, 244315, Note_on_c, 0, 80, 65
1, 244315, Note_on_c, 0, 66, 0
1, 244315, Note_on_c, 0, 61, 0
1, 244318, Note_on_c, 0, 44, 50
1, 244318, Control_c, 0, 64, 0
1, 244379, Note_on_c, 0, 80, 0
1, 244379, Note_on_c, 0, 77, 0
1, 244445, Note_on_c, 0, 44, 0
1, 244554, Control_c, 0, 64, 127
1, 244577, Note_on_c, 0, 80, 56
1, 244577, Note_on_c, 0, 68, 56
1, 244577, Note_on_c, 0, 77, 56
1, 244580, Note_on_c, 0, 65, 40
1, 244580, Note_on_c, 0, 61, 40
1, 244715, Note_on_c, 0, 61, 0
1, 244715, Note_on_c, 0, 65, 0
1, 244853, Note_on_c, 0, 56, 40
1, 245001, Note_on_c, 0, 56, 0
1, 245132, Control_c, 0, 64, 0
1, 245172, Note_on_c, 0, 77, 0
1, 245172, Note_on_c, 0, 68, 0
1, 245172, Note_on_c, 0, 80, 0
1, 245344, Note_on_c, 0, 81, 50
1, 245344, Note_on_c, 0, 77, 50
1, 245344, Note_on_c, 0, 65, 46
1, 245347, Note_on_c, 0, 69, 46
1, 245429, Note_on_c, 0, 77, 0
1, 245429, Note_on_c, 0, 81, 0
1, 245429, Note_on_c, 0, 78, 56
1, 245432, Note_on_c, 0, 82, 56
1, 245432, Note_on_c, 0, 69, 0
1, 245432, Note_on_c, 0, 65, 0
1, 245435, Note_on_c, 0, 66, 50
1, 245435, Note_on_c, 0, 70, 50
1, 245497, Note_on_c, 0, 82, 0
1, 245497, Note_on_c, 0, 78, 0
1, 245497, Note_on_c, 0, 70, 0
1, 245500, Note_on_c, 0, 66, 0
1, 245698, Note_on_c, 0, 82, 56
1, 245698, Note_on_c, 0, 78, 56
1, 245698, Note_on_c, 0, 66, 50
1, 245701, Note_on_c, 0, 70, 50
1, 246184, Note_on_c, 0, 78, 0
1, 246184, Note_on_c, 0, 82, 0
1, 246184, Note_on_c, 0, 66, 40
1, 246187, Note_on_c, 0, 72, 51
1, 246187, Note_on_c, 0, 70, 0
1, 246187, Note_on_c, 0, 66, 0
1, 246190, Note_on_c, 0, 63, 47
1, 246190, Note_on_c, 0, 56, 37
1, 246453, Note_on_c, 0, 72, 0
1, 246453, Note_on_c, 0, 66, 0
1, 246453, Note_on_c, 0, 73, 54
1, 246456, Note_on_c, 0, 65, 43
1, 246456, Note_on_c, 0, 56, 0
1, 246456, Note_on_c, 0, 63, 0
1, 246459, Note_on_c, 0, 61, 51
1, 246522, Note_on_c, 0, 65, 0
1, 246522, Note_on_c, 0, 73, 0
1, 246522, Note_on_c, 0, 61, 0
1, 246730, Note_on_c, 0, 73, 56
1, 246730, Note_on_c, 0, 65, 44
1, 246730, Note_on_c, 0, 61, 53
1, 246733, Note_on_c, 0, 49, 42
1, 246733, Note_on_c, 0, 56, 42
1, 247293, Note_on_c, 0, 65, 0
1, 247293, Note_on_c, 0, 73, 0
1, 247293, Note_on_c, 0, 56, 0
1, 247296, Note_on_c, 0, 49, 0
1, 247296, Note_on_c, 0, 61, 0
1, 247404, Note_on_c, 0, 80, 55
1, 247404, Note_on_c, 0, 68, 42
1, 247514, Note_on_c, 0, 68, 0
1, 247514, Note_on_c, 0, 80, 0
1, 247514, Note_on_c, 0, 77, 49
1, 247517, Note_on_c, 0, 89, 63
1, 247517, Note_on_c, 0, 49, 47
1, 247517, Note_on_c, 0, 37, 37
1, 247539, Control_c, 0, 64, 127
1, 247631, Note_on_c, 0, 37, 0
1, 247631, Note_on_c, 0, 49, 0
1, 247748, Note_on_c, 0, 61, 34
1, 247748, Note_on_c, 0, 65, 34
1, 247748, Note_on_c, 0, 68, 34
1, 247803, Note_on_c, 0, 68, 0
1, 247803, Note_on_c, 0, 65, 0
1, 247803, Note_on_c, 0, 61, 0
1, 247858, Note_on_c, 0, 89, 0
1, 247858, Note_on_c, 0, 77, 0
1, 247858, Note_on_c, 0, 87, 58
1, 247861, Note_on_c, 0, 75, 45
1, 247977, Note_on_c, 0, 75, 0
1, 247977, Note_on_c, 0, 87, 0
1, 247977, Note_on_c, 0, 78, 48
1, 247980, Note_on_c, 0, 90, 62
1, 247980, Note_on_c, 0, 56, 47
1, 247980, Note_on_c, 0, 44, 37
1, 247996, Control_c, 0, 64, 0
1, 248063, Control_c, 0, 64, 127
1, 248087, Note_on_c, 0, 44, 0
1, 248087, Note_on_c, 0, 56, 0
1, 248197, Note_on_c, 0, 63, 34
1, 248197, Note_on_c, 0, 66, 34
1, 248197, Note_on_c, 0, 68, 34
1, 248254, Note_on_c, 0, 68, 0
1, 248254, Note_on_c, 0, 66, 0
1, 248254, Note_on_c, 0, 63, 0
1, 248311, Note_on_c, 0, 90, 0
1, 248311, Note_on_c, 0, 78, 0
1, 248311, Note_on_c, 0, 72, 44
1, 248314, Note_on_c, 0, 84, 57
1, 248425, Note_on_c, 0, 84, 0
1, 248425, Note_on_c, 0, 72, 0
1, 248425, Note_on_c, 0, 87, 64
1, 248428, Note_on_c, 0, 75, 50
1, 248428, Note_on_c, 0, 49, 45
1, 248428, Note_on_c, 0, 37, 36
1, 248431, Control_c, 0, 64, 0
1, 248484, Note_on_c, 0, 75, 0
1, 248484, Note_on_c, 0, 87, 0
1, 248484, Note_on_c, 0, 37, 0
1, 248487, Note_on_c, 0, 49, 0
1, 248641, Control_c, 0, 64, 127
1, 248662, Note_on_c, 0, 73, 44
1, 248662, Note_on_c, 0, 85, 57
1, 248662, Note_on_c, 0, 61, 34
1, 248665, Note_on_c, 0, 65, 34
1, 248665, Note_on_c, 0, 68, 34
1, 248718, Note_on_c, 0, 68, 0
1, 248718, Note_on_c, 0, 65, 0
1, 248718, Note_on_c, 0, 61, 0
1, 248885, Note_on_c, 0, 56, 46
1, 248885, Note_on_c, 0, 44, 36
1, 248944, Note_on_c, 0, 44, 0
1, 248944, Note_on_c, 0, 56, 0
1, 249120, Note_on_c, 0, 85, 0
1, 249120, Note_on_c, 0, 73, 0
1, 249120, Note_on_c, 0, 73, 42
1, 249123, Note_on_c, 0, 85, 55
1, 249123, Note_on_c, 0, 65, 34
1, 249123, Note_on_c, 0, 61, 34
1, 249126, Note_on_c, 0, 68, 34
1, 249178, Note_on_c, 0, 68, 0
1, 249178, Note_on_c, 0, 61, 0
1, 249178, Note_on_c, 0, 65, 0
1, 249352, Note_on_c, 0, 85, 0
1, 249352, Note_on_c, 0, 73, 0
1, 249352, Note_on_c, 0, 82, 55
1, 249355, Note_on_c, 0, 94, 64
1, 249355, Note_on_c, 0, 54, 43
1, 249355, Note_on_c, 0, 42, 34
1, 249358, Control_c, 0, 64, 0
1, 249410, Note_on_c, 0, 94, 0
1, 249410, Note_on_c, 0, 82, 0
1, 249410, Note_on_c, 0, 42, 0
1, 249413, Note_on_c, 0, 54, 0
1, 249561, Control_c, 0, 64, 127
1, 249583, Note_on_c, 0, 82, 50
1, 249583, Note_on_c, 0, 94, 60
1, 249583, Note_on_c, 0, 61, 34
1, 249586, Note_on_c, 0, 70, 34
1, 249586, Note_on_c, 0, 66, 34
1, 249641, Note_on_c, 0, 66, 0
1, 249641, Note_on_c, 0, 70, 0
1, 249641, Note_on_c, 0, 61, 0
1, 249699, Note_on_c, 0, 94, 0
1, 249699, Note_on_c, 0, 82, 0
1, 249815, Note_on_c, 0, 92, 66
1, 249815, Note_on_c, 0, 80, 51
1, 249815, Note_on_c, 0, 53, 44
1, 249818, Note_on_c, 0, 41, 35
1, 249834, Control_c, 0, 64, 0
1, 249876, Note_on_c, 0, 41, 0
1, 249876, Note_on_c, 0, 53, 0
1, 249888, Control_c, 0, 64, 127
1, 250058, Note_on_c, 0, 58, 34
1, 250058, Note_on_c, 0, 68, 34
1, 250058, Note_on_c, 0, 62, 34
1, 250119, Note_on_c, 0, 62, 0
1, 250119, Note_on_c, 0, 68, 0
1, 250119, Note_on_c, 0, 58, 0
1, 250301, Note_on_c, 0, 80, 0
1, 250301, Note_on_c, 0, 92, 0
1, 250301, Note_on_c, 0, 78, 47
1, 250304, Note_on_c, 0, 90, 61
1, 250304, Note_on_c, 0, 51, 50
1, 250304, Note_on_c, 0, 39, 40
1, 250307, Control_c, 0, 64, 0
1, 250358, Note_on_c, 0, 90, 0
1, 250358, Note_on_c, 0, 78, 0
1, 250415, Note_on_c, 0, 39, 0
1, 250415, Note_on_c, 0, 51, 0
1, 250502, Control_c, 0, 64, 127
1, 250529, Note_on_c, 0, 90, 66
1, 250529, Note_on_c, 0, 82, 60
1, 250529, Note_on_c, 0, 78, 51
1, 250532, Note_on_c, 0, 66, 34
1, 250532, Note_on_c, 0, 63, 34
1, 250589, Note_on_c, 0, 63, 0
1, 250589, Note_on_c, 0, 66, 0
1, 250772, Note_on_c, 0, 58, 47
1, 250772, Note_on_c, 0, 46, 37
1, 250893, Note_on_c, 0, 46, 0
1, 250893, Note_on_c, 0, 58, 0
1, 251014, Note_on_c, 0, 78, 0
1, 251014, Note_on_c, 0, 82, 0
1, 251014, Note_on_c, 0, 90, 0
1, 251017, Note_on_c, 0, 87, 45
1, 251017, Note_on_c, 0, 78, 45
1, 251017, Note_on_c, 0, 90, 58
1, 251020, Note_on_c, 0, 66, 34
1, 251020, Note_on_c, 0, 63, 34
1, 251084, Note_on_c, 0, 63, 0
1, 251084, Note_on_c, 0, 66, 0
1, 251291, Note_on_c, 0, 90, 0
1, 251291, Note_on_c, 0, 78, 0
1, 251291, Note_on_c, 0, 87, 0
1, 251294, Note_on_c, 0, 97, 67
1, 251294, Note_on_c, 0, 94, 61
1, 251294, Note_on_c, 0, 85, 61
1, 251297, Note_on_c, 0, 54, 48
1, 251297, Note_on_c, 0, 42, 38
1, 251352, Control_c, 0, 64, 0
1, 251422, Control_c, 0, 64, 127
1, 251553, Note_on_c, 0, 85, 0
1, 251553, Note_on_c, 0, 94, 0
1, 251553, Note_on_c, 0, 97, 0
1, 251556, Note_on_c, 0, 94, 60
1, 251556, Note_on_c, 0, 97, 66
1, 251556, Note_on_c, 0, 85, 40
1, 251559, Note_on_c, 0, 42, 0
1, 251559, Note_on_c, 0, 54, 0
1, 251559, Note_on_c, 0, 73, 40
1, 251562, Note_on_c, 0, 61, 34
1, 251562, Note_on_c, 0, 70, 34
1, 251832, Note_on_c, 0, 85, 0
1, 251832, Note_on_c, 0, 97, 0
1, 251832, Note_on_c, 0, 94, 0
1, 251835, Note_on_c, 0, 84, 40
1, 251835, Note_on_c, 0, 92, 64
1, 251835, Note_on_c, 0, 96, 70
1, 251838, Note_on_c, 0, 70, 0
1, 251838, Note_on_c, 0, 61, 0
1, 251838, Note_on_c, 0, 73, 0
1, 251841, Note_on_c, 0, 72, 40
1, 251841, Note_on_c, 0, 61, 34
1, 251841, Note_on_c, 0, 68, 34
1, 251881, Control_c, 0, 64, 0
1, 251939, Control_c, 0, 64, 127
1, 252262, Note_on_c, 0, 96, 0
1, 252262, Note_on_c, 0, 92, 0
1, 252262, Note_on_c, 0, 84, 0
1, 252265, Note_on_c, 0, 94, 60
1, 252265, Note_on_c, 0, 82, 40
1, 252265, Note_on_c, 0, 90, 55
1, 252268, Note_on_c, 0, 68, 0
1, 252268, Note_on_c, 0, 72, 0
1, 252268, Note_on_c, 0, 70, 40
1, 252271, Note_on_c, 0, 66, 34
1, 252367, Note_on_c, 0, 90, 0
1, 252367, Note_on_c, 0, 82, 0
1, 252367, Note_on_c, 0, 94, 0
1, 252437, Note_on_c, 0, 89, 65
1, 252437, Note_on_c, 0, 80, 55
1, 252437, Note_on_c, 0, 92, 71
1, 252440, Note_on_c, 0, 66, 0
1, 252440, Note_on_c, 0, 70, 0
1, 252440, Note_on_c, 0, 61, 0
1, 252443, Note_on_c, 0, 44, 55
1, 252443, Control_c, 0, 64, 0
1, 252506, Note_on_c, 0, 92, 0
1, 252506, Note_on_c, 0, 80, 0
1, 252506, Note_on_c, 0, 89, 0
1, 252509, Note_on_c, 0, 44, 0
1, 252689, Control_c, 0, 64, 127
1, 252714, Note_on_c, 0, 92, 61
1, 252714, Note_on_c, 0, 89, 56
1, 252714, Note_on_c, 0, 80, 47
1, 252717, Note_on_c, 0, 65, 40
1, 252717, Note_on_c, 0, 68, 40
1, 252717, Note_on_c, 0, 61, 40
1, 252852, Note_on_c, 0, 61, 0
1, 252852, Note_on_c, 0, 68, 0
1, 252852, Note_on_c, 0, 65, 0
1, 252990, Note_on_c, 0, 56, 40
1, 253138, Note_on_c, 0, 56, 0
1, 253269, Control_c, 0, 64, 0
1, 253309, Note_on_c, 0, 80, 0
1, 253309, Note_on_c, 0, 89, 0
1, 253309, Note_on_c, 0, 92, 0
1, 253481, Note_on_c, 0, 81, 42
1, 253481, Note_on_c, 0, 93, 55
1, 253481, Note_on_c, 0, 65, 46
1, 253484, Note_on_c, 0, 77, 46
1, 253568, Note_on_c, 0, 93, 0
1, 253568, Note_on_c, 0, 81, 0
1, 253568, Note_on_c, 0, 82, 47
1, 253571, Note_on_c, 0, 94, 61
1, 253571, Note_on_c, 0, 77, 0
1, 253571, Note_on_c, 0, 65, 0
1, 253574, Note_on_c, 0, 66, 50
1, 253574, Note_on_c, 0, 78, 50
1, 253647, Note_on_c, 0, 94, 0
1, 253647, Note_on_c, 0, 82, 0
1, 253647, Note_on_c, 0, 78, 0
1, 253650, Note_on_c, 0, 66, 0
1, 254203, Note_on_c, 0, 72, 51
1, 254203, Note_on_c, 0, 66, 40
1, 254203, Note_on_c, 0, 60, 40
1, 254206, Note_on_c, 0, 44, 37
1, 254206, Note_on_c, 0, 56, 47
1, 254206, Note_on_c, 0, 51, 37
1, 254718, Note_on_c, 0, 60, 0
1, 254718, Note_on_c, 0, 66, 0
1, 254718, Note_on_c, 0, 72, 0
1, 254721, Note_on_c, 0, 65, 43
1, 254721, Note_on_c, 0, 61, 43
1, 254721, Note_on_c, 0, 73, 54
1, 254724, Note_on_c, 0, 51, 0
1, 254724, Note_on_c, 0, 56, 0
1, 254724, Note_on_c, 0, 44, 0
1, 254727, Note_on_c, 0, 49, 45
1, 254727, Note_on_c, 0, 56, 51
1, 254785, Note_on_c, 0, 73, 0
1, 254785, Note_on_c, 0, 61, 0
1, 254785, Note_on_c, 0, 65, 0
1, 254788, Note_on_c, 0, 56, 0
1, 254788, Note_on_c, 0, 49, 0
1, 254987, Note_on_c, 0, 65, 44
1, 254987, Note_on_c, 0, 61, 44
1, 254987, Note_on_c, 0, 73, 56
1, 254990, Note_on_c, 0, 56, 53
1, 254990, Note_on_c, 0, 49, 42
1, 255569, Control_c, 0, 64, 127
1, 255666, Note_on_c, 0, 73, 0
1, 255666, Note_on_c, 0, 61, 0
1, 255666, Note_on_c, 0, 65, 0
1, 255669, Note_on_c, 0, 89, 40
1, 255669, Note_on_c, 0, 85, 40
1, 255669, Note_on_c, 0, 49, 0
1, 255672, Note_on_c, 0, 56, 0
1, 255780, Note_on_c, 0, 85, 0
1, 255780, Note_on_c, 0, 89, 0
1, 255780, Note_on_c, 0, 90, 45
1, 255783, Note_on_c, 0, 87, 45
1, 255890, Note_on_c, 0, 87, 0
1, 255890, Note_on_c, 0, 90, 0
1, 255890, Note_on_c, 0, 88, 51
1, 255893, Note_on_c, 0, 91, 51
1, 255997, Note_on_c, 0, 91, 0
1, 255997, Note_on_c, 0, 88, 0
1, 255997, Note_on_c, 0, 94, 57
1, 256000, Note_on_c, 0, 90, 57
1, 256018, Control_c, 0, 64, 0
1, 256043, Control_c, 0, 64, 127
1, 256094, Note_on_c, 0, 90, 0
1, 256094, Note_on_c, 0, 94, 0
1, 256094, Note_on_c, 0, 89, 47
1, 256097, Note_on_c, 0, 92, 47
1, 256186, Note_on_c, 0, 92, 0
1, 256186, Note_on_c, 0, 89, 0
1, 256196, Note_on_c, 0, 92, 47
1, 256196, Note_on_c, 0, 89, 47
1, 256196, Note_on_c, 0, 61, 38
1, 256273, Note_on_c, 0, 61, 0
1, 256299, Note_on_c, 0, 89, 0
1, 256299, Note_on_c, 0, 92, 0
1, 256299, Note_on_c, 0, 91, 47
1, 256302, Note_on_c, 0, 88, 47
1, 256302, Note_on_c, 0, 77, 34
1, 256380, Note_on_c, 0, 77, 0
1, 256396, Note_on_c, 0, 88, 0
1, 256396, Note_on_c, 0, 91, 0
1, 256407, Note_on_c, 0, 90, 53
1, 256407, Note_on_c, 0, 94, 53
1, 256407, Note_on_c, 0, 68, 39
1, 256478, Note_on_c, 0, 68, 0
1, 256501, Note_on_c, 0, 94, 0
1, 256501, Note_on_c, 0, 90, 0
1, 256501, Note_on_c, 0, 89, 46
1, 256504, Note_on_c, 0, 92, 46
1, 256504, Note_on_c, 0, 77, 36
1, 256576, Note_on_c, 0, 77, 0
1, 256591, Note_on_c, 0, 92, 0
1, 256591, Note_on_c, 0, 89, 0
1, 256600, Note_on_c, 0, 92, 47
1, 256600, Note_on_c, 0, 89, 47
1, 256600, Note_on_c, 0, 73, 40
1, 256675, Note_on_c, 0, 73, 0
1, 256699, Note_on_c, 0, 89, 0
1, 256699, Note_on_c, 0, 92, 0
1, 256699, Note_on_c, 0, 91, 49
1, 256702, Note_on_c, 0, 88, 49
1, 256702, Note_on_c, 0, 77, 37
1, 256779, Note_on_c, 0, 77, 0
1, 256795, Note_on_c, 0, 88, 0
1, 256795, Note_on_c, 0, 91, 0
1, 256806, Note_on_c, 0, 90, 58
1, 256806, Note_on_c, 0, 94, 58
1, 256806, Note_on_c, 0, 68, 42
1, 256811, Control_c, 0, 64, 0
1, 256852, Control_c, 0, 64, 127
1, 256875, Note_on_c, 0, 68, 0
1, 256898, Note_on_c, 0, 94, 0
1, 256898, Note_on_c, 0, 90, 0
1, 256898, Note_on_c, 0, 92, 50
1, 256901, Note_on_c, 0, 89, 50
1, 256901, Note_on_c, 0, 77, 38
1, 256970, Note_on_c, 0, 77, 0
1, 256985, Note_on_c, 0, 89, 0
1, 256985, Note_on_c, 0, 92, 0
1, 256994, Note_on_c, 0, 92, 50
1, 256994, Note_on_c, 0, 89, 50
1, 256994, Note_on_c, 0, 61, 44
1, 257067, Note_on_c, 0, 61, 0
1, 257091, Note_on_c, 0, 89, 0
1, 257091, Note_on_c, 0, 92, 0
1, 257091, Note_on_c, 0, 91, 50
1, 257094, Note_on_c, 0, 88, 50
1, 257094, Note_on_c, 0, 77, 40
1, 257168, Note_on_c, 0, 77, 0
1, 257183, Note_on_c, 0, 88, 0
1, 257183, Note_on_c, 0, 91, 0
1, 257194, Note_on_c, 0, 90, 60
1, 257194, Note_on_c, 0, 94, 60
1, 257194, Note_on_c, 0, 68, 46
1, 257260, Note_on_c, 0, 68, 0
1, 257283, Note_on_c, 0, 94, 0
1, 257283, Note_on_c, 0, 90, 0
1, 257283, Note_on_c, 0, 89, 53
1, 257286, Note_on_c, 0, 92, 53
1, 257286, Note_on_c, 0, 77, 42
1, 257353, Note_on_c, 0, 77, 0
1, 257367, Note_on_c, 0, 92, 0
1, 257367, Note_on_c, 0, 89, 0
1, 257376, Note_on_c, 0, 89, 54
1, 257376, Note_on_c, 0, 92, 54
1, 257376, Note_on_c, 0, 73, 47
1, 257446, Note_on_c, 0, 73, 0
1, 257469, Note_on_c, 0, 92, 0
1, 257469, Note_on_c, 0, 89, 0
1, 257469, Note_on_c, 0, 91, 56
1, 257472, Note_on_c, 0, 88, 56
1, 257472, Note_on_c, 0, 77, 45
1, 257545, Note_on_c, 0, 77, 0
1, 257560, Note_on_c, 0, 88, 0
1, 257560, Note_on_c, 0, 91, 0
1, 257570, Note_on_c, 0, 90, 65
1, 257570, Note_on_c, 0, 94, 65
1, 257570, Note_on_c, 0, 68, 48
1, 257574, Control_c, 0, 64, 0
1, 257614, Control_c, 0, 64, 127
1, 257636, Note_on_c, 0, 68, 0
1, 257658, Note_on_c, 0, 94, 0
1, 257658, Note_on_c, 0, 90, 0
1, 257658, Note_on_c, 0, 92, 57
1, 257661, Note_on_c, 0, 89, 57
1, 257661, Note_on_c, 0, 77, 42
1, 257728, Note_on_c, 0, 77, 0
1, 257742, Note_on_c, 0, 89, 0
1, 257742, Note_on_c, 0, 92, 0
1, 257752, Note_on_c, 0, 92, 57
1, 257752, Note_on_c, 0, 89, 57
1, 257752, Note_on_c, 0, 61, 50
1, 257822, Note_on_c, 0, 61, 0
1, 257846, Note_on_c, 0, 89, 0
1, 257846, Note_on_c, 0, 92, 0
1, 257846, Note_on_c, 0, 88, 57
1, 257849, Note_on_c, 0, 91, 57
1, 257849, Note_on_c, 0, 77, 46
1, 257922, Note_on_c, 0, 77, 0
1, 257937, Note_on_c, 0, 91, 0
1, 257937, Note_on_c, 0, 88, 0
1, 257947, Note_on_c, 0, 90, 66
1, 257947, Note_on_c, 0, 94, 66
1, 257947, Note_on_c, 0, 68, 52
1, 258013, Note_on_c, 0, 68, 0
1, 258035, Note_on_c, 0, 94, 0
1, 258035, Note_on_c, 0, 90, 0
1, 258035, Note_on_c, 0, 89, 60
1, 258038, Note_on_c, 0, 92, 60
1, 258038, Note_on_c, 0, 77, 46
1, 258107, Note_on_c, 0, 77, 0
1, 258121, Note_on_c, 0, 92, 0
1, 258121, Note_on_c, 0, 89, 0
1, 258131, Note_on_c, 0, 89, 60
1, 258131, Note_on_c, 0, 92, 60
1, 258131, Note_on_c, 0, 73, 53
1, 258203, Note_on_c, 0, 73, 0
1, 258227, Note_on_c, 0, 92, 0
1, 258227, Note_on_c, 0, 89, 0
1, 258227, Note_on_c, 0, 88, 60
1, 258230, Note_on_c, 0, 91, 60
1, 258230, Note_on_c, 0, 77, 48
1, 258304, Note_on_c, 0, 77, 0
1, 258320, Note_on_c, 0, 91, 0
1, 258320, Note_on_c, 0, 88, 0
1, 258330, Note_on_c, 0, 90, 74
1, 258330, Note_on_c, 0, 94, 74
1, 258330, Note_on_c, 0, 68, 52
1, 258333, Control_c, 0, 64, 0
1, 258383, Control_c, 0, 64, 127
1, 258400, Note_on_c, 0, 68, 0
1, 258424, Note_on_c, 0, 94, 0
1, 258424, Note_on_c, 0, 90, 0
1, 258424, Note_on_c, 0, 92, 68
1, 258427, Note_on_c, 0, 89, 68
1, 258427, Note_on_c, 0, 77, 46
1, 258506, Note_on_c, 0, 89, 0
1, 258506, Note_on_c, 0, 92, 0
1, 258516, Note_on_c, 0, 89, 57
1, 258516, Note_on_c, 0, 92, 71
1, 258516, Note_on_c, 0, 77, 0
1, 258519, Note_on_c, 0, 61, 50
1, 258607, Note_on_c, 0, 92, 0
1, 258607, Note_on_c, 0, 101, 75
1, 258607, Note_on_c, 0, 61, 0
1, 258696, Note_on_c, 0, 101, 0
1, 258706, Note_on_c, 0, 89, 0
1, 258706, Note_on_c, 0, 101, 82
1, 258706, Note_on_c, 0, 89, 60
1, 258709, Note_on_c, 0, 69, 46
1, 258709, Control_c, 0, 64, 0
1, 258755, Control_c, 0, 64, 127
1, 258793, Note_on_c, 0, 101, 0
1, 258793, Note_on_c, 0, 100, 79
1, 258793, Note_on_c, 0, 69, 0
1, 258873, Note_on_c, 0, 100, 0
1, 258881, Note_on_c, 0, 89, 0
1, 258881, Note_on_c, 0, 89, 57
1, 258881, Note_on_c, 0, 100, 82
1, 258884, Note_on_c, 0, 72, 42
1, 258884, Note_on_c, 0, 77, 42
1, 258969, Note_on_c, 0, 100, 0
1, 258969, Note_on_c, 0, 99, 75
1, 258969, Note_on_c, 0, 77, 0
1, 258972, Note_on_c, 0, 72, 0
1, 259059, Note_on_c, 0, 99, 0
1, 259064, Note_on_c, 0, 89, 0
1, 259064, Note_on_c, 0, 99, 81
1, 259064, Note_on_c, 0, 89, 60
1, 259067, Note_on_c, 0, 70, 46
1, 259071, Control_c, 0, 64, 0
1, 259092, Control_c, 0, 64, 127
1, 259152, Note_on_c, 0, 99, 0
1, 259152, Note_on_c, 0, 98, 77
1, 259152, Note_on_c, 0, 70, 0
1, 259232, Note_on_c, 0, 98, 0
1, 259240, Note_on_c, 0, 89, 0
1, 259240, Note_on_c, 0, 98, 81
1, 259240, Note_on_c, 0, 89, 57
1, 259243, Note_on_c, 0, 82, 42
1, 259243, Note_on_c, 0, 77, 35
1, 259328, Note_on_c, 0, 98, 0
1, 259328, Note_on_c, 0, 97, 75
1, 259328, Note_on_c, 0, 77, 0
1, 259331, Note_on_c, 0, 82, 0
1, 259413, Note_on_c, 0, 97, 0
1, 259423, Note_on_c, 0, 89, 0
1, 259423, Note_on_c, 0, 97, 78
1, 259423, Note_on_c, 0, 89, 57
1, 259426, Note_on_c, 0, 65, 46
1, 259511, Note_on_c, 0, 97, 0
1, 259511, Note_on_c, 0, 96, 69
1, 259511, Note_on_c, 0, 65, 0
1, 259590, Note_on_c, 0, 96, 0
1, 259599, Note_on_c, 0, 89, 0
1, 259599, Note_on_c, 0, 89, 55
1, 259599, Note_on_c, 0, 96, 77
1, 259602, Note_on_c, 0, 87, 41
1, 259602, Note_on_c, 0, 81, 34
1, 259602, Note_on_c, 0, 77, 34
1, 259687, Note_on_c, 0, 96, 0
1, 259687, Note_on_c, 0, 95, 69
1, 259687, Note_on_c, 0, 77, 0
1, 259690, Note_on_c, 0, 81, 0
1, 259690, Note_on_c, 0, 87, 0
1, 259734, Note_on_c, 0, 95, 0
1, 259734, Note_on_c, 0, 97, 58
1, 259782, Note_on_c, 0, 97, 0
1, 259782, Note_on_c, 0, 89, 0
1, 259782, Note_on_c, 0, 96, 72
1, 259785, Note_on_c, 0, 89, 72
1, 259785, Note_on_c, 0, 85, 47
1, 259785, Note_on_c, 0, 82, 39
1, 259805, Control_c, 0, 64, 0
1, 259842, Control_c, 0, 64, 127
1, 259872, Note_on_c, 0, 96, 0
1, 259872, Note_on_c, 0, 94, 68
1, 259872, Note_on_c, 0, 82, 0
1, 259875, Note_on_c, 0, 85, 0
1, 259917, Note_on_c, 0, 94, 0
1, 259917, Note_on_c, 0, 96, 57
1, 259961, Note_on_c, 0, 96, 0
1, 259961, Note_on_c, 0, 89, 0
1, 259961, Note_on_c, 0, 89, 70
1, 259964, Note_on_c, 0, 94, 70
1, 259964, Note_on_c, 0, 87, 41
1, 259964, Note_on_c, 0, 84, 34
1, 259967, Note_on_c, 0, 77, 34
1, 260051, Note_on_c, 0, 94, 0
1, 260051, Note_on_c, 0, 93, 68
1, 260051, Note_on_c, 0, 77, 0
1, 260054, Note_on_c, 0, 84, 0
1, 260054, Note_on_c, 0, 87, 0
1, 260098, Note_on_c, 0, 93, 0
1, 260098, Note_on_c, 0, 97, 58
1, 260145, Note_on_c, 0, 97, 0
1, 260145, Note_on_c, 0, 89, 0
1, 260145, Note_on_c, 0, 96, 68
1, 260148, Note_on_c, 0, 89, 68
1, 260148, Note_on_c, 0, 85, 45
1, 260148, Note_on_c, 0, 82, 37
1, 260235, Note_on_c, 0, 96, 0
1, 260235, Note_on_c, 0, 94, 68
1, 260235, Note_on_c, 0, 82, 0
1, 260238, Note_on_c, 0, 85, 0
1, 260280, Note_on_c, 0, 94, 0
1, 260280, Note_on_c, 0, 96, 57
1, 260324, Note_on_c, 0, 96, 0
1, 260324, Note_on_c, 0, 89, 0
1, 260324, Note_on_c, 0, 89, 66
1, 260327, Note_on_c, 0, 94, 66
1, 260327, Note_on_c, 0, 87, 39
1, 260327, Note_on_c, 0, 84, 32
1, 260330, Note_on_c, 0, 77, 32
1, 260414, Note_on_c, 0, 94, 0
1, 260414, Note_on_c, 0, 93, 59
1, 260414, Note_on_c, 0, 77, 0
1, 260417, Note_on_c, 0, 84, 0
1, 260417, Note_on_c, 0, 87, 0
1, 260462, Note_on_c, 0, 93, 0
1, 260462, Note_on_c, 0, 97, 53
1, 260510, Note_on_c, 0, 97, 0
1, 260510, Note_on_c, 0, 89, 0
1, 260510, Note_on_c, 0, 96, 66
1, 260513, Note_on_c, 0, 89, 66
1, 260513, Note_on_c, 0, 85, 43
1, 260513, Note_on_c, 0, 82, 35
1, 260517, Control_c, 0, 64, 0
1, 260540, Control_c, 0, 64, 127
1, 260600, Note_on_c, 0, 96, 0
1, 260600, Note_on_c, 0, 94, 62
1, 260600, Note_on_c, 0, 82, 0
1, 260603, Note_on_c, 0, 85, 0
1, 260645, Note_on_c, 0, 94, 0
1, 260645, Note_on_c, 0, 96, 52
1, 260690, Note_on_c, 0, 96, 0
1, 260690, Note_on_c, 0, 89, 0
1, 260690, Note_on_c, 0, 94, 64
1, 260693, Note_on_c, 0, 89, 64
1, 260693, Note_on_c, 0, 87, 37
1, 260693, Note_on_c, 0, 84, 31
1, 260696, Note_on_c, 0, 77, 31
1, 260780, Note_on_c, 0, 94, 0
1, 260780, Note_on_c, 0, 93, 63
1, 260780, Note_on_c, 0, 77, 0
1, 260783, Note_on_c, 0, 84, 0
1, 260783, Note_on_c, 0, 87, 0
1, 260829, Note_on_c, 0, 93, 0
1, 260829, Note_on_c, 0, 97, 52
1, 260878, Note_on_c, 0, 97, 0
1, 260878, Note_on_c, 0, 89, 0
1, 260878, Note_on_c, 0, 96, 62
1, 260881, Note_on_c, 0, 89, 62
1, 260881, Note_on_c, 0, 85, 41
1, 260881, Note_on_c, 0, 82, 34
1, 260968, Note_on_c, 0, 96, 0
1, 260968, Note_on_c, 0, 94, 62
1, 260968, Note_on_c, 0, 82, 0
1, 260971, Note_on_c, 0, 85, 0
1, 261013, Note_on_c, 0, 94, 0
1, 261013, Note_on_c, 0, 96, 51
1, 261058, Note_on_c, 0, 96, 0
1, 261058, Note_on_c, 0, 89, 0
1, 261058, Note_on_c, 0, 89, 61
1, 261061, Note_on_c, 0, 94, 61
1, 261061, Note_on_c, 0, 87, 36
1, 261061, Note_on_c, 0, 84, 30
1, 261064, Note_on_c, 0, 77, 30
1, 261148, Note_on_c, 0, 94, 0
1, 261148, Note_on_c, 0, 93, 54
1, 261148, Note_on_c, 0, 77, 0
1, 261151, Note_on_c, 0, 84, 0
1, 261151, Note_on_c, 0, 87, 0
1, 261244, Note_on_c, 0, 93, 0
1, 261244, Note_on_c, 0, 89, 0
1, 261244, Note_on_c, 0, 89, 62
1, 261247, Note_on_c, 0, 82, 35
1, 261247, Note_on_c, 0, 85, 43
1, 261247, Note_on_c, 0, 94, 47
1, 261277, Control_c, 0, 64, 0
1, 261294, Note_on_c, 0, 94, 0
1, 261294, Note_on_c, 0, 96, 41
1, 261311, Control_c, 0, 64, 127
1, 261343, Note_on_c, 0, 89, 0
1, 261343, Note_on_c, 0, 85, 0
1, 261343, Note_on_c, 0, 82, 0
1, 261346, Note_on_c, 0, 94, 47
1, 261352, Note_on_c, 0, 96, 0
1, 261391, Note_on_c, 0, 96, 41
1, 261400, Note_on_c, 0, 94, 0
1, 261440, Note_on_c, 0, 94, 47
1, 261449, Note_on_c, 0, 96, 0
1, 261488, Note_on_c, 0, 94, 0
1, 261488, Note_on_c, 0, 96, 41
1, 261535, Note_on_c, 0, 94, 47
1, 261544, Note_on_c, 0, 96, 0
1, 261583, Note_on_c, 0, 96, 41
1, 261591, Note_on_c, 0, 94, 0
1, 261630, Note_on_c, 0, 94, 47
1, 261638, Note_on_c, 0, 96, 0
1, 261676, Note_on_c, 0, 94, 0
1, 261676, Note_on_c, 0, 96, 41
1, 261723, Note_on_c, 0, 94, 47
1, 261732, Note_on_c, 0, 96, 0
1, 261770, Note_on_c, 0, 96, 41
1, 261778, Note_on_c, 0, 94, 0
1, 261816, Note_on_c, 0, 94, 47
1, 261825, Note_on_c, 0, 96, 0
1, 261862, Note_on_c, 0, 94, 0
1, 261862, Note_on_c, 0, 96, 41
1, 261909, Note_on_c, 0, 94, 47
1, 261917, Note_on_c, 0, 96, 0
1, 261955, Note_on_c, 0, 96, 41
1, 261963, Note_on_c, 0, 94, 0
1, 262001, Note_on_c, 0, 94, 47
1, 262009, Note_on_c, 0, 96, 0
1, 262046, Note_on_c, 0, 94, 0
1, 262046, Note_on_c, 0, 96, 41
1, 262091, Note_on_c, 0, 94, 47
1, 262100, Note_on_c, 0, 96, 0
1, 262138, Note_on_c, 0, 96, 41
1, 262146, Note_on_c, 0, 94, 0
1, 262184, Note_on_c, 0, 94, 47
1, 262192, Note_on_c, 0, 96, 0
1, 262229, Note_on_c, 0, 94, 0
1, 262229, Note_on_c, 0, 96, 41
1, 262273, Note_on_c, 0, 94, 47
1, 262282, Note_on_c, 0, 96, 0
1, 262319, Note_on_c, 0, 96, 41
1, 262328, Note_on_c, 0, 94, 0
1, 262366, Note_on_c, 0, 94, 47
1, 262374, Note_on_c, 0, 96, 0
1, 262411, Note_on_c, 0, 94, 0
1, 262411, Note_on_c, 0, 96, 41
1, 262457, Note_on_c, 0, 94, 47
1, 262465, Note_on_c, 0, 96, 0
1, 262501, Note_on_c, 0, 96, 41
1, 262510, Note_on_c, 0, 94, 0
1, 262546, Note_on_c, 0, 93, 48
1, 262554, Note_on_c, 0, 96, 0
1, 262561, Control_c, 0, 64, 0
1, 262592, Note_on_c, 0, 93, 0
1, 262592, Note_on_c, 0, 94, 49
1, 262641, Note_on_c, 0, 95, 51
1, 262650, Note_on_c, 0, 94, 0
1, 262690, Note_on_c, 0, 96, 52
1, 262699, Note_on_c, 0, 95, 0
1, 262715, Note_on_c, 0, 70, 44
1, 262739, Note_on_c, 0, 97, 59
1, 262739, Note_on_c, 0, 85, 44
1, 262739, Note_on_c, 0, 97, 55
1, 262748, Note_on_c, 0, 96, 0
1, 262780, Control_c, 0, 64, 127
1, 262786, Note_on_c, 0, 97, 0
1, 262786, Note_on_c, 0, 99, 47
1, 262832, Note_on_c, 0, 97, 54
1, 262841, Note_on_c, 0, 99, 0
1, 262879, Note_on_c, 0, 99, 48
1, 262887, Note_on_c, 0, 97, 0
1, 262925, Note_on_c, 0, 97, 54
1, 262933, Note_on_c, 0, 99, 0
1, 262971, Note_on_c, 0, 97, 0
1, 262971, Note_on_c, 0, 99, 47
1, 263016, Note_on_c, 0, 97, 52
1, 263025, Note_on_c, 0, 99, 0
1, 263062, Note_on_c, 0, 99, 47
1, 263070, Note_on_c, 0, 97, 0
1, 263085, Note_on_c, 0, 85, 0
1, 263085, Note_on_c, 0, 70, 0
1, 263085, Note_on_c, 0, 70, 49
1, 263107, Note_on_c, 0, 97, 0
1, 263107, Note_on_c, 0, 97, 54
1, 263107, Note_on_c, 0, 85, 49
1, 263110, Note_on_c, 0, 97, 51
1, 263116, Note_on_c, 0, 99, 0
1, 263153, Note_on_c, 0, 97, 0
1, 263153, Note_on_c, 0, 99, 47
1, 263199, Note_on_c, 0, 97, 54
1, 263207, Note_on_c, 0, 99, 0
1, 263245, Note_on_c, 0, 99, 48
1, 263253, Note_on_c, 0, 97, 0
1, 263291, Note_on_c, 0, 97, 52
1, 263299, Note_on_c, 0, 99, 0
1, 263337, Note_on_c, 0, 97, 0
1, 263337, Note_on_c, 0, 99, 47
1, 263383, Note_on_c, 0, 97, 51
1, 263391, Note_on_c, 0, 99, 0
1, 263429, Note_on_c, 0, 99, 48
1, 263438, Note_on_c, 0, 97, 0
1, 263452, Note_on_c, 0, 85, 0
1, 263452, Note_on_c, 0, 70, 0
1, 263452, Note_on_c, 0, 68, 48
1, 263475, Note_on_c, 0, 97, 0
1, 263475, Note_on_c, 0, 96, 56
1, 263475, Note_on_c, 0, 84, 50
1, 263478, Note_on_c, 0, 97, 54
1, 263484, Note_on_c, 0, 99, 0
1, 263484, Control_c, 0, 64, 0
1, 263519, Control_c, 0, 64, 127
1, 263522, Note_on_c, 0, 97, 0
1, 263522, Note_on_c, 0, 99, 46
1, 263569, Note_on_c, 0, 97, 52
1, 263578, Note_on_c, 0, 99, 0
1, 263616, Note_on_c, 0, 99, 46
1, 263625, Note_on_c, 0, 97, 0
1, 263663, Note_on_c, 0, 97, 52
1, 263672, Note_on_c, 0, 99, 0
1, 263710, Note_on_c, 0, 97, 0
1, 263710, Note_on_c, 0, 99, 44
1, 263757, Note_on_c, 0, 97, 52
1, 263766, Note_on_c, 0, 99, 0
1, 263804, Note_on_c, 0, 99, 46
1, 263813, Note_on_c, 0, 97, 0
1, 263851, Note_on_c, 0, 97, 52
1, 263860, Note_on_c, 0, 99, 0
1, 263901, Note_on_c, 0, 97, 0
1, 263901, Note_on_c, 0, 99, 44
1, 263950, Note_on_c, 0, 97, 51
1, 263959, Note_on_c, 0, 99, 0
1, 264000, Note_on_c, 0, 99, 44
1, 264009, Note_on_c, 0, 97, 0
1, 264024, Note_on_c, 0, 84, 0
1, 264024, Note_on_c, 0, 68, 0
1, 264024, Note_on_c, 0, 66, 51
1, 264049, Note_on_c, 0, 96, 0
1, 264049, Note_on_c, 0, 94, 55
1, 264049, Note_on_c, 0, 82, 51
1, 264052, Note_on_c, 0, 97, 50
1, 264058, Note_on_c, 0, 99, 0
1, 264095, Note_on_c, 0, 97, 0
1, 264095, Note_on_c, 0, 99, 46
1, 264142, Note_on_c, 0, 97, 51
1, 264150, Note_on_c, 0, 99, 0
1, 264190, Note_on_c, 0, 99, 46
1, 264198, Note_on_c, 0, 97, 0
1, 264213, Note_on_c, 0, 82, 0
1, 264213, Note_on_c, 0, 66, 0
1, 264213, Note_on_c, 0, 65, 58
1, 264236, Note_on_c, 0, 94, 0
1, 264236, Note_on_c, 0, 92, 61
1, 264236, Note_on_c, 0, 80, 58
1, 264239, Note_on_c, 0, 97, 52
1, 264245, Note_on_c, 0, 99, 0
1, 264255, Control_c, 0, 64, 0
1, 264272, Control_c, 0, 64, 127
1, 264283, Note_on_c, 0, 97, 0
1, 264283, Note_on_c, 0, 99, 44
1, 264331, Note_on_c, 0, 97, 51
1, 264340, Note_on_c, 0, 99, 0
1, 264379, Note_on_c, 0, 99, 43
1, 264388, Note_on_c, 0, 97, 0
1, 264427, Note_on_c, 0, 92, 0
1, 264427, Note_on_c, 0, 80, 0
1, 264427, Note_on_c, 0, 65, 0
1, 264430, Note_on_c, 0, 97, 50
1, 264436, Note_on_c, 0, 99, 0
1, 264475, Note_on_c, 0, 97, 0
1, 264475, Note_on_c, 0, 99, 43
1, 264522, Note_on_c, 0, 97, 50
1, 264531, Note_on_c, 0, 99, 0
1, 264570, Note_on_c, 0, 99, 43
1, 264579, Note_on_c, 0, 97, 0
1, 264619, Note_on_c, 0, 92, 56
1, 264619, Note_on_c, 0, 68, 52
1, 264619, Note_on_c, 0, 77, 52
1, 264622, Note_on_c, 0, 80, 52
1, 264622, Note_on_c, 0, 97, 49
1, 264628, Note_on_c, 0, 99, 0
1, 264668, Note_on_c, 0, 97, 0
1, 264668, Note_on_c, 0, 99, 43
1, 264716, Note_on_c, 0, 97, 50
1, 264725, Note_on_c, 0, 99, 0
1, 264765, Note_on_c, 0, 99, 43
1, 264775, Note_on_c, 0, 97, 0
1, 264814, Note_on_c, 0, 97, 50
1, 264823, Note_on_c, 0, 99, 0
1, 264863, Note_on_c, 0, 97, 0
1, 264863, Note_on_c, 0, 99, 44
1, 264913, Note_on_c, 0, 97, 49
1, 264922, Note_on_c, 0, 99, 0
1, 264962, Note_on_c, 0, 99, 42
1, 264971, Note_on_c, 0, 97, 0
1, 265011, Note_on_c, 0, 92, 0
1, 265011, Control_c, 0, 64, 0
1, 265011, Note_on_c, 0, 97, 50
1, 265019, Note_on_c, 0, 99, 0
1, 265042, Control_c, 0, 64, 127
1, 265058, Note_on_c, 0, 97, 0
1, 265058, Note_on_c, 0, 99, 46
1, 265107, Note_on_c, 0, 97, 50
1, 265116, Note_on_c, 0, 99, 0
1, 265155, Note_on_c, 0, 99, 44
1, 265164, Note_on_c, 0, 97, 0
1, 265203, Note_on_c, 0, 97, 47
1, 265212, Note_on_c, 0, 99, 0
1, 265251, Note_on_c, 0, 97, 0
1, 265251, Note_on_c, 0, 99, 41
1, 265300, Note_on_c, 0, 97, 47
1, 265309, Note_on_c, 0, 99, 0
1, 265349, Note_on_c, 0, 99, 41
1, 265357, Note_on_c, 0, 97, 0
1, 265397, Note_on_c, 0, 97, 47
1, 265405, Note_on_c, 0, 99, 0
1, 265463, Note_on_c, 0, 97, 0
1, 265463, Note_on_c, 0, 99, 41
1, 265526, Note_on_c, 0, 99, 0
1, 265526, Note_on_c, 0, 97, 49
1, 265591, Note_on_c, 0, 80, 0
1, 265591, Note_on_c, 0, 77, 0
1, 265591, Note_on_c, 0, 68, 0
1, 265594, Note_on_c, 0, 81, 47
1, 265594, Note_on_c, 0, 77, 39
1, 265594, Note_on_c, 0, 97, 0
1, 265597, Note_on_c, 0, 96, 53
1, 265597, Control_c, 0, 64, 0
1, 265660, Note_on_c, 0, 96, 0
1, 265660, Note_on_c, 0, 97, 58
1, 265731, Note_on_c, 0, 97, 0
1, 265731, Note_on_c, 0, 98, 62
1, 265809, Note_on_c, 0, 101, 50
1, 265809, Note_on_c, 0, 77, 0
1, 265809, Note_on_c, 0, 81, 0
1, 265812, Note_on_c, 0, 82, 55
1, 265812, Note_on_c, 0, 68, 46
1, 265812, Note_on_c, 0, 72, 46
1, 265815, Note_on_c, 0, 78, 46
1, 265815, Note_on_c, 0, 98, 0
1, 265815, Control_c, 0, 64, 127
1, 265864, Note_on_c, 0, 101, 0
1, 265864, Note_on_c, 0, 100, 50
1, 265917, Note_on_c, 0, 99, 50
1, 265917, Note_on_c, 0, 100, 0
1, 265965, Note_on_c, 0, 78, 0
1, 265965, Note_on_c, 0, 82, 0
1, 265965, Note_on_c, 0, 68, 0
1, 265968, Note_on_c, 0, 72, 0
1, 265971, Note_on_c, 0, 99, 0
1, 265971, Note_on_c, 0, 98, 49
1, 266026, Note_on_c, 0, 98, 0
1, 266026, Note_on_c, 0, 97, 49
1, 266080, Note_on_c, 0, 96, 49
1, 266080, Note_on_c, 0, 97, 0
1, 266134, Note_on_c, 0, 96, 0
1, 266134, Note_on_c, 0, 95, 49
1, 266186, Note_on_c, 0, 94, 48
1, 266186, Note_on_c, 0, 95, 0
1, 266240, Note_on_c, 0, 94, 0
1, 266240, Note_on_c, 0, 93, 48
1, 266294, Note_on_c, 0, 93, 0
1, 266294, Note_on_c, 0, 92, 48
1, 266347, Note_on_c, 0, 91, 47
1, 266347, Note_on_c, 0, 92, 0
1, 266400, Note_on_c, 0, 91, 0
1, 266400, Note_on_c, 0, 90, 47
1, 266454, Note_on_c, 0, 90, 0
1, 266454, Note_on_c, 0, 89, 47
1, 266506, Note_on_c, 0, 88, 46
1, 266506, Note_on_c, 0, 89, 0
1, 266559, Note_on_c, 0, 88, 0
1, 266559, Note_on_c, 0, 87, 46
1, 266612, Note_on_c, 0, 86, 46
1, 266612, Note_on_c, 0, 87, 0
1, 266664, Note_on_c, 0, 86, 0
1, 266664, Note_on_c, 0, 85, 46
1, 266717, Note_on_c, 0, 85, 0
1, 266717, Note_on_c, 0, 84, 45
1, 266769, Note_on_c, 0, 83, 45
1, 266769, Note_on_c, 0, 84, 0
1, 266821, Note_on_c, 0, 83, 0
1, 266821, Note_on_c, 0, 82, 45
1, 266873, Note_on_c, 0, 82, 0
1, 266873, Note_on_c, 0, 81, 44
1, 266926, Note_on_c, 0, 80, 44
1, 266926, Note_on_c, 0, 81, 0
1, 266972, Note_on_c, 0, 56, 39
1, 266978, Note_on_c, 0, 80, 0
1, 266978, Note_on_c, 0, 79, 44
1, 266990, Note_on_c, 0, 63, 41
1, 267009, Note_on_c, 0, 66, 44
1, 267027, Note_on_c, 0, 79, 0
1, 267027, Note_on_c, 0, 78, 41
1, 267027, Note_on_c, 0, 72, 46
1, 267048, Control_c, 0, 64, 0
1, 267064, Control_c, 0, 64, 127
1, 267079, Note_on_c, 0, 78, 0
1, 267079, Note_on_c, 0, 77, 41
1, 267131, Note_on_c, 0, 77, 0
1, 267131, Note_on_c, 0, 76, 40
1, 267151, Note_on_c, 0, 63, 0
1, 267175, Note_on_c, 0, 56, 0
1, 267175, Note_on_c, 0, 66, 0
1, 267175, Note_on_c, 0, 72, 0
1, 267183, Note_on_c, 0, 76, 0
1, 267183, Note_on_c, 0, 75, 40
1, 267234, Note_on_c, 0, 75, 0
1, 267234, Note_on_c, 0, 74, 39
1, 267286, Note_on_c, 0, 74, 0
1, 267286, Note_on_c, 0, 73, 39
1, 267338, Note_on_c, 0, 73, 0
1, 267338, Note_on_c, 0, 72, 38
1, 267390, Note_on_c, 0, 72, 0
1, 267390, Note_on_c, 0, 71, 37
1, 267441, Note_on_c, 0, 71, 0
1, 267441, Note_on_c, 0, 70, 37
1, 267493, Note_on_c, 0, 70, 0
1, 267493, Note_on_c, 0, 69, 36
1, 267545, Note_on_c, 0, 69, 0
1, 267545, Note_on_c, 0, 68, 36
1, 267596, Note_on_c, 0, 68, 0
1, 267596, Note_on_c, 0, 67, 35
1, 267648, Note_on_c, 0, 67, 0
1, 267648, Note_on_c, 0, 66, 35
1, 267699, Note_on_c, 0, 66, 0
1, 267699, Note_on_c, 0, 65, 34
1, 267750, Note_on_c, 0, 65, 0
1, 267750, Note_on_c, 0, 64, 33
1, 267802, Note_on_c, 0, 64, 0
1, 267802, Note_on_c, 0, 63, 33
1, 267854, Note_on_c, 0, 63, 0
1, 267854, Note_on_c, 0, 62, 32
1, 267906, Note_on_c, 0, 62, 0
1, 267906, Note_on_c, 0, 61, 32
1, 267958, Note_on_c, 0, 61, 0
1, 267958, Note_on_c, 0, 60, 31
1, 268011, Note_on_c, 0, 60, 0
1, 268011, Note_on_c, 0, 59, 31
1, 268064, Note_on_c, 0, 59, 0
1, 268064, Note_on_c, 0, 58, 30
1, 268117, Note_on_c, 0, 58, 0
1, 268117, Note_on_c, 0, 57, 30
1, 268170, Note_on_c, 0, 57, 0
1, 268170, Note_on_c, 0, 56, 29
1, 268178, Note_on_c, 0, 37, 33
1, 268197, Note_on_c, 0, 44, 36
1, 268216, Note_on_c, 0, 56, 0
1, 268216, Note_on_c, 0, 49, 39
1, 268241, Control_c, 0, 64, 0
1, 268270, Control_c, 0, 64, 127
1, 268293, Note_on_c, 0, 53, 39
1, 268370, Note_on_c, 0, 53, 0
1, 268370, Note_on_c, 0, 56, 40
1, 268444, Note_on_c, 0, 61, 37
1, 268444, Note_on_c, 0, 56, 0
1, 268514, Note_on_c, 0, 61, 0
1, 268514, Note_on_c, 0, 65, 39
1, 268514, Note_on_c, 0, 49, 0
1, 268517, Note_on_c, 0, 44, 0
1, 268517, Note_on_c, 0, 37, 0
1, 268584, Note_on_c, 0, 65, 0
1, 268584, Note_on_c, 0, 68, 41
1, 268654, Note_on_c, 0, 68, 0
1, 268654, Note_on_c, 0, 73, 43
1, 268723, Note_on_c, 0, 73, 0
1, 268723, Note_on_c, 0, 77, 44
1, 268792, Note_on_c, 0, 77, 0
1, 268792, Note_on_c, 0, 80, 46
1, 268861, Note_on_c, 0, 80, 0
1, 268861, Note_on_c, 0, 85, 48
1, 268930, Note_on_c, 0, 85, 0
1, 268930, Note_on_c, 0, 89, 49
1, 269001, Note_on_c, 0, 89, 0
1, 269001, Note_on_c, 0, 92, 51
1, 269073, Note_on_c, 0, 92, 0
1, 269073, Note_on_c, 0, 97, 53
1, 269220, Note_on_c, 0, 97, 0
1, 269419, Control_c, 0, 64, 0
1, 270101, Note_on_c, 0, 77, 36
1, 270101, Note_on_c, 0, 73, 36
1, 270122, Control_c, 0, 64, 127
1, 270213, Note_on_c, 0, 73, 0
1, 270213, Note_on_c, 0, 77, 0
1, 270213, Note_on_c, 0, 75, 40
1, 270216, Note_on_c, 0, 78, 40
1, 270323, Note_on_c, 0, 78, 0
1, 270323, Note_on_c, 0, 75, 0
1, 270323, Note_on_c, 0, 76, 45
1, 270326, Note_on_c, 0, 79, 45
1, 270431, Note_on_c, 0, 79, 0
1, 270431, Note_on_c, 0, 76, 0
1, 270431, Note_on_c, 0, 82, 51
1, 270434, Note_on_c, 0, 78, 51
1, 270452, Control_c, 0, 64, 0
1, 270477, Control_c, 0, 64, 127
1, 270528, Note_on_c, 0, 78, 0
1, 270528, Note_on_c, 0, 82, 0
1, 270528, Note_on_c, 0, 80, 42
1, 270531, Note_on_c, 0, 77, 42
1, 270620, Note_on_c, 0, 77, 0
1, 270620, Note_on_c, 0, 80, 0
1, 270630, Note_on_c, 0, 80, 42
1, 270630, Note_on_c, 0, 77, 42
1, 270630, Note_on_c, 0, 49, 34
1, 270707, Note_on_c, 0, 49, 0
1, 270732, Note_on_c, 0, 77, 0
1, 270732, Note_on_c, 0, 80, 0
1, 270732, Note_on_c, 0, 79, 42
1, 270735, Note_on_c, 0, 76, 42
1, 270735, Note_on_c, 0, 65, 30
1, 270814, Note_on_c, 0, 65, 0
1, 270830, Note_on_c, 0, 76, 0
1, 270830, Note_on_c, 0, 79, 0
1, 270841, Note_on_c, 0, 82, 47
1, 270841, Note_on_c, 0, 78, 47
1, 270841, Note_on_c, 0, 56, 35
1, 270912, Note_on_c, 0, 56, 0
1, 270935, Note_on_c, 0, 78, 0
1, 270935, Note_on_c, 0, 82, 0
1, 270935, Note_on_c, 0, 80, 41
1, 270938, Note_on_c, 0, 77, 41
1, 270938, Note_on_c, 0, 65, 32
1, 271009, Note_on_c, 0, 65, 0
1, 271024, Note_on_c, 0, 77, 0
1, 271024, Note_on_c, 0, 80, 0
1, 271034, Note_on_c, 0, 77, 42
1, 271034, Note_on_c, 0, 80, 42
1, 271034, Note_on_c, 0, 61, 36
1, 271108, Note_on_c, 0, 61, 0
1, 271133, Note_on_c, 0, 80, 0
1, 271133, Note_on_c, 0, 77, 0
1, 271133, Note_on_c, 0, 79, 44
1, 271136, Note_on_c, 0, 76, 44
1, 271136, Note_on_c, 0, 65, 33
1, 271213, Note_on_c, 0, 65, 0
1, 271229, Note_on_c, 0, 76, 0
1, 271229, Note_on_c, 0, 79, 0
1, 271240, Note_on_c, 0, 82, 52
1, 271240, Note_on_c, 0, 78, 52
1, 271240, Note_on_c, 0, 56, 37
1, 271245, Control_c, 0, 64, 0
1, 271286, Control_c, 0, 64, 127
1, 271309, Note_on_c, 0, 56, 0
1, 271332, Note_on_c, 0, 78, 0
1, 271332, Note_on_c, 0, 82, 0
1, 271332, Note_on_c, 0, 80, 45
1, 271335, Note_on_c, 0, 77, 45
1, 271335, Note_on_c, 0, 65, 34
1, 271404, Note_on_c, 0, 65, 0
1, 271418, Note_on_c, 0, 77, 0
1, 271418, Note_on_c, 0, 80, 0
1, 271428, Note_on_c, 0, 80, 45
1, 271428, Note_on_c, 0, 77, 45
1, 271428, Note_on_c, 0, 49, 39
1, 271500, Note_on_c, 0, 49, 0
1, 271524, Note_on_c, 0, 77, 0
1, 271524, Note_on_c, 0, 80, 0
1, 271524, Note_on_c, 0, 79, 45
1, 271527, Note_on_c, 0, 76, 45
1, 271527, Note_on_c, 0, 65, 36
1, 271602, Note_on_c, 0, 65, 0
1, 271617, Note_on_c, 0, 76, 0
1, 271617, Note_on_c, 0, 79, 0
1, 271627, Note_on_c, 0, 82, 54
1, 271627, Note_on_c, 0, 78, 54
1, 271627, Note_on_c, 0, 56, 41
1, 271694, Note_on_c, 0, 56, 0
1, 271716, Note_on_c, 0, 78, 0
1, 271716, Note_on_c, 0, 82, 0
1, 271716, Note_on_c, 0, 80, 47
1, 271719, Note_on_c, 0, 77, 47
1, 271719, Note_on_c, 0, 65, 37
1, 271786, Note_on_c, 0, 65, 0
1, 271800, Note_on_c, 0, 77, 0
1, 271800, Note_on_c, 0, 80, 0
1, 271810, Note_on_c, 0, 77, 48
1, 271810, Note_on_c, 0, 80, 48
1, 271810, Note_on_c, 0, 61, 42
1, 271880, Note_on_c, 0, 61, 0
1, 271903, Note_on_c, 0, 80, 0
1, 271903, Note_on_c, 0, 77, 0
1, 271903, Note_on_c, 0, 79, 50
1, 271906, Note_on_c, 0, 76, 50
1, 271906, Note_on_c, 0, 65, 40
1, 271978, Note_on_c, 0, 65, 0
1, 271993, Note_on_c, 0, 76, 0
1, 271993, Note_on_c, 0, 79, 0
1, 272003, Note_on_c, 0, 82, 58
1, 272003, Note_on_c, 0, 78, 58
1, 272003, Note_on_c, 0, 56, 43
1, 272008, Control_c, 0, 64, 0
1, 272047, Control_c, 0, 64, 127
1, 272069, Note_on_c, 0, 56, 0
1, 272091, Note_on_c, 0, 78, 0
1, 272091, Note_on_c, 0, 82, 0
1, 272091, Note_on_c, 0, 80, 51
1, 272094, Note_on_c, 0, 77, 51
1, 272094, Note_on_c, 0, 65, 37
1, 272162, Note_on_c, 0, 65, 0
1, 272176, Note_on_c, 0, 77, 0
1, 272176, Note_on_c, 0, 80, 0
1, 272185, Note_on_c, 0, 80, 51
1, 272185, Note_on_c, 0, 77, 51
1, 272185, Note_on_c, 0, 49, 45
1, 272256, Note_on_c, 0, 49, 0
1, 272279, Note_on_c, 0, 77, 0
1, 272279, Note_on_c, 0, 80, 0
1, 272279, Note_on_c, 0, 79, 51
1, 272282, Note_on_c, 0, 76, 51
1, 272282, Note_on_c, 0, 65, 41
1, 272356, Note_on_c, 0, 65, 0
1, 272371, Note_on_c, 0, 76, 0
1, 272371, Note_on_c, 0, 79, 0
1, 272381, Note_on_c, 0, 82, 59
1, 272381, Note_on_c, 0, 78, 59
1, 272381, Note_on_c, 0, 56, 46
1, 272447, Note_on_c, 0, 56, 0
1, 272468, Note_on_c, 0, 78, 0
1, 272468, Note_on_c, 0, 82, 0
1, 272468, Note_on_c, 0, 80, 54
1, 272471, Note_on_c, 0, 77, 54
1, 272471, Note_on_c, 0, 65, 41
1, 272541, Note_on_c, 0, 65, 0
1, 272555, Note_on_c, 0, 77, 0
1, 272555, Note_on_c, 0, 80, 0
1, 272565, Note_on_c, 0, 77, 54
1, 272565, Note_on_c, 0, 80, 54
1, 272565, Note_on_c, 0, 61, 47
1, 272637, Note_on_c, 0, 61, 0
1, 272661, Note_on_c, 0, 80, 0
1, 272661, Note_on_c, 0, 77, 0
1, 272661, Note_on_c, 0, 79, 54
1, 272664, Note_on_c, 0, 76, 54
1, 272664, Note_on_c, 0, 65, 43
1, 272738, Note_on_c, 0, 65, 0
1, 272753, Note_on_c, 0, 76, 0
1, 272753, Note_on_c, 0, 79, 0
1, 272764, Note_on_c, 0, 78, 66
1, 272764, Note_on_c, 0, 82, 66
1, 272764, Note_on_c, 0, 56, 46
1, 272767, Control_c, 0, 64, 0
1, 272817, Control_c, 0, 64, 127
1, 272834, Note_on_c, 0, 56, 0
1, 272858, Note_on_c, 0, 82, 0
1, 272858, Note_on_c, 0, 78, 0
1, 272858, Note_on_c, 0, 77, 61
1, 272861, Note_on_c, 0, 80, 61
1, 272861, Note_on_c, 0, 65, 41
1, 272940, Note_on_c, 0, 80, 0
1, 272940, Note_on_c, 0, 77, 0
1, 272949, Note_on_c, 0, 80, 63
1, 272949, Note_on_c, 0, 77, 51
1, 272949, Note_on_c, 0, 65, 0
1, 272952, Note_on_c, 0, 49, 45
1, 273041, Note_on_c, 0, 80, 0
1, 273041, Note_on_c, 0, 89, 67
1, 273041, Note_on_c, 0, 49, 0
1, 273129, Note_on_c, 0, 89, 0
1, 273139, Note_on_c, 0, 77, 0
1, 273139, Note_on_c, 0, 89, 73
1, 273139, Note_on_c, 0, 77, 54
1, 273142, Note_on_c, 0, 57, 41
1, 273142, Control_c, 0, 64, 0
1, 273189, Control_c, 0, 64, 127
1, 273227, Note_on_c, 0, 89, 0
1, 273227, Note_on_c, 0, 88, 71
1, 273227, Note_on_c, 0, 57, 0
1, 273306, Note_on_c, 0, 88, 0
1, 273315, Note_on_c, 0, 77, 0
1, 273315, Note_on_c, 0, 88, 73
1, 273315, Note_on_c, 0, 77, 51
1, 273318, Note_on_c, 0, 60, 37
1, 273318, Note_on_c, 0, 65, 37
1, 273403, Note_on_c, 0, 88, 0
1, 273403, Note_on_c, 0, 87, 67
1, 273403, Note_on_c, 0, 65, 0
1, 273406, Note_on_c, 0, 60, 0
1, 273493, Note_on_c, 0, 87, 0
1, 273498, Note_on_c, 0, 77, 0
1, 273498, Note_on_c, 0, 87, 72
1, 273498, Note_on_c, 0, 77, 54
1, 273501, Note_on_c, 0, 58, 41
1, 273505, Control_c, 0, 64, 0
1, 273525, Control_c, 0, 64, 127
1, 273586, Note_on_c, 0, 87, 0
1, 273586, Note_on_c, 0, 86, 69
1, 273586, Note_on_c, 0, 58, 0
1, 273665, Note_on_c, 0, 86, 0
1, 273674, Note_on_c, 0, 77, 0
1, 273674, Note_on_c, 0, 86, 72
1, 273674, Note_on_c, 0, 77, 51
1, 273677, Note_on_c, 0, 70, 37
1, 273677, Note_on_c, 0, 65, 31
1, 273762, Note_on_c, 0, 86, 0
1, 273762, Note_on_c, 0, 85, 67
1, 273762, Note_on_c, 0, 65, 0
1, 273765, Note_on_c, 0, 70, 0
1, 273847, Note_on_c, 0, 85, 0
1, 273857, Note_on_c, 0, 77, 0
1, 273857, Note_on_c, 0, 85, 70
1, 273857, Note_on_c, 0, 77, 51
1, 273860, Note_on_c, 0, 53, 41
1, 273945, Note_on_c, 0, 85, 0
1, 273945, Note_on_c, 0, 84, 62
1, 273945, Note_on_c, 0, 53, 0
1, 274024, Note_on_c, 0, 84, 0
1, 274032, Note_on_c, 0, 77, 0
1, 274032, Note_on_c, 0, 84, 69
1, 274032, Note_on_c, 0, 77, 49
1, 274035, Note_on_c, 0, 75, 36
1, 274035, Note_on_c, 0, 69, 30
1, 274035, Note_on_c, 0, 65, 30
1, 274120, Note_on_c, 0, 84, 0
1, 274120, Note_on_c, 0, 83, 62
1, 274120, Note_on_c, 0, 65, 0
1, 274123, Note_on_c, 0, 69, 0
1, 274123, Note_on_c, 0, 75, 0
1, 274168, Note_on_c, 0, 83, 0
1, 274168, Note_on_c, 0, 85, 52
1, 274216, Note_on_c, 0, 85, 0
1, 274216, Note_on_c, 0, 77, 0
1, 274216, Note_on_c, 0, 84, 64
1, 274219, Note_on_c, 0, 77, 64
1, 274219, Note_on_c, 0, 73, 42
1, 274219, Note_on_c, 0, 70, 35
1, 274239, Control_c, 0, 64, 0
1, 274276, Control_c, 0, 64, 127
1, 274306, Note_on_c, 0, 84, 0
1, 274306, Note_on_c, 0, 82, 61
1, 274306, Note_on_c, 0, 70, 0
1, 274309, Note_on_c, 0, 73, 0
1, 274350, Note_on_c, 0, 82, 0
1, 274350, Note_on_c, 0, 84, 51
1, 274395, Note_on_c, 0, 84, 0
1, 274395, Note_on_c, 0, 77, 0
1, 274395, Note_on_c, 0, 82, 63
1, 274398, Note_on_c, 0, 77, 63
1, 274398, Note_on_c, 0, 75, 36
1, 274398, Note_on_c, 0, 72, 30
1, 274401, Note_on_c, 0, 65, 30
1, 274485, Note_on_c, 0, 82, 0
1, 274485, Note_on_c, 0, 81, 61
1, 274485, Note_on_c, 0, 65, 0
1, 274488, Note_on_c, 0, 72, 0
1, 274488, Note_on_c, 0, 75, 0
1, 274532, Note_on_c, 0, 81, 0
1, 274532, Note_on_c, 0, 85, 52
1, 274579, Note_on_c, 0, 85, 0
1, 274579, Note_on_c, 0, 77, 0
1, 274579, Note_on_c, 0, 84, 61
1, 274582, Note_on_c, 0, 77, 61
1, 274582, Note_on_c, 0, 73, 40
1, 274582, Note_on_c, 0, 70, 33
1, 274669, Note_on_c, 0, 84, 0
1, 274669, Note_on_c, 0, 82, 61
1, 274669, Note_on_c, 0, 70, 0
1, 274672, Note_on_c, 0, 73, 0
1, 274713, Note_on_c, 0, 82, 0
1, 274713, Note_on_c, 0, 84, 51
1, 274758, Note_on_c, 0, 84, 0
1, 274758, Note_on_c, 0, 77, 0
1, 274758, Note_on_c, 0, 82, 59
1, 274761, Note_on_c, 0, 77, 59
1, 274761, Note_on_c, 0, 75, 35
1, 274761, Note_on_c, 0, 72, 28
1, 274764, Note_on_c, 0, 65, 28
1, 274848, Note_on_c, 0, 82, 0
1, 274848, Note_on_c, 0, 81, 53
1, 274848, Note_on_c, 0, 65, 0
1, 274851, Note_on_c, 0, 72, 0
1, 274851, Note_on_c, 0, 75, 0
1, 274896, Note_on_c, 0, 81, 0
1, 274896, Note_on_c, 0, 85, 47
1, 274944, Note_on_c, 0, 85, 0
1, 274944, Note_on_c, 0, 77, 0
1, 274944, Note_on_c, 0, 84, 59
1, 274947, Note_on_c, 0, 77, 59
1, 274947, Note_on_c, 0, 73, 38
1, 274947, Note_on_c, 0, 70, 31
1, 274951, Control_c, 0, 64, 0
1, 274974, Control_c, 0, 64, 127
1, 275034, Note_on_c, 0, 84, 0
1, 275034, Note_on_c, 0, 82, 55
1, 275034, Note_on_c, 0, 70, 0
1, 275037, Note_on_c, 0, 73, 0
1, 275079, Note_on_c, 0, 82, 0
1, 275079, Note_on_c, 0, 84, 46
1, 275124, Note_on_c, 0, 84, 0
1, 275124, Note_on_c, 0, 77, 0
1, 275124, Note_on_c, 0, 82, 57
1, 275127, Note_on_c, 0, 77, 57
1, 275127, Note_on_c, 0, 75, 33
1, 275127, Note_on_c, 0, 72, 27
1, 275130, Note_on_c, 0, 65, 27
1, 275214, Note_on_c, 0, 82, 0
1, 275214, Note_on_c, 0, 81, 56
1, 275214, Note_on_c, 0, 65, 0
1, 275217, Note_on_c, 0, 72, 0
1, 275217, Note_on_c, 0, 75, 0
1, 275263, Note_on_c, 0, 81, 0
1, 275263, Note_on_c, 0, 85, 46
1, 275311, Note_on_c, 0, 85, 0
1, 275311, Note_on_c, 0, 77, 0
1, 275311, Note_on_c, 0, 84, 55
1, 275314, Note_on_c, 0, 77, 55
1, 275314, Note_on_c, 0, 73, 36
1, 275314, Note_on_c, 0, 70, 30
1, 275401, Note_on_c, 0, 84, 0
1, 275401, Note_on_c, 0, 82, 55
1, 275401, Note_on_c, 0, 70, 0
1, 275404, Note_on_c, 0, 73, 0
1, 275446, Note_on_c, 0, 82, 0
1, 275446, Note_on_c, 0, 84, 45
1, 275491, Note_on_c, 0, 84, 0
1, 275491, Note_on_c, 0, 77, 0
1, 275491, Note_on_c, 0, 82, 54
1, 275494, Note_on_c, 0, 77, 54
1, 275494, Note_on_c, 0, 75, 32
1, 275494, Note_on_c, 0, 72, 27
1, 275497, Note_on_c, 0, 65, 27
1, 275581, Note_on_c, 0, 82, 0
1, 275581, Note_on_c, 0, 81, 48
1, 275581, Note_on_c, 0, 65, 0
1, 275584, Note_on_c, 0, 72, 0
1, 275584, Note_on_c, 0, 75, 0
1, 275678, Note_on_c, 0, 81, 0
1, 275678, Note_on_c, 0, 77, 0
1, 275678, Note_on_c, 0, 77, 55
1, 275681, Note_on_c, 0, 70, 31
1, 275681, Note_on_c, 0, 73, 38
1, 275681, Note_on_c, 0, 82, 36
1, 275711, Control_c, 0, 64, 0
1, 275727, Note_on_c, 0, 82, 0
1, 275727, Note_on_c, 0, 84, 32
1, 275745, Control_c, 0, 64, 127
1, 275776, Note_on_c, 0, 77, 0
1, 275776, Note_on_c, 0, 73, 0
1, 275776, Note_on_c, 0, 70, 0
1, 275779, Note_on_c, 0, 82, 36
1, 275785, Note_on_c, 0, 84, 0
1, 275825, Note_on_c, 0, 84, 32
1, 275834, Note_on_c, 0, 82, 0
1, 275874, Note_on_c, 0, 82, 36
1, 275882, Note_on_c, 0, 84, 0
1, 275922, Note_on_c, 0, 82, 0
1, 275922, Note_on_c, 0, 84, 32
1, 275969, Note_on_c, 0, 82, 36
1, 275978, Note_on_c, 0, 84, 0
1, 276017, Note_on_c, 0, 84, 32
1, 276025, Note_on_c, 0, 82, 0
1, 276063, Note_on_c, 0, 82, 36
1, 276072, Note_on_c, 0, 84, 0
1, 276110, Note_on_c, 0, 82, 0
1, 276110, Note_on_c, 0, 84, 32
1, 276157, Note_on_c, 0, 82, 36
1, 276165, Note_on_c, 0, 84, 0
1, 276203, Note_on_c, 0, 84, 32
1, 276212, Note_on_c, 0, 82, 0
1, 276250, Note_on_c, 0, 82, 36
1, 276258, Note_on_c, 0, 84, 0
1, 276296, Note_on_c, 0, 82, 0
1, 276296, Note_on_c, 0, 84, 32
1, 276342, Note_on_c, 0, 82, 36
1, 276351, Note_on_c, 0, 84, 0
1, 276389, Note_on_c, 0, 84, 32
1, 276397, Note_on_c, 0, 82, 0
1, 276435, Note_on_c, 0, 81, 42
1, 276435, Control_c, 0, 64, 0
1, 276443, Note_on_c, 0, 84, 0
1, 276481, Control_c, 0, 64, 127
1, 276496, Note_on_c, 0, 81, 0
1, 276496, Note_on_c, 0, 82, 43
1, 276558, Note_on_c, 0, 82, 0
1, 276558, Note_on_c, 0, 83, 44
1, 276604, Note_on_c, 0, 83, 0
1, 276619, Note_on_c, 0, 84, 45
1, 276681, Note_on_c, 0, 84, 0
1, 276681, Note_on_c, 0, 85, 46
1, 276742, Note_on_c, 0, 85, 0
1, 276742, Note_on_c, 0, 86, 47
1, 276804, Note_on_c, 0, 86, 0
1, 276804, Note_on_c, 0, 87, 48
1, 276865, Note_on_c, 0, 87, 0
1, 276865, Note_on_c, 0, 88, 49
1, 276926, Note_on_c, 0, 88, 0
1, 276926, Note_on_c, 0, 89, 50
1, 276987, Note_on_c, 0, 89, 0
1, 276987, Note_on_c, 0, 90, 51
1, 277048, Note_on_c, 0, 90, 0
1, 277048, Note_on_c, 0, 91, 52
1, 277109, Note_on_c, 0, 91, 0
1, 277109, Note_on_c, 0, 92, 53
1, 277169, Note_on_c, 0, 92, 0
1, 277169, Note_on_c, 0, 93, 54
1, 277229, Note_on_c, 0, 93, 0
1, 277229, Note_on_c, 0, 94, 55
1, 277289, Note_on_c, 0, 94, 0
1, 277289, Note_on_c, 0, 95, 56
1, 277349, Note_on_c, 0, 95, 0
1, 277349, Note_on_c, 0, 96, 57
1, 277409, Note_on_c, 0, 96, 0
1, 277409, Note_on_c, 0, 97, 58
1, 277439, Note_on_c, 0, 54, 56
1, 277469, Note_on_c, 0, 97, 0
1, 277469, Note_on_c, 0, 99, 59
1, 277529, Note_on_c, 0, 99, 0
1, 277529, Note_on_c, 0, 97, 63
1, 277529, Note_on_c, 0, 54, 0
1, 277532, Note_on_c, 0, 70, 56
1, 277532, Note_on_c, 0, 73, 56
1, 277532, Control_c, 0, 64, 0
1, 277558, Note_on_c, 0, 97, 0
1, 277558, Note_on_c, 0, 99, 45
1, 277558, Control_c, 0, 64, 127
1, 277587, Note_on_c, 0, 99, 0
1, 277587, Note_on_c, 0, 97, 45
1, 277601, Note_on_c, 0, 73, 0
1, 277601, Note_on_c, 0, 70, 0
1, 277616, Note_on_c, 0, 97, 0
1, 277616, Note_on_c, 0, 96, 45
1, 277645, Note_on_c, 0, 96, 0
1, 277645, Note_on_c, 0, 97, 45
1, 277673, Note_on_c, 0, 97, 0
1, 277673, Note_on_c, 0, 99, 51
1, 277710, Note_on_c, 0, 99, 0
1, 277710, Note_on_c, 0, 97, 46
1, 277746, Note_on_c, 0, 97, 0
1, 277746, Note_on_c, 0, 94, 46
1, 277782, Note_on_c, 0, 94, 0
1, 277782, Note_on_c, 0, 92, 46
1, 277818, Note_on_c, 0, 92, 0
1, 277818, Note_on_c, 0, 97, 51
1, 277854, Note_on_c, 0, 97, 0
1, 277854, Note_on_c, 0, 94, 46
1, 277890, Note_on_c, 0, 94, 0
1, 277890, Note_on_c, 0, 92, 46
1, 277926, Note_on_c, 0, 92, 0
1, 277926, Note_on_c, 0, 90, 46
1, 277962, Note_on_c, 0, 90, 0
1, 277962, Note_on_c, 0, 94, 51
1, 277962, Note_on_c, 0, 70, 54
1, 277965, Note_on_c, 0, 73, 54
1, 278019, Note_on_c, 0, 94, 0
1, 278019, Note_on_c, 0, 92, 46
1, 278076, Note_on_c, 0, 92, 0
1, 278076, Note_on_c, 0, 90, 46
1, 278133, Note_on_c, 0, 90, 0
1, 278133, Note_on_c, 0, 87, 46
1, 278190, Note_on_c, 0, 87, 0
1, 278190, Note_on_c, 0, 92, 51
1, 278247, Note_on_c, 0, 92, 0
1, 278247, Note_on_c, 0, 90, 45
1, 278304, Note_on_c, 0, 90, 0
1, 278304, Note_on_c, 0, 87, 45
1, 278361, Note_on_c, 0, 87, 0
1, 278361, Note_on_c, 0, 85, 45
1, 278419, Note_on_c, 0, 85, 0
1, 278419, Note_on_c, 0, 90, 51
1, 278419, Note_on_c, 0, 73, 0
1, 278422, Note_on_c, 0, 70, 0
1, 278422, Note_on_c, 0, 68, 53
1, 278422, Note_on_c, 0, 72, 53
1, 278473, Note_on_c, 0, 90, 0
1, 278473, Note_on_c, 0, 87, 45
1, 278528, Note_on_c, 0, 87, 0
1, 278528, Note_on_c, 0, 85, 45
1, 278582, Note_on_c, 0, 85, 0
1, 278582, Note_on_c, 0, 82, 45
1, 278636, Note_on_c, 0, 82, 0
1, 278636, Note_on_c, 0, 87, 51
1, 278691, Note_on_c, 0, 87, 0
1, 278691, Note_on_c, 0, 85, 45
1, 278745, Note_on_c, 0, 85, 0
1, 278745, Note_on_c, 0, 82, 45
1, 278799, Note_on_c, 0, 82, 0
1, 278799, Note_on_c, 0, 80, 45
1, 278854, Note_on_c, 0, 80, 0
1, 278854, Note_on_c, 0, 85, 51
1, 278854, Note_on_c, 0, 72, 0
1, 278857, Note_on_c, 0, 68, 0
1, 278909, Note_on_c, 0, 85, 0
1, 278909, Note_on_c, 0, 82, 47
1, 278964, Note_on_c, 0, 82, 0
1, 278964, Note_on_c, 0, 80, 47
1, 279020, Note_on_c, 0, 80, 0
1, 279020, Note_on_c, 0, 78, 47
1, 279075, Note_on_c, 0, 78, 0
1, 279075, Note_on_c, 0, 82, 51
1, 279123, Note_on_c, 0, 82, 0
1, 279123, Note_on_c, 0, 80, 46
1, 279172, Note_on_c, 0, 80, 0
1, 279172, Note_on_c, 0, 78, 46
1, 279219, Note_on_c, 0, 78, 0
1, 279219, Note_on_c, 0, 75, 46
1, 279267, Note_on_c, 0, 75, 0
1, 279267, Note_on_c, 0, 80, 51
1, 279316, Note_on_c, 0, 80, 0
1, 279316, Note_on_c, 0, 78, 45
1, 279363, Note_on_c, 0, 78, 0
1, 279363, Note_on_c, 0, 75, 45
1, 279410, Note_on_c, 0, 75, 0
1, 279410, Note_on_c, 0, 73, 45
1, 279458, Note_on_c, 0, 73, 0
1, 279458, Note_on_c, 0, 78, 51
1, 279504, Note_on_c, 0, 78, 0
1, 279504, Note_on_c, 0, 75, 45
1, 279552, Note_on_c, 0, 75, 0
1, 279552, Note_on_c, 0, 73, 45
1, 279599, Note_on_c, 0, 73, 0
1, 279599, Note_on_c, 0, 70, 45
1, 279646, Note_on_c, 0, 70, 0
1, 279646, Note_on_c, 0, 75, 51
1, 279693, Note_on_c, 0, 75, 0
1, 279693, Note_on_c, 0, 73, 47
1, 279740, Note_on_c, 0, 73, 0
1, 279740, Note_on_c, 0, 70, 47
1, 279792, Note_on_c, 0, 70, 0
1, 279792, Note_on_c, 0, 68, 47
1, 279907, Control_c, 0, 64, 0
1, 279911, Note_on_c, 0, 68, 0
1, 280061, Note_on_c, 0, 70, 63
1, 280061, Note_on_c, 0, 58, 54
1, 280061, Note_on_c, 0, 61, 54
1, 280064, Note_on_c, 0, 54, 54
1, 280064, Note_on_c, 0, 42, 45
1, 280123, Note_on_c, 0, 61, 0
1, 280123, Note_on_c, 0, 58, 0
1, 280123, Note_on_c, 0, 70, 0
1, 280126, Note_on_c, 0, 68, 71
1, 280126, Note_on_c, 0, 56, 60
1, 280126, Note_on_c, 0, 61, 60
1, 280129, Note_on_c, 0, 42, 0
1, 280129, Note_on_c, 0, 54, 0
1, 280129, Note_on_c, 0, 53, 63
1, 280132, Note_on_c, 0, 44, 53
1, 280169, Note_on_c, 0, 44, 0
1, 280169, Note_on_c, 0, 53, 0
1, 280214, Note_on_c, 0, 61, 0
1, 280214, Note_on_c, 0, 56, 0
1, 280214, Note_on_c, 0, 68, 0
1, 280486, Note_on_c, 0, 92, 51
1, 280486, Control_c, 0, 64, 127
1, 280527, Note_on_c, 0, 92, 0
1, 280527, Note_on_c, 0, 94, 46
1, 280568, Note_on_c, 0, 94, 0
1, 280568, Note_on_c, 0, 92, 45
1, 280609, Note_on_c, 0, 92, 0
1, 280609, Note_on_c, 0, 91, 45
1, 280649, Note_on_c, 0, 91, 0
1, 280649, Note_on_c, 0, 92, 45
1, 280690, Note_on_c, 0, 92, 0
1, 280690, Note_on_c, 0, 101, 51
1, 280690, Note_on_c, 0, 56, 45
1, 280693, Note_on_c, 0, 65, 45
1, 280693, Note_on_c, 0, 68, 45
1, 280745, Note_on_c, 0, 101, 0
1, 280745, Note_on_c, 0, 99, 47
1, 280799, Note_on_c, 0, 99, 0
1, 280799, Note_on_c, 0, 97, 47
1, 280854, Note_on_c, 0, 97, 0
1, 280854, Note_on_c, 0, 94, 47
1, 280909, Note_on_c, 0, 94, 0
1, 280909, Note_on_c, 0, 99, 51
1, 280963, Note_on_c, 0, 99, 0
1, 280963, Note_on_c, 0, 97, 46
1, 281018, Note_on_c, 0, 97, 0
1, 281018, Note_on_c, 0, 94, 46
1, 281072, Note_on_c, 0, 94, 0
1, 281072, Note_on_c, 0, 92, 46
1, 281126, Note_on_c, 0, 92, 0
1, 281126, Note_on_c, 0, 97, 51
1, 281180, Note_on_c, 0, 97, 0
1, 281180, Note_on_c, 0, 94, 46
1, 281234, Note_on_c, 0, 94, 0
1, 281234, Note_on_c, 0, 92, 46
1, 281288, Note_on_c, 0, 92, 0
1, 281288, Note_on_c, 0, 89, 46
1, 281342, Note_on_c, 0, 89, 0
1, 281342, Note_on_c, 0, 94, 51
1, 281395, Note_on_c, 0, 94, 0
1, 281395, Note_on_c, 0, 92, 46
1, 281448, Note_on_c, 0, 92, 0
1, 281448, Note_on_c, 0, 89, 46
1, 281502, Note_on_c, 0, 89, 0
1, 281502, Note_on_c, 0, 87, 46
1, 281555, Note_on_c, 0, 87, 0
1, 281555, Note_on_c, 0, 92, 51
1, 281555, Note_on_c, 0, 68, 0
1, 281558, Note_on_c, 0, 65, 0
1, 281558, Note_on_c, 0, 56, 0
1, 281608, Note_on_c, 0, 92, 0
1, 281608, Note_on_c, 0, 89, 45
1, 281660, Note_on_c, 0, 89, 0
1, 281660, Note_on_c, 0, 87, 45
1, 281713, Note_on_c, 0, 87, 0
1, 281713, Note_on_c, 0, 85, 45
1, 281766, Note_on_c, 0, 85, 0
1, 281766, Note_on_c, 0, 89, 51
1, 281818, Note_on_c, 0, 89, 0
1, 281818, Note_on_c, 0, 87, 45
1, 281870, Note_on_c, 0, 87, 0
1, 281870, Note_on_c, 0, 85, 45
1, 281923, Note_on_c, 0, 85, 0
1, 281923, Note_on_c, 0, 82, 45
1, 281975, Note_on_c, 0, 82, 0
1, 281975, Note_on_c, 0, 87, 51
1, 282028, Note_on_c, 0, 87, 0
1, 282028, Note_on_c, 0, 85, 45
1, 282081, Note_on_c, 0, 85, 0
1, 282081, Note_on_c, 0, 82, 45
1, 282134, Note_on_c, 0, 82, 0
1, 282134, Note_on_c, 0, 80, 45
1, 282187, Note_on_c, 0, 80, 0
1, 282187, Note_on_c, 0, 85, 51
1, 282240, Note_on_c, 0, 85, 0
1, 282240, Note_on_c, 0, 82, 47
1, 282293, Note_on_c, 0, 82, 0
1, 282293, Note_on_c, 0, 80, 47
1, 282345, Note_on_c, 0, 80, 0
1, 282345, Note_on_c, 0, 77, 47
1, 282398, Note_on_c, 0, 77, 0
1, 282398, Note_on_c, 0, 82, 51
1, 282450, Note_on_c, 0, 82, 0
1, 282450, Note_on_c, 0, 80, 44
1, 282503, Note_on_c, 0, 80, 0
1, 282503, Note_on_c, 0, 77, 44
1, 282556, Note_on_c, 0, 77, 0
1, 282556, Note_on_c, 0, 75, 44
1, 282608, Note_on_c, 0, 75, 0
1, 282608, Note_on_c, 0, 80, 47
1, 282661, Note_on_c, 0, 80, 0
1, 282661, Note_on_c, 0, 77, 40
1, 282713, Note_on_c, 0, 77, 0
1, 282713, Note_on_c, 0, 75, 40
1, 282766, Note_on_c, 0, 75, 0
1, 282766, Note_on_c, 0, 73, 40
1, 282819, Note_on_c, 0, 73, 0
1, 282819, Note_on_c, 0, 77, 43
1, 282871, Note_on_c, 0, 77, 0
1, 282871, Note_on_c, 0, 75, 37
1, 282924, Note_on_c, 0, 75, 0
1, 282924, Note_on_c, 0, 73, 37
1, 282976, Note_on_c, 0, 73, 0
1, 282976, Note_on_c, 0, 70, 37
1, 283029, Note_on_c, 0, 70, 0
1, 283029, Note_on_c, 0, 75, 43
1, 283075, Note_on_c, 0, 75, 0
1, 283075, Note_on_c, 0, 73, 35
1, 283121, Note_on_c, 0, 73, 0
1, 283121, Note_on_c, 0, 70, 35
1, 283167, Note_on_c, 0, 70, 0
1, 283167, Note_on_c, 0, 68, 35
1, 283214, Note_on_c, 0, 68, 0
1, 283214, Note_on_c, 0, 73, 42
1, 283262, Note_on_c, 0, 73, 0
1, 283262, Note_on_c, 0, 70, 36
1, 283310, Note_on_c, 0, 70, 0
1, 283310, Note_on_c, 0, 68, 36
1, 283357, Note_on_c, 0, 68, 0
1, 283357, Note_on_c, 0, 65, 36
1, 283406, Note_on_c, 0, 65, 0
1, 283406, Note_on_c, 0, 70, 42
1, 283454, Note_on_c, 0, 70, 0
1, 283454, Note_on_c, 0, 68, 37
1, 283504, Note_on_c, 0, 68, 0
1, 283504, Note_on_c, 0, 65, 37
1, 283553, Note_on_c, 0, 65, 0
1, 283553, Note_on_c, 0, 63, 37
1, 283602, Note_on_c, 0, 63, 0
1, 283602, Note_on_c, 0, 68, 42
1, 283651, Note_on_c, 0, 68, 0
1, 283651, Note_on_c, 0, 65, 38
1, 283700, Note_on_c, 0, 65, 0
1, 283700, Note_on_c, 0, 63, 38
1, 283756, Note_on_c, 0, 63, 0
1, 283756, Note_on_c, 0, 61, 38
1, 283899, Note_on_c, 0, 61, 0
1, 283899, Control_c, 0, 64, 0
1, 284078, Note_on_c, 0, 81, 75
1, 284078, Note_on_c, 0, 69, 64
1, 284078, Note_on_c, 0, 65, 64
1, 284081, Note_on_c, 0, 53, 54
1, 284137, Note_on_c, 0, 69, 0
1, 284137, Note_on_c, 0, 81, 0
1, 284137, Note_on_c, 0, 82, 85
1, 284140, Note_on_c, 0, 70, 72
1, 284140, Note_on_c, 0, 53, 0
1, 284140, Note_on_c, 0, 65, 0
1, 284143, Note_on_c, 0, 66, 75
1, 284143, Note_on_c, 0, 54, 63
1, 284207, Note_on_c, 0, 54, 0
1, 284207, Note_on_c, 0, 66, 0
1, 284278, Note_on_c, 0, 70, 0
1, 284278, Note_on_c, 0, 82, 0
1, 284700, Note_on_c, 0, 54, 72
1, 284700, Note_on_c, 0, 60, 85
1, 284700, Note_on_c, 0, 48, 63
1, 284703, Note_on_c, 0, 32, 63
1, 284703, Note_on_c, 0, 39, 63
1, 284703, Note_on_c, 0, 44, 75
1, 285264, Note_on_c, 0, 60, 0
1, 285264, Note_on_c, 0, 54, 0
1, 285264, Note_on_c, 0, 44, 0
1, 285267, Note_on_c, 0, 48, 0
1, 285267, Note_on_c, 0, 32, 0
1, 285267, Note_on_c, 0, 39, 0
1, 286954, Note_on_c, 0, 37, 37
1, 287014, Note_on_c, 0, 37, 0
1, 287073, Note_on_c, 0, 44, 37
1, 287141, Note_on_c, 0, 44, 0
1, 287209, Note_on_c, 0, 56, 40
1, 287209, Note_on_c, 0, 49, 34
1, 287471, Note_on_c, 0, 49, 0
1, 287471, Note_on_c, 0, 56, 0
1, 287471, Note_on_c, 0, 37, 38
1, 287530, Note_on_c, 0, 37, 0
1, 287590, Note_on_c, 0, 44, 38
1, 287659, Note_on_c, 0, 44, 0
1, 287728, Note_on_c, 0, 56, 40
1, 287728, Note_on_c, 0, 49, 34
1, 287988, Note_on_c, 0, 49, 0
1, 287988, Note_on_c, 0, 56, 0
1, 287988, Note_on_c, 0, 37, 37
1, 288049, Note_on_c, 0, 37, 0
1, 288111, Note_on_c, 0, 44, 37
1, 288179, Note_on_c, 0, 44, 0
1, 288248, Note_on_c, 0, 68, 46
1, 288248, Note_on_c, 0, 65, 39
1, 288248, Note_on_c, 0, 56, 40
1, 288251, Note_on_c, 0, 49, 34
1, 288510, Note_on_c, 0, 49, 0
1, 288510, Note_on_c, 0, 56, 0
1, 288510, Note_on_c, 0, 37, 38
1, 288572, Note_on_c, 0, 37, 0
1, 288633, Note_on_c, 0, 65, 0
1, 288633, Note_on_c, 0, 68, 0
1, 288633, Note_on_c, 0, 66, 41
1, 288636, Note_on_c, 0, 63, 34
1, 288636, Note_on_c, 0, 44, 38
1, 288698, Note_on_c, 0, 63, 0
1, 288698, Note_on_c, 0, 66, 0
1, 288698, Note_on_c, 0, 44, 0
1, 288762, Note_on_c, 0, 65, 41
1, 288762, Note_on_c, 0, 61, 34
1, 288762, Note_on_c, 0, 56, 40
1, 288765, Note_on_c, 0, 49, 34
1, 288815, Note_on_c, 0, 61, 0
1, 288815, Note_on_c, 0, 65, 0
1, 288867, Note_on_c, 0, 66, 41
1, 288867, Note_on_c, 0, 63, 34
1, 288933, Note_on_c, 0, 63, 0
1, 288933, Note_on_c, 0, 66, 0
1, 288998, Note_on_c, 0, 68, 48
1, 288998, Note_on_c, 0, 65, 40
1, 288998, Note_on_c, 0, 49, 0
1, 289001, Note_on_c, 0, 56, 0
1, 289001, Note_on_c, 0, 37, 37
1, 289060, Note_on_c, 0, 65, 0
1, 289060, Note_on_c, 0, 68, 0
1, 289060, Note_on_c, 0, 37, 0
1, 289122, Note_on_c, 0, 44, 37
1, 289187, Note_on_c, 0, 70, 41
1, 289187, Note_on_c, 0, 66, 34
1, 289187, Note_on_c, 0, 44, 0
1, 289253, Note_on_c, 0, 66, 0
1, 289253, Note_on_c, 0, 70, 0
1, 289253, Note_on_c, 0, 68, 46
1, 289256, Note_on_c, 0, 65, 39
1, 289256, Note_on_c, 0, 56, 40
1, 289256, Note_on_c, 0, 49, 34
1, 289515, Note_on_c, 0, 49, 0
1, 289515, Note_on_c, 0, 56, 0
1, 289515, Note_on_c, 0, 37, 38
1, 289576, Note_on_c, 0, 37, 0
1, 289638, Note_on_c, 0, 65, 0
1, 289638, Note_on_c, 0, 68, 0
1, 289638, Note_on_c, 0, 66, 41
1, 289641, Note_on_c, 0, 63, 34
1, 289641, Note_on_c, 0, 44, 38
1, 289704, Note_on_c, 0, 63, 0
1, 289704, Note_on_c, 0, 66, 0
1, 289704, Note_on_c, 0, 44, 0
1, 289769, Note_on_c, 0, 65, 41
1, 289769, Note_on_c, 0, 61, 34
1, 289769, Note_on_c, 0, 56, 40
1, 289772, Note_on_c, 0, 49, 34
1, 289822, Note_on_c, 0, 61, 0
1, 289822, Note_on_c, 0, 65, 0
1, 289875, Note_on_c, 0, 66, 41
1, 289875, Note_on_c, 0, 63, 34
1, 289938, Note_on_c, 0, 63, 0
1, 289938, Note_on_c, 0, 66, 0
1, 290002, Note_on_c, 0, 68, 48
1, 290002, Note_on_c, 0, 65, 40
1, 290002, Note_on_c, 0, 49, 0
1, 290005, Note_on_c, 0, 56, 0
1, 290005, Note_on_c, 0, 37, 37
1, 290063, Note_on_c, 0, 65, 0
1, 290063, Note_on_c, 0, 68, 0
1, 290063, Note_on_c, 0, 37, 0
1, 290125, Note_on_c, 0, 44, 37
1, 290190, Note_on_c, 0, 70, 41
1, 290190, Note_on_c, 0, 66, 34
1, 290190, Note_on_c, 0, 44, 0
1, 290256, Note_on_c, 0, 66, 0
1, 290256, Note_on_c, 0, 70, 0
1, 290256, Note_on_c, 0, 68, 46
1, 290259, Note_on_c, 0, 65, 39
1, 290259, Note_on_c, 0, 56, 40
1, 290259, Note_on_c, 0, 49, 34
1, 290387, Note_on_c, 0, 65, 0
1, 290387, Note_on_c, 0, 68, 0
1, 290518, Note_on_c, 0, 49, 0
1, 290518, Note_on_c, 0, 56, 0
1, 290518, Note_on_c, 0, 37, 38
1, 290578, Note_on_c, 0, 37, 0
1, 290637, Note_on_c, 0, 44, 38
1, 290706, Note_on_c, 0, 44, 0
1, 290774, Note_on_c, 0, 56, 40
1, 290774, Note_on_c, 0, 49, 34
1, 291036, Note_on_c, 0, 49, 0
1, 291036, Note_on_c, 0, 56, 0
1, 291036, Note_on_c, 0, 37, 37
1, 291096, Note_on_c, 0, 37, 0
1, 291156, Note_on_c, 0, 45, 37
1, 291224, Note_on_c, 0, 45, 0
1, 291293, Note_on_c, 0, 76, 50
1, 291293, Note_on_c, 0, 73, 47
1, 291293, Note_on_c, 0, 64, 42
1, 291296, Note_on_c, 0, 57, 40
1, 291296, Note_on_c, 0, 49, 34
1, 291555, Note_on_c, 0, 49, 0
1, 291555, Note_on_c, 0, 57, 0
1, 291555, Note_on_c, 0, 37, 38
1, 291617, Note_on_c, 0, 37, 0
1, 291678, Note_on_c, 0, 64, 0
1, 291678, Note_on_c, 0, 73, 0
1, 291678, Note_on_c, 0, 76, 0
1, 291681, Note_on_c, 0, 74, 44
1, 291681, Note_on_c, 0, 71, 42
1, 291681, Note_on_c, 0, 45, 38
1, 291741, Note_on_c, 0, 71, 0
1, 291741, Note_on_c, 0, 74, 0
1, 291741, Note_on_c, 0, 45, 0
1, 291804, Note_on_c, 0, 73, 44
1, 291804, Note_on_c, 0, 69, 42
1, 291804, Note_on_c, 0, 57, 40
1, 291807, Note_on_c, 0, 49, 34
1, 291857, Note_on_c, 0, 69, 0
1, 291857, Note_on_c, 0, 73, 0
1, 291910, Note_on_c, 0, 74, 44
1, 291910, Note_on_c, 0, 71, 42
1, 291976, Note_on_c, 0, 71, 0
1, 291976, Note_on_c, 0, 74, 0
1, 292042, Note_on_c, 0, 76, 52
1, 292042, Note_on_c, 0, 73, 49
1, 292042, Note_on_c, 0, 49, 0
1, 292045, Note_on_c, 0, 57, 0
1, 292045, Note_on_c, 0, 37, 37
1, 292104, Note_on_c, 0, 73, 0
1, 292104, Note_on_c, 0, 76, 0
1, 292104, Note_on_c, 0, 37, 0
1, 292165, Note_on_c, 0, 45, 37
1, 292231, Note_on_c, 0, 78, 45
1, 292231, Note_on_c, 0, 74, 43
1, 292231, Note_on_c, 0, 45, 0
1, 292296, Note_on_c, 0, 74, 0
1, 292296, Note_on_c, 0, 78, 0
1, 292296, Note_on_c, 0, 76, 51
1, 292299, Note_on_c, 0, 73, 48
1, 292299, Note_on_c, 0, 64, 43
1, 292299, Note_on_c, 0, 57, 40
1, 292302, Note_on_c, 0, 49, 34
1, 292558, Note_on_c, 0, 49, 0
1, 292558, Note_on_c, 0, 57, 0
1, 292558, Note_on_c, 0, 37, 38
1, 292620, Note_on_c, 0, 37, 0
1, 292682, Note_on_c, 0, 64, 0
1, 292682, Note_on_c, 0, 73, 0
1, 292682, Note_on_c, 0, 76, 0
1, 292685, Note_on_c, 0, 74, 44
1, 292685, Note_on_c, 0, 71, 42
1, 292685, Note_on_c, 0, 45, 38
1, 292744, Note_on_c, 0, 71, 0
1, 292744, Note_on_c, 0, 74, 0
1, 292744, Note_on_c, 0, 45, 0
1, 292807, Note_on_c, 0, 73, 44
1, 292807, Note_on_c, 0, 69, 42
1, 292807, Note_on_c, 0, 57, 40
1, 292810, Note_on_c, 0, 49, 34
1, 292859, Note_on_c, 0, 69, 0
1, 292859, Note_on_c, 0, 73, 0
1, 292911, Note_on_c, 0, 74, 42
1, 292911, Note_on_c, 0, 71, 40
1, 292972, Note_on_c, 0, 71, 0
1, 292972, Note_on_c, 0, 74, 0
1, 293033, Note_on_c, 0, 76, 50
1, 293033, Note_on_c, 0, 73, 47
1, 293033, Note_on_c, 0, 49, 0
1, 293036, Note_on_c, 0, 57, 0
1, 293036, Note_on_c, 0, 37, 37
1, 293095, Note_on_c, 0, 73, 0
1, 293095, Note_on_c, 0, 76, 0
1, 293095, Note_on_c, 0, 37, 0
1, 293157, Note_on_c, 0, 45, 37
1, 293222, Note_on_c, 0, 78, 44
1, 293222, Note_on_c, 0, 74, 42
1, 293222, Note_on_c, 0, 45, 0
1, 293288, Note_on_c, 0, 74, 0
1, 293288, Note_on_c, 0, 78, 0
1, 293288, Note_on_c, 0, 76, 49
1, 293291, Note_on_c, 0, 73, 46
1, 293291, Note_on_c, 0, 64, 41
1, 293291, Note_on_c, 0, 57, 40
1, 293294, Note_on_c, 0, 49, 34
1, 293419, Note_on_c, 0, 64, 0
1, 293419, Note_on_c, 0, 73, 0
1, 293419, Note_on_c, 0, 76, 0
1, 293550, Note_on_c, 0, 49, 0
1, 293550, Note_on_c, 0, 57, 0
1, 293550, Note_on_c, 0, 37, 38
1, 293611, Note_on_c, 0, 37, 0
1, 293673, Note_on_c, 0, 45, 38
1, 293739, Note_on_c, 0, 45, 0
1, 293804, Note_on_c, 0, 57, 40
1, 293804, Note_on_c, 0, 49, 34
1, 294066, Note_on_c, 0, 49, 0
1, 294066, Note_on_c, 0, 57, 0
1, 294066, Note_on_c, 0, 37, 37
1, 294128, Note_on_c, 0, 37, 0
1, 294190, Note_on_c, 0, 49, 37
1, 294257, Note_on_c, 0, 49, 0
1, 294324, Note_on_c, 0, 81, 58
1, 294324, Note_on_c, 0, 78, 54
1, 294324, Note_on_c, 0, 69, 49
1, 294327, Note_on_c, 0, 62, 40
1, 294327, Note_on_c, 0, 54, 34
1, 294584, Note_on_c, 0, 54, 0
1, 294584, Note_on_c, 0, 62, 0
1, 294584, Note_on_c, 0, 37, 38
1, 294645, Note_on_c, 0, 37, 0
1, 294707, Note_on_c, 0, 69, 0
1, 294707, Note_on_c, 0, 78, 0
1, 294707, Note_on_c, 0, 81, 0
1, 294710, Note_on_c, 0, 80, 48
1, 294710, Note_on_c, 0, 76, 45
1, 294710, Note_on_c, 0, 49, 38
1, 294769, Note_on_c, 0, 76, 0
1, 294769, Note_on_c, 0, 80, 0
1, 294769, Note_on_c, 0, 49, 0
1, 294832, Note_on_c, 0, 78, 48
1, 294832, Note_on_c, 0, 74, 45
1, 294832, Note_on_c, 0, 62, 40
1, 294835, Note_on_c, 0, 54, 34
1, 294885, Note_on_c, 0, 74, 0
1, 294885, Note_on_c, 0, 78, 0
1, 294938, Note_on_c, 0, 80, 49
1, 294938, Note_on_c, 0, 76, 46
1, 295003, Note_on_c, 0, 76, 0
1, 295003, Note_on_c, 0, 80, 0
1, 295068, Note_on_c, 0, 81, 61
1, 295068, Note_on_c, 0, 78, 57
1, 295068, Note_on_c, 0, 54, 0
1, 295071, Note_on_c, 0, 62, 0
1, 295071, Note_on_c, 0, 37, 37
1, 295130, Note_on_c, 0, 78, 0
1, 295130, Note_on_c, 0, 81, 0
1, 295130, Note_on_c, 0, 37, 0
1, 295192, Note_on_c, 0, 49, 37
1, 295257, Note_on_c, 0, 83, 52
1, 295257, Note_on_c, 0, 80, 49
1, 295257, Note_on_c, 0, 49, 0
1, 295323, Note_on_c, 0, 80, 0
1, 295323, Note_on_c, 0, 83, 0
1, 295323, Note_on_c, 0, 78, 56
1, 295326, Note_on_c, 0, 81, 59
1, 295326, Note_on_c, 0, 69, 50
1, 295326, Note_on_c, 0, 62, 40
1, 295329, Note_on_c, 0, 54, 34
1, 295585, Note_on_c, 0, 54, 0
1, 295585, Note_on_c, 0, 62, 0
1, 295585, Note_on_c, 0, 37, 38
1, 295646, Note_on_c, 0, 37, 0
1, 295708, Note_on_c, 0, 69, 0
1, 295708, Note_on_c, 0, 81, 0
1, 295708, Note_on_c, 0, 78, 0
1, 295711, Note_on_c, 0, 80, 48
1, 295711, Note_on_c, 0, 76, 45
1, 295711, Note_on_c, 0, 49, 38
1, 295770, Note_on_c, 0, 76, 0
1, 295770, Note_on_c, 0, 80, 0
1, 295770, Note_on_c, 0, 49, 0
1, 295832, Note_on_c, 0, 78, 48
1, 295832, Note_on_c, 0, 74, 45
1, 295832, Note_on_c, 0, 62, 40
1, 295835, Note_on_c, 0, 54, 34
1, 295885, Note_on_c, 0, 74, 0
1, 295885, Note_on_c, 0, 78, 0
1, 295938, Note_on_c, 0, 80, 48
1, 295938, Note_on_c, 0, 76, 45
1, 296005, Note_on_c, 0, 76, 0
1, 296005, Note_on_c, 0, 80, 0
1, 296072, Note_on_c, 0, 81, 57
1, 296072, Note_on_c, 0, 78, 48
1, 296072, Note_on_c, 0, 54, 0
1, 296075, Note_on_c, 0, 62, 0
1, 296075, Note_on_c, 0, 37, 37
1, 296134, Note_on_c, 0, 78, 0
1, 296134, Note_on_c, 0, 81, 0
1, 296134, Note_on_c, 0, 37, 0
1, 296196, Note_on_c, 0, 49, 37
1, 296257, Note_on_c, 0, 83, 49
1, 296257, Note_on_c, 0, 80, 41
1, 296257, Note_on_c, 0, 49, 0
1, 296319, Note_on_c, 0, 80, 0
1, 296319, Note_on_c, 0, 83, 0
1, 296319, Note_on_c, 0, 81, 57
1, 296322, Note_on_c, 0, 78, 48
1, 296322, Note_on_c, 0, 62, 40
1, 296322, Note_on_c, 0, 54, 34
1, 296377, Note_on_c, 0, 78, 0
1, 296377, Note_on_c, 0, 81, 0
1, 296491, Note_on_c, 0, 81, 51
1, 296491, Note_on_c, 0, 78, 43
1, 296549, Note_on_c, 0, 78, 0
1, 296549, Note_on_c, 0, 81, 0
1, 296549, Note_on_c, 0, 83, 57
1, 296552, Note_on_c, 0, 80, 48
1, 296552, Note_on_c, 0, 54, 0
1, 296552, Note_on_c, 0, 62, 0
1, 296555, Note_on_c, 0, 65, 45
1, 296608, Note_on_c, 0, 80, 0
1, 296608, Note_on_c, 0, 83, 0
1, 296608, Note_on_c, 0, 65, 0
1, 296667, Note_on_c, 0, 71, 41
1, 296727, Note_on_c, 0, 81, 51
1, 296727, Note_on_c, 0, 78, 43
1, 296727, Note_on_c, 0, 71, 0
1, 296786, Note_on_c, 0, 78, 0
1, 296786, Note_on_c, 0, 81, 0
1, 296786, Note_on_c, 0, 83, 57
1, 296789, Note_on_c, 0, 80, 48
1, 296789, Note_on_c, 0, 74, 47
1, 296845, Note_on_c, 0, 80, 0
1, 296845, Note_on_c, 0, 83, 0
1, 296964, Note_on_c, 0, 85, 53
1, 296964, Note_on_c, 0, 77, 45
1, 297023, Note_on_c, 0, 77, 0
1, 297023, Note_on_c, 0, 85, 0
1, 297023, Note_on_c, 0, 86, 58
1, 297026, Note_on_c, 0, 78, 49
1, 297026, Note_on_c, 0, 74, 0
1, 297026, Note_on_c, 0, 61, 45
1, 297085, Note_on_c, 0, 78, 0
1, 297085, Note_on_c, 0, 86, 0
1, 297085, Note_on_c, 0, 61, 0
1, 297148, Note_on_c, 0, 66, 42
1, 297210, Note_on_c, 0, 81, 51
1, 297210, Note_on_c, 0, 78, 43
1, 297210, Note_on_c, 0, 66, 0
1, 297272, Note_on_c, 0, 78, 0
1, 297272, Note_on_c, 0, 81, 0
1, 297272, Note_on_c, 0, 80, 59
1, 297275, Note_on_c, 0, 77, 50
1, 297275, Note_on_c, 0, 69, 46
1, 297331, Note_on_c, 0, 77, 0
1, 297331, Note_on_c, 0, 80, 0
1, 297331, Note_on_c, 0, 69, 0
1, 297450, Note_on_c, 0, 81, 54
1, 297450, Note_on_c, 0, 78, 45
1, 297509, Note_on_c, 0, 78, 0
1, 297509, Note_on_c, 0, 81, 0
1, 297509, Note_on_c, 0, 83, 59
1, 297512, Note_on_c, 0, 80, 50
1, 297512, Note_on_c, 0, 65, 46
1, 297568, Note_on_c, 0, 80, 0
1, 297568, Note_on_c, 0, 83, 0
1, 297568, Note_on_c, 0, 65, 0
1, 297628, Note_on_c, 0, 71, 41
1, 297687, Note_on_c, 0, 81, 55
1, 297687, Note_on_c, 0, 78, 46
1, 297687, Note_on_c, 0, 71, 0
1, 297746, Note_on_c, 0, 78, 0
1, 297746, Note_on_c, 0, 81, 0
1, 297746, Note_on_c, 0, 83, 60
1, 297749, Note_on_c, 0, 80, 51
1, 297749, Note_on_c, 0, 74, 48
1, 297805, Note_on_c, 0, 80, 0
1, 297805, Note_on_c, 0, 83, 0
1, 297805, Note_on_c, 0, 74, 0
1, 297924, Note_on_c, 0, 85, 55
1, 297924, Note_on_c, 0, 77, 46
1, 297983, Note_on_c, 0, 77, 0
1, 297983, Note_on_c, 0, 85, 0
1, 297983, Note_on_c, 0, 86, 60
1, 297986, Note_on_c, 0, 78, 51
1, 297986, Note_on_c, 0, 61, 47
1, 298048, Note_on_c, 0, 78, 0
1, 298048, Note_on_c, 0, 86, 0
1, 298048, Note_on_c, 0, 61, 0
1, 298113, Note_on_c, 0, 66, 41
1, 298178, Note_on_c, 0, 66, 0
1, 298243, Note_on_c, 0, 92, 65
1, 298243, Note_on_c, 0, 69, 46
1, 298300, Note_on_c, 0, 92, 0
1, 298300, Note_on_c, 0, 93, 58
1, 298300, Note_on_c, 0, 69, 0
1, 298356, Note_on_c, 0, 93, 0
1, 298356, Note_on_c, 0, 95, 58
1, 298413, Note_on_c, 0, 95, 0
1, 298413, Note_on_c, 0, 93, 58
1, 298469, Note_on_c, 0, 93, 0
1, 298469, Note_on_c, 0, 87, 64
1, 298469, Note_on_c, 0, 90, 64
1, 298472, Note_on_c, 0, 68, 44
1, 298509, Control_c, 0, 64, 127
1, 298529, Note_on_c, 0, 68, 0
1, 298590, Note_on_c, 0, 90, 0
1, 298590, Note_on_c, 0, 87, 0
1, 298590, Note_on_c, 0, 85, 59
1, 298593, Note_on_c, 0, 89, 59
1, 298593, Note_on_c, 0, 75, 38
1, 298650, Note_on_c, 0, 75, 0
1, 298698, Control_c, 0, 64, 0
1, 298710, Note_on_c, 0, 89, 0
1, 298710, Note_on_c, 0, 85, 0
1, 298710, Note_on_c, 0, 84, 59
1, 298713, Note_on_c, 0, 87, 59
1, 298713, Note_on_c, 0, 78, 45
1, 298770, Note_on_c, 0, 78, 0
1, 298831, Note_on_c, 0, 87, 0
1, 298831, Note_on_c, 0, 84, 0
1, 298831, Note_on_c, 0, 80, 60
1, 298834, Note_on_c, 0, 92, 60
1, 298951, Note_on_c, 0, 92, 0
1, 298951, Note_on_c, 0, 80, 0
1, 298951, Note_on_c, 0, 90, 66
1, 298954, Note_on_c, 0, 87, 66
1, 298954, Note_on_c, 0, 61, 46
1, 298992, Control_c, 0, 64, 127
1, 299010, Note_on_c, 0, 87, 0
1, 299010, Note_on_c, 0, 90, 0
1, 299010, Note_on_c, 0, 61, 0
1, 299069, Note_on_c, 0, 85, 59
1, 299069, Note_on_c, 0, 89, 59
1, 299069, Note_on_c, 0, 68, 42
1, 299127, Note_on_c, 0, 89, 0
1, 299127, Note_on_c, 0, 85, 0
1, 299127, Note_on_c, 0, 68, 0
1, 299186, Note_on_c, 0, 84, 59
1, 299186, Note_on_c, 0, 87, 59
1, 299186, Note_on_c, 0, 72, 45
1, 299229, Control_c, 0, 64, 0
1, 299247, Note_on_c, 0, 87, 0
1, 299247, Note_on_c, 0, 84, 0
1, 299247, Note_on_c, 0, 72, 0
1, 299308, Note_on_c, 0, 68, 59
1, 299308, Note_on_c, 0, 80, 59
1, 299368, Note_on_c, 0, 80, 0
1, 299368, Note_on_c, 0, 68, 0
1, 299429, Note_on_c, 0, 75, 64
1, 299429, Note_on_c, 0, 78, 64
1, 299429, Note_on_c, 0, 56, 45
1, 299466, Control_c, 0, 64, 127
1, 299486, Note_on_c, 0, 78, 0
1, 299486, Note_on_c, 0, 75, 0
1, 299486, Note_on_c, 0, 56, 0
1, 299543, Note_on_c, 0, 73, 57
1, 299543, Note_on_c, 0, 77, 57
1, 299543, Note_on_c, 0, 63, 42
1, 299600, Note_on_c, 0, 77, 0
1, 299600, Note_on_c, 0, 73, 0
1, 299600, Note_on_c, 0, 63, 0
1, 299657, Note_on_c, 0, 72, 57
1, 299657, Note_on_c, 0, 75, 57
1, 299657, Note_on_c, 0, 66, 46
1, 299693, Control_c, 0, 64, 0
1, 299718, Note_on_c, 0, 75, 0
1, 299718, Note_on_c, 0, 72, 0
1, 299718, Note_on_c, 0, 66, 0
1, 299780, Note_on_c, 0, 68, 58
1, 299780, Note_on_c, 0, 80, 58
1, 299841, Note_on_c, 0, 80, 0
1, 299841, Note_on_c, 0, 68, 0
1, 299902, Note_on_c, 0, 73, 64
1, 299902, Note_on_c, 0, 77, 64
1, 299902, Note_on_c, 0, 37, 48
1, 299934, Control_c, 0, 64, 127
1, 299962, Note_on_c, 0, 77, 0
1, 299962, Note_on_c, 0, 73, 0
1, 299962, Note_on_c, 0, 37, 0
1, 300022, Note_on_c, 0, 44, 48
1, 300084, Note_on_c, 0, 44, 0
1, 300147, Note_on_c, 0, 68, 50
1, 300147, Note_on_c, 0, 80, 59
1, 300147, Note_on_c, 0, 77, 50
1, 300150, Note_on_c, 0, 56, 52
1, 300150, Note_on_c, 0, 49, 44
1, 300398, Note_on_c, 0, 49, 0
1, 300398, Note_on_c, 0, 56, 0
1, 300398, Note_on_c, 0, 49, 49
1, 300457, Note_on_c, 0, 49, 0
1, 300503, Control_c, 0, 64, 0
1, 300517, Note_on_c, 0, 77, 0
1, 300517, Note_on_c, 0, 80, 0
1, 300517, Note_on_c, 0, 68, 0
1, 300520, Note_on_c, 0, 66, 44
1, 300520, Note_on_c, 0, 78, 53
1, 300520, Note_on_c, 0, 75, 44
1, 300523, Note_on_c, 0, 56, 49
1, 300582, Note_on_c, 0, 75, 0
1, 300582, Note_on_c, 0, 78, 0
1, 300582, Note_on_c, 0, 66, 0
1, 300585, Note_on_c, 0, 56, 0
1, 300648, Note_on_c, 0, 65, 44
1, 300648, Note_on_c, 0, 77, 53
1, 300648, Note_on_c, 0, 73, 44
1, 300651, Note_on_c, 0, 61, 52
1, 300700, Note_on_c, 0, 73, 0
1, 300700, Note_on_c, 0, 77, 0
1, 300700, Note_on_c, 0, 65, 0
1, 300753, Note_on_c, 0, 66, 44
1, 300753, Note_on_c, 0, 78, 53
1, 300753, Note_on_c, 0, 75, 44
1, 300812, Note_on_c, 0, 75, 0
1, 300812, Note_on_c, 0, 78, 0
1, 300812, Note_on_c, 0, 66, 0
1, 300871, Note_on_c, 0, 68, 52
1, 300871, Note_on_c, 0, 80, 62
1, 300871, Note_on_c, 0, 77, 52
1, 300874, Note_on_c, 0, 61, 0
1, 300874, Note_on_c, 0, 37, 48
1, 300927, Control_c, 0, 64, 127
1, 300931, Note_on_c, 0, 77, 0
1, 300931, Note_on_c, 0, 80, 0
1, 300931, Note_on_c, 0, 68, 0
1, 300934, Note_on_c, 0, 37, 0
1, 300991, Note_on_c, 0, 44, 48
1, 301053, Note_on_c, 0, 70, 44
1, 301053, Note_on_c, 0, 82, 53
1, 301053, Note_on_c, 0, 78, 44
1, 301056, Note_on_c, 0, 44, 0
1, 301115, Note_on_c, 0, 78, 0
1, 301115, Note_on_c, 0, 82, 0
1, 301115, Note_on_c, 0, 70, 0
1, 301118, Note_on_c, 0, 68, 50
1, 301118, Note_on_c, 0, 80, 59
1, 301118, Note_on_c, 0, 77, 50
1, 301121, Note_on_c, 0, 56, 52
1, 301121, Note_on_c, 0, 49, 44
1, 301364, Note_on_c, 0, 49, 0
1, 301364, Note_on_c, 0, 56, 0
1, 301364, Note_on_c, 0, 49, 49
1, 301426, Note_on_c, 0, 49, 0
1, 301443, Control_c, 0, 64, 0
1, 301488, Note_on_c, 0, 77, 0
1, 301488, Note_on_c, 0, 80, 0
1, 301488, Note_on_c, 0, 68, 0
1, 301491, Note_on_c, 0, 66, 44
1, 301491, Note_on_c, 0, 78, 53
1, 301491, Note_on_c, 0, 75, 44
1, 301494, Note_on_c, 0, 56, 49
1, 301553, Note_on_c, 0, 75, 0
1, 301553, Note_on_c, 0, 78, 0
1, 301553, Note_on_c, 0, 66, 0
1, 301556, Note_on_c, 0, 56, 0
1, 301619, Note_on_c, 0, 65, 44
1, 301619, Note_on_c, 0, 77, 53
1, 301619, Note_on_c, 0, 73, 44
1, 301622, Note_on_c, 0, 61, 52
1, 301672, Note_on_c, 0, 73, 0
1, 301672, Note_on_c, 0, 77, 0
1, 301672, Note_on_c, 0, 65, 0
1, 301725, Note_on_c, 0, 66, 44
1, 301725, Note_on_c, 0, 78, 53
1, 301725, Note_on_c, 0, 75, 44
1, 301782, Note_on_c, 0, 75, 0
1, 301782, Note_on_c, 0, 78, 0
1, 301782, Note_on_c, 0, 66, 0
1, 301840, Note_on_c, 0, 68, 52
1, 301840, Note_on_c, 0, 80, 62
1, 301840, Note_on_c, 0, 77, 52
1, 301843, Note_on_c, 0, 61, 0
1, 301843, Note_on_c, 0, 37, 48
1, 301854, Control_c, 0, 64, 127
1, 301900, Note_on_c, 0, 77, 0
1, 301900, Note_on_c, 0, 80, 0
1, 301900, Note_on_c, 0, 68, 0
1, 301903, Note_on_c, 0, 37, 0
1, 301959, Note_on_c, 0, 44, 48
1, 302022, Note_on_c, 0, 70, 44
1, 302022, Note_on_c, 0, 82, 53
1, 302022, Note_on_c, 0, 78, 44
1, 302025, Note_on_c, 0, 44, 0
1, 302084, Note_on_c, 0, 78, 0
1, 302084, Note_on_c, 0, 82, 0
1, 302084, Note_on_c, 0, 70, 0
1, 302087, Note_on_c, 0, 68, 50
1, 302087, Note_on_c, 0, 80, 59
1, 302087, Note_on_c, 0, 77, 50
1, 302090, Note_on_c, 0, 56, 52
1, 302090, Note_on_c, 0, 49, 44
1, 302210, Note_on_c, 0, 77, 0
1, 302210, Note_on_c, 0, 80, 0
1, 302210, Note_on_c, 0, 68, 0
1, 302239, Control_c, 0, 64, 0
1, 302335, Note_on_c, 0, 49, 0
1, 302335, Note_on_c, 0, 56, 0
1, 302335, Note_on_c, 0, 37, 48
1, 302365, Control_c, 0, 64, 127
1, 302392, Note_on_c, 0, 37, 0
1, 302449, Note_on_c, 0, 45, 48
1, 302515, Note_on_c, 0, 45, 0
1, 302582, Note_on_c, 0, 88, 71
1, 302582, Note_on_c, 0, 85, 67
1, 302582, Note_on_c, 0, 76, 59
1, 302585, Note_on_c, 0, 57, 52
1, 302585, Note_on_c, 0, 49, 44
1, 302830, Note_on_c, 0, 49, 0
1, 302830, Note_on_c, 0, 57, 0
1, 302830, Note_on_c, 0, 49, 49
1, 302890, Note_on_c, 0, 49, 0
1, 302950, Note_on_c, 0, 76, 0
1, 302950, Note_on_c, 0, 85, 0
1, 302950, Note_on_c, 0, 88, 0
1, 302953, Note_on_c, 0, 74, 59
1, 302953, Note_on_c, 0, 86, 62
1, 302953, Note_on_c, 0, 83, 59
1, 302956, Note_on_c, 0, 57, 49
1, 303012, Note_on_c, 0, 83, 0
1, 303012, Note_on_c, 0, 86, 0
1, 303012, Note_on_c, 0, 74, 0
1, 303015, Note_on_c, 0, 57, 0
1, 303073, Note_on_c, 0, 73, 59
1, 303073, Note_on_c, 0, 85, 62
1, 303073, Note_on_c, 0, 81, 59
1, 303076, Note_on_c, 0, 64, 52
1, 303109, Control_c, 0, 64, 0
1, 303127, Note_on_c, 0, 81, 0
1, 303127, Note_on_c, 0, 85, 0
1, 303127, Note_on_c, 0, 73, 0
1, 303180, Note_on_c, 0, 74, 59
1, 303180, Note_on_c, 0, 86, 62
1, 303180, Note_on_c, 0, 83, 59
1, 303238, Note_on_c, 0, 83, 0
1, 303238, Note_on_c, 0, 86, 0
1, 303238, Note_on_c, 0, 74, 0
1, 303296, Note_on_c, 0, 76, 69
1, 303296, Note_on_c, 0, 88, 73
1, 303296, Note_on_c, 0, 85, 69
1, 303299, Note_on_c, 0, 64, 0
1, 303299, Note_on_c, 0, 37, 48
1, 303332, Control_c, 0, 64, 127
1, 303355, Note_on_c, 0, 85, 0
1, 303355, Note_on_c, 0, 88, 0
1, 303355, Note_on_c, 0, 76, 0
1, 303358, Note_on_c, 0, 37, 0
1, 303414, Note_on_c, 0, 45, 48
1, 303477, Note_on_c, 0, 78, 60
1, 303477, Note_on_c, 0, 90, 63
1, 303477, Note_on_c, 0, 86, 60
1, 303480, Note_on_c, 0, 45, 0
1, 303540, Note_on_c, 0, 86, 0
1, 303540, Note_on_c, 0, 90, 0
1, 303540, Note_on_c, 0, 78, 0
1, 303543, Note_on_c, 0, 88, 72
1, 303543, Note_on_c, 0, 85, 68
1, 303543, Note_on_c, 0, 76, 60
1, 303546, Note_on_c, 0, 57, 52
1, 303546, Note_on_c, 0, 49, 44
1, 303791, Note_on_c, 0, 49, 0
1, 303791, Note_on_c, 0, 57, 0
1, 303791, Note_on_c, 0, 49, 49
1, 303850, Note_on_c, 0, 49, 0
1, 303909, Note_on_c, 0, 76, 0
1, 303909, Note_on_c, 0, 85, 0
1, 303909, Note_on_c, 0, 88, 0
1, 303912, Note_on_c, 0, 74, 59
1, 303912, Note_on_c, 0, 86, 62
1, 303912, Note_on_c, 0, 83, 59
1, 303915, Note_on_c, 0, 57, 49
1, 303918, Control_c, 0, 64, 0
1, 303971, Note_on_c, 0, 83, 0
1, 303971, Note_on_c, 0, 86, 0
1, 303971, Note_on_c, 0, 74, 0
1, 303974, Note_on_c, 0, 57, 0
1, 304033, Note_on_c, 0, 73, 59
1, 304033, Note_on_c, 0, 85, 62
1, 304033, Note_on_c, 0, 81, 59
1, 304036, Note_on_c, 0, 64, 52
1, 304085, Note_on_c, 0, 81, 0
1, 304085, Note_on_c, 0, 85, 0
1, 304085, Note_on_c, 0, 73, 0
1, 304138, Note_on_c, 0, 74, 57
1, 304138, Note_on_c, 0, 86, 59
1, 304138, Note_on_c, 0, 83, 57
1, 304195, Note_on_c, 0, 83, 0
1, 304195, Note_on_c, 0, 86, 0
1, 304195, Note_on_c, 0, 74, 0
1, 304252, Note_on_c, 0, 76, 67
1, 304252, Note_on_c, 0, 88, 71
1, 304252, Note_on_c, 0, 85, 67
1, 304255, Note_on_c, 0, 64, 0
1, 304255, Note_on_c, 0, 37, 48
1, 304255, Control_c, 0, 64, 127
1, 304312, Note_on_c, 0, 85, 0
1, 304312, Note_on_c, 0, 88, 0
1, 304312, Note_on_c, 0, 76, 0
1, 304315, Note_on_c, 0, 37, 0
1, 304372, Note_on_c, 0, 45, 48
1, 304434, Note_on_c, 0, 78, 59
1, 304434, Note_on_c, 0, 90, 62
1, 304434, Note_on_c, 0, 86, 59
1, 304437, Note_on_c, 0, 45, 0
1, 304497, Note_on_c, 0, 86, 0
1, 304497, Note_on_c, 0, 90, 0
1, 304497, Note_on_c, 0, 78, 0
1, 304500, Note_on_c, 0, 88, 69
1, 304500, Note_on_c, 0, 85, 64
1, 304500, Note_on_c, 0, 76, 58
1, 304503, Note_on_c, 0, 57, 52
1, 304503, Note_on_c, 0, 49, 44
1, 304623, Note_on_c, 0, 76, 0
1, 304623, Note_on_c, 0, 85, 0
1, 304623, Note_on_c, 0, 88, 0
1, 304697, Control_c, 0, 64, 0
1, 304748, Note_on_c, 0, 49, 0
1, 304748, Note_on_c, 0, 57, 0
1, 304748, Note_on_c, 0, 37, 48
1, 304784, Control_c, 0, 64, 127
1, 304806, Note_on_c, 0, 37, 0
1, 304863, Note_on_c, 0, 45, 48
1, 304930, Note_on_c, 0, 45, 0
1, 304996, Note_on_c, 0, 93, 82
1, 304996, Note_on_c, 0, 90, 77
1, 304996, Note_on_c, 0, 81, 69
1, 304999, Note_on_c, 0, 57, 52
1, 304999, Note_on_c, 0, 49, 44
1, 305247, Note_on_c, 0, 49, 0
1, 305247, Note_on_c, 0, 57, 0
1, 305247, Note_on_c, 0, 49, 49
1, 305307, Note_on_c, 0, 49, 0
1, 305366, Note_on_c, 0, 81, 0
1, 305366, Note_on_c, 0, 90, 0
1, 305366, Note_on_c, 0, 93, 0
1, 305369, Note_on_c, 0, 80, 63
1, 305369, Note_on_c, 0, 92, 68
1, 305369, Note_on_c, 0, 88, 63
1, 305372, Note_on_c, 0, 54, 49
1, 305372, Control_c, 0, 64, 0
1, 305428, Note_on_c, 0, 88, 0
1, 305428, Note_on_c, 0, 92, 0
1, 305428, Note_on_c, 0, 80, 0
1, 305431, Note_on_c, 0, 54, 0
1, 305489, Note_on_c, 0, 78, 63
1, 305489, Note_on_c, 0, 90, 68
1, 305489, Note_on_c, 0, 86, 63
1, 305492, Note_on_c, 0, 62, 52
1, 305492, Note_on_c, 0, 57, 44
1, 305541, Note_on_c, 0, 86, 0
1, 305541, Note_on_c, 0, 90, 0
1, 305541, Note_on_c, 0, 78, 0
1, 305593, Note_on_c, 0, 80, 64
1, 305593, Note_on_c, 0, 92, 69
1, 305593, Note_on_c, 0, 88, 64
1, 305650, Note_on_c, 0, 88, 0
1, 305650, Note_on_c, 0, 92, 0
1, 305650, Note_on_c, 0, 80, 0
1, 305707, Note_on_c, 0, 81, 70
1, 305707, Note_on_c, 0, 93, 82
1, 305707, Note_on_c, 0, 90, 74
1, 305710, Note_on_c, 0, 57, 0
1, 305710, Note_on_c, 0, 62, 0
1, 305710, Note_on_c, 0, 37, 48
1, 305724, Control_c, 0, 64, 127
1, 305766, Note_on_c, 0, 90, 0
1, 305766, Note_on_c, 0, 93, 0
1, 305766, Note_on_c, 0, 81, 0
1, 305769, Note_on_c, 0, 37, 0
1, 305825, Note_on_c, 0, 45, 48
1, 305887, Note_on_c, 0, 83, 69
1, 305887, Note_on_c, 0, 95, 73
1, 305887, Note_on_c, 0, 92, 69
1, 305890, Note_on_c, 0, 45, 0
1, 305950, Note_on_c, 0, 92, 0
1, 305950, Note_on_c, 0, 95, 0
1, 305950, Note_on_c, 0, 83, 0
1, 305953, Note_on_c, 0, 90, 79
1, 305953, Note_on_c, 0, 93, 83
1, 305953, Note_on_c, 0, 81, 71
1, 305956, Note_on_c, 0, 57, 52
1, 305956, Note_on_c, 0, 49, 44
1, 306201, Note_on_c, 0, 49, 0
1, 306201, Note_on_c, 0, 57, 0
1, 306201, Note_on_c, 0, 49, 49
1, 306261, Note_on_c, 0, 49, 0
1, 306321, Note_on_c, 0, 81, 0
1, 306321, Note_on_c, 0, 93, 0
1, 306321, Note_on_c, 0, 90, 0
1, 306324, Note_on_c, 0, 80, 63
1, 306324, Note_on_c, 0, 92, 68
1, 306324, Note_on_c, 0, 88, 63
1, 306327, Note_on_c, 0, 54, 49
1, 306327, Control_c, 0, 64, 0
1, 306380, Note_on_c, 0, 88, 0
1, 306380, Note_on_c, 0, 92, 0
1, 306380, Note_on_c, 0, 80, 0
1, 306383, Note_on_c, 0, 54, 0
1, 306439, Note_on_c, 0, 78, 63
1, 306439, Note_on_c, 0, 90, 68
1, 306439, Note_on_c, 0, 86, 63
1, 306442, Note_on_c, 0, 62, 52
1, 306442, Note_on_c, 0, 57, 44
1, 306491, Note_on_c, 0, 86, 0
1, 306491, Note_on_c, 0, 90, 0
1, 306491, Note_on_c, 0, 78, 0
1, 306543, Note_on_c, 0, 80, 63
1, 306543, Note_on_c, 0, 92, 68
1, 306543, Note_on_c, 0, 88, 63
1, 306600, Note_on_c, 0, 88, 0
1, 306600, Note_on_c, 0, 92, 0
1, 306600, Note_on_c, 0, 80, 0
1, 306657, Note_on_c, 0, 81, 68
1, 306657, Note_on_c, 0, 93, 81
1, 306657, Note_on_c, 0, 90, 68
1, 306660, Note_on_c, 0, 57, 0
1, 306660, Note_on_c, 0, 62, 0
1, 306660, Note_on_c, 0, 37, 48
1, 306663, Control_c, 0, 64, 127
1, 306716, Note_on_c, 0, 90, 0
1, 306716, Note_on_c, 0, 93, 0
1, 306716, Note_on_c, 0, 81, 0
1, 306719, Note_on_c, 0, 37, 0
1, 306776, Note_on_c, 0, 45, 48
1, 306835, Note_on_c, 0, 83, 58
1, 306835, Note_on_c, 0, 95, 69
1, 306835, Note_on_c, 0, 92, 58
1, 306838, Note_on_c, 0, 45, 0
1, 306894, Note_on_c, 0, 92, 0
1, 306894, Note_on_c, 0, 95, 0
1, 306894, Note_on_c, 0, 83, 0
1, 306897, Note_on_c, 0, 81, 68
1, 306897, Note_on_c, 0, 93, 81
1, 306897, Note_on_c, 0, 90, 68
1, 306900, Note_on_c, 0, 57, 52
1, 306900, Note_on_c, 0, 49, 44
1, 306950, Note_on_c, 0, 90, 0
1, 306950, Note_on_c, 0, 93, 0
1, 306950, Note_on_c, 0, 81, 0
1, 306976, Control_c, 0, 64, 0
1, 307061, Note_on_c, 0, 81, 66
1, 307061, Note_on_c, 0, 78, 55
1, 307117, Note_on_c, 0, 78, 0
1, 307117, Note_on_c, 0, 81, 0
1, 307117, Note_on_c, 0, 83, 74
1, 307120, Note_on_c, 0, 80, 62
1, 307120, Note_on_c, 0, 49, 0
1, 307120, Note_on_c, 0, 57, 0
1, 307123, Note_on_c, 0, 65, 58
1, 307175, Note_on_c, 0, 80, 0
1, 307175, Note_on_c, 0, 83, 0
1, 307175, Note_on_c, 0, 65, 0
1, 307233, Note_on_c, 0, 71, 53
1, 307291, Note_on_c, 0, 81, 66
1, 307291, Note_on_c, 0, 78, 55
1, 307291, Note_on_c, 0, 71, 0
1, 307349, Note_on_c, 0, 78, 0
1, 307349, Note_on_c, 0, 81, 0
1, 307349, Note_on_c, 0, 83, 74
1, 307352, Note_on_c, 0, 80, 62
1, 307352, Note_on_c, 0, 74, 61
1, 307407, Note_on_c, 0, 80, 0
1, 307407, Note_on_c, 0, 83, 0
1, 307522, Note_on_c, 0, 85, 68
1, 307522, Note_on_c, 0, 77, 58
1, 307580, Note_on_c, 0, 77, 0
1, 307580, Note_on_c, 0, 85, 0
1, 307580, Note_on_c, 0, 86, 75
1, 307583, Note_on_c, 0, 78, 63
1, 307583, Note_on_c, 0, 74, 0
1, 307583, Note_on_c, 0, 61, 58
1, 307641, Note_on_c, 0, 78, 0
1, 307641, Note_on_c, 0, 86, 0
1, 307641, Note_on_c, 0, 61, 0
1, 307702, Note_on_c, 0, 66, 54
1, 307762, Note_on_c, 0, 81, 66
1, 307762, Note_on_c, 0, 78, 55
1, 307762, Note_on_c, 0, 66, 0
1, 307823, Note_on_c, 0, 78, 0
1, 307823, Note_on_c, 0, 81, 0
1, 307823, Note_on_c, 0, 80, 76
1, 307826, Note_on_c, 0, 77, 65
1, 307826, Note_on_c, 0, 69, 59
1, 307879, Note_on_c, 0, 77, 0
1, 307879, Note_on_c, 0, 80, 0
1, 307879, Note_on_c, 0, 69, 0
1, 307990, Note_on_c, 0, 81, 70
1, 307990, Note_on_c, 0, 78, 58
1, 308046, Note_on_c, 0, 78, 0
1, 308046, Note_on_c, 0, 81, 0
1, 308046, Note_on_c, 0, 83, 76
1, 308049, Note_on_c, 0, 80, 65
1, 308049, Note_on_c, 0, 65, 59
1, 308102, Note_on_c, 0, 80, 0
1, 308102, Note_on_c, 0, 83, 0
1, 308102, Note_on_c, 0, 65, 0
1, 308158, Note_on_c, 0, 71, 53
1, 308213, Note_on_c, 0, 81, 71
1, 308213, Note_on_c, 0, 78, 59
1, 308213, Note_on_c, 0, 71, 0
1, 308269, Note_on_c, 0, 78, 0
1, 308269, Note_on_c, 0, 81, 0
1, 308269, Note_on_c, 0, 83, 78
1, 308272, Note_on_c, 0, 80, 66
1, 308272, Note_on_c, 0, 74, 62
1, 308325, Note_on_c, 0, 80, 0
1, 308325, Note_on_c, 0, 83, 0
1, 308325, Note_on_c, 0, 74, 0
1, 308436, Note_on_c, 0, 85, 71
1, 308436, Note_on_c, 0, 77, 59
1, 308492, Note_on_c, 0, 77, 0
1, 308492, Note_on_c, 0, 85, 0
1, 308492, Note_on_c, 0, 86, 78
1, 308495, Note_on_c, 0, 78, 66
1, 308495, Note_on_c, 0, 61, 61
1, 308553, Note_on_c, 0, 78, 0
1, 308553, Note_on_c, 0, 86, 0
1, 308553, Note_on_c, 0, 61, 0
1, 308614, Note_on_c, 0, 66, 53
1, 308676, Note_on_c, 0, 66, 0
1, 308737, Note_on_c, 0, 92, 79
1, 308737, Note_on_c, 0, 69, 59
1, 308791, Note_on_c, 0, 92, 0
1, 308791, Note_on_c, 0, 93, 72
1, 308791, Note_on_c, 0, 69, 0
1, 308846, Note_on_c, 0, 93, 0
1, 308846, Note_on_c, 0, 95, 72
1, 308900, Note_on_c, 0, 95, 0
1, 308900, Note_on_c, 0, 93, 72
1, 308955, Note_on_c, 0, 93, 0
1, 308955, Note_on_c, 0, 87, 78
1, 308955, Note_on_c, 0, 90, 78
1, 308958, Note_on_c, 0, 68, 57
1, 308994, Control_c, 0, 64, 127
1, 309013, Note_on_c, 0, 68, 0
1, 309072, Note_on_c, 0, 90, 0
1, 309072, Note_on_c, 0, 87, 0
1, 309072, Note_on_c, 0, 85, 72
1, 309075, Note_on_c, 0, 89, 72
1, 309075, Note_on_c, 0, 75, 49
1, 309130, Note_on_c, 0, 75, 0
1, 309177, Control_c, 0, 64, 0
1, 309188, Note_on_c, 0, 89, 0
1, 309188, Note_on_c, 0, 85, 0
1, 309188, Note_on_c, 0, 84, 72
1, 309191, Note_on_c, 0, 87, 72
1, 309191, Note_on_c, 0, 78, 58
1, 309247, Note_on_c, 0, 78, 0
1, 309305, Note_on_c, 0, 87, 0
1, 309305, Note_on_c, 0, 84, 0
1, 309305, Note_on_c, 0, 80, 74
1, 309308, Note_on_c, 0, 92, 74
1, 309422, Note_on_c, 0, 92, 0
1, 309422, Note_on_c, 0, 80, 0
1, 309422, Note_on_c, 0, 90, 80
1, 309425, Note_on_c, 0, 87, 80
1, 309425, Note_on_c, 0, 61, 59
1, 309461, Control_c, 0, 64, 127
1, 309478, Note_on_c, 0, 87, 0
1, 309478, Note_on_c, 0, 90, 0
1, 309478, Note_on_c, 0, 61, 0
1, 309535, Note_on_c, 0, 85, 72
1, 309535, Note_on_c, 0, 89, 72
1, 309535, Note_on_c, 0, 68, 54
1, 309591, Note_on_c, 0, 89, 0
1, 309591, Note_on_c, 0, 85, 0
1, 309591, Note_on_c, 0, 68, 0
1, 309648, Note_on_c, 0, 84, 72
1, 309648, Note_on_c, 0, 87, 72
1, 309648, Note_on_c, 0, 72, 58
1, 309691, Control_c, 0, 64, 0
1, 309709, Note_on_c, 0, 87, 0
1, 309709, Note_on_c, 0, 84, 0
1, 309709, Note_on_c, 0, 72, 0
1, 309769, Note_on_c, 0, 68, 72
1, 309769, Note_on_c, 0, 80, 72
1, 309830, Note_on_c, 0, 80, 0
1, 309830, Note_on_c, 0, 68, 0
1, 309891, Note_on_c, 0, 75, 78
1, 309891, Note_on_c, 0, 78, 78
1, 309891, Note_on_c, 0, 56, 58
1, 309928, Control_c, 0, 64, 127
1, 309948, Note_on_c, 0, 78, 0
1, 309948, Note_on_c, 0, 75, 0
1, 309948, Note_on_c, 0, 56, 0
1, 310004, Note_on_c, 0, 73, 64
1, 310004, Note_on_c, 0, 77, 64
1, 310004, Note_on_c, 0, 63, 54
1, 310061, Note_on_c, 0, 77, 0
1, 310061, Note_on_c, 0, 73, 0
1, 310061, Note_on_c, 0, 63, 0
1, 310117, Note_on_c, 0, 72, 64
1, 310117, Note_on_c, 0, 75, 64
1, 310117, Note_on_c, 0, 66, 59
1, 310153, Control_c, 0, 64, 0
1, 310178, Note_on_c, 0, 75, 0
1, 310178, Note_on_c, 0, 72, 0
1, 310178, Note_on_c, 0, 66, 0
1, 310240, Note_on_c, 0, 68, 64
1, 310240, Note_on_c, 0, 80, 64
1, 310314, Note_on_c, 0, 80, 0
1, 310314, Note_on_c, 0, 68, 0
1, 310389, Note_on_c, 0, 73, 45
1, 310389, Note_on_c, 0, 77, 50
1, 310389, Note_on_c, 0, 49, 40
1, 310451, Note_on_c, 0, 77, 0
1, 310451, Note_on_c, 0, 73, 0
1, 310451, Note_on_c, 0, 49, 0
1, 310512, Note_on_c, 0, 56, 35
1, 310574, Note_on_c, 0, 56, 0
1, 310636, Note_on_c, 0, 89, 55
1, 310636, Note_on_c, 0, 92, 55
1, 310636, Note_on_c, 0, 68, 35
1, 310639, Note_on_c, 0, 61, 35
1, 310643, Control_c, 0, 64, 127
1, 310698, Note_on_c, 0, 61, 0
1, 310698, Note_on_c, 0, 68, 0
1, 310759, Note_on_c, 0, 56, 35
1, 310821, Note_on_c, 0, 56, 0
1, 310883, Note_on_c, 0, 49, 40
1, 310941, Note_on_c, 0, 49, 0
1, 310999, Note_on_c, 0, 92, 0
1, 310999, Note_on_c, 0, 89, 0
1, 310999, Note_on_c, 0, 94, 57
1, 311002, Note_on_c, 0, 97, 57
1, 311002, Note_on_c, 0, 56, 36
1, 311002, Control_c, 0, 64, 0
1, 311054, Note_on_c, 0, 97, 0
1, 311054, Note_on_c, 0, 94, 0
1, 311054, Note_on_c, 0, 56, 0
1, 311108, Note_on_c, 0, 92, 54
1, 311108, Note_on_c, 0, 96, 54
1, 311108, Note_on_c, 0, 68, 36
1, 311111, Note_on_c, 0, 61, 36
1, 311167, Note_on_c, 0, 96, 0
1, 311167, Note_on_c, 0, 92, 0
1, 311167, Note_on_c, 0, 61, 0
1, 311170, Note_on_c, 0, 68, 0
1, 311225, Note_on_c, 0, 94, 54
1, 311225, Note_on_c, 0, 90, 54
1, 311225, Note_on_c, 0, 56, 37
1, 311283, Note_on_c, 0, 90, 0
1, 311283, Note_on_c, 0, 94, 0
1, 311283, Note_on_c, 0, 56, 0
1, 311342, Note_on_c, 0, 89, 47
1, 311342, Note_on_c, 0, 92, 52
1, 311342, Note_on_c, 0, 49, 40
1, 311404, Note_on_c, 0, 92, 0
1, 311404, Note_on_c, 0, 89, 0
1, 311404, Note_on_c, 0, 49, 0
1, 311465, Note_on_c, 0, 56, 35
1, 311527, Note_on_c, 0, 56, 0
1, 311589, Note_on_c, 0, 77, 53
1, 311589, Note_on_c, 0, 80, 53
1, 311589, Note_on_c, 0, 68, 35
1, 311592, Note_on_c, 0, 61, 35
1, 311629, Control_c, 0, 64, 127
1, 311647, Note_on_c, 0, 61, 0
1, 311647, Note_on_c, 0, 68, 0
1, 311704, Note_on_c, 0, 56, 35
1, 311762, Note_on_c, 0, 56, 0
1, 311820, Note_on_c, 0, 49, 40
1, 311878, Note_on_c, 0, 49, 0
1, 311936, Note_on_c, 0, 80, 0
1, 311936, Note_on_c, 0, 77, 0
1, 311936, Note_on_c, 0, 75, 55
1, 311939, Note_on_c, 0, 78, 55
1, 311939, Note_on_c, 0, 56, 36
1, 311975, Control_c, 0, 64, 0
1, 311996, Note_on_c, 0, 78, 0
1, 311996, Note_on_c, 0, 75, 0
1, 311996, Note_on_c, 0, 56, 0
1, 312056, Note_on_c, 0, 73, 55
1, 312056, Note_on_c, 0, 77, 55
1, 312056, Note_on_c, 0, 68, 36
1, 312059, Note_on_c, 0, 61, 36
1, 312114, Note_on_c, 0, 77, 0
1, 312114, Note_on_c, 0, 73, 0
1, 312114, Note_on_c, 0, 61, 0
1, 312117, Note_on_c, 0, 68, 0
1, 312172, Note_on_c, 0, 75, 55
1, 312172, Note_on_c, 0, 68, 55
1, 312172, Note_on_c, 0, 56, 37
1, 312235, Note_on_c, 0, 68, 0
1, 312235, Note_on_c, 0, 75, 0
1, 312235, Note_on_c, 0, 56, 0
1, 312297, Note_on_c, 0, 73, 45
1, 312297, Note_on_c, 0, 77, 50
1, 312297, Note_on_c, 0, 49, 40
1, 312358, Note_on_c, 0, 77, 0
1, 312358, Note_on_c, 0, 73, 0
1, 312358, Note_on_c, 0, 49, 0
1, 312420, Note_on_c, 0, 56, 35
1, 312482, Note_on_c, 0, 56, 0
1, 312544, Note_on_c, 0, 89, 55
1, 312544, Note_on_c, 0, 92, 55
1, 312544, Note_on_c, 0, 68, 35
1, 312547, Note_on_c, 0, 61, 35
1, 312564, Control_c, 0, 64, 127
1, 312601, Note_on_c, 0, 61, 0
1, 312601, Note_on_c, 0, 68, 0
1, 312659, Note_on_c, 0, 56, 35
1, 312717, Note_on_c, 0, 56, 0
1, 312775, Note_on_c, 0, 49, 40
1, 312833, Note_on_c, 0, 49, 0
1, 312874, Control_c, 0, 64, 0
1, 312891, Note_on_c, 0, 92, 0
1, 312891, Note_on_c, 0, 89, 0
1, 312891, Note_on_c, 0, 94, 57
1, 312894, Note_on_c, 0, 97, 57
1, 312894, Note_on_c, 0, 56, 36
1, 312945, Note_on_c, 0, 97, 0
1, 312945, Note_on_c, 0, 94, 0
1, 312945, Note_on_c, 0, 56, 0
1, 312998, Note_on_c, 0, 92, 54
1, 312998, Note_on_c, 0, 96, 54
1, 312998, Note_on_c, 0, 68, 36
1, 313001, Note_on_c, 0, 61, 36
1, 313056, Note_on_c, 0, 96, 0
1, 313056, Note_on_c, 0, 92, 0
1, 313056, Note_on_c, 0, 61, 0
1, 313059, Note_on_c, 0, 68, 0
1, 313113, Note_on_c, 0, 94, 54
1, 313113, Note_on_c, 0, 90, 54
1, 313113, Note_on_c, 0, 56, 37
1, 313171, Note_on_c, 0, 90, 0
1, 313171, Note_on_c, 0, 94, 0
1, 313171, Note_on_c, 0, 56, 0
1, 313228, Note_on_c, 0, 89, 47
1, 313228, Note_on_c, 0, 92, 52
1, 313228, Note_on_c, 0, 49, 45
1, 313290, Note_on_c, 0, 92, 0
1, 313290, Note_on_c, 0, 89, 0
1, 313290, Note_on_c, 0, 49, 0
1, 313352, Note_on_c, 0, 56, 40
1, 313413, Note_on_c, 0, 56, 0
1, 313475, Note_on_c, 0, 78, 64
1, 313475, Note_on_c, 0, 82, 64
1, 313475, Note_on_c, 0, 68, 40
1, 313478, Note_on_c, 0, 61, 40
1, 313478, Control_c, 0, 64, 127
1, 313537, Note_on_c, 0, 61, 0
1, 313537, Note_on_c, 0, 68, 0
1, 313599, Note_on_c, 0, 56, 40
1, 313660, Note_on_c, 0, 56, 0
1, 313718, Control_c, 0, 64, 0
1, 313722, Note_on_c, 0, 82, 0
1, 313722, Note_on_c, 0, 78, 0
1, 313722, Note_on_c, 0, 77, 58
1, 313725, Note_on_c, 0, 80, 58
1, 313725, Note_on_c, 0, 49, 46
1, 313779, Note_on_c, 0, 80, 0
1, 313779, Note_on_c, 0, 77, 0
1, 313779, Note_on_c, 0, 49, 0
1, 313835, Note_on_c, 0, 75, 54
1, 313835, Note_on_c, 0, 78, 54
1, 313835, Note_on_c, 0, 56, 39
1, 313892, Note_on_c, 0, 78, 0
1, 313892, Note_on_c, 0, 75, 0
1, 313892, Note_on_c, 0, 56, 0
1, 313948, Note_on_c, 0, 73, 54
1, 313948, Note_on_c, 0, 77, 54
1, 313948, Note_on_c, 0, 68, 39
1, 313951, Note_on_c, 0, 61, 39
1, 314007, Note_on_c, 0, 77, 0
1, 314007, Note_on_c, 0, 73, 0
1, 314007, Note_on_c, 0, 61, 0
1, 314010, Note_on_c, 0, 68, 0
1, 314066, Note_on_c, 0, 75, 53
1, 314066, Note_on_c, 0, 68, 53
1, 314066, Note_on_c, 0, 56, 37
1, 314128, Note_on_c, 0, 68, 0
1, 314128, Note_on_c, 0, 75, 0
1, 314128, Note_on_c, 0, 56, 0
1, 314190, Note_on_c, 0, 73, 45
1, 314190, Note_on_c, 0, 77, 50
1, 314190, Note_on_c, 0, 49, 40
1, 314252, Note_on_c, 0, 77, 0
1, 314252, Note_on_c, 0, 73, 0
1, 314252, Note_on_c, 0, 49, 0
1, 314314, Note_on_c, 0, 56, 35
1, 314376, Note_on_c, 0, 56, 0
1, 314437, Note_on_c, 0, 89, 55
1, 314437, Note_on_c, 0, 92, 55
1, 314437, Note_on_c, 0, 68, 35
1, 314440, Note_on_c, 0, 61, 35
1, 314490, Control_c, 0, 64, 127
1, 314497, Note_on_c, 0, 61, 0
1, 314497, Note_on_c, 0, 68, 0
1, 314557, Note_on_c, 0, 56, 35
1, 314616, Note_on_c, 0, 56, 0
1, 314676, Note_on_c, 0, 49, 40
1, 314735, Note_on_c, 0, 49, 0
1, 314793, Note_on_c, 0, 92, 0
1, 314793, Note_on_c, 0, 89, 0
1, 314793, Note_on_c, 0, 94, 57
1, 314796, Note_on_c, 0, 97, 57
1, 314796, Note_on_c, 0, 56, 36
1, 314845, Control_c, 0, 64, 0
1, 314848, Note_on_c, 0, 97, 0
1, 314848, Note_on_c, 0, 94, 0
1, 314848, Note_on_c, 0, 56, 0
1, 314904, Note_on_c, 0, 92, 54
1, 314904, Note_on_c, 0, 96, 54
1, 314904, Note_on_c, 0, 68, 36
1, 314907, Note_on_c, 0, 61, 36
1, 314961, Note_on_c, 0, 96, 0
1, 314961, Note_on_c, 0, 92, 0
1, 314961, Note_on_c, 0, 61, 0
1, 314964, Note_on_c, 0, 68, 0
1, 315019, Note_on_c, 0, 94, 54
1, 315019, Note_on_c, 0, 90, 54
1, 315019, Note_on_c, 0, 56, 37
1, 315077, Note_on_c, 0, 90, 0
1, 315077, Note_on_c, 0, 94, 0
1, 315077, Note_on_c, 0, 56, 0
1, 315135, Note_on_c, 0, 89, 47
1, 315135, Note_on_c, 0, 92, 52
1, 315135, Note_on_c, 0, 49, 40
1, 315197, Note_on_c, 0, 92, 0
1, 315197, Note_on_c, 0, 89, 0
1, 315197, Note_on_c, 0, 49, 0
1, 315259, Note_on_c, 0, 56, 35
1, 315320, Note_on_c, 0, 56, 0
1, 315382, Note_on_c, 0, 77, 53
1, 315382, Note_on_c, 0, 80, 53
1, 315382, Note_on_c, 0, 68, 35
1, 315385, Note_on_c, 0, 61, 35
1, 315420, Control_c, 0, 64, 127
1, 315440, Note_on_c, 0, 61, 0
1, 315440, Note_on_c, 0, 68, 0
1, 315498, Note_on_c, 0, 56, 35
1, 315556, Note_on_c, 0, 56, 0
1, 315614, Note_on_c, 0, 49, 40
1, 315668, Control_c, 0, 64, 0
1, 315672, Note_on_c, 0, 49, 0
1, 315729, Note_on_c, 0, 80, 0
1, 315729, Note_on_c, 0, 77, 0
1, 315729, Note_on_c, 0, 75, 55
1, 315732, Note_on_c, 0, 78, 55
1, 315732, Note_on_c, 0, 56, 36
1, 315784, Note_on_c, 0, 78, 0
1, 315784, Note_on_c, 0, 75, 0
1, 315784, Note_on_c, 0, 56, 0
1, 315838, Note_on_c, 0, 73, 53
1, 315838, Note_on_c, 0, 77, 53
1, 315838, Note_on_c, 0, 68, 36
1, 315841, Note_on_c, 0, 61, 36
1, 315896, Note_on_c, 0, 77, 0
1, 315896, Note_on_c, 0, 73, 0
1, 315896, Note_on_c, 0, 61, 0
1, 315899, Note_on_c, 0, 68, 0
1, 315954, Note_on_c, 0, 75, 53
1, 315954, Note_on_c, 0, 68, 53
1, 315954, Note_on_c, 0, 56, 37
1, 316016, Note_on_c, 0, 68, 0
1, 316016, Note_on_c, 0, 75, 0
1, 316016, Note_on_c, 0, 56, 0
1, 316079, Note_on_c, 0, 73, 45
1, 316079, Note_on_c, 0, 77, 50
1, 316079, Note_on_c, 0, 49, 40
1, 316140, Note_on_c, 0, 77, 0
1, 316140, Note_on_c, 0, 73, 0
1, 316140, Note_on_c, 0, 49, 0
1, 316202, Note_on_c, 0, 56, 35
1, 316264, Note_on_c, 0, 56, 0
1, 316326, Note_on_c, 0, 89, 55
1, 316326, Note_on_c, 0, 92, 55
1, 316326, Note_on_c, 0, 68, 35
1, 316329, Note_on_c, 0, 61, 35
1, 316339, Control_c, 0, 64, 127
1, 316383, Note_on_c, 0, 61, 0
1, 316383, Note_on_c, 0, 68, 0
1, 316441, Note_on_c, 0, 56, 35
1, 316499, Note_on_c, 0, 56, 0
1, 316557, Note_on_c, 0, 49, 40
1, 316615, Note_on_c, 0, 49, 0
1, 316673, Note_on_c, 0, 92, 0
1, 316673, Note_on_c, 0, 89, 0
1, 316673, Note_on_c, 0, 94, 57
1, 316676, Note_on_c, 0, 97, 57
1, 316676, Note_on_c, 0, 56, 36
1, 316686, Control_c, 0, 64, 0
1, 316727, Note_on_c, 0, 97, 0
1, 316727, Note_on_c, 0, 94, 0
1, 316727, Note_on_c, 0, 56, 0
1, 316782, Note_on_c, 0, 92, 54
1, 316782, Note_on_c, 0, 96, 54
1, 316782, Note_on_c, 0, 68, 36
1, 316785, Note_on_c, 0, 61, 36
1, 316840, Note_on_c, 0, 96, 0
1, 316840, Note_on_c, 0, 92, 0
1, 316840, Note_on_c, 0, 61, 0
1, 316843, Note_on_c, 0, 68, 0
1, 316898, Note_on_c, 0, 94, 54
1, 316898, Note_on_c, 0, 90, 54
1, 316898, Note_on_c, 0, 56, 37
1, 316956, Note_on_c, 0, 90, 0
1, 316956, Note_on_c, 0, 94, 0
1, 316956, Note_on_c, 0, 56, 0
1, 317014, Note_on_c, 0, 89, 47
1, 317014, Note_on_c, 0, 92, 52
1, 317014, Note_on_c, 0, 49, 44
1, 317078, Note_on_c, 0, 92, 0
1, 317078, Note_on_c, 0, 89, 0
1, 317078, Note_on_c, 0, 49, 0
1, 317142, Note_on_c, 0, 56, 39
1, 317207, Note_on_c, 0, 56, 0
1, 317271, Note_on_c, 0, 78, 60
1, 317271, Note_on_c, 0, 82, 60
1, 317271, Note_on_c, 0, 68, 39
1, 317274, Note_on_c, 0, 61, 39
1, 317289, Control_c, 0, 64, 127
1, 317333, Note_on_c, 0, 61, 0
1, 317333, Note_on_c, 0, 68, 0
1, 317395, Note_on_c, 0, 56, 39
1, 317458, Note_on_c, 0, 56, 0
1, 317520, Note_on_c, 0, 82, 0
1, 317520, Note_on_c, 0, 78, 0
1, 317520, Note_on_c, 0, 77, 59
1, 317523, Note_on_c, 0, 80, 59
1, 317523, Note_on_c, 0, 49, 44
1, 317551, Control_c, 0, 64, 0
1, 317579, Note_on_c, 0, 80, 0
1, 317579, Note_on_c, 0, 77, 0
1, 317579, Note_on_c, 0, 49, 0
1, 317638, Note_on_c, 0, 75, 53
1, 317638, Note_on_c, 0, 78, 53
1, 317638, Note_on_c, 0, 56, 36
1, 317696, Note_on_c, 0, 78, 0
1, 317696, Note_on_c, 0, 75, 0
1, 317696, Note_on_c, 0, 56, 0
1, 317755, Note_on_c, 0, 73, 53
1, 317755, Note_on_c, 0, 77, 53
1, 317755, Note_on_c, 0, 68, 36
1, 317758, Note_on_c, 0, 61, 36
1, 317814, Note_on_c, 0, 77, 0
1, 317814, Note_on_c, 0, 73, 0
1, 317814, Note_on_c, 0, 61, 0
1, 317817, Note_on_c, 0, 68, 0
1, 317873, Note_on_c, 0, 75, 53
1, 317873, Note_on_c, 0, 68, 53
1, 317873, Note_on_c, 0, 56, 37
1, 317935, Note_on_c, 0, 68, 0
1, 317935, Note_on_c, 0, 75, 0
1, 317935, Note_on_c, 0, 56, 0
1, 317997, Note_on_c, 0, 73, 55
1, 317997, Note_on_c, 0, 77, 55
1, 317997, Note_on_c, 0, 49, 40
1, 318059, Note_on_c, 0, 77, 0
1, 318059, Note_on_c, 0, 73, 0
1, 318059, Note_on_c, 0, 49, 0
1, 318122, Note_on_c, 0, 56, 35
1, 318184, Note_on_c, 0, 56, 0
1, 318246, Note_on_c, 0, 68, 50
1, 318246, Note_on_c, 0, 73, 50
1, 318246, Note_on_c, 0, 65, 35
1, 318249, Note_on_c, 0, 61, 35
1, 318305, Note_on_c, 0, 61, 0
1, 318305, Note_on_c, 0, 65, 0
1, 318364, Note_on_c, 0, 73, 0
1, 318364, Note_on_c, 0, 74, 51
1, 318364, Note_on_c, 0, 56, 35
1, 318423, Note_on_c, 0, 56, 0
1, 318481, Note_on_c, 0, 74, 0
1, 318481, Note_on_c, 0, 68, 0
1, 318481, Note_on_c, 0, 68, 55
1, 318484, Note_on_c, 0, 75, 55
1, 318484, Note_on_c, 0, 49, 40
1, 318520, Control_c, 0, 64, 127
1, 318540, Note_on_c, 0, 49, 0
1, 318599, Note_on_c, 0, 56, 36
1, 318658, Note_on_c, 0, 56, 0
1, 318717, Note_on_c, 0, 66, 36
1, 318717, Note_on_c, 0, 60, 36
1, 318775, Note_on_c, 0, 60, 0
1, 318775, Note_on_c, 0, 66, 0
1, 318834, Note_on_c, 0, 75, 0
1, 318834, Note_on_c, 0, 68, 0
1, 318834, Note_on_c, 0, 75, 50
1, 318837, Note_on_c, 0, 78, 50
1, 318837, Note_on_c, 0, 56, 37
1, 318893, Note_on_c, 0, 78, 0
1, 318893, Note_on_c, 0, 75, 0
1, 318893, Note_on_c, 0, 56, 0
1, 318952, Note_on_c, 0, 73, 55
1, 318952, Note_on_c, 0, 77, 55
1, 318952, Note_on_c, 0, 49, 40
1, 318955, Control_c, 0, 64, 0
1, 319007, Note_on_c, 0, 49, 0
1, 319007, Control_c, 0, 64, 127
1, 319062, Note_on_c, 0, 77, 0
1, 319062, Note_on_c, 0, 80, 51
1, 319062, Note_on_c, 0, 56, 35
1, 319120, Note_on_c, 0, 56, 0
1, 319178, Note_on_c, 0, 80, 0
1, 319178, Note_on_c, 0, 73, 0
1, 319178, Note_on_c, 0, 68, 51
1, 319181, Note_on_c, 0, 73, 51
1, 319181, Note_on_c, 0, 65, 35
1, 319181, Note_on_c, 0, 61, 35
1, 319195, Control_c, 0, 64, 0
1, 319237, Note_on_c, 0, 61, 0
1, 319237, Note_on_c, 0, 65, 0
1, 319295, Note_on_c, 0, 73, 0
1, 319295, Note_on_c, 0, 68, 0
1, 319295, Note_on_c, 0, 56, 35
1, 319356, Note_on_c, 0, 56, 0
1, 319416, Note_on_c, 0, 80, 57
1, 319416, Note_on_c, 0, 87, 57
1, 319416, Note_on_c, 0, 49, 40
1, 319426, Control_c, 0, 64, 127
1, 319475, Note_on_c, 0, 49, 0
1, 319533, Note_on_c, 0, 56, 36
1, 319592, Note_on_c, 0, 56, 0
1, 319650, Note_on_c, 0, 66, 36
1, 319650, Note_on_c, 0, 60, 36
1, 319708, Note_on_c, 0, 60, 0
1, 319708, Note_on_c, 0, 66, 0
1, 319767, Note_on_c, 0, 87, 0
1, 319767, Note_on_c, 0, 80, 0
1, 319767, Note_on_c, 0, 87, 52
1, 319770, Note_on_c, 0, 90, 52
1, 319770, Note_on_c, 0, 56, 37
1, 319825, Note_on_c, 0, 90, 0
1, 319825, Note_on_c, 0, 87, 0
1, 319825, Note_on_c, 0, 56, 0
1, 319883, Note_on_c, 0, 85, 57
1, 319883, Note_on_c, 0, 89, 57
1, 319883, Note_on_c, 0, 49, 40
1, 319886, Control_c, 0, 64, 0
1, 319924, Control_c, 0, 64, 127
1, 319939, Note_on_c, 0, 49, 0
1, 319995, Note_on_c, 0, 89, 0
1, 319995, Note_on_c, 0, 92, 53
1, 319995, Note_on_c, 0, 56, 35
1, 320054, Note_on_c, 0, 56, 0
1, 320112, Note_on_c, 0, 92, 0
1, 320112, Note_on_c, 0, 85, 0
1, 320112, Note_on_c, 0, 80, 53
1, 320115, Note_on_c, 0, 85, 53
1, 320115, Note_on_c, 0, 65, 35
1, 320115, Note_on_c, 0, 61, 35
1, 320146, Control_c, 0, 64, 0
1, 320171, Note_on_c, 0, 61, 0
1, 320171, Note_on_c, 0, 65, 0
1, 320230, Note_on_c, 0, 85, 0
1, 320230, Note_on_c, 0, 80, 0
1, 320230, Note_on_c, 0, 56, 35
1, 320291, Note_on_c, 0, 56, 0
1, 320352, Note_on_c, 0, 68, 55
1, 320352, Note_on_c, 0, 75, 55
1, 320352, Note_on_c, 0, 49, 40
1, 320398, Control_c, 0, 64, 127
1, 320411, Note_on_c, 0, 49, 0
1, 320469, Note_on_c, 0, 56, 36
1, 320527, Note_on_c, 0, 56, 0
1, 320586, Note_on_c, 0, 66, 36
1, 320586, Note_on_c, 0, 60, 36
1, 320644, Note_on_c, 0, 60, 0
1, 320644, Note_on_c, 0, 66, 0
1, 320702, Note_on_c, 0, 75, 0
1, 320702, Note_on_c, 0, 68, 0
1, 320702, Note_on_c, 0, 75, 50
1, 320705, Note_on_c, 0, 78, 50
1, 320705, Note_on_c, 0, 56, 37
1, 320741, Note_on_c, 0, 78, 0
1, 320741, Note_on_c, 0, 80, 50
1, 320761, Note_on_c, 0, 75, 0
1, 320761, Note_on_c, 0, 56, 0
1, 320780, Note_on_c, 0, 80, 0
1, 320780, Note_on_c, 0, 78, 50
1, 320819, Note_on_c, 0, 78, 0
1, 320819, Note_on_c, 0, 73, 55
1, 320819, Note_on_c, 0, 77, 55
1, 320822, Note_on_c, 0, 49, 40
1, 320822, Control_c, 0, 64, 0
1, 320858, Control_c, 0, 64, 127
1, 320875, Note_on_c, 0, 49, 0
1, 320932, Note_on_c, 0, 77, 0
1, 320932, Note_on_c, 0, 80, 51
1, 320932, Note_on_c, 0, 56, 35
1, 320990, Note_on_c, 0, 56, 0
1, 321049, Note_on_c, 0, 80, 0
1, 321049, Note_on_c, 0, 73, 0
1, 321049, Note_on_c, 0, 68, 51
1, 321052, Note_on_c, 0, 73, 51
1, 321052, Note_on_c, 0, 65, 35
1, 321052, Note_on_c, 0, 61, 35
1, 321089, Control_c, 0, 64, 0
1, 321108, Note_on_c, 0, 61, 0
1, 321108, Note_on_c, 0, 65, 0
1, 321167, Note_on_c, 0, 73, 0
1, 321167, Note_on_c, 0, 68, 0
1, 321167, Note_on_c, 0, 56, 35
1, 321228, Note_on_c, 0, 56, 0
1, 321289, Note_on_c, 0, 80, 57
1, 321289, Note_on_c, 0, 87, 57
1, 321289, Note_on_c, 0, 49, 40
1, 321322, Control_c, 0, 64, 127
1, 321347, Note_on_c, 0, 49, 0
1, 321404, Note_on_c, 0, 56, 36
1, 321462, Note_on_c, 0, 56, 0
1, 321520, Note_on_c, 0, 66, 36
1, 321520, Note_on_c, 0, 60, 36
1, 321578, Note_on_c, 0, 60, 0
1, 321578, Note_on_c, 0, 66, 0
1, 321636, Note_on_c, 0, 87, 0
1, 321636, Note_on_c, 0, 80, 0
1, 321636, Note_on_c, 0, 87, 52
1, 321639, Note_on_c, 0, 90, 52
1, 321639, Note_on_c, 0, 56, 37
1, 321674, Note_on_c, 0, 90, 0
1, 321674, Note_on_c, 0, 92, 52
1, 321694, Note_on_c, 0, 87, 0
1, 321694, Note_on_c, 0, 56, 0
1, 321713, Note_on_c, 0, 92, 0
1, 321713, Note_on_c, 0, 90, 52
1, 321751, Note_on_c, 0, 90, 0
1, 321751, Note_on_c, 0, 85, 57
1, 321751, Note_on_c, 0, 89, 57
1, 321754, Note_on_c, 0, 49, 40
1, 321754, Control_c, 0, 64, 0
1, 321794, Control_c, 0, 64, 127
1, 321808, Note_on_c, 0, 49, 0
1, 321864, Note_on_c, 0, 89, 0
1, 321864, Note_on_c, 0, 92, 53
1, 321864, Note_on_c, 0, 56, 35
1, 321922, Note_on_c, 0, 56, 0
1, 321980, Note_on_c, 0, 92, 0
1, 321980, Note_on_c, 0, 85, 0
1, 321980, Note_on_c, 0, 80, 53
1, 321983, Note_on_c, 0, 85, 53
1, 321983, Note_on_c, 0, 65, 35
1, 321983, Note_on_c, 0, 61, 35
1, 322037, Note_on_c, 0, 61, 0
1, 322037, Note_on_c, 0, 65, 0
1, 322095, Note_on_c, 0, 85, 0
1, 322095, Note_on_c, 0, 80, 0
1, 322095, Note_on_c, 0, 56, 35
1, 322153, Note_on_c, 0, 56, 0
1, 322211, Note_on_c, 0, 72, 48
1, 322211, Note_on_c, 0, 49, 40
1, 322225, Control_c, 0, 64, 0
1, 322270, Note_on_c, 0, 72, 0
1, 322270, Note_on_c, 0, 73, 49
1, 322270, Note_on_c, 0, 49, 0
1, 322287, Control_c, 0, 64, 127
1, 322329, Note_on_c, 0, 73, 0
1, 322329, Note_on_c, 0, 75, 50
1, 322329, Note_on_c, 0, 56, 36
1, 322388, Note_on_c, 0, 75, 0
1, 322388, Note_on_c, 0, 77, 51
1, 322388, Note_on_c, 0, 56, 0
1, 322447, Note_on_c, 0, 77, 0
1, 322447, Note_on_c, 0, 78, 52
1, 322447, Note_on_c, 0, 66, 36
1, 322450, Note_on_c, 0, 60, 36
1, 322505, Note_on_c, 0, 78, 0
1, 322505, Note_on_c, 0, 80, 52
1, 322505, Note_on_c, 0, 60, 0
1, 322508, Note_on_c, 0, 66, 0
1, 322563, Note_on_c, 0, 80, 0
1, 322563, Note_on_c, 0, 82, 53
1, 322563, Note_on_c, 0, 56, 37
1, 322620, Note_on_c, 0, 82, 0
1, 322620, Note_on_c, 0, 84, 54
1, 322620, Note_on_c, 0, 56, 0
1, 322678, Note_on_c, 0, 84, 0
1, 322678, Note_on_c, 0, 85, 56
1, 322678, Note_on_c, 0, 49, 40
1, 322735, Note_on_c, 0, 85, 0
1, 322735, Note_on_c, 0, 87, 56
1, 322735, Note_on_c, 0, 49, 0
1, 322792, Note_on_c, 0, 87, 0
1, 322792, Note_on_c, 0, 89, 56
1, 322792, Note_on_c, 0, 56, 35
1, 322849, Note_on_c, 0, 89, 0
1, 322849, Note_on_c, 0, 90, 57
1, 322849, Note_on_c, 0, 56, 0
1, 322906, Note_on_c, 0, 90, 0
1, 322906, Note_on_c, 0, 91, 57
1, 322906, Note_on_c, 0, 65, 35
1, 322909, Note_on_c, 0, 61, 35
1, 322963, Note_on_c, 0, 91, 0
1, 322963, Note_on_c, 0, 94, 58
1, 322963, Note_on_c, 0, 61, 0
1, 322966, Note_on_c, 0, 65, 0
1, 323020, Note_on_c, 0, 94, 0
1, 323020, Note_on_c, 0, 92, 58
1, 323020, Note_on_c, 0, 56, 35
1, 323077, Note_on_c, 0, 92, 0
1, 323077, Note_on_c, 0, 94, 59
1, 323077, Note_on_c, 0, 56, 0
1, 323134, Note_on_c, 0, 94, 0
1, 323134, Note_on_c, 0, 92, 58
1, 323134, Note_on_c, 0, 87, 61
1, 323137, Note_on_c, 0, 49, 40
1, 323140, Control_c, 0, 64, 0
1, 323161, Control_c, 0, 64, 127
1, 323190, Note_on_c, 0, 92, 0
1, 323190, Note_on_c, 0, 94, 52
1, 323190, Note_on_c, 0, 49, 0
1, 323247, Note_on_c, 0, 94, 0
1, 323247, Note_on_c, 0, 92, 52
1, 323247, Note_on_c, 0, 56, 36
1, 323304, Note_on_c, 0, 92, 0
1, 323304, Note_on_c, 0, 94, 52
1, 323304, Note_on_c, 0, 56, 0
1, 323361, Note_on_c, 0, 94, 0
1, 323361, Note_on_c, 0, 92, 52
1, 323361, Note_on_c, 0, 66, 36
1, 323364, Note_on_c, 0, 60, 36
1, 323418, Note_on_c, 0, 92, 0
1, 323418, Note_on_c, 0, 94, 52
1, 323418, Note_on_c, 0, 60, 0
1, 323421, Note_on_c, 0, 66, 0
1, 323476, Note_on_c, 0, 94, 0
1, 323476, Note_on_c, 0, 87, 0
1, 323476, Note_on_c, 0, 92, 52
1, 323479, Note_on_c, 0, 90, 52
1, 323479, Note_on_c, 0, 56, 37
1, 323534, Note_on_c, 0, 90, 0
1, 323534, Note_on_c, 0, 92, 0
1, 323534, Note_on_c, 0, 94, 52
1, 323537, Note_on_c, 0, 56, 0
1, 323592, Note_on_c, 0, 94, 0
1, 323592, Note_on_c, 0, 92, 58
1, 323592, Note_on_c, 0, 89, 57
1, 323595, Note_on_c, 0, 49, 40
1, 323595, Control_c, 0, 64, 0
1, 323647, Note_on_c, 0, 92, 0
1, 323647, Note_on_c, 0, 94, 52
1, 323647, Note_on_c, 0, 49, 0
1, 323647, Control_c, 0, 64, 127
1, 323701, Note_on_c, 0, 94, 0
1, 323701, Note_on_c, 0, 89, 0
1, 323701, Note_on_c, 0, 92, 53
1, 323704, Note_on_c, 0, 56, 35
1, 323760, Note_on_c, 0, 94, 52
1, 323760, Note_on_c, 0, 56, 0
1, 323818, Note_on_c, 0, 94, 0
1, 323818, Note_on_c, 0, 92, 0
1, 323818, Note_on_c, 0, 92, 58
1, 323821, Note_on_c, 0, 85, 53
1, 323821, Note_on_c, 0, 65, 35
1, 323821, Note_on_c, 0, 61, 35
1, 323876, Note_on_c, 0, 61, 0
1, 323876, Note_on_c, 0, 65, 0
1, 323935, Note_on_c, 0, 85, 0
1, 323935, Note_on_c, 0, 92, 0
1, 323935, Note_on_c, 0, 56, 35
1, 323996, Note_on_c, 0, 56, 0
1, 324056, Note_on_c, 0, 72, 48
1, 324056, Note_on_c, 0, 49, 40
1, 324070, Control_c, 0, 64, 0
1, 324115, Note_on_c, 0, 72, 0
1, 324115, Note_on_c, 0, 73, 49
1, 324115, Note_on_c, 0, 49, 0
1, 324133, Control_c, 0, 64, 127
1, 324174, Note_on_c, 0, 73, 0
1, 324174, Note_on_c, 0, 75, 50
1, 324174, Note_on_c, 0, 56, 36
1, 324233, Note_on_c, 0, 75, 0
1, 324233, Note_on_c, 0, 77, 51
1, 324233, Note_on_c, 0, 56, 0
1, 324291, Note_on_c, 0, 77, 0
1, 324291, Note_on_c, 0, 78, 52
1, 324291, Note_on_c, 0, 66, 36
1, 324294, Note_on_c, 0, 60, 36
1, 324350, Note_on_c, 0, 78, 0
1, 324350, Note_on_c, 0, 80, 52
1, 324350, Note_on_c, 0, 60, 0
1, 324353, Note_on_c, 0, 66, 0
1, 324408, Note_on_c, 0, 80, 0
1, 324408, Note_on_c, 0, 82, 53
1, 324408, Note_on_c, 0, 56, 37
1, 324465, Note_on_c, 0, 82, 0
1, 324465, Note_on_c, 0, 84, 54
1, 324465, Note_on_c, 0, 56, 0
1, 324523, Note_on_c, 0, 84, 0
1, 324523, Note_on_c, 0, 85, 56
1, 324523, Note_on_c, 0, 49, 40
1, 324580, Note_on_c, 0, 85, 0
1, 324580, Note_on_c, 0, 87, 56
1, 324580, Note_on_c, 0, 49, 0
1, 324637, Note_on_c, 0, 87, 0
1, 324637, Note_on_c, 0, 89, 56
1, 324637, Note_on_c, 0, 56, 35
1, 324694, Note_on_c, 0, 89, 0
1, 324694, Note_on_c, 0, 90, 57
1, 324694, Note_on_c, 0, 56, 0
1, 324751, Note_on_c, 0, 90, 0
1, 324751, Note_on_c, 0, 91, 57
1, 324751, Note_on_c, 0, 65, 35
1, 324754, Note_on_c, 0, 61, 35
1, 324808, Note_on_c, 0, 91, 0
1, 324808, Note_on_c, 0, 94, 58
1, 324808, Note_on_c, 0, 61, 0
1, 324811, Note_on_c, 0, 65, 0
1, 324865, Note_on_c, 0, 94, 0
1, 324865, Note_on_c, 0, 92, 58
1, 324865, Note_on_c, 0, 56, 35
1, 324922, Note_on_c, 0, 92, 0
1, 324922, Note_on_c, 0, 94, 59
1, 324922, Note_on_c, 0, 56, 0
1, 324979, Note_on_c, 0, 94, 0
1, 324979, Note_on_c, 0, 92, 58
1, 324979, Note_on_c, 0, 87, 61
1, 324982, Note_on_c, 0, 49, 40
1, 324985, Control_c, 0, 64, 0
1, 325006, Control_c, 0, 64, 127
1, 325035, Note_on_c, 0, 92, 0
1, 325035, Note_on_c, 0, 94, 52
1, 325035, Note_on_c, 0, 49, 0
1, 325092, Note_on_c, 0, 94, 0
1, 325092, Note_on_c, 0, 92, 52
1, 325092, Note_on_c, 0, 56, 36
1, 325149, Note_on_c, 0, 92, 0
1, 325149, Note_on_c, 0, 94, 52
1, 325149, Note_on_c, 0, 56, 0
1, 325206, Note_on_c, 0, 94, 0
1, 325206, Note_on_c, 0, 92, 52
1, 325206, Note_on_c, 0, 66, 36
1, 325209, Note_on_c, 0, 60, 36
1, 325263, Note_on_c, 0, 92, 0
1, 325263, Note_on_c, 0, 94, 52
1, 325263, Note_on_c, 0, 60, 0
1, 325266, Note_on_c, 0, 66, 0
1, 325321, Note_on_c, 0, 94, 0
1, 325321, Note_on_c, 0, 87, 0
1, 325321, Note_on_c, 0, 92, 52
1, 325324, Note_on_c, 0, 90, 52
1, 325324, Note_on_c, 0, 56, 37
1, 325379, Note_on_c, 0, 90, 0
1, 325379, Note_on_c, 0, 92, 0
1, 325379, Note_on_c, 0, 94, 52
1, 325382, Note_on_c, 0, 56, 0
1, 325436, Note_on_c, 0, 94, 0
1, 325436, Note_on_c, 0, 92, 58
1, 325436, Note_on_c, 0, 89, 57
1, 325439, Note_on_c, 0, 49, 40
1, 325439, Control_c, 0, 64, 0
1, 325491, Note_on_c, 0, 92, 0
1, 325491, Note_on_c, 0, 94, 52
1, 325491, Note_on_c, 0, 49, 0
1, 325495, Control_c, 0, 64, 127
1, 325546, Note_on_c, 0, 94, 0
1, 325546, Note_on_c, 0, 89, 0
1, 325546, Note_on_c, 0, 92, 53
1, 325549, Note_on_c, 0, 56, 35
1, 325605, Note_on_c, 0, 94, 52
1, 325605, Note_on_c, 0, 56, 0
1, 325663, Note_on_c, 0, 92, 58
1, 325663, Note_on_c, 0, 94, 0
1, 325663, Note_on_c, 0, 92, 0
1, 325666, Note_on_c, 0, 85, 53
1, 325666, Note_on_c, 0, 65, 35
1, 325666, Note_on_c, 0, 61, 35
1, 325721, Note_on_c, 0, 92, 0
1, 325721, Note_on_c, 0, 61, 0
1, 325721, Note_on_c, 0, 65, 0
1, 325725, Note_on_c, 0, 94, 52
1, 325780, Note_on_c, 0, 85, 0
1, 325780, Note_on_c, 0, 56, 35
1, 325784, Note_on_c, 0, 94, 0
1, 325784, Note_on_c, 0, 92, 52
1, 325841, Note_on_c, 0, 56, 0
1, 325845, Note_on_c, 0, 92, 0
1, 325845, Note_on_c, 0, 94, 52
1, 325901, Note_on_c, 0, 92, 60
1, 325901, Note_on_c, 0, 87, 64
1, 325901, Note_on_c, 0, 49, 42
1, 325905, Note_on_c, 0, 94, 0
1, 325908, Control_c, 0, 64, 0
1, 325929, Control_c, 0, 64, 127
1, 325958, Note_on_c, 0, 92, 0
1, 325958, Note_on_c, 0, 94, 54
1, 325958, Note_on_c, 0, 49, 0
1, 326014, Note_on_c, 0, 94, 0
1, 326014, Note_on_c, 0, 92, 54
1, 326014, Note_on_c, 0, 56, 37
1, 326071, Note_on_c, 0, 92, 0
1, 326071, Note_on_c, 0, 94, 54
1, 326071, Note_on_c, 0, 56, 0
1, 326128, Note_on_c, 0, 94, 0
1, 326128, Note_on_c, 0, 92, 54
1, 326128, Note_on_c, 0, 66, 37
1, 326131, Note_on_c, 0, 60, 37
1, 326186, Note_on_c, 0, 92, 0
1, 326186, Note_on_c, 0, 94, 54
1, 326186, Note_on_c, 0, 60, 0
1, 326189, Note_on_c, 0, 66, 0
1, 326243, Note_on_c, 0, 94, 0
1, 326243, Note_on_c, 0, 87, 0
1, 326243, Note_on_c, 0, 92, 54
1, 326246, Note_on_c, 0, 90, 54
1, 326246, Note_on_c, 0, 56, 38
1, 326301, Note_on_c, 0, 90, 0
1, 326301, Note_on_c, 0, 92, 0
1, 326301, Note_on_c, 0, 94, 54
1, 326304, Note_on_c, 0, 56, 0
1, 326359, Note_on_c, 0, 89, 63
1, 326359, Note_on_c, 0, 94, 0
1, 326359, Note_on_c, 0, 49, 42
1, 326362, Note_on_c, 0, 92, 60
1, 326362, Control_c, 0, 64, 0
1, 326414, Note_on_c, 0, 49, 0
1, 326414, Note_on_c, 0, 92, 0
1, 326414, Note_on_c, 0, 94, 54
1, 326417, Control_c, 0, 64, 127
1, 326469, Note_on_c, 0, 89, 0
1, 326469, Note_on_c, 0, 92, 64
1, 326469, Note_on_c, 0, 56, 36
1, 326472, Note_on_c, 0, 94, 0
1, 326472, Note_on_c, 0, 92, 60
1, 326527, Note_on_c, 0, 56, 0
1, 326527, Note_on_c, 0, 92, 0
1, 326527, Note_on_c, 0, 94, 54
1, 326586, Note_on_c, 0, 92, 0
1, 326586, Note_on_c, 0, 85, 55
1, 326586, Note_on_c, 0, 65, 36
1, 326589, Note_on_c, 0, 61, 36
1, 326589, Note_on_c, 0, 94, 0
1, 326589, Note_on_c, 0, 92, 60
1, 326644, Note_on_c, 0, 61, 0
1, 326644, Note_on_c, 0, 65, 0
1, 326644, Note_on_c, 0, 92, 0
1, 326647, Note_on_c, 0, 94, 54
1, 326702, Note_on_c, 0, 85, 0
1, 326702, Note_on_c, 0, 56, 36
1, 326702, Note_on_c, 0, 94, 0
1, 326705, Note_on_c, 0, 92, 54
1, 326763, Note_on_c, 0, 56, 0
1, 326763, Note_on_c, 0, 92, 0
1, 326763, Note_on_c, 0, 94, 54
1, 326823, Note_on_c, 0, 84, 57
1, 326823, Note_on_c, 0, 49, 42
1, 326823, Note_on_c, 0, 94, 0
1, 326826, Note_on_c, 0, 92, 60
1, 326856, Control_c, 0, 64, 0
1, 326884, Note_on_c, 0, 84, 0
1, 326884, Note_on_c, 0, 49, 0
1, 326884, Note_on_c, 0, 92, 0
1, 326887, Note_on_c, 0, 94, 54
1, 326887, Control_c, 0, 64, 127
1, 326943, Note_on_c, 0, 85, 58
1, 326943, Note_on_c, 0, 56, 37
1, 326943, Note_on_c, 0, 94, 0
1, 326946, Note_on_c, 0, 92, 60
1, 327002, Note_on_c, 0, 85, 0
1, 327002, Note_on_c, 0, 56, 0
1, 327002, Note_on_c, 0, 92, 0
1, 327005, Note_on_c, 0, 94, 54
1, 327061, Note_on_c, 0, 87, 60
1, 327061, Note_on_c, 0, 66, 37
1, 327061, Note_on_c, 0, 60, 37
1, 327064, Note_on_c, 0, 94, 0
1, 327064, Note_on_c, 0, 92, 60
1, 327119, Note_on_c, 0, 87, 0
1, 327119, Note_on_c, 0, 60, 0
1, 327119, Note_on_c, 0, 66, 0
1, 327122, Note_on_c, 0, 94, 54
1, 327122, Note_on_c, 0, 92, 0
1, 327177, Note_on_c, 0, 88, 61
1, 327177, Note_on_c, 0, 56, 38
1, 327177, Note_on_c, 0, 94, 0
1, 327180, Note_on_c, 0, 92, 54
1, 327234, Note_on_c, 0, 88, 0
1, 327234, Note_on_c, 0, 56, 0
1, 327234, Note_on_c, 0, 92, 0
1, 327237, Note_on_c, 0, 94, 54
1, 327291, Note_on_c, 0, 89, 63
1, 327291, Note_on_c, 0, 49, 42
1, 327291, Note_on_c, 0, 94, 0
1, 327294, Control_c, 0, 64, 0
1, 327294, Note_on_c, 0, 92, 60
1, 327323, Control_c, 0, 64, 127
1, 327348, Note_on_c, 0, 89, 0
1, 327348, Note_on_c, 0, 49, 0
1, 327348, Note_on_c, 0, 92, 0
1, 327351, Note_on_c, 0, 94, 54
1, 327405, Note_on_c, 0, 90, 65
1, 327405, Note_on_c, 0, 56, 36
1, 327405, Note_on_c, 0, 94, 0
1, 327408, Note_on_c, 0, 92, 60
1, 327462, Note_on_c, 0, 90, 0
1, 327462, Note_on_c, 0, 56, 0
1, 327462, Note_on_c, 0, 92, 0
1, 327465, Note_on_c, 0, 94, 54
1, 327519, Note_on_c, 0, 91, 64
1, 327519, Note_on_c, 0, 65, 36
1, 327519, Note_on_c, 0, 61, 36
1, 327522, Note_on_c, 0, 94, 0
1, 327522, Note_on_c, 0, 92, 60
1, 327576, Note_on_c, 0, 91, 0
1, 327576, Note_on_c, 0, 61, 0
1, 327576, Note_on_c, 0, 65, 0
1, 327579, Note_on_c, 0, 92, 0
1, 327579, Note_on_c, 0, 94, 54
1, 327633, Note_on_c, 0, 92, 67
1, 327633, Note_on_c, 0, 56, 36
1, 327633, Note_on_c, 0, 94, 0
1, 327636, Note_on_c, 0, 92, 54
1, 327694, Note_on_c, 0, 92, 0
1, 327694, Note_on_c, 0, 56, 0
1, 327694, Note_on_c, 0, 92, 0
1, 327697, Note_on_c, 0, 94, 54
1, 327756, Note_on_c, 0, 90, 64
1, 327756, Note_on_c, 0, 49, 42
1, 327756, Note_on_c, 0, 94, 0
1, 327759, Note_on_c, 0, 92, 60
1, 327813, Note_on_c, 0, 90, 0
1, 327813, Note_on_c, 0, 49, 0
1, 327813, Note_on_c, 0, 92, 0
1, 327816, Note_on_c, 0, 94, 54
1, 327870, Note_on_c, 0, 89, 65
1, 327870, Note_on_c, 0, 56, 37
1, 327870, Note_on_c, 0, 94, 0
1, 327873, Note_on_c, 0, 92, 60
1, 327927, Note_on_c, 0, 89, 0
1, 327927, Note_on_c, 0, 56, 0
1, 327927, Note_on_c, 0, 92, 0
1, 327930, Note_on_c, 0, 94, 54
1, 327984, Note_on_c, 0, 87, 64
1, 327984, Note_on_c, 0, 66, 37
1, 327984, Note_on_c, 0, 60, 37
1, 327987, Note_on_c, 0, 94, 0
1, 327987, Note_on_c, 0, 92, 60
1, 328041, Note_on_c, 0, 87, 0
1, 328041, Note_on_c, 0, 60, 0
1, 328041, Note_on_c, 0, 66, 0
1, 328044, Note_on_c, 0, 92, 0
1, 328044, Note_on_c, 0, 94, 54
1, 328098, Note_on_c, 0, 90, 65
1, 328098, Note_on_c, 0, 56, 38
1, 328098, Note_on_c, 0, 94, 0
1, 328101, Note_on_c, 0, 92, 54
1, 328159, Note_on_c, 0, 90, 0
1, 328159, Note_on_c, 0, 56, 0
1, 328159, Note_on_c, 0, 92, 0
1, 328162, Note_on_c, 0, 94, 54
1, 328221, Note_on_c, 0, 89, 63
1, 328221, Note_on_c, 0, 49, 42
1, 328221, Note_on_c, 0, 94, 0
1, 328224, Note_on_c, 0, 92, 60
1, 328224, Control_c, 0, 64, 0
1, 328274, Note_on_c, 0, 49, 0
1, 328274, Note_on_c, 0, 92, 0
1, 328274, Note_on_c, 0, 94, 54
1, 328278, Control_c, 0, 64, 127
1, 328328, Note_on_c, 0, 89, 0
1, 328328, Note_on_c, 0, 92, 63
1, 328328, Note_on_c, 0, 56, 36
1, 328331, Note_on_c, 0, 94, 0
1, 328331, Note_on_c, 0, 92, 60
1, 328384, Note_on_c, 0, 56, 0
1, 328384, Note_on_c, 0, 92, 0
1, 328384, Note_on_c, 0, 94, 54
1, 328440, Note_on_c, 0, 92, 0
1, 328440, Note_on_c, 0, 85, 55
1, 328440, Note_on_c, 0, 65, 36
1, 328443, Note_on_c, 0, 61, 36
1, 328443, Note_on_c, 0, 94, 0
1, 328443, Note_on_c, 0, 92, 60
1, 328497, Note_on_c, 0, 61, 0
1, 328497, Note_on_c, 0, 65, 0
1, 328497, Note_on_c, 0, 92, 0
1, 328500, Note_on_c, 0, 94, 54
1, 328553, Note_on_c, 0, 85, 0
1, 328553, Note_on_c, 0, 56, 36
1, 328553, Note_on_c, 0, 94, 0
1, 328556, Note_on_c, 0, 92, 54
1, 328614, Note_on_c, 0, 56, 0
1, 328614, Note_on_c, 0, 92, 0
1, 328614, Note_on_c, 0, 94, 54
1, 328673, Note_on_c, 0, 84, 57
1, 328673, Note_on_c, 0, 49, 42
1, 328673, Note_on_c, 0, 94, 0
1, 328676, Note_on_c, 0, 92, 60
1, 328704, Control_c, 0, 64, 0
1, 328732, Note_on_c, 0, 84, 0
1, 328732, Note_on_c, 0, 49, 0
1, 328732, Note_on_c, 0, 92, 0
1, 328735, Note_on_c, 0, 94, 54
1, 328735, Control_c, 0, 64, 127
1, 328790, Note_on_c, 0, 85, 58
1, 328790, Note_on_c, 0, 56, 37
1, 328790, Note_on_c, 0, 94, 0
1, 328793, Note_on_c, 0, 92, 60
1, 328848, Note_on_c, 0, 85, 0
1, 328848, Note_on_c, 0, 56, 0
1, 328848, Note_on_c, 0, 92, 0
1, 328851, Note_on_c, 0, 94, 54
1, 328906, Note_on_c, 0, 87, 60
1, 328906, Note_on_c, 0, 66, 37
1, 328906, Note_on_c, 0, 60, 37
1, 328909, Note_on_c, 0, 94, 0
1, 328909, Note_on_c, 0, 92, 60
1, 328963, Note_on_c, 0, 87, 0
1, 328963, Note_on_c, 0, 60, 0
1, 328963, Note_on_c, 0, 66, 0
1, 328966, Note_on_c, 0, 92, 0
1, 328966, Note_on_c, 0, 94, 55
1, 329019, Note_on_c, 0, 88, 62
1, 329019, Note_on_c, 0, 56, 38
1, 329019, Note_on_c, 0, 94, 0
1, 329022, Note_on_c, 0, 92, 55
1, 329075, Note_on_c, 0, 88, 0
1, 329075, Note_on_c, 0, 56, 0
1, 329075, Note_on_c, 0, 92, 0
1, 329078, Note_on_c, 0, 94, 55
1, 329131, Note_on_c, 0, 89, 64
1, 329131, Note_on_c, 0, 49, 43
1, 329131, Note_on_c, 0, 94, 0
1, 329134, Control_c, 0, 64, 0
1, 329134, Note_on_c, 0, 92, 61
1, 329162, Control_c, 0, 64, 127
1, 329186, Note_on_c, 0, 89, 0
1, 329186, Note_on_c, 0, 49, 0
1, 329186, Note_on_c, 0, 92, 0
1, 329189, Note_on_c, 0, 94, 56
1, 329241, Note_on_c, 0, 90, 67
1, 329241, Note_on_c, 0, 56, 37
1, 329241, Note_on_c, 0, 94, 0
1, 329244, Note_on_c, 0, 92, 62
1, 329295, Note_on_c, 0, 90, 0
1, 329295, Note_on_c, 0, 56, 0
1, 329295, Note_on_c, 0, 92, 0
1, 329298, Note_on_c, 0, 94, 56
1, 329351, Note_on_c, 0, 91, 67
1, 329351, Note_on_c, 0, 65, 37
1, 329351, Note_on_c, 0, 61, 37
1, 329354, Note_on_c, 0, 94, 0
1, 329354, Note_on_c, 0, 92, 63
1, 329407, Note_on_c, 0, 91, 0
1, 329407, Note_on_c, 0, 61, 0
1, 329407, Note_on_c, 0, 65, 0
1, 329410, Note_on_c, 0, 92, 0
1, 329410, Note_on_c, 0, 94, 57
1, 329463, Note_on_c, 0, 92, 71
1, 329463, Note_on_c, 0, 56, 38
1, 329463, Note_on_c, 0, 94, 0
1, 329466, Note_on_c, 0, 92, 57
1, 329522, Note_on_c, 0, 92, 0
1, 329522, Note_on_c, 0, 56, 0
1, 329522, Note_on_c, 0, 92, 0
1, 329525, Note_on_c, 0, 94, 57
1, 329582, Note_on_c, 0, 90, 68
1, 329582, Note_on_c, 0, 49, 44
1, 329582, Note_on_c, 0, 94, 0
1, 329585, Note_on_c, 0, 92, 64
1, 329638, Note_on_c, 0, 90, 0
1, 329638, Note_on_c, 0, 49, 0
1, 329638, Note_on_c, 0, 92, 0
1, 329641, Note_on_c, 0, 94, 58
1, 329694, Note_on_c, 0, 89, 70
1, 329694, Note_on_c, 0, 56, 39
1, 329694, Note_on_c, 0, 94, 0
1, 329697, Note_on_c, 0, 92, 64
1, 329751, Note_on_c, 0, 89, 0
1, 329751, Note_on_c, 0, 56, 0
1, 329751, Note_on_c, 0, 92, 0
1, 329754, Note_on_c, 0, 94, 58
1, 329807, Note_on_c, 0, 87, 69
1, 329807, Note_on_c, 0, 66, 40
1, 329807, Note_on_c, 0, 60, 40
1, 329810, Note_on_c, 0, 94, 0
1, 329810, Note_on_c, 0, 92, 65
1, 329863, Note_on_c, 0, 87, 0
1, 329863, Note_on_c, 0, 60, 0
1, 329863, Note_on_c, 0, 66, 0
1, 329866, Note_on_c, 0, 92, 0
1, 329866, Note_on_c, 0, 94, 59
1, 329919, Note_on_c, 0, 90, 71
1, 329919, Note_on_c, 0, 56, 41
1, 329919, Note_on_c, 0, 94, 0
1, 329922, Note_on_c, 0, 92, 59
1, 329982, Note_on_c, 0, 90, 0
1, 329982, Note_on_c, 0, 56, 0
1, 329982, Note_on_c, 0, 92, 0
1, 329985, Note_on_c, 0, 94, 59
1, 330014, Note_on_c, 0, 49, 41
1, 330046, Note_on_c, 0, 92, 61
1, 330046, Note_on_c, 0, 65, 54
1, 330046, Note_on_c, 0, 94, 0
1, 330059, Control_c, 0, 64, 0
1, 330086, Control_c, 0, 64, 127
1, 330104, Note_on_c, 0, 92, 0
1, 330104, Note_on_c, 0, 94, 56
1, 330163, Note_on_c, 0, 94, 0
1, 330163, Note_on_c, 0, 92, 62
1, 330221, Note_on_c, 0, 92, 0
1, 330221, Note_on_c, 0, 94, 56
1, 330281, Note_on_c, 0, 94, 0
1, 330281, Note_on_c, 0, 92, 63
1, 330281, Note_on_c, 0, 65, 0
1, 330284, Note_on_c, 0, 49, 0
1, 330284, Note_on_c, 0, 80, 60
1, 330284, Note_on_c, 0, 77, 60
1, 330339, Note_on_c, 0, 92, 0
1, 330339, Note_on_c, 0, 94, 57
1, 330399, Note_on_c, 0, 94, 0
1, 330399, Note_on_c, 0, 92, 60
1, 330457, Note_on_c, 0, 92, 0
1, 330457, Note_on_c, 0, 94, 52
1, 330516, Note_on_c, 0, 94, 0
1, 330516, Note_on_c, 0, 92, 59
1, 330573, Note_on_c, 0, 92, 0
1, 330573, Note_on_c, 0, 94, 51
1, 330573, Note_on_c, 0, 77, 0
1, 330576, Note_on_c, 0, 80, 0
1, 330630, Note_on_c, 0, 94, 0
1, 330630, Note_on_c, 0, 92, 59
1, 330630, Note_on_c, 0, 85, 55
1, 330633, Note_on_c, 0, 82, 55
1, 330687, Note_on_c, 0, 92, 0
1, 330687, Note_on_c, 0, 94, 51
1, 330687, Note_on_c, 0, 82, 0
1, 330690, Note_on_c, 0, 85, 0
1, 330744, Note_on_c, 0, 94, 0
1, 330744, Note_on_c, 0, 92, 59
1, 330744, Note_on_c, 0, 84, 55
1, 330747, Note_on_c, 0, 80, 55
1, 330803, Note_on_c, 0, 92, 0
1, 330803, Note_on_c, 0, 94, 51
1, 330803, Note_on_c, 0, 80, 0
1, 330806, Note_on_c, 0, 84, 0
1, 330863, Note_on_c, 0, 94, 0
1, 330863, Note_on_c, 0, 92, 56
1, 330863, Note_on_c, 0, 82, 55
1, 330866, Note_on_c, 0, 78, 55
1, 330922, Note_on_c, 0, 92, 0
1, 330922, Note_on_c, 0, 94, 52
1, 330922, Note_on_c, 0, 78, 0
1, 330925, Note_on_c, 0, 82, 0
1, 330982, Note_on_c, 0, 94, 0
1, 330982, Note_on_c, 0, 92, 61
1, 330982, Note_on_c, 0, 77, 60
1, 330985, Note_on_c, 0, 80, 60
1, 330985, Control_c, 0, 64, 0
1, 331020, Control_c, 0, 64, 127
1, 331041, Note_on_c, 0, 92, 0
1, 331041, Note_on_c, 0, 94, 56
1, 331101, Note_on_c, 0, 94, 0
1, 331101, Note_on_c, 0, 92, 62
1, 331101, Note_on_c, 0, 80, 0
1, 331104, Note_on_c, 0, 77, 0
1, 331160, Note_on_c, 0, 92, 0
1, 331160, Note_on_c, 0, 94, 56
1, 331219, Note_on_c, 0, 94, 0
1, 331219, Note_on_c, 0, 92, 59
1, 331276, Note_on_c, 0, 92, 0
1, 331276, Note_on_c, 0, 94, 53
1, 331333, Note_on_c, 0, 94, 0
1, 331333, Note_on_c, 0, 92, 58
1, 331333, Note_on_c, 0, 82, 51
1, 331336, Note_on_c, 0, 78, 51
1, 331370, Note_on_c, 0, 82, 0
1, 331370, Note_on_c, 0, 84, 51
1, 331389, Note_on_c, 0, 92, 0
1, 331389, Note_on_c, 0, 94, 52
1, 331408, Note_on_c, 0, 84, 0
1, 331408, Note_on_c, 0, 82, 51
1, 331446, Note_on_c, 0, 94, 0
1, 331446, Note_on_c, 0, 92, 59
1, 331446, Note_on_c, 0, 82, 0
1, 331449, Note_on_c, 0, 78, 0
1, 331449, Note_on_c, 0, 80, 60
1, 331449, Note_on_c, 0, 77, 60
1, 331502, Note_on_c, 0, 92, 0
1, 331502, Note_on_c, 0, 94, 53
1, 331502, Note_on_c, 0, 77, 0
1, 331505, Note_on_c, 0, 80, 0
1, 331560, Note_on_c, 0, 94, 0
1, 331560, Note_on_c, 0, 92, 60
1, 331560, Note_on_c, 0, 78, 54
1, 331563, Note_on_c, 0, 75, 54
1, 331616, Note_on_c, 0, 92, 0
1, 331616, Note_on_c, 0, 94, 53
1, 331616, Note_on_c, 0, 75, 0
1, 331619, Note_on_c, 0, 78, 0
1, 331673, Note_on_c, 0, 94, 0
1, 331673, Note_on_c, 0, 92, 60
1, 331673, Note_on_c, 0, 77, 54
1, 331676, Note_on_c, 0, 73, 54
1, 331731, Note_on_c, 0, 92, 0
1, 331731, Note_on_c, 0, 94, 53
1, 331731, Note_on_c, 0, 73, 0
1, 331734, Note_on_c, 0, 77, 0
1, 331790, Note_on_c, 0, 94, 0
1, 331790, Note_on_c, 0, 92, 60
1, 331790, Note_on_c, 0, 68, 54
1, 331793, Note_on_c, 0, 75, 54
1, 331849, Note_on_c, 0, 92, 0
1, 331849, Note_on_c, 0, 94, 53
1, 331849, Note_on_c, 0, 75, 0
1, 331852, Note_on_c, 0, 68, 0
1, 331908, Note_on_c, 0, 94, 0
1, 331908, Note_on_c, 0, 92, 61
1, 331908, Note_on_c, 0, 65, 54
1, 331911, Note_on_c, 0, 73, 54
1, 331922, Control_c, 0, 64, 0
1, 331952, Control_c, 0, 64, 127
1, 331972, Note_on_c, 0, 92, 0
1, 331972, Note_on_c, 0, 94, 56
1, 332038, Note_on_c, 0, 94, 0
1, 332038, Note_on_c, 0, 92, 62
1, 332103, Note_on_c, 0, 92, 0
1, 332103, Note_on_c, 0, 94, 56
1, 332163, Note_on_c, 0, 94, 0
1, 332163, Note_on_c, 0, 92, 63
1, 332163, Note_on_c, 0, 73, 0
1, 332166, Note_on_c, 0, 65, 0
1, 332166, Note_on_c, 0, 68, 60
1, 332166, Note_on_c, 0, 65, 60
1, 332221, Note_on_c, 0, 92, 0
1, 332221, Note_on_c, 0, 94, 57
1, 332281, Note_on_c, 0, 94, 0
1, 332281, Note_on_c, 0, 92, 60
1, 332339, Note_on_c, 0, 92, 0
1, 332339, Note_on_c, 0, 94, 52
1, 332398, Note_on_c, 0, 94, 0
1, 332398, Note_on_c, 0, 92, 67
1, 332455, Note_on_c, 0, 92, 0
1, 332455, Note_on_c, 0, 89, 51
1, 332455, Note_on_c, 0, 65, 0
1, 332458, Note_on_c, 0, 68, 0
1, 332512, Note_on_c, 0, 89, 0
1, 332512, Note_on_c, 0, 90, 65
1, 332512, Note_on_c, 0, 73, 55
1, 332515, Note_on_c, 0, 70, 55
1, 332569, Note_on_c, 0, 90, 0
1, 332569, Note_on_c, 0, 87, 51
1, 332569, Note_on_c, 0, 70, 0
1, 332572, Note_on_c, 0, 73, 0
1, 332626, Note_on_c, 0, 87, 0
1, 332626, Note_on_c, 0, 89, 65
1, 332626, Note_on_c, 0, 72, 55
1, 332629, Note_on_c, 0, 68, 55
1, 332685, Note_on_c, 0, 89, 0
1, 332685, Note_on_c, 0, 85, 51
1, 332685, Note_on_c, 0, 68, 0
1, 332688, Note_on_c, 0, 72, 0
1, 332745, Note_on_c, 0, 85, 0
1, 332745, Note_on_c, 0, 90, 64
1, 332745, Note_on_c, 0, 70, 55
1, 332748, Note_on_c, 0, 66, 55
1, 332804, Note_on_c, 0, 90, 0
1, 332804, Note_on_c, 0, 87, 52
1, 332804, Note_on_c, 0, 66, 0
1, 332807, Note_on_c, 0, 70, 0
1, 332864, Note_on_c, 0, 87, 0
1, 332864, Note_on_c, 0, 92, 61
1, 332864, Note_on_c, 0, 65, 60
1, 332867, Note_on_c, 0, 68, 60
1, 332867, Control_c, 0, 64, 0
1, 332905, Control_c, 0, 64, 127
1, 332928, Note_on_c, 0, 92, 0
1, 332928, Note_on_c, 0, 89, 56
1, 332993, Note_on_c, 0, 89, 0
1, 332993, Note_on_c, 0, 94, 62
1, 332993, Note_on_c, 0, 68, 0
1, 332996, Note_on_c, 0, 65, 0
1, 333057, Note_on_c, 0, 94, 0
1, 333057, Note_on_c, 0, 90, 56
1, 333120, Note_on_c, 0, 92, 59
1, 333120, Note_on_c, 0, 90, 0
1, 333120, Note_on_c, 0, 65, 60
1, 333120, Note_on_c, 0, 68, 60
1, 333177, Note_on_c, 0, 92, 0
1, 333177, Note_on_c, 0, 89, 53
1, 333235, Note_on_c, 0, 89, 0
1, 333238, Note_on_c, 0, 92, 58
1, 333291, Note_on_c, 0, 89, 52
1, 333294, Note_on_c, 0, 92, 0
1, 333349, Note_on_c, 0, 89, 0
1, 333349, Note_on_c, 0, 92, 59
1, 333405, Note_on_c, 0, 92, 0
1, 333405, Note_on_c, 0, 89, 53
1, 333405, Note_on_c, 0, 68, 0
1, 333408, Note_on_c, 0, 65, 0
1, 333462, Note_on_c, 0, 89, 0
1, 333462, Note_on_c, 0, 90, 60
1, 333462, Note_on_c, 0, 66, 54
1, 333465, Note_on_c, 0, 63, 54
1, 333518, Note_on_c, 0, 90, 0
1, 333518, Note_on_c, 0, 87, 53
1, 333518, Note_on_c, 0, 63, 0
1, 333521, Note_on_c, 0, 66, 0
1, 333575, Note_on_c, 0, 87, 0
1, 333575, Note_on_c, 0, 89, 60
1, 333575, Note_on_c, 0, 65, 54
1, 333578, Note_on_c, 0, 61, 54
1, 333634, Note_on_c, 0, 89, 0
1, 333634, Note_on_c, 0, 85, 53
1, 333634, Note_on_c, 0, 61, 0
1, 333637, Note_on_c, 0, 65, 0
1, 333692, Note_on_c, 0, 85, 0
1, 333692, Note_on_c, 0, 90, 60
1, 333692, Note_on_c, 0, 56, 54
1, 333695, Note_on_c, 0, 63, 54
1, 333751, Note_on_c, 0, 90, 0
1, 333751, Note_on_c, 0, 87, 53
1, 333751, Note_on_c, 0, 63, 0
1, 333754, Note_on_c, 0, 56, 0
1, 333810, Note_on_c, 0, 87, 0
1, 333810, Note_on_c, 0, 92, 61
1, 333810, Note_on_c, 0, 53, 62
1, 333813, Note_on_c, 0, 61, 62
1, 333813, Control_c, 0, 64, 0
1, 333846, Control_c, 0, 64, 127
1, 333869, Note_on_c, 0, 92, 0
1, 333869, Note_on_c, 0, 89, 56
1, 333869, Note_on_c, 0, 61, 0
1, 333872, Note_on_c, 0, 53, 0
1, 333928, Note_on_c, 0, 89, 0
1, 333928, Note_on_c, 0, 88, 58
1, 333986, Note_on_c, 0, 88, 0
1, 333986, Note_on_c, 0, 91, 51
1, 334045, Note_on_c, 0, 91, 0
1, 334045, Note_on_c, 0, 89, 54
1, 334104, Note_on_c, 0, 89, 0
1, 334104, Note_on_c, 0, 92, 46
1, 334163, Note_on_c, 0, 92, 0
1, 334163, Note_on_c, 0, 89, 54
1, 334222, Note_on_c, 0, 89, 0
1, 334222, Note_on_c, 0, 93, 48
1, 334281, Note_on_c, 0, 93, 0
1, 334281, Note_on_c, 0, 90, 55
1, 334281, Note_on_c, 0, 56, 58
1, 334284, Note_on_c, 0, 63, 58
1, 334284, Control_c, 0, 64, 0
1, 334308, Control_c, 0, 64, 127
1, 334339, Note_on_c, 0, 90, 0
1, 334339, Note_on_c, 0, 94, 50
1, 334398, Note_on_c, 0, 94, 0
1, 334398, Note_on_c, 0, 89, 56
1, 334457, Note_on_c, 0, 89, 0
1, 334457, Note_on_c, 0, 93, 50
1, 334516, Note_on_c, 0, 93, 0
1, 334516, Note_on_c, 0, 90, 56
1, 334575, Note_on_c, 0, 90, 0
1, 334575, Note_on_c, 0, 94, 49
1, 334633, Note_on_c, 0, 94, 0
1, 334633, Note_on_c, 0, 87, 56
1, 334633, Note_on_c, 0, 63, 0
1, 334636, Note_on_c, 0, 66, 53
1, 334692, Note_on_c, 0, 87, 0
1, 334692, Note_on_c, 0, 96, 49
1, 334692, Note_on_c, 0, 66, 0
1, 334751, Note_on_c, 0, 96, 0
1, 334751, Note_on_c, 0, 85, 59
1, 334751, Note_on_c, 0, 56, 0
1, 334754, Note_on_c, 0, 61, 58
1, 334754, Note_on_c, 0, 65, 61
1, 334754, Control_c, 0, 64, 0
1, 334779, Control_c, 0, 64, 127
1, 334806, Note_on_c, 0, 85, 0
1, 334806, Note_on_c, 0, 97, 53
1, 334861, Note_on_c, 0, 97, 0
1, 334861, Note_on_c, 0, 89, 58
1, 334861, Note_on_c, 0, 65, 0
1, 334864, Note_on_c, 0, 68, 55
1, 334919, Note_on_c, 0, 89, 0
1, 334919, Note_on_c, 0, 92, 48
1, 334978, Note_on_c, 0, 92, 0
1, 334978, Note_on_c, 0, 88, 55
1, 334978, Note_on_c, 0, 68, 0
1, 334981, Note_on_c, 0, 61, 0
1, 334981, Note_on_c, 0, 61, 55
1, 335036, Note_on_c, 0, 88, 0
1, 335036, Note_on_c, 0, 91, 51
1, 335094, Note_on_c, 0, 91, 0
1, 335094, Note_on_c, 0, 89, 57
1, 335094, Note_on_c, 0, 61, 0
1, 335153, Note_on_c, 0, 89, 0
1, 335153, Note_on_c, 0, 92, 51
1, 335211, Note_on_c, 0, 92, 0
1, 335211, Note_on_c, 0, 87, 55
1, 335211, Note_on_c, 0, 56, 58
1, 335214, Note_on_c, 0, 63, 58
1, 335214, Control_c, 0, 64, 0
1, 335238, Control_c, 0, 64, 127
1, 335270, Note_on_c, 0, 87, 0
1, 335270, Note_on_c, 0, 90, 50
1, 335329, Note_on_c, 0, 90, 0
1, 335329, Note_on_c, 0, 85, 56
1, 335387, Note_on_c, 0, 85, 0
1, 335387, Note_on_c, 0, 89, 50
1, 335446, Note_on_c, 0, 89, 0
1, 335446, Note_on_c, 0, 84, 56
1, 335505, Note_on_c, 0, 84, 0
1, 335505, Note_on_c, 0, 87, 49
1, 335564, Note_on_c, 0, 87, 0
1, 335564, Note_on_c, 0, 80, 56
1, 335564, Note_on_c, 0, 63, 0
1, 335567, Note_on_c, 0, 66, 53
1, 335623, Note_on_c, 0, 80, 0
1, 335623, Note_on_c, 0, 92, 49
1, 335623, Note_on_c, 0, 66, 0
1, 335681, Note_on_c, 0, 92, 0
1, 335681, Note_on_c, 0, 85, 59
1, 335681, Note_on_c, 0, 56, 0
1, 335684, Note_on_c, 0, 61, 58
1, 335684, Note_on_c, 0, 65, 61
1, 335684, Control_c, 0, 64, 0
1, 335710, Control_c, 0, 64, 127
1, 335736, Note_on_c, 0, 85, 0
1, 335736, Note_on_c, 0, 89, 53
1, 335791, Note_on_c, 0, 89, 0
1, 335791, Note_on_c, 0, 80, 58
1, 335791, Note_on_c, 0, 65, 0
1, 335794, Note_on_c, 0, 68, 55
1, 335850, Note_on_c, 0, 80, 0
1, 335850, Note_on_c, 0, 87, 48
1, 335908, Note_on_c, 0, 87, 0
1, 335908, Note_on_c, 0, 77, 55
1, 335908, Note_on_c, 0, 68, 0
1, 335911, Note_on_c, 0, 61, 0
1, 335911, Note_on_c, 0, 61, 55
1, 335966, Note_on_c, 0, 77, 0
1, 335966, Note_on_c, 0, 85, 51
1, 336025, Note_on_c, 0, 85, 0
1, 336025, Note_on_c, 0, 89, 57
1, 336025, Note_on_c, 0, 61, 0
1, 336083, Note_on_c, 0, 89, 0
1, 336083, Note_on_c, 0, 92, 51
1, 336141, Note_on_c, 0, 92, 0
1, 336141, Note_on_c, 0, 90, 55
1, 336141, Note_on_c, 0, 56, 63
1, 336144, Note_on_c, 0, 63, 63
1, 336144, Control_c, 0, 64, 0
1, 336169, Control_c, 0, 64, 127
1, 336200, Note_on_c, 0, 90, 0
1, 336200, Note_on_c, 0, 94, 50
1, 336259, Note_on_c, 0, 94, 0
1, 336259, Note_on_c, 0, 89, 56
1, 336318, Note_on_c, 0, 89, 0
1, 336318, Note_on_c, 0, 93, 50
1, 336377, Note_on_c, 0, 93, 0
1, 336377, Note_on_c, 0, 90, 56
1, 336435, Note_on_c, 0, 90, 0
1, 336435, Note_on_c, 0, 94, 49
1, 336494, Note_on_c, 0, 94, 0
1, 336494, Note_on_c, 0, 87, 56
1, 336494, Note_on_c, 0, 63, 0
1, 336497, Note_on_c, 0, 66, 58
1, 336553, Note_on_c, 0, 87, 0
1, 336553, Note_on_c, 0, 96, 49
1, 336553, Note_on_c, 0, 66, 0
1, 336612, Note_on_c, 0, 96, 0
1, 336612, Note_on_c, 0, 85, 59
1, 336612, Note_on_c, 0, 56, 0
1, 336615, Note_on_c, 0, 61, 63
1, 336615, Note_on_c, 0, 65, 67
1, 336615, Control_c, 0, 64, 0
1, 336640, Control_c, 0, 64, 127
1, 336667, Note_on_c, 0, 85, 0
1, 336667, Note_on_c, 0, 97, 53
1, 336722, Note_on_c, 0, 97, 0
1, 336722, Note_on_c, 0, 89, 58
1, 336722, Note_on_c, 0, 65, 0
1, 336725, Note_on_c, 0, 68, 60
1, 336780, Note_on_c, 0, 89, 0
1, 336780, Note_on_c, 0, 92, 48
1, 336838, Note_on_c, 0, 92, 0
1, 336838, Note_on_c, 0, 88, 55
1, 336838, Note_on_c, 0, 68, 0
1, 336841, Note_on_c, 0, 61, 0
1, 336841, Note_on_c, 0, 61, 60
1, 336897, Note_on_c, 0, 88, 0
1, 336897, Note_on_c, 0, 91, 51
1, 336955, Note_on_c, 0, 91, 0
1, 336955, Note_on_c, 0, 89, 57
1, 336955, Note_on_c, 0, 61, 0
1, 337013, Note_on_c, 0, 89, 0
1, 337013, Note_on_c, 0, 92, 51
1, 337072, Note_on_c, 0, 92, 0
1, 337072, Note_on_c, 0, 87, 60
1, 337072, Note_on_c, 0, 48, 50
1, 337082, Control_c, 0, 64, 0
1, 337115, Control_c, 0, 64, 127
1, 337130, Note_on_c, 0, 87, 0
1, 337130, Note_on_c, 0, 90, 55
1, 337130, Note_on_c, 0, 48, 0
1, 337133, Note_on_c, 0, 49, 51
1, 337188, Note_on_c, 0, 90, 0
1, 337188, Note_on_c, 0, 85, 60
1, 337188, Note_on_c, 0, 49, 0
1, 337191, Note_on_c, 0, 51, 52
1, 337246, Note_on_c, 0, 85, 0
1, 337246, Note_on_c, 0, 89, 56
1, 337246, Note_on_c, 0, 51, 0
1, 337249, Note_on_c, 0, 53, 53
1, 337304, Note_on_c, 0, 89, 0
1, 337304, Note_on_c, 0, 84, 61
1, 337304, Note_on_c, 0, 53, 0
1, 337307, Note_on_c, 0, 54, 54
1, 337362, Note_on_c, 0, 84, 0
1, 337362, Note_on_c, 0, 87, 56
1, 337362, Note_on_c, 0, 54, 0
1, 337365, Note_on_c, 0, 56, 55
1, 337419, Note_on_c, 0, 87, 0
1, 337419, Note_on_c, 0, 80, 61
1, 337419, Note_on_c, 0, 56, 0
1, 337422, Note_on_c, 0, 58, 57
1, 337477, Note_on_c, 0, 80, 0
1, 337477, Note_on_c, 0, 92, 58
1, 337477, Note_on_c, 0, 58, 0
1, 337480, Note_on_c, 0, 60, 58
1, 337534, Note_on_c, 0, 92, 0
1, 337534, Note_on_c, 0, 85, 62
1, 337534, Note_on_c, 0, 60, 0
1, 337537, Note_on_c, 0, 61, 59
1, 337591, Note_on_c, 0, 85, 0
1, 337591, Note_on_c, 0, 89, 58
1, 337591, Note_on_c, 0, 61, 0
1, 337594, Note_on_c, 0, 63, 60
1, 337648, Note_on_c, 0, 89, 0
1, 337648, Note_on_c, 0, 80, 62
1, 337648, Note_on_c, 0, 63, 0
1, 337651, Note_on_c, 0, 65, 61
1, 337704, Note_on_c, 0, 80, 0
1, 337704, Note_on_c, 0, 87, 59
1, 337704, Note_on_c, 0, 65, 0
1, 337707, Note_on_c, 0, 66, 62
1, 337761, Note_on_c, 0, 87, 0
1, 337761, Note_on_c, 0, 77, 59
1, 337761, Note_on_c, 0, 66, 0
1, 337764, Note_on_c, 0, 68, 63
1, 337817, Note_on_c, 0, 77, 0
1, 337817, Note_on_c, 0, 85, 62
1, 337873, Note_on_c, 0, 85, 0
1, 337873, Note_on_c, 0, 89, 64
1, 337873, Note_on_c, 0, 68, 0
1, 337940, Note_on_c, 0, 89, 0
1, 337940, Note_on_c, 0, 92, 67
1, 338006, Note_on_c, 0, 92, 0
1, 338006, Note_on_c, 0, 87, 64
1, 338006, Note_on_c, 0, 60, 56
1, 338020, Control_c, 0, 64, 0
1, 338060, Control_c, 0, 64, 127
1, 338064, Note_on_c, 0, 87, 0
1, 338064, Note_on_c, 0, 90, 58
1, 338064, Note_on_c, 0, 60, 0
1, 338067, Note_on_c, 0, 61, 57
1, 338121, Note_on_c, 0, 90, 0
1, 338121, Note_on_c, 0, 85, 64
1, 338121, Note_on_c, 0, 61, 0
1, 338124, Note_on_c, 0, 63, 59
1, 338179, Note_on_c, 0, 85, 0
1, 338179, Note_on_c, 0, 89, 60
1, 338179, Note_on_c, 0, 63, 0
1, 338182, Note_on_c, 0, 65, 60
1, 338236, Note_on_c, 0, 89, 0
1, 338236, Note_on_c, 0, 84, 61
1, 338236, Note_on_c, 0, 65, 0
1, 338239, Note_on_c, 0, 66, 61
1, 338293, Note_on_c, 0, 84, 0
1, 338293, Note_on_c, 0, 87, 64
1, 338293, Note_on_c, 0, 66, 0
1, 338296, Note_on_c, 0, 68, 63
1, 338350, Note_on_c, 0, 87, 0
1, 338350, Note_on_c, 0, 80, 67
1, 338350, Note_on_c, 0, 68, 0
1, 338353, Note_on_c, 0, 70, 64
1, 338406, Note_on_c, 0, 80, 0
1, 338406, Note_on_c, 0, 92, 67
1, 338406, Note_on_c, 0, 70, 0
1, 338409, Note_on_c, 0, 72, 65
1, 338463, Note_on_c, 0, 92, 0
1, 338463, Note_on_c, 0, 85, 66
1, 338463, Note_on_c, 0, 72, 0
1, 338466, Note_on_c, 0, 73, 67
1, 338519, Note_on_c, 0, 85, 0
1, 338519, Note_on_c, 0, 89, 61
1, 338519, Note_on_c, 0, 73, 0
1, 338522, Note_on_c, 0, 75, 68
1, 338575, Note_on_c, 0, 89, 0
1, 338575, Note_on_c, 0, 84, 66
1, 338575, Note_on_c, 0, 75, 0
1, 338578, Note_on_c, 0, 77, 69
1, 338631, Note_on_c, 0, 84, 0
1, 338631, Note_on_c, 0, 87, 63
1, 338631, Note_on_c, 0, 77, 0
1, 338634, Note_on_c, 0, 78, 71
1, 338687, Note_on_c, 0, 87, 0
1, 338687, Note_on_c, 0, 85, 67
1, 338687, Note_on_c, 0, 78, 0
1, 338690, Note_on_c, 0, 80, 72
1, 338743, Note_on_c, 0, 85, 0
1, 338743, Note_on_c, 0, 89, 62
1, 338798, Note_on_c, 0, 89, 0
1, 338798, Note_on_c, 0, 80, 67
1, 338798, Note_on_c, 0, 80, 0
1, 338864, Note_on_c, 0, 80, 0
1, 338864, Note_on_c, 0, 92, 63
1, 338928, Note_on_c, 0, 92, 0
1, 338928, Note_on_c, 0, 92, 68
1, 338928, Note_on_c, 0, 53, 61
1, 338936, Control_c, 0, 64, 0
1, 338966, Control_c, 0, 64, 127
1, 338985, Note_on_c, 0, 92, 0
1, 338985, Note_on_c, 0, 95, 64
1, 338985, Note_on_c, 0, 53, 0
1, 338988, Note_on_c, 0, 54, 62
1, 339042, Note_on_c, 0, 95, 0
1, 339042, Note_on_c, 0, 90, 68
1, 339042, Note_on_c, 0, 54, 0
1, 339045, Note_on_c, 0, 56, 64
1, 339099, Note_on_c, 0, 90, 0
1, 339099, Note_on_c, 0, 94, 64
1, 339099, Note_on_c, 0, 56, 0
1, 339102, Note_on_c, 0, 58, 65
1, 339155, Note_on_c, 0, 94, 0
1, 339155, Note_on_c, 0, 89, 69
1, 339155, Note_on_c, 0, 58, 0
1, 339158, Note_on_c, 0, 59, 66
1, 339212, Note_on_c, 0, 89, 0
1, 339212, Note_on_c, 0, 92, 65
1, 339212, Note_on_c, 0, 59, 0
1, 339215, Note_on_c, 0, 61, 67
1, 339268, Note_on_c, 0, 92, 0
1, 339268, Note_on_c, 0, 85, 69
1, 339268, Note_on_c, 0, 61, 0
1, 339271, Note_on_c, 0, 63, 69
1, 339325, Note_on_c, 0, 85, 0
1, 339325, Note_on_c, 0, 97, 73
1, 339325, Note_on_c, 0, 63, 0
1, 339328, Note_on_c, 0, 65, 70
1, 339381, Note_on_c, 0, 97, 0
1, 339381, Note_on_c, 0, 90, 70
1, 339381, Note_on_c, 0, 65, 0
1, 339384, Note_on_c, 0, 66, 72
1, 339436, Note_on_c, 0, 90, 0
1, 339436, Note_on_c, 0, 94, 67
1, 339436, Note_on_c, 0, 66, 0
1, 339439, Note_on_c, 0, 68, 73
1, 339492, Note_on_c, 0, 94, 0
1, 339492, Note_on_c, 0, 85, 71
1, 339492, Note_on_c, 0, 68, 0
1, 339495, Note_on_c, 0, 70, 74
1, 339548, Note_on_c, 0, 85, 0
1, 339548, Note_on_c, 0, 92, 67
1, 339548, Note_on_c, 0, 70, 0
1, 339551, Note_on_c, 0, 71, 76
1, 339603, Note_on_c, 0, 92, 0
1, 339603, Note_on_c, 0, 82, 67
1, 339603, Note_on_c, 0, 71, 0
1, 339606, Note_on_c, 0, 73, 77
1, 339658, Note_on_c, 0, 82, 0
1, 339658, Note_on_c, 0, 90, 70
1, 339714, Note_on_c, 0, 90, 0
1, 339714, Note_on_c, 0, 94, 72
1, 339714, Note_on_c, 0, 73, 0
1, 339776, Note_on_c, 0, 94, 0
1, 339776, Note_on_c, 0, 97, 75
1, 339839, Note_on_c, 0, 97, 0
1, 339839, Note_on_c, 0, 92, 72
1, 339839, Note_on_c, 0, 65, 67
1, 339863, Control_c, 0, 64, 0
1, 339897, Note_on_c, 0, 92, 0
1, 339897, Note_on_c, 0, 95, 67
1, 339897, Note_on_c, 0, 65, 0
1, 339900, Note_on_c, 0, 66, 69
1, 339900, Control_c, 0, 64, 127
1, 339955, Note_on_c, 0, 95, 0
1, 339955, Note_on_c, 0, 90, 73
1, 339955, Note_on_c, 0, 66, 0
1, 339958, Note_on_c, 0, 68, 70
1, 340012, Note_on_c, 0, 90, 0
1, 340012, Note_on_c, 0, 94, 67
1, 340012, Note_on_c, 0, 68, 0
1, 340015, Note_on_c, 0, 70, 72
1, 340070, Note_on_c, 0, 94, 0
1, 340070, Note_on_c, 0, 89, 73
1, 340070, Note_on_c, 0, 70, 0
1, 340073, Note_on_c, 0, 71, 73
1, 340127, Note_on_c, 0, 89, 0
1, 340127, Note_on_c, 0, 92, 70
1, 340127, Note_on_c, 0, 71, 0
1, 340130, Note_on_c, 0, 73, 75
1, 340184, Note_on_c, 0, 92, 0
1, 340184, Note_on_c, 0, 85, 74
1, 340184, Note_on_c, 0, 73, 0
1, 340187, Note_on_c, 0, 75, 77
1, 340241, Note_on_c, 0, 85, 0
1, 340241, Note_on_c, 0, 97, 70
1, 340241, Note_on_c, 0, 75, 0
1, 340244, Note_on_c, 0, 77, 78
1, 340298, Note_on_c, 0, 97, 0
1, 340298, Note_on_c, 0, 90, 74
1, 340298, Note_on_c, 0, 77, 0
1, 340301, Note_on_c, 0, 78, 80
1, 340354, Note_on_c, 0, 90, 0
1, 340354, Note_on_c, 0, 92, 70
1, 340354, Note_on_c, 0, 78, 0
1, 340357, Note_on_c, 0, 80, 81
1, 340411, Note_on_c, 0, 92, 0
1, 340411, Note_on_c, 0, 89, 75
1, 340411, Note_on_c, 0, 80, 0
1, 340414, Note_on_c, 0, 82, 83
1, 340467, Note_on_c, 0, 89, 0
1, 340467, Note_on_c, 0, 92, 70
1, 340467, Note_on_c, 0, 82, 0
1, 340470, Note_on_c, 0, 84, 85
1, 340523, Note_on_c, 0, 92, 0
1, 340523, Note_on_c, 0, 90, 75
1, 340523, Note_on_c, 0, 84, 0
1, 340526, Note_on_c, 0, 85, 86
1, 340579, Note_on_c, 0, 90, 0
1, 340579, Note_on_c, 0, 94, 72
1, 340634, Note_on_c, 0, 94, 0
1, 340634, Note_on_c, 0, 85, 76
1, 340634, Note_on_c, 0, 85, 0
1, 340699, Note_on_c, 0, 85, 0
1, 340699, Note_on_c, 0, 97, 72
1, 340763, Note_on_c, 0, 97, 0
1, 340763, Note_on_c, 0, 48, 88
1, 340763, Note_on_c, 0, 36, 64
1, 340766, Note_on_c, 0, 44, 64
1, 340766, Note_on_c, 0, 42, 64
1, 340780, Control_c, 0, 64, 0
1, 340821, Note_on_c, 0, 49, 67
1, 340828, Control_c, 0, 64, 127
1, 340879, Note_on_c, 0, 49, 0
1, 340879, Note_on_c, 0, 51, 68
1, 340937, Note_on_c, 0, 51, 0
1, 340937, Note_on_c, 0, 53, 70
1, 340995, Note_on_c, 0, 53, 0
1, 340995, Note_on_c, 0, 54, 71
1, 340995, Note_on_c, 0, 42, 0
1, 340998, Note_on_c, 0, 48, 0
1, 340998, Note_on_c, 0, 36, 0
1, 340998, Note_on_c, 0, 44, 0
1, 341001, Note_on_c, 0, 51, 78
1, 341001, Note_on_c, 0, 39, 57
1, 341001, Note_on_c, 0, 44, 57
1, 341004, Note_on_c, 0, 42, 57
1, 341056, Note_on_c, 0, 54, 0
1, 341056, Note_on_c, 0, 56, 72
1, 341116, Note_on_c, 0, 56, 0
1, 341116, Note_on_c, 0, 58, 74
1, 341177, Note_on_c, 0, 58, 0
1, 341177, Note_on_c, 0, 60, 75
1, 341238, Note_on_c, 0, 60, 0
1, 341238, Note_on_c, 0, 61, 75
1, 341238, Note_on_c, 0, 42, 0
1, 341241, Note_on_c, 0, 51, 0
1, 341241, Note_on_c, 0, 39, 0
1, 341241, Note_on_c, 0, 44, 0
1, 341244, Note_on_c, 0, 51, 85
1, 341244, Note_on_c, 0, 39, 63
1, 341244, Note_on_c, 0, 41, 63
1, 341247, Note_on_c, 0, 44, 63
1, 341247, Control_c, 0, 64, 0
1, 341273, Control_c, 0, 64, 127
1, 341294, Note_on_c, 0, 61, 0
1, 341294, Note_on_c, 0, 65, 76
1, 341351, Note_on_c, 0, 65, 0
1, 341351, Note_on_c, 0, 68, 78
1, 341407, Note_on_c, 0, 68, 0
1, 341407, Note_on_c, 0, 73, 79
1, 341464, Note_on_c, 0, 73, 0
1, 341464, Note_on_c, 0, 77, 80
1, 341464, Note_on_c, 0, 44, 0
1, 341467, Note_on_c, 0, 51, 0
1, 341467, Note_on_c, 0, 39, 0
1, 341467, Note_on_c, 0, 41, 0
1, 341470, Note_on_c, 0, 49, 78
1, 341470, Note_on_c, 0, 37, 57
1, 341470, Note_on_c, 0, 41, 57
1, 341473, Note_on_c, 0, 44, 57
1, 341526, Note_on_c, 0, 77, 0
1, 341526, Note_on_c, 0, 80, 82
1, 341587, Note_on_c, 0, 80, 0
1, 341587, Note_on_c, 0, 85, 83
1, 341649, Note_on_c, 0, 85, 0
1, 341649, Note_on_c, 0, 89, 85
1, 341711, Note_on_c, 0, 89, 0
1, 341711, Note_on_c, 0, 44, 0
1, 341711, Note_on_c, 0, 49, 0
1, 341714, Note_on_c, 0, 37, 0
1, 341714, Note_on_c, 0, 41, 0
1, 341714, Note_on_c, 0, 53, 86
1, 341717, Note_on_c, 0, 41, 64
1, 341717, Note_on_c, 0, 47, 64
1, 341717, Note_on_c, 0, 49, 64
1, 341723, Control_c, 0, 64, 0
1, 341753, Control_c, 0, 64, 127
1, 341769, Note_on_c, 0, 54, 75
1, 341828, Note_on_c, 0, 54, 0
1, 341828, Note_on_c, 0, 56, 76
1, 341886, Note_on_c, 0, 56, 0
1, 341886, Note_on_c, 0, 58, 78
1, 341944, Note_on_c, 0, 58, 0
1, 341944, Note_on_c, 0, 59, 79
1, 341944, Note_on_c, 0, 49, 0
1, 341947, Note_on_c, 0, 53, 0
1, 341947, Note_on_c, 0, 41, 0
1, 341947, Note_on_c, 0, 47, 0
1, 341950, Note_on_c, 0, 56, 78
1, 341950, Note_on_c, 0, 44, 57
1, 341950, Note_on_c, 0, 47, 57
1, 341953, Note_on_c, 0, 49, 57
1, 342008, Note_on_c, 0, 59, 0
1, 342008, Note_on_c, 0, 61, 80
1, 342071, Note_on_c, 0, 61, 0
1, 342071, Note_on_c, 0, 63, 81
1, 342134, Note_on_c, 0, 63, 0
1, 342134, Note_on_c, 0, 65, 82
1, 342197, Note_on_c, 0, 65, 0
1, 342197, Note_on_c, 0, 66, 83
1, 342197, Note_on_c, 0, 49, 0
1, 342200, Note_on_c, 0, 56, 0
1, 342200, Note_on_c, 0, 44, 0
1, 342200, Note_on_c, 0, 47, 0
1, 342203, Note_on_c, 0, 56, 86
1, 342203, Note_on_c, 0, 44, 64
1, 342203, Note_on_c, 0, 46, 64
1, 342206, Note_on_c, 0, 49, 64
1, 342206, Control_c, 0, 64, 0
1, 342243, Control_c, 0, 64, 127
1, 342257, Note_on_c, 0, 66, 0
1, 342257, Note_on_c, 0, 70, 84
1, 342317, Note_on_c, 0, 70, 0
1, 342317, Note_on_c, 0, 73, 86
1, 342377, Note_on_c, 0, 73, 0
1, 342377, Note_on_c, 0, 78, 88
1, 342436, Note_on_c, 0, 78, 0
1, 342436, Note_on_c, 0, 82, 90
1, 342436, Note_on_c, 0, 49, 0
1, 342439, Note_on_c, 0, 56, 0
1, 342439, Note_on_c, 0, 44, 0
1, 342439, Note_on_c, 0, 46, 0
1, 342442, Note_on_c, 0, 54, 81
1, 342442, Note_on_c, 0, 42, 59
1, 342442, Note_on_c, 0, 46, 59
1, 342445, Note_on_c, 0, 49, 59
1, 342499, Note_on_c, 0, 82, 0
1, 342499, Note_on_c, 0, 85, 92
1, 342562, Note_on_c, 0, 85, 0
1, 342562, Note_on_c, 0, 90, 94
1, 342625, Note_on_c, 0, 90, 0
1, 342625, Note_on_c, 0, 92, 95
1, 342687, Note_on_c, 0, 92, 0
1, 342687, Note_on_c, 0, 82, 97
1, 342687, Note_on_c, 0, 94, 97
1, 342690, Note_on_c, 0, 49, 0
1, 342690, Note_on_c, 0, 54, 0
1, 342690, Note_on_c, 0, 42, 0
1, 342693, Note_on_c, 0, 46, 0
1, 342693, Note_on_c, 0, 30, 71
1, 342693, Note_on_c, 0, 42, 98
1, 342696, Control_c, 0, 64, 0
1, 342744, Control_c, 0, 64, 127
1, 342751, Note_on_c, 0, 94, 0
1, 342751, Note_on_c, 0, 82, 0
1, 342815, Note_on_c, 0, 90, 91
1, 342879, Note_on_c, 0, 90, 0
1, 342879, Note_on_c, 0, 92, 94
1, 342943, Note_on_c, 0, 92, 0
1, 342943, Note_on_c, 0, 94, 97
1, 342943, Note_on_c, 0, 82, 97
1, 342946, Note_on_c, 0, 42, 0
1, 342946, Note_on_c, 0, 30, 0
1, 342946, Note_on_c, 0, 70, 93
1, 342949, Note_on_c, 0, 58, 69
1, 342949, Note_on_c, 0, 61, 69
1, 342949, Note_on_c, 0, 66, 69
1, 343006, Note_on_c, 0, 82, 0
1, 343006, Note_on_c, 0, 94, 0
1, 343006, Note_on_c, 0, 66, 0
1, 343009, Note_on_c, 0, 70, 0
1, 343009, Note_on_c, 0, 58, 0
1, 343009, Note_on_c, 0, 61, 0
1, 343070, Note_on_c, 0, 90, 88
1, 343070, Note_on_c, 0, 82, 88
1, 343070, Note_on_c, 0, 70, 88
1, 343073, Note_on_c, 0, 58, 66
1, 343073, Note_on_c, 0, 61, 66
1, 343073, Note_on_c, 0, 66, 66
1, 343134, Note_on_c, 0, 82, 0
1, 343134, Note_on_c, 0, 90, 0
1, 343134, Note_on_c, 0, 66, 0
1, 343137, Note_on_c, 0, 70, 0
1, 343137, Note_on_c, 0, 58, 0
1, 343137, Note_on_c, 0, 61, 0
1, 343198, Note_on_c, 0, 94, 94
1, 343198, Note_on_c, 0, 82, 94
1, 343198, Note_on_c, 0, 70, 95
1, 343201, Note_on_c, 0, 58, 71
1, 343201, Note_on_c, 0, 61, 71
1, 343201, Note_on_c, 0, 66, 71
1, 343265, Note_on_c, 0, 82, 0
1, 343265, Note_on_c, 0, 94, 0
1, 343265, Note_on_c, 0, 92, 89
1, 343331, Note_on_c, 0, 92, 0
1, 343331, Note_on_c, 0, 90, 89
1, 343331, Note_on_c, 0, 66, 0
1, 343334, Note_on_c, 0, 70, 0
1, 343334, Note_on_c, 0, 58, 0
1, 343334, Note_on_c, 0, 61, 0
1, 343398, Note_on_c, 0, 90, 0
1, 343465, Note_on_c, 0, 66, 88
1, 343465, Note_on_c, 0, 61, 74
1, 343465, Note_on_c, 0, 54, 81
1, 343468, Note_on_c, 0, 42, 69
1, 343468, Note_on_c, 0, 49, 69
1, 343475, Control_c, 0, 64, 0
1, 343528, Note_on_c, 0, 61, 0
1, 343528, Note_on_c, 0, 66, 0
1, 343528, Note_on_c, 0, 49, 0
1, 343531, Note_on_c, 0, 42, 0
1, 343531, Note_on_c, 0, 54, 0
1, 343592, Note_on_c, 0, 65, 81
1, 343592, Note_on_c, 0, 61, 69
1, 343592, Note_on_c, 0, 53, 73
1, 343595, Note_on_c, 0, 41, 61
1, 343595, Note_on_c, 0, 49, 61
1, 343656, Note_on_c, 0, 61, 0
1, 343656, Note_on_c, 0, 65, 0
1, 343656, Note_on_c, 0, 49, 0
1, 343659, Note_on_c, 0, 41, 0
1, 343659, Note_on_c, 0, 53, 0
1, 343720, Note_on_c, 0, 65, 89
1, 343720, Note_on_c, 0, 61, 75
1, 343720, Note_on_c, 0, 53, 80
1, 343723, Note_on_c, 0, 41, 67
1, 343723, Note_on_c, 0, 49, 67
1, 343754, Control_c, 0, 64, 127
1, 344103, Note_on_c, 0, 61, 0
1, 344103, Note_on_c, 0, 65, 0
1, 344103, Note_on_c, 0, 87, 90
1, 344106, Note_on_c, 0, 49, 0
1, 344106, Note_on_c, 0, 41, 0
1, 344106, Note_on_c, 0, 53, 0
1, 344109, Control_c, 0, 64, 0
1, 344165, Note_on_c, 0, 87, 0
1, 344165, Note_on_c, 0, 89, 91
1, 344228, Note_on_c, 0, 89, 0
1, 344228, Note_on_c, 0, 78, 93
1, 344228, Note_on_c, 0, 90, 93
1, 344231, Note_on_c, 0, 39, 68
1, 344231, Note_on_c, 0, 51, 94
1, 344281, Control_c, 0, 64, 127
1, 344288, Note_on_c, 0, 90, 0
1, 344288, Note_on_c, 0, 78, 0
1, 344349, Note_on_c, 0, 87, 87
1, 344409, Note_on_c, 0, 87, 0
1, 344409, Note_on_c, 0, 89, 90
1, 344469, Note_on_c, 0, 89, 0
1, 344469, Note_on_c, 0, 90, 93
1, 344469, Note_on_c, 0, 78, 93
1, 344472, Note_on_c, 0, 51, 0
1, 344472, Note_on_c, 0, 39, 0
1, 344472, Note_on_c, 0, 66, 89
1, 344475, Note_on_c, 0, 54, 66
1, 344475, Note_on_c, 0, 58, 66
1, 344475, Note_on_c, 0, 63, 66
1, 344529, Note_on_c, 0, 78, 0
1, 344529, Note_on_c, 0, 90, 0
1, 344529, Note_on_c, 0, 63, 0
1, 344532, Note_on_c, 0, 66, 0
1, 344532, Note_on_c, 0, 54, 0
1, 344532, Note_on_c, 0, 58, 0
1, 344590, Note_on_c, 0, 87, 84
1, 344590, Note_on_c, 0, 78, 84
1, 344590, Note_on_c, 0, 66, 84
1, 344593, Note_on_c, 0, 54, 63
1, 344593, Note_on_c, 0, 58, 63
1, 344593, Note_on_c, 0, 63, 63
1, 344650, Note_on_c, 0, 78, 0
1, 344650, Note_on_c, 0, 87, 0
1, 344650, Note_on_c, 0, 63, 0
1, 344653, Note_on_c, 0, 66, 0
1, 344653, Note_on_c, 0, 54, 0
1, 344653, Note_on_c, 0, 58, 0
1, 344710, Note_on_c, 0, 90, 90
1, 344710, Note_on_c, 0, 78, 90
1, 344710, Note_on_c, 0, 66, 91
1, 344713, Note_on_c, 0, 54, 68
1, 344713, Note_on_c, 0, 58, 68
1, 344713, Note_on_c, 0, 63, 68
1, 344770, Note_on_c, 0, 78, 0
1, 344770, Note_on_c, 0, 90, 0
1, 344770, Note_on_c, 0, 89, 83
1, 344830, Note_on_c, 0, 89, 0
1, 344830, Note_on_c, 0, 87, 83
1, 344830, Note_on_c, 0, 63, 0
1, 344833, Note_on_c, 0, 66, 0
1, 344833, Note_on_c, 0, 54, 0
1, 344833, Note_on_c, 0, 58, 0
1, 344891, Note_on_c, 0, 87, 0
1, 344891, Note_on_c, 0, 86, 83
1, 344951, Note_on_c, 0, 86, 0
1, 344951, Note_on_c, 0, 87, 90
1, 344995, Control_c, 0, 64, 0
1, 345045, Note_on_c, 0, 87, 0
1, 345140, Note_on_c, 0, 66, 63
1, 345140, Note_on_c, 0, 70, 63
1, 345140, Note_on_c, 0, 58, 53
1, 345143, Note_on_c, 0, 54, 56
1, 345143, Note_on_c, 0, 42, 47
1, 345199, Note_on_c, 0, 58, 0
1, 345199, Note_on_c, 0, 70, 0
1, 345199, Note_on_c, 0, 66, 0
1, 345258, Note_on_c, 0, 71, 66
1, 345258, Note_on_c, 0, 66, 66
1, 345258, Note_on_c, 0, 59, 56
1, 345261, Note_on_c, 0, 42, 0
1, 345261, Note_on_c, 0, 54, 0
1, 345261, Note_on_c, 0, 54, 56
1, 345264, Note_on_c, 0, 47, 47
1, 345319, Note_on_c, 0, 59, 0
1, 345319, Note_on_c, 0, 66, 0
1, 345319, Note_on_c, 0, 71, 0
1, 345322, Note_on_c, 0, 47, 0
1, 345322, Note_on_c, 0, 54, 0
1, 345380, Note_on_c, 0, 72, 68
1, 345380, Note_on_c, 0, 68, 68
1, 345380, Note_on_c, 0, 60, 57
1, 345383, Note_on_c, 0, 56, 59
1, 345383, Note_on_c, 0, 44, 50
1, 345440, Note_on_c, 0, 60, 0
1, 345440, Note_on_c, 0, 68, 0
1, 345440, Note_on_c, 0, 72, 0
1, 345443, Note_on_c, 0, 44, 0
1, 345443, Note_on_c, 0, 56, 0
1, 345501, Note_on_c, 0, 68, 71
1, 345501, Note_on_c, 0, 73, 71
1, 345501, Note_on_c, 0, 61, 60
1, 345504, Note_on_c, 0, 56, 63
1, 345504, Note_on_c, 0, 49, 53
1, 345622, Note_on_c, 0, 61, 0
1, 345622, Note_on_c, 0, 73, 0
1, 345622, Note_on_c, 0, 68, 0
1, 345625, Note_on_c, 0, 49, 0
1, 345625, Note_on_c, 0, 56, 0
1, 345744, Note_on_c, 0, 72, 80
1, 345744, Note_on_c, 0, 60, 68
1, 345744, Note_on_c, 0, 36, 51
1, 345755, Control_c, 0, 64, 0
1, 345788, Control_c, 0, 64, 127
1, 345803, Note_on_c, 0, 36, 0
1, 345803, Note_on_c, 0, 37, 53
1, 345863, Note_on_c, 0, 68, 62
1, 345863, Note_on_c, 0, 66, 62
1, 345863, Note_on_c, 0, 37, 0
1, 345866, Note_on_c, 0, 39, 54
1, 345922, Note_on_c, 0, 39, 0
1, 345922, Note_on_c, 0, 41, 55
1, 345981, Note_on_c, 0, 66, 0
1, 345981, Note_on_c, 0, 72, 0
1, 345981, Note_on_c, 0, 60, 0
1, 345984, Note_on_c, 0, 68, 0
1, 345984, Note_on_c, 0, 75, 75
1, 345984, Note_on_c, 0, 63, 64
1, 345987, Note_on_c, 0, 41, 0
1, 345987, Note_on_c, 0, 42, 57
1, 346039, Note_on_c, 0, 42, 0
1, 346039, Note_on_c, 0, 44, 58
1, 346098, Note_on_c, 0, 68, 62
1, 346098, Note_on_c, 0, 66, 62
1, 346098, Note_on_c, 0, 44, 0
1, 346101, Note_on_c, 0, 46, 59
1, 346156, Note_on_c, 0, 46, 0
1, 346156, Note_on_c, 0, 47, 60
1, 346214, Note_on_c, 0, 66, 0
1, 346214, Note_on_c, 0, 75, 0
1, 346214, Note_on_c, 0, 63, 0
1, 346217, Note_on_c, 0, 68, 0
1, 346217, Note_on_c, 0, 75, 82
1, 346217, Note_on_c, 0, 63, 70
1, 346220, Note_on_c, 0, 47, 0
1, 346220, Note_on_c, 0, 49, 62
1, 346220, Control_c, 0, 64, 0
1, 346249, Control_c, 0, 64, 127
1, 346271, Note_on_c, 0, 49, 0
1, 346271, Note_on_c, 0, 51, 63
1, 346329, Note_on_c, 0, 68, 64
1, 346329, Note_on_c, 0, 65, 64
1, 346329, Note_on_c, 0, 51, 0
1, 346332, Note_on_c, 0, 53, 65
1, 346386, Note_on_c, 0, 53, 0
1, 346386, Note_on_c, 0, 54, 66
1, 346442, Note_on_c, 0, 65, 0
1, 346442, Note_on_c, 0, 75, 0
1, 346442, Note_on_c, 0, 63, 0
1, 346445, Note_on_c, 0, 68, 0
1, 346445, Note_on_c, 0, 73, 77
1, 346445, Note_on_c, 0, 61, 65
1, 346448, Note_on_c, 0, 54, 0
1, 346448, Note_on_c, 0, 56, 67
1, 346555, Note_on_c, 0, 68, 64
1, 346555, Note_on_c, 0, 65, 64
1, 346555, Note_on_c, 0, 56, 0
1, 346688, Note_on_c, 0, 65, 0
1, 346688, Note_on_c, 0, 73, 0
1, 346688, Note_on_c, 0, 61, 0
1, 346691, Note_on_c, 0, 68, 0
1, 346691, Note_on_c, 0, 77, 82
1, 346691, Note_on_c, 0, 65, 70
1, 346694, Note_on_c, 0, 41, 58
1, 346702, Control_c, 0, 64, 0
1, 346742, Control_c, 0, 64, 127
1, 346746, Note_on_c, 0, 41, 0
1, 346746, Note_on_c, 0, 42, 60
1, 346803, Note_on_c, 0, 71, 63
1, 346803, Note_on_c, 0, 73, 63
1, 346803, Note_on_c, 0, 42, 0
1, 346806, Note_on_c, 0, 44, 61
1, 346861, Note_on_c, 0, 44, 0
1, 346861, Note_on_c, 0, 46, 62
1, 346918, Note_on_c, 0, 73, 0
1, 346918, Note_on_c, 0, 77, 0
1, 346918, Note_on_c, 0, 65, 0
1, 346921, Note_on_c, 0, 71, 0
1, 346921, Note_on_c, 0, 80, 76
1, 346921, Note_on_c, 0, 68, 65
1, 346924, Note_on_c, 0, 46, 0
1, 346924, Note_on_c, 0, 47, 63
1, 346975, Note_on_c, 0, 47, 0
1, 346975, Note_on_c, 0, 49, 65
1, 347032, Note_on_c, 0, 71, 65
1, 347032, Note_on_c, 0, 73, 65
1, 347032, Note_on_c, 0, 49, 0
1, 347035, Note_on_c, 0, 51, 66
1, 347097, Note_on_c, 0, 51, 0
1, 347097, Note_on_c, 0, 53, 67
1, 347161, Note_on_c, 0, 73, 0
1, 347161, Note_on_c, 0, 80, 0
1, 347161, Note_on_c, 0, 68, 0
1, 347164, Note_on_c, 0, 71, 0
1, 347164, Note_on_c, 0, 80, 85
1, 347164, Note_on_c, 0, 68, 71
1, 347167, Note_on_c, 0, 53, 0
1, 347167, Note_on_c, 0, 54, 68
1, 347175, Control_c, 0, 64, 0
1, 347202, Control_c, 0, 64, 127
1, 347218, Note_on_c, 0, 54, 0
1, 347218, Note_on_c, 0, 56, 70
1, 347274, Note_on_c, 0, 70, 64
1, 347274, Note_on_c, 0, 73, 64
1, 347274, Note_on_c, 0, 56, 0
1, 347277, Note_on_c, 0, 58, 71
1, 347330, Note_on_c, 0, 58, 0
1, 347330, Note_on_c, 0, 59, 72
1, 347386, Note_on_c, 0, 73, 0
1, 347386, Note_on_c, 0, 80, 0
1, 347386, Note_on_c, 0, 68, 0
1, 347389, Note_on_c, 0, 70, 0
1, 347389, Note_on_c, 0, 78, 80
1, 347389, Note_on_c, 0, 66, 68
1, 347392, Note_on_c, 0, 59, 0
1, 347392, Note_on_c, 0, 61, 73
1, 347505, Note_on_c, 0, 70, 62
1, 347505, Note_on_c, 0, 73, 62
1, 347505, Note_on_c, 0, 61, 0
1, 347631, Note_on_c, 0, 73, 0
1, 347631, Note_on_c, 0, 78, 0
1, 347631, Note_on_c, 0, 66, 0
1, 347634, Note_on_c, 0, 70, 0
1, 347634, Note_on_c, 0, 70, 97
1, 347634, Note_on_c, 0, 82, 97
1, 347637, Note_on_c, 0, 30, 71
1, 347637, Note_on_c, 0, 42, 98
1, 347651, Control_c, 0, 64, 0
1, 347684, Control_c, 0, 64, 127
1, 347691, Note_on_c, 0, 82, 0
1, 347691, Note_on_c, 0, 70, 0
1, 347751, Note_on_c, 0, 78, 91
1, 347811, Note_on_c, 0, 78, 0
1, 347811, Note_on_c, 0, 80, 94
1, 347870, Note_on_c, 0, 80, 0
1, 347870, Note_on_c, 0, 82, 97
1, 347870, Note_on_c, 0, 70, 97
1, 347873, Note_on_c, 0, 42, 0
1, 347873, Note_on_c, 0, 30, 0
1, 347873, Note_on_c, 0, 61, 93
1, 347876, Note_on_c, 0, 49, 69
1, 347876, Note_on_c, 0, 54, 69
1, 347876, Note_on_c, 0, 58, 69
1, 347936, Note_on_c, 0, 70, 0
1, 347936, Note_on_c, 0, 82, 0
1, 347936, Note_on_c, 0, 58, 0
1, 347939, Note_on_c, 0, 61, 0
1, 347939, Note_on_c, 0, 49, 0
1, 347939, Note_on_c, 0, 54, 0
1, 348001, Note_on_c, 0, 78, 88
1, 348001, Note_on_c, 0, 70, 88
1, 348001, Note_on_c, 0, 61, 88
1, 348004, Note_on_c, 0, 49, 66
1, 348004, Note_on_c, 0, 54, 66
1, 348004, Note_on_c, 0, 58, 66
1, 348067, Note_on_c, 0, 70, 0
1, 348067, Note_on_c, 0, 78, 0
1, 348067, Note_on_c, 0, 58, 0
1, 348070, Note_on_c, 0, 61, 0
1, 348070, Note_on_c, 0, 49, 0
1, 348070, Note_on_c, 0, 54, 0
1, 348132, Note_on_c, 0, 82, 94
1, 348132, Note_on_c, 0, 70, 94
1, 348132, Note_on_c, 0, 61, 95
1, 348135, Note_on_c, 0, 49, 71
1, 348135, Note_on_c, 0, 54, 71
1, 348135, Note_on_c, 0, 58, 71
1, 348198, Note_on_c, 0, 70, 0
1, 348198, Note_on_c, 0, 82, 0
1, 348198, Note_on_c, 0, 80, 89
1, 348265, Note_on_c, 0, 80, 0
1, 348265, Note_on_c, 0, 78, 89
1, 348265, Note_on_c, 0, 58, 0
1, 348268, Note_on_c, 0, 61, 0
1, 348268, Note_on_c, 0, 49, 0
1, 348268, Note_on_c, 0, 54, 0
1, 348331, Note_on_c, 0, 78, 0
1, 348397, Note_on_c, 0, 58, 74
1, 348397, Note_on_c, 0, 66, 88
1, 348397, Note_on_c, 0, 61, 74
1, 348400, Note_on_c, 0, 54, 81
1, 348400, Note_on_c, 0, 46, 69
1, 348400, Note_on_c, 0, 49, 69
1, 348407, Control_c, 0, 64, 0
1, 348459, Note_on_c, 0, 61, 0
1, 348459, Note_on_c, 0, 66, 0
1, 348459, Note_on_c, 0, 58, 0
1, 348462, Note_on_c, 0, 49, 0
1, 348462, Note_on_c, 0, 46, 0
1, 348462, Note_on_c, 0, 54, 0
1, 348522, Note_on_c, 0, 57, 69
1, 348522, Note_on_c, 0, 65, 81
1, 348522, Note_on_c, 0, 60, 69
1, 348525, Note_on_c, 0, 53, 73
1, 348525, Note_on_c, 0, 45, 61
1, 348525, Note_on_c, 0, 48, 61
1, 348585, Note_on_c, 0, 60, 0
1, 348585, Note_on_c, 0, 65, 0
1, 348585, Note_on_c, 0, 57, 0
1, 348588, Note_on_c, 0, 48, 0
1, 348588, Note_on_c, 0, 45, 0
1, 348588, Note_on_c, 0, 53, 0
1, 348648, Note_on_c, 0, 57, 75
1, 348648, Note_on_c, 0, 65, 89
1, 348648, Note_on_c, 0, 60, 75
1, 348651, Note_on_c, 0, 53, 80
1, 348651, Note_on_c, 0, 45, 67
1, 348651, Note_on_c, 0, 48, 67
1, 348681, Control_c, 0, 64, 127
1, 349024, Note_on_c, 0, 60, 0
1, 349024, Note_on_c, 0, 65, 0
1, 349024, Note_on_c, 0, 57, 0
1, 349027, Note_on_c, 0, 75, 90
1, 349027, Note_on_c, 0, 48, 0
1, 349027, Note_on_c, 0, 45, 0
1, 349030, Note_on_c, 0, 53, 0
1, 349030, Control_c, 0, 64, 0
1, 349087, Note_on_c, 0, 75, 0
1, 349087, Note_on_c, 0, 77, 91
1, 349150, Note_on_c, 0, 77, 0
1, 349150, Note_on_c, 0, 66, 93
1, 349150, Note_on_c, 0, 78, 93
1, 349153, Note_on_c, 0, 27, 76
1, 349153, Note_on_c, 0, 39, 94
1, 349206, Control_c, 0, 64, 127
1, 349213, Note_on_c, 0, 78, 0
1, 349213, Note_on_c, 0, 66, 0
1, 349276, Note_on_c, 0, 75, 87
1, 349339, Note_on_c, 0, 75, 0
1, 349339, Note_on_c, 0, 77, 90
1, 349403, Note_on_c, 0, 77, 0
1, 349403, Note_on_c, 0, 78, 93
1, 349403, Note_on_c, 0, 66, 93
1, 349406, Note_on_c, 0, 39, 0
1, 349406, Note_on_c, 0, 27, 0
1, 349406, Note_on_c, 0, 58, 89
1, 349409, Note_on_c, 0, 46, 66
1, 349409, Note_on_c, 0, 51, 66
1, 349409, Note_on_c, 0, 54, 66
1, 349462, Note_on_c, 0, 66, 0
1, 349462, Note_on_c, 0, 78, 0
1, 349462, Note_on_c, 0, 54, 0
1, 349465, Note_on_c, 0, 58, 0
1, 349465, Note_on_c, 0, 46, 0
1, 349465, Note_on_c, 0, 51, 0
1, 349520, Note_on_c, 0, 75, 84
1, 349520, Note_on_c, 0, 66, 84
1, 349520, Note_on_c, 0, 58, 84
1, 349523, Note_on_c, 0, 46, 63
1, 349523, Note_on_c, 0, 51, 63
1, 349523, Note_on_c, 0, 54, 63
1, 349579, Note_on_c, 0, 66, 0
1, 349579, Note_on_c, 0, 75, 0
1, 349579, Note_on_c, 0, 54, 0
1, 349582, Note_on_c, 0, 58, 0
1, 349582, Note_on_c, 0, 46, 0
1, 349582, Note_on_c, 0, 51, 0
1, 349638, Note_on_c, 0, 78, 90
1, 349638, Note_on_c, 0, 66, 90
1, 349638, Note_on_c, 0, 58, 91
1, 349641, Note_on_c, 0, 46, 68
1, 349641, Note_on_c, 0, 51, 68
1, 349641, Note_on_c, 0, 54, 68
1, 349697, Note_on_c, 0, 66, 0
1, 349697, Note_on_c, 0, 78, 0
1, 349697, Note_on_c, 0, 77, 83
1, 349756, Note_on_c, 0, 77, 0
1, 349756, Note_on_c, 0, 75, 83
1, 349756, Note_on_c, 0, 54, 0
1, 349759, Note_on_c, 0, 58, 0
1, 349759, Note_on_c, 0, 46, 0
1, 349759, Note_on_c, 0, 51, 0
1, 349814, Note_on_c, 0, 75, 0
1, 349814, Note_on_c, 0, 74, 83
1, 349873, Note_on_c, 0, 74, 0
1, 349873, Note_on_c, 0, 75, 90
1, 349906, Control_c, 0, 64, 0
1, 349943, Note_on_c, 0, 75, 0
1, 350283, Note_on_c, 0, 66, 55
1, 350283, Note_on_c, 0, 54, 46
1, 350283, Note_on_c, 0, 58, 46
1, 350286, Note_on_c, 0, 42, 48
1, 350286, Note_on_c, 0, 30, 40
1, 350343, Note_on_c, 0, 58, 0
1, 350343, Note_on_c, 0, 54, 0
1, 350343, Note_on_c, 0, 66, 0
1, 350346, Note_on_c, 0, 30, 0
1, 350346, Note_on_c, 0, 42, 0
1, 350402, Note_on_c, 0, 66, 58
1, 350402, Note_on_c, 0, 54, 49
1, 350402, Note_on_c, 0, 59, 49
1, 350405, Note_on_c, 0, 47, 51
1, 350405, Note_on_c, 0, 35, 43
1, 350462, Note_on_c, 0, 59, 0
1, 350462, Note_on_c, 0, 54, 0
1, 350462, Note_on_c, 0, 66, 0
1, 350465, Note_on_c, 0, 35, 0
1, 350465, Note_on_c, 0, 47, 0
1, 350520, Note_on_c, 0, 68, 60
1, 350520, Note_on_c, 0, 56, 51
1, 350520, Note_on_c, 0, 60, 51
1, 350523, Note_on_c, 0, 44, 54
1, 350523, Note_on_c, 0, 32, 45
1, 350579, Note_on_c, 0, 60, 0
1, 350579, Note_on_c, 0, 56, 0
1, 350579, Note_on_c, 0, 68, 0
1, 350582, Note_on_c, 0, 32, 0
1, 350582, Note_on_c, 0, 44, 0
1, 350638, Note_on_c, 0, 68, 65
1, 350638, Note_on_c, 0, 56, 55
1, 350638, Note_on_c, 0, 61, 55
1, 350641, Note_on_c, 0, 49, 56
1, 350641, Note_on_c, 0, 37, 47
1, 350698, Note_on_c, 0, 61, 0
1, 350698, Note_on_c, 0, 56, 0
1, 350698, Note_on_c, 0, 68, 0
1, 350701, Note_on_c, 0, 37, 0
1, 350701, Note_on_c, 0, 49, 0
1, 350757, Note_on_c, 0, 66, 59
1, 350757, Note_on_c, 0, 70, 59
1, 350757, Note_on_c, 0, 58, 50
1, 350760, Note_on_c, 0, 42, 52
1, 350760, Note_on_c, 0, 30, 44
1, 350815, Note_on_c, 0, 58, 0
1, 350815, Note_on_c, 0, 70, 0
1, 350815, Note_on_c, 0, 66, 0
1, 350818, Note_on_c, 0, 30, 0
1, 350818, Note_on_c, 0, 42, 0
1, 350873, Note_on_c, 0, 71, 63
1, 350873, Note_on_c, 0, 59, 53
1, 350873, Note_on_c, 0, 66, 53
1, 350876, Note_on_c, 0, 47, 55
1, 350876, Note_on_c, 0, 35, 46
1, 350930, Note_on_c, 0, 66, 0
1, 350930, Note_on_c, 0, 59, 0
1, 350930, Note_on_c, 0, 71, 0
1, 350933, Note_on_c, 0, 35, 0
1, 350933, Note_on_c, 0, 47, 0
1, 350988, Note_on_c, 0, 72, 67
1, 350988, Note_on_c, 0, 60, 56
1, 350988, Note_on_c, 0, 68, 56
1, 350991, Note_on_c, 0, 44, 58
1, 350991, Note_on_c, 0, 32, 49
1, 351045, Note_on_c, 0, 68, 0
1, 351045, Note_on_c, 0, 60, 0
1, 351045, Note_on_c, 0, 72, 0
1, 351048, Note_on_c, 0, 32, 0
1, 351048, Note_on_c, 0, 44, 0
1, 351101, Note_on_c, 0, 73, 70
1, 351101, Note_on_c, 0, 61, 59
1, 351101, Note_on_c, 0, 68, 59
1, 351104, Note_on_c, 0, 49, 61
1, 351104, Note_on_c, 0, 37, 51
1, 351162, Note_on_c, 0, 68, 0
1, 351162, Note_on_c, 0, 61, 0
1, 351162, Note_on_c, 0, 73, 0
1, 351165, Note_on_c, 0, 37, 0
1, 351165, Note_on_c, 0, 49, 0
1, 351220, Note_on_c, 0, 78, 63
1, 351220, Note_on_c, 0, 66, 52
1, 351220, Note_on_c, 0, 70, 52
1, 351223, Note_on_c, 0, 42, 52
1, 351223, Note_on_c, 0, 30, 44
1, 351277, Note_on_c, 0, 70, 0
1, 351277, Note_on_c, 0, 66, 0
1, 351277, Note_on_c, 0, 78, 0
1, 351280, Note_on_c, 0, 30, 0
1, 351280, Note_on_c, 0, 42, 0
1, 351334, Note_on_c, 0, 78, 66
1, 351334, Note_on_c, 0, 66, 55
1, 351334, Note_on_c, 0, 71, 55
1, 351337, Note_on_c, 0, 47, 56
1, 351337, Note_on_c, 0, 35, 47
1, 351391, Note_on_c, 0, 71, 0
1, 351391, Note_on_c, 0, 66, 0
1, 351391, Note_on_c, 0, 78, 0
1, 351394, Note_on_c, 0, 35, 0
1, 351394, Note_on_c, 0, 47, 0
1, 351447, Note_on_c, 0, 80, 69
1, 351447, Note_on_c, 0, 68, 58
1, 351447, Note_on_c, 0, 72, 58
1, 351450, Note_on_c, 0, 44, 59
1, 351450, Note_on_c, 0, 32, 49
1, 351503, Note_on_c, 0, 72, 0
1, 351503, Note_on_c, 0, 68, 0
1, 351503, Note_on_c, 0, 80, 0
1, 351506, Note_on_c, 0, 32, 0
1, 351506, Note_on_c, 0, 44, 0
1, 351558, Note_on_c, 0, 80, 74
1, 351558, Note_on_c, 0, 68, 63
1, 351558, Note_on_c, 0, 73, 63
1, 351561, Note_on_c, 0, 49, 61
1, 351561, Note_on_c, 0, 37, 51
1, 351617, Note_on_c, 0, 73, 0
1, 351617, Note_on_c, 0, 68, 0
1, 351617, Note_on_c, 0, 80, 0
1, 351620, Note_on_c, 0, 37, 0
1, 351620, Note_on_c, 0, 49, 0
1, 351674, Note_on_c, 0, 78, 67
1, 351674, Note_on_c, 0, 82, 67
1, 351674, Note_on_c, 0, 70, 57
1, 351677, Note_on_c, 0, 42, 57
1, 351677, Note_on_c, 0, 30, 48
1, 351731, Note_on_c, 0, 70, 0
1, 351731, Note_on_c, 0, 82, 0
1, 351731, Note_on_c, 0, 78, 0
1, 351734, Note_on_c, 0, 30, 0
1, 351734, Note_on_c, 0, 42, 0
1, 351787, Note_on_c, 0, 83, 72
1, 351787, Note_on_c, 0, 71, 60
1, 351787, Note_on_c, 0, 78, 60
1, 351790, Note_on_c, 0, 47, 60
1, 351790, Note_on_c, 0, 35, 50
1, 351843, Note_on_c, 0, 78, 0
1, 351843, Note_on_c, 0, 71, 0
1, 351843, Note_on_c, 0, 83, 0
1, 351846, Note_on_c, 0, 35, 0
1, 351846, Note_on_c, 0, 47, 0
1, 351899, Note_on_c, 0, 84, 76
1, 351899, Note_on_c, 0, 72, 64
1, 351899, Note_on_c, 0, 80, 64
1, 351902, Note_on_c, 0, 44, 63
1, 351902, Note_on_c, 0, 32, 53
1, 351955, Note_on_c, 0, 80, 0
1, 351955, Note_on_c, 0, 72, 0
1, 351955, Note_on_c, 0, 84, 0
1, 351958, Note_on_c, 0, 32, 0
1, 351958, Note_on_c, 0, 44, 0
1, 352011, Note_on_c, 0, 85, 80
1, 352011, Note_on_c, 0, 73, 67
1, 352011, Note_on_c, 0, 80, 67
1, 352014, Note_on_c, 0, 49, 69
1, 352014, Note_on_c, 0, 37, 69
1, 352068, Note_on_c, 0, 80, 0
1, 352068, Note_on_c, 0, 73, 0
1, 352068, Note_on_c, 0, 85, 0
1, 352071, Note_on_c, 0, 37, 0
1, 352071, Note_on_c, 0, 49, 0
1, 352125, Note_on_c, 0, 90, 73
1, 352125, Note_on_c, 0, 78, 62
1, 352125, Note_on_c, 0, 82, 62
1, 352128, Note_on_c, 0, 42, 65
1, 352128, Note_on_c, 0, 30, 55
1, 352182, Note_on_c, 0, 82, 0
1, 352182, Note_on_c, 0, 78, 0
1, 352182, Note_on_c, 0, 90, 0
1, 352185, Note_on_c, 0, 30, 0
1, 352185, Note_on_c, 0, 42, 0
1, 352237, Note_on_c, 0, 90, 75
1, 352237, Note_on_c, 0, 78, 63
1, 352237, Note_on_c, 0, 83, 63
1, 352240, Note_on_c, 0, 47, 65
1, 352240, Note_on_c, 0, 35, 55
1, 352293, Note_on_c, 0, 83, 0
1, 352293, Note_on_c, 0, 78, 0
1, 352293, Note_on_c, 0, 90, 0
1, 352296, Note_on_c, 0, 35, 0
1, 352296, Note_on_c, 0, 47, 0
1, 352348, Note_on_c, 0, 92, 77
1, 352348, Note_on_c, 0, 80, 65
1, 352348, Note_on_c, 0, 84, 65
1, 352351, Note_on_c, 0, 44, 65
1, 352351, Note_on_c, 0, 32, 55
1, 352403, Note_on_c, 0, 84, 0
1, 352403, Note_on_c, 0, 80, 0
1, 352403, Note_on_c, 0, 92, 0
1, 352406, Note_on_c, 0, 32, 0
1, 352406, Note_on_c, 0, 44, 0
1, 352459, Note_on_c, 0, 92, 78
1, 352459, Note_on_c, 0, 80, 66
1, 352459, Note_on_c, 0, 85, 66
1, 352462, Note_on_c, 0, 49, 70
1, 352462, Note_on_c, 0, 37, 59
1, 352514, Note_on_c, 0, 85, 0
1, 352514, Note_on_c, 0, 80, 0
1, 352514, Note_on_c, 0, 92, 0
1, 352517, Note_on_c, 0, 37, 0
1, 352517, Note_on_c, 0, 49, 0
1, 352570, Note_on_c, 0, 92, 80
1, 352570, Note_on_c, 0, 80, 68
1, 352570, Note_on_c, 0, 84, 68
1, 352573, Note_on_c, 0, 44, 63
1, 352573, Note_on_c, 0, 32, 53
1, 352626, Note_on_c, 0, 84, 0
1, 352626, Note_on_c, 0, 80, 0
1, 352626, Note_on_c, 0, 92, 0
1, 352629, Note_on_c, 0, 32, 0
1, 352629, Note_on_c, 0, 44, 0
1, 352681, Note_on_c, 0, 92, 82
1, 352681, Note_on_c, 0, 80, 69
1, 352681, Note_on_c, 0, 85, 69
1, 352684, Note_on_c, 0, 49, 63
1, 352684, Note_on_c, 0, 37, 53
1, 352737, Note_on_c, 0, 85, 0
1, 352737, Note_on_c, 0, 80, 0
1, 352737, Note_on_c, 0, 92, 0
1, 352740, Note_on_c, 0, 37, 0
1, 352740, Note_on_c, 0, 49, 0
1, 352794, Note_on_c, 0, 92, 84
1, 352794, Note_on_c, 0, 80, 71
1, 352794, Note_on_c, 0, 84, 71
1, 352797, Note_on_c, 0, 44, 63
1, 352797, Note_on_c, 0, 32, 53
1, 352850, Note_on_c, 0, 84, 0
1, 352850, Note_on_c, 0, 80, 0
1, 352850, Note_on_c, 0, 92, 0
1, 352853, Note_on_c, 0, 32, 0
1, 352853, Note_on_c, 0, 44, 0
1, 352906, Note_on_c, 0, 92, 88
1, 352906, Note_on_c, 0, 80, 74
1, 352906, Note_on_c, 0, 85, 74
1, 352909, Note_on_c, 0, 49, 72
1, 352909, Note_on_c, 0, 37, 61
1, 352909, Control_c, 0, 64, 127
1, 352962, Note_on_c, 0, 85, 0
1, 352962, Note_on_c, 0, 80, 0
1, 352962, Note_on_c, 0, 92, 0
1, 352965, Note_on_c, 0, 37, 0
1, 352965, Note_on_c, 0, 49, 0
1, 353019, Note_on_c, 0, 92, 81
1, 353019, Note_on_c, 0, 80, 68
1, 353019, Note_on_c, 0, 84, 68
1, 353022, Note_on_c, 0, 44, 69
1, 353022, Note_on_c, 0, 32, 58
1, 353076, Note_on_c, 0, 84, 0
1, 353076, Note_on_c, 0, 80, 0
1, 353076, Note_on_c, 0, 92, 0
1, 353079, Note_on_c, 0, 32, 0
1, 353079, Note_on_c, 0, 44, 0
1, 353132, Note_on_c, 0, 92, 83
1, 353132, Note_on_c, 0, 80, 70
1, 353132, Note_on_c, 0, 85, 70
1, 353135, Note_on_c, 0, 49, 71
1, 353135, Note_on_c, 0, 37, 59
1, 353188, Note_on_c, 0, 85, 0
1, 353188, Note_on_c, 0, 80, 0
1, 353188, Note_on_c, 0, 92, 0
1, 353191, Note_on_c, 0, 37, 0
1, 353191, Note_on_c, 0, 49, 0
1, 353245, Note_on_c, 0, 92, 85
1, 353245, Note_on_c, 0, 80, 71
1, 353245, Note_on_c, 0, 84, 71
1, 353248, Note_on_c, 0, 44, 72
1, 353248, Note_on_c, 0, 32, 60
1, 353301, Note_on_c, 0, 84, 0
1, 353301, Note_on_c, 0, 80, 0
1, 353301, Note_on_c, 0, 92, 0
1, 353304, Note_on_c, 0, 32, 0
1, 353304, Note_on_c, 0, 44, 0
1, 353358, Note_on_c, 0, 92, 95
1, 353358, Note_on_c, 0, 80, 80
1, 353358, Note_on_c, 0, 85, 80
1, 353361, Note_on_c, 0, 49, 78
1, 353361, Note_on_c, 0, 37, 66
1, 353414, Note_on_c, 0, 85, 0
1, 353414, Note_on_c, 0, 80, 0
1, 353414, Note_on_c, 0, 92, 0
1, 353417, Note_on_c, 0, 37, 0
1, 353417, Note_on_c, 0, 49, 0
1, 353473, Note_on_c, 0, 92, 90
1, 353473, Note_on_c, 0, 80, 76
1, 353473, Note_on_c, 0, 84, 76
1, 353476, Note_on_c, 0, 44, 76
1, 353476, Note_on_c, 0, 32, 64
1, 353534, Note_on_c, 0, 84, 0
1, 353534, Note_on_c, 0, 80, 0
1, 353534, Note_on_c, 0, 92, 0
1, 353537, Note_on_c, 0, 32, 0
1, 353537, Note_on_c, 0, 44, 0
1, 353598, Note_on_c, 0, 92, 92
1, 353598, Note_on_c, 0, 80, 77
1, 353598, Note_on_c, 0, 85, 77
1, 353601, Note_on_c, 0, 49, 77
1, 353601, Note_on_c, 0, 37, 65
1, 353666, Note_on_c, 0, 85, 0
1, 353666, Note_on_c, 0, 80, 0
1, 353666, Note_on_c, 0, 92, 0
1, 353669, Note_on_c, 0, 37, 0
1, 353669, Note_on_c, 0, 49, 0
1, 353736, Note_on_c, 0, 92, 94
1, 353736, Note_on_c, 0, 80, 80
1, 353736, Note_on_c, 0, 84, 80
1, 353739, Note_on_c, 0, 44, 79
1, 353739, Note_on_c, 0, 32, 66
1, 353810, Note_on_c, 0, 84, 0
1, 353810, Note_on_c, 0, 80, 0
1, 353810, Note_on_c, 0, 92, 0
1, 353813, Note_on_c, 0, 32, 0
1, 353813, Note_on_c, 0, 44, 0
1, 353889, Note_on_c, 0, 92, 106
1, 353889, Note_on_c, 0, 80, 90
1, 353889, Note_on_c, 0, 85, 90
1, 353892, Note_on_c, 0, 49, 85
1, 353892, Note_on_c, 0, 37, 71
1, 353892, Control_c, 0, 64, 0
1, 353995, Note_on_c, 0, 85, 0
1, 353995, Note_on_c, 0, 80, 0
1, 353995, Note_on_c, 0, 92, 0
1, 353998, Note_on_c, 0, 37, 0
1, 353998, Note_on_c, 0, 49, 0
1, 354079, Note_on_c, 0, 80, 72
1, 354079, Note_on_c, 0, 68, 60
1, 354079, Note_on_c, 0, 73, 60
1, 354091, Control_c, 0, 64, 127
1, 354121, Note_on_c, 0, 73, 0
1, 354121, Note_on_c, 0, 68, 0
1, 354121, Note_on_c, 0, 80, 0
1, 354124, Note_on_c, 0, 67, 63
1, 354124, Note_on_c, 0, 65, 53
1, 354162, Note_on_c, 0, 65, 0
1, 354162, Note_on_c, 0, 67, 0
1, 354162, Note_on_c, 0, 82, 78
1, 354165, Note_on_c, 0, 70, 66
1, 354165, Note_on_c, 0, 73, 66
1, 354204, Note_on_c, 0, 73, 0
1, 354204, Note_on_c, 0, 70, 0
1, 354204, Note_on_c, 0, 82, 0
1, 354207, Note_on_c, 0, 65, 63
1, 354207, Note_on_c, 0, 61, 53
1, 354245, Note_on_c, 0, 61, 0
1, 354245, Note_on_c, 0, 65, 0
1, 354245, Note_on_c, 0, 80, 71
1, 354248, Note_on_c, 0, 68, 59
1, 354248, Note_on_c, 0, 73, 59
1, 354286, Note_on_c, 0, 73, 0
1, 354286, Note_on_c, 0, 68, 0
1, 354286, Note_on_c, 0, 80, 0
1, 354289, Note_on_c, 0, 67, 64
1, 354289, Note_on_c, 0, 65, 54
1, 354327, Note_on_c, 0, 65, 0
1, 354327, Note_on_c, 0, 67, 0
1, 354327, Note_on_c, 0, 82, 77
1, 354330, Note_on_c, 0, 70, 66
1, 354330, Note_on_c, 0, 73, 66
1, 354368, Note_on_c, 0, 73, 0
1, 354368, Note_on_c, 0, 70, 0
1, 354368, Note_on_c, 0, 82, 0
1, 354371, Note_on_c, 0, 65, 65
1, 354371, Note_on_c, 0, 61, 54
1, 354408, Note_on_c, 0, 61, 0
1, 354408, Note_on_c, 0, 65, 0
1, 354408, Note_on_c, 0, 80, 74
1, 354411, Note_on_c, 0, 68, 61
1, 354411, Note_on_c, 0, 73, 61
1, 354449, Note_on_c, 0, 73, 0
1, 354449, Note_on_c, 0, 68, 0
1, 354449, Note_on_c, 0, 80, 0
1, 354452, Note_on_c, 0, 67, 65
1, 354452, Note_on_c, 0, 65, 55
1, 354489, Note_on_c, 0, 65, 0
1, 354489, Note_on_c, 0, 67, 0
1, 354489, Note_on_c, 0, 82, 80
1, 354492, Note_on_c, 0, 70, 67
1, 354492, Note_on_c, 0, 73, 67
1, 354530, Note_on_c, 0, 73, 0
1, 354530, Note_on_c, 0, 70, 0
1, 354530, Note_on_c, 0, 82, 0
1, 354533, Note_on_c, 0, 65, 67
1, 354533, Note_on_c, 0, 61, 56
1, 354570, Note_on_c, 0, 61, 0
1, 354570, Note_on_c, 0, 65, 0
1, 354570, Note_on_c, 0, 80, 73
1, 354573, Note_on_c, 0, 68, 61
1, 354573, Note_on_c, 0, 73, 61
1, 354609, Note_on_c, 0, 73, 0
1, 354609, Note_on_c, 0, 68, 0
1, 354609, Note_on_c, 0, 80, 0
1, 354612, Note_on_c, 0, 67, 67
1, 354612, Note_on_c, 0, 65, 56
1, 354649, Note_on_c, 0, 65, 0
1, 354649, Note_on_c, 0, 67, 0
1, 354649, Note_on_c, 0, 82, 81
1, 354652, Note_on_c, 0, 70, 68
1, 354652, Note_on_c, 0, 73, 68
1, 354689, Note_on_c, 0, 73, 0
1, 354689, Note_on_c, 0, 70, 0
1, 354689, Note_on_c, 0, 82, 0
1, 354692, Note_on_c, 0, 65, 68
1, 354692, Note_on_c, 0, 61, 57
1, 354729, Note_on_c, 0, 61, 0
1, 354729, Note_on_c, 0, 65, 0
1, 354729, Note_on_c, 0, 80, 75
1, 354732, Note_on_c, 0, 68, 62
1, 354732, Note_on_c, 0, 73, 62
1, 354769, Note_on_c, 0, 73, 0
1, 354769, Note_on_c, 0, 68, 0
1, 354769, Note_on_c, 0, 80, 0
1, 354772, Note_on_c, 0, 67, 69
1, 354772, Note_on_c, 0, 65, 57
1, 354809, Note_on_c, 0, 65, 0
1, 354809, Note_on_c, 0, 67, 0
1, 354809, Note_on_c, 0, 82, 80
1, 354812, Note_on_c, 0, 70, 67
1, 354812, Note_on_c, 0, 73, 67
1, 354850, Note_on_c, 0, 73, 0
1, 354850, Note_on_c, 0, 70, 0
1, 354850, Note_on_c, 0, 82, 0
1, 354853, Note_on_c, 0, 65, 69
1, 354853, Note_on_c, 0, 61, 57
1, 354891, Note_on_c, 0, 61, 0
1, 354891, Note_on_c, 0, 65, 0
1, 354891, Note_on_c, 0, 68, 79
1, 354894, Note_on_c, 0, 73, 79
1, 354894, Note_on_c, 0, 80, 79
1, 354933, Note_on_c, 0, 80, 0
1, 354933, Note_on_c, 0, 73, 0
1, 354933, Note_on_c, 0, 68, 0
1, 354936, Note_on_c, 0, 65, 70
1, 354936, Note_on_c, 0, 67, 70
1, 354974, Note_on_c, 0, 67, 0
1, 354974, Note_on_c, 0, 65, 0
1, 354974, Note_on_c, 0, 82, 84
1, 354977, Note_on_c, 0, 70, 72
1, 354977, Note_on_c, 0, 73, 72
1, 355017, Note_on_c, 0, 73, 0
1, 355017, Note_on_c, 0, 70, 0
1, 355017, Note_on_c, 0, 82, 0
1, 355020, Note_on_c, 0, 65, 71
1, 355020, Note_on_c, 0, 61, 58
1, 355059, Note_on_c, 0, 61, 0
1, 355059, Note_on_c, 0, 65, 0
1, 355059, Note_on_c, 0, 80, 79
1, 355062, Note_on_c, 0, 68, 67
1, 355062, Note_on_c, 0, 73, 67
1, 355102, Note_on_c, 0, 73, 0
1, 355102, Note_on_c, 0, 68, 0
1, 355102, Note_on_c, 0, 80, 0
1, 355105, Note_on_c, 0, 67, 72
1, 355105, Note_on_c, 0, 65, 60
1, 355145, Note_on_c, 0, 65, 0
1, 355145, Note_on_c, 0, 67, 0
1, 355145, Note_on_c, 0, 82, 83
1, 355148, Note_on_c, 0, 70, 71
1, 355148, Note_on_c, 0, 73, 71
1, 355189, Note_on_c, 0, 73, 0
1, 355189, Note_on_c, 0, 70, 0
1, 355189, Note_on_c, 0, 82, 0
1, 355192, Note_on_c, 0, 65, 68
1, 355192, Note_on_c, 0, 61, 57
1, 355235, Note_on_c, 0, 61, 0
1, 355235, Note_on_c, 0, 65, 0
1, 355235, Note_on_c, 0, 80, 77
1, 355238, Note_on_c, 0, 68, 66
1, 355238, Note_on_c, 0, 73, 66
1, 355280, Note_on_c, 0, 73, 0
1, 355280, Note_on_c, 0, 68, 0
1, 355280, Note_on_c, 0, 80, 0
1, 355409, Note_on_c, 0, 89, 64
1, 355409, Note_on_c, 0, 85, 64
1, 355409, Note_on_c, 0, 46, 63
1, 355419, Control_c, 0, 64, 0
1, 355455, Control_c, 0, 64, 127
1, 355467, Note_on_c, 0, 85, 0
1, 355467, Note_on_c, 0, 89, 0
1, 355467, Note_on_c, 0, 87, 63
1, 355487, Note_on_c, 0, 46, 0
1, 355487, Note_on_c, 0, 51, 55
1, 355525, Note_on_c, 0, 87, 0
1, 355525, Note_on_c, 0, 85, 62
1, 355564, Note_on_c, 0, 51, 0
1, 355564, Note_on_c, 0, 55, 55
1, 355584, Note_on_c, 0, 85, 0
1, 355584, Note_on_c, 0, 79, 60
1, 355642, Note_on_c, 0, 79, 0
1, 355642, Note_on_c, 0, 73, 59
1, 355642, Note_on_c, 0, 77, 59
1, 355645, Note_on_c, 0, 55, 0
1, 355645, Note_on_c, 0, 61, 62
1, 355700, Note_on_c, 0, 77, 0
1, 355700, Note_on_c, 0, 73, 0
1, 355700, Note_on_c, 0, 75, 58
1, 355759, Note_on_c, 0, 75, 0
1, 355759, Note_on_c, 0, 73, 56
1, 355759, Note_on_c, 0, 61, 0
1, 355817, Note_on_c, 0, 73, 0
1, 355817, Note_on_c, 0, 67, 55
1, 355943, Note_on_c, 0, 67, 0
1, 355943, Note_on_c, 0, 89, 64
1, 355943, Note_on_c, 0, 85, 64
1, 355946, Note_on_c, 0, 46, 63
1, 356002, Note_on_c, 0, 85, 0
1, 356002, Note_on_c, 0, 89, 0
1, 356002, Note_on_c, 0, 87, 63
1, 356021, Note_on_c, 0, 46, 0
1, 356021, Note_on_c, 0, 51, 55
1, 356060, Note_on_c, 0, 87, 0
1, 356060, Note_on_c, 0, 85, 62
1, 356099, Note_on_c, 0, 51, 0
1, 356099, Note_on_c, 0, 55, 55
1, 356118, Note_on_c, 0, 85, 0
1, 356118, Note_on_c, 0, 79, 60
1, 356177, Note_on_c, 0, 79, 0
1, 356177, Note_on_c, 0, 73, 59
1, 356177, Note_on_c, 0, 77, 59
1, 356180, Note_on_c, 0, 55, 0
1, 356180, Note_on_c, 0, 61, 62
1, 356235, Note_on_c, 0, 77, 0
1, 356235, Note_on_c, 0, 73, 0
1, 356235, Note_on_c, 0, 75, 58
1, 356293, Note_on_c, 0, 75, 0
1, 356293, Note_on_c, 0, 73, 56
1, 356293, Note_on_c, 0, 61, 0
1, 356352, Note_on_c, 0, 73, 0
1, 356352, Note_on_c, 0, 67, 55
1, 356474, Note_on_c, 0, 67, 0
1, 356474, Note_on_c, 0, 94, 64
1, 356474, Note_on_c, 0, 90, 64
1, 356477, Note_on_c, 0, 44, 63
1, 356485, Control_c, 0, 64, 0
1, 356521, Control_c, 0, 64, 127
1, 356533, Note_on_c, 0, 90, 0
1, 356533, Note_on_c, 0, 94, 0
1, 356533, Note_on_c, 0, 92, 63
1, 356536, Note_on_c, 0, 51, 59
1, 356552, Note_on_c, 0, 44, 0
1, 356592, Note_on_c, 0, 92, 0
1, 356592, Note_on_c, 0, 90, 62
1, 356592, Note_on_c, 0, 51, 0
1, 356595, Note_on_c, 0, 54, 59
1, 356650, Note_on_c, 0, 90, 0
1, 356650, Note_on_c, 0, 84, 60
1, 356650, Note_on_c, 0, 54, 0
1, 356653, Note_on_c, 0, 60, 59
1, 356709, Note_on_c, 0, 84, 0
1, 356709, Note_on_c, 0, 78, 59
1, 356709, Note_on_c, 0, 82, 59
1, 356712, Note_on_c, 0, 60, 0
1, 356712, Note_on_c, 0, 66, 62
1, 356768, Note_on_c, 0, 82, 0
1, 356768, Note_on_c, 0, 78, 0
1, 356768, Note_on_c, 0, 80, 58
1, 356827, Note_on_c, 0, 80, 0
1, 356827, Note_on_c, 0, 78, 56
1, 356827, Note_on_c, 0, 66, 0
1, 356886, Note_on_c, 0, 78, 0
1, 356886, Note_on_c, 0, 72, 55
1, 357012, Note_on_c, 0, 72, 0
1, 357012, Note_on_c, 0, 94, 64
1, 357012, Note_on_c, 0, 90, 64
1, 357015, Note_on_c, 0, 44, 62
1, 357070, Note_on_c, 0, 90, 0
1, 357070, Note_on_c, 0, 94, 0
1, 357070, Note_on_c, 0, 92, 63
1, 357073, Note_on_c, 0, 44, 0
1, 357073, Note_on_c, 0, 51, 58
1, 357128, Note_on_c, 0, 92, 0
1, 357128, Note_on_c, 0, 90, 62
1, 357128, Note_on_c, 0, 51, 0
1, 357131, Note_on_c, 0, 54, 58
1, 357187, Note_on_c, 0, 90, 0
1, 357187, Note_on_c, 0, 84, 60
1, 357187, Note_on_c, 0, 54, 0
1, 357190, Note_on_c, 0, 60, 58
1, 357245, Note_on_c, 0, 84, 0
1, 357245, Note_on_c, 0, 78, 59
1, 357245, Note_on_c, 0, 82, 59
1, 357248, Note_on_c, 0, 60, 0
1, 357248, Note_on_c, 0, 66, 62
1, 357303, Note_on_c, 0, 82, 0
1, 357303, Note_on_c, 0, 78, 0
1, 357303, Note_on_c, 0, 80, 58
1, 357362, Note_on_c, 0, 80, 0
1, 357362, Note_on_c, 0, 78, 56
1, 357362, Note_on_c, 0, 66, 0
1, 357420, Note_on_c, 0, 78, 0
1, 357420, Note_on_c, 0, 72, 55
1, 357542, Note_on_c, 0, 72, 0
1, 357542, Note_on_c, 0, 73, 64
1, 357542, Note_on_c, 0, 49, 62
1, 357545, Note_on_c, 0, 65, 62
1, 357545, Control_c, 0, 64, 0
1, 357664, Note_on_c, 0, 73, 0
1, 357664, Note_on_c, 0, 65, 0
1, 357664, Note_on_c, 0, 49, 0
1, 357773, Note_on_c, 0, 92, 72
1, 357773, Note_on_c, 0, 80, 60
1, 357773, Note_on_c, 0, 85, 60
1, 357786, Control_c, 0, 64, 127
1, 357816, Note_on_c, 0, 85, 0
1, 357816, Note_on_c, 0, 80, 0
1, 357816, Note_on_c, 0, 92, 0
1, 357819, Note_on_c, 0, 79, 63
1, 357819, Note_on_c, 0, 77, 53
1, 357858, Note_on_c, 0, 77, 0
1, 357858, Note_on_c, 0, 79, 0
1, 357858, Note_on_c, 0, 94, 78
1, 357861, Note_on_c, 0, 82, 66
1, 357861, Note_on_c, 0, 85, 66
1, 357900, Note_on_c, 0, 85, 0
1, 357900, Note_on_c, 0, 82, 0
1, 357900, Note_on_c, 0, 94, 0
1, 357903, Note_on_c, 0, 77, 63
1, 357903, Note_on_c, 0, 73, 53
1, 357942, Note_on_c, 0, 73, 0
1, 357942, Note_on_c, 0, 77, 0
1, 357942, Note_on_c, 0, 92, 71
1, 357945, Note_on_c, 0, 80, 59
1, 357945, Note_on_c, 0, 85, 59
1, 357984, Note_on_c, 0, 85, 0
1, 357984, Note_on_c, 0, 80, 0
1, 357984, Note_on_c, 0, 92, 0
1, 357987, Note_on_c, 0, 79, 64
1, 357987, Note_on_c, 0, 77, 54
1, 358025, Note_on_c, 0, 77, 0
1, 358025, Note_on_c, 0, 79, 0
1, 358025, Note_on_c, 0, 94, 77
1, 358028, Note_on_c, 0, 82, 66
1, 358028, Note_on_c, 0, 85, 66
1, 358067, Note_on_c, 0, 85, 0
1, 358067, Note_on_c, 0, 82, 0
1, 358067, Note_on_c, 0, 94, 0
1, 358070, Note_on_c, 0, 77, 65
1, 358070, Note_on_c, 0, 73, 54
1, 358108, Note_on_c, 0, 73, 0
1, 358108, Note_on_c, 0, 77, 0
1, 358108, Note_on_c, 0, 92, 74
1, 358111, Note_on_c, 0, 80, 61
1, 358111, Note_on_c, 0, 85, 61
1, 358149, Note_on_c, 0, 85, 0
1, 358149, Note_on_c, 0, 80, 0
1, 358149, Note_on_c, 0, 92, 0
1, 358152, Note_on_c, 0, 79, 65
1, 358152, Note_on_c, 0, 77, 55
1, 358190, Note_on_c, 0, 77, 0
1, 358190, Note_on_c, 0, 79, 0
1, 358190, Note_on_c, 0, 94, 80
1, 358193, Note_on_c, 0, 82, 67
1, 358193, Note_on_c, 0, 85, 67
1, 358230, Note_on_c, 0, 85, 0
1, 358230, Note_on_c, 0, 82, 0
1, 358230, Note_on_c, 0, 94, 0
1, 358233, Note_on_c, 0, 77, 67
1, 358233, Note_on_c, 0, 73, 56
1, 358271, Note_on_c, 0, 73, 0
1, 358271, Note_on_c, 0, 77, 0
1, 358271, Note_on_c, 0, 92, 73
1, 358274, Note_on_c, 0, 80, 61
1, 358274, Note_on_c, 0, 85, 61
1, 358311, Note_on_c, 0, 85, 0
1, 358311, Note_on_c, 0, 80, 0
1, 358311, Note_on_c, 0, 92, 0
1, 358314, Note_on_c, 0, 79, 67
1, 358314, Note_on_c, 0, 77, 56
1, 358351, Note_on_c, 0, 77, 0
1, 358351, Note_on_c, 0, 79, 0
1, 358351, Note_on_c, 0, 94, 81
1, 358354, Note_on_c, 0, 82, 68
1, 358354, Note_on_c, 0, 85, 68
1, 358391, Note_on_c, 0, 85, 0
1, 358391, Note_on_c, 0, 82, 0
1, 358391, Note_on_c, 0, 94, 0
1, 358394, Note_on_c, 0, 77, 68
1, 358394, Note_on_c, 0, 73, 57
1, 358431, Note_on_c, 0, 73, 0
1, 358431, Note_on_c, 0, 77, 0
1, 358431, Note_on_c, 0, 92, 75
1, 358434, Note_on_c, 0, 80, 62
1, 358434, Note_on_c, 0, 85, 62
1, 358472, Note_on_c, 0, 85, 0
1, 358472, Note_on_c, 0, 80, 0
1, 358472, Note_on_c, 0, 92, 0
1, 358475, Note_on_c, 0, 79, 69
1, 358475, Note_on_c, 0, 77, 57
1, 358512, Note_on_c, 0, 77, 0
1, 358512, Note_on_c, 0, 79, 0
1, 358512, Note_on_c, 0, 94, 80
1, 358515, Note_on_c, 0, 82, 67
1, 358515, Note_on_c, 0, 85, 67
1, 358553, Note_on_c, 0, 85, 0
1, 358553, Note_on_c, 0, 82, 0
1, 358553, Note_on_c, 0, 94, 0
1, 358556, Note_on_c, 0, 77, 69
1, 358556, Note_on_c, 0, 73, 57
1, 358593, Note_on_c, 0, 73, 0
1, 358593, Note_on_c, 0, 77, 0
1, 358593, Note_on_c, 0, 80, 79
1, 358596, Note_on_c, 0, 85, 79
1, 358596, Note_on_c, 0, 92, 79
1, 358634, Note_on_c, 0, 92, 0
1, 358634, Note_on_c, 0, 85, 0
1, 358634, Note_on_c, 0, 80, 0
1, 358637, Note_on_c, 0, 77, 70
1, 358637, Note_on_c, 0, 79, 70
1, 358675, Note_on_c, 0, 79, 0
1, 358675, Note_on_c, 0, 77, 0
1, 358675, Note_on_c, 0, 94, 84
1, 358678, Note_on_c, 0, 82, 72
1, 358678, Note_on_c, 0, 85, 72
1, 358716, Note_on_c, 0, 85, 0
1, 358716, Note_on_c, 0, 82, 0
1, 358716, Note_on_c, 0, 94, 0
1, 358719, Note_on_c, 0, 77, 71
1, 358719, Note_on_c, 0, 73, 58
1, 358758, Note_on_c, 0, 73, 0
1, 358758, Note_on_c, 0, 77, 0
1, 358758, Note_on_c, 0, 92, 79
1, 358761, Note_on_c, 0, 80, 67
1, 358761, Note_on_c, 0, 85, 67
1, 358799, Note_on_c, 0, 85, 0
1, 358799, Note_on_c, 0, 80, 0
1, 358799, Note_on_c, 0, 92, 0
1, 358802, Note_on_c, 0, 79, 72
1, 358802, Note_on_c, 0, 77, 60
1, 358841, Note_on_c, 0, 77, 0
1, 358841, Note_on_c, 0, 79, 0
1, 358841, Note_on_c, 0, 94, 83
1, 358844, Note_on_c, 0, 82, 71
1, 358844, Note_on_c, 0, 85, 71
1, 358883, Note_on_c, 0, 85, 0
1, 358883, Note_on_c, 0, 82, 0
1, 358883, Note_on_c, 0, 94, 0
1, 358886, Note_on_c, 0, 77, 68
1, 358886, Note_on_c, 0, 73, 57
1, 358926, Note_on_c, 0, 73, 0
1, 358926, Note_on_c, 0, 77, 0
1, 358926, Note_on_c, 0, 92, 77
1, 358929, Note_on_c, 0, 80, 66
1, 358929, Note_on_c, 0, 85, 66
1, 358971, Note_on_c, 0, 85, 0
1, 358971, Note_on_c, 0, 80, 0
1, 358971, Note_on_c, 0, 92, 0
1, 359100, Note_on_c, 0, 101, 64
1, 359100, Note_on_c, 0, 97, 64
1, 359100, Note_on_c, 0, 46, 63
1, 359110, Control_c, 0, 64, 0
1, 359146, Control_c, 0, 64, 127
1, 359158, Note_on_c, 0, 97, 0
1, 359158, Note_on_c, 0, 101, 0
1, 359158, Note_on_c, 0, 99, 63
1, 359161, Note_on_c, 0, 46, 0
1, 359161, Note_on_c, 0, 51, 58
1, 359216, Note_on_c, 0, 99, 0
1, 359216, Note_on_c, 0, 97, 62
1, 359216, Note_on_c, 0, 51, 0
1, 359219, Note_on_c, 0, 55, 58
1, 359275, Note_on_c, 0, 97, 0
1, 359275, Note_on_c, 0, 91, 60
1, 359275, Note_on_c, 0, 55, 0
1, 359278, Note_on_c, 0, 61, 58
1, 359333, Note_on_c, 0, 91, 0
1, 359333, Note_on_c, 0, 85, 59
1, 359333, Note_on_c, 0, 89, 59
1, 359336, Note_on_c, 0, 61, 0
1, 359336, Note_on_c, 0, 67, 62
1, 359391, Note_on_c, 0, 89, 0
1, 359391, Note_on_c, 0, 85, 0
1, 359391, Note_on_c, 0, 87, 58
1, 359450, Note_on_c, 0, 87, 0
1, 359450, Note_on_c, 0, 85, 56
1, 359450, Note_on_c, 0, 67, 0
1, 359508, Note_on_c, 0, 85, 0
1, 359508, Note_on_c, 0, 79, 55
1, 359634, Note_on_c, 0, 79, 0
1, 359634, Note_on_c, 0, 89, 64
1, 359634, Note_on_c, 0, 85, 64
1, 359637, Note_on_c, 0, 46, 63
1, 359693, Note_on_c, 0, 85, 0
1, 359693, Note_on_c, 0, 89, 0
1, 359693, Note_on_c, 0, 87, 63
1, 359712, Note_on_c, 0, 46, 0
1, 359712, Note_on_c, 0, 51, 55
1, 359751, Note_on_c, 0, 87, 0
1, 359751, Note_on_c, 0, 85, 62
1, 359790, Note_on_c, 0, 51, 0
1, 359790, Note_on_c, 0, 55, 55
1, 359809, Note_on_c, 0, 85, 0
1, 359809, Note_on_c, 0, 79, 60
1, 359868, Note_on_c, 0, 79, 0
1, 359868, Note_on_c, 0, 73, 59
1, 359868, Note_on_c, 0, 77, 59
1, 359871, Note_on_c, 0, 55, 0
1, 359871, Note_on_c, 0, 61, 62
1, 359926, Note_on_c, 0, 77, 0
1, 359926, Note_on_c, 0, 73, 0
1, 359926, Note_on_c, 0, 75, 58
1, 359984, Note_on_c, 0, 75, 0
1, 359984, Note_on_c, 0, 73, 56
1, 359984, Note_on_c, 0, 61, 0
1, 360043, Note_on_c, 0, 73, 0
1, 360043, Note_on_c, 0, 67, 55
1, 360165, Note_on_c, 0, 67, 0
1, 360165, Note_on_c, 0, 94, 64
1, 360165, Note_on_c, 0, 90, 64
1, 360168, Note_on_c, 0, 44, 63
1, 360176, Control_c, 0, 64, 0
1, 360212, Control_c, 0, 64, 127
1, 360224, Note_on_c, 0, 90, 0
1, 360224, Note_on_c, 0, 94, 0
1, 360224, Note_on_c, 0, 92, 63
1, 360227, Note_on_c, 0, 51, 59
1, 360243, Note_on_c, 0, 44, 0
1, 360282, Note_on_c, 0, 92, 0
1, 360282, Note_on_c, 0, 90, 62
1, 360282, Note_on_c, 0, 51, 0
1, 360285, Note_on_c, 0, 54, 59
1, 360341, Note_on_c, 0, 90, 0
1, 360341, Note_on_c, 0, 84, 60
1, 360341, Note_on_c, 0, 54, 0
1, 360344, Note_on_c, 0, 60, 59
1, 360400, Note_on_c, 0, 84, 0
1, 360400, Note_on_c, 0, 78, 59
1, 360400, Note_on_c, 0, 82, 59
1, 360403, Note_on_c, 0, 60, 0
1, 360403, Note_on_c, 0, 66, 62
1, 360459, Note_on_c, 0, 82, 0
1, 360459, Note_on_c, 0, 78, 0
1, 360459, Note_on_c, 0, 80, 58
1, 360518, Note_on_c, 0, 80, 0
1, 360518, Note_on_c, 0, 78, 56
1, 360518, Note_on_c, 0, 66, 0
1, 360576, Note_on_c, 0, 78, 0
1, 360576, Note_on_c, 0, 72, 55
1, 360703, Note_on_c, 0, 72, 0
1, 360703, Note_on_c, 0, 82, 64
1, 360703, Note_on_c, 0, 78, 64
1, 360706, Note_on_c, 0, 44, 62
1, 360761, Note_on_c, 0, 78, 0
1, 360761, Note_on_c, 0, 82, 0
1, 360761, Note_on_c, 0, 80, 63
1, 360780, Note_on_c, 0, 44, 0
1, 360780, Note_on_c, 0, 51, 57
1, 360819, Note_on_c, 0, 80, 0
1, 360819, Note_on_c, 0, 78, 62
1, 360858, Note_on_c, 0, 51, 0
1, 360858, Note_on_c, 0, 54, 57
1, 360878, Note_on_c, 0, 78, 0
1, 360878, Note_on_c, 0, 72, 60
1, 360936, Note_on_c, 0, 72, 0
1, 360936, Note_on_c, 0, 66, 59
1, 360936, Note_on_c, 0, 70, 59
1, 360939, Note_on_c, 0, 54, 0
1, 360939, Note_on_c, 0, 60, 62
1, 360994, Note_on_c, 0, 70, 0
1, 360994, Note_on_c, 0, 66, 0
1, 360994, Note_on_c, 0, 68, 58
1, 361053, Note_on_c, 0, 68, 0
1, 361053, Note_on_c, 0, 66, 56
1, 361053, Note_on_c, 0, 60, 0
1, 361111, Note_on_c, 0, 66, 0
1, 361111, Note_on_c, 0, 60, 55
1, 361229, Note_on_c, 0, 60, 0
1, 361229, Note_on_c, 0, 61, 60
1, 361229, Note_on_c, 0, 49, 51
1, 361232, Control_c, 0, 64, 0
1, 361293, Note_on_c, 0, 49, 0
1, 361293, Note_on_c, 0, 61, 0
1, 361357, Note_on_c, 0, 73, 58
1, 361357, Note_on_c, 0, 65, 49
1, 361357, Note_on_c, 0, 68, 49
1, 361360, Note_on_c, 0, 60, 60
1, 361360, Note_on_c, 0, 48, 51
1, 361420, Note_on_c, 0, 68, 0
1, 361420, Note_on_c, 0, 65, 0
1, 361420, Note_on_c, 0, 73, 0
1, 361423, Note_on_c, 0, 48, 0
1, 361423, Note_on_c, 0, 60, 0
1, 361484, Note_on_c, 0, 59, 61
1, 361484, Note_on_c, 0, 47, 51
1, 361547, Note_on_c, 0, 47, 0
1, 361547, Note_on_c, 0, 59, 0
1, 361610, Note_on_c, 0, 85, 60
1, 361610, Note_on_c, 0, 80, 51
1, 361610, Note_on_c, 0, 77, 51
1, 361613, Note_on_c, 0, 73, 51
1, 361613, Note_on_c, 0, 58, 62
1, 361613, Note_on_c, 0, 46, 52
1, 361673, Note_on_c, 0, 73, 0
1, 361673, Note_on_c, 0, 85, 0
1, 361673, Note_on_c, 0, 80, 0
1, 361676, Note_on_c, 0, 77, 0
1, 361676, Note_on_c, 0, 46, 0
1, 361676, Note_on_c, 0, 58, 0
1, 361735, Note_on_c, 0, 57, 63
1, 361735, Note_on_c, 0, 45, 53
1, 361798, Note_on_c, 0, 45, 0
1, 361798, Note_on_c, 0, 57, 0
1, 361860, Note_on_c, 0, 73, 62
1, 361860, Note_on_c, 0, 76, 62
1, 361860, Note_on_c, 0, 64, 52
1, 361863, Note_on_c, 0, 69, 52
1, 361863, Note_on_c, 0, 56, 64
1, 361863, Note_on_c, 0, 44, 54
1, 361922, Note_on_c, 0, 69, 0
1, 361922, Note_on_c, 0, 73, 0
1, 361922, Note_on_c, 0, 76, 0
1, 361925, Note_on_c, 0, 64, 0
1, 361925, Note_on_c, 0, 44, 0
1, 361925, Note_on_c, 0, 56, 0
1, 361984, Note_on_c, 0, 55, 64
1, 361984, Note_on_c, 0, 43, 54
1, 362045, Note_on_c, 0, 43, 0
1, 362045, Note_on_c, 0, 55, 0
1, 362107, Note_on_c, 0, 88, 64
1, 362107, Note_on_c, 0, 85, 54
1, 362107, Note_on_c, 0, 81, 54
1, 362110, Note_on_c, 0, 76, 54
1, 362110, Note_on_c, 0, 54, 65
1, 362110, Note_on_c, 0, 42, 55
1, 362168, Note_on_c, 0, 76, 0
1, 362168, Note_on_c, 0, 88, 0
1, 362168, Note_on_c, 0, 85, 0
1, 362171, Note_on_c, 0, 81, 0
1, 362171, Note_on_c, 0, 42, 0
1, 362171, Note_on_c, 0, 54, 0
1, 362229, Note_on_c, 0, 53, 70
1, 362229, Note_on_c, 0, 41, 64
1, 362350, Note_on_c, 0, 77, 66
1, 362350, Note_on_c, 0, 65, 56
1, 362350, Note_on_c, 0, 69, 56
1, 362353, Note_on_c, 0, 72, 56
1, 362353, Note_on_c, 0, 41, 0
1, 362353, Note_on_c, 0, 53, 0
1, 362356, Note_on_c, 0, 52, 67
1, 362356, Note_on_c, 0, 40, 56
1, 362411, Note_on_c, 0, 72, 0
1, 362411, Note_on_c, 0, 77, 0
1, 362411, Note_on_c, 0, 65, 0
1, 362414, Note_on_c, 0, 69, 0
1, 362473, Note_on_c, 0, 40, 0
1, 362473, Note_on_c, 0, 52, 0
1, 362473, Note_on_c, 0, 51, 69
1, 362476, Note_on_c, 0, 39, 58
1, 362595, Note_on_c, 0, 89, 68
1, 362595, Note_on_c, 0, 84, 57
1, 362595, Note_on_c, 0, 81, 57
1, 362598, Note_on_c, 0, 77, 57
1, 362657, Note_on_c, 0, 77, 0
1, 362657, Note_on_c, 0, 89, 0
1, 362657, Note_on_c, 0, 84, 0
1, 362660, Note_on_c, 0, 81, 0
1, 362719, Note_on_c, 0, 39, 0
1, 362719, Note_on_c, 0, 51, 0
1, 362719, Note_on_c, 0, 50, 76
1, 362722, Note_on_c, 0, 38, 67
1, 362843, Note_on_c, 0, 78, 70
1, 362843, Note_on_c, 0, 74, 59
1, 362843, Note_on_c, 0, 66, 59
1, 362846, Note_on_c, 0, 38, 0
1, 362846, Note_on_c, 0, 50, 0
1, 362846, Note_on_c, 0, 49, 73
1, 362849, Note_on_c, 0, 37, 62
1, 362905, Note_on_c, 0, 66, 0
1, 362905, Note_on_c, 0, 74, 0
1, 362905, Note_on_c, 0, 78, 0
1, 362968, Note_on_c, 0, 37, 0
1, 362968, Note_on_c, 0, 49, 0
1, 362968, Note_on_c, 0, 48, 74
1, 362971, Note_on_c, 0, 36, 62
1, 363094, Note_on_c, 0, 90, 72
1, 363094, Note_on_c, 0, 86, 72
1, 363094, Note_on_c, 0, 78, 61
1, 363163, Note_on_c, 0, 78, 0
1, 363163, Note_on_c, 0, 86, 0
1, 363163, Note_on_c, 0, 90, 0
1, 363230, Note_on_c, 0, 36, 0
1, 363230, Note_on_c, 0, 48, 0
1, 363230, Note_on_c, 0, 61, 72
1, 363233, Note_on_c, 0, 49, 61
1, 363292, Note_on_c, 0, 49, 0
1, 363292, Note_on_c, 0, 61, 0
1, 363354, Note_on_c, 0, 68, 58
1, 363354, Note_on_c, 0, 77, 69
1, 363354, Note_on_c, 0, 65, 58
1, 363357, Note_on_c, 0, 73, 58
1, 363357, Note_on_c, 0, 60, 72
1, 363357, Note_on_c, 0, 48, 61
1, 363416, Note_on_c, 0, 73, 0
1, 363416, Note_on_c, 0, 68, 0
1, 363416, Note_on_c, 0, 77, 0
1, 363419, Note_on_c, 0, 65, 0
1, 363419, Note_on_c, 0, 48, 0
1, 363419, Note_on_c, 0, 60, 0
1, 363477, Note_on_c, 0, 59, 73
1, 363477, Note_on_c, 0, 47, 61
1, 363538, Note_on_c, 0, 47, 0
1, 363538, Note_on_c, 0, 59, 0
1, 363599, Note_on_c, 0, 89, 72
1, 363599, Note_on_c, 0, 85, 61
1, 363599, Note_on_c, 0, 80, 61
1, 363602, Note_on_c, 0, 77, 61
1, 363602, Note_on_c, 0, 58, 74
1, 363602, Note_on_c, 0, 46, 62
1, 363660, Note_on_c, 0, 77, 0
1, 363660, Note_on_c, 0, 89, 0
1, 363660, Note_on_c, 0, 85, 0
1, 363663, Note_on_c, 0, 80, 0
1, 363663, Note_on_c, 0, 46, 0
1, 363663, Note_on_c, 0, 58, 0
1, 363721, Note_on_c, 0, 57, 75
1, 363721, Note_on_c, 0, 45, 63
1, 363782, Note_on_c, 0, 45, 0
1, 363782, Note_on_c, 0, 57, 0
1, 363842, Note_on_c, 0, 73, 74
1, 363842, Note_on_c, 0, 81, 74
1, 363842, Note_on_c, 0, 76, 62
1, 363845, Note_on_c, 0, 69, 62
1, 363845, Note_on_c, 0, 56, 76
1, 363845, Note_on_c, 0, 44, 64
1, 363902, Note_on_c, 0, 69, 0
1, 363902, Note_on_c, 0, 73, 0
1, 363902, Note_on_c, 0, 81, 0
1, 363905, Note_on_c, 0, 76, 0
1, 363905, Note_on_c, 0, 44, 0
1, 363905, Note_on_c, 0, 56, 0
1, 363963, Note_on_c, 0, 55, 76
1, 363963, Note_on_c, 0, 43, 64
1, 364023, Note_on_c, 0, 43, 0
1, 364023, Note_on_c, 0, 55, 0
1, 364082, Note_on_c, 0, 90, 76
1, 364082, Note_on_c, 0, 85, 64
1, 364082, Note_on_c, 0, 81, 64
1, 364085, Note_on_c, 0, 88, 64
1, 364085, Note_on_c, 0, 54, 78
1, 364085, Note_on_c, 0, 42, 66
1, 364142, Note_on_c, 0, 88, 0
1, 364142, Note_on_c, 0, 90, 0
1, 364142, Note_on_c, 0, 85, 0
1, 364145, Note_on_c, 0, 81, 0
1, 364145, Note_on_c, 0, 42, 0
1, 364145, Note_on_c, 0, 54, 0
1, 364202, Note_on_c, 0, 53, 83
1, 364202, Note_on_c, 0, 41, 77
1, 364320, Note_on_c, 0, 80, 79
1, 364320, Note_on_c, 0, 77, 67
1, 364320, Note_on_c, 0, 69, 67
1, 364323, Note_on_c, 0, 72, 67
1, 364323, Note_on_c, 0, 41, 0
1, 364323, Note_on_c, 0, 53, 0
1, 364326, Note_on_c, 0, 52, 80
1, 364326, Note_on_c, 0, 40, 67
1, 364380, Note_on_c, 0, 72, 0
1, 364380, Note_on_c, 0, 80, 0
1, 364380, Note_on_c, 0, 77, 0
1, 364383, Note_on_c, 0, 69, 0
1, 364440, Note_on_c, 0, 40, 0
1, 364440, Note_on_c, 0, 52, 0
1, 364440, Note_on_c, 0, 51, 82
1, 364443, Note_on_c, 0, 39, 69
1, 364560, Note_on_c, 0, 93, 81
1, 364560, Note_on_c, 0, 84, 68
1, 364560, Note_on_c, 0, 81, 68
1, 364563, Note_on_c, 0, 89, 68
1, 364621, Note_on_c, 0, 89, 0
1, 364621, Note_on_c, 0, 93, 0
1, 364621, Note_on_c, 0, 84, 0
1, 364624, Note_on_c, 0, 81, 0
1, 364681, Note_on_c, 0, 39, 0
1, 364681, Note_on_c, 0, 51, 0
1, 364681, Note_on_c, 0, 50, 90
1, 364684, Note_on_c, 0, 38, 81
1, 364804, Note_on_c, 0, 69, 70
1, 364804, Note_on_c, 0, 81, 84
1, 364804, Note_on_c, 0, 74, 70
1, 364807, Note_on_c, 0, 78, 70
1, 364807, Note_on_c, 0, 38, 0
1, 364807, Note_on_c, 0, 50, 0
1, 364810, Note_on_c, 0, 49, 87
1, 364810, Note_on_c, 0, 37, 74
1, 364865, Note_on_c, 0, 78, 0
1, 364865, Note_on_c, 0, 69, 0
1, 364865, Note_on_c, 0, 81, 0
1, 364868, Note_on_c, 0, 74, 0
1, 364927, Note_on_c, 0, 37, 0
1, 364927, Note_on_c, 0, 49, 0
1, 364927, Note_on_c, 0, 48, 88
1, 364930, Note_on_c, 0, 36, 74
1, 365050, Note_on_c, 0, 81, 86
1, 365050, Note_on_c, 0, 93, 86
1, 365050, Note_on_c, 0, 86, 86
1, 365053, Note_on_c, 0, 90, 73
1, 365118, Note_on_c, 0, 90, 0
1, 365118, Note_on_c, 0, 81, 0
1, 365118, Note_on_c, 0, 93, 0
1, 365121, Note_on_c, 0, 86, 0
1, 365184, Note_on_c, 0, 36, 0
1, 365184, Note_on_c, 0, 48, 0
1, 365184, Note_on_c, 0, 61, 72
1, 365187, Note_on_c, 0, 49, 61
1, 365244, Note_on_c, 0, 49, 0
1, 365244, Note_on_c, 0, 61, 0
1, 365304, Note_on_c, 0, 77, 58
1, 365304, Note_on_c, 0, 85, 69
1, 365304, Note_on_c, 0, 73, 58
1, 365307, Note_on_c, 0, 80, 58
1, 365307, Note_on_c, 0, 60, 72
1, 365307, Note_on_c, 0, 48, 61
1, 365364, Note_on_c, 0, 80, 0
1, 365364, Note_on_c, 0, 77, 0
1, 365364, Note_on_c, 0, 85, 0
1, 365367, Note_on_c, 0, 73, 0
1, 365367, Note_on_c, 0, 48, 0
1, 365367, Note_on_c, 0, 60, 0
1, 365423, Note_on_c, 0, 59, 73
1, 365423, Note_on_c, 0, 47, 61
1, 365482, Note_on_c, 0, 47, 0
1, 365482, Note_on_c, 0, 59, 0
1, 365542, Note_on_c, 0, 97, 72
1, 365542, Note_on_c, 0, 92, 61
1, 365542, Note_on_c, 0, 89, 61
1, 365545, Note_on_c, 0, 85, 61
1, 365545, Note_on_c, 0, 58, 74
1, 365545, Note_on_c, 0, 46, 62
1, 365601, Note_on_c, 0, 85, 0
1, 365601, Note_on_c, 0, 97, 0
1, 365601, Note_on_c, 0, 92, 0
1, 365604, Note_on_c, 0, 89, 0
1, 365604, Note_on_c, 0, 46, 0
1, 365604, Note_on_c, 0, 58, 0
1, 365660, Note_on_c, 0, 57, 75
1, 365660, Note_on_c, 0, 45, 63
1, 365719, Note_on_c, 0, 45, 0
1, 365719, Note_on_c, 0, 57, 0
1, 365777, Note_on_c, 0, 81, 74
1, 365777, Note_on_c, 0, 88, 74
1, 365777, Note_on_c, 0, 85, 62
1, 365780, Note_on_c, 0, 76, 62
1, 365780, Note_on_c, 0, 56, 76
1, 365780, Note_on_c, 0, 44, 64
1, 365836, Note_on_c, 0, 76, 0
1, 365836, Note_on_c, 0, 81, 0
1, 365836, Note_on_c, 0, 88, 0
1, 365839, Note_on_c, 0, 85, 0
1, 365839, Note_on_c, 0, 44, 0
1, 365839, Note_on_c, 0, 56, 0
1, 365895, Note_on_c, 0, 55, 76
1, 365895, Note_on_c, 0, 43, 64
1, 365953, Note_on_c, 0, 43, 0
1, 365953, Note_on_c, 0, 55, 0
1, 366011, Note_on_c, 0, 100, 76
1, 366011, Note_on_c, 0, 93, 64
1, 366011, Note_on_c, 0, 88, 64
1, 366014, Note_on_c, 0, 97, 64
1, 366014, Note_on_c, 0, 54, 78
1, 366014, Note_on_c, 0, 42, 66
1, 366069, Note_on_c, 0, 97, 0
1, 366069, Note_on_c, 0, 100, 0
1, 366069, Note_on_c, 0, 93, 0
1, 366072, Note_on_c, 0, 88, 0
1, 366072, Note_on_c, 0, 42, 0
1, 366072, Note_on_c, 0, 54, 0
1, 366127, Note_on_c, 0, 53, 83
1, 366127, Note_on_c, 0, 41, 78
1, 366243, Note_on_c, 0, 89, 79
1, 366243, Note_on_c, 0, 84, 67
1, 366243, Note_on_c, 0, 77, 67
1, 366246, Note_on_c, 0, 81, 67
1, 366246, Note_on_c, 0, 41, 0
1, 366246, Note_on_c, 0, 53, 0
1, 366249, Note_on_c, 0, 52, 80
1, 366249, Note_on_c, 0, 40, 67
1, 366301, Note_on_c, 0, 81, 0
1, 366301, Note_on_c, 0, 89, 0
1, 366301, Note_on_c, 0, 84, 0
1, 366304, Note_on_c, 0, 77, 0
1, 366358, Note_on_c, 0, 40, 0
1, 366358, Note_on_c, 0, 52, 0
1, 366358, Note_on_c, 0, 51, 82
1, 366361, Note_on_c, 0, 39, 69
1, 366378, Control_c, 0, 64, 127
1, 366473, Note_on_c, 0, 101, 81
1, 366473, Note_on_c, 0, 93, 68
1, 366473, Note_on_c, 0, 89, 68
1, 366476, Note_on_c, 0, 96, 68
1, 366530, Note_on_c, 0, 96, 0
1, 366530, Note_on_c, 0, 101, 0
1, 366530, Note_on_c, 0, 93, 0
1, 366533, Note_on_c, 0, 89, 0
1, 366550, Control_c, 0, 64, 0
1, 366587, Note_on_c, 0, 39, 0
1, 366587, Note_on_c, 0, 51, 0
1, 366587, Note_on_c, 0, 50, 88
1, 366590, Note_on_c, 0, 38, 82
1, 366701, Note_on_c, 0, 78, 70
1, 366701, Note_on_c, 0, 90, 84
1, 366701, Note_on_c, 0, 86, 70
1, 366704, Note_on_c, 0, 38, 0
1, 366704, Note_on_c, 0, 50, 0
1, 366704, Note_on_c, 0, 49, 87
1, 366707, Note_on_c, 0, 37, 74
1, 366757, Note_on_c, 0, 86, 0
1, 366757, Note_on_c, 0, 90, 0
1, 366757, Note_on_c, 0, 78, 0
1, 366814, Note_on_c, 0, 37, 0
1, 366814, Note_on_c, 0, 49, 0
1, 366814, Note_on_c, 0, 48, 88
1, 366817, Note_on_c, 0, 36, 74
1, 366856, Control_c, 0, 64, 127
1, 366928, Note_on_c, 0, 90, 73
1, 366928, Note_on_c, 0, 102, 73
1, 366928, Note_on_c, 0, 98, 73
1, 366997, Note_on_c, 0, 98, 0
1, 366997, Note_on_c, 0, 102, 0
1, 366997, Note_on_c, 0, 90, 0
1, 367058, Note_on_c, 0, 36, 0
1, 367058, Note_on_c, 0, 48, 0
1, 367058, Note_on_c, 0, 47, 87
1, 367061, Note_on_c, 0, 35, 73
1, 367061, Control_c, 0, 64, 0
1, 367091, Control_c, 0, 64, 127
1, 367115, Note_on_c, 0, 35, 0
1, 367115, Note_on_c, 0, 47, 0
1, 367173, Note_on_c, 0, 90, 89
1, 367173, Note_on_c, 0, 78, 75
1, 367173, Note_on_c, 0, 83, 75
1, 367176, Note_on_c, 0, 87, 75
1, 367176, Note_on_c, 0, 46, 88
1, 367176, Note_on_c, 0, 34, 74
1, 367231, Note_on_c, 0, 87, 0
1, 367231, Note_on_c, 0, 90, 0
1, 367231, Note_on_c, 0, 78, 0
1, 367234, Note_on_c, 0, 83, 0
1, 367234, Note_on_c, 0, 34, 0
1, 367234, Note_on_c, 0, 46, 0
1, 367291, Note_on_c, 0, 45, 90
1, 367291, Note_on_c, 0, 33, 76
1, 367351, Note_on_c, 0, 33, 0
1, 367351, Note_on_c, 0, 45, 0
1, 367413, Note_on_c, 0, 102, 92
1, 367413, Note_on_c, 0, 99, 78
1, 367413, Note_on_c, 0, 95, 78
1, 367416, Note_on_c, 0, 90, 78
1, 367416, Note_on_c, 0, 44, 91
1, 367416, Note_on_c, 0, 32, 77
1, 367430, Control_c, 0, 64, 0
1, 367469, Control_c, 0, 64, 127
1, 367475, Note_on_c, 0, 90, 0
1, 367475, Note_on_c, 0, 102, 0
1, 367475, Note_on_c, 0, 99, 0
1, 367478, Note_on_c, 0, 95, 0
1, 367478, Note_on_c, 0, 32, 0
1, 367478, Note_on_c, 0, 44, 0
1, 367539, Note_on_c, 0, 43, 93
1, 367539, Note_on_c, 0, 31, 79
1, 367604, Note_on_c, 0, 31, 0
1, 367604, Note_on_c, 0, 43, 0
1, 367670, Note_on_c, 0, 91, 94
1, 367670, Note_on_c, 0, 86, 94
1, 367670, Note_on_c, 0, 83, 79
1, 367673, Note_on_c, 0, 79, 79
1, 367673, Note_on_c, 0, 42, 94
1, 367673, Note_on_c, 0, 30, 79
1, 367737, Note_on_c, 0, 79, 0
1, 367737, Note_on_c, 0, 91, 0
1, 367737, Note_on_c, 0, 86, 0
1, 367740, Note_on_c, 0, 83, 0
1, 367740, Note_on_c, 0, 30, 0
1, 367740, Note_on_c, 0, 42, 0
1, 367805, Note_on_c, 0, 41, 96
1, 367805, Note_on_c, 0, 29, 81
1, 367946, Note_on_c, 0, 103, 97
1, 367946, Note_on_c, 0, 95, 82
1, 367946, Note_on_c, 0, 91, 82
1, 367949, Note_on_c, 0, 98, 82
1, 368098, Note_on_c, 0, 98, 0
1, 368098, Note_on_c, 0, 103, 0
1, 368098, Note_on_c, 0, 95, 0
1, 368101, Note_on_c, 0, 91, 0
1, 368250, Note_on_c, 0, 92, 100
1, 368250, Note_on_c, 0, 80, 85
1, 368250, Note_on_c, 0, 88, 85
1, 368253, Note_on_c, 0, 29, 0
1, 368253, Note_on_c, 0, 41, 0
1, 368253, Note_on_c, 0, 40, 102
1, 368256, Note_on_c, 0, 28, 86
1, 368256, Control_c, 0, 64, 0
1, 368316, Control_c, 0, 64, 127
1, 368399, Note_on_c, 0, 88, 0
1, 368399, Note_on_c, 0, 80, 0
1, 368399, Note_on_c, 0, 92, 0
1, 368402, Note_on_c, 0, 28, 0
1, 368402, Note_on_c, 0, 40, 0
1, 368548, Note_on_c, 0, 92, 100
1, 368548, Note_on_c, 0, 80, 85
1, 368548, Note_on_c, 0, 88, 85
1, 368551, Note_on_c, 0, 59, 96
1, 368551, Note_on_c, 0, 47, 81
1, 368697, Note_on_c, 0, 88, 0
1, 368697, Note_on_c, 0, 80, 0
1, 368697, Note_on_c, 0, 92, 0
1, 368700, Note_on_c, 0, 47, 0
1, 368700, Note_on_c, 0, 59, 0
1, 368847, Note_on_c, 0, 92, 107
1, 368847, Note_on_c, 0, 88, 90
1, 368847, Note_on_c, 0, 80, 90
1, 368850, Note_on_c, 0, 52, 97
1, 368850, Note_on_c, 0, 40, 82
1, 368996, Note_on_c, 0, 40, 0
1, 368996, Note_on_c, 0, 52, 0
1, 369145, Note_on_c, 0, 80, 0
1, 369145, Note_on_c, 0, 88, 0
1, 369145, Note_on_c, 0, 92, 0
1, 369148, Note_on_c, 0, 90, 100
1, 369148, Note_on_c, 0, 87, 85
1, 369148, Note_on_c, 0, 78, 85
1, 369151, Note_on_c, 0, 71, 94
1, 369151, Note_on_c, 0, 59, 79
1, 369215, Note_on_c, 0, 78, 0
1, 369215, Note_on_c, 0, 87, 0
1, 369215, Note_on_c, 0, 90, 0
1, 369285, Note_on_c, 0, 88, 100
1, 369285, Note_on_c, 0, 76, 85
1, 369285, Note_on_c, 0, 85, 85
1, 369288, Note_on_c, 0, 59, 0
1, 369288, Note_on_c, 0, 71, 0
1, 369354, Note_on_c, 0, 85, 0
1, 369354, Note_on_c, 0, 76, 0
1, 369354, Note_on_c, 0, 88, 0
1, 369424, Note_on_c, 0, 87, 85
1, 369424, Note_on_c, 0, 75, 85
1, 369424, Note_on_c, 0, 83, 85
1, 369427, Note_on_c, 0, 40, 102
1, 369427, Note_on_c, 0, 28, 86
1, 369427, Control_c, 0, 64, 0
1, 369486, Control_c, 0, 64, 127
1, 369500, Note_on_c, 0, 83, 0
1, 369500, Note_on_c, 0, 75, 0
1, 369500, Note_on_c, 0, 87, 0
1, 369575, Note_on_c, 0, 88, 102
1, 369575, Note_on_c, 0, 76, 86
1, 369575, Note_on_c, 0, 85, 86
1, 369578, Note_on_c, 0, 28, 0
1, 369578, Note_on_c, 0, 40, 0
1, 369650, Note_on_c, 0, 85, 0
1, 369650, Note_on_c, 0, 76, 0
1, 369650, Note_on_c, 0, 88, 0
1, 369726, Note_on_c, 0, 90, 105
1, 369726, Note_on_c, 0, 78, 89
1, 369726, Note_on_c, 0, 87, 89
1, 369729, Note_on_c, 0, 59, 96
1, 369729, Note_on_c, 0, 47, 81
1, 369801, Note_on_c, 0, 87, 0
1, 369801, Note_on_c, 0, 78, 0
1, 369801, Note_on_c, 0, 90, 0
1, 369877, Note_on_c, 0, 47, 0
1, 369877, Note_on_c, 0, 59, 0
1, 370027, Note_on_c, 0, 92, 107
1, 370027, Note_on_c, 0, 88, 90
1, 370027, Note_on_c, 0, 80, 90
1, 370030, Note_on_c, 0, 52, 97
1, 370030, Note_on_c, 0, 40, 82
1, 370178, Note_on_c, 0, 40, 0
1, 370178, Note_on_c, 0, 52, 0
1, 370329, Note_on_c, 0, 80, 0
1, 370329, Note_on_c, 0, 88, 0
1, 370329, Note_on_c, 0, 92, 0
1, 370332, Note_on_c, 0, 90, 100
1, 370332, Note_on_c, 0, 78, 85
1, 370332, Note_on_c, 0, 87, 85
1, 370335, Note_on_c, 0, 71, 94
1, 370335, Note_on_c, 0, 59, 79
1, 370399, Note_on_c, 0, 87, 0
1, 370399, Note_on_c, 0, 78, 0
1, 370399, Note_on_c, 0, 90, 0
1, 370470, Note_on_c, 0, 88, 100
1, 370470, Note_on_c, 0, 76, 85
1, 370470, Note_on_c, 0, 85, 85
1, 370473, Note_on_c, 0, 59, 0
1, 370473, Note_on_c, 0, 71, 0
1, 370540, Note_on_c, 0, 85, 0
1, 370540, Note_on_c, 0, 76, 0
1, 370540, Note_on_c, 0, 88, 0
1, 370610, Note_on_c, 0, 87, 104
1, 370610, Note_on_c, 0, 75, 88
1, 370610, Note_on_c, 0, 83, 88
1, 370613, Note_on_c, 0, 40, 102
1, 370613, Note_on_c, 0, 28, 86
1, 370613, Control_c, 0, 64, 0
1, 370668, Control_c, 0, 64, 127
1, 370685, Note_on_c, 0, 83, 0
1, 370685, Note_on_c, 0, 75, 0
1, 370685, Note_on_c, 0, 87, 0
1, 370760, Note_on_c, 0, 88, 98
1, 370760, Note_on_c, 0, 76, 83
1, 370760, Note_on_c, 0, 85, 83
1, 370763, Note_on_c, 0, 28, 0
1, 370763, Note_on_c, 0, 40, 0
1, 370834, Note_on_c, 0, 85, 0
1, 370834, Note_on_c, 0, 76, 0
1, 370834, Note_on_c, 0, 88, 0
1, 370909, Note_on_c, 0, 90, 100
1, 370909, Note_on_c, 0, 78, 85
1, 370909, Note_on_c, 0, 87, 85
1, 370912, Note_on_c, 0, 59, 96
1, 370912, Note_on_c, 0, 47, 81
1, 370984, Note_on_c, 0, 87, 0
1, 370984, Note_on_c, 0, 78, 0
1, 370984, Note_on_c, 0, 90, 0
1, 371058, Note_on_c, 0, 47, 0
1, 371058, Note_on_c, 0, 59, 0
1, 371208, Note_on_c, 0, 92, 105
1, 371208, Note_on_c, 0, 88, 89
1, 371208, Note_on_c, 0, 80, 89
1, 371211, Note_on_c, 0, 52, 97
1, 371211, Note_on_c, 0, 40, 82
1, 371357, Note_on_c, 0, 40, 0
1, 371357, Note_on_c, 0, 52, 0
1, 371506, Note_on_c, 0, 80, 0
1, 371506, Note_on_c, 0, 88, 0
1, 371506, Note_on_c, 0, 92, 0
1, 371509, Note_on_c, 0, 90, 101
1, 371509, Note_on_c, 0, 78, 85
1, 371509, Note_on_c, 0, 87, 85
1, 371512, Note_on_c, 0, 71, 94
1, 371512, Note_on_c, 0, 59, 79
1, 371576, Note_on_c, 0, 87, 0
1, 371576, Note_on_c, 0, 78, 0
1, 371576, Note_on_c, 0, 90, 0
1, 371647, Note_on_c, 0, 88, 101
1, 371647, Note_on_c, 0, 76, 85
1, 371647, Note_on_c, 0, 85, 85
1, 371650, Note_on_c, 0, 59, 0
1, 371650, Note_on_c, 0, 71, 0
1, 371717, Note_on_c, 0, 85, 0
1, 371717, Note_on_c, 0, 76, 0
1, 371717, Note_on_c, 0, 88, 0
1, 371788, Note_on_c, 0, 87, 99
1, 371788, Note_on_c, 0, 75, 84
1, 371788, Note_on_c, 0, 83, 84
1, 371791, Note_on_c, 0, 47, 102
1, 371791, Note_on_c, 0, 35, 86
1, 371791, Control_c, 0, 64, 0
1, 371862, Note_on_c, 0, 83, 0
1, 371862, Note_on_c, 0, 75, 0
1, 371862, Note_on_c, 0, 87, 0
1, 371870, Control_c, 0, 64, 127
1, 371936, Note_on_c, 0, 88, 101
1, 371936, Note_on_c, 0, 76, 85
1, 371936, Note_on_c, 0, 85, 85
1, 371939, Note_on_c, 0, 35, 0
1, 371939, Note_on_c, 0, 47, 0
1, 372009, Note_on_c, 0, 85, 0
1, 372009, Note_on_c, 0, 76, 0
1, 372009, Note_on_c, 0, 88, 0
1, 372083, Note_on_c, 0, 90, 104
1, 372083, Note_on_c, 0, 78, 88
1, 372083, Note_on_c, 0, 87, 88
1, 372086, Note_on_c, 0, 66, 96
1, 372086, Note_on_c, 0, 54, 81
1, 372157, Note_on_c, 0, 87, 0
1, 372157, Note_on_c, 0, 78, 0
1, 372157, Note_on_c, 0, 90, 0
1, 372231, Note_on_c, 0, 92, 107
1, 372231, Note_on_c, 0, 80, 90
1, 372231, Note_on_c, 0, 54, 0
1, 372234, Note_on_c, 0, 66, 0
1, 372305, Note_on_c, 0, 80, 0
1, 372305, Note_on_c, 0, 92, 0
1, 372377, Note_on_c, 0, 90, 107
1, 372377, Note_on_c, 0, 85, 90
1, 372377, Note_on_c, 0, 78, 90
1, 372380, Note_on_c, 0, 45, 97
1, 372380, Note_on_c, 0, 33, 82
1, 372449, Note_on_c, 0, 78, 0
1, 372449, Note_on_c, 0, 85, 0
1, 372449, Note_on_c, 0, 90, 0
1, 372522, Note_on_c, 0, 88, 106
1, 372522, Note_on_c, 0, 76, 90
1, 372522, Note_on_c, 0, 33, 0
1, 372525, Note_on_c, 0, 45, 0
1, 372596, Note_on_c, 0, 76, 0
1, 372596, Note_on_c, 0, 88, 0
1, 372671, Note_on_c, 0, 87, 104
1, 372671, Note_on_c, 0, 75, 88
1, 372671, Note_on_c, 0, 66, 94
1, 372674, Note_on_c, 0, 54, 79
1, 372747, Note_on_c, 0, 75, 0
1, 372747, Note_on_c, 0, 87, 0
1, 372824, Note_on_c, 0, 85, 102
1, 372824, Note_on_c, 0, 73, 86
1, 372824, Note_on_c, 0, 54, 0
1, 372827, Note_on_c, 0, 66, 0
1, 372902, Note_on_c, 0, 73, 0
1, 372902, Note_on_c, 0, 85, 0
1, 372980, Note_on_c, 0, 89, 103
1, 372980, Note_on_c, 0, 77, 87
1, 372980, Note_on_c, 0, 80, 87
1, 372983, Note_on_c, 0, 85, 87
1, 372983, Note_on_c, 0, 44, 104
1, 372983, Note_on_c, 0, 32, 88
1, 373017, Control_c, 0, 64, 0
1, 373060, Control_c, 0, 64, 127
1, 373139, Note_on_c, 0, 32, 0
1, 373139, Note_on_c, 0, 44, 0
1, 373139, Note_on_c, 0, 55, 88
1, 373142, Note_on_c, 0, 43, 74
1, 373310, Note_on_c, 0, 43, 0
1, 373310, Note_on_c, 0, 55, 0
1, 373310, Note_on_c, 0, 56, 94
1, 373313, Note_on_c, 0, 44, 79
1, 373482, Note_on_c, 0, 44, 0
1, 373482, Note_on_c, 0, 56, 0
1, 373482, Note_on_c, 0, 67, 94
1, 373485, Note_on_c, 0, 55, 79
1, 373568, Note_on_c, 0, 85, 0
1, 373568, Note_on_c, 0, 89, 0
1, 373568, Note_on_c, 0, 77, 0
1, 373571, Note_on_c, 0, 80, 0
1, 373571, Note_on_c, 0, 87, 101
1, 373571, Note_on_c, 0, 75, 85
1, 373648, Control_c, 0, 64, 0
1, 373653, Note_on_c, 0, 75, 0
1, 373653, Note_on_c, 0, 87, 0
1, 373653, Note_on_c, 0, 84, 92
1, 373656, Note_on_c, 0, 90, 109
1, 373656, Note_on_c, 0, 78, 92
1, 373656, Note_on_c, 0, 55, 0
1, 373659, Note_on_c, 0, 67, 0
1, 373659, Note_on_c, 0, 68, 99
1, 373659, Note_on_c, 0, 56, 84
1, 373700, Control_c, 0, 64, 127
1, 373812, Note_on_c, 0, 56, 0
1, 373812, Note_on_c, 0, 68, 0
1, 373812, Note_on_c, 0, 55, 89
1, 373815, Note_on_c, 0, 43, 75
1, 373982, Note_on_c, 0, 43, 0
1, 373982, Note_on_c, 0, 55, 0
1, 373982, Note_on_c, 0, 56, 93
1, 373985, Note_on_c, 0, 44, 79
1, 374151, Note_on_c, 0, 78, 0
1, 374151, Note_on_c, 0, 90, 0
1, 374151, Note_on_c, 0, 84, 0
1, 374154, Note_on_c, 0, 84, 101
1, 374154, Note_on_c, 0, 72, 85
1, 374308, Note_on_c, 0, 72, 0
1, 374308, Note_on_c, 0, 84, 0
1, 374308, Note_on_c, 0, 87, 107
1, 374311, Note_on_c, 0, 75, 90
1, 374311, Note_on_c, 0, 44, 0
1, 374311, Note_on_c, 0, 56, 0
1, 374314, Note_on_c, 0, 44, 101
1, 374314, Note_on_c, 0, 32, 85
1, 374314, Control_c, 0, 64, 0
1, 374389, Note_on_c, 0, 75, 0
1, 374389, Note_on_c, 0, 87, 0
1, 374389, Control_c, 0, 64, 127
1, 374471, Note_on_c, 0, 32, 0
1, 374471, Note_on_c, 0, 44, 0
1, 374471, Note_on_c, 0, 55, 88
1, 374474, Note_on_c, 0, 43, 74
1, 374633, Note_on_c, 0, 85, 98
1, 374633, Note_on_c, 0, 73, 83
1, 374633, Note_on_c, 0, 77, 83
1, 374636, Note_on_c, 0, 80, 83
1, 374636, Note_on_c, 0, 43, 0
1, 374636, Note_on_c, 0, 55, 0
1, 374639, Note_on_c, 0, 56, 94
1, 374639, Note_on_c, 0, 44, 79
1, 374795, Note_on_c, 0, 44, 0
1, 374795, Note_on_c, 0, 56, 0
1, 374795, Note_on_c, 0, 67, 94
1, 374798, Note_on_c, 0, 55, 79
1, 374957, Note_on_c, 0, 55, 0
1, 374957, Note_on_c, 0, 67, 0
1, 374957, Note_on_c, 0, 68, 99
1, 374960, Note_on_c, 0, 56, 84
1, 375119, Note_on_c, 0, 56, 0
1, 375119, Note_on_c, 0, 68, 0
1, 375119, Note_on_c, 0, 55, 89
1, 375122, Note_on_c, 0, 43, 75
1, 375282, Note_on_c, 0, 80, 0
1, 375282, Note_on_c, 0, 85, 0
1, 375282, Note_on_c, 0, 73, 0
1, 375285, Note_on_c, 0, 77, 0
1, 375285, Note_on_c, 0, 85, 98
1, 375285, Note_on_c, 0, 73, 83
1, 375288, Note_on_c, 0, 77, 83
1, 375288, Note_on_c, 0, 43, 0
1, 375288, Note_on_c, 0, 55, 0
1, 375291, Note_on_c, 0, 56, 93
1, 375291, Note_on_c, 0, 44, 79
1, 375291, Control_c, 0, 64, 0
1, 375356, Control_c, 0, 64, 127
1, 375451, Note_on_c, 0, 77, 0
1, 375451, Note_on_c, 0, 73, 0
1, 375451, Note_on_c, 0, 85, 0
1, 375621, Note_on_c, 0, 94, 108
1, 375621, Note_on_c, 0, 82, 91
1, 375621, Note_on_c, 0, 85, 91
1, 375624, Note_on_c, 0, 44, 0
1, 375624, Note_on_c, 0, 56, 0
1, 375624, Note_on_c, 0, 44, 107
1, 375627, Note_on_c, 0, 32, 90
1, 375627, Control_c, 0, 64, 0
1, 375725, Control_c, 0, 64, 127
1, 375790, Note_on_c, 0, 85, 0
1, 375790, Note_on_c, 0, 82, 0
1, 375790, Note_on_c, 0, 94, 0
1, 375793, Note_on_c, 0, 32, 0
1, 375793, Note_on_c, 0, 44, 0
1, 375793, Note_on_c, 0, 57, 88
1, 375796, Note_on_c, 0, 45, 74
1, 375954, Note_on_c, 0, 94, 105
1, 375954, Note_on_c, 0, 82, 89
1, 375954, Note_on_c, 0, 85, 89
1, 375957, Note_on_c, 0, 45, 0
1, 375957, Note_on_c, 0, 57, 0
1, 375957, Note_on_c, 0, 58, 94
1, 375960, Note_on_c, 0, 46, 79
1, 376016, Control_c, 0, 64, 0
1, 376087, Control_c, 0, 64, 127
1, 376118, Note_on_c, 0, 85, 0
1, 376118, Note_on_c, 0, 82, 0
1, 376118, Note_on_c, 0, 94, 0
1, 376294, Note_on_c, 0, 92, 108
1, 376294, Note_on_c, 0, 80, 91
1, 376294, Note_on_c, 0, 83, 91
1, 376297, Note_on_c, 0, 86, 91
1, 376297, Note_on_c, 0, 46, 0
1, 376297, Note_on_c, 0, 58, 0
1, 376300, Note_on_c, 0, 41, 106
1, 376300, Note_on_c, 0, 29, 90
1, 376368, Control_c, 0, 64, 0
1, 376444, Control_c, 0, 64, 127
1, 376469, Note_on_c, 0, 29, 0
1, 376469, Note_on_c, 0, 41, 0
1, 376469, Note_on_c, 0, 61, 89
1, 376472, Note_on_c, 0, 49, 75
1, 376633, Note_on_c, 0, 49, 0
1, 376633, Note_on_c, 0, 61, 0
1, 376633, Note_on_c, 0, 62, 93
1, 376636, Note_on_c, 0, 50, 79
1, 376695, Control_c, 0, 64, 0
1, 376749, Control_c, 0, 64, 127
1, 376971, Note_on_c, 0, 86, 0
1, 376971, Note_on_c, 0, 92, 0
1, 376971, Note_on_c, 0, 80, 0
1, 376974, Note_on_c, 0, 83, 0
1, 376974, Note_on_c, 0, 90, 100
1, 376974, Note_on_c, 0, 78, 85
1, 376977, Note_on_c, 0, 82, 85
1, 376977, Note_on_c, 0, 50, 0
1, 376977, Note_on_c, 0, 62, 0
1, 376980, Note_on_c, 0, 39, 115
1, 376980, Note_on_c, 0, 27, 97
1, 376980, Control_c, 0, 64, 0
1, 377077, Control_c, 0, 64, 127
1, 377144, Note_on_c, 0, 82, 0
1, 377144, Note_on_c, 0, 78, 0
1, 377144, Note_on_c, 0, 90, 0
1, 377147, Note_on_c, 0, 27, 0
1, 377147, Note_on_c, 0, 39, 0
1, 377147, Note_on_c, 0, 57, 88
1, 377150, Note_on_c, 0, 45, 74
1, 377308, Note_on_c, 0, 90, 105
1, 377308, Note_on_c, 0, 78, 89
1, 377308, Note_on_c, 0, 82, 89
1, 377311, Note_on_c, 0, 45, 0
1, 377311, Note_on_c, 0, 57, 0
1, 377311, Note_on_c, 0, 58, 94
1, 377314, Note_on_c, 0, 46, 79
1, 377472, Note_on_c, 0, 46, 0
1, 377472, Note_on_c, 0, 58, 0
1, 377472, Note_on_c, 0, 69, 94
1, 377475, Note_on_c, 0, 57, 79
1, 377645, Note_on_c, 0, 57, 0
1, 377645, Note_on_c, 0, 69, 0
1, 377645, Note_on_c, 0, 70, 99
1, 377648, Note_on_c, 0, 58, 84
1, 377817, Note_on_c, 0, 58, 0
1, 377817, Note_on_c, 0, 70, 0
1, 377817, Note_on_c, 0, 57, 89
1, 377820, Note_on_c, 0, 45, 75
1, 377988, Note_on_c, 0, 82, 0
1, 377988, Note_on_c, 0, 78, 0
1, 377988, Note_on_c, 0, 90, 0
1, 377991, Note_on_c, 0, 90, 102
1, 377991, Note_on_c, 0, 78, 86
1, 377991, Note_on_c, 0, 82, 86
1, 377994, Note_on_c, 0, 45, 0
1, 377994, Note_on_c, 0, 57, 0
1, 377994, Note_on_c, 0, 58, 93
1, 377997, Note_on_c, 0, 46, 79
1, 378024, Control_c, 0, 64, 0
1, 378103, Control_c, 0, 64, 127
1, 378361, Note_on_c, 0, 82, 0
1, 378361, Note_on_c, 0, 78, 0
1, 378361, Note_on_c, 0, 90, 0
1, 378364, Note_on_c, 0, 97, 111
1, 378364, Note_on_c, 0, 85, 94
1, 378364, Note_on_c, 0, 94, 94
1, 378367, Note_on_c, 0, 46, 0
1, 378367, Note_on_c, 0, 58, 0
1, 378367, Note_on_c, 0, 42, 108
1, 378370, Note_on_c, 0, 30, 91
1, 378370, Control_c, 0, 64, 0
1, 378465, Control_c, 0, 64, 127
1, 378539, Note_on_c, 0, 30, 0
1, 378539, Note_on_c, 0, 42, 0
1, 378539, Note_on_c, 0, 60, 88
1, 378542, Note_on_c, 0, 48, 74
1, 378706, Note_on_c, 0, 94, 0
1, 378706, Note_on_c, 0, 85, 0
1, 378706, Note_on_c, 0, 97, 0
1, 378709, Note_on_c, 0, 97, 104
1, 378709, Note_on_c, 0, 85, 88
1, 378709, Note_on_c, 0, 94, 88
1, 378712, Note_on_c, 0, 48, 0
1, 378712, Note_on_c, 0, 60, 0
1, 378712, Note_on_c, 0, 61, 94
1, 378715, Note_on_c, 0, 49, 79
1, 378874, Note_on_c, 0, 49, 0
1, 378874, Note_on_c, 0, 61, 0
1, 378874, Note_on_c, 0, 72, 94
1, 378877, Note_on_c, 0, 60, 79
1, 379063, Note_on_c, 0, 94, 0
1, 379063, Note_on_c, 0, 85, 0
1, 379063, Note_on_c, 0, 97, 0
1, 379066, Note_on_c, 0, 96, 110
1, 379066, Note_on_c, 0, 84, 93
1, 379066, Note_on_c, 0, 92, 93
1, 379069, Note_on_c, 0, 60, 0
1, 379069, Note_on_c, 0, 72, 0
1, 379069, Note_on_c, 0, 73, 99
1, 379072, Note_on_c, 0, 61, 84
1, 379252, Note_on_c, 0, 61, 0
1, 379252, Note_on_c, 0, 73, 0
1, 379252, Note_on_c, 0, 60, 89
1, 379255, Note_on_c, 0, 48, 75
1, 379427, Note_on_c, 0, 92, 0
1, 379427, Note_on_c, 0, 84, 0
1, 379427, Note_on_c, 0, 96, 0
1, 379430, Note_on_c, 0, 94, 102
1, 379430, Note_on_c, 0, 82, 86
1, 379430, Note_on_c, 0, 90, 86
1, 379433, Note_on_c, 0, 48, 0
1, 379433, Note_on_c, 0, 60, 0
1, 379433, Note_on_c, 0, 61, 93
1, 379436, Note_on_c, 0, 49, 79
1, 379801, Note_on_c, 0, 90, 0
1, 379801, Note_on_c, 0, 82, 0
1, 379801, Note_on_c, 0, 94, 0
1, 379804, Note_on_c, 0, 92, 103
1, 379804, Note_on_c, 0, 80, 87
1, 379804, Note_on_c, 0, 89, 87
1, 379807, Note_on_c, 0, 49, 0
1, 379807, Note_on_c, 0, 61, 0
1, 379807, Note_on_c, 0, 44, 105
1, 379810, Note_on_c, 0, 32, 89
1, 379810, Control_c, 0, 64, 0
1, 379897, Control_c, 0, 64, 127
1, 379983, Note_on_c, 0, 89, 0
1, 379983, Note_on_c, 0, 80, 0
1, 379983, Note_on_c, 0, 92, 0
1, 379986, Note_on_c, 0, 32, 0
1, 379986, Note_on_c, 0, 44, 0
1, 379986, Note_on_c, 0, 55, 88
1, 379989, Note_on_c, 0, 43, 74
1, 380179, Note_on_c, 0, 92, 106
1, 380179, Note_on_c, 0, 80, 90
1, 380179, Note_on_c, 0, 85, 90
1, 380182, Note_on_c, 0, 89, 90
1, 380182, Note_on_c, 0, 43, 0
1, 380182, Note_on_c, 0, 55, 0
1, 380185, Note_on_c, 0, 56, 94
1, 380185, Note_on_c, 0, 44, 79
1, 380376, Note_on_c, 0, 44, 0
1, 380376, Note_on_c, 0, 56, 0
1, 380376, Note_on_c, 0, 67, 94
1, 380379, Note_on_c, 0, 55, 79
1, 380555, Note_on_c, 0, 55, 0
1, 380555, Note_on_c, 0, 67, 0
1, 380555, Note_on_c, 0, 68, 99
1, 380558, Note_on_c, 0, 56, 84
1, 380754, Note_on_c, 0, 56, 0
1, 380754, Note_on_c, 0, 68, 0
1, 380782, Control_c, 0, 64, 0
1, 380953, Note_on_c, 0, 89, 0
1, 380953, Note_on_c, 0, 92, 0
1, 380953, Note_on_c, 0, 80, 0
1, 380956, Note_on_c, 0, 85, 0
1, 381135, Note_on_c, 0, 93, 102
1, 381135, Note_on_c, 0, 81, 86
1, 381135, Note_on_c, 0, 65, 79
1, 381138, Note_on_c, 0, 77, 79
1, 381317, Note_on_c, 0, 81, 0
1, 381317, Note_on_c, 0, 93, 0
1, 381317, Note_on_c, 0, 94, 109
1, 381320, Note_on_c, 0, 82, 92
1, 381320, Note_on_c, 0, 77, 0
1, 381320, Note_on_c, 0, 65, 0
1, 381323, Note_on_c, 0, 78, 100
1, 381323, Note_on_c, 0, 66, 85
1, 381499, Note_on_c, 0, 82, 0
1, 381499, Note_on_c, 0, 94, 0
1, 381499, Note_on_c, 0, 66, 0
1, 381502, Note_on_c, 0, 78, 0
1, 381862, Note_on_c, 0, 89, 96
1, 381862, Note_on_c, 0, 77, 81
1, 381862, Note_on_c, 0, 74, 72
1, 381865, Note_on_c, 0, 62, 60
1, 381865, Control_c, 0, 64, 127
1, 382044, Note_on_c, 0, 77, 0
1, 382044, Note_on_c, 0, 89, 0
1, 382044, Note_on_c, 0, 90, 102
1, 382047, Note_on_c, 0, 78, 86
1, 382047, Note_on_c, 0, 62, 0
1, 382047, Note_on_c, 0, 74, 0
1, 382050, Note_on_c, 0, 75, 76
1, 382050, Note_on_c, 0, 63, 64
1, 382214, Note_on_c, 0, 78, 0
1, 382214, Note_on_c, 0, 90, 0
1, 382214, Note_on_c, 0, 86, 93
1, 382217, Note_on_c, 0, 74, 79
1, 382217, Note_on_c, 0, 63, 0
1, 382217, Note_on_c, 0, 75, 0
1, 382220, Note_on_c, 0, 71, 69
1, 382220, Note_on_c, 0, 59, 59
1, 382228, Control_c, 0, 64, 0
1, 382292, Control_c, 0, 64, 127
1, 382375, Note_on_c, 0, 74, 0
1, 382375, Note_on_c, 0, 86, 0
1, 382375, Note_on_c, 0, 87, 100
1, 382378, Note_on_c, 0, 75, 85
1, 382378, Note_on_c, 0, 59, 0
1, 382378, Note_on_c, 0, 71, 0
1, 382381, Note_on_c, 0, 72, 75
1, 382381, Note_on_c, 0, 60, 63
1, 382529, Note_on_c, 0, 75, 0
1, 382529, Note_on_c, 0, 87, 0
1, 382529, Note_on_c, 0, 83, 93
1, 382532, Note_on_c, 0, 71, 79
1, 382532, Note_on_c, 0, 60, 0
1, 382532, Note_on_c, 0, 72, 0
1, 382535, Note_on_c, 0, 67, 69
1, 382535, Note_on_c, 0, 55, 59
1, 382535, Control_c, 0, 64, 0
1, 382601, Control_c, 0, 64, 127
1, 382678, Note_on_c, 0, 71, 0
1, 382678, Note_on_c, 0, 83, 0
1, 382678, Note_on_c, 0, 84, 101
1, 382681, Note_on_c, 0, 72, 85
1, 382681, Note_on_c, 0, 55, 0
1, 382681, Note_on_c, 0, 67, 0
1, 382684, Note_on_c, 0, 68, 75
1, 382684, Note_on_c, 0, 56, 63
1, 382822, Note_on_c, 0, 72, 0
1, 382822, Note_on_c, 0, 84, 0
1, 382822, Note_on_c, 0, 81, 91
1, 382825, Note_on_c, 0, 69, 77
1, 382825, Note_on_c, 0, 56, 0
1, 382825, Note_on_c, 0, 68, 0
1, 382828, Note_on_c, 0, 65, 68
1, 382828, Note_on_c, 0, 53, 57
1, 382835, Control_c, 0, 64, 0
1, 382890, Control_c, 0, 64, 127
1, 382963, Note_on_c, 0, 69, 0
1, 382963, Note_on_c, 0, 81, 0
1, 382963, Note_on_c, 0, 82, 97
1, 382966, Note_on_c, 0, 70, 82
1, 382966, Note_on_c, 0, 53, 0
1, 382966, Note_on_c, 0, 65, 0
1, 382969, Note_on_c, 0, 66, 72
1, 382969, Note_on_c, 0, 54, 61
1, 383100, Note_on_c, 0, 70, 0
1, 383100, Note_on_c, 0, 82, 0
1, 383100, Note_on_c, 0, 77, 90
1, 383103, Note_on_c, 0, 65, 76
1, 383103, Note_on_c, 0, 54, 0
1, 383103, Note_on_c, 0, 66, 0
1, 383106, Note_on_c, 0, 62, 67
1, 383106, Note_on_c, 0, 50, 57
1, 383106, Control_c, 0, 64, 0
1, 383139, Control_c, 0, 64, 127
1, 383237, Note_on_c, 0, 65, 0
1, 383237, Note_on_c, 0, 77, 0
1, 383237, Note_on_c, 0, 78, 98
1, 383240, Note_on_c, 0, 66, 83
1, 383240, Note_on_c, 0, 50, 0
1, 383240, Note_on_c, 0, 62, 0
1, 383243, Note_on_c, 0, 63, 73
1, 383243, Note_on_c, 0, 51, 62
1, 383372, Note_on_c, 0, 66, 0
1, 383372, Note_on_c, 0, 78, 0
1, 383372, Note_on_c, 0, 74, 88
1, 383375, Note_on_c, 0, 62, 74
1, 383375, Note_on_c, 0, 51, 0
1, 383375, Note_on_c, 0, 63, 0
1, 383378, Note_on_c, 0, 59, 66
1, 383378, Note_on_c, 0, 47, 55
1, 383378, Control_c, 0, 64, 0
1, 383436, Control_c, 0, 64, 127
1, 383507, Note_on_c, 0, 62, 0
1, 383507, Note_on_c, 0, 74, 0
1, 383507, Note_on_c, 0, 75, 96
1, 383510, Note_on_c, 0, 63, 81
1, 383510, Note_on_c, 0, 47, 0
1, 383510, Note_on_c, 0, 59, 0
1, 383513, Note_on_c, 0, 60, 72
1, 383513, Note_on_c, 0, 48, 60
1, 383640, Note_on_c, 0, 63, 0
1, 383640, Note_on_c, 0, 75, 0
1, 383640, Note_on_c, 0, 71, 91
1, 383643, Note_on_c, 0, 59, 76
1, 383643, Note_on_c, 0, 48, 0
1, 383643, Note_on_c, 0, 60, 0
1, 383646, Note_on_c, 0, 55, 68
1, 383646, Note_on_c, 0, 43, 56
1, 383646, Control_c, 0, 64, 0
1, 383683, Control_c, 0, 64, 127
1, 383772, Note_on_c, 0, 59, 0
1, 383772, Note_on_c, 0, 71, 0
1, 383772, Note_on_c, 0, 72, 96
1, 383775, Note_on_c, 0, 60, 81
1, 383775, Note_on_c, 0, 43, 0
1, 383775, Note_on_c, 0, 55, 0
1, 383778, Note_on_c, 0, 56, 71
1, 383778, Note_on_c, 0, 44, 60
1, 383902, Note_on_c, 0, 60, 0
1, 383902, Note_on_c, 0, 72, 0
1, 383902, Note_on_c, 0, 69, 93
1, 383905, Note_on_c, 0, 57, 79
1, 383905, Note_on_c, 0, 44, 0
1, 383905, Note_on_c, 0, 56, 0
1, 383908, Note_on_c, 0, 53, 69
1, 383908, Note_on_c, 0, 41, 58
1, 383916, Control_c, 0, 64, 0
1, 383989, Control_c, 0, 64, 127
1, 384032, Note_on_c, 0, 57, 0
1, 384032, Note_on_c, 0, 69, 0
1, 384032, Note_on_c, 0, 70, 100
1, 384035, Note_on_c, 0, 58, 84
1, 384035, Note_on_c, 0, 41, 0
1, 384035, Note_on_c, 0, 53, 0
1, 384038, Note_on_c, 0, 54, 74
1, 384038, Note_on_c, 0, 42, 62
1, 384164, Note_on_c, 0, 58, 0
1, 384164, Note_on_c, 0, 70, 0
1, 384164, Note_on_c, 0, 65, 95
1, 384167, Note_on_c, 0, 53, 80
1, 384167, Note_on_c, 0, 42, 0
1, 384167, Note_on_c, 0, 54, 0
1, 384170, Note_on_c, 0, 50, 70
1, 384170, Note_on_c, 0, 38, 60
1, 384180, Control_c, 0, 64, 0
1, 384264, Control_c, 0, 64, 127
1, 384297, Note_on_c, 0, 53, 0
1, 384297, Note_on_c, 0, 65, 0
1, 384297, Note_on_c, 0, 66, 103
1, 384300, Note_on_c, 0, 54, 87
1, 384300, Note_on_c, 0, 38, 0
1, 384300, Note_on_c, 0, 50, 0
1, 384303, Note_on_c, 0, 51, 77
1, 384303, Note_on_c, 0, 39, 64
1, 384433, Note_on_c, 0, 54, 0
1, 384433, Note_on_c, 0, 66, 0
1, 384433, Note_on_c, 0, 62, 99
1, 384436, Note_on_c, 0, 50, 84
1, 384436, Note_on_c, 0, 39, 0
1, 384436, Note_on_c, 0, 51, 0
1, 384439, Note_on_c, 0, 47, 74
1, 384439, Note_on_c, 0, 35, 62
1, 384445, Control_c, 0, 64, 0
1, 384493, Control_c, 0, 64, 127
1, 384575, Note_on_c, 0, 50, 0
1, 384575, Note_on_c, 0, 62, 0
1, 384575, Note_on_c, 0, 63, 107
1, 384578, Note_on_c, 0, 51, 90
1, 384578, Note_on_c, 0, 35, 0
1, 384578, Note_on_c, 0, 47, 0
1, 384581, Note_on_c, 0, 48, 80
1, 384581, Note_on_c, 0, 36, 67
1, 384723, Note_on_c, 0, 51, 0
1, 384723, Note_on_c, 0, 63, 0
1, 384723, Note_on_c, 0, 60, 102
1, 384726, Note_on_c, 0, 48, 86
1, 384726, Note_on_c, 0, 54, 86
1, 384726, Note_on_c, 0, 36, 0
1, 384729, Note_on_c, 0, 48, 0
1, 384729, Note_on_c, 0, 44, 75
1, 384729, Note_on_c, 0, 32, 64
1, 384732, Note_on_c, 0, 39, 64
1, 384737, Control_c, 0, 64, 0
1, 384803, Control_c, 0, 64, 127
1, 384877, Note_on_c, 0, 54, 0
1, 384877, Note_on_c, 0, 48, 0
1, 384877, Note_on_c, 0, 60, 0
1, 384880, Note_on_c, 0, 61, 106
1, 384880, Note_on_c, 0, 54, 90
1, 384880, Note_on_c, 0, 49, 90
1, 384883, Note_on_c, 0, 39, 0
1, 384883, Note_on_c, 0, 32, 0
1, 384883, Note_on_c, 0, 44, 0
1, 384886, Note_on_c, 0, 42, 80
1, 384886, Note_on_c, 0, 33, 68
1, 384921, Control_c, 0, 64, 0
1, 384935, Control_c, 0, 64, 127
1, 384979, Note_on_c, 0, 33, 0
1, 384979, Note_on_c, 0, 42, 0
1, 384979, Note_on_c, 0, 45, 75
1, 385081, Note_on_c, 0, 45, 0
1, 385081, Note_on_c, 0, 42, 80
1, 385081, Note_on_c, 0, 33, 68
1, 385183, Note_on_c, 0, 33, 0
1, 385183, Note_on_c, 0, 42, 0
1, 385183, Note_on_c, 0, 45, 74
1, 385285, Note_on_c, 0, 45, 0
1, 385285, Note_on_c, 0, 42, 74
1, 385285, Note_on_c, 0, 33, 62
1, 385387, Note_on_c, 0, 33, 0
1, 385387, Note_on_c, 0, 42, 0
1, 385387, Note_on_c, 0, 45, 80
1, 385489, Note_on_c, 0, 54, 0
1, 385489, Note_on_c, 0, 45, 0
1, 385489, Note_on_c, 0, 42, 74
1, 385492, Note_on_c, 0, 33, 62
1, 385591, Note_on_c, 0, 49, 0
1, 385591, Note_on_c, 0, 61, 0
1, 385591, Note_on_c, 0, 33, 0
1, 385594, Note_on_c, 0, 42, 0
1, 385594, Note_on_c, 0, 45, 80
1, 385625, Note_on_c, 0, 66, 94
1, 385625, Note_on_c, 0, 54, 79
1, 385642, Note_on_c, 0, 45, 0
1, 385642, Note_on_c, 0, 33, 73
1, 385668, Note_on_c, 0, 42, 73
1, 385694, Note_on_c, 0, 54, 0
1, 385694, Note_on_c, 0, 66, 0
1, 385694, Note_on_c, 0, 66, 104
1, 385697, Note_on_c, 0, 54, 88
1, 385697, Note_on_c, 0, 45, 73
1, 385728, Control_c, 0, 64, 0
1, 386102, Note_on_c, 0, 45, 0
1, 386102, Note_on_c, 0, 42, 0
1, 386102, Note_on_c, 0, 33, 0
1, 386408, Note_on_c, 0, 54, 0
1, 386408, Note_on_c, 0, 66, 0
1, 386442, Note_on_c, 0, 64, 89
1, 386442, Note_on_c, 0, 52, 75
1, 386510, Note_on_c, 0, 52, 0
1, 386510, Note_on_c, 0, 64, 0
1, 386510, Note_on_c, 0, 64, 98
1, 386513, Note_on_c, 0, 57, 83
1, 386513, Note_on_c, 0, 52, 83
1, 386513, Note_on_c, 0, 37, 80
1, 386516, Note_on_c, 0, 30, 68
1, 386530, Control_c, 0, 64, 127
1, 386618, Note_on_c, 0, 30, 0
1, 386618, Note_on_c, 0, 37, 0
1, 386618, Note_on_c, 0, 42, 75
1, 386726, Note_on_c, 0, 42, 0
1, 386726, Note_on_c, 0, 37, 80
1, 386726, Note_on_c, 0, 30, 68
1, 386834, Note_on_c, 0, 52, 0
1, 386834, Note_on_c, 0, 57, 0
1, 386834, Note_on_c, 0, 64, 0
1, 386837, Note_on_c, 0, 30, 0
1, 386837, Note_on_c, 0, 37, 0
1, 386837, Note_on_c, 0, 42, 74
1, 386870, Note_on_c, 0, 62, 92
1, 386870, Note_on_c, 0, 50, 78
1, 386942, Note_on_c, 0, 50, 0
1, 386942, Note_on_c, 0, 62, 0
1, 386942, Note_on_c, 0, 57, 84
1, 386945, Note_on_c, 0, 62, 99
1, 386945, Note_on_c, 0, 50, 84
1, 386945, Note_on_c, 0, 42, 0
1, 386948, Note_on_c, 0, 37, 74
1, 386948, Note_on_c, 0, 30, 62
1, 387050, Note_on_c, 0, 30, 0
1, 387050, Note_on_c, 0, 37, 0
1, 387050, Note_on_c, 0, 42, 80
1, 387158, Note_on_c, 0, 42, 0
1, 387158, Note_on_c, 0, 37, 74
1, 387158, Note_on_c, 0, 30, 62
1, 387266, Note_on_c, 0, 50, 0
1, 387266, Note_on_c, 0, 62, 0
1, 387266, Note_on_c, 0, 57, 0
1, 387269, Note_on_c, 0, 30, 0
1, 387269, Note_on_c, 0, 37, 0
1, 387269, Note_on_c, 0, 42, 80
1, 387302, Note_on_c, 0, 61, 87
1, 387302, Note_on_c, 0, 49, 73
1, 387320, Note_on_c, 0, 42, 0
1, 387320, Note_on_c, 0, 30, 73
1, 387347, Note_on_c, 0, 37, 73
1, 387374, Note_on_c, 0, 49, 0
1, 387374, Note_on_c, 0, 61, 0
1, 387374, Note_on_c, 0, 57, 97
1, 387377, Note_on_c, 0, 61, 97
1, 387377, Note_on_c, 0, 49, 82
1, 387377, Note_on_c, 0, 42, 73
1, 387404, Control_c, 0, 64, 0
1, 387449, Control_c, 0, 64, 127
1, 387685, Note_on_c, 0, 49, 0
1, 387685, Note_on_c, 0, 61, 0
1, 387685, Note_on_c, 0, 57, 0
1, 387719, Note_on_c, 0, 60, 90
1, 387719, Note_on_c, 0, 48, 76
1, 387788, Note_on_c, 0, 48, 0
1, 387788, Note_on_c, 0, 60, 0
1, 387788, Note_on_c, 0, 60, 97
1, 387791, Note_on_c, 0, 57, 82
1, 387791, Note_on_c, 0, 48, 82
1, 387791, Note_on_c, 0, 42, 0
1, 387794, Note_on_c, 0, 37, 0
1, 387794, Note_on_c, 0, 30, 0
1, 388122, Note_on_c, 0, 48, 0
1, 388122, Note_on_c, 0, 57, 0
1, 388122, Note_on_c, 0, 60, 0
1, 388159, Note_on_c, 0, 61, 90
1, 388159, Note_on_c, 0, 49, 76
1, 388233, Note_on_c, 0, 49, 0
1, 388233, Note_on_c, 0, 61, 0
1, 388233, Note_on_c, 0, 61, 97
1, 388236, Note_on_c, 0, 49, 82
1, 388236, Note_on_c, 0, 25, 68
1, 388236, Note_on_c, 0, 37, 73
1, 388239, Control_c, 0, 64, 0
1, 388297, Control_c, 0, 64, 127
1, 388458, Note_on_c, 0, 49, 0
1, 388458, Note_on_c, 0, 61, 0
1, 388458, Note_on_c, 0, 37, 0
1, 388461, Note_on_c, 0, 25, 0
1, 388683, Note_on_c, 0, 81, 96
1, 388683, Note_on_c, 0, 78, 81
1, 388683, Note_on_c, 0, 73, 81
1, 388686, Note_on_c, 0, 69, 81
1, 388686, Note_on_c, 0, 66, 79
1, 388686, Note_on_c, 0, 61, 67
1, 388689, Note_on_c, 0, 57, 67
1, 388689, Note_on_c, 0, 54, 67
1, 388896, Note_on_c, 0, 69, 0
1, 388896, Note_on_c, 0, 81, 0
1, 388896, Note_on_c, 0, 78, 0
1, 388899, Note_on_c, 0, 73, 0
1, 388899, Note_on_c, 0, 54, 0
1, 388899, Note_on_c, 0, 66, 0
1, 388902, Note_on_c, 0, 61, 0
1, 388902, Note_on_c, 0, 57, 0
1, 389109, Note_on_c, 0, 85, 96
1, 389109, Note_on_c, 0, 73, 81
1, 389109, Note_on_c, 0, 77, 81
1, 389112, Note_on_c, 0, 80, 81
1, 389112, Note_on_c, 0, 61, 79
1, 389112, Note_on_c, 0, 49, 67
1, 389115, Note_on_c, 0, 53, 67
1, 389115, Note_on_c, 0, 56, 67
1, 389115, Control_c, 0, 64, 0
1, 389160, Control_c, 0, 64, 127
1, 389317, Note_on_c, 0, 80, 0
1, 389317, Note_on_c, 0, 85, 0
1, 389317, Note_on_c, 0, 73, 0
1, 389320, Note_on_c, 0, 77, 0
1, 389320, Note_on_c, 0, 87, 96
1, 389320, Note_on_c, 0, 75, 81
1, 389323, Note_on_c, 0, 80, 81
1, 389323, Note_on_c, 0, 84, 81
1, 389323, Note_on_c, 0, 56, 0
1, 389326, Note_on_c, 0, 61, 0
1, 389326, Note_on_c, 0, 49, 0
1, 389326, Note_on_c, 0, 53, 0
1, 389329, Note_on_c, 0, 56, 79
1, 389329, Note_on_c, 0, 44, 67
1, 389329, Note_on_c, 0, 48, 67
1, 389332, Note_on_c, 0, 51, 67
1, 389332, Control_c, 0, 64, 0
1, 389403, Control_c, 0, 64, 127
1, 389525, Note_on_c, 0, 84, 0
1, 389525, Note_on_c, 0, 87, 0
1, 389525, Note_on_c, 0, 75, 0
1, 389528, Note_on_c, 0, 80, 0
1, 389528, Note_on_c, 0, 89, 96
1, 389528, Note_on_c, 0, 77, 81
1, 389531, Note_on_c, 0, 80, 81
1, 389531, Note_on_c, 0, 85, 81
1, 389531, Note_on_c, 0, 51, 0
1, 389534, Note_on_c, 0, 56, 0
1, 389534, Note_on_c, 0, 44, 0
1, 389534, Note_on_c, 0, 48, 0
1, 389537, Note_on_c, 0, 49, 79
1, 389537, Note_on_c, 0, 37, 67
1, 389537, Note_on_c, 0, 41, 67
1, 389540, Note_on_c, 0, 44, 67
1, 389540, Control_c, 0, 64, 0
1, 389596, Control_c, 0, 64, 127
1, 389732, Note_on_c, 0, 85, 0
1, 389732, Note_on_c, 0, 89, 0
1, 389732, Note_on_c, 0, 77, 0
1, 389735, Note_on_c, 0, 80, 0
1, 389735, Note_on_c, 0, 92, 96
1, 389735, Note_on_c, 0, 80, 81
1, 389738, Note_on_c, 0, 84, 81
1, 389738, Note_on_c, 0, 87, 81
1, 389738, Note_on_c, 0, 44, 0
1, 389741, Note_on_c, 0, 49, 0
1, 389741, Note_on_c, 0, 37, 0
1, 389741, Note_on_c, 0, 41, 0
1, 389744, Note_on_c, 0, 44, 79
1, 389744, Note_on_c, 0, 32, 67
1, 389744, Note_on_c, 0, 36, 67
1, 389747, Note_on_c, 0, 39, 67
1, 389747, Control_c, 0, 64, 0
1, 389804, Control_c, 0, 64, 127
1, 389940, Note_on_c, 0, 87, 0
1, 389940, Note_on_c, 0, 92, 0
1, 389940, Note_on_c, 0, 80, 0
1, 389943, Note_on_c, 0, 84, 0
1, 389943, Note_on_c, 0, 97, 96
1, 389943, Note_on_c, 0, 85, 81
1, 389946, Note_on_c, 0, 89, 81
1, 389946, Note_on_c, 0, 92, 81
1, 389946, Note_on_c, 0, 39, 0
1, 389949, Note_on_c, 0, 44, 0
1, 389949, Note_on_c, 0, 32, 0
1, 389949, Note_on_c, 0, 36, 0
1, 389952, Note_on_c, 0, 49, 79
1, 389952, Note_on_c, 0, 37, 67
1, 389952, Note_on_c, 0, 41, 67
1, 389955, Note_on_c, 0, 44, 67
1, 389955, Control_c, 0, 64, 0
1, 390058, Control_c, 0, 64, 127
1, 390141, Note_on_c, 0, 92, 0
1, 390141, Note_on_c, 0, 97, 0
1, 390141, Note_on_c, 0, 85, 0
1, 390144, Note_on_c, 0, 89, 0
1, 390144, Note_on_c, 0, 44, 0
1, 390144, Note_on_c, 0, 49, 0
1, 390147, Note_on_c, 0, 37, 0
1, 390147, Note_on_c, 0, 41, 0
1, 390699, Control_c, 0, 64, 0
1, 390747, Note_on_c, 0, 85, 100
1, 390747, Note_on_c, 0, 73, 85
1, 390747, Note_on_c, 0, 78, 85
1, 390750, Note_on_c, 0, 82, 85
1, 390750, Note_on_c, 0, 66, 82
1, 390750, Note_on_c, 0, 61, 70
1, 390753, Note_on_c, 0, 58, 70
1, 390753, Note_on_c, 0, 54, 70
1, 390845, Control_c, 0, 64, 127
1, 390955, Note_on_c, 0, 82, 0
1, 390955, Note_on_c, 0, 85, 0
1, 390955, Note_on_c, 0, 73, 0
1, 390958, Note_on_c, 0, 78, 0
1, 390958, Note_on_c, 0, 54, 0
1, 390958, Note_on_c, 0, 66, 0
1, 390961, Note_on_c, 0, 61, 0
1, 390961, Note_on_c, 0, 58, 0
1, 391505, Control_c, 0, 64, 0
1, 391598, Note_on_c, 0, 61, 107
1, 391598, Note_on_c, 0, 53, 89
1, 391598, Note_on_c, 0, 56, 92
1, 391601, Note_on_c, 0, 49, 86
1, 391601, Note_on_c, 0, 37, 73
1, 391601, Note_on_c, 0, 41, 73
1, 391604, Note_on_c, 0, 44, 77
1, 391611, Control_c, 0, 64, 127
1, 391817, Note_on_c, 0, 56, 0
1, 391817, Note_on_c, 0, 53, 0
1, 391817, Note_on_c, 0, 61, 0
1, 391820, Note_on_c, 0, 44, 0
1, 391820, Note_on_c, 0, 49, 0
1, 391820, Note_on_c, 0, 37, 0
1, 391823, Note_on_c, 0, 41, 0
1, 392253, Control_c, 0, 64, 0
1, 393751, End_track
0, 0, End_of_file
