0, 0, Header, 1, 2, 480
1, 0, Start_track
1, 0, Title_t, "untitled"
1, 0, Time_signature, 4, 2, 24, 8
1, 0, Key_signature, 0, "major"
1, 0, Tempo, 500000
1, 0, End_track
2, 0, Start_track
2, 0, Title_t, "Liszt: La Campanella"
2, 0, Control_c, 0, 7, 105
2, 0, Control_c, 0, 91, 127
2, 0, Control_c, 0, 64, 127
2, 0, Note_on_c, 0, 75, 23
2, 26, Note_on_c, 0, 63, 25
2, 90, Note_on_c, 0, 63, 0
2, 100, Note_on_c, 0, 75, 0
2, 320, Note_on_c, 0, 75, 36
2, 328, Note_on_c, 0, 63, 36
2, 388, Note_on_c, 0, 75, 0
2, 391, Note_on_c, 0, 63, 0
2, 638, Note_on_c, 0, 75, 46
2, 648, Note_on_c, 0, 63, 37
2, 700, Note_on_c, 0, 75, 0
2, 706, Note_on_c, 0, 63, 0
2, 934, Note_on_c, 0, 87, 39
2, 940, Note_on_c, 0, 99, 41
2, 1000, Note_on_c, 0, 99, 0
2, 1002, Note_on_c, 0, 87, 0
2, 1246, Note_on_c, 0, 99, 50
2, 1248, Note_on_c, 0, 87, 37
2, 1302, Note_on_c, 0, 99, 0
2, 1312, Note_on_c, 0, 87, 0
2, 1562, Note_on_c, 0, 87, 40
2, 1572, Note_on_c, 0, 99, 43
2, 1642, Note_on_c, 0, 87, 0
2, 1662, Note_on_c, 0, 99, 0
2, 1888, Note_on_c, 0, 75, 42
2, 1900, Note_on_c, 0, 63, 36
2, 1978, Note_on_c, 0, 63, 0
2, 1984, Note_on_c, 0, 75, 0
2, 2208, Note_on_c, 0, 75, 33
2, 2228, Note_on_c, 0, 63, 23
2, 2288, Note_on_c, 0, 75, 0
2, 2300, Note_on_c, 0, 63, 0
2, 2548, Note_on_c, 0, 75, 26
2, 2562, Note_on_c, 0, 63, 19
2, 2636, Note_on_c, 0, 63, 0
2, 2644, Note_on_c, 0, 75, 0
2, 2860, Note_on_c, 0, 99, 37
2, 2868, Note_on_c, 0, 87, 26
2, 2936, Note_on_c, 0, 99, 0
2, 2948, Note_on_c, 0, 87, 0
2, 3160, Note_on_c, 0, 87, 33
2, 3160, Note_on_c, 0, 99, 44
2, 3248, Note_on_c, 0, 99, 0
2, 3253, Note_on_c, 0, 87, 0
2, 3486, Note_on_c, 0, 87, 32
2, 3486, Note_on_c, 0, 99, 42
2, 3580, Note_on_c, 0, 99, 0
2, 3594, Note_on_c, 0, 87, 0
2, 3778, Note_on_c, 0, 75, 19
2, 3798, Note_on_c, 0, 63, 20
2, 3878, Note_on_c, 0, 63, 0
2, 3892, Note_on_c, 0, 75, 0
2, 4096, Note_on_c, 0, 99, 37
2, 4108, Note_on_c, 0, 87, 23
2, 4168, Note_on_c, 0, 99, 0
2, 4188, Note_on_c, 0, 87, 0
2, 4424, Note_on_c, 0, 87, 25
2, 4440, Note_on_c, 0, 99, 29
2, 4518, Note_on_c, 0, 87, 0
2, 4530, Note_on_c, 0, 99, 0
2, 4782, Note_on_c, 0, 75, 17
2, 4820, Note_on_c, 0, 63, 12
2, 4892, Note_on_c, 0, 63, 0
2, 4900, Note_on_c, 0, 75, 0
2, 5140, Note_on_c, 0, 99, 25
2, 5150, Note_on_c, 0, 87, 23
2, 5224, Note_on_c, 0, 99, 0
2, 5230, Note_on_c, 0, 87, 0
2, 5720, Note_on_c, 0, 99, 17
2, 5728, Note_on_c, 0, 87, 8
2, 5804, Note_on_c, 0, 87, 0
2, 5870, Note_on_c, 0, 99, 0
2, 7202, Control_c, 0, 64, 0
2, 7696, Note_on_c, 0, 75, 44
2, 7778, Note_on_c, 0, 75, 0
2, 7800, Control_c, 0, 64, 127
2, 7872, Note_on_c, 0, 87, 34
2, 7876, Control_c, 0, 64, 0
2, 7932, Note_on_c, 0, 87, 0
2, 8014, Note_on_c, 0, 87, 48
2, 8134, Note_on_c, 0, 87, 0
2, 8166, Note_on_c, 0, 99, 62
2, 8216, Note_on_c, 0, 99, 0
2, 8298, Note_on_c, 0, 87, 73
2, 8390, Note_on_c, 0, 87, 0
2, 8448, Note_on_c, 0, 99, 34
2, 8512, Note_on_c, 0, 99, 0
2, 8562, Note_on_c, 0, 85, 74
2, 8614, Note_on_c, 0, 85, 0
2, 8706, Note_on_c, 0, 99, 75
2, 8746, Note_on_c, 0, 99, 0
2, 8749, Note_on_c, 0, 56, 37
2, 8818, Note_on_c, 0, 56, 0
2, 8821, Note_on_c, 0, 63, 37
2, 8860, Control_c, 0, 64, 127
2, 8870, Note_on_c, 0, 83, 101
2, 8894, Note_on_c, 0, 63, 0
2, 8908, Note_on_c, 0, 83, 0
2, 8920, Note_on_c, 0, 71, 28
2, 8984, Control_c, 0, 64, 0
2, 9000, Note_on_c, 0, 99, 87
2, 9014, Note_on_c, 0, 71, 0
2, 9036, Note_on_c, 0, 99, 0
2, 9145, Note_on_c, 0, 83, 106
2, 9180, Note_on_c, 0, 83, 0
2, 9278, Note_on_c, 0, 99, 78
2, 9314, Note_on_c, 0, 99, 0
2, 9408, Note_on_c, 0, 82, 82
2, 9450, Note_on_c, 0, 82, 0
2, 9500, Note_on_c, 0, 59, 37
2, 9552, Note_on_c, 0, 99, 70
2, 9552, Control_c, 0, 64, 127
2, 9558, Note_on_c, 0, 59, 0
2, 9590, Note_on_c, 0, 99, 0
2, 9592, Note_on_c, 0, 68, 41
2, 9668, Note_on_c, 0, 68, 0
2, 9684, Note_on_c, 0, 80, 93
2, 9688, Note_on_c, 0, 75, 63
2, 9726, Note_on_c, 0, 80, 0
2, 9766, Note_on_c, 0, 75, 0
2, 9766, Control_c, 0, 64, 0
2, 9836, Note_on_c, 0, 99, 93
2, 9868, Note_on_c, 0, 99, 0
2, 9968, Note_on_c, 0, 79, 95
2, 10006, Note_on_c, 0, 79, 0
2, 10102, Note_on_c, 0, 99, 86
2, 10136, Note_on_c, 0, 99, 0
2, 10222, Note_on_c, 0, 80, 101
2, 10264, Note_on_c, 0, 80, 0
2, 10296, Note_on_c, 0, 63, 42
2, 10364, Note_on_c, 0, 70, 42
2, 10366, Note_on_c, 0, 63, 0
2, 10370, Note_on_c, 0, 99, 88
2, 10402, Note_on_c, 0, 99, 0
2, 10424, Note_on_c, 0, 70, 0
2, 10427, Control_c, 0, 64, 127
2, 10488, Note_on_c, 0, 79, 72
2, 10491, Note_on_c, 0, 82, 93
2, 10532, Note_on_c, 0, 82, 0
2, 10536, Note_on_c, 0, 79, 0
2, 10636, Note_on_c, 0, 99, 81
2, 10670, Note_on_c, 0, 99, 0
2, 10802, Note_on_c, 0, 75, 77
2, 10838, Note_on_c, 0, 75, 0
2, 10920, Control_c, 0, 64, 0
2, 10950, Note_on_c, 0, 99, 95
2, 10980, Note_on_c, 0, 99, 0
2, 11102, Note_on_c, 0, 75, 93
2, 11204, Note_on_c, 0, 75, 0
2, 11228, Note_on_c, 0, 87, 82
2, 11272, Note_on_c, 0, 87, 0
2, 11348, Note_on_c, 0, 67, 40
2, 11356, Note_on_c, 0, 70, 46
2, 11360, Note_on_c, 0, 76, 93
2, 11452, Note_on_c, 0, 76, 0
2, 11490, Note_on_c, 0, 87, 60
2, 11524, Note_on_c, 0, 70, 0
2, 11538, Note_on_c, 0, 67, 0
2, 11546, Note_on_c, 0, 87, 0
2, 11604, Note_on_c, 0, 75, 93
2, 11710, Note_on_c, 0, 75, 0
2, 11732, Note_on_c, 0, 87, 69
2, 11776, Note_on_c, 0, 87, 0
2, 11852, Note_on_c, 0, 73, 89
2, 11918, Note_on_c, 0, 73, 0
2, 11982, Note_on_c, 0, 87, 64
2, 12026, Note_on_c, 0, 87, 0
2, 12108, Note_on_c, 0, 71, 95
2, 12118, Note_on_c, 0, 68, 44
2, 12146, Note_on_c, 0, 71, 0
2, 12238, Note_on_c, 0, 87, 87
2, 12262, Note_on_c, 0, 68, 0
2, 12276, Note_on_c, 0, 87, 0
2, 12366, Note_on_c, 0, 71, 97
2, 12406, Note_on_c, 0, 71, 0
2, 12494, Note_on_c, 0, 87, 86
2, 12528, Note_on_c, 0, 87, 0
2, 12622, Note_on_c, 0, 70, 79
2, 12668, Note_on_c, 0, 70, 0
2, 12758, Note_on_c, 0, 87, 54
2, 12802, Note_on_c, 0, 59, 36
2, 12810, Note_on_c, 0, 87, 0
2, 12838, Note_on_c, 0, 62, 26
2, 12878, Note_on_c, 0, 68, 83
2, 12896, Note_on_c, 0, 65, 41
2, 12918, Note_on_c, 0, 68, 0
2, 12932, Control_c, 0, 64, 127
2, 12956, Note_on_c, 0, 65, 0
2, 13014, Note_on_c, 0, 59, 0
2, 13024, Note_on_c, 0, 87, 73
2, 13040, Note_on_c, 0, 62, 0
2, 13040, Control_c, 0, 64, 0
2, 13064, Note_on_c, 0, 87, 0
2, 13156, Note_on_c, 0, 67, 63
2, 13212, Note_on_c, 0, 67, 0
2, 13282, Note_on_c, 0, 87, 73
2, 13322, Note_on_c, 0, 87, 0
2, 13406, Note_on_c, 0, 68, 85
2, 13450, Note_on_c, 0, 68, 0
2, 13540, Note_on_c, 0, 51, 50
2, 13552, Note_on_c, 0, 87, 89
2, 13588, Note_on_c, 0, 87, 0
2, 13622, Note_on_c, 0, 51, 0
2, 13686, Control_c, 0, 64, 127
2, 13722, Note_on_c, 0, 70, 75
2, 13734, Note_on_c, 0, 67, 42
2, 13786, Note_on_c, 0, 70, 0
2, 13808, Note_on_c, 0, 67, 0
2, 13892, Note_on_c, 0, 87, 70
2, 13932, Note_on_c, 0, 87, 0
2, 14044, Note_on_c, 0, 63, 59
2, 14094, Note_on_c, 0, 63, 0
2, 14168, Note_on_c, 0, 75, 55
2, 14218, Note_on_c, 0, 75, 0
2, 14318, Note_on_c, 0, 75, 59
2, 14374, Note_on_c, 0, 75, 0
2, 14464, Note_on_c, 0, 87, 58
2, 14508, Note_on_c, 0, 87, 0
2, 14612, Note_on_c, 0, 87, 54
2, 14668, Control_c, 0, 64, 0
2, 14706, Note_on_c, 0, 87, 0
2, 14752, Note_on_c, 0, 99, 67
2, 14794, Note_on_c, 0, 99, 0
2, 14882, Note_on_c, 0, 87, 89
2, 14976, Note_on_c, 0, 87, 0
2, 15020, Note_on_c, 0, 99, 64
2, 15064, Note_on_c, 0, 99, 0
2, 15128, Note_on_c, 0, 85, 101
2, 15206, Note_on_c, 0, 85, 0
2, 15268, Note_on_c, 0, 99, 81
2, 15276, Note_on_c, 0, 56, 56
2, 15304, Note_on_c, 0, 99, 0
2, 15326, Note_on_c, 0, 56, 0
2, 15358, Note_on_c, 0, 63, 46
2, 15404, Note_on_c, 0, 83, 108
2, 15414, Note_on_c, 0, 63, 0
2, 15426, Note_on_c, 0, 71, 69
2, 15436, Control_c, 0, 64, 127
2, 15440, Note_on_c, 0, 83, 0
2, 15482, Note_on_c, 0, 71, 0
2, 15538, Note_on_c, 0, 99, 82
2, 15572, Note_on_c, 0, 99, 0
2, 15664, Note_on_c, 0, 83, 108
2, 15666, Control_c, 0, 64, 0
2, 15700, Note_on_c, 0, 83, 0
2, 15798, Note_on_c, 0, 99, 93
2, 15832, Note_on_c, 0, 99, 0
2, 15930, Note_on_c, 0, 82, 92
2, 15976, Note_on_c, 0, 82, 0
2, 16040, Note_on_c, 0, 59, 48
2, 16066, Note_on_c, 0, 99, 77
2, 16092, Note_on_c, 0, 59, 0
2, 16104, Note_on_c, 0, 99, 0
2, 16142, Note_on_c, 0, 68, 41
2, 16190, Control_c, 0, 64, 127
2, 16193, Note_on_c, 0, 80, 92
2, 16202, Note_on_c, 0, 68, 0
2, 16232, Note_on_c, 0, 80, 0
2, 16234, Note_on_c, 0, 75, 51
2, 16296, Note_on_c, 0, 75, 0
2, 16334, Note_on_c, 0, 99, 90
2, 16368, Note_on_c, 0, 99, 0
2, 16388, Control_c, 0, 64, 0
2, 16464, Note_on_c, 0, 79, 89
2, 16506, Note_on_c, 0, 79, 0
2, 16594, Note_on_c, 0, 99, 89
2, 16626, Note_on_c, 0, 99, 0
2, 16710, Note_on_c, 0, 80, 92
2, 16752, Note_on_c, 0, 80, 0
2, 16826, Note_on_c, 0, 63, 37
2, 16848, Note_on_c, 0, 99, 81
2, 16882, Note_on_c, 0, 99, 0
2, 16892, Note_on_c, 0, 63, 0
2, 16904, Note_on_c, 0, 70, 31
2, 16976, Note_on_c, 0, 70, 0
2, 16984, Note_on_c, 0, 82, 82
2, 16988, Control_c, 0, 64, 127
2, 17024, Note_on_c, 0, 82, 0
2, 17024, Note_on_c, 0, 79, 36
2, 17092, Note_on_c, 0, 79, 0
2, 17128, Note_on_c, 0, 99, 82
2, 17162, Note_on_c, 0, 99, 0
2, 17301, Note_on_c, 0, 75, 78
2, 17338, Note_on_c, 0, 75, 0
2, 17470, Note_on_c, 0, 99, 37
2, 17534, Note_on_c, 0, 99, 0
2, 17610, Note_on_c, 0, 75, 75
2, 17666, Note_on_c, 0, 75, 0
2, 17728, Note_on_c, 0, 87, 63
2, 17774, Note_on_c, 0, 87, 0
2, 17824, Note_on_c, 0, 67, 23
2, 17834, Control_c, 0, 64, 0
2, 17834, Note_on_c, 0, 70, 47
2, 17870, Note_on_c, 0, 76, 67
2, 17924, Note_on_c, 0, 76, 0
2, 17996, Note_on_c, 0, 70, 0
2, 17998, Note_on_c, 0, 87, 55
2, 18052, Note_on_c, 0, 87, 0
2, 18054, Note_on_c, 0, 67, 0
2, 18126, Note_on_c, 0, 75, 92
2, 18206, Note_on_c, 0, 75, 0
2, 18250, Note_on_c, 0, 87, 59
2, 18310, Note_on_c, 0, 87, 0
2, 18374, Note_on_c, 0, 73, 96
2, 18478, Note_on_c, 0, 73, 0
2, 18524, Note_on_c, 0, 87, 56
2, 18600, Note_on_c, 0, 87, 0
2, 18648, Note_on_c, 0, 75, 89
2, 18674, Note_on_c, 0, 71, 42
2, 18682, Note_on_c, 0, 68, 28
2, 18722, Note_on_c, 0, 75, 0
2, 18756, Note_on_c, 0, 68, 0
2, 18756, Note_on_c, 0, 71, 0
2, 18756, Control_c, 0, 64, 127
2, 18800, Note_on_c, 0, 87, 54
2, 18880, Note_on_c, 0, 87, 0
2, 18929, Note_on_c, 0, 80, 67
2, 18940, Control_c, 0, 64, 0
2, 18976, Note_on_c, 0, 80, 0
2, 19072, Note_on_c, 0, 83, 101
2, 19110, Note_on_c, 0, 83, 0
2, 19222, Note_on_c, 0, 87, 80
2, 19334, Note_on_c, 0, 87, 0
2, 19338, Control_c, 0, 64, 127
2, 19366, Note_on_c, 0, 99, 78
2, 19402, Note_on_c, 0, 99, 0
2, 19568, Note_on_c, 0, 75, 73
2, 19582, Note_on_c, 0, 73, 31
2, 19612, Note_on_c, 0, 63, 31
2, 19646, Note_on_c, 0, 67, 14
2, 19648, Note_on_c, 0, 75, 0
2, 19662, Note_on_c, 0, 73, 0
2, 19714, Note_on_c, 0, 87, 46
2, 19722, Note_on_c, 0, 63, 0
2, 19736, Note_on_c, 0, 67, 0
2, 19774, Note_on_c, 0, 87, 0
2, 19862, Note_on_c, 0, 79, 59
2, 19922, Note_on_c, 0, 79, 0
2, 19994, Note_on_c, 0, 82, 57
2, 20042, Note_on_c, 0, 82, 0
2, 20108, Control_c, 0, 64, 0
2, 20150, Note_on_c, 0, 87, 55
2, 20228, Note_on_c, 0, 87, 0
2, 20314, Note_on_c, 0, 99, 52
2, 20400, Note_on_c, 0, 99, 0
2, 20450, Note_on_c, 0, 56, 47
2, 20506, Control_c, 0, 64, 127
2, 20590, Note_on_c, 0, 56, 0
2, 20612, Note_on_c, 0, 63, 44
2, 20686, Note_on_c, 0, 63, 0
2, 20778, Note_on_c, 0, 71, 63
2, 20828, Note_on_c, 0, 71, 0
2, 20948, Note_on_c, 0, 80, 71
2, 21018, Note_on_c, 0, 80, 0
2, 21108, Note_on_c, 0, 75, 74
2, 21162, Note_on_c, 0, 75, 0
2, 21246, Note_on_c, 0, 87, 60
2, 21296, Note_on_c, 0, 87, 0
2, 21424, Note_on_c, 0, 99, 66
2, 21480, Note_on_c, 0, 99, 0
2, 21506, Control_c, 0, 64, 0
2, 21580, Note_on_c, 0, 87, 62
2, 21644, Note_on_c, 0, 87, 0
2, 21724, Note_on_c, 0, 99, 64
2, 21774, Note_on_c, 0, 99, 0
2, 21876, Note_on_c, 0, 87, 63
2, 21962, Note_on_c, 0, 87, 0
2, 22028, Control_c, 0, 64, 127
2, 22072, Note_on_c, 0, 99, 44
2, 22122, Note_on_c, 0, 99, 0
2, 22208, Note_on_c, 0, 85, 65
2, 22264, Note_on_c, 0, 85, 0
2, 22412, Control_c, 0, 64, 0
2, 22418, Note_on_c, 0, 85, 57
2, 22460, Note_on_c, 0, 83, 109
2, 22462, Note_on_c, 0, 44, 41
2, 22465, Note_on_c, 0, 85, 0
2, 22500, Note_on_c, 0, 83, 0
2, 22546, Note_on_c, 0, 44, 0
2, 22566, Control_c, 0, 64, 127
2, 22630, Note_on_c, 0, 99, 79
2, 22664, Note_on_c, 0, 99, 0
2, 22778, Note_on_c, 0, 83, 97
2, 22782, Control_c, 0, 64, 0
2, 22804, Note_on_c, 0, 59, 34
2, 22806, Note_on_c, 0, 51, 29
2, 22816, Note_on_c, 0, 83, 0
2, 22916, Note_on_c, 0, 99, 89
2, 22922, Note_on_c, 0, 59, 0
2, 22950, Note_on_c, 0, 99, 0
2, 22970, Note_on_c, 0, 51, 0
2, 23070, Note_on_c, 0, 82, 80
2, 23116, Note_on_c, 0, 82, 0
2, 23204, Note_on_c, 0, 99, 73
2, 23242, Note_on_c, 0, 99, 0
2, 23362, Note_on_c, 0, 82, 69
2, 23372, Note_on_c, 0, 80, 87
2, 23386, Note_on_c, 0, 47, 39
2, 23406, Note_on_c, 0, 82, 0
2, 23442, Control_c, 0, 64, 127
2, 23444, Note_on_c, 0, 47, 0
2, 23466, Note_on_c, 0, 80, 0
2, 23540, Note_on_c, 0, 99, 82
2, 23574, Note_on_c, 0, 99, 0
2, 23596, Control_c, 0, 64, 0
2, 23692, Note_on_c, 0, 79, 81
2, 23702, Note_on_c, 0, 63, 51
2, 23716, Note_on_c, 0, 56, 36
2, 23734, Note_on_c, 0, 79, 0
2, 23786, Note_on_c, 0, 56, 0
2, 23790, Note_on_c, 0, 63, 0
2, 23829, Note_on_c, 0, 99, 74
2, 23870, Note_on_c, 0, 99, 0
2, 23964, Note_on_c, 0, 80, 89
2, 24010, Note_on_c, 0, 80, 0
2, 24116, Note_on_c, 0, 99, 57
2, 24162, Note_on_c, 0, 99, 0
2, 24230, Note_on_c, 0, 79, 89
2, 24300, Note_on_c, 0, 79, 0
2, 24300, Note_on_c, 0, 80, 69
2, 24308, Note_on_c, 0, 51, 46
2, 24354, Note_on_c, 0, 82, 79
2, 24398, Note_on_c, 0, 51, 0
2, 24410, Note_on_c, 0, 80, 0
2, 24438, Note_on_c, 0, 82, 0
2, 24440, Control_c, 0, 64, 127
2, 24524, Note_on_c, 0, 99, 83
2, 24558, Note_on_c, 0, 99, 0
2, 24680, Note_on_c, 0, 58, 14
2, 24685, Note_on_c, 0, 67, 33
2, 24708, Note_on_c, 0, 75, 52
2, 24764, Note_on_c, 0, 75, 0
2, 24770, Note_on_c, 0, 58, 0
2, 24774, Note_on_c, 0, 67, 0
2, 24882, Note_on_c, 0, 99, 97
2, 24916, Note_on_c, 0, 99, 0
2, 24982, Note_on_c, 0, 75, 87
2, 25040, Note_on_c, 0, 75, 0
2, 25054, Control_c, 0, 64, 0
2, 25092, Note_on_c, 0, 87, 75
2, 25142, Note_on_c, 0, 87, 0
2, 25200, Note_on_c, 0, 70, 55
2, 25204, Note_on_c, 0, 78, 87
2, 25222, Note_on_c, 0, 76, 86
2, 25228, Note_on_c, 0, 67, 58
2, 25252, Note_on_c, 0, 78, 0
2, 25274, Note_on_c, 0, 70, 0
2, 25274, Note_on_c, 0, 76, 0
2, 25282, Note_on_c, 0, 67, 0
2, 25368, Note_on_c, 0, 87, 71
2, 25414, Note_on_c, 0, 87, 0
2, 25492, Note_on_c, 0, 75, 80
2, 25506, Note_on_c, 0, 70, 55
2, 25516, Note_on_c, 0, 67, 40
2, 25556, Note_on_c, 0, 75, 0
2, 25578, Note_on_c, 0, 70, 0
2, 25598, Note_on_c, 0, 67, 0
2, 25630, Note_on_c, 0, 87, 66
2, 25680, Note_on_c, 0, 87, 0
2, 25748, Note_on_c, 0, 73, 87
2, 25808, Note_on_c, 0, 73, 0
2, 25868, Note_on_c, 0, 87, 77
2, 25906, Note_on_c, 0, 87, 0
2, 26006, Note_on_c, 0, 73, 86
2, 26012, Note_on_c, 0, 71, 100
2, 26036, Note_on_c, 0, 68, 58
2, 26048, Note_on_c, 0, 73, 0
2, 26062, Note_on_c, 0, 71, 0
2, 26088, Note_on_c, 0, 68, 0
2, 26174, Note_on_c, 0, 87, 74
2, 26212, Note_on_c, 0, 87, 0
2, 26290, Note_on_c, 0, 71, 88
2, 26308, Note_on_c, 0, 68, 50
2, 26332, Note_on_c, 0, 71, 0
2, 26366, Note_on_c, 0, 68, 0
2, 26420, Note_on_c, 0, 87, 86
2, 26454, Note_on_c, 0, 87, 0
2, 26538, Note_on_c, 0, 70, 79
2, 26586, Note_on_c, 0, 70, 0
2, 26660, Note_on_c, 0, 87, 82
2, 26694, Note_on_c, 0, 87, 0
2, 26802, Note_on_c, 0, 68, 95
2, 26808, Note_on_c, 0, 70, 60
2, 26832, Note_on_c, 0, 65, 34
2, 26856, Note_on_c, 0, 70, 0
2, 26856, Note_on_c, 0, 62, 19
2, 26859, Note_on_c, 0, 59, 18
2, 26894, Note_on_c, 0, 65, 0
2, 26906, Note_on_c, 0, 68, 0
2, 26926, Note_on_c, 0, 62, 0
2, 26936, Note_on_c, 0, 59, 0
2, 26970, Note_on_c, 0, 87, 72
2, 27010, Note_on_c, 0, 87, 0
2, 27094, Note_on_c, 0, 67, 89
2, 27096, Note_on_c, 0, 65, 40
2, 27110, Note_on_c, 0, 62, 50
2, 27136, Note_on_c, 0, 67, 0
2, 27136, Note_on_c, 0, 59, 47
2, 27152, Note_on_c, 0, 65, 0
2, 27162, Note_on_c, 0, 62, 0
2, 27190, Note_on_c, 0, 59, 0
2, 27234, Note_on_c, 0, 87, 74
2, 27272, Note_on_c, 0, 87, 0
2, 27284, Note_on_c, 0, 85, 18
2, 27344, Note_on_c, 0, 85, 0
2, 27354, Note_on_c, 0, 68, 87
2, 27402, Note_on_c, 0, 68, 0
2, 27502, Note_on_c, 0, 87, 95
2, 27534, Note_on_c, 0, 51, 60
2, 27544, Note_on_c, 0, 87, 0
2, 27618, Note_on_c, 0, 51, 0
2, 27676, Note_on_c, 0, 70, 75
2, 27704, Note_on_c, 0, 67, 54
2, 27714, Control_c, 0, 64, 127
2, 27736, Note_on_c, 0, 70, 0
2, 27846, Note_on_c, 0, 87, 62
2, 27884, Note_on_c, 0, 67, 0
2, 27888, Note_on_c, 0, 87, 0
2, 27992, Note_on_c, 0, 63, 67
2, 28046, Note_on_c, 0, 63, 0
2, 28134, Note_on_c, 0, 75, 47
2, 28192, Note_on_c, 0, 75, 0
2, 28284, Note_on_c, 0, 75, 60
2, 28350, Note_on_c, 0, 75, 0
2, 28420, Note_on_c, 0, 87, 63
2, 28466, Note_on_c, 0, 87, 0
2, 28580, Note_on_c, 0, 87, 75
2, 28650, Control_c, 0, 64, 0
2, 28686, Note_on_c, 0, 87, 0
2, 28729, Note_on_c, 0, 99, 71
2, 28770, Note_on_c, 0, 99, 0
2, 28856, Note_on_c, 0, 87, 89
2, 28930, Note_on_c, 0, 87, 0
2, 28990, Note_on_c, 0, 99, 77
2, 29030, Note_on_c, 0, 99, 0
2, 29106, Note_on_c, 0, 85, 100
2, 29182, Note_on_c, 0, 85, 0
2, 29246, Note_on_c, 0, 99, 78
2, 29282, Note_on_c, 0, 99, 0
2, 29380, Note_on_c, 0, 85, 95
2, 29404, Note_on_c, 0, 83, 109
2, 29406, Note_on_c, 0, 44, 44
2, 29418, Note_on_c, 0, 85, 0
2, 29446, Note_on_c, 0, 83, 0
2, 29474, Note_on_c, 0, 44, 0
2, 29543, Control_c, 0, 64, 127
2, 29558, Note_on_c, 0, 99, 80
2, 29588, Control_c, 0, 64, 0
2, 29592, Note_on_c, 0, 99, 0
2, 29688, Note_on_c, 0, 51, 39
2, 29691, Note_on_c, 0, 83, 100
2, 29691, Note_on_c, 0, 59, 33
2, 29728, Note_on_c, 0, 83, 0
2, 29774, Note_on_c, 0, 51, 0
2, 29777, Note_on_c, 0, 59, 0
2, 29828, Note_on_c, 0, 99, 64
2, 29868, Note_on_c, 0, 99, 0
2, 29948, Note_on_c, 0, 82, 71
2, 29992, Note_on_c, 0, 82, 0
2, 30072, Note_on_c, 0, 99, 80
2, 30108, Note_on_c, 0, 99, 0
2, 30220, Note_on_c, 0, 82, 82
2, 30226, Note_on_c, 0, 80, 96
2, 30246, Note_on_c, 0, 47, 50
2, 30260, Note_on_c, 0, 82, 0
2, 30294, Control_c, 0, 64, 127
2, 30296, Note_on_c, 0, 47, 0
2, 30316, Note_on_c, 0, 80, 0
2, 30402, Note_on_c, 0, 99, 74
2, 30418, Control_c, 0, 64, 0
2, 30440, Note_on_c, 0, 99, 0
2, 30534, Note_on_c, 0, 79, 98
2, 30542, Note_on_c, 0, 63, 56
2, 30554, Note_on_c, 0, 56, 42
2, 30570, Note_on_c, 0, 79, 0
2, 30604, Note_on_c, 0, 63, 0
2, 30618, Note_on_c, 0, 56, 0
2, 30676, Note_on_c, 0, 99, 89
2, 30708, Note_on_c, 0, 99, 0
2, 30798, Note_on_c, 0, 80, 87
2, 30834, Note_on_c, 0, 80, 0
2, 30930, Note_on_c, 0, 99, 85
2, 30962, Note_on_c, 0, 99, 0
2, 31052, Note_on_c, 0, 79, 90
2, 31110, Note_on_c, 0, 79, 0
2, 31114, Note_on_c, 0, 80, 77
2, 31142, Note_on_c, 0, 51, 32
2, 31192, Note_on_c, 0, 82, 83
2, 31218, Note_on_c, 0, 51, 0
2, 31218, Note_on_c, 0, 80, 0
2, 31230, Note_on_c, 0, 82, 0
2, 31294, Control_c, 0, 64, 127
2, 31344, Note_on_c, 0, 99, 82
2, 31378, Note_on_c, 0, 99, 0
2, 31498, Note_on_c, 0, 67, 37
2, 31506, Note_on_c, 0, 58, 21
2, 31524, Note_on_c, 0, 75, 63
2, 31572, Note_on_c, 0, 75, 0
2, 31584, Note_on_c, 0, 67, 0
2, 31606, Note_on_c, 0, 58, 0
2, 31708, Note_on_c, 0, 99, 18
2, 31768, Note_on_c, 0, 99, 0
2, 31830, Note_on_c, 0, 75, 87
2, 31918, Note_on_c, 0, 75, 0
2, 31954, Note_on_c, 0, 87, 57
2, 32004, Note_on_c, 0, 87, 0
2, 32046, Control_c, 0, 64, 0
2, 32074, Note_on_c, 0, 70, 49
2, 32076, Note_on_c, 0, 78, 74
2, 32084, Note_on_c, 0, 68, 52
2, 32088, Note_on_c, 0, 61, 50
2, 32094, Note_on_c, 0, 76, 69
2, 32116, Note_on_c, 0, 78, 0
2, 32136, Note_on_c, 0, 70, 0
2, 32136, Note_on_c, 0, 76, 0
2, 32136, Note_on_c, 0, 68, 0
2, 32162, Note_on_c, 0, 61, 0
2, 32250, Note_on_c, 0, 92, 35
2, 32326, Note_on_c, 0, 92, 0
2, 32344, Note_on_c, 0, 70, 52
2, 32347, Note_on_c, 0, 75, 88
2, 32354, Note_on_c, 0, 68, 41
2, 32374, Note_on_c, 0, 63, 40
2, 32390, Note_on_c, 0, 75, 0
2, 32404, Note_on_c, 0, 70, 0
2, 32416, Note_on_c, 0, 68, 0
2, 32432, Note_on_c, 0, 63, 0
2, 32492, Note_on_c, 0, 92, 71
2, 32536, Note_on_c, 0, 92, 0
2, 32612, Note_on_c, 0, 70, 52
2, 32616, Note_on_c, 0, 73, 80
2, 32638, Note_on_c, 0, 68, 26
2, 32652, Note_on_c, 0, 64, 35
2, 32660, Note_on_c, 0, 73, 0
2, 32674, Note_on_c, 0, 70, 0
2, 32708, Note_on_c, 0, 64, 0
2, 32714, Note_on_c, 0, 68, 0
2, 32770, Note_on_c, 0, 92, 77
2, 32812, Note_on_c, 0, 92, 0
2, 32922, Note_on_c, 0, 75, 81
2, 32930, Note_on_c, 0, 71, 49
2, 32938, Note_on_c, 0, 68, 29
2, 32960, Note_on_c, 0, 63, 26
2, 33048, Note_on_c, 0, 75, 0
2, 33058, Note_on_c, 0, 63, 0
2, 33061, Control_c, 0, 64, 127
2, 33074, Note_on_c, 0, 87, 54
2, 33088, Note_on_c, 0, 71, 0
2, 33148, Note_on_c, 0, 68, 0
2, 33192, Note_on_c, 0, 80, 73
2, 33204, Note_on_c, 0, 87, 0
2, 33252, Note_on_c, 0, 80, 0
2, 33330, Note_on_c, 0, 83, 112
2, 33362, Note_on_c, 0, 83, 0
2, 33384, Control_c, 0, 64, 0
2, 33472, Note_on_c, 0, 87, 92
2, 33586, Note_on_c, 0, 87, 0
2, 33626, Note_on_c, 0, 99, 75
2, 33660, Control_c, 0, 64, 127
2, 33660, Note_on_c, 0, 51, 41
2, 33666, Note_on_c, 0, 99, 0
2, 33788, Note_on_c, 0, 51, 0
2, 33790, Note_on_c, 0, 61, 55
2, 33854, Note_on_c, 0, 61, 0
2, 33898, Note_on_c, 0, 75, 55
2, 33934, Note_on_c, 0, 67, 42
2, 33996, Note_on_c, 0, 75, 0
2, 34036, Note_on_c, 0, 67, 0
2, 34039, Note_on_c, 0, 87, 43
2, 34104, Note_on_c, 0, 87, 0
2, 34182, Note_on_c, 0, 79, 56
2, 34242, Note_on_c, 0, 79, 0
2, 34310, Note_on_c, 0, 82, 59
2, 34354, Note_on_c, 0, 82, 0
2, 34484, Note_on_c, 0, 87, 54
2, 34536, Control_c, 0, 64, 0
2, 34562, Note_on_c, 0, 87, 0
2, 34640, Note_on_c, 0, 99, 59
2, 34692, Note_on_c, 0, 99, 0
2, 34762, Note_on_c, 0, 44, 49
2, 34812, Control_c, 0, 64, 127
2, 34832, Note_on_c, 0, 44, 0
2, 34950, Note_on_c, 0, 59, 31
2, 35014, Note_on_c, 0, 59, 0
2, 35110, Note_on_c, 0, 63, 70
2, 35178, Note_on_c, 0, 63, 0
2, 35282, Note_on_c, 0, 68, 49
2, 35336, Note_on_c, 0, 68, 0
2, 35448, Note_on_c, 0, 75, 48
2, 35504, Note_on_c, 0, 75, 0
2, 35618, Note_on_c, 0, 80, 48
2, 35682, Note_on_c, 0, 80, 0
2, 35820, Note_on_c, 0, 83, 59
2, 35880, Note_on_c, 0, 83, 0
2, 36004, Note_on_c, 0, 87, 42
2, 36078, Note_on_c, 0, 87, 0
2, 36278, Note_on_c, 0, 92, 55
2, 36332, Note_on_c, 0, 92, 0
2, 37086, Control_c, 0, 64, 0
2, 37660, Note_on_c, 0, 71, 57
2, 37724, Note_on_c, 0, 71, 0
2, 37850, Note_on_c, 0, 70, 65
2, 37856, Note_on_c, 0, 67, 67
2, 37904, Note_on_c, 0, 67, 0
2, 37944, Note_on_c, 0, 70, 0
2, 38034, Note_on_c, 0, 71, 92
2, 38098, Note_on_c, 0, 71, 0
2, 38180, Note_on_c, 0, 66, 69
2, 38183, Note_on_c, 0, 69, 66
2, 38232, Note_on_c, 0, 69, 0
2, 38244, Note_on_c, 0, 66, 0
2, 38336, Note_on_c, 0, 71, 95
2, 38430, Note_on_c, 0, 71, 0
2, 38474, Note_on_c, 0, 68, 74
2, 38488, Note_on_c, 0, 65, 57
2, 38536, Note_on_c, 0, 65, 0
2, 38550, Note_on_c, 0, 68, 0
2, 38656, Note_on_c, 0, 71, 97
2, 38718, Note_on_c, 0, 71, 0
2, 38812, Note_on_c, 0, 67, 87
2, 38818, Note_on_c, 0, 64, 86
2, 38858, Note_on_c, 0, 64, 0
2, 38872, Note_on_c, 0, 67, 0
2, 39092, Note_on_c, 0, 73, 74
2, 39130, Note_on_c, 0, 71, 95
2, 39192, Note_on_c, 0, 73, 0
2, 39202, Note_on_c, 0, 71, 0
2, 39208, Note_on_c, 0, 70, 59
2, 39260, Note_on_c, 0, 70, 0
2, 39276, Note_on_c, 0, 71, 74
2, 39350, Note_on_c, 0, 71, 0
2, 39350, Note_on_c, 0, 66, 75
2, 39376, Note_on_c, 0, 63, 71
2, 39388, Note_on_c, 0, 59, 47
2, 39390, Note_on_c, 0, 66, 0
2, 39426, Note_on_c, 0, 63, 0
2, 39440, Note_on_c, 0, 59, 0
2, 39528, Note_on_c, 0, 90, 82
2, 39544, Control_c, 0, 64, 127
2, 39568, Note_on_c, 0, 90, 0
2, 39682, Control_c, 0, 64, 0
2, 39706, Note_on_c, 0, 66, 52
2, 39712, Note_on_c, 0, 71, 83
2, 39722, Note_on_c, 0, 54, 52
2, 39728, Note_on_c, 0, 63, 49
2, 39754, Note_on_c, 0, 71, 0
2, 39778, Note_on_c, 0, 66, 0
2, 39784, Note_on_c, 0, 63, 0
2, 39802, Note_on_c, 0, 54, 0
2, 39894, Note_on_c, 0, 90, 92
2, 39930, Note_on_c, 0, 90, 0
2, 40100, Note_on_c, 0, 75, 83
2, 40158, Note_on_c, 0, 73, 62
2, 40174, Note_on_c, 0, 75, 0
2, 40214, Note_on_c, 0, 73, 0
2, 40234, Note_on_c, 0, 72, 64
2, 40298, Note_on_c, 0, 73, 56
2, 40316, Note_on_c, 0, 72, 0
2, 40368, Note_on_c, 0, 66, 78
2, 40388, Note_on_c, 0, 64, 67
2, 40391, Note_on_c, 0, 58, 42
2, 40408, Note_on_c, 0, 66, 0
2, 40420, Note_on_c, 0, 73, 0
2, 40432, Note_on_c, 0, 64, 0
2, 40458, Note_on_c, 0, 58, 0
2, 40528, Note_on_c, 0, 90, 92
2, 40568, Note_on_c, 0, 90, 0
2, 40680, Note_on_c, 0, 73, 89
2, 40688, Note_on_c, 0, 66, 70
2, 40692, Note_on_c, 0, 54, 63
2, 40716, Note_on_c, 0, 64, 34
2, 40732, Note_on_c, 0, 66, 0
2, 40732, Note_on_c, 0, 73, 0
2, 40748, Note_on_c, 0, 54, 0
2, 40776, Note_on_c, 0, 64, 0
2, 40830, Note_on_c, 0, 90, 94
2, 40862, Note_on_c, 0, 90, 0
2, 41012, Note_on_c, 0, 76, 85
2, 41076, Note_on_c, 0, 75, 74
2, 41098, Note_on_c, 0, 76, 0
2, 41144, Note_on_c, 0, 74, 75
2, 41168, Note_on_c, 0, 75, 0
2, 41230, Note_on_c, 0, 74, 0
2, 41233, Note_on_c, 0, 75, 74
2, 41326, Note_on_c, 0, 66, 27
2, 41352, Note_on_c, 0, 75, 0
2, 41355, Note_on_c, 0, 63, 36
2, 41360, Note_on_c, 0, 71, 78
2, 41378, Note_on_c, 0, 59, 19
2, 41404, Note_on_c, 0, 71, 0
2, 41456, Note_on_c, 0, 59, 0
2, 41466, Control_c, 0, 64, 127
2, 41474, Note_on_c, 0, 66, 0
2, 41484, Note_on_c, 0, 63, 0
2, 41614, Note_on_c, 0, 90, 57
2, 41664, Note_on_c, 0, 90, 0
2, 41756, Control_c, 0, 64, 0
2, 41868, Note_on_c, 0, 75, 87
2, 41904, Note_on_c, 0, 75, 0
2, 42050, Note_on_c, 0, 74, 90
2, 42050, Note_on_c, 0, 71, 87
2, 42088, Note_on_c, 0, 74, 0
2, 42091, Note_on_c, 0, 71, 0
2, 42218, Note_on_c, 0, 75, 94
2, 42260, Note_on_c, 0, 75, 0
2, 42352, Note_on_c, 0, 70, 71
2, 42356, Note_on_c, 0, 73, 75
2, 42402, Note_on_c, 0, 70, 0
2, 42406, Note_on_c, 0, 73, 0
2, 42518, Note_on_c, 0, 75, 101
2, 42592, Note_on_c, 0, 75, 0
2, 42666, Note_on_c, 0, 69, 71
2, 42666, Note_on_c, 0, 72, 85
2, 42714, Note_on_c, 0, 69, 0
2, 42716, Note_on_c, 0, 72, 0
2, 42814, Note_on_c, 0, 75, 101
2, 42850, Note_on_c, 0, 75, 0
2, 42962, Note_on_c, 0, 68, 77
2, 42964, Note_on_c, 0, 71, 98
2, 43002, Note_on_c, 0, 71, 0
2, 43002, Note_on_c, 0, 68, 0
2, 43154, Note_on_c, 0, 77, 97
2, 43220, Note_on_c, 0, 75, 80
2, 43254, Note_on_c, 0, 77, 0
2, 43282, Note_on_c, 0, 75, 0
2, 43306, Note_on_c, 0, 74, 58
2, 43358, Note_on_c, 0, 74, 0
2, 43358, Note_on_c, 0, 75, 71
2, 43440, Note_on_c, 0, 70, 65
2, 43452, Note_on_c, 0, 66, 48
2, 43454, Note_on_c, 0, 75, 0
2, 43470, Note_on_c, 0, 63, 35
2, 43486, Note_on_c, 0, 70, 0
2, 43510, Note_on_c, 0, 66, 0
2, 43526, Note_on_c, 0, 63, 0
2, 43594, Note_on_c, 0, 94, 88
2, 43630, Note_on_c, 0, 94, 0
2, 43766, Note_on_c, 0, 75, 82
2, 43770, Note_on_c, 0, 70, 50
2, 43790, Note_on_c, 0, 66, 50
2, 43798, Note_on_c, 0, 58, 23
2, 43810, Note_on_c, 0, 75, 0
2, 43840, Note_on_c, 0, 70, 0
2, 43850, Note_on_c, 0, 66, 0
2, 43878, Note_on_c, 0, 58, 0
2, 43934, Note_on_c, 0, 94, 86
2, 43968, Note_on_c, 0, 94, 0
2, 44140, Note_on_c, 0, 78, 86
2, 44194, Note_on_c, 0, 77, 66
2, 44212, Note_on_c, 0, 78, 0
2, 44258, Note_on_c, 0, 77, 0
2, 44286, Note_on_c, 0, 76, 56
2, 44340, Note_on_c, 0, 76, 0
2, 44343, Note_on_c, 0, 77, 63
2, 44420, Note_on_c, 0, 77, 0
2, 44422, Note_on_c, 0, 70, 64
2, 44422, Note_on_c, 0, 68, 52
2, 44466, Note_on_c, 0, 70, 0
2, 44466, Note_on_c, 0, 62, 26
2, 44480, Note_on_c, 0, 68, 0
2, 44532, Note_on_c, 0, 62, 0
2, 44590, Note_on_c, 0, 94, 58
2, 44636, Note_on_c, 0, 94, 0
2, 44748, Note_on_c, 0, 70, 36
2, 44758, Note_on_c, 0, 77, 66
2, 44764, Note_on_c, 0, 68, 39
2, 44774, Note_on_c, 0, 58, 26
2, 44798, Note_on_c, 0, 77, 0
2, 44820, Note_on_c, 0, 70, 0
2, 44834, Note_on_c, 0, 68, 0
2, 44852, Note_on_c, 0, 58, 0
2, 44902, Note_on_c, 0, 94, 73
2, 44942, Note_on_c, 0, 94, 0
2, 45108, Note_on_c, 0, 80, 79
2, 45168, Note_on_c, 0, 80, 0
2, 45168, Note_on_c, 0, 78, 69
2, 45244, Note_on_c, 0, 78, 0
2, 45278, Note_on_c, 0, 77, 44
2, 45338, Note_on_c, 0, 77, 0
2, 45338, Note_on_c, 0, 78, 57
2, 45416, Note_on_c, 0, 78, 0
2, 45430, Note_on_c, 0, 70, 23
2, 45454, Note_on_c, 0, 75, 49
2, 45460, Note_on_c, 0, 66, 18
2, 45464, Note_on_c, 0, 63, 26
2, 45506, Note_on_c, 0, 75, 0
2, 45538, Note_on_c, 0, 63, 0
2, 45538, Control_c, 0, 64, 127
2, 45548, Note_on_c, 0, 70, 0
2, 45560, Note_on_c, 0, 66, 0
2, 45652, Note_on_c, 0, 94, 42
2, 45712, Note_on_c, 0, 94, 0
2, 45844, Control_c, 0, 64, 0
2, 45864, Note_on_c, 0, 78, 86
2, 45906, Note_on_c, 0, 78, 0
2, 46024, Note_on_c, 0, 77, 87
2, 46030, Note_on_c, 0, 74, 80
2, 46070, Note_on_c, 0, 74, 0
2, 46070, Note_on_c, 0, 77, 0
2, 46186, Note_on_c, 0, 78, 101
2, 46240, Note_on_c, 0, 78, 0
2, 46336, Note_on_c, 0, 73, 86
2, 46342, Note_on_c, 0, 76, 79
2, 46390, Note_on_c, 0, 76, 0
2, 46432, Note_on_c, 0, 73, 0
2, 46492, Note_on_c, 0, 78, 105
2, 46602, Note_on_c, 0, 78, 0
2, 46640, Note_on_c, 0, 75, 86
2, 46642, Note_on_c, 0, 72, 92
2, 46692, Note_on_c, 0, 72, 0
2, 46738, Note_on_c, 0, 75, 0
2, 46794, Note_on_c, 0, 78, 110
2, 46840, Note_on_c, 0, 78, 0
2, 46928, Note_on_c, 0, 74, 102
2, 46930, Note_on_c, 0, 71, 96
2, 46974, Note_on_c, 0, 71, 0
2, 46990, Note_on_c, 0, 74, 0
2, 47134, Note_on_c, 0, 80, 95
2, 47182, Note_on_c, 0, 78, 87
2, 47248, Note_on_c, 0, 80, 0
2, 47276, Note_on_c, 0, 77, 75
2, 47288, Note_on_c, 0, 78, 0
2, 47326, Note_on_c, 0, 77, 0
2, 47344, Note_on_c, 0, 78, 86
2, 47408, Note_on_c, 0, 66, 60
2, 47408, Note_on_c, 0, 70, 59
2, 47411, Note_on_c, 0, 73, 71
2, 47446, Note_on_c, 0, 78, 0
2, 47454, Note_on_c, 0, 73, 0
2, 47468, Note_on_c, 0, 70, 0
2, 47472, Note_on_c, 0, 66, 0
2, 47572, Note_on_c, 0, 97, 92
2, 47604, Note_on_c, 0, 97, 0
2, 47726, Note_on_c, 0, 78, 96
2, 47731, Note_on_c, 0, 73, 59
2, 47744, Note_on_c, 0, 70, 51
2, 47756, Note_on_c, 0, 61, 43
2, 47782, Note_on_c, 0, 78, 0
2, 47790, Note_on_c, 0, 73, 0
2, 47802, Note_on_c, 0, 70, 0
2, 47818, Note_on_c, 0, 61, 0
2, 47896, Note_on_c, 0, 97, 85
2, 47930, Note_on_c, 0, 97, 0
2, 48088, Note_on_c, 0, 82, 80
2, 48148, Note_on_c, 0, 80, 70
2, 48168, Note_on_c, 0, 82, 0
2, 48212, Note_on_c, 0, 80, 0
2, 48222, Note_on_c, 0, 79, 73
2, 48292, Note_on_c, 0, 79, 0
2, 48300, Note_on_c, 0, 80, 63
2, 48386, Note_on_c, 0, 73, 49
2, 48388, Note_on_c, 0, 71, 54
2, 48392, Note_on_c, 0, 65, 35
2, 48418, Note_on_c, 0, 80, 0
2, 48438, Note_on_c, 0, 73, 0
2, 48452, Note_on_c, 0, 71, 0
2, 48455, Control_c, 0, 64, 127
2, 48508, Note_on_c, 0, 65, 0
2, 48544, Note_on_c, 0, 97, 83
2, 48580, Note_on_c, 0, 97, 0
2, 48672, Control_c, 0, 64, 0
2, 48702, Note_on_c, 0, 80, 70
2, 48705, Note_on_c, 0, 73, 69
2, 48708, Note_on_c, 0, 61, 57
2, 48724, Note_on_c, 0, 71, 39
2, 48748, Note_on_c, 0, 80, 0
2, 48758, Note_on_c, 0, 61, 0
2, 48778, Note_on_c, 0, 73, 0
2, 48782, Note_on_c, 0, 71, 0
2, 48850, Note_on_c, 0, 97, 75
2, 48888, Note_on_c, 0, 97, 0
2, 48992, Note_on_c, 0, 82, 95
2, 49004, Note_on_c, 0, 78, 78
2, 49052, Note_on_c, 0, 78, 0
2, 49098, Note_on_c, 0, 82, 0
2, 49164, Note_on_c, 0, 80, 74
2, 49166, Note_on_c, 0, 83, 123
2, 49208, Note_on_c, 0, 80, 0
2, 49240, Note_on_c, 0, 83, 0
2, 49256, Control_c, 0, 64, 127
2, 49304, Note_on_c, 0, 66, 49
2, 49360, Note_on_c, 0, 66, 0
2, 49390, Note_on_c, 0, 85, 103
2, 49410, Note_on_c, 0, 82, 93
2, 49544, Note_on_c, 0, 97, 74
2, 49552, Note_on_c, 0, 90, 65
2, 49560, Note_on_c, 0, 85, 0
2, 49564, Note_on_c, 0, 82, 0
2, 49592, Note_on_c, 0, 97, 0
2, 49600, Note_on_c, 0, 90, 0
2, 49692, Note_on_c, 0, 83, 118
2, 49708, Note_on_c, 0, 80, 77
2, 49758, Note_on_c, 0, 80, 0
2, 49761, Control_c, 0, 64, 0
2, 49806, Note_on_c, 0, 83, 0
2, 49842, Note_on_c, 0, 78, 82
2, 49845, Note_on_c, 0, 82, 82
2, 49878, Note_on_c, 0, 78, 0
2, 49918, Note_on_c, 0, 82, 0
2, 50006, Note_on_c, 0, 71, 85
2, 50009, Note_on_c, 0, 80, 88
2, 50048, Note_on_c, 0, 71, 0
2, 50066, Note_on_c, 0, 80, 0
2, 50134, Note_on_c, 0, 73, 83
2, 50158, Note_on_c, 0, 82, 80
2, 50168, Note_on_c, 0, 73, 0
2, 50202, Note_on_c, 0, 82, 0
2, 50302, Note_on_c, 0, 59, 60
2, 50352, Note_on_c, 0, 59, 0
2, 50356, Note_on_c, 0, 83, 111
2, 50404, Note_on_c, 0, 75, 93
2, 50438, Control_c, 0, 64, 127
2, 50476, Note_on_c, 0, 75, 0
2, 50504, Note_on_c, 0, 83, 0
2, 50512, Note_on_c, 0, 87, 67
2, 50514, Note_on_c, 0, 95, 63
2, 50564, Note_on_c, 0, 95, 0
2, 50572, Note_on_c, 0, 87, 0
2, 50658, Note_on_c, 0, 82, 78
2, 50676, Note_on_c, 0, 73, 52
2, 50730, Note_on_c, 0, 73, 0
2, 50730, Control_c, 0, 64, 0
2, 50755, Note_on_c, 0, 82, 0
2, 50800, Note_on_c, 0, 80, 87
2, 50800, Note_on_c, 0, 71, 82
2, 50846, Note_on_c, 0, 71, 0
2, 50858, Note_on_c, 0, 80, 0
2, 50938, Note_on_c, 0, 70, 69
2, 50946, Note_on_c, 0, 78, 95
2, 50988, Note_on_c, 0, 70, 0
2, 50998, Note_on_c, 0, 78, 0
2, 51094, Note_on_c, 0, 71, 71
2, 51097, Note_on_c, 0, 80, 86
2, 51136, Note_on_c, 0, 80, 0
2, 51146, Note_on_c, 0, 71, 0
2, 51208, Note_on_c, 0, 61, 52
2, 51254, Note_on_c, 0, 82, 89
2, 51268, Note_on_c, 0, 73, 83
2, 51336, Note_on_c, 0, 73, 0
2, 51346, Note_on_c, 0, 61, 0
2, 51356, Note_on_c, 0, 82, 0
2, 51392, Control_c, 0, 64, 127
2, 51395, Note_on_c, 0, 94, 71
2, 51399, Note_on_c, 0, 85, 71
2, 51438, Note_on_c, 0, 94, 0
2, 51448, Note_on_c, 0, 85, 0
2, 51528, Control_c, 0, 64, 0
2, 51533, Note_on_c, 0, 80, 89
2, 51536, Note_on_c, 0, 71, 70
2, 51586, Note_on_c, 0, 71, 0
2, 51614, Note_on_c, 0, 80, 0
2, 51680, Note_on_c, 0, 70, 65
2, 51682, Note_on_c, 0, 78, 78
2, 51728, Note_on_c, 0, 78, 0
2, 51734, Note_on_c, 0, 70, 0
2, 51838, Note_on_c, 0, 68, 66
2, 51850, Note_on_c, 0, 77, 82
2, 51894, Note_on_c, 0, 68, 0
2, 51900, Note_on_c, 0, 77, 0
2, 51996, Note_on_c, 0, 70, 79
2, 51998, Note_on_c, 0, 78, 81
2, 52036, Note_on_c, 0, 78, 0
2, 52039, Note_on_c, 0, 70, 0
2, 52144, Note_on_c, 0, 61, 54
2, 52182, Note_on_c, 0, 80, 74
2, 52212, Note_on_c, 0, 71, 71
2, 52232, Note_on_c, 0, 61, 0
2, 52310, Note_on_c, 0, 80, 0
2, 52328, Note_on_c, 0, 71, 0
2, 52342, Note_on_c, 0, 83, 49
2, 52344, Note_on_c, 0, 92, 23
2, 52344, Control_c, 0, 64, 127
2, 52408, Note_on_c, 0, 92, 0
2, 52408, Note_on_c, 0, 83, 0
2, 52482, Control_c, 0, 64, 0
2, 52500, Note_on_c, 0, 75, 50
2, 52505, Note_on_c, 0, 66, 35
2, 52556, Note_on_c, 0, 75, 0
2, 52574, Note_on_c, 0, 66, 0
2, 52624, Note_on_c, 0, 68, 71
2, 52642, Note_on_c, 0, 77, 74
2, 52664, Note_on_c, 0, 68, 0
2, 52680, Note_on_c, 0, 77, 0
2, 52758, Note_on_c, 0, 54, 80
2, 52802, Note_on_c, 0, 54, 0
2, 52834, Note_on_c, 0, 78, 74
2, 52882, Control_c, 0, 64, 127
2, 52884, Note_on_c, 0, 70, 65
2, 52980, Note_on_c, 0, 78, 0
2, 52994, Note_on_c, 0, 70, 0
2, 53010, Note_on_c, 0, 82, 60
2, 53010, Note_on_c, 0, 90, 57
2, 53066, Note_on_c, 0, 82, 0
2, 53074, Note_on_c, 0, 90, 0
2, 53128, Note_on_c, 0, 66, 85
2, 53242, Note_on_c, 0, 66, 0
2, 53272, Note_on_c, 0, 78, 87
2, 53340, Note_on_c, 0, 78, 0
2, 53358, Control_c, 0, 64, 0
2, 53424, Note_on_c, 0, 67, 87
2, 53500, Note_on_c, 0, 67, 0
2, 53546, Note_on_c, 0, 79, 108
2, 53586, Note_on_c, 0, 79, 0
2, 53634, Control_c, 0, 64, 127
2, 53700, Note_on_c, 0, 68, 96
2, 53742, Control_c, 0, 64, 0
2, 53778, Note_on_c, 0, 68, 0
2, 53834, Note_on_c, 0, 80, 83
2, 53880, Note_on_c, 0, 80, 0
2, 53992, Note_on_c, 0, 92, 82
2, 53992, Note_on_c, 0, 68, 57
2, 54032, Note_on_c, 0, 64, 44
2, 54038, Note_on_c, 0, 92, 0
2, 54052, Note_on_c, 0, 68, 0
2, 54086, Note_on_c, 0, 64, 0
2, 54124, Note_on_c, 0, 80, 79
2, 54186, Note_on_c, 0, 80, 0
2, 54290, Note_on_c, 0, 68, 49
2, 54294, Note_on_c, 0, 92, 67
2, 54296, Note_on_c, 0, 63, 52
2, 54344, Note_on_c, 0, 92, 0
2, 54349, Note_on_c, 0, 63, 0
2, 54364, Note_on_c, 0, 68, 0
2, 54432, Note_on_c, 0, 78, 75
2, 54490, Note_on_c, 0, 78, 0
2, 54592, Note_on_c, 0, 92, 78
2, 54616, Note_on_c, 0, 61, 44
2, 54618, Note_on_c, 0, 68, 39
2, 54638, Note_on_c, 0, 92, 0
2, 54684, Note_on_c, 0, 61, 0
2, 54700, Note_on_c, 0, 68, 0
2, 54734, Note_on_c, 0, 76, 59
2, 54740, Control_c, 0, 64, 127
2, 54782, Note_on_c, 0, 76, 0
2, 54894, Control_c, 0, 64, 0
2, 54924, Note_on_c, 0, 102, 88
2, 54950, Note_on_c, 0, 75, 54
2, 54960, Note_on_c, 0, 102, 0
2, 55018, Note_on_c, 0, 75, 0
2, 55088, Note_on_c, 0, 80, 82
2, 55126, Note_on_c, 0, 80, 0
2, 55264, Note_on_c, 0, 100, 71
2, 55274, Note_on_c, 0, 73, 55
2, 55304, Note_on_c, 0, 100, 0
2, 55322, Note_on_c, 0, 73, 0
2, 55408, Note_on_c, 0, 80, 82
2, 55448, Note_on_c, 0, 80, 0
2, 55448, Control_c, 0, 64, 127
2, 55454, Note_on_c, 0, 56, 75
2, 55496, Note_on_c, 0, 56, 0
2, 55554, Control_c, 0, 64, 0
2, 55562, Note_on_c, 0, 99, 82
2, 55594, Note_on_c, 0, 99, 0
2, 55594, Note_on_c, 0, 97, 48
2, 55614, Note_on_c, 0, 72, 67
2, 55640, Note_on_c, 0, 97, 0
2, 55702, Note_on_c, 0, 72, 0
2, 55708, Note_on_c, 0, 80, 82
2, 55752, Note_on_c, 0, 80, 0
2, 55868, Note_on_c, 0, 97, 79
2, 55874, Note_on_c, 0, 70, 63
2, 55916, Note_on_c, 0, 97, 0
2, 55942, Note_on_c, 0, 70, 0
2, 55998, Note_on_c, 0, 80, 80
2, 56038, Note_on_c, 0, 80, 0
2, 56156, Note_on_c, 0, 99, 87
2, 56164, Note_on_c, 0, 72, 64
2, 56188, Note_on_c, 0, 99, 0
2, 56208, Note_on_c, 0, 72, 0
2, 56282, Note_on_c, 0, 80, 78
2, 56326, Note_on_c, 0, 80, 0
2, 56346, Note_on_c, 0, 61, 44
2, 56414, Note_on_c, 0, 61, 0
2, 56460, Note_on_c, 0, 100, 62
2, 56463, Note_on_c, 0, 73, 50
2, 56506, Note_on_c, 0, 100, 0
2, 56544, Note_on_c, 0, 73, 0
2, 56616, Note_on_c, 0, 80, 41
2, 56678, Note_on_c, 0, 80, 0
2, 56756, Note_on_c, 0, 97, 75
2, 56778, Note_on_c, 0, 76, 56
2, 56808, Note_on_c, 0, 97, 0
2, 56830, Note_on_c, 0, 76, 0
2, 56922, Note_on_c, 0, 80, 73
2, 56964, Note_on_c, 0, 80, 0
2, 57064, Note_on_c, 0, 67, 60
2, 57118, Note_on_c, 0, 67, 0
2, 57200, Note_on_c, 0, 79, 70
2, 57244, Note_on_c, 0, 79, 0
2, 57322, Control_c, 0, 64, 127
2, 57346, Note_on_c, 0, 66, 82
2, 57384, Note_on_c, 0, 66, 0
2, 57476, Control_c, 0, 64, 0
2, 57490, Note_on_c, 0, 78, 71
2, 57530, Note_on_c, 0, 78, 0
2, 57624, Note_on_c, 0, 66, 57
2, 57638, Note_on_c, 0, 63, 64
2, 57640, Note_on_c, 0, 90, 80
2, 57684, Note_on_c, 0, 66, 0
2, 57702, Note_on_c, 0, 90, 0
2, 57712, Note_on_c, 0, 63, 0
2, 57760, Note_on_c, 0, 78, 87
2, 57812, Note_on_c, 0, 78, 0
2, 57910, Note_on_c, 0, 61, 60
2, 57912, Note_on_c, 0, 66, 51
2, 57918, Note_on_c, 0, 90, 77
2, 57970, Note_on_c, 0, 61, 0
2, 57974, Note_on_c, 0, 66, 0
2, 57978, Note_on_c, 0, 90, 0
2, 58046, Note_on_c, 0, 76, 71
2, 58090, Note_on_c, 0, 76, 0
2, 58186, Note_on_c, 0, 90, 90
2, 58206, Note_on_c, 0, 66, 46
2, 58218, Note_on_c, 0, 59, 33
2, 58232, Note_on_c, 0, 90, 0
2, 58276, Note_on_c, 0, 59, 0
2, 58276, Note_on_c, 0, 66, 0
2, 58304, Note_on_c, 0, 75, 80
2, 58348, Note_on_c, 0, 75, 0
2, 58366, Control_c, 0, 64, 127
2, 58504, Control_c, 0, 64, 0
2, 58512, Note_on_c, 0, 100, 83
2, 58530, Note_on_c, 0, 73, 44
2, 58546, Note_on_c, 0, 100, 0
2, 58592, Note_on_c, 0, 73, 0
2, 58666, Note_on_c, 0, 78, 87
2, 58708, Note_on_c, 0, 78, 0
2, 58832, Note_on_c, 0, 71, 72
2, 58842, Note_on_c, 0, 99, 86
2, 58874, Note_on_c, 0, 99, 0
2, 58880, Note_on_c, 0, 71, 0
2, 58992, Note_on_c, 0, 78, 70
2, 59012, Note_on_c, 0, 54, 86
2, 59012, Control_c, 0, 64, 127
2, 59036, Note_on_c, 0, 78, 0
2, 59060, Note_on_c, 0, 54, 0
2, 59120, Control_c, 0, 64, 0
2, 59144, Note_on_c, 0, 97, 82
2, 59174, Note_on_c, 0, 70, 71
2, 59182, Note_on_c, 0, 97, 0
2, 59290, Note_on_c, 0, 70, 0
2, 59306, Note_on_c, 0, 78, 58
2, 59358, Note_on_c, 0, 78, 0
2, 59444, Note_on_c, 0, 68, 64
2, 59449, Note_on_c, 0, 95, 79
2, 59488, Note_on_c, 0, 95, 0
2, 59504, Note_on_c, 0, 68, 0
2, 59574, Note_on_c, 0, 78, 81
2, 59620, Note_on_c, 0, 78, 0
2, 59706, Note_on_c, 0, 70, 65
2, 59734, Note_on_c, 0, 97, 73
2, 59752, Note_on_c, 0, 70, 0
2, 59774, Note_on_c, 0, 97, 0
2, 59846, Note_on_c, 0, 78, 89
2, 59888, Note_on_c, 0, 78, 0
2, 59920, Note_on_c, 0, 59, 49
2, 59976, Note_on_c, 0, 59, 0
2, 59996, Control_c, 0, 64, 127
2, 60020, Note_on_c, 0, 99, 95
2, 60050, Note_on_c, 0, 99, 0
2, 60058, Note_on_c, 0, 71, 59
2, 60124, Note_on_c, 0, 71, 0
2, 60218, Note_on_c, 0, 78, 32
2, 60272, Control_c, 0, 64, 0
2, 60284, Note_on_c, 0, 78, 0
2, 60346, Note_on_c, 0, 75, 70
2, 60358, Note_on_c, 0, 95, 74
2, 60388, Note_on_c, 0, 75, 0
2, 60400, Note_on_c, 0, 95, 0
2, 60500, Note_on_c, 0, 78, 75
2, 60544, Note_on_c, 0, 78, 0
2, 60646, Note_on_c, 0, 62, 51
2, 60700, Note_on_c, 0, 62, 0
2, 60742, Note_on_c, 0, 74, 70
2, 60782, Note_on_c, 0, 74, 0
2, 60910, Note_on_c, 0, 63, 83
2, 60950, Note_on_c, 0, 63, 0
2, 61040, Note_on_c, 0, 75, 63
2, 61082, Note_on_c, 0, 75, 0
2, 61186, Note_on_c, 0, 63, 71
2, 61188, Note_on_c, 0, 55, 66
2, 61200, Note_on_c, 0, 87, 71
2, 61236, Note_on_c, 0, 63, 0
2, 61242, Note_on_c, 0, 87, 0
2, 61258, Note_on_c, 0, 55, 0
2, 61300, Note_on_c, 0, 75, 79
2, 61362, Note_on_c, 0, 75, 0
2, 61456, Note_on_c, 0, 56, 77
2, 61460, Note_on_c, 0, 87, 80
2, 61466, Note_on_c, 0, 65, 67
2, 61526, Note_on_c, 0, 65, 0
2, 61542, Note_on_c, 0, 87, 0
2, 61572, Note_on_c, 0, 56, 0
2, 61574, Note_on_c, 0, 74, 89
2, 61616, Note_on_c, 0, 74, 0
2, 61718, Note_on_c, 0, 87, 95
2, 61726, Note_on_c, 0, 67, 92
2, 61728, Note_on_c, 0, 58, 82
2, 61794, Note_on_c, 0, 67, 0
2, 61824, Note_on_c, 0, 87, 0
2, 61832, Note_on_c, 0, 58, 0
2, 61838, Note_on_c, 0, 73, 87
2, 61924, Note_on_c, 0, 73, 0
2, 61994, Note_on_c, 0, 87, 83
2, 62000, Note_on_c, 0, 67, 83
2, 62004, Note_on_c, 0, 58, 73
2, 62046, Note_on_c, 0, 67, 0
2, 62049, Note_on_c, 0, 58, 0
2, 62078, Note_on_c, 0, 87, 0
2, 62104, Note_on_c, 0, 73, 82
2, 62160, Note_on_c, 0, 73, 0
2, 62246, Note_on_c, 0, 68, 86
2, 62250, Note_on_c, 0, 87, 88
2, 62254, Note_on_c, 0, 59, 79
2, 62286, Note_on_c, 0, 87, 0
2, 62294, Note_on_c, 0, 68, 0
2, 62296, Note_on_c, 0, 59, 0
2, 62332, Note_on_c, 0, 85, 20
2, 62364, Note_on_c, 0, 71, 89
2, 62394, Note_on_c, 0, 85, 0
2, 62406, Note_on_c, 0, 71, 0
2, 62526, Note_on_c, 0, 88, 100
2, 62538, Note_on_c, 0, 70, 67
2, 62540, Note_on_c, 0, 76, 81
2, 62550, Note_on_c, 0, 61, 64
2, 62570, Note_on_c, 0, 88, 0
2, 62582, Note_on_c, 0, 76, 0
2, 62670, Note_on_c, 0, 87, 83
2, 62672, Note_on_c, 0, 82, 82
2, 62680, Note_on_c, 0, 70, 0
2, 62708, Note_on_c, 0, 87, 0
2, 62714, Note_on_c, 0, 82, 0
2, 62722, Note_on_c, 0, 61, 0
2, 62746, Control_c, 0, 64, 127
2, 62808, Control_c, 0, 64, 0
2, 62820, Note_on_c, 0, 73, 94
2, 62832, Note_on_c, 0, 85, 82
2, 62858, Note_on_c, 0, 73, 0
2, 62874, Note_on_c, 0, 85, 0
2, 62956, Note_on_c, 0, 83, 110
2, 62964, Note_on_c, 0, 76, 69
2, 62990, Note_on_c, 0, 83, 0
2, 63010, Note_on_c, 0, 76, 0
2, 63104, Note_on_c, 0, 62, 44
2, 63108, Note_on_c, 0, 65, 34
2, 63110, Note_on_c, 0, 71, 73
2, 63122, Note_on_c, 0, 82, 36
2, 63164, Note_on_c, 0, 71, 0
2, 63166, Note_on_c, 0, 62, 0
2, 63166, Note_on_c, 0, 65, 0
2, 63196, Note_on_c, 0, 82, 0
2, 63226, Note_on_c, 0, 80, 82
2, 63234, Note_on_c, 0, 77, 28
2, 63296, Note_on_c, 0, 77, 0
2, 63322, Note_on_c, 0, 80, 0
2, 63378, Note_on_c, 0, 70, 69
2, 63384, Note_on_c, 0, 79, 81
2, 63398, Note_on_c, 0, 67, 41
2, 63404, Note_on_c, 0, 63, 44
2, 63424, Note_on_c, 0, 70, 0
2, 63434, Note_on_c, 0, 79, 0
2, 63506, Note_on_c, 0, 82, 71
2, 63522, Note_on_c, 0, 75, 50
2, 63564, Note_on_c, 0, 82, 0
2, 63576, Note_on_c, 0, 75, 0
2, 63578, Note_on_c, 0, 63, 0
2, 63592, Note_on_c, 0, 67, 0
2, 63646, Note_on_c, 0, 79, 70
2, 63662, Note_on_c, 0, 83, 81
2, 63710, Note_on_c, 0, 83, 0
2, 63718, Note_on_c, 0, 79, 0
2, 63786, Note_on_c, 0, 75, 44
2, 63786, Note_on_c, 0, 82, 55
2, 63850, Note_on_c, 0, 75, 0
2, 63852, Note_on_c, 0, 82, 0
2, 63924, Note_on_c, 0, 74, 70
2, 63970, Note_on_c, 0, 74, 0
2, 64052, Note_on_c, 0, 86, 98
2, 64086, Note_on_c, 0, 86, 0
2, 64204, Note_on_c, 0, 75, 86
2, 64254, Note_on_c, 0, 75, 0
2, 64338, Note_on_c, 0, 87, 64
2, 64360, Control_c, 0, 64, 127
2, 64378, Note_on_c, 0, 87, 0
2, 64406, Control_c, 0, 64, 0
2, 64488, Note_on_c, 0, 99, 52
2, 64496, Note_on_c, 0, 75, 62
2, 64504, Note_on_c, 0, 67, 52
2, 64522, Note_on_c, 0, 97, 28
2, 64534, Note_on_c, 0, 99, 0
2, 64550, Note_on_c, 0, 75, 0
2, 64564, Note_on_c, 0, 67, 0
2, 64592, Note_on_c, 0, 97, 0
2, 64592, Note_on_c, 0, 87, 65
2, 64652, Note_on_c, 0, 87, 0
2, 64766, Note_on_c, 0, 99, 73
2, 64772, Note_on_c, 0, 77, 54
2, 64780, Note_on_c, 0, 68, 32
2, 64814, Note_on_c, 0, 99, 0
2, 64844, Note_on_c, 0, 77, 0
2, 64864, Note_on_c, 0, 68, 0
2, 64878, Note_on_c, 0, 86, 49
2, 64932, Note_on_c, 0, 86, 0
2, 65020, Note_on_c, 0, 79, 87
2, 65022, Note_on_c, 0, 99, 85
2, 65028, Note_on_c, 0, 70, 62
2, 65068, Note_on_c, 0, 99, 0
2, 65092, Note_on_c, 0, 79, 0
2, 65102, Note_on_c, 0, 70, 0
2, 65136, Note_on_c, 0, 85, 83
2, 65198, Note_on_c, 0, 85, 0
2, 65290, Note_on_c, 0, 99, 90
2, 65293, Note_on_c, 0, 79, 85
2, 65293, Note_on_c, 0, 70, 70
2, 65338, Note_on_c, 0, 99, 0
2, 65344, Note_on_c, 0, 70, 0
2, 65346, Note_on_c, 0, 79, 0
2, 65398, Note_on_c, 0, 85, 90
2, 65455, Note_on_c, 0, 85, 0
2, 65542, Note_on_c, 0, 80, 89
2, 65546, Note_on_c, 0, 99, 98
2, 65558, Note_on_c, 0, 71, 67
2, 65584, Note_on_c, 0, 80, 0
2, 65610, Note_on_c, 0, 71, 0
2, 65610, Note_on_c, 0, 99, 0
2, 65668, Note_on_c, 0, 83, 110
2, 65704, Note_on_c, 0, 83, 0
2, 65812, Note_on_c, 0, 100, 101
2, 65816, Note_on_c, 0, 88, 79
2, 65838, Note_on_c, 0, 81, 73
2, 65846, Note_on_c, 0, 100, 0
2, 65846, Note_on_c, 0, 73, 47
2, 65862, Note_on_c, 0, 88, 0
2, 65914, Note_on_c, 0, 81, 0
2, 65942, Note_on_c, 0, 99, 83
2, 65945, Note_on_c, 0, 93, 73
2, 65972, Note_on_c, 0, 73, 0
2, 65976, Note_on_c, 0, 99, 0
2, 65990, Note_on_c, 0, 93, 0
2, 66050, Control_c, 0, 64, 127
2, 66088, Note_on_c, 0, 85, 95
2, 66104, Note_on_c, 0, 97, 63
2, 66126, Note_on_c, 0, 85, 0
2, 66148, Note_on_c, 0, 97, 0
2, 66156, Control_c, 0, 64, 0
2, 66216, Note_on_c, 0, 88, 77
2, 66216, Note_on_c, 0, 95, 80
2, 66256, Note_on_c, 0, 95, 0
2, 66278, Note_on_c, 0, 88, 0
2, 66364, Note_on_c, 0, 83, 116
2, 66366, Note_on_c, 0, 93, 77
2, 66378, Note_on_c, 0, 77, 49
2, 66390, Note_on_c, 0, 74, 41
2, 66422, Note_on_c, 0, 83, 0
2, 66428, Note_on_c, 0, 77, 0
2, 66434, Note_on_c, 0, 93, 0
2, 66450, Note_on_c, 0, 74, 0
2, 66506, Note_on_c, 0, 92, 79
2, 66516, Note_on_c, 0, 89, 65
2, 66564, Note_on_c, 0, 89, 0
2, 66572, Note_on_c, 0, 92, 0
2, 66650, Note_on_c, 0, 82, 69
2, 66660, Note_on_c, 0, 91, 80
2, 66666, Note_on_c, 0, 79, 59
2, 66668, Note_on_c, 0, 75, 43
2, 66700, Note_on_c, 0, 82, 0
2, 66728, Note_on_c, 0, 75, 0
2, 66734, Note_on_c, 0, 91, 0
2, 66746, Note_on_c, 0, 79, 0
2, 66804, Note_on_c, 0, 94, 59
2, 66824, Note_on_c, 0, 87, 40
2, 66864, Control_c, 0, 64, 127
2, 66876, Note_on_c, 0, 87, 0
2, 66944, Note_on_c, 0, 94, 0
2, 66962, Note_on_c, 0, 74, 70
2, 67006, Note_on_c, 0, 74, 0
2, 67083, Note_on_c, 0, 86, 72
2, 67138, Note_on_c, 0, 86, 0
2, 67218, Note_on_c, 0, 75, 63
2, 67232, Control_c, 0, 64, 0
2, 67284, Note_on_c, 0, 75, 0
2, 67344, Note_on_c, 0, 87, 71
2, 67414, Note_on_c, 0, 87, 0
2, 67488, Note_on_c, 0, 99, 77
2, 67600, Note_on_c, 0, 99, 0
2, 67614, Note_on_c, 0, 87, 60
2, 67674, Note_on_c, 0, 87, 0
2, 67756, Note_on_c, 0, 75, 69
2, 67816, Note_on_c, 0, 75, 0
2, 67890, Note_on_c, 0, 87, 46
2, 67964, Note_on_c, 0, 87, 0
2, 68054, Note_on_c, 0, 76, 51
2, 68108, Note_on_c, 0, 76, 0
2, 68190, Note_on_c, 0, 88, 54
2, 68248, Note_on_c, 0, 88, 0
2, 68320, Note_on_c, 0, 99, 63
2, 68428, Note_on_c, 0, 99, 0
2, 68450, Note_on_c, 0, 87, 58
2, 68514, Note_on_c, 0, 87, 0
2, 68586, Note_on_c, 0, 76, 50
2, 68658, Note_on_c, 0, 76, 0
2, 68716, Note_on_c, 0, 88, 39
2, 68778, Note_on_c, 0, 88, 0
2, 68874, Note_on_c, 0, 77, 41
2, 68924, Note_on_c, 0, 77, 0
2, 69006, Note_on_c, 0, 89, 36
2, 69080, Note_on_c, 0, 89, 0
2, 69136, Note_on_c, 0, 99, 59
2, 69220, Note_on_c, 0, 99, 0
2, 69270, Note_on_c, 0, 87, 50
2, 69330, Note_on_c, 0, 87, 0
2, 69406, Note_on_c, 0, 78, 51
2, 69468, Note_on_c, 0, 78, 0
2, 69540, Note_on_c, 0, 90, 62
2, 69614, Note_on_c, 0, 90, 0
2, 69702, Note_on_c, 0, 99, 72
2, 69832, Note_on_c, 0, 99, 0
2, 69834, Note_on_c, 0, 87, 62
2, 69892, Note_on_c, 0, 87, 0
2, 69964, Note_on_c, 0, 79, 67
2, 70030, Note_on_c, 0, 79, 0
2, 70110, Note_on_c, 0, 91, 63
2, 70164, Note_on_c, 0, 91, 0
2, 70252, Note_on_c, 0, 99, 74
2, 70366, Note_on_c, 0, 99, 0
2, 70424, Note_on_c, 0, 87, 28
2, 70496, Note_on_c, 0, 87, 0
2, 70504, Note_on_c, 0, 80, 56
2, 70570, Note_on_c, 0, 80, 0
2, 70638, Note_on_c, 0, 92, 66
2, 70686, Note_on_c, 0, 92, 0
2, 70822, Note_on_c, 0, 99, 87
2, 70904, Control_c, 0, 64, 127
2, 70926, Note_on_c, 0, 99, 0
2, 70964, Note_on_c, 0, 81, 72
2, 71072, Note_on_c, 0, 81, 0
2, 71132, Note_on_c, 0, 99, 88
2, 71222, Note_on_c, 0, 99, 0
2, 71250, Note_on_c, 0, 82, 73
2, 71340, Note_on_c, 0, 82, 0
2, 71392, Note_on_c, 0, 99, 93
2, 71494, Note_on_c, 0, 99, 0
2, 71508, Note_on_c, 0, 83, 112
2, 71520, Control_c, 0, 64, 0
2, 71646, Note_on_c, 0, 99, 93
2, 71658, Note_on_c, 0, 83, 0
2, 71762, Note_on_c, 0, 99, 0
2, 71780, Control_c, 0, 64, 127
2, 71790, Note_on_c, 0, 84, 90
2, 71892, Note_on_c, 0, 84, 0
2, 71916, Note_on_c, 0, 99, 89
2, 72024, Note_on_c, 0, 99, 0
2, 72042, Control_c, 0, 64, 0
2, 72060, Note_on_c, 0, 85, 71
2, 72116, Note_on_c, 0, 85, 0
2, 72194, Note_on_c, 0, 99, 78
2, 72226, Control_c, 0, 64, 127
2, 72266, Note_on_c, 0, 99, 0
2, 72314, Note_on_c, 0, 86, 72
2, 72382, Note_on_c, 0, 86, 0
2, 72426, Control_c, 0, 64, 0
2, 72492, Note_on_c, 0, 99, 74
2, 72632, Note_on_c, 0, 87, 54
2, 72638, Note_on_c, 0, 99, 0
2, 72758, Note_on_c, 0, 87, 0
2, 72802, Note_on_c, 0, 99, 58
2, 72810, Control_c, 0, 64, 127
2, 72874, Note_on_c, 0, 99, 0
2, 72934, Note_on_c, 0, 87, 44
2, 73002, Note_on_c, 0, 87, 0
2, 73088, Note_on_c, 0, 99, 52
2, 73150, Note_on_c, 0, 99, 0
2, 73218, Note_on_c, 0, 87, 44
2, 73286, Note_on_c, 0, 87, 0
2, 73374, Note_on_c, 0, 99, 54
2, 73448, Note_on_c, 0, 99, 0
2, 73510, Note_on_c, 0, 87, 47
2, 73574, Note_on_c, 0, 87, 0
2, 73652, Note_on_c, 0, 99, 52
2, 73714, Note_on_c, 0, 99, 0
2, 73776, Note_on_c, 0, 87, 40
2, 73846, Note_on_c, 0, 87, 0
2, 73932, Note_on_c, 0, 99, 58
2, 74024, Note_on_c, 0, 99, 0
2, 74056, Control_c, 0, 64, 0
2, 74056, Note_on_c, 0, 87, 49
2, 74130, Note_on_c, 0, 87, 0
2, 74202, Note_on_c, 0, 99, 74
2, 74238, Note_on_c, 0, 99, 0
2, 74254, Control_c, 0, 64, 127
2, 74360, Note_on_c, 0, 87, 59
2, 74430, Note_on_c, 0, 87, 0
2, 74534, Note_on_c, 0, 75, 59
2, 74584, Note_on_c, 0, 75, 0
2, 74666, Note_on_c, 0, 87, 50
2, 74714, Note_on_c, 0, 87, 0
2, 74826, Note_on_c, 0, 99, 74
2, 74864, Note_on_c, 0, 99, 0
2, 74956, Note_on_c, 0, 87, 72
2, 75042, Note_on_c, 0, 87, 0
2, 75152, Note_on_c, 0, 75, 56
2, 75198, Note_on_c, 0, 75, 0
2, 75298, Note_on_c, 0, 87, 42
2, 75348, Note_on_c, 0, 87, 0
2, 75446, Note_on_c, 0, 99, 56
2, 75492, Note_on_c, 0, 99, 0
2, 75590, Note_on_c, 0, 87, 49
2, 75644, Note_on_c, 0, 87, 0
2, 75750, Note_on_c, 0, 75, 36
2, 75756, Note_on_c, 0, 63, 49
2, 75820, Note_on_c, 0, 75, 0
2, 75836, Note_on_c, 0, 63, 0
2, 75864, Note_on_c, 0, 87, 55
2, 75910, Note_on_c, 0, 87, 0
2, 76022, Control_c, 0, 64, 0
2, 76025, Note_on_c, 0, 75, 88
2, 76032, Note_on_c, 0, 99, 63
2, 76078, Note_on_c, 0, 99, 0
2, 76088, Note_on_c, 0, 75, 0
2, 76176, Note_on_c, 0, 87, 51
2, 76266, Note_on_c, 0, 87, 0
2, 76324, Note_on_c, 0, 75, 80
2, 76368, Note_on_c, 0, 75, 0
2, 76444, Note_on_c, 0, 87, 59
2, 76490, Note_on_c, 0, 87, 0
2, 76606, Note_on_c, 0, 73, 52
2, 76628, Note_on_c, 0, 99, 19
2, 76660, Note_on_c, 0, 73, 0
2, 76686, Note_on_c, 0, 99, 0
2, 76722, Note_on_c, 0, 87, 65
2, 76784, Note_on_c, 0, 56, 40
2, 76856, Note_on_c, 0, 56, 0
2, 76874, Note_on_c, 0, 87, 0
2, 76882, Note_on_c, 0, 71, 95
2, 76882, Note_on_c, 0, 75, 65
2, 76924, Note_on_c, 0, 75, 0
2, 76936, Note_on_c, 0, 71, 0
2, 77024, Note_on_c, 0, 87, 60
2, 77068, Note_on_c, 0, 87, 0
2, 77166, Note_on_c, 0, 99, 78
2, 77184, Note_on_c, 0, 71, 89
2, 77202, Note_on_c, 0, 99, 0
2, 77252, Note_on_c, 0, 71, 0
2, 77304, Note_on_c, 0, 87, 77
2, 77398, Note_on_c, 0, 87, 0
2, 77448, Note_on_c, 0, 75, 75
2, 77451, Note_on_c, 0, 70, 72
2, 77494, Note_on_c, 0, 75, 0
2, 77534, Note_on_c, 0, 70, 0
2, 77582, Note_on_c, 0, 87, 74
2, 77622, Note_on_c, 0, 87, 0
2, 77714, Note_on_c, 0, 68, 65
2, 77738, Note_on_c, 0, 59, 52
2, 77756, Note_on_c, 0, 99, 24
2, 77788, Note_on_c, 0, 68, 0
2, 77791, Note_on_c, 0, 59, 0
2, 77820, Note_on_c, 0, 99, 0
2, 77864, Note_on_c, 0, 87, 65
2, 77946, Note_on_c, 0, 87, 0
2, 78000, Note_on_c, 0, 67, 80
2, 78008, Note_on_c, 0, 75, 66
2, 78056, Note_on_c, 0, 75, 0
2, 78056, Note_on_c, 0, 67, 0
2, 78142, Note_on_c, 0, 87, 59
2, 78186, Note_on_c, 0, 87, 0
2, 78278, Note_on_c, 0, 68, 55
2, 78282, Note_on_c, 0, 99, 77
2, 78318, Note_on_c, 0, 99, 0
2, 78346, Note_on_c, 0, 68, 0
2, 78414, Note_on_c, 0, 87, 66
2, 78534, Note_on_c, 0, 87, 0
2, 78560, Note_on_c, 0, 75, 78
2, 78560, Note_on_c, 0, 70, 73
2, 78580, Note_on_c, 0, 67, 46
2, 78606, Note_on_c, 0, 75, 0
2, 78682, Note_on_c, 0, 87, 64
2, 78684, Note_on_c, 0, 67, 0
2, 78730, Note_on_c, 0, 87, 0
2, 78758, Note_on_c, 0, 70, 0
2, 78844, Note_on_c, 0, 99, 77
2, 78854, Note_on_c, 0, 63, 71
2, 78880, Note_on_c, 0, 99, 0
2, 78894, Note_on_c, 0, 63, 0
2, 78982, Note_on_c, 0, 87, 72
2, 79084, Note_on_c, 0, 87, 0
2, 79124, Note_on_c, 0, 63, 86
2, 79136, Note_on_c, 0, 75, 70
2, 79182, Note_on_c, 0, 75, 0
2, 79190, Note_on_c, 0, 63, 0
2, 79264, Note_on_c, 0, 87, 69
2, 79302, Note_on_c, 0, 87, 0
2, 79412, Note_on_c, 0, 64, 95
2, 79418, Note_on_c, 0, 99, 63
2, 79422, Note_on_c, 0, 55, 77
2, 79462, Note_on_c, 0, 99, 0
2, 79474, Note_on_c, 0, 55, 0
2, 79528, Note_on_c, 0, 64, 0
2, 79550, Note_on_c, 0, 87, 65
2, 79678, Note_on_c, 0, 87, 0
2, 79698, Note_on_c, 0, 75, 63
2, 79706, Note_on_c, 0, 63, 78
2, 79746, Note_on_c, 0, 75, 0
2, 79796, Note_on_c, 0, 63, 0
2, 79830, Note_on_c, 0, 87, 66
2, 79872, Note_on_c, 0, 87, 0
2, 79982, Note_on_c, 0, 99, 66
2, 79990, Note_on_c, 0, 61, 74
2, 80024, Note_on_c, 0, 99, 0
2, 80040, Note_on_c, 0, 61, 0
2, 80106, Note_on_c, 0, 87, 67
2, 80242, Note_on_c, 0, 87, 0
2, 80256, Note_on_c, 0, 59, 54
2, 80261, Note_on_c, 0, 75, 63
2, 80266, Note_on_c, 0, 56, 46
2, 80314, Note_on_c, 0, 75, 0
2, 80326, Note_on_c, 0, 59, 0
2, 80368, Note_on_c, 0, 56, 0
2, 80396, Note_on_c, 0, 87, 60
2, 80438, Note_on_c, 0, 87, 0
2, 80538, Note_on_c, 0, 99, 69
2, 80548, Note_on_c, 0, 59, 95
2, 80578, Note_on_c, 0, 99, 0
2, 80662, Note_on_c, 0, 59, 0
2, 80662, Note_on_c, 0, 87, 66
2, 80802, Note_on_c, 0, 87, 0
2, 80812, Note_on_c, 0, 58, 75
2, 80824, Note_on_c, 0, 75, 70
2, 80874, Note_on_c, 0, 75, 0
2, 80934, Note_on_c, 0, 58, 0
2, 80946, Note_on_c, 0, 87, 77
2, 80988, Note_on_c, 0, 87, 0
2, 81100, Note_on_c, 0, 56, 69
2, 81104, Note_on_c, 0, 99, 55
2, 81130, Note_on_c, 0, 52, 59
2, 81152, Note_on_c, 0, 99, 0
2, 81196, Note_on_c, 0, 52, 0
2, 81230, Note_on_c, 0, 56, 0
2, 81230, Note_on_c, 0, 87, 64
2, 81316, Note_on_c, 0, 87, 0
2, 81386, Note_on_c, 0, 75, 59
2, 81394, Note_on_c, 0, 55, 77
2, 81436, Note_on_c, 0, 75, 0
2, 81448, Note_on_c, 0, 55, 0
2, 81524, Note_on_c, 0, 87, 62
2, 81566, Note_on_c, 0, 87, 0
2, 81662, Note_on_c, 0, 56, 62
2, 81682, Note_on_c, 0, 99, 52
2, 81732, Note_on_c, 0, 99, 0
2, 81752, Note_on_c, 0, 56, 0
2, 81796, Note_on_c, 0, 87, 71
2, 81920, Note_on_c, 0, 87, 0
2, 81948, Note_on_c, 0, 58, 46
2, 81984, Note_on_c, 0, 75, 46
2, 82010, Note_on_c, 0, 55, 39
2, 82042, Note_on_c, 0, 75, 0
2, 82084, Note_on_c, 0, 55, 0
2, 82122, Control_c, 0, 64, 127
2, 82130, Note_on_c, 0, 87, 39
2, 82184, Note_on_c, 0, 87, 0
2, 82204, Note_on_c, 0, 58, 0
2, 82408, Note_on_c, 0, 51, 49
2, 82470, Note_on_c, 0, 51, 0
2, 82470, Note_on_c, 0, 87, 66
2, 82530, Note_on_c, 0, 87, 0
2, 82634, Note_on_c, 0, 75, 73
2, 82682, Note_on_c, 0, 75, 0
2, 82780, Note_on_c, 0, 87, 66
2, 82790, Note_on_c, 0, 63, 72
2, 82820, Note_on_c, 0, 87, 0
2, 82854, Note_on_c, 0, 63, 0
2, 82858, Control_c, 0, 64, 0
2, 82914, Note_on_c, 0, 99, 80
2, 82936, Note_on_c, 0, 75, 90
2, 82948, Note_on_c, 0, 99, 0
2, 83030, Note_on_c, 0, 75, 0
2, 83050, Note_on_c, 0, 87, 70
2, 83182, Note_on_c, 0, 87, 0
2, 83212, Note_on_c, 0, 75, 89
2, 83262, Note_on_c, 0, 75, 0
2, 83336, Note_on_c, 0, 87, 75
2, 83384, Note_on_c, 0, 87, 0
2, 83498, Note_on_c, 0, 73, 71
2, 83498, Note_on_c, 0, 99, 75
2, 83536, Note_on_c, 0, 99, 0
2, 83539, Note_on_c, 0, 73, 0
2, 83624, Note_on_c, 0, 87, 69
2, 83662, Note_on_c, 0, 56, 81
2, 83720, Control_c, 0, 64, 127
2, 83734, Note_on_c, 0, 56, 0
2, 83774, Note_on_c, 0, 87, 0
2, 83796, Note_on_c, 0, 71, 104
2, 83798, Note_on_c, 0, 75, 67
2, 83828, Control_c, 0, 64, 0
2, 83842, Note_on_c, 0, 75, 0
2, 83902, Note_on_c, 0, 71, 0
2, 83930, Note_on_c, 0, 87, 57
2, 83978, Note_on_c, 0, 87, 0
2, 84082, Note_on_c, 0, 99, 78
2, 84086, Note_on_c, 0, 71, 109
2, 84118, Note_on_c, 0, 99, 0
2, 84176, Note_on_c, 0, 71, 0
2, 84228, Note_on_c, 0, 87, 59
2, 84348, Note_on_c, 0, 87, 0
2, 84358, Note_on_c, 0, 70, 80
2, 84368, Note_on_c, 0, 75, 65
2, 84410, Note_on_c, 0, 75, 0
2, 84422, Note_on_c, 0, 70, 0
2, 84492, Note_on_c, 0, 87, 77
2, 84534, Note_on_c, 0, 87, 0
2, 84646, Note_on_c, 0, 68, 65
2, 84656, Note_on_c, 0, 99, 52
2, 84660, Note_on_c, 0, 59, 52
2, 84706, Note_on_c, 0, 99, 0
2, 84709, Note_on_c, 0, 59, 0
2, 84714, Note_on_c, 0, 68, 0
2, 84778, Note_on_c, 0, 87, 73
2, 84908, Note_on_c, 0, 87, 0
2, 84938, Note_on_c, 0, 67, 69
2, 84938, Note_on_c, 0, 75, 69
2, 84980, Note_on_c, 0, 75, 0
2, 84990, Note_on_c, 0, 67, 0
2, 85064, Note_on_c, 0, 87, 66
2, 85108, Note_on_c, 0, 87, 0
2, 85218, Note_on_c, 0, 68, 54
2, 85221, Note_on_c, 0, 99, 80
2, 85254, Note_on_c, 0, 99, 0
2, 85280, Note_on_c, 0, 68, 0
2, 85356, Note_on_c, 0, 87, 66
2, 85486, Note_on_c, 0, 87, 0
2, 85486, Note_on_c, 0, 70, 48
2, 85520, Note_on_c, 0, 75, 50
2, 85530, Note_on_c, 0, 67, 25
2, 85574, Note_on_c, 0, 75, 0
2, 85626, Note_on_c, 0, 67, 0
2, 85642, Note_on_c, 0, 87, 59
2, 85642, Control_c, 0, 64, 127
2, 85666, Note_on_c, 0, 70, 0
2, 85690, Note_on_c, 0, 87, 0
2, 85804, Note_on_c, 0, 63, 47
2, 85824, Note_on_c, 0, 99, 54
2, 85872, Note_on_c, 0, 99, 0
2, 85886, Note_on_c, 0, 63, 0
2, 85966, Note_on_c, 0, 87, 69
2, 86026, Note_on_c, 0, 87, 0
2, 86110, Note_on_c, 0, 75, 74
2, 86210, Note_on_c, 0, 75, 0
2, 86224, Control_c, 0, 64, 0
2, 86248, Note_on_c, 0, 87, 55
2, 86326, Note_on_c, 0, 87, 0
2, 86370, Note_on_c, 0, 70, 78
2, 86376, Note_on_c, 0, 61, 83
2, 86376, Note_on_c, 0, 76, 79
2, 86380, Note_on_c, 0, 68, 65
2, 86422, Note_on_c, 0, 70, 0
2, 86425, Note_on_c, 0, 68, 0
2, 86446, Note_on_c, 0, 76, 0
2, 86446, Note_on_c, 0, 61, 0
2, 86534, Note_on_c, 0, 87, 48
2, 86612, Note_on_c, 0, 87, 0
2, 86642, Note_on_c, 0, 75, 75
2, 86645, Note_on_c, 0, 70, 71
2, 86662, Note_on_c, 0, 68, 54
2, 86674, Note_on_c, 0, 63, 50
2, 86694, Note_on_c, 0, 70, 0
2, 86712, Note_on_c, 0, 68, 0
2, 86726, Note_on_c, 0, 63, 0
2, 86742, Note_on_c, 0, 75, 0
2, 86776, Note_on_c, 0, 87, 50
2, 86838, Note_on_c, 0, 87, 0
2, 86904, Note_on_c, 0, 73, 73
2, 86904, Note_on_c, 0, 70, 67
2, 86934, Note_on_c, 0, 64, 48
2, 86938, Note_on_c, 0, 68, 40
2, 86958, Note_on_c, 0, 73, 0
2, 86961, Note_on_c, 0, 70, 0
2, 86984, Note_on_c, 0, 64, 0
2, 87000, Note_on_c, 0, 68, 0
2, 87060, Note_on_c, 0, 87, 41
2, 87124, Note_on_c, 0, 87, 0
2, 87204, Note_on_c, 0, 75, 73
2, 87216, Note_on_c, 0, 71, 55
2, 87234, Note_on_c, 0, 63, 35
2, 87242, Note_on_c, 0, 68, 28
2, 87308, Note_on_c, 0, 75, 0
2, 87346, Control_c, 0, 64, 127
2, 87364, Note_on_c, 0, 63, 0
2, 87376, Note_on_c, 0, 87, 48
2, 87384, Note_on_c, 0, 71, 0
2, 87424, Note_on_c, 0, 68, 0
2, 87494, Note_on_c, 0, 87, 0
2, 87518, Note_on_c, 0, 80, 70
2, 87544, Control_c, 0, 64, 0
2, 87580, Note_on_c, 0, 80, 0
2, 87664, Note_on_c, 0, 83, 102
2, 87702, Note_on_c, 0, 83, 0
2, 87814, Note_on_c, 0, 87, 83
2, 87914, Note_on_c, 0, 87, 0
2, 87928, Control_c, 0, 64, 127
2, 87956, Note_on_c, 0, 99, 87
2, 87988, Note_on_c, 0, 99, 0
2, 88164, Note_on_c, 0, 75, 59
2, 88186, Note_on_c, 0, 73, 35
2, 88222, Control_c, 0, 64, 0
2, 88222, Note_on_c, 0, 63, 25
2, 88234, Note_on_c, 0, 67, 27
2, 88314, Note_on_c, 0, 75, 0
2, 88324, Note_on_c, 0, 87, 54
2, 88384, Note_on_c, 0, 87, 0
2, 88387, Note_on_c, 0, 73, 0
2, 88420, Note_on_c, 0, 67, 0
2, 88436, Control_c, 0, 64, 127
2, 88468, Note_on_c, 0, 63, 0
2, 88482, Note_on_c, 0, 79, 59
2, 88542, Note_on_c, 0, 79, 0
2, 88560, Control_c, 0, 64, 0
2, 88610, Note_on_c, 0, 82, 62
2, 88654, Note_on_c, 0, 82, 0
2, 88780, Note_on_c, 0, 87, 54
2, 88848, Note_on_c, 0, 87, 0
2, 88954, Note_on_c, 0, 99, 47
2, 89014, Note_on_c, 0, 99, 0
2, 89098, Note_on_c, 0, 56, 35
2, 89142, Control_c, 0, 64, 127
2, 89188, Note_on_c, 0, 56, 0
2, 89276, Note_on_c, 0, 63, 35
2, 89360, Note_on_c, 0, 63, 0
2, 89440, Note_on_c, 0, 71, 62
2, 89488, Note_on_c, 0, 71, 0
2, 89614, Note_on_c, 0, 80, 66
2, 89688, Note_on_c, 0, 80, 0
2, 89780, Note_on_c, 0, 75, 56
2, 89828, Note_on_c, 0, 75, 0
2, 89912, Note_on_c, 0, 87, 49
2, 89958, Note_on_c, 0, 87, 0
2, 90010, Note_on_c, 0, 87, 72
2, 90076, Note_on_c, 0, 87, 0
2, 90138, Note_on_c, 0, 87, 74
2, 90182, Note_on_c, 0, 87, 0
2, 90228, Note_on_c, 0, 87, 88
2, 90310, Note_on_c, 0, 87, 0
2, 90356, Note_on_c, 0, 99, 69
2, 90394, Note_on_c, 0, 99, 0
2, 90490, Note_on_c, 0, 87, 78
2, 90530, Note_on_c, 0, 87, 0
2, 90598, Note_on_c, 0, 87, 47
2, 90648, Control_c, 0, 64, 0
2, 90664, Note_on_c, 0, 87, 0
2, 90670, Note_on_c, 0, 99, 65
2, 90708, Note_on_c, 0, 99, 0
2, 90802, Note_on_c, 0, 85, 74
2, 90840, Note_on_c, 0, 85, 0
2, 90902, Note_on_c, 0, 85, 62
2, 90972, Note_on_c, 0, 85, 0
2, 91036, Note_on_c, 0, 97, 25
2, 91104, Note_on_c, 0, 97, 0
2, 91156, Note_on_c, 0, 83, 109
2, 91170, Control_c, 0, 64, 127
2, 91172, Note_on_c, 0, 44, 28
2, 91196, Note_on_c, 0, 83, 0
2, 91264, Note_on_c, 0, 83, 89
2, 91276, Note_on_c, 0, 44, 0
2, 91324, Note_on_c, 0, 83, 0
2, 91400, Note_on_c, 0, 95, 48
2, 91458, Note_on_c, 0, 95, 0
2, 91552, Note_on_c, 0, 83, 97
2, 91566, Note_on_c, 0, 59, 28
2, 91592, Note_on_c, 0, 83, 0
2, 91606, Note_on_c, 0, 51, 2
2, 91634, Note_on_c, 0, 59, 0
2, 91652, Note_on_c, 0, 83, 97
2, 91676, Note_on_c, 0, 51, 0
2, 91702, Note_on_c, 0, 83, 0
2, 91744, Note_on_c, 0, 95, 81
2, 91784, Note_on_c, 0, 95, 0
2, 91884, Note_on_c, 0, 82, 78
2, 91887, Note_on_c, 0, 51, 36
2, 91892, Note_on_c, 0, 59, 34
2, 91922, Note_on_c, 0, 82, 0
2, 91958, Note_on_c, 0, 59, 0
2, 91966, Note_on_c, 0, 51, 0
2, 91974, Note_on_c, 0, 82, 74
2, 92044, Note_on_c, 0, 82, 0
2, 92064, Note_on_c, 0, 94, 58
2, 92108, Control_c, 0, 64, 0
2, 92110, Note_on_c, 0, 94, 0
2, 92204, Note_on_c, 0, 80, 60
2, 92206, Note_on_c, 0, 47, 41
2, 92252, Note_on_c, 0, 80, 0
2, 92282, Note_on_c, 0, 47, 0
2, 92310, Note_on_c, 0, 80, 64
2, 92338, Control_c, 0, 64, 127
2, 92356, Note_on_c, 0, 80, 0
2, 92404, Note_on_c, 0, 92, 36
2, 92478, Note_on_c, 0, 92, 0
2, 92514, Note_on_c, 0, 63, 43
2, 92528, Note_on_c, 0, 56, 36
2, 92530, Note_on_c, 0, 79, 82
2, 92576, Note_on_c, 0, 79, 0
2, 92584, Note_on_c, 0, 63, 0
2, 92598, Note_on_c, 0, 56, 0
2, 92654, Note_on_c, 0, 79, 52
2, 92726, Note_on_c, 0, 79, 0
2, 92740, Note_on_c, 0, 91, 46
2, 92812, Note_on_c, 0, 91, 0
2, 92830, Note_on_c, 0, 63, 54
2, 92836, Note_on_c, 0, 80, 90
2, 92848, Note_on_c, 0, 56, 35
2, 92872, Note_on_c, 0, 80, 0
2, 92890, Note_on_c, 0, 63, 0
2, 92918, Note_on_c, 0, 56, 0
2, 92942, Note_on_c, 0, 80, 63
2, 93002, Note_on_c, 0, 80, 0
2, 93026, Note_on_c, 0, 92, 64
2, 93046, Control_c, 0, 64, 0
2, 93072, Note_on_c, 0, 92, 0
2, 93138, Note_on_c, 0, 51, 51
2, 93162, Note_on_c, 0, 82, 67
2, 93200, Note_on_c, 0, 51, 0
2, 93206, Note_on_c, 0, 82, 0
2, 93254, Note_on_c, 0, 82, 75
2, 93260, Control_c, 0, 64, 127
2, 93334, Note_on_c, 0, 82, 0
2, 93346, Note_on_c, 0, 94, 69
2, 93384, Note_on_c, 0, 94, 0
2, 93512, Note_on_c, 0, 58, 21
2, 93516, Note_on_c, 0, 75, 79
2, 93516, Note_on_c, 0, 67, 29
2, 93552, Note_on_c, 0, 75, 0
2, 93594, Note_on_c, 0, 67, 0
2, 93604, Note_on_c, 0, 75, 71
2, 93618, Note_on_c, 0, 58, 0
2, 93664, Note_on_c, 0, 75, 0
2, 93694, Note_on_c, 0, 87, 63
2, 93736, Note_on_c, 0, 87, 0
2, 93826, Note_on_c, 0, 75, 78
2, 93836, Note_on_c, 0, 58, 35
2, 93842, Note_on_c, 0, 67, 39
2, 93864, Note_on_c, 0, 75, 0
2, 93914, Note_on_c, 0, 67, 0
2, 93916, Note_on_c, 0, 58, 0
2, 93926, Note_on_c, 0, 75, 58
2, 93992, Note_on_c, 0, 75, 0
2, 94004, Note_on_c, 0, 87, 67
2, 94048, Note_on_c, 0, 87, 0
2, 94060, Control_c, 0, 64, 0
2, 94152, Note_on_c, 0, 76, 78
2, 94154, Note_on_c, 0, 55, 36
2, 94190, Note_on_c, 0, 76, 0
2, 94220, Note_on_c, 0, 55, 0
2, 94242, Note_on_c, 0, 76, 70
2, 94276, Control_c, 0, 64, 127
2, 94298, Note_on_c, 0, 76, 0
2, 94332, Note_on_c, 0, 88, 79
2, 94374, Note_on_c, 0, 88, 0
2, 94466, Note_on_c, 0, 75, 89
2, 94478, Note_on_c, 0, 70, 31
2, 94502, Note_on_c, 0, 75, 0
2, 94510, Note_on_c, 0, 63, 27
2, 94544, Note_on_c, 0, 70, 0
2, 94556, Note_on_c, 0, 75, 79
2, 94574, Note_on_c, 0, 63, 0
2, 94634, Note_on_c, 0, 87, 75
2, 94637, Note_on_c, 0, 75, 0
2, 94670, Note_on_c, 0, 87, 0
2, 94750, Note_on_c, 0, 70, 49
2, 94764, Note_on_c, 0, 73, 81
2, 94774, Note_on_c, 0, 63, 56
2, 94798, Note_on_c, 0, 73, 0
2, 94808, Note_on_c, 0, 70, 0
2, 94820, Note_on_c, 0, 63, 0
2, 94860, Note_on_c, 0, 73, 59
2, 94932, Note_on_c, 0, 73, 0
2, 94934, Note_on_c, 0, 85, 79
2, 94970, Note_on_c, 0, 85, 0
2, 95046, Control_c, 0, 64, 0
2, 95082, Note_on_c, 0, 71, 86
2, 95102, Note_on_c, 0, 56, 41
2, 95124, Note_on_c, 0, 71, 0
2, 95176, Note_on_c, 0, 71, 100
2, 95216, Note_on_c, 0, 56, 0
2, 95219, Note_on_c, 0, 71, 0
2, 95258, Control_c, 0, 64, 127
2, 95264, Note_on_c, 0, 83, 108
2, 95300, Note_on_c, 0, 83, 0
2, 95386, Note_on_c, 0, 71, 92
2, 95398, Note_on_c, 0, 68, 41
2, 95426, Note_on_c, 0, 71, 0
2, 95434, Note_on_c, 0, 63, 33
2, 95456, Note_on_c, 0, 68, 0
2, 95474, Note_on_c, 0, 71, 101
2, 95496, Note_on_c, 0, 63, 0
2, 95546, Note_on_c, 0, 71, 0
2, 95566, Note_on_c, 0, 83, 106
2, 95602, Note_on_c, 0, 83, 0
2, 95676, Note_on_c, 0, 68, 62
2, 95698, Note_on_c, 0, 70, 82
2, 95722, Note_on_c, 0, 68, 0
2, 95728, Note_on_c, 0, 63, 17
2, 95736, Note_on_c, 0, 70, 0
2, 95782, Note_on_c, 0, 70, 77
2, 95786, Note_on_c, 0, 63, 0
2, 95858, Note_on_c, 0, 70, 0
2, 95866, Note_on_c, 0, 82, 75
2, 95906, Note_on_c, 0, 82, 0
2, 95950, Control_c, 0, 64, 0
2, 95978, Note_on_c, 0, 59, 47
2, 96000, Note_on_c, 0, 68, 80
2, 96038, Note_on_c, 0, 68, 0
2, 96070, Note_on_c, 0, 59, 0
2, 96080, Note_on_c, 0, 68, 86
2, 96150, Control_c, 0, 64, 127
2, 96186, Note_on_c, 0, 80, 54
2, 96188, Note_on_c, 0, 68, 0
2, 96236, Note_on_c, 0, 80, 0
2, 96304, Note_on_c, 0, 65, 41
2, 96307, Note_on_c, 0, 67, 89
2, 96312, Note_on_c, 0, 62, 48
2, 96348, Note_on_c, 0, 67, 0
2, 96358, Note_on_c, 0, 65, 0
2, 96366, Note_on_c, 0, 62, 0
2, 96402, Note_on_c, 0, 67, 77
2, 96450, Note_on_c, 0, 67, 0
2, 96500, Note_on_c, 0, 79, 39
2, 96568, Note_on_c, 0, 79, 0
2, 96580, Note_on_c, 0, 65, 49
2, 96586, Note_on_c, 0, 62, 62
2, 96628, Note_on_c, 0, 65, 0
2, 96634, Note_on_c, 0, 62, 0
2, 96680, Note_on_c, 0, 68, 85
2, 96736, Note_on_c, 0, 68, 0
2, 96788, Note_on_c, 0, 80, 64
2, 96826, Control_c, 0, 64, 0
2, 96834, Note_on_c, 0, 80, 0
2, 96900, Note_on_c, 0, 70, 80
2, 96900, Note_on_c, 0, 51, 52
2, 96940, Note_on_c, 0, 70, 0
2, 97004, Note_on_c, 0, 70, 51
2, 97040, Note_on_c, 0, 51, 0
2, 97070, Control_c, 0, 64, 127
2, 97078, Note_on_c, 0, 70, 0
2, 97092, Note_on_c, 0, 82, 59
2, 97138, Note_on_c, 0, 82, 0
2, 97194, Note_on_c, 0, 58, 55
2, 97194, Note_on_c, 0, 63, 77
2, 97197, Note_on_c, 0, 67, 48
2, 97234, Note_on_c, 0, 63, 0
2, 97246, Note_on_c, 0, 58, 0
2, 97268, Note_on_c, 0, 67, 0
2, 97322, Note_on_c, 0, 63, 57
2, 97368, Note_on_c, 0, 63, 0
2, 97448, Note_on_c, 0, 75, 39
2, 97548, Control_c, 0, 64, 0
2, 97560, Note_on_c, 0, 75, 0
2, 97608, Note_on_c, 0, 75, 98
2, 97652, Note_on_c, 0, 75, 0
2, 97686, Control_c, 0, 64, 127
2, 97714, Note_on_c, 0, 87, 56
2, 97766, Note_on_c, 0, 87, 0
2, 97822, Note_on_c, 0, 87, 92
2, 97988, Note_on_c, 0, 87, 0
2, 98020, Note_on_c, 0, 99, 86
2, 98056, Note_on_c, 0, 99, 0
2, 98162, Note_on_c, 0, 87, 83
2, 98196, Note_on_c, 0, 87, 0
2, 98262, Note_on_c, 0, 87, 51
2, 98360, Note_on_c, 0, 87, 0
2, 98376, Note_on_c, 0, 99, 72
2, 98414, Note_on_c, 0, 99, 0
2, 98516, Note_on_c, 0, 85, 83
2, 98552, Note_on_c, 0, 85, 0
2, 98628, Note_on_c, 0, 85, 44
2, 98684, Note_on_c, 0, 85, 0
2, 98722, Note_on_c, 0, 97, 59
2, 98764, Note_on_c, 0, 97, 0
2, 98854, Control_c, 0, 64, 0
2, 98882, Note_on_c, 0, 44, 42
2, 98892, Note_on_c, 0, 83, 102
2, 98930, Note_on_c, 0, 83, 0
2, 98980, Note_on_c, 0, 44, 0
2, 98992, Note_on_c, 0, 83, 94
2, 99054, Control_c, 0, 64, 127
2, 99070, Note_on_c, 0, 83, 0
2, 99150, Note_on_c, 0, 95, 25
2, 99216, Note_on_c, 0, 95, 0
2, 99278, Note_on_c, 0, 83, 90
2, 99280, Note_on_c, 0, 59, 32
2, 99282, Note_on_c, 0, 51, 19
2, 99320, Note_on_c, 0, 83, 0
2, 99344, Note_on_c, 0, 59, 0
2, 99380, Note_on_c, 0, 51, 0
2, 99418, Note_on_c, 0, 83, 19
2, 99452, Note_on_c, 0, 95, 71
2, 99462, Note_on_c, 0, 83, 0
2, 99494, Note_on_c, 0, 95, 0
2, 99586, Note_on_c, 0, 82, 75
2, 99596, Note_on_c, 0, 51, 40
2, 99602, Note_on_c, 0, 59, 34
2, 99626, Note_on_c, 0, 82, 0
2, 99666, Note_on_c, 0, 59, 0
2, 99684, Note_on_c, 0, 51, 0
2, 99686, Note_on_c, 0, 82, 58
2, 99758, Note_on_c, 0, 82, 0
2, 99774, Note_on_c, 0, 94, 63
2, 99816, Note_on_c, 0, 94, 0
2, 99852, Control_c, 0, 64, 0
2, 99916, Note_on_c, 0, 47, 43
2, 99919, Note_on_c, 0, 80, 78
2, 99956, Note_on_c, 0, 80, 0
2, 100002, Note_on_c, 0, 80, 87
2, 100010, Note_on_c, 0, 47, 0
2, 100052, Control_c, 0, 64, 127
2, 100066, Note_on_c, 0, 80, 0
2, 100102, Note_on_c, 0, 92, 63
2, 100148, Note_on_c, 0, 92, 0
2, 100228, Note_on_c, 0, 63, 47
2, 100240, Note_on_c, 0, 79, 96
2, 100248, Note_on_c, 0, 56, 33
2, 100278, Note_on_c, 0, 79, 0
2, 100288, Note_on_c, 0, 63, 0
2, 100320, Note_on_c, 0, 56, 0
2, 100324, Note_on_c, 0, 79, 101
2, 100388, Note_on_c, 0, 79, 0
2, 100424, Note_on_c, 0, 91, 70
2, 100470, Note_on_c, 0, 91, 0
2, 100528, Note_on_c, 0, 63, 59
2, 100531, Note_on_c, 0, 80, 92
2, 100552, Note_on_c, 0, 56, 39
2, 100570, Note_on_c, 0, 80, 0
2, 100586, Note_on_c, 0, 63, 0
2, 100614, Note_on_c, 0, 56, 0
2, 100622, Note_on_c, 0, 80, 87
2, 100726, Note_on_c, 0, 80, 0
2, 100732, Note_on_c, 0, 92, 62
2, 100760, Control_c, 0, 64, 0
2, 100780, Note_on_c, 0, 92, 0
2, 100834, Note_on_c, 0, 51, 54
2, 100848, Note_on_c, 0, 82, 80
2, 100884, Note_on_c, 0, 82, 0
2, 100894, Note_on_c, 0, 51, 0
2, 100944, Note_on_c, 0, 82, 60
2, 100958, Control_c, 0, 64, 127
2, 101020, Note_on_c, 0, 82, 0
2, 101030, Note_on_c, 0, 94, 66
2, 101070, Note_on_c, 0, 94, 0
2, 101184, Note_on_c, 0, 67, 43
2, 101194, Note_on_c, 0, 58, 28
2, 101202, Note_on_c, 0, 75, 78
2, 101240, Note_on_c, 0, 75, 0
2, 101252, Note_on_c, 0, 67, 0
2, 101266, Note_on_c, 0, 58, 0
2, 101294, Note_on_c, 0, 75, 69
2, 101360, Note_on_c, 0, 75, 0
2, 101392, Note_on_c, 0, 87, 66
2, 101436, Note_on_c, 0, 87, 0
2, 101522, Note_on_c, 0, 75, 80
2, 101524, Note_on_c, 0, 70, 55
2, 101542, Note_on_c, 0, 67, 47
2, 101562, Note_on_c, 0, 75, 0
2, 101602, Note_on_c, 0, 70, 0
2, 101618, Note_on_c, 0, 75, 71
2, 101630, Note_on_c, 0, 67, 0
2, 101708, Note_on_c, 0, 75, 0
2, 101716, Note_on_c, 0, 87, 65
2, 101758, Note_on_c, 0, 87, 0
2, 101834, Control_c, 0, 64, 0
2, 101842, Note_on_c, 0, 68, 50
2, 101844, Note_on_c, 0, 71, 63
2, 101862, Note_on_c, 0, 76, 77
2, 101904, Note_on_c, 0, 76, 0
2, 101960, Note_on_c, 0, 76, 72
2, 102032, Note_on_c, 0, 76, 0
2, 102040, Control_c, 0, 64, 127
2, 102048, Note_on_c, 0, 71, 0
2, 102062, Note_on_c, 0, 68, 0
2, 102064, Note_on_c, 0, 88, 75
2, 102104, Note_on_c, 0, 88, 0
2, 102208, Note_on_c, 0, 75, 77
2, 102228, Note_on_c, 0, 70, 59
2, 102246, Note_on_c, 0, 75, 0
2, 102246, Note_on_c, 0, 66, 59
2, 102298, Note_on_c, 0, 75, 71
2, 102362, Note_on_c, 0, 75, 0
2, 102392, Note_on_c, 0, 70, 0
2, 102392, Note_on_c, 0, 87, 71
2, 102430, Note_on_c, 0, 87, 0
2, 102464, Note_on_c, 0, 66, 0
2, 102534, Note_on_c, 0, 73, 77
2, 102542, Note_on_c, 0, 68, 52
2, 102562, Note_on_c, 0, 64, 56
2, 102572, Note_on_c, 0, 73, 0
2, 102618, Note_on_c, 0, 73, 82
2, 102642, Note_on_c, 0, 68, 0
2, 102648, Note_on_c, 0, 64, 0
2, 102672, Note_on_c, 0, 73, 0
2, 102714, Note_on_c, 0, 85, 66
2, 102758, Note_on_c, 0, 85, 0
2, 102772, Control_c, 0, 64, 0
2, 102830, Note_on_c, 0, 71, 70
2, 102838, Note_on_c, 0, 63, 54
2, 102838, Note_on_c, 0, 68, 48
2, 102870, Note_on_c, 0, 75, 75
2, 102910, Note_on_c, 0, 75, 0
2, 102968, Note_on_c, 0, 75, 69
2, 102986, Control_c, 0, 64, 127
2, 103034, Note_on_c, 0, 75, 0
2, 103070, Note_on_c, 0, 87, 62
2, 103073, Note_on_c, 0, 71, 0
2, 103094, Note_on_c, 0, 68, 0
2, 103116, Note_on_c, 0, 87, 0
2, 103140, Note_on_c, 0, 63, 0
2, 103216, Note_on_c, 0, 76, 72
2, 103258, Note_on_c, 0, 76, 0
2, 103330, Note_on_c, 0, 76, 46
2, 103392, Note_on_c, 0, 76, 0
2, 103414, Note_on_c, 0, 87, 64
2, 103458, Note_on_c, 0, 87, 0
2, 103532, Note_on_c, 0, 77, 90
2, 103566, Note_on_c, 0, 77, 0
2, 103620, Note_on_c, 0, 77, 81
2, 103670, Note_on_c, 0, 77, 0
2, 103702, Note_on_c, 0, 87, 67
2, 103748, Note_on_c, 0, 87, 0
2, 103756, Control_c, 0, 64, 0
2, 103808, Note_on_c, 0, 78, 94
2, 103844, Note_on_c, 0, 78, 0
2, 103894, Note_on_c, 0, 78, 89
2, 103954, Control_c, 0, 64, 127
2, 103992, Note_on_c, 0, 87, 54
2, 103994, Note_on_c, 0, 78, 0
2, 104044, Note_on_c, 0, 87, 0
2, 104094, Control_c, 0, 64, 0
2, 104094, Note_on_c, 0, 79, 94
2, 104134, Note_on_c, 0, 79, 0
2, 104192, Note_on_c, 0, 79, 86
2, 104232, Control_c, 0, 64, 127
2, 104235, Note_on_c, 0, 79, 0
2, 104280, Note_on_c, 0, 87, 70
2, 104308, Control_c, 0, 64, 0
2, 104322, Note_on_c, 0, 87, 0
2, 104362, Note_on_c, 0, 80, 90
2, 104400, Note_on_c, 0, 80, 0
2, 104450, Note_on_c, 0, 80, 85
2, 104462, Control_c, 0, 64, 127
2, 104534, Note_on_c, 0, 80, 0
2, 104537, Control_c, 0, 64, 0
2, 104558, Note_on_c, 0, 87, 41
2, 104618, Note_on_c, 0, 87, 0
2, 104638, Note_on_c, 0, 81, 88
2, 104674, Note_on_c, 0, 51, 34
2, 104678, Note_on_c, 0, 81, 0
2, 104736, Note_on_c, 0, 81, 77
2, 104739, Control_c, 0, 64, 127
2, 104748, Note_on_c, 0, 51, 0
2, 104784, Note_on_c, 0, 81, 0
2, 104784, Note_on_c, 0, 61, 27
2, 104832, Note_on_c, 0, 87, 69
2, 104876, Note_on_c, 0, 87, 0
2, 104876, Note_on_c, 0, 61, 0
2, 104934, Note_on_c, 0, 67, 31
2, 104934, Note_on_c, 0, 82, 65
2, 104980, Note_on_c, 0, 82, 0
2, 105034, Note_on_c, 0, 82, 69
2, 105042, Note_on_c, 0, 67, 0
2, 105080, Note_on_c, 0, 82, 0
2, 105148, Note_on_c, 0, 87, 40
2, 105206, Note_on_c, 0, 87, 0
2, 105238, Note_on_c, 0, 83, 100
2, 105276, Note_on_c, 0, 83, 0
2, 105332, Note_on_c, 0, 83, 105
2, 105400, Note_on_c, 0, 83, 0
2, 105452, Note_on_c, 0, 87, 56
2, 105512, Note_on_c, 0, 87, 0
2, 105522, Control_c, 0, 64, 0
2, 105566, Note_on_c, 0, 84, 78
2, 105608, Note_on_c, 0, 84, 0
2, 105692, Note_on_c, 0, 84, 28
2, 105730, Control_c, 0, 64, 127
2, 105756, Note_on_c, 0, 84, 0
2, 105764, Note_on_c, 0, 87, 58
2, 105798, Control_c, 0, 64, 0
2, 105810, Note_on_c, 0, 87, 0
2, 105854, Note_on_c, 0, 85, 60
2, 105900, Note_on_c, 0, 85, 0
2, 105964, Note_on_c, 0, 85, 55
2, 105998, Control_c, 0, 64, 127
2, 106016, Note_on_c, 0, 85, 0
2, 106056, Note_on_c, 0, 87, 57
2, 106110, Note_on_c, 0, 87, 0
2, 106158, Note_on_c, 0, 86, 59
2, 106216, Note_on_c, 0, 86, 0
2, 106286, Note_on_c, 0, 86, 34
2, 106352, Note_on_c, 0, 87, 73
2, 106355, Note_on_c, 0, 86, 0
2, 106382, Control_c, 0, 64, 0
2, 106392, Note_on_c, 0, 87, 0
2, 106436, Note_on_c, 0, 44, 44
2, 106466, Note_on_c, 0, 87, 49
2, 106508, Note_on_c, 0, 44, 0
2, 106512, Note_on_c, 0, 87, 0
2, 106540, Note_on_c, 0, 51, 29
2, 106564, Note_on_c, 0, 87, 75
2, 106568, Control_c, 0, 64, 127
2, 106612, Note_on_c, 0, 87, 0
2, 106630, Note_on_c, 0, 51, 0
2, 106656, Note_on_c, 0, 59, 43
2, 106676, Note_on_c, 0, 99, 52
2, 106708, Note_on_c, 0, 59, 0
2, 106722, Note_on_c, 0, 99, 0
2, 106808, Note_on_c, 0, 88, 69
2, 106852, Note_on_c, 0, 88, 0
2, 106880, Note_on_c, 0, 68, 28
2, 106916, Note_on_c, 0, 88, 46
2, 106984, Note_on_c, 0, 88, 0
2, 107022, Note_on_c, 0, 99, 56
2, 107068, Note_on_c, 0, 99, 0
2, 107158, Note_on_c, 0, 89, 51
2, 107222, Note_on_c, 0, 89, 0
2, 107358, Note_on_c, 0, 99, 48
2, 107408, Note_on_c, 0, 99, 0
2, 107452, Note_on_c, 0, 90, 74
2, 107496, Note_on_c, 0, 90, 0
2, 107566, Note_on_c, 0, 90, 50
2, 107642, Note_on_c, 0, 90, 0
2, 107688, Note_on_c, 0, 99, 44
2, 107742, Note_on_c, 0, 99, 0
2, 107796, Note_on_c, 0, 91, 62
2, 107848, Note_on_c, 0, 91, 0
2, 107904, Note_on_c, 0, 91, 72
2, 107958, Note_on_c, 0, 91, 0
2, 108162, Note_on_c, 0, 92, 60
2, 108212, Note_on_c, 0, 92, 0
2, 108296, Note_on_c, 0, 92, 31
2, 108372, Note_on_c, 0, 92, 0
2, 108522, Note_on_c, 0, 99, 29
2, 108580, Note_on_c, 0, 99, 0
2, 108914, Note_on_c, 0, 68, 0
2, 109348, Control_c, 0, 64, 0
2, 109870, Note_on_c, 0, 71, 66
2, 109876, Note_on_c, 0, 68, 47
2, 110080, Note_on_c, 0, 68, 0
2, 110084, Note_on_c, 0, 71, 0
2, 110106, Note_on_c, 0, 70, 59
2, 110126, Note_on_c, 0, 67, 64
2, 110190, Note_on_c, 0, 67, 0
2, 110200, Note_on_c, 0, 70, 0
2, 110334, Note_on_c, 0, 69, 65
2, 110334, Note_on_c, 0, 71, 85
2, 110342, Note_on_c, 0, 66, 64
2, 110392, Note_on_c, 0, 66, 0
2, 110392, Note_on_c, 0, 69, 0
2, 110398, Note_on_c, 0, 71, 0
2, 110534, Note_on_c, 0, 68, 66
2, 110540, Note_on_c, 0, 71, 82
2, 110544, Note_on_c, 0, 65, 71
2, 110588, Note_on_c, 0, 65, 0
2, 110592, Note_on_c, 0, 71, 0
2, 110596, Note_on_c, 0, 68, 0
2, 110698, Note_on_c, 0, 71, 85
2, 110701, Note_on_c, 0, 67, 80
2, 110714, Note_on_c, 0, 64, 81
2, 110752, Note_on_c, 0, 67, 0
2, 110756, Note_on_c, 0, 64, 0
2, 110768, Note_on_c, 0, 71, 0
2, 110866, Note_on_c, 0, 71, 71
2, 110870, Note_on_c, 0, 66, 70
2, 110870, Note_on_c, 0, 63, 83
2, 110908, Note_on_c, 0, 63, 0
2, 110918, Note_on_c, 0, 66, 0
2, 110938, Note_on_c, 0, 71, 0
2, 111056, Note_on_c, 0, 65, 51
2, 111058, Note_on_c, 0, 62, 60
2, 111062, Note_on_c, 0, 71, 58
2, 111106, Note_on_c, 0, 62, 0
2, 111112, Note_on_c, 0, 65, 0
2, 111120, Note_on_c, 0, 71, 0
2, 111266, Note_on_c, 0, 61, 50
2, 111266, Note_on_c, 0, 71, 41
2, 111284, Note_on_c, 0, 64, 34
2, 111322, Note_on_c, 0, 61, 0
2, 111326, Note_on_c, 0, 71, 0
2, 111346, Note_on_c, 0, 64, 0
2, 111474, Note_on_c, 0, 73, 71
2, 111570, Note_on_c, 0, 71, 79
2, 111598, Note_on_c, 0, 73, 0
2, 111640, Note_on_c, 0, 71, 0
2, 111652, Note_on_c, 0, 70, 67
2, 111744, Note_on_c, 0, 70, 0
2, 111774, Note_on_c, 0, 71, 62
2, 111832, Note_on_c, 0, 71, 0
2, 111888, Note_on_c, 0, 63, 47
2, 111888, Note_on_c, 0, 66, 56
2, 111914, Control_c, 0, 64, 127
2, 111916, Note_on_c, 0, 59, 19
2, 111938, Note_on_c, 0, 66, 0
2, 111958, Note_on_c, 0, 63, 0
2, 111986, Note_on_c, 0, 59, 0
2, 112018, Note_on_c, 0, 78, 71
2, 112072, Note_on_c, 0, 78, 0
2, 112114, Note_on_c, 0, 78, 69
2, 112150, Note_on_c, 0, 78, 0
2, 112214, Note_on_c, 0, 78, 63
2, 112280, Note_on_c, 0, 78, 0
2, 112304, Note_on_c, 0, 66, 37
2, 112322, Note_on_c, 0, 54, 34
2, 112324, Note_on_c, 0, 71, 69
2, 112336, Note_on_c, 0, 63, 37
2, 112374, Note_on_c, 0, 71, 0
2, 112398, Note_on_c, 0, 63, 0
2, 112398, Note_on_c, 0, 54, 0
2, 112401, Note_on_c, 0, 66, 0
2, 112414, Note_on_c, 0, 83, 104
2, 112452, Note_on_c, 0, 83, 0
2, 112500, Note_on_c, 0, 83, 118
2, 112546, Note_on_c, 0, 83, 0
2, 112606, Note_on_c, 0, 83, 118
2, 112642, Note_on_c, 0, 83, 0
2, 112758, Note_on_c, 0, 73, 87
2, 112774, Control_c, 0, 64, 0
2, 112814, Note_on_c, 0, 73, 0
2, 112872, Note_on_c, 0, 85, 72
2, 112914, Note_on_c, 0, 85, 0
2, 112958, Note_on_c, 0, 85, 97
2, 112990, Control_c, 0, 64, 127
2, 113006, Note_on_c, 0, 85, 0
2, 113074, Note_on_c, 0, 85, 73
2, 113126, Note_on_c, 0, 85, 0
2, 113174, Note_on_c, 0, 78, 83
2, 113204, Note_on_c, 0, 58, 29
2, 113214, Note_on_c, 0, 64, 41
2, 113222, Note_on_c, 0, 78, 0
2, 113276, Note_on_c, 0, 64, 0
2, 113286, Note_on_c, 0, 58, 0
2, 113298, Note_on_c, 0, 90, 71
2, 113344, Note_on_c, 0, 90, 0
2, 113392, Note_on_c, 0, 90, 89
2, 113430, Note_on_c, 0, 90, 0
2, 113486, Note_on_c, 0, 90, 73
2, 113558, Note_on_c, 0, 90, 0
2, 113570, Note_on_c, 0, 66, 47
2, 113592, Note_on_c, 0, 58, 35
2, 113600, Note_on_c, 0, 85, 86
2, 113602, Note_on_c, 0, 54, 35
2, 113628, Note_on_c, 0, 66, 0
2, 113658, Note_on_c, 0, 58, 0
2, 113666, Note_on_c, 0, 54, 0
2, 113706, Note_on_c, 0, 85, 0
2, 113708, Note_on_c, 0, 90, 43
2, 113712, Note_on_c, 0, 97, 73
2, 113750, Note_on_c, 0, 97, 0
2, 113779, Note_on_c, 0, 90, 0
2, 113825, Note_on_c, 0, 90, 43
2, 113826, Note_on_c, 0, 97, 43
2, 113866, Control_c, 0, 64, 0
2, 113966, Note_on_c, 0, 90, 0
2, 113990, Note_on_c, 0, 87, 63
2, 113992, Note_on_c, 0, 97, 0
2, 113998, Note_on_c, 0, 47, 40
2, 114048, Note_on_c, 0, 87, 0
2, 114096, Control_c, 0, 64, 127
2, 114136, Note_on_c, 0, 90, 46
2, 114152, Note_on_c, 0, 99, 41
2, 114174, Note_on_c, 0, 47, 0
2, 114196, Note_on_c, 0, 90, 0
2, 114208, Note_on_c, 0, 99, 0
2, 114272, Note_on_c, 0, 90, 37
2, 114280, Note_on_c, 0, 99, 63
2, 114332, Note_on_c, 0, 99, 0
2, 114340, Note_on_c, 0, 90, 0
2, 114560, Note_on_c, 0, 83, 87
2, 114566, Note_on_c, 0, 63, 26
2, 114574, Note_on_c, 0, 54, 28
2, 114630, Note_on_c, 0, 83, 0
2, 114662, Note_on_c, 0, 54, 0
2, 114682, Note_on_c, 0, 63, 0
2, 115094, Control_c, 0, 64, 0
2, 115260, Note_on_c, 0, 75, 95
2, 115274, Note_on_c, 0, 71, 81
2, 115494, Control_c, 0, 64, 127
2, 115498, Note_on_c, 0, 74, 101
2, 115528, Note_on_c, 0, 71, 0
2, 115538, Note_on_c, 0, 75, 0
2, 115592, Note_on_c, 0, 74, 0
2, 115706, Note_on_c, 0, 70, 73
2, 115708, Note_on_c, 0, 73, 86
2, 115714, Note_on_c, 0, 75, 89
2, 115724, Control_c, 0, 64, 0
2, 115760, Note_on_c, 0, 70, 0
2, 115784, Note_on_c, 0, 75, 0
2, 115784, Note_on_c, 0, 73, 0
2, 115888, Note_on_c, 0, 75, 77
2, 115894, Note_on_c, 0, 72, 87
2, 115900, Note_on_c, 0, 69, 75
2, 115964, Note_on_c, 0, 69, 0
2, 115967, Note_on_c, 0, 72, 0
2, 115994, Note_on_c, 0, 75, 0
2, 116066, Note_on_c, 0, 75, 78
2, 116078, Note_on_c, 0, 68, 75
2, 116088, Note_on_c, 0, 71, 72
2, 116120, Note_on_c, 0, 68, 0
2, 116138, Note_on_c, 0, 71, 0
2, 116176, Note_on_c, 0, 75, 0
2, 116246, Note_on_c, 0, 75, 74
2, 116256, Note_on_c, 0, 70, 64
2, 116272, Note_on_c, 0, 67, 69
2, 116310, Note_on_c, 0, 70, 0
2, 116324, Note_on_c, 0, 67, 0
2, 116362, Note_on_c, 0, 75, 0
2, 116432, Note_on_c, 0, 75, 73
2, 116450, Note_on_c, 0, 69, 40
2, 116456, Note_on_c, 0, 66, 44
2, 116492, Note_on_c, 0, 75, 0
2, 116514, Note_on_c, 0, 66, 0
2, 116516, Note_on_c, 0, 69, 0
2, 116668, Note_on_c, 0, 75, 62
2, 116682, Note_on_c, 0, 68, 41
2, 116685, Note_on_c, 0, 65, 20
2, 116718, Note_on_c, 0, 75, 0
2, 116738, Note_on_c, 0, 68, 0
2, 116748, Note_on_c, 0, 65, 0
2, 116894, Note_on_c, 0, 77, 75
2, 116988, Note_on_c, 0, 75, 73
2, 117000, Note_on_c, 0, 77, 0
2, 117080, Note_on_c, 0, 75, 0
2, 117083, Note_on_c, 0, 74, 72
2, 117136, Note_on_c, 0, 74, 0
2, 117168, Note_on_c, 0, 75, 67
2, 117212, Note_on_c, 0, 75, 0
2, 117280, Note_on_c, 0, 70, 64
2, 117308, Note_on_c, 0, 63, 36
2, 117326, Note_on_c, 0, 70, 0
2, 117338, Control_c, 0, 64, 127
2, 117338, Note_on_c, 0, 66, 13
2, 117394, Note_on_c, 0, 63, 0
2, 117397, Note_on_c, 0, 82, 48
2, 117414, Note_on_c, 0, 66, 0
2, 117455, Note_on_c, 0, 82, 0
2, 117492, Note_on_c, 0, 82, 42
2, 117538, Note_on_c, 0, 82, 0
2, 117588, Note_on_c, 0, 82, 81
2, 117640, Note_on_c, 0, 82, 0
2, 117672, Note_on_c, 0, 70, 37
2, 117686, Note_on_c, 0, 58, 21
2, 117700, Note_on_c, 0, 66, 26
2, 117708, Note_on_c, 0, 75, 63
2, 117738, Note_on_c, 0, 70, 0
2, 117754, Note_on_c, 0, 75, 0
2, 117764, Note_on_c, 0, 58, 0
2, 117784, Note_on_c, 0, 66, 0
2, 117810, Note_on_c, 0, 87, 56
2, 117858, Note_on_c, 0, 87, 0
2, 117876, Control_c, 0, 64, 0
2, 117906, Note_on_c, 0, 87, 94
2, 117942, Note_on_c, 0, 87, 0
2, 117998, Note_on_c, 0, 87, 66
2, 118050, Note_on_c, 0, 87, 0
2, 118118, Note_on_c, 0, 77, 77
2, 118164, Note_on_c, 0, 77, 0
2, 118234, Note_on_c, 0, 89, 79
2, 118274, Control_c, 0, 64, 127
2, 118276, Note_on_c, 0, 89, 0
2, 118326, Note_on_c, 0, 89, 65
2, 118376, Note_on_c, 0, 89, 0
2, 118426, Note_on_c, 0, 89, 97
2, 118470, Note_on_c, 0, 89, 0
2, 118538, Note_on_c, 0, 68, 32
2, 118548, Note_on_c, 0, 82, 75
2, 118551, Note_on_c, 0, 62, 27
2, 118598, Note_on_c, 0, 82, 0
2, 118606, Note_on_c, 0, 68, 0
2, 118614, Note_on_c, 0, 62, 0
2, 118656, Note_on_c, 0, 94, 67
2, 118702, Note_on_c, 0, 94, 0
2, 118750, Note_on_c, 0, 94, 87
2, 118806, Note_on_c, 0, 94, 0
2, 118864, Note_on_c, 0, 94, 73
2, 118910, Note_on_c, 0, 94, 0
2, 118934, Note_on_c, 0, 70, 28
2, 118968, Note_on_c, 0, 58, 24
2, 118968, Note_on_c, 0, 62, 34
2, 118986, Note_on_c, 0, 89, 63
2, 119042, Note_on_c, 0, 89, 0
2, 119048, Note_on_c, 0, 62, 0
2, 119052, Note_on_c, 0, 70, 0
2, 119082, Note_on_c, 0, 101, 77
2, 119089, Note_on_c, 0, 94, 33
2, 119124, Note_on_c, 0, 101, 0
2, 119142, Note_on_c, 0, 58, 0
2, 119164, Note_on_c, 0, 94, 0
2, 119210, Note_on_c, 0, 94, 33
2, 119212, Note_on_c, 0, 101, 27
2, 119290, Control_c, 0, 64, 0
2, 119338, Note_on_c, 0, 51, 50
2, 119340, Note_on_c, 0, 101, 0
2, 119345, Note_on_c, 0, 94, 0
2, 119374, Note_on_c, 0, 90, 64
2, 119506, Note_on_c, 0, 102, 55
2, 119514, Note_on_c, 0, 94, 40
2, 119536, Control_c, 0, 64, 127
2, 119539, Note_on_c, 0, 90, 0
2, 119558, Note_on_c, 0, 102, 0
2, 119574, Note_on_c, 0, 94, 0
2, 119604, Note_on_c, 0, 51, 0
2, 119660, Note_on_c, 0, 94, 27
2, 119674, Note_on_c, 0, 102, 19
2, 119766, Note_on_c, 0, 102, 0
2, 119786, Note_on_c, 0, 58, 21
2, 119790, Note_on_c, 0, 94, 0
2, 119886, Note_on_c, 0, 87, 46
2, 119886, Note_on_c, 0, 66, 25
2, 119889, Note_on_c, 0, 58, 0
2, 119958, Note_on_c, 0, 66, 0
2, 119974, Note_on_c, 0, 87, 0
2, 120404, Note_on_c, 0, 78, 65
2, 120414, Note_on_c, 0, 75, 52
2, 120518, Control_c, 0, 64, 0
2, 120590, Note_on_c, 0, 75, 0
2, 120614, Note_on_c, 0, 77, 82
2, 120620, Note_on_c, 0, 78, 0
2, 120634, Note_on_c, 0, 74, 71
2, 120698, Note_on_c, 0, 74, 0
2, 120727, Note_on_c, 0, 77, 0
2, 120796, Note_on_c, 0, 78, 90
2, 120800, Note_on_c, 0, 76, 73
2, 120812, Note_on_c, 0, 73, 72
2, 120860, Note_on_c, 0, 78, 0
2, 120864, Note_on_c, 0, 73, 0
2, 120870, Note_on_c, 0, 76, 0
2, 120974, Note_on_c, 0, 75, 88
2, 120977, Note_on_c, 0, 78, 85
2, 120982, Note_on_c, 0, 72, 87
2, 121028, Note_on_c, 0, 72, 0
2, 121054, Note_on_c, 0, 75, 0
2, 121060, Note_on_c, 0, 78, 0
2, 121156, Note_on_c, 0, 74, 85
2, 121158, Note_on_c, 0, 78, 81
2, 121162, Note_on_c, 0, 71, 102
2, 121208, Note_on_c, 0, 71, 0
2, 121222, Note_on_c, 0, 74, 0
2, 121240, Note_on_c, 0, 78, 0
2, 121334, Note_on_c, 0, 73, 86
2, 121340, Note_on_c, 0, 78, 63
2, 121342, Note_on_c, 0, 70, 77
2, 121388, Note_on_c, 0, 70, 0
2, 121400, Note_on_c, 0, 73, 0
2, 121404, Note_on_c, 0, 78, 0
2, 121530, Note_on_c, 0, 78, 77
2, 121532, Note_on_c, 0, 72, 70
2, 121541, Note_on_c, 0, 69, 41
2, 121582, Note_on_c, 0, 78, 0
2, 121584, Note_on_c, 0, 72, 0
2, 121608, Note_on_c, 0, 69, 0
2, 121738, Note_on_c, 0, 68, 44
2, 121738, Note_on_c, 0, 78, 70
2, 121741, Note_on_c, 0, 71, 75
2, 121786, Note_on_c, 0, 78, 0
2, 121790, Note_on_c, 0, 71, 0
2, 121800, Note_on_c, 0, 68, 0
2, 121962, Note_on_c, 0, 80, 92
2, 122046, Note_on_c, 0, 78, 78
2, 122068, Note_on_c, 0, 80, 0
2, 122140, Note_on_c, 0, 77, 80
2, 122164, Note_on_c, 0, 78, 0
2, 122196, Note_on_c, 0, 77, 0
2, 122242, Note_on_c, 0, 78, 57
2, 122288, Note_on_c, 0, 78, 0
2, 122324, Note_on_c, 0, 73, 63
2, 122334, Note_on_c, 0, 70, 34
2, 122362, Note_on_c, 0, 66, 24
2, 122370, Note_on_c, 0, 73, 0
2, 122408, Control_c, 0, 64, 127
2, 122413, Note_on_c, 0, 70, 0
2, 122436, Note_on_c, 0, 66, 0
2, 122436, Note_on_c, 0, 85, 71
2, 122482, Note_on_c, 0, 85, 0
2, 122522, Note_on_c, 0, 85, 51
2, 122564, Note_on_c, 0, 85, 0
2, 122614, Note_on_c, 0, 85, 86
2, 122666, Note_on_c, 0, 85, 0
2, 122704, Note_on_c, 0, 73, 37
2, 122718, Note_on_c, 0, 70, 34
2, 122721, Note_on_c, 0, 78, 77
2, 122742, Note_on_c, 0, 61, 16
2, 122766, Note_on_c, 0, 78, 0
2, 122770, Note_on_c, 0, 73, 0
2, 122790, Note_on_c, 0, 70, 0
2, 122830, Note_on_c, 0, 61, 0
2, 122834, Note_on_c, 0, 90, 69
2, 122880, Note_on_c, 0, 90, 0
2, 122916, Control_c, 0, 64, 0
2, 122918, Note_on_c, 0, 90, 73
2, 122960, Note_on_c, 0, 90, 0
2, 123008, Note_on_c, 0, 90, 85
2, 123058, Note_on_c, 0, 90, 0
2, 123114, Note_on_c, 0, 80, 90
2, 123160, Note_on_c, 0, 80, 0
2, 123218, Note_on_c, 0, 92, 75
2, 123262, Note_on_c, 0, 92, 0
2, 123284, Control_c, 0, 64, 127
2, 123308, Note_on_c, 0, 92, 75
2, 123350, Note_on_c, 0, 92, 0
2, 123402, Note_on_c, 0, 92, 75
2, 123464, Note_on_c, 0, 92, 0
2, 123516, Note_on_c, 0, 85, 73
2, 123530, Note_on_c, 0, 71, 40
2, 123564, Note_on_c, 0, 85, 0
2, 123608, Note_on_c, 0, 71, 0
2, 123668, Note_on_c, 0, 92, 43
2, 123670, Note_on_c, 0, 97, 42
2, 123722, Note_on_c, 0, 97, 0
2, 123732, Note_on_c, 0, 92, 0
2, 123798, Note_on_c, 0, 97, 50
2, 123798, Note_on_c, 0, 92, 55
2, 123848, Note_on_c, 0, 92, 0
2, 123854, Note_on_c, 0, 97, 0
2, 123928, Note_on_c, 0, 73, 29
2, 123934, Note_on_c, 0, 97, 57
2, 123938, Note_on_c, 0, 92, 41
2, 123956, Note_on_c, 0, 65, 29
2, 123968, Note_on_c, 0, 61, 25
2, 123988, Note_on_c, 0, 92, 0
2, 124006, Note_on_c, 0, 97, 0
2, 124014, Note_on_c, 0, 65, 0
2, 124020, Note_on_c, 0, 73, 0
2, 124040, Note_on_c, 0, 61, 0
2, 124076, Note_on_c, 0, 92, 48
2, 124076, Note_on_c, 0, 97, 60
2, 124124, Note_on_c, 0, 92, 0
2, 124126, Note_on_c, 0, 97, 0
2, 124198, Note_on_c, 0, 97, 62
2, 124208, Note_on_c, 0, 92, 42
2, 124236, Control_c, 0, 64, 0
2, 124256, Note_on_c, 0, 92, 0
2, 124276, Note_on_c, 0, 97, 0
2, 124326, Note_on_c, 0, 66, 43
2, 124346, Note_on_c, 0, 94, 67
2, 124350, Note_on_c, 0, 97, 62
2, 124384, Note_on_c, 0, 66, 0
2, 124412, Note_on_c, 0, 94, 0
2, 124442, Note_on_c, 0, 97, 0
2, 124452, Note_on_c, 0, 99, 69
2, 124452, Control_c, 0, 64, 127
2, 124500, Note_on_c, 0, 99, 0
2, 124532, Note_on_c, 0, 97, 55
2, 124560, Note_on_c, 0, 93, 21
2, 124588, Note_on_c, 0, 97, 0
2, 124622, Note_on_c, 0, 93, 0
2, 124644, Note_on_c, 0, 99, 36
2, 124700, Note_on_c, 0, 97, 63
2, 124702, Note_on_c, 0, 78, 50
2, 124704, Note_on_c, 0, 99, 0
2, 124706, Note_on_c, 0, 82, 46
2, 124714, Note_on_c, 0, 92, 55
2, 124746, Note_on_c, 0, 97, 0
2, 124760, Note_on_c, 0, 78, 0
2, 124762, Note_on_c, 0, 82, 0
2, 124772, Note_on_c, 0, 99, 63
2, 124775, Note_on_c, 0, 92, 0
2, 124822, Control_c, 0, 64, 0
2, 124840, Note_on_c, 0, 99, 0
2, 124868, Note_on_c, 0, 97, 60
2, 124872, Note_on_c, 0, 80, 32
2, 124892, Note_on_c, 0, 91, 36
2, 124926, Note_on_c, 0, 97, 0
2, 124944, Note_on_c, 0, 80, 0
2, 124958, Note_on_c, 0, 99, 60
2, 124964, Note_on_c, 0, 91, 0
2, 125022, Note_on_c, 0, 99, 0
2, 125038, Note_on_c, 0, 90, 69
2, 125042, Note_on_c, 0, 85, 60
2, 125044, Note_on_c, 0, 97, 57
2, 125060, Note_on_c, 0, 82, 35
2, 125066, Control_c, 0, 64, 127
2, 125086, Note_on_c, 0, 85, 0
2, 125094, Note_on_c, 0, 97, 0
2, 125126, Note_on_c, 0, 99, 57
2, 125129, Note_on_c, 0, 82, 0
2, 125190, Note_on_c, 0, 99, 0
2, 125194, Note_on_c, 0, 97, 48
2, 125266, Note_on_c, 0, 97, 0
2, 125286, Note_on_c, 0, 99, 54
2, 125298, Control_c, 0, 64, 0
2, 125340, Note_on_c, 0, 99, 0
2, 125340, Note_on_c, 0, 90, 0
2, 125386, Note_on_c, 0, 92, 71
2, 125398, Note_on_c, 0, 95, 64
2, 125434, Note_on_c, 0, 59, 25
2, 125448, Note_on_c, 0, 92, 0
2, 125451, Note_on_c, 0, 95, 0
2, 125482, Control_c, 0, 64, 127
2, 125496, Note_on_c, 0, 59, 0
2, 125502, Note_on_c, 0, 97, 46
2, 125556, Note_on_c, 0, 97, 0
2, 125556, Note_on_c, 0, 91, 64
2, 125578, Note_on_c, 0, 95, 39
2, 125618, Note_on_c, 0, 91, 0
2, 125648, Note_on_c, 0, 95, 0
2, 125658, Note_on_c, 0, 97, 34
2, 125712, Control_c, 0, 64, 0
2, 125720, Note_on_c, 0, 95, 60
2, 125732, Note_on_c, 0, 90, 62
2, 125738, Note_on_c, 0, 97, 0
2, 125740, Note_on_c, 0, 80, 59
2, 125764, Note_on_c, 0, 71, 29
2, 125786, Note_on_c, 0, 90, 0
2, 125788, Note_on_c, 0, 95, 0
2, 125790, Note_on_c, 0, 80, 0
2, 125812, Note_on_c, 0, 97, 57
2, 125842, Note_on_c, 0, 71, 0
2, 125894, Note_on_c, 0, 82, 58
2, 125898, Note_on_c, 0, 89, 65
2, 125900, Note_on_c, 0, 95, 54
2, 125908, Note_on_c, 0, 73, 47
2, 125922, Note_on_c, 0, 97, 0
2, 125948, Note_on_c, 0, 82, 0
2, 125954, Note_on_c, 0, 89, 0
2, 125960, Note_on_c, 0, 95, 0
2, 125964, Note_on_c, 0, 73, 0
2, 125982, Note_on_c, 0, 97, 75
2, 126078, Note_on_c, 0, 95, 57
2, 126081, Note_on_c, 0, 87, 65
2, 126090, Note_on_c, 0, 97, 0
2, 126093, Note_on_c, 0, 83, 77
2, 126102, Note_on_c, 0, 75, 42
2, 126140, Note_on_c, 0, 83, 0
2, 126150, Note_on_c, 0, 95, 0
2, 126160, Note_on_c, 0, 87, 0
2, 126160, Note_on_c, 0, 75, 0
2, 126166, Note_on_c, 0, 97, 50
2, 126204, Control_c, 0, 64, 127
2, 126228, Note_on_c, 0, 95, 63
2, 126234, Note_on_c, 0, 97, 0
2, 126306, Note_on_c, 0, 97, 65
2, 126326, Control_c, 0, 64, 0
2, 126350, Note_on_c, 0, 95, 0
2, 126374, Note_on_c, 0, 97, 0
2, 126412, Note_on_c, 0, 90, 70
2, 126420, Note_on_c, 0, 94, 57
2, 126426, Note_on_c, 0, 61, 56
2, 126462, Note_on_c, 0, 90, 0
2, 126470, Note_on_c, 0, 94, 0
2, 126478, Note_on_c, 0, 61, 0
2, 126506, Note_on_c, 0, 95, 80
2, 126512, Control_c, 0, 64, 127
2, 126570, Note_on_c, 0, 95, 0
2, 126592, Note_on_c, 0, 89, 25
2, 126612, Note_on_c, 0, 94, 41
2, 126656, Note_on_c, 0, 89, 0
2, 126664, Note_on_c, 0, 95, 58
2, 126668, Note_on_c, 0, 94, 0
2, 126710, Control_c, 0, 64, 0
2, 126732, Note_on_c, 0, 94, 63
2, 126735, Note_on_c, 0, 95, 0
2, 126738, Note_on_c, 0, 87, 65
2, 126738, Note_on_c, 0, 70, 35
2, 126764, Note_on_c, 0, 78, 24
2, 126796, Note_on_c, 0, 87, 0
2, 126806, Note_on_c, 0, 70, 0
2, 126826, Note_on_c, 0, 94, 0
2, 126829, Note_on_c, 0, 78, 0
2, 126848, Note_on_c, 0, 95, 44
2, 126890, Note_on_c, 0, 80, 52
2, 126904, Note_on_c, 0, 94, 55
2, 126906, Note_on_c, 0, 86, 77
2, 126906, Note_on_c, 0, 71, 41
2, 126912, Note_on_c, 0, 95, 0
2, 126940, Note_on_c, 0, 80, 0
2, 126954, Note_on_c, 0, 86, 0
2, 126974, Note_on_c, 0, 71, 0
2, 126996, Note_on_c, 0, 95, 49
2, 127016, Note_on_c, 0, 94, 0
2, 127070, Note_on_c, 0, 85, 79
2, 127070, Note_on_c, 0, 82, 69
2, 127080, Note_on_c, 0, 94, 67
2, 127100, Note_on_c, 0, 95, 0
2, 127100, Note_on_c, 0, 73, 48
2, 127122, Note_on_c, 0, 82, 0
2, 127136, Note_on_c, 0, 94, 0
2, 127146, Note_on_c, 0, 85, 0
2, 127156, Note_on_c, 0, 73, 0
2, 127168, Note_on_c, 0, 95, 72
2, 127186, Control_c, 0, 64, 127
2, 127260, Note_on_c, 0, 95, 0
2, 127262, Note_on_c, 0, 94, 48
2, 127330, Note_on_c, 0, 95, 57
2, 127342, Note_on_c, 0, 94, 0
2, 127356, Control_c, 0, 64, 0
2, 127378, Note_on_c, 0, 95, 0
2, 127426, Note_on_c, 0, 89, 56
2, 127436, Note_on_c, 0, 92, 47
2, 127436, Note_on_c, 0, 61, 56
2, 127484, Note_on_c, 0, 89, 0
2, 127490, Note_on_c, 0, 61, 0
2, 127492, Note_on_c, 0, 92, 0
2, 127522, Note_on_c, 0, 94, 49
2, 127556, Control_c, 0, 64, 127
2, 127556, Note_on_c, 0, 87, 50
2, 127568, Note_on_c, 0, 92, 44
2, 127576, Note_on_c, 0, 94, 0
2, 127648, Note_on_c, 0, 92, 0
2, 127650, Note_on_c, 0, 87, 0
2, 127652, Note_on_c, 0, 94, 43
2, 127738, Note_on_c, 0, 94, 0
2, 127740, Control_c, 0, 64, 0
2, 127754, Note_on_c, 0, 92, 46
2, 127757, Note_on_c, 0, 86, 34
2, 127760, Note_on_c, 0, 68, 51
2, 127786, Note_on_c, 0, 77, 13
2, 127814, Note_on_c, 0, 92, 0
2, 127814, Note_on_c, 0, 94, 55
2, 127822, Note_on_c, 0, 68, 0
2, 127830, Note_on_c, 0, 86, 0
2, 127840, Note_on_c, 0, 77, 0
2, 127894, Note_on_c, 0, 94, 0
2, 127896, Note_on_c, 0, 92, 56
2, 127914, Note_on_c, 0, 85, 50
2, 127917, Note_on_c, 0, 78, 54
2, 127954, Note_on_c, 0, 70, 14
2, 127964, Note_on_c, 0, 92, 0
2, 127972, Note_on_c, 0, 78, 0
2, 127978, Note_on_c, 0, 85, 0
2, 128006, Note_on_c, 0, 94, 54
2, 128056, Note_on_c, 0, 70, 0
2, 128094, Note_on_c, 0, 92, 64
2, 128097, Note_on_c, 0, 80, 57
2, 128116, Note_on_c, 0, 94, 0
2, 128134, Note_on_c, 0, 83, 66
2, 128142, Note_on_c, 0, 92, 0
2, 128150, Note_on_c, 0, 71, 19
2, 128184, Note_on_c, 0, 80, 0
2, 128187, Control_c, 0, 64, 127
2, 128210, Note_on_c, 0, 87, 50
2, 128236, Note_on_c, 0, 71, 0
2, 128236, Note_on_c, 0, 83, 0
2, 128274, Note_on_c, 0, 87, 0
2, 128277, Control_c, 0, 64, 0
2, 128294, Note_on_c, 0, 88, 48
2, 128342, Note_on_c, 0, 66, 37
2, 128347, Note_on_c, 0, 88, 0
2, 128364, Note_on_c, 0, 89, 52
2, 128402, Note_on_c, 0, 66, 0
2, 128428, Note_on_c, 0, 89, 0
2, 128428, Note_on_c, 0, 73, 29
2, 128464, Note_on_c, 0, 90, 67
2, 128494, Control_c, 0, 64, 127
2, 128524, Note_on_c, 0, 82, 46
2, 128544, Note_on_c, 0, 90, 0
2, 128582, Note_on_c, 0, 92, 39
2, 128584, Note_on_c, 0, 73, 0
2, 128628, Note_on_c, 0, 90, 51
2, 128644, Note_on_c, 0, 92, 0
2, 128682, Note_on_c, 0, 82, 0
2, 128702, Note_on_c, 0, 90, 0
2, 128712, Note_on_c, 0, 92, 52
2, 128806, Note_on_c, 0, 90, 47
2, 128844, Note_on_c, 0, 92, 0
2, 128884, Note_on_c, 0, 90, 0
2, 128910, Note_on_c, 0, 78, 75
2, 129022, Note_on_c, 0, 90, 48
2, 129070, Note_on_c, 0, 78, 0
2, 129080, Note_on_c, 0, 90, 0
2, 129082, Note_on_c, 0, 92, 69
2, 129166, Note_on_c, 0, 90, 51
2, 129196, Note_on_c, 0, 92, 0
2, 129232, Note_on_c, 0, 90, 0
2, 129246, Control_c, 0, 64, 0
2, 129262, Note_on_c, 0, 79, 97
2, 129334, Note_on_c, 0, 91, 77
2, 129384, Note_on_c, 0, 91, 0
2, 129412, Note_on_c, 0, 79, 0
2, 129424, Note_on_c, 0, 92, 63
2, 129476, Control_c, 0, 64, 127
2, 129518, Note_on_c, 0, 92, 0
2, 129524, Note_on_c, 0, 91, 62
2, 129576, Note_on_c, 0, 91, 0
2, 129584, Control_c, 0, 64, 0
2, 129598, Note_on_c, 0, 80, 87
2, 129686, Note_on_c, 0, 92, 62
2, 129708, Control_c, 0, 64, 127
2, 129720, Note_on_c, 0, 80, 0
2, 129750, Note_on_c, 0, 92, 0
2, 129788, Note_on_c, 0, 93, 67
2, 129844, Note_on_c, 0, 93, 0
2, 129892, Note_on_c, 0, 64, 70
2, 129892, Note_on_c, 0, 92, 57
2, 129934, Note_on_c, 0, 64, 0
2, 129946, Note_on_c, 0, 92, 0
2, 129992, Note_on_c, 0, 93, 63
2, 130032, Note_on_c, 0, 80, 80
2, 130042, Note_on_c, 0, 93, 0
2, 130070, Note_on_c, 0, 92, 59
2, 130092, Note_on_c, 0, 80, 0
2, 130124, Note_on_c, 0, 92, 0
2, 130136, Note_on_c, 0, 93, 47
2, 130228, Note_on_c, 0, 93, 0
2, 130230, Control_c, 0, 64, 0
2, 130236, Note_on_c, 0, 92, 47
2, 130298, Note_on_c, 0, 92, 0
2, 130301, Note_on_c, 0, 63, 39
2, 130312, Note_on_c, 0, 93, 67
2, 130354, Note_on_c, 0, 63, 0
2, 130364, Note_on_c, 0, 78, 71
2, 130372, Note_on_c, 0, 93, 0
2, 130382, Control_c, 0, 64, 127
2, 130404, Note_on_c, 0, 92, 43
2, 130418, Note_on_c, 0, 78, 0
2, 130460, Note_on_c, 0, 92, 0
2, 130470, Note_on_c, 0, 93, 62
2, 130534, Note_on_c, 0, 93, 0
2, 130562, Note_on_c, 0, 92, 40
2, 130584, Control_c, 0, 64, 0
2, 130626, Note_on_c, 0, 92, 0
2, 130626, Note_on_c, 0, 61, 78
2, 130646, Note_on_c, 0, 93, 64
2, 130672, Note_on_c, 0, 61, 0
2, 130700, Note_on_c, 0, 93, 0
2, 130714, Note_on_c, 0, 92, 48
2, 130716, Note_on_c, 0, 76, 72
2, 130736, Control_c, 0, 64, 127
2, 130766, Note_on_c, 0, 76, 0
2, 130792, Note_on_c, 0, 93, 59
2, 130808, Note_on_c, 0, 92, 0
2, 130852, Note_on_c, 0, 93, 0
2, 130880, Note_on_c, 0, 92, 54
2, 130954, Note_on_c, 0, 93, 66
2, 130976, Note_on_c, 0, 92, 0
2, 131022, Note_on_c, 0, 93, 0
2, 131044, Control_c, 0, 64, 0
2, 131048, Note_on_c, 0, 92, 55
2, 131062, Note_on_c, 0, 87, 69
2, 131065, Note_on_c, 0, 102, 77
2, 131152, Note_on_c, 0, 93, 56
2, 131160, Note_on_c, 0, 92, 0
2, 131210, Note_on_c, 0, 93, 0
2, 131216, Note_on_c, 0, 87, 0
2, 131220, Note_on_c, 0, 92, 67
2, 131222, Note_on_c, 0, 102, 0
2, 131274, Control_c, 0, 64, 127
2, 131292, Note_on_c, 0, 93, 47
2, 131297, Note_on_c, 0, 92, 0
2, 131378, Note_on_c, 0, 93, 0
2, 131408, Note_on_c, 0, 92, 55
2, 131408, Note_on_c, 0, 85, 56
2, 131411, Note_on_c, 0, 100, 73
2, 131456, Note_on_c, 0, 85, 0
2, 131484, Note_on_c, 0, 92, 0
2, 131494, Note_on_c, 0, 93, 41
2, 131540, Note_on_c, 0, 100, 0
2, 131564, Note_on_c, 0, 92, 46
2, 131568, Note_on_c, 0, 93, 0
2, 131612, Control_c, 0, 64, 0
2, 131626, Note_on_c, 0, 68, 57
2, 131648, Note_on_c, 0, 92, 0
2, 131652, Note_on_c, 0, 93, 47
2, 131680, Note_on_c, 0, 68, 0
2, 131734, Control_c, 0, 64, 127
2, 131736, Note_on_c, 0, 93, 0
2, 131752, Note_on_c, 0, 99, 71
2, 131754, Note_on_c, 0, 92, 52
2, 131776, Note_on_c, 0, 84, 75
2, 131836, Note_on_c, 0, 92, 0
2, 131836, Note_on_c, 0, 93, 50
2, 131894, Note_on_c, 0, 99, 0
2, 131906, Note_on_c, 0, 93, 0
2, 131916, Note_on_c, 0, 92, 47
2, 131934, Note_on_c, 0, 84, 0
2, 131994, Note_on_c, 0, 92, 0
2, 132000, Control_c, 0, 64, 0
2, 132002, Note_on_c, 0, 93, 42
2, 132084, Note_on_c, 0, 93, 0
2, 132100, Note_on_c, 0, 92, 43
2, 132100, Note_on_c, 0, 97, 57
2, 132108, Note_on_c, 0, 82, 52
2, 132170, Note_on_c, 0, 93, 50
2, 132182, Note_on_c, 0, 92, 0
2, 132190, Note_on_c, 0, 82, 0
2, 132228, Note_on_c, 0, 97, 0
2, 132242, Control_c, 0, 64, 127
2, 132262, Note_on_c, 0, 93, 0
2, 132274, Note_on_c, 0, 92, 42
2, 132320, Control_c, 0, 64, 0
2, 132334, Note_on_c, 0, 93, 63
2, 132338, Note_on_c, 0, 92, 0
2, 132456, Note_on_c, 0, 93, 0
2, 132459, Note_on_c, 0, 92, 39
2, 132472, Note_on_c, 0, 99, 49
2, 132472, Note_on_c, 0, 84, 54
2, 132524, Note_on_c, 0, 92, 0
2, 132526, Note_on_c, 0, 84, 0
2, 132530, Note_on_c, 0, 93, 56
2, 132580, Control_c, 0, 64, 127
2, 132588, Note_on_c, 0, 99, 0
2, 132598, Note_on_c, 0, 93, 0
2, 132608, Note_on_c, 0, 92, 24
2, 132680, Note_on_c, 0, 93, 46
2, 132683, Note_on_c, 0, 92, 0
2, 132738, Note_on_c, 0, 73, 32
2, 132808, Note_on_c, 0, 93, 0
2, 132812, Note_on_c, 0, 73, 0
2, 132822, Note_on_c, 0, 100, 55
2, 132842, Note_on_c, 0, 85, 48
2, 132850, Note_on_c, 0, 92, 3
2, 132894, Note_on_c, 0, 93, 41
2, 132902, Note_on_c, 0, 92, 0
2, 132916, Note_on_c, 0, 85, 0
2, 132969, Note_on_c, 0, 93, 0
2, 133000, Note_on_c, 0, 92, 37
2, 133068, Note_on_c, 0, 92, 0
2, 133074, Note_on_c, 0, 93, 25
2, 133088, Note_on_c, 0, 100, 0
2, 133194, Note_on_c, 0, 93, 0
2, 133197, Note_on_c, 0, 92, 18
2, 133197, Note_on_c, 0, 88, 37
2, 133222, Note_on_c, 0, 97, 33
2, 133268, Note_on_c, 0, 88, 0
2, 133318, Note_on_c, 0, 97, 0
2, 133372, Note_on_c, 0, 92, 0
2, 133488, Control_c, 0, 64, 0
2, 133542, Note_on_c, 0, 79, 55
2, 133614, Note_on_c, 0, 91, 41
2, 133617, Note_on_c, 0, 79, 0
2, 133676, Note_on_c, 0, 91, 0
2, 133698, Note_on_c, 0, 93, 44
2, 133716, Control_c, 0, 64, 127
2, 133776, Note_on_c, 0, 91, 39
2, 133796, Note_on_c, 0, 93, 0
2, 133846, Note_on_c, 0, 91, 0
2, 133878, Note_on_c, 0, 78, 44
2, 133886, Control_c, 0, 64, 0
2, 133928, Note_on_c, 0, 78, 0
2, 133946, Note_on_c, 0, 90, 54
2, 134010, Note_on_c, 0, 90, 0
2, 134038, Note_on_c, 0, 92, 37
2, 134040, Control_c, 0, 64, 127
2, 134084, Note_on_c, 0, 90, 56
2, 134104, Note_on_c, 0, 92, 0
2, 134162, Note_on_c, 0, 90, 0
2, 134164, Control_c, 0, 64, 0
2, 134190, Note_on_c, 0, 63, 52
2, 134198, Note_on_c, 0, 92, 44
2, 134260, Note_on_c, 0, 63, 0
2, 134260, Note_on_c, 0, 78, 58
2, 134266, Note_on_c, 0, 92, 0
2, 134304, Note_on_c, 0, 90, 69
2, 134338, Note_on_c, 0, 78, 0
2, 134348, Control_c, 0, 64, 127
2, 134358, Note_on_c, 0, 90, 0
2, 134406, Note_on_c, 0, 92, 66
2, 134454, Note_on_c, 0, 92, 0
2, 134486, Control_c, 0, 64, 0
2, 134489, Note_on_c, 0, 90, 56
2, 134526, Note_on_c, 0, 61, 50
2, 134544, Note_on_c, 0, 90, 0
2, 134562, Note_on_c, 0, 92, 51
2, 134582, Note_on_c, 0, 61, 0
2, 134620, Note_on_c, 0, 92, 0
2, 134632, Note_on_c, 0, 76, 51
2, 134640, Control_c, 0, 64, 127
2, 134652, Note_on_c, 0, 90, 43
2, 134682, Note_on_c, 0, 76, 0
2, 134712, Note_on_c, 0, 90, 0
2, 134724, Note_on_c, 0, 92, 57
2, 134788, Note_on_c, 0, 92, 0
2, 134791, Control_c, 0, 64, 0
2, 134814, Note_on_c, 0, 90, 46
2, 134888, Note_on_c, 0, 90, 0
2, 134888, Note_on_c, 0, 59, 55
2, 134920, Note_on_c, 0, 92, 63
2, 134938, Note_on_c, 0, 59, 0
2, 134946, Control_c, 0, 64, 127
2, 134972, Note_on_c, 0, 92, 0
2, 134998, Note_on_c, 0, 90, 44
2, 135022, Note_on_c, 0, 75, 70
2, 135072, Note_on_c, 0, 90, 0
2, 135082, Note_on_c, 0, 92, 43
2, 135087, Note_on_c, 0, 75, 0
2, 135140, Note_on_c, 0, 92, 0
2, 135166, Note_on_c, 0, 90, 47
2, 135244, Note_on_c, 0, 92, 50
2, 135268, Note_on_c, 0, 90, 0
2, 135304, Note_on_c, 0, 92, 0
2, 135336, Note_on_c, 0, 90, 66
2, 135348, Note_on_c, 0, 100, 90
2, 135360, Control_c, 0, 64, 0
2, 135364, Note_on_c, 0, 85, 74
2, 135418, Note_on_c, 0, 90, 0
2, 135443, Note_on_c, 0, 92, 69
2, 135494, Note_on_c, 0, 92, 0
2, 135497, Note_on_c, 0, 100, 0
2, 135512, Note_on_c, 0, 90, 46
2, 135516, Note_on_c, 0, 85, 0
2, 135530, Control_c, 0, 64, 127
2, 135574, Note_on_c, 0, 92, 55
2, 135582, Note_on_c, 0, 90, 0
2, 135638, Control_c, 0, 64, 0
2, 135668, Note_on_c, 0, 92, 0
2, 135673, Note_on_c, 0, 90, 66
2, 135682, Note_on_c, 0, 99, 86
2, 135714, Note_on_c, 0, 83, 86
2, 135758, Note_on_c, 0, 83, 0
2, 135761, Note_on_c, 0, 90, 0
2, 135761, Note_on_c, 0, 92, 58
2, 135822, Note_on_c, 0, 99, 0
2, 135822, Control_c, 0, 64, 127
2, 135826, Note_on_c, 0, 92, 0
2, 135846, Note_on_c, 0, 90, 60
2, 135908, Note_on_c, 0, 66, 71
2, 135918, Note_on_c, 0, 90, 0
2, 135920, Note_on_c, 0, 92, 48
2, 135964, Note_on_c, 0, 66, 0
2, 136012, Note_on_c, 0, 90, 66
2, 136014, Note_on_c, 0, 92, 0
2, 136018, Note_on_c, 0, 97, 73
2, 136062, Note_on_c, 0, 82, 66
2, 136092, Note_on_c, 0, 92, 58
2, 136118, Note_on_c, 0, 90, 0
2, 136184, Note_on_c, 0, 97, 0
2, 136184, Note_on_c, 0, 90, 62
2, 136206, Note_on_c, 0, 82, 0
2, 136206, Control_c, 0, 64, 0
2, 136220, Note_on_c, 0, 92, 0
2, 136286, Note_on_c, 0, 90, 0
2, 136288, Note_on_c, 0, 92, 69
2, 136344, Note_on_c, 0, 92, 0
2, 136344, Note_on_c, 0, 90, 72
2, 136366, Note_on_c, 0, 95, 74
2, 136370, Note_on_c, 0, 80, 60
2, 136422, Control_c, 0, 64, 127
2, 136432, Note_on_c, 0, 80, 0
2, 136442, Note_on_c, 0, 92, 54
2, 136460, Note_on_c, 0, 90, 0
2, 136510, Note_on_c, 0, 92, 0
2, 136528, Note_on_c, 0, 90, 56
2, 136574, Control_c, 0, 64, 0
2, 136594, Note_on_c, 0, 92, 47
2, 136602, Note_on_c, 0, 90, 0
2, 136686, Note_on_c, 0, 95, 0
2, 136688, Note_on_c, 0, 92, 0
2, 136690, Note_on_c, 0, 90, 46
2, 136696, Note_on_c, 0, 97, 62
2, 136700, Note_on_c, 0, 82, 50
2, 136744, Control_c, 0, 64, 127
2, 136750, Note_on_c, 0, 82, 0
2, 136778, Note_on_c, 0, 90, 0
2, 136782, Note_on_c, 0, 92, 54
2, 136790, Control_c, 0, 64, 0
2, 136832, Note_on_c, 0, 97, 0
2, 136848, Note_on_c, 0, 92, 0
2, 136870, Note_on_c, 0, 90, 35
2, 136898, Control_c, 0, 64, 127
2, 136946, Note_on_c, 0, 90, 0
2, 136946, Note_on_c, 0, 92, 41
2, 136960, Control_c, 0, 64, 0
2, 136986, Note_on_c, 0, 71, 28
2, 137014, Note_on_c, 0, 92, 0
2, 137050, Note_on_c, 0, 99, 52
2, 137060, Note_on_c, 0, 90, 27
2, 137062, Note_on_c, 0, 71, 0
2, 137094, Note_on_c, 0, 83, 52
2, 137144, Control_c, 0, 64, 127
2, 137150, Note_on_c, 0, 90, 0
2, 137156, Note_on_c, 0, 92, 35
2, 137224, Note_on_c, 0, 92, 0
2, 137250, Note_on_c, 0, 90, 35
2, 137272, Note_on_c, 0, 83, 0
2, 137314, Note_on_c, 0, 92, 29
2, 137318, Note_on_c, 0, 90, 0
2, 137332, Note_on_c, 0, 99, 0
2, 137378, Note_on_c, 0, 95, 52
2, 137386, Note_on_c, 0, 92, 0
2, 137412, Note_on_c, 0, 87, 40
2, 137418, Note_on_c, 0, 90, 16
2, 137454, Note_on_c, 0, 95, 0
2, 137468, Note_on_c, 0, 87, 0
2, 137532, Note_on_c, 0, 90, 0
2, 137722, Note_on_c, 0, 74, 54
2, 137780, Note_on_c, 0, 74, 0
2, 137788, Note_on_c, 0, 86, 63
2, 137844, Note_on_c, 0, 86, 0
2, 137858, Note_on_c, 0, 87, 55
2, 137922, Note_on_c, 0, 87, 0
2, 137926, Note_on_c, 0, 86, 48
2, 137974, Control_c, 0, 64, 0
2, 137998, Note_on_c, 0, 86, 0
2, 138022, Note_on_c, 0, 75, 69
2, 138074, Note_on_c, 0, 87, 60
2, 138077, Note_on_c, 0, 75, 0
2, 138142, Note_on_c, 0, 87, 0
2, 138162, Note_on_c, 0, 88, 72
2, 138222, Note_on_c, 0, 88, 0
2, 138250, Note_on_c, 0, 87, 52
2, 138308, Note_on_c, 0, 87, 0
2, 138332, Note_on_c, 0, 75, 64
2, 138338, Note_on_c, 0, 88, 70
2, 138354, Note_on_c, 0, 63, 40
2, 138356, Note_on_c, 0, 67, 49
2, 138392, Note_on_c, 0, 88, 0
2, 138418, Note_on_c, 0, 67, 0
2, 138422, Note_on_c, 0, 75, 0
2, 138428, Note_on_c, 0, 63, 0
2, 138432, Note_on_c, 0, 87, 55
2, 138484, Note_on_c, 0, 87, 0
2, 138500, Note_on_c, 0, 88, 69
2, 138564, Note_on_c, 0, 88, 0
2, 138598, Note_on_c, 0, 87, 43
2, 138654, Note_on_c, 0, 87, 0
2, 138674, Note_on_c, 0, 88, 72
2, 138674, Note_on_c, 0, 74, 73
2, 138680, Note_on_c, 0, 68, 57
2, 138688, Note_on_c, 0, 65, 51
2, 138740, Note_on_c, 0, 88, 0
2, 138742, Note_on_c, 0, 74, 0
2, 138744, Note_on_c, 0, 65, 0
2, 138750, Note_on_c, 0, 87, 50
2, 138756, Note_on_c, 0, 68, 0
2, 138842, Note_on_c, 0, 87, 0
2, 138844, Note_on_c, 0, 88, 75
2, 138910, Note_on_c, 0, 87, 70
2, 138918, Note_on_c, 0, 88, 0
2, 139002, Control_c, 0, 64, 127
2, 139012, Note_on_c, 0, 87, 0
2, 139016, Note_on_c, 0, 88, 77
2, 139022, Note_on_c, 0, 73, 40
2, 139046, Note_on_c, 0, 67, 31
2, 139049, Note_on_c, 0, 70, 25
2, 139090, Note_on_c, 0, 87, 63
2, 139134, Note_on_c, 0, 67, 0
2, 139134, Note_on_c, 0, 88, 0
2, 139134, Note_on_c, 0, 73, 0
2, 139137, Note_on_c, 0, 70, 0
2, 139182, Note_on_c, 0, 86, 74
2, 139192, Note_on_c, 0, 87, 0
2, 139250, Note_on_c, 0, 86, 0
2, 139250, Note_on_c, 0, 87, 80
2, 139288, Note_on_c, 0, 87, 0
2, 139338, Note_on_c, 0, 88, 69
2, 139386, Note_on_c, 0, 88, 0
2, 139392, Note_on_c, 0, 89, 78
2, 139450, Note_on_c, 0, 90, 75
2, 139470, Note_on_c, 0, 89, 0
2, 139492, Note_on_c, 0, 90, 0
2, 139532, Note_on_c, 0, 91, 77
2, 139580, Note_on_c, 0, 91, 0
2, 139638, Note_on_c, 0, 93, 67
2, 139676, Note_on_c, 0, 91, 18
2, 139712, Note_on_c, 0, 94, 73
2, 139724, Control_c, 0, 64, 0
2, 139742, Note_on_c, 0, 91, 0
2, 139746, Note_on_c, 0, 93, 0
2, 139766, Note_on_c, 0, 94, 0
2, 139786, Note_on_c, 0, 95, 70
2, 139844, Note_on_c, 0, 95, 0
2, 139856, Note_on_c, 0, 96, 85
2, 139914, Note_on_c, 0, 96, 0
2, 139914, Note_on_c, 0, 97, 66
2, 139956, Note_on_c, 0, 97, 0
2, 139992, Note_on_c, 0, 98, 81
2, 140036, Note_on_c, 0, 98, 0
2, 140048, Note_on_c, 0, 99, 67
2, 140088, Note_on_c, 0, 68, 19
2, 140096, Note_on_c, 0, 76, 21
2, 140122, Note_on_c, 0, 99, 0
2, 140124, Note_on_c, 0, 100, 52
2, 140126, Note_on_c, 0, 71, 26
2, 140156, Control_c, 0, 64, 127
2, 140170, Note_on_c, 0, 100, 0
2, 140190, Note_on_c, 0, 102, 65
2, 140238, Note_on_c, 0, 71, 0
2, 140242, Note_on_c, 0, 76, 0
2, 140270, Note_on_c, 0, 100, 27
2, 140272, Note_on_c, 0, 102, 0
2, 140316, Note_on_c, 0, 68, 0
2, 140326, Note_on_c, 0, 99, 64
2, 140354, Note_on_c, 0, 100, 0
2, 140368, Note_on_c, 0, 99, 0
2, 140422, Note_on_c, 0, 98, 65
2, 140480, Note_on_c, 0, 98, 0
2, 140494, Note_on_c, 0, 97, 43
2, 140574, Note_on_c, 0, 96, 58
2, 140608, Note_on_c, 0, 97, 0
2, 140620, Note_on_c, 0, 96, 0
2, 140662, Note_on_c, 0, 95, 54
2, 140738, Note_on_c, 0, 94, 50
2, 140774, Note_on_c, 0, 95, 0
2, 140806, Note_on_c, 0, 93, 58
2, 140810, Note_on_c, 0, 94, 0
2, 140900, Note_on_c, 0, 92, 40
2, 140902, Note_on_c, 0, 93, 0
2, 140958, Note_on_c, 0, 92, 0
2, 140966, Note_on_c, 0, 91, 42
2, 141030, Note_on_c, 0, 91, 0
2, 141030, Note_on_c, 0, 90, 64
2, 141033, Control_c, 0, 64, 0
2, 141072, Note_on_c, 0, 63, 33
2, 141138, Note_on_c, 0, 70, 28
2, 141142, Note_on_c, 0, 63, 0
2, 141168, Note_on_c, 0, 90, 0
2, 141196, Note_on_c, 0, 88, 50
2, 141246, Control_c, 0, 64, 127
2, 141260, Note_on_c, 0, 79, 57
2, 141260, Note_on_c, 0, 87, 66
2, 141263, Note_on_c, 0, 88, 0
2, 141320, Note_on_c, 0, 79, 0
2, 141330, Note_on_c, 0, 70, 0
2, 141402, Note_on_c, 0, 87, 0
2, 141640, Note_on_c, 0, 70, 60
2, 141676, Control_c, 0, 64, 0
2, 141730, Note_on_c, 0, 82, 57
2, 141752, Note_on_c, 0, 70, 0
2, 141786, Note_on_c, 0, 82, 0
2, 141792, Note_on_c, 0, 83, 101
2, 141862, Note_on_c, 0, 83, 0
2, 141866, Note_on_c, 0, 82, 51
2, 141918, Note_on_c, 0, 82, 0
2, 141948, Note_on_c, 0, 74, 83
2, 142026, Note_on_c, 0, 86, 80
2, 142044, Note_on_c, 0, 74, 0
2, 142074, Note_on_c, 0, 86, 0
2, 142090, Note_on_c, 0, 87, 69
2, 142168, Note_on_c, 0, 87, 0
2, 142180, Note_on_c, 0, 86, 60
2, 142232, Note_on_c, 0, 86, 0
2, 142248, Note_on_c, 0, 75, 77
2, 142308, Note_on_c, 0, 75, 0
2, 142348, Note_on_c, 0, 87, 63
2, 142404, Note_on_c, 0, 87, 0
2, 142426, Note_on_c, 0, 88, 71
2, 142478, Note_on_c, 0, 88, 0
2, 142530, Note_on_c, 0, 87, 44
2, 142580, Note_on_c, 0, 87, 0
2, 142582, Note_on_c, 0, 75, 58
2, 142592, Note_on_c, 0, 63, 52
2, 142606, Note_on_c, 0, 67, 36
2, 142606, Note_on_c, 0, 88, 72
2, 142646, Note_on_c, 0, 75, 0
2, 142654, Note_on_c, 0, 88, 0
2, 142660, Note_on_c, 0, 63, 0
2, 142676, Note_on_c, 0, 67, 0
2, 142710, Note_on_c, 0, 87, 35
2, 142769, Note_on_c, 0, 87, 0
2, 142778, Note_on_c, 0, 88, 57
2, 142830, Note_on_c, 0, 88, 0
2, 142842, Note_on_c, 0, 87, 42
2, 142930, Note_on_c, 0, 74, 44
2, 142932, Note_on_c, 0, 68, 42
2, 142936, Note_on_c, 0, 88, 51
2, 142942, Note_on_c, 0, 65, 35
2, 142946, Note_on_c, 0, 87, 0
2, 142998, Note_on_c, 0, 65, 0
2, 143004, Note_on_c, 0, 88, 0
2, 143006, Note_on_c, 0, 74, 0
2, 143014, Note_on_c, 0, 68, 0
2, 143086, Note_on_c, 0, 88, 58
2, 143132, Note_on_c, 0, 87, 2
2, 143135, Note_on_c, 0, 88, 0
2, 143246, Note_on_c, 0, 87, 0
2, 143278, Note_on_c, 0, 88, 52
2, 143281, Note_on_c, 0, 73, 29
2, 143312, Note_on_c, 0, 70, 25
2, 143312, Note_on_c, 0, 67, 21
2, 143346, Note_on_c, 0, 88, 0
2, 143352, Control_c, 0, 64, 127
2, 143356, Note_on_c, 0, 87, 26
2, 143398, Note_on_c, 0, 73, 0
2, 143401, Note_on_c, 0, 67, 0
2, 143406, Note_on_c, 0, 70, 0
2, 143430, Note_on_c, 0, 87, 0
2, 143444, Note_on_c, 0, 86, 50
2, 143510, Note_on_c, 0, 86, 0
2, 143512, Note_on_c, 0, 87, 54
2, 143562, Note_on_c, 0, 87, 0
2, 143632, Note_on_c, 0, 88, 34
2, 143676, Note_on_c, 0, 89, 72
2, 143702, Note_on_c, 0, 88, 0
2, 143742, Note_on_c, 0, 90, 58
2, 143756, Note_on_c, 0, 89, 0
2, 143792, Note_on_c, 0, 90, 0
2, 143842, Note_on_c, 0, 91, 47
2, 143880, Note_on_c, 0, 92, 66
2, 143902, Note_on_c, 0, 91, 0
2, 143936, Note_on_c, 0, 93, 60
2, 143958, Note_on_c, 0, 92, 0
2, 143994, Control_c, 0, 64, 0
2, 144004, Note_on_c, 0, 94, 64
2, 144016, Note_on_c, 0, 93, 0
2, 144044, Note_on_c, 0, 94, 0
2, 144082, Note_on_c, 0, 95, 56
2, 144138, Note_on_c, 0, 95, 0
2, 144148, Note_on_c, 0, 96, 81
2, 144210, Note_on_c, 0, 96, 0
2, 144212, Note_on_c, 0, 97, 56
2, 144258, Note_on_c, 0, 97, 0
2, 144298, Note_on_c, 0, 98, 66
2, 144350, Note_on_c, 0, 98, 0
2, 144352, Note_on_c, 0, 99, 65
2, 144430, Note_on_c, 0, 99, 0
2, 144430, Note_on_c, 0, 68, 25
2, 144430, Note_on_c, 0, 100, 57
2, 144442, Note_on_c, 0, 76, 20
2, 144450, Note_on_c, 0, 71, 27
2, 144474, Control_c, 0, 64, 127
2, 144478, Note_on_c, 0, 100, 0
2, 144516, Note_on_c, 0, 102, 55
2, 144566, Note_on_c, 0, 76, 0
2, 144572, Note_on_c, 0, 100, 36
2, 144584, Note_on_c, 0, 71, 0
2, 144586, Note_on_c, 0, 102, 0
2, 144622, Note_on_c, 0, 68, 0
2, 144658, Note_on_c, 0, 99, 55
2, 144661, Note_on_c, 0, 100, 0
2, 144704, Note_on_c, 0, 99, 0
2, 144742, Note_on_c, 0, 98, 48
2, 144802, Note_on_c, 0, 98, 0
2, 144802, Note_on_c, 0, 97, 55
2, 144882, Note_on_c, 0, 96, 58
2, 144924, Note_on_c, 0, 97, 0
2, 144930, Note_on_c, 0, 96, 0
2, 144958, Note_on_c, 0, 95, 64
2, 145040, Note_on_c, 0, 94, 51
2, 145078, Note_on_c, 0, 95, 0
2, 145088, Control_c, 0, 64, 0
2, 145098, Note_on_c, 0, 93, 69
2, 145122, Note_on_c, 0, 94, 0
2, 145176, Note_on_c, 0, 92, 58
2, 145194, Note_on_c, 0, 93, 0
2, 145232, Note_on_c, 0, 92, 0
2, 145252, Note_on_c, 0, 91, 50
2, 145302, Note_on_c, 0, 90, 78
2, 145308, Note_on_c, 0, 91, 0
2, 145394, Control_c, 0, 64, 127
2, 145408, Note_on_c, 0, 89, 47
2, 145414, Note_on_c, 0, 63, 29
2, 145426, Note_on_c, 0, 90, 0
2, 145444, Note_on_c, 0, 70, 32
2, 145462, Note_on_c, 0, 88, 63
2, 145472, Note_on_c, 0, 89, 0
2, 145480, Note_on_c, 0, 63, 0
2, 145502, Note_on_c, 0, 70, 0
2, 145520, Note_on_c, 0, 88, 0
2, 145544, Note_on_c, 0, 79, 74
2, 145550, Note_on_c, 0, 87, 71
2, 145600, Note_on_c, 0, 79, 0
2, 145603, Note_on_c, 0, 87, 0
2, 145632, Note_on_c, 0, 88, 69
2, 145710, Note_on_c, 0, 88, 0
2, 145718, Note_on_c, 0, 87, 47
2, 145778, Note_on_c, 0, 87, 0
2, 145788, Note_on_c, 0, 86, 57
2, 145850, Note_on_c, 0, 87, 63
2, 145856, Note_on_c, 0, 86, 0
2, 145916, Note_on_c, 0, 87, 0
2, 145956, Note_on_c, 0, 88, 51
2, 146016, Note_on_c, 0, 88, 0
2, 146016, Note_on_c, 0, 89, 77
2, 146072, Control_c, 0, 64, 0
2, 146075, Note_on_c, 0, 90, 66
2, 146098, Note_on_c, 0, 89, 0
2, 146118, Note_on_c, 0, 90, 0
2, 146156, Note_on_c, 0, 91, 78
2, 146212, Note_on_c, 0, 91, 0
2, 146222, Note_on_c, 0, 92, 55
2, 146268, Note_on_c, 0, 93, 80
2, 146304, Note_on_c, 0, 92, 0
2, 146332, Note_on_c, 0, 94, 66
2, 146354, Note_on_c, 0, 93, 0
2, 146372, Note_on_c, 0, 94, 0
2, 146412, Note_on_c, 0, 95, 72
2, 146466, Note_on_c, 0, 95, 0
2, 146476, Note_on_c, 0, 96, 78
2, 146486, Control_c, 0, 64, 127
2, 146504, Note_on_c, 0, 56, 36
2, 146540, Note_on_c, 0, 97, 56
2, 146546, Note_on_c, 0, 96, 0
2, 146574, Note_on_c, 0, 63, 44
2, 146576, Note_on_c, 0, 56, 0
2, 146586, Note_on_c, 0, 97, 0
2, 146616, Note_on_c, 0, 98, 79
2, 146662, Note_on_c, 0, 98, 0
2, 146686, Note_on_c, 0, 99, 52
2, 146726, Note_on_c, 0, 71, 70
2, 146732, Note_on_c, 0, 100, 72
2, 146748, Note_on_c, 0, 99, 0
2, 146778, Note_on_c, 0, 100, 0
2, 146816, Note_on_c, 0, 63, 0
2, 146824, Note_on_c, 0, 102, 63
2, 146842, Note_on_c, 0, 71, 0
2, 146900, Note_on_c, 0, 102, 0
2, 146900, Note_on_c, 0, 100, 37
2, 146956, Note_on_c, 0, 99, 63
2, 146968, Note_on_c, 0, 100, 0
2, 147004, Note_on_c, 0, 99, 0
2, 147054, Note_on_c, 0, 98, 36
2, 147112, Note_on_c, 0, 97, 41
2, 147124, Note_on_c, 0, 98, 0
2, 147204, Note_on_c, 0, 96, 35
2, 147238, Note_on_c, 0, 97, 0
2, 147276, Note_on_c, 0, 96, 0
2, 147276, Note_on_c, 0, 95, 48
2, 147352, Note_on_c, 0, 94, 37
2, 147386, Note_on_c, 0, 95, 0
2, 147408, Control_c, 0, 64, 0
2, 147412, Note_on_c, 0, 93, 51
2, 147456, Note_on_c, 0, 94, 0
2, 147466, Note_on_c, 0, 92, 57
2, 147484, Note_on_c, 0, 93, 0
2, 147518, Note_on_c, 0, 92, 0
2, 147552, Note_on_c, 0, 91, 52
2, 147602, Note_on_c, 0, 90, 69
2, 147605, Note_on_c, 0, 91, 0
2, 147690, Note_on_c, 0, 89, 60
2, 147726, Note_on_c, 0, 51, 42
2, 147738, Note_on_c, 0, 89, 0
2, 147738, Note_on_c, 0, 90, 0
2, 147752, Note_on_c, 0, 88, 72
2, 147772, Note_on_c, 0, 58, 40
2, 147784, Note_on_c, 0, 51, 0
2, 147792, Control_c, 0, 64, 127
2, 147828, Note_on_c, 0, 88, 0
2, 147850, Note_on_c, 0, 87, 67
2, 147880, Note_on_c, 0, 67, 60
2, 147910, Note_on_c, 0, 87, 0
2, 147932, Note_on_c, 0, 88, 57
2, 147986, Note_on_c, 0, 67, 0
2, 147992, Note_on_c, 0, 58, 0
2, 148010, Note_on_c, 0, 88, 0
2, 148026, Note_on_c, 0, 87, 37
2, 148084, Note_on_c, 0, 87, 0
2, 148094, Note_on_c, 0, 86, 58
2, 148164, Note_on_c, 0, 86, 0
2, 148166, Note_on_c, 0, 87, 48
2, 148224, Note_on_c, 0, 87, 0
2, 148280, Note_on_c, 0, 88, 34
2, 148338, Note_on_c, 0, 89, 73
2, 148346, Note_on_c, 0, 88, 0
2, 148410, Note_on_c, 0, 90, 67
2, 148442, Note_on_c, 0, 89, 0
2, 148458, Note_on_c, 0, 90, 0
2, 148496, Note_on_c, 0, 91, 73
2, 148554, Note_on_c, 0, 91, 0
2, 148554, Note_on_c, 0, 92, 65
2, 148622, Note_on_c, 0, 93, 72
2, 148672, Note_on_c, 0, 92, 0
2, 148692, Note_on_c, 0, 94, 70
2, 148716, Note_on_c, 0, 93, 0
2, 148730, Note_on_c, 0, 94, 0
2, 148770, Note_on_c, 0, 95, 77
2, 148826, Note_on_c, 0, 95, 0
2, 148836, Control_c, 0, 64, 0
2, 148840, Note_on_c, 0, 96, 82
2, 148898, Note_on_c, 0, 97, 67
2, 148916, Note_on_c, 0, 96, 0
2, 148936, Note_on_c, 0, 97, 0
2, 148950, Note_on_c, 0, 44, 64
2, 148978, Note_on_c, 0, 98, 89
2, 149004, Note_on_c, 0, 44, 0
2, 149018, Note_on_c, 0, 98, 0
2, 149036, Control_c, 0, 64, 127
2, 149046, Note_on_c, 0, 99, 59
2, 149082, Note_on_c, 0, 59, 58
2, 149110, Note_on_c, 0, 100, 70
2, 149130, Note_on_c, 0, 99, 0
2, 149154, Note_on_c, 0, 59, 0
2, 149160, Note_on_c, 0, 100, 0
2, 149194, Note_on_c, 0, 102, 72
2, 149280, Note_on_c, 0, 100, 51
2, 149292, Note_on_c, 0, 102, 0
2, 149354, Note_on_c, 0, 99, 58
2, 149362, Note_on_c, 0, 100, 0
2, 149400, Note_on_c, 0, 99, 0
2, 149428, Note_on_c, 0, 98, 80
2, 149470, Note_on_c, 0, 98, 0
2, 149498, Note_on_c, 0, 99, 49
2, 149568, Note_on_c, 0, 98, 62
2, 149592, Note_on_c, 0, 99, 0
2, 149646, Note_on_c, 0, 97, 52
2, 149654, Note_on_c, 0, 98, 0
2, 149698, Note_on_c, 0, 97, 0
2, 149714, Note_on_c, 0, 96, 64
2, 149760, Note_on_c, 0, 96, 0
2, 149776, Note_on_c, 0, 97, 55
2, 149842, Note_on_c, 0, 96, 57
2, 149898, Note_on_c, 0, 97, 0
2, 149936, Note_on_c, 0, 95, 65
2, 149958, Note_on_c, 0, 96, 0
2, 149980, Note_on_c, 0, 95, 0
2, 149986, Note_on_c, 0, 94, 67
2, 150028, Note_on_c, 0, 94, 0
2, 150060, Note_on_c, 0, 95, 50
2, 150154, Note_on_c, 0, 94, 48
2, 150180, Note_on_c, 0, 95, 0
2, 150270, Note_on_c, 0, 94, 0
2, 150280, Note_on_c, 0, 92, 57
2, 150334, Note_on_c, 0, 92, 0
2, 150344, Note_on_c, 0, 93, 72
2, 150412, Note_on_c, 0, 92, 35
2, 150440, Note_on_c, 0, 93, 0
2, 150500, Note_on_c, 0, 91, 54
2, 150518, Note_on_c, 0, 92, 0
2, 150552, Note_on_c, 0, 91, 0
2, 150556, Note_on_c, 0, 90, 62
2, 150608, Note_on_c, 0, 90, 0
2, 150616, Note_on_c, 0, 91, 78
2, 150666, Control_c, 0, 64, 0
2, 150700, Note_on_c, 0, 90, 33
2, 150738, Note_on_c, 0, 91, 0
2, 150778, Note_on_c, 0, 89, 63
2, 150812, Note_on_c, 0, 90, 0
2, 150826, Note_on_c, 0, 89, 0
2, 150846, Note_on_c, 0, 88, 66
2, 150894, Note_on_c, 0, 88, 0
2, 150896, Control_c, 0, 64, 127
2, 150904, Note_on_c, 0, 90, 52
2, 150976, Note_on_c, 0, 88, 55
2, 151022, Note_on_c, 0, 90, 0
2, 151064, Note_on_c, 0, 87, 63
2, 151094, Note_on_c, 0, 88, 0
2, 151116, Note_on_c, 0, 87, 0
2, 151138, Note_on_c, 0, 86, 67
2, 151188, Note_on_c, 0, 86, 0
2, 151202, Note_on_c, 0, 87, 59
2, 151272, Note_on_c, 0, 86, 54
2, 151294, Control_c, 0, 64, 0
2, 151318, Note_on_c, 0, 87, 0
2, 151344, Note_on_c, 0, 85, 78
2, 151386, Note_on_c, 0, 86, 0
2, 151408, Note_on_c, 0, 85, 0
2, 151426, Note_on_c, 0, 84, 57
2, 151474, Note_on_c, 0, 84, 0
2, 151480, Note_on_c, 0, 85, 77
2, 151480, Control_c, 0, 64, 127
2, 151544, Note_on_c, 0, 84, 59
2, 151610, Note_on_c, 0, 85, 0
2, 151636, Note_on_c, 0, 83, 101
2, 151648, Note_on_c, 0, 84, 0
2, 151684, Note_on_c, 0, 83, 0
2, 151710, Note_on_c, 0, 82, 65
2, 151755, Note_on_c, 0, 82, 0
2, 151784, Note_on_c, 0, 83, 83
2, 151840, Note_on_c, 0, 82, 42
2, 151892, Note_on_c, 0, 83, 0
2, 151928, Note_on_c, 0, 81, 75
2, 151958, Note_on_c, 0, 82, 0
2, 151978, Note_on_c, 0, 81, 0
2, 152006, Note_on_c, 0, 80, 59
2, 152074, Note_on_c, 0, 81, 58
2, 152108, Note_on_c, 0, 80, 0
2, 152150, Note_on_c, 0, 80, 32
2, 152158, Note_on_c, 0, 81, 0
2, 152228, Note_on_c, 0, 79, 65
2, 152260, Note_on_c, 0, 80, 0
2, 152278, Note_on_c, 0, 79, 0
2, 152280, Note_on_c, 0, 78, 85
2, 152322, Note_on_c, 0, 78, 0
2, 152348, Note_on_c, 0, 79, 74
2, 152432, Note_on_c, 0, 78, 57
2, 152466, Note_on_c, 0, 79, 0
2, 152512, Note_on_c, 0, 77, 72
2, 152530, Note_on_c, 0, 78, 0
2, 152560, Note_on_c, 0, 77, 0
2, 152578, Note_on_c, 0, 76, 72
2, 152630, Note_on_c, 0, 76, 0
2, 152652, Note_on_c, 0, 78, 64
2, 152722, Note_on_c, 0, 76, 59
2, 152768, Note_on_c, 0, 78, 0
2, 152800, Note_on_c, 0, 75, 83
2, 152846, Note_on_c, 0, 76, 0
2, 152884, Note_on_c, 0, 74, 77
2, 152886, Note_on_c, 0, 75, 0
2, 152930, Note_on_c, 0, 74, 0
2, 152948, Note_on_c, 0, 75, 81
2, 153004, Note_on_c, 0, 74, 77
2, 153066, Note_on_c, 0, 75, 0
2, 153090, Note_on_c, 0, 73, 79
2, 153110, Note_on_c, 0, 74, 0
2, 153172, Note_on_c, 0, 72, 57
2, 153184, Note_on_c, 0, 73, 0
2, 153226, Note_on_c, 0, 72, 0
2, 153238, Note_on_c, 0, 73, 78
2, 153282, Note_on_c, 0, 72, 79
2, 153354, Note_on_c, 0, 73, 0
2, 153374, Note_on_c, 0, 71, 89
2, 153390, Note_on_c, 0, 72, 0
2, 153430, Note_on_c, 0, 71, 0
2, 153444, Note_on_c, 0, 70, 75
2, 153494, Note_on_c, 0, 70, 0
2, 153532, Note_on_c, 0, 71, 44
2, 153588, Note_on_c, 0, 70, 60
2, 153646, Note_on_c, 0, 71, 0
2, 153664, Note_on_c, 0, 69, 77
2, 153706, Note_on_c, 0, 70, 0
2, 153730, Note_on_c, 0, 69, 0
2, 153750, Note_on_c, 0, 68, 63
2, 153804, Note_on_c, 0, 68, 0
2, 153816, Note_on_c, 0, 69, 56
2, 153882, Note_on_c, 0, 68, 51
2, 153954, Note_on_c, 0, 69, 0
2, 153966, Note_on_c, 0, 67, 79
2, 153996, Note_on_c, 0, 68, 0
2, 154020, Note_on_c, 0, 67, 0
2, 154042, Note_on_c, 0, 66, 65
2, 154102, Note_on_c, 0, 66, 0
2, 154110, Note_on_c, 0, 67, 67
2, 154168, Note_on_c, 0, 43, 60
2, 154184, Control_c, 0, 64, 0
2, 154190, Note_on_c, 0, 66, 60
2, 154262, Note_on_c, 0, 67, 0
2, 154265, Note_on_c, 0, 43, 0
2, 154292, Note_on_c, 0, 65, 25
2, 154322, Control_c, 0, 64, 127
2, 154324, Note_on_c, 0, 58, 65
2, 154326, Note_on_c, 0, 64, 49
2, 154328, Note_on_c, 0, 66, 0
2, 154360, Note_on_c, 0, 65, 0
2, 154442, Note_on_c, 0, 64, 0
2, 154446, Note_on_c, 0, 62, 66
2, 154474, Note_on_c, 0, 58, 0
2, 154494, Note_on_c, 0, 62, 0
2, 154518, Note_on_c, 0, 61, 81
2, 154524, Note_on_c, 0, 64, 86
2, 154576, Note_on_c, 0, 61, 0
2, 154580, Note_on_c, 0, 64, 0
2, 154620, Note_on_c, 0, 63, 73
2, 154700, Note_on_c, 0, 65, 72
2, 154724, Note_on_c, 0, 63, 0
2, 154748, Note_on_c, 0, 65, 0
2, 154764, Note_on_c, 0, 64, 83
2, 154810, Note_on_c, 0, 64, 0
2, 154854, Note_on_c, 0, 66, 73
2, 154900, Note_on_c, 0, 66, 0
2, 154924, Note_on_c, 0, 65, 72
2, 154972, Note_on_c, 0, 67, 55
2, 154974, Note_on_c, 0, 65, 0
2, 155038, Note_on_c, 0, 66, 78
2, 155058, Note_on_c, 0, 67, 0
2, 155118, Note_on_c, 0, 68, 72
2, 155156, Note_on_c, 0, 66, 0
2, 155158, Note_on_c, 0, 68, 0
2, 155170, Note_on_c, 0, 67, 79
2, 155244, Note_on_c, 0, 69, 70
2, 155276, Note_on_c, 0, 67, 0
2, 155316, Note_on_c, 0, 68, 78
2, 155380, Note_on_c, 0, 70, 79
2, 155384, Note_on_c, 0, 69, 0
2, 155420, Note_on_c, 0, 68, 0
2, 155432, Note_on_c, 0, 70, 0
2, 155440, Note_on_c, 0, 69, 82
2, 155530, Note_on_c, 0, 71, 72
2, 155556, Note_on_c, 0, 69, 0
2, 155588, Note_on_c, 0, 70, 71
2, 155624, Note_on_c, 0, 71, 0
2, 155668, Note_on_c, 0, 72, 74
2, 155690, Note_on_c, 0, 70, 0
2, 155704, Note_on_c, 0, 71, 85
2, 155712, Note_on_c, 0, 72, 0
2, 155774, Note_on_c, 0, 71, 0
2, 155800, Note_on_c, 0, 73, 81
2, 155884, Note_on_c, 0, 72, 60
2, 155902, Note_on_c, 0, 73, 0
2, 155910, Note_on_c, 0, 74, 83
2, 155932, Note_on_c, 0, 72, 0
2, 155974, Note_on_c, 0, 73, 59
2, 156024, Note_on_c, 0, 74, 0
2, 156062, Note_on_c, 0, 75, 93
2, 156080, Note_on_c, 0, 73, 0
2, 156094, Note_on_c, 0, 75, 0
2, 156116, Note_on_c, 0, 74, 92
2, 156156, Note_on_c, 0, 74, 0
2, 156218, Note_on_c, 0, 76, 71
2, 156264, Note_on_c, 0, 76, 0
2, 156274, Note_on_c, 0, 75, 93
2, 156330, Note_on_c, 0, 75, 0
2, 156374, Note_on_c, 0, 77, 62
2, 156416, Note_on_c, 0, 76, 93
2, 156421, Note_on_c, 0, 77, 0
2, 156456, Note_on_c, 0, 76, 0
2, 156504, Note_on_c, 0, 78, 86
2, 156554, Note_on_c, 0, 78, 0
2, 156566, Note_on_c, 0, 77, 93
2, 156600, Note_on_c, 0, 77, 0
2, 156656, Note_on_c, 0, 79, 101
2, 156694, Note_on_c, 0, 79, 0
2, 156702, Note_on_c, 0, 78, 90
2, 156764, Note_on_c, 0, 78, 0
2, 156792, Note_on_c, 0, 80, 94
2, 156840, Note_on_c, 0, 80, 0
2, 156842, Note_on_c, 0, 79, 96
2, 156882, Note_on_c, 0, 79, 0
2, 156944, Note_on_c, 0, 81, 94
2, 156980, Note_on_c, 0, 81, 0
2, 156996, Note_on_c, 0, 80, 93
2, 157050, Note_on_c, 0, 80, 0
2, 157074, Note_on_c, 0, 82, 90
2, 157140, Note_on_c, 0, 81, 83
2, 157142, Note_on_c, 0, 82, 0
2, 157182, Note_on_c, 0, 81, 0
2, 157226, Note_on_c, 0, 83, 121
2, 157262, Note_on_c, 0, 83, 0
2, 157290, Note_on_c, 0, 82, 93
2, 157350, Note_on_c, 0, 82, 0
2, 157372, Note_on_c, 0, 84, 104
2, 157414, Note_on_c, 0, 84, 0
2, 157444, Note_on_c, 0, 83, 116
2, 157482, Note_on_c, 0, 83, 0
2, 157506, Note_on_c, 0, 85, 102
2, 157584, Note_on_c, 0, 84, 105
2, 157587, Note_on_c, 0, 85, 0
2, 157658, Note_on_c, 0, 84, 0
2, 157664, Note_on_c, 0, 86, 109
2, 157706, Note_on_c, 0, 86, 0
2, 157742, Note_on_c, 0, 85, 101
2, 157764, Control_c, 0, 64, 0
2, 157810, Note_on_c, 0, 87, 98
2, 157840, Note_on_c, 0, 85, 0
2, 157876, Note_on_c, 0, 86, 104
2, 157894, Note_on_c, 0, 87, 0
2, 157902, Control_c, 0, 64, 127
2, 157924, Note_on_c, 0, 86, 0
2, 157964, Note_on_c, 0, 88, 103
2, 158004, Note_on_c, 0, 88, 0
2, 158022, Note_on_c, 0, 87, 98
2, 158098, Note_on_c, 0, 89, 104
2, 158124, Note_on_c, 0, 87, 0
2, 158148, Note_on_c, 0, 89, 0
2, 158164, Note_on_c, 0, 88, 100
2, 158230, Note_on_c, 0, 88, 0
2, 158236, Note_on_c, 0, 90, 94
2, 158298, Note_on_c, 0, 90, 0
2, 158308, Note_on_c, 0, 89, 101
2, 158366, Note_on_c, 0, 89, 0
2, 158394, Note_on_c, 0, 91, 95
2, 158432, Note_on_c, 0, 91, 0
2, 158462, Note_on_c, 0, 90, 95
2, 158504, Note_on_c, 0, 90, 0
2, 158540, Note_on_c, 0, 92, 92
2, 158592, Note_on_c, 0, 92, 0
2, 158594, Note_on_c, 0, 91, 96
2, 158634, Note_on_c, 0, 91, 0
2, 158680, Note_on_c, 0, 93, 108
2, 158726, Note_on_c, 0, 93, 0
2, 158758, Note_on_c, 0, 92, 95
2, 158802, Note_on_c, 0, 92, 0
2, 158826, Note_on_c, 0, 94, 86
2, 158882, Note_on_c, 0, 94, 0
2, 158904, Note_on_c, 0, 93, 92
2, 158944, Note_on_c, 0, 93, 0
2, 158972, Note_on_c, 0, 95, 96
2, 159016, Note_on_c, 0, 95, 0
2, 159054, Note_on_c, 0, 94, 92
2, 159104, Note_on_c, 0, 94, 0
2, 159136, Note_on_c, 0, 96, 80
2, 159178, Note_on_c, 0, 96, 0
2, 159210, Note_on_c, 0, 95, 58
2, 159240, Note_on_c, 0, 96, 42
2, 159264, Note_on_c, 0, 95, 0
2, 159282, Note_on_c, 0, 97, 60
2, 159310, Note_on_c, 0, 96, 0
2, 159328, Note_on_c, 0, 97, 0
2, 159370, Note_on_c, 0, 96, 83
2, 159410, Note_on_c, 0, 96, 0
2, 159434, Note_on_c, 0, 98, 94
2, 159482, Note_on_c, 0, 98, 0
2, 159530, Note_on_c, 0, 97, 80
2, 159572, Note_on_c, 0, 97, 0
2, 159640, Note_on_c, 0, 99, 60
2, 159684, Note_on_c, 0, 99, 0
2, 159726, Note_on_c, 0, 98, 94
2, 159762, Control_c, 0, 64, 0
2, 159772, Note_on_c, 0, 98, 0
2, 159828, Note_on_c, 0, 100, 60
2, 159874, Note_on_c, 0, 100, 0
2, 159906, Note_on_c, 0, 98, 89
2, 159958, Note_on_c, 0, 98, 0
2, 159976, Control_c, 0, 64, 127
2, 159986, Note_on_c, 0, 99, 64
2, 160036, Note_on_c, 0, 99, 0
2, 160064, Note_on_c, 0, 98, 90
2, 160132, Note_on_c, 0, 98, 0
2, 160154, Note_on_c, 0, 100, 70
2, 160194, Note_on_c, 0, 100, 0
2, 160222, Note_on_c, 0, 98, 82
2, 160286, Note_on_c, 0, 98, 0
2, 160314, Note_on_c, 0, 99, 77
2, 160364, Note_on_c, 0, 99, 0
2, 160392, Note_on_c, 0, 98, 90
2, 160452, Note_on_c, 0, 98, 0
2, 160484, Note_on_c, 0, 100, 83
2, 160520, Note_on_c, 0, 100, 0
2, 160562, Note_on_c, 0, 98, 95
2, 160636, Note_on_c, 0, 98, 0
2, 160650, Note_on_c, 0, 99, 95
2, 160712, Note_on_c, 0, 99, 0
2, 160734, Note_on_c, 0, 98, 97
2, 160814, Note_on_c, 0, 98, 0
2, 160828, Note_on_c, 0, 100, 89
2, 160864, Note_on_c, 0, 100, 0
2, 160900, Note_on_c, 0, 98, 95
2, 160974, Note_on_c, 0, 98, 0
2, 160986, Note_on_c, 0, 99, 87
2, 161038, Note_on_c, 0, 99, 0
2, 161064, Note_on_c, 0, 98, 97
2, 161148, Note_on_c, 0, 98, 0
2, 161168, Note_on_c, 0, 100, 86
2, 161206, Note_on_c, 0, 100, 0
2, 161246, Note_on_c, 0, 98, 93
2, 161312, Note_on_c, 0, 98, 0
2, 161352, Note_on_c, 0, 99, 79
2, 161390, Note_on_c, 0, 99, 0
2, 161440, Note_on_c, 0, 98, 102
2, 161512, Note_on_c, 0, 98, 0
2, 161552, Note_on_c, 0, 100, 81
2, 161592, Note_on_c, 0, 100, 0
2, 161654, Note_on_c, 0, 98, 101
2, 161734, Note_on_c, 0, 98, 0
2, 161790, Note_on_c, 0, 99, 92
2, 161912, Control_c, 0, 64, 0
2, 161950, Note_on_c, 0, 100, 80
2, 161962, Note_on_c, 0, 99, 0
2, 162058, Note_on_c, 0, 99, 74
2, 162084, Note_on_c, 0, 100, 0
2, 162172, Note_on_c, 0, 100, 64
2, 162175, Note_on_c, 0, 99, 0
2, 162220, Control_c, 0, 64, 127
2, 162284, Note_on_c, 0, 99, 69
2, 162288, Note_on_c, 0, 100, 0
2, 162356, Note_on_c, 0, 99, 0
2, 162362, Note_on_c, 0, 100, 69
2, 162448, Note_on_c, 0, 100, 0
2, 162466, Note_on_c, 0, 99, 65
2, 162514, Note_on_c, 0, 99, 0
2, 162540, Note_on_c, 0, 100, 56
2, 162598, Note_on_c, 0, 100, 0
2, 162622, Note_on_c, 0, 99, 54
2, 162672, Note_on_c, 0, 99, 0
2, 162710, Note_on_c, 0, 100, 36
2, 162764, Note_on_c, 0, 100, 0
2, 162772, Note_on_c, 0, 99, 43
2, 162832, Note_on_c, 0, 99, 0
2, 162854, Note_on_c, 0, 100, 42
2, 162912, Control_c, 0, 64, 0
2, 162918, Note_on_c, 0, 100, 0
2, 162924, Note_on_c, 0, 99, 70
2, 163036, Note_on_c, 0, 99, 0
2, 163050, Control_c, 0, 64, 127
2, 163062, Note_on_c, 0, 100, 31
2, 163116, Note_on_c, 0, 99, 56
2, 163128, Note_on_c, 0, 100, 0
2, 163184, Note_on_c, 0, 99, 0
2, 163202, Note_on_c, 0, 100, 57
2, 163262, Note_on_c, 0, 100, 0
2, 163302, Note_on_c, 0, 99, 49
2, 163350, Note_on_c, 0, 99, 0
2, 163366, Note_on_c, 0, 100, 48
2, 163424, Note_on_c, 0, 100, 0
2, 163440, Note_on_c, 0, 99, 37
2, 163502, Note_on_c, 0, 99, 0
2, 163524, Note_on_c, 0, 100, 40
2, 163584, Note_on_c, 0, 100, 0
2, 163592, Note_on_c, 0, 99, 43
2, 163654, Note_on_c, 0, 99, 0
2, 163670, Note_on_c, 0, 100, 41
2, 163724, Note_on_c, 0, 100, 0
2, 163736, Note_on_c, 0, 99, 52
2, 163790, Note_on_c, 0, 99, 0
2, 163804, Note_on_c, 0, 100, 49
2, 163874, Note_on_c, 0, 100, 0
2, 163880, Control_c, 0, 64, 0
2, 163900, Note_on_c, 0, 99, 71
2, 163984, Note_on_c, 0, 99, 0
2, 164000, Note_on_c, 0, 100, 43
2, 164040, Control_c, 0, 64, 127
2, 164054, Note_on_c, 0, 100, 0
2, 164062, Note_on_c, 0, 99, 57
2, 164132, Note_on_c, 0, 99, 0
2, 164144, Note_on_c, 0, 100, 48
2, 164204, Note_on_c, 0, 100, 0
2, 164220, Note_on_c, 0, 99, 49
2, 164284, Note_on_c, 0, 99, 0
2, 164298, Note_on_c, 0, 100, 41
2, 164352, Note_on_c, 0, 100, 0
2, 164372, Note_on_c, 0, 99, 59
2, 164464, Note_on_c, 0, 100, 40
2, 164474, Note_on_c, 0, 99, 0
2, 164520, Note_on_c, 0, 100, 0
2, 164540, Note_on_c, 0, 75, 46
2, 164552, Note_on_c, 0, 99, 54
2, 164594, Note_on_c, 0, 75, 0
2, 164620, Note_on_c, 0, 100, 39
2, 164630, Note_on_c, 0, 99, 0
2, 164690, Note_on_c, 0, 100, 0
2, 164716, Note_on_c, 0, 99, 55
2, 164808, Note_on_c, 0, 99, 0
2, 164814, Note_on_c, 0, 100, 37
2, 164878, Note_on_c, 0, 100, 0
2, 164910, Note_on_c, 0, 99, 47
2, 164922, Note_on_c, 0, 87, 63
2, 164940, Control_c, 0, 64, 0
2, 165000, Note_on_c, 0, 100, 37
2, 165016, Note_on_c, 0, 99, 0
2, 165054, Note_on_c, 0, 87, 0
2, 165056, Note_on_c, 0, 100, 0
2, 165088, Note_on_c, 0, 99, 70
2, 165158, Note_on_c, 0, 99, 0
2, 165180, Note_on_c, 0, 100, 39
2, 165238, Note_on_c, 0, 100, 0
2, 165238, Note_on_c, 0, 99, 65
2, 165264, Note_on_c, 0, 87, 78
2, 165324, Note_on_c, 0, 100, 57
2, 165352, Note_on_c, 0, 87, 0
2, 165356, Note_on_c, 0, 99, 0
2, 165404, Note_on_c, 0, 100, 0
2, 165422, Note_on_c, 0, 99, 77
2, 165470, Note_on_c, 0, 99, 0
2, 165492, Note_on_c, 0, 100, 48
2, 165538, Control_c, 0, 64, 127
2, 165568, Note_on_c, 0, 100, 0
2, 165574, Note_on_c, 0, 99, 71
2, 165577, Note_on_c, 0, 85, 80
2, 165616, Note_on_c, 0, 85, 0
2, 165660, Note_on_c, 0, 100, 62
2, 165692, Note_on_c, 0, 99, 0
2, 165752, Note_on_c, 0, 100, 0
2, 165764, Note_on_c, 0, 99, 70
2, 165792, Note_on_c, 0, 68, 57
2, 165810, Note_on_c, 0, 99, 0
2, 165832, Note_on_c, 0, 100, 56
2, 165838, Note_on_c, 0, 68, 0
2, 165882, Note_on_c, 0, 100, 0
2, 165900, Note_on_c, 0, 99, 57
2, 165908, Note_on_c, 0, 83, 111
2, 165910, Note_on_c, 0, 87, 66
2, 165952, Note_on_c, 0, 87, 0
2, 165978, Note_on_c, 0, 83, 0
2, 165984, Note_on_c, 0, 100, 51
2, 166034, Note_on_c, 0, 100, 0
2, 166062, Control_c, 0, 64, 0
2, 166154, Note_on_c, 0, 100, 42
2, 166168, Note_on_c, 0, 99, 0
2, 166204, Note_on_c, 0, 100, 0
2, 166218, Note_on_c, 0, 87, 71
2, 166240, Note_on_c, 0, 99, 70
2, 166250, Note_on_c, 0, 83, 102
2, 166258, Note_on_c, 0, 87, 0
2, 166302, Note_on_c, 0, 99, 0
2, 166306, Note_on_c, 0, 83, 0
2, 166314, Note_on_c, 0, 100, 37
2, 166364, Note_on_c, 0, 100, 0
2, 166374, Note_on_c, 0, 99, 79
2, 166452, Note_on_c, 0, 100, 42
2, 166486, Note_on_c, 0, 99, 0
2, 166491, Control_c, 0, 64, 127
2, 166538, Note_on_c, 0, 100, 0
2, 166548, Note_on_c, 0, 87, 48
2, 166572, Note_on_c, 0, 99, 51
2, 166572, Note_on_c, 0, 82, 64
2, 166600, Note_on_c, 0, 87, 0
2, 166624, Note_on_c, 0, 99, 0
2, 166624, Note_on_c, 0, 100, 57
2, 166638, Note_on_c, 0, 82, 0
2, 166678, Note_on_c, 0, 100, 0
2, 166698, Note_on_c, 0, 99, 64
2, 166706, Control_c, 0, 64, 0
2, 166796, Note_on_c, 0, 100, 54
2, 166820, Note_on_c, 0, 99, 0
2, 166878, Note_on_c, 0, 80, 55
2, 166886, Note_on_c, 0, 99, 81
2, 166890, Note_on_c, 0, 100, 0
2, 166904, Note_on_c, 0, 87, 37
2, 166914, Note_on_c, 0, 71, 37
2, 166932, Note_on_c, 0, 99, 0
2, 166938, Note_on_c, 0, 80, 0
2, 166968, Note_on_c, 0, 87, 0
2, 166980, Note_on_c, 0, 100, 59
2, 166982, Note_on_c, 0, 71, 0
2, 166984, Control_c, 0, 64, 127
2, 167028, Note_on_c, 0, 100, 0
2, 167044, Note_on_c, 0, 99, 67
2, 167122, Note_on_c, 0, 100, 52
2, 167130, Note_on_c, 0, 99, 0
2, 167182, Note_on_c, 0, 100, 0
2, 167198, Control_c, 0, 64, 0
2, 167208, Note_on_c, 0, 99, 72
2, 167214, Note_on_c, 0, 87, 49
2, 167232, Note_on_c, 0, 79, 63
2, 167266, Note_on_c, 0, 87, 0
2, 167294, Note_on_c, 0, 99, 0
2, 167302, Note_on_c, 0, 79, 0
2, 167304, Note_on_c, 0, 100, 62
2, 167354, Note_on_c, 0, 100, 0
2, 167372, Note_on_c, 0, 99, 78
2, 167454, Note_on_c, 0, 100, 51
2, 167484, Note_on_c, 0, 99, 0
2, 167536, Note_on_c, 0, 100, 0
2, 167536, Note_on_c, 0, 80, 64
2, 167548, Note_on_c, 0, 87, 43
2, 167570, Note_on_c, 0, 99, 58
2, 167602, Note_on_c, 0, 87, 0
2, 167605, Note_on_c, 0, 80, 0
2, 167626, Note_on_c, 0, 99, 0
2, 167626, Note_on_c, 0, 100, 59
2, 167680, Note_on_c, 0, 100, 0
2, 167702, Note_on_c, 0, 99, 75
2, 167782, Note_on_c, 0, 100, 40
2, 167798, Note_on_c, 0, 99, 0
2, 167846, Note_on_c, 0, 82, 63
2, 167858, Note_on_c, 0, 87, 52
2, 167858, Control_c, 0, 64, 127
2, 167861, Note_on_c, 0, 100, 0
2, 167874, Note_on_c, 0, 79, 52
2, 167874, Note_on_c, 0, 99, 69
2, 167904, Note_on_c, 0, 87, 0
2, 167922, Note_on_c, 0, 82, 0
2, 167936, Note_on_c, 0, 100, 63
2, 167938, Note_on_c, 0, 99, 0
2, 167952, Note_on_c, 0, 79, 0
2, 168004, Note_on_c, 0, 100, 0
2, 168022, Note_on_c, 0, 99, 75
2, 168086, Note_on_c, 0, 100, 50
2, 168090, Note_on_c, 0, 99, 0
2, 168156, Note_on_c, 0, 100, 0
2, 168174, Note_on_c, 0, 99, 71
2, 168176, Note_on_c, 0, 87, 56
2, 168194, Note_on_c, 0, 75, 37
2, 168226, Note_on_c, 0, 87, 0
2, 168254, Note_on_c, 0, 75, 0
2, 168284, Note_on_c, 0, 100, 62
2, 168310, Note_on_c, 0, 99, 0
2, 168334, Note_on_c, 0, 100, 0
2, 168350, Note_on_c, 0, 99, 44
2, 168366, Control_c, 0, 64, 0
2, 168434, Note_on_c, 0, 100, 50
2, 168472, Note_on_c, 0, 99, 0
2, 168520, Note_on_c, 0, 100, 0
2, 168520, Note_on_c, 0, 87, 51
2, 168534, Note_on_c, 0, 75, 55
2, 168542, Note_on_c, 0, 99, 56
2, 168572, Note_on_c, 0, 87, 0
2, 168600, Note_on_c, 0, 75, 0
2, 168610, Note_on_c, 0, 99, 0
2, 168620, Note_on_c, 0, 100, 56
2, 168670, Note_on_c, 0, 100, 0
2, 168684, Note_on_c, 0, 99, 63
2, 168748, Note_on_c, 0, 100, 52
2, 168760, Note_on_c, 0, 99, 0
2, 168828, Note_on_c, 0, 100, 0
2, 168836, Note_on_c, 0, 87, 49
2, 168841, Note_on_c, 0, 99, 66
2, 168854, Note_on_c, 0, 76, 63
2, 168862, Note_on_c, 0, 70, 46
2, 168888, Control_c, 0, 64, 127
2, 168890, Note_on_c, 0, 87, 0
2, 168896, Note_on_c, 0, 67, 27
2, 168912, Note_on_c, 0, 76, 0
2, 168916, Note_on_c, 0, 100, 62
2, 168950, Note_on_c, 0, 70, 0
2, 168952, Note_on_c, 0, 99, 0
2, 168982, Note_on_c, 0, 67, 0
2, 168984, Note_on_c, 0, 100, 0
2, 169014, Note_on_c, 0, 99, 55
2, 169076, Note_on_c, 0, 100, 55
2, 169086, Note_on_c, 0, 99, 0
2, 169162, Note_on_c, 0, 100, 0
2, 169162, Note_on_c, 0, 99, 69
2, 169174, Note_on_c, 0, 87, 43
2, 169174, Note_on_c, 0, 75, 65
2, 169226, Note_on_c, 0, 87, 0
2, 169226, Control_c, 0, 64, 0
2, 169238, Note_on_c, 0, 75, 0
2, 169256, Note_on_c, 0, 100, 63
2, 169312, Note_on_c, 0, 100, 0
2, 169412, Note_on_c, 0, 100, 57
2, 169446, Note_on_c, 0, 99, 0
2, 169478, Note_on_c, 0, 87, 63
2, 169488, Note_on_c, 0, 100, 0
2, 169490, Note_on_c, 0, 73, 55
2, 169520, Note_on_c, 0, 99, 48
2, 169522, Note_on_c, 0, 87, 0
2, 169552, Note_on_c, 0, 73, 0
2, 169578, Note_on_c, 0, 99, 0
2, 169578, Note_on_c, 0, 100, 52
2, 169628, Note_on_c, 0, 100, 0
2, 169646, Note_on_c, 0, 99, 82
2, 169730, Note_on_c, 0, 100, 33
2, 169770, Note_on_c, 0, 99, 0
2, 169790, Note_on_c, 0, 87, 65
2, 169793, Note_on_c, 0, 100, 0
2, 169800, Note_on_c, 0, 71, 67
2, 169810, Control_c, 0, 64, 127
2, 169816, Note_on_c, 0, 68, 49
2, 169819, Note_on_c, 0, 99, 43
2, 169838, Note_on_c, 0, 87, 0
2, 169862, Note_on_c, 0, 71, 0
2, 169880, Note_on_c, 0, 68, 0
2, 169894, Note_on_c, 0, 100, 49
2, 169912, Note_on_c, 0, 99, 0
2, 169932, Control_c, 0, 64, 0
2, 169944, Note_on_c, 0, 100, 0
2, 169968, Note_on_c, 0, 99, 67
2, 170048, Note_on_c, 0, 100, 34
2, 170096, Note_on_c, 0, 99, 0
2, 170112, Note_on_c, 0, 87, 65
2, 170115, Note_on_c, 0, 100, 0
2, 170115, Note_on_c, 0, 71, 70
2, 170126, Note_on_c, 0, 68, 47
2, 170136, Note_on_c, 0, 99, 21
2, 170148, Control_c, 0, 64, 127
2, 170156, Note_on_c, 0, 87, 0
2, 170174, Note_on_c, 0, 71, 0
2, 170186, Note_on_c, 0, 68, 0
2, 170204, Note_on_c, 0, 100, 58
2, 170222, Note_on_c, 0, 99, 0
2, 170256, Note_on_c, 0, 100, 0
2, 170256, Control_c, 0, 64, 0
2, 170276, Note_on_c, 0, 99, 59
2, 170360, Note_on_c, 0, 100, 44
2, 170396, Note_on_c, 0, 99, 0
2, 170426, Note_on_c, 0, 100, 0
2, 170426, Note_on_c, 0, 70, 52
2, 170426, Note_on_c, 0, 87, 65
2, 170440, Note_on_c, 0, 66, 37
2, 170448, Note_on_c, 0, 99, 44
2, 170470, Note_on_c, 0, 87, 0
2, 170488, Note_on_c, 0, 70, 0
2, 170500, Control_c, 0, 64, 127
2, 170514, Note_on_c, 0, 66, 0
2, 170540, Note_on_c, 0, 99, 0
2, 170540, Note_on_c, 0, 100, 34
2, 170592, Note_on_c, 0, 99, 71
2, 170595, Note_on_c, 0, 100, 0
2, 170654, Control_c, 0, 64, 0
2, 170666, Note_on_c, 0, 100, 67
2, 170716, Note_on_c, 0, 99, 0
2, 170760, Note_on_c, 0, 87, 73
2, 170768, Note_on_c, 0, 100, 0
2, 170768, Note_on_c, 0, 99, 71
2, 170774, Note_on_c, 0, 68, 55
2, 170802, Note_on_c, 0, 87, 0
2, 170824, Note_on_c, 0, 64, 25
2, 170846, Note_on_c, 0, 68, 0
2, 170856, Note_on_c, 0, 100, 52
2, 170886, Control_c, 0, 64, 127
2, 170896, Note_on_c, 0, 64, 0
2, 170912, Note_on_c, 0, 100, 0
2, 171002, Note_on_c, 0, 100, 47
2, 171024, Note_on_c, 0, 99, 0
2, 171040, Control_c, 0, 64, 0
2, 171062, Note_on_c, 0, 87, 74
2, 171076, Note_on_c, 0, 100, 0
2, 171092, Note_on_c, 0, 99, 75
2, 171106, Note_on_c, 0, 87, 0
2, 171118, Note_on_c, 0, 67, 31
2, 171182, Note_on_c, 0, 100, 49
2, 171190, Note_on_c, 0, 99, 0
2, 171210, Note_on_c, 0, 67, 0
2, 171224, Control_c, 0, 64, 127
2, 171232, Note_on_c, 0, 100, 0
2, 171248, Note_on_c, 0, 99, 56
2, 171316, Note_on_c, 0, 100, 47
2, 171330, Control_c, 0, 64, 0
2, 171364, Note_on_c, 0, 99, 0
2, 171412, Note_on_c, 0, 100, 0
2, 171412, Note_on_c, 0, 87, 59
2, 171432, Note_on_c, 0, 68, 40
2, 171444, Note_on_c, 0, 99, 52
2, 171458, Note_on_c, 0, 87, 0
2, 171496, Note_on_c, 0, 100, 59
2, 171502, Note_on_c, 0, 99, 0
2, 171508, Note_on_c, 0, 68, 0
2, 171546, Control_c, 0, 64, 127
2, 171554, Note_on_c, 0, 100, 0
2, 171574, Note_on_c, 0, 99, 67
2, 171638, Control_c, 0, 64, 0
2, 171656, Note_on_c, 0, 100, 57
2, 171700, Note_on_c, 0, 99, 0
2, 171744, Note_on_c, 0, 70, 35
2, 171754, Note_on_c, 0, 87, 56
2, 171754, Note_on_c, 0, 67, 26
2, 171768, Note_on_c, 0, 100, 0
2, 171776, Note_on_c, 0, 99, 64
2, 171800, Note_on_c, 0, 87, 0
2, 171844, Note_on_c, 0, 67, 0
2, 171847, Note_on_c, 0, 100, 55
2, 171860, Note_on_c, 0, 99, 0
2, 171884, Control_c, 0, 64, 127
2, 171910, Note_on_c, 0, 100, 0
2, 171936, Note_on_c, 0, 99, 57
2, 171990, Note_on_c, 0, 70, 0
2, 172008, Note_on_c, 0, 100, 44
2, 172012, Note_on_c, 0, 99, 0
2, 172110, Note_on_c, 0, 100, 0
2, 172120, Note_on_c, 0, 99, 46
2, 172136, Note_on_c, 0, 87, 20
2, 172158, Note_on_c, 0, 63, 42
2, 172200, Note_on_c, 0, 87, 0
2, 172210, Note_on_c, 0, 100, 42
2, 172220, Note_on_c, 0, 63, 0
2, 172236, Note_on_c, 0, 99, 0
2, 172264, Note_on_c, 0, 100, 0
2, 172294, Note_on_c, 0, 99, 40
2, 172384, Note_on_c, 0, 100, 44
2, 172392, Note_on_c, 0, 99, 0
2, 172452, Note_on_c, 0, 100, 0
2, 172468, Note_on_c, 0, 99, 65
2, 172486, Note_on_c, 0, 87, 37
2, 172548, Note_on_c, 0, 87, 0
2, 172551, Note_on_c, 0, 99, 0
2, 172574, Note_on_c, 0, 100, 55
2, 172626, Note_on_c, 0, 100, 0
2, 172646, Note_on_c, 0, 99, 67
2, 172712, Note_on_c, 0, 63, 41
2, 172728, Control_c, 0, 64, 0
2, 172743, Note_on_c, 0, 100, 48
2, 172748, Note_on_c, 0, 99, 0
2, 172800, Note_on_c, 0, 63, 0
2, 172830, Note_on_c, 0, 100, 0
2, 172848, Note_on_c, 0, 87, 50
2, 172850, Note_on_c, 0, 99, 49
2, 172852, Control_c, 0, 64, 127
2, 172870, Note_on_c, 0, 75, 48
2, 172898, Note_on_c, 0, 87, 0
2, 172952, Note_on_c, 0, 100, 44
2, 172960, Note_on_c, 0, 99, 0
2, 173002, Note_on_c, 0, 100, 0
2, 173005, Note_on_c, 0, 75, 0
2, 173038, Note_on_c, 0, 99, 64
2, 173112, Note_on_c, 0, 100, 35
2, 173115, Note_on_c, 0, 99, 0
2, 173196, Note_on_c, 0, 100, 0
2, 173232, Note_on_c, 0, 87, 41
2, 173232, Note_on_c, 0, 99, 49
2, 173240, Note_on_c, 0, 75, 65
2, 173290, Note_on_c, 0, 87, 0
2, 173298, Note_on_c, 0, 75, 0
2, 173320, Note_on_c, 0, 100, 70
2, 173322, Note_on_c, 0, 99, 0
2, 173410, Note_on_c, 0, 99, 62
2, 173494, Note_on_c, 0, 99, 0
2, 173550, Note_on_c, 0, 100, 0
2, 173568, Note_on_c, 0, 87, 42
2, 173588, Note_on_c, 0, 73, 55
2, 173626, Note_on_c, 0, 99, 56
2, 173630, Note_on_c, 0, 87, 0
2, 173634, Note_on_c, 0, 73, 0
2, 173686, Note_on_c, 0, 99, 0
2, 173686, Note_on_c, 0, 100, 65
2, 173786, Note_on_c, 0, 100, 0
2, 173786, Note_on_c, 0, 99, 51
2, 173882, Control_c, 0, 64, 0
2, 173888, Note_on_c, 0, 56, 41
2, 173934, Note_on_c, 0, 100, 75
2, 173948, Note_on_c, 0, 99, 0
2, 173954, Note_on_c, 0, 56, 0
2, 174004, Control_c, 0, 64, 127
2, 174012, Note_on_c, 0, 71, 67
2, 174032, Note_on_c, 0, 99, 57
2, 174064, Note_on_c, 0, 100, 0
2, 174122, Note_on_c, 0, 71, 0
2, 174124, Note_on_c, 0, 87, 58
2, 174152, Note_on_c, 0, 99, 0
2, 174182, Note_on_c, 0, 87, 0
2, 174288, Note_on_c, 0, 87, 50
2, 174320, Note_on_c, 0, 71, 70
2, 174371, Note_on_c, 0, 87, 0
2, 174371, Note_on_c, 0, 88, 65
2, 174378, Note_on_c, 0, 71, 0
2, 174446, Note_on_c, 0, 87, 52
2, 174456, Note_on_c, 0, 88, 0
2, 174520, Note_on_c, 0, 87, 0
2, 174534, Note_on_c, 0, 75, 64
2, 174582, Note_on_c, 0, 75, 0
2, 174626, Note_on_c, 0, 70, 62
2, 174638, Note_on_c, 0, 87, 50
2, 174698, Note_on_c, 0, 88, 56
2, 174734, Note_on_c, 0, 70, 0
2, 174746, Note_on_c, 0, 88, 0
2, 174750, Note_on_c, 0, 87, 0
2, 174798, Note_on_c, 0, 87, 80
2, 174880, Control_c, 0, 64, 0
2, 174902, Note_on_c, 0, 87, 0
2, 174910, Note_on_c, 0, 99, 67
2, 174920, Note_on_c, 0, 68, 50
2, 174940, Note_on_c, 0, 59, 47
2, 174958, Note_on_c, 0, 99, 0
2, 174961, Note_on_c, 0, 100, 75
2, 175018, Note_on_c, 0, 59, 0
2, 175034, Control_c, 0, 64, 127
2, 175046, Note_on_c, 0, 99, 57
2, 175072, Note_on_c, 0, 68, 0
2, 175086, Note_on_c, 0, 100, 0
2, 175100, Note_on_c, 0, 99, 0
2, 175120, Note_on_c, 0, 87, 55
2, 175166, Note_on_c, 0, 87, 0
2, 175258, Note_on_c, 0, 67, 63
2, 175350, Note_on_c, 0, 88, 36
2, 175382, Note_on_c, 0, 67, 0
2, 175418, Note_on_c, 0, 87, 59
2, 175438, Note_on_c, 0, 88, 0
2, 175496, Note_on_c, 0, 87, 0
2, 175530, Note_on_c, 0, 75, 47
2, 175588, Note_on_c, 0, 75, 0
2, 175588, Note_on_c, 0, 68, 55
2, 175626, Note_on_c, 0, 87, 59
2, 175678, Note_on_c, 0, 68, 0
2, 175686, Note_on_c, 0, 88, 42
2, 175730, Note_on_c, 0, 87, 0
2, 175744, Note_on_c, 0, 88, 0
2, 175780, Note_on_c, 0, 87, 80
2, 175892, Note_on_c, 0, 87, 0
2, 175894, Control_c, 0, 64, 0
2, 175902, Note_on_c, 0, 70, 47
2, 175907, Note_on_c, 0, 99, 74
2, 175944, Note_on_c, 0, 67, 37
2, 175964, Note_on_c, 0, 99, 0
2, 175972, Note_on_c, 0, 100, 65
2, 176056, Note_on_c, 0, 67, 0
2, 176064, Note_on_c, 0, 99, 65
2, 176064, Control_c, 0, 64, 127
2, 176096, Note_on_c, 0, 100, 0
2, 176116, Note_on_c, 0, 99, 0
2, 176128, Note_on_c, 0, 70, 0
2, 176132, Note_on_c, 0, 87, 59
2, 176182, Note_on_c, 0, 87, 0
2, 176302, Note_on_c, 0, 63, 41
2, 176354, Note_on_c, 0, 63, 0
2, 176374, Note_on_c, 0, 88, 52
2, 176454, Note_on_c, 0, 88, 0
2, 176457, Note_on_c, 0, 87, 55
2, 176510, Note_on_c, 0, 87, 0
2, 176566, Note_on_c, 0, 75, 44
2, 176622, Note_on_c, 0, 75, 0
2, 176640, Note_on_c, 0, 63, 50
2, 176664, Note_on_c, 0, 87, 51
2, 176694, Note_on_c, 0, 63, 0
2, 176750, Note_on_c, 0, 88, 33
2, 176782, Note_on_c, 0, 87, 0
2, 176826, Note_on_c, 0, 88, 0
2, 176842, Note_on_c, 0, 87, 64
2, 176940, Control_c, 0, 64, 0
2, 176956, Note_on_c, 0, 87, 0
2, 176958, Note_on_c, 0, 68, 50
2, 176972, Note_on_c, 0, 99, 60
2, 176986, Note_on_c, 0, 59, 41
2, 177026, Note_on_c, 0, 99, 0
2, 177040, Note_on_c, 0, 100, 56
2, 177098, Note_on_c, 0, 68, 0
2, 177122, Note_on_c, 0, 100, 0
2, 177122, Control_c, 0, 64, 127
2, 177125, Note_on_c, 0, 99, 54
2, 177152, Note_on_c, 0, 59, 0
2, 177188, Note_on_c, 0, 99, 0
2, 177202, Note_on_c, 0, 87, 54
2, 177252, Note_on_c, 0, 87, 0
2, 177328, Note_on_c, 0, 66, 47
2, 177362, Note_on_c, 0, 60, 32
2, 177362, Note_on_c, 0, 87, 26
2, 177384, Control_c, 0, 64, 0
2, 177420, Note_on_c, 0, 87, 0
2, 177420, Note_on_c, 0, 88, 62
2, 177460, Note_on_c, 0, 66, 0
2, 177460, Control_c, 0, 64, 127
2, 177472, Note_on_c, 0, 88, 0
2, 177488, Note_on_c, 0, 60, 0
2, 177498, Note_on_c, 0, 87, 41
2, 177610, Note_on_c, 0, 87, 0
2, 177614, Note_on_c, 0, 75, 51
2, 177646, Control_c, 0, 64, 0
2, 177666, Note_on_c, 0, 75, 0
2, 177680, Note_on_c, 0, 61, 44
2, 177694, Note_on_c, 0, 64, 43
2, 177710, Note_on_c, 0, 87, 35
2, 177790, Note_on_c, 0, 64, 0
2, 177800, Control_c, 0, 64, 127
2, 177828, Note_on_c, 0, 61, 0
2, 177830, Note_on_c, 0, 88, 31
2, 177870, Note_on_c, 0, 87, 0
2, 177906, Note_on_c, 0, 88, 0
2, 177932, Note_on_c, 0, 87, 67
2, 177952, Control_c, 0, 64, 0
2, 177996, Note_on_c, 0, 87, 0
2, 178032, Note_on_c, 0, 63, 54
2, 178062, Note_on_c, 0, 99, 63
2, 178088, Note_on_c, 0, 63, 0
2, 178134, Note_on_c, 0, 99, 0
2, 178138, Control_c, 0, 64, 127
2, 178148, Note_on_c, 0, 100, 58
2, 178242, Note_on_c, 0, 99, 54
2, 178268, Note_on_c, 0, 100, 0
2, 178336, Note_on_c, 0, 87, 47
2, 178356, Note_on_c, 0, 99, 0
2, 178400, Note_on_c, 0, 87, 0
2, 178468, Note_on_c, 0, 80, 34
2, 178472, Note_on_c, 0, 71, 51
2, 178530, Note_on_c, 0, 80, 0
2, 178612, Note_on_c, 0, 83, 78
2, 178614, Note_on_c, 0, 71, 0
2, 178618, Note_on_c, 0, 75, 48
2, 178666, Note_on_c, 0, 83, 0
2, 178748, Note_on_c, 0, 75, 0
2, 178794, Note_on_c, 0, 87, 69
2, 178797, Note_on_c, 0, 80, 57
2, 178846, Note_on_c, 0, 80, 0
2, 178850, Note_on_c, 0, 87, 0
2, 179074, Control_c, 0, 64, 0
2, 179154, Note_on_c, 0, 63, 36
2, 179166, Note_on_c, 0, 99, 59
2, 179216, Note_on_c, 0, 99, 0
2, 179218, Note_on_c, 0, 63, 0
2, 179238, Note_on_c, 0, 100, 48
2, 179244, Control_c, 0, 64, 127
2, 179302, Note_on_c, 0, 100, 0
2, 179338, Note_on_c, 0, 99, 34
2, 179418, Note_on_c, 0, 99, 0
2, 179422, Note_on_c, 0, 87, 34
2, 179486, Note_on_c, 0, 87, 0
2, 179552, Note_on_c, 0, 70, 24
2, 179562, Note_on_c, 0, 79, 24
2, 179650, Note_on_c, 0, 79, 0
2, 179716, Note_on_c, 0, 82, 48
2, 179754, Note_on_c, 0, 73, 29
2, 179766, Note_on_c, 0, 70, 0
2, 179786, Note_on_c, 0, 82, 0
2, 179828, Note_on_c, 0, 73, 0
2, 179948, Note_on_c, 0, 87, 43
2, 179964, Note_on_c, 0, 79, 35
2, 180044, Note_on_c, 0, 79, 0
2, 180120, Note_on_c, 0, 87, 0
2, 180366, Control_c, 0, 64, 0
2, 180372, Note_on_c, 0, 56, 24
2, 180566, Control_c, 0, 64, 127
2, 180702, Note_on_c, 0, 63, 26
2, 180710, Note_on_c, 0, 56, 0
2, 180792, Note_on_c, 0, 71, 39
2, 180934, Note_on_c, 0, 80, 43
2, 181232, Note_on_c, 0, 63, 0
2, 181262, Note_on_c, 0, 71, 0
2, 181354, Note_on_c, 0, 80, 0
2, 181492, Note_on_c, 0, 75, 48
2, 181568, Note_on_c, 0, 75, 0
2, 181608, Note_on_c, 0, 87, 39
2, 181696, Note_on_c, 0, 87, 0
2, 181713, Note_on_c, 0, 88, 43
2, 181810, Note_on_c, 0, 87, 57
2, 181822, Note_on_c, 0, 88, 0
2, 181854, Note_on_c, 0, 87, 0
2, 181948, Control_c, 0, 64, 0
2, 181954, Note_on_c, 0, 87, 49
2, 182080, Note_on_c, 0, 87, 0
2, 182084, Note_on_c, 0, 99, 59
2, 182148, Control_c, 0, 64, 127
2, 182160, Note_on_c, 0, 99, 0
2, 182194, Note_on_c, 0, 100, 51
2, 182264, Note_on_c, 0, 100, 0
2, 182288, Note_on_c, 0, 99, 51
2, 182340, Note_on_c, 0, 99, 0
2, 182372, Note_on_c, 0, 87, 69
2, 182432, Note_on_c, 0, 87, 0
2, 182506, Note_on_c, 0, 99, 65
2, 182558, Note_on_c, 0, 99, 0
2, 182564, Note_on_c, 0, 100, 71
2, 182646, Note_on_c, 0, 99, 65
2, 182652, Note_on_c, 0, 100, 0
2, 182724, Note_on_c, 0, 99, 0
2, 182778, Note_on_c, 0, 85, 78
2, 182868, Note_on_c, 0, 97, 48
2, 182872, Note_on_c, 0, 85, 0
2, 182968, Note_on_c, 0, 99, 78
2, 182994, Note_on_c, 0, 97, 0
2, 183058, Note_on_c, 0, 97, 65
2, 183080, Note_on_c, 0, 99, 0
2, 183140, Note_on_c, 0, 97, 0
2, 183200, Note_on_c, 0, 44, 37
2, 183202, Note_on_c, 0, 32, 29
2, 183264, Note_on_c, 0, 32, 0
2, 183306, Note_on_c, 0, 44, 0
2, 183352, Note_on_c, 0, 95, 60
2, 183474, Note_on_c, 0, 95, 0
2, 183474, Note_on_c, 0, 97, 57
2, 183570, Note_on_c, 0, 95, 41
2, 183600, Note_on_c, 0, 97, 0
2, 183660, Note_on_c, 0, 95, 0
2, 183700, Note_on_c, 0, 63, 41
2, 183710, Note_on_c, 0, 83, 89
2, 183742, Note_on_c, 0, 51, 18
2, 183752, Note_on_c, 0, 83, 0
2, 183768, Note_on_c, 0, 63, 0
2, 183768, Note_on_c, 0, 59, 6
2, 183812, Note_on_c, 0, 95, 65
2, 183834, Note_on_c, 0, 59, 0
2, 183842, Note_on_c, 0, 51, 0
2, 183894, Note_on_c, 0, 95, 0
2, 183920, Note_on_c, 0, 97, 55
2, 183988, Note_on_c, 0, 95, 36
2, 184028, Note_on_c, 0, 97, 0
2, 184084, Note_on_c, 0, 95, 0
2, 184090, Note_on_c, 0, 63, 49
2, 184100, Note_on_c, 0, 59, 49
2, 184114, Note_on_c, 0, 56, 44
2, 184117, Note_on_c, 0, 82, 55
2, 184140, Note_on_c, 0, 63, 0
2, 184152, Note_on_c, 0, 59, 0
2, 184168, Note_on_c, 0, 56, 0
2, 184171, Note_on_c, 0, 82, 0
2, 184192, Note_on_c, 0, 94, 62
2, 184296, Note_on_c, 0, 95, 64
2, 184306, Note_on_c, 0, 94, 0
2, 184364, Note_on_c, 0, 94, 71
2, 184392, Note_on_c, 0, 95, 0
2, 184474, Note_on_c, 0, 94, 0
2, 184506, Note_on_c, 0, 80, 64
2, 184514, Control_c, 0, 64, 0
2, 184518, Note_on_c, 0, 35, 60
2, 184518, Note_on_c, 0, 47, 44
2, 184562, Note_on_c, 0, 80, 0
2, 184566, Note_on_c, 0, 35, 0
2, 184580, Note_on_c, 0, 92, 63
2, 184582, Note_on_c, 0, 47, 0
2, 184638, Control_c, 0, 64, 127
2, 184668, Note_on_c, 0, 94, 62
2, 184686, Note_on_c, 0, 92, 0
2, 184754, Note_on_c, 0, 92, 65
2, 184798, Note_on_c, 0, 94, 0
2, 184868, Note_on_c, 0, 63, 43
2, 184870, Note_on_c, 0, 79, 86
2, 184874, Note_on_c, 0, 51, 47
2, 184878, Note_on_c, 0, 92, 0
2, 184894, Note_on_c, 0, 59, 25
2, 184918, Note_on_c, 0, 79, 0
2, 184932, Note_on_c, 0, 63, 0
2, 184960, Note_on_c, 0, 91, 65
2, 184962, Note_on_c, 0, 59, 0
2, 184970, Note_on_c, 0, 51, 0
2, 185026, Note_on_c, 0, 91, 0
2, 185038, Note_on_c, 0, 92, 47
2, 185124, Note_on_c, 0, 91, 48
2, 185140, Note_on_c, 0, 92, 0
2, 185180, Note_on_c, 0, 91, 0
2, 185192, Note_on_c, 0, 63, 64
2, 185216, Note_on_c, 0, 59, 48
2, 185230, Note_on_c, 0, 56, 37
2, 185238, Note_on_c, 0, 80, 66
2, 185244, Note_on_c, 0, 63, 0
2, 185250, Note_on_c, 0, 82, 43
2, 185266, Note_on_c, 0, 59, 0
2, 185286, Note_on_c, 0, 56, 0
2, 185320, Note_on_c, 0, 92, 56
2, 185322, Note_on_c, 0, 80, 0
2, 185358, Note_on_c, 0, 82, 0
2, 185402, Note_on_c, 0, 94, 59
2, 185414, Note_on_c, 0, 92, 0
2, 185480, Note_on_c, 0, 92, 64
2, 185512, Control_c, 0, 64, 0
2, 185534, Note_on_c, 0, 94, 0
2, 185558, Note_on_c, 0, 39, 59
2, 185574, Note_on_c, 0, 51, 50
2, 185576, Note_on_c, 0, 82, 72
2, 185586, Note_on_c, 0, 92, 0
2, 185624, Note_on_c, 0, 39, 0
2, 185630, Note_on_c, 0, 82, 0
2, 185650, Note_on_c, 0, 51, 0
2, 185682, Control_c, 0, 64, 127
2, 185685, Note_on_c, 0, 94, 55
2, 185766, Note_on_c, 0, 95, 55
2, 185786, Note_on_c, 0, 94, 0
2, 185844, Note_on_c, 0, 94, 80
2, 185876, Note_on_c, 0, 95, 0
2, 185894, Note_on_c, 0, 94, 0
2, 185978, Note_on_c, 0, 67, 42
2, 186000, Note_on_c, 0, 55, 29
2, 186006, Note_on_c, 0, 63, 27
2, 186032, Note_on_c, 0, 75, 60
2, 186058, Note_on_c, 0, 67, 0
2, 186074, Note_on_c, 0, 63, 0
2, 186082, Note_on_c, 0, 75, 0
2, 186106, Note_on_c, 0, 87, 52
2, 186134, Note_on_c, 0, 55, 0
2, 186188, Note_on_c, 0, 88, 60
2, 186190, Note_on_c, 0, 87, 0
2, 186246, Note_on_c, 0, 88, 0
2, 186280, Note_on_c, 0, 87, 55
2, 186324, Note_on_c, 0, 67, 47
2, 186332, Note_on_c, 0, 58, 40
2, 186342, Note_on_c, 0, 63, 48
2, 186378, Note_on_c, 0, 75, 66
2, 186384, Note_on_c, 0, 67, 0
2, 186384, Note_on_c, 0, 87, 0
2, 186392, Note_on_c, 0, 63, 0
2, 186408, Note_on_c, 0, 58, 0
2, 186440, Note_on_c, 0, 75, 0
2, 186466, Note_on_c, 0, 87, 48
2, 186546, Note_on_c, 0, 88, 67
2, 186580, Note_on_c, 0, 87, 0
2, 186620, Note_on_c, 0, 88, 0
2, 186634, Control_c, 0, 64, 0
2, 186639, Note_on_c, 0, 87, 79
2, 186686, Note_on_c, 0, 43, 72
2, 186700, Note_on_c, 0, 55, 44
2, 186720, Note_on_c, 0, 87, 0
2, 186722, Note_on_c, 0, 76, 66
2, 186730, Note_on_c, 0, 43, 0
2, 186762, Note_on_c, 0, 55, 0
2, 186764, Note_on_c, 0, 76, 0
2, 186772, Control_c, 0, 64, 127
2, 186800, Note_on_c, 0, 88, 72
2, 186862, Note_on_c, 0, 88, 0
2, 186896, Note_on_c, 0, 90, 54
2, 186946, Note_on_c, 0, 88, 56
2, 186954, Note_on_c, 0, 90, 0
2, 187028, Note_on_c, 0, 70, 46
2, 187050, Note_on_c, 0, 88, 0
2, 187052, Note_on_c, 0, 75, 77
2, 187058, Note_on_c, 0, 61, 33
2, 187082, Note_on_c, 0, 63, 31
2, 187098, Note_on_c, 0, 70, 0
2, 187126, Note_on_c, 0, 61, 0
2, 187132, Note_on_c, 0, 87, 55
2, 187135, Note_on_c, 0, 75, 0
2, 187142, Note_on_c, 0, 63, 0
2, 187218, Note_on_c, 0, 88, 72
2, 187234, Note_on_c, 0, 87, 0
2, 187268, Note_on_c, 0, 88, 0
2, 187296, Note_on_c, 0, 87, 70
2, 187336, Note_on_c, 0, 87, 0
2, 187352, Note_on_c, 0, 70, 55
2, 187374, Note_on_c, 0, 85, 13
2, 187384, Note_on_c, 0, 63, 54
2, 187384, Note_on_c, 0, 73, 80
2, 187396, Note_on_c, 0, 58, 33
2, 187402, Note_on_c, 0, 70, 0
2, 187430, Note_on_c, 0, 63, 0
2, 187456, Note_on_c, 0, 58, 0
2, 187498, Note_on_c, 0, 73, 0
2, 187554, Note_on_c, 0, 87, 66
2, 187562, Note_on_c, 0, 85, 0
2, 187624, Note_on_c, 0, 85, 89
2, 187632, Note_on_c, 0, 87, 0
2, 187664, Control_c, 0, 64, 0
2, 187682, Note_on_c, 0, 85, 0
2, 187712, Note_on_c, 0, 56, 56
2, 187720, Note_on_c, 0, 44, 62
2, 187746, Note_on_c, 0, 71, 73
2, 187792, Note_on_c, 0, 71, 0
2, 187818, Control_c, 0, 64, 127
2, 187826, Note_on_c, 0, 56, 0
2, 187826, Note_on_c, 0, 83, 109
2, 187832, Note_on_c, 0, 44, 0
2, 187884, Note_on_c, 0, 83, 0
2, 187904, Note_on_c, 0, 85, 83
2, 188006, Note_on_c, 0, 83, 78
2, 188032, Note_on_c, 0, 85, 0
2, 188054, Note_on_c, 0, 83, 0
2, 188086, Note_on_c, 0, 71, 75
2, 188089, Note_on_c, 0, 68, 49
2, 188100, Note_on_c, 0, 63, 50
2, 188130, Note_on_c, 0, 71, 0
2, 188158, Note_on_c, 0, 63, 0
2, 188162, Note_on_c, 0, 68, 0
2, 188164, Note_on_c, 0, 83, 95
2, 188236, Note_on_c, 0, 83, 0
2, 188262, Note_on_c, 0, 85, 62
2, 188312, Note_on_c, 0, 83, 92
2, 188338, Note_on_c, 0, 85, 0
2, 188396, Note_on_c, 0, 83, 0
2, 188414, Note_on_c, 0, 63, 70
2, 188424, Note_on_c, 0, 70, 77
2, 188432, Note_on_c, 0, 59, 44
2, 188456, Note_on_c, 0, 63, 0
2, 188482, Note_on_c, 0, 59, 0
2, 188490, Note_on_c, 0, 70, 0
2, 188506, Note_on_c, 0, 82, 49
2, 188592, Note_on_c, 0, 83, 109
2, 188638, Note_on_c, 0, 83, 0
2, 188712, Note_on_c, 0, 82, 0
2, 188740, Control_c, 0, 64, 0
2, 188754, Note_on_c, 0, 68, 77
2, 188766, Note_on_c, 0, 52, 67
2, 188774, Note_on_c, 0, 40, 83
2, 188820, Note_on_c, 0, 80, 2
2, 188850, Note_on_c, 0, 40, 0
2, 188856, Note_on_c, 0, 68, 0
2, 188892, Note_on_c, 0, 52, 0
2, 188892, Control_c, 0, 64, 127
2, 188906, Note_on_c, 0, 82, 65
2, 188940, Note_on_c, 0, 80, 0
2, 189000, Note_on_c, 0, 80, 73
2, 189016, Note_on_c, 0, 82, 0
2, 189048, Note_on_c, 0, 80, 0
2, 189084, Note_on_c, 0, 67, 82
2, 189086, Note_on_c, 0, 59, 42
2, 189088, Note_on_c, 0, 62, 66
2, 189132, Note_on_c, 0, 67, 0
2, 189138, Note_on_c, 0, 62, 0
2, 189158, Note_on_c, 0, 79, 87
2, 189204, Note_on_c, 0, 79, 0
2, 189218, Note_on_c, 0, 59, 0
2, 189238, Note_on_c, 0, 80, 54
2, 189316, Note_on_c, 0, 79, 41
2, 189360, Note_on_c, 0, 80, 0
2, 189376, Note_on_c, 0, 79, 0
2, 189396, Note_on_c, 0, 68, 79
2, 189404, Note_on_c, 0, 58, 56
2, 189404, Note_on_c, 0, 62, 56
2, 189452, Note_on_c, 0, 62, 0
2, 189458, Note_on_c, 0, 58, 0
2, 189458, Note_on_c, 0, 68, 0
2, 189504, Note_on_c, 0, 80, 67
2, 189572, Note_on_c, 0, 80, 0
2, 189586, Note_on_c, 0, 82, 57
2, 189646, Note_on_c, 0, 80, 58
2, 189692, Note_on_c, 0, 82, 0
2, 189692, Control_c, 0, 64, 0
2, 189728, Note_on_c, 0, 70, 59
2, 189752, Note_on_c, 0, 39, 71
2, 189755, Note_on_c, 0, 51, 67
2, 189770, Note_on_c, 0, 80, 0
2, 189806, Note_on_c, 0, 70, 0
2, 189820, Note_on_c, 0, 39, 0
2, 189830, Control_c, 0, 64, 127
2, 189832, Note_on_c, 0, 51, 0
2, 189858, Note_on_c, 0, 82, 46
2, 189960, Note_on_c, 0, 82, 0
2, 189960, Note_on_c, 0, 83, 67
2, 190022, Note_on_c, 0, 82, 79
2, 190050, Note_on_c, 0, 83, 0
2, 190124, Note_on_c, 0, 82, 0
2, 190132, Note_on_c, 0, 63, 77
2, 190154, Note_on_c, 0, 58, 35
2, 190158, Note_on_c, 0, 55, 25
2, 190188, Note_on_c, 0, 63, 0
2, 190216, Note_on_c, 0, 75, 75
2, 190219, Note_on_c, 0, 55, 0
2, 190222, Note_on_c, 0, 58, 0
2, 190294, Note_on_c, 0, 76, 58
2, 190296, Note_on_c, 0, 75, 0
2, 190360, Note_on_c, 0, 75, 86
2, 190374, Note_on_c, 0, 76, 0
2, 190396, Note_on_c, 0, 75, 0
2, 190452, Note_on_c, 0, 75, 80
2, 190466, Note_on_c, 0, 67, 72
2, 190469, Note_on_c, 0, 70, 69
2, 190512, Note_on_c, 0, 67, 0
2, 190516, Note_on_c, 0, 70, 0
2, 190550, Note_on_c, 0, 87, 82
2, 190566, Note_on_c, 0, 75, 0
2, 190628, Note_on_c, 0, 87, 0
2, 190642, Note_on_c, 0, 88, 56
2, 190682, Note_on_c, 0, 87, 90
2, 190694, Note_on_c, 0, 88, 0
2, 190750, Note_on_c, 0, 87, 0
2, 190798, Note_on_c, 0, 87, 104
2, 190801, Note_on_c, 0, 79, 92
2, 190812, Note_on_c, 0, 82, 77
2, 190812, Control_c, 0, 64, 0
2, 190890, Note_on_c, 0, 99, 87
2, 190948, Note_on_c, 0, 87, 0
2, 190968, Control_c, 0, 64, 127
2, 190982, Note_on_c, 0, 79, 0
2, 190992, Note_on_c, 0, 82, 0
2, 190994, Note_on_c, 0, 100, 87
2, 191016, Note_on_c, 0, 99, 0
2, 191086, Note_on_c, 0, 99, 81
2, 191144, Note_on_c, 0, 100, 0
2, 191204, Note_on_c, 0, 87, 95
2, 191244, Note_on_c, 0, 99, 0
2, 191274, Control_c, 0, 64, 0
2, 191312, Note_on_c, 0, 99, 79
2, 191362, Note_on_c, 0, 87, 0
2, 191398, Control_c, 0, 64, 127
2, 191444, Note_on_c, 0, 100, 39
2, 191447, Note_on_c, 0, 99, 0
2, 191460, Note_on_c, 0, 101, 34
2, 191510, Note_on_c, 0, 99, 81
2, 191532, Note_on_c, 0, 101, 0
2, 191532, Note_on_c, 0, 100, 0
2, 191608, Note_on_c, 0, 99, 0
2, 191648, Note_on_c, 0, 85, 69
2, 191710, Note_on_c, 0, 85, 0
2, 191730, Note_on_c, 0, 97, 62
2, 191832, Note_on_c, 0, 99, 71
2, 191854, Note_on_c, 0, 97, 0
2, 191928, Note_on_c, 0, 97, 60
2, 191976, Note_on_c, 0, 99, 0
2, 192044, Note_on_c, 0, 97, 0
2, 192090, Control_c, 0, 64, 0
2, 192090, Note_on_c, 0, 84, 82
2, 192093, Note_on_c, 0, 44, 51
2, 192152, Note_on_c, 0, 44, 0
2, 192152, Note_on_c, 0, 84, 0
2, 192200, Note_on_c, 0, 96, 79
2, 192212, Control_c, 0, 64, 127
2, 192252, Note_on_c, 0, 96, 0
2, 192312, Note_on_c, 0, 97, 48
2, 192400, Note_on_c, 0, 96, 71
2, 192446, Note_on_c, 0, 96, 0
2, 192446, Note_on_c, 0, 97, 0
2, 192498, Note_on_c, 0, 66, 43
2, 192504, Note_on_c, 0, 84, 71
2, 192520, Note_on_c, 0, 63, 44
2, 192540, Note_on_c, 0, 57, 21
2, 192546, Note_on_c, 0, 84, 0
2, 192576, Note_on_c, 0, 66, 0
2, 192576, Note_on_c, 0, 96, 57
2, 192582, Note_on_c, 0, 63, 0
2, 192610, Note_on_c, 0, 57, 0
2, 192644, Note_on_c, 0, 96, 0
2, 192676, Note_on_c, 0, 97, 63
2, 192732, Note_on_c, 0, 96, 55
2, 192796, Note_on_c, 0, 96, 0
2, 192806, Note_on_c, 0, 97, 0
2, 192868, Note_on_c, 0, 66, 36
2, 192880, Note_on_c, 0, 81, 57
2, 192883, Note_on_c, 0, 57, 25
2, 192900, Note_on_c, 0, 63, 40
2, 192930, Note_on_c, 0, 66, 0
2, 192933, Note_on_c, 0, 81, 0
2, 192952, Note_on_c, 0, 57, 0
2, 192952, Note_on_c, 0, 63, 0
2, 192960, Note_on_c, 0, 93, 51
2, 193020, Note_on_c, 0, 93, 0
2, 193028, Note_on_c, 0, 95, 65
2, 193088, Note_on_c, 0, 93, 56
2, 193120, Note_on_c, 0, 95, 0
2, 193166, Note_on_c, 0, 93, 0
2, 193196, Control_c, 0, 64, 0
2, 193220, Note_on_c, 0, 80, 82
2, 193232, Note_on_c, 0, 48, 46
2, 193286, Note_on_c, 0, 48, 0
2, 193300, Note_on_c, 0, 80, 0
2, 193308, Note_on_c, 0, 92, 52
2, 193350, Control_c, 0, 64, 127
2, 193396, Note_on_c, 0, 93, 64
2, 193428, Note_on_c, 0, 92, 0
2, 193486, Note_on_c, 0, 92, 79
2, 193498, Note_on_c, 0, 93, 0
2, 193572, Note_on_c, 0, 92, 0
2, 193572, Note_on_c, 0, 80, 75
2, 193584, Note_on_c, 0, 63, 34
2, 193586, Note_on_c, 0, 57, 24
2, 193626, Note_on_c, 0, 80, 0
2, 193646, Note_on_c, 0, 63, 0
2, 193664, Note_on_c, 0, 57, 0
2, 193664, Note_on_c, 0, 92, 52
2, 193754, Note_on_c, 0, 93, 49
2, 193846, Note_on_c, 0, 93, 0
2, 193886, Note_on_c, 0, 92, 0
2, 193934, Note_on_c, 0, 66, 32
2, 193944, Note_on_c, 0, 78, 65
2, 193950, Note_on_c, 0, 63, 35
2, 193976, Note_on_c, 0, 57, 5
2, 194002, Note_on_c, 0, 66, 0
2, 194012, Note_on_c, 0, 78, 0
2, 194012, Note_on_c, 0, 63, 0
2, 194015, Note_on_c, 0, 90, 58
2, 194046, Note_on_c, 0, 57, 0
2, 194106, Note_on_c, 0, 92, 66
2, 194140, Note_on_c, 0, 90, 0
2, 194198, Note_on_c, 0, 90, 78
2, 194236, Note_on_c, 0, 92, 0
2, 194318, Note_on_c, 0, 90, 0
2, 194348, Control_c, 0, 64, 0
2, 194354, Note_on_c, 0, 49, 42
2, 194374, Note_on_c, 0, 76, 42
2, 194426, Note_on_c, 0, 76, 0
2, 194458, Note_on_c, 0, 88, 78
2, 194484, Note_on_c, 0, 49, 0
2, 194502, Control_c, 0, 64, 127
2, 194524, Note_on_c, 0, 88, 0
2, 194574, Note_on_c, 0, 90, 57
2, 194666, Note_on_c, 0, 88, 67
2, 194680, Note_on_c, 0, 90, 0
2, 194714, Note_on_c, 0, 88, 0
2, 194810, Note_on_c, 0, 69, 34
2, 194828, Note_on_c, 0, 73, 35
2, 194834, Note_on_c, 0, 64, 41
2, 194880, Note_on_c, 0, 85, 44
2, 194900, Note_on_c, 0, 73, 0
2, 194900, Note_on_c, 0, 69, 0
2, 194966, Note_on_c, 0, 87, 60
2, 194990, Note_on_c, 0, 85, 0
2, 195076, Note_on_c, 0, 64, 0
2, 195078, Note_on_c, 0, 85, 50
2, 195080, Note_on_c, 0, 87, 0
2, 195160, Note_on_c, 0, 85, 0
2, 195163, Note_on_c, 0, 69, 40
2, 195176, Note_on_c, 0, 75, 67
2, 195202, Note_on_c, 0, 60, 46
2, 195238, Note_on_c, 0, 75, 0
2, 195268, Note_on_c, 0, 87, 64
2, 195308, Note_on_c, 0, 69, 0
2, 195354, Note_on_c, 0, 88, 69
2, 195382, Note_on_c, 0, 87, 0
2, 195428, Note_on_c, 0, 87, 47
2, 195468, Note_on_c, 0, 88, 0
2, 195468, Note_on_c, 0, 60, 0
2, 195490, Note_on_c, 0, 61, 63
2, 195496, Note_on_c, 0, 69, 54
2, 195524, Note_on_c, 0, 76, 58
2, 195532, Note_on_c, 0, 87, 0
2, 195572, Note_on_c, 0, 76, 0
2, 195610, Note_on_c, 0, 88, 55
2, 195654, Note_on_c, 0, 69, 0
2, 195668, Note_on_c, 0, 88, 0
2, 195678, Note_on_c, 0, 90, 72
2, 195740, Note_on_c, 0, 88, 54
2, 195788, Note_on_c, 0, 90, 0
2, 195846, Note_on_c, 0, 66, 52
2, 195852, Note_on_c, 0, 88, 0
2, 195854, Note_on_c, 0, 69, 46
2, 195866, Note_on_c, 0, 75, 71
2, 195914, Control_c, 0, 64, 0
2, 195928, Note_on_c, 0, 61, 0
2, 195933, Note_on_c, 0, 75, 0
2, 195942, Note_on_c, 0, 87, 54
2, 196036, Note_on_c, 0, 88, 74
2, 196054, Note_on_c, 0, 69, 0
2, 196064, Note_on_c, 0, 87, 0
2, 196084, Control_c, 0, 64, 127
2, 196098, Note_on_c, 0, 88, 0
2, 196122, Note_on_c, 0, 87, 69
2, 196192, Note_on_c, 0, 87, 0
2, 196220, Note_on_c, 0, 69, 39
2, 196222, Note_on_c, 0, 64, 57
2, 196232, Note_on_c, 0, 66, 0
2, 196258, Note_on_c, 0, 73, 50
2, 196312, Note_on_c, 0, 73, 0
2, 196315, Control_c, 0, 64, 0
2, 196334, Note_on_c, 0, 85, 51
2, 196424, Note_on_c, 0, 69, 0
2, 196438, Note_on_c, 0, 87, 62
2, 196454, Control_c, 0, 64, 127
2, 196457, Note_on_c, 0, 85, 0
2, 196524, Note_on_c, 0, 63, 56
2, 196526, Note_on_c, 0, 64, 0
2, 196540, Note_on_c, 0, 87, 0
2, 196546, Note_on_c, 0, 85, 62
2, 196606, Control_c, 0, 64, 0
2, 196622, Note_on_c, 0, 75, 62
2, 196628, Note_on_c, 0, 85, 0
2, 196632, Note_on_c, 0, 68, 40
2, 196652, Note_on_c, 0, 71, 54
2, 196688, Note_on_c, 0, 75, 0
2, 196724, Note_on_c, 0, 87, 65
2, 196778, Note_on_c, 0, 87, 0
2, 196790, Control_c, 0, 64, 127
2, 196822, Note_on_c, 0, 76, 48
2, 196886, Note_on_c, 0, 76, 0
2, 196922, Note_on_c, 0, 77, 72
2, 197000, Note_on_c, 0, 77, 0
2, 197024, Note_on_c, 0, 78, 74
2, 197038, Note_on_c, 0, 68, 0
2, 197062, Note_on_c, 0, 78, 0
2, 197096, Note_on_c, 0, 79, 89
2, 197118, Note_on_c, 0, 71, 0
2, 197154, Note_on_c, 0, 79, 0
2, 197178, Note_on_c, 0, 80, 71
2, 197256, Note_on_c, 0, 81, 85
2, 197258, Note_on_c, 0, 63, 0
2, 197282, Note_on_c, 0, 80, 0
2, 197334, Note_on_c, 0, 82, 86
2, 197366, Note_on_c, 0, 82, 0
2, 197366, Note_on_c, 0, 81, 0
2, 197410, Note_on_c, 0, 83, 95
2, 197472, Note_on_c, 0, 83, 0
2, 197482, Note_on_c, 0, 84, 83
2, 197542, Note_on_c, 0, 84, 0
2, 197556, Note_on_c, 0, 85, 63
2, 197610, Note_on_c, 0, 85, 0
2, 197622, Note_on_c, 0, 86, 79
2, 197668, Note_on_c, 0, 86, 0
2, 197700, Note_on_c, 0, 87, 69
2, 197748, Note_on_c, 0, 87, 0
2, 197784, Note_on_c, 0, 88, 83
2, 197846, Note_on_c, 0, 88, 0
2, 197849, Note_on_c, 0, 89, 83
2, 197936, Note_on_c, 0, 90, 70
2, 197958, Note_on_c, 0, 89, 0
2, 197980, Note_on_c, 0, 90, 0
2, 197998, Note_on_c, 0, 91, 93
2, 198066, Note_on_c, 0, 91, 0
2, 198066, Note_on_c, 0, 92, 77
2, 198128, Control_c, 0, 64, 0
2, 198156, Note_on_c, 0, 93, 64
2, 198186, Note_on_c, 0, 92, 0
2, 198190, Control_c, 0, 64, 127
2, 198206, Note_on_c, 0, 94, 79
2, 198236, Note_on_c, 0, 93, 0
2, 198239, Note_on_c, 0, 94, 0
2, 198284, Note_on_c, 0, 95, 87
2, 198348, Note_on_c, 0, 95, 0
2, 198354, Note_on_c, 0, 96, 85
2, 198357, Control_c, 0, 64, 0
2, 198410, Note_on_c, 0, 96, 0
2, 198426, Note_on_c, 0, 97, 52
2, 198464, Note_on_c, 0, 51, 24
2, 198476, Note_on_c, 0, 97, 0
2, 198504, Note_on_c, 0, 98, 96
2, 198532, Note_on_c, 0, 61, 27
2, 198542, Control_c, 0, 64, 127
2, 198552, Note_on_c, 0, 98, 0
2, 198588, Note_on_c, 0, 51, 0
2, 198592, Note_on_c, 0, 99, 47
2, 198684, Note_on_c, 0, 102, 67
2, 198698, Note_on_c, 0, 99, 0
2, 198778, Note_on_c, 0, 100, 56
2, 198792, Note_on_c, 0, 67, 28
2, 198806, Note_on_c, 0, 102, 0
2, 198870, Note_on_c, 0, 100, 0
2, 198884, Note_on_c, 0, 97, 28
2, 198920, Note_on_c, 0, 94, 59
2, 198944, Note_on_c, 0, 97, 0
2, 198970, Note_on_c, 0, 94, 0
2, 198998, Note_on_c, 0, 91, 46
2, 199064, Note_on_c, 0, 91, 0
2, 199120, Note_on_c, 0, 86, 62
2, 199208, Note_on_c, 0, 86, 0
2, 199234, Note_on_c, 0, 87, 56
2, 199324, Note_on_c, 0, 90, 55
2, 199342, Note_on_c, 0, 87, 0
2, 199408, Note_on_c, 0, 88, 58
2, 199432, Note_on_c, 0, 90, 0
2, 199498, Note_on_c, 0, 85, 64
2, 199514, Note_on_c, 0, 88, 0
2, 199534, Note_on_c, 0, 67, 0
2, 199596, Note_on_c, 0, 82, 55
2, 199608, Note_on_c, 0, 85, 0
2, 199648, Note_on_c, 0, 82, 0
2, 199680, Note_on_c, 0, 79, 62
2, 199692, Note_on_c, 0, 61, 0
2, 199732, Note_on_c, 0, 79, 0
2, 199784, Note_on_c, 0, 76, 63
2, 199894, Note_on_c, 0, 73, 55
2, 199900, Note_on_c, 0, 76, 0
2, 199960, Note_on_c, 0, 73, 0
2, 199982, Note_on_c, 0, 70, 56
2, 200058, Note_on_c, 0, 70, 0
2, 200068, Note_on_c, 0, 67, 65
2, 200122, Note_on_c, 0, 67, 0
2, 200188, Note_on_c, 0, 64, 67
2, 200264, Note_on_c, 0, 61, 59
2, 200267, Note_on_c, 0, 64, 0
2, 200346, Note_on_c, 0, 58, 55
2, 200376, Note_on_c, 0, 61, 0
2, 200434, Note_on_c, 0, 55, 81
2, 200440, Note_on_c, 0, 58, 0
2, 200494, Note_on_c, 0, 55, 0
2, 200510, Note_on_c, 0, 44, 55
2, 200620, Note_on_c, 0, 51, 55
2, 200632, Control_c, 0, 64, 0
2, 200702, Note_on_c, 0, 56, 59
2, 200812, Note_on_c, 0, 59, 59
2, 200815, Note_on_c, 0, 44, 0
2, 200838, Note_on_c, 0, 51, 0
2, 200844, Note_on_c, 0, 56, 0
2, 200862, Control_c, 0, 64, 127
2, 200916, Note_on_c, 0, 63, 70
2, 200944, Note_on_c, 0, 59, 0
2, 200988, Note_on_c, 0, 63, 0
2, 201034, Note_on_c, 0, 68, 52
2, 201086, Note_on_c, 0, 68, 0
2, 201174, Note_on_c, 0, 71, 47
2, 201274, Note_on_c, 0, 75, 47
2, 201396, Note_on_c, 0, 80, 60
2, 201522, Note_on_c, 0, 83, 74
2, 201622, Note_on_c, 0, 83, 0
2, 201642, Note_on_c, 0, 87, 48
2, 201722, Note_on_c, 0, 87, 0
2, 201828, Note_on_c, 0, 95, 41
2, 201952, Note_on_c, 0, 95, 0
2, 201988, Note_on_c, 0, 92, 42
2, 202754, Note_on_c, 0, 80, 0
2, 202828, Note_on_c, 0, 71, 0
2, 202844, Note_on_c, 0, 92, 0
2, 202888, Note_on_c, 0, 75, 0
2, 203198, Control_c, 0, 64, 0
2, 203655, Note_on_c, 0, 83, 66
2, 203661, Note_on_c, 0, 71, 37
2, 203665, Note_on_c, 0, 68, 25
2, 203717, Note_on_c, 0, 83, 0
2, 203743, Note_on_c, 0, 71, 0
2, 203745, Note_on_c, 0, 68, 0
2, 203879, Note_on_c, 0, 83, 86
2, 203891, Note_on_c, 0, 71, 54
2, 203899, Note_on_c, 0, 70, 24
2, 203905, Note_on_c, 0, 67, 44
2, 203957, Note_on_c, 0, 71, 0
2, 203957, Note_on_c, 0, 83, 0
2, 203969, Note_on_c, 0, 67, 0
2, 203983, Note_on_c, 0, 70, 0
2, 204059, Note_on_c, 0, 83, 96
2, 204071, Note_on_c, 0, 71, 63
2, 204077, Note_on_c, 0, 69, 34
2, 204089, Note_on_c, 0, 66, 36
2, 204131, Note_on_c, 0, 71, 0
2, 204145, Note_on_c, 0, 83, 0
2, 204149, Note_on_c, 0, 69, 0
2, 204151, Note_on_c, 0, 66, 0
2, 204231, Note_on_c, 0, 83, 97
2, 204239, Note_on_c, 0, 68, 52
2, 204247, Note_on_c, 0, 71, 66
2, 204255, Note_on_c, 0, 65, 51
2, 204297, Note_on_c, 0, 68, 0
2, 204305, Note_on_c, 0, 65, 0
2, 204307, Note_on_c, 0, 71, 0
2, 204321, Note_on_c, 0, 83, 0
2, 204413, Note_on_c, 0, 83, 104
2, 204421, Note_on_c, 0, 67, 51
2, 204429, Note_on_c, 0, 71, 70
2, 204429, Note_on_c, 0, 64, 51
2, 204479, Note_on_c, 0, 64, 0
2, 204485, Note_on_c, 0, 67, 0
2, 204487, Note_on_c, 0, 71, 0
2, 204509, Note_on_c, 0, 83, 0
2, 204635, Note_on_c, 0, 83, 109
2, 204669, Note_on_c, 0, 48, 21
2, 204673, Note_on_c, 0, 83, 0
2, 204723, Control_c, 0, 64, 127
2, 204735, Note_on_c, 0, 48, 0
2, 204801, Note_on_c, 0, 63, 73
2, 204803, Note_on_c, 0, 66, 70
2, 204843, Note_on_c, 0, 63, 0
2, 204865, Note_on_c, 0, 66, 0
2, 204923, Note_on_c, 0, 78, 63
2, 204925, Control_c, 0, 64, 0
2, 204929, Note_on_c, 0, 54, 66
2, 204943, Note_on_c, 0, 59, 42
2, 204957, Note_on_c, 0, 71, 52
2, 204985, Note_on_c, 0, 78, 0
2, 204995, Note_on_c, 0, 59, 0
2, 205003, Note_on_c, 0, 54, 0
2, 205015, Note_on_c, 0, 71, 0
2, 205037, Note_on_c, 0, 66, 64
2, 205037, Note_on_c, 0, 63, 67
2, 205079, Note_on_c, 0, 63, 0
2, 205083, Note_on_c, 0, 66, 0
2, 205181, Note_on_c, 0, 83, 110
2, 205183, Note_on_c, 0, 47, 43
2, 205215, Note_on_c, 0, 83, 0
2, 205251, Note_on_c, 0, 47, 0
2, 205293, Note_on_c, 0, 63, 82
2, 205311, Note_on_c, 0, 66, 62
2, 205333, Note_on_c, 0, 63, 0
2, 205359, Note_on_c, 0, 66, 0
2, 205459, Note_on_c, 0, 85, 102
2, 205475, Note_on_c, 0, 42, 65
2, 205493, Note_on_c, 0, 85, 0
2, 205521, Note_on_c, 0, 42, 0
2, 205539, Control_c, 0, 64, 127
2, 205557, Note_on_c, 0, 82, 5
2, 205601, Note_on_c, 0, 82, 0
2, 205611, Note_on_c, 0, 66, 65
2, 205663, Note_on_c, 0, 66, 0
2, 205717, Note_on_c, 0, 78, 72
2, 205733, Note_on_c, 0, 54, 64
2, 205743, Note_on_c, 0, 73, 50
2, 205745, Note_on_c, 0, 58, 43
2, 205797, Note_on_c, 0, 73, 0
2, 205797, Note_on_c, 0, 54, 0
2, 205800, Control_c, 0, 64, 0
2, 205805, Note_on_c, 0, 78, 0
2, 205807, Note_on_c, 0, 58, 0
2, 205845, Note_on_c, 0, 66, 48
2, 205905, Note_on_c, 0, 66, 0
2, 205963, Note_on_c, 0, 42, 90
2, 205975, Note_on_c, 0, 85, 102
2, 206001, Note_on_c, 0, 42, 0
2, 206013, Note_on_c, 0, 85, 0
2, 206117, Note_on_c, 0, 66, 75
2, 206133, Note_on_c, 0, 64, 46
2, 206161, Note_on_c, 0, 66, 0
2, 206189, Note_on_c, 0, 64, 0
2, 206283, Note_on_c, 0, 87, 89
2, 206305, Note_on_c, 0, 47, 50
2, 206317, Note_on_c, 0, 87, 0
2, 206339, Note_on_c, 0, 85, 32
2, 206365, Note_on_c, 0, 47, 0
2, 206385, Control_c, 0, 64, 127
2, 206411, Note_on_c, 0, 85, 0
2, 206439, Note_on_c, 0, 63, 81
2, 206445, Note_on_c, 0, 66, 78
2, 206493, Note_on_c, 0, 66, 0
2, 206499, Note_on_c, 0, 63, 0
2, 206567, Note_on_c, 0, 75, 79
2, 206593, Note_on_c, 0, 54, 34
2, 206603, Note_on_c, 0, 75, 0
2, 206661, Note_on_c, 0, 54, 0
2, 206703, Note_on_c, 0, 83, 121
2, 206745, Note_on_c, 0, 83, 0
2, 206751, Note_on_c, 0, 47, 34
2, 206823, Note_on_c, 0, 47, 0
2, 206837, Note_on_c, 0, 42, 71
2, 206853, Note_on_c, 0, 87, 89
2, 206879, Note_on_c, 0, 42, 0
2, 206903, Note_on_c, 0, 87, 0
2, 206997, Note_on_c, 0, 95, 106
2, 206999, Note_on_c, 0, 35, 86
2, 207037, Note_on_c, 0, 35, 0
2, 207081, Note_on_c, 0, 95, 0
2, 207367, Control_c, 0, 64, 0
2, 207591, Note_on_c, 0, 87, 63
2, 207594, Note_on_c, 0, 75, 63
2, 207613, Note_on_c, 0, 71, 55
2, 207649, Note_on_c, 0, 75, 0
2, 207649, Note_on_c, 0, 87, 0
2, 207669, Note_on_c, 0, 71, 0
2, 207749, Note_on_c, 0, 74, 48
2, 207767, Note_on_c, 0, 87, 62
2, 207770, Note_on_c, 0, 75, 56
2, 207815, Note_on_c, 0, 87, 0
2, 207817, Note_on_c, 0, 74, 0
2, 207823, Note_on_c, 0, 75, 0
2, 207885, Note_on_c, 0, 70, 50
2, 207895, Note_on_c, 0, 73, 57
2, 207909, Note_on_c, 0, 87, 59
2, 207911, Note_on_c, 0, 75, 64
2, 207945, Note_on_c, 0, 73, 0
2, 207945, Note_on_c, 0, 70, 0
2, 207963, Note_on_c, 0, 87, 0
2, 207973, Note_on_c, 0, 75, 0
2, 208041, Note_on_c, 0, 87, 77
2, 208049, Note_on_c, 0, 72, 74
2, 208051, Note_on_c, 0, 75, 72
2, 208061, Note_on_c, 0, 69, 62
2, 208093, Note_on_c, 0, 72, 0
2, 208117, Note_on_c, 0, 69, 0
2, 208119, Note_on_c, 0, 75, 0
2, 208131, Note_on_c, 0, 87, 0
2, 208177, Note_on_c, 0, 68, 74
2, 208187, Note_on_c, 0, 87, 93
2, 208195, Note_on_c, 0, 75, 78
2, 208217, Note_on_c, 0, 68, 0
2, 208283, Note_on_c, 0, 87, 0
2, 208293, Note_on_c, 0, 75, 0
2, 208357, Note_on_c, 0, 87, 80
2, 208377, Note_on_c, 0, 51, 80
2, 208421, Note_on_c, 0, 51, 0
2, 208443, Control_c, 0, 64, 127
2, 208447, Note_on_c, 0, 87, 0
2, 208501, Note_on_c, 0, 66, 72
2, 208515, Note_on_c, 0, 70, 78
2, 208551, Note_on_c, 0, 66, 0
2, 208631, Note_on_c, 0, 70, 0
2, 208631, Note_on_c, 0, 82, 70
2, 208639, Note_on_c, 0, 63, 71
2, 208647, Note_on_c, 0, 58, 41
2, 208661, Note_on_c, 0, 75, 46
2, 208685, Note_on_c, 0, 63, 0
2, 208697, Note_on_c, 0, 82, 0
2, 208713, Note_on_c, 0, 75, 0
2, 208715, Note_on_c, 0, 58, 0
2, 208719, Control_c, 0, 64, 0
2, 208735, Note_on_c, 0, 66, 62
2, 208743, Note_on_c, 0, 70, 64
2, 208783, Note_on_c, 0, 66, 0
2, 208787, Note_on_c, 0, 70, 0
2, 208871, Note_on_c, 0, 87, 98
2, 208871, Note_on_c, 0, 51, 90
2, 208905, Note_on_c, 0, 87, 0
2, 208925, Note_on_c, 0, 51, 0
2, 208979, Note_on_c, 0, 70, 88
2, 208985, Note_on_c, 0, 66, 69
2, 209029, Note_on_c, 0, 66, 0
2, 209031, Note_on_c, 0, 70, 0
2, 209133, Note_on_c, 0, 46, 89
2, 209135, Note_on_c, 0, 89, 105
2, 209167, Note_on_c, 0, 89, 0
2, 209175, Note_on_c, 0, 46, 0
2, 209195, Control_c, 0, 64, 127
2, 209261, Note_on_c, 0, 70, 92
2, 209283, Note_on_c, 0, 68, 71
2, 209319, Note_on_c, 0, 70, 0
2, 209343, Note_on_c, 0, 68, 0
2, 209385, Note_on_c, 0, 82, 77
2, 209395, Note_on_c, 0, 58, 52
2, 209409, Note_on_c, 0, 77, 66
2, 209425, Note_on_c, 0, 62, 37
2, 209451, Note_on_c, 0, 77, 0
2, 209453, Note_on_c, 0, 82, 0
2, 209457, Control_c, 0, 64, 0
2, 209459, Note_on_c, 0, 58, 0
2, 209479, Note_on_c, 0, 68, 67
2, 209482, Note_on_c, 0, 62, 0
2, 209491, Note_on_c, 0, 70, 71
2, 209523, Note_on_c, 0, 68, 0
2, 209533, Note_on_c, 0, 70, 0
2, 209611, Note_on_c, 0, 46, 96
2, 209627, Note_on_c, 0, 89, 104
2, 209645, Note_on_c, 0, 46, 0
2, 209659, Note_on_c, 0, 89, 0
2, 209749, Note_on_c, 0, 68, 74
2, 209749, Note_on_c, 0, 70, 79
2, 209789, Note_on_c, 0, 68, 0
2, 209791, Note_on_c, 0, 70, 0
2, 209893, Note_on_c, 0, 90, 95
2, 209913, Note_on_c, 0, 51, 83
2, 209927, Note_on_c, 0, 90, 0
2, 209953, Note_on_c, 0, 51, 0
2, 210021, Note_on_c, 0, 70, 83
2, 210024, Control_c, 0, 64, 127
2, 210037, Note_on_c, 0, 66, 63
2, 210095, Note_on_c, 0, 70, 0
2, 210127, Note_on_c, 0, 66, 0
2, 210157, Note_on_c, 0, 78, 81
2, 210160, Note_on_c, 0, 58, 48
2, 210191, Note_on_c, 0, 78, 0
2, 210219, Note_on_c, 0, 58, 0
2, 210277, Note_on_c, 0, 87, 103
2, 210299, Note_on_c, 0, 51, 80
2, 210347, Note_on_c, 0, 51, 0
2, 210353, Note_on_c, 0, 87, 0
2, 210433, Note_on_c, 0, 90, 93
2, 210451, Note_on_c, 0, 46, 36
2, 210475, Note_on_c, 0, 90, 0
2, 210527, Note_on_c, 0, 46, 0
2, 210583, Note_on_c, 0, 39, 73
2, 210587, Note_on_c, 0, 99, 103
2, 210621, Note_on_c, 0, 39, 0
2, 210623, Note_on_c, 0, 99, 0
2, 210993, Control_c, 0, 64, 0
2, 211169, Note_on_c, 0, 75, 57
2, 211173, Note_on_c, 0, 90, 54
2, 211177, Note_on_c, 0, 78, 51
2, 211227, Note_on_c, 0, 90, 0
2, 211233, Note_on_c, 0, 78, 0
2, 211239, Note_on_c, 0, 75, 0
2, 211311, Note_on_c, 0, 90, 47
2, 211313, Note_on_c, 0, 77, 63
2, 211315, Note_on_c, 0, 74, 65
2, 211319, Note_on_c, 0, 78, 54
2, 211363, Note_on_c, 0, 77, 0
2, 211365, Note_on_c, 0, 74, 0
2, 211369, Note_on_c, 0, 90, 0
2, 211377, Note_on_c, 0, 78, 0
2, 211455, Note_on_c, 0, 90, 64
2, 211455, Note_on_c, 0, 73, 69
2, 211458, Note_on_c, 0, 78, 71
2, 211487, Note_on_c, 0, 76, 28
2, 211507, Note_on_c, 0, 73, 0
2, 211519, Note_on_c, 0, 90, 0
2, 211523, Note_on_c, 0, 78, 0
2, 211557, Note_on_c, 0, 76, 0
2, 211587, Note_on_c, 0, 90, 82
2, 211591, Note_on_c, 0, 75, 87
2, 211593, Note_on_c, 0, 78, 78
2, 211627, Note_on_c, 0, 72, 55
2, 211629, Note_on_c, 0, 75, 0
2, 211669, Note_on_c, 0, 90, 0
2, 211669, Note_on_c, 0, 78, 0
2, 211683, Note_on_c, 0, 72, 0
2, 211739, Note_on_c, 0, 90, 87
2, 211747, Note_on_c, 0, 74, 55
2, 211749, Note_on_c, 0, 71, 71
2, 211749, Note_on_c, 0, 78, 83
2, 211795, Note_on_c, 0, 71, 0
2, 211797, Note_on_c, 0, 74, 0
2, 211829, Note_on_c, 0, 90, 0
2, 211851, Note_on_c, 0, 78, 0
2, 211917, Note_on_c, 0, 90, 75
2, 211923, Note_on_c, 0, 54, 101
2, 211971, Note_on_c, 0, 54, 0
2, 211991, Control_c, 0, 64, 127
2, 212017, Note_on_c, 0, 90, 0
2, 212063, Note_on_c, 0, 70, 64
2, 212067, Note_on_c, 0, 73, 82
2, 212123, Note_on_c, 0, 70, 0
2, 212133, Note_on_c, 0, 73, 0
2, 212169, Note_on_c, 0, 85, 75
2, 212181, Note_on_c, 0, 61, 66
2, 212189, Note_on_c, 0, 78, 67
2, 212231, Note_on_c, 0, 61, 0
2, 212234, Note_on_c, 0, 78, 0
2, 212265, Note_on_c, 0, 85, 0
2, 212279, Note_on_c, 0, 70, 64
2, 212287, Note_on_c, 0, 73, 80
2, 212327, Note_on_c, 0, 70, 0
2, 212330, Note_on_c, 0, 73, 0
2, 212419, Note_on_c, 0, 90, 101
2, 212425, Note_on_c, 0, 54, 93
2, 212457, Note_on_c, 0, 90, 0
2, 212475, Note_on_c, 0, 54, 0
2, 212533, Note_on_c, 0, 73, 83
2, 212543, Note_on_c, 0, 70, 59
2, 212577, Note_on_c, 0, 73, 0
2, 212591, Note_on_c, 0, 70, 0
2, 212591, Control_c, 0, 64, 0
2, 212699, Note_on_c, 0, 92, 98
2, 212702, Note_on_c, 0, 49, 89
2, 212733, Note_on_c, 0, 92, 0
2, 212739, Note_on_c, 0, 49, 0
2, 212775, Control_c, 0, 64, 127
2, 212847, Note_on_c, 0, 73, 65
2, 212859, Note_on_c, 0, 71, 55
2, 212895, Note_on_c, 0, 73, 0
2, 212921, Note_on_c, 0, 71, 0
2, 212949, Note_on_c, 0, 85, 70
2, 212973, Note_on_c, 0, 61, 59
2, 212973, Note_on_c, 0, 80, 60
2, 212989, Note_on_c, 0, 65, 42
2, 213023, Note_on_c, 0, 80, 0
2, 213041, Note_on_c, 0, 85, 0
2, 213043, Note_on_c, 0, 65, 0
2, 213069, Note_on_c, 0, 61, 0
2, 213073, Note_on_c, 0, 73, 78
2, 213089, Note_on_c, 0, 71, 33
2, 213117, Note_on_c, 0, 73, 0
2, 213155, Note_on_c, 0, 71, 0
2, 213221, Note_on_c, 0, 92, 103
2, 213221, Note_on_c, 0, 49, 92
2, 213255, Note_on_c, 0, 92, 0
2, 213261, Note_on_c, 0, 49, 0
2, 213329, Note_on_c, 0, 75, 72
2, 213369, Note_on_c, 0, 71, 86
2, 213372, Note_on_c, 0, 75, 0
2, 213411, Note_on_c, 0, 71, 0
2, 213575, Control_c, 0, 64, 0
2, 213627, Note_on_c, 0, 94, 94
2, 213633, Note_on_c, 0, 85, 95
2, 213641, Note_on_c, 0, 90, 65
2, 213641, Note_on_c, 0, 54, 103
2, 213673, Note_on_c, 0, 85, 0
2, 213675, Note_on_c, 0, 94, 0
2, 213675, Note_on_c, 0, 54, 0
2, 213691, Note_on_c, 0, 90, 0
2, 213761, Note_on_c, 0, 85, 66
2, 213771, Note_on_c, 0, 92, 70
2, 213771, Note_on_c, 0, 95, 80
2, 213789, Control_c, 0, 64, 127
2, 213813, Note_on_c, 0, 95, 0
2, 213813, Note_on_c, 0, 85, 0
2, 213825, Note_on_c, 0, 92, 0
2, 213913, Note_on_c, 0, 61, 93
2, 213913, Note_on_c, 0, 97, 86
2, 213916, Note_on_c, 0, 85, 69
2, 213941, Note_on_c, 0, 94, 42
2, 213955, Note_on_c, 0, 97, 0
2, 213961, Note_on_c, 0, 85, 0
2, 213975, Note_on_c, 0, 61, 0
2, 213999, Note_on_c, 0, 94, 0
2, 214027, Note_on_c, 0, 97, 80
2, 214049, Note_on_c, 0, 70, 69
2, 214069, Note_on_c, 0, 92, 47
2, 214089, Note_on_c, 0, 97, 0
2, 214097, Note_on_c, 0, 70, 0
2, 214127, Note_on_c, 0, 92, 0
2, 214183, Note_on_c, 0, 95, 72
2, 214209, Note_on_c, 0, 78, 69
2, 214219, Note_on_c, 0, 85, 21
2, 214229, Note_on_c, 0, 95, 0
2, 214255, Note_on_c, 0, 78, 0
2, 214285, Note_on_c, 0, 85, 0
2, 214303, Note_on_c, 0, 82, 69
2, 214303, Note_on_c, 0, 94, 83
2, 214351, Note_on_c, 0, 82, 0
2, 214363, Note_on_c, 0, 85, 4
2, 214419, Control_c, 0, 64, 0
2, 214435, Note_on_c, 0, 85, 0
2, 214439, Note_on_c, 0, 94, 0
2, 214551, Note_on_c, 0, 92, 82
2, 214551, Note_on_c, 0, 83, 118
2, 214551, Note_on_c, 0, 47, 104
2, 214569, Note_on_c, 0, 87, 62
2, 214583, Note_on_c, 0, 47, 0
2, 214599, Note_on_c, 0, 83, 0
2, 214615, Note_on_c, 0, 87, 0
2, 214649, Control_c, 0, 64, 127
2, 214693, Note_on_c, 0, 94, 72
2, 214711, Note_on_c, 0, 85, 59
2, 214749, Note_on_c, 0, 94, 0
2, 214763, Note_on_c, 0, 85, 0
2, 214763, Note_on_c, 0, 92, 0
2, 214839, Note_on_c, 0, 95, 89
2, 214843, Note_on_c, 0, 59, 74
2, 214849, Note_on_c, 0, 87, 57
2, 214881, Note_on_c, 0, 95, 0
2, 214893, Note_on_c, 0, 59, 0
2, 214897, Note_on_c, 0, 87, 0
2, 214963, Note_on_c, 0, 95, 58
2, 214979, Note_on_c, 0, 85, 72
2, 214982, Note_on_c, 0, 68, 65
2, 215009, Note_on_c, 0, 95, 0
2, 215023, Note_on_c, 0, 85, 0
2, 215031, Note_on_c, 0, 68, 0
2, 215103, Note_on_c, 0, 85, 58
2, 215121, Note_on_c, 0, 75, 57
2, 215145, Note_on_c, 0, 85, 0
2, 215183, Note_on_c, 0, 75, 0
2, 215225, Note_on_c, 0, 92, 71
2, 215241, Note_on_c, 0, 83, 100
2, 215287, Note_on_c, 0, 83, 0
2, 215289, Note_on_c, 0, 92, 0
2, 215311, Control_c, 0, 64, 0
2, 215395, Note_on_c, 0, 85, 67
2, 215397, Note_on_c, 0, 90, 77
2, 215403, Note_on_c, 0, 82, 69
2, 215409, Note_on_c, 0, 49, 95
2, 215441, Note_on_c, 0, 85, 0
2, 215453, Note_on_c, 0, 90, 0
2, 215463, Note_on_c, 0, 49, 0
2, 215507, Note_on_c, 0, 82, 0
2, 215525, Note_on_c, 0, 92, 87
2, 215525, Control_c, 0, 64, 127
2, 215528, Note_on_c, 0, 85, 51
2, 215539, Note_on_c, 0, 83, 89
2, 215567, Note_on_c, 0, 92, 0
2, 215579, Note_on_c, 0, 85, 0
2, 215581, Note_on_c, 0, 83, 0
2, 215669, Note_on_c, 0, 85, 71
2, 215669, Note_on_c, 0, 94, 85
2, 215675, Note_on_c, 0, 58, 55
2, 215705, Note_on_c, 0, 94, 0
2, 215719, Note_on_c, 0, 85, 0
2, 215749, Note_on_c, 0, 58, 0
2, 215795, Note_on_c, 0, 85, 69
2, 215805, Note_on_c, 0, 94, 48
2, 215821, Note_on_c, 0, 66, 51
2, 215855, Note_on_c, 0, 94, 0
2, 215858, Note_on_c, 0, 85, 0
2, 215885, Note_on_c, 0, 66, 0
2, 215950, Note_on_c, 0, 83, 101
2, 215950, Note_on_c, 0, 92, 69
2, 215954, Note_on_c, 0, 73, 55
2, 215989, Note_on_c, 0, 83, 0
2, 215999, Note_on_c, 0, 92, 0
2, 216007, Note_on_c, 0, 73, 0
2, 216065, Note_on_c, 0, 82, 96
2, 216069, Note_on_c, 0, 78, 82
2, 216075, Note_on_c, 0, 90, 78
2, 216095, Note_on_c, 0, 85, 48
2, 216105, Note_on_c, 0, 78, 0
2, 216121, Note_on_c, 0, 82, 0
2, 216121, Note_on_c, 0, 90, 0
2, 216147, Note_on_c, 0, 85, 0
2, 216155, Control_c, 0, 64, 0
2, 216207, Note_on_c, 0, 85, 67
2, 216211, Note_on_c, 0, 89, 83
2, 216217, Note_on_c, 0, 80, 90
2, 216223, Note_on_c, 0, 61, 86
2, 216257, Note_on_c, 0, 85, 0
2, 216259, Note_on_c, 0, 89, 0
2, 216273, Note_on_c, 0, 80, 0
2, 216281, Note_on_c, 0, 61, 0
2, 216339, Note_on_c, 0, 80, 73
2, 216339, Control_c, 0, 64, 127
2, 216349, Note_on_c, 0, 90, 73
2, 216355, Note_on_c, 0, 85, 43
2, 216373, Note_on_c, 0, 82, 37
2, 216403, Note_on_c, 0, 90, 0
2, 216411, Note_on_c, 0, 85, 0
2, 216419, Note_on_c, 0, 80, 0
2, 216457, Note_on_c, 0, 82, 0
2, 216483, Note_on_c, 0, 77, 71
2, 216489, Note_on_c, 0, 85, 65
2, 216495, Note_on_c, 0, 92, 75
2, 216501, Note_on_c, 0, 83, 108
2, 216535, Note_on_c, 0, 85, 0
2, 216535, Note_on_c, 0, 77, 0
2, 216537, Note_on_c, 0, 92, 0
2, 216539, Note_on_c, 0, 83, 0
2, 216597, Note_on_c, 0, 92, 66
2, 216607, Note_on_c, 0, 83, 105
2, 216615, Note_on_c, 0, 85, 57
2, 216625, Note_on_c, 0, 68, 59
2, 216653, Note_on_c, 0, 83, 0
2, 216659, Note_on_c, 0, 85, 0
2, 216675, Note_on_c, 0, 92, 0
2, 216675, Note_on_c, 0, 68, 0
2, 216727, Note_on_c, 0, 83, 83
2, 216737, Note_on_c, 0, 82, 44
2, 216765, Note_on_c, 0, 90, 51
2, 216781, Note_on_c, 0, 61, 48
2, 216809, Note_on_c, 0, 83, 0
2, 216811, Note_on_c, 0, 82, 0
2, 216833, Note_on_c, 0, 90, 0
2, 216836, Note_on_c, 0, 61, 0
2, 216839, Note_on_c, 0, 71, 49
2, 216867, Note_on_c, 0, 89, 90
2, 216903, Note_on_c, 0, 71, 0
2, 216929, Note_on_c, 0, 89, 0
2, 216969, Control_c, 0, 64, 0
2, 216999, Note_on_c, 0, 70, 69
2, 217004, Note_on_c, 0, 90, 103
2, 217013, Note_on_c, 0, 78, 85
2, 217015, Note_on_c, 0, 66, 57
2, 217023, Note_on_c, 0, 85, 77
2, 217101, Note_on_c, 0, 70, 0
2, 217143, Note_on_c, 0, 66, 0
2, 217161, Note_on_c, 0, 78, 0
2, 217169, Control_c, 0, 64, 127
2, 217211, Note_on_c, 0, 85, 0
2, 217259, Note_on_c, 0, 90, 0
2, 217295, Note_on_c, 0, 54, 78
2, 217295, Note_on_c, 0, 42, 75
2, 217333, Note_on_c, 0, 42, 0
2, 217336, Note_on_c, 0, 54, 0
2, 217385, Control_c, 0, 64, 0
2, 217387, Note_on_c, 0, 42, 87
2, 217397, Note_on_c, 0, 54, 87
2, 217435, Note_on_c, 0, 42, 0
2, 217443, Note_on_c, 0, 54, 0
2, 217529, Note_on_c, 0, 43, 86
2, 217533, Note_on_c, 0, 55, 82
2, 217567, Note_on_c, 0, 43, 0
2, 217575, Note_on_c, 0, 55, 0
2, 217623, Note_on_c, 0, 43, 95
2, 217635, Note_on_c, 0, 55, 89
2, 217713, Note_on_c, 0, 43, 0
2, 217725, Note_on_c, 0, 55, 0
2, 217787, Note_on_c, 0, 44, 101
2, 217795, Note_on_c, 0, 56, 100
2, 217879, Note_on_c, 0, 56, 0
2, 217889, Note_on_c, 0, 44, 0
2, 217935, Note_on_c, 0, 56, 82
2, 217939, Note_on_c, 0, 44, 105
2, 217983, Note_on_c, 0, 56, 0
2, 218005, Note_on_c, 0, 44, 0
2, 218025, Note_on_c, 0, 68, 78
2, 218028, Note_on_c, 0, 56, 80
2, 218067, Note_on_c, 0, 68, 0
2, 218071, Note_on_c, 0, 56, 0
2, 218153, Note_on_c, 0, 68, 63
2, 218307, Note_on_c, 0, 80, 96
2, 218343, Note_on_c, 0, 80, 0
2, 218365, Note_on_c, 0, 68, 0
2, 218405, Note_on_c, 0, 80, 67
2, 218421, Note_on_c, 0, 68, 78
2, 218465, Note_on_c, 0, 68, 0
2, 218477, Note_on_c, 0, 80, 0
2, 218592, Control_c, 0, 64, 127
2, 218595, Note_on_c, 0, 80, 90
2, 218601, Note_on_c, 0, 92, 89
2, 218630, Note_on_c, 0, 80, 0
2, 218642, Note_on_c, 0, 92, 0
2, 218822, Control_c, 0, 64, 0
2, 218900, Note_on_c, 0, 90, 71
2, 218905, Note_on_c, 0, 102, 66
2, 218914, Note_on_c, 0, 75, 36
2, 218916, Note_on_c, 0, 80, 29
2, 218946, Note_on_c, 0, 90, 0
2, 218952, Note_on_c, 0, 102, 0
2, 218978, Note_on_c, 0, 75, 0
2, 218988, Note_on_c, 0, 80, 0
2, 219014, Note_on_c, 0, 102, 69
2, 219020, Note_on_c, 0, 90, 43
2, 219048, Note_on_c, 0, 80, 35
2, 219064, Note_on_c, 0, 102, 0
2, 219080, Note_on_c, 0, 90, 0
2, 219104, Note_on_c, 0, 80, 0
2, 219162, Note_on_c, 0, 80, 74
2, 219168, Note_on_c, 0, 73, 55
2, 219172, Note_on_c, 0, 88, 65
2, 219182, Note_on_c, 0, 100, 51
2, 219210, Note_on_c, 0, 80, 0
2, 219220, Note_on_c, 0, 88, 0
2, 219226, Note_on_c, 0, 73, 0
2, 219230, Note_on_c, 0, 100, 0
2, 219298, Note_on_c, 0, 88, 49
2, 219303, Note_on_c, 0, 100, 67
2, 219310, Note_on_c, 0, 80, 47
2, 219344, Note_on_c, 0, 100, 0
2, 219347, Note_on_c, 0, 88, 0
2, 219388, Note_on_c, 0, 80, 0
2, 219444, Note_on_c, 0, 87, 85
2, 219447, Note_on_c, 0, 99, 83
2, 219454, Note_on_c, 0, 80, 78
2, 219480, Note_on_c, 0, 72, 37
2, 219488, Note_on_c, 0, 99, 0
2, 219504, Note_on_c, 0, 87, 0
2, 219518, Note_on_c, 0, 80, 0
2, 219540, Note_on_c, 0, 72, 0
2, 219590, Note_on_c, 0, 80, 78
2, 219592, Note_on_c, 0, 87, 72
2, 219594, Note_on_c, 0, 99, 71
2, 219636, Note_on_c, 0, 99, 0
2, 219668, Note_on_c, 0, 87, 0
2, 219700, Note_on_c, 0, 80, 0
2, 219742, Note_on_c, 0, 70, 55
2, 219752, Note_on_c, 0, 85, 74
2, 219762, Note_on_c, 0, 97, 55
2, 219788, Note_on_c, 0, 80, 19
2, 219794, Note_on_c, 0, 85, 0
2, 219810, Note_on_c, 0, 97, 0
2, 219814, Note_on_c, 0, 70, 0
2, 219868, Note_on_c, 0, 85, 47
2, 219868, Note_on_c, 0, 97, 64
2, 219920, Note_on_c, 0, 97, 0
2, 219923, Note_on_c, 0, 85, 0
2, 219950, Note_on_c, 0, 80, 0
2, 220010, Note_on_c, 0, 99, 83
2, 220010, Note_on_c, 0, 87, 70
2, 220030, Note_on_c, 0, 72, 35
2, 220048, Note_on_c, 0, 99, 0
2, 220054, Note_on_c, 0, 80, 20
2, 220056, Note_on_c, 0, 87, 0
2, 220100, Note_on_c, 0, 72, 0
2, 220156, Note_on_c, 0, 87, 37
2, 220160, Note_on_c, 0, 99, 50
2, 220212, Note_on_c, 0, 80, 0
2, 220228, Note_on_c, 0, 99, 0
2, 220248, Note_on_c, 0, 87, 0
2, 220316, Note_on_c, 0, 80, 49
2, 220324, Note_on_c, 0, 88, 58
2, 220330, Note_on_c, 0, 100, 56
2, 220332, Note_on_c, 0, 73, 48
2, 220364, Note_on_c, 0, 80, 0
2, 220386, Note_on_c, 0, 73, 0
2, 220392, Note_on_c, 0, 100, 0
2, 220398, Note_on_c, 0, 88, 0
2, 220434, Control_c, 0, 64, 127
2, 220636, Note_on_c, 0, 44, 72
2, 220638, Note_on_c, 0, 56, 56
2, 220682, Note_on_c, 0, 44, 0
2, 220694, Note_on_c, 0, 56, 0
2, 220736, Note_on_c, 0, 44, 87
2, 220758, Control_c, 0, 64, 0
2, 220761, Note_on_c, 0, 56, 58
2, 220794, Note_on_c, 0, 44, 0
2, 220814, Note_on_c, 0, 56, 0
2, 220880, Note_on_c, 0, 43, 74
2, 220882, Note_on_c, 0, 55, 82
2, 220924, Note_on_c, 0, 55, 0
2, 220924, Note_on_c, 0, 43, 0
2, 221008, Note_on_c, 0, 55, 59
2, 221010, Note_on_c, 0, 43, 63
2, 221056, Note_on_c, 0, 55, 0
2, 221058, Note_on_c, 0, 43, 0
2, 221138, Note_on_c, 0, 54, 105
2, 221144, Note_on_c, 0, 42, 90
2, 221200, Note_on_c, 0, 42, 0
2, 221216, Note_on_c, 0, 54, 0
2, 221286, Note_on_c, 0, 54, 89
2, 221288, Note_on_c, 0, 42, 82
2, 221332, Note_on_c, 0, 42, 0
2, 221338, Note_on_c, 0, 54, 0
2, 221340, Control_c, 0, 64, 127
2, 221396, Note_on_c, 0, 54, 101
2, 221414, Note_on_c, 0, 66, 58
2, 221450, Note_on_c, 0, 54, 0
2, 221462, Note_on_c, 0, 66, 0
2, 221520, Note_on_c, 0, 54, 101
2, 221524, Note_on_c, 0, 66, 54
2, 221574, Note_on_c, 0, 54, 0
2, 221638, Note_on_c, 0, 66, 0
2, 221680, Note_on_c, 0, 78, 92
2, 221686, Note_on_c, 0, 66, 57
2, 221716, Note_on_c, 0, 78, 0
2, 221734, Note_on_c, 0, 66, 0
2, 221786, Note_on_c, 0, 78, 56
2, 221804, Note_on_c, 0, 66, 59
2, 221854, Note_on_c, 0, 66, 0
2, 221888, Note_on_c, 0, 78, 0
2, 221944, Note_on_c, 0, 78, 102
2, 221956, Note_on_c, 0, 90, 96
2, 221984, Note_on_c, 0, 78, 0
2, 221996, Note_on_c, 0, 90, 0
2, 222186, Control_c, 0, 64, 0
2, 222272, Note_on_c, 0, 78, 58
2, 222280, Note_on_c, 0, 73, 43
2, 222280, Note_on_c, 0, 100, 79
2, 222286, Note_on_c, 0, 88, 64
2, 222316, Note_on_c, 0, 100, 0
2, 222322, Note_on_c, 0, 78, 0
2, 222336, Note_on_c, 0, 88, 0
2, 222346, Note_on_c, 0, 73, 0
2, 222390, Note_on_c, 0, 78, 60
2, 222394, Note_on_c, 0, 100, 58
2, 222396, Note_on_c, 0, 88, 82
2, 222442, Note_on_c, 0, 88, 0
2, 222450, Note_on_c, 0, 100, 0
2, 222482, Note_on_c, 0, 78, 0
2, 222530, Note_on_c, 0, 99, 92
2, 222534, Note_on_c, 0, 87, 86
2, 222548, Note_on_c, 0, 71, 62
2, 222564, Note_on_c, 0, 99, 0
2, 222564, Note_on_c, 0, 78, 48
2, 222584, Note_on_c, 0, 87, 0
2, 222602, Note_on_c, 0, 71, 0
2, 222626, Note_on_c, 0, 78, 0
2, 222660, Note_on_c, 0, 87, 70
2, 222662, Note_on_c, 0, 99, 54
2, 222672, Note_on_c, 0, 78, 62
2, 222704, Note_on_c, 0, 87, 0
2, 222706, Note_on_c, 0, 99, 0
2, 222724, Note_on_c, 0, 78, 0
2, 222790, Note_on_c, 0, 78, 70
2, 222796, Note_on_c, 0, 85, 95
2, 222802, Note_on_c, 0, 70, 64
2, 222814, Note_on_c, 0, 97, 60
2, 222836, Note_on_c, 0, 85, 0
2, 222844, Note_on_c, 0, 78, 0
2, 222858, Note_on_c, 0, 97, 0
2, 222880, Note_on_c, 0, 70, 0
2, 222912, Note_on_c, 0, 97, 73
2, 222922, Note_on_c, 0, 85, 55
2, 222928, Note_on_c, 0, 78, 73
2, 222962, Note_on_c, 0, 97, 0
2, 222982, Note_on_c, 0, 85, 0
2, 223012, Note_on_c, 0, 78, 0
2, 223066, Note_on_c, 0, 83, 106
2, 223066, Note_on_c, 0, 95, 58
2, 223066, Note_on_c, 0, 68, 64
2, 223080, Note_on_c, 0, 78, 43
2, 223102, Note_on_c, 0, 83, 0
2, 223118, Note_on_c, 0, 95, 0
2, 223132, Note_on_c, 0, 78, 0
2, 223134, Note_on_c, 0, 68, 0
2, 223182, Note_on_c, 0, 95, 78
2, 223186, Note_on_c, 0, 78, 86
2, 223194, Note_on_c, 0, 83, 60
2, 223220, Note_on_c, 0, 95, 0
2, 223248, Note_on_c, 0, 83, 0
2, 223266, Note_on_c, 0, 78, 0
2, 223310, Note_on_c, 0, 85, 89
2, 223324, Note_on_c, 0, 97, 75
2, 223336, Note_on_c, 0, 78, 63
2, 223350, Note_on_c, 0, 70, 43
2, 223364, Note_on_c, 0, 97, 0
2, 223364, Note_on_c, 0, 85, 0
2, 223384, Note_on_c, 0, 78, 0
2, 223414, Note_on_c, 0, 70, 0
2, 223443, Note_on_c, 0, 78, 67
2, 223448, Note_on_c, 0, 97, 54
2, 223460, Note_on_c, 0, 85, 43
2, 223500, Note_on_c, 0, 97, 0
2, 223506, Note_on_c, 0, 78, 0
2, 223518, Note_on_c, 0, 85, 0
2, 223592, Note_on_c, 0, 78, 63
2, 223618, Note_on_c, 0, 87, 69
2, 223618, Note_on_c, 0, 99, 82
2, 223632, Note_on_c, 0, 78, 0
2, 223632, Note_on_c, 0, 71, 51
2, 223662, Control_c, 0, 64, 127
2, 223676, Note_on_c, 0, 99, 0
2, 223678, Note_on_c, 0, 87, 0
2, 223692, Note_on_c, 0, 71, 0
2, 223910, Note_on_c, 0, 53, 104
2, 223914, Note_on_c, 0, 41, 75
2, 223948, Note_on_c, 0, 53, 0
2, 223960, Note_on_c, 0, 41, 0
2, 224016, Note_on_c, 0, 41, 55
2, 224019, Note_on_c, 0, 53, 89
2, 224064, Note_on_c, 0, 53, 0
2, 224072, Note_on_c, 0, 41, 0
2, 224156, Note_on_c, 0, 52, 97
2, 224162, Note_on_c, 0, 40, 100
2, 224168, Control_c, 0, 64, 0
2, 224196, Note_on_c, 0, 40, 0
2, 224196, Note_on_c, 0, 52, 0
2, 224274, Note_on_c, 0, 52, 85
2, 224274, Note_on_c, 0, 40, 93
2, 224336, Note_on_c, 0, 52, 0
2, 224354, Control_c, 0, 64, 127
2, 224357, Note_on_c, 0, 40, 0
2, 224420, Note_on_c, 0, 39, 90
2, 224420, Note_on_c, 0, 51, 96
2, 224476, Control_c, 0, 64, 0
2, 224478, Note_on_c, 0, 39, 0
2, 224484, Note_on_c, 0, 51, 0
2, 224552, Note_on_c, 0, 51, 87
2, 224552, Note_on_c, 0, 39, 95
2, 224622, Note_on_c, 0, 51, 0
2, 224630, Note_on_c, 0, 39, 0
2, 224676, Control_c, 0, 64, 127
2, 224680, Note_on_c, 0, 51, 97
2, 224685, Note_on_c, 0, 63, 83
2, 224726, Note_on_c, 0, 63, 0
2, 224742, Note_on_c, 0, 51, 0
2, 224802, Note_on_c, 0, 63, 63
2, 224954, Note_on_c, 0, 75, 105
2, 224986, Note_on_c, 0, 75, 0
2, 225010, Note_on_c, 0, 63, 0
2, 225088, Note_on_c, 0, 75, 75
2, 225094, Note_on_c, 0, 63, 86
2, 225142, Note_on_c, 0, 63, 0
2, 225194, Note_on_c, 0, 75, 0
2, 225264, Note_on_c, 0, 75, 100
2, 225270, Note_on_c, 0, 87, 103
2, 225364, Note_on_c, 0, 75, 0
2, 225392, Note_on_c, 0, 87, 0
2, 225562, Note_on_c, 0, 67, 67
2, 225566, Note_on_c, 0, 75, 92
2, 225570, Note_on_c, 0, 87, 83
2, 225574, Note_on_c, 0, 63, 54
2, 225602, Note_on_c, 0, 75, 0
2, 225604, Note_on_c, 0, 87, 0
2, 225610, Note_on_c, 0, 67, 0
2, 225624, Note_on_c, 0, 63, 0
2, 225668, Note_on_c, 0, 67, 80
2, 225676, Note_on_c, 0, 87, 50
2, 225676, Note_on_c, 0, 75, 63
2, 225686, Note_on_c, 0, 63, 83
2, 225722, Note_on_c, 0, 63, 0
2, 225734, Note_on_c, 0, 67, 0
2, 225750, Note_on_c, 0, 87, 0
2, 225752, Note_on_c, 0, 75, 0
2, 225812, Control_c, 0, 64, 0
2, 225814, Note_on_c, 0, 75, 96
2, 225820, Note_on_c, 0, 87, 78
2, 225828, Note_on_c, 0, 65, 63
2, 225840, Note_on_c, 0, 68, 32
2, 225864, Note_on_c, 0, 87, 0
2, 225878, Note_on_c, 0, 65, 0
2, 225901, Note_on_c, 0, 75, 0
2, 225934, Note_on_c, 0, 65, 56
2, 225942, Note_on_c, 0, 87, 71
2, 225956, Note_on_c, 0, 75, 96
2, 225986, Note_on_c, 0, 65, 0
2, 225994, Note_on_c, 0, 68, 0
2, 225998, Control_c, 0, 64, 127
2, 226004, Note_on_c, 0, 75, 0
2, 226034, Note_on_c, 0, 87, 0
2, 226076, Note_on_c, 0, 69, 78
2, 226084, Note_on_c, 0, 88, 111
2, 226088, Note_on_c, 0, 76, 101
2, 226100, Note_on_c, 0, 66, 51
2, 226124, Note_on_c, 0, 88, 0
2, 226124, Note_on_c, 0, 69, 0
2, 226130, Note_on_c, 0, 76, 0
2, 226158, Note_on_c, 0, 66, 0
2, 226214, Note_on_c, 0, 69, 51
2, 226217, Note_on_c, 0, 75, 105
2, 226217, Note_on_c, 0, 66, 66
2, 226220, Note_on_c, 0, 87, 98
2, 226256, Note_on_c, 0, 87, 0
2, 226274, Note_on_c, 0, 75, 0
2, 226276, Note_on_c, 0, 66, 0
2, 226276, Note_on_c, 0, 69, 0
2, 226352, Note_on_c, 0, 73, 98
2, 226355, Note_on_c, 0, 85, 95
2, 226368, Note_on_c, 0, 67, 74
2, 226388, Note_on_c, 0, 64, 39
2, 226412, Note_on_c, 0, 67, 0
2, 226412, Note_on_c, 0, 85, 0
2, 226444, Note_on_c, 0, 64, 0
2, 226458, Note_on_c, 0, 73, 0
2, 226470, Note_on_c, 0, 67, 80
2, 226490, Note_on_c, 0, 83, 120
2, 226490, Note_on_c, 0, 71, 108
2, 226514, Note_on_c, 0, 64, 50
2, 226516, Note_on_c, 0, 67, 0
2, 226522, Note_on_c, 0, 83, 0
2, 226528, Note_on_c, 0, 71, 0
2, 226566, Note_on_c, 0, 64, 0
2, 226614, Note_on_c, 0, 70, 89
2, 226620, Note_on_c, 0, 82, 87
2, 226624, Note_on_c, 0, 62, 75
2, 226630, Note_on_c, 0, 65, 71
2, 226658, Note_on_c, 0, 82, 0
2, 226660, Note_on_c, 0, 70, 0
2, 226668, Note_on_c, 0, 62, 0
2, 226674, Note_on_c, 0, 65, 0
2, 226738, Note_on_c, 0, 65, 72
2, 226748, Note_on_c, 0, 68, 73
2, 226750, Note_on_c, 0, 80, 80
2, 226754, Note_on_c, 0, 62, 57
2, 226784, Note_on_c, 0, 80, 0
2, 226804, Note_on_c, 0, 68, 0
2, 226812, Control_c, 0, 64, 0
2, 226824, Note_on_c, 0, 62, 0
2, 226842, Note_on_c, 0, 65, 0
2, 226884, Note_on_c, 0, 79, 102
2, 226896, Note_on_c, 0, 67, 75
2, 226898, Note_on_c, 0, 63, 97
2, 226938, Note_on_c, 0, 63, 0
2, 226966, Note_on_c, 0, 67, 0
2, 227042, Control_c, 0, 64, 127
2, 227140, Note_on_c, 0, 79, 0
2, 227148, Note_on_c, 0, 34, 88
2, 227148, Note_on_c, 0, 46, 85
2, 227184, Note_on_c, 0, 34, 0
2, 227187, Note_on_c, 0, 46, 0
2, 227242, Note_on_c, 0, 46, 73
2, 227242, Note_on_c, 0, 34, 66
2, 227328, Note_on_c, 0, 34, 0
2, 227340, Note_on_c, 0, 46, 0
2, 227394, Note_on_c, 0, 50, 111
2, 227394, Note_on_c, 0, 38, 105
2, 227432, Note_on_c, 0, 38, 0
2, 227432, Note_on_c, 0, 50, 0
2, 227520, Note_on_c, 0, 38, 77
2, 227524, Note_on_c, 0, 50, 71
2, 227564, Note_on_c, 0, 38, 0
2, 227572, Note_on_c, 0, 50, 0
2, 227666, Note_on_c, 0, 51, 106
2, 227672, Note_on_c, 0, 39, 104
2, 227746, Note_on_c, 0, 39, 0
2, 227754, Note_on_c, 0, 51, 0
2, 227764, Control_c, 0, 64, 0
2, 227804, Note_on_c, 0, 51, 109
2, 227807, Note_on_c, 0, 39, 98
2, 227906, Note_on_c, 0, 51, 0
2, 227930, Note_on_c, 0, 63, 98
2, 227933, Note_on_c, 0, 51, 80
2, 227936, Note_on_c, 0, 39, 0
2, 227948, Control_c, 0, 64, 127
2, 227980, Note_on_c, 0, 63, 0
2, 228008, Note_on_c, 0, 51, 0
2, 228060, Note_on_c, 0, 63, 89
2, 228198, Note_on_c, 0, 63, 0
2, 228244, Note_on_c, 0, 75, 109
2, 228256, Note_on_c, 0, 63, 101
2, 228278, Note_on_c, 0, 75, 0
2, 228288, Note_on_c, 0, 63, 0
2, 228374, Note_on_c, 0, 75, 81
2, 228382, Note_on_c, 0, 63, 78
2, 228436, Note_on_c, 0, 63, 0
2, 228452, Note_on_c, 0, 75, 0
2, 228542, Note_on_c, 0, 75, 96
2, 228548, Note_on_c, 0, 87, 103
2, 228576, Note_on_c, 0, 75, 0
2, 228584, Note_on_c, 0, 87, 0
2, 228850, Note_on_c, 0, 75, 86
2, 228852, Note_on_c, 0, 87, 109
2, 228854, Note_on_c, 0, 99, 103
2, 228858, Note_on_c, 0, 67, 66
2, 228884, Note_on_c, 0, 99, 0
2, 228884, Note_on_c, 0, 87, 0
2, 228887, Note_on_c, 0, 75, 0
2, 228908, Note_on_c, 0, 67, 0
2, 228972, Note_on_c, 0, 67, 67
2, 228978, Note_on_c, 0, 99, 75
2, 228980, Note_on_c, 0, 87, 80
2, 228980, Note_on_c, 0, 75, 48
2, 229022, Note_on_c, 0, 67, 0
2, 229025, Note_on_c, 0, 75, 0
2, 229054, Note_on_c, 0, 87, 0
2, 229078, Note_on_c, 0, 99, 0
2, 229100, Control_c, 0, 64, 0
2, 229120, Note_on_c, 0, 87, 101
2, 229126, Note_on_c, 0, 99, 111
2, 229126, Note_on_c, 0, 77, 97
2, 229140, Note_on_c, 0, 68, 86
2, 229172, Note_on_c, 0, 77, 0
2, 229180, Note_on_c, 0, 68, 0
2, 229198, Note_on_c, 0, 87, 0
2, 229206, Note_on_c, 0, 99, 0
2, 229258, Note_on_c, 0, 68, 49
2, 229258, Note_on_c, 0, 87, 89
2, 229261, Note_on_c, 0, 99, 108
2, 229266, Note_on_c, 0, 77, 77
2, 229270, Control_c, 0, 64, 127
2, 229336, Note_on_c, 0, 77, 0
2, 229346, Note_on_c, 0, 87, 0
2, 229352, Note_on_c, 0, 68, 0
2, 229368, Note_on_c, 0, 99, 0
2, 229378, Control_c, 0, 64, 0
2, 229406, Note_on_c, 0, 100, 110
2, 229408, Note_on_c, 0, 69, 93
2, 229412, Note_on_c, 0, 88, 106
2, 229418, Note_on_c, 0, 78, 101
2, 229458, Note_on_c, 0, 78, 0
2, 229466, Note_on_c, 0, 88, 0
2, 229466, Note_on_c, 0, 69, 0
2, 229490, Note_on_c, 0, 100, 0
2, 229546, Control_c, 0, 64, 127
2, 229554, Note_on_c, 0, 69, 71
2, 229557, Note_on_c, 0, 87, 105
2, 229560, Note_on_c, 0, 99, 101
2, 229566, Note_on_c, 0, 78, 75
2, 229602, Note_on_c, 0, 69, 0
2, 229614, Note_on_c, 0, 99, 0
2, 229616, Note_on_c, 0, 78, 0
2, 229658, Note_on_c, 0, 87, 0
2, 229708, Note_on_c, 0, 85, 105
2, 229711, Note_on_c, 0, 97, 95
2, 229716, Note_on_c, 0, 79, 103
2, 229734, Note_on_c, 0, 70, 77
2, 229738, Note_on_c, 0, 97, 0
2, 229762, Note_on_c, 0, 79, 0
2, 229778, Note_on_c, 0, 70, 0
2, 229788, Note_on_c, 0, 85, 0
2, 229832, Note_on_c, 0, 70, 70
2, 229848, Note_on_c, 0, 79, 74
2, 229856, Note_on_c, 0, 95, 101
2, 229856, Note_on_c, 0, 83, 121
2, 229896, Note_on_c, 0, 83, 0
2, 229901, Note_on_c, 0, 95, 0
2, 229910, Note_on_c, 0, 79, 0
2, 229990, Note_on_c, 0, 82, 101
2, 229994, Note_on_c, 0, 94, 97
2, 229998, Note_on_c, 0, 74, 79
2, 230008, Note_on_c, 0, 77, 63
2, 230010, Note_on_c, 0, 70, 0
2, 230040, Note_on_c, 0, 74, 0
2, 230043, Note_on_c, 0, 94, 0
2, 230050, Note_on_c, 0, 77, 0
2, 230094, Note_on_c, 0, 82, 0
2, 230118, Note_on_c, 0, 77, 78
2, 230124, Note_on_c, 0, 74, 70
2, 230134, Note_on_c, 0, 92, 96
2, 230136, Note_on_c, 0, 80, 98
2, 230170, Note_on_c, 0, 74, 0
2, 230176, Control_c, 0, 64, 0
2, 230178, Note_on_c, 0, 82, 19
2, 230180, Note_on_c, 0, 92, 0
2, 230200, Note_on_c, 0, 77, 0
2, 230224, Note_on_c, 0, 80, 0
2, 230238, Note_on_c, 0, 82, 0
2, 230270, Note_on_c, 0, 75, 89
2, 230272, Note_on_c, 0, 91, 102
2, 230284, Note_on_c, 0, 79, 105
2, 230292, Note_on_c, 0, 70, 57
2, 230308, Note_on_c, 0, 91, 0
2, 230308, Note_on_c, 0, 75, 0
2, 230318, Note_on_c, 0, 79, 0
2, 230330, Control_c, 0, 64, 127
2, 230340, Note_on_c, 0, 70, 0
2, 230400, Note_on_c, 0, 75, 62
2, 230402, Note_on_c, 0, 70, 59
2, 230408, Note_on_c, 0, 90, 95
2, 230410, Note_on_c, 0, 78, 96
2, 230444, Note_on_c, 0, 75, 0
2, 230454, Note_on_c, 0, 90, 0
2, 230464, Note_on_c, 0, 70, 0
2, 230480, Note_on_c, 0, 78, 0
2, 230552, Note_on_c, 0, 71, 105
2, 230562, Note_on_c, 0, 89, 100
2, 230562, Note_on_c, 0, 77, 102
2, 230562, Note_on_c, 0, 68, 73
2, 230590, Note_on_c, 0, 71, 0
2, 230600, Note_on_c, 0, 89, 0
2, 230604, Note_on_c, 0, 68, 0
2, 230606, Note_on_c, 0, 77, 0
2, 230684, Note_on_c, 0, 71, 78
2, 230687, Note_on_c, 0, 68, 44
2, 230694, Note_on_c, 0, 88, 97
2, 230702, Note_on_c, 0, 76, 85
2, 230746, Note_on_c, 0, 76, 0
2, 230746, Note_on_c, 0, 88, 0
2, 230746, Note_on_c, 0, 68, 0
2, 230752, Note_on_c, 0, 71, 0
2, 230830, Note_on_c, 0, 66, 77
2, 230834, Note_on_c, 0, 86, 101
2, 230838, Note_on_c, 0, 69, 81
2, 230840, Note_on_c, 0, 74, 101
2, 230874, Note_on_c, 0, 74, 0
2, 230874, Note_on_c, 0, 86, 0
2, 230880, Note_on_c, 0, 66, 0
2, 230884, Note_on_c, 0, 69, 0
2, 230966, Note_on_c, 0, 69, 56
2, 230972, Note_on_c, 0, 66, 50
2, 230975, Note_on_c, 0, 87, 98
2, 230978, Note_on_c, 0, 75, 96
2, 231034, Note_on_c, 0, 87, 0
2, 231036, Note_on_c, 0, 75, 0
2, 231052, Note_on_c, 0, 69, 0
2, 231060, Note_on_c, 0, 66, 0
2, 231126, Note_on_c, 0, 70, 89
2, 231132, Note_on_c, 0, 88, 111
2, 231132, Note_on_c, 0, 76, 109
2, 231136, Note_on_c, 0, 67, 96
2, 231160, Control_c, 0, 64, 0
2, 231163, Note_on_c, 0, 88, 0
2, 231168, Note_on_c, 0, 76, 0
2, 231170, Note_on_c, 0, 70, 0
2, 231180, Note_on_c, 0, 67, 0
2, 231260, Note_on_c, 0, 70, 63
2, 231270, Note_on_c, 0, 75, 108
2, 231270, Note_on_c, 0, 67, 66
2, 231274, Note_on_c, 0, 87, 95
2, 231298, Control_c, 0, 64, 127
2, 231316, Note_on_c, 0, 87, 0
2, 231320, Note_on_c, 0, 67, 0
2, 231328, Note_on_c, 0, 70, 0
2, 231370, Note_on_c, 0, 75, 0
2, 231408, Note_on_c, 0, 67, 85
2, 231412, Note_on_c, 0, 85, 98
2, 231412, Note_on_c, 0, 73, 100
2, 231436, Note_on_c, 0, 64, 80
2, 231474, Note_on_c, 0, 64, 0
2, 231488, Note_on_c, 0, 85, 0
2, 231502, Note_on_c, 0, 67, 0
2, 231522, Note_on_c, 0, 73, 0
2, 231550, Note_on_c, 0, 64, 81
2, 231556, Note_on_c, 0, 83, 118
2, 231558, Note_on_c, 0, 71, 109
2, 231568, Note_on_c, 0, 67, 59
2, 231590, Note_on_c, 0, 83, 0
2, 231590, Note_on_c, 0, 64, 0
2, 231593, Note_on_c, 0, 71, 0
2, 231628, Note_on_c, 0, 67, 0
2, 231690, Note_on_c, 0, 65, 102
2, 231693, Note_on_c, 0, 62, 86
2, 231696, Note_on_c, 0, 70, 101
2, 231696, Note_on_c, 0, 82, 93
2, 231732, Note_on_c, 0, 82, 0
2, 231738, Note_on_c, 0, 62, 0
2, 231750, Note_on_c, 0, 70, 0
2, 231762, Note_on_c, 0, 65, 0
2, 231814, Note_on_c, 0, 65, 93
2, 231822, Note_on_c, 0, 80, 97
2, 231824, Note_on_c, 0, 68, 96
2, 231890, Note_on_c, 0, 80, 0
2, 231904, Note_on_c, 0, 68, 0
2, 231916, Note_on_c, 0, 65, 0
2, 231942, Note_on_c, 0, 63, 101
2, 231964, Note_on_c, 0, 58, 83
2, 231964, Note_on_c, 0, 79, 105
2, 231970, Note_on_c, 0, 67, 104
2, 231998, Note_on_c, 0, 79, 0
2, 232006, Note_on_c, 0, 67, 0
2, 232028, Note_on_c, 0, 58, 0
2, 232030, Note_on_c, 0, 63, 0
2, 232074, Note_on_c, 0, 66, 59
2, 232084, Note_on_c, 0, 58, 80
2, 232094, Note_on_c, 0, 78, 78
2, 232094, Note_on_c, 0, 63, 52
2, 232102, Note_on_c, 0, 68, 33
2, 232130, Note_on_c, 0, 58, 0
2, 232134, Note_on_c, 0, 66, 0
2, 232136, Note_on_c, 0, 78, 0
2, 232146, Note_on_c, 0, 63, 0
2, 232174, Note_on_c, 0, 68, 0
2, 232212, Note_on_c, 0, 77, 92
2, 232215, Note_on_c, 0, 59, 109
2, 232220, Note_on_c, 0, 65, 79
2, 232236, Note_on_c, 0, 56, 73
2, 232246, Note_on_c, 0, 77, 0
2, 232260, Note_on_c, 0, 59, 0
2, 232260, Note_on_c, 0, 65, 0
2, 232282, Note_on_c, 0, 56, 0
2, 232332, Note_on_c, 0, 56, 89
2, 232332, Note_on_c, 0, 59, 80
2, 232338, Note_on_c, 0, 64, 102
2, 232340, Note_on_c, 0, 76, 83
2, 232382, Note_on_c, 0, 76, 0
2, 232382, Note_on_c, 0, 64, 0
2, 232390, Note_on_c, 0, 59, 0
2, 232434, Note_on_c, 0, 56, 0
2, 232472, Note_on_c, 0, 74, 102
2, 232474, Note_on_c, 0, 62, 97
2, 232478, Note_on_c, 0, 54, 89
2, 232484, Note_on_c, 0, 57, 79
2, 232506, Note_on_c, 0, 74, 0
2, 232514, Note_on_c, 0, 62, 0
2, 232526, Note_on_c, 0, 57, 0
2, 232530, Note_on_c, 0, 54, 0
2, 232590, Note_on_c, 0, 54, 95
2, 232602, Note_on_c, 0, 63, 96
2, 232610, Note_on_c, 0, 57, 51
2, 232613, Note_on_c, 0, 75, 94
2, 232642, Note_on_c, 0, 63, 0
2, 232646, Note_on_c, 0, 54, 0
2, 232656, Note_on_c, 0, 57, 0
2, 232660, Note_on_c, 0, 75, 0
2, 232726, Control_c, 0, 64, 0
2, 232744, Note_on_c, 0, 58, 90
2, 232750, Note_on_c, 0, 55, 96
2, 232756, Note_on_c, 0, 64, 102
2, 232756, Note_on_c, 0, 76, 86
2, 232790, Note_on_c, 0, 64, 0
2, 232790, Note_on_c, 0, 55, 0
2, 232792, Note_on_c, 0, 58, 0
2, 232794, Note_on_c, 0, 76, 0
2, 232856, Note_on_c, 0, 58, 63
2, 232856, Control_c, 0, 64, 127
2, 232878, Note_on_c, 0, 55, 52
2, 232884, Note_on_c, 0, 63, 105
2, 232896, Note_on_c, 0, 75, 72
2, 232924, Note_on_c, 0, 63, 0
2, 232924, Note_on_c, 0, 55, 0
2, 232934, Note_on_c, 0, 58, 0
2, 232940, Note_on_c, 0, 75, 0
2, 233010, Note_on_c, 0, 55, 88
2, 233013, Note_on_c, 0, 61, 104
2, 233018, Note_on_c, 0, 73, 87
2, 233034, Note_on_c, 0, 52, 81
2, 233066, Note_on_c, 0, 73, 0
2, 233074, Note_on_c, 0, 52, 0
2, 233098, Note_on_c, 0, 61, 0
2, 233146, Note_on_c, 0, 52, 70
2, 233150, Note_on_c, 0, 50, 58
2, 233154, Note_on_c, 0, 71, 101
2, 233154, Note_on_c, 0, 59, 103
2, 233168, Note_on_c, 0, 55, 0
2, 233186, Note_on_c, 0, 52, 0
2, 233188, Note_on_c, 0, 59, 0
2, 233191, Note_on_c, 0, 71, 0
2, 233208, Note_on_c, 0, 50, 0
2, 233258, Note_on_c, 0, 50, 113
2, 233264, Note_on_c, 0, 53, 121
2, 233272, Note_on_c, 0, 58, 88
2, 233278, Note_on_c, 0, 70, 89
2, 233302, Note_on_c, 0, 53, 0
2, 233305, Note_on_c, 0, 50, 0
2, 233324, Note_on_c, 0, 70, 0
2, 233366, Note_on_c, 0, 58, 0
2, 233384, Note_on_c, 0, 53, 111
2, 233387, Note_on_c, 0, 50, 83
2, 233402, Control_c, 0, 64, 0
2, 233410, Note_on_c, 0, 68, 92
2, 233414, Note_on_c, 0, 56, 97
2, 233436, Note_on_c, 0, 50, 0
2, 233460, Note_on_c, 0, 53, 0
2, 233494, Control_c, 0, 64, 127
2, 233499, Note_on_c, 0, 56, 0
2, 233530, Note_on_c, 0, 67, 106
2, 233532, Note_on_c, 0, 51, 101
2, 233534, Note_on_c, 0, 49, 73
2, 233540, Note_on_c, 0, 68, 0
2, 233540, Note_on_c, 0, 55, 100
2, 233548, Note_on_c, 0, 46, 79
2, 233566, Note_on_c, 0, 51, 0
2, 233569, Note_on_c, 0, 67, 0
2, 233578, Note_on_c, 0, 55, 0
2, 233578, Note_on_c, 0, 49, 0
2, 233590, Note_on_c, 0, 46, 0
2, 233652, Note_on_c, 0, 46, 73
2, 233662, Note_on_c, 0, 54, 111
2, 233664, Note_on_c, 0, 51, 52
2, 233668, Note_on_c, 0, 66, 93
2, 233714, Note_on_c, 0, 66, 0
2, 233720, Note_on_c, 0, 51, 0
2, 233730, Note_on_c, 0, 54, 0
2, 233758, Note_on_c, 0, 46, 0
2, 233798, Note_on_c, 0, 65, 102
2, 233798, Note_on_c, 0, 47, 109
2, 233801, Note_on_c, 0, 53, 121
2, 233812, Note_on_c, 0, 44, 86
2, 233834, Note_on_c, 0, 65, 0
2, 233840, Note_on_c, 0, 47, 0
2, 233840, Note_on_c, 0, 53, 0
2, 233850, Note_on_c, 0, 44, 0
2, 233910, Note_on_c, 0, 47, 85
2, 233912, Note_on_c, 0, 44, 77
2, 233924, Note_on_c, 0, 64, 108
2, 233930, Note_on_c, 0, 52, 115
2, 233996, Note_on_c, 0, 52, 0
2, 234006, Note_on_c, 0, 47, 0
2, 234006, Note_on_c, 0, 44, 0
2, 234014, Note_on_c, 0, 64, 0
2, 234057, Note_on_c, 0, 45, 105
2, 234068, Note_on_c, 0, 62, 94
2, 234071, Note_on_c, 0, 50, 100
2, 234074, Note_on_c, 0, 42, 87
2, 234108, Note_on_c, 0, 62, 0
2, 234111, Note_on_c, 0, 52, 37
2, 234124, Note_on_c, 0, 42, 0
2, 234126, Note_on_c, 0, 50, 0
2, 234164, Note_on_c, 0, 45, 0
2, 234178, Note_on_c, 0, 52, 0
2, 234192, Note_on_c, 0, 42, 86
2, 234200, Note_on_c, 0, 46, 104
2, 234214, Note_on_c, 0, 51, 102
2, 234228, Note_on_c, 0, 63, 82
2, 234248, Note_on_c, 0, 51, 0
2, 234268, Note_on_c, 0, 63, 0
2, 234282, Note_on_c, 0, 46, 0
2, 234286, Note_on_c, 0, 42, 0
2, 234334, Note_on_c, 0, 46, 95
2, 234342, Note_on_c, 0, 43, 112
2, 234345, Note_on_c, 0, 64, 118
2, 234360, Note_on_c, 0, 52, 87
2, 234380, Note_on_c, 0, 53, 92
2, 234386, Control_c, 0, 64, 0
2, 234406, Note_on_c, 0, 52, 0
2, 234424, Note_on_c, 0, 53, 0
2, 234426, Note_on_c, 0, 43, 0
2, 234446, Note_on_c, 0, 46, 0
2, 234449, Note_on_c, 0, 64, 0
2, 234478, Control_c, 0, 64, 127
2, 234486, Note_on_c, 0, 43, 102
2, 234489, Note_on_c, 0, 46, 96
2, 234489, Note_on_c, 0, 52, 95
2, 234506, Note_on_c, 0, 61, 59
2, 234506, Note_on_c, 0, 62, 82
2, 234514, Note_on_c, 0, 53, 65
2, 234544, Note_on_c, 0, 52, 0
2, 234548, Note_on_c, 0, 62, 0
2, 234568, Note_on_c, 0, 61, 0
2, 234571, Note_on_c, 0, 43, 0
2, 234574, Note_on_c, 0, 53, 0
2, 234600, Note_on_c, 0, 46, 0
2, 234632, Note_on_c, 0, 43, 92
2, 234640, Note_on_c, 0, 46, 92
2, 234643, Note_on_c, 0, 52, 86
2, 234654, Note_on_c, 0, 61, 73
2, 234692, Note_on_c, 0, 52, 0
2, 234698, Note_on_c, 0, 43, 0
2, 234742, Note_on_c, 0, 46, 0
2, 234766, Note_on_c, 0, 46, 47
2, 234766, Note_on_c, 0, 52, 100
2, 234778, Note_on_c, 0, 43, 79
2, 234781, Note_on_c, 0, 59, 93
2, 234796, Note_on_c, 0, 61, 0
2, 234814, Note_on_c, 0, 52, 0
2, 234832, Note_on_c, 0, 43, 0
2, 234834, Note_on_c, 0, 59, 0
2, 234864, Note_on_c, 0, 46, 0
2, 234918, Note_on_c, 0, 47, 109
2, 234924, Note_on_c, 0, 53, 116
2, 234924, Note_on_c, 0, 58, 93
2, 234926, Note_on_c, 0, 38, 104
2, 234974, Note_on_c, 0, 38, 0
2, 235006, Note_on_c, 0, 53, 0
2, 235009, Note_on_c, 0, 47, 0
2, 235062, Note_on_c, 0, 58, 0
2, 235065, Note_on_c, 0, 47, 105
2, 235074, Note_on_c, 0, 53, 113
2, 235082, Note_on_c, 0, 38, 80
2, 235086, Note_on_c, 0, 56, 96
2, 235130, Note_on_c, 0, 38, 0
2, 235156, Note_on_c, 0, 47, 0
2, 235168, Note_on_c, 0, 53, 0
2, 235232, Note_on_c, 0, 56, 0
2, 235266, Note_on_c, 0, 46, 105
2, 235266, Note_on_c, 0, 55, 115
2, 235269, Note_on_c, 0, 39, 103
2, 235354, Control_c, 0, 64, 0
2, 235558, Note_on_c, 0, 55, 0
2, 235566, Note_on_c, 0, 62, 109
2, 235568, Note_on_c, 0, 39, 0
2, 235574, Note_on_c, 0, 50, 96
2, 235576, Note_on_c, 0, 46, 0
2, 235600, Control_c, 0, 64, 127
2, 235616, Note_on_c, 0, 50, 0
2, 235656, Note_on_c, 0, 62, 0
2, 235690, Note_on_c, 0, 50, 89
2, 235760, Note_on_c, 0, 50, 0
2, 235824, Note_on_c, 0, 63, 105
2, 235824, Note_on_c, 0, 51, 95
2, 235862, Note_on_c, 0, 51, 0
2, 235866, Note_on_c, 0, 63, 0
2, 235926, Note_on_c, 0, 51, 80
2, 236016, Note_on_c, 0, 51, 0
2, 236060, Note_on_c, 0, 69, 79
2, 236060, Note_on_c, 0, 57, 88
2, 236102, Note_on_c, 0, 57, 0
2, 236108, Note_on_c, 0, 69, 0
2, 236108, Note_on_c, 0, 67, 16
2, 236162, Note_on_c, 0, 67, 0
2, 236168, Note_on_c, 0, 57, 55
2, 236180, Note_on_c, 0, 55, 63
2, 236200, Note_on_c, 0, 45, 29
2, 236216, Note_on_c, 0, 57, 0
2, 236232, Note_on_c, 0, 55, 0
2, 236270, Note_on_c, 0, 45, 0
2, 236290, Note_on_c, 0, 70, 93
2, 236290, Note_on_c, 0, 58, 93
2, 236338, Control_c, 0, 64, 0
2, 236390, Note_on_c, 0, 70, 0
2, 236394, Note_on_c, 0, 46, 95
2, 236448, Note_on_c, 0, 46, 0
2, 236499, Note_on_c, 0, 58, 0
2, 236508, Control_c, 0, 64, 127
2, 236526, Note_on_c, 0, 74, 112
2, 236528, Note_on_c, 0, 62, 102
2, 236558, Note_on_c, 0, 74, 0
2, 236562, Note_on_c, 0, 62, 0
2, 236632, Note_on_c, 0, 62, 71
2, 236642, Note_on_c, 0, 50, 105
2, 236680, Note_on_c, 0, 50, 0
2, 236688, Note_on_c, 0, 62, 0
2, 236762, Note_on_c, 0, 63, 103
2, 236762, Note_on_c, 0, 75, 101
2, 236796, Note_on_c, 0, 75, 0
2, 236796, Note_on_c, 0, 63, 0
2, 236866, Note_on_c, 0, 63, 93
2, 236878, Note_on_c, 0, 51, 98
2, 236922, Note_on_c, 0, 51, 0
2, 236966, Note_on_c, 0, 63, 0
2, 236966, Control_c, 0, 64, 0
2, 236992, Note_on_c, 0, 81, 105
2, 236992, Note_on_c, 0, 69, 96
2, 237026, Note_on_c, 0, 81, 0
2, 237029, Note_on_c, 0, 69, 0
2, 237094, Note_on_c, 0, 69, 56
2, 237102, Note_on_c, 0, 57, 92
2, 237122, Control_c, 0, 64, 127
2, 237142, Note_on_c, 0, 57, 0
2, 237150, Note_on_c, 0, 69, 0
2, 237208, Note_on_c, 0, 70, 90
2, 237212, Note_on_c, 0, 82, 95
2, 237246, Note_on_c, 0, 82, 0
2, 237248, Note_on_c, 0, 70, 0
2, 237300, Note_on_c, 0, 70, 83
2, 237316, Note_on_c, 0, 58, 86
2, 237360, Note_on_c, 0, 58, 0
2, 237406, Note_on_c, 0, 70, 0
2, 237412, Note_on_c, 0, 86, 116
2, 237415, Note_on_c, 0, 74, 110
2, 237444, Control_c, 0, 64, 0
2, 237450, Note_on_c, 0, 74, 0
2, 237454, Note_on_c, 0, 86, 0
2, 237514, Note_on_c, 0, 74, 100
2, 237526, Note_on_c, 0, 62, 102
2, 237552, Control_c, 0, 64, 127
2, 237564, Note_on_c, 0, 62, 0
2, 237578, Note_on_c, 0, 74, 0
2, 237624, Note_on_c, 0, 75, 100
2, 237624, Note_on_c, 0, 87, 101
2, 237658, Note_on_c, 0, 75, 0
2, 237666, Note_on_c, 0, 87, 0
2, 237720, Note_on_c, 0, 75, 89
2, 237738, Note_on_c, 0, 63, 98
2, 237772, Note_on_c, 0, 63, 0
2, 237812, Note_on_c, 0, 75, 0
2, 237838, Note_on_c, 0, 93, 105
2, 237844, Note_on_c, 0, 81, 93
2, 237872, Note_on_c, 0, 93, 0
2, 237880, Note_on_c, 0, 81, 0
2, 237932, Note_on_c, 0, 81, 100
2, 237946, Note_on_c, 0, 69, 85
2, 237976, Note_on_c, 0, 81, 0
2, 237986, Note_on_c, 0, 69, 0
2, 238036, Note_on_c, 0, 82, 100
2, 238038, Note_on_c, 0, 94, 98
2, 238072, Note_on_c, 0, 82, 0
2, 238075, Note_on_c, 0, 94, 0
2, 238120, Control_c, 0, 64, 0
2, 238138, Note_on_c, 0, 82, 82
2, 238150, Note_on_c, 0, 70, 95
2, 238192, Note_on_c, 0, 70, 0
2, 238248, Note_on_c, 0, 86, 102
2, 238250, Note_on_c, 0, 82, 0
2, 238250, Note_on_c, 0, 98, 118
2, 238280, Note_on_c, 0, 98, 0
2, 238284, Note_on_c, 0, 86, 0
2, 238320, Control_c, 0, 64, 127
2, 238356, Note_on_c, 0, 86, 77
2, 238370, Note_on_c, 0, 74, 111
2, 238400, Note_on_c, 0, 74, 0
2, 238434, Note_on_c, 0, 86, 0
2, 238460, Note_on_c, 0, 87, 105
2, 238464, Note_on_c, 0, 99, 103
2, 238508, Note_on_c, 0, 99, 0
2, 238534, Note_on_c, 0, 87, 0
2, 238584, Note_on_c, 0, 87, 105
2, 238587, Note_on_c, 0, 75, 98
2, 238612, Note_on_c, 0, 87, 0
2, 238618, Note_on_c, 0, 75, 0
2, 238686, Note_on_c, 0, 86, 111
2, 238686, Note_on_c, 0, 98, 120
2, 238722, Note_on_c, 0, 98, 0
2, 238722, Note_on_c, 0, 86, 0
2, 238790, Note_on_c, 0, 86, 95
2, 238800, Note_on_c, 0, 74, 111
2, 238830, Note_on_c, 0, 74, 0
2, 238870, Note_on_c, 0, 86, 0
2, 238896, Note_on_c, 0, 87, 109
2, 238899, Note_on_c, 0, 99, 109
2, 238996, Note_on_c, 0, 99, 0
2, 239018, Note_on_c, 0, 75, 101
2, 239050, Note_on_c, 0, 75, 0
2, 239088, Note_on_c, 0, 87, 0
2, 239128, Note_on_c, 0, 86, 116
2, 239128, Note_on_c, 0, 98, 123
2, 239164, Note_on_c, 0, 98, 0
2, 239164, Note_on_c, 0, 86, 0
2, 239228, Note_on_c, 0, 86, 96
2, 239238, Note_on_c, 0, 74, 115
2, 239272, Note_on_c, 0, 74, 0
2, 239316, Note_on_c, 0, 86, 0
2, 239388, Note_on_c, 0, 99, 105
2, 239390, Note_on_c, 0, 87, 111
2, 239426, Control_c, 0, 64, 0
2, 239504, Note_on_c, 0, 85, 110
2, 239512, Note_on_c, 0, 73, 98
2, 239536, Note_on_c, 0, 87, 0
2, 239548, Note_on_c, 0, 99, 0
2, 239594, Note_on_c, 0, 85, 0
2, 239600, Note_on_c, 0, 73, 0
2, 239626, Control_c, 0, 64, 127
2, 239648, Note_on_c, 0, 99, 78
2, 239650, Note_on_c, 0, 87, 90
2, 239748, Note_on_c, 0, 99, 0
2, 239756, Note_on_c, 0, 87, 0
2, 239762, Note_on_c, 0, 82, 95
2, 239771, Note_on_c, 0, 70, 87
2, 239816, Note_on_c, 0, 82, 0
2, 239820, Note_on_c, 0, 70, 0
2, 239888, Note_on_c, 0, 87, 89
2, 239888, Note_on_c, 0, 99, 89
2, 239944, Note_on_c, 0, 87, 0
2, 239956, Note_on_c, 0, 99, 0
2, 240006, Note_on_c, 0, 79, 100
2, 240012, Note_on_c, 0, 67, 90
2, 240042, Note_on_c, 0, 79, 0
2, 240052, Note_on_c, 0, 67, 0
2, 240128, Note_on_c, 0, 87, 98
2, 240128, Note_on_c, 0, 99, 100
2, 240234, Note_on_c, 0, 99, 0
2, 240234, Note_on_c, 0, 87, 0
2, 240234, Note_on_c, 0, 75, 96
2, 240242, Note_on_c, 0, 63, 98
2, 240308, Note_on_c, 0, 63, 0
2, 240342, Note_on_c, 0, 75, 0
2, 240366, Note_on_c, 0, 99, 87
2, 240368, Note_on_c, 0, 87, 88
2, 240472, Note_on_c, 0, 87, 0
2, 240472, Note_on_c, 0, 99, 0
2, 240482, Note_on_c, 0, 73, 86
2, 240488, Note_on_c, 0, 61, 94
2, 240548, Note_on_c, 0, 61, 0
2, 240552, Note_on_c, 0, 73, 0
2, 240598, Note_on_c, 0, 87, 92
2, 240600, Note_on_c, 0, 99, 92
2, 240676, Note_on_c, 0, 87, 0
2, 240686, Note_on_c, 0, 99, 0
2, 240710, Note_on_c, 0, 70, 82
2, 240713, Note_on_c, 0, 58, 83
2, 240758, Note_on_c, 0, 70, 0
2, 240764, Note_on_c, 0, 58, 0
2, 240826, Note_on_c, 0, 99, 102
2, 240826, Note_on_c, 0, 87, 103
2, 240918, Note_on_c, 0, 87, 0
2, 240940, Note_on_c, 0, 99, 0
2, 240952, Note_on_c, 0, 67, 103
2, 240954, Note_on_c, 0, 55, 104
2, 241046, Note_on_c, 0, 67, 0
2, 241066, Note_on_c, 0, 87, 96
2, 241072, Note_on_c, 0, 55, 0
2, 241074, Note_on_c, 0, 99, 98
2, 241164, Note_on_c, 0, 87, 0
2, 241178, Note_on_c, 0, 99, 0
2, 241206, Note_on_c, 0, 63, 101
2, 241212, Note_on_c, 0, 51, 100
2, 241288, Note_on_c, 0, 63, 0
2, 241292, Note_on_c, 0, 51, 0
2, 241304, Note_on_c, 0, 87, 102
2, 241312, Note_on_c, 0, 99, 102
2, 241412, Note_on_c, 0, 99, 0
2, 241412, Note_on_c, 0, 87, 0
2, 241432, Note_on_c, 0, 61, 105
2, 241442, Note_on_c, 0, 49, 98
2, 241514, Note_on_c, 0, 49, 0
2, 241534, Note_on_c, 0, 61, 0
2, 241552, Note_on_c, 0, 99, 103
2, 241552, Note_on_c, 0, 87, 103
2, 241640, Note_on_c, 0, 87, 0
2, 241656, Note_on_c, 0, 99, 0
2, 241676, Note_on_c, 0, 58, 90
2, 241684, Note_on_c, 0, 46, 98
2, 241778, Note_on_c, 0, 58, 0
2, 241804, Note_on_c, 0, 87, 105
2, 241806, Note_on_c, 0, 99, 102
2, 241816, Note_on_c, 0, 46, 0
2, 241888, Note_on_c, 0, 87, 0
2, 241900, Note_on_c, 0, 99, 0
2, 241936, Note_on_c, 0, 43, 103
2, 241938, Note_on_c, 0, 55, 106
2, 242038, Note_on_c, 0, 55, 0
2, 242038, Note_on_c, 0, 43, 0
2, 242072, Note_on_c, 0, 87, 102
2, 242075, Note_on_c, 0, 99, 101
2, 242164, Note_on_c, 0, 99, 0
2, 242176, Note_on_c, 0, 87, 0
2, 242220, Note_on_c, 0, 51, 103
2, 242223, Note_on_c, 0, 39, 106
2, 242318, Note_on_c, 0, 51, 0
2, 242352, Note_on_c, 0, 39, 0
2, 242388, Note_on_c, 0, 87, 105
2, 242392, Note_on_c, 0, 99, 102
2, 242494, Note_on_c, 0, 99, 0
2, 242494, Note_on_c, 0, 87, 0
2, 242602, Note_on_c, 0, 87, 80
2, 242606, Note_on_c, 0, 99, 89
2, 242654, Note_on_c, 0, 99, 0
2, 242676, Note_on_c, 0, 87, 0
2, 242776, Note_on_c, 0, 87, 71
2, 242782, Note_on_c, 0, 99, 83
2, 242822, Note_on_c, 0, 99, 0
2, 242836, Note_on_c, 0, 87, 0
2, 242930, Note_on_c, 0, 87, 65
2, 242934, Note_on_c, 0, 99, 77
2, 242980, Note_on_c, 0, 99, 0
2, 242990, Note_on_c, 0, 87, 0
2, 243074, Note_on_c, 0, 87, 71
2, 243076, Note_on_c, 0, 99, 83
2, 243154, Note_on_c, 0, 87, 0
2, 243156, Note_on_c, 0, 99, 0
2, 243228, Note_on_c, 0, 99, 90
2, 243228, Note_on_c, 0, 87, 78
2, 243308, Note_on_c, 0, 87, 0
2, 243320, Note_on_c, 0, 99, 0
2, 243386, Note_on_c, 0, 99, 95
2, 243389, Note_on_c, 0, 87, 82
2, 243470, Note_on_c, 0, 99, 0
2, 243480, Note_on_c, 0, 87, 0
2, 243542, Note_on_c, 0, 99, 75
2, 243542, Note_on_c, 0, 87, 75
2, 243628, Note_on_c, 0, 87, 0
2, 243644, Note_on_c, 0, 99, 0
2, 243698, Note_on_c, 0, 87, 64
2, 243702, Note_on_c, 0, 99, 85
2, 243778, Note_on_c, 0, 99, 0
2, 243778, Note_on_c, 0, 87, 0
2, 243852, Note_on_c, 0, 99, 78
2, 243858, Note_on_c, 0, 87, 57
2, 243882, Control_c, 0, 64, 0
2, 243924, Note_on_c, 0, 87, 0
2, 243944, Note_on_c, 0, 99, 0
2, 244000, Note_on_c, 0, 87, 59
2, 244006, Note_on_c, 0, 99, 86
2, 244090, Note_on_c, 0, 99, 0
2, 244092, Note_on_c, 0, 87, 0
2, 244152, Note_on_c, 0, 99, 83
2, 244154, Note_on_c, 0, 87, 69
2, 244242, Note_on_c, 0, 87, 0
2, 244256, Note_on_c, 0, 99, 0
2, 244318, Note_on_c, 0, 99, 80
2, 244326, Note_on_c, 0, 87, 56
2, 244408, Note_on_c, 0, 99, 0
2, 244411, Note_on_c, 0, 87, 0
2, 244482, Note_on_c, 0, 99, 66
2, 244485, Note_on_c, 0, 87, 57
2, 244578, Note_on_c, 0, 87, 0
2, 244584, Note_on_c, 0, 99, 0
2, 244648, Note_on_c, 0, 99, 77
2, 244648, Note_on_c, 0, 87, 54
2, 244736, Note_on_c, 0, 87, 0
2, 244748, Note_on_c, 0, 99, 0
2, 244810, Note_on_c, 0, 87, 49
2, 244813, Note_on_c, 0, 99, 75
2, 244898, Note_on_c, 0, 87, 0
2, 244901, Note_on_c, 0, 99, 0
2, 244976, Note_on_c, 0, 99, 64
2, 244982, Note_on_c, 0, 87, 36
2, 244985, Note_on_c, 0, 63, 48
2, 245056, Note_on_c, 0, 87, 0
2, 245066, Note_on_c, 0, 99, 0
2, 245146, Note_on_c, 0, 63, 0
2, 245152, Note_on_c, 0, 99, 49
2, 245166, Note_on_c, 0, 87, 24
2, 245240, Note_on_c, 0, 99, 0
2, 245244, Note_on_c, 0, 87, 0
2, 245344, Note_on_c, 0, 99, 43
2, 245362, Note_on_c, 0, 87, 29
2, 245406, Note_on_c, 0, 75, 49
2, 245428, Note_on_c, 0, 99, 0
2, 245434, Note_on_c, 0, 87, 0
2, 245518, Note_on_c, 0, 75, 0
2, 245554, Note_on_c, 0, 99, 42
2, 245560, Note_on_c, 0, 87, 28
2, 245630, Note_on_c, 0, 99, 0
2, 245640, Note_on_c, 0, 87, 0
2, 245730, Note_on_c, 0, 99, 41
2, 245732, Note_on_c, 0, 87, 34
2, 245796, Note_on_c, 0, 99, 0
2, 245814, Note_on_c, 0, 87, 0
2, 245898, Note_on_c, 0, 87, 47
2, 245904, Note_on_c, 0, 99, 36
2, 245970, Note_on_c, 0, 99, 0
2, 246008, Note_on_c, 0, 87, 0
2, 246086, Note_on_c, 0, 97, 44
2, 246098, Note_on_c, 0, 85, 33
2, 246142, Note_on_c, 0, 97, 0
2, 246178, Note_on_c, 0, 85, 0
2, 246266, Note_on_c, 0, 85, 46
2, 246274, Note_on_c, 0, 97, 19
2, 246338, Note_on_c, 0, 85, 0
2, 246340, Note_on_c, 0, 97, 0
2, 246402, Control_c, 0, 64, 127
2, 246442, Note_on_c, 0, 32, 49
2, 246464, Note_on_c, 0, 44, 41
2, 246474, Note_on_c, 0, 83, 78
2, 246476, Note_on_c, 0, 95, 48
2, 246494, Note_on_c, 0, 32, 0
2, 246522, Note_on_c, 0, 83, 0
2, 246524, Note_on_c, 0, 44, 0
2, 246534, Note_on_c, 0, 95, 0
2, 246622, Note_on_c, 0, 95, 35
2, 246622, Note_on_c, 0, 83, 72
2, 246684, Note_on_c, 0, 83, 0
2, 246686, Note_on_c, 0, 95, 0
2, 246812, Note_on_c, 0, 95, 50
2, 246820, Note_on_c, 0, 83, 51
2, 246824, Note_on_c, 0, 63, 66
2, 246824, Note_on_c, 0, 51, 63
2, 246834, Note_on_c, 0, 59, 63
2, 246864, Note_on_c, 0, 95, 0
2, 246876, Note_on_c, 0, 51, 0
2, 246876, Note_on_c, 0, 63, 0
2, 246890, Note_on_c, 0, 83, 0
2, 246893, Note_on_c, 0, 59, 0
2, 246893, Control_c, 0, 64, 0
2, 246940, Note_on_c, 0, 95, 65
2, 246940, Note_on_c, 0, 51, 67
2, 246956, Note_on_c, 0, 83, 95
2, 246974, Note_on_c, 0, 63, 27
2, 246976, Note_on_c, 0, 59, 33
2, 246996, Note_on_c, 0, 83, 0
2, 246999, Note_on_c, 0, 51, 0
2, 247026, Note_on_c, 0, 95, 0
2, 247034, Note_on_c, 0, 59, 0
2, 247036, Note_on_c, 0, 63, 0
2, 247096, Note_on_c, 0, 82, 83
2, 247104, Note_on_c, 0, 94, 67
2, 247105, Note_on_c, 0, 63, 27
2, 247107, Note_on_c, 0, 59, 33
2, 247108, Note_on_c, 0, 56, 66
2, 247150, Note_on_c, 0, 94, 0
2, 247155, Note_on_c, 0, 56, 0
2, 247158, Note_on_c, 0, 82, 0
2, 247165, Note_on_c, 0, 59, 0
2, 247167, Note_on_c, 0, 63, 0
2, 247236, Note_on_c, 0, 94, 44
2, 247242, Note_on_c, 0, 82, 59
2, 247290, Note_on_c, 0, 94, 0
2, 247304, Note_on_c, 0, 82, 0
2, 247394, Note_on_c, 0, 35, 105
2, 247396, Note_on_c, 0, 80, 80
2, 247398, Note_on_c, 0, 47, 72
2, 247408, Note_on_c, 0, 92, 63
2, 247428, Note_on_c, 0, 35, 0
2, 247444, Note_on_c, 0, 47, 0
2, 247447, Note_on_c, 0, 80, 0
2, 247460, Note_on_c, 0, 92, 0
2, 247462, Control_c, 0, 64, 127
2, 247526, Note_on_c, 0, 92, 55
2, 247528, Note_on_c, 0, 80, 54
2, 247612, Note_on_c, 0, 80, 0
2, 247626, Note_on_c, 0, 92, 0
2, 247674, Note_on_c, 0, 63, 82
2, 247682, Note_on_c, 0, 51, 70
2, 247690, Note_on_c, 0, 59, 57
2, 247700, Note_on_c, 0, 79, 71
2, 247708, Note_on_c, 0, 91, 49
2, 247711, Note_on_c, 0, 63, 0
2, 247738, Note_on_c, 0, 59, 0
2, 247742, Note_on_c, 0, 51, 0
2, 247752, Note_on_c, 0, 79, 0
2, 247754, Control_c, 0, 64, 0
2, 247774, Note_on_c, 0, 91, 0
2, 247790, Note_on_c, 0, 63, 66
2, 247802, Note_on_c, 0, 59, 80
2, 247804, Note_on_c, 0, 79, 101
2, 247806, Note_on_c, 0, 51, 63
2, 247832, Note_on_c, 0, 91, 57
2, 247850, Note_on_c, 0, 79, 0
2, 247852, Note_on_c, 0, 63, 0
2, 247858, Note_on_c, 0, 59, 0
2, 247864, Note_on_c, 0, 51, 0
2, 247892, Note_on_c, 0, 91, 0
2, 247938, Note_on_c, 0, 63, 74
2, 247941, Note_on_c, 0, 80, 93
2, 247944, Note_on_c, 0, 59, 78
2, 247950, Note_on_c, 0, 92, 71
2, 247964, Note_on_c, 0, 56, 69
2, 247982, Note_on_c, 0, 80, 0
2, 247985, Note_on_c, 0, 63, 0
2, 247988, Note_on_c, 0, 59, 0
2, 247996, Note_on_c, 0, 92, 0
2, 248010, Note_on_c, 0, 56, 0
2, 248076, Note_on_c, 0, 92, 52
2, 248084, Note_on_c, 0, 80, 54
2, 248134, Note_on_c, 0, 80, 0
2, 248139, Note_on_c, 0, 92, 0
2, 248206, Note_on_c, 0, 39, 98
2, 248214, Note_on_c, 0, 82, 74
2, 248216, Note_on_c, 0, 51, 71
2, 248222, Note_on_c, 0, 94, 74
2, 248240, Note_on_c, 0, 39, 0
2, 248264, Note_on_c, 0, 51, 0
2, 248267, Note_on_c, 0, 94, 0
2, 248270, Note_on_c, 0, 82, 0
2, 248276, Control_c, 0, 64, 127
2, 248346, Note_on_c, 0, 94, 52
2, 248350, Note_on_c, 0, 82, 69
2, 248392, Note_on_c, 0, 94, 0
2, 248400, Note_on_c, 0, 82, 0
2, 248494, Note_on_c, 0, 67, 79
2, 248506, Note_on_c, 0, 55, 74
2, 248514, Note_on_c, 0, 75, 87
2, 248526, Note_on_c, 0, 87, 66
2, 248540, Note_on_c, 0, 67, 0
2, 248556, Note_on_c, 0, 55, 0
2, 248558, Note_on_c, 0, 75, 0
2, 248568, Note_on_c, 0, 87, 0
2, 248584, Control_c, 0, 64, 0
2, 248596, Note_on_c, 0, 67, 78
2, 248612, Note_on_c, 0, 55, 79
2, 248626, Note_on_c, 0, 75, 62
2, 248630, Note_on_c, 0, 87, 57
2, 248646, Note_on_c, 0, 63, 29
2, 248662, Note_on_c, 0, 55, 0
2, 248662, Note_on_c, 0, 67, 0
2, 248692, Note_on_c, 0, 87, 0
2, 248700, Note_on_c, 0, 75, 0
2, 248712, Note_on_c, 0, 63, 0
2, 248752, Note_on_c, 0, 67, 79
2, 248762, Note_on_c, 0, 58, 73
2, 248762, Note_on_c, 0, 87, 70
2, 248768, Note_on_c, 0, 75, 73
2, 248778, Note_on_c, 0, 63, 93
2, 248822, Note_on_c, 0, 87, 0
2, 248825, Note_on_c, 0, 63, 0
2, 248828, Note_on_c, 0, 67, 0
2, 248832, Note_on_c, 0, 75, 0
2, 248876, Note_on_c, 0, 58, 0
2, 248904, Note_on_c, 0, 87, 70
2, 248910, Note_on_c, 0, 75, 63
2, 248968, Note_on_c, 0, 75, 0
2, 248976, Note_on_c, 0, 87, 0
2, 249034, Note_on_c, 0, 43, 106
2, 249042, Note_on_c, 0, 55, 83
2, 249052, Note_on_c, 0, 88, 92
2, 249058, Note_on_c, 0, 76, 77
2, 249060, Control_c, 0, 64, 127
2, 249066, Note_on_c, 0, 43, 0
2, 249088, Note_on_c, 0, 55, 0
2, 249088, Note_on_c, 0, 88, 0
2, 249098, Note_on_c, 0, 76, 0
2, 249174, Note_on_c, 0, 88, 28
2, 249182, Note_on_c, 0, 76, 35
2, 249228, Note_on_c, 0, 88, 0
2, 249232, Note_on_c, 0, 76, 0
2, 249284, Note_on_c, 0, 70, 82
2, 249302, Note_on_c, 0, 61, 58
2, 249302, Note_on_c, 0, 75, 92
2, 249308, Note_on_c, 0, 87, 77
2, 249326, Note_on_c, 0, 70, 0
2, 249350, Note_on_c, 0, 87, 0
2, 249354, Note_on_c, 0, 61, 0
2, 249362, Note_on_c, 0, 75, 0
2, 249408, Note_on_c, 0, 70, 34
2, 249411, Note_on_c, 0, 61, 79
2, 249416, Note_on_c, 0, 87, 63
2, 249428, Control_c, 0, 64, 0
2, 249432, Note_on_c, 0, 75, 64
2, 249462, Note_on_c, 0, 87, 0
2, 249465, Note_on_c, 0, 61, 0
2, 249470, Note_on_c, 0, 70, 0
2, 249480, Note_on_c, 0, 75, 0
2, 249555, Note_on_c, 0, 70, 59
2, 249559, Note_on_c, 0, 73, 78
2, 249568, Note_on_c, 0, 85, 66
2, 249588, Note_on_c, 0, 58, 52
2, 249596, Note_on_c, 0, 70, 0
2, 249598, Note_on_c, 0, 63, 63
2, 249600, Note_on_c, 0, 73, 0
2, 249614, Note_on_c, 0, 85, 0
2, 249644, Note_on_c, 0, 58, 0
2, 249644, Note_on_c, 0, 63, 0
2, 249670, Note_on_c, 0, 73, 65
2, 249670, Note_on_c, 0, 85, 77
2, 249748, Note_on_c, 0, 85, 0
2, 249772, Note_on_c, 0, 73, 0
2, 249810, Note_on_c, 0, 44, 109
2, 249812, Note_on_c, 0, 56, 85
2, 249824, Note_on_c, 0, 71, 83
2, 249824, Note_on_c, 0, 83, 104
2, 249840, Note_on_c, 0, 44, 0
2, 249852, Note_on_c, 0, 56, 0
2, 249862, Note_on_c, 0, 83, 0
2, 249868, Note_on_c, 0, 71, 0
2, 249874, Control_c, 0, 64, 127
2, 249936, Note_on_c, 0, 71, 80
2, 249936, Note_on_c, 0, 83, 87
2, 249996, Note_on_c, 0, 71, 0
2, 250004, Note_on_c, 0, 83, 0
2, 250060, Note_on_c, 0, 63, 90
2, 250064, Note_on_c, 0, 68, 66
2, 250068, Note_on_c, 0, 83, 112
2, 250076, Note_on_c, 0, 71, 63
2, 250096, Note_on_c, 0, 63, 0
2, 250112, Note_on_c, 0, 68, 0
2, 250122, Note_on_c, 0, 83, 0
2, 250134, Note_on_c, 0, 71, 0
2, 250184, Note_on_c, 0, 68, 58
2, 250187, Note_on_c, 0, 63, 63
2, 250192, Note_on_c, 0, 83, 106
2, 250208, Note_on_c, 0, 71, 64
2, 250228, Note_on_c, 0, 83, 0
2, 250246, Note_on_c, 0, 63, 0
2, 250266, Note_on_c, 0, 71, 0
2, 250269, Note_on_c, 0, 68, 0
2, 250334, Note_on_c, 0, 70, 82
2, 250348, Note_on_c, 0, 82, 64
2, 250348, Note_on_c, 0, 63, 74
2, 250366, Note_on_c, 0, 59, 71
2, 250376, Note_on_c, 0, 70, 0
2, 250396, Note_on_c, 0, 82, 0
2, 250399, Note_on_c, 0, 63, 0
2, 250412, Note_on_c, 0, 59, 0
2, 250454, Note_on_c, 0, 82, 63
2, 250458, Note_on_c, 0, 70, 39
2, 250500, Note_on_c, 0, 82, 0
2, 250530, Note_on_c, 0, 70, 0
2, 250533, Control_c, 0, 64, 0
2, 250626, Note_on_c, 0, 52, 116
2, 250626, Note_on_c, 0, 68, 64
2, 250632, Note_on_c, 0, 80, 63
2, 250636, Note_on_c, 0, 40, 108
2, 250666, Note_on_c, 0, 40, 0
2, 250678, Note_on_c, 0, 52, 0
2, 250680, Note_on_c, 0, 80, 0
2, 250680, Note_on_c, 0, 68, 0
2, 250734, Control_c, 0, 64, 127
2, 250742, Note_on_c, 0, 80, 65
2, 250742, Note_on_c, 0, 68, 66
2, 250808, Note_on_c, 0, 80, 0
2, 250856, Note_on_c, 0, 68, 0
2, 250868, Note_on_c, 0, 79, 48
2, 250874, Note_on_c, 0, 62, 74
2, 250876, Note_on_c, 0, 59, 81
2, 250890, Note_on_c, 0, 67, 16
2, 250916, Note_on_c, 0, 59, 0
2, 250919, Note_on_c, 0, 62, 0
2, 250934, Note_on_c, 0, 79, 0
2, 250940, Note_on_c, 0, 67, 0
2, 250994, Note_on_c, 0, 59, 67
2, 250994, Note_on_c, 0, 62, 70
2, 250995, Note_on_c, 0, 79, 48
2, 251017, Note_on_c, 0, 67, 16
2, 251056, Note_on_c, 0, 62, 0
2, 251061, Note_on_c, 0, 79, 0
2, 251064, Note_on_c, 0, 59, 0
2, 251067, Note_on_c, 0, 67, 0
2, 251146, Note_on_c, 0, 68, 90
2, 251148, Note_on_c, 0, 62, 85
2, 251154, Note_on_c, 0, 58, 83
2, 251164, Note_on_c, 0, 80, 59
2, 251188, Note_on_c, 0, 62, 0
2, 251192, Note_on_c, 0, 68, 0
2, 251202, Note_on_c, 0, 58, 0
2, 251212, Note_on_c, 0, 80, 0
2, 251264, Note_on_c, 0, 80, 88
2, 251269, Note_on_c, 0, 68, 62
2, 251318, Note_on_c, 0, 68, 0
2, 251328, Note_on_c, 0, 80, 0
2, 251348, Control_c, 0, 64, 0
2, 251408, Note_on_c, 0, 70, 80
2, 251411, Note_on_c, 0, 82, 78
2, 251418, Note_on_c, 0, 51, 111
2, 251424, Note_on_c, 0, 39, 105
2, 251456, Note_on_c, 0, 82, 0
2, 251464, Note_on_c, 0, 39, 0
2, 251486, Note_on_c, 0, 70, 0
2, 251488, Note_on_c, 0, 51, 0
2, 251524, Note_on_c, 0, 82, 65
2, 251534, Control_c, 0, 64, 127
2, 251540, Note_on_c, 0, 70, 64
2, 251570, Note_on_c, 0, 82, 0
2, 251596, Note_on_c, 0, 70, 0
2, 251674, Note_on_c, 0, 55, 116
2, 251677, Note_on_c, 0, 58, 80
2, 251700, Note_on_c, 0, 63, 102
2, 251703, Note_on_c, 0, 75, 64
2, 251722, Note_on_c, 0, 58, 0
2, 251724, Note_on_c, 0, 55, 0
2, 251732, Note_on_c, 0, 63, 0
2, 251748, Note_on_c, 0, 75, 0
2, 251792, Note_on_c, 0, 55, 101
2, 251795, Note_on_c, 0, 58, 54
2, 251818, Note_on_c, 0, 75, 33
2, 251840, Note_on_c, 0, 55, 0
2, 251868, Note_on_c, 0, 58, 0
2, 251886, Note_on_c, 0, 75, 0
2, 251934, Note_on_c, 0, 63, 118
2, 251934, Note_on_c, 0, 58, 73
2, 251936, Note_on_c, 0, 55, 79
2, 251954, Note_on_c, 0, 75, 92
2, 251964, Note_on_c, 0, 87, 95
2, 251976, Note_on_c, 0, 55, 0
2, 251986, Note_on_c, 0, 58, 0
2, 251997, Note_on_c, 0, 87, 0
2, 252012, Note_on_c, 0, 63, 0
2, 252020, Note_on_c, 0, 75, 0
2, 252062, Note_on_c, 0, 87, 54
2, 252162, Note_on_c, 0, 87, 0
2, 252270, Note_on_c, 0, 87, 85
2, 252272, Note_on_c, 0, 99, 104
2, 252302, Note_on_c, 0, 99, 0
2, 252306, Note_on_c, 0, 75, 105
2, 252308, Note_on_c, 0, 87, 0
2, 252320, Note_on_c, 0, 67, 85
2, 252324, Note_on_c, 0, 70, 59
2, 252420, Note_on_c, 0, 87, 82
2, 252432, Note_on_c, 0, 99, 93
2, 252466, Note_on_c, 0, 99, 0
2, 252466, Note_on_c, 0, 75, 0
2, 252470, Note_on_c, 0, 70, 0
2, 252472, Note_on_c, 0, 87, 0
2, 252500, Note_on_c, 0, 67, 0
2, 252556, Note_on_c, 0, 99, 79
2, 252558, Note_on_c, 0, 87, 94
2, 252636, Note_on_c, 0, 99, 0
2, 252644, Note_on_c, 0, 87, 0
2, 252690, Note_on_c, 0, 87, 113
2, 252692, Note_on_c, 0, 99, 104
2, 252762, Note_on_c, 0, 99, 0
2, 252778, Note_on_c, 0, 87, 0
2, 252838, Note_on_c, 0, 85, 117
2, 252848, Note_on_c, 0, 97, 98
2, 252898, Note_on_c, 0, 97, 0
2, 252916, Note_on_c, 0, 85, 0
2, 252988, Note_on_c, 0, 85, 95
2, 252998, Note_on_c, 0, 97, 87
2, 253148, Note_on_c, 0, 85, 0
2, 253156, Note_on_c, 0, 97, 0
2, 253178, Control_c, 0, 64, 0
2, 253194, Note_on_c, 0, 44, 123
2, 253198, Note_on_c, 0, 32, 119
2, 253204, Note_on_c, 0, 96, 116
2, 253204, Note_on_c, 0, 84, 117
2, 253246, Note_on_c, 0, 32, 0
2, 253292, Note_on_c, 0, 44, 0
2, 253318, Note_on_c, 0, 96, 0
2, 253330, Note_on_c, 0, 84, 0
2, 253348, Control_c, 0, 64, 127
2, 253392, Note_on_c, 0, 96, 80
2, 253398, Note_on_c, 0, 84, 97
2, 253480, Note_on_c, 0, 96, 0
2, 253488, Note_on_c, 0, 84, 0
2, 253544, Note_on_c, 0, 63, 111
2, 253548, Note_on_c, 0, 96, 89
2, 253556, Note_on_c, 0, 84, 89
2, 253558, Note_on_c, 0, 54, 82
2, 253558, Note_on_c, 0, 57, 77
2, 253584, Note_on_c, 0, 63, 0
2, 253598, Note_on_c, 0, 54, 0
2, 253600, Note_on_c, 0, 57, 0
2, 253648, Note_on_c, 0, 84, 0
2, 253651, Note_on_c, 0, 96, 0
2, 253676, Note_on_c, 0, 57, 41
2, 253676, Note_on_c, 0, 63, 87
2, 253679, Note_on_c, 0, 54, 65
2, 253700, Note_on_c, 0, 96, 104
2, 253702, Note_on_c, 0, 84, 100
2, 253736, Note_on_c, 0, 96, 0
2, 253754, Note_on_c, 0, 54, 0
2, 253754, Note_on_c, 0, 84, 0
2, 253760, Note_on_c, 0, 63, 0
2, 253772, Note_on_c, 0, 57, 0
2, 253862, Note_on_c, 0, 63, 83
2, 253872, Note_on_c, 0, 93, 113
2, 253874, Note_on_c, 0, 81, 112
2, 253876, Note_on_c, 0, 57, 46
2, 253894, Note_on_c, 0, 63, 0
2, 253894, Note_on_c, 0, 54, 77
2, 253912, Note_on_c, 0, 93, 0
2, 253918, Note_on_c, 0, 81, 0
2, 253930, Note_on_c, 0, 57, 0
2, 253934, Note_on_c, 0, 54, 0
2, 254014, Note_on_c, 0, 81, 100
2, 254016, Note_on_c, 0, 93, 102
2, 254046, Note_on_c, 0, 42, 54
2, 254084, Note_on_c, 0, 93, 0
2, 254102, Note_on_c, 0, 42, 0
2, 254118, Note_on_c, 0, 81, 0
2, 254192, Control_c, 0, 64, 0
2, 254202, Note_on_c, 0, 48, 124
2, 254204, Note_on_c, 0, 36, 127
2, 254207, Note_on_c, 0, 80, 112
2, 254212, Note_on_c, 0, 92, 105
2, 254272, Note_on_c, 0, 36, 0
2, 254288, Note_on_c, 0, 80, 0
2, 254306, Note_on_c, 0, 92, 0
2, 254326, Note_on_c, 0, 48, 0
2, 254346, Control_c, 0, 64, 127
2, 254374, Note_on_c, 0, 80, 87
2, 254376, Note_on_c, 0, 92, 74
2, 254456, Note_on_c, 0, 80, 0
2, 254470, Note_on_c, 0, 92, 0
2, 254516, Note_on_c, 0, 69, 94
2, 254518, Note_on_c, 0, 80, 90
2, 254520, Note_on_c, 0, 63, 96
2, 254520, Note_on_c, 0, 57, 89
2, 254522, Note_on_c, 0, 92, 95
2, 254556, Note_on_c, 0, 69, 0
2, 254558, Note_on_c, 0, 63, 0
2, 254562, Note_on_c, 0, 57, 0
2, 254598, Note_on_c, 0, 80, 0
2, 254602, Note_on_c, 0, 92, 0
2, 254644, Note_on_c, 0, 57, 48
2, 254647, Note_on_c, 0, 63, 71
2, 254650, Note_on_c, 0, 69, 31
2, 254652, Note_on_c, 0, 80, 97
2, 254652, Note_on_c, 0, 92, 101
2, 254692, Note_on_c, 0, 63, 0
2, 254696, Note_on_c, 0, 57, 0
2, 254708, Note_on_c, 0, 69, 0
2, 254730, Note_on_c, 0, 80, 0
2, 254754, Note_on_c, 0, 92, 0
2, 254778, Note_on_c, 0, 69, 62
2, 254784, Note_on_c, 0, 63, 80
2, 254794, Note_on_c, 0, 90, 88
2, 254794, Note_on_c, 0, 78, 100
2, 254798, Note_on_c, 0, 57, 56
2, 254824, Note_on_c, 0, 69, 0
2, 254848, Note_on_c, 0, 63, 0
2, 254858, Note_on_c, 0, 90, 0
2, 254882, Note_on_c, 0, 57, 0
2, 254892, Note_on_c, 0, 78, 0
2, 254944, Note_on_c, 0, 90, 80
2, 254950, Note_on_c, 0, 78, 66
2, 255042, Note_on_c, 0, 78, 0
2, 255066, Note_on_c, 0, 90, 0
2, 255098, Control_c, 0, 64, 0
2, 255130, Note_on_c, 0, 49, 117
2, 255136, Note_on_c, 0, 37, 119
2, 255142, Note_on_c, 0, 88, 111
2, 255152, Note_on_c, 0, 76, 90
2, 255214, Note_on_c, 0, 76, 0
2, 255236, Note_on_c, 0, 88, 0
2, 255252, Note_on_c, 0, 37, 0
2, 255258, Note_on_c, 0, 49, 0
2, 255282, Control_c, 0, 64, 127
2, 255520, Note_on_c, 0, 61, 69
2, 255532, Note_on_c, 0, 73, 79
2, 255534, Note_on_c, 0, 57, 31
2, 255540, Note_on_c, 0, 64, 75
2, 255540, Note_on_c, 0, 52, 71
2, 255546, Note_on_c, 0, 69, 54
2, 255572, Note_on_c, 0, 61, 0
2, 255584, Note_on_c, 0, 64, 0
2, 255587, Note_on_c, 0, 52, 0
2, 255590, Note_on_c, 0, 73, 0
2, 255602, Note_on_c, 0, 57, 0
2, 255604, Note_on_c, 0, 69, 0
2, 255662, Note_on_c, 0, 52, 78
2, 255662, Note_on_c, 0, 61, 57
2, 255672, Note_on_c, 0, 69, 59
2, 255676, Note_on_c, 0, 73, 65
2, 255692, Note_on_c, 0, 64, 46
2, 255702, Note_on_c, 0, 57, 39
2, 255728, Note_on_c, 0, 52, 0
2, 255731, Note_on_c, 0, 61, 0
2, 255742, Note_on_c, 0, 64, 0
2, 255750, Note_on_c, 0, 73, 0
2, 255752, Note_on_c, 0, 69, 0
2, 255774, Note_on_c, 0, 57, 0
2, 255820, Note_on_c, 0, 61, 66
2, 255822, Note_on_c, 0, 51, 86
2, 255826, Note_on_c, 0, 75, 93
2, 255836, Note_on_c, 0, 69, 56
2, 255844, Note_on_c, 0, 64, 57
2, 255850, Note_on_c, 0, 57, 35
2, 255882, Note_on_c, 0, 61, 0
2, 255888, Note_on_c, 0, 51, 0
2, 255890, Note_on_c, 0, 64, 0
2, 255890, Note_on_c, 0, 75, 0
2, 255898, Note_on_c, 0, 69, 0
2, 255918, Note_on_c, 0, 57, 0
2, 255966, Note_on_c, 0, 61, 71
2, 255968, Note_on_c, 0, 51, 75
2, 255970, Note_on_c, 0, 75, 86
2, 255986, Note_on_c, 0, 57, 59
2, 255989, Note_on_c, 0, 64, 49
2, 255992, Note_on_c, 0, 69, 39
2, 256038, Note_on_c, 0, 57, 0
2, 256042, Note_on_c, 0, 64, 0
2, 256044, Note_on_c, 0, 51, 0
2, 256046, Note_on_c, 0, 61, 0
2, 256054, Note_on_c, 0, 69, 0
2, 256080, Note_on_c, 0, 75, 0
2, 256146, Note_on_c, 0, 76, 106
2, 256146, Note_on_c, 0, 61, 74
2, 256149, Note_on_c, 0, 69, 51
2, 256152, Note_on_c, 0, 49, 87
2, 256162, Note_on_c, 0, 64, 75
2, 256170, Note_on_c, 0, 57, 19
2, 256200, Note_on_c, 0, 49, 0
2, 256208, Note_on_c, 0, 64, 0
2, 256220, Note_on_c, 0, 61, 0
2, 256234, Note_on_c, 0, 57, 0
2, 256240, Note_on_c, 0, 69, 0
2, 256252, Note_on_c, 0, 76, 0
2, 256302, Note_on_c, 0, 61, 77
2, 256308, Note_on_c, 0, 49, 72
2, 256310, Note_on_c, 0, 76, 89
2, 256312, Note_on_c, 0, 69, 63
2, 256314, Note_on_c, 0, 57, 13
2, 256330, Note_on_c, 0, 64, 41
2, 256348, Note_on_c, 0, 76, 0
2, 256356, Note_on_c, 0, 49, 0
2, 256368, Note_on_c, 0, 61, 0
2, 256382, Note_on_c, 0, 57, 0
2, 256386, Note_on_c, 0, 64, 0
2, 256390, Note_on_c, 0, 69, 0
2, 256432, Note_on_c, 0, 61, 86
2, 256440, Note_on_c, 0, 51, 87
2, 256445, Note_on_c, 0, 57, 13
2, 256450, Note_on_c, 0, 75, 98
2, 256450, Note_on_c, 0, 64, 97
2, 256456, Note_on_c, 0, 69, 65
2, 256502, Note_on_c, 0, 51, 0
2, 256508, Note_on_c, 0, 69, 0
2, 256510, Note_on_c, 0, 64, 0
2, 256513, Note_on_c, 0, 57, 0
2, 256516, Note_on_c, 0, 75, 0
2, 256520, Note_on_c, 0, 61, 0
2, 256575, Note_on_c, 0, 57, 13
2, 256576, Note_on_c, 0, 61, 98
2, 256578, Note_on_c, 0, 64, 83
2, 256581, Note_on_c, 0, 69, 43
2, 256586, Note_on_c, 0, 75, 90
2, 256588, Note_on_c, 0, 52, 83
2, 256618, Note_on_c, 0, 64, 0
2, 256622, Note_on_c, 0, 61, 0
2, 256628, Note_on_c, 0, 52, 0
2, 256630, Note_on_c, 0, 69, 0
2, 256638, Note_on_c, 0, 75, 0
2, 256643, Note_on_c, 0, 57, 0
2, 256686, Note_on_c, 0, 52, 108
2, 256696, Note_on_c, 0, 61, 79
2, 256700, Note_on_c, 0, 69, 49
2, 256704, Note_on_c, 0, 64, 66
2, 256704, Note_on_c, 0, 73, 93
2, 256712, Note_on_c, 0, 57, 27
2, 256746, Note_on_c, 0, 73, 0
2, 256754, Note_on_c, 0, 64, 0
2, 256776, Note_on_c, 0, 69, 0
2, 256778, Note_on_c, 0, 57, 0
2, 256782, Note_on_c, 0, 61, 0
2, 256794, Note_on_c, 0, 52, 0
2, 256832, Note_on_c, 0, 73, 83
2, 256835, Note_on_c, 0, 57, 13
2, 256836, Note_on_c, 0, 61, 98
2, 256838, Note_on_c, 0, 69, 75
2, 256839, Note_on_c, 0, 52, 89
2, 256856, Note_on_c, 0, 64, 89
2, 256886, Note_on_c, 0, 69, 0
2, 256903, Note_on_c, 0, 57, 0
2, 256928, Note_on_c, 0, 61, 0
2, 256928, Note_on_c, 0, 64, 0
2, 256942, Note_on_c, 0, 52, 0
2, 256966, Note_on_c, 0, 73, 0
2, 256988, Control_c, 0, 64, 0
2, 257002, Note_on_c, 0, 75, 102
2, 257004, Note_on_c, 0, 71, 96
2, 257007, Note_on_c, 0, 63, 115
2, 257010, Note_on_c, 0, 68, 19
2, 257016, Note_on_c, 0, 56, 88
2, 257018, Note_on_c, 0, 51, 82
2, 257020, Note_on_c, 0, 59, 86
2, 257064, Note_on_c, 0, 59, 0
2, 257076, Note_on_c, 0, 68, 0
2, 257094, Note_on_c, 0, 51, 0
2, 257106, Note_on_c, 0, 63, 0
2, 257109, Note_on_c, 0, 56, 0
2, 257122, Note_on_c, 0, 71, 0
2, 257130, Control_c, 0, 64, 127
2, 257144, Note_on_c, 0, 75, 0
2, 257176, Note_on_c, 0, 62, 90
2, 257180, Note_on_c, 0, 50, 78
2, 257180, Note_on_c, 0, 76, 81
2, 257214, Note_on_c, 0, 62, 0
2, 257224, Note_on_c, 0, 76, 0
2, 257230, Note_on_c, 0, 50, 0
2, 257310, Note_on_c, 0, 61, 95
2, 257320, Note_on_c, 0, 49, 81
2, 257342, Note_on_c, 0, 77, 54
2, 257342, Note_on_c, 0, 65, 39
2, 257366, Note_on_c, 0, 49, 0
2, 257368, Note_on_c, 0, 61, 0
2, 257394, Note_on_c, 0, 77, 0
2, 257406, Note_on_c, 0, 65, 0
2, 257444, Note_on_c, 0, 48, 77
2, 257444, Note_on_c, 0, 60, 67
2, 257452, Note_on_c, 0, 78, 73
2, 257458, Note_on_c, 0, 66, 79
2, 257494, Note_on_c, 0, 60, 0
2, 257496, Note_on_c, 0, 66, 0
2, 257502, Note_on_c, 0, 48, 0
2, 257504, Note_on_c, 0, 78, 0
2, 257576, Note_on_c, 0, 59, 90
2, 257576, Note_on_c, 0, 47, 93
2, 257594, Note_on_c, 0, 79, 102
2, 257602, Note_on_c, 0, 67, 67
2, 257616, Note_on_c, 0, 59, 0
2, 257618, Note_on_c, 0, 47, 0
2, 257628, Note_on_c, 0, 79, 0
2, 257656, Note_on_c, 0, 67, 0
2, 257716, Note_on_c, 0, 58, 71
2, 257719, Note_on_c, 0, 46, 79
2, 257728, Note_on_c, 0, 80, 86
2, 257732, Note_on_c, 0, 68, 73
2, 257764, Note_on_c, 0, 80, 0
2, 257766, Note_on_c, 0, 58, 0
2, 257774, Note_on_c, 0, 46, 0
2, 257774, Note_on_c, 0, 68, 0
2, 257848, Note_on_c, 0, 57, 82
2, 257851, Note_on_c, 0, 45, 82
2, 257864, Note_on_c, 0, 81, 95
2, 257867, Note_on_c, 0, 69, 70
2, 257890, Note_on_c, 0, 57, 0
2, 257894, Note_on_c, 0, 45, 0
2, 257898, Note_on_c, 0, 81, 0
2, 257914, Note_on_c, 0, 69, 0
2, 257984, Note_on_c, 0, 56, 88
2, 257990, Note_on_c, 0, 44, 101
2, 257990, Note_on_c, 0, 70, 83
2, 257992, Note_on_c, 0, 82, 89
2, 258030, Note_on_c, 0, 44, 0
2, 258032, Note_on_c, 0, 56, 0
2, 258040, Note_on_c, 0, 82, 0
2, 258068, Note_on_c, 0, 70, 0
2, 258116, Note_on_c, 0, 55, 101
2, 258119, Note_on_c, 0, 43, 97
2, 258126, Note_on_c, 0, 83, 116
2, 258146, Note_on_c, 0, 71, 47
2, 258160, Note_on_c, 0, 83, 0
2, 258160, Note_on_c, 0, 55, 0
2, 258166, Note_on_c, 0, 43, 0
2, 258220, Note_on_c, 0, 71, 0
2, 258244, Note_on_c, 0, 54, 110
2, 258247, Note_on_c, 0, 42, 105
2, 258258, Note_on_c, 0, 72, 85
2, 258266, Note_on_c, 0, 84, 73
2, 258298, Note_on_c, 0, 72, 0
2, 258312, Note_on_c, 0, 84, 0
2, 258344, Note_on_c, 0, 42, 0
2, 258346, Note_on_c, 0, 54, 0
2, 258378, Note_on_c, 0, 41, 112
2, 258378, Note_on_c, 0, 53, 121
2, 258384, Note_on_c, 0, 85, 96
2, 258386, Note_on_c, 0, 73, 90
2, 258410, Note_on_c, 0, 53, 0
2, 258415, Note_on_c, 0, 41, 0
2, 258420, Note_on_c, 0, 85, 0
2, 258438, Note_on_c, 0, 73, 0
2, 258498, Note_on_c, 0, 40, 121
2, 258498, Note_on_c, 0, 86, 112
2, 258498, Note_on_c, 0, 74, 108
2, 258498, Note_on_c, 0, 52, 112
2, 258528, Note_on_c, 0, 40, 0
2, 258536, Note_on_c, 0, 86, 0
2, 258538, Note_on_c, 0, 52, 0
2, 258542, Note_on_c, 0, 74, 0
2, 258586, Control_c, 0, 64, 0
2, 258622, Note_on_c, 0, 51, 112
2, 258622, Note_on_c, 0, 87, 102
2, 258625, Note_on_c, 0, 75, 103
2, 258628, Note_on_c, 0, 43, 96
2, 258631, Note_on_c, 0, 79, 90
2, 258631, Note_on_c, 0, 82, 71
2, 258631, Note_on_c, 0, 39, 90
2, 258631, Note_on_c, 0, 46, 80
2, 258672, Note_on_c, 0, 79, 0
2, 258680, Note_on_c, 0, 43, 0
2, 258683, Note_on_c, 0, 82, 0
2, 258694, Note_on_c, 0, 39, 0
2, 258704, Note_on_c, 0, 87, 0
2, 258712, Note_on_c, 0, 46, 0
2, 258716, Note_on_c, 0, 75, 0
2, 258724, Control_c, 0, 64, 127
2, 258736, Note_on_c, 0, 51, 0
2, 258764, Note_on_c, 0, 38, 109
2, 258767, Note_on_c, 0, 50, 101
2, 258780, Note_on_c, 0, 88, 102
2, 258792, Note_on_c, 0, 76, 55
2, 258806, Note_on_c, 0, 38, 0
2, 258814, Note_on_c, 0, 88, 0
2, 258824, Note_on_c, 0, 50, 0
2, 258828, Note_on_c, 0, 77, 25
2, 258844, Note_on_c, 0, 76, 0
2, 258896, Note_on_c, 0, 89, 96
2, 258902, Note_on_c, 0, 49, 98
2, 258906, Note_on_c, 0, 37, 105
2, 258932, Note_on_c, 0, 89, 0
2, 258952, Note_on_c, 0, 37, 0
2, 258960, Note_on_c, 0, 77, 0
2, 258962, Note_on_c, 0, 49, 0
2, 259020, Note_on_c, 0, 36, 108
2, 259020, Note_on_c, 0, 48, 95
2, 259032, Note_on_c, 0, 90, 93
2, 259062, Note_on_c, 0, 48, 0
2, 259080, Note_on_c, 0, 90, 0
2, 259090, Note_on_c, 0, 36, 0
2, 259152, Note_on_c, 0, 91, 105
2, 259158, Note_on_c, 0, 47, 106
2, 259162, Note_on_c, 0, 35, 115
2, 259174, Note_on_c, 0, 79, 63
2, 259188, Note_on_c, 0, 91, 0
2, 259194, Note_on_c, 0, 35, 0
2, 259196, Note_on_c, 0, 47, 0
2, 259234, Note_on_c, 0, 79, 0
2, 259282, Note_on_c, 0, 80, 97
2, 259282, Note_on_c, 0, 46, 93
2, 259282, Note_on_c, 0, 92, 100
2, 259288, Note_on_c, 0, 34, 102
2, 259320, Note_on_c, 0, 92, 0
2, 259324, Note_on_c, 0, 80, 0
2, 259340, Note_on_c, 0, 46, 0
2, 259400, Note_on_c, 0, 45, 101
2, 259403, Note_on_c, 0, 33, 111
2, 259418, Note_on_c, 0, 93, 96
2, 259418, Note_on_c, 0, 81, 95
2, 259448, Note_on_c, 0, 33, 0
2, 259448, Note_on_c, 0, 34, 0
2, 259454, Note_on_c, 0, 81, 0
2, 259454, Note_on_c, 0, 93, 0
2, 259456, Note_on_c, 0, 45, 0
2, 259532, Note_on_c, 0, 44, 103
2, 259532, Note_on_c, 0, 94, 88
2, 259532, Note_on_c, 0, 32, 103
2, 259544, Note_on_c, 0, 82, 80
2, 259600, Note_on_c, 0, 82, 0
2, 259624, Note_on_c, 0, 94, 0
2, 259629, Note_on_c, 0, 44, 0
2, 259656, Note_on_c, 0, 43, 101
2, 259660, Note_on_c, 0, 31, 108
2, 259678, Note_on_c, 0, 95, 86
2, 259678, Note_on_c, 0, 83, 97
2, 259698, Note_on_c, 0, 32, 0
2, 259701, Note_on_c, 0, 31, 0
2, 259704, Note_on_c, 0, 43, 0
2, 259716, Note_on_c, 0, 95, 0
2, 259718, Note_on_c, 0, 83, 0
2, 259786, Note_on_c, 0, 42, 98
2, 259788, Note_on_c, 0, 30, 108
2, 259800, Note_on_c, 0, 97, 93
2, 259802, Note_on_c, 0, 85, 80
2, 259834, Note_on_c, 0, 97, 0
2, 259846, Note_on_c, 0, 85, 0
2, 259860, Note_on_c, 0, 42, 0
2, 259914, Note_on_c, 0, 30, 0
2, 259932, Note_on_c, 0, 28, 80
2, 259948, Note_on_c, 0, 98, 93
2, 259948, Note_on_c, 0, 86, 66
2, 259951, Note_on_c, 0, 40, 72
2, 259974, Note_on_c, 0, 28, 0
2, 259988, Note_on_c, 0, 98, 0
2, 259992, Note_on_c, 0, 40, 0
2, 260004, Note_on_c, 0, 86, 0
2, 260056, Note_on_c, 0, 39, 109
2, 260059, Note_on_c, 0, 27, 101
2, 260060, Note_on_c, 0, 87, 66
2, 260064, Note_on_c, 0, 99, 102
2, 260092, Note_on_c, 0, 99, 0
2, 260116, Note_on_c, 0, 87, 0
2, 260118, Note_on_c, 0, 27, 0
2, 260152, Note_on_c, 0, 39, 0
2, 260400, Control_c, 0, 64, 0
2, 260400, Note_on_c, 0, 44, 126
2, 260406, Note_on_c, 0, 32, 118
2, 260410, Note_on_c, 0, 68, 101
2, 260424, Note_on_c, 0, 59, 100
2, 260424, Note_on_c, 0, 63, 44
2, 260506, Note_on_c, 0, 63, 0
2, 260564, Note_on_c, 0, 32, 0
2, 260588, Note_on_c, 0, 44, 0
2, 260588, Note_on_c, 0, 59, 0
2, 260614, Control_c, 0, 64, 127
2, 260680, Note_on_c, 0, 68, 0
2, 260708, Note_on_c, 0, 51, 98
2, 260716, Note_on_c, 0, 39, 86
2, 260742, Note_on_c, 0, 51, 0
2, 260750, Note_on_c, 0, 39, 0
2, 260874, Note_on_c, 0, 56, 75
2, 260902, Note_on_c, 0, 44, 35
2, 260932, Note_on_c, 0, 56, 0
2, 260980, Note_on_c, 0, 44, 0
2, 261054, Note_on_c, 0, 83, 127
2, 261054, Note_on_c, 0, 71, 123
2, 261064, Note_on_c, 0, 63, 113
2, 261070, Note_on_c, 0, 75, 82
2, 261074, Note_on_c, 0, 51, 102
2, 261114, Note_on_c, 0, 63, 0
2, 261154, Note_on_c, 0, 51, 0
2, 261157, Note_on_c, 0, 71, 0
2, 261176, Note_on_c, 0, 83, 0
2, 261236, Note_on_c, 0, 75, 0
2, 261336, Control_c, 0, 64, 0
2, 261346, Note_on_c, 0, 82, 93
2, 261346, Note_on_c, 0, 70, 97
2, 261349, Note_on_c, 0, 44, 115
2, 261356, Note_on_c, 0, 32, 113
2, 261384, Note_on_c, 0, 75, 51
2, 261400, Note_on_c, 0, 32, 0
2, 261406, Note_on_c, 0, 82, 0
2, 261432, Note_on_c, 0, 75, 0
2, 261434, Note_on_c, 0, 44, 0
2, 261474, Note_on_c, 0, 71, 86
2, 261474, Control_c, 0, 64, 127
2, 261480, Note_on_c, 0, 70, 0
2, 261480, Note_on_c, 0, 83, 116
2, 261518, Note_on_c, 0, 83, 0
2, 261518, Note_on_c, 0, 71, 0
2, 261592, Note_on_c, 0, 51, 103
2, 261600, Note_on_c, 0, 39, 95
2, 261620, Note_on_c, 0, 85, 103
2, 261624, Note_on_c, 0, 73, 94
2, 261634, Note_on_c, 0, 39, 0
2, 261634, Note_on_c, 0, 51, 0
2, 261718, Note_on_c, 0, 85, 0
2, 261732, Note_on_c, 0, 73, 0
2, 261744, Note_on_c, 0, 56, 95
2, 261758, Note_on_c, 0, 44, 87
2, 261794, Note_on_c, 0, 56, 0
2, 261797, Note_on_c, 0, 44, 0
2, 261918, Note_on_c, 0, 71, 106
2, 261928, Note_on_c, 0, 83, 97
2, 261934, Note_on_c, 0, 75, 66
2, 261944, Note_on_c, 0, 63, 112
2, 261956, Note_on_c, 0, 71, 0
2, 261956, Note_on_c, 0, 51, 96
2, 261970, Note_on_c, 0, 83, 0
2, 261978, Note_on_c, 0, 75, 0
2, 262038, Note_on_c, 0, 63, 0
2, 262058, Note_on_c, 0, 82, 82
2, 262062, Note_on_c, 0, 70, 81
2, 262086, Note_on_c, 0, 51, 0
2, 262096, Note_on_c, 0, 82, 0
2, 262108, Note_on_c, 0, 70, 0
2, 262176, Note_on_c, 0, 83, 127
2, 262176, Note_on_c, 0, 71, 97
2, 262192, Note_on_c, 0, 75, 65
2, 262195, Control_c, 0, 64, 0
2, 262208, Note_on_c, 0, 83, 0
2, 262216, Note_on_c, 0, 71, 0
2, 262218, Note_on_c, 0, 44, 108
2, 262223, Note_on_c, 0, 32, 108
2, 262238, Note_on_c, 0, 75, 0
2, 262260, Note_on_c, 0, 32, 0
2, 262268, Note_on_c, 0, 44, 0
2, 262302, Note_on_c, 0, 85, 104
2, 262304, Note_on_c, 0, 73, 98
2, 262304, Control_c, 0, 64, 127
2, 262344, Note_on_c, 0, 85, 0
2, 262346, Note_on_c, 0, 73, 0
2, 262438, Note_on_c, 0, 51, 97
2, 262441, Note_on_c, 0, 39, 89
2, 262444, Note_on_c, 0, 75, 109
2, 262448, Note_on_c, 0, 87, 105
2, 262474, Note_on_c, 0, 39, 0
2, 262474, Note_on_c, 0, 51, 0
2, 262528, Note_on_c, 0, 75, 0
2, 262546, Note_on_c, 0, 87, 0
2, 262588, Note_on_c, 0, 56, 86
2, 262598, Note_on_c, 0, 44, 78
2, 262628, Note_on_c, 0, 56, 0
2, 262642, Note_on_c, 0, 44, 0
2, 262728, Note_on_c, 0, 73, 90
2, 262730, Note_on_c, 0, 85, 94
2, 262764, Note_on_c, 0, 85, 0
2, 262768, Note_on_c, 0, 73, 0
2, 262768, Note_on_c, 0, 63, 111
2, 262776, Note_on_c, 0, 51, 101
2, 262804, Note_on_c, 0, 63, 0
2, 262830, Note_on_c, 0, 51, 0
2, 262860, Note_on_c, 0, 83, 110
2, 262860, Note_on_c, 0, 71, 98
2, 262894, Note_on_c, 0, 83, 0
2, 262897, Note_on_c, 0, 71, 0
2, 262990, Note_on_c, 0, 82, 88
2, 262994, Note_on_c, 0, 70, 78
2, 263000, Note_on_c, 0, 75, 74
2, 263012, Control_c, 0, 64, 0
2, 263028, Note_on_c, 0, 44, 108
2, 263036, Note_on_c, 0, 32, 105
2, 263050, Note_on_c, 0, 75, 0
2, 263072, Note_on_c, 0, 32, 0
2, 263094, Note_on_c, 0, 71, 98
2, 263100, Note_on_c, 0, 44, 0
2, 263100, Note_on_c, 0, 70, 0
2, 263100, Note_on_c, 0, 83, 123
2, 263116, Note_on_c, 0, 82, 0
2, 263119, Control_c, 0, 64, 127
2, 263140, Note_on_c, 0, 71, 0
2, 263150, Note_on_c, 0, 83, 0
2, 263226, Note_on_c, 0, 51, 104
2, 263236, Note_on_c, 0, 39, 94
2, 263252, Note_on_c, 0, 85, 103
2, 263258, Note_on_c, 0, 73, 96
2, 263266, Note_on_c, 0, 51, 0
2, 263270, Note_on_c, 0, 39, 0
2, 263342, Note_on_c, 0, 85, 0
2, 263362, Note_on_c, 0, 73, 0
2, 263382, Note_on_c, 0, 56, 98
2, 263392, Note_on_c, 0, 44, 88
2, 263426, Note_on_c, 0, 56, 0
2, 263432, Note_on_c, 0, 44, 0
2, 263500, Note_on_c, 0, 71, 102
2, 263505, Note_on_c, 0, 83, 96
2, 263510, Note_on_c, 0, 75, 71
2, 263538, Note_on_c, 0, 71, 0
2, 263548, Note_on_c, 0, 83, 0
2, 263551, Note_on_c, 0, 75, 0
2, 263566, Note_on_c, 0, 63, 109
2, 263580, Note_on_c, 0, 51, 88
2, 263602, Note_on_c, 0, 63, 0
2, 263638, Note_on_c, 0, 51, 0
2, 263638, Note_on_c, 0, 70, 94
2, 263638, Note_on_c, 0, 82, 93
2, 263676, Note_on_c, 0, 82, 0
2, 263684, Note_on_c, 0, 70, 0
2, 263778, Note_on_c, 0, 83, 120
2, 263780, Control_c, 0, 64, 0
2, 263783, Note_on_c, 0, 71, 97
2, 263792, Note_on_c, 0, 75, 71
2, 263808, Note_on_c, 0, 44, 111
2, 263810, Note_on_c, 0, 83, 0
2, 263816, Note_on_c, 0, 32, 98
2, 263822, Note_on_c, 0, 71, 0
2, 263838, Note_on_c, 0, 75, 0
2, 263848, Note_on_c, 0, 44, 0
2, 263848, Note_on_c, 0, 32, 0
2, 263886, Control_c, 0, 64, 127
2, 263910, Note_on_c, 0, 82, 93
2, 263910, Note_on_c, 0, 70, 96
2, 263948, Note_on_c, 0, 82, 0
2, 263951, Note_on_c, 0, 70, 0
2, 264028, Note_on_c, 0, 51, 100
2, 264031, Note_on_c, 0, 39, 94
2, 264040, Note_on_c, 0, 68, 89
2, 264042, Note_on_c, 0, 80, 90
2, 264064, Note_on_c, 0, 51, 0
2, 264066, Note_on_c, 0, 39, 0
2, 264078, Note_on_c, 0, 68, 0
2, 264088, Note_on_c, 0, 80, 0
2, 264172, Note_on_c, 0, 56, 89
2, 264184, Note_on_c, 0, 44, 86
2, 264228, Note_on_c, 0, 56, 0
2, 264230, Note_on_c, 0, 44, 0
2, 264378, Note_on_c, 0, 95, 118
2, 264380, Note_on_c, 0, 83, 127
2, 264386, Note_on_c, 0, 63, 109
2, 264394, Note_on_c, 0, 87, 56
2, 264396, Note_on_c, 0, 51, 95
2, 264412, Note_on_c, 0, 83, 0
2, 264420, Note_on_c, 0, 95, 0
2, 264430, Note_on_c, 0, 63, 0
2, 264446, Note_on_c, 0, 87, 0
2, 264462, Note_on_c, 0, 51, 0
2, 264670, Control_c, 0, 64, 0
2, 264678, Note_on_c, 0, 94, 92
2, 264680, Note_on_c, 0, 82, 95
2, 264692, Note_on_c, 0, 87, 63
2, 264692, Note_on_c, 0, 44, 111
2, 264696, Note_on_c, 0, 32, 103
2, 264730, Note_on_c, 0, 32, 0
2, 264736, Note_on_c, 0, 87, 0
2, 264738, Note_on_c, 0, 44, 0
2, 264744, Note_on_c, 0, 82, 0
2, 264746, Note_on_c, 0, 94, 0
2, 264778, Control_c, 0, 64, 127
2, 264804, Note_on_c, 0, 95, 88
2, 264804, Note_on_c, 0, 83, 92
2, 264842, Note_on_c, 0, 95, 0
2, 264846, Note_on_c, 0, 83, 0
2, 264916, Note_on_c, 0, 39, 103
2, 264919, Note_on_c, 0, 51, 94
2, 264944, Note_on_c, 0, 85, 98
2, 264948, Note_on_c, 0, 97, 93
2, 264950, Note_on_c, 0, 39, 0
2, 264956, Note_on_c, 0, 51, 0
2, 265054, Note_on_c, 0, 97, 0
2, 265060, Note_on_c, 0, 85, 0
2, 265066, Note_on_c, 0, 56, 89
2, 265080, Note_on_c, 0, 44, 81
2, 265112, Note_on_c, 0, 56, 0
2, 265124, Note_on_c, 0, 44, 0
2, 265226, Note_on_c, 0, 83, 118
2, 265232, Note_on_c, 0, 95, 81
2, 265234, Note_on_c, 0, 87, 64
2, 265248, Note_on_c, 0, 63, 103
2, 265260, Note_on_c, 0, 83, 0
2, 265260, Note_on_c, 0, 51, 93
2, 265274, Note_on_c, 0, 95, 0
2, 265277, Note_on_c, 0, 87, 0
2, 265282, Note_on_c, 0, 63, 0
2, 265310, Note_on_c, 0, 51, 0
2, 265360, Note_on_c, 0, 94, 83
2, 265364, Note_on_c, 0, 82, 75
2, 265402, Note_on_c, 0, 94, 0
2, 265408, Note_on_c, 0, 82, 0
2, 265484, Control_c, 0, 64, 0
2, 265486, Note_on_c, 0, 95, 104
2, 265489, Note_on_c, 0, 83, 119
2, 265496, Note_on_c, 0, 87, 81
2, 265498, Note_on_c, 0, 44, 111
2, 265502, Note_on_c, 0, 32, 110
2, 265520, Note_on_c, 0, 83, 0
2, 265526, Note_on_c, 0, 95, 0
2, 265532, Note_on_c, 0, 32, 0
2, 265532, Note_on_c, 0, 87, 0
2, 265534, Note_on_c, 0, 44, 0
2, 265576, Control_c, 0, 64, 127
2, 265610, Note_on_c, 0, 97, 102
2, 265610, Note_on_c, 0, 85, 103
2, 265660, Note_on_c, 0, 85, 0
2, 265668, Note_on_c, 0, 97, 0
2, 265726, Note_on_c, 0, 51, 96
2, 265726, Note_on_c, 0, 39, 96
2, 265756, Note_on_c, 0, 87, 96
2, 265758, Note_on_c, 0, 39, 0
2, 265760, Note_on_c, 0, 99, 105
2, 265762, Note_on_c, 0, 51, 0
2, 265800, Note_on_c, 0, 99, 0
2, 265804, Note_on_c, 0, 87, 0
2, 265874, Note_on_c, 0, 56, 92
2, 265892, Note_on_c, 0, 44, 79
2, 265912, Note_on_c, 0, 56, 0
2, 265934, Note_on_c, 0, 44, 0
2, 266020, Note_on_c, 0, 85, 95
2, 266024, Note_on_c, 0, 97, 90
2, 266044, Note_on_c, 0, 63, 111
2, 266056, Note_on_c, 0, 97, 0
2, 266056, Note_on_c, 0, 85, 0
2, 266056, Note_on_c, 0, 51, 96
2, 266088, Note_on_c, 0, 63, 0
2, 266128, Note_on_c, 0, 51, 0
2, 266148, Note_on_c, 0, 95, 93
2, 266156, Note_on_c, 0, 83, 97
2, 266182, Note_on_c, 0, 95, 0
2, 266196, Note_on_c, 0, 83, 0
2, 266268, Control_c, 0, 64, 0
2, 266282, Note_on_c, 0, 82, 80
2, 266282, Note_on_c, 0, 94, 83
2, 266286, Note_on_c, 0, 44, 109
2, 266292, Note_on_c, 0, 32, 106
2, 266302, Note_on_c, 0, 87, 59
2, 266332, Note_on_c, 0, 32, 0
2, 266348, Note_on_c, 0, 82, 0
2, 266350, Note_on_c, 0, 44, 0
2, 266358, Note_on_c, 0, 87, 0
2, 266376, Control_c, 0, 64, 127
2, 266378, Note_on_c, 0, 94, 0
2, 266384, Note_on_c, 0, 83, 111
2, 266386, Note_on_c, 0, 95, 97
2, 266422, Note_on_c, 0, 83, 0
2, 266489, Note_on_c, 0, 95, 0
2, 266512, Note_on_c, 0, 39, 90
2, 266516, Note_on_c, 0, 51, 88
2, 266530, Note_on_c, 0, 97, 98
2, 266534, Note_on_c, 0, 85, 104
2, 266546, Note_on_c, 0, 39, 0
2, 266554, Note_on_c, 0, 51, 0
2, 266616, Note_on_c, 0, 97, 0
2, 266632, Note_on_c, 0, 85, 0
2, 266660, Note_on_c, 0, 56, 95
2, 266674, Note_on_c, 0, 44, 88
2, 266700, Note_on_c, 0, 56, 0
2, 266714, Note_on_c, 0, 44, 0
2, 266800, Note_on_c, 0, 83, 127
2, 266803, Note_on_c, 0, 95, 104
2, 266828, Note_on_c, 0, 83, 0
2, 266832, Note_on_c, 0, 95, 0
2, 266842, Note_on_c, 0, 63, 103
2, 266852, Note_on_c, 0, 51, 86
2, 266874, Note_on_c, 0, 63, 0
2, 266900, Note_on_c, 0, 51, 0
2, 266930, Note_on_c, 0, 82, 87
2, 266930, Note_on_c, 0, 94, 83
2, 266966, Note_on_c, 0, 82, 0
2, 266968, Note_on_c, 0, 94, 0
2, 267022, Control_c, 0, 64, 0
2, 267066, Note_on_c, 0, 95, 101
2, 267068, Note_on_c, 0, 83, 103
2, 267076, Note_on_c, 0, 87, 73
2, 267076, Note_on_c, 0, 44, 110
2, 267078, Note_on_c, 0, 32, 109
2, 267100, Note_on_c, 0, 95, 0
2, 267108, Note_on_c, 0, 83, 0
2, 267110, Note_on_c, 0, 32, 0
2, 267112, Note_on_c, 0, 44, 0
2, 267136, Note_on_c, 0, 87, 0
2, 267144, Control_c, 0, 64, 127
2, 267196, Note_on_c, 0, 82, 86
2, 267201, Note_on_c, 0, 94, 72
2, 267236, Note_on_c, 0, 82, 0
2, 267246, Note_on_c, 0, 94, 0
2, 267318, Note_on_c, 0, 92, 86
2, 267320, Note_on_c, 0, 80, 98
2, 267322, Note_on_c, 0, 39, 95
2, 267324, Note_on_c, 0, 51, 96
2, 267354, Note_on_c, 0, 39, 0
2, 267354, Note_on_c, 0, 92, 0
2, 267357, Note_on_c, 0, 51, 0
2, 267370, Note_on_c, 0, 80, 0
2, 267450, Note_on_c, 0, 56, 98
2, 267470, Note_on_c, 0, 44, 63
2, 267486, Note_on_c, 0, 56, 0
2, 267522, Note_on_c, 0, 44, 0
2, 267588, Note_on_c, 0, 71, 109
2, 267590, Note_on_c, 0, 75, 100
2, 267593, Note_on_c, 0, 63, 112
2, 267598, Note_on_c, 0, 59, 118
2, 267608, Note_on_c, 0, 47, 94
2, 267620, Note_on_c, 0, 51, 78
2, 267630, Note_on_c, 0, 59, 0
2, 267632, Note_on_c, 0, 75, 0
2, 267634, Note_on_c, 0, 63, 0
2, 267644, Note_on_c, 0, 47, 0
2, 267654, Note_on_c, 0, 71, 0
2, 267662, Note_on_c, 0, 51, 0
2, 267834, Note_on_c, 0, 58, 104
2, 267846, Note_on_c, 0, 46, 97
2, 267852, Note_on_c, 0, 70, 79
2, 267854, Note_on_c, 0, 63, 102
2, 267882, Note_on_c, 0, 46, 0
2, 267886, Note_on_c, 0, 75, 26
2, 267890, Note_on_c, 0, 63, 0
2, 267894, Note_on_c, 0, 70, 0
2, 267918, Note_on_c, 0, 58, 0
2, 267950, Note_on_c, 0, 63, 94
2, 267960, Note_on_c, 0, 47, 100
2, 267960, Note_on_c, 0, 71, 94
2, 267964, Note_on_c, 0, 59, 103
2, 267994, Note_on_c, 0, 47, 0
2, 267996, Note_on_c, 0, 51, 28
2, 267998, Note_on_c, 0, 59, 0
2, 268016, Note_on_c, 0, 71, 0
2, 268016, Note_on_c, 0, 63, 0
2, 268030, Note_on_c, 0, 75, 0
2, 268066, Note_on_c, 0, 51, 0
2, 268066, Control_c, 0, 64, 0
2, 268080, Note_on_c, 0, 63, 112
2, 268082, Note_on_c, 0, 75, 98
2, 268090, Note_on_c, 0, 61, 120
2, 268095, Note_on_c, 0, 73, 97
2, 268098, Note_on_c, 0, 49, 100
2, 268116, Note_on_c, 0, 51, 85
2, 268190, Control_c, 0, 64, 127
2, 268198, Note_on_c, 0, 61, 0
2, 268198, Note_on_c, 0, 75, 0
2, 268206, Note_on_c, 0, 63, 0
2, 268208, Note_on_c, 0, 51, 0
2, 268214, Note_on_c, 0, 49, 0
2, 268238, Note_on_c, 0, 73, 0
2, 268350, Note_on_c, 0, 51, 100
2, 268352, Note_on_c, 0, 59, 104
2, 268362, Note_on_c, 0, 63, 103
2, 268370, Note_on_c, 0, 71, 87
2, 268370, Note_on_c, 0, 75, 71
2, 268382, Note_on_c, 0, 59, 0
2, 268384, Note_on_c, 0, 51, 0
2, 268394, Note_on_c, 0, 63, 0
2, 268412, Note_on_c, 0, 71, 0
2, 268412, Note_on_c, 0, 75, 0
2, 268464, Note_on_c, 0, 58, 96
2, 268467, Note_on_c, 0, 63, 85
2, 268467, Note_on_c, 0, 75, 79
2, 268476, Note_on_c, 0, 46, 88
2, 268480, Note_on_c, 0, 51, 57
2, 268488, Note_on_c, 0, 70, 77
2, 268516, Note_on_c, 0, 46, 0
2, 268528, Note_on_c, 0, 51, 0
2, 268528, Note_on_c, 0, 70, 0
2, 268532, Note_on_c, 0, 75, 0
2, 268552, Note_on_c, 0, 63, 0
2, 268552, Note_on_c, 0, 58, 0
2, 268608, Note_on_c, 0, 59, 102
2, 268611, Note_on_c, 0, 63, 100
2, 268611, Note_on_c, 0, 75, 67
2, 268624, Note_on_c, 0, 47, 69
2, 268629, Note_on_c, 0, 71, 100
2, 268638, Note_on_c, 0, 51, 37
2, 268648, Note_on_c, 0, 59, 0
2, 268656, Note_on_c, 0, 75, 0
2, 268666, Note_on_c, 0, 63, 0
2, 268668, Note_on_c, 0, 71, 0
2, 268674, Note_on_c, 0, 47, 0
2, 268696, Note_on_c, 0, 51, 0
2, 268736, Note_on_c, 0, 63, 96
2, 268736, Note_on_c, 0, 75, 62
2, 268744, Note_on_c, 0, 58, 62
2, 268748, Note_on_c, 0, 51, 103
2, 268754, Note_on_c, 0, 70, 77
2, 268786, Note_on_c, 0, 75, 0
2, 268789, Note_on_c, 0, 51, 0
2, 268796, Note_on_c, 0, 70, 0
2, 268796, Note_on_c, 0, 58, 0
2, 268814, Note_on_c, 0, 63, 0
2, 268850, Control_c, 0, 64, 0
2, 268870, Note_on_c, 0, 51, 92
2, 268872, Note_on_c, 0, 75, 75
2, 268872, Note_on_c, 0, 56, 95
2, 268875, Note_on_c, 0, 63, 101
2, 268890, Note_on_c, 0, 68, 88
2, 268896, Note_on_c, 0, 44, 74
2, 268906, Note_on_c, 0, 63, 0
2, 268912, Note_on_c, 0, 56, 0
2, 268926, Note_on_c, 0, 68, 0
2, 268931, Note_on_c, 0, 51, 0
2, 268948, Note_on_c, 0, 44, 0
2, 268958, Control_c, 0, 64, 127
2, 268974, Note_on_c, 0, 75, 0
2, 269240, Note_on_c, 0, 75, 118
2, 269243, Note_on_c, 0, 44, 124
2, 269243, Note_on_c, 0, 87, 109
2, 269243, Note_on_c, 0, 32, 110
2, 269246, Note_on_c, 0, 80, 105
2, 269262, Note_on_c, 0, 39, 89
2, 269270, Note_on_c, 0, 87, 0
2, 269273, Note_on_c, 0, 80, 0
2, 269273, Note_on_c, 0, 32, 0
2, 269280, Note_on_c, 0, 75, 0
2, 269294, Note_on_c, 0, 39, 0
2, 269344, Note_on_c, 0, 44, 0
2, 269528, Note_on_c, 0, 58, 103
2, 269532, Note_on_c, 0, 46, 110
2, 269534, Note_on_c, 0, 63, 103
2, 269544, Note_on_c, 0, 75, 74
2, 269544, Note_on_c, 0, 70, 73
2, 269554, Note_on_c, 0, 51, 66
2, 269566, Note_on_c, 0, 46, 0
2, 269580, Note_on_c, 0, 58, 0
2, 269594, Note_on_c, 0, 75, 0
2, 269602, Note_on_c, 0, 70, 0
2, 269604, Note_on_c, 0, 51, 0
2, 269610, Note_on_c, 0, 63, 0
2, 269650, Note_on_c, 0, 59, 105
2, 269652, Note_on_c, 0, 47, 101
2, 269658, Note_on_c, 0, 71, 97
2, 269658, Note_on_c, 0, 75, 87
2, 269658, Note_on_c, 0, 63, 90
2, 269661, Note_on_c, 0, 51, 73
2, 269682, Note_on_c, 0, 59, 0
2, 269686, Note_on_c, 0, 47, 0
2, 269694, Note_on_c, 0, 75, 0
2, 269706, Note_on_c, 0, 51, 0
2, 269718, Note_on_c, 0, 63, 0
2, 269728, Note_on_c, 0, 71, 0
2, 269766, Note_on_c, 0, 75, 64
2, 269772, Note_on_c, 0, 61, 115
2, 269772, Control_c, 0, 64, 0
2, 269772, Note_on_c, 0, 63, 119
2, 269775, Note_on_c, 0, 51, 73
2, 269775, Note_on_c, 0, 49, 98
2, 269782, Note_on_c, 0, 73, 101
2, 269882, Note_on_c, 0, 61, 0
2, 269910, Note_on_c, 0, 49, 0
2, 269910, Note_on_c, 0, 63, 0
2, 269910, Control_c, 0, 64, 127
2, 269918, Note_on_c, 0, 75, 0
2, 269922, Note_on_c, 0, 51, 0
2, 269952, Note_on_c, 0, 73, 0
2, 270032, Note_on_c, 0, 63, 103
2, 270032, Note_on_c, 0, 51, 80
2, 270038, Note_on_c, 0, 59, 81
2, 270042, Note_on_c, 0, 71, 88
2, 270044, Note_on_c, 0, 75, 58
2, 270072, Note_on_c, 0, 51, 0
2, 270072, Note_on_c, 0, 63, 0
2, 270080, Note_on_c, 0, 59, 0
2, 270086, Note_on_c, 0, 71, 0
2, 270092, Note_on_c, 0, 75, 0
2, 270134, Note_on_c, 0, 58, 85
2, 270144, Note_on_c, 0, 51, 69
2, 270148, Note_on_c, 0, 63, 87
2, 270160, Note_on_c, 0, 70, 82
2, 270160, Note_on_c, 0, 75, 49
2, 270174, Note_on_c, 0, 46, 32
2, 270194, Note_on_c, 0, 58, 0
2, 270208, Note_on_c, 0, 63, 0
2, 270212, Note_on_c, 0, 51, 0
2, 270216, Note_on_c, 0, 75, 0
2, 270218, Note_on_c, 0, 70, 0
2, 270246, Note_on_c, 0, 46, 0
2, 270276, Note_on_c, 0, 75, 73
2, 270279, Note_on_c, 0, 59, 102
2, 270286, Note_on_c, 0, 47, 89
2, 270286, Note_on_c, 0, 63, 83
2, 270298, Note_on_c, 0, 71, 92
2, 270316, Note_on_c, 0, 51, 33
2, 270322, Note_on_c, 0, 59, 0
2, 270324, Note_on_c, 0, 47, 0
2, 270342, Note_on_c, 0, 71, 0
2, 270356, Note_on_c, 0, 75, 0
2, 270372, Note_on_c, 0, 63, 0
2, 270382, Note_on_c, 0, 51, 0
2, 270426, Note_on_c, 0, 63, 82
2, 270426, Note_on_c, 0, 58, 77
2, 270426, Note_on_c, 0, 70, 72
2, 270434, Note_on_c, 0, 51, 105
2, 270434, Note_on_c, 0, 75, 54
2, 270462, Note_on_c, 0, 56, 50
2, 270462, Control_c, 0, 64, 0
2, 270470, Note_on_c, 0, 51, 0
2, 270476, Note_on_c, 0, 58, 0
2, 270478, Note_on_c, 0, 70, 0
2, 270486, Note_on_c, 0, 75, 0
2, 270526, Note_on_c, 0, 56, 0
2, 270548, Note_on_c, 0, 75, 77
2, 270550, Note_on_c, 0, 51, 83
2, 270562, Note_on_c, 0, 56, 47
2, 270565, Note_on_c, 0, 68, 86
2, 270568, Note_on_c, 0, 44, 85
2, 270570, Control_c, 0, 64, 127
2, 270598, Note_on_c, 0, 63, 0
2, 270601, Note_on_c, 0, 68, 0
2, 270601, Note_on_c, 0, 51, 0
2, 270610, Note_on_c, 0, 56, 0
2, 270612, Note_on_c, 0, 44, 0
2, 270648, Note_on_c, 0, 75, 0
2, 270892, Note_on_c, 0, 44, 115
2, 270894, Note_on_c, 0, 75, 118
2, 270897, Note_on_c, 0, 87, 110
2, 270900, Note_on_c, 0, 32, 103
2, 270908, Note_on_c, 0, 80, 96
2, 270910, Note_on_c, 0, 39, 95
2, 270924, Note_on_c, 0, 87, 0
2, 270934, Note_on_c, 0, 75, 0
2, 270936, Note_on_c, 0, 32, 0
2, 270940, Note_on_c, 0, 80, 0
2, 270944, Note_on_c, 0, 39, 0
2, 270976, Note_on_c, 0, 44, 0
2, 271166, Note_on_c, 0, 47, 95
2, 271168, Note_on_c, 0, 75, 86
2, 271171, Note_on_c, 0, 63, 96
2, 271176, Note_on_c, 0, 71, 92
2, 271180, Note_on_c, 0, 59, 52
2, 271184, Note_on_c, 0, 60, 59
2, 271204, Note_on_c, 0, 47, 0
2, 271222, Note_on_c, 0, 71, 0
2, 271224, Note_on_c, 0, 75, 0
2, 271230, Note_on_c, 0, 59, 0
2, 271230, Note_on_c, 0, 63, 0
2, 271242, Note_on_c, 0, 60, 0
2, 271282, Note_on_c, 0, 58, 89
2, 271284, Note_on_c, 0, 63, 102
2, 271292, Note_on_c, 0, 75, 77
2, 271308, Note_on_c, 0, 70, 70
2, 271311, Note_on_c, 0, 51, 71
2, 271334, Note_on_c, 0, 58, 0
2, 271337, Note_on_c, 0, 75, 0
2, 271352, Note_on_c, 0, 70, 0
2, 271356, Note_on_c, 0, 51, 0
2, 271370, Control_c, 0, 64, 0
2, 271400, Note_on_c, 0, 63, 0
2, 271403, Note_on_c, 0, 56, 96
2, 271412, Note_on_c, 0, 75, 75
2, 271415, Note_on_c, 0, 51, 87
2, 271426, Note_on_c, 0, 44, 93
2, 271429, Note_on_c, 0, 68, 74
2, 271446, Note_on_c, 0, 56, 0
2, 271456, Note_on_c, 0, 51, 0
2, 271468, Note_on_c, 0, 68, 0
2, 271482, Note_on_c, 0, 44, 0
2, 271508, Control_c, 0, 64, 127
2, 271514, Note_on_c, 0, 75, 0
2, 271722, Note_on_c, 0, 44, 117
2, 271726, Note_on_c, 0, 80, 120
2, 271728, Note_on_c, 0, 32, 101
2, 271730, Note_on_c, 0, 92, 102
2, 271734, Note_on_c, 0, 87, 95
2, 271740, Note_on_c, 0, 39, 90
2, 271760, Note_on_c, 0, 92, 0
2, 271763, Note_on_c, 0, 87, 0
2, 271763, Note_on_c, 0, 32, 0
2, 271763, Note_on_c, 0, 80, 0
2, 271774, Note_on_c, 0, 39, 0
2, 271810, Note_on_c, 0, 44, 0
2, 271992, Note_on_c, 0, 59, 108
2, 271995, Note_on_c, 0, 47, 95
2, 272008, Note_on_c, 0, 63, 98
2, 272008, Note_on_c, 0, 71, 96
2, 272011, Note_on_c, 0, 75, 77
2, 272020, Note_on_c, 0, 59, 0
2, 272032, Note_on_c, 0, 47, 0
2, 272050, Note_on_c, 0, 63, 0
2, 272054, Note_on_c, 0, 75, 0
2, 272056, Note_on_c, 0, 71, 0
2, 272116, Note_on_c, 0, 63, 94
2, 272116, Note_on_c, 0, 58, 89
2, 272118, Note_on_c, 0, 75, 72
2, 272138, Note_on_c, 0, 51, 75
2, 272140, Note_on_c, 0, 70, 75
2, 272164, Note_on_c, 0, 58, 0
2, 272168, Note_on_c, 0, 75, 0
2, 272178, Note_on_c, 0, 51, 0
2, 272186, Note_on_c, 0, 70, 0
2, 272198, Control_c, 0, 64, 0
2, 272242, Note_on_c, 0, 56, 102
2, 272252, Note_on_c, 0, 51, 69
2, 272254, Note_on_c, 0, 75, 59
2, 272256, Note_on_c, 0, 68, 85
2, 272262, Note_on_c, 0, 63, 0
2, 272262, Note_on_c, 0, 44, 93
2, 272290, Note_on_c, 0, 56, 0
2, 272290, Note_on_c, 0, 68, 0
2, 272298, Note_on_c, 0, 51, 0
2, 272322, Control_c, 0, 64, 127
2, 272330, Note_on_c, 0, 75, 0
2, 272348, Note_on_c, 0, 44, 0
2, 272590, Note_on_c, 0, 83, 127
2, 272592, Note_on_c, 0, 87, 102
2, 272595, Note_on_c, 0, 44, 115
2, 272595, Note_on_c, 0, 95, 108
2, 272602, Note_on_c, 0, 32, 105
2, 272616, Note_on_c, 0, 39, 83
2, 272624, Note_on_c, 0, 87, 0
2, 272626, Note_on_c, 0, 95, 0
2, 272626, Note_on_c, 0, 83, 0
2, 272632, Note_on_c, 0, 32, 0
2, 272652, Note_on_c, 0, 39, 0
2, 272682, Note_on_c, 0, 44, 0
2, 272892, Note_on_c, 0, 59, 104
2, 272896, Note_on_c, 0, 47, 100
2, 272900, Note_on_c, 0, 75, 88
2, 272902, Note_on_c, 0, 63, 98
2, 272908, Note_on_c, 0, 71, 92
2, 272922, Note_on_c, 0, 59, 0
2, 272926, Note_on_c, 0, 51, 31
2, 272930, Note_on_c, 0, 47, 0
2, 272948, Note_on_c, 0, 75, 0
2, 272951, Note_on_c, 0, 63, 0
2, 272954, Note_on_c, 0, 71, 0
2, 272996, Note_on_c, 0, 51, 0
2, 273020, Note_on_c, 0, 63, 102
2, 273020, Note_on_c, 0, 58, 89
2, 273026, Note_on_c, 0, 75, 71
2, 273033, Note_on_c, 0, 70, 78
2, 273086, Note_on_c, 0, 70, 0
2, 273086, Note_on_c, 0, 75, 0
2, 273094, Note_on_c, 0, 58, 0
2, 273106, Control_c, 0, 64, 0
2, 273122, Note_on_c, 0, 63, 0
2, 273152, Note_on_c, 0, 56, 103
2, 273166, Note_on_c, 0, 51, 103
2, 273166, Note_on_c, 0, 75, 71
2, 273169, Note_on_c, 0, 68, 93
2, 273184, Note_on_c, 0, 44, 67
2, 273204, Note_on_c, 0, 51, 0
2, 273210, Note_on_c, 0, 68, 0
2, 273232, Note_on_c, 0, 44, 0
2, 273238, Note_on_c, 0, 56, 0
2, 273244, Control_c, 0, 64, 127
2, 273278, Note_on_c, 0, 75, 0
2, 273574, Note_on_c, 0, 87, 111
2, 273576, Note_on_c, 0, 44, 110
2, 273576, Note_on_c, 0, 32, 103
2, 273579, Note_on_c, 0, 99, 116
2, 273579, Note_on_c, 0, 92, 101
2, 273604, Note_on_c, 0, 39, 73
2, 273620, Note_on_c, 0, 32, 0
2, 273644, Note_on_c, 0, 39, 0
2, 273676, Note_on_c, 0, 44, 0
2, 273784, Note_on_c, 0, 87, 0
2, 273848, Note_on_c, 0, 92, 0
2, 273860, Note_on_c, 0, 99, 0
2, 274356, Note_on_c, 0, 56, 100
2, 274358, Note_on_c, 0, 99, 103
2, 274361, Note_on_c, 0, 87, 100
2, 274361, Note_on_c, 0, 44, 96
2, 274364, Note_on_c, 0, 92, 90
2, 274376, Note_on_c, 0, 51, 82
2, 274404, Note_on_c, 0, 44, 0
2, 274416, Note_on_c, 0, 51, 0
2, 274452, Note_on_c, 0, 56, 0
2, 274496, Note_on_c, 0, 87, 0
2, 274502, Note_on_c, 0, 99, 0
2, 274534, Note_on_c, 0, 92, 0
2, 274720, Note_on_c, 0, 99, 101
2, 274723, Note_on_c, 0, 68, 101
2, 274723, Note_on_c, 0, 87, 96
2, 274723, Note_on_c, 0, 92, 87
2, 274736, Note_on_c, 0, 56, 70
2, 274752, Note_on_c, 0, 68, 0
2, 274790, Note_on_c, 0, 56, 0
2, 274856, Note_on_c, 0, 87, 0
2, 274874, Note_on_c, 0, 92, 0
2, 274890, Note_on_c, 0, 99, 0
2, 275052, Note_on_c, 0, 99, 93
2, 275054, Note_on_c, 0, 92, 83
2, 275054, Note_on_c, 0, 80, 102
2, 275054, Note_on_c, 0, 87, 86
2, 275066, Note_on_c, 0, 75, 83
2, 275072, Note_on_c, 0, 68, 69
2, 275084, Note_on_c, 0, 80, 0
2, 275100, Note_on_c, 0, 75, 0
2, 275118, Note_on_c, 0, 68, 0
2, 275186, Note_on_c, 0, 87, 0
2, 275218, Note_on_c, 0, 92, 0
2, 275228, Note_on_c, 0, 99, 0
2, 275322, Note_on_c, 0, 68, 93
2, 275330, Note_on_c, 0, 56, 90
2, 275332, Note_on_c, 0, 99, 73
2, 275332, Note_on_c, 0, 87, 86
2, 275334, Note_on_c, 0, 92, 77
2, 275354, Note_on_c, 0, 68, 0
2, 275354, Note_on_c, 0, 63, 39
2, 275366, Note_on_c, 0, 56, 0
2, 275418, Note_on_c, 0, 63, 0
2, 275448, Note_on_c, 0, 87, 0
2, 275468, Note_on_c, 0, 92, 0
2, 275488, Note_on_c, 0, 99, 0
2, 275596, Note_on_c, 0, 56, 86
2, 275599, Note_on_c, 0, 44, 101
2, 275603, Note_on_c, 0, 92, 80
2, 275606, Note_on_c, 0, 51, 79
2, 275608, Note_on_c, 0, 87, 80
2, 275610, Note_on_c, 0, 99, 78
2, 275632, Note_on_c, 0, 44, 0
2, 275635, Note_on_c, 0, 56, 0
2, 275646, Note_on_c, 0, 51, 0
2, 275728, Note_on_c, 0, 87, 0
2, 275748, Note_on_c, 0, 92, 0
2, 275774, Note_on_c, 0, 99, 0
2, 275976, Note_on_c, 0, 99, 103
2, 275980, Note_on_c, 0, 87, 96
2, 275982, Note_on_c, 0, 32, 103
2, 275984, Note_on_c, 0, 44, 106
2, 275984, Note_on_c, 0, 92, 85
2, 276004, Note_on_c, 0, 39, 64
2, 276016, Note_on_c, 0, 32, 0
2, 276024, Note_on_c, 0, 44, 0
2, 276046, Note_on_c, 0, 39, 0
2, 276064, Note_on_c, 0, 99, 0
2, 276076, Note_on_c, 0, 87, 0
2, 276098, Note_on_c, 0, 92, 0
2, 276906, Note_on_c, 0, 68, 103
2, 276911, Note_on_c, 0, 56, 102
2, 276911, Note_on_c, 0, 63, 111
2, 276911, Note_on_c, 0, 59, 113
2, 276918, Note_on_c, 0, 44, 104
2, 276932, Note_on_c, 0, 51, 79
2, 277182, Note_on_c, 0, 56, 0
2, 277196, Note_on_c, 0, 59, 0
2, 277240, Note_on_c, 0, 51, 0
2, 277266, Note_on_c, 0, 44, 0
2, 277288, Note_on_c, 0, 63, 0
2, 277342, Note_on_c, 0, 68, 0
2, 278186, Note_on_c, 0, 92, 106
2, 278189, Note_on_c, 0, 71, 113
2, 278189, Note_on_c, 0, 80, 105
2, 278196, Note_on_c, 0, 87, 89
2, 278196, Note_on_c, 0, 83, 124
2, 278196, Note_on_c, 0, 68, 87
2, 278199, Note_on_c, 0, 59, 92
2, 278208, Note_on_c, 0, 63, 93
2, 281076, Note_on_c, 0, 83, 0
2, 281096, Note_on_c, 0, 59, 0
2, 281108, Note_on_c, 0, 92, 0
2, 281114, Note_on_c, 0, 80, 0
2, 281132, Note_on_c, 0, 87, 0
2, 281135, Note_on_c, 0, 71, 0
2, 281142, Note_on_c, 0, 63, 0
2, 281150, Note_on_c, 0, 68, 0
2, 281588, Control_c, 0, 64, 0
2, 281588, End_track
0, 0, End_of_file
